<svg xmlns="http://www.w3.org/2000/svg" viewBox="0 0 1920 1080" xml:space="preserve"><path fill="#FFF" d="M148.32 1077.56H3.17a2.5 2.5 0 1 1 0-5h145.15a2.5 2.5 0 1 1 0 5zm1768.05 0h-145.94c-2.51-2.2-.98-5 1.2-5h144.6c1.3 0 2.5.94 2.63 2.24a2.5 2.5 0 0 1-2.49 2.76z"/><path d="M948.36 550.88c-16.63 0-32.52-5.61-44.75-15.82-12.21-10.2-19.7-24.04-21.08-39l4.98-.46c1.25 13.63 8.11 26.28 19.3 35.63 11.33 9.45 26.09 14.65 41.55 14.65 33.66 0 61.06-24.61 61.06-54.87h5c0 33.01-29.64 59.87-66.06 59.87z"/><path d="M1075.47 550.88c-36.42 0-66.06-26.86-66.06-59.87h5c0 30.26 27.4 54.87 61.06 54.87s61.06-24.61 61.06-54.87h5c0 33.01-29.63 59.87-66.06 59.87z"/><path d="M1202.6 550.88c-36.43 0-66.07-26.86-66.07-59.87h5c0 30.26 27.4 54.87 61.06 54.87s61.06-24.61 61.06-54.87h5c0 33.01-29.63 59.87-66.06 59.87z"/><ellipse fill="#C56FFF" cx="1075.81" cy="548.71" rx="11.31" ry="11.29"/><ellipse fill="#C56FFF" cx="1032.55" cy="533.77" rx="11.31" ry="11.29"/><ellipse fill="#C56FFF" cx="1118.01" cy="533.77" rx="11.31" ry="11.29"/><ellipse fill="#C56FFF" cx="1202.81" cy="548.71" rx="11.31" ry="11.29"/><ellipse fill="#C56FFF" cx="1159.56" cy="533.77" rx="11.31" ry="11.29"/><ellipse fill="#C56FFF" cx="1245.01" cy="533.77" rx="11.31" ry="11.29"/><ellipse fill="#C56FFF" cx="948.15" cy="548.71" rx="11.31" ry="11.29"/><ellipse fill="#C56FFF" cx="990.35" cy="533.77" rx="11.31" ry="11.29"/><path d="m398.3 586.9 75.12-93.28 75.13 93.28z"/><path d="m398.3 656.86 75.12-93.28 75.13 93.28z"/><path d="m398.3 726.83 75.12-93.29 75.13 93.29z"/><path fill="#FFF" d="M1062.77 633.69h5v33.6h-5zm-66.27 69.46h5v33.6h-5zm68.74-71.65v-11.3a21.79 21.79 0 0 1 21.77-21.75h180.8v33.04h-202.57zm51.64-29.34a13.3 13.3 0 0 0 0 26.57 13.3 13.3 0 1 0-.01-26.57z"/><path fill="#FFF" d="M1265.3 600.95v28.04h-140.32a15.8 15.8 0 0 0-1.86-28.04h142.19m-154.67 0a15.8 15.8 0 0 0-1.87 28.05h-41.02v-8.8a19.28 19.28 0 0 1 19.26-19.25h23.63m159.66-5H1087a24.26 24.26 0 0 0-24.25 24.26v13.78h207.56v-38.04zm-153.42 30.29a10.79 10.79 0 1 1 0-21.58 10.79 10.79 0 0 1 0 21.58z"/><circle fill="#C56FFF" cx="1086.9" cy="615.45" r="10.79"/><path d="M1147.48 623.74a8.3 8.3 0 0 1 0-16.58 8.3 8.3 0 0 1 0 16.58z"/><path d="M1147.48 609.66a5.8 5.8 0 1 1-.01 11.59 5.8 5.8 0 0 1 .01-11.59m0-5a10.79 10.79 0 1 0 0 21.58 10.79 10.79 0 0 0 0-21.58z"/><path fill="#FFF" d="M998.95 702.65v-11.29c0-12 9.76-21.76 21.76-21.76h247.94v33.05h-269.7zm51.63-29.33c-7.32 0-13.28 5.96-13.28 13.28s5.96 13.29 13.28 13.29 13.29-5.96 13.29-13.29-5.96-13.28-13.29-13.28z"/><path fill="#FFF" d="M1266.15 672.1v28.05H1058.7a15.8 15.8 0 0 0-1.87-28.05h209.33m-221.8 0a15.8 15.8 0 0 0-1.87 28.05h-41.03v-8.79a19.28 19.28 0 0 1 19.26-19.26h23.64m226.8-5h-250.44a24.26 24.26 0 0 0-24.26 24.26v13.79h274.7V667.1zm-220.57 30.29a10.79 10.79 0 1 1 0-21.57 10.79 10.79 0 0 1 0 21.57z"/><circle fill="#C56FFF" cx="1020.61" cy="686.6" r="10.79"/><path d="M1081.19 694.89a8.3 8.3 0 0 1 0-16.57 8.3 8.3 0 0 1 0 16.57z"/><path d="M1081.19 680.82a5.8 5.8 0 1 1-.02 11.58 5.8 5.8 0 0 1 .02-11.58m0-5a10.79 10.79 0 1 0 0 21.57 10.79 10.79 0 0 0 0-21.57zm722.31 224.7-.02-.21-.02-.16-.02-.1a2.5 2.5 0 0 0-.13-.43l-.02-.08c-.09-.19-.2-.36-.33-.53l-.04-.06-59.64-71.82a2.5 2.5 0 0 0-3.85 3.2l56.24 67.72h-189.19a2.48 2.48 0 0 0-1.02-.23h-.04c-.35 0-.69.1-1 .23H124.32l56.25-67.72a2.5 2.5 0 0 0-3.85-3.2l-59.64 71.82-.1.14-.17.3c-.05.09-.1.17-.13.26-.06.16-.1.33-.14.5l-.02.2-.02.22v137.67a40.02 40.02 0 0 0 39.98 39.97h1607.04a40.02 40.02 0 0 0 39.98-39.97V900.52zm-116.7 2.55h22.67c-8.45 36.8-17.33 54.18-27.88 54.61-2.14.1-2.96-.62-3.38-1.16-.79-1-2.3-4.41.58-14.5 2.59-9.09 4.27-18.47 5.9-27.54.67-3.75 1.37-7.6 2.12-11.41zm-32.7 0h27.62c-.69 3.52-1.33 7.07-1.95 10.53-1.6 8.95-3.27 18.2-5.8 27.04-2.61 9.18-2.51 15.38.3 18.97 1.13 1.43 3.24 3.08 6.99 3.08l.53-.01c13.62-.55 23.46-18.42 32.81-59.61h29.83c-1.27 4.33-5.02 16.55-15.7 48.99-6.25 18.98-20.06 31.94-41.04 38.52-16.16 5.07-34.26 5.16-45.04 3-2.86-.56-12.18-3.15-11.98-12.37.13-5.91 3.25-10.98 6.55-16.34l1.08-1.75c10-16.45 12.5-35.35 14.93-53.61l.88-6.44zm-184.04 0c-.34 5.4-1.96 19.72-9.62 30.3-1.62 2.25-6 7.39-11.46 6.75-4.44-.52-4.89-4.83-4.19-13.68.15-1.85.29-3.59.26-5.09-.12-5.53-.54-11.53-1.27-18.28h26.28zm-31.31 0a206.7 206.7 0 0 1 1.3 18.39c.03 1.25-.1 2.87-.24 4.58-.53 6.68-1.42 17.86 8.58 19.05.5.06 1 .08 1.5.08 5.22 0 10.47-3.16 14.6-8.87 8.65-11.93 10.28-27.54 10.59-33.23h39.03c-3.9 12.37-22.3 62.5-69.6 86.5-9.7 4.94-21.04 10.19-32.82 10.19h-.11c-11.53-.03-17.53-6.11-18.24-11.74-.6-4.8.63-10.27 3.87-17.24 9.04-19.43 12.28-44.04 8.96-67.71h32.58zm-598 0c-13.16 8-47.2 26.38-82.57 26.38h-.61c-36.4-.22-64.67-19.02-74.35-26.38h157.53zm-165.09 0c.14.3.34.57.6.8 1.38 1.24 34.28 30.3 81.28 30.58h.66c46.59 0 89.34-29.68 91.14-30.95.18-.13.33-.27.46-.43h88.56c-26 7.28-47.64 21.13-70.2 35.59l-2.5 1.6c-26.27 16.82-56.77 26.4-90.65 28.49-29.25 1.8-71.66-.99-107.56-24.48-9.96-6.52-16.75-13.19-23.3-19.64-8.02-7.87-15.68-15.4-28.05-21.56h59.56zm-554.16 0h199.8c-8.45 18.65-25.47 29-51.94 31.56-23.18 2.25-49.23-1.96-71.83-6.08-37.8-6.9-66.86.16-76.03 2.9v-28.38zm0 33.62c6.42-2.02 36.3-10.3 75.14-3.23 15.91 2.9 37.5 6.85 58.77 6.84 29.94 0 59.26-7.8 71.33-37.23h51.4c-21.12 82.43-118.4 77.11-174.76 66.52-47.57-8.95-73.8 5.85-81.88 11.65v-44.55zm34.98 136.52a34.77 34.77 0 0 1-15.37-3.56c11.11-13.1 26.85-20.9 45.6-22.53 26.44-2.3 57.78 7.85 81.56 26.1h-111.8zm119.74 0c-25.2-21.45-60.46-33.64-89.94-31.07-20.41 1.78-37.55 10.4-49.56 24.94a34.96 34.96 0 0 1-15.22-28.78c13.58-13.14 29.66-22.59 46.58-27.32 18.22-5.1 39.15-4.79 62.2.94 26.36 6.55 51.37 19.12 81.13 40.79l29.09 20.5h-64.28zm72.87 0a2.5 2.5 0 0 0-.35-.3l-34.42-24.27c-30.27-22.04-55.82-34.86-82.83-41.57-23.9-5.94-45.7-6.25-64.76-.9-16.29 4.55-31.81 13.27-45.23 25.3V987.5c.23-.11.46-.25.66-.43.06-.06 6.44-5.77 19.44-10.16 12.03-4.05 32.35-7.76 60.86-2.4 27.1 5.1 66.82 9.54 102.1 1.77 42.68-9.4 69.16-34.02 78.74-73.2h56.93c.03 29.79-17.83 62.48-42.78 78.07-12.23 7.65-23.41 8.87-37.58 10.42l-1.42.15c-7.88.87-26.34 2.9-26.64 18.68-.2 10.37 12.63 15.81 28.89 22.7 18.3 7.76 43.08 18.28 59.7 40.12h-71.3zm77.5 0c-17.4-24.98-44.3-36.39-63.94-44.72-14.51-6.15-25.98-11.01-25.84-18 .1-5.63 2.83-11.68 22.19-13.8l1.42-.16c14.2-1.56 26.48-2.9 39.68-11.15 26.31-16.44 45.15-50.9 45.13-82.31h157.96c.03 0 .05.03.08.04 18.37 6.42 27.17 15.07 37.37 25.08 6.73 6.63 13.7 13.47 24.07 20.26 31.35 20.52 67.37 25.74 95.88 25.74 5.18 0 10.11-.17 14.72-.45 34.75-2.14 66.05-11.99 93.05-29.27l2.5-1.6c29.82-19.11 57.98-37.16 96.65-39.77l.19-.03h223.12c-11.39 15.56-31.54 25.6-61.43 30.62-27.06 4.54-55.15 3.1-82.32 1.7-10.25-.53-20.85-1.08-31.28-1.3-27.81-.58-63.8.8-95.6 16.78-12.54 6.3-23.7 13.88-34.5 21.21-20.71 14.06-40.27 27.34-69.22 32.9-42.3 8.1-82.97 6.08-128-6.36-27.01-7.47-48.66-23.5-71.59-40.48-5.11-3.78-10.4-7.7-15.71-11.48-15.74-11.2-38.52-18.91-55.7-18.91h-.75c-18.12.24-32.83 4.05-44.98 11.65-8.74 5.46-15.08 13.48-21.2 21.23-3.8 4.78-7.7 9.73-12.08 13.9-6.25 5.97-12.34 10.34-19.15 13.76-6.69 3.35-12.52 6.68-16.13 13.35-8.79 16.21 3.89 28.68 14.07 38.7 2.57 2.53 5 4.92 6.98 7.23 6.7 7.82 12.3 16.44 16.72 25.65h-42.36zm47.9 0a122.12 122.12 0 0 0-18.47-28.9 125.9 125.9 0 0 0-7.26-7.53c-9.92-9.76-20.18-19.85-13.19-32.75 2.93-5.41 7.85-8.2 13.99-11.27 7.26-3.65 13.73-8.29 20.35-14.6 4.63-4.42 8.65-9.5 12.54-14.43 6.14-7.76 11.93-15.09 19.94-20.1 11.35-7.09 25.22-10.65 42.4-10.88 16.3-.23 38.3 7.18 53.48 17.99a1017.5 1017.5 0 0 1 15.64 11.42c22.28 16.5 45.32 33.57 73.24 41.28 45.79 12.65 87.18 14.7 130.26 6.44 29.96-5.74 50.87-19.93 71.08-33.66 10.67-7.24 21.7-14.73 33.94-20.89 30.82-15.49 66.03-16.81 93.25-16.24 10.35.22 20.92.76 31.14 1.29 27.43 1.41 55.8 2.87 83.4-1.76 33.05-5.55 54.87-17.2 66.66-35.55h44.07c-4.96 23.17-21.38 41.9-21.55 42.08l-.13.16c-16.47 21.92-45.1 34.92-87.54 39.75-11.36 1.3-23.4 2.5-34.84 1.85-4.36-.24-8.8-.58-13.1-.9-7.38-.55-15.01-1.12-22.57-1.28-4.08-.09-8.2-.2-12.35-.31-42.04-1.15-85.52-2.33-120.9 21.74-13.56 9.23-28.15 15.67-40.64 20.76-43.02 17.52-91.51 26.1-144.15 25.44-65.01-.79-88.85-18.8-114.1-37.87-10.75-8.14-21.88-16.55-36.51-23.98-29.93-15.19-82.32-21.87-99.7 12.05-10.49 20.45 1.37 34.35 12.83 47.8 6.12 7.16 12.4 14.55 15.07 22.85h-46.29zm95.87 0c-2.49-6.23-4.44-10.17-8.54-15.7-2.28-3.07-5.4-6.7-8.43-10.22a233.6 233.6 0 0 1-6.34-7.56c-4.5-5.72-6.3-10.52-5.48-14.65a6.88 6.88 0 0 1 4.26-5.38c5.5-2.34 14.85.03 20.35 3.57 7.43 4.79 16.35 11.51 25.8 18.63 15.07 11.35 31.7 23.89 46.04 31.31h-67.66zm335.81 0c4.24-4.23 13.1-12.13 27.16-20.08 34.38-19.47 72.82-24.3 99.01-24.94 47.53-1.14 84.25 12.06 106.7 23.35 16.75 8.43 28.26 17.06 33.86 21.67H906.17zm274.27 0-.16-.19c-.55-.53-13.83-13.26-38.8-25.85-23-11.59-60.61-25.17-109.26-23.98-48.65 1.18-82.12 14.65-101.62 25.74-21 11.94-30.62 23.52-31.25 24.28H650.54c-15.47-5.11-36.76-21.15-55.55-35.3-9.53-7.18-18.52-13.95-26.1-18.84-6.63-4.27-17.64-7.1-25.02-3.98a11.85 11.85 0 0 0-7.2 9.02c-1.12 5.65 1 11.77 6.45 18.71 1.82 2.32 4.08 4.95 6.48 7.73 2.96 3.45 6.03 7.01 8.2 9.94a53.4 53.4 0 0 1 7.16 12.72h-38.97c-2.68-9.9-9.69-18.13-16.48-26.1-11.35-13.3-21.15-24.8-12.2-42.27 9.05-17.64 28.1-21.56 42.47-21.74 19.5-.28 38.9 5.97 50.52 11.88 14.24 7.22 25.19 15.5 35.78 23.5 25.9 19.58 50.39 38.08 117.04 38.88 53.32.64 102.46-8.04 146.1-25.81 12.72-5.18 27.61-11.76 41.56-21.25 34.05-23.17 76.7-22 117.96-20.88 4.16.11 8.29.22 12.37.3 7.43.16 15 .73 22.3 1.28 4.32.32 8.8.66 13.2.9 11.82.68 24.11-.56 35.68-1.87 43.83-5 73.57-18.6 90.92-41.63 1.4-1.6 17.99-20.9 22.84-45.33h51.02c-3.17 11.13-22.43 74.4-55.19 89.28-13.76 6.26-22.15 14.34-24.94 24.02-3.35 11.6 2.74 21.03 3 21.42l.07.11c10.13 13.73 20.72 29.3 23.61 35.31h-63.18zm68.44 0c-2.51-7.15-14.46-24.2-24.8-38.21-.4-.64-4.95-8.19-2.34-17.24 2.37-8.22 9.84-15.23 22.21-20.85 16.02-7.29 30.74-25.42 43.73-53.9a283.33 283.33 0 0 0 14.58-39.94h44.24c-2.02 34.22-8.81 75.32-41.92 93.95-2.3 1.29-4.55 2.42-6.73 3.52-10.03 5.03-18.7 9.38-21.53 24.11-3.19 16.54 8.8 29.75 19.37 41.4a243 243 0 0 1 6.33 7.16h-53.14zm113.73 0c-1.51-3.79-7.46-17.14-21.03-31.45-5.18-5.47-7.09-11.76-4.85-16.03 2.4-4.58 9.23-6.37 18.75-4.91 20.67 3.16 64.92 18.14 88.83 52.4h-81.7zm87.7 0c-24.38-37.66-72.1-53.97-94.07-57.34-11.77-1.8-20.5.95-23.94 7.54-3.3 6.3-1.13 14.64 5.65 21.79 11.15 11.75 16.97 23 19.22 28.01h-48.74a162.2 162.2 0 0 0-9.04-10.52c-10.26-11.3-20.87-23-18.16-37.1 2.37-12.3 9.29-15.78 18.86-20.58 2.23-1.13 4.54-2.29 6.94-3.64 35.3-19.86 42.4-62.75 44.48-98.3h49.62c3.3 22.62.15 47.1-8.45 65.6-3.66 7.85-5.02 14.2-4.3 19.97 1.38 11.03 12.98 16.09 23.18 16.12h.12c12.28 0 24.12-5.15 35.1-10.73 29.28-14.86 47.57-39.22 57.75-57.03 9.16-16.02 13.52-29.47 14.82-33.93h41.06c-2.8 26.22-12.65 48.54-29.34 66.34-13.76 14.69-32.16 26.37-54.67 34.73-9.87 3.67-15.75 8.98-17.5 15.8-2.42 9.45 4 18.19 6.88 21.5 6.01 6.94 18.43 25.82 22.32 31.77h-37.79zm43.53 0a2.5 2.5 0 0 0-.35-.88c-.67-1.04-16.56-25.66-23.93-34.16-1.84-2.13-7.7-9.62-5.81-16.99 1.31-5.13 6.15-9.29 14.39-12.35 36.33-13.5 80.82-42.8 87.31-105.76h37.52c-.05 76.34-45.37 99.42-69.85 111.89l-4.5 2.3c-5.16 2.72-8.51 6.51-9.94 11.29-2.52 8.39 1.95 16.64 2.14 16.97l15.15 27.7h-42.13zm47.8 0-.06-.16-16.38-29.93c-.03-.07-3.65-6.81-1.72-13.17 1.03-3.42 3.55-6.2 7.47-8.26 1.37-.72 2.85-1.47 4.43-2.28 12.26-6.24 30.79-15.67 45.98-33.7 17.63-20.92 26.56-48.73 26.59-82.64h41.11l-.78 5.78c-2.36 17.75-4.8 36.12-14.25 51.67l-1.06 1.73c-3.51 5.7-7.14 11.58-7.3 18.85-.18 8.72 5.95 15.38 16 17.4a86.45 86.45 0 0 0 16.5 1.44c9.33 0 20.28-1.22 31.01-4.58 22.3-7 37.61-21.43 44.3-41.74 12-36.43 15.3-47.52 16.15-50.55h47.72a715.73 715.73 0 0 1-19.32 45.28 821.83 821.83 0 0 0-5 10.96c-13.58 30.2-27.63 61.43-62.74 66.41-14.24 2.02-29.76-.54-44.77-3.02-25.2-4.16-51.26-8.47-73.69 7.8-14.16 10.26-18.33 26.09-11.43 42.71h-38.75zm80.42 0v-.1c-.47-4.1.29-7.74 2.1-10.02 4.09-5.15 10.94-5.76 21.56-1.92a139.5 139.5 0 0 1 10.2 4.34l2.88 1.3a93.36 93.36 0 0 0 20.98 6.4h-57.72zm176.44-34.97a35.02 35.02 0 0 1-34.98 34.98h-43.86c3.5-.7 6.9-1.55 10.12-2.64a111.8 111.8 0 0 0 19.7-8.81 120.7 120.7 0 0 0 29.3-23.61 134.56 134.56 0 0 0 19.72-27.65v27.73zm0-39.64c-4.79 12.15-12.88 24.66-23.41 36.19a115.71 115.71 0 0 1-28.09 22.63c-5.97 3.4-12.3 6.24-18.81 8.42-19.98 6.71-47.68 5.23-67.34-3.59l-2.85-1.3c-3.41-1.55-6.94-3.16-10.58-4.48-4.68-1.7-18.94-6.86-27.19 3.52-2.54 3.2-3.68 8-3.18 13.23h-31.19c-7.08-15.06-3.76-29.5 8.9-38.68 20.74-15.03 44.64-11.09 69.94-6.9 15.38 2.54 31.3 5.16 46.29 3.04 37.83-5.38 53.12-39.35 66.6-69.31 1.62-3.61 3.3-7.35 4.96-10.9a728.96 728.96 0 0 0 15.95-36.66v84.79z"/><path fill="#FFF" d="M1725.9 830.45H193.5a59.5 59.5 0 0 1-43.8-19.28 59.67 59.67 0 0 1-15.36-45.47c18.55-208.63 111.96-401.66 263.03-543.53C471.99 152.1 557.5 97.27 651.54 59.24 749.08 19.8 852.6-.22 959.2-.22c210.56 0 411.22 79.1 565.04 222.7 153.06 142.9 245.72 336.2 260.9 544.32a58.69 58.69 0 0 1-15.71 44.69 59.61 59.61 0 0 1-43.53 18.96zM959.2 4.78c-105.96 0-208.85 19.89-305.8 59.1-93.46 37.8-178.45 92.28-252.62 161.93-150.17 141.03-243.03 332.92-261.47 540.34a54.66 54.66 0 0 0 14.08 41.64 54.48 54.48 0 0 0 40.1 17.66H1725.9a53.9 53.9 0 0 0 39.87-17.37 53.74 53.74 0 0 0 14.39-40.91c-15.1-206.86-107.2-399-259.33-541.03C1367.94 83.4 1168.48 4.79 959.2 4.79z"/><g fill="#FFF"><path d="M777.3 400.63h573.99c7.15 0 12.95 5.8 12.95 12.95v64.4c0 7.15-5.8 12.95-12.95 12.95h-474.3"/><path d="M1351.29 493.42h-474.3a2.5 2.5 0 1 1 0-5h474.3c5.76 0 10.45-4.68 10.45-10.45v-64.39c0-5.76-4.69-10.45-10.45-10.45h-574a2.5 2.5 0 1 1 0-5h574c8.52 0 15.45 6.93 15.45 15.45v64.4c0 8.51-6.93 15.44-15.45 15.44z"/></g><path d="M1352.84 490.94h-81.79v-90.3h81.79c6.3 0 11.4 5.1 11.4 11.4v67.5c0 6.3-5.1 11.4-11.4 11.4z"/><path d="M1352.84 493.44h-84.29v-95.3h84.29c7.66 0 13.9 6.23 13.9 13.9v67.5c0 7.67-6.24 13.9-13.9 13.9zm-79.29-5h79.29c4.9 0 8.9-3.99 8.9-8.9v-67.5c0-4.9-4-8.9-8.9-8.9h-79.29v85.3zM799.43 327.6H574.35v-68.37h225.08l-30.49 34.03z"/><path fill="#FFF" d="M613.04 311.83a11.4 11.4 0 0 1-7.83-3 12.7 12.7 0 0 1-3.99-9.39v-22.8a2.5 2.5 0 1 1 5 0v22.8a7.7 7.7 0 0 0 2.37 5.7c1.24 1.14 2.7 1.7 4.45 1.7s3.2-.56 4.45-1.7a7.69 7.69 0 0 0 2.36-5.7v-22.8a2.5 2.5 0 1 1 5 0v22.8a12.7 12.7 0 0 1-3.98 9.39 11.4 11.4 0 0 1-7.83 3zm114.48 0a11.4 11.4 0 0 1-7.82-3 12.7 12.7 0 0 1-4-9.39v-22.8a2.5 2.5 0 1 1 5 0v22.8a7.7 7.7 0 0 0 2.37 5.7c1.25 1.14 2.7 1.7 4.45 1.7s3.21-.56 4.46-1.7a7.69 7.69 0 0 0 2.36-5.7v-22.8a2.5 2.5 0 1 1 5 0v22.8a12.7 12.7 0 0 1-3.99 9.39 11.4 11.4 0 0 1-7.83 3z"/><circle fill="#FFF" cx="641.93" cy="289.59" r="4.58"/><circle fill="#FFF" cx="698.13" cy="289.59" r="4.58"/><path fill="#FFF" d="M678.18 293.46c0 4.67-5.45 12.87-8.45 12.87-2.69 0-8.45-8.2-8.45-12.87a8.45 8.45 0 1 1 16.9 0z"/><path fill="#FFF" d="M661.4 312.7c-.9 0-1.71-.16-2.34-.4a2.5 2.5 0 0 1 1.7-4.7c.38.12 3.42.82 5.81-5.05a2.5 2.5 0 1 1 4.63 1.88c-2.66 6.54-6.8 8.27-9.8 8.27z"/><path fill="#FFF" d="M678.05 312.7c-3 0-7.13-1.73-9.8-8.27a2.5 2.5 0 0 1 4.63-1.88c2.41 5.92 5.48 5.16 5.82 5.05a2.5 2.5 0 0 1 3.2 1.48 2.54 2.54 0 0 1-1.5 3.23c-.63.23-1.44.4-2.35.4z"/><path d="M574.29 310.53h5v112.84h-5z"/><path fill="#C56FFF" d="M475.92 736.79V494.66l100.23-93.19 106.25 93.24v242.08z"/><path d="m576.2 404.84 103.7 91v238.45H478.42V495.75l97.78-90.9m-.1-6.75-102.68 95.47V739.3H684.9V493.57l-108.8-95.46z"/><path d="m684.47 493.57-108.81-95.46h202.17l108.8 95.46z"/><path fill="#C56FFF" d="M684.9 493.57v245.39h201.73V493.57H684.9zm97.78 241.3-54.2-.13V565.45a27.1 27.1 0 0 1 54.2 0v169.41zm487.88-180.6v180.6h34.86V615.7a27.1 27.1 0 0 1 54.21 0v119.16h39.71v-180.6h-128.78z"/><path d="m1466.17 493.44-69.33 60.84v192.71h134.76V554.28l-65.43-60.84zm18.3 169.9-35.02-.1v-56.18a17.5 17.5 0 0 1 35.02 0v56.27z"/><path fill="#FFF" d="m1270.55 551.78.43-55.84h188.57l-63.63 55.84z"/><path fill="#FFF" d="m1452.91 498.44-57.94 50.84h-121.9l.4-50.84h179.44m13.28-5zm0 0H1268.5l-.48 60.84h128.83l69.33-60.84z"/><path d="M1268.06 554.27h5v192.72h-5z"/><path fill="#FFF" d="M136.82 765.93c-2.96 33.31 23.22 62.02 56.67 62.02H1725.9c33.03 0 59.16-28.03 56.75-60.97a828.12 828.12 0 0 0-3.11-33.24H140.3a864.21 864.21 0 0 0-3.48 32.19z"/><circle fill="#FFF" cx="712.66" cy="123.86" r="11.29"/><circle fill="#FFF" cx="1062.86" cy="122.73" r="11.29"/><circle fill="#FFF" cx="1429.24" cy="396.2" r="11.29"/><circle fill="#FFF" cx="1265.11" cy="229.16" r="11.29"/><circle fill="#FFF" cx="1464.65" cy="269.55" r="11.29"/><circle fill="#FFF" cx="367.06" cy="469.45" r="11.29"/><path fill="#FFF" d="M1768.08 743.38c-9.09 4.18-20.89 11.36-24.43 20.6a39.42 39.42 0 0 1-3.4 6.4c-5.59 9.1-14.19 26.47-25.26 29.11-3.65.87-8.56.03-12.3.05l-39.87.16-139.59.54-78.88.3-36.44-65.81a349.45 349.45 0 0 0 56.18-12.68c14.63-4.56 28.98-10.47 43.56-14.85 16.54-4.97 31.7-10.59 48.88-13.05 19.89-2.84 40.47-3.15 60.47-1.5 56.49 4.62 86.06 35.87 162.67 42.08-3.1 2.62-7.9 6.95-11.6 8.65z"/><circle fill="#FFF" cx="419.01" cy="403.95" r="11.29"/><circle fill="#FFF" cx="1089.95" cy="343.6" r="11.29"/><circle fill="#FFF" cx="1683.11" cy="630.96" r="11.29"/><circle fill="#FFF" cx="1615.71" cy="567.1" r="11.29"/><circle fill="#FFF" cx="895.91" cy="260.81" r="11.29"/><circle fill="#FFF" cx="1012.56" cy="83.2" r="11.29"/><g fill="#FFF"><path d="M517.6 219.85h5v59.86h-5z"/><path d="M490.17 247.28h59.86v5h-59.86z"/><path d="m497.16 269.18 42.33-42.33 3.53 3.53-42.33 42.33z"/><path d="m497.16 230.39 3.54-3.54 42.32 42.33-3.53 3.53z"/></g><g fill="#FFF"><path d="M1536.58 367.54h5v59.86h-5z"/><path d="M1509.15 394.97h59.86v5h-59.86z"/><path d="m1516.14 416.87 42.32-42.33 3.54 3.54-42.33 42.33z"/><path d="m1516.14 378.08 3.53-3.54 42.33 42.33-3.54 3.54z"/></g><g fill="#FFF"><path d="M273.64 593.69h5v59.86h-5z"/><path d="M246.21 621.12h59.86v5h-59.86z"/><path d="m253.2 643.01 42.33-42.32 3.54 3.53-42.33 42.33z"/><path d="m253.2 604.22 3.54-3.54 42.33 42.33-3.54 3.53z"/></g><g fill="#FFF"><path d="M821.97 131.76h5v59.86h-5z"/><path d="M794.54 159.19h59.86v5h-59.86z"/><path d="m801.53 181.1 42.33-42.34 3.53 3.54-42.32 42.33z"/><path d="m801.53 142.3 3.54-3.54 42.32 42.33-3.53 3.53z"/></g><g fill="#FFF"><path d="M1188.46 100.14h5V160h-5z"/><path d="M1161.04 127.57h59.86v5h-59.86z"/><path d="m1168.03 149.47 42.33-42.33 3.53 3.54-42.32 42.32z"/><path d="m1168.03 110.7 3.54-3.54 42.32 42.33-3.53 3.53z"/></g><path fill="#FFF" d="M517.28 742.8c-9.5 4.37-21.86 11.88-25.57 21.56a41.2 41.2 0 0 1-3.56 6.7c-5.84 9.52-14.85 27.7-26.44 30.46-3.81.91-8.95.04-12.86.05l-41.74.17-146.1.57-82.56.32-38.15-68.9a365.87 365.87 0 0 0 58.8-13.26c15.32-4.78 30.34-10.96 45.6-15.54 17.32-5.2 33.17-11.08 51.16-13.66 20.82-2.98 42.36-3.3 63.3-1.58 59.11 4.85 90.06 37.55 170.25 44.05-3.24 2.74-8.27 7.28-12.13 9.05z"/><path d="M973.07 610.47a2.5 2.5 0 0 1-1.77-.73l-15.97-15.98a2.5 2.5 0 0 1 0-3.53l15.97-15.97a2.5 2.5 0 1 1 3.53 3.53l-14.2 14.2 14.2 14.21a2.5 2.5 0 0 1-1.76 4.27z"/><path d="M976.9 594.5h-53.1a2.5 2.5 0 1 1 0-5h53.08a2.5 2.5 0 1 1 0 5zm-153.85-35.14h-22.6a2.5 2.5 0 1 1 0-5h20.1v-20.09a2.5 2.5 0 1 1 5 0v22.59a2.5 2.5 0 0 1-2.5 2.5z"/><path d="M846.58 582.9a2.5 2.5 0 0 1-1.76-.73l-37.54-37.54a2.5 2.5 0 1 1 3.54-3.53l37.53 37.53a2.5 2.5 0 0 1-1.77 4.27z"/><circle fill="#FFF" cx="884.2" cy="685.13" r="53.24"/><circle fill="#FFF" cx="884.2" cy="592.58" r="39.97"/><circle fill="#FFF" cx="884.2" cy="523.39" r="29.8"/><circle cx="869.75" cy="522.67" r="4.35"/><circle cx="899.98" cy="522.67" r="4.35"/><circle fill="#C56FFF" cx="884.52" cy="525.85" r="5.61"/><path d="M884.52 541.75a15.6 15.6 0 0 1-12.07-5.71 2.5 2.5 0 0 1 3.87-3.18 10.59 10.59 0 0 0 16.41 0 2.5 2.5 0 0 1 3.86 3.18 15.58 15.58 0 0 1-12.07 5.7z"/><path fill="#C56FFF" d="M1333.7 160.47a91.98 91.98 0 0 1-145.52 104.6 91.98 91.98 0 1 0 145.52-104.6z"/><g fill="#C56FFF"><path d="M1328.75 457.35a19.94 19.94 0 0 1-14.15-5.86c-7.8-7.8-7.8-20.5 0-28.3 7.8-7.8 20.5-7.8 28.3 0 7.8 7.8 7.8 20.5 0 28.3a19.94 19.94 0 0 1-14.15 5.86zm0-35c-3.85 0-7.7 1.45-10.62 4.38a15.03 15.03 0 0 0 0 21.23 15.03 15.03 0 0 0 21.23 0 15.03 15.03 0 0 0-10.61-25.62z"/><path d="M1293.36 475.28a2.5 2.5 0 0 1-1.77-4.26l22.49-22.49a2.5 2.5 0 1 1 3.53 3.54l-22.48 22.48c-.49.49-1.13.73-1.77.73z"/></g><path fill="#FFF" d="M550.02 652.45v-87a27.1 27.1 0 0 1 54.22 0v87.13l-54.22-.13zm529.68-393.68-25.2-32.61-56.86 43.93-8.58-24.75-65.37 110.02 120.94-38.1-22.28-14.17z"/></svg>