<svg xmlns="http://www.w3.org/2000/svg" viewBox="0 0 1080 1080" xml:space="preserve"><path fill="#FFF" d="M102.86 1080H2a2 2 0 0 1 0-4h100.86a2 2 0 0 1 0 4zm975.14 0H977.4a2 2 0 0 1 0-4H1078a2 2 0 0 1 0 4z"/><circle fill="#FFF" cx="344.05" cy="421.56" r="8.4"/><circle fill="#FFF" cx="546.21" cy="458.76" r="8.4"/><circle fill="#FFF" cx="809.96" cy="630.08" r="8.4"/><circle fill="#FFF" cx="490.87" cy="505.63" r="8.4"/><circle fill="#FFF" cx="873.31" cy="321.54" r="8.4"/><circle fill="#FFF" cx="894.77" cy="405.75" r="8.4"/><circle fill="#FFF" cx="505.79" cy="54.19" r="8.4"/><circle fill="#FFF" cx="704.6" cy="227.13" r="8.4"/><circle fill="#FFF" cx="126.49" cy="605.97" r="9.7"/><circle fill="#FFF" cx="171.12" cy="547.39" r="9.7"/><circle fill="#FFF" cx="144.14" cy="396.71" r="8.4"/><circle fill="#FFF" cx="937.68" cy="473.01" r="8.4"/><circle fill="#FFF" cx="435.66" cy="148.24" r="8.4"/><circle fill="#FFF" cx="204.07" cy="289.42" r="8.4"/><path fill="#FFF" d="M215.69 373.8h4v44.54h-4z"/><path fill="#FFF" d="M195.42 394.07h44.54v4h-44.54z"/><path fill="#FFF" d="m200.53 410.4 31.49-31.49 2.83 2.83-31.5 31.5z"/><path fill="#FFF" d="m200.53 381.73 2.83-2.83 31.5 31.5-2.83 2.83zM937.84 608.5h4v44.54h-4z"/><path fill="#FFF" d="M917.56 628.77h44.54v4h-44.54z"/><path fill="#FFF" d="m922.66 645.1 31.5-31.49 2.82 2.83-31.5 31.5z"/><path fill="#FFF" d="m922.67 616.45 2.83-2.83 31.5 31.5-2.84 2.83zm-392.55-52h4v44.54h-4z"/><path fill="#FFF" d="M509.85 584.72h44.54v4h-44.54z"/><path fill="#FFF" d="m514.95 601.05 31.5-31.5 2.82 2.84-31.5 31.49z"/><path fill="#FFF" d="m514.95 572.4 2.83-2.83 31.49 31.5-2.83 2.82zM251 168.91h4v44.55h-4z"/><path fill="#FFF" d="M230.73 189.18h44.54v4h-44.54z"/><path fill="#FFF" d="m235.84 205.52 31.49-31.5 2.83 2.83-31.5 31.5z"/><path fill="#FFF" d="m235.84 176.85 2.82-2.83 31.5 31.5-2.83 2.82zm222.17 50.08h4v44.54h-4z"/><path fill="#FFF" d="M437.74 247.2h44.54v4h-44.54z"/><path fill="#FFF" d="m442.85 263.53 31.49-31.49 2.83 2.83-31.5 31.5z"/><path fill="#FFF" d="m442.85 234.87 2.82-2.83 31.5 31.5-2.83 2.82zm221.43 175.51h4v44.54h-4z"/><path fill="#FFF" d="M644.01 430.65h44.54v4h-44.54z"/><path fill="#FFF" d="m649.11 447 31.5-31.5 2.83 2.83-31.5 31.5z"/><path fill="#FFF" d="m649.1 418.32 2.84-2.83 31.49 31.5-2.83 2.82zM572.51 94.28h4v44.54h-4z"/><path fill="#FFF" d="M552.24 114.55h44.55v4h-44.55z"/><path fill="#FFF" d="m557.34 130.89 31.5-31.5 2.82 2.83-31.5 31.5z"/><path fill="#FFF" d="m557.35 102.23 2.82-2.83 31.5 31.5-2.83 2.82z"/><g fill="#FFF"><path d="M817.7 178.55h4v44.54h-4z"/><path d="M797.43 198.82h44.55v4h-44.55z"/><path d="m802.53 215.16 31.5-31.5 2.83 2.83-31.5 31.5z"/><path d="m802.54 186.5 2.83-2.82 31.5 31.49-2.83 2.83z"/></g><path fill="#C56FFF" d="M351 886.7V737.83a23.28 23.28 0 1 1 46.57 0v148.99L351 886.7z"/><path d="M599.43 543.75h4l.23 123.73-4 .01zm279.29-.01h4l.23 123.74h-4z"/><path d="M861.88 511.35h-241.7a20.84 20.84 0 0 0-20.84 20.84v11.84h283.38v-11.84a20.84 20.84 0 0 0-20.84-20.84zm-215.02 26.01a9.27 9.27 0 1 1 0-18.53 9.27 9.27 0 0 1 0 18.53z"/><circle fill="#FFF" cx="619.42" cy="528.1" r="9.27"/><circle fill="#C56FFF" cx="673.71" cy="528.1" r="9.27"/><path d="M472.99 667.27H824v4H472.99z"/><path d="M546.45 722.12c-31.4 0-56.96-23.19-56.96-51.7h4c0 26.3 23.76 47.7 52.96 47.7s52.96-21.4 52.96-47.7h4c0 28.51-25.55 51.7-56.96 51.7z"/><path d="M656.37 722.12c-31.4 0-56.96-23.19-56.96-51.7h4c0 26.3 23.76 47.7 52.96 47.7s52.96-21.4 52.96-47.7h4c0 28.51-25.55 51.7-56.96 51.7z"/><circle fill="#C56FFF" cx="651.77" cy="719.65" r="9.78"/><circle fill="#C56FFF" cx="688.93" cy="711.25" r="9.78"/><circle fill="#C56FFF" cx="551.96" cy="720" r="9.78"/><circle fill="#C56FFF" cx="585.81" cy="705.14" r="9.78"/><circle fill="#C56FFF" cx="617.05" cy="705.14" r="9.78"/><path d="m661.18 789.04 51.66-64.14.67 64.14z"/><path d="M661.18 837.14 712.84 773v64.14z"/><path d="m661.18 885.24 51.66-64.13-.44 64.13zM614.06 785.2a2 2 0 0 1-.72-.13l-27.81-10.73a2 2 0 0 1-1.15-2.59l10.74-27.82a2 2 0 0 1 3.73 1.45l-10.02 25.95 25.95 10.01a2 2 0 0 1-.72 3.87z"/><path d="M546.08 792.27a2 2 0 0 1-.81-3.83l64.06-28.38a2 2 0 0 1 1.62 3.66l-64.06 28.38c-.27.11-.54.17-.81.17zm-118.55-54.4c-.28 0-.55-.06-.82-.18l-27.2-12.22a2 2 0 1 1 1.64-3.65l25.38 11.4 11.4-25.37a2 2 0 1 1 3.64 1.63l-12.21 27.2a2 2 0 0 1-1.83 1.19z"/><path d="M443.14 778.93a2 2 0 0 1-1.87-1.29l-24.9-65.49a2 2 0 1 1 3.74-1.42l24.9 65.5a2 2 0 0 1-1.87 2.7zm-22.06-243.96H227.74v-58.73h193.34l-26.19 29.24z"/><path fill="#FFF" d="M260.97 521.28c-2.52 0-4.8-.88-6.62-2.54a10.76 10.76 0 0 1-3.38-7.96V491.2a2 2 0 0 1 4 0v19.58c0 1.97.76 3.8 2.08 5a5.54 5.54 0 0 0 3.92 1.5c1.55 0 2.83-.49 3.93-1.5a6.75 6.75 0 0 0 2.07-5V491.2a2 2 0 0 1 4 0v19.58c0 3.1-1.23 6-3.37 7.96a9.64 9.64 0 0 1-6.63 2.54zm98.34 0c-2.52 0-4.8-.88-6.62-2.54a10.75 10.75 0 0 1-3.38-7.96V491.2a2 2 0 0 1 4 0v19.58c0 1.97.76 3.8 2.08 5a5.54 5.54 0 0 0 3.92 1.5c1.55 0 2.83-.49 3.93-1.5a6.75 6.75 0 0 0 2.07-5V491.2a2 2 0 0 1 4 0v19.58c0 3.1-1.23 6-3.37 7.96a9.64 9.64 0 0 1-6.63 2.54z"/><circle fill="#FFF" cx="285.79" cy="502.32" r="3.93"/><circle fill="#FFF" cx="334.07" cy="502.32" r="3.93"/><path fill="#FFF" d="M316.93 505.65c0 4-4.68 11.05-7.26 11.05-2.3 0-7.26-7.05-7.26-11.05a7.26 7.26 0 0 1 14.51 0z"/><path fill="#FFF" d="M302.52 522.02c-.77 0-1.44-.13-1.96-.33a2 2 0 0 1 1.36-3.76c.34.1 3.06.76 5.17-4.43a2 2 0 1 1 3.7 1.51c-2.25 5.55-5.75 7.01-8.27 7.01z"/><path fill="#FFF" d="M316.82 522.02c-2.53 0-6.02-1.46-8.28-7a2 2 0 0 1 3.7-1.51c2.13 5.22 4.87 4.52 5.18 4.42a1.98 1.98 0 0 1 2.55 1.18 2.02 2.02 0 0 1-1.19 2.59c-.52.2-1.2.32-1.96.32z"/><path d="M227.84 520.3h4v96.92h-4z"/><path fill="#C56FFF" d="M143.05 893.46V672.5l86.23-80.18 91.42 80.21v220.93z"/><path d="m229.32 595.01 89.38 78.43v218.02H145.05V673.37l84.27-78.36m-.08-5.39-88.2 82v223.84H322.7V671.63l-93.46-82z"/><path d="m322.33 671.63-93.46-82.01h173.65l93.46 82.01z"/><path fill="#C56FFF" d="M712.84 724.77v164.35h32.06V777.54a23.28 23.28 0 1 1 46.56 0v111.58h34.11V724.77H712.83z"/><path d="m883.13 666.46-59.56 58.31v165.54h115.76V724.77l-56.2-58.3zm13.36 151.98-30.07-.07v-48.26a15.04 15.04 0 1 1 30.07 0v48.33z"/><path fill="#FFF" d="m714.79 722.77.38-54.31h162.92l-55.47 54.31z"/><path fill="#FFF" d="m873.19 670.46-51.39 50.31h-105l.36-50.3h156.03m9.8-4zm0 0h-169.8l-.41 58.3h110.66l59.55-58.3zM206.85 812.56v-74.73a23.28 23.28 0 1 1 46.56 0v74.84l-46.56-.1zm653.57-337.07L821 438.83l-63.9 68.72-16.34-30.06-60.78 155.69 147.71-74.86-31.73-13.51z"/><circle fill="#FFF" cx="492.72" cy="816.45" r="68.14"/><circle fill="#FFF" cx="492.72" cy="709.92" r="38.39"/><circle cx="476.5" cy="706.1" r="7.98"/><circle cx="509.47" cy="706.1" r="7.98"/><path d="M492.99 730.53a17.45 17.45 0 0 1-13.53-6.4 2 2 0 0 1 3.1-2.53 13.46 13.46 0 0 0 20.86 0 2 2 0 1 1 3.1 2.54 17.45 17.45 0 0 1-13.53 6.4zM977.4 1080H102.86a39.52 39.52 0 0 1-39.48-39.48v-61.39c0-1.1.9-2 2-2h949.5a2 2 0 0 1 2 2v61.4a39.52 39.52 0 0 1-39.49 39.47zM67.38 981.13v59.4a35.52 35.52 0 0 0 35.48 35.47H977.4a35.52 35.52 0 0 0 35.48-35.48v-59.39H67.38z"/><path fill="#C56FFF" d="M643.04 76.51a83.56 83.56 0 0 1-116.7 113.5 83.56 83.56 0 1 0 116.7-113.5z"/><path fill="#FFF" d="M75.44 903.12a32.14 32.14 0 0 0 32 35.02h865.04a32.1 32.1 0 0 0 32.04-34.42 469.1 469.1 0 0 0-1.76-18.77H77.4a488.6 488.6 0 0 0-1.97 18.17zM762.48 377.8H277.96a11.65 11.65 0 0 1-11.63-11.63v-47.92c0-6.41 5.22-11.63 11.63-11.63H770.4a2 2 0 0 1 0 4H277.95a7.65 7.65 0 0 0-7.63 7.63v47.92a7.65 7.65 0 0 0 7.63 7.64h484.52a2 2 0 0 1 0 4z"/><path d="M803.4 375.82h-57.95v-67.2h57.95c6.3 0 11.4 5.1 11.4 11.4v44.4c0 6.3-5.1 11.4-11.4 11.4z"/><path d="M803.4 377.82h-59.95v-71.2h59.95c7.39 0 13.4 6.01 13.4 13.4v44.4c0 7.39-6.01 13.4-13.4 13.4zm-55.95-4h55.95a9.4 9.4 0 0 0 9.4-9.4v-44.4a9.4 9.4 0 0 0-9.4-9.4h-55.95v63.2z"/><g fill="#C56FFF"><path d="M788.39 350.96a15.05 15.05 0 0 1-10.63-25.65 15.05 15.05 0 0 1 21.25 0 15.05 15.05 0 0 1-10.62 25.65zm0-26.05a11 11 0 0 0-11.03 11.02c0 2.95 1.14 5.72 3.23 7.8a10.96 10.96 0 0 0 7.8 3.23 11.04 11.04 0 0 0 0-22.06z"/><path d="M762.05 364.3a2 2 0 0 1-1.41-3.41l16.73-16.73a2 2 0 1 1 2.83 2.83l-16.73 16.73a2 2 0 0 1-1.42.59z"/></g><path d="M66.18 1023.65a2 2 0 0 1-1.36-3.47c.56-.52 14.04-12.55 43.05-7.1 28.18 5.3 76.94 7.98 86.94-33.6a2 2 0 0 1 3.89.93c-4.83 20.08-18.32 32.7-40.1 37.48-17.8 3.92-37.82 1.69-51.47-.88-14.08-2.65-24.1-.84-30.03 1.15-6.4 2.14-9.55 4.94-9.58 4.97a2 2 0 0 1-1.34.52z"/><path d="M1014.87 981.12H65.38a2 2 0 0 1-1.54-3.28l33.68-40.54a2 2 0 0 1 3.07 2.56l-30.95 37.26h940.97l-30.94-37.26a2 2 0 1 1 3.07-2.56l33.67 40.54a2 2 0 0 1-1.54 3.28z"/><path fill="#FFF" d="m1005.01 905.62-78.8.31-44.52.17s-10.56-14.36-10.96-14.7c1.73 1.5-4.2-6.44-1.88-6.4 15.75.18 22.24-3.89 36.51-9.8 10.26-4.24 24.97-13.86 35.46-17.56a86.34 86.34 0 0 1 40.5-4c6.46.9 18.01 3.84 23.8 6.88 0 0 .38 2.6.33 7.48l-.18 15.14-.26 22.48zm-714.8-15.55c-5.36 2.46-12.34 6.7-14.43 12.17a23.22 23.22 0 0 1-2.01 3.78c-3.3 5.38-8.38 15.64-14.93 17.2-2.15.51-5.05.02-7.26.03l-23.56.09-82.47.32-46.6.18-21.54-38.89a206.46 206.46 0 0 0 33.2-7.48c29.6-9.24 47.39-22.01 79.27-19.4 33.37 2.74 61.92 23.22 107.18 26.88-1.83 1.55-4.67 4.12-6.85 5.12z"/><path fill="#FFF" d="M972.48 940.14H107.43a34.17 34.17 0 0 1-25.15-11.08 34.28 34.28 0 0 1-8.84-26.02V433.2l.01-.09c10.48-117.92 63.28-227.02 148.66-307.2A462.26 462.26 0 0 1 539.68.2c119 0 232.43 44.7 319.37 125.88 86.5 80.76 138.88 190.02 147.46 307.65v469.92a33.7 33.7 0 0 1-9.03 25.6 34.25 34.25 0 0 1-25 10.89zM77.44 433.38v469.93a30.27 30.27 0 0 0 7.79 23.05 29.77 29.77 0 0 0 22.2 9.78h865.05c8.47 0 16.3-3.42 22.07-9.62a29.75 29.75 0 0 0 7.97-22.65V433.96c-8.53-116.6-60.45-224.89-146.2-304.95A462.45 462.45 0 0 0 539.68 4.2c-117.45 0-229.26 44.26-314.83 124.62-84.64 79.49-137 187.64-147.4 304.55z"/><path d="M198.43 1079.68c-.3 0-.6-.07-.88-.2l-19.45-9.57c-16.77-8.52-30.87-13.47-45.72-16.05-13.02-2.25-24.83-2.38-35.11-.37-9.85 1.92-14.58 3.85-22.02 8.96a2 2 0 1 1-2.27-3.3c7.89-5.41 13.16-7.56 23.52-9.59 10.77-2.1 23.06-1.98 36.56.36 15.27 2.65 29.71 7.7 46.83 16.4l19.43 9.56a2 2 0 0 1-.9 3.8zm39.5-.18a2 2 0 0 1-1.64-.87c-8.37-12.08-21.75-18.57-33.63-23.7-.98-.42-2-.81-3.04-1.21-4.92-1.9-10.5-4.05-12.93-10.07-2.44-6.06.04-12.44 6.05-15.5 7.85-4 16.09-3.87 24.06-3.74 3.96.07 8.06.14 11.99-.33 9.97-1.17 23.44-5.3 29.42-11.58 8.8-9.23 11.55-22.68 12.96-33.37a2 2 0 1 1 3.97.52c-1.5 11.3-4.44 25.54-14.03 35.61-7.67 8.05-23.63 11.83-31.85 12.8-4.2.49-8.43.42-12.52.35-7.82-.13-15.22-.25-22.18 3.3-4.22 2.15-5.85 6.25-4.16 10.44 1.78 4.41 6.1 6.07 10.67 7.84 1.05.4 2.13.82 3.18 1.28 12.39 5.34 26.36 12.13 35.33 25.09a2 2 0 0 1-1.65 3.13zm50.72-.62a2 2 0 0 1-1.52-.7c-1.1-1.3-2.4-2.59-3.75-3.96-4.35-4.38-9.28-9.34-9.76-16.1-.73-10.15 6.8-14.72 13.43-18.76 2.1-1.28 4.1-2.49 5.8-3.83 2.53-2.01 4.7-4.23 6.81-6.38 5.04-5.14 9.8-9.99 18.58-11.57 11.49-2.08 25 1.06 34.42 8 17.29 12.76 35.89 21.45 55.3 25.85a136.48 136.48 0 0 0 30.13 3.36h.5c13.15-.05 27.39-1 42.46-7.53 8.19-3.56 15.75-8.66 23.06-13.6 6.2-4.19 12.62-8.53 19.49-11.98 18.07-9.08 38.48-9.87 54.25-9.53 5.73.12 9.84.31 13.81.5 5.66.27 10.55.5 18.67.45 31.7-.22 64.72-4.29 69.38-32.8a2 2 0 0 1 3.95.64c-5.83 35.7-53.11 36.02-73.3 36.16-8.24.04-13.41-.2-18.89-.45a470.7 470.7 0 0 0-13.7-.5c-15.31-.33-35.1.42-52.37 9.1-6.64 3.34-12.95 7.6-19.05 11.73-7.47 5.04-15.18 10.25-23.71 13.95-15.73 6.82-30.46 7.8-44.03 7.86a140.48 140.48 0 0 1-31.54-3.46c-19.95-4.52-39.05-13.45-56.79-26.52-8.57-6.32-20.87-9.19-31.33-7.3-7.52 1.36-11.65 5.57-16.43 10.44a77.02 77.02 0 0 1-7.2 6.71c-1.88 1.5-4.07 2.83-6.19 4.12-6.2 3.77-12.07 7.34-11.52 15.05.38 5.29 4.56 9.5 8.6 13.57a79.98 79.98 0 0 1 3.96 4.17 2 2 0 0 1-1.52 3.3z"/><path d="M436.06 1016.72c-10.75 0-25.84-1.82-38.58-10.15-3.9-2.55-6.99-5.47-9.98-8.3-6.85-6.45-13.92-13.13-31.9-17.21a2 2 0 1 1 .88-3.9c19.05 4.32 26.86 11.7 33.76 18.2 3 2.83 5.84 5.5 9.44 7.86 14.86 9.73 33.37 9.97 43.1 9.25 17.56-1.3 33.82-6.46 47.02-14.9l1.2-.78c14.71-9.42 28.6-18.32 48.03-19.63a1.97 1.97 0 0 1 2.13 1.86 2 2 0 0 1-1.86 2.13c-18.4 1.24-31.88 9.87-46.14 19.01l-1.2.77c-13.76 8.81-30.66 14.18-48.9 15.53a94.6 94.6 0 0 1-7 .26zm70.92 62.78a2 2 0 0 1-1.52-3.31c.9-1.04 22.59-25.46 75.36-28.43 84.73-4.76 111.8 26.52 112.9 27.86a2 2 0 1 1-3.07 2.56c-.26-.31-27.14-31.07-109.6-26.42-50.95 2.86-72.35 26.8-72.56 27.04a2 2 0 0 1-1.51.7zm225.02.24a2 2 0 0 1-.95-.24c-5.57-3-7.87-4.25-10.98-7.25a27.12 27.12 0 0 1-6.98-11.13c-2.54-7.86-1.24-17.1 3.57-25.34 3.51-6.03 8.47-10.6 13.27-15.03 1.92-1.77 3.9-3.6 5.77-5.5 4.68-4.78 9.52-9.71 12.55-15.66 3.23-6.32 3.73-13.13 1.34-18.24a2 2 0 0 1 3.63-1.7c2.9 6.22 2.38 14.35-1.4 21.76-3.32 6.49-8.37 11.65-13.27 16.64a154.83 154.83 0 0 1-5.91 5.64c-4.79 4.42-9.31 8.6-12.53 14.1-4.23 7.27-5.4 15.33-3.22 22.1a23.12 23.12 0 0 0 5.96 9.49c2.71 2.61 4.72 3.7 10.1 6.6a2 2 0 0 1-.95 3.76zm75.62-34.37c-6.92 0-13.66-1.5-19.19-4.91-7.6-4.7-10.64-12.44-7.74-19.72.58-1.46 1.18-2.86 1.76-4.25 2.03-4.8 3.94-9.33 4.77-14.76 1.08-7.06 1.1-14.2.04-21.22a2 2 0 1 1 3.96-.6 75.1 75.1 0 0 1-.04 22.43c-.9 5.92-2.92 10.67-5.04 15.71a188.4 188.4 0 0 0-1.73 4.17c-2.61 6.54 1.45 11.95 6.12 14.84 11.15 6.88 34.02 5.64 46.8-6.28 5.06-4.7 7.06-9 9.92-15.6 2.77-6.4 7.73-11.26 13.61-13.32 5.68-1.98 11.68-2.12 17.47-2.25 1.8-.03 3.65-.08 5.44-.17 11.15-.6 20.97-1.63 28.2-8.13 3.3-2.98 4.87-7.18 3.96-10.7a2 2 0 0 1 3.87-1c1.28 4.95-.75 10.71-5.16 14.68-8.86 7.96-21.46 8.64-30.65 9.14-1.86.1-3.74.14-5.57.18-5.74.13-11.16.25-16.23 2.03-4.84 1.69-8.94 5.74-11.27 11.12-2.65 6.14-4.94 11.43-10.85 16.95-7.52 7-20.25 11.66-32.45 11.66zm56.97 33.97a2 2 0 0 1-1.81-1.14c-3.87-8.1-.2-19.05 5.43-25.66 10-11.77 29.06-9.16 44.54-5.56 4.11.95 8.2 2.14 12.16 3.3 1.88.54 3.76 1.1 5.64 1.62 10.48 2.9 22.84 5.44 35.05 2.18 17.6-4.71 24.18-19.64 26.6-31.33 2.48-12.02-5.63-34.12-24-41.4a2 2 0 1 1 1.47-3.72c20.58 8.15 29.28 32.25 26.44 45.93-3.74 18.09-14.2 30.3-29.47 34.38-13.15 3.52-26.17.87-37.16-2.19-1.9-.53-3.8-1.08-5.69-1.63-3.9-1.14-7.94-2.32-11.94-3.25-14.38-3.33-31.99-5.87-40.6 4.26-4.67 5.5-7.96 14.84-4.86 21.34a2 2 0 0 1-1.8 2.87z"/></svg>