<svg xmlns="http://www.w3.org/2000/svg" viewBox="0 0 1920 1080" xml:space="preserve"><path fill="#FFF" d="M1914.86 978.65H899.73a2.5 2.5 0 1 1 0-5h1015.13a2.5 2.5 0 1 1 0 5zm-1384.56 0H5.26a2.5 2.5 0 1 1 0-5h525.02a2.5 2.5 0 1 1 0 5z"/><path d="M1341.43 467.52a76.2 76.2 0 0 0-30.55-12.87l-329.43-60.1v-46.46l21.05 13.72a23.17 23.17 0 0 0 24.54.65c3.29-1.98 5.37-4.27 4.2-6.35l-49.79-88.07v-26.7a70.8 70.8 0 0 0-70.8-70.8V70.14a62.74 62.74 0 0 0-60.2 45.06l.06-25.2c0-2.32-2.75-3.3-6.4-3.46-8.99-.4-17.33 4.71-21.48 12.7l-69.89 204.35c-77.32 63.87-69.2 164.14-69.2 164.14h16.84v228.28h41.34v233.44h-5.97a49.1 49.1 0 0 0-49.1 49.1h95.81l5.6-26.63h.12l54.96-255.91h4.78v-.05l38.83.12v233.37h-5.97a49.1 49.1 0 0 0-49.1 49.1h95.8l5.6-26.63h.12l54.9-255.52 131.2.4c21.96 11.77 42.66 19.34 61.35 24.09v208.57h-5.98a49.1 49.1 0 0 0-49.1 49.1l-188.85 33.17-9.22-33.15-79.57-.02-20.45 90.35 42.54 2.18 501.06-92.53 5.76-27.38h.12l61.42-290.63c-36.27-7.48-64.66-41.24-64.66-79.72 0-1.57-.06-3.78-.13-6.32v-24.75l186.91 164.41c48.38 29.04 111.14 13.37 140.18-35l-359.24-211.64zm-71.44 511.03h-48.61l5.6-26.63h.12l52-242.12a254.5 254.5 0 0 0 50.08 14.66v203.6h-6.14a50.49 50.49 0 0 0-50.49 50.49h-2.56z"/><circle fill="#FFF" cx="909.14" cy="237.78" r="15.96"/><path fill="#FFF" d="m931.77 1026.54 1.19-2.4c.38-.81.72-1.64 1.08-2.45l.54-1.23.26-.61.24-.62c.63-1.67 1.29-3.3 1.8-5a83.25 83.25 0 0 0 2.89-40.82 77.31 77.31 0 0 0-5.97-18.88 75.5 75.5 0 0 0-10.25-16.24 2.51 2.51 0 0 0-4.27 2.5l.02.04a78.58 78.58 0 0 1 4.47 16.8c.05.35.12.7.16 1.05l.12 1.06.23 2.1c.06.7.09 1.41.13 2.1.03.7.1 1.4.1 2.1 0 1.4.06 2.78-.02 4.17l-.07 2.06-.17 2.06-.09 1.02c-.03.34-.09.68-.13 1.02l-.27 2.02c-.08.67-.23 1.34-.34 2-.13.67-.22 1.34-.37 2l-.45 1.96c-.08.32-.14.65-.23.97l-.28.97-.53 1.92-.64 1.9c-.39 1.25-.9 2.48-1.35 3.7-.22.62-.52 1.2-.77 1.8-.27.6-.5 1.2-.8 1.79l-.87 1.74-.43.87-.48.84-.94 1.69-1.02 1.63c-.64 1.1-1.4 2.13-2.1 3.17l-.27.4-.29.37-.57.76c-.39.5-.75 1-1.15 1.49l-1.21 1.43-.6.72-.64.68-1.27 1.36c-.43.45-.89.87-1.32 1.3a65.73 65.73 0 0 1-5.52 4.8l-1.47 1.07c-.49.35-.95.73-1.47 1.05-1.01.65-1.97 1.34-3.03 1.92l-1.52.92-1.58.83-.78.42-.4.2-.4.2-1.6.75c-.27.12-.53.26-.8.37l-.75.3c-.51.2-1 .43-1.52.6l-1.53.52c-.5.18-1.03.3-1.53.46l-.76.23-.78.19c-.51.11-1.02.26-1.54.36l-1.54.29c-.51.1-1.04.14-1.55.22-2.07.26-4.13.4-6.18.33a29.7 29.7 0 0 1-6.04-.73c-.5-.09-.98-.25-1.46-.38a17.1 17.1 0 0 1-1.44-.43c-.48-.17-.95-.3-1.42-.5l-1.38-.56a37.7 37.7 0 0 1-3.39-1.73l-21.54 41.62c1.4.42 2.8.79 4.2 1.15 4.1.97 8.22 1.6 12.33 2 8.24.7 16.42.33 24.35-1.05a76.71 76.71 0 0 0 11.63-2.95c.94-.33 1.9-.62 2.82-1l2.76-1.1c.92-.38 1.81-.8 2.71-1.21.45-.21.9-.41 1.34-.63l1.32-.68c.87-.46 1.75-.89 2.6-1.4l2.52-1.5c.84-.5 1.64-1.06 2.45-1.6l1.21-.8c.4-.28.76-.56 1.13-.83a72.84 72.84 0 0 0 4.39-3.43l2.12-1.78 2.04-1.88c1.36-1.24 2.62-2.6 3.9-3.91.65-.65 1.24-1.36 1.85-2.04l1.8-2.08a90.02 90.02 0 0 0 6.38-8.86c.47-.77.96-1.52 1.42-2.3l1.32-2.36.65-1.18.6-1.2z"/><path fill="#2E9AFF" d="m798.2 1020.74 57.65-56.98-122.18-203.08-147.8 66.57-28.81-.4-2.85 16.59-14.14 82.07 73.52 95.23z"/><path d="M799.23 1023.24H612.36l-74.94-97.08 17.54-101.84 30.38.42 149.33-67.25L859 964.16l-59.77 59.08zm-184.41-5h182.36l55.51-54.88-120.02-199.49-146.28 65.88-27.23-.37-16.44 95.47 72.1 93.4z"/><path fill="#2E9AFF" d="M836.85 932.18c17.62 29.3 34.34 52 34.34 79.66 0 39.39-31.01 62.1-70.25 62.75l-159.43 1.22 6.3-51.94 79.94-24.72a72.08 72.08 0 0 1 39.47-60.92"/><path d="M641.5 1078.3a2.5 2.5 0 0 1-2.47-2.8l6.3-51.93c.11-.98.8-1.8 1.74-2.1l78.28-24.2A74.7 74.7 0 0 1 766.1 936a2.5 2.5 0 1 1 2.26 4.46 69.7 69.7 0 0 0-38.1 58.8 2.5 2.5 0 0 1-1.76 2.28l-78.4 24.24-5.76 47.5 156.6-1.19c19.05-.32 36.2-6.1 48.24-16.26 12.77-10.78 19.53-26 19.53-44 0-23.13-12.42-43.26-26.8-66.58-2.34-3.8-4.76-7.73-7.2-11.78a2.5 2.5 0 1 1 4.29-2.58c2.42 4.03 4.84 7.95 7.18 11.74 14.77 23.96 27.53 44.66 27.53 69.2 0 38.31-29.22 64.54-72.71 65.26l-159.46 1.22h-.02z"/><path fill="#2E9AFF" d="M628.42 640.18c-58.12 0-105.25 47.12-105.25 105.25v72.07a43.86 43.86 0 0 0 43.86 43.85h122.78a43.86 43.86 0 0 0 43.86-43.85v-72.07c0-58.13-47.12-105.25-105.25-105.25z"/><path d="M689.81 863.85H567.03a46.41 46.41 0 0 1-46.36-46.35v-72.07c0-59.41 48.34-107.75 107.75-107.75s107.75 48.34 107.75 107.75v72.07a46.41 46.41 0 0 1-46.36 46.35zm-61.39-221.17c-56.65 0-102.75 46.1-102.75 102.75v72.07a41.4 41.4 0 0 0 41.36 41.35h122.78a41.4 41.4 0 0 0 41.36-41.36v-72.06c0-56.66-46.1-102.75-102.75-102.75z"/><path fill="#FFF" d="M629.92 869.95a11.6 11.6 0 0 0 11.59-11.59v-18.02a4.83 4.83 0 0 0-4.83-4.83l-6.76-8.64-6.76 8.64a4.83 4.83 0 0 0-4.83 4.83v18.02c0 6.4 5.19 11.6 11.59 11.6z"/><circle fill="#FFF" cx="574.57" cy="797.33" r="31.97"/><path fill="#FFF" d="M733.67 769.39a48.81 48.81 0 0 0 48.82-48.81v-60.06a20.34 20.34 0 0 0-20.34-20.34H705.2a20.34 20.34 0 0 0-20.34 20.34v60.06a48.8 48.8 0 0 0 48.81 48.8z"/><circle cx="576.2" cy="798.95" r="8.85"/><circle cx="686.75" cy="798.95" r="8.85"/><path d="M646.25 804.27c0 9.02-10.53 24.88-16.33 24.88-5.2 0-16.33-15.86-16.33-24.88a16.33 16.33 0 1 1 32.66 0z"/><path d="M614.88 841.25c-2.1 0-3.5-.5-3.73-.58a2.5 2.5 0 0 1 1.73-4.69c.4.14 8.5 2.7 14.13-11.1a2.5 2.5 0 1 1 4.63 1.88c-3.83 9.42-9.05 12.75-12.75 13.89-1.49.45-2.85.6-4 .6z"/><path d="M645.01 841.2c-4.4 0-11.78-2.07-16.82-14.44a2.5 2.5 0 0 1 4.63-1.89c5.73 14.07 14.03 11.15 14.1 11.12a2.5 2.5 0 0 1 1.76 4.68c-.04.02-1.48.53-3.67.53z"/><path fill="#FFF" d="M523.17 769.39A48.81 48.81 0 0 0 572 720.58v-60.06a20.34 20.34 0 0 0-20.34-20.34H494.7a20.34 20.34 0 0 0-20.34 20.34v60.06a48.8 48.8 0 0 0 48.81 48.8z"/><circle fill="#2E9AFF" cx="641.51" cy="1044.32" r="31.59"/><path d="M641.5 1078.4c-18.8 0-34.09-15.29-34.09-34.09s15.3-34.09 34.1-34.09 34.1 15.3 34.1 34.1-15.3 34.09-34.1 34.09zm0-63.18c-16.03 0-29.09 13.05-29.09 29.1s13.06 29.09 29.1 29.09 29.1-13.05 29.1-29.1-13.06-29.09-29.1-29.09z"/><path fill="#2E9AFF" d="m698.68 910.66-26 138.8-61.88-12.6 21.77-125.78"/><path d="M672.68 1051.96c-.16 0-.33-.02-.5-.05l-61.88-12.6a2.5 2.5 0 0 1-1.97-2.88l21.77-125.78a2.5 2.5 0 0 1 4.93.85l-21.35 123.4 57.01 11.6 25.53-136.3a2.5 2.5 0 1 1 4.92.92l-26 138.8a2.5 2.5 0 0 1-2.46 2.04z"/><circle fill="#2E9AFF" cx="551.5" cy="1044.32" r="31.59"/><path d="M551.5 1078.4c-18.8 0-34.1-15.29-34.1-34.09s15.3-34.09 34.1-34.09 34.1 15.3 34.1 34.1-15.3 34.09-34.1 34.09zm0-63.18c-16.05 0-29.1 13.05-29.1 29.1s13.05 29.09 29.1 29.09 29.1-13.05 29.1-29.1-13.06-29.09-29.1-29.09z"/><path fill="#2E9AFF" d="m608.67 910.66-26 138.8-61.88-12.6 23.2-134.08"/><path d="M582.67 1051.96c-.16 0-.33-.02-.5-.05l-61.88-12.6a2.5 2.5 0 0 1-1.97-2.88l23.2-134.08a2.5 2.5 0 0 1 4.93.86l-22.79 131.69 57.02 11.6 25.53-136.3a2.5 2.5 0 1 1 4.91.92l-25.99 138.8a2.5 2.5 0 0 1-2.46 2.04z"/><g fill="#000"><path d="M448.68 598.16H322.5a2.5 2.5 0 0 1-2.5-2.5v-71.3a2.5 2.5 0 0 1 2.5-2.5h126.2a2.5 2.5 0 0 1 2.5 2.5v71.3a2.5 2.5 0 0 1-2.5 2.5zm-123.69-5h121.2v-66.3h-121.2v66.3z"/><path d="M385.59 526.82h-126.2a2.5 2.5 0 0 1-2.5-2.5v-71.3a2.5 2.5 0 0 1 2.5-2.5h126.2a2.5 2.5 0 0 1 2.5 2.5v71.3a2.5 2.5 0 0 1-2.5 2.5zm-123.7-5h121.2v-66.3h-121.2v66.3z"/></g><g fill="#FFF"><path d="M365.14 150.3h-126.2a2.5 2.5 0 0 1-2.5-2.5V76.5a2.5 2.5 0 0 1 2.5-2.5h126.2a2.5 2.5 0 0 1 2.5 2.5v71.3a2.5 2.5 0 0 1-2.5 2.5zm-123.7-5h121.2V79h-121.2v66.3z"/><path d="M302.05 79h-126.2a2.5 2.5 0 0 1-2.5-2.5V5.22a2.5 2.5 0 0 1 2.5-2.5h126.2a2.5 2.5 0 0 1 2.5 2.5v71.3a2.5 2.5 0 0 1-2.5 2.5zm-123.7-5h121.2V7.72h-121.2v66.3z"/><path d="M238.95 150.3h-126.2a2.5 2.5 0 0 1-2.5-2.5V76.5a2.5 2.5 0 0 1 2.5-2.5h126.2a2.5 2.5 0 0 1 2.5 2.5v71.3a2.5 2.5 0 0 1-2.5 2.5zm-123.7-5h121.2V79h-121.2v66.3z"/><path d="M302.05 221.65h-126.2a2.5 2.5 0 0 1-2.5-2.5v-71.3a2.5 2.5 0 0 1 2.5-2.5h126.2a2.5 2.5 0 0 1 2.5 2.5v71.3a2.5 2.5 0 0 1-2.5 2.5zm-123.7-5h121.2v-66.3h-121.2v66.3z"/></g><g fill="#000"><path d="M1782.74 286.63h-126.2a2.5 2.5 0 0 1-2.5-2.5v-71.3a2.5 2.5 0 0 1 2.5-2.5h126.2a2.5 2.5 0 0 1 2.5 2.5v71.3a2.5 2.5 0 0 1-2.5 2.5zm-123.7-5h121.2v-66.3h-121.2v66.3zm123.7 147.64h-126.2a2.5 2.5 0 0 1-2.5-2.5v-71.3a2.5 2.5 0 0 1 2.5-2.5h126.2a2.5 2.5 0 0 1 2.5 2.5v71.3a2.5 2.5 0 0 1-2.5 2.5zm-123.7-5h121.2v-66.3h-121.2v66.3z"/><path d="M1656.55 429.27h-126.2a2.5 2.5 0 0 1-2.5-2.5v-71.3a2.5 2.5 0 0 1 2.5-2.5h126.2a2.5 2.5 0 0 1 2.5 2.5v71.3a2.5 2.5 0 0 1-2.5 2.5zm-123.7-5h121.2v-66.3h-121.2v66.3zm376.08 5h-126.2a2.5 2.5 0 0 1-2.5-2.5v-71.3a2.5 2.5 0 0 1 2.5-2.5h126.2a2.5 2.5 0 0 1 2.5 2.5v71.3a2.5 2.5 0 0 1-2.5 2.5zm-123.7-5h121.2v-66.3h-121.2v66.3zm-65.59-208.94h-126.2a2.5 2.5 0 0 1-2.5-2.5v-71.3a2.5 2.5 0 0 1 2.5-2.5h126.2a2.5 2.5 0 0 1 2.5 2.5v71.3a2.5 2.5 0 0 1-2.5 2.5zm-123.7-5h121.2v-66.3h-121.2v66.3z"/><path d="M1845.84 215.33h-126.2a2.5 2.5 0 0 1-2.5-2.5v-71.3a2.5 2.5 0 0 1 2.5-2.5h126.2a2.5 2.5 0 0 1 2.5 2.5v71.3a2.5 2.5 0 0 1-2.5 2.5zm-123.7-5h121.2v-66.3h-121.2v66.3zm-65.59 76.3h-126.2a2.5 2.5 0 0 1-2.5-2.5v-71.3a2.5 2.5 0 0 1 2.5-2.5h126.2a2.5 2.5 0 0 1 2.5 2.5v71.3a2.5 2.5 0 0 1-2.5 2.5zm-123.7-5h121.2v-66.3h-121.2v66.3z"/><path d="M1719.64 357.97h-126.2a2.5 2.5 0 0 1-2.5-2.5v-71.3a2.5 2.5 0 0 1 2.5-2.5h126.2a2.5 2.5 0 0 1 2.5 2.5v71.3a2.5 2.5 0 0 1-2.5 2.5zm-123.7-5h121.2v-66.3h-121.2v66.3z"/><path d="M1845.84 357.97h-126.2a2.5 2.5 0 0 1-2.5-2.5v-71.3a2.5 2.5 0 0 1 2.5-2.5h126.2a2.5 2.5 0 0 1 2.5 2.5v71.3a2.5 2.5 0 0 1-2.5 2.5zm-123.7-5h121.2v-66.3h-121.2v66.3z"/></g><path fill="#FFF" d="M273.94 846.7h-126.2a2.5 2.5 0 0 1-2.5-2.5v-71.3a2.5 2.5 0 0 1 2.5-2.5h126.2a2.5 2.5 0 0 1 2.5 2.5v71.3a2.5 2.5 0 0 1-2.5 2.5zm-123.7-5h121.2v-66.3h-121.2v66.3zm1146.32-626.35h-126.19a2.5 2.5 0 0 1-2.5-2.5v-71.3a2.5 2.5 0 0 1 2.5-2.5h126.2a2.5 2.5 0 0 1 2.5 2.5v71.3a2.5 2.5 0 0 1-2.5 2.5zm-123.69-5h121.2v-66.3h-121.2v66.3z"/><path fill="#FFF" d="M1359.66 144.01h-126.2a2.5 2.5 0 0 1-2.5-2.5v-71.3a2.5 2.5 0 0 1 2.5-2.5h126.2a2.5 2.5 0 0 1 2.5 2.5v71.3a2.5 2.5 0 0 1-2.5 2.5zm-123.7-5h121.2v-66.3h-121.2v66.3zm620.64 747.55h-126.2a2.5 2.5 0 0 1-2.5-2.5v-71.3a2.5 2.5 0 0 1 2.5-2.5h126.2a2.5 2.5 0 0 1 2.5 2.5v71.3a2.5 2.5 0 0 1-2.5 2.5zm-123.7-5h121.2v-66.3h-121.2v66.3z"/></svg>
