<svg xmlns="http://www.w3.org/2000/svg" viewBox="0 0 1080 1080" xml:space="preserve"><path fill="#FFF" d="M1073.97 997.24H2.12a2 2 0 0 1 0-4h1071.85a2 2 0 0 1 0 4z"/><path d="m354.08 997.16 91.65 26.99-72.28-26.98 54.91-.01v63.07l40.17 12.25 341.4-74.76z"/><path d="M781.78 513.08a72.38 72.38 0 0 0-29-12.23l-312.86-57.08v-44.12l19.9 12.98c7.17 4.67 16.45 5 23.7.48 2.94-1.84 4.76-3.93 3.68-5.84l-47.28-83.64v-25.35a67.24 67.24 0 0 0-67.25-67.25v-95.35a59.59 59.59 0 0 0-57.16 42.8l.05-23.94c0-2.2-2.6-3.13-6.07-3.28-8.54-.38-16.46 4.48-20.4 12.06L222.7 357.39C149.28 418.05 157 513.27 157 513.27h15.99v231.69l39.26-14.9v221.7h-5.68a46.63 46.63 0 0 0-46.63 46.64h91l5.32-25.3h.1l52.2-243.03h4.54v-.05l16.87.12v221.62h-5.68c-25.75 0-26.62 20.88-26.62 46.64h-20 111l5.32-25.3h.11l52.12-242.67 124.6.38a257.87 257.87 0 0 0 58.26 22.88v198.07h-5.67a46.63 46.63 0 0 0-46.64 46.64h91l5.32-25.3h.11l49.38-229.93a241.65 241.65 0 0 0 47.57 13.92v192.68h-5.83a47.95 47.95 0 0 0-47.95 47.95h93.56l5.48-26h.1l58.34-275.34c-34.45-7.1-61.41-39.16-61.41-75.7 0-1.5-.06-3.6-.12-6v-23.5l126.25 165.7c39.4 49.7 111.82 20.94 139.4-25l-296.19-218.8z"/><path fill="#FFF" d="m526.5 1027.88 1.16-2.36c.38-.8.72-1.6 1.07-2.4l.53-1.21.26-.6.23-.61c.62-1.64 1.27-3.25 1.78-4.92a81.83 81.83 0 0 0 2.82-40.11 76 76 0 0 0-5.86-18.57 74.22 74.22 0 0 0-10.08-15.96 2.47 2.47 0 0 0-4.19 2.46l.01.04a77.15 77.15 0 0 1 4.4 16.51l.16 1.04.11 1.04.23 2.06c.06.7.09 1.39.13 2.07.03.7.1 1.37.1 2.06 0 1.38.06 2.73-.02 4.1l-.07 2.03-.17 2.02-.09 1c-.02.33-.08.67-.12 1l-.27 1.99c-.08.66-.23 1.32-.33 1.97-.13.65-.21 1.3-.37 1.95l-.44 1.93c-.08.32-.14.65-.23.96l-.26.95-.53 1.9-.63 1.85c-.38 1.24-.89 2.44-1.33 3.65-.21.6-.5 1.18-.76 1.77-.26.59-.5 1.18-.78 1.75l-.85 1.72-.43.85-.47.83-.92 1.65-1 1.6c-.63 1.09-1.38 2.1-2.07 3.13l-.26.38-.29.37-.56.74c-.38.5-.74 1-1.13 1.47l-1.2 1.41-.58.7-.63.67-1.24 1.34c-.42.44-.88.85-1.3 1.28a64.36 64.36 0 0 1-5.43 4.72l-1.44 1.05c-.48.34-.94.71-1.44 1.02-1 .64-1.95 1.33-2.98 1.9l-1.5.9-1.55.82-.77.4-.38.21-.4.18-1.58.74c-.26.13-.52.26-.78.37l-.75.3c-.5.19-.98.42-1.48.59l-1.5.51c-.5.18-1.02.3-1.51.45l-.75.23-.77.18c-.5.12-1 .26-1.5.36l-1.53.28c-.5.1-1.02.14-1.52.22-2.03.26-4.06.4-6.07.32-2-.06-4-.25-5.94-.72-.48-.08-.96-.24-1.44-.37s-.95-.25-1.41-.42c-.47-.17-.94-.3-1.4-.49l-1.35-.55a37.06 37.06 0 0 1-3.33-1.7l-21.17 40.9c1.37.42 2.75.78 4.13 1.14 4.02.94 8.07 1.58 12.11 1.96 8.1.7 16.14.32 23.93-1.03 3.9-.65 7.72-1.66 11.44-2.9.92-.32 1.86-.61 2.76-.98l2.72-1.08c.9-.37 1.78-.8 2.66-1.2.44-.2.89-.4 1.32-.61l1.3-.67c.85-.45 1.72-.87 2.55-1.37l2.48-1.48c.82-.49 1.61-1.04 2.41-1.57l1.2-.8 1.1-.8a75 75 0 0 0 4.31-3.37c.7-.59 1.4-1.17 2.08-1.76l2-1.85c1.35-1.21 2.59-2.55 3.84-3.84.64-.64 1.22-1.33 1.82-2 .6-.69 1.19-1.36 1.77-2.05a88.42 88.42 0 0 0 6.27-8.7c.47-.76.95-1.5 1.4-2.27l1.3-2.32.64-1.16.6-1.18z"/><path fill="#2E9AFF" d="m395.22 1022.18 56.65-56-120.08-199.61L186.51 832l-28.31-.39-2.81 16.3-13.89 80.67 72.26 93.6z"/><path d="M396.04 1024.18H212.78l-73.4-95.08 17.14-99.51 29.57.4 146.5-65.97.91 1.52 120.9 200.95-58.36 57.7zm-181.3-4H394.4l54.96-54.32L331 769.12 186.93 834l-27.05-.36-16.26 94.41 71.12 92.13z"/><path fill="#2E9AFF" d="M433.2 935.14c17.32 28.79 33.76 51.11 33.76 78.3 0 38.7-30.49 61.03-69.05 61.67l-156.71 1.2 6.2-51.05 78.56-24.3a70.84 70.84 0 0 1 38.8-59.88"/><path d="M241.2 1078.3a2 2 0 0 1-1.98-2.23l6.19-51.05a2 2 0 0 1 1.4-1.67l77.24-23.89a72.97 72.97 0 0 1 39.8-60.16 2 2 0 0 1 1.81 3.57 68.95 68.95 0 0 0-37.7 58.19 2 2 0 0 1-1.4 1.81l-77.34 23.91-5.76 47.5 154.44-1.17c18.83-.31 35.78-6.03 47.7-16.09 12.67-10.69 19.36-25.76 19.36-43.59 0-22.86-12.23-42.7-26.4-65.68-2.3-3.74-4.68-7.6-7.07-11.58a2 2 0 0 1 3.42-2.06c2.39 3.95 4.76 7.81 7.06 11.54 14.48 23.5 26.99 43.78 26.99 67.78 0 37.38-28.54 62.97-71.01 63.68l-156.73 1.2h-.02z"/><path fill="#2E9AFF" d="M228.34 648.13c-57.14 0-103.45 46.31-103.45 103.45v70.83a43.1 43.1 0 0 0 43.1 43.11h120.69a43.1 43.1 0 0 0 43.1-43.1v-70.84c0-57.14-46.3-103.45-103.44-103.45z"/><path d="M288.68 867.52H168a45.16 45.16 0 0 1-45.11-45.1v-70.84c0-58.15 47.3-105.45 105.45-105.45 58.14 0 105.45 47.3 105.45 105.45v70.83a45.16 45.16 0 0 1-45.11 45.11zm-60.34-217.4c-55.94 0-101.45 45.52-101.45 101.46v70.83a41.15 41.15 0 0 0 41.1 41.11h120.69a41.15 41.15 0 0 0 41.1-41.1v-70.84c0-55.94-45.5-101.45-101.44-101.45z"/><path fill="#FFF" d="M229.8 873.97c6.3 0 11.4-5.1 11.4-11.39v-17.72a4.75 4.75 0 0 0-4.75-4.74l-6.64-8.5-6.65 8.5a4.75 4.75 0 0 0-4.74 4.75v17.71c0 6.3 5.1 11.4 11.39 11.4z"/><circle fill="#FFF" cx="175.41" cy="802.59" r="31.42"/><path fill="#FFF" d="M331.79 775.13a47.98 47.98 0 0 0 47.98-47.98v-59.03a20 20 0 0 0-20-20h-55.96a20 20 0 0 0-20 20v59.03a47.97 47.97 0 0 0 47.98 47.98z"/><circle cx="177.01" cy="804.19" r="8.7"/><circle cx="285.67" cy="804.19" r="8.7"/><path d="M245.86 809.41c0 8.87-10.35 24.46-16.05 24.46-5.1 0-16.05-15.59-16.05-24.46a16.05 16.05 0 1 1 32.1 0z"/><path d="M214.97 845.26c-2.06 0-3.4-.48-3.45-.5a2 2 0 0 1 1.4-3.75c.38.14 8.74 2.86 14.46-11.17a2 2 0 1 1 3.7 1.5c-4.86 11.93-11.94 13.92-16.11 13.92z"/><path d="M244.65 845.26c-4.18 0-11.26-1.98-16.12-13.91a2 2 0 0 1 3.7-1.51c5.74 14.06 14.12 11.3 14.48 11.17a2.01 2.01 0 0 1 2.55 1.2 2 2 0 0 1-1.17 2.56c-.04.01-1.39.5-3.44.5z"/><path fill="#FFF" d="M124.89 775.13a47.98 47.98 0 0 0 47.98-47.98v-59.03a20 20 0 0 0-20-20H96.91a20 20 0 0 0-20 20v59.03a47.98 47.98 0 0 0 47.98 47.98z"/><circle fill="#2E9AFF" cx="241.2" cy="1045.35" r="31.05"/><path d="M241.2 1078.4c-18.23 0-33.05-14.82-33.05-33.05s14.82-33.05 33.05-33.05 33.05 14.83 33.05 33.05-14.82 33.06-33.05 33.06zm0-62.1a29.09 29.09 0 0 0-29.05 29.05 29.09 29.09 0 0 0 29.05 29.06 29.09 29.09 0 0 0 29.05-29.06 29.09 29.09 0 0 0-29.05-29.05z"/><path fill="#2E9AFF" d="m297.39 913.98-25.55 136.43-60.82-12.38 21.39-123.63"/><path d="M271.84 1052.41c-.13 0-.26-.01-.4-.04L210.63 1040a2 2 0 0 1-1.57-2.3l21.4-123.64a2 2 0 0 1 3.94.69l-21.07 121.71 56.94 11.6 25.17-134.44a2 2 0 1 1 3.93.74l-25.55 136.43a2 2 0 0 1-1.97 1.63z"/><circle transform="rotate(-6.33 152.91 1045.65)" fill="#2E9AFF" cx="152.73" cy="1045.38" r="31.05"/><path d="M152.73 1078.4c-18.23 0-33.05-14.82-33.05-33.05s14.82-33.05 33.05-33.05 33.05 14.83 33.05 33.05-14.82 33.06-33.05 33.06zm0-62.1a29.09 29.09 0 0 0-29.05 29.05 29.09 29.09 0 0 0 29.05 29.06 29.09 29.09 0 0 0 29.05-29.06 29.09 29.09 0 0 0-29.05-29.05z"/><path fill="#2E9AFF" d="m208.92 913.98-25.55 136.43-60.82-12.38 22.8-131.79"/><path d="M183.37 1052.41c-.13 0-.26-.01-.4-.04L122.15 1040a2 2 0 0 1-1.57-2.3l22.8-131.8a2 2 0 0 1 3.94.68l-22.47 129.88 56.93 11.6 25.18-134.44a2 2 0 1 1 3.93.74l-25.55 136.43a2 2 0 0 1-1.97 1.63z"/><circle fill="#FFF" cx="372.2" cy="294.13" r="12.8"/><path fill="#000" d="M988.69 378.72h-120.1a2 2 0 0 1-2-2v-67.86a2 2 0 0 1 2-2h120.1a2 2 0 0 1 2 2v67.86a2 2 0 0 1-2 2zm-118.1-4h116.1v-63.86h-116.1v63.86z"/><path fill="#000" d="M928.64 310.86H808.53a2 2 0 0 1-2-2V241c0-1.1.9-2 2-2h120.1a2 2 0 0 1 2 2v67.86a2 2 0 0 1-2 2zm-118.11-4h116.1V243h-116.1v63.86z"/><path fill="#000" d="M868.58 378.72h-120.1a2 2 0 0 1-2-2v-67.86c0-1.1.9-2 2-2h120.1a2 2 0 0 1 2 2v67.86a2 2 0 0 1-2 2zm-118.1-4h116.1v-63.86h-116.1v63.86zM182.18 73.45H62.08a2 2 0 0 1-2-2V3.6c0-1.1.9-2 2-2h120.1a2 2 0 0 1 2 2v67.86a2 2 0 0 1-2 2zm-118.1-4h116.1V5.6H64.08v63.86z"/><path fill="#000" d="M122.13 141.31H2.03a2 2 0 0 1-2-2V71.45a2 2 0 0 1 2-2h120.1a2 2 0 0 1 2 2v67.86a2 2 0 0 1-2 2zm-118.1-4h116.1V73.45H4.03v63.86z"/><path fill="#FFF" d="M677.42 141.31h-120.1a2 2 0 0 1-2-2V71.45c0-1.1.9-2 2-2h120.1a2 2 0 0 1 2 2v67.86a2 2 0 0 1-2 2zm-118.1-4h116.1V73.45h-116.1v63.86z"/><path fill="#000" d="M928.64 446.62H808.53a2 2 0 0 1-2-2v-67.86c0-1.1.9-2 2-2h120.1a2 2 0 0 1 2 2v67.86a2 2 0 0 1-2 2zm-118.11-4h116.1v-63.86h-116.1v63.86z"/></svg>
