<svg xmlns="http://www.w3.org/2000/svg" viewBox="0 0 1920 1080" xml:space="preserve"><path fill="#FFF" d="M661.354 499.959h4v578.373h-4z"/><path fill="#FFD829" d="M1301.664 233.85h-188.979c-35.536 0-64.447-28.911-64.447-64.448s28.911-64.448 64.447-64.448h188.979c35.536 0 64.447 28.911 64.447 64.448s-28.911 64.448-64.447 64.448zm-188.978-124.897c-33.331 0-60.447 27.117-60.447 60.448s27.116 60.448 60.447 60.448h188.979c33.331 0 60.447-27.117 60.447-60.448s-27.116-60.448-60.447-60.448h-188.979z"/><path fill="#FFD829" d="M1103.021 170.554c0-7.8 5.939-13.439 13.679-13.439s13.68 5.64 13.68 13.439-5.939 13.439-13.68 13.439c-7.74.001-13.679-5.639-13.679-13.439zm23.698 0c0-5.939-4.56-10.14-10.02-10.14s-10.02 4.2-10.02 10.14 4.56 10.14 10.02 10.14 10.02-4.2 10.02-10.14zM1145.439 179.794v2.28c0 1.2-.66 1.92-1.8 1.92-1.02 0-1.739-.72-1.739-1.92v-36.419c0-1.2.659-1.92 1.8-1.92 1.02 0 1.739.72 1.739 1.92v15.659c1.86-2.819 5.16-4.199 8.58-4.199 7.319 0 12.239 5.58 12.239 13.439s-4.92 13.439-12.239 13.439c-3.42.001-6.78-1.319-8.58-4.199zm17.159-9.24c0-6.06-3.539-10.14-8.759-10.14-5.221 0-8.76 4.08-8.76 10.14s3.539 10.14 8.76 10.14c5.22 0 8.759-4.08 8.759-10.14zM1194.758 159.695v24.059c0 8.399-4.26 12.119-10.919 12.119-1.98 0-4.68-.42-6.18-1.02-.96-.36-1.62-.9-1.62-1.92 0-.84.66-1.56 1.68-1.56.601 0 1.14.239 1.74.42 1.2.359 2.64.779 4.439.779 5.521 0 7.32-3.42 7.32-8.999v-22.739c-4.561.06-10.44.24-12 .24-1.319 0-1.979-.66-1.979-1.681 0-.96.66-1.619 1.979-1.619h13.619c1.201.001 1.921.721 1.921 1.921zm-5.579-10.98c0-2.04 1.56-3.3 3.72-3.3s3.72 1.26 3.72 3.3c0 2.039-1.56 3.3-3.72 3.3s-3.72-1.26-3.72-3.3zM1211.378 170.614c0-7.979 6-13.499 13.619-13.499 7.38 0 13.2 5.04 13.2 12.359 0 1.14-.54 1.92-1.98 1.92h-21.179c.359 5.399 4.5 9.3 10.499 9.3 3.66 0 6.18-1.141 8.58-2.82.66-.42 1.14-.96 2.04-.96.96 0 1.68.72 1.68 1.62s-.42 1.38-1.38 2.1c-2.22 1.74-6.18 3.36-11.1 3.36-8.099 0-13.979-5.46-13.979-13.38zm3.901-2.399h19.139c-.42-4.68-4.739-7.8-9.42-7.8-4.68 0-8.7 3.12-9.719 7.8zM1261.117 180.694c2.88 0 5.76-1.141 8.22-3.24.84-.72 1.38-1.14 2.28-1.14.84 0 1.62.72 1.62 1.56 0 .9-.42 1.44-1.32 2.16-2.7 2.22-6.6 3.96-10.8 3.96-7.739 0-13.679-5.58-13.679-13.439s5.939-13.439 13.679-13.439c4.2 0 8.1 1.74 10.8 3.96.9.72 1.32 1.26 1.32 2.159 0 .841-.78 1.561-1.62 1.561-.9 0-1.44-.42-2.28-1.141-2.46-2.1-5.34-3.239-8.22-3.239-5.159 0-10.02 3.96-10.02 10.14s4.861 10.138 10.02 10.138zM1308.576 159.394c0 1.021-.66 1.681-1.98 1.681-1.8 0-9.179-.181-11.819-.24v11.279c0 6.12 1.98 8.58 6.24 8.58 1.62 0 3.3-.42 4.199-.78 1.261-.479 1.801-.78 2.641-.78s1.5.601 1.5 1.5c0 1.08-.66 1.62-2.16 2.28-1.26.54-3.78 1.08-6.18 1.08-6.84 0-9.78-3.54-9.78-11.819v-11.34c-1.8.06-5.339.24-7.079.24-1.32 0-1.98-.66-1.98-1.681 0-.96.66-1.619 1.98-1.619h7.079v-9c0-1.2.66-1.92 1.801-1.92 1.02 0 1.739.72 1.739 1.92v9h11.819c1.32 0 1.98.659 1.98 1.619zM978.337 391.485l.003.003 45.611-130.94c2.808-8.06-1.451-16.871-9.511-19.679l-111.42-38.811c-8.06-2.808-16.871 1.451-19.679 9.511l-24.178 69.412c-8.224-1.898-15.604-1.507-23.593.048-2.175.337-3.651.718-5.365.957l-105.013 14.47c-13.898 1.934-23.596 14.766-21.664 28.663 1.933 13.898 14.767 23.596 28.664 21.665l56.165-8.376c.643-.096 1.314-.007 1.873.326a2.712 2.712 0 0 1 1.01 3.634l-59.294 108.989c-6.754 12.3-2.257 27.746 10.042 34.5 12.297 6.752 27.746 2.256 34.499-10.044l43.268-79.768-12.608 90.752c-2.002 13.889 7.633 26.77 21.521 28.773 13.885 2.002 26.77-7.634 28.772-21.523l6.878-49.504a25.289 25.289 0 0 0 10.618 7.311c13.196 4.762 27.76-2.078 32.522-15.277l.797-.319c-4.763 13.2 2.077 27.76 15.275 32.523 13.196 4.762 27.76-2.078 32.522-15.277l19.693-54.574c.233-.645.43-1.294.608-1.945l1.982-5.498.002-.002zm-254.634-53.543c-9.229-3.215-14.105-13.303-10.89-22.532s13.303-14.105 22.532-10.89 14.105 13.303 10.89 22.532c-3.214 9.229-13.303 14.105-22.532 10.89zm25.919 140.778c-9.229-3.215-14.105-13.303-10.89-22.532s13.303-14.105 22.532-10.89 14.105 13.303 10.89 22.532-13.303 14.105-22.532 10.89zm99.661 15.976c-3.215 9.229-13.303 14.105-22.532 10.89s-14.105-13.303-10.89-22.532 13.303-14.105 22.532-10.89 14.105 13.303 10.89 22.532z"/><path fill="#FFF" d="M1194.454 415.941h-188.978c-34.489 0-62.448-27.959-62.448-62.448 0-34.489 27.959-62.448 62.448-62.448h188.978c34.489 0 62.448 27.959 62.448 62.448-.001 34.489-27.959 62.448-62.448 62.448z"/><path d="M995.811 354.646c0-7.8 5.939-13.439 13.679-13.439s13.68 5.64 13.68 13.439-5.939 13.439-13.68 13.439c-7.74 0-13.679-5.64-13.679-13.439zm23.698 0c0-5.939-4.56-10.14-10.02-10.14s-10.02 4.2-10.02 10.14 4.56 10.14 10.02 10.14 10.02-4.201 10.02-10.14zM1038.229 363.885v2.28c0 1.2-.66 1.92-1.8 1.92-1.02 0-1.739-.72-1.739-1.92v-36.419c0-1.2.659-1.92 1.8-1.92 1.02 0 1.739.72 1.739 1.92v15.659c1.86-2.819 5.16-4.199 8.58-4.199 7.319 0 12.239 5.58 12.239 13.439s-4.92 13.439-12.239 13.439c-3.42.001-6.781-1.319-8.58-4.199zm17.159-9.239c0-6.06-3.539-10.14-8.759-10.14-5.221 0-8.76 4.08-8.76 10.14s3.539 10.14 8.76 10.14c5.22-.001 8.759-4.081 8.759-10.14zM1087.548 343.786v24.059c0 8.399-4.26 12.119-10.919 12.119-1.98 0-4.68-.42-6.18-1.02-.96-.36-1.62-.9-1.62-1.92 0-.84.66-1.56 1.68-1.56.601 0 1.14.239 1.74.42 1.2.359 2.64.779 4.439.779 5.521 0 7.32-3.42 7.32-8.999v-22.739c-4.561.06-10.44.24-12 .24-1.319 0-1.979-.66-1.979-1.681 0-.96.66-1.619 1.979-1.619h13.619c1.201.001 1.921.721 1.921 1.921zm-5.579-10.979c0-2.04 1.56-3.3 3.72-3.3s3.72 1.26 3.72 3.3c0 2.039-1.56 3.3-3.72 3.3s-3.72-1.261-3.72-3.3zM1104.168 354.705c0-7.979 6-13.499 13.619-13.499 7.38 0 13.2 5.04 13.2 12.359 0 1.14-.54 1.92-1.98 1.92h-21.179c.359 5.399 4.5 9.3 10.499 9.3 3.66 0 6.18-1.141 8.58-2.82.66-.42 1.14-.96 2.04-.96.96 0 1.68.72 1.68 1.62s-.42 1.38-1.38 2.1c-2.22 1.74-6.18 3.36-11.1 3.36-8.099 0-13.979-5.46-13.979-13.38zm3.9-2.399h19.139c-.42-4.68-4.739-7.8-9.42-7.8-4.68 0-8.699 3.12-9.719 7.8zM1153.907 364.785c2.88 0 5.76-1.141 8.22-3.24.84-.72 1.38-1.14 2.28-1.14.84 0 1.62.72 1.62 1.56 0 .9-.42 1.44-1.32 2.16-2.7 2.22-6.6 3.96-10.8 3.96-7.739 0-13.679-5.58-13.679-13.439s5.939-13.439 13.679-13.439c4.2 0 8.1 1.74 10.8 3.96.9.72 1.32 1.26 1.32 2.159 0 .841-.78 1.561-1.62 1.561-.9 0-1.44-.42-2.28-1.141-2.46-2.1-5.34-3.239-8.22-3.239-5.159 0-10.02 3.96-10.02 10.14s4.861 10.138 10.02 10.138zM1201.366 343.485c0 1.021-.66 1.681-1.98 1.681-1.8 0-9.179-.181-11.819-.24v11.279c0 6.12 1.98 8.58 6.24 8.58 1.62 0 3.3-.42 4.199-.78 1.261-.479 1.801-.78 2.641-.78s1.5.601 1.5 1.5c0 1.08-.66 1.62-2.16 2.28-1.26.54-3.78 1.08-6.18 1.08-6.84 0-9.78-3.54-9.78-11.819v-11.34c-1.8.06-5.339.24-7.079.24-1.32 0-1.98-.66-1.98-1.681 0-.96.66-1.619 1.98-1.619h7.079v-9c0-1.2.66-1.92 1.801-1.92 1.02 0 1.739.72 1.739 1.92v9h11.819c1.32 0 1.98.66 1.98 1.619z"/><path fill="#FFD829" d="M1474.877 429.935h153.6v108.398h-153.6z"/><path d="M1802.014 522.634c-12.341 0-24.238 1.898-35.42 5.413-19.444-8.695-40.989-13.535-63.666-13.535h-278.895c-86.225 0-156.125 69.899-156.125 156.125v176.041h181.972c92.081 0 166.727 74.646 166.727 166.727V1080h131.457V747.048h4V1080h106.989V743.919c36.339-20.108 60.947-58.827 60.947-103.298 0-65.162-52.824-117.987-117.986-117.987z"/><path fill="#FFD829" d="M1779.146 166.265a78.867 78.867 0 0 0-8.888.442c-.301-1.071-.618-2.135-.934-3.199l.016-.277c-26.799-89.87-107.974-156.129-205.099-160.947-.13-.007-.26-.011-.39-.017a223.133 223.133 0 0 0-4.189-.165c-.427-.013-.856-.019-1.284-.03-1.098-.026-2.197-.05-3.3-.061-.176-.002-.352-.008-.528-.01-.587-.005-1.171.004-1.758.004-.586 0-1.17-.009-1.758-.004-.177.001-.352.008-.528.01-1.102.011-2.201.035-3.299.061-.428.011-.857.017-1.284.03-1.4.041-2.796.098-4.189.165l-.389.017c-97.125 4.817-178.299 71.076-205.099 160.947l.016.277c-.316 1.064-.633 2.128-.934 3.199a78.867 78.867 0 0 0-8.888-.442c-43.322.342-78.156 35.744-77.811 79.064.347 43.323 35.748 78.155 79.066 77.808a78.627 78.627 0 0 0 19.025-2.494c32.823 72.776 103.083 125.135 186.43 132.303l.115.011c1.199.103 2.403.192 3.608.276.24.017.479.037.719.053 1.031.068 2.066.124 3.101.179.411.022.822.048 1.234.068.896.042 1.795.073 2.694.105.55.02 1.098.044 1.648.06.794.022 1.59.034 2.386.048.654.012 1.306.028 1.961.034.107.001.213.005.319.006.621.005 1.238-.003 1.858-.003.619 0 1.237.008 1.858.003.107-.001.213-.005.319-.006.655-.006 1.307-.022 1.961-.034.796-.014 1.592-.026 2.386-.048.55-.016 1.099-.04 1.648-.06.899-.032 1.797-.062 2.693-.105.412-.02.823-.046 1.234-.068 1.035-.055 2.07-.11 3.101-.179.24-.016.479-.036.719-.053a225.845 225.845 0 0 0 3.723-.287c83.348-7.169 153.608-59.527 186.43-132.303a78.614 78.614 0 0 0 19.025 2.494c43.318.347 78.719-34.485 79.065-77.808.347-43.32-34.488-78.722-77.809-79.064zM1287.162 224.268l48.522 51.912"/><path d="M1335.685 278.181a1.993 1.993 0 0 1-1.461-.635l-48.522-51.912a2 2 0 1 1 2.922-2.73l48.522 51.912a1.997 1.997 0 0 1-1.461 3.365z"/><path fill="#FFD829" d="m1809.053 223.881-47.686 52.686"/><path d="M1761.365 278.567a2 2 0 0 1-1.482-3.342l47.687-52.687a1.999 1.999 0 1 1 2.965 2.683l-47.687 52.687a1.986 1.986 0 0 1-1.483.659z"/><path fill="#FFD829" d="m1551.299 219.23.349 69.008"/><path d="M1551.647 290.238a2 2 0 0 1-2-1.99l-.348-69.009a2 2 0 0 1 1.99-2.01h.01a2 2 0 0 1 2 1.99l.348 69.009a2 2 0 0 1-1.99 2.01h-.01z"/><path d="M1835.852 188.278c-15.07-15.314-35.203-23.842-56.688-24.013a77.358 77.358 0 0 0-7.443.294c-.125-.428-.252-.854-.379-1.282l-.001-.004.016-.278-.1-.335C1743.719 70.312 1660.565 5.06 1564.331.286l-.383-.017a227.436 227.436 0 0 0-4.226-.166l-1.296-.03a229.774 229.774 0 0 0-3.324-.062l-.534-.01c-.366-.003-.732-.001-1.099.001l-.676.003-.676-.003c-.365-.002-.732-.005-1.093-.001l-.537.01c-1.111.011-2.219.034-3.329.062l-1.293.03c-1.412.041-2.82.099-4.22.166l-.398.018c-96.225 4.772-179.378 70.025-206.917 162.373l-.101.339.017.277-.38 1.283a79.493 79.493 0 0 0-7.44-.294c-21.486.17-41.619 8.697-56.69 24.013-15.07 15.313-23.276 35.581-23.104 57.066.172 21.487 8.701 41.62 24.016 56.69 15.157 14.915 35.164 23.105 56.404 23.105a81.123 81.123 0 0 0 4.546-.135c-.249 6.886-.498 10.958-.747 10.944.035.773.072 220.679.105 241.731a23.68 23.68 0 0 0 6.486 16.243l2.011 2.127c4.922 5.205 11.578 7.647 18.137 7.399l131.494.057.666-156.567a226.515 226.515 0 0 0 43.198 7.995l.149.015c1.209.103 2.423.193 3.639.278l.725.053c1.041.069 2.084.126 3.129.181l1.243.068c.783.037 1.57.065 2.356.094l.944.034c.36.014.72.028 1.08.038.604.018 1.208.027 1.812.038l1.201.022c.457.009.913.019 1.371.022l.322.006c.394.003.784.001 1.176-.001l.697-.002.697.002.715.003.464-.002.318-.006c.459-.004.915-.014 1.372-.022l1.203-.022c.604-.011 1.209-.021 1.812-.038.359-.01.719-.023 1.077-.038l.946-.034c.786-.028 1.573-.057 2.355-.094l1.245-.068c1.044-.055 2.088-.111 3.134-.181l.721-.053c1.214-.085 2.428-.176 3.621-.277l.133-.012a226.6 226.6 0 0 0 50.149-10.112l.539 158.35 127.046-.053h-.002c6.817.003 13.628-2.905 18.368-8.693h.644c3.604-4.4 5.518-10.731 5.379-16.417-.596-24.317-1.278-147.586-1.935-253.083a80.431 80.431 0 0 0 5.741.211c21.239-.001 41.249-8.191 56.404-23.105 15.315-15.07 23.844-35.203 24.016-56.69.174-21.486-8.032-41.753-23.102-57.067zm-508.17 132.86a66.1 66.1 0 0 1-.629.003c-20.183 0-39.197-7.784-53.6-21.957-14.554-14.32-22.658-33.452-22.821-53.87s7.635-39.677 21.956-54.229c14.321-14.554 33.453-22.657 53.873-22.818 2.742-.033 5.677.119 8.662.431l.143.015c-1.169 18.534-2.347 114.798-3.532 152.279-1.349.08-2.7.134-4.052.146zm244.583 129.816.171 1.992-.284-1.982c-1.19.103-2.383.191-3.575.274l-.713.052c-1.022.068-2.049.123-3.074.178l-1.226.066c-.768.037-1.537.064-2.308.092l-.959.035c-.345.014-.689.027-1.035.037-.588.017-1.178.026-1.768.037l-1.215.022c-.441.009-.884.018-1.327.021l-.316.006c-.379.002-.751 0-1.125-.001l-.717-.002-.717.002a105 105 0 0 1-1.122.001l-.32-.006c-.442-.004-.885-.013-1.326-.021l-1.214-.022c-.59-.011-1.179-.021-1.768-.037-.347-.01-.692-.023-1.038-.037l-.957-.035c-.771-.027-1.54-.055-2.309-.092l-1.224-.066c-1.026-.055-2.052-.109-3.068-.177l-.718-.053a221.856 221.856 0 0 1-3.576-.274l-.17 1.993.056-2.003c-58.327-5.017-111.509-32.706-149.094-75.636-2.156-5.901-3.242-12.782-2.781-20.848l.569-211.968c.011-4.357 1.183-8.624 3.484-12.323 11.63-18.698 54.74-71.093 162.36-47.041 3.688.824 7.528.777 11.199-.118 97.017-23.628 145.818 27.902 160.028 46.838a23.653 23.653 0 0 1 4.708 13.497l.958 32.201.322 177.16c0 9.23-2.569 17.967-6.321 25.522-37.417 41.265-89.498 67.814-146.49 72.716zm259.871-151.77c-14.554 14.32-33.798 22.15-54.229 21.954a77.162 77.162 0 0 1-5.137-.22c-.461-73.708-.909-137.923-1.307-152.312a77.698 77.698 0 0 1 7.664-.34h.003c20.417.161 39.549 8.265 53.871 22.818 14.321 14.552 22.118 33.812 21.955 54.229s-8.268 39.55-22.82 53.871z"/><path d="M1513.508 250.603h-119.043a2 2 0 0 0 0 4h29.901c1.078 15.596 14.125 27.85 29.965 27.722 15.673-.127 28.423-12.338 29.487-27.722h29.69a2 2 0 0 0 0-4zM1708.135 250.603h-119.044a2 2 0 0 0 0 4h29.76c.859 15.806 14.006 28.292 29.995 28.163 15.83-.127 28.676-12.569 29.523-28.163h29.766a2 2 0 0 0 0-4zM1555.651 327.053l-.437.419a5.258 5.258 0 0 1-7.382-.105c-5.999-6.088-15.776-6.227-21.947-.313l-2.456 2.353a5.272 5.272 0 0 0-1.612 4.255c1.318 15.221 14.091 27.164 29.654 27.164 15.592 0 28.384-11.988 29.661-27.251a5.29 5.29 0 0 0-1.505-4.149l-2.029-2.059c-6-6.088-15.777-6.227-21.947-.314z"/><path fill="#FFF" d="M1618.607 1080h-4v-68.264c0-90.83-73.896-164.727-164.727-164.727h-338.35c-90.831 0-164.727 73.896-164.727 164.727v66.596h-4v-66.596c0-93.036 75.691-168.727 168.727-168.727h338.35c93.036 0 168.727 75.69 168.727 168.727V1080z"/><path fill="#FFF" d="M944.804 1026.736h671.803v4H944.804zM968.771 916.065h617.69v4h-617.69z"/><path fill="#FFD829" d="M1503.337 598.569a78.867 78.867 0 0 0-8.888.442c-.301-1.071-.618-2.135-.934-3.199l.016-.277c-26.799-89.871-107.974-156.129-205.099-160.947-.13-.007-.26-.011-.39-.017a223.133 223.133 0 0 0-4.189-.165c-.427-.013-.856-.019-1.284-.03-1.098-.026-2.197-.05-3.299-.061-.176-.002-.352-.008-.528-.01-.587-.005-1.172.004-1.758.004-.586 0-1.17-.009-1.758-.004-.177.001-.352.008-.528.01-1.102.011-2.201.035-3.299.061-.428.011-.857.017-1.284.03-1.4.041-2.796.098-4.189.165l-.389.017c-97.125 4.817-178.299 71.076-205.099 160.947l.016.277c-.316 1.064-.633 2.128-.934 3.199a78.867 78.867 0 0 0-8.888-.442c-43.322.342-78.156 35.744-77.811 79.064.347 43.323 35.747 78.155 79.065 77.808a78.627 78.627 0 0 0 19.025-2.494c32.822 72.776 103.083 125.135 186.43 132.303l.115.011c1.199.103 2.403.192 3.608.276.24.017.479.037.719.053 1.031.068 2.066.124 3.101.179.412.022.822.048 1.234.068.896.042 1.795.073 2.693.105.55.02 1.098.044 1.648.06.794.022 1.59.034 2.386.048.654.012 1.306.028 1.961.034.107.001.213.005.319.006.62.005 1.238-.003 1.858-.003.62 0 1.237.008 1.858.003.107-.001.213-.005.319-.006.655-.006 1.307-.022 1.961-.034.796-.014 1.592-.026 2.386-.048.55-.016 1.099-.04 1.648-.06.899-.032 1.797-.062 2.693-.105.412-.02.823-.046 1.234-.068 1.035-.055 2.07-.11 3.101-.179.24-.016.479-.036.719-.053 1.205-.084 2.408-.173 3.608-.276l.115-.011c83.348-7.169 153.608-59.527 186.43-132.303a78.614 78.614 0 0 0 19.025 2.494c43.318.347 78.719-34.485 79.065-77.808.348-43.32-34.487-78.722-77.808-79.064z"/><path d="m1278.353 888.09-.691-.002-.676-.002-.677.002h-1.197l-.34-.006c-.455-.004-.928-.014-1.401-.022l-1.069-.021a170.27 170.27 0 0 1-1.896-.04 96.89 96.89 0 0 1-1.082-.038l-.58-.021c-.905-.032-1.812-.063-2.717-.105l-1.244-.068a214.518 214.518 0 0 1-3.129-.182l-.725-.053a252.999 252.999 0 0 1-3.64-.277l-.117-.012c-81.514-7.011-153.163-57.513-187.39-131.956a80.868 80.868 0 0 1-18.528 2.158c-44.06.001-80.077-35.66-80.431-79.796-.172-21.486 8.034-41.753 23.104-57.067 15.071-15.315 35.204-23.843 56.69-24.013a81.922 81.922 0 0 1 7.44.295l.38-1.284-.017-.278.101-.338c27.539-92.348 110.692-157.6 206.918-162.372l.382-.018a241.22 241.22 0 0 1 4.235-.167l1.293-.029a217.07 217.07 0 0 1 3.33-.062l.525-.01a47.86 47.86 0 0 1 1.073.002l.707.003.706-.003a47.15 47.15 0 0 1 1.064-.002l.525.01c1.121.011 2.229.035 3.337.062l1.295.029c1.412.042 2.819.1 4.225.166l.399.019c96.219 4.772 179.372 70.024 206.911 162.372l.101.338-.017.278.38 1.284a81.246 81.246 0 0 1 7.442-.295c21.484.17 41.617 8.697 56.688 24.013 15.07 15.314 23.276 35.581 23.104 57.067-.354 44.133-36.374 79.793-80.43 79.796a80.87 80.87 0 0 1-18.529-2.158c-34.227 74.443-105.876 124.945-187.39 131.956l-.117.012c-1.209.103-2.423.192-3.639.277l-.728.054a245.27 245.27 0 0 1-3.126.181l-1.244.068c-.905.042-1.812.073-2.719.105l-.581.021c-.36.014-.72.028-1.08.038-.632.018-1.264.029-1.896.04l-1.065.021c-.475.009-.948.019-1.424.022l-.318.006a85.01 85.01 0 0 1-.505.002zm-1.368-4.004.691.002c.384.001.767.003 1.15 0l.299-.006c.479-.004.938-.013 1.398-.022l1.073-.02c.619-.011 1.237-.021 1.854-.039.347-.01.692-.023 1.038-.037l.596-.022c.893-.03 1.782-.062 2.671-.104l1.223-.066c1.025-.055 2.052-.11 3.074-.179l.713-.052c1.193-.083 2.386-.172 3.574-.273l.133-.012c80.604-6.933 151.407-57.181 184.76-131.132l.692-1.535 1.631.421a76.807 76.807 0 0 0 19.162 2.435c41.867.001 76.093-33.887 76.429-75.827.163-20.419-7.635-39.678-21.956-54.23-14.321-14.554-33.453-22.657-53.87-22.818h-.002a78.03 78.03 0 0 0-8.664.432l-1.679.175-.454-1.625a198.89 198.89 0 0 0-.893-3.061l-.133-.445.017-.275c-27.155-90.55-108.762-154.5-203.181-159.183l-.396-.019a242.01 242.01 0 0 0-4.144-.163l-1.273-.029c-1.087-.025-2.177-.05-3.27-.061l-.531-.01c-.329-.003-.667 0-1.004.002l-.73.003-.731-.003c-.338-.002-.674-.005-1.013-.002l-.531.01c-1.084.011-2.174.035-3.263.061l-1.271.029c-1.389.042-2.772.098-4.154.164l-.378.017c-94.426 4.684-176.032 68.634-203.188 159.183l.017.276-.101.338c-.313 1.054-.627 2.108-.925 3.17l-.456 1.623-1.677-.175a79.04 79.04 0 0 0-8.664-.432c-20.419.161-39.551 8.265-53.872 22.818-14.321 14.553-22.119 33.812-21.956 54.23.336 41.938 34.565 75.827 76.43 75.827a76.805 76.805 0 0 0 19.161-2.435l1.631-.421.692 1.535c33.353 73.951 104.155 124.199 184.777 131.134l.148.014c1.155.098 2.348.187 3.542.27l.71.052c1.024.068 2.051.124 3.077.179l1.223.066c.888.042 1.777.073 2.669.104l.595.022c.347.014.693.027 1.04.037.617.018 1.235.028 1.854.039l1.077.02c.459.01.918.019 1.377.022l.32.006h1.147l.695-.003z"/><path fill="#FFD829" d="m1011.353 656.572 48.522 51.912"/><path d="M1059.875 710.484a1.993 1.993 0 0 1-1.461-.635l-48.521-51.912a2 2 0 1 1 2.922-2.73l48.521 51.912a1.997 1.997 0 0 1-1.461 3.365z"/><path fill="#FFF" d="M1262.464 761.286v25.705c0 10.075 8.167 18.242 18.242 18.242 10.075 0 18.242-8.167 18.242-18.242v-25.705h-36.484z"/><path fill="#FFD829" d="m1533.244 656.184-47.687 52.687"/><path d="M1485.557 710.871a2 2 0 0 1-1.482-3.342l47.687-52.687a2 2 0 1 1 2.965 2.683l-47.687 52.687a1.986 1.986 0 0 1-1.483.659z"/><path fill="#FFD829" d="M1330.854 748.785c-14.734 8.584-31.866 13.502-50.148 13.502-18.74 0-36.274-5.167-51.253-14.155"/><path d="M1280.706 764.286c-18.458 0-36.536-4.993-52.282-14.44a2 2 0 0 1 2.058-3.43c15.124 9.074 32.491 13.87 50.224 13.87 17.294 0 34.287-4.575 49.141-13.23a2 2 0 0 1 2.013 3.457c-15.464 9.011-33.153 13.773-51.154 13.773z"/><path fill="#FFD829" d="m1395.308 673.339-41.994 18.261 41.994 18.633"/><path d="M1395.308 712.234a2 2 0 0 1-.811-.173l-41.995-18.634a2 2 0 0 1 .014-3.662l41.995-18.261c1.011-.443 2.191.022 2.632 1.036a2 2 0 0 1-1.036 2.632l-37.82 16.445 37.834 16.787a2 2 0 0 1-.813 3.83zM1280.118 717.988a2 2 0 0 1-2-1.996l-.105-56.611a2 2 0 0 1 1.996-2.004h.004a2 2 0 0 1 2 1.996l.105 56.611a2 2 0 0 1-1.996 2.004h-.004z"/><path fill="#FFD829" d="m1160.796 673.339 41.994 18.261-41.994 18.633"/><path d="M1160.797 712.234a2 2 0 0 1-.812-3.829l37.833-16.787-37.819-16.445a2 2 0 0 1-1.036-2.632 1.999 1.999 0 0 1 2.632-1.036l41.994 18.261a1.998 1.998 0 0 1 .014 3.662l-41.994 18.634a2.006 2.006 0 0 1-.812.172zM1113.12 575.507c-25.079 0-43.082-3.03-43.299-3.068l.677-3.942c.26.046 26.295 4.419 59.329 2.544 30.346-1.726 72.985-9.233 103.787-35.204 27.481-23.172 41.415-57.298 41.415-101.431h4c0 45.373-14.416 80.531-42.848 104.498-17.479 14.734-50.098 32.964-106.227 36.136-5.86.33-11.508.467-16.834.467z"/><path d="M1126.992 538.505c-20.379 0-35.238-3.135-35.556-3.204l.853-3.908c.663.144 66.797 14.061 110.695-17.94 22.27-16.234 35.219-41.562 38.488-75.283l3.98.387c-3.384 34.915-16.886 61.205-40.13 78.142-24.249 17.668-54.927 21.806-78.33 21.806z"/><path d="M1135.937 502.901c-10.174 0-17.247-1.959-17.682-2.083l1.091-3.849c.15.044 15.271 4.204 32.795.1 23.354-5.472 39.754-22.317 48.747-50.068l3.805 1.232c-6.515 20.106-20.792 45.583-51.806 52.77-6.123 1.419-11.916 1.898-16.95 1.898zM1440.939 575.507c-5.328 0-10.973-.137-16.836-.468-30.98-1.751-74.558-9.44-106.227-36.136-28.432-23.967-42.848-59.125-42.848-104.498h4c0 44.133 13.934 78.259 41.415 101.431 17.001 14.335 48.809 32.079 103.788 35.204 33.027 1.876 59.07-2.498 59.329-2.544l.677 3.942c-.216.039-18.221 3.069-43.298 3.069z"/><path d="M1427.067 538.505c-23.404 0-54.079-4.136-78.332-21.808-23.244-16.937-36.746-43.228-40.13-78.142l3.98-.387c3.27 33.72 16.218 59.049 38.488 75.283 43.898 32.002 110.034 18.085 110.696 17.94l.853 3.908c-.316.071-15.181 3.206-35.555 3.206z"/><path d="M1418.122 502.901c-5.034 0-10.825-.479-16.95-1.898-31.014-7.187-45.29-32.663-51.806-52.77l3.805-1.232c8.993 27.751 25.395 44.597 48.747 50.068 17.521 4.104 32.645-.056 32.795-.1l1.091 3.849c-.435.125-7.509 2.083-17.682 2.083z"/><path fill="#FFF" d="M1165.116 976.827c0-7.801 5.939-13.439 13.679-13.439s13.68 5.639 13.68 13.439c0 7.799-5.939 13.439-13.68 13.439-7.739.001-13.679-5.64-13.679-13.439zm23.698 0c0-5.939-4.56-10.141-10.02-10.141s-10.02 4.201-10.02 10.141 4.56 10.139 10.02 10.139 10.02-4.199 10.02-10.139zM1207.534 986.066v2.281c0 1.199-.66 1.92-1.8 1.92-1.02 0-1.739-.721-1.739-1.92v-36.42c0-1.199.659-1.92 1.8-1.92 1.02 0 1.739.721 1.739 1.92v15.66c1.86-2.82 5.16-4.199 8.58-4.199 7.319 0 12.239 5.58 12.239 13.439s-4.92 13.439-12.239 13.439c-3.42.001-6.78-1.32-8.58-4.2zm17.159-9.239c0-6.061-3.539-10.141-8.759-10.141-5.221 0-8.76 4.08-8.76 10.141 0 6.059 3.539 10.139 8.76 10.139 5.22 0 8.759-4.08 8.759-10.139zM1256.854 965.968v24.059c0 8.398-4.26 12.119-10.919 12.119-1.98 0-4.68-.42-6.18-1.02-.96-.361-1.62-.9-1.62-1.92 0-.84.66-1.561 1.68-1.561.601 0 1.14.24 1.74.42 1.2.359 2.64.779 4.439.779 5.521 0 7.32-3.42 7.32-8.998v-22.74c-4.561.061-10.44.24-12 .24-1.319 0-1.979-.66-1.979-1.68 0-.961.66-1.619 1.979-1.619h13.619c1.201.001 1.921.72 1.921 1.921zm-5.58-10.981c0-2.039 1.56-3.299 3.72-3.299s3.72 1.26 3.72 3.299-1.56 3.301-3.72 3.301-3.72-1.262-3.72-3.301zM1273.474 976.886c0-7.979 6-13.498 13.619-13.498 7.38 0 13.2 5.039 13.2 12.359 0 1.139-.54 1.92-1.98 1.92h-21.179c.359 5.398 4.5 9.299 10.499 9.299 3.66 0 6.18-1.141 8.58-2.82.66-.42 1.14-.959 2.04-.959.96 0 1.68.719 1.68 1.619s-.42 1.381-1.38 2.1c-2.22 1.74-6.18 3.361-11.1 3.361-8.099 0-13.979-5.461-13.979-13.381zm3.9-2.399h19.139c-.42-4.68-4.739-7.801-9.42-7.801-4.68.001-8.699 3.122-9.719 7.801zM1323.213 986.966c2.88 0 5.76-1.141 8.22-3.24.84-.719 1.38-1.139 2.28-1.139.84 0 1.62.719 1.62 1.559 0 .9-.42 1.441-1.32 2.16-2.7 2.221-6.6 3.961-10.8 3.961-7.739 0-13.679-5.58-13.679-13.439s5.939-13.439 13.679-13.439c4.2 0 8.1 1.74 10.8 3.959.9.721 1.32 1.26 1.32 2.16 0 .84-.78 1.561-1.62 1.561-.9 0-1.44-.42-2.28-1.141-2.46-2.1-5.34-3.24-8.22-3.24-5.159 0-10.02 3.961-10.02 10.141s4.861 10.137 10.02 10.137zM1370.672 965.667c0 1.02-.66 1.68-1.98 1.68-1.8 0-9.179-.18-11.819-.24v11.279c0 6.121 1.98 8.58 6.24 8.58 1.62 0 3.3-.42 4.199-.779 1.261-.48 1.801-.781 2.641-.781s1.5.602 1.5 1.5c0 1.08-.66 1.621-2.16 2.281-1.26.539-3.78 1.08-6.18 1.08-6.84 0-9.78-3.541-9.78-11.82v-11.34c-1.8.061-5.339.24-7.079.24-1.32 0-1.98-.66-1.98-1.68 0-.961.66-1.619 1.98-1.619h7.079v-9c0-1.201.66-1.92 1.801-1.92 1.02 0 1.739.719 1.739 1.92v9h11.819c1.32 0 1.98.658 1.98 1.619z"/><path d="M571.94 676.437h4v401.896h-4zM390.222 789.146l-37.769 94.944-38.898-94.944 38.333-187.643z"/><path fill="#FFF" d="M172.917 471.116h4v39.23h-4z"/><path fill="#FFD829" d="M267.37 473.629V297.447h173.413v179.054h-.073c-.066 47.831-38.857 86.586-86.704 86.586-47.886 0-86.707-38.82-86.707-86.707.001-.923.043-1.835.071-2.751z"/><path d="M354.007 565.087c-48.913 0-88.707-39.794-88.707-88.707 0-.728.024-1.449.049-2.171l.021-.615V295.448h177.414v183.054h-.098c-1.132 47.925-40.502 86.585-88.679 86.585zM269.37 299.448l-.001 174.242-.021.656c-.023.676-.047 1.353-.047 2.034 0 46.708 37.999 84.707 84.707 84.707 46.642 0 84.64-37.946 84.704-84.589l.003-1.997h.07V299.448H269.37z"/><path fill="#FFD829" d="M581.888 166.265a78.867 78.867 0 0 0-8.888.442c-.301-1.071-.618-2.135-.934-3.199l.016-.277C545.283 73.36 464.109 7.101 366.983 2.284c-.13-.007-.26-.011-.39-.017a223.133 223.133 0 0 0-4.189-.165c-.427-.013-.856-.019-1.284-.03-1.098-.026-2.197-.05-3.299-.061-.176-.002-.352-.008-.528-.01-.587-.005-1.171.004-1.758.004-.586 0-1.17-.009-1.758-.004-.177.001-.352.008-.528.01-1.102.011-2.201.035-3.299.061-.428.011-.857.017-1.284.03-1.4.041-2.796.098-4.189.165l-.389.017C246.964 7.101 165.79 73.36 138.99 163.231l.016.277c-.316 1.064-.633 2.128-.934 3.199a78.867 78.867 0 0 0-8.888-.442c-43.322.342-78.156 35.744-77.811 79.064.347 43.323 35.748 78.155 79.066 77.808a78.627 78.627 0 0 0 19.025-2.494c32.822 72.776 103.083 125.135 186.43 132.303l.115.011c1.199.103 2.403.192 3.608.276.24.017.479.037.719.053 1.031.068 2.066.124 3.101.179.412.022.822.048 1.234.068.896.042 1.795.073 2.694.105.55.02 1.098.044 1.648.06.794.022 1.59.034 2.386.048.654.012 1.306.028 1.961.034.107.001.213.005.319.006.621.005 1.238-.003 1.858-.003.619 0 1.237.008 1.858.003.107-.001.213-.005.319-.006.655-.006 1.307-.022 1.961-.034.796-.014 1.592-.026 2.386-.048.55-.016 1.099-.04 1.648-.06.899-.032 1.798-.062 2.694-.105.412-.02.823-.046 1.234-.068 1.035-.055 2.07-.11 3.101-.179.24-.016.479-.036.719-.053a225.845 225.845 0 0 0 3.723-.287c83.348-7.168 153.608-59.527 186.43-132.303a78.614 78.614 0 0 0 19.025 2.494c43.318.347 78.719-34.485 79.065-77.808.344-43.32-34.49-78.722-77.812-79.064z"/><path d="M356.949 455.787c-.239 0-.477-.002-.714-.003l-.698-.002-.697.002c-.392.002-.784.004-1.176.001l-.322-.006c-.457-.004-.915-.014-1.371-.022l-1.202-.022c-.604-.011-1.209-.021-1.812-.038-.36-.01-.719-.023-1.079-.038l-.943-.034c-.787-.028-1.574-.057-2.358-.094l-1.242-.068c-1.045-.055-2.09-.111-3.13-.181l-.724-.053c-1.216-.085-2.43-.176-3.64-.278l-.148-.015c-81.482-7.007-153.131-57.509-187.358-131.952a80.813 80.813 0 0 1-17.876 2.154c-21.481.214-41.752-8.033-57.067-23.103-15.314-15.07-23.843-35.203-24.015-56.69-.171-21.485 8.034-41.753 23.104-57.067 15.071-15.314 35.204-23.843 56.69-24.013 2.394-.021 4.89.078 7.44.295.125-.429.253-.856.38-1.285l-.016-.277.101-.337C164.611 70.312 247.765 5.059 343.99.287l.398-.018c1.399-.067 2.808-.125 4.221-.166l1.292-.03c1.11-.027 2.218-.051 3.33-.062l.537-.01c.361-.002.727-.001 1.093.001l.676.003.676-.003c.365-.002.73-.004 1.099-.001l.534.01c1.109.011 2.217.034 3.325.062l1.295.03c1.411.041 2.82.099 4.226.166l.383.017C463.309 5.059 546.463 70.312 574 162.66l.101.337-.016.277.38 1.285a79.833 79.833 0 0 1 7.442-.295c21.484.17 41.617 8.698 56.688 24.013 15.071 15.314 23.276 35.582 23.104 57.067-.172 21.487-8.701 41.62-24.016 56.69-15.156 14.914-35.166 23.104-56.404 23.105a80.791 80.791 0 0 1-18.538-2.157c-34.227 74.443-105.876 124.945-187.391 131.956l-.133.012c-1.193.102-2.407.192-3.622.277l-.719.053c-1.046.069-2.09.126-3.134.181l-1.245.068c-.785.037-1.572.065-2.36.094l-.939.034c-.36.014-.72.028-1.081.038-.603.018-1.207.027-1.811.038l-1.205.022c-.457.009-.913.019-1.37.022l-.319.006a23.89 23.89 0 0 1-.463.004zM150.595 318.286l.692 1.535c33.352 73.952 104.155 124.198 184.778 131.133l-.057 2.003.17-1.993c1.189.103 2.382.191 3.576.274l.717.053c1.017.067 2.043.122 3.069.177l1.223.066c.77.037 1.54.064 2.31.092l.956.035c.346.014.691.027 1.037.037.588.017 1.178.026 1.768.037l1.214.022c.442.009.884.018 1.327.021l.319.006c.373.002.748.001 1.123-.001l.717-.002.717.002c.374.001.749.003 1.125.001l.317-.006c.442-.004.884-.013 1.325-.021l1.217-.022c.589-.011 1.179-.021 1.766-.037.347-.01.693-.023 1.039-.037l.952-.035c.771-.027 1.543-.055 2.312-.092l1.225-.066c1.025-.055 2.051-.109 3.074-.178l.712-.052c1.194-.083 2.387-.172 3.576-.274l.285 1.982-.171-1.992c80.623-6.935 151.426-57.181 184.778-131.133l.692-1.535 1.631.421a76.756 76.756 0 0 0 18.542 2.431c20.387.183 39.675-7.633 54.228-21.954 14.553-14.32 22.658-33.452 22.821-53.87.163-20.418-7.634-39.677-21.956-54.23-14.322-14.553-33.454-22.657-53.871-22.818h-.002a77.125 77.125 0 0 0-8.664.432l-1.677.175-.456-1.623c-.279-.993-.572-1.979-.865-2.966l-.161-.541.016-.274C542.911 72.917 461.304 8.964 366.884 4.281l-.381-.016a222.07 222.07 0 0 0-4.157-.164l-1.275-.03a252.581 252.581 0 0 0-3.269-.06l-.52-.01c-.353-.003-.701 0-1.047.001l-.7.003-.699-.003c-.347-.002-.692-.004-1.042-.001l-.523.01c-1.095.011-2.185.034-3.273.06l-1.272.03c-1.388.041-2.771.097-4.152.164l-.396.017C249.767 8.965 168.16 72.917 141.006 163.467l.016.274-.18.606c-.287.965-.573 1.93-.846 2.9l-.456 1.623-1.677-.175a77.976 77.976 0 0 0-8.663-.432c-20.419.161-39.551 8.266-53.873 22.818-14.321 14.554-22.119 33.812-21.956 54.23s8.268 39.55 22.821 53.87c14.403 14.173 33.417 21.957 53.6 21.957a76.761 76.761 0 0 0 19.17-2.434l1.633-.418z"/><path fill="#FFD829" d="m89.904 224.268 48.523 51.912"/><path d="M138.427 278.18a1.99 1.99 0 0 1-1.461-.635l-48.522-51.912a2 2 0 1 1 2.922-2.73l48.522 51.912a2 2 0 0 1-1.461 3.365z"/><path fill="#FFD829" d="m611.795 223.88-47.686 52.687"/><path d="M564.108 278.567a2 2 0 0 1-1.483-3.342l47.687-52.687a2 2 0 0 1 2.966 2.683l-47.687 52.687a1.99 1.99 0 0 1-1.483.659zM317.913 250.603H198.869a2 2 0 0 0 0 4h29.853c.577 16.068 13.837 28.853 30.014 28.722 16.011-.13 28.978-12.87 29.545-28.722h29.632a2 2 0 0 0 0-4zM512.539 250.603H393.496a2 2 0 0 0 0 4h29.761c.859 15.806 14.006 28.292 29.995 28.163 15.83-.127 28.676-12.569 29.523-28.163h29.765a2 2 0 0 0-.001-4zM386.909 358.769c-.819.139-1.652.189-2.482.139-11.942-.73-21.403-10.648-21.403-22.774 0-12.601 10.216-22.817 22.817-22.817 5.529-.074 11.029 1.047 15.987 3.495 3.978 1.963 15.412 8.312 28.762 14.381 9.751 4.433 7.918 18.79-2.641 20.588l-41.04 6.988zM324.163 358.769c.819.139 1.652.189 2.482.139 11.943-.73 21.403-10.648 21.403-22.774 0-12.601-10.216-22.817-22.817-22.817-5.529-.074-11.029 1.047-15.987 3.495-3.978 1.963-15.412 8.312-28.762 14.381-9.75 4.433-7.918 18.79 2.641 20.588l41.04 6.988zM354.389 299.448a2 2 0 0 1-2-1.987l-.348-56.61a2.001 2.001 0 0 1 1.988-2.013h.013a2 2 0 0 1 2 1.987l.348 56.61a2.001 2.001 0 0 1-1.988 2.013h-.013zM539.883 170.509c4.971 9.851 17.784 12.566 26.323 5.577l1.054-.863c4.36-3.568 6.013-9.46 4.221-14.802C541.198 70.148 455.932 2.318 355.466 2.318c-100.577 0-186.535 64.373-216.388 156.947-1.716 5.322.029 13.94 4.388 17.444 8.637 6.944 21.487 4.057 26.324-5.913l13.051-32.071c1.999-4.486 4.429-8.77 7.304-12.752 14.198-19.661 52.384-56.789 133.97-46.644 19.954 2.481 40.149 2.672 60.078-.004 72.973-9.798 114.548 24.595 132.124 44.65a72.424 72.424 0 0 1 11.152 17.132l12.414 29.402z"/><path fill="#FFF" d="M484.687 660.532h4v418.133h-4zM617.621 475.094h4v410.784h-4zM574.021 470.571h4v220.062h-4zM39.982 499.747h4V1080h-4zM85.715 475.094h4V1080h-4zM129.316 470.571h4v220.062h-4z"/><path d="M129.316 676.225h4V1080h-4z"/><path fill="#FFF" d="M169.507 604.234h4V1080h-4zM218.65 658.836h4V1080h-4zM262.555 797.967h4V1080h-4zM308.288 841.947h4V1080h-4zM352.312 876.749h4v202.827h-4z"/><path d="M711.072 1078.12h-4V588.574c0-63.964-52.039-116.003-116.003-116.003H120.003C56.039 472.571 4 524.61 4 588.574V1080H0V588.574c0-66.17 53.833-120.003 120.003-120.003h471.066c66.17 0 120.003 53.833 120.003 120.003v489.546z"/><path fill="#FFF" d="M530.42 608.187h4v469.934h-4zM440.782 799.903h4V1080h-4zM395.048 842.915h4V1080h-4z"/><path d="M354.453 885.878a2 2 0 0 1-1.86-2.733l161.974-411.307a2 2 0 0 1 1.808-1.267c.801-.036 1.539.438 1.873 1.168l45.988 100.729a1.998 1.998 0 0 1-.313 2.146l-103.354 118.31 13.549 77.424a1.998 1.998 0 0 1-.584 1.786L355.84 885.319c-.384.37-.883.559-1.387.559zm162.11-408.193-156.891 398.4 110.322-106.097-13.53-77.316a1.998 1.998 0 0 1 .464-1.66L560.06 572.956l-43.497-95.271z"/><path d="M353.889 886.422a1.995 1.995 0 0 1-1.387-.559L234.808 772.678a2 2 0 0 1-.584-1.786l13.549-77.424L144.42 575.16a1.998 1.998 0 0 1-.313-2.146l45.988-100.728a1.98 1.98 0 0 1 1.873-1.168 2 2 0 0 1 1.808 1.267L355.749 883.69a2 2 0 0 1-1.86 2.732zM238.347 770.533 348.669 876.63l-156.891-398.4-43.496 95.27 103.132 118.056c.397.455.568 1.065.464 1.66l-13.531 77.317z"/><path fill="#FFF" d="m264.555 453.786 89.333 80.88-50.856 51.476-61.553-113.026z"/><path fill="#FFF" d="m443.222 453.786-89.334 80.88 50.857 51.476 61.553-113.026z"/><path d="m383.608 566.053-31.72 54.204-31.719-54.204 31.719-31.72zM856.923 943.146H564.301c-65.171 0-118.003 52.832-118.003 118.003V1080h528.628v-18.851c0-65.171-52.832-118.003-118.003-118.003z"/><path fill="#FFF" d="M766.793 916.428c-23.499 0-44.168 12.069-56.181 30.338-12.013-18.269-32.682-30.338-56.181-30.338-37.116 0-67.204 30.088-67.204 67.204 0 37.116 30.088 67.204 67.204 67.204 23.499 0 44.168-12.069 56.181-30.338 12.013 18.269 32.682 30.338 56.181 30.338 37.116 0 67.204-30.088 67.204-67.204 0-37.116-30.089-67.204-67.204-67.204z"/><path fill="#FFD829" d="M623.94 917.28V741.098h173.413v179.054h-.073c-.066 47.831-38.857 86.586-86.704 86.586-47.886 0-86.707-38.82-86.707-86.707.002-.923.043-1.835.071-2.751z"/><path fill="#FFD829" d="M936.964 651.612a78.867 78.867 0 0 0-8.888.442c-.301-1.071-.618-2.135-.934-3.199l.016-.277c-26.799-89.87-107.974-156.129-205.099-160.947-.13-.007-.26-.011-.39-.017a223.133 223.133 0 0 0-4.189-.165c-.427-.013-.856-.019-1.284-.03-1.098-.026-2.197-.05-3.299-.061-.176-.002-.352-.008-.528-.01-.587-.005-1.171.004-1.758.004-.586 0-1.17-.009-1.758-.004-.177.001-.352.008-.528.01-1.102.011-2.201.035-3.299.061-.428.011-.857.017-1.284.03-1.4.041-2.796.098-4.189.165l-.389.017c-97.125 4.817-178.299 71.076-205.099 160.947l.016.277c-.316 1.064-.633 2.128-.934 3.199a78.867 78.867 0 0 0-8.888-.442c-43.322.342-78.156 35.744-77.811 79.064.347 43.323 35.748 78.155 79.066 77.808a78.627 78.627 0 0 0 19.025-2.494c32.822 72.776 103.083 125.135 186.43 132.303l.115.011c1.199.103 2.403.192 3.608.276.24.017.479.037.719.053 1.031.068 2.066.124 3.102.179.411.022.822.048 1.234.068.896.042 1.795.073 2.693.105.55.02 1.098.044 1.648.06.794.022 1.59.034 2.386.048.654.012 1.306.028 1.961.034.107.001.213.005.319.006.621.005 1.238-.003 1.858-.003.619 0 1.237.008 1.858.003.107-.001.213-.005.319-.006.655-.006 1.307-.022 1.961-.034.796-.014 1.592-.026 2.386-.048.55-.016 1.099-.04 1.648-.06.899-.032 1.797-.062 2.694-.105.412-.02.823-.046 1.234-.068 1.035-.055 2.07-.11 3.101-.179.24-.016.479-.036.719-.053a225.845 225.845 0 0 0 3.723-.287c83.348-7.169 153.608-59.527 186.43-132.303a78.614 78.614 0 0 0 19.025 2.494c43.318.347 78.719-34.485 79.065-77.808.345-43.319-34.489-78.721-77.811-79.064z"/><path d="m709.242 941.134-.503-.002-.322-.006c-.474-.004-.948-.014-1.421-.022l-1.069-.021c-.632-.011-1.264-.022-1.895-.04-.361-.01-.721-.024-1.081-.038l-.582-.021c-.906-.032-1.812-.063-2.717-.105l-1.244-.068a229.542 229.542 0 0 1-3.129-.181l-.725-.054c-1.216-.085-2.43-.175-3.64-.277l-.116-.011c-81.514-7.012-153.164-57.514-187.391-131.957a80.845 80.845 0 0 1-18.528 2.158c-44.06.001-80.077-35.66-80.43-79.796-.171-21.486 8.034-41.753 23.105-57.067 15.071-15.315 35.205-23.843 56.69-24.013 2.395-.024 4.89.077 7.44.295l.38-1.285-.017-.276.101-.339c27.539-92.348 110.692-157.6 206.917-162.372l.384-.018c1.415-.067 2.822-.125 4.233-.167l1.298-.029c1.105-.027 2.214-.052 3.325-.062l.526-.01c.365-.002.719.001 1.073.002l.707.003.707-.003c.354-.002.71-.005 1.064-.002l.526.01c1.12.011 2.229.035 3.336.062l1.295.029c1.412.042 2.819.1 4.225.166l.399.019c96.219 4.772 179.372 70.024 206.91 162.372l.101.337-.016.277.38 1.286a81.233 81.233 0 0 1 7.442-.295c21.484.17 41.617 8.697 56.688 24.013 15.07 15.314 23.276 35.581 23.104 57.067-.354 44.133-36.374 79.793-80.429 79.796a80.854 80.854 0 0 1-18.529-2.158c-34.227 74.443-105.876 124.945-187.391 131.957l-.116.011c-1.21.103-2.424.192-3.639.277l-.728.054a246.18 246.18 0 0 1-3.125.181l-1.245.068c-.904.042-1.809.073-2.714.105l-.586.021c-.359.015-.718.028-1.079.038-.631.018-1.264.029-1.896.04l-1.066.021c-.474.009-.948.019-1.423.022l-.319.006h-1.2l-.676-.002-.676.002-.693.002zM505.671 803.633l.692 1.535c33.353 73.951 104.156 124.199 184.778 131.134l.14.013c1.163.1 2.355.188 3.55.271l.709.052c1.025.068 2.05.124 3.077.179l1.223.066c.887.042 1.778.073 2.668.104l.596.022c.346.014.692.027 1.039.037.616.018 1.234.028 1.852.039l1.077.02c.459.01.918.019 1.379.022l.319.006c.38.002.764.002 1.147 0l.692-.002.692.002c.382.001.765.002 1.15 0l.316-.006c.461-.004.921-.013 1.381-.022l1.075-.02c.618-.011 1.237-.021 1.854-.039.346-.01.691-.023 1.037-.037l.597-.022c.895-.031 1.784-.062 2.67-.104l1.224-.066c1.025-.055 2.051-.11 3.073-.178l.713-.053a222.61 222.61 0 0 0 3.575-.273l.132-.012c80.605-6.933 151.408-57.181 184.76-131.132l.692-1.535 1.631.421a76.8 76.8 0 0 0 19.162 2.435c41.867.001 76.092-33.887 76.428-75.827.163-20.419-7.635-39.678-21.956-54.23-14.321-14.554-33.453-22.657-53.87-22.818h-.002c-2.778-.029-5.681.121-8.663.432l-1.677.175-.456-1.623c-.276-.984-.567-1.962-.857-2.939l-.169-.568.016-.274c-27.154-90.55-108.762-154.501-203.181-159.185l-.396-.018a242.817 242.817 0 0 0-4.144-.163l-1.269-.029c-1.092-.025-2.181-.05-3.274-.061l-.53-.01c-.33-.003-.667-.001-1.005.002l-.731.003-.731-.003c-.337-.002-.673-.004-1.014-.002l-.53.01c-1.084.011-2.173.035-3.263.061l-1.272.029c-1.387.042-2.771.098-4.153.164l-.379.017c-94.425 4.684-176.032 68.634-203.187 159.183l.017.275-.095.334c-.33 1.11-.635 2.137-.926 3.171l-.456 1.623-1.677-.175a76.564 76.564 0 0 0-8.663-.432c-20.419.161-39.551 8.265-53.873 22.818-14.321 14.553-22.119 33.812-21.956 54.23.335 41.938 34.565 75.827 76.43 75.827a76.792 76.792 0 0 0 19.161-2.435l1.631-.419z"/><path d="M493.503 763.527a1.99 1.99 0 0 1-1.461-.635L443.52 710.98a2 2 0 1 1 2.922-2.73l48.522 51.912a2 2 0 0 1-1.461 3.365zM919.184 763.915a2 2 0 0 1-1.483-3.342l47.687-52.687a2 2 0 1 1 2.965 2.683l-47.686 52.687a1.993 1.993 0 0 1-1.483.659zM654.703 742.418c.13 16.461-13.113 29.91-29.568 30.044-16.46.133-29.911-13.103-30.042-29.567-.135-16.461 13.105-29.91 29.567-30.042 16.45-.133 29.91 13.105 30.043 29.565z"/><path d="M565.267 748.94a2 2 0 0 1-1.657-3.118c13.696-20.301 36.466-32.538 60.91-32.734 24.496-.201 47.414 11.675 61.432 31.754a2 2 0 1 1-3.28 2.289c-13.156-18.842-34.64-30.045-57.557-30.045-.189 0-.375 0-.564.002-23.125.186-44.667 11.764-57.625 30.971a1.998 1.998 0 0 1-1.659.881zM826.68 740.859c.131 16.464-13.111 29.911-29.573 30.044-16.46.133-29.911-13.103-30.042-29.567-.133-16.459 13.105-29.909 29.565-30.042 16.461-.13 29.916 13.102 30.05 29.565z"/><path d="M737.239 747.38a1.999 1.999 0 0 1-1.656-3.119c13.704-20.3 36.477-32.536 60.917-32.732.197-.002.394-.002.591-.002 24.227 0 46.935 11.841 60.84 31.757a2 2 0 1 1-3.28 2.289c-13.157-18.843-34.641-30.046-57.561-30.046-.186 0-.373 0-.559.002-23.122.186-44.667 11.764-57.633 30.971a1.997 1.997 0 0 1-1.659.88zM712.886 787.245a2 2 0 0 1-2-1.996l-.106-56.612a2 2 0 0 1 1.996-2.004h.004a2 2 0 0 1 2 1.996l.106 56.612a2 2 0 0 1-1.996 2.004h-.004zM759.742 816.516h-98.259a2 2 0 0 1 0-4h98.259a2 2 0 0 1 0 4zM936.964 651.612a78.867 78.867 0 0 0-8.888.442c-.301-1.071-.618-2.135-.934-3.199l.016-.277c-26.799-89.87-107.974-156.129-205.099-160.947-.13-.007-.26-.011-.39-.017a223.133 223.133 0 0 0-4.189-.165c-.289-.009-.58-.014-.87-.02l-.414-.01c-1.098-.026-2.197-.05-3.299-.061-.176-.002-.352-.008-.528-.01-.587-.005-1.171.004-1.758.004-.586 0-1.17-.009-1.758-.004-.177.001-.352.008-.528.01-1.102.011-2.201.035-3.299.061l-.414.01c-.29.006-.58.011-.87.02-1.4.041-2.796.098-4.189.165l-.389.017c-97.125 4.817-178.299 71.076-205.099 160.947l.016.277c-.316 1.064-.633 2.128-.934 3.199a78.867 78.867 0 0 0-8.888-.442c-1.393.011-2.777.06-4.152.142 17.322 5.479 35.761 8.442 54.895 8.442 84.064 0 154.791-57.05 175.609-134.542 20.818 77.492 91.545 134.542 175.609 134.542 19.134 0 37.574-2.963 54.895-8.442a80.315 80.315 0 0 0-4.151-.142z"/><ellipse transform="rotate(-51.969 1022.478 962.703)" cx="1022.478" cy="962.719" rx="40.802" ry="75.028"/><ellipse transform="rotate(-26.083 949.137 872.014)" cx="949.197" cy="872.064" rx="40.802" ry="75.028"/><ellipse transform="rotate(-74.532 1108.664 1013.804)" cx="1108.721" cy="1013.834" rx="23.214" ry="42.686"/><ellipse transform="rotate(-38.031 399.04 962.675)" cx="399.068" cy="962.719" rx="75.028" ry="40.802"/><ellipse transform="rotate(-63.917 472.33 872.023)" cx="472.349" cy="872.064" rx="75.028" ry="40.802"/><ellipse transform="rotate(-15.464 312.975 1013.973)" cx="312.824" cy="1013.834" rx="42.686" ry="23.214"/><path d="M909.36 168.025H720.382c-34.489 0-62.448-27.959-62.448-62.448 0-34.489 27.959-62.448 62.448-62.448H909.36c34.489 0 62.448 27.959 62.448 62.448 0 34.489-27.959 62.448-62.448 62.448z"/><path fill="#FFF" d="M710.717 106.73c0-7.8 5.939-13.439 13.679-13.439s13.68 5.64 13.68 13.439-5.939 13.439-13.68 13.439c-7.74 0-13.679-5.64-13.679-13.439zm23.698 0c0-5.939-4.56-10.14-10.02-10.14s-10.02 4.2-10.02 10.14 4.56 10.14 10.02 10.14 10.02-4.201 10.02-10.14zM753.135 115.969v2.28c0 1.2-.66 1.92-1.8 1.92-1.02 0-1.739-.72-1.739-1.92V81.83c0-1.2.659-1.92 1.8-1.92 1.02 0 1.739.72 1.739 1.92v15.659c1.86-2.819 5.16-4.199 8.58-4.199 7.319 0 12.239 5.58 12.239 13.439s-4.92 13.439-12.239 13.439c-3.42.001-6.78-1.319-8.58-4.199zm17.159-9.239c0-6.06-3.539-10.14-8.759-10.14-5.221 0-8.76 4.08-8.76 10.14s3.539 10.14 8.76 10.14c5.22-.001 8.759-4.081 8.759-10.14zM802.454 95.87v24.059c0 8.399-4.26 12.119-10.919 12.119-1.98 0-4.68-.42-6.18-1.02-.96-.36-1.62-.9-1.62-1.92 0-.84.66-1.56 1.68-1.56.601 0 1.14.239 1.74.42 1.2.359 2.64.779 4.439.779 5.521 0 7.32-3.42 7.32-8.999V97.01c-4.561.06-10.44.24-12 .24-1.319 0-1.979-.66-1.979-1.681 0-.96.66-1.619 1.979-1.619h13.619c1.201 0 1.921.72 1.921 1.92zm-5.579-10.979c0-2.04 1.56-3.3 3.72-3.3s3.72 1.26 3.72 3.3c0 2.039-1.56 3.3-3.72 3.3s-3.72-1.261-3.72-3.3zM819.074 106.789c0-7.979 6-13.499 13.619-13.499 7.38 0 13.2 5.04 13.2 12.359 0 1.14-.54 1.92-1.98 1.92h-21.179c.359 5.399 4.5 9.3 10.499 9.3 3.66 0 6.18-1.141 8.58-2.82.66-.42 1.14-.96 2.04-.96.96 0 1.68.72 1.68 1.62s-.42 1.38-1.38 2.1c-2.22 1.74-6.18 3.36-11.1 3.36-8.099 0-13.979-5.46-13.979-13.38zm3.901-2.399h19.139c-.42-4.68-4.739-7.8-9.42-7.8-4.68 0-8.7 3.12-9.719 7.8zM868.813 116.869c2.88 0 5.76-1.141 8.22-3.24.84-.72 1.38-1.14 2.28-1.14.84 0 1.62.72 1.62 1.56 0 .9-.42 1.44-1.32 2.16-2.7 2.22-6.6 3.96-10.8 3.96-7.739 0-13.679-5.58-13.679-13.439s5.939-13.439 13.679-13.439c4.2 0 8.1 1.74 10.8 3.96.9.72 1.32 1.26 1.32 2.159 0 .841-.78 1.561-1.62 1.561-.9 0-1.44-.42-2.28-1.141-2.46-2.1-5.34-3.239-8.22-3.239-5.159 0-10.02 3.96-10.02 10.14s4.861 10.138 10.02 10.138zM916.272 95.569c0 1.021-.66 1.681-1.98 1.681-1.8 0-9.179-.181-11.819-.24v11.279c0 6.12 1.98 8.58 6.24 8.58 1.62 0 3.3-.42 4.199-.78 1.261-.479 1.801-.78 2.641-.78s1.5.601 1.5 1.5c0 1.08-.66 1.62-2.16 2.28-1.26.54-3.78 1.08-6.18 1.08-6.84 0-9.78-3.54-9.78-11.819V97.01c-1.8.06-5.339.24-7.079.24-1.32 0-1.98-.66-1.98-1.681 0-.96.66-1.619 1.98-1.619h7.079v-9c0-1.2.66-1.92 1.801-1.92 1.02 0 1.739.72 1.739 1.92v9h11.819c1.32 0 1.98.659 1.98 1.619zM312.004 920.484H123.027c-34.489 0-62.448-27.959-62.448-62.448 0-34.489 27.959-62.448 62.448-62.448h188.978c34.489 0 62.448 27.959 62.448 62.448-.001 34.489-27.96 62.448-62.449 62.448z"/><path d="M113.361 859.19c0-7.8 5.939-13.439 13.679-13.439s13.68 5.64 13.68 13.439-5.939 13.439-13.68 13.439c-7.739 0-13.679-5.64-13.679-13.439zm23.699 0c0-5.939-4.56-10.14-10.02-10.14s-10.02 4.2-10.02 10.14 4.56 10.14 10.02 10.14 10.02-4.201 10.02-10.14zM155.779 868.429v2.28c0 1.2-.66 1.92-1.8 1.92-1.02 0-1.739-.72-1.739-1.92V834.29c0-1.2.659-1.92 1.8-1.92 1.02 0 1.739.72 1.739 1.92v15.659c1.86-2.819 5.16-4.199 8.58-4.199 7.319 0 12.239 5.58 12.239 13.439s-4.92 13.439-12.239 13.439c-3.42.001-6.78-1.319-8.58-4.199zm17.159-9.239c0-6.06-3.539-10.14-8.759-10.14-5.221 0-8.76 4.08-8.76 10.14s3.539 10.14 8.76 10.14c5.22-.001 8.759-4.081 8.759-10.14zM205.099 848.33v24.059c0 8.399-4.26 12.119-10.919 12.119-1.98 0-4.68-.42-6.18-1.02-.96-.36-1.62-.9-1.62-1.92 0-.84.66-1.56 1.68-1.56.601 0 1.14.239 1.74.42 1.2.359 2.64.779 4.439.779 5.521 0 7.32-3.42 7.32-8.999V849.47c-4.561.06-10.44.24-12 .24-1.319 0-1.979-.66-1.979-1.681 0-.96.66-1.619 1.979-1.619h13.619c1.201 0 1.921.72 1.921 1.92zm-5.579-10.979c0-2.04 1.56-3.3 3.72-3.3s3.72 1.26 3.72 3.3c0 2.039-1.56 3.3-3.72 3.3s-3.72-1.261-3.72-3.3zM221.719 859.249c0-7.979 6-13.499 13.619-13.499 7.38 0 13.2 5.04 13.2 12.359 0 1.14-.54 1.92-1.98 1.92h-21.179c.359 5.399 4.5 9.3 10.499 9.3 3.66 0 6.18-1.141 8.58-2.82.66-.42 1.14-.96 2.04-.96.96 0 1.68.72 1.68 1.62s-.42 1.38-1.38 2.1c-2.22 1.74-6.18 3.36-11.1 3.36-8.099 0-13.979-5.46-13.979-13.38zm3.9-2.399h19.139c-.42-4.68-4.739-7.8-9.42-7.8-4.68 0-8.699 3.12-9.719 7.8zM271.458 869.329c2.88 0 5.76-1.141 8.22-3.24.84-.72 1.38-1.14 2.28-1.14.84 0 1.62.72 1.62 1.56 0 .9-.42 1.44-1.32 2.16-2.7 2.22-6.6 3.96-10.8 3.96-7.739 0-13.679-5.58-13.679-13.439s5.939-13.439 13.679-13.439c4.2 0 8.1 1.74 10.8 3.96.9.72 1.32 1.26 1.32 2.159 0 .841-.78 1.561-1.62 1.561-.9 0-1.44-.42-2.28-1.141-2.46-2.1-5.34-3.239-8.22-3.239-5.159 0-10.02 3.96-10.02 10.14s4.861 10.138 10.02 10.138zM318.917 848.029c0 1.021-.66 1.681-1.98 1.681-1.8 0-9.179-.181-11.819-.24v11.279c0 6.12 1.98 8.58 6.24 8.58 1.62 0 3.3-.42 4.199-.78 1.261-.479 1.801-.78 2.641-.78s1.5.601 1.5 1.5c0 1.08-.66 1.62-2.16 2.28-1.26.54-3.78 1.08-6.18 1.08-6.84 0-9.78-3.54-9.78-11.819v-11.34c-1.8.06-5.339.24-7.079.24-1.32 0-1.98-.66-1.98-1.681 0-.96.66-1.619 1.98-1.619h7.079v-9c0-1.2.66-1.92 1.801-1.92 1.02 0 1.739.72 1.739 1.92v9h11.819c1.32 0 1.98.659 1.98 1.619z"/></svg>