<svg xmlns="http://www.w3.org/2000/svg" viewBox="0 0 1080 1080" xml:space="preserve"><path fill="#FFF" d="M517.813 251.761h34.862v70.306h-34.862z"/><ellipse transform="rotate(-6.012 282.772 275.604)" cx="282.852" cy="275.654" rx="52.679" ry="28.648"/><ellipse transform="rotate(-31.897 360.205 248.96)" cx="360.226" cy="248.969" rx="52.679" ry="28.648"/><ellipse transform="rotate(-73.448 212.479 273.965)" cx="212.481" cy="273.975" rx="16.299" ry="29.971"/><ellipse transform="rotate(-85.273 799.407 275.39)" cx="799.402" cy="275.393" rx="28.648" ry="52.679"/><ellipse transform="rotate(-59.388 721.463 250.46)" cx="721.45" cy="250.446" rx="28.648" ry="52.679"/><ellipse transform="rotate(-17.83 869.868 272.157)" cx="869.717" cy="272.139" rx="29.971" ry="16.299"/><path fill="#FFF" d="M580.446 303.27c-16.499 0-31.012 8.474-39.446 21.301-8.434-12.827-22.947-21.301-39.446-21.301-26.06 0-47.186 21.126-47.186 47.186s21.126 47.186 47.186 47.186c16.499 0 31.012-8.474 39.446-21.301 8.434 12.827 22.947 21.301 39.446 21.301 26.06 0 47.186-21.126 47.186-47.186s-21.126-47.186-47.186-47.186z"/><path fill="#FFD829" d="M480.145 303.868V180.166h121.758v125.719h-.051c-.046 33.583-27.282 60.794-60.877 60.794-33.622 0-60.879-27.257-60.879-60.879 0-.648.029-1.289.049-1.932z"/><path fill="#FFD829" d="M699.928 117.335a55.447 55.447 0 0 0-6.24.31c-.211-.752-.434-1.499-.656-2.246l.011-.194C674.227 52.104 617.232 5.582 549.037 2.2l-.273-.012c-.978-.047-1.958-.087-2.941-.116-.3-.009-.601-.014-.901-.021-.771-.018-1.543-.035-2.317-.043-.124-.001-.247-.006-.371-.007-.412-.003-.823.003-1.234.003-.412 0-.822-.006-1.234-.003-.124.001-.247.006-.371.007-.774.007-1.545.024-2.317.043-.3.007-.602.012-.901.021-.983.029-1.963.069-2.941.116l-.273.012c-68.194 3.382-125.189 49.905-144.006 113.005l.011.194c-.222.747-.445 1.494-.656 2.246a55.47 55.47 0 0 0-6.24-.31c-30.417.24-54.876 25.097-54.633 55.513.243 30.418 25.099 54.875 55.514 54.631a55.239 55.239 0 0 0 13.358-1.751c23.046 51.098 72.377 87.861 130.898 92.894l.081.007c.842.072 1.687.135 2.533.194.168.012.336.026.505.037.724.048 1.451.087 2.178.126.289.015.577.034.866.048.629.03 1.26.051 1.891.074.386.014.771.031 1.157.042.557.016 1.117.024 1.675.034.459.008.917.02 1.377.024l.224.004c.436.003.869-.002 1.304-.002s.869.005 1.304.002l.224-.004c.46-.004.918-.016 1.377-.024.559-.01 1.118-.018 1.675-.034.386-.011.771-.028 1.157-.042.631-.022 1.262-.044 1.891-.074.289-.014.578-.032.867-.048.727-.038 1.453-.078 2.177-.126.169-.011.336-.025.505-.037.846-.059 1.691-.122 2.533-.194l.081-.007c58.521-5.033 107.853-41.795 130.898-92.894a55.134 55.134 0 0 0 13.358 1.751c30.415.243 55.271-24.213 55.514-54.631.243-30.416-24.216-55.272-54.633-55.513z"/><path d="m539.682 321.211-.231-.004c-.351-.004-.701-.011-1.051-.018l-.674-.013c-.455-.008-.909-.016-1.361-.028l-1.365-.049c-.575-.021-1.151-.041-1.724-.068l-.872-.048c-.74-.039-1.476-.079-2.208-.127l-.512-.038c-.855-.06-1.71-.123-2.562-.195-57.367-4.936-107.741-40.343-131.943-92.562a57.318 57.318 0 0 1-12.672 1.421c-31.261.001-56.816-25.302-57.067-56.617-.121-15.245 5.701-29.626 16.395-40.491 10.693-10.867 24.979-16.918 40.224-17.038a56.073 56.073 0 0 1 4.794.17l.101-.339-.012-.194.101-.339C406.447 49.552 465.049 3.566 532.864.203l.201-.01c1.065-.05 2.058-.091 3.052-.12l.915-.021c.779-.02 1.562-.037 2.346-.044l.372-.007c.262-.002.522 0 .784.001l.466.002.468-.002c.262-.002.525-.004.785-.001l.368.007c.786.007 1.567.024 2.349.044l.912.021c.995.029 1.988.07 2.978.117l.285.013c67.807 3.363 126.408 49.35 145.815 114.431l.1.334-.012.196.102.342a55.638 55.638 0 0 1 4.794-.17c15.245.12 29.53 6.171 40.225 17.038 10.692 10.865 16.515 25.246 16.394 40.491-.122 15.245-6.174 29.53-17.04 40.224-10.754 10.582-24.952 16.393-40.021 16.394l-.469-.002a57.32 57.32 0 0 1-12.209-1.419c-24.202 52.22-74.575 87.627-131.859 92.554-.937.081-1.791.145-2.646.204l-.517.038c-.727.048-1.462.088-2.197.127l-.879.048c-.573.027-1.15.048-1.727.068l-1.355.049c-.458.013-.912.021-1.366.028l-.675.013c-.35.007-.7.014-1.051.018l-.219.004-1.333-.003-1.318.001zM541 317.21l1.291.002 1.917-.034c.439-.007.879-.015 1.317-.026l1.33-.049c.56-.02 1.119-.039 1.678-.066l.86-.046c.714-.039 1.432-.077 2.147-.125l.498-.036c.836-.058 1.671-.121 2.503-.191l.102-.009c56.369-4.849 105.894-39.995 129.223-91.722l.692-1.535 1.631.421a53.333 53.333 0 0 0 12.874 1.688l.436.002c14.015 0 27.216-5.404 37.217-15.245 10.105-9.943 15.732-23.227 15.846-37.403.113-14.178-5.301-27.55-15.245-37.654-9.943-10.105-23.228-15.731-37.404-15.844h-.002a55.825 55.825 0 0 0-6.015.3l-1.678.175-.456-1.624c-.189-.677-.389-1.349-.589-2.021l-.156-.53.01-.19C672.002 52.163 614.945 7.471 548.938 4.197l-.271-.011c-.966-.047-1.934-.086-2.904-.115l-.888-.021c-.764-.018-1.525-.035-2.288-.042l-.369-.007c-.244-.001-.484 0-.726.001l-.492.002-.492-.002c-.241-.002-.482-.004-.724-.001l-.373.007c-.762.007-1.523.024-2.285.042l-.891.021c-.97.029-1.937.068-2.903.115l-.262.011c-66.016 3.274-123.071 47.961-142.096 111.241l.012.193-.101.338c-.229.771-.444 1.491-.647 2.217l-.456 1.624-1.678-.175a56.344 56.344 0 0 0-6.015-.3c-14.178.112-27.462 5.738-37.406 15.844-9.943 10.104-15.358 23.477-15.245 37.654.233 29.118 24 52.648 53.067 52.648l.432-.002a53.282 53.282 0 0 0 12.873-1.688l1.631-.421.692 1.535c23.329 51.727 72.854 86.873 129.246 91.724l.116.011c.794.066 1.629.13 2.465.188l.493.036c.722.048 1.439.086 2.158.125l.854.046a116.6 116.6 0 0 0 1.675.066l1.34.049c.434.012.873.02 1.312.026l2.698.034h.51z"/><path d="M388.561 196.51a1.993 1.993 0 0 1-1.461-.635l-34.069-36.449a2 2 0 1 1 2.922-2.73l34.069 36.449a1.997 1.997 0 0 1-1.461 3.365zM687.443 196.782a2 2 0 0 1-1.482-3.342l33.482-36.993a2 2 0 1 1 2.965 2.683l-33.482 36.993a1.99 1.99 0 0 1-1.483.659zM501.626 181.093c.091 11.558-9.207 21.001-20.76 21.094-11.557.093-21.001-9.2-21.093-20.76-.095-11.558 9.201-21 20.76-21.093 11.55-.093 21 9.202 21.093 20.759z"/><path d="M438.83 186.267a2 2 0 0 1-1.656-3.118c9.728-14.417 25.897-23.107 43.257-23.246l.425-.002a52.68 52.68 0 0 1 43.2 22.552 1.998 1.998 0 0 1-.495 2.784 1.998 1.998 0 0 1-2.784-.495 48.661 48.661 0 0 0-40.314-20.839c-16.04.128-30.982 8.159-39.972 21.482a1.999 1.999 0 0 1-1.661.882zM622.377 179.998c.092 11.56-9.206 21.002-20.764 21.095-11.557.093-21.001-9.2-21.093-20.76-.093-11.557 9.201-21 20.758-21.094 11.558-.091 21.005 9.2 21.099 20.759z"/><path d="M559.577 185.172a2 2 0 0 1-1.655-3.119c9.732-14.417 25.904-23.106 43.261-23.245 17.386-.11 33.669 8.292 43.625 22.551.633.905.411 2.152-.495 2.784s-2.152.412-2.784-.495c-9.127-13.07-24.029-20.842-39.927-20.842l-.388.002c-16.037.128-30.981 8.159-39.978 21.483a1.994 1.994 0 0 1-1.659.881zM541.037 213.163a2 2 0 0 1-2-1.996l-.074-39.749a2 2 0 0 1 1.996-2.004h.004a2 2 0 0 1 2 1.996l.074 39.749a2 2 0 0 1-1.996 2.004h-.004zM575.495 233.714h-68.99a2 2 0 0 1 0-4h68.99a2 2 0 0 1 0 4zM699.928 117.335a55.447 55.447 0 0 0-6.24.31c-.211-.752-.434-1.499-.656-2.246l.011-.194C674.227 52.104 617.232 5.582 549.037 2.2l-.273-.012c-.978-.047-1.958-.087-2.941-.116-.203-.006-.407-.01-.611-.014l-.291-.007c-.771-.018-1.543-.035-2.317-.043-.124-.001-.247-.006-.371-.007-.412-.003-.823.003-1.234.003-.412 0-.822-.006-1.234-.003-.124.001-.247.006-.371.007-.774.007-1.545.024-2.317.043l-.291.007c-.204.004-.408.008-.611.014-.983.029-1.963.069-2.941.116l-.273.012c-68.194 3.382-125.189 49.905-144.006 113.005l.011.194c-.222.747-.445 1.494-.656 2.246a55.47 55.47 0 0 0-6.24-.31c-.978.008-1.95.042-2.915.1 12.162 3.847 25.109 5.927 38.543 5.927 59.023 0 108.683-40.057 123.3-94.466 14.617 54.409 64.276 94.466 123.3 94.466 13.434 0 26.381-2.081 38.544-5.928a57.317 57.317 0 0 0-2.914-.099z"/><path fill="#FFF" d="M890.277 1033.485H757.591c-25.279 0-45.846-20.566-45.846-45.847s20.566-45.847 45.846-45.847h132.687c25.28 0 45.847 20.566 45.847 45.847s-20.568 45.847-45.848 45.847zm-132.686-87.693c-23.074 0-41.846 18.772-41.846 41.847s18.771 41.847 41.846 41.847h132.687c23.074 0 41.847-18.772 41.847-41.847s-18.772-41.847-41.847-41.847H757.591z"/><g fill="#FFF"><path d="M752.653 990.221c0-5.477 4.171-9.437 9.605-9.437s9.605 3.96 9.605 9.437-4.171 9.438-9.605 9.438-9.605-3.962-9.605-9.438zm16.642 0c0-4.171-3.202-7.12-7.036-7.12s-7.035 2.949-7.035 7.12 3.201 7.12 7.035 7.12 7.036-2.949 7.036-7.12zM782.437 996.709v1.601c0 .843-.463 1.349-1.264 1.349-.716 0-1.222-.506-1.222-1.349v-25.572c0-.843.463-1.349 1.264-1.349.716 0 1.222.506 1.222 1.349v10.995c1.307-1.979 3.623-2.948 6.024-2.948 5.14 0 8.595 3.918 8.595 9.437s-3.455 9.438-8.595 9.438c-2.401-.002-4.76-.93-6.024-2.951zm12.049-6.488c0-4.255-2.485-7.12-6.15-7.12s-6.151 2.865-6.151 7.12 2.486 7.12 6.151 7.12 6.15-2.865 6.15-7.12zM817.066 982.596v16.894c0 5.898-2.991 8.51-7.667 8.51-1.391 0-3.286-.295-4.34-.716-.674-.253-1.137-.632-1.137-1.348 0-.59.463-1.096 1.179-1.096.422 0 .801.168 1.223.295.842.253 1.854.548 3.117.548 3.876 0 5.14-2.401 5.14-6.319v-15.968c-3.202.042-7.33.169-8.426.169-.927 0-1.391-.464-1.391-1.18 0-.674.464-1.138 1.391-1.138h9.563c.843 0 1.348.506 1.348 1.349zm-3.918-7.71c0-1.433 1.096-2.317 2.612-2.317s2.612.885 2.612 2.317-1.096 2.317-2.612 2.317-2.612-.885-2.612-2.317zM828.735 990.263c0-5.604 4.213-9.479 9.563-9.479 5.182 0 9.269 3.538 9.269 8.679 0 .8-.379 1.348-1.391 1.348h-14.871c.252 3.792 3.159 6.53 7.372 6.53 2.57 0 4.34-.801 6.024-1.98.464-.295.801-.674 1.433-.674.674 0 1.18.506 1.18 1.138s-.295.969-.969 1.475c-1.559 1.222-4.34 2.359-7.794 2.359-5.687-.001-9.816-3.835-9.816-9.396zm2.739-1.685h13.439c-.295-3.286-3.328-5.478-6.614-5.478s-6.109 2.192-6.825 5.478zM863.658 997.341c2.022 0 4.045-.801 5.771-2.275.59-.505.97-.8 1.602-.8.59 0 1.138.505 1.138 1.095 0 .632-.295 1.012-.928 1.517-1.896 1.559-4.634 2.781-7.583 2.781-5.435 0-9.605-3.919-9.605-9.438s4.171-9.437 9.605-9.437c2.949 0 5.688 1.222 7.583 2.78.633.506.928.885.928 1.517 0 .59-.548 1.096-1.138 1.096-.632 0-1.012-.295-1.602-.801-1.727-1.475-3.749-2.275-5.771-2.275-3.623 0-7.035 2.781-7.035 7.12 0 4.34 3.412 7.12 7.035 7.12zM896.981 982.385c0 .716-.464 1.18-1.391 1.18-1.264 0-6.445-.127-8.299-.169v7.921c0 4.297 1.39 6.024 4.381 6.024 1.138 0 2.317-.295 2.949-.548.885-.337 1.264-.548 1.854-.548s1.054.422 1.054 1.054c0 .758-.464 1.137-1.517 1.601-.885.379-2.654.759-4.34.759-4.803 0-6.867-2.486-6.867-8.3v-7.963c-1.264.042-3.749.169-4.971.169-.927 0-1.391-.464-1.391-1.18 0-.674.464-1.138 1.391-1.138h4.971v-6.319c0-.843.464-1.348 1.265-1.348.716 0 1.222.505 1.222 1.348v6.319h8.299c.926 0 1.39.464 1.39 1.138z"/></g><path fill="#FFD829" d="m975.977 165.2.002.002 32.024-91.937c1.971-5.66-1.018-11.846-6.678-13.817l-78.231-27.25c-5.659-1.971-11.846 1.018-13.817 6.678l-16.976 48.736c-5.774-1.333-10.956-1.058-16.565.034-1.527.237-2.563.504-3.767.672l-73.733 10.16c-9.758 1.358-16.567 10.368-15.211 20.125 1.357 9.758 10.369 16.568 20.126 15.211l39.435-5.881c.451-.067.923-.005 1.315.229a1.904 1.904 0 0 1 .709 2.552l-41.632 76.525c-4.742 8.637-1.585 19.481 7.051 24.223 8.634 4.741 19.481 1.584 24.223-7.052l30.38-56.008-8.852 63.719c-1.406 9.752 5.36 18.796 15.111 20.203 9.749 1.406 18.796-5.36 20.202-15.112l4.83-34.758a17.753 17.753 0 0 0 7.455 5.133c9.265 3.343 19.491-1.459 22.835-10.726l.56-.224c-3.344 9.268 1.458 19.491 10.725 22.835 9.265 3.343 19.491-1.459 22.835-10.726l13.827-38.318c.163-.453.302-.909.427-1.366l1.392-3.86-.002-.002zm-178.785-37.594c-6.48-2.257-9.904-9.34-7.646-15.821 2.257-6.48 9.34-9.904 15.821-7.646s9.904 9.34 7.646 15.821c-2.258 6.48-9.341 9.903-15.821 7.646zm18.198 98.844c-6.48-2.257-9.904-9.34-7.646-15.821 2.257-6.48 9.34-9.904 15.821-7.646 6.48 2.257 9.904 9.34 7.646 15.821-2.258 6.48-9.341 9.903-15.821 7.646zm69.975 11.218c-2.257 6.48-9.34 9.904-15.821 7.646-6.48-2.257-9.904-9.34-7.646-15.821 2.257-6.48 9.34-9.904 15.821-7.646 6.48 2.257 9.903 9.34 7.646 15.821zM879.073 758.029H771.226l1-93.801h107.847z"/><path fill="#FFD829" d="M981.863 478.865a55.447 55.447 0 0 0-6.24.31c-.211-.752-.434-1.499-.656-2.246l.011-.194c-18.817-63.101-75.811-109.623-144.006-113.005l-.273-.012c-.978-.047-1.958-.087-2.941-.116-.3-.009-.601-.014-.901-.021-.771-.018-1.543-.035-2.317-.043-.124-.001-.247-.006-.371-.007-.412-.003-.823.003-1.234.003-.412 0-.822-.006-1.234-.003-.124.001-.247.006-.371.007-.774.007-1.545.024-2.317.043-.3.007-.601.012-.901.021-.983.029-1.963.069-2.941.116l-.273.012c-68.194 3.382-125.189 49.905-144.006 113.005l.011.194c-.222.747-.445 1.494-.656 2.246a55.47 55.47 0 0 0-6.24-.31c-30.417.24-54.876 25.097-54.633 55.513.243 30.418 25.099 54.875 55.514 54.631a55.239 55.239 0 0 0 13.358-1.751c23.046 51.098 72.377 87.861 130.898 92.894l.081.007c.842.072 1.687.135 2.533.194.168.012.336.026.505.037.724.048 1.451.087 2.178.126.289.015.577.034.866.048.629.03 1.26.051 1.891.074.386.014.771.031 1.157.042.557.016 1.117.024 1.675.034.459.008.917.02 1.377.024l.224.004c.436.003.869-.002 1.304-.002.435 0 .869.005 1.304.002l.224-.004c.46-.004.918-.016 1.377-.024.559-.01 1.118-.018 1.675-.034.386-.011.771-.028 1.157-.042.631-.022 1.262-.044 1.891-.074.289-.014.578-.032.866-.048.727-.038 1.453-.078 2.178-.126.169-.011.336-.025.505-.037.846-.059 1.691-.122 2.533-.194l.081-.007c58.521-5.033 107.853-41.795 130.898-92.894a55.134 55.134 0 0 0 13.358 1.751c30.415.243 55.271-24.213 55.514-54.631.242-30.416-24.216-55.273-54.633-55.513z"/><path d="m823.912 682.741-.499-.001-.479-.002-.479.002c-.281.002-.565.002-.844 0l-.163-.003a82.62 82.62 0 0 1-1.001-.017l-.912-.017c-.413-.007-.826-.015-1.238-.026l-1.374-.05c-.571-.02-1.142-.04-1.711-.066l-.882-.049c-.732-.038-1.469-.078-2.201-.126l-.512-.038c-.857-.061-1.713-.124-2.564-.196l-.131-.014c-57.236-4.922-107.608-40.329-131.811-92.548a57.424 57.424 0 0 1-12.671 1.421c-31.262.001-56.817-25.302-57.068-56.618-.121-15.245 5.701-29.625 16.394-40.491 10.694-10.867 24.979-16.918 40.225-17.038a59.282 59.282 0 0 1 4.794.17l.101-.342-.011-.195.1-.334c19.407-65.082 78.01-111.068 145.824-114.432l.266-.012c1.001-.048 1.994-.089 2.989-.117l.907-.021c.784-.02 1.565-.036 2.349-.044l.375-.007 1.245.003 1.254-.003.371.007c.788.008 1.569.024 2.35.044l.919.021c.987.028 1.979.069 2.971.116l.285.014c67.806 3.362 126.408 49.349 145.815 114.431l.1.334-.011.195.101.342a59.442 59.442 0 0 1 4.796-.17c15.244.121 29.529 6.172 40.223 17.038 10.692 10.866 16.515 25.246 16.394 40.491-.251 31.314-25.809 56.616-57.067 56.618l-.463-.002a57.426 57.426 0 0 1-12.209-1.419c-24.202 52.219-74.575 87.626-131.859 92.553l-.104.01c-.829.071-1.685.135-2.54.195l-.507.037c-.739.049-1.476.089-2.212.127l-.876.049c-.571.026-1.142.047-1.713.066l-1.375.05c-.411.012-.824.02-1.238.026l-.911.017a73.51 73.51 0 0 1-.941.016l-.24.004-.331.001zm-.978-4.003.499.002c.262.002.524.002.788 0l.215-.004c.309-.003.606-.009.905-.015l.919-.017c.4-.008.8-.015 1.198-.025l1.345-.049c.557-.02 1.112-.039 1.667-.065l.851-.047c.721-.038 1.439-.076 2.154-.124l.498-.036c.834-.059 1.668-.12 2.501-.191 56.473-4.858 105.997-40.005 129.326-91.731l.692-1.535 1.631.421a53.32 53.32 0 0 0 13.306 1.69c29.068.001 52.833-23.528 53.066-52.649.113-14.178-5.301-27.55-15.245-37.654-9.944-10.105-23.228-15.731-37.404-15.844h-.002a53.708 53.708 0 0 0-6.016.3l-1.678.175-.455-1.624c-.193-.69-.397-1.376-.601-2.062l-.145-.487.01-.191C953.936 413.691 896.879 369 830.873 365.727l-.282-.013c-.954-.046-1.921-.085-2.891-.113l-.896-.021c-.759-.018-1.521-.034-2.286-.042l-.365-.007-1.224.003-1.215-.003-.369.007c-.761.008-1.522.024-2.285.042l-.884.021c-.978.028-1.945.067-2.91.114l-.262.012C748.99 369 691.932 413.691 672.908 476.974l.01.191-.145.487c-.203.687-.407 1.372-.601 2.062l-.455 1.624-1.678-.175a54.49 54.49 0 0 0-6.016-.3c-14.179.112-27.462 5.738-37.406 15.844-9.944 10.104-15.358 23.477-15.245 37.654.233 29.119 24 52.649 53.067 52.649l.432-.002a53.319 53.319 0 0 0 12.873-1.688l1.631-.421.692 1.535c23.329 51.727 72.854 86.873 129.246 91.724.913.079 1.747.141 2.583.199l.503.037c.708.047 1.425.085 2.144.123l.856.047c.553.026 1.108.046 1.665.065l1.344.049c.398.011.799.018 1.198.025l.92.017c.299.006.597.012.896.015l.225.004c.265.002.526.001.788 0l.499-.001z"/><path fill="#FFD829" d="m636.427 519.59 34.069 36.449"/><path d="M670.496 558.039a1.993 1.993 0 0 1-1.461-.635l-34.069-36.449a1.997 1.997 0 0 1 .096-2.826 1.997 1.997 0 0 1 2.826.096l34.069 36.449a1.997 1.997 0 0 1-1.461 3.365z"/><path fill="#FFD829" d="m1002.861 519.318-33.482 36.993"/><path d="M969.378 558.312a2 2 0 0 1-1.482-3.342l33.482-36.993a2 2 0 1 1 2.965 2.683l-33.482 36.993a1.99 1.99 0 0 1-1.483.659z"/><path fill="#FFD829" d="m821.885 516.053.245 48.452"/><path d="M822.13 566.506a2 2 0 0 1-2-1.99l-.245-48.453a2 2 0 0 1 1.99-2.01h.01a2 2 0 0 1 2 1.99l.245 48.453a2 2 0 0 1-1.99 2.01h-.01z"/><path d="M976.355 478.392c-19.207-66.349-80.404-114.863-152.938-114.863-72.538 0-133.739 48.514-152.946 114.863-1.112-.126-2.237 119.675-3.369 119.613.025.543.05 127.109.074 141.89a16.628 16.628 0 0 0 4.554 11.405l1.412 1.493c3.456 3.655 8.129 5.369 12.734 5.195l92.326.04.474-83.698-30.211-10.76s-15.663-8.979-34.344-24.58c-7.036-5.876-12.255-14.64-11.494-27.982l.4-148.829c.008-3.059.831-6.055 2.446-8.652 8.166-13.128 38.434-49.916 113.998-33.029 2.589.579 5.286.545 7.863-.082 68.118-16.59 102.383 19.591 112.36 32.886a16.606 16.606 0 0 1 3.306 9.477l.673 22.609.226 124.389c0 14.022-8.433 26.429-15.494 32.295-10.737 8.919-19.528 14.799-25.038 18.175-.938.575-1.78 1.077-2.521 1.509-2.439 1.422-28.794 11.238-28.794 11.238l.383 84.802 89.203-.038h-.002c4.787.002 9.569-2.04 12.897-6.104h.452c2.53-3.089 3.875-7.535 3.777-11.527-.757-30.915-1.713-261.813-2.407-261.735z"/><path d="M774.561 540.664c.091 11.557-9.207 21.001-20.76 21.094-11.557.093-21.001-9.2-21.093-20.76l41.853-.334zM911.14 539.569c.092 11.56-9.206 21.002-20.764 21.095-11.557.093-21.001-9.2-21.093-20.76l41.857-.335z"/><path d="M795.35 541.485h-83.584a2 2 0 0 1 0-4h83.584a2 2 0 0 1 0 4zM932.003 541.485H848.42a2 2 0 0 1 0-4h83.583a2 2 0 0 1 0 4zM824.94 591.759l-.307.294a3.69 3.69 0 0 1-5.183-.074c-4.212-4.274-11.077-4.372-15.409-.22l-1.724 1.652a3.706 3.706 0 0 0-1.132 2.987c.926 10.687 9.894 19.073 20.821 19.073 10.948 0 19.929-8.417 20.826-19.133a3.715 3.715 0 0 0-1.057-2.913l-1.425-1.446c-4.213-4.274-11.077-4.372-15.41-.22zM254.631 149.291H121.944c-25.28 0-45.847-20.566-45.847-45.847s20.566-45.847 45.847-45.847h132.687c25.28 0 45.847 20.566 45.847 45.847s-20.567 45.847-45.847 45.847zM121.944 61.598c-23.074 0-41.847 18.772-41.847 41.847s18.772 41.847 41.847 41.847h132.687c23.074 0 41.847-18.772 41.847-41.847s-18.772-41.847-41.847-41.847H121.944z"/><path d="M115.158 104.253c0-5.477 4.17-9.438 9.605-9.438 5.434 0 9.605 3.961 9.605 9.438s-4.172 9.437-9.605 9.437c-5.435-.001-9.605-3.961-9.605-9.437zm16.641 0c0-4.172-3.201-7.12-7.035-7.12s-7.035 2.948-7.035 7.12c0 4.17 3.201 7.119 7.035 7.119s7.035-2.949 7.035-7.119zM144.941 110.74v1.601c0 .844-.463 1.349-1.264 1.349-.715 0-1.221-.505-1.221-1.349V86.769c0-.842.463-1.348 1.264-1.348.715 0 1.221.506 1.221 1.348v10.996c1.307-1.98 3.623-2.949 6.025-2.949 5.139 0 8.594 3.918 8.594 9.438 0 5.519-3.455 9.437-8.594 9.437-2.402-.002-4.761-.928-6.025-2.951zm12.049-6.487c0-4.256-2.484-7.12-6.15-7.12-3.664 0-6.15 2.864-6.15 7.12 0 4.254 2.486 7.119 6.15 7.119 3.666 0 6.15-2.865 6.15-7.119zM179.57 96.627v16.894c0 5.898-2.99 8.511-7.666 8.511-1.391 0-3.287-.295-4.34-.716-.674-.254-1.137-.633-1.137-1.349 0-.59.463-1.095 1.178-1.095.422 0 .801.168 1.223.295.842.252 1.854.547 3.117.547 3.877 0 5.141-2.401 5.141-6.319V97.428c-3.203.042-7.33.169-8.426.169-.928 0-1.391-.464-1.391-1.18 0-.675.463-1.139 1.391-1.139h9.562c.844 0 1.348.506 1.348 1.349zm-3.918-7.71c0-1.432 1.096-2.316 2.613-2.316 1.516 0 2.611.885 2.611 2.316 0 1.433-1.096 2.317-2.611 2.317-1.517 0-2.613-.884-2.613-2.317zM191.24 104.294c0-5.603 4.213-9.479 9.562-9.479 5.182 0 9.27 3.539 9.27 8.679 0 .8-.379 1.349-1.391 1.349H193.81c.252 3.791 3.158 6.529 7.371 6.529 2.57 0 4.34-.801 6.025-1.98.463-.295.801-.674 1.432-.674.674 0 1.18.506 1.18 1.139 0 .631-.295.969-.969 1.474-1.559 1.222-4.34 2.359-7.793 2.359-5.687-.001-9.816-3.834-9.816-9.396zm2.738-1.685h13.439c-.295-3.286-3.328-5.477-6.615-5.477-3.285.001-6.109 2.191-6.824 5.477zM226.162 111.372c2.023 0 4.045-.801 5.771-2.275.59-.505.971-.8 1.602-.8.59 0 1.139.505 1.139 1.095 0 .633-.295 1.012-.928 1.518-1.896 1.559-4.635 2.78-7.584 2.78-5.434 0-9.605-3.918-9.605-9.437 0-5.52 4.172-9.438 9.605-9.438 2.949 0 5.688 1.222 7.584 2.781.633.505.928.885.928 1.516 0 .59-.549 1.096-1.139 1.096-.631 0-1.012-.295-1.602-.801-1.727-1.475-3.748-2.274-5.771-2.274-3.623 0-7.035 2.78-7.035 7.12 0 4.339 3.412 7.119 7.035 7.119zM259.486 96.417c0 .716-.465 1.18-1.391 1.18-1.264 0-6.445-.127-8.299-.169v7.92c0 4.298 1.389 6.024 4.381 6.024 1.137 0 2.316-.295 2.949-.547.885-.338 1.264-.549 1.854-.549s1.053.422 1.053 1.054c0 .759-.463 1.138-1.516 1.601-.885.38-2.654.759-4.34.759-4.803 0-6.867-2.485-6.867-8.3v-7.962c-1.264.042-3.75.169-4.971.169-.928 0-1.391-.464-1.391-1.18 0-.675.463-1.139 1.391-1.139h4.971V88.96c0-.844.463-1.349 1.264-1.349.717 0 1.223.505 1.223 1.349v6.318h8.299c.925 0 1.39.464 1.39 1.139z"/><path fill="#FFF" d="M177.533 897.674H44.846C20.631 897.674 1 878.043 1 853.828c0-24.216 19.631-43.846 43.846-43.846h132.687c24.216 0 43.846 19.631 43.846 43.846.001 24.215-19.63 43.846-43.846 43.846z"/><path d="M38.059 854.637c0-5.477 4.171-9.437 9.605-9.437s9.605 3.96 9.605 9.437-4.171 9.438-9.605 9.438-9.605-3.962-9.605-9.438zm16.642 0c0-4.171-3.202-7.12-7.036-7.12s-7.035 2.949-7.035 7.12 3.201 7.12 7.035 7.12 7.036-2.949 7.036-7.12zM67.844 861.125v1.601c0 .843-.463 1.349-1.264 1.349-.716 0-1.222-.506-1.222-1.349v-25.572c0-.843.463-1.349 1.264-1.349.716 0 1.222.506 1.222 1.349v10.995c1.307-1.979 3.623-2.948 6.024-2.948 5.14 0 8.595 3.918 8.595 9.437s-3.455 9.438-8.595 9.438c-2.401-.002-4.761-.93-6.024-2.951zm12.048-6.488c0-4.255-2.485-7.12-6.15-7.12s-6.151 2.865-6.151 7.12 2.486 7.12 6.151 7.12 6.15-2.865 6.15-7.12zM102.473 847.012v16.894c0 5.898-2.991 8.51-7.667 8.51-1.391 0-3.286-.295-4.34-.716-.674-.253-1.137-.632-1.137-1.348 0-.59.463-1.096 1.179-1.096.422 0 .801.168 1.223.295.842.253 1.854.548 3.117.548 3.876 0 5.14-2.401 5.14-6.319v-15.968c-3.202.042-7.33.169-8.426.169-.927 0-1.391-.464-1.391-1.18 0-.674.464-1.138 1.391-1.138h9.563c.843 0 1.348.506 1.348 1.349zm-3.918-7.71c0-1.433 1.096-2.317 2.612-2.317s2.612.885 2.612 2.317-1.096 2.317-2.612 2.317-2.612-.885-2.612-2.317zM114.142 854.679c0-5.604 4.213-9.479 9.563-9.479 5.182 0 9.269 3.538 9.269 8.679 0 .8-.379 1.348-1.391 1.348h-14.871c.252 3.792 3.159 6.53 7.372 6.53 2.57 0 4.34-.801 6.024-1.98.464-.295.801-.674 1.433-.674.674 0 1.18.506 1.18 1.138s-.295.969-.969 1.475c-1.559 1.222-4.34 2.359-7.794 2.359-5.688-.001-9.816-3.835-9.816-9.396zm2.738-1.685h13.439c-.295-3.286-3.328-5.478-6.614-5.478s-6.108 2.192-6.825 5.478zM149.064 861.757c2.022 0 4.045-.801 5.771-2.275.59-.505.97-.8 1.602-.8.59 0 1.138.505 1.138 1.095 0 .632-.295 1.012-.928 1.517-1.896 1.559-4.634 2.781-7.583 2.781-5.435 0-9.605-3.919-9.605-9.438s4.171-9.437 9.605-9.437c2.949 0 5.688 1.222 7.583 2.78.633.506.928.885.928 1.517 0 .59-.548 1.096-1.138 1.096-.632 0-1.012-.295-1.602-.801-1.727-1.475-3.749-2.275-5.771-2.275-3.623 0-7.035 2.781-7.035 7.12 0 4.34 3.412 7.12 7.035 7.12zM182.388 846.801c0 .716-.464 1.18-1.391 1.18-1.264 0-6.445-.127-8.299-.169v7.921c0 4.297 1.39 6.024 4.381 6.024 1.138 0 2.317-.295 2.949-.548.885-.337 1.264-.548 1.854-.548s1.054.422 1.054 1.054c0 .758-.464 1.137-1.517 1.601-.885.379-2.654.759-4.34.759-4.803 0-6.867-2.486-6.867-8.3v-7.963c-1.264.042-3.749.169-4.971.169-.927 0-1.391-.464-1.391-1.18 0-.674.464-1.138 1.391-1.138h4.971v-6.319c0-.843.464-1.348 1.265-1.348.716 0 1.222.505 1.222 1.348v6.319h8.299c.926 0 1.39.464 1.39 1.138z"/><path fill="#FFD829" d="M699.928 876.124a55.447 55.447 0 0 0-6.24.31c-.211-.752-.434-1.499-.656-2.246l.011-.194c-18.817-63.101-75.811-109.623-144.006-113.005l-.273-.012c-.978-.047-1.958-.087-2.941-.116-.3-.009-.601-.014-.901-.021-.771-.018-1.543-.035-2.317-.043-.124-.001-.247-.006-.371-.007-.412-.003-.823.003-1.234.003-.412 0-.822-.006-1.234-.003-.124.001-.247.006-.371.007-.774.007-1.545.024-2.317.043-.3.007-.602.012-.901.021-.983.029-1.963.069-2.941.116l-.273.012c-68.194 3.382-125.189 49.905-144.006 113.005l.011.194c-.222.747-.445 1.494-.656 2.246a55.47 55.47 0 0 0-6.24-.31c-30.417.24-54.876 25.097-54.633 55.513.243 30.418 25.099 54.875 55.514 54.631a55.239 55.239 0 0 0 13.358-1.751c23.046 51.098 72.377 87.861 130.898 92.894l.081.007c.842.072 1.687.135 2.533.194.168.012.336.026.505.037.724.048 1.451.087 2.178.126.289.015.577.034.866.048.629.03 1.26.051 1.891.073.386.014.771.031 1.157.042.557.016 1.117.024 1.675.034.459.008.917.02 1.377.024l.224.004c.436.003.869-.002 1.304-.002.435 0 .869.005 1.304.002l.224-.004c.46-.004.918-.016 1.377-.024.559-.01 1.118-.018 1.675-.034.386-.011.771-.028 1.157-.042.631-.022 1.262-.044 1.891-.073.289-.014.578-.032.867-.048.727-.038 1.453-.078 2.177-.126.169-.011.336-.026.505-.037.846-.059 1.691-.122 2.533-.194l.081-.007c58.521-5.033 107.853-41.795 130.898-92.894a55.134 55.134 0 0 0 13.358 1.751c30.415.243 55.271-24.213 55.514-54.631.243-30.416-24.216-55.273-54.633-55.513z"/><path d="m539.682 1080-.136-.002c-.446-.006-.797-.013-1.146-.02l-.674-.013c-.455-.008-.909-.016-1.361-.028l-1.387-.05c-.567-.021-1.135-.04-1.699-.066l-.875-.049c-.738-.038-1.475-.079-2.208-.127l-.512-.038c-.856-.06-1.712-.123-2.564-.195l-.123-.013c-57.244-4.923-107.616-40.33-131.818-92.549a57.38 57.38 0 0 1-12.208 1.418c-31.467.234-57.279-25.146-57.531-56.615-.121-15.245 5.701-29.626 16.395-40.491 10.693-10.867 24.979-16.918 40.224-17.038a56.6 56.6 0 0 1 4.794.17l.101-.338-.012-.194.101-.339c19.407-65.081 78.009-111.068 145.824-114.432l.286-.013c.98-.047 1.973-.088 2.967-.117l.915-.021c.778-.02 1.56-.036 2.343-.044l.375-.007 1.25.003 1.249-.003.372.007c.787.008 1.568.024 2.349.044l.912.021c.995.029 1.988.07 2.978.117l.264.012c67.827 3.364 126.43 49.352 145.837 114.433l.1.334-.011.195.101.342a57.211 57.211 0 0 1 4.796-.17c15.244.121 29.529 6.172 40.223 17.038 10.692 10.865 16.515 25.246 16.394 40.491-.122 15.245-6.174 29.53-17.04 40.224-10.754 10.582-24.952 16.393-40.021 16.394l-.469-.002a57.383 57.383 0 0 1-12.209-1.418c-24.202 52.219-74.575 87.626-131.859 92.553-.935.081-1.79.145-2.646.204l-.517.038c-.728.048-1.464.089-2.2.127l-.876.049c-.568.026-1.137.047-1.706.066l-1.381.05c-.453.013-.907.021-1.361.028l-.675.013c-.35.007-.7.014-1.051.018l-.219.004-1.331-.002-1.324.001zm1.318-4.002 1.291.002 1.917-.034c.439-.007.879-.015 1.317-.026l1.351-.049c.554-.02 1.107-.039 1.66-.065l.857-.047a152.66 152.66 0 0 0 2.147-.125l.498-.036a158.99 158.99 0 0 0 2.501-.19c56.473-4.858 105.997-40.005 129.326-91.731l.692-1.535 1.631.421a53.333 53.333 0 0 0 12.874 1.688c14.162.09 27.548-5.301 37.652-15.243 10.105-9.943 15.732-23.227 15.846-37.403.113-14.178-5.301-27.55-15.245-37.654-9.943-10.105-23.228-15.731-37.404-15.844h-.002a54.816 54.816 0 0 0-6.015.3l-1.678.175-.456-1.624c-.193-.69-.397-1.376-.601-2.062l-.145-.487.01-.191C672 810.957 614.943 766.264 548.936 762.99l-.26-.011c-.977-.047-1.944-.086-2.915-.115l-.888-.021c-.765-.018-1.526-.034-2.291-.042l-.366-.007-1.216-.001-1.22-.003-.369.007c-.761.008-1.522.024-2.285.042l-.891.021c-.97.029-1.937.068-2.903.115l-.283.012c-65.994 3.273-123.05 47.961-142.074 111.241l.012.193-.101.339c-.22.736-.439 1.474-.647 2.215l-.456 1.624-1.678-.175a55.316 55.316 0 0 0-6.015-.3c-14.178.112-27.462 5.738-37.406 15.844-9.943 10.104-15.358 23.477-15.245 37.654.233 29.118 24 52.648 53.067 52.648l.432-.002a53.282 53.282 0 0 0 12.873-1.688l1.631-.421.692 1.535c23.329 51.727 72.854 86.873 129.246 91.724l.123.012c.789.067 1.623.129 2.458.187l.493.036c.721.048 1.438.087 2.155.125l.856.047c.549.025 1.102.045 1.653.065l1.356.049c.438.012.878.02 1.316.026l2.698.033H541z"/><path fill="#FFF" d="M524.983 991.075v25.705c0 10.075 8.167 18.242 18.242 18.242 10.075 0 18.242-8.167 18.242-18.242v-25.705h-36.484z"/><path fill="#FFD829" d="m354.492 916.85 34.069 36.449"/><path d="M388.561 955.299a1.993 1.993 0 0 1-1.461-.635l-34.069-36.449a2 2 0 1 1 2.922-2.73l34.069 36.449a1.997 1.997 0 0 1-1.461 3.365z"/><path fill="#FFD829" d="m720.927 916.578-33.482 36.992"/><path d="M687.443 955.57a2 2 0 0 1-1.482-3.342l33.482-36.992a2 2 0 1 1 2.965 2.683l-33.482 36.992a1.986 1.986 0 0 1-1.483.659z"/><path fill="#FFD829" d="M578.823 981.595c-10.345 6.027-22.374 9.48-35.21 9.48-13.158 0-25.469-3.628-35.986-9.939"/><path d="M543.612 993.075c-13.067 0-25.867-3.535-37.015-10.225a2 2 0 0 1 2.058-3.43c10.525 6.315 22.613 9.654 34.956 9.654 12.036 0 23.863-3.185 34.204-9.209a2.001 2.001 0 0 1 2.013 3.457c-10.949 6.381-23.473 9.753-36.216 9.753z"/><path fill="#FFD829" d="m624.078 928.623-29.485 12.821 29.485 13.083"/><path d="M624.077 956.528a2 2 0 0 1-.811-.173l-29.485-13.084a2 2 0 0 1 .014-3.662l29.485-12.82a2 2 0 0 1 1.596 3.668l-25.311 11.005 25.324 11.237a2 2 0 0 1-.812 3.829zM543.2 960.568a2 2 0 0 1-2-1.996l-.074-39.749a2 2 0 0 1 1.996-2.004h.004a2 2 0 0 1 2 1.996l.074 39.749a2 2 0 0 1-1.996 2.004h-.004z"/><path fill="#FFD829" d="m459.42 928.623 29.486 12.821-29.486 13.083"/><path d="M459.421 956.528a2 2 0 0 1-.812-3.829l25.325-11.237-25.312-11.005a2 2 0 1 1 1.596-3.668l29.486 12.82a1.998 1.998 0 0 1 .014 3.662l-29.486 13.084a2 2 0 0 1-.811.173zM425.92 860.456c-17.666 0-30.354-2.137-30.508-2.163l.677-3.942c.725.125 72.795 11.984 114.048-22.803C529.289 815.396 539 791.591 539 760.789h4c0 32.041-10.193 56.88-30.297 73.826-12.342 10.404-35.361 23.275-74.935 25.512a211.33 211.33 0 0 1-11.848.329z"/><path d="M435.931 834.601c-14.077 0-24.463-2.191-25.368-2.389l.853-3.908c.463.101 46.65 9.812 77.25-12.498 15.49-11.294 24.499-28.935 26.777-52.432l3.98.387c-2.394 24.691-11.955 43.294-28.419 55.289-17.258 12.575-38.672 15.551-55.073 15.551z"/><path d="M441.752 809.391c-7.23 0-12.245-1.355-12.395-1.398l1.09-3.849c.104.029 10.617 2.913 22.775.053 16.155-3.804 27.511-15.494 33.75-34.747l3.805 1.232c-10.746 33.162-34.408 38.709-49.025 38.709zM656.08 860.456c-3.75 0-7.723-.097-11.849-.329-21.843-1.234-52.574-6.662-74.935-25.512C549.193 817.669 539 792.83 539 760.789h4c0 30.808 9.715 54.617 28.875 70.768 41.281 34.801 113.314 22.918 114.035 22.795l.678 3.941c-.154.026-12.844 2.163-30.508 2.163z"/><path d="M646.069 834.601c-16.402 0-37.813-2.975-55.073-15.551-16.464-11.995-26.025-30.598-28.418-55.289l3.98-.387c2.278 23.497 11.287 41.138 26.777 52.432 30.6 22.311 76.787 12.6 77.249 12.498l.853 3.908c-.905.197-11.294 2.389-25.368 2.389z"/><path d="M640.248 809.391c-14.617 0-38.278-5.544-49.024-38.709l3.805-1.232c6.239 19.253 17.594 30.943 33.749 34.747 12.159 2.862 22.67-.023 22.775-.053l1.09 3.849c-.15.042-5.168 1.398-12.395 1.398z"/><path fill="#FFD829" d="M1034.154 392.767H901.467c-24.216 0-43.846-19.631-43.846-43.846 0-24.216 19.631-43.846 43.846-43.846h132.687c24.216 0 43.846 19.631 43.846 43.846 0 24.216-19.631 43.846-43.846 43.846z"/><path fill="#FFF" d="M1034.153 394.768H901.467c-25.28 0-45.847-20.566-45.847-45.847s20.566-45.847 45.847-45.847h132.687c25.28 0 45.847 20.566 45.847 45.847s-20.567 45.847-45.848 45.847zm-132.686-87.694c-23.074 0-41.847 18.772-41.847 41.847s18.772 41.847 41.847 41.847h132.687c23.074 0 41.847-18.772 41.847-41.847s-18.772-41.847-41.847-41.847H901.467z"/><path d="M894.68 349.729c0-5.477 4.171-9.436 9.605-9.436s9.605 3.959 9.605 9.436-4.171 9.438-9.605 9.438-9.605-3.961-9.605-9.438zm16.641 0c0-4.17-3.202-7.119-7.036-7.119s-7.035 2.949-7.035 7.119c0 4.172 3.201 7.121 7.035 7.121s7.036-2.949 7.036-7.121zM924.464 356.218v1.602c0 .842-.463 1.348-1.264 1.348-.716 0-1.222-.506-1.222-1.348v-25.572c0-.844.463-1.35 1.264-1.35.716 0 1.222.506 1.222 1.35v10.994c1.307-1.979 3.623-2.947 6.024-2.947 5.14 0 8.595 3.918 8.595 9.436 0 5.52-3.455 9.438-8.595 9.438-2.401-.002-4.76-.93-6.024-2.951zm12.049-6.489c0-4.254-2.485-7.119-6.15-7.119s-6.151 2.865-6.151 7.119c0 4.256 2.486 7.121 6.151 7.121s6.15-2.865 6.15-7.121zM959.093 342.104v16.895c0 5.898-2.991 8.51-7.667 8.51-1.391 0-3.286-.295-4.34-.717-.674-.252-1.137-.631-1.137-1.348 0-.59.463-1.096 1.179-1.096.422 0 .801.168 1.223.295.842.254 1.854.549 3.117.549 3.876 0 5.14-2.402 5.14-6.32v-15.967c-3.202.041-7.33.168-8.426.168-.927 0-1.391-.463-1.391-1.18 0-.674.464-1.137 1.391-1.137h9.563c.843.001 1.348.507 1.348 1.348zm-3.918-7.708c0-1.434 1.096-2.318 2.612-2.318s2.612.885 2.612 2.318c0 1.432-1.096 2.316-2.612 2.316s-2.612-.885-2.612-2.316zM970.762 349.772c0-5.604 4.213-9.479 9.563-9.479 5.182 0 9.269 3.537 9.269 8.678 0 .801-.379 1.348-1.391 1.348h-14.871c.252 3.793 3.159 6.531 7.372 6.531 2.57 0 4.34-.801 6.024-1.98.464-.295.801-.674 1.433-.674.674 0 1.18.506 1.18 1.137 0 .633-.295.969-.969 1.475-1.559 1.223-4.34 2.359-7.794 2.359-5.687 0-9.816-3.834-9.816-9.395zm2.738-1.685h13.439c-.295-3.285-3.328-5.477-6.614-5.477s-6.108 2.192-6.825 5.477zM1005.685 356.851c2.022 0 4.045-.801 5.771-2.275.59-.506.97-.801 1.602-.801.59 0 1.138.506 1.138 1.096 0 .631-.295 1.012-.928 1.516-1.896 1.559-4.634 2.781-7.583 2.781-5.435 0-9.605-3.918-9.605-9.438 0-5.518 4.171-9.436 9.605-9.436 2.949 0 5.688 1.221 7.583 2.779.633.506.928.885.928 1.518 0 .59-.548 1.096-1.138 1.096-.632 0-1.012-.295-1.602-.801-1.727-1.475-3.749-2.275-5.771-2.275-3.623 0-7.035 2.781-7.035 7.119-.001 4.339 3.412 7.121 7.035 7.121zM1039.008 341.894c0 .717-.464 1.18-1.391 1.18-1.264 0-6.445-.127-8.299-.168v7.92c0 4.297 1.39 6.025 4.381 6.025 1.138 0 2.317-.295 2.949-.549.885-.336 1.264-.547 1.854-.547s1.054.422 1.054 1.053c0 .758-.464 1.137-1.517 1.602-.885.379-2.654.758-4.34.758-4.803 0-6.867-2.486-6.867-8.299v-7.963c-1.264.041-3.749.168-4.971.168-.927 0-1.391-.463-1.391-1.18 0-.674.464-1.137 1.391-1.137h4.971v-6.32c0-.842.464-1.348 1.265-1.348.716 0 1.222.506 1.222 1.348v6.32h8.299c.926 0 1.39.463 1.39 1.137z"/><path fill="#FFD829" d="M1035.153 899.674H902.467c-25.28 0-45.847-20.566-45.847-45.847 0-25.279 20.566-45.846 45.847-45.846h132.687c25.28 0 45.847 20.566 45.847 45.846-.001 25.28-20.568 45.847-45.848 45.847zm-132.686-87.693c-23.074 0-41.847 18.771-41.847 41.846s18.772 41.847 41.847 41.847h132.687c23.074 0 41.847-18.772 41.847-41.847s-18.772-41.846-41.847-41.846H902.467z"/><g fill="#FFD829"><path d="M895.68 854.637c0-5.477 4.171-9.437 9.605-9.437s9.605 3.96 9.605 9.437-4.171 9.438-9.605 9.438-9.605-3.962-9.605-9.438zm16.641 0c0-4.171-3.202-7.12-7.036-7.12s-7.035 2.949-7.035 7.12 3.201 7.12 7.035 7.12 7.036-2.949 7.036-7.12zM925.464 861.125v1.601c0 .843-.463 1.349-1.264 1.349-.716 0-1.222-.506-1.222-1.349v-25.572c0-.843.463-1.349 1.264-1.349.716 0 1.222.506 1.222 1.349v10.995c1.307-1.979 3.623-2.948 6.024-2.948 5.14 0 8.595 3.918 8.595 9.437s-3.455 9.438-8.595 9.438c-2.401-.002-4.761-.93-6.024-2.951zm12.049-6.488c0-4.255-2.485-7.12-6.15-7.12s-6.151 2.865-6.151 7.12 2.486 7.12 6.151 7.12 6.15-2.865 6.15-7.12zM960.093 847.012v16.894c0 5.898-2.991 8.51-7.667 8.51-1.391 0-3.286-.295-4.34-.716-.674-.253-1.137-.632-1.137-1.348 0-.59.463-1.096 1.179-1.096.422 0 .801.168 1.223.295.842.253 1.854.548 3.117.548 3.876 0 5.14-2.401 5.14-6.319v-15.968c-3.202.042-7.33.169-8.426.169-.927 0-1.391-.464-1.391-1.18 0-.674.464-1.138 1.391-1.138h9.563c.843 0 1.348.506 1.348 1.349zm-3.918-7.71c0-1.433 1.096-2.317 2.612-2.317s2.612.885 2.612 2.317-1.096 2.317-2.612 2.317-2.612-.885-2.612-2.317zM971.762 854.679c0-5.604 4.213-9.479 9.563-9.479 5.182 0 9.269 3.538 9.269 8.679 0 .8-.379 1.348-1.391 1.348h-14.871c.252 3.792 3.159 6.53 7.372 6.53 2.57 0 4.34-.801 6.024-1.98.464-.295.801-.674 1.433-.674.674 0 1.18.506 1.18 1.138s-.295.969-.969 1.475c-1.559 1.222-4.34 2.359-7.794 2.359-5.687-.001-9.816-3.835-9.816-9.396zm2.738-1.685h13.439c-.295-3.286-3.328-5.478-6.614-5.478s-6.108 2.192-6.825 5.478zM1006.684 861.757c2.022 0 4.045-.801 5.771-2.275.59-.505.97-.8 1.602-.8.59 0 1.138.505 1.138 1.095 0 .632-.295 1.012-.928 1.517-1.896 1.559-4.634 2.781-7.583 2.781-5.435 0-9.605-3.919-9.605-9.438s4.171-9.437 9.605-9.437c2.949 0 5.688 1.222 7.583 2.78.633.506.928.885.928 1.517 0 .59-.548 1.096-1.138 1.096-.632 0-1.012-.295-1.602-.801-1.727-1.475-3.749-2.275-5.771-2.275-3.623 0-7.035 2.781-7.035 7.12 0 4.34 3.412 7.12 7.035 7.12zM1040.008 846.801c0 .716-.464 1.18-1.391 1.18-1.264 0-6.445-.127-8.299-.169v7.921c0 4.297 1.39 6.024 4.381 6.024 1.138 0 2.317-.295 2.949-.548.885-.337 1.264-.548 1.854-.548s1.054.422 1.054 1.054c0 .758-.464 1.137-1.517 1.601-.885.379-2.654.759-4.34.759-4.803 0-6.867-2.486-6.867-8.3v-7.963c-1.264.042-3.749.169-4.971.169-.927 0-1.391-.464-1.391-1.18 0-.674.464-1.138 1.391-1.138h4.971v-6.319c0-.843.464-1.348 1.265-1.348.716 0 1.222.505 1.222 1.348v6.319h8.299c.926 0 1.39.464 1.39 1.138z"/></g><circle fill="#FFF" cx="541" cy="420.262" r="20.208"/><path d="m221.605 758.025 27.616-27.616 27.617 27.616-27.617 27.617z"/><path fill="#FFD829" d="M191.212 686.275V582.09H307.29v119.854l-.049-13.746c0 13.746-26.01 42.214-58.037 42.214-32.054 0-58.039-28.549-58.039-28.549 0-.617.028-14.975.047-15.588z"/><path fill="#FFD829" d="M408.156 478.843a55.447 55.447 0 0 0-6.24.31c-.211-.752-.434-1.499-.656-2.246l.011-.194c-18.817-63.101-75.811-109.623-144.006-113.005l-.273-.012c-.978-.047-1.958-.087-2.941-.116-.3-.009-.601-.014-.901-.021-.771-.018-1.543-.035-2.317-.043-.124-.001-.247-.006-.371-.007-.412-.003-.823.003-1.234.003-.412 0-.822-.006-1.234-.003-.124.001-.247.006-.371.007-.774.007-1.545.024-2.317.043-.3.007-.601.012-.901.021-.983.029-1.963.069-2.941.116l-.273.012c-68.194 3.382-125.189 49.905-144.006 113.005l.011.194c-.222.747-.445 1.494-.656 2.246a55.47 55.47 0 0 0-6.24-.31c-30.417.24-54.876 25.097-54.633 55.513.243 30.418 25.099 54.875 55.514 54.631a55.239 55.239 0 0 0 13.358-1.751c23.046 51.098 72.377 87.861 130.898 92.894l.081.008c.842.072 1.687.135 2.533.194.168.012.336.026.504.037.724.048 1.451.087 2.178.126.289.015.577.034.866.048.629.03 1.26.051 1.891.074.386.014.771.031 1.157.042.557.016 1.117.024 1.675.034.459.008.917.02 1.377.024l.224.004c.436.003.869-.002 1.304-.002.435 0 .869.005 1.304.002l.224-.004c.46-.004.918-.016 1.377-.024.559-.01 1.118-.018 1.675-.034.386-.011.771-.028 1.157-.042.631-.022 1.262-.044 1.891-.074.289-.014.578-.032.866-.048.727-.038 1.453-.078 2.178-.126.169-.011.336-.025.505-.037.846-.059 1.691-.122 2.533-.194l.081-.008c58.521-5.033 107.853-41.795 130.898-92.894a55.134 55.134 0 0 0 13.358 1.751c30.415.243 55.271-24.213 55.514-54.631.244-30.416-24.215-55.272-54.632-55.513z"/><path d="m247.91 682.72-1.926-.034c-.466-.008-.932-.016-1.396-.029l-1.357-.048c-.576-.021-1.152-.041-1.728-.068l-.879-.049c-.731-.038-1.468-.078-2.201-.126l-.512-.038c-.855-.06-1.712-.124-2.564-.196-57.364-4.935-107.738-40.342-131.94-92.562a57.377 57.377 0 0 1-12.209 1.42l-.469.002c-15.071 0-29.268-5.812-40.021-16.394-10.866-10.693-16.918-24.979-17.04-40.225-.122-15.245 5.7-29.625 16.394-40.491s24.979-16.917 40.224-17.037c1.545-.009 3.15.044 4.795.169l.1-.337-.012-.195.101-.339c19.408-65.082 78.011-111.068 145.824-114.432l.265-.012c1.004-.047 1.995-.088 2.989-.117l.909-.021c.787-.019 1.567-.036 2.351-.043l.373-.007c.259-.002.522 0 .782.001l.468.002.467-.002c.262-.002.526-.004.785-.001l.384.007c.77.007 1.55.024 2.331.043l.914.021c.995.029 1.986.07 2.977.116l.287.014c67.806 3.362 126.408 49.349 145.815 114.431l.101.339-.012.195.1.337a59.076 59.076 0 0 1 4.795-.169c15.245.12 29.53 6.171 40.224 17.037s16.516 25.246 16.394 40.491c-.122 15.246-6.174 29.531-17.04 40.225-10.754 10.582-24.951 16.393-40.021 16.394l-.469-.002a57.379 57.379 0 0 1-12.21-1.42c-24.201 52.221-74.574 87.628-131.858 92.555l-.11.01c-.824.07-1.681.135-2.537.194l-.503.037c-.741.049-1.478.089-2.213.127l-.876.049c-.574.027-1.15.048-1.727.068l-1.361.048c-.461.014-.927.021-1.393.029l-1.913.034-1.33-.002-1.322.001zm1.318-4.002 1.29.002 1.886-.033c.448-.008.897-.015 1.345-.028l1.335-.048c.56-.02 1.119-.039 1.678-.066l.854-.047c.722-.038 1.438-.076 2.154-.124l.496-.036c.836-.058 1.671-.12 2.502-.191l.109-.01c56.364-4.848 105.889-39.994 129.217-91.722l.692-1.535 1.631.421a53.335 53.335 0 0 0 12.875 1.688c14.191.074 27.546-5.301 37.651-15.243 10.105-9.943 15.732-23.228 15.846-37.404s-5.301-27.55-15.244-37.653c-9.944-10.105-23.229-15.731-37.404-15.844h-.003a53.817 53.817 0 0 0-6.015.299l-1.675.174-.457-1.62c-.194-.688-.396-1.371-.6-2.054l-.149-.504.012-.192c-19.025-63.281-76.081-107.968-142.087-111.241l-.282-.013c-.953-.045-1.923-.084-2.894-.113l-.894-.021c-.756-.017-1.519-.034-2.282-.041l-.369-.007c-.244-.001-.484 0-.726.001l-.492.002-.493-.002c-.24-.001-.48-.004-.723-.001l-.358.007c-.777.007-1.54.024-2.302.041l-.889.021c-.97.029-1.939.068-2.906.114l-.26.012c-66.014 3.273-123.069 47.96-142.096 111.241l.012.192-.149.504c-.203.683-.405 1.366-.6 2.054l-.457 1.621-1.675-.175a53.821 53.821 0 0 0-6.015-.299c-14.179.112-27.463 5.738-37.407 15.844-9.943 10.104-15.357 23.477-15.244 37.653s5.74 27.461 15.846 37.404c10 9.841 23.202 15.245 37.216 15.245l.437-.002a53.333 53.333 0 0 0 12.874-1.688l1.631-.421.692 1.535c23.329 51.728 72.854 86.874 129.246 91.725.911.078 1.746.141 2.581.198l.505.037c.708.047 1.425.085 2.143.123l.856.047c.56.027 1.119.047 1.679.066l1.331.048c.451.014.9.021 1.349.028l2.666.033.51-.002z"/><path fill="#FFD829" d="m62.72 519.569 34.069 36.449"/><path d="M96.789 558.018a1.993 1.993 0 0 1-1.461-.635L61.26 520.935a1.997 1.997 0 0 1 .096-2.826 1.998 1.998 0 0 1 2.826.096l34.068 36.448a1.997 1.997 0 0 1-1.461 3.365z"/><path fill="#FFD829" d="m429.155 519.297-33.482 36.993"/><path d="M395.672 558.29a2 2 0 0 1-1.482-3.342l33.482-36.993a2 2 0 1 1 2.965 2.683l-33.482 36.993a1.99 1.99 0 0 1-1.483.659zM222.811 537.464h-83.584a2 2 0 0 0 0 4h21.028c.852 10.856 9.951 19.363 21.006 19.273 10.938-.089 19.843-8.562 20.683-19.273h20.867a2 2 0 0 0 0-4zM359.464 537.464H275.88a2 2 0 0 0 0 4h20.956c.897 10.812 9.978 19.268 21 19.179 10.912-.088 19.799-8.511 20.683-19.179h20.945a2 2 0 0 0 0-4zM271.256 614.006a7.587 7.587 0 0 1-1.742.097c-8.385-.513-15.027-7.476-15.027-15.99 0-8.848 7.173-16.02 16.02-16.02 3.882-.052 7.744.735 11.225 2.454 2.793 1.378 10.822 5.836 20.194 10.097 6.846 3.113 5.559 13.193-1.854 14.456l-28.816 4.906zM227.2 614.006c.575.098 1.16.133 1.742.097 8.385-.513 15.027-7.476 15.027-15.99 0-8.848-7.173-16.02-16.02-16.02-3.882-.052-7.744.735-11.225 2.454-2.793 1.378-10.822 5.836-20.194 10.097-6.846 3.113-5.559 13.193 1.854 14.456l28.816 4.906zM248.423 572.95a2 2 0 0 1-2-1.987l-.244-39.747a2 2 0 0 1 1.987-2.013h.013a2 2 0 0 1 2 1.987l.244 39.747a2 2 0 0 1-1.987 2.013h-.013zM378.663 481.824c3.49 6.917 12.487 8.823 18.482 3.916l.74-.606c3.061-2.505 4.222-6.642 2.964-10.393-21.262-63.384-81.13-111.009-151.67-111.009-70.618 0-130.972 45.198-151.932 110.197-1.205 3.737.021 9.787 3.081 12.248 6.064 4.875 15.086 2.849 18.483-4.151l9.163-22.518a50.208 50.208 0 0 1 5.128-8.954c9.969-13.805 36.78-39.873 94.064-32.75 14.01 1.742 28.19 1.876 42.182-.003 51.237-6.879 80.427 17.269 92.768 31.35a50.863 50.863 0 0 1 7.83 12.029l8.717 20.644z"/><path fill="#FFF" d="m205.459 774.4-59.027-59.028 43.862-43.862 59.027 59.028z"/><path fill="#FFF" d="m249.124 730.528 59.027-59.027 43.862 43.862-59.027 59.027z"/></svg>