<svg xmlns="http://www.w3.org/2000/svg" fill="none" viewBox="0 0 300 300"><rect width="300" height="300" fill="#000" rx="56"/><path fill="#fff" d="M166.654 152.344c0 42.716 23.555 77.344 52.611 77.344 29.056 0 52.61-34.628 52.61-77.344 0-42.716-23.554-77.344-52.61-77.344s-52.611 34.628-52.611 77.344Z"/><path fill="#000" d="M182.038 174.677c6.074 24.977 22.147 42.264 35.9 38.613 13.753-3.652 19.978-26.86 13.904-51.837-6.074-24.977-22.147-42.264-35.9-38.613-13.753 3.652-19.978 26.86-13.904 51.837Z"/><path fill="#fff" d="M28.126 152.344c0 42.716 23.5544 77.344 52.6103 77.344 29.0557 0 52.6107-34.628 52.6107-77.344 0-42.716-23.555-77.344-52.6107-77.344-29.0559 0-52.6103 34.628-52.6103 77.344Z"/><path fill="#000" d="M43.5095 174.677c6.0743 24.977 22.1474 42.264 35.9004 38.613 13.753-3.652 19.9778-26.86 13.9036-51.837-6.0743-24.977-22.1474-42.264-35.9004-38.613-13.753 3.652-19.9778 26.86-13.9036 51.837Z"/></svg>