<svg width="300" height="300" viewBox="0 0 300 300" fill="none" xmlns="http://www.w3.org/2000/svg">
<g>
<rect width="300" height="300" fill="#2E9AFF"/>
<path d="M6.1484 200.899C27.4007 200.899 37.6213 186.363 37.6213 162.547V101.954C37.6213 98.1015 35.5123 96 32.5921 96C29.6719 96 27.7252 98.1015 27.7252 101.954V162.547C27.7252 182.686 19.6136 190.917 6.1484 190.917C-6.99234 190.917 -15.1039 182.686 -15.1039 162.547V101.954C-15.1039 98.1015 -17.2129 96 -20.1331 96C-23.0532 96 -25 98.1015 -25 101.954V162.547C-25 186.363 -14.7794 200.899 6.1484 200.899Z" fill="white"/>
<path d="M78.8736 113.337C69.302 113.337 61.5149 121.743 61.5149 131.9C61.5149 142.232 69.302 150.638 78.8736 150.638C88.283 150.638 96.0701 142.232 96.0701 131.9C96.0701 121.743 88.283 113.337 78.8736 113.337Z" fill="white"/>
<path d="M126.625 203C137.657 203 144.146 195.645 149.5 187.764C154.854 195.645 161.343 203 172.375 203C176.43 203 179.999 201.774 179.999 197.746C179.999 195.295 178.215 193.018 175.619 193.018C174.646 193.018 172.861 193.368 171.726 193.368C166.534 193.368 160.369 186.013 156.963 180.759C163.939 172.704 171.563 162.372 171.563 150.989C171.563 137.854 162.316 128.573 149.5 128.573C136.684 128.573 127.437 137.854 127.437 150.989C127.437 162.372 135.061 172.704 142.037 180.759C138.631 186.013 132.466 193.368 127.274 193.368C126.139 193.368 124.354 193.018 123.381 193.018C120.785 193.018 119.001 195.295 119.001 197.746C119.001 201.774 122.57 203 126.625 203Z" fill="white"/>
<path d="M220.063 113.337C210.491 113.337 202.704 121.743 202.704 131.9C202.704 142.232 210.491 150.638 220.063 150.638C229.472 150.638 237.26 142.232 237.26 131.9C237.26 121.743 229.472 113.337 220.063 113.337Z" fill="white"/>
<path d="M292.527 200.899C313.779 200.899 324 186.363 324 162.547V101.954C324 98.1015 321.891 96 318.971 96C316.051 96 314.104 98.1015 314.104 101.954V162.547C314.104 182.686 305.992 190.917 292.527 190.917C279.386 190.917 271.275 182.686 271.275 162.547V101.954C271.275 98.1015 269.166 96 266.246 96C263.326 96 261.379 98.1015 261.379 101.954V162.547C261.379 186.363 271.599 200.899 292.527 200.899Z" fill="white"/>
</g>
</svg>
