<svg xmlns="http://www.w3.org/2000/svg" viewBox="0 0 1920 1080" xml:space="preserve"><path fill="#FFF" d="M373.225 335.052c-30.726.001-67.254-12.134-86.248-26.868-37.18-28.84-62.719-73.29-67.823-117.389a71.864 71.864 0 0 1-5.769.844c-5.736.579-11.334.865-16.766.866-58.265.004-98.458-32.921-108.913-90.444-4.349-23.926-3.921-49.918 1.27-77.255 1.597-8.407 4.109-16.75 7.683-25.506l3.703 1.512c-3.471 8.506-5.91 16.599-7.457 24.74-5.099 26.853-5.524 52.354-1.264 75.794 10.074 55.426 48.875 87.149 105.119 87.151 5.259 0 10.667-.277 16.222-.839a70.355 70.355 0 0 0 5.766-.842c-.084-.962-.159-1.92-.224-2.881-1.413-21.019-.016-43.693 21.064-52.495 8.445-3.523 16.786-2.963 22.882 1.544 5.942 4.391 8.854 11.976 7.989 20.809-1.986 20.285-28.785 31.926-47.375 36.186 4.882 43.174 29.888 86.767 66.343 115.045 23.026 17.861 72.59 31.801 104.461 23.712l.983 3.877c-6.602 1.675-13.944 2.438-21.646 2.439zM250.351 133.154c-2.929 0-6.054.656-9.22 1.978-18.752 7.829-19.933 28.929-18.614 48.536.052.772.111 1.548.176 2.321 18.125-4.216 42.101-15.348 43.788-32.586.724-7.398-1.603-13.668-6.385-17.202-2.742-2.025-6.091-3.047-9.745-3.047z"/><path d="M743.079 508.373a140.764 140.764 0 0 0-19.956-1.426c-77.079 0-139.563 62.485-139.563 139.563s62.485 139.563 139.563 139.563c6.777 0 13.437-.493 19.956-1.426V508.373z"/><path d="m630.2 679.783-86.851-19.881c-6.573-1.505-8.677-9.822-3.61-14.272l66.95-58.788 23.511 92.941zM742.686 469.408l-63.462 59.29 63.462 22.919z"/><path fill="#FFF" d="m729 640.423 1.21 9.689c.382 3.06-2.432 5.546-5.421 4.79l-9.466-2.395c-3.414-.864-4.465-5.198-1.826-7.53l8.255-7.294c2.64-2.331 6.812-.754 7.248 2.74z"/><path fill="#FFF" d="M729.803 681.14a2 2 0 0 1-1.776-1.078c-.251-.483-.671-1.293-1.262-26.076a2 2 0 0 1 1.952-2.047l.049-.001a2 2 0 0 1 1.999 1.952c.258 10.82.673 23.02.944 24.644a2 2 0 0 1-1.906 2.606zm1.774-2.922.001.003-.001-.003z"/><path fill="#FFF" d="M744.089 658.384c-.942 0-10.215-1.551-15.66-2.475l.67-3.943c5.322.903 14.114 2.359 15.052 2.42l-.062 3.998z"/><path d="M1359.747 825.401H743.079a2 2 0 0 1-2-2V451.223c0-20.985 17.073-38.059 38.058-38.059h544.551c20.985 0 38.059 17.073 38.059 38.059v372.178a2 2 0 0 1-2 2zm-614.668-4h612.668V451.223c0-18.78-15.278-34.059-34.059-34.059H779.137c-18.78 0-34.058 15.278-34.058 34.059v370.178z"/><path d="M1337.774 825.401a2 2 0 0 1-2-2V448.003H767.161V823.4a2 2 0 0 1-4 0V446.003a2 2 0 0 1 2-2h572.613a2 2 0 0 1 2 2V823.4a2 2 0 0 1-2 2.001zM704.388 825.631v-2.23h38.691v-42.713h-104.46c-38.122 0-69.025 30.904-69.025 69.025l.324 7.248h166.125c-16.199 0-31.655-15.131-31.655-31.33z"/><path d="M1373.125 856.961H733.719c-17.276 0-31.331-14.055-31.331-31.33v-2.23a2 2 0 0 1 2-2h698.067a2 2 0 0 1 2 2v2.23c0 17.275-14.055 31.33-31.33 31.33zm-666.737-31.56v.23c0 15.07 12.26 27.33 27.331 27.33h639.406c15.07 0 27.33-12.26 27.33-27.33v-.23H706.388z"/><circle cx="1051.468" cy="430.584" r="6.608"/><path d="M1203.353 798.308c-.232 31.862 25.533 57.814 57.395 57.814l112.377.839c58.465 0 111.393-48.234 111.393-106.7 0-24.867-9.003-42.716-24.727-67.999l-100.045-149.634v208.7h-98.998c-31.536 0-57.166 25.444-57.395 56.98z"/><g><ellipse transform="rotate(-3.438 671.344 668.198)" fill="#FFF" cx="671.326" cy="668.603" rx="36.924" ry="15.485"/><circle cx="671.326" cy="668.603" r="15.485"/></g><g><path fill="#FFF" d="M571.021 728.401a2 2 0 0 1-.441-3.951l109.812-24.926a2 2 0 1 1 .886 3.901l-109.812 24.926c-.149.034-.298.05-.445.05zM571.025 778.108a2 2 0 0 1-1.003-3.731l116.962-67.603a1.999 1.999 0 1 1 2.002 3.462l-116.962 67.603a1.981 1.981 0 0 1-.999.269zM631.101 796.377a2 2 0 0 1-1.567-3.242l61.848-78.129a2.001 2.001 0 0 1 3.137 2.483l-61.848 78.129c-.395.499-.98.759-1.57.759z"/></g><g><path d="M901.968 384.683h-36.875c-20.185 0-36.549 16.363-36.549 36.549v22.323c0 23.77 16.23 43.746 38.212 49.458v-36.408a2 2 0 0 1 4 0v37.264c2.888.507 5.855.786 8.889.786h7.771c3.034 0 6-.28 8.889-.786v-37.264a2 2 0 0 1 4 0v36.408c21.982-5.712 38.212-25.688 38.212-49.458v-22.323c0-20.185-16.364-36.549-36.549-36.549z"/></g><g><path fill="#FFF" d="M731.458 602.554c-.595 13.763 4.244 26.499 12.609 36.146v-20.26c-7.456-1.392-12.947-8.088-12.609-15.886zM744.066 588.007v-17.13a51.545 51.545 0 0 0-12.609 31.677c.318-7.335 5.69-13.252 12.609-14.547z"/><path d="M744.066 618.441v-30.434c-6.919 1.295-12.291 7.213-12.609 14.548-.337 7.797 5.154 14.493 12.609 15.886z"/></g><g><path d="M941.361 592.068a55.89 55.89 0 0 0-7.929-.567c-30.626 0-55.452 24.827-55.452 55.453s24.827 55.452 55.452 55.452a55.88 55.88 0 0 0 7.929-.567V592.068z"/><path d="m896.511 660.174-34.508-7.899c-2.612-.598-3.448-3.903-1.434-5.671l26.601-23.358 9.341 36.928zM941.205 576.586l-25.215 23.557 25.215 9.107z"/><path d="M1186.381 719.237h-245.02a2 2 0 0 1-2-2V568.589c0-8.577 6.978-15.556 15.555-15.556h217.909c8.577 0 15.556 6.979 15.556 15.556v148.648a2 2 0 0 1-2 2zm-243.02-4h241.02V568.589c0-6.372-5.184-11.556-11.556-11.556H954.916c-6.372 0-11.555 5.184-11.555 11.556v146.648z"/><path d="M925.988 718.124v-.886h15.373v-16.971h-41.505c-15.147 0-27.426 12.279-27.426 27.426v2.085h65.211c-6.435-.001-11.653-5.218-11.653-11.654z"/><path d="M937.642 731.777H870.43v-4.086c0-16.226 13.2-29.426 29.426-29.426h43.505v20.972h-15.309c.554 4.801 4.644 8.54 9.59 8.54v4zm-63.212-4h53.565a13.615 13.615 0 0 1-4.007-9.654v-2.886h15.373v-12.972h-39.505c-14.02 0-25.426 11.406-25.426 25.426v.086z"/><path d="M1191.696 731.777H937.642c-7.529 0-13.654-6.125-13.654-13.654v-.886a2 2 0 0 1 2-2h277.362a2 2 0 0 1 2 2v.886c0 7.529-6.125 13.654-13.654 13.654zm-263.644-12.54c.554 4.801 4.644 8.54 9.59 8.54h254.054c4.946 0 9.035-3.739 9.59-8.54H928.052z"/><path d="M1155.351 731.933h38.543c23.23 0 42.062-18.832 42.062-42.062 0-9.88-3.577-16.972-9.825-27.018l-39.751-59.454v69.631h-31.029c-16.201 0-29.36 13.085-29.451 29.285-.091 16.331 13.121 29.618 29.451 29.618z"/><g><circle fill="#FFF" cx="912.851" cy="655.732" r="6.153"/></g><g><path d="M997.166 586.617c-12.066 0-21.848-9.781-21.848-21.847v-6.221c0-8.63 6.996-15.626 15.626-15.626h12.443c8.63 0 15.626 6.996 15.626 15.626v6.221c.001 12.066-9.781 21.847-21.847 21.847z"/></g><g><path fill="#FFF" d="M941.753 635.801v-12.092a6.154 6.154 0 0 0-5.01 5.78 6.153 6.153 0 0 0 5.01 6.312z"/></g></g><g><path fill="#FFF" d="m1823.44 428.748-3.617-1.709c10.035-21.25 14.715-45.932 13.178-69.497-1.647-25.247-10.151-47.893-24.593-65.487-11.998-14.618-27.835-25.097-44.975-30.067-3.794 10.578-9.556 19.357-18.301 22.015-6.832 2.074-12.982.584-16.872-4.09-3.697-4.445-4.386-10.898-1.713-16.057 3.324-6.417 10.922-9.646 20.878-8.856a85.38 85.38 0 0 1 13.391 2.153 98.973 98.973 0 0 0 1.775-6.578c3.09-13.164 4.166-28.504 4.143-38.47-.105-45.653-24.091-89.442-61.105-111.558-20.554-12.279-46.042-19.144-73.711-19.853-25.592-.64-51.944 3.846-76.164 13.016-65.89 24.95-114.8 54.955-153.922 94.427l-2.842-2.816c39.54-39.893 88.902-70.191 155.348-95.351 24.699-9.353 51.548-13.948 77.683-13.273 28.354.726 54.518 7.786 75.659 20.417 38.195 22.82 62.946 67.953 63.055 114.981.009 3.998-.206 27.01-6.042 46.095 17.854 5.212 34.331 16.126 46.808 31.328 14.976 18.244 23.79 41.677 25.492 67.765 1.58 24.23-3.232 49.611-13.553 71.465zm-78.906-169.866c-6.97 0-12.158 2.42-14.436 6.814-1.941 3.748-1.444 8.433 1.237 11.657 2.811 3.378 7.415 4.408 12.635 2.82 7.442-2.261 12.361-10.437 15.567-19.216a81.174 81.174 0 0 0-12.429-1.971 33.019 33.019 0 0 0-2.574-.104z"/></g><g><path fill="#FFF" d="M0 1076h418.033v4H0zM1661.264 1075.649H1920v4h-258.736z"/><path d="M418.033 375.549a285.006 285.006 0 0 0-40.426-2.89c-156.142 0-282.72 126.578-282.72 282.72s126.578 282.72 282.72 282.72c13.728 0 27.221-.999 40.426-2.89v-559.66z"/><path d="M189.367 722.781 13.43 682.507C.114 679.459-4.148 662.61 6.116 653.596l135.623-119.09 47.628 188.275zM417.237 296.616 288.679 416.721l128.558 46.429z"/><path fill="#FFF" d="m389.512 643.049 2.452 19.627c.774 6.198-4.927 11.235-10.982 9.703l-19.175-4.852c-6.915-1.75-9.044-10.53-3.699-15.253l16.723-14.775c5.346-4.723 13.797-1.528 14.681 5.55z"/><path fill="#FFF" d="M391.138 723.48a2 2 0 0 1-1.777-1.079c-.756-1.458-1.539-18.929-2.326-51.927a2 2 0 0 1 1.952-2.047c1.097-.049 2.021.848 2.047 1.951.431 18.066 1.344 47.572 1.972 50.39a2 2 0 0 1-1.868 2.712zm1.774-2.921.001.002-.001-.002z"/><path fill="#FFF" d="M420.079 677.381c-1.875 0-24.492-3.814-31.379-4.983l.669-3.943c11.054 1.876 29.171 4.873 30.729 4.927l-.019 3.999z"/><path d="M1667.244 1015.715H418.033a2 2 0 0 1-2-2V222.79c0-20.985 17.073-38.059 38.058-38.059h1177.096c20.985 0 38.058 17.073 38.058 38.059v790.925a2.002 2.002 0 0 1-2.001 2zm-1247.211-4h1245.211V222.79c0-18.78-15.278-34.059-34.058-34.059H454.091c-18.78 0-34.058 15.278-34.058 34.059v788.925z"/><path d="M1622.734 1015.715a2 2 0 0 1-2-2V251.202H464.766v762.513a2 2 0 0 1-4 0V249.202a2 2 0 0 1 2-2h1159.969a2 2 0 0 1 2 2v764.513a2.002 2.002 0 0 1-2.001 2zM339.655 1034.525v-20.81h78.378v-86.526H182.6c-64.067 0-116.004 51.937-116.004 116.004V1076l307 .649c-18.644-.06-33.941-18.308-33.941-42.124z"/><path d="M1694.723 1080H382.779c-24.881 0-45.124-20.242-45.124-45.124v-20.81a2 2 0 0 1 2-2h1414.106a2 2 0 0 1 2 2v20.81c.001 24.882-36.156 45.124-61.038 45.124zm-1353.068-63.934v18.81c0 22.676 18.448 41.124 41.124 41.124h1327.859c22.676 0 41.124-18.448 41.124-41.124v-18.81H341.655z"/><circle cx="1042.75" cy="217.967" r="13.386"/><path d="M1394.278 947.209c-.469 73.201 58.741 132.791 131.944 132.791h157.168c118.436 0 236.61-96.012 236.61-214.448 0-50.374-18.237-86.532-50.091-137.748l-202.665-303.121v391.424h-141.023c-72.542 0-131.479 58.561-131.943 131.102z"/><g><ellipse transform="rotate(-3.438 272.822 699.845)" fill="#FFF" cx="272.679" cy="700.134" rx="74.799" ry="31.369"/><circle cx="272.679" cy="700.134" r="31.369"/></g><g><path fill="#FFF" d="M69.49 819.217a2 2 0 0 1-.441-3.951l222.45-50.494a2 2 0 1 1 .886 3.901l-222.45 50.494c-.149.034-.298.05-.445.05zM69.494 919.91a2 2 0 0 1-1.003-3.731l236.937-136.945a1.999 1.999 0 1 1 2.002 3.462L70.493 919.642c-.316.182-.66.268-.999.268zM191.195 956.92a2 2 0 0 1-1.567-3.242l125.288-158.271a2.001 2.001 0 0 1 3.137 2.483L192.765 956.161a1.996 1.996 0 0 1-1.57.759z"/></g><g><path d="M744.293 124.984h-83.482c-19.293 0-36.751 7.847-49.364 20.521l-.001-.003-41.238 40.229h21.542a70.236 70.236 0 0 0-.586 8.899v55.753c0 47.658 34.239 87.313 79.459 95.725v-75.431a2 2 0 0 1 4 0v76.087c4.546.651 9.191.994 13.917.994h28.024c4.726 0 9.371-.344 13.917-.994v-76.087a2 2 0 0 1 4 0v75.43c45.22-8.412 79.458-48.067 79.458-95.724V194.63c.001-38.464-31.181-69.646-69.646-69.646z"/></g><g><path fill="#FFF" d="M394.491 566.336c-1.206 27.881 8.597 53.681 25.542 73.223v-41.041c-15.104-2.821-26.226-16.387-25.542-32.182zM420.033 536.866v-34.7c-14.996 17.272-24.477 39.543-25.542 64.17.642-14.859 11.525-26.846 25.542-29.47z"/><path d="M420.033 598.518v-61.652c-14.017 2.624-24.899 14.611-25.542 29.47-.684 15.795 10.438 29.361 25.542 32.182z"/></g></g><g><path fill="#FFD829" d="M1096.052 618.494c-7.041 0-15.446 4.208-25.693 12.864a138.526 138.526 0 0 0-6.488 5.86 137.97 137.97 0 0 0-6.488-5.86c-10.247-8.656-18.652-12.864-25.693-12.864-16.458 0-29.848 13.39-29.848 29.848s13.39 29.848 29.848 29.848c7.042 0 15.446-4.208 25.693-12.864a138.526 138.526 0 0 0 6.488-5.86 137.97 137.97 0 0 0 6.488 5.86c10.248 8.656 18.652 12.864 25.693 12.864 16.458 0 29.848-13.39 29.848-29.848s-13.39-29.848-29.848-29.848zm-48.867 35.009c-10.257 8.637-14.708 9.075-15.495 9.075-7.849 0-14.235-6.386-14.235-14.235 0-7.849 6.386-14.235 14.235-14.235.788 0 5.238.438 15.495 9.075a121.094 121.094 0 0 1 5.727 5.161 122.23 122.23 0 0 1-5.727 5.159zm48.867 9.075c-.788 0-5.238-.438-15.495-9.075a121.094 121.094 0 0 1-5.727-5.161 121.7 121.7 0 0 1 5.727-5.161c10.257-8.637 14.707-9.075 15.495-9.075 7.849 0 14.235 6.386 14.235 14.235 0 7.851-6.386 14.237-14.235 14.237z"/></g></svg>