<svg xmlns="http://www.w3.org/2000/svg" viewBox="0 0 1920 1080" xml:space="preserve"><g fill="#FFF"><path d="M1276.703 73.877c4.818-16.326 11.414-40.692 17.187-62.461 3.76-14.176 23.688-14.68 28.169-.715l20.161 62.827c3.041 9.476-4.028 19.168-13.98 19.168h-37.451c-9.8 0-16.86-9.419-14.086-18.819z"/><path d="M1328.241 93.195h-37.451c-4.836 0-9.271-2.221-12.165-6.094-2.891-3.866-3.765-8.738-2.4-13.366 4.075-13.809 9.856-34.819 17.184-62.447 1.77-6.676 7.375-11.104 14.278-11.281 6.913-.197 12.735 3.961 14.848 10.542l20.162 62.827c1.499 4.67.701 9.621-2.19 13.584-2.891 3.962-7.362 6.235-12.266 6.235zm-51.06-19.177c-1.275 4.323-.459 8.874 2.242 12.486 2.705 3.619 6.847 5.694 11.366 5.694h37.451c4.582 0 8.759-2.123 11.46-5.825 2.7-3.702 3.446-8.328 2.045-12.692l-20.162-62.827c-1.973-6.148-7.444-10.041-13.87-9.848-6.45.165-11.686 4.303-13.34 10.539-7.33 27.636-13.114 48.655-17.192 62.473z"/><g><path d="M1372.628 73.877c4.818-16.326 11.414-40.692 17.187-62.461 3.76-14.176 23.688-14.68 28.169-.715l20.161 62.827c3.041 9.476-4.028 19.168-13.98 19.168h-37.451c-9.8 0-16.86-9.419-14.086-18.819z"/><path d="M1424.166 93.195h-37.451c-4.837 0-9.271-2.221-12.167-6.095-2.89-3.866-3.764-8.738-2.398-13.365 4.069-13.786 9.849-34.797 17.183-62.447 1.77-6.676 7.375-11.104 14.278-11.281 6.909-.195 12.735 3.961 14.848 10.542l20.161 62.827c1.498 4.67.7 9.621-2.19 13.584-2.889 3.962-7.359 6.235-12.264 6.235zM1404.035 1c-.132 0-.265.001-.398.005-6.449.166-11.685 4.303-13.339 10.539-7.336 27.66-13.119 48.678-17.191 62.474-1.275 4.323-.459 8.873 2.241 12.485 2.705 3.62 6.848 5.695 11.367 5.695h37.451c4.582 0 8.758-2.123 11.459-5.825 2.7-3.702 3.446-8.328 2.045-12.692l-20.161-62.827C1415.577 4.831 1410.313 1 1404.035 1z"/></g></g><path d="M1287.294 67.067c3.263-11.057 7.729-27.557 11.64-42.3 2.546-9.6 16.042-9.942 19.077-.484l13.654 42.548c2.059 6.417-2.728 12.981-9.468 12.981h-25.362c-6.639 0-11.42-6.379-9.541-12.745zM1383.219 67.067c3.263-11.057 7.729-27.557 11.64-42.3 2.546-9.6 16.042-9.942 19.077-.484l13.654 42.548c2.059 6.417-2.728 12.981-9.467 12.981h-25.363c-6.639 0-11.42-6.379-9.541-12.745z"/><g fill="#FFF"><path d="M1416.847 64.456h-118.742c-26.081 0-47.224 21.143-47.224 47.223v87.523h213.189v-87.523c.001-26.081-21.142-47.223-47.223-47.223z"/><path d="M1464.569 199.701h-214.186V111.57c0-26.254 21.36-47.612 47.613-47.612h118.96c26.254 0 47.613 21.359 47.613 47.612v88.131zm-213.188-.997h212.191V111.57c0-25.703-20.911-46.615-46.616-46.615h-118.96c-25.704 0-46.616 20.912-46.616 46.615v87.134z"/></g><path fill="#FFD829" d="M561.198 465.348c60.291 0 109.166 48.875 109.166 109.166S621.489 683.68 561.198 683.68V465.348zM563.52 833.94h184.97v3.991H563.52z"/><path fill="#FFF" d="M561.155 630.451c15.053 0 24.452-6.226 24.452-18.925h-24.452v18.925z"/><path d="M588.119 560.816c0 7.568 6.193 13.699 13.831 13.699s13.831-6.131 13.831-13.699c0-7.566-6.193-13.698-13.831-13.698s-13.831 6.132-13.831 13.698z"/><path d="M629.811 564.171a2.487 2.487 0 0 1-2.052-1.074c-5.793-8.357-15.353-13.346-25.572-13.346-10.22 0-19.779 4.989-25.572 13.346a2.493 2.493 0 0 1-3.471.629 2.493 2.493 0 0 1-.629-3.47c6.724-9.701 17.816-15.493 29.672-15.493 11.854 0 22.946 5.792 29.672 15.493a2.493 2.493 0 0 1-2.048 3.915z"/><path d="M610.321 550.741a2.495 2.495 0 0 1-1.853-4.163l13.797-15.322a2.495 2.495 0 0 1 3.708 3.338l-13.797 15.322a2.492 2.492 0 0 1-1.855.825zM623.031 556.961a2.494 2.494 0 0 1-1.355-4.59l11.388-7.348a2.494 2.494 0 1 1 2.705 4.191l-11.388 7.348c-.419.27-.887.399-1.35.399zM616.003 624.58c-8.581-6.346-16.322-16.319-16.322-24.48 0-6.627 4.532-10.183 9.416-10.183 4.393 0 7.045 1.812 8.788 4.044 1.743-2.232 4.532-4.044 8.927-4.044 4.881 0 9.416 3.555 9.416 10.183 0 8.161-7.743 18.133-16.322 24.48-.767.559-1.394.767-2.022.767-.487-.001-1.115-.208-1.881-.767z"/><path fill="#FFF" d="M748.309 835.936H563.725l-.724 175.875c99.068 0 181.148-78.762 185.308-175.875z"/><path d="M748.49 828.072c0-43.773-15.565-83.942-41.511-115.379-21.868-26.496-27.931-62.192-16.827-94.599a130.096 130.096 0 0 0 6.966-38.633c2.061-74.483-59.452-136.287-134.67-135.272l.113 34.786c53.974.061 97.711 43.417 97.711 96.894 0 53.267-43.396 96.488-97.079 96.886l.532 163.184h184.584c.112-2.612.181-5.231.181-7.867z"/><path d="M588.119 560.816c0 7.568 6.193 13.699 13.831 13.699s13.831-6.131 13.831-13.699c0-7.566-6.193-13.698-13.831-13.698s-13.831 6.132-13.831 13.698z"/><path d="M629.811 564.171a2.487 2.487 0 0 1-2.052-1.074c-5.793-8.357-15.353-13.346-25.572-13.346-10.22 0-19.779 4.989-25.572 13.346a2.493 2.493 0 0 1-3.471.629 2.493 2.493 0 0 1-.629-3.47c6.724-9.701 17.816-15.493 29.672-15.493 11.854 0 22.946 5.792 29.672 15.493a2.493 2.493 0 0 1-2.048 3.915z"/><path d="M610.321 550.741a2.495 2.495 0 0 1-1.853-4.163l13.797-15.322a2.495 2.495 0 0 1 3.708 3.338l-13.797 15.322a2.492 2.492 0 0 1-1.855.825zM623.031 556.961a2.494 2.494 0 0 1-1.355-4.59l11.388-7.348a2.494 2.494 0 1 1 2.705 4.191l-11.388 7.348c-.419.27-.887.399-1.35.399zM625.161 835.912l-30.781 58.56-30.781-58.56zM686.723 835.912l-30.781 58.56-30.781-58.56zM748.285 835.912l-30.781 58.56-30.781-58.56z"/><path fill="#FFD829" d="M645.167 712.363a1.995 1.995 0 0 1-1.995-1.995v-29.14a1.995 1.995 0 1 1 3.99 0v29.14a1.995 1.995 0 0 1-1.995 1.995z"/><path fill="#FFD829" d="M659.737 697.794h-29.14a1.995 1.995 0 1 1 0-3.99h29.14a1.995 1.995 0 1 1 0 3.99z"/><path fill="#FFD829" d="M655.469 708.096a1.987 1.987 0 0 1-1.411-.585l-20.605-20.605a1.996 1.996 0 0 1 2.822-2.822l20.605 20.605a1.996 1.996 0 0 1-1.411 3.407z"/><path fill="#FFD829" d="M634.865 708.096a1.996 1.996 0 0 1-1.411-3.407l20.605-20.605a1.996 1.996 0 0 1 2.822 2.822l-20.605 20.605a1.99 1.99 0 0 1-1.411.585z"/><g><path fill="#FFD829" d="M687.195 795.651a1.995 1.995 0 0 1-1.995-1.995v-29.14a1.995 1.995 0 1 1 3.99 0v29.14a1.995 1.995 0 0 1-1.995 1.995z"/><path fill="#FFD829" d="M701.765 781.081h-29.14a1.995 1.995 0 1 1 0-3.99h29.14a1.995 1.995 0 1 1 0 3.99z"/><path fill="#FFD829" d="M697.497 791.383c-.51 0-1.022-.195-1.411-.585l-20.605-20.605a1.996 1.996 0 0 1 2.822-2.822l20.605 20.605a1.996 1.996 0 0 1-1.411 3.407z"/><path fill="#FFD829" d="M676.893 791.383a1.996 1.996 0 0 1-1.411-3.407l20.605-20.605a1.996 1.996 0 0 1 2.822 2.822l-20.605 20.605c-.39.391-.901.585-1.411.585z"/></g><g><path fill="#FFD829" d="M605.151 783.631a1.995 1.995 0 0 1-1.995-1.995v-29.14a1.995 1.995 0 1 1 3.99 0v29.14a1.995 1.995 0 0 1-1.995 1.995z"/><path fill="#FFD829" d="M619.72 769.061h-29.14a1.995 1.995 0 1 1 0-3.99h29.14a1.995 1.995 0 1 1 0 3.99z"/><path fill="#FFD829" d="M615.453 779.364a1.99 1.99 0 0 1-1.411-.585l-20.605-20.605a1.996 1.996 0 0 1 2.822-2.822l20.605 20.605a1.996 1.996 0 0 1-1.411 3.407z"/><path fill="#FFD829" d="M594.848 779.364a1.996 1.996 0 0 1-1.411-3.407l20.605-20.605a1.996 1.996 0 0 1 2.822 2.822l-20.605 20.605a1.99 1.99 0 0 1-1.411.585z"/></g><g><path fill="#FFD829" d="M268.058 361.748c67.052 0 121.408 54.356 121.408 121.408S335.11 604.565 268.058 604.565V361.748z"/></g><g><path fill="#FFD829" d="M267.698 798.881h223.75v3.991h-223.75z"/><ellipse cx="328.513" cy="517.656" rx="27.842" ry="27.663"/><path d="M267.698 554.037a2.494 2.494 0 1 1 0-4.988c8.633 0 16.71-4.229 21.605-11.312a2.493 2.493 0 1 1 4.104 2.835 31.24 31.24 0 0 1-25.709 13.465zM303.711 467.048c0 9.182 7.491 16.622 16.731 16.622 9.24 0 16.731-7.439 16.731-16.622 0-9.18-7.491-16.621-16.731-16.621-9.24 0-16.731 7.441-16.731 16.621z"/><path d="M281.057 470.587a2.495 2.495 0 0 1-2.05-3.912c8.036-11.63 21.294-18.574 35.464-18.574 14.169 0 27.427 6.944 35.464 18.574a2.495 2.495 0 0 1-4.104 2.836c-7.106-10.282-18.829-16.421-31.36-16.421-12.532 0-24.255 6.139-31.36 16.421a2.493 2.493 0 0 1-2.054 1.076z"/><path d="M324.312 454.29a2.494 2.494 0 0 1-1.855-4.16l16.689-18.591a2.494 2.494 0 0 1 3.712 3.332l-16.689 18.591a2.489 2.489 0 0 1-1.857.828z"/><g><path d="M339.684 461.837a2.493 2.493 0 0 1-1.357-4.588l13.775-8.916a2.495 2.495 0 0 1 2.71 4.188l-13.775 8.916c-.419.271-.888.4-1.353.4z"/></g></g><g><path fill="#FFF" d="M491.874 790.497c0-53.314-18.899-102.24-50.403-140.529-26.553-32.272-33.915-75.748-20.432-115.22 5.065-14.829 8.005-30.633 8.458-47.054 2.502-90.719-72.188-165.995-163.521-164.759l.138 42.368c65.538.074 118.643 52.881 118.643 118.014 0 64.878-52.693 117.52-117.876 118.004l.646 198.754h224.128c.135-3.177.219-6.368.219-9.578z"/><path d="M491.654 800.075H267.527l.691 212.637c120.291 0 218.385-94.356 223.436-212.637zm-175.346 187.69c-14.485 0-26.227-11.667-26.227-26.058 0-14.392 11.742-26.058 26.227-26.058s26.227 11.667 26.227 26.058c.001 14.391-11.742 26.058-26.227 26.058zm0-110.208c-14.485 0-26.227-11.667-26.227-26.058 0-14.392 11.742-26.058 26.227-26.058s26.227 11.667 26.227 26.058c.001 14.391-11.742 26.058-26.227 26.058zm62.617 52.916c-14.485 0-26.227-11.667-26.227-26.058s11.742-26.058 26.227-26.058 26.227 11.667 26.227 26.058-11.742 26.058-26.227 26.058zm33.609-80.268c0-14.391 11.742-26.058 26.227-26.058s26.227 11.667 26.227 26.058c0 14.392-11.742 26.058-26.227 26.058s-26.227-11.667-26.227-26.058z"/></g><g><path fill="#FFF" d="M123.878 1080H1.995a1.995 1.995 0 1 1 0-3.99h121.882v3.99z"/></g><g><path fill="#FFF" d="M843.344 324.439H266.401v-3.991h574.948v-22.034c0-19.627-15.968-35.596-35.596-35.596h-77.088v-3.991h77.088c21.828 0 39.587 17.759 39.587 39.587v24.029a1.996 1.996 0 0 1-1.996 1.996z"/></g><g><path fill="#FFF" d="M1918.005 1080h-136.29v-3.991h136.29a1.995 1.995 0 1 1 0 3.991z"/></g><g><path fill="#FFD829" d="M844.814 585.004c44.53 0 80.628 36.098 80.628 80.628s-36.098 80.628-80.628 80.628V585.004zM845.227 871.209h147.164v3.991H845.227z"/><path fill="#FFF" d="M844.644 705.219a1.995 1.995 0 1 1 0-3.99c8.425 0 19.438-6.801 21.307-10.901a1.996 1.996 0 0 1 3.631 1.654c-2.634 5.78-15.201 13.237-24.938 13.237z"/><path d="M869.994 657.24c0 6.021 4.927 10.899 11.004 10.899s11.004-4.878 11.004-10.899c0-6.019-4.927-10.898-11.004-10.898s-11.004 4.878-11.004 10.898z"/><path d="M859.208 657.495a2.494 2.494 0 0 1-2.048-3.915c5.445-7.856 14.427-12.546 24.026-12.546 9.598 0 18.58 4.69 24.026 12.546a2.495 2.495 0 0 1-4.1 2.842c-4.514-6.511-11.963-10.399-19.926-10.399-7.964 0-15.413 3.888-19.926 10.399a2.489 2.489 0 0 1-2.052 1.073z"/><g><path d="M992.247 873.205H845.39l-.576 139.929c78.819 0 144.123-62.665 147.433-139.929z"/><path fill="#FFF" d="M992.391 866.948c0-34.826-12.384-66.785-33.026-91.797-17.398-21.081-22.222-49.48-13.388-75.264a103.523 103.523 0 0 0 5.542-30.737c1.64-59.26-47.301-108.432-107.145-107.624l.09 27.676c42.943.048 77.74 34.543 77.74 77.09 0 42.38-34.526 76.767-77.237 77.083l.423 129.831h146.857c.089-2.076.144-4.16.144-6.258z"/></g></g><g><path fill="#FFD829" d="M1378.167 811.81c21.103 0 38.211 17.108 38.211 38.211s-17.108 38.211-38.211 38.211V811.81zM1379.031 944.731h68.998v3.991h-68.998z"/><path fill="#FFF" d="M1378.149 870.896c9.368 0 15.218-3.875 15.218-11.778h-15.218v11.778z"/><path d="M1388.207 845.469c0 2.823 2.31 5.11 5.159 5.11 2.849 0 5.159-2.287 5.159-5.11 0-2.822-2.31-5.11-5.159-5.11-2.849.001-5.159 2.288-5.159 5.11z"/><g><path d="M1447.963 946.727h-68.855l-.27 65.607c36.954-.001 67.573-29.382 69.125-65.607z"/><path fill="#FFF" d="M1448.03 943.793c0-16.328-5.806-31.313-15.485-43.04-8.157-9.884-10.419-23.199-6.277-35.288a48.535 48.535 0 0 0 2.598-14.411c.769-27.784-22.177-50.839-50.236-50.461l.042 12.976c20.134.023 36.449 16.196 36.449 36.144 0 19.87-16.188 35.993-36.213 36.141l.198 60.872h68.855c.043-.973.069-1.95.069-2.933z"/></g></g><g><path fill="#FFD829" d="M1124.181 691.791c36.124 0 65.408 29.284 65.408 65.408s-29.284 65.408-65.408 65.408V691.791zM1124.612 907.528h106.981v3.991h-106.981z"/><path fill="#FFF" d="M1124.188 785.956c6.41 0 15.105-5.036 16.809-8.774h-16.385v8.774"/><path d="M1142.692 748.675c0 4.377 3.582 7.923 7.999 7.923s7.999-3.546 7.999-7.923c0-4.376-3.582-7.922-7.999-7.922s-7.999 3.547-7.999 7.922z"/><g><path fill="#FFF" d="M1231.488 909.523h-106.757l-.419 101.72c57.297.001 104.77-45.553 107.176-101.72z"/><path d="M1231.593 904.975c0-25.317-9.002-48.549-24.008-66.731-12.648-15.325-16.155-35.97-9.732-54.713a75.25 75.25 0 0 0 4.029-22.344c1.192-43.078-34.385-78.824-77.889-78.237l.066 20.119c31.217.035 56.513 25.111 56.513 56.04 0 30.808-25.099 55.805-56.147 56.035l.308 94.38h106.757c.062-1.509.103-3.024.103-4.549z"/></g></g><g><path fill="#FFF" d="M1123.373 679.057h519.219v3.991h-519.219z"/><path fill="#FFF" d="M1125.368 1014.94h-3.991V657.024c0-21.828 17.759-39.587 39.587-39.587h481.627v3.991h-481.627c-19.627 0-35.596 15.969-35.596 35.596v357.916z"/></g><g><path fill="#FFF" d="M1378.719 798.593h263.873v3.991h-263.873z"/><path fill="#FFF" d="M1380.714 1014.94h-3.991V776.56c0-21.829 17.759-39.588 39.587-39.588h226.281v3.991H1416.31c-19.627 0-35.596 15.969-35.596 35.597v238.38z"/></g><g><path d="M1642.592 1016.935a1.995 1.995 0 0 1-1.995-1.995V262.818h-1372.2v752.122a1.995 1.995 0 1 1-3.99 0V260.822c0-1.102.893-1.995 1.995-1.995h1376.191c1.102 0 1.995.893 1.995 1.995v754.117a1.996 1.996 0 0 1-1.996 1.996z"/></g><g><circle cx="994.11" cy="230.012" r="13.204"/></g><g><path fill="#FFF" d="M843.344 559.52h539.638v3.991H843.344z"/><path fill="#FFF" d="M845.34 1014.94h-3.991V537.487c0-21.828 17.759-39.587 39.588-39.587h464.454c21.828 0 39.587 17.759 39.587 39.587v81.945h-3.991v-81.945c0-19.627-15.969-35.596-35.596-35.596H880.937c-19.628 0-35.597 15.969-35.597 35.596v477.453z"/></g><g><path fill="#FFF" d="M1122.311 443.974H561.565a1.995 1.995 0 0 1-1.995-1.995v-24.028c0-21.828 17.759-39.587 39.587-39.587h485.562c21.828 0 39.587 17.759 39.587 39.587v24.028a1.995 1.995 0 0 1-1.995 1.995zm-558.75-3.99h556.754v-22.033c0-19.627-15.969-35.596-35.596-35.596H599.157c-19.628 0-35.596 15.969-35.596 35.596v22.033z"/><path fill="#FFF" d="M563.561 1014.94h-3.991V441.979c0-1.102.893-1.995 1.995-1.995h560.745c1.102 0 1.995.893 1.995 1.995v57.917h-3.991v-55.921H563.561v570.965z"/></g><g><path d="M1686.497 1016.935H222.277a1.995 1.995 0 0 1-1.995-1.995V235.177c0-20.937 17.033-37.97 37.97-37.97h1392.27c20.937 0 37.971 17.033 37.971 37.97v779.763a1.996 1.996 0 0 1-1.996 1.995zm-1462.225-3.99h1460.229V235.177c0-18.736-15.243-33.979-33.98-33.979H258.251c-18.736 0-33.979 15.243-33.979 33.979v777.768z"/><path d="M1776.984 1080H131.79c-24.824 0-45.019-20.195-45.019-45.02v-20.04c0-1.102.893-1.995 1.995-1.995h1731.242c1.102 0 1.995.893 1.995 1.995v20.04c0 24.825-20.195 45.02-45.019 45.02zM90.761 1016.935v18.045c0 22.623 18.405 41.029 41.029 41.029h1645.194c22.623 0 41.029-18.406 41.029-41.029v-18.045H90.761z"/></g><g><path fill="#FFD829" d="m943.476 873.205 24.373-46.369 24.373 46.369z"/><path fill="#FFD829" d="m894.73 873.205 24.373-46.369 24.373 46.369z"/><path fill="#FFD829" d="m845.984 873.205 24.373-46.369 24.373 46.369z"/></g><g><path fill="#FFF" d="M841.349 322.443h3.991v57.916h-3.991z"/></g><g fill="#FFF"><path d="M1255.879 251.548h-9.995c-14.553 0-26.35-11.797-26.35-26.35v-28.354c0-14.781 11.983-26.764 26.764-26.764h35.93v55.117c.001 14.554-11.796 26.351-26.349 26.351z"/><path d="M1255.94 252.047h-10.117c-14.77 0-26.787-12.017-26.787-26.788v-28.477c0-14.998 12.202-27.201 27.202-27.201h36.491v55.678c-.001 14.771-12.018 26.788-26.789 26.788zm-9.703-81.468c-14.449 0-26.204 11.755-26.204 26.203v28.477c0 14.221 11.569 25.79 25.79 25.79h10.117c14.221 0 25.79-11.569 25.79-25.79v-54.68h-35.493z"/></g><g fill="#FFF"><path d="M1451.456 251.548h9.995c14.552 0 26.35-11.797 26.35-26.35v-28.354c0-14.781-11.983-26.764-26.764-26.764h-35.93v55.117c-.001 14.554 11.796 26.351 26.349 26.351z"/><path d="M1461.511 252.047h-10.116c-14.77 0-26.787-12.017-26.787-26.788v-55.678h36.491c14.999 0 27.201 12.202 27.201 27.201v28.477c-.001 14.771-12.018 26.788-26.789 26.788zm-35.906-81.468v54.68c0 14.221 11.569 25.79 25.79 25.79h10.116c14.221 0 25.79-11.569 25.79-25.79v-28.477c0-14.448-11.755-26.203-26.203-26.203h-35.493z"/></g><g><path d="M1397.345 117.416c-5.03-.017-9.137 4.062-9.153 9.007-.017 5.03 4.062 9.137 9.092 9.154 4.945.017 9.051-4.062 9.068-9.092.017-4.946-4.062-9.052-9.007-9.069zM1345.99 160.897c5.798.02 9.22-3.55 12.047-7.377 2.801 3.846 6.199 7.439 11.997 7.458 2.132.007 4.009-.583 4.016-2.544.004-1.194-.93-2.305-2.294-2.31-.512-.002-1.45.166-2.047.164-2.728-.009-5.956-3.601-7.738-6.165 3.679-3.91 7.704-8.926 7.722-14.468.021-6.395-4.823-10.93-11.559-10.952-6.736-.023-11.611 4.48-11.632 10.874-.019 5.542 3.972 10.586 7.625 14.52-1.799 2.552-5.051 6.122-7.779 6.113-.597-.002-1.534-.176-2.046-.177-1.364-.005-2.306 1.101-2.31 2.294-.007 1.959 1.866 2.563 3.998 2.57zM1318.939 117.152c-5.03-.017-9.137 4.062-9.153 9.007-.017 5.03 4.062 9.137 9.092 9.154 4.945.017 9.051-4.062 9.068-9.092.017-4.946-4.062-9.053-9.007-9.069z"/></g></svg>