<svg xmlns="http://www.w3.org/2000/svg" viewBox="0 0 1080 1080" xml:space="preserve"><path d="M1030.299 857.388H49.702a2 2 0 0 1-2-2V256.855c0-30.178 24.551-54.729 54.729-54.729H977.57c30.178 0 54.729 24.552 54.729 54.729v598.532a2 2 0 0 1-2 2.001zm-978.597-4h976.597V256.855c0-27.973-22.757-50.729-50.729-50.729H102.431c-27.972 0-50.729 22.757-50.729 50.729v596.533z"/><path fill="#FFF" d="M320.727 836.571a2 2 0 0 1-2-2V388.979c0-27.357 22.257-49.614 49.614-49.614h181.672c27.357 0 49.614 22.257 49.614 49.614v37.233a2 2 0 0 1-4 0v-37.233c0-25.151-20.463-45.614-45.614-45.614H368.342c-25.151 0-45.614 20.463-45.614 45.614v445.593a2 2 0 0 1-2.001 1.999z"/><path fill="#FFD829" d="M597.628 388.979h-276.9"/><path fill="#FFF" d="M597.628 390.979h-276.9a2 2 0 0 1 0-4h276.9a2 2 0 0 1 0 4z"/><path fill="#FFD829" d="M320.546 407.416c49.34 0 89.337 39.998 89.337 89.337s-39.998 89.337-89.337 89.337V407.416zM322.446 708.689h151.372v4H322.446z"/><path fill="#FFF" d="M320.511 542.529c12.319 0 20.01-5.095 20.01-15.487h-20.01v15.487z"/><path d="M342.577 485.543c0 6.193 5.068 11.21 11.319 11.21 6.251 0 11.319-5.017 11.319-11.21 0-6.191-5.068-11.21-11.319-11.21-6.251 0-11.319 5.018-11.319 11.21z"/><path d="M331.483 488.247a2 2 0 0 1-1.642-3.139c5.494-7.928 14.56-12.661 24.248-12.661s18.752 4.733 24.248 12.661a2 2 0 1 1-3.287 2.279c-4.749-6.851-12.585-10.94-20.961-10.94-8.377 0-16.213 4.09-20.961 10.94a1.997 1.997 0 0 1-1.645.86z"/><path d="M360.746 477.256a1.998 1.998 0 0 1-1.485-3.338l11.291-12.538a2 2 0 1 1 2.972 2.676l-11.291 12.538a1.993 1.993 0 0 1-1.487.662zM371.147 482.347a2 2 0 0 1-1.086-3.681l9.319-6.014a2 2 0 1 1 2.168 3.362l-9.319 6.014a2 2 0 0 1-1.082.319zM365.396 537.724c-7.022-5.194-13.357-13.355-13.357-20.033 0-5.424 3.709-8.333 7.706-8.333 3.595 0 5.765 1.483 7.192 3.309 1.427-1.826 3.709-3.309 7.306-3.309 3.995 0 7.706 2.909 7.706 8.333 0 6.678-6.337 14.839-13.357 20.033-.627.458-1.141.627-1.655.627-.4.001-.914-.169-1.541-.627z"/><g><path fill="#FFF" d="M473.67 710.69H322.614l-.592 143.929c81.073 0 148.244-64.456 151.648-143.929z"/><path d="M473.818 704.254c0-35.822-12.738-68.695-33.971-94.422-17.896-21.684-22.858-50.895-13.771-77.416a106.496 106.496 0 0 0 5.701-31.616c1.687-60.954-48.653-111.532-110.209-110.701l.093 28.467c44.171.05 79.962 35.531 79.962 79.294 0 43.591-35.514 78.962-79.445 79.287l.435 133.543H473.67c.092-2.135.148-4.279.148-6.436z"/></g><g><path d="M342.577 485.543c0 6.193 5.068 11.21 11.319 11.21 6.251 0 11.319-5.017 11.319-11.21 0-6.191-5.068-11.21-11.319-11.21-6.251 0-11.319 5.018-11.319 11.21z"/><path d="M331.483 488.247a2 2 0 0 1-1.642-3.139c5.494-7.928 14.56-12.661 24.248-12.661s18.752 4.733 24.248 12.661a2 2 0 1 1-3.287 2.279c-4.749-6.851-12.585-10.94-20.961-10.94-8.377 0-16.213 4.09-20.961 10.94a1.997 1.997 0 0 1-1.645.86z"/><path d="M360.746 477.256a1.998 1.998 0 0 1-1.485-3.338l11.291-12.538a2 2 0 1 1 2.972 2.676l-11.291 12.538a1.993 1.993 0 0 1-1.487.662z"/><g><path d="M371.147 482.347a2 2 0 0 1-1.086-3.681l9.319-6.014a2 2 0 1 1 2.168 3.362l-9.319 6.014a2 2 0 0 1-1.082.319z"/></g></g><g><path d="m372.891 710.67-25.19 47.923-25.19-47.923zM423.271 710.67l-25.19 47.923-25.19-47.923z"/><path d="m473.65 710.67-25.189 47.923-25.19-47.923z"/></g><g><path fill="#FFD829" d="M389.263 609.93a2 2 0 0 1-2-2v-23.847a2 2 0 0 1 4 0v23.847a2 2 0 0 1-2 2z"/><path fill="#FFD829" d="M401.185 598.007h-23.847a2 2 0 0 1 0-4h23.847a2 2 0 0 1 0 4z"/><path fill="#FFD829" d="M397.693 606.438a1.992 1.992 0 0 1-1.414-.586l-16.862-16.862a2 2 0 1 1 2.828-2.828l16.862 16.862a2 2 0 0 1-1.414 3.414z"/><path fill="#FFD829" d="M380.831 606.438a2 2 0 0 1-1.414-3.414l16.862-16.862a2 2 0 1 1 2.828 2.828l-16.862 16.862c-.391.39-.902.586-1.414.586z"/></g><g><path fill="#FFD829" d="M423.657 678.089a2 2 0 0 1-2-2v-23.847a2 2 0 0 1 4 0v23.847a2 2 0 0 1-2 2z"/><path fill="#FFD829" d="M435.58 666.166h-23.847a2 2 0 0 1 0-4h23.847a2 2 0 0 1 0 4z"/><path fill="#FFD829" d="M432.088 674.597a1.992 1.992 0 0 1-1.414-.586l-16.862-16.862a2 2 0 1 1 2.828-2.828l16.862 16.862a2 2 0 0 1-1.414 3.414z"/><path fill="#FFD829" d="M415.225 674.597a2 2 0 0 1-1.414-3.414l16.862-16.862a2 2 0 1 1 2.828 2.828l-16.862 16.862c-.39.39-.902.586-1.414.586z"/></g><g><path fill="#FFD829" d="M356.515 668.253a2 2 0 0 1-2-2v-23.848a2 2 0 0 1 4 0v23.848a2 2 0 0 1-2 2z"/><path fill="#FFD829" d="M368.438 656.329h-23.847a2 2 0 0 1 0-4h23.847a2 2 0 0 1 0 4z"/><path fill="#FFD829" d="M364.946 664.76a1.992 1.992 0 0 1-1.414-.586l-16.862-16.861a2 2 0 1 1 2.828-2.828l16.862 16.861a2 2 0 0 1-1.414 3.414z"/><path fill="#FFD829" d="M348.084 664.76a2 2 0 0 1-1.414-3.414l16.862-16.861a2 2 0 1 1 2.828 2.828l-16.862 16.861c-.391.39-.902.586-1.414.586z"/></g><g><path fill="#FFF" d="M320.727 856.619a2 2 0 0 1-2-2v-465.64a2 2 0 0 1 4 0V854.62a2 2 0 0 1-2 1.999z"/></g><g><path fill="#FFD829" d="M533.128 489.065c38.127 0 69.035 30.908 69.035 69.035s-30.908 69.035-69.035 69.035v-138.07zM533.482 733.827h126.004v4H533.482z"/><path fill="#FFF" d="M532.982 592.286a2 2 0 0 1 0-4c7.117 0 16.407-5.717 17.978-9.163a2 2 0 0 1 3.64 1.658c-2.499 5.484-13.812 11.505-21.618 11.505z"/><path d="M554.688 550.914c0 5.155 4.219 9.332 9.422 9.332s9.422-4.177 9.422-9.332c0-5.154-4.218-9.331-9.422-9.331-5.204 0-9.422 4.177-9.422 9.331z"/><path d="M545.453 550.997a2 2 0 0 1-1.642-3.139c4.637-6.689 12.285-10.684 20.46-10.684 8.173 0 15.821 3.994 20.459 10.684a2 2 0 1 1-3.287 2.279c-3.891-5.612-10.311-8.963-17.172-8.963-6.863 0-13.283 3.351-17.173 8.963a1.997 1.997 0 0 1-1.645.86z"/><g><path d="M659.362 735.827H533.621l-.493 119.809c67.486 0 123.401-53.655 126.234-119.809z"/><path fill="#FFF" d="M659.486 730.47c0-29.819-10.603-57.182-28.278-78.598-14.897-18.05-19.027-42.366-11.463-64.442a88.621 88.621 0 0 0 4.745-26.318c1.404-50.739-40.499-92.841-91.739-92.149l.077 23.696c36.768.041 66.562 29.576 66.562 66.005 0 36.286-29.562 65.729-66.131 66l.362 111.163h125.741c.076-1.777.124-3.562.124-5.357z"/></g><g><path fill="#FFD829" d="m617.605 735.827 20.868-39.702 20.869 39.702z"/><path fill="#FFD829" d="m575.868 735.827 20.868-39.702 20.869 39.702zM534.131 735.827l20.868-39.702 20.869 39.702z"/></g><g><path fill="#FFF" d="M531.997 857.636a2 2 0 0 1-2-2V468.013c0-22.872 18.607-41.479 41.479-41.479h150.632c22.871 0 41.479 18.607 41.479 41.479a2 2 0 0 1-4 0c0-20.666-16.812-37.479-37.479-37.479H571.476c-20.666 0-37.479 16.813-37.479 37.479v387.623a2 2 0 0 1-2 2z"/><path fill="#FFF" d="M761.587 509.738a2 2 0 0 1-2-2v-37.726h-227.59a2 2 0 0 1 0-4h229.59a2 2 0 0 1 2 2v39.726a2 2 0 0 1-2 2z"/></g></g><g><path fill="#FFD829" d="M715.874 554.931c33.756 0 61.121 27.365 61.121 61.121s-27.365 61.121-61.121 61.121V554.931zM716.277 756.394h99.969v4h-99.969z"/><path d="M715.881 645.925c10.489 0 14.115-7.706 15.707-11.199h-15.311v8.199M733.172 608.087c0 4.09 3.347 7.404 7.475 7.404s7.475-3.314 7.475-7.404c0-4.089-3.347-7.403-7.475-7.403-4.129 0-7.475 3.314-7.475 7.403z"/><g><path fill="#FFF" d="M816.148 758.393h-99.76l-.391 95.054c53.541 0 97.903-42.568 100.151-95.054z"/><path d="M816.246 754.143c0-23.657-8.412-45.367-22.435-62.358-11.819-14.32-15.096-33.612-9.094-51.127a70.318 70.318 0 0 0 3.765-20.88c1.114-40.255-32.131-73.658-72.784-73.109l.061 18.8c29.171.033 52.809 23.465 52.809 52.367 0 28.789-23.454 52.148-52.467 52.363l.288 88.194h99.76c.059-1.41.097-2.826.097-4.25z"/></g><g><ellipse fill="#FFF" cx="746.435" cy="631.644" rx="9.059" ry="9"/></g></g><g><path fill="#FFD829" d="M868.83 621.644c24.29 0 43.981 19.691 43.981 43.981s-19.691 43.981-43.981 43.981v-87.962zM868.825 775.934h79.418v4h-79.418z"/><path fill="#FFF" d="M867.809 690.653c10.783 0 17.516-4.46 17.516-13.557h-17.516v13.557z"/><path d="M879.386 661.386c0 3.249 2.659 5.882 5.938 5.882 3.28 0 5.938-2.632 5.938-5.882 0-3.248-2.659-5.881-5.938-5.881s-5.938 2.633-5.938 5.881z"/><g><path d="M948.165 777.933h-79.252l-.311 75.513c42.535.001 77.777-33.817 79.563-75.513z"/><path fill="#FFF" d="M948.243 774.557c0-18.794-6.683-36.041-17.823-49.539-9.389-11.376-11.992-26.702-7.225-40.617a55.86 55.86 0 0 0 2.991-16.587c.885-31.98-25.526-58.516-57.822-58.08l.049 14.935c23.174.026 41.953 18.642 41.953 41.602 0 22.87-18.632 41.428-41.681 41.598l.228 70.064h79.252c.048-1.12.078-2.244.078-3.376z"/></g></g><g><path fill="#FFF" d="M868.809 856.76a2 2 0 0 1-2-2V607.705c0-15.66 12.74-28.4 28.399-28.4h100.726a2 2 0 0 1 0 4H895.209c-13.454 0-24.399 10.946-24.399 24.4V854.76a2.002 2.002 0 0 1-2.001 2z"/><path fill="#FFF" d="M996.334 609.705H868.809a2 2 0 0 1 0-4h127.524a2 2 0 0 1 .001 4z"/></g><g><path fill="#FFF" d="M715.697 856.636a2 2 0 0 1-2-2V544.637c0-21.448 17.45-38.898 38.898-38.898H893.38c21.449 0 38.899 17.45 38.899 38.898v35.64a2 2 0 0 1-4 0v-35.64c0-19.243-15.656-34.898-34.899-34.898H752.596c-19.243 0-34.898 15.655-34.898 34.898v309.999a2.002 2.002 0 0 1-2.001 2z"/><path fill="#FFF" d="M930.28 546.637H715.697a2 2 0 0 1 0-4H930.28a2 2 0 0 1 0 4z"/></g><g><path fill="#FFD829" d="M82.944 333.06c53.622 0 97.091 43.469 97.091 97.091s-43.469 97.091-97.091 97.091V333.06zM82.657 682.233h178.934v4H82.657z"/><ellipse cx="131.29" cy="457.741" rx="22.265" ry="22.122"/><path d="M82.657 486.84a2 2 0 0 1 0-4 20.988 20.988 0 0 0 17.272-9.044 2 2 0 0 1 3.291 2.273 24.989 24.989 0 0 1-20.563 10.771zM111.456 417.269c0 7.343 5.991 13.293 13.38 13.293 7.389 0 13.38-5.949 13.38-13.293 0-7.341-5.991-13.292-13.38-13.292-7.39 0-13.38 5.95-13.38 13.292z"/><path d="M93.34 420.104a2 2 0 0 1-1.644-3.136c6.429-9.302 17.032-14.855 28.365-14.855s21.937 5.554 28.366 14.855a2 2 0 1 1-3.291 2.273c-5.682-8.221-15.056-13.129-25.075-13.129s-19.394 4.908-25.074 13.129a1.999 1.999 0 0 1-1.647.863z"/><path d="M127.931 407.071a1.999 1.999 0 0 1-1.487-3.336l13.347-14.866a1.997 1.997 0 0 1 2.824-.152c.822.738.891 2.003.152 2.824l-13.347 14.866a1.992 1.992 0 0 1-1.489.664z"/><g><path d="M140.225 413.107a1.999 1.999 0 0 1-1.089-3.679l11.017-7.131a2 2 0 1 1 2.174 3.358l-11.017 7.131a1.987 1.987 0 0 1-1.085.321z"/></g><g><path fill="#FFF" d="M261.931 675.933c0-42.636-15.114-81.762-40.308-112.382-21.234-25.808-27.122-60.576-16.34-92.142a127.062 127.062 0 0 0 6.764-37.63c2.001-72.548-57.729-132.747-130.769-131.759l.11 33.882c52.411.059 94.88 42.29 94.88 94.377 0 51.883-42.139 93.982-94.266 94.369l.517 158.945h179.236c.109-2.541.176-5.093.176-7.66z"/><path d="M261.755 683.593H82.519l.553 170.047c96.197 0 174.644-75.457 178.683-170.047zM121.53 833.69c-11.584 0-20.974-9.33-20.974-20.839 0-11.509 9.39-20.839 20.974-20.839s20.974 9.33 20.974 20.839c0 11.509-9.39 20.839-20.974 20.839zm0-88.134c-11.584 0-20.974-9.33-20.974-20.839 0-11.509 9.39-20.839 20.974-20.839s20.974 9.33 20.974 20.839c0 11.509-9.39 20.839-20.974 20.839zm50.075 42.317c-11.584 0-20.974-9.33-20.974-20.839s9.39-20.839 20.974-20.839 20.974 9.33 20.974 20.839-9.39 20.839-20.974 20.839zm26.877-64.191c0-11.509 9.39-20.839 20.974-20.839s20.974 9.33 20.974 20.839c0 11.509-9.39 20.839-20.974 20.839-11.583 0-20.974-9.33-20.974-20.839z"/></g><g><path fill="#FFF" d="M426.058 304.008a2 2 0 0 1-2-2c0-27.511-22.382-49.893-49.893-49.893H81.279a2 2 0 0 1 0-4h292.886c29.717 0 53.893 24.176 53.893 53.893a2 2 0 0 1-2 2z"/><path fill="#FFF" d="M426.058 343.364a2 2 0 0 1-2-2v-37.356H84.279a2 2 0 0 1 0-4h341.778a2 2 0 0 1 2 2v39.356c.001 1.105-.895 2-1.999 2z"/></g></g><g><path d="M996.334 857.031a2 2 0 0 1-2-2V247.594H83.279v607.438a2 2 0 0 1-4 0V245.594a2 2 0 0 1 2-2h915.055a2 2 0 0 1 2 2v609.438a2 2 0 0 1-2 1.999z"/></g><g><circle cx="540" cy="226.151" r="6.693"/></g><g><path fill="#FFF" d="M724.222 74.603c4.898-16.599 11.604-41.372 17.475-63.505 3.823-14.413 24.084-14.926 28.64-.727l20.498 63.878c3.092 9.635-4.095 19.489-14.214 19.489h-38.077c-9.965-.001-17.143-9.577-14.322-19.135zM821.75 74.603c4.898-16.599 11.604-41.372 17.475-63.505 3.823-14.413 24.084-14.926 28.64-.727l20.498 63.878c3.092 9.635-4.095 19.489-14.214 19.489h-38.077c-9.964-.001-17.142-9.577-14.322-19.135z"/><path d="M734.99 67.68c3.317-11.241 7.859-28.018 11.834-43.007 2.589-9.761 16.31-10.108 19.395-.492l13.882 43.259c2.094 6.525-2.773 13.198-9.626 13.198h-25.787c-6.748 0-11.608-6.486-9.698-12.958zM832.518 67.68c3.317-11.241 7.859-28.018 11.834-43.007 2.589-9.761 16.31-10.108 19.395-.492L877.63 67.44c2.094 6.525-2.773 13.198-9.626 13.198h-25.787c-6.748 0-11.609-6.486-9.699-12.958z"/><path fill="#FFF" d="M867.499 65.024H745.192c-26.081 0-47.223 21.143-47.223 47.223v89.776h216.753v-89.776c0-26.08-21.142-47.223-47.223-47.223z"/><path fill="#FFF" d="M705.339 236.796H690.6c-13.532 0-24.501-10.97-24.501-24.501v-33.441c0-13.745 11.142-24.887 24.887-24.887h38.855v58.328c-.001 13.531-10.971 24.501-24.502 24.501z"/><g><path fill="#FFF" d="M899.608 236.796h14.739c13.532 0 24.502-10.97 24.502-24.501v-33.441c0-13.745-11.142-24.887-24.887-24.887h-38.855v58.328c-.001 13.531 10.969 24.501 24.501 24.501z"/></g><g><path d="M846.881 118.871c-5.114-.017-9.289 4.13-9.306 9.157-.017 5.114 4.13 9.289 9.244 9.307 5.028.017 9.203-4.13 9.22-9.244.017-5.028-4.13-9.203-9.158-9.22zM794.667 163.078c5.895.02 9.374-3.609 12.248-7.5 2.847 3.911 6.303 7.563 12.197 7.583 2.167.007 4.076-.593 4.083-2.587.004-1.214-.946-2.344-2.333-2.348-.52-.002-1.474.168-2.081.166-2.774-.009-6.056-3.661-7.867-6.268 3.741-3.975 7.832-9.076 7.851-14.71.022-6.501-4.904-11.112-11.752-11.136-6.848-.023-11.805 4.555-11.827 11.056-.019 5.635 4.038 10.763 7.752 14.763-1.829 2.594-5.136 6.224-7.909 6.215-.607-.002-1.56-.179-2.08-.18-1.387-.005-2.344 1.119-2.348 2.333-.006 1.992 1.899 2.606 4.066 2.613zM767.164 118.602c-5.115-.017-9.289 4.13-9.306 9.157-.017 5.114 4.13 9.289 9.244 9.307 5.028.017 9.203-4.13 9.22-9.244.017-5.029-4.13-9.203-9.158-9.22z"/></g></g><g><path d="M1076 857.312v7.821c0 21.573-17.551 39.124-39.124 39.124H43.124C21.551 904.257 4 886.706 4 865.133v-7.821h1072m4-4H0v11.821c0 23.817 19.307 43.124 43.124 43.124h993.752c23.817 0 43.124-19.307 43.124-43.124v-11.821z"/></g><g fill="#FFF"><path d="M287.314 1060.699v16.201c2.5-.051 7.301-.2 8.501-.2 1.1 0 1.65.55 1.65 1.35 0 .851-.551 1.4-1.65 1.4h-17.301c-1.101 0-1.65-.55-1.65-1.4 0-.8.55-1.35 1.65-1.35 1.149 0 4.45.149 5.85.2v-16.201c-1.45.05-4.35.2-5.85.2-1.101 0-1.65-.551-1.65-1.4 0-.8.55-1.351 1.65-1.351h5.85v-1.75c0-6.75 2.9-9.95 8.201-9.95 1.7 0 3.35.3 4.45.65.899.3 1.45.8 1.45 1.6s-.601 1.3-1.4 1.3c-.5 0-1.15-.199-1.55-.3-1.15-.3-2-.5-3.001-.5-3.5 0-5.2 2.101-5.2 7.2v1.75h8.501c1.1 0 1.65.551 1.65 1.351 0 .85-.551 1.4-1.65 1.4-1.5 0-6.551-.15-8.501-.2z"/><path d="M295.814 1079.95h-17.301c-1.326 0-2.15-.729-2.15-1.9 0-.895.564-1.85 2.15-1.85.861 0 2.861.081 4.469.146l.881.034v-15.161l-1.101.045c-1.421.061-3.189.136-4.249.136-1.326 0-2.15-.729-2.15-1.9 0-1.124.844-1.851 2.15-1.851h5.35v-1.25c0-8.637 4.731-10.45 8.701-10.45 1.557 0 3.277.252 4.602.674 1.488.496 1.799 1.402 1.799 2.076 0 1.043-.799 1.8-1.9 1.8-.481 0-1.046-.149-1.458-.259l-.214-.057c-1.125-.293-1.932-.484-2.879-.484-3.295 0-4.7 2.004-4.7 6.7v1.25h8.001c1.307 0 2.15.727 2.15 1.851 0 1.172-.824 1.9-2.15 1.9-1.165 0-4.408-.089-6.776-.153l-1.225-.033v15.177c.96-.021 2.149-.054 3.324-.084 2.006-.054 3.968-.105 4.677-.105 1.307 0 2.15.726 2.15 1.85 0 1.17-.824 1.898-2.151 1.898zm-17.3-2.75c-.764 0-1.15.286-1.15.85 0 .223 0 .9 1.15.9h17.301c1.15 0 1.15-.678 1.15-.9 0-.563-.387-.85-1.15-.85-.705 0-2.656.052-4.65.104-1.396.037-2.812.075-3.841.096l-.51.011v-17.225l2.252.06c2.362.064 5.598.153 6.749.153 1.15 0 1.15-.678 1.15-.9 0-.564-.387-.851-1.15-.851h-9.001v-2.25c0-5.253 1.812-7.7 5.7-7.7 1.064 0 1.968.214 3.127.517l.222.058c.359.095.852.226 1.202.226.436 0 .9-.21.9-.8 0-.324-.115-.794-1.108-1.125-1.226-.391-2.833-.625-4.292-.625-5.182 0-7.701 3.091-7.701 9.45v2.25h-6.35c-.764 0-1.15.286-1.15.851 0 .223 0 .9 1.15.9 1.039 0 2.795-.074 4.206-.135.622-.026 1.189-.05 1.626-.065l.518-.018v17.237l-1.922-.074c-1.514-.061-3.587-.145-4.428-.145zM311.113 1059.199v11c0 5.451 2.601 7.051 6.301 7.051 2.85 0 5.85-1.9 5.85-6.95v-11.101c0-1 .551-1.601 1.501-1.601.85 0 1.449.601 1.449 1.601v19.201c0 1-.55 1.6-1.5 1.6-.85 0-1.45-.6-1.45-1.6v-1.45c-1.5 2-4.05 3.05-6.8 3.05-5 0-8.301-3-8.301-9v-11.801c0-1 .55-1.601 1.5-1.601.851.001 1.45.601 1.45 1.601z"/><path d="M324.714 1080.5c-1.148 0-1.95-.863-1.95-2.1v-.156c-1.572 1.447-3.799 2.256-6.3 2.256-5.511 0-8.801-3.552-8.801-9.5v-11.801c0-1.276.785-2.101 2-2.101 1.148 0 1.95.864 1.95 2.101v11c0 4.53 1.789 6.551 5.801 6.551 2.586 0 5.35-1.694 5.35-6.45v-11.101c0-1.276.785-2.101 2.001-2.101 1.147 0 1.949.864 1.949 2.101v19.201c0 1.276-.785 2.1-2 2.1zm-.95-5.05v2.95c0 .688.355 1.1.95 1.1.663 0 1-.37 1-1.1v-19.201c0-.689-.354-1.101-.949-1.101-.664 0-1.001.37-1.001 1.101v11.101c0 5.499-3.421 7.45-6.35 7.45-4.576 0-6.801-2.47-6.801-7.551v-11c0-.689-.355-1.101-.95-1.101-.663 0-1 .37-1 1.101V1071c0 5.402 2.844 8.5 7.801 8.5 2.709 0 5.041-1.039 6.399-2.85l.901-1.2zM353.814 1078.4v-11.151c0-5-2.601-6.9-5.851-6.9-3.55 0-6.301 1.9-6.301 6.951v11.101c0 1-.55 1.6-1.5 1.6-.85 0-1.45-.6-1.45-1.6V1059.2c0-1 .551-1.601 1.5-1.601.851 0 1.45.601 1.45 1.601v1.45c1.5-2.2 4.051-3.051 6.801-3.051 5 0 8.301 3 8.301 9.001v11.801c0 1-.551 1.6-1.5 1.6-.851-.001-1.45-.601-1.45-1.601z"/><path d="M355.264 1080.5c-1.148 0-1.95-.863-1.95-2.1v-11.151c0-5.29-2.91-6.4-5.351-6.4-2.646 0-5.801 1.119-5.801 6.451v11.101c0 1.275-.785 2.1-2 2.1-1.148 0-1.95-.863-1.95-2.1V1059.2c0-1.276.785-2.101 2-2.101 1.148 0 1.95.864 1.95 2.101v.087c1.493-1.437 3.643-2.188 6.301-2.188 5.511 0 8.801 3.552 8.801 9.501v11.801c0 1.275-.786 2.099-2 2.099zm-7.301-20.651c4.036 0 6.351 2.697 6.351 7.4v11.151c0 .688.355 1.1.95 1.1.663 0 1-.37 1-1.1v-11.8c0-5.402-2.844-8.501-7.801-8.501-2.033 0-4.792.491-6.388 2.832l-.913 1.34v-3.071c0-.689-.355-1.101-.95-1.101-.663 0-1 .37-1 1.101v19.201c0 .688.355 1.1.95 1.1.663 0 1-.37 1-1.1V1067.3c0-6.484 4.261-7.451 6.801-7.451zM377.813 1077.25c2.4 0 4.801-.95 6.851-2.7.7-.6 1.15-.95 1.9-.95.7 0 1.35.601 1.35 1.301 0 .75-.35 1.199-1.1 1.8-2.25 1.85-5.5 3.3-9.001 3.3-6.45 0-11.4-4.65-11.4-11.2 0-6.551 4.95-11.201 11.4-11.201 3.501 0 6.751 1.45 9.001 3.301.75.6 1.1 1.05 1.1 1.8 0 .7-.649 1.3-1.35 1.3-.75 0-1.2-.35-1.9-.95-2.05-1.75-4.45-2.7-6.851-2.7-4.3 0-8.351 3.301-8.351 8.451s4.051 8.448 8.351 8.448z"/><path d="M377.812 1080.5c-6.784 0-11.9-5.03-11.9-11.7 0-6.671 5.116-11.701 11.9-11.701 3.284 0 6.681 1.244 9.318 3.415.79.631 1.282 1.219 1.282 2.186 0 .959-.864 1.8-1.85 1.8-.978 0-1.584-.521-2.226-1.07-1.977-1.688-4.233-2.58-6.525-2.58-3.859 0-7.851 2.975-7.851 7.951s3.991 7.95 7.851 7.95c2.292 0 4.549-.893 6.526-2.58.67-.574 1.249-1.07 2.225-1.07.985 0 1.85.842 1.85 1.801 0 .97-.472 1.537-1.287 2.19-2.633 2.164-6.029 3.408-9.313 3.408zm0-22.401c-6.316 0-10.9 4.501-10.9 10.701s4.584 10.7 10.9 10.7c3.056 0 6.221-1.161 8.684-3.187.712-.57.917-.887.917-1.413 0-.411-.413-.801-.85-.801-.551 0-.887.24-1.575.83-2.131 1.818-4.679 2.82-7.176 2.82-4.351 0-8.851-3.348-8.851-8.95s4.5-8.951 8.851-8.951c2.497 0 5.045 1.002 7.175 2.82.688.59 1.023.83 1.576.83.437 0 .85-.389.85-.8 0-.527-.204-.844-.912-1.409-2.468-2.029-5.633-3.19-8.689-3.19zM417.362 1059.499c0 .85-.55 1.4-1.65 1.4-1.5 0-7.65-.15-9.851-.2v9.4c0 5.101 1.65 7.15 5.201 7.15 1.35 0 2.75-.35 3.5-.65 1.05-.399 1.5-.649 2.2-.649s1.25.5 1.25 1.25c0 .9-.55 1.35-1.801 1.9-1.05.449-3.149.899-5.149.899-5.701 0-8.151-2.95-8.151-9.851v-9.45c-1.5.05-4.45.2-5.9.2-1.1 0-1.649-.551-1.649-1.4 0-.8.55-1.351 1.649-1.351h5.9v-7.5c0-1 .551-1.601 1.501-1.601.85 0 1.449.601 1.449 1.601v7.5h9.851c1.101.001 1.65.552 1.65 1.352z"/><path d="M411.062 1080.5c-5.983 0-8.651-3.192-8.651-10.351v-8.932c-.369.014-.787.031-1.229.05-1.484.062-3.166.132-4.172.132-1.326 0-2.149-.729-2.149-1.9 0-1.124.844-1.851 2.149-1.851h5.4v-7c0-1.276.785-2.101 2.001-2.101 1.147 0 1.949.864 1.949 2.101v7h9.351c1.307 0 2.15.727 2.15 1.851 0 1.172-.824 1.9-2.15 1.9-1.252 0-5.757-.104-8.448-.168l-.902-.021v8.889c0 4.724 1.362 6.65 4.701 6.65 1.23 0 2.551-.309 3.313-.614l.574-.225c.698-.277 1.159-.461 1.812-.461.998 0 1.75.752 1.75 1.75 0 1.324-.993 1.871-2.1 2.358-1.094.47-3.28.943-5.349.943zm-7.651-20.317v9.967c0 6.642 2.217 9.351 7.651 9.351 1.934 0 3.955-.433 4.953-.859 1.28-.563 1.497-.9 1.497-1.44 0-.448-.302-.75-.75-.75-.462 0-.79.13-1.443.39l-.579.228c-.844.338-2.313.683-3.678.683-3.942 0-5.701-2.359-5.701-7.65v-9.912l1.926.045c2.688.062 7.185.167 8.425.167 1.15 0 1.15-.678 1.15-.9 0-.564-.387-.851-1.15-.851h-10.351v-8c0-.689-.354-1.101-.949-1.101-.664 0-1.001.37-1.001 1.101v8h-6.4c-.763 0-1.149.286-1.149.851 0 .223 0 .9 1.149.9.984 0 2.655-.069 4.13-.131.667-.027 1.282-.054 1.754-.069l.516-.02zM447.963 1078.05c0 .851-.551 1.4-1.65 1.4h-17.751c-1.101 0-1.65-.55-1.65-1.4 0-.8.55-1.35 1.65-1.35 1.35 0 6.05.149 8.5.2v-16.201c-2.25.05-7.15.2-8 .2-1.101 0-1.65-.551-1.65-1.4 0-.8.55-1.351 1.65-1.351h9.351c1 0 1.6.601 1.6 1.601v17.151c1.351-.051 4.95-.2 6.301-.2 1.098 0 1.649.55 1.649 1.35zm-12.651-27.451c0-1.7 1.3-2.75 3.101-2.75 1.8 0 3.1 1.05 3.1 2.75s-1.3 2.75-3.1 2.75c-1.802 0-3.101-1.05-3.101-2.75z"/><path d="M446.312 1079.95h-17.751c-1.326 0-2.15-.729-2.15-1.9 0-.895.564-1.85 2.15-1.85.823 0 2.893.056 4.938.11 1.092.029 2.176.059 3.062.079v-15.179c-.892.021-2.043.053-3.178.084-1.935.053-3.823.104-4.322.104-1.326 0-2.15-.729-2.15-1.9 0-1.124.844-1.851 2.15-1.851h9.351c1.275 0 2.1.824 2.1 2.101v16.632l.243-.01c1.647-.063 4.404-.171 5.558-.171 1.307 0 2.15.726 2.15 1.85 0 1.173-.824 1.901-2.151 1.901zm-17.751-2.75c-.764 0-1.15.286-1.15.85 0 .223 0 .9 1.15.9h17.751c1.15 0 1.15-.678 1.15-.9 0-.563-.387-.85-1.15-.85-1.134 0-3.879.106-5.519.171l-1.282.049v-17.671c0-.72-.38-1.101-1.1-1.101h-9.351c-.764 0-1.15.286-1.15.851 0 .223 0 .9 1.15.9.495 0 2.373-.052 4.295-.104 1.368-.038 2.76-.076 3.694-.097l.511-.011v17.223l-.511-.011c-.959-.02-2.264-.055-3.577-.09-2.035-.053-4.091-.109-4.911-.109zm9.851-23.351c-2.12 0-3.601-1.337-3.601-3.25s1.48-3.25 3.601-3.25c2.119 0 3.6 1.337 3.6 3.25s-1.481 3.25-3.6 3.25zm0-5.5c-1.58 0-2.601.883-2.601 2.25s1.021 2.25 2.601 2.25c1.579 0 2.6-.883 2.6-2.25s-1.021-2.25-2.6-2.25zM456.061 1068.8c0-6.501 4.95-11.201 11.4-11.201s11.4 4.7 11.4 11.201c0 6.5-4.95 11.2-11.4 11.2s-11.4-4.7-11.4-11.2zm19.751 0c0-4.95-3.801-8.451-8.351-8.451-4.551 0-8.351 3.501-8.351 8.451s3.8 8.45 8.351 8.45c4.55 0 8.351-3.5 8.351-8.45z"/><path d="M467.461 1080.5c-6.784 0-11.9-5.03-11.9-11.7 0-6.671 5.116-11.701 11.9-11.701s11.9 5.03 11.9 11.701c0 6.67-5.116 11.7-11.9 11.7zm0-22.401c-6.214 0-10.9 4.601-10.9 10.701s4.687 10.7 10.9 10.7 10.9-4.6 10.9-10.7-4.686-10.701-10.9-10.701zm0 19.651c-4.963 0-8.851-3.932-8.851-8.95 0-5.02 3.888-8.951 8.851-8.951s8.851 3.932 8.851 8.951c-.001 5.018-3.888 8.95-8.851 8.95zm0-16.901c-4.476 0-7.851 3.418-7.851 7.951 0 4.532 3.375 7.95 7.851 7.95s7.851-3.418 7.851-7.95c-.001-4.533-3.376-7.951-7.851-7.951zM503.812 1078.4v-11.151c0-5-2.601-6.9-5.851-6.9-3.55 0-6.301 1.9-6.301 6.951v11.101c0 1-.55 1.6-1.5 1.6-.85 0-1.45-.6-1.45-1.6V1059.2c0-1 .551-1.601 1.5-1.601.851 0 1.45.601 1.45 1.601v1.45c1.5-2.2 4.051-3.051 6.801-3.051 5 0 8.301 3 8.301 9.001v11.801c0 1-.551 1.6-1.5 1.6-.851-.001-1.45-.601-1.45-1.601z"/><path d="M505.262 1080.5c-1.148 0-1.95-.863-1.95-2.1v-11.151c0-5.29-2.91-6.4-5.351-6.4-2.646 0-5.801 1.119-5.801 6.451v11.101c0 1.275-.785 2.1-2 2.1-1.148 0-1.95-.863-1.95-2.1V1059.2c0-1.276.785-2.101 2-2.101 1.148 0 1.95.864 1.95 2.101v.087c1.493-1.437 3.643-2.188 6.301-2.188 5.511 0 8.801 3.552 8.801 9.501v11.801c0 1.275-.786 2.099-2 2.099zm-7.301-20.651c4.036 0 6.351 2.697 6.351 7.4v11.151c0 .688.355 1.1.95 1.1.663 0 1-.37 1-1.1v-11.8c0-5.402-2.844-8.501-7.801-8.501-2.033 0-4.792.491-6.388 2.832l-.913 1.34v-3.071c0-.689-.355-1.101-.95-1.101-.663 0-1 .37-1 1.101v19.201c0 .688.355 1.1.95 1.1.663 0 1-.37 1-1.1V1067.3c0-6.484 4.261-7.451 6.801-7.451zM568.261 1078.05c0 .851-.551 1.4-1.65 1.4H548.71c-1.1 0-1.65-.55-1.65-1.4 0-.8.551-1.35 1.65-1.35 1.5 0 3.801.149 5.301.2v-16.201c-1.4.05-3.851.2-5.301.2-1.1 0-1.65-.551-1.65-1.4 0-.8.551-1.351 1.65-1.351h6.65c1 0 1.601.601 1.601 1.601v1.45c1.25-2.5 4.15-3.601 6.75-3.601 1.601 0 3.65.4 5.051 1.4.649.45.95.95.95 1.6 0 .851-.65 1.4-1.351 1.4-.75 0-1.35-.3-1.95-.65-1-.6-2.15-1-3.55-1-3.601 0-5.9 3.2-5.9 7.65v8.901c2.25-.051 7.8-.2 9.65-.2 1.099.001 1.65.551 1.65 1.351z"/><path d="M566.61 1079.95h-17.901c-1.326 0-2.15-.729-2.15-1.9 0-1.124.844-1.85 2.15-1.85.984 0 2.271.062 3.515.121.45.021.887.043 1.286.06v-15.161l-1.133.052c-1.259.061-2.685.128-3.668.128-1.326 0-2.15-.729-2.15-1.9 0-1.124.844-1.851 2.15-1.851h6.65c1.224 0 2.032.758 2.097 1.945 1.637-1.813 4.174-2.495 6.254-2.495.763 0 3.4.107 5.342 1.493.778.54 1.159 1.197 1.159 2.007 0 1.065-.812 1.9-1.851 1.9-.896 0-1.606-.371-2.202-.719-1.048-.628-2.125-.932-3.298-.932-3.23 0-5.4 2.873-5.4 7.15v8.39l1.516-.037c2.621-.063 6.211-.151 7.635-.151 1.307 0 2.15.726 2.15 1.85 0 1.172-.825 1.9-2.151 1.9zm-17.901-2.75c-.764 0-1.15.286-1.15.85 0 .223 0 .9 1.15.9h17.901c1.15 0 1.15-.678 1.15-.9 0-.563-.387-.85-1.15-.85-1.412 0-4.994.088-7.609.151l-2.541.061v-9.413c0-4.875 2.572-8.15 6.4-8.15 1.359 0 2.604.351 3.807 1.071.627.365 1.107.579 1.693.579.412 0 .851-.315.851-.9 0-.476-.22-.831-.735-1.188-1.355-.968-3.35-1.312-4.766-1.312-2.141 0-5.076.87-6.303 3.324l-.947 1.895v-3.568c0-.72-.381-1.101-1.101-1.101h-6.65c-.764 0-1.15.286-1.15.851 0 .223 0 .9 1.15.9.96 0 2.373-.067 3.62-.126.62-.03 1.199-.058 1.663-.074l.518-.019v17.237l-.517-.018c-.53-.019-1.159-.049-1.817-.08-1.175-.056-2.506-.12-3.467-.12z"/><g><path d="M576.409 1068.85c0-6.65 5-11.251 11.351-11.251 6.15 0 11.001 4.2 11.001 10.301 0 .95-.45 1.601-1.65 1.601H579.46c.3 4.5 3.75 7.75 8.751 7.75 3.05 0 5.15-.95 7.15-2.35.55-.351.95-.801 1.7-.801.8 0 1.399.601 1.399 1.351s-.35 1.149-1.149 1.75c-1.851 1.45-5.15 2.8-9.251 2.8-6.75-.001-11.651-4.551-11.651-11.151zm3.25-2h15.951c-.351-3.9-3.95-6.501-7.851-6.501s-7.249 2.6-8.1 6.501z"/><path d="M588.059 1080.5c-7.154 0-12.15-4.791-12.15-11.65 0-6.699 5.095-11.751 11.851-11.751 6.664 0 11.501 4.542 11.501 10.801 0 1.335-.784 2.101-2.15 2.101H580.01c.515 4.061 3.747 6.75 8.2 6.75 2.582 0 4.57-.654 6.863-2.26.135-.086.245-.166.353-.244.419-.303.894-.646 1.635-.646 1.065 0 1.899.812 1.899 1.851 0 1.051-.611 1.596-1.35 2.149-2.313 1.812-5.887 2.899-9.551 2.899zm-.299-22.401c-6.287 0-10.851 4.521-10.851 10.751 0 6.271 4.585 10.65 11.15 10.65 5.108 0 8.137-2.062 8.942-2.693.771-.579.958-.845.958-1.356 0-.485-.387-.851-.899-.851-.417 0-.682.191-1.048.457-.124.089-.25.18-.384.266-1.706 1.194-3.938 2.428-7.419 2.428-5.124 0-8.928-3.379-9.25-8.217l-.035-.533h18.186c.817 0 1.15-.319 1.15-1.101.001-5.679-4.415-9.801-10.5-9.801zm8.397 9.251h-17.119l.133-.606c.885-4.06 4.417-6.895 8.589-6.895 4.403 0 7.992 2.99 8.349 6.956l.048.545zm-15.852-1h14.734c-.576-3.172-3.604-5.501-7.279-5.501-3.487 0-6.468 2.232-7.455 5.501z"/></g><g><path d="M617.859 1077.25c2.4 0 4.801-.95 6.851-2.7.7-.6 1.15-.95 1.9-.95.7 0 1.35.601 1.35 1.301 0 .75-.35 1.199-1.1 1.8-2.25 1.85-5.5 3.3-9.001 3.3-6.45 0-11.4-4.65-11.4-11.2 0-6.551 4.95-11.201 11.4-11.201 3.501 0 6.751 1.45 9.001 3.301.75.6 1.1 1.05 1.1 1.8 0 .7-.649 1.3-1.35 1.3-.75 0-1.2-.35-1.9-.95-2.05-1.75-4.45-2.7-6.851-2.7-4.3 0-8.351 3.301-8.351 8.451s4.051 8.448 8.351 8.448z"/><path d="M617.858 1080.5c-6.784 0-11.9-5.03-11.9-11.7 0-6.671 5.116-11.701 11.9-11.701 3.284 0 6.681 1.244 9.318 3.415.79.631 1.282 1.219 1.282 2.186 0 .959-.864 1.8-1.85 1.8-.978 0-1.584-.521-2.226-1.07-1.977-1.688-4.233-2.58-6.525-2.58-3.859 0-7.851 2.975-7.851 7.951s3.991 7.95 7.851 7.95c2.292 0 4.549-.893 6.526-2.58.67-.574 1.249-1.07 2.225-1.07.985 0 1.85.842 1.85 1.801 0 .97-.472 1.537-1.287 2.19-2.633 2.164-6.03 3.408-9.313 3.408zm0-22.401c-6.316 0-10.9 4.501-10.9 10.701s4.584 10.7 10.9 10.7c3.056 0 6.221-1.161 8.684-3.187.712-.57.917-.887.917-1.413 0-.411-.413-.801-.85-.801-.551 0-.887.24-1.575.83-2.131 1.818-4.679 2.82-7.176 2.82-4.351 0-8.851-3.348-8.851-8.95s4.5-8.951 8.851-8.951c2.497 0 5.045 1.002 7.175 2.82.688.59 1.023.83 1.576.83.437 0 .85-.389.85-.8 0-.527-.204-.844-.912-1.409-2.468-2.029-5.633-3.19-8.689-3.19z"/></g><g><path d="M641.158 1059.199v11c0 5.451 2.601 7.051 6.301 7.051 2.85 0 5.85-1.9 5.85-6.95v-11.101c0-1 .551-1.601 1.501-1.601.85 0 1.449.601 1.449 1.601v19.201c0 1-.55 1.6-1.5 1.6-.85 0-1.45-.6-1.45-1.6v-1.45c-1.5 2-4.05 3.05-6.8 3.05-5 0-8.301-3-8.301-9v-11.801c0-1 .55-1.601 1.5-1.601.851.001 1.45.601 1.45 1.601z"/><path d="M654.759 1080.5c-1.148 0-1.95-.863-1.95-2.1v-.156c-1.572 1.447-3.799 2.256-6.3 2.256-5.511 0-8.801-3.552-8.801-9.5v-11.801c0-1.276.785-2.101 2-2.101 1.148 0 1.95.864 1.95 2.101v11c0 4.53 1.789 6.551 5.801 6.551 2.586 0 5.35-1.694 5.35-6.45v-11.101c0-1.276.785-2.101 2.001-2.101 1.147 0 1.949.864 1.949 2.101v19.201c0 1.276-.785 2.1-2 2.1zm-.951-5.05v2.95c0 .688.355 1.1.95 1.1.663 0 1-.37 1-1.1v-19.201c0-.689-.354-1.101-.949-1.101-.664 0-1.001.37-1.001 1.101v11.101c0 5.499-3.421 7.45-6.35 7.45-4.576 0-6.801-2.47-6.801-7.551v-11c0-.689-.355-1.101-.95-1.101-.663 0-1 .37-1 1.101V1071c0 5.402 2.844 8.5 7.801 8.5 2.709 0 5.041-1.039 6.399-2.85l.901-1.2z"/></g><g><path d="M688.259 1078.05c0 .851-.551 1.4-1.65 1.4h-17.901c-1.1 0-1.65-.55-1.65-1.4 0-.8.551-1.35 1.65-1.35 1.5 0 3.801.149 5.301.2v-16.201c-1.4.05-3.851.2-5.301.2-1.1 0-1.65-.551-1.65-1.4 0-.8.551-1.351 1.65-1.351h6.65c1 0 1.601.601 1.601 1.601v1.45c1.25-2.5 4.15-3.601 6.75-3.601 1.601 0 3.65.4 5.051 1.4.649.45.95.95.95 1.6 0 .851-.65 1.4-1.351 1.4-.75 0-1.35-.3-1.95-.65-1-.6-2.15-1-3.55-1-3.601 0-5.9 3.2-5.9 7.65v8.901c2.25-.051 7.8-.2 9.65-.2 1.099.001 1.65.551 1.65 1.351z"/><path d="M686.608 1079.95h-17.901c-1.326 0-2.15-.729-2.15-1.9 0-1.124.844-1.85 2.15-1.85.984 0 2.271.062 3.515.121.45.021.887.043 1.286.06v-15.161l-1.133.052c-1.259.061-2.685.128-3.668.128-1.326 0-2.15-.729-2.15-1.9 0-1.124.844-1.851 2.15-1.851h6.65c1.224 0 2.032.758 2.097 1.945 1.637-1.813 4.174-2.495 6.254-2.495.763 0 3.4.107 5.342 1.493.778.54 1.159 1.197 1.159 2.007 0 1.065-.812 1.9-1.851 1.9-.896 0-1.606-.371-2.202-.719-1.048-.628-2.125-.932-3.298-.932-3.23 0-5.4 2.873-5.4 7.15v8.39l1.516-.037c2.621-.063 6.211-.151 7.635-.151 1.307 0 2.15.726 2.15 1.85 0 1.172-.825 1.9-2.151 1.9zm-17.901-2.75c-.764 0-1.15.286-1.15.85 0 .223 0 .9 1.15.9h17.901c1.15 0 1.15-.678 1.15-.9 0-.563-.387-.85-1.15-.85-1.412 0-4.994.088-7.609.151l-2.541.061v-9.413c0-4.875 2.572-8.15 6.4-8.15 1.359 0 2.604.351 3.807 1.071.627.365 1.107.579 1.693.579.412 0 .851-.315.851-.9 0-.476-.22-.831-.735-1.188-1.355-.968-3.35-1.312-4.766-1.312-2.141 0-5.076.87-6.303 3.324l-.947 1.895v-3.568c0-.72-.381-1.101-1.101-1.101h-6.65c-.764 0-1.15.286-1.15.851 0 .223 0 .9 1.15.9.96 0 2.373-.067 3.62-.126.62-.03 1.199-.058 1.663-.074l.518-.019v17.237l-.517-.018c-.53-.019-1.159-.049-1.817-.08-1.175-.056-2.506-.12-3.467-.12z"/></g><g><path d="M698.907 1077.851c-1.05-.551-1.55-1.051-1.55-1.9 0-.8.6-1.4 1.399-1.4.851 0 1.5.55 2.4 1.05 1.7.95 4.15 1.7 6.9 1.7 4.601 0 6.7-1.6 6.7-3.65 0-2.35-2.2-3.1-7.2-3.8-5.5-.75-9.45-2.101-9.45-6.25 0-4.351 4.4-6.001 9.051-6.001 2.899 0 5.899.7 8 1.75.7.351 1.1.75 1.1 1.5s-.55 1.4-1.399 1.4c-.55 0-1.101-.25-1.55-.45-2.101-.95-3.951-1.5-6.251-1.5-3.601 0-6 1.15-6 3.25 0 2.251 2.85 3.001 7.101 3.601 6.3.9 9.55 2.101 9.55 6.301 0 4.3-4 6.55-9.65 6.55-3.7-.002-6.851-.901-9.151-2.151z"/><path d="M708.057 1080.5c-3.431 0-6.765-.784-9.386-2.208-1.09-.572-1.814-1.189-1.814-2.342 0-1.083.816-1.9 1.899-1.9.794 0 1.414.376 2.069.774.183.11.371.226.574.338 1.862 1.041 4.288 1.638 6.657 1.638 3.883 0 6.2-1.178 6.2-3.15 0-1.828-1.519-2.569-6.77-3.305-5.131-.699-9.881-2.001-9.881-6.745 0-4.07 3.57-6.501 9.551-6.501 2.891 0 5.965.674 8.224 1.803.641.321 1.376.832 1.376 1.947 0 1.083-.816 1.9-1.899 1.9-.646 0-1.247-.268-1.729-.482-2.312-1.046-4.063-1.468-6.071-1.468-2.659 0-5.5.723-5.5 2.75 0 1.811 2.445 2.51 6.671 3.105 5.46.78 9.979 1.83 9.979 6.796.001 4.349-3.889 7.05-10.15 7.05zm-9.3-5.45a.87.87 0 0 0-.899.9c0 .509.204.893 1.282 1.458l.007.003c2.478 1.347 5.643 2.089 8.911 2.089 5.729 0 9.15-2.262 9.15-6.05 0-3.828-2.941-4.923-9.12-5.806-3.968-.56-7.53-1.294-7.53-4.096 0-2.348 2.43-3.75 6.5-3.75 2.161 0 4.032.447 6.457 1.545.438.195.91.405 1.344.405.591 0 .899-.453.899-.9 0-.415-.131-.706-.823-1.053-2.095-1.047-5.074-1.697-7.776-1.697-2.006 0-8.551.396-8.551 5.501 0 3.756 3.604 5.017 9.018 5.755 4.47.626 7.633 1.3 7.633 4.295 0 2.599-2.691 4.15-7.2 4.15-2.535 0-5.139-.643-7.145-1.764-.213-.118-.413-.24-.605-.356-.581-.351-1.039-.629-1.552-.629z"/></g><g><path d="M748.009 1078.05c0 .851-.551 1.4-1.65 1.4h-17.751c-1.101 0-1.65-.55-1.65-1.4 0-.8.55-1.35 1.65-1.35 1.35 0 6.05.149 8.5.2v-16.201c-2.25.05-7.15.2-8 .2-1.101 0-1.65-.551-1.65-1.4 0-.8.55-1.351 1.65-1.351h9.351c1 0 1.6.601 1.6 1.601v17.151c1.351-.051 4.95-.2 6.301-.2 1.098 0 1.649.55 1.649 1.35zm-12.651-27.451c0-1.7 1.3-2.75 3.101-2.75 1.8 0 3.1 1.05 3.1 2.75s-1.3 2.75-3.1 2.75c-1.802 0-3.101-1.05-3.101-2.75z"/><path d="M746.358 1079.95h-17.751c-1.326 0-2.15-.729-2.15-1.9 0-.895.564-1.85 2.15-1.85.823 0 2.893.056 4.938.11 1.092.029 2.176.059 3.062.079v-15.179c-.892.021-2.043.053-3.178.084-1.935.053-3.823.104-4.322.104-1.326 0-2.15-.729-2.15-1.9 0-1.124.844-1.851 2.15-1.851h9.351c1.275 0 2.1.824 2.1 2.101v16.632l.243-.01c1.647-.063 4.404-.171 5.558-.171 1.307 0 2.15.726 2.15 1.85 0 1.173-.825 1.901-2.151 1.901zm-17.751-2.75c-.764 0-1.15.286-1.15.85 0 .223 0 .9 1.15.9h17.751c1.15 0 1.15-.678 1.15-.9 0-.563-.387-.85-1.15-.85-1.134 0-3.879.106-5.519.171l-1.282.049v-17.671c0-.72-.38-1.101-1.1-1.101h-9.351c-.764 0-1.15.286-1.15.851 0 .223 0 .9 1.15.9.495 0 2.373-.052 4.295-.104 1.368-.038 2.76-.076 3.694-.097l.511-.011v17.223l-.511-.011c-.959-.02-2.264-.055-3.577-.09-2.035-.053-4.091-.109-4.911-.109zm9.851-23.351c-2.12 0-3.601-1.337-3.601-3.25s1.48-3.25 3.601-3.25c2.119 0 3.6 1.337 3.6 3.25s-1.481 3.25-3.6 3.25zm0-5.5c-1.58 0-2.601.883-2.601 2.25s1.021 2.25 2.601 2.25c1.579 0 2.6-.883 2.6-2.25s-1.021-2.25-2.6-2.25z"/></g><g><path d="M756.107 1068.8c0-6.501 4.95-11.201 11.4-11.201s11.4 4.7 11.4 11.201c0 6.5-4.95 11.2-11.4 11.2s-11.4-4.7-11.4-11.2zm19.751 0c0-4.95-3.801-8.451-8.351-8.451-4.551 0-8.351 3.501-8.351 8.451s3.8 8.45 8.351 8.45c4.55 0 8.351-3.5 8.351-8.45z"/><path d="M767.507 1080.5c-6.784 0-11.9-5.03-11.9-11.7 0-6.671 5.116-11.701 11.9-11.701s11.9 5.03 11.9 11.701c0 6.67-5.116 11.7-11.9 11.7zm0-22.401c-6.214 0-10.9 4.601-10.9 10.701s4.687 10.7 10.9 10.7 10.9-4.6 10.9-10.7-4.686-10.701-10.9-10.701zm0 19.651c-4.963 0-8.851-3.932-8.851-8.95 0-5.02 3.888-8.951 8.851-8.951s8.851 3.932 8.851 8.951c-.001 5.018-3.888 8.95-8.851 8.95zm0-16.901c-4.476 0-7.851 3.418-7.851 7.951 0 4.532 3.375 7.95 7.851 7.95s7.851-3.418 7.851-7.95c-.001-4.533-3.376-7.951-7.851-7.951z"/></g><g><path d="M803.858 1078.4v-11.151c0-5-2.601-6.9-5.851-6.9-3.55 0-6.301 1.9-6.301 6.951v11.101c0 1-.55 1.6-1.5 1.6-.85 0-1.45-.6-1.45-1.6V1059.2c0-1 .551-1.601 1.5-1.601.851 0 1.45.601 1.45 1.601v1.45c1.5-2.2 4.051-3.051 6.801-3.051 5 0 8.301 3 8.301 9.001v11.801c0 1-.551 1.6-1.5 1.6-.851-.001-1.45-.601-1.45-1.601z"/><path d="M805.307 1080.5c-1.148 0-1.95-.863-1.95-2.1v-11.151c0-5.29-2.91-6.4-5.351-6.4-2.646 0-5.801 1.119-5.801 6.451v11.101c0 1.275-.785 2.1-2 2.1-1.148 0-1.95-.863-1.95-2.1V1059.2c0-1.276.785-2.101 2-2.101 1.148 0 1.95.864 1.95 2.101v.087c1.493-1.437 3.643-2.188 6.301-2.188 5.511 0 8.801 3.552 8.801 9.501v11.801c0 1.275-.785 2.099-2 2.099zm-7.3-20.651c4.036 0 6.351 2.697 6.351 7.4v11.151c0 .688.355 1.1.95 1.1.663 0 1-.37 1-1.1v-11.8c0-5.402-2.844-8.501-7.801-8.501-2.033 0-4.792.491-6.388 2.832l-.913 1.34v-3.071c0-.689-.355-1.101-.95-1.101-.663 0-1 .37-1 1.101v19.201c0 .688.355 1.1.95 1.1.663 0 1-.37 1-1.1V1067.3c0-6.484 4.261-7.451 6.801-7.451z"/></g></g><g><path fill="#FFF" d="m525.008 1018.481-13.744-14.961c-11.152-12.138-27.001-19.099-43.483-19.099H55.55c-29.804 0-54.05-24.247-54.05-54.05h4c0 27.598 22.452 50.05 50.05 50.05h412.23c17.599 0 34.521 7.433 46.429 20.392l10.775 11.729 10.255-11.346a63.15 63.15 0 0 1 46.775-20.774h442.436c27.598 0 50.05-22.452 50.05-50.05h4c0 29.803-24.246 54.05-54.05 54.05H582.015a59.147 59.147 0 0 0-43.808 19.456l-13.199 14.603z"/></g></svg>