<svg xmlns="http://www.w3.org/2000/svg" viewBox="0 0 1080 1080" xml:space="preserve"><path fill="#FFF" d="M898.775 430.609a2 2 0 0 1-.303-3.976c9.144-1.415 16.997-3.578 24.008-6.612 29.004-12.553 53.396-34.553 66.923-60.359 9.392-17.917 11.854-34.162 8.499-56.072-6.974-45.544-53.928-63.257-73.792-68.759-2.57-.712-5.128-1.401-7.668-2.085-23.866-6.425-46.409-12.494-63.143-33.533-17.771-22.347-24.836-57.035-17.671-86.529-19.279-8.897-34.653-26.489-40.659-46.847-6.43-21.787-2.128-46.737 11.226-65.114a2 2 0 1 1 3.236 2.352c-12.64 17.394-16.711 41.009-10.626 61.63 5.63 19.081 19.952 35.593 37.948 44.091 2.335-6.804 7.01-14.947 13.983-19.227 4.695-2.885 11.508-3.308 16.566-1.03 3.776 1.699 6.232 4.771 6.916 8.647.803 4.556-.871 8.689-4.84 11.955-7.666 6.306-22.479 8.048-29.634 5.287l-.386-.15c-6.631 28.211.157 61.179 17.07 82.445 15.913 20.01 37.839 25.912 61.052 32.161 2.549.687 5.116 1.377 7.696 2.092 20.613 5.71 69.351 24.156 76.677 72.009 3.451 22.532.786 40.037-8.909 58.535-13.944 26.603-39.049 49.264-68.877 62.173-7.327 3.172-15.5 5.427-24.985 6.895a2.251 2.251 0 0 1-.307.021zm-58.344-320.212c.251.101.505.2.757.298 6.001 2.314 19.281.595 25.651-4.646 2.829-2.327 3.987-5.076 3.441-8.17-.459-2.606-2.014-4.522-4.618-5.695-3.797-1.709-9.313-1.369-12.833.792-6.192 3.801-10.352 11.254-12.398 17.421zM82.708 302.87c-.282 0-.569-.06-.842-.187-13.204-6.133-21.77-22.006-19.924-36.922 1.707-13.786 10.555-23.861 19.11-33.605 4.547-5.178 9.249-10.531 12.669-16.281 9.391-15.79 10.186-33.554 2.431-54.305-5.71-15.277-15.837-28.146-28.515-36.233-19.988-12.756-46.099-13.271-64.972-1.284a2.001 2.001 0 0 1-2.145-3.377c20.158-12.802 47.996-12.286 69.269 1.289 13.404 8.552 24.097 22.12 30.108 38.205 8.094 21.655 7.172 41.085-2.739 57.75-3.608 6.067-8.434 11.562-13.101 16.876-8.532 9.716-16.591 18.894-18.146 31.458-1.615 13.05 6.133 27.458 17.64 32.803a1.998 1.998 0 0 1-.843 3.813z"/><path d="M657.541 301.585H251.896v-1.973c0-18.315 14.847-33.163 33.163-33.163h339.319c18.315 0 33.163 14.847 33.163 33.163v1.973z"/><path d="M604.137 300.363c40.277-71.956 22.101-164.381-45.684-215.215a166.89 166.89 0 0 0-5.318-3.819c-.361-.275-.708-.562-1.071-.834-73.865-55.393-178.65-40.419-234.043 33.446-42.024 56.037-43.533 129.861-9.568 186.422h295.684z"/><path d="m338.804 170.325-68.942-81.468c-5.218-6.166-1.257-15.649 6.797-16.271l106.407-8.223-44.262 105.962zM568.434 170.325l68.942-81.468c5.218-6.166 1.257-15.649-6.797-16.271l-106.407-8.223 44.262 105.962z"/><path fill="#FFF" d="M393.852 230.374c-.272 0-.55-.057-.815-.175l-123.146-55.03a2.002 2.002 0 0 1-1.01-2.643 1.999 1.999 0 0 1 2.643-1.01l123.146 55.03a2.002 2.002 0 0 1-.818 3.828zM395.656 242.25c-.08 0-.16-.005-.241-.015l-160.669-19.273a1.999 1.999 0 1 1 .477-3.971l160.669 19.273a2 2 0 0 1-.236 3.986zM279.428 283.662a2 2 0 0 1-.509-3.933l115.418-30.425a1.996 1.996 0 0 1 2.443 1.424 1.998 1.998 0 0 1-1.424 2.443l-115.418 30.425a2 2 0 0 1-.51.066zM516.065 230.374a2.002 2.002 0 0 1-.817-3.828l123.146-55.03a2.002 2.002 0 0 1 1.633 3.653l-123.146 55.03a2.008 2.008 0 0 1-.816.175zM514.261 242.25a1.998 1.998 0 0 1-1.982-1.762 1.999 1.999 0 0 1 1.747-2.224l160.669-19.273a1.999 1.999 0 1 1 .477 3.971l-160.669 19.273a1.99 1.99 0 0 1-.242.015zM630.489 283.662c-.168 0-.34-.021-.511-.066l-115.417-30.425a1.999 1.999 0 1 1 1.019-3.867l115.417 30.425a1.999 1.999 0 0 1-.508 3.933z"/><g><path d="M897.821 862.171H54.04a2 2 0 0 1-2-2V337.643c0-20.985 17.072-38.058 38.058-38.058h771.666c20.985 0 38.058 17.072 38.058 38.058v522.528a2.002 2.002 0 0 1-2.001 2zm-841.781-4h839.781V337.643c0-18.779-15.278-34.058-34.058-34.058H90.098c-18.779 0-34.058 15.278-34.058 34.058v520.528z"/><path d="M867.757 862.171a2 2 0 0 1-2-2V345.78H86.255v514.391a2 2 0 0 1-4 0V343.78a2 2 0 0 1 2-2h783.502a2 2 0 0 1 2 2v516.391a2 2 0 0 1-2 2z"/><path d="M927.131 905.355H30.227c-17.164 0-31.128-13.964-31.128-31.128V860.17a2 2 0 0 1 2-2h955.159a2 2 0 0 1 2 2v14.057c.001 17.165-13.963 31.128-31.127 31.128zM3.1 862.171v12.057c0 14.958 12.17 27.128 27.128 27.128h896.903c14.958 0 27.128-12.17 27.128-27.128v-12.057H3.1z"/><circle cx="476.006" cy="322.683" r="9.042"/></g><g><path fill="#FFF" d="m464.212 206.029-5.556 8.22c-1.755 2.596-5.571 2.615-7.351.036l-5.637-8.165c-2.033-2.945.063-6.963 3.641-6.981l11.194-.055c3.577-.017 5.713 3.98 3.709 6.945z"/><path fill="#FFF" d="M470.992 238.178c-.79 0-1.517-.472-1.833-1.205-.81-1.312-7.603-9.658-14.2-17.602-6.599 7.944-13.393 16.291-14.201 17.603a2 2 0 0 1-3.778-1.272c.13-.531.348-1.42 16.169-20.41a2 2 0 0 1 1.778-1.085c.707 0 1.381.372 1.745.97 15.917 19.103 16.135 19.994 16.265 20.527a2 2 0 0 1-1.945 2.474zm-30.127-1.525v.002-.002zm28.186-.002.001.002-.001-.002z"/></g><g><ellipse transform="rotate(-56.59 394.035 189.18)" fill="#FFF" cx="394.02" cy="189.168" rx="18.549" ry="44.229"/><circle cx="394.02" cy="189.168" r="18.549"/><g><ellipse transform="rotate(-33.41 515.942 189.18)" fill="#FFF" cx="515.897" cy="189.168" rx="44.229" ry="18.549"/><circle cx="515.898" cy="189.168" r="18.549"/></g></g><g><path d="M897.821 694.944v148.328c18.665 0 33.851 15.186 33.851 33.851v20.699c0 18.665-15.186 33.851-33.851 33.851H497.347c-40.96 0-74.164 33.204-74.164 74.164s33.204 74.164 74.164 74.164h400.475C998.275 1080 1080 998.275 1080 897.821v-20.699c0-100.453-81.725-182.178-182.179-182.178z"/></g><g><path d="M757.198 265.803h-48.657c-11.245 0-21.42 4.574-28.771 11.961l-.001-.001-24.035 23.447h12.556a40.906 40.906 0 0 0-.341 5.187v32.495c0 27.483 19.536 50.399 45.477 55.63V350.72a2 2 0 0 1 4 0v44.445c2.385.306 4.81.48 7.277.48h16.333c2.468 0 4.893-.175 7.277-.48V350.72a2 2 0 0 1 4 0v43.802c25.942-5.231 45.477-28.147 45.477-55.63v-32.495c.001-22.42-18.173-40.594-40.592-40.594z"/></g><g><path d="m253.896 301.209-24.035-23.447-.001.001c-7.351-7.387-17.526-11.961-28.771-11.961h-48.657c-22.419 0-40.593 18.174-40.593 40.593v32.495c0 27.483 19.535 50.399 45.477 55.63v-43.8a2 2 0 0 1 4 0v44.445c2.385.306 4.81.48 7.278.48h16.333c2.468 0 4.893-.175 7.278-.48V350.72a2 2 0 0 1 4 0v43.801c25.941-5.231 45.477-28.147 45.477-55.63v-32.495c0-1.759-.124-3.487-.341-5.187h12.555z"/></g><g><path d="M555.972 480.783H371.436v-.92c0-8.32 6.744-15.064 15.064-15.064h154.409c8.32 0 15.064 6.744 15.064 15.064v.92z"/><path d="M531.678 480.227c18.323-32.734 10.054-74.78-20.783-97.906a76.192 76.192 0 0 0-2.419-1.737c-.164-.125-.322-.255-.487-.379-33.603-25.2-81.271-18.388-106.471 15.215-19.117 25.492-19.804 59.076-4.353 84.807h134.513z"/><path d="m410.972 421.071-31.363-37.062c-2.374-2.805-.572-7.119 3.092-7.402l48.407-3.741-20.136 48.205zM515.436 421.071l31.363-37.062c2.374-2.805.572-7.119-3.092-7.402l-48.407-3.741 20.136 48.205zM665.281 736.896H281.427a2 2 0 0 1-2-2V516.842c0-20.985 17.073-38.059 38.059-38.059h311.737c20.985 0 38.059 17.073 38.059 38.059v218.054a2.002 2.002 0 0 1-2.001 2zm-381.854-4h379.854V516.842c0-18.78-15.278-34.059-34.059-34.059H317.485c-18.78 0-34.059 15.278-34.059 34.059v216.054z"/><path d="M678.614 756.541h-408.02c-8.409 0-15.251-6.842-15.251-15.251v-6.395a2 2 0 0 1 2-2h434.521a2 2 0 0 1 2 2v6.395c.001 8.409-6.841 15.251-15.25 15.251zm-419.27-19.645v4.395c0 6.204 5.047 11.251 11.251 11.251h408.02c6.204 0 11.251-5.047 11.251-11.251v-4.395H259.344z"/><path fill="#FFF" d="m468.023 439.435-2.528 3.74a2.025 2.025 0 0 1-3.344.017l-2.565-3.714c-.925-1.34.029-3.168 1.656-3.176l5.092-.025c1.629-.009 2.601 1.809 1.689 3.158z"/><ellipse transform="rotate(-56.59 436.106 429.664)" fill="#FFF" cx="436.091" cy="429.642" rx="8.438" ry="20.121"/><circle cx="436.091" cy="429.642" r="8.438"/><ellipse transform="rotate(-33.41 491.58 429.675)" fill="#FFF" cx="491.536" cy="429.642" rx="20.121" ry="8.438"/><circle cx="491.536" cy="429.642" r="8.438"/><g><path d="M665.281 659.73v67.477c8.491 0 15.399 6.908 15.399 15.399v9.417c0 8.491-6.908 15.399-15.399 15.399H483.097c-18.633 0-33.739 15.105-33.739 33.739s15.105 33.739 33.739 33.739h182.184c45.698 0 82.877-37.178 82.877-82.877v-9.417c0-45.697-37.179-82.876-82.877-82.876z"/></g><g><path d="M642.908 736.896H301.544a2 2 0 0 1-2-2V509.548a2 2 0 0 1 2-2h341.364a2 2 0 0 1 2 2v225.348a2 2 0 0 1-2 2zm-339.364-4h337.364V511.548H303.544v221.348z"/></g><g><path d="m380.536 470.381-9.781-9.541a16.465 16.465 0 0 0-11.708-4.867h-19.8c-9.123 0-16.518 7.395-16.518 16.518v13.223c0 10.836 7.464 19.925 17.531 22.416v-17.602a1.789 1.789 0 0 1 3.578 0v18.191c.655.056 1.316.091 1.986.091h6.647c.67 0 1.331-.035 1.986-.091v-18.191a1.789 1.789 0 0 1 3.578 0v17.602c10.066-2.491 17.531-11.58 17.531-22.416v-13.223c0-.715-.051-1.419-.139-2.11h5.109z"/></g><g><path d="m546.876 470.381 9.781-9.541a16.465 16.465 0 0 1 11.708-4.867h19.8c9.123 0 16.518 7.395 16.518 16.518v13.223c0 10.836-7.464 19.925-17.531 22.416v-17.602a1.789 1.789 0 0 0-3.578 0v18.191c-.655.056-1.316.091-1.986.091h-6.647c-.67 0-1.331-.035-1.986-.091v-18.191a1.789 1.789 0 0 0-3.578 0v17.602c-10.066-2.491-17.531-11.58-17.531-22.416v-13.223c0-.715.051-1.419.139-2.11h-5.109z"/></g></g><g><path fill="#FFF" d="M424.099 449.808h-53.378a2 2 0 0 1 0-4h46.405l-42.718-26.701a2.001 2.001 0 0 1 2.121-3.393l48.63 30.397a2.002 2.002 0 0 1-1.06 3.697z"/></g><g><path fill="#FFF" d="M553.513 449.808h-53.378a2 2 0 0 1-1.061-3.696l48.63-30.397a2.001 2.001 0 0 1 2.121 3.393l-42.718 26.701h46.405a2 2 0 0 1 .001 3.999z"/></g><g><path fill="#FFD829" d="M533.869 565.65c-13.488 0-29.586 8.06-49.215 24.641a264.537 264.537 0 0 0-12.428 11.226 264.537 264.537 0 0 0-12.428-11.226c-19.629-16.581-35.727-24.641-49.215-24.641-31.526 0-57.175 25.648-57.175 57.175S379.057 680 410.583 680c13.488 0 29.586-8.06 49.215-24.641a264.537 264.537 0 0 0 12.428-11.226c3.565 3.424 7.8 7.317 12.428 11.226C504.283 671.94 520.382 680 533.869 680c31.526 0 57.175-25.649 57.175-57.175s-25.648-57.175-57.175-57.175zm-93.604 67.06c-19.648 16.544-28.172 17.383-29.682 17.383-15.036 0-27.268-12.233-27.268-27.268s12.232-27.268 27.268-27.268c1.509 0 10.034.838 29.682 17.382a232.882 232.882 0 0 1 10.969 9.885 231.714 231.714 0 0 1-10.969 9.886zm93.604 17.383c-1.509 0-10.033-.838-29.681-17.383a232.882 232.882 0 0 1-10.969-9.885 232.276 232.276 0 0 1 10.969-9.885c19.648-16.544 28.172-17.382 29.681-17.382 15.036 0 27.268 12.232 27.268 27.268s-12.232 27.267-27.268 27.267z"/></g></svg>