<svg xmlns="http://www.w3.org/2000/svg" fill="none" viewBox="0 0 111 112"><g clip-path="url(#a)"><mask id="b" width="116" height="116" x="0" y="1" maskUnits="userSpaceOnUse"><path fill="#fff" d="M108.7 1.43H6.45A6.46 6.46 0 0 0 0 7.9v102.2c0 3.56 2.9 6.45 6.46 6.45h102.23a6.46 6.46 0 0 0 6.46-6.45V7.89c0-3.57-2.9-6.46-6.46-6.46z"/></mask><g mask="url(#b)"><path fill="#fff" d="M50.91 27.14s-8.56-.75-13 1.57c-2.77 2.25-3.31 6.47-3.31 6.47l-1.25 24.97-.36 1.84-6.15 1.77-1.25 1.75-6.15 3.8.98 2.03 4.55 2.49 3.3.93-.27 1.66-2.4 4.9-6.07 8.13-4.1 6.57-4.37 10.08-1.6 6.39h91.65l-.53-3.8-2.32-6.38-2.94-6.47-8.47-12.11-3.48-5.28-9.27-17.29-6.78-31.72-3.39-1.1-7.3-2.68-4.11-2.13-.18.74.18 1.39.98 1.1-2.59.38z"/><path fill="#020202" d="M80.77 79.13c7.44 5.93 14.89 3.2 14.89 3.2s-11.29-6.5-13.44-14.12c0 0 2 1.03 3.63 0 0 0-7.99-8.86-8.35-20.34-.36-11.5 11.17-36.35 8.35-37.76-2.81-1.4-19.25 18.74-19.25 18.74l-2.36-.76s-7.53 5.75-7.62 18.84C56.52 60 65.79 63.5 69.24 66.8c4.54 4.33 4.08 6.4 11.53 12.34v-.01z"/><path fill="#fff" d="M43.88 48.45c-1.14 4.64-4.14 7.84-6.71 7.17-2.57-.68-3.74-4.98-2.6-9.62 1.13-4.63 4.14-7.84 6.7-7.16 2.58.67 3.74 4.97 2.6 9.61h.01z"/><path fill="#020202" d="M47.54 42.2c3.72 15.93-16.9 20.83-16.9 20.83s2.98-8.48 1.28-21.94-12.17-29.57-8.36-29.57c3.82 0 20.25 14.78 23.98 30.7v-.01z"/><path fill="#000" fill-rule="evenodd" d="M57.29 25.57c.87.46 1.72.84 2.45 1.03a61.52 61.52 0 0 1 7.12 2.25l.04.01-.11.36-.13.36-.04-.02a63.32 63.32 0 0 0-7.05-2.23c-.81-.2-1.72-.63-2.6-1.08-.85-.45-1.7-.91-2.53-1.4-.38-.21-.73-.4-1.03-.52a3.02 3.02 0 0 0-.83-.26c0 .03 0 .11.03.27a5.66 5.66 0 0 0 1.19 2.37l.55.68-6.02-.33a.35.35 0 0 1-.25-.13.38.38 0 0 1-.1-.27.4.4 0 0 1 .13-.26.36.36 0 0 1 .26-.1l4.42.25-.1-.16a6.45 6.45 0 0 1-.79-1.88c-.06-.32-.08-.68.12-.94.22-.27.55-.28.8-.24.26.04.56.16.88.3.33.15.7.34 1.08.55l.9.5 1.61.9zm9.84 3.79a.38.38 0 0 1-.19.21.35.35 0 0 1-.28 0l.13-.35.12-.35c.19.07.29.28.22.48z" clip-rule="evenodd"/><path fill="#fff" d="M43.81 47.29c0 2.75-1.78 4.98-3.98 4.98s-3.98-2.23-3.98-4.98c0-2.75 1.79-4.98 3.98-4.98 2.2 0 3.98 2.23 3.98 4.98zm24.44.57c0 2.75-1.78 4.98-3.98 4.98s-3.98-2.23-3.98-4.98c0-2.76 1.78-4.98 3.98-4.98s3.98 2.22 3.98 4.98z"/><path fill="#000" fill-rule="evenodd" d="M40.14 58.07c.13.16.11.4-.04.53-2.29 2.04-5.88 3.48-9.54 4.5-3.33.89-6.7 1.55-10.12 1.97-.93.13-1.7.63-2.1 1.25-.39.62-.44 1.38.07 2.12 1.86 2.74 6.28 6.31 16.79 6.64 8.85.28 14.8-1.24 18.5-2.82a20.6 20.6 0 0 0 4-2.2c.41-.3.8-.62 1.18-.97l.01-.01.26-.28.26.27h.02l.2.2c.14.12.34.28.6.44.5.32 1.15.61 1.81.57a.35.35 0 0 1 .26.1.37.37 0 0 1 .13.25.39.39 0 0 1-.1.27.36.36 0 0 1-.24.13 3.84 3.84 0 0 1-2.25-.68 6.02 6.02 0 0 1-.68-.5l-.06.06c-.22.18-.54.45-.98.77-.88.63-2.23 1.46-4.14 2.28-3.81 1.61-9.86 3.16-18.8 2.87-10.67-.33-15.34-3.97-17.37-6.95a2.59 2.59 0 0 1-.08-2.97 3.71 3.71 0 0 1 2.62-1.58c2.67-.34 6.4-.96 10.03-1.97 3.63-1 7.1-2.4 9.25-4.33a.36.36 0 0 1 .26-.09.35.35 0 0 1 .25.13z" clip-rule="evenodd"/><path fill="#000" d="M42.68 48.9c-.45 1.84-1.64 3.12-2.66 2.85-1.02-.27-1.49-1.97-1.04-3.82.46-1.84 1.65-3.1 2.67-2.84 1.02.27 1.48 1.97 1.03 3.82zm24.42.67c-.45 1.84-1.64 3.11-2.66 2.84-1.02-.27-1.48-1.98-1.03-3.82.45-1.84 1.64-3.12 2.66-2.85 1.02.27 1.49 1.98 1.03 3.82v.01z"/><path fill="#000" fill-rule="evenodd" d="M25.37 80.68c1.51-2.3 2.47-4.27 2.55-6.09l.73.04c-.1 2.04-1.16 4.16-2.68 6.48-.9 1.38-2 2.87-3.17 4.47-.8 1.09-1.64 2.23-2.48 3.42-4.21 5.96-8.76 13.53-10.38 23.9l-.72-.12c1.65-10.54 6.28-18.22 10.51-24.23a271.9 271.9 0 0 1 2.51-3.46c1.08-1.44 2.12-2.9 3.13-4.4zm59.95 0c-1.51-2.3-2.47-4.27-2.55-6.09l-.73.04c.1 2.04 1.16 4.16 2.68 6.48.9 1.38 2 2.87 3.17 4.47.8 1.09 1.64 2.23 2.48 3.42 4.21 5.96 8.76 13.53 10.38 23.9l.72-.12c-1.65-10.54-6.28-18.22-10.51-24.23a271.9 271.9 0 0 0-2.51-3.46 97.23 97.23 0 0 1-3.13-4.4z" clip-rule="evenodd"/><path fill="#000" fill-rule="evenodd" d="M25.37 80.68c1.51-2.3 2.47-4.27 2.55-6.09l.73.04c-.1 2.04-1.16 4.16-2.68 6.48-.9 1.38-2 2.87-3.17 4.47-.8 1.09-1.64 2.23-2.48 3.42-4.21 5.96-8.76 13.53-10.38 23.9l-.72-.12c1.65-10.54 6.28-18.22 10.51-24.23a271.9 271.9 0 0 1 2.51-3.46c1.08-1.44 2.12-2.9 3.13-4.4z" clip-rule="evenodd"/><path fill="#000" fill-rule="evenodd" d="m26.95 78.85.25-.28.24-.28.13.11.4.35a49.35 49.35 0 0 0 7.41 5.08c5.03 2.8 12.15 5.66 20.52 5.84 9.97.19 19.7-3.23 27.5-9.66l.02-.02h.01l.24.27.25.28h-.01a42.59 42.59 0 0 1-28.04 9.87c-8.5-.18-15.74-3.07-20.83-5.91a50.06 50.06 0 0 1-8.08-5.65h-.01z" clip-rule="evenodd"/><path fill="#000" fill-rule="evenodd" d="M25.04 84.66c.06-.2.26-.3.45-.25 2.2.73 4.93 2.32 7.78 4.28 2.85 1.96 5.84 4.3 8.55 6.55 3.21 2.67 6.34 5.43 9.4 8.28l4.87-13.6a.38.38 0 0 1 .19-.21.35.35 0 0 1 .4.07.38.38 0 0 1 .11.26c0 .05 0 .1-.02.14l-5.25 14.65-.4-.38.25-.28-.25.28-.02-.02a122.86 122.86 0 0 0-18.23-15.12c-2.84-1.94-5.5-3.48-7.6-4.17a.36.36 0 0 1-.21-.19.38.38 0 0 1-.02-.29z" clip-rule="evenodd"/><path fill="#000" fill-rule="evenodd" d="M88.02 84.66a.38.38 0 0 0-.18-.22.35.35 0 0 0-.28-.03c-2.2.73-4.93 2.32-7.78 4.28-2.94 2.05-5.8 4.24-8.55 6.55a215.12 215.12 0 0 0-9.4 8.28l-4.87-13.6a.38.38 0 0 0-.19-.21.35.35 0 0 0-.4.06.38.38 0 0 0-.11.27c0 .05 0 .1.02.14l5.25 14.65.4-.38-.25-.28.25.28.02-.02.03-.02.7-.67c2.92-2.73 5.93-5.37 9-7.9 2.7-2.26 5.68-4.58 8.5-6.53 2.84-1.94 5.5-3.48 7.6-4.17.19-.06.3-.28.24-.48z" clip-rule="evenodd"/><path fill="#000" d="m22.11 64.44 5.09-.66s0 2.35-3.27 3.76c-3.27 1.42-3.27 3.78-3.27 3.78l-3.09-3.3.46-1.89L19.12 65l3-.56h-.01z"/></g></g><defs><clipPath id="a"><path fill="#fff" d="M0 0h111v112H0z"/></clipPath></defs></svg>