<svg xmlns="http://www.w3.org/2000/svg" viewBox="0 0 1920 1080" xml:space="preserve"><path fill="#FFF" d="m3.271 1080-.007-3.994 1916.627.042.008 3.993z"/><path d="M275.526 333.68H2.201v-4.952c0-13.807 11.193-25 25-25h223.325c13.807 0 25 11.193 25 25v4.952z"/><path d="M277.523 335.677H.204v-6.989c0-14.864 12.093-26.957 26.957-26.957h223.405c14.864 0 26.957 12.093 26.957 26.957v6.989zM4.197 331.683h269.332v-2.995c0-12.662-10.301-22.963-22.963-22.963H27.161c-12.662 0-22.963 10.301-22.963 22.963v2.995z"/><path d="M265.542 415.924H12.185c-6.606 0-11.981-5.374-11.981-11.981v-71.885h277.319v71.885c0 6.607-5.375 11.981-11.981 11.981zM4.197 336.052v67.891c0 4.404 3.583 7.987 7.987 7.987h253.357c4.404 0 7.987-3.583 7.987-7.987v-67.891H4.197zM275.526 185.517H2.201v-4.952c0-13.807 11.193-25 25-25h223.325c13.807 0 25 11.193 25 25v4.952z"/><path d="M277.523 187.514H.204v-6.989c0-14.864 12.093-26.957 26.957-26.957h223.405c14.864 0 26.957 12.093 26.957 26.957v6.989zM4.197 183.521h269.332v-2.995c0-12.662-10.301-22.963-22.963-22.963H27.161c-12.662 0-22.963 10.301-22.963 22.963v2.995z"/><path d="M265.542 267.762H12.185c-6.606 0-11.981-5.374-11.981-11.981v-71.885h277.319v71.885c0 6.607-5.375 11.981-11.981 11.981zM4.197 187.89v67.891c0 4.404 3.583 7.987 7.987 7.987h253.357c4.404 0 7.987-3.583 7.987-7.987V187.89H4.197zM591.337 333.68H318.011v-4.952c0-13.807 11.193-25 25-25h223.325c13.807 0 25 11.193 25 25v4.952z"/><path d="M593.333 335.677H316.015v-6.989c0-14.864 12.093-26.957 26.957-26.957h223.405c14.864 0 26.957 12.093 26.957 26.957v6.989zm-273.325-3.994H589.34v-2.995c0-12.662-10.301-22.963-22.963-22.963H342.972c-12.662 0-22.963 10.301-22.963 22.963v2.995z"/><path d="M581.352 415.924H327.996c-6.606 0-11.981-5.374-11.981-11.981v-71.885h277.318v71.885c0 6.607-5.374 11.981-11.981 11.981zm-261.344-79.872v67.891c0 4.404 3.583 7.987 7.987 7.987h253.357c4.404 0 7.987-3.583 7.987-7.987v-67.891H320.008zM907.092 333.68H633.767v-4.952c0-13.807 11.193-25 25-25h223.325c13.807 0 25 11.193 25 25v4.952z"/><path d="M909.089 335.677H631.77v-6.989c0-14.864 12.093-26.957 26.957-26.957h223.405c14.864 0 26.957 12.093 26.957 26.957v6.989zm-273.325-3.994h269.332v-2.995c0-12.662-10.301-22.963-22.963-22.963H658.727c-12.662 0-22.963 10.301-22.963 22.963v2.995z"/><path d="M897.108 415.924H643.751c-6.606 0-11.981-5.374-11.981-11.981v-71.885h277.319v71.885c0 6.607-5.375 11.981-11.981 11.981zm-261.344-79.872v67.891c0 4.404 3.583 7.987 7.987 7.987h253.357c4.404 0 7.987-3.583 7.987-7.987v-67.891H635.764zM275.526 481.842H2.201v-4.952c0-13.807 11.193-25 25-25h223.325c13.807 0 25 11.193 25 25v4.952z"/><path d="M277.523 483.839H.204v-6.989c0-14.864 12.093-26.957 26.957-26.957h223.405c14.864 0 26.957 12.093 26.957 26.957v6.989zM4.197 479.845h269.332v-2.995c0-12.662-10.301-22.963-22.963-22.963H27.161c-12.662 0-22.963 10.301-22.963 22.963v2.995z"/><path d="M265.542 564.087H12.185c-6.606 0-11.981-5.374-11.981-11.981v-71.885h277.319v71.885c0 6.606-5.375 11.981-11.981 11.981zM4.197 484.214v67.891c0 4.404 3.583 7.987 7.987 7.987h253.357c4.404 0 7.987-3.583 7.987-7.987v-67.891H4.197zM591.337 185.517H318.011v-4.952c0-13.807 11.193-25 25-25h223.325c13.807 0 25 11.193 25 25v4.952z"/><path d="M593.333 187.514H316.015v-6.989c0-14.864 12.093-26.957 26.957-26.957h223.405c14.864 0 26.957 12.093 26.957 26.957v6.989zm-273.325-3.993H589.34v-2.995c0-12.662-10.301-22.963-22.963-22.963H342.972c-12.662 0-22.963 10.301-22.963 22.963v2.995z"/><path d="M581.352 267.762H327.996c-6.606 0-11.981-5.374-11.981-11.981v-71.885h277.318v71.885c0 6.607-5.374 11.981-11.981 11.981zM320.008 187.89v67.891c0 4.404 3.583 7.987 7.987 7.987h253.357c4.404 0 7.987-3.583 7.987-7.987V187.89H320.008z"/><path fill="#FFF" d="m57.786 0 17.383 35.222 38.87 5.648-28.127 27.416 6.64 38.712-34.766-18.277-34.765 18.277 6.639-38.712L1.534 40.87l38.87-5.648z"/><path fill="#41E847" d="M511.588 816.406c-49.633 52.798-149.269 58.128-222.56 50.289a88.044 88.044 0 0 1-34.603-11.261c-15.484-8.923-31.446-8.659-42.028-6.904-9.512 1.578-19.238 1.356-28.606-.925a6005.71 6005.71 0 0 1-9.972-2.434c-40.62-10.106-74.89-19.858-91.088 30.906-16.198 50.764 84.553 74.867 84.553 74.867 180.992 56.286 309.577 62.694 399.962 48.046"/><path d="M478.48 1007.732c-89.885.002-194.288-18.346-311.726-54.861-3.457-.834-64.865-16.037-82.884-47.984-5.267-9.338-6.29-19.235-3.041-29.418 7.508-23.533 19.236-36.068 36.905-39.452 15.637-2.991 34.249 1.65 53.956 6.565l2.611.651c.548.136 4.911 1.2 9.963 2.431 8.927 2.175 18.283 2.477 27.807.896 10.964-1.821 27.387-2.057 43.351 7.144a85.553 85.553 0 0 0 33.819 11.006c29.792 3.186 74.724 5.36 119.599-2.389 45.026-7.772 79.105-23.681 101.293-47.283l2.909 2.736c-22.794 24.247-57.624 40.559-103.523 48.483-45.33 7.824-90.659 5.637-120.704 2.423-12.552-1.343-24.458-5.217-35.388-11.517-14.941-8.609-30.381-8.372-40.704-6.664-10.059 1.668-19.953 1.347-29.405-.955a4243.171 4243.171 0 0 1-9.982-2.437l-2.613-.651c-39.563-9.868-70.81-17.663-86.09 30.227-2.898 9.081-1.984 17.91 2.715 26.241 17.301 30.675 79.772 45.927 80.401 46.077l.128.035c158.021 49.141 292.281 65.283 399.05 47.983l.639 3.943c-27.862 4.516-57.588 6.769-89.086 6.77z"/><path d="M140.69 898.421c-.051 0-.101-.002-.153-.006-1.324-.1-32.691-2.789-55.152-31.523a1.997 1.997 0 1 1 3.146-2.459c21.338 27.296 52.002 29.976 52.31 30a1.999 1.999 0 0 1 1.837 2.144 1.995 1.995 0 0 1-1.988 1.844zM132.023 921.782c-2.296 0-27.611-.589-51.495-25.571a1.996 1.996 0 1 1 2.887-2.76c23.262 24.331 48.466 24.32 48.69 24.336h.021a1.998 1.998 0 1 1-.103 3.995z"/><path fill="#41E847" d="M1373.077 556.202c101.185-23.35 173.062-70.931 203.54-93.583a63.555 63.555 0 0 1 37.921-12.527h70.586c19.325 0 34.991 15.666 34.991 34.991V495c0 24.047-19.494 43.542-43.542 43.542h-42.036l.102-.072s-94.508 110.038-275.442 147.528"/><path d="M1359.195 687.995a1.996 1.996 0 0 1-.404-3.951c93.068-19.285 162.693-58.183 204.712-87.421 42.855-29.819 66.489-55.914 69.332-59.125a2 2 0 0 1 .545-.583l.101-.072a1.995 1.995 0 0 1 1.69-.297h41.401c22.908 0 41.545-18.637 41.545-41.545v-9.917c0-18.193-14.802-32.994-32.994-32.994h-70.586c-13.159 0-26.203 4.309-36.729 12.133-34.097 25.34-105.975 71.24-204.282 93.926a2.005 2.005 0 0 1-2.395-1.498 1.998 1.998 0 0 1 1.498-2.395c97.599-22.523 168.951-68.084 202.797-93.239 11.211-8.332 25.101-12.921 39.112-12.921h70.586c20.395 0 36.988 16.593 36.988 36.988V495c0 25.11-20.428 45.538-45.538 45.538h-41.098c-4.212 4.699-27.902 30.268-69.565 59.275-42.345 29.482-112.511 68.705-206.307 88.139a1.981 1.981 0 0 1-.409.043z"/><path fill="#41E847" d="m1525.434 281.861-8.084-32.253a46.049 46.049 0 0 1-9.751 3.667c-24.59 6.163-49.521-8.774-55.685-33.365a46.169 46.169 0 0 1-1.264-8.034l-43.531 10.911c-10.976 2.751-22.564-.758-30.197-9.112-36.444-39.884-93.059-59.003-149.14-44.946-64.018 16.046-102.907 80.95-86.861 144.968l13.874 55.355-57.267 30.879-16.068 10.148c-11.056 10.028-63.196 78.347-71.765 90.617C839.788 724.027 555.15 769.41 555.15 769.41l.003.031c-39.058 7.226-71.121 34.383-85.25 70.527l-.169.012c-30.192 65.874-122.921 102.716-194.882 118.671a88.055 88.055 0 0 1-36.387.368c-17.521-3.516-32.566 1.827-42.034 6.866-8.512 4.53-17.8 7.424-27.406 8.25-5.185.446-9.664.829-10.228.875-41.721 3.383-77.312 5.074-76.466 58.353.846 53.279 104.022 43.977 104.022 43.977 189.491-4.404 313.4-39.357 394.388-82.078 340.97-1.54 626.236-168.521 689.101-208.107 51.611-29.102 89.432-80.391 99.158-141.124 0 0 13.531-69.348-8.457-174.215 0 0-15.84-50.056 39.472-69.791l62.861-15.756c46.106-11.556 74.114-58.301 62.558-104.408z"/><path d="M168.771 1080c-21.591 0-57.374-2.791-76.169-19.695-7.971-7.17-12.099-16.224-12.268-26.911-.392-24.699 6.722-40.321 22.389-49.165 13.864-7.825 32.986-9.364 53.232-10.993l2.68-.215c.563-.046 5.037-.429 10.218-.875 9.155-.789 18.118-3.488 26.64-8.024 9.812-5.223 25.301-10.686 43.365-7.061a85.504 85.504 0 0 0 35.562-.36c29.251-6.486 72.528-18.762 112.587-40.423 40.193-21.733 67.415-47.682 80.913-77.13l.494-1.078.098-.007c14.492-35.883 46.65-62.601 84.484-70.238l-.006-.06 1.846-.326c.71-.114 72.063-11.779 163.199-50.519 53.5-22.742 103.249-50.227 147.867-81.692 55.742-39.31 103.587-84.979 142.205-135.74 8.199-11.744 60.647-80.579 72.012-90.887l.275-.21 16.187-10.218 55.901-30.142-13.497-53.849c-7.89-31.479-3.049-64.146 13.631-91.985 16.679-27.838 43.202-47.515 74.681-55.405 54.953-13.77 112.851 3.677 151.1 45.537 7.154 7.829 17.971 11.097 28.237 8.521l45.844-11.489.165 2.378c.182 2.629.59 5.214 1.21 7.687 2.851 11.376 9.961 20.961 20.021 26.988 10.061 6.027 21.866 7.777 33.241 4.925a44.136 44.136 0 0 0 9.33-3.508l2.235-1.141 8.694 34.686c11.804 47.101-16.91 95.026-64.011 106.832l-62.765 15.731c-22.113 7.913-35.258 21.578-39.07 40.615-2.87 14.331.882 26.542.92 26.663l.05.191c21.82 104.059 8.599 174.309 8.462 175.006-4.745 29.647-16.578 58.44-34.204 83.2-17.198 24.16-39.997 44.658-65.932 59.282-31.701 19.964-118.774 71.576-240.525 118.444-153.126 58.947-304.2 89.198-449.059 89.918-96.175 50.603-228.995 78.219-394.775 82.078-1.107.096-7.96.663-17.694.664zm58.302-120.117c-12.178 0-22.541 3.952-29.704 7.764-9 4.79-18.479 7.643-28.173 8.477-5.189.448-9.673.831-10.237.877l-2.683.216c-40.643 3.27-72.746 5.853-71.948 56.114.151 9.531 3.833 17.606 10.943 24.002 26.168 23.542 90.257 18.076 90.903 18.018l.133-.007c165.439-3.844 297.832-31.382 393.503-81.848l.433-.229.489-.002c144.518-.652 295.291-30.816 448.132-89.652 121.423-46.743 208.229-98.195 239.915-118.147 25.51-14.387 47.862-34.485 64.723-58.169 17.272-24.262 28.865-52.473 33.526-81.582.146-.757 13.192-70.244-8.42-173.397-.404-1.325-3.942-13.616-1.03-28.382 5.064-25.684 25.508-37.99 41.766-43.791l.185-.057 62.861-15.755c44.964-11.27 72.377-57.021 61.107-101.986l-7.489-29.882a47.997 47.997 0 0 1-7.924 2.749c-12.411 3.11-25.289 1.203-36.264-5.374-10.975-6.575-18.733-17.032-21.843-29.442a47.591 47.591 0 0 1-1.098-6.018l-41.275 10.346a32.736 32.736 0 0 1-32.156-9.702c-37.258-40.775-93.649-57.774-147.18-44.356-62.848 15.752-101.162 79.697-85.409 142.544l14.252 56.862-58.573 31.583-15.861 10.018c-11.163 10.284-63.366 78.742-71.343 90.165-38.927 51.17-87.086 97.138-143.189 136.693-44.863 31.632-94.878 59.256-148.655 82.107-85.724 36.426-154.078 49.022-163.034 50.574l-.938.19c-37.678 6.97-69.771 33.521-83.754 69.29l-.46 1.177-.254.018c-14.029 29.807-41.658 56.012-82.142 77.902-40.465 21.879-84.123 34.268-113.622 40.808-12.324 2.732-24.843 2.86-37.212.377a55.816 55.816 0 0 0-11.001-1.093z"/><path fill="#41E847" d="M144.22 1031.672s-28.19 14.377-61.889 1.691"/><path d="M111.203 1040.633c-8.854 0-18.924-1.392-29.576-5.401a1.997 1.997 0 0 1 1.407-3.738c32.427 12.206 60.007-1.462 60.281-1.601a1.995 1.995 0 0 1 2.684.875c.5.982.11 2.183-.872 2.683-.813.415-14.407 7.182-33.924 7.182z"/><path fill="#41E847" d="M152.114 1056.197s-21.988 13.813-55.816 4.792"/><path d="M119.107 1066.07c-6.922 0-14.743-.863-23.324-3.151a1.997 1.997 0 0 1 1.029-3.859c32.61 8.694 54.027-4.42 54.24-4.553a1.996 1.996 0 1 1 2.125 3.381c-.697.437-13.344 8.182-34.07 8.182zM1473.27 206.207l-22.62 5.669a46.169 46.169 0 0 0 1.264 8.034c6.163 24.59 31.094 39.528 55.684 33.365a46.028 46.028 0 0 0 9.751-3.667l-5.011-19.991c-4.323-17.253-21.815-27.734-39.068-23.41z"/><path d="M1496.353 256.669c-8.563 0-16.996-2.315-24.533-6.831-10.975-6.575-18.732-17.031-21.843-29.442a48.291 48.291 0 0 1-1.318-8.382l-.115-1.668 24.24-6.076c18.29-4.583 36.907 6.568 41.493 24.862l5.397 21.533-1.416.722a48.246 48.246 0 0 1-10.174 3.826 48.246 48.246 0 0 1-11.731 1.456zm-43.565-43.269a43.73 43.73 0 0 0 1.064 6.026c2.851 11.375 9.961 20.961 20.021 26.988 10.059 6.026 21.862 7.78 33.241 4.925a43.954 43.954 0 0 0 7.907-2.813l-4.618-18.423c-4.049-16.157-20.494-26.012-36.647-21.958l-20.968 5.255zM1464.267 350.439c-28.097.001-53.738-19.039-60.872-47.5a1.998 1.998 0 0 1 3.875-.971c6.679 26.648 30.691 44.475 56.998 44.478 4.716 0 9.502-.572 14.28-1.771 15.224-3.815 28.05-13.33 36.116-26.793s10.407-29.261 6.591-44.484a1.998 1.998 0 0 1 1.452-2.423 2.005 2.005 0 0 1 2.423 1.452c4.074 16.258 1.575 33.131-7.041 47.508-8.614 14.378-22.312 24.54-38.57 28.615a62.71 62.71 0 0 1-15.252 1.889z"/><path fill="#FFF" d="m1357.969 193.738-224.752 56.333c-8.623 2.161-17.366-3.077-19.527-11.7l-.141-.565c-2.161-8.623 3.077-17.366 11.7-19.527l224.752-56.333c8.623-2.161 17.366 3.077 19.527 11.7l.142.565c2.161 8.623-3.077 17.365-11.701 19.527z"/><path d="m1248.913 485.51-.001-.238c.502-6.1.462-12.119-.052-18.021l-.574-198.41c4.278-47.324-30.617-89.155-77.941-93.433s-89.155 30.617-93.433 77.94l-36.147 195.091a106.566 106.566 0 0 0-3.283 17.719l-.043.234.016.001c-.02.213-.054.421-.073.634-5.279 58.397 37.781 110.017 96.178 115.296 58.397 5.279 110.017-37.781 115.296-96.178.019-.213.024-.424.042-.637l.015.002z"/><path d="M1143.307 584.761c-3.296.001-6.606-.148-9.928-.449-58.929-5.327-102.658-57.234-98.106-116.055l-.197-.012.427-2.37a108.964 108.964 0 0 1 3.313-17.883l36.115-194.919c4.42-48.295 47.291-84.017 95.593-79.656 23.42 2.118 44.612 13.228 59.675 31.285 15.042 18.032 22.173 40.838 20.083 64.223l.573 198.234c.524 6.062.542 12.18.053 18.189l.01 2.279-.199-.012c-2.89 28.265-16.463 53.802-38.315 72.03-19.623 16.373-43.851 25.116-69.097 25.116zm-103.86-118.253-.006.066a9.787 9.787 0 0 1-.044.388l-.028.247c-5.171 57.206 37.162 107.955 94.369 113.126 27.717 2.512 54.742-5.93 76.11-23.754 21.366-17.824 34.514-42.902 37.019-70.615l.017-.258c.007-.121.014-.242.023-.364l.016-.236c.48-5.84.462-11.79-.052-17.684l-.008-.168-.573-198.504.008-.093c2.021-22.357-4.784-44.162-19.164-61.4-14.379-17.237-34.612-27.843-56.967-29.864-46.158-4.181-87.092 29.979-91.265 76.13l-.025.184-36.163 195.174-.022.081a105.16 105.16 0 0 0-3.221 17.387l-.024.157z"/><path fill="#41E847" d="m1114.349 701.275 197.37 344.774c11.188 20.156 21.895 31.833 41.808 31.833h92.677c19.325 0 34.991-15.666 34.991-34.991v-9.917c0-24.047-19.494-43.542-43.542-43.542h-42.036l-157.6-406.829"/><path d="M1446.205 1079.878h-92.677c-21.079 0-32.293-12.574-43.554-32.861l-197.357-344.751 3.465-1.983 197.371 344.773c10.843 19.532 20.87 30.828 40.075 30.828h92.677c18.193 0 32.994-14.802 32.994-32.994v-9.917c0-22.908-18.637-41.545-41.545-41.545h-43.403l-.494-1.275-157.6-406.829 3.724-1.443 157.106 405.554h40.667c25.11 0 45.538 20.428 45.538 45.539v9.917c0 20.395-16.592 36.987-36.987 36.987z"/><circle cx="1345.274" cy="259.502" r="22.789"/><path d="M1345.299 284.301c-2.615 0-5.242-.419-7.797-1.264-6.287-2.076-11.389-6.476-14.366-12.389-2.978-5.913-3.474-12.632-1.397-18.919 2.076-6.287 6.476-11.389 12.389-14.366 5.913-2.979 12.63-3.476 18.919-1.397 6.287 2.076 11.389 6.476 14.366 12.389 2.978 5.913 3.474 12.632 1.397 18.919-2.076 6.287-6.476 11.389-12.389 14.366a24.67 24.67 0 0 1-11.122 2.661zm-.045-45.602c-3.204 0-6.385.749-9.33 2.231a20.658 20.658 0 0 0-10.394 12.051 20.663 20.663 0 0 0 1.172 15.871 20.658 20.658 0 0 0 12.051 10.394 20.653 20.653 0 0 0 15.871-1.172 20.658 20.658 0 0 0 10.394-12.051 20.663 20.663 0 0 0-1.172-15.871 20.658 20.658 0 0 0-12.051-10.394 20.835 20.835 0 0 0-6.541-1.059z"/><path d="M1302.715 283.917a1.996 1.996 0 0 1-1.785-1.099c-4.506-8.951-5.258-19.121-2.116-28.636s9.803-17.237 18.753-21.744c8.949-4.506 19.12-5.259 28.635-2.116 9.516 3.142 17.238 9.803 21.745 18.753a1.997 1.997 0 0 1-3.566 1.796c-4.027-7.998-10.927-13.949-19.43-16.756-8.5-2.808-17.588-2.136-25.587 1.89-16.51 8.313-23.179 28.507-14.867 45.017a1.997 1.997 0 0 1-1.782 2.895z"/><circle cx="1443.89" cy="293.56" r="8.542"/><circle cx="1471.705" cy="279.277" r="8.542"/><circle cx="1469.825" cy="307.843" r="8.542"/><path d="m1278.207 1020.631-7.525-15.581c-6.315-13.076-.834-28.795 12.242-35.11l81.59-39.403c13.076-6.315 28.795-.834 35.11 12.242l7.525 15.581c6.315 13.076.834 28.795-12.242 35.11l-81.59 39.403c-13.076 6.315-28.795.834-35.11-12.242zM746.955 794.885c-9.679-9.285-21.353-15.198-33.574-17.792-1.177-13.339-4.292-26.45-9.358-38.812a80.235 80.235 0 0 0-5.281-11.287c-63.164 25.017-113.792 36.592-134.044 40.642a40.13 40.13 0 0 0-7.058-.634c-58.497 0-106.089-47.591-106.089-106.089 0-58.497 47.591-106.088 106.089-106.088 22.056 0 39.936-17.881 39.936-39.937 0-22.056-17.88-39.936-39.936-39.936-102.539 0-185.961 83.422-185.961 185.961 0 73.37 42.715 136.944 104.578 167.181-2.15 3.832-4.152 7.76-5.949 11.806l-.214.005c-17.326 33.687-47.864 60.494-84.212 81.495 9.421 31.198 37.672 54.541 72.078 56.1a78.717 78.717 0 0 0 32.258-5.309c.277 18.133 4.117 39.651 18.218 53.937 0 0 37.963-13.155 77.805-33.828 0 0 58.461-27.406 91.805-81.134 24.371 7.662 52.065 1.534 70.948-18.152 26.535-27.662 25.621-71.595-2.039-98.129z"/><circle cx="790.902" cy="756.818" r="23.68"/><path fill="#FFF" d="m1909.274 136.541-16.201-3.195-56.522 286.577H1539.83v11.082c0 9.293 7.533 16.827 16.826 16.827h289.763c1.423 0 2.779-.272 4.035-.749 5.799-1.726 10.472-6.522 11.724-12.869l56.07-284.286c1.219-6.176-2.8-12.169-8.974-13.387zm-94.105 303.49h-34.255v-10.524h34.255v10.524zm13.855.376a5.638 5.638 0 1 1 0-11.275 5.638 5.638 0 0 1 0 11.275z"/><path d="M1472.539 1011.123h-47.36a1.997 1.997 0 1 1 0-3.994h47.36a1.997 1.997 0 1 1 0 3.994z"/><path fill="#41E847" d="m1480.996 1037.317-55.816-.129"/><path d="M1480.996 1039.313h-.005l-55.816-.129a1.997 1.997 0 0 1 .005-3.994h.005l55.816.129a1.997 1.997 0 0 1-.005 3.994zM1714.587 516.54h-47.36a1.997 1.997 0 1 1 0-3.994h47.36a1.997 1.997 0 1 1 0 3.994z"/><path fill="#41E847" d="m1720.048 486.353-52.821.129"/><path d="M1667.227 488.479a1.997 1.997 0 0 1-.005-3.994l52.822-.13h.005a1.997 1.997 0 0 1 .005 3.994l-52.822.13h-.005z"/></svg>