<svg xmlns="http://www.w3.org/2000/svg" viewBox="0 0 1080 1080" xml:space="preserve"><path fill="#FFF" d="m.004 1080-.008-4 1080-.029.008 4z"/><path d="M234.347 291.891H2v-.462c0-13.807 11.193-25 25-25h182.347c13.807 0 25 11.193 25 25v.462z"/><path d="M236.347 293.89H0v-2.462c0-14.888 12.112-27 27-27h182.347c14.888 0 27 12.112 27 27v2.462zm-232.296-4h228.245c-.794-11.968-10.784-21.462-22.949-21.462H27c-12.165.001-22.154 9.495-22.949 21.462z"/><path d="M224.347 362.107H12c-6.617 0-12-5.383-12-12V290.21h236.347v59.897c0 6.617-5.383 12-12 12zM4 294.21v55.897c0 4.411 3.589 8 8 8h212.347c4.411 0 8-3.589 8-8V294.21H4zM234.347 165.5H2v-.462c0-13.807 11.193-25 25-25h182.347c13.807 0 25 11.193 25 25v.462z"/><path d="M236.347 167.5H0v-2.462c0-14.888 12.112-27 27-27h182.347c14.888 0 27 12.112 27 27v2.462zm-232.296-4h228.245c-.794-11.968-10.784-21.462-22.949-21.462H27c-12.165 0-22.154 9.494-22.949 21.462z"/><path d="M224.347 235.716H12c-6.617 0-12-5.383-12-12v-59.897h236.347v59.897c0 6.617-5.383 12-12 12zM4 167.818v55.897c0 4.411 3.589 8 8 8h212.347c4.411 0 8-3.589 8-8v-55.897H4zM501.414 291.891H269.067v-.462c0-13.807 11.193-25 25-25h182.347c13.807 0 25 11.193 25 25v.462z"/><path d="M503.414 293.89H267.066v-2.462c0-14.888 12.112-27 27-27h182.348c14.888 0 27 12.112 27 27v2.462zm-232.297-4h228.246c-.795-11.968-10.784-21.462-22.949-21.462H294.066c-12.165.001-22.154 9.495-22.949 21.462z"/><path d="M491.414 362.107H279.066c-6.617 0-12-5.383-12-12V290.21h236.348v59.897c0 6.617-5.383 12-12 12zM271.066 294.21v55.897c0 4.411 3.589 8 8 8h212.348c4.411 0 8-3.589 8-8V294.21H271.066zM767.831 291.891H535.483v-.462c0-13.807 11.193-25 25-25H742.83c13.807 0 25 11.193 25 25v.462z"/><path d="M769.831 293.89H533.483v-2.462c0-14.888 12.112-27 27-27h182.348c14.888 0 27 12.112 27 27v2.462zm-232.297-4H765.78c-.795-11.968-10.784-21.462-22.949-21.462H560.483c-12.165.001-22.154 9.495-22.949 21.462z"/><path d="M757.831 362.107H545.483c-6.617 0-12-5.383-12-12V290.21h236.348v59.897c0 6.617-5.383 12-12 12zM537.483 294.21v55.897c0 4.411 3.589 8 8 8h212.348c4.411 0 8-3.589 8-8V294.21H537.483zM234.347 418.282H2v-.462c0-13.807 11.193-25 25-25h182.347c13.807 0 25 11.193 25 25v.462z"/><path d="M236.347 420.282H0v-2.462c0-14.888 12.112-27 27-27h182.347c14.888 0 27 12.112 27 27v2.462zm-232.296-4h228.245c-.794-11.968-10.784-21.462-22.949-21.462H27c-12.165 0-22.154 9.494-22.949 21.462z"/><path d="M224.347 488.498H12c-6.617 0-12-5.383-12-12V416.6h236.347v59.897c0 6.618-5.383 12.001-12 12.001zM4 420.6v55.897c0 4.411 3.589 8 8 8h212.347c4.411 0 8-3.589 8-8V420.6H4zM234.347 544.673H2v-.462c0-13.807 11.193-25 25-25h182.347c13.807 0 25 11.193 25 25v.462z"/><path d="M236.347 546.673H0v-2.462c0-14.888 12.112-27 27-27h182.347c14.888 0 27 12.112 27 27v2.462zm-232.296-4h228.245c-.794-11.968-10.784-21.462-22.949-21.462H27c-12.165 0-22.154 9.494-22.949 21.462z"/><path d="M224.347 614.889H12c-6.617 0-12-5.383-12-12v-59.897h236.347v59.897c0 6.618-5.383 12-12 12zM4 546.992v55.897c0 4.411 3.589 8 8 8h212.347c4.411 0 8-3.589 8-8v-55.897H4zM501.414 165.5H269.067v-.462c0-13.807 11.193-25 25-25h182.347c13.807 0 25 11.193 25 25v.462z"/><path d="M503.414 167.5H267.066v-2.462c0-14.888 12.112-27 27-27h182.348c14.888 0 27 12.112 27 27v2.462zm-232.297-4h228.246c-.795-11.968-10.784-21.462-22.949-21.462H294.066c-12.165 0-22.154 9.494-22.949 21.462z"/><path d="M491.414 235.716H279.066c-6.617 0-12-5.383-12-12v-59.897h236.348v59.897c0 6.617-5.383 12-12 12zm-220.348-67.898v55.897c0 4.411 3.589 8 8 8h212.348c4.411 0 8-3.589 8-8v-55.897H271.066z"/><path fill="#FFF" d="m50.92 0 15.735 31.883 35.185 5.113-25.46 24.817 6.011 35.043L50.92 80.311 19.45 96.856l6.01-35.043L0 36.996l35.185-5.113z"/><path fill="#41E847" d="M253.099 924.248c-29.172 31.032-87.734 34.165-130.811 29.557a51.77 51.77 0 0 1-20.338-6.618c-9.101-5.244-18.483-5.089-24.702-4.058-5.591.927-11.307.797-16.814-.544-2.972-.724-5.539-1.35-5.861-1.431-23.875-5.94-44.017-11.672-53.537 18.165-9.52 29.837 49.697 44.004 49.697 44.004 106.379 33.082 181.956 36.849 235.08 28.24"/><path d="M233.644 1037.527c-52.91.001-114.352-10.794-183.441-32.274-2.319-.562-38.495-9.586-49.217-28.594-3.213-5.696-3.837-11.734-1.854-17.947 9.887-30.981 31.503-25.59 54.391-19.881l1.534.383c.321.079 2.885.705 5.853 1.428 5.14 1.253 10.527 1.426 16.013.515 6.577-1.094 16.435-1.23 26.028 4.298a49.457 49.457 0 0 0 19.552 6.363c17.458 1.867 43.786 3.14 70.066-1.396 26.283-4.537 46.159-13.804 59.074-27.543l2.914 2.74c-13.522 14.385-34.149 24.057-61.308 28.744-26.737 4.615-53.461 3.327-71.173 1.432a53.415 53.415 0 0 1-21.124-6.875c-8.569-4.938-17.441-4.801-23.376-3.817-6.021 1-11.947.806-17.614-.573-2.976-.725-5.547-1.353-5.87-1.433l-1.537-.384c-23.723-5.916-40.865-10.194-49.612 17.217-1.653 5.182-1.153 10.012 1.528 14.766 9.994 17.719 46.363 26.596 46.729 26.684l.129.035c92.755 28.848 171.542 38.331 234.166 28.176l.641 3.949c-16.42 2.658-33.937 3.986-52.492 3.987z"/><path d="M35.103 973.279c-.051 0-.102-.002-.153-.006-.793-.06-19.581-1.67-33.005-18.843a2.001 2.001 0 0 1 3.153-2.463c12.3 15.734 29.981 17.304 30.158 17.317a2.002 2.002 0 0 1-.153 3.995zM30.017 987.009c-1.387 0-16.599-.354-30.872-15.284a1.999 1.999 0 1 1 2.89-2.764c13.468 14.087 27.887 14.008 28.008 14.048 1.103-.03 2.013.868 2.027 1.973a2 2 0 0 1-1.973 2.027h-.08z"/><path fill="#41E847" d="M759.444 771.311c59.472-13.724 101.718-41.69 119.632-55.004a37.353 37.353 0 0 1 22.288-7.363h41.488c11.358 0 20.566 9.208 20.566 20.566v5.829c0 14.134-11.458 25.592-25.592 25.592h-24.707l.06-.042s-55.547 64.676-161.893 86.71"/><path d="M751.284 849.6a1.998 1.998 0 0 1-1.956-1.595 1.998 1.998 0 0 1 1.553-2.363c54.536-11.3 95.339-34.088 119.965-51.215 24.954-17.355 38.793-32.56 40.611-34.607a2.03 2.03 0 0 1 1.88-.887h24.489c13.009 0 23.592-10.583 23.592-23.592v-5.829c0-10.237-8.329-18.565-18.566-18.565h-41.487c-7.559 0-15.05 2.475-21.095 6.968-20.093 14.933-62.45 41.979-120.375 55.348a2.003 2.003 0 0 1-2.399-1.499 2 2 0 0 1 1.499-2.399c57.217-13.204 99.047-39.914 118.889-54.66 6.73-5.002 15.069-7.757 23.481-7.757h41.487c12.443 0 22.566 10.123 22.566 22.565v5.829c0 15.214-12.378 27.592-27.592 27.592h-23.783c-3.066 3.413-16.646 17.883-40.788 34.691-24.952 17.372-66.297 40.484-121.562 51.935-.138.026-.274.04-.409.04z"/><path fill="#41E847" d="m848.993 610.066-4.751-18.957a26.989 26.989 0 0 1-5.732 2.155c-14.453 3.623-29.106-5.157-32.729-19.61a27.158 27.158 0 0 1-.743-4.722l-25.586 6.413a18.085 18.085 0 0 1-17.748-5.356c-21.42-23.442-54.696-34.679-87.658-26.418-37.627 9.431-60.484 47.579-51.053 85.206l8.155 32.535-33.659 18.15-9.444 5.965c-6.498 5.894-37.144 46.049-42.18 53.261-99.863 131.264-267.161 157.937-267.161 157.937l.002.018c-22.957 4.247-41.802 20.209-50.106 41.452l-.099.007c-17.746 38.718-72.247 60.372-114.543 69.749a51.76 51.76 0 0 1-21.387.217c-10.298-2.067-19.141 1.074-24.706 4.036-5.003 2.663-10.462 4.363-16.108 4.849-3.047.262-5.68.487-6.011.514-24.522 1.988-45.44 2.982-44.943 34.298.497 31.315 61.139 25.848 61.139 25.848 111.375-2.588 184.203-23.132 231.804-48.242 200.407-.905 368.074-99.049 405.023-122.316 30.335-17.105 52.564-47.25 58.28-82.947 0 0 7.953-40.759-4.971-102.396 0 0-9.31-29.421 23.2-41.02l36.947-9.26c27.098-6.792 43.56-34.266 36.768-61.366z"/><path d="M51.668 1080c-12.807 0-34.13-1.664-45.383-11.785-4.862-4.374-7.381-9.897-7.484-16.417-.516-32.518 21.693-34.305 45.206-36.196l1.575-.127c.334-.027 2.961-.252 6.002-.514 5.27-.453 10.431-2.009 15.34-4.622 5.886-3.132 15.178-6.409 26.039-4.23a49.44 49.44 0 0 0 20.561-.208c27.344-6.062 93.107-24.885 113.157-68.63l.53-1.083c8.625-20.896 27.347-36.484 49.4-41.167l-.004-.067 1.78-.302c.417-.067 42.293-6.917 95.772-29.656 49.293-20.959 118.819-60.096 170.112-127.518 4.807-6.887 35.71-47.438 42.428-53.531l.275-.21 9.563-6.034 32.29-17.412-7.776-31.026c-9.684-38.637 13.871-77.948 52.507-87.632 32.59-8.166 66.935 2.181 89.621 27.009a16.065 16.065 0 0 0 15.785 4.765l27.901-6.993.166 2.381c.104 1.502.336 2.974.688 4.375 1.623 6.473 5.668 11.925 11.392 15.354 5.723 3.429 12.437 4.425 18.911 2.802a25.085 25.085 0 0 0 5.308-1.996l2.239-1.144 5.363 21.396c3.414 13.625 1.319 27.764-5.9 39.812s-18.698 20.565-32.323 23.98l-36.853 9.236c-30.146 10.814-22.226 37.377-21.873 38.503l.049.19c12.858 61.323 5.057 102.778 4.977 103.189-5.688 35.527-27.292 66.279-59.261 84.306-18.618 11.727-69.85 42.094-141.479 69.668-90.022 34.655-178.848 52.453-264.027 52.904-56.621 29.738-134.742 45.97-232.191 48.241-.73.064-4.726.389-10.383.389zm34.207-70.596c-6.994 0-12.952 2.273-17.072 4.466-5.387 2.868-11.064 4.576-16.876 5.076-3.054.263-5.692.489-6.023.516l-1.575.127c-24.374 1.961-41.984 3.378-41.527 32.145.086 5.438 2.1 9.854 6.156 13.505 15.11 13.596 52.429 10.416 52.804 10.383l.133-.007c97.108-2.257 174.801-18.41 230.917-48.011l.435-.229.49-.002c84.84-.383 173.359-18.094 263.098-52.64 71.301-27.447 122.266-57.655 140.868-69.369 30.984-17.474 51.865-47.187 57.371-81.57.09-.47 7.718-41.169-4.938-101.595-.61-2.122-8.401-31.66 24.47-43.389l.186-.057 36.947-9.261c12.589-3.154 23.194-11.023 29.865-22.155 6.67-11.132 8.605-24.196 5.45-36.784l-4.167-16.624c-1.27.519-2.57.945-3.89 1.276-7.508 1.878-15.3.726-21.939-3.251-6.64-3.979-11.333-10.305-13.216-17.813a28.69 28.69 0 0 1-.54-2.711l-23.362 5.856a20.062 20.062 0 0 1-19.711-5.948c-21.693-23.741-54.532-33.64-85.695-25.825-17.68 4.431-32.576 15.481-41.943 31.116-9.368 15.635-12.087 33.982-7.655 51.662l8.532 34.044-34.969 18.856-9.232 5.831c-6.371 5.934-36.244 44.91-41.761 52.811-22.95 30.17-51.317 57.247-84.361 80.545-26.416 18.625-55.864 34.891-87.525 48.344-49.961 21.229-89.924 28.715-95.845 29.751l-.704.138c-21.867 4.046-40.492 19.455-48.607 40.215l-.461 1.18-.189.014c-21.363 44.601-87.717 63.645-115.422 69.787a53.421 53.421 0 0 1-22.213.225 31.886 31.886 0 0 0-6.304-.628z"/><path fill="#41E847" d="M37.177 1050.772s-16.569 8.45-36.376.994"/><path d="M17.756 1056.861c-5.29 0-11.304-.831-17.66-3.224a2.002 2.002 0 0 1 1.41-3.744c18.689 7.036 34.606-.824 34.765-.905a2.001 2.001 0 0 1 1.815 3.565c-.488.249-8.642 4.308-20.33 4.308z"/><path fill="#41E847" d="M41.816 1065.187s-12.924 8.119-32.806 2.817"/><path d="M22.397 1071.812c-4.132 0-8.795-.515-13.903-1.877a2.001 2.001 0 0 1 1.031-3.865c18.721 4.995 31.109-2.503 31.231-2.58a2 2 0 0 1 2.123 3.39c-.417.264-8.04 4.932-20.482 4.932zM818.333 565.6l-13.295 3.332c.109 1.567.348 3.145.743 4.722 3.623 14.453 18.276 23.233 32.729 19.61a27.034 27.034 0 0 0 5.731-2.155l-2.945-11.75c-2.541-10.14-12.822-16.301-22.963-13.759z"/><path d="M831.953 596.078c-12.976 0-24.816-8.793-28.112-21.938a29.3 29.3 0 0 1-.798-5.068l-.117-1.672 14.921-3.74c11.199-2.803 22.585 4.02 25.391 15.213l3.331 13.293-1.417.725a29.024 29.024 0 0 1-13.199 3.187zm-24.751-25.626c.124.926.298 1.835.519 2.716 3.351 13.361 16.95 21.51 30.303 18.156a24.912 24.912 0 0 0 3.879-1.321l-2.546-10.157a16.814 16.814 0 0 0-7.72-10.406 16.827 16.827 0 0 0-12.817-1.898l-11.618 2.91zM812.972 651.211c-6.742 0-13.381-1.822-19.314-5.377-8.64-5.178-14.746-13.409-17.195-23.179a2.001 2.001 0 0 1 1.454-2.427 2.007 2.007 0 0 1 2.427 1.454c2.188 8.733 7.647 16.092 15.371 20.72 7.723 4.628 16.787 5.973 25.52 3.781 18.029-4.519 29.021-22.862 24.501-40.891a2.001 2.001 0 0 1 1.454-2.427 2.005 2.005 0 0 1 2.427 1.454c2.448 9.77.946 19.908-4.23 28.548-5.178 8.64-13.409 14.747-23.179 17.196a37.948 37.948 0 0 1-9.236 1.148z"/><path fill="#FFF" d="m751.338 558.078-133.645 33.497a8.665 8.665 0 0 1-10.511-6.298l-.471-1.878a8.665 8.665 0 0 1 6.298-10.511l133.645-33.497a8.665 8.665 0 0 1 10.511 6.298l.471 1.878a8.666 8.666 0 0 1-6.298 10.511z"/><path d="M686.466 729.762v-.14a62.61 62.61 0 0 0-.031-10.592l-.337-116.617c2.515-27.815-17.995-52.401-45.81-54.916-27.815-2.515-52.402 17.995-54.916 45.81l-21.246 114.666a62.672 62.672 0 0 0-1.93 10.415l-.025.138.009.001c-.012.125-.032.248-.043.373-3.103 34.323 22.206 64.663 56.529 67.766 34.323 3.103 64.663-22.206 67.766-56.529.011-.125.014-.249.024-.375h.01z"/><path d="M624.398 788.925c-1.963 0-3.935-.089-5.912-.268-34.84-3.149-60.757-33.641-58.465-68.358l-.198-.022.391-2.169a64.877 64.877 0 0 1 1.961-10.581l21.214-114.492c1.285-13.947 7.914-26.566 18.672-35.541 10.784-8.995 24.433-13.244 38.407-11.988 13.984 1.265 26.64 7.899 35.635 18.682 8.974 10.758 13.231 24.362 11.995 38.313l.337 116.441c.309 3.589.318 7.209.031 10.763v2.268l-.21-.021c-1.903 16.479-9.929 31.353-22.718 42.021-11.684 9.745-26.108 14.951-41.14 14.952zm-60.226-70.222-.044.382c-2.998 33.165 21.549 62.59 54.718 65.588 16.072 1.462 31.742-3.438 44.13-13.773 12.389-10.335 20.012-24.875 21.464-40.943l.033-.498a60.967 60.967 0 0 0-.03-10.254l-.008-.168-.337-116.71.008-.093c1.168-12.921-2.765-25.522-11.075-35.484-8.31-9.962-20.002-16.092-32.922-17.26-12.926-1.17-25.523 2.766-35.485 11.075-9.962 8.311-16.092 20.003-17.259 32.923l-.025.185-21.284 114.829a60.918 60.918 0 0 0-1.868 10.083l-.016.118z"/><path fill="#41E847" d="m607.375 856.579 116.006 202.643c6.576 11.847 12.869 18.71 24.573 18.71h54.471c11.358 0 20.566-9.208 20.566-20.566v-5.829c0-14.134-11.458-25.592-25.592-25.592h-24.707l-92.631-239.116"/><path d="M802.426 1079.932h-54.472c-12.794 0-19.558-7.553-26.322-19.739l-115.991-202.62 3.471-1.986 116.005 202.643c6.229 11.221 11.957 17.703 22.838 17.703h54.472c10.237 0 18.566-8.329 18.566-18.566v-5.828c0-13.009-10.583-23.592-23.592-23.592h-26.077l-.495-1.277-92.631-239.116 3.73-1.445 92.136 237.839H797.4c15.214 0 27.592 12.378 27.592 27.592v5.828c0 12.441-10.123 22.564-22.566 22.564z"/><circle cx="743.103" cy="596.924" r="13.395"/><path d="M743.119 612.327c-1.625 0-3.256-.26-4.844-.784a15.295 15.295 0 0 1-8.922-7.695 15.294 15.294 0 0 1-.869-11.751 15.295 15.295 0 0 1 7.695-8.922 15.285 15.285 0 0 1 11.751-.868 15.295 15.295 0 0 1 8.922 7.695c3.817 7.581.756 16.855-6.826 20.673a15.332 15.332 0 0 1-6.907 1.652zm-.027-26.803c-1.756 0-3.5.41-5.113 1.223a11.316 11.316 0 0 0-5.695 6.604c-.954 2.89-.727 5.979.643 8.697s3.714 4.741 6.604 5.695c2.889.955 5.979.727 8.697-.642 5.611-2.826 7.878-9.69 5.053-15.302a11.321 11.321 0 0 0-6.604-5.696 11.488 11.488 0 0 0-3.585-.579z"/><path d="M718.089 612.101a1.997 1.997 0 0 1-1.788-1.101c-5.673-11.267-1.121-25.048 10.146-30.721 11.269-5.672 25.048-1.12 30.721 10.146a2 2 0 0 1-3.573 1.799c-4.682-9.296-16.055-13.051-25.35-8.372-9.297 4.682-13.053 16.053-8.372 25.35a2 2 0 0 1-1.784 2.899z"/><circle cx="801.065" cy="616.943" r="5.021"/><circle cx="817.413" cy="608.548" r="5.021"/><circle cx="816.309" cy="625.337" r="5.021"/><path d="m703.684 1044.283-4.423-9.158c-3.712-7.685-.49-16.924 7.195-20.636l47.955-23.16c7.685-3.712 16.924-.49 20.636 7.195l4.423 9.158c3.712 7.685.49 16.924-7.195 20.636l-47.955 23.16c-7.686 3.711-16.925.49-20.636-7.195zM391.437 911.599a40.592 40.592 0 0 0-19.734-10.457c-.691-7.84-2.522-15.546-5.5-22.812a47.132 47.132 0 0 0-3.104-6.634c-37.125 14.704-66.882 21.507-78.785 23.888a23.622 23.622 0 0 0-4.148-.373c-34.382 0-62.354-27.972-62.354-62.354s27.972-62.354 62.354-62.354c12.964 0 23.473-10.509 23.473-23.473s-10.509-23.473-23.473-23.473c-60.268 0-109.299 49.032-109.299 109.299 0 43.123 25.106 80.49 61.467 98.262a83.048 83.048 0 0 0-3.496 6.939l-.126.003c-10.183 19.8-28.132 35.556-49.496 47.899 5.537 18.337 22.142 32.057 42.364 32.973a46.258 46.258 0 0 0 18.96-3.121c.163 10.658 2.42 23.305 10.708 31.702 0 0 22.313-7.732 45.73-19.883 0 0 34.361-16.108 53.959-47.687 14.324 4.503 30.601.901 41.7-10.669 15.595-16.257 15.058-42.08-1.2-57.675z"/><circle cx="417.267" cy="889.225" r="13.918"/><path fill="#FFF" d="m1074.597 524.654-9.522-1.878-33.221 168.437H857.455v6.513c0 5.462 4.428 9.89 9.89 9.89h170.31a6.67 6.67 0 0 0 2.372-.44 9.885 9.885 0 0 0 6.891-7.564l32.955-167.091a6.699 6.699 0 0 0-5.276-7.867zm-55.311 178.378h-20.134v-6.186h20.134v6.186zm8.144.221a3.314 3.314 0 1 1 0-6.629 3.314 3.314 0 0 1 0 6.629z"/></svg>