<svg xmlns="http://www.w3.org/2000/svg" viewBox="0 0 1920 1075.66" xml:space="preserve"><path fill="#FF8630" d="m1823.53 515.42-188.4-191.15-237.65-241.8c-83.42-96.13-228.98-106.44-325.11-23.01-96.14 83.42-106.44 228.97-23.02 325.1l191.3 220.46 99.57 114.75 17.35 20 173.15 199.53c73.55 84.77 201.9 93.85 286.66 20.3l19.77-18.8c89.9-95.86 125.83-284.1-13.62-425.38zm-322.06 301.42a20.4 20.4 0 1 1 34.99-21.01 20.4 20.4 0 0 1-34.99 21.01zm122.15 70.24a20.4 20.4 0 1 1-34.99 21.02 20.4 20.4 0 0 1 34.99-21.02zm-187.45-218.31a20.4 20.4 0 1 1-34.99 21.01 20.4 20.4 0 0 1 35-21.01zm306.26 226.6a20.4 20.4 0 1 1-34.98 21.01 20.4 20.4 0 0 1 34.98-21.01zm-215.8-194.68a20.4 20.4 0 1 1 35-21.02 20.4 20.4 0 0 1-35 21.02zm148.18 75.98a20.4 20.4 0 1 1-34.99 21.02 20.4 20.4 0 0 1 35-21.02zm-279.84-345.44c-87.95 76.33-221.12 66.9-297.45-21.06l-3.16-3.64-23.32-26.88-6.65-7.67c-76.33-87.95-66.9-221.13 21.06-297.45 87.95-76.32 221.13-66.9 297.45 21.06l6.65 7.67 23.32 26.88 3.17 3.64c76.32 87.96 66.89 221.13-21.07 297.45zm281.08 4.35a20.4 20.4 0 1 1-35 21.02 20.4 20.4 0 0 1 35-21.02zm-109.76 156.36a20.4 20.4 0 1 1-21.01-34.98 20.4 20.4 0 0 1 21.01 34.98zm100.43 92a20.4 20.4 0 1 1 34.98-21 20.4 20.4 0 0 1-34.98 21zm143.45 95.3a20.4 20.4 0 1 1-34.99 21.02 20.4 20.4 0 0 1 35-21.01zm-131.7-226a20.4 20.4 0 1 1-34.98 21.02 20.4 20.4 0 0 1 34.98-21.01zm142.43 92.67a20.4 20.4 0 1 1-34.98 21.02 20.4 20.4 0 0 1 34.98-21.02zm-48.16-106.47a20.4 20.4 0 1 1-34.98 21.02 20.4 20.4 0 0 1 34.98-21.02z"/><path d="M1684.5 1011.84c-4.93 0-9.87-.17-14.84-.52a204.36 204.36 0 0 1-140.83-70.38l-481.37-554.73a231.45 231.45 0 0 1-56.43-169.14 231.45 231.45 0 0 1 79.7-159.5 231.52 231.52 0 0 1 169.14-56.43 231.45 231.45 0 0 1 159.45 79.64l237.6 241.73 188.39 191.16c81.27 82.34 95.72 171.37 93.53 231.57a314.6 314.6 0 0 1-23.98 109.48c-13.72 33.08-33.05 63.43-55.89 87.79l-.1.1-19.86 18.88c-37.74 32.75-85.03 50.35-134.5 50.35zM1223.07 5.54c-54.84 0-107.24 19.5-149.06 55.8a226.47 226.47 0 0 0-78 156.08 226.47 226.47 0 0 0 55.22 165.51l481.37 554.73a199.4 199.4 0 0 0 137.42 68.67 199.38 199.38 0 0 0 145.67-48.58l19.69-18.71c22.4-23.92 41.38-53.73 54.87-86.24a309.65 309.65 0 0 0 23.6-107.75c2.15-59.2-12.08-146.8-92.1-227.87l-188.4-191.16-237.7-241.84-.06-.06a226.47 226.47 0 0 0-156.08-78c-5.5-.38-10.98-.58-16.44-.58zm501.91 923.23a22.92 22.92 0 0 1-19.68-11.1 22.93 22.93 0 0 1 7.85-31.43 22.75 22.75 0 0 1 17.34-2.6 22.76 22.76 0 0 1 14.09 10.44c3.15 5.24 4.07 11.4 2.59 17.34s-5.19 10.94-10.43 14.1a22.79 22.79 0 0 1-11.76 3.25zm-.07-40.81a17.93 17.93 0 0 0-15.32 27.13 17.93 17.93 0 0 0 32.72-4.88 17.8 17.8 0 0 0-2.02-13.56 17.78 17.78 0 0 0-15.38-8.7zm-118.74 32.54a22.7 22.7 0 0 1-5.59-.69 22.76 22.76 0 0 1-14.1-10.43 22.93 22.93 0 0 1 7.85-31.43 22.94 22.94 0 0 1 31.43 7.84c3.15 5.25 4.07 11.4 2.6 17.34s-5.2 10.94-10.44 14.1a22.77 22.77 0 0 1-11.75 3.27zm-.07-40.82a17.93 17.93 0 0 0-4.3 35.28 17.8 17.8 0 0 0 13.55-2.02c4.1-2.46 7-6.38 8.15-11.02s.44-9.45-2.02-13.55a17.92 17.92 0 0 0-15.38-8.69zm-87.1-50.43c-1.85 0-3.73-.23-5.58-.69a22.76 22.76 0 0 1-14.1-10.43 22.94 22.94 0 0 1 7.85-31.43 22.93 22.93 0 0 1 31.43 7.84c3.16 5.25 4.07 11.4 2.6 17.34s-5.2 10.94-10.44 14.1a22.78 22.78 0 0 1-11.75 3.27zm-15.38-13.7a17.93 17.93 0 0 0 32.72-4.88 17.93 17.93 0 0 0-26.6-19.69 17.93 17.93 0 0 0-6.12 24.57zm289.1-2.9a22.92 22.92 0 0 1-11.84-42.53 22.75 22.75 0 0 1 17.34-2.59 22.76 22.76 0 0 1 14.1 10.43 22.93 22.93 0 0 1-19.6 34.7zm-.07-40.8a17.93 17.93 0 0 0-15.32 27.13 17.93 17.93 0 0 0 24.57 6.13 17.93 17.93 0 0 0 6.13-24.58 17.78 17.78 0 0 0-15.38-8.69zm-135.3 38.23a22.92 22.92 0 0 1-22.26-28.45 22.76 22.76 0 0 1 10.43-14.09 22.94 22.94 0 0 1 31.44 7.85 22.93 22.93 0 0 1-19.6 34.7zm-.06-40.8a17.84 17.84 0 0 0-17.35 13.56 17.76 17.76 0 0 0 2.03 13.56 17.93 17.93 0 0 0 24.57 6.13 17.91 17.91 0 0 0-9.25-33.25zm-113.12-56.18c-1.86 0-3.73-.23-5.59-.7a22.76 22.76 0 0 1-14.09-10.43c-3.15-5.24-4.07-11.4-2.59-17.34s5.19-10.94 10.43-14.09 11.4-4.07 17.34-2.59a22.76 22.76 0 0 1 14.1 10.43c3.15 5.25 4.07 11.4 2.58 17.34s-5.18 10.95-10.43 14.1a22.76 22.76 0 0 1-11.75 3.27zm-15.4-13.7c2.47 4.1 6.38 7 11.02 8.15a17.8 17.8 0 0 0 13.56-2.02c4.1-2.46 7-6.38 8.15-11.02s.44-9.45-2.02-13.55c-2.46-4.1-6.37-7-11.02-8.16a17.79 17.79 0 0 0-13.55 2.03c-4.1 2.46-7 6.37-8.15 11.01s-.44 9.46 2.02 13.56zm-110.05 2.79c-1.86 0-3.74-.23-5.59-.7a22.76 22.76 0 0 1-14.1-10.42 22.93 22.93 0 0 1 7.85-31.44 22.93 22.93 0 0 1 31.43 7.85c3.15 5.24 4.07 11.4 2.6 17.34s-5.2 10.94-10.44 14.09a22.76 22.76 0 0 1-11.75 3.28zm-.07-40.82a17.93 17.93 0 0 0-4.3 35.28c4.63 1.16 9.45.44 13.55-2.03 4.1-2.46 7-6.37 8.15-11.01a17.92 17.92 0 0 0-17.4-22.24zm265.6 34.99c-1.86 0-3.73-.23-5.58-.7a22.76 22.76 0 0 1-14.1-10.43 22.93 22.93 0 0 1 7.85-31.43 22.93 22.93 0 0 1 31.43 7.85c3.15 5.24 4.07 11.4 2.59 17.34s-5.19 10.94-10.43 14.09a22.77 22.77 0 0 1-11.76 3.28zm-15.39-13.7c2.46 4.1 6.38 7 11.02 8.15 4.64 1.16 9.45.44 13.55-2.02 4.1-2.46 7-6.37 8.16-11.01s.44-9.46-2.03-13.56a17.93 17.93 0 0 0-24.57-6.13 17.93 17.93 0 0 0-6.13 24.57zm134.59-3.34a22.92 22.92 0 0 1-19.68-11.1 22.93 22.93 0 0 1 7.85-31.44 22.75 22.75 0 0 1 17.34-2.59 22.75 22.75 0 0 1 14.09 10.44c3.15 5.24 4.07 11.4 2.59 17.34s-5.19 10.94-10.43 14.09a22.79 22.79 0 0 1-11.76 3.26zm-.07-40.81a17.93 17.93 0 0 0-15.32 27.13 17.93 17.93 0 0 0 32.72-4.89 17.8 17.8 0 0 0-2.02-13.55 17.79 17.79 0 0 0-15.38-8.7zm-247.56-41.15c-1.85 0-3.73-.22-5.58-.69-5.94-1.48-10.94-5.18-14.1-10.43s-4.06-11.4-2.58-17.34 5.18-10.94 10.43-14.09a22.77 22.77 0 0 1 17.34-2.59 22.76 22.76 0 0 1 14.1 10.43 22.93 22.93 0 0 1-7.85 31.44 22.77 22.77 0 0 1-11.75 3.27zm-.07-40.83c-3.2 0-6.36.87-9.19 2.57-4.1 2.46-7 6.37-8.15 11.01-1.16 4.64-.44 9.46 2.02 13.56s6.38 7 11.02 8.15a17.8 17.8 0 0 0 13.56-2.02c4.1-2.46 7-6.38 8.15-11.02s.44-9.45-2.02-13.55a17.78 17.78 0 0 0-15.39-8.7zm105.27 30.14c-1.86 0-3.73-.23-5.59-.69a22.76 22.76 0 0 1-14.09-10.43 22.93 22.93 0 0 1 7.85-31.43 22.75 22.75 0 0 1 17.34-2.59 22.76 22.76 0 0 1 14.09 10.43c3.15 5.25 4.07 11.4 2.59 17.34s-5.19 10.94-10.44 14.1a22.78 22.78 0 0 1-11.75 3.27zm-.07-40.83a17.93 17.93 0 0 0-4.3 35.29 17.93 17.93 0 0 0 19.69-26.6 17.78 17.78 0 0 0-15.4-8.69zm94.34 27.03c-1.86 0-3.74-.23-5.59-.7a22.76 22.76 0 0 1-14.09-10.42 22.93 22.93 0 0 1 7.84-31.44 22.93 22.93 0 0 1 31.43 7.85 22.94 22.94 0 0 1-19.6 34.7zm-.07-40.82a17.93 17.93 0 0 0-15.32 27.12 17.93 17.93 0 0 0 24.57 6.13 17.92 17.92 0 0 0-9.25-33.25zm-498.12-46.7c-5.11 0-10.24-.19-15.39-.55a211.96 211.96 0 0 1-146.07-72.99l-33.14-38.19a211.96 211.96 0 0 1-51.68-154.9 211.96 211.96 0 0 1 72.99-146.08 211.95 211.95 0 0 1 154.9-51.67 211.96 211.96 0 0 1 146.08 72.99l33.13 38.18a211.96 211.96 0 0 1 51.68 154.9 211.96 211.96 0 0 1-72.99 146.08c-39.14 33.97-88.19 52.23-139.5 52.23zm-33.6-459.82a207.46 207.46 0 0 0-136.41 50.9c-86.78 75.29-96.11 207.14-20.82 293.92l33.14 38.18a206.98 206.98 0 0 0 142.65 71.28c5.03.36 10.04.54 15.03.54 50.12 0 98.02-17.83 136.24-51 86.78-75.3 96.11-207.16 20.82-293.93L1381 97.23c-41.14-47.4-99.17-71.7-157.5-71.7zM1658.6 469a22.8 22.8 0 0 1-5.6-.7 22.76 22.76 0 0 1-14.09-10.42 22.93 22.93 0 0 1 7.85-31.43 22.93 22.93 0 0 1 31.43 7.84 22.94 22.94 0 0 1-19.6 34.7zm-.08-40.83a17.93 17.93 0 0 0-4.3 35.29 17.93 17.93 0 1 0 4.3-35.29z"/><path d="m1728.06 571.3-25.42-66.08a30.63 30.63 0 0 0-39.77-17.52l-66.74 26.1-64.73 24.47a30.64 30.64 0 0 0-17.78 39.66l25.4 66.07s8.73 11.78 21.63 6.81c12.9-4.96 11.47-19.54 11.47-19.54l-3.42-8.9a69.35 69.35 0 0 0 122.67-47.68l3.59 9.33s8.72 11.78 21.62 6.82c12.9-4.96 11.48-19.55 11.48-19.55z"/><circle transform="rotate(-21.04 1581.28 587.21)" fill="#FFF" cx="1581.33" cy="587.21" r="6.71"/><circle transform="rotate(-21.04 1659.53 557.12)" fill="#FFF" cx="1659.58" cy="557.12" r="6.71"/><path fill="#FFF" d="M1632.95 573.44c2.45 6.38-.68 20.47-4.79 22.05-3.67 1.41-15.87-6.78-18.33-13.16a12.38 12.38 0 0 1 23.12-8.9z"/><path fill="#FFF" d="M1616.68 608.1a2.5 2.5 0 0 1-.06-5c.67-.02 6.19-.6 6.4-11.1a2.5 2.5 0 0 1 2.5-2.46h.05a2.5 2.5 0 0 1 2.45 2.55c-.31 15.74-11.2 16.02-11.32 16.02h-.02z"/><path fill="#FFF" d="M1638.41 599.41c-3.3 0-7.61-1.42-12.42-6.54a2.5 2.5 0 0 1 3.64-3.42c7.22 7.68 11.72 4.36 12.2 3.96a2.52 2.52 0 0 1 3.52.29c.88 1.03.8 2.57-.23 3.48-.04.04-2.6 2.23-6.7 2.23z"/><path d="M1142.09 530.69a15.94 15.94 0 0 1-12.2-5.2l-59.15-64.78c-38.7-42.38-59.77-108.75-56.4-177.55 1.73-35.06 9.45-68.67 22.95-99.9 14.6-33.75 35.29-63 61.5-86.92 26.2-23.93 57.21-41.88 92.15-53.35 32.32-10.61 66.5-15.24 101.57-13.78 68.82 2.88 133 29.9 171.7 72.28l59.13 64.78a15.97 15.97 0 0 1-23.59 21.54l-59.14-64.78c-33.08-36.23-88.94-59.37-149.44-61.9-30.8-1.29-62 2.93-90.26 12.21-30.62 10.05-57.74 25.73-80.58 46.59-22.85 20.86-40.92 46.43-53.71 76.02-11.81 27.3-18.85 58-20.36 88.78-2.98 60.48 15 118.21 48.07 154.44l59.14 64.78a15.97 15.97 0 0 1-11.38 26.74z"/><path d="M1314.78 571.32c-5.58 0-11.19-.2-16.81-.6a231.59 231.59 0 0 1-159.6-79.75l-3.46-3.98 3.77-3.28 3.46 3.99a226.62 226.62 0 0 0 156.18 78.03c5.5.4 11 .59 16.45.59 54.87 0 107.3-19.52 149.16-55.84 96.78-83.98 109.97-233.97 28.8-327.52l-3.47-3.98 3.78-3.28 3.46 3.98c40.52 46.7 59.5 107.84 53.45 172.17a247.85 247.85 0 0 1-25.29 88.23 240.12 240.12 0 0 1-57.45 74.18c-42.77 37.1-96.36 57.05-152.43 57.06z"/><ellipse transform="rotate(-40.95 1607.61 368.29)" fill="#FFF" cx="1607.6" cy="368.32" rx="26.83" ry="36.02"/><path fill="#FFF" d="m1688 822.92-171.54 19.14a41.66 41.66 0 1 1-9.24-82.81l171.54-19.15a41.66 41.66 0 0 1 9.24 82.81z"/><path fill="#FF8630" d="m1520.27 806.74-15.5-4.98 14.2-8.01c.95-.57 1.47-1.4 1.39-2.23a2.19 2.19 0 0 0-2.4-1.96c-.38.04-.77.22-1.2.4l-17.6 10.22c-1.22.72-1.4 1.64-1.33 2.28.1.98.64 1.58 1.77 1.98l19.35 6.46c.34.08.69.15 1.01.15h.19a2.19 2.19 0 0 0 1.95-2.4c-.08-.83-.76-1.54-1.83-1.91zm34.2-23.8c-3.2-3-7.61-4.3-12.8-3.78l-6.3.64c-1.46.15-2.31 1.2-2.16 2.66l3.09 30.37c.13 1.36 1.04 2.19 2.33 2.19.1 0 .21 0 .33-.02l6.29-.64c5.17-.52 9.24-2.7 11.77-6.3 2.36-3.35 3.33-7.82 2.81-12.93-.52-5.17-2.38-9.38-5.36-12.19zm-10.09 27.12-3.63.37-2.7-26.5 3.64-.38c7.52-.75 12.53 3.74 13.37 12.06 1.22 11.93-7.06 14.08-10.68 14.45zm46.87-31.34a12.35 12.35 0 0 0-11.02-4.33c-4.38.44-7.8 2.68-9.93 6.46-1.96 3.5-2.71 8.12-2.18 13.37 1.08 10.57 6.66 17.13 14.4 17.12.48 0 .97-.02 1.46-.07 8.49-.86 13.23-8.67 12.1-19.9-.54-5.24-2.2-9.62-4.83-12.65zm-1.37 23.53c-1.38 2.73-3.57 4.33-6.35 4.61-5.59.56-9.77-4.58-10.64-13.13-.86-8.5 2.19-14.36 7.78-14.93.29-.03.57-.05.84-.05 2.44 0 4.6 1.12 6.3 3.26 1.87 2.35 3.08 5.75 3.5 9.85.41 4.1-.08 7.7-1.43 10.39zm28.8-15.85 10-12.4c.56-.76 1.02-1.47.92-2.44a2.13 2.13 0 0 0-.83-1.54 2.23 2.23 0 0 0-1.57-.4c-1.17.1-1.85.89-2.49 1.73l-13.44 17.58-1.52-14.98a2.62 2.62 0 0 0-.86-1.8 2.28 2.28 0 0 0-1.76-.5 2.2 2.2 0 0 0-1.6.86 2.7 2.7 0 0 0-.44 1.91l3.24 31.81c.15 1.44 1.02 2.32 2.27 2.32.1 0 .19 0 .28-.02 1.41-.14 2.25-1.26 2.1-2.77l-1.11-10.94 3.97-4.93 14.01 15.06c.88.94 1.5 1.5 2.6 1.39 1.32-.13 2.26-1.2 2.13-2.42a3.28 3.28 0 0 0-1.1-2.07l-14.8-15.46zm46.89-6.94c-.43-4.22-1.76-7.45-3.96-9.58-2.32-2.27-5.52-3.2-9.48-2.8-7.78.78-11.57 6.06-10.68 14.84l2.11 20.73c.15 1.4 1.07 2.3 2.33 2.3h.28a2.2 2.2 0 0 0 1.6-.86 2.7 2.7 0 0 0 .44-1.92l-1.02-10.04 14.82-1.51 1.02 10.05c.16 1.53 1.15 2.44 2.55 2.3a2.28 2.28 0 0 0 1.63-.85c.39-.5.55-1.17.47-1.93l-2.1-20.73zm-4 6.87-14.82 1.5-.64-6.33c-.65-6.36 1.4-9.56 6.46-10.08.4-.04.79-.06 1.16-.06 1.99 0 3.52.6 4.68 1.79 1.35 1.4 2.2 3.7 2.52 6.85l.64 6.33zm40.97-4.7c-.06-.64-.42-1.5-1.76-1.97l-19.35-6.46a3.6 3.6 0 0 0-1.2-.15 2.19 2.19 0 0 0-1.96 2.4c.09.86.77 1.58 1.82 1.9l15.5 5-14.17 8c-.97.53-1.5 1.37-1.4 2.23a2.16 2.16 0 0 0 2.16 1.97l.23-.01c.38-.04.77-.22 1.2-.41l17.6-10.21c1.02-.6 1.43-1.31 1.33-2.28z"/><path fill="#FFF" d="m275.12 723.03 76.7-9.25a16.17 16.17 0 0 1 17.99 14.12l1.5 12.46a16.17 16.17 0 0 1-14.12 17.99l-17.43 2.1a21.35 21.35 0 0 1-20.5 27.5 21.38 21.38 0 0 1-21.36-21.4c0-.35.03-.7.05-1.06l-17.45 2.1a16.17 16.17 0 0 1-18-14.11l-1.5-12.46a16.17 16.17 0 0 1 14.12-17.99z"/><path fill="#FF8630" d="M436.41 1007.85c-1.73-27.57-24.92-49.6-52.8-49.62-27.89 0-51.09 22.02-52.84 49.57l-90.94-.04a51.3 51.3 0 0 0-15.06-34.05 51.33 51.33 0 0 0-36.54-15.15 51.75 51.75 0 0 0-51.63 49.15l-88.21-.04a51.68 51.68 0 0 0-42.94-48.45c6.48-55.88 24.5-99.34 53.58-129.22 25.67-26.37 60.66-42.86 104.04-49.04a22.94 22.94 0 0 0 27.28 21.29c6-1.18 11.18-4.62 14.6-9.7a22.75 22.75 0 0 0 3.59-16.5c3.86-.37 7.73-.73 11.6-1.08 10.23-.92 20.65-1.76 30.73-2.58a2413.3 2413.3 0 0 0 45.4-3.98 22.94 22.94 0 0 0 27.16 19.76 22.7 22.7 0 0 0 14.6-9.7 22.74 22.74 0 0 0 3.68-15.95 541.63 541.63 0 0 0 54.46-11.83 637.39 637.39 0 0 0 29-8.73 23 23 0 0 0 26.1 15.1c6-1.17 11.18-4.62 14.6-9.7a22.75 22.75 0 0 0 2.43-20.8c11.9-4.6 24.51-9.73 38.46-15.62 22.65-9.59 47.2-20.58 75.03-33.63a3585.23 3585.23 0 0 0 44.23-21.1c10.72-5.2 21.16-7.84 31.02-7.84 4.03 0 8.03.45 11.86 1.34a63.97 63.97 0 0 1 29.19 15.56c73.59 68.66 158.1 132.57 237.95 179.96 77.2 45.82 144.88 73.39 190.54 77.63a62.96 62.96 0 0 1 40.83 20.36 63.06 63.06 0 0 1 16.45 42.56l-.03 22.4-747.42-.33zM130.68 812a22.76 22.76 0 0 0-19.04 10.13 22.76 22.76 0 0 0-3.46 17.2 22.94 22.94 0 0 0 26.89 18.06 22.93 22.93 0 0 0 18.06-26.9 22.94 22.94 0 0 0-22.45-18.5zm136.76-8.97a22.93 22.93 0 0 0-22.5 27.32 22.94 22.94 0 0 0 26.9 18.06c6-1.17 11.18-4.62 14.6-9.7a22.75 22.75 0 0 0 3.46-17.19 22.94 22.94 0 0 0-22.46-18.5zm137.7-19.64a22.76 22.76 0 0 0-19.04 10.14 22.75 22.75 0 0 0-3.46 17.18 22.94 22.94 0 0 0 26.89 18.06 22.93 22.93 0 0 0 18.06-26.89 22.94 22.94 0 0 0-22.45-18.5z"/><path d="M657.03 650.88c3.85 0 7.66.42 11.3 1.27a61.46 61.46 0 0 1 28.05 14.94c73.72 68.78 158.38 132.81 238.38 180.29 77.53 46 145.57 73.7 191.59 77.97 15.08 1.4 29 8.35 39.2 19.55a60.56 60.56 0 0 1 15.81 40.88l-.03 19.9-431.2-.19-125-.06-186.42-.08a55.09 55.09 0 0 0-16.22-33.67 55.1 55.1 0 0 0-38.9-15.95 55.1 55.1 0 0 0-38.88 15.93 55.08 55.08 0 0 0-16.24 33.64l-86.31-.04a54.25 54.25 0 0 0-53.95-49.2 54.26 54.26 0 0 0-53.94 49.15l-83.55-.04a54.19 54.19 0 0 0-42.5-47.97c3.32-27.17 9.43-51.48 18.2-72.33 8.71-20.75 20.3-38.62 34.4-53.13a153.53 153.53 0 0 1 47.37-32.87c15.66-7.04 33.35-12.1 52.66-15.05l.15.84a25.45 25.45 0 0 0 29.83 20.04 25.24 25.24 0 0 0 16.2-10.76 25.21 25.21 0 0 0 4.27-15.64c3.14-.3 6.13-.57 9.07-.83 10.23-.93 20.65-1.77 30.73-2.6 14.13-1.14 28.7-2.32 43.1-3.74a25.45 25.45 0 0 0 29.71 19.5 25.24 25.24 0 0 0 16.2-10.76 25.22 25.22 0 0 0 4.3-15.26 541.86 541.86 0 0 0 52.42-11.51c8.76-2.4 17.6-5.04 26.89-8.04a25.51 25.51 0 0 0 28.02 14.46 25.24 25.24 0 0 0 16.2-10.76 25.24 25.24 0 0 0 3.46-20.72 1337.8 1337.8 0 0 0 36.33-14.8c22.67-9.59 47.24-20.6 75.12-33.66a3614.3 3614.3 0 0 0 44.26-21.12c10.38-5.03 20.45-7.59 29.92-7.59M405.1 831.72a25.24 25.24 0 0 0 21.11-11.24 25.24 25.24 0 0 0 3.85-19.07 25.44 25.44 0 0 0-29.83-20.04 25.24 25.24 0 0 0-16.2 10.77 25.23 25.23 0 0 0-3.83 19.06 25.45 25.45 0 0 0 24.9 20.52m-137.7 19.64a25.44 25.44 0 0 0 24.95-30.3A25.44 25.44 0 0 0 262.54 801a25.44 25.44 0 0 0-20.04 29.82 25.45 25.45 0 0 0 24.9 20.52m-136.76 8.97a25.44 25.44 0 0 0 24.95-30.3 25.45 25.45 0 0 0-29.82-20.04 25.44 25.44 0 0 0-20.04 29.82 25.45 25.45 0 0 0 24.91 20.52m526.4-214.45c-11.12 0-22.03 3.2-32.1 8.1a3625.37 3625.37 0 0 1-44.2 21.08 2166.97 2166.97 0 0 1-74.95 33.59 1292.27 1292.27 0 0 1-40.83 16.53A20.38 20.38 0 0 1 446.83 755a20.41 20.41 0 0 1-19.94-16.23 647.98 647.98 0 0 1-31.38 9.5 538.22 538.22 0 0 1-56.78 12.21c.1.43.23.85.32 1.29a20.4 20.4 0 1 1-40.43 3.9c-26.2 2.68-52.48 4.46-78.7 6.82-4.82.43-9.64.88-14.46 1.35a20.4 20.4 0 1 1-39.85 4.26C80.55 789.21 16 839.64 2.7 961.33a49.17 49.17 0 0 1 43.25 48.83l93.09.05a49.18 49.18 0 0 1 49.17-49.16h.02a49.18 49.18 0 0 1 49.16 49.2l95.78.04a50.43 50.43 0 0 1 50.42-49.57h.02a50.43 50.43 0 0 1 50.4 49.62l191.13.08 124.99.06 436.2.2.04-24.9a65.65 65.65 0 0 0-59.55-65.42c-91.33-8.48-271.67-111.99-427.02-256.93a66.63 66.63 0 0 0-30.34-16.17c-4.15-.95-8.3-1.4-12.43-1.4zM405.1 826.72a20.41 20.41 0 1 1 .06-40.83 20.41 20.41 0 0 1-.06 40.83zm-137.7 19.64a20.41 20.41 0 1 1 .06-40.83 20.41 20.41 0 0 1-.05 40.83zm-136.76 8.97a20.41 20.41 0 1 1 .06-40.83 20.41 20.41 0 0 1-.06 40.83z"/><path fill="#3B2314" d="M166.85 777.92h.08-.08zm.08-.01c.05 0 .07 0 0 0z"/><path d="M1118.24 924.39h-.1c-.9-.04-91.15-3.79-203.32-34.97-65.9-18.32-126.4-42.39-179.8-71.53-66.83-36.47-122.68-81.03-166-132.46a2.5 2.5 0 1 1 3.82-3.22c42.91 50.93 98.26 95.1 164.5 131.25 53.06 28.96 113.18 52.89 178.7 71.1 111.63 31.06 201.4 34.8 202.29 34.83a2.5 2.5 0 0 1-.1 5z"/><path d="m848.35 907.93 293.15-200.14a26.08 26.08 0 0 0 6.98-36.21l-29.96-44.24a26.08 26.08 0 0 0-36.21-6.97L789.15 820.5a26.08 26.08 0 0 0-6.97 36.22l29.95 44.23a26.08 26.08 0 0 0 36.22 6.98z"/><circle fill="#FFF" cx="844.58" cy="850.5" r="32.74"/><path d="m1186.33 1004.53-.01 22.55a48.7 48.7 0 0 1-48.72 48.67l-280.02-.12a35.06 35.06 0 0 1-26.48-12.1l-17.02-19.64a29.59 29.59 0 0 0-35.76-7l-61.04 30.99a70.83 70.83 0 0 1-32.1 7.67l-640.94-.3a44.1 44.1 0 0 1-44.08-44.1l.02-27.16 1186.15.54z"/><path fill="#FF8630" d="m1844.35 696.25-32.7 19.54a26.68 26.68 0 0 1-36.58-9.21l-19.53-32.7a26.68 26.68 0 0 1 9.21-36.58l32.7-19.54a26.68 26.68 0 0 1 36.58 9.22l19.53 32.69a26.68 26.68 0 0 1-9.21 36.58z"/><path fill="#FFF" d="M1798.03 722.08a29.33 29.33 0 0 1-25.1-14.22l-19.54-32.7a28.99 28.99 0 0 1-3.25-22.09 28.99 28.99 0 0 1 13.33-17.92l32.7-19.53a29 29 0 0 1 22.09-3.25 28.99 28.99 0 0 1 17.92 13.32l19.53 32.7a29.21 29.21 0 0 1-10.08 40.01l-32.69 19.54a29 29 0 0 1-14.91 4.14zm13.06-105.6c-4.32 0-8.56 1.16-12.36 3.43l-32.7 19.54a24.02 24.02 0 0 0-11.04 14.84 24.03 24.03 0 0 0 2.7 18.31l19.53 32.7a24.02 24.02 0 0 0 14.85 11.04 24.03 24.03 0 0 0 18.3-2.7l32.7-19.53a24.2 24.2 0 0 0 8.35-33.16l-19.54-32.69a24.28 24.28 0 0 0-20.8-11.79z"/><path fill="#FFF" d="M1790.13 642.64c13.37-8 30.17-4.56 38.66 9.65s3.56 30.63-9.81 38.62c-13.38 8-30.18 4.56-38.67-9.65-8.5-14.2-3.56-30.63 9.82-38.62zm2.93 4.91c-11.7 7-14.62 18.95-7.63 30.65 7 11.7 18.9 14.8 30.61 7.8 11.7-6.99 14.63-18.95 7.63-30.65-7-11.7-18.9-14.8-30.6-7.8zm3.96 6.14c3.24-1.93 8.17-3.18 11.59-1.96.73.28 1.63.59 2.19 1.53.8 1.36.66 3-1.12 4.07-1.04.62-1.88.41-3.09.29a9.4 9.4 0 0 0-6.57 1.09c-4.29 2.56-5.67 7.36-2.68 12.38 3 5.01 7.89 6.06 12.17 3.5a9.42 9.42 0 0 0 4.08-5.27c.46-1.13.67-1.96 1.72-2.59 1.77-1.06 3.3-.4 4.1.95.57.94.42 1.88.32 2.65-.55 3.59-3.98 7.34-7.22 9.28-6.48 3.87-15.43 3.12-20.5-5.34-5.06-8.47-1.47-16.7 5-20.58zM673.03 187.45 377 312.85a30.97 30.97 0 0 0-16.44 40.6l52.57 124.08a30.97 30.97 0 0 0 40.6 16.43l296.01-125.4 36.65-122.33-113.37-58.78zm46.04 103.7a20.9 20.9 0 0 1-5.43-41.42 20.9 20.9 0 0 1 5.43 41.42z"/><g fill="#FF8630"><path d="M432.06 365.02a1.94 1.94 0 0 0-1.52.07c-.8.33-2.8 1.2-4.98 2.15l-3.6 1.57-3.46-8.27 4.04-1.63c3.1-1.24 6.47-2.6 7.7-3.11 1.21-.5 1.42-1.54 1.09-2.33-.34-.8-1.21-1.38-2.42-.87l-13.28 5.56c-.51.22-.88.56-1.05 1-.18.43-.16.93.05 1.44l8.51 20.33c.34.81.95 1.26 1.66 1.26.23 0 .48-.05.73-.16 1-.42 1.37-1.42.92-2.5l-3.24-7.75 3.6-1.45 5.07-2.05c1.21-.5 1.42-1.54 1.08-2.33a1.7 1.7 0 0 0-.9-.93zm28.29-8.56c-2.21-5.26-7.9-7.54-13.26-5.3-2.58 1.08-4.57 3-5.6 5.4a9.9 9.9 0 0 0 .07 7.77 9.77 9.77 0 0 0 9.09 6.16c1.37 0 2.78-.28 4.17-.86 5.35-2.24 7.73-7.9 5.53-13.17zm-3.26 6.58a6.57 6.57 0 0 1-3.56 3.52 6.5 6.5 0 0 1-8.66-3.62 6.49 6.49 0 0 1 3.5-8.7 6.43 6.43 0 0 1 5-.07 6.67 6.67 0 0 1 3.66 3.68c.72 1.72.75 3.56.06 5.19zm6.63-15.21a2 2 0 0 0 1.44-.12c.78-.32 1.9-.85 2.87-1.31l.77-.37 4.91 11.73-1 .37c-.98.36-2 .72-2.75 1.04-1.06.45-1.5 1.33-1.12 2.25a1.6 1.6 0 0 0 1.49 1.03c.29 0 .6-.07.92-.2l14.02-5.87c1.09-.46 1.5-1.34 1.1-2.3a1.54 1.54 0 0 0-.94-.9c-.43-.15-.91-.1-1.44.12-1.06.44-3.57 1.57-5.6 2.47l-1.44.65-2.72-6.5c-1.39-3.31-.65-6.23 1.84-7.28a5.2 5.2 0 0 1 2.85-.34c.6.07 1.28.13 2-.17a1.65 1.65 0 0 0 .87-2.2c-.28-.65-.81-1.06-1.62-1.23-2-.45-4.12.34-4.72.59-1.6.67-3.33 2-4.06 3.89a1.8 1.8 0 0 0-.86-.78 1.86 1.86 0 0 0-1.44.06l-5.21 2.18c-1.06.45-1.5 1.33-1.12 2.26.2.46.53.79.96.93zm46.93-19.64c.42.14.9.1 1.45-.12.83-.35 2.2-1 3.3-1.51l.76-.36 4.91 11.73-.82.31c-1.21.45-2.72 1.01-3.36 1.28-1.06.45-1.5 1.33-1.12 2.25.29.68.82 1.03 1.48 1.03.3 0 .6-.07.93-.2l13.55-5.68c.54-.22.91-.54 1.1-.95.2-.4.2-.87 0-1.34-.38-.92-1.32-1.23-2.39-.78-.53.22-1.95.86-3.44 1.53-.94.42-1.9.86-2.69 1.2l-4.92-11.74.85-.33c1.9-.73 4.49-1.73 5.41-2.12.54-.22.9-.54 1.1-.95.2-.4.2-.87 0-1.34a1.54 1.54 0 0 0-.95-.91 2 2 0 0 0-1.44.13l-6.2 2.59-.37-.91c-.8-1.89-1.05-3.34-.78-4.43.25-1.01.96-1.73 2.22-2.26a9.3 9.3 0 0 1 2.4-.56l.19-.03c.36-.05.85-.12 1.24-.28.45-.19.79-.51.96-.92.15-.38.15-.8-.03-1.21-.23-.55-.79-1.18-2.16-1.08-1.19.1-2.63.47-3.85.98-3.14 1.32-6.29 4.32-3.43 11.14l.38.91-4.12 1.73c-1.06.45-1.5 1.33-1.12 2.25.2.47.53.8.96.94zm43.88-4.43c-1.05.44-3.58 1.57-5.6 2.48l-1.43.64-2.72-6.5c-1.39-3.31-.65-6.24 1.84-7.28a5.1 5.1 0 0 1 2.85-.34c.6.07 1.28.13 2-.17.4-.17.7-.48.88-.87a1.7 1.7 0 0 0-.01-1.32c-.28-.66-.81-1.07-1.62-1.24-2-.46-4.12.33-4.72.59-1.6.67-3.33 2-4.07 3.89-.2-.37-.5-.63-.85-.77a1.85 1.85 0 0 0-1.44.05l-5.21 2.18c-1.07.45-1.5 1.33-1.12 2.26.4.96 1.33 1.27 2.4.82.79-.33 1.9-.86 2.87-1.32l.77-.36 4.91 11.73-1 .36c-.98.36-1.99.73-2.75 1.04-.72.3-1.02.73-1.14 1.04-.16.38-.15.8.03 1.22.28.67.81 1.02 1.48 1.02.28 0 .6-.06.92-.2l14.02-5.87c.72-.3 1.02-.73 1.14-1.03.16-.4.15-.83-.04-1.26-.38-.93-1.32-1.24-2.38-.8zm24.85-8.97c.4-.7.71-1.34.35-2.2a1.65 1.65 0 0 0-2.2-.86c-.6.26-.86.7-1.1 1.07a9.34 9.34 0 0 1-4.8 4.3c-3.41 1.44-6.76.43-8.5-2.49l13.33-5.57c1.11-.47 1.49-1.36 1.03-2.45-2.03-4.86-7.47-6.9-12.65-4.73a9.88 9.88 0 0 0-5.47 13.19 9.6 9.6 0 0 0 9 6.1c1.44 0 2.94-.3 4.44-.92 2.88-1.2 5.34-3.24 6.57-5.44zm-13.25-9.86a6.89 6.89 0 0 1 2.66-.54c1.92 0 3.68.85 4.7 2.36l-11.36 4.76a6.49 6.49 0 0 1 4-6.58zm25.75 6.38c1.44 0 2.94-.3 4.43-.92 2.89-1.21 5.35-3.25 6.57-5.44.4-.7.72-1.33.36-2.2a1.65 1.65 0 0 0-2.2-.86c-.6.25-.86.69-1.1 1.07-.06.1-.11.2-.2.31a9.34 9.34 0 0 1-4.6 4c-3.42 1.42-6.77.42-8.5-2.5l13.32-5.58c1.12-.46 1.5-1.36 1.04-2.45a8.93 8.93 0 0 0-5.24-5.05 10.2 10.2 0 0 0-7.41.33 10.23 10.23 0 0 0-5.55 5.35 9.97 9.97 0 0 0 .08 7.84 9.6 9.6 0 0 0 9 6.1zm-2.25-16.22a6.9 6.9 0 0 1 2.67-.54 5.6 5.6 0 0 1 4.7 2.36l-11.36 4.76a6.48 6.48 0 0 1 4-6.58zM445.38 412.3c-3.36.48-6.2.7-7.13-1.5-.82-1.96.5-4 3.36-5.2a9.94 9.94 0 0 1 5.89-.54c.7.12 1.25.22 1.88-.04.46-.2.8-.54.96-.97.16-.4.15-.87-.03-1.3-.33-.79-1.02-1.02-1.63-1.17-2.43-.67-5.47-.36-8.35.85a10.5 10.5 0 0 0-5 4.08 6.12 6.12 0 0 0-.5 5.62c1.77 4.25 5.67 4.54 11.37 3.64 4.67-.72 6.69-.3 7.46 1.55.5 1.18.33 2.36-.5 3.52a8.38 8.38 0 0 1-3.59 2.67 9.82 9.82 0 0 1-5.78.63c-1.24-.28-1.87-.42-2.61-.1a1.67 1.67 0 0 0-.92 2.16c.43 1.04 1.4 1.3 2.63 1.52.6.1 1.31.19 2.14.19 1.6 0 3.6-.3 5.9-1.26 5.5-2.3 7.88-6.55 6.1-10.82-1.92-4.58-6.41-4.31-11.65-3.53zm19.7-16.55c.46 0 .94-.1 1.43-.3 1.7-.71 2.43-2.28 1.79-3.82-.65-1.54-2.29-2.12-3.99-1.4-.81.33-1.42.87-1.75 1.54-.35.7-.37 1.5-.04 2.28a2.7 2.7 0 0 0 2.56 1.7zm14.89 14.48c-.86.36-2.8 1.26-4.08 1.85l-.34.16-5.42-12.96c-.22-.5-.56-.87-1-1.05s-.93-.15-1.44.06l-7.32 3.07c-1.07.44-1.5 1.33-1.12 2.25.2.47.53.8.96.94.42.14.91.1 1.45-.12l3.43-1.53 2.31-1.05 4.92 11.75-2.49.97c-1.58.61-3.14 1.22-3.77 1.48-1.06.45-1.5 1.33-1.12 2.25a1.6 1.6 0 0 0 1.49 1.03c.29 0 .6-.07.92-.2l13.9-5.83c.72-.3 1.02-.72 1.14-1.03.16-.38.15-.82-.03-1.26-.39-.92-1.33-1.23-2.4-.78zm21.2-17.63c-1.01-2.41-2.45-4.03-4.26-4.81-1.73-.74-3.75-.67-5.85.21-2.04.85-3.46 2.1-4.2 3.66-.2-.45-.52-.78-.91-.96-.42-.18-.9-.18-1.36 0-1 .42-1.35 1.37-.91 2.4l6.3 15.05c.31.76.93 1.19 1.61 1.19.23 0 .46-.05.7-.15 1-.41 1.35-1.35.92-2.4l-3.64-8.7c-.73-1.73-.85-3.21-.34-4.4a4.75 4.75 0 0 1 2.72-2.45c1.88-.78 4.48-.86 6.2 3.22l3.65 8.74c.21.5.54.86.96 1.05.42.18.9.18 1.36 0 .5-.22.84-.56 1-1 .16-.41.13-.9-.08-1.4l-3.88-9.25zm24.98-4.56c-.79.33-1.1.95-1.43 1.6a8.47 8.47 0 0 1-4.22 4.13 6.57 6.57 0 0 1-8.66-3.61 6.61 6.61 0 0 1-.02-5.27 6.71 6.71 0 0 1 3.52-3.44 8.45 8.45 0 0 1 5.9-.12c.7.23 1.36.44 2.15.1a1.67 1.67 0 0 0 .9-2.1c-.33-.79-.92-1.1-1.77-1.34a12.8 12.8 0 0 0-8.47.38 10.3 10.3 0 0 0-5.6 5.4 9.9 9.9 0 0 0 .07 7.77 9.76 9.76 0 0 0 9.1 6.16c1.36 0 2.77-.27 4.16-.86a12.78 12.78 0 0 0 6.22-5.75c.42-.78.62-1.42.3-2.2a1.67 1.67 0 0 0-2.15-.85zm24.02-9.6c-.6.25-.86.69-1.1 1.07-.06.1-.12.2-.2.3a9.34 9.34 0 0 1-4.6 4c-3.42 1.43-6.77.43-8.5-2.5l13.32-5.57c1.11-.46 1.5-1.36 1.04-2.45a8.93 8.93 0 0 0-5.24-5.05c-2.3-.83-4.94-.71-7.41.32a10.23 10.23 0 0 0-5.56 5.36 9.97 9.97 0 0 0 .09 7.83 9.6 9.6 0 0 0 9 6.11c1.44 0 2.94-.3 4.43-.93 2.89-1.2 5.34-3.24 6.57-5.43.4-.7.72-1.34.36-2.2a1.65 1.65 0 0 0-2.2-.86zm-11.4-6.8a6.9 6.9 0 0 1 2.66-.54 5.6 5.6 0 0 1 4.7 2.36l-11.36 4.76a6.48 6.48 0 0 1 4-6.58zm60.27-11.4c-1.26.52-8.32 3.58-11.84 5.11l2.67-4.69c2.93-5.16 5.46-9.61 3.59-14.07-1.77-4.21-6.18-5.7-10.97-3.68-3.95 1.65-5.77 4.94-6.6 7.41-.19.55-.17 1.03.08 1.61.36.87 1.32 1.23 2.23.85.73-.3 1.02-.81 1.24-1.54.84-2.64 2.21-4.28 4.33-5.16 2.16-.9 5.1-.92 6.33 2 1.15 2.76-.38 5.9-3.03 10.75l-4.44 8.16c-.48.81-.58 1.45-.32 2.08.32.76.96 1.1 1.6 1.09a2 2 0 0 0 .76-.15l15.71-6.58c.53-.22.9-.57 1.1-1a1.7 1.7 0 0 0-.01-1.33c-.34-.8-1.21-1.37-2.43-.87zM613.82 334a8.87 8.87 0 0 0-8.46-.67 8.86 8.86 0 0 0-5.45 6.5c-.61 2.79-.17 6.1 1.28 9.55 2.43 5.82 6.43 9.09 10.76 9.09 1.2 0 2.41-.25 3.63-.76 5.63-2.36 7.26-8.68 4.16-16.1-1.45-3.46-3.5-6.09-5.92-7.61zm3.7 16.24a5.42 5.42 0 0 1-3.27 4.32c-1.77.74-3.62.5-5.36-.7-1.71-1.18-3.26-3.27-4.35-5.88-1.11-2.65-1.5-5.14-1.13-7.2a5.43 5.43 0 0 1 5.33-4.72c1.12 0 2.23.37 3.3 1.1 1.74 1.19 3.24 3.21 4.34 5.86 1.1 2.61 1.5 5.18 1.14 7.22z"/><path d="M609.47 343.12c-.69.29-1.22.79-1.5 1.42a2.52 2.52 0 0 0 0 2 2.52 2.52 0 0 0 2.35 1.57c.38 0 .77-.07 1.14-.23 1.42-.6 2.07-2.07 1.5-3.43-.57-1.35-2.07-1.93-3.5-1.33zm35.76-2.22c-.98.4-3.06 1.37-4.44 2l-.4.19-7.94-18.95c-.47-1.13-1.37-1.58-2.33-1.18-.69.29-1.23.92-1.64 1.39l-5.57 6.38c-.41.49-.93 1.24-.53 2.18a1.64 1.64 0 0 0 2.22.95 3.9 3.9 0 0 0 1.4-1.15l4.03-5.04 7.04 16.81-.52.2c-1.88.73-4.71 1.83-6.01 2.37-.53.22-.9.56-1.1 1-.18.4-.17.88.01 1.33.25.59.8 1.05 1.55 1.05.27 0 .56-.06.88-.19l14.69-6.15c.52-.22.9-.56 1.1-1a1.7 1.7 0 0 0-.02-1.33c-.33-.8-1.21-1.37-2.42-.86zm21.52-18.83c-3.12-7.47-9.01-10.67-15-8.16a9.61 9.61 0 0 0-5.17 4.94 8.6 8.6 0 0 0-.06 6.85 8.12 8.12 0 0 0 4.83 4.62c2.1.74 4.5.63 6.77-.32 2.4-1 4.58-3.02 5.79-5.3 1.63 4.9.4 8.95-3.3 10.5a6.75 6.75 0 0 1-5.31.12c-.73-.3-1.47-.6-2.25-.27-.98.4-1.37 1.32-.97 2.28.33.78.93 1.02 1.69 1.33 1.03.43 2.2.64 3.43.64 1.52 0 3.12-.32 4.64-.96a9.94 9.94 0 0 0 5.88-6.12c.94-2.88.6-6.4-.97-10.15zm-9.88 4.84a5.69 5.69 0 0 1-4.13.18 4.93 4.93 0 0 1-2.87-2.79 5.36 5.36 0 0 1 .01-4.17 5.82 5.82 0 0 1 3.17-3.1 6.3 6.3 0 0 1 2.44-.51c2.53 0 4.94 1.62 6.78 4.66a10.67 10.67 0 0 1-5.4 5.73z"/></g><path d="M769.8 321.74a3.37 3.37 0 0 1-3.32-2.73 3.45 3.45 0 0 1 .94-3.07 3.53 3.53 0 0 1 4.79 0 3.43 3.43 0 0 1-.52 5.23 3.35 3.35 0 0 1-1.89.57zm294 185.22a3.4 3.4 0 0 1 6.77-.34 3.4 3.4 0 0 1-3.21 3.56h-.18c-1.8 0-3.3-1.4-3.38-3.22zm-7.66 3.15a3.39 3.39 0 0 1-3.17-3.6 3.4 3.4 0 1 1 6.77.43v.01a3.39 3.39 0 0 1-3.38 3.18c-.07 0-.13 0-.22-.02zm18.47-3.92a3.39 3.39 0 0 1 6.7-1.07 3.39 3.39 0 0 1-2.82 3.88 3.4 3.4 0 0 1-3.88-2.8zm-29.62 2.53a3.4 3.4 0 1 1 1.28-6.67 3.42 3.42 0 0 1 2.7 3.98 3.41 3.41 0 0 1-3.35 2.75c-.2 0-.42-.02-.63-.06zm40.29-4.44a3.39 3.39 0 0 1 6.56-1.76 3.42 3.42 0 0 1-2.41 4.16 3.39 3.39 0 0 1-4.15-2.4zm-51.26 1.49a3.4 3.4 0 0 1 2.3-6.38 3.39 3.39 0 0 1 2.04 4.34 3.37 3.37 0 0 1-3.19 2.24 3.1 3.1 0 0 1-1.15-.2zm61.65-4.5a3.4 3.4 0 0 1 6.34-2.43 3.39 3.39 0 0 1-1.95 4.38 3.4 3.4 0 0 1-4.38-1.95zm-71.98-.25a3.39 3.39 0 1 1 3.32-5.92 3.39 3.39 0 0 1-1.67 6.35c-.55 0-1.12-.13-1.65-.43zm82.03-3.83a3.38 3.38 0 1 1 6.03-3.1 3.4 3.4 0 0 1-1.47 4.58 3.37 3.37 0 0 1-4.56-1.48zm-91.45-2.46h.01a3.39 3.39 0 1 1 4.15-5.36 3.4 3.4 0 0 1 .6 4.77 3.36 3.36 0 0 1-4.76.6zm100.98-2.67a3.4 3.4 0 0 1 .94-4.71 3.4 3.4 0 0 1 3.76 5.65 3.39 3.39 0 0 1-4.7-.94zm-109.4-4.8a3.4 3.4 0 0 1 .01-4.8 3.39 3.39 0 1 1 4.78 4.82c-.65.67-1.52 1-2.39 1a3.4 3.4 0 0 1-2.4-1.01zm118.26-1.4a3.4 3.4 0 0 1 5.13-4.45 3.4 3.4 0 0 1-.35 4.78 3.37 3.37 0 0 1-4.78-.34zm-125.7-6.98a3.39 3.39 0 1 1 5.32-4.2 3.39 3.39 0 0 1-.54 4.76 3.43 3.43 0 0 1-4.78-.56zm133.7-.33a3.38 3.38 0 0 1-.31-4.78 3.38 3.38 0 0 1 4.77-.32 3.38 3.38 0 0 1 .33 4.78 3.37 3.37 0 0 1-4.8.32zm-140.16-8.8a3.4 3.4 0 0 1 5.73-3.64 3.38 3.38 0 0 1-2.87 5.22 3.37 3.37 0 0 1-2.86-1.57zm147.05.47a3.39 3.39 0 1 1 3.62-5.74 3.4 3.4 0 0 1 1.07 4.68 3.4 3.4 0 0 1-2.88 1.57c-.63 0-1.25-.16-1.8-.51zm-152.59-10.09v-.01a3.39 3.39 0 1 1 6.01-3.13 3.39 3.39 0 0 1-3 4.97c-1.22 0-2.4-.67-3-1.83zm158.08.76a3.4 3.4 0 0 1-1.82-4.44 3.39 3.39 0 1 1 6.26 2.6v.01a3.4 3.4 0 0 1-3.14 2.1c-.43-.01-.87-.1-1.3-.27zm-162.84-10.75a3.4 3.4 0 0 1 6.23-2.72 3.4 3.4 0 0 1-1.76 4.47 3.4 3.4 0 0 1-4.48-1.75zm166.67.61a3.38 3.38 0 0 1-2.58-4.03v-.01a3.39 3.39 0 1 1 6.63 1.47 3.38 3.38 0 0 1-3.32 2.65c-.23 0-.49-.02-.73-.08zm-170.8-10.8a3.39 3.39 0 1 1 6.35-2.39 3.4 3.4 0 0 1-1.98 4.37 3.4 3.4 0 0 1-4.37-1.98zm172.78.17a3.4 3.4 0 0 1-3.25-3.54 3.4 3.4 0 0 1 6.77.28 3.38 3.38 0 0 1-3.37 3.26h-.15zm-176.44-10.49a3.4 3.4 0 1 1 6.43-2.17 3.4 3.4 0 0 1-2.13 4.3 3.4 3.4 0 0 1-4.3-2.13zm172.77-3.3a3.4 3.4 0 0 1 6.75-.81h-.02a3.39 3.39 0 0 1-2.95 3.77l-.41.03a3.39 3.39 0 0 1-3.37-2.99zm-176.13-7.07a3.4 3.4 0 0 1 2.21-4.25c1.8-.57 3.71.42 4.27 2.21a3.4 3.4 0 0 1-2.23 4.26 3.4 3.4 0 0 1-4.25-2.23zm174.15-3.04a3.4 3.4 0 1 1 6.54-1.8 3.4 3.4 0 0 1-2.36 4.17 3.4 3.4 0 0 1-4.18-2.38zm-177.37-7.36a3.4 3.4 0 0 1 2.3-4.22c1.8-.53 3.68.49 4.2 2.28.55 1.8-.47 3.7-2.27 4.22a3.4 3.4 0 0 1-4.22-2.28zm173.9-2.33a3.4 3.4 0 0 1 1.7-4.48c1.72-.76 3.73 0 4.5 1.7h-.01a3.37 3.37 0 0 1-1.7 4.49 3.4 3.4 0 0 1-4.5-1.71zm-176.85-8.18a3.39 3.39 0 1 1 6.56-1.76 3.39 3.39 0 0 1-2.41 4.15 3.4 3.4 0 0 1-4.15-2.39zm171.93-.88a3.4 3.4 0 0 1 1.03-4.68 3.38 3.38 0 1 1 3.66 5.7 3.39 3.39 0 0 1-4.7-1.02zm-174.69-9.64a3.4 3.4 0 0 1 6.57-1.7 3.4 3.4 0 0 1-2.43 4.15 3.4 3.4 0 0 1-4.14-2.44zm168.52 1.36a3.4 3.4 0 1 1 5.14-4.42 3.4 3.4 0 0 1-2.57 5.6 3.4 3.4 0 0 1-2.57-1.18zm-7.27-7.46a3.4 3.4 0 0 1-.22-4.8 3.4 3.4 0 0 1 5.02 4.57 3.4 3.4 0 0 1-2.5 1.1c-.82 0-1.64-.28-2.3-.88zm-163.96-4.36a3.4 3.4 0 0 1 6.57-1.72 3.39 3.39 0 0 1-2.43 4.14 3.42 3.42 0 0 1-4.14-2.42zm155.86-2.28a3.4 3.4 0 0 1-.7-4.75 3.38 3.38 0 0 1 4.73-.71 3.38 3.38 0 0 1 .72 4.74 3.4 3.4 0 0 1-4.75.72zm-8.76-5.85a3.38 3.38 0 0 1-1.12-4.66 3.39 3.39 0 0 1 4.65-1.15 3.4 3.4 0 0 1 1.14 4.67 3.41 3.41 0 0 1-2.9 1.63 3.3 3.3 0 0 1-1.77-.5zm-149.92-2.27a3.38 3.38 0 0 1 2.35-4.18 3.39 3.39 0 1 1 1.83 6.53 3.39 3.39 0 0 1-4.18-2.35zm140.68-2.87a3.4 3.4 0 0 1 3.07-6.05 3.39 3.39 0 0 1-1.53 6.42c-.52 0-1.05-.1-1.54-.37zm-9.63-4.46a3.4 3.4 0 0 1 2.66-6.25 3.39 3.39 0 0 1-1.33 6.51v.01c-.44 0-.9-.08-1.33-.27zM953 356.69a3.4 3.4 0 1 1 6.47-2.05 3.4 3.4 0 0 1-2.22 4.27c-.34.1-.68.14-1.02.14a3.38 3.38 0 0 1-3.23-2.36zm124.2-.9a3.4 3.4 0 1 1 2.3-6.4h-.01a3.4 3.4 0 0 1-1.15 6.58c-.37 0-.76-.05-1.15-.19zm-10.12-3.33a3.39 3.39 0 1 1 1.94-6.49 3.4 3.4 0 0 1-.96 6.64c-.33 0-.65-.04-.98-.15zm-10.29-2.81a3.38 3.38 0 0 1-2.48-4.1 3.38 3.38 0 1 1 6.58 1.63 3.39 3.39 0 0 1-3.28 2.58 3.3 3.3 0 0 1-.82-.11zm-153.4-3.7a3.38 3.38 0 0 1 3.39-3.39 3.39 3.39 0 0 1 3.4 3.38 3.4 3.4 0 1 1-6.79.01zm10.83-.03a3.4 3.4 0 0 1 3.32-3.47 3.4 3.4 0 1 1 .12 6.79h-.05a3.39 3.39 0 0 1-3.4-3.32zm-18.4 3.24a3.39 3.39 0 1 1 .27-6.77 3.4 3.4 0 0 1-.14 6.77h.01-.13zm32.73-.22a3.4 3.4 0 0 1-.25-6.79 3.4 3.4 0 0 1 .25 6.79zm-43.7-.5a3.4 3.4 0 1 1 .6-6.76 3.4 3.4 0 0 1 3.08 3.68 3.4 3.4 0 0 1-3.38 3.1l-.3-.02zm51-3.2a3.38 3.38 0 0 1 3.2-3.57v-.02a3.4 3.4 0 0 1 .37 6.79h-.17a3.4 3.4 0 0 1-3.4-3.2zm110.52 2.07a3.4 3.4 0 0 1 1.33-6.65 3.39 3.39 0 0 1 2.66 4 3.38 3.38 0 0 1-3.32 2.72 2.9 2.9 0 0 1-.67-.07zm-172.33.04a3.4 3.4 0 1 1 .68-6.75 3.4 3.4 0 0 1-.32 6.77v.01a2.1 2.1 0 0 1-.36-.03zm83.41-3.57a3.4 3.4 0 0 1 6.76-.58 3.4 3.4 0 0 1-3.08 3.68l-.3.01a3.4 3.4 0 0 1-3.38-3.1zm-10.18 1.45a3.4 3.4 0 0 1 6.76-.58 3.4 3.4 0 0 1-3.08 3.67l-.3.02a3.4 3.4 0 0 1-3.38-3.11zm-84.02 1a3.4 3.4 0 1 1 .73-6.75 3.4 3.4 0 0 1-.37 6.77c-.12 0-.24 0-.36-.02zm104.98-3.4a3.4 3.4 0 0 1 3.07-3.69 3.4 3.4 0 1 1 .63 6.76l-.32.02a3.4 3.4 0 0 1-3.38-3.09zm67.64 2.65a3.39 3.39 0 1 1 .99-6.7 3.39 3.39 0 0 1-.49 6.75c-.16 0-.32-.02-.5-.05zm-183.44-.51a3.4 3.4 0 0 1 .86-6.73 3.4 3.4 0 0 1-.42 6.76c-.16 0-.3 0-.44-.03zM979 341.83a3.38 3.38 0 0 1 3.1-3.67 3.37 3.37 0 0 1 3.66 3.09 3.4 3.4 0 0 1-3.08 3.67l-.3.02a3.4 3.4 0 0 1-3.38-3.11zm46.32 2.4a3.38 3.38 0 0 1-3.08-3.68 3.38 3.38 0 1 1 6.76.6 3.4 3.4 0 0 1-3.38 3.1c-.1 0-.2 0-.3-.02zm-35.53-3.31a3.4 3.4 0 0 1 6.77-.44 3.39 3.39 0 0 1-3.17 3.6c-.07.02-.15.02-.22.02a3.39 3.39 0 0 1-3.38-3.18zm24.91 2.69a3.4 3.4 0 0 1 .2-6.79 3.4 3.4 0 0 1 3.3 3.49 3.4 3.4 0 0 1-3.39 3.3h-.1zm-14.12-3.33a3.4 3.4 0 0 1 6.79-.16 3.37 3.37 0 0 1-3.3 3.47h-.09a3.4 3.4 0 0 1-3.4-3.3zm-158.97 3.18a3.38 3.38 0 0 1-2.84-3.87 3.4 3.4 0 0 1 6.7 1.03h.01a3.4 3.4 0 0 1-3.35 2.88 3.2 3.2 0 0 1-.52-.04zm-10.8-1.86a3.4 3.4 0 0 1 1.29-6.67h-.02a3.4 3.4 0 0 1 2.7 3.98 3.4 3.4 0 0 1-3.32 2.76 3.5 3.5 0 0 1-.65-.07zm-10.73-2.3a3.4 3.4 0 1 1 1.56-6.6 3.39 3.39 0 0 1-.77 6.7v-.01c-.26 0-.53-.03-.79-.1zm125.5-2.55a3.4 3.4 0 0 1 1.71-4.48 3.4 3.4 0 1 1 2.77 6.2 3.38 3.38 0 0 1-4.48-1.72zm-136.11 0a3.4 3.4 0 0 1 1.75-6.57 3.4 3.4 0 0 1-.88 6.68 4.3 4.3 0 0 1-.87-.1zm-10.63-3.24a3.4 3.4 0 0 1 2.3-6.4 3.4 3.4 0 0 1-1.14 6.6 3.5 3.5 0 0 1-1.16-.2zm-10.1-3.83-.01.01a3.4 3.4 0 1 1 2.27-6.4 3.4 3.4 0 0 1-1.13 6.6c-.38 0-.77-.07-1.13-.21zm152.16-2.35a3.39 3.39 0 1 1 5.92-3.3 3.4 3.4 0 0 1-1.3 4.62 3.6 3.6 0 0 1-1.67.42 3.38 3.38 0 0 1-2.95-1.74zm-162.48-1.42a3.38 3.38 0 0 1-1.87-4.42 3.4 3.4 0 1 1 6.3 2.54 3.4 3.4 0 0 1-3.15 2.12c-.42 0-.86-.07-1.28-.24zm156.9-7.51a3.37 3.37 0 0 1 .9-4.71 3.4 3.4 0 0 1 3.8 5.62 3.4 3.4 0 0 1-4.71-.9zm-6.2-8.66a3.4 3.4 0 0 1 5.42-4.1h-.01a3.4 3.4 0 0 1-.65 4.75 3.41 3.41 0 0 1-4.76-.65zm-6.66-8.28a3.4 3.4 0 0 1 5.16-4.41 3.4 3.4 0 0 1-2.58 5.6c-.96 0-1.91-.4-2.58-1.2zm-7.14-7.85a3.39 3.39 0 1 1 4.86-4.74 3.4 3.4 0 0 1-.07 4.81c-.65.64-1.5.96-2.36.96-.88 0-1.76-.35-2.43-1.03zm-7.64-7.36a3.4 3.4 0 0 1 4.55-5.05 3.4 3.4 0 0 1 .25 4.8 3.38 3.38 0 0 1-4.8.26zm-8.12-6.77a3.4 3.4 0 1 1 4.15-5.36 3.4 3.4 0 0 1 .62 4.75 3.42 3.42 0 0 1-4.76.61zm-178.31-1.47a3.4 3.4 0 0 1 2.5-6.31 3.4 3.4 0 0 1-1.25 6.56c-.43 0-.85-.08-1.25-.25zm169.72-4.65a3.4 3.4 0 0 1-.98-4.71 3.4 3.4 0 0 1 4.7-.98 3.4 3.4 0 0 1 .97 4.7 3.37 3.37 0 0 1-2.83 1.53c-.64 0-1.3-.17-1.86-.54zm-164.6-4.85a3.4 3.4 0 1 1 5.08-4.5 3.4 3.4 0 0 1-.28 4.79 3.4 3.4 0 0 1-4.79-.29zm155.54-.57a3.4 3.4 0 0 1-1.35-4.6 3.4 3.4 0 1 1 5.96 3.23 3.37 3.37 0 0 1-3 1.78c-.53 0-1.09-.14-1.6-.4zm-147.04-6.16a3.4 3.4 0 1 1 5.97-3.22 3.4 3.4 0 0 1-1.38 4.6 3.4 3.4 0 0 1-1.6.4c-1.2 0-2.39-.64-2.99-1.78zm137.57 1.36a3.4 3.4 0 0 1 2.9-6.15 3.4 3.4 0 0 1 1.6 4.52 3.37 3.37 0 0 1-3.06 1.95c-.49 0-.98-.1-1.44-.32zm-127.8-6.1a3.4 3.4 0 1 1 6.33-2.46h-.01a3.38 3.38 0 0 1-1.94 4.4 3.39 3.39 0 0 1-4.38-1.93zm118.05 1.85a3.4 3.4 0 0 1-1.88-4.41 3.38 3.38 0 0 1 4.4-1.89 3.4 3.4 0 0 1-1.26 6.54c-.42 0-.84-.08-1.26-.24zm-107.93-5.66a3.4 3.4 0 0 1 6.46-2.08 3.4 3.4 0 0 1-2.18 4.28 3.4 3.4 0 0 1-4.28-2.2zm97.97 2.02a3.39 3.39 0 1 1 2.1-6.45h.02a3.39 3.39 0 0 1 2.15 4.28 3.38 3.38 0 0 1-3.21 2.35c-.36 0-.7-.06-1.06-.18zm-87.63-5.21a3.4 3.4 0 1 1 6.58-1.67 3.38 3.38 0 0 1-2.45 4.11v.02a3.4 3.4 0 0 1-4.13-2.46zm77.45 2.25a3.4 3.4 0 0 1-2.46-4.12 3.4 3.4 0 1 1 6.58 1.67 3.4 3.4 0 0 1-3.28 2.55c-.29 0-.56-.03-.84-.1zm-66.92-4.8a3.4 3.4 0 0 1 2.72-3.94 3.4 3.4 0 1 1 1.22 6.66 3.4 3.4 0 0 1-3.95-2.72zm56.57 2.55a3.4 3.4 0 1 1 1.2-6.68h.01a3.37 3.37 0 0 1 2.73 3.94 3.38 3.38 0 0 1-3.33 2.8c-.2 0-.4-.03-.6-.06zm-45.9-4.37a3.39 3.39 0 1 1 6.75-.76 3.38 3.38 0 0 1-3 3.74 3.4 3.4 0 0 1-3.76-2.99zm35.42 2.86a3.39 3.39 0 1 1 .72-6.75 3.4 3.4 0 0 1 3.03 3.74 3.4 3.4 0 0 1-3.38 3.02h-.37zm-24.65-3.94a3.39 3.39 0 0 1 3.26-3.53 3.39 3.39 0 0 1 3.53 3.25 3.4 3.4 0 0 1-3.26 3.53h-.13a3.38 3.38 0 0 1-3.4-3.25zm14.1 3.2a3.4 3.4 0 0 1 .22-6.79v.01a3.4 3.4 0 0 1-.1 6.79h-.11zm-88.82 41.25a3.66 3.66 0 0 1-1.3-.26c-.21-.1-.4-.19-.6-.31-.18-.12-.34-.27-.5-.42a3.46 3.46 0 0 1-.74-3.7 3.46 3.46 0 0 1 1.83-1.84 3.4 3.4 0 0 1 3.2.31 3.9 3.9 0 0 1 1.25 1.52 3.5 3.5 0 0 1 .25 1.3 3.46 3.46 0 0 1-1.5 2.83 4.16 4.16 0 0 1-1.23.5 3.8 3.8 0 0 1-.66.07z"/></svg>
