<svg xmlns="http://www.w3.org/2000/svg" viewBox="0 0 1080 1080" xml:space="preserve"><path fill="#FF8630" d="M1007.22 383.82 867.2 241.75 690.58 62.05c-62-71.44-170.17-79.1-241.62-17.1-71.44 62-79.1 170.17-17.1 241.62L574.03 450.4l74 85.28 12.9 14.85 128.67 148.3c54.67 63 150.05 69.74 213.04 15.08l14.7-13.97c66.8-71.24 93.51-211.13-10.12-316.13zm-239.35 224a15.17 15.17 0 1 1 26-15.61 15.17 15.17 0 0 1-26 15.62zm90.78 52.2a15.17 15.17 0 1 1-26 15.62 15.17 15.17 0 0 1 26-15.61zM719.34 497.79a15.17 15.17 0 1 1-26 15.62 15.17 15.17 0 0 1 26-15.62zm227.6 168.4a15.17 15.17 0 1 1-26 15.62 15.17 15.17 0 0 1 26-15.62zM786.58 521.5a15.17 15.17 0 1 1 26-15.62 15.17 15.17 0 0 1-26 15.62zm110.12 56.47a15.17 15.17 0 1 1-26 15.62 15.17 15.17 0 0 1 26-15.62zM688.72 321.25c-65.36 56.72-164.34 49.71-221.06-15.66l-2.35-2.7-17.33-19.98-4.95-5.7c-56.72-65.36-49.7-164.33 15.66-221.06C524.05-.57 623.03 6.45 679.75 71.81l4.94 5.7 17.34 19.97 2.35 2.7c56.72 65.37 49.7 164.35-15.66 221.07zm208.89 3.23a15.17 15.17 0 1 1-26 15.62 15.17 15.17 0 0 1 26-15.62zm-81.57 116.2a15.17 15.17 0 1 1-15.62-26 15.17 15.17 0 0 1 15.62 26zm74.64 68.38a15.17 15.17 0 1 1 26-15.62 15.17 15.17 0 0 1-26 15.62zm106.6 70.83a15.17 15.17 0 1 1-26 15.61 15.17 15.17 0 0 1 26-15.61zm-97.87-167.96a15.17 15.17 0 1 1-26 15.61 15.17 15.17 0 0 1 26-15.61zm105.86 68.86a15.17 15.17 0 1 1-26 15.62 15.17 15.17 0 0 1 26-15.62zm-35.8-79.12a15.17 15.17 0 1 1-26 15.62 15.17 15.17 0 0 1 26-15.62z"/><path d="M903.9 752.89c-3.67 0-7.35-.13-11.04-.4a152.02 152.02 0 0 1-104.77-52.34L430.34 287.88a172.15 172.15 0 0 1-41.97-125.8 172.14 172.14 0 0 1 59.28-118.64 172.18 172.18 0 0 1 125.8-41.97 172.14 172.14 0 0 1 118.6 59.23l176.58 179.65 140.01 142.06c60.44 61.23 71.18 127.44 69.55 172.2-2 55.12-23.65 108.6-59.39 146.7l-.08.09-14.7 13.97a151.96 151.96 0 0 1-100.13 37.52zM561.1 5.1c-39.34 0-78.85 13.6-110.83 41.35a168.17 168.17 0 0 0-57.9 115.9 168.16 168.16 0 0 0 41 122.9L791.1 697.53a148.04 148.04 0 0 0 102.03 50.98 148.08 148.08 0 0 0 108.19-36.1l14.59-13.87c35.07-37.42 56.3-89.93 58.27-144.07 1.6-43.98-8.97-109.03-68.4-169.25l-140-142.06-176.7-179.8C655.64 24.86 608.5 5.12 561.1 5.12zm372.88 686.04a17.18 17.18 0 0 1-16.69-21.31 17.19 17.19 0 0 1 31.37-4.68 17.19 17.19 0 0 1-14.68 26zm-.05-30.32c-2.31 0-4.64.6-6.76 1.88a13.08 13.08 0 0 0-6 8.1 13.18 13.18 0 0 0 25.55 6.38 13.17 13.17 0 0 0-12.8-16.35zM845.68 685a17.18 17.18 0 0 1-8.87-31.88 17.19 17.19 0 0 1 23.55 5.88 17.19 17.19 0 0 1-14.69 26zm-.06-30.33a13.18 13.18 0 0 0-11.26 19.94 13.18 13.18 0 0 0 18.07 4.51 13.18 13.18 0 0 0-6.8-24.45zm-64.72-37.5a17.17 17.17 0 1 1-.06-34.33 17.17 17.17 0 0 1 .06 34.34zm-.05-30.32a13.18 13.18 0 0 0-3.17 25.94 13.18 13.18 0 1 0 3.17-25.94zm203.47 18a17.18 17.18 0 0 1-8.87-31.87 17.19 17.19 0 0 1 23.55 5.88 17.19 17.19 0 0 1-14.68 26zm-.06-30.32c-2.3 0-4.64.6-6.75 1.88a13.08 13.08 0 0 0-6 8.1 13.08 13.08 0 0 0 1.5 9.97 13.08 13.08 0 0 0 8.09 5.99 13.18 13.18 0 1 0 3.16-25.94zm-100.54 28.42a17.25 17.25 0 0 1-14.75-8.33 17.06 17.06 0 0 1-1.94-13 17.06 17.06 0 0 1 7.82-10.56 17.06 17.06 0 0 1 13-1.93 17.19 17.19 0 0 1-4.12 33.83zm-.05-30.34c-2.36 0-4.68.64-6.76 1.89-3.01 1.8-5.14 4.68-6 8.1s-.32 6.95 1.5 9.96a13.08 13.08 0 0 0 8.1 6 13.18 13.18 0 1 0 3.16-25.95zm-84.07-41.75a17.26 17.26 0 0 1-14.75-8.33 17.19 17.19 0 0 1 18.87-25.5 17.06 17.06 0 0 1 10.57 7.82 17.05 17.05 0 0 1 1.93 13 17.06 17.06 0 0 1-7.81 10.56 17.06 17.06 0 0 1-8.8 2.46zm-11.32-10.39a13.18 13.18 0 0 0 18.07 4.5 13.18 13.18 0 0 0-3.6-24.05 13.18 13.18 0 0 0-14.47 19.55zm-81.91 2.28a17.18 17.18 0 0 1-8.87-31.88 17.19 17.19 0 0 1 23.55 5.88 17.19 17.19 0 0 1-14.68 26zm-.05-30.33a13.18 13.18 0 0 0-11.26 19.94 13.18 13.18 0 0 0 18.06 4.51 13.18 13.18 0 0 0-6.8-24.45zm197.39 26a17.24 17.24 0 0 1-14.75-8.33 17.05 17.05 0 0 1-1.94-13 17.06 17.06 0 0 1 7.82-10.55 17.05 17.05 0 0 1 13-1.94c4.44 1.1 8.2 3.88 10.55 7.81a17.05 17.05 0 0 1 1.94 13 17.05 17.05 0 0 1-7.81 10.56 17.06 17.06 0 0 1-8.81 2.45zm-.05-30.34c-2.36 0-4.69.64-6.76 1.89-3.02 1.8-5.14 4.68-6 8.1s-.32 6.95 1.5 9.96a13.08 13.08 0 0 0 8.1 6 13.14 13.14 0 0 0 14.46-19.56 13.08 13.08 0 0 0-11.3-6.39zm88.63 17.68a17.18 17.18 0 1 1-.05-34.35 17.18 17.18 0 0 1 .05 34.35zm-.05-30.33c-2.36 0-4.68.64-6.75 1.89-3.02 1.8-5.15 4.68-6 8.1s-.32 6.95 1.49 9.96a13.08 13.08 0 0 0 8.1 6c3.41.85 6.95.32 9.96-1.5 3.02-1.8 5.15-4.68 6-8.09s.32-6.95-1.49-9.97a13.08 13.08 0 0 0-11.3-6.39zm-183.98-30.58a17.18 17.18 0 0 1-8.87-31.88 17.19 17.19 0 0 1 23.56 5.87 17.19 17.19 0 0 1-5.88 23.56 17.06 17.06 0 0 1-8.8 2.45zm-.05-30.33a13.18 13.18 0 0 0-11.26 19.94 13.18 13.18 0 0 0 18.06 4.5 13.18 13.18 0 0 0-6.8-24.44zm78.23 22.38a17.17 17.17 0 1 1-.05-34.35 17.17 17.17 0 0 1 .05 34.35zm-.05-30.33c-2.3 0-4.64.6-6.76 1.88a13.08 13.08 0 0 0-6 8.1 13.08 13.08 0 0 0 1.5 9.96 13.08 13.08 0 0 0 8.1 6 13.18 13.18 0 1 0 3.17-25.94zm70.11 20.07a17.18 17.18 0 0 1-8.87-31.88 17.19 17.19 0 0 1 23.56 5.88 17.19 17.19 0 0 1-14.69 26zm-.05-30.33c-2.3 0-4.64.6-6.76 1.88a13.08 13.08 0 0 0-6 8.1 13.18 13.18 0 1 0 24.06-3.6 13.17 13.17 0 0 0-11.3-6.38zm-370.33-34.79c-44.43 0-88.63-18.5-119.97-54.61l-24.63-28.39C384.17 212.43 391.28 112 457.38 54.64S623.9 4.4 681.26 70.5l24.63 28.38a157.66 157.66 0 0 1 38.44 115.22 157.66 157.66 0 0 1-54.3 108.66 158.05 158.05 0 0 1-103.9 38.76zM561.3 19.88A154.05 154.05 0 0 0 460 57.67c-64.42 55.9-71.35 153.8-15.44 218.23l24.62 28.39c55.9 64.42 153.81 71.35 218.24 15.45l1.31 1.5-1.3-1.5c64.42-55.91 71.35-153.81 15.44-218.24l-24.62-28.38c-30.55-35.2-73.64-53.24-116.95-53.24zm323.35 329.57a17.18 17.18 0 0 1-8.87-31.88 17.19 17.19 0 0 1 23.55 5.88 17.19 17.19 0 0 1-14.68 26zm-.05-30.32a13.18 13.18 0 0 0-11.26 19.94 13.18 13.18 0 0 0 18.06 4.5 13.17 13.17 0 0 0-6.8-24.45z"/><path d="m936.26 425.34-18.88-49.1a22.77 22.77 0 0 0-29.56-13.03l-49.6 19.4-48.11 18.18a22.77 22.77 0 0 0-13.22 29.48l18.9 49.1s6.47 8.75 16.06 5.07 8.53-14.53 8.53-14.53l-2.55-6.61A51.54 51.54 0 0 0 909 427.86l2.68 6.94s6.47 8.75 16.06 5.06c9.6-3.68 8.53-14.52 8.53-14.52z"/><circle transform="rotate(-21.04 827.2 437.17)" fill="#FFF" cx="827.22" cy="437.17" r="4.99"/><circle transform="rotate(-21.04 885.34 414.8)" fill="#FFF" cx="885.37" cy="414.8" r="4.99"/><path fill="#FFF" d="M865.58 426.93c1.82 4.74-.5 15.22-3.56 16.39-2.73 1.05-11.8-5.04-13.62-9.78a9.2 9.2 0 1 1 17.18-6.6z"/><path fill="#FFF" d="M853.49 452.84a2 2 0 0 1-.05-4c.48-.02 4.47-.46 4.62-8.12a2 2 0 0 1 2-1.96h.04a2 2 0 0 1 1.96 2.04c-.24 11.83-8.47 12.04-8.55 12.04h-.02z"/><path fill="#FFF" d="M869.64 446.38c-2.5 0-5.73-1.07-9.33-4.9a2 2 0 0 1 2.91-2.75c5.47 5.83 8.82 2.99 8.85 2.96a2 2 0 1 1 2.65 3 8.24 8.24 0 0 1-5.08 1.69z"/><path d="M500.19 394.42a11.81 11.81 0 0 1-9.03-3.9l-43.61-48.22c-28.53-31.54-43.92-80.81-41.18-131.79a212.08 212.08 0 0 1 17.35-73.96c10.94-24.97 26.38-46.57 45.88-64.22 19.51-17.64 42.56-30.84 68.5-39.22a212.1 212.1 0 0 1 75.32-9.86c51 2.38 98.48 22.63 127 54.17l43.62 48.22a11.84 11.84 0 1 1-17.57 15.88l-43.6-48.21c-24.4-26.97-65.72-44.32-110.55-46.4-22.82-1.07-45.97 1.95-66.95 8.73C522.64 63 502.5 74.51 485.5 89.9c-17 15.38-30.5 34.28-40.07 56.16-8.85 20.2-14.18 42.92-15.4 65.73-2.42 44.81 10.7 87.67 35.1 114.64l43.6 48.22a11.84 11.84 0 0 1-8.53 19.78z"/><path d="M629.12 425.5c-4.15 0-8.32-.15-12.5-.45a172.25 172.25 0 0 1-118.71-59.31l-2.57-2.96 3.02-2.62 2.57 2.96a168.27 168.27 0 0 0 115.97 57.95c4.08.28 8.16.43 12.22.43 40.74 0 79.68-14.5 110.76-41.46 71.87-62.37 81.66-173.74 21.38-243.21l-2.57-2.96 3.02-2.62 2.57 2.96c61.7 71.1 51.73 185.06-21.78 248.85a172.12 172.12 0 0 1-113.38 42.44z"/><ellipse transform="rotate(-40.95 846.75 274.47)" fill="#FFF" cx="846.74" cy="274.49" rx="19.94" ry="26.77"/><path fill="#FFF" d="M906.5 612.34 779 626.57a30.96 30.96 0 1 1-6.87-61.55l127.5-14.22a30.97 30.97 0 0 1 6.87 61.55z"/><path fill="#FF8630" d="m781.88 600.2-11.24-3.62 10.3-5.8c.75-.45 1.16-1.12 1.1-1.79a1.76 1.76 0 0 0-1.93-1.57c-.3.04-.6.17-.94.32l-13.08 7.59c-.97.57-1.1 1.3-1.06 1.82.1 1 .8 1.37 1.4 1.58l14.4 4.8a3.59 3.59 0 0 0 .93.12c.96-.1 1.66-.96 1.57-1.93-.07-.66-.6-1.23-1.45-1.52zm25.46-17.66c-2.4-2.26-5.72-3.24-9.61-2.85l-4.68.48c-.57.06-1.04.29-1.34.67-.31.37-.44.87-.39 1.45l2.3 22.57c.06.57.29 1.04.67 1.34.32.27.73.4 1.19.4l.26-.01 4.67-.48c3.89-.4 6.95-2.03 8.85-4.73 1.77-2.52 2.5-5.87 2.1-9.7-.38-3.88-1.78-7.03-4.02-9.14zm-7.6 20.12-2.57.26-1.97-19.44 2.57-.27c2.95-.29 5.33.44 7.04 2.2 1.52 1.54 2.47 3.85 2.76 6.65.28 2.8-.19 5.24-1.36 7.05-1.33 2.05-3.5 3.24-6.46 3.54zm26.64-26.51a9.31 9.31 0 0 0-7.47 4.86c-1.47 2.63-2.04 6.09-1.64 10.02.4 3.95 1.66 7.24 3.63 9.52a9.22 9.22 0 0 0 8.3 3.26 9.3 9.3 0 0 0 7.47-4.87c1.47-2.63 2.04-6.1 1.63-10.05-.85-8.4-5.54-13.4-11.92-12.74zm7.08 20.77c-1 2-2.6 3.15-4.62 3.36a5.7 5.7 0 0 1-5.2-2.36c-1.37-1.74-2.26-4.25-2.56-7.28-.64-6.24 1.59-10.54 5.67-10.96a5.75 5.75 0 0 1 5.2 2.34c1.36 1.73 2.25 4.23 2.55 7.26.31 3.02-.05 5.66-1.04 7.64zm21.69-11.73 7.37-9.13c.4-.57.78-1.13.7-1.9a1.7 1.7 0 0 0-1.93-1.56c-.92.09-1.44.69-1.93 1.34l-9.8 12.8-1.1-10.8c-.12-1.2-.96-1.94-2.08-1.83-1.11.12-1.75.98-1.63 2.2l2.4 23.64c.07.6.29 1.09.65 1.41a1.71 1.71 0 0 0 1.4.42c.54-.06.98-.3 1.29-.68.3-.4.44-.92.38-1.52l-.82-8.08 2.82-3.5 10.32 11.08c.66.7 1.16 1.16 2.03 1.07 1.05-.1 1.8-.96 1.7-1.94a2.55 2.55 0 0 0-.85-1.61l-10.92-11.41zm34.8-5.16c-.67-6.6-4.27-9.93-10.13-9.32-2.99.3-5.2 1.49-6.58 3.52-1.3 1.9-1.79 4.48-1.47 7.65l1.57 15.4c.11 1.13.85 1.84 1.86 1.84l.22-.01c1.12-.11 1.75-.98 1.63-2.2l-.75-7.34 10.76-1.1.75 7.35c.12 1.22.95 1.94 2.04 1.82 1.12-.11 1.8-1 1.67-2.2l-1.57-15.4zm-3.24 5-10.75 1.1-.47-4.58c-.24-2.3.03-4.08.79-5.28.76-1.2 2.04-1.88 3.9-2.07.28-.03.56-.04.83-.04 3.13 0 4.8 2.02 5.24 6.3l.46 4.57zm30.72-3.38c-.05-.52-.34-1.21-1.4-1.57l-14.4-4.82a3.1 3.1 0 0 0-.93-.1 1.75 1.75 0 0 0-1.57 1.92c.07.7.62 1.27 1.45 1.52l11.24 3.62-10.28 5.8c-.77.43-1.18 1.1-1.11 1.8a1.74 1.74 0 0 0 1.92 1.57c.3-.04.6-.18.94-.33l13.09-7.59c.54-.32 1.15-.82 1.05-1.82z"/><path fill="#FFF" d="m304.4 492.22 50.72 26.92a12.02 12.02 0 0 1 4.98 16.25l-4.37 8.23a12.02 12.02 0 0 1-16.25 4.98l-11.53-6.11a15.88 15.88 0 0 1-24.17 8.07 15.89 15.89 0 0 1-3.96-22.12c.15-.22.33-.42.49-.63l-11.54-6.12a12.02 12.02 0 0 1-4.99-16.25l4.38-8.24a12.02 12.02 0 0 1 16.24-4.98z"/><path fill="#FF8630" d="M282.08 734.4a39.68 39.68 0 0 0-11.25-52.76 39.23 39.23 0 0 0-22.53-7.1 39.62 39.62 0 0 0-30.86 14.83l-55.24-38.48a38.26 38.26 0 0 0 5.21-27.15 38.29 38.29 0 0 0-15.9-24.84 38.31 38.31 0 0 0-22-6.92 38.61 38.61 0 0 0-30.48 14.9l-53.58-37.3a38.54 38.54 0 0 0-5.61-47.76c34-38.47 70.58-57.98 108.75-57.98 20.19 0 41.26 5.46 62.66 16.21a17.06 17.06 0 0 0-1.34 15.15 17.05 17.05 0 0 0 9.1 9.5 17.18 17.18 0 0 0 22.34-8.2 1786.01 1786.01 0 0 1 27.22 15.65c9.57 5.56 19.43 11.3 29.29 16.8a17.05 17.05 0 0 0-.78 14.17 17.05 17.05 0 0 0 9.08 9.48 17.19 17.19 0 0 0 22.16-7.83 402.6 402.6 0 0 0 38.14 15.84c6.8 2.4 13.77 4.69 21.27 6.95a17.24 17.24 0 0 0 9.62 20.33 17.18 17.18 0 0 0 23.5-11.34 979.37 979.37 0 0 0 29.96 6.76c17.87 3.77 37.52 7.48 60.05 11.34 11.31 1.94 23.07 3.87 35.94 5.9 12.37 1.95 22.08 6.73 28.84 14.2a47.42 47.42 0 0 1 11.17 21.8c15.74 73.14 40.17 148.01 68.77 210.83 27.65 60.74 57.24 106.3 83.32 128.29a46.58 46.58 0 0 1 8.2 62.51l-9.45 13.53L282.08 734.4zm66.29-153.37a17.18 17.18 0 0 0-.02 34.34 17.18 17.18 0 0 0 .01-34.34zm-92.34-46.47a17.18 17.18 0 0 0-.02 34.34 17.18 17.18 0 0 0 .02-34.34zm-87.24-52.59a17.18 17.18 0 0 0-.01 34.34 17.18 17.18 0 0 0 .01-34.34z"/><path d="M148.6 465.84c19.28 0 39.42 5.08 59.92 15.09l-.15.33a19.04 19.04 0 0 0-.32 14.67 19.04 19.04 0 0 0 10.15 10.6 19.18 19.18 0 0 0 23.9-7.3l5.65 3.2c6.63 3.78 13.35 7.69 19.85 11.47 9.03 5.25 18.35 10.67 27.67 15.89a19.19 19.19 0 0 0 17.8 26.26c6.54 0 12.55-3.33 16.05-8.7a402.8 402.8 0 0 0 36.67 15.14c6.3 2.23 12.74 4.35 19.59 6.45a19.25 19.25 0 0 0 11.16 20.78 19.18 19.18 0 0 0 25.65-10.79c8.67 2.09 17.94 4.17 28.2 6.34 17.9 3.77 37.57 7.49 60.13 11.35 11.38 1.95 23.14 3.89 35.97 5.9 11.91 1.89 21.22 6.45 27.66 13.57a45.4 45.4 0 0 1 10.7 20.89c15.78 73.27 40.25 148.28 68.91 211.23 27.78 61 57.56 106.81 83.85 128.99a44.66 44.66 0 0 1 15.52 28.39 44.73 44.73 0 0 1-7.66 31.44l-8.31 11.9-262.73-183-76.23-53.1-113.47-79.03a41.21 41.21 0 0 0 4.3-27.39A41.23 41.23 0 0 0 271.97 680a41.23 41.23 0 0 0-23.67-7.44 41.64 41.64 0 0 0-31.22 14.13l-52.21-36.37a40.6 40.6 0 0 0-12.23-53.05 40.3 40.3 0 0 0-23.14-7.28 40.62 40.62 0 0 0-30.85 14.2L48.12 569a40.56 40.56 0 0 0-5.56-47.23c16.87-18.82 34.44-33.05 52.28-42.32 17.36-9.02 35.44-13.6 53.75-13.6m20.19 52.47a19.18 19.18 0 0 0 .01-38.34 19.18 19.18 0 0 0-.01 38.34M256 570.9a19.18 19.18 0 1 0 0-38.36 19.18 19.18 0 0 0 0 38.36m92.34 46.47a19.18 19.18 0 1 0 0-38.36 19.18 19.18 0 0 0 0 38.36M148.59 461.84c-36.74 0-74.33 17.42-111.53 60.12a36.55 36.55 0 0 1 5.65 48.14l56.77 39.54a36.5 36.5 0 0 1 50.88-9.1 36.55 36.55 0 0 1 9.1 50.88l58.41 40.69a37.45 37.45 0 0 1 51.81-8.83 37.48 37.48 0 0 1 9.69 51.66l116.55 81.18 76.23 53.1 266 185.28 10.6-15.18a48.79 48.79 0 0 0-8.56-65.18c-52.1-43.94-118.19-183.63-151.43-338a49.53 49.53 0 0 0-11.64-22.74c-7.85-8.67-18.74-13.05-30-14.82a2691.23 2691.23 0 0 1-35.92-5.9 1609.92 1609.92 0 0 1-59.98-11.33 962.17 962.17 0 0 1-31.93-7.25 15.13 15.13 0 0 1-21.13 11.96 15.16 15.16 0 0 1-7.85-19.81 480.5 480.5 0 0 1-23.18-7.53 400.12 400.12 0 0 1-39.82-16.65c-.11.3-.22.61-.35.92a15.17 15.17 0 1 1-26.32-14.79c-17.12-9.48-33.9-19.55-50.9-29.24-3.13-1.79-6.26-3.56-9.4-5.32a15.17 15.17 0 1 1-26.12-14.32c-21.37-11.07-43.34-17.48-65.63-17.48zm20.19 52.47a15.17 15.17 0 1 1 .02-30.34 15.17 15.17 0 0 1-.02 30.34zM256 566.9a15.17 15.17 0 1 1 .02-30.34 15.17 15.17 0 0 1-.02 30.34zm92.34 46.47a15.17 15.17 0 1 1 .02-30.34 15.17 15.17 0 0 1-.02 30.33z"/><path fill="#3B2314" d="m215.06 479.75.04.02-.04-.02zm.04.02c.04.02.05.03 0 0z"/><path d="M735.41 974.59c-.42 0-.84-.14-1.2-.4-.53-.41-54-41.02-109.21-107.67-32.44-39.16-59.13-79.53-79.34-119.99-25.29-50.62-40.45-101.53-45.05-151.31a2 2 0 1 1 3.98-.37c4.56 49.27 19.57 99.68 44.62 149.84 20.07 40.18 46.58 80.28 78.8 119.2 54.92 66.32 108.08 106.7 108.6 107.1a2 2 0 0 1-1.2 3.6z"/><path d="m575.6 848.34 263.79 2.36A19.38 19.38 0 0 0 859 831.56l.5-39.7a19.38 19.38 0 0 0-19.12-19.62l-263.8-2.36a19.38 19.38 0 0 0-19.62 19.14l-.5 39.7a19.38 19.38 0 0 0 19.13 19.62z"/><circle fill="#FFF" cx="597.68" cy="809.71" r="24.33"/><path d="m740.77 1050.74-9.58 13.75a36.19 36.19 0 0 1-50.38 9.01L510.04 954.56a26.06 26.06 0 0 1-11.02-18.62l-2.04-19.2a22 22 0 0 0-18.84-19.45l-50.4-7.01a52.64 52.64 0 0 1-22.83-8.95L14.04 609.08a32.77 32.77 0 0 1-8.16-45.62l11.54-16.56 723.35 503.84z"/><path fill="#FF8630" d="m1016.8 518.75-12.52 7.49a26.68 26.68 0 0 1-36.59-9.22l-7.49-12.53a26.68 26.68 0 0 1 9.21-36.59l12.54-7.48a26.68 26.68 0 0 1 36.58 9.21l7.5 12.53a26.68 26.68 0 0 1-9.22 36.59z"/><path fill="#FFF" d="M990.64 532c-9.77 0-19.3-4.97-24.67-13.95l-7.49-12.53a28.49 28.49 0 0 1-3.19-21.72 28.48 28.48 0 0 1 13.1-17.61l12.53-7.5a28.71 28.71 0 0 1 39.33 9.91l7.5 12.54a28.71 28.71 0 0 1-9.91 39.33l-12.54 7.49a28.5 28.5 0 0 1-14.66 4.05zm4.95-73.36c-4.3 0-8.66 1.13-12.61 3.5l-12.54 7.48a24.51 24.51 0 0 0-11.27 15.16 24.51 24.51 0 0 0 2.75 18.68L969.4 516a24.52 24.52 0 0 0 15.15 11.27c6.4 1.6 13.03.63 18.69-2.75l12.53-7.49a24.51 24.51 0 0 0 11.27-15.15c1.61-6.4.64-13.03-2.74-18.69l-7.5-12.53a24.69 24.69 0 0 0-21.22-12.02z"/><path fill="#FFF" d="M982.4 475.39c9.93-5.94 22.42-3.39 28.73 7.17 6.31 10.56 2.64 22.77-7.3 28.7s-22.42 3.4-28.73-7.17c-6.31-10.56-2.65-22.76 7.3-28.7zm2.17 3.65c-8.7 5.2-10.87 14.08-5.67 22.78 5.2 8.7 14.05 11 22.75 5.8s10.87-14.09 5.67-22.78c-5.2-8.7-14.05-11-22.75-5.8zm2.94 4.56c2.41-1.43 6.08-2.36 8.62-1.45.54.2 1.2.43 1.62 1.13.6 1.01.5 2.24-.82 3.03-.78.46-1.4.3-2.3.2a6.99 6.99 0 0 0-4.89.82c-3.18 1.9-4.21 5.47-1.98 9.2 2.22 3.73 5.85 4.5 9.04 2.6a7 7 0 0 0 3.03-3.91c.34-.84.5-1.46 1.27-1.92 1.33-.8 2.46-.31 3.06.7.42.7.3 1.4.23 1.97-.41 2.67-2.96 5.46-5.37 6.9-4.81 2.87-11.47 2.32-15.22-3.97-3.76-6.3-1.1-12.42 3.71-15.3zM263.43 68.94l-238.92.2a23.02 23.02 0 0 0-23 23.04l.09 100.14a23.02 23.02 0 0 0 23.04 23l238.92-.2 60.47-73.14-60.6-73.04zm1.52 84.3a15.53 15.53 0 1 1 8.29-29.92 15.53 15.53 0 0 1-8.29 29.93z"/><g fill="#FF8630"><path d="m48.53 114.25-10.7-.04c-.9 0-1.5.6-1.51 1.5l-.06 16.38c0 .94.58 1.58 1.45 1.58.88 0 1.48-.63 1.48-1.57l.02-6.12 2.79.05 4.03.06h.01c.57 0 .92-.22 1.12-.4.27-.25.42-.61.42-1 0-.84-.63-1.42-1.54-1.43l-3.95.04-2.87.03.02-6.4 2.87.05c2.55.04 5.39.1 6.41.1h.01c.46 0 .84-.14 1.12-.4.27-.26.42-.62.42-1.01s-.14-.74-.4-1a1.54 1.54 0 0 0-1.14-.42zm12.87 4.27h-.03c-2.1 0-4.04.75-5.45 2.12a7.48 7.48 0 0 0-2.24 5.42 7.46 7.46 0 0 0 7.67 7.6h.03c2.1 0 4.03-.76 5.44-2.13a7.48 7.48 0 0 0 2.25-5.42 7.46 7.46 0 0 0-7.67-7.6zm-.05 12.4a4.75 4.75 0 0 1-3.35-1.36c-.9-.9-1.4-2.14-1.4-3.49s.51-2.59 1.42-3.48a4.76 4.76 0 0 1 3.35-1.34h.02a4.74 4.74 0 0 1 4.75 4.85c0 1.35-.5 2.59-1.42 3.48a4.6 4.6 0 0 1-3.37 1.34zm26.37-11.34a6.4 6.4 0 0 0-3.48-.99 5.98 5.98 0 0 0-3.82 1.36 1.37 1.37 0 0 0-.35-.6 1.5 1.5 0 0 0-1.1-.43l-4.2-.01c-.93 0-1.54.53-1.54 1.35 0 .84.6 1.38 1.54 1.38.65.01 1.53-.03 2.32-.07l.52-.02-.03 9.18-.65-.03a46.2 46.2 0 0 0-2.2-.08c-.93 0-1.53.53-1.54 1.35 0 .84.6 1.38 1.54 1.38l11.3.04c.94 0 1.54-.54 1.54-1.38 0-.37-.12-.69-.36-.93-.2-.2-.55-.42-1.17-.42-.89 0-3.04.04-4.68.07l-.91.02.01-5.1c.01-2.59 1.3-4.32 3.23-4.32h.01c.7 0 1.36.19 1.99.57.4.23.87.48 1.48.48.76 0 1.35-.6 1.36-1.38 0-.58-.27-1.04-.81-1.42zm36.72-7.46c-.85-.27-1.96-.44-2.96-.44h-.03c-1.82 0-3.24.57-4.2 1.7-.96 1.14-1.46 2.84-1.47 5.06v.6h-3.19c-.46 0-.83.11-1.1.35-.29.24-.45.6-.45 1s.15.76.43 1.01c.27.24.65.37 1.11.37.67.01 1.78-.04 2.7-.08l.5-.01-.04 9.18-.44-.02c-.98-.04-2.22-.1-2.75-.1-.46 0-.83.12-1.1.36-.29.24-.45.59-.45.99 0 .41.15.77.43 1.02.27.24.65.37 1.11.37l10.92.03c.94 0 1.54-.54 1.54-1.38 0-.36-.12-.69-.36-.93a1.6 1.6 0 0 0-1.17-.42l-2.88.05-1.99.05.03-9.2.49.01c1.48.05 3.63.11 4.38.12.94 0 1.54-.54 1.54-1.38 0-.37-.12-.7-.36-.94a1.6 1.6 0 0 0-1.17-.42l-4.87-.02v-.6c.01-1.5.25-2.53.73-3.18.44-.58 1.09-.85 2.05-.85h.02c.58 0 1.07.12 1.77.3l.14.04c.27.07.63.17.96.17.38 0 .72-.12.97-.35.27-.24.42-.58.42-.97 0-.48-.22-1.13-1.26-1.49zm20.12 7.65a6.27 6.27 0 0 0-3.5-.99 5.7 5.7 0 0 0-3.8 1.36 1.38 1.38 0 0 0-.35-.6 1.5 1.5 0 0 0-1.1-.43l-4.19-.01c-.94 0-1.54.53-1.55 1.35 0 .41.15.76.43 1.01.27.25.65.37 1.11.37.6 0 1.53-.03 2.33-.07l.52-.02-.03 9.18-.66-.03c-.76-.04-1.58-.08-2.19-.08-.94 0-1.54.52-1.54 1.34 0 .42.14.77.42 1.02.28.25.65.37 1.11.37l11.3.04c.94 0 1.54-.54 1.55-1.38 0-.37-.13-.69-.37-.93-.19-.2-.55-.42-1.17-.42-.9 0-3.04.04-4.68.07l-.91.02.02-5.1c0-1.27.33-2.4.92-3.17a2.8 2.8 0 0 1 2.3-1.15h.01c.71 0 1.36.19 2 .57.39.23.86.48 1.47.48a1.37 1.37 0 0 0 1.36-1.38c0-.58-.27-1.04-.8-1.42zm11.85 14.2h.04c2.34 0 4.62-.7 6.1-1.85.5-.36.93-.75.93-1.5a1.33 1.33 0 0 0-1.38-1.35c-.53 0-.87.24-1.14.44l-.22.15a6.82 6.82 0 0 1-4.2 1.37h-.03c-2.63 0-4.56-1.55-4.94-3.9l10.57.03c.97 0 1.55-.56 1.55-1.5 0-1.98-.76-3.78-2.16-5.07a7.74 7.74 0 0 0-5.26-1.96c-2.11 0-4.03.74-5.44 2.1a7.54 7.54 0 0 0-2.25 5.48 7.4 7.4 0 0 0 2.22 5.45 8.07 8.07 0 0 0 5.61 2.11zm-.17-12.4h.02c2.15 0 3.92 1.31 4.36 3.12l-8.82-.03a4.69 4.69 0 0 1 4.44-3.09zm18.96-2.67h-.02c-2.08 0-4 .74-5.41 2.1a7.54 7.54 0 0 0-2.25 5.47 7.4 7.4 0 0 0 2.22 5.45 8.08 8.08 0 0 0 5.6 2.11h.05c2.34 0 4.62-.69 6.1-1.84.49-.37.93-.76.93-1.5 0-.37-.14-.71-.4-.97a1.4 1.4 0 0 0-.98-.4c-.52 0-.86.25-1.14.45l-.22.15a6.82 6.82 0 0 1-4.2 1.38h-.03c-2.63-.01-4.56-1.56-4.95-3.91l10.58.03h.01c.5 0 .9-.14 1.16-.43.25-.26.38-.62.38-1.07 0-1.98-.76-3.78-2.16-5.07a7.75 7.75 0 0 0-5.26-1.95zm-.02 2.73h.02c2.14.01 3.92 1.32 4.35 3.12l-8.81-.03a4.7 4.7 0 0 1 4.44-3.09zM42.57 159.88c-2.82-.74-4.35-1.44-4.35-2.97 0-1.5 1.44-2.45 3.65-2.45h.03c1.45 0 2.85.44 4.11 1.3.46.3.82.54 1.37.54.82 0 1.42-.59 1.42-1.4 0-.7-.42-1.08-.82-1.38a9.96 9.96 0 0 0-6.04-1.86h-.04c-3.85 0-6.65 2.17-6.66 5.18-.02 3.5 2.6 4.85 6.82 5.9 3.38.85 4.57 1.66 4.57 3.1 0 2-2.3 2.92-4.44 2.92h-.02a7.15 7.15 0 0 1-4.07-1.21c-.8-.57-1.2-.86-1.83-.86-.37 0-.73.15-.99.4-.26.26-.4.6-.4.95 0 .9.62 1.37 1.42 1.9a10.7 10.7 0 0 0 5.89 1.62h.04c4.4 0 7.38-2.32 7.39-5.78.01-3.78-3.19-4.9-7.05-5.9zm24.24 8.59c-.74 0-2.36.05-3.4.09h-.07l.03-10.3c0-.45-.14-.83-.4-1.1a1.5 1.5 0 0 0-1.1-.42l-5.9-.02c-.48-.02-.83.12-1.11.35-.28.24-.44.6-.44 1 0 .84.6 1.38 1.54 1.39l2.7-.06 1.85-.04-.03 9.2-1.82-.06c-1.27-.03-2.53-.07-3.05-.07-.48.03-.83.11-1.1.35-.28.24-.44.6-.44 1 0 .83.6 1.38 1.53 1.38l11.2.04h.01c.94 0 1.54-.54 1.54-1.38 0-.82-.6-1.35-1.53-1.35zm-4.92-13.76c1.44 0 2.44-.91 2.45-2.23 0-1.31-1-2.23-2.45-2.24h-.01c-.69 0-1.28.2-1.72.58-.47.4-.73.99-.73 1.65s.25 1.24.72 1.65a2.6 2.6 0 0 0 1.74.6zm18.95 1.75h-.03a5.9 5.9 0 0 0-3.8 1.16 1.36 1.36 0 0 0-1.38-1.18 1.3 1.3 0 0 0-1.06.42c-.26.27-.39.65-.39 1.08l-.04 12.12c0 .89.58 1.51 1.4 1.52h.02c.87 0 1.44-.6 1.44-1.5l.02-7.01c.01-2.58 1.18-3.88 3.47-3.88h.02c2.1 0 3.2 1.34 3.18 3.87l-.02 7.03c0 .44.13.81.39 1.09.25.27.62.42 1.02.43.44 0 .8-.15 1.07-.43.25-.27.38-.64.38-1.08l.03-7.44c0-3.88-2.13-6.2-5.72-6.2zm18.5 2.79h.02c1.4.01 2.78.56 3.99 1.6.43.37.84.72 1.52.73.34 0 .68-.14.94-.38.26-.25.42-.6.42-.94 0-.68-.34-1.1-.88-1.52a9.62 9.62 0 0 0-5.98-2.22h-.03a7.46 7.46 0 0 0-7.7 7.54 7.47 7.47 0 0 0 7.67 7.6h.03c2.1 0 4.28-.8 5.97-2.18.55-.43.9-.84.9-1.52 0-.34-.14-.66-.4-.91-.25-.26-.6-.41-.96-.41-.68 0-1.1.34-1.52.71a6.17 6.17 0 0 1-3.99 1.57h-.02a4.85 4.85 0 0 1-3.3-1.32 4.78 4.78 0 0 1-1.45-3.53 4.75 4.75 0 0 1 4.77-4.81zm24.78 5.86c.5 0 .9-.14 1.16-.43.25-.27.38-.63.38-1.07 0-1.98-.76-3.78-2.16-5.07a7.74 7.74 0 0 0-5.26-1.96h-.03a7.47 7.47 0 0 0-7.66 7.58c-.01 4.36 3.28 7.54 7.83 7.56h.04c2.34 0 4.62-.7 6.1-1.85.49-.36.93-.75.93-1.5 0-.36-.14-.7-.4-.96a1.4 1.4 0 0 0-.98-.4c-.52 0-.86.25-1.14.44l-.22.15a6.82 6.82 0 0 1-4.2 1.38h-.03c-2.63 0-4.56-1.56-4.95-3.9l10.58.03h.01zm-5.9-5.8h.01c2.15.02 3.92 1.32 4.36 3.12l-8.82-.02a4.69 4.69 0 0 1 4.45-3.1zm44.58 9.38-9.21.07 2.87-2.2c3.53-2.7 6.57-5.04 6.59-8.7a5.4 5.4 0 0 0-1.93-4.3 7.26 7.26 0 0 0-4.64-1.52h-.03a8.94 8.94 0 0 0-6.73 3.2c-.31.36-.45.73-.45 1.22 0 .76.62 1.35 1.41 1.36.65 0 1.03-.3 1.4-.74 1.3-1.53 2.68-2.24 4.34-2.24h.02c1.67 0 3.63.81 3.62 3.08 0 2.16-1.94 3.85-5.14 6.37l-5.4 4.3c-.6.44-.86.89-.86 1.44 0 .83.62 1.44 1.48 1.45l12.65.04c.58 0 .93-.22 1.13-.4.26-.26.41-.61.41-1.01 0-.83-.63-1.42-1.54-1.42zm12.1-16.59h-.02a6.7 6.7 0 0 0-5.7 2.92c-1.23 1.76-1.9 4.18-1.9 6.99-.02 6.05 2.95 9.98 7.56 10h.03c4.6 0 7.58-3.9 7.6-9.95.01-2.81-.63-5.23-1.86-7a6.7 6.7 0 0 0-5.7-2.96zm-.03 17.1h-.02c-2.82 0-4.63-2.83-4.62-7.18 0-2.08.47-3.92 1.3-5.19a3.9 3.9 0 0 1 3.35-1.93h.02c2.82 0 4.63 2.82 4.62 7.15-.02 4.35-1.84 7.15-4.66 7.15z"/><path d="M174.88 159.99a2.1 2.1 0 0 0-1.52.57 2 2 0 0 0-.63 1.47c0 1.17.92 2.05 2.14 2.05.59 0 1.13-.2 1.52-.57a2 2 0 0 0 .63-1.47 2 2 0 0 0-.58-1.43c-.4-.4-.95-.62-1.56-.62zm25.12 8.82-3.58.1h-.24l.05-15.13c0-.47-.1-.84-.33-1.13-.25-.31-.6-.48-1.04-.48h-.01c-.59 0-1.16.28-1.57.49l-5.66 2.75c-.72.36-1.07.84-1.07 1.46 0 .39.13.74.37 1 .25.27.6.42 1 .42.5-.02.94-.2 1.35-.4l4.03-2.18-.04 13.2-.38-.02c-1.46-.04-3.69-.11-4.7-.12h-.01c-.9 0-1.54.58-1.54 1.41 0 .39.14.74.39 1 .2.19.55.42 1.14.42l11.84.04c.58 0 .93-.22 1.13-.4.26-.25.41-.61.41-1 0-.84-.63-1.42-1.53-1.43zm18.29-13.64a7.25 7.25 0 0 0-6.01-2.94h-.03c-1.93 0-3.71.68-5.03 1.92a6.52 6.52 0 0 0-2.06 4.77c-.01 3.65 2.92 6.4 6.82 6.42h.03c1.86 0 3.83-.68 5.32-1.8-.38 3.57-2.31 5.82-5.13 5.82h-.01a4.88 4.88 0 0 1-3.59-1.41c-.4-.41-.87-.88-1.55-.88-.85 0-1.45.58-1.45 1.41 0 .68.37 1.06.8 1.5a8.19 8.19 0 0 0 5.72 2.15h.03c5.02 0 8.14-3.77 8.17-9.85 0-2.86-.7-5.32-2.03-7.1zm-6.04-.18h.02c2.62.01 4.46 2 4.97 5.34a7.78 7.78 0 0 1-5.2 2.27h-.02a4.1 4.1 0 0 1-2.79-1.03 3.53 3.53 0 0 1-1.11-2.64c0-1.05.42-2.03 1.17-2.77a4.2 4.2 0 0 1 2.96-1.17z"/></g><path d="M422.16 273.64a2.81 2.81 0 0 1-.95-.2 2.28 2.28 0 0 1-.8-.53 2.52 2.52 0 0 1-.02-3.54 2.6 2.6 0 0 1 3.54 0 2.56 2.56 0 0 1 .73 1.77 2.51 2.51 0 0 1-2.5 2.5zm-7.46-1.14v.01a2.5 2.5 0 1 1 .97-4.91 2.5 2.5 0 0 1-.48 4.95c-.16 0-.33-.01-.49-.05zm-7.06-1.63a2.5 2.5 0 0 1-1.77-3.06 2.49 2.49 0 0 1 3.06-1.77 2.5 2.5 0 0 1-.64 4.91c-.22 0-.43-.03-.65-.08zm-6.92-2.08a2.5 2.5 0 0 1-1.58-3.16 2.5 2.5 0 0 1 3.16-1.58 2.5 2.5 0 0 1-.79 4.87c-.27 0-.53-.04-.79-.13zm-6.79-2.5a2.5 2.5 0 1 1 1.88-4.63 2.5 2.5 0 0 1 1.38 3.25 2.52 2.52 0 0 1-2.33 1.56c-.3 0-.62-.05-.93-.18zm-6.62-2.93a2.5 2.5 0 0 1 2.18-4.51 2.5 2.5 0 0 1 1.16 3.34 2.48 2.48 0 0 1-3.34 1.17zm-6.4-3.38a2.5 2.5 0 0 1 2.49-4.34 2.51 2.51 0 0 1 .92 3.4 2.51 2.51 0 0 1-2.18 1.27c-.42 0-.85-.11-1.24-.33zm-6.17-3.83a2.5 2.5 0 0 1 2.8-4.15 2.5 2.5 0 0 1 .67 3.47 2.48 2.48 0 0 1-2.07 1.1 2.5 2.5 0 0 1-1.4-.42zm-5.85-4.3a2.5 2.5 0 0 1-.4-3.51 2.5 2.5 0 1 1 3.92 3.11 2.5 2.5 0 0 1-1.97.95c-.55 0-1.09-.18-1.55-.55zm-5.5-4.75a2.5 2.5 0 1 1 3.43-3.64 2.5 2.5 0 0 1-1.71 4.32c-.63 0-1.24-.23-1.73-.68zm-5.09-5.21v.01a2.5 2.5 0 0 1 .2-3.53 2.49 2.49 0 0 1 3.52.19 2.5 2.5 0 0 1-1.86 4.17c-.69 0-1.37-.28-1.86-.84zm-4.62-5.62a2.5 2.5 0 0 1 .5-3.5 2.5 2.5 0 1 1 2.99 4 2.51 2.51 0 0 1-3.49-.5zm-4.1-6.01a2.5 2.5 0 0 1 .8-3.45 2.5 2.5 0 0 1 2.64 4.25 2.5 2.5 0 0 1-3.44-.8zm-3.58-6.34a2.5 2.5 0 0 1 1.1-3.36 2.49 2.49 0 0 1 3.36 1.1 2.5 2.5 0 0 1-1.1 3.36 2.5 2.5 0 0 1-3.36-1.1zm-3-6.62a2.5 2.5 0 1 1 4.63-1.88 2.5 2.5 0 0 1-1.38 3.26 2.5 2.5 0 0 1-3.25-1.38zm-2.45-6.84a2.5 2.5 0 0 1 4.77-1.5 2.51 2.51 0 0 1-1.64 3.14c-.25.08-.5.1-.75.1a2.49 2.49 0 0 1-2.38-1.74zm-1.9-6.99a2.5 2.5 0 1 1 4.87-1.13 2.5 2.5 0 0 1-1.88 3 2.5 2.5 0 0 1-3-1.87zm-1.4-7.1a2.5 2.5 0 0 1 4.94-.8 2.5 2.5 0 0 1-2.07 2.88l-.4.03a2.5 2.5 0 0 1-2.47-2.1zm-.9-7.16a2.5 2.5 0 1 1 4.97-.47 2.5 2.5 0 0 1-2.26 2.73h-.24a2.5 2.5 0 0 1-2.48-2.26zm-.56-7.07c-.12-1.38.9-2.6 2.28-2.7a2.5 2.5 0 0 1 .42 4.98l-.2.01a2.5 2.5 0 0 1-2.5-2.29zm-.76-6.91a2.5 2.5 0 0 1 4.96-.67 2.51 2.51 0 0 1-2.14 2.82l-.34.02a2.5 2.5 0 0 1-2.48-2.17zm-1.13-6.82a2.5 2.5 0 1 1 4.9-.97l.01-.01a2.5 2.5 0 0 1-1.97 2.94 2.5 2.5 0 0 1-2.94-1.96zm-1.59-6.69a2.5 2.5 0 0 1 4.82-1.35 2.5 2.5 0 0 1-1.74 3.08 2.5 2.5 0 0 1-3.08-1.73zm-2.14-6.5h.01a2.5 2.5 0 1 1 4.66-1.79 2.5 2.5 0 0 1-1.43 3.23 2.5 2.5 0 0 1-3.24-1.44zm-2.78-6.16a2.5 2.5 0 1 1 4.42-2.34 2.5 2.5 0 0 1-1.05 3.38 2.5 2.5 0 0 1-3.37-1.04zm-62-3.81a2.5 2.5 0 0 1-1.45-3.23 2.5 2.5 0 0 1 4.67 1.78 2.5 2.5 0 0 1-2.34 1.61c-.29 0-.59-.05-.89-.16zm58.45-1.86a2.5 2.5 0 1 1 4.02-2.97 2.5 2.5 0 0 1-.52 3.49 2.5 2.5 0 0 1-3.5-.52zm-55.6-4.62a2.5 2.5 0 0 1-.3-3.52 2.5 2.5 0 0 1 3.51-.31 2.5 2.5 0 0 1 .3 3.52 2.52 2.52 0 0 1-3.52.31zm51.23-.33a2.5 2.5 0 0 1 3.42-3.65 2.5 2.5 0 0 1-1.71 4.33 2.5 2.5 0 0 1-1.7-.68zm-5.2-3.98a2.5 2.5 0 0 1-.8-3.44 2.48 2.48 0 0 1 3.42-.82h.01a2.5 2.5 0 0 1 .81 3.44 2.5 2.5 0 0 1-3.44.82zm-41.23-.88a2.5 2.5 0 0 1 4.2-2.72 2.5 2.5 0 0 1-2.1 3.86 2.5 2.5 0 0 1-2.1-1.14zm35.35-1.97a2.5 2.5 0 0 1-1.5-3.2 2.5 2.5 0 0 1 3.2-1.5 2.5 2.5 0 0 1-.86 4.85c-.28 0-.56-.05-.84-.15zm-29.27-1.65a2.5 2.5 0 0 1 1.52-3.19 2.5 2.5 0 0 1 3.2 1.51 2.51 2.51 0 0 1-1.52 3.2 2.5 2.5 0 0 1-3.2-1.52zm22.87-.01a2.5 2.5 0 0 1 .83-4.93 2.5 2.5 0 0 1 2.05 2.88 2.52 2.52 0 0 1-2.47 2.09c-.13 0-.27-.01-.4-.04zm-16.14-2.16a2.5 2.5 0 0 1 4.94-.78 2.49 2.49 0 0 1-2.08 2.86l-.39.03a2.5 2.5 0 0 1-2.47-2.11zm7.02-.93a2.5 2.5 0 0 1 2.51-2.48 2.5 2.5 0 1 1-.03 5 2.5 2.5 0 0 1-2.48-2.52zm-28.05 25.54a2.52 2.52 0 0 1-2.45-2.99 2.47 2.47 0 0 1 .68-1.28 2.6 2.6 0 0 1 3.54 0 2.35 2.35 0 0 1 .54.81 2.6 2.6 0 0 1 .14 1.44 2.58 2.58 0 0 1-.68 1.28 2.5 2.5 0 0 1-1.77.74zm13.82 51.11a2.49 2.49 0 0 1-.49-4.95 2.51 2.51 0 0 1 2.94 2.94 2.6 2.6 0 0 1-1.5 1.82 2.55 2.55 0 0 1-.95.19zm137.89 75.62a2.5 2.5 0 0 1-2.36-2.64 2.5 2.5 0 0 1 2.63-2.36 2.5 2.5 0 0 1-.13 5h-.14zm-7.15-.53a2.5 2.5 0 1 1 .46-4.98 2.5 2.5 0 0 1-.23 5v-.01l-.23-.01zm-7.12-.79a2.51 2.51 0 0 1-2.16-2.81 2.52 2.52 0 0 1 2.81-2.16v.01a2.5 2.5 0 0 1-.33 4.98l-.32-.02zm-7.09-1.07a2.5 2.5 0 0 1-2.04-2.89 2.5 2.5 0 0 1 4.93.84 2.5 2.5 0 0 1-2.47 2.08l-.42-.03zm-7.04-1.35a2.5 2.5 0 0 1-1.93-2.96 2.5 2.5 0 1 1 4.9 1.03 2.5 2.5 0 0 1-2.45 1.99 2.3 2.3 0 0 1-.52-.06zm-6.99-1.62a2.5 2.5 0 0 1 1.23-4.84 2.5 2.5 0 0 1 1.81 3.03 2.52 2.52 0 0 1-2.42 1.89c-.2 0-.4-.02-.62-.08zm-6.92-1.9a2.5 2.5 0 0 1-1.69-3.1 2.5 2.5 0 0 1 4.8 1.42 2.5 2.5 0 0 1-2.4 1.79c-.23 0-.47-.03-.7-.1zm-6.83-2.16a2.5 2.5 0 1 1 1.6-4.73 2.5 2.5 0 0 1 1.57 3.17 2.5 2.5 0 0 1-2.37 1.69c-.27 0-.54-.04-.8-.13zm-6.75-2.44a2.5 2.5 0 0 1-1.44-3.23 2.5 2.5 0 0 1 3.23-1.44v.01a2.5 2.5 0 0 1-.89 4.83c-.3 0-.6-.06-.9-.17zm-6.64-2.7a2.5 2.5 0 0 1 1.97-4.6v.01a2.5 2.5 0 0 1-.99 4.79c-.33 0-.66-.06-.98-.2zm-6.54-2.97a2.49 2.49 0 0 1-1.17-3.33 2.5 2.5 0 0 1 4.51 2.15 2.51 2.51 0 0 1-2.26 1.43c-.36 0-.73-.08-1.08-.25zm-6.4-3.21a2.5 2.5 0 0 1 2.33-4.43 2.5 2.5 0 0 1-1.17 4.71c-.4 0-.8-.1-1.17-.28zm-6.28-3.47a2.5 2.5 0 0 1 2.5-4.33 2.5 2.5 0 0 1 .91 3.4 2.47 2.47 0 0 1-2.17 1.26c-.42 0-.85-.1-1.24-.33zm-6.15-3.7v-.01a2.5 2.5 0 0 1 2.67-4.23 2.5 2.5 0 0 1 .78 3.45 2.52 2.52 0 0 1-3.45.79zm-5.99-3.94a2.5 2.5 0 0 1 2.82-4.13 2.5 2.5 0 0 1 .65 3.48 2.49 2.49 0 0 1-2.06 1.09 2.4 2.4 0 0 1-1.4-.44zm-5.85-4.15v-.01a2.5 2.5 0 1 1 2.98-4.01 2.5 2.5 0 0 1 .52 3.49 2.5 2.5 0 0 1-2 1 2.43 2.43 0 0 1-1.5-.47zm-5.68-4.38a2.5 2.5 0 0 1-.39-3.51 2.49 2.49 0 0 1 3.51-.4 2.49 2.49 0 0 1 .4 3.52 2.51 2.51 0 0 1-3.52.39zm-5.52-4.58a2.51 2.51 0 0 1-.26-3.53 2.51 2.51 0 0 1 3.53-.26 2.51 2.51 0 0 1 .26 3.53 2.48 2.48 0 0 1-3.53.26zm-5.34-4.78a2.5 2.5 0 1 1 3.4-3.67v.01a2.5 2.5 0 0 1 .13 3.53 2.49 2.49 0 0 1-3.53.13zm-5.17-4.98a2.5 2.5 0 1 1 3.54-3.53 2.49 2.49 0 0 1-1.77 4.26c-.64 0-1.28-.24-1.77-.73zm-4.97-5.18a2.49 2.49 0 0 1 .14-3.53 2.49 2.49 0 0 1 3.53.14c.94 1.01.88 2.6-.14 3.53a2.5 2.5 0 0 1-3.53-.14zm-4.77-5.37a2.5 2.5 0 0 1 3.81-3.24 2.5 2.5 0 0 1-1.9 4.12c-.7 0-1.4-.3-1.9-.88zm-4.54-5.59a2.51 2.51 0 0 1 .45-3.51 2.51 2.51 0 0 1 3.51.45 2.5 2.5 0 0 1-1.98 4.03c-.75 0-1.49-.33-1.98-.97zm142.93 71.12a2.55 2.55 0 0 1-2.08-1.11 2.42 2.42 0 0 1-.37-1.88 2.47 2.47 0 0 1 .68-1.28c.12-.1.24-.22.38-.31a2.51 2.51 0 0 1 3.7 1.12 2.6 2.6 0 0 1 .14 1.45 2.42 2.42 0 0 1-.69 1.28 2.5 2.5 0 0 1-1.76.73z"/></svg>
