
<svg width="24" height="48" viewBox="0 0 24 48" fill="none" xmlns="http://www.w3.org/2000/svg">
    <view id="good" viewBox="0 0 24 48"/>
    <path d="M14.36 14.23C13.6915 14.769 12.8587 15.0629 12 15.0629C11.1413 15.0629 10.3085 14.769 9.64 14.23C9.43579 14.0603 9.17251 13.9786 8.90808 14.003C8.64365 14.0274 8.39974 14.1558 8.23 14.36C8.06027 14.5642 7.9786 14.8275 8.00298 15.0919C8.02736 15.3564 8.15579 15.6003 8.36 15.77C9.38134 16.6226 10.6696 17.0896 12 17.0896C13.3304 17.0896 14.6187 16.6226 15.64 15.77C15.8442 15.6003 15.9726 15.3564 15.997 15.0919C16.0214 14.8275 15.9397 14.5642 15.77 14.36C15.686 14.2589 15.5828 14.1753 15.4665 14.1141C15.3501 14.0528 15.2229 14.0151 15.0919 14.003C14.8275 13.9786 14.5642 14.0603 14.36 14.23ZM9 11C9.19779 11 9.39113 10.9414 9.55557 10.8315C9.72002 10.7216 9.8482 10.5654 9.92388 10.3827C9.99957 10.2 10.0194 9.99889 9.98079 9.80491C9.9422 9.61093 9.84696 9.43275 9.70711 9.29289C9.56726 9.15304 9.38908 9.0578 9.19509 9.01921C9.00111 8.98063 8.80005 9.00043 8.61732 9.07612C8.43459 9.15181 8.27842 9.27998 8.16853 9.44443C8.05865 9.60888 8 9.80222 8 10C8 10.2652 8.10536 10.5196 8.2929 10.7071C8.48043 10.8946 8.73479 11 9 11ZM15 9C14.8022 9 14.6089 9.05865 14.4444 9.16853C14.28 9.27841 14.1518 9.43459 14.0761 9.61732C14.0004 9.80004 13.9806 10.0011 14.0192 10.1951C14.0578 10.3891 14.153 10.5673 14.2929 10.7071C14.4328 10.847 14.6109 10.9422 14.8049 10.9808C14.9989 11.0194 15.2 10.9996 15.3827 10.9239C15.5654 10.8482 15.7216 10.72 15.8315 10.5556C15.9414 10.3911 16 10.1978 16 10C16 9.73478 15.8946 9.48043 15.7071 9.29289C15.5196 9.10536 15.2652 9 15 9ZM12 2C10.0222 2 8.08879 2.58649 6.4443 3.6853C4.79981 4.78412 3.51809 6.3459 2.76121 8.17317C2.00433 10.0004 1.8063 12.0111 2.19215 13.9509C2.578 15.8907 3.53041 17.6725 4.92894 19.0711C6.32746 20.4696 8.10929 21.422 10.0491 21.8079C11.9889 22.1937 13.9996 21.9957 15.8268 21.2388C17.6541 20.4819 19.2159 19.2002 20.3147 17.5557C21.4135 15.9112 22 13.9778 22 12C22 10.6868 21.7413 9.38642 21.2388 8.17317C20.7363 6.95991 19.9997 5.85752 19.0711 4.92893C18.1425 4.00035 17.0401 3.26375 15.8268 2.7612C14.6136 2.25866 13.3132 2 12 2ZM12 20C10.4178 20 8.87104 19.5308 7.55544 18.6518C6.23985 17.7727 5.21447 16.5233 4.60897 15.0615C4.00347 13.5997 3.84504 11.9911 4.15372 10.4393C4.4624 8.88743 5.22433 7.46197 6.34315 6.34315C7.46197 5.22433 8.88743 4.4624 10.4393 4.15372C11.9911 3.84504 13.5997 4.00346 15.0615 4.60896C16.5233 5.21447 17.7727 6.23984 18.6518 7.55544C19.5308 8.87103 20 10.4177 20 12C20 14.1217 19.1572 16.1566 17.6569 17.6569C16.1566 19.1571 14.1217 20 12 20Z" fill="black"/>

    <view id="bad" viewBox="0 24 24 48"/>
    <path d="M9 34.5C9.82843 34.5 10.5 33.8284 10.5 33C10.5 32.1716 9.82843 31.5 9 31.5C8.17157 31.5 7.5 32.1716 7.5 33C7.5 33.8284 8.17157 34.5 9 34.5Z" fill="black"/>
    <path d="M15 34.5C15.8284 34.5 16.5 33.8284 16.5 33C16.5 32.1716 15.8284 31.5 15 31.5C14.1716 31.5 13.5 32.1716 13.5 33C13.5 33.8284 14.1716 34.5 15 34.5Z" fill="black"/>
    <path d="M12 46.5C6.21 46.5 1.5 41.79 1.5 36C1.5 30.21 6.21 25.5 12 25.5C17.79 25.5 22.5 30.21 22.5 36C22.5 41.79 17.79 46.5 12 46.5ZM12 27C7.035 27 3 31.035 3 36C3 40.965 7.035 45 12 45C16.965 45 21 40.965 21 36C21 31.035 16.965 27 12 27Z" fill="black"/>
    <path d="M16.245 41.25C15.93 41.25 15.645 41.055 15.54 40.755C15.282 40.0222 14.8029 39.3875 14.1688 38.9385C13.5347 38.4895 12.7769 38.2484 12 38.2484C11.223 38.2484 10.4652 38.4895 9.83117 38.9385C9.19709 39.3875 8.71799 40.0222 8.45997 40.755C8.32497 41.145 7.88997 41.355 7.49997 41.205C7.40657 41.1727 7.32059 41.122 7.24712 41.0558C7.17365 40.9897 7.11418 40.9095 7.07223 40.82C7.03028 40.7305 7.0067 40.6335 7.00287 40.5348C6.99905 40.436 7.01506 40.3375 7.04997 40.245C7.78497 38.145 9.77997 36.75 12 36.75C14.22 36.75 16.215 38.16 16.95 40.245C16.9905 40.3582 17.0034 40.4796 16.9873 40.5988C16.9713 40.718 16.9268 40.8316 16.8577 40.9301C16.7887 41.0286 16.697 41.109 16.5903 41.1647C16.4837 41.2203 16.3653 41.2496 16.245 41.25Z" fill="black"/>
</svg>
