<svg xmlns="http://www.w3.org/2000/svg" viewBox="0 0 1920 1080" xml:space="preserve"><path fill="#010101" d="M1007.25 1021.8H1.32c-1.31 0-2.5-.94-2.63-2.25a2.5 2.5 0 0 1 2.48-2.75h1005.9c1.33 0 2.55.95 2.67 2.27a2.5 2.5 0 0 1-2.5 2.73zm909.97 0h-264.75a2.5 2.5 0 1 1 0-5h264.75a2.5 2.5 0 1 1 0 5zm-476.62 0h-366.8a2.5 2.5 0 1 1 0-5h366.8a2.5 2.5 0 1 1 0 5z"/><circle transform="rotate(-45 471.89 559.33)" fill="#FFF" cx="471.89" cy="559.32" r="457.8"/><path fill="#FFD827" d="M751.66 559.32c0 154.52-125.26 279.77-279.77 279.77S192.12 713.85 192.12 559.33 317.38 279.56 471.9 279.56 751.66 404.8 751.66 559.32z"/><path fill="#010101" d="M332.44 674.67a2.5 2.5 0 0 1-1.57-4.44l138.52-112.1V340a2.5 2.5 0 1 1 5 0v219.32a2.5 2.5 0 0 1-.93 1.95L334.02 674.12c-.47.37-1.02.55-1.58.55z"/><path fill="#FFF" d="M1652.47 1021.98h-209.2a2.5 2.5 0 0 1-2.5-2.5v-55.96a2.5 2.5 0 0 1 2.5-2.5h209.2a2.5 2.5 0 0 1 2.5 2.5v55.96a2.5 2.5 0 0 1-2.5 2.5zm-206.7-5h204.2v-50.96h-204.2v50.96z"/><path fill="#FFF" d="M1396.37 724.14h303v256.32h-303z"/><path fill="#FFD827" d="M1547.87 781.13c-40.16 0-77.88-6.12-106.22-17.25-27.19-10.68-42.78-25.16-42.78-39.73 0-14.58 15.6-29.07 42.79-39.74 28.33-11.13 66.05-17.25 106.21-17.25s77.88 6.12 106.21 17.25c27.2 10.67 42.79 25.16 42.79 39.74 0 14.57-15.6 29.06-42.79 39.73-28.33 11.13-66.05 17.25-106.21 17.25z"/><path fill="#FFF" d="M1547.87 669.66c39.86 0 77.25 6.06 105.3 17.07 26.18 10.28 41.2 23.92 41.2 37.42 0 13.49-15.02 27.12-41.2 37.4-28.05 11.02-65.44 17.08-105.3 17.08s-77.25-6.06-105.3-17.08c-26.18-10.28-41.2-23.91-41.2-37.4 0-13.5 15.02-27.13 41.2-37.42 28.05-11 65.44-17.07 105.3-17.07m0-5c-83.67 0-151.5 26.63-151.5 59.49 0 32.85 67.83 59.48 151.5 59.48s151.5-26.63 151.5-59.48c0-32.86-67.83-59.5-151.5-59.5z"/><path fill="#FFF" d="M1546.59 726.14a381.5 381.5 0 0 0-20.03-176.84 381.5 381.5 0 0 0-97.64-148.8 381.52 381.52 0 0 0 20.03 176.84 381.52 381.52 0 0 0 97.64 148.8z"/><path fill="#FFF" d="M1552.03 726.14a381.51 381.51 0 0 1 20.03-176.84 381.5 381.5 0 0 1 97.63-148.8 381.5 381.5 0 0 1-20.03 176.84 381.5 381.5 0 0 1-97.63 148.8zm-104.5-33.18a151.7 151.7 0 0 0 101.63 52.06 151.68 151.68 0 0 0-36.8-108.1 151.69 151.69 0 0 0-101.63-52.07 151.7 151.7 0 0 0 36.8 108.1z"/><path fill="#FFF" d="M1651.3 692.96a151.7 151.7 0 0 1-101.65 52.06 151.68 151.68 0 0 1 36.8-108.1 151.69 151.69 0 0 1 101.64-52.07 151.69 151.69 0 0 1-36.8 108.1z"/><path fill="#010101" d="M1511.99 469.36a2.5 2.5 0 0 1-2.5-2.5v-64.09a2.5 2.5 0 1 1 5 0v64.09a2.5 2.5 0 0 1-2.5 2.5z"/><path fill="#010101" d="M1489.33 459.98a2.5 2.5 0 0 1-1.76-4.27l45.3-45.32a2.5 2.5 0 1 1 3.54 3.54l-45.3 45.31c-.5.5-1.14.74-1.78.74z"/><path fill="#010101" d="M1544.03 437.31h-64.08a2.5 2.5 0 1 1 0-5h64.08a2.5 2.5 0 1 1 0 5z"/><path fill="#010101" d="M1534.65 459.98a2.5 2.5 0 0 1-1.77-.74l-45.31-45.32a2.5 2.5 0 1 1 3.53-3.53l45.32 45.32a2.5 2.5 0 0 1-1.77 4.27z"/><g fill="#010101"><path d="M1547.87 411.17a2.5 2.5 0 0 1-2.5-2.5V344.6a2.5 2.5 0 1 1 5 0v64.08a2.5 2.5 0 0 1-2.5 2.5z"/><path d="M1525.21 401.8a2.5 2.5 0 0 1-1.77-4.28l45.32-45.31a2.5 2.5 0 1 1 3.53 3.53l-45.31 45.32c-.49.49-1.13.73-1.77.73z"/><path d="M1579.91 379.13h-64.08a2.5 2.5 0 1 1 0-5h64.08a2.5 2.5 0 1 1 0 5z"/><path d="M1570.53 401.8a2.5 2.5 0 0 1-1.77-.74l-45.31-45.32a2.5 2.5 0 1 1 3.53-3.53l45.31 45.31a2.5 2.5 0 0 1-1.76 4.27z"/></g><g fill="#010101"><path d="M1583.74 469.36a2.5 2.5 0 0 1-2.5-2.5v-64.09a2.5 2.5 0 1 1 5 0v64.09a2.5 2.5 0 0 1-2.5 2.5z"/><path d="M1561.1 459.98a2.5 2.5 0 0 1-1.77-4.27l45.3-45.32a2.5 2.5 0 1 1 3.54 3.54l-45.31 45.31a2.5 2.5 0 0 1-1.77.74z"/><path d="M1615.8 437.31h-64.1a2.5 2.5 0 1 1 0-5h64.1a2.5 2.5 0 1 1 0 5z"/><path d="M1606.4 459.98a2.5 2.5 0 0 1-1.76-.74l-45.32-45.32a2.5 2.5 0 1 1 3.54-3.53l45.31 45.32a2.5 2.5 0 0 1-1.76 4.27z"/></g><path fill="#10B14B" d="M1549.16 747.25a2.5 2.5 0 0 1-2.5-2.5V482.87a2.5 2.5 0 1 1 5 0v261.88a2.5 2.5 0 0 1-2.5 2.5z"/><g fill="#010101"><path d="M1394 578.54a2.5 2.5 0 0 1-2.5-2.5v-64.09a2.5 2.5 0 1 1 5 0v64.09a2.5 2.5 0 0 1-2.5 2.5z"/><path d="M1371.35 569.15a2.5 2.5 0 0 1-1.76-4.26l45.31-45.32a2.5 2.5 0 1 1 3.54 3.54l-45.32 45.31a2.5 2.5 0 0 1-1.77.73z"/><path d="M1426.05 546.5h-64.09a2.5 2.5 0 1 1 0-5h64.1a2.5 2.5 0 1 1 0 5z"/><path d="M1416.67 569.15a2.5 2.5 0 0 1-1.77-.73l-45.31-45.32a2.5 2.5 0 1 1 3.53-3.53l45.32 45.32a2.5 2.5 0 0 1-1.77 4.26z"/></g><g fill="#010101"><path d="M1704.6 578.54a2.5 2.5 0 0 1-2.5-2.5v-64.09a2.5 2.5 0 1 1 5 0v64.09a2.5 2.5 0 0 1-2.5 2.5z"/><path d="M1681.95 569.15a2.5 2.5 0 0 1-1.76-4.26l45.31-45.32a2.5 2.5 0 1 1 3.54 3.54l-45.32 45.31c-.49.49-1.13.73-1.77.73z"/><path d="M1736.65 546.5h-64.09a2.5 2.5 0 1 1 0-5h64.1a2.5 2.5 0 1 1 0 5z"/><path d="M1727.27 569.15a2.5 2.5 0 0 1-1.77-.73l-45.31-45.32a2.5 2.5 0 1 1 3.53-3.53l45.32 45.32a2.5 2.5 0 0 1-1.77 4.26z"/></g><path fill="#010101" d="M1549.16 747.25a2.5 2.5 0 0 1-2.5-2.5V482.87a2.5 2.5 0 1 1 5 0v261.88a2.5 2.5 0 0 1-2.5 2.5z"/><path fill="#FFD827" d="m1139.3 1018.63 71.96-378.67a96.5 96.5 0 0 0-96.5-96.5H842.68a96.5 96.5 0 0 0-96.5 96.5L683.65 912.9s-28.76 108.66 71.7 105.73h295.6V860.46H839.53"/><path fill="#010101" d="M751.38 1021.19c-26.47 0-46.23-7.98-58.74-23.75-25.16-31.72-11.97-83-11.4-85.18l62.44-272.58c.15-54.47 44.5-98.73 99-98.73h272.07c54.6 0 99 44.42 99 99 0 .16 0 .32-.04.48l-71.95 378.66a2.5 2.5 0 0 1-4.9-.93l71.9-378.44c-.13-51.72-42.25-93.77-94-93.77H842.68c-51.84 0-94 42.17-94 94 0 .2-.03.38-.07.57L686.1 913.46c-.15.59-13.14 51.15 10.46 80.88 12.1 15.24 31.87 22.59 58.73 21.79h293.17V862.96H839.53a2.5 2.5 0 1 1 0-5h211.43a2.5 2.5 0 0 1 2.5 2.5v158.17a2.5 2.5 0 0 1-2.5 2.5h-295.6c-1.34.04-2.67.06-3.98.06z"/><path fill="#010101" d="M1050.6 861.6a2.5 2.5 0 0 1-2.43-3.1l25.22-102.86c.12-.48.38-.92.75-1.25 44.17-40.14 46.47-87.33 7.02-144.27a2.5 2.5 0 0 1 4.11-2.85c21.5 31.03 31.03 60.04 28.33 86.23-2.38 23.07-14.34 44.62-35.53 64.07l-25.05 102.12a2.5 2.5 0 0 1-2.43 1.9z"/><path fill="#010101" d="M1108.5 663.13a2.5 2.5 0 0 1-1.96-4.04l23.09-29.42a2.5 2.5 0 1 1 3.93 3.09l-23.08 29.41a2.5 2.5 0 0 1-1.97.96zM839.53 862.96a2.5 2.5 0 0 1-2.43-3.1l50.42-207.74a2.5 2.5 0 0 1 4.86 1.18l-50.42 207.75a2.5 2.5 0 0 1-2.43 1.9z"/><path fill="#FFF" d="M1069.2 546.43a48.63 48.63 0 1 1-97.27 0"/><path fill="#FFF" d="M971.93 546.43a48.63 48.63 0 1 1-97.26 0"/><path fill="#FFD827" d="M921.97 452.78h99.93v90.68h-99.93z"/><path fill="#010101" d="M1021.9 545.95h-99.93a2.5 2.5 0 0 1-2.5-2.5v-90.67a2.5 2.5 0 0 1 2.5-2.5h99.93a2.5 2.5 0 0 1 2.5 2.5v90.67a2.5 2.5 0 0 1-2.5 2.5zm-97.43-5h94.93v-85.67h-94.93v85.67z"/><path fill="#010101" d="M950.83 568.9c0 80.47-65.23 145.7-145.7 145.7-80.45 0-145.68-65.23-145.68-145.7 0-80.46 65.22-145.68 145.68-145.68 80.47 0 145.7 65.22 145.7 145.68z"/><path fill="#010101" d="M955.72 394.2c0 66.41-53.83 120.24-120.24 120.24-66.4 0-120.23-53.83-120.23-120.24 0-66.4 53.83-120.23 120.23-120.23 66.41 0 120.24 53.83 120.24 120.23z"/><path fill="#FFD827" d="M1120.8 308.99c-1.97 0-3.9.13-5.82.34-17.83-61.61-74.66-106.66-142.02-106.66s-124.2 45.05-142.02 106.66a51.34 51.34 0 1 0 6.7 100.79c22.92 51.96 74.88 88.23 135.32 88.23s112.4-36.27 135.32-88.24a51.33 51.33 0 1 0 12.52-101.13z"/><path fill="#010101" d="M972.96 500.85a150.49 150.49 0 0 1-136.77-87.84 53.9 53.9 0 0 1-64.91-52.69 53.9 53.9 0 0 1 57.84-53.68 151.52 151.52 0 0 1 52.74-75.74c26.36-20.1 57.86-30.74 91.1-30.74s64.74 10.63 91.1 30.74a151.52 151.52 0 0 1 52.73 75.74 53.9 53.9 0 0 1 57.84 53.68 53.9 53.9 0 0 1-64.91 52.69 150.49 150.49 0 0 1-136.76 87.84zm-135.33-93.24c.98 0 1.88.57 2.3 1.5a145.48 145.48 0 0 0 133.03 86.74 145.48 145.48 0 0 0 133.03-86.75 2.5 2.5 0 0 1 2.9-1.41 48.89 48.89 0 0 0 60.75-47.36 48.89 48.89 0 0 0-54.38-48.52 2.5 2.5 0 0 1-2.68-1.79 146.43 146.43 0 0 0-51.56-75.14 144 144 0 0 0-88.06-29.71 144 144 0 0 0-88.07 29.7 146.42 146.42 0 0 0-51.55 75.15 2.5 2.5 0 0 1-2.68 1.79 48.9 48.9 0 0 0-54.38 48.51 48.9 48.9 0 0 0 60.75 47.37c.2-.05.4-.08.6-.08z"/><path fill="#010101" d="M830.6 383.47c-.68 0-1.36-.27-1.85-.8l-31.48-34.23a2.5 2.5 0 1 1 3.68-3.39l31.48 34.23a2.5 2.5 0 0 1-1.84 4.2zm278.59 0a2.5 2.5 0 0 1-1.84-4.2l31.48-34.22a2.5 2.5 0 1 1 3.68 3.39l-31.48 34.22a2.5 2.5 0 0 1-1.84.81z"/><g fill="#010101"><path d="M919.74 368.2a19.5 19.5 0 1 1-39.01 0 19.5 19.5 0 0 1 39.01 0z"/><path d="M946.15 371.93a2.5 2.5 0 0 1-2.06-1.08 44.74 44.74 0 0 0-73.79 0 2.5 2.5 0 1 1-4.12-2.83 49.73 49.73 0 0 1 82.03 0 2.5 2.5 0 0 1-2.06 3.91z"/></g><g fill="#010101"><path d="M1047.05 368.2a19.5 19.5 0 1 1-39.01 0 19.5 19.5 0 0 1 39 0z"/><path d="M1073.46 371.93a2.5 2.5 0 0 1-2.06-1.08 44.75 44.75 0 0 0-36.9-19.45 44.76 44.76 0 0 0-36.9 19.45 2.5 2.5 0 1 1-4.12-2.83 49.75 49.75 0 0 1 41.02-21.62c16.4 0 31.73 8.08 41.02 21.62a2.5 2.5 0 0 1-2.06 3.91z"/></g><path fill="#010101" d="M971.93 397.25a2.5 2.5 0 0 1-2.5-2.5v-28.4a2.5 2.5 0 1 1 5 0v28.4a2.5 2.5 0 0 1-2.5 2.5z"/><path fill="#FFF" d="M998.14 410.88a25.7 25.7 0 0 1-51.4 0"/><path fill="#FFD827" d="m1119 1000.78-.01-.11a87.14 87.14 0 0 1 22.62 7.76 80.44 80.44 0 0 0 25.88 8.2c7.29 1.07 14.76 1.38 22.57 1.42l36.84.21 38.94.22s0-.08.02-.08a16.35 16.35 0 1 0-1.35-32.63l-37.43-.2v-.15l49.37.28s0-.07.02-.07a16.36 16.36 0 1 0-1.35-32.63l-47.85-.28v-.13l59.8.33.01-.07a16.36 16.36 0 1 0-1.34-32.64l-58.28-.33v-.13l49.36.27s0-.07.02-.07a16.34 16.34 0 1 0-1.35-32.63l-61.42-.35-.38-.67 27.65-6.8s-.02-.07 0-.08a16.36 16.36 0 1 0-9.2-31.34l-66 16.14a46.1 46.1 0 0 0-29.45 18c-3.4 3.75-10.3 10.3-17.68 11.37v.03"/><path fill="#010101" d="M1265.84 1020.98h-.02l-75.78-.43c-9.39-.05-16.45-.5-22.92-1.45a83.35 83.35 0 0 1-26.66-8.45 83.97 83.97 0 0 0-21.24-7.38l-.23.01a2.5 2.5 0 0 1-2.5-2.43v-.12a2.5 2.5 0 0 1 3-2.5 89.53 89.53 0 0 1 23.28 7.99c7.71 4.01 15.68 6.53 25.08 7.93 6.22.92 13.08 1.35 22.22 1.4l75.18.43c.2-.05.44-.08.62-.08 3.75.04 7.19-1.4 9.82-4s4.09-6.07 4.1-9.77c.03-3.7-1.39-7.18-4-9.81a13.75 13.75 0 0 0-11.3-4.05l-37.42-.2a2.5 2.5 0 0 1-2.49-2.5v-.13a2.5 2.5 0 0 1 2.5-2.52h.02l48.78.28c.2-.05.39-.07.6-.07h.08c7.6 0 13.8-6.16 13.85-13.77a13.87 13.87 0 0 0-15.3-13.86l-47.85-.28a2.5 2.5 0 0 1-2.49-2.48v-.14a2.5 2.5 0 0 1 2.5-2.51h.01l59.2.33c.2-.04.39-.1.61-.07h.08c7.6 0 13.81-6.16 13.85-13.77a13.87 13.87 0 0 0-15.3-13.86l-58.28-.33a2.5 2.5 0 0 1-2.48-2.45v-.14a2.5 2.5 0 0 1 2.5-2.55l48.78.27a2.54 2.54 0 0 1 .62-.07h.09c3.66 0 7.11-1.42 9.72-4a13.75 13.75 0 0 0 4.11-9.77c.03-3.7-1.4-7.19-4-9.82a13.75 13.75 0 0 0-11.06-4.05c-.08 0-.16.02-.24.01l-61.42-.35a2.5 2.5 0 0 1-2.15-1.24l-.37-.66a2.5 2.5 0 0 1 1.56-3.7l27.09-6.66c.18-.1.37-.17.57-.21a13.87 13.87 0 0 0 10.18-16.74 13.87 13.87 0 0 0-18.2-9.75l-66 16.14a43.86 43.86 0 0 0-28.2 17.26c-3.62 3.99-10.86 10.82-18.9 12.11-.17.05-.36.08-.55.08a2.45 2.45 0 0 1-2.58-2.4 2.53 2.53 0 0 1 2.14-2.59c6.77-.97 13.46-7.58 16.1-10.47a48.88 48.88 0 0 1 30.88-18.87l65.82-16.1a18.87 18.87 0 0 1 24.35 13.4 18.88 18.88 0 0 1-13.26 22.63c-.2.1-.4.18-.6.23l-10.74 2.64 44.2.25a18.72 18.72 0 0 1 14.95 5.53 18.73 18.73 0 0 1 5.43 13.36 18.72 18.72 0 0 1-6.41 14.06 18.88 18.88 0 0 1 16.65 18.83 18.89 18.89 0 0 1-16.88 18.65 18.83 18.83 0 0 1-10.6 32.78 18.72 18.72 0 0 1 6.26 14.14 18.73 18.73 0 0 1-5.6 13.3 18.71 18.71 0 0 1-12.72 5.43c-.2.05-.42.08-.64.08z"/><path fill="#FFD827" d="M1072.34 1000.78v-.11a87.14 87.14 0 0 1 22.62 7.76 80.44 80.44 0 0 0 25.88 8.2c7.29 1.07 14.76 1.38 22.57 1.42l36.83.21 38.94.22s0-.08.03-.08a16.34 16.34 0 1 0-1.35-32.63l-37.43-.2v-.15l49.37.28s0-.07.02-.07a16.36 16.36 0 1 0-1.35-32.63l-47.85-.28v-.13l59.79.33s0-.07.02-.07a16.36 16.36 0 1 0-1.35-32.64l-58.27-.33v-.13l49.36.27s0-.07.02-.07a16.34 16.34 0 1 0-1.35-32.63l-61.42-.35-.38-.67 27.65-6.8s-.02-.07 0-.08a16.35 16.35 0 1 0-9.2-31.34l-66 16.14a46.11 46.11 0 0 0-29.45 18c-3.4 3.75-10.3 10.3-17.69 11.37v.03"/><path fill="#010101" d="M1219.19 1020.98h-.02l-75.78-.43c-9.39-.05-16.46-.5-22.92-1.45a83.36 83.36 0 0 1-26.66-8.45 83.93 83.93 0 0 0-21.24-7.38c-.07.01-.15.02-.23.01a2.5 2.5 0 0 1-2.5-2.48v-.1a2.5 2.5 0 0 1 3-2.48 89.55 89.55 0 0 1 23.28 8c7.71 4.01 15.69 6.53 25.08 7.93 6.22.92 13.08 1.35 22.22 1.4l75.18.43c.2-.05.4-.08.6-.08h.11c3.67 0 7.12-1.42 9.73-4a13.7 13.7 0 0 0 4.1-9.77 13.7 13.7 0 0 0-4-9.82 13.75 13.75 0 0 0-11.3-4.04l-37.42-.21a2.5 2.5 0 0 1-2.48-2.45v-.14a2.5 2.5 0 0 1 2.5-2.55l48.8.28c.19-.05.38-.08.6-.07h.07c7.6 0 13.8-6.17 13.85-13.78a13.87 13.87 0 0 0-15.3-13.86l-47.85-.27a2.5 2.5 0 0 1-2.49-2.46v-.14a2.5 2.5 0 0 1 2.5-2.54h.01l59.2.34c.2-.05.4-.07.6-.07h.09c7.6 0 13.81-6.17 13.86-13.78a13.87 13.87 0 0 0-15.3-13.86l-58.29-.33a2.5 2.5 0 0 1-2.48-2.44v-.14a2.5 2.5 0 0 1 2.5-2.56l48.78.28.23-.05c.13-.02.26-.05.39-.03h.09c3.66 0 7.12-1.41 9.72-4 2.64-2.6 4.1-6.07 4.12-9.77.02-3.7-1.4-7.18-4-9.81a13.73 13.73 0 0 0-11.08-4.05h-.23l-61.42-.34a2.5 2.5 0 0 1-2.14-1.24l-.38-.67a2.5 2.5 0 0 1 1.56-3.7l27.08-6.65c.18-.1.38-.17.58-.22a13.87 13.87 0 0 0 10.17-16.74 13.87 13.87 0 0 0-18.2-9.74l-66 16.14a43.85 43.85 0 0 0-28.2 17.26c-3.61 3.98-10.85 10.82-18.88 12.1a2.45 2.45 0 0 1-3.14-2.32 2.53 2.53 0 0 1 2.14-2.58c6.54-.94 12.87-6.93 16.1-10.48a48.88 48.88 0 0 1 30.88-18.86l65.81-16.1a18.88 18.88 0 0 1 24.35 13.4 18.88 18.88 0 0 1-13.25 22.62c-.2.1-.4.18-.6.23l-10.74 2.64 44.19.25a18.73 18.73 0 0 1 14.95 5.53 18.72 18.72 0 0 1 5.44 13.36 18.72 18.72 0 0 1-6.42 14.07 18.88 18.88 0 0 1 16.66 18.83 18.9 18.9 0 0 1-16.88 18.65 18.83 18.83 0 0 1-10.6 32.77 18.72 18.72 0 0 1 6.26 14.14 18.73 18.73 0 0 1-5.6 13.3 18.72 18.72 0 0 1-12.72 5.44c-.2.05-.42.08-.64.08z"/><path fill="#FFF" d="M1008.04 857.78h67.21v164.14h-67.21zm778.83-648.09h-474.81a2.5 2.5 0 0 1-2.5-2.5V8.72a2.5 2.5 0 0 1 2.5-2.5h474.8a2.5 2.5 0 0 1 2.5 2.5V207.2a2.5 2.5 0 0 1-2.5 2.5zm-472.31-5h469.8V11.22h-469.8V204.7z"/><path fill="#FFF" d="M1775.1 130.38a63.8 63.8 0 0 1-63.8 63.8h-323.68a63.8 63.8 0 0 1-63.8-63.8V85.53a63.8 63.8 0 0 1 63.8-63.81h323.68a63.8 63.8 0 0 1 63.8 63.8v44.84z"/><path fill="#010101" d="M1399.25 139.17h17.63V80.1l-17.97 12.58-4.38-6.4 24.7-17.63h6.3v70.5h17.28v8.1h-43.56v-8.1zm59.95-46.82c0-3.44.56-6.68 1.7-9.71a21.91 21.91 0 0 1 5.11-7.98 24.3 24.3 0 0 1 8.5-5.38 32.6 32.6 0 0 1 11.81-1.97c4.2 0 7.95.67 11.25 2.02s6.1 3.24 8.38 5.67a24.33 24.33 0 0 1 5.23 8.87c1.2 3.48 1.8 7.35 1.8 11.62 0 8.38-1.05 15.76-3.15 22.12-2.1 6.36-5.03 11.75-8.78 16.17s-8.2 7.86-13.34 10.33a47.88 47.88 0 0 1-16.71 4.49l-1.7-7.08a40.06 40.06 0 0 0 13.26-3.59 35.3 35.3 0 0 0 10.1-7.18 36.86 36.86 0 0 0 6.96-10.1c1.8-3.82 3.03-7.9 3.7-12.25a23.46 23.46 0 0 1-3.64 3.2c-1.24.87-2.6 1.56-4.1 2.08-1.5.53-3.14.9-4.94 1.12-1.8.23-3.85.34-6.17.34-3.45 0-6.7-.52-9.77-1.57a23.81 23.81 0 0 1-8.03-4.55 22.02 22.02 0 0 1-5.44-7.18 21.66 21.66 0 0 1-2.03-9.49zm9.32-.9c0 5.4 1.63 9.43 4.87 12.13 3.25 2.7 7.55 4.04 12.93 4.04 4.25 0 7.93-.66 11.02-1.97 3.1-1.3 5.28-2.93 6.55-4.88.15-1.05.22-1.89.22-2.53v-2.19c0-2.62-.35-5.2-1.06-7.74a20.89 20.89 0 0 0-3.3-6.85 16.73 16.73 0 0 0-5.76-4.89 17.98 17.98 0 0 0-8.45-1.85c-5.37 0-9.55 1.46-12.54 4.38-2.98 2.92-4.48 7.04-4.48 12.35zm77.36 5.5c0-2.4.67-4.25 2.02-5.55 1.35-1.31 3.14-1.97 5.4-1.97 2.39 0 4.26.66 5.6 1.97 1.35 1.3 2.03 3.16 2.03 5.55 0 2.18-.68 3.97-2.02 5.4-1.35 1.42-3.22 2.13-5.62 2.13a7.07 7.07 0 0 1-5.39-2.14 7.52 7.52 0 0 1-2.02-5.39zm0 44.13c0-2.4.67-4.25 2.02-5.56 1.35-1.31 3.14-1.97 5.4-1.97 2.39 0 4.26.66 5.6 1.97 1.35 1.3 2.03 3.16 2.03 5.56 0 2.17-.68 3.97-2.02 5.38-1.35 1.43-3.22 2.14-5.62 2.14a7.08 7.08 0 0 1-5.39-2.14 7.52 7.52 0 0 1-2.02-5.38zm47.38-33.13a79 79 0 0 1 1.69-17.12c1.12-5.05 2.81-9.32 5.06-12.8a22.89 22.89 0 0 1 8.55-7.97c3.45-1.83 7.54-2.75 12.26-2.75 5.03 0 9.29.9 12.77 2.7a21.67 21.67 0 0 1 8.5 7.85c2.17 3.45 3.75 7.7 4.72 12.75a92.14 92.14 0 0 1 1.47 17.34 78.8 78.8 0 0 1-1.7 17.13c-1.12 5.05-2.8 9.32-5.05 12.8a22.93 22.93 0 0 1-8.56 7.97c-3.45 1.83-7.53 2.75-12.26 2.75-4.95 0-9.17-1-12.66-2.98a23.74 23.74 0 0 1-8.55-8.36 38.37 38.37 0 0 1-4.78-12.86 85.57 85.57 0 0 1-1.46-16.45zm9.32 0c0 1.88.06 3.67.17 5.4a186 186 0 0 0 .39 5.05l33.46-30.32c-1.28-4.04-3.16-7.26-5.67-9.65-2.51-2.4-5.9-3.6-10.16-3.6-6.67 0-11.36 2.75-14.1 8.26-2.73 5.5-4.1 13.79-4.1 24.86zm36.38 0c0-3.96-.23-7.74-.68-11.33l-33.34 30.42c1.27 4.27 3.18 7.68 5.72 10.22 2.55 2.54 5.88 3.82 10 3.82 6.58 0 11.28-2.73 14.08-8.2 2.81-5.46 4.22-13.77 4.22-24.93zm21.66 0a79 79 0 0 1 1.7-17.12c1.12-5.05 2.8-9.32 5.06-12.8a22.89 22.89 0 0 1 8.55-7.97c3.44-1.83 7.53-2.75 12.26-2.75 5.02 0 9.28.9 12.77 2.7a21.68 21.68 0 0 1 8.5 7.85c2.17 3.45 3.74 7.7 4.72 12.75a92.14 92.14 0 0 1 1.46 17.34c0 6.37-.56 12.07-1.69 17.13-1.12 5.05-2.81 9.32-5.06 12.8a22.93 22.93 0 0 1-8.55 7.97c-3.45 1.83-7.54 2.75-12.26 2.75-4.95 0-9.17-1-12.66-2.98a23.72 23.72 0 0 1-8.55-8.36 38.37 38.37 0 0 1-4.78-12.86 85.56 85.56 0 0 1-1.47-16.45zm9.32 0c0 1.88.06 3.67.17 5.4a182 182 0 0 0 .4 5.05l33.45-30.32c-1.27-4.04-3.16-7.26-5.67-9.65-2.5-2.4-5.89-3.6-10.16-3.6-6.66 0-11.36 2.75-14.09 8.26-2.73 5.5-4.1 13.79-4.1 24.86zm36.38 0c0-3.96-.22-7.74-.67-11.33l-33.35 30.42c1.27 4.27 3.18 7.68 5.73 10.22 2.54 2.54 5.87 3.82 10 3.82 6.58 0 11.27-2.73 14.08-8.2 2.8-5.46 4.21-13.77 4.21-24.93z"/><g fill="#FFF"><path d="M1865.49 440.78a52.24 52.24 0 0 1-52.18-52.18c0-28.77 23.4-52.18 52.18-52.18s52.18 23.4 52.18 52.18a52.24 52.24 0 0 1-52.18 52.18zm0-99.36a47.23 47.23 0 0 0-47.18 47.18 47.23 47.23 0 0 0 47.18 47.18 47.23 47.23 0 0 0 47.18-47.18 47.23 47.23 0 0 0-47.18-47.18z"/><path d="M1840.73 411.14a2.5 2.5 0 0 1-1.58-4.44l23.84-19.3v-37.75a2.5 2.5 0 1 1 5 0v38.95a2.5 2.5 0 0 1-.93 1.94l-24.76 20.04c-.46.38-1.02.56-1.57.56z"/></g><path fill="#010101" d="M68.05 859.82h159.83v159.83H68.05z"/><path fill="#FFD827" d="M197.49 939.74a49.52 49.52 0 1 1-99.04 0 49.52 49.52 0 0 1 99.04 0z"/><path fill="#FFF" d="M123.29 962.21a2.5 2.5 0 0 1-1.58-4.44l23.76-19.23v-37.62a2.5 2.5 0 1 1 5 0v38.81a2.5 2.5 0 0 1-.93 1.95l-24.68 19.97a2.5 2.5 0 0 1-1.57.56z"/><path fill="#010101" d="M190.77 859.75c0-10.9-8.84-19.73-19.73-19.73h-45.6a19.73 19.73 0 0 0-19.72 19.73"/><g fill="#010101"><path d="m974.13 206.72-.42-2.46h-.92c-67.72 0-124.74 45.22-141.97 107.45a74.56 74.56 0 0 0 15.22 1.37c63.78 0 116.85-45.84 128.1-106.36z"/><path d="M974.56 204.27a69.8 69.8 0 0 1-.43 2.45c11.25 60.52 64.32 106.35 128.1 106.35 4.26 0 8.21-.32 12.54-1.17-16.99-61.83-73.17-106.83-140.2-107.63z"/><path d="M974.13 206.72c.16-.81.3-1.63.43-2.45h-.85l.42 2.45z"/></g></svg>