<svg xmlns="http://www.w3.org/2000/svg" viewBox="0 0 1080 1080" xml:space="preserve"><path fill="#FFF" d="M1075.13 165.9H692.69a2 2 0 0 1-2-2V4.06c0-1.1.9-2 2-2h382.44a2 2 0 0 1 2 2V163.9a2 2 0 0 1-2 2zm-380.44-4h378.44V6.06H694.69V161.9z"/><path fill="#FFF" d="M1065.65 102.04a51.4 51.4 0 0 1-51.39 51.4h-260.7a51.4 51.4 0 0 1-51.39-51.4V65.92c0-28.38 23-51.39 51.4-51.39h260.7a51.4 51.4 0 0 1 51.38 51.4v36.11z"/><path fill="#010101" d="M762.93 109.12h14.2V61.55L762.65 71.7l-3.53-5.16 19.9-14.2h5.06v56.8H798v6.5h-35.08v-6.5zm48.29-37.71c0-2.77.45-5.38 1.35-7.82a17.63 17.63 0 0 1 4.13-6.42 19.57 19.57 0 0 1 6.84-4.34 26.26 26.26 0 0 1 9.52-1.58c3.38 0 6.4.54 9.06 1.62a19.07 19.07 0 0 1 6.75 4.57 19.6 19.6 0 0 1 4.21 7.14 28.5 28.5 0 0 1 1.45 9.36c0 6.76-.84 12.7-2.54 17.82a38.49 38.49 0 0 1-7.07 13.02 32.3 32.3 0 0 1-10.74 8.32c-4.14 2-8.63 3.2-13.47 3.62l-1.36-5.7a32.23 32.23 0 0 0 10.67-2.9 28.41 28.41 0 0 0 13.75-13.92 35.94 35.94 0 0 0 2.99-9.86 18.86 18.86 0 0 1-2.94 2.58c-1 .7-2.1 1.25-3.3 1.67-1.21.43-2.54.73-3.98.9-1.45.19-3.1.28-4.98.28-2.77 0-5.4-.42-7.87-1.27a19.2 19.2 0 0 1-6.46-3.66 17.42 17.42 0 0 1-6.01-13.43zm7.5-.72c0 4.34 1.3 7.6 3.92 9.76 2.62 2.18 6.09 3.26 10.42 3.26 3.42 0 6.38-.53 8.88-1.58 2.49-1.06 4.25-2.37 5.27-3.94.12-.84.18-1.52.18-2.03V74.4c0-2.11-.29-4.2-.86-6.24a16.84 16.84 0 0 0-2.66-5.52 13.45 13.45 0 0 0-4.64-3.93c-1.9-1-4.16-1.5-6.8-1.5-4.33 0-7.7 1.18-10.1 3.53-2.4 2.35-3.61 5.67-3.61 9.95zm62.31 4.43c0-1.93.54-3.42 1.62-4.48a5.97 5.97 0 0 1 4.35-1.58c1.93 0 3.43.53 4.52 1.58 1.08 1.06 1.63 2.55 1.63 4.48 0 1.75-.55 3.2-1.63 4.34-1.09 1.15-2.6 1.72-4.52 1.72a5.7 5.7 0 0 1-5.97-6.06zm0 35.54c0-1.93.54-3.42 1.62-4.48a5.97 5.97 0 0 1 4.35-1.58c1.93 0 3.43.53 4.52 1.58 1.08 1.06 1.63 2.55 1.63 4.48 0 1.75-.55 3.2-1.63 4.34a5.97 5.97 0 0 1-4.52 1.72 5.7 5.7 0 0 1-5.97-6.06zm38.16-26.68c0-5.12.45-9.72 1.36-13.79.9-4.07 2.26-7.5 4.07-10.3a18.45 18.45 0 0 1 6.9-6.43c2.77-1.47 6.06-2.21 9.87-2.21 4.05 0 7.48.72 10.28 2.17a17.45 17.45 0 0 1 6.85 6.33 29.66 29.66 0 0 1 3.8 10.26 74.29 74.29 0 0 1 1.18 13.97c0 5.13-.45 9.72-1.36 13.8-.9 4.06-2.27 7.5-4.08 10.3a18.47 18.47 0 0 1-6.89 6.42c-2.78 1.48-6.07 2.22-9.87 2.22-3.99 0-7.39-.8-10.2-2.4-2.8-1.6-5.1-3.84-6.88-6.74a30.9 30.9 0 0 1-3.85-10.35c-.79-4-1.18-8.42-1.18-13.25zm7.5 0c0 1.5.05 2.96.14 4.34.09 1.4.2 2.75.32 4.07l26.94-24.41a17.98 17.98 0 0 0-4.56-7.78c-2.02-1.93-4.75-2.9-8.19-2.9-5.36 0-9.15 2.22-11.35 6.65-2.2 4.43-3.3 11.11-3.3 20.03zm29.3 0c0-3.2-.18-6.24-.54-9.13l-26.86 24.5c1.03 3.44 2.57 6.19 4.62 8.23 2.04 2.05 4.73 3.08 8.04 3.08 5.3 0 9.1-2.2 11.35-6.6 2.26-4.4 3.4-11.1 3.4-20.08zm17.46 0c0-5.12.45-9.72 1.35-13.79a31.5 31.5 0 0 1 4.08-10.3 18.42 18.42 0 0 1 6.89-6.43 20.85 20.85 0 0 1 9.88-2.21c4.04 0 7.47.72 10.28 2.17a17.46 17.46 0 0 1 6.84 6.33 29.66 29.66 0 0 1 3.8 10.26 74.2 74.2 0 0 1 1.19 13.97c0 5.13-.46 9.72-1.36 13.8a31.5 31.5 0 0 1-4.08 10.3 18.46 18.46 0 0 1-6.89 6.42c-2.78 1.48-6.07 2.22-9.87 2.22-3.99 0-7.39-.8-10.2-2.4a19.1 19.1 0 0 1-6.89-6.74 30.82 30.82 0 0 1-3.85-10.35c-.78-4-1.17-8.42-1.17-13.25zm7.5 0c0 1.5.05 2.96.14 4.34.09 1.4.2 2.75.31 4.07l26.95-24.41a17.97 17.97 0 0 0-4.57-7.78c-2.02-1.93-4.74-2.9-8.18-2.9-5.37 0-9.15 2.22-11.35 6.65-2.2 4.43-3.3 11.11-3.3 20.03zm29.3 0c0-3.2-.18-6.24-.54-9.13l-26.86 24.5c1.02 3.44 2.56 6.19 4.61 8.23 2.05 2.05 4.74 3.08 8.05 3.08 5.3 0 9.09-2.2 11.35-6.6 2.26-4.4 3.4-11.1 3.4-20.08z"/><g fill="#FFF"><path d="M143.7 190.72c-23.16 0-42-18.85-42-42.02s18.84-42.01 42-42.01c23.18 0 42.02 18.85 42.02 42.01s-18.84 42.02-42.01 42.02zm0-80.03c-20.95 0-38 17.05-38 38.01s17.05 38.02 38 38.02 38.02-17.06 38.02-38.02-17.05-38.01-38.01-38.01z"/><path d="M123.77 166.84a2 2 0 0 1-1.26-3.55l19.2-15.54v-30.42a2 2 0 0 1 4 0v31.37a2 2 0 0 1-.74 1.56l-19.94 16.14a2 2 0 0 1-1.26.44z"/></g><path fill="#010101" d="M1077.35 1031.44H3.15a2 2 0 0 1 0-4h1074.2a2 2 0 0 1 0 4z"/><circle transform="rotate(-45 405.04 626.33)" fill="#FFF" cx="405.05" cy="626.32" r="401.17"/><path fill="#FFD827" d="M650.2 627.33c0 135.4-109.76 245.16-245.15 245.16-135.4 0-245.16-109.77-245.16-245.16s109.76-245.16 245.16-245.16c135.4 0 245.16 109.76 245.16 245.16z"/><path fill="#010101" d="M282.85 728.22a2 2 0 0 1-1.26-3.56l121.46-98.29V435.14a2 2 0 0 1 4 0v192.19a2 2 0 0 1-.74 1.55l-122.2 98.89a2 2 0 0 1-1.26.45z"/><path fill="#FFD827" d="M720.22 617.88v-78.59h86.6v78.59"/><path fill="#010101" d="M806.82 619.88a2 2 0 0 1-2-2v-76.6h-82.6v76.6a2 2 0 0 1-4 0v-78.6c0-1.1.9-2 2-2h86.6a2 2 0 0 1 2 2v78.6a2 2 0 0 1-2 2z"/><path fill="#FFD827" d="m908.58 1027.28 62.36-325.76a83.64 83.64 0 0 0-83.64-83.64H651.5a83.64 83.64 0 0 0-83.63 83.64l-54.19 236.55s-24.92 94.17 62.14 91.63h233.4V892.6H648.76"/><path fill="#010101" d="M566.1 1030.4c-22.88 0-33.7-5.55-44.51-19.17-21.75-27.42-10.34-71.8-9.84-73.67l54.12-236.27c.12-47.12 38.49-85.41 85.64-85.41H887.3c47.22 0 85.64 38.41 85.64 85.64 0 .12-.02.25-.04.37l-62.36 325.77a2 2 0 1 1-3.93-.75l62.33-325.58c-.1-44.93-36.69-81.45-81.64-81.45H651.5c-45.01 0-81.63 36.62-81.63 81.64 0 .15-.02.3-.06.44l-54.18 236.56c-.13.5-11.4 44.4 9.1 70.24 10.52 13.25 27.7 19.62 51.03 18.94h231.45V894.6H648.77a2 2 0 0 1 0-4h160.44a2 2 0 0 1 2 2v137.09c0 1.1-.9 1-2 1l-228.8-.3c-1.16.03-13.17 0-14.3 0z"/><path fill="#010101" d="M831.7 893.44a2 2 0 0 1-1.95-2.48l21.86-89.15a2 2 0 0 1 .6-1c38.36-34.85 40.36-75.82 6.11-125.25a2 2 0 1 1 3.3-2.27c18.6 26.85 26.84 51.95 24.5 74.6-2.05 19.98-12.4 38.63-30.76 55.47l-21.73 88.56a2 2 0 0 1-1.94 1.52z"/><path fill="#010101" d="M881.89 721.43a2 2 0 0 1-1.57-3.24l20-25.49a2 2 0 1 1 3.15 2.47l-20 25.5a2 2 0 0 1-1.58.76zM648.77 894.62a2 2 0 0 1-1.95-2.47l43.7-180.06a2 2 0 0 1 3.89.95l-43.7 180.05a2 2 0 0 1-1.94 1.52z"/><path fill="#FFF" d="M847.81 620.45a42.15 42.15 0 0 1-84.3 0"/><path fill="#FFF" d="M763.52 620.45a42.15 42.15 0 0 1-84.3 0"/><path fill="#010101" d="M745.23 639.93c0 69.74-56.53 126.27-126.27 126.27-69.73 0-126.26-56.53-126.26-126.27 0-69.73 56.53-126.26 126.26-126.26 69.74 0 126.27 56.53 126.27 126.26z"/><path fill="#010101" d="M757.3 488.52c0 57.56-46.65 104.21-104.2 104.21-57.56 0-104.21-46.65-104.21-104.2 0-57.55 46.65-104.2 104.2-104.2 57.56 0 104.2 46.65 104.2 104.2z"/><path fill="#FFD827" d="M892.54 414.67c-1.7 0-3.39.11-5.04.3-15.46-53.4-64.71-92.45-123.09-92.45-58.38 0-107.63 39.05-123.09 92.44a44.5 44.5 0 1 0 5.8 87.35c19.87 45.04 64.9 76.48 117.29 76.48 52.38 0 97.42-31.44 117.28-76.48a44.49 44.49 0 1 0 10.85-87.64z"/><path fill="#010101" d="M764.4 580.79a130.25 130.25 0 0 1-118.42-76.16 46.54 46.54 0 0 1-56.19-45.47 46.54 46.54 0 0 1 50.08-46.34 131.15 131.15 0 0 1 45.69-65.69c22.81-17.4 50.08-26.6 78.85-26.6s56.04 9.2 78.85 26.6a131.16 131.16 0 0 1 45.69 65.69 46.54 46.54 0 0 1 50.09 46.35 46.54 46.54 0 0 1-56.2 45.46 130.27 130.27 0 0 1-118.43 76.16zM647.14 500.3a2 2 0 0 1 1.83 1.2 126.25 126.25 0 0 0 115.45 75.28c49.96 0 95.28-29.55 115.45-75.28a2 2 0 0 1 2.31-1.14 42.54 42.54 0 0 0 52.86-41.21 42.54 42.54 0 0 0-47.32-42.21 2 2 0 0 1-2.14-1.43 127.07 127.07 0 0 0-44.74-65.21 124.97 124.97 0 0 0-76.42-25.79c-27.89 0-54.32 8.92-76.43 25.79a127.07 127.07 0 0 0-44.74 65.2 2 2 0 0 1-2.14 1.44 42.54 42.54 0 0 0-47.31 42.21 42.54 42.54 0 0 0 52.85 41.21c.16-.04.33-.06.49-.06z"/><path fill="#010101" d="M641.02 479.06a2 2 0 0 1-1.47-.65l-27.29-29.66a2 2 0 0 1 2.95-2.71l27.28 29.66a2 2 0 0 1-1.47 3.36zm241.46 0a2 2 0 0 1-1.48-3.36l27.3-29.66a2 2 0 0 1 2.93 2.7l-27.28 29.67a2 2 0 0 1-1.48.64zm-164.2-13.8a16.9 16.9 0 1 1-33.8 0 16.9 16.9 0 0 1 33.8 0z"/><path fill="#010101" d="M741.18 469.06a2 2 0 0 1-1.65-.87 38.95 38.95 0 0 0-64.23 0 2 2 0 1 1-3.3-2.27 42.95 42.95 0 0 1 70.82 0 2 2 0 0 1-1.64 3.13z"/><g fill="#010101"><path d="M828.62 465.26a16.9 16.9 0 1 1-33.8 0 16.9 16.9 0 0 1 33.8 0z"/><path d="M783.98 469.06a2 2 0 0 1-1.13-.36 2 2 0 0 1-.52-2.78 42.95 42.95 0 0 1 70.83 0 2 2 0 1 1-3.3 2.27 38.95 38.95 0 0 0-64.23 0 2 2 0 0 1-1.65.87z"/></g><path fill="#010101" d="M764.83 322.53h1.18-1.18zm127.71 92.14c-1.7 0-3.39.11-5.04.3-15.28-52.78-65.18-91.52-122.67-92.42v-.01h-.42c-57.7.72-107.78 39.52-123.09 92.42a44.76 44.76 0 0 0-12.49.34 113.3 113.3 0 0 0 25.58 2.91c55.28 0 101.28-39.72 111.02-92.18 9.74 52.46 55.74 92.18 111.02 92.18 8.47 0 16.72-.94 24.66-2.7a44.7 44.7 0 0 0-8.57-.84zM763.52 491a2 2 0 0 1-2-2v-24.62a2 2 0 0 1 4 0V489a2 2 0 0 1-2 2z"/><path fill="#FFF" d="M786.23 502.98a22.27 22.27 0 0 1-44.54 0"/><path fill="#FFD827" d="M890.97 1013.48v-.1a75.6 75.6 0 0 1 19.6 6.73 69.8 69.8 0 0 0 22.43 7.1c6.32.93 12.8 1.2 19.56 1.24l31.93.18 33.75.19s0-.07.02-.07a14.17 14.17 0 1 0-1.17-28.28l-32.44-.18v-.12l42.79.24s0-.07.01-.06a14.17 14.17 0 1 0-1.16-28.29l-41.48-.23v-.12l51.82.3s0-.08.02-.07a14.18 14.18 0 1 0-1.17-28.29l-50.5-.28v-.12l42.78.24s0-.07.02-.07a14.16 14.16 0 1 0-1.17-28.28l-53.23-.3-.34-.59 23.97-5.88s-.02-.07 0-.07a14.18 14.18 0 1 0-7.97-27.16l-57.2 13.98a39.96 39.96 0 0 0-25.53 15.6c-2.94 3.25-8.92 8.93-15.33 9.86v.02"/><path fill="#010101" d="M1018.24 1030.82h-.01l-65.68-.37c-8.12-.05-14.24-.44-19.84-1.26a72.1 72.1 0 0 1-23.06-7.3 73.11 73.11 0 0 0-18.65-6.46c-1.11.06-2-.8-2.02-1.89v-.1a2 2 0 0 1 2.4-2.02 77.46 77.46 0 0 1 20.12 6.92 67.22 67.22 0 0 0 21.8 6.9c5.4.79 11.34 1.16 19.27 1.2l65.19.37c.17-.04.33-.04.51-.06h.07c3.23 0 6.26-1.25 8.55-3.52a12.19 12.19 0 0 0-9.63-20.78l-.18.02-32.44-.19a2 2 0 0 1-1.99-1.98v-.12a2 2 0 0 1 2-2.02h.01l42.3.24c.16-.04.3-.07.5-.06h.07a12.2 12.2 0 0 0 12.18-12.1 12.18 12.18 0 0 0-13.24-12.19l-.2.01-41.47-.24a2 2 0 0 1-1.99-1.98v-.12a2 2 0 0 1 2-2.02h.01l51.34.3c.16-.05.33-.06.5-.07h.07a12.2 12.2 0 0 0 8.65-20.73 12.08 12.08 0 0 0-9.72-3.56h-.19l-50.5-.28a2 2 0 0 1-2-1.98v-.12a2 2 0 0 1 2-2.02h.02l42.28.24.2-.04c.1-.02.17-.04.32-.02h.07c3.23 0 6.26-1.25 8.55-3.52a12.08 12.08 0 0 0 3.61-8.58 12.1 12.1 0 0 0-3.51-8.63 12.08 12.08 0 0 0-9.72-3.56h-.2l-53.23-.3a2 2 0 0 1-1.7-.98l-.33-.57a2 2 0 0 1 1.23-2.97l23.5-5.77c.15-.08.31-.14.48-.19a12.2 12.2 0 0 0 8.94-14.7 12.19 12.19 0 0 0-15.97-8.57l-57.2 13.98-.14.03a38.17 38.17 0 0 0-24.38 14.98c-3.13 3.45-9.38 9.34-16.29 10.45-.14.04-.29.06-.44.06a1.98 1.98 0 0 1-2.08-1.9 2.02 2.02 0 0 1 1.72-2.09c5.72-.82 11.24-6.04 14.06-9.14a42.18 42.18 0 0 1 26.67-16.29l57.05-13.95a16.2 16.2 0 0 1 20.9 11.49 16.2 16.2 0 0 1-11.4 19.4 2 2 0 0 1-.5.2l-10.6 2.61 39.64.23a16.06 16.06 0 0 1 12.83 4.74 16.07 16.07 0 0 1 4.67 11.46 16.06 16.06 0 0 1-5.8 12.32 16 16 0 0 1 10 4.73 16.08 16.08 0 0 1 4.68 11.46 16.2 16.2 0 0 1-14.87 16.03 16.16 16.16 0 0 1-9.2 28.4 16.14 16.14 0 0 1 .87 23.8 16.05 16.05 0 0 1-10.93 4.66c-.17.05-.35.08-.53.08z"/><path fill="#FFD827" d="M850.54 1013.48v-.1a75.6 75.6 0 0 1 19.6 6.73 69.75 69.75 0 0 0 22.43 7.1c6.32.93 12.8 1.2 19.56 1.24l31.93.18 33.75.19s0-.07.02-.07a14.17 14.17 0 1 0-1.17-28.28l-32.44-.18v-.12l42.79.24s0-.07.01-.06a14.17 14.17 0 1 0-1.17-28.29l-41.47-.23v-.12l51.82.3s0-.08.02-.07a14.18 14.18 0 1 0-1.17-28.29l-50.5-.28v-.12l42.78.24s0-.07.02-.07a14.16 14.16 0 1 0-1.17-28.28l-53.23-.3-.34-.59 23.97-5.88s-.02-.07 0-.07a14.18 14.18 0 1 0-7.97-27.16l-57.2 13.98a39.97 39.97 0 0 0-25.53 15.6c-2.94 3.25-8.92 8.93-15.33 9.86v.02"/><path fill="#010101" d="m977.8 1030.82-65.68-.37c-8.12-.05-14.24-.44-19.84-1.26a72.05 72.05 0 0 1-23.06-7.3 73.18 73.18 0 0 0-18.65-6.46h-.03c-1.1 0-2-.85-2-1.95v-.1a2 2 0 0 1 2.4-1.96 77.48 77.48 0 0 1 20.13 6.92 67.17 67.17 0 0 0 21.8 6.9c5.4.79 11.34 1.16 19.27 1.2l65.19.37c.16-.04.35-.04.51-.06h.07c3.22 0 6.26-1.24 8.55-3.51a12.09 12.09 0 0 0 3.61-8.59 12.09 12.09 0 0 0-3.51-8.63 12.09 12.09 0 0 0-9.73-3.56h-.18l-32.44-.17a2 2 0 0 1-1.99-1.96v-.12a2 2 0 0 1 2-2.04h.01l42.3.23c.16-.04.35-.07.5-.06a12.2 12.2 0 0 0 12.25-12.1 12.19 12.19 0 0 0-13.44-12.18l-41.47-.24a2 2 0 0 1-1.99-1.95v-.12a2 2 0 0 1 2-2.04h.01l51.33.29c.17-.05.34-.05.5-.07h.07a12.2 12.2 0 0 0 8.66-20.73 12.08 12.08 0 0 0-9.72-3.56l-.19.01-50.5-.29a2 2 0 0 1-2-1.95v-.12a2 2 0 0 1 2.01-2.05l42.29.24.2-.04c.1-.02.17-.04.32-.02h.07c3.22 0 6.26-1.25 8.55-3.52a12.08 12.08 0 0 0 3.61-8.58 12.09 12.09 0 0 0-3.51-8.63 12.09 12.09 0 0 0-9.73-3.56l-.19.01-53.23-.3a2 2 0 0 1-1.7-.98 17.4 17.4 0 0 1-.2-.35l-.14-.24a2 2 0 0 1 1.24-2.96l23.5-5.77c.15-.08.3-.14.48-.19a12.18 12.18 0 1 0-7.03-23.28l-57.2 14-.15.02a38.18 38.18 0 0 0-24.38 14.98c-3.12 3.44-9.37 9.34-16.28 10.45a1.99 1.99 0 0 1-2.51-1.76 2.02 2.02 0 0 1 1.7-2.17c5.72-.82 11.25-6.04 14.07-9.14A42.18 42.18 0 0 1 891 893.16l57.05-13.95a16.2 16.2 0 0 1 20.9 11.49 16.2 16.2 0 0 1-11.4 19.4c-.15.1-.32.16-.5.2l-10.6 2.61 39.64.23a16.06 16.06 0 0 1 12.83 4.74 16.07 16.07 0 0 1 4.67 11.46 16.06 16.06 0 0 1-5.8 12.32c3.79.34 7.3 2 10 4.73a16.07 16.07 0 0 1 4.68 11.46 16.2 16.2 0 0 1-14.87 16.03 16.16 16.16 0 0 1-9.18 28.4 16.06 16.06 0 0 1 5.66 12.38 16.06 16.06 0 0 1-4.8 11.42 16.05 16.05 0 0 1-10.95 4.66c-.16.05-.34.08-.52.08z"/><path fill="#FFF" d="M794.81 889.97h62.69v142.59h-62.69z"/><path fill="#010101" d="M55.81 901.79h128.74v128.73H55.81z"/><path fill="#FFD827" d="M160.06 966.16a39.88 39.88 0 1 1-79.76 0 39.88 39.88 0 0 1 79.76 0z"/><path fill="#FFF" d="M100.3 984.25a2 2 0 0 1-1.26-3.55l19.14-15.5v-30.3a2 2 0 0 1 4 0v31.26a2 2 0 0 1-.74 1.56l-19.88 16.09a2 2 0 0 1-1.26.44z"/><path fill="#010101" d="M154.65 903.12c0-8.77-7.11-15.88-15.89-15.88h-36.72a15.89 15.89 0 0 0-15.89 15.88"/></svg>