<svg xmlns="http://www.w3.org/2000/svg" viewBox="0 0 1524 777"><path fill="#fff" d="m162.62 776.4-29.58-79.91-63.84 56.44 23.04-82.04-84.82 8.14 66.86-52.82-73.4-43.28 85.14-3.43-33.95-78.16 70.9 47.27 18.47-83.19 29.58 79.92 63.84-56.45-23.04 82.04 84.82-8.13-66.86 52.82 73.4 43.27-85.14 3.44 33.95 78.15-70.9-47.26Zm-27.86-86.78 26.9 72.66 16.8-75.63 64.45 42.97-30.87-71.06 77.42-3.12-66.74-39.34 60.78-48.03-77.11 7.4 20.95-74.59-58.05 51.32-26.89-72.66-16.79 75.63-64.46-42.97 30.87 71.06-77.42 3.12 66.75 39.35-60.8 48.02 77.12-7.4-20.95 74.6ZM1492.8 65.18H505.87a30.98 30.98 0 0 0-30.97 30.97v606.9a30.97 30.97 0 0 0 30.97 30.97h986.91a30.97 30.97 0 0 0 30.98-30.98V96.14a30.97 30.97 0 0 0-30.98-30.96Zm1.26 642.96H501.69V88.68h992.37Z"/><path fill="#ffd829" d="M934.84 67.05H734.6v490.06h.55a80.1 80.1 0 0 0 160.22 0h.55V225.09h38.91Z"/><path fill="#ffd829" d="M814.42 637.23a80.4 80.4 0 0 1-79.82-70.77V66.63H158.03v570.6H734.6v-.13Z"/><path d="M814.42 639.23h-.26l-77.56-.12v.12H156.03V64.63H736.6v501.7a78.43 78.43 0 0 0 77.57 68.9h.25Zm-654.4-4H732.6v-.13l56.32.09a82.45 82.45 0 0 1-56.3-68.5l-.02-.23V68.63H160.03Z"/><path fill="#ffd829" d="M895.92 557.1c0 44.41-37.18 80.12-81.59 80.12"/><path d="M814.33 639.22v-4c43.89 0 79.59-35.04 79.59-78.11h4c0 45.27-37.5 82.1-83.59 82.1Z"/><path fill="#ffd829" d="M972.42 146.12c0 43.58-17.4 78.92-38.88 78.92-21.47 0-38.87-35.34-38.87-78.92 0-43.6 17.4-78.93 38.87-78.93s38.88 35.34 38.88 78.93Z"/><path d="M933.54 227.04c-11.18 0-21.58-8.6-29.28-24.23-7.48-15.18-11.6-35.31-11.6-56.7 0-21.38 4.12-41.5 11.6-56.68 7.7-15.63 18.1-24.24 29.28-24.24 11.19 0 21.59 8.6 29.29 24.24 7.47 15.17 11.6 35.3 11.6 56.69 0 21.38-4.13 41.51-11.6 56.69-7.7 15.62-18.1 24.23-29.29 24.23Zm0-157.85c-20.33 0-36.87 34.51-36.87 76.93 0 42.41 16.54 76.92 36.87 76.92 20.34 0 36.88-34.5 36.88-76.92s-16.54-76.93-36.88-76.93Z"/><path d="M958.6 146.12c0 28.09-11.22 50.86-25.06 50.86-13.83 0-25.05-22.77-25.05-50.86 0-28.1 11.22-50.86 25.05-50.86 13.84 0 25.06 22.77 25.06 50.86Z"/><path fill="#fff" d="M235.46 151.63h304.96v51.22H235.46Zm0 73.27h250.17v51.22H235.46Zm188.22 135.8h263.27v51.22H423.68Zm0 246.4h263.27v27.62H423.68Zm0-176.72h166.78v51.23H423.68Zm0 69.69h166.78v51.23H423.68Zm192.99-69.69h70.28v51.23h-70.28Z"/><path d="M893.92 165.92h4v391.19h-4Z"/><path d="M894.63 223.1h40.5v4h-40.5ZM736.29 65.25h199.19v4H736.29ZM630.15 143.3h4v164.39h-4Z"/><path fill="#fff" d="M674.62 143.3c0-6.08-2.97-11.45-7.53-14.78a18.26 18.26 0 0 0-20.89-20.89 18.26 18.26 0 0 0-29.54 0 18.26 18.26 0 0 0-20.88 20.9 18.25 18.25 0 0 0 0 29.53 18.26 18.26 0 0 0 20.88 20.9 18.26 18.26 0 0 0 29.54 0 18.27 18.27 0 0 0 20.9-20.9 18.27 18.27 0 0 0 7.52-14.77Z"/><path d="M598.04 220.96a40.77 40.77 0 0 0 34 6.6 40.76 40.76 0 0 0-16.71-30.32 40.78 40.78 0 0 0-33.99-6.6 40.77 40.77 0 0 0 16.7 30.32Zm68.22 0a40.77 40.77 0 0 1-34 6.6 40.76 40.76 0 0 1 16.72-30.32 40.77 40.77 0 0 1 33.99-6.6 40.77 40.77 0 0 1-16.71 30.32Zm-68.22 46.86a40.76 40.76 0 0 0 34 6.6 40.76 40.76 0 0 0-16.71-30.33 40.78 40.78 0 0 0-33.99-6.6 40.77 40.77 0 0 0 16.7 30.33Zm68.22 0a40.76 40.76 0 0 1-34 6.6 40.76 40.76 0 0 1 16.72-30.33 40.77 40.77 0 0 1 33.99-6.6 40.77 40.77 0 0 1-16.71 30.33Z"/><path fill="#ffd829" d="M651.19 143.61a19.06 19.06 0 1 1-38.12.02 19.06 19.06 0 0 1 38.12-.02Z"/><path d="M362.8 457.17h.01a36.43 36.43 0 0 1-7.84-30.15 38.21 38.21 0 1 0-75.1 0 36.43 36.43 0 0 1-7.84 30.15 59.16 59.16 0 1 0 90.77 0ZM155.65.34h581.33v69.3H155.65Z"/><path fill="#fff" d="M216.4 34.88a20.25 20.25 0 1 1-40.5 0 20.25 20.25 0 0 1 40.5 0Z"/><path fill="#ffd829" d="M266.43 34.88a20.25 20.25 0 1 1-40.5 0 20.25 20.25 0 0 1 40.5 0Z"/><path fill="#fff" d="M316.47 34.88a20.25 20.25 0 1 1-40.5 0 20.25 20.25 0 0 1 40.5 0Zm-19.27 340a26.11 26.11 0 0 0 21.78 4.23 26.1 26.1 0 0 0-10.7-19.43 26.11 26.11 0 0 0-21.79-4.23 26.13 26.13 0 0 0 10.7 19.43Zm43.7 0a26.13 26.13 0 0 1-21.78 4.23 26.12 26.12 0 0 1 10.7-19.43 26.11 26.11 0 0 1 21.79-4.23 26.14 26.14 0 0 1-10.7 19.43Zm-16.33 155.57a7.15 7.15 0 1 1-14.3.02 7.15 7.15 0 0 1 14.3-.02Zm11.91-22.24a7.15 7.15 0 1 1-14.3.02 7.15 7.15 0 0 1 14.3-.02Zm-23.83 0a7.15 7.15 0 1 1-14.29 0 7.15 7.15 0 0 1 14.3 0Z"/><path fill="#ffd829" d="M1010.66 90.69h483.49v615.25h-483.5Z"/><path d="M1492.15 92.69v611.25h-479.5V92.68Zm4-4h-487.5v619.25h487.5Z"/><path d="M1012.15 91.07h481.27v69.3h-481.27Z"/><path fill="#ffd829" d="m1010.66 90.49 449.51-46.34v615.23l-449.51 46.35Z"/><path d="M1458.17 46.36v611.22l-445.51 45.93V92.29Zm4-4.43-453.51 46.76v619.25l453.51-46.76Z"/><path d="m1459.45 113.6-447.3 46.76v-69.3l447.3-46.75Z"/><path fill="#ffd829" d="m1010.9 90.31 413.76-86.4v615.17l-413.75 86.4Z"/><path d="M1422.66 6.37v611.09l-409.75 85.56V91.94Zm4-4.92L1008.9 88.7v619.25l417.75-87.23Z"/><path d="m1423.93 73.13-411.53 87.23v-69.3l411.53-87.23Z"/><path fill="#fff" d="m1284.2 203.65-146.14 30.97V195.1l146.13-30.97Zm44.29 58.98-234.72 49.75v-39.52l234.72-49.76Zm-61.37 83.17-111.98 23.83v-39.52l111.98-23.83Zm0 250.17-111.98 23.82v-39.52l111.98-23.82Z"/><path d="M1156.78 515.67c2.73-6.27 1.83-14.64-4.45-18.74-3.12-2.03-6.6-2.05-9.9-4.47-5.9-4.33-13.64-10.97-10.8-19.22 5.76-16.8 25.32 4.05 33.47 4.1 7.04.04 8.31-6.08 12.24-10.29 3.6-3.85 9.56-6.54 14.91-6.03 5.1.48 7.97 5.9 13.52 5.15 4.83-.66 7.77-8.14 12.13-10.33 4.98-2.5 9.82-2.14 14.06.39 5.18 3.07 5.55 8.14 12.8 5.69 7.73-2.64 13.25-16.73 19.43-22.01 13.9-11.86 16.57 9.18 10.74 18.43-7.1 11.29-21.8 26.37-11 39.7 5.93 7.33 16.6 14.83 14.26 25.64-1.9 8.83-10.17 9.38-17.24 6.91-9.54-3.33-18.92-7.86-28.94-9.55-9.84-1.65-17.57 4.87-27.1 5.37-7.84.42-17.17.31-23.96 4.9-9.73 6.58-17.52 31.55-31.79 27.27-17.82-5.35 3.78-34.1 7.62-42.91ZM318.53 362.7a2 2 0 0 1-2-2 28.27 28.27 0 0 0-28.23-28.24 2 2 0 1 1 0-4 32.27 32.27 0 0 1 32.23 32.24 2 2 0 0 1-2 2Z"/><path fill="#ffd829" d="M1199.23 483.56c0 4.4-1.58 7.98-3.53 7.98-1.95 0-3.53-3.58-3.53-7.98 0-4.41 1.58-7.99 3.53-7.99 1.95 0 3.53 3.58 3.53 7.99Zm18.15-3.01c0 4.4-1.58 7.98-3.53 7.98-1.95 0-3.54-3.57-3.54-7.98s1.59-7.99 3.54-7.99 3.53 3.58 3.53 7.99Zm-12.53 20.21c-2.6 0-4.88-.81-6.22-1.62a2 2 0 0 1 2.04-3.43c.25.14 5.38 3.02 9.86-1.35a2 2 0 0 1 2.8 2.86 11.86 11.86 0 0 1-8.48 3.54Z"/><path fill="#fff" d="M1067.06 114.55c0 10.7-8.49 21.08-18.96 23.18-10.47 2.1-18.96-4.68-18.96-15.15s8.49-20.85 18.96-23.19c10.47-2.33 18.96 4.45 18.96 15.16Z"/><path fill="#ffd829" d="M1113.9 104.62c0 10.98-8.49 21.6-18.96 23.7-10.47 2.1-18.96-4.9-18.96-15.66s8.49-21.37 18.96-23.7c10.47-2.34 18.96 4.67 18.96 15.66Z"/><path fill="#fff" d="M1160.75 94.7c0 11.26-8.5 22.1-18.97 24.21-10.47 2.1-18.96-5.14-18.96-16.18s8.5-21.89 18.96-24.22c10.48-2.33 18.97 4.91 18.97 16.18Z"/></svg>