<svg xmlns="http://www.w3.org/2000/svg" viewBox="0 0 872 784"><path fill="#fff" d="M854.74 40.24H203.67c-15.28 0-24.43 9.15-24.43 20.44v402.35a20.43 20.43 0 0 0 20.44 20.43h651.06a20.43 20.43 0 0 0 20.43-20.43V60.68c0-11.29-9.15-20.44-16.43-20.44Zm-3.17 426.17h-650.7V57.75h650.7Z"/><path fill="#ffd829" d="M535.34 59.75h317.6v404.53h-317.6Z"/><path d="M850.93 61.75v400.53h-313.6V61.75Zm4-4h-321.6v408.53h321.6Z"/><path d="M535.64 59.33h317.5v45.71h-317.5Z"/><path fill="#ffd829" d="m535.34 59.56 295.18-30.43v404.5l-295.18 30.43Z"/><path d="M828.52 31.34v400.49l-291.18 30.02V61.36Zm4-4.43L533.34 57.76v408.52l299.18-30.84Z"/><path d="m830.72 74.2-295.08 30.84V59.33l295.08-30.85Z"/><path fill="#ffd829" d="M535.34 59.38 806.91 2.67V407.1l-271.58 56.7Z"/><path d="M804.92 5.13v400.35l-267.58 55.88V61Zm4-4.92L533.34 57.76v408.52l275.58-57.55Z"/><path d="m807.13 47.5-271.49 57.54V59.33L807.13 1.78Z"/><path fill="#fff" d="m715.1 132.93-96.4 20.44v-26.08l96.4-20.43Zm29.23 38.91-154.85 32.83V178.6l154.85-32.83Zm-40.49 54.88-73.87 15.71v-26.07l73.87-15.72Zm0 165.03-73.87 15.72V381.4l73.87-15.71Z"/><path d="M631.05 338.78c1.8-4.14 1.2-9.66-2.93-12.36-2.06-1.35-4.36-1.36-6.53-2.96-3.9-2.85-9-7.23-7.13-12.67 3.8-11.08 16.7 2.66 22.08 2.7 4.64.02 5.48-4 8.07-6.78 2.38-2.54 6.31-4.32 9.84-3.99 3.36.32 5.26 3.9 8.92 3.4 3.19-.43 5.12-5.37 8-6.81a9.26 9.26 0 0 1 9.28.25c3.42 2.03 3.66 5.38 8.44 3.76 5.1-1.74 8.74-11.04 12.82-14.52 9.16-7.82 10.93 6.06 7.08 12.16-4.68 7.44-14.38 17.4-7.26 26.19 3.92 4.84 10.96 9.78 9.41 16.92-1.26 5.82-6.7 6.18-11.37 4.55-6.3-2.2-12.48-5.18-19.1-6.3-6.49-1.09-11.59 3.21-17.87 3.55-5.17.27-11.33.2-15.8 3.23-6.43 4.34-11.57 20.81-20.98 18-11.75-3.54 2.5-22.51 5.03-28.32Z"/><path fill="#ffd829" d="M659.06 317.6c0 2.9-1.05 5.26-2.33 5.26-1.3 0-2.33-2.36-2.33-5.27 0-2.9 1.04-5.26 2.33-5.26 1.28 0 2.33 2.35 2.33 5.26Zm11.97-2c0 2.91-1.05 5.27-2.33 5.27-1.29 0-2.33-2.36-2.33-5.26 0-2.91 1.04-5.27 2.33-5.27 1.28 0 2.33 2.36 2.33 5.27Zm-8.26 14.02c-1.86 0-3.5-.58-4.46-1.16a2 2 0 0 1 2.04-3.44 4.73 4.73 0 0 0 5.68-.79 2 2 0 0 1 2.8 2.86 8.48 8.48 0 0 1-6.06 2.53Z"/><path fill="#fff" d="M571.86 74.16c0 7.06-5.6 13.9-12.5 15.3-6.91 1.38-12.52-3.1-12.52-10 0-6.91 5.6-13.76 12.51-15.3 6.91-1.54 12.51 2.94 12.51 10Z"/><path fill="#ffd829" d="M602.76 67.6c0 7.25-5.6 14.26-12.5 15.64-6.91 1.4-12.51-3.24-12.51-10.33 0-7.1 5.6-14.1 12.5-15.64 6.91-1.54 12.51 3.09 12.51 10.34Z"/><path fill="#fff" d="M633.67 61.06c0 7.43-5.6 14.59-12.51 15.97-6.9 1.4-12.51-3.39-12.51-10.67 0-7.28 5.6-14.44 12.5-15.98 6.92-1.54 12.52 3.24 12.52 10.68ZM351.8 339.67l.38-60.77-56.82 21.59 36.04-48.95-58.66-15.92 57.93-18.42-38.1-47.36 57.69 19.14-2.98-60.7 35.41 49.4 33.27-50.87-.38 60.78 56.81-21.6-36.03 48.95 58.66 15.93-57.93 18.42 38.1 47.36-57.69-19.15 2.98 60.7-35.41-49.39Zm4.41-66.59-.33 53.04 29.04-44.39 30.9 43.11-2.6-52.98 50.34 16.71-33.24-41.33 50.54-16.07-51.18-13.9 31.44-42.71-49.58 18.84.34-53.04-29.04 44.39-30.9-43.1 2.6 52.97-50.34-16.71 33.24 41.33-50.55 16.07 51.19 13.9-31.45 42.71Z"/><path fill="#ffd829" d="M435.42 781.8a53.04 53.04 0 0 1-52.66-46.7V285.38H2.4V781.8h380.36v-.07Z"/><path d="M435.42 783.8h-.17l-50.56-.08-1.93.07H.4V283.37h384.36V735a51.06 51.06 0 0 0 50.47 44.8h.19Zm-431.02-4h376.36v-.09l33.98.05a55.06 55.06 0 0 1-33.96-44.41l-.02-.24V287.37H4.4Z"/><path d="M435.36 783.8v-4a51.1 51.1 0 0 0 51.05-51.06h4a55.1 55.1 0 0 1-55.05 55.05Z"/><path fill="#ffd829" d="M539.65 577.81c0 28.76-11.48 52.07-25.64 52.07-14.17 0-25.65-23.31-25.65-52.07 0-28.75 11.48-52.06 25.65-52.06 14.16 0 25.64 23.3 25.64 52.06Z"/><path d="M514 631.88c-15.5 0-27.64-23.75-27.64-54.07 0-30.31 12.14-54.06 27.64-54.06s27.65 23.75 27.65 54.06c0 30.32-12.14 54.07-27.64 54.07Zm0-104.13c-12.81 0-23.64 22.92-23.64 50.06s10.83 50.06 23.64 50.06c12.82 0 23.65-22.92 23.65-50.06s-10.83-50.06-23.64-50.06Z"/><path d="M530.53 577.81c0 18.53-7.4 33.55-16.52 33.55-9.13 0-16.53-15.02-16.53-33.55 0-18.53 7.4-33.55 16.52-33.55 9.13 0 16.53 15.02 16.53 33.55Z"/><path fill="#fff" d="M53.48 341.45h201.18v33.79H53.48Zm0 48.33h165.04v33.8H53.48Zm124.17 99.59h173.68v33.8H177.65ZM53.48 717.07h297.85v33.79H53.48Zm0 47.83h297.85v14.6H53.48Zm124.17-228.92h110.02v33.8H177.65Zm0 93.22h156.48V663H177.65Zm0-46.6h110.02v33.78H177.65Zm127.31-47.26h46.37v33.8h-46.37Z"/><path d="M486.4 581.52h4V729.7h-4Z"/><path d="M488.33 627.91h26.72v4h-26.71ZM383.88 523.78h131.4v4h-131.4Zm-70.7-187.83h4V444.4h-4Z"/><path fill="#fff" d="M343.2 335.95c0-4.01-1.97-7.55-4.97-9.75a12.04 12.04 0 0 0-13.78-13.78 12.05 12.05 0 0 0-19.49 0 12.05 12.05 0 0 0-13.78 13.78 12.04 12.04 0 0 0 0 19.49 12.05 12.05 0 0 0 13.78 13.78 12.04 12.04 0 0 0 19.49 0 12.04 12.04 0 0 0 13.78-13.78c3-2.2 4.96-5.74 4.96-9.74Z"/><path d="M291.68 387.18a26.9 26.9 0 0 0 22.42 4.36 26.9 26.9 0 0 0-11.02-20 26.89 26.89 0 0 0-22.42-4.36c.51 7.7 4.3 15.11 11.02 20Zm47 0a26.89 26.89 0 0 1-22.43 4.36 26.9 26.9 0 0 1 11.02-20 26.89 26.89 0 0 1 22.43-4.36 26.9 26.9 0 0 1-11.02 20Zm-47 30.92a26.9 26.9 0 0 0 22.42 4.35 26.9 26.9 0 0 0-11.02-20 26.88 26.88 0 0 0-22.42-4.36c.51 7.7 4.3 15.11 11.02 20Zm47 0a26.9 26.9 0 0 1-22.43 4.35 26.9 26.9 0 0 1 11.02-20 26.89 26.89 0 0 1 22.43-4.36 26.9 26.9 0 0 1-11.02 20Z"/><path fill="#ffd829" d="M327.73 336.16a12.57 12.57 0 1 1-25.14 0 12.57 12.57 0 0 1 25.14 0Z"/><path d="M.83 241.64h383.5v45.71H.83Z"/><path fill="#ffd829" d="M73.91 264.43a13.36 13.36 0 1 1-26.72 0 13.36 13.36 0 0 1 26.72 0Zm33.01 0a13.36 13.36 0 1 1-26.72 0 13.36 13.36 0 0 1 26.72 0Z"/><path fill="#fff" d="M40.9 264.43a13.36 13.36 0 1 1-26.71 0 13.36 13.36 0 0 1 26.72 0Z"/><path d="M139.84 587.33a28.96 28.96 0 0 1-6.24-23.96 30.37 30.37 0 1 0-59.68 0 28.96 28.96 0 0 1-6.24 23.96 47.02 47.02 0 1 0 72.15 0Z"/><path fill="#fff" d="M87.69 521.92a20.76 20.76 0 0 0 17.3 3.37 20.75 20.75 0 0 0-8.5-15.45 20.77 20.77 0 0 0-17.31-3.36 20.77 20.77 0 0 0 8.5 15.44Zm34.74 0a20.77 20.77 0 0 1-17.32 3.37 20.74 20.74 0 0 1 8.52-15.45 20.77 20.77 0 0 1 17.3-3.36 20.79 20.79 0 0 1-8.5 15.44Zm-12.99 123.65a5.68 5.68 0 1 1-11.36 0 5.68 5.68 0 0 1 11.36 0Zm9.47-17.67a5.68 5.68 0 1 1-11.36 0 5.68 5.68 0 0 1 11.36 0Zm-18.93 0a5.68 5.68 0 1 1-11.37 0 5.68 5.68 0 0 1 11.37 0Z"/><path d="M104.65 512.65a2 2 0 0 1-2-2 22.06 22.06 0 0 0-22.04-22.03 2 2 0 0 1 0-4 26.06 26.06 0 0 1 26.04 26.03 2 2 0 0 1-2 2Z"/></svg>