<svg xmlns="http://www.w3.org/2000/svg" xmlns:xlink="http://www.w3.org/1999/xlink" viewBox="0 0 1920 1080" xml:space="preserve"><path fill="#FFF" d="M0 1075.766h1920v4H0z"/><path d="M1512.757 520.943h4v351.768h-4zM416.393 201.782h4v276.643h-4z"/><defs><path id="a" d="M529.961 535.829c33.88 17.939 46.803 59.947 28.864 93.827l-10.394 19.63c-17.939 33.88-59.946 46.803-93.827 28.864L179.956 533.482c-33.88-17.939-46.803-59.946-28.864-93.827l10.394-19.63c17.939-33.88 59.947-46.803 93.827-28.864l274.648 144.668z"/></defs><use xlink:href="#a" overflow="visible" fill-rule="evenodd" clip-rule="evenodd" fill="#FFF"/><path d="M200.043 475.199c3.846 2.037 5.401 6.307 3.466 9.96-1.935 3.655-6.341 4.77-10.187 2.732-3.847-2.036-5.402-6.307-3.466-9.962 1.934-3.652 6.341-4.766 10.187-2.73z"/><path fill="#FFF" d="M197.252 488.976c-1.333 0-2.693-.344-3.965-1.018-1.887-.999-3.285-2.566-3.937-4.416-.658-1.864-.501-3.87.439-5.647 1.935-3.654 6.358-4.844 10.289-2.762 3.929 2.081 5.433 6.407 3.498 10.062-.941 1.777-2.512 3.034-4.424 3.538a7.444 7.444 0 0 1-1.9.243zm-1.138-14.713c-2.573 0-4.926 1.312-6.192 3.702-.921 1.74-1.074 3.703-.431 5.527.64 1.813 2.012 3.353 3.866 4.333 1.853.98 3.896 1.25 5.756.763 1.871-.493 3.409-1.724 4.33-3.464 1.896-3.579.418-7.817-3.435-9.858-1.28-.678-2.614-1.003-3.894-1.003z"/><path d="M248.146 510.148c4.615 2.445 10.198 3.06 15.921 1.784 1.958-.443 3.179-.657 4.622.106 1.346.713 1.985 2.529 1.272 3.875-.764 1.443-1.895 1.952-3.948 2.341-6.211 1.268-13.938.747-20.668-2.818-12.404-6.568-17.189-20.55-10.52-33.147 6.67-12.596 20.924-16.499 33.329-9.931 6.73 3.565 11.504 9.662 13.948 15.51.831 1.919 1.047 3.14.283 4.582-.713 1.347-2.575 1.838-3.92 1.125-1.443-.763-1.952-1.895-2.687-3.761-2.16-5.455-5.808-9.725-10.423-12.17-8.27-4.378-19.418-2.155-24.663 7.749-5.244 9.905-.816 20.377 7.454 24.755z"/><path fill="#FFF" d="M259.677 518.965c-5.053 0-10.067-1.185-14.366-3.462-6.064-3.211-10.485-8.309-12.449-14.355-1.987-6.119-1.313-12.828 1.898-18.893 3.211-6.064 8.382-10.394 14.56-12.189 6.103-1.773 12.806-.983 18.871 2.228 6.11 3.235 11.206 8.902 13.982 15.547.799 1.847 1.081 3.134.28 4.646-.347.654-.991 1.154-1.769 1.372-.768.216-1.589.136-2.252-.215-1.472-.779-1.993-1.951-2.722-3.8-2.173-5.487-5.765-9.682-10.389-12.131-4.099-2.171-8.987-2.707-13.411-1.476-4.752 1.323-8.712 4.588-11.15 9.193-2.438 4.604-2.913 9.714-1.336 14.389 1.468 4.353 4.661 8.093 8.759 10.263 4.62 2.447 10.108 3.062 15.87 1.777 1.937-.438 3.198-.666 4.673.113 1.418.751 2.027 2.609 1.304 3.976-.802 1.515-2.025 2.005-4 2.38a31.803 31.803 0 0 1-6.353.637zm-3.794-49.676a23.32 23.32 0 0 0-6.521.921c-6.138 1.784-11.277 6.087-14.469 12.115s-3.862 12.696-1.888 18.776c1.952 6.009 6.347 11.076 12.376 14.269 6.079 3.22 13.595 4.245 20.618 2.812 1.931-.367 3.124-.843 3.897-2.304.674-1.273.083-3.071-1.241-3.772-1.428-.756-2.667-.53-4.57-.1-5.797 1.292-11.321.673-15.973-1.791-4.132-2.188-7.351-5.959-8.831-10.348-1.59-4.714-1.112-9.865 1.346-14.507 2.458-4.642 6.451-7.933 11.243-9.268 4.46-1.243 9.389-.7 13.521 1.487 4.655 2.466 8.271 6.688 10.458 12.209.716 1.816 1.227 2.968 2.652 3.722.629.334 1.411.406 2.142.203.738-.206 1.35-.68 1.677-1.298.773-1.459.496-2.713-.285-4.517-2.763-6.614-7.834-12.254-13.914-15.474-3.925-2.076-8.117-3.135-12.238-3.135z"/><path d="M309.76 474.937c-2.115-1.12-2.613-2.738-1.748-4.372.814-1.539 2.432-2.036 4.548-.915l17.212 9.113c1.923 1.018 2.467 2.781 1.448 4.706l-28.867 54.519c3.609 1.788 13.281 6.539 15.204 7.558 2.117 1.12 2.613 2.738 1.799 4.277-.865 1.634-2.483 2.131-4.599 1.012l-36.251-19.195c-2.115-1.12-2.613-2.738-1.748-4.372.815-1.538 2.433-2.037 4.548-.916 1.731.917 12.443 6.959 15.374 8.632l27.9-52.693c-3.704-1.839-13.281-6.54-14.82-7.354z"/><path fill="#FFF" d="M316.87 551.512c-.652 0-1.376-.201-2.149-.61l-36.251-19.194c-2.058-1.091-2.707-2.722-1.779-4.475.883-1.668 2.621-2.021 4.65-.947 1.716.909 12.171 6.805 15.309 8.595l27.828-52.557c-1.144-.568-2.819-1.395-4.639-2.293-4.242-2.093-9.049-4.464-10.113-5.027-1.047-.555-1.729-1.238-2.027-2.033-.283-.755-.197-1.6.248-2.44.422-.798 1.057-1.314 1.835-1.492.828-.19 1.772-.005 2.814.546l17.212 9.113c.961.509 1.606 1.221 1.864 2.058.257.837.125 1.788-.385 2.75l-28.832 54.45 3.389 1.675c4.341 2.142 10.286 5.075 11.747 5.851 1.042.552 1.726 1.231 2.033 2.021.29.744.219 1.56-.203 2.358-.58 1.092-1.466 1.651-2.551 1.651zm-37.707-25.698c-1.005 0-1.817.503-2.339 1.489-.883 1.669-.258 3.226 1.716 4.271l36.251 19.194c1.975 1.046 3.615.688 4.497-.98.402-.759.47-1.531.196-2.233-.294-.755-.955-1.408-1.964-1.942-1.459-.774-7.403-3.707-11.743-5.85-1.375-.679-2.592-1.278-3.458-1.708l-.069-.034.036-.068 28.868-54.519c.491-.926.62-1.838.374-2.636s-.865-1.479-1.791-1.969l-17.212-9.113c-1.009-.535-1.92-.713-2.71-.533-.734.169-1.334.658-1.736 1.417-.431.813-.512 1.594-.24 2.317.285.76.943 1.417 1.957 1.953 1.062.562 5.869 2.934 10.109 5.026 1.857.916 3.564 1.758 4.709 2.326l.069.034-.036.068-27.937 52.762-.067-.038c-3.052-1.742-13.645-7.716-15.372-8.631-.764-.403-1.474-.603-2.108-.603z"/><path d="M334.348 545.696c4.327-8.173 15.052-8.896 24.861-3.703 5.384 2.852 10.298 7.055 12.669 11.879l1.883-3.557c3.819-7.212 1.506-14.47-7.436-19.204-3.27-1.732-6.94-2.936-11.466-2.993-1.458-.034-3.507.113-4.757-.548-1.731-.917-2.177-2.63-1.312-4.264.763-1.443 2.427-1.794 4.763-1.788 3.213-.023 9.514 1.099 15.573 4.305 12.596 6.67 16.272 16.003 10.264 27.349l-12.117 22.886c-1.019 1.923-2.591 2.569-4.418 1.6-1.634-.865-2.177-2.63-1.159-4.553l.51-.962c-5.323.754-11.562-.95-16.947-3.801-9.809-5.195-15.239-14.472-10.911-22.646zm33.078 17.513c2.494-4.711-.814-11.018-9.18-15.447-8.365-4.429-15.441-3.621-17.936 1.09-2.496 4.712.814 11.02 9.179 15.449s15.442 3.621 17.937-1.092z"/><path fill="#FFF" d="M364.464 578.172c-.523 0-1.076-.147-1.645-.449-1.734-.918-2.201-2.745-1.19-4.655l.441-.833c-4.89.649-11.021-.742-16.847-3.828-4.908-2.599-8.739-6.234-10.788-10.236-2.179-4.258-2.232-8.583-.153-12.51 2.079-3.926 5.686-6.312 10.432-6.902 4.465-.553 9.622.569 14.53 3.168 5.825 3.085 10.421 7.372 12.636 11.781l1.815-3.428c1.898-3.586 2.266-7.206 1.063-10.471-1.243-3.372-4.17-6.357-8.468-8.632-3.75-1.985-7.382-2.934-11.432-2.984-.268-.007-.555-.007-.853-.007-1.36-.001-2.902-.002-3.938-.551-.856-.453-1.432-1.113-1.666-1.908-.229-.776-.117-1.626.323-2.457.855-1.616 2.82-1.838 4.83-1.829h.087c2.778 0 9.076.904 15.521 4.314 6.312 3.343 10.397 7.366 12.143 11.961 1.762 4.635 1.14 9.847-1.847 15.489l-12.117 22.886c-.729 1.371-1.733 2.081-2.877 2.081zm-2.124-6.126-.579 1.092c-.968 1.829-.525 3.577 1.128 4.452 1.755.931 3.288.373 4.317-1.569l12.117-22.886c2.966-5.603 3.585-10.772 1.84-15.366-1.732-4.559-5.794-8.557-12.073-11.881-6.418-3.396-12.686-4.298-15.45-4.298l-.139.001c-2.642 0-3.988.508-4.645 1.749-.421.795-.529 1.606-.312 2.345.222.755.773 1.384 1.593 1.817 1.004.532 2.525.533 3.868.533.299.001.587.001.855.007 4.074.051 7.728 1.005 11.5 3.002 4.331 2.292 7.283 5.306 8.539 8.713 1.218 3.306.847 6.969-1.071 10.593l-1.952 3.687-.065-.132c-2.176-4.428-6.781-8.745-12.637-11.846-4.881-2.584-10.01-3.702-14.441-3.152-4.695.584-8.263 2.943-10.317 6.824l-.066-.035.066.035c-2.055 3.881-2.002 8.159.154 12.371 2.035 3.975 5.843 7.588 10.724 10.172 5.857 3.103 12.018 4.484 16.901 3.793l.145-.021zm-2.684-4.751c-3.062 0-6.564-1.002-10.202-2.928-4.044-2.141-7.05-4.785-8.692-7.647-1.578-2.748-1.762-5.555-.519-7.903 1.244-2.348 3.668-3.772 6.828-4.012 3.285-.249 7.166.751 11.21 2.891 4.044 2.142 7.05 4.786 8.692 7.647 1.578 2.748 1.762 5.554.519 7.901-1.243 2.349-3.668 3.773-6.828 4.014-.33.025-.666.037-1.008.037zm-11.577-22.378c-.338 0-.67.013-.997.037-3.106.235-5.488 1.632-6.706 3.933-1.219 2.301-1.036 5.057.516 7.759 1.629 2.837 4.614 5.461 8.633 7.589 4.019 2.128 7.866 3.113 11.129 2.874 3.106-.236 5.488-1.634 6.706-3.935s1.035-5.055-.516-7.757c-1.629-2.837-4.614-5.461-8.633-7.589-3.616-1.915-7.095-2.911-10.132-2.911z"/><path d="M384.373 583.757c-1.458-2.127-1.911-3.598-1.045-5.233.814-1.539 2.578-2.079 4.117-1.264 1.634.865 2.325 2.584 3.547 4.462 2.302 3.558 6.25 7.494 11.539 10.295 8.846 4.684 14.514 3.745 16.601-.197 2.393-4.52-1.075-8.201-9.978-14.639-9.813-7.044-16.035-13.661-11.809-21.642 4.429-8.366 14.571-7.058 23.514-2.324 5.576 2.954 10.633 7.353 13.603 11.513.99 1.385 1.352 2.562.588 4.004-.764 1.443-2.483 2.131-4.118 1.266-1.058-.559-1.861-1.599-2.523-2.443-3.071-3.966-6.069-6.907-10.491-9.249-6.923-3.666-12.71-3.897-14.848.14-2.292 4.328 2.425 8.672 9.988 14.153 11.2 8.146 16.227 13.763 11.951 21.84-4.378 8.27-14.361 8.524-25.227 2.77-7.117-3.767-12.257-8.706-15.409-13.452z"/><path fill="#FFF" d="M413.368 601.219c-4.047 0-8.72-1.349-13.622-3.943-6.45-3.415-11.932-8.202-15.435-13.478-1.345-1.961-1.989-3.533-1.049-5.31.403-.762 1.054-1.312 1.831-1.552.777-.238 1.625-.147 2.387.256 1.276.676 1.981 1.856 2.797 3.224.244.409.496.832.777 1.264 2.61 4.035 6.806 7.778 11.511 10.27 8.026 4.251 14.194 4.187 16.5-.165 1.171-2.211.94-4.222-.747-6.521-1.515-2.064-4.183-4.389-9.208-8.022-5.736-4.117-9.187-7.353-11.188-10.49-2.426-3.803-2.637-7.482-.643-11.248 2.074-3.917 5.482-5.975 10.129-6.114.167-.006.334-.008.503-.008 3.842 0 8.318 1.297 12.984 3.767 5.43 2.877 10.525 7.189 13.628 11.535 1.124 1.573 1.296 2.756.593 4.083a3.154 3.154 0 0 1-1.775 1.535c-.788.265-1.657.179-2.444-.238-1.051-.556-1.859-1.586-2.509-2.414l-.039-.049c-3.437-4.438-6.469-7.111-10.467-9.229-3.45-1.827-6.626-2.799-9.184-2.811h-.044c-2.6 0-4.507 1.009-5.519 2.92-2.188 4.131 1.998 8.282 9.966 14.057 11.295 8.215 16.248 13.863 11.973 21.937-2.106 3.978-5.647 6.289-10.241 6.684-.478.039-.967.06-1.465.06zm-27.402-24.263c-.281 0-.559.041-.829.124-.739.228-1.358.752-1.742 1.479-.792 1.496-.511 2.894 1.041 5.156v.001c3.489 5.255 8.952 10.023 15.38 13.427 5.479 2.901 10.667 4.244 15.005 3.865 4.54-.39 8.04-2.674 10.121-6.604 4.224-7.977-.703-13.581-11.928-21.745-8.035-5.822-12.25-10.021-10.011-14.248 1.04-1.963 2.993-2.999 5.651-2.999h.045c2.582.011 5.781.989 9.253 2.827 4.019 2.128 7.065 4.813 10.515 9.27l.038.049c.641.816 1.438 1.833 2.461 2.373.751.397 1.578.48 2.326.229a2.996 2.996 0 0 0 1.69-1.463c.786-1.482.335-2.642-.583-3.925-3.09-4.328-8.166-8.624-13.577-11.49-4.644-2.459-9.096-3.75-12.913-3.75-.168 0-.334.003-.5.008-4.589.139-7.954 2.169-10 6.035-1.966 3.714-1.758 7.344.637 11.098 1.991 3.12 5.43 6.343 11.15 10.449 5.039 3.644 7.716 5.978 9.241 8.055 1.726 2.352 1.959 4.411.759 6.68-2.35 4.437-8.593 4.521-16.703.228-4.727-2.503-8.943-6.265-11.566-10.32a35.79 35.79 0 0 1-.78-1.269c-.805-1.348-1.5-2.513-2.739-3.168a3.042 3.042 0 0 0-1.442-.372z"/><path d="M435.724 610.946c-1.459-2.127-1.912-3.598-1.046-5.234.814-1.539 2.579-2.08 4.117-1.264 1.635.866 2.326 2.583 3.547 4.462 2.302 3.559 6.25 7.494 11.539 10.295 8.846 4.684 14.514 3.746 16.601-.196 2.393-4.519-1.074-8.202-9.976-14.64-9.814-7.042-16.036-13.66-11.81-21.641 4.429-8.366 14.571-7.058 23.514-2.325 5.578 2.953 10.634 7.354 13.603 11.512.99 1.386 1.353 2.562.588 4.004-.763 1.443-2.483 2.132-4.117 1.266-1.058-.56-1.862-1.6-2.523-2.443-3.071-3.966-6.069-6.907-10.492-9.25-6.923-3.666-12.71-3.897-14.848.14-2.291 4.328 2.426 8.673 9.989 14.153 11.2 8.146 16.227 13.764 11.951 21.841-4.379 8.27-14.362 8.523-25.228 2.77-7.117-3.765-12.259-8.704-15.409-13.45z"/><path fill="#FFF" d="M464.717 628.408c-4.047 0-8.72-1.349-13.622-3.943-6.451-3.416-11.932-8.202-15.434-13.478-1.345-1.961-1.99-3.534-1.05-5.31.403-.762 1.054-1.313 1.832-1.552.777-.239 1.625-.147 2.387.256 1.277.676 1.982 1.857 2.798 3.227.244.407.496.829.776 1.261 2.609 4.034 6.805 7.777 11.511 10.27 8.027 4.25 14.195 4.188 16.5-.165 1.171-2.211.94-4.222-.747-6.521-1.515-2.064-4.182-4.389-9.208-8.023-5.736-4.116-9.187-7.351-11.189-10.488-2.427-3.803-2.637-7.482-.643-11.248 2.074-3.917 5.482-5.974 10.128-6.114.167-.005.334-.008.503-.008 3.842 0 8.317 1.297 12.984 3.767 5.43 2.875 10.525 7.188 13.628 11.535 1.125 1.573 1.296 2.756.593 4.083a3.149 3.149 0 0 1-1.774 1.535c-.788.264-1.656.18-2.444-.237-1.053-.558-1.86-1.588-2.51-2.416l-.038-.048c-3.437-4.438-6.469-7.111-10.468-9.229-3.45-1.827-6.626-2.799-9.184-2.811h-.044c-2.6 0-4.507 1.009-5.519 2.92-2.187 4.131 1.998 8.282 9.966 14.057 11.295 8.216 16.248 13.863 11.973 21.937-2.106 3.978-5.648 6.289-10.241 6.684-.476.039-.965.059-1.464.059zm-27.401-24.262c-.281 0-.559.041-.829.124-.739.227-1.358.752-1.743 1.479-.793 1.496-.51 2.894 1.042 5.156v.001c3.488 5.254 8.95 10.022 15.379 13.427 5.479 2.9 10.671 4.243 15.005 3.865 4.541-.39 8.041-2.674 10.122-6.604 4.223-7.976-.704-13.58-11.928-21.745-8.035-5.822-12.249-10.021-10.011-14.248 1.039-1.963 2.993-2.999 5.651-2.999h.045c2.582.011 5.782.989 9.253 2.827 4.019 2.128 7.065 4.813 10.516 9.27l.038.048c.64.816 1.438 1.833 2.462 2.375.751.397 1.577.479 2.326.228a2.991 2.991 0 0 0 1.689-1.463c.786-1.482.335-2.641-.583-3.925-3.091-4.33-8.166-8.626-13.577-11.49-4.645-2.458-9.096-3.749-12.913-3.749-.167 0-.333.002-.499.008-4.589.138-7.954 2.168-10 6.034-1.967 3.714-1.759 7.344.637 11.097 1.991 3.121 5.43 6.344 11.15 10.448 5.039 3.645 7.716 5.979 9.241 8.056 1.726 2.353 1.959 4.412.758 6.681-2.349 4.438-8.594 4.521-16.703.228-4.728-2.504-8.944-6.266-11.566-10.32a37.159 37.159 0 0 1-.778-1.267c-.805-1.349-1.5-2.514-2.74-3.17a3.044 3.044 0 0 0-1.444-.372z"/><path fill-rule="evenodd" clip-rule="evenodd" d="M620.223 552.774c0 111.794-90.627 202.421-202.421 202.421s-202.421-90.627-202.421-202.421h404.842z"/><path d="M618.292 554.774a1.997 1.997 0 0 1-1.74-1.011L418.475 205.818 219.474 553.767a1.999 1.999 0 1 1-3.472-1.986L416.743 200.79a2 2 0 0 1 1.736-1.007h.002a2 2 0 0 1 1.736 1.011l199.811 350.991a2.001 2.001 0 0 1-1.736 2.989z"/><defs><path id="b" d="M1785.946 577.116c27.208-27.007 71.158-26.844 98.165.365l15.648 15.765c27.007 27.208 26.844 71.158-.365 98.165l-362.591 359.905c-27.208 27.007-71.158 26.844-98.165-.365l-15.648-15.765c-27.007-27.208-26.844-71.158.365-98.165l362.591-359.905z"/></defs><use xlink:href="#b" overflow="visible" fill-rule="evenodd" clip-rule="evenodd" fill="#FFF"/><path d="M1509.888 976.291c-9.972-10.185-10.675-23.655-1.191-32.943 4.432-4.338 10.458-6.736 16.445-5.443l-19.867-20.291c-1.522-1.555-1.503-3.402-.181-4.695 1.478-1.446 3.246-1.351 4.768.205l46.205 47.19c1.523 1.555 1.503 3.401.181 4.695-1.476 1.446-3.246 1.351-4.769-.204l-2.893-2.955c1.321 6.015-1.357 11.989-5.789 16.327-9.483 9.287-22.937 8.298-32.909-1.886zm27.445-26.869c-7.688-7.852-17.453-8.648-24.216-2.026-6.763 6.622-6.173 16.401 1.515 24.252 7.688 7.852 17.451 8.648 24.214 2.025 6.763-6.622 6.174-16.399-1.513-24.251z"/><path fill="#FFF" d="M1527.833 984.651c-.435 0-.872-.014-1.312-.041-5.899-.365-11.826-3.302-16.688-8.267-4.861-4.966-7.672-10.952-7.912-16.857-.247-6.044 2.078-11.644 6.723-16.192 4.665-4.565 10.724-6.621 16.272-5.512l-19.695-20.115c-1.511-1.545-1.581-3.43-.18-4.802.702-.687 1.494-1.047 2.3-1.047l.124.003c.84.038 1.688.471 2.45 1.25l46.205 47.189c.749.766 1.157 1.629 1.179 2.496.021.849-.325 1.646-.999 2.306-.701.688-1.494 1.048-2.299 1.048-.042 0-.083-.001-.124-.003-.841-.039-1.688-.471-2.452-1.25l-2.713-2.771c1.113 5.528-1.014 11.398-5.862 16.145-4.306 4.217-9.474 6.42-15.017 6.42zm-5.917-47.012c-4.62 0-9.361 2.038-13.166 5.763-4.614 4.519-6.924 10.078-6.679 16.079.239 5.867 3.034 11.819 7.87 16.758 4.836 4.939 10.727 7.859 16.589 8.223 5.989.372 11.602-1.819 16.215-6.337 4.886-4.781 6.987-10.707 5.769-16.258l-.056-.255 3.075 3.141c.736.752 1.549 1.169 2.352 1.206l.116.002c.766 0 1.521-.346 2.194-1.005.645-.63.974-1.389.954-2.194-.021-.829-.413-1.657-1.136-2.395l-46.205-47.189c-.735-.752-1.548-1.169-2.35-1.206-.795-.035-1.604.309-2.312 1.002-1.337 1.308-1.266 3.109.182 4.589l20.042 20.47-.244-.053a15.108 15.108 0 0 0-3.21-.341zm6.426 40.577c-.418 0-.839-.018-1.264-.053-4.396-.365-8.719-2.6-12.501-6.463-7.726-7.891-8.334-17.68-1.514-24.358 6.822-6.679 16.596-5.864 24.322 2.027 7.725 7.891 8.333 17.679 1.513 24.357-3.015 2.953-6.642 4.49-10.556 4.49zm-4.698-35.223c-3.785 0-7.428 1.473-10.475 4.456-6.757 6.616-6.147 16.319 1.516 24.146 3.757 3.838 8.047 6.057 12.406 6.419 4.354.359 8.397-1.159 11.702-4.395 6.757-6.616 6.147-16.319-1.515-24.145-4.208-4.297-9.026-6.481-13.634-6.481z"/><path d="M1599.384 916.837c1.294 1.321 1.276 3.013-.434 4.689l-27.599 27.022c-1.71 1.674-3.403 1.657-4.697.335-1.218-1.244-1.2-2.937.51-4.612 2.099-2.056 9.636-8.977 13.521-12.629l-24.662-25.189c-3.422 3.503-10.813 11.196-12.135 12.489-1.71 1.676-3.403 1.657-4.697.335-1.218-1.244-1.199-2.935.511-4.61l14.539-14.233c1.555-1.523 3.4-1.504 4.924.051l26.108 26.666c2.023-2.134 7.392-7.847 9.492-9.902 1.707-1.675 3.402-1.656 4.619-.412zm-61.459-23.424c-2.588-2.644-2.165-6.255.635-8.995 2.798-2.741 6.418-3.087 9.006-.443 2.588 2.642 2.165 6.255-.633 8.996-2.8 2.74-6.42 3.084-9.008.442z"/><path fill="#FFF" d="M1568.715 949.917c-.753 0-1.473-.326-2.115-.981-1.319-1.35-1.128-3.113.512-4.718 1.264-1.238 4.546-4.283 7.72-7.228 2.067-1.919 4.204-3.901 5.746-5.351l-24.555-25.08c-1.394 1.428-3.445 3.549-5.43 5.601-3.019 3.121-5.869 6.068-6.652 6.836-.847.829-1.705 1.271-2.554 1.312a2.69 2.69 0 0 1-.127.003c-.761 0-1.492-.337-2.123-.981-1.318-1.347-1.127-3.11.512-4.717l14.539-14.232c1.593-1.56 3.473-1.539 5.03.052l26.053 26.61 1.234-1.305c2.417-2.557 6.462-6.836 8.206-8.543.842-.824 1.697-1.27 2.542-1.322.055-.003.109-.005.163-.005.737 0 1.433.314 2.021.916 1.388 1.417 1.229 3.164-.435 4.795l-27.6 27.022c-.893.876-1.813 1.316-2.687 1.316zm-12.693-43.572.054.055 24.716 25.244-.056.053a1339.433 1339.433 0 0 1-5.804 5.403c-3.173 2.944-6.454 5.988-7.716 7.226-1.597 1.562-1.782 3.204-.51 4.505 1.32 1.351 2.996 1.226 4.591-.336l27.6-27.022c1.596-1.563 1.753-3.233.433-4.582-.601-.614-1.324-.914-2.067-.866-.809.05-1.632.48-2.446 1.279-1.743 1.705-5.786 5.982-8.202 8.539-.505.533-.944.999-1.288 1.361l-.054.057-.055-.056-26.107-26.666c-1.492-1.523-3.294-1.542-4.817-.05l-14.539 14.232c-1.595 1.563-1.781 3.206-.51 4.504.609.622 1.285.938 2.01.938.042 0 .084-.001.125-.003.811-.04 1.637-.468 2.456-1.271.782-.766 3.633-3.713 6.65-6.833 2.01-2.078 4.089-4.228 5.483-5.656l.053-.055zm-14.007-11.052c-1.5 0-2.946-.606-4.143-1.827-2.535-2.59-2.28-6.247.635-9.102 2.917-2.854 6.578-3.029 9.113-.442 1.268 1.294 1.863 2.857 1.725 4.521-.136 1.619-.952 3.204-2.359 4.582-1.541 1.507-3.29 2.268-4.971 2.268zm-4.036-1.933c2.472 2.526 6.049 2.35 8.9-.443 1.382-1.353 2.183-2.904 2.314-4.487.136-1.618-.445-3.141-1.682-4.402-2.473-2.524-6.05-2.348-8.9.444-2.85 2.791-3.104 6.363-.632 8.888z"/><path d="M1608.292 845.836c1.478-1.445 3.17-1.428 4.388-.184.836.855 1.207 2.166 1.731 3.634l13.661 39.769c.896 2.47 1.338 4.322-.527 6.149-1.866 1.827-3.708 1.346-6.159.396l-39.472-14.497c-1.455-.554-2.759-.953-3.596-1.807-1.218-1.244-1.201-2.937.277-4.383 1.166-1.142 2.781-1.048 4.848-.18l38.544 14.794-13.977-38.848c-.824-2.085-.884-3.701.282-4.843z"/><path fill="#FFF" d="M1624.731 896.525c-1.032 0-2.129-.372-3.374-.854l-39.47-14.497-.582-.218c-1.238-.46-2.308-.856-3.042-1.607-.623-.636-.932-1.387-.895-2.172.039-.804.444-1.605 1.172-2.317 1.104-1.079 2.671-1.141 4.931-.195l38.389 14.735-13.922-38.694c-.898-2.276-.803-3.841.301-4.923 1.449-1.418 3.213-1.491 4.494-.184.733.749 1.106 1.823 1.539 3.066.067.195.137.394.208.595l13.662 39.771c.892 2.459 1.375 4.346-.546 6.228-.942.922-1.872 1.266-2.865 1.266zm-43.998-22.375c-.846 0-1.53.272-2.087.817-.7.686-1.09 1.452-1.127 2.218-.036.742.259 1.454.852 2.059.711.728 1.766 1.119 2.986 1.572.191.071.386.143.582.218l39.471 14.497c2.393.925 4.225 1.438 6.081-.38 1.857-1.819 1.383-3.663.51-6.07l-13.662-39.771c-.071-.201-.141-.399-.208-.595-.427-1.227-.795-2.286-1.505-3.011-1.233-1.261-2.875-1.191-4.281.186-1.056 1.034-1.141 2.548-.267 4.763l14.034 39.005-.153-.059-38.544-14.795c-1.038-.436-1.925-.654-2.682-.654z"/><path d="m1648.269 849.025 8.557 13.094c.985 1.473 1.351 3.091.031 4.386-1.321 1.294-2.861 1.277-4.155-.045-.381-.388-.836-1.008-1.138-1.473l-7.648-11.699-5.986 5.86c-1.4 1.37-3.171 1.582-4.465.261-1.295-1.323-1.044-3.089.355-4.459l6.764-6.623-9.616-14.797-6.375 6.242c-1.4 1.37-3.171 1.582-4.465.261-1.294-1.321-1.045-3.089.355-4.458l7.23-7.078-7.874-12.086c-.985-1.473-1.352-3.092-.03-4.386 1.321-1.294 2.859-1.279 4.153.043.381.39.837 1.011 1.14 1.475l6.965 10.691 11.74-11.494-7.875-12.086c-.985-1.473-1.352-3.092-.03-4.386s2.86-1.278 4.154.043c.381.39.836 1.011 1.138 1.475l6.966 10.692 6.064-5.938c1.4-1.37 3.172-1.583 4.465-.261 1.294 1.321 1.044 3.089-.355 4.459l-6.92 6.774 9.616 14.797 6.531-6.394c1.4-1.37 3.17-1.583 4.465-.261 1.294 1.321 1.045 3.088-.355 4.459l-7.308 7.154 8.557 13.094c.985 1.473 1.352 3.092.031 4.386-1.322 1.294-2.862 1.277-4.155-.044-.381-.388-.835-1.009-1.138-1.473l-7.648-11.699-11.741 11.494zm8.407-16.453-9.615-14.796-11.739 11.493 9.616 14.797 11.738-11.494z"/><path fill="#FFF" d="M1654.794 867.538h-.026c-.737-.008-1.471-.362-2.119-1.025-.396-.404-.853-1.031-1.147-1.484l-7.598-11.623-5.921 5.797c-1.497 1.466-3.291 1.567-4.572.261-1.28-1.309-1.14-3.1.356-4.565l6.72-6.58-9.532-14.668-6.309 6.178c-1.499 1.463-3.294 1.564-4.571.26-1.28-1.309-1.141-3.101.355-4.565l7.187-7.035-7.84-12.034c-1.19-1.779-1.198-3.329-.021-4.481.656-.642 1.387-.98 2.116-.98h.024c.737.008 1.47.362 2.118 1.024.401.41.869 1.058 1.148 1.487l6.916 10.615 11.63-11.388-7.841-12.034c-1.189-1.779-1.196-3.329-.02-4.481 1.348-1.317 2.94-1.304 4.261.045.396.405.852 1.033 1.146 1.486l6.917 10.615 5.998-5.874c1.498-1.467 3.293-1.568 4.571-.26.64.653.935 1.438.854 2.271-.078.802-.496 1.596-1.21 2.294l-6.875 6.731 9.531 14.669 6.466-6.33c1.496-1.466 3.291-1.567 4.571-.26.64.652.935 1.438.854 2.271-.078.803-.496 1.596-1.21 2.295l-7.265 7.11 8.523 13.043c1.189 1.779 1.197 3.329.021 4.48-.655.642-1.387.98-2.116.98l-.025-.001c-.737-.008-1.471-.362-2.12-1.025-.392-.399-.85-1.028-1.146-1.484l-7.598-11.623-11.631 11.388 8.523 13.042c1.188 1.778 1.195 3.327.021 4.48-.654.64-1.385.978-2.114.978zm-10.865-14.367 7.697 11.775c.278.427.74 1.064 1.13 1.461.62.634 1.316.974 2.014.98l.024.001c.689 0 1.384-.324 2.01-.938 1.412-1.385.758-3.098-.04-4.29l-8.592-13.146.044-.043 11.806-11.558 7.697 11.775c.294.45.745 1.07 1.129 1.461.62.635 1.317.974 2.015.981h.023c.689 0 1.385-.324 2.011-.938 1.413-1.383.759-3.097-.04-4.29l-8.592-13.147 7.353-7.196c.688-.674 1.092-1.436 1.166-2.202.076-.787-.204-1.531-.812-2.15-1.218-1.243-2.929-1.14-4.358.262l-6.597 6.457-.05-.076-9.649-14.849 6.963-6.817c.688-.673 1.092-1.435 1.166-2.201.076-.787-.204-1.531-.812-2.151-1.216-1.243-2.927-1.141-4.358.262l-6.129 6.001-.05-.076-6.967-10.691c-.278-.427-.74-1.065-1.129-1.463-1.272-1.299-2.75-1.314-4.048-.043-1.414 1.384-.759 3.098.039 4.291l7.909 12.139-.044.043-11.805 11.558-.05-.076-6.966-10.691c-.275-.425-.737-1.062-1.131-1.464-.62-.634-1.316-.973-2.013-.979l-.022-.001c-.689 0-1.384.324-2.011.938-1.414 1.384-.759 3.098.04 4.291l7.908 12.139-7.274 7.121c-1.432 1.401-1.57 3.109-.354 4.353 1.214 1.241 2.926 1.139 4.358-.262l6.439-6.307.05.077 9.65 14.849-6.808 6.666c-1.432 1.401-1.571 3.11-.354 4.353 1.218 1.243 2.928 1.138 4.359-.263l6.055-5.926zm.996-8.986-.05-.077-9.65-14.85.044-.043 11.805-11.557.05.076 9.649 14.848-.044.043-11.804 11.56zm-9.507-14.906 9.532 14.67 11.629-11.389-9.531-14.668-11.63 11.387z"/><path d="M1693.934 823.654c-2.47.743-4.008.727-5.303-.596-1.218-1.244-1.197-3.088.047-4.306 1.322-1.294 3.169-1.429 5.329-2.022 4.09-1.11 9.04-3.675 13.317-7.862 7.152-7.003 7.982-12.687 4.861-15.875-3.578-3.654-8.139-1.47-16.98 5.053-9.695 7.207-17.891 11.122-24.209 4.669-6.623-6.764-2.292-16.028 4.937-23.108 4.51-4.413 10.239-7.893 15.103-9.457 1.621-.522 2.851-.509 3.994.657 1.141 1.167 1.276 3.013-.046 4.308-.855.837-2.09 1.287-3.094 1.661-4.712 1.719-8.426 3.681-12.002 7.182-5.598 5.48-7.578 10.922-4.381 14.187 3.426 3.5 8.999.327 16.52-5.211 11.165-8.192 18.046-11.273 24.44-4.743 6.547 6.687 3.752 16.274-5.033 24.875-5.752 5.634-12.021 9.03-17.5 10.588z"/><path fill="#FFF" d="M1691.252 824.224c-1.016 0-1.89-.312-2.675-1.113-1.243-1.271-1.223-3.167.048-4.412 1.031-1.009 2.369-1.321 3.918-1.684.465-.108.945-.221 1.444-.357 4.638-1.259 9.479-4.117 13.284-7.843 6.489-6.354 8.307-12.248 4.86-15.769-1.751-1.788-3.738-2.179-6.439-1.271-2.427.815-5.452 2.65-10.442 6.333-5.667 4.212-9.798 6.516-13.396 7.468-4.358 1.156-7.929.236-10.91-2.808-3.101-3.167-4.024-7.039-2.745-11.509 1.089-3.801 3.745-7.849 7.683-11.705 4.394-4.299 10.051-7.841 15.133-9.475 1.841-.591 3.021-.396 4.071.676 1.244 1.271 1.224 3.169-.047 4.414-.851.833-2.08 1.29-3.067 1.657l-.054.021c-5.272 1.923-8.742 3.999-11.976 7.165-2.79 2.731-4.682 5.461-5.47 7.895-.809 2.494-.432 4.634 1.09 6.187 3.271 3.341 8.5.613 16.421-5.219 11.262-8.262 18.146-11.261 24.539-4.735 3.148 3.217 4.273 7.293 3.252 11.789-.971 4.273-3.836 8.835-8.286 13.192-5.216 5.107-11.442 8.874-17.533 10.605-1.007.302-1.899.498-2.703.498zm17.009-33.073c1.521 0 2.801.588 3.979 1.79 3.512 3.588 1.693 9.562-4.862 15.981-3.823 3.742-8.688 6.614-13.351 7.88-.501.138-.983.25-1.449.359-1.527.356-2.847.665-3.847 1.645-1.21 1.185-1.229 2.99-.046 4.199 1.186 1.212 2.604 1.369 5.228.576h.001c6.066-1.725 12.271-5.478 17.469-10.568 4.43-4.337 7.281-8.873 8.245-13.118 1.01-4.444-.102-8.473-3.213-11.65-6.313-6.45-13.15-3.461-24.343 4.751-7.987 5.881-13.268 8.621-16.617 5.203-1.562-1.596-1.952-3.788-1.125-6.339.796-2.456 2.7-5.207 5.507-7.955 3.251-3.182 6.735-5.268 12.029-7.198l.053-.02c.975-.363 2.187-.814 3.015-1.625 1.21-1.185 1.229-2.991.045-4.201-1.174-1.199-2.417-1.122-3.917-.639-5.062 1.627-10.697 5.155-15.074 9.439-3.92 3.838-6.562 7.863-7.644 11.64-1.264 4.413-.353 8.236 2.708 11.361 2.939 3.004 6.463 3.908 10.765 2.769 3.578-.948 7.694-3.244 13.345-7.444 5.005-3.692 8.042-5.533 10.484-6.354.951-.32 1.816-.482 2.615-.482z"/><path d="M1717.321 773.195c-9.896-10.107-9.353-24.95.676-34.769 10.029-9.82 24.88-10.048 34.776.059 9.895 10.106 9.354 24.951-.674 34.77-10.03 9.82-24.884 10.046-34.778-.06zm30.709-30.066c-7.536-7.697-18.774-7.354-25.849-.427-7.075 6.926-7.654 18.154-.118 25.851 7.536 7.697 18.772 7.352 25.847.426 7.075-6.927 7.656-18.153.12-25.85z"/><path fill="#FFF" d="M1734.581 780.772c-6.415.001-12.562-2.67-17.314-7.524-4.772-4.875-7.313-11.106-7.155-17.547.157-6.383 2.938-12.536 7.832-17.328 4.895-4.791 11.105-7.442 17.49-7.464h.079c6.415 0 12.56 2.67 17.313 7.524 4.771 4.874 7.312 11.105 7.155 17.547-.157 6.384-2.938 12.537-7.831 17.329-4.895 4.791-11.106 7.441-17.491 7.463h-.078zm.932-49.714h-.078c-6.346.022-12.52 2.657-17.386 7.422-4.866 4.764-7.631 10.881-7.787 17.225-.157 6.399 2.368 12.593 7.112 17.438 4.724 4.825 10.833 7.48 17.207 7.48h.077c6.347-.021 12.521-2.657 17.387-7.421s7.631-10.881 7.786-17.226c.157-6.4-2.369-12.593-7.112-17.438-4.725-4.825-10.833-7.48-17.206-7.48zm-.314 43.266h-.04c-4.879-.011-9.549-2.042-13.149-5.719-3.601-3.678-5.533-8.391-5.441-13.27.09-4.76 2.064-9.266 5.561-12.688 3.486-3.413 8.019-5.291 12.764-5.291h.041c4.879.011 9.55 2.042 13.15 5.72s5.532 8.39 5.44 13.269c-.091 4.759-2.065 9.265-5.562 12.688-3.487 3.412-8.02 5.291-12.764 5.291zm-.306-36.818c-4.706 0-9.2 1.863-12.658 5.249-3.469 3.395-5.428 7.864-5.516 12.584-.092 4.839 1.826 9.513 5.398 13.161s8.204 5.663 13.043 5.674h.039c4.705 0 9.199-1.863 12.658-5.249 3.468-3.396 5.428-7.864 5.517-12.583.092-4.838-1.825-9.512-5.397-13.16-3.572-3.649-8.204-5.664-13.044-5.676h-.04z"/><path d="M1755.38 710.196c-4.276 4.186-3.172 9.045 1.09 13.399l20.248 20.681c1.523 1.555 1.659 3.249.182 4.695-1.322 1.294-3.09 1.199-4.613-.356l-29.229-29.854c-1.523-1.555-1.659-3.25-.181-4.695 1.322-1.294 3.089-1.198 4.612.356l1.218 1.244c-.803-4.086.311-7.613 3.655-10.886 3.731-3.654 8.279-4.608 12.499-3.253-1.027-4.782-.06-8.926 3.749-12.656 6.376-6.242 13.601-5.55 21.593 2.613l19.79 20.214c1.523 1.555 1.659 3.249.182 4.695-1.321 1.295-3.09 1.199-4.613-.356l-19.564-19.981c-5.099-5.208-9.549-6.487-14.058-2.072-4.276 4.186-3.095 8.97 1.168 13.323l20.248 20.68c1.522 1.555 1.658 3.249.181 4.696-1.321 1.294-3.091 1.198-4.613-.357l-20.248-20.681c-4.263-4.354-9.02-5.635-13.296-1.449z"/><path fill="#FFF" d="M1774.858 749.943a2.54 2.54 0 0 1-.195-.007c-.834-.06-1.675-.498-2.43-1.269l-29.229-29.854c-.78-.797-1.196-1.617-1.236-2.438-.042-.842.313-1.638 1.057-2.364.669-.656 1.462-.969 2.288-.911.835.06 1.675.498 2.43 1.269l1.046 1.067c-.723-4.048.496-7.554 3.721-10.711 3.538-3.464 8.069-4.666 12.452-3.311-1.048-5.033.16-9.039 3.795-12.599 6.487-6.349 13.786-5.469 21.699 2.613l19.791 20.214c.78.797 1.196 1.617 1.237 2.438.042.842-.313 1.637-1.057 2.364-.616.604-1.336.918-2.094.918a2.56 2.56 0 0 1-.195-.007c-.834-.059-1.675-.498-2.43-1.269l-19.563-19.98c-5.439-5.557-9.744-6.194-13.952-2.071-2.027 1.985-2.901 4.185-2.596 6.535.281 2.17 1.548 4.418 3.765 6.682l20.249 20.681c1.58 1.615 1.646 3.365.18 4.802-.616.604-1.336.918-2.094.918-.065 0-.131-.002-.196-.007-.835-.06-1.675-.498-2.43-1.27l-20.248-20.681c-2.217-2.265-4.438-3.578-6.601-3.904-2.345-.357-4.562.473-6.589 2.458-2.033 1.99-2.92 4.202-2.635 6.573.265 2.204 1.519 4.464 3.727 6.719l20.247 20.681c.78.797 1.196 1.616 1.237 2.438.042.841-.313 1.637-1.057 2.363-.616.604-1.337.92-2.094.92zm-29.94-36.699c-.717 0-1.401.3-1.988.875-.711.695-1.052 1.452-1.013 2.249.039.783.44 1.57 1.194 2.34l29.229 29.854c.729.744 1.535 1.168 2.333 1.225.785.048 1.536-.246 2.173-.87.711-.695 1.052-1.452 1.012-2.249-.039-.782-.44-1.569-1.194-2.339l-20.247-20.681c-2.231-2.279-3.499-4.569-3.768-6.806-.291-2.421.61-4.675 2.678-6.699l.053.054-.053-.054c3.947-3.863 8.706-3.349 13.402 1.448l20.248 20.681c.729.745 1.535 1.169 2.333 1.226.785.049 1.537-.245 2.174-.869 1.419-1.391 1.354-3.02-.182-4.589l-20.249-20.681c-4.697-4.798-5.111-9.566-1.167-13.43 4.286-4.195 8.653-3.555 14.165 2.073l19.563 19.98c.729.745 1.536 1.168 2.333 1.225.784.061 1.536-.245 2.173-.869.711-.696 1.052-1.453 1.012-2.25-.039-.782-.44-1.569-1.194-2.339l-19.791-20.214c-7.843-8.012-15.071-8.893-21.486-2.611-3.625 3.55-4.81 7.549-3.728 12.586l.027.127-.123-.04c-4.366-1.398-8.895-.222-12.424 3.236-3.296 3.227-4.45 6.664-3.634 10.817l.049.246-1.395-1.422c-.729-.744-1.535-1.168-2.333-1.225a3.652 3.652 0 0 0-.182-.005z"/><path d="M1800.898 691.517c-10.124-10.34-9.352-25.104.521-34.772 9.563-9.362 23.497-10.216 32.783-.731 1.447 1.477 1.738 3.173-.129 4.999l-27.443 26.87c7.318 6.541 17.63 6.342 25.404-1.27 4.742-4.644 6.561-9.318 7.54-14.539.323-1.381.259-2.691 1.425-3.832 1.244-1.218 3.09-1.199 4.232-.032 1.142 1.166 1.207 2.321.876 4.471-.669 5.071-3.745 12.194-10.119 18.436-10.496 10.277-25.041 10.662-35.09.4zm2.009-8.058 24.801-24.281c-6.482-5.531-16.039-4.095-22.102 1.843-6.065 5.937-7.314 15.081-2.699 22.438z"/><path fill="#FFF" d="M1817.927 699.098c-6.267 0-12.32-2.664-17.082-7.527-4.85-4.954-7.428-11.237-7.26-17.693.166-6.33 2.93-12.434 7.782-17.186 4.703-4.604 10.579-7.252 16.545-7.454.243-.008.486-.013.729-.013 5.825 0 11.345 2.376 15.615 6.737.806.822 1.209 1.666 1.2 2.51-.009.868-.457 1.741-1.33 2.596l-27.386 26.813c3.372 2.99 7.516 4.614 11.74 4.614.226 0 .451-.005.678-.014 4.627-.19 9.062-2.238 12.823-5.922 5.181-5.072 6.708-10.176 7.519-14.498.074-.318.128-.633.18-.938.181-1.049.351-2.039 1.267-2.935 1.253-1.226 3.156-1.237 4.339-.031 1.172 1.197 1.223 2.416.896 4.535-.812 6.146-4.604 13.056-10.142 18.479-5.116 5.009-11.425 7.822-17.764 7.923-.116.003-.233.004-.349.004zm-16.975-7.633c4.732 4.834 10.749 7.482 16.975 7.482l.347-.003c6.301-.1 12.573-2.897 17.661-7.88 5.516-5.4 9.29-12.276 10.099-18.393.325-2.112.279-3.25-.855-4.408-1.123-1.146-2.936-1.132-4.126.033-.882.862-1.048 1.829-1.224 2.853-.053.307-.107.624-.182.942-1.451 7.741-4.636 11.712-7.56 14.575-3.789 3.71-8.258 5.772-12.923 5.964-4.521.191-8.992-1.48-12.584-4.691l-.06-.053.057-.057 27.443-26.87c.845-.825 1.277-1.663 1.286-2.489.008-.803-.382-1.611-1.158-2.403-4.241-4.333-9.724-6.692-15.508-6.692-.241 0-.481.004-.723.013-5.929.2-11.77 2.833-16.445 7.411-4.825 4.725-7.573 10.791-7.737 17.083-.168 6.414 2.396 12.659 7.217 17.583zm1.942-7.887-.05-.079c-2.26-3.602-3.182-7.682-2.667-11.801.502-4.018 2.411-7.829 5.376-10.731 3.027-2.964 6.912-4.826 10.939-5.243 4.184-.43 8.189.773 11.265 3.397l.062.053-.059.058-24.866 24.346zm15.262-27.791c-.545 0-1.095.028-1.648.086-3.994.413-7.847 2.261-10.85 5.201-2.94 2.879-4.835 6.658-5.333 10.643-.507 4.054.392 8.071 2.597 11.623l24.675-24.158c-2.628-2.216-5.929-3.395-9.441-3.395z"/><path d="M1715.243 874.711a1.996 1.996 0 0 1-1.739-1.01L1514.65 524.793 1316.169 873.7a2 2 0 1 1-3.477-1.979l200.217-351.96a2 2 0 0 1 3.475-.001l200.594 351.96a2 2 0 0 1-1.735 2.991z"/><path d="m1143.274 878.99 313.607-66.907-18.48-86.62-313.607 66.907 48.988 33.903z"/><path fill="#2E9AFF" d="m1224.274 813.841 8.47 12.904.252-22.474c-.008-1.313.349-2.221 1.539-2.479s2.089.378 2.361 1.634c.129.594.045 1.166.033 2.069l-.578 24.483c-.076 1.885-.557 2.542-1.812 2.815-1.057.229-1.767-.17-2.771-1.614l-9.403-14.017-2.759 16.652c-.318 1.73-.798 2.387-1.855 2.616-1.256.272-1.965-.128-2.814-1.812l-10.658-22.049c-.385-.816-.698-1.303-.826-1.897-.272-1.256.283-2.207 1.473-2.465s1.89.421 2.427 1.62l9.53 20.355 2.37-15.252c.251-1.715.689-2.571 2.011-2.857 1.319-.287 2.071.311 3.01 1.768zM1274.76 821.38c.243 1.124-.326 2.008-1.78 2.323l-23.464 5.083c-1.454.315-2.339-.254-2.582-1.378-.229-1.057.341-1.942 1.795-2.257 1.785-.387 8.041-1.535 11.294-2.17l-4.639-21.415c-2.96.71-9.394 2.312-10.518 2.555-1.454.315-2.339-.255-2.582-1.378-.229-1.057.341-1.943 1.795-2.258l12.36-2.677c1.322-.286 2.287.335 2.573 1.657l4.911 22.671c1.77-.453 6.486-1.682 8.271-2.069 1.452-.314 2.337.256 2.566 1.313zm-24.583-32.664c-.487-2.247.931-4.008 3.311-4.523 2.379-.515 4.399.5 4.885 2.747.487 2.247-.931 4.008-3.311 4.523-2.379.516-4.398-.499-4.885-2.747zM1304.669 815.386l-3.193-14.74c-1.432-6.609-5.413-8.377-9.709-7.446-4.693 1.017-7.784 4.316-6.338 10.992l3.179 14.673c.286 1.322-.269 2.272-1.525 2.544-1.124.243-2.089-.378-2.375-1.7l-5.498-25.381c-.286-1.322.269-2.273 1.525-2.545 1.124-.243 2.089.378 2.375 1.7l.415 1.917c1.353-3.338 4.48-5.192 8.116-5.979 6.61-1.432 11.831 1.589 13.549 9.521l3.379 15.599c.286 1.322-.269 2.272-1.525 2.544-1.124.244-2.089-.377-2.375-1.699zM1339.964 807.74l-3.193-14.74c-1.432-6.609-5.413-8.377-9.709-7.446-4.693 1.017-7.784 4.316-6.338 10.992l3.179 14.673c.286 1.322-.269 2.272-1.525 2.544-1.124.243-2.089-.378-2.375-1.7l-5.498-25.381c-.286-1.322.269-2.273 1.525-2.545 1.124-.243 2.089.378 2.375 1.7l.415 1.917c1.353-3.338 4.48-5.192 8.116-5.979 6.61-1.432 11.831 1.589 13.549 9.521l3.379 15.599c.286 1.322-.269 2.272-1.525 2.544-1.124.244-2.089-.377-2.375-1.699zM1349.456 792.467c-1.904-8.791 3.388-16.304 11.782-18.122 8.13-1.761 15.744 2.402 17.491 10.466.272 1.256-.136 2.244-1.723 2.588l-23.332 5.054c1.685 5.863 7.177 9.171 13.786 7.739 4.032-.873 6.536-2.731 8.779-5.154.627-.62 1.026-1.33 2.018-1.545 1.058-.229 2.023.393 2.238 1.384.215.991-.134 1.62-1.019 2.643-2.031 2.447-6.006 5.176-11.426 6.35-8.923 1.933-16.704-2.678-18.594-11.403zm3.724-3.575 21.085-4.568c-1.58-5.055-7.083-7.462-12.239-6.345-5.156 1.118-8.839 5.514-8.846 10.913zM1416.27 790.726c.243 1.124-.326 2.008-1.78 2.323l-23.663 5.126c-1.454.315-2.339-.254-2.582-1.378-.229-1.057.34-1.942 1.795-2.257 1.983-.43 5.066-.89 7.063-1.253l-4.639-21.415c-1.836.467-5.032 1.367-6.949 1.782-1.454.315-2.339-.255-2.582-1.378-.229-1.057.34-1.942 1.794-2.257l8.791-1.904c1.322-.286 2.287.335 2.573 1.657l.415 1.917c.937-3.663 4.455-5.948 7.892-6.692 2.115-.458 4.94-.516 7.077.405.988.409 1.528.984 1.714 1.843.244 1.124-.458 2.037-1.384 2.237-.991.215-1.871-.01-2.764-.301-1.494-.507-3.128-.706-4.979-.305-4.759 1.031-6.883 5.92-5.609 11.802l2.549 11.766c2.96-.711 10.254-2.498 12.7-3.028 1.454-.317 2.338.252 2.568 1.31z"/><path fill="#FFF" d="m1436.494 725.815 3.912-.834 34.108 159.833-3.912.835z"/><path fill-rule="evenodd" clip-rule="evenodd" d="M1717.177 872.711c0 111.794-90.627 202.421-202.421 202.421s-202.421-90.627-202.421-202.421h404.842z"/><path fill-rule="evenodd" clip-rule="evenodd" fill="#FFF" d="m1509.43 505.714-1097.444-320.6 9.13-31.252 557.123 131.543 540.321 189.057z"/><circle fill-rule="evenodd" clip-rule="evenodd" fill="#FFF" cx="418.131" cy="164.079" r="34.682"/><circle fill-rule="evenodd" clip-rule="evenodd" fill="#FFF" cx="1515.575" cy="484.679" r="34.682"/><path fill-rule="evenodd" clip-rule="evenodd" d="M945.107 213.803a19.005 19.005 0 0 0-17.514 11.625l-97.022 230.207c-5.28 12.528 3.919 26.388 17.514 26.388h232.338c13.596 0 22.794-13.859 17.514-26.388l-97.022-230.207a19.006 19.006 0 0 0-17.514-11.625h-38.294z"/><path fill-rule="evenodd" clip-rule="evenodd" fill="#2E9AFF" d="M994.998 1074.579h-61.487V143.664c0-14.889 12.07-26.958 26.958-26.958h7.57c14.889 0 26.958 12.07 26.958 26.958v930.915z"/><path d="M996.998 1076.579h-65.487V143.664c0-15.968 12.991-28.959 28.958-28.959h7.57c15.968 0 28.959 12.991 28.959 28.959v932.915zm-61.487-4h57.487V143.664c0-13.763-11.196-24.959-24.959-24.959h-7.57c-13.762 0-24.958 11.196-24.958 24.959v928.915z"/><path fill-rule="evenodd" clip-rule="evenodd" fill="#2E9AFF" d="M1125.436 1078h-322.28c-28.267 0-51.181-22.915-51.181-51.181v-14.372c0-28.267 22.915-51.181 51.181-51.181h322.28c28.267 0 51.181 22.915 51.181 51.181v14.372c.001 28.266-22.914 51.181-51.181 51.181z"/><path d="M1125.437 1080h-322.28c-29.324 0-53.181-23.857-53.181-53.182v-14.371c0-29.324 23.857-53.182 53.181-53.182h322.28c29.324 0 53.182 23.857 53.182 53.182v14.371c-.001 29.325-23.858 53.182-53.182 53.182zm-322.28-116.734c-27.119 0-49.181 22.062-49.181 49.182v14.371c0 27.119 22.062 49.182 49.181 49.182h322.28c27.119 0 49.182-22.062 49.182-49.182v-14.371c0-27.119-22.062-49.182-49.182-49.182h-322.28z"/><circle fill-rule="evenodd" clip-rule="evenodd" fill="#FFF" cx="963.291" cy="149.377" r="19.32"/><path fill-rule="evenodd" clip-rule="evenodd" fill="#2E9AFF" d="M751.975 1019.633h424.642V1078H751.975z"/><path d="M1178.618 1080H749.976v-62.367h428.643V1080zm-424.642-4h420.643v-54.367H753.976V1076z"/><path fill="#FFF" d="M1423.885 356.751c0-1.06.729-1.921 2.186-1.921 2.65 0 9.21.199 11.728.265V324.55l-10.005 5.433c-.927.464-1.656.729-2.319.729-1.126 0-1.855-.795-1.855-1.921 0-.861.464-1.524 1.657-2.12l11.86-5.831c.795-.398 1.855-.927 2.849-.927 1.193 0 1.855.861 1.855 2.319v32.864c1.988-.066 7.023-.265 9.077-.265 1.458 0 2.187.861 2.187 1.921s-.729 1.922-2.187 1.922h-24.847c-1.458-.001-2.186-.863-2.186-1.923zM1477.682 350.656c2.65 0 4.704 1.855 4.704 4.373 0 2.518-2.054 4.373-4.704 4.373-2.651 0-4.704-1.855-4.704-4.373 0-2.518 2.054-4.373 4.704-4.373zM1503.387 356.751c0-1.06.729-1.921 2.186-1.921 2.651 0 9.21.199 11.728.265V324.55l-10.005 5.433c-.927.464-1.656.729-2.319.729-1.126 0-1.855-.795-1.855-1.921 0-.861.464-1.524 1.657-2.12l11.86-5.831c.795-.398 1.855-.927 2.849-.927 1.193 0 1.855.861 1.855 2.319v32.864c1.988-.066 7.023-.265 9.077-.265 1.458 0 2.187.861 2.187 1.921s-.729 1.922-2.187 1.922h-24.847c-1.457-.001-2.186-.863-2.186-1.923zM1557.185 350.656c2.65 0 4.704 1.855 4.704 4.373 0 2.518-2.054 4.373-4.704 4.373s-4.704-1.855-4.704-4.373c0-2.518 2.054-4.373 4.704-4.373zM1597.93 319.912c7.222 0 12.788 4.108 12.788 11.131 0 7.288-6.427 12.125-13.715 17.757l-8.15 6.294c4.439-.066 20.009-.265 22.461-.265 1.458 0 2.187.861 2.187 1.921s-.729 1.922-2.187 1.922h-26.569c-1.06 0-2.054-.663-2.054-1.988 0-.729.331-1.391 1.391-2.187l11.33-9.077c6.891-5.499 11.131-9.276 11.131-14.245 0-4.903-3.975-7.487-8.68-7.487-3.776 0-6.957 1.59-9.939 5.102-.662.795-1.192 1.192-2.12 1.192-1.06 0-1.922-.729-1.922-1.789 0-.795.199-1.325.663-1.855 2.453-2.782 6.892-6.426 13.385-6.426zM325.177 19.811C325.177 8.68 330.279 0 340.085 0s14.908 8.68 14.908 19.811c0 11.197-5.102 19.877-14.908 19.877s-14.908-8.68-14.908-19.877zm25.707 0c0-9.21-3.975-16.034-10.8-16.034-6.825 0-10.8 6.825-10.8 16.034s3.975 16.1 10.8 16.1c6.825 0 10.8-6.89 10.8-16.1zm-14.245 0c0-1.855 1.458-3.247 3.445-3.247 1.988 0 3.445 1.391 3.445 3.247 0 1.855-1.458 3.246-3.445 3.246-1.987 0-3.445-1.391-3.445-3.246zM379.903 30.743c2.65 0 4.704 1.855 4.704 4.373s-2.054 4.373-4.704 4.373c-2.651 0-4.704-1.855-4.704-4.373s2.053-4.373 4.704-4.373zM405.607 36.839c0-1.06.729-1.921 2.186-1.921 2.65 0 9.209.199 11.728.265V4.638l-10.005 5.433c-.927.464-1.656.729-2.319.729-1.126 0-1.855-.795-1.855-1.921 0-.861.464-1.524 1.656-2.12l11.86-5.831C419.654.53 420.714 0 421.707 0c1.193 0 1.856.861 1.856 2.319v32.864c1.988-.066 7.023-.265 9.077-.265 1.458 0 2.187.861 2.187 1.921s-.729 1.922-2.187 1.922h-24.846c-1.458-.001-2.187-.862-2.187-1.922zM459.405 30.743c2.65 0 4.704 1.855 4.704 4.373s-2.054 4.373-4.704 4.373c-2.651 0-4.704-1.855-4.704-4.373s2.053-4.373 4.704-4.373zM484.182 19.811C484.182 8.68 489.284 0 499.09 0s14.908 8.68 14.908 19.811c0 11.197-5.102 19.877-14.908 19.877s-14.908-8.68-14.908-19.877zm25.707 0c0-9.21-3.975-16.034-10.8-16.034s-10.8 6.825-10.8 16.034 3.975 16.1 10.8 16.1 10.8-6.89 10.8-16.1zm-14.245 0c0-1.855 1.458-3.247 3.445-3.247 1.988 0 3.445 1.391 3.445 3.247 0 1.855-1.458 3.246-3.445 3.246-1.987 0-3.445-1.391-3.445-3.246z"/></svg>