<svg xmlns="http://www.w3.org/2000/svg" xmlns:xlink="http://www.w3.org/1999/xlink" viewBox="0 0 1080 1080" xml:space="preserve"><path fill="#2E9AFF" d="M.607 1031.773h1078.787V1080H.607z"/><path fill="#FFF" d="M355.001 1033.773H0v-4h354.506zM1080 1033.773H724.999v-4h354.506z"/><path d="M900.599 546.294h4v242.584h-4zM177.331 178.731h4v242.584h-4z"/><defs><path id="a" d="M289.566 335.462c29.049-16.917 66.313-7.082 83.23 21.967l9.802 16.832c16.917 29.049 7.082 66.313-21.967 83.23l-234.928 137.49c-29.049 16.917-66.313 7.082-83.23-21.967l-9.802-16.832c-16.917-29.049-7.082-66.313 21.967-83.23l234.928-137.49z"/></defs><use xlink:href="#a" overflow="visible" fill-rule="evenodd" clip-rule="evenodd" fill="#FFF"/><path d="M91.611 553.029c3.298-1.92 7.198-1.1 9.022 2.032 1.825 3.133.614 6.931-2.684 8.851-3.298 1.921-7.198 1.1-9.023-2.033-1.824-3.132-.612-6.929 2.685-8.85z"/><path fill="#FFF" d="M94.272 565.016c-.474 0-.943-.05-1.403-.151-1.695-.374-3.119-1.421-4.008-2.947-1.827-3.139-.661-6.987 2.712-8.952 3.372-1.966 7.297-1.08 9.124 2.059.89 1.526 1.098 3.28.587 4.94-.507 1.645-1.678 3.07-3.297 4.013-1.177.684-2.458 1.038-3.715 1.038zm-2.623-11.922c-3.3 1.922-4.442 5.683-2.659 8.747.868 1.49 2.257 2.512 3.911 2.877 1.642.364 3.423.054 5.01-.87s2.734-2.319 3.229-3.928c.498-1.619.295-3.331-.572-4.82-1.785-3.066-5.622-3.925-8.919-2.006z"/><path d="M139.914 533.4c3.958-2.304 7.002-6.176 8.703-11.028.577-1.663.983-2.671 2.22-3.392 1.154-.672 2.802-.306 3.474.847.72 1.237.575 2.315-.086 4.024-1.933 5.212-5.899 10.724-11.671 14.084-10.635 6.194-23.263 3.28-29.553-7.52-6.289-10.801-2.593-23.222 8.043-29.416 5.772-3.36 12.522-4.091 18.009-3.201 1.814.27 2.823.675 3.543 1.912.673 1.155.176 2.769-.978 3.44-1.237.721-2.315.575-4.045.259-5.062-.918-9.931-.18-13.889 2.124-7.09 4.13-10.599 13.46-5.654 21.952 4.946 8.492 14.793 10.045 21.884 5.915z"/><path fill="#FFF" d="M131.062 541.218c-1.663 0-3.316-.197-4.932-.597-5.479-1.355-10.164-4.967-13.193-10.168-3.029-5.203-3.857-11.061-2.333-16.494 1.507-5.37 5.201-9.995 10.402-13.024 5.241-3.052 11.824-4.222 18.059-3.211 1.747.26 2.838.647 3.595 1.948.321.55.4 1.222.224 1.891-.187.704-.634 1.307-1.228 1.651-1.266.739-2.38.582-4.096.269-5.09-.924-9.876-.191-13.838 2.115-3.512 2.045-6.175 5.434-7.306 9.297-1.216 4.148-.619 8.606 1.679 12.553s5.881 6.665 10.089 7.655c3.919.925 8.181.278 11.691-1.767 3.961-2.307 6.959-6.106 8.671-10.988.571-1.647.985-2.694 2.252-3.433.573-.333 1.293-.43 1.974-.27.691.164 1.276.581 1.604 1.144.758 1.303.557 2.441-.08 4.089-2.197 5.924-6.463 11.071-11.703 14.121-3.65 2.126-7.618 3.219-11.531 3.219zm3.56-43.699c-4.793 0-9.557 1.227-13.539 3.545-5.168 3.01-8.838 7.604-10.334 12.937-1.514 5.394-.69 11.21 2.317 16.377 3.009 5.167 7.661 8.753 13.101 10.099 5.375 1.329 11.183.403 16.35-2.605 5.212-3.033 9.454-8.153 11.639-14.046.621-1.604.819-2.71.092-3.959-.308-.528-.857-.92-1.509-1.074-.649-.151-1.327-.06-1.863.253-1.221.712-1.627 1.738-2.187 3.353-1.725 4.917-4.745 8.744-8.736 11.068-3.545 2.065-7.845 2.716-11.802 1.784-4.249-1-7.865-3.744-10.184-7.726-2.319-3.982-2.921-8.482-1.694-12.672 1.143-3.898 3.83-7.319 7.374-9.383 3.994-2.326 8.815-3.065 13.941-2.135 1.681.309 2.773.462 3.992-.249.561-.326.982-.895 1.158-1.561.167-.631.093-1.262-.207-1.776-.727-1.249-1.787-1.623-3.488-1.876a27.535 27.535 0 0 0-4.421-.354z"/><path d="M142.235 471.215c-1.814 1.056-3.249.677-4.065-.724-.768-1.319-.39-2.754 1.425-3.81l14.758-8.594c1.649-.961 3.214-.549 4.174 1.102l27.223 46.746c3.003-1.859 11.02-6.86 12.67-7.819 1.814-1.057 3.249-.677 4.018.642.816 1.401.437 2.836-1.376 3.893l-31.083 18.101c-1.813 1.056-3.249.677-4.065-.724-.768-1.319-.39-2.755 1.424-3.811 1.484-.864 10.945-6.042 13.548-7.449l-26.311-45.181c-3.086 1.906-11.021 6.859-12.34 7.628z"/><path fill="#FFF" d="M168.048 521.431c-.168 0-.332-.016-.491-.048-.696-.14-1.287-.596-1.708-1.318-.836-1.436-.293-2.898 1.451-3.913 1.465-.854 10.683-5.899 13.482-7.414l-26.234-45.047c-.964.596-2.373 1.472-3.901 2.421-3.5 2.175-7.467 4.64-8.374 5.168-.899.523-1.727.716-2.459.568-.697-.14-1.287-.596-1.708-1.318-.4-.688-.491-1.401-.263-2.066.242-.704.819-1.326 1.714-1.847l14.758-8.594c.827-.481 1.657-.633 2.402-.437s1.394.737 1.874 1.564l27.186 46.68c.675-.418 1.587-.984 2.617-1.625 3.677-2.284 8.712-5.412 9.988-6.154.895-.521 1.722-.715 2.452-.58.691.13 1.268.562 1.668 1.248.878 1.508.366 2.965-1.403 3.995l-31.082 18.101c-.705.41-1.365.616-1.969.616zm-13.448-57.95.038.066 26.351 45.248-.067.037c-2.715 1.467-12.07 6.588-13.546 7.447-1.688.982-2.197 2.334-1.398 3.708.404.695.946 1.115 1.608 1.248.694.134 1.487-.047 2.354-.551l31.082-18.101c1.688-.983 2.18-2.365 1.351-3.79-.378-.648-.92-1.056-1.566-1.177-.7-.129-1.487.061-2.349.562-1.274.741-6.31 3.869-9.985 6.153-1.064.66-2.003 1.244-2.684 1.665l-.065.041-.038-.066-27.224-46.746c-.461-.792-1.077-1.31-1.783-1.495-.703-.185-1.496-.042-2.288.42l-14.758 8.594c-.863.503-1.418 1.098-1.648 1.767-.214.622-.127 1.294.25 1.941.405.695.945 1.115 1.608 1.248.695.136 1.486-.047 2.354-.551.906-.528 4.872-2.992 8.371-5.167a2052.19 2052.19 0 0 1 3.968-2.461l.064-.04z"/><path d="M206.309 485.681c-4.081-7.008.348-15.328 8.757-20.226 4.617-2.688 10.023-4.4 14.713-3.93l-1.776-3.05c-3.601-6.184-10.076-7.824-17.743-3.358-2.804 1.633-5.401 3.808-7.539 7.151-.701 1.07-1.54 2.664-2.611 3.288-1.484.864-2.967.403-3.783-.998-.721-1.237-.212-2.638.874-4.375 1.471-2.403 5.225-6.575 10.419-9.601 10.8-6.289 19.452-4.703 25.117 5.025l11.428 19.623c.96 1.649.712 3.119-.855 4.031-1.401.816-2.967.403-3.927-1.246l-.48-.825c-1.905 4.313-6.063 8.169-10.68 10.858-8.41 4.896-17.833 4.642-21.914-2.367zm28.361-16.517c-2.353-4.039-8.581-4.497-15.754-.32-7.172 4.177-9.848 9.82-7.496 13.86 2.353 4.041 8.582 4.498 15.754.321 7.173-4.177 9.849-9.821 7.496-13.861z"/><path fill="#FFF" d="M216.96 491.458c-.447 0-.889-.019-1.324-.055-4.182-.35-7.43-2.315-9.392-5.685s-2.069-7.163-.309-10.973c1.654-3.581 4.884-6.904 9.093-9.355 4.454-2.594 9.167-4.017 13.191-4.017.484 0 .959.021 1.421.062l-1.702-2.923c-1.789-3.072-4.312-5.021-7.298-5.638-3.084-.635-6.66.161-10.343 2.306-3.214 1.872-5.603 4.137-7.515 7.127-.128.196-.261.408-.398.63-.631 1.014-1.346 2.164-2.238 2.683-1.471.854-3.03.442-3.885-1.025-.811-1.388-.059-2.96.875-4.452 1.25-2.043 4.858-6.371 10.444-9.626 5.416-3.153 10.308-4.334 14.536-3.503 4.271.836 7.864 3.714 10.684 8.555l11.428 19.622c1.001 1.719.679 3.226-.881 4.134-1.494.87-3.073.368-4.03-1.272l-.407-.699c-1.786 3.938-5.659 7.852-10.65 10.758-3.744 2.179-7.704 3.346-11.3 3.346zm11.259-29.935c-3.998 0-8.684 1.416-13.114 3.996-4.184 2.437-7.392 5.735-9.033 9.289-1.738 3.764-1.634 7.51.302 10.834 1.937 3.325 5.145 5.266 9.275 5.611 3.902.328 8.354-.836 12.535-3.272 5.021-2.924 8.903-6.869 10.649-10.823l.06-.135.554.952c.912 1.563 2.414 2.04 3.825 1.22 1.5-.874 1.794-2.269.828-3.929l-11.428-19.622c-2.797-4.802-6.357-7.656-10.583-8.483-4.196-.825-9.05.351-14.432 3.484-5.562 3.24-9.149 7.544-10.393 9.576-1.243 1.986-1.496 3.231-.874 4.297.822 1.413 2.268 1.793 3.68.973.86-.501 1.565-1.634 2.188-2.634.138-.222.271-.435.399-.631 1.926-3.011 4.329-5.291 7.564-7.175 3.716-2.165 7.331-2.969 10.449-2.323 3.028.625 5.586 2.599 7.396 5.708l1.851 3.177-.146-.015a16.04 16.04 0 0 0-1.552-.075zm-10.33 24.505c-.135 0-.269-.002-.401-.007-2.78-.099-4.958-1.264-6.132-3.279-1.174-2.017-1.111-4.485.175-6.951 1.339-2.566 3.88-4.991 7.348-7.011 3.469-2.021 6.829-3.034 9.726-2.933 2.779.099 4.957 1.263 6.131 3.278 1.175 2.017 1.113 4.485-.173 6.952-1.339 2.566-3.88 4.991-7.349 7.011-3.311 1.929-6.525 2.94-9.325 2.94zm10.313-20.037c-2.774 0-5.962 1.004-9.248 2.918-3.444 2.006-5.965 4.409-7.291 6.951-1.262 2.419-1.325 4.836-.179 6.806 1.147 1.971 3.281 3.109 6.009 3.205 2.863.11 6.2-.905 9.644-2.911 3.444-2.006 5.966-4.41 7.292-6.952 1.261-2.419 1.324-4.836.177-6.806-1.147-1.971-3.281-3.108-6.008-3.204a10.387 10.387 0 0 0-.396-.007z"/><path d="M257.819 466.062c-2.259.101-3.564-.243-4.381-1.646-.768-1.319-.354-2.883.965-3.651 1.401-.816 3.001-.534 4.965-.574 3.716-.065 8.475-1.183 13.01-3.823 7.585-4.417 9.511-9.072 7.543-12.452-2.257-3.875-6.604-2.998-15.521.649-9.79 4.044-17.598 5.612-21.584-1.231-4.177-7.173 1.493-14.118 9.161-18.585 4.782-2.784 10.4-4.511 14.872-4.796 1.49-.095 2.534.18 3.254 1.417.72 1.237.437 2.836-.965 3.652-.906.528-2.053.645-2.988.747-4.375.45-7.954 1.319-11.746 3.527-5.936 3.457-8.789 7.658-6.773 11.121 2.161 3.711 7.581 2.211 15.164-.882 11.253-4.566 17.764-5.708 21.797 1.218 4.13 7.091-.305 14.641-9.622 20.067-6.099 3.554-12.158 5.094-17.151 5.242z"/><path fill="#FFF" d="M257.114 466.154c-1.717 0-2.956-.352-3.74-1.7-.788-1.352-.361-2.965.991-3.753 1.096-.639 2.3-.617 3.7-.591.417.007.849.014 1.302.006 4.211-.074 8.939-1.464 12.974-3.812 6.877-4.005 9.687-8.621 7.517-12.35-2.254-3.866-6.771-2.859-15.429.681-5.724 2.364-9.731 3.436-12.996 3.473l-.168.001c-3.872 0-6.657-1.551-8.513-4.736-1.958-3.362-1.911-6.855.138-10.384 1.743-2.999 4.872-5.871 9.05-8.304 4.659-2.713 10.231-4.509 14.905-4.807 1.702-.102 2.659.313 3.323 1.454.787 1.354.361 2.968-.991 3.755-.901.525-2.041.65-2.957.751l-.061.006c-4.894.503-8.288 1.522-11.716 3.518-6.154 3.584-8.677 7.703-6.747 11.019 2.061 3.536 7.085 2.345 15.071-.913 11.356-4.608 17.856-5.678 21.891 1.249 1.988 3.414 2.069 7.124.233 10.73-1.743 3.426-5.161 6.69-9.882 9.439-5.531 3.222-11.636 5.087-17.188 5.252-.244.01-.48.016-.707.016zm.171-5.904c-1.053 0-1.989.083-2.844.58-.621.362-1.058.921-1.23 1.574-.173.652-.069 1.354.292 1.974.674 1.157 1.693 1.625 3.656 1.625.208 0 .426-.005.656-.016h.001c5.528-.164 11.607-2.021 17.117-5.23 4.696-2.735 8.094-5.979 9.824-9.379 1.812-3.559 1.732-7.219-.229-10.586-3.981-6.835-10.433-5.762-21.705-1.187-8.061 3.288-13.143 4.481-15.257.851-1.978-3.397.564-7.593 6.8-11.224 3.448-2.008 6.859-3.032 11.776-3.537l.06-.007c.902-.099 2.024-.222 2.897-.73 1.279-.745 1.683-2.271.938-3.55-.738-1.267-1.798-1.473-3.185-1.38-4.652.295-10.199 2.084-14.839 4.785-4.156 2.421-7.267 5.273-8.996 8.25-2.021 3.479-2.067 6.921-.139 10.232 1.826 3.136 4.57 4.662 8.385 4.662l.165-.001c3.245-.037 7.236-1.104 12.941-3.461 5.048-2.065 8.026-2.978 10.28-3.151 2.555-.194 4.199.586 5.334 2.533 2.218 3.811-.612 8.504-7.569 12.555-4.057 2.362-8.812 3.759-13.047 3.834-.455.01-.889.002-1.308-.007-.263-.004-.522-.009-.774-.009z"/><path d="M301.848 440.421c-2.26.101-3.564-.243-4.381-1.646-.768-1.319-.354-2.884.965-3.651 1.402-.816 3-.535 4.965-.574 3.716-.065 8.475-1.183 13.01-3.823 7.585-4.417 9.512-9.072 7.543-12.452-2.257-3.875-6.605-2.999-15.521.647-9.789 4.045-17.598 5.613-21.583-1.23-4.177-7.173 1.493-14.118 9.16-18.584 4.782-2.785 10.401-4.512 14.872-4.796 1.49-.096 2.534.18 3.254 1.417.721 1.237.437 2.836-.964 3.652-.907.529-2.054.645-2.988.747-4.375.45-7.954 1.319-11.747 3.528-5.936 3.457-8.789 7.658-6.773 11.121 2.161 3.711 7.581 2.211 15.165-.882 11.253-4.566 17.764-5.708 21.797 1.218 4.129 7.091-.306 14.642-9.623 20.067-6.099 3.553-12.158 5.094-17.151 5.241z"/><path fill="#FFF" d="M301.142 440.514c-1.717 0-2.956-.352-3.74-1.699-.382-.655-.491-1.397-.309-2.09.184-.692.646-1.283 1.301-1.664 1.098-.64 2.306-.614 3.704-.592.416.009.85.017 1.297.007 4.212-.074 8.94-1.464 12.974-3.812 3.604-2.099 6.069-4.315 7.326-6.587 1.131-2.042 1.196-4.035.19-5.763-2.252-3.869-6.771-2.863-15.429.679-5.723 2.365-9.73 3.437-12.996 3.474l-.168.001c-3.872 0-6.657-1.551-8.512-4.736-1.958-3.361-1.912-6.854.138-10.383 1.742-2.999 4.872-5.871 9.049-8.304 4.657-2.713 10.229-4.509 14.905-4.807 1.699-.107 2.66.312 3.323 1.454.37.634.484 1.358.322 2.039-.169.712-.635 1.321-1.312 1.715-.901.526-2.041.651-2.957.752l-.061.006c-4.894.503-8.288 1.521-11.717 3.518-2.958 1.723-5.151 3.636-6.343 5.534-1.222 1.944-1.36 3.841-.403 5.484 2.062 3.538 7.087 2.343 15.071-.913 11.356-4.608 17.856-5.678 21.891 1.249 1.988 3.414 2.068 7.124.233 10.73-1.744 3.426-5.162 6.69-9.883 9.439-5.531 3.222-11.636 5.087-17.188 5.252-.242.011-.478.017-.706.017zm.172-5.905c-1.052 0-1.989.082-2.844.58-.622.361-1.059.92-1.231 1.573s-.069 1.355.292 1.976c.746 1.279 1.912 1.726 4.313 1.608h.001c5.527-.164 11.606-2.021 17.116-5.23 4.697-2.735 8.095-5.979 9.825-9.379 1.812-3.559 1.732-7.219-.229-10.586-3.981-6.835-10.433-5.762-21.705-1.187-8.062 3.287-13.144 4.478-15.257.851-.988-1.696-.848-3.646.404-5.641 1.205-1.918 3.417-3.849 6.395-5.583 3.449-2.008 6.861-3.033 11.777-3.537l.061-.007c.901-.099 2.022-.222 2.896-.731.643-.374 1.083-.949 1.243-1.621a2.622 2.622 0 0 0-.306-1.928c-.738-1.268-1.806-1.472-3.185-1.38-4.654.296-10.201 2.085-14.839 4.785-4.155 2.421-7.266 5.273-8.995 8.25-2.021 3.478-2.067 6.921-.139 10.231 1.826 3.137 4.569 4.662 8.383 4.662l.167-.001c3.244-.037 7.235-1.104 12.94-3.462 5.048-2.064 8.026-2.977 10.281-3.149 2.554-.193 4.199.586 5.333 2.533 1.035 1.776.97 3.82-.188 5.911-1.271 2.296-3.755 4.531-7.382 6.644-4.056 2.362-8.811 3.759-13.047 3.834-.453.009-.885 0-1.303-.007-.263-.004-.523-.009-.777-.009z"/><path fill-rule="evenodd" clip-rule="evenodd" d="M356.313 486.511c0 98.031-79.469 177.5-177.5 177.5s-177.5-79.469-177.5-177.5h355z"/><path d="M3.175 489.31a2 2 0 0 1-1.734-2.993L177.67 177.739a2 2 0 0 1 1.736-1.008h.003a2 2 0 0 1 1.736 1.013l175.23 308.578a2 2 0 0 1-3.479 1.975L179.401 182.773 4.913 488.302a2.001 2.001 0 0 1-1.738 1.008z"/><defs><path id="b" d="M942.082 557.491c9.553-32.231 43.425-50.615 75.655-41.062l18.675 5.535c32.231 9.553 50.615 43.425 41.062 75.655l-116.08 391.127c-9.553 32.231-43.425 50.615-75.655 41.062l-18.675-5.535c-32.231-9.553-50.615-43.425-41.062-75.655l116.08-391.127z"/></defs><use xlink:href="#b" overflow="visible" fill-rule="evenodd" clip-rule="evenodd" fill="#FFF"/><path d="M902.855 961.339c-11.984-3.552-18.266-13.573-14.96-24.734 1.546-5.214 5.14-9.621 10.28-11.182l-23.875-7.076c-1.829-.543-2.602-1.966-2.141-3.52.516-1.738 1.911-2.419 3.741-1.876l55.526 16.457c1.83.542 2.602 1.965 2.141 3.52-.514 1.738-1.911 2.419-3.741 1.877l-3.477-1.031c3.577 4.046 4.073 9.765 2.526 14.979-3.306 11.158-14.037 16.138-26.02 12.586zm9.571-32.29c-9.239-2.738-17.06.816-19.419 8.774-2.358 7.958 2.263 15.199 11.502 17.937 9.239 2.738 17.059-.815 19.417-8.773 2.359-7.959-2.261-15.2-11.5-17.938z"/><path fill="#FFF" d="M910.317 962.535c-2.428 0-4.951-.374-7.484-1.124-5.845-1.732-10.552-5.123-13.256-9.547-2.768-4.528-3.374-9.812-1.754-15.28 1.625-5.479 5.388-9.632 10.095-11.159l-23.639-7.006c-1.822-.541-2.683-1.96-2.192-3.614.525-1.765 1.958-2.479 3.835-1.928l55.525 16.457c.903.268 1.586.757 1.973 1.414.38.644.455 1.404.22 2.2-.258.87-.748 1.506-1.417 1.839-.662.331-1.498.36-2.418.089l-3.23-.959c3.196 3.764 4.062 9.161 2.374 14.856-1.62 5.468-5.008 9.567-9.797 11.856-2.651 1.267-5.661 1.906-8.835 1.906zm-7.441-1.268c5.812 1.724 11.567 1.448 16.211-.772 4.749-2.27 8.109-6.338 9.717-11.764 1.703-5.743.788-11.178-2.511-14.908l-.173-.196 3.728 1.105c.882.262 1.68.234 2.309-.078.631-.314 1.094-.919 1.339-1.748.224-.755.153-1.475-.204-2.081-.368-.624-1.021-1.09-1.887-1.346l-55.525-16.457c-1.811-.537-3.144.127-3.647 1.826-.465 1.566.355 2.912 2.091 3.427l24.113 7.147-.239.072c-4.768 1.449-8.592 5.611-10.229 11.133-1.608 5.427-1.007 10.668 1.737 15.159 2.684 4.393 7.361 7.759 13.17 9.481zm7.624-4.513c-1.916 0-3.935-.308-6.012-.923-4.548-1.348-8.055-3.783-10.142-7.042-2.087-3.26-2.575-7.06-1.411-10.988 1.165-3.929 3.645-6.849 7.171-8.444 3.525-1.597 7.795-1.728 12.342-.38 9.289 2.754 13.931 9.999 11.551 18.03-1.165 3.929-3.644 6.85-7.17 8.445-1.915.867-4.05 1.302-6.329 1.302zm-4.064-28.55c-2.258 0-4.372.431-6.269 1.289-3.485 1.577-5.937 4.465-7.088 8.351-1.152 3.886-.67 7.643 1.393 10.864 2.067 3.229 5.546 5.642 10.059 6.979 4.512 1.34 8.743 1.211 12.236-.371 3.484-1.577 5.936-4.465 7.087-8.352 2.354-7.944-2.246-15.115-11.449-17.843-2.062-.611-4.066-.917-5.969-.917z"/><path d="M946.078 877.622c1.555.461 2.262 1.765 1.667 3.778l-9.625 32.474c-.597 2.012-1.901 2.721-3.456 2.26-1.464-.434-2.172-1.739-1.576-3.751.731-2.47 3.555-10.987 4.975-15.442l-29.638-8.785c-1.129 4.143-3.512 13.189-3.972 14.744-.596 2.013-1.901 2.721-3.456 2.26-1.464-.434-2.17-1.737-1.574-3.75l5.071-17.105c.542-1.83 1.964-2.602 3.794-2.06l31.375 9.299c.64-2.498 2.318-9.165 3.051-11.635.594-2.013 1.9-2.721 3.364-2.287zm-57.08 8.258c-3.111-.922-4.326-3.87-3.349-7.163.976-3.293 3.601-5.102 6.712-4.18 3.11.921 4.326 3.87 3.351 7.163-.977 3.294-3.604 5.102-6.714 4.18z"/><path fill="#FFF" d="M935.544 916.344c-.286 0-.587-.046-.902-.139-.762-.227-1.317-.685-1.606-1.324-.308-.68-.313-1.527-.02-2.521.439-1.481 1.649-5.196 2.82-8.789.77-2.362 1.565-4.804 2.132-6.582l-29.491-8.74c-.465 1.71-1.141 4.241-1.795 6.691-.97 3.634-1.887 7.066-2.157 7.98-.296.998-.767 1.705-1.401 2.1-.603.376-1.346.446-2.148.211-1.59-.472-2.197-1.908-1.625-3.844l5.071-17.105c.557-1.877 2.006-2.667 3.888-2.111l31.3 9.278.382-1.495c.764-2.996 2.041-8.011 2.65-10.067.294-.992.762-1.7 1.389-2.103.593-.378 1.308-.459 2.069-.234 1.673.496 2.299 1.907 1.718 3.871l-9.625 32.474c-.475 1.594-1.417 2.449-2.649 2.449zm-27.171-28.282.073.021 29.711 8.807-.023.072c-.568 1.784-1.375 4.261-2.155 6.656-1.17 3.592-2.381 7.305-2.818 8.785-.284.957-.28 1.77.012 2.415.271.6.794 1.029 1.513 1.242 1.579.471 2.808-.336 3.362-2.209l9.625-32.474c.555-1.872-.034-3.215-1.616-3.684-.718-.215-1.392-.14-1.945.217-.596.382-1.042 1.062-1.325 2.019-.609 2.054-1.887 7.066-2.649 10.062l-.401 1.57-.019.075-.075-.021-31.375-9.3c-.881-.263-1.683-.214-2.322.135-.642.348-1.118.996-1.378 1.875l-5.071 17.105c-.555 1.872.001 3.205 1.523 3.656.772.232 1.455.164 2.026-.193.602-.375 1.052-1.053 1.336-2.016.271-.912 1.187-4.344 2.157-7.977.663-2.485 1.35-5.056 1.815-6.766l.019-.072zm-17.797-1.87a5.65 5.65 0 0 1-1.6-.239c-3.052-.906-4.419-3.822-3.4-7.257.491-1.658 1.387-2.942 2.587-3.712 1.234-.793 2.691-.97 4.22-.519 1.525.452 2.65 1.397 3.254 2.733.588 1.3.639 2.864.147 4.523-.837 2.821-2.832 4.471-5.208 4.471zm-1.557-.383c2.963.881 5.627-.78 6.62-4.129.481-1.624.433-3.151-.14-4.419-.585-1.295-1.678-2.212-3.16-2.65-1.485-.441-2.9-.267-4.096.5-1.17.751-2.043 2.005-2.523 3.629-.993 3.348.333 6.189 3.299 7.069z"/><path d="M922.628 819.421c.516-1.737 1.82-2.446 3.284-2.012 1.005.298 1.849 1.145 2.876 2.046l27.425 24.647c1.74 1.511 2.868 2.741 2.218 4.937s-2.267 2.612-4.55 2.93l-36.426 5.723c-1.351.196-2.521.447-3.526.149-1.464-.434-2.172-1.738-1.657-3.476.406-1.373 1.684-1.989 3.638-2.205l35.842-5.1-27.275-23.806c-1.521-1.248-2.256-2.461-1.849-3.833z"/><path fill="#FFF" d="M914.984 858.054c-.377 0-.735-.039-1.078-.141-.751-.223-1.31-.668-1.616-1.288-.313-.635-.345-1.424-.091-2.282.387-1.304 1.562-2.021 3.702-2.258l35.678-5.076-27.151-23.699c-1.663-1.363-2.258-2.606-1.872-3.91.509-1.711 1.83-2.521 3.377-2.063.884.263 1.629.928 2.492 1.697.135.12.271.242.412.365l27.425 24.648c1.734 1.506 2.911 2.747 2.24 5.014-.672 2.266-2.335 2.665-4.611 2.982l-36.425 5.723c-.185.026-.364.055-.542.081-.701.108-1.344.207-1.94.207zm7.716-38.612c-.367 1.238.213 2.431 1.824 3.753l27.4 23.915-.162.023-35.843 5.1c-2.074.229-3.21.913-3.576 2.152-.244.821-.216 1.572.081 2.173.287.582.814 1 1.524 1.21.851.252 1.826.103 2.952-.069.178-.027.358-.056.542-.082l36.425-5.723c2.222-.31 3.844-.697 4.489-2.877.646-2.181-.502-3.389-2.194-4.858l-27.426-24.648c-.141-.123-.277-.245-.412-.365-.85-.758-1.583-1.412-2.436-1.665-1.469-.439-2.7.313-3.188 1.961z"/><path d="m954.619 804.818 12.14 6.384c1.383.708 2.353 1.792 1.894 3.348-.461 1.555-1.648 2.198-3.203 1.737-.457-.135-1.07-.416-1.5-.643l-10.849-5.703-2.088 7.043c-.489 1.647-1.755 2.564-3.31 2.104-1.556-.461-2.117-1.922-1.629-3.568l2.359-7.959-13.678-7.238-2.223 7.501c-.488 1.646-1.755 2.564-3.31 2.104-1.555-.461-2.118-1.921-1.629-3.567l2.522-8.507-11.187-5.903c-1.383-.708-2.355-1.793-1.893-3.348.461-1.555 1.645-2.199 3.2-1.738.458.136 1.073.418 1.502.644l9.896 5.222 4.094-13.813-11.187-5.903c-1.383-.708-2.355-1.793-1.893-3.348.461-1.555 1.647-2.198 3.202-1.738.458.136 1.071.418 1.501.645l9.897 5.222 2.114-7.135c.488-1.646 1.755-2.565 3.31-2.104 1.555.461 2.117 1.922 1.629 3.568l-2.414 8.141 13.678 7.238 2.278-7.684c.488-1.646 1.754-2.565 3.31-2.104 1.555.46 2.118 1.921 1.629 3.568l-2.549 8.598 12.14 6.384c1.383.708 2.355 1.793 1.894 3.348-.461 1.555-1.648 2.199-3.203 1.738-.457-.135-1.07-.417-1.5-.644l-10.849-5.703-4.095 13.813zm-.574-16.192-13.677-7.237-4.094 13.812 13.678 7.238 4.093-13.813z"/><path fill="#FFF" d="M948.491 819.282c-.261 0-.531-.04-.81-.122-.771-.229-1.334-.707-1.628-1.382-.283-.65-.301-1.438-.052-2.28l2.341-7.899-13.542-7.166-2.196 7.413c-.523 1.767-1.862 2.611-3.403 2.154-.771-.229-1.334-.706-1.628-1.382-.283-.649-.301-1.438-.052-2.279l2.504-8.447-11.133-5.874c-1.674-.859-2.342-2.048-1.931-3.437.473-1.592 1.702-2.26 3.294-1.789.481.144 1.117.44 1.517.65l9.814 5.18 4.05-13.666-11.132-5.874c-1.675-.857-2.343-2.046-1.931-3.436.232-.782.656-1.36 1.227-1.67.572-.311 1.286-.35 2.068-.119.48.143 1.116.439 1.515.65l9.816 5.179 2.088-7.047c.524-1.766 1.861-2.611 3.403-2.155.771.229 1.334.707 1.628 1.382.284.65.302 1.438.052 2.279l-2.396 8.083 13.542 7.166 2.251-7.597c.524-1.765 1.86-2.608 3.403-2.154.771.229 1.334.706 1.629 1.382.283.649.301 1.438.052 2.28l-2.532 8.538 12.086 6.356c1.675.857 2.342 2.045 1.931 3.435-.232.782-.657 1.36-1.228 1.67-.572.31-1.285.352-2.069.119-.473-.14-1.092-.427-1.514-.649l-10.768-5.66-4.05 13.665 12.085 6.356c1.674.856 2.342 2.045 1.932 3.436-.232.782-.657 1.359-1.228 1.669-.571.31-1.285.351-2.069.119-.477-.142-1.095-.429-1.514-.649l-10.768-5.66-2.062 6.955c-.428 1.447-1.403 2.277-2.592 2.277zm-13.782-19.068.081.043 13.732 7.268-.018.059-2.358 7.958c-.24.808-.225 1.561.045 2.178.275.633.806 1.082 1.533 1.297 1.457.433 2.718-.376 3.217-2.054l2.114-7.131.081.043 10.849 5.703c.394.208 1.02.499 1.486.638.741.22 1.419.185 1.954-.106.536-.29.936-.837 1.155-1.58.489-1.657-.739-2.688-1.856-3.26l-12.195-6.413.018-.06 4.12-13.9.081.043 10.849 5.703c.415.219 1.023.502 1.486.638.742.22 1.419.183 1.954-.106.536-.291.936-.837 1.155-1.581.491-1.656-.737-2.687-1.855-3.259l-12.196-6.413.018-.06 2.55-8.598c.24-.808.224-1.561-.045-2.178-.276-.633-.807-1.082-1.534-1.297-1.454-.429-2.719.374-3.216 2.053l-2.304 7.772-.081-.043-13.732-7.268.018-.059 2.413-8.142c.24-.807.225-1.56-.045-2.177-.275-.633-.806-1.082-1.533-1.297-1.457-.432-2.718.374-3.216 2.054l-2.141 7.223-.081-.043-9.897-5.222c-.392-.208-1.017-.5-1.487-.639-.743-.221-1.419-.184-1.953.106-.535.29-.935.837-1.154 1.581-.491 1.657.737 2.688 1.855 3.26l11.242 5.931-.018.06-4.12 13.901-.081-.043-9.896-5.223c-.393-.207-1.019-.499-1.489-.639-.743-.221-1.417-.183-1.953.106-.534.291-.934.837-1.153 1.581-.491 1.656.738 2.688 1.855 3.261l11.243 5.931-.018.06-2.521 8.507c-.239.807-.225 1.56.045 2.177.275.633.806 1.082 1.533 1.297 1.454.438 2.719-.374 3.216-2.053l2.248-7.588zm15.289 2.334-.081-.043-13.732-7.267.018-.059 4.12-13.9.081.043 13.73 7.267-.017.059-4.119 13.9zm-13.634-7.384 13.542 7.165 4.05-13.666-13.542-7.165-4.05 13.666z"/><path d="M978.79 765.905c-1.576 1.622-2.762 2.266-4.318 1.805-1.464-.434-2.234-1.856-1.8-3.319.461-1.555 1.819-2.446 3.221-3.822 2.66-2.595 5.36-6.671 6.851-11.702 2.494-8.416.706-13.125-3.044-14.237-4.3-1.274-6.863 2.344-10.856 11.112-4.355 9.656-8.966 16.15-16.559 13.9-7.959-2.359-8.591-11.304-6.07-19.811 1.573-5.305 4.479-10.414 7.54-13.686 1.019-1.091 1.968-1.606 3.341-1.2 1.372.408 2.262 1.765 1.801 3.32-.298 1.006-1.052 1.877-1.663 2.592-2.877 3.327-4.887 6.413-6.134 10.621-1.952 6.586-1.149 11.6 2.693 12.739 4.117 1.221 7.034-3.586 10.436-11.037 5.062-11.038 9.021-16.332 16.705-14.055 7.867 2.332 9.814 10.87 6.751 21.206-2.006 6.77-5.361 12.044-8.895 15.574z"/><path fill="#FFF" d="M975.412 767.929c-.306 0-.624-.047-.961-.146-.727-.216-1.315-.681-1.656-1.31s-.409-1.376-.194-2.104c.361-1.217 1.256-2.028 2.292-2.969.309-.279.627-.569.949-.885 3.015-2.94 5.505-7.194 6.831-11.671 2.263-7.629 1.144-12.916-2.993-14.143-4.285-1.269-6.889 2.557-10.766 11.071-2.546 5.645-4.73 9.173-7.082 11.438-2.852 2.748-5.977 3.566-9.566 2.504-3.729-1.105-6.09-3.681-7.017-7.655-.787-3.378-.478-7.614.896-12.25 1.533-5.168 4.358-10.295 7.558-13.716 1.16-1.242 2.151-1.594 3.417-1.221 1.5.445 2.296 1.913 1.852 3.414-.297 1.002-1.044 1.876-1.644 2.578l-.035.041c-3.22 3.724-4.992 6.793-6.118 10.594-2.024 6.828-1.037 11.556 2.642 12.646 3.93 1.162 6.765-3.151 10.347-10.996 5.107-11.137 9.109-16.376 16.794-14.097 3.787 1.123 6.39 3.769 7.525 7.652 1.079 3.689.828 8.409-.724 13.647-1.819 6.138-4.985 11.68-8.914 15.605-1.167 1.202-2.198 1.973-3.433 1.973zm2.686-33.625c.517 0 1.056.086 1.625.254 4.227 1.254 5.383 6.61 3.095 14.33-1.334 4.5-3.838 8.777-6.87 11.735-.324.317-.645.608-.954.889-1.02.925-1.899 1.724-2.248 2.9-.421 1.419.331 2.806 1.749 3.226 1.423.428 2.57-.062 4.242-1.785h.001c3.912-3.908 7.064-9.428 8.876-15.543 1.545-5.211 1.795-9.9.725-13.562-1.121-3.832-3.688-6.442-7.425-7.55-7.585-2.253-11.544 2.956-16.614 14.015-3.615 7.919-6.499 12.266-10.526 11.078-3.768-1.117-4.793-5.915-2.743-12.833 1.134-3.823 2.915-6.908 6.149-10.648l.034-.041c.591-.691 1.326-1.552 1.613-2.523.421-1.419-.332-2.806-1.75-3.227-1.402-.416-2.321.171-3.265 1.178-3.185 3.405-5.996 8.511-7.522 13.657-1.366 4.61-1.676 8.82-.894 12.173.913 3.918 3.238 6.456 6.913 7.545 3.531 1.051 6.611.238 9.42-2.467 2.337-2.252 4.511-5.765 7.049-11.393 2.261-4.964 3.803-7.67 5.325-9.341 1.271-1.396 2.546-2.067 3.995-2.067z"/><path d="M975.194 717.27c-11.892-3.525-17.805-15.129-14.308-26.929 3.497-11.801 14.779-18.309 26.672-14.784 11.891 3.525 17.807 15.129 14.309 26.929-3.498 11.801-14.782 18.309-26.673 14.784zm10.71-36.132c-9.056-2.684-17.521 2.37-19.988 10.695-2.468 8.324 1.876 17.174 10.932 19.858 9.056 2.684 17.519-2.371 19.987-10.695 2.467-8.324-1.875-17.174-10.931-19.858z"/><path fill="#FFF" d="M981.629 718.296c-2.134 0-4.305-.315-6.457-.953-5.737-1.701-10.343-5.395-12.97-10.398-2.603-4.96-3.096-10.863-1.389-16.624s5.338-10.442 10.224-13.183c4.929-2.767 10.804-3.352 16.542-1.652 5.737 1.701 10.343 5.394 12.97 10.398 2.604 4.96 3.097 10.864 1.39 16.625-1.707 5.76-5.338 10.441-10.224 13.182-3.081 1.728-6.532 2.605-10.086 2.605zm-6.414-1.098c5.699 1.69 11.533 1.107 16.426-1.638 4.852-2.722 8.458-7.372 10.153-13.095 1.696-5.723 1.207-11.587-1.378-16.512-2.607-4.969-7.182-8.636-12.88-10.324-5.697-1.689-11.533-1.106-16.426 1.639-4.852 2.721-8.457 7.371-10.152 13.095-1.696 5.723-1.207 11.586 1.377 16.511 2.607 4.969 7.181 8.636 12.88 10.324zm6.51-4.713c-1.62 0-3.268-.239-4.898-.723-4.33-1.284-7.822-4.072-9.833-7.852-1.962-3.687-2.371-7.984-1.15-12.1 1.22-4.116 3.904-7.497 7.559-9.521 3.745-2.071 8.192-2.506 12.523-1.226 4.329 1.284 7.82 4.072 9.831 7.852 1.961 3.687 2.37 7.984 1.15 12.101-1.221 4.116-3.905 7.496-7.559 9.52a15.667 15.667 0 0 1-7.623 1.949zm-.698-31.992c-2.657 0-5.239.649-7.552 1.93-3.62 2.004-6.279 5.353-7.487 9.432-1.21 4.077-.806 8.334 1.139 11.986 1.992 3.744 5.452 6.506 9.743 7.777 4.288 1.272 8.695.842 12.406-1.213 3.618-2.003 6.277-5.353 7.486-9.431s.805-8.335-1.139-11.987c-1.991-3.744-5.451-6.506-9.741-7.777a17.046 17.046 0 0 0-4.855-.717z"/><path d="M977.493 652.77c-1.491 5.031 1.426 8.283 6.549 9.802l24.333 7.212c1.83.542 2.657 1.782 2.141 3.52-.461 1.555-1.857 2.236-3.686 1.694l-35.126-10.411c-1.83-.542-2.657-1.783-2.141-3.52.461-1.555 1.856-2.236 3.686-1.694l1.464.434c-2.358-2.788-3.008-5.966-1.842-9.9 1.301-4.391 4.379-7.061 8.19-7.822-2.826-3.226-3.852-6.814-2.524-11.296 2.224-7.501 8.055-10.052 17.659-7.205l23.783 7.05c1.83.542 2.657 1.782 2.141 3.52-.46 1.556-1.857 2.236-3.686 1.694l-23.51-6.968c-6.128-1.816-10.083-.899-11.655 4.407-1.491 5.031 1.453 8.192 6.576 9.711l24.333 7.212c1.829.543 2.656 1.782 2.141 3.521-.461 1.555-1.858 2.236-3.687 1.693l-24.333-7.212c-5.124-1.52-9.315-.474-10.806 4.558z"/><path fill="#FFF" d="M1008.017 675.258c-.377 0-.782-.062-1.21-.188l-35.126-10.411c-.939-.278-1.609-.73-1.992-1.345-.392-.63-.459-1.393-.199-2.27.234-.79.708-1.37 1.37-1.68.668-.312 1.501-.332 2.409-.064l1.228.364c-2.267-2.791-2.821-5.993-1.699-9.78 1.233-4.161 4.189-7.015 8.121-7.849-2.942-3.408-3.723-6.993-2.456-11.27 2.265-7.634 8.234-10.076 17.753-7.256l23.783 7.05c.939.278 1.61.73 1.992 1.344.393.63.46 1.393.2 2.27-.233.79-.707 1.371-1.37 1.681-.667.311-1.501.332-2.41.064l-23.51-6.968c-3.189-.945-5.639-1.099-7.49-.469-1.978.674-3.31 2.252-4.071 4.824-.707 2.383-.438 4.438.796 6.106 1.14 1.541 3.067 2.722 5.729 3.511l24.333 7.212c1.905.565 2.704 1.882 2.191 3.614-.234.789-.708 1.37-1.371 1.68-.666.312-1.5.334-2.409.064l-24.333-7.213c-2.663-.791-4.922-.85-6.717-.177-1.944.727-3.288 2.304-3.994 4.687-.709 2.39-.445 4.46.782 6.153 1.142 1.573 3.064 2.77 5.716 3.555l24.332 7.213c.939.278 1.61.73 1.992 1.344.393.629.46 1.393.2 2.27-.37 1.25-1.313 1.934-2.57 1.934zm-35.953-15.994c-.418 0-.803.079-1.141.237-.622.291-1.068.839-1.289 1.587-.248.833-.187 1.556.183 2.147.362.581 1.004 1.012 1.907 1.279l35.126 10.411c1.759.52 3.137-.107 3.593-1.644.248-.834.187-1.557-.183-2.147-.362-.581-1.004-1.011-1.908-1.278l-24.332-7.213c-2.684-.795-4.633-2.011-5.794-3.611-1.257-1.733-1.528-3.848-.806-6.284 1.379-4.646 5.248-6.283 10.898-4.611l24.333 7.213c.873.26 1.669.24 2.303-.056.623-.291 1.069-.84 1.29-1.587.493-1.664-.249-2.882-2.09-3.427l-24.333-7.212c-5.65-1.676-8.004-5.157-6.627-9.805.777-2.622 2.141-4.232 4.167-4.924 1.881-.639 4.359-.488 7.582.467l23.51 6.968c.873.26 1.67.24 2.304-.057.623-.29 1.068-.839 1.289-1.587.248-.833.187-1.556-.183-2.146-.362-.582-1.005-1.012-1.908-1.279l-23.783-7.05c-9.418-2.792-15.328-.385-17.565 7.154-1.264 4.263-.466 7.83 2.509 11.225l.085.098-.127.025c-3.938.787-6.902 3.62-8.132 7.771-1.148 3.874-.568 6.998 1.827 9.83l.162.192-1.705-.505a4.086 4.086 0 0 0-1.162-.181z"/><path d="M1004.405 619.048c-12.166-3.606-17.87-15.248-14.428-26.865 3.336-11.252 13.648-17.847 24.807-14.539 1.738.515 2.684 1.69 2.033 3.886l-9.57 32.291c8.397 1.892 16.212-2.658 18.923-11.806 1.654-5.58 1.054-9.938-.422-14.355-.342-1.196-.949-2.172-.542-3.544.434-1.464 1.857-2.236 3.229-1.829 1.373.406 1.915 1.264 2.578 3.052 1.649 4.171 2.33 10.941.108 18.442-3.66 12.348-14.641 18.845-26.716 15.267zm-1.897-7.031 8.649-29.18c-7.325-1.474-14.035 3.701-16.15 10.837-2.114 7.135.828 14.674 7.501 18.343z"/><path fill="#FFF" d="M1010.922 620.091c-2.148 0-4.347-.321-6.538-.971-5.83-1.729-10.487-5.445-13.112-10.466-2.573-4.923-3.059-10.78-1.366-16.493 1.642-5.536 5.017-10.071 9.504-12.771 4.58-2.758 10.046-3.403 15.397-1.818.935.277 1.593.73 1.956 1.347.4.682.443 1.567.128 2.633l-9.548 32.214c4.057.893 8.126.267 11.46-1.771 3.462-2.118 5.985-5.576 7.296-10 1.807-6.094.802-10.653-.421-14.311a13.129 13.129 0 0 0-.261-.792c-.31-.883-.603-1.716-.282-2.797.438-1.476 1.899-2.299 3.323-1.88 1.413.419 1.973 1.333 2.626 3.099 2 5.059 2.042 11.971.11 18.489-1.785 6.021-5.421 10.87-10.238 13.65-3.031 1.749-6.464 2.638-10.034 2.638zm-1.87-43.219c-3.375 0-6.651.892-9.565 2.646-4.455 2.681-7.806 7.187-9.437 12.687-1.682 5.676-1.2 11.493 1.354 16.381 2.606 4.984 7.23 8.675 13.022 10.391 5.79 1.717 11.635 1.131 16.455-1.653 4.783-2.762 8.395-7.578 10.168-13.563 1.923-6.487 1.883-13.363-.105-18.393-.65-1.755-1.169-2.605-2.529-3.008-1.343-.402-2.723.383-3.136 1.778-.308 1.034-.022 1.846.279 2.704.09.257.184.521.263.798 1.229 3.676 2.24 8.264.422 14.397-1.322 4.46-3.868 7.947-7.362 10.085-3.389 2.072-7.525 2.701-11.649 1.772l-.078-.018.022-.077 9.57-32.291c.305-1.024.267-1.87-.113-2.514-.343-.583-.972-1.013-1.869-1.278a20.067 20.067 0 0 0-5.712-.844zm-6.497 35.256-.082-.045c-6.581-3.618-9.681-11.196-7.537-18.431 2.257-7.614 9.24-12.294 16.236-10.889l.081.016-8.698 29.349zm6.121-29.464c-6.036 0-11.628 4.389-13.596 11.031-2.115 7.136.92 14.61 7.384 18.212l8.598-29.013a12.497 12.497 0 0 0-2.386-.23z"/><path fill-rule="evenodd" clip-rule="evenodd" d="M1080.099 854.754c0 98.031-79.469 177.5-177.5 177.5s-177.5-79.469-177.5-177.5h355z"/><path d="M727.33 857.712a2 2 0 0 1-1.738-2.986l175.267-309.418a1.999 1.999 0 0 1 3.479-.002l175.413 309.137a2.001 2.001 0 0 1-3.479 1.975L902.6 550.35 729.072 856.697a1.997 1.997 0 0 1-1.742 1.015z"/><path fill-rule="evenodd" clip-rule="evenodd" fill="#FFF" d="M881.258 518.02 179.531 165.425l12.818-25.51 362.659 152.823L894.076 492.51z"/><ellipse fill-rule="evenodd" clip-rule="evenodd" fill="#FFF" cx="179.924" cy="145.702" rx="32.5" ry="32.03"/><ellipse fill-rule="evenodd" clip-rule="evenodd" fill="#FFF" cx="903.076" cy="514.489" rx="32.5" ry="32.03"/><g fill-rule="evenodd" clip-rule="evenodd"><path d="M523.173 217.137a16.665 16.665 0 0 0-15.358 10.193l-85.078 201.866c-4.63 10.986 3.436 23.139 15.358 23.139h83.586c9.156 0 16.598-7.387 16.666-16.543l1.492-201.866c.068-9.252-7.413-16.789-16.666-16.789zM657.188 429.196 572.11 227.33a16.667 16.667 0 0 0-15.358-10.193c-9.253 0-16.734 7.537-16.666 16.789l1.492 201.866c.068 9.156 7.509 16.543 16.666 16.543h83.586c11.922 0 19.988-12.153 15.358-23.139z"/></g><path fill-rule="evenodd" clip-rule="evenodd" fill="#2E9AFF" d="M566.921 980.941h-53.917V141.952c0-14.889 12.07-26.958 26.958-26.958 14.889 0 26.958 12.07 26.958 26.958v838.989z"/><path d="M568.922 982.94h-57.917V141.952c0-15.968 12.99-28.958 28.958-28.958s28.959 12.99 28.959 28.958V982.94zm-53.917-4h49.917V141.952c0-13.762-11.196-24.958-24.959-24.958-13.762 0-24.958 11.196-24.958 24.958V978.94z"/><path fill-rule="evenodd" clip-rule="evenodd" fill="#2E9AFF" d="M675 1031.773H405c-28.267 0-51.181-22.915-51.181-51.181 0-28.267 22.915-51.181 51.181-51.181h270c28.267 0 51.181 22.915 51.181 51.181.001 28.266-22.914 51.181-51.181 51.181z"/><path d="M675 1033.773H405c-29.324 0-53.182-23.857-53.182-53.182S375.676 927.41 405 927.41h270c29.324 0 53.182 23.857 53.182 53.182s-23.858 53.181-53.182 53.181zM405 931.41c-27.119 0-49.182 22.062-49.182 49.182s22.062 49.182 49.182 49.182h270c27.119 0 49.182-22.062 49.182-49.182S702.119 931.41 675 931.41H405z"/><circle fill-rule="evenodd" clip-rule="evenodd" fill="#FFF" cx="539.118" cy="143.643" r="16.941"/><path fill-rule="evenodd" clip-rule="evenodd" fill="#2E9AFF" d="M353.818 980.592h372.363v51.181H353.818z"/><path d="M728.182 1033.773H351.818v-55.182h376.363v55.182zm-372.364-4h368.363v-47.182H355.818v47.182z"/><path fill="#FFF" d="M820.079 399.529c0-.93.639-1.685 1.917-1.685 2.324 0 8.076.174 10.284.232v-26.784l-8.773 4.764c-.813.407-1.452.639-2.033.639-.988 0-1.627-.697-1.627-1.685 0-.755.407-1.336 1.453-1.859l10.4-5.113c.697-.349 1.627-.813 2.498-.813 1.046 0 1.627.755 1.627 2.033v28.818c1.743-.058 6.159-.232 7.96-.232 1.278 0 1.917.755 1.917 1.685s-.639 1.685-1.917 1.685h-21.788c-1.279 0-1.918-.756-1.918-1.685zM867.254 394.184c2.324 0 4.125 1.627 4.125 3.834 0 2.208-1.801 3.835-4.125 3.835s-4.125-1.627-4.125-3.835 1.801-3.834 4.125-3.834zM889.794 399.529c0-.93.639-1.685 1.917-1.685 2.324 0 8.076.174 10.284.232v-26.784l-8.773 4.764c-.813.407-1.452.639-2.033.639-.988 0-1.627-.697-1.627-1.685 0-.755.407-1.336 1.453-1.859l10.4-5.113c.697-.349 1.627-.813 2.498-.813 1.046 0 1.627.755 1.627 2.033v28.818c1.743-.058 6.159-.232 7.96-.232 1.278 0 1.917.755 1.917 1.685s-.639 1.685-1.917 1.685h-21.788c-1.279 0-1.918-.756-1.918-1.685zM936.968 394.184c2.324 0 4.125 1.627 4.125 3.834 0 2.208-1.801 3.835-4.125 3.835s-4.125-1.627-4.125-3.835 1.802-3.834 4.125-3.834zM972.697 367.225c6.333 0 11.214 3.602 11.214 9.761 0 6.391-5.636 10.632-12.027 15.571l-7.146 5.519c3.893-.058 17.546-.232 19.696-.232 1.278 0 1.918.755 1.918 1.685s-.639 1.685-1.918 1.685h-23.298c-.929 0-1.801-.581-1.801-1.743 0-.639.29-1.22 1.22-1.917l9.935-7.96c6.042-4.822 9.761-8.134 9.761-12.491 0-4.299-3.486-6.565-7.611-6.565-3.312 0-6.101 1.395-8.715 4.474-.581.697-1.046 1.046-1.859 1.046-.93 0-1.685-.639-1.685-1.569 0-.697.174-1.162.581-1.627 2.149-2.442 6.041-5.637 11.735-5.637zM90.609 17.372C90.609 7.611 95.083 0 103.682 0s13.073 7.611 13.073 17.372c0 9.819-4.474 17.43-13.073 17.43s-13.073-7.611-13.073-17.43zm22.543 0c0-8.076-3.486-14.06-9.47-14.06s-9.47 5.984-9.47 14.06 3.486 14.118 9.47 14.118 9.47-6.042 9.47-14.118zm-12.491 0c0-1.627 1.278-2.847 3.021-2.847s3.021 1.22 3.021 2.847-1.278 2.847-3.021 2.847-3.021-1.22-3.021-2.847zM138.597 26.958c2.324 0 4.125 1.627 4.125 3.834s-1.801 3.835-4.125 3.835-4.125-1.627-4.125-3.835 1.801-3.834 4.125-3.834zM161.138 32.303c0-.93.639-1.685 1.917-1.685 2.324 0 8.076.174 10.284.232V4.067l-8.773 4.764c-.813.407-1.452.639-2.033.639-.988 0-1.627-.697-1.627-1.685 0-.755.407-1.336 1.452-1.859l10.4-5.113c.697-.348 1.626-.813 2.498-.813 1.046 0 1.627.755 1.627 2.033v28.818c1.743-.058 6.159-.232 7.959-.232 1.278 0 1.918.755 1.918 1.685s-.639 1.685-1.918 1.685h-21.787c-1.279-.001-1.917-.756-1.917-1.686zM208.312 26.958c2.324 0 4.125 1.627 4.125 3.834s-1.801 3.835-4.125 3.835-4.125-1.627-4.125-3.835 1.801-3.834 4.125-3.834zM230.039 17.372C230.039 7.611 234.512 0 243.111 0s13.073 7.611 13.073 17.372c0 9.819-4.474 17.43-13.073 17.43s-13.072-7.611-13.072-17.43zm22.542 0c0-8.076-3.486-14.06-9.47-14.06s-9.47 5.984-9.47 14.06 3.486 14.118 9.47 14.118 9.47-6.042 9.47-14.118zm-12.491 0c0-1.627 1.278-2.847 3.021-2.847s3.021 1.22 3.021 2.847-1.278 2.847-3.021 2.847-3.021-1.22-3.021-2.847z"/><path d="m623.287 828.654 238.005-50.778-14.025-65.738-238.005 50.777 37.178 25.731z"/><g fill="#2E9AFF"><path d="m684.76 779.211 6.428 9.793.191-17.056c-.006-.997.265-1.686 1.168-1.881.903-.196 1.585.287 1.792 1.24.098.451.034.885.025 1.57l-.439 18.581c-.058 1.431-.422 1.93-1.376 2.136-.802.174-1.341-.129-2.103-1.225l-7.136-10.638-2.094 12.637c-.241 1.313-.605 1.811-1.408 1.985-.953.206-1.491-.097-2.136-1.375l-8.089-16.733c-.292-.62-.529-.989-.627-1.44-.206-.953.215-1.675 1.118-1.871.903-.196 1.435.32 1.842 1.229l7.233 15.448 1.799-11.576c.191-1.302.523-1.951 1.526-2.169 1.003-.215 1.574.238 2.286 1.345zM723.075 784.932c.185.853-.247 1.524-1.351 1.763l-17.808 3.858c-1.104.239-1.775-.193-1.96-1.046-.174-.802.259-1.474 1.362-1.713 1.354-.293 6.102-1.165 8.571-1.647l-3.521-16.253c-2.247.539-7.13 1.755-7.983 1.939-1.104.239-1.775-.194-1.96-1.046-.174-.802.258-1.474 1.362-1.713l9.38-2.032c1.003-.217 1.736.255 1.953 1.258l3.727 17.206c1.344-.344 4.923-1.276 6.277-1.57 1.106-.238 1.777.194 1.951.996zm-18.657-24.789c-.369-1.706.707-3.041 2.513-3.433 1.806-.391 3.338.38 3.708 2.085.369 1.706-.707 3.041-2.512 3.433-1.807.391-3.339-.38-3.709-2.085zM745.774 780.383l-2.423-11.187c-1.087-5.016-4.108-6.357-7.369-5.651-3.562.772-5.907 3.275-4.81 8.342l2.412 11.136c.217 1.003-.204 1.725-1.157 1.931-.853.185-1.585-.287-1.802-1.29l-4.173-19.262c-.217-1.003.204-1.725 1.157-1.931.853-.185 1.585.287 1.803 1.29l.315 1.455c1.027-2.533 3.4-3.94 6.159-4.538 5.016-1.087 8.979 1.206 10.283 7.226l2.565 11.838c.217 1.003-.204 1.724-1.157 1.931-.853.185-1.586-.287-1.803-1.29zM772.56 774.581l-2.423-11.187c-1.087-5.016-4.108-6.357-7.368-5.651-3.562.772-5.908 3.276-4.81 8.342l2.412 11.136c.217 1.003-.204 1.724-1.157 1.931-.853.185-1.585-.287-1.802-1.29l-4.173-19.262c-.217-1.003.204-1.725 1.157-1.931.853-.185 1.585.287 1.803 1.29l.315 1.455c1.027-2.533 3.4-3.94 6.159-4.538 5.016-1.087 8.979 1.206 10.283 7.226l2.565 11.838c.217 1.003-.204 1.724-1.157 1.931-.854.184-1.587-.287-1.804-1.29zM779.764 762.989c-1.445-6.672 2.571-12.373 8.942-13.753 6.17-1.337 11.948 1.823 13.274 7.943.206.953-.104 1.703-1.307 1.964l-17.708 3.836c1.279 4.449 5.447 6.96 10.463 5.873 3.06-.663 4.96-2.072 6.663-3.911.476-.471.779-1.009 1.531-1.172.803-.174 1.535.298 1.698 1.05.163.752-.101 1.229-.773 2.006-1.541 1.857-4.558 3.928-8.672 4.819-6.771 1.466-12.676-2.033-14.111-8.655zm2.826-2.713 16.002-3.466c-1.199-3.837-5.376-5.663-9.288-4.815-3.913.847-6.709 4.184-6.714 8.281zM830.471 761.668c.185.853-.247 1.524-1.351 1.763l-17.958 3.89c-1.104.239-1.775-.193-1.96-1.046-.174-.802.258-1.474 1.362-1.713 1.505-.326 3.845-.676 5.361-.951l-3.521-16.253c-1.394.354-3.819 1.037-5.274 1.353-1.104.239-1.775-.194-1.96-1.046-.174-.802.258-1.474 1.362-1.713l6.672-1.445c1.003-.217 1.736.255 1.953 1.258l.315 1.455c.711-2.78 3.381-4.514 5.99-5.079 1.605-.348 3.749-.392 5.371.307.75.31 1.16.747 1.301 1.398.185.853-.348 1.546-1.05 1.698-.752.163-1.42-.008-2.098-.229-1.134-.384-2.374-.536-3.779-.232-3.612.782-5.224 4.493-4.257 8.957l1.934 8.929c2.247-.54 7.782-1.896 9.638-2.298 1.104-.238 1.775.194 1.949.997z"/></g><path fill="none" stroke="#FFF" stroke-width="4" stroke-miterlimit="10" d="m847.267 712.138 25.879 121.301"/></svg>