<svg xmlns="http://www.w3.org/2000/svg" fill="none" viewBox="0 0 363 384"><g clip-path="url(#clip0)"><path fill="#FFD829" d="M263.22 354.51c8.14 4.41 16.67 7.25 26.06 6.28 6.013-1.09 19.008-7.572 22.88-24.78 1.6-6.83.21-13.42-.84-19.91-1.47-9.09-4.28-17.95-7.29-26.68-5.08-14.74-9.53-29.6-11.2-45.21-.73-6.85.09-13.35 2.11-19.78.82-2.62 2.43-4.82 4.4-6.79 5.66-5.66 11.7-10.89 18.32-15.35 11.95-8.06 22.84-17.28 32.68-27.78 3.923-3.93 11.77-15.562 11.77-30.65-1.551-17.299-12.65-31.17-28.03-34.53-4.43-.97-8.85-1.87-13.43-1.74-6.52.18-13.03.33-19.55.84-8.11.63-16.27.19-24.44-.57-7.97-.75-15.85-1.69-23.55-3.75-7.58-2.03-13.88-5.85-18.06-12.94-5.99-10.17-11-20.85-16.6-31.22-6.21-11.49-12.24-23.08-19.04-34.23-5.78-9.49-12.28-18.38-23.08-23.07-9.21-4-17.88-3.41-26.51 1.5-8.03 4.57-13.49 11.42-17.78 19.37-7.33 13.58-10.69 28.35-13.15 43.43-1.57 9.62-2.86 19.36-6.36 28.54-6.98 18.3-19.35 30.77-38.88 35.33-10.93 2.55-21.94 4.59-33.03 6.32-8.26 1.28-16.27 3.54-23.79 7.33-17.88 9-22.47 32.73-9.14 47.62 4.98 5.56 10.49 10.6 16.68 14.75 10.875 7.285 21.268 15.219 31.67 23.159l1.22.931c11.58 8.83 21.12 23.37 23.72 36.24 2.6 12.87-.57 28.81-8.44 41.68-.62.87 0 0-1.73 2.69-54.33 65.04-3.1 78.67 24.25 68.87 2.24-1.01 4.52-1.92 6.84-2.75 18.13-7.1 34.07-17.73 49-30.06 8.69-7.18 17.94-13.56 28.02-18.72 13.61-6.97 27.14-6.87 40.8-.25 6.22 3.01 12.21 6.41 18.09 10.04 8.49 5.24 16.62 11.07 25.41 15.84z"/><path fill="#fff" d="M207.22 63.16c-.09 5.73-4.13 10.95-9.35 12.49-5.65 1.66-12.19-.76-15.02-5.95-2.77-5.08-5.04-10.43-7.75-15.55-3.91-7.38-8.28-14.4-14.57-20.16-3.97-3.64-5.43-8.35-3.59-13.86 1.83-5.49 5.68-8.24 11.15-8.98 4.67-.63 8.39 1.62 11.81 4.44 4.69 3.85 8.19 8.75 11.41 13.77 5.47 8.55 10.7 17.26 14.21 26.86.85 2.37 1.96 4.69 1.7 6.94z"/><path fill="#000" d="M203.95 171.9c-.2-3.97.34-8.07 1.82-12.03.77-2.06 1.76-3.98 3.4-5.49 2.92-2.7 6.2-2.81 9.3-.3 1.73 1.4 2.97 3.2 3.82 5.22 3.72 8.83 4.34 17.9 1.48 27.06-1.27 4.06-3.2 8.03-8.24 8.23-5.06.2-7.14-3.72-8.84-7.6-2.08-4.72-2.91-9.71-2.74-15.09zM164 185.44c-.2 3.25-.32 6.5-1.46 9.61-1.23 3.37-2.96 6.43-6.85 6.94-3.94.53-6.34-2.18-8.31-5.09-4.11-6.07-5.13-13.02-5.34-20.14-.11-3.83.41-7.6 1.95-11.13 3.06-7.02 9.25-7.85 13.85-1.73 4.77 6.34 5.93 13.83 6.16 21.54z"/><path fill="#fff" d="M210.05 106.46c-7.24.01-13.57-6.26-13.58-13.48-.01-6.61 6.55-12.31 13.6-12.81 6.21-.44 13.77 6.27 13.52 13.42-.23 6.86-6.45 12.86-13.54 12.87z"/><path fill="#000" d="M182.8 217.95c-3.84-.05-9.74-2.8-14.55-7.95-.73-.78-1.31-1.72-1.84-2.65-.51-.91-.16-1.8.56-2.43.74-.65 1.74-.79 2.5-.2 1.14.88 2.12 1.96 3.16 2.95 10.59 10.01 25.26 5.65 29.58-4.86.69-1.68 1.23-4.53 3.97-3.06 2.33 1.25.97 3.5.2 5.3-3.4 7.93-11.3 12.93-23.58 12.9z"/></g><defs><clipPath id="clip0"><path fill="#fff" d="M0 0h362.19v383.25H0z"/></clipPath></defs></svg>