<svg xmlns="http://www.w3.org/2000/svg" xml:space="preserve" viewBox="0 0 1920 1080"><g fill="#FFF"><path d="M1640.127 878.911zM1843.29 878.911h-199.568l99.784 66.749z"/><path d="m1743.506 950.47-103.379-69.154v135.904h206.757V881.316z"/></g><path d="M1846.884 878.911h-3.595l-82.265 55.031a27.677 27.677 0 0 0-17.519-6.221 27.676 27.676 0 0 0-17.519 6.22l-82.264-55.03h-3.595v2.405l82.874 55.438a27.69 27.69 0 0 0-7.291 18.762c0 8.315 3.656 15.771 9.442 20.865v13.177h36.706V976.38c5.786-5.094 9.442-12.55 9.442-20.865a27.697 27.697 0 0 0-7.29-18.762l82.874-55.438v-2.404zm-116.656 89.175a8.67 8.67 0 1 1 0-17.339 8.67 8.67 0 0 1 0 17.339zm26.444 0a8.67 8.67 0 1 1 0-17.339 8.67 8.67 0 0 1 0 17.339z"/><path fill="#FFF" d="M1843.289 606.339h-199.566l99.783 66.75zM1640.127 606.339z"/><path fill="#FFF" d="m1743.506 677.899-103.379-69.155v135.904h206.757V608.744z"/><path d="M1846.884 608.744v-2.405h-3.595l-99.783 66.75-99.783-66.75h-3.596v2.405l103.379 69.155zM1662.309 698.956h50.669v30.16h-50.669z"/><path fill="#41E847" d="M1678.434 419.587c-5.174-10.962-13.82-18.715-23.724-21.271-16.992-4.387-37.835 2.712-53.057 7.895l-.652.222c-28.78 9.794-51.418 8.854-69.208-2.876-16.621-10.958-23.91-35.125-22.955-56.441l35.768 8.697c7.095 1.724 14.406.533 20.587-3.36 6.18-3.892 10.414-9.971 11.922-17.116l.798-3.771c1.169-4.829 3.182-9.307 5.985-13.31 2.58-3.685 6.735-9.092 11.878-13.923.873-.819 1.781-1.534 2.657-2.225l.259-.203c7.571-5.968 12.561-14.463 14.05-23.92l.033-.17 19.911-84.125 15.563-64.072a2.74 2.74 0 0 1 .135-.96c2.25-9.81-3.94-19.762-13.822-22.102-9.943-2.351-19.948 3.82-22.304 13.756a19.323 19.323 0 0 0-.311 1.714l-.045.238-15.29 62.922a2.798 2.798 0 0 1-1.271 1.725 2.761 2.761 0 0 1-2.123.306l-.179-.048a2.782 2.782 0 0 1-1.994-3.338l16.049-66.113 3.33-13.976c1.617-9.531-4.523-18.802-13.99-21.041a18.426 18.426 0 0 0-14.006 2.261 18.414 18.414 0 0 0-8.3 11.509c-.023.1-.13.534-.294 1.199l-.186.756c-2.022 8.198-3.242 13.217-3.346 13.771l-.036.196-15.297 62.936a2.781 2.781 0 0 1-3.331 2.046l-.173-.041a2.783 2.783 0 0 1-1.728-1.249 2.764 2.764 0 0 1-.333-2.105l15.74-64.807 6.381-25.841c.008-.053.02-.105.032-.158 2.422-10.243-3.783-20.85-13.549-23.166a18.39 18.39 0 0 0-14.001 2.26 18.41 18.41 0 0 0-8.304 11.504c-.026.109-.233.946-.562 2.271l-.349 1.408c-4.926 19.86-6.056 24.515-6.137 24.922a1.944 1.944 0 0 1-.043.215l-15.284 62.884a2.8 2.8 0 0 1-1.271 1.725 2.817 2.817 0 0 1-2.117.306l-.178-.047a2.785 2.785 0 0 1-1.998-3.34l16.358-67.416 2.772-12.21c.909-9.183-5.17-17.703-14.163-19.834-8.999-2.122-18.251 2.775-21.551 11.396l-3.135 12.159a2.92 2.92 0 0 1-.209.555 283.92 283.92 0 0 0-.5 1.989 18.426 18.426 0 0 0-.312 1.706l-.051.269-19.44 80.472a2.772 2.772 0 0 1-3.01 2.104l-.876-.099a2.776 2.776 0 0 1-2.462-2.722l-.662-54.714a2.824 2.824 0 0 1-.114-.778c-.125-10.222-8.539-18.435-18.754-18.311-.455.006-.907.028-1.356.066a18.411 18.411 0 0 0-11.685 5.523 18.403 18.403 0 0 0-5.158 14.896l.015.244 1.298 107.107a58.043 58.043 0 0 0-.117 4.148c.16 12.763 4.399 24.8 12.259 34.808a42.27 42.27 0 0 1 5.771 9.834l.117.285c3.59 8.729 4.263 18.357 1.946 27.842-1.853 7.025-.828 14.313 2.881 20.54 3.708 6.226 9.629 10.597 16.67 12.31l40.566 9.864c-.495 8.821.358 18.018 2.563 26.604 2.754 10.725 8.836 25.354 22.168 34.144 18.89 12.454 42.669 13.541 72.698 3.323l.652-.223c14.744-5.019 34.936-11.894 50.768-7.808 8.749 2.258 16.441 9.221 21.106 19.104 5.126 10.86 5.646 23.322 1.356 32.522-4.724 10.13-23.057 29.151-61.812 36.19-19.115 3.47-48.689 2.553-69.133-11.455-19.629-13.449-48.861-26.721-76.666-13.584-13.672 6.462-25.079 18.199-32.119 33.05-8.357 17.63-13.892 29.269-48.907 28.869l-.047 4c.576.007 1.144.01 1.705.01 36.091 0 42.625-13.785 50.864-31.166 6.645-14.017 17.375-25.078 30.213-31.146 26.089-12.33 53.932.409 72.695 13.266 21.447 14.696 52.25 15.7 72.109 12.092 18.991-3.449 53.994-15.426 64.723-38.437 4.778-10.246 4.256-24.01-1.364-35.917zM1387.289 746.365V528.329h-241.777v549.39h34.508v-60.013h207.269v-212.56H1180.02v-58.781z"/><path fill="#41E847" d="M1085.892 449.397h234.998c36.671 0 66.399 29.728 66.399 66.399v12.815h-306.271"/><path fill="#41E847" d="M1019.538 120.793c-119.645 0-216.635 96.991-216.635 216.635v111.97h433.27v-111.97c-.001-119.645-96.991-216.635-216.635-216.635z"/><path fill="#FFF" d="M1019.538 358.396c-18.393 0-33.357-14.964-33.357-33.357s14.964-33.357 33.357-33.357 33.356 14.964 33.356 33.357-14.964 33.357-33.356 33.357zm0-62.715c-16.189 0-29.359 13.17-29.359 29.359s13.17 29.359 29.359 29.359c16.188 0 29.358-13.17 29.358-29.359-.001-16.189-13.171-29.359-29.358-29.359zM910.112 354.363a31.268 31.268 0 0 0 11.116 2.034c17.318 0 31.357-14.039 31.357-31.357s-14.039-31.357-31.357-31.357c-3.915 0-7.66.724-11.116 2.034v58.646zM1106.731 354.363a31.268 31.268 0 0 0 11.116 2.034c17.318 0 31.357-14.039 31.357-31.357s-14.039-31.357-31.357-31.357c-3.915 0-7.66.724-11.116 2.034v58.646z"/><path d="M910.112 295.717c-26.547 9.137-26.536 49.515 0 58.646 26.547-9.137 26.536-49.515 0-58.646zM1106.731 295.717c-26.547 9.137-26.536 49.515 0 58.646 26.548-9.137 26.537-49.515 0-58.646zM1019.538 389.754c-17.801 0-35.186-4.906-50.272-14.188a1.998 1.998 0 0 1-.655-2.75 1.997 1.997 0 0 1 2.75-.655c14.456 8.894 31.116 13.594 48.177 13.594 17.077 0 33.751-4.709 48.219-13.621a1.999 1.999 0 1 1 2.097 3.405c-15.099 9.3-32.499 14.215-50.316 14.215z"/><path fill="#41E847" d="M646.149 528.612h499.364v549.39H646.149z"/><path d="M1145.512 1080H646.149a1.999 1.999 0 0 1-1.999-1.999v-549.39c0-1.104.895-1.999 1.999-1.999h499.364c1.104 0 1.999.895 1.999 1.999v549.39a2 2 0 0 1-2 1.999zm-497.364-3.998h495.366V530.61H648.148v545.392zM1385.291 805.429h3.998v212.394h-3.998z"/><path d="M1897.042 744.648h-542.26V635.023c0-35.879-29.19-65.068-65.07-65.068h-46.621c-35.88 0-65.07 29.19-65.07 65.068v172.405h719.021c12.935 0 23.458-10.524 23.458-23.458v-15.863c0-12.935-10.524-23.459-23.458-23.459zm19.46 39.321c0 10.731-8.73 19.461-19.461 19.461h-715.023v-54.784h715.023c10.731 0 19.461 8.73 19.461 19.46v15.863z"/><path fill="#41E847" d="M1145.512 528.612H646.149v-21.347c0-31.959 25.908-57.868 57.868-57.868h383.628c31.959 0 57.868 25.908 57.868 57.868v21.347z"/><path d="M1320.889 447.398h-82.718v-109.97c0-58.399-22.742-113.303-64.037-154.598-40.822-40.822-94.947-63.498-152.598-64.012V43.245h-3.998v75.573c-57.652.513-111.777 23.19-152.599 64.012-41.294 41.295-64.036 96.199-64.036 154.598v109.97h-96.917c-32.994 0-59.836 26.842-59.836 59.837v21.377c0 1.104.895 1.999 1.999 1.999h497.365V1080h243.776v-3.998h-239.778V530.61h237.78v216.037h3.998V515.796c-.002-37.715-30.685-68.398-68.401-68.398zm-515.988-109.97c0-57.331 22.326-111.231 62.866-151.771s94.44-62.866 151.771-62.866c57.331 0 111.231 22.326 151.771 62.866s62.866 94.439 62.866 151.771v109.97H804.901v-109.97zm338.612 189.184H648.148v-19.378c0-30.79 25.049-55.839 55.839-55.839h383.689c30.79 0 55.838 25.049 55.838 55.839v19.378zm241.778 0h-237.78v-19.378c0-25.43-15.952-47.191-38.369-55.839h211.748c35.511 0 64.401 28.89 64.401 64.401v10.816z"/><circle cx="1265.834" cy="573.885" r="29.142" fill="#FFF"/><path d="m1265.072 585.577-11.394-10.203 2.667-2.979 8.251 7.388 15.51-19.325 3.118 2.503zM1897.042 1017.22h-542.26V907.133c0-35.88-29.19-65.07-65.07-65.07h-46.621c-35.88 0-65.07 29.19-65.07 65.07V1080h719.021c12.935 0 23.458-10.524 23.458-23.458v-15.863c0-12.935-10.524-23.459-23.458-23.459zm19.46 39.322c0 10.731-8.73 19.461-19.461 19.461h-715.023v-54.784h715.023c10.731 0 19.461 8.73 19.461 19.461v15.862z"/><circle cx="1266.834" cy="845.427" r="29.142" fill="#FFF"/><path d="m1282.836 832.251-2.827-2.826-13.175 13.175-13.175-13.175-2.827 2.826 13.176 13.175-13.176 13.176 2.827 2.826 13.175-13.175 13.175 13.175 2.827-2.826-13.175-13.176z"/><circle cx="1265.834" cy="573.885" r="29.142" fill="#FFF"/><path d="m1265.072 585.577-11.394-10.203 2.667-2.979 8.251 7.388 15.51-19.325 3.118 2.503zM598.121 1079.718H44.206c-24.099 0-43.706-19.606-43.706-43.706v-30.83c0-24.1 19.606-43.706 43.706-43.706h553.916v118.242zM44.206 965.474c-21.895 0-39.708 17.813-39.708 39.708v30.83c0 21.895 17.813 39.708 39.708 39.708h549.918V965.474H44.206z"/><path d="M62.26 1055.366c-19.172 0-34.769-15.597-34.769-34.769 0-19.172 15.597-34.769 34.769-34.769s34.769 15.597 34.769 34.769c0 19.172-15.598 34.769-34.769 34.769zm0-65.54c-16.967 0-30.771 13.804-30.771 30.771s13.804 30.771 30.771 30.771 30.771-13.804 30.771-30.771-13.804-30.771-30.771-30.771zM171.994 1055.366c-19.172 0-34.769-15.597-34.769-34.769 0-19.172 15.597-34.769 34.769-34.769s34.769 15.597 34.769 34.769c0 19.172-15.598 34.769-34.769 34.769zm0-65.54c-16.967 0-30.771 13.804-30.771 30.771s13.804 30.771 30.771 30.771 30.771-13.804 30.771-30.771-13.804-30.771-30.771-30.771zM281.728 1055.366c-19.172 0-34.769-15.597-34.769-34.769 0-19.172 15.597-34.769 34.769-34.769 19.172 0 34.769 15.597 34.769 34.769 0 19.172-15.597 34.769-34.769 34.769zm0-65.54c-16.967 0-30.771 13.804-30.771 30.771s13.804 30.771 30.771 30.771 30.771-13.804 30.771-30.771-13.804-30.771-30.771-30.771zM391.462 1055.366c-19.172 0-34.769-15.597-34.769-34.769 0-19.172 15.597-34.769 34.769-34.769 19.172 0 34.769 15.597 34.769 34.769 0 19.172-15.597 34.769-34.769 34.769zm0-65.54c-16.967 0-30.771 13.804-30.771 30.771s13.804 30.771 30.771 30.771 30.771-13.804 30.771-30.771-13.804-30.771-30.771-30.771zM501.196 1055.366c-19.172 0-34.769-15.597-34.769-34.769 0-19.172 15.597-34.769 34.769-34.769s34.769 15.597 34.769 34.769c0 19.172-15.598 34.769-34.769 34.769zm0-65.54c-16.967 0-30.771 13.804-30.771 30.771s13.804 30.771 30.771 30.771 30.771-13.804 30.771-30.771-13.804-30.771-30.771-30.771z"/><path fill="#41E847" d="M554.796 819.397h496.213v258.322H554.796z"/><path fill="#41E847" d="M585.106 851.81h99.856v34.898h-99.856z"/><path d="M684.962 888.707h-99.856a1.999 1.999 0 0 1-1.999-1.999V851.81c0-1.104.895-1.999 1.999-1.999h99.856c1.104 0 1.999.895 1.999 1.999v34.898a1.999 1.999 0 0 1-1.999 1.999zm-97.857-3.998h95.858v-30.9h-95.858v30.9z"/><path fill="#41E847" d="M699.117 851.81h99.856v34.898h-99.856z"/><path d="M798.973 888.707h-99.856a1.999 1.999 0 0 1-1.999-1.999V851.81c0-1.104.895-1.999 1.999-1.999h99.856c1.104 0 1.999.895 1.999 1.999v34.898a1.999 1.999 0 0 1-1.999 1.999zm-97.857-3.998h95.858v-30.9h-95.858v30.9z"/><path fill="#41E847" d="M585.106 899.658h99.856v34.898h-99.856z"/><path d="M684.962 936.555h-99.856a1.999 1.999 0 0 1-1.999-1.999v-34.898c0-1.104.895-1.999 1.999-1.999h99.856c1.104 0 1.999.895 1.999 1.999v34.898a1.999 1.999 0 0 1-1.999 1.999zm-97.857-3.998h95.858v-30.9h-95.858v30.9z"/><path fill="#41E847" d="M699.117 899.658h99.856v34.898h-99.856z"/><path d="M798.973 936.555h-99.856a1.999 1.999 0 0 1-1.999-1.999v-34.898c0-1.104.895-1.999 1.999-1.999h99.856c1.104 0 1.999.895 1.999 1.999v34.898a1.999 1.999 0 0 1-1.999 1.999zm-97.857-3.998h95.858v-30.9h-95.858v30.9zM940.573 1017.946h82.23v32.925h-82.23z"/><path fill="#41E847" d="M1051.66 819.397H554.796l91.353-93.043h496.864z"/><path d="M1144.856 725.581a1.997 1.997 0 0 0-1.843-1.226H646.149a2 2 0 0 0-1.426.598l-91.353 93.043c-.007.008-.011.018-.018.025a2.012 2.012 0 0 0-.288.397c-.02.036-.04.071-.058.107a1.971 1.971 0 0 0-.169.486c-.003.016-.002.032-.005.048-.019.11-.034.222-.034.337v258.322c0 1.104.895 1.999 1.999 1.999h496.213a1.999 1.999 0 0 0 1.999-1.999V820.864c.025-.023.055-.041.079-.066l91.353-93.043a2 2 0 0 0 .415-2.174zm-95.846 350.139H556.795V821.396h492.215v254.324zm1.812-258.322H559.56l87.428-89.045h491.262l-87.428 89.045z"/><path fill="#FFF" d="M1547.814 606.339h-199.567l99.783 66.75z"/><path fill="#FFF" d="m1448.03 677.899-103.379-69.155v135.904h206.758V608.744z"/><path d="M1551.409 608.744v-2.405h-3.595l-99.784 66.75-99.783-66.75h-3.596v2.405l103.379 69.155zM1366.834 698.956h50.669v30.16h-50.669z"/><path fill="#FFF" d="m286.61 413.816-120.277 159.25 113.404-39.396z"/><path fill="#FFF" d="m399.145 494.305-108.449-81.909-7.121 124.173-117.488 40.816 108.448 81.907z"/><path d="m290.696 412.396-1.919-1.449-2.167 2.869-6.873 119.854-113.404 39.396-2.166 2.869 1.92 1.45 117.488-40.816z"/><path fill="#FFF" d="m350.585 198.052-190.202 60.412 115.307 33.413z"/><path fill="#FFF" d="M395.881 328.784 354.74 199.256l-77.594 97.204-119.462-34.616 41.14 129.528z"/><path d="m156.956 259.552 3.427-1.088M354.74 199.256l-.728-2.292-3.427 1.088-74.895 93.825-115.307-33.413-3.427 1.088.728 2.292 119.462 34.616z"/><circle cx="1886.078" cy="775.756" r="13.919"/><circle cx="1811.623" cy="775.756" r="13.919"/><circle cx="1737.169" cy="775.756" r="13.919"/><circle cx="1662.715" cy="775.756" r="13.919"/><circle cx="1588.26" cy="775.756" r="13.919"/><circle cx="1513.806" cy="775.756" r="13.919"/><circle cx="1439.352" cy="775.756" r="13.919"/><circle cx="1364.897" cy="775.756" r="13.919"/><circle cx="1290.443" cy="775.756" r="13.919"/><circle cx="1215.989" cy="775.756" r="13.919"/><circle cx="1886.078" cy="1048.328" r="13.919"/><circle cx="1811.623" cy="1048.328" r="13.919"/><circle cx="1737.169" cy="1048.328" r="13.919"/><circle cx="1662.715" cy="1048.328" r="13.919"/><circle cx="1588.26" cy="1048.328" r="13.919"/><circle cx="1513.806" cy="1048.328" r="13.919"/><circle cx="1439.352" cy="1048.328" r="13.919"/><circle cx="1364.897" cy="1048.328" r="13.919"/><circle cx="1290.443" cy="1048.328" r="13.919"/><circle cx="1215.989" cy="1048.328" r="13.919"/><path fill="#41E847" d="M678.352 561.427h198.014v134.818H678.352z"/><path d="M876.367 559.428H678.353a1.999 1.999 0 0 0-1.999 1.999v134.818c0 1.104.895 1.999 1.999 1.999h198.014a1.999 1.999 0 0 0 1.999-1.999V561.427a1.999 1.999 0 0 0-1.999-1.999zm-1.999 34.898h-27.599v-30.9h27.599v30.9zM709.65 630.835v28.513h-29.298v-28.513h29.298zm-29.298-3.998v-28.513h29.298v28.513h-29.298zm133.136 0v-28.513h29.283v28.513h-29.283zm29.282 3.998v28.513h-29.283v-28.513h29.283zm-62.562-3.998v-28.513h29.282v28.513h-29.282zm29.282 3.998v28.513h-29.282v-28.513h29.282zm-29.282-36.509v-30.9h29.282v30.9h-29.282zm-33.28 32.511v-28.513h29.282v28.513h-29.282zm29.282 3.998v28.513h-29.282v-28.513h29.282zm-29.282-36.509v-30.9h29.282v30.9h-29.282zm-33.28 32.511v-28.513h29.282v28.513h-29.282zm29.282 3.998v28.513h-29.282v-28.513h29.282zm-29.282-36.509v-30.9h29.282v30.9h-29.282zm29.282 69.02v30.9h-29.282v-30.9h29.282zm3.998 0h29.282v30.9h-29.282v-30.9zm33.28 0h29.282v30.9h-29.282v-30.9zm33.28 0h29.283v30.9h-29.283v-30.9zm0-69.02v-30.9h29.283v30.9h-29.283zm33.28 36.509h27.599v28.513h-27.599v-28.513zm0-3.998v-28.513h27.599v28.513h-27.599zM709.65 563.426v30.9h-29.298v-30.9h29.298zm-29.298 99.92h29.298v30.9h-29.298v-30.9zm166.416 30.899v-30.9h27.599v30.9h-27.599z"/><g fill="#FFF"><path d="M1547.814 878.911h-199.567l99.783 66.749zM1344.651 878.911h.001z"/><path d="m1448.03 950.47-103.379-69.155v135.905h206.758V881.316z"/></g><path d="M1551.409 878.911h-3.595l-82.265 55.03c-4.781-3.887-10.877-6.22-17.519-6.22s-12.738 2.333-17.519 6.22l-82.265-55.03h-3.595v2.405l82.874 55.438a27.692 27.692 0 0 0-7.29 18.762c0 8.314 3.656 15.771 9.442 20.865v13.177h36.706V976.38c5.786-5.094 9.442-12.551 9.442-20.865a27.697 27.697 0 0 0-7.29-18.762l82.874-55.438v-2.404zm-116.657 89.175a8.67 8.67 0 1 1 0-17.339 8.67 8.67 0 0 1 0 17.339zm26.444 0a8.67 8.67 0 1 1 0-17.339 8.67 8.67 0 0 1 0 17.339z"/><path fill="#FFF" d="m128.934 706.52-.028.028a1.98 1.98 0 0 0-1.267.571l-29.808 30.385-14.06 14.006v209.967h199.956V706.52H128.934zm-28.299 33.834 26.432-26.331v36.318h-36.23l9.798-9.987zm179.094 217.125H87.769v-203.14h41.296a1.999 1.999 0 0 0 1.999-1.999v-41.822h148.665v246.961z"/><path d="M231.139 626.837h255.739v338.637H231.139z"/><path fill="#FFF" d="M267.307 663.349h184.19v3.998h-184.19zM267.307 710.212h184.19v3.998h-184.19zM267.307 757.074h184.19v3.998h-184.19zM267.307 850.798h184.19v3.998h-184.19zM267.307 897.659h184.19v3.998h-184.19zM336.517 823.167h-.001.001z"/><path fill="#FFF" d="M332.922 823.167H133.354l99.784 66.75zM129.759 823.167z"/><path fill="#FFF" d="m233.138 894.727-103.379-69.155v135.904h206.758V825.572z"/><path d="M336.517 825.572v-2.405H332.922l-99.784 66.75-99.784-66.75h-3.595v2.405l103.379 69.155z"/><path fill="#FFF" d="M267.307 803.935h184.19v3.998h-184.19zM1095.506 614.482h-161.12c-10.012 0-18.158-8.145-18.158-18.158 0-10.012 8.146-18.158 18.158-18.158h161.12c10.012 0 18.158 8.145 18.158 18.158-.001 10.013-8.146 18.158-18.158 18.158zm-161.12-32.317c-7.808 0-14.16 6.352-14.16 14.16 0 7.807 6.352 14.16 14.16 14.16h161.12c7.807 0 14.16-6.352 14.16-14.16 0-7.807-6.352-14.16-14.16-14.16h-161.12z"/><path fill="#FFF" d="M934.644 594.326h160.862v3.998H934.644zM1095.506 679.505h-161.12c-10.012 0-18.158-8.146-18.158-18.159 0-10.012 8.146-18.158 18.158-18.158h161.12c10.012 0 18.158 8.145 18.158 18.158-.001 10.013-8.146 18.159-18.158 18.159zm-161.12-32.318c-7.808 0-14.16 6.352-14.16 14.16s6.352 14.161 14.16 14.161h161.12c7.807 0 14.16-6.352 14.16-14.161 0-7.807-6.352-14.16-14.16-14.16h-161.12z"/><path fill="#FFF" d="M934.644 659.348h160.862v3.998H934.644z"/><path d="M952.363 615.241v-37.832c0-9.914 8.036-17.95 17.95-17.95s17.95 8.037 17.95 17.95v37.832c0 9.914-8.037 17.95-17.95 17.95-9.914 0-17.95-8.036-17.95-17.95zM1004.853 680.263v-37.832c0-9.914 8.037-17.95 17.95-17.95 9.914 0 17.95 8.037 17.95 17.95v37.832c0 9.914-8.037 17.95-17.95 17.95-9.913 0-17.95-8.036-17.95-17.95z"/><circle cx="62.26" cy="1020.597" r="13.919"/><circle cx="171.994" cy="1020.597" r="13.919"/><circle cx="281.728" cy="1020.597" r="13.919"/><circle cx="391.462" cy="1020.597" r="13.919"/><circle cx="501.196" cy="1020.597" r="13.919"/><path fill="#41E847" d="m439.274 17.582 26.237 109.944H163.933l25.978-110.487z"/><path d="m467.007 127.183-22.5-94.286c5.889-2.751 9.988-8.716 9.988-15.635C454.495 7.743 446.752 0 437.234 0H191.761C182.243 0 174.5 7.743 174.5 17.265c0 6.917 4.1 12.881 9.989 15.632l-22.501 94.286a1.998 1.998 0 0 0 1.944 2.462h301.13a1.999 1.999 0 0 0 1.945-2.462zm-300.542-1.536 21.829-91.472c1.12.229 2.28.35 3.467.35h245.473c1.187 0 2.347-.121 3.468-.35l21.829 91.472H166.465z"/><circle cx="1019.537" cy="22.904" r="22.904" fill="#FFF"/></svg>