<svg xmlns="http://www.w3.org/2000/svg" xml:space="preserve" viewBox="0 0 1080 1080"><path fill="#41E847" d="M1032.805 92.809c-8.189-1.936-16.43 3.146-18.371 11.33a15.82 15.82 0 0 0-.256 1.412l-.037.196-12.594 51.825a2.307 2.307 0 0 1-1.046 1.421 2.269 2.269 0 0 1-1.748.252l-.148-.039a2.292 2.292 0 0 1-1.642-2.75l13.218-54.453 2.743-11.511c1.332-7.85-3.726-15.486-11.523-17.33a15.177 15.177 0 0 0-11.536 1.862 15.17 15.17 0 0 0-6.836 9.48c-.019.082-.107.44-.242.988l-.153.622c-1.666 6.752-2.67 10.886-2.756 11.342l-.03.161-12.599 51.836a2.292 2.292 0 0 1-2.744 1.685l-.142-.034a2.302 2.302 0 0 1-1.424-1.028 2.28 2.28 0 0 1-.274-1.734l12.964-53.378 5.256-21.283c.007-.043.016-.086.026-.13 1.995-8.436-3.116-17.173-11.159-19.081a15.145 15.145 0 0 0-11.532 1.861 15.165 15.165 0 0 0-6.84 9.476c-.021.09-.192.779-.463 1.871l-.287 1.159c-4.057 16.357-4.988 20.191-5.055 20.527a1.835 1.835 0 0 1-.035.177l-12.589 51.794a2.304 2.304 0 0 1-1.047 1.42 2.318 2.318 0 0 1-1.744.252l-.147-.038a2.294 2.294 0 0 1-1.646-2.751l13.473-55.526 2.283-10.057c.749-7.563-4.259-14.581-11.665-16.336-7.412-1.748-15.032 2.286-17.75 9.386L912.125 77.7c-.042.159-.1.312-.172.457-.226.892-.382 1.512-.412 1.638-.102.435-.187.896-.258 1.405l-.042.221-16.012 66.281a2.283 2.283 0 0 1-2.479 1.733l-.721-.081a2.287 2.287 0 0 1-2.028-2.242l-.545-45.065a2.412 2.412 0 0 1-.094-.641c-.103-8.419-7.033-15.184-15.447-15.082a15.91 15.91 0 0 0-1.117.054 15.16 15.16 0 0 0-9.624 4.549 15.159 15.159 0 0 0-4.248 12.27l.012.201 1.069 88.218a47.733 47.733 0 0 0-.097 3.417c.132 10.512 3.623 20.426 10.097 28.669a34.753 34.753 0 0 1 4.753 8.1l.097.235c2.957 7.19 3.511 15.12 1.603 22.932-1.526 5.786-.682 11.789 2.373 16.917 3.054 5.128 7.931 8.729 13.73 10.139l29.415 7.153c-2.225 16.235 2.753 36.008 16.169 44.853 12.614 8.317 28.453 9.057 48.419 2.262l.434-.148c9.619-3.274 22.79-7.755 33.008-5.122 5.561 1.435 10.46 5.883 13.443 12.203 3.289 6.968 3.63 14.947.891 20.822-6.488 13.913-28.305 21.274-40.174 23.43-12.449 2.261-31.697 1.673-44.98-7.428-15.362-10.527-32.129-14.418-46.002-10.67-11.482 3.1-20.667 11.311-26.563 23.746-5.342 11.27-4.979 23.148 1.049 34.35 10.5 19.516 35.533 32.793 53.755 35.38 3.837.544 7.823.948 12.044 1.375 16.973 1.719 36.212 3.667 47.086 16.041 15.952 18.152 16.292 44.871.776 60.828-12.419 12.772-40.088 12.721-69.385 12.706l-4.522-.004v3.985l4.518.004 4.485.003c28.474 0 54.844-.632 67.761-13.915 16.957-17.438 16.676-46.534-.64-66.238-11.908-13.55-31.975-15.583-49.678-17.375-4.179-.423-8.127-.823-11.885-1.356-17.255-2.448-40.926-14.958-50.806-33.322-5.48-10.185-5.802-20.532-.957-30.755 5.457-11.51 13.531-18.779 23.999-21.606 12.746-3.442 28.314.245 42.711 10.11 14.282 9.786 34.755 10.457 47.946 8.063 12.622-2.292 35.898-10.278 43.074-25.668 3.226-6.92 2.882-16.196-.899-24.207-3.49-7.394-9.341-12.628-16.051-14.36-11.368-2.933-25.194 1.772-35.288 5.207l-.434.148c-18.725 6.371-33.424 5.776-44.942-1.816-11.796-7.777-16.301-25.906-14.458-40.576l32.828 7.982c5.844 1.42 11.866.438 16.956-2.768s8.577-8.213 9.82-14.097l.657-3.106a32.262 32.262 0 0 1 4.929-10.963c2.125-3.035 5.547-7.489 9.783-11.468.719-.675 1.467-1.264 2.188-1.833l.214-.167c6.235-4.915 10.345-11.912 11.573-19.702l.027-.14 16.399-69.289 12.819-52.773c-.01-.267.027-.532.111-.791 1.857-8.079-3.241-16.277-11.381-18.204z"/><path d="M34.186 708.095h171.169v275.767H34.186z"/><path d="M207.347 985.856H32.193V706.103h175.154v279.753zM36.179 981.87h167.184V710.088H36.179V981.87z"/><path fill="#FFF" d="M57.419 736.191h125.237v3.985H57.419zM57.419 774.809h125.237v3.985H57.419zM57.419 813.427h125.237v3.985H57.419zM57.419 852.044h125.237v3.985H57.419zM57.419 890.662h125.237v3.985H57.419zM57.419 929.28h125.237v3.985H57.419z"/><path fill="#41E847" d="M917.43 775.046V555.502H718.189v522.505h28.436v-49.455H917.43V823.487H746.625v-48.441z"/><path fill="#41E847" d="M669.057 490.224h193.655c30.22 0 54.718 24.498 54.718 54.718v10.561H665.041M645.009 219.43c-98.596 0-178.523 79.927-178.523 178.523v92.271h357.046v-92.271c0-98.596-79.927-178.523-178.523-178.523z"/><circle cx="645.009" cy="136.651" r="18.874" fill="#FFF"/><path fill="#FFF" d="M645.01 415.578c-15.347 0-27.833-12.486-27.833-27.833 0-15.347 12.486-27.833 27.833-27.833s27.833 12.486 27.833 27.833c0 15.347-12.486 27.833-27.833 27.833zm0-51.682c-13.15 0-23.848 10.699-23.848 23.848s10.699 23.848 23.848 23.848 23.848-10.699 23.848-23.848-10.699-23.848-23.848-23.848zM563.995 361.903c-3.227 0-6.312.596-9.16 1.677 9.749 3.698 16.681 13.119 16.681 24.164s-6.932 20.466-16.681 24.164a25.778 25.778 0 0 0 9.16 1.677c14.271 0 25.841-11.569 25.841-25.841 0-14.271-11.57-25.841-25.841-25.841zM726.024 361.903c-3.227 0-6.312.596-9.16 1.677 9.749 3.698 16.681 13.119 16.681 24.164s-6.932 20.466-16.681 24.164a25.778 25.778 0 0 0 9.16 1.677c14.271 0 25.841-11.569 25.841-25.841-.001-14.271-11.57-25.841-25.841-25.841z"/><path d="M554.834 363.58c-21.877 7.529-21.868 40.804 0 48.329 21.878-7.53 21.868-40.805 0-48.329zM716.863 363.58c-21.877 7.529-21.868 40.804 0 48.329 21.877-7.53 21.868-40.805 0-48.329zM645.01 441.419c-14.734 0-29.123-4.061-41.609-11.744a1.991 1.991 0 0 1-.653-2.741 1.99 1.99 0 0 1 2.741-.653c11.858 7.295 25.525 11.152 39.521 11.152 14.01 0 27.688-3.864 39.555-11.173a1.993 1.993 0 0 1 2.09 3.394c-12.498 7.697-26.897 11.765-41.645 11.765z"/><path fill="#41E847" d="M376.445 555.502h341.743v522.505H376.445z"/><path d="M718.189 1080H376.446c-1.1 0-1.993-.892-1.993-1.993V555.502c0-1.1.892-1.993 1.993-1.993h341.743c1.1 0 1.993.892 1.993 1.993v522.505a1.994 1.994 0 0 1-1.993 1.993zm-339.751-3.985h337.758v-518.52H378.438v518.52zM915.438 823.487h3.985v204.929h-3.985z"/><path d="M1058.213 773.054H890.986v-115.4c0-33.177-26.991-60.168-60.167-60.168H804.8c-33.176 0-60.167 26.991-60.167 60.168V825.48h313.581c12.013 0 21.787-9.773 21.787-21.787v-8.853c-.001-12.013-9.774-21.786-21.788-21.786zm17.802 30.639c0 9.815-7.986 17.801-17.801 17.801H748.618v-44.456h309.595c9.815 0 17.801 7.986 17.801 17.801v8.854z"/><circle cx="1037.656" cy="799.267" r="11.471"/><circle cx="976.3" cy="799.267" r="11.471"/><circle cx="914.945" cy="799.267" r="11.471"/><circle cx="853.589" cy="799.267" r="11.471"/><circle cx="792.233" cy="799.267" r="11.471"/><path d="M1058.213 1027.574H890.986V912.173c0-33.176-26.991-60.167-60.167-60.167H804.8c-33.176 0-60.167 26.991-60.167 60.167V1080h313.581c12.013 0 21.787-9.773 21.787-21.786v-8.853c-.001-12.013-9.774-21.787-21.788-21.787zm17.802 30.64c0 9.815-7.986 17.801-17.801 17.801H748.618v-44.455h309.595c9.815 0 17.801 7.986 17.801 17.801v8.853z"/><path fill="#41E847" d="M718.189 555.502H376.445v-11.733c0-29.572 23.973-53.546 53.546-53.546h234.652c29.572 0 53.546 23.973 53.546 53.546v11.733z"/><circle cx="818.167" cy="857.469" r="24.015" fill="#FFF"/><path d="m804.725 846.855 2.818-2.818 24.043 24.044-2.817 2.818z"/><path d="m804.725 868.08 24.044-24.043 2.817 2.818-24.043 24.044z"/><circle cx="817.342" cy="598.79" r="24.015" fill="#FFF"/><path d="m816.755 608.925-9.66-8.65 2.658-2.97 6.527 5.845 12.555-15.64 3.107 2.494zM303.156 1080H40.461C18.151 1080 0 1061.849 0 1039.538v-17.206c0-22.311 18.151-40.461 40.461-40.461h262.695V1080zM40.461 985.856c-20.113 0-36.476 16.363-36.476 36.476v17.206c0 20.114 16.363 36.477 36.476 36.477h258.71v-90.159H40.461z"/><path d="M56.346 1059.932c-15.989 0-28.997-13.008-28.997-28.997s13.008-28.997 28.997-28.997 28.997 13.008 28.997 28.997-13.008 28.997-28.997 28.997zm0-54.009c-13.792 0-25.012 11.22-25.012 25.012s11.22 25.012 25.012 25.012 25.012-11.22 25.012-25.012-11.22-25.012-25.012-25.012zM146.775 1059.932c-15.989 0-28.997-13.008-28.997-28.997s13.008-28.997 28.997-28.997 28.997 13.008 28.997 28.997-13.009 28.997-28.997 28.997zm0-54.009c-13.792 0-25.012 11.22-25.012 25.012s11.22 25.012 25.012 25.012 25.012-11.22 25.012-25.012-11.221-25.012-25.012-25.012z"/><path fill="#41E847" d="M301.164 865.131h339.147v212.876H301.164z"/><path fill="#41E847" d="M321.216 890.342h91.877v32.109h-91.877z"/><path d="M413.093 924.443h-91.877c-1.1 0-1.993-.892-1.993-1.993v-32.109c0-1.1.892-1.993 1.993-1.993h91.877c1.1 0 1.993.892 1.993 1.993v32.109a1.993 1.993 0 0 1-1.993 1.993zm-89.884-3.985H411.1v-28.123h-87.891v28.123z"/><path fill="#41E847" d="M426.117 890.342h91.877v32.109h-91.877z"/><path d="M517.994 924.443h-91.876c-1.1 0-1.993-.892-1.993-1.993v-32.109c0-1.1.892-1.993 1.993-1.993h91.876c1.1 0 1.993.892 1.993 1.993v32.109a1.994 1.994 0 0 1-1.993 1.993zm-89.884-3.985h87.891v-28.123H428.11v28.123z"/><path fill="#41E847" d="M321.216 934.367h91.877v32.109h-91.877z"/><path d="M413.093 968.468h-91.877c-1.1 0-1.993-.892-1.993-1.993v-32.109c0-1.1.892-1.993 1.993-1.993h91.877c1.1 0 1.993.892 1.993 1.993v32.109a1.993 1.993 0 0 1-1.993 1.993zm-89.884-3.985H411.1V936.36h-87.891v28.123z"/><path fill="#41E847" d="M426.117 934.367h91.877v32.109h-91.877z"/><path d="M517.994 968.468h-91.876c-1.1 0-1.993-.892-1.993-1.993v-32.109c0-1.1.892-1.993 1.993-1.993h91.876c1.1 0 1.993.892 1.993 1.993v32.109a1.994 1.994 0 0 1-1.993 1.993zm-89.884-3.985h87.891V936.36H428.11v28.123zM544.998 1025.931h75.659v30.294h-75.659z"/><path fill="#41E847" d="M640.848 865.131H301.164l75.281-76.674h339.684z"/><path d="M862.712 488.231h-37.188v-90.278c0-98.87-79.901-179.417-178.522-180.491v-61.937h-3.985v61.937c-98.621 1.073-178.523 81.62-178.523 180.491v90.278h-34.7c-30.515 0-55.341 24.826-55.341 55.341v11.931c0 1.1.892 1.992 1.992 1.992h339.75v228.979c-.023-.001-.044-.01-.067-.01H376.446c-.535 0-1.047.215-1.421.596l-75.282 76.675c-.006.006-.009.014-.015.021-.115.12-.21.257-.292.402-.02.035-.039.068-.056.104a1.957 1.957 0 0 0-.169.486c-.003.016-.002.032-.005.049a1.95 1.95 0 0 0-.034.335v212.876c0 1.1.892 1.992 1.992 1.992h339.147a1.992 1.992 0 0 0 1.993-1.992V866.493l73.892-75.261V1080H917.43v-3.985H720.181v-518.52h195.256v205.373h3.985V544.941c.001-31.27-25.439-56.71-56.71-56.71zm-224.394 587.784H303.156v-208.89h335.162v208.89zm1.694-212.876h-334.1l71.368-72.69h334.1l-71.368 72.69zM468.479 397.953c0-97.34 79.191-176.531 176.531-176.531 97.339 0 176.53 79.191 176.53 176.531v90.278H468.479v-90.278zM716.196 553.51H378.438v-9.938c0-28.318 23.038-51.355 51.356-51.355H664.84c28.318 0 51.356 23.038 51.356 51.355v9.938zm199.242 0H720.181v-9.938c0-23.242-14.41-43.17-34.759-51.355H862.711c29.073 0 52.726 23.653 52.726 52.726v8.567z"/><path fill="#FFF" d="M1054.981 633.546H853.557l100.713 67.37z"/><path fill="#FFF" d="m954.27 705.711-104.296-69.768v137.139h208.591V635.943z"/><path d="M1058.565 635.943v-2.397h-3.584l-100.711 67.37-100.713-67.37h-3.583v2.397l104.296 69.768zM872.353 726.984h51.119v30.428h-51.119z"/><path fill="#FFF" d="M56.388 841.711h208.591v139.536H56.388z"/><path d="M160.683 913.876 55.28 843.367l2.216-3.312 103.187 69.026 103.188-69.026 2.217 3.312z"/><path fill="#FFF" d="m59.554 261.606 205.838-33.834 22.632 137.695L82.187 399.3z"/><path d="M174.168 315.891 58.724 263.41l1.65-3.627L173.39 311.16l90.626-84.85 2.725 2.909z"/><path fill="#FFF" d="m119.98 436.772 179.076 106.944-71.54 119.792L48.44 556.563z"/><path d="m172.5 552.228-54.34-114.579 3.6-1.709 53.197 112.173 123.985-6.354.204 3.98z"/><circle cx="1037.656" cy="1053.787" r="11.471"/><circle cx="976.3" cy="1053.787" r="11.471"/><circle cx="914.945" cy="1053.787" r="11.471"/><circle cx="853.589" cy="1053.787" r="11.471"/><circle cx="792.233" cy="1053.787" r="11.471"/><path fill="#41E847" d="M400.332 584.589h108.314v179.188H400.332z"/><path d="M508.646 582.596H400.333c-1.1 0-1.993.892-1.993 1.993v179.189c0 1.1.892 1.993 1.993 1.993h108.314c1.1 0 1.993-.892 1.993-1.993V584.589a1.994 1.994 0 0 0-1.994-1.993zm-1.992 28.758h-22.276v-24.773h22.276v24.773zm-81.112 34.286v26.315h-23.217V645.64h23.217zm-23.217-3.985v-26.316h23.217v26.316h-23.217zm23.217 34.285v26.315h-23.217V675.94h23.217zm0 30.3v26.316h-23.217V706.24h23.217zm31.41-3.985V675.94h23.441v26.315h-23.441zm23.441 3.985v26.316h-23.441V706.24h23.441zm-23.441-34.285V645.64h23.441v26.315h-23.441zm0-30.3v-26.316h23.441v26.316h-23.441zm-27.425 60.6V675.94h23.44v26.315h-23.44zm23.44 3.985v26.316h-23.44V706.24h23.44zm-23.44-34.285V645.64h23.44v26.315h-23.44zm0-30.3v-26.316h23.44v26.316h-23.44zm0-30.301v-24.773h23.44v24.773h-23.44zm23.44 125.187v25.244h-23.44v-25.244h23.44zm3.985 0h23.441v25.244h-23.441v-25.244zm0-125.187v-24.773h23.441v24.773h-23.441zm27.426 94.886h22.276v26.316h-22.276V706.24zm0-3.985V675.94h22.276v26.315h-22.276zm0-30.3V645.64h22.276v26.315h-22.276zm0-30.3v-26.316h22.276v26.316h-22.276zm-58.836-55.074v24.773h-23.217v-24.773h23.217zm-23.217 149.96h23.217v25.244h-23.217v-25.244zm82.053 25.244v-25.244h22.276v25.244h-22.276z"/><g fill="#FFF"><path d="M1054.981 888.053H853.557l100.713 67.371zM1058.565 888.053v.001z"/><path d="m954.27 960.219-104.296-69.768v137.139h208.591V890.451z"/></g><path d="M1058.565 888.054h-3.584l-83.017 55.534a27.921 27.921 0 0 0-17.694-6.291c-6.71 0-12.868 2.36-17.694 6.291l-83.018-55.534h-3.583v2.398l83.626 55.941a27.935 27.935 0 0 0-7.372 18.946c0 8.388 3.688 15.911 9.526 21.051v13.294h37.032v-13.295c5.838-5.139 9.526-12.662 9.526-21.05a27.937 27.937 0 0 0-7.372-18.946l83.626-55.941v-2.398zM940.874 978.02a8.746 8.746 0 1 1 0-17.493 8.746 8.746 0 0 1 0 17.493zm26.678 0a8.746 8.746 0 1 1 0-17.491 8.746 8.746 0 0 1 0 17.491z"/><path fill="#FFF" d="M679.413 622.458H541.772c-7.1 0-12.875-5.775-12.875-12.875v-4.867c0-7.1 5.775-12.875 12.875-12.875h137.642c7.1 0 12.875 5.776 12.875 12.875v4.867c0 7.1-5.776 12.875-12.876 12.875zm-137.641-26.632c-4.902 0-8.89 3.988-8.89 8.89v4.867c0 4.902 3.988 8.89 8.89 8.89h137.642c4.902 0 8.89-3.988 8.89-8.89v-4.867c0-4.902-3.988-8.89-8.89-8.89H541.772z"/><path fill="#FFF" d="M544.418 605.157H676.98v3.985H544.418z"/><path d="M559.02 620.022v-25.744c0-6.746 5.469-12.215 12.215-12.215 6.746 0 12.215 5.469 12.215 12.215v25.744c0 6.746-5.469 12.215-12.215 12.215-6.747 0-12.215-5.469-12.215-12.215z"/><path fill="#FFF" d="M679.413 686.875H541.772c-7.1 0-12.875-5.775-12.875-12.875v-4.868c0-7.099 5.775-12.874 12.875-12.874h137.642c7.1 0 12.875 5.776 12.875 12.874V674c0 7.099-5.776 12.875-12.876 12.875zm-137.641-26.632c-4.902 0-8.89 3.987-8.89 8.889V674c0 4.902 3.988 8.89 8.89 8.89h137.642c4.902 0 8.89-3.988 8.89-8.89v-4.868c0-4.902-3.988-8.889-8.89-8.889H541.772z"/><path fill="#FFF" d="M544.418 669.574H676.98v3.985H544.418z"/><path d="M571.234 684.438v-25.744c0-6.746 5.469-12.215 12.215-12.215 6.746 0 12.215 5.469 12.215 12.215v25.744c0 6.746-5.469 12.215-12.215 12.215-6.746 0-12.215-5.468-12.215-12.215z"/><path fill="#FFF" d="M679.413 751.144H541.772c-7.1 0-12.875-5.775-12.875-12.875v-4.868c0-7.1 5.775-12.875 12.875-12.875h137.642c7.1 0 12.875 5.776 12.875 12.875v4.868c0 7.099-5.776 12.875-12.876 12.875zm-137.641-26.633c-4.902 0-8.89 3.988-8.89 8.89v4.868c0 4.902 3.988 8.89 8.89 8.89h137.642c4.902 0 8.89-3.988 8.89-8.89v-4.868c0-4.902-3.988-8.89-8.89-8.89H541.772z"/><path fill="#FFF" d="M544.418 733.843H676.98v3.985H544.418z"/><path d="M652.826 748.707v-25.744c0-6.746 5.469-12.215 12.215-12.215 6.746 0 12.215 5.469 12.215 12.215v25.744c0 6.746-5.469 12.215-12.215 12.215-6.746 0-12.215-5.469-12.215-12.215z"/><circle cx="56.346" cy="1030.935" r="11.471"/><circle cx="146.775" cy="1030.935" r="11.471"/><path d="M238.121 1059.932c-15.989 0-28.997-13.008-28.997-28.997s13.008-28.997 28.997-28.997c15.99 0 28.998 13.008 28.998 28.997s-13.008 28.997-28.998 28.997zm0-54.009c-13.792 0-25.012 11.22-25.012 25.012s11.22 25.012 25.012 25.012 25.013-11.22 25.013-25.012-11.221-25.012-25.013-25.012z"/><circle cx="238.121" cy="1030.935" r="11.471"/><path fill="#41E847" d="m271.333 63.34 24.259 101.653H51.967L76.226 63.34zM76.226 0v63.34h195.005V0"/><path d="m297.53 164.53-20.184-84.579c7.384-1.926 12.858-8.633 12.858-16.612 0-9.406-7.599-17.063-16.979-17.175V0h-3.985v46.154H78.218V0h-3.985v46.17c-9.333.166-16.877 7.798-16.877 17.17 0 7.979 5.473 14.685 12.857 16.612L50.03 164.53a1.992 1.992 0 0 0 1.939 2.455h243.624a1.99 1.99 0 0 0 1.937-2.455zM54.491 163l19.686-82.493c.122.002.24.018.363.018h198.478c.123 0 .241-.016.363-.018L293.068 163H54.491z"/></svg>