<svg width="1000" height="1000" viewBox="0 0 1000 1000" fill="none" xmlns="http://www.w3.org/2000/svg">
<g clip-path="url(#clip0_1638_243)">
<mask id="mask0_1638_243" style="mask-type:alpha" maskUnits="userSpaceOnUse" x="0" y="10" width="993" height="994">
<path d="M938.378 10.9009H54.0541C24.2009 10.9009 0 35.1018 0 64.9549V949.279C0 979.135 24.2009 1003.33 54.0541 1003.33H938.378C968.234 1003.33 992.432 979.135 992.432 949.279V64.9549C992.432 35.1018 968.234 10.9009 938.378 10.9009Z" fill="white"/>
</mask>
<g mask="url(#mask0_1638_243)">
<path d="M472.254 237.633C472.254 237.633 392.795 231.056 351.533 251.777C325.948 271.867 320.903 309.615 320.903 309.615L309.281 532.948L306.038 549.434L248.921 565.2L237.389 580.876L180.182 614.84L189.281 633.038L231.443 655.38L262.074 663.579L259.641 678.533L237.299 722.317L180.993 795.11L142.975 853.849L102.434 943.939L87.5693 1001.06H937.838L932.793 967.092L911.351 910.065L884.056 852.137L805.497 743.849L773.245 696.732L687.209 542.047L624.326 258.353L592.885 248.443L525.047 224.479L487.029 205.38L485.407 212.047L487.029 224.479L496.128 234.389L472.164 237.633H472.254V237.633Z" fill="white"/>
<path d="M237.295 722.321L252.253 699.524L261.262 704.029L283.784 722.321L306.307 735.56L346.847 758.083L387.388 776.101L432.433 789.615L463.964 794.119L500 798.624H554.054L594.595 794.119L639.64 785.11L680.181 771.596L711.712 753.578L752.253 731.056L779.28 708.533L805.493 743.853L884.052 852.141L911.348 910.069L932.789 967.096L937.834 1001.06H87.5654L102.43 943.943L142.971 853.853L180.989 795.114L237.295 722.321Z" fill="#41E847"/>
<path d="M749.188 702.677C818.197 755.831 887.296 731.326 887.296 731.326C887.296 731.326 782.611 673.218 762.611 605.02C762.611 605.02 781.17 614.299 796.305 605.02C796.305 605.02 722.161 525.831 718.827 423.038C715.494 320.335 822.431 97.9927 796.305 85.3801C770.179 72.7675 617.746 252.948 617.746 252.948L595.854 246.281C595.854 246.281 525.944 297.632 525.133 414.75C524.233 531.777 610.179 562.948 642.251 592.407C684.323 631.146 680.088 649.614 749.188 702.677V702.677Z" fill="#020202"/>
<path d="M407.029 428.353C396.488 469.795 368.56 498.533 344.777 492.407C320.903 486.371 310.092 447.903 320.632 406.371C331.173 364.93 359.011 336.281 382.795 342.407C406.759 348.353 417.479 386.912 407.029 428.353V428.353Z" fill="white"/>
<path d="M440.899 372.498C475.404 514.84 284.233 558.714 284.233 558.714C284.233 558.714 311.89 482.858 296.034 362.498C280.269 242.047 183.242 97.9932 218.557 97.9932C253.962 97.9932 406.395 230.245 440.899 372.588V372.498V372.498Z" fill="#020202"/>
<path fill-rule="evenodd" clip-rule="evenodd" d="M531.35 223.759C539.458 227.813 547.386 231.236 554.143 232.858C574.481 237.787 594.539 243.801 614.233 250.876C616.219 251.588 618.201 252.308 620.179 253.038L620.449 253.128H620.63L619.458 256.371L618.287 259.525L617.927 259.344C615.98 258.669 614.028 258.008 612.071 257.362C592.586 250.328 572.737 244.344 552.612 239.434C545.044 237.633 536.576 233.849 528.287 229.705C523.152 227.092 517.927 224.299 512.972 221.597L504.864 217.182C501.35 215.38 498.197 213.759 495.404 212.498C492.969 211.393 490.392 210.635 487.747 210.245C487.747 210.606 487.747 211.326 488.017 212.678C489.777 219.832 493.1 226.509 497.747 232.227C498.184 232.837 498.635 233.438 499.098 234.029L504.053 239.885L448.287 237.002C447.403 236.938 446.579 236.53 445.993 235.865C445.407 235.2 445.105 234.332 445.152 233.447C445.199 232.562 445.592 231.731 446.246 231.132C446.899 230.533 447.762 230.215 448.648 230.245L489.639 232.407L488.738 230.966C485.404 225.785 482.939 220.095 481.44 214.119C480.81 211.326 480.539 208.173 482.521 205.831C484.503 203.398 487.657 203.308 489.909 203.669C492.341 204.029 495.134 205.02 498.107 206.371C501.17 207.633 504.503 209.344 508.017 211.236L516.395 215.741L531.35 223.759V223.759ZM622.612 257.453C621.981 259.254 620.089 260.155 618.287 259.525L619.458 256.371L620.63 253.218C622.431 253.849 623.332 255.741 622.612 257.453V257.453Z" fill="black"/>
<path d="M332.524 417.902C332.524 393.307 349.101 373.397 369.461 373.397C389.912 373.397 406.398 393.307 406.398 417.902C406.398 442.497 389.822 462.497 369.461 462.497C349.101 462.497 332.524 442.497 332.524 417.902ZM559.191 423.488C559.191 398.893 575.678 378.983 596.128 378.983C616.488 378.983 633.065 398.893 633.065 423.488C633.065 448.082 616.488 468.082 596.128 468.082C575.678 468.082 559.191 448.082 559.191 423.488V423.488Z" fill="white"/>
<path fill-rule="evenodd" clip-rule="evenodd" d="M372.345 514.389C373.516 515.83 373.336 517.992 371.985 519.164C350.723 537.272 317.39 550.155 283.516 559.254C252.657 567.264 221.295 573.194 189.642 577.001C180.903 578.083 173.786 582.587 170.093 588.263C166.489 593.668 166.039 600.425 170.723 607.182C188.021 631.596 229.012 663.488 326.489 666.461C408.561 668.983 463.696 655.38 498.201 641.236C511.218 636.049 523.633 629.464 535.228 621.596C539.05 618.959 542.691 616.07 546.129 612.947L546.309 612.767L548.651 610.335L551.084 612.767H551.174C551.762 613.411 552.394 614.013 553.066 614.569C554.417 615.56 556.309 617.001 558.561 618.443C563.246 621.326 569.372 623.848 575.498 623.578C576.382 623.531 577.248 623.837 577.907 624.428C578.566 625.019 578.963 625.847 579.012 626.731C579.035 627.169 578.973 627.607 578.827 628.021C578.681 628.434 578.456 628.815 578.163 629.141C577.87 629.467 577.516 629.733 577.12 629.922C576.725 630.111 576.296 630.221 575.858 630.245C567.75 630.785 560.273 627.452 555.138 624.209C552.435 622.587 550.273 620.965 548.831 619.704C545.738 622.386 542.489 624.882 539.102 627.182C530.994 632.857 518.381 640.245 500.723 647.542C465.318 661.956 409.282 675.74 326.309 673.218C227.39 670.245 184.057 637.722 165.228 611.056C158.921 601.956 159.462 592.137 164.507 584.569C167.306 580.593 170.926 577.265 175.123 574.809C179.319 572.354 183.994 570.828 188.831 570.335C213.516 567.272 248.201 561.866 281.714 552.767C315.408 543.758 347.57 531.146 367.57 514.029C369.012 512.857 371.174 512.947 372.345 514.389V514.389Z" fill="black"/>
<path d="M343.065 403.488C347.3 387.002 358.381 375.56 367.75 377.993C377.209 380.425 381.534 395.74 377.39 412.227C373.155 428.623 362.074 440.065 352.615 437.632C343.155 435.2 338.921 419.884 343.065 403.398V403.488ZM569.732 408.263C573.966 391.776 585.047 380.335 594.507 382.857C603.966 385.2 608.2 400.515 604.056 417.002C599.912 433.398 588.741 444.839 579.372 442.407C569.912 439.975 565.588 424.749 569.732 408.173V408.263V408.263Z" fill="black"/>
<path fill-rule="evenodd" clip-rule="evenodd" d="M235.316 716.641C249.37 696.011 258.199 678.353 259.009 662.137L265.766 662.407C264.865 680.695 254.955 699.704 240.901 720.425C231.432 734.013 221.608 747.351 211.442 760.425C204.054 770.065 196.307 780.245 188.469 791.056C149.46 844.299 107.208 912.047 92.1625 1004.75L85.5859 1003.67C100.901 909.434 143.694 840.695 182.973 787.002L206.307 756.011C217.117 741.866 227.027 728.984 235.316 716.641ZM791.352 716.641C777.388 696.011 768.469 678.353 767.658 662.137L760.991 662.407C761.892 680.695 771.712 699.704 785.766 720.425C794.145 732.767 804.325 746.101 815.226 760.425C822.613 770.065 830.361 780.245 838.199 791.056C877.298 844.299 919.46 912.047 934.505 1004.75L941.081 1003.67C925.766 909.434 882.973 840.695 843.694 787.002L820.361 756.011C809.55 741.866 799.64 728.984 791.352 716.641Z" fill="black"/>
<path fill-rule="evenodd" clip-rule="evenodd" d="M235.316 716.641C249.37 696.011 258.199 678.353 259.009 662.137L265.766 662.407C264.865 680.695 254.955 699.704 240.901 720.425C231.432 734.013 221.608 747.351 211.442 760.425C204.054 770.065 196.307 780.245 188.469 791.056C149.46 844.299 107.208 912.047 92.1625 1004.75L85.5859 1003.67C100.901 909.434 143.694 840.695 182.973 787.002L206.307 756.011C217.117 741.866 227.027 728.984 235.316 716.641Z" fill="black"/>
<path fill-rule="evenodd" clip-rule="evenodd" d="M250 700.154L252.252 697.632L254.505 695.199H254.595L254.865 695.379C256.33 696.743 257.832 698.064 259.369 699.343C262.703 702.046 267.477 705.92 273.784 710.515C291.099 723.184 309.282 734.624 328.198 744.749C374.865 769.974 440.811 795.379 518.468 797.001C611.061 798.673 701.342 768.027 773.784 710.334L776.126 712.857L778.378 715.289L778.288 715.379L778.018 715.65C776.553 716.896 775.051 718.097 773.513 719.253C770.45 721.866 765.856 725.469 759.82 729.704C689.288 779.488 604.694 805.435 518.378 803.758C439.279 802.046 372.252 776.19 324.955 750.695C300.344 737.447 276.976 722.009 255.135 704.569C253.522 703.212 251.931 701.83 250.36 700.424L250.09 700.244V700.154H250V700.154Z" fill="black"/>
<path fill-rule="evenodd" clip-rule="evenodd" d="M232.163 752.226C232.794 750.424 234.686 749.523 236.397 750.064C256.848 756.46 282.163 770.784 308.469 788.172C334.956 805.739 362.704 826.73 387.929 846.82C416.478 869.705 444.387 893.378 471.623 917.812L475.046 920.875L520.271 799.253C520.425 798.839 520.659 798.459 520.959 798.135C521.26 797.811 521.621 797.55 522.023 797.366C522.424 797.182 522.858 797.079 523.3 797.063C523.741 797.046 524.181 797.117 524.595 797.271C525.01 797.425 525.389 797.658 525.713 797.959C526.037 798.259 526.298 798.621 526.482 799.022C526.666 799.424 526.769 799.858 526.786 800.299C526.802 800.741 526.731 801.181 526.577 801.595L477.929 932.587L474.145 929.164L476.487 926.731L474.145 929.254L473.965 928.983L473.695 928.803L472.343 927.542L467.118 922.857C440.004 898.477 412.184 874.893 383.695 852.136C358.271 831.579 331.97 812.131 304.866 793.847C278.559 776.37 253.875 762.586 234.415 756.46C233.985 756.337 233.584 756.128 233.236 755.846C232.712 755.422 232.328 754.849 232.137 754.203C231.945 753.556 231.954 752.867 232.163 752.226V752.226Z" fill="black"/>
<path fill-rule="evenodd" clip-rule="evenodd" d="M816.396 752.226C816.262 751.804 816.047 751.413 815.761 751.075C815.475 750.737 815.126 750.459 814.732 750.258C814.338 750.057 813.907 749.936 813.466 749.903C813.025 749.87 812.581 749.924 812.162 750.064C791.801 756.46 766.396 770.785 740.09 788.172C712.768 806.564 686.257 826.132 660.63 846.821C632.081 869.705 604.172 893.379 576.936 917.812L573.513 920.875L528.288 799.253C527.976 798.417 527.346 797.739 526.535 797.368C525.725 796.996 524.8 796.961 523.963 797.271C523.549 797.425 523.169 797.658 522.846 797.959C522.522 798.259 522.26 798.621 522.076 799.022C521.892 799.424 521.789 799.858 521.773 800.299C521.757 800.741 521.827 801.181 521.981 801.595L570.63 932.587L574.414 929.164L572.162 926.731L574.414 929.254L574.684 928.984L574.864 928.803L576.216 927.542L581.441 922.857C608.55 898.471 636.369 874.887 664.864 852.136C689.999 832.046 717.567 811.145 743.783 793.848C769.999 776.37 794.774 762.586 814.144 756.46C815.945 755.92 816.936 754.028 816.396 752.226V752.226Z" fill="black"/>
<path d="M205.133 571.326L252.25 565.47C252.25 565.47 252.25 586.461 221.98 599.164C191.62 611.777 191.62 632.768 191.62 632.768L162.971 603.308L167.205 586.461L177.296 576.371L205.133 571.326V571.326Z" fill="black"/>
</g>
</g>
<defs>
<clipPath id="clip0_1638_243">
<rect width="1000" height="1000" fill="white"/>
</clipPath>
</defs>
</svg>
