<svg xmlns="http://www.w3.org/2000/svg" viewBox="0 0 1920 1080" xml:space="preserve"><path stroke="#000" stroke-miterlimit="10" d="M1918.746 416.124c0 229.244-194.529 396.145-432.763 364.593-227.399-30.118-284.419-142.623-343.282-364.191C1090.317 219.344 1274.016 1.04 1503.404 1.04s415.342 185.839 415.342 415.084z"/><path fill="#FFD829" d="M1501.868 64.548c-196.532 0-356.196 157.733-359.167 353.436-59.421 15.606-115.62 46.669-162.199 93.22-57.689 57.653-91.612 130.052-101.814 205.055-46.402-119.248-137.104-221.48-262.324-279.769-36.433-16.959-73.836-29.272-111.545-37.217l-18.066-26.021-14.45-20.579c-8.284-16.648-4.59-40.054-1.729-52.299 8.354-24.564 8.504-52.057-1.471-78.176a118.968 118.968 0 0 0-3.279-7.631l-60.29-158.071a43.11 43.11 0 0 0-1.173-3.604c-8.034-21.005-31.581-31.523-52.596-23.501-21.012 8.027-31.536 31.557-23.514 52.56.028.054-.149.119-.149.119l25.183 66.268c-.634.044-1.284.12-1.922.166l-87.605-125.36a41.492 41.492 0 0 0-2.028-3.238C248.851 1.469 223.455-3.039 205.007 9.84c-18.44 12.864-22.953 38.245-10.064 56.674.024.042 45.455 67.753 45.455 67.753l.918 1.248a91.6 91.6 0 0 1-.918-1.248c-12.877-18.432-37.518-22.395-55.97-9.527-18.328 12.798-22.888 37.952-10.296 56.358l-.282-.395c-12.941-18.389-38.954-22.512-57.404-9.648-18.441 12.884-22.164 37.771-9.283 56.196.017.021-.02.062-.058.096l-29.688-42.49a40.088 40.088 0 0 0-2.028-3.238c-12.883-18.427-38.276-22.939-56.726-10.054-18.442 12.868-22.951 38.248-10.07 56.673.037.04-.126.153-.126.153l55.541 79.486 52.553 75.187c11.135 15.949 22.331 30.813 34.86 44.234 15.093 16.144 32.121 30.189 53.4 41.443 17.532 9.276 33.596 21.671 47.925 35.378l28.841 35.69c7.966 167.145 132.365 357.547 297.406 425.534 67.513 27.811 137.924 37.81 206.023 32.203 19.711 46.965 66.151 79.955 120.303 79.955 52.302 0 97.404-30.777 118.185-75.193 106.719 20.354 221.166.831 319.086-63.579 62.259-40.953 110.484-95.215 143.393-156.554 5.267.229 10.561.352 15.884.352 198.388 0 359.213-160.725 359.213-358.99S1700.256 64.548 1501.868 64.548zM125.907 254.113l-18.946-27.116 31.567 44.719-12.621-17.603zm68.939-43.533L175.9 183.464l31.567 44.719-12.621-17.603zm65.232-48.096-18.946-27.116 31.567 44.719-12.621-17.603zm-85.367 19.419c.316.421.725.971.725.971l3.336 4.607a1453.682 1453.682 0 0 1-4.061-5.578z"/><path stroke="#000" stroke-miterlimit="10" d="M905.319 1079.996c-53.098 0-100.744-31.271-121.893-79.819-70.479 5.526-139.571-5.416-205.384-32.526-78.92-32.51-153.043-95.185-208.715-176.481-54.063-78.944-86.076-167.846-90.194-250.426l-28.228-34.933c-15.353-14.668-31.251-26.398-47.252-34.865-19.754-10.447-37.436-24.167-54.056-41.944-10.996-11.779-21.815-25.505-35.083-44.51l-52.553-75.186L6.42 229.82a2.492 2.492 0 0 1-.396-.917c-6.222-9.307-8.565-20.463-6.601-31.521 2.019-11.362 8.344-21.258 17.811-27.862 9.468-6.612 20.945-9.143 32.316-7.126 11.369 2.017 21.272 8.336 27.886 17.797a42.473 42.473 0 0 1 2.094 3.332l17.848 25.544c-2.046-15.21 4.181-30.656 17.638-40.057 15.806-11.021 36.344-10.345 50.981.23-4.496-17.047 1.784-35.919 17.001-46.545 13.881-9.68 30.913-10.35 44.528-3.132-29.683-44.24-33.97-50.632-34.627-51.621l-.002.002c-6.615-9.459-9.147-20.926-7.128-32.29 2.018-11.362 8.343-21.256 17.809-27.859 9.469-6.61 20.949-9.14 32.316-7.122 11.37 2.018 21.273 8.34 27.884 17.805.69.986 1.357 2.048 2.093 3.33l80.361 114.994-20.463-53.846a2.486 2.486 0 0 1-.162-.957c-7.906-22.04 3.286-46.541 25.267-54.938 22.27-8.504 47.308 2.688 55.82 24.94a45.409 45.409 0 0 1 1.214 3.713l60.215 157.878a121.24 121.24 0 0 1 3.309 7.71c9.767 25.572 10.313 53.89 1.545 79.759-2.808 12.069-6.298 34.501 1.48 50.337l14.34 20.422 17.509 25.218c38.146 8.114 75.525 20.625 111.113 37.191 118.634 55.223 210.711 151.772 260.16 272.521 12.142-75.131 46.995-143.181 101.158-197.31 44.815-44.788 100.622-77.05 161.502-93.383 1.919-94.673 40.125-183.372 107.707-249.956 68.102-67.096 158.28-104.047 253.922-104.047 48.83 0 96.2 9.558 140.795 28.408 43.073 18.207 81.755 44.271 114.973 77.469 33.218 33.197 59.298 71.855 77.517 114.9 18.862 44.567 28.426 91.908 28.426 140.707s-9.564 96.14-28.426 140.707c-18.218 43.046-44.299 81.705-77.517 114.901-33.217 33.198-71.9 59.262-114.973 77.469-44.595 18.85-91.965 28.408-140.795 28.408-4.705 0-9.55-.097-14.427-.289-33.934 62.695-83.518 116.641-143.478 156.081-71.809 47.234-154.375 71.752-238.644 71.754-26.72.001-53.611-2.465-80.387-7.451-10.593 21.808-26.927 40.29-47.339 53.537-21.516 13.961-46.507 21.341-72.274 21.341zm-120.302-84.944c.998 0 1.91.597 2.301 1.53 19.995 47.641 66.313 78.424 118.001 78.424 24.799 0 48.85-7.102 69.553-20.537 20.172-13.091 36.207-31.493 46.37-53.217a2.49 2.49 0 0 1 2.73-1.394c110.551 21.081 223.218-1.365 317.246-63.212 59.706-39.274 109.004-93.097 142.565-155.65.453-.844 1.356-1.337 2.308-1.314 5.333.232 10.64.35 15.776.35 95.283 0 184.862-37.082 252.237-104.415s104.48-156.857 104.48-252.08c0-95.222-37.105-184.746-104.48-252.079S1597.151 67.044 1501.868 67.044c-94.322 0-183.255 36.441-250.416 102.611-67.092 66.101-104.827 154.307-106.254 248.368a2.496 2.496 0 0 1-1.862 2.375c-60.734 15.951-116.431 47.961-161.069 92.57-55.579 55.544-90.54 125.957-101.106 203.628a2.496 2.496 0 0 1-4.801.568c-48.077-123.555-140.787-222.43-261.051-278.411-35.546-16.547-72.894-29.008-111.006-37.038a2.5 2.5 0 0 1-1.536-1.019L484.7 374.674l-14.442-20.569a2.487 2.487 0 0 1-.192-.322c-8.607-17.297-4.9-41.243-1.925-53.978.019-.08.041-.158.067-.236 8.436-24.802 7.924-51.964-1.44-76.482a115.824 115.824 0 0 0-3.208-7.463 2.546 2.546 0 0 1-.072-.17L403.201 57.385a2.437 2.437 0 0 1-.072-.219 41.074 41.074 0 0 0-1.105-3.398c-7.523-19.669-29.672-29.565-49.368-22.046-19.689 7.522-29.591 29.656-22.072 49.339.114.301.169.622.164.943l24.872 65.448a2.492 2.492 0 0 1-2.162 3.375c-.304.021-.613.051-.922.08-.332.031-.665.062-.994.086a2.489 2.489 0 0 1-2.226-1.059L261.711 24.572a2.573 2.573 0 0 1-.121-.192 38.459 38.459 0 0 0-1.906-3.045c-5.848-8.372-14.607-13.964-24.664-15.749-10.059-1.786-20.209.453-28.584 6.3-8.373 5.84-13.967 14.591-15.752 24.64-1.785 10.051.454 20.192 6.304 28.558l.037.055c.422.635 44.081 65.705 45.418 67.698l.865 1.174.013.017.006.009c.126.172.227.355.304.544l31.107 44.067a2.496 2.496 0 0 1-4.069 2.892l-12.62-17.603-.018-.024-18.946-27.116a2.534 2.534 0 0 1-.237-.419 73.139 73.139 0 0 1-.486-.665l-.004-.006c-11.996-17.174-35.054-21.086-52.502-8.921-17.11 11.948-21.446 35.68-9.664 52.904.083.123.155.25.214.38.109.101.21.212.302.335l.962 1.298c.097.097.187.205.27.321l2.855 3.993c.083.115.155.235.216.358l28.496 40.368a2.497 2.497 0 0 1-4.069 2.892l-.02-.027-12.601-17.575-.018-.024-17.58-25.161a1363.26 1363.26 0 0 1-2.531-3.483 2.497 2.497 0 0 1-.252-.434 2.551 2.551 0 0 1-.332-.376l-.301-.422c-12.137-17.248-36.333-21.301-53.929-9.031-17.139 11.974-20.952 35.111-8.687 52.688.071.097.133.198.188.301l31.192 44.186a2.496 2.496 0 0 1-4.069 2.892l-12.62-17.603-.018-.024-18.372-26.293a2.524 2.524 0 0 1-.431-.473l-29.688-42.49a2.791 2.791 0 0 1-.126-.2 37.557 37.557 0 0 0-1.902-3.038c-5.85-8.367-14.609-13.957-24.665-15.741-10.06-1.783-20.21.455-28.584 6.303-8.374 5.842-13.968 14.594-15.753 24.644-1.786 10.05.452 20.191 6.3 28.555.188.27.322.576.394.896l55.022 78.744 52.553 75.187c13.128 18.806 23.811 32.362 34.639 43.961 16.234 17.364 33.486 30.756 52.742 40.94 16.449 8.704 32.761 20.742 48.484 35.782.077.073.149.152.216.235l28.841 35.69c.334.411.526.919.552 1.448 3.903 81.9 35.64 170.209 89.366 248.661 55.13 80.504 128.465 142.541 206.497 174.685 65.634 27.037 134.561 37.812 204.867 32.023.068-.006.137-.009.205-.009zm357.684-577.067h.01-.01z"/><path stroke="#000" stroke-miterlimit="10" d="M878.667 718.752a2.496 2.496 0 0 1-2.476-2.831c10.711-78.741 46.171-150.14 102.546-206.48 62.862-62.823 146.315-100.188 234.986-105.209a2.477 2.477 0 0 1 2.634 2.35 2.496 2.496 0 0 1-2.351 2.633c-87.445 4.952-169.744 41.8-231.738 103.755-55.596 55.563-90.566 125.975-101.129 203.625a2.498 2.498 0 0 1-2.472 2.157z"/><path stroke="#000" stroke-miterlimit="10" d="m232.97 488.287 235.09-162.45 51.077 73.914-235.09 162.45z" stroke-width="1.00001"/><g fill="#FFF"><path d="M1467.295 301.944c2.973 2.302 6.331 3.12 10.293 2.283 1.024-.226 1.655-.163 2.398.413.796.616 1.087 1.776.429 2.625-.535.689-1.035.897-1.735 1.033-5.323 1.058-10.068-.493-13.73-3.329-7.857-6.083-7.836-16.085-.35-25.741 7.485-9.656 17.13-12.122 24.987-6.039 3.662 2.836 6.351 7.04 6.655 12.455.043.712-.033 1.248-.568 1.937-.658.849-1.854.858-2.65.241-.743-.575-.963-1.17-1-2.217-.178-4.044-1.81-7.089-4.783-9.391-5.576-4.317-12.799-2.778-19.297 5.604-6.498 8.382-6.225 15.81-.649 20.126zM1496.397 303.846c6.91-8.913 16.386-12.698 24.243-6.615 7.857 6.083 6.557 16.199-.353 25.113-6.952 8.966-16.427 12.752-24.284 6.669-7.857-6.084-6.558-16.2.394-25.167zm20.546 15.908c5.717-7.375 6.82-15.265 1.353-19.499-5.469-4.234-12.836-1.194-18.553 6.18-5.717 7.375-6.863 15.317-1.395 19.552 5.467 4.234 12.878 1.142 18.595-6.233zM1520.082 343.75l20.853-26.899c.823-1.061 1.954-1.204 3.017-.382l5.574 4.316c9.397 7.276 9.092 17.313 2.305 26.067-6.704 8.648-16.394 11.504-25.791 4.228l-5.574-4.316c-1.063-.822-1.207-1.953-.384-3.014zm4.226 1.235 3.663 2.836c7.911 6.124 15.455 2.967 20.514-3.56 5.06-6.525 6.275-14.669-1.636-20.794l-3.663-2.836-18.878 24.354zM1551.773 368.288l20.853-26.9c.823-1.06 1.953-1.204 3.016-.382l17.466 13.524c1.168.905 1.217 2.046.559 2.895s-1.776 1.087-2.944.182c-2.442-1.891-12.141-9.654-15.763-12.544l-8.185 10.559c3.704 2.784 10.158 7.61 11.909 8.966 1.168.905 1.216 2.046.559 2.895-.658.849-1.776 1.087-2.944.182-1.752-1.356-7.775-6.189-11.662-9.285l-8.719 11.249c4.023 3.03 13.648 10.228 16.09 12.119 1.168.904 1.217 2.046.559 2.895-.657.849-1.776 1.087-2.944.182l-17.466-13.524c-1.063-.822-1.207-1.953-.384-3.013zM1607.809 365.912l7.486 5.796c5.893 4.562 9.386 11.342 4.41 17.763-3.99 5.146-9.551 5.086-14.615 2.523l-.73 15.736c-.057 1.059-.214 1.701-.708 2.337-.657.849-1.748.94-2.596.283-.85-.658-.905-1.465-.843-2.86l1.179-17.85-5.946-4.604-8.76 11.301c-.905 1.167-2.088 1.27-3.044.53-.956-.741-1.099-1.87-.194-3.037l21.346-27.537c.824-1.059 1.954-1.203 3.015-.381zm5.183 8.768-5.946-4.604-9.296 11.991 5.946 4.604c4.778 3.699 9.661 4.084 12.664.211 3.003-3.874 1.41-8.504-3.368-12.202zM1615.768 417.666c-.681-1.97-.865-3.047-.084-4.055.617-.796 1.801-.899 2.598-.282.796.617 1.039 1.399 1.614 3.288.947 2.941 2.826 5.669 5.639 7.847 4.247 3.289 9.816 4.543 12.818.671 2.55-3.29.476-7.188-3.688-12.45-5.638-7.081-7.922-12.246-3.85-17.498 3.702-4.775 10.748-4.33 16.535.151 3.609 2.795 6.439 6.599 7.4 10.399.266.971.362 1.724-.214 2.467-.657.849-1.776 1.087-2.732.347-.691-.534-.922-1.223-1.294-2.276-.948-2.941-2.745-5.775-5.558-7.953-4.459-3.452-8.653-3.304-10.873-.439-2.673 3.448.044 7.505 3.48 11.949 5.546 7.095 8.5 12.268 4.222 17.787-4.442 5.73-11.953 5.009-18.536-.089-4.142-3.206-6.422-6.84-7.477-9.864zM1439.24 344.485c7.485-9.656 16.916-12.288 25.146-5.915 4.088 3.165 6.18 7.587 6.674 10.346.198 1.172.37 2.154-.206 2.897-.781 1.009-1.977 1.017-2.88.318-.531-.411-.749-1.005-.898-1.799-.715-4.119-2.274-6.601-5.034-8.738-6.265-4.851-13.575-2.105-19.457 5.482-5.882 7.588-6.373 15.782-.267 20.509 2.388 1.85 5.465 3.468 8.365 3.675l6.786-8.755c-2.111-1.55-3.68-2.594-5.272-3.828-1.168-.905-1.217-2.046-.559-2.895.657-.849 1.776-1.087 2.944-.182l6.583 5.098c1.062.822 1.204 1.951.382 3.013l-8.103 10.452c-.658.849-1.417 1.28-2.436 1.17-4.225-.469-7.49-2.063-10.995-4.777-8.07-6.249-8.259-16.414-.773-26.071zM1471.195 369.227c6.91-8.913 16.387-12.698 24.244-6.614 7.857 6.083 6.556 16.198-.354 25.112-6.951 8.966-16.427 12.752-24.284 6.669-7.857-6.085-6.557-16.201.394-25.167zm20.545 15.908c5.717-7.374 6.821-15.264 1.354-19.499-5.468-4.234-12.837-1.194-18.554 6.18-5.717 7.375-6.863 15.318-1.395 19.552 5.468 4.235 12.878 1.141 18.595-6.233zM1511.676 426.041c-.903-.7-.917-1.56-.76-2.966l3.599-34.231-17.686 22.814c-.905 1.168-2.089 1.27-3.045.529-.955-.74-1.098-1.869-.193-3.036l21.8-28.121c.987-1.273 2.076-1.364 2.872-.747.902.699.916 1.558.76 2.965l-3.641 34.284 17.728-22.868c.905-1.167 2.089-1.269 3.044-.529.956.74 1.099 1.869.194 3.037l-21.8 28.12c-.987 1.276-2.076 1.365-2.872.749zM1543.526 450.701c-.903-.699-.917-1.559-.76-2.965l3.599-34.231-17.686 22.814c-.905 1.167-2.089 1.269-3.045.529-.955-.74-1.098-1.869-.193-3.036l21.8-28.121c.987-1.273 2.076-1.364 2.872-.747.902.698.916 1.558.76 2.965l-3.641 34.283 17.728-22.867c.905-1.168 2.089-1.269 3.044-.53.956.741 1.099 1.87.194 3.037l-21.8 28.121c-.987 1.274-2.076 1.365-2.872.748zM1557.504 458.637l14.231-18.357c5.511-7.109 12.298-9.071 19.254-3.686 6.954 5.384 6.75 12.444 1.239 19.553l-14.231 18.357c-.905 1.168-2.09 1.269-3.045.529-.956-.74-1.099-1.869-.194-3.037l7.239-9.337-14.016-10.852-7.239 9.338c-.905 1.167-2.035 1.31-2.991.57-.956-.74-1.152-1.911-.247-3.078zm31.182-19.073c-4.832-3.74-9.312-2.454-13.753 3.276l-4.689 6.048 14.016 10.852 4.689-6.049c4.441-5.73 4.568-10.386-.263-14.127zM1416.891 432.707c2.973 2.301 6.332 3.119 10.294 2.282 1.024-.226 1.655-.163 2.398.413.796.617 1.086 1.776.428 2.624-.534.69-1.034.898-1.735 1.034-5.322 1.058-10.067-.493-13.729-3.33-7.858-6.083-7.836-16.084-.351-25.74 7.486-9.656 17.13-12.123 24.988-6.04 3.662 2.836 6.351 7.04 6.655 12.455.043.712-.033 1.248-.569 1.937-.657.849-1.853.858-2.649.241-.743-.575-.963-1.17-1-2.216-.178-4.044-1.81-7.09-4.783-9.392-5.576-4.316-12.799-2.778-19.298 5.604-6.497 8.383-6.224 15.811-.649 20.128zM1445.993 434.609c6.91-8.913 16.387-12.698 24.244-6.615 7.857 6.084 6.556 16.199-.354 25.113-6.951 8.966-16.426 12.752-24.283 6.668-7.857-6.084-6.557-16.199.393-25.166zm20.546 15.908c5.717-7.374 6.821-15.264 1.354-19.499-5.469-4.234-12.837-1.194-18.554 6.18-5.717 7.375-6.862 15.318-1.395 19.552 5.467 4.234 12.878 1.142 18.595-6.233zM1469.679 474.513l20.853-26.9c.823-1.06 1.954-1.204 3.016-.382l5.574 4.316c9.397 7.275 9.092 17.312 2.305 26.067-6.704 8.648-16.394 11.503-25.791 4.228l-5.574-4.316c-1.062-.822-1.206-1.952-.383-3.013zm4.226 1.234 3.663 2.836c7.911 6.124 15.455 2.967 20.514-3.559 5.059-6.526 6.275-14.67-1.636-20.795l-3.663-2.835-18.878 24.353zM1501.37 499.05l20.853-26.899c.823-1.061 1.953-1.205 3.016-.383l17.466 13.524c1.168.905 1.216 2.046.559 2.895-.658.849-1.776 1.087-2.944.182-2.442-1.89-12.14-9.654-15.763-12.544l-8.185 10.559c3.704 2.784 10.157 7.61 11.908 8.966 1.168.905 1.217 2.046.559 2.895-.657.849-1.776 1.087-2.944.182-1.752-1.356-7.774-6.189-11.661-9.285l-8.72 11.248c4.024 3.031 13.649 10.229 16.091 12.12 1.168.904 1.217 2.046.559 2.895-.658.849-1.776 1.087-2.944.182l-17.466-13.524c-1.063-.822-1.207-1.952-.384-3.013z"/></g><path stroke="#000" stroke-miterlimit="10" d="M1340.766 406.54c-.428 0-.858-.136-1.222-.418l-11.372-8.805a21.836 21.836 0 0 1-8.349-14.608 21.818 21.818 0 0 1 4.432-16.227l47.025-60.659a17.329 17.329 0 0 0 3.396-13.36l-1.257-7.699a1.994 1.994 0 0 1 1.79-2.31l7.773-.708a17.34 17.34 0 0 0 12.097-6.623l47.025-60.658a21.852 21.852 0 0 1 14.617-8.343c5.83-.74 11.595.834 16.238 4.429l11.373 8.805a1.994 1.994 0 0 1 .356 2.8 2 2 0 0 1-2.802.356l-11.373-8.805a17.88 17.88 0 0 0-13.288-3.625 17.886 17.886 0 0 0-11.962 6.828l-47.025 60.658a21.347 21.347 0 0 1-14.892 8.155l-5.638.513.912 5.584a21.327 21.327 0 0 1-4.18 16.448l-47.025 60.659a17.858 17.858 0 0 0-3.627 13.28 17.87 17.87 0 0 0 6.832 11.954l11.372 8.805a1.994 1.994 0 0 1-1.226 3.574zM1578.967 585.684a21.883 21.883 0 0 1-13.444-4.596l-11.372-8.805a1.994 1.994 0 0 1-.356-2.8 2 2 0 0 1 2.802-.356l11.372 8.805c7.847 6.073 19.174 4.637 25.251-3.203l47.025-60.659a21.358 21.358 0 0 1 14.892-8.155l5.638-.513-.912-5.583a21.327 21.327 0 0 1 4.18-16.448l47.025-60.659c2.944-3.798 4.233-8.515 3.627-13.281s-3.032-9.011-6.832-11.953l-11.372-8.805a1.994 1.994 0 0 1-.356-2.8 2 2 0 0 1 2.802-.356l11.372 8.805a21.834 21.834 0 0 1 8.349 14.607 21.82 21.82 0 0 1-4.432 16.228l-47.025 60.659a17.329 17.329 0 0 0-3.396 13.36l1.257 7.698a1.994 1.994 0 0 1-1.79 2.31l-7.773.708a17.34 17.34 0 0 0-12.096 6.623l-47.025 60.659c-4.328 5.584-10.836 8.51-17.411 8.51z"/><path d="m369.688 616.148-.718-.828 13.185-10.659.65.861c.815 1.082 1.769 2.349 2.275 2.975.772.956 1.755.872 2.385.362a1.58 1.58 0 0 0 .599-1.062c.034-.316-.018-.807-.455-1.346l-8.187-10.114c-.772-.957-1.756-.873-2.386-.362a1.58 1.58 0 0 0-.598 1.063c-.034.316.019.807.455 1.345.528.653 1.644 1.937 2.541 2.968l.599.691-13.184 10.658-.594-.787c-.808-1.071-1.812-2.405-2.332-3.047-.772-.955-1.754-.871-2.386-.363a1.58 1.58 0 0 0-.602 1.098c-.037.443.122.896.458 1.312l8.187 10.113c.335.415.746.665 1.187.722.063.008.126.012.19.012a1.6 1.6 0 0 0 1.008-.37c.343-.276.556-.653.6-1.062.034-.316-.018-.807-.455-1.347-.503-.625-1.536-1.814-2.422-2.833zM394.627 615.119c-.666-.823-1.627-.925-2.452-.26l-15.681 12.676c-.442.357-.701.788-.75 1.247-.044.418.088.83.381 1.191.3.373.688.595 1.12.641.465.049.936-.109 1.368-.459l5.951-4.811 2.078 2.642a555.917 555.917 0 0 0 3.191 4.044c.425.524.911.735 1.368.735a1.63 1.63 0 0 0 1.018-.374c.343-.276.556-.653.599-1.062.034-.315-.018-.806-.455-1.344-.49-.605-1.757-2.126-3.133-3.777-.774-.929-1.583-1.899-2.307-2.771l6.312-5.103 2.109 2.684c1.974 2.515 4.22 5.375 5.036 6.382.335.415.746.665 1.187.722.42.05.846-.073 1.199-.359a1.58 1.58 0 0 0 .599-1.062c.033-.316-.019-.807-.455-1.346l-8.283-10.236zM406.285 679.277c.27.336.61.534.983.574.047.005.093.008.14.008.328 0 .652-.124.947-.361.474-.385.668-.963.546-1.628-.711-3.875-.164-9.622 6.488-14.999 6.626-5.356 12.36-4.688 16.002-3.182.626.26 1.231.19 1.707-.194.685-.552.772-1.384.219-2.069-.178-.22-.432-.464-1.084-.76-2.207-.995-10.1-3.678-19.012 3.526-8.938 7.226-7.965 15.503-7.454 17.869.154.697.34.997.518 1.216zM426.526 683.688a2.953 2.953 0 0 0-2.316.642 2.958 2.958 0 0 0-1.111 2.129c-.053.817.224 1.645.778 2.33.683.844 1.618 1.283 2.549 1.283a2.98 2.98 0 0 0 1.884-.678 2.958 2.958 0 0 0 1.111-2.129c.053-.816-.224-1.645-.778-2.329-.554-.686-1.306-1.129-2.117-1.248zM430.282 683.611c.176.217.489.486.965.486.279 0 .614-.093 1.01-.343l7.652-5.536c.433-.3 1.225-.889 1.8-1.354.732-.592 1.138-1.07 1.315-1.553.212-.575.09-1.149-.362-1.708-1.218-1.505-2.739-.275-3.39.249a34.006 34.006 0 0 0-1.693 1.471l-7.047 6.348c-.865.886-.528 1.596-.25 1.94zM447.058 707.123c-1.963 1.586-4.458-.065-6.137-2.14-1.2-1.483-1.924-3.228-2.091-5.03-.075-1.176-.112-1.767-.583-2.348-.551-.681-1.538-.799-2.203-.262-.815.661-.791 1.59-.674 2.74.151 1.348.662 3.403 2.213 5.706l-1.934 1.564c-.41.331-.651.732-.696 1.162-.042.398.086.794.369 1.144.607.75 1.52.811 2.324.162l1.946-1.571c1.889 1.845 3.939 2.792 5.872 2.792 1.326 0 2.596-.446 3.72-1.354 3.716-3.005 1.948-6.996-.181-10.825-2.071-3.761-2.354-5.457-1.084-6.485 1.415-1.143 3.493-.447 5.291 1.774 1.218 1.506 1.841 3.05 2.086 5.204.071.655.127 1.173.531 1.672.593.731 1.556.832 2.287.241.628-.507.656-1.179.633-1.77-.073-1.8-.642-3.603-1.692-5.365l2.286-1.848c.392-.317.63-.701.688-1.11.06-.416-.066-.829-.363-1.195-.606-.75-1.518-.813-2.324-.163l-2.167 1.752c-2.972-3.211-6.695-3.927-9.381-1.757-3.163 2.559-2.182 6.037.429 10.823 2.017 3.658 2.235 5.355.835 6.487zM449.103 719.341c-.067.44.062.876.373 1.26.305.378.716.606 1.156.643.452.033.912-.123 1.332-.463l6.047-4.887 2.255 2.786-2.961 9.651c-.231.815-.364 1.493.187 2.173.327.403.777.612 1.232.612.338 0 .678-.115.97-.352.484-.391.693-.853.876-1.475l2.298-8.049c2.898 2.125 6.001 2.157 8.604.053 1.816-1.469 2.685-3.396 2.51-5.574-.148-1.855-1.034-3.832-2.56-5.717l-3.446-4.258c-.665-.823-1.628-.925-2.452-.26l-15.681 12.676c-.418.34-.674.748-.74 1.181zm11.378-5.443 6.05-4.891 2.422 2.993c1.035 1.278 1.615 2.565 1.679 3.723.063 1.154-.383 2.128-1.329 2.892-1.896 1.532-4.288.887-6.4-1.724l-2.422-2.993zM482.085 728.179l.631.728-13.185 10.657-.57-.755c-.815-1.083-1.831-2.431-2.356-3.08-.775-.954-1.756-.87-2.385-.362a1.58 1.58 0 0 0-.603 1.098c-.036.442.122.896.458 1.311l8.187 10.116c.424.523.911.733 1.368.733a1.63 1.63 0 0 0 1.018-.373 1.58 1.58 0 0 0 .598-1.062c.034-.316-.018-.807-.454-1.345-.507-.626-1.544-1.821-2.432-2.843l-.708-.818 13.185-10.658.603.799c.845 1.122 1.802 2.394 2.322 3.037.774.954 1.756.868 2.386.361a1.58 1.58 0 0 0 .601-1.098c.037-.442-.122-.896-.458-1.311l-8.187-10.116c-.776-.955-1.757-.87-2.384-.36a1.58 1.58 0 0 0-.599 1.063c-.034.316.018.806.454 1.344.523.647 1.625 1.914 2.51 2.934zM490.715 754.302c1.82 3.888 1.972 5.757.56 6.897-.895.725-1.964.878-3.18.453-1.131-.395-2.285-1.267-3.247-2.456-1.186-1.464-1.886-3.156-2.024-4.888-.075-1.177-.113-1.768-.583-2.348-.552-.681-1.541-.797-2.203-.26-.815.659-.792 1.588-.675 2.735.169 1.62.829 4.116 3.01 6.811 2.139 2.644 4.709 4.032 7.137 4.032 1.418 0 2.787-.474 3.993-1.448 3.554-2.874 2.16-6.762.126-11.174-1.511-3.324-2.041-5.36-.514-6.596 1.489-1.202 3.595-.568 5.362 1.616 1.138 1.405 1.818 3.114 1.972 5.004.07.653.126 1.169.529 1.666.593.733 1.556.835 2.287.243.626-.505.655-1.178.634-1.758-.037-2.312-1.093-4.916-2.896-7.146-2.958-3.653-7.161-4.643-9.995-2.354-3.294 2.666-2.555 6.175-.293 10.971zM493.041 773.704c-.044.418.088.831.382 1.193.641.791 1.641.865 2.487.18l5.46-4.414 3.788.378-3.14 12.683c-.202.833-.297 1.425.203 2.044.354.438.852.668 1.343.668.342 0 .68-.111.965-.341.415-.337.652-.767.79-1.426l3.092-13.291 10.083 1.012c.62.035 1.218.031 1.755-.403.715-.578.814-1.518.235-2.232-.523-.646-1.249-.747-1.944-.795l-13.792-1.025 7.206-5.824c.847-.687.985-1.679.344-2.47-.637-.786-1.603-.846-2.464-.15l-16.042 12.969c-.443.355-.703.786-.751 1.244zM520.3 792.49c-6.648 5.375-12.388 4.711-16.032 3.207-.625-.26-1.231-.189-1.707.194-.684.554-.772 1.386-.218 2.069.177.22.431.463 1.084.762 1.043.47 3.354 1.315 6.447 1.315 3.453-.001 7.879-1.056 12.594-4.867 8.911-7.202 7.936-15.479 7.424-17.845-.153-.699-.339-.999-.518-1.218-.553-.685-1.385-.771-2.069-.22-.476.383-.67.961-.548 1.628.712 3.877.169 9.62-6.457 14.975zM417.774 716.897c1.416-1.143 3.493-.448 5.291 1.772 1.218 1.506 1.841 3.051 2.086 5.209.072.654.128 1.172.531 1.668.285.353.671.57 1.087.614.427.043.848-.089 1.199-.374.628-.507.656-1.179.633-1.77-.073-1.799-.642-3.602-1.693-5.364l2.286-1.849c.393-.316.631-.7.69-1.108.06-.416-.065-.829-.362-1.196-.607-.75-1.519-.813-2.325-.163l-2.167 1.752c-2.973-3.212-6.698-3.926-9.381-1.756-3.163 2.556-2.181 6.035.428 10.822 2.018 3.658 2.236 5.355.836 6.487-1.963 1.586-4.457-.064-6.137-2.14-1.201-1.484-1.924-3.229-2.09-5.031-.076-1.179-.114-1.77-.583-2.349a1.603 1.603 0 0 0-1.041-.582 1.534 1.534 0 0 0-1.162.322c-.815.659-.791 1.588-.674 2.739.152 1.347.663 3.401 2.214 5.706l-1.934 1.564c-.393.316-.631.7-.69 1.109-.06.416.066.829.363 1.196.606.749 1.519.813 2.324.163l1.944-1.573c1.89 1.846 3.94 2.794 5.873 2.794 1.326 0 2.596-.446 3.72-1.355 3.718-3.006 1.949-6.996-.181-10.824-2.071-3.759-2.355-5.456-1.085-6.483zM437.461 746.847l-3.03-3.743c-.335-.415-.746-.665-1.186-.722a1.595 1.595 0 0 0-1.2.359 1.578 1.578 0 0 0-.602 1.097c-.036.442.122.896.458 1.311.441.545.886 1.052 1.385 1.618.236.269.484.551.75.857l-4.37 3.531c-1.242-.463-2.589-1.517-3.735-2.931-1.254-1.55-1.648-3.385-1.141-5.308.509-1.927 1.873-3.83 3.943-5.504 4.335-3.505 8.44-3.72 10.982-.58 1.242 1.535 1.695 3.055 1.564 5.252-.021.47.006 1.011.378 1.471.621.767 1.617.884 2.367.277.589-.475.637-1.217.686-1.965.093-1.718-.504-4.596-2.495-7.055-3.9-4.819-9.751-4.852-15.651-.08-2.798 2.262-4.577 4.898-5.144 7.625-.578 2.779.128 5.498 2.042 7.862 1.793 2.215 3.521 3.503 5.78 4.308.223.078.442.118.658.118.46 0 .906-.179 1.35-.538l5.952-4.812c.823-.664.924-1.626.259-2.448zM458.384 758.734c.411-2.107-.218-4.212-1.871-6.254-3.245-4.01-7.519-4.207-12.036-.553l-10.455 8.449c-.845.686-.983 1.677-.343 2.469.311.384.71.602 1.154.629.44.012.89-.14 1.31-.479l4.929-3.984 5.823 7.194-4.929 3.983c-.86.696-1.004 1.653-.368 2.439.305.378.715.605 1.155.643.043.004.087.006.131.006.409 0 .822-.16 1.202-.468l10.454-8.45c2.163-1.749 3.457-3.641 3.844-5.624zm-3.245-.648c-.27 1.184-1.195 2.421-2.749 3.678l-3.056 2.47-5.822-7.194 3.056-2.469c3.115-2.519 5.49-2.55 7.477-.095 1.006 1.244 1.364 2.425 1.094 3.61zM456.885 785.644l-.713-.824 13.185-10.657.648.858c.815 1.083 1.77 2.35 2.277 2.977.335.415.746.665 1.187.722.42.051.846-.073 1.199-.358.343-.276.555-.653.599-1.062.034-.316-.018-.807-.455-1.347l-8.186-10.114c-.774-.955-1.755-.87-2.386-.364-.629.509-.918 1.451-.145 2.409.529.653 1.646 1.938 2.542 2.97l.599.69-13.184 10.656-.635-.84c-.815-1.083-1.782-2.366-2.291-2.994-.336-.415-.746-.664-1.187-.721-.421-.06-.847.072-1.198.358a1.58 1.58 0 0 0-.599 1.062c-.034.316.018.806.454 1.345l8.186 10.115c.335.415.746.665 1.187.722.063.008.126.012.19.012a1.6 1.6 0 0 0 1.009-.371c.354-.285.568-.675.603-1.098.037-.441-.122-.896-.458-1.311-.506-.623-1.541-1.814-2.428-2.835zM490.306 794.951c.044-.417-.088-.829-.381-1.191-.64-.791-1.64-.864-2.488-.18L475.785 803l6.021-17.163c.286-.801.474-1.523-.116-2.253-.448-.554-1.351-.897-2.419-.034l-16.013 12.943c-.419.339-.676.747-.742 1.18-.067.439.062.875.373 1.26.641.792 1.64.863 2.488.18l11.625-9.397-5.993 17.14c-.287.801-.476 1.524.116 2.254.281.348.672.545 1.101.555l.036.001c.424 0 .856-.176 1.284-.521l16.012-12.944c.44-.36.699-.791.748-1.25zM484.579 811.671c-.331-.409-.758-.66-1.205-.708-.4-.046-.791.079-1.126.351-.727.586-.784 1.554-.139 2.354l7.87 9.723c.381.47.871.714 1.357.714.338 0 .676-.118.974-.358.727-.588.783-1.556.138-2.353l-7.869-9.723zM488.049 806.624a1.506 1.506 0 0 0-.586 1.169c-.004.407.15.816.448 1.185l7.87 9.723c.38.471.87.714 1.357.714.338 0 .676-.117.974-.358.373-.302.582-.717.586-1.169.004-.406-.15-.815-.448-1.183l-7.87-9.723c-.646-.799-1.604-.948-2.331-.358zM504.141 830.582a2.343 2.343 0 0 0-.881 1.65c-.049.637.163 1.283.598 1.819.435.537 1.022.88 1.655.965a2.36 2.36 0 0 0 1.799-.516 2.343 2.343 0 0 0 .881-1.649c.049-.637-.163-1.283-.597-1.821-.905-1.118-2.388-1.308-3.455-.448z"/><path d="M499.914 825.359c-2.69 2.174-4.495 4.658-5.22 7.183-.789 2.747-.242 5.389 1.58 7.642 1.703 2.104 3.979 3.152 6.522 3.151 2.73 0 5.771-1.207 8.744-3.61 2.676-2.164 4.472-4.641 5.193-7.162.785-2.745.237-5.387-1.584-7.638-3.532-4.365-9.511-4.195-15.235.434zm13.503 6.425c-.595 1.815-1.986 3.645-4.022 5.29-4.223 3.414-8.393 3.84-10.622 1.087-1.095-1.354-1.356-3.03-.753-4.85.594-1.795 2.028-3.679 4.038-5.303 2.355-1.904 4.695-2.873 6.69-2.873 1.566 0 2.92.598 3.901 1.809 1.096 1.356 1.362 3.03.768 4.84zM520.935 846.083a2.958 2.958 0 0 0-1.111 2.129c-.053.816.223 1.644.777 2.329.684.845 1.619 1.284 2.55 1.284.661 0 1.319-.222 1.883-.678a2.96 2.96 0 0 0 1.111-2.13c.053-.817-.224-1.645-.778-2.33-1.17-1.444-3.075-1.703-4.432-.604zM511.448 853.751c-.762.616-1.195 1.5-1.188 2.425.006.847.375 1.665 1.052 2.352-1.048.696-3.165 1.076-4.927.567-.623-.148-1.14-.079-1.494.206a1.202 1.202 0 0 0-.177 1.686c.24.297.585.446.89.578l.161.07c.741.319 1.625.47 2.566.47 2.164 0 4.629-.798 6.354-2.191.998-.807 1.627-1.66 1.87-2.537.291-1.05.029-2.087-.778-3.084-1.109-1.368-3.01-1.608-4.329-.542z"/><path stroke="#000" stroke-miterlimit="10" d="M1216.655 591.296a2.246 2.246 0 1 0 0-4.492h-35.035l-.042-18.303c.26-.039.518-.109.761-.245l30.793-17.247a2.244 2.244 0 0 0 1.125-1.634l3.849-26.335a2.247 2.247 0 0 0-1.899-2.547 2.242 2.242 0 0 0-2.548 1.897l-3.689 25.241-28.404 15.909-.001-.292c-.028-8.568-6.986-15.498-15.56-15.498h-3.083v-.047h-18.521v114.941c20.796-1.166 37.303-18.375 37.303-39.45l-.014-6.156 28.28 15.84 3.689 25.241a2.247 2.247 0 0 0 4.447-.649l-3.849-26.335a2.242 2.242 0 0 0-1.125-1.634l-30.793-17.247a2.241 2.241 0 0 0-.661-.233l-.048-20.724h35.025z"/><path stroke="#000" stroke-miterlimit="10" d="M1108.092 493.215a20.723 20.723 0 0 1 17.281 4.162 20.702 20.702 0 0 1 7.744 15.998l.143 11.054c-7.013 3.332-11.874 10.457-11.874 18.734v.047h41.536v-.047c0-8.277-4.86-15.401-11.874-18.734l.144-11.063a20.698 20.698 0 0 1 7.744-15.99 20.724 20.724 0 0 1 17.281-4.162 2.246 2.246 0 1 0 .916-4.397 25.202 25.202 0 0 0-21.016 5.062 25.167 25.167 0 0 0-9.418 19.438l-.125 9.573c-1.426-.309-2.902-.482-4.42-.482s-2.994.173-4.42.482l-.124-9.564a25.174 25.174 0 0 0-9.418-19.447 25.21 25.21 0 0 0-21.016-5.062 2.246 2.246 0 1 0 .916 4.398z"/><path stroke="#000" stroke-miterlimit="10" d="M1121.386 547.75h-3.222c-8.593 0-15.559 6.962-15.559 15.55v.101l-28.155-15.769-3.689-25.241a2.241 2.241 0 0 0-2.548-1.897 2.246 2.246 0 0 0-1.899 2.547l3.849 26.335c.1.69.516 1.293 1.125 1.634l30.793 17.247c.169.095.345.163.524.211v18.338h-36.193a2.246 2.246 0 1 0 0 4.492h36.193v20.754c-.178.047-.355.11-.524.204l-30.793 17.247a2.241 2.241 0 0 0-1.125 1.634l-3.849 26.335a2.247 2.247 0 0 0 4.448.649l3.689-25.241 28.155-15.769v5.435c0 21.148 16.365 38.915 37.302 40.104V547.703h-18.521v.047z"/><path fill="#FFF" d="M1292.825 892.49c-1.479 0-2.982-.167-4.484-.515l-338.055-78.222c-5.029-1.165-8.184-6.202-7.034-11.23l12.253-53.597a9.321 9.321 0 0 1 4.17-5.863 9.331 9.331 0 0 1 7.099-1.188l338.211 78.258a19.745 19.745 0 0 1 12.38 8.836 19.725 19.725 0 0 1 2.502 14.996l-7.677 33.136c-2.125 9.172-10.325 15.389-19.365 15.389zM964.648 746.622a4.36 4.36 0 0 0-2.323.672 4.357 4.357 0 0 0-1.952 2.744l-12.253 53.597a4.4 4.4 0 0 0 3.294 5.257l338.053 78.222c3.876.897 7.865.231 11.237-1.871a14.777 14.777 0 0 0 6.62-9.264l7.677-33.136a14.773 14.773 0 0 0-1.873-11.229 14.786 14.786 0 0 0-9.27-6.617l-338.211-78.258a4.306 4.306 0 0 0-.999-.117z"/><g stroke="#000" stroke-miterlimit="10"><path d="m1294.731 890.907-58.069-13.437 15.52-66.989 58.063 13.435c6.134 1.419 9.956 7.544 8.535 13.678l-10.375 44.779c-1.421 6.133-7.542 9.953-13.674 8.534z"/><path d="M1297.312 893.699a13.813 13.813 0 0 1-3.132-.359l-60.514-14.001 16.645-71.851 60.514 14.002a13.783 13.783 0 0 1 8.645 6.171 13.775 13.775 0 0 1 1.747 10.473l-10.384 44.821c-1.483 6.403-7.209 10.744-13.521 10.744zm-57.656-18.097 55.649 12.877c4.77 1.098 9.557-1.877 10.663-6.648l10.384-44.822a8.817 8.817 0 0 0-1.118-6.706 8.83 8.83 0 0 0-5.535-3.95l-55.649-12.878-14.394 62.127z"/></g><path fill="#FFD829" d="M1288.731 863.454c-1.2 0-2.406-.136-3.604-.413a15.733 15.733 0 0 1-9.864-7.042 15.726 15.726 0 0 1-1.994-11.95 15.727 15.727 0 0 1 7.047-9.859 15.756 15.756 0 0 1 11.957-1.991 15.731 15.731 0 0 1 9.864 7.041 15.721 15.721 0 0 1 1.993 11.95 15.722 15.722 0 0 1-7.045 9.859 15.75 15.75 0 0 1-8.354 2.405zm-.049-26.67c-1.959 0-3.941.529-5.723 1.64a10.768 10.768 0 0 0-4.825 6.751 10.76 10.76 0 0 0 1.365 8.182 10.773 10.773 0 0 0 6.754 4.822c2.823.649 5.729.169 8.188-1.365 2.457-1.532 4.17-3.929 4.824-6.75s.169-5.727-1.365-8.183c-2.053-3.289-5.596-5.097-9.218-5.097z"/><path fill="#FFD829" d="M1256.346 870.327a2.495 2.495 0 0 1-1.323-4.612l20.552-12.816a2.495 2.495 0 1 1 2.643 4.234l-20.552 12.816a2.492 2.492 0 0 1-1.32.378z"/><g stroke="#000" stroke-miterlimit="10"><path d="m1320.374 581.186 22.887-13.558c1.454-.863 2.72-.54 3.425.649.706 1.191.421 2.521-1.034 3.383l-22.886 13.559c-7.607 4.506-8.756 9.653-5.58 15.008 3.255 5.487 8.324 6.95 15.931 2.443l22.886-13.558c1.455-.862 2.72-.54 3.426.65.705 1.19.42 2.52-1.035 3.382l-22.886 13.559c-8.996 5.33-16.956 4.417-22.093-4.243-5.057-8.527-2.037-15.944 6.959-21.274zM1343.455 607.893c11.114-6.583 22.798-6.626 28.601 3.158 5.803 9.783.157 20.006-10.956 26.589-11.178 6.623-22.863 6.667-28.666-3.117-5.803-9.784-.156-20.007 11.021-26.63zm15.214 25.649c9.195-5.447 13.656-13.451 9.617-20.258-4.039-6.809-13.204-6.74-22.4-1.292-9.194 5.446-13.72 13.489-9.682 20.298 4.04 6.808 13.272 6.699 22.465 1.252zm-8.43-14.213c1.853-1.098 4.105-.466 5.281 1.518 1.176 1.982.65 4.26-1.203 5.358-1.852 1.096-4.104.465-5.28-1.518-1.176-1.983-.649-4.26 1.202-5.358zM1345.311 653.518c.927-.549 2.217-.331 2.845.726.235.398.533 1.203.808 1.666 1.254 2.115 5.523 2.982 8.331 3.194 1.357-4.645 3.417-10.065 7.717-12.611 4.961-2.939 10.702-1.249 13.799 3.974s1.827 11.068-3.135 14.006c-4.299 2.548-10.046 1.753-14.774.714-1.162 2.563-2.45 6.721-1.196 8.836.275.463.839 1.111 1.075 1.508.627 1.057.199 2.295-.728 2.843-1.521.902-2.848-.279-3.827-1.932-2.667-4.495-1.457-8.785.225-12.729-4.27-.419-8.617-1.417-11.283-5.912-.979-1.653-1.379-3.381.143-4.283zM1381.492 672.018c11.113-6.584 22.797-6.627 28.601 3.157 5.803 9.783.156 20.006-10.957 26.59-11.178 6.623-22.863 6.666-28.666-3.117-5.803-9.784-.157-20.007 11.022-26.63zm15.213 25.649c9.195-5.447 13.656-13.45 9.617-20.258-4.039-6.809-13.205-6.74-22.401-1.292-9.194 5.447-13.72 13.49-9.682 20.299 4.04 6.806 13.272 6.698 22.466 1.251zm-8.43-14.213c1.853-1.096 4.104-.466 5.281 1.519 1.176 1.982.65 4.259-1.203 5.357-1.851 1.096-4.103.466-5.279-1.517-1.177-1.985-.65-4.262 1.201-5.359zM1396.446 709.436l22.887-13.559c1.454-.862 2.72-.54 3.425.651.706 1.189.421 2.52-1.034 3.382l-22.886 13.558c-7.607 4.507-8.755 9.653-5.58 15.008 3.255 5.487 8.324 6.949 15.931 2.443l22.886-13.559c1.455-.862 2.72-.539 3.426.651.706 1.189.42 2.521-1.034 3.382l-22.887 13.558c-8.997 5.33-16.956 4.418-22.093-4.242-5.057-8.527-2.037-15.944 6.959-21.273z"/></g><path stroke="#000" stroke-miterlimit="10" d="M935.278 934.179c3.201 0 5.869 2.844 5.869 6.22 0 2.844-1.779 5.331-4.98 5.864l-23.652 5.687 16.006 17.596c1.245 1.776 1.956 3.377 1.956 4.976 0 3.022-3.201 5.687-6.224 5.687-2.134 0-4.089-1.066-5.513-3.377l-12.804-20.439-12.093 20.616c-1.423 2.311-3.557 3.555-5.691 3.555-3.024 0-6.047-2.844-6.047-5.865 0-1.599.712-3.199 1.957-4.62l15.649-18.484-23.297-5.154c-3.379-.711-5.334-3.021-5.334-5.687 0-3.555 2.489-6.398 6.046-6.398.89 0 1.779.178 2.845.533l22.23 9.065-2.49-23.817c-.533-4.443 2.135-7.287 6.047-7.287s6.402 2.844 6.046 7.11l-1.956 24.527 22.052-9.598c1.066-.533 2.311-.71 3.378-.71zM1648.182 229.467c1.592 0 2.92 1.415 2.92 3.094 0 1.415-.885 2.652-2.478 2.917l-11.766 2.829 7.962 8.753c.619.884.973 1.68.973 2.475 0 1.503-1.592 2.829-3.096 2.829-1.061 0-2.034-.53-2.742-1.68l-6.37-10.168-6.016 10.256c-.708 1.149-1.77 1.768-2.831 1.768-1.504 0-3.008-1.415-3.008-2.918 0-.796.354-1.591.973-2.298l7.785-9.195-11.589-2.564c-1.681-.354-2.654-1.503-2.654-2.829 0-1.768 1.238-3.183 3.008-3.183.443 0 .885.089 1.416.265l11.059 4.51-1.239-11.848c-.265-2.21 1.062-3.625 3.008-3.625s3.185 1.415 3.008 3.537l-.973 12.201 10.97-4.775c.53-.263 1.149-.351 1.68-.351zM1542.377 659.938c1.592 0 2.92 1.415 2.92 3.094 0 1.415-.885 2.652-2.478 2.917l-11.766 2.829 7.962 8.753c.619.884.973 1.68.973 2.475 0 1.503-1.592 2.829-3.096 2.829-1.062 0-2.034-.53-2.742-1.68l-6.369-10.168-6.016 10.256c-.708 1.149-1.769 1.768-2.831 1.768-1.504 0-3.008-1.415-3.008-2.918 0-.796.354-1.591.973-2.298l7.785-9.195-11.589-2.564c-1.681-.354-2.654-1.503-2.654-2.829 0-1.768 1.238-3.183 3.008-3.183.443 0 .885.089 1.415.265l11.059 4.51-1.239-11.848c-.265-2.21 1.062-3.625 3.008-3.625s3.185 1.415 3.008 3.537l-.973 12.201 10.97-4.775c.53-.263 1.149-.351 1.68-.351zM519.229 483.802c1.592 0 2.92 1.415 2.92 3.094 0 1.415-.885 2.652-2.478 2.917l-11.766 2.829 7.962 8.753c.619.884.973 1.68.973 2.475 0 1.503-1.592 2.829-3.096 2.829-1.061 0-2.034-.53-2.742-1.68l-6.369-10.168-6.016 10.256c-.708 1.149-1.77 1.768-2.831 1.768-1.504 0-3.008-1.415-3.008-2.918 0-.796.354-1.591.973-2.298l7.785-9.195-11.589-2.564c-1.681-.354-2.654-1.503-2.654-2.829 0-1.768 1.238-3.183 3.008-3.183.443 0 .885.089 1.415.265l11.059 4.51-1.239-11.848c-.265-2.21 1.062-3.625 3.008-3.625s3.185 1.415 3.008 3.537l-.973 12.201 10.97-4.775c.529-.263 1.149-.351 1.68-.351zM668.097 752.297a1.87 1.87 0 0 1-.224-.013l-72.179-8.121a1.996 1.996 0 0 1-1.403-3.142l11.118-15.594a1.998 1.998 0 0 1 2.786-.468 1.996 1.996 0 0 1 .468 2.784l-9.149 12.832 67.687 7.616 9.707-12.599a1.999 1.999 0 0 1 2.801-.365 1.995 1.995 0 0 1 .364 2.799l-10.393 13.491c-.382.496-.968.78-1.583.78z"/><path stroke="#000" stroke-miterlimit="10" d="m624.518 520.434 126.169 125.189-71.707 87.709-124.021-128.866 69.559-84.032m-.289-5.913-74.62 90.145 129.615 134.678 76.851-94.001-131.846-130.822z"/><path stroke="#000" stroke-miterlimit="10" d="m570.02 602.259 54.116-65.081 111.673 111.337-55.927 68.641zM677.548 737.756c-.086 0-.173-.005-.26-.017l-70.51-9.174a1.996 1.996 0 0 1-1.209-.625L479.47 591.537a3.327 3.327 0 0 1-.433-3.956 3.336 3.336 0 0 1 3.657-1.572l71.802 16.797a1.995 1.995 0 1 1-.911 3.887l-69.749-16.316L608.011 724.7l69.793 9.08a1.997 1.997 0 0 1-.256 3.976z"/><path stroke="#000" stroke-miterlimit="10" d="M595.918 744.176a1.994 1.994 0 0 1-1.471-.645L466.876 604.838a1.996 1.996 0 0 1-.065-2.628l12.615-15.158a1.996 1.996 0 1 1 3.071 2.554l-11.498 13.816L597.388 740.83a1.997 1.997 0 0 1-1.47 3.346z"/><path fill="#FFD829" d="M628.324 596.292c1.803 1.717 1.998 4.308.366 6.02s-4.231 1.643-6.034-.074c-1.803-1.716-1.997-4.308-.366-6.02s4.231-1.642 6.034.074zM655.366 622.041c1.803 1.717 1.998 4.308.366 6.02s-4.231 1.643-6.034-.074c-1.803-1.716-1.997-4.308-.366-6.02s4.232-1.642 6.034.074zM682.409 647.791c1.803 1.717 1.998 4.308.366 6.02s-4.231 1.643-6.034-.074c-1.803-1.716-1.997-4.308-.366-6.02s4.231-1.643 6.034.074z"/><path stroke="#000" stroke-miterlimit="10" d="M725.476 952.128c-3.637 0-7.217-1.277-10.12-3.739l-21.408-18.159a11.697 11.697 0 0 0-10.617-2.37l-27.105 7.33c-5.807 1.571-11.882-.256-15.859-4.762-3.978-4.508-5.03-10.762-2.745-16.322l10.666-25.959a11.673 11.673 0 0 0-1.026-10.823l-15.352-23.498c-3.287-5.032-3.429-11.373-.368-16.546 3.061-5.174 8.691-8.106 14.683-7.652l28 2.115a11.68 11.68 0 0 0 9.984-4.319l17.617-21.852c3.774-4.679 9.764-6.773 15.632-5.463 5.869 1.31 10.398 5.752 11.82 11.592l6.639 27.267c.91 3.736 3.6 6.784 7.196 8.153l26.239 9.992c5.62 2.139 9.462 7.185 10.029 13.169.567 5.984-2.26 11.661-7.378 14.817l-23.896 14.736a11.677 11.677 0 0 0-5.536 9.358l-1.401 28.028c-.3 6.002-3.915 11.214-9.433 13.602a15.756 15.756 0 0 1-6.261 1.305zm-7.535-6.782c3.47 2.941 8.034 3.62 12.208 1.813 4.176-1.806 6.804-5.596 7.031-10.137l1.401-28.028a15.671 15.671 0 0 1 7.428-12.557l23.896-14.736c3.872-2.388 5.928-6.516 5.499-11.043-.429-4.526-3.223-8.195-7.474-9.814l-26.24-9.992a15.676 15.676 0 0 1-9.654-10.941l-6.639-27.267c-1.076-4.418-4.369-7.647-8.809-8.639-4.441-.993-8.796.531-11.65 4.071l-17.618 21.852a15.69 15.69 0 0 1-13.396 5.794l-28-2.115c-4.528-.331-8.628 1.79-10.943 5.704-2.315 3.914-2.213 8.524.275 12.331l15.352 23.498a15.668 15.668 0 0 1 1.376 14.523l-10.666 25.959c-1.728 4.207-.963 8.754 2.046 12.164s7.429 4.74 11.82 3.55l27.105-7.33a15.692 15.692 0 0 1 14.246 3.18l21.406 18.16z"/><ellipse stroke="#000" stroke-miterlimit="10" cx="694.767" cy="855.042" rx="6.02" ry="6.016"/><ellipse stroke="#000" stroke-miterlimit="10" cx="699.98" cy="901.79" rx="6.02" ry="6.016"/><path fill="#FFF" d="M685.493 890.348c-5.643.628-10.727-3.433-11.356-9.073-.629-5.639 3.436-10.72 9.078-11.349l2.278 20.422z"/><path stroke="#000" stroke-miterlimit="10" d="M694.268 881.35a1.997 1.997 0 0 1-.209-3.982l12.924-1.373c1.093-.1 2.08.677 2.197 1.774a1.997 1.997 0 0 1-1.775 2.197l-12.924 1.373a2.17 2.17 0 0 1-.213.011z"/></svg>