<svg xmlns="http://www.w3.org/2000/svg" viewBox="0 0 1080 1080" xml:space="preserve"><path d="M986.744 70.273c123.81 104.983 124.866 286.348-1.274 400.405-120.403 108.87-207.276 88.105-353.897 18.389-130.483-62.043-164.259-261.106-59.212-384.841S862.934-34.71 986.744 70.273z"/><path fill="#FFD829" d="M604.188 134.452c-90.001 106.012-77.931 264.372 26.404 355.597-18.784 39.199-27.743 83.739-23.933 130.183 4.719 57.521 28.285 108.974 64.12 148.826-85.653-29.58-182.403-27.472-271.228 13.38-25.844 11.886-49.623 26.423-71.182 43.125l-22.327-2.171-14.738-1.63c-11.093-1.492-15.168-22.84-19.766-30.683-7.719-13.168-17.171-22.208-31.907-27.342a84.138 84.138 0 0 0-5.621-1.725l-112.98-39.869a30.628 30.628 0 0 0-2.484-1.018c-15.023-5.286-31.488 2.599-36.779 17.609-5.287 15.01 2.601 31.463 17.618 36.753.042.01-.004.135-.004.135l47.322 16.763c-.267.362-.523.748-.79 1.113L38.094 783.343c-.885-.166-4.096-.205-4.998-.29-15.855-1.495-29.92 10.139-31.412 25.988-1.497 15.838 10.144 29.896 26 31.383.034.006 59.729 6.409 59.729 6.409l1.094.076a80.019 80.019 0 0 1-1.094-.076c-15.852-1.495-29.276 9.982-30.777 25.828-1.481 15.747 10.016 29.726 25.722 31.363l-.343-.029c-15.857-1.441-29.997 10.703-31.499 26.546-1.487 15.848 10.249 29.253 26.099 30.742.019 0 .024.039.025.076l-36.543-3.444a28.55 28.55 0 0 0-2.677-.389c-15.851-1.489-29.917 10.142-31.407 25.995-1.496 15.841 10.146 29.896 25.996 31.385.039-.002.025.138.025.138l68.363 6.441 64.674 6.084c13.713 1.298 26.868 2.066 39.854 1.453 15.63-.748 31.014-3.501 46.836-9.825 14.235-5.689 37.467-17.169 52.427-8.022 6.546 4.002 12.634 9.873 19.331 14.074 14.122 8.858 29 16.497 44.334 23.028 32.096 13.669 66.219 22.556 100.803 26.984 67.187 8.601 138.67.833 199.405-30.476 45.937-23.681 83.582-57.083 111.74-96.384 34.391 10.875 73.475.933 98.274-28.278 23.952-28.213 27.984-66.636 13.512-98.185 59.865-48.244 101.731-118.92 111.787-201.236 6.394-52.338-.828-103.201-18.885-149.042a258.63 258.63 0 0 0 7.464-8.407c90.851-107.013 77.696-267.369-29.382-358.165s-267.531-77.65-358.383 29.364zM99.707 963.476l-23.321-2.198 38.608 3.452-15.287-1.254zm8.059-57.123-23.321-2.198 38.608 3.452-15.287-1.254zm3.897-57.213-23.321-2.198 38.608 3.452-15.287-1.254zm-28.606 54.941c.372.022.856.054.856.054l4.016.31c-1.56-.113-3.604-.265-4.872-.364z"/><path d="M519.253 1080.491c-16.658 0-33.565-1.075-50.568-3.252-35.705-4.571-69.798-13.698-101.332-27.127-15.853-6.752-30.863-14.548-44.613-23.173-3.376-2.118-6.6-4.648-9.719-7.095-3.27-2.566-6.36-4.989-9.593-6.966-12.493-7.639-31.729.345-45.772 6.174-1.713.711-3.344 1.388-4.871 1.999-14.714 5.88-30.245 9.14-47.482 9.965-11.412.538-23.79.088-40.137-1.46L32.13 1017.031a1.998 1.998 0 0 1-.726-.212c-7.917-.922-15.051-4.793-20.152-10.951-5.252-6.339-7.718-14.342-6.945-22.533.771-8.196 4.688-15.601 11.032-20.85 6.343-5.247 14.343-7.711 22.549-6.943.885.083 1.793.213 2.771.397l21.073 1.987c-8.785-5.99-13.985-16.242-12.923-27.569 1.275-13.453 10.823-24.171 23.043-27.441-11.033-5.547-18.143-17.484-16.924-30.44 1.105-11.668 8.211-21.029 17.976-25.283-37.107-4.132-44.173-4.673-45.126-4.785v.003c-8.199-.769-15.607-4.683-20.858-11.024-5.252-6.339-7.717-14.341-6.943-22.532.772-8.195 4.691-15.6 11.035-20.847s15.683-7.81 23.875-7.038l.653.057c1.029.089 2.299.198 3.106.339l97.069 9.141L98.999 777.5a1.987 1.987 0 0 1-.634-.367c-15.612-5.887-23.762-23.258-18.196-39.063 5.65-16.023 23.29-24.464 39.324-18.827.873.314 1.712.655 2.572 1.049l112.826 39.814a86.499 86.499 0 0 1 5.682 1.747c14.278 4.975 24.448 13.677 32.971 28.218 1.372 2.34 2.674 5.74 4.052 9.339 3.318 8.67 7.449 19.46 14.258 20.375l14.691 1.625 21.513 2.092c21.843-16.846 45.709-31.27 70.942-42.875 83.958-38.615 178.025-44.152 265.72-15.791-34.73-40.878-55.356-90.658-59.768-144.44-3.664-44.665 4.451-89.527 23.473-129.843-50.219-44.422-80.607-105.659-85.619-172.608-5.055-67.522 16.304-133.145 60.142-184.782l1.522 1.29-1.522-1.29c44.285-52.162 106.244-83.968 174.466-89.558 68.222-5.587 134.537 15.705 186.731 59.963s84.019 106.18 89.613 174.36c5.593 68.179-15.716 134.454-60 186.617a262.379 262.379 0 0 1-6.673 7.552c18.295 47.015 24.709 98.454 18.553 148.849-9.715 79.512-49.226 151.036-111.319 201.577 14.414 32.849 8.816 71.499-14.439 98.892-24.342 28.673-63.065 40.091-99.015 29.315-29.298 40.517-66.84 72.751-111.607 95.829-43.296 22.319-95.273 33.931-150.005 33.932zm-228.256-74.746c5.19 0 10.139 1.056 14.514 3.73 3.432 2.099 6.758 4.708 9.974 7.231 3.038 2.383 6.178 4.848 9.377 6.853 13.572 8.514 28.395 16.213 44.056 22.883 31.196 13.286 64.933 22.316 100.274 26.841 72.073 9.221 142.475-1.524 198.237-30.271 44.628-23.007 81.984-55.229 111.032-95.773.504-.703 1.399-1 2.225-.741 34.798 11.007 72.539.144 96.15-27.667 22.592-26.611 27.781-64.317 13.22-96.064a1.994 1.994 0 0 1 .561-2.383c61.968-49.94 101.41-120.941 111.059-199.924 6.127-50.155-.361-101.357-18.762-148.071a1.992 1.992 0 0 1 .394-2.086c2.558-2.76 5.05-5.566 7.407-8.341 43.594-51.35 64.571-116.594 59.065-183.711-5.506-67.117-36.836-128.075-88.217-171.642-51.382-43.568-116.661-64.531-183.823-59.03-67.158 5.503-128.153 36.813-171.747 88.163-43.155 50.833-64.182 115.434-59.206 181.904 4.971 66.401 35.3 127.094 85.403 170.9.673.589.872 1.555.485 2.363-19.181 40.029-27.391 84.691-23.744 129.159 4.542 55.366 26.539 106.425 63.615 147.655a1.994 1.994 0 0 1-2.136 3.219c-88.689-30.629-184.484-25.905-269.741 13.305-25.2 11.591-49.019 26.022-70.793 42.891a1.948 1.948 0 0 1-1.416.408l-22.327-2.171-14.765-1.632c-9.205-1.238-13.805-13.254-17.501-22.909-1.318-3.441-2.562-6.692-3.767-8.749-8.01-13.664-17.521-21.827-30.842-26.467a81.974 81.974 0 0 0-5.488-1.685 1.745 1.745 0 0 1-.14-.044L120.65 724.02a2.263 2.263 0 0 1-.171-.069 28.62 28.62 0 0 0-2.323-.952c-13.946-4.91-29.303 2.445-34.221 16.394-4.912 13.946 2.445 29.293 16.4 34.21.228.081.439.203.625.356l46.697 16.543a1.995 1.995 0 0 1 .941 3.062c-.129.175-.254.355-.381.537-.133.192-.268.384-.404.571a2.005 2.005 0 0 1-1.799.809L38.189 785.329a2.686 2.686 0 0 1-.18-.025c-.604-.113-1.932-.228-2.81-.303l-.682-.06c-7.142-.675-15.436 1.57-20.958 6.139-5.523 4.569-8.934 11.014-9.607 18.149-.673 7.131 1.472 14.096 6.044 19.614s11.02 8.927 18.156 9.596l.062.007c1.132.129 58.358 6.256 59.682 6.403l.061.006.939.064.022.001.01.001c.159.012.313.041.459.087l38.022 3.4a1.995 1.995 0 0 1-.341 3.974l-.021-.002-15.265-1.252-.023-.002-23.322-2.198a2.009 2.009 0 0 1-.352-.065 23.461 23.461 0 0 1-.573-.043c-14.638-1.376-27.203 9.176-28.608 24.031-1.371 14.576 9.37 27.671 23.942 29.191.102.011.203.029.299.054.104-.01.209-.013.314-.005l1.127.075a2.13 2.13 0 0 1 .319.003l3.461.288c.107.009.211.025.313.05l34.833 3.114c1.095.098 1.905 1.063 1.812 2.157s-1.068 1.923-2.152 1.817l-15.287-1.253-.024-.002-21.632-2.04a990.904 990.904 0 0 1-3.046-.231 2.113 2.113 0 0 1-.35-.058 1.952 1.952 0 0 1-.359.002l-.35-.029c-14.766-1.331-27.92 9.76-29.34 24.747-1.37 14.609 9.303 27.159 24.3 28.568.072.007.144.018.214.033l38.153 3.411c1.095.098 1.905 1.063 1.812 2.157s-1.069 1.914-2.152 1.817l-15.287-1.253-.024-.002-22.583-2.129a2.043 2.043 0 0 1-.482.014l-36.544-3.445a2.274 2.274 0 0 1-.187-.026 26.257 26.257 0 0 0-2.49-.362c-7.141-.673-14.109 1.475-19.63 6.044-5.522 4.57-8.933 11.016-9.604 18.152-.673 7.131 1.473 14.097 6.044 19.615 4.571 5.518 11.018 8.927 18.153 9.597.247.023.487.094.708.203l132.353 12.461c16.155 1.529 28.361 1.975 39.572 1.446 16.786-.803 31.894-3.971 46.19-9.684 1.512-.604 3.127-1.275 4.823-1.979 10.277-4.266 23.184-9.624 34.874-9.624z"/><path d="M670.769 771.062a1.99 1.99 0 0 1-1.485-.661c-37.655-41.875-59.998-93.747-64.613-150.007-5.146-62.735 12.907-124.918 50.836-175.092a1.997 1.997 0 0 1 2.796-.389 1.994 1.994 0 0 1 .389 2.793c-37.336 49.392-55.109 110.604-50.042 172.362 4.543 55.383 26.537 106.445 63.603 147.666a1.995 1.995 0 0 1-1.484 3.328zM319.134 1023.912l-61.314-6.295 20.031-208.77 61.314 6.296z"/><path fill="#FFF" d="M716.568 261.817c2.605-.549 4.584-1.986 5.946-4.506.348-.656.67-.967 1.321-1.104.698-.147 1.457.226 1.614.97.129.605.011.968-.236 1.41-1.866 3.355-4.876 5.204-8.086 5.88-6.884 1.453-12.275-3.14-14.062-11.599-1.787-8.461 1.297-14.792 8.181-16.245 3.209-.677 6.71-.201 9.774 2.114.404.303.66.589.786 1.194.158.744-.386 1.392-1.084 1.539-.651.137-1.072-.017-1.655-.475-2.266-1.756-4.658-2.272-7.263-1.723-4.883 1.03-7.361 5.633-5.81 12.978 1.553 7.344 5.69 10.597 10.574 9.567zM730.923 246.991c-1.65-7.81.645-14.655 7.529-16.107 6.884-1.453 11.751 3.881 13.401 11.692 1.66 7.855-.635 14.699-7.519 16.152-6.883 1.452-11.751-3.881-13.411-11.737zm18-3.798c-1.364-6.462-5.12-10.671-9.911-9.66-4.791 1.01-6.523 6.378-5.159 12.84 1.364 6.461 5.13 10.715 9.92 9.705 4.793-1.011 6.516-6.424 5.15-12.885zM763.321 252.489l-4.979-23.567c-.196-.93.245-1.605 1.174-1.802l4.884-1.03c8.232-1.736 13.513 3.023 15.133 10.693 1.601 7.577-1.294 14.112-9.527 15.848l-4.883 1.03c-.929.197-1.606-.242-1.802-1.172zm2.602-1.715 3.209-.677c6.93-1.463 8.68-6.979 7.472-12.696-1.208-5.718-5.05-10.102-11.978-8.639l-3.21.677 4.507 21.335zM791.086 246.631l-4.978-23.567c-.197-.93.244-1.605 1.174-1.802l15.302-3.228c1.022-.215 1.661.28 1.818 1.025.158.743-.226 1.456-1.249 1.671-2.14.452-10.774 2.128-13.993 2.758l1.954 9.251c3.2-.724 8.761-1.995 10.297-2.319 1.022-.215 1.661.28 1.818 1.025.158.743-.226 1.457-1.249 1.672-1.535.324-6.903 1.36-10.355 2.038l2.082 9.855c3.479-.782 11.775-2.678 13.915-3.129 1.022-.216 1.661.28 1.818 1.024.158.744-.226 1.456-1.249 1.672l-15.302 3.228c-.931.195-1.606-.244-1.803-1.174zM815.465 215.316l6.558-1.383c5.163-1.09 10.425.13 11.613 5.755.953 4.509-1.626 7.481-5.329 9.039l8.164 7.6c.547.516.82.894.938 1.453.157.743-.293 1.372-1.038 1.529-.744.158-1.203-.182-1.93-.854l-9.101-8.811-5.209 1.099 2.091 9.901c.216 1.024-.271 1.708-1.108 1.884-.837.177-1.512-.262-1.729-1.287l-5.097-24.124c-.193-.93.247-1.604 1.177-1.801zm7.108 1.219-5.209 1.1 2.219 10.505 5.209-1.1c4.186-.882 6.631-3.34 5.914-6.734-.716-3.393-3.947-4.653-8.133-3.771zM847.061 234.724c-1.377-.535-2.043-.928-2.23-1.811-.147-.697.34-1.382 1.037-1.529.699-.148 1.232.079 2.515.633 2.023.837 4.356 1.071 6.821.551 3.721-.785 6.949-3.214 6.232-6.607-.608-2.881-3.664-3.547-8.412-3.712-6.406-.203-10.242-1.334-11.214-5.937-.883-4.184 2.584-7.781 7.654-8.85 3.163-.667 6.513-.451 9.006.771.646.3 1.096.594 1.234 1.245.158.744-.226 1.455-1.064 1.632-.604.128-1.082-.062-1.821-.344a11.565 11.565 0 0 0-6.841-.646c-3.907.824-5.747 3.155-5.216 5.666.638 3.021 4.073 3.414 8.047 3.595 6.37.258 10.518 1.033 11.539 5.869 1.06 5.02-2.769 8.741-8.537 9.957-3.628.766-6.636.333-8.75-.483zM726.697 296.433c-1.787-8.46 1.11-14.752 8.319-16.273 3.581-.756 6.929.14 8.646 1.138.723.43 1.332.787 1.47 1.438.187.883-.356 1.531-1.147 1.698-.465.098-.887-.056-1.384-.339-2.551-1.501-4.606-1.795-7.024-1.285-5.488 1.158-7.355 6.357-5.95 13.005 1.404 6.648 5.605 10.664 10.954 9.536 2.093-.442 4.376-1.361 5.816-2.83l-1.621-7.668c-1.804.429-3.086.797-4.482 1.092-1.023.215-1.662-.281-1.819-1.026-.158-.743.226-1.455 1.25-1.67l5.767-1.216c.931-.197 1.606.243 1.803 1.173l1.934 9.157c.157.744.042 1.35-.484 1.85-2.188 2.063-4.544 3.095-7.615 3.742-7.07 1.491-12.647-3.061-14.433-11.522zM754.694 290.527c-1.65-7.81.645-14.654 7.529-16.106 6.884-1.452 11.751 3.881 13.401 11.691 1.659 7.855-.636 14.7-7.52 16.152-6.884 1.451-11.751-3.882-13.41-11.737zm17.999-3.798c-1.364-6.462-5.119-10.67-9.911-9.659-4.791 1.011-6.523 6.376-5.159 12.838 1.365 6.461 5.131 10.716 9.921 9.705 4.792-1.011 6.514-6.423 5.149-12.884zM803.915 294.708c-.79.168-1.26-.219-1.949-.948l-16.839-17.617 4.222 19.987c.216 1.024-.271 1.708-1.108 1.884s-1.513-.263-1.73-1.287l-5.204-24.636c-.235-1.115.214-1.744.912-1.891.791-.167 1.261.219 1.949.949l16.849 17.663-4.231-20.033c-.216-1.024.271-1.708 1.108-1.885.837-.176 1.513.263 1.73 1.287l5.204 24.636c.236 1.114-.214 1.743-.913 1.891zM831.82 288.82c-.79.168-1.261-.219-1.949-.948l-16.839-17.617 4.221 19.987c.216 1.024-.271 1.708-1.108 1.884-.837.176-1.513-.263-1.73-1.287l-5.204-24.636c-.235-1.115.215-1.744.913-1.891.79-.167 1.26.219 1.949.948l16.849 17.664-4.232-20.033c-.216-1.024.271-1.708 1.108-1.884.838-.177 1.513.262 1.73 1.286l5.204 24.636c.236 1.115-.215 1.744-.912 1.891zM842.506 284.915l-3.397-16.083c-1.316-6.229.733-10.788 6.826-12.073 6.093-1.285 9.811 2.057 11.128 8.286l3.397 16.083c.216 1.024-.271 1.708-1.108 1.884-.837.177-1.513-.263-1.73-1.286l-1.728-8.181-12.28 2.591 1.728 8.181c.216 1.023-.223 1.698-1.061 1.875-.837.176-1.559-.253-1.775-1.277zm3.98-25.553c-4.233.893-5.591 3.898-4.53 8.919l1.12 5.298 12.28-2.591-1.12-5.298c-1.061-5.021-3.519-7.22-7.75-6.328zM764.108 348.889c2.605-.549 4.585-1.986 5.947-4.507.347-.655.669-.967 1.321-1.104.697-.147 1.457.226 1.614.971.128.604.011.969-.237 1.409-1.867 3.355-4.876 5.205-8.086 5.882-6.884 1.452-12.274-3.14-14.061-11.6-1.787-8.46 1.296-14.792 8.18-16.244 3.209-.678 6.71-.204 9.775 2.112.403.303.659.59.786 1.194.157.744-.387 1.392-1.084 1.539-.652.137-1.073-.016-1.656-.475-2.266-1.755-4.658-2.27-7.262-1.721-4.884 1.03-7.362 5.631-5.81 12.976 1.552 7.344 5.69 10.598 10.573 9.568zM778.464 334.062c-1.651-7.81.645-14.654 7.529-16.106 6.884-1.453 11.75 3.881 13.401 11.691 1.659 7.855-.636 14.7-7.52 16.153-6.883 1.451-11.751-3.883-13.41-11.738zm17.999-3.798c-1.364-6.462-5.12-10.669-9.911-9.658-4.791 1.01-6.523 6.376-5.159 12.838 1.365 6.461 5.131 10.716 9.921 9.706 4.791-1.012 6.514-6.425 5.149-12.886zM810.861 339.56l-4.979-23.567c-.196-.93.245-1.605 1.175-1.802l4.883-1.03c8.232-1.736 13.514 3.024 15.134 10.693 1.601 7.578-1.295 14.112-9.528 15.848l-4.883 1.03c-.93.197-1.605-.242-1.802-1.172zm2.602-1.715 3.209-.677c6.931-1.462 8.681-6.978 7.472-12.696-1.207-5.717-5.049-10.102-11.979-8.639l-3.209.677 4.507 21.335zM838.626 333.702l-4.978-23.567c-.197-.93.244-1.605 1.174-1.801l15.302-3.228c1.023-.216 1.662.28 1.819 1.025.157.743-.227 1.455-1.25 1.671-2.14.451-10.774 2.127-13.993 2.757l1.954 9.251c3.199-.724 8.761-1.995 10.297-2.319 1.023-.215 1.662.28 1.819 1.026.157.743-.227 1.456-1.249 1.672-1.536.323-6.904 1.359-10.356 2.037l2.082 9.855c3.479-.782 11.775-2.678 13.915-3.129 1.023-.216 1.662.28 1.819 1.024.157.744-.227 1.456-1.25 1.672l-15.302 3.228c-.93.195-1.607-.244-1.803-1.174z"/><path d="M701.146 381.457c-7.469 0-14.195-5.219-15.798-12.807l-11.225-53.145a11.683 11.683 0 0 0-5.391-7.572l-4.733-2.848a1.993 1.993 0 0 1-.603-2.856l3.176-4.517a11.672 11.672 0 0 0 1.87-9.103l-11.226-53.145a16.025 16.025 0 0 1 2.27-12.143 16.043 16.043 0 0 1 10.196-6.982l9.963-2.103a1.994 1.994 0 1 1 .824 3.904l-9.963 2.103a12.071 12.071 0 0 0-7.676 5.256 12.055 12.055 0 0 0-1.708 9.141l11.226 53.145a15.677 15.677 0 0 1-2.51 12.221l-1.944 2.765 2.897 1.743a15.692 15.692 0 0 1 7.239 10.167l11.225 53.145c1.385 6.554 7.844 10.766 14.407 9.378l9.963-2.102a1.996 1.996 0 1 1 .824 3.904l-9.963 2.102c-1.12.235-2.239.349-3.34.349zM902.053 339.38a1.996 1.996 0 0 1-.41-3.947l9.964-2.102a12.07 12.07 0 0 0 7.675-5.257 12.055 12.055 0 0 0 1.708-9.141l-11.225-53.145a15.674 15.674 0 0 1 2.509-12.221l1.945-2.765-2.897-1.743a15.686 15.686 0 0 1-7.239-10.168l-11.226-53.143a12.066 12.066 0 0 0-5.26-7.671 12.077 12.077 0 0 0-9.147-1.707l-9.963 2.102a1.996 1.996 0 1 1-.824-3.904l9.963-2.102a16.046 16.046 0 0 1 12.15 2.268 16.04 16.04 0 0 1 6.987 10.19l11.226 53.144a11.678 11.678 0 0 0 5.391 7.572l4.733 2.848a1.994 1.994 0 0 1 .603 2.856l-3.178 4.517a11.676 11.676 0 0 0-1.868 9.103l11.225 53.145c.891 4.218.085 8.53-2.27 12.143a16.043 16.043 0 0 1-10.195 6.983l-9.964 2.102c-.138.03-.276.043-.413.043zM377.331 977.425c-.605-.015-.9-.379-.89-.819.01-.44.322-.791.927-.776l9.215.216c.604.014.898.378.889.818-.011.44-.322.791-.926.777-.825-.02-2.805-.149-3.766-.199l-.299 12.727c.963-.005 2.946-.041 3.771-.021.604.014.898.378.889.818-.011.44-.322.791-.926.777l-9.215-.216c-.605-.015-.9-.379-.89-.819.011-.44.322-.791.927-.776.825.019 2.831.149 3.765.198l.299-12.727c-.935.006-2.945.041-3.77.022z"/><path d="M386.247 992.242h-.044l-9.215-.216c-.525-.013-.843-.222-1.016-.395a1.262 1.262 0 0 1-.361-.934c.019-.765.608-1.275 1.437-1.263.574.013 1.716.08 2.678.135l.59.034.275-11.697-.54.006c-.973.012-2.146.026-2.731.012h-.001c-.525-.013-.843-.222-1.016-.395a1.262 1.262 0 0 1-.361-.934c.008-.35.143-.668.382-.896.183-.174.533-.349 1.055-.367l9.215.216c.826.018 1.393.565 1.376 1.327-.018.765-.606 1.261-1.436 1.265-.562-.014-1.656-.077-2.605-.132l-.664-.038-.275 11.697.631-.006c.957-.011 2.073-.022 2.641-.011.826.018 1.393.565 1.376 1.327-.017.751-.587 1.265-1.391 1.265zm-9.248-1.811c-.383 0-.388.209-.39.289-.002.089.02.158.067.205.064.063.183.1.335.104l9.215.216c.443.025.413-.209.415-.29.002-.081.007-.299-.401-.308-.56-.013-1.662 0-2.606.01l-1.664.015.324-13.752 1.695.094a91.99 91.99 0 0 0 2.57.13h.024c.384 0 .389-.21.391-.29.002-.081.007-.299-.401-.308l-9.215-.216c-.155-.003-.277.029-.343.092-.047.044-.071.111-.073.197-.002.09.02.159.067.206.064.063.183.1.335.104.577.012 1.735-.001 2.696-.012l1.573-.014-.324 13.753-1.621-.09c-.948-.055-2.076-.122-2.642-.134l-.027-.001zM404.688 977.269c-.011.44-.321.791-.926.776-1.348-.031-6.27-.23-8.525-.31l-.151 6.46c2.255.025 5.476.046 6.383.067.605.014.899.379.889.819-.01.44-.322.79-.927.776-.907-.021-4.125-.153-6.379-.233l-.135 5.772c-.015.605-.38.926-.876.914-.495-.012-.817-.35-.802-.953l.335-14.268c.013-.549.35-.873.9-.859l9.325.218c.605.016.899.38.889.821z"/><path d="M394.067 992.81h-.038a1.284 1.284 0 0 1-.957-.427c-.227-.261-.342-.619-.332-1.037l.335-14.268c.01-.405.149-.748.403-.99s.592-.35 1.009-.355l9.324.218c.827.02 1.393.567 1.376 1.328v.001c-.019.75-.588 1.263-1.391 1.263h-.046c-.871-.02-3.235-.11-5.408-.193l-2.617-.098-.128 5.449 2.334.022c1.551.014 2.991.027 3.55.04.54.013.861.233 1.036.416.228.239.349.563.34.914a1.255 1.255 0 0 1-.403.915c-.181.166-.486.364-1.034.348-.543-.013-1.909-.065-3.402-.122l-2.478-.093-.124 5.267c-.021.831-.573 1.402-1.349 1.402zm.374-16.08c-.091 0-.206.015-.274.08-.074.071-.093.198-.095.292l-.335 14.268c-.004.163.027.29.088.36.046.053.122.081.227.083.155-.002.356-.042.365-.428l.147-6.277 3.491.13c1.487.056 2.847.108 3.387.121.143 0 .272-.028.339-.089.05-.044.075-.112.077-.2.002-.089-.02-.156-.064-.203-.062-.066-.182-.104-.337-.107-.557-.014-1.991-.026-3.535-.04l-3.346-.033.174-7.469 3.63.134c2.167.083 4.525.173 5.394.193.373-.011.413-.206.415-.288.002-.082.007-.3-.402-.31l-9.325-.218-.021.001zM434.737 997.228c.299.171.458.424.451.725-.01.413-.264.682-.704.672-.166-.004-.357-.036-.739-.238-2.908-1.553-6.204-5.344-6.051-11.886.154-6.544 3.624-10.146 6.602-11.562.39-.183.583-.206.748-.203.439.01.68.291.67.703-.007.303-.177.546-.484.704-2.812 1.446-5.664 4.432-5.804 10.398-.138 5.965 2.568 9.109 5.311 10.687z"/><path d="M434.506 999.123h-.032c-.299-.007-.577-.093-.961-.295-1.532-.819-6.509-4.123-6.317-12.339.193-8.189 5.32-11.255 6.887-12 .394-.185.686-.243.974-.251.343.008.636.129.847.349.211.221.319.52.311.865-.011.481-.287.895-.755 1.136-2.447 1.258-5.393 4.01-5.533 9.967-.139 5.98 2.674 8.87 5.059 10.242.457.262.712.688.702 1.169-.018.685-.501 1.157-1.182 1.157zm.504-23.889c-.073 0-.198.013-.501.155-1.434.683-6.136 3.504-6.316 11.123-.179 7.646 4.384 10.686 5.787 11.435.331.175.446.177.516.179.163.001.189-.024.193-.185.001-.049.004-.164-.201-.28-2.619-1.508-5.711-4.662-5.56-11.131.152-6.447 3.387-9.448 6.075-10.83.21-.108.212-.223.213-.273.002-.07-.012-.129-.035-.153-.024-.025-.082-.042-.171-.04zM447.76 989.86c1.101.025 1.935.815 1.911 1.859-.024 1.045-.896 1.795-1.997 1.77-1.1-.026-1.933-.817-1.909-1.862.024-1.044.894-1.793 1.995-1.767zm-.538-2.901-.201-6.689a25.547 25.547 0 0 1-.018-1.568c.026-1.128.286-1.617 1.055-1.598.771.018 1.007.518.98 1.646a24.245 24.245 0 0 1-.092 1.566l-.516 6.671c-.065.466-.263.681-.621.672-.355-.008-.542-.233-.587-.7z"/><path d="m447.729 993.989-.067-.001c-1.396-.033-2.427-1.054-2.396-2.372a2.239 2.239 0 0 1 .764-1.648c.462-.406 1.084-.596 1.741-.606.661.016 1.269.259 1.712.688.457.441.701 1.038.686 1.682-.03 1.296-1.073 2.257-2.44 2.257zm-.025-3.631c-.393 0-.751.127-1.016.359a1.232 1.232 0 0 0-.424.921c-.018.764.58 1.331 1.422 1.352.838-.017 1.468-.519 1.486-1.283a1.232 1.232 0 0 0-.381-.941c-.263-.254-.633-.398-1.043-.408h-.044zm.124-2.2h-.029c-.289-.007-.975-.131-1.074-1.151l-.002-.033-.201-6.689a26.24 26.24 0 0 1-.018-1.593c.017-.695.117-1.152.325-1.484.26-.413.689-.61 1.241-.602.563.013.971.235 1.211.659.193.341.272.803.256 1.497a23.803 23.803 0 0 1-.095 1.604l-.515 6.66c-.138 1.013-.793 1.132-1.099 1.132zm-.108-1.231c.019.182.061.234.061.235h.004c.081 0 .127-.054.153-.243l.513-6.64c.036-.36.078-1.03.09-1.539.012-.484-.031-.815-.127-.983-.033-.058-.083-.148-.366-.154-.3.003-.336.08-.372.136-.103.164-.162.492-.172.975-.012.509-.001 1.181.017 1.531l.199 6.682zM459.227 992.521c-.705-.484-1.027-.795-1.015-1.317.01-.412.375-.732.788-.723.412.009.683.207 1.332.69 1.055.739 2.365 1.211 3.878 1.246 2.532.059 4.288-.889 4.33-2.676.039-1.65-1.404-2.315-4.171-2.875-3.888-.806-5.819-1.814-5.759-4.371.06-2.556 2.431-3.904 5.239-3.921l.054-2.308c.014-.551.324-.846.79-.836.468.011.764.321.751.872l-.057 2.391c1.454.199 2.763.697 3.816 1.519.324.255.54.481.531.865-.011.44-.322.79-.817.778-.358-.008-.601-.178-.979-.434-1.193-.799-2.366-1.266-3.933-1.303-2.256-.053-3.709.903-3.744 2.387-.037 1.595 1.681 2.213 4.283 2.742 3.452.687 5.714 1.648 5.647 4.506-.06 2.584-2.242 4.018-5.163 4.198l-.049 2.089c-.014.55-.324.844-.791.834-.467-.011-.763-.32-.749-.87l.049-2.09c-1.868-.154-3.286-.738-4.261-1.393z"/><path d="M464.212 997.372h-.036c-.358-.009-.666-.136-.889-.37-.166-.174-.361-.491-.348-1.011l.038-1.628c-1.914-.237-3.237-.896-4.03-1.428l-.004-.003c-.685-.47-1.25-.926-1.232-1.738.017-.685.614-1.198 1.299-1.211.575.013.945.288 1.619.789 1.023.717 2.27 1.117 3.591 1.147 1.175.044 2.154-.17 2.832-.576.638-.381.972-.923.987-1.614.028-1.199-.923-1.798-3.771-2.374-3.854-.8-6.228-1.893-6.159-4.871.059-2.489 2.148-4.213 5.25-4.392l.043-1.837c.02-.807.509-1.338 1.301-1.323.375.009.693.147.918.401.218.247.329.586.321.981l-.047 1.955c1.404.253 2.618.773 3.614 1.55.259.205.739.581.723 1.27a1.267 1.267 0 0 1-1.293 1.265h-.034c-.496-.011-.833-.24-1.223-.504-1.251-.838-2.348-1.203-3.689-1.234-1.954-.038-3.205.701-3.233 1.9-.025 1.066.991 1.654 3.883 2.241 2.967.59 6.129 1.513 6.047 5.007-.06 2.557-2.029 4.309-5.174 4.646l-.038 1.641c-.02.795-.526 1.321-1.266 1.321zm-4.705-5.264c.756.508 2.069 1.148 4.021 1.309l.469.038-.059 2.56c-.004.137.023.246.073.298.054.056.142.067.22.062.11 0 .242-.026.249-.349l.059-2.546.458-.028c2.889-.177 4.644-1.565 4.694-3.712.052-2.177-1.321-3.225-5.246-4.006-2.398-.487-4.733-1.138-4.684-3.242.043-1.806 1.703-2.931 4.255-2.874 1.546.037 2.802.452 4.199 1.388.37.251.517.346.712.35.228.027.304-.18.307-.291.003-.118-.018-.208-.341-.462-.956-.746-2.159-1.223-3.574-1.417l-.442-.06.067-2.836c.003-.134-.022-.242-.07-.296-.037-.041-.101-.063-.194-.065-.094-.005-.271-.009-.28.35l-.065 2.791-.484.003c-2.151.013-4.683.919-4.743 3.434-.048 2.053 1.305 3.03 5.362 3.871 2.34.473 4.621 1.124 4.568 3.375-.024 1.041-.534 1.887-1.474 2.447-.841.501-2.014.746-3.366.716-1.519-.035-2.955-.498-4.152-1.336-.623-.464-.811-.595-1.056-.6h-.007c-.143 0-.269.109-.272.236-.007.239.103.417.796.892zM477.01 978.167l3.878.092c3.053.071 5.855 1.457 5.777 4.784-.062 2.667-1.909 3.999-4.204 4.385l3.59 5.364c.239.363.343.614.335.944-.01.44-.348.734-.788.724-.439-.01-.653-.263-.972-.738l-3.956-6.171-3.08-.073-.137 5.855c-.015.605-.38.927-.876.915-.495-.012-.818-.35-.803-.954l.335-14.267c.012-.55.351-.872.901-.86zm3.843 1.632-3.08-.073-.146 6.213 3.08.073c2.475.057 4.18-1.002 4.226-3.008.047-2.007-1.605-3.148-4.08-3.205z"/><path d="M485.622 994.958h-.035c-.743-.017-1.092-.539-1.374-.959l-3.819-5.956-2.316-.055-.126 5.357c-.02.844-.59 1.421-1.387 1.402a1.29 1.29 0 0 1-.957-.426c-.228-.262-.343-.621-.333-1.039l.335-14.267c.019-.824.55-1.334 1.412-1.347l3.878.092c1.747.041 3.248.478 4.342 1.265 1.297.933 1.962 2.326 1.922 4.029-.056 2.375-1.458 4.058-3.88 4.706l3.183 4.755c.268.408.43.755.419 1.233-.008.336-.14.645-.373.867a1.275 1.275 0 0 1-.891.343zm-8.519-7.99 3.844.092 4.1 6.394c.31.462.397.504.562.508.088-.009.166-.021.214-.067a.233.233 0 0 0 .064-.168c.004-.179-.032-.323-.253-.659l-4.017-6.001.761-.129c1.386-.234 3.722-1.051 3.788-3.905.032-1.379-.475-2.454-1.507-3.196-.93-.669-2.238-1.041-3.783-1.077l-3.878-.092c-.291.014-.384.099-.391.373l-.335 14.267c-.004.163.027.291.088.36.046.054.123.082.228.084.089-.002.355.009.365-.429l.15-6.355zm3.795-.456-.204-.002-3.579-.085.17-7.21 3.579.085c1.345.031 2.477.368 3.275.973.872.66 1.318 1.608 1.292 2.742-.05 2.169-1.781 3.497-4.533 3.497zm-2.761-1.061 2.581.061c2.282.068 3.678-.889 3.716-2.521.019-.811-.283-1.458-.897-1.923-.63-.478-1.562-.744-2.696-.77l-2.581-.061-.123 5.214zM492.869 980.136c-.604-.014-.899-.379-.889-.819.01-.44.322-.79.926-.776l9.215.216c.605.015.899.379.89.819-.011.44-.322.791-.927.776-.825-.019-2.804-.148-3.766-.199l-.299 12.727c.964-.004 2.946-.041 3.771-.021.605.015.9.379.89.819-.011.44-.322.791-.927.776l-9.215-.216c-.604-.014-.899-.379-.889-.819.01-.44.322-.79.926-.776.825.019 2.832.149 3.765.199l.299-12.727c-.934.004-2.945.04-3.77.021z"/><path d="M501.787 994.953h-.046l-9.215-.216c-.54-.013-.861-.233-1.036-.416a1.262 1.262 0 0 1-.34-.914c.008-.361.151-.687.403-.915.18-.165.476-.343 1.033-.348.587.014 1.766.083 2.738.14l.529.03.275-11.697-.595.006c-.962.012-2.103.023-2.676.011-.54-.013-.861-.233-1.036-.416a1.262 1.262 0 0 1-.34-.914c.008-.361.151-.687.403-.915.18-.165.485-.346 1.033-.348l9.215.216c.827.02 1.394.567 1.377 1.328-.019.751-.589 1.264-1.392 1.264h-.046c-.575-.014-1.706-.08-2.67-.136l-.598-.034-.275 11.697.7-.007c.942-.009 2.018-.02 2.573-.01.525.013.843.222 1.016.395.242.242.369.573.361.934-.018.751-.588 1.265-1.391 1.265zm-9.246-1.812c-.141 0-.252.031-.316.088-.05.045-.075.113-.077.201s.02.156.064.203c.062.066.182.104.337.107l9.215.216c.384-.026.414-.207.416-.289.002-.089-.02-.158-.067-.205-.064-.063-.183-.1-.335-.104-.549-.013-1.61 0-2.539.01l-1.732.014.324-13.752 1.629.091c.951.055 2.068.121 2.635.134.401-.019.414-.208.416-.289.002-.081.007-.299-.402-.309l-9.215-.216c-.153.005-.271.028-.338.088-.05.045-.075.113-.077.201s.02.156.064.203c.062.066.182.104.337.107.566.013 1.693.001 2.641-.011l1.628-.014-.324 13.753-1.56-.087a98.68 98.68 0 0 0-2.703-.138c-.007-.002-.014-.002-.021-.002zM508.731 993.683c-.705-.484-1.027-.795-1.015-1.317.01-.412.375-.733.788-.724.412.01.683.208 1.332.691 1.028.738 2.311 1.181 3.769 1.215 2.2.052 4.341-.889 4.388-2.895.04-1.703-1.592-2.484-4.245-3.207-3.582-.965-5.593-2.112-5.528-4.833.057-2.474 2.489-4.04 5.487-3.97 1.87.044 3.729.61 4.971 1.63.325.255.54.48.53.865-.01.44-.322.791-.817.779-.358-.009-.601-.18-.98-.436a6.7 6.7 0 0 0-3.767-1.272c-2.311-.054-3.657 1.016-3.692 2.499-.042 1.788 1.841 2.465 4.055 3.093 3.555.992 5.789 1.98 5.722 4.838-.07 2.968-2.722 4.557-6.133 4.477-2.146-.049-3.781-.693-4.865-1.433z"/><path d="m513.84 995.619-.255-.003c-2.49-.058-4.167-.86-5.136-1.521l-.001-.001c-.685-.47-1.25-.926-1.232-1.738.017-.686.58-1.22 1.299-1.212.575.014.946.289 1.619.79.973.699 2.179 1.087 3.483 1.117 1.069.01 2.028-.192 2.737-.607.739-.434 1.123-1.041 1.14-1.802.028-1.216-.986-1.926-3.878-2.714-3.591-.967-5.969-2.244-5.896-5.326.031-1.337.69-2.521 1.853-3.336 1.088-.76 2.547-1.137 4.145-1.121 2.064.049 3.987.684 5.276 1.744.249.196.73.573.712 1.262a1.296 1.296 0 0 1-.393.919 1.274 1.274 0 0 1-.935.346c-.494-.013-.829-.239-1.217-.501-1.074-.77-2.28-1.177-3.531-1.208-1.895-.025-3.152.745-3.182 2.012-.03 1.298 1.274 1.916 3.692 2.601 3.375.943 6.163 1.995 6.085 5.33-.068 2.995-2.623 4.969-6.385 4.969zm-4.827-2.347c.702.479 2.232 1.291 4.595 1.347 3.395.078 5.562-1.487 5.622-3.99.057-2.408-1.682-3.32-5.358-4.346-1.889-.536-4.474-1.269-4.419-3.585.044-1.843 1.741-3.033 4.203-2.986a7.213 7.213 0 0 1 4.047 1.365c.362.244.508.338.702.343.096.013.17-.02.221-.07a.312.312 0 0 0 .084-.221c.003-.12-.018-.209-.34-.463-1.112-.914-2.855-1.48-4.674-1.523-1.371-.055-2.634.302-3.549.941-.634.444-1.397 1.245-1.428 2.542-.052 2.164 1.299 3.301 5.159 4.341 2.364.644 4.667 1.46 4.614 3.7-.026 1.113-.591 2.026-1.632 2.637-.866.509-2.035.769-3.266.745-1.506-.035-2.905-.488-4.049-1.309-.619-.461-.806-.592-1.052-.598-.137-.008-.275.108-.278.237-.006.238.104.415.798.893zM535.008 994.959l-5.649-7.834-2.338 2.256-.12 5.113c-.015.605-.38.926-.875.914-.495-.012-.818-.35-.803-.954l.343-14.597c.014-.605.352-.927.847-.915.495.012.845.351.831.955l-.175 7.449 7.501-7.608c.366-.376.646-.59 1.057-.58.413.01.765.293.753.788-.009.358-.208.601-.489.897l-5.378 5.181 5.949 8.006c.241.309.345.558.338.861-.01.412-.376.762-.872.75-.385-.009-.573-.205-.92-.682z"/><path d="M535.952 996.14h-.036c-.629-.015-.94-.377-1.312-.887l-.001-.002-5.313-7.367-1.776 1.713-.115 4.909c-.02.844-.554 1.412-1.386 1.401a1.29 1.29 0 0 1-.957-.426c-.228-.262-.343-.621-.333-1.039l.343-14.597c.013-.557.235-.884.42-1.061.244-.232.555-.347.938-.342.795.018 1.337.621 1.318 1.466l-.146 6.191 6.617-6.711c.366-.377.792-.729 1.425-.729.335.008.645.133.871.353.247.24.378.575.369.946-.014.541-.304.89-.627 1.229l-5.078 4.892 5.688 7.655c.313.401.445.754.437 1.17-.015.699-.604 1.236-1.346 1.236zm-.539-1.472c.343.47.404.471.527.474h.013c.214 0 .346-.132.349-.263.004-.146-.034-.288-.233-.542l-6.217-8.368 5.694-5.486c.257-.271.332-.392.336-.55.002-.092-.019-.161-.065-.206a.298.298 0 0 0-.201-.071c-.198-.001-.327.06-.688.43l-8.386 8.507.205-8.708c.01-.437-.248-.443-.344-.445-.107-.001-.177.02-.225.066-.068.064-.107.193-.111.362l-.343 14.597c-.004.163.027.291.088.36.046.054.123.082.228.084.098.003.354.009.365-.428l.125-5.318 2.9-2.798 5.983 8.303zM542.874 978.668c-.298-.171-.458-.423-.451-.726.01-.412.265-.682.705-.671.166.004.357.036.739.238 2.908 1.554 6.205 5.316 6.051 11.859-.153 6.543-3.624 10.174-6.602 11.589-.39.183-.583.206-.748.203-.44-.011-.681-.291-.671-.704.007-.301.178-.545.484-.703 2.814-1.447 5.666-4.46 5.805-10.426.139-5.966-2.568-9.082-5.312-10.659z"/><path d="M542.594 1001.659h-.039c-.699-.018-1.175-.516-1.159-1.214.011-.479.286-.893.754-1.135 2.449-1.259 5.396-4.014 5.535-9.994.14-5.959-2.674-8.845-5.06-10.215-.457-.263-.712-.689-.702-1.17.008-.338.126-.628.341-.839.221-.217.555-.326.874-.319.298.007.576.093.96.295 1.532.819 6.51 4.124 6.317 12.312-.192 8.216-5.32 11.284-6.887 12.028-.376.177-.651.251-.934.251zm.529-23.423c2.62 1.506 5.713 4.654 5.56 11.103-.151 6.47-3.387 9.475-6.076 10.857-.21.109-.212.227-.213.272-.004.161.045.191.184.194.072.002.183.004.524-.155 1.435-.682 6.137-3.504 6.316-11.15.179-7.619-4.384-10.658-5.786-11.408-.331-.174-.446-.176-.516-.178-.073-.031-.192.095-.194.184-.001.048-.004.163.201.281zM458.665 1020.009c-.705-.484-1.028-.794-1.015-1.316.01-.412.375-.733.788-.724.412.009.682.207 1.332.691 1.054.74 2.365 1.211 3.878 1.246 2.532.059 4.288-.888 4.33-2.676.039-1.649-1.404-2.315-4.171-2.875-3.889-.806-5.82-1.814-5.759-4.371.059-2.557 2.43-3.904 5.238-3.921l.055-2.308c.013-.55.323-.846.789-.836.468.011.764.321.751.872l-.057 2.391c1.454.199 2.763.697 3.817 1.519.324.255.54.481.53.866-.01.44-.322.789-.817.777-.358-.008-.601-.178-.98-.433-1.191-.8-2.365-1.267-3.932-1.304-2.256-.053-3.709.904-3.744 2.387-.037 1.595 1.681 2.214 4.284 2.742 3.451.687 5.713 1.648 5.646 4.506-.06 2.584-2.242 4.018-5.163 4.198l-.049 2.089c-.013.55-.323.844-.79.834-.468-.011-.763-.319-.75-.87l.049-2.089c-1.867-.156-3.285-.739-4.26-1.395z"/><path d="M463.651 1024.86h-.036c-.375-.009-.692-.147-.917-.4-.218-.246-.329-.585-.321-.98l.038-1.628c-1.915-.238-3.237-.897-4.029-1.429l-.004-.003c-.685-.471-1.251-.927-1.232-1.738.017-.685.605-1.213 1.299-1.211.573.013.944.288 1.619.789 1.021.717 2.267 1.117 3.591 1.147 1.177.04 2.153-.17 2.832-.575.639-.381.972-.924.987-1.615.028-1.199-.923-1.798-3.771-2.374-3.855-.8-6.229-1.893-6.159-4.871.058-2.489 2.146-4.213 5.25-4.392l.043-1.837c.019-.796.524-1.323 1.264-1.323h.036c.375.009.693.147.918.401.218.247.329.586.321.981l-.047 1.955c1.404.253 2.618.773 3.615 1.55.259.205.74.581.722 1.272a1.293 1.293 0 0 1-.392.917c-.244.232-.591.345-.936.346-.494-.011-.829-.237-1.218-.499-1.254-.842-2.35-1.208-3.694-1.239-1.978-.028-3.206.701-3.233 1.9-.025 1.068.991 1.655 3.884 2.241 2.967.59 6.128 1.513 6.046 5.007-.06 2.557-2.029 4.309-5.174 4.646l-.038 1.641c-.018.795-.525 1.321-1.264 1.321zm-4.705-5.263c.756.507 2.067 1.146 4.02 1.309l.469.039-.059 2.558c-.003.133.022.242.069.295.036.041.101.062.194.064.106-.006.272.006.28-.347l.059-2.547.458-.028c2.889-.177 4.644-1.565 4.694-3.711.052-2.177-1.321-3.225-5.245-4.006-2.398-.486-4.734-1.137-4.685-3.242.042-1.777 1.757-2.936 4.255-2.874 1.548.037 2.804.452 4.199 1.389.372.251.518.345.712.349.106-.005.172-.021.223-.07a.305.305 0 0 0 .084-.219c.003-.121-.019-.21-.34-.464-.957-.746-2.161-1.223-3.575-1.417l-.442-.06.067-2.836c.003-.134-.022-.242-.07-.296-.037-.041-.101-.063-.194-.065-.1-.006-.27-.009-.279.349l-.066 2.792-.484.003c-2.151.013-4.683.919-4.742 3.434-.049 2.053 1.304 3.03 5.362 3.871 2.34.473 4.621 1.124 4.568 3.375-.024 1.041-.534 1.887-1.474 2.447-.84.5-2.003.753-3.366.716-1.522-.035-2.958-.498-4.152-1.336-.624-.464-.812-.595-1.056-.6-.113-.013-.277.106-.279.237-.008.238.101.414.795.891zM474.064 1013.439c.117-5.003 2.586-8.162 6.85-8.062 2.118.05 3.884.998 4.718 1.787.35.339.647.62.637 1.006-.012.522-.403.816-.871.805-.276-.007-.491-.15-.735-.375-1.238-1.185-2.356-1.624-3.786-1.658-3.246-.077-4.988 2.605-5.08 6.537-.093 3.931 1.74 6.752 4.904 6.826 1.238.029 2.647-.185 3.652-.822l.106-4.535c-1.074.003-1.846.039-2.671.019-.604-.014-.898-.379-.889-.818.011-.44.323-.79.927-.776l3.411.08c.551.014.873.351.859.9l-.127 5.417c-.011.438-.156.766-.518.978-1.507.873-2.972 1.14-4.787 1.098-4.181-.098-6.718-3.403-6.6-8.407z"/><path d="M481.017 1022.349c-.12 0-.241-.001-.364-.004-2.199-.052-4.03-.936-5.294-2.556-1.234-1.582-1.854-3.782-1.793-6.362.06-2.599.747-4.761 1.985-6.251 1.291-1.554 3.131-2.367 5.375-2.297 2.283.054 4.147 1.07 5.049 1.923.408.395.808.783.793 1.381a1.302 1.302 0 0 1-.436.966c-.25.217-.546.323-.946.325-.464-.012-.797-.263-1.061-.507-1.101-1.054-2.101-1.494-3.459-1.525-1.398-.024-2.518.492-3.31 1.563-.78 1.054-1.215 2.605-1.259 4.487-.044 1.853.351 3.43 1.141 4.562.779 1.116 1.911 1.722 3.275 1.754 1.219.034 2.353-.192 3.149-.615l.088-3.742-.659.01c-.538.009-1.017.016-1.513.006-.826-.019-1.393-.565-1.376-1.327.019-.764.609-1.262 1.437-1.264l3.411.08c.405.01.748.15.99.403.244.254.366.603.357 1.008l-.127 5.416c-.016.639-.273 1.108-.765 1.397-1.407.812-2.825 1.169-4.688 1.169zm-.304-16.475c-1.848 0-3.326.652-4.395 1.939-1.092 1.316-1.7 3.266-1.755 5.638-.056 2.347.492 4.327 1.583 5.725 1.074 1.376 2.64 2.127 4.53 2.172 1.876.055 3.203-.265 4.525-1.03.155-.091.262-.221.27-.559l.127-5.416c.003-.094-.01-.221-.08-.295-.071-.074-.199-.093-.293-.094l-3.41-.08c-.414-.011-.414.207-.416.289-.002.081-.007.299.401.308.484.01.952.003 1.473-.006.361-.006.747-.013 1.185-.014l.512-.001-.125 5.314-.225.142c-1.315.832-3.033.918-3.931.9-1.695-.04-3.102-.794-4.07-2.18-.912-1.307-1.369-3.09-1.32-5.157.049-2.088.552-3.836 1.455-5.057.983-1.328 2.428-2.018 4.136-1.967 1.612.037 2.844.575 4.119 1.796.21.193.31.235.402.237.11-.004.205-.026.266-.08.059-.053.092-.132.094-.238.004-.163-.215-.375-.469-.621-.847-.802-2.527-1.619-4.399-1.662-.064-.003-.127-.003-.19-.003zM491.328 1021.16l.224-9.511c.086-3.683 1.847-5.98 5.449-5.895 3.604.085 5.254 2.461 5.169 6.144l-.224 9.511c-.014.605-.38.926-.875.915-.495-.012-.818-.35-.804-.954l.114-4.837-7.262-.17-.114 4.837c-.014.605-.351.927-.847.915-.493-.011-.843-.35-.83-.955zm5.638-13.867c-2.503-.058-3.668 1.455-3.737 4.423l-.074 3.134 7.262.17.074-3.134c.069-2.968-1.022-4.534-3.525-4.593z"/><path d="M501.095 1022.824h-.034c-.792-.018-1.312-.607-1.292-1.465l.102-4.339-6.264-.147-.102 4.339c-.013.558-.235.884-.42 1.061a1.22 1.22 0 0 1-.937.342c-.795-.019-1.336-.621-1.318-1.466l.224-9.511c.047-2.003.561-3.578 1.53-4.679 1.034-1.174 2.529-1.768 4.43-1.703 3.69.087 5.752 2.513 5.656 6.655l-.224 9.511c-.019.83-.573 1.402-1.351 1.402zm-8.463-6.971 8.26.194-.126 5.336c-.01.436.21.442.317.444.094.001.355.011.364-.429l.224-9.511c.058-2.519-.706-5.541-4.681-5.634-1.615-.057-2.827.422-3.657 1.365-.81.919-1.241 2.28-1.281 4.043l-.224 9.511c-.01.437.247.443.343.445.089 0 .176-.019.225-.066.068-.064.107-.193.111-.362l.125-5.336zm8.272-.322-8.26-.194.086-3.633c.038-1.632.388-2.826 1.07-3.652.716-.868 1.776-1.286 3.178-1.258 2.739.065 4.089 1.782 4.012 5.104l-.086 3.633zm-7.239-1.167 6.264.147.062-2.635c.064-2.773-.872-4.032-3.038-4.084-1.077-.04-1.866.266-2.385.895-.526.638-.81 1.661-.842 3.042l-.061 2.635zM508.809 1008.012c-.605-.015-.899-.379-.89-.819.011-.44.322-.79.927-.775l9.214.216c.605.014.9.378.89.818-.01.44-.322.79-.927.776-.825-.02-2.804-.149-3.765-.199l-.299 12.727c.963-.004 2.945-.04 3.77-.02.605.014.9.378.89.818-.01.44-.322.79-.927.776l-9.214-.216c-.605-.015-.899-.379-.89-.819.011-.44.322-.79.927-.775.825.019 2.831.149 3.766.198l.299-12.727c-.936.004-2.946.04-3.771.021z"/><path d="M517.725 1022.829h-.046l-9.214-.216c-.827-.02-1.394-.567-1.377-1.328.02-.765.649-1.274 1.437-1.263.574.014 1.713.08 2.673.135l.595.034.275-11.697-.598.006c-.961.011-2.101.023-2.674.011-.827-.02-1.394-.567-1.377-1.328.019-.75.588-1.263 1.392-1.263h.046l9.214.216c.541.013.862.233 1.037.416.228.239.349.563.34.913a1.255 1.255 0 0 1-.403.915c-.182.166-.5.337-1.034.348-.562-.014-1.655-.077-2.603-.132l-.665-.038-.275 11.697.683-.006c.944-.011 2.029-.021 2.588-.01.541.013.862.233 1.037.416.228.239.349.563.34.913a1.255 1.255 0 0 1-.403.915c-.176.159-.489.346-.988.346zm-9.248-1.811c-.383 0-.388.208-.39.288-.002.081-.007.299.402.309l9.214.216c.142-.003.272-.027.339-.089.05-.044.075-.112.077-.2.002-.088-.02-.155-.064-.202-.062-.065-.182-.104-.338-.107a91.34 91.34 0 0 0-2.554.01l-1.715.013.324-13.751 1.696.094c.935.055 2.013.118 2.568.13.146-.001.273-.027.339-.089.05-.044.075-.112.077-.2s-.019-.155-.064-.202c-.062-.065-.182-.104-.338-.107l-9.214-.216c-.418-.023-.414.206-.416.288-.002.081-.007.299.402.309.563.011 1.689 0 2.64-.011l1.63-.014-.323 13.753-1.625-.09a97.567 97.567 0 0 0-2.639-.134c-.011.002-.02.002-.028.002zM534.294 1023.104c-.467-.011-.681-.291-.972-.793l-7.146-12.159-.278 11.819c-.014.605-.379.927-.874.915-.495-.012-.818-.35-.804-.954l.343-14.57c.015-.659.353-.953.765-.944.468.011.681.29.973.792l7.145 12.187.278-11.849c.015-.604.38-.925.875-.914.495.012.817.35.802.953l-.342 14.57c-.016.663-.352.957-.765.947z"/><path d="M534.312 1023.603h-.03c-.799-.018-1.142-.61-1.392-1.042l-6.256-10.645-.237 10.067c-.01.431-.156.795-.423 1.05-.248.236-.587.338-.962.353-.791-.018-1.311-.607-1.291-1.465l.343-14.57c.014-.595.239-.933.426-1.111.224-.214.544-.311.85-.319.799.018 1.142.609 1.393 1.04l6.255 10.671.237-10.094c.021-.843.596-1.378 1.386-1.4.386.009.726.161.957.427.227.261.342.619.332 1.037l-.342 14.57c-.024.992-.638 1.431-1.246 1.431zm-8.594-15.214 8.034 13.671c.301.518.392.542.554.546h.006c.158 0 .242-.154.248-.458l.342-14.57c.004-.163-.027-.29-.088-.36-.046-.053-.122-.081-.227-.083-.096-.004-.355-.01-.364.427l-.319 13.603-8.034-13.702c-.301-.518-.387-.542-.554-.545-.085-.017-.124.031-.137.044-.033.031-.111.135-.117.412l-.343 14.571c-.01.436.211.442.317.444.12.013.194-.022.249-.077.07-.067.11-.192.114-.352l.319-13.571zM540.923 1018.473c.012-.495.403-.76.898-.748l8.857.208c.495.012.874.294.862.789-.012.496-.403.762-.898.75l-8.858-.208c-.494-.011-.872-.295-.861-.791zm.124-5.276c.012-.496.403-.762.898-.75l8.857.208c.495.012.874.295.862.791-.012.495-.403.761-.898.749l-8.857-.208c-.495-.012-.874-.295-.862-.79z"/><path d="M550.675 1019.971h-.044l-8.858-.208c-.812-.019-1.366-.554-1.349-1.301.018-.746.602-1.25 1.409-1.235l8.857.208c.368.009.692.125.936.334.276.239.423.581.414.965s-.172.72-.458.946a1.446 1.446 0 0 1-.907.291zm-9.253-1.486c-.004.18.122.275.374.281l8.858.208c.135.001.243-.024.31-.078.035-.027.075-.073.078-.185.003-.111-.035-.158-.068-.186a.496.496 0 0 0-.307-.093l-8.857-.208c-.261.003-.384.083-.388.261zm9.377-3.791h-.044l-8.857-.208c-.813-.019-1.367-.554-1.35-1.3.009-.384.172-.72.458-.946.254-.199.577-.286.951-.291l8.857.208c.813.019 1.367.554 1.35 1.301-.009.384-.172.72-.458.945-.244.19-.556.291-.907.291zm-8.885-1.749a.472.472 0 0 0-.29.078c-.035.027-.075.073-.078.185-.003.111.035.159.068.187.065.056.176.09.307.093l8.857.208a.478.478 0 0 0 .31-.078c.035-.027.075-.073.078-.184.005-.18-.122-.275-.375-.28l-8.857-.208-.02-.001zM556.598 1015.376c.108-4.617 2.311-8.169 6.382-8.074 4.071.095 6.105 3.747 5.997 8.364-.109 4.646-2.312 8.197-6.384 8.102-4.07-.095-6.104-3.745-5.995-8.392zm10.673.251c.09-3.822-1.494-6.692-4.328-6.758-2.833-.066-4.549 2.726-4.639 6.548-.091 3.822 1.493 6.719 4.326 6.785 2.834.066 4.55-2.754 4.641-6.575zm-5.914-.14c.018-.769.636-1.332 1.461-1.313.825.019 1.417.611 1.399 1.38-.019.77-.637 1.333-1.463 1.314-.824-.019-1.415-.61-1.397-1.381z"/><path d="m562.749 1024.269-.168-.002c-2.101-.05-3.819-.987-4.968-2.711-1.049-1.573-1.573-3.714-1.514-6.191.057-2.465.681-4.57 1.803-6.089 1.23-1.666 2.976-2.501 5.09-2.472 4.063.095 6.608 3.579 6.484 8.874-.123 5.24-2.757 8.591-6.727 8.591zm.068-16.47c-1.715 0-3.099.695-4.112 2.069-.999 1.353-1.555 3.262-1.608 5.52-.054 2.272.412 4.213 1.347 5.615.974 1.463 2.375 2.225 4.161 2.267 4.193.104 5.786-3.869 5.873-7.615.088-3.732-1.314-7.755-5.51-7.854a7.603 7.603 0 0 0-.151-.002zm-.091 14.902-.107-.001c-1.538-.036-2.807-.804-3.674-2.223-.793-1.3-1.187-3.054-1.139-5.072.1-4.276 2.144-7.07 5.149-7.034 1.539.036 2.808.8 3.674 2.209.794 1.292 1.188 3.042 1.141 5.059-.101 4.241-2.123 7.062-5.044 7.062zm.121-13.335c-2.374 0-3.957 2.367-4.044 6.062-.043 1.801.31 3.41.994 4.53.679 1.114 1.664 1.718 2.845 1.745l.084.001c2.374 0 3.958-2.377 4.046-6.089.042-1.799-.311-3.402-.994-4.515-.679-1.105-1.664-1.705-2.847-1.733l-.084-.001zm-.05 8.002-.054-.001a1.98 1.98 0 0 1-1.355-.553 1.804 1.804 0 0 1-.53-1.338c.012-.511.222-.977.592-1.311.363-.327.872-.493 1.379-.489 1.099.026 1.91.839 1.887 1.89-.025 1.036-.846 1.801-1.919 1.802zm-.02-2.695a.976.976 0 0 0-.658.232.801.801 0 0 0-.263.594.803.803 0 0 0 .235.607.98.98 0 0 0 .675.264c.53.018.94-.326.952-.827.012-.499-.363-.857-.912-.87h-.029zM577.693 1028.744a.493.493 0 0 1-.483-.507c.006-.219.175-.435.428-.622 1.286-.849 2.235-2.559 2.094-3.608-1.577.32-2.544-.665-2.516-1.846.023-1.018.867-1.769 1.913-1.744 1.677.039 2.227 1.263 2.191 2.802-.052 2.2-1.427 4.533-2.96 5.295-.223.103-.447.236-.667.23zm1.721-16.986c1.1.026 1.934.815 1.91 1.86s-.896 1.795-1.996 1.769c-1.1-.025-1.934-.815-1.91-1.86.025-1.045.896-1.794 1.996-1.769z"/><path d="M577.707 1029.243h-.024a.996.996 0 0 1-.972-1.017c.007-.255.122-.636.63-1.012.993-.656 1.707-1.812 1.871-2.649-.65 0-1.229-.176-1.679-.552-.536-.449-.833-1.129-.816-1.865a2.239 2.239 0 0 1 .737-1.621c.452-.408 1.061-.612 1.687-.611 1.192.028 1.821.59 2.139 1.057.379.558.56 1.317.539 2.256-.055 2.338-1.476 4.856-3.236 5.729l-.116.057c-.209.102-.466.228-.76.228zm.002-.989-.001.002h.002l-.001-.002zm2.446-4.843.071.529c.172 1.276-.887 3.149-2.313 4.09a.657.657 0 0 0-.201.215c.063-.003.213-.076.314-.126l.122-.059c1.399-.694 2.628-2.921 2.673-4.855.018-.727-.106-1.288-.366-1.671-.275-.403-.711-.606-1.337-.62-.404.008-.732.117-.993.353a1.242 1.242 0 0 0-.409.905c-.011.431.157.824.459 1.077.35.292.867.389 1.459.269l.521-.107zm-.771-7.524-.067-.001c-.661-.016-1.268-.259-1.712-.688a2.242 2.242 0 0 1-.685-1.683c.031-1.318 1.129-2.276 2.506-2.256 1.397.033 2.427 1.053 2.397 2.37a2.24 2.24 0 0 1-.764 1.649 2.518 2.518 0 0 1-1.675.609zm-.026-3.631c-.82 0-1.424.534-1.441 1.283-.009.367.123.693.381.942.262.254.632.398 1.042.408.393-.003.784-.117 1.06-.358.27-.237.416-.556.425-.923.018-.762-.581-1.329-1.423-1.35a.62.62 0 0 0-.044-.002zM758.061 529.525a1.59 1.59 0 1 0-2.426-2.057l-16.044 18.898-9.904-8.359c.098-.158.179-.329.216-.523l4.787-24.509a1.588 1.588 0 0 0-.367-1.355l-12.46-14.136a1.59 1.59 0 0 0-2.387 2.101l11.943 13.549-4.415 22.607-.158-.133c-4.64-3.908-11.57-3.329-15.496 1.295l-1.412 1.663-.026-.022-8.482 9.99 62.077 52.638c8.894-11.751 7.159-28.537-4.223-38.188l-3.331-2.811 21.506-8.001 15.322 9.569a1.593 1.593 0 0 0 2.192-.506 1.588 1.588 0 0 0-.506-2.19l-15.986-9.984a1.59 1.59 0 0 0-1.398-.142l-23.416 8.712c-.161.06-.301.148-.429.25l-11.215-9.465 16.038-18.891z"/><path d="M655.373 543.169a14.658 14.658 0 0 1 10.162-7.415c4.344-.83 8.784.316 12.187 3.149l6.036 4.985c-1.412 5.309.21 11.193 4.68 14.984l.026.022 19.021-22.405-.026-.022c-4.47-3.791-10.544-4.431-15.555-2.174l-5.909-5.144a14.651 14.651 0 0 1-5.089-11.5 14.651 14.651 0 0 1 5.666-11.228 1.59 1.59 0 0 0-1.955-2.508 17.815 17.815 0 0 0-6.89 13.655 17.816 17.816 0 0 0 6.185 13.982l5.113 4.451c-.82.627-1.589 1.344-2.284 2.163s-1.278 1.694-1.764 2.605l-5.222-4.313a17.843 17.843 0 0 0-14.816-3.825 17.837 17.837 0 0 0-12.358 9.018 1.589 1.589 0 1 0 2.792 1.52z"/><path d="m690.915 560.973-1.476 1.738c-3.935 4.635-3.365 11.581 1.273 15.514l.055.046-21.41 7.965-15.322-9.569a1.588 1.588 0 0 0-2.192.506 1.588 1.588 0 0 0 .506 2.19l15.986 9.984a1.59 1.59 0 0 0 1.398.142l23.416-8.712c.128-.048.246-.111.354-.186l9.904 8.398-16.574 19.523a1.59 1.59 0 1 0 2.426 2.057l16.574-19.523 11.209 9.504a1.623 1.623 0 0 0-.13.376l-4.787 24.509c-.095.484.041.985.368 1.355l12.46 14.137a1.59 1.59 0 0 0 2.387-2.102l-11.943-13.549 4.377-22.409 2.935 2.489c11.421 9.685 28.512 8.994 38.742-1.756l-62.079-52.639-8.482 9.99.025.022z"/><path fill="#FFF" d="M752.266 776.62a6.874 6.874 0 0 1-5.513-2.749l-23.335-31.154a6.818 6.818 0 0 1-1.3-5.104 6.823 6.823 0 0 1 2.699-4.523l197.148-146.598a14.212 14.212 0 0 1 10.611-2.673 14.2 14.2 0 0 1 9.395 5.609l14.381 19.314c4.707 6.323 3.389 15.292-2.937 19.995L756.36 775.266a6.85 6.85 0 0 1-4.094 1.354zm178.212-188.966c-2.2 0-4.334.702-6.13 2.038L727.2 736.29h-.001a2.864 2.864 0 0 0-1.131 1.896c-.11.763.083 1.523.546 2.141l23.335 31.154a2.89 2.89 0 0 0 4.029.584l197.055-146.528a10.237 10.237 0 0 0 4.046-6.769c.4-2.722-.286-5.437-1.929-7.645l-14.381-19.314a10.246 10.246 0 0 0-6.773-4.044 10.508 10.508 0 0 0-1.518-.111zM726.008 734.69h.01-.01z"/><path d="m952.948 626.612-31.169 23.177-29.072-39.049 31.18-23.185c5.05-3.755 12.187-2.707 15.945 2.34l15.458 20.763c3.761 5.051 2.712 12.196-2.342 15.954z"/><path d="m921.369 652.579-31.454-42.251 32.797-24.387c5.915-4.395 14.309-3.167 18.708 2.744l15.492 20.809a13.27 13.27 0 0 1 2.503 9.916 13.276 13.276 0 0 1-5.249 8.78h.001l-32.798 24.389zm-25.868-41.43 26.688 35.848 29.594-22.005a9.317 9.317 0 0 0 3.681-6.159 9.308 9.308 0 0 0-1.755-6.956l-15.492-20.81c-3.089-4.146-8.974-5.01-13.124-1.924l-29.592 22.006z"/><path fill="#FFD829" d="M929.496 619.481c-.552 0-1.108-.04-1.668-.123-6.241-.914-10.573-6.734-9.657-12.971.916-6.238 6.757-10.567 12.979-9.651 6.241.914 10.573 6.735 9.657 12.971-.833 5.677-5.732 9.774-11.311 9.774zm-.012-18.878c-3.633 0-6.822 2.667-7.365 6.362-.596 4.061 2.225 7.851 6.287 8.447a7.452 7.452 0 0 0 8.452-6.284c.596-4.061-2.225-7.851-6.287-8.447a7.706 7.706 0 0 0-1.087-.078z"/><path fill="#FFD829" d="M925.59 636.752a1.994 1.994 0 0 1-1.977-2.283l2.49-16.956a1.993 1.993 0 0 1 2.264-1.684 1.994 1.994 0 0 1 1.685 2.262l-2.49 16.956a1.995 1.995 0 0 1-1.972 1.705z"/><path d="m800.1 468.947 3.159-18.557c.201-1.179.954-1.714 1.921-1.549.965.164 1.552.926 1.353 2.106l-3.159 18.557c-1.05 6.168 1.204 9.144 5.552 9.883 4.454.758 7.566-1.307 8.615-7.475l3.159-18.557c.2-1.179.955-1.713 1.92-1.549.966.165 1.554.927 1.355 2.107l-3.159 18.557c-1.242 7.295-5.379 11.171-12.41 9.975-6.924-1.178-9.548-6.203-8.306-13.498zM825.095 468.726c1.534-9.01 6.861-15.333 14.804-13.983 7.942 1.351 10.878 9.079 9.344 18.088-1.543 9.064-6.87 15.388-14.812 14.037-7.943-1.35-10.879-9.078-9.336-18.142zm20.821 3.539c1.269-7.454-1.011-13.526-6.538-14.465-5.528-.94-9.687 4.037-10.956 11.491-1.269 7.455 1.001 13.58 6.529 14.52 5.526.94 9.696-4.09 10.965-11.546zm-11.538-1.961c.255-1.501 1.627-2.427 3.238-2.153 1.61.274 2.599 1.601 2.344 3.103-.255 1.502-1.628 2.427-3.238 2.153-1.611-.274-2.6-1.601-2.344-3.103zM850.584 488.622a1.463 1.463 0 0 1 1.696-1.202c.323.055.894.262 1.27.325 1.717.292 4.14-1.614 5.541-3.031-1.888-2.859-3.871-6.452-3.278-9.938.685-4.022 4.228-6.345 8.467-5.624 4.24.721 6.815 4.084 6.131 8.106-.594 3.486-3.655 6.221-6.383 8.296.853 1.8 2.508 4.399 4.227 4.691.374.064.983.057 1.305.112.859.146 1.33.944 1.203 1.695-.21 1.233-1.455 1.408-2.796 1.18-3.649-.62-5.412-3.238-6.773-5.952-2.182 2.112-4.712 4-8.36 3.379-1.343-.227-2.46-.804-2.25-2.037zM877.145 477.575c1.534-9.01 6.861-15.333 14.804-13.982 7.942 1.35 10.878 9.078 9.344 18.087-1.543 9.064-6.87 15.388-14.812 14.038-7.942-1.351-10.878-9.079-9.336-18.143zm20.821 3.54c1.269-7.454-1.011-13.526-6.538-14.465-5.527-.94-9.687 4.037-10.956 11.491-1.269 7.455 1.002 13.58 6.529 14.52s9.697-4.091 10.965-11.546zm-11.538-1.961c.255-1.502 1.628-2.427 3.238-2.153 1.611.274 2.599 1.601 2.344 3.102-.255 1.502-1.627 2.428-3.238 2.154-1.61-.274-2.599-1.601-2.344-3.103zM904.202 486.645l3.159-18.557c.2-1.179.953-1.714 1.92-1.549.966.165 1.552.926 1.353 2.107l-3.159 18.557c-1.049 6.167 1.205 9.144 5.553 9.883 4.453.757 7.565-1.307 8.615-7.475l3.159-18.557c.2-1.179.955-1.714 1.921-1.549.966.164 1.553.926 1.354 2.106l-3.159 18.557c-1.242 7.295-5.379 11.171-12.409 9.976-6.925-1.179-9.548-6.204-8.307-13.499zM944.297 385.261c.729-.859 2.101-.927 3.008-.158.764.648 1.027 1.692.441 2.672l-3.86 7.642 8.374-.286c.761.071 1.353.245 1.782.609.812.688.799 2.155.11 2.966-.486.573-1.218.854-2.163.71l-8.408-1.22 2.784 7.942c.297.908.145 1.764-.341 2.337-.689.811-2.142.975-2.953.286-.43-.364-.697-.92-.796-1.578l-1.401-8.41-6.692 5.077c-.961.745-2.027.743-2.743.136-.955-.81-1.152-2.126-.342-3.08.203-.239.453-.437.791-.642l7.5-3.9-6.966-4.758c-1.315-.869-1.471-2.233-.58-3.283.891-1.05 2.223-1.07 3.288-.003l6.144 6.112 2.445-8.104c.099-.406.335-.78.578-1.067zM818.944 829.326c.729-.859 2.101-.927 3.008-.158.764.648 1.027 1.692.441 2.672l-3.86 7.642 8.374-.286c.761.071 1.353.245 1.782.609.812.688.799 2.155.11 2.966-.486.573-1.218.854-2.163.71l-8.408-1.221 2.784 7.942c.297.908.145 1.764-.341 2.337-.689.811-2.142.975-2.953.286-.43-.364-.697-.92-.795-1.578l-1.401-8.41-6.692 5.077c-.961.745-2.027.743-2.743.136-.955-.81-1.152-2.126-.342-3.08.203-.239.453-.437.792-.642l7.5-3.9-6.966-4.758c-1.315-.869-1.471-2.233-.58-3.283.891-1.05 2.223-1.07 3.288-.003l6.144 6.112 2.445-8.104c.097-.406.333-.78.576-1.066zM768.834 128.157c.729-.859 2.101-.927 3.008-.158.764.648 1.027 1.692.441 2.672l-3.86 7.642 8.374-.286c.761.071 1.353.245 1.782.609.812.688.799 2.155.11 2.966-.486.573-1.218.854-2.163.71l-8.408-1.22 2.784 7.942c.297.908.145 1.764-.341 2.337-.689.811-2.142.975-2.953.286-.43-.364-.697-.92-.795-1.578l-1.401-8.41-6.692 5.077c-.961.745-2.027.743-2.743.136-.955-.81-1.152-2.126-.342-3.08.203-.239.453-.437.791-.642l7.5-3.9-6.966-4.758c-1.315-.869-1.471-2.233-.58-3.283.891-1.05 2.223-1.07 3.288-.003l6.144 6.112 2.445-8.104c.098-.407.334-.781.577-1.067zM573.653 811.357l-131.447-4.125 4.734 79.712-43.77 25.073a2.927 2.927 0 0 0-1.477 2.63l-.001.024v.009c.002.045.004.09.008.135l.782 13.79a1.996 1.996 0 0 0 1.839 1.876l133.036 10.262c.052.004.102.006.153.006h.002c.196 0 .382-.036.562-.09.031-.009.061-.016.091-.027.177-.062.342-.148.493-.255.013-.009.028-.012.04-.021l41.29-30.616a1.997 1.997 0 0 0 .798-1.79l-7.133-96.593zm-3.747 3.873 5.086 77.639-124.104-6.759-4.44-74.754 123.458 3.874zm-120.333 74.804 122.733 6.684-37.145 26.556-127.064-9.48 41.476-23.76zm-43.716 27.592 128.111 9.559 1.242 9.391-128.842-9.938-.511-9.012zm133.188 17.507-1.176-8.89 38.065-27.214.773 8.176-37.662 27.928z"/><path d="m568.893 885.293-4.2-62.518-111.592-3.769 3.418 59.801z"/><path fill="#FFD829" d="M483.822 847.591c1.763.019 3.115 1.267 3.097 2.94s-1.397 2.892-3.16 2.873c-1.762-.019-3.115-1.267-3.097-2.94s1.398-2.892 3.16-2.873zM510.26 847.876c1.763.019 3.115 1.267 3.097 2.94-.018 1.673-1.397 2.892-3.16 2.873-1.762-.019-3.115-1.267-3.097-2.94.018-1.674 1.397-2.892 3.16-2.873zM536.697 848.161c1.763.019 3.115 1.267 3.097 2.94-.018 1.673-1.397 2.892-3.16 2.873-1.762-.019-3.115-1.267-3.097-2.94.018-1.673 1.398-2.892 3.16-2.873z"/><path d="M695.798 958.464a11.612 11.612 0 0 1-10.37-6.31l-9.135-17.641a7.687 7.687 0 0 0-5.87-4.093l-19.722-2.481a11.605 11.605 0 0 1-9.581-7.765 11.596 11.596 0 0 1 2.728-12.024l13.965-14.135a7.684 7.684 0 0 0 2.081-6.845l-3.733-19.51a11.604 11.604 0 0 1 4.429-11.508 11.613 11.613 0 0 1 12.284-1.124l17.767 8.905a7.698 7.698 0 0 0 7.158-.135l17.412-9.578a11.619 11.619 0 0 1 12.319.654 11.6 11.6 0 0 1 4.867 11.328l-2.985 19.64a7.681 7.681 0 0 0 2.342 6.76l14.496 13.591a11.602 11.602 0 0 1 3.185 11.912 11.61 11.61 0 0 1-9.278 8.125l-19.611 3.232a7.694 7.694 0 0 0-5.711 4.314l-8.453 17.977a11.612 11.612 0 0 1-10.584 6.711zm-28.192-100.71c-1.623 0-3.224.532-4.61 1.58-2.388 1.806-3.478 4.637-2.915 7.576l3.733 19.51a11.67 11.67 0 0 1-3.162 10.397l-13.965 14.135c-2.104 2.129-2.775 5.089-1.795 7.916.979 2.828 3.337 4.739 6.308 5.112l19.721 2.481a11.683 11.683 0 0 1 8.918 6.218l9.135 17.641c1.352 2.609 3.893 4.154 6.819 4.154.054 0 .106 0 .16-.002 2.994-.057 5.542-1.707 6.816-4.416l8.453-17.977a11.682 11.682 0 0 1 8.674-6.554l19.611-3.232c2.954-.486 5.238-2.486 6.108-5.349.871-2.863.087-5.795-2.096-7.842l-14.496-13.591a11.672 11.672 0 0 1-3.558-10.269l2.985-19.64c.449-2.958-.748-5.746-3.203-7.458-2.456-1.712-5.488-1.873-8.11-.43l-17.413 9.578a11.691 11.691 0 0 1-10.871.207l-17.767-8.905a7.77 7.77 0 0 0-3.48-.84z"/><ellipse cx="680.216" cy="894.013" rx="4.261" ry="4.258"/><ellipse cx="707.851" cy="912.609" rx="4.261" ry="4.258"/><path fill="#FFF" d="M695.037 915.184a7.28 7.28 0 0 1-10.1 1.971 7.27 7.27 0 0 1-1.972-10.094l12.072 8.123z"/><path d="M693.118 907.41a1.994 1.994 0 0 1-1.648-3.117l5.177-7.601a1.994 1.994 0 0 1 2.772-.527 1.994 1.994 0 0 1 .527 2.771l-5.177 7.601a1.99 1.99 0 0 1-1.651.873z"/></svg>