<svg xmlns="http://www.w3.org/2000/svg" xmlns:xlink="http://www.w3.org/1999/xlink" viewBox="0 0 1920 1075.66" xml:space="preserve"><path fill="#FF8630" d="M620.24 922.33h246.41v149H620.24z"/><path d="M681.8 970.2a2.5 2.5 0 0 1-1.76-.73l-28.29-28.3-28.29 28.3a2.5 2.5 0 1 1-3.53-3.54l30.05-30.05c.94-.94 2.6-.94 3.54 0l30.05 30.05a2.5 2.5 0 0 1-1.76 4.27zm0 37.84a2.5 2.5 0 0 1-1.76-.73l-28.29-28.28-28.29 28.28a2.5 2.5 0 1 1-3.53-3.53l30.05-30.06c.94-.94 2.6-.94 3.54 0l30.05 30.06a2.5 2.5 0 0 1-1.76 4.26zm-60.1 37.85a2.5 2.5 0 0 1-1.77-4.27l30.05-30.05a2.5 2.5 0 0 1 3.54 0l30.05 30.05a2.5 2.5 0 1 1-3.53 3.54l-28.29-28.29-28.29 28.29a2.5 2.5 0 0 1-1.76.73z"/><path d="M649.25 941.21h5v127.47h-5zm33.58 28.99a2.5 2.5 0 0 1-1.77-4.27l30.06-30.05c.94-.94 2.6-.94 3.53 0l30.06 30.05a2.5 2.5 0 1 1-3.54 3.54l-28.28-28.3-28.29 28.3c-.49.48-1.13.73-1.77.73zm0 37.84a2.5 2.5 0 0 1-1.77-4.26l30.06-30.06c.94-.94 2.6-.94 3.53 0l30.06 30.06a2.5 2.5 0 1 1-3.54 3.53l-28.28-28.28-28.29 28.28a2.5 2.5 0 0 1-1.77.73zm60.11 37.85a2.5 2.5 0 0 1-1.77-.73l-28.28-28.29-28.29 28.29a2.5 2.5 0 1 1-3.54-3.54l30.06-30.05a2.5 2.5 0 0 1 3.53 0l30.06 30.05a2.5 2.5 0 0 1-1.77 4.27z"/><path d="M710.39 941.21h5v127.47h-5zm93.69 28.99a2.5 2.5 0 0 1-1.77-.73l-28.29-28.3-28.29 28.3a2.5 2.5 0 1 1-3.53-3.54l30.05-30.05c.94-.94 2.6-.94 3.54 0l30.05 30.05a2.5 2.5 0 0 1-1.76 4.27zm0 37.84a2.5 2.5 0 0 1-1.77-.73l-28.29-28.28-28.29 28.28a2.5 2.5 0 1 1-3.53-3.53l30.05-30.06c.94-.94 2.6-.94 3.54 0l30.05 30.06a2.5 2.5 0 0 1-1.76 4.26zm0 37.85a2.5 2.5 0 0 1-1.77-.73l-28.29-28.29-28.29 28.29a2.5 2.5 0 1 1-3.53-3.54l30.05-30.05a2.5 2.5 0 0 1 3.54 0l30.05 30.05a2.5 2.5 0 0 1-1.76 4.27z"/><path d="M771.52 941.21h5v127.47h-5zm93.69 28.99a2.5 2.5 0 0 1-1.77-.73l-28.28-28.3-28.29 28.3a2.5 2.5 0 1 1-3.54-3.54l30.06-30.05c.94-.94 2.6-.94 3.53 0l30.06 30.05a2.5 2.5 0 0 1-1.77 4.27zm0 37.84a2.5 2.5 0 0 1-1.77-.73l-28.28-28.28-28.29 28.28a2.5 2.5 0 1 1-3.54-3.53l30.06-30.06c.94-.94 2.6-.94 3.53 0l30.06 30.06a2.5 2.5 0 0 1-1.77 4.26zm-60.11 37.85a2.5 2.5 0 0 1-1.77-4.27l30.06-30.05a2.5 2.5 0 0 1 3.53 0l30.06 30.05a2.5 2.5 0 1 1-3.54 3.54l-28.28-28.29-28.29 28.29c-.49.48-1.13.73-1.77.73z"/><path d="M832.66 941.21h5v127.47h-5z"/><path fill="#FFF" d="M1494.52 609.24H1.26V.4h1493.26v608.83zm-1488.26-5h1483.26V5.4H6.26v598.83z"/><path d="M494.52 876.22H1.26V655.37h493.26v220.85zm-488.26-5h483.26V660.37H6.26v210.85zm462.26-21H27.26V681.36h441.26v168.86zm-436.26-5h431.26V686.36H32.26v158.86zm989.28 31H528.29V655.37h493.25v220.85zm-488.25-5h483.25V660.37H533.29v210.85zm462.25-21H554.3V681.36h441.25v168.86zm-436.25-5h431.25V686.36H559.3v158.86z"/><path fill="#FFF" d="M227.39 942.33v111.64H20.98V942.33h206.4m20-20H.99v151.64h246.4V922.33z"/><path fill="#FF8630" d="M431.29 922.3c-78.21 0-141.62 33.5-141.62 74.83 0 41.32 63.4 74.83 141.62 74.83 78.21 0 141.61-33.5 141.61-74.83s-63.4-74.83-141.6-74.83zm-.2 130.35c-64.96 0-117.6-24.86-117.6-55.53 0-30.66 52.64-55.52 117.6-55.52 64.95 0 117.6 24.86 117.6 55.52 0 30.67-52.65 55.53-117.6 55.53z"/><path d="M431.29 1074.45c-38.23 0-74.2-7.88-101.3-22.2-27.61-14.59-42.82-34.16-42.82-55.12s15.2-40.54 42.81-55.13c27.1-14.32 63.08-22.2 101.3-22.2 38.24 0 74.21 7.88 101.31 22.2 27.61 14.59 42.81 34.17 42.81 55.13 0 20.95-15.2 40.53-42.8 55.12-27.1 14.32-63.09 22.2-101.31 22.2zm0-149.65c-76.71 0-139.12 32.44-139.12 72.33 0 39.88 62.41 72.33 139.12 72.33S570.4 1037 570.4 997.13c0-39.89-62.4-72.33-139.11-72.33zm-.2 130.35c-31.78 0-61.7-5.86-84.23-16.5-23.14-10.92-35.88-25.67-35.88-41.52s12.74-30.6 35.88-41.53c22.54-10.64 52.45-16.5 84.22-16.5 31.78 0 61.7 5.86 84.23 16.5 23.14 10.93 35.88 25.67 35.88 41.53s-12.74 30.6-35.88 41.52c-22.54 10.64-52.45 16.5-84.22 16.5zm0-111.05c-31.06 0-60.21 5.69-82.1 16.02-21.29 10.05-33 23.2-33 37 0 13.81 11.71 26.96 33 37 21.89 10.34 51.04 16.03 82.1 16.03s60.2-5.69 82.09-16.02c21.29-10.05 33.01-23.2 33.01-37 0-13.82-11.72-26.96-33.01-37-21.89-10.34-51.04-16.03-82.1-16.03z"/><path fill="#FFF" d="M1752.38 318.24a2.7 2.7 0 0 1-.95-.19 2.29 2.29 0 0 1-.81-.54 2.51 2.51 0 0 1-.7-2.26c.05-.16.09-.32.16-.47a2.23 2.23 0 0 1 .92-1.12 2.6 2.6 0 0 1 1.87-.37 2.54 2.54 0 0 1 1.28.68c.12.11.22.24.31.38.09.13.17.28.23.43.06.15.1.31.15.47a2.63 2.63 0 0 1-.69 2.26c-.47.46-1.11.73-1.77.73zm-457.82 723.88a2.5 2.5 0 0 1-2.47-2.54 2.5 2.5 0 0 1 2.54-2.46 2.49 2.49 0 0 1 2.46 2.53 2.5 2.5 0 0 1-2.5 2.47h-.03zm24.29-3.2a2.5 2.5 0 0 1 2.29-2.69 2.5 2.5 0 0 1 .4 4.99h-.2a2.5 2.5 0 0 1-2.5-2.3zm-51.26 1.41a2.5 2.5 0 1 1 .59-4.96h.02a2.5 2.5 0 0 1 2.18 2.78 2.5 2.5 0 0 1-2.48 2.2c-.1 0-.2 0-.31-.02zm77.84-4.54a2.5 2.5 0 0 1 2.04-2.89 2.51 2.51 0 0 1 2.89 2.04 2.51 2.51 0 0 1-2.04 2.9c-.14.01-.28.03-.43.03a2.5 2.5 0 0 1-2.46-2.08zm-104.46-.37a2.5 2.5 0 1 1 1.24-4.84 2.5 2.5 0 0 1-.62 4.92c-.2 0-.41-.03-.62-.08zm130.64-5.19a2.5 2.5 0 1 1 4.83-1.32 2.5 2.5 0 0 1-2.42 3.16 2.5 2.5 0 0 1-2.41-1.84zm25.5-8.1a2.5 2.5 0 1 1 4.66-1.8v-.02a2.5 2.5 0 0 1-1.42 3.23 2.5 2.5 0 0 1-3.24-1.42zm24.44-10.9a2.5 2.5 0 0 1 1-3.4 2.5 2.5 0 1 1 2.37 4.4 2.49 2.49 0 0 1-3.38-1.01zm22.74-14.08a2.5 2.5 0 0 1 3.98-3.02 2.5 2.5 0 0 1-.48 3.51 2.5 2.5 0 0 1-3.5-.49zm20.03-17.69a2.5 2.5 0 1 1 3.32-3.73 2.5 2.5 0 0 1-3.32 3.73zm15.73-21.55a2.5 2.5 0 0 1 2.35-4.42 2.5 2.5 0 0 1-1.18 4.71c-.4 0-.8-.1-1.17-.29zm11.13-24.32a2.5 2.5 0 0 1-1.44-3.23 2.49 2.49 0 0 1 3.22-1.44 2.5 2.5 0 0 1-.89 4.84c-.3 0-.6-.06-.9-.17zm9.17-25.14a2.49 2.49 0 0 1-1.47-3.2 2.49 2.49 0 0 1 3.2-1.49 2.51 2.51 0 0 1 1.49 3.21 2.51 2.51 0 0 1-2.35 1.64c-.3 0-.58-.05-.87-.16zm10.29-24.69a2.49 2.49 0 0 1-1.05-3.37 2.48 2.48 0 0 1 3.37-1.05 2.48 2.48 0 0 1 1.05 3.37 2.48 2.48 0 0 1-2.21 1.34c-.4 0-.8-.09-1.16-.29zm14.7-22.25a2.5 2.5 0 1 1 3.4-3.66 2.5 2.5 0 0 1 .14 3.53 2.5 2.5 0 0 1-3.53.13zm20.4-17.13a2.5 2.5 0 0 1 .88-3.43 2.51 2.51 0 0 1 3.43.87 2.5 2.5 0 0 1-.88 3.43 2.48 2.48 0 0 1-3.42-.87zm234.43-6.56a2.5 2.5 0 0 1 5.01-.02 2.51 2.51 0 0 1-5.01.02zm-24.45 1.22a2.5 2.5 0 1 1 .47-4.98 2.5 2.5 0 0 1-.24 4.99h-.23zm51.17-2.62a2.5 2.5 0 0 1 4.96-.65 2.5 2.5 0 0 1-2.16 2.8l-.32.03a2.5 2.5 0 0 1-2.48-2.18zm-77.88-.9a2.5 2.5 0 0 1-2.05-2.89 2.5 2.5 0 0 1 4.93.82 2.5 2.5 0 0 1-2.47 2.1c-.13 0-.27-.02-.41-.04zm-159.44-3.28a2.5 2.5 0 0 1 1.4-3.24 2.5 2.5 0 0 1 1.85 4.65 2.5 2.5 0 0 1-3.25-1.4zm263.56-.92a2.5 2.5 0 0 1 4.8-1.43 2.5 2.5 0 0 1-1.68 3.11h-.01a2.52 2.52 0 0 1-3.1-1.68zm-130.52-.96a2.5 2.5 0 1 1 1.08-4.88 2.5 2.5 0 0 1-.54 4.94c-.18 0-.36-.02-.54-.06zm-107.64-6.48a2.5 2.5 0 0 1 1.86-3 2.5 2.5 0 1 1 1.15 4.86 2.5 2.5 0 0 1-3.01-1.85zm81.6.47a2.5 2.5 0 1 1 1-4.9 2.5 2.5 0 0 1-.5 4.95c-.16 0-.33-.02-.5-.05zm181.23-3.23a2.5 2.5 0 1 1 4.26-2.61 2.48 2.48 0 0 1-2.13 3.8c-.84 0-1.66-.42-2.13-1.19zm-236.5-1.86a2.5 2.5 0 0 1 2.28-2.7 2.46 2.46 0 0 1 2.7 2.25 2.5 2.5 0 0 1-2.25 2.72l-.22.01a2.52 2.52 0 0 1-2.5-2.28zm29.1 1.78a2.49 2.49 0 0 1-2.35-2.63 2.5 2.5 0 0 1 4.99.27 2.5 2.5 0 0 1-2.5 2.37h-.13zm228.57-16.16a2.5 2.5 0 1 1 3.48-3.59 2.49 2.49 0 0 1-1.74 4.29 2.5 2.5 0 0 1-1.74-.7zm16.7-20.85a2.5 2.5 0 0 1-.85-3.43 2.5 2.5 0 1 1 4.28 2.58v.01a2.5 2.5 0 0 1-2.14 1.2c-.44 0-.88-.1-1.3-.36zm11.84-23.96a2.5 2.5 0 1 1 1.66-4.71 2.5 2.5 0 0 1-.83 4.86 2.5 2.5 0 0 1-.83-.15zm6.82-25.84a2.51 2.51 0 0 1-2.13-2.83 2.49 2.49 0 0 1 2.82-2.12 2.5 2.5 0 0 1-.34 4.97c-.12 0-.23 0-.35-.02zm-1.12-29a2.49 2.49 0 0 1 2.33-2.67 2.5 2.5 0 0 1 2.66 2.33h-.01a2.49 2.49 0 0 1-2.33 2.66l-.16.01a2.5 2.5 0 0 1-2.5-2.34zm-4.62-25.73a2.5 2.5 0 1 1 4.79-1.45 2.5 2.5 0 0 1-1.67 3.11 2.51 2.51 0 0 1-3.12-1.66zm-10.61-23.79a2.5 2.5 0 0 1 .82-3.44 2.5 2.5 0 1 1 2.61 4.26 2.48 2.48 0 0 1-3.43-.82zm-16.48-20.2c-.98-.98-1-2.56-.04-3.55a2.5 2.5 0 0 1 3.58 3.5 2.53 2.53 0 0 1-3.54.04zm-20.32-16.73a2.5 2.5 0 1 1 2.87-4.1 2.5 2.5 0 0 1-1.44 4.55c-.5 0-1-.15-1.43-.45zm-22.52-13.95a2.5 2.5 0 0 1 2.42-4.37 2.5 2.5 0 0 1 .98 3.4 2.52 2.52 0 0 1-2.2 1.3c-.4 0-.82-.1-1.2-.33zm-23.7-12.19a2.5 2.5 0 0 1-1.14-3.34 2.5 2.5 0 0 1 3.35-1.15h-.01a2.5 2.5 0 0 1 1.16 3.34 2.5 2.5 0 0 1-2.25 1.4c-.37 0-.74-.08-1.1-.25zm-24.1-11.62a2.5 2.5 0 0 1-1.15-3.34 2.5 2.5 0 1 1 4.49 2.18 2.5 2.5 0 0 1-3.34 1.16zm-23.93-12.26a2.5 2.5 0 0 1-1-3.39 2.5 2.5 0 1 1 4.38 2.41 2.5 2.5 0 0 1-2.18 1.3c-.41 0-.82-.1-1.2-.32zm-23.02-14.1a2.48 2.48 0 0 1-.63-3.48 2.5 2.5 0 0 1 4.11 2.84 2.52 2.52 0 0 1-2.06 1.08c-.5 0-1-.14-1.42-.45zm-20.93-17.38a2.5 2.5 0 1 1 3.59-3.48 2.5 2.5 0 0 1-.05 3.53 2.51 2.51 0 0 1-3.54-.05zm-16.43-21.82a2.5 2.5 0 1 1 4.34-2.48 2.5 2.5 0 0 1-.93 3.41 2.49 2.49 0 0 1-3.41-.93zm-10.47-25.23a2.5 2.5 0 1 1 4.82-1.32 2.5 2.5 0 0 1-2.41 3.16c-1.1 0-2.11-.72-2.41-1.84zm-4-26.99a2.5 2.5 0 1 1 4.99-.15 2.5 2.5 0 0 1-2.42 2.57l-.08.01a2.5 2.5 0 0 1-2.5-2.43zm4.18-24.24a2.5 2.5 0 0 1 .94-4.92 2.51 2.51 0 0 1 1.99 2.92 2.51 2.51 0 0 1-2.46 2.04c-.15 0-.31-.02-.47-.04zm7.15-25.76a2.5 2.5 0 0 1-1.45-3.22 2.5 2.5 0 1 1 4.67 1.78 2.48 2.48 0 0 1-2.33 1.61c-.3 0-.6-.05-.9-.17zm9.7-24.94a2.5 2.5 0 1 1 1.89-4.63 2.5 2.5 0 0 1-.95 4.81c-.31 0-.63-.06-.94-.18zm10.6-24.57a2.5 2.5 0 1 1 2.14-4.52 2.5 2.5 0 0 1 1.19 3.33 2.51 2.51 0 0 1-2.26 1.43c-.36 0-.73-.08-1.07-.24zm12.32-23.75a2.5 2.5 0 0 1-.87-3.43 2.52 2.52 0 0 1 3.43-.87 2.5 2.5 0 0 1 .86 3.43 2.49 2.49 0 0 1-2.14 1.22c-.44 0-.88-.1-1.28-.35zm-519.9 686.69a2.6 2.6 0 0 1-1.4-.42c-.13-.1-.26-.2-.37-.32a2.49 2.49 0 1 1 3.53-3.53c.12.11.22.24.3.38.1.13.18.28.24.43.07.15.1.31.15.47a2.63 2.63 0 0 1-.38 1.87 3 3 0 0 1-.31.38 2.3 2.3 0 0 1-.81.54c-.15.07-.31.11-.47.15a2.6 2.6 0 0 1-.48.05zm547.42-735.86a22.7 22.7 0 1 1-37.15-26.12c7.21-10.25 25.87-13.82 69.2-19.46l-32.05 45.59zm8.01 4.54a22.7 22.7 0 1 0 40.92 19.67c5.44-11.3-.55-29.33-16.77-69.9l-24.15 50.23z"/><circle cx="1794.48" cy="248.05" r="12.77"/><path fill="#FFF" d="M1441.65 556.73H54.14V52.93h1387.51v503.8zm-1382.51-5h1377.51V57.93H59.14v493.8z"/><path fill="#FFF" d="m1.99 4.67 3.55-3.52L58.4 54.52l-3.55 3.52zm1.08 599.9 50.66-52.88 3.61 3.46-50.66 52.88zM1436.96 54.52l52.95-52.13 3.5 3.57-52.94 52.12zm.43 501.53 3.53-3.54 50.88 50.76-3.53 3.54z"/><path d="M196.42 247.8a2.5 2.5 0 1 1 5 0 30.32 30.32 0 0 0 30.28 30.28A30.32 30.32 0 0 0 262 247.8a2.5 2.5 0 1 1 5 0 30.32 30.32 0 0 0 30.28 30.28c.3 0 .58 0 .87-.02l-49.45-79.4a17.4 17.4 0 0 0-14.8-8.25h-.05a17.4 17.4 0 0 0-14.8 8.15l-50.15 79.4a30.32 30.32 0 0 0 27.53-30.16z"/><path fill="none" d="M363.56 391.58c.8-4.18-.05-8.54-2.38-12.3L248.69 198.65a17.4 17.4 0 0 0-14.8-8.24h-.05a17.4 17.4 0 0 0-14.8 8.15L104.9 379.25a17.1 17.1 0 0 0-2.45 12.39 42.14 42.14 0 0 0 35.05 33.6l74.55-118.01c10.28-16.26 34.03-16.19 44.2.14l73.29 117.7a42.13 42.13 0 0 0 34.03-33.5z"/><path d="M143.78 425.71a42.15 42.15 0 0 0 42.1-42.1 2.5 2.5 0 1 1 5 0A42.15 42.15 0 0 0 233 425.7a42.15 42.15 0 0 0 42.1-42.1 2.5 2.5 0 1 1 5.01 0 42.15 42.15 0 0 0 42.1 42.1 42.13 42.13 0 0 0 41.36-34.13c.8-4.18-.05-8.54-2.38-12.3l-60.05-96.42a35.34 35.34 0 0 1-36.65-22.02 35.34 35.34 0 0 1-32.78 22.24 35.34 35.34 0 0 1-32.78-22.23 35.34 35.34 0 0 1-32.78 22.23l-.49-.01-60.76 96.18a17.1 17.1 0 0 0-2.45 12.39 42.14 42.14 0 0 0 41.34 34.07z"/><path d="m402.97 543-70.61-113.4a47.2 47.2 0 0 1-54.75-30.85 47.2 47.2 0 0 1-44.62 31.96 47.19 47.19 0 0 1-44.6-31.95 47.19 47.19 0 0 1-53.79 31.04L63.12 542.94a26.48 26.48 0 0 0-3.5 8.55h115.16l.02-1.12c0 .38.02.75.03 1.12h116.32c0-.37.03-.74.03-1.12 0 .38.03.75.03 1.12H406.4a26.5 26.5 0 0 0-3.42-8.49zM166.14 278.08a30.32 30.32 0 0 0 30.28-30.28 2.5 2.5 0 1 1 5 0 30.32 30.32 0 0 0 30.28 30.28A30.32 30.32 0 0 0 262 247.8a2.5 2.5 0 1 1 5 0 30.32 30.32 0 0 0 30.28 30.28 30.3 30.3 0 0 0 29.74-24.55c.56-2.9-.04-5.94-1.67-8.56l-82.66-132.75a12.13 12.13 0 0 0-10.31-5.74h-.04c-4.21 0-8.06 2.12-10.31 5.68l-83.9 132.79a11.9 11.9 0 0 0-1.71 8.63 30.3 30.3 0 0 0 29.73 24.5z"/><path fill="#FFF" d="M907.76 554.28H588.03c-14.85 0-27-12.15-27-27V360.15c0-14.85 12.15-27 27-27h319.73c14.85 0 27 12.15 27 27v167.13c0 14.85-12.15 27-27 27z"/><path d="M430.3 340.49a29.4 29.4 0 0 0 14-15.18 29.4 29.4 0 0 0-.08-22.67 2.5 2.5 0 1 1 4.61-1.93 29.66 29.66 0 0 0 38.76 15.88 29.65 29.65 0 0 0 15.88-38.76 2.5 2.5 0 0 1 4.62-1.94c5.9 14.12 21.03 21.39 35.37 17.05l.41-.2A28.95 28.95 0 0 0 557 262.21a12.79 12.79 0 0 0-5.16-7.74l-112.57-79.91a12.97 12.97 0 0 0-20.3 8.42l-23.04 136.73c-.54 3.2.1 6.5 1.88 9.2a28.92 28.92 0 0 0 32.48 11.58z"/><path d="M723.27 488.34a22.7 22.7 0 0 0-9.15-13.76l-99.06-70.3a39.4 39.4 0 0 0 18.77-42.12 17.4 17.4 0 0 0-7.02-10.54l-77.9-55.3-.13.07a34.68 34.68 0 0 1-38.01-7.61 34.68 34.68 0 0 1-21.25 32.42 34.67 34.67 0 0 1-37.99-7.6c.07 4.6-.8 9.22-2.6 13.6a34.38 34.38 0 0 1-18.34 18.67l-15.93 94.53c-.73 4.34.13 8.85 2.57 12.51a39.41 39.41 0 0 0 40.49 16.76l-13.85 82.16h183.96a51.13 51.13 0 0 0-2.23-33.13 51.37 51.37 0 0 0 97.67-30.36zm302.13-136.18a22.37 22.37 0 0 0 39.34 3.6 8.45 8.45 0 0 0 1.2-6.05l-19.85-116.9a8.6 8.6 0 0 0-5.21-6.55 8.6 8.6 0 0 0-8.32.94l-97.04 69.06a8.43 8.43 0 0 0-3.44 5.19 22.37 22.37 0 0 0 13.45 25.06c11.4 4.67 24.5-.8 29.17-12.21a2.5 2.5 0 0 1 4.62 1.9 22.2 22.2 0 0 0 .07 17.1 22.2 22.2 0 0 0 12.14 12.06 22.2 22.2 0 0 0 17.12-.07 22.2 22.2 0 0 0 12.05-12.14 2.5 2.5 0 0 1 4.63 1.9 22.2 22.2 0 0 0 .07 17.1z"/><path d="M1040.76 370.37a27.4 27.4 0 0 1-22.08-25.7 27.4 27.4 0 0 1-29.04 5.32 27.18 27.18 0 0 1-14.86-14.75 27.35 27.35 0 0 1-2.11-9.4 27.4 27.4 0 0 1-31.64 4.05l-68.89 49a14.92 14.92 0 0 0-6.04 9.17 33.85 33.85 0 0 0 15.1 35.22l-84.33 60.01a19.47 19.47 0 0 0-7.88 11.95 44.14 44.14 0 0 0 84.1 25.37 43.95 43.95 0 0 0-.7 31.6h158.03l-12.4-73.02a33.86 33.86 0 0 0 34.76-14.69 14.94 14.94 0 0 0 2.14-10.67l-14.16-83.46z"/><path fill="#FF8630" d="m715.13 392.33-.64-56.82 67.48-.69.64 56.83"/><path d="M715.13 394.83a2.5 2.5 0 0 1-2.5-2.48l-.67-59.32 72.49-.73.66 59.32a2.5 2.5 0 0 1-2.47 2.53h-.03a2.5 2.5 0 0 1-2.5-2.47l-.6-54.33-62.5.63.62 54.32a2.5 2.5 0 0 1-2.47 2.53h-.03z"/><defs><path id="a" d="M847.77 236.13c-1.33.02-2.64.11-3.92.27-12.47-41.48-51.15-71.51-96.64-71.05-45.49.46-83.55 31.27-95.18 73a34.67 34.67 0 1 0 5.21 68.01 99.85 99.85 0 0 0 91.99 58.66A99.86 99.86 0 0 0 840 304.5a34.67 34.67 0 1 0 7.76-68.37z"/></defs><defs><path id="b" d="M748.21 367.52c-39.44 0-75.4-22.72-92.38-58.27a37.27 37.27 0 0 1-7.39.74 37.21 37.21 0 0 1-37.16-36.8 36.92 36.92 0 0 1 10.62-26.39 36.91 36.91 0 0 1 28.3-11.1 103.16 103.16 0 0 1 35.18-51.3 101.4 101.4 0 0 1 61.8-21.55 101.2 101.2 0 0 1 62.22 20.3 103.18 103.18 0 0 1 36.23 50.57 35.24 35.24 0 0 1 2.5-.09 37.21 37.21 0 0 1 37.16 36.8 37.21 37.21 0 0 1-43.82 36.94 102.45 102.45 0 0 1-93.26 60.15zm-89.56-64.11.87 1.91a97.43 97.43 0 0 0 89.68 57.2 97.44 97.44 0 0 0 88.5-59l.84-1.93 2.05.49a32.2 32.2 0 0 0 39.7-31.6 32.2 32.2 0 0 0-32.17-31.85h-.32c-1.18.01-2.37.1-3.65.25l-2.1.26-.6-2.02a98.08 98.08 0 0 0-35.04-49.97 96.4 96.4 0 0 0-59.18-19.3 96.44 96.44 0 0 0-58.77 20.49A98.06 98.06 0 0 0 654.44 239l-.56 2.03-2.1-.21a31.96 31.96 0 0 0-26.3 9.47 31.96 31.96 0 0 0-9.2 22.84 32.2 32.2 0 0 0 32.16 31.84h.34c2.64-.03 5.28-.38 7.84-1.05l2.03-.52z"/></defs><use xlink:href="#a" overflow="visible" fill="#FF8630"/><use xlink:href="#b" overflow="visible"/><path fill="#FF8630" d="m630.19 265.77 15.18 16.39"/><path d="M645.37 284.66a2.5 2.5 0 0 1-1.83-.8l-15.19-16.4a2.5 2.5 0 1 1 3.67-3.39l15.18 16.4a2.5 2.5 0 0 1-1.83 4.2z"/><path fill="#FF8630" d="m865.74 263.07-15.18 16.4"/><path d="M850.56 281.97a2.5 2.5 0 0 1-1.83-4.2l15.18-16.4a2.5 2.5 0 1 1 3.67 3.4l-15.19 16.4c-.49.53-1.16.8-1.83.8zm-132.99-5.05a12.38 12.38 0 1 1-24.76.25 12.38 12.38 0 0 1 24.76-.25z"/><path d="M678.49 281.81a2.5 2.5 0 0 1-2.07-3.9 34.4 34.4 0 0 1 56.73-.57 2.5 2.5 0 1 1-4.09 2.87 29.42 29.42 0 0 0-48.5.5 2.5 2.5 0 0 1-2.07 1.1zm124.64-6.23a12.38 12.38 0 1 1-24.76.25 12.38 12.38 0 0 1 24.75-.25z"/><path d="M764.46 280.94a2.5 2.5 0 0 1-2.08-3.9 34.4 34.4 0 0 1 56.74-.57 2.5 2.5 0 1 1-4.1 2.88 29.37 29.37 0 0 0-48.48.48 2.5 2.5 0 0 1-2.08 1.11z"/><path fill="#FF8630" d="m747.82 273.61.2 16.79"/><path d="M748.02 292.9a2.5 2.5 0 0 1-2.5-2.47l-.2-16.8a2.5 2.5 0 1 1 5-.05l.2 16.8a2.5 2.5 0 0 1-2.47 2.52h-.03zm-20.06-37.64h-44.8a4.72 4.72 0 0 1-4.7-4.71v-3.25a4.7 4.7 0 0 1 4.7-4.7h44.8a4.7 4.7 0 0 1 4.7 4.7v3.25c0 2.59-2.12 4.7-4.7 4.7zm86.12-.76h-44.8a4.72 4.72 0 0 1-4.7-4.71v-3.25a4.7 4.7 0 0 1 4.7-4.7h44.8a4.7 4.7 0 0 1 4.7 4.7v3.25a4.7 4.7 0 0 1-4.7 4.7zm-30.3 70.06h.1-.1zm4.67-.6-1.14.02c.38 0 .76 0 1.14-.02zm-75.72.94h-.1.1zm-4.67-.54h1.14-1.14z"/><path d="m842.77 305.2-.36-73.22-16.38.08.25 52.07c-1.64 20.1-15 36.4-35.13 37.55a49.69 49.69 0 0 0-42.75-23.92 49.69 49.69 0 0 0-42.53 24.37c-19.16-.66-32.42-15.02-35.52-33.51l-.28-55.79-16.38.09.36 73.17-2.42-.9.29 59.12a65.07 65.07 0 0 0 65.4 64.76l63.57-.32a65.07 65.07 0 0 0 64.75-65.4l-.3-59.12-2.57.97z"/><path fill="#FFF" d="m839.65 209.05-3.71.02c-11.38-38.6-47.16-66.68-89.42-66.47-42.25.2-77.76 28.65-88.75 67.35l-4.44.03a16.38 16.38 0 0 0-16.24 16.4 16.38 16.38 0 0 0 16.4 16.25l186.32-.92a16.38 16.38 0 0 0 16.25-16.4 16.38 16.38 0 0 0-16.4-16.26z"/><path fill="#FFF" d="M747.39 144.15a21.4 21.4 0 0 1-15.16-6.24c-4.1-4.05-6.36-9.45-6.4-15.2s2.2-11.19 6.25-15.28a21.41 21.41 0 0 1 15.2-6.38h.1c11.84 0 21.5 9.6 21.56 21.44a21.41 21.41 0 0 1-6.24 15.27 21.41 21.41 0 0 1-15.2 6.39h-.11zm0-38.1h-.08a16.44 16.44 0 0 0-11.68 4.9 16.44 16.44 0 0 0-4.8 11.73 16.44 16.44 0 0 0 4.91 11.68 16.3 16.3 0 0 0 11.73 4.79 16.44 16.44 0 0 0 11.68-4.9 16.57 16.57 0 0 0-11.76-28.2zm13.77 205.15a12.99 12.99 0 1 1-25.98.27l25.98-.26z"/><path fill="#FF8630" d="m524.09 502.36-.06-.05a60.8 60.8 0 0 1 14.96-7.32 56 56 0 0 0 16.78-8.7 112.7 112.7 0 0 0 11.81-10.42l18.25-18.03 19.28-19.07s-.04-.04-.03-.05a11.38 11.38 0 1 0-16.73-15.4l-18.53 18.32-.07-.07 24.44-24.17-.03-.04a11.39 11.39 0 1 0-16.73-15.4l-23.7 23.42-.06-.07 29.6-29.27s-.03-.04-.02-.05a11.4 11.4 0 1 0-16.73-15.4l-28.86 28.53-.07-.07 24.44-24.17s-.03-.04-.02-.05a11.38 11.38 0 1 0-16.74-15.4l-30.4 30.07-.53-.14 10.27-16.97s-.05-.02-.04-.04a11.39 11.39 0 1 0-19.96-10.9l-24.55 40.45a32.12 32.12 0 0 0-5.64 23.37c.17 3.51 0 10.14-3.12 14.3l.02.01"/><path d="M524.05 504.85c-.61 0-1.22-.23-1.7-.69l-.06-.05a2.5 2.5 0 0 1 .37-3.89 63 63 0 0 1 15.58-7.61c5.7-1.8 10.8-4.44 16.04-8.33 3.49-2.6 7.05-5.74 11.54-10.18L603 437.34c.1-.14.2-.27.33-.4a8.82 8.82 0 0 0 2.63-6.26 8.83 8.83 0 0 0-2.56-6.3 8.83 8.83 0 0 0-6.27-2.64h-.06a8.83 8.83 0 0 0-6.96 3.35l-18.54 18.33a2.5 2.5 0 0 1-3.5 0 2.62 2.62 0 0 1-.79-1.8c0-.68.23-1.35.7-1.82l24.1-23.83c.1-.14.2-.27.33-.4a8.9 8.9 0 0 0-12.5-12.63 8.64 8.64 0 0 0-.72.79l-23.7 23.43a2.5 2.5 0 0 1-3.5.01 2.6 2.6 0 0 1-.79-1.81c0-.67.23-1.35.71-1.82l29.26-28.93a4 4 0 0 1 .32-.4 8.9 8.9 0 1 0-13.22-11.85l-28.85 28.54a2.5 2.5 0 0 1-3.5.01 2.6 2.6 0 0 1-.8-1.81c0-.67.24-1.35.71-1.82l24.1-23.82a2.37 2.37 0 0 1 .32-.4 8.83 8.83 0 0 0 2.64-6.27 8.84 8.84 0 0 0-2.57-6.3 8.84 8.84 0 0 0-6.27-2.64H554a8.83 8.83 0 0 0-6.97 3.36l-30.41 30.07a2.5 2.5 0 0 1-2.39.64l-.5-.14a2.5 2.5 0 0 1-1.53-3.72l10.02-16.55c.06-.16.13-.3.22-.45a8.9 8.9 0 0 0-2.98-12.22 8.9 8.9 0 0 0-12.71 3.91l-24.56 40.45-.1.15a29.8 29.8 0 0 0-5.17 21.8c.18 3.84-.03 10.94-3.46 15.72-.08.12-.17.24-.27.35a2.5 2.5 0 0 1-3.52.25 2.52 2.52 0 0 1-.37-3.4c2.7-3.6 2.75-9.9 2.63-12.56a34.8 34.8 0 0 1 6.04-24.98l24.45-40.28a13.9 13.9 0 0 1 19.65-5.68 13.9 13.9 0 0 1 4.9 18.62 2.5 2.5 0 0 1-.22.5l-.82 1.35 17.5-17.31a13.8 13.8 0 0 1 10.56-4.88h.09a13.8 13.8 0 0 1 9.8 4.12 13.78 13.78 0 0 1 4 9.15 13.92 13.92 0 0 1 17.24 2 13.92 13.92 0 0 1 1.81 17.28 13.92 13.92 0 0 1 10.92 21.36c3.45.19 6.66 1.63 9.1 4.1a13.8 13.8 0 0 1 4.01 9.85 13.78 13.78 0 0 1-3.74 9.4c-.1.16-.22.3-.35.44l-37.53 37.1c-4.66 4.62-8.4 7.9-12.08 10.64a58.7 58.7 0 0 1-17.52 9.09 57.79 57.79 0 0 0-13.97 6.78c-.48.46-1.1.7-1.72.7z"/><g fill="#FFF"><path d="m465.42 442.82 63.64 63.64-23.38 23.38-63.64-63.64z"/><path d="M510.56 553.14a79.63 79.63 0 0 0-22.4-68.64 79.78 79.78 0 0 0-112.28-.54l-.01-.01-67.41 69.2h202.1z"/></g><path fill="#FF8630" d="m977.5 502.36.05-.05a60.8 60.8 0 0 0-14.96-7.32 56 56 0 0 1-16.77-8.7A111.25 111.25 0 0 1 934 475.86l-18.24-18.03-19.29-19.07s.04-.04.03-.05a11.38 11.38 0 1 1 16.74-15.4l18.53 18.32.07-.07-24.45-24.17.03-.04a11.39 11.39 0 1 1 16.73-15.4l23.7 23.42.07-.07-29.61-29.27s.03-.04.02-.05a11.4 11.4 0 1 1 16.73-15.4l28.86 28.53.07-.07-24.44-24.17.03-.05a11.38 11.38 0 1 1 16.73-15.4l30.41 30.07.52-.14-10.27-16.97s.05-.02.04-.04a11.39 11.39 0 1 1 19.96-10.9l24.56 40.45a32.12 32.12 0 0 1 5.64 23.37c-.18 3.51-.01 10.14 3.1 14.3v.02"/><path d="M977.51 504.82a2.5 2.5 0 0 1-1.7-.66 57.79 57.79 0 0 0-13.97-6.78 58.68 58.68 0 0 1-17.51-9.09 111.9 111.9 0 0 1-12.09-10.64l-37.52-37.1a2.46 2.46 0 0 1-.36-.44 13.79 13.79 0 0 1-3.74-9.4 13.8 13.8 0 0 1 4.01-9.85 13.78 13.78 0 0 1 9.1-4.1 13.91 13.91 0 0 1 1.82-17.27 13.85 13.85 0 0 1 9.1-4.1 13.92 13.92 0 0 1 1.81-17.26 13.92 13.92 0 0 1 17.25-2.01 13.78 13.78 0 0 1 4-9.15 13.8 13.8 0 0 1 9.8-4.12h.07a13.8 13.8 0 0 1 10.57 4.88l17.5 17.3-.81-1.34c-.1-.16-.18-.33-.23-.5a13.91 13.91 0 0 1 4.91-18.62 13.9 13.9 0 0 1 19.65 5.68l24.45 40.27a34.8 34.8 0 0 1 6.04 24.98c-.12 2.67-.08 8.97 2.62 12.57a2.5 2.5 0 1 1-4.15 2.79c-3.44-4.78-3.65-11.88-3.46-15.71l.02-.25a29.79 29.79 0 0 0-5.3-21.7l-24.55-40.45a2.55 2.55 0 0 1-15.47 8.76l10.01 16.55a2.5 2.5 0 0 1-1.52 3.72l-.51.14a2.51 2.51 0 0 1-2.38-.65l-30.42-30.07-.15-.16a8.83 8.83 0 0 0-6.81-3.19h-.06c-2.37.01-4.6.95-6.27 2.64a8.82 8.82 0 0 0-2.56 6.3 8.82 8.82 0 0 0 2.74 6.37c.08.1.16.2.22.3l24.1 23.81a2.5 2.5 0 0 1-.02 3.57 2.59 2.59 0 0 1-3.57.06l-28.86-28.54a8.9 8.9 0 0 0-13.29-.72 8.9 8.9 0 0 0 .07 12.57c.12.12.23.26.33.4l29.25 28.93a2.5 2.5 0 0 1-.01 3.57 2.59 2.59 0 0 1-3.57.05l-23.7-23.43a8.9 8.9 0 0 0-13.3-.72 8.9 8.9 0 0 0 .09 12.57c.12.12.23.25.32.4l24.1 23.82a2.5 2.5 0 0 1-.01 3.56 2.59 2.59 0 0 1-3.58.06l-18.53-18.33a8.83 8.83 0 0 0-7.02-3.35 8.8 8.8 0 0 0-6.27 2.64 8.83 8.83 0 0 0-2.57 6.3c.01 2.37.95 4.6 2.64 6.26.12.13.23.26.33.4l37.17 36.75a107 107 0 0 0 11.55 10.19 53.07 53.07 0 0 0 16.03 8.33 63.17 63.17 0 0 1 15.59 7.61 2.5 2.5 0 0 1 .36 3.89 2.6 2.6 0 0 1-1.78.71z"/><g fill="#FFF"><path d="M1057.52 466.46 993.9 530.1l-23.38-23.38 63.64-63.64z"/><path d="m1185.96 553.14 1.37-.76-64.4-69.7-.01.01a79.78 79.78 0 0 0-134.47 70.45h197.5z"/></g><g fill="#FFF"><path d="M970.51 177.59a2.5 2.5 0 0 1-2.5-2.5v-56.24a2.5 2.5 0 1 1 5 0v56.24a2.5 2.5 0 0 1-2.5 2.5z"/><path d="M998.63 149.47H942.4a2.5 2.5 0 1 1 0-5h56.23a2.5 2.5 0 1 1 0 5z"/><path d="M950.63 169.35a2.5 2.5 0 0 1-1.76-4.27l39.76-39.76a2.5 2.5 0 1 1 3.53 3.53l-39.76 39.77c-.49.48-1.13.73-1.77.73z"/><path d="M990.4 169.35a2.5 2.5 0 0 1-1.77-.73l-39.76-39.77a2.5 2.5 0 1 1 3.53-3.53l39.76 39.76a2.5 2.5 0 0 1-1.76 4.27z"/></g><path fill="#FF8630" d="M77.55 738.6h245.6v58.13H77.55z"/><path fill="#FFF" d="M133.5 746.87h5v37.84h-5zm68.44 0h5v37.84h-5z"/><path d="M29.76 682.81v163.86h436.26V682.81H29.76zm276.66 83.32c0 7.16-5.86 13.02-13.02 13.02L96.8 781.5c-7.16 0-13.02-8.22-13.02-15.38s5.86-15.39 13.02-15.39l196.58 2.37c7.17 0 13.03 5.86 13.03 13.02z"/><path fill="#FFF" d="m383.05 727.7-105.61-12.47a22.55 22.55 0 0 0-25.2 22.4v14.98l41.16.5c7.16 0 13.02 5.85 13.02 13.02 0 7.16-5.86 13.02-13.02 13.02l-41.16.49v11.52a22.55 22.55 0 0 0 25.2 22.4l105.61-12.48a36.94 36.94 0 0 0 0-73.37z"/><path d="M147.21 962.2a27.5 27.5 0 0 0-27.5 27.5 27.5 27.5 0 0 0-54.98 0c0 30.37 36.24 34.58 54.99 55 18.74-20.42 54.99-24.63 54.99-55a27.5 27.5 0 0 0-27.5-27.5z"/><path d="M683.62 802.26h5.51a7.8 7.8 0 0 0 5.52-13.32L675.74 763h6.08a6.16 6.16 0 0 0 4.35-10.5l-27.36-37.55a6.16 6.16 0 0 0-8.71 0l-27.37 37.54A6.16 6.16 0 0 0 627.1 763h6.08l-18.92 25.95a7.8 7.8 0 0 0 5.52 13.32h5.52l-19.02 26.09c-5.89 5.89-1.72 15.96 6.61 15.96h83.14c8.33 0 12.5-10.07 6.61-15.96l-19.01-26.1zm120.46 0h5.51a7.8 7.8 0 0 0 5.52-13.32L796.2 763h6.08a6.16 6.16 0 0 0 4.35-10.5l-27.36-37.55a6.16 6.16 0 0 0-8.71 0l-27.36 37.54a6.16 6.16 0 0 0 4.35 10.51h6.08l-18.91 25.95a7.8 7.8 0 0 0 5.51 13.32h5.52l-19.02 26.09c-5.89 5.89-1.72 15.96 6.62 15.96h83.13c8.33 0 12.5-10.07 6.61-15.96l-19.01-26.1zm139.47 26.09-19.01-26.1h5.51a7.8 7.8 0 0 0 5.52-13.3l-18.91-25.96h6.08a6.16 6.16 0 0 0 4.35-10.5l-27.36-37.55a6.16 6.16 0 0 0-8.7 0l-27.37 37.54A6.16 6.16 0 0 0 868 763h6.08l-18.91 25.95a7.8 7.8 0 0 0 5.51 13.32h5.52l-19.02 26.09c-5.89 5.89-1.71 15.96 6.62 15.96h83.13c8.33 0 12.5-10.07 6.61-15.96zm-74.4 245.48H617.74v-154h251.4v154zm-246.41-5h241.4v-144h-241.4v144z" fill="#FFF"/><path d="m449.81 964.16.44 18.35-34.4-18.35.02.82h-.01l.44 18.35-34.4-18.35.6 24.91-23.2.56.46 19.21 23.21-.56.6 24.92 33.47-19.99.49 19.99 33.48-19.99.46 19.17 60.3-36zm81.73-301.97 3.48-3.6 23.72 22.93-3.47 3.6zm.01 207.34 23.72-22.92 3.48 3.6-23.73 22.92zm459.66-188.08 23.73-22.92 3.47 3.6-23.72 22.92zm.01 168.78 3.47-3.6 23.72 22.93-3.47 3.6z"/><path fill="none" d="M1327.33 278.08a30.32 30.32 0 0 1-30.28-30.28 2.5 2.5 0 0 0-5 0c0 16.7-13.59 30.28-30.29 30.28s-30.28-13.58-30.28-30.28a2.5 2.5 0 1 0-5 0 30.32 30.32 0 0 1-27.53 30.15l-3.24 5.12.5.01a35.34 35.34 0 0 0 32.77-22.23 35.34 35.34 0 0 0 32.78 22.23 35.34 35.34 0 0 0 32.79-22.24 35.34 35.34 0 0 0 36.64 22.02l-2.99-4.8-.87.02z"/><path d="m1433.03 543.85-71.08-114.15a47.19 47.19 0 0 1-54.29-30.94 47.19 47.19 0 0 1-44.6 31.95 47.19 47.19 0 0 1-44.61-31.95 47.19 47.19 0 0 1-53.3 31.14l-71.97 113.88a26.48 26.48 0 0 0-3.49 8.56h115.15c0-.38.03-.75.03-1.13l.02 1.13h116.32c.01-.38.03-.75.03-1.13 0 .38.03.75.04 1.13h115.17a26.53 26.53 0 0 0-3.42-8.5zm-77.63-298.88-82.66-132.75a12.13 12.13 0 0 0-10.31-5.75 12.08 12.08 0 0 0-10.35 5.69l-83.9 132.79a11.9 11.9 0 0 0-1.71 8.62 30.3 30.3 0 0 0 32.48 24.38 30.32 30.32 0 0 0 27.53-30.15 2.5 2.5 0 1 1 5 0c0 16.7 13.59 30.28 30.28 30.28s30.29-13.58 30.29-30.28a2.5 2.5 0 1 1 5 0 30.32 30.32 0 0 0 30.28 30.28l.87-.02a30.3 30.3 0 0 0 28.87-24.53c.56-2.9-.04-5.94-1.67-8.56z"/><path d="M1132.5 391.64a42.14 42.14 0 0 0 41.34 34.07 42.15 42.15 0 0 0 42.1-42.1 2.5 2.5 0 1 1 5 0c0 23.22 18.9 42.1 42.11 42.1s42.1-18.89 42.1-42.1a2.5 2.5 0 1 1 5.01 0 42.15 42.15 0 0 0 42.1 42.1 42.13 42.13 0 0 0 41.36-34.13c.8-4.18-.05-8.54-2.39-12.3l-60.04-96.42a35.34 35.34 0 0 1-36.64-22.01 35.34 35.34 0 0 1-32.79 22.23 35.34 35.34 0 0 1-32.78-22.23 35.34 35.34 0 0 1-32.78 22.23l-.49-.01-60.76 96.18a17.1 17.1 0 0 0-2.45 12.39z"/></svg>
