<svg xmlns="http://www.w3.org/2000/svg" xmlns:xlink="http://www.w3.org/1999/xlink" viewBox="0 0 1080 1080" xml:space="preserve"><path d="M576.09 809.59h28.66v45.25h-28.66z"/><path fill="#FFF" d="M618.52 781.89h5.32c6.7 0 10.05-8.1 5.32-12.83l-18.23-25.01h5.86a5.93 5.93 0 0 0 4.2-10.13l-26.38-36.18a5.93 5.93 0 0 0-8.39 0l-26.37 36.18a5.93 5.93 0 0 0 4.2 10.13h5.86l-18.23 25A7.52 7.52 0 0 0 557 781.9h5.31L544 807.03c-5.68 5.68-1.66 15.38 6.37 15.38h80.12c8.03 0 12.05-9.7 6.37-15.38l-18.33-25.14z"/><path d="M692.18 809.59h28.66v45.25h-28.66zm116.09 0h28.66v45.25h-28.66z"/><path fill="#FFF" d="M734.61 781.89h5.32c6.7 0 10.05-8.1 5.32-12.83l-18.23-25.01h5.86a5.93 5.93 0 0 0 4.2-10.13l-26.38-36.18a5.93 5.93 0 0 0-8.39 0l-26.37 36.18a5.93 5.93 0 0 0 4.2 10.13H686l-18.23 25a7.52 7.52 0 0 0 5.32 12.84h5.31l-18.32 25.14c-5.68 5.68-1.66 15.38 6.37 15.38h80.12c8.03 0 12.05-9.7 6.37-15.38l-18.33-25.14zm134.42 25.14-18.33-25.14h5.32c6.7 0 10.05-8.1 5.32-12.83l-18.23-25.01h5.86a5.93 5.93 0 0 0 4.2-10.13l-26.37-36.18a5.93 5.93 0 0 0-8.4 0l-26.37 36.18a5.93 5.93 0 0 0 4.2 10.13h5.86l-18.23 25a7.52 7.52 0 0 0 5.32 12.84h5.31l-18.32 25.14c-5.68 5.68-1.66 15.38 6.37 15.38h80.12c8.03 0 12.05-9.7 6.37-15.38zm211.2-209.97H3.53V.5h1076.7v596.55zm-1072.7-4h1068.7V4.5H7.53v588.55z"/><path d="M438.73 885.27H2.59V635.79h436.14v249.48zm-432.14-4h428.14V639.79H6.59v241.48z"/><path fill="#FF8630" d="M379.4 930.78c-61.9 0-112.09 32.42-112.09 72.4 0 40 50.19 72.42 112.1 72.42s112.09-32.42 112.09-72.41c0-40-50.19-72.41-112.1-72.41zm-.16 126.14c-51.4 0-93.08-24.06-93.08-53.73 0-29.68 41.67-53.73 93.08-53.73s93.09 24.05 93.09 53.73c0 29.67-41.68 53.73-93.09 53.73z"/><path d="M379.4 1077.6c-62.9 0-114.09-33.38-114.09-74.41 0-41.03 51.18-74.41 114.1-74.41s114.09 33.38 114.09 74.4c0 41.04-51.19 74.42-114.1 74.42zm0-144.82c-60.7 0-110.09 31.58-110.09 70.4 0 38.83 49.39 70.42 110.1 70.42s110.09-31.59 110.09-70.41c0-38.83-49.39-70.41-110.1-70.41zm-.16 126.14c-25.2 0-48.94-5.68-66.82-16-18.22-10.53-28.26-24.63-28.26-39.73s10.04-29.2 28.26-39.73c17.88-10.32 41.61-16 66.82-16s48.94 5.68 66.83 16c18.22 10.52 28.26 24.63 28.26 39.73s-10.04 29.2-28.26 39.73c-17.88 10.32-41.62 16-66.83 16zm0-107.46c-50.22 0-91.08 23.2-91.08 51.73 0 28.52 40.86 51.73 91.08 51.73s91.09-23.2 91.09-51.73c0-28.53-40.86-51.73-91.09-51.73zm544.49-66.19H487.6V635.79h436.14v249.48zm-432.14-4h428.14V639.79H491.6v241.48z"/><path d="M897.9 858.37H513.42V662.69H897.9v195.68zm-380.48-4H893.9V666.69H517.42v187.68z"/><path fill="#FF8630" d="M546.3 927.41h216.67v148.08H546.3z"/><path d="M549.66 973.4a2 2 0 0 1-1.41-3.41l35-35a2.06 2.06 0 0 1 2.82 0l35 34.99a2 2 0 1 1-2.83 2.83l-33.58-33.59-33.59 33.59a2 2 0 0 1-1.41.58zm0 44.06a2 2 0 0 1-1.41-3.41l35-35a2.06 2.06 0 0 1 2.82 0l35 35a2 2 0 1 1-2.83 2.83l-33.58-33.59-33.59 33.59a2 2 0 0 1-1.41.58zm0 44.07a2 2 0 0 1-1.41-3.41l35-35a2.06 2.06 0 0 1 2.82 0l35 35a2 2 0 1 1-2.83 2.83l-33.58-33.59-33.59 33.59a2 2 0 0 1-1.41.58z"/><path d="M582.66 940.54h4v135.04h-4zm38.19 32.86a2 2 0 0 1-1.41-3.41l35-35a2.06 2.06 0 0 1 2.82 0l35 34.99a2 2 0 1 1-2.83 2.83l-33.58-33.59-33.59 33.59c-.39.39-.9.58-1.41.58zm0 44.06a2 2 0 0 1-1.41-3.41l35-35a2.06 2.06 0 0 1 2.82 0l35 35a2 2 0 1 1-2.83 2.83l-33.58-33.59-33.59 33.59a2 2 0 0 1-1.41.58zm0 44.07a2 2 0 0 1-1.41-3.41l35-35a2.06 2.06 0 0 1 2.82 0l35 35a2 2 0 1 1-2.83 2.83l-33.58-33.59-33.59 33.59c-.39.39-.9.58-1.41.58z"/><path d="M653.85 940.54h4v135.04h-4zm38.19 32.86a2 2 0 0 1-1.41-3.41l35-35a2.06 2.06 0 0 1 2.82 0l35 34.99a2 2 0 1 1-2.83 2.83l-33.58-33.59-33.59 33.59a2 2 0 0 1-1.41.58zm0 44.06a2 2 0 0 1-1.41-3.41l35-35a2.06 2.06 0 0 1 2.82 0l35 35a2 2 0 1 1-2.83 2.83l-33.58-33.59-33.59 33.59a2 2 0 0 1-1.41.58zm0 44.07a2 2 0 0 1-1.41-3.41l35-35a2.06 2.06 0 0 1 2.82 0l35 35a2 2 0 1 1-2.83 2.83l-33.58-33.59-33.59 33.59a2 2 0 0 1-1.41.58z"/><path d="M725.04 940.54h4v135.04h-4z"/><path fill="#FFF" d="M764.97 1077.5H544.3V925.4h220.67v152.08zm-216.67-4h212.67V929.4H548.3v144.08zM214.44 933.42v140.07H5.77V933.42h208.67m4-4H1.77v148.07h216.67V929.42zm499.24-371.07H369.63c-14.85 0-27-12.15-27-27v-183.9c0-14.85 12.15-27 27-27h348.05c14.85 0 27 12.15 27 27v183.9c0 14.85-12.15 27-27 27z"/><path d="M181.36 317.33a34.36 34.36 0 0 0 17.6-18.33 34.38 34.38 0 0 0-.1-26.5 2 2 0 0 1 3.69-1.55 34.38 34.38 0 0 0 18.8 18.67 34.39 34.39 0 0 0 26.5-.1c8.52-3.57 15.15-10.25 18.66-18.8s3.46-17.96-.1-26.5a2 2 0 0 1 3.68-1.54 34.38 34.38 0 0 0 18.8 18.66 34.35 34.35 0 0 0 24.11.79 32.99 32.99 0 0 0 14.57-34.53 14.58 14.58 0 0 0-5.88-8.84l-128.3-91.08a14.79 14.79 0 0 0-23.15 9.6l-26.27 155.86c-.6 3.63.11 7.4 2.16 10.48a32.98 32.98 0 0 0 35.23 13.7z"/><path d="M517.1 485.34a25.87 25.87 0 0 0-10.44-15.67l-112.9-80.15a44.92 44.92 0 0 0 21.38-48 19.83 19.83 0 0 0-8-12.02l-90.69-64.38a38.34 38.34 0 0 1-29.07-.08 38.46 38.46 0 0 1-14.37-10.22 38.4 38.4 0 0 1-2.8 17.42c-3.91 9.54-11.3 16.99-20.82 20.97s-20 4.03-29.55.12a38.45 38.45 0 0 1-14.37-10.22c.43 5.87-.5 11.8-2.8 17.4a38.32 38.32 0 0 1-18.79 20.05L165.32 430.7a19.8 19.8 0 0 0 2.93 14.26 44.93 44.93 0 0 0 46.15 19.1l-15.78 93.65H408.3a58.28 58.28 0 0 0-2.53-37.76 58.55 58.55 0 0 0 111.33-34.6zm337.89-128.83a24.76 24.76 0 0 0 30.09-9.35 9.77 9.77 0 0 0 1.4-7l-21.35-125.77a9.93 9.93 0 0 0-6.03-7.56 9.93 9.93 0 0 0-9.6 1.1L745.1 282.2a9.75 9.75 0 0 0-3.98 6 24.76 24.76 0 0 0 33.83 27.67 24.58 24.58 0 0 0 13.33-13.44 2 2 0 0 1 3.7 1.52 24.77 24.77 0 0 0 13.52 32.27 24.6 24.6 0 0 0 18.94-.07 24.58 24.58 0 0 0 13.33-13.44 2 2 0 1 1 3.7 1.52A24.76 24.76 0 0 0 855 356.5z"/><path d="M858.6 361.77a28.7 28.7 0 0 1-20.74-17.05 28.68 28.68 0 0 1-2.25-11.46 28.66 28.66 0 0 1-9.63 6.6 28.79 28.79 0 0 1-39.84-26.88 28.68 28.68 0 0 1-9.65 6.6 28.56 28.56 0 0 1-24.46-1.07l-74.72 53.17a16.06 16.06 0 0 0-6.5 9.85 36.42 36.42 0 0 0 16.26 37.9l-90.73 64.55a20.94 20.94 0 0 0-8.47 12.85 47.48 47.48 0 0 0 90.48 27.3 47.3 47.3 0 0 0-.77 33.99H847.6l-13.33-78.56a36.42 36.42 0 0 0 37.39-15.8c2.2-3.37 2.98-7.5 2.3-11.47l-15.36-90.52z"/><path fill="#FF8630" d="m508.41 386.12-.69-61.13 72.6-.73.68 61.13"/><path d="M508.4 388.12a2 2 0 0 1-2-1.98l-.7-63.13 76.6-.77.7 63.13a2 2 0 0 1-1.97 2.02H581a2 2 0 0 1-2-1.98l-.66-59.13-68.6.7.67 59.12a2 2 0 0 1-1.98 2.02h-.02z"/><defs><path id="a" d="M651.1 218.1a37.7 37.7 0 0 0-4.22.28c-13.42-44.63-55.03-76.94-103.96-76.44-48.94.5-89.9 33.64-102.4 78.53a37.3 37.3 0 1 0 5.6 73.17 107.42 107.42 0 0 0 98.97 63.1 107.43 107.43 0 0 0 97.66-65.1 37.3 37.3 0 1 0 8.35-73.56z"/></defs><defs><path id="b" d="M544 358.75a109.5 109.5 0 0 1-99-62.79 39.65 39.65 0 0 1-8.33.9 39.34 39.34 0 0 1-39.29-38.9 39.04 39.04 0 0 1 11.23-27.9 39.04 39.04 0 0 1 30.45-11.72 110.28 110.28 0 0 1 37.77-55.36 108.4 108.4 0 0 1 66.06-23.04 108.34 108.34 0 0 1 66.52 21.7 110.3 110.3 0 0 1 38.9 54.59 38.68 38.68 0 0 1 3.17-.14 39.34 39.34 0 0 1 39.29 38.9 39.34 39.34 0 0 1-46.85 38.96 109.51 109.51 0 0 1-99.92 64.8zm-96.74-67.48.7 1.54a105.5 105.5 0 0 0 97.1 61.93 105.51 105.51 0 0 0 95.85-63.88l.66-1.55 1.64.4a35.34 35.34 0 0 0 43.56-34.67 35.35 35.35 0 0 0-35.65-34.95c-1.28.01-2.62.1-4 .28l-1.67.2-.49-1.61a106.2 106.2 0 0 0-37.94-54.12 104.64 104.64 0 0 0-64.08-20.9 104.3 104.3 0 0 0-63.65 22.2A106.19 106.19 0 0 0 442.45 221l-.45 1.63-1.68-.17a35.33 35.33 0 0 0-38.94 35.46c.2 19.33 16 34.93 35.29 34.93h.36c2.9-.03 5.8-.42 8.6-1.15l1.63-.43z"/></defs><use xlink:href="#a" overflow="visible" fill="#FF8630"/><use xlink:href="#b" overflow="visible"/><path fill="#FF8630" d="m417.02 249.97 16.34 17.64"/><path d="M433.36 269.6a2 2 0 0 1-1.47-.63l-16.33-17.64a2 2 0 0 1 2.93-2.72l16.33 17.64a2 2 0 0 1-1.46 3.36z"/><path fill="#FF8630" d="m670.43 247.07-16.33 17.64"/><path d="M654.1 266.71a2 2 0 0 1-1.47-3.36l16.34-17.63a2 2 0 0 1 2.93 2.72l-16.33 17.63a2 2 0 0 1-1.47.64zm-143.07-4.74a13.32 13.32 0 1 1-26.64.27 13.32 13.32 0 0 1 26.64-.27z"/><path d="M468.99 266.54a2 2 0 0 1-1.66-3.11 36.33 36.33 0 0 1 29.79-16.1h.36a36.34 36.34 0 0 1 29.75 15.49 2 2 0 0 1-3.27 2.3 32.35 32.35 0 0 0-26.48-13.78h-.32a32.33 32.33 0 0 0-26.5 14.32 2 2 0 0 1-1.67.88zm134.08-6.01a13.32 13.32 0 1 1-26.63.27 13.32 13.32 0 0 1 26.63-.27z"/><path d="M561.47 265.6a2 2 0 0 1-1.66-3.11 36.33 36.33 0 0 1 59.9-.6 2 2 0 0 1-3.27 2.3 32.32 32.32 0 0 0-26.47-13.79h-.32a32.33 32.33 0 0 0-26.52 14.32 2 2 0 0 1-1.66.89z"/><path fill="#FF8630" d="m543.58 258.4.21 18.07"/><path d="M543.79 278.47a2 2 0 0 1-2-1.98l-.21-18.06a2 2 0 0 1 1.97-2.03h.03a2 2 0 0 1 2 1.98l.2 18.07a2 2 0 0 1-1.97 2.02h-.02zm-21.23-39.81h-48.9a4.72 4.72 0 0 1-4.7-4.7v-4.22c0-2.58 2.11-4.7 4.7-4.7h48.9c2.59 0 4.7 2.12 4.7 4.7v4.22c0 2.58-2.11 4.7-4.7 4.7zm92.65-.82h-48.9a4.72 4.72 0 0 1-4.7-4.7v-4.21a4.7 4.7 0 0 1 4.7-4.71h48.9c2.59 0 4.7 2.12 4.7 4.7v4.22a4.7 4.7 0 0 1-4.7 4.7zm-32.95 75.38h.1-.1zm5.02-.65-1.23.03c.42 0 .83-.01 1.23-.03zm-81.45 1.03h-.1.1zm-5.03-.6 1.23.01-1.23-.01z"/><path d="m645.72 292.39-.39-78.76-17.62.08.27 56.02c-1.76 21.63-16.13 39.16-37.8 40.4a53.46 53.46 0 0 0-45.99-25.74 53.45 53.45 0 0 0-45.75 26.22c-20.61-.71-34.88-16.16-38.21-36.06l-.3-60-17.62.08.39 78.72-2.61-.97.31 63.6a70 70 0 0 0 70.35 69.66l68.4-.33a70 70 0 0 0 69.65-70.35l-.31-63.6-2.77 1.03z"/><path fill="#FFF" d="m642.36 188.96-4 .02c-12.23-41.52-50.73-71.74-96.19-71.51-45.45.22-83.65 30.82-95.47 72.46l-4.78.02c-9.66.05-17.52 8-17.47 17.65a17.6 17.6 0 0 0 17.65 17.48l200.44-.99a17.62 17.62 0 0 0 17.48-17.65c-.05-9.66-8-17.53-17.66-17.48zm-99.26-72.42c-5.96 0-11.58-2.3-15.82-6.5A22.52 22.52 0 0 1 543 71.55h.11a22.52 22.52 0 0 1 22.5 22.38c.02 6-2.29 11.67-6.52 15.94s-9.86 6.64-15.87 6.66h-.12zm.01-40.98h-.1a18.37 18.37 0 0 0-13.04 5.48 18.37 18.37 0 0 0-5.35 13.1 18.37 18.37 0 0 0 5.48 13.05 18.37 18.37 0 0 0 13 5.35h.1a18.37 18.37 0 0 0 13.05-5.48 18.52 18.52 0 0 0-13.14-31.5zm14.81 223.29a13.97 13.97 0 0 1-27.94.29l27.94-.29z"/><path fill="#FF8630" d="m302.88 504.5-.06-.06a65.43 65.43 0 0 1 16.1-7.87 60.24 60.24 0 0 0 18.05-9.37 120.7 120.7 0 0 0 12.7-11.2l19.64-19.4 20.74-20.52s-.04-.04-.03-.05a12.25 12.25 0 1 0-18-16.57l-19.94 19.71-.07-.07 26.3-26s-.05-.04-.03-.05a12.25 12.25 0 1 0-18-16.58l-25.5 25.2-.07-.06 31.85-31.5s-.04-.04-.03-.05a12.26 12.26 0 1 0-18-16.57l-31.04 30.7-.08-.08 26.3-26s-.04-.04-.03-.05a12.24 12.24 0 1 0-18-16.57l-32.72 32.35-.56-.16 11.05-18.25s-.05-.02-.04-.04a12.25 12.25 0 1 0-21.48-11.73l-26.41 43.52a34.55 34.55 0 0 0-6.06 25.14c.18 3.78 0 10.9-3.36 15.38l.02.02"/><path d="M302.84 506.48c-.48 0-.97-.18-1.35-.55l-.06-.06a2 2 0 0 1 .3-3.1 67.21 67.21 0 0 1 16.59-8.1 57.8 57.8 0 0 0 17.45-9.08c3.78-2.8 7.64-6.2 12.5-11.01l40.04-39.6c.09-.13.19-.26.3-.37a10.22 10.22 0 0 0-7.15-17.54 10.2 10.2 0 0 0-8.04 3.8L353.5 440.6a2 2 0 0 1-2.8.02l-.08-.08a2 2 0 0 1-.01-2.85L376.57 412c.09-.14.19-.26.3-.38a10.26 10.26 0 0 0 .08-14.5 10.27 10.27 0 0 0-15.27.78l-25.49 25.2a2 2 0 0 1-2.78.03l-.08-.07a2 2 0 0 1-.03-2.88l31.53-31.17c.09-.13.18-.26.3-.37a10.27 10.27 0 0 0 .08-14.5 10.26 10.26 0 0 0-15.27.77l-31.05 30.7a2 2 0 0 1-2.79.02l-.07-.08a2 2 0 0 1-.02-2.86L341.98 377a2.1 2.1 0 0 1 .3-.38 10.18 10.18 0 0 0 3.04-7.23 10.17 10.17 0 0 0-2.96-7.26 10.19 10.19 0 0 0-7.23-3.04 10.09 10.09 0 0 0-8.04 3.8l-32.72 32.36a2 2 0 0 1-1.9.51l-.57-.15a2 2 0 0 1-1.2-2.97l10.8-17.87c.06-.15.12-.3.2-.43a10.27 10.27 0 0 0-3.43-14.08 10.27 10.27 0 0 0-14.54 4.27.5.5 0 0 1-.09.16l-26.41 43.52-.08.12a32.75 32.75 0 0 0-5.7 23.88c.2 4.05-.02 11.53-3.6 16.5a2 2 0 0 1-3.1.46 2.02 2.02 0 0 1-.24-2.68c3.04-4.06 3.09-11.06 2.95-13.99a36.76 36.76 0 0 1 6.39-26.43l26.33-43.38a14.27 14.27 0 0 1 20.17-5.85c6.58 4 8.76 12.51 5.01 19.17a2 2 0 0 1-.2.45l-3.76 6.2 22.81-22.54a14.32 14.32 0 0 1 10.94-5.03c3.8.02 7.38 1.52 10.06 4.23a14.15 14.15 0 0 1 4.1 10.67 14.28 14.28 0 0 1 18.75 1.33 14.28 14.28 0 0 1 1.11 18.77 14.19 14.19 0 0 1 10.63 4.22 14.28 14.28 0 0 1 1.12 18.76h.57c3.8.02 7.38 1.52 10.05 4.23a14.13 14.13 0 0 1 4.12 10.1 14.14 14.14 0 0 1-3.89 9.7 2 2 0 0 1-.31.4l-40.37 39.91c-5 4.95-9 8.46-12.93 11.39-6 4.44-12.09 7.6-18.64 9.67a62.96 62.96 0 0 0-15.25 7.4 2 2 0 0 1-1.43.6z"/><g fill="#FFF"><path d="m239.77 440.45 68.46 68.46-25.14 25.15-68.46-68.47z"/><path d="M288.33 559.12a85.67 85.67 0 0 0-24.1-73.84 85.83 85.83 0 0 0-120.78-.58l-.02-.01-72.51 74.43h217.4z"/></g><path fill="#FF8630" d="m790.65 504.5.07-.06a65.43 65.43 0 0 0-16.1-7.87 60.24 60.24 0 0 1-18.05-9.37 120.7 120.7 0 0 1-12.7-11.2l-19.63-19.4-20.75-20.52s.04-.04.03-.05a12.25 12.25 0 1 1 18-16.57l19.94 19.71.07-.07-26.3-26s.05-.04.03-.05a12.25 12.25 0 1 1 18-16.58l25.5 25.2.07-.06-31.85-31.5s.04-.04.03-.05a12.26 12.26 0 1 1 18-16.57l31.05 30.7.07-.08-26.3-26s.04-.04.03-.05a12.24 12.24 0 1 1 18-16.57l32.72 32.35.56-.16-11.05-18.25s.05-.02.04-.04a12.25 12.25 0 1 1 21.48-11.73l26.41 43.52a34.55 34.55 0 0 1 6.06 25.14c-.18 3.78 0 10.9 3.36 15.38l-.02.02"/><path d="M790.67 506.45a2 2 0 0 1-1.4-.57 62.97 62.97 0 0 0-15.25-7.4 62.48 62.48 0 0 1-18.64-9.67 120.17 120.17 0 0 1-12.92-11.39l-40.37-39.91a1.97 1.97 0 0 1-.32-.4 14.15 14.15 0 0 1-3.89-9.7 14.13 14.13 0 0 1 4.12-10.1 14.3 14.3 0 0 1 10.63-4.22 14.27 14.27 0 0 1 1.11-18.77 14.21 14.21 0 0 1 10.63-4.22 14.28 14.28 0 0 1 1.12-18.77 14.28 14.28 0 0 1 18.75-1.33l-.02-.57a14.13 14.13 0 0 1 4.12-10.1 14.15 14.15 0 0 1 10.05-4.23h.08a14.15 14.15 0 0 1 10.86 5.03l22.81 22.55-3.76-6.2c-.08-.15-.15-.3-.2-.46a14.27 14.27 0 0 1 5.01-19.17 14.27 14.27 0 0 1 20.17 5.85l26.33 43.38a36.76 36.76 0 0 1 6.38 26.43c-.12 2.93-.08 9.93 2.97 14a2 2 0 0 1-.23 2.65 2.01 2.01 0 0 1-3.12-.45c-3.58-4.97-3.8-12.44-3.6-16.49l.02-.2a32.75 32.75 0 0 0-5.8-23.8l-26.4-43.52-.1-.16a10.26 10.26 0 0 0-14.54-4.27 10.27 10.27 0 0 0-3.43 14.08c.08.14.15.28.2.43l10.81 17.87a2 2 0 0 1-1.2 2.97l-.57.15a2 2 0 0 1-1.9-.51l-32.72-32.35a10.18 10.18 0 0 0-7.98-3.81h-.06c-2.74.01-5.3 1.1-7.23 3.04a10.17 10.17 0 0 0-2.96 7.26 10.18 10.18 0 0 0 3.11 7.3c.09.1.16.2.23.31l25.97 25.68a2 2 0 0 1-.02 2.86l-.08.08a2 2 0 0 1-2.79-.03l-31.04-30.7a9.34 9.34 0 0 0-.77-.84 10.27 10.27 0 0 0-14.5.08 10.27 10.27 0 0 0 .08 14.5c.11.11.21.24.3.37l31.52 31.17a2 2 0 0 1-.03 2.88l-.07.07a2 2 0 0 1-2.79-.03l-25.49-25.2-.12-.14a10.26 10.26 0 0 0-15.14-.63 10.26 10.26 0 0 0 .07 14.5c.12.1.22.23.3.37l25.97 25.68a2 2 0 0 1 0 2.85l-.08.07a2 2 0 0 1-2.8 0l-19.94-19.72-.13-.14a10.26 10.26 0 1 0-15.06 13.87c.12.11.22.24.3.37l40.04 39.6c4.86 4.8 8.72 8.2 12.5 11.01a57.8 57.8 0 0 0 17.46 9.07 67.3 67.3 0 0 1 16.6 8.1 2 2 0 0 1 .28 3.11c-.4.39-.92.58-1.44.58z"/><g fill="#FFF"><path d="m876.74 465.87-68.46 68.46-25.15-25.14 68.46-68.46z"/><path d="m1014.91 559.12 1.48-.81-69.28-74.99-.01.02a85.83 85.83 0 0 0-120.79.58 85.69 85.69 0 0 0-23.88 75.2h212.48z"/></g><path d="M85.22 966.08a24.89 24.89 0 0 0-24.88 24.88c0 27.5 32.8 31.3 49.77 49.77v-49.77a24.89 24.89 0 0 0-24.89-24.88z"/><path d="M135 966.08a24.89 24.89 0 0 0-24.9 24.88v49.77c16.98-18.47 49.78-22.28 49.78-49.77A24.89 24.89 0 0 0 135 966.08z"/><path fill="#FFF" d="M1038.98 559.6H44.78V37.96h994.2V559.6zm-990.2-4h986.2V41.96H48.78V555.6z"/><path fill="#231F20" d="m488.13 639.2 2.88-2.76 25.83 26.9-2.88 2.77zm-.01 242.26 25.84-26.9 2.89 2.77-25.85 26.9zm406.03-218.19 25.83-26.9 2.89 2.76-25.84 26.9zm-.01 194.05 2.89-2.77 25.84 26.9-2.88 2.77z"/><path fill="#FF8630" d="M86.07 733.8h210.4v57.69H86.07z"/><path fill="none" stroke="#FFF" stroke-width="4" stroke-miterlimit="10" d="M135.44 739.24v45.98m57.82-45.98v45.98"/><path d="M33.08 662.74v195.08h376.14V662.74H33.08zm246.97 101.24c0 6.07-4.97 11.05-11.05 11.05l-166.87 2c-6.08 0-11.06-6.98-11.06-13.05 0-6.08 4.98-13.07 11.06-13.07L269 752.92c6.08 0 11.05 4.98 11.05 11.06z"/><path fill="#FFF" d="m334.65 731.45-88.56-10.58c-11.25-1.35-21.13 7.54-21.13 18.99v12.7l34.5.42c6.01 0 10.93 4.97 10.93 11.05 0 6.07-4.92 11.04-10.92 11.04l-34.51.42v9.76c0 11.45 9.88 20.34 21.13 19l88.56-10.58c15.6-1.87 27.34-15.24 27.34-31.12 0-15.87-11.75-29.24-27.34-31.1z"/><path d="M778.87 110.39v55.8m27.9-27.9h-55.8m47.63-19.73-39.46 39.46m39.46 0-39.46-39.46" fill="none" stroke="#FFF" stroke-width="4" stroke-linecap="round" stroke-linejoin="round" stroke-miterlimit="10"/><path d="M366.17 1014.01a16.32 16.32 0 1 1-26.7-18.77c5.19-7.38 18.6-9.94 49.74-14l-23.04 32.77zm5.76 3.26a16.32 16.32 0 0 0 29.42 14.14c3.9-8.12-.4-21.08-12.06-50.24l-17.36 36.1z" fill="#FFF"/><circle cx="388.4" cy="983.27" r="9.18"/></svg>
