<svg xmlns="http://www.w3.org/2000/svg" viewBox="0 0 1586 855"><path fill="#fff" d="M.15 694.63h276.62v4H.15Zm1309.07 0h276.63v4h-276.63Z"/><path d="M276.77 696.63v-545.2a35.44 35.44 0 0 1 35.45-35.44h882.27a35.44 35.44 0 0 1 35.44 35.44v545.2Zm986.31 33.07a37.9 37.9 0 0 1-37.9 37.91H281.54a37.9 37.9 0 0 1-37.9-37.9Z"/><path d="M245.66 732.06a2 2 0 0 1-1.42-3.4l35.1-35.24a2 2 0 0 1 2.83 2.82l-35.1 35.23a2 2 0 0 1-1.41.6Z"/><path fill="#ffd829" d="M312.97 155.62h880.77V660H312.97Z"/><path fill="#fff" d="M312.97 199.38h880.77v4H312.97Z"/><path d="M1101.5 191.31a14.06 14.06 0 0 1 .01-28.1 14.06 14.06 0 0 1 0 28.1Zm0-24.1a10.06 10.06 0 0 0 0 20.1 10.06 10.06 0 0 0 0-20.1Zm34.45 24.1a14.06 14.06 0 0 1 0-28.1 14.06 14.06 0 0 1 0 28.1Zm0-24.1a10.06 10.06 0 0 0 0 20.1 10.06 10.06 0 0 0 0-20.1Zm34.43 24.1a14.06 14.06 0 0 1 .01-28.1c7.74 0 14.05 6.3 14.05 14.05 0 7.75-6.3 14.05-14.06 14.05Zm0-24.1a10.06 10.06 0 0 0 0 20.1 10.06 10.06 0 0 0 0-20.1ZM753.36 434.56a258.75 258.75 0 0 1-119.06-29.04 260.43 260.43 0 0 1-89.83-77.41l-.86-1.18.86-1.18a260.42 260.42 0 0 1 89.83-77.42 258.78 258.78 0 0 1 119.06-29.03c41.4 0 82.57 10.04 119.05 29.03a260.41 260.41 0 0 1 89.84 77.42l.85 1.18-.86 1.18a260.4 260.4 0 0 1-89.83 77.41 258.78 258.78 0 0 1-119.05 29.04Zm-204.8-107.63a256.45 256.45 0 0 0 87.59 75.05 254.75 254.75 0 0 0 117.2 28.58c40.77 0 81.3-9.88 117.21-28.58a256.44 256.44 0 0 0 87.59-75.05 256.43 256.43 0 0 0-87.59-75.05 254.75 254.75 0 0 0-117.2-28.58c-40.77 0-81.3 9.88-117.21 28.58a256.43 256.43 0 0 0-87.59 75.05Z"/><path fill="#fff" d="M818.05 423.96a111.31 111.31 0 0 0 46.77-90.77c0-61.56-49.9-111.46-111.46-111.46-61.56 0-111.46 49.9-111.46 111.46 0 37.44 18.46 70.56 46.76 90.77L597.9 660h310.91Z"/><path d="M818.05 423.96a111.31 111.31 0 0 0 46.77-90.77c0-53.5-37.7-98.18-87.97-108.97L659.07 392.63l-5.23 7.48s-15.06 19.98 0 29.7a1393.5 1393.5 0 0 0 26.34 16.23c25.2 15.27 57.25 34.36 57.25 34.36l-12.1 29.7s-7.35 18.7 13.2 30.8l15.46 9.58-16.5 21.63s-6.62 8.69 2.67 22.77l14.66 23.47 2.2 41.65h151.8ZM1397.9 25.8l1.98 3.48-144.83 82.42-1.98-3.48Zm-137.32 102.13h65.91v4h-65.9Zm90.54 0h56.65v4h-56.65ZM1273.42.72l3.73 1.45-37.92 97.5-3.73-1.45Zm-14.48 152.6 98.87 34.22-1.31 3.78-98.86-34.22Zm-47.09-111.56 5.57 53.71-3.98.42-5.57-53.71Z"/><path fill="#ffd829" d="M1309.22 788.1c56.23 0 101.8-45.58 101.8-101.8s-45.57-101.8-101.8-101.8m0 47.5a54.29 54.29 0 1 1 0 108.59"/><path d="M1309.22 790.1v-4c55.03 0 99.8-44.78 99.8-99.8 0-55.03-44.77-99.8-99.8-99.8v-4c57.24 0 103.8 46.57 103.8 103.8s-46.56 103.8-103.8 103.8Zm0-47.51v-4a52.35 52.35 0 0 0 52.3-52.3 52.35 52.35 0 0 0-52.3-52.28v-4a56.36 56.36 0 0 1 56.3 56.29 56.36 56.36 0 0 1-56.3 56.29Z"/><path fill="#ffd829" d="M1309.23 539.58c0 43.71-58.29 79.15-130.19 79.15s-130.19-35.44-130.19-79.15c0-43.72 58.29-79.16 130.19-79.16s130.19 35.44 130.19 79.16Z"/><path d="M1179.04 620.73c-35.13 0-68.2-8.34-93.1-23.48-25.2-15.32-39.09-35.8-39.09-57.67 0-21.87 13.89-42.36 39.1-57.68 24.9-15.14 57.95-23.48 93.09-23.48 35.13 0 68.2 8.34 93.1 23.48 25.2 15.32 39.08 35.8 39.08 57.68 0 21.86-13.88 42.35-39.09 57.67-24.9 15.14-57.96 23.48-93.09 23.48Zm0-158.3c-70.68 0-128.19 34.6-128.19 77.15 0 42.54 57.5 77.15 128.19 77.15 70.68 0 128.18-34.61 128.18-77.15 0-42.55-57.5-77.16-128.18-77.16Z"/><path fill="#fff" d="M1287.62 590.94c0 39.55-48.61 71.6-108.58 71.6s-108.58-32.05-108.58-71.6 48.61-71.6 108.58-71.6 108.58 32.05 108.58 71.6Z"/><path fill="#ffd829" d="M1179.04 618.73c-71.9 0-130.19-35.44-130.19-79.15v312.99h260.37v-313c0 43.72-58.28 79.16-130.18 79.16Z"/><path d="M1311.22 854.56h-264.37V539.58h4c0 42.54 57.5 77.15 128.2 77.15 70.67 0 128.18-34.61 128.18-77.15h4v314.98Zm-260.37-4h256.38V559.58c-5.8 14.18-17.78 27.14-35.1 37.67-24.9 15.14-57.96 23.48-93.09 23.48s-68.2-8.34-93.1-23.48c-17.32-10.53-29.29-23.5-35.09-37.67v290.98Z"/><path fill="#ffd829" d="m1179.04 643.04-67.3 27.14v79.18c5.28 47.5 67.3 59.57 67.3 59.57s62.02-12.06 67.3-59.57v-79.18Z"/><path fill="#fff" d="m1179.04 810.97-.38-.07c-.65-.13-16-3.18-32.26-12.19-21.74-12.04-34.42-29.03-36.65-49.13l-.01-.22v-80.53l69.3-27.95 69.3 27.95-.01 80.75c-2.24 20.1-14.9 37.09-36.65 49.13a121.58 121.58 0 0 1-32.26 12.19Zm-65.3-61.72c2.14 18.97 13.79 34.43 34.6 45.96a120.58 120.58 0 0 0 30.7 11.68c5.15-1.12 60.38-14.16 65.3-57.64v-77.72l-65.3-26.34-65.3 26.34Z"/><path d="M1136.34 696.83h33v37.65c0 7-1.67 12.33-5 16-3.34 3.66-8.14 5.5-14.42 5.5a27.2 27.2 0 0 1-12.53-3.09 8.43 8.43 0 0 1-2.13-1.58l3-5.5c.61.4 1.3.8 2.04 1.25.75.45 1.58.88 2.5 1.3a16.36 16.36 0 0 0 6.96 1.46c4.16-.01 7.31-1.31 9.45-3.93 2.14-2.6 3.2-6.83 3.2-12.66V703h-26.07Zm54.4 50.07c1.67.89 3.54 1.62 5.63 2.2a23.69 23.69 0 0 0 11.45.33c1.61-.35 3.01-.94 4.2-1.74a8.97 8.97 0 0 0 2.84-3.04 8.63 8.63 0 0 0 1.04-4.33c0-2.28-.76-4.14-2.29-5.59a22.86 22.86 0 0 0-5.7-3.83c-2.28-1.1-4.76-2.2-7.42-3.25a43.97 43.97 0 0 1-7.41-3.75 20.79 20.79 0 0 1-5.71-5.29c-1.53-2.08-2.3-4.73-2.3-7.95 0-2.28.47-4.33 1.38-6.17a13.29 13.29 0 0 1 3.88-4.66 18.3 18.3 0 0 1 6.04-2.96c2.36-.7 4.98-1.04 7.87-1.04 3.33 0 6.36.24 9.08.7a25.4 25.4 0 0 1 6.5 1.88l.16-.08v.16h.09l-.09.26v13.32h-6.16v-8.9a45.18 45.18 0 0 0-4.58-.84 40.45 40.45 0 0 0-5.34-.34c-1.83 0-3.48.23-4.95.67a12.36 12.36 0 0 0-3.75 1.8 8.12 8.12 0 0 0-2.37 2.62 7.14 7.14 0 0 0 1.46 8.58 23.57 23.57 0 0 0 5.7 3.87c2.28 1.14 4.75 2.26 7.41 3.38a46.8 46.8 0 0 1 7.42 3.87 21.78 21.78 0 0 1 5.7 5.29c1.53 2.05 2.3 4.6 2.3 7.66a16 16 0 0 1-1.38 6.75c-.91 2-2.22 3.72-3.91 5.16a17.67 17.67 0 0 1-6.25 3.34 27.87 27.87 0 0 1-8.37 1.16 33.8 33.8 0 0 1-6-.5 40.86 40.86 0 0 1-12.41-4.24l.08-.25v-13.5h6.16Z"/><path fill="#fff" d="M1179.04 681.99a2 2 0 0 1-2-2v-36.95a2 2 0 0 1 4 0v36.95a2 2 0 0 1-2 2Zm0 128.94a2 2 0 0 1-2-2V772a2 2 0 0 1 4 0v36.94a2 2 0 0 1-2 2Zm-760.76-464.6H164.12c-13.6 0-24.65-5.61-30.3-15.4-5.65-9.78-4.99-22.15 1.81-33.93l127.1-220.1c6.8-11.78 17.18-18.54 28.48-18.54s21.68 6.76 28.48 18.54L446.76 297c6.8 11.78 7.46 24.15 1.81 33.93-5.65 9.79-16.69 15.4-30.29 15.4Z"/><path fill="#ffd829" d="M368.32 222.18 293.24 92.15a13.38 13.38 0 0 0-2.04-2.78c-.53.53-1.26 1.41-2.05 2.78L162.07 312.26a13.4 13.4 0 0 0-1.38 3.16c.72.2 1.85.38 3.43.38h254.16c1.58 0 2.7-.18 3.43-.38-.2-.72-.6-1.79-1.38-3.16Z"/><path d="M279.37 274.18c0-3.67 1.05-6.56 3.16-8.67 2.1-2.1 4.93-3.16 8.46-3.16 3.68 0 6.6 1.06 8.77 3.16 2.18 2.11 3.27 5 3.27 8.67 0 3.54-1.1 6.4-3.26 8.57-2.18 2.17-5.1 3.26-8.78 3.26-3.53 0-6.36-1.09-8.46-3.26-2.11-2.18-3.16-5.03-3.16-8.57Zm3.47-133.4h16.93v70.78l-3.47 35.9h-10l-3.46-35.9Z"/></svg>