<?xml version="1.0" encoding="utf-8"?>
<!-- Generator: Adobe Illustrator 16.0.0, SVG Export Plug-In . SVG Version: 6.00 Build 0)  -->
<!DOCTYPE svg PUBLIC "-//W3C//DTD SVG 1.1//EN" "http://www.w3.org/Graphics/SVG/1.1/DTD/svg11.dtd">
<svg version="1.1" id="Layer_1" xmlns="http://www.w3.org/2000/svg" xmlns:xlink="http://www.w3.org/1999/xlink" x="0px" y="0px"
	 width="1920px" height="1080px" viewBox="0 0 1920 1080" enable-background="new 0 0 1920 1080" xml:space="preserve">
<g id="big_1_">
	<g>
		<rect x="167.151" y="807.63" fill="#FFFFFF" width="276.624" height="4"/>
	</g>
	<g>
		<rect x="1476.225" y="807.63" fill="#FFFFFF" width="276.624" height="4"/>
	</g>
	<g id="laptop_2_">
		<g id="Komp_2_">
			<g>
				<g>
					<path d="M443.775,809.63V264.428c0-19.574,15.868-35.441,35.442-35.441h882.275c19.575,0,35.442,15.867,35.442,35.441V809.63
						H443.775z"/>
				</g>
				<g>
					<path d="M1430.082,842.703c0,20.934-16.973,37.907-37.906,37.907H448.537c-20.934,0-37.905-16.974-37.905-37.909
						L1430.082,842.703z"/>
				</g>
				<g>
					<path d="M412.656,845.062c-0.511,0-1.021-0.194-1.412-0.583c-0.782-0.779-0.785-2.046-0.005-2.828l35.1-35.229
						c0.78-0.783,2.046-0.785,2.829-0.006c0.782,0.779,0.785,2.046,0.005,2.828l-35.1,35.229
						C413.682,844.866,413.169,845.062,412.656,845.062z"/>
				</g>
			</g>
			<g>
				<rect x="479.972" y="268.621" fill="#FFD829" width="880.77" height="504.383"/>
			</g>
			<g>
				<rect x="479.972" y="312.375" fill="#FFFFFF" width="880.77" height="4"/>
			</g>
			<g>
				<g>
					<path d="M1268.507,304.31c-7.747,0-14.05-6.302-14.05-14.049s6.303-14.049,14.05-14.049c7.746,0,14.048,6.302,14.048,14.049
						S1276.253,304.31,1268.507,304.31z M1268.507,280.212c-5.541,0-10.05,4.508-10.05,10.049s4.509,10.049,10.05,10.049
						c5.54,0,10.048-4.508,10.048-10.049S1274.047,280.212,1268.507,280.212z"/>
				</g>
				<g>
					<path d="M1302.946,304.31c-7.747,0-14.05-6.302-14.05-14.049s6.303-14.049,14.05-14.049c7.746,0,14.049,6.302,14.049,14.049
						S1310.692,304.31,1302.946,304.31z M1302.946,280.212c-5.541,0-10.05,4.508-10.05,10.049s4.509,10.049,10.05,10.049
						s10.049-4.508,10.049-10.049S1308.487,280.212,1302.946,280.212z"/>
				</g>
				<g>
					<path d="M1337.385,304.31c-7.746,0-14.048-6.302-14.048-14.049s6.302-14.049,14.048-14.049c7.748,0,14.051,6.302,14.051,14.049
						S1345.133,304.31,1337.385,304.31z M1337.385,280.212c-5.54,0-10.048,4.508-10.048,10.049s4.508,10.049,10.048,10.049
						c5.542,0,10.051-4.508,10.051-10.049S1342.927,280.212,1337.385,280.212z"/>
				</g>
			</g>
		</g>
		<g id="eye_2_">
			<g>
				<path d="M920.355,547.559c-41.407,0-82.575-10.041-119.053-29.036c-35.302-18.383-66.367-45.154-89.835-77.418l-0.856-1.176
					l0.856-1.176c23.468-32.265,54.533-59.036,89.835-77.419c36.478-18.995,77.645-29.036,119.053-29.036
					c41.408,0,82.577,10.041,119.055,29.036c35.303,18.383,66.367,45.154,89.835,77.419l0.855,1.176l-0.855,1.176
					c-23.468,32.265-54.532,59.035-89.835,77.418C1002.933,537.518,961.764,547.559,920.355,547.559z M715.563,439.928
					c23.003,31.24,53.261,57.172,87.586,75.047c35.91,18.7,76.439,28.584,117.206,28.584c40.768,0,81.298-9.884,117.207-28.584
					c34.326-17.875,64.585-43.807,87.587-75.047c-23.002-31.241-53.261-57.172-87.587-75.047
					c-35.909-18.7-76.439-28.583-117.207-28.583c-40.767,0-81.296,9.884-117.206,28.583
					C768.824,382.755,738.566,408.687,715.563,439.928z"/>
			</g>
			<g>
				<path fill="#FFFFFF" d="M985.047,536.963c28.312-20.213,46.77-53.335,46.77-90.771c0-61.558-49.902-111.461-111.461-111.461
					c-61.556,0-111.458,49.903-111.458,111.461c0,37.437,18.457,70.559,46.767,90.771L764.9,773.004h155.455h155.458
					L985.047,536.963z"/>
			</g>
			<g>
				<path d="M985.047,536.963c28.312-20.213,46.77-53.335,46.77-90.771c0-53.496-37.69-98.182-87.963-108.972L826.065,505.63
					l-5.229,7.478c0,0-15.055,19.979,0,29.697c5.02,3.239,14.986,9.349,26.341,16.231c25.204,15.276,57.249,34.362,57.249,34.362
					l-12.099,29.695c0,0-7.351,18.701,13.198,30.799l15.46,9.592l-16.497,21.631c0,0-6.618,8.683,2.669,22.764l14.666,23.467
					l2.2,41.658h151.79L985.047,536.963z"/>
			</g>
		</g>
		<g id="light_2_">
			<g>
				
					<rect x="1491.493" y="98.454" transform="matrix(0.4946 0.8691 -0.8691 0.4946 912.7717 -1206.149)" width="4" height="166.636"/>
			</g>
			<g>
				<rect x="1427.581" y="240.929" width="65.912" height="4"/>
			</g>
			<g>
				<rect x="1518.122" y="240.929" width="56.645" height="4"/>
			</g>
			<g>
				
					<rect x="1421.306" y="110.876" transform="matrix(0.932 0.3625 -0.3625 0.932 155.9572 -504.8404)" width="4.001" height="104.615"/>
			</g>
			<g>
				
					<rect x="1422.429" y="283.261" transform="matrix(0.945 0.3271 -0.3271 0.945 174.4041 -466.6411)" width="104.616" height="4"/>
			</g>
			<g>
				
					<rect x="1352.698" y="179.773" transform="matrix(0.1032 0.9947 -0.9947 0.1032 1418.0701 -1209.3171)" width="53.997" height="4"/>
			</g>
		</g>
	</g>
	<g id="cup_2_">
		<g>
			<path fill="#FFD829" d="M1476.225,901.093c56.221,0,101.796-45.576,101.796-101.796c0-56.221-45.575-101.794-101.796-101.794
				 M1476.225,745.007c29.986,0,54.292,24.307,54.292,54.29c0,29.984-24.306,54.291-54.292,54.291"/>
			<path d="M1476.225,903.093v-4c55.027,0,99.796-44.769,99.796-99.796c0-55.026-44.769-99.794-99.796-99.794v-4
				c57.233,0,103.796,46.562,103.796,103.794C1580.021,856.53,1533.458,903.093,1476.225,903.093z M1476.225,855.588v-4
				c28.834,0,52.292-23.458,52.292-52.291s-23.458-52.29-52.292-52.29v-4c31.039,0,56.292,25.252,56.292,56.29
				C1532.517,830.336,1507.264,855.588,1476.225,855.588z"/>
		</g>
		<g>
			<g>
				<ellipse fill="#FFD829" cx="1346.04" cy="652.576" rx="130.187" ry="79.153"/>
				<path d="M1346.04,733.729c-35.135,0-68.196-8.337-93.095-23.474c-25.209-15.327-39.092-35.811-39.092-57.678
					c0-21.868,13.883-42.353,39.092-57.68c24.897-15.138,57.96-23.475,93.095-23.475s68.196,8.337,93.094,23.475
					c25.208,15.327,39.091,35.812,39.091,57.68c0,21.867-13.883,42.351-39.091,57.678
					C1414.236,725.392,1381.175,733.729,1346.04,733.729z M1346.04,575.423c-70.683,0-128.187,34.611-128.187,77.154
					c0,42.541,57.504,77.151,128.187,77.151c70.682,0,128.185-34.61,128.185-77.151
					C1474.225,610.034,1416.722,575.423,1346.04,575.423z"/>
			</g>
			<g>
				<ellipse fill="#FFFFFF" cx="1346.039" cy="703.939" rx="108.583" ry="71.606"/>
			</g>
			<g>
				<path fill="#FFD829" d="M1346.04,731.729c-71.899,0-130.187-35.438-130.187-79.151v312.987h260.371V652.577
					C1476.225,696.291,1417.939,731.729,1346.04,731.729z"/>
				<path d="M1478.225,967.564h-264.371V652.577h4c0,42.541,57.504,77.151,128.187,77.151c70.682,0,128.185-34.61,128.185-77.151h4
					V967.564z M1217.854,963.564h256.371v-290.98c-5.798,14.175-17.771,27.14-35.091,37.671
					c-24.897,15.137-57.959,23.474-93.094,23.474s-68.196-8.337-93.095-23.474c-17.32-10.531-29.294-23.496-35.092-37.672V963.564z"
					/>
			</g>
		</g>
		<g>
			<path fill="#FFD829" d="M1346.04,756.036l-67.301,27.147v79.18c5.279,47.504,67.301,59.571,67.301,59.571
				s62.021-12.067,67.299-59.571v-79.18L1346.04,756.036z"/>
			<path fill="#FFFFFF" d="M1346.04,923.972l-0.382-0.074c-0.646-0.125-16.003-3.181-32.258-12.186
				c-21.742-12.044-34.416-29.032-36.648-49.128l-0.013-0.221v-80.529l69.301-27.954l69.299,27.954l-0.013,80.75
				c-2.232,20.096-14.905,37.084-36.646,49.128c-16.255,9.005-31.612,12.061-32.258,12.186L1346.04,923.972z M1280.739,862.252
				c2.146,18.97,13.786,34.432,34.6,45.961c14.317,7.932,28.234,11.149,30.699,11.679c5.152-1.121,60.38-14.159,65.301-57.641
				v-77.718l-65.299-26.341l-65.301,26.341V862.252z"/>
		</g>
		<g>
			<g>
				<path d="M1303.343,809.828h32.992v37.654c0,6.999-1.666,12.33-4.998,15.995c-3.334,3.665-8.138,5.499-14.414,5.499
					c-1.611,0-3.194-0.141-4.748-0.416c-1.556-0.279-3-0.652-4.331-1.125c-1.333-0.471-2.485-0.986-3.458-1.541
					c-0.974-0.555-1.683-1.084-2.124-1.584l2.998-5.496c0.611,0.387,1.292,0.805,2.041,1.248c0.75,0.445,1.582,0.873,2.5,1.291
					c0.916,0.417,1.944,0.765,3.083,1.041c1.137,0.278,2.428,0.416,3.872,0.416c4.166,0,7.316-1.303,9.457-3.916
					c2.136-2.608,3.206-6.83,3.206-12.66v-30.242h-26.076V809.828z"/>
			</g>
			<g>
				<path d="M1357.743,859.895c1.667,0.892,3.541,1.625,5.624,2.209c2.082,0.583,4.176,0.875,6.288,0.875
					c1.834,0,3.555-0.182,5.165-0.541c1.612-0.361,3.013-0.944,4.209-1.751c1.192-0.804,2.137-1.817,2.831-3.04
					s1.043-2.666,1.043-4.332c0-2.278-0.764-4.137-2.291-5.582c-1.529-1.443-3.43-2.72-5.706-3.832
					c-2.278-1.109-4.751-2.193-7.415-3.25c-2.667-1.055-5.14-2.303-7.416-3.748c-2.278-1.443-4.178-3.208-5.705-5.29
					c-1.528-2.081-2.293-4.735-2.293-7.955c0-2.277,0.46-4.333,1.377-6.165c0.916-1.833,2.207-3.389,3.873-4.665
					c1.667-1.278,3.68-2.264,6.04-2.958c2.359-0.694,4.984-1.041,7.871-1.041c3.333,0,6.359,0.236,9.082,0.709
					c2.72,0.472,4.888,1.097,6.499,1.873l0.165-0.082v0.165h0.081l-0.081,0.252v13.328h-6.165v-8.913
					c-1.389-0.335-2.915-0.611-4.581-0.834c-1.667-0.222-3.446-0.335-5.333-0.335c-1.832,0-3.486,0.224-4.956,0.668
					c-1.472,0.445-2.722,1.041-3.748,1.791c-1.028,0.749-1.82,1.624-2.374,2.624c-0.559,1-0.833,2.056-0.833,3.167
					c0,2.164,0.761,3.97,2.29,5.415c1.525,1.443,3.43,2.735,5.705,3.872c2.277,1.14,4.749,2.265,7.416,3.376
					c2.665,1.109,5.137,2.401,7.415,3.871c2.275,1.473,4.177,3.237,5.705,5.291c1.527,2.055,2.292,4.61,2.292,7.665
					c0,2.5-0.458,4.749-1.375,6.748c-0.917,2.001-2.222,3.72-3.916,5.165c-1.693,1.443-3.777,2.555-6.249,3.332
					s-5.262,1.167-8.371,1.167c-2.111,0-4.11-0.167-5.996-0.5c-1.891-0.334-3.625-0.749-5.209-1.25
					c-1.583-0.502-2.999-1.027-4.248-1.583c-1.251-0.556-2.236-1.027-2.956-1.415l0.082-0.251v-13.498h6.164V859.895z"/>
			</g>
		</g>
		<g>
			<path fill="#FFFFFF" d="M1346.04,794.987c-1.104,0-2-0.896-2-2v-36.951c0-1.104,0.896-2,2-2s2,0.896,2,2v36.951
				C1348.04,794.092,1347.145,794.987,1346.04,794.987z"/>
		</g>
		<g>
			<path fill="#FFFFFF" d="M1346.04,923.935c-1.104,0-2-0.896-2-2v-36.95c0-1.104,0.896-2,2-2s2,0.896,2,2v36.95
				C1348.04,923.039,1347.145,923.935,1346.04,923.935z"/>
		</g>
	</g>
	<g id="_x21__2_">
		<g>
			<path fill="#FFFFFF" d="M585.281,459.33H331.115c-13.602,0-24.644-5.613-30.292-15.396c-5.65-9.787-4.989-22.154,1.812-33.933
				L429.72,189.887c6.8-11.779,17.181-18.536,28.479-18.536s21.679,6.757,28.479,18.536l127.084,220.114
				c6.8,11.778,7.461,24.146,1.812,33.933C609.924,453.717,598.883,459.33,585.281,459.33z"/>
		</g>
		<g>
			<g>
				<path fill="#FFD829" d="M535.316,335.178l-75.073-130.03c-0.79-1.367-1.516-2.25-2.045-2.777
					c-0.53,0.527-1.255,1.41-2.046,2.777L329.07,425.263c-0.79,1.367-1.191,2.438-1.384,3.159c0.722,0.197,1.85,0.383,3.429,0.383
					h254.166c1.579,0,2.706-0.186,3.428-0.383c-0.191-0.721-0.594-1.792-1.383-3.159L535.316,335.178"/>
			</g>
		</g>
		<g>
			<g>
				<path d="M446.366,387.183c0-3.673,1.054-6.562,3.162-8.671c2.106-2.105,4.928-3.162,8.466-3.162
					c3.672,0,6.594,1.057,8.771,3.162c2.173,2.108,3.263,4.998,3.263,8.671c0,3.536-1.09,6.392-3.263,8.565
					c-2.178,2.174-5.1,3.264-8.771,3.264c-3.538,0-6.359-1.09-8.466-3.264C447.42,393.574,446.366,390.719,446.366,387.183z
					 M449.836,253.779h16.93v70.78l-3.469,35.901h-9.994l-3.467-35.901V253.779z"/>
			</g>
		</g>
	</g>
</g>
</svg>
