<?xml version="1.0" encoding="utf-8"?>
<!-- Generator: Adobe Illustrator 16.0.0, SVG Export Plug-In . SVG Version: 6.00 Build 0)  -->
<!DOCTYPE svg PUBLIC "-//W3C//DTD SVG 1.1//EN" "http://www.w3.org/Graphics/SVG/1.1/DTD/svg11.dtd">
<svg version="1.1" id="Layer_1" xmlns="http://www.w3.org/2000/svg" xmlns:xlink="http://www.w3.org/1999/xlink" x="0px" y="0px"
	 width="1080px" height="1080px" viewBox="0 0 1080 1080" enable-background="new 0 0 1080 1080" xml:space="preserve">
<g id="square_1_">
	<g id="laptop_3_">
		<g id="Komp_3_">
			<g>
				<g>
					<path d="M168.247,748.688V352.58c0-14.223,11.529-25.75,25.75-25.75h641.004c14.221,0,25.749,11.527,25.749,25.75v396.107
						H168.247L168.247,748.688z"/>
				</g>
				<g>
					<path d="M884.832,772.715c0,15.211-12.331,27.541-27.54,27.541H171.707c-15.209,0-27.54-12.33-27.54-27.541H884.832z"/>
					<path d="M857.292,802.256H171.707c-16.288,0-29.54-13.252-29.54-29.541v-2h744.665v2
						C886.832,789.004,873.58,802.256,857.292,802.256z M146.244,774.715c1.024,13.152,12.053,23.541,25.463,23.541h685.585
						c13.41,0,24.438-10.389,25.463-23.541H146.244z"/>
				</g>
				<g>
					<line fill="none" x1="144.167" y1="772.715" x2="168.247" y2="748.688"/>
					<polygon points="169.692,744.452 172.519,747.284 144.993,773.547 142.167,770.715 					"/>
				</g>
				<g>
					<line fill="none" x1="884.83" y1="772.609" x2="857.965" y2="746.727"/>
					
						<rect x="852.799" y="757.69" transform="matrix(-0.7202 -0.6938 0.6938 -0.7202 971.9857 1911.4072)" width="37.306" height="4"/>
				</g>
			</g>
			<g>
				<rect x="194.545" y="355.627" fill="#FFD829" width="639.909" height="366.451"/>
			</g>
			<g>
				<rect x="194.545" y="386.867" fill="#FFFFFF" width="639.909" height="4"/>
			</g>
			<g>
				<g>
					<path d="M767.442,382.102c-5.931,0-10.755-4.824-10.755-10.754c0-5.93,4.824-10.754,10.755-10.754
						c5.93,0,10.754,4.824,10.754,10.754C778.196,377.278,773.372,382.102,767.442,382.102z M767.442,364.594
						c-3.725,0-6.755,3.03-6.755,6.754s3.03,6.754,6.755,6.754c3.724,0,6.754-3.03,6.754-6.754S771.166,364.594,767.442,364.594z"/>
				</g>
				<g>
					<path d="M792.463,382.102c-5.929,0-10.753-4.824-10.753-10.754c0-5.93,4.824-10.754,10.753-10.754
						c5.932,0,10.755,4.824,10.755,10.754C803.218,377.278,798.394,382.102,792.463,382.102z M792.463,364.594
						c-3.724,0-6.753,3.03-6.753,6.754s3.029,6.754,6.753,6.754c3.725,0,6.755-3.03,6.755-6.754S796.188,364.594,792.463,364.594z"
						/>
				</g>
				<g>
					<path d="M817.484,382.102c-5.93,0-10.753-4.824-10.753-10.754c0-5.93,4.823-10.754,10.753-10.754
						c5.931,0,10.756,4.824,10.756,10.754C828.24,377.278,823.415,382.102,817.484,382.102z M817.484,364.594
						c-3.725,0-6.754,3.03-6.754,6.754s3.029,6.754,6.754,6.754c3.726,0,6.756-3.03,6.756-6.754S821.21,364.594,817.484,364.594z"/>
				</g>
			</g>
		</g>
		<g id="eye_3_">
			<g>
				<path d="M514.499,558.83c-30.172,0-60.169-7.316-86.749-21.157c-25.723-13.395-48.358-32.9-65.458-56.411l-0.854-1.176
					l0.854-1.176c17.1-23.509,39.735-43.016,65.458-56.411c26.58-13.841,56.577-21.157,86.749-21.157
					c30.173,0,60.17,7.316,86.75,21.157c25.724,13.395,48.358,32.901,65.457,56.411l0.854,1.176l-0.854,1.176
					c-17.099,23.51-39.733,43.017-65.457,56.411C574.669,551.514,544.672,558.83,514.499,558.83z M366.39,480.086
					c16.635,22.486,38.461,41.153,63.208,54.04c26.013,13.545,55.37,20.705,84.901,20.705c29.532,0,58.891-7.159,84.902-20.705
					c24.748-12.887,46.573-31.553,63.207-54.04c-16.634-22.486-38.459-41.153-63.207-54.04
					c-26.013-13.545-55.37-20.705-84.902-20.705c-29.531,0-58.89,7.16-84.901,20.705C404.851,438.933,383.023,457.6,366.39,480.086z
					"/>
			</g>
			<g>
				<path fill="#FFFFFF" d="M561.252,551.495c20.461-14.608,33.8-38.545,33.8-65.602c0-44.487-36.065-80.553-80.553-80.553
					s-80.553,36.067-80.553,80.553c0,27.056,13.339,50.995,33.799,65.602L402.15,722.084h112.349H626.85L561.252,551.495z"/>
			</g>
			<g>
				<path d="M561.252,551.495c20.461-14.608,33.8-38.545,33.8-65.602c0-38.659-27.239-70.956-63.571-78.753l-85.126,121.711
					l-3.779,5.403c0,0-10.881,14.439,0,21.462c3.626,2.342,10.832,6.756,19.038,11.729c18.215,11.041,41.373,24.835,41.373,24.835
					l-8.744,21.461c0,0-5.313,13.517,9.538,22.259l11.173,6.933l-11.922,15.634c0,0-4.783,6.274,1.929,16.45l10.599,16.959
					l1.591,31.273h109.7L561.252,551.495z"/>
			</g>
		</g>
	</g>
	<g id="light_3_">
		<g>
			
				<rect x="892.144" y="145.626" transform="matrix(-0.9546 -0.2979 0.2979 -0.9546 1679.5092 713.8252)" width="4" height="166.636"/>
		</g>
		<g>
			<rect x="805.47" y="269.185" transform="matrix(-0.2134 -0.977 0.977 -0.2134 752.4127 1148.1694)" width="65.914" height="4"/>
		</g>
		<g>
			<rect x="791.772" y="185.258" transform="matrix(-0.2134 -0.977 0.977 -0.2134 812.1624 1028.4242)" width="56.648" height="4"/>
		</g>
		<g>
			
				<rect x="923.277" y="242.173" transform="matrix(-0.5531 -0.8331 0.8331 -0.5531 1191.6733 1228.2268)" width="3.999" height="104.61"/>
		</g>
		<g>
			
				<rect x="740.897" y="266.429" transform="matrix(-0.5212 -0.8534 0.8534 -0.5212 977.5491 1085.278)" width="104.614" height="4"/>
		</g>
		<g>
			
				<rect x="879.686" y="383.136" transform="matrix(-0.8506 -0.5259 0.5259 -0.8506 1500.198 1196.5817)" width="80.856" height="4"/>
		</g>
		<g>
			
				<rect x="913.403" y="313.086" transform="matrix(-0.1114 -0.9938 0.9938 -0.1114 679.3684 1287.6643)" width="3.999" height="53.998"/>
		</g>
	</g>
</g>
<g id="cup_3_">
	<g>
		<path fill="#FFD829" d="M918.876,860.053c44.437,0,80.46-36.022,80.46-80.459c0-44.438-36.023-80.459-80.46-80.459
			 M918.876,736.683c23.701,0,42.913,19.212,42.913,42.911s-19.212,42.911-42.913,42.911"/>
		<path d="M918.876,862.053v-4c43.263,0,78.46-35.195,78.46-78.459c0-43.263-35.197-78.459-78.46-78.459v-4
			c45.469,0,82.46,36.991,82.46,82.459S964.345,862.053,918.876,862.053z M918.876,824.505v-4c22.56,0,40.913-18.353,40.913-40.911
			c0-22.558-18.354-40.911-40.913-40.911v-4c24.766,0,44.913,20.147,44.913,44.911C963.789,804.358,943.643,824.505,918.876,824.505
			z"/>
	</g>
	<g>
		<g>
			<ellipse fill="#FFD829" cx="815.979" cy="663.625" rx="102.898" ry="62.562"/>
			<path d="M815.979,728.188c-57.843,0-104.899-28.962-104.899-64.562c0-35.601,47.058-64.564,104.899-64.564
				c57.841,0,104.897,28.965,104.897,64.564S873.818,728.188,815.979,728.188z M815.979,603.062
				c-55.637,0-100.899,27.169-100.899,60.563c0,33.394,45.264,60.562,100.899,60.562c55.635,0,100.897-27.169,100.897-60.562
				C916.876,630.23,871.613,603.062,815.979,603.062z"/>
		</g>
		<g>
			<ellipse fill="#FFFFFF" cx="815.977" cy="704.223" rx="85.824" ry="56.598"/>
		</g>
		<g>
			<path fill="#FFD829" d="M815.979,726.188c-56.829,0-102.899-28.01-102.899-62.562v247.386h205.798V663.626
				C918.876,698.178,872.808,726.188,815.979,726.188z"/>
			<path d="M920.876,913.012H711.078V663.626h4c0,33.394,45.264,60.562,100.898,60.562c55.636,0,100.898-27.168,100.898-60.562h4
				L920.876,913.012L920.876,913.012z M715.078,909.012h201.798V681.311c-12.524,27.029-53.017,46.877-100.897,46.877
				c-47.884,0-88.376-19.848-100.899-46.877L715.078,909.012L715.078,909.012z"/>
		</g>
	</g>
	<g>
		<path fill="#FFD829" d="M815.979,745.4l-53.194,21.457v62.584c4.173,37.547,53.194,47.085,53.194,47.085
			s49.021-9.538,53.192-47.085v-62.584L815.979,745.4z"/>
		<path fill="#FFFFFF" d="M815.979,878.562l-0.383-0.073c-0.505-0.099-50.515-10.266-54.8-48.827l-0.013-0.221v-63.935
			l55.193-22.264l55.193,22.264l-0.013,64.154c-4.284,38.562-54.294,48.729-54.799,48.827L815.979,878.562z M764.783,829.329
			c3.854,33.869,46.67,44.161,51.193,45.153c4.52-0.995,47.345-11.324,51.193-45.153v-61.122l-51.193-20.65l-51.193,20.65V829.329
			L764.783,829.329z"/>
	</g>
	<g>
		<g>
			<path d="M782.229,787.917h26.077v29.763c0,5.531-1.315,9.745-3.949,12.644c-2.637,2.896-6.434,4.346-11.394,4.346
				c-1.273,0-2.525-0.11-3.753-0.328c-1.229-0.221-2.371-0.516-3.424-0.89c-1.054-0.372-1.964-0.779-2.732-1.218
				c-0.77-0.438-1.33-0.856-1.68-1.253l2.37-4.344c0.482,0.306,1.021,0.637,1.613,0.986c0.593,0.352,1.25,0.689,1.976,1.021
				c0.725,0.329,1.537,0.604,2.438,0.822c0.897,0.22,1.918,0.329,3.061,0.329c3.292,0,5.782-1.03,7.475-3.096
				c1.688-2.062,2.534-5.398,2.534-10.006v-23.904h-20.611L782.229,787.917L782.229,787.917z"/>
		</g>
		<g>
			<path d="M825.229,827.49c1.317,0.704,2.8,1.284,4.445,1.746c1.646,0.46,3.3,0.69,4.971,0.69c1.448,0,2.81-0.144,4.081-0.428
				c1.274-0.286,2.382-0.746,3.327-1.384c0.942-0.637,1.688-1.438,2.237-2.403s0.825-2.106,0.825-3.424
				c0-1.801-0.604-3.271-1.812-4.412c-1.209-1.141-2.711-2.149-4.51-3.029c-1.801-0.876-3.755-1.732-5.861-2.567
				c-2.106-0.834-4.062-1.82-5.86-2.963c-1.802-1.142-3.303-2.535-4.509-4.182c-1.209-1.646-1.812-3.743-1.812-6.288
				c0-1.8,0.363-3.425,1.088-4.873c0.725-1.447,1.744-2.678,3.062-3.687c1.316-1.011,2.907-1.79,4.773-2.339
				c1.864-0.55,3.939-0.822,6.221-0.822c2.636,0,5.026,0.187,7.18,0.561c2.148,0.373,3.863,0.866,5.137,1.48l0.13-0.065v0.131h0.064
				l-0.064,0.199v10.534h-4.872v-7.045c-1.098-0.265-2.305-0.482-3.621-0.659c-1.316-0.175-2.724-0.265-4.216-0.265
				c-1.446,0-2.755,0.177-3.917,0.527c-1.163,0.353-2.15,0.822-2.962,1.415c-0.812,0.594-1.438,1.284-1.877,2.074
				c-0.44,0.791-0.658,1.625-0.658,2.504c0,1.71,0.603,3.138,1.812,4.279c1.205,1.141,2.71,2.162,4.509,3.061
				c1.8,0.901,3.754,1.79,5.86,2.669c2.106,0.878,4.062,1.897,5.861,3.061c1.798,1.164,3.303,2.559,4.51,4.182
				c1.206,1.624,1.812,3.646,1.812,6.06c0,1.977-0.362,3.754-1.088,5.334c-0.726,1.581-1.756,2.938-3.095,4.082
				c-1.34,1.141-2.985,2.02-4.939,2.634c-1.953,0.614-4.159,0.923-6.616,0.923c-1.669,0-3.249-0.133-4.739-0.396
				c-1.494-0.264-2.864-0.592-4.116-0.987c-1.251-0.396-2.37-0.812-3.358-1.251c-0.988-0.439-1.768-0.812-2.336-1.118l0.064-0.198
				v-10.669h4.873v7.31H825.229z"/>
		</g>
	</g>
	<g>
		<path fill="#FFFFFF" d="M815.979,776.606c-1.104,0-2-0.896-2-2V745.4c0-1.104,0.896-2,2-2c1.104,0,2,0.896,2,2v29.206
			C817.979,775.711,817.082,776.606,815.979,776.606z"/>
	</g>
	<g>
		<path fill="#FFFFFF" d="M815.979,878.526c-1.104,0-2-0.896-2-2v-29.205c0-1.104,0.896-2,2-2c1.104,0,2,0.896,2,2v29.205
			C817.979,877.631,817.082,878.526,815.979,878.526z"/>
	</g>
</g>
<g id="_x21__4_">
	<g>
		<path fill="#FFFFFF" d="M311.865,425.984H116.998c-10.429,0-18.895-4.305-23.225-11.806c-4.333-7.504-3.825-16.984,1.39-26.016
			l97.434-168.76c5.214-9.031,13.173-14.211,21.835-14.211c8.662,0,16.621,5.181,21.834,14.211l97.435,168.76
			c5.213,9.03,5.721,18.512,1.389,26.016C330.759,421.68,322.294,425.984,311.865,425.984z"/>
	</g>
	<g>
		<g>
			<path fill="#FFD829" d="M273.558,330.797l-57.559-99.693c-0.605-1.048-1.162-1.725-1.567-2.129
				c-0.407,0.404-0.962,1.081-1.568,2.129l-97.434,168.76c-0.605,1.048-0.913,1.869-1.061,2.422
				c0.553,0.151,1.418,0.294,2.629,0.294h194.867c1.21,0,2.075-0.143,2.628-0.294c-0.146-0.553-0.455-1.374-1.062-2.422
				L273.558,330.797"/>
		</g>
	</g>
	<g>
		<g>
			<path d="M205.36,370.669c0-2.816,0.808-5.032,2.424-6.648c1.615-1.614,3.778-2.424,6.49-2.424c2.815,0,5.056,0.81,6.726,2.424
				c1.666,1.616,2.501,3.832,2.501,6.648c0,2.711-0.835,4.9-2.501,6.567c-1.67,1.667-3.91,2.502-6.726,2.502
				c-2.712,0-4.875-0.835-6.49-2.502C206.168,375.569,205.36,373.38,205.36,370.669z M208.021,268.39H221v54.267l-2.659,27.525
				h-7.663l-2.657-27.525V268.39z"/>
		</g>
	</g>
</g>
</svg>
