<svg xmlns="http://www.w3.org/2000/svg" viewBox="0 0 912 766"><path d="M78.25 600.69V204.58A25.75 25.75 0 0 1 104 178.83h641a25.75 25.75 0 0 1 25.75 25.75v396.1H78.25Zm716.58 24.03a27.54 27.54 0 0 1-27.54 27.54H81.71a27.54 27.54 0 0 1-27.54-27.54Z"/><path d="M767.3 654.26H81.7a29.57 29.57 0 0 1-29.53-29.54v-2h744.66v2a29.57 29.57 0 0 1-29.54 29.54ZM56.23 626.72a25.58 25.58 0 0 0 25.47 23.54h685.58a25.58 25.58 0 0 0 25.47-23.54Z"/><path fill="none" d="m54.17 624.72 24.08-24.03"/><path d="m79.7 596.45 2.82 2.83-27.53 26.27-2.82-2.83Z"/><path fill="none" d="m794.83 624.6-26.87-25.87"/><path d="m793.49 626.05-26.87-25.89 2.77-2.88 26.87 25.89Z"/><path fill="#ffd829" d="M104.55 207.63h639.9v366.45h-639.9Z"/><path fill="#fff" d="M104.55 238.87h639.9v4h-639.9Z"/><path d="M677.44 234.1a10.77 10.77 0 0 1 0-21.5 10.77 10.77 0 0 1 0 21.5Zm0-17.5a6.76 6.76 0 1 0 .02 13.52 6.76 6.76 0 0 0-.02-13.53Zm25.02 17.5a10.77 10.77 0 0 1 0-21.5 10.77 10.77 0 0 1 0 21.5Zm0-17.5a6.76 6.76 0 1 0 .02 13.52 6.76 6.76 0 0 0-.02-13.53Zm25.02 17.5a10.77 10.77 0 0 1 0-21.5c5.93 0 10.76 4.82 10.76 10.75s-4.83 10.75-10.76 10.75Zm0-17.5a6.76 6.76 0 1 0 .02 13.52 6.76 6.76 0 0 0-.02-13.53ZM424.5 410.83c-30.17 0-60.17-7.32-86.75-21.16a189.74 189.74 0 0 1-65.46-56.4l-.85-1.18.85-1.18a189.76 189.76 0 0 1 65.46-56.41 188.56 188.56 0 0 1 86.75-21.16c30.17 0 60.17 7.32 86.75 21.16a189.73 189.73 0 0 1 65.46 56.41l.85 1.18-.85 1.17a189.72 189.72 0 0 1-65.46 56.41 188.56 188.56 0 0 1-86.75 21.16Zm-148.11-78.74a185.78 185.78 0 0 0 63.2 54.04 184.53 184.53 0 0 0 169.8 0 185.75 185.75 0 0 0 63.22-54.04 185.76 185.76 0 0 0-63.2-54.04 184.55 184.55 0 0 0-84.91-20.7c-29.53 0-58.9 7.15-84.9 20.7a185.76 185.76 0 0 0-63.21 54.04Z"/><path fill="#fff" d="M471.25 403.5a80.55 80.55 0 1 0-93.5 0l-65.6 170.58h224.7Z"/><path d="M471.25 403.5a80.58 80.58 0 0 0-29.77-144.36l-85.13 121.71-3.77 5.4s-10.88 14.44 0 21.47a994.59 994.59 0 0 0 19.03 11.72A7528.37 7528.37 0 0 0 413 444.28l-8.75 21.46s-5.31 13.52 9.54 22.26l11.17 6.93-11.92 15.64s-4.78 6.27 1.93 16.45l10.6 16.96 1.6 31.27h109.7Zm310-242.46-3.82-1.2L827.07.79l3.82 1.19Zm-27.73-5.26-14.07-64.4 3.91-.85 14.07 64.4ZM734.2 67.33l-12.1-55.35 3.91-.85 12.1 55.34Zm58.56 109.77-2.2-3.33 87.14-57.86 2.21 3.33Zm-64-10.97-54.52-89.27 3.41-2.09 54.53 89.28Zm134.67 93.93-68.78-42.52 2.1-3.4 68.78 42.52Zm-64.67-63.01-.44-3.98 53.66-6.01.44 3.97Z"/><path fill="#ffd829" d="M828.88 712.05a80.46 80.46 0 1 0 0-160.91m0 37.54a42.91 42.91 0 1 1 0 85.83"/><path d="M828.88 714.05v-4c43.26 0 78.46-35.2 78.46-78.46 0-43.26-35.2-78.46-78.46-78.46v-4c45.47 0 82.46 37 82.46 82.46 0 45.47-37 82.46-82.46 82.46Zm0-37.54v-4a40.96 40.96 0 0 0 40.9-40.92 40.96 40.96 0 0 0-40.9-40.9v-4a44.96 44.96 0 0 1 44.9 44.9 44.96 44.96 0 0 1-44.9 44.91Z"/><path fill="#ffd829" d="M828.88 515.63c0 34.55-46.07 62.56-102.9 62.56-56.83 0-102.9-28.01-102.9-62.57 0-34.55 46.07-62.56 102.9-62.56 56.83 0 102.9 28.01 102.9 62.56Z"/><path d="M725.98 580.19c-57.84 0-104.9-28.96-104.9-64.56s47.06-64.57 104.9-64.57 104.9 28.97 104.9 64.57c0 35.6-47.06 64.56-104.9 64.56Zm0-125.13c-55.64 0-100.9 27.17-100.9 60.56 0 33.4 45.26 60.57 100.9 60.57 55.63 0 100.9-27.17 100.9-60.57 0-33.39-45.27-60.56-100.9-60.56Z"/><path fill="#fff" d="M811.8 556.22c0 31.26-38.42 56.6-85.82 56.6-47.4 0-85.83-25.34-85.83-56.6 0-31.25 38.43-56.6 85.83-56.6s85.82 25.35 85.82 56.6Z"/><path fill="#ffd829" d="M725.98 578.19c-56.83 0-102.9-28.01-102.9-62.56V763h205.8V515.63c0 34.55-46.07 62.56-102.9 62.56Z"/><path d="M830.88 765.01h-209.8V515.63h4c0 33.39 45.26 60.56 100.9 60.56 55.63 0 100.9-27.17 100.9-60.56h4Zm-205.8-4h201.8v-227.7c-12.53 27.03-53.02 46.88-100.9 46.88s-88.38-19.85-100.9-46.88Z"/><path fill="#ffd829" d="m725.98 597.4-53.2 21.46v62.58c4.18 37.55 53.2 47.09 53.2 47.09s49.02-9.54 53.2-47.09v-62.58Z"/><path fill="#fff" d="m725.98 730.56-.38-.07c-.5-.1-50.52-10.27-54.8-48.83l-.02-.22v-63.93l55.2-22.27 55.19 22.27-.01 64.15c-4.29 38.56-54.3 48.73-54.8 48.83Zm-51.2-49.23c3.86 33.87 46.67 44.16 51.2 45.15 4.52-1 47.34-11.32 51.19-45.15V620.2l-51.2-20.65-51.19 20.65Z"/><path d="M692.23 639.92h26.08v29.76c0 5.53-1.32 9.75-3.95 12.64-2.64 2.9-6.44 4.35-11.4 4.35a21.44 21.44 0 0 1-9.9-2.44 6.64 6.64 0 0 1-1.69-1.25l2.37-4.34c.49.3 1.02.63 1.62.98.59.36 1.25.7 1.97 1.02a12.9 12.9 0 0 0 5.5 1.15c3.3 0 5.78-1.03 7.48-3.1 1.69-2.05 2.53-5.39 2.53-10v-23.9h-20.61Zm43 39.57c1.32.7 2.8 1.28 4.44 1.75a18.7 18.7 0 0 0 9.05.26 9.66 9.66 0 0 0 3.33-1.39 7.12 7.12 0 0 0 2.24-2.4c.55-.96.83-2.1.83-3.42 0-1.8-.6-3.27-1.82-4.41a18.1 18.1 0 0 0-4.5-3.03 85.29 85.29 0 0 0-5.87-2.57 34.73 34.73 0 0 1-5.86-2.96 16.4 16.4 0 0 1-4.5-4.19c-1.22-1.64-1.82-3.74-1.82-6.28 0-1.8.36-3.43 1.09-4.88a10.54 10.54 0 0 1 3.06-3.68 14.44 14.44 0 0 1 4.77-2.34 22 22 0 0 1 6.23-.83c2.63 0 5.02.2 7.18.57 2.14.37 3.86.86 5.13 1.48l.13-.07v.13h.07l-.07.2v10.54h-4.87v-7.05a32.04 32.04 0 0 0-7.84-.92c-1.44 0-2.75.17-3.91.52a9.81 9.81 0 0 0-2.97 1.42 6.46 6.46 0 0 0-1.87 2.07 5.64 5.64 0 0 0 1.15 6.78 18.6 18.6 0 0 0 4.51 3.07c1.8.9 3.75 1.79 5.86 2.66 2.1.88 4.06 1.9 5.86 3.07 1.8 1.16 3.3 2.55 4.51 4.18a9.89 9.89 0 0 1 1.81 6.06c0 1.97-.36 3.75-1.09 5.33a11.77 11.77 0 0 1-3.09 4.08 13.97 13.97 0 0 1-4.94 2.64c-1.95.61-4.16.92-6.62.92-1.66 0-3.24-.13-4.73-.4a32.48 32.48 0 0 1-9.81-3.35l.06-.2v-10.67h4.87v7.31Z"/><path fill="#fff" d="M725.98 628.6a2 2 0 0 1-2-2v-29.2a2 2 0 0 1 4 0v29.2a2 2 0 0 1-2 2Zm0 101.93a2 2 0 0 1-2-2v-29.2a2 2 0 0 1 4 0v29.2a2 2 0 0 1-2 2ZM221.87 277.98H27c-10.43 0-18.9-4.3-23.23-11.8-4.33-7.5-3.82-16.99 1.4-26.02L102.6 71.4c5.21-9.03 13.17-14.2 21.83-14.2 8.66 0 16.62 5.17 21.84 14.2l97.43 168.76c5.21 9.03 5.72 18.51 1.39 26.02-4.33 7.5-12.8 11.8-23.22 11.8Z"/><path fill="#ffd829" d="M183.56 182.8 126 83.1a10.25 10.25 0 0 0-1.57-2.13c-.4.4-.96 1.09-1.57 2.13L25.43 251.86a10.3 10.3 0 0 0-1.06 2.43c.55.15 1.42.29 2.63.29h194.87c1.2 0 2.07-.14 2.62-.3a9.83 9.83 0 0 0-1.06-2.42Z"/><path d="M115.36 222.67c0-2.82.8-5.03 2.42-6.65 1.62-1.61 3.78-2.42 6.5-2.42 2.8 0 5.05.8 6.72 2.42 1.67 1.62 2.5 3.83 2.5 6.65 0 2.71-.83 4.9-2.5 6.57-1.67 1.66-3.91 2.5-6.73 2.5-2.7 0-4.87-.84-6.49-2.5-1.61-1.67-2.42-3.86-2.42-6.57Zm2.66-102.28H131v54.27l-2.66 27.52h-7.66l-2.66-27.52Z"/></svg>