<svg xmlns="http://www.w3.org/2000/svg" width="1483.56" height="731.12" xml:space="preserve"><g fill="#FFF"><path d="M1308.3 215.16h127.5v-36.24a73 73 0 0 0-73-73h-54.5v109.24z"/><path d="M1437.8 217.16h-131.5V103.93h56.5c41.36 0 75 33.64 75 75v38.23zm-127.5-4h123.5v-34.24c0-39.14-31.84-71-71-71h-52.5v105.24z"/></g><path fill="#FFF" d="M933.6 706.6H800.72v-4h132.83c4.8-.27 9.64-.49 14.77-.72 46.93-2.12 100.13-4.52 131.27-40.2 23.17-26.56 34.91-55.15 35.9-87.4.8-26.61-5.34-55.63-19.92-94.08-17.6-46.46-35.65-100.86-26.85-158.65 3.68-24.14 13.25-46.82 22.51-68.77a925.88 925.88 0 0 0 8.62-20.9c3.63-9.2 7.94-18.34 12.12-27.19 9.1-19.27 18.5-39.19 21.12-60.73.95-7.77.63-17.32-1.4-26.19-10.13 3.78-23.31 4.26-31.54.41-9.16-4.27-10.52-13.5-7.9-20.28 2.8-7.28 10.73-13.6 21.47-10.27 10.81 3.36 17.24 13.23 20.66 24.55a22.45 22.45 0 0 0 3.32-2.13c16.58-13.02 25.6-35.05 33.58-54.48l.34-.85c6.3-15.35 19.37-27.04 36.83-32.92 16.2-5.46 34.4-5.27 49.92.54 17.06 6.37 31.15 19.67 40.76 38.44 8.01 15.66 12.91 35.2 13.8 55.02l-4 .18c-2.35-52.83-28.39-81.08-51.96-89.9-14.68-5.48-31.9-5.66-47.24-.5-16.34 5.51-28.56 16.4-34.4 30.66l-.35.84c-8.16 19.9-17.4 42.45-34.81 56.11a28 28 0 0 1-4.73 2.95 84.4 84.4 0 0 1 1.62 28.3c-2.7 22.18-12.24 42.4-21.48 61.96-4.14 8.78-8.43 17.87-12 26.95-2.77 7.03-5.77 14.13-8.66 21-9.17 21.7-18.64 44.16-22.25 67.8-8.65 56.83 9.22 110.65 26.65 156.63 22.83 60.24 36.61 124.41-16.71 185.53-32.27 36.97-88.73 39.52-134.1 41.57-5.15.23-10 .45-14.8.7l-.1.01zm174.48-615.85c-6 0-10.35 4.05-12.1 8.59-2.04 5.26-1.01 12.01 5.86 15.22 7.22 3.37 19.66 2.78 28.83-.7-3.12-10.56-8.9-19.54-18.14-22.4-1.56-.5-3.05-.71-4.45-.71z"/><g fill="#FFF"><path d="M1435.8 223.16v249.9a73 73 0 0 1-73 73h-109.02a73 73 0 0 1-73-73v-249.9h255.03z"/><path d="M1362.8 548.07h-109.02c-41.35 0-75-33.65-75-75v-251.9h259.03v251.9c0 41.35-33.65 75-75 75zm-180.02-322.9v247.9c0 39.15 31.85 71 71 71h109.03c39.15 0 71-31.85 71-71v-247.9h-251.03z"/></g><path d="M1308.3 215.16h-127.52v-36.24a73 73 0 0 1 73-73h54.51v109.24z"/><path d="M1310.3 217.16h-131.52v-38.24c0-41.35 33.65-75 75-75h56.51v113.24zm-127.52-4h123.51V107.93h-52.5c-39.16 0-71 31.85-71 71v34.23z"/><path fill="#FFD829" d="m1225 727.1-.32-99.46c-2.67-15.04-14.13-30.77-21.89-37.53a95.07 95.07 0 0 1-38.33-59.92l-43.35-163.43a33.69 33.69 0 1 1 64.2-20.22l.16-.06 22.48 84.8 1.38-.8-1.31-130.3a37.3 37.3 0 0 1-.2-3.15c-.01-1.07 0-90 .08-91.05l.02 86.8.11-87.9a33.7 33.7 0 0 1 32.95-29.93 33.68 33.68 0 0 1 33.84 28.95l.48 87.88 1 109.75h.27l-.87-102.34c-.12-1.03-.27-45.84-.28-46.92a33.7 33.7 0 0 1 33.2-34.18c18.61-.26 33.91 16 34.2 34.6v-1.36l.2 43.76.94 105.46.29-.01-.9-102.34c-.1-1.04-.21-24.91-.23-25.98a33.67 33.67 0 0 1 67.24-3.1l.3 22.82.97 107.6h.28l-.89-102.34a33.71 33.71 0 1 1 67.19-4.14v.04h.16l.93 105.45 1.11 75.91.88 60.69a64.51 64.51 0 0 1-14.94 47.4c-11.9 17.5-17.53 37.93-17.81 38.95l-.06 99.59"/><path d="m1223 727.1-.32-99.28c-2.64-14.48-13.9-29.8-21.13-36.14a97.58 97.58 0 0 1-37.52-54.28 96.3 96.3 0 0 1-1.52-6.77l-43.3-163.28a35.42 35.42 0 0 1 2.66-30.15 35.48 35.48 0 0 1 21.7-16.58 35.45 35.45 0 0 1 27.09 3.64 35.45 35.45 0 0 1 16.37 20.97c.17.21.3.47.37.74l19.83 74.8-1.2-120.48a38.95 38.95 0 0 1-.21-3.22c0-.78 0-86.4.08-91.05v-.19a2 2 0 0 1 .13-.56v-.4l.01-.21a35.73 35.73 0 0 1 35.43-31.72 35.74 35.74 0 0 1 35.35 30.95l.18 32.28a35.8 35.8 0 0 1 6.51-9.26 35.44 35.44 0 0 1 25.54-10.82c18.54 0 34.43 15.6 35.69 34.7a2 2 0 0 1 .08.53l.02 4.5a35.83 35.83 0 0 1 31.98-19.8 35.71 35.71 0 0 1 35.55 33.08l.11 8.72a35.75 35.75 0 0 1 32.04-19.96c19.2 0 35 15.27 35.68 34.43a2 2 0 0 1 .17.8l.93 105.44 2 136.51a66.9 66.9 0 0 1-15.35 48.72c-10.94 16.12-16.54 34.94-17.4 38.01l-.07 99.32h-4l.06-99.6c0-.18.03-.36.08-.53.62-2.26 6.42-22.38 18.07-39.53a62.89 62.89 0 0 0 14.6-46.25l-1.99-136.6-.92-104.67a2.01 2.01 0 0 1-.17-.98 31.74 31.74 0 0 0-32.16-31.06 31.75 31.75 0 0 0-31.02 35.32l.89 102.33a2 2 0 0 1-2 2.02h-.32a2 2 0 0 1-1.97-1.98l-.96-107.6-.3-22.75a31.7 31.7 0 0 0-31.55-29.18h-.46c-8.47.12-16.38 3.54-22.28 9.61s-9.08 14.08-8.96 22.55l.03 3.8c.03 6.26.12 20.96.2 22.02v.17l.9 102.34a2 2 0 0 1-1.96 2.02h-.28a2 2 0 0 1-2.04-1.98l-.94-105.45-.2-42.23-.02-.15c-.26-17.79-14.76-32.64-31.75-32.64h-.4a31.46 31.46 0 0 0-22.28 9.6 31.49 31.49 0 0 0-8.95 22.55l.02 5.9c.04 10.8.15 39.48.24 40.88v.15l.89 102.34a2 2 0 0 1-2 2.02h-.29a2 2 0 0 1-2-1.98l-.98-109.75-.49-87.76a31.73 31.73 0 0 0-31.35-27.1h-.46a31.72 31.72 0 0 0-30.98 28.05l-.1 87.78c0 .22-.04.44-.11.64v3.6a35.67 35.67 0 0 0 .2 3.15l1.31 130.3a2 2 0 0 1-.97 1.73l-.53.31-.82.49a2 2 0 0 1-2.98-1.2l-22.28-84.01a1.99 1.99 0 0 1-.38-.78 31.48 31.48 0 0 0-14.72-19.28 31.49 31.49 0 0 0-24.04-3.23 31.5 31.5 0 0 0-19.29 14.72 31.46 31.46 0 0 0-2.27 27.03l43.35 163.43.03.14a93.58 93.58 0 0 0 37.68 58.79c7.17 6.25 19.62 22.28 22.54 38.69.02.11.03.23.03.34l.31 99.45-4 .02zM997.37 616.12H40.07A40.1 40.1 0 0 1 0 576.05V40.06A40.1 40.1 0 0 1 40.06 0h957.31a40.1 40.1 0 0 1 40.06 40.06v536a40.1 40.1 0 0 1-40.06 40.06zM40.07 4A36.1 36.1 0 0 0 4 40.06v536a36.1 36.1 0 0 0 36.06 36.06h957.31a36.1 36.1 0 0 0 36.06-36.07V40.06A36.1 36.1 0 0 0 997.37 4H40.07z"/><path fill="#FFD829" d="M373.91 208.19v-18.27h-43.85v18.27h-22.69v69.39h87.59v-69.39z"/><path d="M396.96 279.58h-91.59v-73.4h22.68v-18.26h47.86v18.27h21.05v73.4zm-87.59-4h83.6v-65.4H371.9v-18.26h-39.85v18.27h-22.69v65.4z"/><circle fill="#000000" cx="658.64" cy="367.56" r="109.35"/><path fill="#000000" d="M572.99 507.91a15 15 0 1 1-21.2-21.2l45.53-45.54a15 15 0 0 1 21.2 21.2L573 507.92zm-64.22-109.99a15 15 0 1 1-.17-29.99l64.4-.36a15 15 0 1 1 .17 29.99l-64.4.36zm238.67-38.08a15 15 0 1 1-4.03-29.72l63.81-8.65a15 15 0 1 1 4.03 29.72l-63.81 8.65z"/><circle fill="#000000" cx="741.88" cy="201.77" r="109.35"/><circle fill="#FFF" cx="785.44" cy="159.28" r="8.11"/><circle fill="#FFF" cx="739.09" cy="133.73" r="8.11"/><path fill="#FFF" d="M763.36 186.43a20.77 20.77 0 0 0-36.65-19.57l36.64 19.56z"/><circle fill="#FFD829" cx="709.15" cy="140.98" r="13.84"/><circle fill="#FFD829" cx="793.55" cy="189.6" r="13.84"/><path fill="#FFD829" d="M421.37 208.19a29.41 29.41 0 1 0 0 58.82h95.16v-58.82h-95.16z"/><path d="M518.53 269h-97.16c-17.32 0-31.4-14.08-31.4-31.4s14.08-31.41 31.4-31.41h97.16V269zm-97.16-58.81c-15.11 0-27.4 12.3-27.4 27.4s12.29 27.42 27.4 27.42h93.16v-54.82h-93.16z"/><path d="M479.38 238.02h-.31a2 2 0 0 1 .04-4h.27c13.45 0 14.78-10.87 14.83-11.34a2 2 0 0 1 2-1.78h15.15a5.36 5.36 0 0 0 0-10.71h-20.44a2 2 0 0 1 0-4h20.44a9.37 9.37 0 0 1 0 18.71h-13.5c-1.32 5.35-6.33 13.12-18.49 13.12z"/><circle cx="235.99" cy="147.43" r="47.36"/><circle cx="289.92" cy="135.65" r="46.13"/><path fill="#FFD829" d="m279.36 476.85 22.2-51.63-22.2-51.65h55.34l22.21 51.65-22.21 51.63z"/><path fill="#000000" d="m333.38 375.57 21.35 49.65-21.35 49.63h-50.99l20.67-48.05.68-1.58-.68-1.58-20.67-48.07h50.99m2.63-4h-59.7l23.08 53.65-23.07 53.63h59.7l23.06-53.63-23.07-53.65z"/><path fill="#FFD829" d="m366.09 476.85 22.21-51.63-22.21-51.65h55.34l22.21 51.65-22.21 51.63z"/><path fill="#000000" d="m420.11 375.57 21.35 49.65-21.35 49.63h-50.98l20.66-48.05.68-1.58-.68-1.58-20.67-48.07h51m2.63-4h-59.7l23.07 53.65-23.07 53.63h59.7l23.06-53.63-23.06-53.65z"/><path fill="#FFD829" d="M291.56 118.6c.82 0 1.62.05 2.42.13a61.48 61.48 0 0 1 118.07-.4 21.34 21.34 0 1 1-2.64 41.9 61.46 61.46 0 0 1-112.5.4A21.36 21.36 0 0 1 270.29 140a21.34 21.34 0 0 1 21.27-21.4z"/><path d="M353.07 199.1a63.55 63.55 0 0 1-57.31-36.19 23.4 23.4 0 0 1-27.47-22.9 23.37 23.37 0 0 1 24.23-23.39 63.77 63.77 0 0 1 60.34-44.43h.21a63.8 63.8 0 0 1 60.42 44.02l.97-.03a23.4 23.4 0 0 1 23.42 23.26 23.21 23.21 0 0 1-6.78 16.53 23.16 23.16 0 0 1-20.53 6.55 63.5 63.5 0 0 1-57.28 36.59h-.22zm-55.02-40.83.68 1.54a59.54 59.54 0 0 0 54.34 35.3h.2a59.5 59.5 0 0 0 54.3-35.67l.68-1.55 1.63.4a19.25 19.25 0 0 0 18.38-5.15 19.21 19.21 0 0 0 5.62-13.69 19.37 19.37 0 0 0-21.6-19.13l-1.67.2-.48-1.63a59.76 59.76 0 0 0-57.06-42.7h-.2a59.73 59.73 0 0 0-56.97 43.1l-.46 1.61-1.68-.18A19.37 19.37 0 0 0 272.3 140a19.37 19.37 0 0 0 24.12 18.68l1.64-.41z"/><path fill="#FFD829" d="m425.33 133.84-13.03 14.27"/><path d="M412.3 150.11a2 2 0 0 1-1.48-3.35l13.04-14.27a2 2 0 1 1 2.95 2.7l-13.04 14.27a2 2 0 0 1-1.48.65z"/><path fill="#FFD829" d="m283.35 134.32 13.14 14.18"/><path d="M296.49 150.5a2 2 0 0 1-1.47-.64l-13.14-14.18a2 2 0 0 1 2.94-2.72l13.13 14.19a2 2 0 0 1-1.46 3.35z"/><circle cx="380.39" cy="142.56" r="8.11"/><circle cx="327.47" cy="141.82" r="8.11"/><path fill="#FFF" d="M332.38 155.93a20.77 20.77 0 0 0 41.53.58l-41.53-.58z"/><path d="M422.91 273.74v-67.31h-32.3v58.31h-80.55v-57.9h-32.29v66.9l-46.14 123.73h237.61zM351.55 91.56a42.98 42.98 0 0 1-1-18.17 61.48 61.48 0 0 0-57.01 46.39 42.95 42.95 0 0 0 58-28.21z"/><path d="M353.14 73.33h-.6a43.28 43.28 0 0 1-1 18.23c5 18.18 21.64 32.14 41.4 32.14a42.8 42.8 0 0 0 19.46-4.66c-7.16-26.01-30.97-45.71-59.25-45.71z"/><path d="M350 80.17c0 3.95.55 7.76 1.55 11.4a42.94 42.94 0 0 0 .99-18.23c-.67 0-1.33.02-2 .05a43.36 43.36 0 0 0-.53 6.78z"/><path fill="#FFD829" d="M278.76 208.19a29.41 29.41 0 1 0 0 58.82h118.28v-58.82H278.75z"/><path d="M399.04 269H278.75c-17.32 0-31.41-14.08-31.41-31.4s14.09-31.41 31.4-31.41h120.29V269zm-120.29-58.8c-15.11 0-27.41 12.3-27.41 27.4s12.3 27.42 27.4 27.42h116.29V210.2H278.75z"/><path fill="#FFF" d="m603.03 193.14 16.15-129.33 23.07 134.12 61.13-21.08-38.06 46.14 43.83 11.53-44.98 19.22 28.83 54.6-56.52-25.19-33.45 80.56-11.53-95.74-69.21 15.18 63.44-58.82-63.44-52.25z"/><path fill="#000000" d="M372.16 511.06h-95.84v-32.49h59.66z"/><path fill="#000000" d="M458.66 511.06h-95.61v-32.49h59.43z"/><path fill="#FFD829" d="M526.02 208.17h-15.16a7.36 7.36 0 1 0 0 14.71h15.16a7.36 7.36 0 0 0 0-14.71z"/><path d="M526.02 224.88h-15.15a9.37 9.37 0 0 1 0-18.71h15.15a9.37 9.37 0 0 1 0 18.71zm-15.15-14.71a5.36 5.36 0 0 0 0 10.71h15.15a5.36 5.36 0 0 0 0-10.71h-15.15z"/><path fill="#FFD829" d="M526.02 222.88h-15.16a7.36 7.36 0 0 0 0 14.72h15.16a7.36 7.36 0 0 0 0-14.72z"/><path d="M526.02 239.6h-15.15a9.37 9.37 0 0 1 0-18.72h15.15a9.37 9.37 0 0 1 0 18.72zm-15.15-14.72a5.36 5.36 0 0 0 0 10.72h15.15a5.36 5.36 0 0 0 0-10.72h-15.15z"/><path fill="#FFD829" d="M526.02 237.6h-15.16a7.36 7.36 0 0 0 0 14.71h15.16a7.36 7.36 0 0 0 0-14.71z"/><path d="M526.02 254.31h-15.15a9.37 9.37 0 0 1 0-18.71h15.15a9.37 9.37 0 0 1 0 18.71zm-15.15-14.71a5.36 5.36 0 0 0 0 10.71h15.15a5.36 5.36 0 0 0 0-10.71h-15.15z"/><path fill="#FFD829" d="M526.02 252.31h-15.16a7.36 7.36 0 1 0 0 14.71h15.16a7.36 7.36 0 0 0 0-14.7z"/><path d="M526.02 269.02h-15.15a9.37 9.37 0 0 1 0-18.7h15.15a9.37 9.37 0 0 1 0 18.7zm-15.15-14.7a5.36 5.36 0 0 0 0 10.7h15.15a5.36 5.36 0 0 0 0-10.7h-15.15zm134.2 417.75h-252.7v-59.95h252.7v59.95zm-248.7-4h244.7v-51.95h-244.7v51.95z"/><path fill="#FFF" d="M75.01 517.3a15.4 15.4 0 0 1-15.39-15.38V156.5a15.4 15.4 0 0 1 15.4-15.4 15.4 15.4 0 0 1 15.38 15.4v345.42a15.4 15.4 0 0 1-15.39 15.39zm0-372.2a11.4 11.4 0 0 0-11.39 11.4v345.42a11.4 11.4 0 0 0 11.4 11.39 11.4 11.4 0 0 0 11.38-11.4V156.5a11.4 11.4 0 0 0-11.39-11.4z"/><path d="M88.4 242.57v259.35a13.39 13.39 0 1 1-26.78 0V242.57H88.4z"/><path d="M75.01 517.3a15.4 15.4 0 0 1-15.39-15.38V240.57H90.4v261.35a15.4 15.4 0 0 1-15.39 15.39zM63.62 244.58v257.35a11.4 11.4 0 0 0 11.4 11.39 11.4 11.4 0 0 0 11.38-11.4V244.58H63.62z"/><path fill="#FFF" d="M964.63 517.3a15.4 15.4 0 0 1-15.39-15.38V156.5c0-8.49 6.9-15.4 15.39-15.4s15.39 6.91 15.39 15.4v345.42a15.4 15.4 0 0 1-15.39 15.39zm0-372.2a11.4 11.4 0 0 0-11.39 11.4v345.42a11.4 11.4 0 0 0 22.78 0V156.5a11.4 11.4 0 0 0-11.39-11.4z"/><path d="M978.02 463.84v38.08a13.39 13.39 0 1 1-26.78 0v-38.08h26.78z"/><path d="M964.63 517.3a15.4 15.4 0 0 1-15.39-15.38v-40.08h30.78v40.08a15.4 15.4 0 0 1-15.39 15.39zm-11.39-51.46v36.08a11.4 11.4 0 0 0 22.78 0v-36.08h-22.78z"/><path fill="#FFF" d="M74.49 42.6a36.74 36.74 0 1 0 0 73.47 36.74 36.74 0 0 0 0-73.48zm21 65.04-21-15.25-21 15.25 8.02-24.68-21-15.26h25.96l8.02-24.68L82.5 67.7h25.95l-21 15.26 8.02 24.68z"/><path d="M961.75 42.6a36.74 36.74 0 1 0 0 73.47 36.74 36.74 0 0 0 0-73.48zm8.02 47.36-8.02 24.68-8.02-24.68h-25.95l21-15.26-8.03-24.68 21 15.25 21-15.25-8.02 24.68 21 15.26h-25.96zM802.72 731.12h-568v-32.05c0-17.1 13.9-31 31-31h506c17.09 0 31 13.9 31 31v32.05zm-564-4h560v-28.05c0-14.89-12.12-27-27-27h-506c-14.9 0-27 12.11-27 27v28.05zM2 558.05h1033.43v4H2zm1222.69 112.02h223.8v59.05h-223.8z"/><path d="M1450.5 731.12h-227.81v-63.05h227.8v63.05zm-223.81-4h219.8v-55.05h-219.8v55.05z"/><path fill="#FFD829" d="M385.78 222.88h15.16a7.36 7.36 0 0 0 0-14.71h-15.16"/><path d="M400.94 224.88h-15.16a2 2 0 0 1 0-4h15.16a5.36 5.36 0 0 0 0-10.71h-15.16a2 2 0 0 1 0-4h15.16a9.37 9.37 0 0 1 0 18.71z"/><path fill="#FFD829" d="M385.78 237.6h15.16a7.36 7.36 0 0 0 0-14.72h-15.16"/><path d="M400.94 239.6h-15.16a2 2 0 0 1 0-4h15.16a5.36 5.36 0 0 0 0-10.72h-15.16a2 2 0 0 1 0-4h15.16a9.37 9.37 0 0 1 0 18.72z"/><path fill="#FFD829" d="M385.78 252.31h15.16a7.36 7.36 0 0 0 0-14.71h-15.16"/><path d="M400.94 254.31h-15.16a2 2 0 0 1 0-4h15.16a5.36 5.36 0 0 0 0-10.71h-15.16a2 2 0 0 1 0-4h15.16a9.37 9.37 0 0 1 0 18.71z"/><path fill="#FFD829" d="M385.78 267.02h15.16a7.36 7.36 0 0 0 0-14.7h-15.16"/><path d="M400.94 269.02h-15.16a2 2 0 0 1 0-4h15.16a5.36 5.36 0 0 0 0-10.7h-15.16a2 2 0 0 1 0-4h15.16a9.37 9.37 0 0 1 0 18.7z"/></svg>
