<svg xmlns="http://www.w3.org/2000/svg" width="821.88" height="776.57" xml:space="preserve"><path fill="#FFF" d="m238.4 689.8-1.11-.02c-25.23-.6-55.7-17.98-63.03-46.01-6.8-25.96 2.7-54.8 9.63-75.86 7.37-22.4 1.12-44.86-15.94-57.21-9.51-6.9-21.4-8.64-32.91-10.32-2.13-.3-4.25-.62-6.35-.96-15.44-2.5-27.13-7.78-36.78-16.64a72.45 72.45 0 0 1-11.28-13.1c-7.04-10.56-10.4-22.13-9.69-33.46 1.76-28.15 21.43-56.12 47.85-68l1.64 3.64c-25.12 11.3-43.83 37.87-45.5 64.6-.64 10.46 2.47 21.18 9.02 31a68.45 68.45 0 0 0 10.67 12.37c9.05 8.3 20.08 13.28 34.71 15.64 2.08.34 4.18.65 6.29.95 11.98 1.75 24.37 3.56 34.68 11.03 18.49 13.4 25.31 37.62 17.39 61.7-6.77 20.59-16.05 48.78-9.56 73.6 6.85 26.21 35.5 42.46 59.26 43.03 20.07.49 43.61-13.24 57.63-25.14 7.34-6.22 14.32-13.35 19.58-18.86 9.32-9.76 16-22.95 22.44-35.71 11.1-21.96 22.58-44.67 48.1-52.23 17.1-5.07 33.49-2.73 49.34-.47 16.46 2.34 32 4.56 47.94-1.08 51.27-18.15 53.06-61.93 54.95-108.28.15-3.63.3-7.25.47-10.87 1-21.1 8.81-42.47 15.7-61.31l1-2.72 3.75 1.37-1 2.72c-6.78 18.58-14.48 39.63-15.46 60.13-.17 3.6-.32 7.22-.46 10.84-1.86 45.64-3.79 92.84-57.62 111.9-16.85 5.96-33.62 3.57-49.83 1.26-15.43-2.2-31.38-4.47-47.63.35-23.87 7.07-34.46 28.02-45.68 50.2-6.58 13.02-13.39 26.48-23.11 36.67-5.33 5.58-12.41 12.8-19.89 19.14-14.3 12.14-38.24 26.1-59.22 26.1zm468.38-303.38c-.36-3.42-.9-6.93-1.48-10.65-2.35-15.16-5.02-32.35 5.48-45.5 6.82-8.54 16.21-13.65 27.9-15.18 13.53-1.77 24.24-9.22 30.15-20.97 7.03-14 6.37-31.72-1.74-46.26-5.27-9.45-13.84-17.68-24.78-23.8-33.67-18.82-76.56-13.93-101.99 11.65-5.17 5.2-9.38 11.45-13.45 17.5l-2.1 3.12-3.31-2.26c.7-1.02 1.4-2.06 2.09-3.1 4.18-6.2 8.5-12.61 13.94-18.08 13.44-13.53 31.16-21.76 51.21-23.79a95.18 95.18 0 0 1 55.57 11.47c11.58 6.48 20.68 15.24 26.32 25.35 8.74 15.67 9.44 34.83 1.81 50-6.52 12.97-18.3 21.18-33.2 23.13-10.63 1.4-19.14 6.01-25.3 13.71-9.4 11.78-6.98 27.34-4.65 42.4a230.1 230.1 0 0 1 1.52 10.83l-3.99.43z"/><g fill="#FFF"><path d="M706.68 456.95h84.04v-23.89a48.11 48.11 0 0 0-48.1-48.11h-35.94v72z"/><path d="M792.72 458.95h-88.04v-76h37.93a50.17 50.17 0 0 1 50.11 50.11v25.89zm-84.04-4h80.04v-21.89a46.16 46.16 0 0 0-46.1-46.11h-33.94v68z"/></g><g fill="#FFF"><path d="M790.72 464.22v164.7a48.11 48.11 0 0 1-48.11 48.12h-71.86a48.11 48.11 0 0 1-48.1-48.11V464.21h168.07z"/><path d="M742.6 679.04h-71.85a50.17 50.17 0 0 1-50.1-50.11V462.21h172.07v166.7a50.17 50.17 0 0 1-50.11 50.12zM624.65 466.22v162.7a46.16 46.16 0 0 0 46.11 46.12h71.86a46.17 46.17 0 0 0 46.1-46.11V466.21H624.65z"/></g><path d="M706.68 456.95h-84.04v-23.89a48.11 48.11 0 0 1 48.11-48.11h35.93v72z"/><path d="M708.68 458.95h-88.04v-25.89a50.17 50.17 0 0 1 50.11-50.11h37.93v76zm-84.04-4h80.04v-68h-33.93a46.16 46.16 0 0 0-46.11 46.11v21.89z"/><path fill="#FFD829" d="M651.57 728.8c-1.76-9.91-9.3-20.28-14.42-24.73a62.67 62.67 0 0 1-25.26-39.5l-28.57-107.71a22.2 22.2 0 1 1 42.31-13.33l.1-.03 14.82 55.89.9-.54-.85-85.87a25.2 25.2 0 0 1-.14-2.07c0-.71 0-59.33.06-60.02v57.2l.08-57.92a22.2 22.2 0 0 1 44.02-.65l.32 57.92.65 72.34h.19l-.58-67.45c-.08-.68-.17-30.22-.18-30.93a22.2 22.2 0 0 1 21.88-22.52c12.27-.17 22.35 10.55 22.53 22.8v-.9l.15 28.85.61 69.5h.2l-.6-67.45c-.07-.69-.14-16.42-.15-17.12a22.19 22.19 0 0 1 44.32-2.04l.2 15.03.63 70.92h.2l-.6-67.45a22.21 22.21 0 1 1 44.28-2.73v.03h.1l.62 69.5.05 54.64.26 35.39a42.51 42.51 0 0 1-9.85 31.24c-7.84 11.54-12.22 29.05-12.4 29.72H651.56z"/><path d="M797.44 730.8H651.57a2 2 0 0 1-1.97-1.65c-1.67-9.4-8.98-19.37-13.7-23.51a65.02 65.02 0 0 1-25.97-40.62L581.4 557.45c-.2-.59-.45-1.3-.65-2.06a24.03 24.03 0 0 1 2.47-18.35 24.06 24.06 0 0 1 20.95-12.06 24.2 24.2 0 0 1 23.2 17.38 2 2 0 0 1 .3.63L639.34 587l-.74-73.92c-.08-.76-.12-1.47-.14-2.14 0-.53 0-56.05.06-59.99v-.2c.01-.15.04-.3.08-.44v-.14l.01-.22a24.23 24.23 0 0 1 23.68-21.51h.36a24.3 24.3 0 0 1 23.97 21.07l.1 18.69c.9-1.42 1.95-2.75 3.14-3.98a24.04 24.04 0 0 1 17.02-7.34h.31c12.51 0 23.3 10.6 24.19 23.43.04.15.06.3.06.47v.41a24.06 24.06 0 0 1 20.06-11.17h.35a24.29 24.29 0 0 1 24.1 22.34l.01.13.05 3.21a24.2 24.2 0 0 1 20.1-11.29h.36a24.32 24.32 0 0 1 24.19 23.23c.08.2.12.43.12.66l.61 69.5.06 54.66.26 35.29a44.79 44.79 0 0 1-10.25 32.55c-6.74 9.94-10.9 24.56-12.03 28.82l-.06.22a2.02 2.02 0 0 1-1.93 1.46zm-144.24-4h142.7c1.55-5.59 5.76-19.22 12.3-28.84l.12-.16a40.77 40.77 0 0 0 9.38-29.94l-.26-35.4-.06-54.65-.6-68.83a2 2 0 0 1-.11-.8 20.3 20.3 0 0 0-20.2-19.77h-.3a20.24 20.24 0 0 0-19.8 22.4l.02.19.59 67.45a2 2 0 0 1-2.03 2.02h-.2a2 2 0 0 1-1.96-1.99l-.63-70.91-.2-14.97a20.27 20.27 0 0 0-20.11-18.59h-.3a20.08 20.08 0 0 0-14.2 6.13 20.07 20.07 0 0 0-5.71 14.38l.02 2.64c.02 4.05.08 13.56.13 14.34v.16l.6 67.45a2 2 0 0 1-1.98 2.01h-.18a1.99 1.99 0 0 1-2.03-1.98l-.62-69.5-.14-27.81v-.12c-.18-11.3-9.45-20.84-20.25-20.84h-.26c-5.4.08-10.44 2.26-14.2 6.13s-5.8 8.98-5.71 14.37l.02 4.13c.02 7.02.1 25.65.15 26.68v.13l.59 67.45a2 2 0 0 1-2 2.02h-.19a2 2 0 0 1-2-1.99l-.65-72.33-.32-57.79a20.28 20.28 0 0 0-19.98-17.23h-.3a20.22 20.22 0 0 0-19.74 17.85l-.07 57.81c0 .18-.03.35-.07.52v2.27a22.96 22.96 0 0 0 .13 2.07l.87 85.88a2 2 0 0 1-.98 1.74l-.33.19-.55.32a2 2 0 0 1-2.98-1.19l-14.65-55.25-.07-.12a2 2 0 0 1-.21-.52 20.22 20.22 0 0 0-37-4.96 20.07 20.07 0 0 0-1.44 17.3l28.57 107.71.03.14a61 61 0 0 0 24.61 38.36c4.56 3.97 12.3 13.84 14.74 24.24zm-53.1-354.99H24.87A24.9 24.9 0 0 1 0 346.94V24.87A24.9 24.9 0 0 1 24.87 0H600.1a24.9 24.9 0 0 1 24.87 24.87v322.07a24.9 24.9 0 0 1-24.87 24.87zM24.87 4A20.9 20.9 0 0 0 4 24.87v322.07a20.9 20.9 0 0 0 20.87 20.87H600.1a20.9 20.9 0 0 0 20.87-20.87V24.87A20.9 20.9 0 0 0 600.1 4H24.87z"/><path fill="#FFD829" d="M225.48 132.89v-17.97h-26.36v17.97h-13.63v34.7h52.64v-34.7z"/><path d="M240.13 169.6h-56.64v-38.7h13.63v-17.98h30.36v17.97h12.64v38.7zm-52.64-4h48.63v-30.7h-12.64v-17.98h-22.36v17.97H187.5v30.7z"/><circle fill="#000000" cx="396.56" cy="221.66" r="65.7"/><path fill="#000000" d="M345.1 306a9 9 0 1 1-12.74-12.74l27.36-27.37a9 9 0 1 1 12.74 12.74L345.1 306zm-38.6-66.1a9.01 9.01 0 0 1-.1-18.02l38.7-.22a9.01 9.01 0 1 1 .1 18.02l-38.7.22zm143.42-22.88a9.01 9.01 0 1 1-2.42-17.86l38.34-5.2a9.01 9.01 0 1 1 2.42 17.86l-38.34 5.2z"/><circle fill="#000000" cx="446.58" cy="122.04" r="65.7"/><circle fill="#FFF" cx="472.75" cy="96.5" r="4.87"/><circle fill="#FFF" cx="444.91" cy="81.15" r="4.87"/><path fill="#FFF" d="M459.49 112.82a12.48 12.48 0 0 0-22.02-11.76l22.02 11.76z"/><circle fill="#FFD829" cx="426.91" cy="85.51" r="8.32"/><circle fill="#FFD829" cx="477.63" cy="114.72" r="8.32"/><path fill="#FFD829" d="M321.17 150.9c0-9.53-7.55-17.28-17-17.64v-.03h-57.85v.03a17.66 17.66 0 0 0 0 35.28v.03h57.85v-.03c9.45-.36 17-8.1 17-17.64z"/><path d="M304.17 170.57h-59.85v-.2c-9.67-1.3-17-9.51-17-19.47 0-9.96 7.33-18.17 17-19.47v-.17l2.67-.03h59.18v.2c9.68 1.3 17 9.5 17 19.47 0 9.96-7.32 18.17-17 19.47v.17l-2 .03zm-56.93-4h56.01l.85-.03a15.6 15.6 0 0 0 15.07-15.64 15.6 15.6 0 0 0-15.07-15.64l-.87-.03h-56.24l-.6.03a15.6 15.6 0 0 0-15.07 15.64 15.6 15.6 0 0 0 15.08 15.64l.84.03z"/><circle cx="142.6" cy="89.38" r="28.46"/><circle cx="175.01" cy="82.31" r="27.72"/><path fill="#FFD829" d="m169.87 286.53 13-30.23-13-30.23h31.52l13 30.23-13 30.23z"/><path fill="#000000" d="m200.07 228.07 12.14 28.23-12.14 28.23H172.9l11.46-26.65.68-1.58-.68-1.58-11.46-26.65h27.16m2.63-4h-35.87l13.87 32.23-13.87 32.23h35.87l13.87-32.23-13.87-32.23z"/><path fill="#FFD829" d="m221.99 286.53 13-30.23-13-30.23h31.51l13.01 30.23-13.01 30.23z"/><path fill="#000000" d="m252.19 228.07 12.14 28.23-12.14 28.23h-27.16l11.46-26.65.68-1.58-.68-1.58-11.46-26.65h27.16m2.63-4h-35.87l13.86 32.23-13.86 32.23h35.87l13.86-32.23-13.86-32.23z"/><path fill="#FFD829" d="M175.99 72.06c.5 0 .98.03 1.45.08a36.95 36.95 0 0 1 70.95-.24 12.82 12.82 0 1 1-1.59 25.18 36.93 36.93 0 0 1-67.6.23 12.85 12.85 0 0 1-15.99-12.38A12.82 12.82 0 0 1 176 72.06z"/><path d="M212.95 121.24a38.98 38.98 0 0 1-34.9-21.67 14.86 14.86 0 0 1-16.84-14.63 14.79 14.79 0 0 1 14.77-14.88h.01a39.13 39.13 0 0 1 36.83-26.68h.14a39.15 39.15 0 0 1 36.87 26.43c8.2 0 14.85 6.63 14.88 14.77a14.71 14.71 0 0 1-4.3 10.5 14.73 14.73 0 0 1-10.47 4.38c-.67 0-1.33-.05-1.97-.13a38.96 38.96 0 0 1-34.88 21.9h-.14zm-32.6-26.28.68 1.54a34.98 34.98 0 0 0 31.92 20.74h.13a34.96 34.96 0 0 0 31.9-20.96l.67-1.55 1.64.4A10.84 10.84 0 0 0 260.7 84.6a10.84 10.84 0 0 0-12.09-10.71l-1.67.19-.47-1.62a35.11 35.11 0 0 0-33.52-25.08h-.12a35.1 35.1 0 0 0-33.47 25.31l-.47 1.62-1.67-.18a10.78 10.78 0 0 0-8.87 3.13 10.84 10.84 0 0 0 10.36 18.11l1.63-.41z"/><path fill="none" d="m256.38 81.22-7.84 8.58"/><path d="M248.54 91.8a2 2 0 0 1-1.48-3.35l7.84-8.58a2 2 0 0 1 2.95 2.7l-7.83 8.58a2 2 0 0 1-1.48.64z"/><path fill="none" d="m171.06 81.51 7.89 8.52"/><path d="M178.95 92.03a2 2 0 0 1-1.46-.64l-7.9-8.52a2 2 0 0 1 2.94-2.72l7.89 8.52a2 2 0 0 1-1.47 3.36z"/><circle cx="229.37" cy="86.46" r="4.87"/><circle cx="197.57" cy="86.01" r="4.87"/><path fill="#FFF" d="M200.52 94.5a12.48 12.48 0 0 0 24.96.34l-24.96-.35z"/><path d="M254.92 165.28v-30.44h-19.41v25.03h-48.4v-24.79H167.7v30.2l-27.72 74.35h142.78zM212.04 55.81a25.83 25.83 0 0 1-.6-10.92 36.94 36.94 0 0 0-34.26 27.88 25.8 25.8 0 0 0 34.86-16.95z"/><path d="M213 44.86h-.37a25.91 25.91 0 0 1-.6 10.95c3 10.93 13 19.32 24.88 19.32 4.21 0 8.18-1.02 11.7-2.8-4.3-15.63-18.62-27.47-35.61-27.47z"/><path d="M211.11 48.97c0 2.37.33 4.67.93 6.85a25.83 25.83 0 0 0 .6-10.96l-1.2.04a25.84 25.84 0 0 0-.33 4.07z"/><path fill="#FFD829" d="M243.36 133.23H168.3a17.67 17.67 0 0 0 0 35.34h75.07a17.67 17.67 0 1 0 0-35.34z"/><path d="M243.36 170.57H168.3a19.7 19.7 0 0 1-19.67-19.67 19.7 19.7 0 0 1 19.67-19.67h75.06a19.7 19.7 0 0 1 19.68 19.67 19.7 19.7 0 0 1-19.68 19.67zm-75.06-35.34c-8.64 0-15.67 7.03-15.67 15.67s7.03 15.67 15.67 15.67h75.06c8.65 0 15.68-7.03 15.68-15.67s-7.03-15.67-15.68-15.67H168.3z"/><path fill="#FFF" d="m363.15 116.85 9.7-77.71 13.87 80.59 36.73-12.67-22.87 27.73 26.33 6.93-27.02 11.55 17.32 32.8-33.96-15.13-20.1 48.4-6.93-57.52-41.58 9.12 38.12-35.34-38.12-31.4z"/><path fill="#000000" d="M224.42 307.88h-57.59v-19.52h35.85z"/><path fill="#000000" d="M276.4 307.88h-57.45v-19.52h35.71z"/><path d="M389.21 405.43H235.76v-37.62h153.45v37.62zm-149.45-4h145.45v-29.62H239.76v29.62z"/><path fill="#FFF" d="M45.87 312.44c-5.54 0-10.04-4.5-10.04-10.05V94.83a10.06 10.06 0 0 1 20.09 0V302.4c0 5.54-4.5 10.05-10.05 10.05zm0-223.65a6.05 6.05 0 0 0-6.04 6.05v207.55a6.05 6.05 0 0 0 12.09 0V94.83a6.05 6.05 0 0 0-6.05-6.04z"/><path d="M53.92 146.55V302.4a8.05 8.05 0 1 1-16.09 0V146.55h16.09z"/><path d="M45.87 312.44c-5.54 0-10.04-4.5-10.04-10.05V144.55h20.09V302.4c0 5.54-4.5 10.05-10.05 10.05zm-6.04-163.89V302.4a6.05 6.05 0 0 0 12.09 0V148.55h-12.1z"/><path fill="#FFF" d="M580.43 312.44c-5.54 0-10.05-4.5-10.05-10.05V94.83a10.06 10.06 0 0 1 20.1 0V302.4c0 5.54-4.51 10.05-10.05 10.05zm0-223.65a6.05 6.05 0 0 0-6.05 6.05v207.55a6.05 6.05 0 0 0 12.1 0V94.83a6.05 6.05 0 0 0-6.05-6.04z"/><path d="M588.47 279.51v22.88a8.05 8.05 0 1 1-16.09 0v-22.88h16.1z"/><path d="M580.43 312.44c-5.54 0-10.05-4.5-10.05-10.05v-24.88h20.1v24.88c0 5.54-4.51 10.05-10.05 10.05zm-6.05-30.93v20.88a6.05 6.05 0 0 0 12.1 0v-20.88h-12.1z"/><path fill="#FFF" d="M45.56 26.4a22.08 22.08 0 1 0 0 44.14 22.08 22.08 0 0 0 0-44.15zm12.61 39.08L45.56 56.3l-12.62 9.17 4.82-14.83-12.62-9.17h15.6l4.82-14.83 4.82 14.83h15.6l-12.63 9.17 4.82 14.83z"/><path d="M578.7 26.4a22.07 22.07 0 1 0 0 44.14 22.07 22.07 0 0 0 0-44.15zm4.82 28.45-4.82 14.83-4.82-14.83h-15.6l12.62-9.16-4.82-14.83 12.62 9.16 12.62-9.16-4.82 14.83 12.61 9.16h-15.6zm-99.58 386.07h-342.9v-20.06a19.45 19.45 0 0 1 19.42-19.43h304.05a19.45 19.45 0 0 1 19.43 19.43v20.06zm-338.9-4h334.9v-16.06c0-8.51-6.92-15.43-15.43-15.43H160.46c-8.5 0-15.42 6.92-15.42 15.43v16.06zM2 335.33h620.97v4H2zM649.44 727.9h150.25v49H649.44z"/></svg>
