<svg xmlns="http://www.w3.org/2000/svg" xmlns:xlink="http://www.w3.org/1999/xlink" xml:space="preserve" viewBox="0 0 1920 1080"><path fill="#2E9AFF" d="m530.295 657.888-101.51-49.644 26.818 109.771-69.918-88.772L362.22 739.78l-24.477-110.317-69.101 89.409 25.811-110.012-101.051 50.572 70.987-87.918-112.986 1.72 102.104-48.412-102.544-47.473 112.998.684-71.791-87.264 101.511 49.644-26.819-109.771 69.918 88.772 23.465-110.537 24.477 110.317 69.101-89.409-25.811 110.012 101.051-50.572-70.987 87.918 112.986-1.72-102.104 48.412 102.544 47.473-112.998-.684z"/><path fill="#FFF" d="M1760.422 1080.004v-43.917h115.669V43.913h-115.669V.004L1920 .037v1079.342l-159.578.625zm3.992-39.926v35.918l151.594-.594V4.029l-151.594-.032v35.925h115.669v1000.157h-115.669zM159.577 1080.004 0 1079.379V.037L159.577.004v43.909H43.909v992.174h115.669v43.917zm-155.585-4.601 151.594.594v-35.918H39.917V39.922h115.669V3.997L3.992 4.029v1071.374z"/><path d="M1158.77 89.419c-6.013-6.031-14.015-9.358-22.531-9.37l-440.759-.626c-17.61-.016-31.903 14.257-31.929 31.837l-.288 203.096c-.013 8.516 3.293 16.527 9.306 22.558 6.013 6.03 14.015 9.358 22.532 9.37l440.758.625h.048c8.498 0 16.491-3.304 22.51-9.305 6.031-6.014 9.359-14.016 9.37-22.532l.289-203.096c.012-8.516-3.293-16.527-9.306-22.557zm-12.831 235.67a14.117 14.117 0 0 1-10.033 4.147h-.021l-440.758-.625a14.12 14.12 0 0 1-10.043-4.177 14.117 14.117 0 0 1-4.148-10.053l.288-203.095c.012-7.828 6.385-14.19 14.211-14.19h.021l440.76.626a14.117 14.117 0 0 1 10.041 4.176 14.121 14.121 0 0 1 4.149 10.053l-.051 35.444-7.776 1.986c-6.046 1.544-10.953 7.913-10.902 14.153l.815 101.817c.05 6.24 5.058 12.529 11.127 13.977l6.545 1.561-.049 34.158a14.123 14.123 0 0 1-4.176 10.042z"/><path fill="#FFF" d="M1012.069 208.292c.426 53.263-42.407 96.79-95.67 97.213-53.265.427-96.79-42.404-97.217-95.668-.426-53.265 42.407-96.79 95.671-97.217 53.265-.426 96.789 42.407 97.216 95.672z"/><defs><path id="a" d="M997.863 185.257c-1.099.009-2.18.087-3.245.214-10.218-34.267-42.101-59.129-79.652-58.827-37.553.3-69.036 25.67-78.704 60.096a28.725 28.725 0 0 0-3.243-.161c-15.807.125-28.517 13.042-28.391 28.848.126 15.807 13.043 28.516 28.848 28.39 2.41-.02 4.744-.34 6.971-.917 13.011 28.864 42.141 48.855 75.838 48.586 33.696-.271 62.502-20.725 75.049-49.795 2.238.541 4.578.824 6.986.805 15.805-.126 28.514-13.041 28.388-28.847-.126-15.808-13.04-28.519-28.845-28.392z"/></defs><use xlink:href="#a" fill="#2E9AFF" overflow="visible"/><clipPath id="b"><use xlink:href="#a" overflow="visible"/></clipPath><g clip-path="url(#b)"><path d="M904.739 115.537c.321 40.119-31.942 72.901-72.062 73.223-40.12.322-72.905-31.939-73.226-72.06-.322-40.12 31.942-72.904 72.063-73.226 40.119-.321 72.903 31.943 73.225 72.063z"/></g><g clip-path="url(#b)"><path d="M1022.772 128.668c.321 40.12-31.939 72.903-72.06 73.225-40.118.321-72.904-31.94-73.226-72.06-.321-40.12 31.944-72.904 72.062-73.226 40.121-.321 72.902 31.942 73.224 72.061z"/></g><path d="M836.392 228.449c-.473 0-.943-.188-1.292-.56l-17.704-18.941a1.768 1.768 0 0 1 2.582-2.413l17.704 18.941a1.768 1.768 0 0 1-1.29 2.973zM991.708 227.206a1.769 1.769 0 0 1-1.31-2.953l17.4-19.224a1.769 1.769 0 0 1 2.622 2.372l-17.4 19.224c-.349.385-.83.581-1.312.581zM878.939 206.692a28.11 28.11 0 0 0-23.076 12.401 1.767 1.767 0 1 0 2.931 1.976 24.596 24.596 0 0 1 11.331-9.115 10.81 10.81 0 0 0-1.915 6.24c.048 6.007 4.956 10.836 10.961 10.788 6.004-.049 10.836-4.956 10.788-10.962a10.82 10.82 0 0 0-1.954-6.127 24.548 24.548 0 0 1 11.309 8.852 1.767 1.767 0 1 0 2.899-2.023c-5.311-7.607-14.026-12.133-23.274-12.03zM973.188 218.153a28.107 28.107 0 0 0-23.273-12.029 28.118 28.118 0 0 0-23.078 12.399 1.768 1.768 0 0 0 2.93 1.978 24.617 24.617 0 0 1 11.331-9.114 10.82 10.82 0 0 0-1.914 6.238c.048 6.007 4.956 10.836 10.961 10.788 6.006-.048 10.838-4.955 10.79-10.962a10.818 10.818 0 0 0-1.97-6.148 24.592 24.592 0 0 1 11.325 8.873 1.768 1.768 0 1 0 2.898-2.023zM915.25 232.507c-.968 0-1.757-.78-1.767-1.749l-.127-12.841a1.766 1.766 0 0 1 1.75-1.784c.94-.01 1.775.774 1.785 1.749l.127 12.841a1.766 1.766 0 0 1-1.75 1.784h-.018z"/><path fill="#FFF" d="M929.934 242.611c.063 7.911-6.3 14.376-14.21 14.44-7.911.063-14.378-6.3-14.441-14.211"/><circle cx="879.619" cy="249.3" r="3.006"/><path d="M1322.057 527.018H478.753a1.996 1.996 0 0 1 0-3.992h843.305a1.996 1.996 0 1 1-.001 3.992zM1615.43 401.606h-30.409c-8.409 0-15.227 6.817-15.227 15.227v11.823h60.862v-11.823c0-8.41-6.817-15.227-15.226-15.227z"/><path fill="#FFF" d="M1371.35 373.992v54.1h261.518v-54.1z"/><path fill="#FFF" d="M1650.531 623.383h-22.471a1.996 1.996 0 0 1-1.996-1.996v-75.773h-247.911v75.773a1.996 1.996 0 0 1-1.996 1.996h-22.471c-17.608 0-31.934-14.326-31.934-31.934V458.593c0-17.608 14.326-31.934 31.934-31.934h296.845c17.608 0 31.934 14.326 31.934 31.934v132.856c.001 17.608-14.325 31.934-31.934 31.934zm-20.475-3.992h20.475c15.408 0 27.942-12.535 27.942-27.942V458.593c0-15.408-12.535-27.942-27.942-27.942h-296.845c-15.408 0-27.942 12.535-27.942 27.942v132.856c0 15.408 12.535 27.942 27.942 27.942h20.475v-75.773c0-1.102.894-1.996 1.996-1.996h251.903c1.102 0 1.996.894 1.996 1.996v75.773z"/><path fill="#FFF" d="M1371.35 535.165V765.09h261.518V535.165z"/><path d="M1376.158 462.468h69.316v27.05h-69.316z"/><path fill="#2E9AFF" d="M1584.303 635.622a29.42 29.42 0 0 0-3.245.214c-10.218-34.267-42.101-59.129-79.652-58.827-37.553.3-69.036 25.67-78.704 60.096a28.725 28.725 0 0 0-3.243-.161c-15.807.125-28.517 13.042-28.391 28.848.126 15.807 13.043 28.516 28.848 28.39 2.41-.02 4.744-.34 6.971-.917 13.011 28.864 42.141 48.855 75.838 48.586 33.696-.271 62.502-20.725 75.049-49.795 2.238.541 4.578.824 6.986.805 15.805-.126 28.514-13.041 28.388-28.847-.125-15.808-13.04-28.519-28.845-28.392z"/><path d="M1422.832 678.815c-.472 0-.943-.188-1.291-.56l-17.704-18.941a1.766 1.766 0 1 1 2.583-2.413l17.704 18.941a1.766 1.766 0 0 1-1.292 2.973zM1578.148 677.571a1.769 1.769 0 0 1-1.31-2.953l17.4-19.224a1.769 1.769 0 0 1 2.622 2.372l-17.4 19.224c-.349.385-.83.581-1.312.581zM1465.605 657.057l-.226.001a28.106 28.106 0 0 0-23.074 12.401 1.767 1.767 0 1 0 2.93 1.976 24.6 24.6 0 0 1 11.332-9.115 10.81 10.81 0 0 0-1.915 6.24c.048 6.007 4.956 10.836 10.961 10.788 6.004-.049 10.836-4.956 10.788-10.962a10.824 10.824 0 0 0-1.971-6.149 24.588 24.588 0 0 1 11.325 8.874 1.768 1.768 0 0 0 2.899-2.023 28.11 28.11 0 0 0-23.049-12.031zM1559.628 668.518a28.11 28.11 0 0 0-23.048-12.03l-.226.001a28.113 28.113 0 0 0-23.077 12.399 1.768 1.768 0 0 0 2.93 1.978 24.61 24.61 0 0 1 11.331-9.114 10.812 10.812 0 0 0-1.914 6.238c.048 6.007 4.956 10.837 10.961 10.788 6.006-.048 10.838-4.955 10.79-10.962a10.815 10.815 0 0 0-1.95-6.121 24.578 24.578 0 0 1 11.305 8.846 1.768 1.768 0 1 0 2.898-2.023zM1501.691 682.873c-.969 0-1.757-.78-1.767-1.749l-.128-12.841a1.765 1.765 0 0 1 1.749-1.784h.018c.969 0 1.757.78 1.767 1.749l.128 12.841a1.765 1.765 0 0 1-1.749 1.784h-.018z"/><path fill="#FFF" d="M1489.083 695.164c2.303 4.914 7.301 8.306 13.082 8.261 5.698-.046 10.579-3.423 12.848-8.261h-25.93z"/><path d="M1467.629 697.808c-1.126 0-2.284-.11-3.471-.331-3.857-.718-6.661-2.367-6.779-2.436a1.768 1.768 0 0 1 1.807-3.039c.378.222 9.428 5.435 16.235-.645 12.129-10.827 22.974-2.997 23.082-2.917a1.766 1.766 0 0 1-2.103 2.839c-.371-.268-8.708-6.141-18.625 2.714-2.826 2.522-6.287 3.815-10.146 3.815zM1535.721 697.808c-3.859 0-7.32-1.292-10.146-3.814-10.007-8.935-18.534-2.78-18.619-2.718a1.766 1.766 0 0 1-2.472-.364 1.765 1.765 0 0 1 .364-2.472c.109-.081 10.952-7.911 23.082 2.917 6.845 6.112 16.142.702 16.235.645a1.768 1.768 0 0 1 1.807 3.039c-.118.069-2.922 1.718-6.779 2.436-1.188.22-2.347.331-3.472.331zM915.67 527.018a1.996 1.996 0 0 1-1.996-1.996V345.815a1.996 1.996 0 0 1 3.992 0v179.206a1.997 1.997 0 0 1-1.996 1.997zM662.886 821.872a1.996 1.996 0 0 1-1.996-1.996V525.022a1.996 1.996 0 0 1 3.992 0v294.854a1.996 1.996 0 0 1-1.996 1.996z"/><path fill="#FFF" d="M1097.776 765.962a42.564 42.564 0 0 0-4.435-1.634c6.694-51.535-20.934-103.393-70.966-125.195-50.034-21.804-106.83-6.738-140.021 33.25a41.895 41.895 0 0 0-4.21-2.131c-21.059-9.18-45.57.454-54.748 21.513-9.178 21.061.456 45.57 21.514 54.747a41.697 41.697 0 0 0 9.797 2.904c.162 35.867 16.517 70.365 44.985 93.103-3.625 37.787-53.82 39.498-53.82 39.498 61.169 36.413 107.415-10.636 111.1-14.551 36.018 5.353 72.399-6.152 98.77-30.442a41.71 41.71 0 0 0 8.799 5.199c21.057 9.178 45.567-.455 54.745-21.514 9.178-21.06-.452-45.571-21.51-54.747z"/><path d="m924.82 713.888-.282 8.898 6.424-6.111 3.49 4.63-8.694 4.28 9.283 2.801-2.324 5.219-7.845-4.878 2.569 8.782-5.772.609.117-9.382-6.416 6.371-3.407-4.748 8.032-3.805-8.67-2.477 2.382-5.348 7.944 5.025-2.619-9.267 5.788-.599zM976.437 738.465l4.578 2.039-15.815 35.51-4.578-2.039 15.815-35.51zM1027.499 759.616l-.282 8.898 6.424-6.111 3.49 4.63-8.694 4.28 9.283 2.801-2.324 5.219-7.845-4.878 2.569 8.782-5.772.609.117-9.382-6.416 6.371-3.408-4.748 8.032-3.805-8.67-2.477 2.382-5.348 7.944 5.025-2.619-9.267 5.789-.599zM937.919 800.779c1.08-2.424 2.279-4.504 3.6-6.241 1.319-1.736 2.746-3.058 4.278-3.965 1.532-.907 3.162-1.402 4.892-1.487 1.73-.084 3.55.299 5.461 1.15 2.054.915 3.621 2.074 4.705 3.48a10.432 10.432 0 0 1 2.058 4.762c.289 1.769.214 3.701-.223 5.797-.438 2.095-1.164 4.284-2.18 6.565-2.172 4.878-4.806 8.276-7.9 10.196-3.094 1.92-6.538 2.036-10.331.347-2.054-.915-3.63-2.078-4.726-3.49a10.356 10.356 0 0 1-2.079-4.771c-.289-1.769-.208-3.697.245-5.787.449-2.089 1.184-4.274 2.2-6.556zm6.161 2.744a43.703 43.703 0 0 0-1.617 4.15c-.431 1.312-.675 2.511-.73 3.597-.057 1.085.129 2.049.559 2.889.429.84 1.2 1.508 2.312 2.003.998.445 1.917.606 2.758.485.84-.121 1.65-.521 2.431-1.199.78-.678 1.538-1.63 2.273-2.859.734-1.228 1.496-2.726 2.283-4.495a55.435 55.435 0 0 0 1.623-4.046c.458-1.299.72-2.499.782-3.599.062-1.1-.125-2.08-.561-2.942-.437-.861-1.226-1.545-2.367-2.053-1.997-.889-3.739-.623-5.227.8-1.489 1.423-2.995 3.846-4.519 7.269z"/><path fill="#FFF" d="M799.626 774.592v181.486L664.775 908.97V821.7l134.851-47.108m3.992-5.623-142.834 49.897v92.937L803.618 961.7V768.969z"/><path d="m596.306 909.796 22.057 87.589a18.35 18.35 0 0 0 18.09 14.602l10.089-.07c10.325-.072 18.559-8.646 18.212-18.966l-2.761-82.157"/><path fill="#2E9AFF" d="M603.033 910.112c-16.904 0-30.655-13.752-30.655-30.655v-27.939c0-16.904 13.752-30.655 30.655-30.655h59.699v89.25h-59.699z"/><path fill="#FFF" d="M660.737 822.858v85.259h-57.703c-15.803 0-28.659-12.857-28.659-28.66v-27.94c0-15.803 12.857-28.66 28.659-28.66h57.703m3.991-3.991h-61.695c-18.033 0-32.651 14.619-32.651 32.651v27.94c0 18.033 14.618 32.651 32.651 32.651h61.695v-93.242z"/><path fill="#FFF" d="m599.825 820.72 3.992-.051 1.179 91.413-3.992.052zM618.61 820.72l3.991-.05 1.18 91.413-3.992.051z"/><path d="m426.62 584.838-134.571.7c-28.882.09-52.369-23.25-52.459-52.133l-.06-19.124c-.09-28.882 23.25-52.369 52.133-52.459l134.571-.7c28.882-.09 52.369 23.25 52.459 52.133l.06 19.124c.09 28.883-23.251 52.369-52.133 52.459z"/><g fill="#2E9AFF"><path d="M333.97 534.193h-10.429l-2.395 7.734h-6.836l11.277-34.928h6.836l11.227 34.928h-7.185l-2.495-7.734zm-8.832-5.489h7.485l-3.543-11.676h-.449l-3.493 11.676zM364.607 527.707h6.187v14.221h-22.953V507h6.836v28.841h9.93v-8.134zM394.544 527.707h6.187v14.221h-22.953V507h6.836v28.841h9.93v-8.134z"/></g><path d="M1019.405 192.217c-5.726-5.636-13.282-8.729-21.306-8.729l-.25.001h-.001c-.65.006-1.301.033-1.965.083-11.086-34.928-44.194-58.985-80.931-58.695-36.78.293-69.46 24.883-79.985 59.984a28.35 28.35 0 0 0-1.962-.05c-8.117.063-15.722 3.285-21.416 9.071-5.693 5.785-8.793 13.442-8.728 21.559.133 16.672 13.741 30.144 30.385 30.143l.246-.001a30.647 30.647 0 0 0 5.954-.636c13.891 29.45 43.581 48.307 76.176 48.307.226 0 .452-.001.677-.003 32.863-.264 62.561-19.654 76.07-49.531 1.968.376 3.982.566 5.965.541 8.116-.064 15.721-3.286 21.414-9.071 5.693-5.785 8.792-13.441 8.727-21.558-.064-8.116-3.285-15.721-9.07-21.415zM978.64 158.81c-.355-.441-.703-.89-1.067-1.323.363.434.712.881 1.067 1.323zm38.589 73.901c-5.031 5.113-11.751 7.959-18.923 8.017a26.94 26.94 0 0 1-6.557-.756l-1.447-.35-.591 1.367c-12.665 29.345-41.493 48.471-73.441 48.729l-.649.002c-31.692 0-60.517-18.606-73.563-47.547l-.612-1.359-1.443.374a27.032 27.032 0 0 1-6.541.862l-.217.001c-14.707 0-26.732-11.906-26.85-26.637-.057-7.174 2.682-13.939 7.713-19.051 5.031-5.112 11.752-7.96 18.926-8.017.971.004 1.993.043 3.044.153l1.482.154.009-.033c19.405-1.497 36.655-10.575 48.803-24.282 12.486 22.642 36.671 37.896 64.34 37.675 16.175-.13 31.069-5.534 43.078-14.558l-.371.044-.03-.101 1.438-.172a27.311 27.311 0 0 1 3.05-.203c7.221-.066 13.935 2.682 19.047 7.714 5.112 5.031 7.959 11.752 8.017 18.925.059 7.171-2.681 13.938-7.712 19.049z"/><path fill="none" d="M1424.991 639.106c-.212.016-.422.039-.634.053l.602.063.032-.116z"/><path fill="none" d="M1473.973 614.797c-12.186 13.75-29.504 22.848-48.982 24.309l-.033.116-.602-.063a74.284 74.284 0 0 1-4.291.171 73.961 73.961 0 0 1-3.775-.067c-5.611.906-10.771 3.557-14.832 7.684-5.041 5.123-7.786 11.902-7.729 19.09.119 14.763 12.169 26.693 26.906 26.693l.218-.001a27.13 27.13 0 0 0 6.553-.863l1.446-.375.613 1.361c13.073 29 41.961 47.646 73.718 47.646l.648-.002c32.014-.258 60.9-19.424 73.592-48.829l.592-1.37 1.45.351c2.153.521 4.362.771 6.57.758 14.836-.118 26.809-12.285 26.691-27.123-.119-14.764-12.168-26.693-26.902-26.693l-.218.001a27.4 27.4 0 0 0-3.056.203l-1.11.133a72.464 72.464 0 0 1-43.098 14.565c-27.681.219-51.877-15.042-64.369-37.695z"/><path d="m1424.356 639.159-.883-.092a28.515 28.515 0 0 0-3.05-.153 27.246 27.246 0 0 0-4.134.35 73.94 73.94 0 0 0 3.775.067 75.15 75.15 0 0 0 4.292-.172z"/><path d="m1585.825 634.047-.248.001h-.001c-.642.005-1.3.033-1.968.083-11.041-34.788-43.842-58.819-80.426-58.819-.224 0-.449.001-.672.003-36.856.294-69.604 24.935-80.151 60.107a26.81 26.81 0 0 0-1.965-.05c-8.134.063-15.756 3.292-21.461 9.09-5.705 5.797-8.811 13.47-8.745 21.604.134 16.706 13.769 30.206 30.447 30.205l.246-.001a30.6 30.6 0 0 0 5.966-.638c13.922 29.512 43.672 48.409 76.336 48.407.224 0 .452-.001.677-.003 32.931-.265 62.689-19.694 76.227-49.633 1.972.376 3.997.552 5.978.542 16.788-.133 30.338-13.901 30.204-30.692-.135-16.708-13.767-30.206-30.444-30.206zm-165.401 4.867c.977-.003 1.997.043 3.05.153l1.484.155.404-1.438-.372 1.322c19.478-1.46 36.796-10.558 48.982-24.309 12.492 22.652 36.688 37.914 64.371 37.692a72.464 72.464 0 0 0 43.098-14.565l-.371.044.371-.044 1.11-.133a27.384 27.384 0 0 1 3.056-.203l.218-.001c14.734 0 26.783 11.93 26.902 26.693.117 14.838-11.855 27.005-26.691 27.123a27.212 27.212 0 0 1-6.57-.758l-1.45-.351-.592 1.37c-12.691 29.405-41.578 48.571-73.592 48.829l-.648.002c-31.757 0-60.645-18.646-73.718-47.646l-.613-1.361-1.446.375c-2.134.554-4.34.844-6.553.863l-.218.001c-14.737 0-26.787-11.931-26.906-26.693-.058-7.188 2.688-13.967 7.729-19.09.455-.462.928-.899 1.41-1.324.098-.086.196-.174.295-.259.476-.408.962-.799 1.461-1.17.078-.058.159-.113.238-.171.48-.349.969-.682 1.469-.997.06-.038.119-.078.179-.115a26.124 26.124 0 0 1 1.651-.938l.288-.148c1.16-.59 2.36-1.094 3.594-1.509.075-.025.149-.052.224-.076a26.792 26.792 0 0 1 1.876-.537l.184-.043a27.327 27.327 0 0 1 1.957-.396 27.68 27.68 0 0 1 4.139-.347z"/></svg>