<svg xmlns="http://www.w3.org/2000/svg" xmlns:xlink="http://www.w3.org/1999/xlink" xml:space="preserve" viewBox="0 0 1080 1080"><path fill="#FFF" d="M159.32 1079.809 0 1079.184V-.159l159.32-.032v43.909H43.838v992.173H159.32v43.918zm-155.335-4.601 151.35.594v-35.918H39.852V39.727h115.482V3.801L3.985 3.833v1071.375zM920.68 1079.809v-43.917h115.482V43.718H920.68V-.191L1080-.159v1079.343l-159.32.625zm3.985-39.925v35.918l151.35-.594V3.833l-151.35-.032v35.926h115.482v1000.157H924.665z"/><path d="M718.546 800.885a23.262 23.262 0 0 0-16.548-6.882l-323.718-.46c-12.934-.011-23.431 10.471-23.45 23.383l-.211 149.165a23.257 23.257 0 0 0 6.835 16.568 23.263 23.263 0 0 0 16.549 6.882l323.716.459h.035a23.268 23.268 0 0 0 16.533-6.834 23.258 23.258 0 0 0 6.882-16.549l.212-149.165a23.26 23.26 0 0 0-6.835-16.567zm-9.424 173.089a10.365 10.365 0 0 1-7.369 3.046h-.016l-323.717-.459a10.37 10.37 0 0 1-7.376-3.068 10.365 10.365 0 0 1-3.046-7.384l.211-149.164c.009-5.75 4.689-10.422 10.438-10.422h.015l323.719.46a10.37 10.37 0 0 1 7.375 3.067 10.374 10.374 0 0 1 3.047 7.384l-.037 26.032-5.711 1.459c-4.44 1.134-8.044 5.812-8.007 10.395l.599 74.78c.037 4.583 3.715 9.202 8.172 10.265l4.807 1.146-.036 25.088a10.373 10.373 0 0 1-3.068 7.375z"/><path fill="#FFF" d="M610.801 888.192c.313 39.119-31.146 71.088-70.265 71.399-39.12.314-71.088-31.144-71.402-70.264-.313-39.121 31.146-71.088 70.266-71.401 39.121-.314 71.088 31.146 71.401 70.266z"/><defs><path id="a" d="M600.368 871.274c-.807.007-1.601.064-2.383.157-7.505-25.167-30.922-43.427-58.501-43.206-27.581.221-50.704 18.853-57.805 44.137a21.064 21.064 0 0 0-2.382-.118c-11.609.092-20.944 9.579-20.852 21.188.093 11.61 9.58 20.944 21.188 20.851a21.044 21.044 0 0 0 5.12-.674c9.556 21.199 30.95 35.882 55.699 35.684 24.748-.199 45.905-15.221 55.12-36.572 1.644.397 3.363.605 5.131.591 11.608-.092 20.942-9.578 20.85-21.187-.092-11.609-9.577-20.945-21.185-20.851z"/></defs><defs><path id="b" d="M539.969 951.066c-24.002.001-45.873-13.812-56.22-35.417a22.756 22.756 0 0 1-4.101.404c-6.08.078-11.831-2.275-16.169-6.545a22.642 22.642 0 0 1-6.804-16.063 22.636 22.636 0 0 1 6.546-16.168 22.638 22.638 0 0 1 16.062-6.804c.356-.007.727.003 1.1.019 7.902-25.787 31.991-43.82 59.086-44.037.165-.002.332-.002.496-.002 26.895 0 51.021 17.586 59.285 43.088.37-.022.736-.034 1.103-.037l.189-.001c6.017 0 11.685 2.32 15.979 6.547a22.643 22.643 0 0 1 6.803 16.062c.049 6.087-2.275 11.829-6.545 16.168s-9.974 6.755-16.062 6.803c-1.377.031-2.751-.102-4.107-.338-10.068 21.918-31.947 36.125-56.143 36.319-.165.002-.333.002-.498.002zm-54.214-39.546.613 1.361c9.505 21.085 30.509 34.644 53.601 34.644l.471-.002c23.276-.188 44.279-14.124 53.508-35.504l.592-1.37 1.45.351c1.541.373 3.163.545 4.7.542a19.121 19.121 0 0 0 13.565-5.746c3.605-3.665 5.569-8.515 5.528-13.656s-2.082-9.959-5.746-13.566a19.12 19.12 0 0 0-13.495-5.528h-.159c-.709.007-1.425.054-2.188.146l-1.481.177-.427-1.43c-7.381-24.753-30.5-41.943-56.32-41.943l-.468.002c-26.014.209-49.088 17.827-56.114 42.846l-.404 1.438-1.485-.155a20.496 20.496 0 0 0-2.183-.11 19.119 19.119 0 0 0-13.566 5.747c-3.606 3.664-5.57 8.515-5.529 13.656s2.082 9.96 5.747 13.565a19.122 19.122 0 0 0 13.498 5.529h.157a19.42 19.42 0 0 0 4.69-.617l1.445-.377z"/></defs><use xlink:href="#a" fill="#2E9AFF" overflow="visible"/><use xlink:href="#b" overflow="visible"/><clipPath id="c"><use xlink:href="#a" overflow="visible"/></clipPath><path d="M481.774 903.469c-.473 0-.945-.188-1.294-.562l-13.003-13.911a1.77 1.77 0 1 1 2.588-2.418l13.003 13.911a1.77 1.77 0 0 1-1.294 2.98zM595.847 902.556a1.772 1.772 0 0 1-1.313-2.959l12.779-14.119a1.772 1.772 0 0 1 2.627 2.377l-12.779 14.119a1.767 1.767 0 0 1-1.314.582zM513.188 886.543l-.169.001a21.116 21.116 0 0 0-17.336 9.316 1.77 1.77 0 1 0 2.936 1.981 17.596 17.596 0 0 1 7.5-6.262 7.986 7.986 0 0 0 7.076 11.808 7.99 7.99 0 0 0 7.924-8.051 7.948 7.948 0 0 0-1.01-3.823 17.597 17.597 0 0 1 7.493 6.095 1.77 1.77 0 1 0 2.904-2.028 21.127 21.127 0 0 0-17.318-9.037zM582.633 895.165a21.119 21.119 0 0 0-17.316-9.038l-.168.001a21.121 21.121 0 0 0-17.339 9.314 1.771 1.771 0 0 0 2.936 1.983 17.6 17.6 0 0 1 7.5-6.261 7.986 7.986 0 0 0 7.076 11.807 7.988 7.988 0 0 0 6.915-11.874 17.597 17.597 0 0 1 7.493 6.095 1.77 1.77 0 1 0 2.903-2.027zM539.692 906.451a1.77 1.77 0 0 1-1.771-1.753l-.093-9.432a1.77 1.77 0 0 1 1.753-1.788h.018a1.77 1.77 0 0 1 1.771 1.753l.093 9.432a1.77 1.77 0 0 1-1.753 1.788h-.018z"/><path fill="#FFF" d="M550.477 913.398c.046 5.81-4.627 10.559-10.437 10.605-5.811.046-10.56-4.627-10.607-10.437"/><path d="m597.424 873.187-.313-1.05c-7.501-25.155-31.094-42.545-57.363-42.365a58.73 58.73 0 0 0-8.432.689 59.283 59.283 0 0 0-18.787 6.232c-14.054 7.455-24.985 20.416-29.462 36.357l-.273.971c14.306-1.072 27.024-7.754 35.974-17.853 9.174 16.637 26.945 27.845 47.276 27.682a53.213 53.213 0 0 0 31.653-10.697l-.273.034z"/><circle cx="513.522" cy="918.31" r="2.207"/><path fill="#2E9AFF" d="m652.446 309.905-73.814-57.084 3.376 93.251-41.736-83.459-37.418 85.481-1.391-93.301-70.802 60.78 39.228-84.666-90.161 24.042 72.078-59.261-91.664-17.459 90.653-22.118-75.011-55.501 91.272 19.405-43.502-82.552 73.814 57.085-3.376-93.251 41.736 83.459L573.146-.725l1.391 93.301 70.802-60.78-39.228 84.666 90.161-24.042-72.078 59.26 91.664 17.46-90.653 22.117 75.011 55.502-91.272-19.405z"/><path d="m605.522 234.319-134.849.701c-28.942.09-52.477-23.298-52.567-52.24l-.06-19.164c-.09-28.942 23.298-52.477 52.24-52.567l134.849-.701c28.942-.09 52.477 23.298 52.567 52.24l.06 19.164c.091 28.942-23.298 52.477-52.24 52.567z"/><path fill="#2E9AFF" d="M512.681 183.57h-10.45l-2.4 7.75h-6.85l11.3-35h6.851l11.25 35h-7.2l-2.501-7.75zm-8.85-5.5h7.5l-3.55-11.7h-.45l-3.5 11.7zM543.381 177.07h6.2v14.25h-23v-35h6.85v28.9h9.95v-8.15zM573.381 177.07h6.199v14.25h-23v-35h6.851v28.9h9.95v-8.15z"/><path d="M540.262 669.491H305.418a2 2 0 0 1 0-4h234.844a2 2 0 0 1 0 4zM679.054 468.366H541.588a2 2 0 0 1 0-4h137.466a2 2 0 0 1 0 4z"/><path fill="#FFF" d="M417.163 423.167a34.372 34.372 0 0 0-3.817.211c-11.581-40.408-48.747-70.033-92.891-70.15-44.146-.118-81.472 29.307-93.269 69.653a33.729 33.729 0 0 0-3.81-.23c-18.582-.051-33.684 14.973-33.735 33.554-.05 18.583 14.974 33.684 33.554 33.734 2.833.006 5.58-.34 8.206-.991 11.64 26.575 34.86 46.932 63.296 54.669 9.445 29.216-27.27 46.607-27.27 46.607 57.105 7.387 76.326-42.394 77.805-46.484 28.458-7.594 51.772-27.819 63.548-54.32a33.791 33.791 0 0 0 8.202 1.034c18.58.051 33.681-14.972 33.732-33.553.05-18.582-14.972-33.685-33.551-33.734z"/><path d="m272.04 440.056 2.649 6.696 2.806-6.6 4.078 2.317-5.08 5.97 7.791-.902-.049 4.621-7.391-1.102 4.728 5.695-4.089 2.306-2.926-7.002-2.717 6.79-4.054-2.43 4.741-5.404-7.232.945.051-4.735 7.511 1.179-4.921-6.039 4.104-2.305zM318.253 441.723l4.053.043-.336 31.441-4.053-.043.336-31.441zM362.953 441.026l2.649 6.696 2.806-6.6 4.078 2.317-5.08 5.97 7.791-.902-.049 4.621-7.391-1.102 4.728 5.695-4.089 2.306-2.926-7.002-2.717 6.79-4.054-2.43 4.741-5.404-7.232.945.051-4.735 7.511 1.179-4.921-6.039 4.104-2.305zM309.671 500.354c.023-2.146.246-4.076.668-5.79.422-1.712 1.057-3.152 1.902-4.317a8.475 8.475 0 0 1 3.154-2.675c1.257-.618 2.731-.918 4.423-.9 1.818.019 3.355.377 4.611 1.073a8.438 8.438 0 0 1 3.057 2.874c.783 1.22 1.348 2.679 1.696 4.375.348 1.696.511 3.554.49 5.574-.046 4.319-.91 7.687-2.59 10.107-1.68 2.419-4.2 3.611-7.558 3.575-1.818-.019-3.362-.377-4.629-1.073a8.39 8.39 0 0 1-3.076-2.874c-.782-1.22-1.342-2.678-1.677-4.375-.336-1.695-.493-3.554-.471-5.574zm5.455.058c-.014 1.288.03 2.488.132 3.6.102 1.112.306 2.081.613 2.905.306.824.754 1.48 1.343 1.966.588.486 1.375.734 2.36.744.884.009 1.618-.165 2.203-.526.585-.359 1.058-.917 1.42-1.67.361-.754.618-1.704.769-2.852.151-1.148.235-2.504.252-4.07a44.89 44.89 0 0 0-.095-3.525c-.077-1.111-.269-2.087-.575-2.923-.307-.836-.76-1.504-1.361-2.004-.601-.499-1.407-.753-2.417-.764-1.768-.019-2.976.739-3.623 2.272-.649 1.534-.989 3.817-1.021 6.847z"/><path fill="#FFF" d="m208.883 553.378 89.899 113.289-107.585 37.417-43.198-54.437 60.884-96.269m-.369-6.899L143.101 649.91l46.728 58.885 115.589-40.201-96.904-122.115z"/><path d="m147.966 739.943 58.014 44.407a14.843 14.843 0 0 0 18.804.156l6.357-5.117c6.506-5.237 7.412-14.809 2.003-21.174l-43.057-50.667"/><path fill="#2E9AFF" d="M138.017 739.196c-9.443-.001-18.223-4.238-24.085-11.626l-6.205-7.82c-5.101-6.428-7.393-14.456-6.454-22.607.938-8.151 4.994-15.449 11.422-20.55l32.583-25.856 44.396 55.946-32.583 25.856c-5.487 4.354-12.083 6.657-19.071 6.657h-.003z"/><path fill="#FFF" d="m144.953 653.546 41.909 52.812-31.016 24.612c-5.131 4.072-11.296 6.224-17.83 6.224-8.829 0-17.037-3.961-22.518-10.868l-6.206-7.82c-4.769-6.009-6.911-13.515-6.034-21.136.877-7.621 4.67-14.444 10.678-19.212l31.017-24.612m.647-5.619-34.149 27.099c-14.155 11.232-16.524 31.813-5.291 45.968l6.206 7.82c6.459 8.139 16.009 12.382 25.651 12.382a32.578 32.578 0 0 0 20.317-7.091l34.149-27.099-46.883-59.079z"/><path fill="#FFF" d="m105.142 681.935 3.101-2.527 46.714 57.325-3.102 2.527zM117.035 672.5l3.101-2.527 46.714 57.325-3.102 2.528z"/><path d="M912.659 361.815h-18.776c-8.409 0-15.227 6.817-15.227 15.227v6.653h49.23v-6.653c0-8.409-6.818-15.227-15.227-15.227z"/><path fill="#FFF" d="M718.142 339.48v43.759h211.532V339.48z"/><path fill="#FFF" d="M943.962 541.588h-18.176a2 2 0 0 1-2-2v-60.904H724.03v60.904a2 2 0 0 1-2 2h-18.176c-14.455 0-26.216-11.761-26.216-26.216v-107.46c0-14.456 11.761-26.217 26.216-26.217h240.107c14.455 0 26.216 11.761 26.216 26.217v107.461c.001 14.455-11.76 26.215-26.215 26.215zm-16.176-4h16.176c12.25 0 22.216-9.966 22.216-22.216v-107.46c0-12.25-9.966-22.217-22.216-22.217H703.854c-12.25 0-22.216 9.967-22.216 22.217v107.461c0 12.25 9.966 22.216 22.216 22.216h16.176v-60.904a2 2 0 0 1 2-2h203.756a2 2 0 0 1 2 2v60.903z"/><path fill="#FFF" d="M718.142 469.847v185.978h211.532V469.847z"/><path d="M722.03 411.045h56.067v21.88H722.03z"/><path fill="#2E9AFF" d="M890.392 551.103c-.889.008-1.763.07-2.625.173-8.265-27.717-34.054-47.827-64.428-47.583-30.375.243-55.841 20.763-63.661 48.609-.86-.09-1.737-.138-2.623-.13-12.785.101-23.066 10.549-22.964 23.334.102 12.786 10.55 23.066 23.335 22.963a23.193 23.193 0 0 0 5.638-.742c10.524 23.347 34.086 39.517 61.342 39.3 27.255-.219 50.555-16.764 60.705-40.278a23.19 23.19 0 0 0 5.651.651c12.784-.102 23.064-10.549 22.962-23.334-.102-12.784-10.548-23.066-23.332-22.963z"/><path d="M759.783 586.381c-.473 0-.945-.188-1.294-.562l-14.32-15.32a1.77 1.77 0 1 1 2.588-2.418l14.32 15.32a1.77 1.77 0 0 1-1.294 2.98zM885.413 585.375a1.772 1.772 0 0 1-1.313-2.959l14.074-15.55a1.77 1.77 0 1 1 2.627 2.377l-14.074 15.55a1.767 1.767 0 0 1-1.314.582zM794.382 568.1l-.187.001a23.067 23.067 0 0 0-18.944 10.181 1.77 1.77 0 1 0 2.936 1.981 19.549 19.549 0 0 1 8.564-7.057 8.736 8.736 0 0 0-1.23 4.54 8.795 8.795 0 0 0 8.866 8.726 8.798 8.798 0 0 0 8.726-8.867 8.736 8.736 0 0 0-1.274-4.472 19.535 19.535 0 0 1 8.56 6.871 1.77 1.77 0 1 0 2.904-2.028 23.073 23.073 0 0 0-18.921-9.876zM870.713 577.517a23.078 23.078 0 0 0-18.922-9.877l-.186.001a23.073 23.073 0 0 0-18.947 10.181 1.77 1.77 0 0 0 1.466 2.762c.569 0 1.128-.273 1.47-.781a19.561 19.561 0 0 1 8.564-7.057 8.745 8.745 0 0 0-1.23 4.54 8.796 8.796 0 0 0 8.866 8.726c4.858-.039 8.767-4.008 8.728-8.867a8.739 8.739 0 0 0-1.273-4.471 19.554 19.554 0 0 1 8.56 6.871 1.77 1.77 0 0 0 2.466.438c.801-.56.997-1.664.438-2.466zM823.569 589.665a1.77 1.77 0 0 1-1.771-1.753l-.103-10.387a1.77 1.77 0 0 1 1.753-1.788c1.021.007 1.778.775 1.788 1.753l.103 10.387a1.77 1.77 0 0 1-1.753 1.788h-.017z"/><path fill="#FFF" d="M813.371 601.264c1.863 3.975 5.905 6.719 10.582 6.682 4.609-.037 8.557-2.768 10.392-6.682h-20.974z"/><path d="M796.046 601.764c-4.53 0-8.249-2.162-8.493-2.307a1.771 1.771 0 1 1 1.811-3.045c.297.174 7.414 4.262 12.729-.482 10.021-8.947 19.012-2.447 19.102-2.379a1.77 1.77 0 0 1-2.107 2.848c-.294-.213-6.835-4.795-14.636 2.174-2.715 2.423-5.705 3.191-8.406 3.191zM851.067 601.764c-2.702.001-5.691-.768-8.406-3.191-7.811-6.977-14.362-2.373-14.638-2.173a1.775 1.775 0 0 1-2.471-.383 1.767 1.767 0 0 1 .366-2.466c.09-.067 9.084-6.565 19.102 2.379 5.317 4.748 12.435.657 12.733.48a1.77 1.77 0 0 1 2.424.625c.497.84.222 1.923-.617 2.422-.244.145-3.963 2.307-8.493 2.307z"/><path d="M908.056 556.49c-4.744-4.669-11.01-7.247-17.678-7.157h-.001c-.438.004-.887.021-1.343.049-9.037-28.082-35.576-47.462-65.164-47.462l-.545.003c-29.808.238-56.305 20.109-64.943 48.505a22.506 22.506 0 0 0-1.34-.026c-6.657.053-12.895 2.694-17.563 7.439s-7.211 11.023-7.157 17.681c.053 6.656 2.695 12.894 7.439 17.562 4.696 4.621 10.894 7.158 17.475 7.158l.205-.001a24.98 24.98 0 0 0 4.62-.469c11.341 23.804 35.401 39.03 61.812 39.029.182 0 .367-.001.55-.003 26.623-.213 50.693-15.873 61.727-40.021 1.527.274 3.063.411 4.628.395 6.656-.053 12.894-2.694 17.562-7.439 4.668-4.744 7.21-11.022 7.156-17.68-.054-6.657-2.696-12.894-7.44-17.563zm-2.243 32.759a21.24 21.24 0 0 1-15.065 6.382 21.393 21.393 0 0 1-5.221-.603l-1.45-.351-.592 1.37c-10.191 23.612-33.387 39.002-59.092 39.209l-.521.002c-25.501 0-48.696-14.973-59.193-38.259l-.613-1.362-1.446.376c-1.693.439-3.446.67-5.208.686h-.176a21.234 21.234 0 0 1-14.99-6.141 21.238 21.238 0 0 1-6.383-15.066 21.241 21.241 0 0 1 6.141-15.167 21.242 21.242 0 0 1 15.068-6.383c.761.001 1.588.034 2.424.122l1.484.154.038-.134c15.653-1.272 29.563-8.617 39.374-19.686 10.135 18.379 29.767 30.761 52.227 30.582a58.785 58.785 0 0 0 34.967-11.817l-.301.036-.024-.079.717-.085c.85-.102 1.645-.154 2.432-.161 5.704-.037 11.094 2.136 15.163 6.141a21.242 21.242 0 0 1 6.383 15.067 21.249 21.249 0 0 1-6.143 15.167zM540 799.61a2 2 0 0 1-2-2V224.266a2 2 0 0 1 4 0V797.61a2 2 0 0 1-2 2z"/></svg>