<svg xmlns="http://www.w3.org/2000/svg" viewBox="0 0 1920 1080" xml:space="preserve"><ellipse transform="rotate(-11.16 494.35 274.55)" fill="#FFF" cx="494.3" cy="274.6" rx="24.94" ry="41.96"/><path fill="#FFF" d="M499.47 316.18c-5.69 0-11.56-3.11-16.82-8.98-6.17-6.88-10.76-16.73-12.94-27.75s-1.67-21.88 1.43-30.6c3.1-8.72 8.43-14.25 15.01-15.55 6.59-1.3 13.62 1.79 19.8 8.69 6.17 6.88 10.77 16.73 12.94 27.75s1.67 21.88-1.42 30.6c-3.1 8.72-8.44 14.25-15.02 15.55-.99.19-1.98.29-2.98.29zm-10.34-82.92c-.98 0-1.96.1-2.93.29-6.49 1.28-11.75 6.75-14.83 15.4-3.08 8.66-3.58 19.47-1.41 30.45 2.16 10.98 6.74 20.79 12.88 27.64 6.12 6.83 13.07 9.88 19.56 8.6 6.5-1.28 11.76-6.75 14.83-15.39 3.08-8.67 3.58-19.48 1.42-30.46-2.17-10.97-6.74-20.79-12.88-27.64-5.22-5.8-11.02-8.89-16.64-8.89z"/><ellipse transform="rotate(-64.65 471.9 308.03)" fill="#FFF" cx="471.89" cy="308.03" rx="18.56" ry="29.13"/><path fill="#FFF" d="M481.16 329.07c-5.54 0-11.54-1.43-17.28-4.15-7.05-3.34-12.85-8.23-16.33-13.78-3.5-5.56-4.24-11.11-2.1-15.63 4.41-9.31 19.86-11.27 34.44-4.37 14.58 6.91 22.84 20.1 18.43 29.42-2.14 4.52-6.9 7.46-13.43 8.28-1.21.15-2.46.23-3.73.23zm-18.57-41.81c-7.86 0-14.32 2.89-16.91 8.35-2.1 4.45-1.37 9.91 2.08 15.4 3.46 5.5 9.22 10.36 16.23 13.69 7.01 3.32 14.42 4.7 20.87 3.9 6.43-.82 11.13-3.7 13.24-8.15 4.35-9.19-3.87-22.23-18.32-29.08a40.75 40.75 0 0 0-17.2-4.11z"/><ellipse transform="rotate(-31.48 498.74 320.77)" cx="498.71" cy="320.74" rx="29.13" ry="9.72"/><path d="M517.46 309.75a2 2 0 0 1-1.1-3.68c.2-.13 20.6-13.72 29.89-39.08 3.62-9.9 2.19-17.42-3.94-20.64-5.58-2.92-13.36-1.4-16.66 3.27-1.71 2.43-2.3 4.73-1.74 6.85 1.13 4.3 6.48 6.87 6.54 6.9a2 2 0 0 1-1.7 3.62c-.29-.14-7.08-3.37-8.7-9.48-.89-3.32-.1-6.75 2.33-10.2 4.45-6.3 14.43-8.36 21.78-4.5 7.99 4.19 10.17 13.74 5.84 25.56-9.76 26.65-30.57 40.48-31.46 41.05a2 2 0 0 1-1.08.33z"/><path d="M514.4 310.65a2 2 0 0 1-.45-3.94c.24-.06 24.08-5.75 41.57-26.32 6.83-8.04 8.08-15.6 3.45-20.73-4.22-4.68-12.06-5.94-16.76-2.7-2.5 1.71-3.8 3.62-4.01 5.84-.41 4.38 3.7 8.67 3.74 8.7a2 2 0 0 1-2.84 2.82c-.22-.22-5.48-5.6-4.88-11.9.32-3.42 2.24-6.37 5.72-8.76 6.36-4.37 16.43-2.85 22 3.32 6.04 6.69 4.78 16.4-3.37 26-18.38 21.62-42.7 27.39-43.73 27.62-.15.04-.3.05-.45.05z"/><ellipse fill="#FFF" cx="1659.31" cy="502.96" rx="260.69" ry="364.04"/><path d="M1311.05 866.68c72.3 0 137.73-41.1 184.95-107.5C1458.47 696.2 1389.7 654 1311.05 654s-147.43 42.2-184.96 105.2c47.23 66.38 112.65 107.5 184.96 107.5z"/><path fill="#FFF" d="M1309.17 867.01a2.5 2.5 0 0 1 5-.01 2.5 2.5 0 0 1-5 .01zm-23.72.76a2.5 2.5 0 0 1-2.14-2.8 2.5 2.5 0 1 1 4.95.67 2.5 2.5 0 0 1-2.47 2.15c-.12 0-.23 0-.34-.02zm49.63-2.26a2.5 2.5 0 1 1 4.95-.69 2.5 2.5 0 0 1-2.13 2.82 2.51 2.51 0 0 1-2.82-2.13zm-75.4-3.02a2.5 2.5 0 0 1-1.73-3.07 2.5 2.5 0 0 1 4.82 1.33 2.52 2.52 0 0 1-2.41 1.83c-.22 0-.45-.03-.67-.09zm100.87-1.98a2.5 2.5 0 1 1 4.8-1.35 2.5 2.5 0 0 1-1.72 3.08 2.5 2.5 0 0 1-3.08-1.73zm-125.68-6.65a2.5 2.5 0 0 1 1.94-4.61c1.27.54 1.87 2 1.34 3.28a2.51 2.51 0 0 1-2.31 1.52c-.32 0-.65-.06-.97-.19zm150.27-1.68a2.5 2.5 0 0 1 1.32-3.28 2.48 2.48 0 0 1 3.27 1.32 2.49 2.49 0 0 1-1.31 3.28 2.5 2.5 0 0 1-3.28-1.32zm-173.81-9.97a2.5 2.5 0 0 1-.93-3.4 2.5 2.5 0 0 1 4.34 2.48 2.52 2.52 0 0 1-2.17 1.25c-.42 0-.85-.1-1.24-.33zm197.16-1.38a2.5 2.5 0 0 1 .92-3.4v-.02a2.5 2.5 0 0 1 2.5 4.34 2.52 2.52 0 0 1-3.42-.92zm-219.19-12.9a2.52 2.52 0 0 1-.55-3.5 2.5 2.5 0 0 1 4.05 2.95 2.5 2.5 0 0 1-2.03 1.03c-.51 0-1.02-.16-1.47-.48zm241.08-1.09a2.49 2.49 0 0 1 .54-3.49 2.49 2.49 0 0 1 3.49.54 2.5 2.5 0 0 1-2.01 3.98 2.5 2.5 0 0 1-2.02-1.03zm-261.46-15.43a2.5 2.5 0 1 1 3.34-3.72 2.5 2.5 0 0 1 .2 3.53 2.5 2.5 0 0 1-3.54.19zm281.75-.8a2.5 2.5 0 1 1 3.71-3.35 2.5 2.5 0 0 1-.18 3.53 2.47 2.47 0 0 1-3.53-.18zm-300.43-17.59a2.5 2.5 0 0 1 .13-3.53 2.5 2.5 0 0 1 3.54.13h-.01a2.5 2.5 0 0 1-.12 3.53 2.49 2.49 0 0 1-3.54-.13zm319.04-.54a2.5 2.5 0 0 1-.14-3.53 2.5 2.5 0 1 1 3.68 3.39 2.5 2.5 0 0 1-3.54.14zm-336.02-19.4a2.5 2.5 0 1 1 3.94-3.08 2.5 2.5 0 0 1-.43 3.5 2.5 2.5 0 0 1-3.51-.43zm352.97-.3a2.5 2.5 0 0 1 3.07-3.95 2.5 2.5 0 0 1 .44 3.51 2.48 2.48 0 0 1-3.51.44zm-368.28-20.95a2.5 2.5 0 1 1 4.16-2.77 2.5 2.5 0 0 1-.7 3.47 2.49 2.49 0 0 1-3.46-.7zm-13.68-22.32a2.5 2.5 0 0 1 .95-3.4 2.5 2.5 0 0 1 2.46 4.35 2.49 2.49 0 0 1-3.41-.95zm-12.09-23.2a2.5 2.5 0 1 1 4.51-2.16 2.5 2.5 0 0 1-1.17 3.33 2.5 2.5 0 0 1-3.34-1.17zm-10.54-23.93a2.5 2.5 0 0 1 1.38-3.26 2.5 2.5 0 0 1 1.87 4.64 2.5 2.5 0 0 1-3.25-1.38zm-9.05-24.54a2.5 2.5 0 0 1 4.74-1.59 2.51 2.51 0 0 1-1.57 3.17 2.5 2.5 0 0 1-3.17-1.58zm-7.58-25.02a2.5 2.5 0 0 1 1.76-3.07 2.5 2.5 0 0 1 1.31 4.83 2.5 2.5 0 0 1-3.07-1.76zm-6.15-25.4a2.5 2.5 0 0 1 4.9-1.04h-.01a2.49 2.49 0 0 1-1.92 2.96 2.5 2.5 0 0 1-2.97-1.92zm-4.75-25.7a2.5 2.5 0 0 1 2.08-2.85 2.49 2.49 0 0 1 2.86 2.08 2.48 2.48 0 0 1-2.08 2.85c-.13.03-.26.03-.4.03a2.5 2.5 0 0 1-2.46-2.1zm-3.37-25.9a2.5 2.5 0 0 1 2.23-2.75 2.5 2.5 0 1 1 .51 4.97l-.25.01a2.5 2.5 0 0 1-2.49-2.24zm-2.02-26.06a2.5 2.5 0 0 1 4.99-.26 2.5 2.5 0 0 1-2.36 2.63h-.14a2.5 2.5 0 0 1-2.49-2.37zm-.69-26.1a2.5 2.5 0 0 1 2.49-2.5 2.5 2.5 0 1 1 .01 5 2.5 2.5 0 0 1-2.5-2.5zm2.99-23.5a2.5 2.5 0 0 1 .25-5 2.51 2.51 0 0 1 2.38 2.62 2.5 2.5 0 0 1-2.5 2.38h-.13zm1.82-25.94a2.5 2.5 0 1 1 .5-4.97 2.5 2.5 0 0 1 2.23 2.74h.01a2.5 2.5 0 0 1-2.49 2.25c-.08 0-.17 0-.25-.02zm3.15-25.8a2.5 2.5 0 0 1 .76-4.95 2.5 2.5 0 0 1-.38 4.97c-.12 0-.25 0-.38-.02zm4.52-25.6a2.49 2.49 0 0 1-1.93-2.97 2.5 2.5 0 0 1 4.89 1.03 2.5 2.5 0 0 1-2.44 2c-.18 0-.35-.03-.52-.07zm5.9-25.32a2.5 2.5 0 1 1 1.3-4.83 2.49 2.49 0 0 1 1.77 3.06 2.51 2.51 0 0 1-2.42 1.85c-.21 0-.43-.03-.65-.08zm7.33-24.95a2.5 2.5 0 0 1-1.58-3.16h-.01a2.5 2.5 0 0 1 3.16-1.58 2.5 2.5 0 0 1 1.59 3.15 2.52 2.52 0 0 1-2.38 1.72c-.26 0-.52-.04-.78-.13zm8.77-24.47a2.5 2.5 0 1 1 1.86-4.64 2.5 2.5 0 0 1 1.39 3.25 2.5 2.5 0 0 1-2.32 1.57c-.31 0-.62-.06-.93-.18zm10.26-23.89a2.5 2.5 0 0 1 2.15-4.52 2.5 2.5 0 0 1-1.08 4.76c-.36 0-.72-.08-1.07-.24zm11.78-23.18a2.5 2.5 0 0 1-.96-3.4 2.52 2.52 0 0 1 3.41-.96c1.2.68 1.63 2.2.96 3.41h-.01a2.5 2.5 0 0 1-2.18 1.27c-.41 0-.83-.1-1.22-.32zm13.35-22.3a2.5 2.5 0 0 1-.71-3.46 2.49 2.49 0 0 1 3.46-.72 2.5 2.5 0 0 1 .7 3.47 2.52 2.52 0 0 1-2.08 1.12c-.47 0-.95-.13-1.37-.4zm31.55-41.26a2.49 2.49 0 0 1-.15-3.53 2.5 2.5 0 1 1 3.68 3.38 2.5 2.5 0 0 1-3.53.15zm319.38-.82a2.5 2.5 0 0 1 .14-3.53 2.49 2.49 0 0 1 3.53.14h.01a2.5 2.5 0 0 1-1.84 4.19c-.67 0-1.34-.27-1.84-.8zm-301.11-17.66a2.5 2.5 0 1 1 3.7-3.36 2.5 2.5 0 0 1-.17 3.53 2.5 2.5 0 0 1-3.53-.17zm282.79-.44a2.5 2.5 0 1 1 3.34-3.71 2.5 2.5 0 0 1 .19 3.53 2.5 2.5 0 0 1-1.86.82c-.6 0-1.2-.2-1.67-.64zm-262.86-16.22a2.5 2.5 0 0 1 .54-3.5 2.5 2.5 0 0 1 2.96 4.03 2.52 2.52 0 0 1-3.5-.53zm242.9 0a2.5 2.5 0 0 1 2.95-4.04 2.5 2.5 0 0 1 .54 3.5 2.5 2.5 0 0 1-2.02 1.01c-.51 0-1.03-.15-1.47-.48zm-221.34-14.49a2.51 2.51 0 0 1 .91-3.42 2.51 2.51 0 0 1 3.42.91 2.5 2.5 0 0 1-.91 3.42 2.52 2.52 0 0 1-3.42-.91zm199.81.46a2.5 2.5 0 1 1 2.48-4.34 2.5 2.5 0 0 1-1.24 4.67c-.42 0-.85-.1-1.24-.33zm-176.74-12.39a2.5 2.5 0 1 1 4.59-1.97 2.49 2.49 0 0 1-1.31 3.28 2.5 2.5 0 0 1-3.28-1.3zm153.76.95a2.5 2.5 0 1 1 1.95-4.6 2.5 2.5 0 0 1-.98 4.8c-.33 0-.66-.06-.97-.2zm-129.41-9.95a2.51 2.51 0 0 1 1.73-3.09h-.01a2.5 2.5 0 0 1 3.09 1.73 2.49 2.49 0 0 1-1.72 3.08 2.5 2.5 0 0 1-3.09-1.72zm105.22 1.48h-.01a2.5 2.5 0 0 1 1.35-4.82 2.5 2.5 0 0 1 1.73 3.08 2.49 2.49 0 0 1-2.4 1.83c-.23 0-.45-.03-.67-.09zm-79.9-7.2a2.5 2.5 0 1 1 4.95-.71 2.5 2.5 0 0 1-2.13 2.83l-.35.02a2.5 2.5 0 0 1-2.47-2.14zm54.81 2a2.5 2.5 0 1 1 .68-4.95 2.5 2.5 0 0 1-.33 4.98c-.12 0-.23-.02-.35-.04zm-26.35-2a2.5 2.5 0 1 1 .68-4.95 2.5 2.5 0 0 1-.33 4.98c-.12 0-.22-.02-.35-.04z"/><path fill="#FFD829" d="M1501.53 751.77a2.51 2.51 0 0 1 2.76-4.18 2.5 2.5 0 0 1 .7 3.47 2.48 2.48 0 0 1-2.1 1.12c-.46 0-.94-.13-1.36-.4zm13.68-22.11a2.5 2.5 0 0 1 2.45-4.36 2.5 2.5 0 0 1 .95 3.41 2.49 2.49 0 0 1-2.18 1.27c-.41 0-.83-.1-1.22-.32zm12.11-23a2.5 2.5 0 0 1-1.19-3.33h.01a2.5 2.5 0 0 1 3.33-1.19 2.5 2.5 0 0 1-1.08 4.76c-.36 0-.73-.08-1.07-.24zm10.57-23.75a2.5 2.5 0 1 1 1.86-4.64 2.5 2.5 0 0 1 1.39 3.25 2.5 2.5 0 0 1-2.32 1.57c-.31 0-.62-.06-.93-.18zm9.08-24.36a2.5 2.5 0 0 1-1.58-3.16 2.5 2.5 0 0 1 3.16-1.58 2.5 2.5 0 0 1-.79 4.87c-.26 0-.53-.05-.79-.13zm7.63-24.85a2.5 2.5 0 0 1-1.76-3.07h-.01a2.49 2.49 0 0 1 3.07-1.76 2.5 2.5 0 0 1-.65 4.91c-.22 0-.44-.03-.65-.09zm6.2-25.25a2.5 2.5 0 0 1-1.93-2.97v.01a2.5 2.5 0 0 1 2.96-1.94 2.5 2.5 0 0 1-.51 4.95c-.17 0-.35-.02-.52-.05zm4.8-25.55a2.5 2.5 0 0 1 .76-4.95h.01a2.5 2.5 0 0 1-.38 4.98c-.12 0-.25 0-.38-.03zm3.45-25.77a2.5 2.5 0 1 1 .5-4.98 2.5 2.5 0 0 1 2.23 2.74 2.49 2.49 0 0 1-2.48 2.25h-.25zm2.09-25.92a2.5 2.5 0 1 1 .25-4.99 2.5 2.5 0 0 1-.13 5h-.12zm-1.74-28.48a2.51 2.51 0 0 1 5.01 0 2.5 2.5 0 0 1-5.01 0zm-.66-25.86a2.5 2.5 0 0 1 2.37-2.63 2.5 2.5 0 0 1 .26 5h-.13a2.5 2.5 0 0 1-2.5-2.37zm-1.98-25.79a2.5 2.5 0 1 1 4.98-.5v-.02a2.51 2.51 0 0 1-2.23 2.75l-.26.01a2.5 2.5 0 0 1-2.49-2.24zm-3.31-25.66a2.5 2.5 0 1 1 4.94-.77 2.51 2.51 0 0 1-2.1 2.86 2.5 2.5 0 0 1-2.85-2.09zm-4.68-25.42a2.5 2.5 0 0 1 4.9-1.04 2.5 2.5 0 0 1-1.93 2.95 2.52 2.52 0 0 1-2.97-1.92zm-6.05-25.15a2.5 2.5 0 1 1 4.82-1.3 2.5 2.5 0 0 1-1.76 3.06 2.5 2.5 0 0 1-3.06-1.76zm-7.48-24.75h.01a2.5 2.5 0 0 1 1.57-3.17 2.52 2.52 0 0 1 3.17 1.58h-.01a2.5 2.5 0 0 1-1.57 3.17 2.5 2.5 0 0 1-3.17-1.58zm-8.91-24.26a2.5 2.5 0 0 1 1.39-3.26 2.5 2.5 0 0 1 1.86 4.64 2.5 2.5 0 0 1-3.25-1.38zm-10.39-23.66a2.49 2.49 0 0 1 1.18-3.33 2.5 2.5 0 0 1 2.15 4.51 2.49 2.49 0 0 1-3.33-1.18zm-11.91-22.92a2.5 2.5 0 1 1 4.36-2.45 2.5 2.5 0 0 1-.95 3.4 2.49 2.49 0 0 1-3.4-.95zm-13.46-22.03a2.5 2.5 0 0 1 .7-3.46 2.51 2.51 0 0 1 3.47.7v.01a2.5 2.5 0 0 1-.7 3.46 2.5 2.5 0 0 1-3.47-.71zm-15.06-20.95h.01a2.5 2.5 0 0 1 3.94-3.07 2.51 2.51 0 0 1-1.97 4.04 2.5 2.5 0 0 1-1.98-.97z"/><ellipse transform="rotate(-46.6 1181.4 490.9)" fill="#FFF" cx="1181.35" cy="490.89" rx="47.27" ry="91.49"/><path d="M1478.92 398.78a63.43 63.43 0 0 0-14.79-12.95 63.5 63.5 0 0 0-80.46-92.3 63.5 63.5 0 1 0-109.82 57.95l107.65 128.75a63.5 63.5 0 1 0 97.42-81.45z"/><path fill="#FFF" d="M1368.71 464.95h.02c4.9-4.28 4.88-12.76 8.18-18 3.44-5.5 11.16-9.22 12.7-15.38 1.56-6.22-3.51-13.16-3.94-19.56-.43-6.34 3.68-13.9 1.26-19.91-2.34-5.8-10.47-8.44-14.7-13.5-4.23-5.06-5.38-13.53-10.68-16.86-5.49-3.44-13.66-.74-19.82-2.28-6.22-1.56-12.15-7.77-18.55-7.34-6.33.42-11.37 7.35-17.39 9.77-5.74 2.32-14.08.8-19.16 4.87l-.15.11.11.14-11.76 93.03 93.64 4.9.11.13c.05-.03.09-.08.13-.12z"/><path fill="#FFF" d="M1256.9 680.16a9.5 9.5 0 0 1-9.5-9.5V503.17c-.13-4.23-.05-42.5 43.48-67.9a9.5 9.5 0 0 1 9.57 16.41c-35.24 20.56-34.08 50.52-34.07 50.82l.02.5v167.66a9.5 9.5 0 0 1-9.5 9.5z"/><path fill="#FFD829" d="M1249.43 449.73c-.6 0-1.19.04-1.78.1-12.23-153.94-86.23-281.86-186.63-334.3a49.96 49.96 0 0 0-55.32-68.69c-7.01-26-25.08-44.52-46.28-44.52-21.21 0-39.3 18.54-46.3 44.56a49.96 49.96 0 0 0-55.5 68.74c-100.27 52.5-174.2 180.32-186.43 334.13l-.62-.02c-15.56 0-28.17 20.25-28.17 45.23s12.61 45.23 28.17 45.23l.62-.02c16.1 202.4 139 359.79 288.23 359.79 149.24 0 272.16-157.44 288.23-359.87.59.06 1.18.1 1.78.1 15.56 0 28.17-20.25 28.17-45.23s-12.61-45.23-28.17-45.23zM959.42 867c-143.98 0-260.7-163-260.7-364.05 0-177.46 90.93-325.26 211.27-357.5 3.56-.47 7-1.3 10.28-2.46a189.97 189.97 0 0 1 33.94-4 36.11 36.11 0 0 0 10.42 0 189.9 189.9 0 0 1 33.43 3.9 49.56 49.56 0 0 0 10.97 2.6c120.25 32.35 211.08 180.1 211.08 357.46 0 201.06-116.72 364.05-260.7 364.05z"/><path d="M959.42 902.46c-72.6 0-142.2-37.27-196-104.94-52.8-66.44-86.34-156.89-94.54-254.9-16.13-1.36-28.98-22.22-28.98-47.66 0-25.44 12.86-46.3 28.99-47.66 6.21-74.36 27.05-144.8 60.32-203.83 32.74-58.09 76.01-102.65 125.25-129a52.52 52.52 0 0 1 56.86-70.43c7.9-26.55 27.01-44.22 48.1-44.22 21.07 0 40.18 17.66 48.08 44.18a52.52 52.52 0 0 1 56.68 70.36c49.3 26.33 92.62 70.9 125.4 129.03 33.29 59.03 54.14 129.47 60.37 203.84 16.67.43 30.15 21.68 30.15 47.73 0 26.05-13.48 47.3-30.15 47.73-8.2 97.97-41.73 188.38-94.52 254.8-53.8 67.7-123.4 104.97-196.01 104.97zM673.5 537.58l.19 2.4c7.78 97.89 41.04 188.25 93.65 254.43 52.83 66.45 121.04 103.05 192.08 103.05 71.05 0 139.27-36.6 192.1-103.08 52.6-66.19 85.86-156.57 93.64-254.48l.2-2.55 2.54.26c.59.06 1.08.09 1.53.09 14.15 0 25.67-19.17 25.67-42.74 0-23.56-11.52-42.73-25.67-42.73-.45 0-.94.03-1.53.09l-2.54.25-.2-2.54c-5.92-74.54-26.65-145.14-59.94-204.18-32.74-58.07-76.09-102.37-125.35-128.1l-2.05-1.08.9-2.13a47.52 47.52 0 0 0-52.55-65.25l-2.27.44-.6-2.24c-6.9-25.52-24.53-42.66-43.88-42.66-19.37 0-37 17.16-43.89 42.7l-.6 2.25-2.29-.44a47.52 47.52 0 0 0-52.72 65.3l.92 2.13-2.06 1.07c-49.2 25.76-92.5 70.06-125.21 128.09-33.25 59-53.96 129.55-59.88 204.03l-.2 2.37-2.68-.09h-.24c-14.16 0-25.67 19.16-25.67 42.72 0 23.57 11.51 42.74 25.67 42.74l.26-.01 2.67-.1z"/><ellipse cx="959.03" cy="73.63" rx="27.95" ry="42.35"/><ellipse transform="rotate(-63.5 1020.03 98.71)" cx="1019.98" cy="98.72" rx="28.75" ry="18.97"/><ellipse transform="rotate(-26.5 899.4 98.73)" cx="899.43" cy="98.72" rx="18.97" ry="28.75"/><path d="M959.42 869.5c-35.65 0-70.21-9.73-102.74-28.93-31.35-18.5-59.48-44.97-83.63-78.67-49.54-69.13-76.82-161.01-76.82-258.7 0-97.7 27.28-189.58 76.82-258.72 24.14-33.7 52.28-60.16 83.63-78.66 32.52-19.2 67.1-28.94 102.74-28.94s70.21 9.74 102.74 28.94c31.35 18.5 59.48 44.97 83.63 78.66 49.54 69.14 76.82 161.02 76.82 258.71 0 97.7-27.28 189.58-76.82 258.71-24.15 33.7-52.28 60.17-83.63 78.67-32.53 19.2-67.1 28.94-102.74 28.94zm0-727.62c-68.8 0-133.55 37.47-182.3 105.52-48.94 68.29-75.9 159.13-75.9 255.8s26.96 187.5 75.9 255.8c48.75 68.03 113.5 105.5 182.3 105.5 68.8 0 133.55-37.47 182.3-105.5 48.94-68.3 75.89-159.15 75.89-255.8s-26.95-187.51-75.89-255.8c-48.75-68.05-113.5-105.52-182.3-105.52z"/><path fill="#FFF" d="M218.67 819.27c-59.22 0-104.4-14.78-104.87-14.93a2.5 2.5 0 1 1 1.57-4.75c.48.16 48.67 15.9 110.56 14.6 36.27-.76 70.08-7.13 100.5-18.94 37.97-14.75 70.74-38.07 97.42-69.32a2.5 2.5 0 1 1 3.8 3.25c-27.24 31.9-60.72 55.72-99.5 70.76-30.98 12.02-65.4 18.5-102.27 19.26-2.42.05-4.83.07-7.2.07zm-139.7-57.59a2.5 2.5 0 0 1-2.14-3.78 217.53 217.53 0 0 1 122.71-96.72 2.5 2.5 0 0 1 1.48 4.77 212.53 212.53 0 0 0-119.9 94.51 2.5 2.5 0 0 1-2.15 1.22z"/><path fill="#FFF" d="M448.88 761.68a2.5 2.5 0 0 1-2.15-1.22 214.02 214.02 0 0 0-76.16-75.33 212.5 212.5 0 0 0-106.64-28.64c-16.08 0-28.07 1.84-41.13 4.6a2.5 2.5 0 0 1-1.04-4.9c13.37-2.82 25.66-4.7 42.17-4.7 38.4 0 76.14 10.14 109.15 29.31a219.02 219.02 0 0 1 77.95 77.1 2.5 2.5 0 0 1-2.14 3.78z"/><path d="M385.2 505.5a65.56 65.56 0 0 1-50.74-23.67l-12.77-15.28a2.5 2.5 0 0 1 .27-3.5c2.36-2.04 3.4-5.55 4.49-9.26.83-2.82 1.7-5.73 3.22-8.17 1.6-2.55 3.9-4.66 6.14-6.7 2.85-2.6 5.53-5.07 6.26-7.96.73-2.93-.49-6.39-1.78-10.04-1-2.84-2.03-5.77-2.23-8.74-.2-2.93.43-5.94 1.04-8.86.8-3.82 1.54-7.43.4-10.29-1.09-2.69-4.05-4.74-7.2-6.91-2.51-1.74-5.12-3.55-7.1-5.92-1.98-2.36-3.3-5.25-4.56-8.04-1.58-3.47-3.08-6.75-5.53-8.3-2.61-1.63-6.3-1.53-10.2-1.43-2.98.09-6.05.17-8.9-.55-2.89-.72-5.6-2.26-8.2-3.74-3.37-1.92-6.55-3.75-9.58-3.53-2.97.2-5.87 2.41-8.93 4.75-2.4 1.84-4.9 3.73-7.69 4.86-2.67 1.07-5.69 1.4-8.6 1.72-3.86.42-7.5.82-9.93 2.77a2.5 2.5 0 0 1-3.49-.35l-12.77-15.28a66.07 66.07 0 0 1 8.3-92.96 65.58 65.58 0 0 1 48.2-15.1 65.56 65.56 0 0 1 44.75 23.4 65.43 65.43 0 0 1 12.04 21.65 65.9 65.9 0 0 1 76.61 18.35 66.4 66.4 0 0 1 5.72 76.68 66.07 66.07 0 0 1 4.98 105.04 65.5 65.5 0 0 1-42.21 15.37zm-58.26-40.46 11.36 13.59a60.6 60.6 0 0 0 41.37 21.63 60.58 60.58 0 0 0 44.55-13.96 61.06 61.06 0 0 0-6.54-98.36 2.5 2.5 0 0 1-.75-3.5 61.34 61.34 0 0 0-4.05-72.81 60.9 60.9 0 0 0-73.24-15.85 2.5 2.5 0 0 1-3.5-1.57 60.5 60.5 0 0 0-11.9-22.58A60.6 60.6 0 0 0 282.85 250a60.6 60.6 0 0 0-44.54 13.96 61.06 61.06 0 0 0-7.67 85.91L242 363.46c3.17-1.7 6.86-2.1 10.45-2.5 2.7-.29 5.25-.57 7.28-1.39 2.17-.87 4.28-2.48 6.52-4.19 3.52-2.68 7.16-5.46 11.64-5.76 4.52-.3 8.51 1.97 12.37 4.17 2.43 1.38 4.73 2.69 6.95 3.24 2.18.55 4.79.48 7.55.4 4.47-.12 9.1-.25 13 2.2 3.72 2.34 5.6 6.46 7.42 10.45 1.18 2.6 2.3 5.07 3.84 6.91 1.55 1.85 3.77 3.39 6.12 5.01 3.6 2.5 7.34 5.08 8.98 9.16 1.71 4.27.77 8.8-.14 13.18-.56 2.7-1.1 5.26-.95 7.5.16 2.29 1.04 4.78 1.97 7.41 1.47 4.2 3 8.53 1.9 12.92-1.09 4.35-4.46 7.44-7.73 10.43-2.07 1.9-4.03 3.7-5.28 5.67-1.16 1.86-1.89 4.32-2.66 6.93-1.01 3.46-2.06 7.02-4.3 9.84z"/><path d="M211.78 682.66c-6.62 0-12-5.38-12-12V556.82a114.97 114.97 0 0 1-97.74-29.77 114.95 114.95 0 0 1-34.76-99.37 2.5 2.5 0 0 1 1.99-2.1 114.95 114.95 0 0 1 101.16 29.15 113.67 113.67 0 0 1 29.4 45.22c.48-9.2 4.2-34.7 29.4-56.1l9.65-77.29a2.5 2.5 0 0 1 .98-1.68c.08-.08.18-.15.28-.21 3.54-2.74 8-3.23 12.32-3.7 2.7-.3 5.25-.58 7.29-1.4 2.16-.87 4.28-2.48 6.51-4.19 3.52-2.68 7.16-5.46 11.64-5.76 4.52-.3 8.51 1.97 12.37 4.17 2.43 1.38 4.73 2.69 6.95 3.24 2.18.55 4.79.48 7.55.4 4.48-.12 9.1-.25 13 2.2 3.72 2.34 5.6 6.46 7.42 10.45 1.18 2.6 2.3 5.07 3.84 6.91s3.77 3.39 6.12 5.01c3.6 2.5 7.34 5.08 8.98 9.16 1.71 4.27.77 8.8-.14 13.18-.56 2.7-1.1 5.26-.94 7.5.15 2.29 1.03 4.78 1.96 7.41 1.48 4.2 3 8.53 1.9 12.92-1.08 4.35-4.46 7.44-7.73 10.43-2.07 1.9-4.03 3.7-5.27 5.67-1.17 1.86-1.9 4.32-2.67 6.93-1.23 4.18-2.5 8.5-5.84 11.5a2.5 2.5 0 0 1-2.85.7l-79.01-4.14c-8.4 7.5-14.28 16.24-17.47 26-2.5 7.66-2.3 13.07-2.3 13.12v168.28a12 12 0 0 1-11.99 12zm-9.5-131.33a2.5 2.5 0 0 1 2.5 2.5v116.83a7 7 0 0 0 14 0V502.63c-.02-.22-1.07-23.58 22.24-43.8a2.53 2.53 0 0 1 1.77-.61l79.85 4.18c1.89-2.1 2.83-5.27 3.81-8.62.83-2.81 1.7-5.73 3.22-8.16 1.6-2.55 3.91-4.66 6.14-6.7 2.85-2.6 5.53-5.07 6.26-7.96.73-2.94-.48-6.39-1.77-10.04-1-2.84-2.04-5.77-2.24-8.74-.2-2.93.43-5.94 1.04-8.86.8-3.82 1.55-7.43.4-10.29-1.09-2.69-4.05-4.74-7.19-6.91-2.52-1.74-5.13-3.55-7.1-5.92-1.99-2.36-3.3-5.25-4.57-8.04-1.58-3.47-3.07-6.75-5.53-8.3-2.61-1.63-6.3-1.53-10.2-1.43-2.97.09-6.05.17-8.9-.55-2.89-.72-5.59-2.26-8.2-3.74-3.37-1.92-6.55-3.75-9.57-3.53-2.98.2-5.87 2.41-8.94 4.75-2.4 1.84-4.9 3.73-7.69 4.86-2.66 1.07-5.68 1.4-8.6 1.72-3.54.39-6.89.75-9.3 2.32l-9.63 77.19a2.5 2.5 0 0 1-.88 1.61c-28.57 23.75-28.52 52.8-28.42 56.04v16.5a2.5 2.5 0 0 1-4.96.41 108.68 108.68 0 0 0-32.83-61.65 109.94 109.94 0 0 0-95-28.2 109.95 109.95 0 0 0 33.49 93.26 110 110 0 0 0 96.33 27.96c.15-.04.31-.05.47-.05zm29.32-106.2z"/><path d="M263.19 869.5c-35.65 0-70.21-9.74-102.74-28.95-31.35-18.51-59.48-45-83.63-78.72C27.28 692.65 0 600.72 0 502.96c0-97.76 27.28-189.7 76.82-258.87 24.15-33.72 52.28-60.2 83.63-78.72 32.53-19.21 67.1-28.95 102.74-28.95 35.65 0 70.21 9.74 102.74 28.95 31.35 18.52 59.48 45 83.63 78.72 49.54 69.18 76.82 161.11 76.82 258.87 0 97.76-27.28 189.7-76.82 258.88-24.15 33.71-52.28 60.2-83.63 78.71-32.53 19.21-67.1 28.96-102.74 28.96zm0-728.08c-68.8 0-133.55 37.5-182.3 105.58C31.95 315.34 5 406.24 5 502.96S31.95 690.6 80.89 758.92c48.75 68.09 113.5 105.59 182.3 105.59s133.55-37.5 182.3-105.59c48.94-68.33 75.89-159.24 75.89-255.96S494.43 315.34 445.49 247C396.74 178.9 332 141.42 263.2 141.42z"/><path d="m242.99 452.44-4.48-2.18 37.22-99.02 4.68 1.76-27.84 74.06 41.91-68.9 4.27 2.6z"/><path d="m242.46 453.06-3.52-3.53 75.59-89.4 3.82 3.23-56.62 66.95 63.78-53.62 3.22 3.82z"/><path d="m241.76 453.47-2.17-4.49 100.96-59.04 2.53 4.32-73.21 42.81 69.77-27.39 1.83 4.66z"/><path d="m240.97 453.64-.58-4.95 103.64-19.58.93 4.91-68.75 12.99 55.46-2.56.23 4.99z"/><path d="m242.51 455.2-12.27-7.96 2.72-4.2 6.23 4.05 19.05-85.74 4.88 1.09z"/><path d="m238.41 451.6 4.91-.93 1.8 9.57-4.9.92zm-33.63 108.05L68.03 429.84l3.44-3.62 128.31 121.79V519.6h5z"/><path d="m72.39 473.76-.61-4.97 36.09-4.42v-36.34h5v40.76zm15.76 35.09-.77-4.94 53.2-8.31-2.65-58.48 4.99-.22 2.86 62.95zm35.64 33.58-1.15-4.86 49.63-11.83v-63.01h5v66.96z"/><path fill="#FFF" d="M201.26 706.08c-1.46 0-2.9-.01-4.3-.04-34.53-.75-57.32-9.8-58.27-10.2a2.5 2.5 0 0 1 1.87-4.63c.23.1 23.05 9.14 56.73 9.83 31 .66 77.87-5.9 124.97-40.63a2.5 2.5 0 1 1 2.97 4.02c-46.2 34.07-92.2 41.65-123.97 41.65zm4.5 58.96c-5.63 0-11.3-.18-17.02-.55-55.48-3.5-95.53-23.2-95.93-23.4a2.5 2.5 0 0 1 2.23-4.47c.4.2 39.69 19.5 94.21 22.9 31.96 2 62.81-1.78 91.73-11.21 36.14-11.8 69.35-32.52 98.72-61.61a2.5 2.5 0 0 1 3.52 3.55c-29.96 29.68-63.87 50.82-100.8 62.85a246.81 246.81 0 0 1-76.66 11.94zm409.08 101.97a2.5 2.5 0 0 1 5-.01 2.5 2.5 0 0 1-5 .01zm-23.72.76a2.5 2.5 0 0 1-2.14-2.8 2.5 2.5 0 1 1 4.95.67 2.5 2.5 0 0 1-2.47 2.15c-.12 0-.23 0-.34-.02zm49.63-2.26a2.5 2.5 0 0 1 4.95-.69 2.49 2.49 0 0 1-2.13 2.82 2.51 2.51 0 0 1-2.82-2.13zm-75.39-3.02a2.5 2.5 0 0 1-1.74-3.07 2.49 2.49 0 0 1 3.07-1.75 2.5 2.5 0 0 1 1.75 3.08 2.52 2.52 0 0 1-2.41 1.83c-.22 0-.44-.03-.67-.09zm100.86-1.98a2.5 2.5 0 1 1 4.81-1.35 2.5 2.5 0 0 1-1.73 3.08 2.48 2.48 0 0 1-3.08-1.73zm-125.68-6.65a2.5 2.5 0 0 1 1.94-4.61 2.5 2.5 0 0 1-.97 4.81c-.33 0-.65-.07-.97-.2zm150.27-1.68a2.49 2.49 0 1 1 4.59-1.96 2.49 2.49 0 0 1-1.31 3.28 2.5 2.5 0 0 1-3.28-1.32zM517 842.21a2.5 2.5 0 0 1-.93-3.4 2.5 2.5 0 0 1 3.41-.94 2.5 2.5 0 0 1 .93 3.41 2.52 2.52 0 0 1-2.17 1.26c-.42 0-.85-.1-1.24-.33zm197.16-1.38a2.5 2.5 0 0 1 .92-3.42 2.5 2.5 0 0 1 2.5 4.34 2.52 2.52 0 0 1-3.42-.92zm-219.19-12.9a2.5 2.5 0 0 1-.54-3.49 2.5 2.5 0 0 1 4.04 2.94 2.52 2.52 0 0 1-2.03 1.03c-.51 0-1.02-.16-1.47-.48zm241.08-1.09a2.49 2.49 0 0 1 .54-3.49 2.5 2.5 0 0 1 2.96 4.03 2.5 2.5 0 0 1-3.5-.54zm-261.46-15.43a2.5 2.5 0 1 1 3.34-3.72c1.03.92 1.12 2.5.19 3.53a2.5 2.5 0 0 1-3.53.19zm281.75-.8a2.5 2.5 0 1 1 3.71-3.35 2.5 2.5 0 0 1-.18 3.53 2.47 2.47 0 0 1-3.53-.18zm-300.43-17.59v.01a2.5 2.5 0 0 1 3.67-3.4 2.5 2.5 0 0 1-.14 3.53 2.5 2.5 0 0 1-3.53-.14zm319.04-.54a2.5 2.5 0 0 1 3.39-3.67 2.5 2.5 0 0 1 .15 3.53 2.5 2.5 0 0 1-3.54.14zm16.95-19.7a2.5 2.5 0 0 1-.44-3.5 2.5 2.5 0 1 1 3.95 3.07 2.5 2.5 0 0 1-3.51.43zm-368.28-20.95a2.49 2.49 0 0 1 .7-3.46 2.5 2.5 0 1 1 2.76 4.16 2.5 2.5 0 0 1-3.46-.7zm383.58-.06a2.5 2.5 0 1 1 2.75-4.18 2.5 2.5 0 0 1 .71 3.47 2.48 2.48 0 0 1-2.09 1.12c-.47 0-.95-.13-1.37-.4zm-397.26-22.25a2.5 2.5 0 0 1 .95-3.4 2.49 2.49 0 0 1 3.4.94 2.48 2.48 0 0 1-2.17 3.72 2.5 2.5 0 0 1-2.18-1.26zm410.94.14a2.5 2.5 0 0 1-.96-3.4 2.5 2.5 0 1 1 4.36 2.45 2.5 2.5 0 0 1-2.18 1.27c-.41 0-.83-.1-1.22-.32zm12.11-23a2.5 2.5 0 0 1-1.19-3.33 2.52 2.52 0 0 1 3.34-1.19 2.5 2.5 0 0 1-1.08 4.76c-.36 0-.73-.08-1.07-.24zM387.3 682.38a2.5 2.5 0 0 1 4.64-1.88 2.5 2.5 0 0 1-1.38 3.26 2.5 2.5 0 0 1-3.26-1.38zm456.26.53a2.5 2.5 0 1 1 1.86-4.64 2.5 2.5 0 0 1-.93 4.82 2.5 2.5 0 0 1-.93-.18zm-465.3-25.07a2.5 2.5 0 1 1 4.74-1.58 2.5 2.5 0 0 1-1.58 3.16 2.5 2.5 0 0 1-3.16-1.58zm474.38.71a2.5 2.5 0 0 1 1.58-4.75 2.5 2.5 0 0 1-.79 4.88c-.26 0-.53-.05-.79-.13zm-481.96-25.73a2.5 2.5 0 0 1 1.76-3.06c1.33-.37 2.7.42 3.06 1.75h.01a2.5 2.5 0 0 1-1.76 3.07 2.5 2.5 0 0 1-3.07-1.76zm489.59.87a2.5 2.5 0 1 1 1.3-4.82 2.5 2.5 0 0 1 1.76 3.06 2.5 2.5 0 0 1-2.41 1.85c-.21 0-.43-.03-.65-.09zm-495.74-26.27a2.5 2.5 0 1 1 4.89-1.04 2.49 2.49 0 0 1-1.92 2.96 2.5 2.5 0 0 1-2.97-1.92zm501.94 1.03a2.5 2.5 0 0 1-1.93-2.97v.01a2.5 2.5 0 0 1 2.96-1.94 2.5 2.5 0 0 1-.51 4.95c-.17 0-.35-.02-.52-.05zm-506.69-26.73a2.5 2.5 0 0 1 2.08-2.85 2.5 2.5 0 0 1 .78 4.94l-.39.03a2.5 2.5 0 0 1-2.47-2.12zm511.5 1.18a2.5 2.5 0 0 1 .76-4.95 2.51 2.51 0 0 1-.38 4.98c-.12 0-.25 0-.38-.03zm-514.87-27.08a2.5 2.5 0 1 1 4.97-.52 2.49 2.49 0 0 1-2.23 2.74l-.26.02a2.5 2.5 0 0 1-2.48-2.24zm518.31 1.31a2.5 2.5 0 1 1 .5-4.98 2.5 2.5 0 0 1 2.23 2.74 2.5 2.5 0 0 1-2.48 2.25 2 2 0 0 1-.25 0zm-520.33-27.36a2.5 2.5 0 1 1 4.99-.26 2.5 2.5 0 0 1-2.36 2.62l-.14.01a2.5 2.5 0 0 1-2.49-2.37zm522.42 1.44a2.5 2.5 0 0 1-2.37-2.62 2.5 2.5 0 1 1 4.99.25 2.51 2.51 0 0 1-2.5 2.38h-.12zm-523.12-27.56a2.5 2.5 0 0 1 2.5-2.5 2.5 2.5 0 1 1 .01 5 2.52 2.52 0 0 1-2.51-2.5zm521.38-.92a2.5 2.5 0 0 1 5 0 2.5 2.5 0 0 1-5 0zm-518.38-22.57a2.5 2.5 0 0 1-2.37-2.62 2.5 2.5 0 1 1 4.99.24 2.5 2.5 0 0 1-2.49 2.38h-.13zm517.72-3.29a2.5 2.5 0 0 1 2.37-2.63 2.51 2.51 0 0 1 2.63 2.37c.06 1.38-1 2.56-2.38 2.63h-.13a2.5 2.5 0 0 1-2.49-2.37zM358.5 454.22a2.49 2.49 0 0 1-2.23-2.74v.01a2.5 2.5 0 1 1 4.97.5 2.5 2.5 0 0 1-2.48 2.25c-.09 0-.17 0-.26-.02zm513.93-3.14a2.5 2.5 0 0 1 4.98-.5v-.02a2.5 2.5 0 0 1-2.24 2.74l-.26.02a2.5 2.5 0 0 1-2.48-2.24zm-510.77-22.66a2.5 2.5 0 0 1-2.09-2.85 2.49 2.49 0 0 1 2.85-2.09c1.37.2 2.3 1.48 2.09 2.85a2.51 2.51 0 0 1-2.47 2.12c-.13 0-.25 0-.38-.03zm507.46-3a2.5 2.5 0 0 1 4.94-.77 2.51 2.51 0 0 1-2.09 2.86l-.38.03a2.5 2.5 0 0 1-2.47-2.12zm-502.94-22.6a2.5 2.5 0 0 1 1.02-4.9 2.5 2.5 0 0 1 1.94 2.96 2.5 2.5 0 0 1-2.45 2c-.17 0-.34-.03-.51-.06zm498.26-2.84v.01a2.5 2.5 0 0 1 4.9-1.04 2.5 2.5 0 0 1-1.93 2.96 2.51 2.51 0 0 1-2.97-1.93zM372.08 377.5a2.5 2.5 0 0 1-1.76-3.07 2.49 2.49 0 0 1 3.06-1.76 2.5 2.5 0 0 1-.65 4.91c-.21 0-.43-.03-.65-.08zm486.31-2.65a2.49 2.49 0 0 1 1.75-3.07 2.5 2.5 0 0 1 1.31 4.83 2.5 2.5 0 0 1-3.06-1.76zm-478.98-22.3a2.5 2.5 0 1 1 1.57-4.74 2.5 2.5 0 0 1 1.59 3.15v.01a2.5 2.5 0 0 1-2.38 1.71c-.26 0-.52-.04-.78-.13zm471.5-2.45a2.5 2.5 0 1 1 4.74-1.59h.01a2.51 2.51 0 0 1-1.58 3.17 2.5 2.5 0 0 1-3.17-1.58zm-462.73-22.02a2.5 2.5 0 1 1 1.86-4.64 2.5 2.5 0 0 1 1.39 3.25 2.5 2.5 0 0 1-2.32 1.57c-.31 0-.63-.06-.93-.18zM842 325.84a2.5 2.5 0 0 1 1.38-3.26 2.5 2.5 0 0 1 1.87 4.64 2.5 2.5 0 0 1-3.25-1.38zM398.44 304.2a2.5 2.5 0 0 1 2.14-4.52 2.5 2.5 0 0 1-1.07 4.76c-.36 0-.73-.07-1.07-.24zm433.17-2a2.5 2.5 0 1 1 4.51-2.15 2.51 2.51 0 0 1-1.18 3.32 2.49 2.49 0 0 1-3.33-1.18zm-421.39-21.17a2.5 2.5 0 0 1 2.44-4.37 2.5 2.5 0 0 1-1.22 4.69c-.41 0-.83-.1-1.22-.32zm409.48-1.76a2.5 2.5 0 0 1 .95-3.4 2.48 2.48 0 0 1 3.4.95c.68 1.2.26 2.72-.95 3.4a2.51 2.51 0 0 1-3.4-.95zm-396.13-20.55a2.5 2.5 0 1 1 2.75-4.17 2.5 2.5 0 0 1-1.38 4.58c-.47 0-.95-.13-1.37-.4zm382.67-1.48a2.5 2.5 0 0 1 .7-3.46 2.5 2.5 0 0 1 3.47.7 2.51 2.51 0 0 1-.71 3.47c-.42.28-.9.41-1.38.41-.81 0-1.6-.39-2.08-1.12zm-15.06-20.95a2.5 2.5 0 0 1 .44-3.5 2.5 2.5 0 1 1 3.07 3.95 2.49 2.49 0 0 1-3.51-.44zm-336.06-18.83a2.49 2.49 0 0 1-.15-3.53 2.5 2.5 0 1 1 3.68 3.38 2.49 2.49 0 0 1-3.53.15zm319.38-.82a2.5 2.5 0 0 1 .14-3.53 2.5 2.5 0 1 1 3.39 3.67 2.49 2.49 0 0 1-3.53-.14zm-301.11-17.66a2.5 2.5 0 1 1 3.7-3.36 2.49 2.49 0 0 1-.18 3.53 2.5 2.5 0 0 1-3.52-.17zm282.79-.44a2.5 2.5 0 1 1 3.34-3.71 2.5 2.5 0 0 1 .19 3.53c-.5.54-1.18.82-1.86.82-.6 0-1.2-.2-1.67-.64zm-262.86-16.22a2.5 2.5 0 0 1 .53-3.5 2.52 2.52 0 0 1 3.5.53 2.5 2.5 0 0 1-2.01 3.99c-.77 0-1.53-.36-2.02-1.02zm242.9 0a2.5 2.5 0 0 1 2.95-4.04 2.5 2.5 0 0 1 .54 3.5 2.5 2.5 0 0 1-2.02 1.01c-.51 0-1.03-.15-1.47-.48zm-221.34-14.49a2.51 2.51 0 0 1 .91-3.42 2.5 2.5 0 0 1 2.51 4.33 2.5 2.5 0 0 1-3.42-.91zm199.8.46h.01a2.5 2.5 0 1 1 2.48-4.34 2.5 2.5 0 0 1-1.24 4.67c-.43 0-.85-.1-1.25-.33zM537.94 155.9a2.5 2.5 0 1 1 4.6-1.97 2.5 2.5 0 0 1-1.31 3.28 2.5 2.5 0 0 1-3.29-1.3zm153.77.95a2.5 2.5 0 1 1 1.95-4.6 2.5 2.5 0 0 1-.98 4.8c-.33 0-.66-.06-.97-.2zM562.3 146.9a2.5 2.5 0 0 1 1.72-3.09c1.33-.37 2.71.4 3.09 1.73a2.5 2.5 0 0 1-1.72 3.1 2.5 2.5 0 0 1-3.09-1.73zm105.21 1.48a2.5 2.5 0 0 1-1.74-3.08 2.5 2.5 0 0 1 4.82 1.34 2.5 2.5 0 0 1-2.41 1.83c-.22 0-.44-.03-.67-.09zm-79.9-7.2a2.5 2.5 0 0 1 2.13-2.83 2.5 2.5 0 0 1 2.82 2.12 2.49 2.49 0 0 1-2.12 2.83l-.35.03a2.5 2.5 0 0 1-2.48-2.15zm54.82 2a2.5 2.5 0 1 1 .68-4.95 2.5 2.5 0 0 1-.33 4.98c-.12 0-.23-.02-.35-.04zm-26.35-1.78a2.5 2.5 0 1 1 .68-4.95 2.5 2.5 0 0 1-.33 4.98c-.12 0-.23 0-.35-.03z"/><path d="M1525.7 1063.75v2.01c0 1.06-.58 1.7-1.6 1.7-.9 0-1.53-.64-1.53-1.7v-32.16c0-1.06.58-1.7 1.6-1.7.9 0 1.53.64 1.53 1.7v13.83c1.64-2.5 4.56-3.71 7.58-3.71 6.46 0 10.8 4.93 10.8 11.87 0 6.94-4.34 11.87-10.8 11.87-3.02 0-6-1.17-7.58-3.7zm15.15-8.16c0-5.35-3.12-8.96-7.73-8.96s-7.74 3.6-7.74 8.96c0 5.35 3.13 8.96 7.74 8.96 4.6 0 7.73-3.6 7.73-8.96zm17.28 8.48c1.43-.32 3.08-.53 4.93-.53 7.32 0 11.87 2.8 11.87 7.2s-4.56 7.21-11.87 7.21-11.87-2.8-11.87-7.2c0-2.55 1.43-4.5 4.08-5.78a4.2 4.2 0 0 1 .53-7c-2.28-1.43-3.76-3.6-3.76-6.25 0-4.71 4.77-8 10.44-8 1.59 0 3.13.32 4.5.8 2.07-.06 7.37-.22 9.01-.22 1.17 0 1.75.59 1.75 1.43 0 .9-.58 1.49-1.75 1.49-.85 0-2.91-.06-4.98-.16a6.61 6.61 0 0 1 1.9 4.66c0 4.72-4.76 8-10.43 8-1.43 0-2.81-.2-4.08-.58a2.62 2.62 0 0 0-1.85 2.49c0 1 .52 1.96 1.58 2.44zm13.62 6.67c0-2.54-3.34-4.45-8.69-4.45s-8.69 1.91-8.69 4.45c0 2.55 3.34 4.46 8.7 4.46 5.34 0 8.68-1.91 8.68-4.46zm-2.01-19.02c0-3.13-3.02-5.25-7.26-5.25s-7.26 2.12-7.26 5.25 3.02 5.25 7.26 5.25 7.26-2.12 7.26-5.25zm18.34.42c0-1 .74-1.59 1.7-1.59h11.81c.95 0 1.75.59 1.75 1.54s-.8 1.54-1.75 1.54h-11.82c-.95 0-1.7-.53-1.7-1.49zm39.8 12.41c2.54 0 5.09-1.01 7.26-2.87.74-.63 1.22-1 2.01-1 .75 0 1.43.63 1.43 1.37 0 .8-.36 1.28-1.16 1.91a15.38 15.38 0 0 1-9.54 3.5c-6.84 0-12.08-4.93-12.08-11.87 0-6.94 5.25-11.87 12.08-11.87 3.71 0 7.15 1.53 9.54 3.5.8.63 1.17 1.1 1.17 1.9 0 .75-.7 1.38-1.43 1.38-.8 0-1.28-.37-2.02-1a11.24 11.24 0 0 0-7.26-2.87 8.78 8.78 0 0 0-8.85 8.96 8.8 8.8 0 0 0 8.85 8.96zm19.35-8.96c0-6.89 5.24-11.87 12.08-11.87s12.08 4.98 12.08 11.87c0 6.89-5.24 11.87-12.08 11.87s-12.08-4.98-12.08-11.87zm20.93 0c0-5.25-4.03-8.96-8.85-8.96s-8.85 3.71-8.85 8.96 4.03 8.96 8.85 8.96 8.85-3.71 8.85-8.96zm13.52-20.24c-1.17 0-1.75-.59-1.75-1.49 0-.84.58-1.43 1.75-1.43h9.48c1.06 0 1.7.64 1.7 1.7v30.04c1.96-.05 7.2-.2 8.26-.2 1.17 0 1.75.58 1.75 1.42 0 .9-.58 1.49-1.75 1.49h-19.98c-1.16 0-1.74-.59-1.74-1.49 0-.84.58-1.43 1.74-1.43.96 0 6.95.16 8.6.21v-29.04c-2.02.06-7.22.22-8.06.22zm29.14 20.24c0-6.89 5.25-11.87 12.09-11.87 6.83 0 12.08 4.98 12.08 11.87 0 6.89-5.25 11.87-12.08 11.87-6.84 0-12.09-4.98-12.09-11.87zm20.94 0a8.76 8.76 0 0 0-8.85-8.96c-4.83 0-8.85 3.71-8.85 8.96s4.02 8.96 8.85 8.96a8.76 8.76 0 0 0 8.85-8.96zm16.22-10.18v11.66c0 5.78 2.75 7.48 6.68 7.48 3.02 0 6.2-2.02 6.2-7.37v-11.77c0-1.06.58-1.7 1.59-1.7.9 0 1.53.65 1.53 1.7v20.35c0 1.06-.58 1.7-1.59 1.7-.9 0-1.53-.64-1.53-1.7v-1.53c-1.6 2.12-4.3 3.23-7.21 3.23-5.3 0-8.8-3.18-8.8-9.54v-12.5c0-1.07.58-1.7 1.59-1.7.9 0 1.54.63 1.54 1.7zm49.92 19.99c0 .9-.58 1.48-1.75 1.48h-18.97c-1.17 0-1.75-.59-1.75-1.49 0-.84.58-1.43 1.75-1.43 1.59 0 4.03.16 5.62.21V1047c-1.49.06-4.08.22-5.62.22-1.17 0-1.75-.59-1.75-1.49 0-.85.58-1.43 1.75-1.43h7.05c1.06 0 1.7.64 1.7 1.7v1.53c1.32-2.65 4.4-3.81 7.15-3.81 1.7 0 3.87.42 5.35 1.48.69.48 1 1.01 1 1.7 0 .9-.68 1.48-1.42 1.48a4 4 0 0 1-2.07-.69 7.13 7.13 0 0 0-3.76-1.06c-3.82 0-6.26 3.4-6.26 8.11v9.43c2.39-.05 8.27-.2 10.23-.2 1.17 0 1.75.58 1.75 1.42zm-604.57-1.65v2.01c0 1.06-.58 1.7-1.59 1.7-.9 0-1.53-.64-1.53-1.7v-32.16c0-1.06.58-1.7 1.59-1.7.9 0 1.53.64 1.53 1.7v13.83c1.65-2.5 4.56-3.71 7.58-3.71 6.47 0 10.81 4.93 10.81 11.87 0 6.94-4.34 11.87-10.8 11.87-3.03 0-6-1.17-7.59-3.7zm15.16-8.16c0-5.35-3.13-8.96-7.74-8.96-4.6 0-7.73 3.6-7.73 8.96 0 5.35 3.12 8.96 7.73 8.96s7.74-3.6 7.74-8.96zm17.28 8.48a22.7 22.7 0 0 1 4.93-.53c7.31 0 11.87 2.8 11.87 7.2s-4.56 7.21-11.87 7.21-11.87-2.8-11.87-7.2c0-2.55 1.43-4.5 4.08-5.78a4.19 4.19 0 0 1 .53-7c-2.28-1.43-3.77-3.6-3.77-6.25 0-4.71 4.77-8 10.44-8 1.6 0 3.13.32 4.5.8 2.08-.06 7.37-.22 9.02-.22 1.16 0 1.75.59 1.75 1.43 0 .9-.59 1.49-1.75 1.49-.85 0-2.92-.06-4.98-.16a6.61 6.61 0 0 1 1.9 4.66c0 4.72-4.77 8-10.44 8-1.43 0-2.8-.2-4.08-.58a2.62 2.62 0 0 0-1.85 2.49c0 1 .53 1.96 1.59 2.44zm13.62 6.67c0-2.54-3.34-4.45-8.7-4.45s-8.68 1.91-8.68 4.45c0 2.55 3.34 4.46 8.69 4.46s8.69-1.91 8.69-4.46zm-2.02-19.02c0-3.13-3.02-5.25-7.26-5.25s-7.26 2.12-7.26 5.25 3.02 5.25 7.26 5.25 7.26-2.12 7.26-5.25zm18.34.42c0-1 .74-1.59 1.7-1.59h11.82c.95 0 1.74.59 1.74 1.54s-.79 1.54-1.74 1.54h-11.82c-.96 0-1.7-.53-1.7-1.49zm50.56 13.26c0 .9-.58 1.48-1.75 1.48h-18.8c-1.18 0-1.76-.59-1.76-1.49 0-.84.58-1.43 1.75-1.43 1.43 0 6.41.16 9.01.21V1047c-2.38.06-7.58.22-8.48.22-1.17 0-1.75-.59-1.75-1.49 0-.85.58-1.43 1.75-1.43h9.91c1.06 0 1.7.64 1.7 1.7v18.17c1.43-.05 5.24-.2 6.67-.2 1.17 0 1.75.58 1.75 1.42zm-13.4-29.1c0-1.8 1.37-2.92 3.28-2.92 1.9 0 3.29 1.12 3.29 2.92 0 1.8-1.38 2.91-3.29 2.91-1.9 0-3.29-1.1-3.29-2.91zm28.4 10.33c-2.91 0-4.18 2.07-4.18 5.04v14.1c0 1.05-.53 1.69-1.54 1.69-.9 0-1.48-.64-1.48-1.7v-20.34c0-1.07.53-1.7 1.53-1.7.9 0 1.49.64 1.49 1.7v.84c1.1-1.7 2.7-2.54 4.98-2.54a5.9 5.9 0 0 1 5.46 3.13 6.18 6.18 0 0 1 5.61-3.13c4.35 0 6.63 2.7 6.63 8.27v13.78c0 1.05-.53 1.69-1.54 1.69-.9 0-1.48-.64-1.48-1.7v-13.61c0-3.55-1.12-5.52-4.19-5.52-2.91 0-4.13 2.07-4.13 5.04v14.1c0 1.05-.53 1.69-1.54 1.69-.9 0-1.48-.64-1.48-1.7v-14.1c0-2.96-1.22-5.03-4.14-5.03zm26.45 13.57c0-4.5 4.45-7.26 9.86-7.26 2.97 0 6.04.69 8.16 2.23v-1.97c0-3.97-2.65-6.57-7.58-6.57-1.8 0-3.66.32-5.62 1.33-.63.32-1.48.85-2.17.85-.95 0-1.54-.64-1.54-1.54 0-.8.64-1.32 1.65-1.85 1.37-.75 4.34-1.7 7.68-1.7 6.94 0 10.65 3.18 10.65 9.43v12.62c0 1.05-.53 1.69-1.53 1.69-.9 0-1.54-.64-1.54-1.7v-.52c-2.12 1.53-5.2 2.22-8.16 2.22-5.4 0-9.86-2.76-9.86-7.26zm18.23 0c0-2.6-2.86-4.56-7.47-4.56s-7.47 1.96-7.47 4.56c0 2.6 2.86 4.56 7.47 4.56s7.47-1.96 7.47-4.56zm18.82 3.87a22.5 22.5 0 0 1 4.93-.53c7.3 0 11.87 2.8 11.87 7.2s-4.56 7.21-11.87 7.21c-7.32 0-11.87-2.8-11.87-7.2 0-2.55 1.43-4.5 4.08-5.78a4.2 4.2 0 0 1 .53-7c-2.28-1.43-3.77-3.6-3.77-6.25 0-4.71 4.77-8 10.44-8 1.6 0 3.13.32 4.5.8 2.07-.06 7.37-.22 9.02-.22 1.16 0 1.74.59 1.74 1.43 0 .9-.58 1.49-1.74 1.49-.85 0-2.92-.06-4.99-.16a6.61 6.61 0 0 1 1.91 4.66c0 4.72-4.77 8-10.44 8-1.43 0-2.8-.2-4.08-.58a2.62 2.62 0 0 0-1.85 2.49c0 1 .53 1.96 1.59 2.44zm13.62 6.67c0-2.54-3.34-4.45-8.7-4.45s-8.69 1.91-8.69 4.45c0 2.55 3.34 4.46 8.7 4.46s8.69-1.91 8.69-4.46zm-2.02-19.02c0-3.13-3.02-5.25-7.26-5.25s-7.26 2.12-7.26 5.25 3.02 5.25 7.26 5.25 7.26-2.12 7.26-5.25zm14.21 3.92c0-7.05 5.3-11.92 12.03-11.92 6.52 0 11.66 4.45 11.66 10.92 0 1-.48 1.7-1.75 1.7h-18.71c.32 4.76 3.98 8.2 9.27 8.2 3.23 0 5.46-1 7.58-2.49.58-.37 1-.84 1.8-.84.85 0 1.49.63 1.49 1.43s-.37 1.22-1.22 1.85c-1.96 1.54-5.46 2.97-9.8 2.97-7.16 0-12.35-4.82-12.35-11.82zm3.44-2.12h16.9c-.36-4.13-4.18-6.89-8.31-6.89a8.68 8.68 0 0 0-8.59 6.9zm-540.52 7.98v2c0 1.07-.58 1.7-1.58 1.7-.9 0-1.54-.64-1.54-1.7v-32.16c0-1.06.58-1.7 1.59-1.7.9 0 1.54.64 1.54 1.7v13.83c1.64-2.5 4.55-3.71 7.57-3.71 6.47 0 10.81 4.93 10.81 11.87 0 6.94-4.34 11.87-10.8 11.87-3.03 0-6-1.16-7.58-3.7zm15.16-8.17c0-5.35-3.12-8.96-7.73-8.96s-7.74 3.6-7.74 8.96c0 5.35 3.12 8.96 7.74 8.96 4.6 0 7.73-3.6 7.73-8.96zm10.97 0c0-6.89 5.25-11.87 12.09-11.87 6.83 0 12.08 4.98 12.08 11.87 0 6.89-5.25 11.87-12.08 11.87-6.84 0-12.09-4.98-12.09-11.87zm20.94 0a8.76 8.76 0 0 0-8.85-8.96 8.76 8.76 0 0 0-8.85 8.96 8.76 8.76 0 0 0 8.85 8.96 8.76 8.76 0 0 0 8.85-8.96zm34.34 9.8c0 .9-.58 1.49-1.75 1.49H934.2c-1.17 0-1.75-.58-1.75-1.49 0-.84.58-1.43 1.75-1.43 1.59 0 4.03.16 5.62.21v-17.17c-1.49.06-4.08.22-5.62.22-1.17 0-1.75-.59-1.75-1.49 0-.84.58-1.43 1.75-1.43h7.05c1.06 0 1.7.64 1.7 1.7v1.53c1.32-2.64 4.4-3.81 7.15-3.81 1.7 0 3.87.42 5.35 1.48.69.48 1 1.01 1 1.7 0 .9-.68 1.48-1.42 1.48a4 4 0 0 1-2.07-.69 7.12 7.12 0 0 0-3.76-1.06c-3.82 0-6.26 3.4-6.26 8.11v9.43c2.39-.05 8.27-.2 10.23-.2 1.17 0 1.75.58 1.75 1.42zm8.43-9.8c0-6.94 4.35-11.87 10.81-11.87 3.02 0 5.94 1.22 7.58 3.7v-13.82c0-1.06.64-1.7 1.54-1.7 1 0 1.59.64 1.59 1.7v32.17c0 1.06-.64 1.7-1.54 1.7-1 0-1.6-.65-1.6-1.7v-2.02c-1.58 2.54-4.55 3.71-7.57 3.71-6.46 0-10.81-4.93-10.81-11.87zm18.7 0c0-5.35-3.12-8.96-7.73-8.96s-7.74 3.6-7.74 8.96c0 5.35 3.13 8.96 7.74 8.96s7.74-3.6 7.74-8.96zm13.31.05c0-7.05 5.3-11.92 12.03-11.92 6.52 0 11.66 4.45 11.66 10.92 0 1-.48 1.7-1.75 1.7h-18.7c.31 4.76 3.97 8.2 9.27 8.2 3.23 0 5.46-1 7.58-2.48.58-.38 1-.85 1.8-.85.85 0 1.48.63 1.48 1.43 0 .8-.37 1.22-1.22 1.85-1.96 1.54-5.46 2.97-9.8 2.97-7.16 0-12.35-4.82-12.35-11.82zm3.45-2.12h16.9c-.37-4.13-4.19-6.89-8.32-6.89a8.68 8.68 0 0 0-8.58 6.9zm51.51 11.87c0 .9-.58 1.49-1.75 1.49h-18.97c-1.17 0-1.75-.58-1.75-1.49 0-.84.58-1.43 1.75-1.43 1.59 0 4.03.16 5.62.21v-17.17c-1.49.06-4.09.22-5.62.22-1.17 0-1.75-.59-1.75-1.49 0-.84.58-1.43 1.75-1.43h7.05c1.06 0 1.7.64 1.7 1.7v1.53c1.32-2.64 4.4-3.81 7.15-3.81 1.7 0 3.86.42 5.35 1.48.69.48 1 1.01 1 1.7 0 .9-.68 1.48-1.42 1.48a4 4 0 0 1-2.07-.69 7.12 7.12 0 0 0-3.76-1.06c-3.82 0-6.26 3.4-6.26 8.11v9.43c2.39-.05 8.27-.2 10.23-.2 1.17 0 1.75.58 1.75 1.42zm-543.69 1.42c2.54 0 5.08-1.01 7.26-2.87.74-.63 1.21-1 2.01-1 .74 0 1.43.63 1.43 1.37 0 .8-.37 1.28-1.17 1.91a15.39 15.39 0 0 1-9.53 3.5c-6.84 0-12.09-4.93-12.09-11.87 0-6.94 5.25-11.87 12.09-11.87 3.7 0 7.15 1.53 9.53 3.5.8.63 1.17 1.1 1.17 1.9 0 .75-.69 1.38-1.43 1.38-.8 0-1.27-.37-2.01-1a11.24 11.24 0 0 0-7.26-2.87 8.78 8.78 0 0 0-8.85 8.96 8.79 8.79 0 0 0 8.85 8.96zm23.68 2.91c-.9 0-1.53-.64-1.53-1.7v-32.16c0-1.06.58-1.7 1.6-1.7.9 0 1.53.64 1.53 1.7v13.35c1.59-2.33 4.29-3.23 7.2-3.23 5.3 0 8.8 3.18 8.8 9.54v12.5c0 1.06-.58 1.7-1.59 1.7-.9 0-1.53-.64-1.53-1.7v-11.81c0-5.3-2.76-7.31-6.2-7.31-3.77 0-6.68 2-6.68 7.36v11.77c0 1.05-.59 1.69-1.6 1.69zm50.67-2.06c0 .9-.58 1.48-1.75 1.48h-18.8c-1.17 0-1.76-.59-1.76-1.49 0-.84.59-1.43 1.75-1.43 1.43 0 6.41.16 9.01.21V1047c-2.38.06-7.58.22-8.48.22-1.16 0-1.75-.59-1.75-1.49 0-.85.59-1.43 1.75-1.43h9.91c1.06 0 1.7.64 1.7 1.7v18.17c1.43-.05 5.24-.2 6.67-.2 1.17 0 1.75.58 1.75 1.42zm-13.4-29.1c0-1.8 1.37-2.92 3.28-2.92 1.9 0 3.29 1.12 3.29 2.92 0 1.8-1.38 2.91-3.29 2.91-1.9 0-3.28-1.1-3.28-2.91zm24.64-.95c-1.17 0-1.75-.59-1.75-1.49 0-.84.58-1.43 1.75-1.43h9.49c1.06 0 1.7.64 1.7 1.7v30.04c1.95-.05 7.2-.2 8.26-.2 1.17 0 1.75.58 1.75 1.42 0 .9-.58 1.49-1.75 1.49h-19.98c-1.16 0-1.75-.59-1.75-1.49 0-.84.59-1.43 1.75-1.43.96 0 6.94.16 8.59.21v-29.04c-2.02.06-7.21.22-8.06.22zm29.26 20.24c0-6.94 4.34-11.87 10.8-11.87 3.03 0 5.94 1.22 7.59 3.7v-13.82c0-1.06.63-1.7 1.53-1.7 1.01 0 1.6.64 1.6 1.7v32.17c0 1.05-.64 1.69-1.54 1.69-1.01 0-1.6-.64-1.6-1.7v-2c-1.58 2.53-4.55 3.7-7.57 3.7-6.47 0-10.81-4.93-10.81-11.87zm18.7 0c0-5.35-3.12-8.96-7.73-8.96s-7.74 3.6-7.74 8.96c0 5.35 3.13 8.96 7.74 8.96 4.6 0 7.73-3.6 7.73-8.96zm36.47 9.81c0 .9-.59 1.48-1.75 1.48h-18.97c-1.17 0-1.75-.59-1.75-1.49 0-.84.58-1.43 1.75-1.43 1.59 0 4.02.16 5.61.21V1047c-1.48.06-4.08.22-5.61.22-1.17 0-1.75-.59-1.75-1.49 0-.85.58-1.43 1.75-1.43h7.04c1.06 0 1.7.64 1.7 1.7v1.53c1.32-2.65 4.4-3.81 7.15-3.81 1.7 0 3.87.42 5.36 1.48.69.48 1 1.01 1 1.7 0 .9-.69 1.48-1.43 1.48-.8 0-1.43-.32-2.06-.69a7.13 7.13 0 0 0-3.77-1.06c-3.81 0-6.25 3.4-6.25 8.11v9.43c2.38-.05 8.27-.2 10.23-.2 1.16 0 1.75.58 1.75 1.42zm8.64-9.76c0-7.05 5.3-11.92 12.03-11.92 6.52 0 11.66 4.45 11.66 10.92 0 1-.48 1.7-1.75 1.7H688.5c.32 4.76 3.98 8.2 9.27 8.2 3.24 0 5.46-1 7.58-2.49.58-.37 1-.84 1.8-.84.85 0 1.49.63 1.49 1.43s-.37 1.22-1.22 1.85c-1.96 1.54-5.46 2.97-9.8 2.97-7.16 0-12.35-4.82-12.35-11.82zm3.44-2.12h16.9c-.36-4.13-4.18-6.89-8.31-6.89s-7.69 2.76-8.59 6.9zm46.85 12.25v-11.82c0-5.3-2.75-7.31-6.2-7.31-3.76 0-6.68 2-6.68 7.36v11.77c0 1.06-.58 1.7-1.59 1.7-.9 0-1.53-.65-1.53-1.7v-20.35c0-1.06.58-1.7 1.59-1.7.9 0 1.53.64 1.53 1.7v1.53c1.6-2.33 4.3-3.23 7.21-3.23 5.3 0 8.8 3.18 8.8 9.54v12.5c0 1.07-.58 1.7-1.6 1.7-.9 0-1.53-.64-1.53-1.7zm-576.07-10.18c0-6.89 5.25-11.87 12.09-11.87 6.83 0 12.08 4.98 12.08 11.87s-5.24 11.87-12.08 11.87-12.08-4.98-12.08-11.87zm20.94 0a8.76 8.76 0 0 0-8.85-8.96c-4.82 0-8.85 3.71-8.85 8.96s4.03 8.96 8.85 8.96a8.76 8.76 0 0 0 8.85-8.96zm16.22-10.18v11.66c0 5.78 2.75 7.48 6.67 7.48 3.03 0 6.2-2.02 6.2-7.37v-11.77c0-1.06.59-1.7 1.6-1.7.9 0 1.53.65 1.53 1.7v20.35c0 1.06-.58 1.7-1.59 1.7-.9 0-1.54-.64-1.54-1.7v-1.53c-1.59 2.12-4.29 3.23-7.2 3.23-5.3 0-8.8-3.18-8.8-9.54v-12.5c0-1.07.58-1.7 1.6-1.7.9 0 1.53.63 1.53 1.7zm49.02.32c0 .9-.58 1.49-1.75 1.49-1.59 0-8.1-.16-10.44-.22v9.97c0 5.4 1.75 7.57 5.51 7.57 1.44 0 2.92-.37 3.71-.68 1.12-.43 1.6-.7 2.34-.7.74 0 1.32.54 1.32 1.33 0 .96-.58 1.43-1.9 2.02-1.12.47-3.35.95-5.47.95-6.04 0-8.63-3.13-8.63-10.44V1047c-1.6.06-4.72.22-6.26.22-1.16 0-1.75-.59-1.75-1.49 0-.85.59-1.43 1.75-1.43h6.26v-7.95c0-1.06.58-1.7 1.59-1.7.9 0 1.53.64 1.53 1.7v7.95h10.44c1.17 0 1.75.58 1.75 1.43zm11.88-10.38c-1.17 0-1.75-.59-1.75-1.49 0-.85.58-1.43 1.75-1.43h9.48c1.06 0 1.7.64 1.7 1.7v30.04c1.96-.05 7.2-.2 8.26-.2 1.17 0 1.75.57 1.75 1.42 0 .9-.58 1.49-1.75 1.49h-19.97c-1.17 0-1.75-.59-1.75-1.49 0-.85.58-1.43 1.75-1.43.95 0 6.94.16 8.58.21v-29.04c-2.01.06-7.2.21-8.06.21zm52.36 30.05c0 .9-.59 1.48-1.75 1.48h-18.82c-1.16 0-1.74-.59-1.74-1.49 0-.85.58-1.43 1.74-1.43 1.44 0 6.42.16 9.01.21V1047c-2.38.06-7.57.22-8.48.22-1.16 0-1.74-.59-1.74-1.49 0-.85.58-1.43 1.74-1.43h9.91c1.06 0 1.7.64 1.7 1.7v18.17c1.43-.05 5.25-.2 6.68-.2 1.16 0 1.75.58 1.75 1.42zm-13.41-29.1c0-1.8 1.38-2.92 3.28-2.92 1.91 0 3.29 1.12 3.29 2.92s-1.38 2.91-3.29 2.91c-1.9 0-3.28-1.1-3.28-2.91zm40.81 29.46v-11.81c0-5.3-2.76-7.32-6.2-7.32-3.77 0-6.68 2.02-6.68 7.37v11.76c0 1.06-.58 1.7-1.59 1.7-.9 0-1.54-.64-1.54-1.7v-20.35c0-1.06.59-1.7 1.6-1.7.9 0 1.53.65 1.53 1.7v1.54c1.59-2.33 4.3-3.23 7.2-3.23 5.3 0 8.8 3.18 8.8 9.54v12.5c0 1.07-.58 1.7-1.59 1.7-.9 0-1.53-.64-1.53-1.7zm13.3-10.12c0-7.05 5.3-11.92 12.03-11.92 6.52 0 11.66 4.45 11.66 10.92 0 1-.48 1.7-1.75 1.7h-18.7c.31 4.76 3.97 8.2 9.27 8.2 3.23 0 5.46-1 7.58-2.49.58-.37 1-.84 1.8-.84.85 0 1.48.63 1.48 1.43 0 .8-.37 1.22-1.22 1.85-1.96 1.54-5.46 2.97-9.8 2.97-7.16 0-12.35-4.82-12.35-11.82zm3.45-2.12h16.9c-.37-4.13-4.19-6.89-8.32-6.89s-7.68 2.76-8.58 6.9z" fill="#FFF" stroke="#FFF" stroke-width=".25" stroke-miterlimit="10"/><circle fill="#FFD829" cx="1659.31" cy="970.51" r="37.47"/><path fill="#FFF" stroke="#FFF" stroke-width=".25" stroke-miterlimit="10" d="M1648.71 982.58c0-.8.55-1.45 1.65-1.45 2 0 6.95.15 8.85.2v-23.05l-7.55 4.1c-.7.35-1.25.55-1.75.55-.85 0-1.4-.6-1.4-1.45 0-.65.35-1.15 1.25-1.6l8.95-4.4c.6-.3 1.4-.7 2.15-.7.9 0 1.4.65 1.4 1.75v24.8c1.5-.05 5.3-.2 6.85-.2 1.1 0 1.65.65 1.65 1.45s-.55 1.45-1.65 1.45h-18.75c-1.1 0-1.65-.65-1.65-1.45z"/><circle fill="#FFD829" cx="1311.05" cy="970.51" r="37.47"/><path fill="#FFF" stroke="#FFF" stroke-width=".25" stroke-miterlimit="10" d="M1311.8 954.78c5.45 0 9.65 3.1 9.65 8.4 0 5.5-4.85 9.15-10.35 13.4l-6.15 4.75c3.35-.05 15.1-.2 16.95-.2 1.1 0 1.65.65 1.65 1.45s-.55 1.45-1.65 1.45h-20.06c-.8 0-1.54-.5-1.54-1.5 0-.55.25-1.05 1.05-1.65l8.55-6.85c5.2-4.15 8.4-7 8.4-10.75 0-3.7-3-5.65-6.55-5.65-2.85 0-5.25 1.2-7.5 3.85-.5.6-.9.9-1.6.9-.8 0-1.45-.55-1.45-1.35 0-.6.14-1 .5-1.4 1.85-2.1 5.2-4.85 10.1-4.85z"/><circle fill="#FFD829" cx="959.42" cy="970.51" r="37.47"/><path fill="#FFF" stroke="#FFF" stroke-width=".25" stroke-miterlimit="10" d="M949.17 960.53c0-.55.25-1.05.7-1.5 2.05-2.1 5.2-4.25 10.25-4.25 4.85 0 9.45 2.95 9.45 7.9 0 3.1-1.9 5.7-5.35 6.6 3.6.45 6.5 3.05 6.5 6.75 0 4.75-4.25 8.7-11.15 8.7-4.9 0-8.45-2.05-10.4-4.15-.55-.6-.9-1.1-.9-1.75 0-.75.6-1.45 1.45-1.45.65 0 1.1.35 1.75 1.05 2.15 2.4 5.1 3.45 8.1 3.45 4.25 0 8-2.25 8-5.8s-3.55-5.05-7.8-5.1c-1.05 0-1.8-.45-1.8-1.45s.8-1.35 1.75-1.45c3.9-.5 6.7-2 6.7-5.4 0-3.45-3.3-5.05-6.45-5.05-3.2 0-5.5 1.1-7.8 3.5-.6.55-1 .8-1.55.8-.85 0-1.45-.55-1.45-1.4z"/><circle fill="#FFD829" cx="610.35" cy="970.51" r="37.47"/><path fill="#FFF" stroke="#FFF" stroke-width=".25" stroke-miterlimit="10" d="M623 976.63c0 .8-.55 1.35-1.65 1.35h-4.15v4.9c0 1.2-.65 1.85-1.6 1.85-.9 0-1.5-.65-1.5-1.85v-4.9h-15.25c-.95 0-1.55-.7-1.55-1.5 0-.65.3-1.05.75-1.6l16.05-19.15c.55-.65.95-.95 1.55-.95.85 0 1.55.4 1.55 1.6v18.9h4.15c1.1 0 1.65.55 1.65 1.35zm-21.85-1.35h13.1v-15.45l-13.1 15.45z"/><circle fill="#FFD829" cx="260.69" cy="970.51" r="37.47"/><path fill="#FFF" stroke="#FFF" stroke-width=".25" stroke-miterlimit="10" d="m253.69 958.18-1.55 9.7c2.3-1.35 4.8-2.4 7.85-2.4 6.15 0 10.45 3.9 10.45 9.45 0 5.5-4.35 9.8-11.3 9.8-4.9 0-8.75-2.05-10.7-4.15-.55-.6-.9-1.1-.9-1.75 0-.75.6-1.45 1.45-1.45.65 0 1.1.35 1.75 1.05 2.15 2.4 5.35 3.45 8.35 3.45 4.95 0 8.2-2.85 8.2-6.95 0-4.15-3.4-6.7-7.3-6.7-2.75 0-5.25.9-7.25 2.1-.95.6-1.5.95-2.2.95-.7 0-1.45-.45-1.45-1.4 0-.35.1-.8.2-1.5l1.85-11.55c.15-.8.65-1.35 1.6-1.35h15.05c1.1 0 1.65.65 1.65 1.45 0 .8-.55 1.45-1.65 1.45-1.95 0-11.2-.15-14.1-.2z"/><ellipse transform="rotate(-23.01 716.32 571.92)" fill="#FFF" cx="716.29" cy="571.9" rx="24.94" ry="41.96"/><path fill="#FFF" d="M726.59 611.86c-11.8 0-25.7-12.08-33.37-30.16-4.4-10.34-6.13-21.08-4.89-30.23 1.25-9.19 5.33-15.69 11.5-18.3 6.18-2.63 13.7-1.06 21.16 4.42 7.46 5.47 13.98 14.17 18.37 24.51 9.07 21.36 6.1 43.13-6.62 48.54a15.63 15.63 0 0 1-6.15 1.22zm-20.55-79.69c-2.14 0-4.19.4-6.1 1.22-6.1 2.59-10.13 9.02-11.36 18.1-1.23 9.12.5 19.81 4.87 30.11 7.64 17.99 21.43 30.01 33.12 30.02 2.11 0 4.15-.4 6.07-1.21 12.6-5.35 15.5-26.98 6.49-48.21-4.37-10.3-10.87-18.96-18.28-24.4-5.07-3.72-10.15-5.63-14.8-5.63z"/><ellipse transform="rotate(-76.5 701.18 609.2)" fill="#FFF" cx="701.22" cy="609.23" rx="18.56" ry="29.13"/><path fill="#FFF" d="M707.1 628.64a44 44 0 0 1-10.25-1.24c-15.68-3.77-26.49-14.98-24.08-25 2.4-10.02 17.12-15.11 32.8-11.34 15.7 3.76 26.5 14.98 24.09 25-1.87 7.78-11.15 12.58-22.55 12.58zm-11.8-38.58c-11.27 0-20.45 4.73-22.29 12.4-2.37 9.88 8.35 20.96 23.9 24.7 15.55 3.73 30.13-1.27 32.5-11.16 2.38-9.89-8.34-20.97-23.89-24.7a43.85 43.85 0 0 0-10.21-1.24z"/><ellipse transform="rotate(-66.45 772.6 630.2)" fill="#FFF" cx="772.65" cy="630.22" rx="24.94" ry="41.96"/><path fill="#FFF" d="M787.29 658.7c-7.81 0-16.37-1.9-24.66-5.5-21.27-9.28-34.09-27.14-28.56-39.8 2.68-6.15 9.22-10.18 18.4-11.33 9.18-1.15 19.9.68 30.2 5.17s18.93 11.1 24.32 18.6c5.41 7.52 6.92 15.05 4.24 21.2S802 657.2 792.8 658.37a44.3 44.3 0 0 1-5.52.33zM758 601.98c-1.88 0-3.72.11-5.5.34-9.1 1.14-15.57 5.11-18.21 11.18-5.47 12.54 7.28 30.24 28.43 39.47 10.25 4.47 20.93 6.3 30.05 5.15 9.1-1.15 15.57-5.12 18.22-11.18 2.64-6.07 1.15-13.5-4.2-20.96-5.38-7.46-13.98-14.04-24.24-18.51-8.25-3.6-16.78-5.49-24.55-5.49z"/><ellipse transform="rotate(-12.97 734.94 644.87)" fill="#FFF" cx="735.18" cy="644.93" rx="18.56" ry="29.13"/><path fill="#FFF" d="M739 673.75c-9.25 0-18.74-10.32-22.04-24.62-1.75-7.6-1.5-15.2.69-21.37 2.2-6.18 6.1-10.21 10.97-11.33 10.04-2.31 21.15 8.6 24.77 24.31 3.62 15.72-1.61 30.4-11.65 32.7-.9.21-1.82.31-2.73.31zm-7.65-57.38c-.9 0-1.79.1-2.68.3-4.79 1.1-8.62 5.07-10.79 11.18-2.17 6.12-2.41 13.66-.67 21.22 3.58 15.58 14.56 26.4 24.47 24.13 9.9-2.28 15.05-16.81 11.47-32.4-3.27-14.19-12.66-24.43-21.8-24.43z"/><ellipse transform="rotate(-43.33 730.08 616.17)" cx="730.08" cy="616.16" rx="29.13" ry="9.72"/><path d="M745.75 601.6a2 2 0 0 1-1.41-3.42c.17-.17 17.34-17.66 21.22-44.39 1.52-10.43-1.43-17.5-8.09-19.39-6.06-1.71-13.36 1.38-15.63 6.62-1.18 2.73-1.28 5.1-.3 7.06 1.99 3.98 7.76 5.4 7.82 5.4a2 2 0 0 1-.92 3.9c-.3-.07-7.62-1.84-10.46-7.49-1.55-3.06-1.48-6.58.19-10.46 3.06-7.08 12.4-11.14 20.4-8.88 8.67 2.46 12.77 11.36 10.96 23.82-4.08 28.08-21.62 45.9-22.36 46.64a2 2 0 0 1-1.42.58z"/><path d="M802 611.67c-1.71 0-3.32-.39-4.81-1.16-5.62-2.9-7.32-10.22-7.4-10.53a2 2 0 0 1 3.91-.87c.03.14 1.4 5.85 5.33 7.85 1.95 1 4.33.92 7.07-.23 5.26-2.22 8.42-9.5 6.75-15.58-1.83-6.67-8.87-9.68-19.32-8.26-26.8 3.65-44.4 20.66-44.57 20.83a2 2 0 0 1-2.8-2.85c.75-.74 18.72-18.11 46.83-21.94 12.48-1.7 21.34 2.48 23.72 11.17 2.2 8.01-1.95 17.32-9.06 20.31a14.58 14.58 0 0 1-5.65 1.26z"/></svg>