<svg xmlns="http://www.w3.org/2000/svg" viewBox="0 0 1080 1080" xml:space="preserve"><ellipse fill="#FFF" cx="909.26" cy="842.1" rx="169.38" ry="236.54"/><path d="M725.13 930.6c46.98 0 89.49-26.7 120.17-69.85-24.39-40.92-69.07-68.34-120.17-68.34-51.1 0-95.8 27.42-120.18 68.34 30.69 43.14 73.2 69.85 120.18 69.85z"/><g fill="#FFF"><path d="M724.08 932.43c-.9 0-1.62-.74-1.61-1.63a1.63 1.63 0 0 1 3.25.03 1.63 1.63 0 0 1-1.63 1.6h-.01zm19.74-3.03a1.63 1.63 0 0 1 3.21-.53c.14.88-.46 1.72-1.34 1.87l-.27.02c-.78 0-1.47-.57-1.6-1.36zm-41.32.97a1.62 1.62 0 1 1 .58-3.2h.01a1.63 1.63 0 0 1-.3 3.22c-.09 0-.19 0-.28-.02zm62.12-6a1.63 1.63 0 1 1 3.07-1.07c.3.84-.16 1.77-1 2.06-.18.06-.37.1-.54.1a1.64 1.64 0 0 1-1.53-1.1zm-83.02.28a1.62 1.62 0 0 1-.97-2.07 1.63 1.63 0 0 1 2.08-.97c.84.3 1.28 1.24.97 2.08a1.63 1.63 0 0 1-1.52 1.07c-.19 0-.38-.03-.56-.1zm102.72-8.68a1.63 1.63 0 0 1 2.87-1.53c.42.8.12 1.78-.67 2.2a1.62 1.62 0 0 1-2.2-.67zm-122.42-.33a1.62 1.62 0 0 1 1.58-2.84 1.62 1.62 0 0 1-.8 3.05c-.26 0-.52-.06-.78-.2zm140.64-10.91a1.63 1.63 0 0 1 2.62-1.92c.53.72.38 1.74-.34 2.27-.3.2-.63.31-.97.31-.5 0-1-.23-1.3-.66zm-158.77-.9a1.63 1.63 0 0 1 1.96-2.6c.71.55.86 1.57.32 2.28a1.63 1.63 0 0 1-2.28.32zm175.32-12.7a1.63 1.63 0 1 1 2.36-2.24c.61.65.58 1.67-.07 2.29a1.61 1.61 0 0 1-2.3-.06zm-191.72-1.4a1.62 1.62 0 1 1 2.27-2.33v.01a1.63 1.63 0 0 1-2.27 2.33zm206.52-14.1a1.62 1.62 0 1 1 2.09-2.49 1.62 1.62 0 0 1-1.05 2.87 1.6 1.6 0 0 1-1.04-.39zm-221.14-1.8c-.57-.7-.48-1.71.22-2.29a1.63 1.63 0 0 1 2.07 2.5v.01a1.62 1.62 0 0 1-2.29-.22zm-12.86-17.35a1.62 1.62 0 1 1 2.7-1.8 1.62 1.62 0 0 1-1.35 2.52 1.6 1.6 0 0 1-1.35-.72zM588.74 838a1.63 1.63 0 0 1 2.85-1.55c.43.8.14 1.77-.65 2.2a1.61 1.61 0 0 1-2.2-.65zm-9.5-19.37a1.62 1.62 0 0 1 2.98-1.3c.35.82-.02 1.78-.84 2.14a1.63 1.63 0 0 1-2.14-.83zm-7.9-20.05a1.62 1.62 0 1 1 3.06-1.08c.3.85-.15 1.77-1 2.07-.18.07-.36.1-.53.1-.67 0-1.3-.42-1.54-1.1zm-6.37-20.6a1.63 1.63 0 1 1 3.14-.85c.23.87-.28 1.76-1.15 2a1.63 1.63 0 0 1-1.99-1.14zm-4.87-21a1.62 1.62 0 1 1 3.2-.62 1.62 1.62 0 0 1-3.2.62zm-3.4-21.27c-.12-.9.51-1.7 1.4-1.82.9-.11 1.7.52 1.82 1.4.1.9-.52 1.7-1.41 1.83h-.2c-.81 0-1.51-.6-1.62-1.41zm-1.99-21.46a1.6 1.6 0 0 1 1.52-1.71 1.63 1.63 0 0 1 .2 3.24h-.1c-.85 0-1.57-.66-1.62-1.53zm1.03-19.9c-.9 0-1.63-.73-1.62-1.63a1.62 1.62 0 1 1 3.25.01c0 .9-.73 1.62-1.63 1.62zm.68-21.43a1.62 1.62 0 1 1 .22-3.24 1.62 1.62 0 0 1-.11 3.24.5.5 0 0 1-.11 0zm2.07-21.34a1.63 1.63 0 1 1 .44-3.22c.88.13 1.5.95 1.39 1.83a1.63 1.63 0 0 1-1.61 1.41c-.07 0-.14 0-.22-.02zm3.49-21.15a1.62 1.62 0 0 1-1.27-1.91 1.62 1.62 0 0 1 1.92-1.27 1.63 1.63 0 0 1 1.27 1.92c-.16.76-.84 1.3-1.6 1.3-.1 0-.21-.02-.32-.04zm4.94-20.86a1.62 1.62 0 1 1 .88-3.13 1.62 1.62 0 0 1-.44 3.19c-.15 0-.3-.01-.44-.06zm6.43-20.45a1.62 1.62 0 1 1 1.1-3.05 1.62 1.62 0 0 1-.55 3.15c-.18 0-.37-.03-.55-.1zm7.97-19.9a1.63 1.63 0 0 1-.81-2.15 1.63 1.63 0 0 1 2.15-.81 1.62 1.62 0 0 1-.68 3.1 1.6 1.6 0 0 1-.66-.14zm9.54-19.2a1.63 1.63 0 0 1-.62-2.2v-.01a1.63 1.63 0 0 1 2.84 1.6 1.63 1.63 0 0 1-2.22.62zm256.23-17c-.5-.75-.3-1.76.44-2.26a1.63 1.63 0 0 1 1.82 2.69 1.61 1.61 0 0 1-2.26-.44zm-245.04-1.28a1.62 1.62 0 0 1-.41-2.26c.5-.73 1.52-.92 2.26-.42a1.63 1.63 0 0 1-.92 2.96c-.32 0-.65-.08-.93-.28zM834.35 516a1.62 1.62 0 1 1 2.5-2.08c.56.7.47 1.72-.22 2.29a1.61 1.61 0 0 1-2.29-.2zm-219.42-1.38a1.63 1.63 0 0 1-.18-2.29 1.62 1.62 0 0 1 2.48 2.1 1.63 1.63 0 0 1-2.3.19zm204.95-14.19a1.63 1.63 0 0 1-.04-2.3 1.64 1.64 0 0 1 2.3-.04 1.64 1.64 0 0 1-1.13 2.8c-.4 0-.81-.15-1.13-.46zm-190.33-1.47a1.64 1.64 0 0 1 .07-2.3 1.64 1.64 0 0 1 2.3.07c.61.65.58 1.68-.07 2.3-.32.3-.72.43-1.11.43-.44 0-.87-.16-1.19-.5zm174.16-12.26a1.63 1.63 0 0 1-.34-2.27 1.62 1.62 0 0 1 2.28-.33c.72.53.87 1.55.33 2.27a1.62 1.62 0 0 1-2.27.33zm-157.8-1.57a1.62 1.62 0 1 1 2.63-1.9 1.6 1.6 0 0 1-.36 2.26c-.28.21-.61.32-.94.32-.5 0-1-.24-1.32-.68zm139.97-9.87a1.63 1.63 0 0 1-.65-2.2 1.62 1.62 0 0 1 2.85 1.56c-.3.53-.85.84-1.43.84a1.7 1.7 0 0 1-.77-.2zm-121.9-1.64a1.62 1.62 0 1 1 2.87-1.51c.42.79.11 1.77-.68 2.19a1.63 1.63 0 0 1-2.2-.68zm102.6-7.02a1.62 1.62 0 0 1 1.09-3.06 1.62 1.62 0 0 1-.55 3.16c-.17 0-.36-.04-.54-.1zm-83.04-1.69a1.62 1.62 0 0 1 1.02-2.05 1.6 1.6 0 0 1 2.05 1.01c.3.85-.16 1.77-1.01 2.06a1.62 1.62 0 0 1-2.06-1.02zm62.62-3.7a1.66 1.66 0 0 1-1.32-1.9c.15-.88 1-1.47 1.88-1.31a1.62 1.62 0 0 1-.28 3.22c-.09 0-.19 0-.28-.02zm-41.92-1.7a1.62 1.62 0 1 1 3.21-.5c.14.88-.46 1.71-1.34 1.85-.1.02-.18.02-.26.02-.8 0-1.48-.57-1.61-1.37zm19.26-1.77a1.62 1.62 0 0 1 3.24 0 1.62 1.62 0 1 1-3.24 0z"/><path d="M724.09 932.93h-.02a2.11 2.11 0 0 1-2.1-2.14c.01-1.16.97-2.1 2.13-2.1h.01a2.13 2.13 0 0 1-.02 4.24zm-.01-1h.01c.61 0 1.12-.5 1.13-1.12 0-.61-.5-1.12-1.11-1.13h-.01c-.62 0-1.13.5-1.13 1.12a1.12 1.12 0 0 0 1.11 1.13zm21.34-.67a2.13 2.13 0 0 1-2.1-1.78 2.14 2.14 0 0 1 1.75-2.45c1.15-.18 2.26.6 2.45 1.75a2.14 2.14 0 0 1-2.1 2.48zm-1.11-1.94c.1.6.69 1.01 1.3.92.6-.1 1.02-.68.92-1.3-.1-.6-.69-1.02-1.3-.92-.6.1-1.02.69-.92 1.3zm-41.51 1.58a2.11 2.11 0 0 1-2.09-2.5 2.1 2.1 0 0 1 2.47-1.72 2.11 2.11 0 0 1 1.7 2.48 2.14 2.14 0 0 1-2.08 1.74zm0-3.25a1.12 1.12 0 0 0-.92 1.76c.16.25.42.42.72.47a1.13 1.13 0 0 0 1.12-1.74 1.12 1.12 0 0 0-.93-.5zm63.35-1.7c-.9 0-1.71-.58-2-1.42h-.01a2.15 2.15 0 0 1 1.3-2.71 2.13 2.13 0 1 1 .7 4.13zm-1.06-1.75c.16.45.58.75 1.06.75a1.13 1.13 0 1 0-.37-2.2c-.58.22-.9.86-.7 1.45zm-82.94 1.06a2.13 2.13 0 1 1 0-4.26 2.13 2.13 0 0 1 0 4.26zm.01-3.25a1.13 1.13 0 0 0-.39 2.18c.58.21 1.24-.1 1.44-.67a1.13 1.13 0 0 0-1.05-1.5zm103.6-4.68a2.12 2.12 0 0 1-1-4 2.13 2.13 0 0 1 2.87.87 2.11 2.11 0 0 1-.88 2.89c-.31.16-.65.24-1 .24zm-1-1.6c.29.54 1 .75 1.53.47a1.12 1.12 0 1 0-1.06-1.98 1.12 1.12 0 0 0-.46 1.52zm-122.07.62a2.12 2.12 0 0 1-1.85-3.15 2.11 2.11 0 0 1 2.88-.83 2.13 2.13 0 0 1-1.03 3.98zm0-3.25a1.12 1.12 0 0 0-1.08 1.43c.08.3.27.53.54.68.53.3 1.24.08 1.52-.44a1.13 1.13 0 0 0-.97-1.67zm141.16-7.21c-.68 0-1.32-.32-1.71-.87a2.11 2.11 0 0 1-.26-2.07h-.52l1.23-.9a2.13 2.13 0 0 1 2.52 3.43c-.38.27-.8.41-1.26.41zm-.6-3.08-.06.05a1.12 1.12 0 0 0-.25 1.57c.36.48 1.08.6 1.59.24.49-.36.6-1.07.23-1.57a1.14 1.14 0 0 0-1.5-.3zm-158.5 1.85a2.1 2.1 0 0 1-2.1-1.83 2.13 2.13 0 0 1 3.23-2.09h.01l.14.1a2.11 2.11 0 0 1 .42 2.97c-.41.54-1.05.85-1.7.85zm0-3.25a1.12 1.12 0 0 0-.68 2.02c.48.36 1.2.26 1.58-.22.18-.24.26-.54.21-.83a1.1 1.1 0 0 0-.37-.7l-.07-.04c-.2-.15-.44-.23-.67-.23zm175.52-9.28a2.11 2.11 0 0 1-1.46-3.67 2.1 2.1 0 0 1 3 .08 2.13 2.13 0 0 1-1.54 3.59zm0-3.25a1.12 1.12 0 0 0-.81 1.9c.4.43 1.14.45 1.58.04a1.13 1.13 0 0 0-.75-1.94h-.03zM628.5 890.7a2.1 2.1 0 0 1-1.52-3.6c.4-.41.92-.64 1.5-.65a2 2 0 0 1 1.5.6 2.13 2.13 0 0 1-1.48 3.65zm0-3.25h-.01a1.12 1.12 0 0 0-.77 1.93c.43.42 1.18.4 1.59-.02a1.12 1.12 0 0 0-.8-1.91zm206.43-10.94c-.5 0-.98-.18-1.36-.5a2.1 2.1 0 0 1-.26-3 2.13 2.13 0 1 1 1.62 3.5zm0-3.25a1.13 1.13 0 0 0-.72 1.98c.46.4 1.2.32 1.59-.14a1.13 1.13 0 0 0-.86-1.85zM614 874.92a2.1 2.1 0 0 1-1.64-.77 2.11 2.11 0 0 1 .3-3 2.13 2.13 0 1 1 1.34 3.77zm0-3.25a1.12 1.12 0 0 0-.87 1.84c.38.46 1.1.54 1.59.15a1.12 1.12 0 0 0-.72-1.99zm-12.76-13.97a2.13 2.13 0 1 1 .41-4.2 2.1 2.1 0 0 1 1.35.9c.32.47.43 1.04.32 1.6a2.11 2.11 0 0 1-2.08 1.7zm-.01-3.24c-.22 0-.43.06-.61.18a1.13 1.13 0 0 0-.32 1.57c.34.5 1.07.63 1.56.3a1.13 1.13 0 0 0 .31-1.55 1.11 1.11 0 0 0-.94-.5zm-11.07-15.1a2.1 2.1 0 0 1-1.86-1.12 2.11 2.11 0 0 1 2.47-3.05 2.13 2.13 0 0 1-.6 4.16zm0-3.26a1.12 1.12 0 0 0-.98 1.66c.29.54 1 .75 1.52.46a1.13 1.13 0 0 0-.54-2.12zm-9.43-16c-.85 0-1.61-.5-1.95-1.27a2.1 2.1 0 0 1 1.09-2.8 2.11 2.11 0 0 1 2.83 2.72 2 2 0 0 1-1.13 1.17 2 2 0 0 1-.84.19zm0-3.24c-.16 0-.31.03-.46.1a1.12 1.12 0 0 0-.57 1.47c.24.55.95.83 1.46.58a1.12 1.12 0 0 0 .6-1.48 1.12 1.12 0 0 0-1.03-.67zm-7.86-16.7c-.9 0-1.71-.57-2.01-1.42a2.14 2.14 0 0 1 2.93-2.62c.51.25.9.68 1.08 1.22a2.12 2.12 0 0 1-2 2.82zm-1.07-1.75c.2.57.9.88 1.44.69a1.12 1.12 0 1 0-1.44-.69zm-5.26-18.73c-.96 0-1.8-.64-2.05-1.57a2.13 2.13 0 0 1 3.1-2.4 2.11 2.11 0 0 1 .8 2.9 2.12 2.12 0 0 1-1.85 1.07zm-1.09-1.83c.16.58.8.95 1.38.8a1.13 1.13 0 1 0-1.38-.8zm-3.75-19.05a2.13 2.13 0 1 1 2.09-2.53 2.14 2.14 0 0 1-2.1 2.53zm-1.1-1.91c.11.6.7 1 1.32.88.6-.12 1-.7.88-1.31-.12-.6-.7-1-1.32-.9-.6.13-1 .72-.88 1.33zm-2.3-19.26c-1.06 0-1.97-.8-2.1-1.86a2.11 2.11 0 0 1 1.84-2.37 2.1 2.1 0 0 1 2.37 1.84 2.14 2.14 0 0 1-2.1 2.39zm-1.11-1.99c.08.61.65 1.04 1.26.98.6-.08 1.05-.65.97-1.26a1.11 1.11 0 0 0-1.25-.97c-.3.04-.57.19-.75.43-.19.23-.27.53-.23.82zm-.75-19.36h-.11a2.13 2.13 0 0 1-2.12-2 2.1 2.1 0 0 1 1.99-2.24 2.13 2.13 0 0 1 2.25 1.99 2.13 2.13 0 0 1-2 2.25zm-.11-3.25h-.07a1.11 1.11 0 0 0-1.05 1.19c.04.6.53 1.06 1.12 1.06.69-.04 1.16-.57 1.13-1.19a1.13 1.13 0 0 0-1.13-1.06zm-.59-18.18a2.1 2.1 0 0 1-2.12-2.13 2.12 2.12 0 1 1 2.12 2.13zm0-3.25c-.6 0-1.11.5-1.12 1.12 0 .3.11.58.33.8s.49.33.79.33c.63 0 1.12-.5 1.13-1.12a1.13 1.13 0 0 0-1.12-1.13zm.79-18.17-.17-.01a2.13 2.13 0 0 1-1.95-2.26 2.14 2.14 0 0 1 2.27-1.97 2.1 2.1 0 0 1 1.97 2.26c-.08 1.1-1 1.98-2.12 1.98zm0-3.25a1.12 1.12 0 0 0-1.12 1.05 1.11 1.11 0 0 0 1.04 1.19h.05c.62 0 1.1-.46 1.15-1.04a1.11 1.11 0 0 0-1.13-1.2zm2.18-18.08c-.1 0-.2 0-.3-.02a2.1 2.1 0 0 1-1.4-.82 2.12 2.12 0 0 1 1.98-3.39 2.13 2.13 0 0 1 1.82 2.39 2.13 2.13 0 0 1-2.1 1.84zm0-3.25a1.13 1.13 0 0 0-.9 1.8c.18.24.44.4.74.44h.02c.66.1 1.17-.36 1.25-.96a1.13 1.13 0 0 0-1.12-1.28zm3.6-17.88c-.14 0-.28-.02-.42-.04h-.02a2.12 2.12 0 1 1 .44.04zm-.24-1.03c.6.1 1.21-.28 1.34-.88.12-.6-.27-1.2-.88-1.32a1.12 1.12 0 0 0-1.33.88c-.12.6.27 1.2.87 1.32zm5.28-19.8c-.2 0-.39-.03-.57-.1a2.1 2.1 0 0 1-1.46-2.6 2.11 2.11 0 0 1 3.89-.47 2.13 2.13 0 0 1-1.85 3.18zm0-3.26a1.11 1.11 0 0 0-1.07.82c-.09.3-.05.6.1.86.14.26.38.45.67.53h.02c.09.03.19.05.29.05.5 0 .94-.34 1.08-.83a1.12 1.12 0 0 0-1.08-1.43zm6.55-17.16a2.1 2.1 0 0 1-2-2.85c.2-.53.59-.96 1.1-1.2a2.13 2.13 0 1 1 .9 4.05zm-.38-1.07c.59.21 1.24-.11 1.44-.67a1.13 1.13 0 0 0-2.11-.77 1.12 1.12 0 0 0 .67 1.44zm8.47-18.79a2.11 2.11 0 0 1-1.94-3 2.14 2.14 0 0 1 2.82-1.06c.52.24.9.66 1.1 1.19a2.13 2.13 0 0 1-1.99 2.87zm-.47-1.1c.54.25 1.24 0 1.5-.56.12-.27.13-.58.02-.86-.1-.28-.31-.5-.58-.63-.57-.25-1.24 0-1.5.57a1.13 1.13 0 0 0 .56 1.49zm10.14-18.03a2.13 2.13 0 0 1-1.92-3.04l.06-.13a2.13 2.13 0 0 1 3.9.47 2.13 2.13 0 0 1-2.05 2.7zm-.55-1.14c.53.3 1.24.09 1.53-.43a1.12 1.12 0 0 0-.43-1.53 1.13 1.13 0 0 0-1.5.38l-.03.05c-.3.54-.11 1.22.43 1.53zm257.33-15.36a2.11 2.11 0 0 1-1.19-3.89 2.1 2.1 0 0 1 2.95.57 2.13 2.13 0 0 1-1.76 3.32zm-.94-1.5c.35.5 1.07.64 1.57.3a1.13 1.13 0 0 0-.42-2.03c-.3-.06-.6 0-.84.17a1.11 1.11 0 0 0-.3 1.56zm-244.52-.2a2.11 2.11 0 0 1-1.75-3.33 2.13 2.13 0 0 1 2.95-.55 2.13 2.13 0 0 1-1.2 3.88zm0-3.25a1.13 1.13 0 0 0-1.12 1.33c.06.3.23.55.47.72.48.33 1.23.2 1.57-.3a1.13 1.13 0 0 0-.92-1.75zm232.61-12.2c-.63 0-1.22-.28-1.63-.77a2.11 2.11 0 0 1 .27-3 2.12 2.12 0 1 1 1.36 3.77zm0-3.25a1.12 1.12 0 0 0-.86 1.84c.38.46 1.12.53 1.58.14a1.13 1.13 0 0 0-.72-1.98zM616 515.5c-.51 0-.99-.18-1.38-.5a2.13 2.13 0 0 1 1.2-3.74 2.13 2.13 0 1 1 .17 4.24zm-.73-1.27c.46.4 1.19.33 1.59-.13a1.12 1.12 0 0 0-.14-1.58 1.11 1.11 0 0 0-1.58.12c-.4.48-.35 1.19.13 1.6zM821 501.38a2.14 2.14 0 0 1-1.53-3.6 2.14 2.14 0 0 1 3-.07 2.13 2.13 0 0 1-1.48 3.66zm0-3.25a1.12 1.12 0 0 0-.78 1.94c.42.4 1.16.4 1.6-.04.42-.44.4-1.16-.04-1.6-.22-.2-.5-.3-.78-.3zm-190.27 1.82a2.1 2.1 0 0 1-1.55-.66 2.13 2.13 0 0 1 3.09-2.92c.8.86.76 2.2-.08 3.01-.41.37-.93.57-1.46.57zm-.83-1.34c.4.42 1.15.45 1.6.04.45-.42.47-1.14.05-1.59a1.14 1.14 0 0 0-1.6-.05 1.14 1.14 0 0 0-.05 1.6zm174.77-11.1a2 2 0 0 1-1.12-.32h-.02l-.14-.1a2.12 2.12 0 1 1 1.28.42zm-.73-1.26.06.04c.46.35 1.21.25 1.57-.23a1.11 1.11 0 0 0-.23-1.57 1.12 1.12 0 0 0-1.4 1.76zm-156.71.05c-.69 0-1.33-.33-1.73-.89a2.1 2.1 0 0 1 .48-2.96 2.13 2.13 0 0 1 2.96.48 2.13 2.13 0 0 1-1.71 3.37zm0-3.25c-.24 0-.47.07-.67.2a1.12 1.12 0 0 0-.25 1.58c.35.48 1.08.61 1.57.25a1.12 1.12 0 0 0-.66-2.03zm139.41-7.1a2.13 2.13 0 0 1-.6-4.17 2.13 2.13 0 0 1 2.46 3.06 2.1 2.1 0 0 1-1.86 1.1zm-.53-1.14c.55.3 1.23.08 1.53-.45a1.13 1.13 0 0 0-1.98-1.08c-.3.55-.1 1.24.45 1.53zm-120.7.16a2.13 2.13 0 1 1 .99-.24c-.31.16-.65.24-1 .24zm-1-1.6c.28.53.98.75 1.52.47a1.12 1.12 0 0 0 .46-1.51 1.11 1.11 0 0 0-1.51-.48c-.27.14-.46.38-.55.67-.09.29-.06.59.08.86zm102.7-6.18a2.13 2.13 0 1 1 .71-4.13 2.13 2.13 0 0 1-.7 4.13zm0-3.25a1.12 1.12 0 0 0-.37 2.18 1.13 1.13 0 0 0 1.4-1.54 1.1 1.1 0 0 0-1.02-.64zm-82.04 2.57c-.92 0-1.73-.59-2.02-1.45a2.1 2.1 0 0 1 .11-1.62c.26-.5.7-.89 1.23-1.07a2.1 2.1 0 0 1 2.69 1.33 2.1 2.1 0 0 1-1.33 2.7c-.22.07-.45.1-.68.1zm0-3.25a1.12 1.12 0 0 0-1.07 1.48c.2.57.84.9 1.43.7a1.11 1.11 0 0 0 .7-1.42 1.1 1.1 0 0 0-1.06-.76zm61.36-1.55c-.11 0-.24 0-.35-.02h-.02a2.15 2.15 0 0 1-1.72-2.47 2.1 2.1 0 0 1 2.46-1.72 2.13 2.13 0 0 1-.37 4.21zm-.2-1.01c.61.08 1.2-.32 1.3-.92a1.13 1.13 0 0 0-1.75-1.11c-.24.17-.4.43-.45.72a1.12 1.12 0 0 0 .9 1.3zm-40.4.67a2.12 2.12 0 0 1-2.1-1.79 2.14 2.14 0 0 1 3.36-2.05c.46.33.76.83.84 1.39a2.1 2.1 0 0 1-2.1 2.45zm-1.1-1.95c.1.61.63 1.04 1.29.94a1.12 1.12 0 0 0 .93-1.28 1.11 1.11 0 0 0-1.29-.94c-.61.1-1.03.67-.94 1.28zm20.38.44a2.12 2.12 0 1 1 .01-4.25 2.12 2.12 0 0 1 0 4.25zm0-3.25a1.12 1.12 0 1 0 .01 2.25 1.12 1.12 0 0 0 0-2.25z"/></g><g fill="#FFD829"><path d="M891.47 739.16a1.63 1.63 0 0 1-1.4-1.83 1.63 1.63 0 1 1 3.22.43c-.1.82-.8 1.4-1.6 1.4h-.22z"/><path d="M891.69 739.67c-.09 0-.18 0-.27-.02h-.01a2.13 2.13 0 0 1-1.84-2.38 2.14 2.14 0 0 1 2.39-1.83 2.11 2.11 0 0 1 1.83 2.39 2.13 2.13 0 0 1-2.1 1.84zm-.16-1.01c.61.05 1.18-.36 1.27-.97a1.12 1.12 0 0 0-.97-1.26c-.6-.08-1.18.35-1.27.97-.07.6.36 1.17.97 1.26zm-44.58 119.97a1.63 1.63 0 0 1-.43-2.26c.5-.74 1.52-.93 2.26-.43a1.63 1.63 0 0 1-.92 2.97 1.6 1.6 0 0 1-.91-.28z"/><path d="M847.86 859.41c-.43 0-.84-.12-1.2-.36a2.14 2.14 0 0 1-.56-2.96 2.14 2.14 0 0 1 2.96-.56c.96.66 1.22 1.99.56 2.96-.4.58-1.06.92-1.76.92zm-.63-1.19c.5.34 1.22.2 1.56-.3.35-.51.22-1.21-.3-1.56a1.13 1.13 0 0 0-1.56.3c-.34.5-.21 1.21.3 1.56zm11.08-17.77a1.62 1.62 0 0 1-.64-2.2 1.63 1.63 0 0 1 2.85 1.58 1.65 1.65 0 0 1-2.21.63z"/><path d="M859.1 841.16a2.13 2.13 0 0 1-1.86-3.16 2.13 2.13 0 0 1 2.89-.82 2.13 2.13 0 0 1-1.03 3.98zm0-3.25a1.13 1.13 0 0 0-.54 2.1v.01c.5.29 1.23.09 1.52-.44a1.13 1.13 0 0 0-.98-1.67zm8.92-16.57a1.62 1.62 0 0 1-.82-2.14 1.62 1.62 0 1 1 2.96 1.33c-.26.6-.86.96-1.47.96a1.6 1.6 0 0 1-.67-.15z"/><path d="M868.69 821.99c-.3 0-.6-.07-.87-.2a2.13 2.13 0 1 1 .87.2zm0-3.25a1.12 1.12 0 0 0-.47 2.15h.01c.55.25 1.24-.02 1.48-.56.26-.57 0-1.24-.56-1.5a1.2 1.2 0 0 0-.45-.09zm7.46-17.24a1.61 1.61 0 0 1-.98-2.07 1.61 1.61 0 0 1 2.07-.98c.85.3 1.29 1.23.99 2.08a1.62 1.62 0 0 1-1.53 1.07c-.18 0-.37-.03-.55-.1z"/><path d="M876.7 802.1a2.12 2.12 0 1 1 .01-4.24 2.12 2.12 0 0 1-.01 4.24zm-.01-3.25a1.11 1.11 0 0 0-1.05.75 1.12 1.12 0 0 0 .68 1.43c.58.21 1.23-.1 1.43-.67a1.1 1.1 0 0 0-.67-1.44 1.14 1.14 0 0 0-.4-.06zm6.04-17.74a1.63 1.63 0 0 1 .87-3.13 1.63 1.63 0 0 1-.44 3.19h.01c-.14 0-.29-.02-.44-.06z"/><path d="M883.17 781.67c-.19 0-.37-.03-.56-.08h-.01a2.1 2.1 0 0 1-1.48-2.61 2.13 2.13 0 1 1 2.05 2.69zm-.3-1.04a1.1 1.1 0 0 0 1.38-.79 1.12 1.12 0 0 0-.77-1.38 1.13 1.13 0 0 0-1.29 1.64c.15.26.39.45.67.53zm4.97-20.35a1.62 1.62 0 0 1-1.28-1.91 1.62 1.62 0 0 1 1.92-1.27 1.62 1.62 0 0 1-.33 3.2v.01c-.1 0-.21 0-.31-.03z"/><path d="M888.15 760.81a2.1 2.1 0 0 1-1.77-.94c-.3-.47-.42-1.04-.3-1.6a2.1 2.1 0 0 1 2.5-1.66 2.1 2.1 0 0 1 1.34.9c.32.48.43 1.04.32 1.6-.2.99-1.08 1.7-2.09 1.7zm0-3.24c-.22 0-.44.06-.62.19a1.12 1.12 0 0 0 .4 2.03h.02c.05.02.12.02.2.02a1.13 1.13 0 0 0 .94-1.74 1.1 1.1 0 0 0-.95-.5zm5.54-39.74a1.63 1.63 0 0 1-1.52-1.73 1.62 1.62 0 0 1 3.24.21 1.62 1.62 0 0 1-1.62 1.53h-.1z"/><path d="m893.8 718.34-.17-.01a2.13 2.13 0 0 1-1.96-2.26l.03-.47h.06a2.14 2.14 0 0 1 2.17-1.51 2.13 2.13 0 0 1-.14 4.25zm-1.13-2.08c.02.56.47 1.03 1.05 1.07h.05a1.13 1.13 0 0 0 .1-2.24c-.31-.03-.6.08-.82.28-.23.2-.36.47-.37.76l-.01.13zm1.83-19.86a1.62 1.62 0 1 1 .01-3.24 1.62 1.62 0 0 1 0 3.25z"/><path d="M894.5 696.9a2.13 2.13 0 1 1 .01-4.25 2.13 2.13 0 0 1 0 4.26zm.01-3.24c-.61 0-1.12.5-1.13 1.13a1.13 1.13 0 1 0 1.13-1.13zm-2.28-20.2a1.63 1.63 0 0 1 3.25-.2c.05.89-.63 1.66-1.52 1.72h-.1c-.85 0-1.57-.66-1.63-1.52z"/><path d="M893.86 675.48a2.14 2.14 0 0 1-2.13-1.99 2.13 2.13 0 1 1 2.26 1.99h-.13zm-1.13-2.05c.04.59.54 1.05 1.13 1.05h.1a1.13 1.13 0 1 0-1.23-1.05zm-2.53-21.2a1.63 1.63 0 0 1 3.23-.42c.11.89-.51 1.7-1.4 1.82l-.22.01c-.8 0-1.5-.6-1.6-1.41z"/><path d="M891.81 654.14a2.12 2.12 0 1 1 .01-4.25 2.12 2.12 0 0 1 0 4.25zm.01-3.25-.15.01c-.61.08-1.05.65-.97 1.26.08.62.66 1.04 1.28.97.6-.08 1.03-.64.95-1.26a1.12 1.12 0 0 0-1.11-.98zm-5.06-19.72v.01a1.62 1.62 0 1 1 3.18-.64c.18.88-.4 1.74-1.27 1.91a1.62 1.62 0 0 1-1.91-1.28z"/><path d="M888.35 632.99a2.12 2.12 0 0 1-2.08-1.71 2.12 2.12 0 0 1 1.67-2.5 2.13 2.13 0 0 1 2.18 3.26 2.1 2.1 0 0 1-1.77.95zm-1.1-1.91a1.13 1.13 0 0 0 2.04.4c.17-.25.23-.55.17-.84-.13-.62-.7-1-1.33-.88a1.12 1.12 0 0 0-.88 1.32zm-5.37-20.66a1.62 1.62 0 1 1 3.13-.86c.24.87-.28 1.76-1.14 2a1.62 1.62 0 0 1-2-1.14z"/><path d="M883.44 612.12a2.12 2.12 0 1 1 0-4.25 2.12 2.12 0 0 1 0 4.25zm0-3.25a1.13 1.13 0 0 0-.97.56 1.12 1.12 0 1 0 .98-.56z"/></g><g fill="#FFF"><path d="M875.5 590.08a1.63 1.63 0 0 1 3.07-1.08 1.6 1.6 0 0 1-.99 2.06 1.62 1.62 0 0 1-2.07-.98z"/><path d="M877.04 591.65a2.12 2.12 0 0 1-.7-4.12 2.13 2.13 0 0 1 2.62 2.92 2.11 2.11 0 0 1-1.92 1.2zm-1.06-1.74a1.14 1.14 0 0 0 1.43.68 1.13 1.13 0 0 0 .7-1.43c-.22-.59-.86-.9-1.44-.7-.6.22-.9.85-.7 1.45z"/></g><g fill="#FFF"><path d="M867.62 570.28c-.36-.82 0-1.78.83-2.15a1.62 1.62 0 1 1 1.32 2.97 1.63 1.63 0 0 1-2.14-.83z"/><path d="M869.1 571.74c-.83 0-1.6-.5-1.94-1.26a2.11 2.11 0 0 1 1.08-2.8 2.12 2.12 0 0 1 2.8 1.08 2.13 2.13 0 0 1-1.93 2.98zm-1.02-1.67c.24.55.9.82 1.49.57.57-.25.82-.9.56-1.48a1.11 1.11 0 0 0-1.48-.57 1.12 1.12 0 0 0-.57 1.48z"/></g><g fill="#FFF"><path d="M858.17 551.19a1.63 1.63 0 0 1 2.85-1.56c.43.79.14 1.77-.64 2.2a1.63 1.63 0 0 1-2.2-.64z"/><path d="M861.46 549.38c.42.78.3 1.77-.27 2.43a2.1 2.1 0 0 1-1.6.72 2.13 2.13 0 0 1-2.04-2.72c.16-.54.53-1 1.02-1.26a2.1 2.1 0 0 1 1.95-.05s.56.26.94.88zm-2.86 1.57c.3.52.98.74 1.54.44.52-.28.72-.93.47-1.47l-.03-.05a1.13 1.13 0 0 0-1.53-.45 1.13 1.13 0 0 0-.45 1.52z"/></g><ellipse transform="rotate(-46.6 640.88 686.45)" fill="#FFF" cx="640.86" cy="686.43" rx="30.71" ry="59.45"/><path d="M834.2 626.58a41.2 41.2 0 0 0-9.6-8.42 41.27 41.27 0 0 0-52.29-59.97 41.25 41.25 0 1 0-71.36 37.65l69.95 83.66a41.25 41.25 0 1 0 63.3-52.92z"/><path fill="#FFF" d="M762.6 669.57c3.2-2.78 3.18-8.28 5.32-11.7 2.24-3.56 7.25-5.99 8.25-9.99 1.01-4.04-2.28-8.55-2.56-12.7-.27-4.12 2.4-9.03.82-12.94-1.51-3.77-6.8-5.49-9.55-8.77-2.74-3.29-3.5-8.8-6.94-10.95-3.57-2.24-8.87-.49-12.88-1.49-4.04-1.01-7.9-5.05-12.05-4.77-4.12.28-7.39 4.78-11.3 6.35-3.73 1.5-9.15.51-12.45 3.16l-.1.08.08.09-7.65 60.44 60.85 3.18.07.1.09-.09z"/><path fill="#FFF" d="M689.94 809.4a6.17 6.17 0 0 1-6.17-6.16V694.4c-.08-2.75-.03-27.62 28.25-44.12a6.17 6.17 0 1 1 6.22 10.66c-22.9 13.36-22.14 32.83-22.13 33.02v109.27a6.17 6.17 0 0 1-6.17 6.17z"/><path fill="#FFD829" d="M728.06 506.17c-.39 0-.77.02-1.16.06-7.94-100.03-56.03-183.14-121.26-217.22a32.46 32.46 0 0 0-35.94-44.63c-4.56-16.89-16.3-28.92-30.08-28.92-13.78 0-25.53 12.04-30.08 28.95a32.46 32.46 0 0 0-36.06 44.67c-65.16 34.11-113.18 117.16-121.13 217.1l-.41-.02c-10.1 0-18.3 13.16-18.3 29.4 0 16.23 8.2 29.38 18.3 29.38l.4-.01c10.47 131.5 90.32 233.77 187.28 233.77 96.98 0 176.84-102.3 187.28-233.82.39.04.77.06 1.16.06 10.1 0 18.3-13.16 18.3-29.39s-8.2-29.38-18.3-29.38zM539.62 777.29c-93.55 0-169.38-105.9-169.38-236.54 0-115.3 59.08-211.34 137.27-232.3a32.3 32.3 0 0 0 6.68-1.58c7.2-1.52 14.57-2.4 22.05-2.6a23.44 23.44 0 0 0 6.77 0c7.36.2 14.61 1.05 21.72 2.53 2.27.82 4.65 1.4 7.12 1.7 78.14 21.01 137.16 117 137.16 232.25 0 130.64-75.84 236.54-169.39 236.54z"/><path d="M539.62 779.3c-45.9 0-89.02-25-121.4-70.37-32.23-45.17-49.98-105.2-49.98-169.02s17.75-123.84 49.98-169.01c32.38-45.38 75.5-70.37 121.4-70.37s89.02 25 121.4 70.37c32.23 45.17 49.99 105.2 49.99 169.01s-17.76 123.85-49.99 169.02c-32.38 45.37-75.49 70.36-121.4 70.36zm0-474.77c-92.3 0-167.38 105.6-167.38 235.38 0 129.8 75.09 235.38 167.38 235.38S707.01 669.7 707.01 539.91c0-129.78-75.1-235.38-167.39-235.38z"/><path d="M539.62 800.7c-47.28 0-92.61-24.26-127.64-68.32-34.3-43.16-56.1-101.88-61.48-165.5-10.69-1.11-18.86-14.47-18.86-31.32 0-16.86 8.17-30.22 18.86-31.32 4.07-48.26 17.62-93.96 39.22-132.28 21.24-37.69 49.3-66.63 81.24-83.8a34.5 34.5 0 0 1 37.15-46c5.23-17.25 17.73-28.7 31.51-28.7 13.78 0 26.27 11.44 31.51 28.67a34.5 34.5 0 0 1 37.03 45.96c31.98 17.16 60.07 46.1 81.34 83.82 21.6 38.32 35.16 84.02 39.24 132.27 11.06.54 19.62 14.12 19.62 31.38 0 17.25-8.56 30.83-19.62 31.37-5.38 63.6-27.17 122.3-61.46 165.43-35.03 44.07-80.37 68.34-127.66 68.34zM354.2 562.86l.15 1.91c5.05 63.53 26.64 122.17 60.77 165.12 34.25 43.08 78.47 66.81 124.51 66.81 46.05 0 90.27-23.73 124.52-66.83 34.14-42.95 55.72-101.6 60.77-165.15l.16-2.04 2.03.21c.32.03.64.06.96.06 8.99 0 16.3-12.3 16.3-27.4 0-15.1-7.31-27.39-16.3-27.39-.32 0-.64.03-.96.06l-2.03.2-.16-2.03c-3.84-48.38-17.3-94.2-38.9-132.52-21.24-37.66-49.35-66.4-81.3-83.09l-1.64-.85.73-1.7a30.5 30.5 0 0 0-33.73-41.88l-1.82.34-.48-1.78c-4.43-16.42-15.74-27.45-28.15-27.45-12.41 0-23.73 11.04-28.15 27.47l-.48 1.8-1.83-.36a30.5 30.5 0 0 0-33.84 41.92l.73 1.7-1.64.86c-31.91 16.7-60 45.43-81.2 83.08-21.59 38.29-35.03 84.07-38.87 132.41l-.15 1.91-2.25-.08c-8.99 0-16.3 12.28-16.3 27.39 0 15.1 7.31 27.39 16.3 27.39l2.25-.09z"/><ellipse cx="539.37" cy="261.79" rx="18.16" ry="27.52"/><ellipse transform="rotate(-63.5 579 278.1)" cx="578.97" cy="278.1" rx="18.68" ry="12.33"/><ellipse transform="rotate(-26.5 500.63 278.1)" cx="500.65" cy="278.1" rx="12.33" ry="18.68"/><ellipse transform="rotate(-11.16 273.82 237.19)" fill="#FFF" cx="273.79" cy="237.21" rx="16.2" ry="27.27"/><ellipse transform="rotate(-64.65 259.23 258.93)" fill="#FFF" cx="259.22" cy="258.94" rx="12.06" ry="18.93"/><ellipse transform="rotate(-31.48 276.67 267.22)" cx="276.65" cy="267.19" rx="18.93" ry="6.32"/><path d="M288.83 260.75a2 2 0 0 1-1.1-3.67c.13-.09 13.2-8.81 19.15-25.05 2.22-6.07 1.41-10.64-2.22-12.55-3.28-1.72-8.01-.81-9.93 1.9-1 1.43-1.34 2.7-1.03 3.88.55 2.06 3.04 3.63 3.86 4.01a2 2 0 1 1-1.68 3.63c-.5-.23-4.92-2.4-6.04-6.61-.63-2.37-.09-4.8 1.62-7.21 3.08-4.37 9.98-5.8 15.05-3.14 8.2 4.3 5.23 14.45 4.13 17.46-6.42 17.53-20.13 26.65-20.72 27.02-.33.23-.71.33-1.09.33z"/><path d="M287.84 262.34a2 2 0 0 1-.44-3.95c.15-.04 15.43-3.7 26.63-16.87 4.18-4.93 5-9.5 2.25-12.55-2.47-2.74-7.23-3.53-9.97-1.64-1.43.98-2.18 2.05-2.3 3.26-.2 2.11 1.54 4.42 2.24 5.12a2 2 0 0 1-2.85 2.82c-.39-.4-3.78-3.96-3.37-8.3.22-2.44 1.58-4.52 4.02-6.2 4.4-3.03 11.36-2 15.2 2.26 4.19 4.64 3.37 11.3-2.17 17.82-12.1 14.22-28.11 18.02-28.79 18.18-.15.03-.3.05-.45.05z"/><g fill="#FFF"><path d="M348.14 623.75a1.6 1.6 0 0 1-1.6-1.64 1.62 1.62 0 0 1 3.25.03 1.63 1.63 0 0 1-1.64 1.61h-.01zm19.74-3.03a1.63 1.63 0 0 1 1.34-1.87c.88-.15 1.72.45 1.87 1.33.14.89-.46 1.73-1.34 1.88l-.27.02c-.78 0-1.47-.57-1.6-1.36zm-41.31.97a1.62 1.62 0 1 1 .59-3.2 1.63 1.63 0 0 1-.3 3.22c-.1 0-.2 0-.3-.02zm62.1-6.02a1.62 1.62 0 0 1 3.07-1.07v.01c.3.85-.15 1.77-1 2.07-.17.06-.36.1-.53.1-.67 0-1.3-.43-1.53-1.1zm-83.01.31a1.63 1.63 0 0 1 1.12-3.05 1.63 1.63 0 0 1-.56 3.15c-.19 0-.38-.03-.56-.1zm102.72-8.69a1.62 1.62 0 0 1 2.86-1.53c.43.8.13 1.78-.66 2.2a1.6 1.6 0 0 1-2.2-.67zm-122.42-.33a1.62 1.62 0 0 1 1.58-2.84 1.63 1.63 0 0 1-.8 3.05 1.6 1.6 0 0 1-.78-.2zm140.64-10.91a1.63 1.63 0 0 1 2.62-1.92 1.63 1.63 0 0 1-1.3 2.59v-.01c-.5 0-1-.23-1.32-.66zm-158.77-.9a1.62 1.62 0 0 1 1.96-2.6 1.63 1.63 0 0 1-.98 2.92v.01c-.35 0-.68-.11-.98-.33zm175.32-12.7c-.62-.66-.6-1.7.06-2.3a1.6 1.6 0 0 1 2.3.06c.61.65.58 1.67-.07 2.29a1.61 1.61 0 0 1-2.3-.06zm-191.72-1.4a1.62 1.62 0 1 1 2.27-2.33v.01a1.63 1.63 0 0 1-1.14 2.79 1.6 1.6 0 0 1-1.13-.46zm206.52-14.1a1.63 1.63 0 0 1-.2-2.3 1.63 1.63 0 1 1 2.49 2.1c-.33.38-.79.58-1.25.58-.37 0-.74-.13-1.04-.39zm-221.14-1.8c-.57-.7-.48-1.72.22-2.29a1.63 1.63 0 0 1 2.07 2.5v.01a1.64 1.64 0 0 1-2.29-.22zm234.2-15.2a1.63 1.63 0 1 1 1.83-2.68c.74.5.93 1.51.42 2.25a1.64 1.64 0 0 1-2.25.43zm-247.06-2.15c-.5-.74-.3-1.75.45-2.25s1.75-.3 2.25.45c.5.74.3 1.75-.45 2.25a1.62 1.62 0 0 1-2.25-.45zm258.42-16.03a1.62 1.62 0 0 1-.64-2.2 1.63 1.63 0 0 1 2.85 1.58 1.65 1.65 0 0 1-2.21.63zm-269.57-2.45a1.62 1.62 0 0 1 2.85-1.55c.43.79.14 1.77-.65 2.2a1.63 1.63 0 0 1-2.2-.65zm279.28-16.66a1.62 1.62 0 0 1-.81-2.14c.37-.82 1.33-1.18 2.15-.82.81.37 1.18 1.33.8 2.15a1.61 1.61 0 0 1-2.14.81zm-288.78-2.7a1.63 1.63 0 1 1 2.98-1.31c.35.82-.02 1.78-.84 2.14a1.62 1.62 0 0 1-2.14-.84zm296.91-17.13a1.63 1.63 0 1 1 1.1-3.05 1.62 1.62 0 0 1-.55 3.15c-.18 0-.37-.04-.55-.1zM195.4 489.9a1.64 1.64 0 0 1 1-2.08c.85-.3 1.78.15 2.07 1 .3.85-.15 1.77-1 2.07a1.62 1.62 0 0 1-2.07-1zm311.4-17.47a1.63 1.63 0 0 1 .87-3.13 1.62 1.62 0 0 1-.44 3.19h.01c-.14 0-.29-.02-.44-.06zm-317.76-3.13a1.62 1.62 0 1 1 3.14-.85c.23.87-.28 1.76-1.15 2a1.63 1.63 0 0 1-1.99-1.14zm322.86-17.7a1.63 1.63 0 0 1-1.27-1.91 1.62 1.62 0 0 1 3.18.64 1.6 1.6 0 0 1-1.59 1.3c-.1 0-.21 0-.32-.02zm-327.73-3.3c-.17-.88.4-1.73 1.28-1.9a1.62 1.62 0 1 1 .63 3.18c-.1.02-.21.04-.31.04-.76 0-1.45-.54-1.6-1.32zm331.37-17.82a1.63 1.63 0 0 1-1.4-1.83 1.63 1.63 0 1 1 3.22.43c-.1.82-.8 1.4-1.6 1.4h-.22zm-334.78-3.46c-.1-.89.52-1.7 1.41-1.8a1.62 1.62 0 1 1 .41 3.21l-.2.02c-.81 0-1.51-.6-1.62-1.43zm337-17.87a1.62 1.62 0 1 1 .21-3.24c.9.06 1.57.83 1.51 1.73a1.62 1.62 0 0 1-1.62 1.52h-.1zm-338.98-3.58a1.63 1.63 0 0 1 3.24-.19c.06.9-.63 1.67-1.52 1.72h-.1c-.85 0-1.57-.67-1.62-1.53zm339.8-17.84c-.9 0-1.63-.73-1.63-1.63a1.62 1.62 0 1 1 3.25 0v.01c0 .9-.73 1.62-1.62 1.62zm-338.77-2.06c-.9 0-1.63-.74-1.62-1.63a1.63 1.63 0 1 1 3.25.01c0 .9-.73 1.62-1.62 1.62h-.01zm336.5-20.9a1.62 1.62 0 1 1 1.72 1.53h-.1c-.85 0-1.57-.66-1.63-1.52zm-335.82-.53a1.61 1.61 0 0 1-1.5-1.73 1.6 1.6 0 0 1 1.72-1.5c.9.05 1.57.83 1.5 1.72a1.62 1.62 0 0 1-1.6 1.51.5.5 0 0 1-.12 0zm333.79-20.7a1.62 1.62 0 1 1 3.22-.42c.11.9-.51 1.71-1.4 1.83l-.21.01c-.8 0-1.5-.6-1.61-1.41zm-331.72-.64a1.62 1.62 0 0 1-1.4-1.82 1.63 1.63 0 1 1 3.22.44 1.63 1.63 0 0 1-1.6 1.4c-.07 0-.15 0-.22-.02zm328.27-20.4c-.17-.88.4-1.74 1.28-1.91a1.6 1.6 0 0 1 1.9 1.27c.18.88-.39 1.74-1.27 1.91a1.62 1.62 0 0 1-1.91-1.27zm-324.78-.75a1.62 1.62 0 0 1-1.26-1.91 1.62 1.62 0 0 1 1.91-1.27 1.63 1.63 0 0 1-.33 3.22c-.1 0-.21-.02-.32-.04zm319.9-20.01a1.63 1.63 0 0 1 3.13-.86c.24.87-.27 1.76-1.14 2a1.62 1.62 0 0 1-2-1.14zm-314.96-.85a1.62 1.62 0 1 1 .88-3.13 1.63 1.63 0 0 1-.44 3.19c-.15 0-.29-.02-.44-.06zm308.59-19.5a1.63 1.63 0 0 1 3.07-1.08c.3.85-.15 1.78-1 2.07-.17.07-.36.1-.54.1-.67 0-1.29-.42-1.53-1.08zm-302.16-.95a1.62 1.62 0 1 1 1.1-3.05 1.62 1.62 0 0 1-.55 3.15c-.18 0-.36-.03-.55-.1zM491.7 261.6a1.63 1.63 0 1 1 2.96-1.32c.37.82 0 1.77-.82 2.14a1.61 1.61 0 0 1-2.14-.82zm-286.31-1.06a1.63 1.63 0 0 1-.81-2.15 1.63 1.63 0 0 1 2.96 1.35v-.01c-.27.6-.86.95-1.48.95-.23 0-.46-.04-.67-.14zm276.85-18.03a1.62 1.62 0 0 1 2.85-1.56 1.63 1.63 0 0 1-1.42 2.4c-.58 0-1.13-.3-1.43-.84zm-267.3-1.16a1.62 1.62 0 1 1 1.6-2.83h-.01c.78.43 1.06 1.42.62 2.2-.3.53-.85.83-1.42.83-.27 0-.54-.07-.8-.2zm256.22-17.02a1.63 1.63 0 0 1 2.7-1.82c.5.75.3 1.76-.45 2.26a1.63 1.63 0 0 1-2.25-.44zm-245.04-1.27a1.63 1.63 0 1 1 1.84-2.68 1.63 1.63 0 1 1-1.84 2.68zm232.3-15.75a1.62 1.62 0 1 1 2.5-2.08c.56.69.47 1.72-.22 2.29a1.61 1.61 0 0 1-2.28-.2zM239 205.93a1.63 1.63 0 0 1-.18-2.3 1.63 1.63 0 0 1 2.48 2.11 1.63 1.63 0 0 1-2.3.19zm204.95-14.19a1.63 1.63 0 0 1 2.25-2.35 1.62 1.62 0 0 1-1.13 2.8c-.4 0-.8-.14-1.12-.45zm-190.33-1.48a1.62 1.62 0 0 1 .08-2.3 1.63 1.63 0 0 1 2.3.08c.6.65.57 1.68-.08 2.3a1.62 1.62 0 0 1-2.3-.08zm174.16-12.25a1.62 1.62 0 1 1 1.94-2.6 1.62 1.62 0 0 1-.97 2.92c-.34 0-.68-.1-.97-.32zm-157.8-1.57a1.62 1.62 0 1 1 2.63-1.9c.53.73.37 1.74-.36 2.27a1.63 1.63 0 0 1-2.27-.36zm139.97-9.87a1.62 1.62 0 0 1-.65-2.2 1.62 1.62 0 0 1 2.2-.66 1.63 1.63 0 0 1-.78 3.05c-.25 0-.52-.06-.77-.19zm-121.9-1.64a1.62 1.62 0 1 1 2.87-1.51 1.62 1.62 0 1 1-2.88 1.51zm102.6-7.02a1.63 1.63 0 0 1 1.1-3.06h-.01a1.62 1.62 0 0 1-.54 3.16c-.18 0-.37-.03-.55-.1zm-83.04-1.69a1.63 1.63 0 0 1 1.02-2.06 1.63 1.63 0 1 1 1.04 3.07v.01a1.62 1.62 0 0 1-2.06-1.02zm62.62-3.72a1.62 1.62 0 1 1 .56-3.2 1.63 1.63 0 0 1-.28 3.23c-.09 0-.19 0-.28-.03zm-22.66-3.45a1.62 1.62 0 1 1 3.25 0 1.63 1.63 0 1 1-3.25 0z"/><path d="M348.15 624.25h-.02a2.1 2.1 0 0 1-2.1-2.14c.01-1.17.96-2.1 2.13-2.1h.01a2.11 2.11 0 0 1 2.1 2.14 2.14 2.14 0 0 1-2.12 2.1zm0-1c.62 0 1.12-.5 1.13-1.12a1.12 1.12 0 0 0-1.11-1.13h-.01a1.13 1.13 0 0 0-.8 1.92c.2.21.48.33.78.33zm21.33-.67a2.13 2.13 0 0 1-2.1-1.78 2.14 2.14 0 0 1 1.75-2.45c1.15-.18 2.25.6 2.45 1.75a2.14 2.14 0 0 1-2.1 2.48zm-1.11-1.94a1.13 1.13 0 1 0 2.22-.37 1.13 1.13 0 0 0-2.22.37zm-41.51 1.58a2.11 2.11 0 0 1-2.09-2.5 2.1 2.1 0 0 1 2.47-1.71 2.11 2.11 0 0 1 1.7 2.47 2.13 2.13 0 0 1-2.08 1.74zm0-3.25a1.12 1.12 0 0 0-.92 1.76c.16.25.42.42.71.47h.01a1.13 1.13 0 0 0 1.12-1.74 1.12 1.12 0 0 0-.93-.5zm63.35-1.7a2.12 2.12 0 0 1-.7-4.13 2.13 2.13 0 1 1 .7 4.13zm-1.06-1.76c.2.57.79.92 1.43.7a1.13 1.13 0 1 0-1.43-.7zm-82.93 1.07a2.14 2.14 0 0 1-2-2.85 2.14 2.14 0 0 1 2.72-1.28 2.13 2.13 0 0 1-.72 4.13zm-.4-1.07a1.13 1.13 0 0 0 .78-2.11 1.13 1.13 0 0 0-1.44.67c-.21.58.09 1.22.66 1.44zm104-6.86a2.11 2.11 0 0 1-1-4 2.13 2.13 0 1 1 1 4zm-.01-3.24a1.12 1.12 0 0 0-1.07.79c-.09.29-.06.6.08.86.29.53 1.02.73 1.52.46a1.12 1.12 0 0 0 .46-1.52c-.2-.38-.59-.6-1-.6zm-123.06 2.26c-.36 0-.71-.1-1.03-.27a2.1 2.1 0 0 1-.83-2.88 2.12 2.12 0 1 1 1.86 3.15zm0-3.25a1.12 1.12 0 0 0-.55 2.1 1.12 1.12 0 1 0 .55-2.1zm141.63-7.03v-.23a2.14 2.14 0 0 1-2.18-.82 2.1 2.1 0 0 1 .46-2.97 2.13 2.13 0 0 1 2.96.46c.7.94.5 2.27-.45 2.97l-.8.59zm-.47-3.43a1.11 1.11 0 0 0-1.11.96c-.05.3.03.59.2.83.36.48 1.08.6 1.58.24l.08-.06a1.13 1.13 0 0 0-.75-1.97zm-159.1 2.02a2.1 2.1 0 0 1-1.69-3.4 2.13 2.13 0 1 1 1.69 3.4zm-.68-1.23c.51.37 1.22.26 1.58-.22a1.13 1.13 0 1 0-1.58.22zm176.2-11.3a2.12 2.12 0 1 1 0-4.25 2.12 2.12 0 0 1 0 4.25zm0-3.25c-.3 0-.56.1-.77.3a1.11 1.11 0 0 0-.04 1.59c.4.44 1.15.46 1.58.05a1.13 1.13 0 0 0 .05-1.59 1.1 1.1 0 0 0-.8-.35h-.02zm-191.77 1.82a2.13 2.13 0 0 1-.02-4.25h.02a2.12 2.12 0 1 1 0 4.25zm0-3.25h-.01a1.12 1.12 0 0 0-.77 1.93c.43.42 1.18.4 1.58-.02a1.12 1.12 0 0 0-.8-1.91zM459 567.83zm-.72-1.27c.47.4 1.2.32 1.6-.14a1.12 1.12 0 0 0-.15-1.58 1.12 1.12 0 0 0-1.45 1.72zm-220.2-.32a2.11 2.11 0 0 1-1.35-3.76 2.13 2.13 0 1 1 1.34 3.76zm0-3.25a1.12 1.12 0 0 0-.88 1.84c.38.46 1.1.54 1.6.15a1.13 1.13 0 0 0-.73-1.99zm233.85-12.26c-.43 0-.84-.12-1.2-.36a2.14 2.14 0 0 1-.56-2.96 2.13 2.13 0 0 1 3.85.8 2.12 2.12 0 0 1-2.09 2.52zm-.63-1.2c.5.34 1.22.2 1.56-.29a1.13 1.13 0 0 0-.3-1.56 1.13 1.13 0 0 0-1.56.3c-.35.5-.21 1.2.3 1.56zm-245.99-.5a2.13 2.13 0 1 1 1.77-3.3 2.13 2.13 0 0 1-1.77 3.3zm0-3.25a1.12 1.12 0 0 0-.94 1.74c.34.5 1.08.64 1.55.32.53-.35.67-1.05.33-1.56-.22-.33-.58-.5-.95-.5zm257.86-13.3a2.13 2.13 0 0 1-1.86-3.16 2.13 2.13 0 0 1 2.89-.83 2.15 2.15 0 0 1 .83 2.9 2.16 2.16 0 0 1-1.86 1.09zm0-3.25a1.13 1.13 0 0 0-.55 2.1h.01c.5.3 1.23.1 1.52-.43a1.13 1.13 0 0 0-.98-1.67zm-268.93 1.44a2.1 2.1 0 0 1-2.04-2.73 2.1 2.1 0 0 1 2.63-1.43 2.11 2.11 0 0 1 1.44 2.64 2.11 2.11 0 0 1-2.03 1.52zm0-3.25a1.12 1.12 0 0 0-.98 1.66 1.12 1.12 0 1 0 1.3-1.62c-.11-.02-.22-.04-.32-.04zm278.52-14.11c-.3 0-.6-.07-.87-.2a2.11 2.11 0 0 1-1.07-2.8 2.14 2.14 0 0 1 2.81-1.07 2.13 2.13 0 0 1-.87 4.07zm0-3.25c-.43 0-.84.25-1.03.67a1.12 1.12 0 0 0 .57 1.48c.54.24 1.24-.02 1.48-.56.26-.57 0-1.24-.56-1.5a1.2 1.2 0 0 0-.45-.09zm-288.95 2.27-.96-2.17a2.12 2.12 0 0 1-.04-1.62v-.98l.23.53a2.13 2.13 0 1 1 2.61 3.15c-.62.27-1.3.23-1.84-.06v1.15zm-.08-2.65.04.07c.24.56.9.83 1.49.58.55-.25.81-.91.57-1.48a1.13 1.13 0 0 0-2.08.04c-.1.25-.1.53-.02.79zm297.04-16.26a2.1 2.1 0 0 1-1.92-1.21 2.12 2.12 0 1 1 1.92 1.21zm0-3.24a1.13 1.13 0 0 0-1.06.74c-.21.58.1 1.23.68 1.43a1.1 1.1 0 0 0 1.43-.67 1.1 1.1 0 0 0-.67-1.44 1.1 1.1 0 0 0-.39-.06zm-303.83 1.3c-.9 0-1.71-.57-2-1.42h-.01a2.14 2.14 0 0 1 2.93-2.62 2.13 2.13 0 0 1-.93 4.04zm-1.06-1.75a1.13 1.13 0 1 0 2.12-.76 1.13 1.13 0 0 0-2.13.76zM507.23 473a2.11 2.11 0 0 1-2.05-2.7 2.13 2.13 0 1 1 2.05 2.7zm-.3-1.04a1.1 1.1 0 0 0 1.38-.79 1.12 1.12 0 0 0-.77-1.38 1.13 1.13 0 0 0-1.29 1.64c.15.26.39.45.68.53zM190.6 471a2.13 2.13 0 1 1 2.06-2.68 2.13 2.13 0 0 1-2.06 2.68zm-1.09-1.83a1.13 1.13 0 1 0 2.18-.6 1.13 1.13 0 0 0-2.18.6zm322.7-17.03c-.13 0-.27-.02-.4-.04h-.02a2.13 2.13 0 0 1-.75-3.86 2.12 2.12 0 0 1 2.95.6c.3.47.42 1.03.3 1.59-.2.99-1.07 1.7-2.08 1.7zm-.23-1.03a1.12 1.12 0 1 0 .46-2.2 1.12 1.12 0 0 0-1.33.88c-.12.6.27 1.2.87 1.32zm-326.22-1a2.13 2.13 0 0 1-.41-4.21 2.14 2.14 0 0 1 2.5 1.68 2.14 2.14 0 0 1-2.1 2.54zm-1.1-1.9c.11.6.7 1 1.32.88.6-.12 1-.7.88-1.31a1.13 1.13 0 0 0-1.32-.9c-.6.13-1 .72-.88 1.32zm331.09-17.22c-.09 0-.17 0-.27-.02h-.02a2.13 2.13 0 0 1-1.82-2.39l.05-.43h.05a2.1 2.1 0 0 1 2.28-1.39 2.11 2.11 0 0 1 1.83 2.38 2.13 2.13 0 0 1-2.1 1.85zm-.17-1.01c.65.06 1.2-.36 1.28-.97a1.12 1.12 0 0 0-.97-1.26 1.12 1.12 0 0 0-1.26.96l-.01.13c-.02.56.4 1.06.96 1.14zm-333.22-1.03c-1.06 0-1.97-.8-2.1-1.86a2.11 2.11 0 0 1 1.84-2.37 2.1 2.1 0 0 1 2.37 1.84 2.13 2.13 0 0 1-2.1 2.4zm-1.11-1.99c.08.61.65 1.04 1.26.98a1.13 1.13 0 0 0 .55-2 1.09 1.09 0 0 0-.83-.23 1.12 1.12 0 0 0-.98 1.25zm336.6-17.3-.14-.01a2.13 2.13 0 1 1 .14 0zm-.09-1.01h.09c.6 0 1.09-.46 1.12-1.04a1.13 1.13 0 1 0-1.2 1.04zM180.5 407.6h-.1a2.12 2.12 0 0 1-2.13-2 2.11 2.11 0 0 1 2-2.24 2.12 2.12 0 0 1 2.24 1.99 2.1 2.1 0 0 1-.53 1.54c-.38.42-.9.67-1.46.7h-.02zm-1.23-2.06a1.12 1.12 0 1 0 1.87-.9 1.11 1.11 0 0 0-1.87.9zm339.3-17.31a2.13 2.13 0 1 1 0-4.25 2.13 2.13 0 0 1 0 4.25zm0-3.25c-.61 0-1.12.5-1.13 1.13a1.13 1.13 0 1 0 1.13-1.13zm-338.76 1.19h-.01a2.1 2.1 0 0 1-2.12-2.13 2.13 2.13 0 1 1 2.13 2.13zm0-3.25c-.62 0-1.12.5-1.13 1.12 0 .3.11.58.33.8a1.12 1.12 0 0 0 1.92-.79c0-.3-.11-.58-.32-.8a1.2 1.2 0 0 0-.8-.33zm338.1-16.12a2.13 2.13 0 0 1-2.11-1.99 2.13 2.13 0 1 1 2.26 1.99h-.15zm-1.12-2.06c.04.6.54 1.06 1.12 1.06h.11a1.13 1.13 0 0 0 1.02-1.2 1.13 1.13 0 0 0-2.25.14zm-336.2 0h-.17a2.11 2.11 0 0 1-1.95-2.27 2.1 2.1 0 0 1 2.27-1.97 2.1 2.1 0 0 1 1.97 2.27c-.08 1.1-1 1.98-2.12 1.98zm0-3.24a1.11 1.11 0 0 0-1.12 1.04 1.11 1.11 0 0 0 1.04 1.2h.05c.62 0 1.11-.46 1.15-1.04a1.1 1.1 0 0 0-1.04-1.2h-.08zm335.29-16.04c-1.07 0-1.97-.8-2.1-1.85a2.13 2.13 0 0 1 4.2-.55 2.14 2.14 0 0 1-2.1 2.4zm0-3.25-.14.01c-.62.08-1.06.65-.98 1.26.08.61.6 1.04 1.28.97a1.13 1.13 0 0 0 .52-2 1.1 1.1 0 0 0-.68-.24zm-333.11 1.21c-.1 0-.2 0-.3-.02a2.12 2.12 0 1 1 .3.02zm0-3.25c-.55 0-1.04.41-1.12.97a1.12 1.12 0 0 0 .96 1.27h.02c.66.11 1.17-.37 1.25-.97a1.13 1.13 0 0 0-1.1-1.27zm329.64-15.86c-1 0-1.88-.72-2.08-1.71a2.11 2.11 0 0 1 1.67-2.5 2.12 2.12 0 1 1 .41 4.2zm-1.1-1.9c.12.59.7.98 1.34.87a1.14 1.14 0 0 0 .87-1.32 1.13 1.13 0 0 0-2.04-.41c-.17.25-.23.55-.17.85zm-324.94-.13a2 2 0 0 1-.42-.04h-.01a2.1 2.1 0 0 1-1.65-2.5 2.11 2.11 0 0 1 2.5-1.66 2.13 2.13 0 0 1 1.66 2.5c-.2 1-1.08 1.7-2.08 1.7zm-.24-1.02c.61.1 1.22-.28 1.34-.88a1.13 1.13 0 0 0-1.72-1.16 1.1 1.1 0 0 0-.48.72 1.11 1.11 0 0 0 .86 1.32zm321.37-17.82a2.12 2.12 0 1 1 0-4.25 2.12 2.12 0 0 1 0 4.25zm0-3.25a1.1 1.1 0 0 0-.97.56 1.12 1.12 0 1 0 1.95 1.12c.15-.27.19-.57.1-.86a1.11 1.11 0 0 0-1.08-.82zm-316.08 1.26a2.1 2.1 0 0 1-2.05-2.7 2.1 2.1 0 0 1 3.9-.47 2.13 2.13 0 0 1-1.85 3.17zm0-3.25a1.11 1.11 0 0 0-1.08.82 1.12 1.12 0 0 0 .78 1.39c.57.17 1.22-.2 1.38-.78a1.12 1.12 0 0 0-1.08-1.43zm309.68-15.22a2.11 2.11 0 0 1-.7-4.12 2.13 2.13 0 0 1 2.62 2.9 2.11 2.11 0 0 1-1.92 1.22zm-1.06-1.75a1.14 1.14 0 0 0 1.43.68 1.13 1.13 0 0 0 .7-1.43 1.13 1.13 0 0 0-2.09-.11c-.12.27-.14.57-.04.86zm-302.07-.2a2.1 2.1 0 0 1-2-2.85 2.1 2.1 0 0 1 2.72-1.26 2.13 2.13 0 0 1-.72 4.12zm-.39-1.06c.58.21 1.24-.11 1.44-.67a1.13 1.13 0 0 0-2.11-.77 1.12 1.12 0 0 0 .67 1.44zm295.59-16.91c-.84 0-1.6-.5-1.94-1.26a2.1 2.1 0 0 1 1.07-2.8 2.11 2.11 0 0 1 2.8 1.07 2.13 2.13 0 0 1-1.93 2.99zm0-3.25a1.12 1.12 0 0 0-1.02 1.58c.23.55.86.83 1.5.57a1.13 1.13 0 0 0-.49-2.15zm-287.12 1.37c-.3 0-.6-.06-.88-.18a2.14 2.14 0 0 1-1.1-2.71l.04-.12a2.14 2.14 0 0 1 2.82-1.05 2.13 2.13 0 0 1-.88 4.06zm-.46-1.1c.53.24 1.24-.01 1.48-.56.26-.56 0-1.23-.56-1.49a1.13 1.13 0 0 0-1.47.52l-.02.05c-.25.55 0 1.22.57 1.48zm278.07-16.23a2.12 2.12 0 1 1 .59-4.16c.54.16 1 .52 1.26 1.02a2.1 2.1 0 0 1-.83 2.88c-.32.17-.67.26-1.02.26zm-1-1.58c.3.52 1 .74 1.53.44a1.1 1.1 0 0 0 .44-1.52 1.13 1.13 0 0 0-2.06.22c-.08.29-.05.6.1.86zm-266.94-.22c-.35 0-.7-.09-1.03-.27h-.01a2.13 2.13 0 0 1 .46-3.9 2.12 2.12 0 1 1 .57 4.17zm-.55-1.14a1.12 1.12 0 1 0 .25-2.06 1.12 1.12 0 0 0-.25 2.06zm257.33-15.36a2.13 2.13 0 1 1 1.76-3.31 2.12 2.12 0 0 1-1.76 3.3zm-.94-1.5c.34.5 1.08.64 1.56.3.26-.16.42-.42.48-.71a1.12 1.12 0 0 0-1.73-1.15 1.13 1.13 0 0 0-.3 1.56zm-244.52-.2a2.1 2.1 0 0 1-2.1-1.74 2.13 2.13 0 1 1 2.1 1.74zm0-3.25a1.12 1.12 0 0 0-1.11 1.33c.05.3.22.55.46.72.48.33 1.22.2 1.57-.3a1.13 1.13 0 0 0-.93-1.75zm232.61-12.2c-.63 0-1.22-.28-1.63-.77a2.1 2.1 0 0 1 .27-3 2.13 2.13 0 0 1 3.48 1.84 2.1 2.1 0 0 1-.76 1.44 2.1 2.1 0 0 1-1.36.49zm0-3.25a1.12 1.12 0 0 0-.86 1.84c.38.46 1.13.53 1.57.15a1.12 1.12 0 0 0-.71-2zm-219.6 1.67c-.51 0-.99-.18-1.38-.5a2.13 2.13 0 0 1 1.2-3.74 2.12 2.12 0 1 1 .17 4.24zm-.74-1.27c.48.39 1.2.33 1.6-.13.4-.47.34-1.18-.14-1.58a1.1 1.1 0 0 0-.82-.27c-.3.03-.57.16-.76.4-.4.47-.34 1.18.13 1.58zm205.76-12.85c-.55 0-1.07-.21-1.47-.6a2.1 2.1 0 0 1-.06-3c.8-.84 2.15-.87 3-.07.84.82.87 2.16.07 3.01-.4.42-.97.66-1.54.66zm0-3.25a1.13 1.13 0 0 0-.78 1.93c.44.42 1.18.4 1.6-.03.42-.45.4-1.16-.04-1.6-.22-.2-.5-.3-.77-.3zm-190.27 1.82zm-.83-1.35c.42.44 1.15.46 1.6.05.45-.42.47-1.14.05-1.59a1.12 1.12 0 0 0-1.64 1.54zm174.77-11.09a2.13 2.13 0 0 1-.31-4.23 2.12 2.12 0 0 1 2.4 1.8 2.14 2.14 0 0 1-2.1 2.43zm0-3.25a1.12 1.12 0 0 0-.67 2.03c.46.35 1.21.25 1.57-.23a1.12 1.12 0 0 0-.23-1.57 1.1 1.1 0 0 0-.67-.23zm-157.44 2.04c-.68 0-1.33-.33-1.73-.89a2.11 2.11 0 0 1 .48-2.96 2.13 2.13 0 1 1 1.25 3.85zm0-3.26c-.24 0-.47.08-.66.22a1.12 1.12 0 0 0-.26 1.57c.35.48 1.08.61 1.57.25a1.13 1.13 0 0 0-.66-2.04zm139.42-7.1a2.1 2.1 0 0 1-2.03-1.52 2.1 2.1 0 0 1 .16-1.61 2.13 2.13 0 0 1 2.88-.86 2.15 2.15 0 0 1 .86 2.89c-.38.68-1.1 1.1-1.87 1.1zm-.54-1.13a1.12 1.12 0 1 0-.54-.66c.09.28.28.52.54.66zm-120.7.17a2.14 2.14 0 0 1-1.89-1.14 2.11 2.11 0 0 1 .9-2.87 2.1 2.1 0 0 1 2.86.9 2.13 2.13 0 0 1-1.88 3.1zm-1-1.6c.2.36.57.6 1 .6.17 0 .35-.05.52-.14a1.13 1.13 0 1 0-1.52-.47zm104.56-9.35a2.11 2.11 0 0 1 .15 1.74 2.12 2.12 0 0 1-2.63 1.32l-.09-.03a2.12 2.12 0 0 1-.6-3.66s.36-.3.7-.37a2.1 2.1 0 0 1 1.33.03s.83.36 1.14.97zm-2.29 2.07.07.02c.55.2 1.23-.12 1.42-.68a1.12 1.12 0 0 0-.68-1.44l-.06-.02a1.13 1.13 0 0 0-.75 2.12zm-81.61.4a2.1 2.1 0 0 1-2.01-1.44 2.13 2.13 0 0 1 1.33-2.7l.66-.22v.12a2.12 2.12 0 1 1 .02 4.25zm-.47-3.14c-.52.24-.78.83-.6 1.38a1.13 1.13 0 1 0 1.56-1.37 1.1 1.1 0 0 0-.85-.05l-.11.04zm61.83-1.65c-.13 0-.26-.01-.37-.04a2.1 2.1 0 0 1-1.72-2.46 2.13 2.13 0 1 1 2.1 2.5zm0-3.25a1.13 1.13 0 0 0-.92 1.78c.18.24.43.4.73.45h.02l.17.02c.55 0 1.01-.4 1.1-.93a1.13 1.13 0 0 0-1.1-1.32zm-21.32 1.4a2.13 2.13 0 1 1 0-4.26 2.13 2.13 0 0 1 0 4.26zm0-3.25a1.12 1.12 0 1 0 0 2.25 1.12 1.12 0 0 0 0-2.25z"/></g><ellipse transform="rotate(-23.01 418.32 448.94)" fill="#FFF" cx="418.3" cy="448.92" rx="16.2" ry="27.27"/><ellipse transform="rotate(-76.5 408.48 473.15)" fill="#FFF" cx="408.5" cy="473.17" rx="12.06" ry="18.93"/><ellipse transform="rotate(-66.45 454.89 486.8)" fill="#FFF" cx="454.92" cy="486.81" rx="16.2" ry="27.27"/><ellipse transform="rotate(-12.97 430.42 496.3)" fill="#FFF" cx="430.57" cy="496.37" rx="12.06" ry="18.93"/><ellipse transform="rotate(-43.33 427.26 477.69)" cx="427.26" cy="477.68" rx="18.93" ry="6.32"/><path d="M437.44 468.91a2 2 0 0 1-1.41-3.41c.1-.11 11.1-11.33 13.6-28.45.92-6.4-.81-10.7-4.76-11.82-3.56-1.01-8 .85-9.32 3.9-.7 1.6-.76 2.9-.22 4 .95 1.89 3.65 2.9 4.62 3.14a2 2 0 0 1-.92 3.9c-.54-.13-5.3-1.34-7.27-5.24-1.1-2.18-1.06-4.67.11-7.39 2.13-4.9 8.58-7.72 14.09-6.16 8.9 2.52 8.08 13.07 7.62 16.25-2.68 18.47-14.23 30.2-14.72 30.7a2 2 0 0 1-1.42.58z"/><path d="M473.99 475.46a7.42 7.42 0 0 1-3.45-.83c-3.87-2-5.04-6.77-5.16-7.31a2 2 0 0 1 3.9-.88c.23.97 1.22 3.68 3.1 4.64 1.1.56 2.4.5 4-.18 3.06-1.3 4.97-5.72 3.99-9.29-1.09-3.96-5.39-5.73-11.78-4.86-17.14 2.34-28.46 13.24-28.57 13.35a2 2 0 0 1-2.8-2.86c.5-.48 12.33-11.93 30.83-14.45 3.17-.44 13.73-1.15 16.18 7.77 1.51 5.53-1.37 11.95-6.3 14.03-1.38.58-2.7.87-3.94.87zM133.17 275.6l-89.49-84.94 2.75-2.9 82.74 78.53v-17.58h4z"/><path d="m46.81 219.29-.48-3.97 23.11-2.83v-23.28h4v26.82z"/><path d="m57.06 242.1-.61-3.96 34.23-5.34-1.7-37.67 3.99-.18 1.87 41.24zm23.2 21.81-.93-3.89 31.96-7.62v-40.64h4v43.8z"/><path fill="#FFF" d="M141.82 443.8c-38.54 0-67.96-9.62-68.27-9.72a2 2 0 0 1 1.26-3.8c.31.1 31.56 10.31 71.74 9.46 23.52-.49 45.44-4.63 65.16-12.29a156.95 156.95 0 0 0 63.13-44.92 2 2 0 0 1 3.05 2.6c-40.17 47.04-93.62 57.84-131.39 58.62-1.57.03-3.14.05-4.68.05zm-90.77-37.42a2 2 0 0 1-1.72-3.02 141.72 141.72 0 0 1 79.94-63.02 2 2 0 0 1 1.19 3.82 137.73 137.73 0 0 0-77.7 61.24 2 2 0 0 1-1.71.98z"/><path fill="#FFF" d="M291.4 406.38a2 2 0 0 1-1.72-.98 138.7 138.7 0 0 0-49.36-48.81 137.7 137.7 0 0 0-69.1-18.56c-10.41 0-18.18 1.19-26.65 2.98a2 2 0 1 1-.82-3.92c8.7-1.84 16.71-3.06 27.47-3.06 25.02 0 49.6 6.6 71.11 19.1a142.69 142.69 0 0 1 50.78 50.23 2 2 0 0 1-1.71 3.02z"/><path d="M249.99 239.9a43.18 43.18 0 0 1-33.23-15.49l-8.3-9.93a2 2 0 0 1 .22-2.8c1.45-1.26 2.1-3.48 2.8-5.85.55-1.85 1.12-3.77 2.14-5.4 1.07-1.7 2.58-3.08 4.05-4.43 1.8-1.65 3.51-3.21 3.96-4.98.45-1.8-.33-3.99-1.15-6.31-.65-1.87-1.34-3.8-1.47-5.78-.13-1.95.28-3.93.68-5.85.5-2.43.98-4.72.28-6.47-.66-1.65-2.54-2.95-4.53-4.32-1.66-1.15-3.38-2.34-4.7-3.92s-2.18-3.47-3.02-5.3c-1-2.21-1.95-4.3-3.45-5.24-1.6-1-3.93-.94-6.41-.87-1.96.06-3.99.11-5.89-.36-1.92-.49-3.7-1.5-5.42-2.48-2.14-1.22-4.17-2.35-6.01-2.24-1.82.12-3.66 1.52-5.6 3.01-1.59 1.2-3.22 2.45-5.09 3.2-1.78.72-3.77.94-5.69 1.15-2.44.26-4.75.52-6.25 1.72-.46.37-1.03.5-1.58.41a2 2 0 0 1-1.21-.69l-8.3-9.93a43.3 43.3 0 0 1 5.44-60.93 43.3 43.3 0 0 1 68.69 19.25 43.2 43.2 0 0 1 49.84 12.18 43.53 43.53 0 0 1 3.93 49.95 43.3 43.3 0 0 1 2.97 68.65A43.08 43.08 0 0 1 250 239.9zm-37.35-26.66 7.2 8.6a39.3 39.3 0 0 0 55.29 4.94 39.3 39.3 0 0 0-4.21-63.3 2 2 0 0 1-.6-2.8 39.48 39.48 0 0 0-2.6-46.86 39.2 39.2 0 0 0-47.14-10.2 2 2 0 0 1-2.8-1.26 39.3 39.3 0 0 0-62.96-19.47 39.3 39.3 0 0 0-4.93 55.3l7.19 8.6c2.08-1.03 4.48-1.3 6.65-1.53 1.73-.19 3.36-.37 4.63-.88 1.36-.54 2.71-1.58 4.15-2.67 2.33-1.78 4.74-3.62 7.76-3.82 3.05-.2 5.7 1.3 8.26 2.76 1.55.88 3.02 1.72 4.41 2.07 1.37.34 3.04.3 4.8.25 2.84-.08 6.04-.17 8.66 1.48 2.52 1.58 3.76 4.31 4.96 6.96.76 1.66 1.48 3.24 2.45 4.4.97 1.16 2.4 2.14 3.9 3.19 2.39 1.65 4.86 3.36 5.97 6.12 1.16 2.87.5 6-.07 8.77-.36 1.73-.7 3.37-.6 4.77.09 1.44.65 3.03 1.25 4.72.97 2.78 1.99 5.65 1.25 8.61-.74 2.94-2.98 4.98-5.14 6.96-1.33 1.22-2.58 2.37-3.36 3.61-.73 1.16-1.2 2.74-1.69 4.4-.61 2.1-1.3 4.41-2.68 6.28z"/><path d="M137.34 355.03a8.18 8.18 0 0 1-8.18-8.17v-73.53a75.1 75.1 0 0 1-63.38-19.5 75.07 75.07 0 0 1-22.7-64.9 2 2 0 0 1 1.59-1.68 75.07 75.07 0 0 1 66.06 19.03 74.27 74.27 0 0 1 18.6 27.89c.7-7.06 4-22.08 19-34.87l6.24-50.08a2 2 0 0 1 .81-1.37l.12-.09c2.4-1.86 5.5-2.2 8.23-2.5 1.73-.19 3.36-.37 4.63-.88a19.52 19.52 0 0 0 4.15-2.67c2.33-1.78 4.74-3.62 7.76-3.82 3.05-.2 5.7 1.3 8.26 2.76 1.55.88 3.02 1.72 4.41 2.06 1.37.35 3.04.3 4.81.25 2.83-.07 6.03-.16 8.65 1.48 2.52 1.59 3.76 4.32 4.97 6.96.76 1.67 1.47 3.25 2.44 4.4.97 1.17 2.4 2.15 3.9 3.2 2.4 1.65 4.86 3.35 5.97 6.11 1.16 2.88.5 6.01-.07 8.78-.36 1.73-.7 3.37-.6 4.77.09 1.44.65 3.03 1.25 4.72.98 2.77 1.99 5.64 1.25 8.6-.74 2.95-2.97 5-5.14 6.97-1.33 1.22-2.58 2.37-3.36 3.61-.73 1.16-1.2 2.74-1.69 4.4-.77 2.64-1.65 5.61-3.9 7.64l-.15.14-.08.07a2 2 0 0 1-1.96.35l-51.12-2.68c-12.97 11.67-12.62 24.89-12.6 25.02v109.36c0 4.5-3.67 8.17-8.17 8.17zm-6.18-86.08a2 2 0 0 1 2 2v75.9a4.18 4.18 0 0 0 8.35 0V237.72c-.01-.15-.72-15.5 14.58-28.78.39-.34.9-.51 1.41-.48l51.7 2.7c1.1-1.3 1.68-3.26 2.28-5.31.55-1.86 1.12-3.78 2.14-5.4 1.07-1.7 2.58-3.1 4.05-4.44 1.8-1.65 3.51-3.21 3.96-4.98.45-1.8-.33-3.99-1.15-6.3-.65-1.88-1.34-3.8-1.47-5.79-.13-1.95.28-3.93.68-5.85.5-2.43.99-4.72.28-6.47-.66-1.65-2.54-2.95-4.53-4.32-1.66-1.15-3.38-2.34-4.7-3.91s-2.18-3.48-3.01-5.32c-1-2.2-1.96-4.28-3.46-5.23-1.6-1-3.93-.94-6.41-.87-1.96.06-3.99.11-5.89-.36-1.92-.49-3.7-1.5-5.42-2.48-2.14-1.21-4.17-2.35-6-2.24-1.83.12-3.67 1.53-5.61 3.01-1.59 1.2-3.22 2.45-5.09 3.2-1.78.72-3.77.94-5.69 1.15-2.17.24-4.24.46-5.73 1.35l-6.23 49.98a2 2 0 0 1-.7 1.3c-18.43 15.31-18.4 34.02-18.34 36.1v10.74a2 2 0 0 1-3.97.33 70.25 70.25 0 0 0-21.21-39.85 71.05 71.05 0 0 0-61.13-18.28 71.06 71.06 0 0 0 21.67 60 71.09 71.09 0 0 0 62.26 18.07l.38-.03zm19.05-68.63h.01z"/><path d="M170.74 476.44c-45.9 0-89.02-24.9-121.4-70.12C17.11 361.31-.64 301.5-.64 237.9S17.1 114.49 49.34 69.47C81.72 24.26 124.84-.64 170.74-.64s89.02 24.9 121.4 70.11c32.23 45.02 49.98 104.83 49.98 168.43s-17.75 123.4-49.98 168.42c-32.38 45.22-75.5 70.12-121.4 70.12zm0-473.08C78.44 3.36 3.36 108.57 3.36 237.9s75.08 234.54 167.38 234.54S338.13 367.22 338.13 237.9 263.03 3.36 170.74 3.36z"/><path fill="#FFF" d="M130.5 370.25c-.95 0-1.88-.01-2.8-.03-22.5-.48-37.37-6.4-38-6.65a2 2 0 0 1 1.5-3.7c.15.05 14.94 5.91 36.76 6.36 20.1.38 50.43-3.84 80.94-26.33a2 2 0 1 1 2.38 3.22c-30.1 22.19-60.07 27.13-80.78 27.13zm2.63 38.3c-3.74 0-7.35-.13-10.78-.35-36.13-2.28-61.42-14.71-62.48-15.24a2 2 0 0 1 1.78-3.58c.26.13 25.75 12.64 61.1 14.84 20.72 1.29 40.71-1.15 59.45-7.27 23.42-7.64 44.95-21.08 63.98-39.94a2 2 0 1 1 2.82 2.85c-39.65 39.27-83.22 48.69-115.87 48.69z"/><path d="M221.78 178.35c-.4-1.03-.88-1.81-1.91-1.42l-53.05 20.03 45.61-37.87a2 2 0 0 0-2.55-3.08l-47.8 39.69 31.43-49.65a2 2 0 0 0-3.38-2.14l-29.33 46.32 9.55-42.43a2 2 0 0 0-3.9-.88l-11.77 52.29a10.51 10.51 0 0 0-5.13-.87l.44 3.97c.02 0 2.71-.24 4.19 1.38 1.4 1.55 1.22 4.32.82 6.37l3.92.77c.39-1.95.45-3.7.24-5.23l55.8-2.1-.16-4-48.2 1.82 54.02-20.4a2 2 0 0 0 1.16-2.57z"/></svg>