<svg viewBox="0 0 180 90" fill="none" xmlns="http://www.w3.org/2000/svg">
<path d="M17.005 4.70069C7.6284 4.70069 0 12.3647 0 21.6254C0 31.0458 7.6284 38.7098 17.005 38.7098C26.2226 38.7098 33.851 31.0458 33.851 21.6254C33.851 12.3647 26.2226 4.70069 17.005 4.70069Z" fill="white"/>
<path d="M67.7021 86.4503C78.509 86.4503 84.866 79.7443 90.1105 72.5593C95.355 79.7443 101.712 86.4503 112.519 86.4503C116.492 86.4503 119.988 85.3327 119.988 81.6603C119.988 79.425 118.24 77.3493 115.697 77.3493C114.744 77.3493 112.996 77.6686 111.883 77.6686C106.798 77.6686 100.758 70.9626 97.4211 66.1726C104.255 58.8279 111.724 49.4075 111.724 39.0291C111.724 27.0541 102.666 18.5917 90.1105 18.5917C77.5554 18.5917 68.4967 27.0541 68.4967 39.0291C68.4967 49.4075 75.9662 58.8279 82.8 66.1726C79.4625 70.9626 73.4234 77.6686 68.3378 77.6686C67.2253 77.6686 65.4771 77.3493 64.5236 77.3493C61.9808 77.3493 60.2326 79.425 60.2326 81.6603C60.2326 85.3327 63.729 86.4503 67.7021 86.4503Z" fill="white"/>
<path d="M163.154 4.70069C153.777 4.70069 146.149 12.3647 146.149 21.6254C146.149 31.0458 153.777 38.7098 163.154 38.7098C172.372 38.7098 180 31.0458 180 21.6254C180 12.3647 172.372 4.70069 163.154 4.70069Z" fill="white"/>
</svg>
