<svg xmlns="http://www.w3.org/2000/svg" viewBox="0 0 1920 1080" xml:space="preserve"><path fill="#FFF" d="M4 879.8a2 2 0 0 1 0-4l108.19-.41a2 2 0 0 1 .01 4l-108.19.4zm158.22 0a2 2 0 0 1 0-4l118.84-.41a2 2 0 0 1 .01 4l-118.84.4zm1479.49 0a2 2 0 0 1 0-4l116.59-.41a2 2 0 0 1 .01 4l-116.59.4zm168.09 0a2 2 0 0 1-.01-4l105.2-.41a2 2 0 0 1 .02 4l-105.2.4h-.02z"/><path d="M211.35 648.76v96.95l-98.88 243h-40.5l139.38-339.95m5-25.37L64.5 993.71h51.33l100.5-247.02v-123.3zm1493.94 23.11 139.24 342.2H1809l-98.88-242.99.17-99.22m-4.96-25.45-.2 125.65 100.5 247.02h51.33l-151.63-372.67z"/><path d="M209.71 161.19h1502.37v480.49H209.71z"/><ellipse fill="#2E9AFF" cx="1420.61" cy="215.03" rx="129.46" ry="129.47"/><path d="M1420.6 347c-72.76 0-131.95-59.2-131.95-131.97s59.2-131.97 131.95-131.97 131.97 59.2 131.97 131.97-59.2 131.98-131.96 131.98zm0-258.94c-70 0-126.95 56.96-126.95 126.97s56.95 126.98 126.95 126.98 126.97-56.96 126.97-126.98S1490.6 88.06 1420.6 88.06z"/><path fill="#FFF" d="M1326.15 249.67c6.51.29 12.7 3.08 18.12 6.7 2.18 1.45 4.3 3.06 6.73 4.04 6.66 2.7 14.6 0 19.69-5.06 5.09-5.07 7.76-12.07 9.42-19.06 3.73-15.71-.83-48.96 17.48-57.24 3.9-1.76 8.55-1.94 11.94-4.56 3.73-2.9 4.9-7.9 7.11-12.07 4.68-8.8 14.47-13.97 24.32-15.48 7.68-1.18 17.14-1.34 20.82-8.19 3.34-6.21-1.12-14.36-7.53-17.31-6.41-2.95-13.88-2.05-20.8-.6-6.9 1.45-13.93 3.39-20.9 2.33-12.3-1.87-23.32-12.87-35.38-9.8-14.72 3.76-17.25 10.47-31.26-.02l-2.74-2.08a129.29 129.29 0 0 0-52.02 103.77c0 15.32 2.67 30.02 7.55 43.66.67.35 1.38.63 2.14.8 9.04 1.96 14.67-10.3 25.31-9.83zm223.92-34.64c0-38.5-16.81-73.06-43.47-96.77a59.11 59.11 0 0 0-7.03 16.42c-1.68 6.67-.2 14.63 5.34 18.7 3.3 2.41 7.53 3.15 11.1 5.13a18.4 18.4 0 0 1 8.92 19.05c-.66 3.41-2.3 6.6-2.84 10.03-1.3 8.3 3.93 16.1 9.22 22.63 3.05 3.76 6.3 7.6 7.6 12.26 1.33 4.66.1 10.44-4.1 12.83-8.48 4.8-20.94-6.87-27.95-.12-1.78 1.71-2.55 4.24-2.77 6.7-1.04 11.66 8.48 21.85 9.36 33.52 1.38 18.09-17.55 31.4-22.78 48.5a129.37 129.37 0 0 0 59.4-108.88zm-186.32 111.14c1.77-3.17.98-7.12-.2-10.54-1.49-4.33-3.54-8.45-5.58-12.56-6.52-13.12-30.13-23.24-37.52-6a130 130 0 0 0 39.96 32.61c1.32-1 2.54-2.08 3.34-3.51z"/><path d="M1420.6 347c-72.76 0-131.95-59.2-131.95-131.97s59.2-131.97 131.95-131.97 131.97 59.2 131.97 131.97-59.2 131.98-131.96 131.98zm0-258.94c-70 0-126.95 56.96-126.95 126.97s56.95 126.98 126.95 126.98 126.97-56.96 126.97-126.98S1490.6 88.06 1420.6 88.06z"/><path d="M1420.6 88.06a2.5 2.5 0 0 1-2.5-2.5V2.8a2.5 2.5 0 1 1 5 0v82.76a2.5 2.5 0 0 1-2.5 2.5z"/><path fill="#FFF" d="M209.71 638.82c29.22-.96 56.91-3.17 78.58-23 20.93-19.17 46.83-41.34 77.07-40.24 37.43 1.36 62.63 28.56 101.73 20.48 51.8-10.7 84.74 14.06 132.17 31.9 62.68 23.57 131.12 8.37 196.11 9.82 51.28 1.14 103.34 15.9 153.1 3.49 42.44-10.6 77.47-39.62 116.14-60.07s88.6-31.53 124.41-6.43c16.18 11.34 31.66 30.23 50.94 25.94 15.96-3.56 23.62-21.08 32.25-34.97 16.78-26.98 45.74-46.05 77.16-50.8 31.41-4.75 64.71 4.9 88.72 25.72 17.41 15.1 30.65 36.02 51.85 45.06 16 6.83 34.8 5.97 49.9 14.6 18.64 10.64 32.52 22.36 54.64 27.3 20.3 4.55 41.42-6.58 62.22-6.58 13.72 0 37.6 4.96 55.38 16.59V993.7H209.7V638.82z"/><path fill="#2E9AFF" d="M304.17 850.97a2 2 0 0 1-.87-3.8c20.82-10.03 38.46-13.36 52.45-9.9 8.34 2.06 15.96 5.75 23.7 9.66a2 2 0 1 1-1.81 3.57c-7.52-3.8-14.92-7.38-22.85-9.35-12.88-3.18-30.08.15-49.75 9.62a2 2 0 0 1-.87.2zm1208.78 35.3a2 2 0 0 1-1.09-3.68c26.46-17.03 62.47-17.76 89.59-1.8a2 2 0 1 1-2.03 3.45c-25.86-15.21-60.17-14.52-85.39 1.72-.34.21-.71.31-1.08.31zm76.58-77.11a2 2 0 0 1-1.09-3.69c18.2-11.71 42.96-12.21 61.61-1.23a2 2 0 1 1-2.03 3.45c-17.38-10.23-40.45-9.77-57.41 1.15-.34.21-.71.32-1.08.32zm-50.49-79.72a2 2 0 0 1-1.09-3.68c18.2-11.72 42.96-12.21 61.62-1.24a2 2 0 1 1-2.03 3.45c-17.39-10.23-40.46-9.77-57.42 1.15-.33.22-.7.32-1.08.32zM271.4 769.3a2 2 0 0 1-.92-3.77c29.82-15.58 70.4-16.24 100.96-1.65a2 2 0 1 1-1.73 3.61c-29.48-14.07-68.62-13.44-97.38 1.58-.3.16-.61.23-.93.23zm1149.2 175.12H497.11l-35.2-209.12h993.89z"/><path d="M1420.6 946.42H497.1a2 2 0 0 1-1.97-1.66l-35.2-209.13a2 2 0 0 1 1.98-2.33h993.89a2 2 0 0 1 1.97 2.33l-35.2 209.13a2 2 0 0 1-1.97 1.66zm-921.8-4h920.1l34.53-205.12H464.27l34.53 205.12z"/><ellipse fill="#2E9AFF" cx="833.48" cy="936.53" rx="97.34" ry="97.35"/><path d="M833.48 1035.89c-54.78 0-99.34-44.57-99.34-99.36s44.56-99.35 99.34-99.35 99.34 44.57 99.34 99.36-44.56 99.35-99.34 99.35zm0-194.7c-52.57 0-95.34 42.77-95.34 95.35 0 52.57 42.77 95.35 95.34 95.35s95.34-42.78 95.34-95.35c0-52.58-42.77-95.36-95.34-95.36z"/><ellipse fill="#2E9AFF" cx="833.48" cy="936.53" rx="68.83" ry="68.84"/><path d="M833.48 1007.37c-39.06 0-70.83-31.78-70.83-70.84s31.77-70.83 70.83-70.83 70.83 31.77 70.83 70.83a70.9 70.9 0 0 1-70.83 70.84zm0-137.67a66.91 66.91 0 0 0-66.83 66.83c0 36.86 29.98 66.84 66.83 66.84s66.83-29.98 66.83-66.84a66.91 66.91 0 0 0-66.83-66.83z"/><ellipse fill="#2E9AFF" cx="616.14" cy="936.53" rx="97.34" ry="97.35"/><path d="M616.14 1035.89c-54.78 0-99.34-44.57-99.34-99.36s44.56-99.35 99.34-99.35 99.34 44.57 99.34 99.36-44.57 99.35-99.34 99.35zm0-194.7c-52.57 0-95.34 42.77-95.34 95.35 0 52.57 42.77 95.35 95.34 95.35s95.34-42.78 95.34-95.35c0-52.58-42.77-95.36-95.34-95.36z"/><ellipse fill="#2E9AFF" cx="616.14" cy="936.53" rx="68.83" ry="68.84"/><path d="M616.14 1007.37c-39.06 0-70.83-31.78-70.83-70.84s31.77-70.83 70.83-70.83 70.83 31.77 70.83 70.83a70.9 70.9 0 0 1-70.83 70.84zm0-137.67a66.91 66.91 0 0 0-66.83 66.83c0 36.86 29.98 66.84 66.83 66.84s66.83-29.98 66.83-66.84a66.91 66.91 0 0 0-66.83-66.83z"/><ellipse fill="#2E9AFF" cx="1084.95" cy="936.53" rx="97.34" ry="97.35"/><path d="M1084.95 1035.89c-54.78 0-99.34-44.57-99.34-99.36s44.56-99.35 99.34-99.35 99.34 44.57 99.34 99.36-44.57 99.35-99.34 99.35zm0-194.7c-52.57 0-95.34 42.77-95.34 95.35 0 52.57 42.77 95.35 95.34 95.35s95.34-42.78 95.34-95.35c0-52.58-42.77-95.36-95.34-95.36z"/><ellipse fill="#2E9AFF" cx="1084.95" cy="936.53" rx="68.83" ry="68.84"/><path d="M1084.95 1007.37c-39.06 0-70.83-31.78-70.83-70.84s31.77-70.83 70.83-70.83 70.83 31.77 70.83 70.83c0 39.07-31.78 70.84-70.83 70.84zm0-137.67a66.9 66.9 0 0 0-66.83 66.83 66.9 66.9 0 0 0 66.83 66.84 66.9 66.9 0 0 0 66.83-66.84 66.91 66.91 0 0 0-66.83-66.83z"/><ellipse fill="#2E9AFF" cx="1302.94" cy="936.53" rx="97.34" ry="97.35"/><path d="M1302.94 1035.89c-54.78 0-99.34-44.57-99.34-99.36s44.56-99.35 99.34-99.35 99.34 44.57 99.34 99.36-44.56 99.35-99.34 99.35zm0-194.7c-52.57 0-95.34 42.77-95.34 95.35 0 52.57 42.77 95.35 95.34 95.35s95.34-42.78 95.34-95.35c0-52.58-42.77-95.36-95.34-95.36z"/><ellipse fill="#2E9AFF" cx="1302.94" cy="936.53" rx="68.83" ry="68.84"/><path d="M1302.94 1007.37c-39.06 0-70.83-31.78-70.83-70.84s31.77-70.83 70.83-70.83 70.83 31.77 70.83 70.83c0 39.07-31.78 70.84-70.83 70.84zm0-137.67a66.9 66.9 0 0 0-66.83 66.83c0 36.86 29.98 66.84 66.83 66.84s66.83-29.98 66.83-66.84a66.91 66.91 0 0 0-66.83-66.83z"/><path fill="#2E9AFF" d="M461.91 526.7h700.79v208.6H461.91z"/><path d="M1162.7 737.3H461.9a2 2 0 0 1-2-2V526.7c0-1.1.9-2 2-2h700.8a2 2 0 0 1 2 2v208.6a2 2 0 0 1-2 2zm-698.8-4h696.8V528.7H463.9v204.6z"/><path fill="#2E9AFF" d="m1420.36 688.8 35.44 46.5h-293.11V526.7z"/><path d="M1455.8 737.3h-293.1a2 2 0 0 1-2-2V526.7a2 2 0 0 1 3.06-1.69l257.66 162.1c.2.12.38.29.53.48l35.43 46.5a2 2 0 0 1-1.59 3.21zm-291.1-4h287.06l-32.77-43-254.3-159.97V733.3z"/><path fill="#2E9AFF" d="M501.61 564.37H1123V735.3H501.61z"/><path d="M1123 737.3H501.6a2 2 0 0 1-2-2V564.37c0-1.1.9-2 2-2H1123a2 2 0 0 1 2 2V735.3a2 2 0 0 1-2 2zm-619.4-4H1121V566.37H503.6V733.3z"/><path d="M452.3 735.3h1016.86v43.78H452.3z"/><path d="M1469.16 781.08H452.3a2 2 0 0 1-2-2V735.3c0-1.1.9-2 2-2h1016.87a2 2 0 0 1 2 2v43.78a2 2 0 0 1-2 2zm-1014.86-4h1012.87V737.3H454.3v39.78z"/><path fill="#FFF" d="M1162.7 528.7a2 2 0 0 1-2-2V344.04a2 2 0 0 1 4 0V526.7a2 2 0 0 1-2 2zm-700.8 0a2 2 0 0 1-2-2V344.04a2 2 0 0 1 4 0V526.7a2 2 0 0 1-2 2z"/><ellipse transform="rotate(-27.82 601.84 414.86)" fill="#2E9AFF" cx="601.89" cy="414.86" rx="123.98" ry="16.42"/><path d="M497.45 476.52c-4.55 0-6.2-1.4-6.98-2.87-1.71-3.25-.75-9.87 27.31-29.78 19.33-13.72 46.15-29.81 75.52-45.3 29.36-15.5 57.78-28.56 80.01-36.77 32.27-11.92 38.29-8.98 40-5.74 1.71 3.25.75 9.87-27.31 29.78-19.33 13.73-46.15 29.82-75.52 45.3-29.36 15.5-57.78 28.56-80.01 36.78-17.7 6.53-27.5 8.6-33.02 8.6zm208.88-119.31c-4.1 0-12.92 1.43-31.63 8.34-22.08 8.16-50.32 21.14-79.54 36.55-29.21 15.42-55.87 31.41-75.06 45.03-27.67 19.64-26.12 24.6-26.1 24.65.03.05 3.26 4.14 35.08-7.62 22.08-8.15 50.33-21.14 79.54-36.55 29.21-15.42 55.87-31.4 75.07-45.03 27.66-19.63 26.1-24.6 26.08-24.65 0-.02-.56-.72-3.44-.72z"/><path fill="#2E9AFF" d="M609.55 536.02a2 2 0 0 1-2-2V429.38a2 2 0 0 1 4 0v104.64a2 2 0 0 1-2 2z"/><path d="M609.66 566.37a2 2 0 0 1-2-2V526.7a2 2 0 0 1 4 0v37.67a2 2 0 0 1-2 2zm26.14 0a2 2 0 0 1-2-2V526.7a2 2 0 0 1 4 0v37.67a2 2 0 0 1-2 2zm26.12 0a2 2 0 0 1-2-2V526.7a2 2 0 0 1 4 0v37.67a2 2 0 0 1-2 2zm26.13 0a2 2 0 0 1-2-2V526.7a2 2 0 0 1 4 0v37.67a2 2 0 0 1-2 2zm26.12 0a2 2 0 0 1-2-2V526.7a2 2 0 0 1 4 0v37.67a2 2 0 0 1-2 2zm26.13 0a2 2 0 0 1-2-2V526.7a2 2 0 0 1 4 0v37.67a2 2 0 0 1-2 2zm26.13 0a2 2 0 0 1-2-2V526.7a2 2 0 0 1 4 0v37.67a2 2 0 0 1-2 2zm26.13 0a2 2 0 0 1-2-2V526.7a2 2 0 0 1 4 0v37.67a2 2 0 0 1-2 2zm-7.51 134.42H575.81a38.37 38.37 0 0 1-38.38-38.38v-25.15a38.37 38.37 0 0 1 38.38-38.38h209.24a38.37 38.37 0 0 1 38.38 38.38v25.15a38.37 38.37 0 0 1-38.38 38.38z"/><path fill="#FFF" d="M595.1 675.57c-9.77 0-14.62-8.2-15.81-12.54a2 2 0 0 1-.08-.53v-37.66a2 2 0 0 1 4 0v37.36c.5 1.5 3.45 9.37 11.9 9.37 8.42 0 11.39-7.85 11.88-9.37v-37.36a2 2 0 0 1 4 0v37.66a2 2 0 0 1-.07.53c-1.2 4.34-6.05 12.54-15.82 12.54zm170.66 0c-9.77 0-14.62-8.2-15.82-12.54a2 2 0 0 1-.07-.53v-37.66a2 2 0 0 1 4 0v37.36c.49 1.5 3.45 9.37 11.89 9.37 8.43 0 11.39-7.85 11.88-9.37v-37.36a2 2 0 0 1 4 0v37.66a2 2 0 0 1-.07.53c-1.2 4.34-6.05 12.54-15.81 12.54z"/><circle fill="#FFF" cx="638.18" cy="644.14" r="6.83"/><circle fill="#FFF" cx="723.44" cy="644.14" r="6.83"/><path fill="#FFF" d="M692.2 649.9c0 6.96-8.12 19.2-12.6 19.2-4 0-12.59-12.24-12.59-19.2a12.6 12.6 0 1 1 25.19 0z"/><path fill="#FFF" d="M667.17 676.8c-1.7 0-2.83-.4-2.86-.42a2 2 0 0 1 1.38-3.75c.3.1 6.5 2.05 10.81-8.53a2 2 0 1 1 3.7 1.51c-3.9 9.57-9.62 11.18-13.03 11.18z"/><path fill="#FFF" d="M692.04 676.8c-3.4 0-9.14-1.61-13.04-11.19a2 2 0 0 1 3.7-1.5c4.4 10.78 10.73 8.55 10.8 8.52a2 2 0 1 1 1.4 3.75c-.03.01-1.16.41-2.86.41zm601.81-33.91-105.93 65.33V575.14zm-70.4 65.33 91.37-56.27 91.28 55.81z"/><circle fill="#FFF" cx="616.14" cy="936.53" r="18.66"/><circle fill="#FFF" cx="833.48" cy="936.53" r="18.66"/><circle fill="#FFF" cx="1084.95" cy="936.53" r="18.66"/><circle fill="#FFF" cx="1302.94" cy="936.53" r="18.66"/><path fill="#FFF" d="M504.9 851.11a2 2 0 0 1-1.61-3.19l34.09-46.36a2 2 0 0 1 1.6-.81H907.2a2 2 0 0 1 1.6.78L944 847.9a2 2 0 0 1-3.18 2.42l-34.6-45.58H540l-33.5 45.55a2 2 0 0 1-1.6.82zm467.23 0a2 2 0 0 1-1.61-3.19l34.1-46.36a2 2 0 0 1 1.6-.81h368.22a2 2 0 0 1 1.6.78l35.2 46.37a2 2 0 0 1-3.18 2.42l-34.6-45.58h-366.22l-33.5 45.55a2 2 0 0 1-1.61.82z"/><circle fill="#FFF" cx="957.38" cy="290.42" r="28.32"/><circle fill="#FFF" cx="1572.75" cy="385.88" r="22.68"/><circle fill="#FFF" cx="891.19" cy="385.88" r="22.68"/><circle fill="#FFF" cx="383.84" cy="432.19" r="13.26"/><circle fill="#FFF" cx="1611.12" cy="539.98" r="14.36"/><circle fill="#FFF" cx="294.32" cy="519.85" r="6.84"/><circle fill="#FFF" cx="564.63" cy="223.99" r="6.84"/><circle fill="#FFF" cx="1277.44" cy="446.45" r="6.84"/><circle fill="#FFF" cx="783.7" cy="272.05" r="6.84"/><circle fill="#FFF" cx="1039.73" cy="429.38" r="6.84"/><circle fill="#FFF" cx="1132.61" cy="267.73" r="3.42"/><circle fill="#FFF" cx="1031.87" cy="214.63" r="3.42"/><circle fill="#FFF" cx="261.91" cy="214.63" r="3.42"/><circle fill="#FFF" cx="545.37" cy="349.9" r="3.42"/><circle fill="#FFF" cx="754.08" cy="243.69" r="3.42"/><circle fill="#FFF" cx="1649.25" cy="408.56" r="3.42"/><circle fill="#FFF" cx="1084.95" cy="458.55" r="3.42"/><circle fill="#FFF" cx="1240.88" cy="230.82" r="3.42"/><circle fill="#FFF" cx="723.44" cy="458.55" r="3.42"/><circle fill="#FFF" cx="1656.09" cy="267.73" r="6.84"/><g fill="#FFF"><circle cx="1427.43" cy="406.22" r="6.84"/><circle cx="1455.56" cy="438.84" r="6.84"/></g><path fill="#2E9AFF" d="M319.5 306.25a34.6 34.6 0 1 0 63.64-25.82c-25.85 19.44-52.22 24.5-63.63 25.81z"/><ellipse transform="rotate(-22.71 352.87 297.22)" fill="#FFF" cx="352.91" cy="297.25" rx="70.59" ry="16.25"/><path fill="#2E9AFF" d="M339.56 265.33a34.6 34.6 0 0 0-20.05 40.92c2.37 6.48 62-17.86 63.63-25.82a34.6 34.6 0 0 0-43.58-15.1z"/><path d="M1532.26 1080.2a66.35 66.35 0 0 0-80.06-50.3c-16.23-24.21-43.83-40.15-75.17-40.15s-58.94 15.94-75.17 40.15a66.35 66.35 0 0 0-80.06 50.3h310.46zm-864.94-65.96c-6.66 0-13.12.8-19.33 2.26a114.31 114.31 0 0 0-95.11-50.8c-24.57 0-47.33 7.75-65.98 20.94a94.88 94.88 0 0 0-70.94-31.76 95.15 95.15 0 0 0-88.29 59.7 95.58 95.58 0 0 0-18.27-1.77c-42.87 0-79.1 28.36-91 67.34h530.88a83.93 83.93 0 0 0-81.96-65.91z"/></svg>