<svg viewBox="0 0 36 39" xmlns="http://www.w3.org/2000/svg">
  <path d="M35.7793 31.6677C35.6388 31.4132 35.4321 31.2009 35.1807 31.0529L33.38 29.9788C32.6771 29.5588 32.0955 28.9652 31.6919 28.2557C31.2882 27.5463 31.0761 26.7451 31.0761 25.93V16.2494C31.0744 13.4413 30.1577 10.7092 28.463 8.46217C26.7684 6.21509 24.387 4.57392 21.6754 3.78432C21.5581 3.75114 21.4548 3.68114 21.3809 3.58477C21.3071 3.48841 21.2666 3.37087 21.2655 3.24972C21.2655 2.38784 20.921 1.56126 20.3077 0.951823C19.6945 0.342382 18.8628 0 17.9956 0C17.1284 0 16.2966 0.342382 15.6834 0.951823C15.0701 1.56126 14.7256 2.38784 14.7256 3.24972C14.7244 3.37083 14.6838 3.48831 14.61 3.58465C14.5361 3.68098 14.4329 3.75102 14.3157 3.78432C11.6041 4.57392 9.22274 6.21509 7.52808 8.46217C5.83341 10.7092 4.91668 13.4413 4.91499 16.2494V25.9284C4.91507 26.7434 4.70295 27.5447 4.29925 28.2541C3.89555 28.9635 3.31401 29.5571 2.61117 29.9771L0.810334 31.0513C0.499404 31.2358 0.25758 31.5161 0.121628 31.8497C-0.0143322 32.1833 -0.0369881 32.5519 0.0570942 32.8995C0.151185 33.247 0.356859 33.5545 0.64288 33.7752C0.928901 33.996 1.27963 34.118 1.64174 34.1225H34.3443C34.631 34.1157 34.9111 34.036 35.1579 33.8908C35.4046 33.7456 35.6097 33.5398 35.7534 33.2933C35.8972 33.0467 35.9749 32.7676 35.979 32.4827C35.9831 32.1978 35.9135 31.9165 35.7769 31.666L35.7793 31.6677Z" fill="#000000"/>
  <path d="M15.1687 38.1011C15.786 38.5351 16.4962 38.8209 17.2435 38.936C17.9908 39.0512 18.7548 38.9925 19.4753 38.7646C20.1959 38.5367 20.8535 38.1458 21.3963 37.6226C21.9392 37.0995 22.3526 36.4583 22.6039 35.7495H13.3845C13.7211 36.6974 14.3442 37.5188 15.1687 38.1011Z" fill="#000000"/>
</svg>
