<svg viewBox="0 0 24 24" xmlns="http://www.w3.org/2000/svg">
  <path d="M15.9996 3.78938H18.6659C19.3731 3.78938 20.0513 4.05553 20.5513 4.5293C21.0514 5.00306 21.3323 5.64562 21.3323 6.31563V16.6354C22.2222 16.9333 22.9722 17.5198 23.4499 18.2911C23.9275 19.0624 24.102 19.9688 23.9424 20.8501C23.7829 21.7315 23.2996 22.5311 22.578 23.1075C21.8564 23.6839 20.9429 24 19.9991 24C19.0553 24 18.1418 23.6839 17.4202 23.1075C16.6986 22.5311 16.2153 21.7315 16.0558 20.8501C15.8962 19.9688 16.0707 19.0624 16.5483 18.2911C17.026 17.5198 17.776 16.9333 18.6659 16.6354V6.31563H15.9996V10.105L10.0002 5.0525L15.9996 0V3.78938ZM2.66771 8.62715C1.77782 8.32917 1.02777 7.74271 0.550134 6.97143C0.0724992 6.20016 -0.101962 5.29373 0.057587 4.41236C0.217136 3.531 0.700422 2.73145 1.42202 2.15505C2.14362 1.57865 3.05706 1.26251 4.00089 1.26251C4.94473 1.26251 5.85817 1.57865 6.57977 2.15505C7.30137 2.73145 7.78465 3.531 7.9442 4.41236C8.10375 5.29373 7.92929 6.20016 7.45165 6.97143C6.97402 7.74271 6.22397 8.32917 5.33408 8.62715V16.6354C6.22397 16.9333 6.97402 17.5198 7.45165 18.2911C7.92929 19.0624 8.10375 19.9688 7.9442 20.8501C7.78465 21.7315 7.30137 22.5311 6.57977 23.1075C5.85817 23.6839 4.94473 24 4.00089 24C3.05706 24 2.14362 23.6839 1.42202 23.1075C0.700422 22.5311 0.217136 21.7315 0.057587 20.8501C-0.101962 19.9688 0.0724992 19.0624 0.550134 18.2911C1.02777 17.5198 1.77782 16.9333 2.66771 16.6354V8.62715Z" fill="#000000"/>
</svg>
