<svg viewBox="0 0 41 32" xmlns="http://www.w3.org/2000/svg">
  <path d="M23.1651 24.6L22.5501 25.2V18C22.5501 16.8 21.7301 16 20.5001 16C19.2701 16 18.4501 16.8 18.4501 18V25.2L17.8351 24.6C17.0151 23.8 15.7851 23.8 14.9651 24.6C14.1451 25.4 14.1451 26.6 14.9651 27.4L19.0651 31.4C19.2701 31.6 19.4751 31.8 19.6801 31.8C19.8851 32 20.2951 32 20.5001 32C20.7051 32 21.1151 32 21.3201 31.8C21.5251 31.6 21.7301 31.6 21.9351 31.4L26.0351 27.4C26.8551 26.6 26.8551 25.4 26.0351 24.6C25.2151 23.8 23.9851 23.8 23.1651 24.6Z" fill="#000000"/>
  <path d="M36.08 11.2C35.465 9.8 34.645 8.4 33.415 7.4C30.955 5 27.47 3.8 23.985 4.2C23.78 3.8 23.37 3.6 23.165 3.4C21.32 1.2 18.45 0 15.375 0C12.3 0 9.43 1.2 7.38 3.2C5.33 5.2 4.1 8 4.1 11C4.1 11.2 4.1 11.4 4.1 11.6C3.69 12 3.075 12.2 2.665 12.8C0.82 14.4 0 16.8 0 19.2C0 24 4.1 28 9.225 28C10.455 28 11.275 27.2 11.275 26C11.275 24.8 10.455 24 9.225 24C6.355 24 4.1 21.8 4.1 19C4.1 17.6 4.715 16.4 5.535 15.4C5.945 15 6.56 14.6 6.97 14.4C7.79 14 8.405 13.2 8.2 12.2C8.2 11.8 8.2 11.4 8.2 11C8.2 9.2 9.02 7.4 10.25 6C12.915 3.4 17.63 3.4 20.295 6C20.705 6.4 21.115 6.8 21.32 7.4C21.73 8.2 22.755 8.4 23.575 8.2C24.395 8 25.01 8 25.625 8C27.47 8 29.315 8.8 30.75 10C31.57 10.8 32.185 11.8 32.595 13C32.8 13.6 33.21 14 33.825 14.4C35.67 15.2 36.9 17 36.9 19C36.9 20.4 36.285 21.6 35.465 22.6C34.44 23.6 33.21 24 31.775 24C30.545 24 29.725 24.8 29.725 26C29.725 27.2 30.545 28 31.775 28C34.235 28 36.49 27 38.335 25.4C40.18 23.8 41 21.4 41 19C41 15.6 39.155 12.6 36.08 11.2Z" fill="#000000"/>
</svg>
