<svg xmlns="http://www.w3.org/2000/svg" width="1920" height="1080"><path fill="#F68635" d="M939.831 370.896h321.125v92.518H939.831z"/><path d="M633.198 645.044c7.029 8.022 11.295 12.896 21.475 24.521 4.717 5.386 4.176 13.577-1.209 18.294-4.785 4.189-11.777 4.221-16.59.4l-.004.004c-20.319-16.101-20.829-16.504-50.29-39.853l.011-.011a19.054 19.054 0 01-2.476-2.34c-.288-.328-.542-.675-.803-1.016h49.886z"/><path fill="#F68635" d="M541.661 644.288h-60.766"/><path fill="#FFF" d="M480.895 642.134h60.767v4.309h-60.767z"/><circle fill="#F68635" cx="366.332" cy="761.845" r="72.452"/><path d="M366.332 836.453c-41.138 0-74.606-33.469-74.606-74.608 0-41.141 33.468-74.61 74.606-74.61s74.606 33.47 74.606 74.61c0 41.139-33.468 74.608-74.606 74.608zm0-144.91c-38.762 0-70.298 31.537-70.298 70.302 0 38.764 31.536 70.3 70.298 70.3s70.298-31.536 70.298-70.3c0-38.765-31.536-70.302-70.298-70.302z"/><path fill="#FFF" d="M537.218 465.835c-29.157 0-52.794 23.638-52.794 52.795l52.883.069-.089-52.864z"/><path fill="#F68635" d="M1260.958 370.633H939.804"/><path fill="#FFF" d="M939.804 368.478h321.154v4.31H939.804zM853.261 646.388H536.879l.001-55.034h369.261v2.154c0 29.158-23.722 52.88-52.88 52.88zm-312.073-4.309h312.073c26.06 0 47.392-20.631 48.524-46.417H541.188v46.417z"/><path fill="#FFF" d="M584.742 733.03h88.719c26.382 0 47.844-21.461 47.844-47.842V644.86h-29.696v40.328c0 10.005-8.142 18.147-18.147 18.147h-88.719c-10.007 0-18.148-8.143-18.148-18.147V644.86H536.9v40.328c-.002 26.381 21.46 47.842 47.842 47.842zM1260.571 370.452c-8.311-18.699-56.366-34.629-75.489-34.629-19.125 0-34.63 15.504-34.63 34.629h110.119zM1443.532 863.486l109.985-66.115 112.183 66.115V443.347h-222.168z"/><g fill="#FFF"><path d="M939.831 463.415h321.125v51.128H939.831z"/><path d="M1263.11 516.698H937.676V461.26h325.434v55.438zm-321.124-4.31h316.816v-46.819H941.986v46.819z"/></g><path d="M1261.384 514.917l82.782 28.677V345.562l-82.782 25.431z"/><path d="M1346.32 546.62l-87.091-30.17V369.401l87.091-26.754V546.62zm-82.782-33.237l78.474 27.185v-192.09l-78.474 24.106v140.799z"/><g fill="#FFF"><path d="M631.558 340.693c-38.122 0-70.845 23.059-85.017 55.983l-99.218-18.177v-37.874l184.235.068z"/><path d="M547.841 399.105l-102.672-18.81V338.47l186.39.069-.001 4.309c-36.146 0-68.74 21.464-83.038 54.681l-.679 1.576zm-98.363-22.401l95.779 17.547a94.654 94.654 0 0158.054-51.414l-153.833-.057v33.924z"/></g><path d="M546.541 396.676c14.172-32.924 46.895-55.983 85.017-55.983h308.407v253.221H539.034V433.216c0-12.979 2.683-25.327 7.507-36.54z"/><path d="M942.119 596.068H536.88V433.216c0-12.963 2.584-25.543 7.682-37.391 14.979-34.8 49.127-57.286 86.996-57.286H942.12v257.529zm-400.931-4.308H937.81V342.847H631.558c-36.146 0-68.74 21.464-83.038 54.681-4.865 11.306-7.332 23.313-7.332 35.688V591.76zM1342.347 436.879h323.354v15.398h-323.354z"/><path fill="#F68635" d="M687.984 527.92c-35.42-1.14-63.881-30.309-63.881-66.001 0-35.692 28.461-64.861 63.881-66.001V527.92z"/><path d="M685.83 398.182v127.475c-33.221-2.225-59.571-29.962-59.571-63.737-.001-33.776 26.35-61.513 59.571-63.738m4.309-4.453c-37.661 0-68.189 30.53-68.189 68.19 0 37.662 30.528 68.19 68.189 68.19v-136.38z"/><path fill="#F68635" d="M688.562 395.883h152.301v132.072H688.562z"/><path d="M838.708 398.038V525.8H690.717V398.038h147.991m4.31-4.309h-156.61v136.38h156.609v-136.38h.001z"/><g><path fill="#FFF" d="M754.94 488.356l-.535-.041c-13.854-.749-24.706-12.211-24.706-26.096s10.852-25.347 24.706-26.094l.785-.042h80.17v52.273h-80.42z"/><path fill="#FFF" d="M833.205 438.238v47.963H755.21l-.688-.037c-12.711-.687-22.667-11.205-22.667-23.945 0-12.741 9.957-23.257 22.667-23.942l.602-.039h78.081m4.309-4.309h-83.225v.045c-14.905.803-26.744 13.141-26.744 28.245 0 15.106 11.839 27.442 26.744 28.248v.043h83.225v-56.581z"/></g><g><path d="M352.636 756.235a28.7 28.7 0 004.7-3.785c1.124-1.126 2.105-2.335 2.999-3.585a28.5 28.5 0 005.997.644c1.593 0 3.144-.162 4.659-.412a28.587 28.587 0 003.783 4.696c1.127 1.125 2.338 2.105 3.59 3.002a28.549 28.549 0 00-.646 5.999c0 1.591.163 3.137.416 4.656a28.582 28.582 0 00-4.698 3.785c-1.126 1.123-2.104 2.335-3.004 3.587a28.469 28.469 0 00-5.996-.646c-1.593 0-3.141.166-4.658.414a28.74 28.74 0 00-3.785-4.698c-1.126-1.126-2.337-2.104-3.59-3 .419-1.936.647-3.941.647-6.001 0-1.588-.163-3.136-.414-4.656z"/><path d="M371.358 777.226l-1.38-.297a26.415 26.415 0 00-5.542-.598c-1.312 0-2.722.126-4.311.386l-1.39.228-.766-1.182a26.662 26.662 0 00-3.501-4.347c-.936-.936-2.021-1.843-3.32-2.771l-1.151-.824.299-1.384c.397-1.835.599-3.701.599-5.545 0-1.327-.126-2.735-.385-4.305l-.23-1.394 1.186-.767a26.668 26.668 0 004.349-3.502c.947-.948 1.854-2.033 2.768-3.312l.823-1.15 1.383.297c1.839.396 3.705.596 5.544.596 1.335 0 2.745-.126 4.309-.384l1.393-.229.767 1.185a26.477 26.477 0 003.498 4.344c.943.941 2.03 1.85 3.321 2.773l1.148.822-.296 1.382a26.51 26.51 0 00-.599 5.547c0 1.332.127 2.739.387 4.303l.232 1.395-1.187.768a26.566 26.566 0 00-4.346 3.5c-.932.929-1.839 2.015-2.777 3.32l-.825 1.145zm-6.922-5.204c1.684 0 3.386.145 5.076.43a28.507 28.507 0 012.402-2.742 30.515 30.515 0 013.892-3.282 28.489 28.489 0 01-.242-3.634c0-1.68.145-3.382.431-5.077a28.974 28.974 0 01-2.742-2.399 30.367 30.367 0 01-3.285-3.894c-1.273.16-2.472.239-3.635.239-1.685 0-3.386-.144-5.075-.428a29.113 29.113 0 01-2.396 2.737 30.777 30.777 0 01-3.898 3.286c.162 1.276.241 2.475.241 3.633 0 1.689-.145 3.393-.43 5.079 1.02.789 1.924 1.58 2.742 2.398a30.665 30.665 0 013.286 3.896 28.96 28.96 0 013.633-.242z"/><g><path d="M278.407 775.207h.017c.754 48.879 40.589 88.279 89.648 88.279 48.528 0 88.026-38.55 89.606-86.694l.465.004V675.074s-2.03-30.786 24.078-30.786V520.869c-228.061 0-203.814 254.338-203.814 254.338zm19.918-14.313c0-10.027 5.196-18.822 13.033-23.894-1.451-8.75 1.172-18.046 7.925-24.802 7.089-7.089 16.986-9.633 26.109-7.68 5.162-7.213 13.591-11.933 23.14-11.933 10.027 0 18.823 5.199 23.894 13.03 8.753-1.449 18.049 1.173 24.801 7.924 7.088 7.091 9.638 16.986 7.681 26.111 7.218 5.161 11.933 13.592 11.933 23.14 0 10.028-5.193 18.823-13.03 23.894 1.451 8.751-1.172 18.049-7.925 24.801-7.089 7.09-16.983 9.636-26.107 7.682-5.164 7.215-13.592 11.932-23.143 11.932-10.026 0-18.823-5.194-23.893-13.03-8.754 1.452-18.049-1.172-24.802-7.926-7.089-7.088-9.637-16.983-7.682-26.106-7.213-5.164-11.934-13.596-11.934-23.143z"/><path d="M368.072 865.641c-24.277 0-47.167-9.387-64.452-26.431-17.195-16.955-26.9-39.562-27.346-63.683l-.012-.116c-.029-.306-2.857-31.107 2.745-70.679 5.18-36.592 18.829-88.433 54.442-127.602 35.243-38.762 85.297-58.417 148.773-58.417h2.154v127.729h-2.154c-6.333 0-11.39 1.969-15.032 5.85-7.721 8.229-6.906 22.5-6.896 22.643l.005.14V778.97l-.559-.005c-1.278 23.092-11.086 44.603-27.758 60.776-17.218 16.701-39.915 25.9-63.91 25.9zM280.4 773.053h.128l.049 2.121c.356 23.091 9.614 44.743 26.068 60.969 16.474 16.243 38.288 25.189 61.426 25.189 22.869 0 44.5-8.767 60.909-24.686 16.37-15.881 25.797-37.162 26.544-59.925l.069-2.102.395.003V675.14c-.079-1.354-.732-16.407 8.042-25.778 4.057-4.333 9.444-6.736 16.036-7.16v-119.17c-61.186.44-109.437 19.611-143.43 57-34.875 38.357-48.269 89.313-53.364 125.306-4.729 33.416-3.379 60.412-2.872 67.715zm86.235 60.2c-9.952 0-19.167-4.782-24.919-12.862-1.221.146-2.453.22-3.68.22-8.174 0-15.852-3.177-21.619-8.944-7.037-7.036-10.171-16.933-8.526-26.714-7.363-5.795-11.72-14.687-11.72-24.059 0-9.95 4.784-19.165 12.865-24.92-1.111-9.301 2.096-18.668 8.723-25.299 5.77-5.77 13.449-8.946 21.624-8.946 1.704 0 3.412.142 5.093.423 5.793-7.364 14.684-11.72 24.056-11.72 9.949 0 19.164 4.782 24.92 12.862a30.976 30.976 0 013.675-.219c8.177 0 15.856 3.176 21.623 8.941 7.038 7.041 10.172 16.938 8.525 26.719 7.363 5.789 11.719 14.68 11.719 24.056 0 9.952-4.783 19.167-12.863 24.921 1.111 9.303-2.096 18.67-8.724 25.297-5.77 5.771-13.448 8.948-21.622 8.948a30.823 30.823 0 01-5.093-.423c-5.792 7.363-14.683 11.719-24.057 11.719zm-22.851-17.541l.768 1.187c4.88 7.543 13.135 12.046 22.083 12.046 8.45 0 16.447-4.124 21.391-11.031l.822-1.148 1.381.296c1.823.39 3.692.588 5.558.588 7.022 0 13.619-2.729 18.575-7.687 5.975-5.975 8.712-14.544 7.323-22.925l-.231-1.394 1.186-.768c7.543-4.881 12.046-13.137 12.046-22.085 0-8.453-4.124-16.448-11.032-21.387l-1.149-.822.296-1.383c1.883-8.782-.77-17.806-7.098-24.136-4.952-4.952-11.549-7.68-18.575-7.68-1.453 0-2.917.121-4.35.358l-1.393.23-.768-1.186c-4.884-7.543-13.14-12.047-22.085-12.047-8.448 0-16.444 4.124-21.388 11.032l-.822 1.148-1.381-.296a26.604 26.604 0 00-5.558-.588c-7.024 0-13.621 2.729-18.577 7.685-5.975 5.978-8.712 14.548-7.323 22.926l.231 1.394-1.186.768c-7.545 4.883-12.049 13.139-12.049 22.085 0 8.449 4.125 16.445 11.033 21.391l1.149.822-.296 1.381c-1.882 8.784.771 17.806 7.099 24.132 4.954 4.954 11.549 7.683 18.572 7.683 1.455 0 2.919-.121 4.354-.358l1.394-.231z"/></g></g><g><g fill="#FFF"><path d="M311.209 688.726c6.993 22.387 30.81 34.859 53.196 27.863 22.383-6.995 34.858-30.813 27.861-53.196-6.995-22.385-30.812-34.857-53.196-27.863-22.384 6.995-34.859 30.813-27.861 53.196z"/><path d="M351.726 720.688h-.002c-19.611-.001-36.719-12.588-42.571-31.32-3.556-11.374-2.469-23.453 3.06-34.011 5.529-10.557 14.839-18.329 26.215-21.885a44.66 44.66 0 0113.321-2.042c19.611 0 36.72 12.586 42.574 31.319 3.556 11.374 2.468 23.453-3.061 34.011-5.53 10.558-14.839 18.33-26.214 21.885a44.608 44.608 0 01-13.322 2.043zm.023-84.949c-4.066 0-8.116.621-12.036 1.847-10.277 3.212-18.688 10.233-23.683 19.771-4.996 9.537-5.977 20.449-2.765 30.726 5.287 16.924 20.742 28.296 38.458 28.296h.002c4.066 0 8.115-.621 12.037-1.847 10.276-3.211 18.687-10.232 23.682-19.771s5.978-20.45 2.766-30.727c-5.289-16.924-20.745-28.295-38.461-28.295z"/></g><path fill="#F68635" d="M351.727 714.107c-16.719 0-31.306-10.729-36.297-26.7-6.256-20.021 4.941-41.399 24.961-47.656a38.046 38.046 0 0111.356-1.74c16.72 0 31.306 10.729 36.297 26.7 6.257 20.021-4.94 41.399-24.96 47.656a38.053 38.053 0 01-11.357 1.74zm.02-71.788c-3.402 0-6.791.52-10.071 1.545-17.751 5.548-27.681 24.505-22.133 42.258 4.426 14.162 17.359 23.677 32.184 23.677 3.402 0 6.792-.52 10.072-1.545 17.752-5.548 27.68-24.504 22.132-42.258-4.426-14.162-17.36-23.677-32.184-23.677z"/><path fill="#F68635" d="M343.04 641.087l21.408 68.503-4.113 1.285-21.408-68.503z"/><path fill="#F68635" d="M353.697 675.918l32.574 7.99-1.027 4.185-32.574-7.99z"/><path fill="#F68635" d="M351.039 676.788l3.227 2.855-22.227 25.118-3.227-2.855z"/></g><g><path fill="#FFF" d="M337.872 761.845c0 15.717 12.743 28.459 28.46 28.459 15.72 0 28.461-12.742 28.461-28.459 0-15.722-12.741-28.463-28.461-28.463-15.717 0-28.46 12.741-28.46 28.463z"/></g><g><path fill="#F68635" d="M1448.296 456.786h212.638v42.161h-212.638z"/></g><g><circle fill="#FFF" cx="1534.052" cy="478.785" r="10.998"/></g><g><circle cx="1503.989" cy="478.785" r="10.999"/></g><g><circle cx="1473.926" cy="478.785" r="10.999"/></g><g><path d="M1649.487 576.944h-189.745v-48.173h189.745v48.173zm-185.436-4.308h181.128V533.08h-181.128v39.556z"/><path d="M1649.487 756.549h-189.745V572.636h189.745v183.913zm-185.436-4.309h181.128V576.944h-181.128V752.24z"/><path d="M1649.487 576.944h-45.318v-48.173h45.318v48.173zm-41.009-4.308h36.701V533.08h-36.701v39.556zM1474.835 550.661h87.531v4.309h-87.531zM1474.835 595.006h157.881v4.309h-157.881zM1474.835 627.568h157.881v4.309h-157.881zM1474.835 660.13h157.881v4.309h-157.881zM1474.835 692.691h157.881V697h-157.881zM1474.835 725.256h157.881v4.309h-157.881z"/><path d="M1626.404 563.877l-9.616-11.7 3.328-2.737 5.839 7.105 9.85-15.516 3.638 2.309z"/></g><circle fill="#FFF" cx="573.207" cy="164.23" r="8.887"/><circle fill="#FFF" cx="1672.592" cy="310.946" r="8.886"/><circle fill="#FFF" cx="1322.97" cy="191.785" r="8.886"/><circle fill="#FFF" cx="633.8" cy="211.896" r="8.887"/><circle fill="#FFF" cx="247.409" cy="470.812" r="8.887"/><circle fill="#FFF" cx="1341.99" cy="770.073" r="8.888"/><circle fill="#FFF" cx="788.277" cy="901.769" r="8.888"/><circle fill="#FFF" cx="839.986" cy="858.679" r="8.887"/><circle fill="#FFF" cx="669.778" cy="843.597" r="8.888"/><path fill="#F68635" d="M444.014 624.197c3.169-5.725 1.097-12.935-4.628-16.104-5.411-2.996-12.146-1.308-15.545 3.72 2.456-5.549.311-12.153-5.1-15.148-5.725-3.169-12.936-1.097-16.104 4.628-3.169 5.726-8.19 23.153 2.825 43.72l-.001.002.003-.001.002.004.001-.003c23.276-1.584 35.378-15.092 38.547-20.818z"/></svg>