<svg xmlns="http://www.w3.org/2000/svg" viewBox="0 0 1444 756"><path fill="#FF8630" d="M701.83 215.9h321.13v92.51H701.83Z"/><path d="m395.2 490.04 21.47 24.53a12.97 12.97 0 0 1-17.8 18.69l-50.29-39.85.01-.01c-.9-.7-1.72-1.49-2.47-2.34-.3-.33-.55-.68-.8-1.02h49.88Z"/><path fill="#FF8630" d="M303.66 489.29H242.9"/><path fill="#fff" d="M242.9 487.13h60.76v4.31H242.9Z"/><path fill="#FF8630" d="M200.78 606.85a72.45 72.45 0 1 1-144.9 0 72.45 72.45 0 0 1 144.9 0Z"/><path d="M128.33 681.45c-41.14 0-74.6-33.47-74.6-74.6 0-41.15 33.46-74.62 74.6-74.62 41.14 0 74.6 33.48 74.6 74.62 0 41.13-33.46 74.6-74.6 74.6Zm0-144.9a70.38 70.38 0 0 0-70.3 70.3 70.38 70.38 0 0 0 70.3 70.3 70.38 70.38 0 0 0 70.3-70.3 70.38 70.38 0 0 0-70.3-70.3Z"/><path fill="#fff" d="M299.22 310.83a52.8 52.8 0 0 0-52.8 52.8l52.89.07Z"/><path fill="#FF8630" d="M1022.96 215.63H701.8"/><path fill="#fff" d="M701.8 213.48h321.16v4.3H701.8Zm-86.54 277.9H298.88v-55.03h369.26v2.16a52.94 52.94 0 0 1-52.88 52.88Zm-312.07-4.3h312.07a48.63 48.63 0 0 0 48.52-46.42h-360.6Z"/><path fill="#fff" d="M346.74 578.03h88.72a47.9 47.9 0 0 0 47.85-47.84v-40.33h-29.7v40.33c0 10-8.14 18.14-18.15 18.14h-88.72c-10 0-18.14-8.14-18.14-18.14v-40.33h-29.7v40.33a47.9 47.9 0 0 0 47.84 47.84Zm675.83-362.58c-8.31-18.7-56.37-34.63-75.49-34.63a34.63 34.63 0 0 0-34.63 34.63Zm182.96 493.04 109.99-66.12 112.18 66.12V288.35h-222.17Z"/><g fill="#fff"><path d="M701.83 308.42h321.13v51.12H701.83Z"/><path d="M1025.11 361.7H699.68v-55.44h325.43Zm-321.12-4.31h316.81v-46.82H704Z"/></g><path d="m1023.38 359.92 82.79 28.67V190.56L1023.38 216Z"/><path d="m1108.32 391.62-87.1-30.17V214.4l87.1-26.75Zm-82.78-33.24 78.47 27.19v-192.1l-78.47 24.11Z"/><g fill="#fff"><path d="M393.56 185.7a92.54 92.54 0 0 0-85.02 55.98l-99.22-18.18v-37.88Z"/><path d="m309.84 244.1-102.67-18.8v-41.83l186.39.07v4.3a90.33 90.33 0 0 0-83.04 54.69Zm-98.36-22.4 95.78 17.55a94.66 94.66 0 0 1 58.05-51.41l-153.83-.06Z"/></g><path d="M308.54 241.68a92.54 92.54 0 0 1 85.02-55.99h308.4v253.22H301.04v-160.7a92.23 92.23 0 0 1 7.51-36.53Z"/><path d="M704.12 441.07H298.88V278.22a94.64 94.64 0 0 1 94.68-94.68h310.56v257.53Zm-400.93-4.31H699.8V187.85H393.56a90.33 90.33 0 0 0-90.37 90.37Zm801.16-154.88h323.35v15.4h-323.35Z"/><path fill="#FF8630" d="M449.98 372.92a66.11 66.11 0 0 1-63.88-66 66.11 66.11 0 0 1 63.88-66Z"/><path d="M447.83 243.18v127.48a63.97 63.97 0 0 1-59.57-63.74 63.97 63.97 0 0 1 59.57-63.74m4.3-4.45a68.19 68.19 0 1 0 0 136.38Z"/><path fill="#FF8630" d="M450.56 240.88h152.3v132.07h-152.3Z"/><path d="M600.7 243.04V370.8H452.73V243.04Zm4.32-4.31H448.4V375.1H605V238.73Z"/><g fill="#fff"><path d="m516.94 333.36-.54-.05a26.13 26.13 0 0 1 0-52.19l.79-.04h80.17v52.28Z"/><path d="M595.2 283.24v47.96h-77.99l-.69-.04a23.97 23.97 0 0 1 0-47.88l.6-.04Zm4.31-4.31H516.3v.04a28.29 28.29 0 0 0 0 56.5v.04h83.22Z"/></g><path d="M114.64 601.24a29.1 29.1 0 0 0 4.7-3.79 28.5 28.5 0 0 0 3-3.59 28.13 28.13 0 0 0 10.65.24c1.1 1.7 2.36 3.26 3.78 4.7a28.66 28.66 0 0 0 3.6 3 28.53 28.53 0 0 0-.65 6c0 1.59.16 3.13.41 4.65a28.56 28.56 0 0 0-4.7 3.78 28.54 28.54 0 0 0-3 3.6 28.44 28.44 0 0 0-6-.65c-1.59 0-3.14.16-4.65.41a28.75 28.75 0 0 0-3.79-4.7 28.33 28.33 0 0 0-3.59-3c.42-1.93.65-3.94.65-6 0-1.59-.16-3.13-.41-4.65Z"/><path d="m133.36 622.23-1.38-.3c-1.82-.4-3.68-.6-5.54-.6-1.32 0-2.73.13-4.31.39l-1.4.23-.76-1.19a26.63 26.63 0 0 0-3.5-4.34 26.1 26.1 0 0 0-3.32-2.77l-1.15-.83.3-1.38c.4-1.84.6-3.7.6-5.55 0-1.32-.13-2.73-.39-4.3l-.23-1.4 1.19-.76a26.7 26.7 0 0 0 4.34-3.5c.95-.95 1.86-2.04 2.77-3.32l.83-1.15 1.38.3c1.84.4 3.7.6 5.54.6 1.34 0 2.75-.13 4.31-.39l1.4-.23.76 1.19a26.48 26.48 0 0 0 3.5 4.34 26 26 0 0 0 3.32 2.77l1.15.83-.3 1.38a25.02 25.02 0 0 0-.2 9.84l.22 1.4-1.18.77a26.56 26.56 0 0 0-4.35 3.5c-.93.93-1.84 2.02-2.78 3.32Zm-6.92-5.2c1.68 0 3.38.14 5.07.42a28.57 28.57 0 0 1 6.3-6.02 28.5 28.5 0 0 1 .19-8.71 29.06 29.06 0 0 1-6.03-6.3 29.03 29.03 0 0 1-8.71-.18 29.24 29.24 0 0 1-6.3 6.02 28.73 28.73 0 0 1-.18 8.71 28.58 28.58 0 0 1 6.02 6.3c1.2-.16 2.42-.24 3.64-.25Z"/><path d="M40.4 620.2h.02c.76 48.89 40.6 88.29 89.65 88.29 48.53 0 88.03-38.55 89.6-86.7h.47V520.08s-2.03-30.78 24.08-30.78V365.87C16.16 365.87 40.41 620.2 40.41 620.2Zm19.93-14.3c0-10.03 5.2-18.83 13.03-23.9a28.4 28.4 0 0 1 34.03-32.48 28.4 28.4 0 0 1 47.04 1.1 28.4 28.4 0 0 1 32.48 34.03 28.39 28.39 0 0 1-1.1 47.03 28.4 28.4 0 0 1-34.03 32.49 28.4 28.4 0 0 1-47.04-1.1 28.4 28.4 0 0 1-32.48-34.03 28.41 28.41 0 0 1-11.94-23.15Z"/><path d="M130.07 710.64a91.26 91.26 0 0 1-64.45-26.43 91.3 91.3 0 0 1-27.35-63.68v-.12c-.04-.3-2.87-31.1 2.74-70.68 5.18-36.59 18.83-88.43 54.44-127.6 35.24-38.76 85.3-58.42 148.77-58.42h2.16v127.73h-2.16c-6.33 0-11.39 1.97-15.03 5.85-7.72 8.23-6.9 22.5-6.9 22.64v104.04h-.55a91.34 91.34 0 0 1-27.76 60.77 91.33 91.33 0 0 1-63.9 25.9ZM42.4 618.05h.13l.05 2.12a87.03 87.03 0 0 0 26.06 60.97 86.97 86.97 0 0 0 61.43 25.2 87 87 0 0 0 60.91-24.7 87.07 87.07 0 0 0 26.54-59.92l.07-2.1h.4v-99.48c-.08-1.35-.73-16.4 8.04-25.78 4.06-4.33 9.44-6.73 16.04-7.16V368.03c-61.19.44-109.44 19.61-143.43 57-34.88 38.36-48.27 89.32-53.37 125.3-4.73 33.42-3.38 60.42-2.87 67.72Zm86.23 60.2a30.5 30.5 0 0 1-24.91-12.86 30.37 30.37 0 0 1-25.3-8.72 30.5 30.5 0 0 1-8.53-26.72 30.7 30.7 0 0 1-11.72-24.06 30.5 30.5 0 0 1 12.87-24.92 30.7 30.7 0 0 1 8.72-25.3 30.37 30.37 0 0 1 26.72-8.52 30.69 30.69 0 0 1 24.05-11.72 30.5 30.5 0 0 1 24.92 12.86 32.3 32.3 0 0 1 3.68-.21c8.17 0 15.85 3.17 21.62 8.94a30.5 30.5 0 0 1 8.53 26.72 30.68 30.68 0 0 1 11.71 24.05 30.5 30.5 0 0 1-12.86 24.92 30.68 30.68 0 0 1-8.72 25.3 30.37 30.37 0 0 1-26.72 8.52 30.69 30.69 0 0 1-24.06 11.72Zm-22.85-17.54.77 1.19a26.22 26.22 0 0 0 22.08 12.05 26.4 26.4 0 0 0 21.4-11.04l.82-1.14 1.38.3c1.82.38 3.7.58 5.56.58 7.02 0 13.62-2.73 18.57-7.69a26.37 26.37 0 0 0 7.32-22.92l-.23-1.4 1.19-.76a26.22 26.22 0 0 0 12.05-22.09c0-8.45-4.13-16.45-11.04-21.39l-1.15-.82.3-1.38a26.23 26.23 0 0 0-25.67-31.82c-1.45 0-2.92.12-4.35.36l-1.4.23-.76-1.19a26.23 26.23 0 0 0-43.48-1.01l-.82 1.15-1.38-.3a26.65 26.65 0 0 0-5.56-.59 26.1 26.1 0 0 0-18.57 7.69 26.38 26.38 0 0 0-7.33 22.92l.23 1.4-1.18.77a26.23 26.23 0 0 0-12.05 22.08 26.4 26.4 0 0 0 11.03 21.4l1.15.82-.3 1.38a26.22 26.22 0 0 0 25.68 31.81c1.45 0 2.91-.12 4.35-.36Z"/><g fill="#fff"><path d="M73.2 533.73a42.46 42.46 0 1 0 81.06-25.32 42.46 42.46 0 0 0-81.05 25.32Z"/><path d="M113.73 565.69a44.42 44.42 0 0 1-42.58-31.32 44.32 44.32 0 0 1 3.06-34.01 44.33 44.33 0 0 1 26.22-21.89 44.65 44.65 0 0 1 13.32-2.04 44.42 44.42 0 0 1 42.57 31.32 44.32 44.32 0 0 1-3.06 34.01 44.32 44.32 0 0 1-26.21 21.88 44.59 44.59 0 0 1-13.32 2.05Zm.02-84.95c-4.07 0-8.12.62-12.04 1.85a40.04 40.04 0 0 0-23.68 19.77 40.04 40.04 0 0 0-2.77 30.72 40.13 40.13 0 0 0 38.46 28.3c4.07 0 8.12-.62 12.04-1.85a40.04 40.04 0 0 0 23.68-19.77c5-9.54 5.98-20.45 2.77-30.73a40.13 40.13 0 0 0-38.46-28.3Z"/></g><path fill="#FF8630" d="M113.73 559.1a37.87 37.87 0 0 1-36.3-26.7 38.08 38.08 0 0 1 36.32-49.39 37.87 37.87 0 0 1 36.3 26.7 38.08 38.08 0 0 1-36.32 49.4Zm.02-71.78a33.77 33.77 0 0 0-32.2 43.8 33.58 33.58 0 0 0 32.18 23.68 33.74 33.74 0 0 0 32.2-43.8 33.58 33.58 0 0 0-32.18-23.68Z"/><path fill="#FF8630" d="m105.04 486.09 21.4 68.5-4.1 1.28-21.41-68.5Z"/><path fill="#FF8630" d="m115.7 520.92 32.57 7.99-1.03 4.18-32.57-7.99Z"/><path fill="#FF8630" d="m113.04 521.79 3.23 2.85-22.23 25.12-3.23-2.85Z"/><path fill="#fff" d="M99.87 606.85a28.46 28.46 0 1 0 56.92 0 28.46 28.46 0 0 0-56.92 0Z"/><path fill="#FF8630" d="M1210.3 301.79h212.63v42.16H1210.3Z"/><path fill="#fff" d="M1307.05 323.79a11 11 0 1 1-22 0 11 11 0 0 1 22 0Z"/><path d="M1276.99 323.79a11 11 0 1 1-22 0 11 11 0 0 1 22 0Zm-30.07 0a11 11 0 1 1-22 0 11 11 0 0 1 22 0Zm164.57 98.15h-189.75v-48.17h189.75Zm-185.44-4.3h181.13v-39.56h-181.13Z"/><path d="M1411.49 601.55h-189.75V417.64h189.75Zm-185.44-4.31h181.13v-175.3h-181.13Z"/><path d="M1411.49 421.94h-45.32v-48.17h45.32Zm-41.01-4.3h36.7v-39.56h-36.7Zm-133.64-21.98h87.53v4.31h-87.53Zm0 44.35h157.88v4.3h-157.88Zm0 32.56h157.88v4.3h-157.88Zm0 32.56h157.88v4.3h-157.88Zm0 32.56h157.88V542h-157.88Zm0 32.57h157.88v4.3h-157.88Z"/><path d="m1388.4 408.88-9.61-11.7 3.33-2.74 5.84 7.1 9.85-15.51 3.63 2.3Z"/><path fill="#fff" d="M344.1 9.23a8.89 8.89 0 1 1-17.78 0 8.89 8.89 0 0 1 17.77 0Zm1099.38 146.72a8.89 8.89 0 1 1-17.77 0 8.89 8.89 0 0 1 17.77 0ZM1093.86 36.78a8.89 8.89 0 1 1-17.77 0 8.89 8.89 0 0 1 17.77 0ZM404.69 56.9a8.89 8.89 0 1 1-17.78 0 8.89 8.89 0 0 1 17.78 0ZM18.3 315.81a8.89 8.89 0 1 1-17.78 0 8.89 8.89 0 0 1 17.78 0Zm1094.58 299.26a8.89 8.89 0 1 1-17.78 0 8.89 8.89 0 0 1 17.78 0Zm-553.72 131.7a8.89 8.89 0 1 1-17.77 0 8.89 8.89 0 0 1 17.77 0Zm51.71-43.09a8.89 8.89 0 1 1-17.77 0 8.89 8.89 0 0 1 17.77 0Zm-170.2-15.08a8.89 8.89 0 1 1-17.78 0 8.89 8.89 0 0 1 17.78 0Z"/><path fill="#FF8630" d="M206.01 469.2a11.85 11.85 0 0 0-20.17-12.39 11.85 11.85 0 0 0-21.2-10.52c-3.17 5.73-8.2 23.16 2.82 43.72 23.28-1.58 35.38-15.09 38.55-20.81Z"/></svg>
