<svg xmlns="http://www.w3.org/2000/svg" width="1080" height="1080"><path fill="#F68635" d="M587.69 370.462L471.7 466.637l-40.893-49.318 115.989-96.175z"/><path d="M388.535 698.989c7.292 1.169 11.72 1.881 22.284 3.579 4.896.785 8.228 5.392 7.442 10.285-.7 4.35-4.413 7.457-8.667 7.547l-.001.004c-17.948.397-18.396.409-44.423.983l.002-.009a13.038 13.038 0 01-2.354-.155c-.298-.045-.589-.117-.877-.186l26.594-22.048z"/><path fill="#F68635" d="M339.404 739.045l-32.39 26.86"/><path fill="#FFF" d="M338.49 737.925l1.905 2.297-32.393 26.86-1.904-2.298z"/><circle fill="#F68635" cx="297.905" cy="879.206" r="50.171"/><path d="M297.938 930.869h-.003c-15.445 0-29.952-6.812-39.8-18.688-18.184-21.93-15.137-54.563 6.792-72.746a51.732 51.732 0 0132.949-11.896c15.444 0 29.95 6.812 39.799 18.691 18.183 21.928 15.136 54.562-6.793 72.745a51.717 51.717 0 01-32.944 11.894zm-.062-100.346a48.739 48.739 0 00-31.045 11.209c-20.662 17.132-23.532 47.881-6.399 68.545 9.279 11.189 22.949 17.607 37.504 17.608a48.734 48.734 0 0031.042-11.207c20.661-17.134 23.533-47.882 6.4-68.544-9.279-11.192-22.948-17.611-37.502-17.611z"/><path fill="#FFF" d="M258.16 645.883c-15.544 12.888-17.694 35.937-4.807 51.48l28.221-23.34-23.414-28.14z"/><path fill="#F68635" d="M546.685 321.004l-116.003 96.189"/><path fill="#FFF" d="M545.768 319.86l1.905 2.297-116.005 96.189-1.905-2.297zM337.784 742.278l-24.324-29.336 196.838-163.213.952 1.148c12.887 15.543 10.726 38.673-4.816 51.56l-168.65 139.841zm-20.123-28.943l20.516 24.742L504.53 600.14c13.891-11.518 16.144-31.943 5.351-46.188l-192.22 159.383z"/><path fill="#FFF" d="M401.594 767.308l47.291-39.214c14.064-11.66 16.018-32.586 4.359-46.648l-17.826-21.498-15.83 13.126 17.825 21.498c4.424 5.333 3.682 13.272-1.651 17.694l-47.291 39.213c-5.336 4.423-13.275 3.683-17.696-1.65l-17.826-21.498-15.829 13.126 17.825 21.496c11.659 14.063 32.585 16.017 46.649 4.355zM546.399 321.08c-12.695-6.294-45.353 6.455-55.548 14.908-10.193 8.452-11.604 23.57-3.15 33.766l58.698-48.674zM861.85 503.025l29.404-83.856 89.024-14.342-185.704-223.958-118.427 98.198z"/><g fill="#FFF"><path d="M610.287 397.715L494.298 493.89 471.7 466.636l115.989-96.175z"/><path d="M494.109 495.993l-24.503-29.551 118.284-98.079 24.503 29.551-118.284 98.079zm-20.301-29.158l20.694 24.957 113.69-94.271-20.694-24.957-113.69 94.271z"/></g><path d="M610.687 397.728l56.801-21.303-87.529-105.562-32.887 50.145z"/><path d="M610.216 399.498l-64.996-78.386 34.599-52.755 90.156 108.729-59.759 22.412zm-61.291-78.593l62.232 75.053 53.845-20.194L580.1 273.37l-31.175 47.535z"/><g fill="#FFF"><path d="M253.137 537.478c-20.321 16.853-27.573 43.605-20.573 67.419l-60.925 34.166-16.741-20.189 98.239-81.396z"/><path d="M171.284 640.972l-18.488-22.295 99.389-82.348 1.904 2.298-.005.004a62.547 62.547 0 00-20.089 65.845l.335 1.141-63.046 35.355zm-14.285-21.903l14.994 18.084 58.813-32.982a65.535 65.535 0 018.222-53.066l-82.029 67.964z"/></g><path d="M232.563 604.896c-7-23.813.252-50.566 20.573-67.419l31.293-25.947 133.105-110.369 111.922 134.981-213.717 177.212-71.026-85.659a63.864 63.864 0 01-12.15-22.799z"/><path d="M315.543 715.454l-71.979-86.808c-5.73-6.91-9.913-14.76-12.433-23.329a65.532 65.532 0 0121.053-68.988l165.547-137.268 113.826 137.278-216.014 179.115zm101.796-312.192l-163.25 135.364a62.551 62.551 0 00-20.094 65.85c2.404 8.179 6.396 15.67 11.866 22.267l70.074 84.511 211.421-175.307-110.017-132.685zM798.515 185.626L626.147 328.549l-6.805-8.207L791.71 177.419z"/><path fill="#F68635" d="M337.972 621.936c-13.67-.001-26.51-6.029-35.228-16.541-15.774-19.028-13.496-47.157 4.881-63.419l58.345 70.364a45.797 45.797 0 01-27.998 9.596z"/><path d="M307.477 544.135l56.344 67.949a44.294 44.294 0 01-25.849 8.359c-13.225 0-25.646-5.832-34.079-16.001-14.928-18.005-13.141-44.439 3.584-60.307m.329-4.279c-20.077 16.646-22.854 46.413-6.21 66.49 9.339 11.261 22.807 17.08 36.376 17.08 10.619 0 21.3-3.563 30.114-10.872l-60.28-72.698z"/><path fill="#F68635" d="M447.472 544.785l-81.186 67.318L307.91 541.7l81.186-67.318z"/><path d="M388.906 476.485l56.471 68.104-78.887 65.412-56.473-68.104 78.889-65.412m.393-4.201l-83.482 69.221 60.281 72.698 83.48-69.221-60.279-72.698z"/><g><path fill="#FFF" d="M373.108 565.426a18.058 18.058 0 01-13.942-6.546c-6.138-7.402-5.42-18.309 1.636-24.829l.397-.368 42.738-35.438 23.103 27.864-42.874 35.552-.295.21a17.941 17.941 0 01-10.763 3.555z"/><path fill="#FFF" d="M403.741 500.347l21.198 25.566-41.589 34.486-.368.273a16.452 16.452 0 01-9.874 3.261 16.571 16.571 0 01-12.794-6.006c-5.632-6.792-4.973-16.799 1.5-22.781l.302-.285 41.625-34.514m.393-4.202l-44.364 36.786.02.024c-7.591 7.016-8.447 18.826-1.771 26.877 3.875 4.672 9.461 7.086 15.091 7.086 4.072 0 8.167-1.264 11.651-3.849l.019.022 44.362-36.786-25.008-30.16z"/></g><g><path d="M288.125 882.271c.412-1.312.699-2.677.832-4.097.102-1.097.091-2.176.014-3.235a19.646 19.646 0 003.482-2.308 20.154 20.154 0 002.302-2.278c1.306.409 2.675.696 4.093.828a19.81 19.81 0 003.239.016 19.86 19.86 0 002.307 3.482c.704.848 1.474 1.6 2.281 2.299a19.711 19.711 0 00-.832 4.095c-.104 1.095-.089 2.173-.016 3.238a19.548 19.548 0 00-3.481 2.308c-.851.703-1.601 1.475-2.3 2.278a19.982 19.982 0 00-4.096-.831c-1.097-.103-2.174-.087-3.239-.013a19.521 19.521 0 00-2.309-3.484 19.396 19.396 0 00-2.277-2.298z"/><path d="M300.531 890.611l-.931-.291a18.58 18.58 0 00-3.789-.77 19.062 19.062 0 00-2.997-.01l-.976.068-.451-.868a18.143 18.143 0 00-2.133-3.219 17.87 17.87 0 00-2.107-2.124l-.739-.642.294-.934c.393-1.249.651-2.524.77-3.788.086-.93.09-1.908.011-2.988l-.071-.979.87-.453a18.351 18.351 0 003.22-2.133 18.717 18.717 0 002.13-2.11l.64-.734.931.291a18.47 18.47 0 003.784.767c.946.089 1.993.082 2.998.013l.974-.068.452.866a18.58 18.58 0 002.134 3.222c.59.71 1.28 1.405 2.108 2.122l.74.641-.294.935a18.356 18.356 0 00-.77 3.785c-.087.911-.091 1.862-.013 2.998l.067.975-.867.451a18.23 18.23 0 00-3.217 2.132c-.71.587-1.385 1.257-2.127 2.11l-.641.735zm-6.199-4.11c.613 0 1.188.025 1.757.079 1.155.108 2.32.317 3.475.624a19.627 19.627 0 011.832-1.736 21.178 21.178 0 012.894-2.015 19.81 19.81 0 01.068-2.522 20.98 20.98 0 01.624-3.47 19.708 19.708 0 01-1.735-1.829 21.349 21.349 0 01-2.015-2.897 20.35 20.35 0 01-2.522-.068 21.152 21.152 0 01-3.473-.621 20.3 20.3 0 01-1.83 1.733 21.125 21.125 0 01-2.896 2.016c.029.879.007 1.71-.068 2.518a21.09 21.09 0 01-.624 3.476 19.51 19.51 0 011.733 1.83 20.953 20.953 0 012.016 2.896c.254-.009.508-.014.764-.014z"/><g><path d="M256.941 925.191l.011-.008c22.008 25.722 60.655 29.116 86.808 7.434 25.868-21.449 29.883-59.458 9.444-85.82l.251-.202-44.962-54.223s-14.689-15.514-.772-27.054l-54.551-65.79c-121.568 100.804 3.771 225.663 3.771 225.663zm4.292-16.432c-4.432-5.347-5.55-12.332-3.614-18.498-4.641-4.022-7.352-10.137-6.737-16.725.646-6.91 4.798-12.641 10.523-15.633-.438-6.128 1.971-12.37 7.062-16.59 5.344-4.432 12.33-5.547 18.496-3.614 4.025-4.643 10.139-7.354 16.722-6.739 6.913.647 12.646 4.794 15.634 10.524 6.13-.438 12.371 1.972 16.589 7.062 4.434 5.345 5.553 12.329 3.614 18.495 4.645 4.022 7.355 10.138 6.738 16.723-.645 6.913-4.793 12.643-10.521 15.634.436 6.129-1.971 12.369-7.062 16.589-5.346 4.432-12.33 5.552-18.498 3.614-4.023 4.644-10.137 7.354-16.722 6.738-6.913-.646-12.646-4.794-15.635-10.521-6.125.437-12.369-1.971-16.589-7.059z"/><path d="M304.172 948.4c-18.56 0-36.12-8.047-48.212-22.083l-.071-.069c-.151-.15-15.272-15.319-29.777-38.889-13.411-21.795-29.049-55.461-27.378-92.081 1.654-36.241 19.648-68.842 53.484-96.898l1.148-.952 56.455 68.087-1.148.952c-3.375 2.799-5.201 6.084-5.427 9.763-.479 7.799 6.264 15.046 6.331 15.118l45.992 55.46-.302.243c9.521 12.872 13.8 28.672 12.062 44.66-1.795 16.514-9.827 31.449-22.618 42.055-11.382 9.437-25.779 14.634-40.539 14.634zm-46.993-25.226l.907 1.04c11.529 13.475 28.327 21.202 46.086 21.202 14.066 0 27.787-4.953 38.636-13.947 12.19-10.107 19.846-24.342 21.556-40.08 1.707-15.702-2.675-31.214-12.338-43.678l-.897-1.157.213-.172-43.996-53.058c-.249-.259-7.627-8.161-7.078-17.261.247-4.104 2.057-7.766 5.384-10.905l-52.673-63.525c-32.422 27.279-49.668 58.826-51.263 93.781-2.923 64.057 48.013 120.048 55.397 127.809l.066-.049zm38.13 4.744c-.659 0-1.329-.031-1.989-.093a21.116 21.116 0 01-16.354-10.471 21.107 21.107 0 01-16.881-7.644c-4.398-5.306-5.921-12.332-4.157-18.971-4.703-4.467-7.134-10.878-6.531-17.343.641-6.857 4.531-12.901 10.474-16.352-.167-6.486 2.646-12.738 7.645-16.881a21.183 21.183 0 0113.498-4.868c1.85 0 3.686.238 5.471.711 4.461-4.701 10.873-7.134 17.34-6.533a21.115 21.115 0 0116.353 10.475c6.52-.154 12.731 2.639 16.88 7.646a21.107 21.107 0 014.158 18.968c4.706 4.467 7.137 10.878 6.531 17.342-.64 6.859-4.53 12.904-10.471 16.352.165 6.487-2.649 12.739-7.645 16.88a21.199 21.199 0 01-18.971 4.157c-4.005 4.222-9.546 6.625-15.351 6.625zm-16.616-13.656l.452.867c2.879 5.514 8.28 9.149 14.451 9.726a18.261 18.261 0 0015.455-6.229l.642-.74.934.293a18.205 18.205 0 0017.099-3.339c4.503-3.732 6.942-9.466 6.525-15.335l-.069-.976.867-.452c5.515-2.88 9.15-8.282 9.726-14.45.546-5.827-1.783-11.604-6.229-15.456l-.74-.642.294-.934c1.865-5.935.617-12.325-3.34-17.096a18.205 18.205 0 00-15.334-6.526l-.977.069-.453-.868c-2.875-5.514-8.276-9.15-14.449-9.729-5.841-.544-11.604 1.789-15.456 6.231l-.641.738-.933-.292a18.348 18.348 0 00-5.504-.843 18.199 18.199 0 00-11.594 4.182c-4.505 3.734-6.944 9.467-6.525 15.335l.069.976-.866.453c-5.517 2.883-9.153 8.284-9.729 14.449-.543 5.828 1.785 11.606 6.229 15.459l.739.641-.293.934c-1.863 5.936-.615 12.328 3.339 17.099a18.195 18.195 0 0015.336 6.524l.975-.069z"/></g></g><g><g fill="#FFF"><path d="M236.203 864.594c13.621 8.842 31.83 4.963 40.672-8.661 8.841-13.621 4.962-31.832-8.66-40.67-13.624-8.842-31.832-4.963-40.672 8.659-8.842 13.623-4.964 31.832 8.66 40.672z"/><path d="M252.182 870.828h-.002a30.775 30.775 0 01-16.789-4.983c-6.923-4.492-11.683-11.411-13.401-19.482-1.719-8.072-.191-16.33 4.303-23.253 5.722-8.817 15.42-14.081 25.943-14.081a30.79 30.79 0 0116.792 4.982c6.922 4.492 11.682 11.41 13.4 19.482s.191 16.33-4.302 23.252c-5.723 8.818-15.422 14.083-25.944 14.083zm.053-58.816c-9.509 0-18.271 4.756-23.44 12.723-4.06 6.254-5.44 13.714-3.888 21.007 1.553 7.292 5.853 13.543 12.108 17.601a27.802 27.802 0 0015.164 4.503c9.509 0 18.272-4.757 23.443-12.725 4.06-6.253 5.439-13.713 3.887-21.006-1.554-7.292-5.853-13.542-12.107-17.6a27.796 27.796 0 00-15.167-4.503z"/></g><path fill="#F68635" d="M252.187 866.271c-.001 0-.001 0 0 0a26.249 26.249 0 01-14.316-4.247c-12.184-7.907-15.664-24.252-7.759-36.437 4.88-7.517 13.149-12.004 22.122-12.004a26.246 26.246 0 0114.313 4.246c12.183 7.905 15.663 24.25 7.76 36.436-4.881 7.519-13.151 12.006-22.12 12.006zm.046-49.704c-7.957 0-15.292 3.979-19.619 10.646-7.01 10.804-3.924 25.297 6.881 32.308a23.26 23.26 0 0012.69 3.768c7.956 0 15.29-3.979 19.618-10.646 7.008-10.805 3.922-25.299-6.882-32.308a23.246 23.246 0 00-12.688-3.768z"/><path fill="#F68635" d="M232.144 825.13l41.69 27.05-1.624 2.505-41.69-27.05z"/><path fill="#F68635" d="M274.13 828.886l1.303 2.686-20.895 10.137-1.303-2.685z"/><path fill="#F68635" d="M252.112 840.652l2.982.096-.745 23.211-2.983-.095z"/></g><g><path fill="#FFF" d="M282.735 891.785c6.946 8.377 19.37 9.538 27.75 2.59 8.379-6.948 9.539-19.371 2.591-27.749-6.949-8.382-19.371-9.542-27.751-2.593-8.378 6.947-9.54 19.371-2.59 27.752z"/></g><g><path fill="#F68635" d="M816.602 212.613L703.253 306.6l-18.635-22.474 113.349-93.986z"/></g><g><path fill="#FFF" d="M734.2 262.81a7.615 7.615 0 0010.724 1 7.616 7.616 0 10-10.724-1z"/></g><g><path d="M718.175 276.098a7.616 7.616 0 1011.725-9.724 7.616 7.616 0 00-11.725 9.724z"/></g><g><circle cx="708.011" cy="284.524" r="7.616"/></g><g><path d="M743.839 343.117l-21.293-25.679 101.145-83.867 21.291 25.679-101.143 83.867zm-17.092-25.286l17.484 21.085 96.549-80.059-17.482-21.085-96.551 80.059z"/><path d="M823.222 438.857l-81.287-98.037 101.143-83.867 81.29 98.036-101.146 83.868zm-77.086-97.644l77.479 93.443 96.552-80.059-77.481-93.442-96.55 80.058z"/><path d="M820.826 279.281l-21.292-25.68 24.156-20.031 21.291 25.68-24.155 20.031zm-17.091-25.287l17.483 21.085 19.562-16.222-17.482-21.085-19.563 16.222zM786.971 283.74l1.905 2.297-46.66 38.69-1.904-2.298zM844.075 276.283l1.904 2.297-84.159 69.783-1.904-2.297zM858.47 293.642l1.904 2.297-84.16 69.783-1.905-2.297zM872.861 311l1.905 2.296-84.16 69.784-1.905-2.297zM887.254 328.357l1.905 2.297L805 400.436l-1.904-2.297zM901.651 345.716l1.905 2.297-84.16 69.783-1.905-2.297z"/><path d="M826.902 262.488l-10.297-1.988.567-2.93 6.25 1.207-1.608-12.625 2.961-.377z"/></g><path fill="#F68635" d="M270.148 772.28a8.53 8.53 0 00-8.824-8.231c-4.452.154-7.986 3.692-8.224 8.057a8.534 8.534 0 00-16.994 1.357c.163 4.711 3.519 17.335 17.94 25.956v.003c.001-.001.003 0 .003-.002 0 .002.001.001.003.002l-.002-.003c13.792-9.602 16.263-22.429 16.098-27.139z"/><circle fill="#FFF" cx="144.036" cy="469.205" r="6.154"/><circle fill="#FFF" cx="739.727" cy="107.246" r="6.153"/><circle fill="#FFF" cx="500.69" cy="198.26" r="6.153"/><circle fill="#FFF" cx="197.403" cy="467.831" r="6.154"/><circle fill="#FFF" cx="105.876" cy="776.634" r="6.155"/><circle fill="#FFF" cx="766.434" cy="498.113" r="6.154"/><circle fill="#FFF" cx="584.673" cy="767.293" r="6.155"/><circle fill="#FFF" cx="593.19" cy="721.468" r="6.154"/><circle fill="#FFF" cx="495.794" cy="788.66" r="6.155"/><circle fill="#FFF" cx="843.814" cy="879.928" r="6.155"/><circle fill="#FFF" cx="899.083" cy="715.84" r="6.155"/><circle fill="#FFF" cx="182.011" cy="175.785" r="6.155"/></svg>