<svg xmlns="http://www.w3.org/2000/svg" viewBox="0 0 882 848"><path fill="#FF8630" d="M488.69 269.46 372.7 365.64l-40.9-49.32 116-96.18Z"/><path d="m289.54 597.99 22.28 3.58a8.98 8.98 0 0 1-1.23 17.83l-44.42.99v-.01a12.33 12.33 0 0 1-3.23-.34Z"/><path fill="#FF8630" d="m240.4 638.04-32.39 26.87"/><path fill="#fff" d="m239.49 636.92 1.9 2.3L209 666.08l-1.9-2.3Z"/><path fill="#FF8630" d="M249.08 778.2a50.17 50.17 0 1 1-100.35 0 50.17 50.17 0 0 1 100.35 0Z"/><path d="M198.94 829.87a51.55 51.55 0 0 1-39.8-18.69 51.72 51.72 0 0 1 6.79-72.75 51.73 51.73 0 0 1 32.95-11.9 51.54 51.54 0 0 1 39.8 18.7 51.72 51.72 0 0 1-6.8 72.75 51.72 51.72 0 0 1-32.94 11.89Zm-.06-100.35a48.74 48.74 0 0 0-31.05 11.21 48.73 48.73 0 0 0-6.4 68.55 48.58 48.58 0 0 0 37.5 17.6 48.74 48.74 0 0 0 31.05-11.2 48.74 48.74 0 0 0 6.4-68.55 48.57 48.57 0 0 0-37.5-17.6Z"/><path fill="#fff" d="M159.16 544.88a36.56 36.56 0 0 0-4.8 51.48l28.21-23.34Z"/><path fill="#FF8630" d="m447.69 220-116 96.2"/><path fill="#fff" d="m446.77 218.86 1.9 2.3-116 96.19-1.9-2.3ZM238.78 641.28l-24.32-29.34L411.3 448.73l.95 1.15a36.66 36.66 0 0 1-4.82 51.56Zm-20.12-28.94 20.52 24.74 166.35-137.94a33.68 33.68 0 0 0 5.35-46.19Z"/><path fill="#fff" d="m302.6 666.3 47.28-39.2a33.17 33.17 0 0 0 4.36-46.65l-17.82-21.5-15.83 13.12 17.82 21.5a12.58 12.58 0 0 1-1.65 17.7l-47.29 39.2a12.58 12.58 0 0 1-17.7-1.64l-17.82-21.5-15.83 13.13 17.82 21.5a33.16 33.16 0 0 0 46.65 4.35Zm144.8-446.22c-12.7-6.3-45.35 6.45-55.55 14.9a23.98 23.98 0 0 0-3.15 33.77Zm315.45 181.94 29.4-83.85 89.03-14.34-185.7-223.96-118.43 98.2Z"/><g fill="#fff"><path d="m511.29 296.71-116 96.18-22.59-27.25 115.99-96.18Z"/><path d="m395.1 395-24.5-29.56 118.29-98.08 24.5 29.55Zm-20.3-29.17 20.7 24.96 113.7-94.27-20.7-24.96Z"/></g><path d="m511.69 296.73 56.8-21.3-87.53-105.57-32.89 50.15Z"/><path d="m511.22 298.5-65-78.39 34.6-52.75 90.16 108.73Zm-61.3-78.6 62.24 75.06 53.84-20.2-84.9-102.39Z"/><g fill="#fff"><path d="M154.14 436.48a64.08 64.08 0 0 0-20.58 67.42l-60.92 34.16-16.74-20.19Z"/><path d="m72.28 539.97-18.48-22.3 99.39-82.34 1.9 2.3a62.55 62.55 0 0 0-20.1 65.85l.34 1.14ZM58 518.07l15 18.08 58.8-32.98a65.53 65.53 0 0 1 8.23-53.06Z"/></g><path d="M133.56 503.9c-7-23.82.25-50.57 20.58-67.42l31.29-25.95 133.1-110.37 111.93 134.98-213.72 177.21-71.03-85.65a63.87 63.87 0 0 1-12.15-22.8Z"/><path d="m216.54 614.45-71.98-86.8a65.53 65.53 0 0 1 8.62-92.32l165.55-137.27 113.83 137.28Zm101.8-312.19L155.09 437.63a62.55 62.55 0 0 0-8.23 88.11l70.07 84.51 211.43-175.3ZM699.52 84.63 527.14 227.55l-6.8-8.2L692.7 76.41Z"/><path fill="#FF8630" d="M238.97 520.94a45.63 45.63 0 0 1-35.23-16.55 45.78 45.78 0 0 1 4.88-63.41l58.35 70.36a45.8 45.8 0 0 1-28 9.6Z"/><path d="m208.48 443.13 56.34 67.95a44.3 44.3 0 0 1-25.85 8.36 44.14 44.14 0 0 1-34.08-16 44.3 44.3 0 0 1 3.59-60.3m.33-4.28a47.22 47.22 0 1 0 60.28 72.7Z"/><path fill="#FF8630" d="M348.47 443.79 267.3 511.1l-58.38-70.4 81.19-67.32Z"/><path d="m289.9 375.49 56.48 68.1L267.49 509l-56.47-68.1Zm.4-4.2-83.48 69.21 60.28 72.7 83.48-69.22Z"/><g fill="#fff"><path d="M274.1 464.43a18.09 18.09 0 0 1-12.3-31.38l.4-.37 42.74-35.44 23.1 27.87-42.87 35.55-.3.21a17.94 17.94 0 0 1-10.76 3.56Z"/><path d="m304.74 399.35 21.2 25.56-41.59 34.49-.37.27a16.57 16.57 0 0 1-22.67-2.75 16.6 16.6 0 0 1 1.5-22.77l.3-.29Zm.4-4.2-44.37 36.78.02.02a19.59 19.59 0 0 0 24.97 30.12l.02.02 44.36-36.78Z"/></g><path d="M189.13 781.27a19.54 19.54 0 0 0 .85-7.33 19.62 19.62 0 0 0 5.77-4.59 19.84 19.84 0 0 0 7.34.85 19.14 19.14 0 0 0 4.59 5.78 19.72 19.72 0 0 0-.85 7.33 19.56 19.56 0 0 0-5.78 4.59c-1.34-.42-2.7-.7-4.1-.83a19.8 19.8 0 0 0-3.24-.02 19.51 19.51 0 0 0-4.59-5.78Z"/><path d="m201.53 789.61-.93-.29a18.08 18.08 0 0 0-6.79-.78l-.97.07-.45-.87a18.14 18.14 0 0 0-4.24-5.34l-.74-.64.3-.94a17.98 17.98 0 0 0 .78-6.78l-.08-.97.87-.46c1.15-.6 2.23-1.3 3.22-2.13a18.7 18.7 0 0 0 2.13-2.11l.64-.73.93.29a18.72 18.72 0 0 0 6.79.78l.97-.07.45.87a18.6 18.6 0 0 0 2.13 3.22c.6.7 1.28 1.4 2.11 2.12l.74.64-.3.93a18.03 18.03 0 0 0-.78 6.78l.07.98-.86.45a18.26 18.26 0 0 0-5.35 4.25Zm-6.2-4.1a21.25 21.25 0 0 1 5.23.7 19.77 19.77 0 0 1 4.73-3.76 19.84 19.84 0 0 1 .7-5.99 19.72 19.72 0 0 1-3.76-4.73 20.22 20.22 0 0 1-6-.68 20.38 20.38 0 0 1-4.72 3.75 19.99 19.99 0 0 1-.7 5.99 19.46 19.46 0 0 1 3.76 4.73l.76-.02Z"/><path d="m157.94 824.2.01-.02a62.1 62.1 0 0 0 96.25-78.38l.26-.2-44.97-54.23s-14.69-15.51-.77-27.05l-54.55-65.8C32.6 699.34 157.94 824.2 157.94 824.2Zm4.3-16.44a19.68 19.68 0 0 1-3.62-18.5 19.66 19.66 0 0 1 3.78-32.36 19.66 19.66 0 0 1 25.56-20.2 19.66 19.66 0 0 1 32.36 3.78 19.66 19.66 0 0 1 20.2 25.56 19.65 19.65 0 0 1-3.78 32.36 19.66 19.66 0 0 1-25.56 20.2 19.65 19.65 0 0 1-32.36-3.78 19.67 19.67 0 0 1-16.59-7.06Z"/><path d="M205.17 847.4a63.55 63.55 0 0 1-48.21-22.08l-.07-.07c-.15-.15-15.27-15.32-29.78-38.9-13.4-21.79-29.05-55.45-27.38-92.07 1.66-36.24 19.65-68.84 53.49-96.9l1.15-.95 56.45 68.09-1.15.95c-3.37 2.8-5.2 6.08-5.42 9.76-.48 7.8 6.26 15.05 6.33 15.12l45.99 55.46-.3.24a63.25 63.25 0 0 1 12.06 44.66 63.23 63.23 0 0 1-22.62 42.06 63.65 63.65 0 0 1-40.54 14.63Zm-47-25.23.92 1.04a60.57 60.57 0 0 0 84.72 7.26 60.26 60.26 0 0 0 21.55-40.08 60.3 60.3 0 0 0-12.33-43.68l-.9-1.16.21-.17-44-53.06c-.24-.25-7.62-8.16-7.07-17.26.24-4.1 2.05-7.76 5.38-10.9l-52.67-63.53c-32.42 27.28-49.67 58.83-51.26 93.78-2.93 64.06 48 120.05 55.4 127.81Zm38.14 4.75a21.12 21.12 0 0 1-18.34-10.56 21.1 21.1 0 0 1-16.88-7.65 21.12 21.12 0 0 1-4.16-18.97 21.25 21.25 0 0 1-6.53-17.34 21.13 21.13 0 0 1 10.47-16.36A21.18 21.18 0 0 1 187.48 735a21.25 21.25 0 0 1 17.34-6.53 21.11 21.11 0 0 1 16.36 10.48 21.22 21.22 0 0 1 16.88 7.64 21.1 21.1 0 0 1 4.16 18.97 21.23 21.23 0 0 1 6.53 17.34 21.12 21.12 0 0 1-10.47 16.36 21.25 21.25 0 0 1-7.65 16.88 21.2 21.2 0 0 1-18.97 4.15c-4 4.23-9.55 6.63-15.35 6.63Zm-16.62-13.66.46.87a18.16 18.16 0 0 0 29.9 3.5l.64-.74.94.29a18.2 18.2 0 0 0 23.62-18.67l-.07-.98.87-.45a18.16 18.16 0 0 0 3.5-29.9l-.74-.65.29-.93a18.2 18.2 0 0 0-18.67-23.62l-.98.06-.45-.87a18.15 18.15 0 0 0-29.9-3.5l-.65.74-.93-.29a18.2 18.2 0 0 0-23.62 18.67l.06.98-.86.46a18.16 18.16 0 0 0-3.5 29.9l.74.64-.3.94a18.17 18.17 0 0 0 18.68 23.62Z"/><g fill="#fff"><path d="M137.2 763.6a29.4 29.4 0 1 0 32.02-49.33 29.4 29.4 0 0 0-32.02 49.32Z"/><path d="M153.18 769.83a30.7 30.7 0 0 1-16.79-4.99 30.69 30.69 0 0 1-13.4-19.48 30.69 30.69 0 0 1 4.3-23.25 30.81 30.81 0 0 1 25.95-14.08 30.8 30.8 0 0 1 16.79 4.98 30.69 30.69 0 0 1 13.4 19.48 30.7 30.7 0 0 1-4.3 23.25 30.82 30.82 0 0 1-25.95 14.09Zm.06-58.82a27.85 27.85 0 0 0-23.45 12.73 27.73 27.73 0 0 0-3.88 21 27.73 27.73 0 0 0 12.1 17.6 27.84 27.84 0 0 0 38.6-8.22 27.72 27.72 0 0 0 3.9-21 27.73 27.73 0 0 0-12.1-17.6 27.8 27.8 0 0 0-15.17-4.5Z"/></g><path fill="#FF8630" d="M153.19 765.27a26.37 26.37 0 0 1-22.08-40.68 26.28 26.28 0 0 1 22.12-12c5.09 0 10.06 1.47 14.32 4.24a26.38 26.38 0 0 1 7.76 36.43 26.28 26.28 0 0 1-22.12 12.01Zm.04-49.7a23.3 23.3 0 0 0-19.62 10.64 23.38 23.38 0 0 0 19.57 36.08 23.3 23.3 0 0 0 19.62-10.65 23.39 23.39 0 0 0-19.57-36.07Z"/><path fill="#FF8630" d="m133.14 724.13 41.7 27.05-1.63 2.5-41.69-27.04Z"/><path fill="#FF8630" d="m175.13 727.89 1.3 2.68-20.9 10.14-1.3-2.69Z"/><path fill="#FF8630" d="m153.11 739.65 2.98.1-.74 23.2-2.98-.09Z"/><path fill="#fff" d="M183.74 790.78a19.7 19.7 0 1 0 30.34-25.16 19.7 19.7 0 0 0-30.34 25.16Z"/><path fill="#FF8630" d="M717.6 111.61 604.25 205.6l-18.63-22.47 113.35-93.99Z"/><path fill="#fff" d="M635.2 161.81a7.61 7.61 0 1 0 11.72-9.72 7.61 7.61 0 0 0-11.72 9.72Z"/><path d="M619.17 175.1a7.62 7.62 0 1 0 11.73-9.73 7.62 7.62 0 0 0-11.73 9.73Zm-2.54 8.42a7.62 7.62 0 1 1-15.24 0 7.62 7.62 0 0 1 15.24 0Zm28.21 58.6-21.3-25.68 101.15-83.87 21.3 25.68Zm-17.1-25.29 17.5 21.09 96.54-80.06-17.48-21.09Z"/><path d="m724.22 337.86-81.29-98.04 101.15-83.87L825.37 254Zm-77.08-97.65 77.48 93.45 96.55-80.06-77.48-93.44Z"/><path d="m721.83 178.28-21.3-25.68 24.16-20.03 21.3 25.68ZM704.73 153l17.49 21.09 19.56-16.22-17.48-21.09Zm-16.76 29.75 1.9 2.3-46.65 38.69-1.9-2.3Zm57.1-7.46 1.9 2.3-84.15 69.78-1.9-2.3Zm14.4 17.36 1.9 2.3-84.16 69.78-1.9-2.3Zm14.4 17.36 1.9 2.3-84.16 69.78-1.9-2.3Zm14.38 17.36 1.9 2.3L706 299.43l-1.9-2.3Zm14.4 17.36 1.9 2.3-84.15 69.78-1.9-2.3Z"/><path d="m727.9 161.49-10.3-1.99.57-2.93 6.25 1.2-1.6-12.62 2.95-.38Z"/><path fill="#FF8630" d="M171.15 671.28a8.53 8.53 0 0 0-17.05-.17 8.53 8.53 0 0 0-17 1.35c.17 4.71 3.53 17.34 17.95 25.96 13.8-9.6 16.26-22.43 16.1-27.14Z"/><path fill="#fff" d="M51.19 368.2a6.15 6.15 0 1 1-12.3 0 6.15 6.15 0 0 1 12.3 0ZM646.88 6.25a6.15 6.15 0 1 1-12.3 0 6.15 6.15 0 0 1 12.3 0ZM407.84 97.26a6.15 6.15 0 1 1-12.3 0 6.15 6.15 0 0 1 12.3 0ZM104.56 366.83a6.15 6.15 0 1 1-12.31 0 6.15 6.15 0 0 1 12.3 0Zm-91.53 308.8a6.16 6.16 0 1 1-12.31 0 6.16 6.16 0 0 1 12.31 0Zm660.56-278.52a6.15 6.15 0 1 1-12.3 0 6.15 6.15 0 0 1 12.3 0ZM491.83 666.3a6.16 6.16 0 1 1-12.31 0 6.16 6.16 0 0 1 12.3 0Zm8.51-45.83a6.15 6.15 0 1 1-12.3 0 6.15 6.15 0 0 1 12.3 0Zm-97.39 67.19a6.16 6.16 0 1 1-12.31 0 6.16 6.16 0 0 1 12.3 0Zm348.02 91.27a6.16 6.16 0 1 1-12.31 0 6.16 6.16 0 0 1 12.3 0Zm55.27-164.09a6.16 6.16 0 1 1-12.31 0 6.16 6.16 0 0 1 12.3 0ZM89.17 74.78a6.16 6.16 0 1 1-12.31 0 6.16 6.16 0 0 1 12.3 0Z"/></svg>
