<svg xmlns="http://www.w3.org/2000/svg" fill="none" viewBox="0 0 1120 753"><path fill="#282A2E" d="M0 0h1120v752H0z"/><path fill="#1A5AD7" d="M0 298h1120v454H0z"/><ellipse cx="770.375" cy="149.081" fill="#1A5AD7" rx="151.375" ry="149.081" transform="rotate(-180 770.375 149.081)"/><path fill="#282A2E" d="M770.375 454.125C686.773 454.125 619 521.898 619 605.5h302.75c0-83.602-67.773-151.375-151.375-151.375zM770.375 605.5C686.773 605.5 619 671.219 619 752.288h302.75c0-81.069-67.773-146.788-151.375-146.788zM770.375 298.163C686.773 298.163 619 367.989 619 454.125h302.75c0-86.136-67.773-155.962-151.375-155.962z"/></svg>