<?xml version="1.0" encoding="utf-8"?>
<!-- Generator: Adobe Illustrator 16.0.0, SVG Export Plug-In . SVG Version: 6.00 Build 0)  -->
<!DOCTYPE svg PUBLIC "-//W3C//DTD SVG 1.1//EN" "http://www.w3.org/Graphics/SVG/1.1/DTD/svg11.dtd">
<svg version="1.1" id="Layer_1" xmlns="http://www.w3.org/2000/svg" xmlns:xlink="http://www.w3.org/1999/xlink" x="0px" y="0px"
	 width="1920px" height="1080px" viewBox="0 0 1920 1080" enable-background="new 0 0 1920 1080" xml:space="preserve">
<g>
	<g>
		<g>
			<g>
				<polyline fill="#FFD829" points="1252.906,890.573 1142.568,770.385 968.624,770.385 961.165,770.385 787.221,770.385 
					676.882,890.573 				"/>
				<polygon points="1251.433,891.926 1141.689,772.385 788.1,772.385 678.355,891.926 675.409,889.221 786.342,768.385 
					1143.447,768.385 1254.38,889.221 				"/>
			</g>
			<g>
				<line fill="#DDF6C5" x1="878.234" y1="770.385" x2="809.594" y2="890.573"/>
				<rect x="841.914" y="761.275" transform="matrix(0.8683 0.496 -0.496 0.8683 523.0864 -309.2385)" width="4" height="138.408"/>
			</g>
			<g>
				<line fill="#DDF6C5" x1="1047.897" y1="770.385" x2="1116.536" y2="890.573"/>
				
					<rect x="1013.013" y="828.479" transform="matrix(0.4959 0.8684 -0.8684 0.4959 1266.6875 -521.1345)" width="138.407" height="4"/>
			</g>
			<g>
				<rect x="959.165" y="770.385" width="4" height="120.188"/>
			</g>
		</g>
		<g>
			<rect x="923.107" y="392.051" fill="#FFD829" width="81.588" height="84.241"/>
			<path d="M1006.695,478.292h-85.588v-88.241h85.588V478.292z M925.107,474.292h77.588v-80.241h-77.588V474.292z"/>
		</g>
		<g>
			<path fill="#FFD829" d="M1270.145,602.44c0,43.517-35.276,78.795-78.796,78.795H736.454c-43.518,0-78.796-35.278-78.796-78.795
				v-58.668c0-43.52,35.278-78.796,78.796-78.796h454.895c43.52,0,78.796,35.276,78.796,78.796V602.44z"/>
			<path d="M1191.349,683.235H736.454c-44.551,0-80.796-36.244-80.796-80.795v-58.668c0-44.551,36.245-80.796,80.796-80.796h454.895
				c44.551,0,80.796,36.245,80.796,80.796v58.668C1272.145,646.991,1235.899,683.235,1191.349,683.235z M736.454,466.977
				c-42.345,0-76.796,34.451-76.796,76.796v58.668c0,42.345,34.451,76.795,76.796,76.795h454.895
				c42.346,0,76.796-34.45,76.796-76.795v-58.668c0-42.345-34.45-76.796-76.796-76.796H736.454z"/>
		</g>
		<g>
			<path fill="#FFD829" d="M591.354,574.708v-51.973c0-11.806-9.569-21.376-21.374-21.376s-21.375,9.57-21.375,21.376v51.973
				c0,11.804,9.57,21.375,21.375,21.375S591.354,586.512,591.354,574.708z"/>
			<path d="M569.98,598.083c-12.889,0-23.375-10.486-23.375-23.375v-51.973c0-12.89,10.486-23.376,23.375-23.376
				c12.889,0,23.374,10.486,23.374,23.376v51.973C593.354,587.597,582.869,598.083,569.98,598.083z M569.98,503.359
				c-10.684,0-19.375,8.692-19.375,19.376v51.973c0,10.684,8.691,19.375,19.375,19.375c10.683,0,19.374-8.691,19.374-19.375v-51.973
				C589.354,512.051,580.664,503.359,569.98,503.359z"/>
		</g>
		<g>
			<g>
				<path fill="#FFFFFF" d="M1538.466,892.573H381.534c-1.104,0-2-0.896-2-2V243.009c0-1.104,0.896-2,2-2h1156.932
					c1.104,0,2,0.896,2,2v647.564C1540.466,891.678,1539.57,892.573,1538.466,892.573z M383.534,888.573h1152.932V245.009H383.534
					V888.573z"/>
			</g>
			<g>
				<rect x="381.534" y="243.009" fill="#FFFFFF" width="1156.932" height="61.484"/>
				<path fill="#FFFFFF" d="M1538.466,306.493H381.534c-1.104,0-2-0.896-2-2v-61.484c0-1.104,0.896-2,2-2h1156.932
					c1.104,0,2,0.896,2,2v61.484C1540.466,305.598,1539.57,306.493,1538.466,306.493z M383.534,302.493h1152.932v-57.484H383.534
					V302.493z"/>
			</g>
			<g>
				<circle cx="412.829" cy="273.751" r="15.647"/>
			</g>
			<g>
				<circle fill="#FFD829" cx="455.859" cy="273.751" r="15.648"/>
			</g>
			<g>
				<circle fill="#FFD829" cx="498.33" cy="273.751" r="15.646"/>
			</g>
		</g>
		<g>
			<path fill="#FFD829" d="M1375.731,574.708v-51.973c0-11.806-9.569-21.376-21.374-21.376s-21.376,9.57-21.376,21.376v51.973
				c0,11.804,9.571,21.375,21.376,21.375S1375.731,586.512,1375.731,574.708z"/>
			<path d="M1354.357,598.083c-12.89,0-23.376-10.486-23.376-23.375v-51.973c0-12.89,10.486-23.376,23.376-23.376
				c12.889,0,23.374,10.486,23.374,23.376v51.973C1377.731,587.597,1367.246,598.083,1354.357,598.083z M1354.357,503.359
				c-10.684,0-19.376,8.692-19.376,19.376v51.973c0,10.684,8.692,19.375,19.376,19.375c10.683,0,19.374-8.691,19.374-19.375v-51.973
				C1373.731,512.051,1365.04,503.359,1354.357,503.359z"/>
		</g>
		<g>
			<path d="M1357.821,730.987c0,23.611-19.141,42.75-42.75,42.75H612.73c-23.609,0-42.75-19.139-42.75-42.75V542.436
				c0-23.613,19.141-42.754,42.75-42.754h702.341c23.609,0,42.75,19.141,42.75,42.754V730.987z"/>
		</g>
		<g>
			<path fill="#FFFFFF" d="M681.733,594.49c3.584-0.85,7.451-1.416,11.604-1.699c4.15-0.282,8.254-0.424,12.311-0.424
				c4.338,0,8.749,0.424,13.231,1.273c4.479,0.85,8.561,2.406,12.24,4.67s6.673,5.377,8.985,9.34
				c2.311,3.961,3.467,9.01,3.467,15.141c0,6.038-1.086,11.133-3.255,15.283c-2.171,4.152-5.048,7.523-8.632,10.117
				c-3.586,2.596-7.69,4.457-12.311,5.59c-4.623,1.131-9.388,1.697-14.292,1.697c-0.473,0-1.251,0-2.335,0
				c-1.085,0-2.218-0.021-3.396-0.07c-1.181-0.047-2.335-0.117-3.467-0.213c-1.132-0.092-1.935-0.188-2.406-0.283v37.641h-11.745
				V594.49z M705.977,602.556c-2.463,0-4.829,0.048-7.102,0.142c-2.273,0.095-4.073,0.332-5.397,0.707v41.037
				c0.473,0.189,1.229,0.307,2.271,0.354c1.041,0.049,2.131,0.096,3.268,0.142c1.137,0.049,2.225,0.071,3.268,0.071
				c1.042,0,1.8,0,2.273,0c3.219,0,6.414-0.306,9.587-0.92c3.17-0.613,6.036-1.721,8.592-3.326c2.556-1.603,4.616-3.867,6.18-6.792
				c1.561-2.923,2.344-6.651,2.344-11.179c0-3.867-0.734-7.098-2.202-9.693c-1.468-2.594-3.41-4.67-5.824-6.227
				c-2.414-1.557-5.138-2.664-8.167-3.325C712.038,602.887,709.006,602.556,705.977,602.556z"/>
			<path fill="#FFFFFF" d="M817.577,593.499h11.18v66.083c0,5.943-0.779,11.086-2.33,15.424c-1.555,4.341-3.744,7.902-6.568,10.685
				c-2.824,2.784-6.262,4.835-10.307,6.155c-4.049,1.32-8.52,1.98-13.415,1.98c-11.674,0-20.454-2.639-26.338-7.924
				c-5.883-5.282-8.824-13.301-8.824-24.056v-68.348h11.745v62.829c0,5.001,0.495,9.222,1.486,12.664
				c0.99,3.445,2.452,6.227,4.387,8.35c1.932,2.122,4.387,3.656,7.358,4.599c2.971,0.944,6.438,1.415,10.4,1.415
				c7.642,0,13.089-2.098,16.345-6.297c3.254-4.197,4.881-11.108,4.881-20.73V593.499z"/>
			<path fill="#FFFFFF" d="M858.612,678.544c2.83,1.511,6.015,2.76,9.552,3.75c3.538,0.991,7.098,1.485,10.684,1.485
				c3.113,0,6.036-0.305,8.773-0.92c2.735-0.611,5.116-1.602,7.146-2.971c2.027-1.367,3.63-3.089,4.811-5.165
				c1.179-2.074,1.77-4.528,1.77-7.358c0-3.867-1.298-7.027-3.892-9.48c-2.596-2.453-5.826-4.621-9.693-6.51
				c-3.869-1.886-8.065-3.726-12.594-5.519c-4.528-1.791-8.728-3.913-12.594-6.368c-3.87-2.451-7.1-5.447-9.693-8.985
				c-2.596-3.538-3.892-8.042-3.892-13.514c0-3.867,0.778-7.358,2.335-10.472s3.75-5.753,6.58-7.924
				c2.83-2.17,6.248-3.844,10.259-5.023c4.009-1.179,8.466-1.77,13.372-1.77c5.66,0,10.801,0.402,15.425,1.203
				c4.621,0.803,8.3,1.863,11.037,3.184l0.283-0.141v0.283h0.142l-0.142,0.424v22.641H897.81v-15.141
				c-2.359-0.566-4.952-1.037-7.783-1.416c-2.83-0.375-5.85-0.565-9.056-0.565c-3.113,0-5.921,0.378-8.42,1.132
				c-2.501,0.756-4.623,1.77-6.367,3.043c-1.747,1.273-3.092,2.76-4.033,4.457c-0.944,1.698-1.415,3.491-1.415,5.377
				c0,3.68,1.296,6.746,3.892,9.198c2.593,2.454,5.823,4.647,9.692,6.58c3.867,1.935,8.066,3.845,12.595,5.731
				c4.528,1.888,8.725,4.081,12.594,6.58c3.867,2.5,7.098,5.496,9.693,8.984c2.593,3.492,3.891,7.832,3.891,13.02
				c0,4.244-0.777,8.065-2.334,11.461c-1.557,3.396-3.774,6.322-6.651,8.773c-2.879,2.455-6.416,4.341-10.612,5.66
				c-4.199,1.32-8.939,1.982-14.222,1.982c-3.586,0-6.982-0.283-10.188-0.85c-3.208-0.566-6.155-1.273-8.844-2.123
				c-2.688-0.849-5.095-1.744-7.217-2.688c-2.123-0.942-3.799-1.744-5.023-2.405l0.142-0.425v-22.924h10.471V678.544z"/>
			<path fill="#FFFFFF" d="M986.957,647.13h-44.433v45.423h-11.745v-99.054h11.745v43.159h44.433v-43.159h11.745v99.054h-11.745
				V647.13z"/>
			<path fill="#FFFFFF" d="M1156.761,626.753l1.415-13.442h-0.707l-6.793,12.169l-14.434,24.197h-3.537l-15.142-24.339
				l-6.509-12.027h-0.708l1.698,13.301v65.941h-11.462v-99.054h10.896l23.489,37.641h0.283l22.641-37.641h10.613v99.054h-11.745
				V626.753z"/>
			<path fill="#FFFFFF" d="M1192.136,593.499h58.159v10.472h-46.414v32.404h42.877v10.472h-42.877v35.235h47.122v10.471h-58.867
				V593.499z"/>
		</g>
		<g>
			<path fill="#FFD829" d="M608.958,631.289c0-11.806-9.569-21.375-21.374-21.375c11.805,0,21.374-9.571,21.374-21.376
				s-9.569-21.375-21.374-21.375h-35.206c-11.806,0-21.376,9.57-21.376,21.375s9.57,21.376,21.376,21.376
				c-11.806,0-21.376,9.569-21.376,21.375c0,11.201,8.615,20.382,19.581,21.296c-10.966,0.912-19.581,10.093-19.581,21.293
				c0,11.807,9.57,21.375,21.376,21.375c-11.806,0-21.376,9.572-21.376,21.375c0,11.807,9.57,21.377,21.376,21.377h35.206
				c11.805,0,21.374-9.57,21.374-21.377c0-11.803-9.569-21.375-21.374-21.375c11.805,0,21.374-9.568,21.374-21.375
				c0-11.2-8.615-20.381-19.58-21.293C600.343,651.671,608.958,642.49,608.958,631.289z"/>
			<path d="M587.584,740.005h-35.206c-12.89,0-23.376-10.487-23.376-23.377c0-9.524,5.726-17.736,13.917-21.375
				c-8.19-3.639-13.917-11.851-13.917-21.375c0-9.345,5.649-17.591,13.78-21.294c-8.131-3.704-13.78-11.95-13.78-21.295
				c0-9.524,5.726-17.736,13.917-21.375c-8.19-3.639-13.917-11.852-13.917-21.376c0-12.889,10.486-23.375,23.376-23.375h35.206
				c12.889,0,23.374,10.486,23.374,23.375c0,9.524-5.726,17.737-13.916,21.376c8.19,3.639,13.916,11.851,13.916,21.375
				c0,9.345-5.648,17.591-13.78,21.295c8.131,3.703,13.78,11.949,13.78,21.294c0,9.524-5.726,17.736-13.916,21.375
				c8.19,3.639,13.916,11.851,13.916,21.375C610.958,729.518,600.473,740.005,587.584,740.005z M554.378,695.253
				c0,1.104-0.896,2-2,2c-10.684,0-19.376,8.691-19.376,19.375c0,10.685,8.692,19.377,19.376,19.377h35.206
				c10.683,0,19.374-8.692,19.374-19.377c0-10.684-8.691-19.375-19.374-19.375c-1.104,0-2-0.896-2-2s0.896-2,2-2
				c10.683,0,19.374-8.691,19.374-19.375c0-9.994-7.795-18.472-17.746-19.3c-1.037-0.086-1.834-0.953-1.834-1.993
				s0.797-1.906,1.834-1.993c9.951-0.829,17.746-9.309,17.746-19.303c0-10.684-8.691-19.375-19.374-19.375c-1.104,0-2-0.896-2-2
				s0.896-2,2-2c10.683,0,19.374-8.692,19.374-19.376s-8.691-19.375-19.374-19.375h-35.206c-10.684,0-19.376,8.691-19.376,19.375
				s8.692,19.376,19.376,19.376c1.104,0,2,0.896,2,2s-0.896,2-2,2c-10.684,0-19.376,8.691-19.376,19.375
				c0,9.994,7.795,18.474,17.747,19.303c1.037,0.087,1.834,0.953,1.834,1.993s-0.797,1.907-1.834,1.993
				c-9.952,0.828-17.747,9.306-17.747,19.3c0,10.684,8.692,19.375,19.376,19.375C553.482,693.253,554.378,694.148,554.378,695.253z"
				/>
		</g>
		<g>
			<path fill="#FFD829" d="M1383.695,631.289c0-11.806-9.569-21.375-21.374-21.375c11.805,0,21.374-9.571,21.374-21.376
				s-9.569-21.375-21.374-21.375h-35.207c-11.807,0-21.375,9.57-21.375,21.375s9.568,21.376,21.375,21.376
				c-11.807,0-21.375,9.569-21.375,21.375c0,11.201,8.617,20.382,19.581,21.296c-10.964,0.912-19.581,10.093-19.581,21.293
				c0,11.807,9.568,21.375,21.375,21.375c-11.807,0-21.375,9.572-21.375,21.375c0,11.807,9.568,21.377,21.375,21.377h35.207
				c11.805,0,21.374-9.57,21.374-21.377c0-11.803-9.569-21.375-21.374-21.375c11.805,0,21.374-9.568,21.374-21.375
				c0-11.2-8.616-20.381-19.579-21.293C1375.079,651.671,1383.695,642.49,1383.695,631.289z"/>
			<path d="M1362.321,740.005h-35.207c-12.889,0-23.375-10.487-23.375-23.377c0-9.524,5.726-17.736,13.916-21.375
				c-8.19-3.639-13.916-11.851-13.916-21.375c0-9.345,5.649-17.591,13.78-21.294c-8.131-3.704-13.78-11.95-13.78-21.295
				c0-9.524,5.726-17.736,13.916-21.375c-8.19-3.639-13.916-11.852-13.916-21.376c0-12.889,10.486-23.375,23.375-23.375h35.207
				c12.889,0,23.374,10.486,23.374,23.375c0,9.524-5.726,17.737-13.915,21.376c8.189,3.639,13.915,11.851,13.915,21.375
				c0,9.345-5.648,17.591-13.779,21.295c8.131,3.703,13.779,11.949,13.779,21.294c0,9.524-5.726,17.736-13.915,21.375
				c8.189,3.639,13.915,11.851,13.915,21.375C1385.695,729.518,1375.21,740.005,1362.321,740.005z M1329.114,695.253
				c0,1.104-0.896,2-2,2c-10.684,0-19.375,8.691-19.375,19.375c0,10.685,8.691,19.377,19.375,19.377h35.207
				c10.683,0,19.374-8.692,19.374-19.377c0-10.684-8.691-19.375-19.374-19.375c-1.104,0-2-0.896-2-2s0.896-2,2-2
				c10.683,0,19.374-8.691,19.374-19.375c0-9.994-7.795-18.472-17.745-19.3c-1.036-0.086-1.834-0.953-1.834-1.993
				s0.797-1.906,1.834-1.993c9.95-0.829,17.745-9.309,17.745-19.303c0-10.684-8.691-19.375-19.374-19.375c-1.104,0-2-0.896-2-2
				s0.896-2,2-2c10.683,0,19.374-8.692,19.374-19.376s-8.691-19.375-19.374-19.375h-35.207c-10.684,0-19.375,8.691-19.375,19.375
				s8.691,19.376,19.375,19.376c1.104,0,2,0.896,2,2s-0.896,2-2,2c-10.684,0-19.375,8.691-19.375,19.375
				c0,9.994,7.796,18.473,17.747,19.303c1.037,0.087,1.834,0.953,1.834,1.993s-0.798,1.907-1.834,1.993
				c-9.952,0.828-17.747,9.306-17.747,19.3c0,10.684,8.691,19.375,19.375,19.375
				C1328.219,693.253,1329.114,694.148,1329.114,695.253z"/>
		</g>
		<g>
			<g>
				<g>
					<defs>
						<path id="SVGID_1_" d="M1085.448,273.547c-1.607,0-3.191,0.1-4.752,0.275c-14.562-50.304-60.961-87.085-115.956-87.085
							s-101.396,36.781-115.957,87.085c-1.561-0.176-3.144-0.275-4.751-0.275c-23.148,0-41.913,18.766-41.913,41.912
							c0,23.149,18.765,41.913,41.913,41.913c3.526,0,6.948-0.441,10.221-1.261c18.714,42.425,61.138,72.042,110.487,72.042
							c49.348,0,91.771-29.617,110.486-72.042c3.271,0.819,6.694,1.261,10.222,1.261c23.147,0,41.912-18.764,41.912-41.913
							C1127.36,292.312,1108.596,273.547,1085.448,273.547z"/>
					</defs>
					<defs>
						<path id="SVGID_2_" d="M964.74,430.153c-48.054,0-91.691-28.097-111.639-71.725c-2.981,0.627-6.024,0.944-9.069,0.944
							c-24.214,0-43.913-19.699-43.913-43.913c0-24.213,19.699-43.912,43.913-43.912c1.074,0,2.18,0.043,3.302,0.129
							c7.429-24.386,22.67-46.301,43.051-61.851c21.513-16.413,47.225-25.088,74.354-25.088s52.841,8.675,74.354,25.088
							c20.38,15.549,35.621,37.464,43.052,61.851c1.122-0.086,2.228-0.129,3.303-0.129c24.213,0,43.912,19.699,43.912,43.912
							c0,24.214-19.699,43.913-43.912,43.913c-3.046,0-6.09-0.317-9.07-0.944C1056.43,402.057,1012.793,430.153,964.74,430.153z
							 M855.402,353.762l0.681,1.542c18.985,43.039,61.635,70.849,108.657,70.849c47.021,0,89.671-27.81,108.656-70.849l0.681-1.542
							l1.636,0.41c3.181,0.797,6.457,1.201,9.735,1.201c22.008,0,39.912-17.905,39.912-39.913c0-22.008-17.904-39.912-39.912-39.912
							c-1.456,0-2.979,0.088-4.528,0.263l-1.676,0.189l-0.469-1.62c-7.008-24.207-21.962-46.002-42.108-61.373
							c-20.81-15.876-45.682-24.269-71.927-24.269c-26.246,0-51.118,8.392-71.928,24.269
							c-20.147,15.371-35.101,37.167-42.108,61.373l-0.469,1.62l-1.676-0.189c-1.548-0.174-3.071-0.263-4.527-0.263
							c-22.008,0-39.913,17.904-39.913,39.912c0,22.008,17.905,39.913,39.913,39.913c3.277,0,6.552-0.404,9.735-1.201
							L855.402,353.762z"/>
					</defs>
					<use xlink:href="#SVGID_1_"  overflow="visible" fill="#FFD829"/>
					<use xlink:href="#SVGID_2_"  overflow="visible"/>
					<clipPath id="SVGID_3_">
						<use xlink:href="#SVGID_1_"  overflow="visible"/>
					</clipPath>
					<clipPath id="SVGID_4_" clip-path="url(#SVGID_3_)">
						<use xlink:href="#SVGID_2_"  overflow="visible"/>
					</clipPath>
				</g>
				<g>
					<line fill="#DDF6C5" x1="822.795" y1="304.372" x2="848.502" y2="332.314"/>
					<path d="M848.502,334.314c-0.54,0-1.078-0.217-1.472-0.646l-25.707-27.942c-0.748-0.813-0.695-2.078,0.118-2.826
						c0.814-0.748,2.079-0.694,2.826,0.118l25.707,27.942c0.748,0.813,0.695,2.078-0.118,2.826
						C849.472,334.14,848.986,334.314,848.502,334.314z"/>
				</g>
				<g>
					<line fill="#DDF6C5" x1="1101.672" y1="304.372" x2="1075.966" y2="332.314"/>
					<path d="M1075.965,334.314c-0.483,0-0.969-0.175-1.354-0.528c-0.812-0.748-0.865-2.013-0.117-2.826l25.706-27.942
						c0.747-0.813,2.012-0.866,2.826-0.118c0.812,0.748,0.865,2.013,0.117,2.826l-25.706,27.942
						C1077.043,334.097,1076.505,334.314,1075.965,334.314z"/>
				</g>
			</g>
			<g>
				<g>
					<circle cx="1088.82" cy="199.589" r="56.163"/>
				</g>
				<g>
					<circle cx="844.889" cy="199.589" r="56.163"/>
				</g>
			</g>
			<g>
				<g>
					<circle cx="910.905" cy="320.26" r="15.926"/>
				</g>
				<g>
					<path d="M942.854,324.894c-0.637,0-1.263-0.303-1.651-0.868c-6.834-9.955-18.108-15.897-30.158-15.897
						s-23.323,5.943-30.158,15.897c-0.625,0.911-1.87,1.143-2.781,0.517c-0.911-0.625-1.142-1.87-0.517-2.781
						c7.581-11.042,20.088-17.634,33.456-17.634s25.875,6.592,33.456,17.634c0.625,0.911,0.394,2.155-0.517,2.781
						C943.638,324.78,943.244,324.894,942.854,324.894z"/>
				</g>
			</g>
			<g>
				<g>
					<circle cx="1014.848" cy="320.26" r="15.927"/>
				</g>
				<g>
					<path d="M1046.797,324.894c-0.637,0-1.263-0.303-1.65-0.868c-6.835-9.955-18.108-15.897-30.158-15.897
						c-12.049,0-23.323,5.943-30.159,15.898c-0.625,0.91-1.87,1.141-2.78,0.517c-0.911-0.625-1.143-1.871-0.517-2.781
						c7.582-11.042,20.089-17.633,33.456-17.633c13.368,0,25.875,6.592,33.455,17.634c0.626,0.911,0.395,2.155-0.517,2.781
						C1047.581,324.78,1047.187,324.894,1046.797,324.894z"/>
				</g>
			</g>
			<g>
				<line fill="#DDF6C5" x1="963.901" y1="320.38" x2="963.901" y2="343.568"/>
				<path d="M963.901,345.568c-1.104,0-2-0.896-2-2V320.38c0-1.104,0.896-2,2-2s2,0.896,2,2v23.188
					C965.901,344.673,965.006,345.568,963.901,345.568z"/>
			</g>
			<g>
				<path fill="#FFFFFF" d="M1004.695,356.902c0,22.529-18.264,40.794-40.794,40.794c-22.529,0-40.794-18.265-40.794-40.794"/>
			</g>
		</g>
	</g>
	<g>
		<polygon fill="#FFFFFF" points="964.895,467.611 922.733,499.586 880.865,467.611 		"/>
	</g>
	<g>
		<polygon fill="#FFFFFF" points="1045.412,467.611 1004.423,499.586 964.895,467.611 		"/>
	</g>
</g>
<g>
	<g>
		<path fill="#FFFFFF" d="M498.682,550.721c-0.364,0-0.732-0.099-1.063-0.308L331.96,446.148c-0.935-0.588-1.216-1.823-0.627-2.758
			c0.588-0.935,1.824-1.214,2.758-0.627l165.658,104.266c0.935,0.588,1.216,1.823,0.627,2.758
			C499.996,550.39,499.346,550.721,498.682,550.721z"/>
	</g>
	<g>
		<path fill="#FFFFFF" d="M333.027,792.138c-0.665,0-1.314-0.331-1.695-0.935c-0.588-0.935-0.307-2.17,0.627-2.758L497.618,684.18
			c0.936-0.591,2.17-0.308,2.758,0.627s0.307,2.17-0.627,2.758L334.091,791.83C333.76,792.039,333.391,792.138,333.027,792.138z"/>
	</g>
	<g>
		<path fill="#FFFFFF" d="M498.684,619.297H346.123c-1.104,0-2-0.896-2-2s0.896-2,2-2h152.561c1.104,0,2,0.896,2,2
			S499.788,619.297,498.684,619.297z"/>
	</g>
	<g>
		<path fill="#FFFFFF" d="M317.192,619.297h-55.066c-1.104,0-2-0.896-2-2s0.896-2,2-2h55.066c1.104,0,2,0.896,2,2
			S318.297,619.297,317.192,619.297z"/>
	</g>
</g>
<g>
	<g>
		<path fill="#FFFFFF" d="M1416.164,550.721c-0.665,0-1.314-0.331-1.694-0.935c-0.589-0.935-0.308-2.17,0.627-2.758l165.658-104.266
			c0.936-0.587,2.17-0.307,2.758,0.627c0.589,0.935,0.308,2.17-0.627,2.758l-165.658,104.265
			C1416.896,550.622,1416.528,550.721,1416.164,550.721z"/>
	</g>
	<g>
		<path fill="#FFFFFF" d="M1581.818,792.138c-0.364,0-0.732-0.099-1.063-0.308l-165.658-104.266
			c-0.935-0.588-1.216-1.823-0.627-2.758c0.588-0.936,1.822-1.218,2.758-0.627l165.658,104.266c0.935,0.588,1.216,1.823,0.627,2.758
			C1583.133,791.807,1582.482,792.138,1581.818,792.138z"/>
	</g>
	<g>
		<path fill="#FFFFFF" d="M1568.723,619.297h-152.561c-1.104,0-2-0.896-2-2s0.896-2,2-2h152.561c1.104,0,2,0.896,2,2
			S1569.827,619.297,1568.723,619.297z"/>
	</g>
	<g>
		<path fill="#FFFFFF" d="M1652.719,619.297h-55.065c-1.104,0-2-0.896-2-2s0.896-2,2-2h55.065c1.104,0,2,0.896,2,2
			S1653.823,619.297,1652.719,619.297z"/>
	</g>
</g>
<g>
	<g>
		<path fill="none" d="M965.7,190.042c-9.179,49.418-52.51,86.839-104.588,86.839c-8.286,0-16.35-0.948-24.091-2.74
			c-19.809,3.337-34.902,20.561-34.902,41.317c0,23.149,18.765,41.913,41.913,41.913c3.526,0,6.948-0.441,10.221-1.261
			c18.714,42.425,61.138,72.042,110.487,72.042c49.348,0,91.771-29.617,110.486-72.042c3.271,0.819,6.694,1.261,10.222,1.261
			c23.147,0,41.912-18.764,41.912-41.913c0-20.385-14.557-37.365-33.842-41.128c-7.478,1.666-15.249,2.551-23.229,2.551
			C1018.212,276.882,974.88,239.461,965.7,190.042z"/>
	</g>
	<g>
		<path d="M965.7,190.042c-0.203-1.094-0.396-2.191-0.564-3.297c-0.133,0-0.263-0.008-0.396-0.008
			c-54.995,0-101.396,36.781-115.957,87.085c-1.561-0.176-3.144-0.275-4.751-0.275c-2.39,0-4.73,0.211-7.011,0.595
			c7.741,1.792,15.805,2.74,24.091,2.74C913.19,276.882,956.521,239.461,965.7,190.042z"/>
	</g>
	<g>
		<path d="M1080.696,273.822c-14.428-49.838-60.109-86.38-114.436-87.053c-0.168,1.098-0.358,2.188-0.561,3.273
			c9.18,49.418,52.512,86.839,104.59,86.839c7.979,0,15.751-0.885,23.229-2.551c-2.612-0.51-5.309-0.784-8.07-0.784
			C1083.841,273.547,1082.257,273.646,1080.696,273.822z"/>
	</g>
	<g>
		<path d="M965.7,190.042c0.202-1.086,0.393-2.176,0.561-3.273c-0.376-0.004-0.748-0.022-1.125-0.023
			C965.305,187.851,965.497,188.949,965.7,190.042z"/>
	</g>
</g>
</svg>
