<svg xmlns="http://www.w3.org/2000/svg" viewBox="0 0 1395 750"><path fill="#ffd829" d="M992.9 747.57 882.58 627.38H527.22l-110.34 120.2"/><path d="M991.43 748.93 881.7 629.39H528.1L418.35 748.92l-2.94-2.7 110.93-120.85h357.1l110.94 120.84Z"/><path fill="#ddf6c5" d="m618.23 627.38-68.64 120.2"/><path d="m616.53 626.37 3.47 1.98-68.65 120.18-3.47-1.98Z"/><path fill="#ddf6c5" d="m787.9 627.38 68.64 120.2"/><path d="m789.59 626.4 68.64 120.2-3.48 1.99-68.63-120.2Zm-90.43.98h4v120.2h-4Z"/><path fill="#ffd829" d="M663.1 249.05h81.6v84.24h-81.6Z"/><path d="M746.7 335.3h-85.6v-88.25h85.6Zm-81.6-4h77.6v-80.25h-77.6Z"/><path fill="#ffd829" d="M1010.14 459.44a78.8 78.8 0 0 1-78.8 78.8H476.46a78.8 78.8 0 0 1-78.8-78.8v-58.67a78.8 78.8 0 0 1 78.8-78.8h454.9a78.8 78.8 0 0 1 78.8 78.8Z"/><path d="M931.35 540.24h-454.9c-44.55 0-80.8-36.25-80.8-80.8v-58.67c0-44.55 36.25-80.8 80.8-80.8h454.9c44.55 0 80.8 36.25 80.8 80.8v58.67c0 44.55-36.25 80.8-80.8 80.8Zm-454.9-216.26c-42.34 0-76.8 34.45-76.8 76.8v58.66c0 42.35 34.46 76.8 76.8 76.8h454.9c42.35 0 76.8-34.45 76.8-76.8v-58.67c0-42.34-34.45-76.8-76.8-76.8Z"/><path fill="#ffd829" d="M331.35 431.7v-51.96a21.37 21.37 0 1 0-42.75 0v51.97a21.38 21.38 0 0 0 42.75 0Z"/><path d="M309.98 455.08a23.4 23.4 0 0 1-23.38-23.37v-51.97a23.4 23.4 0 0 1 23.38-23.38 23.4 23.4 0 0 1 23.37 23.38v51.97a23.4 23.4 0 0 1-23.37 23.37Zm0-94.72a19.4 19.4 0 0 0-19.38 19.38v51.97a19.4 19.4 0 0 0 19.38 19.37 19.4 19.4 0 0 0 19.37-19.37v-51.97a19.4 19.4 0 0 0-19.37-19.38Z"/><path fill="#fff" d="M1278.47 749.57H121.53a2 2 0 0 1-2-2V100.01c0-1.1.9-2 2-2h1156.94a2 2 0 0 1 2 2v647.56a2 2 0 0 1-2 2Zm-1154.94-4h1152.94V102.01H123.53Z"/><g fill="#fff"><path d="M121.53 100h1156.94v61.5H121.53Z"/><path d="M1278.47 163.5H121.53a2 2 0 0 1-2-2V100c0-1.1.9-2 2-2h1156.94a2 2 0 0 1 2 2v61.5a2 2 0 0 1-2 2Zm-1154.94-4h1152.94V102H123.53Z"/></g><path d="M168.48 130.75a15.65 15.65 0 1 1-31.3 0 15.65 15.65 0 0 1 31.3 0Z"/><path fill="#ffd829" d="M211.5 130.75a15.65 15.65 0 1 1-31.29 0 15.65 15.65 0 0 1 31.3 0Zm42.48 0a15.65 15.65 0 1 1-31.3 0 15.65 15.65 0 0 1 31.3 0Zm861.75 300.95v-51.96a21.37 21.37 0 1 0-42.75 0v51.97a21.38 21.38 0 0 0 42.75 0Z"/><path d="M1094.36 455.08a23.4 23.4 0 0 1-23.38-23.37v-51.97a23.4 23.4 0 0 1 23.38-23.38 23.4 23.4 0 0 1 23.37 23.38v51.97a23.4 23.4 0 0 1-23.37 23.37Zm0-94.72a19.4 19.4 0 0 0-19.38 19.38v51.97a19.4 19.4 0 0 0 19.38 19.37 19.4 19.4 0 0 0 19.37-19.37v-51.97a19.4 19.4 0 0 0-19.37-19.38Z"/><path d="M1097.82 587.99a42.75 42.75 0 0 1-42.75 42.75H352.73a42.75 42.75 0 0 1-42.75-42.75V399.44a42.75 42.75 0 0 1 42.75-42.76h702.34a42.75 42.75 0 0 1 42.75 42.76Z"/><path d="M421.73 451.49a71.3 71.3 0 0 1 11.6-1.7c4.16-.28 8.26-.42 12.32-.42 4.34 0 8.75.42 13.23 1.27 4.48.85 8.56 2.4 12.24 4.67a26.28 26.28 0 0 1 8.98 9.34c2.31 3.96 3.47 9.01 3.47 15.14 0 6.04-1.08 11.13-3.25 15.28a28.64 28.64 0 0 1-8.64 10.12 34.94 34.94 0 0 1-12.3 5.6 59.93 59.93 0 0 1-14.3 1.69h-2.33a81.67 81.67 0 0 1-6.87-.28 23.4 23.4 0 0 1-2.4-.29v37.64h-11.75V451.5Zm24.25 8.07c-2.47 0-4.83.04-7.1.14-2.28.1-4.08.33-5.4.7v41.04c.47.2 1.23.3 2.27.36l3.27.14c1.13.05 2.22.07 3.27.07h2.27c3.22 0 6.41-.3 9.58-.92a24.88 24.88 0 0 0 8.6-3.33 17.6 17.6 0 0 0 6.18-6.79c1.56-2.92 2.34-6.65 2.34-11.18 0-3.87-.73-7.1-2.2-9.7a17.58 17.58 0 0 0-5.82-6.22 24.6 24.6 0 0 0-8.17-3.32c-3.03-.66-6.06-1-9.1-1Zm111.6-9.06h11.18v66.08c0 5.94-.78 11.09-2.33 15.43a27.96 27.96 0 0 1-6.57 10.68 25.86 25.86 0 0 1-10.3 6.16 43.1 43.1 0 0 1-13.42 1.98c-11.68 0-20.46-2.64-26.34-7.93-5.88-5.28-8.82-13.3-8.82-24.05V450.5h11.74v62.83c0 5 .5 9.22 1.49 12.66.99 3.45 2.45 6.23 4.38 8.35a16.47 16.47 0 0 0 7.36 4.6c2.97.94 6.44 1.41 10.4 1.41 7.64 0 13.09-2.1 16.35-6.3 3.25-4.19 4.88-11.1 4.88-20.72Zm41.03 85.04a47.3 47.3 0 0 0 9.55 3.75c3.54 1 7.1 1.49 10.69 1.49 3.11 0 6.03-.3 8.77-.92 2.74-.61 5.12-1.6 7.15-2.97a15.27 15.27 0 0 0 4.8-5.17 14.65 14.65 0 0 0 1.78-7.36c0-3.86-1.3-7.02-3.9-9.48a38.75 38.75 0 0 0-9.69-6.5 179.91 179.91 0 0 0-12.6-5.52 74.63 74.63 0 0 1-12.58-6.37 35.27 35.27 0 0 1-9.7-8.99c-2.6-3.54-3.89-8.04-3.89-13.51 0-3.87.78-7.36 2.34-10.47a22.65 22.65 0 0 1 6.57-7.93 31.07 31.07 0 0 1 10.26-5.02 47.3 47.3 0 0 1 13.38-1.77c5.66 0 10.8.4 15.42 1.2 4.62.8 8.3 1.87 11.04 3.19l.28-.14v.28h.14l-.14.42v22.64h-10.47v-15.14a77.62 77.62 0 0 0-7.78-1.41 69.02 69.02 0 0 0-9.06-.57c-3.11 0-5.92.38-8.42 1.13-2.5.76-4.62 1.77-6.37 3.05a13.8 13.8 0 0 0-4.03 4.45 10.9 10.9 0 0 0-1.41 5.38c0 3.68 1.3 6.75 3.89 9.2a39.98 39.98 0 0 0 9.69 6.58c3.87 1.93 8.07 3.84 12.6 5.73a79.63 79.63 0 0 1 12.59 6.58 37.1 37.1 0 0 1 9.7 8.98c2.58 3.5 3.88 7.84 3.88 13.02 0 4.25-.77 8.07-2.33 11.47a25.2 25.2 0 0 1-6.65 8.77 29.98 29.98 0 0 1-10.61 5.66 47.35 47.35 0 0 1-14.23 1.98c-3.58 0-6.98-.28-10.18-.85a69.39 69.39 0 0 1-16.07-4.81 75.52 75.52 0 0 1-5.02-2.4l.14-.43v-22.92h10.48v15.7Zm128.35-31.41h-44.44v45.42h-11.74V450.5h11.74v43.16h44.44V450.5h11.74v99.05h-11.74Zm169.8-20.38 1.42-13.44h-.71l-6.8 12.17-14.43 24.2h-3.53l-15.15-24.34-6.5-12.03h-.71l1.7 13.3v65.94h-11.47V450.5h10.9l23.49 37.64h.28l22.64-37.64h10.61v99.05h-11.74v-65.8Zm35.38-33.25h58.15v10.47h-46.4v32.4h42.87v10.48h-42.88v35.23H991v10.47h-58.86Z" fill="#fff"/><path fill="#ffd829" d="M348.96 488.29c0-11.8-9.57-21.38-21.38-21.38a21.38 21.38 0 0 0 0-42.75h-35.2a21.38 21.38 0 1 0 0 42.75 21.37 21.37 0 0 0-1.8 42.67 21.37 21.37 0 0 0 1.8 42.67 21.38 21.38 0 0 0 0 42.75h35.2a21.37 21.37 0 0 0 0-42.75 21.37 21.37 0 0 0 1.8-42.67 21.37 21.37 0 0 0 19.58-21.3Z"/><path d="M327.58 597h-35.2A23.4 23.4 0 0 1 269 573.63a23.4 23.4 0 0 1 13.92-21.38A23.41 23.41 0 0 1 269 530.88c0-9.35 5.65-17.6 13.78-21.3a23.53 23.53 0 0 1-13.78-21.3 23.4 23.4 0 0 1 13.92-21.37A23.41 23.41 0 0 1 269 445.54a23.4 23.4 0 0 1 23.38-23.38h35.2a23.4 23.4 0 0 1 23.38 23.38c0 9.52-5.73 17.73-13.92 21.37a23.41 23.41 0 0 1 13.92 21.38c0 9.34-5.65 17.59-13.78 21.3a23.53 23.53 0 0 1 13.78 21.29c0 9.52-5.73 17.73-13.92 21.37a23.41 23.41 0 0 1 13.92 21.38A23.4 23.4 0 0 1 327.58 597Zm-33.2-44.75a2 2 0 0 1-2 2A19.4 19.4 0 0 0 273 573.63 19.4 19.4 0 0 0 292.38 593h35.2a19.4 19.4 0 0 0 19.38-19.38 19.4 19.4 0 0 0-19.38-19.38 2 2 0 0 1 0-4 19.4 19.4 0 0 0 19.38-19.37c0-10-7.8-18.47-17.75-19.3a2 2 0 0 1 0-3.99 19.48 19.48 0 0 0 17.75-19.3 19.4 19.4 0 0 0-19.38-19.38 2 2 0 0 1 0-4 19.4 19.4 0 0 0 19.38-19.37 19.4 19.4 0 0 0-19.38-19.38h-35.2A19.4 19.4 0 0 0 273 445.54a19.4 19.4 0 0 0 19.38 19.37 2 2 0 0 1 0 4A19.4 19.4 0 0 0 273 488.3c0 10 7.8 18.47 17.75 19.3a2 2 0 0 1 0 3.99 19.47 19.47 0 0 0-17.75 19.3 19.4 19.4 0 0 0 19.38 19.37 2 2 0 0 1 2 2Z"/><path fill="#ffd829" d="M1123.7 488.29c0-11.8-9.57-21.38-21.38-21.38a21.38 21.38 0 0 0 0-42.75h-35.2a21.37 21.37 0 1 0 0 42.75 21.37 21.37 0 0 0-1.8 42.67 21.37 21.37 0 0 0 1.8 42.67 21.38 21.38 0 0 0 0 42.75h35.2a21.37 21.37 0 0 0 0-42.75 21.37 21.37 0 0 0 1.8-42.67 21.37 21.37 0 0 0 19.58-21.3Z"/><path d="M1102.32 597h-35.2a23.4 23.4 0 0 1-23.38-23.37 23.4 23.4 0 0 1 13.91-21.38 23.41 23.41 0 0 1-13.91-21.37c0-9.35 5.65-17.6 13.78-21.3a23.53 23.53 0 0 1-13.78-21.3c0-9.51 5.72-17.73 13.91-21.37a23.41 23.41 0 0 1-13.91-21.37 23.4 23.4 0 0 1 23.37-23.38h35.21a23.4 23.4 0 0 1 23.38 23.38c0 9.52-5.73 17.73-13.92 21.37a23.41 23.41 0 0 1 13.91 21.38c0 9.34-5.64 17.59-13.77 21.3a23.53 23.53 0 0 1 13.77 21.29 23.4 23.4 0 0 1-13.91 21.37 23.41 23.41 0 0 1 13.91 21.38 23.4 23.4 0 0 1-23.37 23.38Zm-33.2-44.75a2 2 0 0 1-2 2 19.4 19.4 0 0 0-19.38 19.38A19.4 19.4 0 0 0 1067.1 593h35.21a19.4 19.4 0 0 0 19.38-19.38 19.4 19.4 0 0 0-19.38-19.38 2 2 0 0 1 0-4 19.4 19.4 0 0 0 19.38-19.37c0-10-7.8-18.47-17.75-19.3a2 2 0 0 1 0-3.99 19.48 19.48 0 0 0 17.74-19.3 19.4 19.4 0 0 0-19.37-19.38 2 2 0 0 1 0-4 19.4 19.4 0 0 0 19.38-19.37 19.4 19.4 0 0 0-19.38-19.38h-35.2a19.4 19.4 0 0 0-19.38 19.38 19.4 19.4 0 0 0 19.37 19.37 2 2 0 0 1 0 4 19.4 19.4 0 0 0-19.37 19.38c0 10 7.8 18.47 17.75 19.3a2 2 0 0 1 0 3.99 19.47 19.47 0 0 0-17.75 19.3 19.4 19.4 0 0 0 19.37 19.37 2 2 0 0 1 2 2Z"/><path fill="#ffd829" d="M825.45 130.55c-1.6 0-3.2.1-4.75.27-14.57-50.3-60.97-87.08-115.96-87.08-55 0-101.4 36.78-115.96 87.08a41.91 41.91 0 1 0 5.47 82.29c18.72 42.43 61.14 72.04 110.49 72.04 49.35 0 91.77-29.61 110.49-72.04a41.91 41.91 0 1 0 10.22-82.56Z"/><path d="M704.74 287.15c-48.05 0-91.7-28.1-111.64-71.72a43.96 43.96 0 0 1-52.98-42.97 43.96 43.96 0 0 1 47.21-43.78 123.68 123.68 0 0 1 43.05-61.86 121.58 121.58 0 0 1 74.36-25.08c27.13 0 52.84 8.67 74.35 25.09a123.69 123.69 0 0 1 43.05 61.85 43.96 43.96 0 0 1 47.22 43.78 43.96 43.96 0 0 1-52.98 42.97 122.82 122.82 0 0 1-111.64 71.72ZM595.4 210.76l.68 1.54a118.82 118.82 0 0 0 108.66 70.85c47.02 0 89.67-27.8 108.66-70.85l.68-1.54 1.63.41a39.96 39.96 0 0 0 49.65-38.71 39.96 39.96 0 0 0-44.44-39.65l-1.68.19-.47-1.62c-7-24.2-21.96-46-42.1-61.37a117.61 117.61 0 0 0-71.93-24.27A117.6 117.6 0 0 0 632.81 70a119.6 119.6 0 0 0-42.1 61.37l-.48 1.62-1.67-.19a39.96 39.96 0 0 0-44.44 39.65 39.96 39.96 0 0 0 49.65 38.71Z"/><path fill="#ddf6c5" d="m562.8 161.37 25.7 27.94"/><path d="M588.5 191.31a2 2 0 0 1-1.47-.64l-25.7-27.94a2 2 0 1 1 2.94-2.71l25.7 27.94a2 2 0 0 1-1.47 3.35Z"/><path fill="#ddf6c5" d="m841.67 161.37-25.7 27.94"/><path d="M815.97 191.31a2 2 0 0 1-1.48-3.35l25.71-27.94a2 2 0 1 1 2.94 2.7l-25.7 27.95a2 2 0 0 1-1.48.64Zm69.01-134.72a56.16 56.16 0 1 1-112.32 0 56.16 56.16 0 0 1 112.32 0Zm-243.93 0a56.16 56.16 0 1 1-112.32 0 56.16 56.16 0 0 1 112.32 0Zm25.78 120.67a15.93 15.93 0 1 1-31.85 0 15.93 15.93 0 0 1 31.85 0Z"/><path d="M682.85 181.9a2 2 0 0 1-1.65-.87 36.58 36.58 0 0 0-60.31 0 2 2 0 1 1-3.3-2.27 40.58 40.58 0 0 1 66.91 0 2 2 0 0 1-1.65 3.13Zm87.92-4.64a15.93 15.93 0 1 1-31.85 0 15.93 15.93 0 0 1 31.86 0Z"/><path d="M786.8 181.9a2 2 0 0 1-1.65-.87 36.58 36.58 0 0 0-60.32 0 2 2 0 0 1-3.3-2.27 40.58 40.58 0 0 1 66.91 0 2 2 0 0 1-1.64 3.13Z"/><path fill="#ddf6c5" d="M703.9 177.38v23.19"/><path d="M703.9 202.57a2 2 0 0 1-2-2v-23.19a2 2 0 0 1 4 0v23.19a2 2 0 0 1-2 2Z"/><path fill="#fff" d="M744.7 213.9a40.8 40.8 0 0 1-81.6 0m41.8 110.71-42.17 31.98-41.87-31.98Zm80.51 0-40.99 31.98-39.52-31.98Zm-546.73 83.11c-.36 0-.73-.1-1.06-.3L71.96 303.14a2 2 0 1 1 2.13-3.39l165.66 104.27a2 2 0 0 1-1.07 3.7ZM73.03 649.14a2 2 0 0 1-1.07-3.7l165.66-104.26a2 2 0 1 1 2.13 3.39L74.09 648.83c-.33.2-.7.3-1.06.3ZM238.68 476.3H86.12a2 2 0 0 1 0-4h152.56a2 2 0 0 1 0 4Zm-181.48 0H2.12a2 2 0 0 1 0-4h55.06a2 2 0 0 1 0 4Zm1098.96-68.58a2 2 0 0 1-1.06-3.7l165.66-104.26a2 2 0 0 1 2.13 3.39L1157.23 407.4c-.33.21-.7.31-1.07.31Zm165.66 241.42c-.37 0-.73-.1-1.06-.31L1155.1 544.56a2 2 0 1 1 2.13-3.38l165.66 104.27a2 2 0 0 1-1.07 3.69Zm-13.1-172.84h-152.56a2 2 0 0 1 0-4h152.56a2 2 0 0 1 0 4Zm84 0h-55.07a2 2 0 0 1 0-4h55.07a2 2 0 0 1 0 4Z"/><path fill="none" d="M705.7 47.04c-9.18 49.42-52.51 86.84-104.59 86.84-8.28 0-16.35-.95-24.09-2.74a41.92 41.92 0 1 0 17.23 81.97c18.72 42.42 61.14 72.04 110.49 72.04 49.35 0 91.77-29.61 110.49-72.04a41.91 41.91 0 1 0 18.3-81.78 106.7 106.7 0 0 1-23.24 2.55c-52.08 0-95.41-37.42-104.59-86.84Z"/><path d="M705.7 47.04c-.2-1.1-.4-2.19-.56-3.3h-.4c-55 0-101.4 36.78-115.96 87.08a42.36 42.36 0 0 0-11.76.32c7.74 1.8 15.8 2.74 24.1 2.74 52.07 0 95.4-37.42 104.58-86.84Z"/><path d="M820.7 130.82c-14.43-49.84-60.11-86.38-114.44-87.05-.17 1.1-.36 2.19-.56 3.27 9.18 49.42 52.51 86.84 104.59 86.84 7.98 0 15.75-.88 23.23-2.55a42.07 42.07 0 0 0-12.82-.5Z"/><path d="M705.7 47.04c.2-1.08.4-2.17.56-3.27l-1.12-.02c.16 1.1.36 2.2.56 3.3Z"/></svg>