<?xml version="1.0" encoding="utf-8"?>
<!-- Generator: Adobe Illustrator 16.0.0, SVG Export Plug-In . SVG Version: 6.00 Build 0)  -->
<!DOCTYPE svg PUBLIC "-//W3C//DTD SVG 1.1//EN" "http://www.w3.org/Graphics/SVG/1.1/DTD/svg11.dtd">
<svg version="1.1" id="Layer_1" xmlns="http://www.w3.org/2000/svg" xmlns:xlink="http://www.w3.org/1999/xlink" x="0px" y="0px"
	 width="1080px" height="1080px" viewBox="0 0 1080 1080" enable-background="new 0 0 1080 1080" xml:space="preserve">
<g>
	<g>
		<g>
			<polyline fill="#FFD829" points="795.917,863.513 700.377,759.442 549.763,759.442 543.305,759.442 392.688,759.442 
				297.148,863.513 			"/>
			<polygon points="794.443,864.865 699.498,761.442 393.567,761.442 298.622,864.865 295.675,862.16 391.81,757.442 
				701.256,757.442 797.391,862.16 			"/>
		</g>
		<g>
			<line fill="none" x1="471.496" y1="759.442" x2="412.062" y2="863.513"/>
			
				<rect x="439.792" y="751.506" transform="matrix(-0.8682 -0.4961 0.4961 -0.8682 422.7943 1735.1296)" width="4" height="119.839"/>
		</g>
		<g>
			<line fill="none" x1="618.404" y1="759.442" x2="677.837" y2="863.513"/>
			
				<rect x="588.167" y="809.486" transform="matrix(-0.4959 -0.8684 0.8684 -0.4959 264.7948 1776.6879)" width="119.847" height="4"/>
		</g>
		<g>
			<rect x="541.305" y="759.442" width="4" height="104.069"/>
		</g>
	</g>
	<g>
		<g>
			<path fill="#FFFFFF" d="M967.619,865.513H112.381c-1.104,0-2-0.896-2-2V278.024c0-1.104,0.896-2,2-2h855.238c1.104,0,2,0.896,2,2
				v585.488C969.619,864.617,968.724,865.513,967.619,865.513z M114.381,861.513h851.238V280.024H114.381V861.513z"/>
		</g>
		<g>
			<rect x="112.381" y="278.024" fill="#FFFFFF" width="855.238" height="55.591"/>
			<path fill="#FFFFFF" d="M967.619,335.615H112.381c-1.104,0-2-0.896-2-2v-55.591c0-1.104,0.896-2,2-2h855.238c1.104,0,2,0.896,2,2
				v55.591C969.619,334.72,968.724,335.615,967.619,335.615z M114.381,331.615h851.238v-51.591H114.381V331.615z"/>
		</g>
		<g>
			<circle cx="140.676" cy="305.819" r="14.147"/>
		</g>
		<g>
			<circle fill="#FFD829" cx="179.581" cy="305.819" r="14.148"/>
		</g>
		<g>
			<circle fill="#FFD829" cx="217.981" cy="305.819" r="14.146"/>
		</g>
	</g>
	<g>
		<g>
			<g>
				<rect x="510.35" y="431.767" fill="#FFD829" width="70.646" height="72.942"/>
				<path d="M582.996,506.709H508.35v-76.942h74.646V506.709L582.996,506.709z M512.35,502.709h66.646v-68.942H512.35V502.709z"/>
			</g>
			<g>
				<path fill="#FFD829" d="M810.844,613.938c0,37.681-30.545,68.228-68.228,68.228H348.732c-37.684,0-68.229-30.547-68.229-68.228
					v-50.8c0-37.683,30.546-68.229,68.229-68.229h393.884c37.683,0,68.228,30.546,68.228,68.229V613.938z"/>
				<path d="M742.616,684.165H348.732c-38.725,0-70.229-31.504-70.229-70.228v-50.8c0-38.724,31.505-70.229,70.229-70.229h393.884
					c38.724,0,70.228,31.504,70.228,70.229v50.8C812.844,652.661,781.34,684.165,742.616,684.165z M348.732,496.91
					c-36.52,0-66.229,29.71-66.229,66.229v50.801c0,36.518,29.71,66.227,66.229,66.227h393.884
					c36.518,0,66.228-29.709,66.228-66.227v-50.801c0-36.519-29.71-66.229-66.228-66.229H348.732L348.732,496.91z"/>
			</g>
			<g>
				<path fill="#FFD829" d="M223.093,589.925v-45.001c0-10.223-8.286-18.51-18.508-18.51c-10.222,0-18.508,8.287-18.508,18.51
					v45.001c0,10.222,8.286,18.51,18.508,18.51C214.807,608.435,223.093,600.146,223.093,589.925z"/>
				<path d="M204.585,610.435c-11.308,0-20.508-9.199-20.508-20.51v-45.001c0-11.309,9.2-20.51,20.508-20.51
					s20.508,9.201,20.508,20.51v45.001C225.093,601.234,215.893,610.435,204.585,610.435z M204.585,528.414
					c-9.103,0-16.508,7.406-16.508,16.51v45.001c0,9.104,7.405,16.51,16.508,16.51s16.508-7.405,16.508-16.51v-45.001
					C221.093,535.82,213.688,528.414,204.585,528.414z"/>
			</g>
			<g>
				<path fill="#FFD829" d="M902.27,589.925v-45.001c0-10.223-8.284-18.51-18.508-18.51c-10.221,0-18.509,8.287-18.509,18.51v45.001
					c0,10.222,8.288,18.51,18.509,18.51C893.984,608.435,902.27,600.146,902.27,589.925z"/>
				<path d="M883.762,610.435c-11.309,0-20.509-9.199-20.509-20.51v-45.001c0-11.309,9.2-20.51,20.509-20.51
					s20.508,9.201,20.508,20.51v45.001C904.27,601.234,895.069,610.435,883.762,610.435z M883.762,528.414
					c-9.103,0-16.509,7.406-16.509,16.51v45.001c0,9.104,7.406,16.51,16.509,16.51c9.104,0,16.508-7.405,16.508-16.51v-45.001
					C900.27,535.82,892.864,528.414,883.762,528.414z"/>
			</g>
			<g>
				<path d="M886.762,725.245c0,20.444-16.574,37.015-37.018,37.015H241.601c-20.443,0-37.016-16.569-37.016-37.015V561.981
					c0-20.446,16.572-37.021,37.016-37.021h608.144c20.442,0,37.018,16.573,37.018,37.021L886.762,725.245L886.762,725.245z"/>
			</g>
			<g>
				<path fill="#FFFFFF" d="M301.348,607.053c3.104-0.734,6.451-1.226,10.047-1.471c3.594-0.245,7.146-0.367,10.66-0.367
					c3.756,0,7.575,0.367,11.456,1.104c3.879,0.734,7.413,2.083,10.599,4.043c3.186,1.961,5.778,4.655,7.78,8.087
					c2.001,3.431,3.002,7.802,3.002,13.109c0,5.229-0.939,9.641-2.818,13.233c-1.88,3.596-4.37,6.515-7.474,8.761
					c-3.105,2.247-6.658,3.859-10.66,4.84c-4.003,0.98-8.129,1.471-12.375,1.471c-0.41,0-1.084,0-2.021,0
					c-0.94,0-1.921-0.02-2.94-0.062c-1.022-0.04-2.022-0.102-3.002-0.185c-0.98-0.08-1.676-0.162-2.083-0.244v32.592h-10.17
					L301.348,607.053L301.348,607.053z M322.34,614.036c-2.133,0-4.182,0.043-6.149,0.123c-1.968,0.082-3.526,0.287-4.673,0.612
					v35.532c0.409,0.165,1.064,0.267,1.966,0.308c0.901,0.042,1.846,0.082,2.83,0.122c0.983,0.042,1.926,0.062,2.829,0.062
					c0.901,0,1.559,0,1.968,0c2.788,0,5.555-0.265,8.302-0.797c2.745-0.53,5.227-1.489,7.439-2.879
					c2.213-1.389,3.997-3.35,5.351-5.882c1.353-2.53,2.03-5.759,2.03-9.681c0-3.348-0.636-6.146-1.907-8.393
					c-1.271-2.246-2.952-4.044-5.043-5.393c-2.091-1.348-4.449-2.307-7.072-2.879C327.588,614.323,324.963,614.036,322.34,614.036z"
					/>
				<path fill="#FFFFFF" d="M418.973,606.194h9.681v57.221c0,5.146-0.675,9.6-2.019,13.354c-1.346,3.759-3.241,6.844-5.687,9.251
					c-2.446,2.41-5.422,4.188-8.925,5.33c-3.507,1.144-7.377,1.716-11.615,1.716c-10.108,0-17.711-2.286-22.806-6.861
					c-5.095-4.573-7.641-11.519-7.641-20.83v-59.181h10.17v54.401c0,4.331,0.429,7.985,1.286,10.967
					c0.858,2.982,2.123,5.392,3.799,7.229c1.673,1.838,3.798,3.167,6.371,3.981c2.573,0.817,5.575,1.227,9.006,1.227
					c6.616,0,11.334-1.817,14.152-5.453c2.817-3.634,4.227-9.618,4.227-17.95L418.973,606.194L418.973,606.194z"/>
				<path fill="#FFFFFF" d="M454.504,679.834c2.451,1.308,5.208,2.389,8.271,3.247c3.062,0.856,6.146,1.286,9.251,1.286
					c2.694,0,5.227-0.266,7.597-0.797c2.368-0.53,4.431-1.389,6.188-2.572s3.145-2.675,4.166-4.473
					c1.021-1.797,1.531-3.922,1.531-6.371c0-3.35-1.123-6.085-3.369-8.21c-2.247-2.123-5.045-4.001-8.393-5.637
					c-3.352-1.633-6.984-3.226-10.905-4.777s-7.557-3.39-10.905-5.515c-3.35-2.124-6.146-4.718-8.393-7.78
					c-2.248-3.062-3.37-6.964-3.37-11.701c0-3.35,0.674-6.371,2.022-9.066c1.348-2.695,3.246-4.981,5.696-6.861
					c2.45-1.878,5.41-3.327,8.884-4.351c3.472-1.021,7.33-1.531,11.578-1.531c4.901,0,9.354,0.35,13.355,1.041
					c4.001,0.695,7.188,1.614,9.557,2.758l0.245-0.122v0.245h0.123l-0.123,0.366v19.604h-9.065v-13.11
					c-2.043-0.489-4.289-0.896-6.739-1.226c-2.45-0.325-5.065-0.489-7.842-0.489c-2.695,0-5.127,0.327-7.29,0.979
					c-2.165,0.654-4.004,1.531-5.515,2.635c-1.513,1.103-2.677,2.389-3.491,3.858c-0.817,1.472-1.227,3.023-1.227,4.656
					c0,3.187,1.122,5.841,3.37,7.964c2.245,2.125,5.042,4.024,8.394,5.697c3.349,1.676,6.983,3.33,10.904,4.963
					c3.921,1.635,7.555,3.534,10.904,5.697c3.349,2.165,6.146,4.76,8.394,7.78c2.246,3.022,3.369,6.78,3.369,11.271
					c0,3.676-0.674,6.984-2.021,9.925c-1.349,2.941-3.269,5.475-5.76,7.598c-2.491,2.125-5.556,3.759-9.188,4.9
					c-3.636,1.144-7.74,1.717-12.314,1.717c-3.104,0-6.046-0.245-8.82-0.735c-2.778-0.49-5.33-1.104-7.658-1.838
					c-2.328-0.735-4.411-1.511-6.249-2.328c-1.838-0.815-3.289-1.511-4.35-2.083l0.122-0.367v-19.85h9.066L454.504,679.834
					L454.504,679.834z"/>
				<path fill="#FFFFFF" d="M565.636,652.633h-38.474v39.331h-10.17v-85.77h10.17v37.37h38.474v-37.37h10.17v85.77h-10.17V652.633z"
					/>
				<path fill="#FFFFFF" d="M712.666,634.988l1.225-11.641h-0.611l-5.881,10.537L694.9,654.837h-3.063l-13.11-21.074l-5.636-10.415
					h-0.612l1.471,11.519v57.098h-9.925v-85.77h9.435l20.34,32.593h0.245l19.604-32.593h9.188v85.77h-10.17L712.666,634.988
					L712.666,634.988z"/>
				<path fill="#FFFFFF" d="M743.296,606.194h50.358v9.066h-40.188v28.06h37.126v9.066h-37.126v30.51h40.802v9.066h-50.972V606.194
					L743.296,606.194z"/>
			</g>
			<g>
				<path fill="#FFD829" d="M238.334,638.917c0-10.223-8.286-18.508-18.506-18.508c10.22,0,18.506-8.287,18.506-18.509
					c0-10.223-8.286-18.51-18.506-18.51h-30.484c-10.224,0-18.51,8.287-18.51,18.51c0,10.222,8.286,18.509,18.51,18.509
					c-10.224,0-18.51,8.285-18.51,18.508c0,9.699,7.459,17.649,16.954,18.44c-9.495,0.789-16.954,8.738-16.954,18.438
					c0,10.224,8.286,18.508,18.51,18.508c-10.224,0-18.51,8.289-18.51,18.508c0,10.224,8.286,18.512,18.51,18.512h30.484
					c10.22,0,18.506-8.288,18.506-18.512c0-10.219-8.286-18.508-18.506-18.508c10.22,0,18.506-8.284,18.506-18.508
					c0-9.698-7.459-17.646-16.953-18.438C230.875,656.566,238.334,648.616,238.334,638.917z"/>
				<path d="M219.828,733.321h-30.484c-11.31,0-20.51-9.201-20.51-20.512c0-8.147,4.777-15.201,11.679-18.508
					c-6.901-3.306-11.679-10.358-11.679-18.508c0-7.999,4.718-15.08,11.572-18.438c-6.855-3.358-11.572-10.44-11.572-18.44
					c0-8.148,4.777-15.202,11.679-18.508c-6.901-3.307-11.679-10.36-11.679-18.509c0-11.31,9.2-20.51,20.51-20.51h30.484
					c11.307,0,20.506,9.2,20.506,20.51c0,8.147-4.776,15.202-11.677,18.509c6.9,3.306,11.677,10.358,11.677,18.508
					c0,8-4.717,15.082-11.572,18.44c6.854,3.356,11.572,10.438,11.572,18.438c0,8.148-4.776,15.202-11.677,18.508
					c6.9,3.307,11.677,10.359,11.677,18.508C240.334,724.12,231.135,733.321,219.828,733.321z M191.344,694.303c0,1.104-0.896,2-2,2
					c-9.104,0-16.51,7.405-16.51,16.508c0,9.104,7.406,16.512,16.51,16.512h30.484c9.102,0,16.506-7.406,16.506-16.512
					c0-9.103-7.404-16.508-16.506-16.508c-1.104,0-2-0.896-2-2c0-1.104,0.896-2,2-2c9.102,0,16.506-7.404,16.506-16.508
					c0-8.516-6.641-15.739-15.119-16.444c-1.036-0.086-1.834-0.952-1.834-1.992s0.797-1.906,1.834-1.993
					c8.478-0.706,15.119-7.932,15.119-16.447c0-9.104-7.404-16.508-16.506-16.508c-1.104,0-2-0.896-2-2c0-1.104,0.896-2,2-2
					c9.102,0,16.506-7.406,16.506-16.509c0-9.104-7.404-16.51-16.506-16.51h-30.484c-9.104,0-16.51,7.406-16.51,16.51
					c0,9.103,7.406,16.509,16.51,16.509c1.104,0,2,0.896,2,2c0,1.104-0.896,2-2,2c-9.104,0-16.51,7.405-16.51,16.508
					c0,8.517,6.642,15.741,15.12,16.447c1.037,0.087,1.834,0.953,1.834,1.993s-0.798,1.906-1.834,1.992
					c-8.479,0.705-15.12,7.93-15.12,16.444c0,9.104,7.406,16.508,16.51,16.508C190.448,692.303,191.344,693.198,191.344,694.303z"/>
			</g>
			<g>
				<path fill="#FFD829" d="M909.166,638.917c0-10.223-8.288-18.508-18.508-18.508c10.22,0,18.508-8.287,18.508-18.509
					c0-10.223-8.288-18.51-18.508-18.51h-30.485c-10.224,0-18.508,8.287-18.508,18.51c0,10.222,8.284,18.509,18.508,18.509
					c-10.224,0-18.508,8.285-18.508,18.508c0,9.699,7.46,17.649,16.955,18.44c-9.495,0.789-16.955,8.738-16.955,18.438
					c0,10.224,8.284,18.508,18.508,18.508c-10.224,0-18.508,8.289-18.508,18.508c0,10.224,8.284,18.512,18.508,18.512h30.485
					c10.22,0,18.508-8.288,18.508-18.512c0-10.219-8.288-18.508-18.508-18.508c10.22,0,18.508-8.284,18.508-18.508
					c0-9.698-7.461-17.646-16.954-18.438C901.705,656.566,909.166,648.616,909.166,638.917z"/>
				<path d="M890.658,733.321h-30.485c-11.308,0-20.508-9.201-20.508-20.512c0-8.147,4.777-15.201,11.678-18.508
					c-6.899-3.306-11.678-10.358-11.678-18.508c0-7.999,4.719-15.08,11.573-18.438c-6.855-3.358-11.573-10.44-11.573-18.44
					c0-8.148,4.777-15.202,11.678-18.508c-6.899-3.307-11.678-10.36-11.678-18.509c0-11.31,9.2-20.51,20.508-20.51h30.485
					c11.308,0,20.508,9.2,20.508,20.51c0,8.147-4.777,15.202-11.678,18.509c6.899,3.306,11.678,10.358,11.678,18.508
					c0,8-4.718,15.082-11.573,18.44c6.855,3.356,11.573,10.438,11.573,18.438c0,8.148-4.777,15.202-11.678,18.508
					c6.899,3.307,11.678,10.359,11.678,18.508C911.166,724.12,901.966,733.321,890.658,733.321z M862.173,694.303
					c0,1.104-0.896,2-2,2c-9.103,0-16.508,7.405-16.508,16.508c0,9.104,7.405,16.512,16.508,16.512h30.485
					c9.103,0,16.508-7.406,16.508-16.512c0-9.103-7.405-16.508-16.508-16.508c-1.104,0-2-0.896-2-2c0-1.104,0.896-2,2-2
					c9.103,0,16.508-7.404,16.508-16.508c0-8.516-6.643-15.739-15.12-16.444c-1.036-0.086-1.834-0.952-1.834-1.992
					s0.797-1.906,1.834-1.993c8.479-0.706,15.12-7.932,15.12-16.447c0-9.104-7.405-16.508-16.508-16.508c-1.104,0-2-0.896-2-2
					c0-1.104,0.896-2,2-2c9.103,0,16.508-7.406,16.508-16.509c0-9.104-7.405-16.51-16.508-16.51h-30.485
					c-9.103,0-16.508,7.406-16.508,16.51c0,9.103,7.405,16.509,16.508,16.509c1.104,0,2,0.896,2,2c0,1.104-0.896,2-2,2
					c-9.103,0-16.508,7.405-16.508,16.508c0,8.517,6.642,15.741,15.121,16.447c1.037,0.087,1.834,0.953,1.834,1.993
					s-0.798,1.906-1.834,1.992c-8.479,0.705-15.121,7.93-15.121,16.444c0,9.104,7.405,16.508,16.508,16.508
					C861.277,692.303,862.173,693.198,862.173,694.303z"/>
			</g>
			<g>
				<g>
					<g id="XMLID_1_">
						<path fill="#FFD829" d="M650.919,329.155c-1.392,0-2.763,0.087-4.114,0.239c-12.61-43.559-52.785-75.406-100.403-75.406
							c-47.62,0-87.798,31.849-100.406,75.406c-1.352-0.152-2.722-0.239-4.112-0.239c-20.045,0-36.292,16.249-36.292,36.291
							c0,20.045,16.247,36.292,36.292,36.292c3.053,0,6.017-0.382,8.85-1.093c16.203,36.734,52.938,62.381,95.67,62.381
							c42.729,0,79.463-25.646,95.666-62.381c2.834,0.71,5.798,1.093,8.853,1.093c20.043,0,36.291-16.247,36.291-36.292
							C687.21,345.404,670.962,329.155,650.919,329.155z"/>
						<path d="M546.4,465.026c-41.644,0-79.465-24.308-96.822-62.067c-2.53,0.518-5.112,0.779-7.696,0.779
							c-21.114,0-38.292-17.179-38.292-38.292c0-21.114,17.178-38.291,38.292-38.291c0.867,0,1.758,0.032,2.664,0.098
							c6.474-21.087,19.674-40.032,37.31-53.486c18.676-14.248,40.994-21.779,64.546-21.779c23.55,0,45.868,7.531,64.543,21.779
							c17.634,13.454,30.836,32.398,37.31,53.486c0.906-0.065,1.799-0.098,2.666-0.098c21.113,0,38.291,17.177,38.291,38.291
							c0,21.113-17.178,38.292-38.291,38.292c-2.586,0-5.169-0.263-7.7-0.779C625.862,440.719,588.041,465.026,546.4,465.026z
							 M451.88,398.296l0.681,1.543c16.396,37.169,53.23,61.188,93.841,61.188c40.607,0,77.44-24.019,93.836-61.188l0.681-1.542
							l1.636,0.41c2.732,0.685,5.548,1.032,8.366,1.032c18.908,0,34.291-15.383,34.291-34.292c0-18.908-15.383-34.291-34.291-34.291
							c-1.247,0-2.556,0.076-3.891,0.227l-1.676,0.189l-0.47-1.62c-6.053-20.906-18.968-39.729-36.366-53.003
							c-17.972-13.711-39.45-20.959-62.116-20.959s-44.147,7.248-62.119,20.959c-17.399,13.274-30.314,32.098-36.366,53.003
							l-0.469,1.62l-1.678-0.189c-1.332-0.149-2.641-0.227-3.888-0.227c-18.908,0-34.292,15.383-34.292,34.291
							c0,18.909,15.384,34.292,34.292,34.292c2.816,0,5.631-0.348,8.362-1.032L451.88,398.296z"/>
					</g>
					<g>
						<line fill="none" x1="423.492" y1="355.847" x2="445.751" y2="380.041"/>
						<path d="M445.752,382.041c-0.54,0-1.078-0.217-1.473-0.646l-22.26-24.193c-0.747-0.813-0.694-2.078,0.117-2.826
							c0.814-0.749,2.078-0.695,2.826,0.118l22.259,24.194c0.748,0.812,0.695,2.077-0.116,2.825
							C446.721,381.866,446.235,382.041,445.752,382.041z"/>
					</g>
					<g>
						<line fill="none" x1="664.967" y1="355.847" x2="642.708" y2="380.041"/>
						<path d="M642.707,382.041c-0.483,0-0.969-0.175-1.354-0.528c-0.812-0.748-0.865-2.013-0.117-2.826l22.259-24.193
							c0.748-0.812,2.012-0.867,2.826-0.118c0.812,0.748,0.864,2.013,0.116,2.826l-22.259,24.193
							C643.785,381.824,643.247,382.041,642.707,382.041z"/>
					</g>
				</g>
				<g>
					<g>
						<circle cx="653.838" cy="265.116" r="48.631"/>
					</g>
					<g>
						<circle cx="442.623" cy="265.116" r="48.631"/>
					</g>
				</g>
				<g>
					<g>
						<circle cx="499.785" cy="369.604" r="13.791"/>
					</g>
					<g>
						<path d="M527.449,373.884c-0.637,0-1.264-0.303-1.65-0.868c-5.868-8.546-15.548-13.647-25.893-13.647
							c-10.347,0-20.025,5.103-25.895,13.647c-0.625,0.911-1.869,1.143-2.779,0.518c-0.911-0.625-1.144-1.871-0.518-2.781
							c6.614-9.633,17.526-15.385,29.19-15.385c11.663,0,22.575,5.751,29.188,15.385c0.626,0.91,0.396,2.155-0.517,2.781
							C528.232,373.77,527.839,373.884,527.449,373.884z"/>
					</g>
				</g>
				<g>
					<g>
						<circle cx="589.787" cy="369.604" r="13.791"/>
					</g>
					<g>
						<path d="M562.365,373.884c-0.391,0-0.784-0.114-1.13-0.351c-0.911-0.625-1.144-1.871-0.518-2.781
							c6.614-9.633,17.526-15.385,29.189-15.385c11.665,0,22.577,5.751,29.188,15.385c0.625,0.911,0.395,2.156-0.518,2.781
							c-0.911,0.625-2.156,0.394-2.781-0.518c-5.865-8.546-15.545-13.647-25.891-13.647s-20.024,5.103-25.894,13.647
							C563.628,373.581,563.002,373.884,562.365,373.884z"/>
					</g>
				</g>
				<g>
					<line fill="none" x1="545.674" y1="369.708" x2="545.674" y2="389.785"/>
					<path d="M545.674,391.785c-1.104,0-2-0.896-2-2v-20.077c0-1.104,0.896-2,2-2c1.104,0,2,0.896,2,2v20.077
						C547.674,390.89,546.778,391.785,545.674,391.785z"/>
				</g>
				<g>
					<path fill="#FFFFFF" d="M580.996,401.331c0,19.509-15.813,35.322-35.322,35.322c-19.508,0-35.324-15.813-35.324-35.322"/>
				</g>
			</g>
		</g>
		<g>
			<polygon fill="#FFFFFF" points="543.195,497.192 506.689,524.878 470.438,497.192 			"/>
		</g>
		<g>
			<polygon fill="#FFFFFF" points="612.915,497.192 577.424,524.878 543.195,497.192 			"/>
		</g>
	</g>
</g>
<g>
	<g>
		<path d="M547.23,256.846c-0.177-0.946-0.343-1.895-0.488-2.851c-0.114,0-0.229-0.007-0.342-0.007
			c-47.62,0-87.799,31.849-100.406,75.406c-1.352-0.152-2.722-0.239-4.112-0.239c-2.071,0-4.098,0.183-6.073,0.516
			c6.703,1.552,13.687,2.373,20.861,2.373C501.765,332.044,539.285,299.639,547.23,256.846z"/>
	</g>
	<g>
		<path d="M646.805,329.395c-12.494-43.154-52.049-74.796-99.09-75.378c-0.146,0.949-0.311,1.891-0.484,2.831
			c7.946,42.793,45.468,75.198,90.563,75.198c6.91,0,13.64-0.767,20.116-2.209c-2.264-0.442-4.6-0.68-6.991-0.68
			C649.527,329.155,648.156,329.242,646.805,329.395z"/>
	</g>
</g>
</svg>
