<svg xmlns="http://www.w3.org/2000/svg" viewBox="0 0 860 650"><path fill="#ffd829" d="m685.92 647.51-95.54-104.07H282.69l-95.54 104.07"/><path d="M684.44 648.87 589.5 545.43H283.57l-94.95 103.42-2.94-2.7 96.13-104.72h309.45l96.13 104.72Z"/><path fill="none" d="m361.5 543.44-59.44 104.07"/><path d="m303.79 648.5-3.47-2 59.45-104.04 3.47 1.99Z"/><path fill="none" d="m508.4 543.44 59.44 104.07"/><path d="m566.08 648.5-59.43-104.08 3.47-1.98 59.43 104.08ZM431.3 543.44h4v104.07h-4Z"/><path fill="#fff" d="M857.62 649.51H2.38a2 2 0 0 1-2-2V62.02c0-1.1.9-2 2-2h855.24a2 2 0 0 1 2 2v585.5a2 2 0 0 1-2 2Zm-853.24-4h851.24V64.02H4.38Z"/><g fill="#fff"><path d="M2.38 62.02h855.24v55.6H2.38Z"/><path d="M857.62 119.61H2.38a2 2 0 0 1-2-2V62.02c0-1.1.9-2 2-2h855.24a2 2 0 0 1 2 2v55.6a2 2 0 0 1-2 2Zm-853.24-4h851.24V64.02H4.38Z"/></g><path d="M44.82 89.82a14.15 14.15 0 1 1-28.3 0 14.15 14.15 0 0 1 28.3 0Z"/><path fill="#ffd829" d="M83.73 89.82a14.15 14.15 0 1 1-28.3 0 14.15 14.15 0 0 1 28.3 0Zm38.4 0a14.15 14.15 0 1 1-28.3 0 14.15 14.15 0 0 1 28.3 0Zm278.22 125.95H471v72.94h-70.65Z"/><path d="M473 290.7h-74.65v-76.93H473Zm-70.65-4H469v-68.93h-66.65Z"/><path fill="#ffd829" d="M700.84 397.94a68.23 68.23 0 0 1-68.22 68.23H238.73a68.23 68.23 0 0 1-68.23-68.23v-50.8a68.23 68.23 0 0 1 68.23-68.23h393.89a68.23 68.23 0 0 1 68.22 68.23Z"/><path d="M632.62 468.17H238.73a70.3 70.3 0 0 1-70.23-70.23v-50.8a70.3 70.3 0 0 1 70.23-70.23h393.89a70.3 70.3 0 0 1 70.22 70.23v50.8a70.3 70.3 0 0 1-70.22 70.23ZM238.73 280.9a66.3 66.3 0 0 0-66.23 66.23v50.8a66.3 66.3 0 0 0 66.23 66.23h393.89a66.3 66.3 0 0 0 66.22-66.23v-50.8a66.3 66.3 0 0 0-66.22-66.23Z"/><path fill="#ffd829" d="M113.1 373.93v-45a18.5 18.5 0 1 0-37.02 0v45a18.5 18.5 0 1 0 37.01 0Z"/><path d="M94.58 394.44c-11.3 0-20.5-9.2-20.5-20.51v-45c0-11.31 9.2-20.52 20.5-20.52 11.31 0 20.51 9.2 20.51 20.51v45c0 11.31-9.2 20.51-20.5 20.51Zm0-82.03c-9.1 0-16.5 7.41-16.5 16.51v45c0 9.1 7.4 16.51 16.5 16.51s16.51-7.4 16.51-16.5v-45c0-9.11-7.4-16.52-16.5-16.52Z"/><path fill="#ffd829" d="M792.27 373.93v-45a18.5 18.5 0 1 0-37.02 0v45a18.51 18.51 0 0 0 37.02 0Z"/><path d="M773.76 394.44c-11.3 0-20.5-9.2-20.5-20.51v-45c0-11.31 9.2-20.52 20.5-20.52 11.31 0 20.51 9.2 20.51 20.51v45c0 11.31-9.2 20.51-20.5 20.51Zm0-82.03c-9.1 0-16.5 7.41-16.5 16.51v45c0 9.1 7.4 16.51 16.5 16.51s16.51-7.4 16.51-16.5v-45c0-9.11-7.4-16.52-16.5-16.52Z"/><path d="M776.76 509.25a37.02 37.02 0 0 1-37.02 37.01H131.6a37.01 37.01 0 0 1-37.02-37.01V345.98a37.02 37.02 0 0 1 37.02-37.02h608.14a37.02 37.02 0 0 1 37.02 37.02Z"/><path fill="#fff" d="M191.35 391.05c3.1-.73 6.45-1.22 10.05-1.47 3.59-.24 7.14-.37 10.66-.37 3.75 0 7.57.37 11.45 1.1 3.88.74 7.41 2.1 10.6 4.05a22.76 22.76 0 0 1 7.78 8.09c2 3.43 3 7.8 3 13.1 0 5.24-.94 9.65-2.82 13.24a24.8 24.8 0 0 1-7.47 8.76 30.26 30.26 0 0 1-10.66 4.84c-4 .98-8.13 1.47-12.38 1.47h-2.02a71.46 71.46 0 0 1-5.94-.24c-.98-.08-1.67-.17-2.08-.25v32.6h-10.17Zm20.99 6.99c-2.13 0-4.18.04-6.15.12-1.97.08-3.53.29-4.67.61v35.53c.4.17 1.06.27 1.96.31l2.83.12c.99.04 1.93.06 2.83.06h1.97c2.79 0 5.56-.26 8.3-.8a21.5 21.5 0 0 0 7.44-2.87c2.22-1.39 4-3.35 5.35-5.88 1.36-2.53 2.03-5.76 2.03-9.68 0-3.35-.63-6.15-1.9-8.4a15.22 15.22 0 0 0-5.05-5.39 21.3 21.3 0 0 0-7.07-2.88 37.1 37.1 0 0 0-7.87-.85Zm96.63-7.84h9.68v57.22c0 5.14-.67 9.6-2.01 13.35a24.16 24.16 0 0 1-5.7 9.25 22.39 22.39 0 0 1-8.92 5.33 37.29 37.29 0 0 1-11.61 1.72c-10.11 0-17.71-2.29-22.8-6.87-5.1-4.57-7.65-11.51-7.65-20.82v-59.19h10.17v54.4c0 4.34.43 7.99 1.29 10.97a17.7 17.7 0 0 0 3.8 7.23 14.23 14.23 0 0 0 6.37 3.98c2.57.82 5.57 1.23 9 1.23 6.62 0 11.34-1.82 14.16-5.45 2.81-3.64 4.22-9.62 4.22-17.95Zm35.53 73.63a40.49 40.49 0 0 0 8.27 3.25 34.7 34.7 0 0 0 16.85.49 18 18 0 0 0 6.2-2.57 13.18 13.18 0 0 0 4.16-4.48 12.69 12.69 0 0 0 1.53-6.37 10.8 10.8 0 0 0-3.37-8.2c-2.25-2.13-5.05-4-8.4-5.64a155.62 155.62 0 0 0-10.9-4.78 64.7 64.7 0 0 1-10.9-5.51 30.63 30.63 0 0 1-8.4-7.78c-2.25-3.07-3.37-6.97-3.37-11.7 0-3.36.68-6.38 2.02-9.07a19.62 19.62 0 0 1 5.7-6.86 26.98 26.98 0 0 1 8.88-4.35 40.96 40.96 0 0 1 11.58-1.53c4.9 0 9.36.34 13.36 1.04s7.19 1.61 9.56 2.75l.24-.12v.25h.12l-.12.36v19.6h-9.06v-13.1c-2.05-.5-4.3-.9-6.74-1.23a59.71 59.71 0 0 0-7.85-.49c-2.7 0-5.12.33-7.29.98-2.16.66-4 1.53-5.51 2.64a11.95 11.95 0 0 0-3.5 3.85 9.45 9.45 0 0 0-1.22 4.66 10.5 10.5 0 0 0 3.37 7.96 34.56 34.56 0 0 0 8.4 5.7c3.34 1.68 6.98 3.33 10.9 4.96a68.96 68.96 0 0 1 10.9 5.7 32 32 0 0 1 8.4 7.78c2.24 3.02 3.37 6.78 3.37 11.27 0 3.68-.68 6.99-2.03 9.93a21.84 21.84 0 0 1-5.75 7.6 25.95 25.95 0 0 1-9.2 4.9 40.96 40.96 0 0 1-12.3 1.71c-3.11 0-6.05-.24-8.83-.73a60.39 60.39 0 0 1-18.25-6.25l.12-.37v-19.85h9.06Zm111.14-27.2h-38.48v39.33H407V390.2h10.17v37.37h38.48V390.2h10.17v85.77h-10.17Zm147.03-17.64 1.22-11.64h-.61l-5.88 10.53-12.5 20.96h-3.06l-13.11-21.08-5.64-10.41h-.61l1.47 11.52v57.1h-9.93v-85.78h9.44l20.34 32.6h.25l19.6-32.6h9.19v85.77h-10.17Zm30.63-28.79h50.35v9.06h-40.18v28.06h37.12v9.07h-37.12v30.5h40.8v9.07H633.3Z"/><path fill="#ffd829" d="M128.33 422.92a18.5 18.5 0 0 0-18.5-18.51 18.5 18.5 0 0 0 0-37.02H79.34a18.5 18.5 0 1 0 0 37.02 18.5 18.5 0 0 0-1.55 36.95 18.5 18.5 0 0 0 1.55 36.94 18.51 18.51 0 1 0 0 37.02h30.49a18.5 18.5 0 0 0 0-37.02 18.5 18.5 0 0 0 1.55-36.94 18.5 18.5 0 0 0 16.95-18.44Z"/><path d="M109.83 517.32H79.34a20.53 20.53 0 0 1-20.5-20.51 20.5 20.5 0 0 1 11.67-18.5 20.53 20.53 0 0 1-11.68-18.52c0-8 4.72-15.08 11.58-18.44a20.64 20.64 0 0 1-11.58-18.44c0-8.14 4.78-15.2 11.68-18.5a20.54 20.54 0 0 1-11.68-18.51c0-11.31 9.2-20.51 20.51-20.51h30.49c11.3 0 20.5 9.2 20.5 20.5 0 8.16-4.77 15.21-11.67 18.52a20.53 20.53 0 0 1 11.67 18.5c0 8-4.71 15.09-11.57 18.44a20.64 20.64 0 0 1 11.57 18.44c0 8.15-4.77 15.2-11.67 18.51a20.54 20.54 0 0 1 11.67 18.5c0 11.32-9.2 20.52-20.5 20.52ZM81.34 478.3a2 2 0 0 1-2 2 16.52 16.52 0 0 0 0 33.02h30.49a16.52 16.52 0 0 0 0-33.02 2 2 0 0 1 0-4c9.1 0 16.5-7.4 16.5-16.5a16.6 16.6 0 0 0-15.11-16.45 2 2 0 0 1 0-3.98 16.6 16.6 0 0 0 15.11-16.45c0-9.1-7.4-16.5-16.5-16.5a2 2 0 0 1 0-4 16.53 16.53 0 0 0 0-33.02H79.34a16.52 16.52 0 0 0 0 33.01 2 2 0 0 1 0 4c-9.1 0-16.5 7.4-16.5 16.5a16.6 16.6 0 0 0 15.11 16.46 2 2 0 0 1 0 3.98 16.6 16.6 0 0 0-15.12 16.44c0 9.1 7.41 16.51 16.51 16.51a2 2 0 0 1 2 2Z"/><path fill="#ffd829" d="M799.17 422.92a18.5 18.5 0 0 0-18.51-18.51 18.51 18.51 0 0 0 0-37.02h-30.49a18.5 18.5 0 1 0 0 37.02 18.5 18.5 0 0 0-1.55 36.95 18.5 18.5 0 0 0 1.55 36.94 18.5 18.5 0 0 0 0 37.02h30.49a18.51 18.51 0 0 0 0-37.02 18.5 18.5 0 0 0 1.55-36.94 18.5 18.5 0 0 0 16.96-18.44Z"/><path d="M780.66 517.32h-30.49a20.5 20.5 0 0 1-8.83-39.01 20.54 20.54 0 0 1-11.68-18.52c0-8 4.72-15.08 11.58-18.44a20.64 20.64 0 0 1-11.58-18.44c0-8.14 4.78-15.2 11.68-18.5a20.54 20.54 0 0 1-11.68-18.51c0-11.31 9.2-20.51 20.51-20.51h30.49c11.3 0 20.5 9.2 20.5 20.5 0 8.16-4.77 15.21-11.67 18.52a20.54 20.54 0 0 1 11.68 18.5c0 8-4.72 15.09-11.58 18.44a20.64 20.64 0 0 1 11.58 18.44c0 8.15-4.78 15.2-11.68 18.51a20.54 20.54 0 0 1 11.68 18.5c0 11.32-9.2 20.52-20.51 20.52Zm-28.49-39.02a2 2 0 0 1-2 2 16.52 16.52 0 0 0 0 33.02h30.49a16.52 16.52 0 0 0 0-33.02 2 2 0 0 1 0-4c9.1 0 16.5-7.4 16.5-16.5a16.6 16.6 0 0 0-15.11-16.45 2 2 0 0 1 0-3.98 16.6 16.6 0 0 0 15.12-16.45c0-9.1-7.4-16.5-16.51-16.5a2 2 0 0 1 0-4 16.53 16.53 0 0 0 0-33.02h-30.49a16.52 16.52 0 0 0 0 33.01 2 2 0 0 1 0 4c-9.1 0-16.5 7.4-16.5 16.5a16.6 16.6 0 0 0 15.12 16.46 2 2 0 0 1 0 3.98 16.6 16.6 0 0 0-15.13 16.44c0 9.1 7.41 16.51 16.51 16.51a2 2 0 0 1 2 2Z"/><path fill="#ffd829" d="M540.92 113.16c-1.4 0-2.76.08-4.12.23C524.2 69.83 484.02 38 436.4 38c-47.62 0-87.8 31.85-100.4 75.4a36.3 36.3 0 1 0 4.74 71.25 104.54 104.54 0 0 0 95.66 62.39c42.73 0 79.47-25.65 95.67-62.38a36.3 36.3 0 1 0 8.85-71.49Z"/><path d="M436.4 249.03a106.63 106.63 0 0 1-96.82-62.07 38.34 38.34 0 0 1-45.99-37.51 38.33 38.33 0 0 1 40.96-38.2 107.37 107.37 0 0 1 37.3-53.48 105.54 105.54 0 0 1 64.55-21.78c23.55 0 45.87 7.53 64.55 21.78a107.38 107.38 0 0 1 37.3 53.48 38.33 38.33 0 0 1 40.96 38.2 38.34 38.34 0 0 1-45.99 37.5 106.62 106.62 0 0 1-96.82 62.08Zm-94.52-66.73.68 1.54a102.62 102.62 0 0 0 93.84 61.19c40.6 0 77.44-24.02 93.84-61.2l.68-1.53 1.63.4a34.33 34.33 0 0 0 42.66-33.26 34.33 34.33 0 0 0-38.18-34.06l-1.68.2-.47-1.63a103.3 103.3 0 0 0-36.36-53 101.57 101.57 0 0 0-62.12-20.96c-22.66 0-44.14 7.25-62.12 20.96a103.29 103.29 0 0 0-36.36 53l-.47 1.62-1.68-.19a34.33 34.33 0 0 0-38.18 34.06 34.33 34.33 0 0 0 42.65 33.27Z"/><path fill="none" d="m313.5 139.85 22.25 24.2"/><path d="M335.75 166.04a2 2 0 0 1-1.47-.64l-22.26-24.2a2 2 0 0 1 2.94-2.7l22.26 24.19a2 2 0 0 1-1.47 3.35Z"/><path fill="none" d="m554.97 139.85-22.26 24.2"/><path d="M532.7 166.04a2 2 0 0 1-1.46-3.35l22.25-24.2a2 2 0 1 1 2.95 2.71l-22.26 24.2c-.4.42-.93.64-1.47.64Zm59.77-116.92a48.63 48.63 0 1 1-97.26 0 48.63 48.63 0 0 1 97.26 0Zm-211.22 0a48.63 48.63 0 1 1-97.26 0 48.63 48.63 0 0 1 97.26 0Zm22.33 104.48a13.79 13.79 0 1 1-27.58 0 13.79 13.79 0 0 1 27.58 0Z"/><path d="M417.45 157.88a2 2 0 0 1-1.65-.86 31.4 31.4 0 0 0-51.79 0 2 2 0 1 1-3.3-2.27 35.4 35.4 0 0 1 58.38 0 2 2 0 0 1-1.64 3.13Zm76.13-4.28a13.79 13.79 0 1 1-27.58 0 13.79 13.79 0 0 1 27.58 0Z"/><path d="M452.37 157.88a2 2 0 0 1-1.65-3.13 35.4 35.4 0 0 1 58.37 0 2 2 0 1 1-3.3 2.26 31.4 31.4 0 0 0-51.78 0c-.38.57-1 .87-1.64.87Z"/><path fill="none" d="M435.67 153.7v20.09"/><path d="M435.67 175.78a2 2 0 0 1-2-2v-20.07a2 2 0 0 1 4 0v20.07a2 2 0 0 1-2 2Z"/><path fill="#fff" d="M471 185.33a35.32 35.32 0 1 1-70.65 0m32.85 95.87-36.51 27.68-36.25-27.69Zm69.72 0-35.5 27.68-34.23-27.69Z"/><path d="M437.23 40.85a89.8 89.8 0 0 1-.49-2.86h-.34c-47.62 0-87.8 31.85-100.4 75.4a36.76 36.76 0 0 0-10.2.28 92.4 92.4 0 0 0 20.87 2.37c45.1 0 82.62-32.4 90.56-75.2Z"/><path d="M536.8 113.4c-12.49-43.16-52.04-74.8-99.08-75.38-.15.95-.32 1.89-.49 2.83 7.95 42.8 45.47 75.2 90.56 75.2 6.91 0 13.64-.77 20.12-2.21a36.45 36.45 0 0 0-11.1-.45Z"/></svg>