<svg xmlns="http://www.w3.org/2000/svg" viewBox="0 0 1920 1080" xml:space="preserve"><path d="M241.247 1076h730.838v4H241.247zM1448.372 526.63h-4V245.786H239.149v-4h1207.223a2 2 0 0 1 2 2V526.63z"/><path d="M1411.539 165.642H275.97c-20.336 0-36.821 16.486-36.821 36.821v52.278h1209.212v-52.278c0-20.335-16.486-36.821-36.822-36.821zM351.45 233.561c-12.302 0-22.275-9.973-22.275-22.275s9.973-22.275 22.275-22.275 22.275 9.973 22.275 22.275c0 12.302-9.973 22.275-22.275 22.275z"/><circle fill="#FFD829" cx="290.063" cy="211.286" r="22.275"/><circle fill="#FFF" cx="412.837" cy="211.286" r="22.275"/><path fill="#FFF" d="M1298.535 167.307c-.16-.983-1.084-1.664-2.08-1.664h-245.563c-110.301 0-200.041 89.736-200.044 200.038l-.003 92.441c-.001 24.882-13.821 64.546-79.656 112.204-32.81 23.751-65.995 40.256-76.685 45.341a15.232 15.232 0 0 1-6.541 1.479h-52.084c-38.247 0-69.29 31.438-68.645 69.829.633 37.728 32.14 67.657 69.873 67.657h15.132c12.571 0 22.744 10.467 22.263 23.143-.458 12.058-10.749 21.422-22.815 21.422h-114.64c-18.269 0-33.125 14.889-33.072 33.17.052 17.681 14.798 31.818 32.479 31.818h147.695c.044 0 .086-.011.129-.014h36.946c16.281 0 29.526 13.245 29.526 29.526 0 8.31-3.251 16.107-9.154 21.956s-13.739 9.018-22.038 8.951l-31.594-.291H473.39c-15.908 0-28.85 12.942-28.85 28.851 0 18.018 14.659 32.677 32.677 32.677h92.021c11.054 0 20.229 8.992 20.457 20.143l.223 3.182c.24 11.904-8.494 21.94-20.353 23.35l-328.446 42.157a2 2 0 0 0 .543 3.963l328.411-42.152c13.875-1.648 24.126-13.427 23.84-27.496l-.223-3.182c-.267-13.214-11.235-23.964-24.451-23.964h-92.021c-15.812 0-28.677-12.864-28.677-28.677 0-13.703 11.147-24.851 24.85-24.851h214.557l31.576.291c9.418.066 18.225-3.504 24.891-10.11 6.667-6.605 10.338-15.412 10.338-24.797 0-18.486-15.04-33.526-33.526-33.526h-37.641c-.049 0-.094.011-.142.014h-147.55c-16.807 0-30.192-14.929-27.592-32.222 2.16-14.362 14.888-24.766 29.411-24.766h114.521c14.757 0 26.712-12.224 26.272-27.077-.423-14.295-12.526-25.487-26.827-25.487h-15.623c-36.047 0-65.318-29.572-64.825-65.731.484-35.517 30.104-63.756 65.624-63.756h54.922a2 2 0 0 0 .817-.175c.405-.181 40.918-18.441 80.89-47.367 23.531-17.028 42.294-34.379 55.77-51.57 16.982-21.666 25.594-43.169 25.594-63.912l.003-92.441c.003-108.096 87.949-196.038 196.044-196.038h245.67a2.003 2.003 0 0 0 1.97-2.337z"/><path fill="#FFD829" d="M1290.317 167.643 1795.761 2.001l-87.774 165.642 87.774 165.642z"/><path d="M1795.761 335.285c-.208 0-.418-.032-.623-.1l-505.444-165.643a2 2 0 0 1 0-3.8L1795.138.1a2 2 0 0 1 2.39 2.837l-87.278 164.705 87.278 164.706a2.002 2.002 0 0 1-1.767 2.937zm-499.023-167.643 494.934 162.198-85.453-161.262a2.002 2.002 0 0 1 0-1.873l85.453-161.261-494.934 162.198z"/><path d="M1707.986 169.642H1291.63a2 2 0 0 1 0-4h416.356a2 2 0 0 1 0 4zM1821.738 828.012l-57.6-40-56.471 40V510.783l114.071-7z"/><path fill="#FFF" d="M240.955 254.742C107.879 254.742 0 362.282 0 494.938s240.955 583.679 240.955 583.679S481.91 627.595 481.91 494.938 374.031 254.742 240.955 254.742zm-.648 392.655c-85.052 0-154.001-68.731-154.001-153.516 0-84.784 68.949-153.516 154.001-153.516s154.001 68.731 154.001 153.516-68.948 153.516-154.001 153.516z"/><ellipse fill="#FFF" cx="239.435" cy="488.295" rx="67.765" ry="67.551"/><g><path fill="#FFF" d="M973.693 744.948h-4v-248.67c0-.553.229-1.08.631-1.458s.934-.579 1.496-.538l474.557 30.094-.254 3.992-472.43-29.959v246.539zM1069.91 1075.918h376.34v4h-376.34z"/><path fill="#FFF" d="M1444.443 526.372h4v95.304h-4zM1444.443 890.14h4v186.61h-4z"/><path fill="#FFF" d="M1918 1079.918h-471.557v-4H1916V498.41l-469.43 29.958-.254-3.992 471.557-30.094a1.999 1.999 0 0 1 2.127 1.996v581.64a2 2 0 0 1-2 2z"/></g><g><path d="M973.168 917.849c-31.816 0-61.698-4.398-84.143-12.385-21.481-7.644-33.801-17.957-33.801-28.296s12.32-20.652 33.801-28.296c22.445-7.986 52.327-12.385 84.143-12.385 31.815 0 61.698 4.398 84.143 12.385 21.481 7.644 33.802 17.957 33.802 28.296 0 1.502-.263 3.033-.779 4.551-3.294 9.655-16.773 18.677-37.956 25.401-21.792 6.919-49.922 10.729-79.21 10.729z"/><path d="M853.26 956.823c0 10.48 12.482 20.933 34.246 28.678 22.731 8.088 52.996 12.543 85.217 12.543 32.222 0 62.485-4.455 85.217-12.543 21.764-7.745 34.246-18.197 34.246-28.678 0-.493.186-.939.482-1.288V884.86c-7.232 21.199-57.972 37.624-119.5 37.624-66.489 0-120.389-19.18-120.389-42.839v75.891c.295.348.481.794.481 1.287z"/><path d="M972.723 1002.044c-58.874 0-106.892-14.366-119.944-34.258V1080h239.889V967.785c-13.052 19.893-61.07 34.259-119.945 34.259z"/></g><g><circle transform="rotate(-87.341 1574.055 608.741)" fill="#FFF" cx="1574.012" cy="608.729" r="22.998"/><path fill="#FFF" d="M1627.122 957.473c14.009-.738 24.767-12.693 24.029-26.702-.738-14.008-12.693-24.767-26.701-24.029-.425.022-.848.056-1.266.098a71.148 71.148 0 0 0-5.537-14.925l-58.389-115.847c19.568-20.667 30.964-49 29.348-79.665-3.128-59.361-53.784-104.947-113.145-101.819s-104.947 53.784-101.819 113.145c1.622 30.798 16.044 57.884 37.833 76.388l-49.699 9.222c-10.694 1.984-17.992 11.958-16.647 22.752 1.345 10.795 10.868 18.672 21.723 17.971l62.204-4.021 7.049 14.215 60.526-39.92a2 2 0 0 1 2.204 3.338l-7.453 4.916-94.909 62.298c-8.824 6.359-11.167 18.492-5.344 27.68 5.823 9.188 17.797 12.248 27.315 6.98l106.101-61.637.151-.042a2 2 0 0 1 2.018 3.455l-67.548 39.435 31.946 64.422a70.7 70.7 0 0 0 10.437 15.491l-38.908 67.695c-5.086 9.615-1.8 21.528 7.495 27.177 9.296 5.649 21.384 3.078 27.576-5.867l44.104-66.333a70.486 70.486 0 0 0 35.296-2.569c.533-.18 1.046-.389 1.572-.58l9.052 68.573c1.802 10.727 11.648 18.195 22.463 17.034 10.816-1.16 18.856-10.546 18.341-21.413l-6.432-97.144c1.628.235 3.305.319 5.014.228z"/><path d="M1479.009 711.113c-2.34-2.382-6.184-2.416-8.525-.115a6.065 6.065 0 0 0-.076 8.566c2.301 2.342 6.143 2.376 8.526.035 2.342-2.301 2.376-6.143.075-8.486zM1434.506 707.17c2.698 2.746 5.98 2.695 9.107 2.243-.508 3.118-.617 6.399 2.08 9.145.991 1.01 2.147 1.62 3.075.707a1.52 1.52 0 0 0 .019-2.161c-.238-.242-.755-.607-1.033-.89-1.269-1.292-1.081-4.493-.703-6.532 3.564-.089 7.811-.531 10.435-3.109 3.028-2.976 2.907-7.38-.226-10.57-3.135-3.191-7.536-3.389-10.564-.414-2.625 2.579-3.143 6.818-3.295 10.378-2.045.343-5.249.474-6.518-.818-.278-.282-.633-.806-.871-1.049a1.52 1.52 0 0 0-2.161-.019c-.927.914-.336 2.08.655 3.089zM1442.527 673.977c-2.341-2.382-6.184-2.416-8.526-.115a6.065 6.065 0 0 0-.076 8.566c2.301 2.342 6.143 2.376 8.526.035 2.342-2.302 2.377-6.144.076-8.486z"/><g><path d="m1559.33 661.014-4.51-37.374 35.461 12.638c8.005 2.853 9.77 13.385 3.131 18.691l-16.541 13.219c-6.639 5.306-16.523 1.263-17.541-7.174z"/><path d="m1551.977 588.35 4.51 37.374-35.46-12.638c-8.005-2.853-9.77-13.385-3.131-18.691l16.541-13.219c6.638-5.306 16.522-1.263 17.54 7.174z"/></g><g><circle transform="rotate(-87.341 1554.863 623.653)" cx="1554.821" cy="623.64" r="12.431"/></g></g><g><path fill="#FFD829" d="M1101.022 626.103c-4.883-37.971-21.057-72.252-45.544-96.527-24.076-23.867-55.538-37.801-90.985-40.297-36.256-2.551-76.409 6.758-119.352 27.672-47.753 23.256-87.495 30.003-114.934 19.515-20.654-7.896-30.068-24.178-32.644-29.413-.585-1.668-.897-3.428-.843-5.195.092-3.052.906-5.755 2.634-11.993 2.481-6.338 2.45-13.564-.427-20.039l-8.195-23.061-10.251-28.848-14.005-40.148-.063.019c-.001-.003.001-.008-.001-.012-2.514-7.07-10.284-10.766-17.356-8.253-7.07 2.514-10.765 10.281-8.255 17.352.145.405.312.796.489 1.177l13.587 38.968-.11.037-14.294-40.967-3.069-8.675c-2.792-6.548-10.227-9.884-17.025-7.468-7.074 2.512-10.768 10.282-8.254 17.356.143.405 3.274 9.509 3.452 9.89l13.586 38.967-.108.037-14.006-40.151-5.747-16.681.177.522c-2.514-7.069-10.464-11.301-17.536-8.791-7.071 2.509-10.766 10.281-8.254 17.351.144.408 5.999 17.5 6.176 17.88l13.584 38.969-.108.036-14.585-41.783-2.784-7.609c-3.036-6.024-10.142-8.994-16.667-6.677-6.519 2.32-10.157 9.11-8.714 15.698l2.561 7.689-2.466-7.255c.106.411 2.836 8.486 2.979 8.894.145.405.308.795.485 1.177l17.45 49.827c-.298.148-1.538.597-1.836.746l-19.566-29.474-.052.039-.012-.016c-4.15-6.251-12.585-7.954-18.834-3.806-6.252 4.152-7.958 12.586-3.805 18.835.237.359.49.693.752 1.019l37.709 56.803a38.96 38.96 0 0 0 1.439 2.365c5.164 7.776 13.999 12.569 22.288 15.061 5.575 1.716 11.151 5.139 13.359 11.448 4.171 10.627 25.541 58.081 82.059 81.048 52.562 21.358 116.302 14.127 189.448-21.497 28.157-13.713 53.619-20.22 73.624-18.808 14.04.988 25.142 5.71 33.944 14.435 10.326 10.237 17.302 25.895 19.641 44.088 2.336 18.169-.257 36.848-7.115 51.246-9.385 19.704-18.993 33.121-29.166 47.326-14.51 20.263-29.514 41.214-39.135 74.502-6.541 22.63-9.896 39.241-10.197 71.724h89.997c.26-23.481 2.47-32.235 6.661-46.735 5.33-18.441 13.491-29.839 25.846-47.091 10.884-15.198 24.43-34.113 37.248-61.025 14.301-30.028 19.673-66.048 15.125-101.423z"/><path d="M1016.141 884.378h-89.998a1.998 1.998 0 0 1-2-2.019c.301-32.472 3.663-49.379 10.276-72.262 9.716-33.616 24.821-54.709 39.429-75.108 10.121-14.133 19.68-27.479 28.988-47.024 6.697-14.06 9.226-32.331 6.938-50.131-2.282-17.753-9.054-32.997-19.065-42.923-8.447-8.373-19.136-12.906-32.676-13.859-19.646-1.389-44.759 5.049-72.607 18.61-73.676 35.883-137.963 43.134-191.076 21.552-57.659-23.43-79.396-72.559-83.168-82.17-2.128-6.077-7.744-8.931-12.085-10.268-5.979-1.797-16.983-6.255-23.365-15.865a40.493 40.493 0 0 1-1.479-2.424l-37.622-56.672a15.47 15.47 0 0 1-3.093-12.799 15.489 15.489 0 0 1 6.658-9.9 15.49 15.49 0 0 1 11.706-2.291 15.478 15.478 0 0 1 9.622 6.251c.131.11.247.238.343.383l15.172 22.856-14.744-42.1a16.069 16.069 0 0 1-.51-1.249c-.03-.084-2.886-8.501-3.033-9.069a2.057 2.057 0 0 1-.053-.297l-.002-.006a1.979 1.979 0 0 1-.056-.204c-1.675-7.644 2.623-15.387 9.997-18.011a15.592 15.592 0 0 1 12.984 1.184 15.478 15.478 0 0 1 .797-11.36 15.477 15.477 0 0 1 8.858-7.991c7.232-2.567 15.494.987 19.14 7.85.133-.339.279-.674.437-1.007a15.48 15.48 0 0 1 8.859-7.992c7.677-2.731 16.189.961 19.463 8.403 1.618-3.979 4.859-7.279 9.213-8.828 7.947-2.816 16.689 1.21 19.739 9.008.099.141.181.296.239.465l14.005 40.147 18.418 51.827c2.965 6.726 3.135 14.519.468 21.411l-.35 1.261c-1.447 5.206-2.107 7.582-2.186 10.161-.042 1.421.19 2.888.693 4.362 2.412 4.861 11.576 20.696 31.509 28.317 26.909 10.285 66.103 3.562 113.344-19.445 43.26-21.068 83.755-30.451 120.368-27.869 35.931 2.53 67.832 16.663 92.253 40.872 24.801 24.586 41.18 59.28 46.119 97.692 4.597 35.751-.839 72.167-15.305 102.539-12.894 27.07-26.496 46.064-37.426 61.326-12.235 17.086-20.317 28.371-25.553 46.485-4.17 14.428-6.323 22.812-6.582 46.202a2.003 2.003 0 0 1-2.001 1.979zm-87.975-4h86.001c.361-22.822 2.561-30.923 6.714-45.291 5.426-18.772 13.666-30.28 26.141-47.699 10.84-15.137 24.327-33.972 37.068-60.722 14.14-29.687 19.448-65.31 14.949-100.309-4.827-37.532-20.797-71.399-44.969-95.362-23.731-23.524-54.755-37.26-89.718-39.722-35.899-2.523-75.714 6.719-118.335 27.475-48.259 23.505-88.554 30.278-116.523 19.586-21.448-8.2-31.236-25.34-33.725-30.398a1.963 1.963 0 0 1-.093-.222c-.692-1.977-1.013-3.968-.955-5.917.093-3.062.84-5.752 2.33-11.111l.376-1.355a1.84 1.84 0 0 1 .065-.194c2.329-5.952 2.186-12.694-.393-18.498a1.934 1.934 0 0 1-.057-.143l-18.446-51.908-13.844-39.687a1.886 1.886 0 0 1-.256-.542c-2.197-5.975-8.788-9.079-14.77-6.951-6.018 2.141-9.176 8.779-7.04 14.799.123.341.268.678.42 1.008.027.059.051.118.073.18l13.587 38.968a1.999 1.999 0 0 1-1.251 2.554l-.11.037a1.997 1.997 0 0 1-2.526-1.236l-14.293-40.967-3.045-8.605c-2.412-5.575-8.764-8.349-14.492-6.312-2.918 1.036-5.257 3.146-6.586 5.941s-1.49 5.941-.453 8.859l.419 1.214c.685 1.983 2.768 8.018 2.987 8.559.029.062.027.063.05.129l13.586 38.968a2.002 2.002 0 0 1-1.238 2.55l-.108.037a2.001 2.001 0 0 1-2.539-1.232l-14.006-40.151-5.534-16.061-.033-.087c-2.207-6.206-9.068-9.676-14.983-7.576a11.51 11.51 0 0 0-6.584 5.939 11.516 11.516 0 0 0-.455 8.857l.816 2.374c1.384 4.03 5.06 14.737 5.325 15.414.028.061.018.04.04.104l13.584 38.969a2 2 0 0 1-1.257 2.556l-.108.036a2.004 2.004 0 0 1-2.521-1.238l-14.585-41.782-2.733-7.468c-2.644-5.125-8.711-7.528-14.161-5.593-5.448 1.938-8.637 7.637-7.45 13.286l2.525 7.585c.044.132.073.265.089.396.211.622.363 1.067.413 1.209.122.339.263.675.415 1.005.027.058.05.116.071.176l17.45 49.826a2 2 0 0 1-.997 2.452c-.177.087-.629.27-1.084.446-.309.12-.619.237-.763.305-.898.419-2 .134-2.546-.689l-19.288-29.057a1.886 1.886 0 0 1-.342-.396v.001a11.506 11.506 0 0 0-7.359-4.948 11.496 11.496 0 0 0-8.701 1.702c-2.579 1.713-4.337 4.327-4.95 7.361a11.5 11.5 0 0 0 2.351 9.574c.038.047.073.096.106.146l37.709 56.804c.026.039.051.079.074.12.501.884.935 1.597 1.365 2.244 5.688 8.565 15.723 12.606 21.198 14.253 7.501 2.309 12.57 6.7 14.671 12.703 3.642 9.273 24.779 57.04 80.924 79.855 52.014 21.135 115.207 13.922 187.819-21.442 28.478-13.87 54.29-20.435 74.64-19.005 14.537 1.023 26.054 5.933 35.211 15.01 10.642 10.55 17.82 26.621 20.216 45.253 2.384 18.541-.274 37.626-7.293 52.361-9.461 19.864-19.12 33.352-29.346 47.63-14.413 20.127-29.314 40.937-38.84 73.894-6.372 22.051-9.678 37.967-10.094 69.166z"/><g><path d="M642.609 509.86a2 2 0 0 1-1.997-1.923c-.036-.852-1.131-21.073-22.4-32.772-21.589-11.872-36.963-7.233-37.116-7.186a2 2 0 1 1-1.204-3.815c.69-.219 17.174-5.194 40.248 7.495 23.311 12.822 24.433 35.178 24.47 36.123a2 2 0 0 1-1.922 2.075c-.026.003-.053.003-.079.003z"/></g></g><g><path d="M1222.188 471.671c-.374 0-.753-.104-1.09-.324-70.777-46.131-144.818-75.77-220.067-88.093-60.181-9.854-121.274-8.723-181.583 3.367-102.676 20.582-168.231 66.383-168.882 66.844a2 2 0 0 1-2.311-3.266c.657-.465 66.908-46.753 170.406-67.5 60.782-12.186 122.357-13.326 183.016-3.393 75.801 12.414 150.359 42.253 221.604 88.688a2 2 0 0 1-1.093 3.677z"/><path d="M1222.19 471.671c-.109 0-.221-.009-.331-.027l-60.075-10.088a2.002 2.002 0 0 1-1.642-2.304 1.994 1.994 0 0 1 2.304-1.642l55.135 9.259-33.123-44.049a2.001 2.001 0 0 1 3.197-2.405l36.134 48.053a2.002 2.002 0 0 1-1.599 3.203z"/></g><g><path fill="#FFF" d="M1241.407 526.622c.662-2.792.751-5.739.845-8.86.146-4.819.295-9.802 2.709-14.3 3.755-7 11.116-9.797 18.234-12.503 5.28-2.006 10.74-4.081 14.399-7.846 6.176-6.354 6.527-17.818.801-26.097-2.156-3.116-5.081-5.82-8.579-8.017a54.51 54.51 0 0 0-2.466-.062c-29.654 0-53.694 24.04-53.694 53.694 0 15.55 6.617 29.548 17.181 39.354a40.518 40.518 0 0 0 1.812-1.578c4.601-4.259 7.629-9.026 8.758-13.785z"/><path fill="#FFF" d="M1279.761 536.35c3.441-5.575 9.724-9.57 17.24-10.962 6.449-1.196 12.743-.277 17.732 2.503a53.444 53.444 0 0 0 6.31-25.261c0-25.981-18.453-47.649-42.967-52.62a30.953 30.953 0 0 1 3.87 4.547c6.86 9.917 6.31 23.783-1.254 31.565-4.328 4.452-10.242 6.7-15.964 8.874-6.668 2.535-12.969 4.929-15.96 10.506-1.933 3.602-2.062 7.87-2.197 12.388-.097 3.2-.196 6.508-.96 9.729-1.328 5.596-4.795 11.113-10.028 15.958-.462.428-.939.84-1.418 1.248 9.135 7.195 20.654 11.499 33.184 11.499 3.119 0 6.17-.281 9.143-.791-.589-6.971.12-14.081 3.269-19.183z"/><path fill="#FFF" d="M1297.787 529.636c-6.225 1.153-11.59 4.511-14.35 8.984-2.538 4.112-3.113 10.088-2.67 16.014 13.269-3.414 24.541-11.781 31.76-23.004-4.09-2.222-9.409-2.979-14.74-1.994z"/><path fill="#FFD829" d="M1245.611 527.62c.764-3.22.863-6.528.96-9.729.135-4.518.264-8.785 2.197-12.388 2.991-5.577 9.292-7.971 15.96-10.506 5.721-2.174 11.636-4.422 15.964-8.874 7.564-7.782 8.115-21.648 1.254-31.565a30.901 30.901 0 0 0-3.87-4.547 53.825 53.825 0 0 0-8.261-1.012c3.498 2.196 6.422 4.9 8.579 8.017 5.727 8.279 5.375 19.743-.801 26.097-3.659 3.765-9.119 5.839-14.399 7.846-7.118 2.706-14.478 5.503-18.234 12.503-2.413 4.498-2.563 9.481-2.709 14.3-.094 3.121-.182 6.068-.845 8.86-1.129 4.759-4.157 9.526-8.758 13.785a42.452 42.452 0 0 1-1.812 1.578 54.027 54.027 0 0 0 3.329 2.841c.479-.408.956-.82 1.418-1.248 5.233-4.845 8.7-10.363 10.028-15.958zM1297 525.389c-7.516 1.391-13.799 5.387-17.24 10.962-3.148 5.102-3.858 12.212-3.269 19.183a53.843 53.843 0 0 0 4.276-.899c-.443-5.926.132-11.903 2.67-16.014 2.759-4.472 8.124-7.831 14.35-8.984 5.331-.985 10.65-.228 14.74 1.994a53.116 53.116 0 0 0 2.205-3.739c-4.989-2.78-11.283-3.7-17.732-2.503z"/></g></svg>