<svg xmlns="http://www.w3.org/2000/svg" viewBox="0 0 1080 1080" xml:space="preserve"><path fill="#FFF" d="m67.295 68.442 120.282 15.199v129.745H67.295V68.442m-4-4.537v153.481h128.282V80.115L63.295 63.905zM320.275 68.442v144.944H199.994V83.641l120.281-15.199m4-4.537-128.282 16.21v137.272h128.282V63.905zM1026.649 407.639l-57.6-40-56.47 40V200.411l114.07-7z"/><path d="M1046.88 134.888H224.587c-18.145 0-32.854 14.709-32.854 32.854v49.645h888v-49.645c.001-18.145-14.708-32.854-32.853-32.854zm-754.947 60.6c-10.977 0-19.875-8.898-19.875-19.875 0-10.976 8.898-19.875 19.875-19.875 10.976 0 19.875 8.898 19.875 19.875s-8.898 19.875-19.875 19.875z"/><circle fill="#FFD829" cx="237.162" cy="176.612" r="19.875"/><circle fill="#FFF" cx="346.705" cy="176.612" r="19.875"/><path d="M606.227 852.757c-22.235-7.912-51.879-12.27-83.472-12.27s-61.238 4.357-83.472 12.27c-20.636 7.343-32.472 16.97-32.472 26.411s11.835 19.068 32.472 26.411c22.235 7.912 51.879 12.27 83.472 12.27 64.729 0 109.44-17.682 115.272-34.776a12.1 12.1 0 0 0 .672-3.905c0-9.442-11.835-19.068-32.472-26.411z"/><path d="M436.611 985.407c22.86 8.134 53.295 12.614 85.699 12.614 32.404 0 62.84-4.48 85.7-12.614 20.337-7.238 32.609-16.826 34.245-26.603v-75.04c-7.231 21.199-57.972 37.624-119.5 37.624-66.489 0-120.39-19.18-120.39-42.839v80.255c1.637 9.778 13.908 19.366 34.246 26.603z"/><path d="M522.309 1002.044c-58.23 0-105.899-13.974-119.944-33.466v107.686h239.889V968.578c-14.045 19.492-61.714 33.466-119.945 33.466z"/><path d="M1080.198 1080h-888v-4h884V216.156h4z"/><circle fill="#FFF" cx="190.183" cy="609.626" r="53.825"/><path fill="#FFF" d="M191.391 423.528C85.689 423.528 0 509.217 0 614.919S191.391 1080 191.391 1080s191.391-359.379 191.391-465.081-85.689-191.391-191.391-191.391zm-.515 312.871c-67.557 0-122.323-54.766-122.323-122.323s54.766-122.323 122.323-122.323 122.323 54.766 122.323 122.323-54.766 122.323-122.323 122.323zM757.14 490.391c-5.765 1.067-10.732 4.177-13.287 8.317-2.349 3.807-2.882 9.34-2.472 14.827 12.285-3.161 22.72-10.908 29.404-21.297-3.786-2.059-8.711-2.759-13.645-1.847z"/><path fill="#FFF" d="M740.449 496.606c3.186-5.161 9.004-8.86 15.963-10.148 5.969-1.106 11.796-.255 16.415 2.318a49.474 49.474 0 0 0 5.842-23.387c0-24.053-17.084-44.115-39.78-48.717a28.632 28.632 0 0 1 3.583 4.211c6.352 9.181 5.842 22.018-1.161 29.223-4.007 4.122-9.483 6.203-14.779 8.217-6.175 2.347-12.007 4.563-14.776 9.726-1.79 3.335-1.909 7.286-2.034 11.47-.09 2.962-.182 6.025-.889 9.006-1.229 5.18-4.439 10.289-9.283 14.775-.428.396-.869.778-1.313 1.156 8.458 6.66 19.121 10.645 30.722 10.645 2.887 0 5.712-.26 8.465-.732-.547-6.457.11-13.039 3.025-17.763z"/><path fill="#FFF" d="M704.94 487.6c.613-2.584.695-5.313.782-8.203.135-4.461.273-9.075 2.508-13.239 3.477-6.48 10.291-9.07 16.881-11.574 4.889-1.858 9.943-3.779 13.331-7.265 5.718-5.884 6.043-16.495.741-24.16-1.996-2.885-4.703-5.389-7.942-7.423a50.813 50.813 0 0 0-2.283-.058c-27.455 0-49.711 22.256-49.711 49.711 0 14.396 6.127 27.357 15.907 36.435a38.792 38.792 0 0 0 1.678-1.46c4.259-3.946 7.063-8.359 8.108-12.764z"/><path fill="#FFD829" d="M708.832 488.523c.707-2.98.799-6.044.889-9.006.125-4.184.244-8.135 2.034-11.47 2.77-5.162 8.602-7.379 14.776-9.726 5.296-2.014 10.772-4.095 14.779-8.217 7.003-7.205 7.513-20.042 1.161-29.223a28.684 28.684 0 0 0-3.583-4.211 49.845 49.845 0 0 0-7.648-.937c3.239 2.033 5.946 4.537 7.942 7.423 5.302 7.665 4.977 18.276-.741 24.16-3.388 3.485-8.442 5.406-13.331 7.265-6.59 2.504-13.404 5.094-16.881 11.574-2.234 4.164-2.373 8.778-2.508 13.239-.087 2.89-.169 5.619-.782 8.203-1.045 4.405-3.849 8.818-8.108 12.764-.544.504-1.105.989-1.678 1.46.99.919 2.02 1.794 3.083 2.631.444-.378.885-.76 1.313-1.156 4.844-4.484 8.055-9.593 9.283-14.773zM756.411 486.458c-6.959 1.288-12.777 4.987-15.963 10.148-2.915 4.724-3.572 11.306-3.026 17.761a49.245 49.245 0 0 0 3.958-.833c-.41-5.487.123-11.02 2.472-14.827 2.555-4.141 7.522-7.25 13.287-8.317 4.934-.911 9.859-.211 13.645 1.847a49.465 49.465 0 0 0 2.042-3.461c-4.618-2.573-10.446-3.424-16.415-2.318z"/><g><path fill="#FFD829" d="M546.143 135.848 957.332 1.095l-71.406 134.753 71.406 134.753z"/><path d="M957.332 272.601c-.208 0-.418-.032-.623-.1l-411.19-134.753a2 2 0 0 1 0-3.8L956.709-.806a2 2 0 0 1 2.39 2.837l-70.91 133.816 70.91 133.816a2 2 0 0 1-1.767 2.938zM552.564 135.848l400.679 131.309-69.085-130.372a2.002 2.002 0 0 1 0-1.873L953.243 4.539 552.564 135.848z"/><g><path fill="#FFF" d="M192.2 1078.264a2 2 0 0 1-1.205-3.598l78.639-59.243c45.616-34.407 60.538-56.096 66.526-96.691l4.458-30.223a84.98 84.98 0 0 1 28.528-51.906 84.982 84.982 0 0 1 55.515-20.648h224.924c28.676 0 52.006-23.33 52.006-52.006 0-32.517-26.454-58.971-58.971-58.971H535.735c-33.803 0-61.303-27.5-61.303-61.303 0-33.802 27.5-61.302 61.303-61.302h182.169c78.981 0 143.237-64.256 143.237-143.237 0-37.949-14.693-73.712-41.372-100.7-26.68-26.987-62.271-42.091-100.218-42.527l-174.093-2.003c-18.562-.214-35.973-7.603-49.022-20.804-13.051-13.202-20.238-30.696-20.238-49.26v-19.934c0-18.899 7.411-36.617 20.867-49.888 13.457-13.271 31.296-20.467 50.174-20.173a2 2 0 0 1-.026 4h-.028c-17.792-.251-34.622 6.507-47.311 19.021-12.688 12.514-19.676 29.22-19.676 47.04v19.934c0 36.013 29.297 65.648 65.308 66.063l174.093 2.003c39.006.449 75.591 15.974 103.016 43.716 27.424 27.741 42.527 64.503 42.527 103.512 0 81.187-66.051 147.237-147.237 147.237h-182.17c-31.597 0-57.303 25.705-57.303 57.302s25.706 57.303 57.303 57.303H642.62c34.723 0 62.971 28.248 62.971 62.97 0 30.882-25.124 56.007-56.006 56.007H424.661a80.973 80.973 0 0 0-52.9 19.676 80.98 80.98 0 0 0-27.186 49.463l-4.458 30.223c-6.173 41.854-21.442 64.127-68.076 99.302l-78.64 59.244c-.36.27-.782.401-1.201.401z"/></g></g><g><path d="M193.734 369.945a2 2 0 0 1-2-2V214.523a2 2 0 0 1 4 0v153.422a2 2 0 0 1-2 2z"/></g><g><path fill="#FFF" d="M991.25 929.065c-.372.002-.741.015-1.108.035a62.051 62.051 0 0 0-4.229-13.243l-46.26-103.407c17.905-17.24 28.984-41.504 28.811-68.322-.334-51.91-42.687-93.721-94.598-93.386-51.91.334-93.721 42.687-93.386 94.597.173 26.937 11.675 51.141 29.942 68.161l-43.746 6.043c-9.41 1.3-16.178 9.705-15.44 19.176.738 9.471 8.727 16.728 18.226 16.553l54.427-.999 5.119 11.644 57.521-34.236a2.002 2.002 0 0 1 2.741.696 1.994 1.994 0 0 1-.034 2.085 18.02 18.02 0 0 0-1.886 1.058l-38.523 23.255-18.197 10.831.054.122-37.028 22.353c-7.955 5.192-10.488 15.682-5.779 23.931 4.709 8.25 15.032 11.403 23.547 7.191l34.833-18.046.041.093 58.243-29.581a2 2 0 0 1 1.81 3.566l-58.441 29.682 25.067 57.023a61.774 61.774 0 0 0 8.48 13.935l-36.672 57.485c-4.825 8.183-2.439 18.708 5.442 24.01 7.882 5.303 18.531 3.547 24.293-4.006l41.151-56.088a61.55 61.55 0 0 0 30.895-.818c.472-.135.928-.297 1.395-.442l5.131 60.187c1.138 9.431 9.427 16.342 18.909 15.766 9.483-.575 16.875-8.44 16.863-17.939l-1.694-85.004c1.413.273 2.873.413 4.367.404 12.251-.079 22.118-10.074 22.039-22.325-.08-12.252-10.075-22.119-22.326-22.04z"/><circle fill="#FFF" cx="959.268" cy="667.054" r="20.084"/><path d="M872.262 752.539c-1.946-2.173-5.297-2.358-7.433-.445a5.295 5.295 0 0 0-.412 7.469c1.913 2.136 5.264 2.321 7.436.375 2.137-1.912 2.322-5.263.409-7.399zM833.598 747.305c2.243 2.504 5.109 2.592 7.854 2.324-.569 2.699-.797 5.558 1.446 8.062.824.921 1.808 1.5 2.655.742a1.328 1.328 0 0 0 .104-1.885c-.198-.221-.634-.56-.865-.818-1.055-1.179-.762-3.963-.349-5.726 3.112.067 6.835-.148 9.229-2.292 2.762-2.473 2.834-6.321.229-9.23-2.605-2.909-6.437-3.261-9.199-.787-2.394 2.144-3.017 5.82-3.293 8.921-1.797.216-4.597.202-5.653-.977-.231-.258-.52-.729-.718-.95a1.329 1.329 0 0 0-1.885-.104c-.847.758-.379 1.8.445 2.72zM841.934 718.672c-1.946-2.173-5.297-2.358-7.433-.445a5.295 5.295 0 0 0-.412 7.469c1.913 2.136 5.264 2.321 7.436.375 2.137-1.913 2.322-5.263.409-7.399zM972.35 691.742l-20.377-8.342a10.84 10.84 0 0 0 .809-4.183c-.038-5.827-4.664-10.539-10.428-10.764l-1.485-20.066c-.548-7.401-9.008-11.327-15.013-6.966l-14.963 10.865c-6.005 4.361-4.891 13.62 1.978 16.432l18.614 7.62c-.271.96-.421 1.971-.414 3.019.039 5.996 4.93 10.825 10.926 10.786.247-.001.488-.024.73-.042l1.626 21.971c.548 7.401 9.008 11.327 15.013 6.966l14.963-10.865c6.004-4.359 4.89-13.619-1.979-16.431z"/></g><g><path fill="#FFD829" d="M650.609 603.789c-4.883-37.971-21.057-72.252-45.544-96.527-24.076-23.867-55.538-37.801-90.985-40.297-36.256-2.551-76.409 6.758-119.352 27.672-47.753 23.256-87.495 30.003-114.934 19.515-20.654-7.896-30.068-24.178-32.644-29.413-.585-1.668-.897-3.428-.843-5.195.092-3.052.906-5.755 2.634-11.993 2.481-6.338 2.45-13.564-.427-20.039l-8.195-23.061-10.251-28.848-14.005-40.148-.063.02c-.001-.003.001-.008-.001-.012-2.514-7.07-10.284-10.766-17.356-8.253-7.07 2.514-10.765 10.281-8.255 17.352.145.405.312.796.489 1.177l13.587 38.968-.11.037-14.294-40.967-3.069-8.675c-2.792-6.548-10.227-9.884-17.025-7.468-7.074 2.512-10.768 10.282-8.254 17.356.143.405 3.274 9.509 3.452 9.89l13.586 38.967-.108.037-14.006-40.151-5.747-16.681.177.522c-2.514-7.069-10.464-11.301-17.536-8.791-7.071 2.509-10.766 10.281-8.254 17.351.144.408 5.999 17.5 6.176 17.88l13.584 38.969-.108.036-14.585-41.783-2.784-7.609c-3.036-6.024-10.142-8.994-16.667-6.677-6.519 2.32-10.157 9.11-8.714 15.698l2.561 7.689-2.466-7.255c.106.411 2.836 8.486 2.979 8.894.145.405.308.795.485 1.177l17.45 49.827c-.298.148-1.538.597-1.836.746l-19.566-29.474-.052.039-.012-.016c-4.15-6.251-12.585-7.954-18.834-3.806-6.252 4.152-7.958 12.586-3.805 18.835.237.359.49.693.752 1.019l37.709 56.803a38.96 38.96 0 0 0 1.439 2.365c5.164 7.776 13.999 12.569 22.288 15.061 5.574 1.716 11.151 5.139 13.359 11.448 4.171 10.627 25.541 58.081 82.059 81.048 52.563 21.358 116.302 14.127 189.448-21.497 28.157-13.713 53.619-20.22 73.624-18.808 14.04.988 25.142 5.71 33.944 14.435 10.326 10.237 17.302 25.895 19.641 44.088 2.336 18.169-.257 36.848-7.115 51.246-9.385 19.704-18.993 33.121-29.166 47.326-14.51 20.263-29.514 41.214-39.135 74.502-6.541 22.63-9.896 53.241-10.197 85.724h89.997c.26-23.481 2.47-46.235 6.661-60.735 5.33-18.441 13.491-29.839 25.846-47.091 10.884-15.198 24.43-34.113 37.248-61.025 14.301-30.03 19.673-66.049 15.125-101.424z"/><path d="M565.727 876.063h-89.998a2 2 0 0 1-2-2.019c.313-33.784 3.964-64.419 10.277-86.261 9.715-33.615 24.819-54.708 39.426-75.105 10.123-14.136 19.682-27.482 28.99-47.027 6.697-14.06 9.226-32.331 6.938-50.131-2.282-17.753-9.054-32.997-19.065-42.923-8.446-8.373-19.135-12.907-32.676-13.86-19.652-1.388-44.761 5.05-72.607 18.611-73.678 35.884-137.964 43.134-191.076 21.552-57.661-23.432-79.396-72.561-83.168-82.171-2.129-6.078-7.745-8.931-12.085-10.267-5.979-1.797-16.982-6.254-23.366-15.866a40.609 40.609 0 0 1-1.479-2.425l-37.62-56.669a15.465 15.465 0 0 1-3.096-12.8 15.49 15.49 0 0 1 6.658-9.901c7.022-4.663 16.483-2.866 21.328 3.961.131.11.247.238.343.383L126.623 436l-14.744-42.099a16.72 16.72 0 0 1-.51-1.249c-.029-.084-2.892-8.516-3.034-9.072a2.157 2.157 0 0 1-.052-.292l-.003-.008a2.272 2.272 0 0 1-.057-.204c-1.674-7.643 2.624-15.386 9.997-18.01a15.575 15.575 0 0 1 12.984 1.184 15.476 15.476 0 0 1 .798-11.361 15.47 15.47 0 0 1 8.857-7.99c7.239-2.569 15.494.986 19.141 7.849.133-.339.278-.674.437-1.006a15.486 15.486 0 0 1 8.859-7.993c7.678-2.729 16.188.963 19.462 8.403 1.619-3.979 4.86-7.278 9.215-8.827 7.948-2.822 16.691 1.211 19.739 9.009.099.141.18.295.238.463l14.006 40.147 18.417 51.828c2.965 6.727 3.135 14.52.468 21.411l-.352 1.265c-1.446 5.203-2.106 7.578-2.184 10.157-.043 1.422.189 2.889.692 4.36 2.411 4.86 11.575 20.698 31.51 28.318 26.91 10.285 66.103 3.562 113.344-19.444 43.259-21.069 83.752-30.449 120.368-27.869 35.931 2.529 67.832 16.662 92.253 40.872 24.801 24.586 41.18 59.281 46.119 97.692 4.597 35.751-.839 72.167-15.305 102.539-12.894 27.07-26.496 46.064-37.426 61.326-12.235 17.086-20.317 28.371-25.553 46.485-3.909 13.528-6.309 35.471-6.582 60.201a1.996 1.996 0 0 1-1.998 1.978zm-87.975-4h86.002c.382-24.27 2.813-45.794 6.713-59.29 5.427-18.772 13.667-30.28 26.142-47.699 10.84-15.137 24.327-33.972 37.068-60.722 14.14-29.687 19.448-65.31 14.949-100.309-4.826-37.532-20.797-71.399-44.969-95.362-23.731-23.525-54.755-37.261-89.718-39.722-35.899-2.531-75.717 6.718-118.335 27.475-48.261 23.503-88.556 30.275-116.523 19.585-21.448-8.199-31.236-25.34-33.726-30.398a2.396 2.396 0 0 1-.093-.221c-.692-1.976-1.014-3.966-.954-5.917.092-3.062.839-5.751 2.328-11.107l.377-1.359c.019-.066.04-.131.065-.194 2.329-5.952 2.187-12.694-.393-18.499-.021-.046-.039-.094-.057-.142l-18.446-51.909-13.849-39.697a1.859 1.859 0 0 1-.256-.546c-2.18-5.954-8.778-9.065-14.765-6.936-6.019 2.14-9.177 8.778-7.04 14.798.123.346.269.682.42 1.011.027.058.051.117.072.178l13.588 38.967a2 2 0 0 1-1.236 2.549l-.11.038a2 2 0 0 1-2.541-1.231l-14.294-40.967-3.044-8.604c-2.411-5.577-8.769-8.348-14.492-6.313a11.507 11.507 0 0 0-6.586 5.941 11.515 11.515 0 0 0-.453 8.859l.46 1.331c.748 2.164 2.732 7.912 2.947 8.443.028.062.027.063.05.128l13.586 38.967a2 2 0 0 1-1.221 2.543l-.107.038a2.008 2.008 0 0 1-1.533-.081 2.003 2.003 0 0 1-1.023-1.145l-14.007-40.152-5.535-16.066a2.685 2.685 0 0 1-.031-.081c-2.205-6.204-9.065-9.677-14.983-7.575a11.498 11.498 0 0 0-6.583 5.939 11.508 11.508 0 0 0-.455 8.856l.761 2.214c1.397 4.071 5.11 14.886 5.38 15.574.028.062.018.041.04.104l13.584 38.969a2 2 0 0 1-1.256 2.556l-.108.036a2 2 0 0 1-2.521-1.238l-14.585-41.782-2.732-7.468c-2.644-5.125-8.711-7.529-14.161-5.594-5.447 1.938-8.637 7.638-7.45 13.286l2.525 7.585c.043.129.072.259.088.388.225.663.381 1.122.415 1.218.121.339.263.676.414 1.006.026.057.051.115.071.175l17.45 49.827a2 2 0 0 1-.996 2.451c-.177.088-.632.271-1.089.448-.308.119-.616.236-.76.304-.898.416-1.998.134-2.545-.69l-19.285-29.051a2.144 2.144 0 0 1-.345-.401v.001c-3.534-5.326-10.742-6.777-16.062-3.247-2.579 1.713-4.337 4.327-4.95 7.361a11.496 11.496 0 0 0 2.349 9.572c.039.048.075.097.108.147l37.709 56.804c.026.039.051.079.074.12.497.879.932 1.592 1.365 2.245 5.689 8.566 15.724 12.606 21.198 14.253 7.5 2.307 12.568 6.698 14.67 12.701 3.641 9.274 24.777 57.04 80.925 79.857 52.019 21.138 115.208 13.921 187.818-21.442 28.479-13.87 54.286-20.442 74.641-19.006 14.537 1.023 26.055 5.934 35.211 15.011 10.642 10.55 17.82 26.621 20.216 45.253 2.384 18.541-.274 37.626-7.293 52.361-9.461 19.864-19.12 33.352-29.346 47.63-14.414 20.129-29.314 40.938-38.839 73.894-6.091 21.068-9.665 50.537-10.098 83.166z"/><g><path d="M192.197 487.546a2 2 0 0 1-1.997-1.923c-.036-.852-1.133-21.073-22.401-32.772-21.587-11.873-36.963-7.234-37.116-7.186a2 2 0 0 1-1.205-3.815c.691-.219 17.179-5.195 40.249 7.496 23.311 12.821 24.434 35.177 24.47 36.122a1.998 1.998 0 0 1-1.921 2.075c-.027.003-.053.003-.079.003z"/></g></g><g><path d="M200.784 453.832a1.999 1.999 0 0 1-1.481-3.343c.508-.562 51.838-56.452 137.627-86.771 50.404-17.813 102.685-23.47 155.385-16.811 65.813 8.315 132.443 35.968 198.038 82.19a2 2 0 0 1-2.305 3.269c-65.054-45.841-131.077-73.259-196.234-81.492-52.077-6.578-103.739-.989-153.552 16.614-84.847 29.985-135.494 85.132-135.995 85.685a1.993 1.993 0 0 1-1.483.659z"/><path d="M689.2 432.733c-.109 0-.221-.009-.331-.027l-60.075-10.088a2 2 0 0 1 .662-3.946l55.135 9.259-33.123-44.049a2.001 2.001 0 0 1 3.197-2.405l36.134 48.053a2.002 2.002 0 0 1-1.599 3.203z"/></g><g><path d="M885.926 137.848H547.212a2 2 0 0 1 0-4h338.714a2 2 0 0 1 0 4z"/></g></svg>