<svg xmlns="http://www.w3.org/2000/svg" width="1427.9" height="778.28" xml:space="preserve"><path d="M1078.885 481.839H927.709v-4h147.176V4H291.004l-76.47 76.47v107.211h-4V78.813L289.347 0h789.538z"/><path d="M290.176 81.642h-77.642a2 2 0 0 1-1.414-3.414L288.762.586A2 2 0 0 1 292.176 2v77.642a2 2 0 0 1-2 2zm-72.813-4h70.813V6.828l-70.813 70.814z"/><path fill="#F68635" d="m1254.339 579.029 54.385-16.819-17.359-56.149-54.389 16.813z"/><path d="m1253.019 581.531-18.545-59.978 58.211-17.994 18.54 59.971-58.206 18.001zm-13.541-57.337 16.182 52.333 50.563-15.638-16.179-52.328-50.566 15.633z"/><path fill="#F68635" d="M1260.357 364.677c-43.938-.27-80.189 33.212-84.221 76.149l-.201-.515-15.507 19.239 17.364 7.625c8.351 37.387 41.59 65.444 81.531 65.691 46.444.283 84.324-37.137 84.61-83.58.286-46.442-37.133-84.323-83.576-84.609z"/><path d="M1259.853 534.869h-.006l-.535-.002c-19.593-.121-38.723-7-53.865-19.369-14.652-11.969-25.057-28.59-29.379-46.896l-16.443-7.221a2.002 2.002 0 0 1-.754-3.086l15.427-19.14c2.304-20.689 12.016-39.789 27.453-53.919 15.896-14.549 36.522-22.562 58.08-22.562l.539.002c47.472.293 85.855 39.151 85.564 86.623-.291 47.183-38.907 85.57-86.081 85.57zm-96.228-76.098 14.971 6.574c.583.256 1.01.773 1.148 1.396 3.981 17.825 14.008 34.04 28.232 45.66 14.438 11.793 32.677 18.352 51.359 18.467l.511.002c44.986.002 81.81-36.601 82.087-81.595.278-45.266-36.323-82.318-81.59-82.598l-.514-.002c-20.556 0-40.223 7.641-55.38 21.514-15.071 13.795-24.42 32.556-26.323 52.824-.084.893-.797 1.417-1.623 1.779l-12.878 15.979z"/><path d="m1340.368 419.879 42.306 18.637-26.898 27.104 10.051 35.474-33.624-3.067-11.648 32.138-49.756-47.944s28.35-1.782 21.18-38.587l-43.878-24.133 92.267.378zM1220.3 446.561c-.032 5.96-4.891 10.767-10.855 10.732-5.96-.032-10.767-4.891-10.731-10.854.031-5.96 4.89-10.763 10.853-10.733 5.961.035 10.766 4.894 10.733 10.855z"/><path d="M1231.846 450.938a1.997 1.997 0 0 1-1.657-.877 24.146 24.146 0 0 0-19.85-10.604 2 2 0 0 1 .011-4h.011a28.148 28.148 0 0 1 23.139 12.357 2 2 0 0 1-1.654 3.124z"/><path fill="#FFF" d="m1341.368 419.879.269-61.383a6.62 6.62 0 0 0-6.591-6.648l-147.343-.648a6.62 6.62 0 0 0-6.65 6.593l-.271 61.38 160.586.706z"/><path fill="#FFF" d="m1191.909 403.714-.098 15.533-68.713-.423z"/><path fill="#F68635" d="M1185.792 488.618s18.433 7.508 35.71-8.492"/><path d="M1196.592 492.418c-6.619 0-11.171-1.791-11.555-1.947a2.001 2.001 0 0 1 1.506-3.706c.717.288 17.521 6.785 33.6-8.106a2.002 2.002 0 0 1 2.719 2.935c-9.39 8.694-19.057 10.824-26.27 10.824z"/><path fill="#F68635" d="M1262.577 426.054a28.127 28.127 0 0 1 3.222-.171c15.686.087 28.336 12.873 28.25 28.56-.088 15.689-12.874 28.338-28.562 28.251a28.377 28.377 0 0 1-6.925-.894"/><path d="M1265.647 484.693h-.171a30.529 30.529 0 0 1-7.41-.956 2 2 0 0 1-1.441-2.434 1.999 1.999 0 0 1 2.434-1.441c2.11.541 4.276.82 6.438.831h.148c14.493 0 26.322-11.749 26.403-26.262.08-14.559-11.701-26.468-26.261-26.549a26.008 26.008 0 0 0-2.994.159 2.009 2.009 0 0 1-2.205-1.771 2 2 0 0 1 1.771-2.205 35.12 35.12 0 0 1 3.451-.183c16.764.093 30.329 13.807 30.237 30.57-.092 16.711-13.714 30.241-30.4 30.241z"/><path fill="#F68635" d="m1276.679 446.833-17.525 18.845"/><path d="M1259.154 467.678a2.002 2.002 0 0 1-1.465-3.362l17.525-18.845a2 2 0 0 1 2.93 2.724l-17.525 18.845a1.999 1.999 0 0 1-1.465.638z"/><g><path fill="#F68635" d="m1271.285 628.223-84.387 19.729c-9.273 2.899-19.708 1.909-28.614-3.62l-102.607-63.719.039-.062c-4.83-1.779-9.937-3.063-15.068-3.457-6.229-.476-11.734-2.052-16.998-4.336-4.37-1.894-8.575-4.275-12.88-6.917l-20.293-12.457-21.451-13.17s.027-.044.014-.05c-4.971-3.052-6.531-9.561-3.474-14.536 3.053-4.975 9.56-6.53 14.534-3.477.289.175.558.365.821.559l20.614 12.656.046-.073-27.192-16.693s.024-.044.013-.047c-4.974-3.057-6.53-9.563-3.479-14.54 3.054-4.972 9.562-6.532 14.54-3.477.285.175.555.364.815.561l26.362 16.18.048-.073-32.939-20.219s.023-.045.018-.048c-4.977-3.055-6.533-9.565-3.48-14.539 3.054-4.975 9.563-6.533 14.538-3.479.284.175.555.363.815.559l32.103 19.709.05-.075-27.195-16.693s.025-.042.016-.053c-4.977-3.05-6.533-9.556-3.478-14.532 3.053-4.976 9.562-6.532 14.535-3.48.286.177.557.364.818.562l33.835 20.771c.147-.076.292-.162.439-.237l-12.858-13.17s.036-.03.023-.042c-4.086-4.169-4.02-10.861.146-14.947 4.169-4.089 10.859-4.021 14.946.146.235.239.447.483.654.735l30.725 31.386c.533.474 1.062.959 1.569 1.479a29.795 29.795 0 0 1 8.454 18.458c.587 3.207 2.135 9.164 5.829 12.266l-.01.019 90.278 56.061 72.994-17.07"/><path d="M1175.13 651.509a36.576 36.576 0 0 1-17.902-5.479l-102.607-63.719a1.914 1.914 0 0 1-.105-.07c-4.882-1.755-9.597-2.815-14.021-3.153-5.943-.454-11.714-1.925-17.642-4.496-4.966-2.152-9.626-4.897-13.13-7.048l-41.745-25.627a1.982 1.982 0 0 1-.375-.298 12.49 12.49 0 0 1-5.258-7.538 12.488 12.488 0 0 1 1.516-9.501 12.482 12.482 0 0 1 7.728-5.634c-4.474-3.968-5.603-10.71-2.371-15.979a12.536 12.536 0 0 1 7.74-5.631c-4.481-3.967-5.612-10.713-2.377-15.986a12.49 12.49 0 0 1 7.788-5.648 12.485 12.485 0 0 1 7.534.526 12.483 12.483 0 0 1 1.527-9.442 12.487 12.487 0 0 1 7.786-5.648 12.487 12.487 0 0 1 10.395 2.119l21.689 13.314-2.828-2.896a2.01 2.01 0 0 1-.281-.364c-4.537-4.968-4.357-12.703.482-17.45 4.946-4.853 12.92-4.774 17.774.174.256.26.488.524.716.797l30.616 31.275c.459.41 1.049.945 1.621 1.532a31.974 31.974 0 0 1 9.006 19.587c.459 2.462 1.848 8.245 5.131 11.002l.003.003 89.331 55.472 72.188-16.882a1.995 1.995 0 0 1 2.402 1.492 2 2 0 0 1-1.492 2.402l-72.994 17.071a2.013 2.013 0 0 1-1.511-.249l-90.278-56.061a1.95 1.95 0 0 1-.458-.392c-3.993-3.538-5.643-9.782-6.273-13.232a1.593 1.593 0 0 1-.025-.193 27.966 27.966 0 0 0-7.889-17.224 28.828 28.828 0 0 0-1.471-1.386 2.232 2.232 0 0 1-.101-.096l-30.725-31.385a1.78 1.78 0 0 1-.115-.13 9.714 9.714 0 0 0-.537-.604c-3.31-3.372-8.746-3.427-12.118-.119-3.373 3.309-3.426 8.745-.119 12.12.102.104.19.217.267.339l12.571 12.875c.445.456.646 1.098.543 1.726a2.004 2.004 0 0 1-1.071 1.457l-.422.229a2.003 2.003 0 0 1-1.966-.071l-33.835-20.771a1.788 1.788 0 0 1-.153-.104 8.521 8.521 0 0 0-7.141-1.486 8.51 8.51 0 0 0-5.309 3.851 8.516 8.516 0 0 0-1.033 6.479 8.496 8.496 0 0 0 3.852 5.304c.131.08.252.176.361.284l26.818 16.463c.463.283.789.742.906 1.271a1.99 1.99 0 0 1-.284 1.535c-.595.9-1.843 1.242-2.765.677l-32.103-19.709a1.745 1.745 0 0 1-.151-.103 8.508 8.508 0 0 0-7.14-1.486 8.508 8.508 0 0 0-5.311 3.852c-2.472 4.027-1.205 9.315 2.823 11.788.127.078.244.17.35.273l32.572 19.993a2.002 2.002 0 0 1 .63 2.794c-.592.909-1.848 1.255-2.771.688l-26.362-16.18a2.024 2.024 0 0 1-.159-.108 8.57 8.57 0 0 0-.657-.453c-4.024-2.471-9.314-1.207-11.788 2.82-2.469 4.026-1.204 9.316 2.822 11.789.122.076.237.164.341.265l26.838 16.476a1.998 1.998 0 0 1 .65 2.762c-.581.934-1.853 1.296-2.789.72l-20.614-12.655a1.83 1.83 0 0 1-.137-.093 9.467 9.467 0 0 0-.677-.462 8.51 8.51 0 0 0-6.483-1.036 8.507 8.507 0 0 0-5.309 3.85 8.513 8.513 0 0 0-1.032 6.479 8.504 8.504 0 0 0 3.849 5.308c.125.078.243.17.349.272l41.382 25.404c5.037 3.092 8.933 5.185 12.628 6.786 5.59 2.425 10.787 3.752 16.355 4.176 4.947.38 10.197 1.583 15.607 3.575.303.111.57.293.783.526l102.148 63.433a32.618 32.618 0 0 0 26.963 3.41c.048-.015.094-.028.142-.038l84.387-19.729a2 2 0 0 1 .91 3.895l-84.316 19.711a36.811 36.811 0 0 1-12.294 1.623z"/></g><g><path d="m1262.618 776.279-49.782-175.704c-4.16-14.504 6.129-30.178 22.98-35.009l48.07-13.791c71.652-20.554 86.707 31.938 93.58 55.899l47.788 168.472-162.636.133z"/><path d="m1261.106 778.28-.412-1.456-49.782-175.704c-2.174-7.577-.803-15.667 3.862-22.774 4.604-7.012 11.881-12.233 20.491-14.702l48.069-13.791c10.988-3.151 21.242-4.75 30.478-4.75 47.787 0 59.801 41.884 65.574 62.012l48.514 171.03-166.794.135zm52.706-229.177c-8.862 0-18.745 1.546-29.374 4.596l-48.07 13.791c-7.69 2.204-14.172 6.84-18.249 13.052-4.017 6.117-5.21 13.037-3.36 19.482l49.371 174.255 158.479-.13-47.066-165.928c-5.927-20.663-16.958-59.118-61.731-59.118z"/></g><g><path fill="#F68635" d="m69.784 582.489 100.742-210.766-.066-.03c3.12-4.092 6.741-7.917 10.861-11.004 5-3.741 8.801-8.027 12.019-12.778 2.671-3.943 4.942-8.209 7.156-12.746l10.444-21.401 11.035-22.622s-.045-.022-.038-.035c2.559-5.242.383-11.57-4.866-14.129-5.245-2.562-11.572-.382-14.132 4.862a10.92 10.92 0 0 0-.391.912l-10.606 21.741-.081-.038 13.992-28.677s-.044-.022-.037-.032c2.559-5.246.382-11.573-4.863-14.137-5.247-2.556-11.575-.381-14.136 4.868-.147.298-.274.604-.389.909l-13.564 27.798-.082-.036 16.949-34.734s-.044-.023-.038-.031c2.559-5.249.38-11.575-4.865-14.136-5.245-2.559-11.573-.384-14.133 4.865-.147.299-.274.603-.391.909l-16.516 33.854-.082-.036 13.991-28.677s-.042-.023-.039-.039c2.563-5.242.386-11.569-4.862-14.13-5.246-2.561-11.574-.38-14.132 4.864-.146.302-.275.605-.39.912l-17.408 35.681c-.165.015-.335.02-.499.035l3.786-18.012s-.048-.008-.044-.023c1.211-5.71-2.435-11.323-8.145-12.534-5.708-1.214-11.32 2.433-12.533 8.142-.069.328-.116.648-.155.972l-9.09 42.969a32.868 32.868 0 0 0-.533 2.094 29.81 29.81 0 0 0 2.77 20.11c1.227 3.021 3.117 8.878 1.664 13.48l.018.007-94.45 197.69"/><path d="M69.783 584.489a2 2 0 0 1-1.803-2.862l100.541-210.346c.053-.288.168-.563.349-.801 3.496-4.584 7.281-8.417 11.252-11.392 4.471-3.346 8.145-7.254 11.562-12.299 2.261-3.339 4.424-7.194 7.014-12.502l21.292-43.64a2.01 2.01 0 0 1 .149-.419 8.507 8.507 0 0 0 .401-6.543 8.51 8.51 0 0 0-4.347-4.911 8.509 8.509 0 0 0-6.545-.403 8.514 8.514 0 0 0-5.232 5.092 1.716 1.716 0 0 1-.072.165l-10.606 21.741a2 2 0 0 1-2.648.934c-.485-.229-.898-.66-1.076-1.165-.178-.505-.187-1.079.048-1.561l13.808-28.3c.034-.141.083-.277.147-.409 2.07-4.245.301-9.388-3.944-11.463-4.247-2.07-9.388-.299-11.46 3.948a8.112 8.112 0 0 0-.315.737 2.023 2.023 0 0 1-.074.172L174.66 296.06a1.997 1.997 0 0 1-2.607.951c-.497-.22-.923-.65-1.109-1.161-.187-.51-.198-1.092.041-1.58l16.764-34.355c.034-.142.083-.278.147-.409 2.07-4.248.301-9.39-3.945-11.463a8.513 8.513 0 0 0-6.545-.401 8.51 8.51 0 0 0-4.913 4.347 8.51 8.51 0 0 0-.321.746 1.959 1.959 0 0 1-.071.163l-16.516 33.854a1.997 1.997 0 0 1-2.607.951c-.497-.22-.923-.65-1.109-1.16-.187-.511-.198-1.093.041-1.581l13.8-28.287c.034-.148.085-.293.152-.431a8.498 8.498 0 0 0 .404-6.541 8.512 8.512 0 0 0-4.346-4.912 8.51 8.51 0 0 0-6.546-.401 8.508 8.508 0 0 0-5.227 5.083c-.022.06-.047.117-.075.174l-17.408 35.681a1.997 1.997 0 0 1-1.621 1.115l-.486.034a2 2 0 0 1-2.147-2.402l3.7-17.602a2.027 2.027 0 0 1 .043-.438 8.516 8.516 0 0 0-1.197-6.449c-1.247-1.92-3.167-3.238-5.406-3.714s-4.528-.051-6.448 1.196a8.513 8.513 0 0 0-3.84 6.201 2.036 2.036 0 0 1-.029.174l-9.09 42.969c-.009.045-.021.09-.033.134a29.372 29.372 0 0 0-.5 1.966 27.974 27.974 0 0 0 2.585 18.762c.03.058.058.116.082.177 1.322 3.255 3.287 9.427 1.799 14.564a1.943 1.943 0 0 1-.166.537l-94.449 197.69a2 2 0 1 1-3.609-1.725l94.329-197.439c1.291-4.091-.641-9.715-1.575-12.036a31.985 31.985 0 0 1-2.908-21.365c.141-.657.31-1.324.547-2.16l9.058-42.817a12.486 12.486 0 0 1 5.621-8.986 12.49 12.49 0 0 1 9.458-1.754 12.486 12.486 0 0 1 7.929 5.446 12.486 12.486 0 0 1 1.843 9.012c.004.155-.009.312-.042.467l-.833 3.962 11.159-22.873a12.49 12.49 0 0 1 7.635-7.366 12.48 12.48 0 0 1 9.603.589c3 1.464 5.256 4.002 6.355 7.15a12.48 12.48 0 0 1 6.075-4.486 12.493 12.493 0 0 1 9.601.589c5.559 2.714 8.223 9.014 6.572 14.766a12.544 12.544 0 0 1 9.552.597c5.557 2.716 8.22 9.012 6.572 14.76a12.492 12.492 0 0 1 9.548.609 12.484 12.484 0 0 1 6.375 7.204c1.042 3.026.9 6.268-.393 9.177a1.951 1.951 0 0 1-.158.457l-21.479 44.023c-2.676 5.483-4.926 9.49-7.297 12.99-3.624 5.352-7.706 9.688-12.477 13.259-3.554 2.662-6.964 6.089-10.144 10.192a2.94 2.94 0 0 1-.045.103L71.589 583.352a2.001 2.001 0 0 1-1.806 1.137z"/></g><g><path fill="#F68635" d="M264.522 663.56c-8.228-.001-15.172-5.904-16.512-14.036l-68.414-415.11L1024.541 95.16l68.415 415.111c1.502 9.115-4.693 17.756-13.81 19.261L267.27 663.333c-.91.15-1.834.227-2.748.227zm372.275-434.301c-7.211 0-14.505.6-21.677 1.781-71.995 11.866-120.915 80.092-109.05 152.087 5.131 31.134 21.239 59.448 45.355 79.728 23.854 20.059 54.062 31.105 85.057 31.105 7.21 0 14.503-.6 21.675-1.781 71.995-11.865 120.915-80.092 109.052-152.09-5.132-31.133-21.24-59.446-45.356-79.725-23.854-20.058-54.061-31.105-85.056-31.105z"/><path fill="#FFF" d="m1022.893 97.459 68.089 413.138c1.323 8.027-4.133 15.638-12.16 16.962l-811.877 133.8c-.802.133-1.617.199-2.422.199-7.244 0-13.358-5.198-14.539-12.36L181.896 236.06l840.997-138.601M636.482 495.96c7.319 0 14.721-.608 22-1.809 35.403-5.834 66.415-25.106 87.323-54.266 20.908-29.16 29.21-64.718 23.377-100.122-5.21-31.604-21.562-60.346-46.043-80.932-24.215-20.361-54.878-31.574-86.343-31.573-7.322 0-14.724.608-22.002 1.808-35.403 5.835-66.416 25.107-87.324 54.268-20.908 29.159-29.209 64.715-23.375 100.118 5.208 31.604 21.56 60.347 46.042 80.933 24.215 20.361 54.88 31.575 86.345 31.575m389.707-403.099L177.298 232.765l68.739 417.084c1.514 9.188 9.469 15.71 18.485 15.71 1.014 0 2.04-.082 3.073-.252l811.877-133.801c10.221-1.688 17.141-11.339 15.457-21.56l-68.74-417.085zM636.482 491.96c-62.658 0-117.916-45.311-128.439-109.158-11.704-71.021 36.38-138.083 107.402-149.788a131.195 131.195 0 0 1 21.352-1.755c62.656-.002 117.914 45.311 128.438 109.155 11.703 71.024-36.383 138.087-107.403 149.791a131.17 131.17 0 0 1-21.35 1.755z"/><path d="m178.276 238.607-5.699-34.576c-1.684-10.222 5.236-19.873 15.458-21.558L999.912 48.669c10.223-1.685 19.873 5.236 21.557 15.458l5.699 34.575M579.728 285.479l140.213 59.682-113.645 101.522z"/><circle fill="#FFF" cx="202.7" cy="207.319" r="13.821"/><circle fill="#F68635" cx="239.114" cy="201.318" r="13.821"/><g><path fill="#FFF" d="M275.511 211.141c-7.771 0-14.33-5.573-15.595-13.251-.687-4.169.291-8.356 2.753-11.791s6.115-5.705 10.285-6.392a16.002 16.002 0 0 1 2.591-.213c7.77 0 14.328 5.572 15.593 13.25.687 4.17-.291 8.357-2.753 11.792s-6.115 5.705-10.285 6.392c-.856.14-1.727.213-2.589.213zm.034-27.647c-.645 0-1.298.054-1.94.16a11.742 11.742 0 0 0-7.685 4.775 11.742 11.742 0 0 0-2.057 8.81 11.771 11.771 0 0 0 11.648 9.901c.645 0 1.297-.054 1.939-.16a11.742 11.742 0 0 0 7.684-4.775 11.74 11.74 0 0 0 2.057-8.811 11.77 11.77 0 0 0-11.646-9.9z"/></g></g><g><path fill="#F68635" d="M2 592.043c-.009-12.306-.023-30.902 8.767-46.745 10.504-18.932 31.227-28.541 61.592-28.561l66.384-.022.442-.01 6.977.005 6.982-.005.415.01 34.201.022c30.366.02 51.088 9.629 61.592 28.561 8.79 15.844 8.776 34.439 8.767 46.744l-.117 181.661-111.835-.074-115.214.054-28.833.021L2 592.043z"/><path d="m139.183 518.705 6.984.005 6.976-.005.132.003.258.007h.05l34.176.022c16.18.011 29.637 2.78 39.996 8.233 8.568 4.51 15.246 11.003 19.848 19.298 8.539 15.39 8.524 33.674 8.515 45.772l-.083 129.602-.018 27.521-.015 22.537-26.833-.019-83.007-.054-115.213.054-26.833.019-.015-22.537-.018-27.521L4 592.041c-.009-12.099-.022-30.383 8.516-45.772 4.603-8.295 11.28-14.788 19.848-19.298 10.359-5.453 23.816-8.223 39.995-8.233l66.385-.022H138.795l.258-.007.13-.004m13.96-4-6.979.005-6.978-.005c-.148 0-.295.008-.443.01l-66.385.022C-.053 514.784-.018 567.83 0 592.044l.083 129.602.018 27.521.017 26.537 30.833-.021 115.212-.054 83.003.054 30.834.021.018-26.537.018-27.521.083-129.602c.019-24.214.054-77.26-72.357-77.307l-34.176-.022c-.148-.002-.294-.01-.443-.01z"/><path fill="#F68635" d="M102.411 459.245h55.297v57.09h-55.297z"/><path d="m100.431 518.354-.04-61.09 59.297-.041.04 61.094-59.297.037zm3.963-57.092.034 53.09 51.297-.033-.034-53.094-51.297.037z"/><g><path fill="#F68635" d="M212.364 379.731c-1.088 0-2.163.068-3.219.189-9.892-34.088-41.355-58.993-78.627-58.971-37.273.025-68.704 24.974-78.549 59.073a28.768 28.768 0 0 0-3.221-.186c-15.689.011-28.397 12.736-28.388 28.424.011 15.69 12.737 28.397 28.425 28.389a28.556 28.556 0 0 0 6.928-.858c12.699 28.744 41.466 48.797 74.912 48.775 33.444-.021 62.184-20.113 74.85-48.875 2.22.555 4.537.852 6.928.85 15.688-.009 28.397-12.736 28.387-28.426-.011-15.684-12.738-28.393-28.426-28.384z"/><path d="M130.571 486.567c-32.627 0-62.282-18.972-76.009-48.472a30.651 30.651 0 0 1-5.775.555c-16.773 0-30.415-13.632-30.426-30.388-.01-16.765 13.621-30.413 30.386-30.425.583 0 1.174.018 1.773.054 10.791-34.763 43.449-58.917 79.997-58.941 36.575 0 69.244 24.11 80.075 58.836.6-.036 1.192-.055 1.773-.055 16.773 0 30.414 13.63 30.425 30.384.005 8.122-3.152 15.761-8.892 21.508s-13.373 8.914-21.494 8.919c-1.948 0-3.88-.184-5.775-.548-13.703 29.543-43.354 48.553-76.002 48.573h-.056zm-73.71-53.125.681 1.541c12.77 28.906 41.436 47.584 73.028 47.584v2l.052-2c31.612-.021 60.274-18.736 73.021-47.681l.68-1.543 1.636.408c2.098.524 4.257.79 6.42.79 7.075-.004 13.704-2.755 18.688-7.746 4.984-4.991 7.726-11.624 7.722-18.679-.01-14.549-11.855-26.386-26.407-26.386-.982 0-1.988.06-3.009.177l-1.678.192-.471-1.622c-9.829-33.872-41.351-57.528-76.656-57.528-35.377.024-66.888 23.722-76.678 57.628l-.468 1.62-1.676-.188a26.683 26.683 0 0 0-2.976-.173c-14.581.01-26.419 11.863-26.411 26.423.01 14.551 11.857 26.39 26.409 26.39a26.673 26.673 0 0 0 6.457-.798l1.636-.409z"/></g><g><path fill="#F68635" d="m256.67 580.489 68.255-53.399c8.073-5.409 13.839-14.163 15.112-24.567l14.644-119.891-.073-.009c1.639-4.878 3.838-9.663 6.748-13.909 3.532-5.15 5.754-10.433 7.274-15.965 1.261-4.594 2.041-9.361 2.68-14.371l3.01-23.62 3.178-24.97s-.051-.006-.048-.02c.738-5.788-3.356-11.082-9.148-11.816-5.791-.74-11.082 3.357-11.82 9.146-.042.335-.064.661-.077.99l-3.055 23.996-.088-.01 4.032-31.653s-.05-.007-.045-.018c.736-5.792-3.358-11.083-9.149-11.824-5.79-.733-11.083 3.359-11.82 9.153-.043.33-.066.66-.076.987l-3.91 30.683-.09-.009 4.886-38.34s-.05-.009-.046-.017c.736-5.792-3.361-11.084-9.151-11.822-5.789-.738-11.083 3.357-11.819 9.148-.044.331-.065.66-.078.987l-4.759 37.367-.089-.01 4.032-31.652s-.047-.007-.05-.021c.742-5.79-3.354-11.081-9.146-11.818-5.79-.737-11.083 3.359-11.82 9.148-.041.333-.064.661-.075.989l-5.016 39.384c-.152.065-.311.125-.462.192l-2.204-18.273s-.047.009-.049-.008c-.688-5.796-5.945-9.939-11.741-9.252-5.796.686-9.938 5.941-9.252 11.739.04.331.098.65.165.97l5.204 43.611c.035.713.084 1.427.169 2.151a29.81 29.81 0 0 0 9.086 18.154c2.133 2.467 5.804 7.406 5.909 12.229l.019.003L273.03 479.74l-59.044 46.188"/><path d="M256.672 582.489a2 2 0 0 1-1.234-3.576l68.255-53.399c.039-.03.079-.059.119-.086a32.618 32.618 0 0 0 14.24-23.149l14.587-119.427a1.874 1.874 0 0 1 .073-.866c1.836-5.464 4.189-10.31 6.994-14.403 3.157-4.604 5.38-9.485 6.996-15.364 1.068-3.891 1.878-8.237 2.625-14.094l6.134-48.163a1.958 1.958 0 0 1 .006-.446 8.503 8.503 0 0 0-1.723-6.326 8.501 8.501 0 0 0-5.693-3.253 8.504 8.504 0 0 0-6.329 1.722 8.517 8.517 0 0 0-3.318 6.51 1.683 1.683 0 0 1-.015.173l-3.055 23.996a2.009 2.009 0 0 1-2.204 1.735c-.533-.06-1.064-.335-1.396-.756-.332-.421-.524-.963-.457-1.495l3.979-31.236a1.969 1.969 0 0 1 .008-.434c.596-4.688-2.732-8.988-7.419-9.589-4.694-.593-8.985 2.736-9.582 7.423a7.79 7.79 0 0 0-.061.794 2.09 2.09 0 0 1-.015.193l-3.91 30.683a1.99 1.99 0 0 1-2.179 1.737c-.538-.053-1.077-.325-1.414-.748-.337-.422-.534-.968-.465-1.504l4.832-37.92a1.987 1.987 0 0 1 .008-.436c.596-4.688-2.732-8.988-7.42-9.586a8.49 8.49 0 0 0-6.327 1.723 8.512 8.512 0 0 0-3.318 6.505 1.74 1.74 0 0 1-.015.176l-4.759 37.367a2.007 2.007 0 0 1-2.202 1.735c-.533-.059-1.065-.334-1.397-.756-.332-.421-.525-.963-.458-1.495l3.977-31.217a1.95 1.95 0 0 1 .006-.458c.291-2.271-.32-4.517-1.721-6.326s-3.422-2.965-5.694-3.254c-4.689-.596-8.987 2.73-9.584 7.417a9.195 9.195 0 0 0-.06.802 2.01 2.01 0 0 1-.015.188l-5.016 39.384a2 2 0 0 1-1.195 1.585l-.436.181a1.999 1.999 0 0 1-2.801-1.587l-2.153-17.857a2.084 2.084 0 0 1-.1-.43c-.557-4.69-4.819-8.059-9.519-7.499a8.505 8.505 0 0 0-5.721 3.204 8.516 8.516 0 0 0-1.644 7.108c.012.058.021.115.028.173l5.204 43.611c.005.046.009.093.012.139.039.786.089 1.427.158 2.017a27.97 27.97 0 0 0 8.479 16.938c.047.045.091.092.134.141 2.297 2.656 6.141 7.866 6.386 13.21.032.186.038.378.014.573l-12.886 105.484a2 2 0 0 1-.753 1.333l-59.044 46.188a2 2 0 1 1-2.465-3.151l58.392-45.677 12.752-104.392c-.099-4.288-3.73-8.985-5.36-10.881a31.993 31.993 0 0 1-9.621-19.299 33.406 33.406 0 0 1-.177-2.219l-5.185-43.458a12.494 12.494 0 0 1 2.434-10.316 12.48 12.48 0 0 1 8.393-4.701 12.485 12.485 0 0 1 9.259 2.61 12.48 12.48 0 0 1 4.641 7.941c.054.146.091.298.11.455l.485 4.021 3.215-25.248a13.4 13.4 0 0 1 .085-1.067c.877-6.886 7.19-11.765 14.058-10.892a12.487 12.487 0 0 1 8.316 4.729 12.479 12.479 0 0 1 4.311-6.201 12.53 12.53 0 0 1 9.281-2.528c6.136.783 10.685 5.892 10.969 11.87a12.562 12.562 0 0 1 9.236-2.506c6.135.785 10.681 5.891 10.969 11.864a12.482 12.482 0 0 1 9.237-2.491 12.479 12.479 0 0 1 8.352 4.772 12.477 12.477 0 0 1 2.578 8.816c.019.159.018.321-.003.483l-6.188 48.59c-.771 6.05-1.615 10.567-2.735 14.647-1.714 6.235-4.185 11.654-7.554 16.566-2.51 3.662-4.638 8.003-6.329 12.908-.002.04-.005.081-.01.121l-14.644 119.891a36.613 36.613 0 0 1-15.922 25.945l-68.198 53.354a1.948 1.948 0 0 1-1.229.431z"/></g><g><path d="M219.01 394.933c0-10.674-8.653-19.326-19.326-19.326a19.2 19.2 0 0 0-9.888 2.744c-2.571-30.722-28.302-54.857-59.687-54.857-30.813 0-56.182 23.264-59.528 53.184a19.235 19.235 0 0 0-6.298-1.07c-10.673 0-19.326 8.652-19.326 19.326 0 10.279 8.031 18.659 18.156 19.268a19.222 19.222 0 0 0-3.125 10.516c0 10.674 8.653 19.326 19.326 19.326a19.37 19.37 0 0 0 3.772-.374c-.002.126-.019.249-.019.374 0 10.674 8.653 19.326 19.326 19.326a19.21 19.21 0 0 0 11.131-3.544c2.959 6.878 9.794 11.697 17.757 11.697 7.723 0 14.368-4.541 17.463-11.088a19.207 19.207 0 0 0 10.204 2.935c10.673 0 19.326-8.652 19.326-19.326 0-.125-.016-.248-.019-.374 1.22.242 2.48.374 3.772.374 10.673 0 19.326-8.652 19.326-19.326 0-3.888-1.159-7.501-3.135-10.532.485.037.971.075 1.466.075 10.673-.002 19.326-8.655 19.326-19.328z"/></g><g><path fill="#FFF" d="m210.579 377.975-.107-61.381a6.621 6.621 0 0 0-6.633-6.608l-147.344.256a6.622 6.622 0 0 0-6.609 6.633l.107 61.382 160.586-.282z"/></g></g><g><path fill="#F68635" d="m324.668 610.383 706.931-114.934"/><path fill="#FFF" d="m1031.263 493.45.641 3.948-706.902 114.88-.641-3.947z"/></g><g><path d="M53.275 517.21h34.358v118.225H53.275z"/></g><g><path d="M173.842 517.21h34.357v118.225h-34.357z"/></g><g><path d="M1.119 623.626h258.93V778.28H1.119z"/></g><g><path fill="#FFF" d="M53.275 610.383h34.358v25.052H53.275z"/></g><g><path fill="#FFF" d="M173.845 610.383h34.357v25.052h-34.357z"/></g><g><path fill="#F68635" d="m1277.345 657.077-86.529 4.79c-9.637 1.248-19.742-1.539-27.555-8.528l-89.996-80.551.049-.055c-4.447-2.59-9.254-4.741-14.242-6.02-6.051-1.548-11.201-4.057-15.988-7.218-3.975-2.625-7.701-5.698-11.484-9.047l-17.824-15.788-18.842-16.691s.035-.037.023-.047c-4.367-3.867-4.775-10.548-.9-14.917 3.869-4.371 10.547-4.772 14.918-.903.252.222.482.453.711.693l18.107 16.041.059-.065-23.887-21.159s.033-.037.023-.042c-4.369-3.874-4.773-10.552-.906-14.925 3.871-4.365 10.551-4.772 14.924-.9.248.221.482.454.707.693l23.152 20.507.062-.064-28.934-25.625s.033-.04.025-.043c-4.369-3.873-4.773-10.555-.904-14.924s10.549-4.775 14.918-.902c.252.22.484.452.709.69l28.197 24.978.061-.065-23.885-21.157s.029-.035.023-.049c-4.373-3.867-4.777-10.545-.906-14.915s10.551-4.774 14.92-.905c.25.223.484.454.709.694l29.719 26.326c.158-.052.316-.11.475-.16l-10.379-15.199s.039-.024.029-.038c-3.301-4.815-2.076-11.395 2.738-14.696 4.812-3.302 11.393-2.074 14.695 2.738.188.275.354.555.514.838l24.816 36.238c.441.56.877 1.129 1.289 1.73a29.813 29.813 0 0 1 5.123 19.645c.021 3.261.514 9.396 3.613 13.092l-.014.016 79.188 70.87 74.848-4.148"/><path d="M1186.346 664.155a36.597 36.597 0 0 1-24.419-9.326l-89.996-80.551c-.031-.027-.061-.057-.09-.086-4.505-2.575-8.965-4.438-13.266-5.541-5.774-1.478-11.203-3.926-16.595-7.486-4.516-2.982-8.629-6.493-11.707-9.218l-36.667-32.48a1.985 1.985 0 0 1-.329-.375c-2.315-2.224-3.666-5.146-3.858-8.318a12.477 12.477 0 0 1 3.141-9.095 12.475 12.475 0 0 1 8.589-4.207c-3.717-4.685-3.66-11.521.435-16.151a12.538 12.538 0 0 1 8.602-4.2c-3.725-4.686-3.668-11.526.433-16.157a12.486 12.486 0 0 1 8.647-4.212c2.614-.16 5.147.483 7.329 1.827a12.478 12.478 0 0 1 3.141-9.036c4.596-5.188 12.556-5.672 17.743-1.076.275.245.531.495.776.755l19.056 16.88-2.286-3.349a1.996 1.996 0 0 1-.217-.414c-3.6-5.707-2.075-13.271 3.505-17.098 5.714-3.918 13.552-2.46 17.476 3.256.206.303.388.604.562.909l24.731 36.113c.4.51.867 1.115 1.327 1.786a31.983 31.983 0 0 1 5.474 20.855c.024 2.504.39 8.439 3.145 11.726l.002.002 78.356 70.126 74.021-4.103a2 2 0 1 1 .22 3.994l-74.848 4.148a2.012 2.012 0 0 1-1.444-.507l-79.188-70.87a2.002 2.002 0 0 1-.383-.464c-3.319-4.179-3.859-10.614-3.883-14.121 0-.064.002-.13.009-.194a27.966 27.966 0 0 0-4.781-18.331 29.926 29.926 0 0 0-1.21-1.624c-.027-.035-.055-.071-.08-.108l-24.816-36.238a2.388 2.388 0 0 1-.091-.146 9.542 9.542 0 0 0-.426-.696c-2.67-3.892-8.016-4.89-11.91-2.215-3.896 2.672-4.893 8.018-2.221 11.916.082.119.149.246.203.379l10.148 14.861a2 2 0 0 1-1.051 3.035l-.453.153a1.997 1.997 0 0 1-1.948-.403l-29.719-26.326a2.086 2.086 0 0 1-.135-.131 8.847 8.847 0 0 0-.578-.567c-3.53-3.125-8.957-2.8-12.093.738a8.509 8.509 0 0 0-2.139 6.199 8.499 8.499 0 0 0 2.873 5.892c.115.102.218.216.306.341l23.557 20.866a1.997 1.997 0 0 1 .142 2.855c-.738.799-2.039.924-2.854.204l-28.197-24.978a2.179 2.179 0 0 1-.129-.125 8.53 8.53 0 0 0-6.779-2.706 8.514 8.514 0 0 0-5.896 2.872c-3.132 3.537-2.803 8.966.734 12.101.11.099.21.209.296.328l28.611 25.34a2.003 2.003 0 0 1 .11 2.89c-.744.769-2.024.88-2.824.169l-23.152-20.507a1.993 1.993 0 0 1-.132-.128 8.857 8.857 0 0 0-.578-.568c-3.535-3.13-8.963-2.802-12.099.733-3.128 3.537-2.798 8.967.737 12.102.108.096.205.203.29.32l23.572 20.88a2.002 2.002 0 0 1 .164 2.831c-.734.819-2.052.958-2.875.229l-18.107-16.041a1.727 1.727 0 0 1-.123-.119 9.22 9.22 0 0 0-.583-.569 8.5 8.5 0 0 0-6.205-2.144 8.506 8.506 0 0 0-5.894 2.87c-1.521 1.714-2.281 3.916-2.143 6.2s1.158 4.378 2.871 5.895c.113.1.214.212.301.334l36.342 32.192c2.979 2.638 6.953 6.03 11.261 8.875 5.083 3.356 9.971 5.565 15.382 6.949 4.808 1.232 9.771 3.327 14.753 6.229.277.162.509.387.678.65l89.597 80.193a32.623 32.623 0 0 0 25.964 8.035 2.48 2.48 0 0 1 .146-.014l86.529-4.79a2.006 2.006 0 0 1 2.107 1.887 2 2 0 0 1-1.887 2.107l-86.457 4.786a36.616 36.616 0 0 1-4.653.296z"/></g><g><path fill="#FFF" d="M1342.281 620.393c1.303 26.478-18.877 48.982-45.066 50.272l-52.938 2.604-4.719-95.872 52.936-2.604c26.195-1.292 48.482 19.126 49.787 45.6z"/></g><g><path d="m467.505 585.1.642 3.948-143.143 23.262-.641-3.947z"/></g><g><circle fill="#FFF" cx="1048.996" cy="30.864" r="8.552"/></g><g><circle cx="467.816" cy="587.109" r="13.179"/></g><g><path fill="#FFF" d="M1112.458 150.112a2 2 0 0 1-1.111-3.664L1327.192 2.52a2 2 0 0 1 2.218 3.328l-215.845 143.929c-.34.227-.726.335-1.107.335zM1122.909 196.235a1.999 1.999 0 0 1-1.874-1.304 1.998 1.998 0 0 1 1.177-2.571l160.054-59.552a1.996 1.996 0 0 1 2.571 1.177 1.998 1.998 0 0 1-1.177 2.571l-160.054 59.552c-.23.086-.465.127-.697.127zM1133.307 247.643a2.001 2.001 0 0 1-.323-3.974l245.473-40.466a2 2 0 0 1 .651 3.947l-245.473 40.466c-.11.018-.219.027-.328.027zM1209.544 294.556h-.045l-70.592-1.541a2.001 2.001 0 0 1 .043-4h.045l70.592 1.541a2.001 2.001 0 0 1-.043 4z"/></g></svg>