<svg xmlns="http://www.w3.org/2000/svg" viewBox="0 0 1427.9 778.28"><path d="M1078.88 481.84H927.72v-4h147.17V4H291l-76.47 76.47v107.21h-4V78.81L289.35 0h789.53z"/><path d="M290.18 81.64h-77.65a2 2 0 0 1-1.41-3.41L288.76.59A2 2 0 0 1 292.18 2v77.64a2 2 0 0 1-2 2zm-72.82-4h70.82V6.83l-70.82 70.81z"/><path fill="#FF8630" d="m1254.34 579.03 54.38-16.82-17.36-56.15-54.38 16.81z"/><path d="m1253.02 581.53-18.55-59.98 58.21-18 18.54 59.98-58.2 18zm-13.54-57.34 16.18 52.34 50.56-15.64-16.18-52.33-50.56 15.63z"/><path fill="#FF8630" d="M1260.36 364.68a84.07 84.07 0 0 0-84.22 76.15l-.2-.52-15.51 19.24 17.36 7.63a84.1 84.1 0 1 0 82.56-102.5z"/><path d="M1259.85 534.87h-.54c-19.6-.12-38.72-7-53.86-19.37a86.5 86.5 0 0 1-29.38-46.9l-16.44-7.22a2 2 0 0 1-.76-3.08l15.43-19.14a85.88 85.88 0 0 1 27.45-53.92 85.82 85.82 0 0 1 58.08-22.57h.54c47.47.3 85.86 39.16 85.56 86.63-.29 47.18-38.9 85.57-86.08 85.57zm-96.22-76.1 14.97 6.58a2 2 0 0 1 1.14 1.4 82.46 82.46 0 0 0 28.24 45.65 82.24 82.24 0 0 0 51.35 18.47h.52c44.98 0 81.8-36.6 82.08-81.6.28-45.26-36.32-82.31-81.59-82.6h-.51a81.83 81.83 0 0 0-55.38 21.52 81.88 81.88 0 0 0-26.32 52.82c-.09.9-.8 1.42-1.63 1.78l-12.88 15.98z"/><path d="m1340.37 419.88 42.3 18.64-26.9 27.1 10.06 35.47-33.63-3.06-11.65 32.14-49.75-47.95s28.35-1.78 21.18-38.59l-43.88-24.13 92.27.38zm-120.07 26.68a10.8 10.8 0 1 1-21.58-.12 10.8 10.8 0 0 1 21.58.12z"/><path d="M1231.85 450.94a2 2 0 0 1-1.66-.88 24.15 24.15 0 0 0-19.85-10.6 2 2 0 0 1 .01-4h.01a28.15 28.15 0 0 1 23.14 12.35 2 2 0 0 1-1.65 3.13z"/><path fill="#FFF" d="m1341.37 419.88.27-61.38a6.62 6.62 0 0 0-6.6-6.65l-147.34-.65a6.62 6.62 0 0 0-6.65 6.6l-.27 61.37 160.59.7z"/><path fill="#FFF" d="m1191.9 403.71-.09 15.54-68.71-.43z"/><path fill="#FF8630" d="M1185.8 488.62s18.42 7.5 35.7-8.5"/><path d="M1196.6 492.42c-6.63 0-11.18-1.8-11.56-1.95a2 2 0 0 1 1.5-3.7c.72.28 17.52 6.78 33.6-8.11a2 2 0 0 1 2.72 2.93c-9.39 8.7-19.05 10.83-26.27 10.83z"/><path fill="#FF8630" d="M1262.58 426.05a28.13 28.13 0 0 1 3.22-.17 28.4 28.4 0 0 1-.31 56.81 28.38 28.38 0 0 1-6.93-.89"/><path d="M1265.65 484.7h-.17a30.53 30.53 0 0 1-7.41-.96 2 2 0 0 1-1.45-2.44 2 2 0 0 1 2.44-1.44c2.1.54 4.27.82 6.44.83h.14a26.44 26.44 0 0 0 26.4-26.26 26.44 26.44 0 0 0-26.25-26.55 26 26 0 0 0-3 .16 2 2 0 0 1-2.2-1.77 2 2 0 0 1 1.77-2.2 35.12 35.12 0 0 1 3.45-.19 30.44 30.44 0 0 1 30.24 30.57 30.44 30.44 0 0 1-30.4 30.24z"/><path fill="#FF8630" d="m1276.68 446.83-17.53 18.85"/><path d="M1259.15 467.68a2 2 0 0 1-1.46-3.36l17.52-18.85a2 2 0 0 1 2.93 2.72l-17.52 18.85a2 2 0 0 1-1.47.64z"/><path fill="#FF8630" d="m1271.29 628.22-84.4 19.73a34.55 34.55 0 0 1-28.6-3.62l-102.61-63.72.04-.06a56.48 56.48 0 0 0-15.07-3.46 51.89 51.89 0 0 1-17-4.33 103.4 103.4 0 0 1-12.88-6.92l-20.3-12.46-21.44-13.17s.02-.04.01-.05a10.57 10.57 0 1 1 11.88-17.45l20.62 12.66.04-.08-27.2-16.69s.03-.04.02-.05a10.58 10.58 0 1 1 11.88-17.45l26.36 16.18.05-.08-32.94-20.22.02-.04a10.57 10.57 0 1 1 11.87-17.46l32.1 19.7.05-.07-27.2-16.7s.03-.03.02-.04a10.56 10.56 0 1 1 11.88-17.45l33.83 20.77.44-.24-12.85-13.17s.03-.03.02-.04a10.57 10.57 0 1 1 15.74-14.07l30.73 31.39c.53.47 1.06.96 1.57 1.48a29.8 29.8 0 0 1 8.45 18.46c.59 3.2 2.14 9.16 5.83 12.26v.02l90.27 56.06 73-17.07"/><path d="M1175.13 651.5a36.58 36.58 0 0 1-17.9-5.47l-102.6-63.72a1.91 1.91 0 0 1-.11-.07 53.86 53.86 0 0 0-14.02-3.15 54.12 54.12 0 0 1-17.65-4.5c-4.96-2.15-9.62-4.9-13.13-7.05l-41.74-25.62a1.98 1.98 0 0 1-.38-.3 12.49 12.49 0 0 1-5.25-7.54 12.49 12.49 0 0 1 1.51-9.5 12.48 12.48 0 0 1 7.73-5.63 12.6 12.6 0 0 1-2.37-15.98 12.54 12.54 0 0 1 7.74-5.63 12.6 12.6 0 0 1-2.38-15.99 12.49 12.49 0 0 1 7.79-5.65 12.48 12.48 0 0 1 7.53.53 12.48 12.48 0 0 1 1.53-9.44 12.49 12.49 0 0 1 7.79-5.65 12.49 12.49 0 0 1 10.4 2.12l21.68 13.31-2.83-2.9a2.01 2.01 0 0 1-.28-.36 12.59 12.59 0 0 1 .48-17.45 12.58 12.58 0 0 1 18.5.97l30.6 31.28c.47.4 1.06.94 1.63 1.53a31.97 31.97 0 0 1 9 19.59c.47 2.46 1.85 8.24 5.14 11l89.33 55.47 72.19-16.88a2 2 0 0 1 2.4 1.5 2 2 0 0 1-1.5 2.4l-72.98 17.07a2.01 2.01 0 0 1-1.52-.25l-90.27-56.06a1.95 1.95 0 0 1-.46-.4c-4-3.53-5.64-9.78-6.27-13.23a1.6 1.6 0 0 1-.03-.2 27.97 27.97 0 0 0-7.89-17.22 28.83 28.83 0 0 0-1.47-1.38 2.23 2.23 0 0 1-.1-.1l-30.73-31.38a1.78 1.78 0 0 1-.11-.13 9.71 9.71 0 0 0-.54-.6 8.58 8.58 0 0 0-12.23 12c.1.1.19.21.26.33l12.57 12.88a2 2 0 0 1 .55 1.72 2 2 0 0 1-1.07 1.46l-.43.23a2 2 0 0 1-1.96-.07l-33.84-20.77a1.79 1.79 0 0 1-.15-.1 8.52 8.52 0 0 0-7.14-1.5 8.51 8.51 0 0 0-5.31 3.86 8.52 8.52 0 0 0-1.03 6.48 8.5 8.5 0 0 0 3.85 5.3c.13.08.25.18.36.29l26.82 16.46a2 2 0 0 1 .9 1.27 1.99 1.99 0 0 1-.28 1.54c-.6.9-1.84 1.24-2.77.67l-32.1-19.7a1.75 1.75 0 0 1-.15-.1 8.5 8.5 0 0 0-7.14-1.5 8.5 8.5 0 0 0-5.31 3.86 8.58 8.58 0 0 0 2.82 11.78c.13.08.25.17.35.28l32.57 20a2 2 0 0 1 .63 2.78 2.09 2.09 0 0 1-2.77.7l-26.36-16.19a2.02 2.02 0 0 1-.16-.1 8.57 8.57 0 0 0-.65-.46 8.58 8.58 0 0 0-11.8 2.82 8.59 8.59 0 0 0 2.83 11.8c.12.07.24.15.34.26l26.84 16.47a2 2 0 0 1 .65 2.76 2.07 2.07 0 0 1-2.8.72l-20.6-12.65a1.83 1.83 0 0 1-.14-.1 9.47 9.47 0 0 0-.68-.46 8.51 8.51 0 0 0-6.48-1.03 8.5 8.5 0 0 0-5.31 3.85 8.51 8.51 0 0 0-1.03 6.48 8.5 8.5 0 0 0 3.85 5.3c.12.08.24.17.35.28l41.38 25.4a98.3 98.3 0 0 0 12.63 6.79 49.46 49.46 0 0 0 16.35 4.17 58.4 58.4 0 0 1 15.6 3.58c.31.1.58.3.79.52l102.15 63.44a32.62 32.62 0 0 0 26.96 3.4c.05 0 .1-.02.14-.03l84.39-19.73a2 2 0 0 1 .91 3.9l-84.32 19.7a36.81 36.81 0 0 1-12.29 1.63z"/><path d="m1262.62 776.28-49.78-175.7c-4.16-14.5 6.13-30.18 22.98-35.01l48.07-13.8c71.65-20.55 86.7 31.94 93.58 55.9l47.78 168.48-162.63.13z"/><path d="m1261.1 778.28-.4-1.46-49.79-175.7c-2.17-7.58-.8-15.67 3.86-22.77 4.6-7.02 11.89-12.24 20.5-14.7l48.06-13.8c11-3.15 21.25-4.75 30.48-4.75 47.79 0 59.8 41.89 65.58 62.01l48.51 171.03-166.8.14zm52.71-229.18c-8.86 0-18.74 1.55-29.37 4.6l-48.07 13.79c-7.7 2.2-14.17 6.84-18.25 13.05-4.02 6.12-5.21 13.04-3.36 19.48l49.37 174.26 158.48-.13-47.07-165.93c-5.92-20.66-16.95-59.12-61.73-59.12z"/><path fill="#FF8630" d="m69.78 582.49 100.75-210.77-.07-.03a56.47 56.47 0 0 1 10.86-11c5-3.74 8.8-8.03 12.02-12.78 2.67-3.94 4.94-8.2 7.16-12.74l10.44-21.4 11.04-22.63s-.05-.02-.04-.03a10.56 10.56 0 1 0-19-9.27 10.92 10.92 0 0 0-.4.91l-10.6 21.74-.08-.04 14-28.67s-.05-.02-.04-.03a10.58 10.58 0 1 0-19.4-8.36l-13.56 27.8-.08-.04 16.95-34.74-.04-.03a10.57 10.57 0 1 0-19.39-8.36l-16.51 33.85-.08-.03 13.99-28.68s-.04-.02-.04-.04a10.56 10.56 0 1 0-19.39-8.35l-17.4 35.68-.5.04 3.78-18.02s-.04 0-.04-.02a10.57 10.57 0 1 0-20.83-3.42l-9.1 42.97a32.87 32.87 0 0 0-.53 2.1 29.81 29.81 0 0 0 2.77 20.1c1.23 3.02 3.12 8.88 1.67 13.48l.02.01-94.45 197.69"/><path d="M69.78 584.49a2 2 0 0 1-1.8-2.86l100.54-210.35c.05-.29.17-.56.35-.8a58.38 58.38 0 0 1 11.25-11.4 49.5 49.5 0 0 0 11.56-12.3 100.4 100.4 0 0 0 7.02-12.5l21.29-43.63a2.01 2.01 0 0 1 .15-.42 8.5 8.5 0 0 0 .4-6.54 8.51 8.51 0 0 0-4.35-4.92 8.5 8.5 0 0 0-6.54-.4 8.51 8.51 0 0 0-5.23 5.1 1.72 1.72 0 0 1-.08.16l-10.6 21.74a2 2 0 0 1-2.65.93 2.1 2.1 0 0 1-1.08-1.16 2.1 2.1 0 0 1 .05-1.56l13.81-28.3c.03-.14.08-.28.15-.41a8.59 8.59 0 0 0-3.95-11.46 8.58 8.58 0 0 0-11.46 3.94 8.11 8.11 0 0 0-.31.74 2.02 2.02 0 0 1-.08.17l-13.56 27.8a2 2 0 0 1-2.6.95 2.1 2.1 0 0 1-1.12-1.16c-.18-.51-.2-1.1.04-1.58l16.77-34.35c.03-.15.08-.28.15-.41a8.59 8.59 0 0 0-3.95-11.47 8.51 8.51 0 0 0-6.54-.4 8.51 8.51 0 0 0-4.92 4.35 8.51 8.51 0 0 0-.32.75 1.96 1.96 0 0 1-.07.16l-16.51 33.85a2 2 0 0 1-2.61.95 2.1 2.1 0 0 1-1.11-1.16c-.19-.5-.2-1.09.04-1.58l13.8-28.28c.03-.15.09-.3.15-.44a8.5 8.5 0 0 0 .4-6.54 8.51 8.51 0 0 0-4.34-4.9 8.51 8.51 0 0 0-6.55-.41 8.5 8.5 0 0 0-5.22 5.08l-.08.18-17.4 35.68a2 2 0 0 1-1.63 1.11l-.48.04a2 2 0 0 1-2.15-2.4l3.7-17.6a2.03 2.03 0 0 1 .04-.44 8.52 8.52 0 0 0-1.2-6.45c-1.24-1.92-3.16-3.24-5.4-3.72s-4.53-.05-6.45 1.2a8.51 8.51 0 0 0-3.84 6.2 2.04 2.04 0 0 1-.03.17l-9.09 42.97c0 .05-.02.1-.03.14a29.37 29.37 0 0 0-.5 1.96 27.97 27.97 0 0 0 2.58 18.76l.09.18c1.32 3.26 3.28 9.43 1.8 14.57a1.94 1.94 0 0 1-.17.53l-94.45 197.7a2 2 0 1 1-3.6-1.73l94.32-197.44c1.3-4.1-.64-9.72-1.57-12.04a31.98 31.98 0 0 1-2.91-21.36c.14-.66.3-1.33.54-2.16l9.06-42.82a12.49 12.49 0 0 1 5.62-8.99 12.49 12.49 0 0 1 9.46-1.75 12.49 12.49 0 0 1 7.93 5.45 12.49 12.49 0 0 1 1.84 9 2 2 0 0 1-.04.48l-.83 3.96 11.16-22.88a12.49 12.49 0 0 1 7.63-7.36 12.48 12.48 0 0 1 9.6.59c3 1.46 5.26 4 6.36 7.15a12.48 12.48 0 0 1 6.08-4.49 12.5 12.5 0 0 1 9.6.59 12.6 12.6 0 0 1 6.57 14.77 12.54 12.54 0 0 1 9.55.6 12.6 12.6 0 0 1 6.57 14.75 12.5 12.5 0 0 1 9.55.61 12.48 12.48 0 0 1 6.38 7.2c1.04 3.03.9 6.27-.4 9.18a1.95 1.95 0 0 1-.16.46l-21.47 44.02a104.11 104.11 0 0 1-7.3 13 54.1 54.1 0 0 1-12.48 13.25 53.94 53.94 0 0 0-10.14 10.2 2.94 2.94 0 0 1-.05.1L71.6 583.35a2 2 0 0 1-1.8 1.14z"/><path fill="#FF8630" d="M264.52 663.56c-8.23 0-15.17-5.9-16.51-14.04l-68.41-415.1 844.94-139.26 68.42 415.11a16.78 16.78 0 0 1-13.81 19.26l-811.88 133.8c-.91.15-1.83.23-2.75.23zm372.28-434.3c-7.21 0-14.5.6-21.68 1.78-72 11.87-120.92 80.1-109.05 152.09a132.35 132.35 0 0 0 152.09 109.05c72-11.87 120.91-80.1 109.05-152.1A132.34 132.34 0 0 0 636.8 229.27z"/><path fill="#FFF" d="m1022.9 97.46 68.08 413.14a14.78 14.78 0 0 1-12.16 16.96l-811.88 133.8a14.7 14.7 0 0 1-16.96-12.16L181.9 236.06l841-138.6m-386.42 398.5c7.32 0 14.72-.6 22-1.8a133.45 133.45 0 0 0 87.32-54.28 133.47 133.47 0 0 0 23.38-100.12 134.35 134.35 0 0 0-154.39-110.7 133.45 133.45 0 0 0-87.32 54.27 133.45 133.45 0 0 0-23.38 100.12 134.34 134.34 0 0 0 132.4 112.51m389.7-403.1-848.9 139.9 68.75 417.09a18.76 18.76 0 0 0 21.55 15.46l811.88-133.8a18.76 18.76 0 0 0 15.46-21.56l-68.74-417.09zm-389.7 399.1c-62.67 0-117.92-45.31-128.45-109.16-11.7-71.02 36.38-138.08 107.4-149.79a131.2 131.2 0 0 1 21.36-1.75c62.65 0 117.91 45.31 128.44 109.15 11.7 71.03-36.39 138.1-107.4 149.8a131.17 131.17 0 0 1-21.36 1.75z"/><path d="m178.28 238.6-5.7-34.57a18.76 18.76 0 0 1 15.45-21.56l811.88-133.8a18.76 18.76 0 0 1 21.56 15.46l5.7 34.57M579.73 285.48l140.21 59.68L606.3 446.68z"/><circle fill="#FFF" cx="202.7" cy="207.32" r="13.82"/><circle fill="#FF8630" cx="239.11" cy="201.32" r="13.82"/><path fill="#FFF" d="M275.51 211.14a15.76 15.76 0 0 1-15.6-13.25 15.79 15.79 0 0 1 13.04-18.18 16 16 0 0 1 2.6-.22c7.77 0 14.32 5.58 15.59 13.25.69 4.17-.3 8.36-2.75 11.8a15.67 15.67 0 0 1-12.88 6.6zm.04-27.65c-.65 0-1.3.06-1.94.16a11.74 11.74 0 0 0-7.69 4.78 11.74 11.74 0 0 0-2.06 8.8 11.77 11.77 0 0 0 11.65 9.91c.65 0 1.3-.05 1.94-.16a11.74 11.74 0 0 0 7.68-4.77 11.74 11.74 0 0 0 2.06-8.82 11.77 11.77 0 0 0-11.64-9.9z"/><path fill="#FF8630" d="M2 592.04c0-12.3-.02-30.9 8.77-46.74 10.5-18.93 31.22-28.54 61.59-28.56l66.38-.03h14.82l34.2.03c30.37.02 51.09 9.63 61.6 28.56 8.78 15.84 8.77 34.44 8.76 46.74L258 773.7l-111.83-.07-115.22.05-28.83.02L2 592.04z"/><path d="m139.18 518.7 6.99.01h7.41l34.18.03c16.18 0 29.64 2.78 40 8.23a47.65 47.65 0 0 1 19.84 19.3c8.54 15.39 8.53 33.67 8.52 45.77l-.09 129.6-.01 27.52-.02 22.54-26.83-.02-83-.05-115.22.05-26.83.02-.02-22.54-.02-27.52L4 592.04c0-12.1-.02-30.38 8.52-45.77a47.66 47.66 0 0 1 19.84-19.3c10.36-5.45 23.82-8.22 40-8.23l66.38-.02h.05l.26-.01h.13m13.96-4h-14.4l-66.38.03C-.05 514.78-.02 567.83 0 592.04l.08 129.6.02 27.53.02 26.53 30.83-.02 115.21-.05 83 .05 30.84.02.02-26.53.02-27.52.08-129.6c.02-24.22.05-77.27-72.36-77.31l-34.17-.03h-.45z"/><path fill="#FF8630" d="M102.41 459.25h55.3v57.09h-55.3z"/><path d="m100.43 518.35-.04-61.09 59.3-.04.04 61.1-59.3.03zm3.96-57.09.04 53.1 51.3-.04-.04-53.1-51.3.04z"/><path fill="#FF8630" d="M212.36 379.73c-1.08 0-2.16.07-3.22.19a81.85 81.85 0 0 0-157.17.1 28.77 28.77 0 0 0-3.22-.18 28.4 28.4 0 0 0 .04 56.8 28.56 28.56 0 0 0 6.92-.85 81.82 81.82 0 0 0 149.77-.1 28.41 28.41 0 1 0 6.88-55.96z"/><path d="M130.57 486.57a83.9 83.9 0 0 1-76-48.47 30.65 30.65 0 0 1-5.78.55 30.45 30.45 0 0 1-30.43-30.39 30.44 30.44 0 0 1 32.16-30.37c10.8-34.76 43.45-58.92 80-58.94 36.57 0 69.24 24.11 80.07 58.84a30.45 30.45 0 0 1 32.2 30.33c0 8.12-3.15 15.76-8.9 21.5a30.25 30.25 0 0 1-27.26 8.37 83.89 83.89 0 0 1-76 48.58h-.06zm-73.7-53.13.67 1.54a79.88 79.88 0 0 0 73.03 47.59v2l.05-2a79.89 79.89 0 0 0 73.02-47.68l.68-1.55 1.64.41a26.24 26.24 0 0 0 25.1-6.96c5-4.99 7.73-11.62 7.73-18.67a26.44 26.44 0 0 0-29.42-26.21l-1.68.19-.47-1.62c-9.83-33.87-41.35-57.53-76.65-57.53-35.38.02-66.89 23.72-76.68 57.63l-.47 1.62-1.67-.2a26.68 26.68 0 0 0-2.98-.16 26.44 26.44 0 0 0-26.41 26.42 26.44 26.44 0 0 0 26.4 26.39 26.67 26.67 0 0 0 6.46-.8l1.64-.4z"/><path fill="#FF8630" d="m256.67 580.49 68.25-53.4a34.54 34.54 0 0 0 15.12-24.57l14.64-119.89h-.07a56.4 56.4 0 0 1 6.75-13.92 51.93 51.93 0 0 0 7.27-15.96c1.26-4.6 2.04-9.36 2.68-14.37l3.01-23.62 3.18-24.97s-.05 0-.05-.02a10.56 10.56 0 1 0-21.04-1.68l-3.06 24-.09-.02 4.03-31.65s-.05 0-.04-.02a10.57 10.57 0 1 0-21.05-1.68l-3.9 30.68h-.1l4.89-38.35-.05-.01a10.57 10.57 0 1 0-21.04-1.7l-4.76 37.38-.1-.01 4.04-31.66s-.05 0-.05-.02a10.56 10.56 0 1 0-21.04-1.68l-5.02 39.39-.46.19-2.2-18.27-.05-.01a10.57 10.57 0 1 0-20.83 3.45l5.2 43.62c.04.7.09 1.42.17 2.15a29.81 29.81 0 0 0 9.09 18.15c2.13 2.47 5.8 7.4 5.9 12.23h.03l-12.89 105.49-59.04 46.19"/><path d="M256.67 582.49a2 2 0 0 1-1.23-3.58l68.25-53.4.12-.08a32.62 32.62 0 0 0 14.24-23.15l14.59-119.43a1.87 1.87 0 0 1 .07-.86 58.3 58.3 0 0 1 7-14.4 49.54 49.54 0 0 0 7-15.37c1.06-3.9 1.87-8.24 2.62-14.1l6.13-48.16a1.96 1.96 0 0 1 0-.44 8.5 8.5 0 0 0-1.72-6.33 8.5 8.5 0 0 0-5.69-3.25 8.5 8.5 0 0 0-6.33 1.72 8.52 8.52 0 0 0-3.32 6.5 1.68 1.68 0 0 1-.01.18l-3.06 24a2 2 0 0 1-2.2 1.73 2.11 2.11 0 0 1-1.4-.75 2.05 2.05 0 0 1-.45-1.5l3.98-31.23a1.97 1.97 0 0 1 0-.44 8.58 8.58 0 0 0-17-2.17 7.79 7.79 0 0 0-.06.8 2.09 2.09 0 0 1-.01.2l-3.91 30.68a1.99 1.99 0 0 1-2.18 1.73 2.1 2.1 0 0 1-1.42-.75 2.04 2.04 0 0 1-.46-1.5l4.83-37.92a1.99 1.99 0 0 1 0-.44 8.58 8.58 0 0 0-7.41-9.58 8.49 8.49 0 0 0-6.33 1.72 8.51 8.51 0 0 0-3.32 6.5 1.74 1.74 0 0 1-.01.18l-4.76 37.37a2 2 0 0 1-2.2 1.73 2.1 2.1 0 0 1-1.4-.75 2.05 2.05 0 0 1-.46-1.5l3.98-31.21a1.95 1.95 0 0 1 0-.46 8.53 8.53 0 0 0-7.42-9.58 8.58 8.58 0 0 0-9.57 7.42 9.2 9.2 0 0 0-.06.8 2.01 2.01 0 0 1-.02.19l-5.01 39.38a2 2 0 0 1-1.2 1.58l-.44.19a2 2 0 0 1-2.8-1.6l-2.15-17.85a2.08 2.08 0 0 1-.1-.43 8.57 8.57 0 0 0-9.52-7.5 8.5 8.5 0 0 0-5.72 3.2 8.52 8.52 0 0 0-1.64 7.11l.02.18 5.2 43.6.02.15a30 30 0 0 0 .16 2.01 27.97 27.97 0 0 0 8.48 16.94l.13.14c2.3 2.66 6.14 7.87 6.39 13.21.03.19.04.38.01.58l-12.88 105.48a2 2 0 0 1-.76 1.33l-59.04 46.2a2 2 0 1 1-2.47-3.16l58.4-45.68 12.75-104.39c-.1-4.29-3.73-8.98-5.36-10.88a32 32 0 0 1-9.62-19.3 33.4 33.4 0 0 1-.18-2.22l-5.18-43.46a12.5 12.5 0 0 1 2.43-10.31 12.48 12.48 0 0 1 8.4-4.7 12.48 12.48 0 0 1 9.25 2.6 12.48 12.48 0 0 1 4.64 7.95c.06.14.1.3.11.45l.49 4.02 3.21-25.24a13.4 13.4 0 0 1 .09-1.07 12.6 12.6 0 0 1 14.06-10.9 12.49 12.49 0 0 1 8.31 4.74 12.48 12.48 0 0 1 4.31-6.2 12.53 12.53 0 0 1 9.28-2.53 12.6 12.6 0 0 1 10.97 11.87 12.56 12.56 0 0 1 9.24-2.5 12.6 12.6 0 0 1 10.97 11.86 12.48 12.48 0 0 1 9.23-2.5 12.48 12.48 0 0 1 8.36 4.78 12.48 12.48 0 0 1 2.57 8.81 2 2 0 0 1 0 .49l-6.19 48.59a104.22 104.22 0 0 1-2.73 14.64 54.14 54.14 0 0 1-7.56 16.57c-2.5 3.66-4.63 8-6.32 12.9l-.01.13-14.65 119.89a36.61 36.61 0 0 1-15.92 25.94l-68.2 53.36a1.95 1.95 0 0 1-1.23.43zm-37.66-187.56a19.33 19.33 0 0 0-19.33-19.32 19.2 19.2 0 0 0-9.88 2.74 59.9 59.9 0 0 0-119.22-1.67 19.23 19.23 0 0 0-6.3-1.07 19.33 19.33 0 0 0-1.17 38.6A19.22 19.22 0 0 0 60 424.7a19.33 19.33 0 0 0 19.32 19.33 19.37 19.37 0 0 0 3.78-.37l-.02.37a19.33 19.33 0 0 0 19.32 19.33 19.21 19.21 0 0 0 11.13-3.54 19.33 19.33 0 0 0 35.22.6 19.2 19.2 0 0 0 10.2 2.94 19.33 19.33 0 0 0 19.33-19.33l-.02-.37a19.33 19.33 0 0 0 19.96-29.48c.5.03.98.07 1.47.07a19.33 19.33 0 0 0 19.33-19.33z"/><path fill="#FFF" d="m210.58 377.98-.1-61.39a6.62 6.62 0 0 0-6.64-6.6l-147.34.25a6.62 6.62 0 0 0-6.61 6.64l.1 61.38 160.59-.28z"/><path fill="#FF8630" d="m324.67 610.38 706.93-114.93"/><path fill="#FFF" d="m1031.26 493.45.64 3.95L325 612.28l-.64-3.95z"/><path d="M53.27 517.21h34.36v118.22H53.28zm120.57 0h34.36v118.22h-34.36z"/><path d="M1.12 623.63h258.93v154.65H1.12z"/><path fill="#FFF" d="M53.27 610.38h34.36v25.06H53.28zm120.57 0h34.36v25.06h-34.35z"/><path fill="#FF8630" d="m1277.35 657.08-86.53 4.79a34.55 34.55 0 0 1-27.56-8.53l-90-80.55.05-.06a56.46 56.46 0 0 0-14.24-6.02 51.89 51.89 0 0 1-15.99-7.22c-3.97-2.62-7.7-5.7-11.48-9.04l-17.82-15.79-18.85-16.7s.04-.03.03-.04a10.56 10.56 0 1 1 14.73-15.13l18.1 16.05.06-.07-23.88-21.16.02-.04a10.58 10.58 0 1 1 14.72-15.13l23.16 20.5.06-.06-28.94-25.62.03-.05a10.58 10.58 0 1 1 14.72-15.13l28.2 24.97.06-.06-23.89-21.16s.03-.03.03-.05a10.56 10.56 0 1 1 14.72-15.12l29.72 26.32.47-.16-10.37-15.2s.03-.02.02-.03a10.57 10.57 0 1 1 17.95-11.12l24.82 36.23c.44.56.87 1.13 1.29 1.73a29.81 29.81 0 0 1 5.12 19.65c.02 3.26.51 9.4 3.61 13.1h-.01l79.19 70.88 74.84-4.15"/><path d="M1186.35 664.15a36.6 36.6 0 0 1-24.42-9.32l-90-80.55-.09-.09a54 54 0 0 0-13.27-5.54 54.12 54.12 0 0 1-16.59-7.49 107.3 107.3 0 0 1-11.7-9.21l-36.67-32.48a1.99 1.99 0 0 1-.33-.38 12.49 12.49 0 0 1-3.86-8.32 12.48 12.48 0 0 1 3.14-9.1 12.47 12.47 0 0 1 8.59-4.2 12.6 12.6 0 0 1 .43-16.15 12.54 12.54 0 0 1 8.6-4.2 12.6 12.6 0 0 1 .44-16.16 12.49 12.49 0 0 1 8.65-4.2 12.3 12.3 0 0 1 7.32 1.82 12.48 12.48 0 0 1 3.15-9.04 12.58 12.58 0 0 1 18.51-.32l19.06 16.88-2.29-3.35a2 2 0 0 1-.21-.41 12.6 12.6 0 0 1 3.5-17.1 12.59 12.59 0 0 1 18.04 4.17l24.73 36.1c.4.52.87 1.12 1.33 1.8a31.98 31.98 0 0 1 5.47 20.85c.03 2.5.4 8.44 3.15 11.73l78.36 70.12 74.02-4.1a2 2 0 1 1 .22 4l-74.85 4.14a2.01 2.01 0 0 1-1.45-.5l-79.18-70.87a2 2 0 0 1-.39-.47c-3.32-4.18-3.86-10.61-3.88-14.12l.01-.2a27.97 27.97 0 0 0-4.78-18.32 29.93 29.93 0 0 0-1.21-1.63l-.08-.1L1083 451.6a2.39 2.39 0 0 1-.09-.15 9.54 9.54 0 0 0-.42-.7 8.58 8.58 0 0 0-14.14 9.7c.09.12.15.25.2.38l10.16 14.86a2 2 0 0 1-1.06 3.04l-.45.15a2 2 0 0 1-1.95-.4l-29.72-26.33a2.09 2.09 0 0 1-.13-.13 8.85 8.85 0 0 0-.58-.56 8.58 8.58 0 0 0-12.1.73 8.5 8.5 0 0 0-2.13 6.2 8.5 8.5 0 0 0 2.87 5.9c.12.1.22.21.3.34l23.57 20.86a2 2 0 0 1 .14 2.86c-.74.8-2.04.92-2.86.2l-28.2-24.98a2.18 2.18 0 0 1-.12-.12 8.53 8.53 0 0 0-6.78-2.7 8.51 8.51 0 0 0-5.9 2.86 8.59 8.59 0 0 0 .74 12.1l.3.33 28.6 25.34a2 2 0 0 1 .11 2.9c-.74.76-2.02.87-2.82.16l-23.15-20.5a2 2 0 0 1-.13-.13 8.86 8.86 0 0 0-.58-.57 8.59 8.59 0 0 0-12.1.73 8.6 8.6 0 0 0 .74 12.1c.1.1.2.2.29.32l23.57 20.88a2 2 0 0 1 .16 2.83c-.73.82-2.05.96-2.87.23l-18.11-16.04a1.73 1.73 0 0 1-.12-.12 9.22 9.22 0 0 0-.59-.57 8.5 8.5 0 0 0-6.2-2.14 8.5 8.5 0 0 0-5.9 2.87 8.53 8.53 0 0 0 .73 12.1c.12.1.22.2.3.33l36.35 32.2c2.97 2.63 6.95 6.02 11.26 8.87a49.49 49.49 0 0 0 15.38 6.95 58.31 58.31 0 0 1 14.75 6.22c.28.17.51.4.68.65l89.6 80.2a32.62 32.62 0 0 0 25.96 8.03 2.48 2.48 0 0 1 .15-.01l86.53-4.8a2 2 0 0 1 2.1 1.9 2 2 0 0 1-1.88 2.1l-86.46 4.79a36.62 36.62 0 0 1-4.65.3z"/><path fill="#FFF" d="M1342.28 620.4c1.3 26.47-18.88 48.98-45.07 50.27l-52.93 2.6-4.72-95.87 52.93-2.6c26.2-1.3 48.49 19.12 49.8 45.6z"/><path d="m467.5 585.1.65 3.95L325 612.3l-.64-3.95z"/><circle fill="#FFF" cx="1049" cy="30.86" r="8.55"/><circle cx="467.82" cy="587.11" r="13.18"/><path fill="#FFF" d="M1112.46 150.11a2 2 0 0 1-1.11-3.66L1327.19 2.52a2 2 0 0 1 2.22 3.33l-215.84 143.93c-.34.22-.73.33-1.11.33zm10.45 46.13a2 2 0 0 1-1.87-1.3 2 2 0 0 1 1.17-2.58l160.06-59.55a2 2 0 0 1 2.57 1.18 2 2 0 0 1-1.18 2.57l-160.05 59.55c-.23.08-.47.12-.7.12zm10.4 51.4a2 2 0 0 1-.33-3.97l245.48-40.47a2 2 0 0 1 .65 3.95l-245.47 40.47-.33.02zm76.23 46.92h-.04l-70.6-1.55a2 2 0 0 1 .05-4h.04l70.6 1.55a2 2 0 0 1-.05 4z"/></svg>
