<svg xmlns="http://www.w3.org/2000/svg" viewBox="0 0 889.34 803.86"><path fill="#FF8630" d="m705.22 633.65-61.74-31.52a27.61 27.61 0 0 1-15.61-16.99l-29.78-91.92.06-.02c-2.04-3.58-4.5-7-7.43-9.9a41.54 41.54 0 0 1-8.14-11.42 82.92 82.92 0 0 1-4.3-10.88l-5.97-18.09-6.3-19.12.04-.02a8.45 8.45 0 0 1 5.38-10.68 8.46 8.46 0 0 1 10.68 5.38c.08.26.15.52.2.77l6.07 18.38.06-.02-7.99-24.24.03-.03a8.46 8.46 0 0 1 5.39-10.68 8.46 8.46 0 0 1 10.68 5.39c.08.25.15.5.2.76l7.75 23.5.07-.02-9.68-29.36.03-.02a8.46 8.46 0 1 1 16.07-5.3c.08.25.15.5.2.76l9.44 28.62.07-.02-8-24.24.04-.03a8.44 8.44 0 0 1 5.38-10.67 8.45 8.45 0 0 1 10.9 6.15l9.93 30.16.4.08-1.06-14.69h.04a8.46 8.46 0 0 1 7.8-9.07 8.46 8.46 0 0 1 9.08 8.6l2.57 35.04c.08.57.15 1.14.19 1.72a23.86 23.86 0 0 1-4.37 15.64c-1.3 2.27-3.43 6.7-2.77 10.5l-.02.01 26.2 80.87 53.42 27.27"/><path d="M705.22 635.26c-.24 0-.5-.06-.73-.18l-61.69-31.5a29.26 29.26 0 0 1-16.45-17.95l-29.78-91.92a1 1 0 0 1-.03-.1 43.21 43.21 0 0 0-6.94-9.16 43.3 43.3 0 0 1-8.45-11.86 85.62 85.62 0 0 1-4.39-11.08l-12.27-37.22a1.6 1.6 0 0 1-.07-.37 9.98 9.98 0 0 1 .68-7.33 9.99 9.99 0 0 1 5.83-5.02 10.03 10.03 0 0 1 7.63.56 10.09 10.09 0 0 1 6.8-11 10.05 10.05 0 0 1 7.64.56 9.98 9.98 0 0 1 .98-5.97 9.99 9.99 0 0 1 5.83-5.02c4.7-1.55 9.74.57 12 4.78a9.98 9.98 0 0 1 5.82-4.98 9.98 9.98 0 0 1 7.67.57 9.98 9.98 0 0 1 5.25 6.66l6.38 19.34-.23-3.23a1.52 1.52 0 0 1 .01-.36 10.07 10.07 0 0 1 9.3-10.42 10.07 10.07 0 0 1 10.8 10.14l2.56 34.93c.08.58.15 1.16.2 1.76a25.59 25.59 0 0 1-4.62 16.63c-.99 1.74-3.13 5.99-2.55 9.36l25.93 80.03 52.82 26.97c.8.4 1.1 1.36.7 2.15a1.6 1.6 0 0 1-2.15.7l-53.41-27.27a1.6 1.6 0 0 1-.8-.93l-26.2-80.88a1.6 1.6 0 0 1-.08-.47c-.61-4.22 1.6-8.9 3-11.33l.09-.13a22.38 22.38 0 0 0 4.07-14.6 23.28 23.28 0 0 0-.18-1.6 1.98 1.98 0 0 1-.01-.1l-2.56-35.05a1.36 1.36 0 0 1 0-.13 8.08 8.08 0 0 0-.02-.66 6.9 6.9 0 0 0-7.35-6.33 6.87 6.87 0 0 0-6.33 7.35v.34l1.02 14.36a1.6 1.6 0 0 1-1.98 1.67l-.13-.03-.25-.05a1.6 1.6 0 0 1-1.14-1.06l-9.95-30.16a1.42 1.42 0 0 1-.04-.14 6.8 6.8 0 0 0-3.6-4.6 6.8 6.8 0 0 0-5.22-.39 6.8 6.8 0 0 0-3.98 3.43 6.8 6.8 0 0 0-.39 5.22c.04.12.07.24.08.37l7.88 23.9a1.6 1.6 0 0 1-1.06 2.04c-.83.25-1.78-.2-2.05-1.02l-9.43-28.61a1.47 1.47 0 0 1-.04-.15 7.38 7.38 0 0 0-.17-.62 6.87 6.87 0 0 0-8.66-4.36 6.81 6.81 0 0 0-3.98 3.42 6.81 6.81 0 0 0-.39 5.24c.04.11.07.23.08.35l9.57 29.03a1.6 1.6 0 0 1-1.04 2.03c-.83.26-1.8-.18-2.07-1l-7.74-23.5a1.56 1.56 0 0 1-.04-.15 7.37 7.37 0 0 0-.17-.62 6.88 6.88 0 0 0-8.66-4.37 6.88 6.88 0 0 0-4.37 8.64c.03.12.06.24.07.36l7.9 23.93a1.6 1.6 0 0 1-1.02 2.01 1.67 1.67 0 0 1-1.26-.07c-.38-.2-.7-.52-.83-.92l-6.06-18.38a1.42 1.42 0 0 1-.04-.14 7.18 7.18 0 0 0-.17-.62 6.86 6.86 0 0 0-8.66-4.37 6.81 6.81 0 0 0-3.98 3.43 6.8 6.8 0 0 0-.39 5.23c.04.1.07.22.08.34l12.16 36.9c1 3.02 2.38 6.96 4.2 10.66a39.62 39.62 0 0 0 7.84 11 46.65 46.65 0 0 1 7.7 10.25c.12.22.19.47.2.72l29.65 91.5a26.06 26.06 0 0 0 14.7 16.02l.11.05 61.75 31.52a1.6 1.6 0 0 1-.73 3.03z"/><path fill="#FF8630" d="m57.42 706.7 80.6-168.6-.06-.03a45.2 45.2 0 0 1 8.7-8.8c4-3 7.03-6.42 9.6-10.22a82.49 82.49 0 0 0 5.73-10.2l8.36-17.12 8.82-18.1s-.03-.01-.03-.03a8.45 8.45 0 1 0-15.2-7.4 8.75 8.75 0 0 0-.31.72l-8.48 17.4-.07-.03 11.2-22.94-.04-.03a8.46 8.46 0 0 0-3.89-11.3 8.46 8.46 0 0 0-11.3 3.88c-.12.24-.22.49-.32.73l-10.85 22.24-.06-.03 13.56-27.79-.03-.02a8.46 8.46 0 0 0-3.9-11.3 8.45 8.45 0 0 0-11.61 4.61l-13.22 27.08-.06-.03 11.2-22.94-.04-.03a8.45 8.45 0 1 0-15.5-6.68l-13.93 28.54-.4.03 3.03-14.4s-.04-.01-.04-.03a8.45 8.45 0 0 0-16.54-3.5 9 9 0 0 0-.12.77l-7.28 34.37c-.15.55-.3 1.1-.42 1.68a23.88 23.88 0 0 0 2.21 16.08c.99 2.42 2.5 7.1 1.33 10.79h.02L12.52 672.22"/><path d="M57.42 708.3a1.6 1.6 0 0 1-1.44-2.29l80.43-168.27a1.52 1.52 0 0 1 .28-.64 46.65 46.65 0 0 1 9-9.11 39.62 39.62 0 0 0 9.25-9.84 79.85 79.85 0 0 0 5.61-10l17.04-34.91c.02-.12.06-.23.12-.34a6.8 6.8 0 0 0 .32-5.23 6.81 6.81 0 0 0-3.48-3.93 6.86 6.86 0 0 0-9.17 3.15 7.33 7.33 0 0 0-.26.61 1.31 1.31 0 0 1-.05.12l-8.49 17.4a1.6 1.6 0 0 1-2.13.73 1.68 1.68 0 0 1-.85-.93c-.14-.4-.14-.86.04-1.24l11.05-22.64c.03-.11.06-.22.12-.32a6.87 6.87 0 0 0-12.33-6.02 6.72 6.72 0 0 0-.25.6 1.46 1.46 0 0 1-.06.13l-10.85 22.24a1.6 1.6 0 0 1-2.08.76 1.68 1.68 0 0 1-.9-.93 1.7 1.7 0 0 1 .04-1.27l13.4-27.47.13-.35c1.65-3.4.23-7.5-3.16-9.16a6.8 6.8 0 0 0-5.24-.32 6.8 6.8 0 0 0-3.92 3.48 6.49 6.49 0 0 0-.26.6 1.25 1.25 0 0 1-.06.13l-13.21 27.08a1.6 1.6 0 0 1-2.1.76 1.68 1.68 0 0 1-.88-.93c-.14-.4-.15-.87.04-1.26l11.04-22.63c.02-.12.07-.23.12-.35a6.83 6.83 0 0 0-3.16-9.16 6.87 6.87 0 0 0-9.16 3.16 9.52 9.52 0 0 0-.26.6 1.34 1.34 0 0 1-.06.13l-13.92 28.54c-.25.5-.73.84-1.29.9l-.4.02a1.6 1.6 0 0 1-1.71-1.92l2.96-14.08c0-.12 0-.24.03-.35a6.81 6.81 0 0 0-.96-5.16 6.8 6.8 0 0 0-4.32-2.97 6.79 6.79 0 0 0-5.16.95 6.8 6.8 0 0 0-3.07 4.97 2.63 2.63 0 0 1-.02.13l-7.28 34.38a5.01 5.01 0 0 1-.02.1 28.64 28.64 0 0 0-.4 1.58 22.4 22.4 0 0 0 2.07 15l.06.15c1.06 2.6 2.63 7.52 1.44 11.63a1.52 1.52 0 0 1-.13.45L13.97 672.9a1.6 1.6 0 1 1-2.9-1.37L86.54 513.6v-.02c1.04-3.27-.5-7.77-1.25-9.63a25.6 25.6 0 0 1-2.33-17.1c.13-.59.28-1.15.44-1.72l7.25-34.26a10 10 0 0 1 4.5-7.18 9.96 9.96 0 0 1 7.56-1.4 9.98 9.98 0 0 1 6.34 4.35 9.99 9.99 0 0 1 1.48 7.21c0 .13-.01.25-.04.38l-.66 3.16 8.92-18.3c.1-.26.22-.51.34-.77 2.44-5 8.47-7.08 13.45-4.65a9.98 9.98 0 0 1 5.09 5.73 9.99 9.99 0 0 1 4.86-3.6 10 10 0 0 1 7.68.48 10.08 10.08 0 0 1 5.26 11.81 10.04 10.04 0 0 1 7.64.48 10.08 10.08 0 0 1 5.25 11.81 10.02 10.02 0 0 1 7.64.48 10 10 0 0 1 5.1 5.76 9.97 9.97 0 0 1-.31 7.35 1.54 1.54 0 0 1-.13.36l-17.18 35.22a82.9 82.9 0 0 1-5.84 10.4 43.3 43.3 0 0 1-9.98 10.6 43.1 43.1 0 0 0-8.11 8.15l-.04.08-80.59 168.6a1.6 1.6 0 0 1-1.45.92zm752.56-318.86H687.55v-4.51h117.9V4.52H174.92L113.7 65.74v86.1h-4.51V63.87l.66-.66L173.04 0h636.94z"/><path d="M173.98 67.06h-62.55a2.26 2.26 0 0 1-1.6-3.85L172.39.66a2.26 2.26 0 0 1 3.86 1.6V64.8a2.26 2.26 0 0 1-2.26 2.26zm-57.1-4.52h54.84V7.71L116.9 62.55z"/><path fill="#FF8630" d="M153.31 535.18a13.44 13.44 0 0 1-13.3-11.3l-55.1-334.4L765.54 77.31l55.11 334.4a13.52 13.52 0 0 1-11.12 15.5L155.53 535c-.74.12-1.48.18-2.22.18zM453.2 185.33c-5.81 0-11.68.48-17.46 1.43-58 9.56-97.4 64.52-87.85 122.52a106.62 106.62 0 0 0 122.52 87.85c58-9.56 97.4-64.52 87.85-122.52a106.61 106.61 0 0 0-105.06-89.28z"/><path fill="#FFF" d="m764.22 79.16 54.85 332.8a11.9 11.9 0 0 1-9.8 13.67l-654 107.78a11.84 11.84 0 0 1-13.66-9.8l-54.86-332.8L764.22 79.16M452.95 400.17a109.3 109.3 0 0 0 17.72-1.45c28.52-4.7 53.5-20.23 70.35-43.72s23.53-52.13 18.83-80.65a108.23 108.23 0 0 0-124.37-89.18 107.5 107.5 0 0 0-70.35 43.72 107.5 107.5 0 0 0-18.83 80.65 108.22 108.22 0 0 0 106.65 90.63M766.88 75.45 83.05 188.15l55.37 335.99a15.12 15.12 0 0 0 17.37 12.45L809.8 428.8a15.12 15.12 0 0 0 12.45-17.37L766.88 75.45zm-313.93 321.5c-50.47 0-94.99-36.5-103.47-87.93-9.43-57.22 29.31-111.24 86.52-120.67a105.86 105.86 0 0 1 17.2-1.41c50.48 0 94.99 36.5 103.47 87.93 9.42 57.21-29.31 111.24-86.52 120.67a105.83 105.83 0 0 1-17.2 1.41z"/><path d="m83.84 192.86-4.6-27.85a15.11 15.11 0 0 1 12.46-17.37L745.71 39.85a15.1 15.1 0 0 1 17.36 12.45l4.6 27.86M407.23 230.62l112.95 48.07-91.55 81.79z"/><circle fill="#FFF" cx="103.51" cy="167.66" r="11.13"/><circle fill="#FF8630" cx="132.85" cy="162.82" r="11.13"/><path fill="#FFF" d="M162.16 170.73a12.7 12.7 0 0 1-12.56-10.67 12.66 12.66 0 0 1 2.22-9.5 12.66 12.66 0 0 1 8.29-5.15 12.7 12.7 0 0 1 14.65 10.5 12.66 12.66 0 0 1-2.22 9.5 12.64 12.64 0 0 1-8.29 5.15c-.69.12-1.4.17-2.09.17zm.03-22.27a9.56 9.56 0 0 0-9.4 11.08 9.48 9.48 0 0 0 9.38 7.97c.52 0 1.04-.04 1.56-.13a9.45 9.45 0 0 0 6.19-3.84 9.46 9.46 0 0 0 1.66-7.1 9.48 9.48 0 0 0-9.38-7.98z"/><path fill="#FF8630" d="m201.76 492.35 569.48-92.59"/><path fill="#FFF" d="m770.99 398.12.52 3.18L202.06 494l-.52-3.18z"/><path d="m316.83 472.01.52 3.18-115.31 18.78-.52-3.18z"/><circle cx="317.33" cy="473.01" r="13.18"/><path fill="#FF8630" d="m718 596.25 41.2 19.4 20.03-42.53-41.2-19.4z"/><path d="m759.96 617.78-44.1-20.76 21.4-45.44 44.1 20.78-21.4 45.42zm-39.84-22.3 38.3 18.05 18.69-39.64-38.31-18.05-18.68 39.65z"/><path fill="#FF8630" d="M836.18 472.88a67.27 67.27 0 0 0-90.82-.45l.15-.41-19.53 3 6.14 13.87a67.28 67.28 0 0 0 107.8 79.05 67.27 67.27 0 0 0-3.74-95.06z"/><path d="M790.5 591.15a68.67 68.67 0 0 1-46.74-18.3 69 69 0 0 1-21.37-40.5 69.2 69.2 0 0 1 7.94-43.55l-5.82-13.14a1.6 1.6 0 0 1 1.22-2.23l19.44-2.98a68.68 68.68 0 0 1 45.38-17.04c17.37 0 33.96 6.5 46.72 18.3a68.41 68.41 0 0 1 22.07 47.87 68.42 68.42 0 0 1-18.25 49.45 69.1 69.1 0 0 1-50.6 22.12zm-62.22-114.87 5.3 11.96a1.6 1.6 0 0 1-.07 1.44 65.32 65.32 0 0 0 12.42 80.82 65.48 65.48 0 0 0 44.57 17.45 65.88 65.88 0 0 0 48.24-21.1 65.24 65.24 0 0 0 17.4-47.15 65.24 65.24 0 0 0-21.04-45.65 65.44 65.44 0 0 0-44.55-17.44 65.5 65.5 0 0 0-44.12 17 1.6 1.6 0 0 1-1.91.18l-16.24 2.49z"/><path d="m854.67 548.65 14.94 33.83-30.52 1.5-13.2 26.38-18.2-19.95-24.22 12.7-3.52-55.16s17.7 14.23 33.32-11.37l-12.9-37.93 54.3 50zm-85.32-49.01a8.64 8.64 0 0 1-12.2.48 8.64 8.64 0 0 1-.49-12.2 8.63 8.63 0 1 1 12.7 11.72z"/><path d="M774.89 508.87a1.6 1.6 0 0 1-1.58-1.83 19.32 19.32 0 0 0-6.01-16.97 1.6 1.6 0 0 1 2.17-2.35 22.52 22.52 0 0 1 7 19.78 1.6 1.6 0 0 1-1.58 1.37z"/><path fill="#FFF" d="m854.67 548.65 33.27-36.12a5.3 5.3 0 0 0-.3-7.48l-86.7-79.87a5.3 5.3 0 0 0-7.48.31l-33.27 36.11 94.48 87.05z"/><path fill="#FFF" d="m775.7 459.01-8.45 9.12-40.36-37.31z"/><path fill="#FF8630" d="M726.28 505.87s6.84 14.38 25.67 14.25"/><path d="M751.7 521.72c-19.43 0-26.57-14.54-26.87-15.16a1.6 1.6 0 0 1 2.9-1.38c.27.56 6.63 13.34 23.97 13.34h.26a1.6 1.6 0 0 1 0 3.2h-.27z"/><path fill="#FF8630" d="M805.39 510.33a22.37 22.37 0 0 1 2 1.64 22.73 22.73 0 0 1-30.84 33.39 22.68 22.68 0 0 1-3.6-4.26"/><path d="M791.94 552.99a24.14 24.14 0 0 1-16.48-6.45 24.36 24.36 0 0 1-3.86-4.57 1.6 1.6 0 0 1 .47-2.21 1.6 1.6 0 0 1 2.21.46 21.14 21.14 0 0 0 3.36 3.96 20.95 20.95 0 0 0 15.17 5.6 21 21 0 0 0 14.68-6.79 21.15 21.15 0 0 0-1.2-29.85 21.1 21.1 0 0 0-1.85-1.52 1.6 1.6 0 0 1 1.89-2.58 24.35 24.35 0 0 1 3.5 36.12 24.18 24.18 0 0 1-17.9 7.83z"/><path fill="#FF8630" d="M802.5 530.21 782 531.9"/><path d="M781.99 533.5a1.6 1.6 0 0 1-.13-3.2l20.52-1.68c.88-.1 1.65.58 1.72 1.46a1.6 1.6 0 0 1-1.46 1.73l-20.52 1.68a1.5 1.5 0 0 1-.13 0zM575.1 801.33l106.76-214.74c5.36-10.81 19.9-14.52 32.46-8.28l35.83 17.78c53.42 26.52 34 65.64 25.13 83.5L718 801.77l-142.9-.43z"/><path d="m719.01 803.37-146.5-.45 107.92-217.04c3.73-7.52 11.87-12.2 21.24-12.2 4.53 0 9.15 1.1 13.36 3.2l35.83 17.78c23.54 11.68 35.92 27.28 36.8 46.35.74 15.75-6.58 30.49-10.95 39.3L719 803.37zm-141.34-3.63 139.31.42 56.85-121.24c4.52-9.12 11.34-22.84 10.64-37.76-.83-17.83-12.61-32.5-35.03-43.64l-35.83-17.78a27 27 0 0 0-11.93-2.86c-8.15 0-15.2 4-18.39 10.42L577.67 799.73z"/><path fill="#FF8630" d="M209.6 802.26h.02l.07-87.91c.01-19.37.04-61.81-57.89-61.85l-27.34-.02H112.6l-53.1.02c-57.94.04-57.9 42.48-57.9 61.85l.08 87.9H209.6z"/><path d="M211.22 803.86H.08l-.01-1.6L0 714.35c0-9.56-.02-25.55 7.41-38.95 9.01-16.24 26.53-24.48 52.07-24.5l53.46-.02h11.55l27.31.02c25.54.02 43.06 8.26 52.07 24.5 7.43 13.4 7.42 29.4 7.42 38.95l-.07 89.5zm-207.95-3.2h204.75l.07-86.31c0-9.85.01-24.73-7.02-37.4-8.4-15.15-24.98-22.83-49.27-22.85l-27.69-.02h-11.49l-53.13.02c-24.3.02-40.87 7.7-49.28 22.85-7.03 12.68-7.02 27.55-7 37.4l.06 86.3z"/><path fill="#FF8630" d="M83.52 606.8h44.24v45.66H83.52z"/><path d="m81.94 654.08-.03-48.87 47.43-.04.03 48.88-47.43.03zm3.17-45.68.03 42.48 41.03-.03-.02-42.47-41.04.02z"/><path fill="#FF8630" d="M171.49 544.5c-.88 0-1.74.06-2.58.15a65.48 65.48 0 0 0-125.74.08 23 23 0 0 0-2.57-.14 22.73 22.73 0 0 0 .03 45.45 22.68 22.68 0 0 0 5.54-.7 65.45 65.45 0 0 0 119.8-.07 22.72 22.72 0 1 0 5.51-44.77z"/><path d="M106.1 629.97h-.05a67.1 67.1 0 0 1-60.8-38.78 24.27 24.27 0 0 1-4.62.45 24.36 24.36 0 0 1-24.34-24.31A24.36 24.36 0 0 1 42 543.03a67.37 67.37 0 0 1 64-47.15 67.4 67.4 0 0 1 64.06 47.07 24.36 24.36 0 0 1 25.76 24.26c0 6.5-2.53 12.6-7.12 17.2a24.16 24.16 0 0 1-17.2 7.14c-1.55 0-3.1-.15-4.61-.44a67.1 67.1 0 0 1-60.8 38.86zm-59.01-42.5.54 1.23a63.9 63.9 0 0 0 58.42 38.07v1.6l.04-1.6a63.9 63.9 0 0 0 58.42-38.15l.54-1.23 1.31.33a21.18 21.18 0 0 0 20.09-5.57 21 21 0 0 0 6.17-14.94 21.15 21.15 0 0 0-23.53-20.97l-1.34.16-.38-1.3a64.15 64.15 0 0 0-61.32-46.02 64.16 64.16 0 0 0-61.34 46.1l-.38 1.3-1.34-.15a21.54 21.54 0 0 0-2.4-.14 21.15 21.15 0 0 0-21.1 21.14 21.16 21.16 0 0 0 21.12 21.1 21.17 21.17 0 0 0 5.17-.63l1.3-.33z"/><path fill="#FF8630" d="M202.9 721.05c23.58-10.47 48.3-19.8 71.87-30.28 15-6.65 30.31-11.88 26.03-31.85l-22.43-115.4-.06.02c-.03-4.12.38-8.31 1.47-12.28a41.62 41.62 0 0 0 1.33-13.98c-.25-3.8-.9-7.6-1.73-11.56l-3.89-18.65-4.12-19.7h-.04a8.45 8.45 0 0 0-10-6.56 8.45 8.45 0 0 0-6.35 10.78l3.95 18.94-.07.01-5.21-24.98h-.05a8.46 8.46 0 0 0-10-6.56 8.46 8.46 0 0 0-6.35 10.78l5.06 24.22-.07.02-6.32-30.27h-.04a8.46 8.46 0 1 0-16.35 4.22l6.16 29.5-.07.02-5.22-24.99h-.04a8.45 8.45 0 1 0-16.35 4.22l6.5 31.1-.3.26-6.45-13.24s-.03.02-.04 0a8.46 8.46 0 0 0-15.22 7.37c.12.24.24.46.38.69l15.32 31.61c.22.53.44 1.06.7 1.59a23.85 23.85 0 0 0 11.6 11.35c2.26 1.31 6.33 4.08 7.68 7.7l17.8 83.13-62.92 26.37"/><path d="M202.9 722.65a1.6 1.6 0 0 1-.66-3.06 1347.2 1347.2 0 0 1 35.99-15.16c11.86-4.86 24.12-9.9 35.9-15.12l2.84-1.25c13.95-6.1 26-11.37 22.26-28.8L276.87 544.2a1.49 1.49 0 0 1-.16-.66c-.04-4.61.48-8.9 1.52-12.71a39.68 39.68 0 0 0 1.28-13.45c-.2-3.22-.73-6.71-1.7-11.34l-7.94-38.03a1.55 1.55 0 0 1-.12-.4 6.82 6.82 0 0 0-12.43-2.29 6.8 6.8 0 0 0-.77 5.93l3.95 18.94a1.6 1.6 0 0 1-1.24 1.9 1.66 1.66 0 0 1-1.96-1.23l-5.15-24.65a1.53 1.53 0 0 1-.1-.32 6.87 6.87 0 1 0-13.22 3.55l5.05 24.22a1.6 1.6 0 0 1-1.18 1.88 1.65 1.65 0 0 1-2.02-1.2l-6.26-29.95a1.55 1.55 0 0 1-.1-.32 6.87 6.87 0 0 0-8.12-5.31 6.86 6.86 0 0 0-5.1 8.88l6.16 29.5a1.6 1.6 0 0 1-1.25 1.89c-.86.17-1.78-.37-1.96-1.23l-5.14-24.64a1.57 1.57 0 0 1-.12-.35 6.8 6.8 0 0 0-2.95-4.33 6.81 6.81 0 0 0-5.16-.98 6.86 6.86 0 0 0-5.1 8.88l6.49 31.1a1.6 1.6 0 0 1-.5 1.5l-.28.26a1.62 1.62 0 0 1-1.38.4 1.6 1.6 0 0 1-1.15-.88l-6.3-12.94a1.67 1.67 0 0 1-.19-.32 6.79 6.79 0 0 0-3.9-3.46 6.82 6.82 0 0 0-5.24.3 6.86 6.86 0 0 0-2.8 9.85l15.31 31.61.05.1c.2.5.4 1 .65 1.5a22.38 22.38 0 0 0 10.83 10.58l.14.07c2.48 1.44 6.85 4.46 8.37 8.53.03.07.05.15.06.23l17.81 83.12a1.6 1.6 0 0 1-.94 1.8l-62.93 26.38a1.6 1.6 0 0 1-1.24-2.95l61.7-25.86-17.5-81.7c-1.24-3.17-5.16-5.74-6.87-6.74a25.6 25.6 0 0 1-12.32-12.08 28.41 28.41 0 0 1-.7-1.63l-15.28-31.5a9.5 9.5 0 0 1-.41-.76 10.07 10.07 0 0 1 4.68-13.43 9.99 9.99 0 0 1 7.68-.44 9.98 9.98 0 0 1 5.58 4.8c.08.09.15.2.2.3l1.42 2.92-4.16-19.93a9.99 9.99 0 0 1-.22-.84 10.07 10.07 0 0 1 7.79-11.9 10 10 0 0 1 7.52 1.4 10.07 10.07 0 0 1 8-10.15 10.1 10.1 0 0 1 11.4 6.11 10.03 10.03 0 0 1 6.32-4.3 10.07 10.07 0 0 1 11.4 6.1 9.99 9.99 0 0 1 6.33-4.3 9.99 9.99 0 0 1 7.56 1.44 9.98 9.98 0 0 1 4.25 6c.06.1.1.23.13.35l8.01 38.36a85.9 85.9 0 0 1 1.76 11.79 43.4 43.4 0 0 1-1.39 14.5 43.22 43.22 0 0 0-1.41 11.41l.03.13 22.43 115.4c4.28 19.95-10.16 26.26-24.12 32.37l-2.83 1.24c-11.8 5.25-24.1 10.29-35.98 15.16-11.86 4.86-24.12 9.9-35.9 15.12a1.57 1.57 0 0 1-.64.14zm-26.1-165.99a15.46 15.46 0 0 0-23.37-13.26 47.93 47.93 0 0 0-95.37-1.34 15.42 15.42 0 0 0-5.04-.86 15.46 15.46 0 0 0-.93 30.88 15.36 15.36 0 0 0-2.5 8.4 15.46 15.46 0 0 0 18.47 15.17l-.01.3a15.46 15.46 0 0 0 24.37 12.62 15.46 15.46 0 0 0 28.17.49 15.36 15.36 0 0 0 8.16 2.35c8.54 0 15.46-6.92 15.46-15.46l-.01-.3a15.46 15.46 0 0 0 15.97-23.59c.39.03.77.06 1.17.06 8.54 0 15.46-6.92 15.46-15.46z"/><path fill="#FFF" d="m170.06 543.1-.09-49.1a5.3 5.3 0 0 0-5.3-5.3l-117.88.21a5.3 5.3 0 0 0-5.28 5.3l.08 49.11 128.47-.22z"/><path d="M44.22 652.48H71.7v94.57H44.22zm96.45 0h27.48v94.57h-27.48z"/><path d="M2.5 739.61h207.13v62.65H2.49z"/><path fill="#FFF" d="M44.22 729.02H71.7v20.04H44.22zm96.45 0h27.49v20.04h-27.5z"/><path fill="#FF8630" d="m689.49 654.77-53.7-43.85a27.65 27.65 0 0 1-11.68-19.9l-9.7-96.14h.05a45.32 45.32 0 0 0-5.17-11.24 41.5 41.5 0 0 1-5.55-12.89 83.47 83.47 0 0 1-1.9-11.54l-2.01-18.94-2.13-20.02s.04 0 .04-.02a8.45 8.45 0 0 1 7.52-9.3 8.45 8.45 0 0 1 9.34 8.31l2.05 19.24h.06l-2.69-25.39h.03a8.46 8.46 0 0 1 7.52-9.32 8.46 8.46 0 0 1 9.3 7.52c.03.27.04.53.05.8l2.61 24.6h.07l-3.27-30.75.04-.01a8.46 8.46 0 0 1 7.52-9.3 8.45 8.45 0 0 1 9.34 8.3l3.19 29.96h.07l-2.7-25.38s.04 0 .04-.02a8.45 8.45 0 0 1 7.51-9.3 8.46 8.46 0 0 1 9.3 7.51c.03.27.05.53.05.8l3.35 31.58.37.16 2.07-14.58h.04a8.45 8.45 0 0 1 9.54-7.2 8.46 8.46 0 0 1 7.06 10.3l-4.9 34.8c-.04.57-.08 1.14-.17 1.72a23.85 23.85 0 0 1-7.57 14.37c-1.74 1.94-4.76 5.83-4.93 9.68h-.01l8.54 84.59 46.45 37.92"/><path d="M689.48 656.37a1.6 1.6 0 0 1-1-.36l-53.66-43.82a29.3 29.3 0 0 1-12.3-21.01l-9.71-96.14a1.21 1.21 0 0 1 0-.1 43.34 43.34 0 0 0-4.86-10.42 43.27 43.27 0 0 1-5.76-13.38 86.4 86.4 0 0 1-1.94-11.76l-4.14-38.97a1.52 1.52 0 0 1 0-.4 10 10 0 0 1 2.21-6.99 9.98 9.98 0 0 1 6.77-3.68c2.73-.3 5.34.55 7.34 2.16a10.04 10.04 0 0 1 16.32-7.16 10.08 10.08 0 0 1 8.97-9.3 9.98 9.98 0 0 1 7.38 2.17 9.98 9.98 0 0 1 3.34 5.03 10 10 0 0 1 6.73-3.64 10.08 10.08 0 0 1 11.12 9.8l2.15 20.25.45-3.21c.02-.12.05-.24.1-.35a9.97 9.97 0 0 1 3.84-6.29 10.02 10.02 0 0 1 7.45-1.93 10.07 10.07 0 0 1 8.41 12.19l-4.87 34.67c-.05.6-.1 1.18-.18 1.78a25.57 25.57 0 0 1-8.02 15.27c-1.33 1.49-4.32 5.19-4.47 8.61l8.46 83.7 45.94 37.51a1.6 1.6 0 0 1-2.03 2.48l-46.45-37.93a1.6 1.6 0 0 1-.58-1.07l-8.54-84.59a1.62 1.62 0 0 1 .02-.47c.29-4.26 3.45-8.36 5.33-10.44l.1-.11a22.38 22.38 0 0 0 7.07-13.41 21.87 21.87 0 0 0 .17-1.72l4.9-34.8a1.64 1.64 0 0 1 .02-.13l.12-.66a6.86 6.86 0 0 0-5.84-7.71 6.8 6.8 0 0 0-5.08 1.32 6.81 6.81 0 0 0-2.66 4.52 1.62 1.62 0 0 1-.08.33l-2.03 14.26a1.6 1.6 0 0 1-2.22 1.24l-.37-.16a1.6 1.6 0 0 1-.95-1.3l-3.35-31.58a1.36 1.36 0 0 1-.01-.16 8.06 8.06 0 0 0-.04-.66 6.87 6.87 0 0 0-7.54-6.07 6.81 6.81 0 0 0-4.6 2.5 6.8 6.8 0 0 0-1.49 5.04c.02.12.02.25 0 .37l2.66 25.03a1.6 1.6 0 0 1-1.46 1.76c-.86.09-1.7-.55-1.8-1.42l-3.18-29.96a1.76 1.76 0 0 1 0-.15 6.8 6.8 0 0 0-2.55-5.25 6.78 6.78 0 0 0-5.03-1.49 6.87 6.87 0 0 0-6.1 7.55c.02.12.01.24 0 .35l3.23 30.4a1.6 1.6 0 0 1-1.52 1.77 1.64 1.64 0 0 1-1.73-1.43l-2.62-24.6a1.76 1.76 0 0 1 0-.14 7.47 7.47 0 0 0-.04-.65 6.87 6.87 0 0 0-7.54-6.1 6.88 6.88 0 0 0-6.1 7.53c.02.12.02.24 0 .35l2.66 25.06a1.6 1.6 0 0 1-1.38 1.76 1.68 1.68 0 0 1-1.23-.33 1.63 1.63 0 0 1-.64-1.08l-2.04-19.24a1.48 1.48 0 0 1-.01-.14 7.56 7.56 0 0 0-.04-.65 6.85 6.85 0 0 0-7.54-6.1 6.8 6.8 0 0 0-4.6 2.51 6.8 6.8 0 0 0-1.49 5.03v.35l4.1 38.63c.5 4.7 1.08 8.19 1.87 11.32a39.55 39.55 0 0 0 5.33 12.4A46.85 46.85 0 0 1 616 494.4c.08.25.1.5.05.76l9.66 95.7a26.11 26.11 0 0 0 11 18.75l.1.07 53.7 43.85a1.6 1.6 0 0 1-1.02 2.84z"/><path fill="#FFF" d="M747.63 668.13c-13.51 16.34-37.57 18.75-53.74 5.38l-32.68-27.02 48.94-59.18 32.67 27.02c16.17 13.37 18.32 37.45 4.81 53.8z"/><circle fill="#FFF" cx="779.23" cy="24.82" r="8.55"/></svg>
