<svg xmlns="http://www.w3.org/2000/svg" width="889.341" height="803.858" xml:space="preserve"><path fill="#F68635" d="m705.222 633.655-61.742-31.528c-7.162-3.014-13.029-9.01-15.611-16.987l-29.781-91.919.057-.018c-2.031-3.581-4.49-7.002-7.422-9.894-3.559-3.507-6.107-7.314-8.145-11.428-1.691-3.415-3.029-7.04-4.295-10.877l-5.969-18.091-6.301-19.126s.039-.011.033-.022a8.453 8.453 0 0 1 5.385-10.674 8.457 8.457 0 0 1 10.678 5.382c.084.254.15.512.209.766l6.061 18.379.064-.021-7.992-24.242s.039-.015.031-.021a8.465 8.465 0 0 1 5.385-10.684 8.462 8.462 0 0 1 10.68 5.389c.084.254.15.51.209.761l7.748 23.502.068-.021-9.682-29.362s.039-.017.035-.021a8.456 8.456 0 1 1 16.061-5.297c.084.254.15.508.209.764l9.436 28.618.068-.021-7.992-24.242s.035-.014.037-.026a8.44 8.44 0 0 1 5.381-10.671 8.45 8.45 0 0 1 10.887 6.144l9.943 30.163c.129.031.262.052.389.083l-1.051-14.688s.037.001.035-.012a8.46 8.46 0 0 1 7.809-9.059c4.658-.345 8.711 3.153 9.057 7.811.02.268.021.524.02.786l2.562 35.043c.08.565.15 1.133.193 1.714a23.858 23.858 0 0 1-4.367 15.644c-1.299 2.263-3.43 6.703-2.773 10.502l-.016.007 26.203 80.874 53.41 27.267"/><path d="M705.221 635.256c-.245 0-.493-.057-.727-.176l-61.69-31.502a29.257 29.257 0 0 1-16.458-17.946l-29.781-91.918a1.007 1.007 0 0 1-.027-.098c-2.073-3.586-4.405-6.669-6.938-9.168-3.395-3.345-6.161-7.224-8.455-11.856-1.921-3.878-3.351-7.962-4.381-11.086l-12.27-37.217a1.606 1.606 0 0 1-.075-.372 9.977 9.977 0 0 1 .68-7.322 9.987 9.987 0 0 1 5.832-5.022 10.03 10.03 0 0 1 7.631.555c-.686-4.737 2.107-9.443 6.804-10.996a10.046 10.046 0 0 1 7.637.562 9.982 9.982 0 0 1 .975-5.97 9.987 9.987 0 0 1 5.829-5.024c4.703-1.545 9.74.57 12.006 4.784a9.977 9.977 0 0 1 5.813-4.979 9.983 9.983 0 0 1 7.672.569 9.98 9.98 0 0 1 5.256 6.66l6.375 19.338-.231-3.232a1.518 1.518 0 0 1 .016-.363c-.209-5.377 3.896-10.013 9.305-10.417 5.529-.41 10.361 3.758 10.771 9.288.021.291.025.569.024.851l2.554 34.926c.082.583.153 1.168.197 1.767a25.585 25.585 0 0 1-4.612 16.623c-.992 1.74-3.131 5.99-2.548 9.368l.001.006 25.928 80.023 52.82 26.966c.787.401 1.1 1.365.697 2.152a1.596 1.596 0 0 1-2.152.697l-53.41-27.267a1.598 1.598 0 0 1-.795-.932l-26.203-80.874a1.594 1.594 0 0 1-.078-.474c-.614-4.224 1.605-8.891 3.002-11.325.026-.045.054-.088.084-.13a22.379 22.379 0 0 0 4.075-14.599 23.281 23.281 0 0 0-.182-1.607 1.98 1.98 0 0 1-.012-.108l-2.562-35.043a1.357 1.357 0 0 1-.004-.128 8.083 8.083 0 0 0-.016-.658c-.279-3.771-3.617-6.607-7.343-6.331a6.868 6.868 0 0 0-6.331 7.345c.008.115.004.229-.012.342l1.027 14.362a1.6 1.6 0 0 1-1.978 1.668l-.126-.026c-.086-.018-.172-.035-.257-.056a1.599 1.599 0 0 1-1.143-1.054l-9.943-30.163a1.422 1.422 0 0 1-.039-.142 6.798 6.798 0 0 0-3.597-4.596 6.797 6.797 0 0 0-5.229-.388 6.802 6.802 0 0 0-3.979 3.423 6.801 6.801 0 0 0-.385 5.226c.04.12.065.243.075.367l7.881 23.903a1.598 1.598 0 0 1-1.06 2.033c-.833.25-1.777-.188-2.048-1.011l-9.436-28.618a1.465 1.465 0 0 1-.04-.144 7.376 7.376 0 0 0-.168-.619c-1.185-3.59-5.07-5.548-8.66-4.365a6.811 6.811 0 0 0-3.973 3.425 6.814 6.814 0 0 0-.39 5.234c.037.113.062.231.073.35l9.573 29.033a1.598 1.598 0 0 1-1.04 2.027c-.833.262-1.794-.172-2.067-1.004l-7.748-23.502a1.557 1.557 0 0 1-.038-.138 7.368 7.368 0 0 0-.17-.621c-1.187-3.592-5.072-5.549-8.661-4.372-3.58 1.184-5.539 5.059-4.371 8.645.039.114.065.233.078.354l7.889 23.927a1.6 1.6 0 0 1-1.014 2.019 1.671 1.671 0 0 1-1.256-.077c-.38-.19-.701-.514-.834-.918l-6.061-18.379a1.422 1.422 0 0 1-.039-.142 7.178 7.178 0 0 0-.169-.622 6.864 6.864 0 0 0-8.658-4.365 6.81 6.81 0 0 0-3.977 3.425 6.805 6.805 0 0 0-.39 5.229c.037.112.061.227.072.344l12.164 36.896c.997 3.023 2.377 6.969 4.209 10.668 2.164 4.369 4.653 7.863 7.834 10.998 2.832 2.793 5.419 6.239 7.69 10.244.127.225.197.473.207.725l29.648 91.508a26.063 26.063 0 0 0 14.709 16.006c.037.016.072.032.107.05l61.742 31.528a1.598 1.598 0 0 1-.725 3.023z"/><path fill="#F68635" d="m57.425 706.702 80.59-168.605-.053-.025c2.496-3.273 5.393-6.332 8.689-8.802 4-2.993 7.041-6.422 9.615-10.223 2.135-3.153 3.955-6.567 5.723-10.196l8.357-17.12 8.826-18.097s-.037-.019-.029-.03c2.047-4.192.305-9.255-3.893-11.302-4.197-2.05-9.258-.304-11.307 3.891a8.747 8.747 0 0 0-.314.729l-8.484 17.394-.062-.03 11.191-22.941s-.035-.017-.029-.023a8.46 8.46 0 0 0-3.891-11.311 8.462 8.462 0 0 0-11.309 3.893c-.117.24-.219.485-.311.73l-10.852 22.235-.064-.028 13.561-27.788s-.039-.019-.031-.023a8.459 8.459 0 0 0-3.895-11.309 8.45 8.45 0 0 0-11.617 4.621l-13.213 27.082-.064-.029 11.193-22.941s-.033-.019-.031-.031c2.049-4.191.309-9.256-3.891-11.304-4.197-2.048-9.258-.304-11.307 3.892-.115.243-.219.485-.312.729l-13.926 28.543c-.131.013-.266.017-.396.028l3.027-14.408s-.039-.006-.035-.02c.969-4.568-1.949-9.058-6.516-10.024-4.566-.973-9.055 1.945-10.025 6.512a8.997 8.997 0 0 0-.125.776l-7.273 34.374c-.154.55-.301 1.104-.426 1.675a23.878 23.878 0 0 0 2.217 16.088c.982 2.418 2.494 7.103 1.328 10.784l.018.005-75.557 158.143"/><path d="M57.424 708.303a1.6 1.6 0 0 1-1.442-2.291l80.429-168.269a1.52 1.52 0 0 1 .279-.642c2.795-3.665 5.823-6.731 9.003-9.112 3.577-2.677 6.516-5.804 9.25-9.84 1.819-2.688 3.55-5.772 5.608-9.999l17.035-34.914c.027-.115.067-.228.12-.335a6.802 6.802 0 0 0 .32-5.232 6.81 6.81 0 0 0-3.477-3.929c-3.396-1.662-7.508-.245-9.168 3.154a7.328 7.328 0 0 0-.261.606 1.31 1.31 0 0 1-.054.121l-8.484 17.394a1.597 1.597 0 0 1-2.135.738 1.679 1.679 0 0 1-.846-.932c-.14-.401-.144-.857.043-1.239l11.045-22.644c.027-.11.066-.219.117-.321v-.001c1.658-3.397.242-7.512-3.155-9.171-3.395-1.656-7.511-.238-9.169 3.157a6.724 6.724 0 0 0-.25.59 1.463 1.463 0 0 1-.061.141l-10.852 22.235a1.602 1.602 0 0 1-2.081.763 1.684 1.684 0 0 1-.891-.929c-.15-.408-.159-.875.032-1.267l13.409-27.479c.029-.118.07-.233.125-.342 1.647-3.396.229-7.502-3.164-9.159a6.807 6.807 0 0 0-5.234-.32 6.8 6.8 0 0 0-3.928 3.476 6.49 6.49 0 0 0-.259.599 1.249 1.249 0 0 1-.057.13l-13.213 27.082a1.596 1.596 0 0 1-2.1.755 1.682 1.682 0 0 1-.876-.93c-.146-.406-.153-.869.036-1.257l11.04-22.628c.027-.12.068-.235.122-.347.804-1.643.918-3.501.322-5.232s-1.83-3.127-3.477-3.93c-3.396-1.657-7.509-.242-9.168 3.155a9.521 9.521 0 0 0-.257.601 1.338 1.338 0 0 1-.056.128l-13.926 28.543c-.243.5-.729.838-1.283.892l-.408.029a1.598 1.598 0 0 1-1.708-1.923l2.958-14.079c-.001-.118.01-.235.034-.352a6.812 6.812 0 0 0-.958-5.159 6.804 6.804 0 0 0-4.323-2.968 6.789 6.789 0 0 0-5.158.955 6.809 6.809 0 0 0-3.075 4.97 2.627 2.627 0 0 1-.021.128l-7.273 34.374a5.014 5.014 0 0 1-.025.102 28.64 28.64 0 0 0-.403 1.584 22.4 22.4 0 0 0 2.071 15.003c.024.046.046.093.065.141 1.057 2.601 2.626 7.525 1.442 11.633a1.517 1.517 0 0 1-.136.448L13.966 672.905a1.599 1.599 0 1 1-2.887-1.379l75.452-157.929.005-.017c1.037-3.273-.509-7.772-1.257-9.629a25.608 25.608 0 0 1-2.328-17.092c.13-.595.279-1.162.437-1.725l7.25-34.261a9.991 9.991 0 0 1 4.496-7.183 9.963 9.963 0 0 1 7.565-1.401 9.983 9.983 0 0 1 6.342 4.354 9.988 9.988 0 0 1 1.476 7.208c.003.125-.008.251-.034.375l-.664 3.162 8.926-18.295c.102-.259.212-.516.334-.774 2.442-4.998 8.474-7.075 13.454-4.644a9.984 9.984 0 0 1 5.085 5.721 9.987 9.987 0 0 1 4.859-3.589 9.996 9.996 0 0 1 7.679.471c4.448 2.173 6.581 7.213 5.26 11.813a10.04 10.04 0 0 1 7.641.477c4.447 2.173 6.579 7.212 5.258 11.812a10.02 10.02 0 0 1 7.64.481 9.993 9.993 0 0 1 5.099 5.763 9.975 9.975 0 0 1-.314 7.344 1.542 1.542 0 0 1-.126.364l-17.185 35.218c-2.127 4.367-3.927 7.572-5.835 10.391-2.899 4.281-6.165 7.751-9.981 10.607-2.845 2.13-5.573 4.871-8.114 8.15-.012.028-.024.057-.038.086l-80.59 168.605c-.277.578-.85.914-1.447.914zM809.975 389.443H687.548v-4.517h117.909V4.518H174.915l-61.222 61.221v86.098h-4.517V63.868l.662-.661L173.044 0h636.931z"/><path d="M173.979 67.062h-62.545a2.26 2.26 0 0 1-1.597-3.856L172.382.661a2.258 2.258 0 0 1 3.856 1.597v62.545a2.259 2.259 0 0 1-2.259 2.259zm-57.092-4.517h54.834V7.711l-54.834 54.834z"/><path fill="#F68635" d="M153.312 535.183c-6.627 0-12.22-4.756-13.3-11.307L84.901 189.48 765.55 77.306l55.113 334.396c1.209 7.342-3.781 14.303-11.124 15.516L155.528 535c-.734.121-1.479.183-2.216.183zm299.886-349.855c-5.809 0-11.683.482-17.459 1.435-57.994 9.56-97.402 64.521-87.848 122.516 4.135 25.082 17.111 47.891 36.539 64.227 19.217 16.157 43.552 25.056 68.521 25.056 5.808 0 11.682-.482 17.457-1.434 57.996-9.559 97.404-64.52 87.848-122.517-4.134-25.081-17.11-47.89-36.537-64.226-19.216-16.158-43.551-25.057-68.521-25.057z"/><path fill="#FFF" d="m764.223 79.157 54.851 332.806c1.064 6.466-3.33 12.596-9.795 13.664L155.266 533.411c-.647.106-1.304.16-1.953.16-5.834 0-10.759-4.188-11.71-9.957l-54.85-332.807 677.47-111.65M452.952 400.172a109.3 109.3 0 0 0 17.719-1.455c28.52-4.7 53.502-20.226 70.345-43.716s23.53-52.133 18.831-80.653c-4.197-25.458-17.367-48.611-37.086-65.194-19.505-16.403-44.206-25.437-69.563-25.437-5.899.001-11.861.491-17.721 1.456-28.519 4.701-53.5 20.227-70.343 43.717-16.843 23.489-23.53 52.132-18.832 80.651 4.197 25.46 17.37 48.614 37.092 65.196 19.506 16.403 44.21 25.435 69.558 25.435M766.878 75.454 83.05 188.152l55.373 335.985c1.221 7.402 7.627 12.656 14.89 12.656.817 0 1.645-.066 2.478-.204l654.012-107.783c8.232-1.36 13.807-9.136 12.451-17.367L766.878 75.454zM452.952 396.95c-50.477 0-94.991-36.498-103.471-87.934-9.426-57.211 29.309-111.233 86.52-120.664a105.856 105.856 0 0 1 17.197-1.413c50.478-.005 94.991 36.499 103.469 87.933 9.428 57.213-29.309 111.236-86.52 120.665a105.832 105.832 0 0 1-17.195 1.413z"/><path d="m83.837 192.86-4.59-27.854c-1.357-8.233 4.219-16.009 12.453-17.365L745.712 39.854c8.234-1.358 16.006 4.218 17.363 12.451l4.59 27.854M407.229 230.618l112.95 48.076-91.547 81.783z"/><circle fill="#FFF" cx="103.512" cy="167.655" r="11.133"/><circle fill="#F68635" cx="132.847" cy="162.821" r="11.134"/><path fill="#FFF" d="M162.165 170.733a12.692 12.692 0 0 1-12.562-10.672 12.66 12.66 0 0 1 2.219-9.5 12.66 12.66 0 0 1 8.285-5.148c.69-.114 1.394-.172 2.089-.172 6.256 0 11.538 4.488 12.56 10.673a12.657 12.657 0 0 1-2.219 9.5 12.645 12.645 0 0 1-8.285 5.148c-.69.114-1.393.171-2.087.171zm.03-22.269c-.521 0-1.047.043-1.564.129-2.511.413-4.709 1.779-6.191 3.847s-2.071 4.589-1.657 7.099a9.483 9.483 0 0 0 9.383 7.974c.52 0 1.045-.044 1.562-.129a9.448 9.448 0 0 0 6.19-3.846 9.464 9.464 0 0 0 1.657-7.099 9.483 9.483 0 0 0-9.38-7.975z"/><path fill="#F68635" d="m201.765 492.346 569.473-92.585"/><path fill="#FFF" d="m770.99 398.118.518 3.18-569.45 92.716-.518-3.18z"/><g><path d="m316.828 472.011.518 3.18-115.306 18.774-.518-3.18z"/></g><g><circle cx="317.334" cy="473.009" r="13.179"/></g><g><path fill="#F68635" d="m717.995 596.252 41.199 19.403 20.039-42.531-41.201-19.409z"/><path d="m759.96 617.784-44.094-20.767 21.4-45.432 44.096 20.772-21.402 45.427zm-39.836-22.298 38.305 18.04 18.676-39.637-38.307-18.046-18.674 39.643z"/><g><path fill="#F68635" d="M836.185 472.879c-25.807-23.861-65.283-23.643-90.828-.452l.156-.409-19.537 2.998 6.145 13.87c-15.236 26.59-10.738 61.095 12.723 82.788 27.285 25.221 69.846 23.552 95.068-3.729s23.554-69.844-3.727-95.066z"/><path d="M790.499 591.149h-.002c-17.374 0-33.974-6.5-46.74-18.301-11.509-10.642-19.098-25.024-21.37-40.5-2.198-14.974.622-30.405 7.945-43.55l-5.819-13.135a1.599 1.599 0 0 1 1.22-2.229l19.435-2.982c12.543-11 28.611-17.044 45.384-17.044 17.368 0 33.96 6.498 46.72 18.296 13.509 12.488 21.345 29.49 22.065 47.873.72 18.384-5.761 35.946-18.25 49.454-12.996 14.056-31.437 22.118-50.588 22.118zM728.285 476.28l5.298 11.957a1.6 1.6 0 0 1-.075 1.444c-15.29 26.684-10.183 59.917 12.421 80.817 12.174 11.253 28.002 17.45 44.569 17.45 18.264.001 35.846-7.687 48.238-21.09 11.909-12.881 18.089-29.628 17.401-47.156-.687-17.529-8.158-33.741-21.039-45.649-12.167-11.25-27.987-17.445-44.548-17.445-16.372 0-32.041 6.038-44.119 17.003a1.598 1.598 0 0 1-1.914.178l-16.232 2.491z"/><path d="m854.669 548.648 14.938 33.832-30.512 1.499-13.197 26.378-18.209-19.949-24.217 12.699-3.527-55.162s17.707 14.238 33.326-11.369l-12.9-37.925 54.298 49.997zM769.351 499.64a8.637 8.637 0 0 1-12.205.484 8.637 8.637 0 0 1-.482-12.201c3.234-3.505 8.695-3.72 12.201-.486 3.501 3.238 3.722 8.7.486 12.203z"/><path d="M774.89 508.871a1.6 1.6 0 0 1-1.585-1.83 19.322 19.322 0 0 0-6.006-16.972 1.6 1.6 0 0 1 2.17-2.352 22.52 22.52 0 0 1 7.002 19.782 1.6 1.6 0 0 1-1.581 1.372z"/><path fill="#FFF" d="m854.669 548.648 33.271-36.114a5.298 5.298 0 0 0-.307-7.485l-86.688-79.866a5.296 5.296 0 0 0-7.486.309l-33.27 36.111 94.48 87.045z"/><path fill="#FFF" d="m775.696 459.013-8.443 9.122-40.359-37.316z"/><g><path fill="#F68635" d="M726.278 505.868s6.838 14.38 25.676 14.248"/><path d="M751.691 521.717c-19.425 0-26.562-14.54-26.858-15.161a1.601 1.601 0 0 1 2.889-1.377c.273.566 6.64 13.339 23.974 13.339.085 0 .146.004.259-.001a1.6 1.6 0 0 1 .011 3.199l-.275.001z"/></g><g><path fill="#F68635" d="M805.386 510.332a22.366 22.366 0 0 1 1.996 1.637c9.217 8.514 9.793 22.891 1.281 32.108-8.518 9.223-22.895 9.797-32.111 1.283a22.676 22.676 0 0 1-3.609-4.264"/><path d="M791.938 552.988c-6.129 0-11.944-2.271-16.473-6.453a24.362 24.362 0 0 1-3.862-4.562 1.601 1.601 0 0 1 .463-2.215 1.602 1.602 0 0 1 2.215.463 21.138 21.138 0 0 0 3.355 3.964c4.145 3.828 9.546 5.825 15.169 5.587a20.996 20.996 0 0 0 14.682-6.78c7.899-8.554 7.365-21.943-1.191-29.848a21.105 21.105 0 0 0-1.854-1.52 1.6 1.6 0 0 1 1.888-2.584c.766.56 1.485 1.15 2.139 1.754 9.851 9.1 10.466 24.518 1.37 34.368-4.41 4.774-10.413 7.547-16.905 7.807-.332.012-.664.019-.996.019z"/><g><path fill="#F68635" d="m802.509 530.214-20.52 1.678"/><path d="M781.987 533.491a1.6 1.6 0 0 1-.129-3.195l20.52-1.678c.884-.089 1.653.584 1.726 1.464a1.602 1.602 0 0 1-1.464 1.726l-20.52 1.678a1.492 1.492 0 0 1-.133.005z"/></g></g></g></g><g><path d="m575.095 801.327 106.764-214.736c5.363-10.812 19.898-14.521 32.459-8.284l35.834 17.785c53.414 26.515 33.992 65.642 25.125 83.504l-57.281 122.167-142.901-.436z"/><path d="m719.011 803.365-146.494-.446 107.909-217.04c3.732-7.524 11.875-12.2 21.249-12.2 4.527 0 9.146 1.105 13.354 3.195l35.833 17.784c23.535 11.683 35.918 27.279 36.806 46.355.731 15.744-6.586 30.485-10.959 39.293l-57.698 123.059zm-141.338-3.63 139.307.424 56.849-121.243c4.523-9.113 11.337-22.838 10.643-37.753-.829-17.829-12.615-32.511-35.03-43.639l-35.834-17.784c-3.77-1.872-7.895-2.861-11.932-2.861-8.15 0-15.194 3.994-18.383 10.423l-105.62 212.433z"/></g><g><path fill="#F68635" d="M209.604 802.259h.016l.066-87.912c.014-19.369.041-61.807-57.885-61.844l-27.34-.018c-.117-.002-.234-.008-.352-.008l-5.584.004-5.582-.004c-.119 0-.236.006-.354.008l-53.105.018c-57.93.037-57.9 42.475-57.885 61.844l.066 87.912h207.939z"/><path d="M211.219 803.858H.08l-.013-1.599-.066-87.912c-.008-9.556-.021-25.549 7.413-38.948 9.009-16.238 26.528-24.48 52.07-24.496l53.46-.025 5.583.004 5.582-.004.379.008 27.314.018c25.54.016 43.059 8.258 52.067 24.496 7.435 13.398 7.423 29.393 7.416 38.948l-.066 89.51zM3.266 800.659h204.756l.065-86.313c.007-9.844.018-24.721-7.015-37.395-8.403-15.146-24.98-22.833-49.271-22.849l-27.69-.025-5.583.004-5.584-.004-.326.008-53.131.018c-24.293.016-40.871 7.703-49.273 22.849-7.032 12.675-7.021 27.551-7.013 37.395l.065 86.312z"/><path fill="#F68635" d="M83.523 606.792h44.236v45.671H83.523z"/><path d="m81.939 654.078-.031-48.87 47.436-.033.031 48.873-47.436.03zm3.17-45.673.027 42.472 41.037-.026-.027-42.475-41.037.029z"/><g><path fill="#F68635" d="M171.485 544.502c-.871 0-1.732.056-2.576.153-7.914-27.27-33.082-47.194-62.898-47.177-29.818.021-54.961 19.979-62.84 47.257a23.004 23.004 0 0 0-2.574-.148c-12.553.01-22.717 10.189-22.711 22.738.01 12.552 10.189 22.718 22.74 22.711a22.68 22.68 0 0 0 5.543-.688c10.158 22.995 33.17 39.037 59.924 39.02 26.756-.018 49.748-16.09 59.879-39.099 1.777.443 3.631.682 5.541.68 12.549-.006 22.719-10.188 22.711-22.739-.008-12.548-10.19-22.716-22.739-22.708z"/><path d="M106.094 629.968h-.045c-26.099 0-49.819-15.177-60.801-38.776a24.274 24.274 0 0 1-4.621.444c-13.417 0-24.331-10.905-24.341-24.31-.007-13.41 10.898-24.329 24.31-24.339.464 0 .937.014 1.416.043 8.635-27.809 34.762-47.132 63.998-47.151 29.257 0 55.391 19.287 64.056 47.067.481-.029.955-.044 1.42-.044 13.418 0 24.33 10.903 24.338 24.307.005 6.497-2.522 12.607-7.114 17.206a24.158 24.158 0 0 1-17.195 7.134c-1.557 0-3.102-.146-4.618-.438-10.961 23.633-34.682 38.84-60.803 38.857zm-59.007-42.5.546 1.234c10.215 23.124 33.145 38.066 58.416 38.066v1.6l.043-1.6c25.291-.017 48.221-14.989 58.416-38.144l.543-1.234 1.309.326c1.681.42 3.407.633 5.13.633 5.664-.003 10.968-2.203 14.956-6.196a20.995 20.995 0 0 0 6.179-14.942c-.008-11.64-9.483-21.109-21.124-21.109-.784 0-1.589.049-2.407.143l-1.343.156-.377-1.299c-7.864-27.098-33.081-46.023-61.323-46.023-28.299.02-53.508 18.978-61.342 46.102l-.374 1.296-1.342-.15a21.54 21.54 0 0 0-2.396-.139c-11.646.01-21.116 9.491-21.111 21.138.01 11.641 9.487 21.112 21.128 21.112a21.168 21.168 0 0 0 5.165-.64l1.308-.33z"/></g><g><path fill="#F68635" d="M202.896 721.05c23.584-10.469 48.295-19.809 71.879-30.277 14.99-6.654 30.305-11.881 26.025-31.852l-22.432-115.396-.059.013c-.033-4.118.379-8.31 1.469-12.279 1.326-4.819 1.625-9.393 1.332-13.975-.246-3.801-.902-7.61-1.727-11.564l-3.893-18.646-4.121-19.713s-.037.012-.039 0a8.453 8.453 0 0 0-10.004-6.547 8.448 8.448 0 0 0-6.348 10.773l3.957 18.942-.07.015-5.217-24.987s-.041.007-.043-.002a8.457 8.457 0 0 0-10.004-6.55 8.46 8.46 0 0 0-6.348 10.776l5.059 24.221-.07.018-6.32-30.268s-.039.01-.037 0a8.456 8.456 0 1 0-16.354 4.223l6.16 29.497-.072.015-5.217-24.986s-.037.007-.043-.003c-.951-4.571-5.432-7.503-10.004-6.548-4.568.954-7.5 5.436-6.547 10.004.055.265.123.518.199.768l6.494 31.092c-.098.088-.201.174-.299.265l-6.439-13.24s-.033.018-.039.005a8.456 8.456 0 0 0-15.223 7.364c.115.24.244.466.379.689l15.324 31.617c.213.529.436 1.058.688 1.583a23.85 23.85 0 0 0 11.615 11.354c2.256 1.31 6.322 4.084 7.672 7.703l17.809 83.123-62.93 26.375"/><path d="M202.896 722.65a1.6 1.6 0 0 1-.651-3.062c11.813-5.244 24.1-10.283 35.981-15.157 11.861-4.865 24.127-9.896 35.897-15.12.948-.421 1.898-.837 2.844-1.25 13.952-6.102 26.002-11.371 22.267-28.805L276.87 544.205a1.489 1.489 0 0 1-.16-.654c-.037-4.614.476-8.893 1.525-12.716 1.184-4.302 1.59-8.575 1.278-13.448-.208-3.213-.731-6.711-1.696-11.341l-7.944-38.025a1.55 1.55 0 0 1-.12-.396c-.362-1.728-1.411-3.267-2.943-4.27s-3.362-1.349-5.155-.974c-1.794.374-3.334 1.424-4.336 2.955s-1.348 3.361-.972 5.153c.044.225.1.425.161.624.015.048.027.097.038.146l3.957 18.942a1.598 1.598 0 0 1-1.241 1.893c-.876.181-1.783-.362-1.963-1.225l-5.146-24.649a1.526 1.526 0 0 1-.108-.32c-.777-3.719-4.417-6.096-8.116-5.33-3.698.773-6.08 4.415-5.307 8.115.045.215.102.423.164.629.014.046.025.092.035.138l5.059 24.221a1.6 1.6 0 0 1-1.179 1.879c-.421.106-.903.044-1.272-.188s-.663-.594-.752-1.02l-6.252-29.942a1.552 1.552 0 0 1-.105-.324 6.866 6.866 0 0 0-8.115-5.312c-3.698.773-6.08 4.413-5.307 8.112.042.212.093.406.156.6.018.055.033.111.045.168l6.16 29.497a1.6 1.6 0 0 1-1.249 1.895c-.858.17-1.776-.366-1.956-1.227l-5.145-24.644a1.57 1.57 0 0 1-.115-.347 6.803 6.803 0 0 0-2.954-4.334 6.813 6.813 0 0 0-5.156-.974c-3.698.772-6.08 4.411-5.308 8.11.045.219.102.425.163.628.014.046.026.093.036.14l6.494 31.092a1.6 1.6 0 0 1-.496 1.517l-.279.247a1.62 1.62 0 0 1-1.384.401 1.603 1.603 0 0 1-1.145-.873l-6.296-12.944a1.668 1.668 0 0 1-.197-.32 6.786 6.786 0 0 0-3.904-3.462 6.818 6.818 0 0 0-5.239.303c-3.402 1.646-4.831 5.753-3.186 9.156.095.198.2.38.309.56.025.042.049.085.069.128l15.324 31.617c.017.033.031.067.045.102.2.497.409.994.646 1.488a22.377 22.377 0 0 0 10.837 10.589c.048.022.094.046.14.072 2.473 1.436 6.848 4.452 8.367 8.528.027.072.049.147.065.224l17.809 83.123a1.6 1.6 0 0 1-.946 1.811l-62.93 26.375a1.6 1.6 0 0 1-1.237-2.951l61.705-25.862-17.505-81.704c-1.245-3.17-5.159-5.736-6.87-6.737a25.596 25.596 0 0 1-12.318-12.078 28.41 28.41 0 0 1-.711-1.632l-15.27-31.504a9.506 9.506 0 0 1-.412-.759c-2.412-4.987-.315-11.012 4.676-13.426a9.99 9.99 0 0 1 7.683-.444 9.976 9.976 0 0 1 5.586 4.798c.077.095.145.199.198.311l1.418 2.915-4.164-19.936a9.99 9.99 0 0 1-.214-.839c-1.132-5.424 2.36-10.761 7.786-11.895a9.993 9.993 0 0 1 7.525 1.404c-.151-4.776 3.151-9.139 7.996-10.152 4.841-1.009 9.618 1.665 11.395 6.111a10.03 10.03 0 0 1 6.329-4.307c4.854-1.01 9.615 1.665 11.392 6.107a9.987 9.987 0 0 1 6.334-4.298 9.99 9.99 0 0 1 7.562 1.429 9.982 9.982 0 0 1 4.253 5.999c.054.113.095.233.121.358l8.014 38.358c.671 3.22 1.478 7.47 1.757 11.788.33 5.169-.123 9.912-1.386 14.503-.939 3.419-1.414 7.256-1.414 11.409.013.042.023.084.031.127l22.432 115.396c4.277 19.959-10.158 26.271-24.119 32.377-.94.411-1.885.824-2.827 1.242-11.813 5.244-24.1 10.283-35.981 15.157-11.861 4.865-24.127 9.896-35.897 15.12a1.572 1.572 0 0 1-.65.141z"/></g><g><path d="M176.8 556.663c0-8.539-6.922-15.46-15.461-15.46-2.893 0-5.592.81-7.908 2.194-2.059-24.576-22.641-43.885-47.748-43.885-24.65 0-44.945 18.61-47.623 42.545a15.419 15.419 0 0 0-5.037-.854c-8.537 0-15.461 6.921-15.461 15.46 0 8.223 6.426 14.927 14.525 15.414a15.364 15.364 0 0 0-2.5 8.412c0 8.539 6.922 15.461 15.461 15.461 1.033 0 2.041-.106 3.016-.301 0 .101-.016.199-.016.301 0 8.539 6.924 15.459 15.461 15.459 3.318 0 6.389-1.055 8.906-2.834 2.367 5.501 7.834 9.355 14.205 9.355 6.178 0 11.494-3.632 13.969-8.87a15.359 15.359 0 0 0 8.162 2.349c8.541 0 15.461-6.92 15.461-15.459 0-.102-.014-.2-.016-.301.979.194 1.982.301 3.018.301 8.541 0 15.461-6.922 15.461-15.461 0-3.11-.928-6.002-2.508-8.428.389.032.777.062 1.172.062 8.539.001 15.461-6.922 15.461-15.46z"/></g><g><path fill="#FFF" d="m170.056 543.098-.084-49.104a5.3 5.3 0 0 0-5.309-5.287l-117.869.204a5.296 5.296 0 0 0-5.287 5.308l.084 49.104 128.465-.225z"/></g></g><g><path d="M44.218 652.478h27.484v94.574H44.218z"/></g><g><path d="M140.667 652.478h27.486v94.574h-27.486z"/></g><g><path d="M2.493 739.61H209.63v62.648H2.493z"/></g><g><path fill="#FFF" d="M44.218 729.017h27.484v20.04H44.218z"/></g><g><path fill="#FFF" d="M140.669 729.017h27.486v20.04h-27.486z"/></g><g><path fill="#F68635" d="m689.485 654.768-53.701-43.849c-6.365-4.463-10.83-11.561-11.676-19.903l-9.707-96.132.061-.004c-1.234-3.93-2.912-7.793-5.168-11.239-2.74-4.179-4.428-8.438-5.551-12.889-.93-3.696-1.475-7.521-1.904-11.539l-2.012-18.943-2.125-20.023s.039-.003.037-.015a8.448 8.448 0 0 1 7.516-9.297c4.645-.496 8.805 2.869 9.301 7.513.029.268.039.527.045.794l2.045 19.243.068-.009-2.693-25.383s.039-.005.033-.012a8.464 8.464 0 0 1 7.518-9.306 8.46 8.46 0 0 1 9.301 7.519c.027.266.039.527.043.791l2.617 24.603.068-.003-3.27-30.746s.043-.007.039-.012a8.462 8.462 0 0 1 7.52-9.303c4.641-.494 8.807 2.869 9.297 7.513.031.268.043.53.047.792l3.182 29.965.072-.006-2.697-25.382s.037-.004.041-.017c-.498-4.643 2.867-8.806 7.51-9.3a8.456 8.456 0 0 1 9.303 7.513c.025.269.041.529.043.795l3.355 31.584.367.16 2.068-14.578s.035.007.037-.006a8.454 8.454 0 0 1 9.545-7.203c4.625.645 7.848 4.919 7.205 9.543-.041.264-.09.52-.148.771l-4.893 34.795c-.041.569-.088 1.14-.172 1.719a23.85 23.85 0 0 1-7.568 14.367c-1.746 1.937-4.768 5.827-4.93 9.683h-.016l8.545 84.583 46.451 37.926"/><path d="M689.484 656.367c-.355 0-.714-.118-1.011-.36l-53.656-43.812a29.307 29.307 0 0 1-12.301-21.018l-9.707-96.132a1.21 1.21 0 0 1-.007-.104c-1.277-3.955-2.907-7.46-4.848-10.425-2.612-3.983-4.498-8.358-5.764-13.373-1.058-4.206-1.594-8.494-1.943-11.761l-4.137-38.968a1.523 1.523 0 0 1 .009-.405c-.162-2.585.616-5.023 2.205-6.989a9.98 9.98 0 0 1 6.762-3.677c2.738-.302 5.345.551 7.344 2.153.329-4.776 4.052-8.787 8.971-9.312 2.735-.29 5.347.556 7.346 2.156.329-4.774 4.054-8.784 8.974-9.308a9.98 9.98 0 0 1 7.379 2.176 9.977 9.977 0 0 1 3.344 5.033 9.993 9.993 0 0 1 6.729-3.644c5.496-.587 10.477 3.423 11.062 8.935.029.305.047.586.051.87l2.152 20.252.456-3.217c.017-.12.048-.237.091-.35a9.97 9.97 0 0 1 3.847-6.287 10.018 10.018 0 0 1 7.45-1.933c5.487.766 9.331 5.855 8.568 11.349-.047.302-.099.574-.158.841l-4.876 34.675c-.043.589-.094 1.18-.181 1.778a25.57 25.57 0 0 1-8.014 15.266c-1.336 1.49-4.322 5.191-4.469 8.617l8.456 83.7 45.938 37.507a1.6 1.6 0 0 1-2.023 2.479l-46.451-37.926a1.6 1.6 0 0 1-.58-1.078l-8.545-84.583a1.62 1.62 0 0 1 .022-.472c.29-4.262 3.446-8.358 5.326-10.443.035-.039.071-.075.11-.11a22.375 22.375 0 0 0 7.062-13.407c.08-.549.123-1.081.161-1.612.003-.036.006-.071.012-.107l4.893-34.795a1.64 1.64 0 0 1 .025-.14c.05-.214.091-.432.126-.655.517-3.72-2.104-7.19-5.845-7.712a6.795 6.795 0 0 0-5.08 1.316 6.81 6.81 0 0 0-2.659 4.523 1.623 1.623 0 0 1-.084.331l-2.022 14.256a1.6 1.6 0 0 1-2.224 1.242l-.366-.16a1.597 1.597 0 0 1-.952-1.298l-3.355-31.584a1.364 1.364 0 0 1-.009-.157 8.058 8.058 0 0 0-.036-.656c-.398-3.739-3.785-6.466-7.541-6.072a6.812 6.812 0 0 0-4.607 2.509 6.798 6.798 0 0 0-1.48 5.029c.014.124.012.248-.004.371l2.66 25.029a1.596 1.596 0 0 1-1.462 1.763c-.854.084-1.7-.556-1.792-1.42l-3.182-29.965a1.76 1.76 0 0 1-.009-.146 6.807 6.807 0 0 0-2.545-5.254 6.784 6.784 0 0 0-5.03-1.483c-3.759.4-6.494 3.784-6.098 7.544.013.119.012.239-.002.357l3.232 30.399a1.603 1.603 0 0 1-1.523 1.768c-.889.032-1.639-.588-1.728-1.427l-2.617-24.603a1.76 1.76 0 0 1-.009-.146 7.47 7.47 0 0 0-.035-.65c-.398-3.755-3.774-6.475-7.541-6.092-3.75.4-6.482 3.776-6.097 7.529.014.116.015.233.003.351l2.659 25.061a1.6 1.6 0 0 1-1.387 1.756 1.68 1.68 0 0 1-1.229-.327c-.338-.267-.589-.654-.634-1.082l-2.045-19.243a1.482 1.482 0 0 1-.009-.134 7.564 7.564 0 0 0-.036-.655c-.401-3.764-3.771-6.502-7.54-6.096a6.802 6.802 0 0 0-4.611 2.507 6.804 6.804 0 0 0-1.483 5.03c.013.117.012.234-.001.351l4.101 38.631c.502 4.696 1.078 8.187 1.865 11.317 1.192 4.728 2.889 8.669 5.337 12.402 2.17 3.315 3.973 7.23 5.356 11.637.078.249.094.509.049.759l9.663 95.695a26.112 26.112 0 0 0 11.003 18.755c.031.022.062.046.093.07l53.701 43.849a1.6 1.6 0 0 1-1.013 2.841z"/></g><g><path fill="#FFF" d="M747.632 668.128c-13.514 16.343-37.574 18.75-53.742 5.386l-32.676-27.021 48.934-59.179 32.674 27.019c16.169 13.366 18.32 37.451 4.81 53.795z"/></g><g><circle fill="#FFF" cx="779.233" cy="24.821" r="8.552"/></g></svg>