<svg width="300" height="300" viewBox="0 0 300 300" fill="none" xmlns="http://www.w3.org/2000/svg">
<rect width="300" height="300" fill="#2E9AFF"/>
<path d="M122.874 208C135.715 208 143.268 199.6 149.5 190.6C155.732 199.6 163.285 208 176.126 208C180.846 208 185 206.6 185 202C185 199.2 182.923 196.6 179.902 196.6C178.769 196.6 176.692 197 175.37 197C169.327 197 162.151 188.6 158.187 182.599C166.307 173.4 175.181 161.6 175.181 148.6C175.181 133.599 164.417 123 149.5 123C134.583 123 123.819 133.599 123.819 148.6C123.819 161.6 132.693 173.4 140.813 182.599C136.849 188.6 129.673 197 123.63 197C122.308 197 120.231 196.6 119.098 196.6C116.077 196.6 114 199.2 114 202C114 206.6 118.154 208 122.874 208Z" fill="white"/>
</svg>
