<svg xmlns="http://www.w3.org/2000/svg" viewBox="0 0 1920 1080" xml:space="preserve"><g fill="#FFF"><path d="M905.43 383.88a328.43 328.43 0 0 0 7.89-126.8c-83.91 10.17-163.88 52.57-219.72 124.68l2.73 2.12h209.1z"/><path d="M907.35 386.38H695.48l-5.4-4.18 1.54-1.97A328.1 328.1 0 0 1 791.72 294a329.26 329.26 0 0 1 121.3-39.42l2.45-.3.33 2.46c5.71 43 3.04 85.99-7.96 127.76l-.49 1.87zm-210.16-5h206.3a324.13 324.13 0 0 0 7.67-121.52 324.16 324.16 0 0 0-117 38.52 322.99 322.99 0 0 0-97.05 82.94l.08.06z"/></g><path fill="#FFF" d="M890.5 283.8a15.76 15.76 0 0 1-15.64-12.61h-.01l-17.5-82.31a35.92 35.92 0 0 1 12.13-35.41 35.93 35.93 0 0 1 36.93-6.06l37.74 14.93a15.94 15.94 0 0 1 8.22 22.23L904.5 275.3a15.74 15.74 0 0 1-14 8.5zm-10.76-13.65a10.7 10.7 0 0 0 9.18 8.54c3.67.52 8.52-.72 11.16-5.72l47.87-90.74A10.93 10.93 0 0 0 942.3 167l-37.74-14.93a31 31 0 0 0-31.87 5.23 31 31 0 0 0-10.45 30.55l17.49 82.31z"/><path fill="#FFF" d="M886.85 282.49a2.5 2.5 0 0 1-2.5-2.63l6.99-131.6a2.5 2.5 0 1 1 5 .27l-6.05 113.75 35.15-102.24a2.5 2.5 0 1 1 4.73 1.62L889.21 280.8a2.5 2.5 0 0 1-2.36 1.69zm22.44 15.95c-6.48 0-12.2-3.81-14.69-9.86a15.76 15.76 0 0 1 4-17.83l75.89-69.05a15.94 15.94 0 0 1 23.58 2.4l23.9 32.81c8.03 11.04 9.29 24.97 3.36 37.27s-17.6 20-31.25 20.6l-84.07 3.64-.72.02zm.61-2.52h.01zm75.3-93.36c-2.7 0-5.33 1-7.34 2.84l-75.89 69.04c-4.17 3.8-4.15 8.81-2.74 12.24s4.92 7 10.56 6.75l84.07-3.65a31 31 0 0 0 26.97-17.77 31 31 0 0 0-2.91-32.15l-23.9-32.81a10.94 10.94 0 0 0-8.81-4.5z"/><path fill="#FFF" d="M898.49 291.5a2.5 2.5 0 0 1-1.38-4.58l105.11-69.45a2.5 2.5 0 1 1 2.76 4.17l-90.2 59.6 108.62-34.3a2.5 2.5 0 1 1 1.5 4.77l-125.66 39.68c-.25.08-.5.12-.75.12zm-533.77-39.57a36.78 36.78 0 0 1-34.36-27.06 2.5 2.5 0 0 1 4.79-1.44c7.26 24.08 30.17 23.5 30.4 23.46a2.52 2.52 0 0 1 2.86 2.07 2.49 2.49 0 0 1-2.04 2.87c-.38.06-.94.1-1.65.1z"/><path fill="#FFF" d="m352.08 370.86-.75-1.78a292.52 292.52 0 0 1-21.06-145.2l.23-2.07 2.07-.15a292.49 292.49 0 0 1 144.36 26.24l1.75.81-.34 1.9a146.9 146.9 0 0 1-42.85 80.02A146.9 146.9 0 0 1 354 370.6l-1.91.27zM335.02 226.5a287.53 287.53 0 0 0 20.17 138.85 141.92 141.92 0 0 0 76.83-38.31 141.92 141.92 0 0 0 41.04-75.42 287.57 287.57 0 0 0-138.04-25.12z"/><g fill="#FFF"><path d="M613.18 384.18a288.37 288.37 0 0 0-51.13-72.54 288.07 288.07 0 0 0-86.17-61.47 144.8 144.8 0 0 1-42.12 78.67 144.8 144.8 0 0 1-80.13 39.27 285.84 285.84 0 0 0 7.37 16.07h252.18z"/><path d="M617.2 386.68H359.46l-.68-1.38a289.86 289.86 0 0 1-7.44-16.21l-1.26-2.99 3.2-.46a141.94 141.94 0 0 0 78.75-38.6 141.94 141.94 0 0 0 41.4-77.32l.57-3.18 2.94 1.36a290.04 290.04 0 0 1 86.92 62 290.95 290.95 0 0 1 51.57 73.18l1.79 3.6zm-254.64-5h246.56a286.07 286.07 0 0 0-48.87-68.3 285.05 285.05 0 0 0-82.52-59.58 146.88 146.88 0 0 1-42.24 76.83 146.88 146.88 0 0 1-78.3 39.46c1.69 3.86 3.48 7.74 5.37 11.6z"/></g><path fill="#FFF" d="M392.25 321.6h-.61a32.84 32.84 0 0 1-23.2-10.1 32.85 32.85 0 0 1-9.27-23.55 32.85 32.85 0 0 1 10.1-23.2 33.1 33.1 0 0 1 46.75.84 32.85 32.85 0 0 1 9.27 23.55 32.84 32.84 0 0 1-10.1 23.2 32.85 32.85 0 0 1-22.94 9.27zm-.02-61.1c-7.02 0-14.05 2.6-19.48 7.85a27.88 27.88 0 0 0-8.58 19.7 27.88 27.88 0 0 0 7.87 19.98c5.2 5.4 12.2 8.44 19.69 8.57 7.5.19 14.6-2.66 19.99-7.86a27.92 27.92 0 0 0 8.57-19.7 27.86 27.86 0 0 0-7.87-19.98 27.98 27.98 0 0 0-20.2-8.56z"/><circle fill="#FFF" cx="392.23" cy="288.55" r="15.31"/><path fill="#FFF" d="M610.84 386.36a2.5 2.5 0 0 1-1.73-4.3l44.53-42.97a13.08 13.08 0 0 0 3.56-13.15 13.08 13.08 0 0 0-9.9-9.36l-109.7-24.2a2.5 2.5 0 0 1 1.08-4.89l109.69 24.21A18 18 0 0 1 662 324.58a18 18 0 0 1-4.9 18.1l-44.53 42.98a2.5 2.5 0 0 1-1.74.7z"/><path fill="none" d="m632.09 455.26-.62.62h1.24zm4.49 492.42c-.98 0-1.94-.02-2.92-.03l3.82 3.81 3.83-3.83c-1.58.02-3.15.05-4.73.05zM468.35 455.26l-.62.62h1.24z"/><path d="M883.09 708.55a2.5 2.5 0 0 1-1.77-.73l-81.23-81.16a2.5 2.5 0 0 1 0-3.54l83.07-83.14a2.5 2.5 0 0 1 3.54 0L968 621.2a2.5 2.5 0 0 1 0 3.54l-83.14 83.07a2.5 2.5 0 0 1-1.77.73zm-77.7-83.66 77.7 77.63 79.6-79.54-77.76-77.7-79.53 79.6z"/><path d="M939.6 765.02a2.5 2.5 0 0 1-1.76-.73l-56.52-56.47a2.5 2.5 0 0 1 0-3.54l83.14-83.07a2.5 2.5 0 0 1 3.54 0l3.53 3.53c.47.47.73 1.1.73 1.77-.1 48.41-10.32 94.53-30.4 137.08a2.5 2.5 0 0 1-2.26 1.43zm-52.98-58.97 52.22 52.18c18.63-40.68 28.19-84.62 28.42-130.7l-1.03-1.02-79.6 79.54z"/><path d="M801.22 790.36a2.5 2.5 0 0 1-1.77-.74l-81.16-81.1a2.5 2.5 0 0 1 0-3.53l81.8-81.87a2.5 2.5 0 0 1 3.54 0l81.23 81.16a2.5 2.5 0 0 1 0 3.54l-81.87 81.8a2.5 2.5 0 0 1-1.77.74zm-77.63-83.6 77.63 77.56 78.33-78.27-77.69-77.63-78.27 78.34z"/><path d="M719.35 872.16a2.5 2.5 0 0 1-1.77-.73l-81.1-81.03a2.5 2.5 0 0 1 0-3.54l81.8-81.87a2.5 2.5 0 0 1 3.54 0L803 786.1a2.5 2.5 0 0 1 0 3.54l-81.87 81.8a2.5 2.5 0 0 1-1.77.73zm-77.56-83.53 77.56 77.5 78.33-78.28-77.62-77.56-78.27 78.34zM969.76 629a2.5 2.5 0 0 1-1.76-.72l-3.54-3.53a2.5 2.5 0 0 1 0-3.54l3.54-3.54a2.5 2.5 0 0 1 4.27 1.77v7.07a2.5 2.5 0 0 1-2.5 2.5z"/><path d="M966.23 625.48a2.5 2.5 0 0 1-1.77-.73l-81.3-81.23a2.5 2.5 0 0 1 0-3.54l84.84-84.9a2.5 2.5 0 0 1 4.27 1.76v162.6c0 .66-.26 1.3-.73 1.77l-3.54 3.54a2.5 2.5 0 0 1-1.77.73zm-77.76-83.73 77.76 77.7 1.04-1.05V462.88l-78.8 78.87z"/><path d="M884.93 544.25a2.5 2.5 0 0 1-1.76-.73l-85.94-85.87a2.5 2.5 0 0 1 1.76-4.27h170.78a2.5 2.5 0 0 1 2.5 2.5v.96c0 .66-.26 1.3-.73 1.77l-84.84 84.9a2.5 2.5 0 0 1-1.77.74zm-79.9-85.87 79.9 79.83 79.77-79.83H805.03zM550.22 703.17a2.5 2.5 0 0 1-1.77-.73l-81.87-81.8a2.5 2.5 0 0 1 0-3.54l81.87-81.8a2.5 2.5 0 0 1 3.54 0l81.87 81.8a2.5 2.5 0 0 1 0 3.54l-81.87 81.8a2.5 2.5 0 0 1-1.77.73zm-78.33-84.3 78.33 78.27 78.33-78.27-78.33-78.27-78.33 78.27z"/><path d="M468.35 784.97a2.5 2.5 0 0 1-1.77-.73l-81.87-81.8a2.5 2.5 0 0 1 0-3.54l81.88-81.8a2.5 2.5 0 0 1 3.53 0l81.87 81.8a2.5 2.5 0 0 1 0 3.54l-81.87 81.8a2.5 2.5 0 0 1-1.77.73zm-78.33-84.3 78.33 78.27 78.33-78.27-78.33-78.27-78.33 78.27zm330.04 8.59a2.5 2.5 0 0 1-1.77-.73l-87.96-87.9a2.5 2.5 0 0 1 0-3.53l81.87-81.8a2.5 2.5 0 0 1 3.53 0l87.9 87.82a2.5 2.5 0 0 1 0 3.53l-81.8 81.87c-.5.5-1.13.74-1.77.74zm-84.43-90.4 84.43 84.36 78.26-78.33-84.36-84.3-78.33 78.28z"/><path d="M386.48 703.17a2.5 2.5 0 0 1-1.77-.73l-81.87-81.8a2.5 2.5 0 0 1 0-3.54l81.87-81.8a2.5 2.5 0 0 1 3.54 0l81.87 81.8a2.5 2.5 0 0 1 0 3.54l-81.87 81.8a2.5 2.5 0 0 1-1.77.73zm-78.33-84.3 78.33 78.27 78.33-78.27-78.33-78.27-78.33 78.27zM556.45 873a2.5 2.5 0 0 1-1.77-.73l-88.1-88.03a2.5 2.5 0 0 1 0-3.54l81.88-81.8a2.5 2.5 0 0 1 3.53 0l88.03 87.96a2.5 2.5 0 0 1 0 3.54l-81.8 81.87a2.5 2.5 0 0 1-1.77.73zm-84.56-90.53 84.56 84.5 78.27-78.34-84.5-84.43-78.33 78.27z"/><path d="M638.25 791.13a2.5 2.5 0 0 1-1.76-.73l-88.04-87.96a2.5 2.5 0 0 1 0-3.54l81.87-81.8a2.5 2.5 0 0 1 3.54 0l87.96 87.89a2.5 2.5 0 0 1 0 3.54l-81.8 81.87c-.49.49-1.13.73-1.77.73zm-84.5-90.46 84.5 84.42 78.27-78.33-84.43-84.36-78.33 78.27zM303.38 622.6a2.5 2.5 0 0 1-2.5-2.5v-2.46a2.5 2.5 0 0 1 4.27-1.77l1.23 1.23a2.5 2.5 0 0 1 0 3.54l-1.23 1.22a2.5 2.5 0 0 1-1.77.73z"/><path d="m636.58 950.18-1.75-.01-1.19-.02a2.5 2.5 0 0 1-1.74-.73l-77.22-77.15a2.5 2.5 0 0 1 0-3.54l81.8-81.87a2.5 2.5 0 0 1 3.54 0l81.1 81.03a2.5 2.5 0 0 1 0 3.54l-78.04 77.97a2.5 2.5 0 0 1-1.73.73l-1.39.02c-1.13.02-2.25.03-3.38.03zm-1.87-5.02h.2c1.65.03 3.32.02 4.97-.01h.38l75.55-75.5-77.55-77.49-78.27 78.34 74.72 74.66zm-236.76-89.84a2.5 2.5 0 0 1-1.75-.71 314.72 314.72 0 0 1-67.75-97.22 2.5 2.5 0 0 1 .52-2.79l55.74-55.7a2.5 2.5 0 0 1 3.54 0l81.87 81.8a2.5 2.5 0 0 1 0 3.54l-70.4 70.35a2.5 2.5 0 0 1-1.77.73zm-64.23-98.4a309.62 309.62 0 0 0 64.21 92.38l66.88-66.83-78.33-78.27-52.76 52.72z"/><path d="M504.64 924.86a2.5 2.5 0 0 1-.94-.19c-40.6-16.43-76.78-40-107.5-70.06a2.5 2.5 0 0 1-.02-3.56l70.4-70.34a2.5 2.5 0 0 1 3.54 0l88.1 88.02a2.5 2.5 0 0 1 0 3.54l-51.81 51.85a2.5 2.5 0 0 1-1.77.74zM401.5 852.79c29.47 28.4 63.95 50.8 102.53 66.62l48.88-48.91-84.57-84.5-66.84 66.8z"/><path d="M633.67 950.15h-.02c-45.33-.36-89.05-8.93-129.95-25.48a2.5 2.5 0 0 1-.83-4.08l51.81-51.86a2.5 2.5 0 0 1 3.54 0l77.21 77.15a2.5 2.5 0 0 1-1.76 4.27zm-124.58-28.71c37.44 14.66 77.23 22.6 118.44 23.61l-71.08-71.02-47.36 47.4zm361.54-61.73a2.5 2.5 0 0 1-1.76-.73l-69.42-69.36a2.5 2.5 0 0 1 0-3.53l81.87-81.8a2.5 2.5 0 0 1 3.53 0l56.52 56.46c.75.75.94 1.88.5 2.84a315.22 315.22 0 0 1-69.52 95.44c-.49.46-1.1.68-1.72.68zm-65.88-71.86 65.93 65.88a310.14 310.14 0 0 0 65.9-90.69l-53.5-53.45-78.33 78.26zM641.31 950.13a2.5 2.5 0 0 1-1.76-4.27l78.03-77.97a2.5 2.5 0 0 1 3.54 0l51.7 51.66a2.5 2.5 0 0 1-.81 4.08c-41.06 17-85.02 25.91-130.67 26.5h-.03zm78.04-76.94L647.48 945c41.51-1.23 81.54-9.48 119.14-24.57l-47.27-47.23z"/><path d="M771.05 923.82a2.5 2.5 0 0 1-1.77-.73l-51.7-51.66a2.5 2.5 0 0 1 0-3.54l81.87-81.8a2.5 2.5 0 0 1 3.53 0l69.42 69.35a2.5 2.5 0 0 1-.05 3.6A330.2 330.2 0 0 1 772 923.62c-.31.12-.64.19-.96.19zm-48.16-54.16 48.74 48.7a325.22 325.22 0 0 0 95.4-61.2l-65.81-65.77-78.34 78.27zM304.61 621.37a2.5 2.5 0 0 1-1.77-.73l-1.22-1.23a2.5 2.5 0 0 1-.74-1.77V455.88a2.5 2.5 0 0 1 2.5-2.5h1.85c.66 0 1.3.26 1.77.73l81.25 81.19a2.5 2.5 0 0 1 0 3.53l-81.87 81.8a2.5 2.5 0 0 1-1.77.74zm1.27-161.3v154l77.06-77-77.06-77zm326.22 161.3a2.5 2.5 0 0 1-1.78-.73l-81.87-81.8a2.5 2.5 0 0 1 0-3.55l81.26-81.18a2.5 2.5 0 0 1 1.76-.73h1.24c.66 0 1.3.26 1.77.73l81.25 81.18a2.5 2.5 0 0 1 0 3.54l-81.87 81.8a2.5 2.5 0 0 1-1.77.74zm-78.34-84.3 78.33 78.26 78.33-78.27-78.33-78.26-78.33 78.26z"/><path d="M550.22 539.56a2.5 2.5 0 0 1-1.77-.73l-81.25-81.18a2.5 2.5 0 0 1 1.77-4.27h162.5a2.5 2.5 0 0 1 1.77 4.27L552 538.83a2.5 2.5 0 0 1-1.77.73zm-75.21-81.18 75.21 75.15 75.21-75.15H475.01z"/><path d="M713.96 539.56a2.5 2.5 0 0 1-1.77-.73l-81.25-81.18a2.5 2.5 0 0 1 1.77-4.27h162.5a2.5 2.5 0 0 1 1.77 4.27l-81.25 81.18a2.5 2.5 0 0 1-1.77.73zm-75.21-81.18 75.21 75.15 75.21-75.15H638.75zm-252.27 81.18a2.5 2.5 0 0 1-1.77-.73l-81.25-81.18a2.5 2.5 0 0 1 1.77-4.27h162.5a2.5 2.5 0 0 1 1.77 4.27l-81.25 81.18a2.5 2.5 0 0 1-1.77.73zm-75.21-81.18 75.21 75.15 75.21-75.15H311.27z"/><path d="M468.35 621.37a2.5 2.5 0 0 1-1.77-.73l-81.87-81.8a2.5 2.5 0 0 1 0-3.55l81.26-81.18a2.5 2.5 0 0 1 1.76-.73h1.24c.66 0 1.3.26 1.77.73l81.25 81.18a2.5 2.5 0 0 1 0 3.54l-81.87 81.8a2.5 2.5 0 0 1-1.77.74zm-78.33-84.3 78.33 78.26 78.33-78.27-78.33-78.26-78.33 78.26zm411.84 90.32a2.5 2.5 0 0 1-1.77-.73l-87.9-87.83a2.5 2.5 0 0 1 0-3.54l81.26-81.18a2.5 2.5 0 0 1 1.76-.73H799c.67 0 1.3.26 1.77.73l85.94 85.87a2.5 2.5 0 0 1 0 3.53l-83.07 83.15a2.5 2.5 0 0 1-1.77.73zm-84.36-90.33 84.36 84.3 79.54-79.61-83.44-83.37h-1.71l-78.75 78.68zM330.74 758.87a2.52 2.52 0 0 1-2.29-1.48c-18.3-41.06-27.57-85.32-27.57-131.54v-5.76c0-.66.27-1.3.74-1.77l1.22-1.22a2.5 2.5 0 0 1 3.54 0l81.87 81.8a2.5 2.5 0 0 1 0 3.54l-55.75 55.7a2.5 2.5 0 0 1-1.76.73zm-24.86-135.2v2.18c0 44.27 8.64 86.7 25.68 126.17l51.38-51.35-77.06-77zM980.94 447.1l3.87-4.2a32.15 32.15 0 0 0 8.53-21.84v-1.08a32.3 32.3 0 0 0-7.26-20.38l-3.33-4.07 5.26-.01 742.45-1.59h.06c6.87 0 13.32 2.67 18.19 7.5 4.88 4.86 7.58 11.33 7.6 18.22s-2.65 13.37-7.5 18.25a25.62 25.62 0 0 1-18.22 7.6l-749.65 1.6zm11.9-46.6a37.35 37.35 0 0 1 5.5 19.48v1.08a37.1 37.1 0 0 1-6.5 21.01l738.74-1.57a20.8 20.8 0 0 0 14.6-35.52 20.65 20.65 0 0 0-14.65-6.05h-.06l-737.63 1.58z"/><path d="M961.1 458.3H312.05a37.29 37.29 0 0 1-37.24-37.24v-1.08a37.29 37.29 0 0 1 37.24-37.25H961.1c11.23 0 21.75 5 28.86 13.7a37.31 37.31 0 0 1 8.39 23.55v1.08c0 9.37-3.5 18.32-9.85 25.22a37.35 37.35 0 0 1-27.4 12.02zm-649.04-70.57a32.28 32.28 0 0 0-32.24 32.25v1.08a32.28 32.28 0 0 0 32.24 32.24H961.1a32.4 32.4 0 0 0 23.73-10.4 32.15 32.15 0 0 0 8.52-21.84v-1.08a32.3 32.3 0 0 0-7.26-20.38 32.15 32.15 0 0 0-24.99-11.87H312.06zm1367.37-34.26h59.66c11.23 0 20.33 9.1 20.33 20.33v92.74c0 11.22-9.1 20.33-20.33 20.33h-59.66a20.33 20.33 0 0 1-20.33-20.33V373.8c0-11.23 9.1-20.33 20.33-20.33z"/><path d="M1136.8 379.53h552.86v81.27H1136.8z"/><path fill="#FFF" d="M1919.48 741.68c-32.6 0-49.12-8.79-65.1-17.3-16.16-8.58-31.42-16.7-62.76-16.7-31.34 0-46.6 8.12-62.75 16.7-15.99 8.51-32.52 17.3-65.1 17.3-32.6 0-49.12-8.79-65.1-17.3-16.16-8.58-31.42-16.7-62.76-16.7s-46.6 8.12-62.75 16.7c-15.98 8.51-32.51 17.3-65.1 17.3s-49.11-8.79-65.1-17.3c-16.15-8.58-31.4-16.7-62.75-16.7-31.34 0-46.6 8.12-62.75 16.7-15.98 8.51-32.5 17.3-65.1 17.3s-49.1-8.79-65.1-17.3c-16.15-8.58-31.4-16.7-62.74-16.7-31.34 0-46.6 8.12-62.75 16.7-15.99 8.51-32.51 17.3-65.1 17.3-32.58 0-49.11-8.79-65.1-17.3-16.15-8.58-31.4-16.7-62.75-16.7-31.34 0-46.6 8.12-62.75 16.7-15.98 8.51-32.51 17.3-65.1 17.3-32.58 0-49.11-8.79-65.1-17.3-16.15-8.58-31.4-16.7-62.74-16.7s-46.6 8.12-62.75 16.7c-15.99 8.51-32.52 17.3-65.1 17.3s-49.12-8.79-65.1-17.3c-16.15-8.58-31.41-16.7-62.75-16.7s-46.6 8.12-62.75 16.7c-15.98 8.51-32.51 17.3-65.1 17.3s-49.11-8.79-65.1-17.3c-16.15-8.58-31.4-16.7-62.74-16.7v-5c32.58 0 49.1 8.8 65.1 17.3 16.15 8.59 31.4 16.7 62.74 16.7 31.34 0 46.6-8.11 62.75-16.7 15.99-8.5 32.51-17.3 65.1-17.3 32.58 0 49.11 8.8 65.1 17.3 16.15 8.59 31.4 16.7 62.75 16.7s46.6-8.11 62.75-16.7c15.98-8.5 32.5-17.3 65.1-17.3 32.58 0 49.1 8.8 65.1 17.3 16.15 8.59 31.4 16.7 62.74 16.7s46.6-8.11 62.75-16.7c15.99-8.5 32.52-17.3 65.1-17.3 32.59 0 49.12 8.8 65.1 17.3 16.15 8.59 31.41 16.7 62.75 16.7s46.6-8.11 62.75-16.7c15.98-8.5 32.51-17.3 65.1-17.3 32.58 0 49.1 8.8 65.1 17.3 16.15 8.59 31.4 16.7 62.75 16.7 31.33 0 46.6-8.11 62.75-16.7 15.98-8.5 32.5-17.3 65.1-17.3 32.58 0 49.1 8.8 65.1 17.3 16.15 8.59 31.4 16.7 62.74 16.7 31.34 0 46.6-8.11 62.75-16.7 15.99-8.5 32.52-17.3 65.1-17.3 32.59 0 49.12 8.8 65.1 17.3 16.16 8.59 31.42 16.7 62.75 16.7 31.35 0 46.6-8.11 62.76-16.7 15.98-8.5 32.51-17.3 65.1-17.3s49.12 8.8 65.1 17.3c16.16 8.59 31.42 16.7 62.76 16.7v5zm-863.59 151.48c-12.2 0-22.11-9.92-22.11-22.11s9.92-22.11 22.11-22.11c12.2 0 22.11 9.92 22.11 22.1s-9.92 22.12-22.11 22.12zm0-39.22a17.12 17.12 0 0 0 0 34.22c9.44 0 17.11-7.68 17.11-17.11s-7.67-17.11-17.11-17.11zm46.27 78.08a18.34 18.34 0 0 1-18.32-18.31c0-10.1 8.22-18.32 18.32-18.32s18.32 8.22 18.32 18.32-8.22 18.31-18.32 18.31zm0-31.63c-7.34 0-13.32 5.97-13.32 13.31s5.98 13.32 13.32 13.32 13.32-5.97 13.32-13.32-5.98-13.31-13.32-13.31zm620.79 31.63a18.34 18.34 0 0 1-18.31-18.31c0-10.1 8.21-18.32 18.31-18.32s18.32 8.22 18.32 18.32-8.22 18.31-18.32 18.31zm0-31.63a13.32 13.32 0 0 0 0 26.63 13.32 13.32 0 1 0 0-26.63zM148.56 932.02a18.34 18.34 0 0 1-18.32-18.31c0-10.1 8.22-18.32 18.32-18.32s18.31 8.22 18.31 18.32-8.21 18.31-18.31 18.31zm0-31.63a13.33 13.33 0 0 0 0 26.63 13.33 13.33 0 0 0 0-26.63zm171.67 90.36c-10.1 0-18.32-8.22-18.32-18.32s8.22-18.31 18.32-18.31a18.33 18.33 0 0 1 0 36.63zm0-31.63a13.33 13.33 0 0 0 0 26.63 13.33 13.33 0 0 0 0-26.63z"/><path d="m1320.54 975.28-.05-38.9-28.57 15.08a92.05 92.05 0 0 0-58.26-20.68 92.12 92.12 0 0 0-63.08 24.87 92.12 92.12 0 0 0 63.08 24.86 92.06 92.06 0 0 0 58.98-21.27l27.9 16.04zM98.2 1034.5l.06 38.9 28.56-15.08A92.05 92.05 0 0 0 185.1 1079a92.12 92.12 0 0 0 63.07-24.87 92.12 92.12 0 0 0-63.07-24.86 92.04 92.04 0 0 0-58.98 21.27l-27.9-16.04zm1335.84-143.93-.05-38.9-28.56 15.08a92.05 92.05 0 0 0-58.27-20.68 92.12 92.12 0 0 0-63.07 24.87 92.12 92.12 0 0 0 63.07 24.87c22.42 0 42.97-8 58.98-21.27l27.9 16.03z"/><path fill="#FFF" d="m608.51 231.19 28.11-26.9L606 194.04a92.06 92.06 0 0 0-25.26-56.43 92.13 92.13 0 0 0-61.54-28.48 92.12 92.12 0 0 0 25.55 62.8 92.05 92.05 0 0 0 56.1 28l7.66 31.26zM711.04 71.46l21.22 21 7.22-23.72a70.65 70.65 0 0 0 42.76-20.56A70.7 70.7 0 0 0 802.8.38a70.7 70.7 0 0 0-47.64 20.91 70.65 70.65 0 0 0-20.3 43.63l-23.81 6.54z"/><path fill="#2E9AFF" d="m709.39 215.31 12.46 21 10.61-17.27a57.8 57.8 0 0 0 38.1-7.45 57.84 57.84 0 0 0 26.14-33.6 57.84 57.84 0 0 0-42.03 6.72 57.8 57.8 0 0 0-25.08 30.35l-20.2.25z"/></svg>