<svg xmlns="http://www.w3.org/2000/svg" viewBox="0 0 1080 1080" xml:space="preserve"><path fill="#FFF" d="M757.64 970.47c-9.44 0-17.13-7.68-17.13-17.13s7.69-17.13 17.14-17.13 17.13 7.69 17.13 17.13-7.69 17.13-17.13 17.13zm0-30.26c-7.24 0-13.13 5.9-13.13 13.13s5.9 13.13 13.14 13.13 13.13-5.89 13.13-13.13-5.9-13.13-13.13-13.13zm35.7 60.24c-7.83 0-14.2-6.37-14.2-14.2 0-7.83 6.37-14.2 14.2-14.2s14.2 6.37 14.2 14.2c0 7.83-6.37 14.2-14.2 14.2zm0-24.4a10.21 10.21 0 0 0 0 20.4 10.21 10.21 0 0 0 0-20.4zm-635.87 11.82c-7.83 0-14.2-6.37-14.2-14.2s6.37-14.2 14.2-14.2c7.83 0 14.2 6.37 14.2 14.2s-6.37 14.2-14.2 14.2zm0-24.4a10.21 10.21 0 0 0 0 20.4 10.21 10.21 0 0 0 0-20.4z"/><path d="m889.7 1074.46-.04-30.01-22.04 11.63a71.02 71.02 0 0 0-44.95-15.95 71.07 71.07 0 0 0-48.66 19.19 71.07 71.07 0 0 0 48.66 19.18c17.3 0 33.15-6.17 45.5-16.41l21.53 12.37zm87.57-65.35-.04-30.01-22.04 11.63a71.02 71.02 0 0 0-44.95-15.95 71.07 71.07 0 0 0-48.66 19.19 71.07 71.07 0 0 0 48.66 19.18c17.3 0 33.15-6.17 45.5-16.41l21.53 12.37z"/><g fill="#FFF"><path d="M393.18 382.19c14.85-6.68 31.16 5.86 28.5 21.92l-12.35 75 132.85-98.9a413.57 413.57 0 0 0-87.38-134.02 413.06 413.06 0 0 0-102.13 154.22l40.51-18.23z"/><path d="m406.55 483.67 13.17-79.88a18.14 18.14 0 0 0-6.94-17.58A18.14 18.14 0 0 0 394 384l-44.89 20.19 1.69-4.5a417.35 417.35 0 0 1 102.62-154.96l1.44-1.36 1.38 1.42a413.44 413.44 0 0 1 87.8 134.66l.57 1.43-138.06 102.78zm-4.92-105.33a22.2 22.2 0 0 1 13.59 4.7 22.09 22.09 0 0 1 8.44 21.4l-11.55 70.1 127.64-95.01a409.38 409.38 0 0 0-85-130.52 413.58 413.58 0 0 0-98.48 147.59l36.1-16.24.81 1.82-.82-1.82a22.63 22.63 0 0 1 9.27-2.02zm-66.79 84.2a415.06 415.06 0 0 0-8.22 74.81l4.36.09 74.23-55.27-70.37-19.63z"/><path d="m331.62 539.45-7.04-.14.04-2a418.37 418.37 0 0 1 8.26-75.17l.43-2.1 76.36 21.3-78.05 58.1zm-2.96-4.06 1.67.03 70.41-52.41-64.36-17.97a414.39 414.39 0 0 0-7.72 70.35z"/></g><path fill="#FFF" d="M439.75 293.26c-4.46 0-8.87-1.61-12.43-4.75l-79.57-69.98a44.1 44.1 0 0 1-14.02-43.76 44.1 44.1 0 0 1 31.93-33.04l49.34-13.3a18.92 18.92 0 0 1 23.6 15.33l19.87 127.66a18.71 18.71 0 0 1-9.58 19.47 18.97 18.97 0 0 1-9.14 2.37zm-19.83-161.48c-1.3 0-2.6.17-3.88.5l-49.34 13.3a40.17 40.17 0 0 0-29.07 30.1 40.17 40.17 0 0 0 12.77 39.84l79.56 69.99c5.79 5.09 12.58 4.3 17 1.87 4.43-2.43 8.74-7.74 7.56-15.35l-19.88-127.65a14.91 14.91 0 0 0-14.72-12.6z"/><path fill="#FFF" d="M445.3 291.24a2 2 0 0 1-1.67-.89l-91.9-138.18a2 2 0 1 1 3.34-2.21l83.98 126.28-43.87-137.53a2 2 0 1 1 3.8-1.22l48.22 151.15a2 2 0 0 1-1.9 2.6zm24.63 2.59c-3.34 0-6.7-.9-9.75-2.73a18.71 18.71 0 0 1-8.83-19.82l24.73-126.8a18.92 18.92 0 0 1 24.16-14.43l48.8 15.18a44.1 44.1 0 0 1 30.65 34.23A44.1 44.1 0 0 1 564 222.65l-82.17 66.9a18.8 18.8 0 0 1-11.9 4.28zm24.7-160.63a14.92 14.92 0 0 0-14.62 12.05l-24.73 126.8c-1.48 7.56 2.63 13.03 6.96 15.62 4.33 2.6 11.1 3.64 17.07-1.22l82.17-66.9a40.16 40.16 0 0 0 14.28-39.33 40.16 40.16 0 0 0-27.9-31.17l-48.8-15.18a14.88 14.88 0 0 0-4.42-.67zM480.58 288z"/><path fill="#FFF" d="M463.84 291.6a2 2 0 0 1-1.88-2.68l53.94-149.2a2 2 0 1 1 3.76 1.36l-49.08 135.76 88.73-122.99a2 2 0 0 1 3.24 2.34l-97.1 134.58a2 2 0 0 1-1.61.83zM30.16 541.52c-8.4 0-17.99-2.42-27.75-9.66a2 2 0 0 1 2.39-3.21c26.4 19.58 49.66.93 49.86.72a2 2 0 0 1 2.89 2.77c-2.23 2.32-13.07 9.38-27.4 9.38z"/><path fill="#FFF" d="M132.95 661.97a2 2 0 0 1-1.01-.27A367.23 367.23 0 0 1 1.88 531.27a2 2 0 0 1 .42-2.52 367.21 367.21 0 0 1 165.03-81.8 2 2 0 0 1 2.2 1.07c17.34 34.92 23.15 73.77 16.8 112.35S162 633.88 134.35 661.4a2 2 0 0 1-1.41.58zM6.18 530.68a363.26 363.26 0 0 0 126.45 126.78 179.86 179.86 0 0 0 49.74-97.74c6.14-37.23.7-74.73-15.74-108.53A363.26 363.26 0 0 0 6.18 530.68z"/><g fill="#FFF"><path d="M407.2 481.04A363.12 363.12 0 0 0 301 446.2a362.74 362.74 0 0 0-133.26 2.71 182.34 182.34 0 0 1 16.6 111.14 182.33 182.33 0 0 1-51.39 99.92c6.38 3.76 12.9 7.32 19.53 10.7L407.2 481.03z"/><path d="M152.48 672.66c-.31 0-.62-.07-.9-.21a364.76 364.76 0 0 1-19.65-10.75 2 2 0 0 1-.4-3.14 179.88 179.88 0 0 0 50.84-98.84c6.23-37.75.55-75.76-16.42-109.92a2 2 0 0 1 1.38-2.85 364.1 364.1 0 0 1 134-2.72 365.24 365.24 0 0 1 106.78 35.02 2 2 0 0 1 .29 3.39L153.67 672.27a2 2 0 0 1-1.2.4zm-16.3-13.11a362.31 362.31 0 0 0 16.1 8.77l251.13-186.95a361.33 361.33 0 0 0-102.73-33.2 360.04 360.04 0 0 0-130.01 2.19c16.46 34.3 21.87 72.3 15.65 110.01s-23.53 71.96-50.13 99.18z"/></g><path fill="#FFF" d="M112.13 591.07A40.53 40.53 0 0 1 72.16 544a40.22 40.22 0 0 1 16.36-26.32c8.78-6.3 19.5-8.8 30.17-7.05A40.22 40.22 0 0 1 145.01 527a40.2 40.2 0 0 1 7.04 30.17 40.55 40.55 0 0 1-39.92 33.9zm-.1-76.99a36.22 36.22 0 0 0-21.18 6.85 36.25 36.25 0 0 0-14.74 23.71c-3.27 19.85 10.21 38.67 30.06 41.94s38.66-10.22 41.94-30.07a36.24 36.24 0 0 0-6.35-27.19 36.25 36.25 0 0 0-23.72-14.74c-2-.33-4.02-.5-6.01-.5z"/><circle fill="#FFF" cx="112.11" cy="550.58" r="19.28"/><path fill="#FFF" d="M408.66 485.14a2 2 0 0 1-.54-.07l-148.05-41.32a2 2 0 0 1-.28-3.76l132.57-59.63c7.66-3.44 16.2-2.44 22.86 2.68s9.8 13.12 8.44 21.4l-13.02 79.02a2 2 0 0 1-1.98 1.68zm-142.2-43.76 140.6 39.23 12.65-76.82a18.14 18.14 0 0 0-6.93-17.58A18.14 18.14 0 0 0 394 384l-127.53 57.37z"/><path fill="none" d="m374.77 575.73-.1.66.77-.57zM604.4 878.4l-1.82 1.31 4.11.6.61-4.13c-.96.74-1.92 1.49-2.9 2.21zM273.44 651.16l-.1.67.77-.57z"/><path d="M645.63 617.3c-.1 0-.19-.01-.29-.03l-87.66-12.8a2 2 0 0 1-1.69-2.27l13.11-89.72a2 2 0 0 1 2.27-1.7l87.73 12.82a2 2 0 0 1 1.7 2.27l-13.2 89.71a2 2 0 0 1-1.97 1.71zm-85.39-16.5 83.7 12.23 12.6-85.76-83.77-12.23-12.53 85.76z"/><path d="M706.62 626.2c-.1 0-.2 0-.29-.02l-60.99-8.9a2 2 0 0 1-1.69-2.27l13.19-89.72a2 2 0 0 1 2.26-1.68l3.81.55a2 2 0 0 1 1.32.79c22.25 30.01 37.17 63.27 44.35 98.86a2 2 0 0 1-1.96 2.4zm-58.72-12.6 56.18 8.21c-7.21-33.7-21.52-65.24-42.57-93.81l-1-.15-12.6 85.75z"/><path d="M632.66 705.63c-.1 0-.2 0-.3-.02l-87.58-12.8a2 2 0 0 1-1.7-2.26L556 602.2a2 2 0 0 1 2.27-1.69l87.66 12.8a2 2 0 0 1 1.69 2.28l-12.98 88.34a2 2 0 0 1-1.97 1.7zm-85.32-16.48 83.63 12.22 12.4-84.39-83.7-12.22-12.33 84.39z"/><path d="m619.68 793.98-.3-.03-87.5-12.78a2 2 0 0 1-1.7-2.27l12.9-88.35a2 2 0 0 1 2.27-1.69l87.6 12.8a2 2 0 0 1 1.68 2.27l-12.98 88.34a2 2 0 0 1-1.97 1.7zm-85.25-16.48 83.56 12.2 12.4-84.38-83.63-12.21-12.33 84.4zm128.2-249.36c-.1 0-.2 0-.3-.02l-3.8-.56a2 2 0 0 1-1.7-2.27l.57-3.82a2 2 0 0 1 3.58-.9l3.25 4.38a2 2 0 0 1-1.6 3.19z"/><path d="M658.82 527.58c-.1 0-.2 0-.3-.02l-87.73-12.81a2 2 0 0 1-1.69-2.27l13.39-91.63a2 2 0 0 1 3.58-.9l74.9 100.62a2 2 0 0 1 .38 1.48l-.56 3.82a2 2 0 0 1-1.97 1.71zm-85.47-16.5 83.78 12.24.15-1.03-71.53-96.08-12.4 84.87z"/><path d="m571.08 514.77-.29-.02-92.74-13.55a2 2 0 0 1-.9-3.58l105.68-78.68a2 2 0 0 1 2.8.41l.44.6a2 2 0 0 1 .37 1.48l-13.38 91.63a2 2 0 0 1-1.98 1.7zm-87.67-16.83 85.98 12.56 12.55-85.91-98.53 73.35zm-46.25 269.37c-.1 0-.2 0-.29-.02l-88.35-12.9a2 2 0 0 1-1.69-2.27l12.98-88.34a2 2 0 0 1 2.27-1.7L450.43 675a2 2 0 0 1 1.69 2.27l-12.98 88.34a2 2 0 0 1-1.98 1.71zm-86.08-16.6 84.4 12.33 12.39-84.38-84.4-12.33-12.4 84.39z"/><path d="M424.18 855.65c-.1 0-.19 0-.29-.02l-88.35-12.9a2 2 0 0 1-1.69-2.27l12.98-88.34a2 2 0 0 1 2.27-1.7l88.35 12.91a2 2 0 0 1 1.69 2.27l-12.98 88.34a2 2 0 0 1-1.98 1.71zm-86.08-16.6 84.4 12.34L434.9 767l-84.4-12.33-12.4 84.39zm206.97-146.21c-.1 0-.2 0-.3-.02l-94.92-13.87a2 2 0 0 1-1.69-2.27l12.98-88.34a2 2 0 0 1 2.27-1.68l94.85 13.85a2 2 0 0 1 1.7 2.27l-12.92 88.35a2 2 0 0 1-1.97 1.71zm-92.66-17.56 90.97 13.3 12.32-84.4-90.9-13.28-12.4 84.38z"/><path d="M335.83 842.75c-.1 0-.2-.01-.29-.03l-88.35-12.9a2 2 0 0 1-1.69-2.27l12.98-88.34a2 2 0 0 1 2.27-1.69l88.35 12.9a2 2 0 0 1 1.69 2.28l-12.98 88.34a2 2 0 0 1-1.98 1.7zm-86.08-16.6 84.4 12.33 12.39-84.39-84.4-12.32-12.4 84.38zm269.51 43.39c-.1 0-.2 0-.3-.02l-95.07-13.89a2 2 0 0 1-1.69-2.27l12.98-88.34a2 2 0 0 1 2.27-1.69l95 13.88a2 2 0 0 1 1.69 2.27l-12.9 88.35a2 2 0 0 1-1.98 1.71zm-92.81-17.58 91.11 13.31 12.33-84.39-91.04-13.3-12.4 84.38z"/><path d="M532.16 781.19c-.1 0-.2 0-.29-.02l-95-13.88a2 2 0 0 1-1.69-2.27l12.98-88.34a2 2 0 0 1 2.27-1.69l94.93 13.87a2 2 0 0 1 1.69 2.27l-12.91 88.35a2 2 0 0 1-1.98 1.71zm-92.73-17.57 91.04 13.3 12.33-84.4-90.97-13.28-12.4 84.38zm-192.15 67.54a2 2 0 0 1-1.6-.8l-1.13-1.52a2 2 0 0 1 1.9-3.17l1.32.19a2 2 0 0 1 1.69 2.27l-.2 1.32a2 2 0 0 1-1.98 1.71z"/><path d="M602.58 881.71a2 2 0 0 1-.29-.02l-83.33-12.17a2 2 0 0 1-1.68-2.27l12.9-88.35a2 2 0 0 1 2.27-1.69L619.96 790a2 2 0 0 1 1.7 2.27l-12.38 84.2a2 2 0 0 1-.76 1.3l-.9.68c-.67.52-1.34 1.04-2.03 1.55l-1.09.8-.74.53a2 2 0 0 1-1.18.38zm-81.06-15.86 80.54 11.77.1-.08c.35-.24.7-.5 1.04-.75l1.98-1.5.26-.2 11.96-81.42-83.55-12.21-12.33 84.4zm-108.5 65.77c-.09 0-.18 0-.27-.02A242.87 242.87 0 0 1 326 902.64a2 2 0 0 1-1-2.03l8.84-60.16a2 2 0 0 1 2.27-1.68l88.35 12.9a2 2 0 0 1 1.69 2.27L415 929.91a2 2 0 0 1-1.98 1.71zm-83.85-31.8a238.81 238.81 0 0 0 82.16 27.55l10.58-72.03-84.4-12.33-8.34 56.81z"/><path d="M446.53 933.88c-11.28 0-22.55-.76-33.78-2.28a2 2 0 0 1-1.71-2.27l11.16-75.97a2 2 0 0 1 2.27-1.68l95.07 13.88a2 2 0 0 1 1.7 2.27l-8.18 55.96a2 2 0 0 1-1.48 1.65 256.96 256.96 0 0 1-65.05 8.44zm-31.24-5.98a250.25 250.25 0 0 0 94-6l7.7-52.67-91.12-13.31-10.58 71.98z"/><path d="M511.08 925.5a2 2 0 0 1-1.98-2.29l8.17-55.96a2 2 0 0 1 2.27-1.69l83.33 12.18a2 2 0 0 1 .89 3.59c-28.22 20.66-59.24 35.5-92.18 44.1-.16.05-.33.07-.5.07zm9.86-55.69-7.44 50.98a267.5 267.5 0 0 0 83.9-39.81l-76.46-11.17zm186.63-153.23c-.1 0-.2 0-.3-.02l-74.9-10.95a2 2 0 0 1-1.7-2.26L643.65 615a2 2 0 0 1 2.27-1.7l61 8.92a2 2 0 0 1 1.66 1.58c6.06 30 6.38 60.66.95 91.12a2 2 0 0 1-1.96 1.65zm-72.65-14.63 71 10.37a239.2 239.2 0 0 0-.98-86.34l-57.62-8.42-12.4 84.39zM607.3 878.18a2.01 2.01 0 0 1-1.98-2.3l12.37-84.2a2 2 0 0 1 2.27-1.68l55.8 8.15a2 2 0 0 1 1.42 3c-17.58 29.44-40.68 55.22-68.66 76.62a2 2 0 0 1-1.22.4zm14.06-83.94-11.35 77.3a267.12 267.12 0 0 0 62.19-69.87l-50.84-7.43z"/><path d="m675.47 802.13-.3-.03-55.78-8.15a2 2 0 0 1-1.7-2.26l12.98-88.35a2 2 0 0 1 2.27-1.68l74.91 10.94a2 2 0 0 1 1.68 2.33 254.8 254.8 0 0 1-32.34 86.22 2 2 0 0 1-1.72.98zm-53.53-11.84 52.5 7.66a250.81 250.81 0 0 0 30.78-81.7l-70.88-10.35-12.4 84.39zm-374.46 39.55c-.1 0-.2 0-.3-.02l-1.32-.2a2 2 0 0 1-1.31-.78l-74.52-100.1a2 2 0 0 1 .4-2.8l1.15-.85c.43-.32.96-.46 1.48-.38l87.69 12.81a2 2 0 0 1 1.69 2.27l-12.98 88.34a2 2 0 0 1-1.98 1.71zm-72.21-100.76L246 824.1l12.18-82.91-82.92-12.11zm274.87-50.11c-.1 0-.2 0-.29-.02l-88.35-12.9a2 2 0 0 1-1.69-2.27l12.88-87.68a2 2 0 0 1 .79-1.3l.76-.58c.43-.32.96-.46 1.49-.37l87.68 12.8a2 2 0 0 1 1.69 2.27l-12.98 88.34a2 2 0 0 1-1.98 1.71zm-86.08-16.6 84.4 12.33 12.39-84.38-84.4-12.33-12.4 84.39z"/><path d="m361.8 666.07-.3-.03-87.68-12.8a2 2 0 0 1-.9-3.59l100.56-74.86a2 2 0 0 1 3.17 1.9l-12.88 87.67a2 2 0 0 1-1.98 1.7zm-82.63-16.1 80.93 11.83 11.89-80.92-92.81 69.1z"/><path d="M463.12 590.63c-.1 0-.2 0-.3-.02l-87.67-12.8a2 2 0 0 1-.9-3.6l100.55-74.85a2 2 0 0 1 3.18 1.9l-12.88 87.67a2 2 0 0 1-1.98 1.7zm-82.62-16.09 80.93 11.83 11.89-80.92-92.81 69.1zM260.46 741.5c-.1 0-.2 0-.3-.02l-87.67-12.81a2 2 0 0 1-.9-3.58l100.56-74.87a2 2 0 0 1 3.17 1.9l-12.88 87.67a2 2 0 0 1-1.98 1.7zm-82.61-16.09 80.92 11.82 11.89-80.91-92.82 69.09z"/><path d="M348.81 754.4c-.1 0-.2 0-.29-.02l-88.35-12.9a2 2 0 0 1-1.7-2.27l12.9-87.67a2 2 0 0 1 .77-1.32l.77-.57a2 2 0 0 1 1.48-.37l87.69 12.81a2 2 0 0 1 1.69 2.27l-12.98 88.34a2 2 0 0 1-1.98 1.7zm-86.08-16.59 84.4 12.33 12.39-84.38-84.4-12.33-12.4 84.38zm295.24-133.32c-.1 0-.19 0-.28-.02l-94.86-13.86a2 2 0 0 1-1.69-2.27l12.88-87.67a2 2 0 0 1 .79-1.31l2.34-1.74a2 2 0 0 1 1.48-.38l92.74 13.55a2 2 0 0 1 1.69 2.27l-13.1 89.72a2 2 0 0 1-1.99 1.7zm-92.58-17.55 90.9 13.28 12.52-85.77-89.94-13.13-1.01.75-12.47 84.87zM327 902.9a2 2 0 0 1-.99-.26c-30.24-16.99-56.38-40.1-77.68-68.72l-2.65-3.56a2 2 0 0 1-.37-1.49l.2-1.32a2 2 0 0 1 2.26-1.69l88.35 12.9a2 2 0 0 1 1.69 2.28l-8.84 60.15a2 2 0 0 1-1.98 1.7zm-76.36-72.58.9 1.21c20.37 27.36 45.22 49.61 73.9 66.18l8.12-55.27-82.92-12.12zm336.16-420.2.48-4.55a24.73 24.73 0 0 0-4.77-17.4l-.5-.66a24.85 24.85 0 0 0-13.84-9.24l-4.08-1.02 3.37-2.52L1026.19 31.7a19.85 19.85 0 0 1 14.8-3.78 19.98 19.98 0 0 1 9.12 35.74l-463.3 346.45zm-13.87-34.49a28.89 28.89 0 0 1 12.3 9.5l.49.66a28.7 28.7 0 0 1 5.67 15.9l456.33-341.22a15.98 15.98 0 0 0-7.3-28.58 15.9 15.9 0 0 0-11.83 3.02L572.93 375.64z"/><path d="M161 730.79c-8.8 0-17.5-4-23.15-11.6l-.5-.66c-4.59-6.17-6.5-13.77-5.39-21.38s5.13-14.34 11.3-18.93l401.65-299a28.7 28.7 0 0 1 24.23-4.83 28.86 28.86 0 0 1 16.08 10.73l.5.67a28.72 28.72 0 0 1 5.54 20.2 28.88 28.88 0 0 1-11.45 20.1l-401.65 299a28.64 28.64 0 0 1-17.16 5.7zm401.08-353.27a24.7 24.7 0 0 0-14.78 4.9l-401.65 299a24.65 24.65 0 0 0-9.73 16.31c-.96 6.56.69 13.1 4.64 18.41l.5.67a24.84 24.84 0 0 0 34.71 5.08l401.65-299a24.87 24.87 0 0 0 9.86-17.32 24.73 24.73 0 0 0-4.77-17.4l-.5-.66a24.85 24.85 0 0 0-13.84-9.24c-2.02-.5-4.06-.75-6.09-.75zM979.74 27.46l29.47-21.94c9-6.7 21.74-4.84 28.45 4.17l37.17 49.94c6.7 9 4.84 21.74-4.17 28.44l-29.47 21.94c-9 6.7-21.74 4.84-28.44-4.16L975.57 55.9c-6.7-9-4.84-21.74 4.17-28.45z"/><path d="M652.19 296.37 994.3 41.69l37.43 50.29-342.12 254.68z"/><path fill="#FFF" d="m236.38 321.76 6.53-33.22-26.93 8.05a80.13 80.13 0 0 0-46.26-27.5 80.18 80.18 0 0 0-58.06 10.57 80.18 80.18 0 0 0 49.66 31.9 80.12 80.12 0 0 0 53.95-8.2l21.11 18.4zm68.4-21.61 12.62-1.06-5.65-8.86a29.95 29.95 0 0 0 5.15-19.45 29.98 29.98 0 0 0-9.75-19.79 29.97 29.97 0 0 0-6.38 21.12 29.95 29.95 0 0 0 8.47 18.56l-4.46 9.48z"/><path fill="#2E9AFF" d="m260.02 197.76 17.4 7.26-1.4-15.59a44.6 44.6 0 0 0 20.14-22.16 44.63 44.63 0 0 0 .7-32.83 44.63 44.63 0 0 0-22.91 23.52 44.59 44.59 0 0 0-1.54 30.33l-12.39 9.47zm60.23 157.61-4.45-18.31-11.73 10.35a44.6 44.6 0 0 0-29.79-3.1 44.62 44.62 0 0 0-26.86 18.89 44.63 44.63 0 0 0 32.53 4.53A44.59 44.59 0 0 0 305.29 351l14.96 4.37z"/><path fill="#FFF" d="M1076.57 840.85c-18.45 0-27.8-5.22-36.83-10.26-8.98-5-17.47-9.74-34.87-9.74s-25.9 4.73-34.88 9.74c-9.04 5.04-18.38 10.26-36.83 10.26s-27.78-5.22-36.82-10.26c-8.98-5-17.47-9.74-34.87-9.74s-25.9 4.73-34.88 9.74c-9.03 5.04-18.38 10.26-36.82 10.26s-27.79-5.22-36.82-10.26c-8.98-5-17.47-9.74-34.87-9.74s-25.9 4.73-34.88 9.74c-9.03 5.04-18.37 10.26-36.82 10.26s-27.79-5.22-36.82-10.26c-8.98-5-17.47-9.74-34.87-9.74s-25.9 4.73-34.88 9.74c-9.03 5.04-18.37 10.26-36.82 10.26-18.44 0-27.79-5.22-36.82-10.26-8.98-5-17.47-9.74-34.87-9.74s-25.9 4.73-34.88 9.74c-9.03 5.04-18.38 10.26-36.82 10.26s-27.78-5.22-36.82-10.26c-8.98-5-17.47-9.74-34.87-9.74s-25.89 4.73-34.87 9.74c-9.03 5.04-18.38 10.26-36.82 10.26s-27.78-5.22-36.82-10.26c-8.98-5-17.46-9.74-34.87-9.74-17.4 0-25.89 4.73-34.87 9.74-9.03 5.04-18.38 10.26-36.82 10.26s-27.79-5.22-36.82-10.26c-8.98-5-17.47-9.74-34.87-9.74a2 2 0 0 1 0-4c18.44 0 27.78 5.21 36.82 10.25 8.98 5.01 17.47 9.75 34.87 9.75s25.89-4.74 34.87-9.75c9.04-5.04 18.38-10.25 36.82-10.25 18.45 0 27.79 5.21 36.82 10.25 8.99 5.01 17.47 9.75 34.87 9.75s25.89-4.74 34.87-9.75c9.04-5.04 18.38-10.25 36.82-10.25s27.79 5.21 36.82 10.25c8.98 5.01 17.47 9.75 34.87 9.75s25.9-4.74 34.87-9.75c9.04-5.04 18.38-10.25 36.83-10.25s27.78 5.21 36.82 10.25c8.98 5.01 17.47 9.75 34.87 9.75s25.9-4.74 34.87-9.75c9.04-5.04 18.38-10.25 36.82-10.25 18.45 0 27.8 5.21 36.83 10.25 8.98 5.01 17.47 9.75 34.87 9.75s25.9-4.74 34.87-9.75c9.04-5.04 18.38-10.25 36.83-10.25 18.44 0 27.78 5.21 36.82 10.25 8.98 5.01 17.47 9.75 34.87 9.75s25.89-4.74 34.87-9.75c9.04-5.04 18.38-10.25 36.83-10.25s27.78 5.21 36.82 10.25c8.98 5.01 17.47 9.75 34.88 9.75 17.4 0 25.89-4.74 34.87-9.75 9.04-5.04 18.38-10.25 36.83-10.25 18.44 0 27.79 5.21 36.82 10.25 8.99 5.01 17.47 9.75 34.88 9.75a2 2 0 0 1 0 4z"/></svg>