<svg xmlns="http://www.w3.org/2000/svg" viewBox="0 0 1925 1050" xml:space="preserve"><path fill="#FFD829" d="M1135.04 252.32h623.73c-32.31-98.79-124.94-170.28-234.37-170.94v-.02H907.14v.05c106.62 3.39 196.26 74.03 227.9 170.9z"/><path d="M1762.22 254.82h-629l-.56-1.72a244.82 244.82 0 0 0-84.97-119.3 243.79 243.79 0 0 0-140.63-49.9l-2.42-.07V78.9l2.5-.05h619.76v.05a248.58 248.58 0 0 1 145.1 49.13 249.6 249.6 0 0 1 89.15 123.5l1.07 3.28zm-625.38-5h618.46a244.62 244.62 0 0 0-86.28-117.76 243.7 243.7 0 0 0-144.63-48.18l-2.49-.02H949.68a248.63 248.63 0 0 1 101.04 45.95 249.8 249.8 0 0 1 86.12 120.01z"/><path fill="#FFD829" stroke="#000" stroke-width="5" stroke-miterlimit="10" d="M907.14 577.62v.04h617.26v-.02c105.8-.63 195.88-67.47 230.95-161.17h-623.73c-34.32 91.83-121.47 157.88-224.48 161.15z"/><path fill="none" stroke="#000" stroke-width="5" stroke-linecap="round" stroke-linejoin="round" stroke-miterlimit="10" d="M503.8 81.26V77.3a73.59 73.59 0 0 1 73.6-73.6h0a73.59 73.59 0 0 1 73.58 73.6v12.8"/><path d="M1751.11 167.43v-.01h-43.35c37.55 43.48 60.26 100.13 60.26 162.1s-22.71 118.6-60.26 162.08h43.35c89.07-.54 161.1-72.9 161.1-162.09s-72.03-161.54-161.1-162.08zm-134.65 187.85a22.67 22.67 0 0 1-22.6 22.6H1314.3a22.67 22.67 0 0 1-22.6-22.6V313.5a22.67 22.67 0 0 1 22.6-22.6h279.57a22.67 22.67 0 0 1 22.6 22.6v41.78z"/><path d="M1600.45 392.83h-293.32a31.6 31.6 0 0 1-31.58-31.57v-53.74a31.6 31.6 0 0 1 31.57-31.57h293.33a31.6 31.6 0 0 1 31.57 31.57v53.74a31.61 31.61 0 0 1-31.57 31.57zm-293.33-111.88a26.6 26.6 0 0 0-26.57 26.57v53.74a26.6 26.6 0 0 0 26.57 26.57h293.33a26.6 26.6 0 0 0 26.57-26.57v-53.74a26.6 26.6 0 0 0-26.57-26.57h-293.33z"/><text transform="translate(1320.62 349.46)" fill="#FFF" font-family="'PTMono-Bold'" font-size="41.1">DOKA OPTICS</text><path fill="#FFD829" d="M255.65 81.26C118.6 81.26 7.5 192.36 7.5 329.41v.2c0 137.05 111.1 248.15 248.15 248.15S503.8 466.66 503.8 329.61V81.26H255.65zm0 434.29c-102.74 0-186.03-83.3-186.03-186.04s83.29-186.03 186.03-186.03S441.7 226.77 441.7 329.5c0 102.75-83.3 186.04-186.04 186.04z"/><path d="M255.65 580.26c-66.95 0-129.9-26.07-177.23-73.41S5 396.56 5 329.6v-.2c0-66.95 26.08-129.9 73.42-177.23 47.34-47.34 110.28-73.42 177.23-73.42H506.3V329.6c0 66.95-26.07 129.9-73.41 177.24s-110.28 73.41-177.24 73.41zm0-496.5a244.04 244.04 0 0 0-173.7 71.95 244.04 244.04 0 0 0-71.94 173.7v.2c0 65.62 25.55 127.3 71.94 173.7 46.4 46.4 108.09 71.95 173.7 71.95s127.3-25.55 173.7-71.95a244.04 244.04 0 0 0 71.95-173.7V83.76H255.65zm0 434.29c-103.96 0-188.53-84.58-188.53-188.54s84.57-188.53 188.53-188.53c103.96 0 188.54 84.57 188.54 188.53s-84.58 188.54-188.54 188.54zm0-372.07c-101.2 0-183.53 82.33-183.53 183.53s82.33 183.54 183.53 183.54S439.2 430.72 439.2 329.5s-82.33-183.53-183.54-183.53z"/><path d="M253.15 83.44h5v45.94h-5zm0 446.59h5v45.94h-5z"/><path fill="#FFF" d="M255.65 124.94c-112.98 0-204.57 91.59-204.57 204.57 0 112.99 91.59 204.58 204.57 204.58s204.58-91.6 204.58-204.58c0-112.98-91.6-204.57-204.58-204.57zm-82.5 231.7v52.92c0 10.84 8.82 19.65 19.65 19.65s19.66-8.81 19.66-19.65a2.5 2.5 0 1 1 5 0c0 13.6-11.06 24.65-24.66 24.65s-24.65-11.06-24.65-24.65v-52.93c0-10.86-8.83-19.7-19.69-19.7-1.38 0-2.5-1.11-2.5-2.5s1.12-2.58 2.5-2.58a19.68 19.68 0 0 0 19.66-19.66c0-.13 0-.27.03-.4v-52.57c0-13.6 11.06-24.65 24.65-24.65s24.66 11.06 24.66 24.65a2.5 2.5 0 1 1-5 0c0-10.83-8.82-19.65-19.66-19.65s-19.65 8.82-19.65 19.65v52.97c0 .15-.01.29-.04.43a24.69 24.69 0 0 1-13.92 21.77 24.73 24.73 0 0 1 13.96 22.24zm76.5-15.24a10.34 10.34 0 1 1 0-20.67 10.34 10.34 0 0 1 0 20.67zm43.64 0a10.34 10.34 0 1 1 0-20.67 10.34 10.34 0 0 1 0 20.67zm43.64 0a10.34 10.34 0 1 1 0-20.67 10.34 10.34 0 0 1 0 20.67z"/><path fill="#FFD829" d="M899.12 81.26H650.97v248.35c0 137.05 111.1 248.15 248.14 248.15 137.05 0 248.15-111.1 248.15-248.15v-.2c0-137.05-111.1-248.15-248.14-248.15zm.83 442.85c-108.07 0-195.67-87.6-195.67-195.67s87.6-195.67 195.67-195.67 195.67 87.6 195.67 195.67-87.6 195.67-195.67 195.67z"/><path d="M899.12 580.26c-66.96 0-129.9-26.07-177.24-73.41s-73.41-110.29-73.41-177.24V78.76H899.1c66.96 0 129.9 26.08 177.24 73.42s73.41 110.28 73.41 177.23v.2c0 66.95-26.07 129.9-73.41 177.24-47.34 47.34-110.28 73.41-177.23 73.41zM653.47 83.76v245.85c0 65.62 25.55 127.3 71.94 173.7a244.04 244.04 0 0 0 173.7 71.95c65.62 0 127.3-25.55 173.7-71.95a244.04 244.04 0 0 0 71.96-173.7v-.2c0-65.61-25.56-127.3-71.95-173.7a244.04 244.04 0 0 0-173.7-71.94H653.47zm246.48 442.85c-109.27 0-198.17-88.9-198.17-198.17s88.9-198.17 198.17-198.17 198.17 88.9 198.17 198.17-88.9 198.17-198.17 198.17zm0-391.34c-106.52 0-193.17 86.65-193.17 193.17s86.65 193.17 193.17 193.17c106.51 0 193.17-86.66 193.17-193.17s-86.66-193.17-193.17-193.17z"/><path d="M896.46 80.36h5v49.33h-5zm0 447.24h5v49.33h-5z"/><path fill="#FFF" d="M899.12 124.94c-112.99 0-204.58 91.59-204.58 204.57 0 112.99 91.59 204.58 204.58 204.58s204.57-91.6 204.57-204.58c0-112.98-91.59-204.57-204.58-204.57zM773.05 341.4a10.34 10.34 0 1 1 0-20.67 10.34 10.34 0 0 1 0 20.67zm43.64 0a10.34 10.34 0 1 1 0-20.67 10.34 10.34 0 0 1 0 20.67zm33.3-10.33a10.34 10.34 0 1 1 20.67 0 10.34 10.34 0 0 1-20.67 0zm80.41 5.86a19.68 19.68 0 0 0-19.65 19.66c0 .14-.01.27-.03.4v52.57c0 13.6-11.06 24.65-24.66 24.65s-24.65-11.06-24.65-24.65a2.5 2.5 0 1 1 5 0c0 10.83 8.82 19.65 19.65 19.65s19.66-8.82 19.66-19.65v-52.97c0-.15 0-.3.03-.43a24.7 24.7 0 0 1 13.93-21.77 24.73 24.73 0 0 1-13.96-22.24v-52.93a19.67 19.67 0 0 0-39.31 0 2.5 2.5 0 1 1-5 0c0-13.6 11.06-24.65 24.65-24.65s24.66 11.06 24.66 24.65v52.93c0 10.86 8.83 19.7 19.68 19.7 1.38 0 2.5 1.11 2.5 2.5s-1.12 2.58-2.5 2.58zm32.05 36.4c-3.72 35.62-11.26 58.93-11.33 59.16a2.5 2.5 0 0 1-4.76-1.56c.3-.9 29.34-92-.02-193.16a2.5 2.5 0 0 1 4.8-1.4c15.58 53.67 14.75 104.1 11.31 136.96zm42.15 60.78a2.5 2.5 0 0 1-3.1-1.7c-15.58-53.67-14.75-104.1-11.31-136.96 3.72-35.62 11.26-58.93 11.33-59.16a2.5 2.5 0 0 1 4.75 1.55c-.3.91-29.33 92.02.03 193.17a2.5 2.5 0 0 1-1.7 3.1zm29.87-60.78c-3.72 35.62-11.26 58.93-11.33 59.16a2.5 2.5 0 0 1-4.76-1.56c.3-.9 29.34-92-.02-193.16a2.5 2.5 0 0 1 4.8-1.4c15.58 53.67 14.75 104.1 11.31 136.96z"/><path d="M650.98 77.29v3.92h248.13a77.19 77.19 0 0 0-76.72-77.19H584.11a73.59 73.59 0 0 1 66.87 73.27z"/><path d="M901.61 83.7H648.48v-6.4a70.85 70.85 0 0 0-18.72-48.06A70.87 70.87 0 0 0 583.88 6.5l.23-5H824.9v.07c42.53 1.57 76.72 36.79 76.72 79.63v2.5zm-248.13-5h243.09c-1.33-39.78-34.1-71.94-74.2-72.18h-217a76.1 76.1 0 0 1 28.09 19.32 75.85 75.85 0 0 1 20.03 51.45v1.42z"/><path fill="#FFF" d="M578.21 138a57.94 57.94 0 0 1-57.87-57.88c0-31.92 25.96-57.88 57.87-57.88S636.1 48.2 636.1 80.12a57.94 57.94 0 0 1-57.88 57.87zm0-110.76a52.94 52.94 0 0 0-52.87 52.88 52.94 52.94 0 0 0 52.87 52.87 52.93 52.93 0 0 0 52.88-52.87 52.94 52.94 0 0 0-52.88-52.88z"/><circle cx="578.21" cy="80.12" r="36.92"/><path fill="#FFF" d="M1622 1047.95c-59.92 0-121.86-26.4-161.81-69.93-24.1-26.27-44.1-59.97-59.43-100.19-2-5.24-3.83-10.58-5.5-16-5.04 1.19-10 2.34-14.88 3.45-34.2 7.78-69.27 16.73-103.19 25.39-93.66 23.91-190.52 48.64-289.6 54.5-76.46 4.53-175.93 6.73-267.06-16.64-47.21-12.11-89.26-30.4-124.98-54.36-40.45-27.13-74.16-62.39-100.19-104.79-34.02-55.4-51.48-119.03-51.9-189.12l68-.03c.34 57.49 14.42 108.9 41.85 153.57 40.03 65.2 100.26 107.35 184.11 128.86 82 21.03 174.63 18.87 246.16 14.64 92.58-5.48 186.23-29.4 276.8-52.52 34.34-8.76 69.85-17.83 104.93-25.8 5.87-1.34 11.9-2.75 18.1-4.23-1.42-23.25-.4-47.7 3.05-73.23 6.06-44.76 19.24-92.19 40.28-145 2.3-5.78 4.69-11.65 7.1-17.59 18.8-46.4 38.26-95.26 38.17-139.8l68-.15c.11 57.88-22.87 115.46-43.15 165.5-2.36 5.81-4.7 11.56-6.95 17.22-18.7 46.92-30.83 90.3-36.06 128.95a319.57 319.57 0 0 0-3.02 48.29c78.08-17.18 165.11-29.56 236.71-.78 42.79 17.2 76.11 51.54 89.14 91.86 11.33 35.06 6.45 71.97-13.74 103.94-26.84 42.48-70.58 68.48-123.19 73.2-5.87.53-11.8.79-17.74.79zm-160.35-201.76c.83 2.5 1.72 4.98 2.65 7.42 12.25 32.14 27.73 58.53 45.99 78.44 14.1 15.37 33.96 28.52 55.9 37.02 22.5 8.72 45.83 12.3 67.48 10.36 21.94-1.97 52.2-10.82 71.77-41.79 9.5-15.03 11.7-30.74 6.53-46.7-6.8-21.03-25.88-40.07-49.8-49.69-55.07-22.13-131.08-10.5-200.52 4.94z"/><path d="M1131.47 413.97h632.89v5h-632.89z"/><g fill="#FFD829"><path d="M623.13 414.68c0 25.36-29.6 69.95-45.91 69.95-14.59 0-45.91-44.59-45.91-69.95a45.92 45.92 0 1 1 91.82 0z"/><path d="M536.98 517.44c-5.25 0-8.7-1.25-8.92-1.33a2.5 2.5 0 0 1 1.75-4.69c1.17.43 27.81 9.54 45.46-33.79a2.5 2.5 0 1 1 4.63 1.89c-5.58 13.71-15.84 31.17-32.98 36.42a33.93 33.93 0 0 1-9.94 1.5z"/><path d="M618.7 517.44c-2.86 0-6.25-.37-9.95-1.5-17.14-5.25-27.4-22.7-32.98-36.42a2.5 2.5 0 0 1 4.63-1.89c17.67 43.37 44.34 34.2 45.46 33.79a2.5 2.5 0 0 1 1.75 4.69c-.22.08-3.67 1.33-8.92 1.33z"/></g><path fill="none" stroke="#000" stroke-width="5" stroke-linecap="round" stroke-linejoin="round" stroke-miterlimit="10" d="M907.14 577.72H263.68"/></svg>