<svg version="1.1" id="Layer_1" xmlns="http://www.w3.org/2000/svg" x="0" y="0" viewBox="0 0 1925 1050" style="enable-background:new 0 0 1925 1050" xml:space="preserve"><style>.st0{fill:#ffd829}.st2,.st4{stroke-miterlimit:10}.st2{fill:none;stroke:#000;stroke-width:5;stroke-linecap:round;stroke-linejoin:round}.st4{stroke:#fff}.st4,.st5{fill:#fff}</style><path class="st0" d="M1135 252.3h623.7c-32.3-98.8-124.9-170.3-234.4-170.9H907.1c106.7 3.4 196.3 74 227.9 170.9z"/><path d="M1762.2 254.8h-629l-.6-1.7c-15.5-47.6-44.9-88.8-85-119.3-40.8-31-89.4-48.3-140.6-49.9l-2.4-.1v-4.9h622.3c52.7.8 102.8 17.8 145.1 49.1 42.1 31.2 72.9 73.9 89.2 123.5l1 3.3zm-625.4-5h618.5A244.54 244.54 0 0 0 1669 132a243.64 243.64 0 0 0-144.6-48.2H949.7c36.5 7.5 70.9 23 101 46 40.4 30.7 70.1 72.2 86.1 120z"/><path d="M907.1 577.6h617.3c105.8-.6 195.9-67.5 230.9-161.2h-623.7c-34.3 91.9-121.5 157.9-224.5 161.2z" style="fill:#ffd829;stroke:#000;stroke-width:5;stroke-miterlimit:10"/><path class="st2" d="M503.8 81.3v-4a73.6 73.6 0 0 1 73.6-73.6h0A73.6 73.6 0 0 1 651 77.3v12.8"/><path d="M1751.1 167.4h-43.4c37.6 43.5 60.3 100.1 60.3 162.1s-22.7 118.6-60.3 162.1h43.4c89.1-.5 161.1-72.9 161.1-162.1 0-89.2-72-161.5-161.1-162.1zM1616.5 355.3a22.7 22.7 0 0 1-22.6 22.6h-279.6a22.7 22.7 0 0 1-22.6-22.6v-41.8a22.7 22.7 0 0 1 22.6-22.6h279.6a22.7 22.7 0 0 1 22.6 22.6v41.8z"/><path d="M1600.4 392.8h-293.3c-17.4 0-31.6-14.2-31.6-31.6v-53.7c0-17.4 14.2-31.6 31.6-31.6h293.3c17.4 0 31.6 14.2 31.6 31.6v53.7c0 17.5-14.1 31.6-31.6 31.6zm-293.3-111.9c-14.7 0-26.6 11.9-26.6 26.6v53.7c0 14.7 11.9 26.6 26.6 26.6h293.3c14.7 0 26.6-11.9 26.6-26.6v-53.7c0-14.7-11.9-26.6-26.6-26.6h-293.3z"/><g style="enable-background:new"><path class="st4" d="M1325.5 345.1v-20.8c0-.8.5-1.3 1.3-1.3h4.3c7.3 0 10.9 5 10.9 11.8 0 6.7-3.6 11.7-10.9 11.7h-4.3c-.8 0-1.3-.5-1.3-1.4zm2.5-.9h2.8c6.1 0 8.6-4.4 8.6-9.4 0-5.1-2.5-9.5-8.6-9.5h-2.8v18.9zM1348.4 334.7c0-6.9 3.2-12.3 9.2-12.3s9.2 5.4 9.2 12.3-3.2 12.3-9.2 12.3-9.2-5.3-9.2-12.3zm15.9 0c0-5.7-2.4-9.9-6.7-9.9s-6.7 4.2-6.7 9.9 2.4 10 6.7 10 6.7-4.3 6.7-10zM1389.5 346.1l-8.7-11.5-3.4 3.5v7.6c0 .9-.5 1.4-1.3 1.4-.7 0-1.2-.5-1.2-1.4v-21.8c0-.9.5-1.4 1.2-1.4s1.3.5 1.3 1.4V335l10.9-11.6c.5-.6.9-.9 1.6-.9.6 0 1.2.4 1.2 1.2 0 .5-.3.9-.7 1.4l-7.9 7.9 9.2 11.8c.4.5.5.8.5 1.3 0 .6-.5 1.2-1.3 1.2-.6-.3-.9-.5-1.4-1.2zM1399 345.6v-14.2c0-5.5 2.5-9 7.9-9s7.9 3.5 7.9 9v14.2c0 .9-.5 1.4-1.3 1.4-.7 0-1.2-.5-1.2-1.4v-7.2h-10.9v7.2c0 .9-.5 1.4-1.2 1.4s-1.2-.5-1.2-1.4zm7.9-20.9c-3.7 0-5.4 2.3-5.4 6.7v4.7h10.9v-4.7c0-4.4-1.7-6.7-5.5-6.7zM1447.1 334.7c0-6.9 3.2-12.3 9.2-12.3s9.2 5.4 9.2 12.3-3.2 12.3-9.2 12.3-9.2-5.3-9.2-12.3zm15.9 0c0-5.7-2.4-9.9-6.7-9.9s-6.7 4.2-6.7 9.9 2.4 10 6.7 10 6.7-4.3 6.7-10zM1474.9 323h5.8c5 0 9.3 1.9 9.3 7.6 0 5.5-4.3 7.6-9.3 7.6h-4.6v7.5c0 .9-.5 1.4-1.3 1.4s-1.2-.5-1.2-1.4v-21.3c0-.9.5-1.4 1.3-1.4zm1.2 12.9h4.6c3.7 0 6.6-1.6 6.6-5.3 0-3.8-2.9-5.3-6.6-5.3h-4.6v10.6zM1496.9 325.4c-.9 0-1.4-.5-1.4-1.2s.5-1.2 1.4-1.2h17.5c.9 0 1.4.5 1.4 1.2s-.5 1.2-1.4 1.2c-1.5 0-5.9-.1-7.5-.2v20.4c0 .9-.5 1.4-1.3 1.4s-1.2-.5-1.2-1.4v-20.4c-1.6.1-6 .2-7.5.2zM1523.3 325.4c-.9 0-1.4-.5-1.4-1.2s.5-1.2 1.4-1.2h13.8c.9 0 1.4.5 1.4 1.2s-.5 1.2-1.4 1.2c-1.2 0-4.2-.1-5.6-.2v19c1.4 0 4.4-.2 5.6-.2.9 0 1.4.5 1.4 1.2s-.5 1.2-1.4 1.2h-13.8c-.9 0-1.4-.5-1.4-1.2s.5-1.2 1.4-1.2c1.2 0 4.2.1 5.6.2v-19c-1.3.1-4.3.2-5.6.2zM1555.6 344.7c2.3 0 4.2-.9 5.8-2.8.4-.5.7-.7 1.3-.7.6 0 1.2.5 1.2 1.1 0 .5-.2.8-.5 1.2a10.3 10.3 0 0 1-7.9 3.5c-6.1 0-9.8-4.9-9.8-12.3s3.7-12.3 9.8-12.3c2.8 0 5.7 1 7.9 3.5.3.3.5.6.5 1.2 0 .7-.6 1.1-1.2 1.1s-.9-.2-1.3-.7a7.24 7.24 0 0 0-5.8-2.8c-4.3 0-7.2 3.5-7.2 9.9s2.8 10.1 7.2 10.1zM1572.2 345.1c-1.1-.7-1.6-1.2-1.6-1.9 0-.6.5-1.1 1.2-1.1.6 0 1 .3 2 1 1.6 1.1 3.5 1.7 5.7 1.7 3.3 0 6.5-1.5 6.5-4.5 0-2.5-2.5-3.7-6.5-4.6-5.4-1.3-8.4-3-8.4-7 0-3.7 3.6-6.1 8.1-6.1 2.8 0 5.6.8 7.5 2.3.5.4.8.7.8 1.3 0 .7-.5 1.2-1.2 1.2-.5 0-.9-.2-1.5-.6a9.9 9.9 0 0 0-5.7-1.8c-3.5 0-5.4 1.6-5.4 3.9 0 2.7 2.8 3.6 6.2 4.5 5.3 1.4 8.7 2.8 8.7 7 0 4.4-3.9 6.9-9 6.9-3.3-.3-5.8-1.2-7.4-2.2z"/></g><path class="st0" d="M255.7 81.3c-137 0-248.1 111.1-248.1 248.1v.2c0 137 111.1 248.1 248.1 248.1s248.1-111.1 248.1-248.1V81.3H255.7zm0 434.2c-102.7 0-186-83.3-186-186s83.3-186 186-186 186 83.3 186 186-83.3 186-186 186z"/><path d="M255.7 580.3c-67 0-129.9-26.1-177.2-73.4S5 396.6 5 329.6v-.2c0-66.9 26.1-129.9 73.4-177.2a249.1 249.1 0 0 1 177.2-73.4h250.6v250.9c0 67-26.1 129.9-73.4 177.2s-110.2 73.4-177.1 73.4zm0-496.5c-65.6 0-127.3 25.6-173.7 71.9-46.4 46.4-72 108.1-72 173.7v.2c0 65.6 25.6 127.3 71.9 173.7 46.4 46.4 108.1 71.9 173.7 71.9s127.3-25.6 173.7-71.9c46.4-46.4 71.9-108.1 71.9-173.7V83.8H255.7zm0 434.2c-104 0-188.5-84.6-188.5-188.5S151.7 141 255.7 141s188.5 84.6 188.5 188.5S359.6 518 255.7 518zm0-372c-101.2 0-183.5 82.3-183.5 183.5S154.5 513 255.7 513s183.5-82.3 183.5-183.5S356.9 146 255.7 146z"/><path d="M253.2 83.4h5v45.9h-5zM253.2 530h5v45.9h-5z"/><path class="st5" d="M255.7 124.9c-113 0-204.6 91.6-204.6 204.6s91.6 204.6 204.6 204.6 204.6-91.6 204.6-204.6c-.1-113-91.7-204.6-204.6-204.6zm-82.6 231.7v52.9c0 10.8 8.8 19.7 19.7 19.7s19.7-8.8 19.7-19.7c0-1.4 1.1-2.5 2.5-2.5s2.5 1.1 2.5 2.5c0 13.6-11.1 24.7-24.7 24.7s-24.7-11.1-24.7-24.7v-52.9c0-10.9-8.8-19.7-19.7-19.7-1.4 0-2.5-1.1-2.5-2.5s1.1-2.6 2.5-2.6c10.8 0 19.7-8.8 19.7-19.7v-53c0-13.6 11.1-24.7 24.7-24.7s24.7 11.1 24.7 24.7c0 1.4-1.1 2.5-2.5 2.5s-2.5-1.1-2.5-2.5c0-10.8-8.8-19.7-19.7-19.7s-19.7 8.8-19.7 19.7v53.4c-.2 9.6-5.8 17.8-13.9 21.8 8.2 4.1 13.9 12.6 13.9 22.3zm76.6-15.2c-5.7 0-10.3-4.6-10.3-10.3s4.6-10.3 10.3-10.3 10.3 4.6 10.3 10.3c0 5.7-4.6 10.3-10.3 10.3zm43.6 0c-5.7 0-10.3-4.6-10.3-10.3s4.6-10.3 10.3-10.3 10.3 4.6 10.3 10.3c0 5.7-4.6 10.3-10.3 10.3zm43.6 0c-5.7 0-10.3-4.6-10.3-10.3s4.6-10.3 10.3-10.3 10.3 4.6 10.3 10.3c.1 5.7-4.6 10.3-10.3 10.3z"/><g><path class="st0" d="M899.1 81.3H651v248.4c0 137 111.1 248.1 248.1 248.1s248.1-111.1 248.1-248.1v-.2c.1-137.1-111-248.2-248.1-248.2zm.8 442.8c-108.1 0-195.7-87.6-195.7-195.7s87.6-195.7 195.7-195.7 195.7 87.6 195.7 195.7-87.6 195.7-195.7 195.7z"/><path d="M899.1 580.3c-67 0-129.9-26.1-177.2-73.4s-73.4-110.3-73.4-177.2V78.8h250.6c67 0 129.9 26.1 177.2 73.4a249.1 249.1 0 0 1 73.4 177.2v.2c0 67-26.1 129.9-73.4 177.2-47.3 47.4-110.2 73.5-177.2 73.5zM653.5 83.8v245.9c0 65.6 25.6 127.3 71.9 173.7 46.4 46.4 108.1 71.9 173.7 71.9s127.3-25.6 173.7-71.9c46.4-46.4 71.9-108.1 71.9-173.7v-.2c0-65.6-25.6-127.3-71.9-173.7-46.4-46.4-108.1-71.9-173.7-71.9l-245.6-.1zm246.4 442.8c-109.3 0-198.2-88.9-198.2-198.2s88.9-198.2 198.2-198.2 198.2 88.9 198.2 198.2-88.9 198.2-198.2 198.2zm0-391.3c-106.5 0-193.2 86.7-193.2 193.2s86.7 193.2 193.2 193.2c106.5 0 193.2-86.7 193.2-193.2s-86.6-193.2-193.2-193.2z"/><path d="M896.5 80.4h5v49.3h-5zM896.5 527.6h5v49.3h-5z"/><g><path class="st5" d="M899.1 124.9c-113 0-204.6 91.6-204.6 204.6s91.6 204.6 204.6 204.6 204.6-91.6 204.6-204.6-91.6-204.6-204.6-204.6zm-126 216.5c-5.7 0-10.3-4.6-10.3-10.3s4.6-10.3 10.3-10.3 10.3 4.6 10.3 10.3c0 5.7-4.6 10.3-10.3 10.3zm43.6 0c-5.7 0-10.3-4.6-10.3-10.3s4.6-10.3 10.3-10.3 10.3 4.6 10.3 10.3-4.6 10.3-10.3 10.3zm33.3-10.3c0-5.7 4.6-10.3 10.3-10.3s10.3 4.6 10.3 10.3-4.6 10.3-10.3 10.3-10.3-4.6-10.3-10.3zm80.4 5.8c-10.8 0-19.7 8.8-19.7 19.7v53c0 13.6-11.1 24.7-24.7 24.7s-24.7-11.1-24.7-24.7c0-1.4 1.1-2.5 2.5-2.5s2.5 1.1 2.5 2.5c0 10.8 8.8 19.7 19.7 19.7s19.7-8.8 19.7-19.7v-53.4c.2-9.6 5.8-17.8 13.9-21.8-8.3-4-14-12.5-14-22.2v-52.9c0-10.8-8.8-19.7-19.7-19.7s-19.7 8.8-19.7 19.7c0 1.4-1.1 2.5-2.5 2.5s-2.5-1.1-2.5-2.5c0-13.6 11.1-24.7 24.7-24.7s24.7 11.1 24.7 24.7v52.9c0 10.9 8.8 19.7 19.7 19.7 1.4 0 2.5 1.1 2.5 2.5s-1 2.5-2.4 2.5zm32.1 36.4c-3.7 35.6-11.3 58.9-11.3 59.2-.3 1.1-1.3 1.7-2.4 1.7-.3 0-.5 0-.8-.1-1.3-.4-2-1.8-1.6-3.2.3-.9 29.3-92 0-193.2-.4-1.3.4-2.7 1.7-3.1 1.3-.4 2.7.4 3.1 1.7 15.5 53.7 14.7 104.2 11.3 137zm42.1 60.8c-.2.1-.5.1-.7.1-1.1 0-2.1-.7-2.4-1.8-15.6-53.7-14.7-104.1-11.3-137 3.7-35.6 11.3-58.9 11.3-59.2.4-1.3 1.8-2 3.2-1.6 1.3.4 2 1.8 1.6 3.2-.3.9-29.3 92 0 193.2.4 1.3-.4 2.7-1.7 3.1zm29.9-60.8c-3.7 35.6-11.3 58.9-11.3 59.2-.3 1.1-1.3 1.7-2.4 1.7-.3 0-.5 0-.8-.1-1.3-.4-2-1.8-1.6-3.2.3-.9 29.3-92 0-193.2-.4-1.3.4-2.7 1.7-3.1 1.3-.4 2.7.4 3.1 1.7 15.5 53.7 14.7 104.2 11.3 137z"/></g></g><g><path d="M651 77.3v3.9h248.1A77.2 77.2 0 0 0 822.4 4H584.1A73.62 73.62 0 0 1 651 77.3z"/><path d="M901.6 83.7H648.5v-6.4c0-17.9-6.6-34.9-18.7-48.1a70.73 70.73 0 0 0-45.9-22.7l.2-5h240.8v.1c42.5 1.6 76.7 36.8 76.7 79.6v2.5zm-248.1-5h243.1c-1.3-39.8-34.1-71.9-74.2-72.2h-217a77.3 77.3 0 0 1 28.1 19.3c12.9 14.1 20 32.3 20 51.4v1.5z"/></g><g><path class="st5" d="M578.2 138a58 58 0 0 1-57.9-57.9c0-31.9 26-57.9 57.9-57.9s57.9 26 57.9 57.9a58 58 0 0 1-57.9 57.9zm0-110.8c-29.2 0-52.9 23.7-52.9 52.9S549 133 578.2 133s52.9-23.7 52.9-52.9c0-29.1-23.7-52.9-52.9-52.9z"/></g><g><circle cx="578.2" cy="80.1" r="36.9"/></g><g><path class="st5" d="M1622 1047.9c-59.9 0-121.9-26.4-161.8-69.9-24.1-26.3-44.1-60-59.4-100.2-2-5.2-3.8-10.6-5.5-16-5 1.2-10 2.3-14.9 3.5-34.2 7.8-69.3 16.7-103.2 25.4-93.7 23.9-190.5 48.6-289.6 54.5-76.5 4.5-175.9 6.7-267.1-16.6-47.2-12.1-89.3-30.4-125-54.4-40.5-27.1-74.2-62.4-100.2-104.8-34-55.4-51.5-119-51.9-189.1h68c.3 57.5 14.4 108.9 41.9 153.6 40 65.2 100.3 107.4 184.1 128.9 82 21 174.6 18.9 246.2 14.6 92.6-5.5 186.2-29.4 276.8-52.5 34.3-8.8 69.9-17.8 104.9-25.8 5.9-1.3 11.9-2.7 18.1-4.2-1.4-23.3-.4-47.7 3.1-73.2 6.1-44.8 19.2-92.2 40.3-145 2.3-5.8 4.7-11.7 7.1-17.6 18.8-46.4 38.3-95.3 38.2-139.8l68-.1c.1 57.9-22.9 115.5-43.2 165.5-2.4 5.8-4.7 11.6-6.9 17.2-18.7 46.9-30.8 90.3-36.1 128.9-2.3 16.8-3.3 32.9-3 48.3 78.1-17.2 165.1-29.6 236.7-.8 42.8 17.2 76.1 51.5 89.1 91.9 11.3 35.1 6.4 72-13.7 103.9-26.8 42.5-70.6 68.5-123.2 73.2-5.9.4-11.9.6-17.8.6zm-160.3-201.7c.8 2.5 1.7 5 2.6 7.4 12.3 32.1 27.7 58.5 46 78.4 14.1 15.4 34 28.5 55.9 37 22.5 8.7 45.8 12.3 67.5 10.4 21.9-2 52.2-10.8 71.8-41.8 9.5-15 11.7-30.7 6.5-46.7-6.8-21-25.9-40.1-49.8-49.7-55.1-22.1-131.1-10.4-200.5 5z"/></g><g><path d="M1131.5 414h632.9v5h-632.9z"/></g><g><path class="st0" d="M623.1 414.7c0 25.4-29.6 69.9-45.9 69.9-14.6 0-45.9-44.6-45.9-70s20.6-45.9 45.9-45.9c25.4.1 45.9 20.6 45.9 46z"/><path class="st0" d="M537 517.4c-5.3 0-8.7-1.3-8.9-1.3-1.3-.5-1.9-1.9-1.5-3.2.5-1.3 1.9-1.9 3.2-1.5 1.2.4 27.8 9.5 45.5-33.8.5-1.3 2-1.9 3.3-1.4 1.3.5 1.9 2 1.4 3.3-5.6 13.7-15.8 31.2-33 36.4-3.8 1.2-7.2 1.5-10 1.5z"/><path class="st0" d="M618.7 517.4c-2.9 0-6.2-.4-9.9-1.5-17.1-5.3-27.4-22.7-33-36.4-.5-1.3.1-2.7 1.4-3.3 1.3-.5 2.7.1 3.3 1.4 17.7 43.4 44.3 34.2 45.5 33.8 1.3-.5 2.7.2 3.2 1.5s-.2 2.7-1.5 3.2c-.3.1-3.8 1.3-9 1.3z"/></g><path class="st2" d="M907.1 577.7H263.7"/></svg>