<svg xmlns="http://www.w3.org/2000/svg" viewBox="0 0 1080 1080" xml:space="preserve"><path fill="#FFD829" d="M346 329.37c-10.59 15.68-47.53 30.9-57.61 24.09-9.03-6.1-9.78-46.76.81-62.45a34.27 34.27 0 1 1 56.8 38.36z"/><path fill="#FFD829" d="M264.71 361.49a27.8 27.8 0 0 1-8.18-1.2c-7.88-2.4-11.65-7.6-11.8-7.82a2 2 0 0 1 3.25-2.32c.54.74 13.15 17.4 42.05-1.95a2 2 0 0 1 2.23 3.33c-7.27 4.86-17.32 9.96-27.55 9.96z"/><path fill="#FFD829" d="M306.85 394.15c-.16 0-.31-.01-.47-.05-.25-.06-24.87-6.42-16.89-44.44a2 2 0 1 1 3.91.82c-7.15 34.07 13.06 39.52 13.92 39.73a2 2 0 0 1-.47 3.94zM668.37 423l332.29 213.54a156.22 156.22 0 0 0-66.7-167.83l-1.67-1.08-309.6-198.96c43.3 39.07 60.4 99.1 45.68 154.33z"/><path d="m937.78 466.44.02-.03-334.87-215.2-1.05 1.63.7.45c1.22.78 2.43 1.59 3.62 2.4l328.85 211.33c58.54 38.13 83.61 108.5 66.87 172.7l-334.1-214.7-.59 2 335.93 215.88.7-2.67a160.21 160.21 0 0 0-66.08-173.79z"/><path d="m932.3 467.63 1.65 1.08a156.22 156.22 0 0 1 66.7 167.83L668.38 423l-.55 2.02 334.1 214.7c16.74-64.2-8.33-134.57-66.88-172.7L606.2 255.69c5.86 4 11.36 8.34 16.5 12.98l309.6 198.95z"/><path fill="#FFD829" d="M453.57 531.86 764 731.36l.83.51a155.32 155.32 0 0 0 90.87 24.17 156.14 156.14 0 0 0 84.2-29.22L607.73 513.37c-43.68 32.93-102.7 40.75-154.17 18.5z"/><path d="M943.43 726.71c-51.18 38.22-122.63 43.03-179.67 6.85v.01L434.9 522.25c-1.23-.75-2.46-1.51-3.68-2.3l-.7-.45-1.05 1.63 333.2 214.13 1.74 1.1.01-.02a159.3 159.3 0 0 0 91.46 23.7 160.13 160.13 0 0 0 88.74-31.73l2.31-1.72L611.1 510.77l-1.67 1.3 334 214.64z"/><path d="M939.9 726.82a156.14 156.14 0 0 1-84.2 29.22 155.32 155.32 0 0 1-90.87-24.17l-.83-.52-310.43-199.49a155.24 155.24 0 0 1-18.66-9.61l328.84 211.32c57.05 36.17 128.5 31.36 179.68-6.86l-334-214.64-1.69 1.3L939.9 726.82z"/><path d="m464.89 170.91 4.15-6.46c7.07-11 9.43-24.1 6.65-36.9a48.66 48.66 0 0 0-21.38-30.79 49.04 49.04 0 0 0-67.69 14.73l-1.37 2.14a2 2 0 1 0 3.37 2.16l1.37-2.14a45.03 45.03 0 0 1 62.16-13.52 45.03 45.03 0 0 1 13.52 62.16l-4.42 6.87a2 2 0 0 0-.3.9l3.94.85zM434.2 520.74a2 2 0 0 1-3.07 1.5L85.53 300.15a2 2 0 0 1 2.17-3.36l342.8 220.3 3.7 3.64zm592.83 70.95v-.01l-23.28-14.96a157.79 157.79 0 0 1-23.58 107.85 157.8 157.8 0 0 1-88.31 66.26l23.28 14.97v-.01c48.02 30.45 111.69 16.45 142.47-31.45 30.79-47.9 17.07-111.63-30.58-142.65zm-137.08 54.22a14.47 14.47 0 0 1-19.94 4.34l-150.15-96.5a14.47 14.47 0 0 1-4.34-19.93l14.42-22.44a14.47 14.47 0 0 1 19.94-4.34l150.15 96.49a14.47 14.47 0 0 1 4.34 19.94l-14.42 22.44z"/><path d="M879.21 664.14c-3.9 0-7.7-1.1-11.04-3.25L710.63 559.65a20.4 20.4 0 0 1-8.95-12.93 20.41 20.41 0 0 1 2.77-15.48L723 502.38a20.59 20.59 0 0 1 28.41-6.19l157.54 101.24a20.59 20.59 0 0 1 6.18 28.42L896.6 654.7a20.42 20.42 0 0 1-12.94 8.95c-1.47.33-2.96.49-4.44.49zm-138.89-167.2c-5.45 0-10.8 2.68-13.96 7.6l-18.54 28.86c-2.39 3.7-3.18 8.13-2.23 12.47s3.5 8.04 7.2 10.42l157.54 101.24a16.43 16.43 0 0 0 12.47 2.23c4.34-.95 8.04-3.5 10.42-7.21l1.68 1.08-1.68-1.08 18.55-28.86a16.58 16.58 0 0 0-4.98-22.89L749.25 499.56a16.46 16.46 0 0 0-8.93-2.63z"/><path d="M744.1 525.93a37.31 37.31 0 0 1 1.91 1.03 74.65 74.65 0 0 1 2.56 1.53 10 10 0 0 1 3.01 2.78c.65.97 1 1.98 1.08 3.01.07 1.04-.1 2.1-.5 3.18a17.44 17.44 0 0 1-3.9 6.08 8.18 8.18 0 0 1-2.79 1.88 6.83 6.83 0 0 1-3.4.4 9.9 9.9 0 0 1-4.1-1.65 32.89 32.89 0 0 1-1.99-1.39l-1.06-.77c-.34-.25-.6-.45-.77-.6l9.95-15.48zm2.85 5.33a11.64 11.64 0 0 0-1.47-.82l-6.66 10.35c.05.05.13.12.25.2l.35.26.35.26c.1.08.2.14.28.19.85.55 1.63.83 2.35.84.7 0 1.35-.16 1.93-.52.58-.35 1.12-.83 1.6-1.43s.95-1.23 1.37-1.87c.36-.56.7-1.17 1.02-1.81.32-.65.52-1.3.6-1.95s-.02-1.3-.3-1.94a4.23 4.23 0 0 0-1.67-1.76zm5.12 10.71c.8-1.25 1.64-2.3 2.52-3.15a8.56 8.56 0 0 1 2.7-1.83 5.93 5.93 0 0 1 2.84-.41c.97.1 1.94.47 2.93 1.1a6.67 6.67 0 0 1 2.31 2.33c.48.87.73 1.8.74 2.8s-.2 2.08-.62 3.2-1 2.27-1.76 3.45c-1.62 2.52-3.37 4.18-5.24 4.98-1.88.8-3.8.57-5.76-.69a6.75 6.75 0 0 1-2.32-2.33 5.82 5.82 0 0 1-.74-2.82c-.01-1 .2-2.07.62-3.19a18.77 18.77 0 0 1 1.78-3.44zm3.18 2.04c-.49.75-.9 1.48-1.25 2.16-.35.7-.59 1.34-.71 1.93-.13.6-.1 1.15.06 1.65.17.5.54.94 1.11 1.3.52.34 1.01.5 1.49.51.47 0 .96-.15 1.45-.46.48-.3.99-.77 1.5-1.39s1.06-1.38 1.64-2.3c.47-.71.88-1.41 1.24-2.1.37-.68.62-1.32.74-1.92s.11-1.17-.06-1.68a2.58 2.58 0 0 0-1.13-1.34c-1.03-.66-2.02-.66-2.97 0-.94.66-1.98 1.88-3.11 3.64zm14.1 10.87-1.57-1-4.14 6.44-3.02-1.94 9.93-15.45 3.02 1.94-4.06 6.31 1.57 1 7.59-4.03 3.44 2.2-9.14 4.68-.24 11.14-3.73-2.4.35-8.89zm14.48 13.58-4.61-2.96-3.26 2.74-3.03-1.94 14.92-12.25 3.03 1.94-4.97 18.65-3.18-2.05 1.1-4.13zm-2.35-4.94 3.31 2.13 1.76-6.17-.2-.13-4.87 4.17zm23.57 12.5c.8-1.25 1.65-2.3 2.52-3.15a8.53 8.53 0 0 1 2.71-1.83 5.8 5.8 0 0 1 2.84-.41c.96.1 1.94.47 2.92 1.1a6.65 6.65 0 0 1 2.31 2.33c.49.87.73 1.8.74 2.8s-.2 2.08-.62 3.2-1 2.27-1.76 3.45c-1.62 2.52-3.37 4.18-5.24 4.98-1.88.8-3.8.57-5.75-.7a6.73 6.73 0 0 1-2.33-2.32c-.48-.88-.73-1.82-.74-2.82s.2-2.07.63-3.19a18.75 18.75 0 0 1 1.77-3.44zm3.18 2.04c-.48.75-.9 1.47-1.25 2.16a7.72 7.72 0 0 0-.7 1.93c-.13.6-.11 1.15.06 1.65.16.5.53.94 1.1 1.3.52.34 1.02.5 1.5.51.47 0 .95-.15 1.44-.46.49-.3.99-.77 1.5-1.39s1.06-1.38 1.65-2.3c.46-.72.87-1.41 1.24-2.1s.61-1.32.74-1.92c.13-.6.1-1.17-.06-1.68a2.57 2.57 0 0 0-1.14-1.34c-1.03-.66-2.02-.66-2.96 0s-1.98 1.88-3.12 3.64zm15.75-.58a30.17 30.17 0 0 1 4.5 2.36c.77.5 1.5 1.05 2.19 1.68a6.5 6.5 0 0 1 1.6 2.09c.38.77.55 1.62.5 2.54-.03.92-.4 1.91-1.09 2.99a6.24 6.24 0 0 1-2.06 2.09c-.77.45-1.57.72-2.41.79a6.5 6.5 0 0 1-2.52-.28 9.8 9.8 0 0 1-2.41-1.12l-.35-.23a14.18 14.18 0 0 1-1.34-.98l-3.42 5.32-3.02-1.95 9.83-15.3zm3.07 5.13a12.36 12.36 0 0 0-1.55-.84l-3.22 5.01.24.21a5.8 5.8 0 0 0 .73.54l.28.17c.4.26.81.48 1.25.65.44.18.87.27 1.31.27s.86-.12 1.27-.35c.41-.24.8-.65 1.17-1.22a2.6 2.6 0 0 0 .3-2.58c-.16-.38-.4-.72-.72-1.03s-.68-.59-1.06-.83zm2.9 16.89 2.52 1.62 6.8-10.6-2.11-1.36-1.72 2.67-2.43-1.56 3.28-5.1 12.1 7.78-3.28 5.1-2.43-1.56 1.72-2.67-2.1-1.35-6.81 10.6 2.5 1.6-1.57 2.43-8.03-5.17 1.56-2.42zm12 7.34 3.9 2.51 6.48-10.06-3.9-2.51 1.72-2.7 10.86 6.98-1.73 2.7-3.93-2.53-6.47 10.07 3.93 2.53-1.73 2.69-10.86-6.98 1.73-2.7zm23.46 11.56 2.43 1.56-2.84 4.41a6.43 6.43 0 0 1-2.31-.36 10.45 10.45 0 0 1-4.92-3.36 7.08 7.08 0 0 1-1.41-2.88 8.16 8.16 0 0 1 .01-3.51 12.1 12.1 0 0 1 1.8-4.1 11.28 11.28 0 0 1 3.12-3.38 8.3 8.3 0 0 1 3.32-1.36 7.63 7.63 0 0 1 3.23.17 11.56 11.56 0 0 1 4.92 2.9c.52.54.91 1.03 1.18 1.48l-2.95 4.59-2.42-1.56 1.61-2.52c-.4-.36-.85-.7-1.34-1.02a4.75 4.75 0 0 0-1.8-.7c-.64-.11-1.28-.06-1.93.15s-1.3.57-1.93 1.1-1.25 1.27-1.84 2.19c-.5.79-.88 1.58-1.1 2.35a5.89 5.89 0 0 0-.25 2.23 4.47 4.47 0 0 0 2.2 3.5c.5.32 1 .58 1.5.78l1.72-2.66zm4.79 3.26 2.43 1.56-1.4 2.19.1.13a7.73 7.73 0 0 0 2.08 2.05c.83.53 1.57.78 2.24.74a1.86 1.86 0 0 0 1.55-.9c.32-.5.39-1.02.21-1.57a6.8 6.8 0 0 0-.86-1.71c-.4-.6-.86-1.21-1.36-1.87a9.93 9.93 0 0 1-1.23-2.06 5.94 5.94 0 0 1-.52-2.25 4.3 4.3 0 0 1 .8-2.48 5.04 5.04 0 0 1 3.55-2.3c.72-.1 1.47-.06 2.26.14.8.2 1.58.55 2.38 1.06.9.58 1.73 1.23 2.5 1.95a8.55 8.55 0 0 1 1.64 1.99l-2.88 4.48-2.43-1.56 1.58-2.45a3.44 3.44 0 0 0-4.03-2.44c-.6.02-1.03.27-1.34.74-.3.49-.38 1-.2 1.55.18.56.46 1.13.85 1.74.4.6.84 1.24 1.33 1.91.5.67.9 1.37 1.22 2.08.32.72.5 1.47.52 2.25.02.79-.23 1.6-.76 2.42a5.02 5.02 0 0 1-3.98 2.51 6.47 6.47 0 0 1-2.46-.3 10.43 10.43 0 0 1-4-2.34 12.39 12.39 0 0 1-2.42-3.15l2.63-4.1z" fill="#FFF"/><path fill="#FFD829" d="M250.33 26.92C178.56-19.2 82.99 1.59 36.87 73.36l-4.35 6.77C-13.6 151.89 7.2 247.46 78.96 293.58l6.66 4.28c71.77 46.12 167.34 25.33 213.46-46.44l87.86-136.71-136.61-87.8zm-80.56 137.8a6.6 6.6 0 1 1-11.1-7.13 6.6 6.6 0 0 1 11.1 7.13zm2.29-53.05a2 2 0 0 1-3.37-2.16 12.06 12.06 0 0 0 1.65-9.14 12.06 12.06 0 0 0-5.3-7.64 12.06 12.06 0 0 0-9.14-1.65 12.06 12.06 0 0 0-7.64 5.3l-18.28 28.45-.19.25a16.03 16.03 0 0 1-14.56 7.12 16.19 16.19 0 0 1-.59 16.5l-18.27 28.42a12.06 12.06 0 0 0-1.65 9.15 12.16 12.16 0 0 0 22.08 3.98 2 2 0 0 1 3.37 2.17 16.15 16.15 0 0 1-27.16-17.46l18.27-28.42a12.18 12.18 0 0 0-3.66-16.82 2 2 0 0 1-.6-2.77 2.05 2.05 0 0 1 2.8-.64 12.06 12.06 0 0 0 9.14 1.65 12.06 12.06 0 0 0 7.81-5.53l18.13-28.21a16.03 16.03 0 0 1 10.15-7.05 16 16 0 0 1 12.16 2.2 16.03 16.03 0 0 1 7.04 10.14c.92 4.22.14 8.54-2.19 12.16zm21.14 68.11a6.6 6.6 0 1 1-11.1-7.13 6.6 6.6 0 0 1 11.1 7.13zm23.44 15.06a6.6 6.6 0 1 1-11.1-7.13 6.6 6.6 0 0 1 11.1 7.13z"/><path d="M168.88 324.34a155.5 155.5 0 0 1-84.34-24.8l-6.66-4.28a155.44 155.44 0 0 1-68.3-98.36A155.44 155.44 0 0 1 30.84 79.05l4.35-6.77C81.83-.31 178.83-21.41 251.4 25.24l138.3 88.86-88.94 138.4c-29.86 46.47-80.36 71.84-131.88 71.84zm-1.82-319.9c-50.2 0-99.4 24.72-128.5 70L34.2 81.2c-22 34.27-29.37 75.05-20.7 114.85s32.3 73.83 66.55 95.85l6.66 4.28a151.48 151.48 0 0 0 114.84 20.72 151.47 151.47 0 0 0 95.86-66.56l86.77-135.03-134.93-86.7a151.59 151.59 0 0 0-82.18-24.17z"/><path d="m232.24 66.08 22.35-34.77-3.37-2.16L229 63.72zm-129.87 194.7-21.76 33.86 3.36 2.16 21.67-33.71z"/><path fill="none" d="M167.2 89.36a16.02 16.02 0 0 0-12.15-2.19 16.03 16.03 0 0 0-10.15 7.05l-18.13 28.2a12.06 12.06 0 0 1-7.8 5.53c-3.17.7-6.42.11-9.15-1.64a2.05 2.05 0 0 0-3.07 2.15 2 2 0 0 0 .87 1.26 12.18 12.18 0 0 1 3.66 16.82L93 174.96a16.04 16.04 0 0 0-2.2 12.16 16.04 16.04 0 0 0 7.05 10.15 16.15 16.15 0 0 0 22.3-4.85 2 2 0 1 0-3.35-2.17 12.16 12.16 0 0 1-22.09-3.98c-.68-3.17-.1-6.42 1.65-9.15l18.27-28.42a16.19 16.19 0 0 0 .59-16.5 16.16 16.16 0 0 0 14.56-7.13c.07-.07.13-.15.19-.24l18.28-28.45a12.07 12.07 0 0 1 7.64-5.3c3.16-.69 6.41-.1 9.14 1.65a12.07 12.07 0 0 1 5.3 7.63c.7 3.17.1 6.42-1.65 9.15a2 2 0 1 0 3.37 2.16 16.04 16.04 0 0 0 2.2-12.16 16.03 16.03 0 0 0-7.05-10.15zm.58 66.24a6.6 6.6 0 1 0-7.13 11.1 6.6 6.6 0 0 0 7.13-11.1zm23.44 15.06a6.6 6.6 0 1 0-7.14 11.1 6.6 6.6 0 0 0 7.14-11.1zm23.44 15.06a6.6 6.6 0 1 0-7.14 11.1 6.6 6.6 0 0 0 7.13-11.1z"/><path fill="#FFF" d="M238.58 52.52C177.9 13.52 97.1 31.1 58.1 91.78S36.68 233.27 97.36 272.27c60.69 39 141.5 21.41 180.49-39.27 39-60.68 21.42-141.49-39.27-180.48zm-68.81 112.2a6.6 6.6 0 1 1-11.1-7.13 6.6 6.6 0 0 1 11.1 7.13zm2.29-53.05a2 2 0 0 1-3.37-2.16 12.06 12.06 0 0 0 1.65-9.14 12.06 12.06 0 0 0-5.3-7.64 12.06 12.06 0 0 0-9.14-1.65 12.06 12.06 0 0 0-7.64 5.3l-18.28 28.45-.19.25a16.03 16.03 0 0 1-14.56 7.12 16.19 16.19 0 0 1-.59 16.5l-18.27 28.42a12.06 12.06 0 0 0-1.65 9.15 12.16 12.16 0 0 0 22.08 3.98 2 2 0 0 1 3.37 2.17 16.15 16.15 0 0 1-27.16-17.46l18.27-28.42a12.18 12.18 0 0 0-3.66-16.82 2 2 0 0 1-.6-2.77 2.05 2.05 0 0 1 2.8-.64 12.06 12.06 0 0 0 9.14 1.65 12.06 12.06 0 0 0 7.81-5.53l18.13-28.21a16.03 16.03 0 0 1 10.15-7.05 16 16 0 0 1 12.16 2.2 16.03 16.03 0 0 1 7.04 10.14c.92 4.22.14 8.54-2.19 12.16zm21.14 68.11a6.6 6.6 0 1 1-11.1-7.13 6.6 6.6 0 0 1 11.1 7.13zm23.44 15.06a6.6 6.6 0 1 1-11.1-7.13 6.6 6.6 0 0 1 11.1 7.13z"/><path fill="#FFD829" d="m602.58 253.29-136.6-87.79-87.87 136.72C332 373.98 352.8 469.55 424.56 515.67l6.67 4.28c71.76 46.12 167.33 25.33 213.45-46.44l4.35-6.77c46.12-71.76 25.33-167.33-46.44-213.45zM486.65 368.36a6.6 6.6 0 1 1 11.1 7.13 6.6 6.6 0 0 1-11.1-7.13zm-35.77-22.99a6.6 6.6 0 1 1-11.1-7.13 6.6 6.6 0 0 1 11.1 7.13zm12.33 7.93a6.6 6.6 0 1 1 11.1 7.14 6.6 6.6 0 0 1-11.1-7.14zm15.7 85.8c-3 0-6.01-.82-8.7-2.56a16.04 16.04 0 0 1-7.05-10.14 16.04 16.04 0 0 1 2.19-12.16 2 2 0 1 1 3.36 2.16 12.06 12.06 0 0 0-1.65 9.15 12.16 12.16 0 0 0 22.08 3.98l18.29-28.45.18-.24a16.18 16.18 0 0 1 14.58-7.12 16.19 16.19 0 0 1 .58-16.5l18.27-28.43a12.16 12.16 0 0 0-3.66-16.78 12.16 12.16 0 0 0-16.78 3.65 2 2 0 0 1-3.36-2.16 16.17 16.17 0 0 1 29.35 5.29c.92 4.21.14 8.53-2.19 12.16l-18.27 28.43a12.18 12.18 0 0 0 3.66 16.81 2 2 0 0 1 .6 2.77 2.05 2.05 0 0 1-2.8.64 12.16 12.16 0 0 0-16.95 3.88l-18.13 28.21a16.15 16.15 0 0 1-13.6 7.41zm27.3 18.95a2 2 0 0 1-2.81-.29 2 2 0 0 1 .28-2.81c.48-.39 47.42-39.23 66.53-103.56a2 2 0 1 1 3.83 1.14c-19.46 65.56-67.35 105.13-67.83 105.52zm28.36 19.49a2 2 0 0 1-1.92-2.57c19.48-65.56 67.36-105.13 67.84-105.52a2 2 0 0 1 2.53 3.1c-.48.38-47.42 39.22-66.53 103.55a2 2 0 0 1-1.92 1.44zm78.16-100.16c-19.47 65.56-67.36 105.13-67.84 105.53a2 2 0 0 1-2.81-.3 2 2 0 0 1 .28-2.8c.48-.4 47.42-39.23 66.53-103.56a2 2 0 0 1 3.84 1.13z"/><path d="M514.41 546.52a155.4 155.4 0 0 1-84.27-24.89l-6.67-4.28a155.44 155.44 0 0 1-68.3-98.36 155.44 155.44 0 0 1 21.26-117.86l88.94-138.4 138.3 88.88c72.57 46.64 93.68 143.64 47.03 216.22l-4.35 6.76a155.44 155.44 0 0 1-98.37 68.3 157.92 157.92 0 0 1-33.57 3.63zM425.64 514l6.66 4.28A151.47 151.47 0 0 0 547.14 539a151.46 151.46 0 0 0 95.85-66.56l4.35-6.77a151.47 151.47 0 0 0 20.72-114.84 151.47 151.47 0 0 0-66.56-95.85l-134.92-86.7L379.8 303.3a151.47 151.47 0 0 0-20.72 114.83A151.46 151.46 0 0 0 425.64 514z"/><path d="m580.55 286.13 20.62-32.09-3.36-2.17-20.59 32.05zM448.19 484.7l-21 32.67 3.37 2.16 20.84-32.43z"/><path fill="#FFF" d="M584.18 274.6c-60.68-39-141.49-21.41-180.49 39.27-39 60.68-21.41 141.49 39.27 180.49 60.68 39 141.49 21.41 180.48-39.27 39-60.68 21.42-141.49-39.26-180.49zm-97.53 93.76a6.6 6.6 0 1 1 11.1 7.13 6.6 6.6 0 0 1-11.1-7.13zm-35.77-22.99a6.6 6.6 0 1 1-11.1-7.13 6.6 6.6 0 0 1 11.1 7.13zm12.33 7.93a6.6 6.6 0 1 1 11.1 7.14 6.6 6.6 0 0 1-11.1-7.14zm15.7 85.8c-3 0-6.01-.82-8.7-2.56a16.04 16.04 0 0 1-7.05-10.14 16.04 16.04 0 0 1 2.19-12.16 2 2 0 1 1 3.36 2.16 12.06 12.06 0 0 0-1.65 9.15 12.16 12.16 0 0 0 22.08 3.98l18.29-28.45.18-.24a16.18 16.18 0 0 1 14.58-7.12 16.19 16.19 0 0 1 .58-16.5l18.27-28.43a12.16 12.16 0 0 0-3.66-16.78 12.16 12.16 0 0 0-16.78 3.65 2 2 0 0 1-3.36-2.16 16.17 16.17 0 0 1 29.35 5.29c.92 4.21.14 8.53-2.19 12.16l-18.27 28.43a12.18 12.18 0 0 0 3.66 16.81 2 2 0 0 1 .6 2.77 2.05 2.05 0 0 1-2.8.64 12.16 12.16 0 0 0-16.95 3.88l-18.13 28.21a16.15 16.15 0 0 1-13.6 7.41zm27.3 18.95a2 2 0 0 1-2.81-.29 2 2 0 0 1 .28-2.81c.48-.39 47.42-39.23 66.53-103.56a2 2 0 1 1 3.83 1.14c-19.46 65.56-67.35 105.13-67.83 105.52zm28.36 19.49a2 2 0 0 1-1.92-2.57c19.48-65.56 67.36-105.13 67.84-105.52a2 2 0 0 1 2.53 3.1c-.48.38-47.42 39.22-66.53 103.55a2 2 0 0 1-1.92 1.44zm78.16-100.16c-19.47 65.56-67.36 105.13-67.84 105.53a2 2 0 0 1-2.81-.3 2 2 0 0 1 .28-2.8c.48-.4 47.42-39.23 66.53-103.56a2 2 0 0 1 3.84 1.13z"/><path d="m467.36 163.37-1.36 2.1 134.34 86.34a49.28 49.28 0 0 0-14.56-67.94l-129.05-82.93a46.98 46.98 0 0 1 10.63 62.43z"/><path d="m600.94 254.57-137.7-88.5 2.43-3.78a44.73 44.73 0 0 0-10.17-59.77l2.31-3.27 130.56 83.9-.02.05a51.4 51.4 0 0 1 13.67 69.69l-1.08 1.68zm-132.18-89.7 130.94 84.15a47.4 47.4 0 0 0-15.02-63.47l-.6-.4-115.23-74.05a48.7 48.7 0 0 1 .19 53.35l-.28.43z"/><path fill="#FFF" d="M427.22 177.14a37.4 37.4 0 0 1-31.35-57.56 37.4 37.4 0 0 1 51.62-11.23c8.4 5.4 14.18 13.73 16.3 23.48s.32 19.74-5.07 28.14a37.11 37.11 0 0 1-23.48 16.3 37.8 37.8 0 0 1-8.02.87zm.14-70.73c-2.38 0-4.78.26-7.16.77a33.14 33.14 0 0 0-20.96 14.56 33.14 33.14 0 0 0-4.54 25.12 33.14 33.14 0 0 0 14.56 20.97 33.12 33.12 0 0 0 25.13 4.53 33.13 33.13 0 0 0 20.96-14.56 33.4 33.4 0 0 0-27.99-51.4z"/><circle cx="427.29" cy="139.77" r="23.57"/><path fill="#FFF" d="M650.5 1077.3c-19.55 0-38.67-2.98-56.8-8.94-39.12-12.86-72.93-39.58-97.76-77.28-26.04-39.55-35.93-79.58-45.5-118.3-6.09-24.63-12.38-50.1-22.92-75.27-27.55-65.8-80.66-104.76-136.9-146-24.44-17.94-49.73-36.48-73.48-57.7-41.99-37.49-67.2-74.61-77.1-113.5-10.75-42.31-2.02-86.45 25.11-128.7l42.08 27c-19.61 30.56-26.03 60.64-18.72 89.38 7.25 28.52 28.08 58.3 61.93 88.53 21.97 19.62 46.26 37.44 69.76 54.67 59.26 43.46 120.53 88.4 153.44 167 12.03 28.74 18.8 56.12 25.34 82.6 8.95 36.2 17.4 70.41 38.72 102.79 18.82 28.58 42.92 47.85 71.62 57.28 26.23 8.63 55.76 8.58 85.37-.13 49.57-14.58 82.48-39.15 97.8-73.01 9.34-20.67 12.45-45.24 9.23-73.04-3.1-26.65-11.84-55.6-25.99-86.04C752.9 739.5 727.1 665.3 761.84 611.1l42.1 26.99c-16.11 25.11-10.86 69.23 17.13 129.46 35.74 76.88 41.6 146.3 16.97 200.77-21.59 47.72-65.07 81.5-129.24 100.37a206.74 206.74 0 0 1-58.3 8.6z"/><path d="m607.8 513.37 2.17-3.36 334.7 215.07-2.16 3.36z"/></svg>