<svg version="1.1" id="Layer_1" xmlns="http://www.w3.org/2000/svg" x="0" y="0" viewBox="0 0 1080 1080" style="enable-background:new 0 0 1080 1080" xml:space="preserve"><style>.st0{fill:#ffd829}.st2{fill:#fff;stroke:#fff;stroke-miterlimit:10}.st3{fill:none}.st4{fill:#fff}</style><path class="st0" d="M346 329.4c-10.6 15.7-47.5 30.9-57.6 24.1-9-6.1-9.8-46.8.8-62.4s31.9-19.8 47.6-9.2a34.13 34.13 0 0 1 9.2 47.5z"/><path class="st0" d="M264.7 361.5c-2.7 0-5.5-.4-8.2-1.2-7.9-2.4-11.6-7.6-11.8-7.8-.6-.9-.4-2.1.5-2.8.9-.6 2.1-.4 2.8.5.5.7 13.1 17.4 42-1.9.9-.6 2.2-.4 2.8.5.6.9.4 2.2-.5 2.8-7.3 4.8-17.4 9.9-27.6 9.9z"/><path class="st0" d="M306.8 394.2c-.2 0-.3 0-.5-.1s-24.9-6.4-16.9-44.4c.2-1.1 1.3-1.8 2.4-1.5 1.1.2 1.8 1.3 1.5 2.4-7.2 34.1 13 39.5 13.9 39.7 1.1.3 1.7 1.3 1.5 2.4-.1.8-1 1.5-1.9 1.5z"/><g><path class="st0" d="m668.4 423 332.3 213.5c15.6-64.4-11-131.6-66.7-167.8l-1.7-1.1-309.6-199c43.3 39.1 60.4 99.2 45.7 154.4z"/><path d="M937.8 466.4 602.9 251.2l-1 1.6.7.5 3.6 2.4L935 467c58.5 38.1 83.6 108.5 66.9 172.7L667.8 425l-.6 2 335.9 215.9.7-2.7c17.3-66.2-9.2-135.8-66-173.8z"/><path d="m932.3 467.6 1.7 1.1a156.19 156.19 0 0 1 66.7 167.8L668.4 423c-.2.7-.4 1.4-.5 2L1002 639.7c16.7-64.2-8.3-134.6-66.9-172.7L606.2 255.7c5.9 4 11.4 8.3 16.5 13l309.6 198.9z"/><path class="st0" d="M453.6 531.9 764 731.4l.8.5c27.3 17.3 58.7 25.7 90.9 24.2 30.5-1.4 59.6-11.5 84.2-29.2L607.7 513.4c-43.6 32.9-102.7 40.7-154.1 18.5z"/><path d="M943.4 726.7c-51.2 38.2-122.6 43-179.7 6.9L434.9 522.2c-1.2-.7-2.5-1.5-3.7-2.3l-.7-.5-1 1.6 333.2 214.1 1.7 1.1c25.4 15.7 54.3 23.9 83.9 23.9 2.5 0 5-.1 7.5-.2 32.3-1.5 63-12.5 88.7-31.7l2.3-1.7-335.7-215.7c-.6.4-1.1.9-1.7 1.3l334 214.6z"/><path d="M939.9 726.8a155.99 155.99 0 0 1-84.2 29.2c-32.2 1.5-63.6-6.9-90.9-24.2l-.8-.5-310.4-199.4c-6.3-2.7-12.6-5.9-18.7-9.6l328.8 211.3c57 36.2 128.5 31.4 179.7-6.9l-334-214.6c-.6.4-1.1.9-1.7 1.3l332.2 213.4z"/><g><path d="m464.9 170.9 4.1-6.5a48.92 48.92 0 0 0-14.7-67.7c-22.7-14.6-53.1-8-67.7 14.7l-1.4 2.1c-.6.9-.3 2.2.6 2.8.9.6 2.2.3 2.8-.6l1.4-2.1c13.4-20.9 41.3-26.9 62.2-13.5 20.9 13.4 26.9 41.3 13.5 62.2l-4.4 6.9c-.2.3-.3.6-.3.9l3.9.8zM434.2 520.7c-.1.7-.5 1.3-1.1 1.6-.3.1-.6.2-.9.2-.4 0-.8-.1-1.1-.3l-345.6-222c-.9-.6-1.2-1.8-.6-2.8.6-.9 1.8-1.2 2.8-.6l342.8 220.3 3.7 3.6zM1027 591.7l-23.3-15c5.2 36.3-2.2 74.6-23.6 107.9s-53.1 55.9-88.3 66.3l23.3 15c48 30.5 111.7 16.5 142.5-31.4 30.8-48.1 17.1-111.8-30.6-142.8zM890 645.9a14.4 14.4 0 0 1-19.9 4.3l-150.2-96.5a14.4 14.4 0 0 1-4.3-19.9l14.4-22.4a14.4 14.4 0 0 1 19.9-4.3L900 603.5a14.4 14.4 0 0 1 4.3 19.9L890 645.9z"/><path d="M879.2 664.1c-3.9 0-7.7-1.1-11-3.3L710.6 559.7c-4.6-3-7.8-7.5-9-12.9-1.2-5.4-.2-10.9 2.8-15.5l18.5-28.9c6.1-9.5 18.9-12.3 28.4-6.2L909 597.4c9.5 6.1 12.3 18.9 6.2 28.4l-18.5 28.9c-3 4.6-7.6 7.8-12.9 9-1.6.3-3.1.4-4.6.4zM740.3 496.9c-5.5 0-10.8 2.7-14 7.6l-18.5 28.9c-2.4 3.7-3.2 8.1-2.2 12.5s3.5 8 7.2 10.4l157.5 101.2c3.7 2.4 8.1 3.2 12.5 2.2 4.3-.9 8-3.5 10.4-7.2l1.7 1.1-1.7-1.1 18.5-28.9c4.9-7.7 2.7-18-5-22.9L749.2 499.6c-2.7-1.8-5.8-2.7-8.9-2.7z"/><g style="enable-background:new"><path class="st2" d="m734.5 538.3 7.8-12.1c.3-.5.8-.6 1.2-.3l2.5 1.6c4.3 2.7 4.5 7 1.9 11-2.5 3.9-6.5 5.5-10.8 2.7l-2.5-1.6c-.4-.3-.5-.8-.1-1.3zm1.8.4 1.6 1.1c3.6 2.3 6.7.7 8.6-2.3 1.9-3 2.1-6.5-1.4-8.8l-1.6-1.1-7.2 11.1zM751.7 540.8c2.6-4 6.5-6 10-3.7s3.3 6.6.7 10.6-6.5 6-10 3.7c-3.4-2.2-3.3-6.5-.7-10.6zm9.3 6c2.1-3.3 2.3-6.7-.2-8.3s-5.5-.1-7.6 3.3c-2.1 3.3-2.4 6.7.1 8.4s5.6-.1 7.7-3.4zM771.5 563l-.8-10-3.3.8-2.9 4.4c-.3.5-.8.6-1.3.3-.4-.3-.5-.7-.2-1.3l8.2-12.7c.3-.5.8-.6 1.2-.4.4.3.6.8.2 1.3l-4.2 6.5 10.7-2.7c.5-.2.9-.2 1.3.1.4.2.6.7.2 1.2-.2.3-.5.4-.9.6l-7.6 1.6.9 10.4c0 .4 0 .7-.2.9-.2.4-.7.5-1.2.2 0-.4-.1-.6-.1-1.2zM777.2 566.2l5.3-8.3c2.1-3.2 4.8-4.3 8-2.3s3.3 5 1.2 8.2l-5.3 8.3c-.3.5-.8.6-1.3.3-.4-.3-.5-.7-.2-1.3l2.7-4.2-6.4-4.1-2.7 4.2c-.3.5-.8.6-1.2.4s-.5-.6-.1-1.2zm12.5-9.2c-2.2-1.4-4-.7-5.7 1.9l-1.8 2.7 6.4 4.1 1.8-2.7c1.6-2.6 1.5-4.6-.7-6zM801.4 573c2.6-4 6.5-6 10-3.7s3.3 6.6.7 10.6-6.5 6-10 3.7c-3.5-2.2-3.4-6.5-.7-10.6zm9.3 6c2.1-3.3 2.3-6.7-.2-8.3s-5.5-.1-7.6 3.3c-2.1 3.3-2.4 6.7.1 8.4s5.5-.1 7.7-3.4zM822 576.6l3.4 2.2c2.9 1.9 4.7 4.6 2.6 7.9-2.1 3.2-5.4 2.8-8.3.9l-2.7-1.7-2.8 4.4c-.3.5-.8.6-1.3.3s-.5-.7-.2-1.3l8-12.4c.4-.5.9-.6 1.3-.3zm-4.1 8 2.7 1.7c2.2 1.4 4.5 1.5 5.8-.6 1.4-2.2.3-4.2-1.9-5.6l-2.7-1.7-3.9 6.2zM834 586.3c-.5-.3-.6-.8-.4-1.2.3-.4.7-.5 1.3-.2l10.2 6.6c.5.3.6.8.4 1.2s-.7.5-1.3.2l-4.3-2.9-7.7 11.9c-.3.5-.8.6-1.3.3s-.5-.7-.2-1.3l7.7-11.9c-1-.5-3.6-2.1-4.4-2.7zM849.4 596.2c-.5-.3-.6-.8-.4-1.2s.7-.5 1.3-.2l8.1 5.2c.5.3.6.8.4 1.2s-.7.5-1.3.2c-.7-.5-2.4-1.6-3.2-2.2l-7.2 11.1c.8.5 2.6 1.5 3.3 2 .5.3.6.8.4 1.2-.3.4-.7.5-1.3.2l-8.1-5.2c-.5-.3-.6-.8-.4-1.2s.7-.5 1.3-.2c.7.5 2.4 1.6 3.2 2.2l7.2-11.1c-.8-.4-2.6-1.5-3.3-2zM861 619.7c1.3.9 2.8 1.1 4.4.5.4-.1.7-.1 1 .1.4.2.5.7.3 1.1-.2.3-.4.4-.7.5-2.2.6-4.3.1-5.9-.9-3.6-2.3-3.9-6.6-1.1-10.9 2.8-4.3 6.8-5.8 10.4-3.5 1.6 1.1 3 2.7 3.3 5 .1.3.1.5-.2.9-.3.4-.8.4-1.1.2-.4-.2-.5-.5-.5-.9-.2-1.7-1-3-2.3-3.8-2.5-1.6-5.5-.7-7.9 3.1-2.5 3.7-2.3 6.9.3 8.6zM870.5 626.1c-.4-.8-.5-1.3-.2-1.7.2-.4.7-.5 1.1-.2.4.2.5.6.8 1.3.5 1.2 1.4 2.3 2.7 3.1 1.9 1.2 4.4 1.6 5.5-.2.9-1.5-.1-3.1-2.1-5.1-2.7-2.8-3.8-4.9-2.3-7.2 1.4-2.2 4.4-2.2 7-.5 1.6 1.1 3 2.6 3.5 4.2.1.4.2.7 0 1.1-.3.4-.7.5-1.2.2-.3-.2-.5-.5-.7-.9-.5-1.2-1.4-2.4-2.7-3.2-2-1.3-3.8-1.1-4.6.2-1 1.6.3 3.2 1.9 5 2.6 2.8 4 4.9 2.4 7.4-1.7 2.6-4.9 2.6-7.9.6-1.5-1.4-2.6-2.9-3.2-4.1z"/></g><path class="st0" d="M250.3 26.9C178.6-19.2 83 1.6 36.9 73.4l-4.3 6.8C-13.6 151.9 7.2 247.5 79 293.6l6.7 4.3c71.8 46.1 167.3 25.3 213.5-46.4l87.9-136.7-136.8-87.9zm-80.5 137.8c-2 3.1-6.1 4-9.1 2-3.1-2-4-6.1-2-9.1 2-3.1 6.1-4 9.1-2s3.9 6.1 2 9.1zm2.3-53c-.6.9-1.8 1.2-2.8.6-.9-.6-1.2-1.8-.6-2.8 1.8-2.7 2.3-6 1.6-9.1-.7-3.2-2.6-5.9-5.3-7.6-2.7-1.8-6-2.3-9.1-1.7-3.2.7-5.9 2.6-7.6 5.3L130 124.8c-.1.1-.1.2-.2.2a16 16 0 0 1-14.6 7.1c2.7 5 2.7 11.4-.6 16.5L96.3 177c-1.8 2.7-2.3 6-1.7 9.1.7 3.2 2.6 5.9 5.3 7.6 5.6 3.6 13.2 2 16.8-3.6.6-.9 1.8-1.2 2.8-.6.9.6 1.2 1.8.6 2.8-3.1 4.8-8.3 7.4-13.6 7.4-3 0-6-.8-8.7-2.6-3.6-2.3-6.1-5.9-7-10.1s-.1-8.5 2.2-12.2l18.3-28.4c3.6-5.6 2-13.2-3.7-16.8-.4-.3-.8-.7-.9-1.3-.1-.5 0-1.1.3-1.5.6-.9 1.9-1.2 2.8-.6 2.7 1.8 6 2.3 9.1 1.7 3.2-.7 5.9-2.6 7.6-5.3.1-.1.1-.2.2-.2l18.1-28.2c2.3-3.6 5.9-6.1 10.1-7 4.2-.9 8.5-.1 12.2 2.2 3.6 2.3 6.1 5.9 7 10.1 1.1 4.2.3 8.5-2 12.2zm21.1 68.1c-2 3.1-6.1 4-9.1 2-3.1-2-4-6.1-2-9.1 2-3.1 6.1-4 9.1-2 3.1 1.9 4 6 2 9.1zm23.4 15c-2 3.1-6.1 4-9.1 2-3.1-2-4-6.1-2-9.1 2-3.1 6.1-4 9.1-2 3.1 2 4 6.1 2 9.1z"/><path d="M168.9 324.3c-29 0-58.2-8-84.3-24.8l-6.7-4.3a155.27 155.27 0 0 1-68.3-98.4C.7 156.1 8.2 114.2 30.8 79l4.4-6.8c46.6-72.6 143.6-93.7 216.2-47l138.3 88.9-88.9 138.4c-29.9 46.5-80.4 71.8-131.9 71.8zM167.1 4.4c-50.2 0-99.4 24.7-128.5 70l-4.3 6.8c-22 34.3-29.4 75-20.7 114.8s32.3 73.8 66.6 95.9l6.7 4.3c34.3 22 75 29.4 114.8 20.7s73.8-32.3 95.9-66.6l86.8-135-135.2-86.7a151.7 151.7 0 0 0-82.1-24.2z"/><path d="m232.2 66.1 22.4-34.8-3.4-2.2L229 63.7zM102.4 260.8l-21.8 33.8 3.4 2.2 21.6-33.7z"/><g><path class="st3" d="M167.2 89.4c-3.6-2.3-7.9-3.1-12.2-2.2-4.2.9-7.8 3.4-10.1 7l-18.1 28.2-.2.2c-1.8 2.7-4.5 4.6-7.6 5.3-3.2.7-6.4.1-9.1-1.7-.9-.6-2.2-.3-2.8.6-.3.4-.4 1-.3 1.5.1.5.4 1 .9 1.3 5.6 3.6 7.3 11.2 3.7 16.8L93 175c-2.3 3.6-3.1 7.9-2.2 12.2.9 4.2 3.4 7.8 7 10.1 2.7 1.7 5.7 2.6 8.7 2.6 5.3 0 10.5-2.6 13.6-7.4.6-.9.3-2.2-.6-2.8-.9-.6-2.2-.3-2.8.6a12.1 12.1 0 0 1-16.8 3.6c-2.7-1.8-4.6-4.5-5.3-7.6-.7-3.2-.1-6.4 1.7-9.1l18.3-28.4c3.3-5.1 3.3-11.5.6-16.5 1.5.1 3.1 0 4.6-.3 4.1-.9 7.6-3.3 10-6.8.1-.1.1-.2.2-.2l18.3-28.4c1.8-2.7 4.5-4.6 7.6-5.3 3.2-.7 6.4-.1 9.1 1.7 2.7 1.8 4.6 4.5 5.3 7.6.7 3.2.1 6.4-1.6 9.1-.6.9-.3 2.2.6 2.8.9.6 2.2.3 2.8-.6 2.3-3.6 3.1-7.9 2.2-12.2-1-4.4-3.5-8-7.1-10.3zM167.8 155.6c-3.1-2-7.1-1.1-9.1 2s-1.1 7.1 2 9.1 7.1 1.1 9.1-2c1.9-3 1-7.1-2-9.1zM191.2 170.7c-3.1-2-7.1-1.1-9.1 2s-1.1 7.1 2 9.1 7.1 1.1 9.1-2 1.1-7.2-2-9.1zM214.7 185.7c-3.1-2-7.1-1.1-9.1 2s-1.1 7.1 2 9.1 7.1 1.1 9.1-2c1.9-3 1-7.1-2-9.1z"/><path class="st4" d="M238.6 52.5c-60.7-39-141.5-21.4-180.5 39.3-39 60.7-21.4 141.5 39.3 180.5 60.7 39 141.5 21.4 180.5-39.3 38.9-60.7 21.4-141.5-39.3-180.5zm-68.8 112.2c-2 3.1-6.1 4-9.1 2-3.1-2-4-6.1-2-9.1 2-3.1 6.1-4 9.1-2s3.9 6.1 2 9.1zm2.3-53c-.6.9-1.8 1.2-2.8.6-.9-.6-1.2-1.8-.6-2.8 1.8-2.7 2.3-6 1.6-9.1-.7-3.2-2.6-5.9-5.3-7.6-2.7-1.8-6-2.3-9.1-1.7-3.2.7-5.9 2.6-7.6 5.3L130 124.8c-.1.1-.1.2-.2.2a16 16 0 0 1-14.6 7.1c2.7 5 2.7 11.4-.6 16.5L96.3 177c-1.8 2.7-2.3 6-1.7 9.1.7 3.2 2.6 5.9 5.3 7.6 5.6 3.6 13.2 2 16.8-3.6.6-.9 1.8-1.2 2.8-.6.9.6 1.2 1.8.6 2.8-3.1 4.8-8.3 7.4-13.6 7.4-3 0-6-.8-8.7-2.6-3.6-2.3-6.1-5.9-7-10.1s-.1-8.5 2.2-12.2l18.3-28.4c3.6-5.6 2-13.2-3.7-16.8-.4-.3-.8-.7-.9-1.3-.1-.5 0-1.1.3-1.5.6-.9 1.9-1.2 2.8-.6 2.7 1.8 6 2.3 9.1 1.7 3.2-.7 5.9-2.6 7.6-5.3.1-.1.1-.2.2-.2l18.1-28.2c2.3-3.6 5.9-6.1 10.1-7 4.2-.9 8.5-.1 12.2 2.2 3.6 2.3 6.1 5.9 7 10.1 1.1 4.2.3 8.5-2 12.2zm21.1 68.1c-2 3.1-6.1 4-9.1 2-3.1-2-4-6.1-2-9.1 2-3.1 6.1-4 9.1-2 3.1 1.9 4 6 2 9.1zm23.4 15c-2 3.1-6.1 4-9.1 2-3.1-2-4-6.1-2-9.1 2-3.1 6.1-4 9.1-2 3.1 2 4 6.1 2 9.1z"/></g><g><path class="st0" d="M602.6 253.3 466 165.5l-87.9 136.7C332 374 352.8 469.5 424.6 515.7l6.7 4.3c71.8 46.1 167.3 25.3 213.5-46.4l4.3-6.8c46-71.8 25.2-167.4-46.5-213.5zm-116 115.1c2-3.1 6.1-4 9.1-2 3.1 2 4 6.1 2 9.1-2 3.1-6.1 4-9.1 2s-3.9-6.1-2-9.1zm-35.7-23c-2 3.1-6.1 4-9.1 2-3.1-2-4-6.1-2-9.1 2-3.1 6.1-4 9.1-2 3.1 1.9 3.9 6 2 9.1zm12.3 7.9c2-3.1 6.1-4 9.1-2 3.1 2 4 6.1 2 9.1s-6.1 4-9.1 2c-3.1-2-4-6-2-9.1zm15.7 85.8c-3 0-6-.8-8.7-2.6-3.6-2.3-6.1-5.9-7-10.1-.9-4.2-.1-8.5 2.2-12.2.6-.9 1.8-1.2 2.8-.6.9.6 1.2 1.8.6 2.8-1.8 2.7-2.3 6-1.6 9.1.7 3.2 2.6 5.9 5.3 7.6 5.6 3.6 13.2 2 16.8-3.6l18.3-28.4c.1-.1.1-.2.2-.2 3.3-5 9-7.5 14.6-7.1-2.7-5-2.7-11.4.6-16.5l18.3-28.4c3.6-5.6 2-13.2-3.7-16.8-5.6-3.6-13.2-2-16.8 3.6-.6.9-1.8 1.2-2.8.6-.9-.6-1.2-1.8-.6-2.8 4.8-7.5 14.8-9.7 22.3-4.9 3.6 2.3 6.1 5.9 7 10.1.9 4.2.1 8.5-2.2 12.2l-18.3 28.4c-3.6 5.6-2 13.2 3.7 16.8.4.3.8.7.9 1.3s0 1.1-.3 1.5c-.6.9-1.9 1.2-2.8.6-5.6-3.6-13.2-2-16.8 3.6-.1.1-.1.2-.2.2l-18.1 28.2c-3.2 5-8.4 7.6-13.7 7.6zm27.3 18.9c-.4.3-.8.4-1.3.4-.6 0-1.2-.3-1.6-.7-.7-.9-.6-2.1.3-2.8.5-.4 47.4-39.2 66.5-103.6.3-1.1 1.4-1.7 2.5-1.3 1.1.3 1.7 1.4 1.3 2.5-19.3 65.6-67.2 105.2-67.7 105.5zm28.4 19.5c-.2 0-.4 0-.6-.1-1.1-.3-1.7-1.4-1.3-2.5 19.5-65.6 67.4-105.1 67.8-105.5.9-.7 2.1-.6 2.8.3.7.9.6 2.1-.3 2.8-.5.4-47.4 39.2-66.5 103.6a2 2 0 0 1-1.9 1.4zm78.1-100.1c-19.5 65.6-67.4 105.1-67.8 105.5-.4.3-.8.4-1.3.4-.6 0-1.2-.3-1.6-.7-.7-.9-.6-2.1.3-2.8.5-.4 47.4-39.2 66.5-103.6.3-1.1 1.4-1.7 2.5-1.3a2 2 0 0 1 1.4 2.5z"/><path d="M514.4 546.5c-29.7 0-58.7-8.5-84.3-24.9l-6.7-4.3a155.27 155.27 0 0 1-68.3-98.4c-8.9-40.8-1.3-82.7 21.3-117.9l88.9-138.4 138.3 88.9c72.6 46.6 93.7 143.6 47 216.2l-4.4 6.8a155.27 155.27 0 0 1-98.4 68.3c-11 2.5-22.2 3.7-33.4 3.7zM425.6 514l6.7 4.3c34.3 22 75 29.4 114.8 20.7s73.8-32.3 95.9-66.6l4.4-6.8c22-34.3 29.4-75 20.7-114.8s-32.3-73.8-66.6-95.9l-134.9-86.7-86.8 135c-22 34.3-29.4 75-20.7 114.8 8.6 39.9 32.3 74 66.5 96z"/><path d="m580.6 286.1 20.6-32.1-3.4-2.1-20.6 32zM448.2 484.7l-21 32.7 3.4 2.1 20.8-32.4z"/><path class="st4" d="M584.2 274.6c-60.7-39-141.5-21.4-180.5 39.3-39 60.7-21.4 141.5 39.3 180.5 60.7 39 141.5 21.4 180.5-39.3 38.9-60.7 21.4-141.5-39.3-180.5zm-97.6 93.8c2-3.1 6.1-4 9.1-2 3.1 2 4 6.1 2 9.1-2 3.1-6.1 4-9.1 2s-3.9-6.1-2-9.1zm-35.7-23c-2 3.1-6.1 4-9.1 2-3.1-2-4-6.1-2-9.1 2-3.1 6.1-4 9.1-2 3.1 1.9 3.9 6 2 9.1zm12.3 7.9c2-3.1 6.1-4 9.1-2 3.1 2 4 6.1 2 9.1s-6.1 4-9.1 2c-3.1-2-4-6-2-9.1zm15.7 85.8c-3 0-6-.8-8.7-2.6-3.6-2.3-6.1-5.9-7-10.1-.9-4.2-.1-8.5 2.2-12.2.6-.9 1.8-1.2 2.8-.6.9.6 1.2 1.8.6 2.8-1.8 2.7-2.3 6-1.6 9.1.7 3.2 2.6 5.9 5.3 7.6 5.6 3.6 13.2 2 16.8-3.6l18.3-28.4c.1-.1.1-.2.2-.2 3.3-5 9-7.5 14.6-7.1-2.7-5-2.7-11.4.6-16.5l18.3-28.4c3.6-5.6 2-13.2-3.7-16.8-5.6-3.6-13.2-2-16.8 3.6-.6.9-1.8 1.2-2.8.6-.9-.6-1.2-1.8-.6-2.8 4.8-7.5 14.8-9.7 22.3-4.9 3.6 2.3 6.1 5.9 7 10.1.9 4.2.1 8.5-2.2 12.2l-18.3 28.4c-3.6 5.6-2 13.2 3.7 16.8.4.3.8.7.9 1.3s0 1.1-.3 1.5c-.6.9-1.9 1.2-2.8.6-5.6-3.6-13.2-2-16.8 3.6-.1.1-.1.2-.2.2l-18.1 28.2c-3.2 5-8.4 7.6-13.7 7.6zm27.3 18.9c-.4.3-.8.4-1.3.4-.6 0-1.2-.3-1.6-.7-.7-.9-.6-2.1.3-2.8.5-.4 47.4-39.2 66.5-103.6.3-1.1 1.4-1.7 2.5-1.3 1.1.3 1.7 1.4 1.3 2.5-19.3 65.6-67.2 105.2-67.7 105.5zm28.4 19.5c-.2 0-.4 0-.6-.1-1.1-.3-1.7-1.4-1.3-2.5 19.5-65.6 67.4-105.1 67.8-105.5.9-.7 2.1-.6 2.8.3.7.9.6 2.1-.3 2.8-.5.4-47.4 39.2-66.5 103.6a2 2 0 0 1-1.9 1.4zm78.1-100.1c-19.5 65.6-67.4 105.1-67.8 105.5-.4.3-.8.4-1.3.4-.6 0-1.2-.3-1.6-.7-.7-.9-.6-2.1.3-2.8.5-.4 47.4-39.2 66.5-103.6.3-1.1 1.4-1.7 2.5-1.3a2 2 0 0 1 1.4 2.5z"/></g><g><path d="m467.4 163.4-1.4 2.1 134.3 86.3a49.2 49.2 0 0 0-14.6-67.9L456.6 101c19.1 14.7 24 41.8 10.8 62.4z"/><path d="m600.9 254.6-137.7-88.5 2.4-3.8a44.7 44.7 0 0 0-10.2-59.8l2.3-3.3 130.6 83.9a51.53 51.53 0 0 1 13.7 69.7l-1.1 1.8zm-132.1-89.7L599.7 249a47.51 47.51 0 0 0-15-63.5l-.6-.4L468.9 111c10.4 15.8 11 36.5.2 53.3l-.3.6z"/></g><g><path class="st4" d="M427.2 177.1c-7.1 0-14-2-20.1-5.9a37.33 37.33 0 0 1-11.2-51.6 37.33 37.33 0 0 1 51.6-11.2c8.4 5.4 14.2 13.7 16.3 23.5s.3 19.7-5.1 28.1a36.92 36.92 0 0 1-31.5 17.1zm.2-70.7c-2.4 0-4.8.3-7.2.8-8.7 1.9-16.2 7.1-21 14.6-4.8 7.5-6.4 16.4-4.5 25.1 1.9 8.7 7.1 16.2 14.6 21 7.5 4.8 16.4 6.4 25.1 4.5 8.7-1.9 16.2-7.1 21-14.6a33.5 33.5 0 0 0-10-46.1c-5.5-3.5-11.7-5.3-18-5.3z"/></g><g><circle cx="427.3" cy="139.8" r="23.6"/></g></g><g><path class="st4" d="M650.5 1077.3c-19.6 0-38.7-3-56.8-8.9-39.1-12.9-72.9-39.6-97.8-77.3-26-39.5-35.9-79.6-45.5-118.3-6.1-24.6-12.4-50.1-22.9-75.3-27.5-65.8-80.7-104.8-136.9-146-24.4-17.9-49.7-36.5-73.5-57.7-42-37.5-67.2-74.6-77.1-113.5-10.8-42.3-2-86.5 25.1-128.7l42.1 27c-19.6 30.6-26 60.6-18.7 89.4 7.3 28.5 28.1 58.3 61.9 88.5 22 19.6 46.3 37.4 69.8 54.7 59.3 43.5 120.5 88.4 153.4 167 12 28.7 18.8 56.1 25.3 82.6 8.9 36.2 17.4 70.4 38.7 102.8 18.8 28.6 42.9 47.9 71.6 57.3 26.2 8.6 55.8 8.6 85.4-.1 49.6-14.6 82.5-39.1 97.8-73 9.3-20.7 12.5-45.2 9.2-73-3.1-26.6-11.8-55.6-26-86-22.8-49.1-48.6-123.3-13.9-177.5l42.1 27c-16.1 25.1-10.9 69.2 17.1 129.5 35.7 76.9 41.6 146.3 17 200.8-21.6 47.7-65.1 81.5-129.2 100.4-19.4 5.4-39 8.3-58.2 8.3z"/></g><g><path transform="rotate(-57.28 776.24 619.2)" d="M774.2 420.3h4v397.8h-4z"/></g></g></svg>