<svg xmlns="http://www.w3.org/2000/svg" xml:space="preserve" viewBox="0 0 1920 1080"><path d="M1918.9 386.313V270.807c0-1.5-.019-2.998-.057-4.493-1.791-70.637-45.358-132.443-111.959-156.048l-139.612-49.482a269.633 269.633 0 0 0-155.187-7.511c-52.539 13.074-94.665 52.244-111.52 103.695l-.328 1.001-10.181 4.628c-55.984 25.448-83.702 89.073-64.213 147.399l25.611 76.649 567.446-.332zM1160.629 1080a1.994 1.994 0 0 1-1.994-1.994v-74.201c0-58.323 22.712-113.154 63.952-154.395 41.241-41.241 96.073-63.953 154.396-63.953h541.023a1.994 1.994 0 0 1 0 3.988h-541.023c-57.258 0-111.088 22.298-151.575 62.785-40.487 40.487-62.785 94.317-62.785 151.575v74.201a1.994 1.994 0 0 1-1.994 1.994z"/><path fill="#FFD829" d="M1626.27 910.989c-70.776 0-128.151-57.375-128.151-128.151V645.072h256.302v137.767c0 70.775-57.375 128.15-128.151 128.15z"/><path d="M1626.27 912.984c-71.762 0-130.146-58.383-130.146-130.146V645.072c0-1.101.893-1.994 1.994-1.994h256.302c1.101 0 1.994.893 1.994 1.994v137.766c.001 71.763-58.381 130.146-130.144 130.146zm-126.157-265.918v135.772c0 69.564 56.594 126.157 126.157 126.157 69.563 0 126.156-56.594 126.156-126.157V647.066h-252.313z"/><path d="M1624.86 940.46c-84.369 0-153.008-68.639-153.008-153.008a1.994 1.994 0 0 1 3.988 0c0 82.17 66.85 149.02 149.02 149.02 82.169 0 149.019-66.85 149.019-149.02a1.994 1.994 0 0 1 3.988 0c0 84.369-68.638 153.008-153.007 153.008zM1336.157 784.724l-308.822 2.174v289.71h205.161z"/><path fill="#FFD829" d="M1918.005 383.35c-2.376-.171-4.767-.289-7.187-.289-3.792 0-7.525.24-11.204.648-34.327-118.577-143.703-205.283-273.343-205.283-129.64 0-239.024 86.707-273.348 205.283-3.674-.408-7.41-.648-11.196-.648-54.567 0-98.804 44.235-98.804 98.804 0 54.567 44.238 98.799 98.804 98.799a99.007 99.007 0 0 0 24.092-2.973c44.113 100.008 144.121 169.824 260.452 169.824 116.326 0 216.335-69.815 260.45-169.824a99.055 99.055 0 0 0 24.098 2.973c2.42 0 4.811-.117 7.187-.289"/><path d="M1626.271 749.51c-112.949 0-215.446-66.468-261.599-169.49a101.23 101.23 0 0 1-22.945 2.638c-55.581 0-100.798-45.215-100.798-100.793 0-55.58 45.217-100.797 100.798-100.797 3.168 0 6.372.16 9.749.486 17.107-57.788 52.986-109.779 101.168-146.538 50.236-38.326 110.276-58.584 173.627-58.584 63.35 0 123.389 20.258 173.624 58.584 48.179 36.759 84.059 88.748 101.166 146.539 3.382-.327 6.588-.487 9.757-.487 2.226 0 4.555.093 7.33.293a1.996 1.996 0 0 1 1.846 2.133c-.08 1.097-1.031 1.905-2.132 1.846-2.678-.194-4.915-.283-7.044-.283-3.536 0-7.129.207-10.984.636a1.992 1.992 0 0 1-2.135-1.428c-16.68-57.616-52.273-109.494-100.224-146.076-49.534-37.792-108.735-57.767-171.204-57.767-62.47 0-121.672 19.975-171.208 57.767-47.953 36.583-83.547 88.461-100.225 146.076a2 2 0 0 1-2.135 1.427c-3.85-.427-7.44-.635-10.976-.635-53.381 0-96.81 43.429-96.81 96.809 0 53.378 43.429 96.805 96.81 96.805 7.95 0 15.892-.981 23.607-2.913a2.001 2.001 0 0 1 2.31 1.13c45.185 102.442 146.702 168.635 258.627 168.635 111.92 0 213.436-66.194 258.624-168.635a2 2 0 0 1 2.31-1.13 97.283 97.283 0 0 0 23.613 2.913c2.129 0 4.366-.09 7.044-.283 1.123-.057 2.053.749 2.132 1.846a1.995 1.995 0 0 1-1.846 2.132c-2.775.2-5.104.293-7.33.293-7.718 0-15.43-.887-22.951-2.638-46.156 103.021-148.651 169.489-261.596 169.489z"/><path d="M1352.263 523.594a1.987 1.987 0 0 1-1.468-.644l-60.596-65.872a1.995 1.995 0 0 1 2.935-2.701l60.596 65.872a1.995 1.995 0 0 1-1.467 3.345zM1888.462 523.594a1.995 1.995 0 0 1-1.467-3.345l29.542-32.113a1.996 1.996 0 0 1 2.935 2.701l-29.542 32.113a1.992 1.992 0 0 1-1.468.644zM1523.844 497.031c0 20.74-16.812 37.542-37.539 37.542-20.737 0-37.547-16.803-37.547-37.542 0-20.734 16.81-37.54 37.547-37.54 20.726.001 37.539 16.806 37.539 37.54z"/><path d="M1574.674 482.138a1.993 1.993 0 0 1-1.646-.866c-16.617-24.203-44.03-38.653-73.333-38.653s-56.716 14.45-73.333 38.653a1.99 1.99 0 0 1-2.772.515 1.992 1.992 0 0 1-.515-2.772c17.36-25.288 46.003-40.385 76.62-40.385s59.261 15.097 76.62 40.385a1.993 1.993 0 0 1-1.641 3.123zM1768.869 497.031c0 20.74-16.81 37.542-37.545 37.542-20.735 0-37.545-16.803-37.545-37.542 0-20.734 16.81-37.54 37.545-37.54 20.735.001 37.545 16.806 37.545 37.54z"/><path d="M1669.739 482.138a1.992 1.992 0 0 1-1.642-3.123c17.362-25.288 46.006-40.385 76.623-40.385 30.619 0 59.264 15.097 76.623 40.385a1.993 1.993 0 1 1-3.287 2.257c-16.617-24.203-44.032-38.653-73.336-38.653-29.302 0-56.717 14.45-73.336 38.653a1.99 1.99 0 0 1-1.645.866zM1624.293 550.12a1.994 1.994 0 0 1-1.994-1.994V493.46a1.994 1.994 0 0 1 3.988 0v54.666a1.993 1.993 0 0 1-1.994 1.994z"/><path fill="#FFF" d="M1677.873 597.523c-14.446-11.476-32.712-18.349-52.592-18.349-19.881 0-38.148 6.873-52.594 18.349h105.186zM1669.74 150.053s-29.367 59.032-27.736 85.682c0 15.318 12.418 27.736 27.736 27.736 15.319 0 27.737-12.418 27.737-27.736 1.63-26.649-27.737-85.682-27.737-85.682zM1580.577 224.4s-19.267 38.73-18.197 56.214c0 10.05 8.147 18.197 18.197 18.197 10.05 0 18.197-8.147 18.197-18.197 1.069-17.484-18.197-56.214-18.197-56.214zM1717.563 301.457s-15.424 31.006-14.568 45.003c0 8.046 6.522 14.568 14.568 14.568s14.568-6.522 14.568-14.568c.857-13.997-14.568-45.003-14.568-45.003zM1768.869 184.409s-25.504 51.267-24.088 74.411c0 13.303 10.785 24.088 24.088 24.088s24.088-10.785 24.088-24.088c1.415-23.144-24.088-74.411-24.088-74.411z"/><path fill="#FFD829" d="m1071.349 362.793-.047-.044c10.03-13.168 10.741-34.249 10.301-45.431-3.169-22.878 1.32-46.94 14.429-68.095a107.36 107.36 0 0 1 4.146-6.123l79.247-128.055a39.135 39.135 0 0 1 1.631-2.951c10.549-17.016 32.891-22.253 49.9-11.709 17.009 10.547 22.251 32.889 11.708 49.898-.033.041.111.13.111.13l-33.145 53.7c.549.148 1.103.321 1.652.469l97.616-94.869a36.446 36.446 0 0 1 2.315-2.49c14.35-13.954 37.294-13.628 51.246.729 13.951 14.348 13.625 37.292-.733 51.238-.027.035.086.159.086.159l-78.457 76.255.219.214 92.625-90.025a34.95 34.95 0 0 1 2.313-2.484c14.346-13.95 37.292-13.617 51.246.729 13.945 14.355 13.619 37.303-.729 51.254-.033.021.084.149.084.149l-95.03 92.357.216.216 76.053-73.909a32.75 32.75 0 0 1 2.319-2.494c14.347-13.949 37.293-13.617 51.249.727 13.947 14.361 13.613 37.301-.733 51.25-.035.022.082.146.082.146l-78.463 76.257.221.216 59.478-57.814c.73-.854 1.49-1.687 2.319-2.49 14.35-13.945 37.297-13.621 51.244.739 13.956 14.353 13.623 37.294-.729 51.238-.038.029.088.157.088.157l-61.887 60.154-58.552 56.899c-12.415 12.071-24.692 23.183-37.893 32.815-15.901 11.576-33.14 20.989-53.622 27.254-16.874 5.162-47.64 23.051-47.64 23.051l-210.496 210.926v-337.16l44.012-43.183z"/><path d="m1028.325 402.211 41.267-40.488a1.95 1.95 0 0 1 .124-.182c9.595-12.598 10.326-32.962 9.898-44.048-3.308-24.045 1.919-48.66 14.723-69.321a108.52 108.52 0 0 1 4.183-6.182l79.163-127.92a41.39 41.39 0 0 1 1.674-3.021c11.113-17.926 34.729-23.467 52.65-12.361 17.703 10.977 23.324 34.164 12.743 51.999a1.987 1.987 0 0 1-.277.772l-27.895 45.195 90.864-88.309a37.611 37.611 0 0 1 2.382-2.554c7.188-6.99 16.628-10.82 26.633-10.82.186 0 .371.001.558.004 10.213.145 19.757 4.259 26.876 11.586 7.118 7.322 10.958 16.977 10.813 27.188a38.214 38.214 0 0 1-2.517 13.16l2.555-2.483a36.122 36.122 0 0 1 2.384-2.552c15.107-14.69 39.361-14.342 54.062.771 14.512 14.937 14.352 38.788-.221 53.532a1.977 1.977 0 0 1-.464.691l-4.544 4.416c13.449-4.407 28.866-1.158 39.392 9.659 14.509 14.939 14.344 38.793-.233 53.533-.1.25-.254.484-.46.684l-4.511 4.385a38.507 38.507 0 0 1 12.478-1.885c10.214.147 19.757 4.263 26.873 11.589 7.12 7.323 10.96 16.979 10.814 27.191-.142 9.948-4.053 19.262-11.028 26.315a2.002 2.002 0 0 1-.469.708l-120.439 117.054c-14.796 14.386-26.549 24.562-38.107 32.995-17.485 12.729-35.218 21.74-54.215 27.55-15.712 4.807-44.181 21.115-46.996 22.74L1028.747 744.54m.582-337.727v331.496l207.09-207.512c.123-.122.26-.228.409-.315 1.265-.735 31.159-18.065 48.059-23.234 18.566-5.679 35.913-14.498 53.033-26.961 11.399-8.316 23.019-18.38 37.676-32.631l119.888-116.518c.105-.259.264-.497.464-.692 6.56-6.373 10.245-14.92 10.375-24.064.131-9.145-3.309-17.794-9.686-24.353-6.375-6.564-14.922-10.25-24.07-10.381a42.509 42.509 0 0 0-.504-.004c-8.959 0-17.412 3.429-23.851 9.686a33.833 33.833 0 0 0-2.194 2.355 1.448 1.448 0 0 1-.126.134l-59.478 57.814a1.993 1.993 0 0 1-2.781-.002l-.221-.215a1.992 1.992 0 0 1 .002-2.858l77.926-75.737c.105-.249.26-.477.454-.666 13.537-13.161 13.848-34.887.694-48.431-13.17-13.537-34.896-13.846-48.428-.687a30.253 30.253 0 0 0-2.184 2.35 2.348 2.348 0 0 1-.136.146l-76.054 73.91a1.995 1.995 0 0 1-2.8-.02l-.216-.216a1.992 1.992 0 0 1 .021-2.841l94.488-91.83c.105-.252.261-.483.457-.674 13.539-13.164 13.847-34.892.689-48.436-13.168-13.539-34.892-13.848-48.425-.688a31.906 31.906 0 0 0-2.183 2.345 2.137 2.137 0 0 1-.13.139l-92.626 90.026a1.994 1.994 0 0 1-2.787-.008l-.218-.214a1.996 1.996 0 0 1 .008-2.854l77.907-75.721a2.044 2.044 0 0 1 .464-.693c6.562-6.373 10.248-14.92 10.378-24.066.13-9.144-3.309-17.793-9.685-24.35-6.377-6.562-14.925-10.248-24.073-10.377a27.855 27.855 0 0 0-.5-.004c-8.962 0-17.415 3.43-23.854 9.691a33.8 33.8 0 0 0-2.188 2.354 1.85 1.85 0 0 1-.129.137c-1.976 1.892-3.924 3.813-5.885 5.72l-17.974 17.469-24.19 23.51a536862.06 536862.06 0 0 0-42.888 41.682c-2.024 1.967-6.683 8.618-9.975 6.375-3.504-2.387 1.555-7.688 3.025-10.069l17.503-28.359 10.786-17.475c.042-.27.136-.531.279-.763 9.948-16.049 4.985-37.202-11.064-47.152-16.053-9.952-37.204-4.985-47.154 11.065-.51.83-1.016 1.747-1.544 2.797a2.094 2.094 0 0 1-.086.154l-79.247 128.055a1.384 1.384 0 0 1-.081.119 105.466 105.466 0 0 0-4.069 6.01c-12.329 19.895-17.354 43.609-14.146 66.766.009.064.015.129.017.195.453 11.498-.313 32.717-10.438 46.36a1.838 1.838 0 0 1-.413.618l-43.411 42.593zm469.517-76.18.004.004-.004-.004zm-34.128-68.273a.022.022 0 0 0 .004.005l-.004-.005zm-34.14-68.276.005.005c-.003-.001-.004-.003-.005-.005zm-186.758-45.371a.02.02 0 0 0 .006.004l-.006-.004z"/><path d="m1041.294 392.281 163.637 176.288-175.602 172.602V404.019z"/><path fill="#FFF" d="M1920 1080h-894.659V0H1920v1080zm-890.671-3.988h886.682V3.988h-886.682v1072.024z"/><path fill="#FFF" d="M1515.593 288.594a74.538 74.538 0 0 0-5.073-16.447l-52.966-102.567a74.274 74.274 0 0 0-34.458-36.013l-74.417-41.079c-2.744-1.515-5.684-2.691-8.77-3.236-18.651-3.298-36.312 12.629-33.513 32.614 28.1 200.635-64.88 393.082-80.874 424.32a31.023 31.023 0 0 1-5.633 7.754l-34.189 34.359a10.497 10.497 0 0 0-2.871 5.436l-15.597 81.565c-3.066 16.034 6.814 31.588 22.558 35.906 8.749 2.4 15.142 10.407 15.142 19.874v35.603c0 40.214 32.048 73.103 72.249 74.143l104.03 2.691h24.698c.333 0 .663-.015.989-.044 6.714-.606 10.91-7.641 8.823-14.051l-59.33-325.174c-4.383-19.677-2.238-29.616 7.306-37.94l128.268-110.215c18.874-16.996 28.26-42.526 23.628-67.499z"/><path fill="#FFD829" d="M1215.544 691.144a1.994 1.994 0 0 1-1.99-2.145l8.542-112.852a1.993 1.993 0 1 1 3.976.302l-8.542 112.852a1.992 1.992 0 0 1-1.986 1.843zM1312.655 811.471a1.994 1.994 0 0 1-1.987-1.848l-21.929-298.789a1.992 1.992 0 0 1 1.842-2.134c1.1-.09 2.054.744 2.135 1.842l21.929 298.789a1.994 1.994 0 0 1-1.99 2.14z"/><path fill="#FFD829" d="M1265.25 518.107a1.995 1.995 0 0 1-.19-3.978c.349-.034 35.25-3.688 63.092-28.72a1.993 1.993 0 1 1 2.666 2.966c-28.852 25.94-63.898 29.581-65.376 29.724a2.486 2.486 0 0 1-.192.008zM1351.527 372.652a2.002 2.002 0 0 1-1.381-3.447l111.365-106.288a2.002 2.002 0 0 1 2.828.066 2.002 2.002 0 0 1-.066 2.828L1352.908 372.1a1.996 1.996 0 0 1-1.381.552zM1352.69 270.638a2 2 0 0 1-1.401-3.428l73.971-72.549a2 2 0 1 1 2.801 2.855l-73.971 72.549a1.991 1.991 0 0 1-1.4.573z"/><circle cx="198.566" cy="460.573" r="106.727" fill="#FFD829"/><circle cx="643.99" cy="460.573" r="106.727" fill="#FFD829"/><path d="M397.132 763.088H1.994v-3.989h391.15V191.466H1.994v-3.989h395.138z"/><path fill="#FFD829" d="M83.536 461.268v45.755c0 63.529 51.501 115.03 115.03 115.03s115.03-51.501 115.03-115.03v-45.755"/><path d="M198.566 624.048c-64.528 0-117.024-52.497-117.024-117.025v-45.756h3.988v45.756c0 62.328 50.708 113.036 113.036 113.036s113.036-50.708 113.036-113.036v-45.756h3.988v45.756c.001 64.528-52.496 117.025-117.024 117.025zM368.82 226.829c-5.966 0-10.819-4.853-10.819-10.819 0-5.965 4.854-10.818 10.819-10.818 5.966 0 10.819 4.853 10.819 10.818-.001 5.966-4.854 10.819-10.819 10.819zm0-17.649a6.838 6.838 0 0 0-6.831 6.83c0 3.766 3.064 6.831 6.831 6.831s6.83-3.064 6.83-6.831a6.837 6.837 0 0 0-6.83-6.83zM26.704 226.829c-5.966 0-10.819-4.853-10.819-10.819 0-5.965 4.853-10.818 10.819-10.818s10.819 4.853 10.819 10.818c0 5.966-4.853 10.819-10.819 10.819zm0-17.649a6.837 6.837 0 0 0-6.83 6.83c0 3.766 3.064 6.831 6.83 6.831s6.831-3.064 6.831-6.831a6.837 6.837 0 0 0-6.831-6.83zM368.82 745.125c-5.966 0-10.819-4.853-10.819-10.818 0-5.966 4.854-10.819 10.819-10.819 5.966 0 10.819 4.853 10.819 10.819-.001 5.965-4.854 10.818-10.819 10.818zm0-17.649c-3.766 0-6.831 3.064-6.831 6.831s3.064 6.83 6.831 6.83 6.83-3.063 6.83-6.83-3.064-6.831-6.83-6.831zM26.704 745.125c-5.966 0-10.819-4.853-10.819-10.818 0-5.966 4.853-10.819 10.819-10.819s10.819 4.853 10.819 10.819c0 5.965-4.853 10.818-10.819 10.818zm0-17.649c-3.766 0-6.83 3.064-6.83 6.831s3.064 6.83 6.83 6.83 6.831-3.063 6.831-6.83-3.064-6.831-6.831-6.831zM121.016 264.025c-1.535 0-2.301-.907-2.301-2.022s.767-2.022 2.301-2.022h29.641c1.535 0 2.301.907 2.301 2.022s-.767 2.022-2.301 2.022c-2.511 0-9.973-.208-12.693-.278v34.663c0 1.534-.907 2.371-2.162 2.371-1.256 0-2.092-.837-2.092-2.371v-34.663c-2.651.069-10.183.278-12.694.278zM167.394 259.98h9.834c7.741 0 14.925 3.348 14.925 11.787 0 6.765-4.603 10.252-10.392 11.368l9.416 13.391c.628.907.907 1.534.907 2.371 0 1.116-.837 1.883-1.953 1.883s-1.674-.628-2.511-1.814l-10.392-15.413h-7.811v14.856c0 1.534-.907 2.371-2.162 2.371-1.256 0-2.093-.837-2.093-2.371v-36.198c0-1.394.837-2.231 2.232-2.231zm9.834 3.905h-7.811v15.762h7.811c6.277 0 10.531-2.79 10.531-7.88 0-5.092-4.255-7.882-10.531-7.882zM206.03 285.506v-24.131c0-1.535.837-2.372 2.092-2.372 1.256 0 2.162.837 2.162 2.372v24.131c0 8.021 3.487 11.298 9.137 11.298 5.789 0 9.276-3.278 9.276-11.298v-24.131c0-1.535.837-2.372 2.093-2.372 1.255 0 2.162.837 2.162 2.372v24.131c0 9.485-4.394 15.274-13.53 15.274-8.999 0-13.392-5.789-13.392-15.274zM248.432 297.572v-35.36c0-1.394.837-2.232 2.232-2.232h22.946c1.535 0 2.301.907 2.301 2.022s-.767 2.022-2.301 2.022c-3.208 0-16.111-.208-20.923-.278v13.879c4.812-.069 13.181-.209 15.483-.209 1.535 0 2.302.908 2.302 2.023s-.767 2.022-2.302 2.022c-2.301 0-10.322-.14-15.483-.209v14.785c5.231-.069 17.715-.279 20.923-.279 1.535 0 2.301.907 2.301 2.022s-.767 2.022-2.301 2.022h-22.946c-1.395.002-2.232-.836-2.232-2.23zM1.994 761.093h393.144v16.937H1.994z"/><path d="M397.132 780.025H0v-20.926h397.132v20.926zM3.988 776.037h389.156v-12.949H3.988v12.949zM842.468 763.088H445.336v-575.61h397.132v575.61zm-393.144-3.989h389.155V191.466H449.324v567.633z"/><path fill="#FFF" d="M643.902 624.048c-64.528 0-117.024-52.497-117.024-117.025v-45.756h3.988v45.756c0 62.328 50.708 113.036 113.036 113.036s113.036-50.708 113.036-113.036v-45.756h3.988v45.756c0 64.528-52.497 117.025-117.024 117.025z"/><path d="M814.155 226.829c-5.966 0-10.819-4.853-10.819-10.819 0-5.965 4.853-10.818 10.819-10.818 5.966 0 10.819 4.853 10.819 10.818 0 5.966-4.853 10.819-10.819 10.819zm0-17.649a6.837 6.837 0 0 0-6.83 6.83c0 3.766 3.064 6.831 6.83 6.831a6.839 6.839 0 0 0 6.831-6.831 6.838 6.838 0 0 0-6.831-6.83zM472.04 226.829c-5.966 0-10.819-4.853-10.819-10.819 0-5.965 4.854-10.818 10.819-10.818 5.966 0 10.819 4.853 10.819 10.818 0 5.966-4.853 10.819-10.819 10.819zm0-17.649a6.838 6.838 0 0 0-6.831 6.83c0 3.766 3.064 6.831 6.831 6.831s6.83-3.064 6.83-6.831a6.837 6.837 0 0 0-6.83-6.83zM814.155 745.125c-5.966 0-10.819-4.853-10.819-10.818 0-5.966 4.853-10.819 10.819-10.819 5.966 0 10.819 4.853 10.819 10.819 0 5.965-4.853 10.818-10.819 10.818zm0-17.649c-3.766 0-6.83 3.064-6.83 6.831s3.064 6.83 6.83 6.83 6.831-3.063 6.831-6.83-3.065-6.831-6.831-6.831zM472.04 745.125c-5.966 0-10.819-4.853-10.819-10.818 0-5.966 4.854-10.819 10.819-10.819 5.966 0 10.819 4.853 10.819 10.819 0 5.965-4.853 10.818-10.819 10.818zm0-17.649c-3.766 0-6.831 3.064-6.831 6.831s3.064 6.83 6.831 6.83 6.83-3.063 6.83-6.83-3.064-6.831-6.83-6.831zM575.906 262.002c0 1.116-.767 2.022-2.301 2.022-3.417 0-15.902-.208-21.62-.278v16.39c5.719-.07 13.879-.209 16.181-.209 1.534 0 2.301.907 2.301 2.022 0 1.116-.767 2.022-2.301 2.022-2.302 0-10.462-.139-16.181-.209v14.647c0 1.534-.907 2.371-2.162 2.371-1.256 0-2.093-.837-2.093-2.371v-36.198c0-1.394.837-2.232 2.232-2.232h23.643c1.534.001 2.301.907 2.301 2.023zM588.598 298.409v-24.132c0-9.345 4.324-15.274 13.46-15.274 9.137 0 13.46 5.929 13.46 15.274v24.132c0 1.534-.907 2.371-2.162 2.371-1.256 0-2.093-.837-2.093-2.371v-12.275h-18.412v12.275c0 1.534-.837 2.371-2.093 2.371-1.253 0-2.16-.837-2.16-2.371zm13.461-35.5c-6.347 0-9.206 3.906-9.206 11.439v7.951h18.412v-7.951c0-7.534-2.86-11.439-9.206-11.439zM633.372 259.003c1.256 0 2.162.837 2.162 2.372v34.662c4.882-.069 17.715-.279 20.923-.279 1.535 0 2.301.907 2.301 2.022s-.767 2.022-2.301 2.022h-22.946c-1.395 0-2.232-.837-2.232-2.232v-36.197c0-1.532.837-2.37 2.093-2.37zM673.123 297.433c-1.814-1.186-2.651-1.953-2.651-3.279 0-1.046.907-1.883 1.953-1.883s1.744.489 3.417 1.675c2.651 1.813 5.929 2.859 9.625 2.859 5.58 0 10.95-2.51 10.95-7.602 0-4.324-4.185-6.208-10.95-7.881-9.137-2.232-14.297-5.022-14.297-11.925 0-6.278 6.068-10.393 13.67-10.393 4.743 0 9.485 1.325 12.693 3.837.837.627 1.395 1.185 1.395 2.162 0 1.116-.767 2.022-2.022 2.022-.907 0-1.535-.419-2.511-1.046-2.65-1.813-5.928-2.999-9.625-2.999-5.858 0-9.206 2.79-9.206 6.556 0 4.533 4.812 6.137 10.461 7.602 9.067 2.302 14.786 4.673 14.786 11.926 0 7.532-6.626 11.717-15.274 11.717-5.439-.001-9.624-1.535-12.414-3.348zM714.689 297.572v-35.36c0-1.394.837-2.232 2.232-2.232h22.946c1.535 0 2.301.907 2.301 2.022s-.767 2.022-2.301 2.022c-3.208 0-16.111-.208-20.923-.278v13.879c4.812-.069 13.181-.209 15.483-.209 1.535 0 2.302.908 2.302 2.023s-.767 2.022-2.302 2.022c-2.301 0-10.322-.14-15.483-.209v14.785c5.231-.069 17.715-.279 20.923-.279 1.535 0 2.301.907 2.301 2.022s-.767 2.022-2.301 2.022h-22.946c-1.395.002-2.232-.836-2.232-2.23zM447.33 761.093h393.144v16.937H447.33z"/><path d="M842.468 780.025H445.336v-20.926h397.132v20.926zm-393.144-3.988h389.155v-12.949H449.324v12.949zM1.994 978.58h375.65v3.988H1.994z"/><path fill="#FFD829" d="m892.665 803.999-9.16-51.947c-5.339-29.871-33.9-49.84-63.799-44.581-29.903 5.242-49.801 33.725-44.458 63.596l3.226 20.081-.459.093-9.127-54.565s-.255.041-.253-.022c-5.352-29.869-33.909-49.838-63.811-44.597-29.888 5.266-49.797 33.743-44.446 63.612l9.388 54.576-.455.087-10.271-60.492c-5.353-29.873-33.927-49.839-63.82-44.595-29.89 5.262-49.798 33.739-44.446 63.608l10.284 60.485-.454.092-29.5-163.348c-5.336-29.881-33.905-49.843-63.796-44.586-29.901 5.25-49.799 33.729-44.446 63.607l37.52 208.221-41.61-85.607c-12.429-27.71-44.97-40.181-72.679-27.852-27.704 12.333-40.097 44.798-27.665 72.521a59.662 59.662 0 0 0 2.325 4.56l93.683 208.457c1.274 3.487 2.635 6.954 4.176 10.415.119.266.245.526.365.791h473.689v-272.61z"/><path d="M418.977 1078.603a1.995 1.995 0 0 1-1.817-1.17l-.369-.799c-1.408-3.163-2.783-6.589-4.205-10.478l-93.617-208.312a61.593 61.593 0 0 1-2.358-4.634c-6.239-13.914-6.682-29.396-1.251-43.602 5.421-14.178 16.047-25.387 29.921-31.564 28.666-12.755 62.451.19 75.31 28.858l35.265 72.549-34.957-193.994c-2.684-14.977.63-30.082 9.329-42.533 8.701-12.453 21.747-20.76 36.735-23.392 30.932-5.436 60.583 15.286 66.103 46.2l15.408 85.317c1.243-8.659 4.506-16.97 9.66-24.351 8.701-12.46 21.749-20.776 36.74-23.415 27.172-4.764 53.377 10.659 63.089 35.439 1.148-8.966 4.453-17.584 9.776-25.207 8.701-12.461 21.748-20.779 36.739-23.42 30.625-5.37 60.012 14.913 65.954 45.319.214.261.364.578.424.935l2.459 14.7c1.455-7.868 4.593-15.406 9.315-22.16 8.703-12.449 21.748-20.751 36.732-23.378 30.927-5.449 60.581 15.283 66.106 46.195l9.161 51.951a1.995 1.995 0 0 1-3.928.694l-9.16-51.947c-5.137-28.75-32.725-48.03-61.489-42.964-13.934 2.443-26.063 10.162-34.153 21.736-8.093 11.576-11.178 25.62-8.687 39.545l3.232 20.115a1.995 1.995 0 0 1-1.575 2.272l-.459.092a1.998 1.998 0 0 1-2.361-1.627l-8.977-53.672a2.065 2.065 0 0 1-.398-.892h-.001c-5.15-28.742-32.737-48.029-61.504-42.985-13.938 2.457-26.069 10.19-34.159 21.776-8.082 11.574-11.16 25.609-8.668 39.521l9.39 54.59a1.994 1.994 0 0 1-1.593 2.297l-.455.087a1.993 1.993 0 0 1-2.339-1.625l-10.272-60.491c-5.148-28.729-32.742-48.017-61.509-42.965-13.938 2.455-26.07 10.186-34.16 21.771-8.083 11.574-11.16 25.61-8.668 39.522l10.287 60.502a1.994 1.994 0 0 1-1.572 2.289l-.454.092a1.992 1.992 0 0 1-2.356-1.601l-29.5-163.348c-5.135-28.759-32.72-48.031-61.487-42.977-13.937 2.447-26.067 10.171-34.156 21.748-8.087 11.576-11.168 25.619-8.673 39.543l37.52 208.219a1.992 1.992 0 0 1-1.344 2.249 1.992 1.992 0 0 1-2.412-1.024l-41.611-85.607c-11.988-26.723-43.413-38.765-70.075-26.901-12.899 5.742-22.778 16.164-27.818 29.344-5.051 13.21-4.638 27.606 1.161 40.54a57.878 57.878 0 0 0 2.245 4.401c.029.052.055.103.079.157l93.683 208.458c.02.044.038.089.054.133 1.399 3.831 2.748 7.196 4.125 10.288l.36.777a1.996 1.996 0 0 1-.992 2.641 2.118 2.118 0 0 1-.823.173z"/><path fill="#FFD829" d="M469.882 637.828c-20.869 3.783-34.719 23.768-30.935 44.636 2.196 12.115 9.858 21.854 19.977 27.162a38.224 38.224 0 0 0 24.659 3.773 38.211 38.211 0 0 0 20.88-11.23c8.205-8.582 12.335-20.831 10.055-33.407-3.783-20.867-23.767-34.717-44.636-30.934z"/><path d="M476.649 716.022c-6.461 0-12.803-1.562-18.651-4.629-11.12-5.833-18.779-16.247-21.013-28.573-3.974-21.916 10.624-42.98 32.541-46.954 21.923-3.978 42.981 10.625 46.954 32.542 2.298 12.673-1.656 25.81-10.575 35.139-5.925 6.198-13.521 10.284-21.966 11.814a40.772 40.772 0 0 1-7.29.661zm-6.411-76.232c-19.753 3.581-32.91 22.565-29.329 42.319 2.014 11.108 8.917 20.494 18.942 25.751 7.244 3.801 15.327 5.037 23.377 3.578 7.611-1.38 14.456-5.061 19.795-10.646 8.041-8.411 11.605-20.251 9.534-31.673-3.581-19.752-22.562-32.911-42.319-29.329z"/><path fill="#FFF" d="M478.635 686.851c-10.423 1.89-17.911 10.794-19.51 20.688 8.176 4.742 15.872 5.452 24.626 3.865 8.293-1.503 15.208-5.939 20.717-12.132-4.814-9.148-15.123-14.362-25.833-12.421z"/><path fill="#FFD829" d="M342.939 805.218c-19.801 7.599-29.693 29.81-22.094 49.611 4.411 11.495 13.75 19.64 24.68 22.973a38.223 38.223 0 0 0 24.931-.879 38.215 38.215 0 0 0 18.427-14.917c6.465-9.958 8.246-22.761 3.667-34.694-7.599-19.801-29.81-29.693-49.611-22.094z"/><path d="M356.738 881.483c-3.951 0-7.911-.59-11.795-1.774-12.01-3.662-21.472-12.471-25.96-24.166-7.98-20.796 2.446-44.207 23.241-52.187 20.794-7.979 44.207 2.446 52.187 23.241 4.615 12.025 3.174 25.668-3.856 36.495-4.669 7.191-11.372 12.618-19.385 15.693-4.683 1.797-9.55 2.698-14.432 2.698zm-13.085-74.404c-18.742 7.193-28.139 28.293-20.947 47.034 4.045 10.541 12.574 18.48 23.4 21.781 7.824 2.386 15.998 2.097 23.635-.833 7.221-2.771 13.262-7.661 17.469-14.141 6.337-9.76 7.637-22.057 3.477-32.894-7.191-18.742-28.29-28.138-47.034-20.947z"/><path fill="#FFF" d="M360.656 851.758c-9.889 3.795-15.591 13.936-15.322 23.955 8.915 3.138 16.609 2.405 24.915-.782 7.868-3.019 13.838-8.664 18.099-15.774-6.431-8.093-17.53-11.299-27.692-7.399z"/><path d="M1.994 60.384h892.844v3.988H1.994z"/><path fill="#FFF" d="M894.66 1080H0V0h894.66v1080zm-890.672-3.988h886.683V3.988H3.988v1072.024z"/><path d="M198.566 346.238c-63.529 0-115.03 51.501-115.03 115.03s51.501 115.03 115.03 115.03 115.03-51.501 115.03-115.03c.001-63.53-51.5-115.03-115.03-115.03zm61.797 171.715c-9.163 0-16.618-7.456-16.618-16.618s7.455-16.617 16.618-16.617c9.163 0 16.618 7.454 16.618 16.617s-7.455 16.618-16.618 16.618zm11.651-46.859c-7.724 0-13.985-6.262-13.985-13.985 0-32.788-26.675-59.462-59.462-59.462-7.724 0-13.985-6.262-13.985-13.985s6.261-13.985 13.985-13.985c48.21 0 87.433 39.222 87.433 87.433-.001 7.722-6.262 13.984-13.986 13.984z"/><path d="M198.566 578.292c-64.528 0-117.025-52.497-117.025-117.025 0-64.527 52.497-117.024 117.025-117.024s117.025 52.497 117.025 117.024c0 64.528-52.497 117.025-117.025 117.025zm0-230.06c-62.328 0-113.036 50.707-113.036 113.035s50.708 113.036 113.036 113.036 113.036-50.708 113.036-113.036-50.707-113.035-113.036-113.035zm61.797 171.715c-10.263 0-18.612-8.35-18.612-18.613 0-10.262 8.349-18.611 18.612-18.611 10.263 0 18.612 8.349 18.612 18.611 0 10.263-8.349 18.613-18.612 18.613zm0-33.236c-8.064 0-14.624 6.56-14.624 14.623 0 8.064 6.56 14.625 14.624 14.625s14.624-6.561 14.624-14.625c0-8.063-6.56-14.623-14.624-14.623zm11.651-13.623c-8.811 0-15.979-7.169-15.979-15.98 0-31.687-25.78-57.467-57.468-57.467-8.811 0-15.979-7.169-15.979-15.98s7.168-15.98 15.979-15.98c49.31 0 89.427 40.117 89.427 89.427-.001 8.811-7.169 15.98-15.98 15.98zm-73.448-101.419c-6.612 0-11.991 5.379-11.991 11.992s5.379 11.992 11.991 11.992c33.887 0 61.456 27.568 61.456 61.455 0 6.613 5.379 11.992 11.991 11.992s11.991-5.379 11.991-11.992c.001-47.112-38.327-85.439-85.438-85.439z"/><path fill="#FFF" d="M643.902 346.238c-63.529 0-115.03 51.501-115.03 115.03s51.501 115.03 115.03 115.03 115.03-51.501 115.03-115.03c0-63.53-51.501-115.03-115.03-115.03zm0 51.408c-7.724 0-13.985-6.262-13.985-13.985s6.261-13.985 13.985-13.985c48.21 0 87.433 39.222 87.433 87.433 0 7.723-6.261 13.985-13.985 13.985-7.724 0-13.985-6.262-13.985-13.985-.001-32.788-26.676-59.463-59.463-59.463zm67.413 120.307c-9.163 0-16.618-7.456-16.618-16.618s7.455-16.617 16.618-16.617 16.618 7.454 16.618 16.617-7.456 16.618-16.618 16.618z"/><path fill="#FFF" d="M643.902 578.292c-64.528 0-117.025-52.497-117.025-117.025 0-64.527 52.497-117.024 117.025-117.024s117.024 52.497 117.024 117.024c0 64.528-52.496 117.025-117.024 117.025zm0-230.06c-62.328 0-113.036 50.707-113.036 113.035s50.708 113.036 113.036 113.036 113.036-50.708 113.036-113.036-50.708-113.035-113.036-113.035zm67.412 171.715c-10.263 0-18.612-8.35-18.612-18.613 0-10.262 8.349-18.611 18.612-18.611 10.263 0 18.612 8.349 18.612 18.611.001 10.263-8.349 18.613-18.612 18.613zm0-33.236c-8.063 0-14.624 6.56-14.624 14.623 0 8.064 6.56 14.625 14.624 14.625s14.624-6.561 14.624-14.625c0-8.063-6.56-14.623-14.624-14.623zm6.035-13.623c-8.811 0-15.979-7.169-15.979-15.98 0-31.687-25.78-57.467-57.468-57.467-8.811 0-15.979-7.169-15.979-15.98s7.168-15.98 15.979-15.98c49.31 0 89.427 40.117 89.427 89.427-.001 8.811-7.169 15.98-15.98 15.98zm-73.447-101.419c-6.612 0-11.991 5.379-11.991 11.992s5.379 11.992 11.991 11.992c33.887 0 61.456 27.568 61.456 61.455 0 6.613 5.379 11.992 11.991 11.992s11.991-5.379 11.991-11.992c0-47.112-38.328-85.439-85.438-85.439z"/></svg>