<svg xmlns="http://www.w3.org/2000/svg" xml:space="preserve" viewBox="0 0 1080 1080"><circle cx="126.731" cy="292.982" r="67.721" fill="#FFD829"/><circle cx="409.365" cy="292.982" r="67.721" fill="#FFD829"/><path d="M253.461 485.671H2v-4h247.461V122.96H2v-4h251.461z"/><path fill="#FFD829" d="M53.741 293.423v29.033c0 40.311 32.679 72.99 72.99 72.99s72.99-32.679 72.99-72.99v-29.033"/><path d="M126.73 397.445c-41.35 0-74.99-33.64-74.99-74.989v-29.033h4v29.033c0 39.144 31.846 70.989 70.99 70.989s70.99-31.846 70.99-70.989v-29.033h4v29.033c.001 41.35-33.64 74.989-74.99 74.989zM234.762 145.398c-4.19 0-7.6-3.409-7.6-7.6 0-4.189 3.409-7.599 7.6-7.599s7.6 3.409 7.6 7.599c-.001 4.191-3.41 7.6-7.6 7.6zm0-11.198c-1.984 0-3.6 1.614-3.6 3.599s1.615 3.6 3.6 3.6 3.6-1.615 3.6-3.6-1.616-3.599-3.6-3.599zM17.68 145.398c-4.19 0-7.6-3.409-7.6-7.6 0-4.189 3.409-7.599 7.6-7.599s7.6 3.409 7.6 7.599c-.001 4.191-3.41 7.6-7.6 7.6zm0-11.198c-1.984 0-3.6 1.614-3.6 3.599s1.615 3.6 3.6 3.6 3.6-1.615 3.6-3.6-1.616-3.599-3.6-3.599zM234.762 474.273c-4.19 0-7.6-3.409-7.6-7.6s3.409-7.6 7.6-7.6 7.6 3.409 7.6 7.6-3.41 7.6-7.6 7.6zm0-11.199c-1.984 0-3.6 1.615-3.6 3.6s1.615 3.6 3.6 3.6 3.6-1.615 3.6-3.6-1.616-3.6-3.6-3.6zM17.68 474.273c-4.19 0-7.6-3.409-7.6-7.6s3.409-7.6 7.6-7.6 7.6 3.409 7.6 7.6-3.41 7.6-7.6 7.6zm0-11.199c-1.984 0-3.6 1.615-3.6 3.6s1.615 3.6 3.6 3.6 3.6-1.615 3.6-3.6-1.616-3.6-3.6-3.6zM77.521 168.268c-.974 0-1.461-.575-1.461-1.283s.487-1.283 1.461-1.283h18.806c.974 0 1.461.575 1.461 1.283s-.487 1.283-1.461 1.283c-1.593 0-6.327-.133-8.054-.178v21.993c0 .974-.575 1.504-1.371 1.504-.797 0-1.328-.53-1.328-1.504V168.09c-1.681.045-6.46.178-8.053.178zM106.949 165.701h6.239c4.912 0 9.47 2.124 9.47 7.478 0 4.293-2.921 6.505-6.594 7.213l5.974 8.496c.398.575.575.974.575 1.505 0 .708-.53 1.194-1.238 1.194s-1.062-.397-1.594-1.15l-6.593-9.779h-4.956v9.426c0 .974-.575 1.504-1.372 1.504-.796 0-1.327-.53-1.327-1.504v-22.966c0-.887.531-1.417 1.416-1.417zm6.239 2.478h-4.956v10.001h4.956c3.982 0 6.682-1.771 6.682-5.001 0-3.23-2.699-5-6.682-5zM131.464 181.896v-15.311c0-.974.531-1.505 1.328-1.505.796 0 1.372.531 1.372 1.505v15.311c0 5.089 2.212 7.169 5.796 7.169 3.673 0 5.886-2.08 5.886-7.169v-15.311c0-.974.531-1.505 1.327-1.505.797 0 1.372.531 1.372 1.505v15.311c0 6.018-2.788 9.69-8.585 9.69-5.708.001-8.496-3.672-8.496-9.69zM158.37 189.552v-22.435c0-.886.531-1.416 1.416-1.416h14.559c.974 0 1.46.575 1.46 1.283s-.486 1.283-1.46 1.283c-2.036 0-10.222-.133-13.275-.178v8.807c3.054-.045 8.363-.133 9.823-.133.974 0 1.461.575 1.461 1.283s-.487 1.283-1.461 1.283c-1.46 0-6.549-.089-9.823-.133v9.381c3.318-.044 11.239-.177 13.275-.177.974 0 1.46.575 1.46 1.283s-.486 1.283-1.46 1.283h-14.559c-.885.002-1.416-.529-1.416-1.414zM2 483.67h249.461v10.747H2z"/><path d="M253.461 496.418H0v-14.747h253.461v14.747zM4 492.418h245.461v-6.747H4v6.747zM286.578 483.671h-4V118.96H536.04v275.279h-4V122.96H286.578z"/><path fill="#FFF" d="M409.309 397.445c-41.35 0-74.989-33.64-74.989-74.989v-29.033h4v29.033c0 39.144 31.846 70.989 70.989 70.989 39.145 0 70.99-31.846 70.99-70.989v-29.033h4v29.033c0 41.35-33.641 74.989-74.99 74.989z"/><path d="M517.34 145.398c-4.19 0-7.6-3.409-7.6-7.6 0-4.189 3.409-7.599 7.6-7.599s7.6 3.409 7.6 7.599c-.001 4.191-3.41 7.6-7.6 7.6zm0-11.198c-1.984 0-3.6 1.614-3.6 3.599s1.615 3.6 3.6 3.6 3.6-1.615 3.6-3.6-1.616-3.599-3.6-3.599zM300.258 145.398c-4.19 0-7.6-3.409-7.6-7.6 0-4.189 3.409-7.599 7.6-7.599s7.6 3.409 7.6 7.599c-.001 4.191-3.41 7.6-7.6 7.6zm0-11.198c-1.984 0-3.6 1.614-3.6 3.599s1.615 3.6 3.6 3.6 3.6-1.615 3.6-3.6-1.616-3.599-3.6-3.599zM300.258 474.273c-4.19 0-7.6-3.409-7.6-7.6s3.409-7.6 7.6-7.6 7.6 3.409 7.6 7.6-3.41 7.6-7.6 7.6zm0-11.199c-1.984 0-3.6 1.615-3.6 3.6s1.615 3.6 3.6 3.6 3.6-1.615 3.6-3.6-1.616-3.6-3.6-3.6zM366.161 166.984c0 .708-.486 1.283-1.46 1.283-2.169 0-10.09-.133-13.718-.178v10.399c3.628-.044 8.806-.133 10.266-.133.974 0 1.461.575 1.461 1.283s-.487 1.283-1.461 1.283c-1.46 0-6.638-.089-10.266-.133v9.293c0 .974-.575 1.504-1.372 1.504-.796 0-1.327-.53-1.327-1.504v-22.966c0-.886.531-1.416 1.416-1.416h15.001c.974.002 1.46.577 1.46 1.285zM374.216 190.083v-15.311c0-5.93 2.744-9.691 8.541-9.691s8.54 3.762 8.54 9.691v15.311c0 .974-.575 1.504-1.372 1.504-.796 0-1.327-.53-1.327-1.504v-7.788h-11.682v7.788c0 .974-.531 1.504-1.328 1.504s-1.372-.53-1.372-1.504zm8.541-22.523c-4.027 0-5.841 2.478-5.841 7.257v5.045h11.682v-5.045c0-4.78-1.815-7.257-5.841-7.257zM402.626 165.081c.796 0 1.371.531 1.371 1.505v21.992c3.098-.044 11.24-.177 13.275-.177.974 0 1.46.575 1.46 1.283s-.486 1.283-1.46 1.283h-14.559c-.885 0-1.416-.531-1.416-1.416v-22.966c.001-.973.532-1.504 1.329-1.504zM427.85 189.463c-1.15-.752-1.682-1.238-1.682-2.079 0-.664.575-1.195 1.239-1.195s1.106.31 2.168 1.062c1.682 1.15 3.762 1.814 6.106 1.814 3.541 0 6.948-1.594 6.948-4.824 0-2.743-2.655-3.938-6.948-5-5.796-1.416-9.071-3.186-9.071-7.566 0-3.982 3.851-6.594 8.674-6.594 3.009 0 6.018.841 8.054 2.434.53.398.885.753.885 1.372 0 .708-.487 1.283-1.283 1.283-.575 0-.974-.266-1.594-.664a10.755 10.755 0 0 0-6.106-1.902c-3.717 0-5.841 1.771-5.841 4.159 0 2.877 3.054 3.895 6.638 4.823 5.753 1.461 9.381 2.965 9.381 7.567 0 4.779-4.203 7.434-9.69 7.434-3.454 0-6.108-.973-7.878-2.124zM454.225 189.552v-22.435c0-.886.531-1.416 1.416-1.416H470.2c.974 0 1.46.575 1.46 1.283s-.486 1.283-1.46 1.283c-2.036 0-10.222-.133-13.275-.178v8.807c3.054-.045 8.363-.133 9.823-.133.974 0 1.461.575 1.461 1.283s-.487 1.283-1.461 1.283c-1.46 0-6.549-.089-9.823-.133v9.381c3.318-.044 11.239-.177 13.275-.177.974 0 1.46.575 1.46 1.283s-.486 1.283-1.46 1.283h-14.559c-.885.002-1.416-.529-1.416-1.414zM2 620.938h238.361v4H2z"/><path fill="#FFD829" d="M512.598 451.353c-15.396 5.778-24.947 21.867-21.946 38.647l2.047 12.742-.291.059-5.791-34.623s-.162.026-.161-.014c-3.396-18.953-21.516-31.624-40.49-28.298-18.965 3.342-31.598 21.411-28.202 40.364l5.957 34.63-.289.055-6.518-38.384c-3.396-18.955-21.527-31.624-40.495-28.297-18.966 3.339-31.598 21.408-28.202 40.361l6.525 38.379-.288.058-18.719-103.649c-3.386-18.96-21.514-31.627-40.48-28.291-18.973 3.331-31.599 21.402-28.202 40.36l23.808 132.123-26.403-54.32c-7.887-17.583-28.535-25.496-46.117-17.673-17.579 7.826-25.443 28.425-17.554 46.017.452.998.947 1.952 1.475 2.893l59.444 132.272a102.982 102.982 0 0 0 2.65 6.608c.076.169.156.334.232.502h247.689l.321-232.521z"/><path d="M264.588 685.873a1.996 1.996 0 0 1-1.82-1.17l-.237-.514a105.403 105.403 0 0 1-2.679-6.671L200.473 545.39a39.23 39.23 0 0 1-1.509-2.969c-4.04-9.009-4.327-19.033-.811-28.23 3.51-9.18 10.39-16.438 19.373-20.438 18.561-8.259 40.432.122 48.756 18.682l20.039 41.226-21.237-117.854c-1.737-9.697.407-19.478 6.04-27.539 5.634-8.063 14.081-13.442 23.785-15.146 20.027-3.521 39.22 9.895 42.795 29.909l9.089 50.326a36.731 36.731 0 0 1 5.492-11.934c5.634-8.067 14.081-13.451 23.787-15.16 16.726-2.934 32.884 5.951 39.839 20.62a36.64 36.64 0 0 1 5.922-13.825c5.633-8.067 14.081-13.453 23.787-15.163 19.767-3.467 38.744 9.58 42.664 29.176.151.228.258.489.306.775l.971 5.805c3.116-10.723 11.046-19.809 21.993-24.042a2 2 0 0 1 1.443 3.731c-14.562 5.632-23.132 20.901-20.376 36.307l2.053 12.777a2 2 0 0 1-1.58 2.278l-.291.059a2.009 2.009 0 0 1-1.529-.313 2.005 2.005 0 0 1-.838-1.317l-5.669-33.895a2.05 2.05 0 0 1-.279-.72c-3.195-17.841-20.317-29.81-38.175-26.681-8.65 1.524-16.18 6.323-21.2 13.514-5.016 7.183-6.926 15.894-5.379 24.527l5.958 34.644a2 2 0 0 1-1.591 2.303l-.288.056a2.014 2.014 0 0 1-1.519-.319 2.004 2.004 0 0 1-.833-1.31l-6.519-38.384c-3.194-17.825-20.32-29.798-38.178-26.662-8.65 1.523-16.18 6.321-21.2 13.511-5.016 7.184-6.927 15.894-5.379 24.527l6.528 38.397a2 2 0 0 1-1.579 2.296l-.288.058a1.998 1.998 0 0 1-2.361-1.606l-18.719-103.648c-3.189-17.853-20.312-29.82-38.166-26.677-8.65 1.519-16.178 6.312-21.198 13.497-5.02 7.184-6.931 15.899-5.382 24.541l23.808 132.12a2 2 0 0 1-3.768 1.229l-26.403-54.32c-7.45-16.608-26.956-24.085-43.505-16.72-8.006 3.564-14.137 10.032-17.264 18.212-3.135 8.197-2.878 17.133.722 25.159.387.856.845 1.753 1.395 2.734.028.052.055.104.079.157l59.444 132.272c.02.044.038.089.054.134.889 2.429 1.738 4.549 2.6 6.481l.224.484a1.998 1.998 0 0 1-1.818 2.831z"/><path fill="#FFD829" d="M298.889 405.455c-13.242 2.401-22.03 15.081-19.629 28.323 1.394 7.687 6.255 13.867 12.676 17.235a24.257 24.257 0 0 0 15.647 2.394 24.248 24.248 0 0 0 13.249-7.126c5.206-5.445 7.827-13.218 6.38-21.197-2.401-13.241-15.082-22.029-28.323-19.629z"/><path d="M301.19 455.804c-4.219 0-8.357-1.02-12.175-3.021-7.258-3.808-12.257-10.604-13.715-18.65-1.257-6.93.261-13.934 4.272-19.723 4.012-5.788 10.037-9.668 16.968-10.925 14.298-2.6 28.054 6.935 30.647 21.241 1.5 8.272-1.081 16.847-6.903 22.936a26.161 26.161 0 0 1-14.338 7.712c-1.588.288-3.178.43-4.756.43zm-3.937-48.383a22.22 22.22 0 0 0-14.394 9.269 22.218 22.218 0 0 0-3.624 16.73c1.237 6.823 5.479 12.59 11.637 15.82a22.14 22.14 0 0 0 14.361 2.198 22.197 22.197 0 0 0 12.16-6.54c4.94-5.168 7.13-12.441 5.858-19.459-2.2-12.136-13.866-20.214-25.998-18.018z"/><path fill="#FFF" d="M302.345 435.388c-6.613 1.199-11.365 7.072-12.379 13.35 5.188 3.009 10.091 3.635 15.645 2.628 5.262-.954 9.98-3.888 13.126-8.097-3.054-5.804-9.596-9.113-16.392-7.881z"/><path fill="#FFD829" d="M218.339 511.669c-12.564 4.822-18.841 18.915-14.019 31.48 2.799 7.294 8.725 12.462 15.66 14.577a24.251 24.251 0 0 0 15.819-.558 24.25 24.25 0 0 0 11.693-9.465c4.102-6.319 5.232-14.443 2.327-22.014-4.822-12.565-18.916-18.842-31.48-14.02z"/><path d="M227.097 560.797c-2.579 0-5.164-.386-7.699-1.158-7.84-2.391-14.016-8.14-16.944-15.773-2.523-6.575-2.336-13.74.53-20.174 2.864-6.434 8.063-11.366 14.639-13.89 6.574-2.522 13.738-2.335 20.174.53 6.434 2.865 11.367 8.064 13.891 14.64 3.012 7.85 2.071 16.754-2.517 23.819a26.181 26.181 0 0 1-12.653 10.244 26.249 26.249 0 0 1-9.421 1.762zm-.02-48.758c-2.707 0-5.418.498-8.021 1.497a22.224 22.224 0 0 0-12.419 11.782 22.216 22.216 0 0 0-.449 17.113c2.484 6.476 7.725 11.353 14.376 13.381a22.143 22.143 0 0 0 14.52-.512 22.194 22.194 0 0 0 10.731-8.688c3.894-5.996 4.692-13.551 2.138-20.208a22.225 22.225 0 0 0-11.783-12.42 22.339 22.339 0 0 0-9.093-1.945zm-8.738-.37h.01-.01z"/><path fill="#FFF" d="M229.252 540.267c-6.275 2.408-9.893 8.843-9.722 15.2 5.657 1.991 10.761 1.667 16.031-.356 4.993-1.916 8.559-5.638 11.262-10.149-4.08-5.135-11.123-7.17-17.571-4.695z"/><path d="M2 38.315h566.535v4H2z"/><path fill="#FFF" d="M516.34 686.761H0V0h569.156v395.239h-4V4H4v678.761h512.34z"/><path d="M126.731 220.433c-40.311 0-72.99 32.679-72.99 72.99 0 40.311 32.679 72.99 72.99 72.99 40.311 0 72.99-32.679 72.99-72.99 0-40.312-32.679-72.99-72.99-72.99zm39.212 108.958c-5.814 0-10.544-4.731-10.544-10.545s4.73-10.544 10.544-10.544 10.544 4.73 10.544 10.544-4.73 10.545-10.544 10.545zm7.392-29.734a8.874 8.874 0 0 1-8.874-8.874c0-20.805-16.926-37.73-37.73-37.73a8.874 8.874 0 1 1 0-17.748c30.591 0 55.479 24.887 55.479 55.479a8.875 8.875 0 0 1-8.875 8.873z"/><path d="M126.73 368.413c-41.35 0-74.99-33.641-74.99-74.99s33.641-74.99 74.99-74.99 74.99 33.641 74.99 74.99-33.64 74.99-74.99 74.99zm0-145.98c-39.145 0-70.99 31.846-70.99 70.99s31.846 70.99 70.99 70.99 70.99-31.846 70.99-70.99-31.845-70.99-70.99-70.99zm39.212 108.958c-6.917 0-12.544-5.628-12.544-12.545s5.627-12.544 12.544-12.544 12.545 5.627 12.545 12.544-5.628 12.545-12.545 12.545zm0-21.089c-4.711 0-8.544 3.833-8.544 8.544 0 4.712 3.833 8.545 8.544 8.545 4.712 0 8.545-3.833 8.545-8.545 0-4.711-3.833-8.544-8.545-8.544zm7.393-8.645c-5.996 0-10.874-4.878-10.874-10.874 0-19.702-16.028-35.73-35.73-35.73-5.996 0-10.874-4.878-10.874-10.874s4.878-10.874 10.874-10.874c31.693 0 57.479 25.785 57.479 57.479-.001 5.995-4.879 10.873-10.875 10.873zm-46.605-64.352c-3.79 0-6.874 3.084-6.874 6.874s3.084 6.874 6.874 6.874c21.907 0 39.73 17.823 39.73 39.73 0 3.79 3.084 6.874 6.874 6.874s6.874-3.084 6.874-6.874c.001-29.488-23.989-53.478-53.478-53.478z"/><path fill="#FFF" d="M409.309 220.433c-40.311 0-72.99 32.679-72.99 72.99 0 40.311 32.679 72.99 72.99 72.99 40.311 0 72.99-32.679 72.99-72.99 0-40.312-32.679-72.99-72.99-72.99zm0 32.62a8.874 8.874 0 1 1 0-17.748c30.591 0 55.479 24.887 55.479 55.479a8.874 8.874 0 1 1-17.748 0c-.001-20.806-16.926-37.731-37.731-37.731zm42.775 76.338c-5.814 0-10.544-4.731-10.544-10.545s4.73-10.544 10.544-10.544 10.544 4.73 10.544 10.544-4.73 10.545-10.544 10.545z"/><path fill="#FFF" d="M409.309 368.413c-41.35 0-74.989-33.641-74.989-74.99s33.64-74.99 74.989-74.99 74.99 33.641 74.99 74.99-33.641 74.99-74.99 74.99zm0-145.98c-39.144 0-70.989 31.846-70.989 70.99s31.846 70.99 70.989 70.99c39.145 0 70.99-31.846 70.99-70.99s-31.846-70.99-70.99-70.99zm42.775 108.958c-6.917 0-12.544-5.628-12.544-12.545s5.627-12.544 12.544-12.544 12.545 5.627 12.545 12.544-5.628 12.545-12.545 12.545zm0-21.089c-4.711 0-8.544 3.833-8.544 8.544 0 4.712 3.833 8.545 8.544 8.545 4.712 0 8.545-3.833 8.545-8.545 0-4.711-3.833-8.544-8.545-8.544zm3.829-8.645c-5.996 0-10.874-4.878-10.874-10.874 0-19.702-16.028-35.73-35.73-35.73-5.996 0-10.874-4.878-10.874-10.874s4.878-10.874 10.874-10.874c31.693 0 57.479 25.785 57.479 57.479-.001 5.995-4.879 10.873-10.875 10.873zm-46.604-64.352c-3.79 0-6.874 3.084-6.874 6.874s3.084 6.874 6.874 6.874c21.907 0 39.73 17.823 39.73 39.73 0 3.79 3.084 6.874 6.874 6.874s6.874-3.084 6.874-6.874c0-29.488-23.99-53.478-53.478-53.478z"/><path d="M1078.567 639.101v-73.292c0-.952-.012-1.903-.036-2.851-1.136-44.821-28.781-84.039-71.041-99.017l-88.588-31.398a171.094 171.094 0 0 0-98.471-4.766 99.83 99.83 0 0 0-70.763 65.797l-.208.635-6.46 2.936c-35.524 16.147-53.111 56.519-40.745 93.529l16.251 48.636 360.061-.209zM597.422 1080a2 2 0 0 1-2-2v-47.083c0-76.801 62.481-139.282 139.282-139.282H1078a2 2 0 0 1 0 4H734.704c-74.595 0-135.282 60.688-135.282 135.282V1078a2 2 0 0 1-2 2z"/><path fill="#FFD829" d="M892.885 972.023c-44.909 0-81.316-36.406-81.316-81.316V803.29H974.2v87.417c0 44.91-36.406 81.316-81.315 81.316z"/><path d="M892.884 974.022c-45.94 0-83.315-37.375-83.315-83.315V803.29a2 2 0 0 1 2-2H974.2a2 2 0 0 1 2 2v87.417c0 45.94-37.375 83.315-83.316 83.315zM813.569 805.29v85.417c0 43.734 35.581 79.315 79.315 79.315s79.315-35.581 79.315-79.315V805.29h-158.63z"/><path d="M891.99 991.457c-53.939 0-97.822-43.883-97.822-97.822a2 2 0 0 1 4 0c0 51.733 42.089 93.822 93.822 93.822s93.822-42.089 93.822-93.822a2 2 0 0 1 4 0c0 53.939-43.883 97.822-97.822 97.822zM708.799 891.904l-195.956 1.379v183.83h130.181z"/><path fill="#FFD829" d="M1077.999 637.22a63.135 63.135 0 0 0-4.56-.183c-2.406 0-4.775.152-7.109.411-21.782-75.24-91.184-130.258-173.444-130.258-82.26 0-151.667 55.018-173.447 130.258a64.305 64.305 0 0 0-7.104-.411c-34.624 0-62.694 28.068-62.694 62.694 0 34.624 28.07 62.691 62.694 62.691 5.275 0 10.394-.661 15.287-1.886 27.991 63.458 91.449 107.758 165.264 107.758 73.812 0 137.271-44.3 165.263-107.758a62.85 62.85 0 0 0 15.291 1.886 63.69 63.69 0 0 0 4.56-.183"/><path d="M892.885 870.294c-71.756 0-136.893-42.113-166.416-107.431a64.936 64.936 0 0 1-14.136 1.559c-35.673 0-64.694-29.02-64.694-64.69 0-35.673 29.021-64.694 64.694-64.694 1.843 0 3.706.084 5.654.257 10.966-36.586 33.745-69.484 64.28-92.78 32.006-24.417 70.257-37.323 110.617-37.323s78.61 12.906 110.614 37.324c30.534 23.295 53.313 56.193 64.28 92.779a63.717 63.717 0 0 1 5.659-.257c1.418 0 2.913.06 4.704.188a2 2 0 0 1 1.852 2.139 2.003 2.003 0 0 1-2.139 1.852 60.764 60.764 0 0 0-4.417-.179c-2.214 0-4.467.131-6.889.399a2.004 2.004 0 0 1-2.142-1.432c-10.541-36.409-33.033-69.192-63.335-92.311-31.302-23.881-68.713-36.504-108.188-36.504-39.477 0-76.889 12.623-108.191 36.504-30.303 23.118-52.796 55.901-63.335 92.31a2.011 2.011 0 0 1-2.142 1.432 61.978 61.978 0 0 0-6.884-.398c-33.467 0-60.694 27.228-60.694 60.694 0 33.465 27.228 60.69 60.694 60.69a60.94 60.94 0 0 0 14.801-1.826 2.009 2.009 0 0 1 2.316 1.133c28.555 64.736 92.707 106.565 163.435 106.565 70.726 0 134.877-41.829 163.433-106.565a2.006 2.006 0 0 1 2.315-1.133 60.992 60.992 0 0 0 14.806 1.826c1.329 0 2.733-.057 4.417-.178 1.125-.054 2.059.75 2.139 1.852a2 2 0 0 1-1.852 2.139 64.75 64.75 0 0 1-4.704.188c-4.752 0-9.501-.523-14.14-1.559-29.522 65.317-94.658 107.43-166.412 107.43z"/><path d="M719.02 726.943c-.54 0-1.078-.217-1.473-.646l-38.45-41.798a2 2 0 0 1 2.943-2.709l38.45 41.798a2 2 0 0 1-1.47 3.355zM1059.254 726.943a2 2 0 0 1-1.471-3.354l18.745-20.376a2 2 0 0 1 2.943 2.709l-18.745 20.376a1.995 1.995 0 0 1-1.472.645zM827.892 709.354c0 13.16-10.668 23.822-23.82 23.822-13.158 0-23.825-10.662-23.825-23.822 0-13.157 10.667-23.82 23.825-23.82 13.152 0 23.82 10.664 23.82 23.82z"/><path d="M860.146 700.639a1.997 1.997 0 0 1-1.65-.868c-10.406-15.158-27.575-24.208-45.927-24.208-18.351 0-35.52 9.05-45.927 24.208a1.999 1.999 0 1 1-3.297-2.263c11.152-16.245 29.554-25.944 49.224-25.944 19.671 0 38.072 9.699 49.224 25.944a1.997 1.997 0 0 1-1.647 3.131zM983.368 709.354c0 13.16-10.667 23.822-23.823 23.822-13.157 0-23.823-10.662-23.823-23.822 0-13.157 10.667-23.82 23.823-23.82s23.823 10.664 23.823 23.82z"/><path d="M920.466 700.639a1.998 1.998 0 0 1-1.647-3.132c11.153-16.245 29.556-25.944 49.225-25.944 19.671 0 38.073 9.699 49.226 25.944.626.91.395 2.155-.517 2.78a1.998 1.998 0 0 1-2.78-.517c-10.407-15.158-27.576-24.208-45.929-24.208-18.351 0-35.52 9.05-45.928 24.208a1.996 1.996 0 0 1-1.65.869zM891.63 743.775a2 2 0 0 1-2-2v-34.687a2 2 0 0 1 4 0v34.687a2 2 0 0 1-2 2z"/><path fill="#FFF" d="M925.628 773.119c-9.167-7.282-20.757-11.643-33.371-11.643-12.615 0-24.206 4.361-33.372 11.643h66.743zM920.468 489.187s-18.634 37.458-17.6 54.368c0 9.72 7.88 17.6 17.6 17.6 9.72 0 17.6-7.88 17.6-17.6 1.034-16.91-17.6-54.368-17.6-54.368zM863.891 536.362s-12.225 24.575-11.547 35.669c0 6.377 5.17 11.547 11.547 11.547 6.377 0 11.547-5.17 11.547-11.547.678-11.094-11.547-35.669-11.547-35.669zM950.813 585.257s-9.787 19.674-9.244 28.556a9.244 9.244 0 0 0 18.488 0c.543-8.882-9.244-28.556-9.244-28.556zM983.368 510.987s-16.183 32.53-15.284 47.216c0 8.441 6.843 15.284 15.284 15.284s15.284-6.843 15.284-15.284c.899-14.686-15.284-47.216-15.284-47.216z"/><path fill="#FFD829" d="m513.843 650.577 26.928-26.401-.03-.028c6.364-8.355 6.816-21.732 6.536-28.827-2.011-14.517.838-29.785 9.156-43.208a68.069 68.069 0 0 1 2.631-3.885l50.284-81.255c.319-.635.657-1.257 1.035-1.873 6.694-10.797 20.87-14.12 31.663-7.43 10.793 6.693 14.119 20.869 7.429 31.662-.021.026.07.082.07.082l-21.031 34.074c.349.094.7.204 1.048.298l61.94-60.197c.465-.546.951-1.076 1.469-1.58 9.106-8.854 23.664-8.647 32.517.463 8.853 9.104 8.646 23.663-.465 32.512-.017.022.055.101.055.101l-49.783 48.386.139.136 58.773-57.124c.461-.542.944-1.069 1.468-1.576 9.103-8.851 23.663-8.641 32.517.463 8.849 9.109 8.642 23.67-.463 32.522-.021.013.053.094.053.094l-60.299 58.603.137.137 48.258-46.898c.461-.547.948-1.078 1.472-1.583 9.103-8.851 23.663-8.641 32.519.461 8.85 9.112 8.638 23.668-.465 32.52-.022.014.052.093.052.093l-49.787 48.388.14.137 37.741-36.685c.463-.542.945-1.07 1.472-1.58 9.106-8.849 23.666-8.643 32.516.469 8.855 9.107 8.644 23.664-.463 32.512-.024.018.056.099.056.099l-39.269 38.169-37.153 36.104c-7.877 7.659-15.668 14.711-24.044 20.822-10.089 7.345-21.028 13.318-34.025 17.294-10.707 3.275-30.229 14.626-30.229 14.626L513.843 864.512"/><path d="M513.842 866.513a2.002 2.002 0 0 1-1.416-3.413l132.566-132.839c.123-.122.261-.229.41-.315.806-.469 19.846-11.506 30.649-14.811 11.862-3.628 22.486-9.029 33.434-16.998 7.202-5.254 14.551-11.62 23.826-20.639l75.974-73.837c.1-.198.233-.381.394-.537a20.85 20.85 0 0 0 6.361-14.752 20.854 20.854 0 0 0-5.938-14.931 20.849 20.849 0 0 0-14.757-6.364c-5.577-.097-10.909 2.027-14.932 5.936-.433.419-.859.877-1.346 1.446a2.27 2.27 0 0 1-.126.134l-37.74 36.685a2 2 0 0 1-2.793-.006l-.141-.138a2.001 2.001 0 0 1 .005-2.864l49.352-47.962c.099-.191.229-.366.384-.517h-.001c8.299-8.069 8.489-21.389.426-29.692-8.073-8.3-21.394-8.485-29.689-.422-.45.435-.886.903-1.337 1.438a2.08 2.08 0 0 1-.136.146l-48.258 46.897a1.999 1.999 0 0 1-2.803-.016l-.138-.137a1.998 1.998 0 0 1 .015-2.854l59.86-58.176c.1-.193.229-.369.385-.521 8.3-8.07 8.489-21.392.423-29.695-8.072-8.3-21.392-8.489-29.688-.423-.447.434-.884.903-1.337 1.437a1.935 1.935 0 0 1-.131.141l-58.773 57.124a2.001 2.001 0 0 1-2.793-.005l-.139-.136a2.005 2.005 0 0 1 .005-2.865l49.337-47.952a1.932 1.932 0 0 1 .391-.534 20.842 20.842 0 0 0 6.362-14.755 20.847 20.847 0 0 0-5.938-14.929 20.858 20.858 0 0 0-14.758-6.362l-.307-.002a20.846 20.846 0 0 0-15.966 7.384c-.04.048-.083.094-.129.138l-61.939 60.197a2.005 2.005 0 0 1-1.913.497 29.772 29.772 0 0 1-.564-.16 18.622 18.622 0 0 0-.484-.138 2.003 2.003 0 0 1-1.183-2.982l20.716-33.562c.051-.21.134-.412.248-.597h-.001c6.1-9.839 3.057-22.808-6.782-28.908-9.838-6.101-22.808-3.057-28.909 6.783a22.733 22.733 0 0 0-.948 1.717 1.973 1.973 0 0 1-.087.155l-50.284 81.255a1.563 1.563 0 0 1-.08.12 65.8 65.8 0 0 0-2.554 3.771c-7.732 12.478-10.884 27.351-8.872 41.876.009.064.015.13.017.195.292 7.372-.204 20.973-6.717 29.816a1.898 1.898 0 0 1-.387.546l-26.929 26.4a2 2 0 0 1-2.801-2.855l26.639-26.116c.022-.033.045-.065.069-.097 5.941-7.801 6.397-20.497 6.132-27.439-2.111-15.415 1.244-31.193 9.451-44.438a69.75 69.75 0 0 1 2.668-3.944l50.2-81.119c.36-.713.714-1.349 1.078-1.942 7.267-11.722 22.708-15.342 34.421-8.083 11.536 7.153 15.225 22.237 8.396 33.882a2.014 2.014 0 0 1-.249.613l-14.59 23.637 53.384-51.882a24.724 24.724 0 0 1 1.537-1.646c4.787-4.654 11.09-7.165 17.775-7.07 6.676.095 12.915 2.784 17.569 7.573a24.826 24.826 0 0 1 7.069 17.774 25.082 25.082 0 0 1-.726 5.669 23.19 23.19 0 0 1 1.015-1.051c9.877-9.603 25.733-9.377 35.344.504 9.456 9.733 9.383 25.256-.052 34.901-.098.197-.23.382-.397.544l-.871.847c8.082-1.66 16.826.702 22.997 7.046 9.454 9.734 9.379 25.258-.058 34.901a1.972 1.972 0 0 1-.396.54l-.852.828a25.288 25.288 0 0 1 5.405-.504c6.677.096 12.916 2.786 17.567 7.576 4.654 4.787 7.165 11.1 7.07 17.775-.093 6.458-2.613 12.506-7.113 17.104-.1.207-.236.396-.404.56L736.1 680.366c-9.415 9.155-16.897 15.633-24.259 21.004-11.164 8.126-22.487 13.879-34.619 17.589-9.76 2.986-27.395 13.054-29.584 14.314l-132.38 132.652c-.39.391-.903.588-1.416.588z"/><path d="m521.7 642.887 103.833 111.86-112.69 110.765V651.577z"/><path fill="#FFF" d="M1080 1080H510.842V393.239H1080V1080zm-565.158-4H1076V397.239H514.842V1076z"/><path fill="#FFF" d="M822.657 577.095a47.277 47.277 0 0 0-3.219-10.436l-33.608-65.081a47.125 47.125 0 0 0-21.865-22.851l-47.22-26.066c-1.741-.961-3.607-1.707-5.565-2.053-11.834-2.092-23.041 8.014-21.265 20.695 17.83 127.309-41.168 249.422-51.317 269.243a19.667 19.667 0 0 1-3.575 4.92l-21.694 21.801a6.662 6.662 0 0 0-1.822 3.449l-9.897 51.755c-1.946 10.174 4.324 20.044 14.313 22.784 5.551 1.523 9.608 6.603 9.608 12.611v22.591c0 25.517 20.336 46.386 45.844 47.046l66.01 1.708h15.672c.212 0 .421-.01.627-.028 4.261-.384 6.923-4.848 5.598-8.916l-37.647-206.332c-2.781-12.486-1.42-18.792 4.636-24.074l81.39-69.935c11.98-10.785 17.935-26.985 14.996-42.831z"/><path fill="#FFD829" d="M632.268 833.259a2 2 0 0 1-1.996-2.152l5.42-71.607a2 2 0 1 1 3.989.303l-5.42 71.607a2.001 2.001 0 0 1-1.993 1.849zM693.886 909.61a2.001 2.001 0 0 1-1.993-1.854l-13.915-189.591a2.002 2.002 0 0 1 1.849-2.142 2.01 2.01 0 0 1 2.142 1.849l13.915 189.591a2.002 2.002 0 0 1-1.998 2.147z"/><path fill="#FFD829" d="M663.806 723.462a2 2 0 0 1-.191-3.991c.22-.021 22.141-2.329 39.614-18.039a2 2 0 1 1 2.674 2.974c-18.485 16.619-40.955 18.954-41.903 19.046-.065.007-.13.01-.194.01zM726.019 625.057a2.001 2.001 0 0 1-1.381-3.447l58.48-55.794a2.001 2.001 0 0 1 2.762 2.894l-58.48 55.794a1.999 1.999 0 0 1-1.381.553zM723.463 563.154a2 2 0 0 1-1.398-3.431l44.267-43.264a2 2 0 0 1 2.795 2.861l-44.267 43.264a1.99 1.99 0 0 1-1.397.57z"/></svg>