<svg xmlns="http://www.w3.org/2000/svg" viewBox="0 0 1920 1080" xml:space="preserve"><path fill="#FF8630" d="M1323.229 314.877c-51.612-40.178-74.401-103.647-65.102-164.006H261.791v564.965l152.267 1.129v211.56h1007.358V351.374c-34.508-1.703-68.853-13.661-98.187-36.497z"/><path fill="#FFF" d="M1660.209 930.525h-240.793V349.272l2.099.104c56.016 2.78 110.003-21.963 144.402-66.153 29.418-37.791 41.582-84.686 34.249-132.046l-.356-2.306h60.399v781.654zm-236.793-4h232.793V152.871h-51.748c3.218 22.714 2.027 45.461-3.545 67.652-5.964 23.753-16.678 45.675-31.843 65.156-33.414 42.924-84.893 67.904-139.061 67.906-2.197 0-4.392-.041-6.597-.123v573.063z"/><path fill="#FFF" d="M1571.685 278.48h86.524v4h-86.524zM261.791 537.698h1396.418v4H261.791zM261.791 667.308h1396.418v4H261.791zM529.172 796.917h1129.037v4H529.172z"/><path fill="#FF8630" d="M1305.265 669.307h117.274v129.609h-117.274z"/><path fill="#FFF" d="M1424.539 800.917h-121.273V667.308h121.273v133.609zm-117.273-4h113.273V671.308h-113.273v125.609z"/><path fill="#FF8630" d="M1187.992 669.307h-117.274v129.61h234.547v-129.61z"/><path fill="#FFF" d="M1307.266 800.917h-238.548V667.308h238.548v133.609zm-234.548-4h230.548V671.308h-230.548v125.609z"/><path fill="#FF8630" d="M1305.265 539.698h-117.273v129.609h234.547V539.698z"/><path fill="#FFF" d="M1424.539 671.308h-238.548v-133.61h238.548v133.61zm-234.548-4h230.548v-125.61h-230.548v125.61z"/><path fill="#FF8630" d="M1070.719 539.698H953.446v129.609h234.547V539.698z"/><path fill="#FFF" d="M1189.993 671.308H951.446v-133.61h238.547v133.61zm-234.547-4h230.547v-125.61H955.446v125.61z"/><path fill="#FF8630" d="M1070.719 280.48H953.446v129.609h234.547V280.48zM1305.265 798.917h-117.273v129.609h234.547V798.917z"/><path fill="#FFF" d="M1424.539 930.525h-238.548V796.917h238.548v133.608zm-234.548-4h230.548V800.917h-230.548v125.608z"/><path fill="#FF8630" d="M1070.719 798.917H953.446v129.609h234.547V798.917z"/><path fill="#FFF" d="M1189.993 930.525H951.446V796.917h238.547v133.608zm-234.547-4h230.547V800.917H955.446v125.608z"/><path fill="#FF8630" d="M836.556 798.917H719.282v129.609h234.547V798.917z"/><path fill="#FFF" d="M955.829 930.525H717.282V796.917h238.547v133.608zm-234.547-4h230.547V800.917H721.282v125.608z"/><path fill="#FF8630" d="M953.446 669.307H836.172v129.61h234.547v-129.61z"/><path fill="#FFF" d="M1072.72 800.917H834.172V667.308h238.547v133.609zm-234.548-4h230.547V671.308H838.172v125.609z"/><path fill="#FF8630" d="M718.899 669.307H601.625v129.61h234.547v-129.61z"/><path fill="#FFF" d="M838.172 800.917H599.625V667.308h238.547v133.609zm-234.547-4h230.547V671.308H603.625v125.609z"/><path fill="#FF8630" d="M719.282 150.871H602.008V280.48h234.548V150.871z"/><path fill="#FFF" d="M838.556 282.48H600.008V148.871h238.547V282.48zm-234.548-4h230.547V152.871H604.008V278.48z"/><path fill="#FF8630" d="M1187.992 410.089h-117.274v129.609h234.547V410.089z"/><path fill="#FF8630" d="M953.446 410.089H836.172v129.609h234.547V410.089z"/><path fill="#FFF" d="M1072.72 541.698H834.172V408.089h238.547v133.609zm-234.548-4h230.547V412.089H838.172v125.609z"/><path fill="#FF8630" d="M836.555 280.48H719.281v129.609h234.547V280.48z"/><path fill="#FFF" d="M955.829 412.089H717.281V278.48h238.547v133.609zm-234.548-4h230.547V282.48H721.281v125.609z"/><path fill="#FF8630" d="M719.28 410.543H602.006v129.609h234.548V410.543z"/><path fill="#FFF" d="M838.554 542.152H600.006V408.543h238.547v133.609zm-234.548-4h230.547V412.543H604.006v125.609z"/><path fill="#FF8630" d="M836.172 539.698H718.899v129.609h234.547V539.698z"/><path fill="#FFF" d="M955.446 671.308H716.898v-133.61h238.547v133.61zm-234.548-4h230.547v-125.61H720.898v125.61z"/><path fill="#FF8630" d="M953.446 150.871H836.172V280.48h234.547V150.871z"/><path fill="#FFF" d="M1658.209 408.089h-234.793v-58.618l-1.901-.095c-35.423-1.748-68.985-14.224-97.057-36.077a171.565 171.565 0 0 1-33.182-34.247v-.572h-.412c-26.213-36.212-37.761-81.866-30.761-127.305l.355-2.305H259.791v568.95l152.268 1.129v211.575h1011.358V412.089h234.793v-4zm-336.208-91.634c28.221 21.971 61.867 34.678 97.415 36.812v54.821H1189.994V282.48h98.832a175.504 175.504 0 0 0 33.175 33.975zM955.446 282.48h230.547v125.608H955.446V282.48zm117.272 129.609H1303.265v125.609h-230.548V412.089zm183.093-259.218c-6.292 44.75 4.919 89.561 30.121 125.609H1072.72V152.871h183.091zm-187.091 0V278.48H838.172V152.871h230.548zM951.446 282.48v125.608H263.791V282.48h687.655zM834.172 152.871V278.48H263.791V152.871h570.381zm585.244 773.654H416.058V714.979L263.79 713.85V412.089h804.927v129.609h238.548V412.089h112.15v514.436z"/><path d="M845.443 361.432c-.365-1.393.297-2.775 2.212-3.277l20.812-5.08c-3.931-11.809-11.516-16.613-20.048-14.378-4.875 1.276-8.487 4.177-10.834 9.071-.597 1.272-1.18 1.891-2.398 2.209-1.306.343-2.775-.296-3.141-1.688-.296-1.132-.107-1.833.319-2.688 3.224-6.52 8.747-10.293 14.754-11.866 12.885-3.375 23.476 4.735 27.626 20.581 4.15 15.844-1.081 28.192-13.966 31.567-6.007 1.573-12.671.993-18.677-3.108-.791-.537-1.299-1.055-1.596-2.187-.365-1.393.604-2.67 1.909-3.013 1.218-.318 2.029-.065 3.174.751 4.444 3.115 9.015 3.872 13.89 2.595 8.793-2.304 13.021-10.668 10.26-23.341l-20.761 5.624c-1.916.501-3.169-.38-3.535-1.772zM884.37 330.675c-1.915.501-3.17-.38-3.535-1.772-.364-1.393.297-2.775 2.213-3.277l36.999-9.691c1.916-.502 3.17.379 3.534 1.771.365 1.393-.296 2.775-2.211 3.277-3.135.821-12.518 3-15.937 3.803l11.334 43.268c.502 1.916-.356 3.257-1.923 3.667-1.567.411-2.886-.36-3.388-2.275l-11.334-43.269c-3.284.953-12.618 3.676-15.752 4.498zM974.315 300.415c1.654-.434 2.757.581 3.076 1.799.229.87.062 1.659-.25 2.95l-8.939 34.065c-3.372 12.698-5.387 19.925-15.05 22.456-5.398 1.414-8.59.947-9.206-1.403-.364-1.393.406-2.711 1.713-3.053 1.131-.297 2.093-.177 3.032-.144 1.223.052 2.487-.094 3.793-.436 2.264-.593 4.057-2.271 5.41-4.209 2.147-3.166 3.747-8.424 4.558-12.078l-25.793-24.596c-.971-.861-1.414-1.49-1.665-2.447-.319-1.219.231-2.666 1.886-3.1 1.307-.342 2.295.236 3.663 1.553l23.634 22.742 7.708-30.952c.459-1.793 1.125-2.805 2.43-3.147zM1073.286 278.676c1.567-.41 3.238.641 3.671 2.295.365 1.393-.187 2.84-1.685 3.512l-10.85 5.819 10.094 6.565c.837.712 1.391 1.404 1.596 2.188.389 1.479-.837 3.196-2.317 3.584-1.045.273-2.139.002-3.132-.947l-8.891-8.37-3.275 11.649c-.399 1.314-1.285 2.197-2.33 2.472-1.479.388-3.324-.618-3.711-2.098-.206-.784-.062-1.658.364-2.515l5.289-11.061-12.066.463c-1.745.084-2.999-.797-3.341-2.102-.456-1.742.398-3.454 2.139-3.91.436-.113.894-.141 1.462-.104l12.045 1.589-4.274-11.347c-.832-2.107.109-3.843 2.024-4.344 1.916-.502 3.499.571 3.872 2.706l2.189 12.265 9.564-7.528c.455-.396 1.041-.645 1.563-.781zM1125.523 264.993c1.567-.411 3.237.64 3.67 2.294.365 1.393-.186 2.84-1.684 3.512l-10.85 5.82 10.093 6.564c.837.712 1.391 1.404 1.596 2.188.389 1.479-.837 3.196-2.316 3.584-1.045.273-2.14.002-3.133-.947l-8.891-8.369-3.274 11.649c-.399 1.313-1.285 2.197-2.33 2.471-1.479.388-3.324-.618-3.712-2.097-.205-.784-.062-1.659.364-2.516l5.29-11.061-12.066.463c-1.746.085-3-.797-3.342-2.102-.456-1.741.398-3.453 2.139-3.91.436-.113.894-.141 1.462-.104l12.045 1.589-4.274-11.347c-.831-2.107.109-3.842 2.025-4.344 1.915-.502 3.498.572 3.872 2.706l2.188 12.265 9.564-7.527c.455-.397 1.042-.644 1.564-.781zM1177.76 251.31c1.567-.411 3.238.641 3.671 2.295.365 1.393-.186 2.84-1.685 3.511l-10.85 5.82 10.094 6.565c.837.712 1.391 1.403 1.597 2.187.387 1.48-.838 3.197-2.318 3.584-1.044.273-2.139.002-3.132-.946l-8.891-8.37-3.274 11.649c-.4 1.314-1.285 2.197-2.33 2.472-1.48.387-3.325-.618-3.713-2.098-.205-.784-.062-1.658.365-2.516l5.289-11.061-12.065.463c-1.745.085-3-.797-3.342-2.102-.456-1.741.397-3.453 2.14-3.91.434-.113.893-.141 1.461-.104l12.045 1.59-4.274-11.347c-.831-2.108.109-3.843 2.024-4.345 1.916-.502 3.499.572 3.873 2.707l2.189 12.265 9.563-7.528c.454-.398 1.041-.645 1.563-.781zM867.923 473.885l-11.835-45.184c-.456-1.742.314-3.061 2.056-3.516l27.858-7.298c1.741-.456 3.06.314 3.517 2.056l11.835 45.184c.502 1.916-.356 3.257-1.924 3.667-1.567.411-2.885-.36-3.387-2.276l-11.288-43.094-22.81 5.975 11.288 43.095c.502 1.915-.356 3.257-1.924 3.667-1.566.409-2.884-.361-3.386-2.276zM911.221 437.796c-3.831-14.626-.115-27.787 12.77-31.162s22.575 6.274 26.407 20.899c3.854 14.713.138 27.874-12.747 31.249s-22.577-6.273-26.43-20.986zm33.691-8.825c-3.17-12.102-10.655-19.723-19.622-17.374s-11.755 12.661-8.585 24.763c3.17 12.101 10.679 19.811 19.646 17.461 8.966-2.349 11.731-12.75 8.561-24.85zM959.412 404.054c-1.915.502-3.169-.379-3.533-1.772-.365-1.393.296-2.775 2.211-3.276l37-9.692c1.915-.502 3.17.379 3.535 1.771.364 1.394-.297 2.776-2.213 3.277-3.134.821-12.517 3-15.936 3.803l11.334 43.268c.502 1.916-.356 3.257-1.923 3.668-1.567.41-2.886-.361-3.388-2.276l-11.334-43.269c-3.284.953-12.618 3.676-15.753 4.498zM1015.694 410.43c-3.832-14.627-.115-27.787 12.77-31.162s22.576 6.273 26.407 20.899c3.854 14.713.138 27.874-12.747 31.249s-22.576-6.273-26.43-20.986zm33.692-8.827c-3.17-12.101-10.654-19.723-19.622-17.374-8.967 2.349-11.755 12.662-8.585 24.763 3.17 12.102 10.679 19.811 19.646 17.462s11.731-12.749 8.561-24.851zM1064.159 369.917c1.567-.41 2.779.668 3.974 2.029l19.956 21.845 6.685-28.823c.372-1.771.9-3.306 2.468-3.717 1.567-.41 2.863.274 3.411 2.363l12.086 46.142c.502 1.915-.27 3.233-1.837 3.644-1.567.411-2.973-.337-3.475-2.253l-9.715-37.087-5.45 23.941c-.46 1.796-1.061 2.697-2.279 3.017-1.22.318-2.186-.172-3.467-1.512l-16.488-18.194 9.715 37.087c.502 1.916-.269 3.234-1.836 3.645s-2.973-.338-3.475-2.254l-12.086-46.141c-.548-2.09.246-3.321 1.813-3.732zM915.454 501.906c1.654-.434 2.756.581 3.075 1.8.229.87.062 1.659-.25 2.95l-8.939 34.064c-3.371 12.699-5.387 19.925-15.05 22.456-5.398 1.414-8.59.948-9.205-1.402-.365-1.394.405-2.712 1.711-3.054 1.133-.297 2.095-.176 3.033-.143 1.223.051 2.487-.094 3.793-.436 2.264-.594 4.057-2.272 5.41-4.209 2.147-3.167 3.748-8.424 4.559-12.078l-25.794-24.596c-.971-.861-1.414-1.49-1.665-2.447-.319-1.219.232-2.666 1.887-3.1 1.305-.342 2.294.236 3.662 1.553l23.634 22.742 7.708-30.952c.459-1.794 1.124-2.806 2.431-3.148zM941.491 497.599l18.719-4.903c1.915-.502 3.232.27 3.734 2.184l10.695 40.832 3.918-1.027c1.567-.41 2.973.339 3.475 2.254l2.851 10.883c.501 1.914-.356 3.256-1.924 3.666-1.566.41-2.886-.36-3.387-2.275l-2.372-9.055-35.955 9.418 2.372 9.055c.501 1.915-.27 3.234-1.837 3.645s-2.973-.338-3.474-2.253l-2.851-10.883c-.502-1.915.355-3.257 1.923-3.667 5.92-1.551 6.685-5.379 5.741-13.598l-3.552-30.608c-.239-1.986.358-3.258 1.924-3.668zm17.645.587-13.93 3.649 3.431 29.431c.63 5.602.323 9.404-.572 11.313l21.242-5.564-10.171-38.829zM995.115 533.603l-7.891-30.123c-3.056-11.666.403-20.48 11.809-23.467 11.405-2.988 18.741 2.998 21.797 14.664l7.89 30.123c.502 1.915-.355 3.256-1.924 3.666-1.566.411-2.885-.359-3.387-2.275l-4.013-15.322-22.983 6.02 4.014 15.323c.501 1.914-.27 3.232-1.838 3.643-1.567.412-2.972-.337-3.474-2.252zm5.196-48.714c-7.923 2.075-10.215 7.886-7.752 17.288l2.6 9.925 22.983-6.02-2.6-9.925c-2.463-9.403-7.31-13.344-15.231-11.268zM1067.687 466.496l11.471 43.79c.502 1.915-.355 3.257-1.923 3.667s-2.886-.361-3.388-2.276l-10.969-41.875-14.539 3.809 3.384 29.256c1.333 11.838-.095 18.817-9.497 21.28-1.915.502-3.188-.096-3.598-1.662-.411-1.566.429-2.625 2.344-3.126 4.789-1.255 6.415-6.053 5.189-16.059l-3.635-30.214c-.24-1.984.357-3.256 2.186-3.735l19.239-5.04c1.915-.502 3.235.269 3.736 2.185zM1088.968 456.455c1.566-.41 2.972.338 3.474 2.254l9.829 37.521 13.54-44.201c.548-1.818 1.017-2.872 2.495-3.26 1.307-.342 2.602.343 3.149 2.432l12.087 46.143c.501 1.914-.27 3.232-1.837 3.643-1.567.411-2.973-.337-3.474-2.252l-9.807-37.436-13.562 44.115c-.548 1.817-1.016 2.87-2.496 3.258-1.306.342-2.602-.342-3.148-2.432l-12.087-46.141c-.502-1.915.269-3.234 1.837-3.644zM1138.929 450.066c-1.915.502-3.17-.379-3.534-1.771-.365-1.394.296-2.776 2.212-3.277l37-9.692c1.915-.502 3.17.379 3.534 1.772.365 1.393-.297 2.775-2.212 3.277-3.134.82-12.518 2.999-15.937 3.801l11.335 43.27c.501 1.915-.357 3.256-1.924 3.666-1.566.411-2.886-.359-3.387-2.275l-11.335-43.269c-3.285.953-12.619 3.678-15.752 4.498zM1196.313 428.336c1.568-.41 2.974.338 3.475 2.254l5.086 19.413 8.27-2.167c11.492-3.01 20.688-.58 23.242 9.171 2.554 9.75-4.27 16.375-15.762 19.386l-10.795 2.828c-1.741.455-3.06-.316-3.516-2.057l-11.836-45.184c-.501-1.916.27-3.234 1.836-3.644zm18.108 24.376-8.27 2.167 4.926 18.805 8.27-2.166c8.706-2.281 13.311-6.371 11.577-12.987-1.778-6.791-7.797-8.099-16.503-5.819zM1266.488 443.353l-6.674-20.859a80.398 80.398 0 0 1-1.474-4.917c-.936-3.569-.562-5.342 1.876-5.98 2.437-.638 3.631.724 4.566 4.293a80.2 80.2 0 0 1 1.126 5.008l4.409 21.452c.214 1.525-.213 2.381-1.345 2.678s-1.922-.241-2.484-1.675zm4.31 8.639c3.482-.912 6.82.819 7.687 4.127.867 3.309-1.194 6.453-4.676 7.365-3.483.912-6.819-.818-7.687-4.127-.866-3.307 1.193-6.453 4.676-7.365z"/><g fill="#FFF" stroke="#FFF" stroke-width="4" stroke-miterlimit="10"><path d="m670.463 764.133-3.806-19.916c-.15-.785.231-1.347 1.018-1.496l5.342-1.021c5.539-1.059 8.722.898 9.36 4.237.473 2.476-.603 4.31-2.487 5.524 2.758.369 4.777 1.774 5.295 4.484.818 4.282-2.383 7.133-7.568 8.124l-5.656 1.081c-.786.151-1.347-.232-1.498-1.017zm.243-11.732 4.203-.804c3.574-.682 5.526-2.398 5.039-4.952-.488-2.554-2.936-3.431-6.51-2.747l-4.204.803 1.472 7.7zm1.973 10.331 4.518-.863c3.928-.75 6.092-2.426 5.521-5.412-.518-2.709-2.951-3.508-7.115-2.711l-4.478.855 1.554 8.131zM693.577 760.206l-2.598-13.593c-1.006-5.264.792-9.067 5.938-10.051s8.219 1.891 9.225 7.154l2.597 13.592c.166.864-.255 1.434-.962 1.568s-1.269-.246-1.435-1.11l-1.32-6.914-10.371 1.981 1.321 6.914c.165.864-.216 1.426-.923 1.561s-1.307-.238-1.472-1.102zm3.76-21.443c-3.575.683-4.766 3.19-3.955 7.433l.856 4.479 10.37-1.981-.855-4.479c-.81-4.244-2.84-6.135-6.416-5.452zM725.147 753.236c2.2-.42 3.889-1.598 5.076-3.697.303-.547.579-.803 1.129-.907.59-.112 1.222.214 1.342.843.098.51-.007.814-.222 1.183-1.624 2.794-4.187 4.302-6.897 4.819-5.813 1.11-10.273-2.842-11.64-9.991s1.331-12.429 7.145-13.54c2.711-.518 5.647-.061 8.188 1.938.335.262.545.507.643 1.018.12.629-.348 1.166-.937 1.279-.551.104-.902-.032-1.385-.428-1.877-1.515-3.881-1.988-6.081-1.567-4.125.788-6.283 4.622-5.098 10.827 1.186 6.206 4.613 9.012 8.737 8.223zM754.216 750.004c-.707.135-1.308-.238-1.474-1.104l-1.598-8.367-4.4.842-4.193 9.799c-.344.758-.591 1.172-1.22 1.292-.628.12-1.183-.222-1.303-.851-.09-.472-.001-.855.256-1.434l3.862-8.555c-3.381-.006-6.349-1.475-7.076-5.285-.908-4.754 2.777-7.412 7.138-8.244l5.539-1.059c.785-.15 1.347.23 1.497 1.017l3.895 20.388c.166.865-.216 1.426-.923 1.561zm-7.891-10.83 4.399-.84-1.696-8.879-4.399.842c-3.536.676-5.632 2.705-5.083 5.572.547 2.867 3.244 3.981 6.779 3.305zM773.401 722.519l11.745-2.244c.864-.165 1.395.263 1.515.892.119.628-.215 1.222-1.079 1.386-1.925.368-7.408 1.294-10.637 1.869l1.419 7.426 3.731-.713c5.186-.991 9.189.361 10.03 4.76.841 4.4-2.383 7.134-7.568 8.125l-4.871.93c-.785.15-1.348-.23-1.497-1.017l-3.806-19.916c-.15-.787.232-1.347 1.018-1.498zm7.114 10.815-3.731.713 1.621 8.484 3.731-.713c3.929-.75 6.093-2.426 5.515-5.451-.578-3.023-3.207-3.783-7.136-3.033zM795.656 729.871c-1.261-6.6.781-12.323 6.595-13.434 5.814-1.111 9.822 3.457 11.083 10.057 1.269 6.639-.773 12.362-6.587 13.473-5.815 1.111-9.823-3.457-11.091-10.096zm15.203-2.904c-1.044-5.461-4.135-9.064-8.181-8.291s-5.591 5.262-4.547 10.723c1.043 5.461 4.142 9.103 8.188 8.33 4.046-.774 5.583-5.301 4.54-10.762zM820.863 736.049c-.082-.432.015-.777.405-1.502l5.393-10.559-8.913-7.865c-.63-.531-.848-.816-.93-1.248-.136-.707.285-1.275.953-1.403.432-.083.823.046 1.267.45l8.692 7.988 5.135-10.631c.264-.539.58-.803 1.012-.885.668-.128 1.269.246 1.404.953.082.432-.015.776-.406 1.502l-5.424 10.605 8.944 7.818c.631.531.849.816.931 1.248.136.707-.285 1.275-.953 1.402-.433.084-.823-.045-1.267-.449l-8.678-7.91-5.15 10.552c-.264.54-.579.804-1.012.886-.667.128-1.267-.245-1.403-.952zM851.227 721.697l-2.335-9.449a36.245 36.245 0 0 1-.507-2.225c-.308-1.609-.089-2.385 1.012-2.594 1.1-.211 1.588.429 1.896 2.039.143.747.29 1.736.349 2.254l1.313 9.644c.049.683-.166 1.05-.677 1.147s-.844-.163-1.051-.816zm1.652 3.959c1.571-.301 2.999.566 3.284 2.06s-.723 2.825-2.294 3.126c-1.57.3-2.998-.567-3.283-2.061-.285-1.492.722-2.825 2.293-3.125z"/></g><path d="M0 926.525h123.693v4H0zM1756.307 926.525H1920v4h-163.693zM1375.677 999.771l95.602-.011-.016-142.466-95.603.011.01 86.102 29.994 9.223-29.992 9.65z"/><path d="m1373.677 1001.771-.005-40.948 25.328-8.15-25.33-7.788-.01-89.58 99.603-.011.017 146.466-99.603.011zm3.995-38.034.005 34.034 91.603-.012-.017-138.466-91.603.011.01 82.625 34.658 10.657-34.656 11.151z"/><path fill="#FFF" d="M1481.537 850.211h-1.806a8.47 8.47 0 0 0-8.469 8.471l.016 139.69a8.47 8.47 0 0 0 8.471 8.469h1.806a8.47 8.47 0 0 0 8.469-8.471l-.016-139.69a8.47 8.47 0 0 0-8.471-8.469z"/><path fill="#FFF" d="M1504.014 997.4c13.027-.002 23.586-10.563 23.584-23.59-.002-16.504 13.568-29.783 30.068-29.423l201.253 4.388c11.569.252 21.083-9.058 21.081-20.629-.001-11.571-9.517-20.879-21.086-20.624l-201.252 4.435c-16.5.364-30.073-12.912-30.075-29.416-.002-13.027-10.563-23.586-23.59-23.584l-13.989.002.016 138.444 13.99-.003z"/><path d="M1429.956 353.519c-37.811.003-75.877-12.091-107.955-37.062-76.604-59.634-90.409-170.47-30.776-247.072s170.469-90.41 247.072-30.776c37.108 28.887 60.746 70.496 66.559 117.162s-6.895 92.802-35.782 129.91c-34.662 44.523-86.636 67.833-139.118 67.838zm.382-347.975c-51.295 0-102.08 22.779-135.957 66.297-58.278 74.862-44.785 183.181 30.077 241.459 74.861 58.278 183.182 44.785 241.459-30.077 28.231-36.266 40.65-81.354 34.969-126.959-5.681-45.605-28.781-86.269-65.046-114.5-31.345-24.402-68.556-36.22-105.502-36.22z"/><path d="M1454.382 67.154v4c16.878 0 32.857 5.494 46.21 15.889 32.771 25.511 38.677 72.927 13.166 105.698-14.374 18.465-36.056 29.055-59.487 29.055-16.879 0-32.858-5.494-46.21-15.889-15.875-12.358-25.987-30.158-28.474-50.122s2.95-39.701 15.308-55.575c14.374-18.465 36.056-29.055 59.487-29.055v-4.001m-.001 0c-23.626 0-47.006 10.51-62.643 30.598-26.909 34.566-20.701 84.402 13.865 111.311 14.479 11.272 31.637 16.732 48.668 16.732 23.626 0 47.006-10.51 62.643-30.598 26.909-34.566 20.701-84.402-13.865-111.311-14.479-11.272-31.637-16.732-48.668-16.732z"/><path d="m1395.732 92.62-3.994 5.131a80.358 80.358 0 0 1 4.221-4.955l-.227-.176zM1405.603 209.062c-34.566-26.909-40.774-76.744-13.865-111.311l-17.276 22.192c-26.909 34.566-20.701 84.402 13.865 111.311 34.566 26.909 84.402 20.701 111.311-13.865l17.276-22.192c-26.909 34.566-76.744 40.774-111.311 13.865z"/><path fill="#FFF" d="M861.825 795.464c-22.694-16.699-54.628-11.838-71.327 10.856s-11.838 54.628 10.856 71.327 54.628 11.838 71.327-10.856 11.838-54.628-10.856-71.327zm-49.491 16.782c4.535-6.164 11.165-8.988 14.807-6.308 3.642 2.68 2.918 9.849-1.617 16.013-4.535 6.164-11.165 8.988-14.807 6.308-3.643-2.68-2.919-9.849 1.617-16.013zm-3.888 55.763c-9.596-7.061-11.651-20.564-4.59-30.16l34.75 25.57c-7.061 9.595-20.564 11.65-30.16 4.59zm37.274-13.994c-3.642-2.68-2.918-9.849 1.617-16.013 4.535-6.164 11.165-8.988 14.807-6.308 3.642 2.68 2.918 9.849-1.617 16.013-4.535 6.164-11.164 8.988-14.807 6.308z"/><path fill="#FF8630" d="M310.23 1031.129c21.288 0 38.546-17.257 38.546-38.546 0-21.288-17.257-38.546-38.546-38.546-2.772 0-5.474.299-8.08.855-7.95-21.741-28.818-37.259-53.312-37.259-24.221 0-44.886 15.181-53.03 36.541a38.753 38.753 0 0 0-3.137-.138c-21.288 0-38.546 17.257-38.546 38.546 0 21.288 17.257 38.546 38.546 38.546H310.23z"/><path fill="none" d="M128.349 794.339zM129.269 795.727zM130.236 797.066zM124.168 784.754c-.039-.16-.072-.321-.108-.482.037.161.069.322.108.482zM125.224 788.137c-.072-.191-.146-.381-.214-.572.068.192.142.382.214.572zM126.467 791.002zM125.814 789.592c-.091-.208-.18-.416-.266-.625.086.209.176.417.266.625zM124.643 786.452c-.031-.099-.066-.197-.096-.295.029.099.065.197.096.295zM131.265 798.385zM143.596 809.68zM145.151 810.766zM138.104 805.37zM134.335 801.823zM135.463 802.948zM136.742 804.156zM127.187 792.388c-.115-.209-.222-.42-.332-.63.11.209.217.42.332.63zM123.624 781.828c-.024-.182-.048-.364-.068-.547.02.183.044.365.068.547zM123.466 780.285c-.011-.157-.026-.314-.035-.471.009.157.024.314.035.471zM153.426 815.833a102.5 102.5 0 0 1-8.223-5.031c24.499 16.702 67.333 28.071 116.588 29.051v-61.414c-52.157 1.267-95.33 16.718-108.365 37.394zM123.858 783.305a33.226 33.226 0 0 1-.096-.55c.031.184.061.367.096.55z"/><path d="M405.829 798.808zM404.543 803.219l-2.865-2.791a50.444 50.444 0 0 0 2.614-2.898l3.075 2.559a53.617 53.617 0 0 1-2.812 3.119c-.005.003-.008.007-.012.011zM393.739 809.759zM393.423 812.418l-2.257-3.303c.478-.326.948-.655 1.412-.985l2.321 3.258c-.484.345-.976.688-1.476 1.03zM406.81 797.588zM407.733 799.645l-3.105-2.521c.206-.253.405-.508.603-.763l3.161 2.451-.001.002-.001.002a42.62 42.62 0 0 1-.639.808l-.004.006-.003.004-.011.011zM407.775 796.299zM408.808 798.269l-3.195-2.406c.183-.243.362-.486.539-.731l3.248 2.334c-.194.268-.391.537-.592.803zM402.922 802.019zM403.375 804.383l-2.786-2.869c.307-.299.611-.598.907-.898l2.851 2.807c-.317.321-.643.641-.972.96zM400.427 804.406zM400.65 806.883l-2.617-3.025c.358-.31.707-.622 1.053-.935l2.683 2.967c-.368.332-.739.664-1.119.993zM401.683 803.238zM402.052 805.632l-2.699-2.952.001-.001.001-.001a62 62 0 0 0 .946-.885l2.764 2.891a57.004 57.004 0 0 1-1.013.948zM408.685 794.984c-.164.249-.336.496-.508.743.171-.247.343-.495.508-.743z"/><path d="m409.822 796.864-3.291-2.273.062-.089c.143-.207.286-.413.423-.621l3.337 2.205c-.153.231-.312.461-.47.691l-.061.087zM399.294 805.411zM395.013 811.307l-2.327-3.254a76.602 76.602 0 0 0 2.686-2.008 69.913 69.913 0 0 0 2.614-2.147l2.615 3.027a72.8 72.8 0 0 1-2.759 2.266 83.285 83.285 0 0 1-2.829 2.116zM411.283 790.362zM412.772 791.887l-3.588-1.77c.085-.172.166-.344.247-.516l1.852.761 1.769.939c-.092.195-.184.39-.28.586zM413.89 781.281c-.02.182-.044.365-.068.547.024-.182.048-.364.068-.547z"/><path d="m415.807 782.071-3.968-.503c.023-.18.045-.342.062-.505l3.977.436c-.021.191-.046.381-.071.572zM413.385 784.272c-.036.161-.069.322-.108.482.039-.16.072-.321.108-.482z"/><path d="m415.22 785.227-3.886-.947.1-.448 3.902.881zM409.737 793.292zM410.786 795.409l-3.379-2.141c.208-.329.412-.659.607-.992l3.446 2.031c-.217.369-.442.736-.674 1.102zM414.014 779.814c-.009.157-.024.314-.035.471.012-.157.026-.314.035-.471z"/><path d="m415.974 780.434-3.99-.297.033-.434 3.994.223zM412.899 786.157c-.03.099-.065.197-.096.295.031-.098.066-.196.096-.295z"/><path d="m414.742 786.958-3.848-1.102.087-.268 3.834 1.139zM410.59 791.757c-.11.21-.217.421-.332.63.115-.209.222-.42.332-.63z"/><path d="m412.009 793.353-3.505-1.928c.052-.095.102-.189.152-.284l.071-.137.091-.175 3.546 1.851-.064.123-.102.196c-.061.119-.124.236-.189.354zM412.435 787.565c-.068.191-.142.381-.214.572.072-.19.147-.38.214-.572z"/><path d="m414.093 788.843-3.743-1.41.201-.535 3.77 1.336c-.053.151-.11.302-.167.452l-.061.157z"/><path d="M674.643 930.525H412.058v-152.18c0-15.595-14.684-30.404-41.348-41.702-27.209-11.528-63.429-17.878-101.987-17.878-2.218 0-4.537.023-6.892.071l-2.04.04V148.871h414.853v781.654zm-258.585-4h254.585V152.871H263.791v561.93c1.68-.023 3.332-.036 4.932-.036 39.083 0 75.856 6.462 103.548 18.195 28.237 11.964 43.788 28.082 43.788 45.385v148.18zM411.897 788.967z"/><path d="m413.466 790.389-3.669-1.594c.085-.196.169-.392.25-.589l3.699 1.521c-.09.221-.184.442-.28.662zM413.683 782.756c-.031.183-.061.367-.096.55.035-.184.066-.367.096-.55z"/><path d="m415.553 783.677-3.931-.742.082-.47 1.979.291 1.966.369c-.031.185-.062.367-.096.552zM268.723 778.344c-2.329 0-4.636.039-6.932.094v61.414c2.298.046 4.608.071 6.932.071 52.151 0 97.878-11.641 123.52-29.123a102.389 102.389 0 0 1-8.223 5.031c-13.61-21.584-60.061-37.487-115.297-37.487z"/><path d="M268.723 841.925c-2.224 0-4.504-.023-6.971-.071l-1.961-.039v-65.328l1.952-.047c2.655-.064 4.873-.095 6.98-.095 53.335 0 100.462 15.066 115.928 36.839a98.578 98.578 0 0 0 6.455-4.027l.011-.007 2.253 3.305-.066.046c-3.022 2.057-6.284 4.019-9.771 5.885l-.199.11-.001-.003c-27.754 14.792-69.462 23.432-114.61 23.432zm-4.932-4.037c1.707.024 3.334.037 4.932.037 44.369 0 85.259-8.4 112.409-22.788-14.951-20.576-60.558-34.792-112.409-34.792-1.538 0-3.139.017-4.932.051v57.492z"/><path d="M416.058 1080H121.387V778.345h4c0 .454.016.907.041 1.36l.033.438c.022.304.048.612.082.919.018.165.04.327.061.49.04.302.083.59.131.876l.088.507c.057.3.121.599.188.897l.099.442c.107.441.223.876.353 1.31l.089.272c.108.349.221.695.343 1.04l.201.536a28.672 28.672 0 0 0 1.53 3.395l.09.172c.074.143.147.284.226.427.156.283.324.567.491.851.196.334.399.663.607.992l.105.167c.093.147.187.296.284.443.133.201.27.398.407.597l.08.115c.132.189.253.364.378.538.179.249.358.492.541.734l.385.502c.195.251.394.506.6.759l.337.406a49.751 49.751 0 0 0 2.613 2.897l.176.182c.302.308.606.606.913.904l.289.279c.31.297.626.593.947.887l.264.239c.35.316.699.629 1.057.938a73.944 73.944 0 0 0 5.347 4.195l.105.076c.466.331.936.66 1.414.986 25.033 17.065 68.21 27.796 115.552 28.738 2.439.048 4.694.071 6.892.071 50.21 0 95.964-10.757 122.393-28.775.529-.36.999-.689 1.462-1.02l1.271 1.55-1.164-1.627a73.763 73.763 0 0 0 5.3-4.155c.404-.35.753-.662 1.099-.975l.264-.239c.325-.298.642-.595.952-.891l.288-.28c.307-.298.611-.597.907-.897l.189-.195c.911-.935 1.79-1.91 2.605-2.891l.338-.407c.204-.251.403-.505.6-.759l.385-.503c.181-.24.36-.483.537-.729l.442-.63c.143-.207.286-.413.423-.621.099-.149.192-.298.285-.445l.106-.168c.208-.328.411-.658.607-.991.18-.306.34-.578.491-.853.084-.153.164-.308.245-.463l.066-.128c.127-.242.252-.479.369-.717a32.617 32.617 0 0 0 .862-1.911c.106-.258.206-.518.303-.775l.2-.533c.122-.344.234-.69.342-1.037l.089-.272a25.7 25.7 0 0 0 .353-1.31l.099-.446c.067-.298.132-.596.188-.895l.083-.473c.054-.325.097-.61.135-.896.023-.18.045-.342.062-.505.035-.311.061-.618.083-.925l.033-.435c.025-.453.041-.905.041-1.359h4V1080zm-290.671-4h286.671V793.264l-.047.086c-.17.31-.349.615-.529.92-.239.406-.465.773-.697 1.14l-.101.159c-.109.174-.219.347-.333.52-.152.229-.311.459-.469.689l-.132.189c-.117.168-.234.336-.354.502-.19.266-.388.534-.589.801l-.417.544c-.215.277-.433.556-.658.832l-.367.441a53.742 53.742 0 0 1-2.824 3.132l-.202.209c-.311.316-.637.637-.966.955l-.307.298c-.335.32-.673.637-1.016.95l-.289.263c-.363.328-.734.66-1.114.989a78.432 78.432 0 0 1-5.637 4.424l-.114.081c-.485.346-.977.688-1.476 1.03-27.122 18.49-73.718 29.507-124.701 29.507-2.224 0-4.504-.023-6.971-.071-48.087-.958-92.077-11.948-117.675-29.399a93.887 93.887 0 0 1-1.531-1.066l-.118-.085a77.773 77.773 0 0 1-5.584-4.378 71.708 71.708 0 0 1-1.167-1.035l-.285-.259a57.625 57.625 0 0 1-1.012-.948l-.313-.303a58.475 58.475 0 0 1-.969-.959l-.195-.202a54.034 54.034 0 0 1-2.823-3.131l-.366-.44a47.867 47.867 0 0 1-.658-.833l-.416-.542a40.578 40.578 0 0 1-.999-1.384l-.095-.137c-.153-.222-.307-.443-.454-.666a25.306 25.306 0 0 1-.332-.518l-.1-.158a40.373 40.373 0 0 1-.676-1.104c-.186-.316-.374-.634-.549-.954l-.048-.088V1076z"/><path d="m154.112 818.495-1.651-.91a104.478 104.478 0 0 1-8.384-5.131 93.887 93.887 0 0 1-1.531-1.066l-.118-.085a77.975 77.975 0 0 1-5.584-4.378 71.708 71.708 0 0 1-1.167-1.035l-.285-.259c-.343-.313-.68-.63-1.011-.947l-.314-.304a54.8 54.8 0 0 1-.969-.959l-.195-.202a53.957 53.957 0 0 1-2.823-3.131l-.366-.44a47.867 47.867 0 0 1-.658-.833l-.416-.542a40.578 40.578 0 0 1-.999-1.384 25.306 25.306 0 0 1-.88-1.321l-.1-.158a40.373 40.373 0 0 1-.676-1.104c-.186-.316-.374-.634-.549-.954a22.903 22.903 0 0 1-.27-.509l-.083-.159a37.262 37.262 0 0 1-.409-.796 32.754 32.754 0 0 1-.301-.632 35.777 35.777 0 0 1-.675-1.532 30.821 30.821 0 0 1-.344-.879l-.057-.148a18.29 18.29 0 0 1-.172-.463c-.14-.395-.27-.792-.393-1.189l-.102-.317a30.734 30.734 0 0 1-.404-1.499c-.029-.116-.056-.239-.083-.361l-.034-.153a32.95 32.95 0 0 1-.217-1.036c-.035-.185-.065-.367-.096-.552a31.174 31.174 0 0 1-.228-1.62c-.04-.359-.07-.717-.097-1.073l-.038-.506a28.745 28.745 0 0 1-.047-1.581c0-16.776 14.738-32.542 41.5-44.393 26.147-11.579 61.257-18.367 98.864-19.116 2.381-.047 4.727-.071 6.972-.071 39.083 0 75.856 6.462 103.548 18.195 28.237 11.964 43.788 28.082 43.788 45.385 0 .528-.018 1.054-.047 1.579l-.038.51a29.92 29.92 0 0 1-.096 1.07 31.265 31.265 0 0 1-.221 1.583c-.038.223-.068.405-.103.59-.064.345-.139.689-.217 1.036l-.115.515a29.809 29.809 0 0 1-.406 1.503l-.073.228c-.151.483-.28.879-.42 1.274a22.18 22.18 0 0 1-.168.453l-.06.157c-.112.297-.226.592-.346.885a37.372 37.372 0 0 1-.649 1.476l-.046.098c-.092.194-.184.39-.279.585a37.81 37.81 0 0 1-.412.8l-.083.161c-.087.169-.175.337-.268.506-.168.306-.347.611-.527.916-.239.406-.465.773-.697 1.14l-.101.159c-.109.174-.219.347-.333.52-.152.229-.311.459-.469.689l-.484.689c-.193.268-.39.536-.591.803l-.417.544a51.02 51.02 0 0 1-.658.832l-.367.441a53.994 53.994 0 0 1-2.824 3.132l-.202.209c-.311.316-.637.637-.966.955l-.307.298c-.335.32-.673.638-1.017.951l-.279.254c-.372.336-.743.668-1.123.997a78.614 78.614 0 0 1-5.637 4.424l-.114.081c-.485.346-.977.688-1.476 1.03a105.223 105.223 0 0 1-8.439 5.167l-1.651.91-1.006-1.596c-13.569-21.522-60.285-36.555-113.604-36.555-2.074 0-4.262.029-6.884.093-50.068 1.217-93.953 16.211-106.721 36.462l-1.005 1.594zm114.611-42.15c53.335 0 100.462 15.066 115.928 36.839a98.355 98.355 0 0 0 6.465-4.034c.529-.36.999-.689 1.462-1.02l1.271 1.55-1.164-1.627a74.006 74.006 0 0 0 5.3-4.155c.404-.35.753-.662 1.099-.975l.264-.239c.327-.299.642-.595.952-.891l.288-.28c.307-.298.611-.597.907-.897l.189-.195a50.09 50.09 0 0 0 2.606-2.891l.335-.403c.207-.255.406-.51.604-.765l.383-.501c.181-.24.36-.483.537-.729l.442-.63c.143-.207.286-.413.423-.621.099-.149.192-.298.285-.445l.106-.168c.208-.328.411-.658.607-.991.18-.306.34-.578.491-.853.078-.141.149-.279.222-.419l.091-.175c.125-.239.25-.477.367-.714.084-.171.165-.343.245-.515a31.346 31.346 0 0 0 .617-1.396c.106-.258.206-.518.303-.775l.2-.533c.122-.344.234-.69.342-1.037l.089-.272a25.7 25.7 0 0 0 .353-1.31l.099-.446c.067-.298.132-.596.188-.895l.083-.473c.054-.325.097-.61.135-.896.023-.18.045-.342.062-.505.035-.311.061-.618.083-.925l.033-.436c.025-.451.041-.904.041-1.358 0-15.595-14.684-30.404-41.348-41.702-27.209-11.528-63.429-17.878-101.987-17.878-2.218 0-4.537.023-6.892.071-37.088.737-71.652 7.405-97.324 18.773-25.227 11.171-39.119 25.638-39.119 40.735 0 .454.016.907.041 1.36l.033.438c.022.304.048.612.082.919l.063.507c.038.285.081.573.129.859l.088.507c.057.301.122.601.189.9l.098.439c.107.442.224.877.353 1.312l.088.271c.108.351.221.695.343 1.04l.201.536a28.672 28.672 0 0 0 1.165 2.685c.116.236.241.474.365.71l.09.172c.074.143.147.284.226.427.156.283.324.567.491.851.196.334.399.663.607.992l.105.167c.093.147.187.296.284.443.146.221.296.438.447.655.171.246.292.421.417.595.179.249.358.492.541.734l.385.502c.195.251.394.506.6.759l.34.409a50.13 50.13 0 0 0 2.61 2.895l.176.182c.302.308.605.605.912.902l.29.281c.31.296.626.593.947.887l.272.247c.341.309.69.621 1.048.931a74.143 74.143 0 0 0 5.347 4.195l.105.075c.466.332.936.661 1.414.987a98.44 98.44 0 0 0 6.516 4.068c14.768-20.822 58.082-35.509 108.948-36.744 2.655-.063 4.873-.093 6.981-.093z"/><path fill="#FF8630" d="M130.635 797.588z"/><path d="m129.052 798.81-.412-.538 3.191-2.412.386.505z"/><path fill="#FF8630" d="M129.671 796.299c-.137-.19-.269-.381-.402-.572.132.191.265.382.402.572z"/><path d="M128.049 797.469c-.139-.192-.274-.387-.409-.58l3.271-2.303c.135.194.256.369.381.543l-3.243 2.34z"/><path fill="#FF8630" d="M125.549 788.967z"/><path d="M123.699 789.727a32.913 32.913 0 0 1-.346-.883l3.741-1.414c.098.258.198.518.304.775l-3.699 1.522z"/><path fill="#FF8630" d="M123.556 781.281z"/><path d="M121.568 781.501c-.04-.355-.07-.713-.096-1.069l3.989-.293c.022.308.049.616.083.923l-3.976.439z"/><path fill="#FF8630" d="M126.162 790.362z"/><path d="M124.35 791.207a34.955 34.955 0 0 1-.37-.819l3.67-1.592c.104.241.214.481.326.722l-3.626 1.689z"/><path fill="#FF8630" d="M124.547 786.157z"/><path d="M122.631 786.73v-.002c-.149-.499-.283-1-.405-1.501l3.886-.947c.106.437.223.871.352 1.306l-3.833 1.144z"/><path fill="#FF8630" d="M126.855 791.757z"/><path d="M125.084 792.686c-.14-.266-.279-.532-.411-.799l3.584-1.774c.118.238.243.477.367.714l-3.54 1.859z"/><path fill="#FF8630" d="M128.761 794.984c-.142-.214-.276-.43-.412-.645.136.215.27.43.412.645z"/><path d="M127.093 796.088a26.758 26.758 0 0 1-.333-.52l-.1-.158 3.378-2.143.106.168c.093.147.187.296.284.443l-3.335 2.21z"/><path fill="#FF8630" d="M123.762 782.756z"/><path d="M121.789 783.084a30.883 30.883 0 0 1-.148-.993l3.966-.525c.038.288.081.576.129.862l-3.947.656z"/><path fill="#FF8630" d="M127.708 793.292c-.177-.301-.354-.602-.521-.905.167.303.344.604.521.905z"/><path d="M125.985 794.308c-.187-.318-.375-.636-.55-.956l3.505-1.928c.157.285.324.569.492.853l-3.447 2.031z"/><path fill="#FF8630" d="M123.387 778.344z"/><path d="M121.434 779.924a28.613 28.613 0 0 1-.047-1.579h4c0 .454.016.907.041 1.36l-3.994.219z"/><path fill="#FF8630" d="m145.203 810.802-.053-.036.053.036z"/><path d="m144.094 812.466-.053-.035 2.219-3.329z"/><path fill="#FF8630" d="m143.707 809.759-.111-.079.111.079z"/><path d="m142.548 811.389-.12-.086 2.337-3.246.1.072z"/><path fill="#FF8630" d="M135.762 803.238c-.101-.096-.2-.193-.299-.29l.299.29z"/><path d="m134.38 804.684-.313-.304 2.793-2.863.285.276z"/><path fill="#FF8630" d="M124.061 784.272z"/><path d="M122.11 784.713a28.888 28.888 0 0 1-.217-1.036l3.931-.742c.057.301.122.601.189.9l-3.903.878z"/><path fill="#FF8630" d="M131.617 798.808c-.117-.141-.237-.282-.352-.423.115.141.234.282.352.423z"/><path d="m130.079 800.087-.366-.44 3.103-2.525.342.411z"/><path fill="#FF8630" d="m137.019 804.406-.276-.251c.091.084.183.168.276.251z"/><path d="m135.681 805.893-.289-.262 2.7-2.951.273.247z"/><path fill="#FF8630" d="m138.152 805.411-.047-.04.047.04z"/><path d="m136.822 806.906 2.599-3.041-2.599 3.041z"/><path fill="#FF8630" d="M125.01 787.565z"/><path d="M123.125 788.234c-.141-.396-.27-.793-.394-1.19l3.82-1.186c.107.344.218.687.339 1.028l.003.01-3.768 1.338z"/><path fill="#FF8630" d="m134.524 802.019-.189-.196.189.196z"/><path d="m133.104 803.428-.125-.13 2.781-2.878.183.189z"/><path fill="#FF8630" d="M412.803 786.452z"/><path d="m414.321 788.232-3.771-1.334c.122-.345.235-.691.342-1.038l3.821 1.184a31.11 31.11 0 0 1-.392 1.188z"/><path fill="#FF8630" d="M413.822 781.828z"/><path d="m415.656 783.087-3.945-.662c.048-.285.091-.57.128-.856l3.966.52c-.044.332-.094.666-.149.998z"/><path fill="#FF8630" d="M413.588 783.305z"/><path d="m415.335 784.713-3.901-.881c.067-.298.131-.596.188-.895l3.932.736c-.066.348-.14.693-.219 1.04z"/><path fill="#FF8630" d="M413.979 780.285z"/><path d="m415.877 781.504-3.975-.445c.034-.306.06-.613.082-.92l3.989.293c-.026.357-.056.715-.096 1.072z"/><path fill="#FF8630" d="M414.058 778.344z"/><path d="m416.011 779.924-3.994-.219c.025-.453.041-.906.041-1.36h4c0 .528-.018 1.053-.047 1.579z"/><path fill="#FF8630" d="M413.277 784.754z"/><path d="m414.814 786.73-3.832-1.146c.13-.435.246-.869.352-1.306l3.886.951a30.32 30.32 0 0 1-.406 1.501z"/><path fill="#FF8630" d="M412.221 788.137z"/><path d="m413.747 789.727-3.699-1.521c.106-.258.206-.518.303-.775l3.741 1.414c-.112.295-.225.59-.345.882z"/><path fill="#FF8630" d="M410.258 792.388c-.167.303-.344.604-.521.905.177-.302.354-.603.521-.905z"/><path d="m411.482 794.269-3.469-1.991c.181-.308.341-.58.492-.854l3.505 1.928a33.84 33.84 0 0 1-.528.917z"/><path fill="#FF8630" d="m400.703 804.156-.276.251.276-.251z"/><path d="m401.764 805.893-2.683-2.966.268-.243 2.708 2.943z"/><path fill="#FF8630" d="m403.11 801.823-.189.196c.065-.065.126-.131.189-.196z"/><path d="m404.341 803.428-2.839-2.819.184-.189 2.849 2.807z"/><path fill="#FF8630" d="m399.341 805.37-.047.04a.901.901 0 0 0 .047-.04z"/><path d="m400.623 806.906-2.646-3 2.681 2.969z"/><path fill="#FF8630" d="m401.982 802.948-.299.29c.101-.096.2-.193.299-.29z"/><path d="m403.069 804.681-2.772-2.885.292-.283 2.786 2.871z"/><path fill="#FF8630" d="m393.849 809.68-.111.079.111-.079z"/><path d="m394.958 811.346-1.219-1.587-1.158-1.63.11-.079 2.317 3.26-1.158-1.63z"/><path fill="#FF8630" d="M392.295 810.766a2.435 2.435 0 0 1-.053.036l.053-.036z"/><path d="m393.352 812.466-2.219-3.328 2.271 3.293z"/><path fill="#FF8630" d="M406.181 798.385c-.115.142-.235.282-.352.423.117-.141.237-.282.352-.423z"/><path d="m407.367 800.087-3.076-2.557.338-.408 3.105 2.521z"/><path fill="#FF8630" d="M409.096 794.339c-.136.215-.27.43-.412.645.142-.215.276-.43.412-.645z"/><path d="m410.352 796.088-3.335-2.209c.098-.147.191-.296.284-.443l.106-.168 3.378 2.143-.1.158a30.12 30.12 0 0 1-.333.519z"/><path fill="#FF8630" d="M411.631 789.592z"/><path d="m413.096 791.207-3.627-1.687c.113-.242.223-.484.329-.728l3.667 1.598c-.118.271-.241.541-.367.812l-.002.005z"/><path fill="#FF8630" d="M410.979 791.002a33.64 33.64 0 0 1-.388.755c.131-.251.263-.503.388-.755z"/><path d="m412.361 792.686-3.541-1.859c.124-.236.249-.474.366-.711l3.586 1.771c-.132.267-.272.534-.411.799z"/><path fill="#FF8630" d="M408.177 795.727a34.92 34.92 0 0 1-.402.572c.136-.19.269-.381.402-.572z"/><path d="m409.396 797.469-3.246-2.338.385-.548 3.281 2.289-.066.095c-.116.168-.233.336-.354.502z"/><path fill="#FF8630" d="M407.21 797.066c-.131.174-.265.348-.399.521.134-.173.268-.346.399-.521z"/><path d="m408.391 798.813-3.161-2.451.384-.502 3.192 2.412zM268.723 778.344c-55.236 0-101.688 15.902-115.296 37.489 26.568 14.648 68.326 24.091 115.296 24.091s88.728-9.444 115.296-24.091c-13.609-21.586-60.06-37.489-115.296-37.489z"/><path fill="#FFF" d="M259.001 1009.827H243.9c-70.038 0-127.018-57.184-127.018-127.472v-26.206a2 2 0 0 1 4 0v26.206c0 68.082 55.186 123.472 123.018 123.472h15.102c67.832 0 123.018-55.39 123.018-123.472v-17.378a2 2 0 0 1 4 0v17.378c-.001 70.288-56.981 127.472-127.019 127.472z"/><circle fill="#FFF" cx="384.019" cy="856.149" r="9.256"/><path fill="#FFF" d="M121.575 865.405a9.256 9.256 0 0 1-9.256-9.256 9.256 9.256 0 0 1 9.256-9.256v18.512z"/><path d="M754.193 450.377c-70.723-150.99-72.178-300.479-72.185-301.971v.193l-160-.095c0 .369.002 1.17.017 2.366H261.791v565.965c2.298-.046 4.608-.072 6.932-.072 80.266 0 145.335 27.57 145.335 61.58v150.181h258.585V629.205c96.744 140.688 262.192 273.422 542.811 297.321l13.353-156.804c-224.638-19.133-384.321-126.575-474.614-319.345z"/><path d="M1070.953 637.026c-.146.61-.752.948-1.323.811-.191-.046-.401-.177-.611-.308l-10.467-8.116c-.507-.404-.663-.764-.544-1.259.119-.495.506-.766 1.056-.875l13.01-2.479c.247-.021.494-.043.684.003.572.137.957.714.811 1.323-.101.419-.535.718-1.085.828l-11.161 1.996 9.038 6.846c.441.347.692.811.592 1.23z"/><path d="M1069.891 639.868c-.243 0-.487-.028-.729-.087-.502-.121-.901-.368-1.192-.549l-.177-.123-10.466-8.116c-1.432-1.137-1.476-2.424-1.263-3.307.297-1.234 1.248-2.098 2.609-2.369l13.229-2.51c.346-.03.816-.071 1.326.051a3.101 3.101 0 0 1 2.286 3.735c-.279 1.164-1.29 2.054-2.639 2.322l-6.702 1.198 5.396 4.087c1.11.877 1.607 2.129 1.328 3.292v.001a3.068 3.068 0 0 1-1.423 1.936 3.074 3.074 0 0 1-1.583.439zm.387-3.915zM1079.512 642.83l4.639-19.322c.183-.762.75-1.11 1.512-.927l5.183 1.244c5.374 1.29 7.427 4.323 6.649 7.562-.577 2.401-2.276 3.605-4.45 3.93 2.314 1.442 3.55 3.513 2.919 6.142-.997 4.154-5.007 5.409-10.038 4.201l-5.488-1.318c-.761-.183-1.109-.75-.926-1.512zm4.951-10.38 4.078.979c3.468.833 5.904.087 6.499-2.39.595-2.477-1.237-4.247-4.706-5.08l-4.078-.979-1.793 7.47zm-2.406 10.023 4.383 1.052c3.811.915 6.42.292 7.115-2.605.631-2.63-1.219-4.324-5.259-5.294l-4.345-1.043-1.894 7.89z"/><path d="M1089.348 648.097c-1.207.001-2.508-.161-3.888-.492l-5.487-1.318c-.888-.212-1.619-.724-2.057-1.438-.438-.715-.562-1.598-.348-2.486l4.639-19.32c.212-.888.723-1.618 1.438-2.057.714-.438 1.598-.562 2.486-.348l5.182 1.244c7.334 1.76 9.008 6.306 8.127 9.973-.428 1.786-1.356 3.19-2.703 4.142 1.266 1.719 1.69 3.77 1.173 5.931-.955 3.973-4.111 6.169-8.562 6.169zm-4.879-7.101 2.438.585c1.993.477 3.073.358 3.629.173.431-.143.858-.398 1.075-1.3.134-.559.447-1.866-3.782-2.883l-2.399-.576-.961 4.001zm2.406-10.024 2.133.513c1.337.319 2.474.357 3.198.104.501-.176.758-.47.89-1.016.354-1.479-1.56-2.268-3.229-2.669l-2.133-.512-.859 3.58zM1108.527 628.07l5.336 1.281c4.611 1.107 8.183 3.859 6.93 9.08-1.235 5.145-5.695 6.09-10.306 4.983l-4.23-1.016-1.665 6.936c-.201.839-.807 1.177-1.492 1.012-.686-.165-1.034-.732-.832-1.57l4.749-19.78c.181-.762.748-1.109 1.51-.926zm-1.758 12.194 4.307 1.034c3.43.823 6.484.025 7.316-3.443.851-3.544-1.535-5.528-4.965-6.351l-4.307-1.034-2.351 9.794z"/><path d="M1103.428 652.388c-.263 0-.53-.032-.797-.097-1.788-.431-2.759-2.104-2.31-3.981l4.749-19.779c.214-.889.725-1.619 1.439-2.057.715-.438 1.598-.561 2.486-.348l5.334 1.28c6.61 1.587 9.754 5.884 8.407 11.492-1.332 5.548-6.206 8.025-12.717 6.46l-2.286-.549-1.199 4.991c-.218.912-.711 1.637-1.426 2.098-.5.324-1.079.49-1.68.49zm5.753-13.602 2.361.567c4.191 1.004 4.729-1.23 4.905-1.966.192-.802.703-2.933-3.487-3.939l-2.362-.566-1.417 5.904zM1125.012 653.753l4.639-19.322c.183-.762.75-1.11 1.512-.927l12.538 3.01c.839.201 1.139.797.992 1.407-.146.61-.685 1.005-1.523.803-1.753-.421-8.776-2.228-11.397-2.898l-1.821 7.584c2.639.593 7.23 1.615 8.488 1.917.839.201 1.139.797.993 1.407-.146.61-.684 1.005-1.523.803-1.258-.302-5.622-1.43-8.433-2.146l-1.94 8.08c2.868.648 9.717 2.171 11.47 2.592.839.201 1.139.797.993 1.407-.146.61-.685 1.005-1.523.803l-12.539-3.01c-.762-.18-1.109-.747-.926-1.51z"/><path d="M1138.903 660.329c-.29 0-.589-.035-.894-.107l-12.538-3.012c-1.832-.438-2.844-2.089-2.405-3.923l.001-.001 4.639-19.322c.441-1.834 2.092-2.843 3.923-2.405l12.539 3.012c1.854.444 2.893 2.049 2.472 3.815-.204.851-.716 1.549-1.442 1.971-.508.296-1.354.589-2.495.312-1.424-.342-6.237-1.575-9.457-2.4l-.873 3.636.146.033c2.507.561 5.427 1.215 6.392 1.447 1.143.273 1.761.918 2.078 1.41a3.07 3.07 0 0 1 .391 2.408 3.08 3.08 0 0 1-1.44 1.968c-.507.293-1.348.587-2.493.312-.832-.199-3.018-.759-5.221-1.323l-1.275-.326-.991 4.133 1.352.304c3.135.702 6.925 1.552 8.166 1.851 1.144.273 1.762.919 2.08 1.411.455.706.594 1.562.39 2.408-.358 1.476-1.573 2.388-3.045 2.388zM1152.745 638.121c.686.165.93.828 1.108 1.596l3.169 12.49 8.494-9.69c.508-.604 1.026-1.084 1.712-.919.686.165 1.043.694.823 1.608l-4.849 20.199c-.201.839-.768 1.186-1.454 1.021-.686-.165-1.072-.741-.87-1.58l3.898-16.235-7.016 8.07c-.546.594-.962.817-1.495.689-.534-.128-.803-.515-1.02-1.293l-2.588-10.376-3.898 16.235c-.201.839-.769 1.186-1.454 1.021-.686-.165-1.072-.741-.87-1.58l4.849-20.199c.217-.912.775-1.221 1.461-1.057z"/><path d="M1162.069 666.467c-.26 0-.525-.031-.79-.096-1.812-.436-2.799-2.113-2.348-3.99l1.99-8.289-1.654 1.903c-.43.467-1.619 1.768-3.472 1.32-1.851-.442-2.324-2.142-2.48-2.7l-.624-2.501-1.99 8.29c-.271 1.134-.894 1.755-1.368 2.076-.72.487-1.607.64-2.498.423-1.812-.436-2.799-2.113-2.348-3.99l4.85-20.199c.396-1.646 1.636-2.604 3.091-2.636l.189-.789.203.815c.129.017.259.04.391.071l.002.001c1.981.477 2.438 2.442 2.589 3.088l2.223 8.765 5.987-6.83c.399-.477 1.696-2.021 3.684-1.545.131.031.258.069.38.113l.552-.635-.189.789c1.321.658 1.952 2.104 1.559 3.75l-4.851 20.2c-.271 1.134-.894 1.755-1.368 2.076a3.023 3.023 0 0 1-1.71.52zM1170.74 664.732l4.639-19.322c.183-.762.75-1.11 1.512-.927l12.539 3.01c.838.201 1.139.797.992 1.407-.146.61-.685 1.005-1.523.803-1.753-.421-8.776-2.228-11.397-2.898l-1.821 7.584c2.639.593 7.23 1.615 8.488 1.917.838.201 1.139.797.993 1.407-.146.61-.685 1.005-1.523.803-1.258-.302-5.622-1.43-8.433-2.146l-1.94 8.08c2.867.648 9.717 2.171 11.47 2.592.838.201 1.139.797.992 1.407s-.685 1.005-1.523.803l-12.539-3.01c-.762-.181-1.109-.748-.926-1.51z"/><path d="M1184.631 671.308c-.289 0-.588-.035-.893-.108l-12.539-3.011c-1.832-.438-2.844-2.089-2.405-3.923l.001-.001 4.639-19.322c.441-1.833 2.093-2.84 3.923-2.405l12.54 3.012c1.855.445 2.895 2.051 2.47 3.818-.424 1.767-2.077 2.722-3.935 2.281-1.426-.343-6.239-1.576-9.459-2.401l-.873 3.636.125.028c2.511.562 5.443 1.219 6.411 1.451 1.857.447 2.896 2.053 2.471 3.819a3.07 3.07 0 0 1-1.442 1.968c-.505.294-1.347.587-2.492.312-.832-.199-3.018-.759-5.221-1.323l-1.275-.326-.992 4.132 1.543.347c3.096.694 6.759 1.516 7.976 1.809 1.144.273 1.762.918 2.079 1.41a3.07 3.07 0 0 1 .391 2.408c-.357 1.476-1.57 2.389-3.043 2.389zM1193.075 670.578l4.859-20.237c.201-.838.769-1.186 1.454-1.021.686.165 1.072.741.87 1.579l-2.086 8.69 10.29 2.47 2.086-8.689c.201-.838.769-1.186 1.454-1.021.686.165 1.072.741.87 1.579l-4.859 20.237c-.201.839-.807 1.177-1.493 1.012-.686-.165-1.033-.732-.832-1.57l2.26-9.413-10.29-2.47-2.26 9.413c-.201.839-.807 1.177-1.493 1.012-.684-.166-1.032-.733-.83-1.571z"/><path d="M1206.862 677.219c-.263 0-.532-.031-.806-.097-1.792-.432-2.763-2.105-2.312-3.982l1.793-7.47-6.401-1.536-1.793 7.469c-.219.912-.712 1.638-1.427 2.098-.721.465-1.604.604-2.478.392-.89-.212-1.612-.749-2.032-1.51-.277-.501-.55-1.337-.278-2.472h.001l4.858-20.236c.452-1.879 2.078-2.926 3.867-2.499 1.811.436 2.798 2.114 2.347 3.99l-1.619 6.745 6.401 1.536 1.619-6.744c.449-1.876 2.069-2.926 3.864-2.5 1.813.437 2.801 2.114 2.35 3.991l-4.858 20.237c-.383 1.593-1.623 2.588-3.096 2.588zM1215.939 676.067l4.859-20.237c.201-.838.768-1.186 1.454-1.021.686.165 1.072.741.87 1.579l-2.086 8.689 10.29 2.47 2.086-8.689c.201-.838.768-1.186 1.454-1.021.686.165 1.072.741.87 1.579l-4.859 20.237c-.201.839-.807 1.177-1.493 1.012-.686-.165-1.034-.732-.832-1.57l2.26-9.413-10.29-2.47-2.26 9.413c-.201.839-.807 1.177-1.493 1.012-.684-.165-1.032-.732-.83-1.57z"/><path d="M1229.728 682.708c-.263 0-.533-.031-.808-.097-1.791-.432-2.762-2.105-2.311-3.982l1.793-7.47-6.401-1.536-1.793 7.469c-.219.912-.712 1.638-1.427 2.098-.722.464-1.599.604-2.479.392-.89-.213-1.612-.749-2.032-1.51-.276-.502-.549-1.337-.277-2.472h.001l4.858-20.236c.271-1.135.895-1.756 1.369-2.076.718-.487 1.604-.64 2.498-.423 1.811.436 2.798 2.114 2.347 3.99l-1.619 6.745 6.401 1.536 1.619-6.744c.449-1.876 2.068-2.925 3.864-2.5.879.212 1.6.735 2.03 1.476.429.734.538 1.605.318 2.518l-4.858 20.235c-.381 1.592-1.62 2.587-3.093 2.587zM1238.917 681.583l3.166-13.186c1.226-5.107 4.367-7.779 9.359-6.58 4.993 1.199 6.578 5.005 5.352 10.112l-3.166 13.186c-.201.839-.807 1.177-1.493 1.012-.686-.165-1.034-.732-.832-1.57l1.61-6.708-10.061-2.416-1.61 6.708c-.201.839-.769 1.186-1.454 1.021-.687-.164-1.072-.74-.871-1.579zm12.013-17.632c-3.468-.833-5.543.927-6.531 5.042l-1.043 4.345 10.061 2.416 1.043-4.345c.988-4.116-.062-6.625-3.53-7.458z"/><path d="M1252.466 688.168c-.264 0-.531-.032-.798-.097-.89-.212-1.612-.749-2.032-1.51-.277-.501-.55-1.337-.278-2.472l1.144-4.763-6.171-1.481-1.144 4.763c-.451 1.876-2.074 2.925-3.864 2.5-1.813-.437-2.8-2.115-2.351-3.992h.001l3.166-13.186c.739-3.081 2.092-5.368 4.021-6.796 2.084-1.543 4.762-1.981 7.749-1.263 5.823 1.398 8.376 6.08 6.829 12.523l-3.166 13.187c-.219.912-.712 1.638-1.427 2.098-.5.323-1.079.489-1.679.489zm-6.699-16.308 6.173 1.481.576-2.399c.385-1.604.396-2.868.033-3.658-.197-.429-.627-1.038-2.086-1.389-1.46-.349-2.118-.002-2.488.29-.683.539-1.246 1.671-1.632 3.274l-.576 2.401zM1274.313 691.452c-.686-.165-1.072-.741-.87-1.579l1.949-8.117-4.268-1.025-7.701 7.059c-.613.538-1 .808-1.61.661-.61-.146-.967-.675-.82-1.285.11-.457.344-.764.807-1.177l6.902-6.082c-3.017-1.369-5.074-3.878-4.187-7.575 1.107-4.611 5.472-5.498 9.702-4.483l5.374 1.29c.762.183 1.11.75.927 1.512l-4.749 19.78c-.203.838-.77 1.186-1.456 1.021zm-2.677-12.856 4.268 1.025 2.068-8.613-4.268-1.025c-3.43-.823-6.121.143-6.789 2.925-.668 2.782 1.291 4.864 4.721 5.688z"/><path d="M1274.637 693.492c-.257 0-.521-.031-.789-.095l-.002-.001c-.877-.211-1.598-.734-2.028-1.476-.429-.734-.538-1.604-.318-2.518l1.481-6.17-1.29-.31-6.916 6.34c-.633.556-1.758 1.534-3.429 1.132-1.688-.405-2.696-2.028-2.299-3.694.253-1.051.859-1.703 1.419-2.204l4.891-4.31c-2.544-2.078-3.575-5.042-2.787-8.323 1.223-5.095 5.983-7.432 12.113-5.96l5.374 1.29c1.832.438 2.844 2.089 2.405 3.923l-4.75 19.78c-.382 1.597-1.615 2.596-3.075 2.596zm-3.189-21.8c-1.144 0-2.271.362-2.589 1.682-.172.719-.047 1.294.396 1.809.548.638 1.559 1.159 2.847 1.469l2.324.558 1.134-4.724-2.324-.559a7.877 7.877 0 0 0-1.788-.235zM1105.142 682.543l4.749-19.78c.201-.838.768-1.186 1.454-1.021.686.165 1.072.741.87 1.579l-4.529 18.865 5.64 1.354 4.529-18.865c.201-.838.769-1.186 1.454-1.021.686.165 1.072.741.87 1.579l-4.529 18.865 5.641 1.354 4.529-18.865c.201-.838.806-1.177 1.492-1.012.686.165 1.033.732.832 1.57l-4.749 19.78c-.183.762-.75 1.11-1.512.927l-15.816-3.797c-.76-.183-1.108-.75-.925-1.512z"/><path d="M1122.264 689.899c-.274 0-.558-.033-.845-.102l-15.816-3.799c-.888-.212-1.619-.724-2.057-1.438-.438-.715-.562-1.597-.348-2.484l4.748-19.78c.453-1.878 2.079-2.93 3.867-2.498.875.209 1.596.733 2.028 1.474.427.734.537 1.604.319 2.517l-4.062 16.92 1.751.421 4.062-16.921c.271-1.134.895-1.755 1.369-2.076.719-.486 1.606-.64 2.497-.422.85.203 1.559.706 1.994 1.416.45.735.576 1.65.353 2.576l-4.062 16.918 1.752.421 4.062-16.92c.45-1.877 2.086-2.928 3.902-2.491 1.791.431 2.763 2.105 2.312 3.982l-4.749 19.78c-.369 1.544-1.601 2.506-3.077 2.506zM1148.443 672.583l-4.602 19.17c-.201.839-.807 1.177-1.493 1.012-.686-.165-1.033-.732-.832-1.57l4.401-18.331-6.365-1.528-4.718 11.927c-1.923 4.819-3.906 7.204-8.022 6.216-.838-.201-1.204-.692-1.04-1.378.165-.686.704-.919 1.543-.718 2.096.503 3.708-1.004 5.295-5.098l4.818-12.346c.316-.811.807-1.177 1.607-.985l8.423 2.022c.839.201 1.187.768.985 1.607z"/><path d="M1142.679 694.806c-.264 0-.531-.032-.798-.097-.838-.2-1.536-.694-1.964-1.392-.317-.518-.635-1.388-.345-2.592l3.934-16.385-2.732-.655-4.079 10.312c-1.173 2.939-3.617 9.048-10.349 7.426-1.907-.457-2.942-2.016-2.519-3.788.356-1.481 1.719-2.732 3.955-2.196.885.201 1.883-1.091 2.964-3.876l4.819-12.352c.825-2.121 2.577-2.528 3.938-2.201l8.423 2.021c1.908.46 2.92 2.112 2.463 4.019h-.001l-4.603 19.17c-.219.912-.712 1.638-1.427 2.098a3.089 3.089 0 0 1-1.679.488zM1165.046 698.778c-.686-.165-1.072-.741-.87-1.579l1.949-8.117-4.268-1.025-7.701 7.059c-.613.538-1 .808-1.61.661-.61-.146-.966-.675-.82-1.285.11-.457.345-.764.807-1.177l6.902-6.082c-3.017-1.369-5.075-3.878-4.187-7.575 1.107-4.611 5.472-5.498 9.702-4.483l5.374 1.29c.762.183 1.11.75.927 1.512l-4.749 19.78c-.203.839-.77 1.186-1.456 1.021zm-2.678-12.856 4.269 1.025 2.068-8.613-4.269-1.025c-3.43-.824-6.121.143-6.789 2.925-.668 2.782 1.291 4.865 4.721 5.688z"/><path d="M1165.368 700.818c-.26 0-.525-.031-.79-.096-1.811-.436-2.798-2.114-2.347-3.99l1.481-6.173-1.29-.31-6.916 6.341c-.63.555-1.749 1.537-3.429 1.131-1.689-.405-2.698-2.029-2.297-3.697.25-1.044.856-1.698 1.418-2.2l4.891-4.31c-2.544-2.079-3.575-5.043-2.789-8.324 1.224-5.095 5.983-7.433 12.114-5.96l5.374 1.29c1.833.441 2.844 2.091 2.405 3.923l-4.75 19.78c-.271 1.134-.894 1.755-1.368 2.076a3.008 3.008 0 0 1-1.707.519zm-2.533-16.84 2.324.558 1.134-4.725-2.323-.558c-1.288-.308-2.426-.303-3.204.016-.628.258-1.001.713-1.174 1.432-.493 2.055 1.82 2.935 3.243 3.277zM1175.416 699.897l4.749-19.78c.183-.762.75-1.11 1.512-.927l12.196 2.928c.762.183 1.11.75.927 1.512l-4.749 19.78c-.201.839-.806 1.177-1.492 1.012-.686-.165-1.034-.732-.832-1.57l4.529-18.865-9.985-2.397-4.529 18.865c-.201.839-.807 1.177-1.492 1.012-.688-.164-1.036-.731-.834-1.57z"/><path d="M1188.888 706.464c-.263 0-.53-.032-.798-.097-.89-.213-1.612-.749-2.032-1.51-.276-.502-.549-1.337-.277-2.472l4.062-16.92-6.096-1.463-4.062 16.919c-.218.912-.711 1.637-1.426 2.098-.72.464-1.602.604-2.479.393-.891-.214-1.613-.75-2.032-1.51-.277-.502-.55-1.338-.276-2.472l4.748-19.779c.214-.889.725-1.619 1.438-2.057.714-.438 1.598-.562 2.486-.348l12.194 2.928c.888.212 1.618.723 2.057 1.438.438.715.562 1.598.348 2.486l-4.749 19.778c-.219.912-.712 1.638-1.426 2.098-.501.324-1.08.49-1.68.49zM1198.242 705.378l3.166-13.186c1.226-5.107 4.367-7.779 9.359-6.58 4.993 1.199 6.578 5.005 5.352 10.112l-3.166 13.186c-.201.839-.807 1.177-1.493 1.012-.686-.165-1.034-.732-.832-1.57l1.61-6.708-10.061-2.416-1.61 6.708c-.201.839-.768 1.186-1.454 1.021-.687-.165-1.073-.741-.871-1.579zm12.012-17.633c-3.468-.833-5.543.926-6.531 5.042l-1.043 4.345 10.061 2.416 1.043-4.345c.989-4.116-.062-6.625-3.53-7.458z"/><path d="M1211.802 711.964c-.263 0-.533-.031-.808-.097-1.791-.432-2.762-2.105-2.311-3.982l1.143-4.764-6.172-1.481-1.144 4.763c-.271 1.134-.894 1.755-1.368 2.076-.72.487-1.608.64-2.498.423-1.812-.436-2.799-2.113-2.348-3.99l3.166-13.187c.739-3.082 2.093-5.368 4.022-6.796 2.083-1.542 4.764-1.979 7.748-1.262 2.985.716 5.175 2.321 6.331 4.643 1.071 2.147 1.238 4.799.498 7.88l-3.166 13.187c-.38 1.592-1.62 2.587-3.093 2.587zm-6.711-16.31 6.173 1.481.576-2.399c.953-3.973-.491-4.672-2.053-5.047-1.46-.348-2.118-.002-2.488.29-.683.539-1.246 1.672-1.632 3.274l-.576 2.401zM1225.407 696.139c.146-.61.752-.948 1.323-.811.191.046.401.177.611.308l10.467 8.116c.441.348.663.764.544 1.259-.119.495-.421.745-1.056.875l-13.01 2.479c-.247.021-.494.043-.684-.003a1.096 1.096 0 0 1-.811-1.323c.101-.419.497-.727 1.085-.828l11.161-1.996-9.038-6.846c-.479-.356-.693-.811-.592-1.23z"/><path d="M1223.879 710.39c-.23 0-.483-.02-.746-.083a3.113 3.113 0 0 1-1.918-1.395 3.07 3.07 0 0 1-.369-2.341c.289-1.203 1.321-2.098 2.693-2.332l6.647-1.188-5.396-4.087c-1.103-.822-1.616-2.087-1.327-3.291a3.068 3.068 0 0 1 1.422-1.937 3.08 3.08 0 0 1 2.313-.353c.508.122.91.373 1.203.557l.166.115 10.467 8.115c1.104.872 1.559 2.073 1.262 3.308-.209.88-.832 2.009-2.603 2.367l-13.234 2.512c-.167.015-.364.033-.58.033zM1294.113 524.482a3.229 3.229 0 0 0-2.289 3.951l9.725 36.509a6.778 6.778 0 0 1-4.801 8.286 6.779 6.779 0 0 1-8.286-4.8l-9.725-36.509a3.229 3.229 0 0 0-6.24 1.662l9.725 36.509a6.78 6.78 0 0 1-4.8 8.286 6.779 6.779 0 0 1-8.286-4.8l-9.725-36.509c-1.878-7.049-9.14-11.255-16.188-9.378-7.048 1.877-11.255 9.139-9.378 16.188a3.229 3.229 0 0 0 6.24-1.662 6.778 6.778 0 0 1 4.801-8.286 6.779 6.779 0 0 1 8.286 4.8l9.725 36.509c1.878 7.049 9.139 11.255 16.188 9.378a13.203 13.203 0 0 0 8.484-6.997 13.208 13.208 0 0 0 10.842 1.849c7.048-1.877 11.256-9.139 9.378-16.188l-9.725-36.509a3.229 3.229 0 0 0-3.951-2.289zM1334.815 513.64l-27.204 7.246a3.229 3.229 0 0 0 1.662 6.24l10.483-2.792 11.468 43.052a3.229 3.229 0 0 0 6.24-1.662l-11.468-43.052 10.482-2.792a3.229 3.229 0 1 0-1.663-6.24zM1380.447 526.209l-24.084 6.415-2.865-10.758a6.308 6.308 0 0 1 4.466-7.71l17.996-4.794a3.229 3.229 0 0 0-1.662-6.24l-17.996 4.794c-6.797 1.811-10.855 8.814-9.044 15.612l9.846 36.963a3.229 3.229 0 0 0 6.24-1.662l-5.318-19.966 24.084-6.415a3.229 3.229 0 1 0-1.663-6.239zM725.652 353.792c-8.607 0-17.871-3.234-26.499-9.412-19.241-13.776-30.336-37.911-28.266-61.484.924-10.527 4.638-17.971 9.152-22.791-1.715-9.557-1.543-19.083 1.737-28.393 2.528-7.176 7.197-11.41 12.399-11.323 2.539.041 4.808 1.126 6.719 2.421.922-1.893 2.144-3.661 3.851-5.058 5.472-4.476 13.678-3.771 23.732 2.034a175.688 175.688 0 0 1 7.067 4.308c2.14-3.63 4.521-7.133 6.938-10.522 1.854-2.6 3.937-5.207 7.199-6.051 2.343-.606 4.648-.094 6.664.722l.614-1.453 1.986 1.229a244.975 244.975 0 0 1 5.938 3.793c10.934-4.769 20.821-5.86 29.908-3.346 8.734 2.417 16.249 8.139 23.517 13.673 9.589 7.302 18.641 14.193 29.569 13.074 5.003-.515 9.832-2.823 14.502-5.057.626-.3 1.251-.599 1.876-.893a174.63 174.63 0 0 1 94.297-15.565l-.452 3.975c-31.104-3.543-63.825 1.86-92.139 15.208-.619.292-1.237.588-1.857.884-4.978 2.381-10.125 4.842-15.818 5.427-12.491 1.292-22.615-6.418-32.401-13.87-6.966-5.305-14.168-10.789-22.16-13-7.525-2.081-15.753-1.376-24.859 2.17a249.932 249.932 0 0 1 17.233 12.962c7.721 6.348 15.273 13.557 18.235 23.237 3.455 11.295-.251 25.059-9.673 35.92-2.903 3.346-6.191 6.326-9.674 9.035-4.418 10.394-11.855 19.542-21.083 26.082a51.441 51.441 0 0 1-3.13 5.225 68.625 68.625 0 0 1-2.381 4.497c-4.415 7.636-12.073 17.476-23.486 20.988-2.95.908-6.058 1.354-9.255 1.354zm-44.568-88.763c-3.752 5.271-5.686 12.228-6.212 18.216-1.949 22.192 8.497 44.913 26.61 57.883 10.807 7.739 22.561 10.465 32.246 7.487 6.134-1.889 11.103-5.917 14.972-10.356-2.252.996-4.514 1.402-6.729 1.182-3.697-.36-6.775-2.348-9.611-4.351-7.902-5.581-14.087-11.199-18.918-16.649-2.714-.438-5.343-1.541-7.462-3.104-5.234-3.857-8.169-9.756-10.758-14.961-5.744-11.544-11.241-23.443-14.138-35.347zm37.757 53.345c5.152 5.352 10.737 9.854 15.827 13.448 2.398 1.694 4.968 3.371 7.692 3.638 4.546.438 8.726-3.062 11.437-6.079.89-.989 1.734-2.02 2.534-3.089a56.321 56.321 0 0 1-6.967 2.95c-3.382 1.169-8.41 2.516-13.002.709-4.18-1.644-6.875-5.437-8.756-8.558a59.72 59.72 0 0 1-3.108-5.873c-1.624 1.514-3.58 2.432-5.657 2.854zm8.369-6.624a56.85 56.85 0 0 0 3.821 7.579c1.555 2.58 3.733 5.695 6.794 6.899 3.36 1.32 7.449.196 10.231-.768a53.64 53.64 0 0 0 11.401-5.551 70.693 70.693 0 0 0 2.994-10.065c-3.399 1.825-7.806 3.702-12.307 2.794-3.575-.726-6.438-3.06-8.716-5.329-1.718 1.341-3.822 2.507-6.28 2.53h-.079c-2.728 0-4.892-1.291-6.542-3.252-.178 1.829-.584 3.57-1.317 5.163zm-11.768 2.887c2.437.118 4.818-.523 6.515-2.224.308-.309.584-.638.831-.986a64.925 64.925 0 0 1-3.115-11.345 27.068 27.068 0 0 1-6.188-3.679c-5.403-4.28-9.661-10.63-12.688-18.911-.19 3.176-.01 6.347.556 9.413 1.97 10.675 7.439 19.97 14.089 27.732zm53.89-8.715a59.42 59.42 0 0 1-2.097 7.992 58.17 58.17 0 0 0 10.79-13.32c-2.885 1.891-5.814 3.652-8.693 5.328zm-84.97-44.593c2.568 12.446 8.364 25.053 14.44 37.265 2.388 4.799 5.094 10.238 9.55 13.522a.071.071 0 0 0 .014.01c-6.726-9.293-9.716-17.825-10.947-24.494-1.145-6.201-.856-12.781.751-19.068a82.39 82.39 0 0 1-1.837-11.669 16.323 16.323 0 0 0-4.935.553c-2.709.738-5.044 2.099-7.036 3.881zm60.034 43.28c2.078 2.043 4.14 3.621 6.545 4.109 3.721.758 7.63-1.239 11.641-3.528l.803-.459c1.37-9.345 1.014-19.173-1.129-28.892a22.565 22.565 0 0 1-5.267 2.467c-1.477 10.189-5.831 19.43-12.593 26.303zm-13.98-2.41c1.071 2.016 2.605 3.641 4.66 3.641h.036c1.236-.012 2.456-.646 3.545-1.448a272.25 272.25 0 0 1-2.761-3.015 21.821 21.821 0 0 1-5.48.822zm-6.401-.684c.189.867.396 1.729.622 2.588a31.155 31.155 0 0 0-.109-2.472 29.304 29.304 0 0 1-.513-.116zm15.815-1.754c.595.651 1.196 1.304 1.801 1.955 5.788-5.921 9.627-13.782 11.163-22.502a20.78 20.78 0 0 1-1.405.116c-.544 7.793-4.009 16.153-11.379 20.33l-.18.101zm26.939-27.784a76.338 76.338 0 0 1 2.521 9.815c1.198 6.438 1.441 12.869.79 19.051 3.993-2.384 7.925-4.896 11.614-7.692a52.784 52.784 0 0 0 2.451-7.743c3.12-13.397.83-27.954-5.834-40.007-1.5.952-3.285 1.622-5.302 1.967-2.938.504-6.406.214-9.618-.958 3.716 3.985 6.863 8.664 7.283 14.23.31 4.106-1.084 8.065-3.905 11.337zm-37.846 26.231a18.705 18.705 0 0 0 3.975-.234 111.946 111.946 0 0 1-4.935-6.147c.154 1.715.383 3.425.688 5.123.071.391.161.816.272 1.258zm-5.697-1.048c.259.084.518.163.778.237-.433-2.81-.883-5.728-1.448-8.663.042 2.823.264 5.64.67 8.426zm4.528-12.778c2.569 4.209 5.793 8.276 9.317 12.299.328-.155.651-.322.966-.501 6.045-3.426 8.897-10.434 9.362-17.04a17.97 17.97 0 0 1-4.614-1.323c-5.33-2.354-9.248-6.529-11.835-11.468-1.898 5.836-2.996 11.923-3.196 18.033zm-25.458-15.779a75.137 75.137 0 0 0 1.031 3.812c2.815 9.422 7.068 16.438 12.641 20.854a23.26 23.26 0 0 0 3.017 2.027 71.185 71.185 0 0 1 .099-15.982c-4.131-.547-7.86-2.879-10.7-6.748-2.046-2.787-3.429-6.111-4.088-9.553a42.468 42.468 0 0 0-2 5.59zm79.03-25.986c7.496 13.073 10.129 29.033 6.714 43.696-.148.64-.309 1.275-.48 1.908a57.83 57.83 0 0 0 4.079-4.232c6.683-7.703 12.522-20.189 8.87-32.129-2.651-8.667-9.713-15.367-16.95-21.317a246.249 246.249 0 0 0-7.104-5.624 51.65 51.65 0 0 1 6.666 12.515l.207.566-.141.586a11.08 11.08 0 0 1-1.861 4.031zm-57.464 33.879c.144.387.293.771.449 1.153a70.78 70.78 0 0 1 4.388-16.785 34.444 34.444 0 0 1-.242-.815 66.976 66.976 0 0 0-4.3 12.996 54.608 54.608 0 0 1-.295 3.451zm17.273-29.753c.326.596.626 1.182.912 1.739 3.953 7.721 8.433 16.473 9.297 25.936.027.293.049.588.067.886a17.94 17.94 0 0 0 1.932-.23 52.25 52.25 0 0 0-.207-11.174c-.99-7.929-3.687-15.241-7.714-21.346l-.404-.487a63.395 63.395 0 0 0-3.883 4.676zm-33.069 14.469c.454 3.244 1.662 6.425 3.542 8.986 1.951 2.658 4.409 4.365 7.106 4.981-.913-2.196-1.989-4.312-3.277-6.305-1.853-2.866-4.408-5.558-7.371-7.662zm24.871-.195c2.046 5.676 5.822 10.648 11.465 13.142.94.415 1.943.719 2.983.914a26.282 26.282 0 0 0-.025-.291c-.79-8.645-4.857-16.63-8.81-24.351a67.316 67.316 0 0 0-5.613 10.586zm23.238-2.98a57.28 57.28 0 0 1 1.269 15.825 18.167 18.167 0 0 0 3.784-2.172l-.097-.35a83.443 83.443 0 0 0-4.956-13.303zm3.484-1.985a90.5 90.5 0 0 1 5.466 11.374c1.182-2.011 1.731-4.227 1.561-6.485-.448-5.934-5.112-10.989-9.615-15.152a171.29 171.29 0 0 0-8.473-7.332l-.136.127c4.381 5.227 8.155 11.105 11.197 17.468zm-51.669.314c3.91 2.279 7.288 5.451 9.781 8.85.006-2.651.329-5.296.967-7.927a56.916 56.916 0 0 0-2.949-8.991c-2.927 2.106-5.557 4.819-7.799 8.068zm14.86 1.003c.292 1.327.54 2.663.741 4.007a68.994 68.994 0 0 1 3.66-7.818 35.161 35.161 0 0 1-.046-6.048c-2.006 3.277-3.459 6.565-4.355 9.859zm-22.408.164c.108 1.14.242 2.276.399 3.408.434-.961.903-1.907 1.403-2.835a21.407 21.407 0 0 0-1.802-.573zm-6.419-33.145c-3.998 0-6.996 4.457-8.474 8.653-2.735 7.763-3.111 15.782-1.955 23.897 2.254-1.655 4.573-2.756 6.75-3.351a20.686 20.686 0 0 1 5.746-.727 82.46 82.46 0 0 1 2.809-24.45c.156-.576.323-1.163.506-1.754-1.606-1.207-3.412-2.239-5.294-2.269l-.088.001zm37.329 29.992.062.465a71.462 71.462 0 0 1 2.662-4.782 61.54 61.54 0 0 0-2.724 4.317zm-31.199-1.071c1.375.281 2.719.688 4.023 1.201a20.36 20.36 0 0 1 1.008-3.74c1.483-3.93 3.719-7.346 6.478-10.419a53.788 53.788 0 0 0-8.914-10.85c-2.071 7.682-2.934 15.775-2.595 23.808zm19.068-7.13a61.648 61.648 0 0 1 1.768 4.557 46.983 46.983 0 0 1 3.679-6.685 26.683 26.683 0 0 0-5.447 2.128zm12.437-1.783a38.452 38.452 0 0 0-.401 2.741 64.719 64.719 0 0 1 2.317-3.076 6.907 6.907 0 0 0-1.734-.594c-.041.194-.08.39-.117.585l.129.235-.194.109zm-17.883-.361c-.5.601-.978 1.215-1.43 1.842a34.24 34.24 0 0 1 1.727-1.267 78.568 78.568 0 0 0-.297-.575zm42.586-11.678c.459 2.017 1.229 3.954 2.389 5.747 2.922 4.517 9.044 6.095 13.584 5.32 1.083-.186 2.57-.588 3.912-1.461a53.289 53.289 0 0 0-6.783-8.434c-1.57-1.587-3.461-3.259-5.577-3.631-2.561-.448-5.333 1.027-7.525 2.459zm-39.714 8.598c.293.53.579 1.064.857 1.604a30.592 30.592 0 0 1 8.094-2.829 34.957 34.957 0 0 1-1.148-5.078c-2.835 1.98-5.48 4.055-7.803 6.303zm16.45-1.306a10.528 10.528 0 0 1 3.124 1.322 60.712 60.712 0 0 1 4.463-4.396 40.907 40.907 0 0 0-2.333-2.27 77.714 77.714 0 0 0-5.254 5.344zm29.805-13.835c.553 0 1.112.046 1.678.146 3.221.565 5.714 2.722 7.727 4.756a56.974 56.974 0 0 1 6.624 8.067 7.72 7.72 0 0 0 .21-.573c-3.181-8.356-8.801-15.787-15.919-21.213a89.69 89.69 0 0 0-6.726 3.724c-.479 2.403-.744 4.862-.672 7.275 2.085-1.187 4.503-2.182 7.078-2.182zm-34.725 6.342a31.027 31.027 0 0 0 1.025 5.658c.865-2.703 1.954-5.336 3.205-7.905-.111-.066-.221-.132-.332-.196-1.318.807-2.62 1.62-3.898 2.443zm23.487 3.638c.778.636 1.551 1.277 2.318 1.926-.43-.927-.795-1.89-1.097-2.889-.411.315-.819.638-1.221.963zm-47.536-10.434c4.018 3.506 7.512 7.592 10.409 12.071 2.854-2.657 6.092-5.067 9.533-7.365-.042-2.484.184-4.97.685-7.39l.071-.341c-5.711-3.021-12.867-5.315-17.547-1.488-1.407 1.152-2.401 2.764-3.151 4.513zm39.6 4.325c1.6 1.16 3.18 2.348 4.74 3.562a63.406 63.406 0 0 1 3.534-2.743c-.249-2.174-.246-4.479.01-6.903a129.09 129.09 0 0 0-3.531 2.47 119.335 119.335 0 0 0-4.753 3.614zm-15.494-3.412c-.042.391-.076.783-.103 1.176.331-.207.665-.414.998-.62a67.18 67.18 0 0 0-.895-.556zm10.656.025c.484.326.966.655 1.446.987a122.038 122.038 0 0 1 5.8-4.456 128.405 128.405 0 0 1 6.814-4.617 55.52 55.52 0 0 1 1.908-6.257c-1.375-.555-2.853-.904-4.175-.562-1.961.507-3.518 2.501-4.943 4.5-2.395 3.358-4.75 6.825-6.85 10.405zm19.557-12.502c-.171.479-.338.965-.499 1.457a90.117 90.117 0 0 1 1.537-.831 46.08 46.08 0 0 0-1.038-.626zM1282.701 835.681c1.083 0 1.986.963 1.986 2.106 0 .964-.602 1.807-1.685 1.987l-8.006 1.926 5.417 5.96c.421.602.662 1.144.662 1.685 0 1.024-1.083 1.926-2.107 1.926-.722 0-1.385-.361-1.866-1.144l-4.334-6.923-4.094 6.983c-.481.783-1.204 1.204-1.926 1.204-1.023 0-2.046-.963-2.046-1.987 0-.542.24-1.083.661-1.565l5.298-6.261-7.885-1.746c-1.144-.24-1.807-1.023-1.807-1.926 0-1.204.843-2.167 2.047-2.167.301 0 .602.06.964.18l7.525 3.07-.843-8.066c-.18-1.505.723-2.468 2.047-2.468 1.324 0 2.167.963 2.047 2.408l-.662 8.307 7.464-3.251c.36-.178.781-.238 1.143-.238zM1318.825 835.681c1.084 0 1.987.963 1.987 2.106 0 .964-.602 1.807-1.685 1.987l-8.007 1.926 5.418 5.96c.421.602.662 1.144.662 1.685 0 1.024-1.083 1.926-2.107 1.926-.723 0-1.385-.361-1.866-1.144l-4.334-6.923-4.094 6.983c-.481.783-1.204 1.204-1.926 1.204-1.023 0-2.046-.963-2.046-1.987 0-.542.24-1.083.662-1.565l5.297-6.261-7.885-1.746c-1.144-.24-1.807-1.023-1.807-1.926 0-1.204.843-2.167 2.047-2.167.301 0 .602.06.964.18l7.525 3.07-.843-8.066c-.18-1.505.722-2.468 2.047-2.468s2.167.963 2.047 2.408l-.662 8.307 7.464-3.251c.36-.178.781-.238 1.142-.238zM1354.95 835.681c1.084 0 1.987.963 1.987 2.106 0 .964-.602 1.807-1.685 1.987l-8.007 1.926 5.418 5.96c.421.602.662 1.144.662 1.685 0 1.024-1.083 1.926-2.107 1.926-.722 0-1.385-.361-1.866-1.144l-4.334-6.923-4.094 6.983c-.481.783-1.204 1.204-1.926 1.204-1.023 0-2.046-.963-2.046-1.987 0-.542.24-1.083.662-1.565l5.297-6.261-7.885-1.746c-1.144-.24-1.807-1.023-1.807-1.926 0-1.204.843-2.167 2.047-2.167.301 0 .602.06.964.18l7.525 3.07-.843-8.066c-.18-1.505.723-2.468 2.047-2.468 1.324 0 2.167.963 2.047 2.408l-.662 8.307 7.464-3.251c.36-.178.781-.238 1.142-.238z"/><ellipse transform="rotate(-18.547 1342.914 80.687)" fill="#FF8630" cx="1342.911" cy="80.696" rx="24.565" ry="83.007"/><path d="M1369.316 161.391c-.445 0-.884-.148-1.243-.433-23.4-18.559-40.81-43.391-50.347-71.813-9.536-28.421-10.628-58.729-3.156-87.645a2 2 0 0 1 3.18-1.067c23.399 18.557 40.81 43.389 50.347 71.812 9.536 28.422 10.628 58.729 3.156 87.646a1.998 1.998 0 0 1-1.937 1.5zM1317.692 5.535c-6.44 27.246-5.13 55.645 3.827 82.339s25.04 50.136 46.611 67.983c6.44-27.246 5.13-55.645-3.827-82.34-8.956-26.694-25.04-50.135-46.611-67.982z"/><path d="M1383.329 203.156a2 2 0 0 1-1.896-1.365L1314.61 2.636a2 2 0 1 1 3.793-1.271l66.822 199.154a2 2 0 0 1-1.896 2.637z"/><path d="M1346.166 89.935c-.101 0-.202-.008-.304-.023l-27.181-4.172a1.999 1.999 0 1 1 .607-3.953l26.087 4.004 16.658-19.272a1.995 1.995 0 0 1 2.82-.205c.836.722.928 1.984.205 2.82l-17.381 20.109a1.993 1.993 0 0 1-1.511.692zM1334.381 57.272c-.158 0-.318-.019-.477-.058l-21.603-5.303a2 2 0 0 1 .953-3.885l20.32 4.988 13.208-17.578a2 2 0 1 1 3.197 2.403l-14.001 18.634c-.381.51-.977.799-1.597.799zM1357.157 125.153c-.187 0-.376-.026-.562-.08l-24.116-7.053a2 2 0 0 1 1.123-3.839l22.755 6.655 14.833-20.704a2 2 0 1 1 3.252 2.33l-15.659 21.856a2 2 0 0 1-1.626.835z"/><ellipse transform="rotate(-53.63 1305.197 109.332)" fill="#FF8630" cx="1305.213" cy="109.323" rx="24.565" ry="83.007"/><path d="m1372.049 160.547-.116-.003c-29.813-1.737-58.333-12.053-82.473-29.831-24.141-17.778-42.452-41.953-52.956-69.911a2 2 0 0 1 .262-1.89 1.98 1.98 0 0 1 1.727-.811c29.816 1.738 58.335 12.055 82.473 29.832 24.14 17.777 42.451 41.952 52.956 69.91a2.001 2.001 0 0 1-1.873 2.704zm-80.218-33.055c22.674 16.697 49.308 26.637 77.216 28.844-10.388-25.998-27.781-48.484-50.453-65.182s-49.307-26.637-77.216-28.845c10.388 25.998 27.781 48.485 50.453 65.183z"/><path d="M1372.047 160.547c-.411 0-.827-.127-1.184-.39L1237.19 61.709a2 2 0 1 1 2.371-3.221l133.673 98.448a2 2 0 0 1-1.187 3.611z"/><path d="M1287.398 127.584a2 2 0 0 1-.89-3.792l23.648-11.716 2.555-25.346a2 2 0 0 1 3.98.4l-2.666 26.446a1.998 1.998 0 0 1-1.103 1.592l-24.64 12.207a1.955 1.955 0 0 1-.884.209zM1262.895 103.498a2 2 0 0 1-.727-3.864l19.496-7.598.705-21.976a2 2 0 0 1 3.998.128l-.747 23.295a1.999 1.999 0 0 1-1.272 1.799l-20.727 8.077c-.24.094-.485.139-.726.139zM1317.483 145.97a2 2 0 0 1-.644-3.894l22.446-7.632.239-25.469c.011-1.104.932-1.973 2.019-1.981a2 2 0 0 1 1.981 2.019l-.253 26.887a2 2 0 0 1-1.356 1.875l-23.789 8.089c-.212.071-.43.106-.643.106z"/></svg>