<svg xmlns="http://www.w3.org/2000/svg" viewBox="0 0 1080 1080" xml:space="preserve"><path fill="#FFF" d="M778.354 964.301H255.327l-.969-190.881-141.874-.813V334.375h4V768.63l141.855.813.969 190.858h515.046V752.927h4z"/><path fill="#FF8630" d="M696.141 257.104c-41.688-32.453-60.094-83.717-52.584-132.47H113.601v645.379l142.748 1.419 519.099 190.869V286.583c-27.873-1.376-55.614-11.034-79.307-29.479z"/><path fill="#FFF" d="M777.447 965.167 255.983 773.428 111.6 771.993V122.634h534.288l-.355 2.305c-7.655 49.699 12.207 99.737 51.836 130.588 22.611 17.602 49.645 27.65 78.177 29.06l1.901.094v680.486zM115.601 768.032l141.113 1.403.325.119 516.408 189.88v-670.96c-28.657-1.794-55.773-12.073-78.535-29.792-40.16-31.265-60.59-81.68-53.668-132.049H115.601v641.399z"/><path fill="#FF8630" d="M921.424 124.634c5.719 36.942-3.21 76.069-27.986 107.895-29.251 37.575-73.787 56.237-117.99 54.055v675.718H966.71V124.634h-45.286z"/><path fill="#FFF" d="M968.709 964.301H773.447V284.482l2.099.104c45.11 2.223 88.605-17.692 116.313-53.286 23.696-30.438 33.493-68.212 27.588-106.36l-.356-2.306h49.618v841.667zm-191.262-4h187.262V126.634h-40.971c5.338 38.463-4.82 76.419-28.723 107.123-28.077 36.067-71.877 56.475-117.568 54.912v671.632zM113.601 227.321h556.731v4H113.601z"/><path fill="#FFF" d="M896.822 227.321h69.887v4h-69.887zM113.601 332.008h853.108v4H113.601zM113.601 436.695h853.108v4H113.601zM113.601 541.382h853.108v4H113.601zM113.601 646.069h853.108v4H113.601zM113.601 750.927h853.108v4H113.601zM397.462 855.613h569.247v4H397.462z"/><path fill="#FF8630" d="M681.631 543.382h94.724v104.687h-94.724z"/><path fill="#FFF" d="M778.354 650.069H679.63V541.382h98.724v108.687zm-94.723-4h90.724V545.382h-90.724v100.687z"/><path fill="#FF8630" d="M586.908 543.382h-94.724V648.07h189.447V543.382z"/><path fill="#FFF" d="M683.631 650.069H490.184V541.382h193.447v108.687zm-189.447-4h185.447V545.382H494.184v100.687z"/><path fill="#FF8630" d="M681.631 438.695h-94.723v104.687h189.447V438.695z"/><path fill="#FFF" d="M778.354 545.382H584.907V436.695h193.447v108.687zm-189.447-4h185.447V440.695H588.907v100.687z"/><path fill="#FF8630" d="M492.185 438.695h-94.723v104.687h189.447V438.695z"/><path fill="#FFF" d="M588.909 545.382H395.462V436.695h193.447v108.687zm-189.447-4h185.447V440.695H399.462v100.687z"/><path fill="#FF8630" d="M492.185 229.321h-94.723v104.687h189.447V229.321z"/><path fill="#FFF" d="M588.909 336.008H395.462V227.321h193.447v108.687zm-189.447-4h185.447V231.321H399.462v100.687z"/><path fill="#FF8630" d="M681.631 648.07h-94.723v104.687h189.447V648.07z"/><path fill="#FFF" d="M778.354 754.757H584.907V646.069h193.447v108.688zm-189.447-4h185.447V650.069H588.907v100.688z"/><path fill="#FF8630" d="M492.185 648.07h-94.723v104.687h189.447V648.07z"/><path fill="#FFF" d="M588.909 754.757H395.462V646.069h193.447v108.688zm-189.447-4h185.447V650.069H399.462v100.688z"/><path fill="#FF8630" d="M303.048 648.07h-94.724v104.687h189.447V648.07z"/><path fill="#FFF" d="M399.771 754.757H206.324V646.069h193.447v108.688zm-189.447-4h185.447V650.069H210.324v100.688z"/><path fill="#FF8630" d="M397.462 543.382h-94.724V648.07h189.447V543.382z"/><path fill="#FFF" d="M494.186 650.069H300.738V541.382h193.447v108.687zm-189.448-4h185.447V545.382H304.738v100.687z"/><path fill="#FF8630" d="M208.324 543.382h-94.723V648.07h189.447V543.382z"/><path fill="#FFF" d="M305.048 650.069H111.601V541.382h193.447v108.687zm-189.447-4h185.447V545.382H115.601v100.687z"/><path fill="#FF8630" d="M681.631 752.927h94.724v104.687h-94.724z"/><path fill="#FFF" d="M778.354 859.613H679.63V750.927h98.724v108.686zm-94.723-4h90.724V754.927h-90.724v100.686z"/><path fill="#FF8630" d="M586.908 752.927h-94.724v104.687h189.447V752.927z"/><path fill="#FFF" d="M683.631 859.613H490.184V750.927h193.447v108.686zm-189.447-4h185.447V754.927H494.184v100.686z"/><path fill="#FF8630" d="M681.631 857.614h-94.723v104.687h189.447V857.614z"/><path fill="#FFF" d="M778.354 964.301H584.907V855.613h193.447v108.688zm-189.447-4h185.447V859.613H588.907v100.688z"/><path fill="#FF8630" d="M492.185 857.614h-94.723v104.687h189.447V857.614z"/><path fill="#FFF" d="M588.909 964.301H395.462V855.613h193.447v108.688zm-189.447-4h185.447V859.613H399.462v100.688z"/><path fill="#FF8630" d="M397.462 752.927h-94.724v104.687h189.447V752.927z"/><path fill="#FFF" d="M494.186 859.613H300.738V750.927h193.447v108.686zm-189.448-4h185.447V754.927H304.738v100.686z"/><path fill="#FF8630" d="M208.324 124.634h-94.723v104.687h189.447V124.634z"/><path fill="#FFF" d="M305.048 231.321H111.601V122.634h193.447v108.687zm-189.447-4h185.447V126.634H115.601v100.687z"/><path fill="#FF8630" d="M586.908 334.008h-94.724v104.687h189.447V334.008z"/><path fill="#FFF" d="M683.631 440.695H490.184V332.008h193.447v108.687zm-189.447-4h185.447V336.008H494.184v100.687z"/><path fill="#FF8630" d="M397.462 334.008h-94.724v104.687h189.447V334.008z"/><path fill="#FFF" d="M494.186 440.695H300.738V332.008h193.447v108.687zm-189.448-4h185.447V336.008H304.738v100.687z"/><path fill="#FF8630" d="M397.462 124.634h-94.724v104.687h189.447V124.634z"/><path fill="#FFF" d="M494.186 231.321H300.738V122.634h193.447v108.687zm-189.448-4h185.447V126.634H304.738v100.687z"/><path fill="#FF8630" d="M303.047 229.321h-94.724v104.687h189.448V229.321z"/><path fill="#FFF" d="M399.771 336.008H206.323V227.321H399.77v108.687zm-189.448-4H395.77V231.321H210.323v100.687z"/><path fill="#FF8630" d="M208.322 334.375h-94.723v104.687h189.447V334.375z"/><path fill="#FFF" d="M305.046 441.062H111.599V332.375h193.447v108.687zm-189.447-4h185.447V336.375H115.599v100.687z"/><path fill="#FF8630" d="M302.738 438.695h-94.724v104.687h189.448V438.695z"/><path fill="#FFF" d="M399.462 545.382H206.015V436.695h193.447v108.687zm-189.447-4h185.447V440.695H210.015v100.687z"/><path d="M782.346 288.699c-30.623 0-61.453-9.792-87.434-30.017-62.04-48.298-73.222-138.063-24.925-200.104C718.284-3.463 808.05-14.643 870.091 33.652c30.054 23.396 49.198 57.095 53.905 94.89 4.708 37.794-5.584 75.16-28.98 105.214-28.072 36.062-70.166 54.943-112.67 54.943zm.436-281.14c-5.777 0-11.586.358-17.411 1.084-36.734 4.576-69.488 23.183-92.228 52.394-46.941 60.3-36.074 147.547 24.226 194.49 29.212 22.74 65.524 32.742 102.263 28.167 36.734-4.576 69.488-23.183 92.228-52.394 22.74-29.211 32.743-65.528 28.168-102.263-4.576-36.734-23.183-69.488-52.394-92.228-24.579-19.133-54.195-29.25-84.852-29.25z"/><path d="M802.075 57.014v4c13.46 0 26.203 4.382 36.852 12.671 26.135 20.345 30.845 58.159 10.5 84.294-11.464 14.726-28.755 23.171-47.442 23.171-13.46 0-26.204-4.382-36.853-12.671-26.135-20.345-30.845-58.159-10.5-84.294 11.464-14.726 28.755-23.171 47.442-23.171l.001-4m-.001 0c-19.083 0-37.968 8.49-50.598 24.714-21.735 27.92-16.72 68.173 11.199 89.907 11.695 9.104 25.554 13.515 39.31 13.515 19.083 0 37.968-8.49 50.598-24.714 21.735-27.92 16.721-68.173-11.199-89.907-11.695-9.104-25.554-13.515-39.31-13.515z"/><path d="m754.703 77.584-3.226 4.145a64.754 64.754 0 0 1 3.409-4.002l-.183-.143zM762.676 171.636c-27.92-21.735-32.934-61.988-11.199-89.907l-13.954 17.925c-21.735 27.92-16.721 68.173 11.199 89.907s68.173 16.721 89.907-11.199l13.954-17.925c-21.735 27.919-61.988 32.933-89.907 11.199z"/><path fill="#FFF" d="M733.645 605.21c-23.819-14.079-54.541-6.184-68.62 17.635-14.079 23.819-6.184 54.541 17.635 68.62 23.819 14.079 54.541 6.184 68.62-17.635 14.079-23.818 6.184-54.541-17.635-68.62zm-46.702 21.273c3.824-6.469 10.023-9.882 13.846-7.622 3.823 2.26 3.822 9.336-.002 15.805-3.824 6.469-10.023 9.882-13.846 7.622-3.823-2.259-3.822-9.335.002-15.805zm1.697 54.866c-10.072-5.953-13.41-18.944-7.457-29.015l36.472 21.559c-5.953 10.071-18.944 13.409-29.015 7.456zm35.039-17.345c-3.823-2.26-3.822-9.336.002-15.805 3.824-6.469 10.023-9.882 13.846-7.622 3.823 2.26 3.822 9.336-.002 15.805-3.824 6.469-10.023 9.882-13.846 7.622z"/><path d="M383.621 210.866a1.288 1.288 0 0 1-1.52 1.01c-.226-.046-.479-.191-.731-.336l-12.648-9.084c-.614-.453-.812-.869-.693-1.456.118-.587.561-.921 1.203-1.074l15.18-3.475c.289-.036.578-.072.804-.026a1.288 1.288 0 0 1 1.01 1.52c-.1.497-.598.867-1.24 1.019l-13.028 2.827 10.915 7.653c.533.391.848.925.748 1.422z"/><path d="M382.355 212.902c-.148 0-.299-.015-.45-.045-.387-.078-.728-.274-1.029-.447l-.089-.057-12.648-9.084c-.351-.259-1.384-1.021-1.091-2.468.109-.542.509-1.505 1.952-1.848l15.29-3.495c.354-.042.74-.089 1.124-.013.59.118 1.121.475 1.456.979a2.27 2.27 0 0 1 .336 1.719c-.175.869-.918 1.541-1.988 1.795l-10.815 2.348 9.045 6.342c.904.661 1.33 1.568 1.154 2.437a2.297 2.297 0 0 1-2.247 1.837zm-.443-2.204c.14.079.318.18.392.198a.284.284 0 0 0 .336-.222c-.008-.043-.083-.222-.357-.423l-12.769-8.953 15.261-3.312c.323-.077.459-.22.475-.25.013-.068-.001-.142-.044-.206s-.11-.11-.186-.125c-.079-.01-.318.017-.477.036l-15.089 3.458c-.405.097-.433.231-.445.297-.027.133-.04.198.307.454l12.596 9.048zM393.929 217.316l4.617-22.904c.182-.904.834-1.336 1.737-1.154l6.144 1.238c6.37 1.284 8.913 4.758 8.139 8.598-.574 2.846-2.519 4.334-5.059 4.81 2.781 1.595 4.323 3.974 3.695 7.091-.993 4.924-5.649 6.571-11.613 5.369l-6.505-1.311c-.904-.183-1.337-.834-1.155-1.737zm5.37-12.41 4.834.974c4.111.829 6.941-.152 7.533-3.088.592-2.937-1.637-4.937-5.748-5.766l-4.834-.974-1.785 8.854zm-2.395 11.881 5.195 1.047c4.518.911 7.556.066 8.248-3.368.628-3.117-1.619-5.028-6.408-5.993l-5.15-1.038-1.885 9.352z"/><path d="M405.106 221.737c-1.165 0-2.41-.131-3.715-.394l-6.505-1.311c-.71-.144-1.27-.498-1.62-1.025s-.46-1.182-.317-1.89l4.616-22.904c.294-1.45 1.463-2.228 2.915-1.938l6.144 1.239c7.718 1.555 9.669 6.069 8.923 9.775-.467 2.312-1.797 4.019-3.818 4.956 2.131 1.844 2.996 4.253 2.453 6.945-.542 2.687-2.106 4.659-4.526 5.702-1.302.563-2.84.845-4.55.845zm-5.222-27.524c-.211 0-.301.112-.357.396l-4.616 22.904c-.073.36.011.485.372.559l6.504 1.311c2.818.568 5.264.456 7.077-.325 1.816-.783 2.945-2.217 3.357-4.261.502-2.489-.578-4.517-3.211-6.026l-2.357-1.352 2.671-.499c2.38-.444 3.813-1.798 4.263-4.023.72-3.573-2.03-6.347-7.356-7.42l-6.144-1.239a1.052 1.052 0 0 0-.203-.025zm5.235 24.957c-.934 0-2-.11-3.218-.355l-6.176-1.244 2.281-11.312 6.129 1.235c2.634.53 4.502 1.326 5.713 2.432 1.345 1.228 1.855 2.866 1.479 4.738-.439 2.178-1.915 4.506-6.208 4.506zm-7.038-3.166 4.215.85c5.648 1.138 6.737-.932 7.07-2.585.241-1.196-.034-2.107-.866-2.867-.922-.842-2.523-1.497-4.759-1.947l-4.17-.841-1.49 7.39zm8.643-8.84c-.854 0-1.784-.102-2.788-.304l-5.814-1.173 2.179-10.814 5.814 1.172c2.274.459 4.003 1.252 5.139 2.356 1.268 1.234 1.749 2.82 1.393 4.588-.356 1.767-1.415 3.042-3.062 3.689-.824.324-1.781.486-2.861.486zm-6.247-3.041 3.854.776c1.865.376 3.428.349 4.522-.083 1.012-.396 1.61-1.124 1.832-2.223.222-1.1-.049-2.002-.827-2.759-.843-.821-2.273-1.453-4.138-1.829l-3.854-.777-1.389 6.895zM427.385 198.72l6.325 1.275c5.466 1.102 9.782 4.181 8.534 10.37-1.229 6.099-6.428 7.401-11.894 6.299l-5.015-1.011-1.657 8.222c-.2.994-.897 1.418-1.71 1.254-.813-.164-1.246-.815-1.046-1.809l4.726-23.446c.182-.903.834-1.336 1.737-1.154zm-1.54 14.404 5.105 1.029c4.066.82 7.619-.251 8.448-4.361.847-4.201-2.042-6.429-6.108-7.249l-5.105-1.029-2.34 11.61z"/><path d="M422.298 226.164c-.174 0-.351-.019-.528-.054-1.396-.282-2.131-1.482-1.828-2.987l4.727-23.445c.143-.709.497-1.27 1.024-1.62s1.181-.462 1.89-.317l6.325 1.274c7.111 1.434 10.507 5.643 9.317 11.548-1.178 5.848-6.069 8.495-13.072 7.083l-4.035-.813-1.459 7.241c-.147.733-.505 1.316-1.034 1.685a2.31 2.31 0 0 1-1.327.405zm4.695-26.484a.363.363 0 0 0-.193.043c-.074.05-.137.177-.171.35l-4.727 23.445c-.112.557.096.599.263.632.098.021.228.028.315-.032.095-.066.174-.227.217-.438l1.855-9.202 5.994 1.208c3.451.699 9.424.902 10.717-5.517 1.222-6.061-3.541-8.344-7.751-9.192l-6.326-1.274a.87.87 0 0 0-.193-.023zm6.356 15.727c-.82 0-1.689-.091-2.596-.273l-6.086-1.228 2.736-13.569 6.084 1.226c5.245 1.059 7.757 4.13 6.891 8.427-.453 2.249-1.69 3.889-3.578 4.743-.991.448-2.159.674-3.451.674zm-6.327-3.065 4.125.831c1.925.39 3.593.297 4.828-.263 1.295-.586 2.116-1.701 2.441-3.315.643-3.187-1.149-5.229-5.325-6.071l-4.124-.831-1.945 9.649zM447.862 228.187l4.617-22.904c.182-.904.834-1.336 1.737-1.154l14.863 2.996c.994.2 1.373.888 1.227 1.611-.146.723-.761 1.21-1.755 1.01-2.078-.419-10.408-2.239-13.516-2.913l-1.812 8.99c3.126.583 8.565 1.586 10.056 1.886.994.2 1.373.888 1.227 1.61-.146.723-.761 1.21-1.755 1.01-1.491-.3-6.668-1.438-10.002-2.157l-1.931 9.577c3.397.638 11.511 2.132 13.589 2.551.994.2 1.373.888 1.227 1.611-.146.723-.761 1.21-1.755 1.01l-14.863-2.996c-.903-.183-1.336-.834-1.154-1.738z"/><path d="M464.31 233.966c-.192 0-.401-.02-.628-.065l-14.862-2.996c-.709-.143-1.27-.497-1.62-1.024-.351-.528-.46-1.182-.317-1.892l4.617-22.902c.143-.709.497-1.27 1.024-1.62.527-.352 1.182-.461 1.891-.317l14.862 2.996c1.455.293 2.281 1.439 2.01 2.788-.129.639-.485 1.171-1.006 1.499-.373.236-1.008.48-1.927.294-1.657-.334-7.307-1.562-11.044-2.376l-1.496-.325-1.41 7 1.606.299c2.942.547 6.336 1.177 7.466 1.404 1.455.295 2.282 1.441 2.011 2.788-.273 1.35-1.479 2.085-2.934 1.793a693.284 693.284 0 0 1-6.402-1.376l-2.622-.569-1.529 7.589 3.075.572c3.597.669 8.072 1.501 9.53 1.795.943.19 1.441.682 1.692 1.061.33.496.442 1.11.317 1.729-.129.638-.485 1.17-1.006 1.498a2.423 2.423 0 0 1-1.298.357zm-10.486-28.878a.363.363 0 0 0-.193.043c-.074.05-.137.177-.171.35l-4.617 22.904c-.035.173-.027.313.022.388.049.074.176.137.349.171l14.862 2.996c.201.039.375.031.465-.023.055-.035.093-.104.112-.203.014-.068.021-.162-.022-.228-.058-.087-.215-.164-.421-.205-1.443-.291-5.911-1.122-9.502-1.789l-5.07-.946 2.331-11.565 4.606.999c2.669.58 5.364 1.167 6.372 1.369.517.104.554-.104.578-.228.023-.114.066-.328-.445-.432-1.124-.227-4.505-.854-7.436-1.398l-3.603-.671 2.212-10.979 3.48.756c3.731.812 9.372 2.038 11.014 2.369.201.039.375.031.465-.023.055-.035.093-.104.112-.203.025-.123.066-.33-.443-.433l-14.863-2.996a.886.886 0 0 0-.194-.023zM479.774 208.623c.813.164 1.129.932 1.371 1.828l4.262 14.539 9.562-11.753c.57-.731 1.159-1.318 1.972-1.154s1.255.77 1.036 1.854l-4.826 23.943c-.2.994-.852 1.427-1.665 1.263-.813-.164-1.291-.824-1.091-1.818l3.879-19.244-7.896 9.785c-.616.722-1.095 1.001-1.727.874-.633-.128-.966-.571-1.254-1.475l-3.488-12.08-3.879 19.244c-.2.994-.852 1.427-1.665 1.263-.813-.164-1.291-.824-1.091-1.818l4.826-23.943c.219-1.085.861-1.472 1.674-1.308z"/><path d="M491.809 240.176a2.66 2.66 0 0 1-.52-.053c-1.401-.283-2.172-1.515-1.874-2.996l3.071-15.239-5.329 6.605c-.609.715-1.453 1.474-2.702 1.227-1.255-.254-1.733-1.283-2.011-2.151l-2.362-8.182-3.072 15.239c-.146.729-.49 1.308-.992 1.675-.515.376-1.172.506-1.851.371-.674-.137-1.232-.507-1.572-1.043-.345-.545-.449-1.221-.301-1.954l4.826-23.941c.156-.775.493-1.358 1.003-1.731.514-.376 1.155-.499 1.849-.359 1.531.308 1.941 1.819 2.139 2.546l3.722 12.694 8.361-10.277c.45-.577 1.419-1.804 2.945-1.503 1.419.287 2.133 1.477 1.819 3.033l-4.826 23.941c-.146.729-.49 1.308-.992 1.676a2.244 2.244 0 0 1-1.331.422zm4.253-25.903-4.687 23.249c-.112.556.141.607.308.641.087.018.205.027.274-.023.089-.065.169-.235.213-.456l4.826-23.942c.121-.602-.053-.637-.254-.677-.164-.031-.4.039-.986.788l-10.774 13.244-4.797-16.364c-.255-.938-.442-1.095-.608-1.128-.062-.013-.206-.036-.272.013-.068.05-.163.211-.224.512l-4.826 23.942c-.043.213-.032.391.029.488.058.091.184.134.278.152.125.025.218.018.273-.023.089-.065.169-.235.213-.456l4.688-23.25 4.622 16.006c.229.719.381.749.491.771.105.024.258.056.769-.543l10.444-12.944zM502.066 239.113l4.617-22.904c.182-.904.834-1.336 1.737-1.154l14.863 2.996c.994.2 1.372.888 1.227 1.611-.146.723-.761 1.21-1.755 1.01-2.078-.419-10.408-2.239-13.516-2.913l-1.812 8.99c3.126.583 8.566 1.586 10.056 1.886.994.2 1.373.888 1.227 1.61s-.761 1.21-1.755 1.01c-1.491-.3-6.668-1.438-10.002-2.157l-1.931 9.577c3.397.638 11.511 2.132 13.589 2.551.994.2 1.372.888 1.227 1.611-.146.723-.761 1.21-1.755 1.01l-14.863-2.996c-.903-.183-1.336-.834-1.154-1.738z"/><path d="M518.516 244.892c-.193 0-.403-.02-.631-.065l-14.861-2.995c-.71-.144-1.27-.498-1.62-1.025s-.46-1.182-.317-1.891l4.616-22.903c.294-1.451 1.464-2.225 2.915-1.938l14.863 2.996c1.455.293 2.281 1.439 2.01 2.788-.273 1.35-1.479 2.091-2.933 1.793-1.614-.325-6.893-1.473-10.746-2.311l-1.794-.39-1.411 6.999 1.485.276c2.97.552 6.442 1.197 7.588 1.428.943.19 1.441.682 1.692 1.061.33.496.442 1.11.317 1.729-.129.638-.485 1.17-1.006 1.498-.373.236-1.008.48-1.927.294-.991-.2-3.607-.769-6.232-1.34l-2.792-.605-1.529 7.588 3.121.581c3.766.7 8.033 1.494 9.484 1.786 1.455.293 2.281 1.439 2.01 2.789-.129.639-.486 1.171-1.006 1.499-.281.177-.71.358-1.296.358zm-10.495-28.881c-.211 0-.301.112-.357.396l-4.616 22.904c-.035.172-.027.313.022.387.049.074.177.138.35.172l14.861 2.995c.204.041.376.033.465-.023.055-.034.093-.103.112-.202.025-.124.066-.331-.443-.434-1.438-.29-5.883-1.116-9.455-1.78l-5.117-.955 2.331-11.564 4.777 1.035c2.611.568 5.216 1.134 6.202 1.333.198.042.375.031.464-.023.055-.035.093-.104.112-.203.014-.068.021-.162-.022-.228-.058-.087-.215-.164-.421-.205-1.142-.23-4.601-.873-7.559-1.422l-3.481-.648 2.213-10.979 3.778.82c3.848.836 9.116 1.981 10.716 2.304.51.102.554-.104.577-.228.023-.114.066-.329-.443-.432l-14.863-2.996a1.125 1.125 0 0 0-.203-.024zM528.562 245.018l4.835-23.988c.2-.994.852-1.426 1.665-1.263.813.164 1.291.824 1.091 1.818l-2.076 10.3 12.197 2.459 2.076-10.3c.2-.994.852-1.426 1.665-1.263.813.164 1.291.824 1.091 1.818l-4.835 23.988c-.2.994-.897 1.418-1.71 1.254-.813-.164-1.246-.815-1.046-1.809l2.249-11.158-12.197-2.459-2.249 11.158c-.2.994-.897 1.418-1.71 1.254-.813-.164-1.246-.815-1.046-1.809z"/><path d="M544.895 250.876c-.172 0-.35-.018-.53-.054-1.398-.282-2.133-1.482-1.83-2.987l2.053-10.179-10.237-2.063-2.052 10.178c-.147.733-.505 1.316-1.033 1.685-.521.363-1.182.49-1.854.353-.68-.138-1.234-.514-1.562-1.059-.321-.534-.413-1.202-.266-1.93l4.835-23.986c.146-.729.49-1.308.992-1.676.513-.375 1.172-.506 1.851-.37 1.402.283 2.172 1.515 1.874 2.995l-1.879 9.32 10.237 2.063 1.878-9.319c.146-.729.49-1.308.992-1.676.513-.375 1.171-.507 1.851-.37 1.401.283 2.172 1.516 1.874 2.996l-4.836 23.988c-.262 1.289-1.195 2.091-2.358 2.091zm-12.11-17.639 14.157 2.854-2.447 12.138c-.112.557.096.599.264.632.166.034.421.082.531-.471l4.836-23.988c.112-.556-.141-.607-.309-.641-.085-.018-.204-.027-.273.023-.089.065-.169.235-.213.456l-2.274 11.28-14.157-2.853 2.273-11.281c.112-.555-.141-.606-.309-.64-.085-.018-.205-.028-.273.023-.089.065-.169.235-.213.456l-4.835 23.988c-.045.221-.038.408.02.503.035.06.117.103.243.128.094.021.227.03.314-.032.095-.066.174-.227.217-.438l2.448-12.137zM555.664 250.481l4.835-23.988c.2-.994.852-1.426 1.665-1.263s1.291.824 1.091 1.818l-2.076 10.3 12.197 2.459 2.076-10.3c.2-.994.852-1.426 1.665-1.263.813.164 1.291.824 1.091 1.818l-4.835 23.988c-.2.994-.897 1.418-1.71 1.254-.813-.164-1.246-.815-1.046-1.809l2.249-11.158-12.197-2.459-2.249 11.158c-.2.994-.897 1.418-1.71 1.254-.814-.163-1.246-.815-1.046-1.809z"/><path d="M571.993 256.339c-.174 0-.351-.019-.528-.054-1.396-.282-2.131-1.482-1.828-2.987l2.052-10.178-10.237-2.063-2.051 10.177c-.147.733-.505 1.316-1.034 1.685-.521.364-1.181.485-1.854.353-1.396-.282-2.131-1.482-1.828-2.986l4.835-23.988c.305-1.507 1.444-2.333 2.843-2.046 1.401.283 2.172 1.515 1.874 2.996l-1.879 9.32 10.237 2.063 1.878-9.32c.304-1.505 1.44-2.322 2.843-2.046 1.402.283 2.173 1.515 1.874 2.996l-4.835 23.988c-.147.733-.505 1.316-1.034 1.685a2.319 2.319 0 0 1-1.328.405zm-12.106-17.638 14.157 2.853-2.446 12.139c-.112.557.096.599.263.632.097.021.228.028.315-.032.095-.066.174-.227.217-.438l4.835-23.988c.112-.556-.141-.607-.308-.641-.171-.035-.376-.072-.487.48l-2.274 11.28-14.157-2.854 2.273-11.279c.112-.556-.141-.607-.308-.641-.166-.034-.375-.075-.487.48l-4.835 23.987c-.112.556.096.598.263.631.098.021.228.029.315-.032.095-.066.174-.227.217-.438l2.447-12.139zM582.902 255.972l3.151-15.63c1.22-6.054 4.795-9.329 10.713-8.136 5.918 1.193 7.945 5.597 6.725 11.651l-3.151 15.63c-.2.994-.897 1.418-1.71 1.254s-1.246-.815-1.046-1.809l1.603-7.951-11.926-2.404-1.603 7.951c-.2.994-.852 1.427-1.665 1.263-.814-.165-1.292-.825-1.091-1.819zm13.353-21.237c-4.111-.829-6.473 1.328-7.456 6.207l-1.038 5.15 11.926 2.404 1.038-5.15c.984-4.879-.358-7.782-4.47-8.611z"/><path d="M598.965 261.776c-.174 0-.352-.019-.533-.055-1.396-.282-2.131-1.482-1.828-2.987l1.405-6.971-9.967-2.009-1.404 6.971c-.146.729-.49 1.308-.992 1.676-.514.375-1.171.507-1.851.37-1.401-.283-2.172-1.516-1.874-2.996l3.151-15.631c.672-3.333 2.001-5.812 3.951-7.369 2.09-1.668 4.762-2.189 7.939-1.55 6.164 1.243 8.9 5.919 7.508 12.829l-3.15 15.63c-.26 1.29-1.194 2.092-2.355 2.092zm-12.487-14.377 13.887 2.8-1.8 8.93c-.112.557.096.599.263.632.163.033.419.086.532-.472l3.15-15.629c.819-4.066.453-9.185-5.941-10.474-2.574-.519-4.691-.131-6.297 1.151-1.573 1.256-2.662 3.343-3.238 6.201l-3.151 15.631c-.112.556.141.607.309.641.085.018.205.027.273-.023.089-.065.169-.235.213-.456l1.8-8.932zm13.992 2.275-13.887-2.8 1.235-6.13c.549-2.721 1.493-4.62 2.888-5.808 1.475-1.255 3.411-1.651 5.747-1.182 2.339.472 3.968 1.587 4.841 3.316.825 1.635.96 3.752.412 6.472l-1.236 6.132zm-11.532-4.364 9.967 2.009.84-4.17c.45-2.232.37-3.974-.237-5.177-.59-1.169-1.719-1.907-3.449-2.256-1.731-.349-3.059-.104-4.056.743-1.025.874-1.774 2.448-2.224 4.68l-.841 4.171zM624.918 266.04c-.813-.164-1.291-.824-1.091-1.818l1.94-9.622-5.06-1.02-8.744 8.627c-.697.659-1.14.992-1.863.847-.723-.146-1.165-.752-1.019-1.475.109-.542.372-.912.897-1.418l7.847-7.444c-3.604-1.479-6.13-4.338-5.247-8.72 1.102-5.466 6.192-6.697 11.206-5.686l6.37 1.284c.903.182 1.336.833 1.154 1.737l-4.726 23.446c-.199.993-.851 1.425-1.664 1.262zm-3.701-14.991 5.06 1.02 2.058-10.21-5.06-1.02c-4.066-.82-7.186.432-7.851 3.73-.664 3.298 1.727 5.661 5.793 6.48z"/><path d="M625.24 267.072a2.65 2.65 0 0 1-.519-.053c-.676-.136-1.234-.506-1.574-1.043-.345-.545-.448-1.22-.301-1.953l1.742-8.642-3.558-.718-8.365 8.254c-.658.623-1.458 1.382-2.763 1.115-1.28-.258-2.055-1.398-1.803-2.652.167-.825.594-1.373 1.185-1.941l6.796-6.447c-3.646-1.999-5.271-5.283-4.482-9.194.575-2.854 2.209-4.927 4.726-5.995 2.108-.894 4.757-1.059 7.658-.474l6.37 1.284c.709.143 1.27.497 1.62 1.025.35.527.459 1.181.316 1.891l-4.726 23.444c-.146.729-.49 1.308-.992 1.676-.38.279-.84.423-1.33.423zm-4.857-14.578 6.562 1.321-2.137 10.603c-.043.213-.032.391.03.489.058.091.182.133.276.151h.001c.087.018.205.027.274-.023.089-.065.169-.235.213-.456l4.726-23.445c.035-.174.027-.315-.022-.39-.049-.073-.176-.136-.348-.17l-6.37-1.284c-2.472-.499-4.771-.372-6.482.354-1.908.81-3.101 2.34-3.546 4.548-.876 4.346 2.042 6.53 4.646 7.599l1.43.586-8.968 8.509c-.449.432-.554.632-.605.891-.014.064-.049.238.236.296.184.036.289.059.979-.594l9.105-8.985zm6.676.753-6.039-1.218c-2.243-.452-4.044-1.355-5.207-2.611-1.281-1.385-1.755-3.13-1.368-5.046.386-1.917 1.498-3.342 3.217-4.122 1.558-.71 3.568-.843 5.812-.391l6.04 1.217-2.455 12.171zm-6.08-11.651c-.952 0-1.794.159-2.491.476-1.124.51-1.825 1.417-2.082 2.695-.258 1.278.037 2.387.876 3.293.875.945 2.305 1.641 4.133 2.009l4.08.823 1.663-8.249-4.079-.822a10.621 10.621 0 0 0-2.1-.225zM425.758 262.872l4.726-23.446c.2-.994.852-1.426 1.665-1.263s1.291.824 1.091 1.818l-4.508 22.362 6.686 1.348 4.508-22.362c.2-.994.852-1.426 1.665-1.263.813.164 1.291.824 1.091 1.818l-4.508 22.362 6.686 1.348 4.508-22.362c.2-.994.897-1.417 1.71-1.253s1.246.815 1.046 1.809l-4.726 23.446c-.182.904-.833 1.336-1.737 1.154l-18.748-3.779c-.904-.182-1.337-.834-1.155-1.737z"/><path d="M446.054 269.429c-.192 0-.39-.02-.592-.061l-18.747-3.779c-1.45-.292-2.229-1.463-1.938-2.914l4.727-23.446c.146-.729.49-1.308.992-1.676.514-.375 1.171-.506 1.851-.37 1.401.283 2.172 1.515 1.874 2.996l-4.311 21.382 4.726.952 4.31-21.381c.146-.729.49-1.308.992-1.676.513-.375 1.171-.507 1.851-.37 1.402.283 2.172 1.515 1.874 2.995l-4.311 21.383 4.727.952 4.31-21.381c.147-.733.505-1.315 1.033-1.685.522-.363 1.183-.485 1.854-.353 1.396.282 2.131 1.482 1.828 2.986l-4.726 23.446c-.144.71-.498 1.27-1.025 1.62a2.3 2.3 0 0 1-1.299.38zm-19.316-6.36c-.072.361.011.486.371.559l18.748 3.779c.175.036.314.027.388-.022.074-.049.138-.177.172-.35l4.726-23.445c.112-.556-.096-.598-.263-.631-.098-.021-.227-.028-.314.032-.095.066-.174.227-.217.438l-4.706 23.342-8.646-1.743 4.705-23.342c.112-.555-.141-.606-.308-.64-.088-.018-.205-.028-.274.023-.089.065-.169.235-.213.456l-4.706 23.342-8.646-1.743 4.705-23.341c.112-.556-.141-.607-.308-.641-.088-.017-.205-.027-.274.023-.089.065-.169.235-.213.456l-4.727 23.448zM476.207 249.301l-4.58 22.723c-.2.994-.897 1.418-1.71 1.254-.813-.164-1.246-.815-1.046-1.809l4.38-21.729-7.544-1.521-5.028 14.218c-2.051 5.745-4.279 8.634-9.158 7.65-.994-.2-1.445-.761-1.281-1.574.164-.813.788-1.11 1.782-.91 2.485.501 4.313-1.34 6.002-6.218l5.129-14.715c.336-.967.897-1.418 1.846-1.226l9.984 2.012c.991.199 1.424.85 1.224 1.845z"/><path d="M470.251 274.313c-.173 0-.351-.019-.532-.055-.68-.138-1.234-.514-1.562-1.059-.321-.534-.413-1.202-.266-1.93l4.183-20.748-5.714-1.152-4.739 13.399c-2.073 5.81-4.617 9.444-10.297 8.298-.728-.146-1.284-.452-1.654-.908-.286-.353-.589-.958-.41-1.845.215-1.063 1.104-2.067 2.959-1.692 1.363.272 2.995-.177 4.859-5.564l5.13-14.717c.701-2.016 2.172-2.039 2.987-1.878l9.983 2.013c.952.191 1.448.678 1.697 1.052.248.374.504 1.02.312 1.972l-4.58 22.723c-.26 1.289-1.194 2.091-2.356 2.091zm-5.198-27.246 9.376 1.889-4.577 22.71c-.045.222-.038.409.02.504.035.06.117.103.243.128.164.033.42.086.532-.472l4.58-22.722c.091-.452.008-.577-.443-.668l-9.983-2.013c-.293-.059-.471-.098-.704.574l-5.129 14.716c-1.251 3.615-3.197 7.666-7.144 6.869-.356-.071-.526-.031-.559-.011.002 0-.024.036-.045.138-.005.025-.028.151.003.189.01.013.114.131.495.207 3.849.779 5.871-.992 8.019-7.006l5.316-15.032zM496.846 279.364c-.813-.164-1.291-.824-1.091-1.818l1.94-9.622-5.06-1.02-8.744 8.627c-.697.659-1.14.992-1.863.846-.723-.146-1.165-.752-1.019-1.475.109-.542.372-.912.897-1.418l7.847-7.444c-3.604-1.479-6.13-4.338-5.247-8.72 1.102-5.466 6.192-6.697 11.206-5.686l6.37 1.284c.903.182 1.336.833 1.154 1.737l-4.726 23.446c-.2.994-.852 1.427-1.664 1.263zm-3.701-14.99 5.06 1.02 2.058-10.21-5.06-1.02c-4.066-.82-7.186.432-7.851 3.73-.665 3.297 1.727 5.66 5.793 6.48z"/><path d="M497.182 280.399c-.173 0-.351-.018-.533-.055-1.401-.283-2.172-1.515-1.874-2.996l1.742-8.642-3.558-.718-8.366 8.254c-.657.622-1.458 1.382-2.763 1.115-1.28-.26-2.054-1.399-1.802-2.652.167-.826.594-1.373 1.184-1.941l6.797-6.447c-3.646-1.998-5.271-5.283-4.483-9.194 1.071-5.313 5.815-7.792 12.385-6.469l6.369 1.284c.709.143 1.27.497 1.62 1.024.351.528.46 1.182.317 1.892l-4.726 23.444c-.264 1.309-1.162 2.101-2.309 2.101zm-4.871-14.58 6.562 1.321-2.137 10.603c-.112.556.141.607.308.641h.001c.167.035.375.072.486-.48l4.726-23.444c.035-.174.027-.314-.022-.389-.049-.074-.176-.137-.349-.171l-6.369-1.284c-2.038-.41-8.784-1.271-10.029 4.902-.875 4.346 2.043 6.53 4.646 7.599l1.43.586-8.969 8.509c-.448.431-.553.631-.604.891-.015.07-.049.238.236.296.186.04.287.06.979-.593l9.105-8.987zm6.675.752-6.039-1.218c-4.812-.97-7.332-3.904-6.576-7.657.387-1.917 1.499-3.342 3.217-4.122 1.56-.709 3.566-.843 5.812-.391l6.039 1.217-2.453 12.171zm-6.081-11.651c-.951 0-1.794.159-2.49.476-1.124.51-1.825 1.417-2.083 2.695-.771 3.827 3.64 5.025 5.01 5.302l4.08.823 1.662-8.249-4.079-.822a10.598 10.598 0 0 0-2.1-.225zM509.078 280.231l4.726-23.446c.182-.904.834-1.336 1.737-1.154l14.456 2.914c.904.182 1.336.833 1.154 1.737l-4.726 23.446c-.2.994-.897 1.418-1.71 1.254s-1.246-.815-1.046-1.809l4.508-22.362-11.836-2.386-4.508 22.362c-.2.994-.897 1.418-1.71 1.254-.812-.165-1.245-.816-1.045-1.81z"/><path d="M525.051 286.017c-.173 0-.351-.019-.533-.055-1.396-.282-2.131-1.482-1.828-2.987l4.31-21.382-9.877-1.99-4.309 21.381c-.147.733-.505 1.316-1.034 1.685-.521.363-1.181.485-1.854.353-1.396-.282-2.131-1.482-1.828-2.987l4.726-23.445c.144-.71.498-1.27 1.025-1.62s1.181-.461 1.891-.317l14.455 2.914c.709.143 1.27.497 1.62 1.024s.46 1.182.317 1.892l-4.726 23.444c-.26 1.288-1.194 2.09-2.355 2.09zm-9.492-28.77 13.797 2.781-4.705 23.341c-.112.557.096.599.263.632.166.034.419.087.532-.472l4.726-23.444c.035-.174.027-.315-.022-.389-.049-.074-.176-.137-.349-.171l-14.456-2.914c-.175-.035-.314-.027-.389.022-.073.049-.136.176-.171.35l-4.726 23.444c-.112.557.096.599.263.632.098.021.228.029.315-.032.095-.066.174-.227.217-.438l4.705-23.342zM536.135 285.685l3.151-15.63c1.22-6.054 4.795-9.329 10.713-8.136 5.918 1.193 7.945 5.597 6.724 11.651l-3.151 15.63c-.2.994-.897 1.418-1.71 1.254-.813-.164-1.246-.815-1.046-1.809l1.603-7.951-11.926-2.404-1.603 7.951c-.2.994-.852 1.427-1.665 1.263-.812-.165-1.29-.825-1.09-1.819zm13.354-21.236c-4.111-.829-6.473 1.328-7.457 6.207l-1.038 5.15 11.926 2.404 1.038-5.15c.984-4.88-.358-7.783-4.469-8.611z"/><path d="M552.196 291.488a2.7 2.7 0 0 1-.53-.054c-.681-.138-1.235-.514-1.563-1.059-.321-.534-.413-1.202-.266-1.93l1.405-6.971-9.967-2.009-1.404 6.971c-.146.729-.49 1.308-.992 1.676-.513.375-1.171.507-1.851.37-1.401-.283-2.172-1.516-1.874-2.996l3.151-15.63c.672-3.333 2.001-5.812 3.951-7.37 2.09-1.668 4.765-2.188 7.939-1.549 6.164 1.242 8.9 5.918 7.508 12.828l-3.15 15.631c-.26 1.291-1.195 2.092-2.357 2.092zm-12.485-14.377 13.887 2.8-1.8 8.931c-.045.222-.038.409.02.504.035.06.117.103.243.128.166.033.42.083.532-.472l3.15-15.63c.819-4.066.454-9.185-5.941-10.473-2.571-.518-4.691-.132-6.297 1.151-1.573 1.256-2.662 3.343-3.238 6.201l-3.151 15.63c-.112.556.141.607.309.641.085.018.204.028.273-.023.089-.065.169-.235.213-.456l1.8-8.932zm13.992 2.276-13.887-2.8 1.235-6.129c1.122-5.565 4.033-7.92 8.635-6.99 4.607.93 6.375 4.223 5.253 9.788l-1.236 6.131zm-11.531-4.364 9.967 2.009.84-4.17c1.148-5.697-1.367-6.965-3.687-7.433-2.318-.466-5.132-.274-6.279 5.424l-.841 4.17zM567.656 273.658a1.288 1.288 0 0 1 1.52-1.01c.226.046.479.191.731.336l12.648 9.084c.533.389.812.869.693 1.456-.118.587-.462.894-1.203 1.074l-15.18 3.475c-.289.036-.578.072-.804.026a1.288 1.288 0 0 1-1.01-1.52c.1-.497.553-.876 1.24-1.019l13.028-2.827-10.915-7.654c-.578-.4-.849-.924-.748-1.421z"/><path d="M566.309 289.119c-.148 0-.298-.012-.446-.042a2.293 2.293 0 0 1-1.792-2.697c.183-.902.937-1.575 2.017-1.8l10.787-2.342-9.045-6.343c-.901-.622-1.335-1.533-1.154-2.435v-.002a2.307 2.307 0 0 1 2.698-1.792c.389.079.731.276 1.033.449l.084.055 12.648 9.084c1.204.882 1.2 1.923 1.091 2.466-.291 1.446-1.538 1.748-1.948 1.848l-15.292 3.495c-.215.027-.445.056-.681.056zm2.327-15.264c-.008.04.058.208.336.399l12.791 8.971-15.26 3.312c-.339.07-.464.2-.472.239a.288.288 0 0 0 .228.342c.072.015.275-.013.433-.032l15.132-3.463c.405-.099.419-.165.445-.296.014-.065.04-.2-.304-.452l-12.6-9.049c-.133-.076-.317-.18-.392-.198a.28.28 0 0 0-.337.227zM202.408 311.607c-9.779 0-20.155-4.636-29.122-13.151-17.034-16.177-24.644-41.423-19.386-64.318 1.714-7.462 5.748-16.051 12.224-21.285-.401-9.682 1.059-19.065 5.567-27.793 1.271-2.457 5.967-10.38 13.319-9.243 2.601.405 4.76 1.952 6.494 3.601 1.193-1.89 2.691-3.613 4.676-4.823 5.842-3.562 13.677-1.747 22.659 5.251a174.381 174.381 0 0 1 6.782 5.564c2.698-3.438 5.646-6.702 8.615-9.843 2.132-2.251 4.478-4.48 7.657-4.848 2.454-.286 4.719.661 6.618 1.82l.765-1.281 1.349 1.118a246.002 246.002 0 0 1 5.193 4.431c5.171-1.585 10.295-2.405 15.226-1.942 4.915.46 8.625 2.879 12.214 5.219 2.911 1.898 5.66 3.691 8.744 4.141 13.477 1.962 21.117-8.136 29.202-18.832 5.452-7.213 11.09-14.672 18.773-18.48 3.614-1.792 6.805-2.208 9.479-1.241 2.317.838 3.933 2.566 5.494 4.238.408.438.816.875 1.236 1.292 10.812 10.722 22.812 6.447 35.518 1.923 2.977-1.061 6.055-2.157 9.053-3.011 19.066-5.43 33.753 2.855 47.956 10.868 14.499 8.178 28.191 15.902 46.528 10.583 5.438-1.578 10.754-4.296 15.895-6.924 8.616-4.405 17.537-8.979 27.412-8.392l-.172 2.994c-9.078-.517-17.234 3.652-25.875 8.069-5.266 2.691-10.71 5.476-16.424 7.133-19.545 5.676-34.438-2.727-48.838-10.852-14.296-8.064-27.797-15.682-45.66-10.596-2.905.827-5.937 1.907-8.869 2.952-13.018 4.638-26.48 9.434-38.637-2.619a51.998 51.998 0 0 1-1.315-1.374c-1.38-1.478-2.684-2.873-4.322-3.466-1.879-.676-4.275-.306-7.125 1.108-7.051 3.494-12.471 10.666-17.713 17.602-8.255 10.922-16.792 22.217-32.029 19.992-3.735-.545-6.895-2.604-9.949-4.597-3.283-2.141-6.678-4.354-10.854-4.745-3.906-.364-8.055.198-12.271 1.336a250.605 250.605 0 0 1 16.3 16.132c6.72 7.295 13.156 15.405 14.734 25.269 1.839 11.495-3.665 24.442-14.363 33.79-3.384 2.956-7.05 5.457-10.879 7.657-5.78 9.678-14.397 17.701-24.431 22.877a51.19 51.19 0 0 1-3.876 4.822 68.206 68.206 0 0 1-2.979 4.129c-5.37 6.885-14.213 15.486-25.84 17.367a29.694 29.694 0 0 1-4.753.378zm-36.037-94.984c-4.945 4.81-8.109 11.928-9.547 18.186-5.025 21.882 2.247 46.011 18.528 61.471 9.752 9.262 21.175 13.635 31.331 11.988 7.361-1.191 13.57-5.401 18.368-10.021-3.113 1.379-6.122 1.756-8.904 1.089-3.492-.839-6.21-3.183-8.695-5.512-7.085-6.642-12.441-13.078-16.466-19.153-2.614-.772-5.062-2.21-6.936-4.038-4.566-4.458-6.641-10.645-8.47-16.103-4.207-12.546-8.104-25.433-9.209-37.907zm28.698 58.676c4.521 6.361 9.678 11.877 14.435 16.336 2.192 2.055 4.564 4.116 7.343 4.783 4.644 1.12 9.416-1.859 12.605-4.549a45.314 45.314 0 0 0 4.156-3.987l.168-.255a56.288 56.288 0 0 1-9.115 2.621c-3.433.677-8.479 1.308-12.635-1.034-3.783-2.13-5.877-6.165-7.278-9.442a59.518 59.518 0 0 1-2.455-6.881c-.082.065-.165.131-.25.194-2.069 1.568-4.52 2.275-6.974 2.214zm9.616-5.03a57.265 57.265 0 0 0 2.821 8.323c1.216 2.842 2.995 6.32 5.993 8.009 3.289 1.853 7.614 1.289 10.582.704a54.107 54.107 0 0 0 12.32-4.036 71.383 71.383 0 0 0 4.831-10.795c-3.67 1.432-8.666 3.068-13.248 1.456-3.472-1.222-5.995-4.059-7.936-6.666-1.889 1.149-4.171 2.13-6.634 1.804-3.025-.393-5.087-2.395-6.393-5.055-.412 2.304-1.129 4.439-2.336 6.256zm42.662-.252a58.352 58.352 0 0 1-4.123 9.497 58.655 58.655 0 0 0 15.513-14.535c-3.734 1.839-7.562 3.473-11.39 5.038zm-54.487 2.023c2.601.543 5.282.238 7.371-1.346.444-.336.843-.71 1.202-1.117a64.449 64.449 0 0 1-1.581-12.101 26.665 26.665 0 0 1-5.748-4.551c-5.109-5.348-8.565-12.92-10.286-22.527-1.01 3.893-1.457 7.895-1.283 11.817.489 11.017 4.712 21.118 10.325 29.825zm29.668-6.479c1.924 2.562 3.885 4.636 6.452 5.539 3.75 1.319 7.989-.146 12.367-1.899.36-.145.723-.289 1.084-.435 2.777-9.411 3.792-19.593 2.888-29.907a22.111 22.111 0 0 1-6.389 2.04c-2.856 10.085-8.561 18.786-16.402 24.662zm-53.317-51.289c.792 12.82 4.835 26.244 9.214 39.306 1.723 5.136 3.674 10.957 7.722 14.909a13.07 13.07 0 0 0 2.005 1.595c-6.281-10.961-8.293-20.535-8.612-27.732-.278-6.268.917-12.715 3.379-18.686a81.95 81.95 0 0 1-.198-12.293 16.774 16.774 0 0 0-5.552-.222c-2.97.382-5.62 1.501-7.958 3.123zm80.13 21.953a75.66 75.66 0 0 1 1.188 10.284c.314 6.845-.413 13.537-2.075 19.805 4.654-1.944 9.274-4.034 13.66-6.5a53.273 53.273 0 0 0 3.597-7.522c5.044-13.124 4.706-28.208-.467-41.297-1.665.854-3.625 1.339-5.806 1.407-3.655.107-7.947-1.092-11.34-3.588 3.763 4.873 7.112 10.564 6.716 16.88-.254 4.062-2.2 7.743-5.473 10.531zm-40.374 24.518c.83 2.748 2.364 5.029 4.834 5.35 1.523.191 3.109-.457 4.499-1.278a297.116 297.116 0 0 1-2.806-4.071c-2.118.337-4.323.329-6.527-.001zm-6.05-1.72c.135 2.112.375 4.217.724 6.303.503-1.738.741-3.679.839-5.698a27.072 27.072 0 0 1-1.563-.605zm15.682.952c.716 1.05 1.444 2.099 2.18 3.148 7.009-5.269 12.184-12.982 14.947-21.957a19.556 19.556 0 0 1-2.486-.125c-1.496 7.64-6.005 15.532-13.856 18.645-.26.102-.522.199-.785.289zm-10.274-2.372a19.28 19.28 0 0 0 5.317.349c-1.941-2.988-3.746-5.986-5.315-9.012a59.31 59.31 0 0 0-.136 6.98c.022.55.066 1.114.134 1.683zm.691-14.207c2.029 4.703 4.775 9.345 7.839 13.984.482-.138.957-.299 1.423-.483 6.786-2.689 10.699-9.639 12.018-16.407a17.585 17.585 0 0 1-4.707-2.017c-4.404-2.726-8.255-7.638-10.318-13.858-3.008 5.914-5.147 12.266-6.255 18.781zm58.741-34.18c5.698 13.936 6.151 30.109.755 44.151a55.481 55.481 0 0 1-1.448 3.419 59.574 59.574 0 0 0 6.128-4.67c7.781-6.797 15.381-18.525 13.375-31.056-1.452-9.079-7.576-16.761-13.979-23.71a246.319 246.319 0 0 0-8.928-9.195c3.146 5.04 5.442 10.609 6.688 16.403l.095.442-.165.421a10.515 10.515 0 0 1-2.521 3.795zm-64.964 46.459c.573.287 1.154.549 1.741.784-.001-.203-.004-.407-.007-.611-.062-4.27-.128-8.791-.558-13.309a66.573 66.573 0 0 0-1.176 13.136zm-16.813-31.558c.135 1.363.305 2.721.512 4.07 1.507 9.824 4.798 17.45 9.782 22.666a23.83 23.83 0 0 0 3.543 3.044 70.614 70.614 0 0 1 2.434-17.143c-4.093-.979-7.534-3.771-9.836-8.034-1.863-3.45-2.767-7.477-2.705-11.438a42.756 42.756 0 0 0-3.73 6.835zm47.691 13.962c.946.1 1.91.125 2.881.068a52.647 52.647 0 0 0 1.442-11.602c.111-8.078-1.574-15.778-4.764-22.455-.214-.348-.431-.694-.649-1.042a64.639 64.639 0 0 0-5.193 4.724c.286.732.537 1.454.773 2.133 2.837 8.147 6.052 17.382 5.609 26.78-.021.461-.054.926-.099 1.394zm-27.422-3.102c.228 1.046.5 2.088.814 3.126a70.057 70.057 0 0 1 7.118-17.764 31.684 31.684 0 0 1-.334-2.349 67.418 67.418 0 0 0-6.804 13.508 54.832 54.832 0 0 1-.794 3.479zm34.167-17.285a56.29 56.29 0 0 1 .577 8.896 55.83 55.83 0 0 1-1.261 11.108 19.14 19.14 0 0 0 5.243-2.055c-.03-.232-.06-.464-.092-.696a83.952 83.952 0 0 0-3.14-14.083 94.842 94.842 0 0 0-1.327-3.17zm-23.058 3.12c1.245 6.103 4.381 11.752 9.808 15.11a14.591 14.591 0 0 0 3.546 1.573c.026-.318.048-.636.062-.95.415-8.819-2.699-17.763-5.447-25.653l-.234-.673a67.82 67.82 0 0 0-7.735 10.593zm-24.604-4.238c-.185 3.707.585 7.543 2.301 10.722 1.801 3.335 4.416 5.562 7.5 6.435-.636-2.637-1.487-5.211-2.631-7.668-1.612-3.458-4.106-6.823-7.17-9.489zm51.811 3.264c1.717 4.323 3.07 8.633 4.057 12.919 1.907-2.068 3.029-4.562 3.198-7.251.384-6.113-3.601-11.862-7.549-16.682a171.64 171.64 0 0 0-7.699-8.769c-.3.207-.601.418-.896.63 3.718 5.861 6.716 12.307 8.889 19.153zm-51.322-6.836c3.621 2.688 6.927 6.532 9.346 11.68a33.36 33.36 0 0 1 2.254-9.353 57.349 57.349 0 0 0-1.873-10.113c-3.496 1.752-6.754 4.256-9.644 7.438-.029.116-.056.232-.083.348zm14.646 2.812c.165 2.038.226 4.084.179 6.125a68.592 68.592 0 0 1 5.639-8.947 35.268 35.268 0 0 1 1.375-8.203c-3.186 3.547-5.586 7.226-7.193 11.025zm-22.176-3.563a79.495 79.495 0 0 0-.089 5.918 44.265 44.265 0 0 1 3.003-4.535 21.654 21.654 0 0 0-2.914-1.383zm31.019 1.687c-.012.729 0 1.462.038 2.195a70.677 70.677 0 0 1 7.067-8.976 12.95 12.95 0 0 0-.347-.649 61.497 61.497 0 0 0-6.758 7.43zm-30.799-4.76a25.427 25.427 0 0 1 4.629 2.069l.039-.044a19.979 19.979 0 0 1 1.645-4.034c2.038-3.736 4.785-6.84 8.022-9.523-2.067-4.71-4.774-9.129-8.078-13.065-.105.237-.207.474-.308.708-3.201 7.527-5.206 15.657-5.949 23.889zm-2.281-30.467c-3.89 0-7.311 3.883-9.295 7.725-3.936 7.617-5.401 15.84-5.279 24.375a20.441 20.441 0 0 1 7.707-2.637c1.909-.246 4.001-.179 6.164.229a81.932 81.932 0 0 1 6.173-24.289c.274-.646.567-1.306.885-1.965-1.539-1.576-3.352-3.042-5.457-3.369a5.963 5.963 0 0 0-.898-.069zm22.084 25.294a60.927 60.927 0 0 1 1.478 6.459c1.61-2.785 3.627-5.495 6.049-8.131a27.137 27.137 0 0 0-7.527 1.672zm38.772-8.567c.154 2.234.668 4.435 1.646 6.535 2.363 5.073 8.422 7.549 13.19 7.43 1.799-.056 3.393-.469 4.711-1.194a53.862 53.862 0 0 0-5.806-9.801c-1.385-1.851-3.095-3.838-5.271-4.54-2.756-.889-5.967.364-8.47 1.57zm-26.203 9.057c-.187.582-.359 1.17-.518 1.762a29.74 29.74 0 0 0-.533 2.367 63.662 63.662 0 0 1 4.366-4.466 4.244 4.244 0 0 0-.18-.146c-.707-.556-1.547-.978-2.531-1.268-.146.396-.288.795-.423 1.195l.16.423-.341.133zm32.66-13.931a9.52 9.52 0 0 1 2.936.448c2.978.961 5.084 3.369 6.752 5.599a56.528 56.528 0 0 1 5.772 9.591c.348-.448.646-.939.89-1.472-2.049-9.08-6.832-17.547-13.483-24.072-2.481.887-4.961 1.927-7.406 3.051-.977 2.726-1.682 5.575-1.897 8.42 1.946-.846 4.168-1.565 6.436-1.565zm-49.506 10.016c-1.672 1.458-3.181 3.04-4.487 4.78a33.731 33.731 0 0 1 5.102-3.052 60.182 60.182 0 0 0-.615-1.728zm24.323 3.902c.087.138.17.276.252.417a67.286 67.286 0 0 1 4.228-3.818 57.149 57.149 0 0 0-4.48 3.401zm13.342-6.091a177.626 177.626 0 0 1 4.252 4.72 20.99 20.99 0 0 1-1.738-6.189 57.24 57.24 0 0 0-2.514 1.469zm-19.069 1.566c1.227.395 2.302.959 3.239 1.695.206.162.404.332.594.507a59.843 59.843 0 0 1 5.743-4.266 41.306 41.306 0 0 0-2.617-3.371 76.947 76.947 0 0 0-6.92 5.348l-.039.087zm-16.146-1.347c.327.834.636 1.677.926 2.525a30.099 30.099 0 0 1 9.129-1.85l.17-.008a34.488 34.488 0 0 1-.524-6.474c-3.496 1.75-6.785 3.639-9.701 5.807zm12.754-7.277a31.52 31.52 0 0 0 .39 7.235c.19-.173.383-.347.576-.519 1.325-2.825 2.914-5.528 4.685-8.131a36.215 36.215 0 0 0-.898-.719 217.747 217.747 0 0 0-4.753 2.134zm15.286 3.991a76.545 76.545 0 0 1 2.072 2.86 36.9 36.9 0 0 1 .454-.32 163.485 163.485 0 0 0-2.526-2.54zm.12-4.062a174.806 174.806 0 0 1 4.945 4.911 62.957 62.957 0 0 1 4.445-2.562c.037-2.735.506-5.474 1.252-8.125a199.6 199.6 0 0 0-4.851 2.499 120.895 120.895 0 0 0-5.791 3.277zm-38.423-9.589c3.707 4.21 6.744 8.982 9.062 14.092 3.362-2.42 7.137-4.491 11.121-6.409a33.18 33.18 0 0 1 1.703-7.389l.242-.68c-5.406-3.959-12.535-7.481-18.031-4.133-1.734 1.057-3.045 2.706-4.097 4.519zm30.926 10.265c-.266.395-.525.791-.781 1.19.38-.274.768-.549 1.157-.821a43.75 43.75 0 0 0-.376-.369zm3.308-4.545c.645.576 1.283 1.155 1.919 1.741a120.921 120.921 0 0 1 6.656-3.799 188.488 188.488 0 0 1 7.601-3.843 55.99 55.99 0 0 1 2.967-6.349c-1.466-.903-3.149-1.635-4.784-1.445-2.179.252-4.07 2.079-5.821 3.93-2.951 3.118-5.877 6.36-8.538 9.765zm-10.154-2.425a30.564 30.564 0 0 0-.65 2.875c.886-.401 1.778-.797 2.677-1.19a64.834 64.834 0 0 0-2.027-1.685zm31.765-8.083c-.48.896-.949 1.827-1.396 2.783a89.892 89.892 0 0 1 3.223-1.307 46.18 46.18 0 0 0-1.827-1.476zM159.895 412.48c-.334-1.275.272-2.541 2.025-3l19.055-4.651c-3.599-10.812-10.544-15.211-18.356-13.165-4.464 1.169-7.771 3.824-9.92 8.306-.546 1.165-1.08 1.73-2.196 2.023-1.195.314-2.541-.271-2.876-1.546-.271-1.036-.098-1.678.292-2.462 2.952-5.969 8.009-9.424 13.509-10.865 11.798-3.09 21.495 4.336 25.295 18.844 3.8 14.508-.99 25.814-12.787 28.905-5.5 1.44-11.602.909-17.101-2.846-.724-.492-1.189-.966-1.461-2.002-.334-1.275.553-2.445 1.748-2.758 1.115-.292 1.858-.06 2.906.688 4.069 2.852 8.254 3.544 12.718 2.376 8.051-2.109 11.923-9.768 9.394-21.371l-19.009 5.149c-1.753.458-2.901-.349-3.236-1.625zM195.537 384.32c-1.753.459-2.902-.348-3.237-1.623-.334-1.276.272-2.541 2.026-3.001l33.877-8.874c1.754-.46 2.902.346 3.236 1.622.334 1.275-.271 2.541-2.024 3.001-2.87.752-11.461 2.747-14.592 3.481l10.378 39.617c.46 1.754-.326 2.982-1.761 3.358-1.435.376-2.642-.33-3.102-2.083L209.961 380.2c-3.008.874-11.554 3.368-14.424 4.12zM277.893 356.613c1.515-.397 2.524.531 2.817 1.647.209.797.057 1.518-.229 2.701l-8.185 31.191c-3.088 11.627-4.932 18.244-13.78 20.561-4.943 1.295-7.865.867-8.429-1.285-.334-1.275.372-2.482 1.568-2.795 1.035-.272 1.916-.162 2.776-.131 1.119.047 2.277-.086 3.473-.399 2.073-.543 3.714-2.081 4.954-3.854 1.966-2.9 3.431-7.713 4.173-11.059l-23.617-22.52c-.889-.79-1.295-1.364-1.525-2.242-.292-1.115.212-2.44 1.727-2.837 1.196-.313 2.101.216 3.354 1.422l21.64 20.823 7.058-28.34c.419-1.644 1.029-2.57 2.225-2.883zM368.512 336.708c1.435-.376 2.965.587 3.361 2.101.334 1.275-.171 2.6-1.542 3.215l-9.934 5.328 9.242 6.011c.766.652 1.273 1.285 1.461 2.003.356 1.355-.766 2.927-2.122 3.281-.957.251-1.958.003-2.868-.866l-8.14-7.664-2.999 10.666c-.366 1.204-1.177 2.012-2.133 2.263-1.354.354-3.044-.566-3.398-1.921-.189-.718-.057-1.518.333-2.302l4.843-10.127-11.048.423c-1.598.078-2.746-.729-3.059-1.924-.418-1.594.365-3.162 1.958-3.579.399-.105.818-.13 1.339-.095l11.029 1.455-3.914-10.389c-.762-1.93.1-3.518 1.854-3.978 1.754-.46 3.204.524 3.545 2.479l2.005 11.23 8.757-6.893c.415-.365.952-.592 1.43-.717zM416.342 324.18c1.435-.376 2.964.586 3.36 2.1.334 1.275-.17 2.6-1.542 3.215l-9.934 5.328 9.241 6.011c.766.652 1.273 1.286 1.461 2.003.356 1.355-.766 2.927-2.121 3.282-.957.25-1.959.002-2.868-.867l-8.14-7.664-2.998 10.667c-.366 1.203-1.177 2.012-2.133 2.262-1.355.355-3.044-.566-3.399-1.921-.188-.717-.057-1.518.334-2.302l4.844-10.127-11.048.424c-1.599.078-2.747-.73-3.06-1.924-.418-1.594.365-3.163 1.958-3.58.399-.104.818-.129 1.339-.095l11.029 1.455-3.914-10.389c-.761-1.93.1-3.519 1.854-3.977 1.753-.46 3.203.523 3.545 2.478l2.004 11.23 8.757-6.893c.415-.364.952-.591 1.431-.716zM464.17 311.651c1.435-.376 2.965.587 3.361 2.101.334 1.275-.17 2.6-1.542 3.215l-9.934 5.328 9.242 6.012c.766.651 1.273 1.285 1.462 2.002.354 1.355-.767 2.927-2.123 3.282-.956.25-1.958.002-2.868-.866l-8.14-7.665-2.998 10.667c-.367 1.204-1.177 2.012-2.133 2.262-1.356.355-3.045-.565-3.4-1.92-.188-.718-.056-1.519.334-2.303l4.843-10.127-11.047.424c-1.598.078-2.747-.73-3.06-1.924-.418-1.594.364-3.163 1.959-3.58.397-.104.817-.129 1.338-.095l11.029 1.455-3.914-10.388c-.761-1.93.1-3.519 1.854-3.978 1.754-.46 3.204.524 3.546 2.478l2.005 11.231 8.757-6.894c.414-.365.952-.592 1.429-.717zM180.478 515.444l-10.836-41.371c-.418-1.594.288-2.801 1.882-3.219l25.508-6.681c1.594-.418 2.801.288 3.22 1.882l10.836 41.371c.46 1.754-.326 2.982-1.761 3.358-1.435.376-2.641-.33-3.101-2.084l-10.336-39.457-20.885 5.47 10.336 39.458c.46 1.753-.326 2.981-1.761 3.358-1.436.375-2.643-.33-3.102-2.085zM220.122 482.402c-3.508-13.392-.106-25.442 11.692-28.533 11.798-3.09 20.67 5.744 24.179 19.136 3.528 13.471.126 25.522-11.671 28.612-11.798 3.09-20.672-5.744-24.2-19.215zm30.849-8.081c-2.902-11.08-9.756-18.059-17.966-15.908-8.21 2.15-10.763 11.593-7.861 22.673 2.902 11.08 9.778 18.138 17.988 15.988 8.21-2.151 10.741-11.673 7.839-22.753zM264.247 451.507c-1.753.46-2.902-.347-3.235-1.623-.334-1.275.271-2.541 2.024-3l33.878-8.875c1.753-.46 2.902.347 3.237 1.622.334 1.276-.272 2.542-2.026 3.001-2.869.752-11.46 2.747-14.591 3.481l10.378 39.617c.46 1.754-.326 2.982-1.761 3.358-1.435.376-2.642-.33-3.102-2.083l-10.378-39.617c-3.007.873-11.554 3.367-14.424 4.119zM315.78 457.344c-3.509-13.392-.105-25.441 11.692-28.532 11.798-3.09 20.671 5.744 24.179 19.136 3.528 13.471.126 25.522-11.671 28.612-11.798 3.09-20.672-5.745-24.2-19.216zm30.849-8.081c-2.902-11.08-9.755-18.058-17.966-15.908-8.21 2.15-10.763 11.594-7.861 22.673 2.902 11.08 9.778 18.139 17.988 15.988 8.21-2.151 10.741-11.672 7.839-22.753zM360.155 420.25c1.435-.376 2.545.612 3.638 1.858l18.272 20.001 6.121-26.391c.341-1.622.824-3.028 2.26-3.403s2.622.25 3.123 2.164l11.066 42.247c.46 1.754-.247 2.961-1.682 3.337s-2.722-.308-3.181-2.063l-8.895-33.957-4.99 21.921c-.421 1.643-.971 2.47-2.087 2.761-1.117.292-2.001-.156-3.174-1.383l-15.097-16.659 8.895 33.957c.46 1.754-.246 2.961-1.681 3.337-1.435.376-2.722-.309-3.181-2.064l-11.066-42.247c-.503-1.913.224-3.04 1.659-3.416zM223.998 541.102c1.515-.397 2.523.532 2.816 1.648.209.797.057 1.518-.229 2.7l-8.185 31.191c-3.087 11.628-4.932 18.244-13.78 20.561-4.943 1.295-7.865.867-8.428-1.284-.334-1.276.371-2.483 1.567-2.796 1.037-.272 1.918-.162 2.777-.131 1.119.047 2.277-.085 3.473-.398 2.073-.544 3.714-2.081 4.954-3.854 1.966-2.9 3.432-7.713 4.174-11.059l-23.617-22.52c-.889-.79-1.295-1.364-1.525-2.242-.292-1.116.213-2.441 1.728-2.837 1.195-.314 2.1.216 3.353 1.422l21.64 20.823 7.058-28.34c.419-1.645 1.028-2.571 2.224-2.884zM247.838 537.158l17.139-4.49c1.753-.46 2.96.246 3.419 1.999l9.793 37.386 3.587-.94c1.435-.376 2.722.31 3.181 2.064l2.61 9.964c.459 1.753-.326 2.981-1.761 3.357-1.434.376-2.642-.33-3.101-2.083l-2.172-8.291-32.921 8.623 2.172 8.291c.459 1.753-.247 2.961-1.682 3.336-1.435.376-2.722-.309-3.181-2.062l-2.61-9.964c-.46-1.753.325-2.982 1.761-3.358 5.42-1.42 6.121-4.925 5.257-12.451l-3.252-28.025c-.219-1.815.327-2.98 1.761-3.356zm16.156.537-12.754 3.341 3.141 26.946c.577 5.13.296 8.611-.524 10.36l19.45-5.095-9.313-35.552zM296.937 570.125l-7.225-27.581c-2.798-10.682.369-18.752 10.812-21.487 10.443-2.735 17.16 2.746 19.958 13.428l7.224 27.581c.46 1.753-.325 2.981-1.762 3.357-1.434.376-2.641-.33-3.101-2.083l-3.674-14.029-21.044 5.513 3.675 14.029c.459 1.753-.247 2.961-1.683 3.336-1.433.374-2.72-.311-3.18-2.064zm4.757-44.604c-7.254 1.9-9.353 7.22-7.098 15.829l2.38 9.087 21.044-5.513-2.38-9.087c-2.254-8.609-6.692-12.217-13.946-10.316zM363.385 508.679l10.503 40.096c.46 1.753-.326 2.981-1.761 3.358-1.435.376-2.642-.331-3.102-2.084l-10.043-38.342-13.312 3.487 3.098 26.787c1.221 10.839-.087 17.23-8.696 19.485-1.753.459-2.919-.088-3.294-1.522-.376-1.435.393-2.404 2.146-2.862 4.385-1.149 5.874-5.542 4.752-14.704l-3.328-27.664c-.22-1.817.327-2.982 2.001-3.42l17.616-4.615c1.753-.46 2.961.247 3.42 2zM382.871 499.486c1.434-.376 2.721.309 3.181 2.063l9 34.356 12.398-40.472c.502-1.665.931-2.629 2.285-2.984 1.196-.313 2.382.314 2.884 2.226l11.067 42.248c.459 1.753-.247 2.961-1.682 3.336-1.435.376-2.722-.308-3.181-2.062l-8.979-34.278-12.418 40.393c-.502 1.665-.93 2.629-2.285 2.984-1.195.313-2.382-.313-2.883-2.226l-11.067-42.247c-.462-1.754.244-2.961 1.68-3.337zM428.616 493.637c-1.753.46-2.902-.347-3.236-1.622-.334-1.276.271-2.542 2.025-3.002l33.878-8.874c1.753-.46 2.902.347 3.236 1.623.334 1.275-.272 2.541-2.025 3-2.869.752-11.461 2.747-14.592 3.481l10.379 39.618c.459 1.753-.327 2.981-1.762 3.357-1.434.376-2.642-.33-3.101-2.083l-10.379-39.617c-3.008.873-11.554 3.367-14.423 4.119zM481.158 473.74c1.436-.376 2.723.309 3.181 2.063l4.657 17.776 7.572-1.984c10.522-2.756 18.942-.531 21.281 8.397 2.338 8.927-3.909 14.993-14.432 17.749l-9.884 2.589c-1.594.418-2.801-.289-3.219-1.882l-10.837-41.371c-.459-1.754.247-2.962 1.681-3.337zm16.58 22.319-7.572 1.983 4.51 17.219 7.572-1.984c7.971-2.088 12.187-5.833 10.6-11.891-1.628-6.218-7.139-7.415-15.11-5.327zM545.412 487.489l-6.111-19.098a73.808 73.808 0 0 1-1.349-4.502c-.857-3.268-.515-4.891 1.718-5.476 2.231-.585 3.324.663 4.181 3.931a73.53 73.53 0 0 1 1.031 4.585l4.037 19.642c.196 1.397-.195 2.18-1.231 2.452-1.037.272-1.762-.22-2.276-1.534zm3.946 7.911c3.189-.835 6.245.75 7.038 3.779.794 3.029-1.094 5.909-4.281 6.744-3.189.835-6.244-.749-7.038-3.779-.794-3.029 1.092-5.909 4.281-6.744zM778.366 859.613H301.943V750.784l476.423-.027v108.856zm-472.423-4h468.423V754.757l-468.423.027v100.829z"/><ellipse transform="rotate(-18.547 702.636 80.69)" fill="#FF8630" cx="702.634" cy="80.695" rx="24.565" ry="83.007"/><path d="M729.039 161.391c-.445 0-.884-.148-1.243-.433-23.4-18.559-40.81-43.391-50.347-71.813-9.536-28.421-10.628-58.729-3.156-87.645a2.002 2.002 0 0 1 3.18-1.067c23.399 18.557 40.81 43.389 50.347 71.812 9.536 28.422 10.628 58.729 3.156 87.646a1.998 1.998 0 0 1-1.937 1.5zM677.415 5.534c-6.44 27.246-5.13 55.645 3.827 82.339s25.04 50.136 46.611 67.983c6.44-27.246 5.13-55.645-3.827-82.34-8.957-26.693-25.041-50.135-46.611-67.982z"/><path d="M729.039 161.392a2 2 0 0 1-1.896-1.365L674.333 2.636a2 2 0 1 1 3.793-1.271l52.81 157.391a2 2 0 0 1-1.897 2.636z"/><path d="M705.889 89.935c-.101 0-.202-.008-.304-.023l-27.18-4.172a1.999 1.999 0 1 1 .607-3.953l26.086 4.004 16.658-19.272a1.996 1.996 0 0 1 2.82-.205c.836.722.928 1.984.205 2.82L707.4 89.243a1.993 1.993 0 0 1-1.511.692zM694.104 57.272c-.158 0-.318-.019-.477-.058l-21.603-5.303a2 2 0 0 1 .953-3.885l20.32 4.988 13.208-17.578a1.997 1.997 0 0 1 2.8-.397 1.997 1.997 0 0 1 .397 2.8l-14.001 18.634c-.382.51-.977.799-1.597.799zM716.88 125.153c-.187 0-.376-.026-.562-.08l-24.116-7.053a2 2 0 0 1 1.123-3.839l22.755 6.655 14.833-20.704a2 2 0 0 1 3.252 2.33l-15.659 21.856a2 2 0 0 1-1.626.835z"/><ellipse transform="rotate(-53.63 664.927 110.167)" fill="#FF8630" cx="664.935" cy="110.163" rx="24.565" ry="83.007"/><path d="m731.771 161.387-.116-.003c-29.813-1.737-58.333-12.053-82.473-29.831-24.141-17.778-42.452-41.953-52.956-69.911a2 2 0 0 1 .262-1.89 1.98 1.98 0 0 1 1.727-.811c29.817 1.738 58.336 12.055 82.474 29.832 24.139 17.777 42.45 41.952 52.955 69.91a2 2 0 0 1-1.873 2.704zm-80.217-33.055c22.674 16.697 49.308 26.637 77.216 28.844-10.388-25.998-27.781-48.484-50.453-65.182-22.671-16.697-49.306-26.637-77.216-28.845 10.387 25.998 27.781 48.485 50.453 65.183z"/><path d="M731.77 161.387c-.411 0-.827-.127-1.184-.39L596.913 62.549a2 2 0 1 1 2.371-3.221l133.673 98.448a2 2 0 0 1-1.187 3.611z"/><path d="M647.121 128.424a2 2 0 0 1-.89-3.792l23.648-11.716 2.555-25.346a2.01 2.01 0 0 1 2.19-1.79 2 2 0 0 1 1.79 2.19l-2.666 26.446a1.998 1.998 0 0 1-1.103 1.592l-24.64 12.207a1.955 1.955 0 0 1-.884.209zM622.617 104.338a2 2 0 0 1-.727-3.864l19.496-7.598.705-21.976a2 2 0 0 1 3.998.128l-.747 23.295a1.999 1.999 0 0 1-1.272 1.799l-20.727 8.077a1.982 1.982 0 0 1-.726.139zM677.206 146.81a2 2 0 0 1-.644-3.894l22.446-7.632.239-25.469a2 2 0 0 1 2-1.981h.019a2 2 0 0 1 1.981 2.019l-.253 26.887a2 2 0 0 1-1.356 1.875l-23.789 8.089c-.212.071-.43.106-.643.106z"/><path fill="#FFF" d="M968.709 964.301H774.354V334.375h4v625.926h186.355V334.375h4z"/><path d="m1079.984 883.477-93.979.011.016 140.048 93.979-.011-.01-84.64-29.485-9.067 29.483-9.486z"/><path d="m984.021 1025.535-.016-144.047 95.987-.011.005 40.312-22.827 7.985 22.829 7.633.01 88.117-95.988.011zm3.984-140.047.016 136.047 87.979-.011-.001-81.162-32.157-10.502 32.155-10.985-.005-33.397-87.987.01z"/><path fill="#FFF" d="m973.682 1030.499 6.251-.001a6.088 6.088 0 0 0 6.087-6.089l-.016-141.794a6.09 6.09 0 0 0-6.089-6.088l-6.251.001a6.09 6.09 0 0 0-6.088 6.089l.016 141.794a6.09 6.09 0 0 0 6.09 6.088z"/><path fill="#FFF" d="M953.826 885.808c-12.806.002-23.185 10.384-23.184 23.189.002 16.224-13.337 29.277-29.557 28.923l-197.836-4.313c-11.372-.248-20.725 8.904-20.723 20.279.001 11.375 9.356 20.525 20.728 20.274l197.835-4.359c16.22-.357 29.562 12.693 29.564 28.917.002 12.806 10.384 23.185 23.189 23.184l13.752-.002-.016-136.093-13.752.001z"/><path fill="none" d="M77.287 870.504zM62.327 866.715zM59.622 865.893zM68.152 868.336zM65.144 867.523zM48.904 862.126zM19.759 844.765zM16.131 840.835zM21.918 846.74zM34.936 855.629c-2.991-1.649-5.756-3.377-8.275-5.173 2.519 1.797 5.283 3.524 8.275 5.173zM26.61 850.42zM99.989 874.22zM106.743 874.923zM103.283 874.584zM14.536 838.727zM114.383 875.518zM110.913 875.276zM86.618 872.299zM83.35 871.715zM80.273 871.122zM96.759 873.823zM93.596 873.395zM46.421 861.122c-4.12-1.713-7.958-3.548-11.482-5.491 3.524 1.943 7.361 3.777 11.482 5.491zM9.407 823.768zM10.39 830.4zM9.827 828.081zM11.08 832.376zM12.059 834.593z"/><path d="M200.37 867.619zM198.209 870.271l-1.012-3.869c.887-.232 1.767-.469 2.64-.711l1.066 3.855c-.89.246-1.788.488-2.694.725zM245.973 844.885zM245.249 848.251l-2.621-3.021a53.16 53.16 0 0 0 1.961-1.788l2.77 2.887a56.914 56.914 0 0 1-2.11 1.922zM164.804 874.342zM162.781 876.573l-.416-3.979c.74-.077 1.478-.157 2.213-.24l.451 3.975c-.747.085-1.496.165-2.248.244zM243.923 846.753zM240.407 852.048l-2.324-3.256a61.812 61.812 0 0 0 4.531-3.552l2.617 3.025a66.424 66.424 0 0 1-4.824 3.783zM256.449 823.768zM258.341 825.96l-3.984-.355c.063-.71.093-1.293.093-1.836h4c-.001.664-.035 1.36-.109 2.191zM249.61 840.974zM247.487 846.203l-2.779-2.877a43.374 43.374 0 0 0 3.357-3.622l3.09 2.539a47.007 47.007 0 0 1-3.668 3.96zM168.165 873.941zM166.099 876.206l-.463-3.973c.763-.089 1.521-.182 2.277-.277l.504 3.969c-.77.098-1.542.19-2.318.281zM256.315 826.156zM257.992 828.459l-3.928-.756c.112-.581.2-1.172.262-1.758l3.979.422c-.075.698-.18 1.402-.313 2.092zM128.318 876.065zM128.286 878.066c-.79-.013-1.579-.026-2.366-.046l.096-3.998c.775.018 1.555.031 2.335.044l-.065 4zM161.483 874.697zM159.295 876.915l-.363-3.984c.786-.071 1.572-.146 2.353-.224l.396 3.98c-.792.08-1.588.155-2.386.228zM121.186 875.869zM121.105 877.866c-.739-.029-1.478-.062-2.214-.097l.191-3.996c.727.035 1.453.067 2.183.097l-.16 3.996zM117.761 875.712zM117.657 877.709c-.809-.042-1.615-.089-2.418-.137l-.022-.002.242-3.992c.757.046 1.515.09 2.276.13l.129.007-.207 3.994zM216.878 862.155zM206.831 867.802l-1.195-3.818.074-.022a157.556 157.556 0 0 0 10.437-3.667l1.463 3.723-.029.012a1.02 1.02 0 0 0-.051.02 163.1 163.1 0 0 1-10.699 3.752zM206.207 865.901zM204.097 868.633l-1.135-3.836c.891-.264 1.774-.531 2.648-.805l1.193 3.818c-.893.28-1.796.553-2.706.823zM203.227 866.804zM201.25 869.449l-1.076-3.852c.837-.234 1.667-.471 2.488-.713l1.129 3.838c-.839.247-1.687.489-2.541.727zM219.399 861.136zM217.684 863.987l-1.464-3.723h.001l.01-.004c.812-.319 1.612-.644 2.402-.972l1.533 3.695-.022.009c-.805.334-1.621.664-2.448.989l-.012.006c.001 0 .001 0 0 0zM230.917 855.631c-3.523 1.943-7.362 3.777-11.482 5.491 4.121-1.714 7.958-3.548 11.482-5.491z"/><path d="m220.203 862.968-1.535-3.693c4.041-1.68 7.837-3.495 11.283-5.396l1.932 3.504c-3.574 1.97-7.504 3.849-11.68 5.585zM239.195 850.457c-2.519 1.796-5.283 3.523-8.275 5.173 2.992-1.65 5.756-3.377 8.275-5.173z"/><path d="m231.886 857.381-1.932-3.504.012-.006c2.877-1.587 5.555-3.258 7.96-4.967l.107-.076 2.322 3.256c-2.561 1.827-5.406 3.606-8.457 5.289l-.012.008z"/><path d="M399.65 964.301H254.449V823.769c0-13.126-12.415-25.614-34.959-35.166-23.089-9.783-53.831-15.171-86.562-15.171-5.32 0-13.011.086-19.433.493l-2.127.135V643.932h477.539v215.682H400.96l-1.31 104.687zm-141.201-4h137.25l1.31-104.688h187.898V647.932H115.368v121.88c6.033-.311 12.755-.38 17.56-.38 33.256 0 64.552 5.5 88.123 15.487 24.117 10.219 37.398 24.016 37.398 38.85v136.532zM139.888 876.021zM137.57 878.066l-.064-4c.78-.013 1.559-.026 2.334-.044l.096 3.998c-.786.019-1.576.033-2.366.046zM254.651 832.697z"/><path d="m255.589 835.482-3.584-1.777a25.53 25.53 0 0 0 .792-1.759l3.707 1.504a30.166 30.166 0 0 1-.915 2.032zM255.956 828.43zM257.383 830.971l-3.834-1.143c.163-.547.31-1.138.448-1.804l3.916.811a25.957 25.957 0 0 1-.53 2.136zM197.525 868.384zM188.989 872.46l-.838-3.912a209.384 209.384 0 0 0 8.87-2.1l1.008 3.871c-2.94.766-5.981 1.486-9.04 2.141zM181.768 871.852zM179.575 874.271l-.676-3.943a229.33 229.33 0 0 0 2.51-.443l.719 3.936c-.846.153-1.696.302-2.553.45zM146.869 875.772zM144.75 877.866l-.16-3.996c.73-.029 1.457-.062 2.184-.097l.191 3.996c-.736.036-1.475.068-2.215.097zM178.671 872.397zM172.541 875.375l-.562-3.961.024-.003c2.083-.297 4.214-.628 6.334-.986h.002l.667 3.943c-2.127.361-4.302.7-6.465 1.007zM143.366 875.918zM141.231 877.985l-.111-3.998c.726-.021 1.45-.043 2.174-.069l.145 3.998c-.734.027-1.47.049-2.208.069zM150.519 875.575zM148.198 877.709l-.207-3.994c.805-.042 1.606-.089 2.406-.137l.242 3.992c-.811.05-1.624.097-2.441.139zM184.886 871.26zM182.872 873.681l-.732-3.932c.791-.147 1.578-.298 2.359-.451l.773 3.924c-.794.157-1.595.309-2.4.459zM188.089 870.605zM185.975 873.082l-.783-3.922a217.59 217.59 0 0 0 2.484-.512l.828 3.914a230.3 230.3 0 0 1-2.529.52zM124.681 875.987zM124.625 877.985c-.737-.021-1.475-.043-2.208-.069l.145-3.998c.724.026 1.449.049 2.175.069l-.112 3.998zM171.808 873.457zM169.356 875.807l-.518-3.967c.901-.117 1.798-.238 2.691-.363l.555 3.961c-.904.127-1.814.25-2.728.369zM132.928 876.105zM132.928 878.106c-1.172 0-2.341-.009-3.506-.022l.047-4c1.149.014 2.303.022 3.459.022v4zM253.661 834.857zM252.957 839.877l-3.273-2.299a30.168 30.168 0 0 0 2.195-3.629l3.564 1.813a33.853 33.853 0 0 1-2.475 4.098l-.011.017zM158.177 875.009zM155.094 877.27l-.303-3.988c1.075-.082 2.145-.171 3.21-.265l.352 3.984a242.6 242.6 0 0 1-3.259.269zM251.162 838.952zM251.276 842.099l-3.102-2.527c.466-.571.923-1.171 1.36-1.782l3.254 2.326a38.9 38.9 0 0 1-1.512 1.983zM154.851 875.283zM151.601 877.514l-.256-3.992c1.123-.071 2.242-.148 3.355-.232l.303 3.988a307.8 307.8 0 0 1-3.402.236zM255.464 830.406zM256.64 833.103l-3.727-1.453c.266-.681.473-1.274.634-1.815l3.834 1.145a28.042 28.042 0 0 1-.741 2.123zM136.41 876.083zM132.928 878.106v-4c1.157 0 2.31-.009 3.459-.022l.047 4c-1.165.013-2.333.022-3.506.022z"/><path fill="#FF8630" d="m14.694 838.952-.158-.225.158.225z"/><path d="m13.066 840.114-.16-.228 3.26-2.317.156.221z"/><path fill="#FF8630" d="M11.205 832.697c-.043-.107-.083-.214-.125-.321.042.107.082.214.125.321z"/><path d="m9.348 833.441-.136-.351 3.736-1.428.114.292z"/><path fill="#FF8630" d="M12.195 834.857c-.045-.088-.092-.175-.135-.264.043.088.09.176.135.264z"/><path d="m10.373 835.69-.11-.219 3.593-1.757.12.232-1.782.911z"/><path fill="#FF8630" d="m16.246 840.974-.115-.139.115.139z"/><path d="m14.659 842.193-.084-.1 3.112-2.516-1.498 1.329 1.609-1.193-1.552 1.261z"/><path fill="#FF8630" d="m19.883 844.885-.124-.12.124.12z"/><path d="m18.503 846.332-.079-.076 2.715-2.938.079.076z"/><path fill="#FF8630" d="m10.392 830.406-.002-.006.002.006z"/><path d="m8.604 831.301-.211-.423-.002-.478h2l1.791-.888-1.776.888h1.985-1.985 1.985-1.985z"/><path fill="#FF8630" d="M9.9 828.43c-.024-.116-.051-.232-.073-.348.023.116.049.232.073.348z"/><path d="m7.943 828.841-.08-.38 3.928-.76.066.318z"/><path fill="#FF8630" d="m34.936 855.629.001.001z"/><path d="M34.938 857.63h-.828l-.588-.587 1.416-1.416v2.003zm-.002-2.001.002-1.999-.002 1.999z"/><path fill="#FF8630" d="M9.541 826.156c-.013-.124-.022-.249-.033-.374.01.125.019.25.033.374z"/><path d="m7.553 826.374-.032-.344 3.978-.421.03.33z"/><path fill="#FF8630" d="m26.661 850.457-.051-.036a.795.795 0 0 1 .051.036z"/><path d="m25.508 852.09-.034-.024 2.29-3.28z"/><path fill="#FF8630" d="m21.933 846.753-.015-.013.015.013z"/><path d="m20.669 848.302 1.264-1.549-1.264 1.549zm1.14-1.425 1.358-1.698.18.16-1.538 1.538z"/><path fill="#FF8630" d="m249.725 840.835-.115.139.115-.139z"/><path d="m251.219 842.167-3.16-2.454.092-.113 3.114 2.512z"/><path fill="#FF8630" d="m246.097 844.765-.124.12.124-.12z"/><path d="m247.371 846.317-2.795-2.863.142-.136 2.76 2.894z"/><path fill="#FF8630" d="M256.029 828.081c-.022.116-.049.232-.073.348.024-.115.05-.231.073-.348z"/><path d="m257.909 828.857-3.911-.838.066-.318 3.928.76z"/><path fill="#FF8630" d="M256.349 825.782c-.011.125-.02.249-.033.374.013-.124.022-.249.033-.374z"/><path d="m258.304 826.374-3.977-.435.029-.33 3.985.346z"/><path fill="#FF8630" d="m255.466 830.4-.002.006.002-.006z"/><path d="m257.253 831.301-1.834-.917 1.944.648-1.897-.633 1.953.432-.054.243-.112.227zm-1.789-.895-1.952-.432.057-.208 1.895.64z"/><path fill="#FF8630" d="M254.776 832.376c-.042.107-.082.214-.125.321.043-.107.083-.214.125-.321z"/><path d="m256.502 833.454-3.703-1.513.115-.293 3.725 1.457z"/><path fill="#FF8630" d="m239.246 850.42-.051.036.051-.036z"/><path d="m240.304 852.12-2.219-3.328 2.313 3.262-1.153-1.634 1.162 1.628z"/><path fill="#FF8630" d="m253.797 834.593-.135.264.135-.264z"/><path d="m255.442 835.767-3.562-1.821.128-.248 3.578 1.789z"/><path fill="#FF8630" d="M251.32 838.727c-.053.075-.104.15-.158.225l.158-.225z"/><path d="m252.79 840.114-3.256-2.324.156-.221 3.26 2.317z"/><path fill="#FF8630" d="m243.938 846.74-.015.013.015-.013z"/><path d="m245.198 848.294-1.26-1.554 1.26 1.554zm-.725-.876-1.799-2.227 1.799 2.227z"/><path fill="#FF8630" d="m230.919 855.63.001-.001-.001.001z"/><path d="m87.185 872.397-.566-.098.566.098zM84.088 871.852l-.737-.137.737.137zM80.97 871.26c-.233-.046-.465-.091-.697-.138l.697.138zM94.048 873.457l-.452-.062.452.062zM68.331 868.384l-.179-.047.179.047zM77.764 870.605l-.477-.1.477.1zM107.679 875.009l-.937-.086c.313.029.624.059.937.086zM104.373 874.697l-1.091-.113 1.091.113zM97.691 873.941c-.311-.039-.623-.077-.932-.117l.932.117zM101.052 874.342zM48.978 862.155l-.074-.029.074.029zM46.457 861.136l-.036-.015a.275.275 0 0 0 .036.015zM34.937 855.63l.002.001-.002-.001zM111.005 875.283l-.091-.007.091.007zM114.383 875.518l.101.007v-.001a57.54 57.54 0 0 0-.101-.006zM62.629 866.804l-.302-.089.302.089zM59.649 865.901l-.027-.008.027.008zM65.486 867.619l-.342-.095.342.095zM114.484 875.525c.283.018.569.032.853.05-.284-.017-.57-.033-.853-.051v.001zM219.435 861.122l-.036.015.036-.015zM230.917 855.631l.002-.001zM118.987 875.772c-.409-.019-.818-.038-1.226-.059l1.226.059zM151.473 875.518c-.317.02-.636.037-.954.057.317-.02.637-.037.954-.057zM185.583 871.122zM148.095 875.712c-.407.021-.817.04-1.226.059.409-.019.818-.038 1.226-.059zM182.506 871.715l-.737.137.737-.137zM144.67 875.869zM179.238 872.299l-.566.098.566-.098zM165.867 874.22l-1.064.122c.356-.04.711-.08 1.064-.122zM172.26 873.395l-.452.062.452-.062zM159.113 874.923c-.312.029-.623.059-.937.086.314-.027.625-.057.937-.086zM169.097 873.823c-.31.04-.622.078-.932.117.311-.038.622-.077.932-.117zM154.943 875.276l-.091.007.091-.007zM206.234 865.893l-.027.008.027-.008zM122.49 875.918zM141.175 875.987l-1.287.035 1.287-.035zM125.968 876.021c-.43-.01-.858-.023-1.287-.035.429.013.857.025 1.287.035zM216.952 862.126l-.074.029.074-.029zM162.573 874.584l-1.091.113 1.091-.113zM203.529 866.715l-.302.089.302-.089zM188.57 870.504l-.481.101.481-.101zM137.538 876.065c-.376.006-.751.014-1.128.018.377-.004.752-.012 1.128-.018zM200.712 867.523l-.342.095.342-.095zM129.446 876.083c-.377-.004-.751-.012-1.128-.018.376.006.751.014 1.128.018zM197.704 868.336l-.179.047.179-.047z"/><path fill="#FF8630" d="M170.441 1018.806c16.34 0 29.586-13.246 29.586-29.586 0-16.34-13.246-29.586-29.586-29.586a29.68 29.68 0 0 0-6.202.656c-6.102-16.687-22.12-28.598-40.92-28.598-18.591 0-34.453 11.652-40.704 28.048a29.95 29.95 0 0 0-2.408-.106c-16.34 0-29.586 13.246-29.586 29.586 0 16.34 13.246 29.586 29.586 29.586h90.234z"/><path d="M586.907 752.768V646.522c65.5-47.325 126.364-121.495 153.13-237.658l-90.51-14.481c-25.982 104.934-89.647 178.238-189.771 218.165-88.434 35.264-173.695 31.094-174.546 31.048l.11.006-.138 2.33H113.368v124.153C51.91 774.193 7.407 796.699 7.407 823.769V1080h251.042V962.301h139.226l1.31-104.687h377.382V752.757l-189.46.011zM254.449 1076H11.407V837.57c.033.056.07.111.103.167.056.094.117.188.175.282.384.625.786 1.25 1.221 1.868l.161.229c.485.68.994 1.347 1.508 1.978l.125.149a43.232 43.232 0 0 0 1.748 2c.622.67 1.279 1.341 1.976 2.013l.074.072c.65.624 1.324 1.24 2.057 1.875l.069.062a66.749 66.749 0 0 0 4.876 3.818c2.491 1.778 5.256 3.513 8.222 5.159l.388.387.318.001c3.454 1.881 7.229 3.677 11.263 5.354.815.338 1.643.673 2.556 1.032a161.978 161.978 0 0 0 10.807 3.794c.894.279 1.796.553 2.715.824l.298.088c.84.247 1.686.488 2.547.729l.34.095c.891.246 1.788.488 2.768.744l.107.029c2.942.766 5.983 1.485 9.038 2.14l.482.102c.841.179 1.685.353 2.528.521l.708.141c.795.157 1.596.31 2.398.459l.745.139c.846.154 1.697.304 2.556.451l.568.098c2.161.365 4.336.704 6.461 1.006l.459.063c.904.127 1.814.25 2.73.369l.938.118c.77.098 1.542.19 2.312.281l1.075.123c.746.085 1.496.165 2.334.253l1.015.105c.792.079 1.587.154 2.386.228l.942.086c1.08.096 2.167.187 3.217.265l.133.012c1.128.086 2.263.163 3.401.236l.128-1.996-.022 2.003.856.049c.812.05 1.624.097 2.438.139l1.236.061c.736.035 1.475.067 2.213.097l1.312.05c.733.026 1.471.049 2.209.069l1.294.034c.787.02 1.576.033 2.367.046l1.135.018c2.331.027 4.686.027 7.009 0l1.14-.018c.79-.013 1.58-.026 2.362-.046l1.299-.034c.737-.021 1.474-.043 2.202-.069l1.316-.05a265.6 265.6 0 0 0 2.215-.097l1.233-.061c.816-.042 1.63-.089 2.437-.138l.966-.058a266.956 266.956 0 0 0 6.75-.513l.944-.086c.798-.073 1.594-.148 2.391-.229l1.096-.113c.752-.079 1.501-.159 2.246-.244l1.072-.123c.775-.091 1.548-.184 2.315-.281l.941-.118a276.18 276.18 0 0 0 2.734-.37l.45-.062c2.126-.303 4.301-.641 6.456-1.005l.578-.1a259.52 259.52 0 0 0 2.553-.451l.744-.139c.805-.149 1.605-.302 2.399-.459l.703-.14c.849-.169 1.69-.343 2.535-.521l.479-.101c3.059-.655 6.1-1.375 9.052-2.144l.168-.046c.906-.236 1.804-.479 2.688-.724l.353-.098c.854-.238 1.702-.48 2.548-.729l.299-.088c.91-.27 1.813-.543 2.734-.831a162.157 162.157 0 0 0 10.853-3.814c.839-.33 1.666-.665 2.52-1.02a121.319 121.319 0 0 0 10.016-4.701l.015.024 1.583-.874.065-.035.249-.138.002-.002c.458-.254.901-.514 1.349-.772.239-.138.483-.273.719-.411a89.137 89.137 0 0 0 1.568-.949c.188-.116.383-.229.569-.346a87.075 87.075 0 0 0 1.57-1.013c.155-.102.318-.203.472-.305a73.98 73.98 0 0 0 1.924-1.327l.104-.072a66.959 66.959 0 0 0 4.842-3.797 55.827 55.827 0 0 0 2.122-1.935l.116-.113a47.175 47.175 0 0 0 3.668-3.96l.121-.145a40.303 40.303 0 0 0 1.514-1.984l.167-.237c.439-.625.847-1.258 1.235-1.893.048-.078.098-.156.145-.234.036-.06.076-.12.112-.181V1076zm-.093-250.395-.03.341a20.422 20.422 0 0 1-.262 1.756l-.067.323a22.865 22.865 0 0 1-.399 1.642l-.07.234a23.783 23.783 0 0 1-.613 1.747l-.117.298a25.496 25.496 0 0 1-.789 1.753l-.129.251a30.207 30.207 0 0 1-2.188 3.62l-.155.22a36.695 36.695 0 0 1-1.384 1.811l-.086.104a43.275 43.275 0 0 1-3.348 3.613l-.129.124a51.51 51.51 0 0 1-1.975 1.799 62.76 62.76 0 0 1-4.581 3.588c-.564.402-1.146.802-1.74 1.199-.174.116-.353.232-.529.348a79.403 79.403 0 0 1-3.255 2.034c-.213.126-.425.253-.64.379-.109.064-.223.126-.333.189-13.368-18.457-53.375-31.208-98.609-31.208-6.182 0-12.438.243-18.599.723-37.623 2.93-68.64 14.813-80.008 30.486l-.522-.3a78.746 78.746 0 0 1-1.897-1.146c-.221-.137-.443-.274-.661-.413-.411-.26-.813-.523-1.213-.787-.187-.123-.377-.245-.562-.369a66.853 66.853 0 0 1-4.038-2.924c-.23-.18-.438-.363-.663-.545-.514-.414-1.032-.828-1.515-1.246l-.023-.02a52.512 52.512 0 0 1-1.96-1.787l-1.385 1.443 1.266-1.559a43.354 43.354 0 0 1-3.351-3.613l-.116-.142a35.222 35.222 0 0 1-1.359-1.781l-.149-.213c-.239-.34-.451-.686-.673-1.029a29.345 29.345 0 0 1-1.524-2.602l-.124-.242a25.194 25.194 0 0 1-.789-1.75l-.12-.308a23.093 23.093 0 0 1-.612-1.743l-.023-.077a21.417 21.417 0 0 1-.449-1.808l-.066-.315a21.463 21.463 0 0 1-.262-1.765l-.03-.334a20.667 20.667 0 0 1-.092-1.836c0-24.636 44.368-46.027 103.204-49.76a290.423 290.423 0 0 1 18.316-.577c32.731 0 63.474 5.388 86.562 15.171 22.544 9.552 34.959 22.04 34.959 35.166a20.63 20.63 0 0 1-.094 1.837z"/><circle fill="#FFF" cx="230.917" cy="897.762" r="9.256"/><path fill="#FFF" d="M7.407 897.184a7.407 7.407 0 1 1 0-14.814v14.814z"/><path fill="#FFF" d="M124.454 1006.036h-12.835c-59.69 0-108.253-48.734-108.253-108.638v-7.504a2 2 0 0 1 4 0v7.504c0 57.697 46.768 104.638 104.253 104.638h12.835c57.485 0 104.253-46.94 104.253-104.638a2 2 0 0 1 4 0c0 59.904-48.562 108.638-108.253 108.638z"/></svg>