<svg xmlns="http://www.w3.org/2000/svg" fill="none" viewBox="0 0 363 384"><g clip-path="url(#clip0)"><path fill="#fff" d="M263.22 354.51c8.14 4.41 16.67 7.25 26.06 6.28 6.01-1.09 19-7.57 22.88-24.78 1.6-6.83.21-13.42-.84-19.91-1.47-9.09-4.28-17.95-7.29-26.68-5.08-14.74-9.53-29.6-11.2-45.21a47.98 47.98 0 012.11-19.78c.82-2.62 2.43-4.82 4.4-6.79a124.23 124.23 0 0118.32-15.35 190.72 190.72 0 0032.68-27.78c3.92-3.93 11.77-15.56 11.77-30.65-1.55-17.3-12.65-31.17-28.03-34.53-4.43-.97-8.85-1.87-13.43-1.74-6.52.18-13.03.33-19.55.84-8.11.63-16.27.19-24.44-.57-7.97-.75-15.85-1.69-23.55-3.75-7.58-2.03-13.88-5.85-18.06-12.94-5.99-10.17-11-20.85-16.6-31.22-6.21-11.49-12.24-23.08-19.04-34.23-5.78-9.49-12.28-18.38-23.08-23.07-9.21-4-17.88-3.41-26.51 1.5-8.03 4.57-13.49 11.42-17.78 19.37-7.33 13.58-10.69 28.35-13.15 43.43-1.57 9.62-2.86 19.36-6.36 28.54-6.98 18.3-19.35 30.77-38.88 35.33a451.38 451.38 0 01-33.03 6.32c-8.26 1.28-16.27 3.54-23.79 7.33-17.88 9-22.47 32.73-9.14 47.62a89.3 89.3 0 0016.68 14.75c10.87 7.28 21.27 15.22 31.67 23.16l1.22.93c11.58 8.83 21.12 23.37 23.72 36.24 2.6 12.87-.57 28.81-8.44 41.68-.62.87 0 0-1.73 2.69-54.33 65.04-3.1 78.67 24.25 68.87a92.07 92.07 0 016.84-2.75c18.13-7.1 34.07-17.73 49-30.06a154.84 154.84 0 0128.02-18.72c13.61-6.97 27.14-6.87 40.8-.25a201.92 201.92 0 0118.09 10.04c8.49 5.24 16.62 11.07 25.41 15.84z"/><path fill="#B0C9DB" d="M207.22 63.16c-.09 5.73-4.13 10.95-9.35 12.49-5.65 1.66-12.19-.76-15.02-5.95-2.77-5.08-5.04-10.43-7.75-15.55-3.91-7.38-8.28-14.4-14.57-20.16-3.97-3.64-5.43-8.35-3.59-13.86 1.83-5.49 5.68-8.24 11.15-8.98 4.67-.63 8.39 1.62 11.81 4.44 4.69 3.85 8.19 8.75 11.41 13.77 5.47 8.55 10.7 17.26 14.21 26.86.85 2.37 1.96 4.69 1.7 6.94z"/><path fill="#016CFF" d="M203.95 171.9c-.2-3.97.34-8.07 1.82-12.03a13.7 13.7 0 013.4-5.49c2.92-2.7 6.2-2.81 9.3-.3 1.73 1.4 2.97 3.2 3.82 5.22 3.72 8.83 4.34 17.9 1.48 27.06-1.27 4.06-3.2 8.03-8.24 8.23-5.06.2-7.14-3.72-8.84-7.6a34.06 34.06 0 01-2.74-15.09zM164 185.44c-.2 3.25-.32 6.5-1.46 9.61-1.23 3.37-2.96 6.43-6.85 6.94-3.94.53-6.34-2.18-8.31-5.09-4.11-6.07-5.13-13.02-5.34-20.14a25.7 25.7 0 011.95-11.13c3.06-7.02 9.25-7.85 13.85-1.73 4.77 6.34 5.93 13.83 6.16 21.54z"/><path fill="#B0C9DB" d="M210.05 106.46c-7.24.01-13.57-6.26-13.58-13.48-.01-6.61 6.55-12.31 13.6-12.81 6.21-.44 13.77 6.27 13.52 13.42-.23 6.86-6.45 12.86-13.54 12.87z"/><path fill="#076FFF" d="M182.8 217.95c-3.84-.05-9.74-2.8-14.55-7.95a13.93 13.93 0 01-1.84-2.65c-.51-.91-.16-1.8.56-2.43.74-.65 1.74-.79 2.5-.2 1.14.88 2.12 1.96 3.16 2.95 10.59 10.01 25.26 5.65 29.58-4.86.69-1.68 1.23-4.53 3.97-3.06 2.33 1.25.97 3.5.2 5.3-3.4 7.93-11.3 12.93-23.58 12.9z"/></g><defs><clipPath id="clip0"><path fill="#fff" d="M0 0h362.19v383.25H0z"/></clipPath></defs></svg>