<svg xmlns="http://www.w3.org/2000/svg" xmlns:xlink="http://www.w3.org/1999/xlink" viewBox="0 0 1920 1080" xml:space="preserve"><path fill="#FFF" d="M697.16 1080V940.92c0-103.48 84.18-187.66 187.66-187.66h842.02c103.48 0 187.66 84.18 187.66 187.66V1080h5V940.92c0-106.23-86.43-192.66-192.66-192.66H884.82c-106.24 0-192.66 86.43-192.66 192.66V1080h5z"/><path fill="#FF8630" d="m1305.88 956.66 123.15-143.16V563h-246.5v249.58z"/><path d="m1305.87 960.5-125.84-147v-253h251.5v253.93l-.6.7-125.06 145.37zm-120.84-148.84 120.85 141.16 120.65-140.25V565.5h-241.5v246.16z"/><defs><path id="a" d="M1600.6 339.16c-3.87-.02-7.7.2-11.46.6-34.54-121.57-146.06-210.9-278.78-211.56-132.72-.67-245.14 87.53-280.9 208.75-3.76-.44-7.58-.7-11.45-.72-55.87-.28-101.38 44.78-101.66 100.64-.28 55.87 44.77 101.37 100.64 101.65 8.5.05 16.77-.98 24.68-2.91 44.64 102.6 146.66 174.6 265.76 175.2 119.1.6 221.83-70.37 267.5-172.52a101.38 101.38 0 0 0 24.66 3.16c55.86.28 101.37-44.77 101.65-100.63.29-55.86-44.77-101.38-100.63-101.66z"/></defs><defs><path id="b" d="M1308.9 713.3h-1.48a294.07 294.07 0 0 1-267.2-174.79 104.47 104.47 0 0 1-23.24 2.51c-57.16-.28-103.42-47.01-103.13-104.16.29-56.98 46.73-103.13 103.64-103.13h.53c3.13.02 6.36.19 9.65.51 17.88-59.02 54.88-112 104.37-149.37 51.3-38.73 112.4-59.17 176.8-59.17h1.53c64.96.33 126.42 21.4 177.73 60.96 49.1 37.86 85.58 91.22 102.86 150.42a102.97 102.97 0 0 1 82.8 30.31 102.96 102.96 0 0 1 29.98 73.44 102.97 102.97 0 0 1-30.72 73.14 102.96 102.96 0 0 1-72.9 29.99h-.54c-7.82-.05-15.62-.97-23.22-2.75a294.09 294.09 0 0 1-267.46 172.1zm-265.78-180.62.84 1.93a289.07 289.07 0 0 0 264.94 173.7c113.83 0 217.24-67 263.76-171.04l.86-1.93 2.04.52a99.36 99.36 0 0 0 24.04 3.1c26.33.1 51.18-10 69.9-28.55a98 98 0 0 0 29.24-69.6 97.94 97.94 0 0 0-28.54-69.9 98.06 98.06 0 0 0-80.8-28.65l-2.1.22-.57-2.03c-16.75-58.98-52.86-112.19-101.69-149.82-50.43-38.89-110.84-59.6-174.7-59.93h-1.5c-63.3 0-123.35 20.1-173.78 58.17-49.2 37.14-85.85 89.99-103.2 148.8l-.59 2.01-2.1-.24a100.6 100.6 0 0 0-11.18-.7h-.5c-54.17 0-98.37 43.92-98.64 98.14-.27 54.4 43.76 98.87 98.15 99.15 8.11.03 16.2-.92 24.08-2.85l2.04-.5z"/></defs><use xlink:href="#a" overflow="visible" fill="#FF8630"/><use xlink:href="#b" overflow="visible"/><path fill="#DDF6C5" d="m966.38 410.36 61.7 67.75"/><path d="M1028.08 480.6a2.5 2.5 0 0 1-1.85-.8l-61.7-67.75a2.5 2.5 0 0 1 3.7-3.37l61.7 67.74a2.5 2.5 0 0 1-1.85 4.19z"/><path fill="#DDF6C5" d="m1639.39 413.75-62.38 67.12"/><path d="M1577.01 483.37a2.5 2.5 0 0 1-1.83-4.2l62.38-67.12a2.5 2.5 0 0 1 3.66 3.4l-62.38 67.12c-.49.53-1.16.8-1.83.8z"/><path fill="#DDF6C5" d="m1306.78 437.03-.28 55.96"/><path d="M1306.5 495.49h-.01a2.5 2.5 0 0 1-2.49-2.52l.28-55.96a2.5 2.5 0 0 1 2.5-2.48h.02a2.5 2.5 0 0 1 2.48 2.5L1309 493a2.5 2.5 0 0 1-2.5 2.49zm-105.84-54.71a38.56 38.56 0 1 1-77.11.4 38.56 38.56 0 0 1 77.11-.4z"/><path d="M1102.94 444.72a2.5 2.5 0 0 1-2.07-3.9 95.9 95.9 0 0 1 78.85-42.09h.5c31.4 0 60.83 15.4 78.8 41.27a2.5 2.5 0 1 1-4.11 2.85 90.94 90.94 0 0 0-74.7-39.12h-.46a90.9 90.9 0 0 0-74.74 39.9 2.5 2.5 0 0 1-2.07 1.1zm345.26-3.84a38.56 38.56 0 1 1-77.12.4 38.56 38.56 0 0 1 77.11-.4z"/><path d="M1354.6 443.42a2.5 2.5 0 0 1-2.07-3.9 95.9 95.9 0 0 1 78.86-42.09h.5a95.89 95.89 0 0 1 78.78 41.27 2.5 2.5 0 1 1-4.1 2.85 90.9 90.9 0 0 0-74.69-39.12h-.46a90.9 90.9 0 0 0-74.75 39.9 2.5 2.5 0 0 1-2.07 1.09zm-.49 119.33a47.47 47.47 0 1 1-94.93.49 47.47 47.47 0 0 1 94.93-.49z"/><path fill="#FFF" d="m1471.1 2-83.61 73.58L1310.47 2l-79.17 73.58L1144.76 2v172.5h326.38z"/><circle cx="1122.74" cy="204.32" r="102.78"/><circle cx="1268.71" cy="191.04" r="77.9"/><path d="M1268.71 268.94s89.68 7.73 202.42-94.44h-159.46l-42.96 94.44zm-237.44 70.74s36.32-36.23 70.56-48.38l-48.05-13.8s-20.66 38.86-24.94 61.58l2.43.6z"/><path d="M1587.3 342.48s-83.45-105.02-188.3-116.72l67.54-51.26s102.86 66.3 121.83 166.39l-1.06 1.59z"/><path fill="#FFF" d="M564.4 449.08h-231c-25.54 0-46.32-20.78-46.32-46.32s20.78-46.32 46.32-46.32h230.99a24.44 24.44 0 0 1 24.41 24.4c0 9.61-5.57 17.94-13.65 21.92a24.44 24.44 0 0 1 13.65 21.91 24.44 24.44 0 0 1-24.4 24.41zm-231-87.64c-22.79 0-41.32 18.53-41.32 41.32s18.54 41.32 41.32 41.32h230.99c10.7 0 19.41-8.7 19.41-19.4 0-10.71-8.7-19.42-19.41-19.42v-5c10.7 0 19.41-8.7 19.41-19.41 0-10.7-8.7-19.41-19.41-19.41H333.4zm237.4 492.35H405.94a2.5 2.5 0 1 1 0-5H557.4l-122.51-46.42a2.58 2.58 0 0 1-1.65-2.38v-73.17a2.5 2.5 0 1 1 5 0v71.48l133.46 50.56a2.58 2.58 0 0 1 1.6 2.83 2.58 2.58 0 0 1-2.5 2.1z"/><circle fill="#FFF" cx="422.49" cy="292.57" r="45.55"/><circle transform="rotate(-45 331.39 292.57)" fill="#FFF" cx="331.39" cy="292.57" r="45.55"/><path d="M422.5 247.02c6.43 0 12.55 1.34 18.1 3.75V154.8l-33.02 58.7-29.92-58.7-30.76 58.7-33.62-58.7v95.97a45.55 45.55 0 0 1 63.66 41.8 45.55 45.55 0 0 1 45.55-45.55z"/><path fill="#FFF" d="M564.4 405.26H326.08a2.5 2.5 0 1 1 0-5h238.3a2.5 2.5 0 1 1 0 5z"/><g fill="#FFF"><path d="M224.12 851.29a51.27 51.27 0 0 1-51.27-51.27v2.4c0 28.32-22.95 47.03-51.27 47.03a51.27 51.27 0 0 1-51.26-51.27v-275.5L6.86 707.12c-14.53 42.22-3.2 89.49 29.94 119.41a110.54 110.54 0 0 0 74.52 28.58H411.5l-10.21-3.82H224.12zm94.28-386.26 47.78 98.4 61.28-116.85H333.4a43.82 43.82 0 1 1 0-87.64h230.99c1.85 0 3.64.25 5.35.68l-102.04-66.2-175.86-1.2c-96.55 14.4-135.67 103.67-143.42 124.1a102.05 102.05 0 0 1 74.04 9.8 76.16 76.16 0 0 1 95.94 38.91z"/><path d="M431.54 653.37C403.3 708.53 324 707.14 297.7 651.02l-22.31-46.85v195.82c0 .02.01.04.03.04l70.44 26.7c141.66-109.54 190.22-228.84 196.31-335.4l-38.62 23.72-72 138.32z"/><path d="M365.24 696.44c-.46 0-.93 0-1.4-.02a76.53 76.53 0 0 1-68.4-44.34l-22.55-47.35v-88.88c0-36.35-19.79-69.9-51.65-87.54l-4.7-2.61 5.03-1.92a78.4 78.4 0 0 1 57.25.6 78.36 78.36 0 0 1 41.85 39.6l45.6 93.9 59.67-113.8h185.1c1.66 0 3.06 1.07 3.51 2.65s-.2 3.23-1.6 4.1l-107.5 65.98-71.7 137.71a76.5 76.5 0 0 1-68.5 41.92zM277.9 603.6l22.07 46.34a71.57 71.57 0 0 0 65.28 41.5 71.53 71.53 0 0 0 64.08-39.21l72.33-138.95 104.58-64.2H428.97l-62.87 119.9-49.95-102.86c-15.5-33.08-53.24-49.65-87.72-39.38a105.14 105.14 0 0 1 49.46 89.11v87.75z"/></g><path fill="#FFF" d="M172.85 811.02a2.5 2.5 0 0 1-2.5-2.5V513.46a2.5 2.5 0 1 1 5 0v295.06a2.5 2.5 0 0 1-2.5 2.5z"/><path d="M466.29 296.84h-.01l-178.25-.35a2.5 2.5 0 0 1 0-5h.01l178.25.35a2.5 2.5 0 0 1 0 5z"/><path d="M375.07 296.57a32.17 32.17 0 0 1-64.33-1.27m155.43 1.27a32.17 32.17 0 0 1-64.33-1.27"/><path fill="#FFF" d="M410.44 853.79H224.12a53.86 53.86 0 0 1-50.94-36.53c-6.36 20.76-26.12 34.69-51.6 34.69a53.83 53.83 0 0 1-53.77-53.77v-281c0-58.24 46.79-105.96 104.29-106.36h.76a104.3 104.3 0 0 1 74 30.5 104.32 104.32 0 0 1 31.03 74.54V798.3l133.46 50.56a2.58 2.58 0 0 1 1.6 2.83 2.58 2.58 0 0 1-2.5 2.1zm-237.59-56.27a2.5 2.5 0 0 1 2.5 2.5 48.82 48.82 0 0 0 48.77 48.77h172.92l-122.5-46.42a2.58 2.58 0 0 1-1.65-2.38V515.85a99.35 99.35 0 0 0-29.55-70.98 99.38 99.38 0 0 0-71.2-29.05c-54.77.38-99.33 45.86-99.33 101.37v280.99a48.82 48.82 0 0 0 48.77 48.77c28.26 0 48.77-18.73 48.77-44.52v-2.4a2.5 2.5 0 0 1 2.5-2.5z"/><path fill="#FF8630" d="M64.67 851.54h514.37a58.79 58.79 0 1 1 0 117.58H64.67a58.79 58.79 0 0 1 0-117.58z"/><path d="M579.04 971.62H64.67a61.36 61.36 0 0 1-61.29-61.3 61.36 61.36 0 0 1 61.3-61.28h514.36c33.8 0 61.29 27.49 61.29 61.29s-27.5 61.28-61.3 61.28zM64.67 854.03c-31.03 0-56.29 25.25-56.29 56.28s25.25 56.3 56.3 56.3h514.36c31.04 0 56.29-25.26 56.29-56.3s-25.25-56.28-56.3-56.28H64.68z"/><path fill="#FF8630" d="M55.83 913.6a46.8 46.8 0 0 0-42.17 26.46 54.63 54.63 0 0 0 48.29 29.05h39.85a46.8 46.8 0 0 0-45.98-55.52z"/><path d="M103.87 971.62H61.95a57.07 57.07 0 0 1-50.5-30.39l-.59-1.11.55-1.15a49.6 49.6 0 0 1 44.42-27.88 49.36 49.36 0 0 1 48.43 58.49l-.39 2.03zm-87.39-31.6a52.07 52.07 0 0 0 45.47 26.6h37.73a44.35 44.35 0 0 0-43.85-50.52A44.59 44.59 0 0 0 16.49 940z"/><path fill="#FF8630" d="M64.67 851.54h514.37a58.79 58.79 0 1 1 0 117.58H64.67a58.79 58.79 0 0 1 0-117.58z"/><path d="M579.04 971.62H64.67a61.36 61.36 0 0 1-61.29-61.3 61.36 61.36 0 0 1 61.3-61.28h514.36c33.8 0 61.29 27.49 61.29 61.29s-27.5 61.28-61.3 61.28zM64.67 854.03c-31.03 0-56.29 25.25-56.29 56.28s25.25 56.3 56.3 56.3h514.36c31.04 0 56.29-25.26 56.29-56.3s-25.25-56.28-56.3-56.28H64.68z"/><path fill="#FF8630" d="M55.83 913.6a46.8 46.8 0 0 0-42.17 26.46 54.63 54.63 0 0 0 48.29 29.05h39.85a46.8 46.8 0 0 0-45.98-55.52z"/><path d="M103.87 971.62H61.95a57.07 57.07 0 0 1-50.5-30.39l-.59-1.11.55-1.15a49.6 49.6 0 0 1 44.42-27.88 49.36 49.36 0 0 1 48.43 58.49l-.39 2.03zm-87.39-31.6a52.07 52.07 0 0 0 45.47 26.6h37.73a44.35 44.35 0 0 0-43.85-50.52A44.59 44.59 0 0 0 16.49 940z"/><path fill="#FF8630" d="m689.18 1080-50.89-169.67a58.79 58.79 0 0 0-58.79-58.8H113.87a58.79 58.79 0 1 0 0 117.58h285.52a8.4 8.4 0 0 1 8.01 5.92L442.53 1080h246.65z"/><path fill="none" d="M635.79 910.33a56.35 56.35 0 0 0-56.29-56.3H113.87c-31.04 0-56.3 25.26-56.3 56.3s25.26 56.29 56.3 56.29h285.51c4.8 0 8.99 3.08 10.4 7.67l32.7 105.71h241.5l-48.2-169.33v-.34z"/><path d="M409.79 974.29a10.84 10.84 0 0 0-10.4-7.67H113.85c-31.03 0-56.29-25.26-56.29-56.3s25.26-56.28 56.3-56.28H579.5a56.35 56.35 0 0 1 56.29 56.29v.34L683.98 1080h5.2l-48.4-170.03a61.36 61.36 0 0 0-61.28-60.93H113.87a61.36 61.36 0 0 0-61.3 61.29c0 33.8 27.5 61.28 61.3 61.28h285.51c2.6 0 4.86 1.67 5.63 4.15L437.25 1080h5.24l-32.7-105.71z"/><path fill="#FF8630" d="M103.6 913.6a46.8 46.8 0 0 1 46.8 46.8"/><path d="M152.9 960.4h-5a44.35 44.35 0 0 0-44.3-44.3v-5a49.36 49.36 0 0 1 49.3 49.3z"/><path fill="#FF8630" d="M106.43 913.6a46.8 46.8 0 0 0-42.16 26.46 54.63 54.63 0 0 0 48.28 29.05h39.86a46.8 46.8 0 0 0-45.98-55.52z"/><path d="M154.48 971.62h-41.93a57.07 57.07 0 0 1-50.49-30.39l-.6-1.11.56-1.15a49.6 49.6 0 0 1 44.41-27.88 49.36 49.36 0 0 1 48.43 58.49l-.38 2.03zm-87.39-31.6a52.07 52.07 0 0 0 45.46 26.6h37.74a44.35 44.35 0 0 0-43.86-50.52A44.6 44.6 0 0 0 67.1 940z"/><path fill="#FF8630" d="M275.05 969.12a54.64 54.64 0 0 1-54.65-54.65 62.93 62.93 0 0 1 62.94-62.93h295.7"/><path d="M275.05 971.62a57.21 57.21 0 0 1-57.15-57.15 65.5 65.5 0 0 1 65.44-65.43h295.7v5h-295.7a60.5 60.5 0 0 0-60.43 60.43 52.2 52.2 0 0 0 52.14 52.15v5z"/><path fill="#FF8630" d="M268.93 913.6a46.8 46.8 0 0 0-42.16 26.46 54.63 54.63 0 0 0 48.28 29.05h39.85a46.8 46.8 0 0 0-45.98-55.52z"/><path d="M316.98 971.62h-41.93a57.07 57.07 0 0 1-50.5-30.39l-.58-1.11.55-1.15a49.6 49.6 0 0 1 44.41-27.88 49.36 49.36 0 0 1 48.43 58.49l-.38 2.03zm-87.4-31.6a52.07 52.07 0 0 0 45.47 26.6h37.73a44.35 44.35 0 0 0-43.85-50.52 44.6 44.6 0 0 0-39.34 23.9zm263.72 31.6H367.95a2.5 2.5 0 1 1 0-5H493.3a2.5 2.5 0 1 1 0 5z"/></svg>