<svg xmlns="http://www.w3.org/2000/svg" xmlns:xlink="http://www.w3.org/1999/xlink" viewBox="0 0 1080 1080" xml:space="preserve"><path fill="#FFF" d="M966.31 719.43H470.12a2 2 0 0 1 0-3.99h496.19a2 2 0 0 1 0 4z"/><path fill="#FF8630" d="m724.8 851.35 109.7-133.96V500.7H614.93v215.87z"/><path d="M724.8 854.5 612.93 717.29V498.7H836.5v219.4l-.45.55L724.8 854.51zM616.93 715.87 724.8 848.2l107.7-131.52V502.7H616.93v213.16z"/><defs><path id="a" d="M987.33 301.32c-3.46-.02-6.86.18-10.22.54-30.76-108.29-130.1-187.85-248.32-188.45-118.21-.6-218.35 77.97-250.2 185.95a90.1 90.1 0 1 0 10.87 176.95c39.77 91.4 130.64 155.51 236.72 156.05 106.08.53 197.6-62.67 238.28-153.67a90.1 90.1 0 0 0 112.5-86.82 90.1 90.1 0 0 0-89.63-90.55z"/></defs><defs><path id="b" d="M727.5 634.35h-1.33A261.71 261.71 0 0 1 488.3 478.63a91.6 91.6 0 0 1-20.83 2.27c-50.78-.26-91.89-41.78-91.63-92.56.25-50.78 41.8-91.91 92.55-91.63 2.84.02 5.78.18 8.76.48 15.9-52.6 48.85-99.82 92.95-133.11 45.65-34.47 100.03-52.67 157.34-52.67h1.36c57.81.3 112.5 19.06 158.17 54.26 43.76 33.73 76.24 81.28 91.6 134.04a91.49 91.49 0 0 1 73.75 26.92 91.49 91.49 0 0 1 26.64 65.25 91.49 91.49 0 0 1-27.3 64.98 91.49 91.49 0 0 1-64.77 26.65h-.48c-7-.04-14-.87-20.81-2.48a261.72 261.72 0 0 1-238.1 153.32zM490.62 473.96l.67 1.55a257.72 257.72 0 0 0 236.2 154.85 257.7 257.7 0 0 0 235.15-152.48l.69-1.54 1.63.42c7 1.8 14.23 2.72 21.47 2.76h.46a87.5 87.5 0 0 0 61.97-25.5 87.52 87.52 0 0 0 26.11-62.16 87.52 87.52 0 0 0-25.49-62.42 87.52 87.52 0 0 0-62.16-26.12 88.9 88.9 0 0 0-10 .53l-1.67.18-.46-1.62c-14.93-52.58-47.13-100.02-90.66-133.58-44.96-34.66-98.82-53.14-155.75-53.42h-1.34c-56.43 0-109.97 17.91-154.93 51.85-43.87 33.12-76.54 80.23-92 132.66l-.48 1.61-1.67-.2a90.2 90.2 0 0 0-9.99-.62h-.44c-48.38 0-87.86 39.22-88.1 87.65-.24 48.58 39.08 88.3 87.66 88.54 7.25.06 14.46-.81 21.5-2.54l1.63-.4z"/></defs><use xlink:href="#a" overflow="visible" fill="#FF8630"/><use xlink:href="#b" overflow="visible"/><path fill="#DDF6C5" d="m422.4 364.75 54.96 60.34"/><path d="M477.36 427.08c-.55 0-1.09-.22-1.48-.65l-54.96-60.34a2 2 0 1 1 2.95-2.69l54.96 60.34a2 2 0 0 1-1.47 3.34z"/><path fill="#DDF6C5" d="m1021.87 367.76-55.56 59.79"/><path d="M966.31 429.54a2 2 0 0 1-1.46-3.36l55.56-59.78a2 2 0 1 1 2.92 2.72l-55.56 59.78c-.39.43-.92.64-1.46.64z"/><path fill="#DDF6C5" d="m725.61 388.5-.25 49.84"/><path d="M725.36 440.34h-.01a2 2 0 0 1-1.99-2l.25-49.85a2 2 0 0 1 2-2 2 2 0 0 1 2 2.01l-.26 49.85a2 2 0 0 1-2 1.99zm-83.72-48.74a34.34 34.34 0 1 1-68.7.35 34.34 34.34 0 0 1 68.7-.35z"/><path d="M544.03 395.12a2 2 0 0 1-1.65-3.12 85.19 85.19 0 0 1 70.05-37.38h.44a85.22 85.22 0 0 1 70 36.65 2 2 0 1 1-3.28 2.28 81.2 81.2 0 0 0-67.14-34.94 81.2 81.2 0 0 0-66.76 35.64 2 2 0 0 1-1.66.87zm313.92-3.19a34.35 34.35 0 1 1-68.7.36 34.35 34.35 0 0 1 68.7-.36z"/><path d="M768.2 393.96a2 2 0 0 1-1.65-3.12 85.2 85.2 0 0 1 70.05-37.38h.44a85.18 85.18 0 0 1 70 36.66 2 2 0 0 1-3.29 2.27 81.2 81.2 0 0 0-66.71-34.94h-.42a81.2 81.2 0 0 0-66.77 35.63 2 2 0 0 1-1.65.88zm-.43 106.52a42.28 42.28 0 1 1-84.56.44 42.28 42.28 0 0 1 84.56-.44z"/><path fill="#FFF" d="m873.19 1-75.7 65.55L728.9 1l-70.53 65.55L581.29 1v153.66h291.9z"/><circle cx="561.68" cy="181.22" r="91.55"/><circle cx="691.7" cy="169.38" r="69.39"/><path d="M691.7 238.77s79.46 6.89 179.88-84.11H729.96l-38.26 84.11z"/><path d="M975.57 303.92c-2.8-3.46-76.23-93.39-167.82-103.6l60.16-45.66s91.62 58.86 109.2 147.2c.33 1.65-1.63.52-1.48 2.02 0 .04-.04.07-.06.04zm-495.54-2.38s32.52-32.03 63.02-42.85l-42.8-12.3s-22 38.7-22.05 53.84c0 1.09 1.6.46 1.83 1.3z"/><path fill="#FFF" d="M377.78 633.5h-130.9a26.86 26.86 0 0 1-26.83-26.84 26.86 26.86 0 0 1 26.83-26.83h130.9a14.42 14.42 0 0 1 7.31 26.83 14.42 14.42 0 0 1-7.3 26.84zm-130.9-49.67a22.87 22.87 0 0 0-22.84 22.83 22.87 22.87 0 0 0 22.84 22.84h130.9a10.43 10.43 0 0 0 0-20.84v-4a10.43 10.43 0 0 0 0-20.83h-130.9zM381.4 862.84H288a2 2 0 0 1 0-3.99h82.65l-66.47-25.18a2.04 2.04 0 0 1-1.3-1.9v-41.46a2 2 0 0 1 3.99 0v40.1l75.25 28.52a2.04 2.04 0 0 1 1.27 2.27 2.04 2.04 0 0 1-1.98 1.64z"/><circle fill="#FFF" cx="297.37" cy="544.22" r="25.81"/><circle transform="rotate(-45 245.74 544.23)" fill="#FFF" cx="245.74" cy="544.22" r="25.81"/><path d="M297.37 518.4c3.65 0 7.11.77 10.26 2.13v-54.38l-18.71 33.27-16.96-33.27-17.43 33.27-19.05-33.27v54.38a25.81 25.81 0 0 1 36.08 23.69 25.81 25.81 0 0 1 25.8-25.81z"/><path fill="#FFF" d="M377.78 608.66H242.74a2 2 0 0 1 0-4h135.04a2 2 0 0 1 0 4z"/><g fill="#FFF"><path d="M184.95 860.85a29.06 29.06 0 0 1-29.05-29.06v1.37c0 16.04-13.01 26.64-29.06 26.64-16.04 0-29.05-13-29.05-29.05V674.62L61.83 779.15c-8.24 23.92-1.81 50.7 16.97 67.67a62.64 62.64 0 0 0 42.23 16.2h170.11l-5.78-2.17h-100.4zm53.43-218.9 27.08 55.76 34.72-66.21h-53.3a24.83 24.83 0 1 1 0-49.67h130.9c1.05 0 2.06.14 3.04.39l-57.83-37.51-99.66-.69c-54.72 8.16-76.89 58.75-81.28 70.33a57.85 57.85 0 0 1 41.96 5.55 43.16 43.16 0 0 1 54.37 22.05z"/><path d="M302.5 748.68c-16 31.27-60.95 30.48-75.85-1.33L214 720.8v110.98l.02.02 39.92 15.13c80.28-62.08 107.8-129.69 111.25-190.07l-21.88 13.44-40.81 78.38z"/><path d="M264.93 773.67h-.8a43.95 43.95 0 0 1-39.29-25.47l-12.83-26.95v-50.5c0-20.39-11.1-39.2-28.97-49.1l-3.77-2.08 4.03-1.53a45.33 45.33 0 0 1 56.89 23.07l25.33 52.18 33.45-63.79h105.25c1.2 0 2.22.78 2.54 1.93a2.62 2.62 0 0 1-1.16 2.97l-60.78 37.31-40.55 77.9a43.93 43.93 0 0 1-39.34 24.06zM216 720.35l12.45 26.14a39.98 39.98 0 0 0 36.47 23.19 39.96 39.96 0 0 0 35.8-21.9l41.07-78.9.47-.28 57.18-35.1H301.4l-36 68.64-28.8-59.31a41.37 41.37 0 0 0-47.8-22.37 60.16 60.16 0 0 1 27.21 50.3v49.6z"/></g><path fill="#FFF" d="M155.9 838.6a2 2 0 0 1-2-1.99v-167.2a2 2 0 0 1 4 0v167.2a2 2 0 0 1-2 2z"/><path d="m322.19 547.22-101.02-.2a2 2 0 0 1 0-4l101.02.2a2 2 0 0 1 0 4z"/><path d="M270.5 546.49a18.23 18.23 0 0 1-36.46-.72m88.08.72a18.23 18.23 0 0 1-36.46-.72"/><path fill="#FFF" d="M290.54 862.84H184.95a31.1 31.1 0 0 1-28.84-19.54c-4.15 11.14-15.2 18.5-29.27 18.5a31.09 31.09 0 0 1-31.05-31.05V671.5c0-33.33 26.77-60.63 59.68-60.86h.43c15.98 0 31 6.2 42.35 17.46A59.69 59.69 0 0 1 216 670.76v159.66l75.26 28.51h.02c.9.36 1.43 1.33 1.25 2.27a2.04 2.04 0 0 1-1.99 1.64zM155.9 829.8a2 2 0 0 1 2 2 27.09 27.09 0 0 0 27.05 27.05h94.83l-66.47-25.18a2.04 2.04 0 0 1-1.3-1.9v-161c0-15.07-5.89-29.2-16.58-39.82a55.73 55.73 0 0 0-39.53-16.3h-.4c-30.73.22-55.72 25.73-55.72 56.87v159.24a27.09 27.09 0 0 0 27.06 27.06c15.68 0 27.06-10.37 27.06-24.65v-1.37c0-1.1.9-2 2-2z"/><path fill="#FF8630" d="M50.15 860.12H471.2a48.12 48.12 0 0 1 0 96.24H50.15a48.12 48.12 0 1 1 0-96.24z"/><path d="M471.19 958.36H50.15A50.18 50.18 0 0 1 .03 908.24a50.18 50.18 0 0 1 50.12-50.12H471.2a50.17 50.17 0 0 1 50.12 50.12 50.18 50.18 0 0 1-50.12 50.12zM50.15 862.12a46.18 46.18 0 0 0-46.12 46.12 46.18 46.18 0 0 0 46.12 46.13H471.2a46.18 46.18 0 0 0 46.13-46.13 46.18 46.18 0 0 0-46.13-46.12H50.15z"/><path fill="#FF8630" d="M42.91 910.92A38.31 38.31 0 0 0 8.4 932.58a44.72 44.72 0 0 0 39.52 23.78h32.62a38.3 38.3 0 0 0-37.63-45.45z"/><path d="M82.2 958.36H47.92a46.66 46.66 0 0 1-41.29-24.84l-.47-.9.44-.9a40.56 40.56 0 0 1 36.31-22.8 40.35 40.35 0 0 1 39.6 47.81l-.31 1.63zm-71.55-25.82a42.67 42.67 0 0 0 37.27 21.83h30.93a36.35 36.35 0 0 0-35.94-41.46 36.55 36.55 0 0 0-32.26 19.63z"/><path fill="#FF8630" d="M50.15 860.12H471.2a48.12 48.12 0 0 1 0 96.24H50.15a48.12 48.12 0 1 1 0-96.24z"/><path d="M471.19 958.36H50.15A50.18 50.18 0 0 1 .03 908.24a50.18 50.18 0 0 1 50.12-50.12H471.2a50.17 50.17 0 0 1 50.12 50.12 50.18 50.18 0 0 1-50.12 50.12zM50.15 862.12a46.18 46.18 0 0 0-46.12 46.12 46.18 46.18 0 0 0 46.12 46.13H471.2a46.18 46.18 0 0 0 46.13-46.13 46.18 46.18 0 0 0-46.13-46.12H50.15z"/><path fill="#FF8630" d="M42.91 910.92A38.31 38.31 0 0 0 8.4 932.58a44.72 44.72 0 0 0 39.52 23.78h32.62a38.3 38.3 0 0 0-37.63-45.45z"/><path d="M82.2 958.36H47.92a46.66 46.66 0 0 1-41.29-24.84l-.47-.9.44-.9a40.56 40.56 0 0 1 36.31-22.8 40.35 40.35 0 0 1 39.6 47.81l-.31 1.63zm-71.55-25.82a42.67 42.67 0 0 0 37.27 21.83h30.93a36.35 36.35 0 0 0-35.94-41.46 36.55 36.55 0 0 0-32.26 19.63z"/><path fill="#FF8630" d="m570.07 1080-50.38-171.76a48.12 48.12 0 0 0-48.12-48.12H90.42a48.12 48.12 0 0 0 0 96.24h233.71a6.87 6.87 0 0 1 6.56 4.84l37.49 118.8"/><path d="M370.16 1079.83a2 2 0 0 0-.08-.43L332.6 960.61a8.82 8.82 0 0 0-8.47-6.24H90.42a46.18 46.18 0 0 1-46.13-46.13 46.18 46.18 0 0 1 46.13-46.12h381.15a46.18 46.18 0 0 1 46.12 46.12c0 .2.03.38.08.56l50.17 171.03h4.12a2.04 2.04 0 0 0-.07-.39l-50.3-171.49a50.17 50.17 0 0 0-50.12-49.83H90.42c-27.64 0-50.12 22.49-50.12 50.12s22.48 50.12 50.12 50.12h233.71a4.85 4.85 0 0 1 4.66 3.44l37.24 118.03h4.13z"/><path fill="#FF8630" d="M82.02 910.92a38.3 38.3 0 0 1 38.3 38.3"/><path d="M122.32 949.22h-4a36.35 36.35 0 0 0-36.3-36.3v-4a40.35 40.35 0 0 1 40.3 40.3z"/><path fill="#FF8630" d="M84.33 910.92a38.31 38.31 0 0 0-34.5 21.66 44.72 44.72 0 0 0 39.52 23.78h32.62a38.3 38.3 0 0 0-37.63-45.45z"/><path d="M123.62 958.36H89.34a46.66 46.66 0 0 1-41.28-24.84l-.48-.9.44-.9a40.56 40.56 0 0 1 36.31-22.8 40.35 40.35 0 0 1 39.6 47.81l-.3 1.63zm-71.55-25.82a42.67 42.67 0 0 0 37.28 21.83h30.93a36.35 36.35 0 0 0-35.94-41.46 36.55 36.55 0 0 0-32.27 19.63z"/><path fill="#FF8630" d="M222.36 956.36a44.73 44.73 0 0 1-44.73-44.73 51.51 51.51 0 0 1 51.51-51.51H471.2"/><path d="M222.36 958.36a46.78 46.78 0 0 1-46.73-46.73c0-29.5 24-53.5 53.51-53.5H471.2v3.99H229.14a49.57 49.57 0 0 0-49.52 49.52 42.78 42.78 0 0 0 42.74 42.73v3.99z"/><path fill="#FF8630" d="M217.35 910.92a38.31 38.31 0 0 0-34.51 21.66 44.72 44.72 0 0 0 39.52 23.78h32.62a38.3 38.3 0 0 0-37.63-45.45z"/><path d="M256.64 958.36h-34.28a46.66 46.66 0 0 1-41.29-24.84l-.47-.9.44-.9a40.56 40.56 0 0 1 36.3-22.8 40.35 40.35 0 0 1 39.6 47.81l-.3 1.63zm-71.55-25.82a42.67 42.67 0 0 0 37.27 21.83h30.93a36.35 36.35 0 0 0-35.94-41.46 36.55 36.55 0 0 0-32.26 19.63zM401 958.36H298.41a2 2 0 0 1 0-4h102.6a2 2 0 0 1 0 4z"/></svg>