<svg xmlns="http://www.w3.org/2000/svg" viewBox="0 0 1288 833"><path fill="#f68635" d="M984.53 82.75h-932a50 50 0 0 0-50 50v16h1032v-16a50 50 0 0 0-50-50Z"/><path d="M1036.53 150.75H.53v-18c0-28.68 23.33-52 52-52h932c28.67 0 52 23.32 52 52Zm-1032-4h1028v-14c0-26.47-21.53-48-48-48h-932c-26.47 0-48 21.53-48 48Z"/><path fill="#f68635" d="M804.55 831.5h-80.5v-84l68.5-.5Zm-80.4 0v-87"/><path d="M722.14 744.5h4v87h-4ZM.54 146.5v512a50 50 0 0 0 50 50h648.01l.31-.24a88.92 88.92 0 0 1-32.3-53.57v11.81h-316v-30H665.1c.2-9.12 1.8-18.16 4.75-26.8 14.73-44.8 14.29-46.98 10.63-87.72a75.65 75.65 0 0 1 17.23-55.34 76.5 76.5 0 0 1 11.62-11.28 75.7 75.7 0 0 1 48.22-16.17 75.69 75.69 0 0 1 47.82 18.05l227.16-7.74v-303H.54Zm149.01 194h-128v-14h128Zm141 0h-94v-14h94Zm62-14h186.8v14h-186.8Zm268 222h-270v-30h270Zm66-114h-336v-30h336Z"/><path fill="#f68635" d="M169.1 305.6h4v395.98h-4Zm144.01 0h4v395.98h-4Z"/><path fill="#fff" d="M3.57 361.1h1024.47v4H3.57Zm0 114.99h684.57v4H3.57Zm0 115h669.57v4H3.57Zm1.48-288.5h671.5v4H5.05ZM62.66 115.6a16.5 16.5 0 1 1-33 0 16.5 16.5 0 0 1 33 0Z"/><path d="M109.16 115.6a16.5 16.5 0 1 1-33 0 16.5 16.5 0 0 1 33 0Z"/><path fill="#fff" d="M155.66 115.6a16.5 16.5 0 1 1-33 0 16.5 16.5 0 0 1 33 0Z"/><path fill="#f68635" d="m256.5 260.8-55.2-32.5v-7.89l55.18-34.25 8.56 13.52-39.83 24.08 39.84 23.53ZM205.3 226l49.9 29.38 4.27-6.74-42.06-24.85 42.07-25.42-4.26-6.73-49.91 31V226Zm99.82 37.91c-8.95 0-15.83-2.58-20.44-7.69-4.56-5.04-6.87-13-6.87-23.67v-14.09h-11.14V202.1h11.14v-12.34l18.63-5.3v17.64h29.47v16.37h-29.47v14.1c0 5.26.94 9.04 2.79 11.25 1.79 2.13 4.27 3.17 7.58 3.17a17.47 17.47 0 0 0 8.96-2.33 23.43 23.43 0 0 0 3.32-2.28l.18-.14 2.8-2.33 1.7-1.42 8.83 13.23-.98 1.15a23.77 23.77 0 0 1-5.22 4.49 42.46 42.46 0 0 1-13.76 5.73c-2.47.55-4.99.83-7.52.83Zm-34.45-49.45h11.14v18.09c0 9.64 1.96 16.7 5.84 21 3.82 4.22 9.7 6.36 17.47 6.36 2.17 0 4.4-.25 6.66-.74a37.37 37.37 0 0 0 12.45-5.18c1.2-.76 2.3-1.65 3.33-2.63l-4.64-6.96-1.1.9-.18.15a27.3 27.3 0 0 1-3.88 2.68 21.45 21.45 0 0 1-10.95 2.85c-4.5 0-8.08-1.55-10.64-4.6-2.52-2.98-3.74-7.5-3.74-13.83v-18.09h29.48v-8.37h-29.48v-16.34l-10.62 3.02v13.32h-11.14Zm88.12 48.78c-6.09 0-11.02-1.7-14.66-5.02-3.7-3.38-5.57-7.9-5.57-13.4 0-3.46.65-6.5 1.94-9.06a16.6 16.6 0 0 1 5.71-6.4 25.97 25.97 0 0 1 8.6-3.54 48.38 48.38 0 0 1 15.24-.88c1 .1 2.16.2 3.5.3V223c0-2.2-.55-3.7-1.67-4.54-1.27-.96-3.3-1.45-6.05-1.45-3.57 0-6.82.46-9.67 1.37-2.95.94-5.47 1.9-7.47 2.83l-2.09.98-4.64-15.37 1.6-.72c3.1-1.4 6.71-2.6 10.75-3.6a60.54 60.54 0 0 1 14.49-1.53c4.1 0 7.66.51 10.6 1.52a18.7 18.7 0 0 1 7.42 4.48c1.9 1.95 3.3 4.3 4.14 7 .8 2.58 1.21 5.5 1.21 8.69 0 3.86-.13 7.22-.4 9.98a73.28 73.28 0 0 0-.38 7c0 1.52.07 3.23.21 5.08l.16 1.25h7.5v16.38h-22.53l-1.08-5.59a23.54 23.54 0 0 1-4.64 3.66c-3.06 1.88-7.18 2.83-12.22 2.83Zm6.8-34.54c-3.62 0-6.95.34-9.88 1.02-2.85.66-5.3 1.66-7.28 2.98a12.45 12.45 0 0 0-4.35 4.86c-1 2-1.52 4.44-1.52 7.25 0 4.41 1.4 7.83 4.27 10.45 2.92 2.68 6.84 3.98 11.96 3.98 4.3 0 7.7-.75 10.13-2.24a17.52 17.52 0 0 0 5.74-5.39l.59-.92h3.3l1.48 7.65h15.23v-8.38h-7.16l-.15-1.84c-.07-.97-.18-1.95-.32-2.91l-.01-.13a71.1 71.1 0 0 1-.23-5.44c0-2.17.13-4.66.4-7.4a102 102 0 0 0 .38-9.59c0-2.78-.34-5.3-1.03-7.5a13.29 13.29 0 0 0-3.18-5.39 14.77 14.77 0 0 0-5.85-3.5 29.15 29.15 0 0 0-9.31-1.3c-5.21 0-9.76.47-13.53 1.4a63.34 63.34 0 0 0-8.45 2.69l2.3 7.6a78.8 78.8 0 0 1 5.83-2.1 35.88 35.88 0 0 1 10.88-1.55c3.68 0 6.45.74 8.47 2.26 2.16 1.63 3.25 4.23 3.25 7.73v2.14c0 .87-.09 1.76-.26 2.63l-.34 1.74-1.76-.13c-1.85-.12-3.7-.27-5.54-.45-1.35-.14-2.7-.21-4.05-.22Zm-2.06 22.5c-3.38 0-5.81-.75-7.44-2.3-1.63-1.54-2.45-3.68-2.45-6.34 0-1.7.46-3.2 1.39-4.45a9.45 9.45 0 0 1 3.37-2.79 16.04 16.04 0 0 1 4.32-1.42c3.3-.61 6.71-.5 9.63-.13 1.5.2 2.68.37 3.48.53l1.6.32v8.9l-.24.45a15.23 15.23 0 0 1-4.46 4.87c-2.15 1.59-5.16 2.36-9.2 2.36Zm3.79-13.72c-1.28 0-2.58.12-3.87.36-1.22.22-2.3.58-3.24 1.05a5.4 5.4 0 0 0-1.97 1.6 3.4 3.4 0 0 0-.6 2.07c0 1.54.4 2.67 1.2 3.45.83.78 2.45 1.2 4.7 1.2 3.1 0 5.4-.54 6.82-1.59 1.36-1 2.4-2.06 3.08-3.15v-4.51c-.47-.07-1-.15-1.6-.22-1.5-.18-3.01-.27-4.52-.26Zm65.5 26.2c-6.05 0-11.21-.7-15.34-2.12-4.12-1.42-7.25-2.8-9.57-4.25l-.95-.58v-60.77h-8.66V179.6h27.28v25a20.6 20.6 0 0 1 4.08-2.14c2.88-1.14 6.44-1.71 10.58-1.71 7.95 0 14.44 2.55 19.27 7.59 4.81 5.01 7.25 12.56 7.25 22.42 0 5.25-.8 9.98-2.38 14.06a28.16 28.16 0 0 1-6.85 10.4 29.32 29.32 0 0 1-10.74 6.34 43.09 43.09 0 0 1-13.98 2.14Zm-21.86-9.21a50.13 50.13 0 0 0 7.82 3.3c3.7 1.27 8.43 1.92 14.03 1.92 4.7 0 8.98-.65 12.69-1.92a25.34 25.34 0 0 0 9.28-5.47 24.22 24.22 0 0 0 5.87-8.94 34.86 34.86 0 0 0 2.11-12.6c0-8.8-2.06-15.42-6.13-19.66-4.11-4.28-9.47-6.36-16.4-6.36-3.62 0-6.69.48-9.1 1.43a14.2 14.2 0 0 0-5.59 3.74l-.6.68h-3.36v-27H402.3v8.37h8.66v62.5Zm24.33-3.16c-2.58 0-5.04-.32-7.3-.97a30.98 30.98 0 0 1-5.3-1.94l-1.1-.55v-24.98l.11-.33a11.14 11.14 0 0 1 2.67-4.17 17.86 17.86 0 0 1 7.77-4.61c1.45-.43 2.81-.65 4.05-.65 5.02 0 8.92 1.6 11.6 4.76 2.58 3.06 3.9 7.54 3.9 13.33 0 3.35-.41 6.29-1.23 8.73-.83 2.5-2 4.61-3.48 6.31a14.14 14.14 0 0 1-5.37 3.86c-2.01.8-4.16 1.22-6.32 1.21Zm-9.7-5.99c.95.39 2.12.78 3.5 1.17 1.9.55 3.99.82 6.2.82 1.65 0 3.28-.3 4.82-.92 1.46-.6 2.75-1.53 3.85-2.78a14.34 14.34 0 0 0 2.7-4.94 23.94 23.94 0 0 0 1.03-7.47c0-4.81-1-8.43-2.96-10.75-1.9-2.24-4.7-3.34-8.54-3.34-.86 0-1.84.16-2.93.48a13.96 13.96 0 0 0-6.07 3.6 7.15 7.15 0 0 0-1.6 2.39Zm83.95 18.6c-7.58 0-13.4-2.03-17.3-6-3.88-3.98-5.85-9.6-5.85-16.7v-45.26h-9.34V179.6h27.96v53.97c0 6.68 1 9.66 1.83 10.97 1.06 1.67 2.7 2.45 5.18 2.45 2.1 0 3.82-.22 5.11-.64a20.04 20.04 0 0 0 4.1-1.9l1.78-1.06 7.4 13.58-1.56 1c-1.28.84-2.6 1.63-3.93 2.38a26.72 26.72 0 0 1-9.4 3.16c-1.78.27-3.8.41-5.98.41Zm-28.49-71.96h9.34v49.25c0 6.03 1.59 10.7 4.71 13.9 3.12 3.19 7.98 4.8 14.44 4.8 1.98 0 3.79-.12 5.37-.37 1.57-.24 3.02-.6 4.33-1.04 1.3-.44 2.54-.99 3.72-1.65.72-.4 1.44-.82 2.15-1.26l-3.66-6.71c-1 .5-2.02.92-3.08 1.27-1.71.55-3.8.82-6.36.82-4.81 0-7.3-2.34-8.55-4.3-1.64-2.6-2.45-6.89-2.45-13.1v-49.98h-19.96Zm91.94 71.95c-5 0-9.57-.72-13.55-2.14a27.92 27.92 0 0 1-10.36-6.36 27.9 27.9 0 0 1-6.48-10.05 36.83 36.83 0 0 1-2.21-13.15c0-5.2.85-9.83 2.52-13.77a28.06 28.06 0 0 1 6.97-9.99 29.09 29.09 0 0 1 10.32-5.98 39.3 39.3 0 0 1 21.88-.77c3.26.8 6.34 2.23 9.07 4.2a22.9 22.9 0 0 1 6.84 8.06c1.76 3.35 2.65 7.6 2.65 12.63 0 3.34-.4 6.99-1.16 10.85l-.32 1.61h-39.94a9.5 9.5 0 0 0 4.15 6.47c1.34.91 2.9 1.6 4.64 2.02 1.82.45 3.8.67 5.88.67 4.25 0 7.75-.49 10.4-1.45a21.56 21.56 0 0 0 6.44-3.48l1.93-1.61 6.65 13.15-1.11 1.03c-1.09 1-2.48 1.98-4.15 2.91a38.84 38.84 0 0 1-5.7 2.56 46.13 46.13 0 0 1-15.37 2.6Zm-.23-59.4c-4.03 0-7.83.6-11.28 1.75a25.14 25.14 0 0 0-8.92 5.16 24.11 24.11 0 0 0-5.97 8.58c-1.46 3.45-2.2 7.56-2.2 12.21 0 4.39.65 8.33 1.95 11.72a23.97 23.97 0 0 0 5.55 8.63 23.9 23.9 0 0 0 8.89 5.44 36.4 36.4 0 0 0 12.2 1.91 42.09 42.09 0 0 0 14-2.35 34.9 34.9 0 0 0 5.11-2.28c.84-.48 1.6-.95 2.24-1.43l-3.06-6.04a28.64 28.64 0 0 1-5.62 2.7c-3.09 1.13-7.05 1.7-11.76 1.7-2.41 0-4.7-.26-6.84-.79a18.09 18.09 0 0 1-5.94-2.6 14.03 14.03 0 0 1-4.32-4.7 14.94 14.94 0 0 1-1.78-7l-.06-2.07h40.9c.52-3.01.79-5.85.79-8.46 0-4.38-.74-8-2.2-10.78a18.93 18.93 0 0 0-5.63-6.67 22.25 22.25 0 0 0-7.7-3.56 35.07 35.07 0 0 0-8.35-1.07Zm14.27 23.85h-31.84l.17-2.15c.17-2.2.79-4.23 1.84-6.02a14.9 14.9 0 0 1 3.96-4.43 17.43 17.43 0 0 1 5.27-2.66c1.92-.59 3.97-.89 6.1-.89 4.76 0 8.4 1.31 10.86 3.9 2.41 2.55 3.64 6 3.64 10.25Zm-27.3-4h23.18a9.41 9.41 0 0 0-2.43-5.5c-1.66-1.76-4.33-2.65-7.94-2.65-1.74 0-3.4.24-4.92.72a13.46 13.46 0 0 0-4.07 2.04 10.92 10.92 0 0 0-2.9 3.25c-.4.67-.7 1.4-.92 2.14Zm54.34 36.44-8.55-13.5 39.85-23.54-39.84-24.08 8.57-13.53 55.17 34.26v7.88Zm-2.96-12.16 4.27 6.74 49.89-29.37v-3.37l-49.91-31-4.26 6.73 42.07 25.43Z"/><path fill="#fff" d="m264.7 454.79-17.95-14.14-9.29 20.87-4.65-22.37-20.54 10.02 10.81-20.13-22.17-5.52 21.22-8.47-13.43-18.48 21.7 7.15 1.59-22.79L244 400.35l15.87-16.43-3.27 22.6 22.72-2.38-17.04 15.21 18.94 12.77-22.83.7Zm-16.88 79.3a24 24 0 1 1-48 0 24 24 0 0 1 48 0Z"/><path fill="#fff" d="M282.32 534.09a24 24 0 1 1-48 0 24 24 0 0 1 48 0Zm-75 95.99h67.5v39h-67.5Zm502.02-174.72a75.7 75.7 0 0 1 48.22-16.17 75.69 75.69 0 0 1 47.82 18.05 75.6 75.6 0 0 1 23.27-3.63H979.2c14.16 0 29.94-.35 45.45 2.19a75.62 75.62 0 0 1 37.8-22.36c25.68-6.3 35.69-8.66 49.71-17.23 7.66-4.68 16.52-11.2 29.8-21.25a88.76 88.76 0 0 1 38.66-17.28 282.5 282.5 0 0 0 16.04-94.12C1196.66 127.23 1069.93.5 913.6.5 757.27.5 630.54 127.23 630.54 283.56a281.92 281.92 0 0 0 67.19 183.08 76.32 76.32 0 0 1 11.6-11.28Z"/><path d="M805.38 457.24a75.6 75.6 0 0 1 23.27-3.63H979.2c14.16 0 29.94-.35 45.45 2.19a75.62 75.62 0 0 1 37.8-22.36c25.68-6.3 35.69-8.66 49.71-17.23a78.17 78.17 0 0 0-28.23-29.5 50.19 50.19 0 0 0-46.95-60.57v-.06H787.45v.04a50.19 50.19 0 0 0-46.62 64.68 77.68 77.68 0 0 0-31.54 62.56c0 .67.03 1.33.05 2a75.7 75.7 0 0 1 48.22-16.17 75.69 75.69 0 0 1 47.82 18.05Z"/><path fill="#f68635" d="M875.08 405.23h79.05v48.74h-79.05Z"/><path fill="#fff" d="M1050.88 294.56c0 75.27-61.01 136.28-136.28 136.28-75.26 0-136.28-61.01-136.28-136.28 0-75.26 61.02-136.28 136.28-136.28 75.27 0 136.28 61.02 136.28 136.28Z"/><path fill="#f68635" d="M798.3 267.85c1.57 0 3.1.1 4.62.26 14.13-48.8 59.15-84.5 112.52-84.5s98.4 35.7 112.52 84.5a40.67 40.67 0 1 1-5.3 79.85c-18.16 41.18-59.33 69.91-107.22 69.91s-89.06-28.73-107.22-69.9a40.67 40.67 0 1 1-9.92-80.12Z"/><path d="M915.44 419.88a119.26 119.26 0 0 1-108.37-69.6 42.72 42.72 0 0 1-51.44-41.76 42.72 42.72 0 0 1 45.84-42.55 120.08 120.08 0 0 1 41.78-60 118.04 118.04 0 0 1 72.19-24.36c26.34 0 51.3 8.42 72.19 24.36a120.08 120.08 0 0 1 41.78 60 42.72 42.72 0 0 1 45.83 42.55 42.72 42.72 0 0 1-51.44 41.76 119.24 119.24 0 0 1-108.36 69.6Zm-106.07-74.26.68 1.54a115.25 115.25 0 0 0 105.4 68.71c45.6 0 86.96-26.97 105.38-68.71l.68-1.54 1.63.4a38.72 38.72 0 0 0 48.1-37.5 38.72 38.72 0 0 0-43.05-38.42l-1.68.19-.46-1.62a116 116 0 0 0-40.85-59.52 114.07 114.07 0 0 0-69.76-23.54c-25.45 0-49.58 8.14-69.76 23.54a116 116 0 0 0-40.84 59.52l-.47 1.62-1.67-.19a38.72 38.72 0 0 0-43.06 38.42 38.71 38.71 0 0 0 48.1 37.5Z"/><path d="M1028.24 326.88a2 2 0 0 1-1.47-3.36l24.94-27.12a2 2 0 0 1 2.94 2.71l-24.94 27.12a2 2 0 0 1-1.47.65Zm-220.73 0a2 2 0 0 1-1.47-.65l-24.95-27.12a2 2 0 0 1 2.94-2.7l24.95 27.11a2 2 0 0 1-1.47 3.36Zm169.98-12.63a15.45 15.45 0 1 1-30.91 0 15.45 15.45 0 0 1 30.9 0Z"/><path d="M936.68 317.73a2 2 0 0 1-1.65-3.13 39.43 39.43 0 0 1 65.03 0 2 2 0 1 1-3.3 2.26 35.43 35.43 0 0 0-58.43 0 2 2 0 0 1-1.65.87Zm-60.06-3.48a15.45 15.45 0 1 1-30.9 0 15.45 15.45 0 0 1 30.9 0Z"/><path d="M897.55 317.73a2 2 0 0 1-1.65-.86 35.44 35.44 0 0 0-58.44 0 2 2 0 0 1-3.3-2.27 39.43 39.43 0 0 1 65.03 0 2 2 0 0 1-1.64 3.13Zm18.7-4.43v22.5m0 2a2 2 0 0 1-2-2v-22.5a2 2 0 1 1 4 0v22.5a2 2 0 0 1-2 2Z"/><path fill="#fff" d="M895.49 348.58a20.36 20.36 0 1 0 40.72 0"/><path d="M915.25 183.35c-53.94.79-99.24 37.28-113.3 86.9 5.46.94 11 1.42 16.54 1.42 50.68 0 92.29-38.8 96.76-88.32Z"/><path d="M914.45 183.35c53.94.79 99.24 37.28 113.3 86.9-5.46.94-11 1.42-16.54 1.42-50.68 0-92.29-38.8-96.76-88.32Z"/><path fill="#fff" d="M1062.55 759.5h-268l9 71h249Z"/><path fill="none" d="m793.9 462.1-.02.01c.39-.2.77-.41 1.16-.6l-1.15.6Zm7.83-3.55.8-.32-.7.28Zm-17.18 9.51c.4-.3.8-.6 1.2-.88h-.02l-1.18.88Zm5.13-3.53.57-.36h-.01l-.56.36Z"/><path fill="#fff" d="m788.83 720.33-1.52-10.83Zm-36.43 7.07a88.48 88.48 0 0 1-46.85-14.33v46.18h88.75l-5.47-38.92a88.58 88.58 0 0 1-36.43 7.07Z"/><path d="M754.02 729.42c-.55 0-1.1 0-1.66-.02a90.66 90.66 0 0 1-47.9-14.65 90.48 90.48 0 0 1-41.37-77.87 90.81 90.81 0 0 1 4.88-27.82c14.4-43.8 14.2-46.15 10.67-85.33l-.14-1.57a79.76 79.76 0 0 1-.3-8.36 77.14 77.14 0 0 1 17.99-48.44 78.62 78.62 0 0 1 11.91-11.58 77.27 77.27 0 0 1 49.5-16.59c17.97.32 35.4 6.9 49.08 18.53l2.73 2.32-3.41 1.1c-.94.3-1.86.63-2.78.97l-.78.3a69.98 69.98 0 0 0-6.21 2.73l-.06.06-.3.13-.77.4-.49.26a68.2 68.2 0 0 0-3.32 1.9l-.54.33c-1.26.79-2.5 1.61-3.7 2.48l-.2.15a66.99 66.99 0 0 0-4 3.15l-.52.46-.16.14-1.23 1.11-.6.56c-.66.64-1.32 1.3-1.96 1.97l-1.24 1.33-.75.85-.17.2a59.19 59.19 0 0 0-2.63 3.3l-.14.18a57.1 57.1 0 0 0-2.27 3.31l-.38.62c-.46.74-.9 1.49-1.32 2.25l-.27.48c-.5.92-.97 1.85-1.42 2.79l-.22.49c-.36.78-.7 1.57-1.03 2.37l-.3.78c-.34.84-.64 1.7-.93 2.55l-.14.4a56.53 56.53 0 0 0-.93 3.2l-.06.22-.07.32c-.2.79-.37 1.59-.53 2.39l-.07.3-.1.56c-.2 1-.35 2.01-.49 3.03l-.01.1a54.54 54.54 0 0 0-.44 7.9 62.51 62.51 0 0 0 1.67 13.46l.03.18 26.85 191.77-1.4.6a90.28 90.28 0 0 1-35.6 7.25Zm2.16-288.24a73.23 73.23 0 0 0-45.6 15.75 74.48 74.48 0 0 0-11.31 10.99 73.18 73.18 0 0 0-17.07 45.95c-.05 2.6.05 5.27.29 7.94l.14 1.57c3.51 39.14 3.8 42.34-10.87 86.95a86.83 86.83 0 0 0-4.67 26.62 86.5 86.5 0 0 0 39.55 74.45 86.67 86.67 0 0 0 45.8 14 85.95 85.95 0 0 0 34.2-6.32l-26.42-188.64a68.76 68.76 0 0 1-1.4-8.36 61.38 61.38 0 0 1 .1-14.2l.02-.12c.17-1.34.4-2.66.66-3.99l.05-.28c.18-.88.37-1.73.58-2.58l.04-.18a7.91 7.91 0 0 1 .15-.58c.3-1.16.62-2.24.95-3.26l.14-.41a58.3 58.3 0 0 1 2.43-6.12l.23-.52c.48-1.01.99-2 1.52-2.98l.3-.53c.45-.81.92-1.61 1.4-2.4l.42-.67c.77-1.2 1.58-2.4 2.43-3.55l.14-.18a51.36 51.36 0 0 1 2.33-2.96v-.01l.48-.56.72-.82v-.45l.77-.4.24-.26.07-.1.51-.5c.68-.72 1.38-1.4 2.09-2.09l.14-.14.48-.45c.43-.4.87-.8 1.32-1.19l.15-.14.56-.48a67.17 67.17 0 0 1 4.31-3.41l.07-.05c1.3-.94 2.64-1.84 4-2.69l.66-.4c1.17-.72 2.37-1.4 3.59-2.05l.35-.18.63-.33v-.01l.25-.12.03-.02.07-.04a73.98 73.98 0 0 1 6.81-3l.34-.13a74.16 74.16 0 0 0-45.17-15.37Z"/><path d="m802.46 832.1-42.24-301.66a66.25 66.25 0 0 1-1.75-14.13v-.11a60.78 60.78 0 0 1 .47-8.41l.02-.16a59.44 59.44 0 0 1 1.28-6.73l.06-.24.13-.54c.3-1.15.6-2.2.94-3.23l.14-.4a59.23 59.23 0 0 1 2.45-6.18l.2-.45c.49-1.02 1-2.03 1.54-3.02l.26-.46c.46-.84.95-1.66 1.45-2.48l.39-.62c.6-.94 1.2-1.86 1.85-2.76l.13-.2.3-.4.17-.21.87-1.17.31-.4c.42-.53.85-1.05 1.28-1.56l.16-.2.32-.38c.4-.47.82-.93 1.24-1.4l1.2-1.27.64-.66.09-.09c.2-.2.41-.42.63-.62l.4-.39.82-.78c.38-.36.77-.71 1.17-1.06l.32-.28.56-.49a66.61 66.61 0 0 1 7.74-5.73l1.2-.76 1.24-.73.09-.05c.36-.21.73-.43 1.1-.63l1.1-.6.49-.26.92-.48 1.24-.6.46-.23.86-.4c.4-.2.82-.37 1.24-.55l.7-.3.7-.3c.47-.2.96-.39 1.45-.58l1.25-.48a77.47 77.47 0 0 1 26.61-4.67h155.11l4.76-.01c11.04 0 23.86.17 36.46 2.22l3.66.6-2.51 2.73a74.06 74.06 0 0 0-15.77 73.38l.18.58.48 1.4c.42 1.16.87 2.3 1.35 3.44l.2.45.18.4c.37.87.77 1.73 1.17 2.58l.38.77c.45.9.92 1.8 1.4 2.7l.27.47a75.38 75.38 0 0 0 3.13 5.12l.26.4c.42.62.86 1.24 1.3 1.86l.31.4c.46.63.92 1.25 1.4 1.85l.22.28a74.14 74.14 0 0 0 6.8 7.47l.25.23c.53.5 1.07 1 1.61 1.48l.49.43c.51.45 1.04.9 1.58 1.35l.54.44 1.63 1.3.47.34a74.42 74.42 0 0 0 5.84 4l.34.2 1.63.95.16.1.66.37a73.48 73.48 0 0 0 5.08 2.58l1.51.68.8.33.72.3 1.09.44a72.64 72.64 0 0 0 3.78 1.34l.26.09 1.17.37 1.11.33.2.05 1.46.41c1.9.5 3.82.92 5.76 1.27l.38.07a42.63 42.63 0 0 0 2.85.44l.8.11c.93.12 1.88.22 2.82.3l.54.03.4.03a67.65 67.65 0 0 0 2.88.15h.21c.61.02 1.22.04 1.83.04h1.16c.61-.01 1.22-.02 1.83-.05h.15l.97-.04c.67-.04 1.33-.08 2-.14l.96-.07c.97-.09 1.96-.2 2.94-.33l2.65-.35-39.07 250.8Zm-39.57-323.68a57.7 57.7 0 0 0-.42 7.75v.11a55.51 55.51 0 0 0 .32 5.37 63 63 0 0 0 1.35 7.96l.03.19 41.77 298.28 244.46-1 37.73-242.19-.47.05-.61.04-.4.03c-.7.06-1.4.1-2.1.14l-1.03.05h-.15c-.64.03-1.29.04-1.93.05h-1.22c-.64 0-1.29-.01-1.93-.03h-.2a63.87 63.87 0 0 1-3.07-.17l-.36-.02-.62-.04c-1-.09-1.99-.2-2.98-.31l-.52-.08-.32-.04c-.72-.1-1.44-.2-2.16-.32l-.87-.15-.37-.07a73.4 73.4 0 0 1-7.6-1.77l-.2-.05-1.2-.35-1.25-.4-.25-.09a82.23 82.23 0 0 1-5.15-1.89l-.7-.29a51.86 51.86 0 0 1-2.45-1.07 70.91 70.91 0 0 1-6.1-3.13l-.14-.09c-.58-.32-1.15-.65-1.72-1l-.36-.23a78.33 78.33 0 0 1-6.15-4.2l-.5-.37-1.7-1.35-.59-.47-1.66-1.42-.5-.45a77.86 77.86 0 0 1-1.7-1.56l-.25-.24a77.94 77.94 0 0 1-7.19-7.88l-.23-.3c-.5-.63-1-1.28-1.47-1.93l-.33-.45c-.47-.65-.93-1.3-1.38-1.97l-.27-.4c-.48-.7-.93-1.42-1.38-2.13l-.3-.5c-.56-.9-1.1-1.83-1.62-2.77l-.27-.5a74.76 74.76 0 0 1-1.49-2.85l-.4-.8c-.43-.9-.84-1.81-1.24-2.73l-.16-.37-.23-.52c-.5-1.2-.98-2.4-1.43-3.63-.18-.5-.35-1.01-.51-1.53l-.19-.55a78.06 78.06 0 0 1 14.18-74.55c-11.14-1.5-22.4-1.64-32.22-1.64h-4.75l-4.56.01H828.65a73.46 73.46 0 0 0-25.25 4.43l-1.18.46a25.19 25.19 0 0 0-1.98.8l-.72.31-1.16.5-.78.38-.48.23-1.16.57-.85.44-.5.27-1.02.55-1.03.6-.1.05-1.15.68-1.15.72c-.75.48-1.5.97-2.22 1.49a67.08 67.08 0 0 0-5.06 3.91l-.5.44-.66.57-.77.7-1.15 1.1-.58.59-.1.09-.58.6-1.13 1.2c-.4.44-.8.88-1.17 1.32l-.46.54c-.4.48-.8.96-1.18 1.46l-.3.38-.82 1.1-.19.25a16 16 0 0 0-.25.33l-.11.16a57.1 57.1 0 0 0-1.74 2.6l-.36.58c-.47.76-.92 1.53-1.36 2.31l-.23.43c-.5.92-.99 1.86-1.44 2.81l-.2.44a55.85 55.85 0 0 0-2.28 5.76l-.12.37c-.31.95-.6 1.93-.88 3l-.18.74c-.2.8-.38 1.6-.54 2.4l-.17.84c-.19 1-.35 2.01-.49 3.03l-.03.28Z"/><path d="m791.29 465.88-2.09-3.41a64.94 64.94 0 0 1 2.43-1.42l1.09-.59.15-.07.03.06.9 1.7v-.01l.95 1.78c-.62.32-1.23.66-1.83 1l-.47.28c-.4.22-.78.45-1.16.68Zm3.53-2-1.95-3.5.08-.04 1.87 3.54-.03-.07Zm-7.91 4.92-2.34-3.24a65.55 65.55 0 0 1 3.42-2.33l.23-.14.4-.26 2.13 3.39-.4.25c-.68.44-1.37.88-2.04 1.34l-.4.28-1 .7Zm293.63 116.45h-.33l-1.92-.03-.2-.01c-.33 0-.66-.02-.98-.03-.7-.03-1.4-.08-2.09-.13l-.36-.02-.62-.05c-1-.08-2-.18-2.98-.3l-.53-.08-.31-.05c-.72-.09-1.44-.2-2.16-.31l-.88-.15-.37-.07a73.4 73.4 0 0 1-7.6-1.77l-.2-.05-1.19-.35-1.25-.4-.25-.09a82.23 82.23 0 0 1-5.16-1.89l-.7-.29a58.6 58.6 0 0 1-2.45-1.07l-1.11-.52a86.92 86.92 0 0 1-4.98-2.61l-.14-.09c-.58-.32-1.16-.66-1.73-1l-.35-.23a78.81 78.81 0 0 1-6.15-4.2l-.5-.37c-.58-.44-1.15-.9-1.71-1.35l-.58-.48c-.56-.46-1.12-.93-1.66-1.42l-.51-.44a77.86 77.86 0 0 1-1.7-1.56l-.25-.24a77.73 77.73 0 0 1-7.18-7.88l-.24-.3c-.5-.63-.99-1.28-1.46-1.93l-.33-.45c-.47-.65-.93-1.3-1.38-1.97l-.28-.4a76.76 76.76 0 0 1-3.3-5.4l-.27-.5c-.51-.94-1-1.89-1.48-2.85l-.4-.8a73.9 73.9 0 0 1-1.24-2.73l-.16-.37-.23-.52a76.1 76.1 0 0 1-1.95-5.16l-.18-.56a78.06 78.06 0 0 1 47.4-97.85 80.45 80.45 0 0 1 8.02-2.43l1.43-.35c24.2-5.94 34.22-8.4 47.71-16.65 7.45-4.55 15.82-10.69 29.63-21.14a90.78 90.78 0 0 1 39.52-17.65 90.62 90.62 0 0 1 16.25-1.48 91.2 91.2 0 0 1 85.46 59.91 90.31 90.31 0 0 1-3.1 69.52 90.33 90.33 0 0 1-51.34 46.97 90.86 90.86 0 0 1-27.72 5.4c-46.05 2.23-48.17 3.27-83.48 20.58l-1.42.7-.11.04a78.61 78.61 0 0 1-27.81 7.63l-.34.03c-.7.06-1.4.1-2.1.14l-1.04.05h-.14l-1.94.05h-.9Zm115.98-207.01a86.55 86.55 0 0 0-29.66 5.23 86.88 86.88 0 0 0-23.68 13.06c-13.94 10.56-22.39 16.75-29.98 21.39-14.02 8.56-24.22 11.07-48.85 17.11l-1.42.35a73.14 73.14 0 0 0-36.8 21.77 74.06 74.06 0 0 0-15.78 73.38l.2.58a73.42 73.42 0 0 0 1.83 4.84l.19.44.17.4c.38.87.77 1.74 1.18 2.59l.38.77c.45.9.92 1.8 1.4 2.69l.27.48a75.38 75.38 0 0 0 3.13 5.12l.26.4c.42.62.86 1.24 1.3 1.85l.31.42c.46.62.92 1.23 1.4 1.84l.22.28a73.65 73.65 0 0 0 6.8 7.47l.25.23c.53.5 1.07 1 1.61 1.48l.48.43 1.58 1.34.55.45c.54.44 1.08.87 1.63 1.29l.46.35a74.42 74.42 0 0 0 5.85 3.99l.33.2c.54.33 1.08.65 1.63.96l.16.1.67.37a82.55 82.55 0 0 0 7.4 3.59l.7.3 1.1.44a72.64 72.64 0 0 0 3.77 1.34l.26.08 1.17.38 1.12.32.2.06a75.94 75.94 0 0 0 5.57 1.37l1.64.3.39.08.8.14 2.05.3.8.11c.93.12 1.88.21 2.82.3.18 0 .36.02.53.03l.4.03a67.65 67.65 0 0 0 2.89.15h.2l1.84.04h1.16l1.83-.05h.15l.97-.05c.67-.03 1.33-.08 2-.13l.36-.03.6-.04c.97-.1 1.95-.2 2.94-.33a74.51 74.51 0 0 0 23.01-6.96l1.32-.65c35.29-17.3 38.17-18.7 85.07-20.98 9.06-.33 18-2.07 26.53-5.17a86.36 86.36 0 0 0 49.08-44.9 86.34 86.34 0 0 0 2.96-66.45 87.2 87.2 0 0 0-81.7-57.27Z"/><path fill="#fff" d="M1268.55 447.5a58 58 0 1 1-116 0 58 58 0 0 1 116 0Z"/><path fill="#f68635" d="m1168.67 452.16-48.69-153.5s-6.55-10.9-10.95-15.43a63.65 63.65 0 0 1-12.1-17.77 126.65 126.65 0 0 1-6.22-16.8l-8.54-27.92-9.02-29.5.06-.03a12.95 12.95 0 1 1 25.08-6.4l8.67 28.35.1-.03-11.44-37.4s.06-.02.05-.03a12.96 12.96 0 1 1 25.08-6.4l11.09 36.25.1-.03-13.85-45.3s.06-.01.05-.03a12.96 12.96 0 1 1 25.08-6.4l13.5 44.15.1-.03-11.43-37.4s.05-.01.05-.03a12.94 12.94 0 1 1 25.07-6.4l14.23 46.54.6.13-1.13-22.53s.06 0 .06-.02a12.96 12.96 0 1 1 25.88-.14l2.76 53.76a36.51 36.51 0 0 1-6.97 26.44c-1.9 3.17-4.95 9.13-4.73 14.63.02.46.07.93.13 1.38h-.02l48.73 150.98a42.82 42.82 0 1 1-81.32 26.9Z"/><path d="M1209.48 483.81a45.09 45.09 0 0 1-42.51-30.6 1.87 1.87 0 0 1-.2-.44l-48.62-153.27c-.9-1.49-6.68-10.89-10.55-14.87a65.9 65.9 0 0 1-12.48-18.32 130.37 130.37 0 0 1-6.32-17.07l-17.56-57.41a1.97 1.97 0 0 1-.09-.53c-1-3.61-.57-7.5 1.24-10.9a14.85 14.85 0 0 1 13.21-7.94c2.82 0 5.47.77 7.75 2.14a14.99 14.99 0 0 1 22.46-15.5 14.98 14.98 0 0 1 14.72-17.66c6.04 0 11.36 3.55 13.7 8.99l.39-.76a14.85 14.85 0 0 1 13.2-7.93 14.88 14.88 0 0 1 14.63 11.85l10.19 33.33-.43-8.6c-.01-.17 0-.34.04-.51a14.98 14.98 0 0 1 14.17-15.22 14.93 14.93 0 0 1 15.72 15.45l2.76 53.6a38.72 38.72 0 0 1-7.3 27.74c-1.75 2.93-4.6 8.48-4.4 13.43.02.4.06.79.11 1.15l48.63 150.68a44.65 44.65 0 0 1-26.53 56.23 44.68 44.68 0 0 1-15.92 2.94Zm-39.04-32.69c.08.13.14.26.19.41a41.06 41.06 0 0 0 38.86 28.28c4.95 0 9.83-.9 14.5-2.68a40.67 40.67 0 0 0 24.16-51.24l-48.74-151a16.28 16.28 0 0 1-.2-1.91c-.24-6.05 3.04-12.46 5.01-15.75l.12-.16a34.71 34.71 0 0 0 6.57-25.15l-2.76-53.76v-1.21a10.96 10.96 0 0 0-21.89 1.15c.01.16 0 .33-.03.49l1.1 22.06a2 2 0 0 1-2.48 2.04l-.34-.07-.21-.05a2 2 0 0 1-1.47-1.37l-14.24-46.53a10.9 10.9 0 0 0-13.98-8.45 10.87 10.87 0 0 0-6.46 5.33 10.89 10.89 0 0 0-.8 8.34c.05.17.08.33.09.5l11.3 36.94a2 2 0 0 1-1.38 2.51l-.1.03a2 2 0 0 1-2.46-1.34l-13.5-44.16a10.9 10.9 0 0 0-13.98-8.45 10.97 10.97 0 0 0-7.27 13.69c.05.15.07.3.08.47l13.72 44.86a2 2 0 0 1-1.34 2.5l-.1.03a2 2 0 0 1-2.49-1.33l-11.09-36.26a10.9 10.9 0 0 0-13.98-8.45 10.98 10.98 0 0 0-7.26 13.69c.04.15.07.3.08.46l11.3 36.97a2 2 0 0 1-1.31 2.5l-.1.02a2 2 0 0 1-2.51-1.32l-8.67-28.36a10.89 10.89 0 0 0-13.98-8.45 10.88 10.88 0 0 0-6.47 5.34 10.88 10.88 0 0 0-.8 8.34c.04.16.07.31.07.47l17.43 56.98c2.12 6.94 4 12.05 6.11 16.54a61.12 61.12 0 0 0 11.73 17.23c4.5 4.64 10.96 15.34 11.23 15.8a2 2 0 0 1 .19.42Z"/><g fill="#fff"><path d="m101.03 244.23 1.65-15.67c.01-.12 0-.24 0-.56-1.38.65-2.63 1.19-3.84 1.82-8.46 4.4-17.4 7.43-26.67 9.54-4.59 1.04-9.21 1.87-13.95 1.91a9.42 9.42 0 0 1-6.96-2.61 283.1 283.1 0 0 1-15.88-16.25c-1.47-1.63-2.92-3.27-4.49-5.03l1.07-.46c1.42-.65 3.4-1.66 4.8-2.34l24.61 7.9c.83.28 1.48.2 2.25-.16 14.92-7.17 29.85-14.3 44.78-21.45 11.32-5.43 22.63-10.86 33.96-16.26 4.24-2.02 8.78-2.47 13.42-2.27 2.73.12 5.4.58 7.93 1.69a7.36 7.36 0 0 1 3.83 3.38c1.2 2.32.57 4.45-.64 6.51a18.3 18.3 0 0 1-8.09 7.21c-8.71 4.22-17.46 8.38-26.2 12.54-.6.28-.95.64-1.17 1.27-5.98 16.7-11.99 33.4-17.99 50.09-.72 2.01-1.4 4.04-2.19 6.03a5.38 5.38 0 0 1-2.71 2.96l-11.22 5.23Z"/><path d="M69.61 186.27a6.48 6.48 0 0 1 5.07-.35l29.65 10.14-5.04 2.39c-5.27 2.47-10.56 4.94-15.82 7.44-.74.35-1.28.32-1.99-.14L59.6 191.37Z"/></g><path fill="#fff" d="M35.99 428.76h5.5v-15.74l-4.74 3.64-2.16-2.88 8.2-6.26h3.17v21.24h5.4v3.96H36Zm26.32.32a8.2 8.2 0 0 0 2.2-.29 5.5 5.5 0 0 0 1.74-.83 3.78 3.78 0 0 0 1.56-3.13c0-1.32-.52-2.35-1.56-3.11-1.05-.76-2.61-1.14-4.7-1.14a24.84 24.84 0 0 0-1.9.08c-.37.02-.74.03-1.12.03v-13.17h13.03v4.39h-9v4.86c.19 0 .38-.01.57-.04.17 0 .33 0 .49-.02l.41-.01c1.2 0 2.32.17 3.35.52a7.1 7.1 0 0 1 4.48 4.1c.42 1 .63 2.1.63 3.3a7.74 7.74 0 0 1-2.95 6.4 9.67 9.67 0 0 1-3.17 1.64c-1.2.38-2.48.56-3.85.56a9.6 9.6 0 0 1-1.69-.16 20.92 20.92 0 0 1-3.37-.92c-.49-.19-.9-.37-1.24-.54l1.51-3.74c.41.24 1.04.5 1.9.8a8.5 8.5 0 0 0 2.68.42Zm20.95-11.77c0-.84.26-1.5.79-2s1.22-.74 2.09-.74c.91 0 1.63.25 2.16.74.53.5.79 1.16.79 2 0 .84-.27 1.51-.8 2.01a3 3 0 0 1-2.15.76 2.9 2.9 0 0 1-2.09-.75 2.67 2.67 0 0 1-.8-2.02Zm0 13.03c0-.84.26-1.5.79-2a2.94 2.94 0 0 1 2.09-.73c.91 0 1.63.24 2.16.73.53.5.79 1.16.79 2 0 .84-.27 1.51-.8 2.02a3 3 0 0 1-2.15.75 2.9 2.9 0 0 1-2.09-.75c-.53-.5-.8-1.18-.8-2.02Zm22.64-1.08c.8 0 1.52-.1 2.18-.3.66-.2 1.22-.5 1.7-.86.46-.37.83-.8 1.09-1.3.26-.48.4-1.01.4-1.59a3.4 3.4 0 0 0-.45-1.8c-.3-.5-.74-.9-1.25-1.17a5.97 5.97 0 0 0-1.9-.61c-.8-.13-1.61-.19-2.42-.18h-2.01v-2.58l6.05-7.4h-9.11v-3.95h14.69v3.27l-6.34 7.24h.83c.84 0 1.65.14 2.45.43a6.05 6.05 0 0 1 3.58 3.46c.37.86.56 1.86.56 2.98 0 1.37-.29 2.57-.85 3.6a8.21 8.21 0 0 1-2.23 2.61 9.55 9.55 0 0 1-3.19 1.59c-1.2.35-2.45.52-3.7.52-1.09 0-2.17-.1-3.25-.29a15.49 15.49 0 0 1-3.13-.9l1.26-3.89a5 5 0 0 0 .88.36 20.89 20.89 0 0 0 2.7.65c.5.08.98.11 1.46.11Zm14.04-9.18c0-2.18.23-4.1.69-5.74.46-1.65 1.1-3 1.93-4.09a8.02 8.02 0 0 1 2.98-2.43 9.02 9.02 0 0 1 3.87-.8c3.03 0 5.37 1.05 7.01 3.18 1.64 2.12 2.46 5.42 2.46 9.88 0 2.2-.23 4.13-.69 5.78a12.07 12.07 0 0 1-1.93 4.1 7.91 7.91 0 0 1-3 2.45 9.15 9.15 0 0 1-3.89.81c-3.06 0-5.4-1.12-7-3.37-1.62-2.24-2.43-5.5-2.43-9.77Zm4.68 0c0 .68.02 1.35.07 2.02l8.72-8.03c-.72-2.07-2.06-3.1-4.04-3.1-1.52 0-2.7.74-3.52 2.22-.82 1.47-1.23 3.77-1.23 6.89Zm9.58 0c0-.7-.02-1.42-.07-2.12l-8.75 8.02c.73 2.19 2.08 3.28 4.03 3.28 1.52 0 2.7-.73 3.54-2.2.83-1.46 1.25-3.79 1.25-6.98ZM35.99 539.75h5.5v-15.73l-4.74 3.63-2.16-2.87 8.2-6.27h3.17v21.24h5.4v3.96H36Zm26.32.32c.79 0 1.52-.1 2.2-.28.66-.2 1.25-.47 1.74-.83s.87-.8 1.15-1.33c.27-.53.41-1.13.41-1.8 0-1.32-.52-2.36-1.56-3.12-1.05-.75-2.61-1.13-4.7-1.13a24.84 24.84 0 0 0-1.9.07c-.37.03-.74.04-1.12.04V518.5h13.03v4.4h-9v4.85c.19 0 .38 0 .57-.03.17 0 .33 0 .49-.02l.41-.02c1.2 0 2.32.17 3.35.52a7.5 7.5 0 0 1 2.7 1.57 7.1 7.1 0 0 1 1.78 2.54c.42 1 .63 2.09.63 3.29a7.76 7.76 0 0 1-2.95 6.4 9.68 9.68 0 0 1-3.17 1.65c-1.2.37-2.48.56-3.85.56a9.6 9.6 0 0 1-1.69-.17 20.51 20.51 0 0 1-3.37-.91c-.42-.16-.83-.35-1.24-.54l1.51-3.75c.41.24 1.04.5 1.9.8a8.5 8.5 0 0 0 2.68.42Zm20.95-11.77c0-.84.26-1.5.79-2a2.94 2.94 0 0 1 2.09-.73c.91 0 1.63.24 2.16.73.53.5.79 1.16.79 2 0 .84-.27 1.52-.8 2.02a3 3 0 0 1-2.15.75 2.9 2.9 0 0 1-2.09-.75c-.53-.5-.8-1.18-.8-2.02Zm0 13.04c0-.85.26-1.51.79-2a2.9 2.9 0 0 1 2.09-.74c.91 0 1.63.25 2.16.74.53.49.79 1.15.79 2 0 .84-.27 1.5-.8 2.01a3 3 0 0 1-2.15.76 2.9 2.9 0 0 1-2.09-.76c-.53-.5-.8-1.17-.8-2.01Zm22.25-1.27c.79 0 1.52-.1 2.2-.28.66-.2 1.25-.47 1.74-.83s.87-.8 1.15-1.33c.27-.53.41-1.13.41-1.8 0-1.32-.52-2.36-1.56-3.12-1.05-.75-2.61-1.13-4.7-1.13a24.84 24.84 0 0 0-1.9.07c-.37.03-.74.04-1.12.04V518.5h13.03v4.4h-9v4.85c.19 0 .38 0 .57-.03.17 0 .33 0 .49-.02l.41-.02c1.2 0 2.32.17 3.35.52 1.03.35 1.93.87 2.7 1.57a7.1 7.1 0 0 1 1.78 2.54c.42 1 .63 2.09.63 3.29a7.76 7.76 0 0 1-2.95 6.4 9.68 9.68 0 0 1-3.17 1.65c-1.2.37-2.48.56-3.85.56a9.6 9.6 0 0 1-1.7-.17 20.43 20.43 0 0 1-3.36-.91c-.42-.16-.83-.35-1.24-.54l1.51-3.75c.41.24 1.04.5 1.9.8.84.28 1.74.42 2.68.42Zm14.43-9c0-2.18.23-4.1.69-5.74.46-1.64 1.1-3 1.93-4.08a8.03 8.03 0 0 1 2.98-2.43 9.04 9.04 0 0 1 3.87-.81c3.03 0 5.37 1.06 7.01 3.18 1.64 2.13 2.46 5.42 2.46 9.88 0 2.21-.23 4.14-.69 5.78a12.05 12.05 0 0 1-1.93 4.1 7.9 7.9 0 0 1-3 2.45 9.14 9.14 0 0 1-3.89.82c-3.06 0-5.4-1.13-7-3.37-1.62-2.24-2.43-5.5-2.43-9.78Zm4.68 0c0 .68.02 1.35.07 2.02l8.72-8.03c-.72-2.06-2.06-3.1-4.04-3.1-1.52 0-2.7.74-3.52 2.22-.82 1.48-1.23 3.78-1.23 6.9Zm9.58 0c0-.7-.02-1.41-.07-2.12l-8.75 8.03c.73 2.18 2.08 3.27 4.03 3.27 1.52 0 2.7-.73 3.54-2.2.83-1.45 1.25-3.78 1.25-6.98ZM35.99 652.25h5.5V636.5l-4.74 3.64-2.16-2.88 8.2-6.26h3.17v21.24h5.4v3.96H36Zm37.44-3.86a8.04 8.04 0 0 1-2.48 5.9 8.5 8.5 0 0 1-2.76 1.77 10.2 10.2 0 0 1-6.95.05 7.93 7.93 0 0 1-4.8-4.76 11.2 11.2 0 0 1-.72-4.18c0-2.38.41-4.54 1.24-6.48.83-1.94 1.9-3.63 3.19-5.06a16.54 16.54 0 0 1 4.35-3.45c1.61-.88 3.2-1.44 4.8-1.68l1.03 3.7c-1.27.25-2.45.64-3.56 1.18a13.03 13.03 0 0 0-2.95 1.96c-.84.75-1.58 1.6-2.18 2.56a8.83 8.83 0 0 0-1.2 2.91c.48-.6 1.2-1.1 2.16-1.53a8.63 8.63 0 0 1 6.2-.1 6.92 6.92 0 0 1 4.04 3.94c.4.96.59 2.05.59 3.27Zm-4.54.18c0-1.3-.39-2.28-1.17-2.95-.78-.67-1.83-1-3.14-1a5.2 5.2 0 0 0-4.29 2.15c-.05.3-.08.59-.09.88l-.02.78c0 .57.1 1.13.29 1.65a3.98 3.98 0 0 0 2.2 2.33 4.6 4.6 0 0 0 1.83.34 4.63 4.63 0 0 0 3.02-1.15c.41-.36.74-.8 1-1.32.25-.51.38-1.08.38-1.7Zm14.37-7.77c0-.84.26-1.5.79-2s1.22-.74 2.09-.74c.91 0 1.63.25 2.16.74.53.5.79 1.16.79 2 0 .84-.27 1.5-.8 2.01a3 3 0 0 1-2.15.76 2.9 2.9 0 0 1-2.09-.76c-.53-.5-.8-1.17-.8-2.01Zm0 13.03c0-.84.26-1.5.79-2a2.95 2.95 0 0 1 2.09-.74c.91 0 1.63.25 2.16.74.53.5.79 1.16.79 2 0 .84-.27 1.51-.8 2.02a3 3 0 0 1-2.15.75 2.9 2.9 0 0 1-2.09-.75c-.53-.5-.8-1.18-.8-2.02Zm17.53-1.59h5.5v-15.73l-4.75 3.64-2.15-2.88 8.2-6.26h3.17v21.24h5.4v3.96H100.8Zm19.15-8.67c0-2.19.23-4.1.69-5.74.46-1.65 1.1-3 1.93-4.09a8.03 8.03 0 0 1 2.98-2.43 9.04 9.04 0 0 1 3.87-.81c3.03 0 5.37 1.06 7.01 3.19 1.64 2.12 2.46 5.41 2.46 9.88 0 2.2-.23 4.13-.69 5.78a12.05 12.05 0 0 1-1.93 4.1 7.9 7.9 0 0 1-3 2.45 9.14 9.14 0 0 1-3.89.8c-3.06 0-5.4-1.11-7-3.36-1.62-2.24-2.43-5.5-2.43-9.77Zm4.68 0c0 .67.02 1.35.07 2.02l8.72-8.03c-.72-2.07-2.06-3.1-4.04-3.1-1.52 0-2.7.74-3.52 2.21-.82 1.48-1.23 3.78-1.23 6.9Zm9.58 0c0-.71-.02-1.42-.07-2.13l-8.75 8.03c.73 2.19 2.08 3.28 4.03 3.28 1.52 0 2.7-.73 3.54-2.2.83-1.46 1.25-3.79 1.25-6.98Z"/><path d="M1114.03 575.5a76.25 76.25 0 0 1-23.53 7.1l-27.82 176.9c22.12.5 26.08.24 39.44.24 67.75 0 122.66-54.92 122.66-122.66 0-31.86-12.15-60.89-32.07-82.7-40.36 2.1-43.88 4.07-78.68 21.13Z"/><g fill="#fff"><path d="M914.67 429.3c-.69.18-1.57 110.44 2.79 126.6a30.32 30.32 0 0 0 58.53-15.81c-4.36-16.17-61-110.88-61.32-110.8Z"/><path d="M915.13 429.3c-.68-.2-59.27 93.19-64.03 109.24a30.31 30.31 0 1 0 58.12 17.25c4.76-16.05 6.24-126.4 5.91-126.5Z"/></g></svg>