<svg xmlns="http://www.w3.org/2000/svg" viewBox="0 0 1287 832" xml:space="preserve"><path fill="#FF8630" d="m787.7 720.49-1.51-10.78-25-178.55a65.93 65.93 0 0 1-1.71-13.81v-.01c-.01-.9 0-1.79.02-2.67v-.09a55.35 55.35 0 0 1 .43-5.37 58 58 0 0 1 .52-3.24l.17-.88c.17-.83.36-1.66.56-2.48l.12-.51.07-.25c.27-1.04.57-2.08.9-3.1l.14-.4a57 57 0 0 1 2.33-5.87l.23-.51c.46-.97.95-1.93 1.46-2.87l.28-.5c.44-.78.89-1.56 1.36-2.32l.4-.64c.74-1.17 1.52-2.3 2.34-3.42.27-.37.54-.74.83-1.1l.02-.03a66.22 66.22 0 0 1 3.2-3.8c-.01 0-.01 0 0 0l.57-.63h.01l.44-.46a63.87 63.87 0 0 1 2.6-2.58l.02-.01c.41-.39.84-.77 1.26-1.14l.69-.6.02-.02a76.64 76.64 0 0 1 4.15-3.28h.02c1.27-.93 2.58-1.8 3.92-2.64l.55-.35h.01c1.18-.73 2.4-1.4 3.62-2.06l1.14-.6h.01a70.63 70.63 0 0 1 6.66-2.95l.09-.03.7-.28a72 72 0 0 1 2.84-.98 75.34 75.34 0 0 0-47.59-17.97 75.3 75.3 0 0 0-47.98 16.1 76.2 76.2 0 0 0-11.55 11.22 75.26 75.26 0 0 0-17.15 55.08c3.64 40.52 4.08 42.7-10.58 87.28a88.4 88.4 0 0 0 35.51 102.86 88.03 88.03 0 0 0 46.63 14.26 87.92 87.92 0 0 0 36.23-7.02z"/><path fill="#FF8630" d="M761.2 531.16a65.02 65.02 0 0 1-1.6-10.93c-.02-.03-.02-.06-.02-.08a58.9 58.9 0 0 1-.1-2.71v-.08c-.01-.9 0-1.8.02-2.69v-.08c.04-.89.09-1.77.15-2.65v-.07c.08-.88.17-1.76.28-2.63v-.03c.14-1.09.32-2.16.52-3.23l.17-.88c.17-.83.36-1.66.56-2.48l.19-.76a55.31 55.31 0 0 1 3.4-9.43l.2-.43a58.92 58.92 0 0 1 3.11-5.73l.38-.6c.57-.9 1.15-1.79 1.77-2.65l.13-.18.45-.6.85-1.13.3-.4 1.23-1.5.46-.54 1.2-1.36.59-.63.44-.46.75-.77.69-.7.58-.55.6-.57.78-.72.49-.42.7-.62a136.71 136.71 0 0 1 2.03-1.67 83.97 83.97 0 0 1 3.17-2.35 68.57 68.57 0 0 1 2.28-1.52l.61-.39.56-.35a83.87 83.87 0 0 1 2.34-1.37l1.28-.68c.39-.2.77-.42 1.15-.61l1.37-.67 1.11-.52 1.5-.66 1.05-.45 1.63-.64.8-.3.18-.08a75.17 75.17 0 0 1 25.81-4.53h149.8c14.1 0 29.8-.35 45.24 2.18a75.6 75.6 0 0 0-16.12 74.99c.22.67.43 1.35.68 2.02.43 1.19.9 2.36 1.38 3.51.12.3.25.58.38.86a78.61 78.61 0 0 0 3.02 6.19l.28.5a67.13 67.13 0 0 0 3.2 5.23l.26.39a50 50 0 0 0 1.34 1.9 79.7 79.7 0 0 0 1.73 2.3l.24.3a74.78 74.78 0 0 0 8.85 9.38l.49.44c.53.47 1.07.92 1.61 1.38l.56.45c.55.45 1.1.9 1.66 1.32l.48.36a75.1 75.1 0 0 0 5.98 4.07l.33.21c.55.34 1.12.66 1.68.98l.84.48a86.27 86.27 0 0 0 2.58 1.37c.5.26 1.02.51 1.54.76l1.08.5 1.53.7 1.16.48 1.5.61a83.2 83.2 0 0 0 3.86 1.37l1.47.47 1.35.4a62.13 62.13 0 0 0 4.38 1.1l1.3.29 1.68.31 1.2.22c.7.11 1.41.21 2.11.3l.8.12c.97.12 1.94.22 2.9.3l.96.07a85.26 85.26 0 0 0 3.16.16c.62.02 1.25.03 1.87.03h1.18a91.36 91.36 0 0 0 5.06-.23l.98-.08c1-.1 2-.2 3-.33l-38.2 246.13-246.7.12-11.08-79.19-30.73-219.34z"/><path fill="#FF8630" d="M1279.55 434.39a88.49 88.49 0 0 0-137.46-39.68c-13.21 10-22.02 16.5-29.65 21.15-13.95 8.52-23.9 10.87-49.46 17.15a75.27 75.27 0 0 0-37.62 22.25 75.6 75.6 0 0 0-16.11 74.98c.22.68.43 1.36.68 2.03.43 1.19.9 2.35 1.38 3.5.12.3.25.58.38.87.39.89.79 1.78 1.2 2.65l.39.78c.46.93.94 1.85 1.43 2.75l.28.5a70.2 70.2 0 0 0 1.85 3.15v.01c.44.7.89 1.39 1.34 2.07l.27.4c.43.64.88 1.27 1.34 1.9l.31.43c.47.64.94 1.26 1.42 1.87l.23.3a74.54 74.54 0 0 0 6.96 7.63l.25.24 1.64 1.51.5.43c.53.47 1.07.93 1.61 1.38l.56.46c.55.44 1.1.89 1.66 1.31l.48.36a74.74 74.74 0 0 0 5.97 4.08l.34.2c.55.34 1.11.67 1.68.98l.84.49a72.75 72.75 0 0 0 4.12 2.13l1.08.5 1.53.7 1.16.47 1.5.62a81.66 81.66 0 0 0 3.86 1.37l1.46.47 1.35.39a54 54 0 0 0 2.83.75l1.56.36a67.04 67.04 0 0 0 2.99.6l1.2.22 2.1.3.8.12c.97.12 1.93.21 2.9.3l.95.06a97.38 97.38 0 0 0 3.17.16c.62.02 1.24.04 1.87.04h1.18a108.01 108.01 0 0 0 5.06-.23l.97-.08c1-.1 2-.2 3.01-.34a75.56 75.56 0 0 0 23.42-7.06c36.54-17.91 38.41-19.1 85.29-21.37a88.46 88.46 0 0 0 79.95-118.6zM984.02 82.45h-932a50 50 0 0 0-50 50v16h1032v-16a50 50 0 0 0-50-50z"/><path d="M1036.02 150.45H.02v-18c0-28.67 23.33-52 52-52h932c28.68 0 52 23.33 52 52v18zm-1032-4h1028v-14c0-26.47-21.53-48-48-48h-932c-26.46 0-48 21.53-48 48v14z"/><path fill="#FF8630" d="M804.05 831.2h-80.5v-84l68.5-.5z"/><path fill="none" d="M723.63 831.2v-86.99"/><path d="M721.63 744.21h4v87h-4zM.04 146.2v512a50 50 0 0 0 50 50h648l.31-.24a88.92 88.92 0 0 1-32.3-53.56v11.8h-316v-30H664.6a88.74 88.74 0 0 1 4.76-26.8c14.73-44.8 14.28-46.98 10.63-87.71a75.65 75.65 0 0 1 17.23-55.34 76.45 76.45 0 0 1 11.6-11.29 75.7 75.7 0 0 1 48.23-16.17 75.69 75.69 0 0 1 47.82 18.06l227.17-7.75v-303H.04zm149 194h-128v-14h128v14zm141 0h-94v-14h94v14zm62-14h186.81v14h-186.8v-14zm268 222h-270v-30h270v30zm66-114h-336v-30h336v30z"/><path fill="#FF8630" d="M168.59 305.3h4v395.98h-4zm144.02 0h4v395.98h-4z"/><path fill="#FFF" d="M3.06 360.8h1024.46v4H3.06zm0 114.99h684.57v4H3.06zm0 115h669.57v4H3.06zM4.55 302.3h671.5v4H4.55z"/><circle fill="#FFF" cx="45.65" cy="115.31" r="16.5"/><circle cx="92.15" cy="115.31" r="16.5"/><circle fill="#FFF" cx="138.65" cy="115.31" r="16.5"/><path fill="#FF8630" d="M256 260.5 200.8 228v-7.88l55.17-34.26 8.56 13.52-39.83 24.08 39.84 23.53-8.55 13.5zm-51.2-34.79 49.89 29.38 4.27-6.75-42.06-24.84 42.07-25.43-4.26-6.72-49.91 30.99v3.37zm99.82 37.91c-8.96 0-15.83-2.59-20.45-7.7-4.56-5.03-6.87-13-6.87-23.67v-14.08h-11.14v-16.38h11.14v-12.33l18.63-5.3v17.63h29.47v16.38h-29.47v14.09c0 5.26.94 9.05 2.79 11.25 1.8 2.13 4.27 3.17 7.58 3.17a17.47 17.47 0 0 0 8.97-2.32 23.4 23.4 0 0 0 3.31-2.28l.18-.15 2.8-2.32 1.7-1.43 8.83 13.23-.98 1.15a23.77 23.77 0 0 1-5.21 4.5 42.5 42.5 0 0 1-13.77 5.72c-2.54.56-5.06.84-7.51.84zm-34.46-49.46h11.14v18.1c0 9.64 1.97 16.7 5.84 20.98 3.82 4.23 9.7 6.38 17.47 6.38 2.17 0 4.4-.25 6.67-.74a37.34 37.34 0 0 0 12.44-5.19 21 21 0 0 0 3.33-2.63l-4.64-6.96-1.1.91-.18.15a27.36 27.36 0 0 1-3.88 2.67 21.45 21.45 0 0 1-10.95 2.85c-4.5 0-8.08-1.55-10.64-4.6-2.51-2.98-3.73-7.5-3.73-13.83v-18.09h29.47v-8.37h-29.47v-16.34l-10.63 3.02v13.32h-11.14v8.38zm88.12 48.78c-6.08 0-11.01-1.69-14.66-5.02-3.7-3.38-5.57-7.89-5.57-13.4a20 20 0 0 1 1.95-9.06 16.6 16.6 0 0 1 5.7-6.39 25.97 25.97 0 0 1 8.6-3.55 48.38 48.38 0 0 1 15.24-.88c1 .1 2.16.2 3.5.3v-2.25c0-2.2-.54-3.69-1.66-4.54-1.28-.96-3.32-1.45-6.06-1.45-3.57 0-6.82.46-9.67 1.37-2.95.94-5.46 1.9-7.46 2.83l-2.1.98-4.64-15.37 1.6-.72c3.1-1.4 6.71-2.6 10.75-3.6a61.11 61.11 0 0 1 14.49-1.53c4.1 0 7.67.51 10.6 1.52a18.7 18.7 0 0 1 7.42 4.49c1.9 1.94 3.3 4.3 4.14 6.99a29.4 29.4 0 0 1 1.22 8.7c0 3.86-.14 7.22-.4 9.97a73.28 73.28 0 0 0-.4 7.01c0 1.52.08 3.22.22 5.07.06.43.12.85.16 1.26h7.5v16.37h-22.53l-1.08-5.59a23.54 23.54 0 0 1-4.64 3.67c-3.06 1.87-7.18 2.82-12.22 2.82zm6.81-34.54c-3.63 0-6.96.35-9.89 1.02-2.85.66-5.3 1.66-7.28 2.98a12.45 12.45 0 0 0-4.35 4.86c-1 2-1.52 4.44-1.52 7.26 0 4.4 1.4 7.82 4.27 10.45 2.93 2.67 6.84 3.97 11.96 3.97 4.3 0 7.7-.75 10.14-2.23a17.52 17.52 0 0 0 5.73-5.4l.59-.92h3.3l1.48 7.65h15.24v-8.37h-7.17l-.14-1.85c-.07-.91-.18-1.9-.33-2.91l-.01-.13c-.15-1.97-.23-3.8-.23-5.44 0-2.17.14-4.65.4-7.4a102 102 0 0 0 .39-9.59c0-2.78-.35-5.3-1.04-7.5a13.29 13.29 0 0 0-3.17-5.39 14.77 14.77 0 0 0-5.86-3.5 29.15 29.15 0 0 0-9.3-1.3c-5.22 0-9.77.48-13.54 1.41a63.34 63.34 0 0 0-8.45 2.68l2.3 7.6c1.7-.7 3.66-1.4 5.83-2.09a35.88 35.88 0 0 1 10.88-1.56c3.69 0 6.46.74 8.47 2.26 2.16 1.63 3.25 4.23 3.25 7.73v2.14c0 .87-.09 1.76-.26 2.64l-.34 1.73-1.76-.12c-2.23-.16-4.04-.3-5.54-.46a40.35 40.35 0 0 0-4.05-.22zm-2.06 22.5c-3.39 0-5.82-.75-7.44-2.3-1.63-1.54-2.46-3.67-2.46-6.33a7.3 7.3 0 0 1 1.4-4.46 9.45 9.45 0 0 1 3.37-2.78 16.04 16.04 0 0 1 4.31-1.42c3.3-.62 6.71-.5 9.63-.14 1.5.2 2.68.37 3.48.53l1.6.33v8.9l-.24.44a15.23 15.23 0 0 1-4.46 4.88c-2.15 1.58-5.16 2.35-9.2 2.35zm3.78-13.72a21 21 0 0 0-3.86.36 12.4 12.4 0 0 0-3.25 1.05 5.4 5.4 0 0 0-1.97 1.6c-.4.56-.6 1.23-.6 2.08 0 1.54.4 2.66 1.2 3.44.83.78 2.45 1.2 4.7 1.2 3.1 0 5.4-.54 6.82-1.58 1.36-1 2.4-2.07 3.08-3.15v-4.52l-1.59-.22c-1.4-.17-2.93-.26-4.53-.26zm65.49 26.22c-6.04 0-11.2-.73-15.33-2.14-4.12-1.41-7.25-2.8-9.57-4.24l-.95-.6v-60.76h-8.66V179.3h27.29v25c1.2-.83 2.57-1.54 4.07-2.13 2.89-1.14 6.44-1.72 10.58-1.72 7.95 0 14.44 2.55 19.27 7.59 4.82 5.02 7.25 12.56 7.25 22.42 0 5.25-.8 9.98-2.38 14.06a28.16 28.16 0 0 1-6.85 10.4 29.32 29.32 0 0 1-10.74 6.35 43.09 43.09 0 0 1-13.98 2.13zm-21.85-9.23a50.13 50.13 0 0 0 7.82 3.3c3.71 1.28 8.43 1.92 14.03 1.92 4.71 0 8.98-.64 12.69-1.92a25.34 25.34 0 0 0 9.29-5.46 24.22 24.22 0 0 0 5.86-8.95 34.86 34.86 0 0 0 2.12-12.6c0-8.8-2.07-15.41-6.14-19.66-4.11-4.28-9.47-6.36-16.4-6.36-3.62 0-6.69.48-9.1 1.44a14.2 14.2 0 0 0-5.59 3.73l-.6.68h-3.35v-27h-19.3v8.38h8.67v62.5zm24.33-3.15c-2.58 0-5.04-.33-7.3-.98a30.98 30.98 0 0 1-5.3-1.94l-1.1-.55v-24.98l.11-.32a11.14 11.14 0 0 1 2.67-4.18 17.9 17.9 0 0 1 11.82-5.26c5.02 0 8.92 1.6 11.6 4.76 2.59 3.06 3.9 7.55 3.9 13.33 0 3.35-.41 6.29-1.23 8.73-.83 2.5-2 4.62-3.48 6.31a14.14 14.14 0 0 1-5.37 3.86c-2 .8-4.12 1.22-6.32 1.22zm-9.7-6c.95.39 2.12.78 3.5 1.17 1.9.55 4 .83 6.2.83 1.69 0 3.3-.31 4.82-.93a10.14 10.14 0 0 0 3.86-2.78 14.34 14.34 0 0 0 2.7-4.94 23.94 23.94 0 0 0 1.02-7.47c0-4.81-1-8.43-2.96-10.74-1.9-2.25-4.7-3.35-8.54-3.35-.85 0-1.84.17-2.92.49a13.98 13.98 0 0 0-6.07 3.6 7.15 7.15 0 0 0-1.61 2.38v21.74zm83.95 18.6c-7.57 0-13.4-2.02-17.3-6-3.88-3.97-5.85-9.6-5.85-16.7v-45.25h-9.34v-16.38h27.97v53.98c0 6.68 1 9.65 1.82 10.96 1.06 1.67 2.7 2.45 5.18 2.45 2.1 0 3.83-.21 5.12-.63a20.04 20.04 0 0 0 4.09-1.9l1.78-1.07 7.4 13.58-1.55 1.01a67.4 67.4 0 0 1-3.94 2.37 26.75 26.75 0 0 1-9.39 3.16c-1.79.28-3.8.42-5.99.42zm-28.49-71.96h9.34v49.25c0 6.03 1.59 10.71 4.72 13.9 3.11 3.2 7.97 4.8 14.43 4.8 1.98 0 3.8-.12 5.37-.36 1.57-.25 3.03-.6 4.34-1.05 1.3-.44 2.55-1 3.71-1.65.72-.4 1.44-.82 2.15-1.25l-3.66-6.72c-1.02.51-2.06.94-3.08 1.27-1.71.56-3.8.83-6.35.83-4.82 0-7.31-2.34-8.56-4.3-1.64-2.6-2.44-6.9-2.44-13.11v-49.98h-19.97v8.37zm91.94 71.96c-5 0-9.57-.72-13.55-2.14a27.92 27.92 0 0 1-10.35-6.37c-2.82-2.78-5-6.16-6.49-10.05a36.83 36.83 0 0 1-2.2-13.14c0-5.2.84-9.83 2.51-13.78a28.06 28.06 0 0 1 6.97-9.98 29.09 29.09 0 0 1 10.32-5.98 39.3 39.3 0 0 1 21.88-.78c3.27.8 6.32 2.22 9.07 4.2a22.9 22.9 0 0 1 6.85 8.06c1.75 3.35 2.64 7.6 2.64 12.63a56 56 0 0 1-1.16 10.86l-.32 1.6H558.7a9.5 9.5 0 0 0 4.16 6.48c1.33.9 2.89 1.59 4.63 2.01 1.82.45 3.8.68 5.88.68 4.25 0 7.75-.5 10.4-1.46a21.56 21.56 0 0 0 6.44-3.48l1.93-1.6 6.65 13.14-1.1 1.03a23.1 23.1 0 0 1-4.15 2.92 38.84 38.84 0 0 1-5.7 2.55 46.13 46.13 0 0 1-15.37 2.6zm-.22-59.4c-4.04 0-7.84.58-11.29 1.75a25.14 25.14 0 0 0-8.92 5.15 24.11 24.11 0 0 0-5.97 8.58c-1.46 3.45-2.2 7.56-2.2 12.22 0 4.38.66 8.33 1.95 11.71a23.97 23.97 0 0 0 5.55 8.63 24 24 0 0 0 8.9 5.45 36.4 36.4 0 0 0 12.2 1.9 42.09 42.09 0 0 0 14-2.35 34.9 34.9 0 0 0 5.1-2.28c.84-.47 1.6-.95 2.24-1.43l-3.05-6.04a28.64 28.64 0 0 1-5.63 2.71c-3.09 1.13-7.04 1.7-11.76 1.7-2.4 0-4.7-.27-6.83-.8a18.09 18.09 0 0 1-5.94-2.6 14.02 14.02 0 0 1-4.33-4.7 14.94 14.94 0 0 1-1.77-7l-.07-2.07h40.9c.53-3 .79-5.85.79-8.46 0-4.38-.74-8-2.19-10.77a18.93 18.93 0 0 0-5.64-6.68 22.24 22.24 0 0 0-7.7-3.56 35.07 35.07 0 0 0-8.34-1.06zm14.26 23.85h-31.84l.17-2.16c.17-2.2.8-4.23 1.84-6.02a14.9 14.9 0 0 1 3.97-4.43 17.4 17.4 0 0 1 5.27-2.65c1.91-.6 3.96-.9 6.1-.9 4.75 0 8.4 1.31 10.85 3.9 2.41 2.55 3.64 6 3.64 10.26v2zm-27.3-4h23.18a9.41 9.41 0 0 0-2.43-5.51c-1.66-1.76-4.33-2.65-7.94-2.65-1.73 0-3.39.24-4.92.72-1.5.46-2.87 1.15-4.07 2.04a10.92 10.92 0 0 0-2.9 3.25 9.4 9.4 0 0 0-.92 2.15zm54.35 36.43L605 247l39.85-23.54-39.83-24.08 8.56-13.52 55.17 34.26V228l-55.2 32.5zm-2.97-12.16 4.27 6.75 49.89-29.38v-3.37l-49.91-31-4.26 6.73 42.07 25.43-42.06 24.84z"/><path fill="#FFF" d="m264.19 454.49-17.95-14.14-9.28 20.87-4.66-22.36-20.53 10.02 10.81-20.13-22.17-5.52 21.21-8.47-13.43-18.48 21.7 7.14 1.59-22.79 12.03 19.43 15.86-16.44-3.27 22.61 22.72-2.39-17.04 15.22 18.94 12.77-22.83.7z"/><circle fill="#FFF" cx="223.31" cy="533.79" r="24"/><circle fill="#FFF" cx="257.81" cy="533.79" r="24"/><path fill="#FFF" d="M206.82 629.78h67.5v39h-67.5zm502.01-174.72a75.7 75.7 0 0 1 48.22-16.17 75.69 75.69 0 0 1 47.83 18.06 75.6 75.6 0 0 1 23.26-3.64H978.7c14.16 0 29.95-.34 45.45 2.19a75.62 75.62 0 0 1 37.8-22.35c25.68-6.31 35.7-8.67 49.71-17.24 7.66-4.68 16.52-11.2 29.8-21.25a88.78 88.78 0 0 1 38.66-17.28 282.5 282.5 0 0 0 16.04-94.12C1196.15 126.93 1069.42.2 913.1.2S630.03 126.93 630.03 283.26a281.92 281.92 0 0 0 67.2 183.08 76.37 76.37 0 0 1 11.6-11.28z"/><path d="M804.88 456.94a75.6 75.6 0 0 1 23.26-3.63H978.7c14.16 0 29.95-.34 45.45 2.19a75.62 75.62 0 0 1 37.8-22.36c25.68-6.3 35.7-8.66 49.71-17.23a78.17 78.17 0 0 0-28.23-29.5 50.19 50.19 0 0 0-46.95-60.57v-.06H786.94v.04a50.19 50.19 0 0 0-46.62 64.69 77.68 77.68 0 0 0-31.54 62.55c0 .67.03 1.33.05 2a75.7 75.7 0 0 1 48.22-16.16 75.69 75.69 0 0 1 47.83 18.05z"/><path fill="#FF8630" d="M874.57 404.93h79.05v48.74h-79.05z"/><circle fill="#FFF" cx="914.09" cy="294.26" r="136.28"/><path fill="#FF8630" d="M797.8 267.55c1.56 0 3.1.1 4.61.27 14.13-48.81 59.15-84.5 112.52-84.5s98.4 35.69 112.53 84.5a40.67 40.67 0 1 1-5.3 79.85c-18.17 41.17-59.34 69.9-107.23 69.9-47.88 0-89.05-28.73-107.21-69.9a40.67 40.67 0 1 1-9.92-80.12z"/><path d="M914.93 419.58a119.26 119.26 0 0 1-108.36-69.6 42.72 42.72 0 0 1-51.44-41.76 42.72 42.72 0 0 1 45.83-42.55 120.08 120.08 0 0 1 41.78-60c20.89-15.94 45.85-24.36 72.2-24.36s51.3 8.42 72.18 24.36a120.08 120.08 0 0 1 41.78 60 42.72 42.72 0 0 1 45.83 42.55A42.72 42.72 0 0 1 1023.3 350a119.24 119.24 0 0 1-108.37 69.59zm-106.06-74.26.68 1.54c18.41 41.75 59.78 68.72 105.38 68.72s86.98-26.97 105.39-68.72l.68-1.54 1.64.41a38.72 38.72 0 0 0 48.1-37.5 38.72 38.72 0 0 0-43.06-38.43l-1.67.2-.47-1.63a116 116 0 0 0-40.84-59.52 114.07 114.07 0 0 0-69.77-23.54c-25.45 0-49.57 8.14-69.76 23.54a116 116 0 0 0-40.84 59.52l-.47 1.62-1.67-.19a38.72 38.72 0 0 0-43.06 38.42 38.71 38.71 0 0 0 48.1 37.51l1.64-.4z"/><path d="M1027.73 326.58a2 2 0 0 1-1.47-3.35l24.94-27.12a2 2 0 1 1 2.94 2.7l-24.94 27.12a2 2 0 0 1-1.47.65zm-220.73 0a2 2 0 0 1-1.47-.65l-24.95-27.11a2 2 0 0 1 2.95-2.71l24.94 27.11a2 2 0 0 1-1.47 3.36z"/><circle cx="961.52" cy="313.96" r="15.45"/><path d="M936.17 317.44a2 2 0 0 1-1.64-3.13 39.43 39.43 0 0 1 65.02 0 2 2 0 0 1-3.3 2.26 35.43 35.43 0 0 0-58.43 0 2 2 0 0 1-1.65.87z"/><circle cx="860.66" cy="313.96" r="15.46"/><path d="M897.04 317.44a2 2 0 0 1-1.65-.87 35.44 35.44 0 0 0-58.43 0 2 2 0 1 1-3.3-2.26 39.43 39.43 0 0 1 65.03 0 2 2 0 0 1-1.65 3.13z"/><path fill="none" d="M915.75 313v22.5"/><path d="M915.75 337.5a2 2 0 0 1-2-2V313a2 2 0 0 1 4 0v22.5a2 2 0 0 1-2 2z"/><path fill="#FFF" d="M894.98 348.28a20.36 20.36 0 1 0 40.72 0"/><path d="M914.56 182.82c-53.95.79-99.25 37.28-113.3 86.9a96.9 96.9 0 0 0 16.54 1.41c50.68 0 92.28-38.8 96.76-88.3z"/><path d="M913.94 182.87c53.94.78 99.25 37.27 113.3 86.9a97.93 97.93 0 0 1-16.54 1.41c-50.68 0-92.29-38.8-96.76-88.31z"/><path fill="#FFF" d="M1062.04 759.2h-268l9 71h249z"/><path fill="none" d="M793.38 461.8v.01l1.15-.6-1.15.6zm7.84-3.55.8-.31-.7.27-.1.04zm-17.17 9.51c.39-.3.78-.6 1.19-.88l-.02.01-1.17.87zm5.13-3.53.56-.35h-.01l-.55.35z"/><path fill="#FFF" d="m788.32 720.03-1.52-10.83zm-36.42 7.07a88.48 88.48 0 0 1-46.86-14.32v46.17h88.75l-5.47-38.92a88.58 88.58 0 0 1-36.43 7.08z"/><path d="m753.51 729.12-1.65-.01a90.66 90.66 0 0 1-47.9-14.66 90.48 90.48 0 0 1-41.38-77.87 90.83 90.83 0 0 1 4.88-27.82c14.4-43.8 14.2-46.15 10.68-85.32l-.15-1.57a79.82 79.82 0 0 1-.3-8.37 77.14 77.14 0 0 1 18-48.44 78.64 78.64 0 0 1 11.9-11.57 77.27 77.27 0 0 1 49.5-16.6c17.97.33 35.4 6.9 49.08 18.53l2.73 2.32-3.41 1.1c-.94.31-1.86.64-2.78.97l-.78.3a70.52 70.52 0 0 0-6.21 2.74l-.06.05-.3.13-.77.4-.48.26a67.68 67.68 0 0 0-3.33 1.9l-.54.33c-1.3.81-2.54 1.65-3.7 2.49l-.2.14a66.99 66.99 0 0 0-4 3.15l-.52.46-.16.14c-.41.37-.83.74-1.23 1.12l-.59.56c-.67.64-1.32 1.3-1.96 1.96l-1.24 1.33-.76.85-.17.2a59.19 59.19 0 0 0-2.63 3.3l-.13.18a52.4 52.4 0 0 0-2.27 3.31l-.4.63c-.45.73-.89 1.48-1.3 2.24l-.28.48c-.5.93-.98 1.86-1.42 2.79l-.22.5c-.36.77-.7 1.56-1.02 2.36l-.32.78c-.33.85-.64 1.7-.92 2.55l-.14.4a55.97 55.97 0 0 0-.93 3.2l-.05.22-.07.32c-.2.78-.38 1.58-.54 2.4l-.06.3-.11.55a57.55 57.55 0 0 0-.49 3.03l-.01.1a54.63 54.63 0 0 0-.44 7.9 59.72 59.72 0 0 0 1.01 10.32c.21 1.14.43 2.17.66 3.13l.03.19 26.85 191.77-1.4.6a90.28 90.28 0 0 1-35.6 7.25zm2.16-288.24a73.23 73.23 0 0 0-45.6 15.75 74.51 74.51 0 0 0-11.31 11 73.18 73.18 0 0 0-17.07 45.94c-.04 2.6.05 5.27.3 7.94l.13 1.57c3.52 39.14 3.8 42.34-10.86 86.95a86.82 86.82 0 0 0-4.68 26.62 86.5 86.5 0 0 0 39.56 74.45 86.67 86.67 0 0 0 45.79 14 85.95 85.95 0 0 0 34.2-6.32L759.7 530.14a69.34 69.34 0 0 1-1.4-8.35 64.53 64.53 0 0 1-.17-11.5c.07-.9.16-1.8.28-2.7l.01-.13a60.36 60.36 0 0 1 .66-3.98l.06-.29c.17-.87.36-1.73.57-2.58l.04-.18a7.91 7.91 0 0 1 .15-.58c.3-1.15.62-2.24.95-3.25l.15-.42a58.46 58.46 0 0 1 2.42-6.11l.24-.53c.47-1 .98-2 1.51-2.98l.3-.52c.45-.82.92-1.62 1.4-2.41l.42-.66a62.5 62.5 0 0 1 2.43-3.55l.14-.19a51.36 51.36 0 0 1 2.33-2.96l.48-.57.72-.82v-.45l.77-.4.24-.26.07-.1.51-.5c.68-.71 1.38-1.4 2.09-2.09l.14-.14.48-.45c.43-.4.87-.8 1.32-1.19l.15-.13.56-.49a69.1 69.1 0 0 1 4.31-3.4l.07-.06a73.26 73.26 0 0 1 4-2.69l.66-.4c1.12-.69 2.3-1.36 3.6-2.04l.34-.19.63-.33.25-.13.03-.02.07-.03a74.05 74.05 0 0 1 6.81-3l.34-.14a74.16 74.16 0 0 0-45.17-15.37z"/><path d="m801.91 831.1-42.2-300.95a69.89 69.89 0 0 1-1.4-8.38 59.74 59.74 0 0 1-.35-5.76v-.11a60.78 60.78 0 0 1 .47-8.4l.02-.16a59.23 59.23 0 0 1 1.28-6.73l.06-.25.13-.54c.3-1.14.61-2.2.95-3.23l.13-.4a59.1 59.1 0 0 1 2.45-6.18l.2-.45c.5-1.02 1-2.04 1.54-3.02l.26-.46c.46-.83.95-1.66 1.45-2.47l.4-.63a61.1 61.1 0 0 1 1.84-2.76l.14-.2.3-.4.16-.2c.28-.4.57-.79.87-1.18l.32-.4c.4-.53.84-1.05 1.27-1.56l.16-.2.32-.38c.4-.47.82-.93 1.25-1.4l1.2-1.27.63-.65.1-.1c.2-.2.4-.42.62-.62l.4-.38.82-.78a55.56 55.56 0 0 1 1.17-1.07l.32-.28.56-.49a66.49 66.49 0 0 1 7.74-5.73l1.21-.76c.4-.25.82-.49 1.23-.73l.09-.05c.36-.21.73-.43 1.1-.63l1.1-.6.49-.26.92-.48 1.24-.6.46-.22.86-.41c.41-.2.83-.37 1.24-.55l.7-.3.7-.3c.48-.2.97-.39 1.46-.57l1.24-.48a77.47 77.47 0 0 1 26.61-4.67H978.7l4.55-.01 4.76-.01c11.04 0 23.87.17 36.46 2.23l3.66.6-2.51 2.72a74.06 74.06 0 0 0-15.77 73.38l.19.58a75 75 0 0 0 1.83 4.84l.19.45.18.4c.37.87.77 1.73 1.18 2.59l.37.76c.45.91.92 1.81 1.4 2.7l.27.48a74.52 74.52 0 0 0 3.13 5.12l.27.4c.42.61.85 1.23 1.3 1.85l.3.41c.46.63.92 1.24 1.4 1.84l.22.29a74.1 74.1 0 0 0 6.81 7.46l.24.24c.54.5 1.07.99 1.62 1.47l.48.43c.52.46 1.04.9 1.58 1.35l.54.45 1.63 1.29.47.35a74.3 74.3 0 0 0 5.84 3.99l.34.2c.53.33 1.08.64 1.63.96l.16.09.66.38a73.48 73.48 0 0 0 5.09 2.57l1.5.68.81.34.71.3c.36.14.73.3 1.1.43a72.64 72.64 0 0 0 3.77 1.34l.26.09 1.17.38 1.12.32.2.06a75.94 75.94 0 0 0 5.57 1.36l1.64.31.38.07a42.63 42.63 0 0 0 2.85.44l.8.12c.94.11 1.88.2 2.83.29l.53.04.4.02a67.65 67.65 0 0 0 2.88.15l.21.01 1.83.03h1.16c.61 0 1.22-.02 1.84-.04l.14-.01.98-.04c.66-.03 1.32-.08 1.99-.13l.96-.08c.98-.09 1.96-.2 2.94-.32l2.65-.35-39.07 250.79-251.41.34zm-39.53-322.98a59.9 59.9 0 0 0-.42 7.75v.11a55.51 55.51 0 0 0 .33 5.37 62.03 62.03 0 0 0 1.34 7.96l.03.19 41.73 297.6 244.5-.32 37.73-242.18-.46.04-.62.05-.39.03-2.1.14-1.04.04h-.14c-.65.03-1.3.05-1.94.05h-1.22l-1.93-.03h-.2a64.29 64.29 0 0 1-3.06-.16l-.37-.03-.62-.04c-1-.09-1.99-.19-2.98-.31l-.52-.07-.32-.05c-.72-.1-1.44-.2-2.16-.32l-.87-.15-.37-.07a74.66 74.66 0 0 1-7.6-1.76l-.2-.06-1.2-.35-1.24-.4-.26-.08a82.02 82.02 0 0 1-5.15-1.9l-.7-.28a51.86 51.86 0 0 1-3.57-1.6 86.82 86.82 0 0 1-4.97-2.6l-.15-.1c-.57-.32-1.15-.65-1.72-1l-.36-.22a78.45 78.45 0 0 1-6.15-4.2l-.5-.37c-.57-.44-1.14-.9-1.7-1.36l-.58-.47c-.56-.46-1.12-.94-1.67-1.42l-.5-.45a77.65 77.65 0 0 1-1.7-1.55l-.25-.24a78.03 78.03 0 0 1-7.19-7.89l-.23-.3c-.5-.63-.99-1.27-1.47-1.93l-.33-.44c-.47-.65-.93-1.3-1.38-1.97l-.27-.41c-.47-.7-.93-1.4-1.38-2.13l-.3-.5a77.7 77.7 0 0 1-1.62-2.76l-.27-.5c-.52-.94-1.02-1.9-1.49-2.85l-.4-.81c-.43-.9-.84-1.8-1.24-2.73l-.16-.36-.23-.53a79.26 79.26 0 0 1-1.42-3.62c-.19-.5-.36-1.02-.52-1.53l-.18-.56a78.06 78.06 0 0 1 14.17-74.55c-11.14-1.5-22.4-1.64-32.21-1.64h-4.76l-4.56.01H828.14a73.46 73.46 0 0 0-25.25 4.44l-1.18.45-1.37.54-.6.26-.73.32-1.15.5-.78.37-.48.24c-.4.18-.78.37-1.17.56l-.84.44-.5.27c-.34.18-.69.36-1.02.55l-1.04.6-.09.05c-.4.23-.78.45-1.16.69l-1.14.72a51.97 51.97 0 0 0-3.23 2.19 53.4 53.4 0 0 0-3.23 2.5l-.83.7-.5.45-.66.57-.76.7-1.15 1.1-.59.58-.1.1-.58.6-1.13 1.2c-.4.43-.79.87-1.17 1.31l-.45.54-1.2 1.46-.3.39-.81 1.09-.19.25a16 16 0 0 0-.25.33l-.1.16a57.1 57.1 0 0 0-1.75 2.6l-.36.58c-.47.76-.92 1.53-1.36 2.32l-.23.42c-.5.92-.98 1.87-1.43 2.82l-.2.43a55.6 55.6 0 0 0-2.28 5.77l-.13.36c-.31.95-.6 1.94-.88 3l-.18.74c-.2.8-.38 1.6-.54 2.4l-.17.85a54.8 54.8 0 0 0-.48 3.02l-.04.28z"/><path d="m790.78 465.59-2.08-3.42a65.57 65.57 0 0 1 2.42-1.41l1.1-.6.14-.07.03.06.9 1.7v-.01l.95 1.78-1.83 1-.47.28-1.16.68zm3.53-2.01-1.95-3.5.08-.03 1.87 3.53-.03-.06.03.06zm-7.91 4.92-2.34-3.24a65.55 65.55 0 0 1 3.43-2.33l.22-.14.4-.26 2.14 3.4-.4.24c-.7.44-1.37.89-2.04 1.35l-.4.27-1 .7zm293.64 116.46h-.33c-.65 0-1.29-.02-1.93-.04h-.2l-.98-.04c-.7-.03-1.4-.08-2.09-.13l-.36-.02-.62-.04c-1-.09-2-.2-2.98-.31l-.52-.08-.32-.04c-.72-.1-1.44-.2-2.16-.32l-.87-.15-.37-.07a74.66 74.66 0 0 1-7.6-1.76l-.2-.06-1.2-.35-1.25-.4-.25-.08a82.02 82.02 0 0 1-5.15-1.9l-.7-.28a48.6 48.6 0 0 1-2.45-1.08l-1.12-.52a90.22 90.22 0 0 1-4.98-2.6l-.14-.1c-.58-.32-1.16-.66-1.72-1l-.36-.22a78.59 78.59 0 0 1-6.15-4.2l-.5-.37c-.57-.44-1.14-.9-1.7-1.36l-.59-.47-1.66-1.42-.5-.45a77.65 77.65 0 0 1-1.7-1.56l-.25-.24a77.79 77.79 0 0 1-7.19-7.88l-.24-.3c-.5-.63-.98-1.28-1.46-1.93l-.33-.44c-.47-.65-.93-1.31-1.38-1.98l-.27-.4a74.5 74.5 0 0 1-3.3-5.4l-.28-.5c-.51-.94-1-1.88-1.48-2.84l-.4-.81c-.43-.9-.84-1.81-1.24-2.73l-.16-.36-.23-.53a76.14 76.14 0 0 1-1.94-5.16l-.19-.55a78.06 78.06 0 0 1 47.4-97.86 79.34 79.34 0 0 1 8.02-2.43l1.43-.35c24.2-5.94 34.22-8.4 47.72-16.65 7.44-4.54 15.81-10.68 29.62-21.14a90.78 90.78 0 0 1 39.52-17.65 90.6 90.6 0 0 1 16.25-1.47 91.2 91.2 0 0 1 85.46 59.9 90.31 90.31 0 0 1-3.09 69.52 90.33 90.33 0 0 1-51.34 46.97 90.83 90.83 0 0 1-27.73 5.4c-46.05 2.23-48.17 3.27-83.48 20.58l-1.42.7a78.54 78.54 0 0 1-27.92 7.69l-.34.02-2.1.14-1.04.04h-.14c-.65.03-1.3.04-1.94.05h-.9zM1196 377.94a86.55 86.55 0 0 0-29.66 5.23 86.87 86.87 0 0 0-23.68 13.07c-13.93 10.55-22.39 16.74-29.97 21.38-14.03 8.57-24.23 11.07-48.86 17.12l-1.42.35a73.14 73.14 0 0 0-36.8 21.77 74.06 74.06 0 0 0-15.77 73.37l.18.58c.16.47.3.94.48 1.4.4 1.09.84 2.21 1.35 3.44l.2.45.18.4c.37.86.76 1.73 1.17 2.58l.38.77c.45.9.92 1.8 1.4 2.7l.27.47a74.52 74.52 0 0 0 3.13 5.12l.26.4c.42.62.86 1.24 1.3 1.86l.31.4c.46.64.92 1.25 1.4 1.85l.22.28a73.57 73.57 0 0 0 6.8 7.47l.25.23c.53.5 1.07 1 1.61 1.48l.48.43c.52.46 1.05.9 1.58 1.35l.55.44 1.63 1.3.47.34a74.43 74.43 0 0 0 5.84 4l.33.2c.54.33 1.09.64 1.63.95l.16.1.67.37a78.31 78.31 0 0 0 7.4 3.6l.71.29 1.09.44a72.64 72.64 0 0 0 3.77 1.34l.26.09 1.17.37 1.12.33.2.06a75.94 75.94 0 0 0 5.57 1.36l1.64.31.39.07.8.14c.68.11 1.36.2 2.05.3l.8.11c.93.12 1.88.22 2.82.3l.54.03.4.03a67.65 67.65 0 0 0 2.88.15h.2c.62.03 1.23.04 1.84.04h1.16c.6-.01 1.22-.02 1.83-.05h.15l.97-.04c.67-.04 1.33-.08 2-.14l.36-.02.6-.05a74.52 74.52 0 0 0 25.96-7.3l1.31-.64c35.29-17.3 38.17-18.7 85.07-20.98 9.08-.33 18-2.07 26.53-5.16a86.36 86.36 0 0 0 49.08-44.9 86.34 86.34 0 0 0 2.96-66.46 87.2 87.2 0 0 0-81.7-57.27z"/><circle fill="#FFF" cx="1210.05" cy="447.2" r="58"/><path fill="#FF8630" d="m1168.16 451.87-48.69-153.5s-6.55-10.9-10.95-15.43a63.65 63.65 0 0 1-12.1-17.78 126.65 126.65 0 0 1-6.21-16.8l-8.54-27.91-9.02-29.5s.06-.02.05-.04a12.95 12.95 0 1 1 25.08-6.4l8.67 28.36.1-.03-11.44-37.4s.06-.02.05-.04a12.96 12.96 0 1 1 25.08-6.4l11.09 36.26.1-.03-13.85-45.3s.06-.02.05-.03a12.96 12.96 0 1 1 25.08-6.4l13.5 44.15.1-.03-11.43-37.4s.06-.02.05-.04a12.94 12.94 0 1 1 25.07-6.4l14.24 46.54.6.14-1.14-22.54.06-.01a12.96 12.96 0 1 1 25.88-.15l2.76 53.76a36.52 36.52 0 0 1-6.97 26.45c-1.9 3.16-4.94 9.12-4.73 14.62.03.46.07.93.13 1.38l-.02.01 48.73 150.97a42.82 42.82 0 1 1-81.32 26.9l-.06.02z"/><path d="M1208.98 483.51a45.09 45.09 0 0 1-42.52-30.6 1.9 1.9 0 0 1-.2-.44l-48.62-153.27c-.9-1.49-6.68-10.89-10.55-14.87a65.9 65.9 0 0 1-12.48-18.32 130.37 130.37 0 0 1-6.32-17.07l-17.56-57.41a1.96 1.96 0 0 1-.08-.53c-1-3.61-.57-7.5 1.23-10.9a14.85 14.85 0 0 1 13.22-7.94c2.81 0 5.47.77 7.74 2.15a14.99 14.99 0 0 1 22.46-15.5 14.98 14.98 0 0 1 14.72-17.66c6.04 0 11.36 3.55 13.71 8.98l.38-.76a14.85 14.85 0 0 1 13.2-7.93 14.88 14.88 0 0 1 14.63 11.86l10.2 33.32-.44-8.6c0-.17 0-.34.04-.51a14.98 14.98 0 0 1 14.18-15.22 14.93 14.93 0 0 1 15.72 15.46l2.75 53.6a38.72 38.72 0 0 1-7.3 27.74c-1.75 2.92-4.59 8.47-4.4 13.42.03.4.06.8.11 1.15l48.64 150.68a44.65 44.65 0 0 1-26.54 56.24 44.66 44.66 0 0 1-15.92 2.93zm-39.05-32.68c.08.12.14.26.19.4a41.06 41.06 0 0 0 38.86 28.28c4.95 0 9.83-.9 14.5-2.67a40.67 40.67 0 0 0 24.16-51.24l-48.74-151a16.28 16.28 0 0 1-.2-1.91c-.24-6.06 3.04-12.47 5.02-15.75l.1-.17a34.71 34.71 0 0 0 6.58-25.15l-2.76-53.76v-1.21a10.96 10.96 0 0 0-21.89 1.15c.01.17 0 .33-.03.49l1.1 22.07a2 2 0 0 1-2.48 2.03l-.34-.07-.2-.05a2 2 0 0 1-1.48-1.36l-14.24-46.54a10.8 10.8 0 0 0-10.77-8.94 11 11 0 0 0-9.67 5.82 10.88 10.88 0 0 0-.8 8.35 1.97 1.97 0 0 1 .09.5l11.3 36.93a2 2 0 0 1-1.38 2.51l-.1.03a2 2 0 0 1-2.45-1.34l-13.5-44.15a10.9 10.9 0 0 0-13.98-8.45 10.97 10.97 0 0 0-7.28 13.68c.05.15.07.31.09.47l13.71 44.86a2 2 0 0 1-1.34 2.5l-.1.03a2 2 0 0 1-2.48-1.33l-11.1-36.25a10.9 10.9 0 0 0-13.98-8.45 10.98 10.98 0 0 0-7.26 13.68c.04.15.07.3.08.46l11.3 36.97a2 2 0 0 1-1.31 2.5l-.1.03a2 2 0 0 1-2.51-1.33l-8.67-28.35a10.89 10.89 0 0 0-13.98-8.45c-2.8.85-5.1 2.75-6.47 5.33a10.88 10.88 0 0 0-.8 8.34c.04.16.07.32.07.48l17.43 56.97c2.12 6.95 4.01 12.05 6.12 16.54a61.12 61.12 0 0 0 11.72 17.23c4.5 4.64 10.96 15.34 11.23 15.8.08.13.14.27.2.42l48.54 153.07z"/><g fill-rule="evenodd" clip-rule="evenodd" fill="#FFF"><path d="m100.52 243.93 1.65-15.67c.01-.12 0-.24 0-.56-1.37.65-2.63 1.2-3.84 1.82-8.45 4.4-17.4 7.43-26.66 9.54-4.6 1.04-9.22 1.87-13.96 1.91a9.42 9.42 0 0 1-6.96-2.6 282.6 282.6 0 0 1-15.88-16.25c-1.47-1.63-2.92-3.28-4.49-5.04l1.07-.46c1.42-.64 3.4-1.66 4.8-2.34l24.61 7.91c.83.27 1.48.2 2.25-.17 14.92-7.17 29.85-14.3 44.78-21.45 11.32-5.42 22.63-10.86 33.96-16.26 4.25-2.02 8.79-2.47 13.42-2.27 2.73.12 5.4.59 7.93 1.7 1.64.7 3 1.73 3.83 3.37 1.2 2.32.57 4.46-.64 6.51a18.3 18.3 0 0 1-8.09 7.22c-8.71 4.21-17.45 8.37-26.2 12.53-.59.28-.94.64-1.17 1.27-5.98 16.7-11.99 33.4-17.99 50.1-.72 2-1.4 4.04-2.19 6.02a5.38 5.38 0 0 1-2.7 2.96l-11.22 5.23 3.69-35.02z"/><path d="M69.1 185.97a6.48 6.48 0 0 1 5.07-.35l29.65 10.15-5.04 2.38c-5.27 2.48-10.55 4.94-15.82 7.44-.74.35-1.28.32-1.99-.14L59.1 191.08l10.01-5.1z"/></g><path d="M35.48 428.46H41v-15.73l-4.75 3.63-2.16-2.88 8.2-6.26h3.17v21.24h5.4v3.96H35.48v-3.96zm26.32.32a8 8 0 0 0 2.2-.28 5.5 5.5 0 0 0 1.74-.83 3.8 3.8 0 0 0 1.57-3.13c0-1.32-.53-2.36-1.57-3.12s-2.61-1.13-4.7-1.13a24.84 24.84 0 0 0-1.9.07c-.37.02-.74.04-1.12.04v-13.18h13.03v4.4h-9v4.85c.2 0 .38-.01.58-.03l.48-.02.42-.02c1.2 0 2.31.17 3.34.52a7.23 7.23 0 0 1 4.48 4.1c.43 1 .64 2.1.64 3.3a8.3 8.3 0 0 1-.8 3.73c-.52 1.06-1.24 1.96-2.16 2.68s-1.96 1.27-3.16 1.64c-1.2.37-2.49.56-3.86.56-.52 0-1.09-.06-1.69-.17a20.92 20.92 0 0 1-3.37-.91c-.49-.2-.9-.38-1.24-.54l1.52-3.75c.4.24 1.03.5 1.89.8s1.74.42 2.68.42zm20.95-11.77c0-.84.26-1.5.8-2a2.92 2.92 0 0 1 2.08-.73c.91 0 1.63.24 2.16.73.53.5.8 1.16.8 2 0 .84-.27 1.51-.8 2.02a3 3 0 0 1-2.16.75 2.9 2.9 0 0 1-2.09-.75 2.65 2.65 0 0 1-.79-2.02zm0 13.03c0-.84.26-1.5.8-2a2.92 2.92 0 0 1 2.08-.73c.91 0 1.63.24 2.16.73.53.5.8 1.16.8 2 0 .84-.27 1.52-.8 2.02a3 3 0 0 1-2.16.76 2.9 2.9 0 0 1-2.09-.76 2.65 2.65 0 0 1-.79-2.02zm22.65-1.08c.78 0 1.51-.1 2.17-.3s1.23-.5 1.7-.86.83-.8 1.1-1.3.39-1.01.39-1.59a3.4 3.4 0 0 0-.45-1.8 3.2 3.2 0 0 0-1.25-1.17 5.97 5.97 0 0 0-1.9-.6c-.75-.13-1.55-.19-2.42-.19h-2.01v-2.58l6.05-7.4h-9.11v-3.95h14.69v3.27l-6.34 7.24h.83c.84 0 1.66.14 2.45.43a6.03 6.03 0 0 1 3.58 3.46c.37.86.56 1.86.56 2.99 0 1.36-.28 2.56-.85 3.6-.56 1.03-1.3 1.9-2.23 2.6s-1.99 1.24-3.19 1.6c-1.2.34-2.43.51-3.7.51-1.08 0-2.16-.1-3.24-.29a15.45 15.45 0 0 1-3.14-.9l1.26-3.88a5 5 0 0 0 .89.36 20.89 20.89 0 0 0 2.7.64c.49.08.97.11 1.45.11zm14.03-9.18c0-2.18.23-4.1.69-5.74s1.1-3 1.93-4.09c.84-1.08 1.83-1.89 2.99-2.43s2.44-.8 3.86-.8c3.04 0 5.37 1.06 7.01 3.18s2.46 5.42 2.46 9.88c0 2.21-.23 4.14-.69 5.78s-1.1 3.01-1.93 4.1c-.83 1.1-1.83 1.91-3 2.45s-2.46.81-3.89.81c-3.06 0-5.4-1.12-7-3.36s-2.43-5.5-2.43-9.78zm4.68 0a27.78 27.78 0 0 0 .08 2.02l8.7-8.03c-.7-2.06-2.05-3.1-4.03-3.1-1.52 0-2.7.74-3.51 2.22-.83 1.48-1.24 3.77-1.24 6.9zm9.58 0a31.96 31.96 0 0 0-.07-2.12l-8.75 8.03c.74 2.18 2.08 3.27 4.03 3.27 1.53 0 2.7-.73 3.54-2.2s1.25-3.78 1.25-6.98zM35.48 539.45H41v-15.73l-4.75 3.64-2.16-2.88 8.2-6.27h3.17v21.24h5.4v3.96H35.48v-3.96zm26.32.33c.8 0 1.52-.1 2.2-.29.67-.2 1.25-.47 1.74-.83a3.76 3.76 0 0 0 1.57-3.13c0-1.32-.53-2.36-1.57-3.11s-2.61-1.14-4.7-1.14a24.84 24.84 0 0 0-1.9.07c-.37.03-.74.04-1.12.04v-13.18h13.03v4.4h-9v4.86c.2 0 .38-.02.58-.04.16 0 .33 0 .48-.02s.3-.02.42-.02c1.2 0 2.31.18 3.34.53s1.94.87 2.7 1.56a7.1 7.1 0 0 1 1.79 2.54c.42 1 .63 2.1.63 3.3a7.75 7.75 0 0 1-2.95 6.4 9.68 9.68 0 0 1-3.17 1.64c-1.2.37-2.49.56-3.86.56-.52 0-1.09-.06-1.69-.16a20.54 20.54 0 0 1-3.37-.92c-.49-.2-.9-.37-1.24-.54l1.52-3.74a10.4 10.4 0 0 0 4.57 1.22zM82.75 528c0-.83.26-1.5.8-2a2.96 2.96 0 0 1 2.08-.73c.91 0 1.63.25 2.16.74.53.49.8 1.16.8 2 0 .84-.27 1.5-.8 2.01a3 3 0 0 1-2.16.76 2.9 2.9 0 0 1-2.09-.76 2.63 2.63 0 0 1-.79-2.01zm0 13.04c0-.84.26-1.5.8-2 .52-.5 1.22-.74 2.08-.74.91 0 1.63.25 2.16.74.53.5.8 1.16.8 2 0 .84-.27 1.51-.8 2.02a3 3 0 0 1-2.16.75 2.9 2.9 0 0 1-2.09-.75 2.65 2.65 0 0 1-.79-2.02zm22.25-1.26c.79 0 1.52-.1 2.2-.29.66-.2 1.25-.47 1.74-.83s.87-.8 1.15-1.33c.28-.53.41-1.13.41-1.8 0-1.32-.52-2.36-1.56-3.11s-2.61-1.14-4.7-1.14a24.84 24.84 0 0 0-1.9.07c-.37.03-.74.04-1.12.04v-13.18h13.03v4.4h-9v4.86c.2 0 .38-.02.57-.04.17 0 .33 0 .5-.02s.28-.02.4-.02c1.2 0 2.32.18 3.35.53s1.93.87 2.7 1.56a7.1 7.1 0 0 1 1.78 2.54c.42 1 .63 2.1.63 3.3a7.75 7.75 0 0 1-2.95 6.4 9.68 9.68 0 0 1-3.17 1.64c-1.2.37-2.48.56-3.85.56-.53 0-1.09-.06-1.69-.16a20.54 20.54 0 0 1-3.37-.92c-.49-.2-.9-.37-1.24-.54l1.51-3.74c.41.24 1.04.5 1.9.79a8.5 8.5 0 0 0 2.68.43zm14.43-9c0-2.19.23-4.1.69-5.74s1.1-3.01 1.93-4.09a8.03 8.03 0 0 1 2.99-2.43 9.04 9.04 0 0 1 3.86-.81c3.04 0 5.37 1.06 7.01 3.19 1.64 2.12 2.46 5.41 2.46 9.88 0 2.2-.23 4.13-.69 5.78a12.05 12.05 0 0 1-1.93 4.1 7.9 7.9 0 0 1-3 2.45 9.14 9.14 0 0 1-3.89.8c-3.06 0-5.4-1.11-7-3.36s-2.43-5.5-2.43-9.77zm4.68 0a27.8 27.8 0 0 0 .08 2.01l8.7-8.02c-.7-2.07-2.05-3.1-4.03-3.1-1.52 0-2.7.74-3.51 2.21-.83 1.48-1.24 3.78-1.24 6.9zm9.58 0a32 32 0 0 0-.07-2.13l-8.75 8.03c.74 2.19 2.08 3.28 4.03 3.28 1.53 0 2.7-.73 3.54-2.2.83-1.46 1.25-3.79 1.25-6.98zM35.48 651.95H41v-15.73l-4.75 3.63-2.16-2.88 8.2-6.26h3.17v21.24h5.4v3.96H35.48v-3.96zm37.44-3.85a8.04 8.04 0 0 1-2.48 5.9 9.06 9.06 0 0 1-6.2 2.41c-1.24 0-2.41-.2-3.5-.6a7.94 7.94 0 0 1-4.8-4.76 11.2 11.2 0 0 1-.73-4.18c0-2.37.41-4.53 1.24-6.48.83-1.94 1.9-3.63 3.19-5.06s2.75-2.58 4.35-3.45c1.61-.88 3.2-1.44 4.8-1.68l1.04 3.71c-1.28.24-2.46.63-3.57 1.17a13 13 0 0 0-2.95 1.96 11.8 11.8 0 0 0-2.18 2.56 9 9 0 0 0-1.2 2.92c.48-.6 1.2-1.11 2.16-1.53s2.01-.63 3.16-.63c1.08 0 2.1.17 3.03.52a6.92 6.92 0 0 1 4.05 3.94c.4.96.6 2.05.6 3.28zm-4.53.18c0-1.3-.4-2.28-1.17-2.96-.78-.67-1.83-1-3.15-1a5.2 5.2 0 0 0-4.29 2.16c-.05.26-.08.55-.09.88l-.02.77c0 .58.1 1.13.3 1.66a3.98 3.98 0 0 0 2.19 2.32 4.6 4.6 0 0 0 1.83.34 4.63 4.63 0 0 0 3.02-1.15 3.85 3.85 0 0 0 1.37-3.02zm14.36-7.78c0-.84.26-1.5.8-2a2.92 2.92 0 0 1 2.08-.74c.91 0 1.63.25 2.16.74.53.5.8 1.16.8 2 0 .84-.27 1.51-.8 2.02a3 3 0 0 1-2.16.75 2.9 2.9 0 0 1-2.09-.75 2.65 2.65 0 0 1-.79-2.02zm0 13.03c0-.84.26-1.5.8-2a2.92 2.92 0 0 1 2.08-.73c.91 0 1.63.24 2.16.73.53.5.8 1.16.8 2 0 .84-.27 1.52-.8 2.02a3 3 0 0 1-2.16.76 2.9 2.9 0 0 1-2.09-.76 2.65 2.65 0 0 1-.79-2.02zm17.53-1.58h5.51v-15.73l-4.75 3.63-2.16-2.88 8.2-6.26h3.17v21.24h5.4v3.96h-15.37v-3.96zm19.15-8.68c0-2.18.23-4.1.69-5.74s1.1-3 1.93-4.09a8.03 8.03 0 0 1 2.99-2.43 9.04 9.04 0 0 1 3.86-.8c3.04 0 5.37 1.05 7.01 3.18 1.64 2.12 2.46 5.42 2.46 9.88 0 2.21-.23 4.14-.69 5.78a12.05 12.05 0 0 1-1.93 4.1 7.9 7.9 0 0 1-3 2.45 9.14 9.14 0 0 1-3.89.81c-3.06 0-5.4-1.12-7-3.36s-2.43-5.5-2.43-9.78zm4.68 0a27.8 27.8 0 0 0 .08 2.02l8.7-8.03c-.7-2.06-2.05-3.1-4.03-3.1-1.52 0-2.7.74-3.51 2.22-.83 1.47-1.24 3.77-1.24 6.9zm9.58 0a32 32 0 0 0-.07-2.12l-8.75 8.03c.74 2.18 2.08 3.27 4.03 3.27 1.53 0 2.7-.73 3.54-2.2.83-1.46 1.25-3.78 1.25-6.98z" fill="#FFF"/><path d="M1023.89 558.14zm16.35 13.53zm73.29 3.54a76.05 76.05 0 0 1-23.53 7.1l-27.83 176.9c22.13.5 26.08.23 39.44.23 67.75 0 122.67-54.91 122.67-122.66 0-31.86-12.16-60.89-32.08-82.7-40.36 2.1-43.87 4.08-78.67 21.13z"/><g fill="#FFF"><path d="M914.16 429c-.69.19-1.57 110.44 2.79 126.6a30.32 30.32 0 0 0 58.53-15.8c-4.36-16.17-60.99-110.89-61.32-110.8z"/><path d="M914.62 429c-.67-.2-59.27 93.2-64.03 109.24a30.31 30.31 0 1 0 58.12 17.25c4.76-16.05 6.24-126.39 5.91-126.49z"/></g></svg>
