<svg xmlns="http://www.w3.org/2000/svg" xmlns:xlink="http://www.w3.org/1999/xlink" width="1920" height="1080"><path fill="#F68635" d="M1301.531 206.746h-932c-27.614 0-50 22.386-50 50v16h1032v-16c0-27.614-22.385-50-50-50z"/><path d="M1353.531 274.746h-1036v-18c0-28.673 23.327-52 52-52h932c28.673 0 52 23.327 52 52v18zm-1032-4h1028v-14c0-26.467-21.532-48-48-48h-932c-26.467 0-48 21.533-48 48v14z"/><path fill="#F68635" d="M1121.553 955.5h-80.5v-84l68.5-.5zM1041.141 955.5v-86.996"/><path d="M1039.141 868.504h4V955.5h-4zM317.544 270.5v512c0 27.614 22.386 50 50 50h648.008l.309-.239c-16.576-13.119-28.338-32.008-32.309-53.568V790.5h-316v-30h314.553a88.742 88.742 0 014.758-26.797c14.73-44.802 14.287-46.986 10.631-87.718h.002a76.748 76.748 0 01-.295-8.154c.322-17.974 6.863-34.369 17.527-47.19a76.454 76.454 0 0111.607-11.283c13.266-10.403 30.053-16.49 48.221-16.167 18.268.327 34.912 7.077 47.826 18.052l227.162-7.742v-303h-1032zm149.008 194h-128v-14h128v14zm141 0h-94v-14h94v14zm62-14h186.807v14H669.552v-14zm268 222h-270v-30h270v30zm66.001-114h-336v-30h336v30z"/><path fill="#F68635" d="M486.098 429.598h4v395.98h-4zM630.113 429.598h4v395.98h-4z"/><path fill="#FFF" d="M320.57 485.094h1024.465v4H320.57zM320.57 600.089h684.573v4H320.57zM320.57 715.084h669.573v4H320.57zM322.055 426.599h671.498v4H322.055z"/><circle fill="#FFF" cx="363.162" cy="239.607" r="16.499"/><circle cx="409.66" cy="239.607" r="16.499"/><circle fill="#FFF" cx="456.157" cy="239.607" r="16.499"/><path fill="#F68635" d="M573.5 384.795l-55.193-32.501v-7.88l55.168-34.259 8.566 13.525-39.835 24.076 39.846 23.535-8.552 13.504zm-51.192-34.788l49.886 29.375 4.273-6.746-42.058-24.842 42.069-25.426-4.26-6.726-49.911 30.994v3.371zM622.123 387.914c-8.953 0-15.83-2.587-20.441-7.69-4.56-5.042-6.872-13.007-6.872-23.673v-14.088h-11.138v-16.375h11.138v-12.335l18.626-5.3v17.636h29.475v16.375h-29.475v14.088c0 5.266.939 9.053 2.792 11.257 1.792 2.132 4.271 3.168 7.583 3.168 1.827 0 3.491-.218 4.945-.649 1.495-.441 2.847-1.005 4.019-1.675a23.4 23.4 0 003.316-2.279l.177-.146c1.015-.841 1.95-1.616 2.799-2.324l1.71-1.427 8.823 13.234-.978 1.15c-1.396 1.641-3.151 3.151-5.218 4.489a42.5 42.5 0 01-6.495 3.425 41.357 41.357 0 01-7.271 2.306 35.38 35.38 0 01-7.515.833zm-34.452-49.452h11.138v18.088c0 9.644 1.965 16.706 5.839 20.991 3.821 4.229 9.7 6.373 17.474 6.373 2.164 0 4.405-.25 6.662-.741a37.345 37.345 0 006.564-2.081 38.598 38.598 0 005.882-3.101 21.13 21.13 0 003.327-2.633l-4.641-6.961-1.097.91-.177.147a27.358 27.358 0 01-3.884 2.671c-1.439.824-3.078 1.51-4.869 2.038-1.822.54-3.868.813-6.079.813-4.501 0-8.083-1.546-10.645-4.595-2.51-2.985-3.73-7.509-3.73-13.831v-18.088h29.475v-8.375h-29.475v-16.339l-10.626 3.024v13.315h-11.138v8.375zM675.785 387.239c-6.081 0-11.012-1.69-14.657-5.023-3.695-3.378-5.569-7.887-5.569-13.401 0-3.452.655-6.499 1.946-9.059 1.309-2.591 3.23-4.74 5.709-6.389 2.383-1.586 5.275-2.78 8.595-3.545 3.228-.743 6.857-1.12 10.789-1.12 1.399 0 2.896.079 4.449.234 1.009.103 2.164.204 3.5.306l.001-.116v-2.138c0-2.207-.544-3.69-1.663-4.536-1.275-.963-3.313-1.452-6.055-1.452-3.572 0-6.825.46-9.669 1.367-2.955.945-5.467 1.897-7.467 2.832l-2.094.978-4.638-15.368 1.601-.721c3.091-1.392 6.707-2.604 10.747-3.605 4.08-1.009 8.954-1.521 14.487-1.521 4.1 0 7.668.509 10.605 1.514 3.026 1.038 5.521 2.548 7.419 4.488 1.902 1.945 3.293 4.296 4.136 6.988.807 2.588 1.216 5.514 1.216 8.698 0 3.865-.136 7.223-.403 9.98-.255 2.611-.384 4.969-.384 7.008 0 1.515.072 3.221.214 5.071.06.424.114.843.162 1.254h7.5v16.375h-22.535l-1.08-5.587c-1.311 1.351-2.862 2.576-4.638 3.662-3.064 1.876-7.176 2.826-12.224 2.826zm6.814-34.538c-3.63 0-6.958.342-9.89 1.018-2.847.657-5.296 1.659-7.277 2.978-1.924 1.279-3.348 2.869-4.354 4.862-1.006 1.994-1.517 4.436-1.517 7.255 0 4.406 1.396 7.824 4.268 10.449 2.925 2.675 6.836 3.976 11.958 3.976 4.3 0 7.71-.752 10.137-2.237 2.486-1.521 4.416-3.335 5.733-5.392l.59-.921h3.303l1.479 7.65h15.234v-8.375h-7.165l-.143-1.846a47.385 47.385 0 00-.323-2.911l-.014-.126a71.327 71.327 0 01-.23-5.442c0-2.168.136-4.656.403-7.395.255-2.628.384-5.856.384-9.593 0-2.779-.348-5.304-1.034-7.505-.652-2.083-1.721-3.895-3.177-5.384-1.458-1.49-3.427-2.668-5.856-3.501-2.518-.861-5.65-1.298-9.309-1.298-5.21 0-9.761.472-13.526 1.404-3.117.772-5.953 1.672-8.455 2.683l2.295 7.605a78.684 78.684 0 015.833-2.097c3.239-1.033 6.901-1.557 10.886-1.557 3.682 0 6.451.739 8.466 2.26 2.158 1.631 3.251 4.23 3.251 7.728v2.138c0 .873-.088 1.76-.261 2.638l-.341 1.73-1.759-.122a175.413 175.413 0 01-5.542-.456 40.353 40.353 0 00-4.047-.216zm-2.065 22.5c-3.383 0-5.817-.75-7.441-2.295-1.63-1.547-2.458-3.682-2.458-6.343 0-1.708.469-3.207 1.395-4.454.851-1.147 1.986-2.085 3.373-2.787 1.271-.645 2.725-1.122 4.318-1.419 3.294-.614 6.711-.497 9.626-.131 1.508.19 2.68.368 3.482.529l1.606.323v8.897l-.243.447c-.953 1.754-2.455 3.394-4.465 4.874-2.15 1.587-5.158 2.359-9.193 2.359zm3.781-13.725c-1.28 0-2.579.121-3.862.36-1.219.227-2.31.582-3.244 1.055-.84.425-1.483.948-1.967 1.601-.409.551-.607 1.228-.607 2.071 0 1.542.396 2.668 1.212 3.443.823.782 2.443 1.195 4.687 1.195 3.106 0 5.401-.531 6.822-1.579 1.362-1.004 2.396-2.061 3.081-3.149v-4.518c-.469-.068-1-.14-1.588-.214a36.66 36.66 0 00-4.534-.265zM749.812 387.689c-6.043 0-11.202-.718-15.331-2.133-4.12-1.413-7.251-2.801-9.575-4.243l-.945-.587v-60.765h-8.664v-16.375h27.288v24.996a20.578 20.578 0 014.074-2.13c2.884-1.138 6.443-1.715 10.578-1.715 7.955 0 14.439 2.554 19.275 7.59 4.812 5.018 7.25 12.562 7.25 22.423 0 5.249-.803 9.978-2.386 14.055-1.602 4.124-3.905 7.625-6.847 10.405-2.937 2.774-6.55 4.909-10.738 6.345-4.127 1.417-8.831 2.134-13.979 2.134zm-21.85-9.221c1.965 1.088 4.588 2.197 7.817 3.304 3.71 1.272 8.432 1.917 14.033 1.917 4.706 0 8.973-.645 12.683-1.917 3.645-1.25 6.77-3.089 9.288-5.468 2.507-2.37 4.48-5.379 5.866-8.946 1.403-3.614 2.114-7.856 2.114-12.607 0-8.795-2.065-15.407-6.137-19.654-4.108-4.279-9.469-6.36-16.389-6.36-3.63 0-6.695.483-9.11 1.437-2.352.927-4.23 2.182-5.585 3.731l-.598.683h-3.359v-27.001h-19.288v8.375h8.664v62.506zm24.325-3.154c-2.581 0-5.037-.329-7.301-.979-2.241-.639-3.974-1.271-5.295-1.934l-1.104-.553v-24.98l.115-.324c.55-1.553 1.447-2.958 2.666-4.177a17.892 17.892 0 013.673-2.847 18.656 18.656 0 014.095-1.764c1.453-.428 2.817-.645 4.053-.645 5.018 0 8.919 1.601 11.595 4.757 2.591 3.06 3.905 7.545 3.905 13.331 0 3.349-.413 6.287-1.228 8.732-.831 2.492-2.003 4.614-3.485 6.309-1.516 1.732-3.322 3.03-5.369 3.857a16.725 16.725 0 01-6.32 1.217zm-9.701-5.994c.949.385 2.12.776 3.499 1.169 1.908.547 3.994.824 6.202.824a12.78 12.78 0 004.819-.923c1.461-.591 2.759-1.527 3.858-2.782 1.129-1.292 2.039-2.955 2.701-4.94.678-2.037 1.022-4.549 1.022-7.468 0-4.813-.995-8.429-2.958-10.746-1.906-2.249-4.701-3.343-8.542-3.343-.854 0-1.837.162-2.923.481-1.118.33-2.2.796-3.216 1.386a13.975 13.975 0 00-2.853 2.216c-.724.724-1.252 1.506-1.609 2.382v21.744zM826.539 387.914c-7.576 0-13.394-2.019-17.292-6.001-3.887-3.968-5.858-9.587-5.858-16.7v-45.251h-9.338v-16.375h27.964v53.977c0 6.68.994 9.651 1.827 10.968 1.056 1.668 2.7 2.445 5.173 2.445 2.106 0 3.829-.213 5.119-.633 1.347-.437 2.722-1.075 4.09-1.895l1.788-1.073 7.396 13.584-1.555 1.008a71.01 71.01 0 01-3.937 2.374 26.75 26.75 0 01-4.378 1.947 29.799 29.799 0 01-5.01 1.208c-1.786.276-3.8.417-5.989.417zm-28.489-71.953h9.338v49.251c0 6.03 1.587 10.707 4.716 13.902 3.118 3.185 7.974 4.799 14.434 4.799 1.984 0 3.792-.125 5.374-.37 1.563-.244 3.021-.594 4.332-1.042a22.617 22.617 0 003.719-1.653c.716-.4 1.434-.82 2.146-1.254l-3.656-6.716a22.672 22.672 0 01-3.084 1.268c-1.713.558-3.792.829-6.355.829-4.816 0-7.31-2.341-8.553-4.305-1.646-2.601-2.447-6.889-2.447-13.107v-49.977H798.05v8.375zM889.99 387.914c-5.008 0-9.568-.721-13.553-2.142-4.045-1.44-7.528-3.583-10.352-6.366-2.82-2.779-5.001-6.16-6.483-10.049-1.468-3.846-2.213-8.269-2.213-13.144 0-5.196.849-9.831 2.521-13.775 1.683-3.967 4.028-7.326 6.97-9.984 2.927-2.648 6.399-4.66 10.321-5.98 3.862-1.301 8.09-1.961 12.564-1.961 2.995 0 6.127.398 9.311 1.184a26.234 26.234 0 019.071 4.2c2.792 2.013 5.094 4.726 6.846 8.063 1.757 3.352 2.648 7.601 2.648 12.629 0 3.337-.392 6.989-1.164 10.854l-.321 1.608h-39.94c.205 1.177.558 2.21 1.056 3.085a9.94 9.94 0 003.102 3.388c1.332.911 2.891 1.589 4.638 2.017 1.817.447 3.794.673 5.88.673 4.248 0 7.747-.489 10.397-1.454 2.661-.968 4.826-2.14 6.436-3.482l1.931-1.61 6.653 13.152-1.109 1.025c-1.085 1.002-2.48 1.985-4.146 2.919-1.63.914-3.546 1.773-5.696 2.554-2.159.786-4.56 1.421-7.133 1.888-2.58.47-5.35.708-8.235.708zm-.225-59.402c-4.039 0-7.837.589-11.287 1.752-3.398 1.144-6.398 2.879-8.916 5.156-2.507 2.266-4.516 5.153-5.97 8.58-1.462 3.448-2.204 7.557-2.204 12.213 0 4.386.656 8.329 1.95 11.718 1.277 3.351 3.146 6.253 5.554 8.626 2.405 2.371 5.395 4.203 8.887 5.446 3.554 1.267 7.662 1.91 12.21 1.91 2.645 0 5.174-.216 7.516-.643 2.353-.427 4.533-1.002 6.481-1.711 1.948-.708 3.665-1.476 5.106-2.284.84-.472 1.589-.949 2.238-1.427l-3.055-6.04c-1.607 1.026-3.489 1.933-5.623 2.709-3.09 1.125-7.048 1.695-11.765 1.695-2.407 0-4.706-.265-6.833-.788-2.214-.543-4.213-1.417-5.94-2.599a14.021 14.021 0 01-4.323-4.714c-1.096-1.924-1.695-4.28-1.778-7l-.063-2.062h40.902c.522-3.009.786-5.85.786-8.463 0-4.375-.737-8-2.19-10.771-1.46-2.783-3.358-5.029-5.642-6.676a22.239 22.239 0 00-7.691-3.562c-2.868-.706-5.678-1.065-8.35-1.065zm14.263 23.851h-31.839l.168-2.156c.173-2.205.793-4.229 1.845-6.016a14.905 14.905 0 013.963-4.431 17.41 17.41 0 015.27-2.655c1.914-.593 3.967-.893 6.104-.893 4.75 0 8.399 1.31 10.846 3.893 2.417 2.552 3.643 6.003 3.643 10.258v2zm-27.297-4h23.178c-.285-2.277-1.086-4.09-2.429-5.507-1.661-1.754-4.333-2.644-7.941-2.644-1.735 0-3.391.24-4.921.714a13.455 13.455 0 00-4.066 2.044 10.923 10.923 0 00-2.903 3.25 9.397 9.397 0 00-.918 2.143zM931.074 384.795l-8.552-13.504 39.846-23.535-39.834-24.076 8.566-13.525 55.169 34.259v7.88l-55.195 32.501zm-2.966-12.158l4.273 6.746 49.886-29.375v-3.37l-49.911-30.994-4.259 6.726 42.069 25.426-42.058 24.841z"/><path fill="#FFF" d="M581.696 578.787l-17.944-14.139-9.289 20.872-4.657-22.366-20.532 10.018 10.809-20.127-22.168-5.522 21.215-8.471-13.429-18.48 21.698 7.148 1.589-22.789 12.026 19.423 15.868-16.436-3.273 22.61 22.72-2.392-17.04 15.217 18.941 12.772-22.834.703z"/><circle fill="#FFF" cx="540.823" cy="658.086" r="23.999"/><circle fill="#FFF" cx="575.322" cy="658.086" r="23.999"/><path fill="#FFF" d="M524.324 754.082h67.496v38.998h-67.496zM1026.336 579.357c13.266-10.403 30.053-16.49 48.221-16.167 18.268.327 34.912 7.077 47.826 18.052 7.285-2.356 15.127-3.633 23.268-3.633h150.551c14.156 0 29.943-.346 45.451 2.187a75.62 75.62 0 0129.992-19.987 77.106 77.106 0 017.812-2.367v-.001c25.676-6.306 35.682-8.665 49.705-17.231 7.66-4.68 16.518-11.206 29.791-21.254a88.779 88.779 0 0124.223-13.364 89.596 89.596 0 0114.443-3.913c10.383-29.447 16.041-61.121 16.041-94.12 0-156.328-126.732-283.058-283.061-283.058S947.542 251.23 947.542 407.558c0 69.818 25.284 133.725 67.187 183.083a76.367 76.367 0 0111.607-11.284z"/><path d="M1122.383 581.242c7.285-2.356 15.127-3.633 23.268-3.633h150.551c14.156 0 29.943-.346 45.451 2.187a75.62 75.62 0 0129.992-19.987 77.106 77.106 0 017.812-2.367v-.001c25.676-6.306 35.682-8.665 49.705-17.231a78.17 78.17 0 00-28.229-29.509 50.392 50.392 0 001.092-10.428c0-27-21.32-49.012-48.043-50.14v-.054H1104.446v.036c-27.057.761-48.762 22.918-48.762 50.159 0 5.054.756 9.93 2.145 14.53-19.135 14.174-31.543 36.911-31.543 62.553 0 .672.033 1.334.051 2.002 13.266-10.403 30.053-16.49 48.221-16.167 18.266.326 34.911 7.076 47.825 18.05z"/><path fill="#F68635" d="M1192.075 529.229h79.053v48.74h-79.053z"/><circle fill="#FFF" cx="1231.602" cy="418.561" r="136.279"/><defs><path id="a" d="M1115.305 391.847c1.561 0 3.1.099 4.613.267 14.131-48.812 59.154-84.505 112.523-84.505 53.367 0 98.393 35.693 112.523 84.505a41.758 41.758 0 014.609-.267c22.463 0 40.672 18.209 40.672 40.673 0 22.462-18.209 40.671-40.672 40.671-3.422 0-6.742-.429-9.918-1.224-18.16 41.169-59.326 69.908-107.215 69.908-47.887 0-89.055-28.739-107.217-69.908a40.766 40.766 0 01-9.92 1.224c-22.461 0-40.67-18.208-40.67-40.671.002-22.463 18.211-40.673 40.672-40.673z"/></defs><defs><path id="b" d="M1232.441 543.875c-46.636 0-88.99-27.262-108.368-69.591a42.85 42.85 0 01-8.769.907c-23.528 0-42.67-19.142-42.67-42.671 0-23.53 19.142-42.673 42.67-42.673 1.037 0 2.084.04 3.164.122 7.219-23.658 22.01-44.917 41.783-60.003 20.887-15.935 45.85-24.358 72.189-24.358 26.339 0 51.302 8.423 72.188 24.358 19.774 15.086 34.565 36.345 41.784 60.003a41.553 41.553 0 013.16-.122c23.529 0 42.672 19.143 42.672 42.673 0 23.529-19.143 42.671-42.672 42.671-2.941 0-5.883-.305-8.767-.908-19.373 42.33-61.727 69.592-108.364 69.592zm-106.067-74.257l.681 1.542c18.415 41.743 59.782 68.715 105.387 68.715 45.605 0 86.972-26.972 105.385-68.715l.681-1.542 1.635.41a38.896 38.896 0 009.433 1.164c21.324 0 38.672-17.348 38.672-38.671 0-21.324-17.348-38.673-38.672-38.673-1.41 0-2.847.083-4.389.254l-1.674.186-.468-1.617c-6.797-23.477-21.301-44.616-40.841-59.523-20.184-15.399-44.307-23.538-69.762-23.538-25.456 0-49.579 8.139-69.763 23.538-19.539 14.907-34.043 36.046-40.84 59.523l-.468 1.617-1.674-.186a39.527 39.527 0 00-4.393-.254c-21.322 0-38.67 17.349-38.67 38.673 0 21.323 17.348 38.671 38.67 38.671 3.177 0 6.351-.392 9.434-1.164l1.636-.41z"/></defs><use xlink:href="#a" overflow="visible" fill="#F68635"/><use xlink:href="#b" overflow="visible"/><clipPath id="c"><use xlink:href="#a" overflow="visible"/></clipPath><path d="M1345.237 450.876a2 2 0 01-1.471-3.354l24.943-27.117a1.999 1.999 0 112.943 2.708l-24.943 27.117a1.99 1.99 0 01-1.472.646zM1124.509 450.876c-.54 0-1.078-.217-1.473-.646l-24.945-27.117a2 2 0 012.943-2.708l24.945 27.117a2 2 0 01-1.47 3.354z"/><g><circle cx="1279.032" cy="438.253" r="15.454"/><path d="M1253.68 441.734a2 2 0 01-1.647-3.132 39.434 39.434 0 0132.514-17.136 39.43 39.43 0 0132.513 17.136 2 2 0 01-3.299 2.264 35.426 35.426 0 00-29.214-15.4 35.437 35.437 0 00-29.217 15.4 1.997 1.997 0 01-1.65.868z"/></g><g><circle cx="1178.166" cy="438.253" r="15.455"/><path d="M1214.547 441.734a1.995 1.995 0 01-1.65-.868c-6.62-9.643-17.542-15.4-29.217-15.4s-22.597 5.757-29.217 15.4a1.999 1.999 0 11-3.297-2.264c7.365-10.73 19.521-17.136 32.514-17.136s25.148 6.406 32.514 17.136a1.998 1.998 0 01-1.647 3.132z"/></g><g><path d="M1233.254 437.293v22.503M1233.254 461.796a2 2 0 01-2-2v-22.503a2 2 0 014 0v22.503a2 2 0 01-2 2z"/></g><g><path fill="#FFF" d="M1212.49 472.578c0 11.243 9.113 20.358 20.357 20.358s20.359-9.115 20.359-20.358"/></g><g><path d="M1232.254 307.355c-53.946.782-99.247 37.274-113.307 86.902a97.852 97.852 0 0016.546 1.409c50.679.001 92.287-38.798 96.761-88.311z"/></g><g><path d="M1231.447 307.355c53.946.782 99.247 37.274 113.307 86.902a97.844 97.844 0 01-16.546 1.409c-50.679.001-92.287-38.798-96.761-88.311z"/></g><g><path fill="#FFF" d="M1379.545 883.5h-268l9 71h249z"/></g><g><path fill="none" d="M1110.891 586.106l-.008.004c.385-.204.77-.412 1.158-.609l-.01.005c-.385.195-.761.399-1.14.6z"/></g><g><path fill="none" d="M1118.727 582.546c.27-.103.535-.211.805-.312-.238.091-.475.185-.711.275l-.094.037z"/></g><g><path fill="none" d="M1101.555 592.061a60.98 60.98 0 011.188-.885c-.004.004-.01.007-.016.011-.395.287-.786.579-1.172.874z"/></g><g><path fill="none" d="M1106.684 588.528c.188-.117.373-.238.562-.354l-.01.005c-.185.115-.369.233-.552.349z"/></g><g><path fill="#FFF" d="M1105.828 844.33l-1.517-10.83z"/></g><g><path fill="#FFF" d="M1069.4 851.403c-17.297-.309-33.346-5.541-46.848-14.33v46.177h88.75l-5.475-38.92c-11.169 4.763-23.499 7.305-36.427 7.073z"/></g><g><path d="M1071.023 853.418c-.001 0 0 0 0 0-.552 0-1.105-.005-1.659-.015-17.079-.305-33.644-5.372-47.902-14.654-26.47-17.229-41.936-46.34-41.372-77.873a90.826 90.826 0 014.881-27.82c14.402-43.804 14.192-46.149 10.673-85.322l-.142-1.569a79.824 79.824 0 01-.301-8.368c.321-17.923 6.542-34.671 17.989-48.435a78.64 78.64 0 0111.911-11.578c14.222-11.153 31.34-16.894 49.49-16.593 17.974.322 35.406 6.902 49.086 18.527l2.734 2.324-3.414 1.104c-.935.302-1.858.627-2.774.965l-.78.303a70.518 70.518 0 00-6.216 2.729l-.057.058-.304.124c-.253.13-.511.268-.769.405l-.483.256a67.682 67.682 0 00-3.327 1.896l-.535.336a68.517 68.517 0 00-3.71 2.485l-.198.143c-.362.265-.722.534-1.077.805a63.386 63.386 0 00-2.912 2.35c-.188.161-.355.31-.522.458l-.16.142c-.418.369-.832.737-1.236 1.114l-.588.559a63.78 63.78 0 00-1.965 1.962l-1.24 1.332c-.255.281-.508.563-.757.849l-.17.197c-.637.74-1.27 1.517-1.935 2.375a51.72 51.72 0 00-.693.923l-.135.183a56.963 56.963 0 00-2.271 3.315l-.388.623a54.036 54.036 0 00-1.315 2.245l-.274.484a55.25 55.25 0 00-1.415 2.785l-.221.492a55.936 55.936 0 00-1.027 2.371c-.105.261-.21.52-.312.781a54.562 54.562 0 00-.921 2.549l-.14.4a55.97 55.97 0 00-.872 2.992 5.159 5.159 0 01-.062.21l-.051.216a8.597 8.597 0 01-.072.318 55.636 55.636 0 00-.537 2.393l-.061.3c-.037.186-.074.371-.109.558a57.555 57.555 0 00-.485 3.031l-.013.108a54.633 54.633 0 00-.271 2.644 57.814 57.814 0 00-.17 5.246 59.72 59.72 0 00.327 5.506 62.538 62.538 0 001.342 7.949l.034.185 26.852 191.775-1.409.601c-11.28 4.807-23.255 7.246-35.59 7.246zm2.157-288.24c-16.697 0-32.469 5.447-45.609 15.754a74.51 74.51 0 00-11.304 10.987c-10.859 13.057-16.761 28.945-17.065 45.948-.047 2.603.05 5.274.287 7.941l.141 1.568c3.515 39.143 3.802 42.34-10.865 86.951a86.824 86.824 0 00-4.674 26.62c-.539 30.145 14.248 57.977 39.554 74.449 13.629 8.871 29.464 13.715 45.793 14.006 11.853.229 23.346-1.921 34.196-6.326l-26.411-188.636a69.342 69.342 0 01-.677-3.241 67.054 67.054 0 01-.729-5.117 64.527 64.527 0 01-.349-5.861 61.349 61.349 0 01.456-8.332l.016-.133a60.361 60.361 0 01.656-3.981l.058-.288c.175-.872.369-1.729.579-2.58l.039-.177c.026-.124.053-.247.085-.37.018-.065.039-.137.062-.209.306-1.157.621-2.241.951-3.257l.145-.416a58.46 58.46 0 011.323-3.578 59.9 59.9 0 011.099-2.537l.237-.526a59.69 59.69 0 011.516-2.982l.293-.521c.453-.814.923-1.616 1.412-2.409l.411-.66a62.492 62.492 0 012.433-3.552l.138-.185c.238-.322.477-.645.723-.962a65.895 65.895 0 011.605-1.997v-.011l.486-.562c.237-.275.477-.547.719-.816v-.453l.766-.392c.081-.089.162-.179.244-.267l.072-.107.508-.496a67.238 67.238 0 012.087-2.084l.146-.142c.157-.15.314-.301.475-.449.434-.405.875-.799 1.318-1.189l.153-.136c.185-.163.368-.326.556-.487a69.092 69.092 0 014.316-3.409l.069-.05a70.83 70.83 0 014.006-2.688l.652-.407a69.636 69.636 0 013.591-2.039l.348-.186c.21-.111.421-.224.633-.334l.004-.005.244-.123.029-.015.075-.038a74.05 74.05 0 016.809-3.006l.337-.131a74.163 74.163 0 00-45.168-15.369z"/></g><g><path d="M1119.457 956.093l-42.235-301.651a66.232 66.232 0 01-1.406-8.374 59.74 59.74 0 01-.237-2.869 59.958 59.958 0 01-.109-2.893l-.002-.111a60.78 60.78 0 01.181-5.597c.081-.994.174-1.905.287-2.809l.021-.156a59.234 59.234 0 01.7-4.152c.173-.86.367-1.723.58-2.576l.059-.245c.044-.182.088-.363.135-.543.3-1.144.608-2.2.943-3.229l.139-.402a59.105 59.105 0 011.315-3.558c.357-.884.739-1.764 1.134-2.618l.204-.451a59.9 59.9 0 011.536-3.023l.258-.46c.463-.832.946-1.656 1.449-2.472l.391-.626a61.11 61.11 0 011.847-2.758l.138-.197c.088-.124.196-.266.304-.407l.157-.208c.285-.388.575-.781.876-1.17l.312-.403c.412-.525.841-1.044 1.273-1.558l.16-.192c.107-.13.215-.259.325-.386.402-.468.821-.932 1.242-1.395l1.201-1.278c.209-.219.42-.437.633-.652l.091-.092c.208-.21.416-.42.626-.626.134-.131.267-.257.399-.382l.822-.781a55.564 55.564 0 011.176-1.065l.315-.277c.186-.164.37-.328.56-.489a66.486 66.486 0 013.09-2.492 60.758 60.758 0 012.285-1.663c.397-.277.8-.555 1.207-.826a62.35 62.35 0 011.158-.75l1.212-.763c.405-.247.815-.487 1.229-.727l.088-.052c.365-.213.731-.427 1.103-.634.361-.201.728-.396 1.094-.59l.493-.263c.307-.163.613-.326.923-.483a58.85 58.85 0 011.241-.604l.46-.222c.285-.139.571-.277.859-.409.409-.188.825-.367 1.24-.546l.703-.304c.229-.101.457-.2.689-.296.483-.199.974-.387 1.464-.575l1.247-.48a72.589 72.589 0 012.728-.942c7.651-2.475 15.687-3.729 23.883-3.729h150.551c1.5 0 3.02-.004 4.555-.008 1.57-.004 3.159-.008 4.761-.008 11.036 0 23.864.172 36.458 2.229l3.658.597-2.508 2.729c-18.181 19.794-24.225 47.911-15.771 73.379l.188.577c.152.468.305.937.474 1.402a75 75 0 001.354 3.441c.062.147.129.297.195.446l.178.402c.377.867.77 1.732 1.179 2.584l.378.769a71.44 71.44 0 001.402 2.693l.264.479a74.52 74.52 0 001.817 3.094 76.46 76.46 0 001.313 2.025l.265.398c.42.619.859 1.241 1.304 1.856l.304.413c.46.626.92 1.237 1.392 1.839l.229.285a74.091 74.091 0 006.805 7.466l.244.235c.532.505 1.07.993 1.612 1.477l.482.429c.518.455 1.047.904 1.579 1.346l.548.447a69.57 69.57 0 001.625 1.289l.47.352a74.296 74.296 0 005.845 3.988l.333.209c.534.324 1.084.64 1.634.954l.156.09c.22.127.44.255.663.377.518.288 1.033.564 1.551.836a75.29 75.29 0 002.484 1.249c.35.167.7.328 1.05.488.509.234 1.007.463 1.51.681.266.115.535.226.804.337l.713.295c.361.15.724.301 1.089.442.653.254 1.309.491 1.966.725.602.215 1.205.418 1.81.616l.259.085c.39.128.778.257 1.171.376.371.114.744.22 1.118.326l.201.057c.488.14.973.276 1.459.405a75.718 75.718 0 005.752 1.271l.385.069c.265.049.529.097.795.141.683.111 1.369.208 2.056.3l.796.113c.935.115 1.88.212 2.825.292.18.016.356.026.534.038l.401.026c.656.048 1.315.092 1.977.121.304.014.604.022.905.03l.21.006c.612.018 1.221.031 1.831.034l.308.001.851-.005a70.868 70.868 0 001.835-.045l.147-.005c.323-.012.647-.022.973-.039a70.787 70.787 0 001.991-.135l.962-.073c.976-.09 1.957-.195 2.94-.325l2.65-.352-39.068 250.79-251.373 1.03zm-39.569-323.675a57.776 57.776 0 00-.42 7.751l.002.111c.011.845.043 1.721.096 2.601.06.972.133 1.865.229 2.765a62.025 62.025 0 001.343 7.965l.034.185 41.764 298.285 244.462-1.001 37.729-242.187-.462.043c-.211.02-.414.034-.618.049l-.388.028c-.705.056-1.404.105-2.104.142-.347.018-.691.03-1.035.042l-.146.006a83.86 83.86 0 01-1.937.047l-.892.005-.327-.001a77.224 77.224 0 01-1.927-.036l-.203-.006a64.29 64.29 0 01-.978-.032 76.523 76.523 0 01-2.086-.127l-.365-.024c-.206-.014-.412-.026-.619-.044a78.152 78.152 0 01-2.981-.309c-.178-.022-.35-.048-.521-.073l-.316-.046a79.834 79.834 0 01-2.162-.316c-.292-.048-.582-.101-.871-.153l-.372-.067a74.663 74.663 0 01-1.733-.328 78.35 78.35 0 01-2.95-.664 64.994 64.994 0 01-2.918-.775l-.195-.056a62.668 62.668 0 01-1.195-.348c-.42-.129-.836-.266-1.252-.402l-.256-.084a82.022 82.022 0 01-3.974-1.412 44.082 44.082 0 01-1.179-.479l-.698-.289c-.292-.12-.585-.241-.874-.366a79.719 79.719 0 01-1.576-.71 69.726 69.726 0 01-2.708-1.305 89.61 89.61 0 01-2.655-1.409c-.24-.132-.483-.272-.726-.413l-.149-.086c-.574-.329-1.153-.66-1.723-1.007l-.355-.223a78.45 78.45 0 01-6.15-4.197l-.498-.374a77.526 77.526 0 01-1.711-1.355l-.578-.473a76.26 76.26 0 01-1.666-1.42l-.505-.448a77.651 77.651 0 01-1.696-1.555l-.25-.241a78.033 78.033 0 01-7.185-7.881l-.236-.295a77.527 77.527 0 01-1.467-1.937l-.326-.445a74.926 74.926 0 01-1.384-1.971l-.272-.409a74.507 74.507 0 01-1.379-2.127l-.303-.491a77.709 77.709 0 01-1.614-2.772l-.276-.501a74.253 74.253 0 01-1.484-2.851l-.396-.806a78.31 78.31 0 01-1.244-2.727l-.161-.364c-.077-.174-.155-.349-.229-.525a79.255 79.255 0 01-1.426-3.625c-.186-.507-.352-1.02-.519-1.531l-.182-.557c-8.52-25.667-3.068-53.889 14.178-74.551-11.144-1.504-22.396-1.641-32.218-1.641-1.599 0-3.184.004-4.751.008-1.538.004-3.061.008-4.564.008H1145.65c-7.777 0-15.398 1.189-22.652 3.536-.875.282-1.741.583-2.6.897l-1.175.454c-.459.176-.919.352-1.372.539-.205.084-.405.172-.607.261l-.727.314c-.386.166-.773.332-1.154.507-.263.121-.521.247-.78.372l-.479.231c-.39.186-.778.371-1.162.565-.281.143-.564.294-.848.444l-.499.266c-.342.182-.684.362-1.021.551-.348.193-.69.395-1.033.594l-.092.055c-.393.228-.779.454-1.162.687l-1.144.72a51.967 51.967 0 00-2.226 1.484 53.41 53.41 0 00-2.15 1.565 66.613 66.613 0 00-2.914 2.35c-.172.146-.337.293-.502.439l-.649.57c-.269.239-.519.473-.769.705l-1.149 1.093c-.195.192-.391.389-.586.587l-.091.091c-.197.2-.394.404-.591.609l-1.126 1.198c-.397.436-.791.872-1.173 1.316l-.454.54c-.402.479-.802.963-1.188 1.455l-.299.388c-.274.355-.547.724-.818 1.093l-.188.248c-.084.11-.168.221-.249.333l-.111.161c-.55.771-1.099 1.59-1.738 2.596l-.363.584c-.467.757-.921 1.53-1.357 2.315l-.236.422a57.284 57.284 0 00-1.433 2.817l-.196.436a55.6 55.6 0 00-1.346 3.169 53.33 53.33 0 00-.938 2.594l-.127.364c-.31.953-.597 1.937-.877 3.005l-.18.734c-.199.799-.38 1.601-.542 2.409-.06.29-.117.564-.166.84a54.794 54.794 0 00-.486 3.022l-.037.282z"/></g><g><path d="M1108.286 589.883l-2.082-3.415a65.573 65.573 0 011.725-1.017c.231-.134.463-.267.697-.397.361-.201.728-.396 1.094-.591l.149-.078.032.061-.001-.001.906 1.706-.007-.016.946 1.781c-.613.327-1.222.66-1.823 1.003l-.476.277c-.39.227-.774.451-1.154.683-.002.001-.002.004-.006.004zm3.534-2.006l-1.951-3.492.076-.041 1.877 3.532-.035-.062.033.063z"/></g><g><path d="M1103.915 592.796l-2.347-3.239.001-.001.007-.005c.484-.351.974-.695 1.468-1.033a59.188 59.188 0 011.951-1.289l.22-.14.003-.002.407-.256 2.129 3.387-.399.251c-.689.437-1.371.884-2.042 1.343l-.396.275c-.339.235-.673.471-1.002.709z"/></g><g><path d="M1397.543 709.253l-.328-.001a77.224 77.224 0 01-1.927-.036l-.204-.006c-.325-.009-.651-.018-.977-.032a76.523 76.523 0 01-2.086-.127l-.364-.024c-.207-.014-.413-.026-.62-.044a78.152 78.152 0 01-2.981-.309c-.178-.022-.351-.048-.523-.073l-.314-.046a79.834 79.834 0 01-2.162-.316c-.293-.048-.583-.101-.873-.153l-.37-.067a74.663 74.663 0 01-1.733-.328c-.451-.093-.896-.19-1.345-.289a72.263 72.263 0 01-1.605-.375 64.994 64.994 0 01-2.918-.775l-.196-.056a64.77 64.77 0 01-1.194-.348c-.421-.129-.84-.267-1.257-.403l-.251-.083a82.022 82.022 0 01-3.974-1.412 45.416 45.416 0 01-1.178-.479l-.699-.289a48.609 48.609 0 01-2.451-1.076c-.372-.172-.744-.343-1.115-.521a90.218 90.218 0 01-1.592-.784 89.61 89.61 0 01-2.655-1.409 42.79 42.79 0 01-.729-.414l-.146-.085a74.376 74.376 0 01-1.723-1.007l-.355-.223a78.59 78.59 0 01-6.151-4.197l-.497-.374a74.718 74.718 0 01-1.711-1.356l-.578-.472a76.26 76.26 0 01-1.666-1.42l-.505-.448a77.651 77.651 0 01-1.696-1.555l-.25-.241a77.79 77.79 0 01-7.186-7.882l-.235-.294a77.527 77.527 0 01-1.467-1.937l-.326-.445a74.926 74.926 0 01-1.384-1.971l-.272-.409a74.507 74.507 0 01-1.401-2.163 76.873 76.873 0 01-1.895-3.227l-.276-.502a77.584 77.584 0 01-1.482-2.848l-.397-.809a74.087 74.087 0 01-1.244-2.726l-.161-.365c-.077-.174-.155-.349-.229-.525a76.136 76.136 0 01-1.426-3.625 46.706 46.706 0 01-.519-1.531l-.182-.556c-8.909-26.844-2.54-56.48 16.623-77.343 8.534-9.296 18.892-16.197 30.782-20.515a79.337 79.337 0 018.016-2.429l1.426-.351c24.202-5.942 34.22-8.402 47.716-16.647 7.442-4.546 15.816-10.687 29.627-21.142a90.779 90.779 0 0124.747-13.649 91.764 91.764 0 0114.766-4 90.606 90.606 0 0116.257-1.476c38.106 0 72.449 24.077 85.458 59.911 8.288 22.825 7.189 47.512-3.092 69.513-10.282 22.001-28.517 38.681-51.344 46.969a90.834 90.834 0 01-27.721 5.403c-46.056 2.232-48.17 3.269-83.482 20.577l-1.422.696a1.397 1.397 0 01-.111.051 78.602 78.602 0 01-7.597 3.225 78.541 78.541 0 01-16.438 4.012 76.47 76.47 0 01-3.104.344c-.229.021-.45.037-.672.053l-.34.025c-.699.055-1.398.104-2.099.141-.349.018-.693.03-1.039.043l-.143.005c-.646.022-1.291.039-1.933.047l-.9.005zm115.973-207.018c-5.193 0-10.421.475-15.536 1.411a87.82 87.82 0 00-14.121 3.825 86.868 86.868 0 00-23.679 13.064c-13.936 10.55-22.39 16.747-29.975 21.381-14.027 8.568-24.223 11.071-48.853 17.118l-1.419.349a75.576 75.576 0 00-7.606 2.306c-11.281 4.096-21.105 10.643-29.201 19.46-18.182 19.794-24.226 47.911-15.772 73.379l.188.577c.152.469.305.937.474 1.402a73.13 73.13 0 001.354 3.439c.062.149.13.299.196.448l.178.402c.377.864.766 1.73 1.177 2.58l.38.772c.45.905.916 1.807 1.401 2.692l.265.48a74.519 74.519 0 001.817 3.094 76.46 76.46 0 001.313 2.025l.265.398c.42.619.859 1.241 1.304 1.856l.304.413c.46.626.92 1.237 1.392 1.839l.229.286a73.57 73.57 0 006.804 7.465l.244.235c.532.505 1.07.993 1.612 1.477l.482.429c.518.455 1.047.904 1.579 1.346l.547.446c.537.438 1.077.869 1.626 1.289l.47.353a74.43 74.43 0 005.845 3.988l.333.209c.533.324 1.082.638 1.63.952l.158.091c.221.127.441.255.665.379a78.31 78.31 0 001.551.835c.325.171.65.34.977.506a67.832 67.832 0 002.569 1.237c.497.229.996.457 1.498.675.266.115.534.226.803.336l.715.296c.361.15.723.301 1.088.442.653.254 1.309.491 1.966.725.602.215 1.205.418 1.81.616l.254.084c.391.128.781.257 1.175.377.372.113.745.22 1.119.325l.201.058c.488.14.973.276 1.459.405.436.114.871.224 1.31.33a74.07 74.07 0 001.523.355c.424.094.85.188 1.278.275.545.11 1.093.211 1.641.311l.383.069c.266.048.53.097.797.141.683.111 1.369.208 2.056.3l.796.113c.935.115 1.88.212 2.824.292.181.016.358.026.536.038l.4.026c.656.048 1.315.092 1.977.121.304.014.604.022.904.03l.211.006c.612.018 1.221.031 1.831.034l.309.001.85-.005c.606-.008 1.22-.022 1.835-.045l.144-.005c.325-.012.65-.022.977-.039a71.113 71.113 0 001.992-.135l.361-.026c.2-.015.399-.029.6-.047.976-.09 1.957-.195 2.94-.325a74.518 74.518 0 0015.6-3.807 74.716 74.716 0 007.312-3.111 2.02 2.02 0 01.106-.048l1.315-.645c35.286-17.296 38.169-18.709 85.073-20.982a86.837 86.837 0 0026.525-5.166c21.823-7.923 39.255-23.87 49.085-44.902 9.829-21.033 10.879-44.634 2.956-66.454-12.441-34.255-45.273-57.272-81.702-57.272z"/></g><g><circle fill="#FFF" cx="1527.553" cy="571.5" r="58"/></g><g><path fill="#F68635" d="M1485.67 576.163l-48.688-153.501s-6.551-10.903-10.951-15.428c-5.336-5.488-9.113-11.408-12.098-17.774-2.479-5.288-4.408-10.884-6.219-16.804l-8.539-27.912-9.021-29.503s.061-.017.057-.032c-2.094-6.841 1.754-14.085 8.6-16.177 6.84-2.096 14.084 1.755 16.176 8.597.119.395.215.786.299 1.179l8.672 28.356.102-.032-11.438-37.401s.059-.018.049-.03c-2.088-6.843 1.762-14.086 8.602-16.18 6.844-2.092 14.088 1.759 16.18 8.601.123.39.215.783.293 1.178l11.092 36.254.105-.031-13.855-45.302s.059-.015.051-.028c-2.092-6.842 1.758-14.086 8.6-16.18 6.844-2.09 14.088 1.758 16.18 8.601.121.392.215.783.297 1.175l13.504 44.155.107-.03-11.441-37.4s.059-.017.057-.034c-2.098-6.844 1.75-14.086 8.594-16.177 6.844-2.092 14.088 1.757 16.182 8.6.117.393.213.785.291 1.181l14.234 46.534c.197.044.4.085.598.135l-1.131-22.531s.062 0 .059-.019c-.373-7.147 5.119-13.241 12.264-13.616 7.141-.373 13.238 5.118 13.611 12.265.02.406.02.805.004 1.207l2.76 53.761a35.4 35.4 0 01.246 2.631 36.516 36.516 0 01-7.213 23.814c-1.9 3.161-4.947 9.122-4.729 14.621.021.466.062.929.129 1.385l-.023.006 48.729 150.975c7.359 21.716-3.73 45.533-25.34 53.751-22.113 8.405-46.854-2.703-55.264-24.814a46.657 46.657 0 01-.715-2.039l-.059.013z"/><path d="M1526.485 607.81c-18.494 0-35.338-11.617-41.915-28.91a47.577 47.577 0 01-.603-1.692 1.893 1.893 0 01-.204-.439l-48.615-153.273c-.902-1.484-6.681-10.886-10.551-14.866-5.051-5.195-9.131-11.188-12.475-18.32-2.807-5.988-4.853-12.267-6.32-17.068l-17.561-57.415a1.957 1.957 0 01-.087-.528c-.996-3.612-.57-7.496 1.237-10.897a14.849 14.849 0 018.834-7.281 14.934 14.934 0 014.38-.659c2.813 0 5.469.77 7.741 2.141-1.348-7.361 3.017-14.751 10.339-16.993a14.962 14.962 0 014.378-.657c2.816 0 5.475.771 7.749 2.145-1.352-7.362 3.012-14.754 10.338-16.997a14.96 14.96 0 014.377-.656c6.044 0 11.361 3.548 13.712 8.985.118-.255.244-.508.377-.758a14.847 14.847 0 018.832-7.28 14.962 14.962 0 014.378-.657c6.616 0 12.363 4.253 14.3 10.584.126.42.232.845.32 1.275l10.193 33.325-.431-8.597a2.015 2.015 0 01.04-.515c-.152-8.018 6.106-14.794 14.175-15.217 8.308-.456 15.283 5.945 15.713 14.158.021.441.023.867.009 1.296l2.751 53.598c.124.98.206 1.866.25 2.705a38.72 38.72 0 01-7.546 25.033c-1.75 2.926-4.591 8.482-4.395 13.428.019.399.055.792.106 1.154l48.633 150.677c7.764 22.909-3.887 47.623-26.532 56.234a44.66 44.66 0 01-15.925 2.938c.001-.001-.001-.001-.002-.001zm-39.047-32.686c.077.125.141.261.188.406.212.648.439 1.304.685 1.951 5.989 15.748 21.333 26.33 38.178 26.328 4.953 0 9.833-.9 14.504-2.676 20.625-7.844 31.235-30.351 24.156-51.24l-48.737-151.002a1.985 1.985 0 01-.096-.66c-.05-.401-.084-.822-.104-1.253-.24-6.046 3.037-12.458 5.013-15.744a2.27 2.27 0 01.11-.166 34.713 34.713 0 006.819-22.515 33.53 33.53 0 00-.232-2.481 1.54 1.54 0 01-.014-.151l-2.76-53.761a1.801 1.801 0 01-.001-.18c.013-.345.013-.686-.004-1.033-.313-6.008-5.434-10.669-11.509-10.364-6.033.317-10.686 5.482-10.371 11.515a1.95 1.95 0 01-.035.489l1.107 22.065a1.999 1.999 0 01-2.488 2.039c-.11-.028-.223-.052-.335-.076l-.212-.046a2 2 0 01-1.473-1.366l-14.234-46.534a1.687 1.687 0 01-.05-.198 10.809 10.809 0 00-.245-.997 10.896 10.896 0 00-10.472-7.741c-1.082 0-2.162.163-3.209.482a10.873 10.873 0 00-6.469 5.332 10.885 10.885 0 00-.798 8.347 1.97 1.97 0 01.086.499l11.299 36.936a2.001 2.001 0 01-1.377 2.512l-.107.03a2 2 0 01-2.447-1.342l-13.504-44.155a1.822 1.822 0 01-.046-.176 10.548 10.548 0 00-.25-.994c-1.419-4.644-5.629-7.76-10.477-7.76-1.082 0-2.161.162-3.208.481-5.775 1.768-9.037 7.906-7.271 13.683.047.153.075.31.085.469l13.72 44.861a1.996 1.996 0 01-1.343 2.502l-.105.031a1.998 1.998 0 01-2.48-1.333l-11.092-36.254a1.623 1.623 0 01-.05-.197 8.883 8.883 0 00-.238-.964c-1.424-4.656-5.633-7.772-10.479-7.772a11 11 0 00-3.208.482c-5.773 1.767-9.036 7.906-7.273 13.684.046.151.074.307.084.464l11.304 36.966a2 2 0 01-1.316 2.494l-.102.032a2.004 2.004 0 01-2.508-1.325l-8.672-28.356a1.954 1.954 0 01-.044-.167 12.09 12.09 0 00-.258-1.02 10.889 10.889 0 00-10.465-7.746c-1.083 0-2.163.163-3.21.483a10.88 10.88 0 00-6.472 5.334 10.882 10.882 0 00-.802 8.345c.048.154.073.313.078.473l17.426 56.975c2.124 6.944 4.011 12.046 6.117 16.541 3.195 6.816 6.92 12.291 11.721 17.229 4.51 4.637 10.96 15.338 11.232 15.792.08.134.145.276.191.425l48.549 153.068z"/></g><g><path fill-rule="evenodd" clip-rule="evenodd" fill="#FFF" d="M418.028 368.229c.552-5.224 1.101-10.448 1.649-15.673.013-.118.002-.237.002-.561-1.375.651-2.628 1.195-3.838 1.824-8.457 4.394-17.398 7.43-26.668 9.537-4.591 1.044-9.213 1.876-13.95 1.916-2.68.022-4.938-.698-6.967-2.612a282.597 282.597 0 01-15.876-16.247c-1.47-1.628-2.921-3.273-4.49-5.033.439-.19.757-.322 1.07-.463 1.417-.643 3.395-1.661 4.794-2.342l24.619 7.912c.826.273 1.478.199 2.245-.169 14.919-7.166 29.852-14.306 44.781-21.453 11.32-5.42 22.631-10.858 33.962-16.254 4.243-2.02 8.784-2.473 13.415-2.269 2.734.12 5.401.582 7.931 1.688 1.641.716 2.992 1.739 3.833 3.377 1.193 2.321.569 4.456-.64 6.514-1.918 3.268-4.726 5.588-8.089 7.213-8.715 4.214-17.458 8.372-26.198 12.532-.594.282-.949.64-1.176 1.274-5.981 16.701-11.985 33.394-17.985 50.09-.723 2.012-1.395 4.043-2.191 6.025-.52 1.293-1.402 2.348-2.711 2.966l-11.215 5.231 3.693-35.023z"/><path fill-rule="evenodd" clip-rule="evenodd" fill="#FFF" d="M386.61 310.27c1.658-.86 3.462-.88 5.067-.351l29.653 10.144c-1.799.85-3.417 1.622-5.038 2.383-5.274 2.477-10.557 4.939-15.821 7.44-.739.352-1.284.323-1.99-.137l-21.887-14.376 10.016-5.103z"/></g><g fill="#FFF"><path d="M352.99 552.756h5.509v-15.731l-4.753 3.636-2.159-2.88 8.208-6.264h3.168v21.24h5.399v3.961H352.99v-3.962zM379.307 553.08a8 8 0 002.195-.287 5.495 5.495 0 001.746-.828c.492-.36.876-.805 1.152-1.332.275-.528.414-1.129.414-1.801 0-1.319-.522-2.357-1.566-3.113s-2.61-1.135-4.698-1.135c-.264 0-.57.006-.918.019s-.678.03-.989.054c-.36.024-.732.036-1.116.036v-13.176h13.032v4.392h-9v4.86c.191 0 .383-.012.575-.036.168 0 .33-.006.486-.018.156-.012.294-.018.414-.018 1.2 0 2.315.174 3.348.522a7.57 7.57 0 012.7 1.565c.768.696 1.362 1.542 1.782 2.538s.63 2.094.63 3.294c0 1.417-.265 2.659-.792 3.726-.528 1.068-1.248 1.963-2.16 2.683s-1.968 1.267-3.168 1.638c-1.2.372-2.483.559-3.852.559a9.661 9.661 0 01-1.692-.162c-.6-.108-1.188-.24-1.764-.396s-1.11-.33-1.603-.521-.906-.372-1.241-.541l1.512-3.743c.407.24 1.038.504 1.89.792s1.746.429 2.683.429zM400.258 541.309c0-.84.264-1.506.792-1.998.527-.492 1.224-.738 2.088-.738.912 0 1.632.247 2.16.738.527.492.792 1.158.792 1.998 0 .84-.265 1.512-.792 2.016-.528.504-1.248.756-2.16.756-.864 0-1.561-.252-2.088-.756-.529-.505-.792-1.177-.792-2.016zm0 13.031c0-.84.264-1.506.792-1.998.527-.491 1.224-.737 2.088-.737.912 0 1.632.246 2.16.737.527.492.792 1.158.792 1.998 0 .841-.265 1.513-.792 2.017-.528.504-1.248.756-2.16.756-.864 0-1.561-.252-2.088-.756-.529-.504-.792-1.176-.792-2.017zM422.901 553.26c.792 0 1.518-.101 2.178-.304s1.225-.49 1.692-.86.834-.801 1.098-1.29.396-1.021.396-1.595c0-.717-.15-1.32-.45-1.81a3.257 3.257 0 00-1.242-1.165c-.528-.286-1.164-.489-1.908-.608a15.17 15.17 0 00-2.412-.18h-2.016v-2.583l6.048-7.389h-9.107v-3.96h14.688v3.276l-6.336 7.236h.828c.84 0 1.656.144 2.448.433a6.035 6.035 0 012.105 1.295c.612.576 1.104 1.297 1.477 2.16.371.864.558 1.86.558 2.988 0 1.368-.282 2.568-.846 3.6-.564 1.033-1.309 1.902-2.232 2.61s-1.986 1.236-3.186 1.584a13.25 13.25 0 01-3.708.522c-1.08 0-2.16-.097-3.24-.289a15.47 15.47 0 01-3.132-.899l1.26-3.888c.216.12.51.24.882.359.372.121.792.24 1.26.36.469.12.948.216 1.44.288.491.074.977.109 1.457.109zM436.941 544.08c0-2.184.229-4.098.687-5.742.458-1.644 1.102-3.006 1.934-4.086.831-1.08 1.825-1.89 2.981-2.43s2.445-.81 3.866-.81c3.035 0 5.373 1.062 7.011 3.186s2.458 5.418 2.458 9.882c0 2.209-.229 4.135-.688 5.778s-1.102 3.013-1.933 4.104c-.832 1.092-1.831 1.907-3 2.447s-2.464.811-3.885.811c-3.06 0-5.396-1.122-7.011-3.366s-2.42-5.501-2.42-9.774zm4.68 0a27.775 27.775 0 00.073 2.015l8.712-8.027c-.714-2.064-2.06-3.096-4.034-3.096-1.524 0-2.696.738-3.518 2.214-.822 1.476-1.233 3.774-1.233 6.894zm9.576 0a27.84 27.84 0 00-.072-2.123l-8.748 8.027c.737 2.184 2.082 3.275 4.034 3.275 1.523 0 2.702-.731 3.535-2.195s1.251-3.792 1.251-6.984z"/></g><g fill="#FFF"><path d="M352.99 663.751h5.509V648.02l-4.753 3.635-2.159-2.879 8.208-6.265h3.168v21.24h5.399v3.96H352.99v-3.96zM379.307 664.074c.792 0 1.523-.095 2.195-.287.672-.191 1.254-.469 1.746-.828s.876-.804 1.152-1.332c.275-.527.414-1.128.414-1.8 0-1.319-.522-2.358-1.566-3.114s-2.61-1.134-4.698-1.134c-.264 0-.57.006-.918.019-.348.012-.678.029-.989.053-.36.025-.732.037-1.116.037v-13.177h13.032v4.392h-9v4.86c.191 0 .383-.012.575-.036.168 0 .33-.006.486-.018s.294-.018.414-.018c1.2 0 2.315.174 3.348.521s1.932.87 2.7 1.566a7.093 7.093 0 011.782 2.537c.42.996.63 2.095.63 3.295 0 1.416-.265 2.658-.792 3.726a7.75 7.75 0 01-2.16 2.683c-.912.719-1.968 1.266-3.168 1.637-1.2.373-2.483.559-3.852.559a9.566 9.566 0 01-1.692-.162 20.54 20.54 0 01-1.764-.396 15.562 15.562 0 01-1.603-.521 14.282 14.282 0 01-1.241-.54l1.512-3.743c.407.24 1.038.504 1.89.791.852.288 1.746.43 2.683.43zM400.258 652.303c0-.84.264-1.506.792-1.998.527-.491 1.224-.738 2.088-.738.912 0 1.632.247 2.16.738.527.492.792 1.158.792 1.998 0 .841-.265 1.512-.792 2.016-.528.504-1.248.756-2.16.756-.864 0-1.561-.252-2.088-.756-.529-.505-.792-1.175-.792-2.016zm0 13.032c0-.84.264-1.506.792-1.998.527-.491 1.224-.737 2.088-.737.912 0 1.632.246 2.16.737.527.492.792 1.158.792 1.998 0 .841-.265 1.513-.792 2.017-.528.504-1.248.756-2.16.756-.864 0-1.561-.252-2.088-.756-.529-.504-.792-1.176-.792-2.017zM422.506 664.074c.792 0 1.523-.095 2.195-.287.672-.191 1.254-.469 1.746-.828s.876-.804 1.152-1.332c.275-.527.414-1.128.414-1.8 0-1.319-.522-2.358-1.566-3.114s-2.61-1.134-4.698-1.134c-.264 0-.57.006-.918.019-.348.012-.678.029-.989.053-.36.025-.732.037-1.116.037v-13.177h13.032v4.392h-9v4.86c.191 0 .383-.012.575-.036.168 0 .33-.006.486-.018s.294-.018.414-.018c1.2 0 2.315.174 3.348.521s1.932.87 2.7 1.566a7.093 7.093 0 011.782 2.537c.42.996.63 2.095.63 3.295 0 1.416-.265 2.658-.792 3.726a7.75 7.75 0 01-2.16 2.683c-.912.719-1.968 1.266-3.168 1.637-1.2.373-2.483.559-3.852.559a9.566 9.566 0 01-1.692-.162 20.54 20.54 0 01-1.764-.396 15.562 15.562 0 01-1.603-.521 14.282 14.282 0 01-1.241-.54l1.512-3.743c.407.24 1.038.504 1.89.791.852.288 1.746.43 2.683.43zM436.941 655.074c0-2.184.229-4.098.687-5.741s1.102-3.006 1.934-4.086c.831-1.08 1.825-1.89 2.981-2.431 1.156-.539 2.445-.81 3.866-.81 3.035 0 5.373 1.062 7.011 3.187 1.638 2.123 2.458 5.418 2.458 9.881 0 2.209-.229 4.135-.688 5.779-.458 1.644-1.102 3.012-1.933 4.104-.832 1.092-1.831 1.908-3 2.447-1.169.541-2.464.811-3.885.811-3.06 0-5.396-1.121-7.011-3.365s-2.42-5.502-2.42-9.776zm4.68 0a27.791 27.791 0 00.073 2.016l8.712-8.028c-.714-2.063-2.06-3.096-4.034-3.096-1.524 0-2.696.738-3.518 2.215-.822 1.475-1.233 3.774-1.233 6.893zm9.576 0a27.84 27.84 0 00-.072-2.123l-8.748 8.027c.737 2.185 2.082 3.276 4.034 3.276 1.523 0 2.702-.731 3.535-2.196.834-1.462 1.251-3.79 1.251-6.984z"/></g><g fill="#FFF"><path d="M352.99 776.245h5.509v-15.731l-4.753 3.635-2.159-2.879 8.208-6.265h3.168v21.24h5.399v3.96H352.99v-3.96zM390.43 772.393c0 1.177-.222 2.269-.665 3.276a8.268 8.268 0 01-1.818 2.628c-.769.744-1.687 1.332-2.754 1.764a9.062 9.062 0 01-3.438.648c-1.248 0-2.418-.197-3.51-.594a7.942 7.942 0 01-2.862-1.782c-.815-.792-1.464-1.788-1.943-2.987-.48-1.2-.721-2.593-.721-4.177 0-2.376.414-4.536 1.242-6.479.828-1.944 1.891-3.631 3.187-5.059s2.747-2.58 4.355-3.455c1.607-.877 3.204-1.435 4.788-1.675l1.044 3.708c-1.272.24-2.46.63-3.563 1.17a13.004 13.004 0 00-2.952 1.963 11.808 11.808 0 00-2.178 2.555 8.994 8.994 0 00-1.206 2.916c.479-.6 1.199-1.109 2.159-1.529s2.017-.63 3.168-.63c1.08 0 2.089.175 3.024.522a6.924 6.924 0 012.43 1.512c.685.66 1.225 1.47 1.62 2.43.395.959.593 2.051.593 3.275zm-4.535.18c0-1.296-.391-2.28-1.17-2.952-.78-.672-1.831-1.008-3.15-1.008-.96 0-1.824.216-2.592.648-.769.432-1.332.936-1.692 1.512a6.246 6.246 0 00-.09.882c-.013.323-.018.582-.018.774 0 .575.095 1.128.287 1.655.192.528.474.99.847 1.386.371.396.821.709 1.35.937.527.228 1.14.342 1.836.342a4.46 4.46 0 001.62-.306 4.628 4.628 0 001.404-.846c.407-.36.738-.799.99-1.314s.378-1.086.378-1.71zM400.258 764.797c0-.84.264-1.506.792-1.998.527-.491 1.224-.738 2.088-.738.912 0 1.632.247 2.16.738.527.492.792 1.158.792 1.998 0 .841-.265 1.512-.792 2.016-.528.504-1.248.756-2.16.756-.864 0-1.561-.252-2.088-.756-.529-.504-.792-1.175-.792-2.016zm0 13.032c0-.84.264-1.506.792-1.998.527-.491 1.224-.737 2.088-.737.912 0 1.632.246 2.16.737.527.492.792 1.158.792 1.998 0 .841-.265 1.513-.792 2.017-.528.504-1.248.756-2.16.756-.864 0-1.561-.252-2.088-.756-.529-.504-.792-1.176-.792-2.017zM417.789 776.245h5.509v-15.731l-4.753 3.635-2.159-2.879 8.208-6.265h3.168v21.24h5.399v3.96h-15.372v-3.96zM436.941 767.568c0-2.184.229-4.098.687-5.741s1.102-3.006 1.934-4.086c.831-1.08 1.825-1.89 2.981-2.431 1.156-.539 2.445-.81 3.866-.81 3.035 0 5.373 1.062 7.011 3.187 1.638 2.123 2.458 5.418 2.458 9.881 0 2.209-.229 4.135-.688 5.779-.458 1.644-1.102 3.012-1.933 4.104-.832 1.092-1.831 1.908-3 2.447-1.169.541-2.464.811-3.885.811-3.06 0-5.396-1.121-7.011-3.365s-2.42-5.502-2.42-9.776zm4.68 0a27.791 27.791 0 00.073 2.016l8.712-8.028c-.714-2.063-2.06-3.096-4.034-3.096-1.524 0-2.696.738-3.518 2.215-.822 1.475-1.233 3.774-1.233 6.893zm9.576 0a27.84 27.84 0 00-.072-2.123l-8.748 8.027c.737 2.185 2.082 3.276 4.034 3.276 1.523 0 2.702-.731 3.535-2.196.834-1.462 1.251-3.79 1.251-6.984z"/></g><g><path d="M1341.396 682.441zM1357.752 695.966zM1431.033 699.508l-.002-.003a76.048 76.048 0 01-7.508 3.194 76.295 76.295 0 01-16.02 3.909L1379.678 883.5c22.125.5 26.082.242 39.443.242 67.744 0 122.662-54.918 122.662-122.661 0-31.864-12.152-60.889-32.072-82.697-40.359 2.102-43.877 4.07-78.678 21.124z"/></g><g><path fill="#FFF" d="M1231.669 553.298c-.686.185-1.573 110.437 2.789 126.596 4.367 16.164 21.008 25.729 37.172 21.363 16.162-4.365 25.726-21.006 21.36-37.168-4.364-16.164-60.991-110.882-61.321-110.791z"/><path fill="#FFF" d="M1232.132 553.298c-.679-.199-59.273 93.192-64.036 109.243-4.765 16.053 4.389 32.924 20.438 37.684 16.049 4.767 32.921-4.386 37.684-20.437 4.76-16.05 6.242-126.39 5.914-126.49z"/></g></svg>