<svg xmlns="http://www.w3.org/2000/svg" viewBox="0 0 816.33 759.34" xml:space="preserve"><path d="m451.07 478.34.6-.23-.53.2-.07.03zm-8.63 4.23-.42.26.42-.26z"/><path d="M.46 51.5v614.22a38.82 38.82 0 0 0 38.82 38.83h406.25l-.06-.4h-66.62v-34.68a66.87 66.87 0 0 1-28.87-41.75h-78.1v-23h77.15a66.57 66.57 0 0 1 3.02-12.87c9.28-28.24 10.54-33.94 9.08-53.13h-89.26v-23h88.18a56.79 56.79 0 0 1 12.92-31.3 57.6 57.6 0 0 1 8.72-8.48 56.84 56.84 0 0 1 36.21-12.14 56.84 56.84 0 0 1 35.91 13.56 56.73 56.73 0 0 1 17.48-2.73h113.05c10.63 0 22.48-.26 34.13 1.64a56.8 56.8 0 0 1 22.52-15 57.94 57.94 0 0 1 5.87-1.78c19.28-4.74 26.8-6.51 37.32-12.94 5.75-3.52 12.4-8.42 22.37-15.96a66.64 66.64 0 0 1 18.19-10.04 67.18 67.18 0 0 1 10.84-2.94 66.85 66.85 0 0 1 66.22 26.79V51.5H.46zm115.7 150.64H16.77v-10.87h99.39v10.87zm109.48 0h-72.98v-10.87h72.98v10.87zm48.15-10.87h195.05v10.87H273.8v-10.87zm-1.56 149.09H481.9v23.3H272.24v-23.3zM532.88 455.7l-12.73.1a68.5 68.5 0 0 1-2.53-9.7v9.17H272.23v-23.3h244.25a68.94 68.94 0 0 1 3.7-20.8c11.43-34.8 11.09-36.49 8.25-68.11a59.07 59.07 0 0 1-.23-6.34 58.8 58.8 0 0 1 4.67-21.99V455.7zm0-180.58H272.24v-23.3h260.63v23.3z"/><path d="m445.91 480.63.14-.07h-.01l-.13.07zm-24.46 29.49-.08.39.14-.57-.06.18zm13.94-22.35.53-.47-.02.01-.51.46zm2.78-2.29.9-.66h-.02l-.88.66zm-7.4 6.94.9-1.01-.9 1.01zm-5.25 7.55a43.11 43.11 0 0 1 1.05-1.8l.29-.45.05-.08-.05.07-.3.47c-.35.58-.7 1.16-1.02 1.75l-.22.38a45.74 45.74 0 0 0-1.1 2.17c0 .03-.02.06-.04.09l.04-.08c.35-.74.72-1.47 1.11-2.19l.19-.33zm-3.23 7.34c.22-.68.47-1.35.73-2.01l.08-.2-.09.21a41.76 41.76 0 0 0-.71 1.99c-.04.1-.08.2-.1.3.02-.1.06-.2.09-.29zm-2.19 12.63a46.83 46.83 0 0 0-.02 1.68v.01c0-.57 0-1.13.02-1.69zm350.2 26.13a66.6 66.6 0 0 1-20.35 3.97c-35.38 1.72-36.79 2.62-64.36 16.13a57.06 57.06 0 0 1-5.64 2.4 57.36 57.36 0 0 1-12.03 2.93l-20.73 133.05h115.78a38.82 38.82 0 0 0 38.83-38.82V522.2a66.47 66.47 0 0 1-31.5 23.87zm-348.93-35.56a44.39 44.39 0 0 0-.42 1.87l-.14.67.14-.66a43.29 43.29 0 0 1 .42-1.88zm-1.27 9.03zm.46 8.19a62.4 62.4 0 0 1-.23-1.85 45.28 45.28 0 0 1 .23 1.85zm20.82 147.19.12.82-20.12-143.7 18.86 134.75z"/><path fill="#FF8630" d="M761.41 2H40.82A38.82 38.82 0 0 0 2 40.82v12.43h798.24V40.82A38.82 38.82 0 0 0 761.4 2z"/><path d="M802.24 55.25H0V40.82A40.87 40.87 0 0 1 40.82 0h720.6a40.87 40.87 0 0 1 40.81 40.82v14.43zM4 51.25h794.24V40.82A36.87 36.87 0 0 0 761.4 4H40.82A36.87 36.87 0 0 0 4 40.82v10.43z"/><path fill="#FF8630" d="M130.89 175.04h4V663.8h-4zm111.83 0h4V663.8h-4z"/><path fill="#FFF" d="M2.8 217.69h795.5v4H2.8zm0 89.29h797.07v4H2.81zm0 89.3h797.07v4H2.81zm0 85.4h563.07v4H2.81zm0 89.3h358.07v4H2.81zm0 89.3h416.05v4H2.8zm594.54-89.3h201.53v4H597.34zm7.5 89.3h195.03v4H604.84zM3.96 172.26h794.91v4H3.96z"/><circle fill="#FFF" cx="35.88" cy="28.52" r="12.81"/><circle cx="71.98" cy="28.52" r="12.81"/><circle fill="#FFF" cx="108.09" cy="28.52" r="12.81"/><path fill="#FF8630" d="m199.35 140.86-43.45-25.59v-6.62l43.43-26.97 7.13 11.26-30.68 18.55 30.69 18.13-7.12 11.24zm-39.45-27.88 38.14 22.46 2.84-4.48-32.9-19.43 32.92-19.9-2.83-4.46-38.17 23.7V113zm77.06 30.14c-7.08 0-12.54-2.06-16.2-6.12-3.62-4-5.46-10.28-5.46-18.68v-10.5h-8.64v-13.6h8.64v-9.47l15.36-4.37v13.84h22.89v13.6h-22.89v10.5c0 3.98.7 6.83 2.06 8.45 1.3 1.55 3.12 2.3 5.55 2.3a13.18 13.18 0 0 0 6.74-1.74 17.63 17.63 0 0 0 2.5-1.73l2.32-1.92 1.71-1.42 7.31 10.97-.98 1.15a18.9 18.9 0 0 1-4.15 3.57 33.4 33.4 0 0 1-5.1 2.7 32.44 32.44 0 0 1-5.73 1.81 27.79 27.79 0 0 1-5.93.66zm-26.3-39.3h8.64v14.5c0 7.38 1.49 12.76 4.42 16 2.92 3.23 7.25 4.8 13.24 4.8 1.65 0 3.36-.19 5.07-.56a28.43 28.43 0 0 0 5.02-1.6 29.39 29.39 0 0 0 4.5-2.37 16.41 16.41 0 0 0 2.25-1.73l-3.12-4.68-.61.5a21.68 21.68 0 0 1-3.08 2.12 18.23 18.23 0 0 1-3.88 1.62c-1.45.44-3.08.65-4.84.65-3.63 0-6.53-1.25-8.6-3.72-2.03-2.4-3-6.01-3-11.03v-14.5h22.88v-5.6h-22.89V85.68l-7.36 2.09v10.45h-8.64v5.6zm67.97 38.78c-4.84 0-8.77-1.35-11.68-4.02-2.97-2.71-4.47-6.32-4.47-10.74 0-2.75.52-5.18 1.55-7.23 1.06-2.08 2.6-3.8 4.59-5.13 1.9-1.26 4.2-2.21 6.82-2.82a37.97 37.97 0 0 1 11.98-.7c.64.07 1.4.14 2.23.2v-1.26c0-2.33-.84-2.96-1.12-3.17-.9-.68-2.43-1.04-4.43-1.04-2.73 0-5.2.35-7.37 1.04a49.65 49.65 0 0 0-5.75 2.18l-2.1.98-3.85-12.8 1.6-.72a49.85 49.85 0 0 1 8.42-2.83c3.2-.8 7.02-1.2 11.35-1.2 3.24 0 6.06.41 8.38 1.2 2.42.84 4.42 2.05 5.94 3.6a13.82 13.82 0 0 1 3.32 5.6c.64 2.06.96 4.37.96 6.9 0 3.03-.1 5.65-.31 7.79a57.2 57.2 0 0 0-.3 5.4c0 1.15.06 2.46.17 3.89l.07.57h5.88v13.6h-18.32l-.75-3.87a19.26 19.26 0 0 1-3.09 2.32c-2.45 1.5-5.72 2.26-9.72 2.26zm5.29-26.82a34 34 0 0 0-7.58.78c-2.16.5-4.01 1.25-5.5 2.25a9.26 9.26 0 0 0-3.23 3.6 12 12 0 0 0-1.13 5.43c0 3.3 1.03 5.84 3.17 7.79 2.18 2 5.12 2.97 8.98 2.97 3.25 0 5.82-.56 7.64-1.67a13.2 13.2 0 0 0 4.3-4.05l.6-.92h3.17l1.15 5.94h11.02v-5.61h-5.53l-.14-1.84a37.3 37.3 0 0 0-.25-2.24l-.02-.12a55.88 55.88 0 0 1-.18-4.26c0-1.7.1-3.64.32-5.79.19-2.01.29-4.5.29-7.4 0-2.12-.26-4.04-.78-5.7a9.78 9.78 0 0 0-2.36-4 11 11 0 0 0-4.37-2.6c-1.91-.66-4.3-1-7.09-1-4 0-7.5.37-10.4 1.09-2.24.55-4.29 1.2-6.12 1.9l1.52 5.05a65.07 65.07 0 0 1 4.1-1.45 28.31 28.31 0 0 1 8.6-1.23c2.96 0 5.2.6 6.84 1.84 1.8 1.36 2.7 3.5 2.7 6.36v1.66c0 .7-.06 1.41-.2 2.13l-.34 1.73-1.77-.12a140.46 140.46 0 0 1-4.31-.36 30.96 30.96 0 0 0-3.1-.16zm-1.6 17.47c-2.75 0-4.74-.62-6.1-1.9a6.93 6.93 0 0 1-2.04-5.25c0-1.43.4-2.68 1.17-3.73a7.76 7.76 0 0 1 2.78-2.3c1.02-.51 2.19-.9 3.47-1.14a24.7 24.7 0 0 1 7.61-.1c1.19.14 2.1.28 2.74.41l1.6.32v7.4l-.24.44a12.26 12.26 0 0 1-3.6 3.93c-1.74 1.3-4.16 1.92-7.4 1.92zm2.93-10.66c-.96 0-1.94.1-2.92.28-.9.16-1.71.43-2.4.77-.58.3-1.03.66-1.36 1.11-.26.35-.39.8-.39 1.35 0 1.06.27 1.83.8 2.34.55.53 1.73.81 3.34.81 2.28 0 4.02-.4 5.03-1.14a9 9 0 0 0 2.2-2.22v-2.98a63.05 63.05 0 0 0-.83-.11 28.04 28.04 0 0 0-3.47-.2zm50.86 20.36c-4.74 0-8.8-.57-12.05-1.68a37.61 37.61 0 0 1-7.53-3.34l-.94-.59V90.36h-6.73V76.75h22.08v19.04a16.93 16.93 0 0 1 2.56-1.26c2.29-.9 5.1-1.36 8.38-1.36 6.3 0 11.44 2.03 15.28 6.03 3.82 3.98 5.76 9.95 5.76 17.72 0 4.13-.64 7.86-1.89 11.08a22.31 22.31 0 0 1-5.42 8.24 23.17 23.17 0 0 1-8.5 5.03 33.92 33.92 0 0 1-11 1.68zm-16.52-7.88c1.48.8 3.4 1.6 5.77 2.41 2.83.97 6.45 1.47 10.75 1.47a30 30 0 0 0 9.7-1.47 19.2 19.2 0 0 0 7.05-4.14c1.9-1.8 3.4-4.08 4.45-6.79 1.07-2.75 1.6-6 1.6-9.63 0-6.7-1.55-11.74-4.63-14.95-3.1-3.23-7.16-4.8-12.4-4.8-2.77 0-5.1.37-6.91 1.09a10.44 10.44 0 0 0-4.17 2.77l-.6.68h-3.26V80.75h-14.08v5.6h6.73v48.72zm18.44-1.73a24.02 24.02 0 0 1-9.98-2.31l-1.1-.55v-19.76l.1-.32a9.12 9.12 0 0 1 2.19-3.4 14.34 14.34 0 0 1 2.94-2.29 14.9 14.9 0 0 1 3.27-1.41 11.6 11.6 0 0 1 3.28-.52c4.03 0 7.18 1.3 9.34 3.85 2.09 2.46 3.14 6.04 3.14 10.64 0 2.65-.33 4.98-.98 6.93a14.66 14.66 0 0 1-2.79 5.05 11.43 11.43 0 0 1-4.34 3.11 13.41 13.41 0 0 1-5.07.98zm-7.09-5.4c.67.25 1.47.51 2.4.77 1.44.42 3.02.63 4.69.63 1.25 0 2.45-.23 3.57-.69a7.32 7.32 0 0 0 2.83-2.04c.84-.96 1.52-2.2 2.01-3.68.51-1.54.77-3.44.77-5.66 0-3.62-.74-6.33-2.19-8.05-1.39-1.64-3.45-2.44-6.3-2.44a7.7 7.7 0 0 0-2.14.36 10.43 10.43 0 0 0-4.52 2.69 5.14 5.14 0 0 0-1.12 1.62v16.48zm64.75 15.18c-6.01 0-10.64-1.61-13.75-4.8-3.1-3.16-4.68-7.63-4.68-13.27v-34.7h-7.25v-13.6h22.6v42.36c0 5.08.74 7.3 1.36 8.28.46.72 1.33 1.69 3.64 1.69 1.59 0 2.88-.16 3.83-.47a15.09 15.09 0 0 0 3.09-1.43l1.79-1.08 6.16 11.32-1.56 1.01a55.74 55.74 0 0 1-3.08 1.86 21.2 21.2 0 0 1-3.47 1.54 23.45 23.45 0 0 1-3.97.96c-1.4.22-3 .33-4.71.33zM374 86.36h7.25v38.69c0 4.62 1.16 8.05 3.54 10.48 2.33 2.38 6 3.59 10.89 3.59a28 28 0 0 0 4.1-.28 19.5 19.5 0 0 0 3.29-.8 17.07 17.07 0 0 0 2.81-1.24l1.3-.75-2.44-4.46c-.69.32-1.38.6-2.07.82-1.37.45-3.03.66-5.07.66-3.94 0-6-1.93-7.02-3.55-1.33-2.09-1.97-5.5-1.97-10.41V80.75h-14.6v5.6zm70.95 56.76c-3.95 0-7.54-.57-10.68-1.69a22.14 22.14 0 0 1-8.2-5.04 22.15 22.15 0 0 1-5.14-7.97 29.05 29.05 0 0 1-1.75-10.36c0-4.1.67-7.75 2-10.87a22.26 22.26 0 0 1 5.52-7.91c2.32-2.1 5.07-3.7 8.17-4.74a30.95 30.95 0 0 1 17.23-.61 20.8 20.8 0 0 1 7.2 3.33 18.2 18.2 0 0 1 5.45 6.42c1.4 2.67 2.11 6.04 2.11 10.01a44 44 0 0 1-.91 8.52l-.32 1.6H434.8c.16.65.38 1.23.66 1.74a7.28 7.28 0 0 0 2.28 2.48c.99.67 2.15 1.18 3.45 1.5 1.38.34 2.88.5 4.46.5 3.25 0 5.9-.36 7.92-1.1a16.27 16.27 0 0 0 4.86-2.62l1.94-1.61 5.57 11.02-1.11 1.02a18.1 18.1 0 0 1-3.3 2.33 34.59 34.59 0 0 1-16.57 4.05zM444.78 97c-3.09 0-5.99.45-8.62 1.33a19.07 19.07 0 0 0-6.77 3.92 18.28 18.28 0 0 0-4.52 6.5 23.85 23.85 0 0 0-1.68 9.3c0 3.36.5 6.37 1.49 8.95a18.22 18.22 0 0 0 4.2 6.54 18.18 18.18 0 0 0 6.74 4.12c2.71.97 5.85 1.46 9.33 1.46a32.3 32.3 0 0 0 10.72-1.8 26.8 26.8 0 0 0 3.9-1.75c.5-.28.97-.57 1.38-.85l-1.98-3.92a23.95 23.95 0 0 1-4.03 1.9c-2.45.88-5.57 1.33-9.29 1.33-1.9 0-3.72-.2-5.4-.62a14.48 14.48 0 0 1-4.77-2.09 11.35 11.35 0 0 1-3.5-3.8 12.06 12.06 0 0 1-1.43-5.65l-.06-2.06h31.84c.36-2.18.54-4.23.54-6.12 0-3.33-.55-6.07-1.65-8.16-1.1-2.1-2.53-3.8-4.24-5.03a16.84 16.84 0 0 0-5.82-2.69c-2.2-.54-4.34-.81-6.38-.81zm11.52 18.52h-25.65l.17-2.16c.14-1.78.64-3.41 1.5-4.86a12.01 12.01 0 0 1 3.19-3.57 13.96 13.96 0 0 1 4.23-2.13 16.44 16.44 0 0 1 4.87-.72c3.81 0 6.76 1.07 8.74 3.16 1.96 2.07 2.95 4.86 2.95 8.28v2zm-21.02-4h16.86a6.69 6.69 0 0 0-1.7-3.53c-1.2-1.26-3.16-1.9-5.83-1.9-1.3 0-2.55.17-3.7.53a9.93 9.93 0 0 0-3.01 1.51 7.94 7.94 0 0 0-2.14 2.4 6.73 6.73 0 0 0-.48.99zm41.43 29.34-7.12-11.24 30.7-18.13-30.69-18.55 7.14-11.26 43.42 26.97v6.62l-43.45 25.59zm-1.53-9.9 2.84 4.48 38.14-22.46v-2.1L478 87.16l-2.83 4.46 32.92 19.9-32.91 19.43z"/><path fill="#FFF" d="m205.57 290.89-13.93-10.98-7.22 16.2-3.61-17.36-15.95 7.78 8.4-15.63-17.22-4.29 16.48-6.58-10.43-14.35 16.85 5.55 1.23-17.7 9.34 15.09 12.32-12.76-2.54 17.55 17.64-1.85-13.23 11.81 14.7 9.92-17.72.54z"/><g fill="#FFF"><circle cx="173.83" cy="352.46" r="18.64"/><circle cx="200.62" cy="352.46" r="18.64"/></g><path fill="#FFF" d="M161.02 427h52.4v30.28h-52.4z"/><g fill="#FFF"><path d="m78.48 127.39 1.28-12.17v-.44c-1.06.5-2.04.93-2.98 1.42a85.85 85.85 0 0 1-20.7 7.4 50.84 50.84 0 0 1-10.84 1.5 7.31 7.31 0 0 1-5.4-2.04 219.62 219.62 0 0 1-12.33-12.61c-1.15-1.27-2.27-2.54-3.49-3.91l.83-.36c1.1-.5 2.64-1.29 3.72-1.82l19.12 6.14c.64.22 1.15.16 1.74-.13 11.59-5.56 23.18-11.1 34.78-16.65 8.79-4.21 17.57-8.44 26.37-12.63 3.29-1.56 6.82-1.92 10.41-1.76 2.13.1 4.2.46 6.16 1.31a5.7 5.7 0 0 1 2.98 2.63c.92 1.8.44 3.46-.5 5.06a14.21 14.21 0 0 1-6.28 5.6c-6.77 3.27-13.56 6.5-20.34 9.73-.47.22-.74.5-.92.99-4.64 12.96-9.3 25.93-13.96 38.9-.56 1.55-1.09 3.13-1.7 4.67-.4 1-1.1 1.82-2.1 2.3l-8.72 4.06 2.87-27.2z"/><path d="M54.09 82.39a5.03 5.03 0 0 1 3.93-.28L81.04 90l-3.9 1.85c-4.1 1.92-8.2 3.84-12.29 5.78-.57.27-1 .25-1.54-.11l-17-11.16 7.78-3.97z"/></g><path d="M27.98 270.67h4.28v-12.21l-3.69 2.82-1.68-2.23 6.38-4.87h2.46v16.5h4.19v3.07H27.98v-3.08zm20.44.26a6.11 6.11 0 0 0 1.7-.23 4.19 4.19 0 0 0 1.36-.64 2.97 2.97 0 0 0 .9-1.04c.2-.4.31-.87.31-1.4 0-1.02-.4-1.82-1.21-2.41-.81-.59-2.03-.88-3.65-.88a21.85 21.85 0 0 0-1.48.06l-.87.02v-10.23H55.6v3.41h-6.99v3.78l.45-.03c.13 0 .25 0 .38-.02a4.41 4.41 0 0 1 .32-.01c.93 0 1.8.13 2.6.4.8.28 1.5.68 2.1 1.22a5.51 5.51 0 0 1 1.38 1.97c.32.77.49 1.63.49 2.56 0 1.1-.2 2.06-.62 2.9a6.01 6.01 0 0 1-1.67 2.08 7.51 7.51 0 0 1-2.46 1.27 10.07 10.07 0 0 1-4.31.31c-.47-.08-.92-.2-1.37-.31a12.46 12.46 0 0 1-2.2-.83l1.17-2.9c.31.19.8.39 1.46.61a6.5 6.5 0 0 0 2.09.34zm16.26-9.15c0-.65.21-1.16.62-1.55.4-.38.95-.57 1.62-.57.7 0 1.27.2 1.68.57s.61.9.61 1.55c0 .66-.2 1.18-.61 1.57-.41.4-.97.59-1.68.59-.67 0-1.21-.2-1.62-.59a2.1 2.1 0 0 1-.61-1.57zm0 10.12c0-.65.21-1.16.62-1.55.4-.38.95-.57 1.62-.57.7 0 1.27.19 1.68.57s.61.9.61 1.55-.2 1.18-.61 1.57-.97.59-1.68.59c-.67 0-1.21-.2-1.62-.6-.4-.38-.61-.9-.61-1.56zm17.59-.83c.61 0 1.18-.08 1.69-.24.51-.16.95-.38 1.31-.67s.65-.62.86-1c.2-.38.3-.8.3-1.24 0-.56-.11-1.02-.35-1.4a2.51 2.51 0 0 0-.96-.9c-.41-.23-.9-.39-1.48-.48a11.9 11.9 0 0 0-1.87-.14H80.2v-2l4.7-5.74h-7.08v-3.08h11.4v2.55l-4.91 5.61h.64c.65 0 1.29.12 1.9.34a4.73 4.73 0 0 1 2.78 2.68c.3.67.44 1.45.44 2.32 0 1.06-.22 2-.66 2.8s-1.01 1.48-1.73 2.02a7.4 7.4 0 0 1-2.48 1.23 10.26 10.26 0 0 1-2.87.4c-.84 0-1.68-.07-2.52-.22s-1.65-.38-2.43-.7l.97-3.02c.17.1.4.2.7.28a14.96 14.96 0 0 0 2.09.5c.38.07.75.1 1.13.1zm10.9-7.13c0-1.7.18-3.18.53-4.46a9.17 9.17 0 0 1 1.5-3.17 6.22 6.22 0 0 1 2.32-1.9 7 7 0 0 1 3-.62c2.36 0 4.17.82 5.44 2.47 1.28 1.65 1.91 4.21 1.91 7.68 0 1.71-.18 3.2-.53 4.48a9.34 9.34 0 0 1-1.5 3.19c-.65.85-1.42 1.48-2.33 1.9s-1.91.63-3.02.63c-2.37 0-4.19-.87-5.44-2.61-1.25-1.75-1.88-4.28-1.88-7.6zm3.63 0a20.13 20.13 0 0 0 .06 1.56l6.76-6.23c-.55-1.6-1.6-2.4-3.13-2.4-1.18 0-2.1.57-2.73 1.72-.64 1.14-.96 2.93-.96 5.35zm7.44 0a22.26 22.26 0 0 0-.06-1.65l-6.79 6.23c.57 1.7 1.62 2.54 3.13 2.54 1.19 0 2.1-.56 2.75-1.7.65-1.14.97-2.94.97-5.42zm-76.26 92.92h4.28v-12.22l-3.69 2.83-1.68-2.24 6.38-4.86h2.46v16.5h4.19v3.07H27.98v-3.08zm20.44.25a6.11 6.11 0 0 0 1.7-.22 4.21 4.21 0 0 0 1.36-.64 2.96 2.96 0 0 0 1.21-2.44 2.8 2.8 0 0 0-1.21-2.41c-.81-.6-2.03-.88-3.65-.88a21.85 21.85 0 0 0-1.48.05c-.28.02-.57.03-.87.03v-10.23H55.6v3.4h-6.99v3.78c.15 0 .3 0 .45-.03a4.62 4.62 0 0 0 .7-.02c.93 0 1.8.13 2.6.4s1.5.68 2.1 1.22a5.51 5.51 0 0 1 1.38 1.97c.32.77.49 1.62.49 2.56 0 1.1-.2 2.06-.62 2.9a6.02 6.02 0 0 1-1.67 2.07 7.51 7.51 0 0 1-2.46 1.27c-.94.3-1.93.44-3 .44-.4 0-.84-.04-1.31-.13s-.92-.18-1.37-.3-.86-.26-1.24-.41a11.57 11.57 0 0 1-.97-.42l1.18-2.9a8.09 8.09 0 0 0 3.55.94zm16.26-9.14c0-.65.21-1.17.62-1.55.4-.38.95-.57 1.62-.57.7 0 1.27.19 1.68.57s.61.9.61 1.55-.2 1.18-.61 1.57c-.41.39-.97.58-1.68.58a2.3 2.3 0 0 1-1.62-.58c-.4-.4-.61-.92-.61-1.57zm0 10.12c0-.65.21-1.17.62-1.55.4-.38.95-.57 1.62-.57.7 0 1.27.19 1.68.57.4.38.61.9.61 1.55s-.2 1.18-.61 1.57c-.41.39-.97.58-1.68.58a2.3 2.3 0 0 1-1.62-.58c-.4-.4-.61-.92-.61-1.57zm17.28-.98a6.11 6.11 0 0 0 1.7-.22 4.21 4.21 0 0 0 1.36-.64 2.96 2.96 0 0 0 1.22-2.44c0-1.02-.4-1.83-1.22-2.41-.81-.6-2.03-.88-3.65-.88a21.85 21.85 0 0 0-1.48.05c-.28.02-.57.03-.87.03v-10.23h10.12v3.4h-6.98v3.78c.14 0 .3 0 .44-.03a4.62 4.62 0 0 0 .7-.02c.93 0 1.8.13 2.6.4s1.5.68 2.1 1.22a5.51 5.51 0 0 1 1.38 1.97c.33.77.5 1.62.5 2.56 0 1.1-.21 2.06-.62 2.9a6.02 6.02 0 0 1-1.68 2.07 7.51 7.51 0 0 1-2.46 1.27c-.93.3-1.93.44-3 .44-.4 0-.84-.04-1.3-.13s-.93-.18-1.38-.3-.86-.26-1.24-.41a11.57 11.57 0 0 1-.96-.42l1.17-2.9c.32.18.8.39 1.47.6a6.5 6.5 0 0 0 2.08.34zm11.21-6.99c0-1.7.18-3.18.53-4.45s.86-2.34 1.5-3.18 1.42-1.47 2.32-1.88a7 7 0 0 1 3-.63c2.36 0 4.17.82 5.44 2.47 1.28 1.65 1.91 4.2 1.91 7.67 0 1.72-.18 3.21-.53 4.49-.36 1.28-.86 2.34-1.5 3.19s-1.42 1.48-2.33 1.9-1.91.63-3.02.63c-2.37 0-4.19-.87-5.44-2.62-1.25-1.74-1.88-4.27-1.88-7.59zm3.63 0a20.16 20.16 0 0 0 .06 1.57l6.77-6.23c-.56-1.6-1.6-2.4-3.14-2.4-1.18 0-2.1.57-2.73 1.71-.64 1.15-.96 2.93-.96 5.35zm7.44 0a22.39 22.39 0 0 0-.06-1.65l-6.79 6.24c.57 1.7 1.62 2.54 3.13 2.54 1.19 0 2.1-.57 2.75-1.7.65-1.14.97-2.95.97-5.43zm-76.26 94.09h4.28v-12.22l-3.69 2.83-1.68-2.24 6.38-4.86h2.46v16.5h4.19v3.06H27.98v-3.07zm29.07-3c0 .92-.17 1.77-.51 2.55a6.4 6.4 0 0 1-1.41 2.04 6.6 6.6 0 0 1-2.14 1.37 7.06 7.06 0 0 1-2.67.5 7.92 7.92 0 0 1-2.73-.46 6.2 6.2 0 0 1-2.22-1.38 6.6 6.6 0 0 1-1.51-2.32 8.68 8.68 0 0 1-.56-3.24c0-1.85.32-3.52.96-5.03a13.91 13.91 0 0 1 2.48-3.93 12.9 12.9 0 0 1 3.38-2.68 11.33 11.33 0 0 1 3.72-1.3l.8 2.88a10.86 10.86 0 0 0-2.76.9 10.16 10.16 0 0 0-2.3 1.53 9.2 9.2 0 0 0-1.68 1.98 6.97 6.97 0 0 0-.94 2.27c.37-.47.93-.87 1.68-1.2s1.56-.48 2.46-.48c.84 0 1.62.13 2.35.4a5.39 5.39 0 0 1 1.88 1.18c.53.51.95 1.14 1.26 1.88s.46 1.6.46 2.55zm-3.52.15c0-1-.3-1.77-.9-2.3a3.62 3.62 0 0 0-2.45-.77 4.03 4.03 0 0 0-3.33 1.67 4.87 4.87 0 0 0-.07.69 17.89 17.89 0 0 0-.01.6c0 .45.07.88.22 1.29a3.1 3.1 0 0 0 1.7 1.8c.42.18.9.27 1.43.27a3.47 3.47 0 0 0 1.26-.24 3.25 3.25 0 0 0 1.86-1.68c.2-.4.3-.85.3-1.33zm11.15-6.04c0-.65.21-1.17.62-1.55.4-.38.95-.57 1.62-.57.7 0 1.27.19 1.68.57s.61.9.61 1.55-.2 1.18-.61 1.57c-.41.39-.97.58-1.68.58a2.3 2.3 0 0 1-1.62-.58c-.4-.4-.61-.92-.61-1.57zm0 10.12c0-.65.21-1.17.62-1.55.4-.38.95-.57 1.62-.57.7 0 1.27.19 1.68.57s.61.9.61 1.55-.2 1.18-.61 1.57-.97.58-1.68.58a2.3 2.3 0 0 1-1.62-.58c-.4-.4-.61-.92-.61-1.57zm13.62-1.23h4.28v-12.22l-3.7 2.83-1.67-2.24 6.37-4.86h2.46v16.5h4.2v3.06H78.3v-3.07zm14.87-6.74c0-1.7.18-3.18.53-4.45a9.18 9.18 0 0 1 1.5-3.18 6.23 6.23 0 0 1 2.32-1.88 7 7 0 0 1 3-.63c2.36 0 4.17.82 5.44 2.47 1.28 1.65 1.91 4.2 1.91 7.67 0 1.72-.18 3.21-.53 4.49a9.35 9.35 0 0 1-1.5 3.19 6.14 6.14 0 0 1-2.33 1.9 7.1 7.1 0 0 1-3.02.63c-2.37 0-4.19-.87-5.44-2.62-1.25-1.74-1.88-4.27-1.88-7.59zm3.63 0a20.21 20.21 0 0 0 .06 1.57l6.76-6.23c-.55-1.6-1.6-2.4-3.13-2.4-1.18 0-2.1.57-2.73 1.71-.64 1.15-.96 2.93-.96 5.35zm7.44 0a22.44 22.44 0 0 0-.06-1.65l-6.79 6.24c.57 1.7 1.62 2.54 3.13 2.54 1.19 0 2.1-.57 2.75-1.7s.97-2.95.97-5.43zm-76.26 99.2h4.28v-12.21l-3.69 2.82-1.68-2.23 6.38-4.87h2.46v16.5h4.19v3.07H27.98v-3.08zm29.07-2.99a6.24 6.24 0 0 1-1.92 4.59 6.93 6.93 0 0 1-4.8 1.87 7.92 7.92 0 0 1-2.74-.46 6.2 6.2 0 0 1-2.22-1.38 6.59 6.59 0 0 1-1.51-2.32 8.69 8.69 0 0 1-.56-3.25c0-1.84.32-3.52.96-5.03a13.91 13.91 0 0 1 2.48-3.93 12.95 12.95 0 0 1 3.38-2.68 11.28 11.28 0 0 1 3.72-1.3l.8 2.88a10.86 10.86 0 0 0-2.76.9c-.86.43-1.62.94-2.3 1.53a9.23 9.23 0 0 0-1.68 1.98 7 7 0 0 0-.94 2.27c.37-.47.93-.86 1.68-1.19s1.56-.49 2.46-.49c.84 0 1.62.14 2.35.4a5.39 5.39 0 0 1 1.88 1.18c.53.51.95 1.14 1.26 1.89s.46 1.6.46 2.54zm-3.52.14c0-1-.3-1.77-.9-2.29a3.62 3.62 0 0 0-2.45-.78 4.03 4.03 0 0 0-3.33 1.68 4.85 4.85 0 0 0-.07.68l-.01.6c0 .45.07.88.22 1.3a3.11 3.11 0 0 0 3.13 2.06 3.62 3.62 0 0 0 2.35-.9 3.05 3.05 0 0 0 1.06-2.35zm11.15-6.03c0-.66.21-1.17.62-1.56.4-.38.95-.57 1.62-.57.7 0 1.27.2 1.68.57.4.39.61.9.61 1.56s-.2 1.17-.61 1.56c-.41.4-.97.59-1.68.59-.67 0-1.21-.2-1.62-.59a2.1 2.1 0 0 1-.61-1.56zm0 10.11c0-.65.21-1.16.62-1.55.4-.38.95-.57 1.62-.57.7 0 1.27.19 1.68.57.4.39.61.9.61 1.55s-.2 1.18-.61 1.57c-.41.4-.97.59-1.68.59-.67 0-1.21-.2-1.62-.59a2.1 2.1 0 0 1-.61-1.57zm13.62-1.23h4.28v-12.21l-3.7 2.82-1.67-2.23 6.37-4.87h2.46v16.5h4.2v3.07H78.3v-3.08zm20.43.26c.62 0 1.19-.08 1.7-.23a4.17 4.17 0 0 0 1.36-.64 2.97 2.97 0 0 0 .9-1.04c.21-.4.32-.87.32-1.4a2.8 2.8 0 0 0-1.22-2.41c-.8-.59-2.02-.88-3.65-.88a19.76 19.76 0 0 0-1.48.05c-.28.02-.57.03-.86.03v-10.23h10.12v3.41h-7v3.77c.16 0 .3 0 .45-.02.13 0 .26 0 .38-.02l.32-.01c.94 0 1.8.13 2.6.4s1.5.68 2.1 1.22a5.51 5.51 0 0 1 1.38 1.97c.33.77.5 1.63.5 2.56 0 1.1-.21 2.06-.62 2.9a6.01 6.01 0 0 1-1.68 2.07 7.53 7.53 0 0 1-2.46 1.28c-.93.28-1.93.43-2.99.43-.41 0-.85-.04-1.31-.12a15 15 0 0 1-2.62-.72 11.54 11.54 0 0 1-.96-.42l1.17-2.9c.32.18.8.39 1.47.61a6.47 6.47 0 0 0 2.08.33zm-70.75 85.93h4.28v-12.21l-3.69 2.82-1.68-2.24 6.38-4.86h2.46v16.5h4.19v3.07H27.98v-3.08zm29.07-2.99a6.3 6.3 0 0 1-.51 2.54 6.42 6.42 0 0 1-1.41 2.04 6.6 6.6 0 0 1-2.14 1.37 7.02 7.02 0 0 1-2.67.5 7.94 7.94 0 0 1-2.73-.45 6.2 6.2 0 0 1-2.22-1.39 6.58 6.58 0 0 1-1.51-2.32 8.69 8.69 0 0 1-.56-3.24c0-1.85.32-3.52.96-5.03a13.9 13.9 0 0 1 2.48-3.93 12.91 12.91 0 0 1 3.38-2.68 11.35 11.35 0 0 1 3.72-1.3l.8 2.88a10.86 10.86 0 0 0-2.76.9c-.86.42-1.62.93-2.3 1.53s-1.23 1.25-1.68 1.98a7 7 0 0 0-.94 2.26c.37-.46.93-.86 1.68-1.18s1.56-.5 2.46-.5c.84 0 1.62.14 2.35.41a5.4 5.4 0 0 1 1.88 1.18 5.56 5.56 0 0 1 1.26 1.88c.31.75.46 1.6.46 2.55zm-3.52.14c0-1-.3-1.77-.9-2.3a3.62 3.62 0 0 0-2.45-.77 4.04 4.04 0 0 0-3.33 1.67 4.85 4.85 0 0 0-.07.69 18 18 0 0 0-.01.6c0 .45.07.88.22 1.29a3.1 3.1 0 0 0 1.7 1.8c.42.18.9.27 1.43.27a3.47 3.47 0 0 0 1.26-.24 3.24 3.24 0 0 0 1.86-1.68 3.03 3.03 0 0 0 .3-1.33zm11.15-6.04c0-.65.21-1.17.62-1.55.4-.38.95-.57 1.62-.57.7 0 1.27.19 1.68.57s.61.9.61 1.55-.2 1.18-.61 1.57c-.41.39-.97.58-1.68.58a2.3 2.3 0 0 1-1.62-.58c-.4-.4-.61-.92-.61-1.57zm0 10.12c0-.65.21-1.17.62-1.55.4-.38.95-.57 1.62-.57.7 0 1.27.19 1.68.57.4.38.61.9.61 1.55s-.2 1.18-.61 1.57c-.41.39-.97.58-1.68.58a2.3 2.3 0 0 1-1.62-.58c-.4-.4-.61-.92-.61-1.57zm25.27 1.85H77.5v-2.72a150.69 150.69 0 0 0 3.3-3.07c.46-.47.92-.95 1.37-1.45a62.09 62.09 0 0 0 1.66-1.93c.47-.58.87-1.13 1.17-1.64a6.8 6.8 0 0 0 .69-1.5c.15-.5.22-1.01.22-1.53 0-.37-.08-.74-.25-1.1a2.99 2.99 0 0 0-.7-.93 3.38 3.38 0 0 0-1.07-.64 3.9 3.9 0 0 0-1.39-.24 5.2 5.2 0 0 0-3.55 1.34l-1.45-2.57c.78-.56 1.65-1.03 2.61-1.4a9.16 9.16 0 0 1 5.62-.25 6.11 6.11 0 0 1 1.96 1 4.81 4.81 0 0 1 1.35 1.63c.34.65.5 1.4.5 2.27 0 .6-.05 1.15-.15 1.66a8.18 8.18 0 0 1-.47 1.54 10.3 10.3 0 0 1-.84 1.58 25.78 25.78 0 0 1-2.46 3.23 49.98 49.98 0 0 1-2.57 2.67c-.42.39-.8.71-1.14.97h8.06v3.08zm8.78-2.83c.62 0 1.19-.07 1.7-.22s.98-.36 1.36-.64a2.97 2.97 0 0 0 1.22-2.43 2.8 2.8 0 0 0-1.22-2.42c-.8-.6-2.02-.88-3.65-.88a22.11 22.11 0 0 0-1.48.05c-.28.02-.57.03-.86.03v-10.23h10.12v3.4h-7v3.78c.16 0 .3 0 .45-.02l.38-.02a3.99 3.99 0 0 1 .32-.01c.94 0 1.8.13 2.6.4a5.91 5.91 0 0 1 2.1 1.22 5.5 5.5 0 0 1 1.38 1.97c.33.77.5 1.62.5 2.56 0 1.1-.21 2.06-.62 2.9a6.03 6.03 0 0 1-1.68 2.07 7.55 7.55 0 0 1-2.46 1.28c-.93.28-1.93.43-2.99.43-.41 0-.85-.04-1.31-.13s-.93-.18-1.37-.3a12.2 12.2 0 0 1-1.25-.41 11.24 11.24 0 0 1-.96-.42l1.17-2.9c.32.18.8.39 1.47.6a6.47 6.47 0 0 0 2.08.34zm107.14-70.39-17.17-9.3-17.4 8.89 3.53-19.21-13.82-13.8 19.36-2.58 8.86-17.4 8.43 17.61 19.29 3.04-14.15 13.47z" fill="#FFF"/><circle fill="#FFF" cx="188.83" cy="616.46" r="18.64"/><path fill="#FF8630" d="M453.19 759.3h-60.45v-63.98l51.44-.37z"/><path fill="none" d="M392.8 759.3v-66.23"/><path d="M390.8 693.07h4v66.24h-4z"/><path fill="#FFF" d="M381.69 475.94a56.84 56.84 0 0 1 36.2-12.14 56.84 56.84 0 0 1 35.92 13.56 56.75 56.75 0 0 1 17.47-2.73h113.06c10.63 0 22.48-.26 34.13 1.65a56.8 56.8 0 0 1 22.52-15.01 57.87 57.87 0 0 1 5.86-1.78c19.28-4.74 26.8-6.51 37.33-12.94 5.75-3.52 12.4-8.41 22.37-15.96a66.64 66.64 0 0 1 18.19-10.04 67.18 67.18 0 0 1 10.84-2.93 212.12 212.12 0 0 0 12.05-70.68c0-117.4-95.17-212.55-212.56-212.55s-212.55 95.16-212.55 212.55a211.7 211.7 0 0 0 50.45 137.48 57.61 57.61 0 0 1 8.72-8.48z"/><path d="M453.81 477.36a56.75 56.75 0 0 1 17.47-2.73h113.06c10.63 0 22.48-.26 34.13 1.65a56.8 56.8 0 0 1 22.52-15.01 57.87 57.87 0 0 1 5.86-1.78c19.28-4.74 26.8-6.51 37.33-12.94a58.7 58.7 0 0 0-21.2-22.16 37.69 37.69 0 0 0-35.26-45.48v-.04H440.34v.02a37.68 37.68 0 0 0-35 48.58 58.34 58.34 0 0 0-23.7 46.97c0 .5.03 1 .05 1.5a56.84 56.84 0 0 1 36.2-12.13 56.83 56.83 0 0 1 35.92 13.55z"/><path fill="#FF8630" d="M506.47 438.3h59.36v36.65h-59.36z"/><circle fill="#FFF" cx="535.83" cy="355.2" r="102.33"/><path fill="#FF8630" d="M448.5 335.14c1.17 0 2.33.07 3.46.2a88 88 0 0 1 169 0 30.54 30.54 0 1 1-3.99 59.96 87.98 87.98 0 0 1-161.02 0 30.61 30.61 0 0 1-7.45.92 30.54 30.54 0 0 1 0-61.08z"/><path d="M536.46 449.8a90.05 90.05 0 0 1-81.67-52.19 32.77 32.77 0 0 1-6.3.61 32.58 32.58 0 0 1-32.53-32.54 32.58 32.58 0 0 1 34.55-32.48c11.58-37.36 46.68-63.32 85.95-63.32s74.37 25.96 85.94 63.33a31.26 31.26 0 0 1 2.01-.07 32.58 32.58 0 0 1 32.55 32.54 32.58 32.58 0 0 1-32.55 32.54 32.76 32.76 0 0 1-6.29-.61 90.04 90.04 0 0 1-81.66 52.19zm-79.36-56.85.68 1.55a86.05 86.05 0 0 0 78.68 51.3 86.04 86.04 0 0 0 78.68-51.3l.68-1.55 1.64.41a28.57 28.57 0 0 0 35.5-27.68 28.57 28.57 0 0 0-31.78-28.35l-1.67.18-.47-1.61c-10.57-36.52-44.53-62.02-82.58-62.02s-72 25.5-82.57 62.02l-.47 1.61-1.68-.18a29.32 29.32 0 0 0-3.24-.2 28.57 28.57 0 0 0-28.54 28.55 28.57 28.57 0 0 0 35.5 27.68l1.64-.4z"/><path d="M621.16 379.96a2 2 0 0 1-1.47-3.35l18.73-20.36a2 2 0 0 1 2.94 2.7l-18.73 20.37a2 2 0 0 1-1.47.64zm-165.75 0a2 2 0 0 1-1.48-.64l-18.73-20.36a2 2 0 0 1 2.95-2.71l18.73 20.36a2 2 0 0 1-1.47 3.35zm82.45-107.42a89.42 89.42 0 0 0-84.7 64.95 73.14 73.14 0 0 0 12.37 1.05c37.88 0 68.98-29 72.33-66z"/><path d="M535.36 272.5a89.42 89.42 0 0 1 84.69 64.96 73.15 73.15 0 0 1-12.37 1.05c-37.88 0-68.98-29-72.32-66z"/><circle cx="571.44" cy="369.99" r="11.61"/><path d="M598.76 373.1a2 2 0 0 1-1.65-.87 26.11 26.11 0 0 0-43.05 0 2 2 0 1 1-3.3-2.26 30.1 30.1 0 0 1 24.83-13.09 30.1 30.1 0 0 1 24.82 13.09 2 2 0 0 1-1.65 3.13z"/><circle cx="495.7" cy="369.99" r="11.61"/><path d="M476.66 373.1a2 2 0 0 1-1.65-3.13 30.11 30.11 0 0 1 24.83-13.09 30.1 30.1 0 0 1 24.82 13.09 2 2 0 0 1-.51 2.78 2 2 0 0 1-2.78-.52 26.12 26.12 0 0 0-21.53-11.35 26.1 26.1 0 0 0-21.53 11.35 2 2 0 0 1-1.65.87z"/><path fill="none" d="M537.07 369.27v16.9"/><path d="M537.07 388.16a2 2 0 0 1-2-2v-16.9a2 2 0 0 1 4 0v16.9a2 2 0 0 1-2 2z"/><path fill="#FFF" d="M521.48 395.76a15.29 15.29 0 0 0 30.57 0"/><path fill="none" d="m445.18 481.01.87-.45h-.01l-.86.45zm5.89-2.67.6-.23-.53.2-.07.03zm-12.9 7.14.9-.66h-.02l-.88.66zm3.85-2.65.42-.27-.42.27z"/><path fill="#FFF" d="m441.38 674.92-1.14-8.13zm-27.35 5.31a66.41 66.41 0 0 1-35.18-10.76v35.09h66.64l-4.1-29.64a66.56 66.56 0 0 1-27.36 5.31z"/><path fill="#FF8630" d="m441.38 674.92-1.14-8.14-18.86-134.73a52.87 52.87 0 0 1-.51-2.43 49.65 49.65 0 0 1-.53-3.73 46.56 46.56 0 0 1-.26-4.26v-.01a43.5 43.5 0 0 1 .02-2.02v-.06a42 42 0 0 1 .33-4.06c.1-.82.24-1.63.38-2.44l.14-.67c.12-.62.27-1.25.42-1.87.03-.12.05-.26.09-.38l.05-.19c.2-.79.43-1.57.68-2.34l.1-.3a42.89 42.89 0 0 1 .97-2.6c.25-.61.52-1.23.8-1.84.06-.12.1-.25.17-.38.35-.73.71-1.45 1.1-2.16l.21-.38c.33-.6.67-1.18 1.03-1.75l.3-.48a43.56 43.56 0 0 1 1.76-2.58l.63-.84.01-.02c.5-.62.99-1.24 1.5-1.84h.01l.9-1.02.44-.48.34-.35a48.48 48.48 0 0 1 1.97-1.95l.96-.86.52-.46.01-.01a47.97 47.97 0 0 1 2.26-1.82l.88-.65.01-.01a52.85 52.85 0 0 1 2.96-1.99c.14-.09.27-.18.42-.26a54.46 54.46 0 0 1 2.73-1.56s0 0 .01 0l.85-.45h.01a53.44 53.44 0 0 1 5.02-2.22l.07-.03.54-.2a54.12 54.12 0 0 1 2.14-.75 56.85 56.85 0 0 0-35.91-13.56 56.83 56.83 0 0 0-36.21 12.14 57.55 57.55 0 0 0-8.72 8.48 56.8 56.8 0 0 0-13.16 35.43 57.28 57.28 0 0 0 .22 6.13c2.74 30.58 3.08 32.22-7.98 65.87a66.67 66.67 0 0 0-3.59 20.43 66.71 66.71 0 0 0 65.57 67.95 66.37 66.37 0 0 0 27.34-5.3z"/><path d="M415.23 682.24H414a68.53 68.53 0 0 1-36.23-11.1 68.44 68.44 0 0 1-31.3-58.9 68.7 68.7 0 0 1 3.7-21.04c10.78-32.8 10.62-34.55 7.98-63.87l-.1-1.17a60.16 60.16 0 0 1-.23-6.34 58.42 58.42 0 0 1 13.62-36.68 59.69 59.69 0 0 1 9.02-8.77 58.49 58.49 0 0 1 37.48-12.57 59.2 59.2 0 0 1 37.18 14.04l2.73 2.32-3.42 1.1c-.7.23-1.38.47-2.06.72l-.5.2a53.27 53.27 0 0 0-4.63 2.02l-.09.09-.3.1-.44.24-.44.23c-.9.48-1.71.95-2.47 1.41l-.4.24a51.47 51.47 0 0 0-2.85 1.93l-.14.1-.72.53a45.93 45.93 0 0 0-2.16 1.75l-.52.45a50.02 50.02 0 0 0-.9.8l-.45.44c-.5.47-.98.96-1.45 1.45l-.4.41-.27.3-.07.08-.67.75-.2.23a44.87 44.87 0 0 0-1.41 1.73l-.03.04c-.19.23-.35.46-.52.68l-.1.14a42.92 42.92 0 0 0-1.68 2.46l-.3.47c-.33.53-.66 1.1-.97 1.66l-.21.37a43.23 43.23 0 0 0-1.04 2.05l-.17.37a39.16 39.16 0 0 0-.76 1.76 40.88 40.88 0 0 0-.91 2.47l-.11.3a44.13 44.13 0 0 0-.64 2.22 2.92 2.92 0 0 1-.06.2l-.08.33a44.69 44.69 0 0 0-.4 1.8l-.12.63c-.16.85-.27 1.55-.36 2.2l-.02.13a41.62 41.62 0 0 0-.3 3.87 46.18 46.18 0 0 0 .22 6.07 47.46 47.46 0 0 0 .5 3.58 48.1 48.1 0 0 0 .5 2.33l.03.18 20.22 144.39-1.41.6a68.2 68.2 0 0 1-26.93 5.48zm1.64-216.45a54.5 54.5 0 0 0-33.95 11.73 55.55 55.55 0 0 0-8.41 8.18 54.46 54.46 0 0 0-12.7 34.19 55.66 55.66 0 0 0 .22 5.91l.1 1.17c2.65 29.5 2.86 31.9-8.18 65.5a64.69 64.69 0 0 0-3.49 19.84 64.47 64.47 0 0 0 29.48 55.48 64.59 64.59 0 0 0 34.12 10.44 64.2 64.2 0 0 0 25.13-4.57L419.4 532.42a54.42 54.42 0 0 1-.5-2.43 51.43 51.43 0 0 1-.56-3.88 49.22 49.22 0 0 1-.27-4.45 44.81 44.81 0 0 1 .03-2.12 43.7 43.7 0 0 1 .32-4.21l.01-.1c.1-.76.23-1.57.4-2.54l.1-.47.05-.23c.13-.66.28-1.31.43-1.96l.03-.1.07-.3.05-.2c.23-.85.47-1.67.72-2.45l.11-.32c.23-.7.48-1.39.75-2.07a45.31 45.31 0 0 1 1.09-2.57l.18-.4a46.4 46.4 0 0 1 1.14-2.26l.23-.4c.34-.61.7-1.22 1.07-1.83l.32-.5a45.07 45.07 0 0 1 1.84-2.7l.1-.13.5-.67.07-.09 1.08-1.35v-.1l.54-.54.9-1 .11-.13.14-.14.05-.1.5-.49a52.55 52.55 0 0 1 1.59-1.58l.42-.4a.2.2 0 0 0 .02-.02l.03-.02c.36-.34.67-.62 1-.9l.54-.48a51.94 51.94 0 0 1 3.26-2.58l.22-.15a53.69 53.69 0 0 1 2.87-1.93l.57-.35a56.08 56.08 0 0 1 2.61-1.49l.42-.28h.12l.17-.09.4-.2a54.86 54.86 0 0 1 4.52-2.03 55.22 55.22 0 0 0-31.9-10.89h-1z"/><path fill="#FF8630" d="M421.38 532.05a52.87 52.87 0 0 1-.51-2.43 49.1 49.1 0 0 1-.53-3.74 45.59 45.59 0 0 1-.18-2.08v-.06a44.02 44.02 0 0 1-.08-2.05v-.06a43.96 43.96 0 0 1 .02-2.03v-.06c.03-.67.07-1.33.12-2v-.05c.06-.67.12-1.33.2-1.99v-.01c.11-.83.25-1.64.4-2.45l.13-.66c.12-.63.27-1.25.42-1.87l.14-.57a42.02 42.02 0 0 1 .78-2.63 39.95 39.95 0 0 1 .96-2.59 44.75 44.75 0 0 1 .82-1.9c.06-.1.1-.22.15-.33a44.96 44.96 0 0 1 1.3-2.52 43.11 43.11 0 0 1 1.06-1.8l.28-.45c.43-.68.87-1.35 1.34-2l.1-.14c.1-.15.22-.3.34-.45.2-.29.42-.57.64-.86l.22-.29c.3-.38.61-.76.93-1.13l.35-.42.9-1.02.45-.48.33-.35.56-.58.53-.52.44-.42a37.47 37.47 0 0 1 1.04-.97l.37-.32.53-.47a50.89 50.89 0 0 1 4.8-3.63c.27-.19.56-.37.84-.55l.46-.3.43-.26a53.93 53.93 0 0 1 1.76-1.03l.97-.52.87-.45c.34-.18.68-.34 1.03-.5l.83-.4c.38-.18.76-.34 1.14-.5l.79-.34c.4-.17.82-.32 1.23-.48l.6-.24.13-.05a56.73 56.73 0 0 1 19.48-3.42h113.06c10.63 0 22.48-.26 34.13 1.64a57.05 57.05 0 0 0-12.17 56.6c.17.5.33 1.02.52 1.52.32.9.68 1.78 1.04 2.65l.29.65a58.5 58.5 0 0 0 1.2 2.59 57.41 57.41 0 0 0 1.28 2.45c.45.81.92 1.6 1.4 2.38a50.81 50.81 0 0 0 1.02 1.57l.2.3c.32.48.66.96 1 1.44l.25.32c.35.48.7.95 1.06 1.41l.18.22a56.47 56.47 0 0 0 5.25 5.76l.19.19 1.24 1.14.37.32a56.8 56.8 0 0 0 1.22 1.04l.42.35c.42.34.83.67 1.26.99.11.1.24.18.36.27a56.8 56.8 0 0 0 4.5 3.08l.26.16c.41.25.84.5 1.26.73l.64.37 1.19.64.75.39c.39.2.77.39 1.17.57l.81.38c.39.18.77.36 1.16.52l.87.37 1.14.46a62.49 62.49 0 0 0 2.9 1.04l1.11.35 1.02.3a45.73 45.73 0 0 0 2.14.56l1.17.28.99.2c.42.1.84.17 1.26.25l.91.16c.53.09 1.06.16 1.59.23l.6.09a59 59 0 0 0 2.2.22c.23.03.47.04.71.05a64.64 64.64 0 0 0 3.8.15h.9c.46 0 .93-.02 1.4-.04.3 0 .58-.02.87-.03a53.27 53.27 0 0 0 1.54-.1c.24-.03.49-.04.74-.06a51.34 51.34 0 0 0 2.27-.26L639.1 757.24l-186.17.1-8.36-59.77-23.2-165.52z"/><path d="m451.18 759.34-31.77-226.92a54.42 54.42 0 0 1-.5-2.44c-.23-1.18-.4-2.45-.56-3.89a46.83 46.83 0 0 1-.18-2.18 46.92 46.92 0 0 1 .05-6.53l.01-.11.21-2.02.03-.2a47.48 47.48 0 0 1 .95-5.02l.15-.6c.23-.86.46-1.67.72-2.46l.09-.26c.25-.74.5-1.45.78-2.14l.2-.53c.3-.74.6-1.4.9-2.06l.15-.33a44.44 44.44 0 0 1 1.17-2.3l.2-.36c.34-.63.7-1.26 1.1-1.88l.29-.47c.5-.78.95-1.47 1.4-2.1l.1-.13.23-.32.12-.16.67-.89.24-.31c.3-.4.63-.79.96-1.18l.1-.11.27-.33.94-1.05.46-.5.46-.48.47-.49 3.02-2.8.68-.58a55.77 55.77 0 0 1 1.67-1.32 50.43 50.43 0 0 1 3.54-2.46l.9-.57a65.87 65.87 0 0 1 1.84-1.08l.87-.47.38-.2.65-.34.94-.46.4-.2.6-.27c.35-.17.72-.32 1.08-.48l.38-.17.53-.22c.35-.15.69-.28 1.03-.4l1.06-.41a57.02 57.02 0 0 1 2.03-.7 58.67 58.67 0 0 1 18.1-2.83l120.04-.01c8.3 0 17.96.13 27.46 1.68l3.65.6-2.5 2.73a55.11 55.11 0 0 0-11.74 54.6l.14.44.35 1.03c.29.79.61 1.62 1.01 2.57l.28.63c.28.64.57 1.29.88 1.92l.28.58c.33.67.68 1.34 1.04 2l.2.37c.42.74.82 1.44 1.23 2.1l.42.42v.25l.67 1.02.21.32.96 1.36.23.31 1.04 1.37.13.16a54.85 54.85 0 0 0 5.1 5.6l.19.19 1.2 1.1.36.32 1.16.99.4.33 1.21.96.35.26a55.19 55.19 0 0 0 4.36 2.97l.24.15c.4.25.81.48 1.22.71l.62.36 1.15.62a53.41 53.41 0 0 0 1.85.93l.79.36.13.06.98.45.56.23.55.23.83.34 1.47.54a40.7 40.7 0 0 0 2.4.8l.98.28a42.98 42.98 0 0 0 2.07.55l1.14.27.94.2 1.22.23.26.05.62.1c.51.09 1.02.16 1.54.23l.58.08c.7.09 1.4.16 2.1.22l.7.05a65.03 65.03 0 0 0 3.65.14h.91c.43 0 .88-.02 1.34-.04.3 0 .57-.02.85-.03.48-.02.98-.06 1.48-.1l.71-.05a58.14 58.14 0 0 0 2.18-.25l2.65-.35-29.5 190.07-189.62.11zm-28.81-243.27a45.23 45.23 0 0 0-.16 1.58v.11a47.46 47.46 0 0 0-.1 1.85 48.17 48.17 0 0 0-.03 2 42.41 42.41 0 0 0 .24 4.06 46.38 46.38 0 0 0 1 5.92l.04.18 31.3 223.56 182.7-.08 28.18-181.48-.46.04c-.55.04-1.08.08-1.6.1l-.9.04-1.47.04h-.93l-1.45-.03a87.54 87.54 0 0 1-.9-.03 57.33 57.33 0 0 1-1.58-.1l-.74-.05a59.53 59.53 0 0 1-2.27-.23l-.63-.09a57.9 57.9 0 0 1-1.64-.24l-.7-.12-.24-.05a48.88 48.88 0 0 1-1.31-.25c-.34-.06-.68-.14-1.01-.21a94.98 94.98 0 0 1-1.23-.29l-1.05-.27a55.44 55.44 0 0 1-1.17-.32l-1.04-.3-1.15-.37a49.1 49.1 0 0 1-1.44-.5 41.4 41.4 0 0 1-1.56-.57l-.92-.37-.53-.22-.63-.27c-.36-.15-.72-.31-1.07-.48l-.13-.06-.85-.4a60.43 60.43 0 0 1-1.98-.99 65.9 65.9 0 0 1-1.23-.66 29.31 29.31 0 0 1-.6-.35 47.15 47.15 0 0 1-1.37-.8l-.2-.12a60.25 60.25 0 0 1-4.72-3.22l-.09-.06a41.95 41.95 0 0 1-1.59-1.25l-.07-.06a64.58 64.58 0 0 1-1.62-1.37l-.38-.33-1.29-1.19-.14-.14a58.9 58.9 0 0 1-5.5-6.01l-.14-.2a73.88 73.88 0 0 1-1.14-1.49l-.24-.33a59.97 59.97 0 0 1-1.06-1.5l-.21-.32a52.74 52.74 0 0 1-.92-1.4l-.42-.43v-.27a54.68 54.68 0 0 1-1.15-1.97l-.2-.38a54.15 54.15 0 0 1-1.13-2.16l-.3-.61a58.71 58.71 0 0 1-.94-2.07l-.3-.66a62.88 62.88 0 0 1-1.08-2.75 32.6 32.6 0 0 1-.4-1.17l-.13-.41a59.11 59.11 0 0 1 10.16-55.77c-8.04-1.01-16.14-1.1-23.23-1.1H471.28a54.68 54.68 0 0 0-18.78 3.3l-.96.37-.95.37-.43.2-.43.18-.98.43-.52.25-.42.2c-.29.14-.58.27-.86.42l-.58.3-.38.2a43.95 43.95 0 0 0-2.5 1.43l-.85.53-.8.52-.86.59a72.2 72.2 0 0 0-.74.52c-.29.2-.57.42-.86.64l-.7.53-.85.7-3.4 3.1a46 46 0 0 0-.42.44l-.43.45-.42.45-.87.98-.33.4-.9 1.08-.21.29a42.78 42.78 0 0 0-.6.81l-.43.57a41.43 41.43 0 0 0-1.28 1.9l-.27.44a42.43 42.43 0 0 0-1 1.72l-.18.31a41.41 41.41 0 0 0-1.06 2.1l-.15.33a39.53 39.53 0 0 0-.78 1.8 37.5 37.5 0 0 0-.9 2.46l-.1.27a42.33 42.33 0 0 0-.66 2.23l-.13.56a39.11 39.11 0 0 0-.4 1.77l-.12.62a40.72 40.72 0 0 0-.36 2.22v.34l-.06.12z"/><path d="m443.48 484.28-2.08-3.42 1.29-.76.55-.31.88-.48.11-.06 1.89 3.53-1.44.79-.32.19c-.3.17-.6.34-.88.52zm-3.24 2.16-2.35-3.24.14-.1 1.02-.71.56-.38c.3-.2.59-.4.89-.58l.03-.02.2-.13.23-.14 2.13 3.38-.22.14-.16.1-1.28.84-.1.07-.02.01-.33.24-.61.43-.13.09z"/><path fill="#FF8630" d="M810.28 460.53a66.78 66.78 0 0 0-74.7-42.91 67.18 67.18 0 0 0-10.84 2.93 66.64 66.64 0 0 0-18.19 10.04c-9.97 7.55-16.62 12.44-22.37 15.96-10.53 6.43-18.04 8.2-37.32 12.94a58 58 0 0 0-5.87 1.77 56.8 56.8 0 0 0-22.52 15.01 57.05 57.05 0 0 0-12.16 56.6c.16.5.32 1.02.5 1.52.34.9.69 1.78 1.05 2.65l.29.65c.29.67.6 1.34.9 2l.3.59a59.05 59.05 0 0 0 2.69 4.83 52 52 0 0 0 1 1.57l.2.3 1.02 1.44.24.32c.35.48.7.95 1.06 1.41l.18.22a56.35 56.35 0 0 0 5.25 5.76l.19.19 1.24 1.14.37.32c.4.36.81.7 1.22 1.04l.42.35 1.26 1 .36.26a56.62 56.62 0 0 0 4.5 3.08l.26.16c.42.25.84.5 1.26.73l.64.37a59.55 59.55 0 0 0 3.1 1.6l.82.38 1.16.53.87.36 1.14.46a60.97 60.97 0 0 0 2.91 1.04l1.1.35 1.02.3a44.05 44.05 0 0 0 2.14.57l1.17.27.99.2c.42.1.84.17 1.26.25l.91.16c.53.09 1.06.16 1.59.23l.6.09a82 82 0 0 0 2.2.23l.71.05a70.48 70.48 0 0 0 2.4.12l1.4.02h.9a86.43 86.43 0 0 0 2.27-.07 53.76 53.76 0 0 0 1.54-.1l.74-.06a57.02 57.02 0 0 0 19.93-5.59c27.58-13.51 29-14.4 64.37-16.12a66.5 66.5 0 0 0 20.36-3.97 66.76 66.76 0 0 0 39.97-85.54z"/><path d="M660.5 573.98h-.32c-.48 0-.96 0-1.45-.02l-.89-.03a57.36 57.36 0 0 1-1.59-.1l-.74-.05a59.53 59.53 0 0 1-2.26-.23l-.63-.1a61.08 61.08 0 0 1-1.64-.23l-.7-.12-.25-.05a48.88 48.88 0 0 1-1.31-.25l-1.02-.22-1.22-.28a62.16 62.16 0 0 1-2.21-.6c-.34-.09-.7-.18-1.05-.3a48.96 48.96 0 0 1-1.14-.36c-.48-.16-.97-.32-1.45-.5l-1.56-.57-.92-.37-.52-.22a29.27 29.27 0 0 1-.64-.27 44.17 44.17 0 0 1-1.06-.48l-.13-.06-.85-.4-1.2-.59-.78-.4a66.36 66.36 0 0 1-1.23-.66 27.75 27.75 0 0 1-.61-.35c-.49-.28-.93-.53-1.36-.8l-.2-.12a60.1 60.1 0 0 1-4.73-3.22l-.08-.07a43.65 43.65 0 0 1-1.6-1.25l-.06-.06a14.84 14.84 0 0 1-.38-.3 71.72 71.72 0 0 1-1.25-1.06l-.37-.34a69.07 69.07 0 0 1-1.3-1.18l-.14-.14a58.93 58.93 0 0 1-5.49-6.02l-.15-.19a67.4 67.4 0 0 1-1.14-1.5l-.23-.32a61.87 61.87 0 0 1-1.06-1.5l-.22-.33a56.43 56.43 0 0 1-1.04-1.6l-.01-.03a56.17 56.17 0 0 1-1.43-2.43l-.21-.38a60.66 60.66 0 0 1-1.13-2.16l-.3-.62a55.29 55.29 0 0 1-.94-2.06l-.3-.67a58.82 58.82 0 0 1-1.08-2.75l-.4-1.17-.13-.41a59.11 59.11 0 0 1 35.9-74.1 60.76 60.76 0 0 1 6.07-1.85l1.08-.26c18.64-4.58 25.62-6.3 35.68-12.44 5.57-3.4 11.85-8 22.21-15.85a68.62 68.62 0 0 1 18.72-10.32 69.36 69.36 0 0 1 11.17-3.03 68.59 68.59 0 0 1 12.3-1.11 68.98 68.98 0 0 1 64.63 45.31 68.3 68.3 0 0 1-2.34 52.58A68.3 68.3 0 0 1 771 547.95a68.66 68.66 0 0 1-20.97 4.09c-34.48 1.67-36.06 2.44-62.5 15.4l-1.05.52-.13.06a59.23 59.23 0 0 1-5.71 2.42 59.27 59.27 0 0 1-14.8 3.3l-.77.06c-.53.04-1.06.08-1.58.1l-.9.04-1.46.04h-.63zm-46.75-29.88c.32.5.63.98.96 1.46l.2.32.97 1.37.22.3 1.04 1.38.14.16a54.74 54.74 0 0 0 5.1 5.6l.18.18 1.2 1.1.35.31c.39.34.78.68 1.18 1l.4.33 1.2.96.36.26a55.24 55.24 0 0 0 4.46 3.05l.13.08c.4.24.81.48 1.22.7l.62.37a54.46 54.46 0 0 0 3.79 1.9l.13.07.98.44.57.24.54.22.83.34a40.7 40.7 0 0 0 2.8 1l1.08.34c.32.1.64.2.97.28a43.1 43.1 0 0 0 2.07.56l1.14.26.94.2c.41.09.82.16 1.23.23l.26.05.6.11 1.55.23.59.08c.7.08 1.4.16 2.1.22l.7.05a59.48 59.48 0 0 0 3.65.13h.89a66.2 66.2 0 0 0 1.34-.03l.85-.03a57.8 57.8 0 0 0 1.48-.1l.71-.06a55.24 55.24 0 0 0 13.8-3.07 53.8 53.8 0 0 0 5.44-2.32l.12-.05.94-.46c26.58-13.04 28.76-14.1 64.08-15.81a64.6 64.6 0 0 0 19.77-3.86c16.27-5.9 29.26-17.78 36.58-33.46s8.1-33.26 2.2-49.52a64.97 64.97 0 0 0-60.88-42.68 64.94 64.94 0 0 0-22.1 3.9 64.77 64.77 0 0 0-17.64 9.74c-10.49 7.94-16.85 12.6-22.56 16.09-10.6 6.47-18.27 8.35-36.81 12.9l-1.08.27a55.92 55.92 0 0 0-5.66 1.72 55.1 55.1 0 0 0-33.47 69.09l.15.43a54.89 54.89 0 0 0 1.36 3.6l.28.64c.27.63.56 1.28.87 1.91l.28.58c.34.67.68 1.34 1.04 2l.21.38c.47.83.9 1.58 1.34 2.28l.02.04z"/><circle fill="#FFF" cx="758.06" cy="470.04" r="43.55"/><path fill="#FF8630" d="m726.61 473.55-36.56-115.27s-4.92-8.19-8.22-11.59c-4-4.12-6.85-8.56-9.09-13.34a95.18 95.18 0 0 1-4.67-12.62l-6.4-20.96-6.78-22.15.04-.03a9.72 9.72 0 1 1 18.83-4.8l6.51 21.29.08-.02-8.6-28.09.05-.02a9.73 9.73 0 1 1 18.82-4.8l8.33 27.22.08-.03-10.4-34.02s.04 0 .03-.02a9.73 9.73 0 1 1 18.84-4.8l10.14 33.15.08-.02-8.6-28.08.05-.03a9.72 9.72 0 1 1 18.82-4.8l10.69 34.94.45.1-.85-16.92.04-.01a9.73 9.73 0 1 1 19.44-.1l2.07 40.36c.08.65.14 1.3.18 1.98a27.41 27.41 0 0 1-5.41 17.88c-1.43 2.38-3.72 6.85-3.55 10.98.01.35.04.7.1 1.04h-.03l36.6 113.37a32.16 32.16 0 0 1-60.53 21.73 34.4 34.4 0 0 1-.54-1.53h-.04z"/><path d="M757.26 497.8a34.36 34.36 0 0 1-32.38-23.26 1.9 1.9 0 0 1-.17-.39l-36.49-115.04c-.76-1.25-5-8.11-7.82-11.02a49.95 49.95 0 0 1-9.46-13.9 98.76 98.76 0 0 1-4.78-12.88l-13.18-43.11a2 2 0 0 1-.09-.47 11.65 11.65 0 0 1 .99-8.49 11.64 11.64 0 0 1 6.92-5.7c2.9-.9 6.07-.59 8.62.67a11.76 11.76 0 0 1 16.87-11.64 11.75 11.75 0 0 1 8.25-12.33 11.75 11.75 0 0 1 3.43-.52c4.4 0 8.3 2.4 10.31 6.13a11.63 11.63 0 0 1 6.76-5.4 11.69 11.69 0 0 1 3.43-.51 11.67 11.67 0 0 1 11.47 9.28l6.47 21.16-.12-2.44a2.04 2.04 0 0 1 .03-.46 11.72 11.72 0 1 1 23.45.21l2.06 40.22c.09.74.15 1.41.18 2.05a29.58 29.58 0 0 1-5.74 19.1c-1.3 2.16-3.36 6.21-3.22 9.79.01.25.03.51.07.77l36.5 113.1a34.03 34.03 0 0 1-20.22 42.85 34.1 34.1 0 0 1-12.13 2.24zm-28.86-25.24c.06.11.11.23.15.36l.5 1.44a30.34 30.34 0 0 0 28.21 19.45c3.66 0 7.27-.67 10.72-1.98a30.05 30.05 0 0 0 17.84-37.85l-36.6-113.4a2.04 2.04 0 0 1-.1-.62 13.38 13.38 0 0 1-.07-.94c-.18-4.44 1.99-9.03 3.83-12.1l.11-.17a25.56 25.56 0 0 0 5.02-16.58 23.52 23.52 0 0 0-.17-1.83 1.98 1.98 0 0 1-.01-.15l-2.07-40.37a2.02 2.02 0 0 1 0-.18 8.28 8.28 0 0 0 0-.74 7.73 7.73 0 0 0-15.44.82 2.01 2.01 0 0 1-.02.42l.82 16.52a2 2 0 0 1-2.49 2.03l-.4-.09a2 2 0 0 1-1.46-1.36l-10.69-34.94a1.8 1.8 0 0 1-.05-.2 7.72 7.72 0 0 0-.17-.7 7.68 7.68 0 0 0-7.39-5.46c-.76 0-1.53.11-2.27.34a7.67 7.67 0 0 0-4.56 3.76 7.67 7.67 0 0 0-.56 5.89 2 2 0 0 1 .08.43l8.47 27.68a2 2 0 0 1-1.38 2.51 2.07 2.07 0 0 1-2.53-1.32l-10.14-33.15a1.77 1.77 0 0 1-.04-.18 7.7 7.7 0 0 0-7.57-6.18 7.74 7.74 0 0 0-7.4 10c.04.13.07.26.08.4l10.3 33.63a2 2 0 0 1-1.34 2.5 2.07 2.07 0 0 1-2.57-1.3l-8.33-27.23a1.69 1.69 0 0 1-.05-.2 6.56 6.56 0 0 0-.16-.66 7.7 7.7 0 0 0-7.4-5.5 7.72 7.72 0 0 0-2.26.35 7.74 7.74 0 0 0-5.13 9.65c.03.13.06.27.07.4l8.48 27.7a2 2 0 0 1-1.32 2.5c-.5.16-1.1.12-1.57-.12a2.04 2.04 0 0 1-1.01-1.18l-6.52-21.29a2.48 2.48 0 0 1-.04-.16 9.15 9.15 0 0 0-.18-.73 7.68 7.68 0 0 0-7.39-5.47c-.76 0-1.52.12-2.26.35a7.66 7.66 0 0 0-4.57 3.76 7.68 7.68 0 0 0-.56 5.89 1.8 1.8 0 0 1 .08.43l13.06 42.7a95.17 95.17 0 0 0 4.57 12.36 45.46 45.46 0 0 0 8.7 12.8c3.43 3.52 8.3 11.6 8.51 11.95.08.13.15.28.2.43l36.44 114.88zm-110.13 80.8zm12.29 10.15z"/><path fill="#FFF" d="m647.37 704.22-201.7.11 7.2 52.9h186.34z"/><path d="m451.13 759.23-7.75-56.9 206.33-.1-8.79 56.99-189.8.01zm-3.16-52.9 6.65 48.89 182.87.01 7.55-49-197.07.1z"/><g fill="#FFF"><path d="M537.02 456.32c-.45.12-1.03 72.41 1.83 83.01a19.88 19.88 0 0 0 38.38-10.36c-2.87-10.6-40-72.7-40.21-72.65z"/><path d="M537.32 456.32c-.45-.13-38.87 61.1-41.99 71.63a19.87 19.87 0 1 0 38.11 11.31c3.12-10.52 4.1-82.87 3.88-82.94z"/></g></svg>