<svg xmlns="http://www.w3.org/2000/svg" viewBox="0 0 817 760"><path d="m451.2 478.62.6-.24-.54.2-.07.04Zm-8.63 4.22-.42.27.42-.27Z"/><path d="M.59 51.78V666a38.82 38.82 0 0 0 38.82 38.83h406.25l-.06-.4h-66.62v-34.68A66.87 66.87 0 0 1 350.1 628H272v-23h77.16c.57-4.38 1.59-8.7 3.02-12.88 9.28-28.24 10.54-33.94 9.08-53.12H272v-23h88.17a56.79 56.79 0 0 1 21.65-39.78 56.84 56.84 0 0 1 36.2-12.14 56.84 56.84 0 0 1 35.92 13.56 56.73 56.73 0 0 1 17.47-2.73h113.06c10.63 0 22.48-.27 34.13 1.64a56.8 56.8 0 0 1 28.38-16.79c19.28-4.73 26.8-6.5 37.33-12.94 5.75-3.51 12.4-8.41 22.37-15.96a66.64 66.64 0 0 1 29.03-12.97 66.85 66.85 0 0 1 66.21 26.79V51.78Zm115.7 150.64h-99.4v-10.87h99.4Zm109.48 0h-72.99v-10.87h73Zm48.15-10.87h195.05v10.87H273.92Zm-1.56 149.08h209.65v23.3H272.36ZM533 455.99l-12.73.1a68.49 68.49 0 0 1-2.54-9.7v9.18H272.36v-23.3h244.25c.15-7.08 1.4-14.1 3.7-20.8 11.43-34.8 11.09-36.5 8.25-68.12a59 59 0 0 1 4.44-28.32Zm0-180.57H272.36v-23.3H533Z"/><path d="m446.04 480.9.13-.07-.13.07Zm-24.46 29.5-.09.39.15-.58-.06.19Zm13.94-22.36.53-.46-.02.01-.51.45Zm2.78-2.28.9-.66h-.02l-.88.66Zm-7.4 6.94.9-1.02-.9 1.02Zm-5.25 7.55c.33-.61.69-1.21 1.05-1.8l.28-.46.06-.07-.05.06-.3.48c-.35.58-.7 1.16-1.02 1.75l-.22.38a54.7 54.7 0 0 0-1.1 2.16l-.04.1.04-.08c.35-.74.72-1.47 1.11-2.2l.19-.32Zm-3.23 7.34c.22-.68.47-1.35.73-2.02l.08-.19-.09.2c-.25.66-.5 1.32-.72 2l-.1.3"/><path fill="#f68635" d="M761.54 2.28H40.95A38.82 38.82 0 0 0 2.13 41.1v12.42h798.23V41.1a38.82 38.82 0 0 0-38.82-38.82Z"/><path d="M802.36 55.52H.13V41.1A40.87 40.87 0 0 1 40.95.28h720.59a40.87 40.87 0 0 1 40.82 40.82Zm-798.23-4h794.23V41.1a36.87 36.87 0 0 0-36.82-36.82H40.95A36.87 36.87 0 0 0 4.13 41.1Z"/><path fill="#f68635" d="M131.02 175.32h4v488.76h-4Zm111.82 0h4v488.76h-4Z"/><path fill="#fff" d="M2.94 217.96h795.48v4H2.93Zm0 89.3H800v4H2.93Zm0 89.29H800v4H2.93Zm0 85.41H566v4H2.93Zm0 89.3H361v4H2.94Zm0 89.29h416.04v4H2.93Zm594.53-89.3H799v4H597.47Zm7.5 89.3H800v4H604.97Zm-600.88-488H799v4H4.09ZM48.82 28.8a12.81 12.81 0 1 1-25.62 0 12.81 12.81 0 0 1 25.62 0Z"/><path d="M84.92 28.8a12.81 12.81 0 1 1-25.62 0 12.81 12.81 0 0 1 25.62 0Z"/><path fill="#fff" d="M121.03 28.8a12.81 12.81 0 1 1-25.62 0 12.81 12.81 0 0 1 25.62 0Z"/><path fill="#f68635" d="m199.48 141.13-43.45-25.58v-6.63l43.43-26.96 7.13 11.26-30.69 18.54 30.7 18.13Zm-39.45-27.87 38.14 22.46 2.84-4.48-32.9-19.44 32.91-19.9-2.82-4.45-38.17 23.7Zm77.06 30.14c-7.09 0-12.54-2.06-16.2-6.12-3.62-4-5.46-10.29-5.46-18.68v-10.5h-8.65V94.5h8.65v-9.47l15.36-4.37V94.5h22.89v13.6h-22.9v10.5c0 3.98.7 6.82 2.07 8.45 1.3 1.55 3.12 2.3 5.55 2.3a13.18 13.18 0 0 0 6.74-1.75c.88-.5 1.72-1.07 2.5-1.72l2.32-1.92 1.7-1.42 7.32 10.97-.98 1.15a18.9 18.9 0 0 1-4.15 3.57 33.43 33.43 0 0 1-10.84 4.5 27.8 27.8 0 0 1-5.92.67Zm-26.3-39.3h8.64v14.5c0 7.37 1.49 12.75 4.42 16 2.92 3.23 7.25 4.8 13.24 4.8 1.65 0 3.35-.2 5.07-.57a28.47 28.47 0 0 0 9.52-3.96c.8-.51 1.55-1.1 2.25-1.73l-3.12-4.68-.61.5c-.97.8-2 1.5-3.08 2.12a17.09 17.09 0 0 1-8.72 2.27c-3.64 0-6.53-1.25-8.61-3.73-2.02-2.4-3-6-3-11.02v-14.5h22.89v-5.6h-22.9V85.94l-7.35 2.1v10.44h-8.65Zm67.97 38.77c-4.84 0-8.77-1.35-11.69-4.01-2.96-2.72-4.47-6.33-4.47-10.74 0-2.75.53-5.18 1.56-7.23a13.4 13.4 0 0 1 4.59-5.14c1.9-1.26 4.19-2.2 6.82-2.81a37.97 37.97 0 0 1 11.98-.7c.64.07 1.39.13 2.22.2v-1.27c0-2.32-.84-2.95-1.11-3.16-.9-.68-2.43-1.04-4.43-1.04-2.73 0-5.21.35-7.37 1.04a49.65 49.65 0 0 0-5.75 2.18l-2.1.98-3.86-12.8 1.6-.73a49.85 49.85 0 0 1 8.43-2.82c3.2-.8 7.02-1.2 11.35-1.2 3.23 0 6.05.4 8.38 1.2 2.42.83 4.42 2.04 5.94 3.6a13.82 13.82 0 0 1 3.32 5.6c.64 2.05.96 4.37.96 6.9a82 82 0 0 1-.31 7.78 57.2 57.2 0 0 0-.3 5.4c0 1.16.06 2.47.16 3.9l.08.57h5.87v13.6h-18.31l-.75-3.88c-.95.88-1.98 1.66-3.09 2.33-2.45 1.5-5.72 2.25-9.72 2.25Zm5.29-26.81a34 34 0 0 0-7.58.77c-2.16.5-4.01 1.26-5.5 2.25a9.26 9.26 0 0 0-3.24 3.6 12 12 0 0 0-1.13 5.44c0 3.29 1.04 5.84 3.17 7.78 2.19 2 5.13 2.97 8.99 2.97 3.25 0 5.82-.56 7.63-1.67a13.2 13.2 0 0 0 4.31-4.04l.6-.92h3.17l1.15 5.94h11.01v-5.61h-5.52l-.15-1.85c-.06-.75-.14-1.5-.25-2.23l-.01-.13a55.56 55.56 0 0 1-.18-4.26 60 60 0 0 1 .31-5.78c.2-2.02.3-4.5.3-7.41 0-2.12-.26-4.03-.78-5.7a9.78 9.78 0 0 0-2.36-4 11 11 0 0 0-4.38-2.6c-1.9-.66-4.29-.99-7.08-.99-4 0-7.5.37-10.4 1.08-2.24.56-4.3 1.2-6.12 1.91l1.52 5.05a65.58 65.58 0 0 1 4.1-1.46 28.31 28.31 0 0 1 8.6-1.23c2.96 0 5.2.6 6.84 1.85 1.8 1.35 2.7 3.5 2.7 6.35v1.66c0 .7-.07 1.42-.2 2.13l-.35 1.74-1.76-.13c-1.44-.1-2.88-.2-4.32-.35-1.03-.1-2.06-.16-3.1-.16Zm-1.6 17.47c-2.76 0-4.75-.63-6.1-1.91a6.93 6.93 0 0 1-2.04-5.25c0-1.42.4-2.68 1.17-3.72a7.76 7.76 0 0 1 2.77-2.3c1.03-.52 2.2-.9 3.48-1.14a24.7 24.7 0 0 1 7.61-.1c1.19.14 2.1.28 2.74.4l1.6.33v7.39l-.24.45a12.26 12.26 0 0 1-3.6 3.93c-1.74 1.29-4.16 1.92-7.4 1.92Zm2.93-10.66c-.96 0-1.95.1-2.92.27-.9.17-1.71.43-2.4.78-.58.3-1.03.66-1.37 1.11-.25.35-.38.79-.38 1.34 0 1.07.26 1.84.8 2.35.55.52 1.73.8 3.33.8 2.29 0 4.03-.39 5.04-1.13a9 9 0 0 0 2.2-2.22v-2.99l-.84-.1c-1.15-.15-2.3-.22-3.46-.21Zm50.86 20.35c-4.75 0-8.8-.56-12.05-1.68a37.61 37.61 0 0 1-7.53-3.34l-.94-.58V90.63h-6.73v-13.6h22.08v19.03c.82-.49 1.67-.9 2.56-1.25a23 23 0 0 1 8.37-1.36c6.3 0 11.45 2.02 15.3 6.03 3.81 3.98 5.75 9.94 5.75 17.72 0 4.13-.64 7.86-1.89 11.08a22.31 22.31 0 0 1-5.43 8.24 23.17 23.17 0 0 1-8.5 5.02 33.92 33.92 0 0 1-11 1.68Zm-16.52-7.87c1.47.8 3.4 1.6 5.77 2.4 2.83.98 6.45 1.47 10.75 1.47a30 30 0 0 0 9.7-1.46 19.2 19.2 0 0 0 7.05-4.15c1.9-1.79 3.4-4.07 4.45-6.78 1.06-2.76 1.6-6 1.6-9.63 0-6.71-1.56-11.74-4.63-14.95-3.1-3.23-7.16-4.8-12.4-4.8-2.77 0-5.1.36-6.92 1.08a10.6 10.6 0 0 0-4.16 2.78l-.6.68h-3.26V81.02H313v5.61h6.73Zm18.44-1.74a24.02 24.02 0 0 1-9.98-2.3l-1.1-.56V111l.1-.33a9.13 9.13 0 0 1 2.18-3.4 14.38 14.38 0 0 1 9.5-4.21c4.03 0 7.18 1.3 9.34 3.85 2.08 2.46 3.14 6.04 3.14 10.64 0 2.64-.33 4.97-.98 6.92a14.66 14.66 0 0 1-2.8 5.05 11.43 11.43 0 0 1-4.33 3.12c-1.61.65-3.33.98-5.07.97Zm-7.09-5.4c.67.25 1.47.52 2.4.78 1.44.41 3.02.62 4.69.62 1.25 0 2.45-.23 3.57-.68a7.32 7.32 0 0 0 2.83-2.04 10.6 10.6 0 0 0 2-3.68c.52-1.54.78-3.44.78-5.66 0-3.63-.74-6.34-2.2-8.06-1.38-1.64-3.44-2.43-6.28-2.43-.62 0-1.34.12-2.15.35a10.43 10.43 0 0 0-4.52 2.69 5.14 5.14 0 0 0-1.12 1.62Zm64.74 15.19c-6 0-10.63-1.62-13.74-4.8-3.1-3.16-4.68-7.63-4.68-13.28V90.63h-7.25v-13.6h22.6v42.35c0 5.08.74 7.3 1.36 8.28.45.73 1.33 1.7 3.64 1.7 1.58 0 2.87-.17 3.83-.48a15.2 15.2 0 0 0 3.09-1.43l1.79-1.07 6.16 11.32-1.56 1c-1 .66-2.03 1.28-3.08 1.87a21.19 21.19 0 0 1-7.44 2.5c-1.41.22-3 .33-4.72.33Zm-21.67-56.77h7.25v38.7c0 4.62 1.16 8.05 3.54 10.47 2.33 2.39 6 3.6 10.89 3.6 1.51 0 2.9-.1 4.1-.29a17.1 17.1 0 0 0 6.1-2.04l1.29-.74-2.43-4.47c-.7.33-1.38.6-2.07.82-1.38.45-3.04.67-5.07.67-3.94 0-6-1.93-7.02-3.55-1.33-2.1-1.97-5.5-1.97-10.42V81.02h-14.6Zm70.94 56.77c-3.94 0-7.53-.57-10.67-1.7a22.14 22.14 0 0 1-8.2-5.04 22.15 22.15 0 0 1-5.14-7.96 29.05 29.05 0 0 1-1.75-10.36c0-4.1.67-7.76 2-10.88a22.13 22.13 0 0 1 13.69-12.64 30.95 30.95 0 0 1 17.23-.61 20.8 20.8 0 0 1 7.2 3.33 18.2 18.2 0 0 1 5.45 6.41c1.4 2.67 2.1 6.04 2.1 10.02a44 44 0 0 1-.9 8.51l-.32 1.61h-30.84c.15.65.38 1.23.66 1.73a7.3 7.3 0 0 0 2.27 2.48c1 .68 2.15 1.19 3.46 1.5 1.38.34 2.88.51 4.46.51 3.24 0 5.9-.37 7.92-1.1a16.27 16.27 0 0 0 4.86-2.63l1.93-1.6 5.58 11.01-1.11 1.03a17.6 17.6 0 0 1-3.3 2.32 33.86 33.86 0 0 1-10.1 3.5c-2.03.37-4.2.56-6.48.56Zm-.17-46.13c-3.09 0-5.99.45-8.62 1.34a19.07 19.07 0 0 0-6.77 3.91 18.28 18.28 0 0 0-4.52 6.5 23.85 23.85 0 0 0-1.68 9.31c0 3.36.5 6.36 1.48 8.94a18.22 18.22 0 0 0 4.21 6.54 18.18 18.18 0 0 0 6.74 4.13c2.71.97 5.85 1.46 9.33 1.46a32.3 32.3 0 0 0 10.72-1.8 26.8 26.8 0 0 0 3.9-1.75c.5-.28.97-.57 1.38-.86l-1.98-3.91c-1.18.7-2.53 1.34-4.03 1.89-2.45.89-5.58 1.34-9.29 1.34-1.9 0-3.72-.21-5.41-.63a14.48 14.48 0 0 1-4.76-2.08 11.34 11.34 0 0 1-3.5-3.8 12.06 12.06 0 0 1-1.43-5.65l-.06-2.06h31.84c.36-2.18.54-4.23.54-6.13 0-3.32-.55-6.06-1.65-8.15-1.1-2.1-2.53-3.8-4.24-5.03a16.83 16.83 0 0 0-5.82-2.7c-2.2-.53-4.34-.8-6.38-.8Zm11.52 18.52h-25.65l.17-2.15a11.3 11.3 0 0 1 1.49-4.87 12 12 0 0 1 3.2-3.57c1.27-.95 2.7-1.67 4.22-2.13 1.58-.48 3.22-.72 4.88-.71 3.81 0 6.75 1.06 8.74 3.16 1.96 2.07 2.95 4.85 2.95 8.27Zm-21.02-4h16.85a6.69 6.69 0 0 0-1.68-3.52c-1.2-1.27-3.17-1.91-5.85-1.91-1.3 0-2.54.18-3.68.53-1.09.33-2.11.85-3.03 1.52a7.95 7.95 0 0 0-2.61 3.38Zm41.43 29.34-7.12-11.24 30.7-18.13-30.69-18.54 7.13-11.26 43.43 26.96v6.63Zm-1.53-9.9 2.84 4.5 38.14-22.47v-2.11l-38.16-23.7-2.83 4.46 32.91 19.9Z"/><path fill="#fff" d="m205.7 291.16-13.94-10.98-7.21 16.2-3.62-17.36L165 286.8l8.4-15.63-17.22-4.28 16.47-6.58-10.42-14.35 16.84 5.55 1.24-17.7 9.34 15.09 12.32-12.77-2.54 17.56 17.64-1.86-13.23 11.82 14.7 9.92-17.72.54Z"/><g fill="#fff"><path d="M192.6 352.74a18.63 18.63 0 1 1-37.28 0 18.63 18.63 0 0 1 37.27 0Z"/><path d="M219.38 352.74a18.63 18.63 0 1 1-37.27 0 18.63 18.63 0 0 1 37.27 0Z"/></g><path fill="#fff" d="M161.15 427.28h52.4v30.28h-52.4Z"/><g fill="#fff"><path d="m78.6 127.67 1.29-12.17v-.44c-1.07.5-2.04.93-2.98 1.42a85.85 85.85 0 0 1-20.7 7.4 50.84 50.84 0 0 1-10.84 1.49 7.31 7.31 0 0 1-5.4-2.03 219.64 219.64 0 0 1-12.34-12.62c-1.14-1.26-2.26-2.54-3.48-3.9l.83-.36c1.1-.5 2.63-1.3 3.72-1.82l19.12 6.14c.64.21 1.15.16 1.74-.13l34.77-16.66c8.8-4.2 17.58-8.43 26.37-12.62 3.3-1.57 6.82-1.92 10.42-1.76 2.12.1 4.2.45 6.16 1.31a5.7 5.7 0 0 1 2.97 2.62c.93 1.8.45 3.46-.5 5.06a14.21 14.21 0 0 1-6.27 5.6c-6.77 3.27-13.56 6.5-20.35 9.73-.46.22-.73.5-.9 1l-13.97 38.89c-.57 1.56-1.09 3.14-1.7 4.68a4.2 4.2 0 0 1-2.11 2.3l-8.7 4.06Z"/><path d="M54.22 82.66a5.03 5.03 0 0 1 3.93-.27l23.02 7.88-3.9 1.85c-4.1 1.92-8.2 3.83-12.3 5.77-.57.28-.99.25-1.54-.1l-17-11.17Z"/></g><path fill="#fff" d="M28.11 270.95h4.28v-12.22l-3.7 2.83-1.67-2.24 6.37-4.86h2.46v16.49h4.2v3.07H28.1Zm20.43.25a6.1 6.1 0 0 0 1.7-.22c.5-.13.95-.35 1.36-.65a2.96 2.96 0 0 0 1.22-2.43c0-1.02-.4-1.83-1.22-2.41-.8-.6-2.02-.88-3.64-.88-.5 0-1 .02-1.48.05-.28.02-.57.03-.87.03v-10.23h10.12v3.4h-7v3.78c.16 0 .3 0 .46-.03l.37-.01.32-.02c.94 0 1.8.14 2.6.41a5.5 5.5 0 0 1 3.48 3.19c.33.77.5 1.62.5 2.56a6.03 6.03 0 0 1-2.3 4.98 7.5 7.5 0 0 1-2.46 1.26 9.7 9.7 0 0 1-2.99.44 7.5 7.5 0 0 1-1.31-.13 12.43 12.43 0 0 1-3.58-1.13l1.17-2.9a8.16 8.16 0 0 0 3.55.94Zm16.27-9.14c0-.65.2-1.17.62-1.55.4-.38.95-.57 1.62-.57.7 0 1.27.19 1.68.57.4.38.61.9.61 1.55s-.2 1.18-.61 1.57c-.41.39-.97.58-1.68.58a2.3 2.3 0 0 1-1.62-.58 2.1 2.1 0 0 1-.62-1.57Zm0 10.12c0-.65.2-1.17.62-1.55.4-.38.95-.57 1.62-.57.7 0 1.27.19 1.68.57.4.38.61.9.61 1.55s-.2 1.17-.61 1.56c-.41.4-.97.6-1.68.6-.67 0-1.21-.2-1.62-.6-.41-.39-.62-.9-.62-1.56Zm17.59-.84c.61 0 1.17-.08 1.69-.23a4 4 0 0 0 1.31-.67c.36-.29.65-.62.85-1 .2-.38.31-.8.31-1.24a2.47 2.47 0 0 0-1.31-2.31 4.6 4.6 0 0 0-1.48-.47c-.62-.1-1.25-.15-1.88-.14h-1.56v-2.01l4.7-5.74h-7.08v-3.07h11.4V257l-4.91 5.62h.64c.65 0 1.29.11 1.9.34a4.73 4.73 0 0 1 2.78 2.68c.3.67.44 1.44.44 2.32 0 1.06-.22 2-.66 2.8a6.37 6.37 0 0 1-1.73 2.02 7.4 7.4 0 0 1-2.48 1.23c-.93.27-1.9.4-2.88.4-.84 0-1.67-.07-2.51-.22-.84-.15-1.65-.38-2.44-.7l.98-3.02c.17.1.4.19.69.28a14.96 14.96 0 0 0 2.1.5c.38.06.75.1 1.13.1Zm10.9-7.13c0-1.7.17-3.18.53-4.46a9.17 9.17 0 0 1 1.5-3.17 6.22 6.22 0 0 1 2.32-1.88 7 7 0 0 1 3-.63c2.35 0 4.17.82 5.44 2.47 1.27 1.65 1.91 4.2 1.91 7.67 0 1.72-.18 3.21-.53 4.49a9.34 9.34 0 0 1-1.5 3.19 6.13 6.13 0 0 1-2.33 1.9 7.1 7.1 0 0 1-3.02.63c-2.38 0-4.19-.88-5.44-2.62-1.26-1.74-1.88-4.27-1.88-7.59Zm3.63 0c0 .53.02 1.05.06 1.57l6.76-6.23c-.55-1.6-1.6-2.4-3.13-2.4-1.18 0-2.1.56-2.73 1.71-.64 1.15-.96 2.93-.96 5.35Zm7.44 0c0-.55-.02-1.1-.06-1.65l-6.8 6.24c.58 1.7 1.63 2.54 3.14 2.54 1.18 0 2.1-.57 2.75-1.7.64-1.14.97-2.95.97-5.43Zm-76.26 92.93h4.28v-12.22l-3.7 2.82-1.67-2.23 6.37-4.87h2.46v16.5h4.2v3.07H28.1Zm20.43.25a6.1 6.1 0 0 0 1.7-.22 4.2 4.2 0 0 0 1.36-.65 2.96 2.96 0 0 0 1.22-2.43c0-1.02-.4-1.83-1.22-2.42-.8-.59-2.02-.88-3.64-.88-.5 0-1 .02-1.48.06-.28.02-.57.03-.87.03v-10.24h10.12v3.42h-7v3.77c.16 0 .3-.01.46-.03a4.62 4.62 0 0 0 .7-.03c.93 0 1.8.14 2.6.4a5.51 5.51 0 0 1 3.48 3.19c.32.78.48 1.63.48 2.56a6.02 6.02 0 0 1-2.3 4.98 7.5 7.5 0 0 1-2.45 1.27 10 10 0 0 1-2.99.43 7.5 7.5 0 0 1-1.31-.12 16.02 16.02 0 0 1-2.62-.71 16.4 16.4 0 0 1-.96-.42l1.17-2.91a8.09 8.09 0 0 0 3.55.95Zm16.27-9.14c0-.65.2-1.17.62-1.55.4-.38.95-.58 1.62-.58.7 0 1.27.2 1.68.58.4.38.61.9.61 1.55s-.2 1.17-.61 1.56c-.41.4-.97.59-1.68.59-.67 0-1.21-.2-1.62-.59a2.06 2.06 0 0 1-.62-1.56Zm0 10.12a2 2 0 0 1 .62-1.56c.4-.38.95-.57 1.62-.57.7 0 1.27.2 1.68.57.4.39.61.9.61 1.56 0 .65-.2 1.17-.61 1.56-.41.4-.97.59-1.68.59-.67 0-1.21-.2-1.62-.59a2.06 2.06 0 0 1-.62-1.56Zm17.28-.98a6.1 6.1 0 0 0 1.7-.22 4.5 4.5 0 0 0 1.36-.65 2.96 2.96 0 0 0 1.21-2.43c0-1.02-.4-1.83-1.21-2.42-.81-.59-2.03-.88-3.65-.88-.5 0-.99.02-1.48.06-.28.02-.57.03-.87.03v-10.24h10.12v3.42h-6.99v3.77l.45-.03a4.62 4.62 0 0 0 .7-.03c.93 0 1.8.14 2.6.4a5.51 5.51 0 0 1 3.48 3.19c.33.78.49 1.63.49 2.56a6.02 6.02 0 0 1-2.3 4.98 7.5 7.5 0 0 1-2.45 1.27c-.94.29-1.93.43-3 .43a7.5 7.5 0 0 1-1.3-.12 16.02 16.02 0 0 1-2.62-.71c-.33-.13-.65-.27-.97-.42l1.18-2.91a8.09 8.09 0 0 0 3.55.95Zm11.2-6.99c0-1.7.18-3.18.54-4.46a9.18 9.18 0 0 1 1.5-3.17 6.22 6.22 0 0 1 2.32-1.89 7 7 0 0 1 3-.63c2.35 0 4.17.83 5.44 2.48 1.27 1.64 1.91 4.2 1.91 7.67 0 1.71-.18 3.21-.53 4.49a9.34 9.34 0 0 1-1.5 3.18 6.14 6.14 0 0 1-2.33 1.9c-.91.42-1.92.63-3.02.63-2.38 0-4.19-.87-5.44-2.61-1.26-1.74-1.88-4.27-1.88-7.59Zm3.64 0c0 .52.02 1.04.06 1.56l6.76-6.23c-.55-1.6-1.6-2.4-3.13-2.4-1.18 0-2.1.57-2.73 1.72-.64 1.14-.96 2.93-.96 5.35Zm7.44 0c0-.55-.02-1.1-.06-1.65l-6.8 6.23c.58 1.7 1.63 2.55 3.14 2.55 1.18 0 2.1-.57 2.75-1.7.64-1.14.97-2.95.97-5.43Zm-76.26 94.09h4.28v-12.22l-3.7 2.82-1.67-2.23 6.37-4.87h2.46v16.5h4.2v3.07H28.1Zm29.07-3a6.23 6.23 0 0 1-1.93 4.59 7.06 7.06 0 0 1-4.8 1.87 7.9 7.9 0 0 1-2.73-.46 6.2 6.2 0 0 1-3.73-3.7 8.68 8.68 0 0 1-.56-3.25c0-1.84.32-3.52.96-5.03a13.91 13.91 0 0 1 2.48-3.92 12.9 12.9 0 0 1 3.38-2.69 11.33 11.33 0 0 1 3.72-1.3l.8 2.88a10.85 10.85 0 0 0-5.05 2.43 9.22 9.22 0 0 0-1.7 1.99 7.1 7.1 0 0 0-.93 2.26 4.3 4.3 0 0 1 1.68-1.19 6.71 6.71 0 0 1 4.8-.08 5.4 5.4 0 0 1 3.15 3.06c.3.75.46 1.6.46 2.55Zm-3.52.15c0-1.01-.3-1.77-.9-2.3a3.62 3.62 0 0 0-2.45-.78 4.03 4.03 0 0 0-3.33 1.68 5.2 5.2 0 0 0-.07.69l-.01.6c0 .44.07.87.22 1.28a3.1 3.1 0 0 0 1.7 1.8c.41.18.89.27 1.43.27a3.6 3.6 0 0 0 2.35-.9 3.04 3.04 0 0 0 1.06-2.35Zm11.15-6.04c0-.65.2-1.17.62-1.55.4-.39.95-.58 1.62-.58.7 0 1.27.2 1.68.58.4.38.61.9.61 1.55s-.2 1.17-.61 1.56c-.41.4-.97.59-1.68.59-.67 0-1.21-.2-1.62-.59a2.06 2.06 0 0 1-.62-1.56Zm0 10.12c0-.65.2-1.17.62-1.56.4-.38.95-.57 1.62-.57.7 0 1.27.2 1.68.58.4.38.61.9.61 1.55s-.2 1.17-.61 1.56c-.41.4-.97.59-1.68.59-.67 0-1.21-.2-1.62-.59a2.06 2.06 0 0 1-.62-1.56Zm13.62-1.23h4.27v-12.22l-3.69 2.82-1.67-2.23 6.37-4.87h2.46v16.5h4.2v3.07H78.41Zm14.87-6.74c0-1.7.17-3.18.53-4.46a9.18 9.18 0 0 1 1.5-3.17 6.23 6.23 0 0 1 2.32-1.89 7 7 0 0 1 3-.63c2.35 0 4.17.82 5.44 2.48 1.27 1.64 1.91 4.2 1.91 7.67 0 1.71-.18 3.21-.53 4.49a9.35 9.35 0 0 1-1.5 3.18 6.14 6.14 0 0 1-2.33 1.9 7.1 7.1 0 0 1-3.02.63c-2.38 0-4.19-.87-5.44-2.61-1.26-1.74-1.88-4.27-1.88-7.59Zm3.63 0c0 .52.02 1.05.06 1.57l6.76-6.24c-.55-1.6-1.6-2.4-3.13-2.4-1.18 0-2.1.57-2.73 1.72-.64 1.14-.96 2.93-.96 5.35Zm7.44 0c0-.55-.02-1.1-.06-1.65l-6.8 6.23c.58 1.7 1.63 2.55 3.14 2.55 1.18 0 2.1-.57 2.75-1.7.64-1.15.97-2.95.97-5.43Zm-76.26 99.2h4.28v-12.22l-3.7 2.83-1.67-2.24 6.37-4.86h2.46v16.49h4.2v3.07H28.1Zm29.07-3a6.24 6.24 0 0 1-1.93 4.6 7.06 7.06 0 0 1-4.8 1.87c-.93 0-1.86-.15-2.73-.46a6.2 6.2 0 0 1-3.73-3.7 8.69 8.69 0 0 1-.56-3.25c0-1.85.32-3.52.96-5.03a13.91 13.91 0 0 1 2.48-3.93 12.93 12.93 0 0 1 3.38-2.68 11.28 11.28 0 0 1 3.72-1.3l.8 2.88a10.85 10.85 0 0 0-5.05 2.42 9.22 9.22 0 0 0-1.7 1.99 7.2 7.2 0 0 0-.93 2.26 4.3 4.3 0 0 1 1.68-1.18 6.69 6.69 0 0 1 4.8-.08 5.4 5.4 0 0 1 3.15 3.05c.3.75.46 1.6.46 2.55Zm-3.52.15c0-1-.3-1.77-.9-2.3a3.62 3.62 0 0 0-2.45-.77 4.03 4.03 0 0 0-3.33 1.67c-.04.23-.06.46-.07.69l-.01.6c0 .45.07.88.22 1.29a3.11 3.11 0 0 0 3.13 2.07c.86-.01 1.7-.33 2.35-.9a3.05 3.05 0 0 0 1.06-2.35Zm11.15-6.04c0-.65.2-1.17.62-1.55.4-.38.95-.57 1.62-.57.7 0 1.27.19 1.68.57.4.38.61.9.61 1.55s-.2 1.18-.61 1.57c-.41.39-.97.58-1.68.58a2.3 2.3 0 0 1-1.62-.58 2.1 2.1 0 0 1-.62-1.57Zm0 10.12c0-.65.2-1.17.62-1.55.4-.38.95-.57 1.62-.57.7 0 1.27.19 1.68.57.4.38.61.9.61 1.55s-.2 1.17-.61 1.57c-.41.39-.97.58-1.68.58a2.3 2.3 0 0 1-1.62-.58 2.1 2.1 0 0 1-.62-1.57Zm13.62-1.23h4.27v-12.22l-3.69 2.83-1.67-2.24 6.37-4.86h2.46v16.49h4.2v3.07H78.41Zm20.43.25c.61 0 1.18-.07 1.7-.22.5-.13.95-.35 1.36-.65a2.96 2.96 0 0 0 1.22-2.43c0-1.02-.4-1.83-1.22-2.42-.81-.58-2.03-.88-3.65-.88a19.76 19.76 0 0 0-1.48.06c-.28.02-.57.03-.87.03v-10.23h10.12v3.4h-6.98v3.78c.14 0 .3 0 .44-.03l.38-.01.32-.02c.93 0 1.8.14 2.6.4.8.28 1.5.68 2.1 1.23a5.5 5.5 0 0 1 1.38 1.97c.33.77.5 1.62.5 2.56a6.02 6.02 0 0 1-2.3 4.98c-.73.56-1.57 1-2.46 1.26-.93.3-1.93.44-3 .44-.4 0-.84-.04-1.3-.13a16.03 16.03 0 0 1-2.62-.71 11.3 11.3 0 0 1-.96-.42l1.17-2.9a8.62 8.62 0 0 0 3.55.94Zm-70.75 85.94h4.28v-12.22l-3.7 2.82-1.67-2.23 6.37-4.87h2.46v16.5h4.2v3.07H28.1Zm29.07-3a6.24 6.24 0 0 1-1.93 4.59 7.02 7.02 0 0 1-4.8 1.87 7.9 7.9 0 0 1-2.73-.46 6.2 6.2 0 0 1-3.73-3.7 8.69 8.69 0 0 1-.56-3.25c0-1.84.32-3.52.96-5.03a13.9 13.9 0 0 1 2.48-3.92 12.93 12.93 0 0 1 3.38-2.69 11.35 11.35 0 0 1 3.72-1.3l.8 2.88a10.85 10.85 0 0 0-5.05 2.43 9.22 9.22 0 0 0-1.7 1.99 7.1 7.1 0 0 0-.93 2.26c.37-.47.93-.86 1.68-1.19a6.73 6.73 0 0 1 4.8-.08 5.4 5.4 0 0 1 3.15 3.06c.3.75.46 1.6.46 2.55Zm-3.52.14c0-1-.3-1.77-.9-2.29a3.62 3.62 0 0 0-2.45-.78 4.04 4.04 0 0 0-3.33 1.68c-.04.23-.06.45-.07.68a18 18 0 0 0-.01.6c0 .45.07.88.22 1.3a3.1 3.1 0 0 0 1.7 1.8c.41.17.89.26 1.43.26a3.59 3.59 0 0 0 2.35-.9 3.04 3.04 0 0 0 1.06-2.35Zm11.15-6.03c0-.65.2-1.17.62-1.55.4-.39.95-.58 1.62-.58.7 0 1.27.2 1.68.58.4.38.61.9.61 1.55s-.2 1.17-.61 1.56c-.41.4-.97.59-1.68.59-.67 0-1.21-.2-1.62-.59a2.06 2.06 0 0 1-.62-1.56Zm0 10.12c0-.65.2-1.17.62-1.55.4-.39.95-.58 1.62-.58.7 0 1.27.2 1.68.58.4.38.61.9.61 1.55s-.2 1.17-.61 1.56c-.41.4-.97.59-1.68.59-.67 0-1.21-.2-1.62-.59a2.06 2.06 0 0 1-.62-1.56Zm25.27 1.84H77.61v-2.71l.84-.74a150.69 150.69 0 0 0 2.46-2.33 61 61 0 0 0 3.03-3.38c.48-.58.87-1.13 1.18-1.64.29-.48.52-.98.69-1.51.15-.5.22-1 .22-1.52 0-.38-.08-.74-.25-1.1a3 3 0 0 0-.7-.93c-.31-.28-.68-.5-1.08-.65a3.9 3.9 0 0 0-1.38-.23 5.2 5.2 0 0 0-3.55 1.34l-1.45-2.57c.78-.56 1.65-1.03 2.6-1.41a8.9 8.9 0 0 1 5.63-.24c.7.2 1.37.54 1.96 1a4.81 4.81 0 0 1 1.85 3.9 8.17 8.17 0 0 1-.63 3.2 9.9 9.9 0 0 1-.84 1.57 25.8 25.8 0 0 1-2.45 3.23 49.98 49.98 0 0 1-2.58 2.67c-.41.4-.8.72-1.13.98h8.05Zm8.78-2.82c.61 0 1.18-.07 1.7-.23.53-.15.98-.36 1.36-.64.38-.28.68-.62.9-1.03.21-.41.32-.88.32-1.4 0-1.02-.4-1.83-1.22-2.42-.81-.58-2.03-.88-3.65-.88-.5 0-.99.02-1.48.06-.28.02-.57.02-.87.02v-10.23h10.12v3.41h-6.98v3.78c.14 0 .3-.01.44-.03a5.11 5.11 0 0 0 .7-.03c.93 0 1.8.14 2.6.4a5.51 5.51 0 0 1 3.48 3.19c.33.78.5 1.63.5 2.56a6.03 6.03 0 0 1-2.3 4.98c-.74.57-1.57 1-2.46 1.27-.93.29-1.93.44-3 .44-.4 0-.84-.05-1.3-.13a16.41 16.41 0 0 1-2.62-.71 13.9 13.9 0 0 1-.96-.42l1.17-2.91a8.01 8.01 0 0 0 3.55.95ZM206 553l-17.18-9.3-17.4 8.88 3.54-19.2-13.82-13.8L180.5 517l8.85-17.4 8.44 17.6 19.29 3.05-14.15 13.46Zm1.6 63.74a18.63 18.63 0 1 1-37.28 0 18.63 18.63 0 0 1 37.27 0Z"/><path fill="#f68635" d="M453.32 759.58h-60.45V695.6l51.44-.38Z"/><path fill="none" d="M392.93 759.58v-66.23"/><path d="M390.93 693.35h4v66.23h-4Z"/><path fill="#fff" d="M381.82 476.22a56.84 56.84 0 0 1 36.2-12.14 56.84 56.84 0 0 1 35.92 13.56 56.75 56.75 0 0 1 17.47-2.73h113.05c10.63 0 22.49-.26 34.13 1.64a56.8 56.8 0 0 1 28.4-16.79c19.27-4.73 26.79-6.5 37.31-12.93 5.76-3.52 12.4-8.42 22.38-15.96a66.64 66.64 0 0 1 29.03-12.98 212.12 212.12 0 0 0 12.05-70.68c0-117.38-95.17-212.55-212.56-212.55-117.4 0-212.56 95.17-212.56 212.55A211.7 211.7 0 0 0 373.1 484.7a57.66 57.66 0 0 1 8.72-8.48Z"/><path d="M453.94 477.64a56.75 56.75 0 0 1 17.47-2.73h113.05c10.63 0 22.49-.26 34.13 1.64a56.8 56.8 0 0 1 28.4-16.79c19.27-4.73 26.79-6.5 37.31-12.93a58.71 58.71 0 0 0-21.19-22.16 37.69 37.69 0 0 0-35.26-45.48v-.05H440.47v.03a37.68 37.68 0 0 0-35 48.58 58.34 58.34 0 0 0-23.7 46.97c0 .5.03 1 .04 1.5a56.84 56.84 0 0 1 36.21-12.14 56.83 56.83 0 0 1 35.92 13.56Z"/><path fill="#f68635" d="M506.6 438.58h59.36v36.65H506.6Z"/><path fill="#fff" d="M638.29 355.48c0 56.51-45.82 102.33-102.34 102.33-56.51 0-102.33-45.82-102.33-102.33 0-56.52 45.82-102.34 102.33-102.34 56.52 0 102.34 45.82 102.34 102.34Z"/><path fill="#f68635" d="M448.63 335.42c1.17 0 2.32.07 3.46.2a88 88 0 0 1 169 0 30.54 30.54 0 1 1-3.99 59.96 87.98 87.98 0 0 1-161.02 0 30.54 30.54 0 1 1-7.45-60.16Z"/><path d="M536.59 450.07a90.05 90.05 0 0 1-81.67-52.18 32.58 32.58 0 0 1-38.84-31.93 32.58 32.58 0 0 1 34.56-32.48c11.57-37.37 46.68-63.32 85.95-63.32 39.26 0 74.37 25.95 85.94 63.32a32.58 32.58 0 0 1 34.55 32.48 32.58 32.58 0 0 1-38.83 31.93 90.04 90.04 0 0 1-81.66 52.18Zm-79.37-56.84.69 1.54a86.05 86.05 0 0 0 78.68 51.3 86.04 86.04 0 0 0 78.68-51.3l.68-1.54 1.63.4a28.57 28.57 0 0 0 35.5-27.68 28.57 28.57 0 0 0-31.77-28.35l-1.68.19-.47-1.62c-10.56-36.51-44.52-62.01-82.57-62.01-38.05 0-72 25.5-82.58 62.01l-.46 1.62-1.68-.19a28.57 28.57 0 0 0-31.78 28.35 28.57 28.57 0 0 0 35.5 27.69Z"/><path d="M621.29 380.24a2 2 0 0 1-1.47-3.35l18.72-20.37a2 2 0 0 1 2.95 2.71l-18.73 20.36a2 2 0 0 1-1.47.65Zm-165.75 0a2 2 0 0 1-1.48-.65l-18.73-20.36a2 2 0 0 1 2.94-2.7l18.74 20.36a2 2 0 0 1-1.47 3.35Zm81.3-108.36a89.42 89.42 0 0 0-84.7 64.96 72.63 72.63 0 0 0 84.69-64.95Z"/><path d="M536.23 271.88a89.42 89.42 0 0 1 84.69 64.96 72.63 72.63 0 0 1-84.69-64.95Zm46.95 98.38a11.6 11.6 0 1 1-23.21 0 11.6 11.6 0 0 1 23.2 0Z"/><path d="M598.9 373.38c-.67 0-1.29-.33-1.66-.87a26.11 26.11 0 0 0-43.05 0 2 2 0 1 1-3.3-2.27 30.1 30.1 0 0 1 49.65 0 2 2 0 0 1-1.65 3.13Zm-91.47-3.12a11.6 11.6 0 1 1-23.2 0 11.6 11.6 0 0 1 23.2 0Z"/><path d="M476.79 373.38a2 2 0 0 1-1.65-3.14 30.11 30.11 0 0 1 49.65 0 2 2 0 1 1-3.3 2.27 26.12 26.12 0 0 0-43.05 0 2 2 0 0 1-1.65.87Z"/><path fill="none" d="M537.2 369.54v16.9"/><path d="M537.2 388.44a2 2 0 0 1-2-2v-16.9a2 2 0 1 1 4 0v16.9a2 2 0 0 1-2 2Z"/><path fill="#fff" d="M521.6 396.04a15.29 15.29 0 0 0 30.58 0"/><path fill="none" d="m445.31 481.29.87-.46h-.01l-.86.46Zm5.89-2.67.6-.24-.54.2-.07.04Zm-12.9 7.14.9-.66h-.02l-.88.66Zm3.85-2.66.42-.26Z"/><path fill="#fff" d="m441.5 675.2-1.13-8.14Zm-27.35 5.3a66.41 66.41 0 0 1-35.17-10.75v35.08h66.64l-4.11-29.64a66.56 66.56 0 0 1-27.36 5.32Z"/><path fill="#f68635" d="m441.5 675.2-1.13-8.14-18.87-134.73a52.96 52.96 0 0 1-1.04-6.16 43.61 43.61 0 0 1-.23-6.29v-.08a44.28 44.28 0 0 1 .7-6.5l.15-.66c.12-.63.26-1.25.42-1.87l.08-.39.06-.18c.2-.8.43-1.57.68-2.34l.1-.3a43.23 43.23 0 0 1 1.76-4.44l.18-.38c.34-.74.71-1.46 1.1-2.17.06-.13.14-.25.21-.38.33-.59.67-1.17 1.02-1.75l.3-.48c.56-.88 1.15-1.74 1.77-2.58.2-.27.41-.56.63-.83l.01-.02a51.2 51.2 0 0 1 2.4-2.86h.01l.44-.48.34-.35c.64-.67 1.3-1.32 1.97-1.95l.96-.87.52-.45.01-.01a47.36 47.36 0 0 1 3.14-2.48 52.5 52.5 0 0 1 2.97-2l.41-.26h.01c.9-.54 1.8-1.06 2.73-1.55l.86-.45h.01a53.45 53.45 0 0 1 5.02-2.23l.07-.02.54-.21c.7-.26 1.42-.51 2.14-.75a56.85 56.85 0 0 0-35.92-13.55 56.83 56.83 0 0 0-36.2 12.14 57.5 57.5 0 0 0-8.72 8.47 56.8 56.8 0 0 0-12.94 41.56c2.74 30.59 3.07 32.23-7.99 65.87a66.71 66.71 0 0 0 61.98 88.38c9.4.2 18.71-1.61 27.35-5.3Z"/><path d="m415.36 682.52-1.24-.01a68.53 68.53 0 0 1-36.23-11.09 68.44 68.44 0 0 1-31.3-58.9 68.7 68.7 0 0 1 3.7-21.04c10.77-32.8 10.62-34.55 7.98-63.87l-.1-1.18c-.2-2.1-.27-4.22-.23-6.34a58.42 58.42 0 0 1 13.62-36.68 59.75 59.75 0 0 1 9.02-8.76 58.49 58.49 0 0 1 37.48-12.57 59.2 59.2 0 0 1 37.18 14.03l2.73 2.33-3.42 1.1c-.7.22-1.38.47-2.06.72l-.5.2c-1.58.6-3.12 1.27-4.63 2.02l-.09.08-.3.11-.44.23-.44.24c-.9.48-1.71.94-2.48 1.4l-.38.25c-.98.6-1.93 1.25-2.87 1.92l-.13.1-.72.54a46.3 46.3 0 0 0-2.16 1.74l-.52.45-.9.81-.45.44c-.5.47-.98.95-1.46 1.45l-.39.4-.27.3-.07.08-.68.75-.2.24c-.48.56-.95 1.13-1.4 1.72l-.04.05-.51.68-.1.13a46.5 46.5 0 0 0-1.69 2.46l-.3.48c-.32.53-.65 1.09-.96 1.65l-.22.38c-.36.67-.7 1.36-1.04 2.05l-.16.36a39 39 0 0 0-1.68 4.23l-.1.31a44.6 44.6 0 0 0-.7 2.4l-.08.35c-.15.59-.28 1.19-.4 1.79l-.13.63c-.15.85-.27 1.56-.35 2.2l-.02.14a41.64 41.64 0 0 0-.33 5.85 45.37 45.37 0 0 0 1.24 10l.04.18 20.21 144.38-1.4.6a68.2 68.2 0 0 1-26.93 5.49ZM417 466.07a54.5 54.5 0 0 0-33.94 11.73 55.57 55.57 0 0 0-8.41 8.17 54.46 54.46 0 0 0-12.49 40.1l.1 1.18c2.65 29.49 2.87 31.9-8.17 65.5a64.68 64.68 0 0 0-3.49 19.84 64.47 64.47 0 0 0 29.48 55.48 64.59 64.59 0 0 0 34.12 10.44 64.2 64.2 0 0 0 25.13-4.57l-19.8-141.24a54.53 54.53 0 0 1-1.06-6.32 49 49 0 0 1-.25-6.56c.04-1.4.15-2.82.33-4.21l.01-.1c.1-.76.23-1.57.4-2.55l.1-.47.04-.22c.14-.66.28-1.32.44-1.96l.03-.11.06-.3.06-.2c.22-.84.46-1.66.71-2.44l.12-.32a45.1 45.1 0 0 1 1.84-4.64l.17-.4c.36-.76.75-1.52 1.15-2.26l.23-.4c.34-.62.7-1.23 1.07-1.83l.32-.5c.58-.93 1.2-1.82 1.84-2.7l.1-.13.5-.67.07-.1c.35-.45.71-.9 1.08-1.34v-.1l.54-.54.89-1 .12-.13.14-.15.05-.1.5-.48c.51-.54 1.04-1.07 1.58-1.58l.42-.4.03-.02.02-.03 1-.9.54-.48a53.3 53.3 0 0 1 3.26-2.57l.22-.16a55.4 55.4 0 0 1 2.88-1.92l.56-.36c.86-.51 1.74-1 2.62-1.48l.42-.28h.12l.17-.1.4-.2a54.55 54.55 0 0 1 4.52-2.02 55.21 55.21 0 0 0-31.91-10.9h-1Z"/><path fill="#f68635" d="M421.5 532.33a52.96 52.96 0 0 1-1.04-6.17c-.07-.7-.13-1.4-.17-2.09v-.06c-.04-.68-.07-1.36-.08-2.04v-.07c0-.67 0-1.35.02-2.02v-.06c.02-.67.06-1.34.11-2v-.06c.06-.66.13-1.33.21-1.98v-.02c.11-.82.24-1.64.4-2.44a43.88 43.88 0 0 1 .55-2.53l.14-.58a42.02 42.02 0 0 1 2.56-7.11l.15-.33a44.96 44.96 0 0 1 2.36-4.32l.28-.45c.43-.68.87-1.36 1.34-2l.1-.14c.1-.16.22-.3.33-.46l.64-.85.23-.3.93-1.13.35-.41.9-1.02.44-.48.34-.35c.19-.2.37-.4.56-.58l.53-.52.43-.42 1.05-.97.37-.33.53-.46a50.92 50.92 0 0 1 5.64-4.18l.46-.3.42-.26a53.93 53.93 0 0 1 1.77-1.03l.97-.52.87-.46 1.03-.5.83-.4 1.14-.5c.26-.1.52-.23.79-.34l1.22-.48.6-.23.14-.05a56.73 56.73 0 0 1 19.48-3.42h113.06c10.63 0 22.48-.26 34.13 1.64a57.05 57.05 0 0 0-12.17 56.6c.17.5.33 1.01.52 1.52.32.9.67 1.78 1.04 2.65l.28.65a58.87 58.87 0 0 0 3.9 7.42c.32.53.66 1.05 1 1.56l.2.3c.33.49.67.97 1.01 1.44l.24.33c.36.48.7.95 1.07 1.41l.18.22a56.45 56.45 0 0 0 5.25 5.76l.19.18c.4.39.82.77 1.24 1.14l.37.33c.4.35.8.7 1.22 1.04l.42.34 1.25 1 .36.27a57.05 57.05 0 0 0 4.51 3.07l.25.16 1.27.74.64.36c.4.22.79.44 1.19.64l.75.4 1.17.57.81.38 1.15.52.88.36 1.14.47c.96.37 1.93.71 2.9 1.03l1.11.36 1.02.3a46.26 46.26 0 0 0 3.3.83c.34.07.66.15 1 .21.41.09.84.17 1.26.24.3.06.6.12.91.16.53.1 1.06.16 1.59.24l.6.08a59 59 0 0 0 2.19.23l.72.05a64.64 64.64 0 0 0 3.8.14h.89l1.42-.03.86-.04c.51-.02 1.02-.06 1.54-.1.24-.02.49-.03.73-.06.76-.06 1.52-.15 2.27-.25l-28.83 185.74-186.16.1-8.37-59.76-23.19-165.52Z"/><path d="M451.31 759.62 419.54 532.7a54.53 54.53 0 0 1-1.06-6.33 46.61 46.61 0 0 1-.13-8.71l.01-.12c.05-.63.12-1.32.2-2.01l.04-.2a47.48 47.48 0 0 1 .95-5.02l.15-.6c.23-.87.46-1.67.72-2.46l.09-.26c.25-.74.5-1.45.77-2.15l.21-.52c.3-.74.59-1.4.9-2.06l.14-.34c.37-.78.76-1.55 1.18-2.3l.2-.36c.34-.62.7-1.25 1.09-1.87l.3-.48c.49-.77.95-1.46 1.4-2.09l.1-.13.23-.33.12-.16.66-.88.25-.31c.3-.4.63-.8.96-1.18l.1-.12.27-.32.94-1.06.46-.5.46-.47.47-.5 3.02-2.8.68-.57a54.47 54.47 0 0 1 5.2-3.79l.9-.56a65.87 65.87 0 0 1 1.85-1.08l.87-.47.38-.2.65-.34.94-.46.4-.2.6-.28 1.07-.47.4-.17.52-.23 1.03-.4 1.06-.4a58.26 58.26 0 0 1 20.12-3.53l120.05-.02c8.3 0 17.96.13 27.45 1.69l3.66.6-2.5 2.72a55.11 55.11 0 0 0-11.74 54.6l.14.45.35 1.03c.28.78.61 1.62 1 2.56l.29.64.87 1.92.29.57c.33.68.68 1.35 1.04 2l.2.38c.42.74.82 1.43 1.23 2.1l.42.41v.26l.67 1.02.21.31c.3.45.63.9.96 1.37l.23.3c.34.47.69.93 1.04 1.38l.13.16a54.88 54.88 0 0 0 5.1 5.6l.19.19 1.2 1.1.36.31 1.16 1 .4.32c.4.33.8.65 1.21.96l.35.26a55.12 55.12 0 0 0 4.36 2.98l.24.15c.4.25.81.48 1.22.71l.62.36a54.46 54.46 0 0 0 3 1.54l.78.37.14.06.98.44.56.24.55.23c.27.11.55.23.83.33a40.7 40.7 0 0 0 3.88 1.34l.97.29a42.18 42.18 0 0 0 3.2.81l.95.2c.4.09.81.16 1.22.24l.26.04.62.11c.51.09 1.02.16 1.53.23l.6.08c.69.09 1.4.16 2.1.22l.7.05a65.03 65.03 0 0 0 3.64.14h.9l1.34-.04.85-.03 1.47-.1.72-.06c.73-.06 1.45-.14 2.18-.24l2.65-.35-29.5 190.07ZM422.5 516.35c-.06.52-.12 1.05-.16 1.58v.1c-.05.62-.09 1.24-.11 1.86-.02.66-.03 1.33-.02 1.99a42.41 42.41 0 0 0 .24 4.07c.2 1.99.54 3.96 1 5.91l.03.19 31.3 223.56 182.72-.08 28.16-181.48-.45.03c-.56.04-1.08.08-1.6.1l-.9.04-1.47.04h-.94a50.87 50.87 0 0 1-3.92-.15l-.74-.05c-.76-.06-1.51-.14-2.27-.23l-.63-.1-1.64-.23-.7-.13-.24-.04-1.32-.25-1-.22-1.23-.28-1.05-.27-1.17-.32-1.04-.3-1.15-.38a48 48 0 0 1-1.44-.49 41.4 41.4 0 0 1-1.56-.57l-.92-.38-.53-.21-.63-.27c-.36-.15-.72-.32-1.07-.48l-.13-.06a64.67 64.67 0 0 1-4.06-2.05l-.6-.35c-.47-.26-.92-.53-1.37-.8l-.2-.12c-1.62-1-3.2-2.08-4.73-3.22l-.08-.07c-.54-.4-1.07-.82-1.59-1.25l-.07-.06c-.55-.44-1.09-.9-1.62-1.36l-.38-.34c-.44-.4-.87-.78-1.29-1.18l-.14-.14a58.92 58.92 0 0 1-5.5-6.02l-.15-.18-1.13-1.5-.24-.33-1.06-1.5-.21-.33c-.32-.46-.62-.93-.92-1.4l-.42-.43v-.26c-.4-.65-.78-1.31-1.15-1.98l-.2-.38c-.4-.7-.78-1.43-1.13-2.16l-.3-.6c-.33-.69-.64-1.38-.95-2.07l-.29-.67a62.91 62.91 0 0 1-1.48-3.91l-.13-.42a59.11 59.11 0 0 1 10.16-55.76c-8.04-1.02-16.14-1.11-23.24-1.11l-7 .01H471.42a54.68 54.68 0 0 0-18.79 3.3l-.95.37-.95.37-.44.19-.42.18c-.33.14-.66.28-.98.44-.18.07-.35.16-.52.24l-.42.2-.86.42-.58.3-.38.2a43.95 43.95 0 0 0-2.51 1.44l-.84.52-.81.53-.85.58a76.18 76.18 0 0 0-1.6 1.16l-.7.54-.85.69-3.4 3.11a46 46 0 0 0-.42.44l-.43.44-.42.46-.87.98-.34.4a23 23 0 0 0-.88 1.08l-.23.29-.6.8-.42.57c-.44.63-.87 1.26-1.28 1.91l-.27.44c-.35.56-.68 1.14-1 1.72l-.18.31a41 41 0 0 0-1.06 2.1l-.16.32a38.96 38.96 0 0 0-1.68 4.27l-.1.27a41.6 41.6 0 0 0-.65 2.23l-.13.55a38.7 38.7 0 0 0-.4 1.78l-.13.62a39.5 39.5 0 0 0-.35 2.22v.34Z"/><path d="m443.6 484.55-2.07-3.42 1.28-.75.56-.31c.29-.17.58-.32.88-.48l.11-.06 1.88 3.53c-.48.25-.96.52-1.43.78l-.33.2-.87.51Zm-3.24 2.17-2.34-3.24.14-.1v-.01c.34-.24.68-.48 1.02-.7l.56-.39c.29-.2.59-.39.89-.57l.02-.02.22-.14.22-.14 2.13 3.39-.22.13v.01l-.17.1-1.27.84-.1.07-.02.01-.33.23-.61.43Z"/><path fill="#f68635" d="M810.41 460.8a66.78 66.78 0 0 0-103.73-29.94c-9.97 7.55-16.62 12.45-22.37 15.96-10.53 6.44-18.05 8.2-37.33 12.94a56.8 56.8 0 0 0-28.39 16.79 57.05 57.05 0 0 0-12.16 56.6c.17.5.33 1.01.52 1.52.32.9.67 1.78 1.04 2.65.1.22.2.43.28.65.3.67.6 1.34.92 2l.29.58a52 52 0 0 0 3.7 6.4l.2.3c.32.49.66.97 1 1.44.09.1.16.22.25.33.35.48.7.95 1.06 1.41l.18.22a56.45 56.45 0 0 0 5.25 5.76l.19.18c.4.39.82.77 1.24 1.14l.37.33c.4.35.8.7 1.22 1.04l.42.34 1.26 1c.11.1.23.18.35.27a56.6 56.6 0 0 0 4.51 3.07l.26.16c.41.26.84.5 1.26.74.21.12.42.25.64.36a60 60 0 0 0 3.1 1.6l.82.39 1.16.52.87.36 1.14.47c.96.37 1.93.71 2.9 1.03l1.11.36 1.02.3a45.03 45.03 0 0 0 3.3.83l1 .22 1.26.23.91.17 1.59.23.6.08c.73.1 1.46.17 2.19.23l.72.05a70.48 70.48 0 0 0 2.39.12l1.4.03h.9a86.84 86.84 0 0 0 3.82-.18c.24-.02.49-.03.73-.06a57.02 57.02 0 0 0 19.94-5.58c27.58-13.51 29-14.41 64.37-16.13a66.76 66.76 0 0 0 60.33-89.5Z"/><path d="M660.62 574.26h-.31c-.48 0-.97-.01-1.45-.03l-.89-.02-1.6-.1-.73-.05c-.75-.07-1.51-.14-2.26-.24l-.63-.09a60.6 60.6 0 0 1-2.35-.36l-.24-.04-1.31-.25-1.02-.22-1.22-.28c-.74-.19-1.48-.38-2.22-.6l-1.04-.3a45.93 45.93 0 0 1-2.59-.86l-1.56-.57-.92-.38-.53-.22a27.3 27.3 0 0 1-1.7-.74l-.13-.06-.85-.4-1.2-.59-.77-.4a69.22 69.22 0 0 1-3.2-1.81l-.2-.13c-1.63-1-3.2-2.07-4.73-3.22l-.08-.06c-.54-.4-1.07-.82-1.6-1.25l-.07-.06-.37-.3c-.42-.35-.84-.7-1.25-1.07l-.38-.33a68.8 68.8 0 0 1-1.29-1.19l-.14-.13a59.05 59.05 0 0 1-5.49-6.02l-.15-.19-1.14-1.5-.24-.32-1.05-1.5-.22-.33-1.04-1.6-.02-.04c-.5-.8-.97-1.6-1.43-2.43l-.2-.38a44.3 44.3 0 0 1-1.13-2.16l-.3-.61c-.33-.68-.64-1.37-.94-2.06l-.3-.67a58.88 58.88 0 0 1-1.47-3.92l-.14-.41a59.11 59.11 0 0 1 41.97-75.95l1.08-.27c18.64-4.57 25.62-6.29 35.68-12.44 5.57-3.4 11.85-8 22.2-15.85a68.62 68.62 0 0 1 29.9-13.34 68.54 68.54 0 0 1 12.3-1.12 68.98 68.98 0 0 1 64.63 45.32 68.3 68.3 0 0 1-2.34 52.58 68.3 68.3 0 0 1-38.84 35.52 68.67 68.67 0 0 1-20.96 4.1c-34.48 1.66-36.06 2.44-62.5 15.4l-1.06.52-.12.05a59.13 59.13 0 0 1-20.51 5.73l-.77.06-1.59.1-.9.04-1.45.03Zm-46.74-29.89c.31.5.63.99.95 1.47l.21.31c.3.45.63.91.96 1.37l.23.3 1.04 1.38.13.17a54.67 54.67 0 0 0 5.1 5.6l.2.18c.38.37.78.73 1.18 1.1l.36.3c.38.35.78.68 1.18 1.01l.4.33 1.2.96.35.26a55.06 55.06 0 0 0 4.47 3.04l.13.09 1.22.7.62.36a54.46 54.46 0 0 0 3.79 1.92l.13.06.98.44.56.23.55.23.83.34 1.47.54c.44.16.9.31 1.34.45l1.07.35.97.28a43.43 43.43 0 0 0 3.2.82l.95.2 1.23.23.26.05a25.17 25.17 0 0 0 2.15.33l.58.09 2.1.21.7.05a59.48 59.48 0 0 0 3.66.14h.89c.45 0 .9-.02 1.34-.03l.85-.04c.5-.02.98-.06 1.48-.1l.71-.05a55.24 55.24 0 0 0 19.24-5.4l.12-.05.94-.46c26.58-13.03 28.75-14.1 64.08-15.8a64.6 64.6 0 0 0 19.77-3.86A64.34 64.34 0 0 0 806.33 511a64.34 64.34 0 0 0 2.2-49.52 64.97 64.97 0 0 0-60.88-42.68 64.95 64.95 0 0 0-39.75 13.63c-10.48 7.94-16.84 12.6-22.55 16.1-10.6 6.46-18.27 8.35-36.82 12.9l-1.07.27a54.43 54.43 0 0 0-27.39 16.2 55.1 55.1 0 0 0-11.74 54.6l.14.44c.12.34.23.69.36 1.03.3.82.62 1.66 1 2.56l.28.64c.28.64.57 1.29.88 1.92l.28.58c.34.67.68 1.34 1.04 2l.2.37c.47.83.91 1.58 1.35 2.28l.02.04Z"/><path fill="#fff" d="M801.74 470.32a43.55 43.55 0 1 1-87.1 0 43.55 43.55 0 0 1 87.1 0Z"/><path fill="#f68635" d="m726.74 473.82-36.56-115.26s-4.92-8.2-8.22-11.59a47.58 47.58 0 0 1-9.09-13.35A95.18 95.18 0 0 1 668.2 321l-6.41-20.95-6.77-22.16.04-.02a9.72 9.72 0 1 1 18.83-4.8l6.51 21.29.08-.03-8.6-28.08s.05-.02.04-.03a9.73 9.73 0 1 1 18.83-4.8l8.33 27.22.08-.02-10.4-34.02s.04-.01.03-.02a9.73 9.73 0 1 1 18.83-4.8l10.14 33.15.09-.02-8.6-28.09.05-.02a9.72 9.72 0 1 1 18.82-4.8l10.69 34.94.45.1-.85-16.92.04-.01a9.73 9.73 0 1 1 19.43-.11l2.08 40.37a27.42 27.42 0 0 1-5.23 19.86c-1.43 2.37-3.72 6.85-3.56 10.98.02.35.05.7.1 1.04h-.02l36.6 113.37a32.16 32.16 0 1 1-61.07 20.2Z"/><path d="M757.4 498.08a34.36 34.36 0 0 1-32.4-23.26 1.88 1.88 0 0 1-.17-.4l-36.5-115.03c-.75-1.25-4.99-8.12-7.81-11.02a49.95 49.95 0 0 1-9.47-13.9 98.76 98.76 0 0 1-4.77-12.88l-13.18-43.11a2.03 2.03 0 0 1-.09-.47c-.76-2.86-.4-5.89.99-8.5a11.64 11.64 0 0 1 6.92-5.7c2.9-.89 6.06-.58 8.62.68a11.76 11.76 0 0 1 16.87-11.65A11.75 11.75 0 0 1 698.1 240c4.4 0 8.3 2.39 10.31 6.13a11.63 11.63 0 0 1 10.2-5.91 11.67 11.67 0 0 1 11.45 9.28l6.48 21.16-.13-2.45c0-.15 0-.3.03-.45a11.72 11.72 0 1 1 23.45.21l2.06 40.22a29.58 29.58 0 0 1-5.56 21.15c-1.28 2.15-3.36 6.21-3.21 9.78 0 .25.03.52.07.78l36.5 113.1a34.03 34.03 0 0 1-20.22 42.85 34.09 34.09 0 0 1-12.14 2.23Zm-28.87-25.24c.06.1.11.23.15.35.16.48.32.97.5 1.44a30.34 30.34 0 0 0 28.21 19.45c3.66 0 7.26-.66 10.72-1.97a30.05 30.05 0 0 0 17.84-37.86l-36.6-113.4a13.48 13.48 0 0 1-.17-1.56c-.18-4.43 1.98-9.03 3.83-12.1l.11-.17a25.55 25.55 0 0 0 4.84-18.56l-2.07-40.37v-.91a7.73 7.73 0 0 0-15.44.81c0 .14 0 .29-.03.43l.83 16.51a2 2 0 0 1-2.49 2.04l-.4-.1a2 2 0 0 1-1.46-1.36l-10.7-34.94a7.68 7.68 0 0 0-9.88-6.02 7.67 7.67 0 0 0-4.55 3.77 7.67 7.67 0 0 0-.56 5.88 2 2 0 0 1 .08.44l8.47 27.68a2 2 0 0 1-1.39 2.51 2.09 2.09 0 0 1-2.52-1.32l-10.14-33.16a7.7 7.7 0 0 0-7.62-6.35 7.73 7.73 0 0 0-7.39 9.99c.04.13.07.26.08.4l10.29 33.64a2 2 0 0 1-1.33 2.5 2.07 2.07 0 0 1-2.57-1.3L688.84 262a7.7 7.7 0 0 0-9.88-6.01 7.74 7.74 0 0 0-5.13 9.65c.04.13.07.26.08.4l8.48 27.7a2 2 0 0 1-1.32 2.5c-.5.16-1.1.12-1.57-.13a2.04 2.04 0 0 1-1.02-1.17l-6.5-21.3-.05-.16a7.68 7.68 0 0 0-9.83-5.85 7.66 7.66 0 0 0-4.57 3.76 7.68 7.68 0 0 0-.56 5.9c.04.13.07.27.08.42l13.06 42.7a95.17 95.17 0 0 0 4.57 12.36 45.46 45.46 0 0 0 8.7 12.8c3.43 3.53 8.3 11.61 8.51 11.96.08.13.15.27.2.42Z"/><path fill="#fff" d="m647.5 704.5-201.7.1 7.2 52.9h186.34Z"/><path d="m451.26 759.5-7.75-56.89 206.33-.11-8.8 57Zm-3.17-52.9 6.66 48.9h182.87l7.54-49Z"/><g fill="#fff"><path d="M537.14 456.6c-.44.12-1.02 72.4 1.83 83a19.88 19.88 0 0 0 38.38-10.36c-2.86-10.6-39.99-72.7-40.2-72.64Z"/><path d="M537.45 456.6c-.45-.13-38.87 61.1-41.99 71.63a19.87 19.87 0 1 0 38.11 11.3c3.12-10.52 4.1-82.87 3.88-82.93Z"/></g></svg>