<svg xmlns="http://www.w3.org/2000/svg" width="1080" height="1080"><path d="M589.194 639.615c.202-.076.401-.158.604-.234-.179.068-.356.139-.534.207-.023.01-.046.017-.07.027zM580.573 643.842l-.007.004c-.141.086-.277.174-.415.263.141-.089.28-.179.422-.267z"/><path d="M138.586 212.78V827c0 21.442 17.381 38.825 38.824 38.825h406.248l-.057-.404h-66.625v-34.676c-14.503-9.44-25.082-24.349-28.868-41.745H410v-23h77.16a66.568 66.568 0 013.016-12.878c9.283-28.238 10.54-33.938 9.08-53.122H410v-23h88.174a56.786 56.786 0 0112.926-31.307 57.599 57.599 0 018.718-8.474c9.961-7.812 22.566-12.383 36.21-12.141 13.717.246 26.216 5.315 35.914 13.557 5.471-1.77 11.357-2.729 17.472-2.729h113.052c10.631 0 22.485-.261 34.131 1.643a56.805 56.805 0 0122.521-15.01 57.944 57.944 0 015.866-1.777c19.28-4.735 26.795-6.508 37.323-12.938 5.754-3.515 12.403-8.414 22.371-15.96a66.641 66.641 0 0118.189-10.036 67.18 67.18 0 0110.846-2.938c25.512-4.668 51.337 6.017 66.211 26.786V212.78H138.586zm115.702 150.639h-99.39v-10.872h99.39v10.872zm109.484 0h-72.988v-10.872h72.988v10.872zm48.144-10.871h195.055v10.872H411.916v-10.872zm-1.553 149.087h209.651v23.293H410.363v-23.293zM671 616.984l-12.729.094a68.496 68.496 0 01-2.537-9.69v9.169H410.363v-23.296H654.61a68.939 68.939 0 013.693-20.809c11.438-34.789 11.095-36.485 8.255-68.11h.002a59.072 59.072 0 01-.229-6.334 58.797 58.797 0 014.667-21.99L671 616.984zm0-180.575H410.363v-23.295H671v23.295z"/><path d="M584.039 641.905l.136-.071-.008.004c-.043.021-.085.045-.128.067zM559.581 671.396c-.033.13-.056.261-.087.39.048-.191.092-.383.142-.572-.016.062-.038.121-.055.182zM573.516 649.043l.53-.465-.014.012c-.175.148-.344.303-.516.453zM576.3 646.76c.295-.225.592-.444.893-.664-.003.002-.007.006-.013.008-.296.214-.589.435-.88.656zM568.902 653.701l-.002.004c.296-.346.602-.684.907-1.021h-.002c-.305.337-.607.673-.903 1.017zM563.646 661.248a43.11 43.11 0 011.056-1.803c.095-.152.188-.304.282-.451l.052-.077c-.015.022-.031.043-.045.065-.103.157-.199.319-.299.479-.355.576-.697 1.16-1.025 1.75-.07.127-.146.252-.215.379a45.74 45.74 0 00-1.099 2.164c-.014.03-.026.062-.041.091.013-.025.023-.052.035-.077.352-.741.723-1.473 1.113-2.19.061-.113.124-.221.186-.33zM560.418 668.59c.225-.68.469-1.352.729-2.016.025-.065.052-.129.078-.194-.027.069-.057.138-.084.208a41.755 41.755 0 00-.717 1.984c-.033.102-.072.201-.105.303a43.638 43.638 0 00.002-.004c.029-.094.064-.187.097-.281zM558.229 681.218a46.829 46.829 0 00-.017 1.679v.01c-.007-.568.002-1.13.017-1.689zM908.433 707.349a66.592 66.592 0 01-20.357 3.97c-35.373 1.715-36.786 2.612-64.361 16.129l-.002-.004a57.06 57.06 0 01-5.638 2.397 57.356 57.356 0 01-12.03 2.937l-20.726 133.049H901.1c21.443 0 38.824-17.383 38.824-38.825v-143.53a66.465 66.465 0 01-31.491 23.877zM559.494 671.786a44.388 44.388 0 00-.42 1.869c-.044.223-.092.442-.133.668a46.108 46.108 0 00.002-.002c.039-.222.085-.439.131-.66a43.29 43.29 0 01.42-1.875zM558.232 680.812v.007a45.422 45.422 0 010-.007zM558.689 689.004a62.407 62.407 0 01-.226-1.847 45.278 45.278 0 01.226 1.847zM579.509 836.194l.116.827-20.12-143.696 18.864 134.737z"/><path fill="#F68635" d="M899.539 163.276H178.952c-21.441 0-38.824 17.382-38.824 38.824v12.424h798.235V202.1c0-21.442-17.381-38.824-38.824-38.824z"/><path d="M940.363 216.524H138.128V202.1c0-22.511 18.313-40.824 40.824-40.824h720.587c22.511 0 40.824 18.313 40.824 40.824v14.424zm-798.235-4h794.235V202.1c0-20.305-16.521-36.824-36.824-36.824H178.952c-20.305 0-36.824 16.519-36.824 36.824v10.424z"/><path fill="#F68635" d="M269.018 336.318h4v488.758h-4zM380.844 336.318h4v488.758h-4z"/><g><path fill="#FFF" d="M140.935 378.963h795.487v4H140.935zM140.935 468.255H938v4H140.935zM140.935 557.547H938v4H140.935zM140.935 642.963H704v4H140.935zM140.935 732.255H499v4H140.935zM140.935 821.547h416.042v4H140.935zM735.468 732.255H937v4H735.468zM742.968 821.547H938v4H742.968zM142.088 333.542H937v4H142.088z"/></g><g><circle fill="#FFF" cx="174.007" cy="189.792" r="12.812"/></g><g><circle cx="210.112" cy="189.792" r="12.811"/></g><g><circle fill="#FFF" cx="246.217" cy="189.792" r="12.812"/></g><g><path fill="#F68635" d="M337.479 302.133l-43.452-25.585v-6.624l43.428-26.967 7.132 11.263-30.682 18.544 30.692 18.129-7.118 11.24zm-39.452-27.872l38.146 22.46 2.839-4.481-32.905-19.437 32.916-19.894-2.825-4.462-38.17 23.702-.001 2.112zM375.088 304.397c-7.084 0-12.536-2.059-16.205-6.119-3.617-3.999-5.451-10.284-5.451-18.681v-10.493h-8.648v-13.609h8.648v-9.469l15.357-4.37v13.839h22.887v13.609h-22.887v10.493c0 3.98.694 6.825 2.062 8.454 1.301 1.548 3.115 2.3 5.547 2.3 1.375 0 2.623-.164 3.712-.485 1.124-.332 2.143-.756 3.029-1.262a17.629 17.629 0 002.507-1.725c.845-.698 1.614-1.336 2.312-1.918l1.71-1.425 7.312 10.97-.979 1.149c-1.109 1.306-2.506 2.507-4.149 3.572a33.404 33.404 0 01-5.112 2.697 32.436 32.436 0 01-5.725 1.815 27.79 27.79 0 01-5.927.658zm-26.305-39.293h8.648v14.493c0 7.374 1.486 12.757 4.419 15.998 2.92 3.231 7.249 4.802 13.237 4.802 1.65 0 3.357-.19 5.075-.565a28.427 28.427 0 005.018-1.591 29.386 29.386 0 004.501-2.372 16.414 16.414 0 002.246-1.733l-3.12-4.68-.611.505a21.68 21.68 0 01-3.074 2.117 18.225 18.225 0 01-3.879 1.623c-1.454.431-3.085.649-4.845.649-3.634 0-6.53-1.254-8.609-3.727-2.019-2.403-3-6.01-3-11.027v-14.493h22.887v-5.609h-22.887v-12.542l-7.357 2.093v10.449h-8.648l-.001 5.61zM416.757 303.874c-4.837 0-8.768-1.352-11.684-4.018-2.966-2.711-4.47-6.323-4.47-10.736 0-2.75.523-5.184 1.56-7.234 1.051-2.08 2.593-3.806 4.584-5.132 1.897-1.263 4.193-2.21 6.823-2.817 2.539-.585 5.391-.881 8.476-.881 1.102 0 2.277.062 3.499.185.648.065 1.395.132 2.229.198v-1.266c0-2.323-.84-2.958-1.114-3.166-.896-.677-2.429-1.036-4.433-1.036-2.729 0-5.208.35-7.371 1.04-2.278.729-4.213 1.462-5.746 2.178l-2.094.978-3.863-12.803 1.601-.721c2.424-1.091 5.258-2.042 8.422-2.825 3.203-.793 7.023-1.195 11.356-1.195 3.231 0 6.051.404 8.379 1.2 2.42.83 4.418 2.04 5.938 3.596 1.524 1.558 2.642 3.444 3.317 5.604.64 2.05.964 4.367.964 6.888 0 3.031-.105 5.653-.314 7.793-.195 2.02-.296 3.835-.296 5.398 0 1.158.057 2.466.164 3.891.027.193.053.384.076.573h5.874v13.609H430.32l-.751-3.884a19.256 19.256 0 01-3.087 2.324c-2.454 1.499-5.725 2.259-9.725 2.259zm5.289-26.819c-2.783 0-5.333.262-7.577.779-2.158.498-4.011 1.254-5.506 2.249-1.428.951-2.484 2.13-3.229 3.605-.75 1.486-1.131 3.313-1.131 5.432 0 3.289 1.036 5.835 3.17 7.784 2.186 1.999 5.125 2.97 8.983 2.97 3.253 0 5.822-.562 7.638-1.672 1.871-1.145 3.32-2.506 4.309-4.046l.59-.921h3.179l1.148 5.94h11.013v-5.609h-5.524l-.146-1.843a37.303 37.303 0 00-.249-2.238l-.014-.123a55.877 55.877 0 01-.182-4.26c0-1.691.106-3.638.315-5.786.195-2.012.295-4.503.295-7.406 0-2.117-.263-4.033-.781-5.694-.493-1.572-1.266-2.882-2.359-4.002-1.08-1.106-2.552-1.983-4.373-2.607-1.909-.653-4.292-.984-7.083-.984-4.009 0-7.507.363-10.396 1.078-2.244.556-4.298 1.197-6.126 1.913l1.522 5.044a65.07 65.07 0 014.105-1.457c2.56-.816 5.447-1.229 8.589-1.229 2.964 0 5.201.604 6.845 1.845 1.793 1.356 2.701 3.495 2.701 6.356v1.66c0 .698-.069 1.414-.209 2.129l-.339 1.735-1.763-.122a140.46 140.46 0 01-4.318-.355 30.965 30.965 0 00-3.097-.165zm-1.603 17.471c-2.749 0-4.74-.624-6.088-1.906-1.356-1.287-2.047-3.054-2.047-5.248 0-1.424.395-2.677 1.172-3.725.701-.948 1.637-1.721 2.774-2.297 1.023-.519 2.192-.903 3.473-1.143 2.617-.487 5.316-.395 7.615-.105 1.183.149 2.104.289 2.735.416l1.605.323v7.389l-.242.447c-.772 1.42-1.982 2.742-3.595 3.929-1.747 1.292-4.169 1.92-7.402 1.92zm2.936-10.657c-.964 0-1.945.092-2.918.272-.905.169-1.713.431-2.396.778-.59.298-1.036.661-1.37 1.111-.259.348-.385.788-.385 1.342 0 1.068.264 1.836.804 2.348.546.521 1.729.806 3.331.806 2.28 0 4.021-.394 5.03-1.139.969-.713 1.709-1.457 2.211-2.217v-2.988a63.055 63.055 0 00-.842-.111 28.038 28.038 0 00-3.465-.202zM474.238 304.223c-4.743 0-8.797-.565-12.051-1.681-3.229-1.107-5.69-2.199-7.525-3.338l-.945-.587v-46.985h-6.726v-13.609h22.081v19.039a16.932 16.932 0 012.554-1.253c2.292-.904 5.11-1.363 8.378-1.363 6.302 0 11.446 2.029 15.288 6.031 3.819 3.983 5.755 9.945 5.755 17.721 0 4.132-.634 7.858-1.884 11.077-1.271 3.269-3.097 6.042-5.428 8.243-2.324 2.198-5.185 3.888-8.498 5.024-3.253 1.116-6.953 1.681-10.999 1.681zm-16.521-7.873c1.478.792 3.41 1.6 5.77 2.408 2.835.972 6.451 1.465 10.753 1.465 3.604 0 6.866-.493 9.702-1.465 2.77-.949 5.141-2.344 7.048-4.147 1.896-1.791 3.393-4.073 4.446-6.784 1.069-2.754 1.611-5.994 1.611-9.628 0-6.709-1.562-11.739-4.641-14.951-3.103-3.23-7.158-4.801-12.402-4.801-2.763 0-5.088.365-6.91 1.084-1.761.694-3.161 1.627-4.164 2.775l-.598.684h-3.26v-20.966h-14.081v5.609h6.726v48.717zm18.441-1.736c-2.045 0-3.994-.262-5.792-.777-1.766-.502-3.136-1.003-4.189-1.531l-1.104-.553V272l.114-.325a9.119 9.119 0 012.177-3.407 14.344 14.344 0 012.943-2.282 14.902 14.902 0 013.275-1.411c1.174-.345 2.274-.52 3.274-.52 4.034 0 7.179 1.296 9.345 3.853 2.083 2.46 3.14 6.04 3.14 10.641 0 2.646-.329 4.975-.978 6.922-.663 1.989-1.604 3.689-2.794 5.052-1.223 1.397-2.683 2.445-4.338 3.114a13.415 13.415 0 01-5.073.977zm-7.086-5.406c.669.257 1.47.519 2.394.782 1.442.414 3.021.624 4.692.624 1.252 0 2.454-.23 3.572-.684 1.088-.439 2.013-1.106 2.827-2.04.841-.96 1.518-2.2 2.012-3.683.513-1.539.771-3.442.771-5.658 0-3.627-.737-6.338-2.192-8.055-1.389-1.64-3.446-2.437-6.291-2.437-.619 0-1.341.12-2.146.356-.836.247-1.644.595-2.397 1.033-.745.433-1.459.988-2.123 1.652a5.137 5.137 0 00-1.119 1.624v16.486zM533.814 304.397c-6.008 0-10.633-1.613-13.746-4.794-3.104-3.167-4.679-7.635-4.679-13.28v-34.69h-7.25v-13.609h22.607v42.36c0 5.08.733 7.305 1.349 8.277.46.726 1.337 1.69 3.641 1.69 1.588 0 2.878-.158 3.836-.47a15.086 15.086 0 003.086-1.43l1.788-1.071 6.162 11.32-1.556 1.008a55.74 55.74 0 01-3.082 1.858 21.195 21.195 0 01-3.474 1.544 23.452 23.452 0 01-3.967.958c-1.409.219-2.995.329-4.715.329zm-21.673-56.764h7.25v38.69c0 4.626 1.156 8.054 3.536 10.48 2.334 2.384 5.997 3.593 10.89 3.593 1.515 0 2.895-.095 4.103-.282a19.502 19.502 0 003.288-.791 17.068 17.068 0 002.812-1.25c.431-.24.859-.489 1.289-.746l-2.432-4.465c-.689.325-1.382.599-2.068.822-1.375.448-3.034.666-5.071.666-3.942 0-5.993-1.931-7.02-3.55-1.325-2.094-1.97-5.501-1.97-10.417v-38.36h-14.607v5.61zM583.084 304.397c-3.941 0-7.533-.568-10.675-1.689-3.2-1.14-5.96-2.837-8.201-5.045-2.236-2.203-3.965-4.882-5.14-7.963-1.158-3.036-1.746-6.523-1.746-10.365 0-4.096.671-7.753 1.992-10.871 1.334-3.142 3.191-5.803 5.523-7.909 2.319-2.098 5.068-3.692 8.172-4.736 3.045-1.026 6.375-1.546 9.897-1.546 2.359 0 4.829.313 7.337.932a20.802 20.802 0 017.197 3.333c2.222 1.6 4.056 3.759 5.45 6.416 1.399 2.669 2.108 6.038 2.108 10.014 0 2.611-.307 5.477-.912 8.516l-.321 1.609h-30.833c.153.647.374 1.225.66 1.728a7.28 7.28 0 002.271 2.481c.99.678 2.15 1.183 3.456 1.502 1.378.338 2.878.51 4.46.51 3.244 0 5.908-.371 7.92-1.102 2.018-.734 3.654-1.618 4.863-2.627l1.931-1.611 5.573 11.017-1.11 1.025c-.867.801-1.979 1.584-3.303 2.328-1.292.723-2.802 1.4-4.489 2.014-1.702.619-3.591 1.119-5.613 1.486-2.024.366-4.199.553-6.467.553zm-.176-46.125c-3.087 0-5.987.45-8.621 1.337-2.579.868-4.855 2.184-6.766 3.912-1.898 1.715-3.42 3.903-4.524 6.504-1.111 2.621-1.675 5.753-1.675 9.309 0 3.353.499 6.36 1.482 8.939.971 2.542 2.387 4.742 4.209 6.539 1.823 1.795 4.09 3.184 6.737 4.126 2.711.967 5.851 1.457 9.332 1.457 2.026 0 3.963-.166 5.755-.492 1.803-.327 3.473-.768 4.962-1.309 1.486-.541 2.798-1.127 3.899-1.744.508-.285.97-.571 1.384-.858l-1.979-3.912c-1.18.708-2.528 1.339-4.034 1.887-2.45.892-5.575 1.343-9.287 1.343-1.903 0-3.726-.21-5.413-.625-1.773-.435-3.375-1.136-4.759-2.084a11.347 11.347 0 01-3.493-3.807c-.887-1.559-1.371-3.458-1.438-5.643l-.062-2.062h31.844c.36-2.18.542-4.234.542-6.125 0-3.323-.556-6.066-1.65-8.156-1.104-2.101-2.531-3.793-4.246-5.027a16.836 16.836 0 00-5.818-2.695c-2.197-.539-4.343-.814-6.381-.814zm11.523 18.521h-25.652l.169-2.156c.14-1.78.642-3.416 1.492-4.863a12.01 12.01 0 013.196-3.573 13.957 13.957 0 014.228-2.13 16.437 16.437 0 014.872-.714c3.815 0 6.759 1.064 8.747 3.162 1.957 2.07 2.948 4.853 2.948 8.273v2.001zm-21.024-4h16.858c-.258-1.437-.815-2.6-1.689-3.524-1.201-1.268-3.167-1.912-5.842-1.912-1.303 0-2.543.18-3.688.535a9.93 9.93 0 00-3.021 1.519 7.94 7.94 0 00-2.139 2.393 6.727 6.727 0 00-.479.989zM614.841 302.132l-7.122-11.239 30.693-18.129-30.682-18.544 7.135-11.263 43.424 26.967v6.624l-43.448 25.584zm-1.534-9.894l2.842 4.483 38.142-22.46v-2.113l-38.166-23.702-2.828 4.463 32.916 19.894-32.906 19.435z"/></g><g><path fill="#FFF" d="M343.697 452.162l-13.933-10.978-7.214 16.205-3.615-17.366-15.943 7.779 8.392-15.628-17.214-4.288 16.474-6.578-10.427-14.35 16.847 5.551 1.235-17.697 9.338 15.083 12.322-12.762-2.541 17.556 17.64-1.857-13.232 11.814 14.709 9.919-17.73.545z"/></g><g><circle fill="#FFF" cx="311.958" cy="513.737" r="18.635"/><circle fill="#FFF" cx="338.746" cy="513.737" r="18.635"/></g><g><path fill="#FFF" d="M299.148 588.278h52.409v30.279h-52.409z"/></g><g><path fill="#FFF" d="M216.609 288.665c.429-4.056.855-8.112 1.281-12.17.009-.091.002-.184.002-.436-1.068.506-2.042.929-2.981 1.417-6.565 3.412-13.509 5.769-20.707 7.405-3.564.81-7.155 1.456-10.832 1.488-2.081.016-3.835-.542-5.409-2.029a219.622 219.622 0 01-12.329-12.615c-1.141-1.265-2.268-2.542-3.485-3.909.34-.147.587-.25.83-.36 1.102-.5 2.636-1.29 3.724-1.818l19.116 6.143c.641.212 1.146.154 1.741-.131 11.587-5.563 23.181-11.108 34.773-16.657 8.79-4.209 17.573-8.432 26.371-12.622 3.294-1.568 6.82-1.92 10.417-1.762 2.123.093 4.192.453 6.158 1.311 1.274.556 2.322 1.35 2.975 2.622.927 1.802.442 3.46-.497 5.059-1.488 2.537-3.668 4.338-6.279 5.601-6.767 3.272-13.556 6.501-20.344 9.732-.461.218-.735.496-.913.988-4.645 12.969-9.306 25.931-13.965 38.895-.562 1.562-1.084 3.139-1.702 4.679-.403 1.004-1.088 1.823-2.104 2.303l-8.708 4.062 2.867-27.196z"/><path fill="#FFF" d="M192.215 243.661c1.286-.668 2.688-.684 3.934-.273l23.024 7.877c-1.396.66-2.651 1.259-3.91 1.851-4.096 1.923-8.198 3.836-12.284 5.777-.575.273-.997.25-1.546-.107l-16.994-11.163 7.776-3.962z"/></g><g fill="#FFF"><path d="M166.11 431.95h4.277v-12.216l-3.689 2.822-1.677-2.235 6.373-4.864h2.46v16.493h4.193v3.075H166.11v-3.075zM186.544 432.202a6.11 6.11 0 001.705-.225 4.19 4.19 0 001.355-.643 2.97 2.97 0 00.895-1.034c.215-.41.322-.876.322-1.397 0-1.024-.405-1.831-1.217-2.418-.811-.587-2.026-.88-3.647-.88a21.85 21.85 0 00-1.482.056c-.279.019-.569.028-.867.028v-10.231h10.12v3.41h-6.989v3.773c.149 0 .298-.009.447-.027.131 0 .256-.004.378-.015a4.41 4.41 0 01.321-.014c.932 0 1.798.135 2.6.405.801.271 1.5.676 2.097 1.216a5.514 5.514 0 011.384 1.971c.325.773.489 1.626.489 2.559 0 1.1-.205 2.063-.615 2.893a6.013 6.013 0 01-1.677 2.083 7.512 7.512 0 01-2.46 1.272c-.933.289-1.93.433-2.991.433-.41 0-.849-.042-1.314-.125a16.006 16.006 0 01-1.369-.308 12.455 12.455 0 01-2.209-.824l1.175-2.907c.316.188.806.392 1.467.615a6.496 6.496 0 002.082.334zM202.813 423.061c0-.651.205-1.169.615-1.551.409-.382.95-.572 1.621-.572.708 0 1.267.19 1.677.572.41.382.615.899.615 1.551 0 .653-.205 1.175-.615 1.565-.41.392-.969.587-1.677.587-.671 0-1.212-.196-1.621-.587-.409-.391-.615-.913-.615-1.565zm0 10.119c0-.651.205-1.169.615-1.552.409-.382.95-.573 1.621-.573.708 0 1.267.191 1.677.573.41.382.615.899.615 1.552s-.205 1.174-.615 1.565c-.41.391-.969.587-1.677.587-.671 0-1.212-.196-1.621-.587-.409-.391-.615-.912-.615-1.565zM220.396 432.341c.615 0 1.179-.079 1.691-.235.512-.158.95-.381 1.313-.668.363-.287.647-.621.853-1.003.205-.38.308-.792.308-1.237 0-.557-.116-1.024-.35-1.405a2.514 2.514 0 00-.964-.904c-.41-.223-.904-.38-1.482-.473a11.904 11.904 0 00-1.872-.139h-1.565v-2.007l4.696-5.736h-7.072v-3.075h11.404v2.543l-4.92 5.619h.644c.652 0 1.286.112 1.9.335.615.224 1.16.559 1.636 1.006.475.447.856 1.006 1.146 1.677.29.671.434 1.444.434 2.32 0 1.062-.219 1.994-.657 2.795s-1.016 1.478-1.732 2.026c-.718.55-1.543.96-2.475 1.229a10.26 10.26 0 01-2.879.405c-.839 0-1.677-.074-2.516-.224s-1.649-.382-2.432-.699l.978-3.02c.168.095.396.188.686.28.288.093.614.188.979.279.363.094.735.168 1.118.224.379.058.756.087 1.13.087zM231.298 425.213c0-1.696.177-3.182.532-4.459.355-1.276.856-2.334 1.502-3.172.646-.839 1.417-1.468 2.315-1.887.897-.419 1.898-.629 3.002-.629 2.356 0 4.172.824 5.443 2.474 1.272 1.649 1.908 4.207 1.908 7.673 0 1.714-.178 3.21-.533 4.486-.355 1.276-.855 2.339-1.501 3.187-.646.85-1.422 1.482-2.329 1.901-.907.419-1.913.629-3.017.629-2.376 0-4.19-.871-5.443-2.613-1.253-1.743-1.879-4.273-1.879-7.59zm3.634 0a20.127 20.127 0 00.056 1.566l6.765-6.234c-.555-1.603-1.599-2.404-3.133-2.404-1.183 0-2.094.573-2.731 1.72-.639 1.145-.957 2.93-.957 5.352zm7.435 0a22.26 22.26 0 00-.056-1.649l-6.793 6.232c.573 1.696 1.617 2.544 3.133 2.544 1.183 0 2.098-.567 2.745-1.705.647-1.136.971-2.943.971-5.422z"/></g><g fill="#FFF"><path d="M166.11 518.137h4.277v-12.216l-3.689 2.823-1.677-2.236 6.373-4.864h2.46v16.493h4.193v3.075H166.11v-3.075zM186.544 518.389a6.11 6.11 0 001.705-.224 4.213 4.213 0 001.355-.644c.382-.278.681-.623.895-1.033.215-.41.322-.876.322-1.398 0-1.023-.405-1.831-1.217-2.418-.811-.587-2.026-.88-3.647-.88a21.85 21.85 0 00-1.482.056c-.279.02-.569.028-.867.028v-10.231h10.12v3.41h-6.989v3.774c.149 0 .298-.009.447-.028.131 0 .256-.004.378-.014.121-.009.228-.015.321-.015.932 0 1.798.136 2.6.405.801.271 1.5.676 2.097 1.216a5.51 5.51 0 011.384 1.972c.325.772.489 1.626.489 2.558 0 1.1-.205 2.064-.615 2.894a6.019 6.019 0 01-1.677 2.082 7.512 7.512 0 01-2.46 1.272c-.933.289-1.93.433-2.991.433-.41 0-.849-.042-1.314-.125a16.006 16.006 0 01-1.369-.308 12.202 12.202 0 01-1.244-.405 11.569 11.569 0 01-.965-.419l1.175-2.907c.316.188.806.393 1.467.615s1.355.334 2.082.334zM202.813 509.248c0-.652.205-1.169.615-1.551.409-.382.95-.573 1.621-.573.708 0 1.267.191 1.677.573.41.382.615.898.615 1.551 0 .653-.205 1.174-.615 1.564-.41.393-.969.588-1.677.588-.671 0-1.212-.196-1.621-.588-.409-.39-.615-.912-.615-1.564zm0 10.119c0-.652.205-1.169.615-1.552.409-.383.95-.573 1.621-.573.708 0 1.267.19 1.677.573.41.382.615.898.615 1.552 0 .652-.205 1.174-.615 1.564-.41.392-.969.587-1.677.587-.671 0-1.212-.195-1.621-.587-.409-.39-.615-.911-.615-1.564zM220.088 518.389a6.11 6.11 0 001.705-.224 4.213 4.213 0 001.355-.644c.382-.278.681-.623.895-1.033.215-.41.322-.876.322-1.398 0-1.023-.405-1.831-1.217-2.418-.811-.587-2.026-.88-3.647-.88a21.85 21.85 0 00-1.482.056c-.279.02-.569.028-.867.028v-10.231h10.12v3.41h-6.989v3.774c.149 0 .298-.009.447-.028.131 0 .256-.004.378-.014.121-.009.228-.015.321-.015.932 0 1.798.136 2.6.405.801.271 1.5.676 2.097 1.216a5.51 5.51 0 011.384 1.972c.325.772.489 1.626.489 2.558 0 1.1-.205 2.064-.615 2.894a6.019 6.019 0 01-1.677 2.082 7.512 7.512 0 01-2.46 1.272c-.933.289-1.93.433-2.991.433-.41 0-.849-.042-1.314-.125a16.006 16.006 0 01-1.369-.308 12.202 12.202 0 01-1.244-.405 11.569 11.569 0 01-.965-.419l1.175-2.907c.316.188.806.393 1.467.615a6.496 6.496 0 002.082.334zM231.298 511.4c0-1.696.177-3.183.532-4.459s.856-2.334 1.502-3.173 1.417-1.468 2.315-1.887c.897-.419 1.898-.629 3.002-.629 2.356 0 4.172.825 5.443 2.474 1.272 1.649 1.908 4.207 1.908 7.674 0 1.714-.178 3.21-.533 4.485-.355 1.277-.855 2.339-1.501 3.188s-1.422 1.481-2.329 1.9c-.907.419-1.913.63-3.017.63-2.376 0-4.19-.871-5.443-2.613-1.253-1.743-1.879-4.273-1.879-7.59zm3.634 0a20.161 20.161 0 00.056 1.565l6.765-6.234c-.555-1.603-1.599-2.403-3.133-2.403-1.183 0-2.094.573-2.731 1.719-.639 1.146-.957 2.931-.957 5.353zm7.435 0a22.385 22.385 0 00-.056-1.65l-6.793 6.233c.573 1.695 1.617 2.544 3.133 2.544 1.183 0 2.098-.568 2.745-1.705.647-1.136.971-2.943.971-5.422z"/></g><g fill="#FFF"><path d="M166.11 605.486h4.277V593.27l-3.689 2.823-1.677-2.235 6.373-4.863h2.46v16.492h4.193v3.074H166.11v-3.075zM195.182 602.495c0 .914-.173 1.762-.518 2.544a6.402 6.402 0 01-1.411 2.041 6.598 6.598 0 01-2.139 1.37 7.059 7.059 0 01-2.67.503 7.92 7.92 0 01-2.725-.462 6.194 6.194 0 01-2.223-1.383c-.634-.615-1.137-1.39-1.51-2.32-.373-.931-.559-2.013-.559-3.243 0-1.845.321-3.521.964-5.031.644-1.51 1.468-2.817 2.475-3.928a12.908 12.908 0 013.382-2.684c1.248-.681 2.488-1.113 3.718-1.301l.811 2.88a10.86 10.86 0 00-2.768.908 10.16 10.16 0 00-2.292 1.523 9.209 9.209 0 00-1.691 1.984 6.974 6.974 0 00-.936 2.265c.372-.466.932-.862 1.677-1.188.745-.326 1.565-.489 2.46-.489.839 0 1.621.136 2.348.405a5.389 5.389 0 011.888 1.174c.53.514.95 1.143 1.258 1.888s.461 1.594.461 2.544zm-3.523.141c0-1.007-.303-1.771-.908-2.293-.605-.521-1.421-.782-2.446-.782-.745 0-1.416.168-2.013.504s-1.034.727-1.313 1.174a4.869 4.869 0 00-.07.686 17.89 17.89 0 00-.014.602c0 .446.074.876.224 1.285.15.41.368.77.657 1.076.288.309.638.55 1.048.728.41.178.885.266 1.426.266a3.47 3.47 0 001.258-.237c.41-.157.773-.378 1.091-.656.316-.279.572-.619.769-1.021.194-.406.291-.848.291-1.332zM202.813 596.598c0-.651.205-1.17.615-1.552.409-.382.95-.573 1.621-.573.708 0 1.267.191 1.677.573.41.382.615.899.615 1.552s-.205 1.175-.615 1.565c-.41.391-.969.587-1.677.587-.671 0-1.212-.196-1.621-.587-.409-.392-.615-.913-.615-1.565zm0 10.119c0-.651.205-1.17.615-1.552.409-.382.95-.573 1.621-.573.708 0 1.267.191 1.677.573.41.382.615.899.615 1.552s-.205 1.174-.615 1.565c-.41.391-.969.587-1.677.587-.671 0-1.212-.196-1.621-.587-.409-.391-.615-.913-.615-1.565zM216.426 605.486h4.277V593.27l-3.69 2.823-1.677-2.235 6.373-4.863h2.46v16.492h4.193v3.074h-11.937l.001-3.075zM231.298 598.75c0-1.695.177-3.182.532-4.459.355-1.276.856-2.334 1.502-3.173.646-.838 1.417-1.468 2.315-1.887.897-.419 1.898-.63 3.002-.63 2.356 0 4.172.824 5.443 2.475 1.272 1.648 1.908 4.207 1.908 7.674 0 1.715-.178 3.21-.533 4.486-.355 1.275-.855 2.339-1.501 3.187-.646.85-1.422 1.481-2.329 1.901-.907.419-1.913.629-3.017.629-2.376 0-4.19-.871-5.443-2.614-1.253-1.742-1.879-4.272-1.879-7.589zm3.634 0a20.213 20.213 0 00.056 1.567l6.765-6.234c-.555-1.604-1.599-2.403-3.133-2.403-1.183 0-2.094.573-2.731 1.72-.639 1.143-.957 2.927-.957 5.35zm7.435 0a22.442 22.442 0 00-.056-1.651l-6.793 6.233c.573 1.696 1.617 2.544 3.133 2.544 1.183 0 2.098-.568 2.745-1.705s.971-2.942.971-5.421z"/></g><g fill="#FFF"><path d="M166.11 697.95h4.277v-12.216l-3.689 2.822-1.677-2.235 6.373-4.864h2.46v16.493h4.193v3.075H166.11v-3.075zM195.182 694.959c0 .913-.173 1.762-.518 2.544a6.409 6.409 0 01-1.411 2.04 6.582 6.582 0 01-2.139 1.37 7.059 7.059 0 01-2.67.503 7.92 7.92 0 01-2.725-.461 6.196 6.196 0 01-2.223-1.384c-.634-.614-1.137-1.389-1.51-2.32-.373-.932-.559-2.013-.559-3.243 0-1.844.321-3.521.964-5.031.644-1.51 1.468-2.817 2.475-3.928a12.949 12.949 0 013.382-2.684c1.248-.681 2.488-1.113 3.718-1.299l.811 2.879a10.86 10.86 0 00-2.768.908c-.857.42-1.621.928-2.292 1.522a9.233 9.233 0 00-1.691 1.984 6.992 6.992 0 00-.936 2.265c.372-.466.932-.862 1.677-1.188s1.565-.488 2.46-.488c.839 0 1.621.135 2.348.405a5.389 5.389 0 011.888 1.174c.53.513.95 1.142 1.258 1.887s.461 1.594.461 2.545zm-3.523.14c0-1.007-.303-1.771-.908-2.292-.605-.521-1.421-.782-2.446-.782-.745 0-1.416.168-2.013.504-.597.335-1.034.727-1.313 1.174a4.854 4.854 0 00-.07.685c-.009.252-.014.452-.014.602 0 .447.074.877.224 1.287.15.409.368.768.657 1.075.288.308.638.55 1.048.728.41.177.885.266 1.426.266a3.623 3.623 0 002.349-.893c.316-.279.572-.619.769-1.021.194-.407.291-.848.291-1.333zM202.813 689.061c0-.651.205-1.169.615-1.551.409-.383.95-.574 1.621-.574.708 0 1.267.191 1.677.574.41.382.615.898.615 1.551 0 .653-.205 1.175-.615 1.565-.41.391-.969.587-1.677.587-.671 0-1.212-.195-1.621-.587-.409-.392-.615-.913-.615-1.565zm0 10.119c0-.651.205-1.169.615-1.551.409-.383.95-.573 1.621-.573.708 0 1.267.19 1.677.573.41.382.615.898.615 1.551 0 .653-.205 1.174-.615 1.566-.41.391-.969.586-1.677.586-.671 0-1.212-.195-1.621-.586-.409-.392-.615-.914-.615-1.566zM216.426 697.95h4.277v-12.216l-3.69 2.822-1.677-2.235 6.373-4.864h2.46v16.493h4.193v3.075h-11.937l.001-3.075zM236.86 698.201c.615 0 1.184-.074 1.705-.224a4.171 4.171 0 001.355-.644 2.97 2.97 0 00.895-1.034c.215-.41.322-.876.322-1.397 0-1.023-.405-1.83-1.217-2.418-.811-.586-2.026-.881-3.647-.881-.205 0-.443.006-.713.016-.271.009-.526.022-.769.041-.279.02-.569.027-.867.027v-10.23h10.12v3.41h-6.989v3.773c.149 0 .298-.009.447-.027.131 0 .256-.004.378-.015.121-.01.228-.014.321-.014.932 0 1.798.135 2.6.404.801.271 1.5.676 2.097 1.217a5.514 5.514 0 011.384 1.971c.325.773.489 1.626.489 2.559 0 1.1-.205 2.062-.615 2.894a6.01 6.01 0 01-1.677 2.082 7.529 7.529 0 01-2.46 1.271c-.933.289-1.93.435-2.991.435-.41 0-.849-.041-1.314-.125a16.011 16.011 0 01-1.369-.31c-.447-.12-.862-.256-1.244-.403a11.54 11.54 0 01-.965-.42l1.175-2.907c.316.187.806.392 1.467.615a6.473 6.473 0 002.082.334z"/></g><g fill="#FFF"><path d="M166.11 784.137h4.277v-12.215l-3.689 2.822-1.677-2.236 6.373-4.863h2.46v16.492h4.193v3.075H166.11v-3.075zM195.182 781.146c0 .911-.173 1.761-.518 2.543a6.424 6.424 0 01-1.411 2.041 6.594 6.594 0 01-2.139 1.368 7.021 7.021 0 01-2.67.505 7.943 7.943 0 01-2.725-.461 6.201 6.201 0 01-2.223-1.386c-.634-.614-1.137-1.388-1.51-2.319-.373-.933-.559-2.013-.559-3.242 0-1.846.321-3.521.964-5.031.644-1.51 1.468-2.818 2.475-3.928a12.912 12.912 0 013.382-2.685c1.248-.68 2.488-1.112 3.718-1.3l.811 2.88a10.86 10.86 0 00-2.768.908c-.857.419-1.621.927-2.292 1.523a9.228 9.228 0 00-1.691 1.983 6.992 6.992 0 00-.936 2.265c.372-.466.932-.861 1.677-1.188s1.565-.489 2.46-.489c.839 0 1.621.137 2.348.405a5.403 5.403 0 011.888 1.174 5.56 5.56 0 011.258 1.888c.307.748.461 1.595.461 2.546zm-3.523.139c0-1.006-.303-1.771-.908-2.291-.605-.521-1.421-.783-2.446-.783-.745 0-1.416.168-2.013.503s-1.034.729-1.313 1.175a4.854 4.854 0 00-.07.685c-.009.252-.014.453-.014.602 0 .447.074.877.224 1.286.149.41.368.769.657 1.076.288.308.638.55 1.048.727.41.178.885.267 1.426.267a3.47 3.47 0 001.258-.237c.41-.158.773-.377 1.091-.657.316-.278.572-.619.769-1.021a3.03 3.03 0 00.291-1.332zM202.813 775.248c0-.652.205-1.17.615-1.552.409-.382.95-.573 1.621-.573.708 0 1.267.191 1.677.573.41.382.615.898.615 1.552s-.205 1.174-.615 1.564c-.41.393-.969.588-1.677.588-.671 0-1.212-.195-1.621-.588-.409-.39-.615-.912-.615-1.564zm0 10.119c0-.652.205-1.17.615-1.552.409-.383.95-.573 1.621-.573.708 0 1.267.19 1.677.573.41.382.615.898.615 1.552 0 .652-.205 1.174-.615 1.564-.41.392-.969.587-1.677.587-.671 0-1.212-.194-1.621-.587-.409-.39-.615-.911-.615-1.564zM228.083 787.212h-12.468V784.5c.224-.186.503-.434.839-.74.335-.308.713-.656 1.132-1.049.419-.391.862-.819 1.328-1.285s.922-.951 1.369-1.454a62.086 62.086 0 001.664-1.929c.475-.577.866-1.123 1.174-1.635a6.793 6.793 0 00.685-1.51c.15-.494.224-1.002.224-1.523 0-.373-.084-.736-.252-1.09a2.987 2.987 0 00-.698-.938 3.384 3.384 0 00-1.076-.643 3.9 3.9 0 00-1.384-.237c-.671 0-1.281.104-1.831.309-.55.204-1.123.55-1.719 1.033l-1.454-2.57c.783-.561 1.653-1.03 2.613-1.412s2.064-.573 3.312-.573c.802 0 1.57.112 2.307.335a6.112 6.112 0 011.957.992 4.812 4.812 0 011.355 1.637c.336.652.503 1.406.503 2.265 0 .597-.052 1.149-.153 1.663a8.18 8.18 0 01-.476 1.537 10.297 10.297 0 01-.839 1.578 25.78 25.78 0 01-2.459 3.231c-.438.493-.872.964-1.301 1.411-.429.446-.853.867-1.271 1.258-.419.392-.797.719-1.132.979h8.051v3.072zM236.86 784.389c.615 0 1.184-.073 1.705-.224s.974-.363 1.355-.644c.382-.279.681-.623.895-1.033.215-.41.322-.877.322-1.398 0-1.023-.405-1.83-1.217-2.418-.811-.587-2.026-.881-3.647-.881a22.114 22.114 0 00-1.482.057c-.279.02-.569.027-.867.027v-10.23h10.12v3.41h-6.989v3.773c.149 0 .298-.009.447-.027.131 0 .256-.005.378-.014a3.99 3.99 0 01.321-.016c.932 0 1.798.137 2.6.405a5.91 5.91 0 012.097 1.217 5.5 5.5 0 011.384 1.972c.325.772.489 1.625.489 2.557 0 1.1-.205 2.064-.615 2.895a6.031 6.031 0 01-1.677 2.083 7.548 7.548 0 01-2.46 1.271c-.933.289-1.93.434-2.991.434-.41 0-.849-.041-1.314-.125a16.398 16.398 0 01-1.369-.309 12.202 12.202 0 01-1.244-.405 11.244 11.244 0 01-.965-.419l1.175-2.908c.316.188.806.394 1.467.615a6.474 6.474 0 002.082.335z"/></g><g><path fill="#FFF" d="M344 714l-17.177-9.296-17.395 8.88 3.533-19.208-13.821-13.8L318.5 678l8.854-17.409 8.432 17.617 19.292 3.04-14.148 13.464z"/></g><g><circle fill="#FFF" cx="326.958" cy="777.736" r="18.635"/></g><g><path fill="#F68635" d="M591.317 920.583h-60.45v-63.986l51.44-.375z"/><path fill="none" d="M530.934 920.583v-66.236"/><path d="M528.934 854.347h4v66.236h-4z"/><path fill="#FFF" d="M519.816 637.221c9.961-7.812 22.566-12.383 36.21-12.141 13.717.246 26.216 5.316 35.913 13.557 5.472-1.77 11.358-2.729 17.473-2.729h113.052c10.631 0 22.485-.26 34.131 1.643a56.805 56.805 0 0122.521-15.01 57.866 57.866 0 015.866-1.777c19.28-4.735 26.795-6.508 37.323-12.938 5.753-3.515 12.403-8.414 22.371-15.96a66.641 66.641 0 0118.189-10.036 67.18 67.18 0 0110.846-2.938c7.797-22.111 12.045-45.896 12.045-70.677 0-117.39-95.166-212.554-212.556-212.554-117.391 0-212.555 95.165-212.555 212.554 0 52.428 18.986 100.417 50.451 137.48a57.61 57.61 0 018.72-8.474z"/><path d="M591.939 638.637c5.472-1.77 11.358-2.729 17.473-2.729h113.052c10.631 0 22.485-.26 34.131 1.643a56.805 56.805 0 0122.521-15.01 57.866 57.866 0 015.866-1.777c19.28-4.735 26.795-6.508 37.323-12.938a58.709 58.709 0 00-21.195-22.159c.534-2.526.818-5.146.818-7.831 0-20.274-16.01-36.804-36.075-37.651v-.041H578.467v.027c-20.317.572-36.614 17.21-36.614 37.665 0 3.795.566 7.457 1.609 10.911-14.369 10.644-23.688 27.718-23.688 46.974 0 .504.025 1 .039 1.502 9.961-7.812 22.566-12.383 36.209-12.141 13.721.244 26.22 5.314 35.917 13.555z"/><path fill="#F68635" d="M644.598 599.58h59.362v36.645h-59.362z"/><circle fill="#FFF" cx="673.954" cy="516.476" r="102.335"/><path fill="#F68635" d="M586.625 496.416c1.172 0 2.328.074 3.464.2 10.611-36.654 44.421-63.458 84.497-63.458 40.074 0 73.885 26.803 84.496 63.458 1.136-.126 2.291-.2 3.461-.2 16.868 0 30.541 13.674 30.541 30.542 0 16.867-13.673 30.54-30.541 30.54-2.568 0-5.062-.321-7.447-.918-13.637 30.914-44.549 52.494-80.51 52.494-35.96 0-66.873-21.58-80.512-52.494a30.611 30.611 0 01-7.449.918c-16.866 0-30.54-13.673-30.54-30.54 0-16.868 13.674-30.542 30.54-30.542z"/><path d="M674.586 611.074c-35.084 0-66.957-20.43-81.664-52.188a32.765 32.765 0 01-6.297.612c-17.942 0-32.54-14.598-32.54-32.54 0-17.944 14.599-32.542 32.54-32.542.663 0 1.331.021 2.016.065 11.574-37.366 46.679-63.323 85.945-63.323 39.268 0 74.37 25.957 85.944 63.323a31.257 31.257 0 012.013-.065c17.943 0 32.541 14.598 32.541 32.542 0 17.942-14.598 32.54-32.541 32.54a32.76 32.76 0 01-6.295-.612c-14.705 31.76-46.577 52.188-81.662 52.188zm-79.362-56.844l.682 1.541c13.749 31.165 44.634 51.303 78.682 51.303 34.049 0 64.933-20.138 78.681-51.303l.681-1.541 1.635.408c2.275.569 4.617.858 6.962.858 15.737 0 28.541-12.803 28.541-28.54 0-15.738-12.804-28.542-28.541-28.542-1.04 0-2.1.062-3.24.188l-1.674.187-.468-1.617c-10.57-36.513-44.526-62.014-82.575-62.014s-72.006 25.501-82.576 62.014l-.468 1.617-1.674-.187a29.316 29.316 0 00-3.243-.188c-15.737 0-28.54 12.804-28.54 28.542 0 15.737 12.803 28.54 28.54 28.54 2.347 0 4.689-.289 6.964-.858l1.631-.408z"/><defs><path id="a" d="M586.625 496.416c1.172 0 2.328.074 3.464.2 10.611-36.654 44.421-63.458 84.497-63.458 40.074 0 73.885 26.803 84.496 63.458 1.136-.126 2.291-.2 3.461-.2 16.868 0 30.541 13.674 30.541 30.542 0 16.867-13.673 30.54-30.541 30.54-2.568 0-5.062-.321-7.447-.918-13.637 30.914-44.549 52.494-80.51 52.494-35.96 0-66.873-21.58-80.512-52.494a30.611 30.611 0 01-7.449.918c-16.866 0-30.54-13.673-30.54-30.54 0-16.868 13.674-30.542 30.54-30.542z"/></defs><path d="M759.286 541.24a2 2 0 01-1.471-3.354l18.73-20.361a2 2 0 012.943 2.708l-18.73 20.361a1.998 1.998 0 01-1.472.646zM593.536 541.24a2 2 0 01-1.474-.646l-18.73-20.361a2 2 0 012.943-2.708l18.73 20.361a2 2 0 01-1.469 3.354zM674.832 432.883c-40.322.584-74.18 27.86-84.688 64.954a73.136 73.136 0 0012.366 1.052c37.879 0 68.979-28.999 72.322-66.006z"/><path d="M674.23 432.883c40.32.584 74.179 27.86 84.688 64.954a73.148 73.148 0 01-12.367 1.052c-37.878 0-68.979-28.999-72.321-66.006z"/><circle cx="709.572" cy="531.264" r="11.605"/><path d="M736.891 534.375a1.993 1.993 0 01-1.65-.868c-4.877-7.104-12.926-11.348-21.527-11.348s-16.648 4.242-21.527 11.348a2 2 0 11-3.298-2.263 30.108 30.108 0 0124.825-13.084 30.108 30.108 0 0124.826 13.084 2 2 0 01-1.649 3.131z"/><circle cx="633.829" cy="531.264" r="11.605"/><path d="M614.79 534.375a2 2 0 01-1.649-3.132 30.11 30.11 0 0124.827-13.084 30.108 30.108 0 0124.825 13.084 1.997 1.997 0 01-.517 2.781 1.998 1.998 0 01-2.78-.518 26.119 26.119 0 00-21.528-11.348 26.105 26.105 0 00-21.527 11.348 1.995 1.995 0 01-1.651.869z"/><path fill="none" d="M675.195 530.542v16.898"/><path d="M675.195 549.44a2 2 0 01-2-2v-16.898a2 2 0 014 0v16.898a2 2 0 01-2 2z"/><g><path fill="#FFF" d="M659.604 557.038c0 8.442 6.845 15.288 15.287 15.288 8.443 0 15.289-6.846 15.289-15.288"/></g><g><path fill="none" d="M583.311 642.289c-.004 0-.005.002-.006.002.289-.152.578-.309.87-.457l-.008.004c-.289.146-.571.301-.856.451z"/></g><g><path fill="none" d="M589.194 639.615c.202-.076.401-.158.604-.234-.179.068-.356.139-.534.207-.023.01-.046.017-.07.027z"/></g><g><path fill="none" d="M576.3 646.76c.295-.225.592-.444.893-.664-.003.002-.007.006-.013.008-.296.214-.589.435-.88.656z"/></g><g><path fill="none" d="M580.151 644.107c.141-.089.278-.179.422-.267l-.007.004-.415.263z"/></g><g><path fill="#FFF" d="M579.509 836.194l-1.14-8.132z"/></g><g><path fill="#FFF" d="M552.154 841.507c-12.988-.231-25.039-4.16-35.178-10.762v35.088h66.644l-4.111-29.639c-8.388 3.577-17.648 5.485-27.355 5.313z"/></g><g><path fill="#F68635" d="M579.509 836.194l-1.14-8.134-18.864-134.735a52.867 52.867 0 01-.509-2.431 49.645 49.645 0 01-.531-3.727 46.558 46.558 0 01-.253-4.264v-.011a43.494 43.494 0 01.019-2.014v-.002l.002-.061v-.007a41.991 41.991 0 01.323-4.049v-.002-.004c.104-.82.238-1.631.386-2.436.041-.226.09-.445.134-.668.126-.627.268-1.252.42-1.869.03-.129.054-.26.087-.389.017-.062.039-.121.055-.185.207-.789.434-1.568.682-2.339.034-.102.072-.201.106-.303a42.89 42.89 0 01.959-2.591c.252-.62.519-1.235.798-1.844.06-.127.113-.256.173-.383.348-.732.714-1.453 1.099-2.164.07-.127.145-.252.215-.379.328-.59.67-1.174 1.025-1.75.1-.158.196-.32.299-.479a43.557 43.557 0 011.768-2.58c.207-.279.412-.56.625-.834l.016-.021c.486-.627.984-1.242 1.503-1.842l.002-.004c.296-.344.598-.681.903-1.017h.002c.146-.159.289-.321.438-.479l.006-.006c.107-.115.22-.228.33-.342a48.476 48.476 0 011.971-1.949l.005-.006c.314-.291.636-.578.957-.863.172-.15.344-.305.518-.453l.014-.012a47.972 47.972 0 012.254-1.818c.291-.221.584-.44.88-.656l.013-.008a52.849 52.849 0 012.96-1.987c.138-.089.274-.177.415-.263l.007-.004a54.46 54.46 0 012.731-1.551s.002-.002.006-.002c.284-.15.566-.305.855-.451l.008-.004a53.44 53.44 0 015.021-2.219c.022-.011.047-.019.069-.027.179-.068.355-.139.534-.207a54.12 54.12 0 012.143-.744c-9.698-8.24-22.197-13.311-35.914-13.557-13.644-.242-26.249 4.328-36.21 12.141a57.546 57.546 0 00-8.717 8.474c-8.008 9.629-12.92 21.938-13.16 35.437a57.285 57.285 0 00.221 6.125h-.002c2.746 30.584 3.078 32.225-7.982 65.867a66.674 66.674 0 00-3.584 20.434c-.427 23.881 11.74 45.054 30.385 57.189 10.14 6.602 22.189 10.529 35.179 10.762a66.373 66.373 0 0027.345-5.303z"/><path d="M553.361 843.518c-.413 0-.828-.004-1.242-.011-12.922-.23-25.451-4.063-36.233-11.086-20.021-13.032-31.72-35.052-31.294-58.901a68.704 68.704 0 013.691-21.045c10.781-32.792 10.623-34.548 7.988-63.867l-.105-1.174a60.162 60.162 0 01-.227-6.34c.242-13.569 4.952-26.254 13.621-36.679a59.688 59.688 0 019.021-8.768c10.77-8.446 23.745-12.805 37.479-12.567 13.609.244 26.812 5.228 37.175 14.032l2.737 2.325-3.42 1.103c-.695.225-1.384.468-2.064.718l-.506.196a53.265 53.265 0 00-4.622 2.021l-.087.087-.306.11c-.146.076-.294.154-.439.232l-.443.234c-.899.482-1.71.944-2.471 1.408l-.388.243a51.474 51.474 0 00-2.862 1.923l-.133.096c-.242.18-.483.36-.724.542a45.926 45.926 0 00-2.16 1.742l-.516.452a50.02 50.02 0 00-.894.806l-.455.435c-.497.475-.982.959-1.457 1.455l-.395.409c-.091.097-.18.195-.269.295l-.072.078c-.232.256-.456.502-.674.75l-.205.236a44.87 44.87 0 00-1.405 1.723l-.032.045c-.183.233-.349.459-.515.683l-.098.133a42.921 42.921 0 00-1.686 2.46l-.296.474c-.33.534-.656 1.093-.97 1.656l-.213.375a43.233 43.233 0 00-1.04 2.052l-.165.364a39.163 39.163 0 00-.76 1.759 40.881 40.881 0 00-.915 2.47l-.108.31a44.134 44.134 0 00-.643 2.209 2.919 2.919 0 01-.059.197l-.075.338a44.69 44.69 0 00-.401 1.792l-.126.634c-.155.849-.27 1.553-.354 2.204l-.018.133a41.62 41.62 0 00-.306 3.864c-.022.698-.028 1.34-.021 1.985.019 1.371.101 2.744.242 4.089a47.46 47.46 0 00.509 3.574 48.1 48.1 0 00.487 2.33l.035.186 20.217 144.386-1.408.602c-8.521 3.638-17.584 5.483-26.925 5.483zm1.633-216.447c-12.427 0-24.165 4.054-33.943 11.724a55.555 55.555 0 00-8.413 8.178c-8.081 9.719-12.473 21.542-12.698 34.193a55.659 55.659 0 00.214 5.911l.104 1.172c2.647 29.489 2.864 31.897-8.182 65.498a64.69 64.69 0 00-3.484 19.844c-.4 22.463 10.617 43.202 29.477 55.479 10.152 6.609 21.953 10.22 34.123 10.438 8.711.16 17.146-1.386 25.123-4.568l-19.776-141.242a54.42 54.42 0 01-.508-2.436 51.429 51.429 0 01-.554-3.879 49.22 49.22 0 01-.265-4.45 44.812 44.812 0 01.021-2.113 43.702 43.702 0 01.328-4.214l.012-.096c.097-.762.225-1.571.402-2.546.028-.156.061-.312.093-.469l.046-.228c.133-.662.281-1.314.439-1.961l.023-.106c.021-.102.042-.201.068-.302l.057-.193c.222-.844.462-1.667.713-2.444l.114-.325c.229-.694.48-1.387.749-2.071a45.315 45.315 0 011.087-2.565l.179-.395a46.4 46.4 0 011.149-2.268l.224-.396c.345-.619.702-1.229 1.073-1.831l.317-.509a45.07 45.07 0 011.842-2.688l.099-.134c.167-.227.333-.45.504-.673l.067-.088c.354-.456.714-.906 1.082-1.351v-.104l.54-.533c.291-.337.588-.667.889-.997l.123-.135c.045-.049.089-.099.134-.146l.052-.104.5-.478a52.546 52.546 0 011.585-1.582l.422-.4a.208.208 0 00.021-.021l.027-.024c.36-.335.679-.619.998-.902l.543-.476a51.937 51.937 0 013.26-2.577l.219-.155a53.685 53.685 0 012.877-1.925l.565-.353a56.078 56.078 0 012.616-1.485l.421-.283.116-.001c.057-.03.113-.062.171-.09l.006-.008.39-.195a54.86 54.86 0 014.521-2.022 55.216 55.216 0 00-31.907-10.895c-.33-.002-.664-.005-.995-.005z"/></g><g><path fill="#F68635" d="M559.505 693.325a52.867 52.867 0 01-.509-2.431 49.096 49.096 0 01-.531-3.737 45.59 45.59 0 01-.173-2.084l-.004-.062a44.025 44.025 0 01-.075-2.043l-.001-.063a43.957 43.957 0 01.019-2.025c0-.021.003-.041.003-.061.021-.672.06-1.338.11-2.002l.004-.052c.056-.668.122-1.33.204-1.985.002-.006.002-.013.005-.017v-.006c.104-.82.237-1.633.388-2.438.039-.222.085-.439.131-.66.126-.631.268-1.254.42-1.873.048-.191.092-.383.142-.572.207-.791.434-1.57.685-2.343.03-.094.064-.188.099-.281a39.947 39.947 0 01.958-2.592 44.75 44.75 0 01.822-1.9c.052-.108.1-.221.149-.33.352-.741.723-1.473 1.113-2.19.062-.111.123-.219.186-.328a43.11 43.11 0 011.056-1.803c.095-.152.188-.304.282-.451.431-.68.874-1.351 1.342-2.004l.093-.136c.109-.151.228-.301.341-.452.211-.287.422-.572.641-.855.076-.098.15-.197.227-.293.301-.383.611-.76.926-1.133.116-.139.23-.279.351-.416.296-.346.602-.685.908-1.021.145-.159.291-.321.438-.479.109-.117.226-.23.336-.348.187-.193.371-.39.562-.58.176-.177.349-.353.523-.523.145-.141.291-.277.438-.416a37.465 37.465 0 011.044-.973c.121-.109.245-.216.368-.324.176-.154.352-.312.529-.465a50.887 50.887 0 014.801-3.635c.276-.186.559-.366.842-.545.154-.1.31-.194.464-.293.141-.088.278-.178.422-.266.297-.18.596-.355.896-.529.289-.17.577-.338.871-.502.318-.178.642-.348.965-.52.289-.152.577-.31.869-.457.342-.172.688-.336 1.033-.502.278-.133.555-.271.835-.398.374-.172.755-.334 1.134-.496.264-.112.523-.231.788-.342.406-.166.819-.322 1.229-.479.202-.076.402-.158.604-.234.045-.016.088-.035.135-.051.662-.244 1.33-.476 2.008-.693 5.471-1.77 11.357-2.729 17.472-2.729h113.052c10.631 0 22.485-.261 34.131 1.643-13.602 14.807-18.893 36.317-12.164 56.591.17.51.327 1.021.514 1.527.326.897.678 1.779 1.042 2.65.093.219.192.434.286.649a58.5 58.5 0 001.201 2.588 57.41 57.41 0 001.287 2.453c.45.81.915 1.604 1.4 2.381l.002.004a50.81 50.81 0 001.011 1.56l.197.299c.33.486.669.967 1.013 1.441.079.106.158.217.239.325.351.478.705.947 1.068 1.412.06.072.116.146.177.22a56.467 56.467 0 005.249 5.758l.19.186c.406.385.822.762 1.239 1.137l.37.328a56.8 56.8 0 001.221 1.039c.14.117.281.23.422.344.414.339.83.673 1.255.994.118.095.239.183.359.271a56.803 56.803 0 004.509 3.076l.252.158c.418.254.843.497 1.266.737.212.123.423.246.637.365.396.219.792.432 1.19.641.25.131.501.263.752.39.387.194.772.387 1.166.573.271.132.544.257.815.382.384.176.768.354 1.154.521.289.125.582.242.874.363.378.155.755.315 1.138.465a62.489 62.489 0 002.91 1.035c.367.121.734.242 1.104.354.338.104.679.199 1.02.295a45.729 45.729 0 002.135.568c.39.096.78.186 1.173.272.327.072.655.146.985.211.42.087.844.164 1.267.24.303.056.604.113.909.162.527.086 1.058.16 1.586.232.203.026.406.061.609.086.727.09 1.454.164 2.185.227.238.021.479.031.72.049.507.037 1.017.07 1.525.095.289.012.575.02.863.026.469.015.938.025 1.408.025.297.002.594 0 .893 0 .472-.006.943-.021 1.418-.037.286-.01.573-.02.863-.033a53.273 53.273 0 001.536-.104c.246-.021.491-.035.737-.058a51.339 51.339 0 002.271-.252l-28.83 185.742-186.165.094-8.365-59.762-23.189-165.52z"/><path d="M589.311 920.619l-31.772-226.924a54.42 54.42 0 01-.508-2.436c-.22-1.183-.4-2.455-.554-3.892a46.834 46.834 0 01-.181-2.177 46.92 46.92 0 01.054-6.53l.012-.117c.051-.638.121-1.328.207-2.013l.026-.206c.097-.726.218-1.483.382-2.371.038-.212.084-.438.133-.664.137-.685.283-1.335.442-1.982l.149-.604c.226-.861.46-1.665.716-2.452l.091-.261c.247-.744.503-1.449.776-2.146.062-.166.135-.345.207-.523.302-.745.588-1.407.89-2.062l.153-.336a44.44 44.44 0 011.171-2.306l.197-.353c.348-.628.715-1.254 1.097-1.873l.299-.477c.492-.777.952-1.464 1.4-2.091l.095-.138c.078-.108.158-.216.239-.321l.12-.159c.214-.291.435-.589.662-.885l.246-.315c.307-.392.632-.786.961-1.177l.096-.115c.091-.109.182-.219.275-.325.297-.349.617-.703.938-1.055.146-.161.301-.332.456-.498l.462-.479c.156-.163.312-.327.472-.488l3.02-2.808.677-.571a55.769 55.769 0 011.671-1.323c.307-.234.615-.463.926-.689.272-.197.542-.389.814-.575.299-.208.603-.419.909-.623.291-.194.589-.388.888-.575l.899-.566c.321-.194.633-.378.944-.559.289-.17.59-.346.897-.518.289-.161.581-.316.875-.473l.38-.202c.215-.114.431-.229.646-.339.316-.159.63-.31.945-.46l.403-.194c.195-.095.393-.188.59-.279.357-.164.72-.319 1.08-.475l.387-.168.527-.228c.346-.142.688-.272 1.029-.404l1.058-.406a57.025 57.025 0 012.037-.703c5.796-1.875 11.882-2.824 18.087-2.824l120.048-.013c8.307 0 17.964.13 27.457 1.682l3.658.598-2.509 2.729c-13.53 14.729-18.028 35.654-11.737 54.607l.143.437c.112.346.226.69.352 1.034.284.783.612 1.621 1.008 2.565l.28.635c.277.639.568 1.283.875 1.917l.283.578c.332.672.681 1.34 1.039 1.996l.207.377c.414.743.817 1.434 1.226 2.093l.422.422v.252c.221.345.444.685.672 1.021l.209.316c.302.443.629.906.961 1.365l.228.31c.343.466.686.922 1.036 1.371l.132.161a54.85 54.85 0 005.101 5.601l.188.186c.389.366.793.731 1.197 1.097l.361.319c.376.329.77.665 1.167.994l.401.326c.405.331.804.651 1.209.96l.349.262a55.187 55.187 0 004.356 2.975l.24.149c.404.247.812.48 1.219.712.26.15.438.256.621.356.377.209.762.415 1.146.616a53.412 53.412 0 001.852.93c.268.129.527.248.788.368l.132.061c.326.149.653.301.983.443.187.08.374.157.562.234l.551.228c.273.114.55.229.828.337.485.189.976.364 1.466.54.444.16.893.312 1.341.456.357.119.712.235 1.068.345.321.1.646.19.974.281a42.985 42.985 0 002.066.551c.383.095.761.182 1.139.267.312.067.627.138.943.201.41.084.817.158 1.226.231l.259.048c.204.037.408.075.613.108.516.084 1.027.155 1.54.226l.587.083c.697.086 1.402.158 2.105.219l.694.047c.489.035.981.067 1.473.091.269.011.546.019.822.025.457.014.906.024 1.357.024l.297.001.596-.001c.431-.006.886-.019 1.343-.036.291-.01.566-.019.846-.032.481-.024.979-.062 1.479-.1l.715-.055a58.139 58.139 0 002.181-.242l2.653-.355-29.505 190.073-189.617.11zm-28.814-243.27a45.233 45.233 0 00-.156 1.581l-.01.109a47.464 47.464 0 00-.101 1.847 48.175 48.175 0 00-.02 1.994c.009.709.033 1.359.072 2.014.044.721.099 1.386.17 2.054a46.375 46.375 0 00.996 5.916l.035.186 31.301 223.558 182.713-.079 28.167-181.483-.458.035c-.551.042-1.077.08-1.604.107-.309.016-.602.024-.894.034-.494.02-.983.033-1.471.039h-.932c-.477 0-.965-.012-1.452-.026a87.54 87.54 0 01-.887-.027 57.334 57.334 0 01-1.591-.098l-.737-.051a59.534 59.534 0 01-2.267-.234l-.63-.089a57.899 57.899 0 01-1.642-.24c-.229-.036-.466-.08-.7-.123l-.243-.045a48.878 48.878 0 01-1.312-.249c-.333-.066-.671-.142-1.009-.216a94.983 94.983 0 01-1.227-.285c-.347-.086-.699-.173-1.051-.268a55.437 55.437 0 01-1.168-.324c-.335-.095-.69-.193-1.044-.303-.383-.117-.764-.243-1.145-.368a49.106 49.106 0 01-1.443-.491c-.521-.188-1.045-.375-1.562-.576-.307-.119-.611-.246-.916-.373l-.53-.219c-.212-.088-.424-.175-.634-.266-.358-.155-.712-.318-1.064-.479l-.131-.061c-.283-.13-.567-.261-.85-.396a60.43 60.43 0 01-1.977-.993 65.9 65.9 0 01-1.231-.663 29.313 29.313 0 01-.608-.349 47.15 47.15 0 01-1.363-.797l-.198-.124a60.252 60.252 0 01-4.728-3.222l-.084-.062a41.955 41.955 0 01-1.59-1.249l-.073-.06a64.579 64.579 0 01-1.621-1.368l-.377-.334c-.442-.397-.87-.786-1.29-1.183l-.143-.139a58.909 58.909 0 01-5.491-6.018l-.153-.188a73.877 73.877 0 01-1.136-1.498l-.237-.326a59.974 59.974 0 01-1.059-1.504l-.214-.324a52.737 52.737 0 01-.916-1.406l-.424-.424v-.262a54.678 54.678 0 01-1.148-1.978l-.207-.378a54.152 54.152 0 01-1.127-2.163l-.299-.607a58.71 58.71 0 01-.942-2.064l-.294-.669a62.877 62.877 0 01-1.081-2.749 32.597 32.597 0 01-.396-1.166l-.136-.415c-6.356-19.151-2.443-40.181 10.165-55.762-8.046-1.017-16.142-1.112-23.237-1.112l-6.996.013H609.412c-5.787 0-11.458.886-16.856 2.632-.65.21-1.294.432-1.932.667l-.958.369c-.315.122-.633.242-.944.371-.142.059-.289.123-.437.188l-.422.184c-.329.142-.66.282-.985.433-.175.08-.348.164-.521.248l-.416.2c-.29.139-.58.275-.865.421-.19.097-.385.198-.578.303l-.38.201c-.27.143-.536.285-.802.433-.28.157-.557.317-.832.48-.303.174-.59.343-.875.516l-.836.528c-.289.181-.555.352-.814.525-.288.192-.57.389-.852.583a72.2 72.2 0 00-.741.524c-.284.207-.569.42-.854.636-.231.178-.465.355-.695.538-.291.229-.571.458-.854.689l-3.406 3.114c-.137.14-.277.286-.419.435l-.43.444c-.142.149-.278.304-.415.453-.3.329-.591.65-.873.98l-.336.398c-.304.36-.6.721-.887 1.084l-.223.288a42.78 42.78 0 00-.605.811l-.417.565a41.43 41.43 0 00-1.279 1.911l-.272.438a42.43 42.43 0 00-1.006 1.717l-.177.313a41.41 41.41 0 00-1.062 2.091l-.151.331a39.53 39.53 0 00-.774 1.795 37.497 37.497 0 00-.912 2.47l-.096.268a42.334 42.334 0 00-.651 2.234l-.136.552a39.11 39.11 0 00-.399 1.779c-.05.242-.089.429-.122.617a40.721 40.721 0 00-.357 2.219v.344l-.061.118z"/></g><g><path d="M581.607 645.553l-2.075-3.419c.423-.258.851-.509 1.282-.755.183-.105.365-.211.552-.314.29-.161.584-.317.879-.475l.116-.062.003-.002h.002l1.879 3.53c-.482.258-.961.52-1.435.788l-.327.192c-.301.175-.588.344-.876.517z"/></g><g><path d="M578.364 647.716l-2.347-3.239.145-.104h.001l.003-.003c.333-.239.67-.476 1.01-.707.187-.128.373-.256.562-.381.291-.194.588-.388.888-.575l.029-.019c.069-.046.142-.091.212-.135l.226-.142 2.13 3.385-.22.139-.011.008-.157.1c-.43.273-.854.553-1.273.837l-.102.068-.017.012-.334.231c-.208.144-.411.285-.611.431l-.134.094z"/></g><g><path fill="#F68635" d="M948.41 621.805c-11.281-31.076-43.229-48.672-74.697-42.914a67.18 67.18 0 00-10.846 2.938 66.641 66.641 0 00-18.189 10.036c-9.968 7.546-16.618 12.445-22.371 15.96-10.528 6.432-18.043 8.203-37.324 12.938a58.004 58.004 0 00-5.865 1.777 56.795 56.795 0 00-22.521 15.01c-13.602 14.808-18.893 36.317-12.164 56.591.169.511.327 1.021.514 1.527.326.898.676 1.779 1.042 2.65.093.219.192.434.286.649.293.672.595 1.342.911 1.998l.29.59a59.052 59.052 0 002.687 4.834c0 .002.002.002.002.005.328.528.667 1.047 1.011 1.559l.197.299c.33.486.669.967 1.013 1.441.079.106.158.217.239.326.351.477.705.946 1.067 1.411.061.072.117.146.178.22a56.352 56.352 0 005.249 5.758l.189.186c.407.386.823.763 1.24 1.138.124.108.247.219.37.328.402.352.811.698 1.22 1.038.141.117.282.23.423.345.414.338.83.672 1.254.994.119.094.24.182.36.271a56.62 56.62 0 004.509 3.076l.252.158c.417.254.842.498 1.266.737.212.123.423.246.637.365a59.551 59.551 0 003.108 1.605c.271.131.544.256.815.381.383.176.768.354 1.154.521.289.125.582.242.874.363.378.156.755.315 1.138.465a60.974 60.974 0 002.91 1.035c.367.121.734.242 1.104.354.338.104.679.199 1.02.295a44.05 44.05 0 002.135.568c.39.096.78.186 1.172.273.328.071.656.145.986.211.42.086.843.164 1.266.239.304.056.605.113.91.162.527.086 1.058.16 1.585.232.204.026.407.061.61.086.727.09 1.454.164 2.184.227.239.021.479.031.721.05.507.036 1.017.069 1.525.094.288.012.575.02.863.026.469.015.938.025 1.408.025.297.002.594 0 .893 0a86.426 86.426 0 002.281-.07 53.763 53.763 0 001.536-.104c.246-.021.491-.035.737-.058a57.015 57.015 0 0019.939-5.586l.002.005c27.575-13.517 28.988-14.414 64.361-16.13a66.502 66.502 0 0020.358-3.969c34.662-12.577 52.562-50.879 39.976-85.539z"/><path d="M798.621 735.26l-.311-.001c-.478 0-.966-.012-1.453-.025-.293-.009-.59-.017-.887-.028a57.359 57.359 0 01-1.591-.097l-.737-.052a59.534 59.534 0 01-2.267-.234l-.63-.088a61.078 61.078 0 01-1.641-.241c-.23-.036-.466-.079-.699-.123l-.245-.045a48.878 48.878 0 01-1.312-.249c-.335-.067-.675-.143-1.016-.217-.412-.094-.817-.187-1.22-.284a62.163 62.163 0 01-2.219-.591c-.336-.096-.69-.194-1.043-.304a48.96 48.96 0 01-1.142-.366c-.481-.158-.967-.32-1.447-.493-.521-.188-1.044-.375-1.562-.576-.308-.119-.611-.246-.917-.373l-.529-.219a29.265 29.265 0 01-.634-.266 44.17 44.17 0 01-1.063-.479l-.132-.062c-.282-.13-.565-.26-.85-.396-.4-.192-.801-.39-1.199-.591-.261-.132-.52-.268-.778-.402a66.357 66.357 0 01-1.231-.663 27.75 27.75 0 01-.611-.35c-.483-.275-.926-.53-1.36-.795l-.2-.125a60.096 60.096 0 01-4.726-3.223l-.083-.061a43.645 43.645 0 01-1.591-1.251l-.072-.061a14.84 14.84 0 01-.371-.302 71.719 71.719 0 01-1.25-1.064l-.377-.334a69.069 69.069 0 01-1.291-1.184l-.142-.138a58.933 58.933 0 01-5.492-6.018l-.151-.188a67.407 67.407 0 01-1.138-1.499l-.237-.326a61.868 61.868 0 01-1.059-1.504l-.214-.324a56.431 56.431 0 01-1.039-1.603c-.006-.01-.012-.021-.019-.03a56.175 56.175 0 01-1.43-2.434l-.209-.38a60.655 60.655 0 01-1.125-2.159l-.301-.613a55.29 55.29 0 01-.94-2.062l-.296-.672a58.823 58.823 0 01-1.08-2.749c-.142-.386-.27-.775-.396-1.167l-.136-.413c-6.747-20.33-1.924-42.773 12.59-58.572 6.462-7.038 14.305-12.267 23.312-15.537a60.761 60.761 0 016.068-1.839l1.078-.266c18.643-4.577 25.617-6.291 35.684-12.439 5.567-3.399 11.848-8.004 22.207-15.849a68.624 68.624 0 0118.715-10.32 69.358 69.358 0 0111.169-3.025 68.589 68.589 0 0112.298-1.116c28.822 0 54.799 18.211 64.639 45.315 6.271 17.266 5.439 35.938-2.338 52.581-7.777 16.642-21.57 29.258-38.837 35.524a68.662 68.662 0 01-20.969 4.089c-34.478 1.671-36.06 2.446-62.491 15.404l-1.062.521c-.041.021-.083.039-.125.057a59.228 59.228 0 01-5.714 2.423 59.274 59.274 0 01-14.798 3.298l-.764.061c-.535.04-1.062.078-1.588.105-.312.016-.606.024-.902.035-.48.019-.968.029-1.452.038l-.629.006zm-46.739-29.888c.311.498.629.984.952 1.467l.209.316c.302.443.629.907.961 1.366l.227.308c.344.467.687.923 1.037 1.372l.136.166a54.74 54.74 0 005.096 5.596l.191.187c.387.365.791.73 1.194 1.096l.351.31c.389.34.782.677 1.18 1.005l.401.326c.405.331.804.651 1.21.96l.347.263a55.239 55.239 0 004.467 3.043l.13.082c.404.245.812.479 1.219.71.258.149.438.255.621.356.377.209.762.415 1.146.616.24.126.482.253.727.376.373.188.75.374 1.129.556.264.126.523.246.784.366l.134.062c.325.149.652.301.981.442.187.08.374.157.562.234l.549.227c.273.114.55.229.828.338.486.189.977.364 1.467.54.444.16.893.312 1.341.456.36.119.713.236 1.068.346.32.099.646.188.973.28a43.097 43.097 0 002.068.552c.382.094.76.181 1.138.266.309.067.625.138.943.201.41.084.817.159 1.226.231l.261.048c.203.038.407.075.611.108.516.084 1.028.155 1.54.226l.587.083c.698.086 1.402.158 2.105.219l.694.047c.489.036.981.067 1.474.091.269.011.547.019.824.026.454.013.903.023 1.354.023l.297.001.596-.001a66.2 66.2 0 001.343-.036c.285-.01.563-.019.846-.031a57.8 57.8 0 001.479-.101l.715-.055a55.242 55.242 0 0013.793-3.075c1.8-.651 3.631-1.43 5.442-2.315.039-.02.079-.036.119-.054l.942-.462c26.585-13.033 28.757-14.098 64.082-15.811a64.594 64.594 0 0019.772-3.852c16.263-5.902 29.253-17.786 36.578-33.46s8.106-33.261 2.202-49.521c-9.269-25.528-33.732-42.682-60.879-42.682a64.943 64.943 0 00-22.101 3.903 64.767 64.767 0 00-17.646 9.736c-10.485 7.938-16.845 12.599-22.557 16.087-10.596 6.472-18.271 8.356-36.813 12.911l-1.074.264a55.918 55.918 0 00-5.661 1.715c-8.396 3.05-15.708 7.922-21.729 14.482-13.532 14.729-18.03 35.654-11.739 54.607l.142.436c.113.346.227.69.353 1.036.297.819.626 1.655 1.007 2.562l.281.639c.276.635.566 1.281.874 1.914l.284.581c.332.67.68 1.339 1.039 1.996l.207.377c.465.831.905 1.582 1.343 2.281.004.013.012.025.02.039z"/></g><g><circle fill="#FFF" cx="896.191" cy="631.32" r="43.553"/></g><g><path fill="#F68635" d="M864.74 634.822l-36.56-115.266s-4.919-8.188-8.224-11.585c-4.007-4.121-6.843-8.565-9.084-13.347-1.861-3.971-3.31-8.173-4.67-12.619l-6.412-20.96-6.774-22.154s.045-.013.043-.023c-1.571-5.137 1.316-10.577 6.457-12.147 5.137-1.573 10.576 1.317 12.146 6.455.09.297.161.591.225.886l6.513 21.294.075-.024-8.588-28.085s.043-.014.036-.023c-1.567-5.139 1.323-10.576 6.459-12.148 5.14-1.572 10.579 1.319 12.149 6.458.093.293.162.587.221.884l8.329 27.224.079-.023-10.404-34.019s.044-.012.037-.021c-1.57-5.138 1.32-10.578 6.459-12.15 5.139-1.568 10.578 1.321 12.148 6.458.092.294.162.588.224.884l10.14 33.156.082-.021-8.593-28.084s.044-.014.043-.026c-1.575-5.14 1.314-10.578 6.453-12.146 5.139-1.571 10.579 1.318 12.151 6.458.088.295.158.59.219.887l10.688 34.943c.147.033.301.063.448.102l-.849-16.919s.047 0 .044-.015c-.279-5.367 3.844-9.943 9.209-10.225 5.362-.28 9.939 3.843 10.221 9.21.015.305.015.604.004.907l2.072 40.371c.083.652.147 1.306.184 1.976a27.413 27.413 0 01-5.415 17.883c-1.427 2.374-3.716 6.851-3.551 10.979.018.35.047.697.098 1.04l-.019.005 36.591 113.369c5.526 16.309-2.801 34.193-19.027 40.363-16.604 6.312-35.185-2.029-41.498-18.634a34.406 34.406 0 01-.537-1.53l-.042.002z"/><path d="M895.393 659.085c-14.096 0-26.933-8.854-31.942-22.03-.156-.41-.304-.824-.441-1.236a1.899 1.899 0 01-.174-.392l-36.488-115.039c-.763-1.252-4.993-8.114-7.822-11.022-3.831-3.94-6.927-8.484-9.462-13.893-2.117-4.518-3.662-9.258-4.771-12.883l-13.187-43.114a1.995 1.995 0 01-.086-.47 11.649 11.649 0 01.985-8.489 11.643 11.643 0 016.928-5.71c2.896-.887 6.061-.578 8.618.679-.515-5.429 2.836-10.669 8.246-12.326 2.903-.887 6.064-.575 8.623.681-.518-5.429 2.834-10.671 8.248-12.328a11.747 11.747 0 013.432-.514c4.393 0 8.294 2.388 10.312 6.131a11.63 11.63 0 016.756-5.398 11.686 11.686 0 013.434-.516 11.667 11.667 0 0111.461 9.279l6.474 21.161-.122-2.441a2.038 2.038 0 01.028-.456c-.091-6.265 4.809-11.55 11.116-11.88 6.497-.357 11.986 4.663 12.322 11.104.017.338.019.664.009.991l2.063 40.213c.093.738.153 1.409.188 2.048a29.578 29.578 0 01-5.747 19.101c-1.287 2.156-3.359 6.215-3.218 9.786.013.252.034.515.069.775l36.506 113.104c5.914 17.453-2.964 36.285-20.221 42.847a34.109 34.109 0 01-12.137 2.237zm-28.867-25.246c.062.11.114.229.155.354.156.478.323.963.506 1.439 4.425 11.636 15.76 19.453 28.203 19.453 3.657 0 7.264-.666 10.715-1.978a30.05 30.05 0 0017.845-37.854l-36.6-113.395a2.04 2.04 0 01-.097-.622 13.385 13.385 0 01-.077-.942c-.177-4.438 1.987-9.031 3.835-12.104.034-.058.071-.112.11-.166a25.556 25.556 0 005.021-16.583 23.52 23.52 0 00-.171-1.828 1.982 1.982 0 01-.013-.15l-2.072-40.371a2.02 2.02 0 01-.002-.174 8.28 8.28 0 00-.003-.739c-.22-4.235-3.831-7.521-8.118-7.309-4.256.223-7.538 3.867-7.315 8.123a2.01 2.01 0 01-.023.425l.828 16.513a2 2 0 01-2.491 2.038l-.398-.09a2.001 2.001 0 01-1.468-1.365l-10.688-34.942a1.8 1.8 0 01-.049-.192 7.717 7.717 0 00-.175-.709 7.685 7.685 0 00-7.386-5.457c-.764 0-1.525.114-2.265.34a7.67 7.67 0 00-4.563 3.762 7.67 7.67 0 00-.562 5.888c.043.141.071.287.082.434l8.468 27.677a1.999 1.999 0 01-1.384 2.515c-1.046.284-2.208-.288-2.522-1.322l-10.14-33.157a1.768 1.768 0 01-.046-.177 7.693 7.693 0 00-7.569-6.177 7.735 7.735 0 00-7.393 9.993h-.001c.04.131.065.265.079.4l10.288 33.639a1.999 1.999 0 01-1.332 2.499c-1.061.322-2.249-.253-2.571-1.306L826.84 423a1.687 1.687 0 01-.05-.198 6.557 6.557 0 00-.165-.667c-1.007-3.292-3.976-5.491-7.394-5.491a7.72 7.72 0 00-2.266.342c-4.073 1.247-6.375 5.577-5.131 9.652.039.13.065.265.078.398l8.473 27.709a2.001 2.001 0 01-1.312 2.493c-.509.16-1.1.122-1.57-.126-.472-.249-.863-.663-1.019-1.173l-6.513-21.293a2.477 2.477 0 01-.043-.164 9.152 9.152 0 00-.184-.729 7.679 7.679 0 00-7.381-5.463c-.766 0-1.526.115-2.266.341a7.662 7.662 0 00-4.565 3.762 7.681 7.681 0 00-.565 5.888 1.794 1.794 0 01.083.43l13.062 42.708c1.07 3.499 2.558 8.064 4.567 12.355 2.376 5.067 5.144 9.136 8.707 12.802 3.427 3.521 8.3 11.606 8.505 11.95.08.134.146.275.191.425l36.444 114.888z"/></g><g><path d="M756.402 714.63zM768.684 724.784z"/></g><g><path fill="#FFF" d="M785.501 865.499l-201.699.109 7.2 52.892h186.333z"/><path d="M589.257 920.506l-7.746-56.896 206.327-.111-8.79 56.996-189.791.011zm-3.164-52.899l6.654 48.887 182.875.012 7.542-49.006-197.071.107z"/></g><g><path fill="#FFF" d="M675.145 617.597c-.448.121-1.03 72.412 1.829 83.009 2.863 10.599 13.774 16.869 24.373 14.008 10.599-2.862 16.868-13.773 14.007-24.371-2.863-10.6-39.993-72.706-40.209-72.646z"/><path fill="#FFF" d="M675.448 617.597c-.445-.131-38.865 61.105-41.988 71.63-3.124 10.525 2.878 21.589 13.401 24.709 10.522 3.125 21.586-2.876 24.709-13.399 3.121-10.525 4.093-82.875 3.878-82.94z"/></g></g></svg>