<svg xmlns="http://www.w3.org/2000/svg" width="1920" height="1080" xml:space="preserve"><path fill="#FFF" d="m390.335 966.094-1.485-873.94 12-.02 1.485 873.94zM774.722 178.767l-31.238-25.405-58.201-62.081 2.918-2.736 58.11 61.982 30.934 25.135zM1277.242 991.68l-105.401-80.026-.126-.792-30.982-193.629-125.857-212.99-69.632-94.777-85.166-69.681 2.533-3.096 85.557 70.001.15.204 69.9 95.142 126.344 213.818.061.373 30.915 193.211 104.122 79.056z"/><path fill="#FFF" d="m461.305 271.224-117.518-96.542-42.85-66.222 3.358-2.173 42.512 65.7 117.037 96.146zM787.185 316.885l-108.643-25.217.905-3.897 108.642 25.217zM894.677 194.704l-.703-3.938 53.835-9.613 86.911-67.598 2.455 3.157-87.691 68.205zM1492.018 487.711l-102.016-11.771-85.865-93.671 2.949-2.703 84.857 92.572 99.746 11.509 102.442-28.993 1.09 3.849zM1529.626 299.517l-92.136-1.961.086-3.999 90.228 1.92 42.065-49.713 3.053 2.584z"/><g><path fill="#FFF" d="M952.035 682.015a897.63 897.63 0 0 1-.249-3.997c-.968-15.967-1.261-20.785-16.507-37.416-14.06-15.337-30.717-28.651-46.826-41.528-14.612-11.682-29.723-23.759-43.168-37.501-26.393-26.971-51.392-63.316-72.364-95.313-3.604-5.5-7.246-11.024-10.897-16.567-9.898-15.023-20.135-30.559-29.854-45.899-5.229-8.254-10.156-16.918-14.919-25.296-8.856-15.577-18.014-31.684-29.323-45.434-34.472-41.909-82.205-69.737-124.24-92.532-9.721-5.271-19.731-10.444-29.414-15.446-57.842-29.884-117.653-60.786-144.842-128.37l11.133-4.479c25.524 63.448 80.749 91.979 139.218 122.188 9.733 5.029 19.8 10.229 29.627 15.558 43.03 23.334 91.941 51.879 127.787 95.458 11.965 14.546 21.381 31.108 30.486 47.126 4.694 8.255 9.547 16.792 14.624 24.805 9.662 15.251 19.868 30.74 29.737 45.719 3.657 5.551 7.303 11.084 10.914 16.592 20.656 31.514 45.234 67.266 70.905 93.499 12.934 13.22 27.753 25.064 42.084 36.521 16.466 13.162 33.493 26.771 48.179 42.793 18.121 19.767 18.597 27.611 19.64 44.799.075 1.251.154 2.562.245 3.938l-11.976.782z"/></g><g><path fill="#FFD829" d="M576.083 271.328c-6.027-2.032-12.566 1.21-14.6 7.238l-.007.017-.051-.02-9.586 28.431c-.146-.105-.299-.205-.45-.31l2.307-28.499c.062-.353.109-.707.141-1.071a11.9 11.9 0 0 0 .032-1.081l.03-.373-.048-.005c-.259-5.715-4.726-10.482-10.573-10.956-5.854-.472-11.026 3.516-12.196 9.117l-.154-.013-1.734 21.495-.098-.006 1.53-18.971c.062-.352.114-.706.144-1.071.512-6.345-4.217-11.903-10.56-12.413-6.345-.51-11.899 4.216-12.415 10.559l-.001.014-.053-.005-1.619 20.032-.096-.007 1.532-18.969c.062-.353.11-.709.14-1.072.514-6.346-4.213-11.905-10.56-12.416-6.1-.493-11.461 3.867-12.315 9.843l-.092-.007-1.678 20.763-.098-.007 1.533-18.969c.062-.352.112-.708.143-1.072.511-6.343-4.216-11.899-10.56-12.413-6.344-.512-11.903 4.217-12.416 10.56 0 .004.003.008.002.011l-.055-.003-1.618 20.029-2.09 25.879-1.671 20.689c-.94 5.936.613 11.862 4.032 16.514 3.667 6.241 5.126 13.336 5.199 13.69l-10.055 133.021c-1.591 21.086 14.207 39.473 35.294 41.064.803.061 1.602.087 2.397.097l130.587 9.871 5.771-76.359-94.8-7.165 7.056-93.39c1.252-5.072 5.514-10.18 8.313-12.313a32.499 32.499 0 0 0 13.769-17.332c.254-.748.466-1.5.662-2.253l18.474-54.792a11.4 11.4 0 0 0 .395-.999c2.039-6.03-1.203-12.567-7.234-14.602z"/><path d="M623.684 552.534a1.93 1.93 0 0 1-.152-.006l-130.522-9.866a38.523 38.523 0 0 1-2.461-.103c-22.148-1.671-38.809-21.055-37.138-43.209l10.033-132.733c-.322-1.46-1.764-7.423-4.857-12.729-3.73-5.123-5.312-11.617-4.346-17.849l5.373-66.523c.014-.168.048-.33.1-.483.83-7.104 7.229-12.507 14.523-11.917 4.891.396 8.97 3.362 11.018 7.462 2.679-3.713 7.175-5.989 12.049-5.6a13.434 13.434 0 0 1 9.214 4.718 13.605 13.605 0 0 1 1.812 2.735c2.678-3.692 7.161-5.977 12.045-5.588a13.431 13.431 0 0 1 9.213 4.716 13.64 13.64 0 0 1 1.807 2.727c2.689-3.714 7.189-5.968 12.05-5.581 6.625.537 11.875 5.842 12.384 12.426.063.219.089.452.07.691l-.023.282c.003.386-.009.772-.039 1.165-.034.403-.084.786-.148 1.167l-1.16 14.346 5.01-14.858c.054-.162.129-.314.221-.455a13.52 13.52 0 0 1 12.651-8.748c1.466 0 2.918.239 4.317.711a13.437 13.437 0 0 1 7.797 6.81 13.424 13.424 0 0 1 .275 11.41l-18.423 54.642a33.653 33.653 0 0 1-.686 2.323 34.683 34.683 0 0 1-14.524 18.336c-2.44 1.892-6.294 6.476-7.47 10.989l-6.893 91.223 92.807 7.015a2.003 2.003 0 0 1 1.844 2.145l-5.772 76.357a2.011 2.011 0 0 1-1.999 1.852zM463.561 270.302l-5.341 66.136c-.004.052-.01.103-.018.152-.831 5.241.507 10.714 3.669 15.018.041.055.079.111.113.171 3.714 6.319 5.268 13.497 5.433 14.294.038.183.051.374.037.56l-10.055 133.021c-1.505 19.955 13.5 37.414 33.449 38.919.684.051 1.427.081 2.271.091.042 0 .085.002.127.006l128.591 9.72 5.471-72.37-92.806-7.015a1.999 1.999 0 0 1-1.843-2.145l7.056-93.391c.008-.11.026-.221.052-.329 1.291-5.229 5.623-10.818 9.044-13.425a1.77 1.77 0 0 1 .161-.111 30.666 30.666 0 0 0 12.925-16.269c.208-.614.398-1.266.622-2.119.012-.045.024-.09.041-.135l18.474-54.793c.02-.058.042-.115.065-.171a9.448 9.448 0 0 0-.163-8.099 9.473 9.473 0 0 0-5.492-4.797 9.519 9.519 0 0 0-12.065 5.982c-.05.149-.118.292-.201.424l-9.441 28.004a2 2 0 0 1-3.061.988l-.417-.286a1.999 1.999 0 0 1-.86-1.811l2.306-28.499a2.23 2.23 0 0 1 .023-.183 9.99 9.99 0 0 0 .117-.893c.023-.292.03-.59.025-.888 0-.042 0-.084.002-.126a1.96 1.96 0 0 1-.018-.188c-.216-4.775-3.972-8.667-8.737-9.053-4.775-.388-9.109 2.897-10.077 7.532-.038.181-.1.352-.181.509l-1.673 20.725c-.088 1.085-1.038 1.917-2.115 1.835-.537-.032-1.085-.282-1.438-.688-.353-.406-.575-.939-.531-1.475l1.529-18.971a2.38 2.38 0 0 1 .024-.189 8.94 8.94 0 0 0 .118-.875 9.473 9.473 0 0 0-2.238-6.944 9.454 9.454 0 0 0-6.486-3.321c-5.243-.426-9.838 3.555-10.261 8.72a2.247 2.247 0 0 1-.091.474l-1.582 19.575a1.991 1.991 0 0 1-2.136 1.834c-.532-.038-1.075-.291-1.424-.696-.348-.405-.566-.935-.523-1.467l1.532-18.969c.005-.063.013-.126.023-.188a9.466 9.466 0 0 0-2.121-7.824 9.454 9.454 0 0 0-6.488-3.322c-5.021-.402-9.474 3.223-10.177 8.133a1.928 1.928 0 0 1-.126.47l-1.628 20.164a2.009 2.009 0 0 1-2.133 1.834c-.533-.037-1.078-.29-1.426-.695-.348-.405-.569-.936-.526-1.468l1.533-18.969c.005-.062.013-.123.023-.184.051-.293.094-.59.12-.893.42-5.228-3.495-9.83-8.729-10.254-5.211-.416-9.795 3.518-10.254 8.647a2.013 2.013 0 0 1-.094.55z"/><path fill="#FFF" d="M817.146 751.628c15.058 19.84 11.181 48.13-8.66 63.188-19.842 15.058-48.133 11.179-63.189-8.661-15.057-19.842-11.179-48.133 8.662-63.188a45.148 45.148 0 0 1 10.87-6.103c18.305-7.152 39.848-1.668 52.317 14.764z"/><path fill="#FFF" d="m743.822 756.755-30.071-15.844 32.658-26.837 18.753 24.572z"/><path fill="#FFD829" d="m1041.561 793.108-44.029-.692V679.962l54.249.499.079-.006a55.086 55.086 0 0 1 3.846-.134c1.627 0 3.288.071 4.938.214l.188.008.424.055c7.141.699 14 2.729 20.386 6.029a57.407 57.407 0 0 1 4.487 2.6l.076.049 192.29 99.467-51.795 100.129-185.139-95.764z"/><path d="m999.53 681.98 52.149.479.159.001.158-.011a52.94 52.94 0 0 1 3.706-.129c1.504 0 3.039.062 4.564.189l.789.077a54.06 54.06 0 0 1 19.659 5.813 55.136 55.136 0 0 1 4.335 2.511l.151.097.159.082 190.435 98.507-49.957 96.576-182.943-94.627-.835-.432-.94-.016-41.591-.653.002-108.464m-4-4.037v116.44l45.527.716 186.497 96.465 53.633-103.682-193.986-100.345a60.077 60.077 0 0 0-4.644-2.688 58.162 58.162 0 0 0-21.109-6.242l.002-.06-.638-.006a59.43 59.43 0 0 0-5.108-.222c-1.333 0-2.662.046-3.986.139l-56.188-.515z"/><path fill="#FFF" d="M1383.098 738.896a10.92 10.92 0 0 0-8.359-.754v-.002l-94.851 49.986-53.534 102.312 56.671 39.642c5.384 2.817 12.04.735 14.857-4.65l17.868-34.149 42.324-80.882 29.659-56.687c2.812-5.37.738-12.005-4.635-14.816z"/><path fill="none" d="M1383.098 738.896a10.92 10.92 0 0 0-8.359-.754v-.002l-1.609.849-97.343 186.028 7.238 5.063c5.384 2.817 12.04.735 14.857-4.65l17.868-34.149 42.324-80.882 29.659-56.687c2.812-5.37.738-12.005-4.635-14.816z"/><path d="m1279.888 788.127-53.534 102.312 49.432 34.579 97.343-186.029z"/><path d="m1279.838 788.049-2.187-1.143c-4.507-2.362-10.124-.604-12.481 3.904l-11.291 21.579c-2.359 4.505-.603 10.122 3.906 12.479l2.187 1.146 12.29 6.432 19.864-37.965-12.288-6.432z"/><g><path fill="#FFF" d="m1294.389 809.941-18.701-6.041 1.231-3.806 14.966 4.836 5.761-16.727 16.838 5.436 5.764-16.727 16.843 5.435 5.132-14.878 3.781 1.304-6.411 18.583-16.841-5.432-5.764 16.726-16.839-5.435z"/></g><g><path fill="#FFD829" d="M625.232 551.14c-8.237-10.853-20.687-27.253-23.527-47.133-3.398-23.772 8.47-46.142 35.273-66.482l42.774-32.46c6.271-4.761 13.789-7.382 21.168-7.382 8.584 0 16.206 3.558 20.912 9.759L877.25 612.236l-130.499 99.036L625.232 551.14z"/><path d="M700.921 399.682c7.953 0 14.995 3.269 19.319 8.968l120.501 158.786 18.394 24.235 15.314 20.18-6.562 4.979-96.79 73.452-23.963 18.188-15.314-20.181-18.393-24.235-86.604-114.123c-8.112-10.688-20.372-26.84-23.141-46.207-1.495-10.463.064-20.722 4.638-30.491 5.516-11.783 15.563-23.262 29.865-34.115l42.775-32.461c5.928-4.498 13.017-6.975 19.961-6.975m0-4c-7.541 0-15.496 2.565-22.377 7.788l-42.774 32.46c-63.762 48.39-28.313 95.098-12.131 116.418l86.604 114.123 18.392 24.235 17.733 23.367 27.149-20.605 96.788-73.452 9.747-7.397-17.731-23.365-18.395-24.235-120.5-158.786c-5.298-6.984-13.614-10.551-22.505-10.551z"/></g><g><path fill="#FFD829" d="m675.002 408.34-48.692 36.95-38.15-50.273 48.692-36.95z"/><path d="m625.927 448.103-40.568-53.458 51.878-39.371 40.57 53.462-51.88 39.367zm-34.965-52.69 35.733 47.085 45.507-34.532-35.735-47.089-45.505 34.536z"/><path fill="#FFD829" d="M631.373 250.781a31.63 31.63 0 0 0-2.71 2.316c-31.474-23.426-75.822-24.362-108.645.546-32.821 24.908-43.854 67.873-29.76 104.488a31.962 31.962 0 0 0-2.962 1.987c-13.813 10.482-16.514 30.181-6.031 43.996 10.484 13.813 30.183 16.514 43.996 6.029a31.546 31.546 0 0 0 5.53-5.381c30.38 16.845 69.112 15.307 98.563-7.044 29.449-22.35 41.354-59.238 33.31-93.034a31.501 31.501 0 0 0 6.671-3.877c13.815-10.483 16.516-30.181 6.03-43.996-10.48-13.813-30.177-16.513-43.992-6.03z"/><path d="M506.303 418.533c-10.552 0-20.258-4.815-26.63-13.21-11.133-14.671-8.255-35.665 6.416-46.798a32.447 32.447 0 0 1 1.727-1.222c-13.764-37.782-1.157-80.854 30.995-105.254 16.211-12.302 35.509-18.805 55.806-18.805 19.261 0 38.337 6.124 53.909 17.275a32.214 32.214 0 0 1 1.642-1.333c5.856-4.445 12.831-6.795 20.167-6.795 10.552 0 20.258 4.815 26.628 13.21 5.394 7.107 7.697 15.889 6.485 24.728-1.213 8.839-5.792 16.677-12.9 22.07a33.61 33.61 0 0 1-5.567 3.425c7.71 35.144-5.687 71.686-34.413 93.487-16.208 12.3-35.506 18.803-55.799 18.803-.001 0 .001 0 0 0-15.161 0-30.162-3.736-43.497-10.818a33.58 33.58 0 0 1-4.797 4.44c-5.862 4.447-12.836 6.797-20.172 6.797zm68.312-181.288c-19.416 0-37.877 6.221-53.388 17.992-31.183 23.664-43.149 65.681-29.102 102.176l.606 1.574-1.45.862a29.37 29.37 0 0 0-2.775 1.861c-12.914 9.8-15.448 28.279-5.647 41.194 5.607 7.39 14.152 11.628 23.442 11.628 6.456 0 12.593-2.069 17.75-5.982a29.68 29.68 0 0 0 5.181-5.041l1.056-1.313 1.474.816c13.1 7.264 27.969 11.103 43.003 11.103 19.415 0 37.874-6.222 53.382-17.99 27.903-21.176 40.688-56.887 32.573-90.978l-.39-1.64 1.55-.663a29.553 29.553 0 0 0 6.248-3.631c6.256-4.748 10.289-11.647 11.354-19.427 1.066-7.781-.961-15.511-5.709-21.767-5.606-7.39-14.151-11.628-23.441-11.628-6.455 0-12.593 2.069-17.75 5.982a29.738 29.738 0 0 0-2.539 2.17l-1.221 1.164-1.354-1.007c-15.123-11.256-33.894-17.455-52.853-17.455z"/><path fill="none" d="m488.585 388.132 27.996 5.034"/><path d="M516.583 395.167c-.118 0-.237-.011-.356-.032l-27.996-5.034a1.996 1.996 0 0 1-1.613-2.321 1.998 1.998 0 0 1 2.322-1.614l27.995 5.034a1.997 1.997 0 0 1 1.614 2.321 2.001 2.001 0 0 1-1.966 1.646z"/><g><path fill="none" d="m655.016 261.829-2.687 28.318"/><path d="M652.332 292.147a2 2 0 0 1-1.993-2.189l2.688-28.319a2 2 0 0 1 3.982.378l-2.687 28.319a2.002 2.002 0 0 1-1.99 1.811z"/></g><g><circle cx="548.363" cy="357.71" r="11.932"/><path d="M531.627 375.623a2 2 0 0 1-1.996-1.905 30.901 30.901 0 0 1 12.177-26.098 30.904 30.904 0 0 1 28.412-4.707 2.002 2.002 0 0 1 1.271 2.527 1.997 1.997 0 0 1-2.527 1.27 26.908 26.908 0 0 0-24.736 4.097 26.904 26.904 0 0 0-10.6 22.722 2 2 0 0 1-1.902 2.093l-.099.001z"/></g><g><circle cx="610.396" cy="310.634" r="11.932"/><path d="M593.659 328.547a2 2 0 0 1-1.996-1.905 30.904 30.904 0 0 1 12.178-26.1 30.906 30.906 0 0 1 28.413-4.705 2.002 2.002 0 0 1 1.27 2.528 2.003 2.003 0 0 1-2.528 1.269 26.9 26.9 0 0 0-24.736 4.094 26.908 26.908 0 0 0-10.601 22.723 1.999 1.999 0 0 1-1.902 2.093c-.034.003-.067.003-.098.003z"/></g><g><path fill="none" d="m580.046 333.779 10.502 13.84"/><path d="M590.549 349.619a1.997 1.997 0 0 1-1.595-.791l-10.502-13.839a2 2 0 0 1 3.186-2.418l10.502 13.839a2 2 0 0 1-1.591 3.209z"/></g><g><path fill="#FFF" d="M620.933 337.099c10.203 13.445 7.575 32.617-5.87 42.821-13.444 10.203-32.617 7.578-42.82-5.868l48.69-36.953z"/></g></g><g><path fill="#FFD829" d="M925.697 636.644 774.733 751.203l-28.238-37.211L897.46 599.433z"/></g><g><path d="M832.553 772.618c58.391 8.951 80.592-58.957 86.572-75.102l24.146-65.139c5.979-16.142-.366-33.375-14.17-38.488l-59.47-22.032c-13.804-5.112-29.845 3.825-35.827 19.97l-35.445 95.65-23.633 63.696 57.827 21.445z"/><path fill="#FFD829" d="m952.833 600.781-.999 2.697-105.729-39.121 21.479-58.053.034.014.78-1.706c9.144-19.973 29.255-32.877 51.235-32.877a56.137 56.137 0 0 1 24.315 5.545l.082.039 203.038 75.127-39.121 105.729-155.114-57.394z"/><path d="M919.634 473.735a54.136 54.136 0 0 1 23.453 5.351l.164.078.17.062 201.077 74.401-37.732 101.978L955.402 599.6l-3.75-1.388-.999 2.697-101.979-37.733 19.921-53.84.05-.115.033-.11.586-1.583.953-2.082c8.819-19.264 28.216-31.711 49.417-31.711m0-4c-22.319 0-43.375 12.902-53.054 34.044l-.171-.065-1.524 4.122-.011.027a.694.694 0 0 1-.009.025l-21.331 57.65 109.479 40.509.999-2.697 155.115 57.395 40.509-109.479-204.828-75.79a58.208 58.208 0 0 0-25.174-5.741z"/><g><path fill="#FFF" d="m1236.379 490.422-88.001 61.243-40.581 108.106 61.106 32.39c5.688 2.138 12.038-.746 14.176-6.438l13.544-36.084 32.082-85.463 22.482-59.894c2.132-5.679-.742-12.008-6.418-14.141a10.953 10.953 0 0 0-8.39.281z"/><path fill="none" d="M1244.77 490.142a10.955 10.955 0 0 0-8.391.28l-1.494 1.04-73.785 196.563 7.804 4.136c5.688 2.138 12.038-.746 14.176-6.438l13.544-36.084 32.082-85.463 22.482-59.894c2.131-5.678-.743-12.008-6.418-14.14z"/><path d="m1148.378 551.665-40.581 108.106 53.303 28.254 73.785-196.564z"/><g><path d="m1148.317 551.593-2.312-.866c-4.761-1.787-10.121.646-11.907 5.407l-8.558 22.802c-1.789 4.76.646 10.118 5.407 11.907l2.31.867 12.987 4.873 15.058-40.115-12.985-4.875z"/></g><g><path fill="#FFF" d="m1165.449 571.657-19.299-3.702.754-3.928 15.446 2.962 3.668-17.305 17.378 3.328 3.666-17.307 17.384 3.326 3.269-15.395 3.912.83-4.081 19.23-17.383-3.325-3.668 17.307-17.378-3.328z"/></g></g></g><g><path d="m996.991 794.396-1.461-116.453-65.056.029a2.135 2.135 0 0 1-.082.319l-7.774 21.278a424.54 424.54 0 0 0-.778 2.128c-3.581 9.836-11.031 30.303-24.793 47.468-14.706 18.343-32.301 27.593-52.416 27.593-3.492 0-7.06-.278-10.703-.837a1.939 1.939 0 0 1-1.623-2.212 1.94 1.94 0 0 1 2.212-1.624c54.524 8.357 76.468-51.91 83.678-71.714.286-.789.548-1.506.782-2.143l7.184-20.373-86.041-.765-65.383 74.092c31.162 50.61 74.479 42.977 96.799 42.949"/></g><g><path d="m955.017 599.705-25.756 69.615-109.134-40.377 25.756-69.615z"/></g><g><path fill="#FFD829" d="m761.854 476.026 76.01-58.31c8.979-5.897 15.445-15.511 16.963-26.998l17.447-132.371-.08-.009c1.862-5.375 4.344-10.642 7.604-15.304 3.958-5.658 6.47-11.471 8.209-17.569 1.441-5.067 2.354-10.328 3.111-15.857l3.575-26.079 3.776-27.566s-.057-.008-.053-.023c.877-6.39-3.595-12.284-9.988-13.16-6.394-.878-12.284 3.595-13.163 9.986-.051.37-.078.731-.095 1.093l-3.63 26.494-.099-.012 4.791-34.947s-.056-.008-.052-.021c.875-6.392-3.596-12.284-9.987-13.164-6.394-.873-12.286 3.598-13.162 9.99-.052.366-.08.73-.094 1.093l-4.646 33.873-.099-.011L854 134.832s-.056-.009-.052-.021c.875-6.392-3.599-12.286-9.99-13.164-6.392-.874-12.286 3.597-13.161 9.989-.051.367-.079.729-.095 1.09l-5.654 41.256-.098-.011 4.79-34.945s-.055-.009-.055-.023c.879-6.394-3.594-12.286-9.986-13.161-6.394-.876-12.286 3.596-13.161 9.989-.049.365-.079.729-.094 1.092l-5.959 43.479c-.171.071-.346.136-.515.208l-2.242-20.22s-.054.006-.055-.011c-.697-6.414-6.466-11.048-12.88-10.351-6.414.699-11.049 6.465-10.351 12.881.041.365.101.72.172 1.074l5.294 48.26c.028.788.077 1.578.163 2.377a32.947 32.947 0 0 0 9.854 20.162c2.331 2.753 6.337 8.249 6.403 13.585l.021.002-15.354 116.463-65.751 50.433"/><path d="M761.854 478.026a2.001 2.001 0 0 1-1.218-3.587l76.011-58.31c.039-.03.078-.058.119-.085a36.28 36.28 0 0 0 16.078-25.587l17.383-131.886a1.89 1.89 0 0 1 .077-.888c2.082-6.006 4.726-11.32 7.856-15.795 3.55-5.075 6.068-10.468 7.924-16.971 1.225-4.306 2.167-9.112 3.053-15.58l7.292-53.198a1.946 1.946 0 0 1 .009-.47c.352-2.562-.316-5.106-1.88-7.167s-3.836-3.388-6.398-3.739c-5.282-.726-10.185 2.987-10.91 8.277-.042.309-.063.611-.078.913-.003.06-.008.12-.017.18l-3.631 26.494a2 2 0 0 1-2.217 1.714c-.533-.063-1.066-.344-1.396-.769-.329-.424-.521-.969-.449-1.5l4.731-34.507a1.864 1.864 0 0 1 .009-.46c.724-5.289-2.99-10.183-8.279-10.911-5.289-.725-10.184 2.992-10.908 8.28a9.365 9.365 0 0 0-.077.897 1.829 1.829 0 0 1-.017.196l-4.646 33.873a2.006 2.006 0 0 1-2.207 1.716c-.535-.061-1.072-.341-1.402-.766-.331-.425-.525-.971-.452-1.504l5.743-41.882a1.948 1.948 0 0 1 .009-.464c.724-5.291-2.991-10.185-8.281-10.911-5.293-.727-10.184 2.991-10.907 8.279a9.416 9.416 0 0 0-.078.906 1.43 1.43 0 0 1-.018.185l-5.654 41.256a2.002 2.002 0 0 1-2.209 1.715c-.535-.062-1.07-.341-1.4-.766-.33-.425-.523-.971-.45-1.503l4.728-34.49-.006-.069a1.875 1.875 0 0 1 .015-.41c.353-2.562-.314-5.108-1.878-7.168s-3.836-3.388-6.398-3.738a9.629 9.629 0 0 0-7.169 1.88 9.609 9.609 0 0 0-3.816 7.3 2.052 2.052 0 0 1-.017.191l-5.959 43.479a2.003 2.003 0 0 1-1.212 1.575l-.5.203a2.004 2.004 0 0 1-2.771-1.62l-2.193-19.783a2.104 2.104 0 0 1-.104-.452c-.578-5.307-5.362-9.153-10.675-8.579-5.308.578-9.156 5.368-8.579 10.676.034.299.084.598.145.896.012.059.021.118.027.177l5.294 48.26c.006.048.01.096.011.144.031.85.079 1.561.152 2.238a31.123 31.123 0 0 0 9.257 18.94c.048.045.093.094.135.144 2.496 2.948 6.667 8.72 6.869 14.567.031.188.037.381.011.573L782.98 365.094a2.001 2.001 0 0 1-.767 1.326l-65.751 50.433a2 2 0 1 1-2.434-3.174l65.094-49.929 15.208-115.358c-.06-4.812-4.073-10.112-5.868-12.244a35.136 35.136 0 0 1-10.377-21.311 35.185 35.185 0 0 1-.17-2.446l-5.277-48.104c-.074-.38-.137-.764-.181-1.155-.817-7.508 4.621-14.276 12.121-15.093 7.339-.802 13.983 4.396 15.024 11.651.058.153.097.313.114.478l.682 6.14 4.052-29.566a13.594 13.594 0 0 1 5.389-10.225 13.6 13.6 0 0 1 10.13-2.657 13.59 13.59 0 0 1 9.253 5.568c1.848-6.419 8.193-10.697 15.005-9.763 6.814.935 11.778 6.765 11.828 13.451a13.664 13.664 0 0 1 10.409-2.885c6.814.937 11.777 6.767 11.826 13.451a13.633 13.633 0 0 1 10.41-2.881 13.595 13.595 0 0 1 9.042 5.284 13.589 13.589 0 0 1 2.714 9.645c.019.165.018.335-.005.507l-7.354 53.645c-.913 6.662-1.89 11.638-3.169 16.133-1.955 6.85-4.732 12.792-8.494 18.168-2.827 4.042-5.237 8.844-7.168 14.282a1.414 1.414 0 0 1-.013.146l-17.447 132.372a40.27 40.27 0 0 1-17.786 28.366l-75.952 58.266a1.988 1.988 0 0 1-1.214.411z"/></g><g><path fill="#FFF" d="M641.176 535.343c20.898 27.54 59.926 33.101 87.168 12.427l55.062-41.787-75.678-99.721-55.06 41.784c-27.245 20.677-32.389 59.76-11.492 87.297z"/></g></g><g><path fill="#FFF" d="m963.049 962.296-12-.027.656-285.19 12 .027z"/></g><g><path fill="none" d="M1315.878 150.007v55.863"/><path d="M1313.878 150.007h4v55.863h-4z"/><path fill="none" d="m1335.631 158.188-39.5 39.503"/><path d="m1297.6 199.056-2.828-2.828 39.506-39.495 2.828 2.829z"/><g><path fill="none" d="M1343.812 177.937h-55.864"/><path d="M1287.948 175.937h55.862v4h-55.862z"/></g><g><path fill="none" d="m1335.633 197.691-39.502-39.504"/><path d="m1334.252 199.08-39.503-39.504 2.828-2.828 39.503 39.503z"/></g><g><path fill="none" d="M1347.153 99.289v55.861"/><path d="M1345.153 99.289h4v55.862h-4z"/><path fill="none" d="m1366.906 107.469-39.5 39.503"/><path d="m1328.82 148.385-2.828-2.828 39.5-39.501 2.829 2.828z"/><g><path fill="none" d="M1375.089 127.219h-55.865"/><path d="M1319.224 125.219h55.865v4h-55.865z"/></g><g><path fill="none" d="m1366.908 146.972-39.502-39.504"/><path d="m1365.507 148.375-39.502-39.502 2.828-2.829 39.503 39.502z"/></g></g><g><path fill="none" d="M1378.429 150.007v55.863"/><path d="M1376.429 150.007h4v55.863h-4z"/><path fill="none" d="m1398.184 158.188-39.5 39.503"/><path d="m1360.135 199.08-2.829-2.828 39.496-39.506 2.828 2.828z"/><g><path fill="none" d="M1406.364 177.937h-55.865"/><path d="M1350.499 175.937h55.865v4h-55.865z"/></g><g><path fill="none" d="m1398.186 197.691-39.502-39.504"/><path d="m1396.806 199.078-39.503-39.503 2.829-2.829 39.502 39.503z"/></g></g></g><g><path fill="none" d="M1589.448 542.902v55.864"/><path d="M1589.448 600.766a2 2 0 0 1-2-2v-55.862a2 2 0 0 1 4 0v55.862a2 2 0 0 1-2 2z"/><path fill="none" d="m1609.203 551.085-39.5 39.502"/><path d="M1569.703 592.587a2 2 0 0 1-1.414-3.414l39.5-39.502a2 2 0 1 1 2.828 2.828l-39.5 39.502a1.99 1.99 0 0 1-1.414.586z"/><g><path fill="none" d="M1617.384 570.832h-55.864"/><path d="M1617.384 572.832h-55.864a2 2 0 0 1 0-4h55.864a2 2 0 0 1 0 4z"/></g><g><path fill="none" d="m1609.205 590.587-39.502-39.504"/><path d="M1609.205 592.587a1.992 1.992 0 0 1-1.414-.586l-39.502-39.504a2 2 0 1 1 2.828-2.828l39.502 39.504a2 2 0 0 1-1.414 3.414z"/></g></g><g><path fill="none" d="M1112.201 269.358v55.863"/><path d="M1112.201 327.221a2 2 0 0 1-2-2v-55.863a2 2 0 0 1 4 0v55.863a2 2 0 0 1-2 2z"/><path fill="none" d="m1131.956 277.54-39.5 39.502"/><path d="M1092.456 319.042a2 2 0 0 1-1.414-3.414l39.5-39.502a2 2 0 1 1 2.828 2.828l-39.5 39.502a1.992 1.992 0 0 1-1.414.586z"/><g><path fill="none" d="M1140.137 297.288h-55.866"/><path d="M1140.137 299.288h-55.865a2 2 0 0 1 0-4h55.865a2 2 0 0 1 0 4z"/></g><g><path fill="none" d="m1131.958 317.042-39.502-39.504"/><path d="M1131.958 319.042a1.994 1.994 0 0 1-1.414-.586l-39.502-39.504a2 2 0 1 1 2.828-2.828l39.502 39.504a2 2 0 0 1-1.414 3.414z"/></g></g><g><path d="M484.292 325.978a90.903 90.903 0 0 0 4.153 27.243l4.26 5.612 91.143-69.167-14.441-32.737 28.057 22.405 33.104-25.122-.746-.983c-15.202-11.424-34.102-18.196-54.581-18.196-50.231.001-90.949 40.718-90.949 90.945z"/></g></svg>