<svg xmlns="http://www.w3.org/2000/svg" viewBox="0 0 1920 1080"><path fill="#FFF" d="m390.33 966.1-1.48-873.95 12-.02 1.48 873.94zm384.4-787.33-31.25-25.4-58.2-62.09 2.92-2.73 58.11 61.98 30.93 25.13zm502.51 812.91-105.4-80.03-.13-.79-30.98-193.63-125.85-212.99-69.64-94.77-85.16-69.69 2.53-3.1 85.56 70.01.15.2 69.9 95.15 126.34 213.81.06.38 30.92 193.2 104.12 79.06z"/><path fill="#FFF" d="m461.3 271.22-117.5-96.54-42.85-66.22 3.36-2.17 42.5 65.7 117.04 96.14zm325.88 45.66-108.64-25.21.9-3.9L788.1 313zm107.5-122.18-.7-3.93 53.83-9.62 86.91-67.6 2.46 3.16-87.7 68.2zm597.34 293.01L1390 475.94l-85.86-93.67 2.95-2.7 84.85 92.57 99.75 11.5 102.44-28.99 1.1 3.85zm37.6-188.2-92.13-1.95.09-4 90.22 1.92 42.07-49.72 3.05 2.59zm-577.59 382.5a897.63 897.63 0 0 1-.24-4c-.97-15.96-1.27-20.78-16.51-37.4-14.06-15.34-30.72-28.66-46.83-41.54-14.6-11.68-29.72-23.75-43.17-37.5-26.39-26.97-51.39-63.31-72.36-95.31-3.6-5.5-7.25-11.02-10.9-16.57a3071.39 3071.39 0 0 1-29.85-45.9 619.16 619.16 0 0 1-14.92-25.3c-8.86-15.57-18.01-31.68-29.32-45.43-34.47-41.9-82.2-69.73-124.24-92.53a1668.65 1668.65 0 0 0-29.42-15.44C476.43 195.2 416.62 164.3 389.43 96.72l11.13-4.48c25.53 63.45 80.75 91.98 139.22 122.19 9.74 5.02 19.8 10.22 29.63 15.55 43.03 23.34 91.94 51.88 127.79 95.46 11.96 14.55 21.38 31.1 30.48 47.13 4.7 8.25 9.55 16.79 14.63 24.8a3067.1 3067.1 0 0 0 29.73 45.72l10.92 16.6c20.65 31.5 45.23 67.26 70.9 93.5 12.94 13.21 27.76 25.06 42.09 36.51 16.46 13.16 33.49 26.77 48.18 42.8 18.12 19.76 18.6 27.6 19.64 44.8l.24 3.93-11.98.78z"/><path fill="#FFD829" d="M576.08 271.33a11.53 11.53 0 0 0-14.6 7.24v.01l-.06-.02-9.58 28.43-.45-.3 2.3-28.5c.07-.36.11-.71.15-1.08a11.9 11.9 0 0 0 .03-1.08l.03-.37h-.05a11.52 11.52 0 0 0-22.77-1.84l-.15-.02-1.74 21.5h-.1l1.54-18.98a11.52 11.52 0 1 0-22.83-2.93v.02h-.06l-1.62 20.03-.1-.01 1.54-18.97a11.52 11.52 0 1 0-22.74-3.64l-.09-.01-1.68 20.76h-.1l1.54-18.97a11.53 11.53 0 1 0-22.83-2.93v.01h-.06l-1.62 20.03-2.09 25.88-1.67 20.69a22.07 22.07 0 0 0 4.03 16.51 49.64 49.64 0 0 1 5.2 13.69L455.4 499.5a38.29 38.29 0 0 0 37.69 41.16l130.59 9.87 5.77-76.36-94.8-7.16 7.05-93.4c1.26-5.06 5.52-10.17 8.32-12.3a32.5 32.5 0 0 0 13.77-17.34c.25-.74.46-1.5.66-2.25l18.47-54.8a11.4 11.4 0 0 0 .4-.99 11.52 11.52 0 0 0-7.24-14.6z"/><path d="M623.68 552.53a1.93 1.93 0 0 1-.15 0l-130.52-9.87a38.52 38.52 0 0 1-2.46-.1 40.34 40.34 0 0 1-37.14-43.21l10.03-132.73a47.83 47.83 0 0 0-4.85-12.73 24.22 24.22 0 0 1-4.35-17.85l5.37-66.52c.02-.17.05-.33.1-.49a13.6 13.6 0 0 1 14.53-11.91c4.89.4 8.97 3.36 11.01 7.46a13.54 13.54 0 0 1 12.05-5.6 13.43 13.43 0 0 1 9.22 4.72 13.6 13.6 0 0 1 1.81 2.73 13.56 13.56 0 0 1 12.04-5.59 13.43 13.43 0 0 1 9.22 4.72 13.64 13.64 0 0 1 1.8 2.73 13.55 13.55 0 0 1 12.05-5.58 13.54 13.54 0 0 1 12.39 12.42c.06.22.09.45.07.7l-.02.27a13.84 13.84 0 0 1-.2 2.34l-1.15 14.34 5-14.86c.06-.16.14-.31.23-.45a13.52 13.52 0 0 1 12.65-8.75c1.47 0 2.92.24 4.32.71a13.44 13.44 0 0 1 7.8 6.81 13.42 13.42 0 0 1 .27 11.41l-18.42 54.64a33.65 33.65 0 0 1-.69 2.33 34.68 34.68 0 0 1-14.52 18.33c-2.44 1.9-6.3 6.48-7.47 11l-6.9 91.22 92.81 7.01a2 2 0 0 1 1.84 2.15l-5.77 76.35a2.01 2.01 0 0 1-2 1.85zM463.56 270.3l-5.34 66.14-.02.15a20.2 20.2 0 0 0 3.78 15.19 52.1 52.1 0 0 1 5.44 14.3c.03.18.05.37.03.55L457.4 499.65a36.33 36.33 0 0 0 35.85 39.02l128.59 9.72 5.47-72.37-92.8-7.02a2 2 0 0 1-1.85-2.14l7.06-93.4c0-.1.02-.21.05-.32 1.29-5.23 5.62-10.82 9.04-13.43a1.77 1.77 0 0 1 .16-.1 30.67 30.67 0 0 0 12.93-16.28 31.1 31.1 0 0 0 .66-2.25l18.47-54.8.07-.16a9.45 9.45 0 0 0-.16-8.1 9.47 9.47 0 0 0-5.5-4.8 9.52 9.52 0 0 0-12.06 5.98c-.05.15-.12.3-.2.43l-9.44 28a2 2 0 0 1-3.06.99l-.42-.29a2 2 0 0 1-.86-1.8l2.3-28.5a2.23 2.23 0 0 1 .03-.19 9.99 9.99 0 0 0 .11-.9c.03-.29.03-.58.03-.88v-.13a1.96 1.96 0 0 1-.02-.19 9.53 9.53 0 0 0-8.73-9.05 9.55 9.55 0 0 0-10.08 7.53c-.04.18-.1.36-.18.51l-1.67 20.73a2 2 0 0 1-2.12 1.83 2.11 2.11 0 0 1-1.44-.69c-.35-.4-.57-.93-.53-1.47l1.53-18.97a2.38 2.38 0 0 1 .02-.19 8.94 8.94 0 0 0 .12-.88 9.47 9.47 0 0 0-2.24-6.94 9.45 9.45 0 0 0-6.48-3.32 9.57 9.57 0 0 0-10.26 8.72 2.25 2.25 0 0 1-.1.47l-1.58 19.58a2 2 0 0 1-2.13 1.83 2.12 2.12 0 0 1-1.43-.7c-.34-.4-.56-.93-.52-1.46l1.53-18.97.03-.19a9.47 9.47 0 0 0-2.12-7.82 9.45 9.45 0 0 0-6.5-3.32 9.55 9.55 0 0 0-10.17 8.13 1.93 1.93 0 0 1-.13.47l-1.62 20.16a2 2 0 0 1-2.14 1.84 2.11 2.11 0 0 1-1.42-.7c-.35-.4-.57-.93-.53-1.47l1.53-18.96.03-.19c.05-.3.1-.59.12-.9a9.54 9.54 0 0 0-8.73-10.25 9.58 9.58 0 0 0-10.26 8.65 2.01 2.01 0 0 1-.09.55z"/><path fill="#FFF" d="M817.15 751.63a45.1 45.1 0 1 1-63.2-8.66 45.15 45.15 0 0 1 10.88-6.1 45.11 45.11 0 0 1 52.32 14.76z"/><path fill="#FFF" d="m743.82 756.75-30.07-15.84 32.66-26.84 18.75 24.58z"/><path fill="#FFD829" d="m1041.56 793.1-44.03-.68V679.96l54.25.5h.08a55.09 55.09 0 0 1 3.85-.14c1.62 0 3.28.07 4.93.21l.2.01.42.06c7.14.7 14 2.73 20.38 6.03a57.4 57.4 0 0 1 4.49 2.6l.08.05 192.29 99.46-51.8 100.13-185.14-95.76z"/><path d="m999.53 681.98 52.15.48h.16l.16-.01a52.94 52.94 0 0 1 3.7-.13c1.5 0 3.04.06 4.57.19l.79.08a54.06 54.06 0 0 1 19.65 5.8 55.14 55.14 0 0 1 4.34 2.52l.15.1.16.08 190.43 98.5-49.95 96.58-182.95-94.62-.83-.44-.94-.01-41.6-.66.01-108.46m-4-4.04v116.44l45.53.72 186.5 96.46 53.63-103.68-193.99-100.34a60.08 60.08 0 0 0-4.64-2.7 58.16 58.16 0 0 0-21.11-6.23v-.06h-.64a59.43 59.43 0 0 0-5.1-.23c-1.34 0-2.67.05-4 .14l-56.18-.52z"/><path fill="#FFF" d="M1383.1 738.9a10.92 10.92 0 0 0-8.36-.76l-94.85 49.99-53.54 102.3 56.67 39.65a11.01 11.01 0 0 0 14.86-4.65l17.87-34.15 42.32-80.88 29.66-56.69c2.81-5.37.74-12-4.63-14.81z"/><path fill="none" d="M1383.1 738.9a10.92 10.92 0 0 0-8.36-.76l-1.61.85-97.34 186.03 7.24 5.06a11.01 11.01 0 0 0 14.85-4.65l17.87-34.15 42.32-80.88 29.66-56.69c2.82-5.37.74-12-4.63-14.81z"/><path d="m1279.89 788.13-53.54 102.3 49.44 34.59 97.34-186.03z"/><path d="m1279.84 788.05-2.19-1.14a9.27 9.27 0 0 0-12.48 3.9l-11.3 21.58a9.27 9.27 0 0 0 3.92 12.48l2.18 1.14 12.3 6.44 19.86-37.97-12.3-6.43z"/><path fill="#FFF" d="m1294.39 809.94-18.7-6.04 1.23-3.8 14.96 4.83 5.77-16.73 16.83 5.44 5.77-16.73 16.84 5.44 5.13-14.88 3.78 1.3-6.4 18.59-16.85-5.44-5.76 16.73-16.84-5.44z"/><path fill="#FFD829" d="M625.23 551.14c-8.24-10.85-20.69-27.25-23.53-47.13-3.4-23.77 8.47-46.14 35.28-66.48l42.77-32.46c6.27-4.77 13.8-7.39 21.17-7.39 8.58 0 16.2 3.56 20.91 9.76l155.42 204.8-130.5 99.03-121.52-160.13z"/><path d="M700.92 399.68c7.95 0 15 3.27 19.32 8.97l120.5 158.79 18.4 24.23 15.3 20.18-6.55 4.98-96.8 73.45-23.96 18.19-15.31-20.18-18.4-24.24-86.6-114.12c-8.1-10.69-20.37-26.84-23.14-46.2a53.08 53.08 0 0 1 4.64-30.5c5.52-11.78 15.56-23.26 29.86-34.11l42.78-32.46c5.93-4.5 13.02-6.98 19.96-6.98m0-4a37.3 37.3 0 0 0-22.38 7.79l-42.77 32.46c-63.76 48.39-28.31 95.1-12.13 116.42l86.6 114.12 18.4 24.24 17.73 23.36 27.15-20.6 96.79-73.45 9.74-7.4-17.73-23.37-18.4-24.23-120.5-158.79c-5.3-6.98-13.6-10.55-22.5-10.55z"/><path fill="#FFD829" d="m675 408.34-48.69 36.95-38.15-50.27 48.7-36.95z"/><path d="m625.93 448.1-40.57-53.46 51.88-39.37 40.57 53.47-51.88 39.36zm-34.97-52.69 35.73 47.09 45.51-34.53-35.73-47.1-45.5 34.54z"/><path fill="#FFD829" d="M631.37 250.78a31.63 31.63 0 0 0-2.7 2.32 90.47 90.47 0 0 0-138.41 105.03 31.96 31.96 0 0 0-2.96 1.99 31.4 31.4 0 0 0 37.96 50.02 31.55 31.55 0 0 0 5.53-5.38 90.45 90.45 0 0 0 131.87-100.08 31.5 31.5 0 0 0 6.67-3.87 31.4 31.4 0 1 0-37.96-50.03z"/><path d="M506.3 418.53a33.17 33.17 0 0 1-26.63-13.2 33.44 33.44 0 0 1 6.42-46.8 32.45 32.45 0 0 1 1.73-1.23c-13.77-37.78-1.16-80.85 31-105.25a91.6 91.6 0 0 1 55.8-18.8 93.15 93.15 0 0 1 53.9 17.27 32.21 32.21 0 0 1 1.65-1.33 33.1 33.1 0 0 1 20.17-6.8 33.16 33.16 0 0 1 26.62 13.21c5.4 7.1 7.7 15.89 6.49 24.73a33.18 33.18 0 0 1-12.9 22.07 33.61 33.61 0 0 1-5.57 3.42 92.53 92.53 0 0 1-34.41 93.5 91.6 91.6 0 0 1-55.8 18.8 92.94 92.94 0 0 1-43.5-10.82 33.58 33.58 0 0 1-4.8 4.44 33.12 33.12 0 0 1-20.17 6.8zm68.31-181.28a87.64 87.64 0 0 0-53.38 17.99c-31.19 23.66-43.15 65.68-29.1 102.17l.6 1.58-1.45.86a29.37 29.37 0 0 0-2.77 1.86 29.43 29.43 0 0 0-5.65 41.2 29.2 29.2 0 0 0 23.44 11.62c6.46 0 12.6-2.07 17.75-5.98a29.68 29.68 0 0 0 5.18-5.04l1.06-1.31 1.47.81a88.88 88.88 0 0 0 43 11.1 87.63 87.63 0 0 0 53.39-17.99 88.52 88.52 0 0 0 32.57-90.97l-.39-1.64 1.55-.67a29.55 29.55 0 0 0 6.25-3.63 29.2 29.2 0 0 0 11.35-19.42 29.21 29.21 0 0 0-5.7-21.77 29.19 29.19 0 0 0-23.45-11.63c-6.45 0-12.6 2.07-17.75 5.98a29.74 29.74 0 0 0-2.54 2.17l-1.22 1.17-1.35-1.01a89.08 89.08 0 0 0-52.85-17.45z"/><path fill="none" d="m488.58 388.13 28 5.04"/><path d="M516.58 395.17a1.4 1.4 0 0 1-.35-.04l-28-5.03a2 2 0 0 1-1.61-2.32 2 2 0 0 1 2.32-1.61l28 5.03a2 2 0 0 1 1.6 2.32 2 2 0 0 1-1.96 1.65z"/><path fill="none" d="m655.02 261.83-2.7 28.32"/><path d="M652.33 292.15a2 2 0 0 1-2-2.2l2.7-28.31a2 2 0 0 1 3.98.38l-2.69 28.32a2 2 0 0 1-1.99 1.8z"/><circle cx="548.36" cy="357.71" r="11.93"/><path d="M531.63 375.62a2 2 0 0 1-2-1.9 30.9 30.9 0 0 1 12.18-26.1 30.9 30.9 0 0 1 28.41-4.7 2 2 0 0 1 1.27 2.52 2 2 0 0 1-2.53 1.27 26.9 26.9 0 0 0-24.73 4.1 26.9 26.9 0 0 0-10.6 22.72 2 2 0 0 1-1.9 2.1h-.1z"/><circle cx="610.4" cy="310.63" r="11.93"/><path d="M593.66 328.55a2 2 0 0 1-2-1.9 30.9 30.9 0 0 1 12.18-26.1 30.9 30.9 0 0 1 28.41-4.71 2 2 0 0 1 1.27 2.53 2 2 0 0 1-2.52 1.26 26.9 26.9 0 0 0-24.74 4.1 26.9 26.9 0 0 0-10.6 22.72 2 2 0 0 1-1.9 2.1h-.1z"/><path fill="none" d="m580.05 333.78 10.5 13.84"/><path d="M590.55 349.62a2 2 0 0 1-1.6-.8L578.45 335a2 2 0 0 1 3.19-2.42l10.5 13.84a2 2 0 0 1-1.6 3.2z"/><path fill="#FFF" d="M620.93 337.1a30.56 30.56 0 0 1-48.69 36.95l48.7-36.95z"/><path fill="#FFD829" d="M925.7 636.64 774.73 751.2 746.5 714l150.97-114.57z"/><path d="M832.55 772.62c58.4 8.95 80.6-58.96 86.58-75.1l24.14-65.14c5.98-16.14-.37-33.38-14.17-38.5l-59.47-22.02c-13.8-5.11-29.84 3.82-35.83 19.97l-35.44 95.65-23.63 63.7 57.82 21.44z"/><path fill="#FFD829" d="m952.83 600.78-1 2.7-105.73-39.12 21.48-58.06.04.02.78-1.7a56.48 56.48 0 0 1 51.23-32.89 56.14 56.14 0 0 1 24.32 5.55l.08.04 203.04 75.13-39.12 105.72-155.12-57.39z"/><path d="M919.63 473.74a54.14 54.14 0 0 1 23.46 5.35l.16.07.17.07 201.08 74.4-37.73 101.97-151.37-56-3.75-1.39-1 2.7-101.98-37.73 19.93-53.84.05-.12.03-.1.58-1.6.96-2.07a54.48 54.48 0 0 1 49.41-31.72m0-4a58.41 58.41 0 0 0-53.05 34.05l-.17-.07-1.52 4.13-.02.02a.7.7 0 0 1 0 .03l-21.34 57.65 109.48 40.5 1-2.69 155.12 57.4 40.5-109.48-204.82-75.8a58.2 58.2 0 0 0-25.18-5.74z"/><path fill="#FFF" d="m1236.38 490.42-88 61.25-40.58 108.1 61.1 32.4a11.01 11.01 0 0 0 14.18-6.45l13.54-36.08 32.09-85.46 22.48-59.9c2.13-5.68-.74-12-6.42-14.14a10.95 10.95 0 0 0-8.4.28z"/><path fill="none" d="M1244.77 490.14a10.96 10.96 0 0 0-8.4.28l-1.48 1.04-73.79 196.56 7.8 4.14a11.01 11.01 0 0 0 14.18-6.44l13.54-36.08 32.09-85.46 22.48-59.9c2.13-5.68-.74-12-6.42-14.14z"/><path d="m1148.38 551.66-40.58 108.11 53.3 28.25 73.78-196.56z"/><path d="m1148.32 551.6-2.31-.87a9.27 9.27 0 0 0-11.91 5.4l-8.56 22.8a9.27 9.27 0 0 0 5.4 11.91l2.32.87 12.98 4.87 15.06-40.11-12.98-4.88z"/><path fill="#FFF" d="m1165.45 571.66-19.3-3.7.75-3.93 15.45 2.96 3.67-17.3 17.38 3.32 3.66-17.3 17.39 3.32 3.26-15.4 3.92.84-4.08 19.23-17.39-3.33-3.67 17.3-17.37-3.32z"/><path d="m997 794.4-1.47-116.46-65.06.03a2.13 2.13 0 0 1-.08.32l-7.77 21.28a424.54 424.54 0 0 0-.78 2.13c-3.58 9.83-11.03 30.3-24.8 47.46-14.7 18.35-32.3 27.6-52.4 27.6-3.5 0-7.07-.28-10.71-.84a1.94 1.94 0 0 1-1.63-2.21 1.94 1.94 0 0 1 2.22-1.63c54.52 8.36 76.46-51.9 83.67-71.7l.79-2.15 7.18-20.38-86.04-.76-65.38 74.1c31.16 50.6 74.48 42.97 96.8 42.94m83.48-194.43-25.76 69.62-109.13-40.38 25.75-69.61z"/><path fill="#FFD829" d="m761.85 476.03 76.01-58.31a38.2 38.2 0 0 0 16.97-27l17.44-132.37-.08-.01a62.33 62.33 0 0 1 7.6-15.3 57.45 57.45 0 0 0 8.22-17.58 114.62 114.62 0 0 0 3.1-15.85l3.58-26.08 3.78-27.57s-.06 0-.05-.02a11.68 11.68 0 1 0-23.25-2.08l-3.63 26.5-.1-.02 4.8-34.95s-.06 0-.06-.02a11.69 11.69 0 1 0-23.24-2.08l-4.65 33.87h-.1l5.81-42.33s-.06 0-.05-.02a11.69 11.69 0 1 0-23.25-2.08l-5.65 41.25h-.1l4.79-34.95s-.06-.01-.06-.03a11.68 11.68 0 1 0-23.24-2.08l-5.95 43.48-.52.21-2.24-20.22-.06-.01a11.69 11.69 0 1 0-23.06 3.6l5.3 48.26c.03.8.08 1.58.16 2.38a32.95 32.95 0 0 0 9.86 20.16c2.33 2.76 6.33 8.25 6.4 13.59h.02L781 364.83l-65.76 50.44"/><path d="M761.85 478.03a2 2 0 0 1-1.21-3.6l76-58.3.13-.09a36.28 36.28 0 0 0 16.07-25.58l17.39-131.89a1.89 1.89 0 0 1 .07-.89c2.09-6 4.73-11.32 7.86-15.8a55.04 55.04 0 0 0 7.92-16.96c1.23-4.3 2.17-9.11 3.06-15.58l7.29-53.2a1.95 1.95 0 0 1 0-.47c.36-2.56-.3-5.1-1.87-7.17s-3.84-3.39-6.4-3.74a9.7 9.7 0 0 0-11 9.37l-3.64 26.5a2 2 0 0 1-2.21 1.71 2.12 2.12 0 0 1-1.4-.77 2.05 2.05 0 0 1-.45-1.5l4.73-34.5a1.86 1.86 0 0 1 .01-.46 9.7 9.7 0 0 0-8.28-10.92 9.7 9.7 0 0 0-10.9 8.28 9.37 9.37 0 0 0-.08.9 1.83 1.83 0 0 1-.02.2l-4.64 33.87a2 2 0 0 1-2.21 1.72 2.12 2.12 0 0 1-1.4-.77 2.05 2.05 0 0 1-.46-1.5l5.75-41.89a1.95 1.95 0 0 1 0-.46 9.69 9.69 0 0 0-19.19-2.63 9.42 9.42 0 0 0-.07.9 1.43 1.43 0 0 1-.02.19l-5.65 41.26a2 2 0 0 1-2.21 1.71 2.11 2.11 0 0 1-1.4-.77 2.05 2.05 0 0 1-.45-1.5l4.73-34.49v-.07a1.88 1.88 0 0 1 0-.4 9.63 9.63 0 0 0-8.28-10.9 9.63 9.63 0 0 0-7.16 1.87 9.6 9.6 0 0 0-3.81 7.3 2.05 2.05 0 0 1-.02.19l-5.96 43.48a2 2 0 0 1-1.21 1.57l-.5.2a2 2 0 0 1-2.77-1.62l-2.2-19.78a2.1 2.1 0 0 1-.1-.45 9.7 9.7 0 0 0-19.25 2.1 10.25 10.25 0 0 0 .17 1.07l5.3 48.26v.14c.03.85.08 1.56.15 2.24a31.12 31.12 0 0 0 9.26 18.94l.14.15c2.5 2.94 6.66 8.72 6.87 14.56.03.19.03.38 0 .58l-15.35 116.45a2 2 0 0 1-.77 1.33l-65.75 50.43a2 2 0 1 1-2.43-3.17l65.1-49.93 15.2-115.36c-.06-4.81-4.07-10.11-5.87-12.24a35.14 35.14 0 0 1-10.38-21.31 35.19 35.19 0 0 1-.17-2.45l-5.27-48.1a13.7 13.7 0 0 1 11.94-16.25 13.7 13.7 0 0 1 15.02 11.65c.06.15.1.31.12.48l.68 6.14 4.05-29.57a13.6 13.6 0 0 1 5.39-10.22 13.6 13.6 0 0 1 10.13-2.66 13.59 13.59 0 0 1 9.25 5.57 13.7 13.7 0 0 1 15-9.77 13.71 13.71 0 0 1 11.84 13.46 13.66 13.66 0 0 1 10.4-2.89 13.71 13.71 0 0 1 11.83 13.45 13.63 13.63 0 0 1 10.41-2.88 13.6 13.6 0 0 1 9.04 5.28 13.59 13.59 0 0 1 2.72 9.65c.02.17.01.34 0 .5l-7.36 53.65a115.12 115.12 0 0 1-3.17 16.14 59.7 59.7 0 0 1-8.5 18.16 59.82 59.82 0 0 0-7.16 14.29 1.41 1.41 0 0 1-.02.14l-17.44 132.37a40.27 40.27 0 0 1-17.79 28.37l-75.95 58.27a1.99 1.99 0 0 1-1.22.4z"/><path fill="#FFF" d="M641.18 535.34c20.9 27.54 59.92 33.1 87.16 12.43l55.07-41.79-75.68-99.72-55.06 41.79c-27.25 20.67-32.4 59.76-11.5 87.3zM963.05 962.3l-12-.03.66-285.2 12 .04z"/><path fill="none" d="M1315.88 150v55.87"/><path d="M1313.88 150h4v55.87h-4z"/><path fill="none" d="m1335.63 158.19-39.5 39.5"/><path d="m1297.6 199.06-2.83-2.83 39.5-39.5 2.84 2.83z"/><path fill="none" d="M1343.81 177.94h-55.86"/><path d="M1287.95 175.94h55.86v4h-55.86z"/><path fill="none" d="m1335.63 197.7-39.5-39.51"/><path d="m1334.25 199.08-39.5-39.5 2.83-2.83 39.5 39.5z"/><path fill="none" d="M1347.15 99.29v55.86"/><path d="M1345.15 99.29h4v55.86h-4z"/><path fill="none" d="m1366.9 107.47-39.5 39.5"/><path d="m1328.82 148.38-2.83-2.82 39.5-39.5 2.83 2.82z"/><path fill="none" d="M1375.09 127.22h-55.87"/><path d="M1319.22 125.22h55.87v4h-55.87z"/><path fill="none" d="m1366.9 146.97-39.5-39.5"/><path d="m1365.5 148.38-39.5-39.5 2.83-2.84 39.5 39.5z"/><path fill="none" d="M1378.43 150v55.87"/><path d="M1376.43 150h4v55.87h-4z"/><path fill="none" d="m1398.18 158.19-39.5 39.5"/><path d="m1360.13 199.08-2.82-2.83 39.5-39.5 2.82 2.82z"/><path fill="none" d="M1406.36 177.94h-55.86"/><path d="M1350.5 175.94h55.86v4h-55.86z"/><path fill="none" d="m1398.19 197.7-39.5-39.51"/><path d="m1396.8 199.08-39.5-39.5 2.83-2.83 39.5 39.5z"/><path fill="none" d="M1589.45 542.9v55.87"/><path d="M1589.45 600.77a2 2 0 0 1-2-2V542.9a2 2 0 0 1 4 0v55.87a2 2 0 0 1-2 2z"/><path fill="none" d="m1609.2 551.09-39.5 39.5"/><path d="M1569.7 592.59a2 2 0 0 1-1.41-3.42l39.5-39.5a2 2 0 1 1 2.83 2.83l-39.5 39.5a1.99 1.99 0 0 1-1.42.59z"/><path fill="none" d="M1617.38 570.83h-55.86"/><path d="M1617.38 572.83h-55.86a2 2 0 0 1 0-4h55.86a2 2 0 0 1 0 4z"/><path fill="none" d="m1609.2 590.59-39.5-39.5"/><path d="M1609.2 592.59a2 2 0 0 1-1.4-.59l-39.51-39.5a2 2 0 1 1 2.83-2.83l39.5 39.5a2 2 0 0 1-1.41 3.42z"/><path fill="none" d="M1112.2 269.36v55.86"/><path d="M1112.2 327.22a2 2 0 0 1-2-2v-55.86a2 2 0 0 1 4 0v55.86a2 2 0 0 1-2 2z"/><path fill="none" d="m1131.96 277.54-39.5 39.5"/><path d="M1092.46 319.04a2 2 0 0 1-1.42-3.41l39.5-39.5a2 2 0 1 1 2.83 2.82l-39.5 39.5a2 2 0 0 1-1.41.6z"/><path fill="none" d="M1140.14 297.29h-55.87"/><path d="M1140.14 299.29h-55.87a2 2 0 0 1 0-4h55.87a2 2 0 0 1 0 4z"/><path fill="none" d="m1131.96 317.04-39.5-39.5"/><path d="M1131.96 319.04a2 2 0 0 1-1.42-.58l-39.5-39.5a2 2 0 1 1 2.83-2.84l39.5 39.5a2 2 0 0 1-1.41 3.42zm-647.66 6.94a90.9 90.9 0 0 0 4.14 27.24l4.26 5.61 91.15-69.16-14.44-32.74 28.05 22.4 33.1-25.12-.74-.98a90.95 90.95 0 0 0-145.53 72.75z"/></svg>
