<?xml version="1.0" encoding="utf-8"?>
<!-- Generator: Adobe Illustrator 16.0.0, SVG Export Plug-In . SVG Version: 6.00 Build 0)  -->
<!DOCTYPE svg PUBLIC "-//W3C//DTD SVG 1.1//EN" "http://www.w3.org/Graphics/SVG/1.1/DTD/svg11.dtd">
<svg version="1.1" id="Layer_1" xmlns="http://www.w3.org/2000/svg" xmlns:xlink="http://www.w3.org/1999/xlink" x="0px" y="0px"
	 width="1920px" height="1080px" viewBox="0 0 1920 1080" enable-background="new 0 0 1920 1080" xml:space="preserve">
<g>
	<g>
		<g>
			
				<rect x="-41.39" y="523.095" transform="matrix(0.0017 1 -1 0.0017 924.0145 132.6353)" fill="#FFFFFF" width="873.939" height="12"/>
		</g>
		<g>
			<g>
				<polygon fill="#FFFFFF" points="774.722,178.767 743.484,153.362 685.283,91.281 688.201,88.545 746.31,150.527 
					777.245,175.662 				"/>
			</g>
			<g>
				<polygon fill="#FFFFFF" points="1277.242,991.68 1171.841,911.654 1171.715,910.862 1140.733,717.233 1014.876,504.243 
					945.244,409.466 860.078,339.785 862.611,336.689 948.168,406.69 948.318,406.894 1018.218,502.036 1144.563,715.853 
					1144.623,716.227 1175.538,909.438 1279.66,988.494 				"/>
			</g>
			<g>
				<polygon fill="#FFFFFF" points="461.305,271.224 343.787,174.682 300.937,108.46 304.295,106.287 346.807,171.987 
					463.844,268.133 				"/>
			</g>
			<g>
				
					<rect x="677.538" y="300.346" transform="matrix(0.9741 0.2261 -0.2261 0.9741 87.3635 -157.9891)" fill="#FFFFFF" width="111.531" height="4"/>
			</g>
			<g>
				<polygon fill="#FFFFFF" points="894.677,194.704 893.974,190.766 947.809,181.153 1034.72,113.555 1037.175,116.712 
					949.484,184.917 				"/>
			</g>
			<g>
				<polygon fill="#FFFFFF" points="1492.018,487.711 1390.002,475.94 1304.137,382.269 1307.086,379.566 1391.943,472.138 
					1491.689,483.647 1594.131,454.654 1595.221,458.503 				"/>
			</g>
			<g>
				<polygon fill="#FFFFFF" points="1529.626,299.517 1437.49,297.556 1437.576,293.557 1527.804,295.477 1569.869,245.764 
					1572.922,248.348 				"/>
			</g>
		</g>
		<g>
			<path fill="#FFFFFF" d="M952.035,682.015c-0.091-1.399-0.172-2.728-0.249-3.997c-0.968-15.967-1.26-20.786-16.507-37.416
				c-14.059-15.337-30.716-28.652-46.826-41.529c-14.612-11.681-29.723-23.759-43.168-37.501
				c-26.392-26.97-51.391-63.316-72.364-95.313c-3.605-5.5-7.246-11.025-10.898-16.568c-9.898-15.023-20.134-30.558-29.854-45.899
				c-5.23-8.254-10.156-16.918-14.919-25.296c-8.856-15.577-18.014-31.684-29.323-45.434
				c-34.472-41.909-82.205-69.737-124.24-92.532c-9.721-5.271-19.732-10.444-29.414-15.446
				c-57.842-29.884-117.654-60.786-144.842-128.37l11.133-4.479c25.524,63.448,80.749,91.98,139.217,122.188
				c9.734,5.029,19.8,10.229,29.627,15.558c43.031,23.334,91.942,51.879,127.787,95.458c11.965,14.546,21.381,31.109,30.487,47.126
				c4.694,8.255,9.547,16.792,14.624,24.805c9.662,15.251,19.868,30.74,29.737,45.719c3.657,5.551,7.303,11.084,10.914,16.592
				c20.656,31.513,45.234,67.265,70.905,93.499c12.934,13.219,27.753,25.064,42.084,36.521
				c16.466,13.162,33.493,26.772,48.179,42.793c18.121,19.767,18.597,27.611,19.64,44.799c0.075,1.251,0.154,2.561,0.245,3.938
				L952.035,682.015z"/>
		</g>
		<g>
			<g>
				<path fill="#FFD829" d="M576.083,271.328c-6.027-2.032-12.566,1.21-14.6,7.238c-0.002,0.006-0.004,0.011-0.006,0.017
					l-0.051-0.02l-9.586,28.431c-0.146-0.105-0.299-0.205-0.45-0.309l2.306-28.499c0.062-0.353,0.11-0.707,0.141-1.071
					c0.028-0.365,0.037-0.723,0.032-1.081l0.03-0.373l-0.048-0.005c-0.258-5.715-4.725-10.482-10.573-10.956
					c-5.854-0.472-11.026,3.516-12.196,9.117l-0.154-0.013l-1.735,21.495l-0.097-0.006l1.53-18.971
					c0.062-0.352,0.114-0.706,0.143-1.071c0.512-6.345-4.216-11.903-10.559-12.413c-6.345-0.51-11.9,4.216-12.415,10.559
					c-0.001,0.005,0,0.009-0.001,0.014l-0.053-0.005l-1.619,20.032l-0.096-0.007l1.532-18.969c0.062-0.353,0.111-0.709,0.14-1.072
					c0.514-6.346-4.213-11.905-10.559-12.416c-6.1-0.493-11.461,3.867-12.316,9.843l-0.092-0.007l-1.677,20.763l-0.098-0.007
					l1.533-18.969c0.062-0.352,0.112-0.708,0.143-1.072c0.51-6.343-4.216-11.899-10.56-12.413
					c-6.344-0.512-11.903,4.217-12.416,10.56c0,0.004,0.003,0.008,0.002,0.011l-0.055-0.003l-1.618,20.029l-2.09,25.879
					l-1.671,20.689c-0.94,5.936,0.614,11.863,4.033,16.514c3.667,6.241,5.126,13.336,5.199,13.69l-10.055,133.021
					c-1.591,21.086,14.207,39.473,35.294,41.064c0.803,0.061,1.602,0.087,2.398,0.097l130.586,9.871l5.772-76.359l-94.8-7.165
					l7.056-93.39c1.252-5.072,5.513-10.18,8.313-12.313c6.248-3.855,11.238-9.831,13.769-17.332c0.254-0.749,0.466-1.5,0.662-2.253
					l18.474-54.793c0.144-0.324,0.278-0.654,0.394-0.999C585.356,279.9,582.114,273.363,576.083,271.328z"/>
				<path d="M623.684,552.534c-0.05,0-0.102-0.002-0.153-0.006l-130.522-9.866c-0.905-0.012-1.71-0.045-2.461-0.102
					c-22.149-1.671-38.809-21.055-37.138-43.209l10.033-132.734c-0.322-1.46-1.763-7.423-4.857-12.728
					c-3.73-5.123-5.312-11.618-4.346-17.849l5.373-66.523c0.014-0.168,0.048-0.33,0.1-0.483c0.83-7.104,7.229-12.507,14.523-11.917
					c4.891,0.396,8.97,3.362,11.018,7.462c2.679-3.713,7.175-5.989,12.049-5.6c3.601,0.291,6.874,1.966,9.214,4.718
					c0.721,0.847,1.326,1.765,1.811,2.735c2.678-3.692,7.161-5.977,12.045-5.588c3.601,0.29,6.873,1.965,9.213,4.716
					c0.718,0.845,1.323,1.76,1.807,2.727c2.689-3.714,7.189-5.968,12.049-5.581c6.625,0.537,11.875,5.842,12.384,12.426
					c0.064,0.219,0.089,0.452,0.07,0.691l-0.023,0.282c0.003,0.386-0.009,0.772-0.039,1.165c-0.034,0.403-0.084,0.786-0.148,1.167
					l-1.161,14.346l5.01-14.858c0.054-0.162,0.129-0.314,0.221-0.455c1.993-5.261,7.012-8.748,12.651-8.748
					c1.466,0,2.918,0.239,4.318,0.711c3.424,1.155,6.193,3.574,7.797,6.81c1.604,3.237,1.853,6.905,0.697,10.327
					c-0.124,0.37-0.268,0.729-0.422,1.083l-18.423,54.642c-0.237,0.905-0.456,1.645-0.686,2.323
					c-2.564,7.601-7.72,14.109-14.524,18.336c-2.44,1.892-6.294,6.476-7.47,10.989l-6.892,91.223l92.806,7.015
					c0.529,0.04,1.02,0.288,1.366,0.69s0.518,0.925,0.478,1.455l-5.772,76.358C625.597,551.735,624.72,552.534,623.684,552.534z
					 M463.561,270.302l-5.341,66.136c-0.004,0.051-0.01,0.102-0.018,0.152c-0.831,5.241,0.507,10.714,3.669,15.017
					c0.041,0.055,0.079,0.112,0.113,0.171c3.714,6.32,5.268,13.497,5.433,14.294c0.038,0.183,0.051,0.374,0.037,0.56
					l-10.055,133.021c-1.505,19.955,13.5,37.414,33.45,38.919c0.683,0.051,1.426,0.081,2.271,0.091c0.042,0,0.085,0.002,0.127,0.006
					l128.591,9.72l5.471-72.37l-92.806-7.015c-1.101-0.083-1.927-1.043-1.843-2.145l7.056-93.39
					c0.008-0.111,0.026-0.221,0.052-0.329c1.291-5.229,5.623-10.819,9.043-13.425c0.052-0.04,0.106-0.077,0.162-0.111
					c6.055-3.736,10.645-9.514,12.924-16.269c0.208-0.614,0.399-1.266,0.622-2.119c0.012-0.045,0.025-0.09,0.041-0.135
					l18.474-54.793c0.02-0.058,0.042-0.115,0.066-0.171c0.118-0.267,0.23-0.539,0.325-0.823c0.815-2.415,0.641-4.997-0.489-7.276
					s-3.08-3.983-5.492-4.797c-0.986-0.333-2.009-0.501-3.04-0.501c-4.09,0-7.717,2.605-9.025,6.483
					c-0.05,0.149-0.118,0.292-0.201,0.424l-9.442,28.004c-0.203,0.601-0.678,1.07-1.282,1.265c-0.601,0.194-1.263,0.092-1.779-0.278
					l-0.417-0.286c-0.59-0.406-0.919-1.096-0.861-1.81l2.306-28.499c0.005-0.062,0.013-0.122,0.023-0.183
					c0.051-0.294,0.092-0.589,0.118-0.893c0.023-0.292,0.03-0.59,0.025-0.888c0-0.042,0-0.084,0.002-0.126
					c-0.009-0.062-0.015-0.125-0.018-0.188c-0.215-4.775-3.971-8.667-8.737-9.053c-4.775-0.388-9.109,2.897-10.077,7.532
					c-0.038,0.181-0.1,0.352-0.181,0.509l-1.673,20.725c-0.087,1.085-1.038,1.917-2.115,1.835c-0.537-0.032-1.085-0.282-1.438-0.688
					c-0.353-0.406-0.575-0.939-0.532-1.475l1.53-18.971c0.005-0.063,0.013-0.127,0.024-0.189c0.051-0.288,0.095-0.577,0.118-0.875
					c0.205-2.542-0.59-5.006-2.238-6.944c-1.648-1.938-3.952-3.117-6.486-3.321c-5.243-0.426-9.838,3.555-10.261,8.72
					c-0.005,0.076-0.015,0.152-0.029,0.226c-0.016,0.085-0.037,0.167-0.062,0.248l-1.582,19.575
					c-0.088,1.094-1.036,1.92-2.136,1.834c-0.532-0.038-1.075-0.291-1.423-0.696s-0.567-0.935-0.524-1.467l1.532-18.969
					c0.005-0.063,0.013-0.126,0.024-0.188c0.051-0.289,0.092-0.582,0.115-0.879c0.206-2.542-0.588-5.007-2.236-6.945
					s-3.953-3.118-6.489-3.322c-5.021-0.402-9.473,3.223-10.176,8.133c-0.023,0.165-0.067,0.322-0.126,0.47l-1.628,20.164
					c-0.089,1.092-1.053,1.911-2.133,1.834c-0.533-0.037-1.078-0.29-1.426-0.695c-0.348-0.405-0.569-0.936-0.526-1.468l1.533-18.969
					c0.005-0.062,0.013-0.123,0.023-0.184c0.051-0.293,0.094-0.59,0.12-0.893c0.42-5.228-3.495-9.83-8.728-10.254
					c-5.211-0.416-9.795,3.518-10.254,8.647c-0.006,0.167-0.032,0.332-0.079,0.493C463.573,270.264,463.567,270.283,463.561,270.302
					z"/>
			</g>
			<g>
				<g>
					<g>
						<path fill="#FFFFFF" d="M817.147,751.628c15.057,19.84,11.18,48.13-8.661,63.187c-19.842,15.058-48.133,11.179-63.189-8.661
							c-15.057-19.841-11.179-48.133,8.662-63.188c3.41-2.588,7.07-4.618,10.87-6.103
							C783.134,729.712,804.677,735.196,817.147,751.628z"/>
					</g>
					<g>
						<polygon fill="#FFFFFF" points="743.822,756.755 713.751,740.911 746.409,714.074 765.162,738.647 						"/>
					</g>
				</g>
				<g>
					<g>
						<g>
							<g>
								<path fill="#FFD829" d="M1041.56,793.108l-44.029-0.692V679.962l54.249,0.499l0.079-0.006
									c1.266-0.089,2.56-0.134,3.846-0.134c1.627,0,3.288,0.072,4.938,0.214l0.188,0.008l0.424,0.055
									c7.141,0.699,14,2.728,20.386,6.029c1.464,0.759,2.933,1.609,4.487,2.6l0.076,0.048l192.29,99.467l-51.795,100.129
									L1041.56,793.108z"/>
							</g>
							<g>
								<path d="M999.53,681.98l52.15,0.479l0.159,0.001l0.158-0.011c1.22-0.086,2.467-0.129,3.706-0.129
									c1.504,0,3.039,0.063,4.565,0.19l0.789,0.077c6.888,0.673,13.503,2.63,19.659,5.813c1.413,0.731,2.831,1.553,4.335,2.511
									l0.151,0.097l0.159,0.082l190.435,98.507l-49.957,96.576l-182.944-94.627l-0.835-0.432l-0.94-0.015l-41.591-0.654V681.98
									 M995.53,677.943v116.441l45.528,0.716l186.497,96.465l53.633-103.682l-193.987-100.345
									c-1.497-0.953-3.037-1.856-4.643-2.688c-6.786-3.509-13.943-5.542-21.11-6.243l0.002-0.059l-0.637-0.006
									c-1.705-0.147-3.409-0.222-5.109-0.222c-1.333,0-2.662,0.046-3.986,0.139L995.53,677.943L995.53,677.943z"/>
							</g>
						</g>
						<g>
							<g>
								<defs>
									<path id="SVGID_1_" d="M1374.738,738.143v-0.002l-94.85,49.986l-53.534,102.312l56.67,39.642
										c5.384,2.817,12.04,0.735,14.858-4.65l17.868-34.15l42.324-80.882l29.659-56.686c2.812-5.371,0.737-12.006-4.636-14.817
										C1380.414,737.491,1377.415,737.303,1374.738,738.143z"/>
								</defs>
								<use xlink:href="#SVGID_1_"  overflow="visible" fill="#FFFFFF"/>
								<clipPath id="SVGID_2_">
									<use xlink:href="#SVGID_1_"  overflow="visible"/>
								</clipPath>
								<g clip-path="url(#SVGID_2_)">
									<polygon points="1375.977,733.546 1274.512,927.453 1212.236,884.88 1309.602,698.813 									"/>
								</g>
							</g>
							<g>
								<path d="M1279.838,788.049l-2.187-1.143c-4.507-2.362-10.124-0.603-12.481,3.905l-11.291,21.579
									c-2.359,4.505-0.603,10.122,3.906,12.478l2.187,1.146l12.29,6.431l19.864-37.965L1279.838,788.049z"/>
							</g>
							<g>
								<polygon fill="#FFFFFF" points="1294.389,809.941 1275.688,803.9 1276.919,800.094 1291.885,804.93 1297.646,788.203 
									1314.484,793.639 1320.248,776.912 1337.091,782.347 1342.223,767.469 1346.004,768.773 1339.593,787.356 1322.752,781.924 
									1316.988,798.65 1300.149,793.215 								"/>
							</g>
						</g>
					</g>
				</g>
				<g>
					<g>
						<path fill="#FFD829" d="M625.232,551.14c-8.237-10.853-20.686-27.253-23.527-47.133c-3.398-23.773,8.47-46.142,35.274-66.483
							l42.774-32.46c6.271-4.76,13.789-7.381,21.168-7.381c8.584,0,16.206,3.557,20.912,9.758l155.418,204.794l-130.499,99.037
							L625.232,551.14z"/>
					</g>
					<g>
						<path d="M700.921,399.682c7.953,0,14.995,3.268,19.319,8.967l120.501,158.787l18.394,24.235l15.314,20.18l-6.561,4.979
							l-96.79,73.452l-23.963,18.188l-15.315-20.181l-18.392-24.235l-86.605-114.123c-8.112-10.688-20.372-26.84-23.14-46.207
							c-1.496-10.463,0.064-20.722,4.637-30.492c5.516-11.783,15.564-23.261,29.866-34.115l42.775-32.461
							C686.888,402.159,693.976,399.682,700.921,399.682 M700.921,395.682c-7.541,0-15.496,2.565-22.377,7.788l-42.774,32.46
							c-63.762,48.389-28.314,95.097-12.131,116.418l86.604,114.123l18.392,24.235l17.733,23.367l27.149-20.605l96.789-73.452
							l9.747-7.398l-17.732-23.365l-18.394-24.235L723.427,406.231C718.128,399.249,709.812,395.682,700.921,395.682
							L700.921,395.682z"/>
					</g>
				</g>
				<g>
					<g>
						
							<rect x="601.02" y="370.135" transform="matrix(0.7966 -0.6045 0.6045 0.7966 -114.3615 463.4833)" fill="#FFD829" width="61.125" height="63.109"/>
						<path d="M625.927,448.103l-40.569-53.458l51.878-39.372l40.571,53.462L625.927,448.103z M590.962,395.413l35.733,47.085
							l45.507-34.532l-35.735-47.089L590.962,395.413z"/>
					</g>
					<g>
						<g id="XMLID_20_">
							<path fill="#FFD829" d="M631.373,250.781c-0.959,0.727-1.859,1.505-2.71,2.316c-31.474-23.426-75.822-24.362-108.644,0.546
								s-43.854,67.873-29.76,104.488c-1.011,0.602-2.003,1.259-2.962,1.987c-13.814,10.483-16.514,30.181-6.031,43.996
								c10.484,13.814,30.182,16.514,43.996,6.03c2.104-1.598,3.947-3.41,5.53-5.381c30.38,16.844,69.112,15.306,98.563-7.044
								c29.45-22.35,41.354-59.239,33.31-93.034c2.325-0.994,4.566-2.279,6.671-3.877c13.815-10.483,16.515-30.181,6.03-43.996
								C664.885,242.998,645.188,240.298,631.373,250.781z"/>
							<path d="M506.303,418.533c-10.552,0-20.258-4.815-26.63-13.21c-11.133-14.671-8.255-35.665,6.416-46.798
								c0.546-0.415,1.124-0.823,1.726-1.221c-13.763-37.782-1.157-80.854,30.996-105.254
								c16.211-12.302,35.508-18.805,55.805-18.805c19.261,0,38.337,6.124,53.91,17.275c0.545-0.473,1.093-0.918,1.641-1.333
								c5.857-4.445,12.831-6.795,20.167-6.795c10.552,0,20.258,4.815,26.628,13.21c5.394,7.107,7.697,15.889,6.485,24.728
								s-5.792,16.677-12.9,22.07c-1.736,1.318-3.603,2.466-5.567,3.425c7.71,35.144-5.687,71.686-34.413,93.487
								c-16.208,12.3-35.506,18.803-55.799,18.803c-0.001,0,0.001,0,0,0c-15.161,0-30.162-3.736-43.497-10.818
								c-1.449,1.63-3.057,3.119-4.797,4.44C520.613,416.183,513.639,418.533,506.303,418.533z M574.615,237.245
								c-19.416,0-37.877,6.221-53.387,17.992c-31.183,23.664-43.15,65.681-29.102,102.176l0.606,1.574l-1.45,0.863
								c-1.01,0.601-1.917,1.209-2.775,1.861c-12.914,9.8-15.448,28.279-5.648,41.194c5.608,7.39,14.153,11.628,23.443,11.628
								c6.456,0,12.593-2.069,17.75-5.982c1.925-1.462,3.668-3.158,5.18-5.041l1.056-1.314l1.474,0.817
								c13.099,7.263,27.969,11.102,43.003,11.102c19.415,0,37.874-6.221,53.382-17.99c27.903-21.176,40.688-56.887,32.573-90.978
								l-0.39-1.64l1.55-0.663c2.226-0.952,4.328-2.173,6.248-3.631c6.256-4.748,10.289-11.647,11.355-19.427
								c1.066-7.781-0.961-15.511-5.709-21.767c-5.607-7.39-14.152-11.628-23.442-11.628c-6.455,0-12.593,2.069-17.75,5.982
								c-0.847,0.642-1.701,1.372-2.539,2.17l-1.221,1.164l-1.353-1.007C612.345,243.444,593.574,237.245,574.615,237.245z"/>
						</g>
						<g>
							<line fill="#FFD829" x1="488.585" y1="388.132" x2="516.581" y2="393.166"/>
							<path d="M516.583,395.167c-0.118,0-0.237-0.011-0.356-0.032l-27.996-5.034c-1.087-0.195-1.81-1.235-1.614-2.322
								c0.195-1.087,1.236-1.81,2.322-1.614l27.996,5.034c1.087,0.195,1.81,1.235,1.614,2.322
								C518.375,394.487,517.533,395.167,516.583,395.167z"/>
						</g>
						<g>
							<line fill="#FFD829" x1="655.016" y1="261.829" x2="652.329" y2="290.147"/>
							<path d="M652.332,292.147c-0.063,0-0.127-0.003-0.191-0.009c-1.1-0.104-1.906-1.081-1.802-2.18l2.687-28.319
								c0.104-1.1,1.082-1.908,2.18-1.802c1.1,0.104,1.906,1.081,1.802,2.18l-2.687,28.319
								C654.222,291.372,653.351,292.147,652.332,292.147z"/>
						</g>
					</g>
					<g>
						<g>
							<circle cx="548.363" cy="357.71" r="11.932"/>
						</g>
						<g>
							<path d="M531.627,375.623c-1.061,0-1.945-0.834-1.996-1.905c-0.486-10.185,4.066-19.941,12.177-26.098
								c8.108-6.154,18.729-7.914,28.412-4.707c1.048,0.347,1.617,1.479,1.27,2.527c-0.347,1.05-1.476,1.62-2.527,1.27
								c-8.43-2.792-17.678-1.26-24.736,4.097c-7.061,5.359-11.023,13.853-10.6,22.721c0.053,1.103-0.799,2.04-1.902,2.093
								C531.692,375.622,531.66,375.623,531.627,375.623z"/>
						</g>
					</g>
					<g>
						<g>
							<circle cx="610.396" cy="310.634" r="11.932"/>
						</g>
						<g>
							<path d="M593.659,328.547c-1.061,0-1.945-0.834-1.996-1.905c-0.485-10.188,4.067-19.944,12.178-26.1
								c8.111-6.154,18.733-7.913,28.413-4.705c1.048,0.348,1.617,1.479,1.269,2.528c-0.348,1.048-1.48,1.615-2.528,1.269
								c-8.428-2.794-17.676-1.264-24.736,4.094c-7.06,5.358-11.023,13.853-10.601,22.723c0.053,1.104-0.799,2.041-1.902,2.093
								C593.723,328.547,593.69,328.547,593.659,328.547z"/>
						</g>
					</g>
					<g>
						<line fill="#FFD829" x1="580.046" y1="333.779" x2="590.548" y2="347.619"/>
						<path d="M590.549,349.619c-0.604,0-1.201-0.272-1.595-0.791l-10.502-13.839c-0.667-0.88-0.496-2.134,0.384-2.802
							c0.879-0.667,2.134-0.496,2.802,0.384l10.502,13.839c0.667,0.88,0.496,2.134-0.384,2.802
							C591.396,349.486,590.971,349.619,590.549,349.619z"/>
					</g>
					<g>
						<path fill="#FFFFFF" d="M620.933,337.099c10.203,13.445,7.575,32.617-5.871,42.821c-13.444,10.203-32.617,7.578-42.82-5.868
							L620.933,337.099z"/>
					</g>
				</g>
				<g>
					
						<rect x="741.342" y="651.942" transform="matrix(0.7966 -0.6045 0.6045 0.7966 -238.1605 642.799)" fill="#FFD829" width="189.51" height="46.712"/>
				</g>
				<g>
					<g>
						<path d="M832.553,772.618c58.39,8.951,80.591-58.957,86.572-75.101l24.146-65.139c5.979-16.142-0.366-33.375-14.17-38.488
							l-59.469-22.033c-13.804-5.112-29.845,3.826-35.827,19.97l-35.446,95.651l0,0l-23.632,63.696L832.553,772.618z"/>
					</g>
					<g>
						<g>
							<g>
								<path fill="#FFD829" d="M952.833,600.781l-0.999,2.697l-105.729-39.121l21.479-58.052l0.034,0.013l0.781-1.706
									c9.143-19.972,29.254-32.877,51.235-32.877c6.66,0,13.235,1.183,19.542,3.517c1.555,0.574,3.116,1.238,4.773,2.028
									l0.082,0.039l203.038,75.127l-39.121,105.729L952.833,600.781z"/>
							</g>
							<g>
								<path d="M919.634,473.735c6.423,0,12.764,1.141,18.849,3.393c1.497,0.553,3.002,1.193,4.604,1.958l0.164,0.078l0.17,0.063
									l201.077,74.401l-37.732,101.977L955.402,599.6l-3.75-1.388l-0.999,2.697l-101.979-37.733l19.921-53.84l0.05-0.115
									l0.033-0.111l0.586-1.583l0.953-2.082C879.036,486.182,898.433,473.735,919.634,473.735 M919.634,469.735
									c-22.32,0-43.375,12.903-53.054,34.044l-0.171-0.065l-1.524,4.122c-0.003,0.01-0.007,0.017-0.011,0.027
									c-0.003,0.009-0.006,0.017-0.009,0.026l-21.331,57.65l109.48,40.509l0.999-2.697l155.115,57.394l40.509-109.479
									l-204.828-75.79c-1.601-0.764-3.243-1.472-4.94-2.099C933.196,470.907,926.355,469.735,919.634,469.735L919.634,469.735z"/>
							</g>
						</g>
						<g>
							<g>
								<defs>
									<path id="SVGID_3_" d="M1236.379,490.422L1236.379,490.422l-88.001,61.243l-40.581,108.107l61.106,32.389
										c5.689,2.138,12.038-0.746,14.176-6.438l13.544-36.084l32.082-85.463l22.483-59.894c2.131-5.678-0.743-12.008-6.419-14.14
										C1241.934,489.078,1238.934,489.264,1236.379,490.422z"/>
								</defs>
								<use xlink:href="#SVGID_3_"  overflow="visible" fill="#FFFFFF"/>
								<clipPath id="SVGID_4_">
									<use xlink:href="#SVGID_3_"  overflow="visible"/>
								</clipPath>
								<g clip-path="url(#SVGID_4_)">
									<polygon points="1237.045,485.708 1160.134,690.599 1093.106,655.987 1166.908,459.38 									"/>
								</g>
							</g>
							<g>
								<path d="M1148.317,551.593l-2.312-0.866c-4.761-1.788-10.121,0.646-11.907,5.407l-8.558,22.802
									c-1.789,4.759,0.645,10.118,5.407,11.907l2.31,0.867l12.987,4.873l15.058-40.115L1148.317,551.593z"/>
							</g>
							<g>
								<polygon fill="#FFFFFF" points="1165.449,571.657 1146.15,567.955 1146.904,564.027 1162.35,566.989 1166.018,549.684 
									1183.396,553.012 1187.063,535.705 1204.446,539.031 1207.715,523.636 1211.627,524.466 1207.546,543.696 1190.163,540.371 
									1186.495,557.678 1169.117,554.35 								"/>
							</g>
						</g>
					</g>
				</g>
				<g>
					<path d="M996.991,794.397l-1.461-116.454l-65.055,0.03c-0.021,0.106-0.044,0.214-0.082,0.319l-7.775,21.278
						c-0.236,0.638-0.494,1.347-0.778,2.128c-3.581,9.836-11.031,30.303-24.793,47.468c-14.706,18.343-32.301,27.593-52.416,27.593
						c-3.492,0-7.06-0.279-10.703-0.837c-1.059-0.162-1.785-1.152-1.623-2.212c0.162-1.059,1.146-1.783,2.212-1.624
						c54.524,8.357,76.467-51.91,83.677-71.714c0.287-0.789,0.548-1.506,0.783-2.143l7.183-20.373l-86.041-0.764l-65.383,74.091
						c31.162,50.611,74.48,42.977,96.799,42.95"/>
				</g>
				<g>
					
						<rect x="850.477" y="556.169" transform="matrix(0.347 -0.9379 0.9379 0.347 3.4064 1233.5869)" width="74.223" height="116.357"/>
				</g>
			</g>
			<g>
				<path fill="#FFD829" d="M761.853,476.026l76.01-58.309c8.98-5.898,15.446-15.511,16.963-26.998l17.447-132.371l-0.08-0.009
					c1.863-5.375,4.344-10.642,7.605-15.304c3.958-5.658,6.469-11.471,8.209-17.569c1.441-5.067,2.354-10.328,3.111-15.857
					l3.575-26.079l3.777-27.566c0,0-0.057-0.008-0.053-0.023c0.877-6.39-3.595-12.284-9.988-13.16
					c-6.394-0.878-12.285,3.595-13.163,9.986c-0.051,0.37-0.078,0.731-0.095,1.093l-3.63,26.494l-0.099-0.012l4.791-34.947
					c0,0-0.055-0.008-0.051-0.021c0.875-6.392-3.596-12.284-9.988-13.164c-6.393-0.873-12.286,3.598-13.162,9.99
					c-0.052,0.366-0.08,0.73-0.094,1.093l-4.645,33.873l-0.099-0.011L854,134.832c0,0-0.056-0.009-0.052-0.021
					c0.875-6.392-3.598-12.286-9.99-13.164c-6.392-0.874-12.286,3.597-13.161,9.989c-0.051,0.367-0.079,0.729-0.095,1.09
					l-5.654,41.256l-0.098-0.011l4.79-34.945c0,0-0.054-0.009-0.055-0.023c0.879-6.394-3.593-12.286-9.986-13.161
					c-6.393-0.876-12.286,3.596-13.161,9.989c-0.049,0.365-0.079,0.729-0.094,1.092l-5.959,43.479
					c-0.17,0.071-0.345,0.136-0.514,0.208l-2.242-20.22c0,0-0.054,0.006-0.055-0.011c-0.698-6.414-6.466-11.048-12.88-10.351
					c-6.414,0.699-11.049,6.465-10.351,12.881c0.041,0.365,0.101,0.72,0.172,1.074l5.294,48.26c0.029,0.788,0.077,1.578,0.163,2.377
					c0.869,7.977,4.507,14.98,9.854,20.162c2.331,2.753,6.337,8.249,6.403,13.585l0.021,0.002l-15.354,116.463l-65.751,50.433"/>
				<path d="M761.854,478.026c-0.601,0-1.194-0.27-1.588-0.783c-0.672-0.876-0.507-2.132,0.37-2.804l76.01-58.309
					c0.039-0.03,0.079-0.058,0.12-0.085c8.837-5.804,14.697-15.13,16.078-25.587l17.383-131.886c-0.044-0.296-0.022-0.6,0.077-0.888
					c2.082-6.006,4.725-11.32,7.856-15.795c3.55-5.075,6.068-10.468,7.924-16.971c1.225-4.306,2.167-9.112,3.053-15.58l7.292-53.198
					c-0.016-0.156-0.013-0.314,0.008-0.47l0,0c0.352-2.562-0.316-5.106-1.879-7.167c-1.564-2.061-3.836-3.388-6.399-3.739
					c-5.282-0.726-10.184,2.987-10.91,8.277c-0.042,0.309-0.064,0.611-0.078,0.913c-0.003,0.06-0.008,0.12-0.017,0.18l-3.63,26.494
					c-0.148,1.08-1.134,1.84-2.217,1.714c-0.533-0.063-1.067-0.344-1.396-0.769c-0.329-0.424-0.521-0.969-0.449-1.5l4.731-34.507
					c-0.015-0.153-0.012-0.307,0.009-0.46v0c0.724-5.289-2.99-10.183-8.279-10.911c-5.289-0.725-10.184,2.992-10.908,8.28
					c-0.043,0.306-0.065,0.603-0.077,0.897c-0.002,0.066-0.008,0.131-0.017,0.196l-4.645,33.873
					c-0.148,1.077-1.134,1.835-2.208,1.716c-0.535-0.061-1.072-0.341-1.402-0.766c-0.331-0.425-0.525-0.971-0.452-1.504
					l5.743-41.882c-0.015-0.154-0.012-0.31,0.009-0.464l0,0c0.724-5.291-2.991-10.185-8.281-10.911
					c-5.293-0.727-10.184,2.991-10.908,8.279c-0.042,0.307-0.065,0.606-0.078,0.906c-0.002,0.062-0.008,0.124-0.017,0.185
					l-5.654,41.256c-0.148,1.078-1.132,1.837-2.21,1.715c-0.535-0.062-1.07-0.341-1.4-0.766c-0.33-0.425-0.523-0.971-0.45-1.503
					l4.728-34.49c-0.002-0.023-0.004-0.046-0.006-0.069c-0.01-0.137-0.005-0.274,0.014-0.41c0.353-2.562-0.314-5.108-1.878-7.168
					c-1.563-2.06-3.835-3.388-6.398-3.738c-2.563-0.35-5.109,0.317-7.169,1.88c-2.061,1.564-3.389,3.836-3.739,6.398
					c-0.04,0.297-0.064,0.6-0.077,0.902c-0.003,0.064-0.008,0.127-0.017,0.191l-5.959,43.479c-0.096,0.703-0.558,1.302-1.212,1.575
					l-0.5,0.203c-0.584,0.246-1.248,0.205-1.792-0.114c-0.546-0.319-0.908-0.878-0.978-1.506l-2.194-19.783
					c-0.051-0.146-0.086-0.297-0.104-0.452l0,0c-0.578-5.307-5.362-9.153-10.675-8.579c-5.308,0.578-9.156,5.368-8.579,10.676
					c0.034,0.299,0.084,0.598,0.144,0.896c0.012,0.059,0.021,0.118,0.028,0.177l5.294,48.26c0.005,0.048,0.009,0.096,0.01,0.144
					c0.032,0.85,0.08,1.561,0.153,2.238c0.783,7.187,4.071,13.914,9.257,18.94c0.047,0.045,0.092,0.094,0.134,0.144
					c2.496,2.948,6.667,8.72,6.87,14.567c0.031,0.188,0.036,0.381,0.01,0.573L782.98,365.094c-0.069,0.526-0.345,1.003-0.766,1.326
					l-65.751,50.433c-0.877,0.672-2.132,0.506-2.804-0.37c-0.672-0.876-0.507-2.132,0.37-2.804l65.094-49.929l15.208-115.358l0,0
					c-0.06-4.812-4.073-10.112-5.868-12.244c-5.813-5.667-9.497-13.23-10.377-21.311c-0.081-0.755-0.135-1.533-0.17-2.446
					l-5.277-48.104c-0.075-0.38-0.137-0.764-0.181-1.155c-0.817-7.508,4.621-14.276,12.121-15.093
					c7.339-0.802,13.983,4.396,15.025,11.651c0.057,0.153,0.096,0.313,0.114,0.478l0.681,6.14l4.052-29.566
					c0.019-0.392,0.053-0.784,0.105-1.177c0.497-3.627,2.373-6.839,5.285-9.048s6.51-3.153,10.13-2.657
					c3.622,0.496,6.833,2.372,9.042,5.283c0.072,0.094,0.142,0.189,0.211,0.285c1.847-6.419,8.193-10.697,15.005-9.763
					c6.814,0.935,11.778,6.765,11.828,13.451c2.83-2.265,6.547-3.412,10.409-2.885c6.814,0.937,11.777,6.767,11.826,13.451
					c2.829-2.266,6.547-3.414,10.41-2.881c3.621,0.496,6.832,2.373,9.042,5.284c2.111,2.782,3.066,6.189,2.714,9.645
					c0.019,0.165,0.018,0.335-0.005,0.507l-7.353,53.645c-0.913,6.662-1.89,11.638-3.169,16.133
					c-1.955,6.85-4.733,12.792-8.494,18.168c-2.828,4.042-5.238,8.844-7.168,14.282c-0.002,0.049-0.006,0.098-0.013,0.146
					l-17.447,132.371c-1.53,11.587-8.011,21.922-17.786,28.367l-75.952,58.265C762.707,477.892,762.279,478.026,761.854,478.026z"/>
			</g>
			<g>
				<path fill="#FFFFFF" d="M641.176,535.343c20.898,27.54,59.926,33.1,87.168,12.426l55.062-41.787l-75.677-99.72l-55.06,41.784
					C625.423,468.723,620.279,507.806,641.176,535.343z"/>
			</g>
		</g>
		<g>
			
				<rect x="951.376" y="677.093" transform="matrix(1 0.0023 -0.0023 1 1.8703 -2.1794)" fill="#FFFFFF" width="12" height="285.189"/>
		</g>
		<g>
			<g>
				<g>
					<line fill="#FFD829" x1="1315.878" y1="150.007" x2="1315.878" y2="205.87"/>
					<rect x="1313.878" y="150.007" width="4" height="55.863"/>
				</g>
				<g>
					<line fill="#FFD829" x1="1335.631" y1="158.188" x2="1296.131" y2="197.691"/>
					
						<rect x="1313.881" y="150.008" transform="matrix(0.7071 0.7071 -0.7071 0.7071 511.235 -878.351)" width="4" height="55.863"/>
				</g>
				<g>
					<line fill="#FFD829" x1="1343.812" y1="177.937" x2="1287.948" y2="177.937"/>
					<rect x="1287.948" y="175.937" width="55.863" height="4"/>
				</g>
				<g>
					<line fill="#FFD829" x1="1335.633" y1="197.691" x2="1296.131" y2="158.187"/>
					
						<rect x="1287.949" y="175.939" transform="matrix(0.7071 0.7071 -0.7071 0.7071 511.2672 -878.3768)" width="55.866" height="4"/>
				</g>
			</g>
			<g>
				<g>
					<line fill="#FFD829" x1="1347.153" y1="99.289" x2="1347.153" y2="155.15"/>
					<rect x="1345.153" y="99.289" width="4" height="55.862"/>
				</g>
				<g>
					<line fill="#FFD829" x1="1366.906" y1="107.469" x2="1327.406" y2="146.972"/>
					
						<rect x="1345.156" y="99.289" transform="matrix(0.7071 0.7071 -0.7071 0.7071 484.5314 -915.3213)" width="4" height="55.863"/>
				</g>
				<g>
					<line fill="#FFD829" x1="1375.089" y1="127.219" x2="1319.224" y2="127.219"/>
					<rect x="1319.224" y="125.219" width="55.865" height="4"/>
				</g>
				<g>
					<line fill="#FFD829" x1="1366.908" y1="146.972" x2="1327.406" y2="107.468"/>
					
						<rect x="1319.225" y="125.22" transform="matrix(0.7071 0.7071 -0.7071 0.7071 484.5507 -915.3381)" width="55.865" height="4"/>
				</g>
			</g>
			<g>
				<g>
					<line fill="#FFD829" x1="1378.429" y1="150.007" x2="1378.429" y2="205.87"/>
					<rect x="1376.429" y="150.007" width="4" height="55.863"/>
				</g>
				<g>
					<line fill="#FFD829" x1="1398.184" y1="158.188" x2="1358.684" y2="197.691"/>
					
						<rect x="1376.434" y="150.008" transform="matrix(0.7071 0.7071 -0.7071 0.7071 529.5563 -922.5824)" width="4" height="55.863"/>
				</g>
				<g>
					<line fill="#FFD829" x1="1406.364" y1="177.937" x2="1350.499" y2="177.937"/>
					<rect x="1350.499" y="175.937" width="55.865" height="4"/>
				</g>
				<g>
					<line fill="#FFD829" x1="1398.186" y1="197.691" x2="1358.684" y2="158.187"/>
					
						<rect x="1350.502" y="175.939" transform="matrix(0.7071 0.7071 -0.7071 0.7071 529.5898 -922.6096)" width="55.866" height="4"/>
				</g>
			</g>
		</g>
		<g>
			<g>
				<g>
					<line fill="#FFD829" x1="1589.448" y1="542.902" x2="1589.448" y2="598.766"/>
					<path d="M1589.448,600.766c-1.104,0-2-0.896-2-2v-55.863c0-1.104,0.896-2,2-2s2,0.896,2,2v55.863
						C1591.448,599.87,1590.553,600.766,1589.448,600.766z"/>
				</g>
				<g>
					<line fill="#FFD829" x1="1609.203" y1="551.085" x2="1569.703" y2="590.587"/>
					<path d="M1569.703,592.587c-0.512,0-1.023-0.195-1.414-0.586c-0.781-0.781-0.781-2.047,0-2.828l39.5-39.502
						c0.781-0.781,2.047-0.781,2.828,0s0.781,2.047,0,2.828l-39.5,39.502C1570.727,592.392,1570.215,592.587,1569.703,592.587z"/>
				</g>
				<g>
					<line fill="#FFD829" x1="1617.384" y1="570.832" x2="1561.519" y2="570.832"/>
					<path d="M1617.384,572.832h-55.865c-1.104,0-2-0.896-2-2s0.896-2,2-2h55.865c1.104,0,2,0.896,2,2
						S1618.488,572.832,1617.384,572.832z"/>
				</g>
				<g>
					<line fill="#FFD829" x1="1609.205" y1="590.587" x2="1569.703" y2="551.083"/>
					<path d="M1609.205,592.587c-0.512,0-1.023-0.195-1.414-0.586l-39.502-39.504c-0.781-0.781-0.781-2.047,0-2.828
						s2.047-0.781,2.828,0l39.502,39.504c0.781,0.781,0.781,2.047,0,2.828C1610.229,592.392,1609.717,592.587,1609.205,592.587z"/>
				</g>
			</g>
		</g>
		<g>
			<g>
				<g>
					<line fill="#FFD829" x1="1112.201" y1="269.358" x2="1112.201" y2="325.221"/>
					<path d="M1112.201,327.221c-1.104,0-2-0.896-2-2v-55.863c0-1.104,0.896-2,2-2s2,0.896,2,2v55.863
						C1114.201,326.326,1113.306,327.221,1112.201,327.221z"/>
				</g>
				<g>
					<line fill="#FFD829" x1="1131.956" y1="277.54" x2="1092.456" y2="317.042"/>
					<path d="M1092.456,319.042c-0.512,0-1.023-0.195-1.414-0.586c-0.781-0.781-0.781-2.047,0-2.828l39.5-39.502
						c0.781-0.781,2.047-0.781,2.828,0c0.781,0.781,0.781,2.047,0,2.828l-39.5,39.502
						C1093.479,318.847,1092.968,319.042,1092.456,319.042z"/>
				</g>
				<g>
					<line fill="#FFD829" x1="1140.137" y1="297.288" x2="1084.271" y2="297.288"/>
					<path d="M1140.137,299.288h-55.865c-1.104,0-2-0.896-2-2s0.896-2,2-2h55.865c1.104,0,2,0.896,2,2
						S1141.241,299.288,1140.137,299.288z"/>
				</g>
				<g>
					<line fill="#FFD829" x1="1131.958" y1="317.042" x2="1092.456" y2="277.538"/>
					<path d="M1131.958,319.042c-0.512,0-1.023-0.195-1.414-0.586l-39.502-39.504c-0.781-0.781-0.781-2.047,0-2.828
						c0.781-0.781,2.047-0.781,2.828,0l39.502,39.504c0.781,0.781,0.781,2.047,0,2.828
						C1132.981,318.847,1132.47,319.042,1131.958,319.042z"/>
				</g>
			</g>
		</g>
	</g>
	<g>
		<path d="M484.292,325.978c0,9.491,1.456,18.642,4.153,27.243l4.26,5.612l91.143-69.167l-14.442-32.737l28.057,22.405
			l33.103-25.122l-0.746-0.983c-15.202-11.424-34.101-18.196-54.581-18.196C525.01,235.034,484.292,275.751,484.292,325.978z"/>
	</g>
</g>
</svg>
