<svg xmlns="http://www.w3.org/2000/svg" viewBox="0 0 1320 904"><path fill="#fff" d="m100.85 4.13 1.48 873.94-12 .02L88.85 4.15Zm373.87 86.64-31.24-25.4-58.2-62.09L388.2.55l58.11 61.98 30.94 25.13Zm502.52 812.91-105.4-80.03-.13-.79-30.98-193.63-125.85-212.99-69.64-94.77-85.16-69.69 2.53-3.1 85.56 70.01.15.2 69.9 95.15 126.34 213.81.06.38 30.92 193.2 104.12 79.06Z"/><path fill="#fff" d="M161.3 183.22 43.8 86.68.94 20.46l3.35-2.17 42.52 65.7 117.03 96.14Zm218.14 16.55 108.65 25.22-.9 3.9-108.65-25.22Zm215.24-93.07-.7-3.93 53.83-9.62 86.91-67.6 2.45 3.16-87.69 68.2Zm597.34 293.01L1090 387.94l-85.86-93.67 2.95-2.7 84.85 92.57 99.75 11.5 102.44-28.99 1.1 3.85Zm37.61-188.19-92.14-1.96.09-4 90.22 1.92 42.07-49.72 3.05 2.59Zm-577.6 382.49-.24-4c-.97-15.96-1.26-20.78-16.51-37.4-14.06-15.35-30.72-28.66-46.83-41.54-14.6-11.68-29.72-23.76-43.17-37.5-26.39-26.97-51.39-63.31-72.36-95.31-3.6-5.5-7.25-11.03-10.9-16.57a3071.39 3071.39 0 0 1-29.85-45.9 618 618 0 0 1-14.92-25.3c-8.86-15.57-18.01-31.68-29.32-45.43-34.48-41.9-82.2-69.74-124.24-92.53a1672.17 1672.17 0 0 0-29.42-15.45C176.43 107.2 116.62 76.3 89.43 8.71l11.13-4.48c25.53 63.45 80.75 91.98 139.22 122.2 9.73 5.02 19.8 10.22 29.63 15.55 43.03 23.34 91.94 51.88 127.78 95.46 11.97 14.55 21.39 31.1 30.5 47.13 4.69 8.25 9.54 16.79 14.62 24.8a3067.1 3067.1 0 0 0 29.73 45.72l10.92 16.6c20.65 31.5 45.23 67.26 70.9 93.49 12.94 13.22 27.75 25.06 42.09 36.52 16.46 13.16 33.49 26.77 48.17 42.8 18.13 19.76 18.6 27.6 19.64 44.8l.25 3.93Z"/><path fill="#ffd829" d="M276.08 183.33a11.53 11.53 0 0 0-14.6 7.24v.01l-.05-.02-9.59 28.43-.45-.3 2.3-28.5a12.1 12.1 0 0 0 .18-2.16l.03-.37h-.05a11.52 11.52 0 0 0-22.77-1.84l-.15-.02-1.74 21.5h-.1l1.54-18.98a11.52 11.52 0 1 0-22.83-2.93v.02h-.06l-1.62 20.03h-.1l1.54-18.98a11.52 11.52 0 1 0-22.73-3.64l-.1-.01-1.68 20.76h-.1l1.54-18.97a11.53 11.53 0 1 0-22.83-2.93v.01h-.06l-1.6 20.03-2.1 25.88-1.67 20.69a22.07 22.07 0 0 0 4.04 16.51c3.66 6.24 5.12 13.34 5.2 13.7L155.4 411.5a38.29 38.29 0 0 0 37.7 41.16l130.58 9.87 5.77-76.35-94.8-7.17 7.06-93.39c1.25-5.07 5.51-10.18 8.31-12.31a32.5 32.5 0 0 0 14.43-19.59l18.48-54.8a11.52 11.52 0 0 0-6.84-15.6Z"/><path d="M323.68 464.53h-.15l-130.52-9.87a40.33 40.33 0 0 1-39.6-43.31l10.03-132.73a47.78 47.78 0 0 0-4.85-12.73 24.22 24.22 0 0 1-4.35-17.85l5.37-66.52c.02-.17.05-.33.1-.49a13.6 13.6 0 0 1 14.53-11.91c4.89.4 8.97 3.36 11.01 7.46a13.54 13.54 0 0 1 12.05-5.6 13.44 13.44 0 0 1 11.03 7.45 13.56 13.56 0 0 1 12.04-5.59 13.43 13.43 0 0 1 11.02 7.45 13.55 13.55 0 0 1 12.05-5.58 13.54 13.54 0 0 1 12.39 12.42c.06.22.08.45.07.7l-.03.27a13.84 13.84 0 0 1-.18 2.34l-1.16 14.34 5-14.85c.06-.17.13-.32.23-.46a13.52 13.52 0 1 1 25.04 10.18l-18.43 54.64a34.68 34.68 0 0 1-15.21 20.66c-2.44 1.9-6.29 6.48-7.47 11l-6.89 91.22 92.8 7.01a2 2 0 0 1 1.85 2.15l-5.77 76.35a2 2 0 0 1-2 1.85ZM163.56 182.3l-5.34 66.14-.02.15a20.19 20.19 0 0 0 3.78 15.19 52.12 52.12 0 0 1 5.44 14.3c.04.18.05.37.03.55L157.4 411.65a36.33 36.33 0 0 0 35.85 39.02l128.59 9.72 5.47-72.37-92.8-7.02a2 2 0 0 1-1.85-2.14l7.06-93.4c0-.1.02-.21.05-.32 1.29-5.23 5.62-10.82 9.04-13.43l.16-.1a30.67 30.67 0 0 0 13.59-18.53l18.47-54.8.07-.16a9.45 9.45 0 0 0-.16-8.1 9.47 9.47 0 0 0-8.54-5.3 9.52 9.52 0 0 0-9.02 6.48c-.05.15-.12.3-.2.43l-9.44 28a2 2 0 0 1-3.06.99l-.42-.29a2 2 0 0 1-.86-1.8l2.3-28.5c0-.07.02-.13.03-.19a10.37 10.37 0 0 0 .14-1.78v-.13l-.02-.19a9.53 9.53 0 0 0-8.73-9.05 9.55 9.55 0 0 0-10.08 7.53c-.04.19-.1.36-.18.51l-1.68 20.73a2 2 0 0 1-2.11 1.83 2.11 2.11 0 0 1-1.44-.69c-.35-.4-.57-.93-.53-1.47l1.53-18.97a9.47 9.47 0 0 0-2.1-8 9.45 9.45 0 0 0-6.48-3.33 9.57 9.57 0 0 0-10.3 8.95c0 .08-.03.16-.05.24l-1.59 19.58a2 2 0 0 1-2.13 1.83 2.11 2.11 0 0 1-1.42-.7c-.35-.4-.57-.93-.53-1.46l1.53-18.97.03-.19a9.47 9.47 0 0 0-2.12-7.82 9.46 9.46 0 0 0-6.5-3.32 9.55 9.55 0 0 0-10.17 8.13c-.02.16-.07.32-.13.47l-1.62 20.16a2 2 0 0 1-2.14 1.84 2.11 2.11 0 0 1-1.42-.7c-.35-.4-.57-.93-.53-1.47l1.53-18.96.03-.19c.05-.3.1-.59.12-.9a9.54 9.54 0 0 0-8.73-10.25 9.58 9.58 0 0 0-10.25 8.65 2.9 2.9 0 0 1-.08.5l-.02.05Z"/><path fill="#fff" d="M517.15 663.63a45.1 45.1 0 1 1-71.85 54.52 45.1 45.1 0 0 1 71.85-54.52Z"/><path fill="#fff" d="m443.82 668.75-30.07-15.84 32.66-26.84 18.75 24.58Z"/><path fill="#ffd829" d="m741.56 705.1-44.03-.68V591.96l54.25.5h.08a55.09 55.09 0 0 1 8.78.07l.2.01.41.06a56.11 56.11 0 0 1 24.88 8.63l.07.04 192.3 99.47-51.8 100.13Z"/><path d="m699.53 593.98 52.15.48h.16l.16-.01a52.94 52.94 0 0 1 8.27.06l.79.08a54.07 54.07 0 0 1 24 8.32l.14.1.16.08 190.44 98.5-49.96 96.58-182.95-94.62-.83-.44-.94-.01-41.6-.65V593.98m-3.99-4.04v116.44l45.53.72 186.5 96.47 53.63-103.69L787.2 599.54a58.19 58.19 0 0 0-25.75-8.93v-.06h-.64a59.47 59.47 0 0 0-9.1-.1Z"/><path fill="#fff" d="m1074.74 650.14-94.85 49.99-53.54 102.3 56.67 39.65a11.01 11.01 0 0 0 14.86-4.65l17.87-34.15 42.32-80.88 29.66-56.69a10.98 10.98 0 0 0-13-15.57Z"/><path d="M1075.98 645.55 974.5 839.45l-62.27-42.57 97.36-186.07Z"/><path d="m979.84 700.05-2.19-1.14a9.27 9.27 0 0 0-12.48 3.9l-11.3 21.58a9.27 9.27 0 0 0 3.91 12.48l2.2 1.14 12.28 6.44 19.87-37.97Z"/><path fill="#fff" d="m994.39 721.94-18.7-6.04 1.23-3.8 14.97 4.83 5.76-16.73 16.83 5.44 5.77-16.73 16.84 5.44 5.13-14.88 3.78 1.3-6.4 18.59-16.85-5.44-5.76 16.73-16.84-5.43Z"/><path fill="#ffd829" d="M325.23 463.14c-8.24-10.85-20.68-27.25-23.53-47.13-3.4-23.78 8.48-46.14 35.28-66.49l42.77-32.46c6.27-4.76 13.8-7.38 21.17-7.38 8.58 0 16.2 3.56 20.91 9.76l155.42 204.8-130.5 99.03Z"/><path d="M400.92 311.68c7.95 0 15 3.27 19.32 8.97l120.5 158.79 18.4 24.23 15.3 20.18-6.55 4.98-96.8 73.45-23.95 18.19-15.32-20.18-18.4-24.24-86.6-114.12c-8.1-10.69-20.37-26.84-23.14-46.2a53.09 53.09 0 0 1 4.64-30.5c5.52-11.78 15.56-23.26 29.87-34.11l42.77-32.46c5.93-4.5 13.02-6.98 19.96-6.98m0-4a37.3 37.3 0 0 0-22.38 7.79l-42.77 32.46c-63.76 48.39-28.31 95.1-12.13 116.42l86.6 114.12 18.4 24.24 17.73 23.36 27.15-20.6 96.79-73.45 9.74-7.4-17.73-23.37-18.4-24.23-120.5-158.79c-5.3-6.98-13.6-10.55-22.5-10.55Z"/><path fill="#ffd829" d="m288.16 307.02 48.69-36.95L375 320.34l-48.7 36.95Z"/><path d="m325.93 360.1-40.57-53.46 51.88-39.37 40.57 53.47Zm-34.97-52.69 35.74 47.09 45.5-34.53-35.73-47.1Z"/><path fill="#ffd829" d="M331.37 162.78c-.96.73-1.86 1.5-2.7 2.32a90.47 90.47 0 0 0-138.41 105.03 31.4 31.4 0 1 0 40.53 46.63 90.45 90.45 0 0 0 131.87-100.08 31.4 31.4 0 1 0-31.3-53.9Z"/><path d="M206.3 330.53a33.17 33.17 0 0 1-26.63-13.2 33.44 33.44 0 0 1 8.15-48.03c-13.77-37.78-1.16-80.85 31-105.25a91.6 91.6 0 0 1 55.8-18.8 93.16 93.16 0 0 1 53.9 17.27 33.1 33.1 0 0 1 21.8-8.13 33.16 33.16 0 0 1 26.64 13.21c5.4 7.1 7.7 15.9 6.49 24.73a33.18 33.18 0 0 1-18.47 25.5 92.53 92.53 0 0 1-34.41 93.48 91.6 91.6 0 0 1-55.8 18.8 92.94 92.94 0 0 1-43.5-10.81 33.63 33.63 0 0 1-4.8 4.44 33.12 33.12 0 0 1-20.17 6.8Zm68.31-181.28a87.63 87.63 0 0 0-53.38 17.99c-31.19 23.66-43.15 65.68-29.1 102.17l.6 1.58-1.45.86a29.43 29.43 0 0 0-8.42 43.05 29.2 29.2 0 0 0 23.44 11.63c6.46 0 12.6-2.07 17.75-5.98a29.64 29.64 0 0 0 5.18-5.04l1.06-1.31 1.47.81a88.89 88.89 0 0 0 43 11.1 87.63 87.63 0 0 0 53.39-17.99 88.52 88.52 0 0 0 32.57-90.97l-.39-1.64 1.55-.67a29.55 29.55 0 0 0 6.25-3.63 29.2 29.2 0 0 0 11.35-19.42 29.21 29.21 0 0 0-5.7-21.77 29.2 29.2 0 0 0-23.45-11.63 29.14 29.14 0 0 0-20.29 8.15l-1.22 1.17-1.35-1.01a89.08 89.08 0 0 0-52.86-17.45Z"/><path fill="#ffd829" d="m188.59 300.13 28 5.04"/><path d="M216.58 307.17a1.4 1.4 0 0 1-.35-.04l-28-5.03a2 2 0 1 1 .7-3.94l28 5.04a2 2 0 0 1-.35 3.97Z"/><path fill="#ffd829" d="m355.02 173.83-2.7 28.32"/><path d="m352.33 204.15-.19-.01a2 2 0 0 1-1.8-2.18l2.69-28.32a2 2 0 1 1 3.98.38l-2.69 28.32a2 2 0 0 1-1.99 1.8Zm-92.03 65.56a11.93 11.93 0 1 1-23.87 0 11.93 11.93 0 0 1 23.87 0Z"/><path d="M231.63 287.62a2 2 0 0 1-2-1.9 30.9 30.9 0 0 1 40.59-30.8 2 2 0 0 1-1.26 3.79 26.9 26.9 0 0 0-35.33 26.82 2 2 0 0 1-1.9 2.1h-.1Zm90.7-64.99a11.93 11.93 0 1 1-23.87 0 11.93 11.93 0 0 1 23.87 0Z"/><path d="M293.66 240.55a2 2 0 0 1-2-1.9 30.9 30.9 0 0 1 40.6-30.81 2 2 0 0 1-1.26 3.8 26.9 26.9 0 0 0-35.34 26.81 2 2 0 0 1-1.9 2.1h-.1Z"/><path fill="#ffd829" d="m280.05 245.78 10.5 13.84"/><path d="M290.55 261.62a2 2 0 0 1-1.6-.8L278.45 247a2 2 0 0 1 3.19-2.42l10.5 13.84a2 2 0 0 1-1.6 3.2Z"/><path fill="#fff" d="M320.93 249.1a30.56 30.56 0 0 1-48.69 36.95Z"/><path fill="#ffd829" d="m446.5 626 150.96-114.56 28.23 37.2-150.96 114.57Z"/><path d="M532.55 684.62c58.4 8.95 80.6-58.96 86.58-75.1l24.14-65.14c5.98-16.14-.37-33.38-14.17-38.49l-59.47-22.03c-13.8-5.12-29.84 3.82-35.83 19.97l-35.44 95.65-23.63 63.7Z"/><path fill="#ffd829" d="m652.83 512.78-1 2.7-105.73-39.12 21.48-58.06.04.02.78-1.7a56.48 56.48 0 0 1 51.23-32.88 56.14 56.14 0 0 1 24.32 5.54l.08.04 203.04 75.13-39.12 105.72Z"/><path d="M619.63 385.74a54.14 54.14 0 0 1 23.46 5.35l.16.07.17.07 201.08 74.4-37.73 101.98L655.4 511.6l-3.75-1.39-1 2.7-101.98-37.73 19.93-53.84.04-.12.04-.11.58-1.58.96-2.08a54.48 54.48 0 0 1 49.41-31.71m0-4a58.41 58.41 0 0 0-53.05 34.04l-.17-.07-1.52 4.13-.02.02v.03l-21.34 57.65 109.48 40.5 1-2.69 155.12 57.4 40.5-109.48-204.82-75.8a58.2 58.2 0 0 0-25.17-5.74Z"/><path fill="#fff" d="m936.38 402.42-88 61.25-40.58 108.1 61.1 32.4a11.01 11.01 0 0 0 14.18-6.45l13.54-36.08 32.09-85.46 22.48-59.9a10.98 10.98 0 0 0-14.81-13.86Z"/><path d="m937.04 397.7-76.9 204.9-67.03-34.61 73.8-196.61Z"/><path d="m848.32 463.6-2.32-.87a9.27 9.27 0 0 0-11.9 5.4l-8.56 22.8a9.27 9.27 0 0 0 5.4 11.91l2.32.87 12.98 4.87 15.06-40.11Z"/><path fill="#fff" d="m865.45 483.66-19.3-3.7.75-3.93 15.45 2.96 3.67-17.3L883.4 465l3.66-17.3 17.39 3.32 3.26-15.4 3.92.84-4.08 19.23-17.39-3.33-3.66 17.3-17.38-3.32Z"/><path d="m697 706.4-1.47-116.46-65.05.03c-.03.1-.05.22-.09.32l-7.77 21.28-.78 2.13c-3.58 9.83-11.03 30.3-24.8 47.47-14.7 18.34-32.3 27.59-52.4 27.59-3.5 0-7.07-.28-10.71-.84a1.94 1.94 0 1 1 .59-3.83c54.52 8.35 76.46-51.91 83.67-71.72l.79-2.14 7.18-20.37-86.04-.77-65.38 74.1c31.16 50.6 74.48 42.97 96.8 42.94m-51.39-165.22 25.76-69.6 109.13 40.37-25.76 69.61Z"/><path fill="#ffd829" d="m461.85 388.03 76.01-58.31a38.2 38.2 0 0 0 16.97-27l17.44-132.37-.08-.01a62.33 62.33 0 0 1 7.6-15.3 57.48 57.48 0 0 0 8.22-17.57 114.62 114.62 0 0 0 3.1-15.86l3.58-26.08 3.78-27.57s-.06 0-.05-.02a11.68 11.68 0 1 0-23.25-2.08l-3.63 26.5-.1-.02 4.8-34.95s-.06 0-.06-.02a11.69 11.69 0 1 0-23.24-2.08l-4.65 33.88-.1-.02L554 46.84s-.06 0-.05-.02a11.69 11.69 0 1 0-23.25-2.08l-5.65 41.25h-.1l4.79-34.95s-.05-.01-.06-.03a11.68 11.68 0 1 0-23.24-2.08L500.5 92.4l-.52.21-2.24-20.22-.06-.01a11.69 11.69 0 1 0-23.06 3.6l5.3 48.26a32.95 32.95 0 0 0 10.02 22.54c2.33 2.75 6.33 8.25 6.4 13.59h.02L481 276.83l-65.75 50.44"/><path d="M461.85 390.03a2 2 0 0 1-1.21-3.6l76-58.3a36.28 36.28 0 0 0 16.2-25.67l17.39-131.89c-.05-.3-.02-.6.07-.89a64.2 64.2 0 0 1 7.86-15.8 55.04 55.04 0 0 0 7.92-16.96c1.23-4.3 2.17-9.11 3.06-15.58l7.29-53.2a2 2 0 0 1 0-.47 9.62 9.62 0 0 0-1.87-7.17 9.7 9.7 0 0 0-17.4 5.63l-3.64 26.5a2 2 0 0 1-2.21 1.71 2.12 2.12 0 0 1-1.4-.77 2.05 2.05 0 0 1-.45-1.5l4.73-34.5c-.01-.16 0-.31.01-.46a9.7 9.7 0 0 0-8.28-10.91 9.7 9.7 0 0 0-11 9.37l-4.64 33.87a2 2 0 0 1-2.21 1.72 2.12 2.12 0 0 1-1.4-.77 2.05 2.05 0 0 1-.46-1.5L551.96 47a2 2 0 0 1 0-.47A9.7 9.7 0 1 0 532.69 45l-5.65 41.26a2 2 0 0 1-2.21 1.71 2.11 2.11 0 0 1-1.4-.77 2.05 2.05 0 0 1-.45-1.5l4.73-34.49-.01-.07c-.01-.13 0-.27.01-.4a9.6 9.6 0 0 0-1.87-7.18 9.61 9.61 0 0 0-6.4-3.73 9.63 9.63 0 0 0-7.17 1.88 9.61 9.61 0 0 0-3.83 7.49l-5.96 43.48a2 2 0 0 1-1.22 1.57l-.5.2a2 2 0 0 1-2.76-1.62l-2.2-19.78a2.1 2.1 0 0 1-.1-.45 9.7 9.7 0 0 0-19.26 2.1 10.63 10.63 0 0 0 .18 1.07l5.29 48.26v.14a31.12 31.12 0 0 0 9.54 21.32c2.5 2.95 6.68 8.73 6.88 14.57.03.2.04.38.01.58l-15.35 116.45a2 2 0 0 1-.77 1.33l-65.75 50.43a2 2 0 0 1-2.43-3.17l65.1-49.93 15.2-115.36c-.06-4.81-4.07-10.11-5.87-12.24a35.13 35.13 0 0 1-10.54-23.76l-5.28-48.1a13.7 13.7 0 0 1 11.94-16.25 13.7 13.7 0 0 1 15.02 11.65c.06.15.1.31.12.48l.68 6.14 4.05-29.57a13.6 13.6 0 0 1 5.39-10.22 13.6 13.6 0 0 1 10.13-2.66 13.59 13.59 0 0 1 9.25 5.57 13.7 13.7 0 0 1 15-9.77 13.71 13.71 0 0 1 11.84 13.46 13.66 13.66 0 0 1 22.23 10.56 13.63 13.63 0 0 1 10.41-2.88 13.6 13.6 0 0 1 9.04 5.29 13.58 13.58 0 0 1 2.72 9.64c.02.16.02.33 0 .5l-7.36 53.65a115.12 115.12 0 0 1-3.17 16.13 59.71 59.71 0 0 1-8.5 18.17 59.75 59.75 0 0 0-7.16 14.28l-.01.15-17.45 132.37a40.28 40.28 0 0 1-17.79 28.37l-75.95 58.26a2 2 0 0 1-1.22.42Z"/><path fill="#fff" d="M341.18 447.34c20.9 27.54 59.92 33.1 87.16 12.43l55.07-41.79-75.68-99.72-55.06 41.79c-27.25 20.67-32.4 59.76-11.5 87.3ZM651.69 589.1l12 .03-.66 285.19-12-.03Z"/><path fill="#ffd829" d="M1015.88 62v55.87"/><path d="M1013.88 62h4v55.87h-4Z"/><path fill="#ffd829" d="m1035.63 70.19-39.5 39.5"/><path d="m1034.21 68.77 2.83 2.82-39.5 39.5-2.83-2.82Z"/><path fill="#ffd829" d="M1043.81 89.94h-55.86"/><path d="M987.95 87.94h55.86v4h-55.86Z"/><path fill="#ffd829" d="m1035.63 109.7-39.5-39.51"/><path d="m997.57 68.74 39.5 39.5-2.83 2.83-39.5-39.5Z"/><path fill="#ffd829" d="M1047.15 11.29v55.86"/><path d="M1045.15 11.29h4v55.86h-4Z"/><path fill="#ffd829" d="m1066.9 19.47-39.5 39.5"/><path d="m1065.48 18.05 2.83 2.82-39.5 39.5-2.83-2.82Z"/><path fill="#ffd829" d="M1075.09 39.22h-55.87"/><path d="M1019.22 37.22h55.87v4h-55.87Z"/><path fill="#ffd829" d="m1066.9 58.97-39.5-39.5"/><path d="m1028.83 18.03 39.5 39.5-2.82 2.83-39.5-39.5Z"/><path fill="#ffd829" d="M1078.43 62v55.87"/><path d="M1076.43 62h4v55.87h-4Z"/><path fill="#ffd829" d="m1098.18 70.19-39.5 39.5"/><path d="m1096.76 68.77 2.83 2.82-39.5 39.5-2.83-2.83Z"/><path fill="#ffd829" d="M1106.36 89.94h-55.86"/><path d="M1050.5 87.94h55.86v4h-55.86Z"/><path fill="#ffd829" d="m1098.19 109.7-39.5-39.51"/><path d="m1060.12 68.74 39.5 39.5-2.82 2.83-39.5-39.5Z"/><path fill="#ffd829" d="M1289.45 454.9v55.87"/><path d="M1289.45 512.77a2 2 0 0 1-2-2V454.9a2 2 0 0 1 4 0v55.87a2 2 0 0 1-2 2Z"/><path fill="#ffd829" d="m1309.2 463.08-39.5 39.5"/><path d="M1269.7 504.59a2 2 0 0 1-1.41-3.41l39.5-39.5a2 2 0 1 1 2.83 2.82l-39.5 39.5c-.4.4-.9.59-1.42.59Z"/><path fill="#ffd829" d="M1317.38 482.83h-55.86"/><path d="M1317.38 484.83h-55.86a2 2 0 0 1 0-4h55.86a2 2 0 0 1 0 4Z"/><path fill="#ffd829" d="m1309.2 502.59-39.5-39.5"/><path d="M1309.2 504.59a2 2 0 0 1-1.4-.59l-39.51-39.5a2 2 0 1 1 2.83-2.83l39.5 39.5a2 2 0 0 1-1.41 3.42Z"/><path fill="#ffd829" d="M812.2 181.36v55.86"/><path d="M812.2 239.22a2 2 0 0 1-2-2v-55.86a2 2 0 0 1 4 0v55.86a2 2 0 0 1-2 2Z"/><path fill="#ffd829" d="m831.96 189.54-39.5 39.5"/><path d="M792.46 231.04a2 2 0 0 1-1.41-3.41l39.5-39.5a2 2 0 1 1 2.82 2.82l-39.5 39.5a2 2 0 0 1-1.41.6Z"/><path fill="#ffd829" d="M840.14 209.29h-55.87"/><path d="M840.14 211.29h-55.87a2 2 0 0 1 0-4h55.87a2 2 0 0 1 0 4Z"/><path fill="#ffd829" d="m831.96 229.04-39.5-39.5"/><path d="M831.96 231.04a2 2 0 0 1-1.42-.58l-39.5-39.5a2 2 0 1 1 2.83-2.84l39.5 39.5a2 2 0 0 1-1.41 3.42Zm-647.66 6.94a90.9 90.9 0 0 0 4.14 27.24l4.27 5.61 91.14-69.16-14.44-32.74 28.05 22.4 33.1-25.12-.74-.98a90.95 90.95 0 0 0-145.53 72.75Z"/></svg>