<svg xmlns="http://www.w3.org/2000/svg" viewBox="0 0 1080 1080"><path fill="#FFF" d="m212.47 951.32-4.6-835.99 9.96-.05 4.6 835.99zm300.7-716.23-22.42-24.86-39.83-58.35 3.3-2.26 39.76 58.24 22.16 24.55zm308.58 730.96-76.35-79.2v-.8l-.73-162.72-76.06-190.7-45-86.58-60.96-67.99 2.98-2.67 61.3 68.37.1.22 45.26 87.07 76.37 191.5v.38l.73 162.3 75.24 78.04z"/><path fill="#FFF" d="m244.26 270.96-84.13-94.22-26.72-59.84 3.65-1.63 26.47 59.27 83.72 93.76zm261.61 79.13-85.9-34.54 1.49-3.71 85.9 34.54zm103.93-86.52-.1-4 45.31-1.02 79.85-44.33 1.94 3.5-80.7 44.8zm254.32 202.91-75.49-13.39.7-3.93 73.61 13.05 40.73-35.31 2.62 3.02zM604.63 671.2l-9.93-.9.3-3.3c1.25-13.23 1.62-17.22-8.76-32.8-9.58-14.38-21.55-27.43-33.12-40.04-10.5-11.45-21.35-23.29-30.63-36.27-18.21-25.5-34.08-58.5-47.21-87.42l-6.8-14.92a2550.2 2550.2 0 0 1-18.66-41.52 513.66 513.66 0 0 1-9.02-22.66c-5.28-13.9-10.74-28.29-18.26-41-22.94-38.78-58.54-67.7-90.12-91.76-7.3-5.56-14.86-11.08-22.16-16.42-43.64-31.9-88.77-64.87-102.45-123.78l9.7-2.25c12.85 55.3 54.51 85.75 98.63 117.99a1374.5 1374.5 0 0 1 22.32 16.54c32.32 24.63 68.8 54.28 92.65 94.6 7.96 13.46 13.57 28.25 19 42.55 2.8 7.37 5.7 15 8.84 22.21 5.99 13.77 12.4 27.8 18.59 41.36l6.81 14.94c12.93 28.49 28.53 60.95 46.24 85.74 8.93 12.5 19.57 24.1 29.87 35.33 11.83 12.9 24.06 26.24 34.07 41.25 12.34 18.53 11.73 25.02 10.4 39.26l-.3 3.26z"/><path fill="#FFD829" d="M338.66 285.46a9.57 9.57 0 0 0-12.9 4.08l-.04-.01-11.5 22.1-.32-.31 5.52-23.09a10.3 10.3 0 0 0 .42-1.74l.07-.3-.04-.01a9.56 9.56 0 0 0-18.44-4.42l-.13-.03-4.16 17.41-.08-.01 3.68-15.37a9.57 9.57 0 1 0-18.36-5.31v.01l-.05-.01-3.88 16.23-.08-.02 3.68-15.37a9.56 9.56 0 0 0-6.83-12.4 9.56 9.56 0 0 0-11.36 6.51l-.07-.01-4.02 16.81-.08-.01 3.68-15.37c.09-.28.18-.57.25-.86A9.57 9.57 0 0 0 245 269.5h-.05l-3.88 16.22-5.01 20.97-4.01 16.76a18.33 18.33 0 0 0 1.2 14.06c2.21 5.59 2.5 11.6 2.52 11.9l-25.21 107.84a31.79 31.79 0 0 0 25.67 38.57l105.87 24.75 14.47-61.9-76.85-17.97 17.7-75.72c1.67-4 5.81-7.64 8.38-9.04a26.98 26.98 0 0 0 13.5-12.46c.31-.58.58-1.17.84-1.76l22.14-42.6a9.57 9.57 0 0 0-3.63-13.67z"/><path d="M342.1 522.58a2.05 2.05 0 0 1-.45-.06l-105.8-24.73a33.02 33.02 0 0 1-2.02-.4 33.83 33.83 0 0 1-25.21-40.6l25.14-107.55c-.08-1.3-.5-6.24-2.33-10.9a20.46 20.46 0 0 1-1.3-15.42L243 269.04c.04-.15.1-.3.16-.42a11.53 11.53 0 0 1 11.13-8.46 11.57 11.57 0 0 1 10.86 7.56 11.58 11.58 0 0 1 10.52-2.77 11.5 11.5 0 0 1 7.17 5.2c.4.64.73 1.31.98 2a11.54 11.54 0 0 1 7.85-3.05c.9 0 1.8.11 2.7.32a11.49 11.49 0 0 1 7.16 5.2c.4.65.73 1.33.99 2.03a11.58 11.58 0 0 1 7.83-3.08 11.58 11.58 0 0 1 11.53 12.41c.03.22.02.44-.04.67l-.05.22c-.05.32-.1.63-.18.96a13.19 13.19 0 0 1-.28.95l-2.13 8.92 4.73-9.1c.07-.14.16-.27.26-.38a11.54 11.54 0 0 1 10.06-5.84c1.84 0 3.68.45 5.32 1.3a11.5 11.5 0 0 1 5.7 6.78 11.48 11.48 0 0 1-1.26 9.67l-22.07 42.46a28.87 28.87 0 0 1-.86 1.83 29.13 29.13 0 0 1-14.41 13.33c-2.2 1.22-5.84 4.4-7.35 7.87l-17.2 73.6 74.9 17.5a2 2 0 0 1 1.5 2.4l-14.48 61.91a2 2 0 0 1-1.94 1.55zm-95.3-252.2L234 323.92a1.86 1.86 0 0 1-.04.15 16.43 16.43 0 0 0 1.16 12.71 43.47 43.47 0 0 1 2.66 12.53c0 .19-.01.38-.06.56l-25.2 107.84a29.82 29.82 0 0 0 24.05 36.14l.12.03 103.92 24.3 13.56-58.02-74.9-17.51a2 2 0 0 1-1.5-2.4l17.7-75.71.1-.32c1.99-4.74 6.64-8.6 9.29-10.03a1.69 1.69 0 0 1 .17-.08 25.13 25.13 0 0 0 12.51-11.54c.24-.47.49-.99.77-1.64a2.42 2.42 0 0 1 .06-.13l22.14-42.6.1-.16c.12-.19.24-.38.35-.6a7.52 7.52 0 0 0 .5-5.77 7.53 7.53 0 0 0-3.72-4.44 7.48 7.48 0 0 0-3.48-.85 7.55 7.55 0 0 0-6.7 4.03 1.98 1.98 0 0 1-.27.42L316 312.55a2 2 0 0 1-3.17.5l-.3-.28a2 2 0 0 1-.58-1.92l5.53-23.09a8.79 8.79 0 0 0 .25-.87 8.36 8.36 0 0 0 .14-.77c0-.06 0-.11.02-.16a7.57 7.57 0 0 0-7.52-8.39 7.58 7.58 0 0 0-7.07 4.9 2.01 2.01 0 0 1-.22.42l-4 16.72a2 2 0 0 1-2.36 1.49 2.1 2.1 0 0 1-1.31-.9 2.04 2.04 0 0 1-.3-1.54l3.68-15.37.05-.18a7.53 7.53 0 0 0-.7-6.4 7.51 7.51 0 0 0-4.7-3.4 7.6 7.6 0 0 0-1.76-.2 7.54 7.54 0 0 0-7.35 5.76 1.96 1.96 0 0 1-.15.46l-3.78 15.8a2 2 0 0 1-2.36 1.5 2.1 2.1 0 0 1-1.32-.9 2.04 2.04 0 0 1-.3-1.54l3.69-15.36.05-.2a7.52 7.52 0 0 0-.71-6.39 7.52 7.52 0 0 0-4.69-3.4 7.6 7.6 0 0 0-1.76-.2 7.6 7.6 0 0 0-7.22 5.35 2.06 2.06 0 0 1-.17.4l-3.9 16.28a2 2 0 0 1-2.38 1.49 2.1 2.1 0 0 1-1.3-.9 2.04 2.04 0 0 1-.29-1.54l3.68-15.37.05-.17a7.58 7.58 0 0 0-5.4-9.8 7.6 7.6 0 0 0-1.77-.21 7.54 7.54 0 0 0-7.33 5.74 2.12 2.12 0 0 1-.16.47z"/><path fill="#FFF" d="M475.17 710.21a37.44 37.44 0 1 1-50.73-15.16 37.47 37.47 0 0 1 9.7-3.62 37.46 37.46 0 0 1 41.03 18.78z"/><path fill="#FFF" d="m414.36 705.07-22.64-16.83 30.2-17.85 12.26 22.55z"/><path fill="#FFD829" d="m654.11 772.54-35.78-6.14 14.24-91.58 44.1 7.27h.09c2.36.2 4.77.6 7.14 1.18l.16.03.33.1a46.29 46.29 0 0 1 15.84 7.5 48.24 48.24 0 0 1 3.33 2.68l.06.06 144.8 105.93-54.85 74.98L654.1 772.54z"/><path d="m634.23 677.12 42.05 6.93.15.03.16.01c2.23.19 4.5.56 6.75 1.1l.55.15a44.22 44.22 0 0 1 15.16 7.17 46.15 46.15 0 0 1 3.19 2.57l.13.12.15.1L845.63 800l-52.5 71.76L655.67 771.2l-.76-.55-.92-.16-33.38-5.73 13.62-87.64m-3.33-4.6-14.85 95.52 37.26 6.39L794 877.35l57.22-78.22-146.34-107.05a49.52 49.52 0 0 0-3.46-2.8 48.3 48.3 0 0 0-16.53-7.82l.01-.04-.52-.09a48.32 48.32 0 0 0-7.45-1.23l-46.03-7.59z"/><path fill="#FFF" d="M941.07 771.94a9.08 9.08 0 0 0-6.76-1.68l-1.43.49-103.58 140.2 5.3 5.07a9.14 9.14 0 0 0 12.78-1.92l19.01-25.74 45.03-60.95L943 784.69a9.12 9.12 0 0 0-1.92-12.75z"/><path d="m850.12 799.17-56.96 77.1 36.14 34.67 103.58-140.2z"/><path d="m850.1 799.1-1.66-1.22a7.7 7.7 0 0 0-10.73 1.61l-12.02 16.26a7.7 7.7 0 0 0 1.61 10.74l1.65 1.22 9.27 6.84 21.13-28.61-9.26-6.84z"/><path fill="#FFF" d="m859.38 819.36-14.87-7.49 1.8-3.57 11.37 5.73 6.85-12.99 13.13 6.6 6.86-12.98 13.12 6.6 5.95-11.25 3.54 1.87-7.79 14.72-13.12-6.6-6.86 12.98-13.12-6.6z"/><path fill="#FFD829" d="M343.6 521.1c-5.36-9.92-13.46-24.91-13.25-41.5.24-19.8 12.77-36.53 37.23-49.74l39.23-21.17a29.66 29.66 0 0 1 14.02-3.63c8.7 0 16.09 4.04 19.74 10.8L541.79 603.4 422.7 667.67l-79.1-146.56z"/><path d="M420.84 407.06c7.95 0 14.67 3.65 17.97 9.76l78.6 145.62 12 22.23 9.67 17.91-5.42 2.93-88.77 47.91-21.38 11.54-9.66-17.9-12-22.24-56.5-104.66c-5.25-9.74-13.2-24.46-13-40.53a43.4 43.4 0 0 1 7.57-24.05c5.97-8.87 15.6-16.93 28.61-23.96l39.23-21.17a27.68 27.68 0 0 1 13.08-3.4m0-4a31.61 31.61 0 0 0-14.98 3.88l-39.23 21.17c-58.47 31.57-35.35 74.4-24.8 93.96l56.5 104.66 12 22.23 11.56 21.43 24.9-13.44 88.77-47.91 8.94-4.83-11.57-21.43-12-22.22-78.6-145.63c-4.13-7.66-12.43-11.86-21.5-11.86z"/><path fill="#FFD829" d="m402.33 410.5-44.66 24.1-24.88-46.11 44.66-24.1z"/><path d="m356.87 437.3-26.79-49.63 48.18-26 26.79 49.62-48.18 26zm-21.37-48.01 22.99 42.58 41.14-22.2-22.99-42.59-41.14 22.2z"/><path fill="#FFD829" d="M386.64 275.65c-.88.48-1.72 1-2.52 1.56a75.1 75.1 0 0 0-126.93 68.51 26.07 26.07 0 1 0 22.08 47.13 26.19 26.19 0 0 0 5.22-3.7 75.08 75.08 0 0 0 120.94-65.28 26.2 26.2 0 0 0 5.97-2.33 26.07 26.07 0 0 0-24.76-45.89z"/><path d="M330.66 406.96a77.64 77.64 0 0 1-46.09-15.24 28.14 28.14 0 0 1-17.66 6.27 28.06 28.06 0 0 1-24.73-14.74 27.88 27.88 0 0 1-2.19-21.37 27.88 27.88 0 0 1 14.91-17.34 77.45 77.45 0 0 1 39.08-82.5 77.19 77.19 0 0 1 36.54-9.26 77.63 77.63 0 0 1 53.86 21.87 28.11 28.11 0 0 1 14.62-4.13 28.06 28.06 0 0 1 24.72 14.74 27.88 27.88 0 0 1 2.2 21.37 27.87 27.87 0 0 1-13.57 16.66 28.1 28.1 0 0 1-4.8 2.05 77.15 77.15 0 0 1-76.89 81.62zm-46.27-20.43 1.33 1.04a73.6 73.6 0 0 0 44.94 15.39 73.15 73.15 0 0 0 72.78-78.94l-.13-1.68 1.63-.41a24.23 24.23 0 0 0 5.51-2.16c5.66-3.05 9.79-8.12 11.63-14.28s1.17-12.67-1.88-18.33a24.06 24.06 0 0 0-21.2-12.64 24.1 24.1 0 0 0-11.41 2.9c-.77.41-1.53.88-2.33 1.43l-1.39.96-1.18-1.2a73.57 73.57 0 0 0-52.17-21.83 73.1 73.1 0 0 0-34.64 8.78c-28.47 15.37-43.58 48.15-36.74 79.74l.36 1.65-1.56.63c-.9.36-1.72.74-2.48 1.15a23.91 23.91 0 0 0-11.63 14.3 23.91 23.91 0 0 0 1.88 18.32 24.07 24.07 0 0 0 21.2 12.64c3.96 0 7.9-1 11.4-2.9a24.27 24.27 0 0 0 4.84-3.42l1.24-1.14z"/><path fill="none" d="m251.99 370.12 22.32 7.7"/><path d="M274.31 379.82a1.98 1.98 0 0 1-.65-.1l-22.32-7.7a2 2 0 0 1-1.24-2.55 2 2 0 0 1 2.54-1.24l22.33 7.7a2 2 0 0 1-.66 3.9z"/><path fill="none" d="m404.63 287.73-5.82 22.9"/><path d="M398.81 312.62a2 2 0 0 1-1.94-2.5l5.82-22.88a2 2 0 1 1 3.88.98l-5.82 22.9a2 2 0 0 1-1.94 1.5z"/><circle cx="304.91" cy="352.79" r="9.91"/><path d="M289.15 365.7a2 2 0 0 1-1.99-2.2 26 26 0 0 1 13.5-20.12 26 26 0 0 1 24.22-.25 2 2 0 0 1-1.83 3.56 22 22 0 0 0-20.5.2 22 22 0 0 0-11.41 17.03 2 2 0 0 1-1.99 1.79z"/><circle cx="361.8" cy="322.08" r="9.91"/><path d="M346.04 335a2 2 0 0 1-1.99-2.21 25.99 25.99 0 0 1 13.5-20.12 25.98 25.98 0 0 1 24.22-.24 2 2 0 0 1-1.83 3.56 22 22 0 0 0-20.5.2 21.99 21.99 0 0 0-11.41 17.02 2 2 0 0 1-1.99 1.79z"/><path fill="none" d="m333.95 337.2 6.85 12.69"/><path d="M340.8 351.89a2 2 0 0 1-1.76-1.05l-6.85-12.7a2 2 0 1 1 3.52-1.9l6.85 12.7a2 2 0 0 1-1.76 2.95z"/><path fill="#FFF" d="M367.07 345.13a25.37 25.37 0 0 1-44.66 24.11l44.66-24.1z"/><path fill="#FFD829" d="m578.89 629.7-138.46 74.74-18.42-34.13 138.46-74.73zm26.7-26.4-1.17 2.1-81.15-45.25 24.68-44.28 1.05-1.57a46.45 46.45 0 0 1 61.36-14.95 45.9 45.9 0 0 1 3.62 2.26l.08.05 156.7 87.36-45.25 81.15-119.92-66.86z"/><path d="M587.79 495.46c7.51 0 14.98 1.95 21.6 5.63a44.04 44.04 0 0 1 3.47 2.16l.15.1.15.1 154.88 86.34-43.3 77.66-116.44-64.92-3.49-1.94-1.16 2.08-77.66-43.3 22.87-41.01v-.02l.02-.02.1-.18.02-.04.63-1.14 1.03-1.56a44.36 44.36 0 0 1 37.13-19.94m0-4a48.47 48.47 0 0 0-40.46 21.74l-.14-.08-1.77 3.19a.28.28 0 0 1-.01.02.1.1 0 0 1-.02.02l-24.85 44.57 84.65 47.2 1.16-2.1 119.93 66.87 47.2-84.65-158.37-88.29a49.67 49.67 0 0 0-3.78-2.35 48.23 48.23 0 0 0-23.54-6.14z"/><path fill="#FFF" d="M859.31 550.24a9.1 9.1 0 0 0-6.91-.84l-1.36.66-85.6 151.84 5.87 4.39a9.14 9.14 0 0 0 12.45-3.48l15.72-27.87 37.22-66.02 26.08-46.27a9.12 9.12 0 0 0-3.47-12.42z"/><path d="m772.4 588.41-47.08 83.52 40.12 29.97 85.6-151.84z"/><path d="m772.35 588.35-1.78-1a7.7 7.7 0 0 0-10.46 2.91l-9.93 17.61a7.7 7.7 0 0 0 2.92 10.46l1.78 1 10.04 5.66L782.38 594l-10.03-5.65z"/><path fill="#FFF" d="m784.05 607.42-15.68-5.6 1.35-3.77 11.98 4.29 5.22-13.74 13.83 4.95 5.22-13.73 13.83 4.95 4.53-11.9 3.73 1.42-5.91 15.56-13.84-4.94-5.22 13.73-13.83-4.95z"/><path d="m608.23 602.6-84.37-47.03-55.93 99.62-27.5 49.24h.02l-.02.01c19.1 45.5 55.62 44.76 73.93 47.58l102.89 16.21 13.65-95.72-53.37-8.27c-.03.09-.06.17-.11.25l-9.1 16.47-.9 1.64c-4.2 7.61-12.91 23.45-26.4 35.78-14.4 13.17-30.01 18.52-46.51 15.95a58.68 58.68 0 0 1-8.68-2.05 1.61 1.61 0 0 1-1.05-2.02 1.61 1.61 0 0 1 2.02-1.05c43.67 13.8 69.35-32.83 77.8-48.16"/><path fill="#FFD829" d="m464.95 477.07 69.8-38.14a31.7 31.7 0 0 0 17.35-19.98l31.2-106.37-.07-.02a51.71 51.71 0 0 1 8.19-11.58 47.68 47.68 0 0 0 8.97-13.37 95.12 95.12 0 0 0 4.58-12.6l6.26-20.95 6.61-22.13-.04-.02a9.7 9.7 0 1 0-18.8-4.67l-6.36 21.27-.08-.02 8.39-28.06-.04-.02a9.7 9.7 0 1 0-18.8-4.67l-8.13 27.2-.08-.03 10.15-33.98-.04-.03a9.7 9.7 0 1 0-18.8-4.67l-9.9 33.13-.08-.03 8.39-28.05-.04-.03a9.7 9.7 0 1 0-18.59-5.55 9.92 9.92 0 0 0-.21.88l-10.44 34.91-.44.1.73-16.87s-.04 0-.04-.02a9.7 9.7 0 1 0-19.38.02l-1.8 40.27c-.08.65-.15 1.3-.18 1.97a27.35 27.35 0 0 0 5.52 17.8c1.56 2.55 4.14 7.57 3.52 11.95h.01l-27.44 93.6-60.37 32.98"/><path d="M464.96 479.07a2 2 0 0 1-1.76-1.04 2 2 0 0 1 .8-2.71l69.79-38.14.13-.07a29.78 29.78 0 0 0 16.26-18.73l31.07-105.93a1.87 1.87 0 0 1 .21-.82 53.6 53.6 0 0 1 8.52-12.03 45.34 45.34 0 0 0 8.6-12.82 92.07 92.07 0 0 0 4.48-12.35l12.75-42.68a2 2 0 0 1 .08-.41 7.65 7.65 0 0 0-.6-5.87 7.65 7.65 0 0 0-4.57-3.71 7.71 7.71 0 0 0-9.59 5.17 9.53 9.53 0 0 0-.17.72 1.9 1.9 0 0 1-.05.16l-6.35 21.27a2 2 0 0 1-2.44 1.36 2.1 2.1 0 0 1-1.26-.97 2.03 2.03 0 0 1-.21-1.56l8.27-27.66a2.03 2.03 0 0 1 .08-.42 7.71 7.71 0 0 0-14.76-4.4 7 7 0 0 0-.17.69 2.03 2.03 0 0 1-.04.19l-8.13 27.2a2 2 0 0 1-2.44 1.35 2.1 2.1 0 0 1-1.27-.97 2.03 2.03 0 0 1-.2-1.56l10.03-33.58a2 2 0 0 1 .08-.42 7.7 7.7 0 1 0-14.97-3.53l-9.9 33.12a2 2 0 0 1-2.45 1.36 2.1 2.1 0 0 1-1.26-.97 2.04 2.04 0 0 1-.2-1.55l8.27-27.66a1.66 1.66 0 0 1 .02-.16l.06-.27a7.64 7.64 0 0 0-.6-5.86 7.65 7.65 0 0 0-4.57-3.72 7.65 7.65 0 0 0-5.87.6 7.65 7.65 0 0 0-3.89 5.27 1.74 1.74 0 0 1-.04.19l-10.44 34.9a2 2 0 0 1-1.43 1.38l-.44.1a2 2 0 0 1-2.49-2.03l.72-16.47a2.13 2.13 0 0 1-.02-.42 7.71 7.71 0 0 0-7.34-8.04 7.64 7.64 0 0 0-5.55 2 7.65 7.65 0 0 0-2.5 6.06v.18l-1.8 40.26a1.72 1.72 0 0 1-.02.15 24.45 24.45 0 0 0-.16 1.83 25.5 25.5 0 0 0 5.11 16.5l.11.16c1.7 2.77 4.4 8.1 3.83 13 0 .2-.02.38-.08.57l-27.44 93.58a1.99 1.99 0 0 1-.96 1.2l-60.37 32.98a2 2 0 1 1-1.92-3.5l59.64-32.6 27.14-92.53c.54-3.84-2.02-8.58-3.2-10.54a29.51 29.51 0 0 1-5.85-19c.03-.63.08-1.28.17-2.05l1.8-40.1a11.63 11.63 0 0 1 3.81-9.1 11.64 11.64 0 0 1 8.42-3.05c6.3.29 11.22 5.53 11.17 11.79l.03.44-.1 2.4 6.3-21.1a11.62 11.62 0 0 1 5.9-7.92 11.62 11.62 0 0 1 8.9-.92c2.88.86 5.27 2.75 6.77 5.34 2.57-4.8 8.25-7.3 13.66-5.69a11.72 11.72 0 0 1 8.3 12.26 11.67 11.67 0 0 1 8.6-.75 11.73 11.73 0 0 1 8.3 12.26 11.64 11.64 0 0 1 8.6-.76 11.6 11.6 0 0 1 6.94 5.66 11.61 11.61 0 0 1 1.03 8.47 2 2 0 0 1-.08.46l-12.87 43.07a98.2 98.2 0 0 1-4.68 12.87 49.85 49.85 0 0 1-9.34 13.92 49.13 49.13 0 0 0-7.63 10.68l-.03.1-31.19 106.36a33.77 33.77 0 0 1-18.38 21.21l-69.73 38.1a2 2 0 0 1-.95.25z"/><path fill="#FFF" d="M356.89 508.93c13.63 25.26 44.94 34.8 69.92 21.31l50.5-27.25-49.37-91.46-50.5 27.26c-24.98 13.48-34.18 44.89-20.55 70.14zM595.4 951.34l-.39-284.3 9.96-.02.4 284.3z"/><path fill="none" d="m819.68 206.32-7.13 45.83"/><path d="m814.53 252.45-3.95-.61 7.12-45.82 3.95.61z"/><path fill="none" d="m834.84 215.55-37.45 27.37"/><path d="m798.58 244.54-2.36-3.23 37.43-27.37 2.36 3.23z"/><path fill="none" d="m839.03 232.8-45.83-7.13"/><path d="m838.72 234.78-45.83-7.13.62-3.95 45.83 7.12z"/><path fill="none" d="m829.8 247.96-27.37-37.44"/><path d="m828.22 249.13-27.37-37.44 3.22-2.36 27.37 37.44z"/><path fill="none" d="m851.8 168.7-7.12 45.83"/><path d="m846.66 214.84-3.96-.62 7.12-45.82 3.95.61z"/><path fill="none" d="m866.96 177.94-37.44 27.36"/><path d="m830.7 206.92-2.36-3.23 37.44-27.37 2.36 3.23z"/><path fill="none" d="m871.15 195.18-45.82-7.12"/><path d="m870.85 197.16-45.83-7.13.61-3.95 45.83 7.13z"/><path fill="none" d="m861.93 210.34-27.37-37.44"/><path d="m860.35 211.5-27.37-37.44 3.22-2.36 27.37 37.45z"/><path fill="none" d="m870.99 214.3-7.12 45.83"/><path d="m865.78 260.4-3.95-.62 7.11-45.82 3.96.61z"/><path fill="none" d="m886.15 223.53-37.44 27.37"/><path d="m849.9 252.52-2.37-3.23 37.44-27.38 2.36 3.23z"/><path fill="none" d="m890.35 240.77-45.83-7.12"/><path d="m890.03 242.75-45.82-7.12.61-3.95 45.83 7.12z"/><path fill="none" d="m881.12 255.94-27.37-37.45"/><path d="m879.54 257.1-27.37-37.44 3.23-2.36 27.36 37.44z"/><path fill="none" d="m778.72 352.21-7.13 45.83"/><path d="M771.6 400.04a2 2 0 0 1-1.98-2.3l7.12-45.83a2 2 0 1 1 3.95.6l-7.12 45.84a2 2 0 0 1-1.97 1.69z"/><path fill="none" d="m793.88 361.44-37.44 27.37"/><path d="M756.44 390.81a2 2 0 0 1-1.18-3.61l37.44-27.37a2 2 0 1 1 2.36 3.23l-37.44 27.37a1.99 1.99 0 0 1-1.18.38z"/><path fill="none" d="m798.07 378.69-45.83-7.13"/><path d="m798.07 380.69-.3-.03-45.84-7.12a2 2 0 0 1 .62-3.95l45.83 7.12a2 2 0 0 1-.3 3.98z"/><path fill="none" d="m788.84 393.85-27.36-37.45"/><path d="M788.84 395.85a1.99 1.99 0 0 1-1.61-.82l-27.37-37.45a2 2 0 1 1 3.23-2.36l27.37 37.45a2 2 0 0 1-1.62 3.18zM256.4 318.59a75.41 75.41 0 0 0-.07 22.88l2.78 5.14 83.58-45.12-7.67-28.7 20.16 21.96 30.36-16.38-.49-.9a75.5 75.5 0 0 0-128.66 41.12z"/></svg>
