<?xml version="1.0" encoding="utf-8"?>
<!-- Generator: Adobe Illustrator 16.0.0, SVG Export Plug-In . SVG Version: 6.00 Build 0)  -->
<!DOCTYPE svg PUBLIC "-//W3C//DTD SVG 1.1//EN" "http://www.w3.org/Graphics/SVG/1.1/DTD/svg11.dtd">
<svg version="1.1" id="Layer_1" xmlns="http://www.w3.org/2000/svg" xmlns:xlink="http://www.w3.org/1999/xlink" x="0px" y="0px"
	 width="1080px" height="1080px" viewBox="0 0 1080 1080" enable-background="new 0 0 1080 1080" xml:space="preserve">
<g>
	<g>
		<g>
			<g>
				
					<rect x="-202.832" y="528.341" transform="matrix(0.0055 1 -1 0.0055 747.2785 315.215)" fill="#FFFFFF" width="835.977" height="9.963"/>
			</g>
		</g>
		<g>
			<g>
				<polygon fill="#FFFFFF" points="513.167,235.086 490.751,210.225 450.923,151.875 454.228,149.621 493.979,207.858 
					516.136,232.406 				"/>
			</g>
			<g>
				<polygon fill="#FFFFFF" points="821.75,966.049 745.396,886.859 745.392,886.058 744.669,723.328 668.612,532.628 
					623.604,446.052 562.653,378.061 565.632,375.391 626.921,443.758 627.037,443.983 672.291,531.054 748.665,722.551 
					748.667,722.931 749.388,885.238 824.629,963.272 				"/>
			</g>
			<g>
				<polygon fill="#FFFFFF" points="244.263,270.964 160.134,176.74 133.405,116.903 137.058,115.271 163.532,174.54 247.247,268.3 
									"/>
			</g>
			<g>
				
					<rect x="417.385" y="328.955" transform="matrix(0.9278 0.3731 -0.3731 0.9278 156.9467 -149.0925)" fill="#FFFFFF" width="92.593" height="4"/>
			</g>
			<g>
				<polygon fill="#FFFFFF" points="609.799,263.569 609.709,259.57 655.014,258.55 734.858,214.22 736.8,217.717 656.092,262.526 
									"/>
			</g>
			<g>
				<polygon fill="#FFFFFF" points="864.122,466.481 788.63,453.095 789.329,449.157 862.942,462.21 903.667,426.898 
					906.288,429.92 				"/>
			</g>
		</g>
		<g>
			<g>
				<path fill="#FFFFFF" d="M604.625,671.191l-9.924-0.885c0.104-1.158,0.207-2.259,0.306-3.309
					c1.242-13.223,1.617-17.213-8.77-32.799c-9.578-14.375-21.545-27.423-33.118-40.042c-10.497-11.445-21.353-23.281-30.63-36.269
					c-18.209-25.487-34.083-58.492-47.21-87.416c-2.247-4.952-4.52-9.929-6.8-14.92c-6.214-13.607-12.639-27.677-18.664-41.522
					c-3.238-7.439-6.175-15.175-9.014-22.656c-5.278-13.907-10.737-28.288-18.261-41.009c-22.935-38.776-58.544-67.692-90.12-91.752
					c-7.303-5.564-14.857-11.084-22.162-16.423c-43.64-31.891-88.765-64.868-102.449-123.777l9.703-2.254
					c12.848,55.303,54.513,85.751,98.624,117.988c7.345,5.367,14.939,10.917,22.321,16.542c32.325,24.63,68.81,54.284,92.657,94.605
					c7.96,13.458,13.572,28.245,19.001,42.545c2.798,7.372,5.69,14.994,8.834,22.215c5.989,13.764,12.396,27.793,18.592,41.36
					c2.283,5,4.559,9.983,6.81,14.942c12.928,28.487,28.532,60.951,46.244,85.742c8.924,12.493,19.57,24.101,29.865,35.326
					c11.829,12.897,24.062,26.234,34.066,41.251c12.346,18.524,11.735,25.021,10.398,39.255
					C604.828,668.965,604.727,670.049,604.625,671.191z"/>
			</g>
		</g>
		<g>
			<g>
				<path fill="#FFD829" d="M338.662,285.459c-4.686-2.436-10.463-0.609-12.9,4.076c-0.003,0.005-0.005,0.009-0.006,0.014
					l-0.04-0.023l-11.489,22.101c-0.106-0.104-0.22-0.205-0.33-0.31l5.526-23.086c0.095-0.281,0.18-0.565,0.252-0.86
					c0.069-0.296,0.121-0.589,0.164-0.883l0.072-0.303l-0.039-0.01c0.518-4.722-2.539-9.202-7.276-10.336
					c-4.741-1.134-9.494,1.479-11.167,5.924l-0.126-0.03l-4.165,17.411l-0.078-0.017l3.675-15.367
					c0.096-0.281,0.184-0.564,0.253-0.86c1.229-5.141-1.941-10.303-7.078-11.53c-5.141-1.227-10.301,1.941-11.531,7.079
					c-0.001,0.004-0.002,0.007-0.002,0.012l-0.044-0.012l-3.882,16.227l-0.078-0.017l3.676-15.366
					c0.098-0.281,0.182-0.568,0.251-0.863c1.231-5.14-1.937-10.302-7.077-11.531c-4.942-1.182-9.896,1.711-11.359,6.504
					l-0.074-0.017l-4.023,16.818l-0.079-0.018l3.677-15.366c0.095-0.28,0.183-0.566,0.254-0.861
					c1.227-5.139-1.942-10.299-7.081-11.529c-5.138-1.229-10.302,1.941-11.531,7.079c0,0.003,0.002,0.007,0,0.01l-0.044-0.01
					l-3.883,16.225l-5.013,20.964l-4.011,16.76c-1.526,4.749-1.009,9.81,1.203,14.062c2.213,5.587,2.506,11.594,2.521,11.894
					l-25.212,107.841c-3.994,17.095,6.62,34.192,23.717,38.188c0.649,0.151,1.302,0.275,1.955,0.385l105.867,24.75l14.473-61.904
					l-76.855-17.968l17.697-75.712c1.674-4.001,5.82-7.648,8.39-9.041c5.617-2.366,10.474-6.631,13.506-12.462
					c0.304-0.581,0.574-1.172,0.831-1.764l22.141-42.595c0.16-0.248,0.313-0.5,0.451-0.769
					C345.177,293.675,343.349,287.897,338.662,285.459z"/>
				<path d="M342.106,522.576c-0.151,0-0.304-0.017-0.457-0.053l-105.807-24.736c-0.742-0.125-1.401-0.256-2.015-0.399
					c-18.141-4.24-29.449-22.449-25.21-40.591l25.146-107.56c-0.083-1.298-0.508-6.24-2.33-10.892
					c-2.438-4.749-2.914-10.36-1.308-15.427l12.889-53.876c0.036-0.151,0.089-0.293,0.154-0.426
					c1.395-4.999,5.911-8.452,11.133-8.452c0.904,0,1.812,0.107,2.699,0.319c3.894,0.933,6.857,3.746,8.156,7.246
					c2.095-1.935,4.881-3.096,7.835-3.096c0.903,0,1.81,0.107,2.694,0.319c3.006,0.719,5.552,2.565,7.168,5.198
					c0.395,0.644,0.723,1.315,0.981,2.006c2.075-1.912,4.843-3.051,7.842-3.051c0.903,0,1.811,0.107,2.695,0.318
					c3.005,0.718,5.55,2.563,7.167,5.197c0.399,0.651,0.731,1.332,0.992,2.032c2.096-1.931,4.881-3.078,7.832-3.078
					c0.903,0,1.811,0.107,2.696,0.319c5.517,1.32,9.254,6.475,8.837,12.092c0.024,0.217,0.013,0.44-0.041,0.663l-0.052,0.219
					c-0.049,0.319-0.107,0.637-0.183,0.959c-0.083,0.337-0.174,0.648-0.274,0.954l-2.135,8.918l4.729-9.095
					c0.072-0.139,0.16-0.268,0.261-0.384c2.058-3.613,5.872-5.839,10.059-5.839c1.841,0,3.682,0.451,5.324,1.305
					c2.741,1.426,4.763,3.834,5.694,6.78c0.932,2.947,0.658,6.08-0.768,8.82c-0.148,0.289-0.316,0.571-0.493,0.849l-22.066,42.453
					c-0.312,0.714-0.587,1.297-0.865,1.829c-3.104,5.97-8.219,10.705-14.405,13.337c-2.196,1.219-5.843,4.403-7.354,7.864
					l-17.203,73.595l74.908,17.513c0.517,0.121,0.964,0.441,1.244,0.892c0.279,0.451,0.369,0.994,0.248,1.51l-14.473,61.904
					C343.836,521.953,343.015,522.576,342.106,522.576z M246.808,270.382l-12.809,53.54c-0.012,0.049-0.025,0.098-0.041,0.146
					c-1.321,4.11-0.93,8.676,1.073,12.527c0.031,0.061,0.06,0.123,0.085,0.187c2.269,5.728,2.626,11.853,2.659,12.532
					c0.009,0.186-0.008,0.373-0.051,0.553l-25.212,107.841c-3.737,15.995,6.233,32.048,22.225,35.786
					c0.607,0.141,1.219,0.257,1.83,0.359c0.042,0.007,0.084,0.016,0.125,0.025l103.92,24.294l13.562-58.009l-74.908-17.513
					c-1.076-0.251-1.744-1.327-1.492-2.402l17.697-75.712c0.025-0.108,0.06-0.214,0.103-0.317c1.983-4.741,6.637-8.594,9.281-10.027
					c0.058-0.031,0.116-0.06,0.177-0.085c5.372-2.263,9.814-6.362,12.508-11.542c0.243-0.465,0.487-0.983,0.771-1.637
					c0.019-0.042,0.039-0.084,0.061-0.126l22.141-42.595c0.028-0.056,0.061-0.11,0.094-0.163c0.125-0.192,0.245-0.387,0.353-0.596
					c0.938-1.803,1.116-3.851,0.507-5.779s-1.933-3.503-3.726-4.437c-1.09-0.566-2.26-0.854-3.479-0.854
					c-2.823,0-5.387,1.545-6.702,4.036c-0.072,0.149-0.161,0.288-0.267,0.414l-11.291,21.719c-0.292,0.562-0.834,0.953-1.461,1.053
					c-0.627,0.099-1.263-0.104-1.715-0.548l-0.304-0.285c-0.52-0.492-0.736-1.223-0.57-1.918l5.526-23.086
					c0.015-0.058,0.03-0.116,0.05-0.172c0.077-0.229,0.146-0.459,0.205-0.698c0.052-0.22,0.093-0.458,0.128-0.696
					c0.004-0.027,0.008-0.053,0.013-0.08c0.001-0.054,0.005-0.107,0.011-0.162c0.414-3.775-2.06-7.289-5.754-8.173
					c-0.581-0.139-1.175-0.209-1.766-0.209c-3.124,0-5.963,1.966-7.063,4.893c-0.057,0.151-0.131,0.292-0.218,0.42l-4,16.721
					c-0.254,1.054-1.307,1.715-2.361,1.491c-0.527-0.112-1.026-0.44-1.314-0.896c-0.287-0.456-0.418-1.017-0.293-1.542l3.675-15.367
					c0.015-0.06,0.032-0.12,0.052-0.179c0.075-0.22,0.145-0.441,0.199-0.672c0.473-1.976,0.148-4.007-0.909-5.73
					c-1.058-1.722-2.722-2.93-4.687-3.399c-0.581-0.139-1.176-0.209-1.767-0.209c-3.497,0-6.511,2.369-7.345,5.767
					c-0.033,0.158-0.085,0.311-0.155,0.455l-3.782,15.813c-0.253,1.055-1.307,1.715-2.361,1.491
					c-0.527-0.112-1.026-0.44-1.314-0.896c-0.287-0.456-0.418-1.017-0.293-1.542l3.676-15.366c0.016-0.064,0.034-0.128,0.056-0.191
					c0.075-0.217,0.141-0.438,0.193-0.665c0.474-1.974,0.15-4.005-0.906-5.728c-1.058-1.722-2.723-2.93-4.688-3.4
					c-0.581-0.139-1.175-0.209-1.765-0.209c-3.287,0-6.255,2.201-7.217,5.352c-0.043,0.141-0.101,0.273-0.169,0.396l-3.896,16.287
					c-0.255,1.062-1.319,1.727-2.379,1.487c-0.523-0.116-1.018-0.446-1.302-0.901s-0.414-1.013-0.289-1.534l3.677-15.366
					c0.015-0.059,0.031-0.118,0.051-0.175c0.076-0.225,0.147-0.454,0.204-0.691c0.968-4.051-1.545-8.143-5.603-9.114
					c-0.581-0.139-1.176-0.209-1.768-0.209c-3.487,0-6.495,2.358-7.337,5.743C246.933,270.071,246.88,270.23,246.808,270.382z"/>
			</g>
			<g>
				<g>
					<g>
						<path fill="#FFFFFF" d="M475.169,710.214c9.821,18.196,3.034,40.909-15.164,50.73c-18.196,9.821-40.911,3.033-50.732-15.163
							c-9.82-18.196-3.031-40.91,15.164-50.732c3.127-1.688,6.389-2.887,9.695-3.62
							C450.061,687.897,467.034,695.144,475.169,710.214z"/>
					</g>
					<g>
						<polygon fill="#FFFFFF" points="414.362,705.068 391.715,688.237 421.928,670.386 434.177,692.936 						"/>
					</g>
				</g>
				<g>
					<g>
						<g>
							<g>
								<path fill="#FFD829" d="M654.112,772.538l-35.781-6.139l14.236-91.583l44.113,7.273l0.079,0.007
									c2.367,0.199,4.771,0.596,7.144,1.178l0.154,0.031l0.337,0.096c5.73,1.476,11.06,3.996,15.84,7.492
									c1.091,0.8,2.179,1.679,3.324,2.685l0.067,0.06l144.801,105.928l-54.859,74.987L654.112,772.538z"/>
							</g>
							<g>
								<path d="M634.234,677.118l42.043,6.932l0.156,0.026l0.158,0.014c2.235,0.188,4.506,0.561,6.749,1.106l0.555,0.143
									c5.484,1.411,10.584,3.823,15.155,7.167c1.045,0.766,2.087,1.607,3.188,2.574l0.135,0.119l0.145,0.105l143.114,104.693
									l-52.497,71.76L655.672,771.201l-0.759-0.555l-0.927-0.159l-33.376-5.726L634.234,677.118 M630.901,672.515l-14.849,95.523
									l37.258,6.392l140.69,102.918l57.221-78.216L704.879,692.076c-1.105-0.972-2.254-1.91-3.464-2.797
									c-5.12-3.745-10.732-6.324-16.522-7.814l0.009-0.047l-0.521-0.086c-2.461-0.604-4.952-1.018-7.452-1.229L630.901,672.515
									L630.901,672.515z"/>
							</g>
						</g>
						<g>
							<g>
								<defs>
									<path id="SVGID_5_" d="M934.307,770.258l0.001-0.002l-84.184,28.91L793.16,876.27l41.433,39.748
										c4.059,2.998,9.783,2.139,12.783-1.921l19.014-25.736l45.033-60.955l31.561-42.719c2.991-4.048,2.136-9.756-1.914-12.747
										C939.047,770.446,936.61,769.909,934.307,770.258z"/>
								</defs>
								<use xlink:href="#SVGID_5_"  overflow="visible" fill="#FFFFFF"/>
								<clipPath id="SVGID_2_">
									<use xlink:href="#SVGID_5_"  overflow="visible"/>
								</clipPath>
								<g clip-path="url(#SVGID_2_)">
									<polygon points="935.909,766.644 827.946,912.776 782.287,869.909 885.888,729.687 									"/>
								</g>
							</g>
							<g>
								<path d="M850.093,799.096l-1.649-1.217c-3.396-2.512-8.229-1.785-10.737,1.611l-12.014,16.263
									c-2.511,3.396-1.786,8.228,1.612,10.734l1.648,1.219l9.263,6.842l21.136-28.61L850.093,799.096z"/>
							</g>
							<g>
								<polygon fill="#FFFFFF" points="859.382,819.364 844.514,811.873 846.314,808.301 857.677,814.026 864.535,801.041 
									877.656,807.646 884.517,794.66 897.642,801.266 903.592,790.01 907.129,791.879 899.345,806.602 886.222,799.996 
									879.361,812.982 866.24,806.377 								"/>
							</g>
						</g>
					</g>
				</g>
				<g>
					<g>
						<path fill="#FFD829" d="M343.597,521.108c-5.356-9.923-13.452-24.919-13.249-41.5c0.242-19.803,12.77-36.541,37.236-49.747
							l39.23-21.174c4.398-2.375,9.248-3.63,14.022-3.63c8.704,0,16.081,4.041,19.735,10.809L541.791,603.39l-119.088,64.282
							L343.597,521.108z"/>
					</g>
					<g>
						<path d="M420.838,407.058c7.956,0,14.676,3.648,17.975,9.758l78.604,145.626l11.997,22.229l9.668,17.909l-5.419,2.926
							l-88.769,47.913l-21.38,11.543l-9.666-17.912l-11.998-22.228l-56.493-104.664c-5.259-9.741-13.206-24.463-13.009-40.526
							c0.105-8.64,2.654-16.732,7.576-24.052c5.965-8.871,15.591-16.932,28.609-23.959l39.231-21.174
							C411.873,408.23,416.393,407.058,420.838,407.058 M420.838,403.058c-4.945,0-10.119,1.25-14.974,3.87l-39.23,21.174
							c-58.478,31.564-35.354,74.401-24.797,93.957l56.492,104.664l11.998,22.228l11.566,21.432l24.9-13.443l88.768-47.912
							l8.939-4.827l-11.568-21.429l-11.997-22.228l-78.604-145.627C438.197,407.258,429.902,403.058,420.838,403.058
							L420.838,403.058z"/>
					</g>
				</g>
				<g>
					<g>
						
							<rect x="342.193" y="373.283" transform="matrix(0.88 -0.4749 0.4749 0.88 -145.6267 222.5007)" fill="#FFD829" width="50.747" height="52.392"/>
						<path d="M356.871,437.292l-26.787-49.625l48.176-26.006l26.789,49.629L356.871,437.292z M335.504,389.288l22.986,42.584
							l41.139-22.202l-22.988-42.589L335.504,389.288z"/>
					</g>
					<g>
						<g id="XMLID_2_">
							<path fill="#FFD829" d="M386.64,275.654c-0.88,0.474-1.718,0.998-2.521,1.555c-22.83-23.231-59.093-29.654-89.193-13.406
								c-30.101,16.246-44.63,50.086-37.739,81.921c-0.904,0.365-1.803,0.777-2.683,1.253c-12.67,6.838-17.396,22.652-10.558,35.322
								c6.839,12.669,22.653,17.396,35.323,10.557c1.93-1.042,3.673-2.294,5.224-3.709c22.772,17.692,54.744,21.37,81.753,6.791
								c27.01-14.579,41.479-43.323,39.19-72.073c2.034-0.519,4.036-1.287,5.967-2.33c12.669-6.838,17.396-22.652,10.557-35.322
								C415.122,273.543,399.31,268.815,386.64,275.654z"/>
							<path d="M330.664,406.96c-0.002,0-0.003,0-0.005,0c-16.542-0.001-32.842-5.403-46.089-15.244
								c-1.357,1.098-2.814,2.07-4.351,2.899c-4.089,2.208-8.692,3.374-13.311,3.374c-10.342,0-19.814-5.648-24.723-14.74
								c-3.562-6.598-4.34-14.188-2.193-21.371c2.147-7.184,6.963-13.101,13.561-16.662c0.438-0.236,0.884-0.461,1.348-0.679
								c-6.363-32.813,9.535-66.552,39.074-82.495c11.228-6.061,23.864-9.264,36.542-9.264c20.039,0,39.574,7.952,53.863,21.869
								c0.438-0.268,0.872-0.519,1.311-0.755c4.087-2.206,8.689-3.373,13.308-3.373c10.341,0,19.813,5.649,24.721,14.742
								c3.562,6.597,4.341,14.187,2.194,21.371c-2.147,7.183-6.963,13.101-13.561,16.661c-1.534,0.829-3.146,1.514-4.811,2.046
								c1.743,29.849-13.962,58.116-40.347,72.357C355.971,403.757,343.338,406.96,330.664,406.96z M284.39,386.533l1.33,1.034
								c12.775,9.925,28.735,15.392,44.94,15.393c0,0,0.003,0,0.004,0c12.013,0,23.987-3.037,34.632-8.782
								c25.472-13.749,40.445-41.287,38.146-70.155l-0.134-1.68l1.634-0.417c1.919-0.489,3.772-1.213,5.511-2.152
								c5.657-3.054,9.787-8.127,11.628-14.287s1.173-12.668-1.881-18.325c-4.209-7.797-12.333-12.642-21.201-12.642
								c-3.957,0-7.902,1.001-11.409,2.894c-0.773,0.417-1.535,0.886-2.331,1.438l-1.385,0.96l-1.182-1.202
								c-13.635-13.875-32.651-21.832-52.175-21.832c-12.017,0-23.996,3.037-34.642,8.784
								c-28.466,15.364-43.571,48.153-36.734,79.738l0.356,1.646l-1.562,0.631c-0.901,0.364-1.712,0.743-2.48,1.158
								c-5.658,3.054-9.788,8.128-11.629,14.288s-1.174,12.667,1.88,18.326c4.209,7.796,12.334,12.64,21.203,12.64
								c3.957,0,7.903-1,11.41-2.894c1.74-0.94,3.364-2.093,4.826-3.427L284.39,386.533z"/>
						</g>
						<g>
							<line fill="#FFD829" x1="251.987" y1="370.122" x2="274.312" y2="377.82"/>
							<path d="M274.312,379.821c-0.216,0-0.437-0.035-0.652-0.11l-22.324-7.698c-1.044-0.36-1.599-1.499-1.238-2.542
								c0.358-1.044,1.496-1.603,2.543-1.239l22.324,7.698c1.044,0.36,1.599,1.499,1.238,2.542
								C275.917,379.301,275.142,379.821,274.312,379.821z"/>
						</g>
						<g>
							<line fill="#FFD829" x1="404.626" y1="287.732" x2="398.811" y2="310.621"/>
							<path d="M398.812,312.622c-0.163,0-0.328-0.02-0.493-0.062c-1.071-0.272-1.718-1.36-1.446-2.431l5.815-22.889
								c0.272-1.07,1.361-1.717,2.431-1.446c1.071,0.272,1.718,1.36,1.446,2.431l-5.815,22.889
								C400.519,312.019,399.705,312.622,398.812,312.622z"/>
						</g>
					</g>
					<g>
						<g>
							<circle cx="304.906" cy="352.788" r="9.906"/>
						</g>
						<g>
							<path d="M289.151,365.708c-0.071,0-0.144-0.003-0.216-0.011c-1.099-0.118-1.894-1.104-1.775-2.202
								c0.912-8.529,5.957-16.05,13.494-20.12c7.534-4.067,16.589-4.157,24.225-0.242c0.982,0.504,1.37,1.71,0.866,2.692
								c-0.503,0.983-1.704,1.372-2.692,0.867c-6.461-3.314-14.123-3.239-20.498,0.202c-6.377,3.443-10.646,9.809-11.418,17.026
								C291.027,364.947,290.16,365.708,289.151,365.708z"/>
						</g>
					</g>
					<g>
						<g>
							<circle cx="361.798" cy="322.079" r="9.906"/>
						</g>
						<g>
							<path d="M346.043,335c-0.071,0-0.143-0.003-0.215-0.011c-1.099-0.117-1.894-1.103-1.776-2.201
								c0.91-8.529,5.955-16.051,13.494-20.121c7.537-4.07,16.592-4.158,24.225-0.239c0.982,0.505,1.37,1.71,0.865,2.693
								c-0.505,0.983-1.709,1.371-2.693,0.866c-6.457-3.316-14.12-3.241-20.496,0.2c-6.379,3.443-10.647,9.808-11.418,17.026
								C347.919,334.238,347.052,335,346.043,335z"/>
						</g>
					</g>
					<g>
						<line fill="#FFD829" x1="333.949" y1="337.196" x2="340.799" y2="349.889"/>
						<path d="M340.801,351.889c-0.712,0-1.4-0.38-1.762-1.051l-6.85-12.692c-0.524-0.972-0.162-2.185,0.81-2.71
							c0.976-0.524,2.187-0.161,2.71,0.811l6.85,12.692c0.524,0.972,0.162,2.185-0.81,2.71
							C341.446,351.812,341.121,351.889,340.801,351.889z"/>
					</g>
					<g>
						<path fill="#FFFFFF" d="M367.066,345.134c6.656,12.33,2.056,27.723-10.277,34.379c-12.329,6.656-27.724,2.058-34.379-10.274
							L367.066,345.134z"/>
					</g>
				</g>
				<g>
					
						<rect x="421.782" y="630.623" transform="matrix(0.88 -0.475 0.475 0.88 -248.6915 315.7156)" fill="#FFD829" width="157.333" height="38.78"/>
				</g>
				<g>
					<g>
						<g>
							<path fill="#FFD829" d="M605.585,603.309l-1.165,2.085l-81.154-45.246l24.688-44.279l0.004,0.002l1.038-1.572
								c8.614-13.047,23.117-20.837,38.794-20.837c7.855,0,15.657,2.035,22.563,5.885c1.188,0.661,2.376,1.399,3.631,2.257
								l0.074,0.051l156.699,87.364l-45.245,81.153L605.585,603.309z"/>
						</g>
						<g>
							<path d="M587.79,495.461c7.515,0,14.98,1.948,21.592,5.633c1.134,0.631,2.271,1.337,3.474,2.16l0.15,0.103l0.158,0.088
								l154.873,86.346l-43.298,77.659l-116.435-64.917l-3.49-1.945l-1.166,2.085l-77.662-43.299l22.87-41.019l0.009-0.014
								l0.011-0.021l0.104-0.177l0.021-0.047l0.631-1.132l1.033-1.564C558.908,502.915,572.787,495.461,587.79,495.461
								 M587.79,491.461c-15.85,0-31.258,7.793-40.463,21.735l-0.132-0.076l-1.775,3.187c-0.005,0.008-0.009,0.014-0.013,0.021
								c-0.003,0.007-0.007,0.013-0.011,0.02l-24.852,44.573l84.646,47.192l1.165-2.085l119.929,66.864l47.193-84.646
								l-158.366-88.294c-1.215-0.83-2.473-1.622-3.785-2.353C603.862,493.438,595.77,491.461,587.79,491.461L587.79,491.461z"/>
						</g>
					</g>
					<g>
						<g>
							<defs>
								<path id="SVGID_7_" d="M852.396,549.396L852.396,549.396l-80.002,39.018l-47.076,83.511l45.997,34.362
									c4.396,2.479,9.971,0.924,12.45-3.474l15.713-27.874l37.217-66.019l26.082-46.266c2.471-4.387,0.922-9.946-3.463-12.419
									C857.122,549.002,854.638,548.771,852.396,549.396z"/>
							</defs>
							<use xlink:href="#SVGID_7_"  overflow="visible" fill="#FFFFFF"/>
							<clipPath id="SVGID_4_">
								<use xlink:href="#SVGID_7_"  overflow="visible"/>
							</clipPath>
							<g clip-path="url(#SVGID_4_)">
								<polygon points="853.542,545.614 764.32,703.888 713.747,666.946 799.364,515.071 								"/>
							</g>
						</g>
						<g>
							<path d="M772.353,588.346l-1.786-1.004c-3.677-2.074-8.384-0.76-10.456,2.918l-9.93,17.614
								c-2.073,3.675-0.76,8.383,2.918,10.457l1.783,1.005l10.034,5.654l17.467-30.988L772.353,588.346z"/>
						</g>
						<g>
							<polygon fill="#FFFFFF" points="784.047,607.424 768.373,601.812 769.721,598.047 781.701,602.336 786.916,588.604 
								800.748,593.553 805.965,579.822 819.801,584.769 824.327,572.866 828.065,574.288 822.146,589.854 808.311,584.908 
								803.094,598.641 789.262,593.692 							"/>
						</g>
					</g>
				</g>
				<g>
					<path d="M608.232,602.607l-84.371-47.038l-55.925,99.624l-27.51,49.239l0.021-0.005l-0.016,0.014
						c19.109,45.492,55.62,44.755,73.932,47.578l102.886,16.214l13.651-95.719l-53.371-8.271c-0.029,0.084-0.063,0.17-0.109,0.252
						l-9.092,16.463c-0.275,0.493-0.576,1.042-0.908,1.647c-4.193,7.611-12.913,23.45-26.393,35.778
						c-14.402,13.172-30.018,18.517-46.519,15.951c-2.864-0.445-5.755-1.13-8.673-2.052c-0.848-0.269-1.317-1.174-1.051-2.022
						c0.269-0.847,1.168-1.315,2.023-1.05c43.662,13.809,69.349-32.833,77.788-48.16"/>
				</g>
			</g>
			<g>
				<path fill="#FFD829" d="M464.954,477.073l69.79-38.141c8.118-3.692,14.649-10.754,17.357-19.984l31.192-106.365l-0.062-0.019
					c2.212-4.171,4.92-8.176,8.189-11.584c3.969-4.136,6.771-8.585,8.975-13.365c1.83-3.974,3.248-8.173,4.575-12.612l6.258-20.938
					l6.614-22.132c0,0-0.045-0.014-0.04-0.025c1.533-5.13-1.382-10.536-6.516-12.069c-5.133-1.535-10.536,1.383-12.072,6.514
					c-0.088,0.297-0.156,0.59-0.218,0.885l-6.355,21.271l-0.079-0.021l8.386-28.058c0,0-0.043-0.014-0.039-0.023
					c1.534-5.133-1.382-10.536-6.515-12.072c-5.132-1.532-10.537,1.385-12.07,6.517c-0.09,0.293-0.159,0.589-0.217,0.885
					l-8.129,27.195l-0.08-0.021l10.158-33.982c0,0-0.044-0.015-0.04-0.024c1.534-5.132-1.384-10.537-6.518-12.072
					c-5.131-1.532-10.536,1.384-12.069,6.517c-0.088,0.294-0.158,0.587-0.218,0.882l-9.897,33.124l-0.08-0.022l8.386-28.057
					c0,0-0.043-0.014-0.041-0.026c1.535-5.133-1.382-10.536-6.514-12.069c-5.133-1.534-10.538,1.383-12.071,6.516
					c-0.087,0.294-0.158,0.588-0.217,0.885l-10.433,34.907c-0.148,0.037-0.3,0.067-0.448,0.105l0.739-16.874
					c0,0-0.045-0.002-0.042-0.016c0.243-5.351-3.897-9.888-9.247-10.134c-5.351-0.245-9.889,3.895-10.134,9.247
					c-0.014,0.305-0.01,0.604,0.004,0.903l-1.812,40.265c-0.076,0.65-0.139,1.305-0.17,1.972
					c-0.305,6.655,1.788,12.864,5.513,17.796c1.562,2.557,4.147,7.576,3.521,11.961l0.017,0.005l-27.446,93.582l-60.371,32.988"/>
				<path d="M464.956,479.074c-0.708,0-1.394-0.376-1.757-1.042c-0.53-0.969-0.174-2.184,0.796-2.714l69.79-38.141
					c0.043-0.023,0.087-0.045,0.131-0.066c7.9-3.593,13.829-10.418,16.267-18.727l31.067-105.939
					c0.01-0.284,0.079-0.563,0.215-0.818c2.484-4.685,5.349-8.733,8.513-12.032c3.534-3.683,6.268-7.756,8.602-12.818
					c1.545-3.354,2.926-7.163,4.476-12.348l12.754-42.675c0.011-0.142,0.037-0.282,0.078-0.419l0,0
					c0.589-1.97,0.375-4.051-0.602-5.861c-0.977-1.81-2.6-3.131-4.57-3.719c-4.066-1.218-8.366,1.103-9.584,5.171
					c-0.07,0.237-0.126,0.478-0.176,0.719c-0.012,0.056-0.025,0.11-0.042,0.165l-6.355,21.271c-0.311,1.04-1.396,1.639-2.44,1.357
					c-0.521-0.142-1.001-0.498-1.263-0.969c-0.263-0.471-0.362-1.039-0.208-1.556l8.27-27.668c0.011-0.139,0.037-0.277,0.077-0.413
					l0,0c1.216-4.067-1.104-8.366-5.172-9.583c-4.069-1.213-8.365,1.105-9.581,5.173c-0.073,0.239-0.125,0.467-0.17,0.694
					c-0.013,0.064-0.028,0.128-0.047,0.19l-8.129,27.195c-0.31,1.038-1.39,1.637-2.435,1.359c-0.521-0.14-1.005-0.496-1.268-0.968
					c-0.264-0.472-0.365-1.041-0.21-1.558l10.04-33.589c0.011-0.141,0.037-0.281,0.078-0.418l0,0
					c1.216-4.067-1.105-8.367-5.175-9.583c-4.067-1.214-8.364,1.106-9.58,5.173c-0.07,0.235-0.126,0.47-0.174,0.706
					c-0.012,0.06-0.026,0.119-0.044,0.177l-9.897,33.124c-0.312,1.045-1.406,1.647-2.456,1.353
					c-0.517-0.145-0.993-0.502-1.252-0.972s-0.357-1.035-0.204-1.549l8.267-27.659c0.004-0.052,0.01-0.104,0.018-0.156
					c0.014-0.091,0.034-0.181,0.061-0.269c0.589-1.97,0.376-4.052-0.601-5.861c-0.977-1.809-2.6-3.13-4.569-3.718
					c-1.974-0.589-4.055-0.375-5.863,0.601c-1.81,0.977-3.131,2.6-3.72,4.57c-0.067,0.229-0.124,0.463-0.171,0.7
					c-0.012,0.062-0.027,0.125-0.046,0.186l-10.433,34.907c-0.202,0.676-0.746,1.196-1.431,1.368l-0.437,0.103
					c-0.613,0.157-1.267,0.015-1.757-0.384c-0.492-0.399-0.766-1.008-0.738-1.641l0.722-16.478c-0.022-0.137-0.03-0.276-0.024-0.415
					l0,0c0.192-4.241-3.101-7.85-7.341-8.045c-2.061-0.095-4.022,0.618-5.542,2.004c-1.52,1.386-2.408,3.282-2.502,5.336
					c-0.011,0.242-0.007,0.481,0.004,0.721c0.003,0.061,0.003,0.121,0,0.181l-1.812,40.265c-0.002,0.048-0.006,0.095-0.012,0.143
					c-0.083,0.706-0.133,1.288-0.158,1.833c-0.271,5.915,1.544,11.774,5.11,16.497c0.04,0.053,0.077,0.107,0.111,0.163
					c1.691,2.769,4.404,8.097,3.829,13.01c0.001,0.186-0.025,0.374-0.08,0.561l-27.446,93.582c-0.149,0.509-0.494,0.938-0.96,1.192
					l-60.371,32.988c-0.971,0.53-2.185,0.174-2.714-0.796c-0.53-0.969-0.174-2.185,0.796-2.714l59.645-32.591l27.139-92.534
					c0.536-3.832-2.019-8.581-3.201-10.533c-4.087-5.451-6.165-12.198-5.854-19.011c0.029-0.623,0.084-1.272,0.173-2.041
					l1.805-40.107c-0.013-0.328-0.015-0.656,0-0.99c0.144-3.124,1.493-6.003,3.803-8.11c2.308-2.106,5.293-3.181,8.421-3.045
					c6.298,0.29,11.221,5.535,11.165,11.79c0.026,0.146,0.037,0.295,0.03,0.445l-0.104,2.387l6.306-21.098
					c0.066-0.324,0.146-0.646,0.241-0.967c0.896-3,2.903-5.467,5.654-6.951c2.749-1.485,5.914-1.809,8.907-0.914
					c2.88,0.86,5.271,2.75,6.771,5.339c2.566-4.799,8.25-7.301,13.663-5.687c5.417,1.62,8.795,6.835,8.306,12.259
					c2.572-1.289,5.619-1.641,8.59-0.755c5.416,1.621,8.793,6.837,8.303,12.262c2.571-1.292,5.619-1.644,8.591-0.755
					c2.994,0.894,5.46,2.901,6.944,5.652c1.413,2.617,1.774,5.608,1.035,8.471c-0.009,0.153-0.035,0.307-0.081,0.46l-12.872,43.069
					c-1.081,3.617-2.589,8.349-4.675,12.876c-2.491,5.404-5.549,9.955-9.348,13.914c-2.809,2.927-5.373,6.522-7.627,10.69
					c-0.007,0.03-0.016,0.061-0.024,0.091l-31.192,106.365c-2.758,9.401-9.455,17.128-18.38,21.211l-69.728,38.106
					C465.608,478.995,465.28,479.074,464.956,479.074z"/>
			</g>
			<g>
				<path fill="#FFFFFF" d="M356.888,508.933c13.632,25.257,44.938,34.795,69.923,21.311l50.498-27.259l-49.364-91.456
					l-50.496,27.257C352.461,452.272,343.256,483.678,356.888,508.933z"/>
			</g>
		</g>
		<g>
			<g>
				
					<rect x="458.014" y="804.168" transform="matrix(0.0014 1 -1 0.0014 1408.5012 207.8804)" fill="#FFFFFF" width="284.311" height="9.963"/>
			</g>
		</g>
		<g>
			<g>
				<g>
					<line fill="#FFD829" x1="819.676" y1="206.323" x2="812.553" y2="252.149"/>
					
						<rect x="814.114" y="206.048" transform="matrix(0.9881 0.1535 -0.1535 0.9881 44.8751 -122.5902)" width="4.001" height="46.376"/>
				</g>
				<g>
					<line fill="#FFD829" x1="834.836" y1="215.554" x2="797.395" y2="242.922"/>
					
						<rect x="814.115" y="206.049" transform="matrix(0.5902 0.8072 -0.8072 0.5902 519.4676 -564.8618)" width="4.001" height="46.378"/>
				</g>
				<g>
					<line fill="#FFD829" x1="839.03" y1="232.797" x2="793.202" y2="225.673"/>
					
						<rect x="792.927" y="227.235" transform="matrix(0.9881 0.1536 -0.1536 0.9881 44.8974 -122.6398)" width="46.379" height="4"/>
				</g>
				<g>
					<line fill="#FFD829" x1="829.801" y1="247.96" x2="802.433" y2="210.516"/>
					
						<rect x="792.927" y="227.238" transform="matrix(0.5901 0.8073 -0.8073 0.5901 519.6097 -564.9159)" width="46.38" height="3.999"/>
				</g>
			</g>
			<g>
				<g>
					<line fill="#FFD829" x1="851.8" y1="168.704" x2="844.677" y2="214.53"/>
					
						<rect x="846.238" y="168.429" transform="matrix(0.9881 0.1535 -0.1535 0.9881 39.4799 -127.9687)" width="4.001" height="46.376"/>
				</g>
				<g>
					<line fill="#FFD829" x1="866.961" y1="177.935" x2="829.521" y2="205.303"/>
					
						<rect x="846.24" y="168.43" transform="matrix(0.5902 0.8072 -0.8072 0.5902 502.2642 -606.2098)" width="4.001" height="46.377"/>
				</g>
				<g>
					<line fill="#FFD829" x1="871.155" y1="195.18" x2="825.326" y2="188.056"/>
					<rect x="825.051" y="189.618" transform="matrix(0.9881 0.1536 -0.1536 0.9881 39.4994 -128.0182)" width="46.38" height="4"/>
				</g>
				<g>
					<line fill="#FFD829" x1="861.926" y1="210.341" x2="834.558" y2="172.896"/>
					
						<rect x="825.052" y="189.619" transform="matrix(0.5901 0.8073 -0.8073 0.5901 502.4068 -606.2723)" width="46.38" height="3.999"/>
				</g>
			</g>
			<g>
				<g>
					<line fill="#FFD829" x1="870.989" y1="214.3" x2="863.866" y2="260.126"/>
					
						<rect x="865.427" y="214.025" transform="matrix(0.9881 0.1535 -0.1535 0.9881 46.7083 -130.3745)" width="4.001" height="46.376"/>
				</g>
				<g>
					<line fill="#FFD829" x1="886.152" y1="223.53" x2="848.71" y2="250.899"/>
					
						<rect x="865.431" y="214.025" transform="matrix(0.5902 0.8072 -0.8072 0.5902 546.9346 -603.0171)" width="4.001" height="46.379"/>
				</g>
				<g>
					<line fill="#FFD829" x1="890.345" y1="240.774" x2="844.516" y2="233.65"/>
					<rect x="844.24" y="235.213" transform="matrix(0.9881 0.1536 -0.1536 0.9881 46.7306 -130.4247)" width="46.38" height="4"/>
				</g>
				<g>
					<line fill="#FFD829" x1="881.116" y1="255.937" x2="853.748" y2="218.492"/>
					
						<rect x="844.242" y="235.215" transform="matrix(0.5901 0.8073 -0.8073 0.5901 547.0845 -603.0752)" width="46.38" height="3.999"/>
				</g>
			</g>
		</g>
		<g>
			<g>
				<g>
					<line fill="#FFD829" x1="778.716" y1="352.211" x2="771.593" y2="398.038"/>
					<path d="M771.596,400.039c-0.103,0-0.206-0.008-0.311-0.024c-1.091-0.169-1.838-1.192-1.669-2.283l7.123-45.827
						c0.169-1.092,1.197-1.843,2.284-1.669c1.091,0.169,1.838,1.192,1.669,2.283l-7.123,45.827
						C773.416,399.333,772.564,400.039,771.596,400.039z"/>
				</g>
				<g>
					<line fill="#FFD829" x1="793.878" y1="361.442" x2="756.437" y2="388.812"/>
					<path d="M756.438,390.812c-0.617,0-1.225-0.284-1.616-0.82c-0.652-0.892-0.458-2.143,0.434-2.795l37.441-27.369
						c0.895-0.653,2.144-0.458,2.795,0.435c0.652,0.892,0.458,2.143-0.434,2.795l-37.441,27.369
						C757.261,390.687,756.848,390.812,756.438,390.812z"/>
				</g>
				<g>
					<line fill="#FFD829" x1="798.071" y1="378.686" x2="752.241" y2="371.561"/>
					<path d="M798.074,380.686c-0.103,0-0.206-0.008-0.311-0.024l-45.83-7.125c-1.091-0.169-1.838-1.192-1.669-2.283
						c0.169-1.092,1.196-1.843,2.284-1.669l45.83,7.125c1.091,0.169,1.838,1.192,1.669,2.283
						C799.895,379.98,799.043,380.686,798.074,380.686z"/>
				</g>
				<g>
					<line fill="#FFD829" x1="788.842" y1="393.849" x2="761.476" y2="356.403"/>
					<path d="M788.844,395.849c-0.617,0-1.225-0.284-1.616-0.82l-27.366-37.445c-0.652-0.892-0.458-2.143,0.435-2.795
						c0.892-0.652,2.143-0.456,2.794,0.435l27.366,37.445c0.652,0.892,0.458,2.143-0.435,2.795
						C789.666,395.724,789.253,395.849,788.844,395.849z"/>
				</g>
			</g>
		</g>
	</g>
	<g>
		<path d="M256.391,318.586c-1.21,7.786-1.183,15.479-0.065,22.879l2.779,5.147l83.587-45.118l-7.672-28.697l20.159,21.957
			l30.358-16.387l-0.485-0.902c-11.016-11.31-25.655-19.275-42.455-21.887C301.392,249.173,262.796,277.383,256.391,318.586z"/>
	</g>
</g>
</svg>
