<svg xmlns="http://www.w3.org/2000/svg" viewBox="0 0 812 851"><path fill="#fff" d="m84.82.29 4.6 835.98-9.96.05L74.86.34Zm295.35 119.8-22.42-24.87-39.83-58.34 3.3-2.26 39.76 58.24 22.16 24.55Zm308.58 730.96-76.35-79.2v-.8l-.73-162.72-76.06-190.7-45-86.58-60.96-67.99 2.98-2.67 61.3 68.37.1.22 45.26 87.07 76.38 191.5v.38l.72 162.3 75.24 78.04Z"/><path fill="#fff" d="M111.26 155.96 27.13 61.74.41 1.9 4.06.27l26.47 59.27 83.72 93.76Zm177.2 40.88 85.91 34.54-1.5 3.72-85.9-34.55Zm188.34-48.27-.1-4 45.31-1.02 79.85-44.33 1.94 3.5-80.7 44.8Zm254.32 202.91-75.49-13.38.7-3.94 73.61 13.05 40.73-35.31 2.62 3.02ZM471.63 556.2l-9.93-.9.3-3.3c1.25-13.23 1.62-17.22-8.76-32.8-9.58-14.38-21.55-27.43-33.12-40.04-10.5-11.45-21.35-23.29-30.63-36.27-18.21-25.49-34.08-58.5-47.21-87.42l-6.8-14.92a2558.95 2558.95 0 0 1-18.67-41.52 513.14 513.14 0 0 1-9-22.66c-5.29-13.9-10.75-28.28-18.27-41-22.94-38.78-58.54-67.7-90.12-91.76-7.3-5.56-14.86-11.08-22.16-16.42C133.62 95.29 88.49 62.32 74.8 3.4l9.7-2.25c12.85 55.3 54.52 85.75 98.63 117.99 7.34 5.36 14.94 10.91 22.32 16.54 32.32 24.63 68.8 54.28 92.65 94.6 7.96 13.46 13.58 28.25 19 42.55 2.8 7.37 5.7 15 8.84 22.21 5.99 13.77 12.4 27.8 18.6 41.36l6.8 14.94c12.93 28.5 28.53 60.96 46.25 85.75 8.92 12.49 19.56 24.1 29.86 35.32 11.83 12.9 24.06 26.24 34.07 41.25 12.34 18.53 11.73 25.03 10.4 39.26l-.3 3.26Z"/><path fill="#ffd829" d="M205.66 170.46a9.57 9.57 0 0 0-12.9 4.09l-.04-.02-11.5 22.1-.32-.31 5.52-23.09a10.3 10.3 0 0 0 .42-1.74l.07-.3-.04-.01a9.56 9.56 0 0 0-18.44-4.42l-.13-.03-4.16 17.41-.08-.01 3.68-15.37a9.57 9.57 0 1 0-18.36-5.31v.01l-.05-.01-3.88 16.23-.08-.02 3.68-15.37a9.56 9.56 0 1 0-18.19-5.89l-.07-.01-4.02 16.81-.08-.01 3.68-15.37a9.57 9.57 0 1 0-18.36-5.31h-.05l-3.88 16.22-5.01 20.97-4.01 16.76a18.32 18.32 0 0 0 1.2 14.06c2.21 5.59 2.5 11.6 2.52 11.9L77.57 342.25a31.79 31.79 0 0 0 25.67 38.57l105.87 24.75 14.47-61.9-76.86-17.97 17.7-75.72c1.68-4 5.82-7.64 8.4-9.04a26.98 26.98 0 0 0 14.33-14.22l22.14-42.6a9.57 9.57 0 0 0-3.63-13.67Z"/><path d="M209.1 407.58a2 2 0 0 1-.45-.06l-105.8-24.73a33.83 33.83 0 0 1-27.22-40.99l25.13-107.56c-.08-1.3-.5-6.24-2.33-10.9a20.46 20.46 0 0 1-1.3-15.42L110 154.04c.04-.15.1-.3.16-.42a11.53 11.53 0 0 1 13.83-8.14c3.9.94 6.86 3.75 8.16 7.25a11.58 11.58 0 0 1 10.53-2.78 11.5 11.5 0 0 1 8.14 7.2 11.54 11.54 0 0 1 10.54-2.73 11.49 11.49 0 0 1 8.16 7.23 11.58 11.58 0 0 1 10.53-2.76 11.58 11.58 0 0 1 8.84 12.1c.02.21 0 .44-.05.66l-.05.22a12.24 12.24 0 0 1-.46 1.91l-2.13 8.92 4.73-9.1c.07-.14.16-.26.26-.38a11.54 11.54 0 0 1 15.38-4.53 11.5 11.5 0 0 1 5.7 6.78 11.48 11.48 0 0 1-1.26 9.66l-22.07 42.46a28.87 28.87 0 0 1-15.27 15.16c-2.2 1.22-5.84 4.4-7.35 7.87l-17.2 73.6 74.9 17.5a2 2 0 0 1 1.5 2.4l-14.48 61.91a2 2 0 0 1-1.94 1.55Zm-95.3-252.2L101 208.92l-.04.15a16.43 16.43 0 0 0 1.16 12.71 43.47 43.47 0 0 1 2.66 12.53c0 .19-.01.38-.06.56L79.52 342.7a29.82 29.82 0 0 0 24.17 36.17l103.92 24.3 13.56-58.02-74.9-17.51a2 2 0 0 1-1.5-2.4l17.7-75.71.1-.32c1.99-4.74 6.64-8.6 9.28-10.03l.18-.08a25.13 25.13 0 0 0 13.34-13.3l22.14-42.6.1-.17a7.52 7.52 0 0 0 .86-6.38 7.53 7.53 0 0 0-7.2-5.28 7.55 7.55 0 0 0-6.71 4.03c-.07.15-.16.3-.27.42L183 197.55a2 2 0 0 1-3.17.5l-.3-.28a2 2 0 0 1-.58-1.92l5.53-23.09a8.79 8.79 0 0 0 .4-1.65v-.16a7.57 7.57 0 0 0-7.51-8.38 7.58 7.58 0 0 0-7.07 4.9 2.1 2.1 0 0 1-.22.42l-4 16.72a2 2 0 0 1-2.36 1.49 2.1 2.1 0 0 1-1.31-.9 2.04 2.04 0 0 1-.3-1.54l3.68-15.37.05-.18a7.53 7.53 0 0 0-5.4-9.8 7.54 7.54 0 0 0-9.11 5.56 1.9 1.9 0 0 1-.15.46l-3.78 15.8a2 2 0 0 1-2.36 1.5 2.1 2.1 0 0 1-1.32-.9 2.04 2.04 0 0 1-.3-1.54l3.69-15.36.05-.2a7.52 7.52 0 0 0-5.4-9.8 7.6 7.6 0 0 0-8.98 5.14c-.04.16-.1.29-.17.41l-3.9 16.29a2 2 0 0 1-2.38 1.49 2.1 2.1 0 0 1-1.3-.9 2.04 2.04 0 0 1-.29-1.54l3.68-15.37.05-.17a7.58 7.58 0 1 0-14.5-4.27 2.6 2.6 0 0 1-.16.47Z"/><path fill="#fff" d="M342.17 595.21a37.44 37.44 0 1 1-65.9 35.57 37.44 37.44 0 0 1 65.9-35.57Z"/><path fill="#fff" d="m281.36 590.07-22.65-16.83 30.22-17.85 12.25 22.55Z"/><path fill="#ffd829" d="m521.11 657.54-35.78-6.14 14.24-91.58 44.11 7.27h.08c2.37.2 4.77.6 7.14 1.18l.16.03.33.1a46.27 46.27 0 0 1 19.17 10.18l.07.06 144.8 105.93-54.86 74.98Z"/><path d="m501.23 562.12 42.05 6.93.15.03.16.01c2.24.19 4.5.56 6.75 1.1l.55.15a44.22 44.22 0 0 1 18.35 9.74l.13.12.15.1L712.63 685l-52.5 71.76L522.67 656.2l-.76-.55-.92-.16-33.38-5.73Zm-3.33-4.6-14.85 95.52 37.26 6.39L661 762.35l57.22-78.22-146.34-107.05a48.32 48.32 0 0 0-19.99-10.61l.01-.05-.52-.09a48.32 48.32 0 0 0-7.45-1.23Z"/><path fill="#fff" d="m801.3 655.26-84.18 28.9-56.96 77.11 41.43 39.75a9.14 9.14 0 0 0 12.79-1.92l19.01-25.74 45.03-60.95 31.56-42.72a9.11 9.11 0 0 0-8.67-14.43Z"/><path d="M802.9 651.64 694.96 797.78l-45.66-42.87 103.6-140.22Z"/><path d="m717.1 684.1-1.66-1.22a7.7 7.7 0 0 0-10.73 1.61l-12.02 16.26a7.7 7.7 0 0 0 1.61 10.74l1.65 1.22 9.27 6.84 21.13-28.61Z"/><path fill="#fff" d="m726.38 704.36-14.87-7.49 1.8-3.57 11.37 5.73 6.86-12.99 13.12 6.6 6.86-12.98 13.12 6.6 5.95-11.25 3.54 1.87-7.78 14.72-13.13-6.6-6.86 12.98-13.12-6.6Z"/><path fill="#ffd829" d="M210.6 406.1c-5.36-9.92-13.45-24.91-13.25-41.5.24-19.8 12.77-36.53 37.23-49.74l39.23-21.17a29.66 29.66 0 0 1 14.03-3.63c8.7 0 16.08 4.04 19.73 10.8L408.8 488.4l-119.1 64.27Z"/><path d="M287.84 292.06c7.95 0 14.67 3.65 17.97 9.76l78.6 145.62 12 22.23 9.67 17.91-5.42 2.93-88.77 47.9-21.38 11.55-9.66-17.91-12-22.23-56.5-104.66c-5.25-9.74-13.2-24.47-13-40.53a43.4 43.4 0 0 1 7.57-24.05c5.97-8.87 15.6-16.93 28.61-23.96l39.23-21.17a27.68 27.68 0 0 1 13.08-3.4m0-4a31.61 31.61 0 0 0-14.98 3.88l-39.23 21.17c-58.47 31.57-35.35 74.4-24.8 93.96l56.5 104.66 12 22.23 11.56 21.43 24.9-13.44 88.77-47.91 8.94-4.83-11.57-21.43-12-22.23-78.6-145.62c-4.13-7.66-12.43-11.86-21.5-11.86Z"/><path fill="#ffd829" d="m199.78 273.48 44.65-24.1 24.88 46.1-44.65 24.1Z"/><path d="m223.87 322.3-26.79-49.63 48.18-26 26.79 49.62Zm-21.37-48.01 22.99 42.58 41.14-22.2-22.99-42.59Z"/><path fill="#ffd829" d="M253.64 160.65c-.88.48-1.72 1-2.52 1.56a75.1 75.1 0 0 0-126.93 68.51 26.07 26.07 0 1 0 27.3 43.42 75.08 75.08 0 0 0 120.95-65.27 26.07 26.07 0 1 0-18.8-48.21Z"/><path d="M197.66 291.96a77.64 77.64 0 0 1-46.09-15.24 28.21 28.21 0 0 1-17.66 6.27 28.06 28.06 0 0 1-26.92-36.11 27.88 27.88 0 0 1 14.91-17.34 77.45 77.45 0 0 1 39.07-82.5 77.19 77.19 0 0 1 36.55-9.26 77.63 77.63 0 0 1 53.86 21.87 28.11 28.11 0 0 1 14.62-4.13 28.06 28.06 0 0 1 26.91 36.11 27.88 27.88 0 0 1-18.37 18.7 77.15 77.15 0 0 1-76.88 81.63Zm-46.27-20.43 1.33 1.04a73.6 73.6 0 0 0 44.94 15.39 73.15 73.15 0 0 0 72.78-78.94l-.13-1.68 1.63-.41a23.91 23.91 0 0 0 17.14-16.44 24.06 24.06 0 0 0-36.82-26.63l-1.39.95-1.18-1.2a73.57 73.57 0 0 0-52.17-21.83c-12.02 0-24 3.03-34.65 8.78-28.46 15.37-43.57 48.16-36.73 79.74l.36 1.65-1.56.63a23.91 23.91 0 0 0-14.1 15.45 24.07 24.07 0 0 0 39.32 24.65Z"/><path fill="#ffd829" d="m118.99 255.12 22.32 7.7"/><path d="M141.31 264.82a2.1 2.1 0 0 1-.65-.1l-22.32-7.7a2 2 0 1 1 1.3-3.79l22.33 7.7a2 2 0 0 1-.66 3.9Z"/><path fill="#ffd829" d="m271.63 172.73-5.82 22.9"/><path d="M265.81 197.62a2 2 0 0 1-1.94-2.5l5.82-22.88a2 2 0 0 1 3.88.98l-5.82 22.9a2 2 0 0 1-1.94 1.5Zm-84 40.17a9.9 9.9 0 1 1-19.81 0 9.9 9.9 0 0 1 19.81 0Z"/><path d="M156.15 250.7h-.22a2 2 0 0 1-1.77-2.2 26 26 0 0 1 37.72-20.37 2 2 0 0 1-1.83 3.56 22 22 0 0 0-31.91 17.23 2 2 0 0 1-1.99 1.79Zm82.55-43.62a9.9 9.9 0 1 1-19.8 0 9.9 9.9 0 0 1 19.8 0Z"/><path d="m213.04 220-.21-.01a2 2 0 0 1-1.78-2.2 25.99 25.99 0 0 1 37.72-20.36 2 2 0 0 1-1.83 3.56 22 22 0 0 0-31.91 17.22 2 2 0 0 1-1.99 1.79Z"/><path fill="#ffd829" d="m200.95 222.2 6.85 12.69"/><path d="M207.8 236.89a2 2 0 0 1-1.76-1.05l-6.85-12.7a2 2 0 0 1 3.52-1.9l6.85 12.7a2 2 0 0 1-1.76 2.95Z"/><path fill="#fff" d="M234.07 230.13a25.37 25.37 0 0 1-44.66 24.1Z"/><path fill="#ffd829" d="m289.02 555.32 138.46-74.74 18.42 34.13-138.46 74.73Zm183.56-67.02-1.16 2.1-81.15-45.25 24.68-44.28 1.05-1.57a46.45 46.45 0 0 1 64.99-12.7l.07.06 156.7 87.36-45.25 81.15Z"/><path d="M454.79 380.46a44.46 44.46 0 0 1 25.07 7.8l.15.1.15.08 154.88 86.35-43.3 77.66-116.44-64.92-3.49-1.94-1.16 2.08-77.66-43.3 22.87-41.01v-.02l.02-.02.1-.18.02-.04.63-1.14 1.04-1.56a44.36 44.36 0 0 1 37.12-19.94m0-4a48.47 48.47 0 0 0-40.46 21.74l-.13-.08-1.78 3.19-.01.02-.01.02-24.86 44.57 84.65 47.2 1.17-2.1 119.92 66.87 47.2-84.64-158.37-88.3a48.21 48.21 0 0 0-27.32-8.5Z"/><path fill="#fff" d="m719.4 434.4-80 39.01-47.08 83.51 46 34.37a9.14 9.14 0 0 0 12.44-3.48l15.72-27.87 37.22-66.02 26.08-46.27a9.12 9.12 0 0 0-10.38-13.25Z"/><path d="M720.54 430.61 631.32 588.9l-50.57-36.94 85.61-151.88Z"/><path d="m639.35 473.35-1.78-1a7.7 7.7 0 0 0-10.46 2.91l-9.93 17.61a7.7 7.7 0 0 0 2.92 10.46l1.78 1 10.04 5.66L649.38 479Z"/><path fill="#fff" d="m651.05 492.42-15.68-5.6 1.35-3.77 11.98 4.29 5.22-13.74 13.83 4.95 5.22-13.73 13.83 4.95 4.53-11.9 3.74 1.42-5.92 15.56-13.84-4.94-5.22 13.73-13.83-4.95Z"/><path d="m475.23 487.6-84.37-47.03-55.92 99.62-27.51 49.24h.02l-.02.01c19.11 45.5 55.62 44.76 73.93 47.58l102.89 16.21 13.65-95.72-53.37-8.27c-.03.09-.06.17-.11.25l-9.1 16.47-.9 1.64c-4.2 7.62-12.91 23.45-26.4 35.78-14.4 13.17-30.01 18.52-46.51 15.95a58.68 58.68 0 0 1-8.68-2.05 1.61 1.61 0 0 1 .98-3.07c43.66 13.8 69.35-32.83 77.79-48.16"/><path fill="#ffd829" d="m331.95 362.07 69.8-38.14a31.7 31.7 0 0 0 17.35-19.98l31.2-106.37-.07-.02a51.7 51.7 0 0 1 8.19-11.58 47.68 47.68 0 0 0 8.97-13.36 95.12 95.12 0 0 0 4.58-12.62l6.26-20.94 6.61-22.13-.04-.02a9.7 9.7 0 1 0-18.8-4.67l-6.36 21.27-.08-.02 8.39-28.06s-.05-.01-.04-.02a9.7 9.7 0 1 0-18.8-4.67l-8.13 27.2-.08-.03 10.16-33.98s-.05-.02-.04-.03a9.7 9.7 0 1 0-18.8-4.67l-9.9 33.13-.09-.03 8.39-28.05-.04-.03a9.7 9.7 0 1 0-18.8-4.67l-10.44 34.91-.44.1.74-16.87s-.05 0-.05-.02a9.7 9.7 0 1 0-19.37.02L380.4 148a27.35 27.35 0 0 0 5.34 19.77c1.57 2.55 4.15 7.57 3.53 11.95l.02.01-27.45 93.58-60.37 32.99"/><path d="M331.96 364.07a2 2 0 0 1-.96-3.75l69.79-38.14.13-.07a29.78 29.78 0 0 0 16.26-18.73l31.07-105.94c.01-.28.08-.56.21-.81a53.6 53.6 0 0 1 8.52-12.03 45.31 45.31 0 0 0 8.6-12.82 92.07 92.07 0 0 0 4.48-12.35l12.75-42.68a2 2 0 0 1 .08-.42 7.65 7.65 0 0 0-.6-5.86 7.7 7.7 0 0 0-14.37 2.34l-6.36 21.27a2 2 0 0 1-2.44 1.36c-.52-.14-1-.5-1.26-.97a2.04 2.04 0 0 1-.21-1.56l8.27-27.66c0-.14.03-.28.07-.42a7.71 7.71 0 1 0-14.97-3.52l-8.12 27.2a2 2 0 0 1-2.44 1.35c-.52-.14-1-.5-1.27-.97a2.03 2.03 0 0 1-.2-1.56l10.03-33.58a2 2 0 0 1 .08-.42 7.7 7.7 0 1 0-14.97-3.53l-9.9 33.12a2 2 0 0 1-2.46 1.36c-.51-.15-.99-.5-1.25-.97a2.04 2.04 0 0 1-.2-1.55l8.27-27.66a2.07 2.07 0 0 1 .08-.43 7.65 7.65 0 0 0-.6-5.86 7.65 7.65 0 0 0-4.57-3.72 7.65 7.65 0 0 0-5.87.6 7.65 7.65 0 0 0-3.94 5.46l-10.43 34.9a2 2 0 0 1-1.43 1.38l-.44.1a2 2 0 0 1-2.5-2.03l.73-16.47a2.06 2.06 0 0 1-.02-.42 7.71 7.71 0 0 0-12.89-6.04 7.65 7.65 0 0 0-2.5 6.24l-1.8 40.26-.02.15a25.5 25.5 0 0 0 5.06 18.5c1.7 2.76 4.4 8.08 3.83 13 0 .18-.02.37-.08.56l-27.44 93.58a2 2 0 0 1-.96 1.2l-60.37 32.98a2 2 0 1 1-1.92-3.5l59.64-32.6 27.14-92.53c.54-3.84-2.02-8.59-3.2-10.54a29.51 29.51 0 0 1-5.68-21.05l1.8-40.1a11.67 11.67 0 0 1 12.23-12.15c6.3.29 11.22 5.53 11.17 11.79a2 2 0 0 1 .02.44l-.1 2.4 6.3-21.1a11.62 11.62 0 0 1 5.9-7.92 11.62 11.62 0 0 1 8.9-.92 11.6 11.6 0 0 1 6.78 5.34c2.57-4.8 8.25-7.3 13.66-5.69a11.72 11.72 0 0 1 8.3 12.26 11.67 11.67 0 0 1 8.6-.75 11.72 11.72 0 0 1 8.3 12.26 11.64 11.64 0 0 1 8.6-.76c2.99.9 5.45 2.9 6.94 5.66a11.61 11.61 0 0 1 1.03 8.47 2 2 0 0 1-.08.46l-12.87 43.07a98.34 98.34 0 0 1-4.68 12.87 49.85 49.85 0 0 1-9.34 13.92 49.17 49.17 0 0 0-7.63 10.69l-.03.09-31.19 106.36a33.77 33.77 0 0 1-18.38 21.21l-69.72 38.1a2 2 0 0 1-.96.25Z"/><path fill="#fff" d="M223.89 393.93c13.63 25.26 44.94 34.8 69.92 21.31l50.5-27.25-49.37-91.46-50.5 27.26c-24.98 13.48-34.18 44.89-20.55 70.14Zm248.08 158.09.4 284.31-9.96.01-.4-284.3Z"/><path fill="#ffd829" d="m686.68 91.32-7.13 45.83"/><path d="m684.67 90.97 3.96.62-7.12 45.82-3.96-.61Z"/><path fill="#ffd829" d="m701.84 100.55-37.45 27.37"/><path d="m700.63 98.9 2.37 3.23-37.44 27.37-2.36-3.23Z"/><path fill="#ffd829" d="m706.03 117.8-45.83-7.13"/><path d="m660.49 108.69 45.82 7.12-.61 3.95-45.83-7.12Z"/><path fill="#ffd829" d="m696.8 132.96-27.37-37.44"/><path d="m671.07 94.3 27.36 37.45-3.22 2.36-27.37-37.44Z"/><path fill="#ffd829" d="m718.8 53.7-7.12 45.83"/><path d="m716.8 53.35 3.95.62-7.12 45.82-3.96-.61Z"/><path fill="#ffd829" d="M733.96 62.94 696.52 90.3"/><path d="m732.76 61.28 2.36 3.23-37.44 27.37-2.36-3.23Z"/><path fill="#ffd829" d="m738.15 80.18-45.82-7.12"/><path d="m692.6 71.07 45.83 7.13-.6 3.95-45.84-7.13Z"/><path fill="#ffd829" d="M728.93 95.34 701.56 57.9"/><path d="m703.2 56.69 27.36 37.44-3.23 2.36-27.37-37.44Z"/><path fill="#ffd829" d="m737.99 99.3-7.12 45.83"/><path d="m735.98 98.95 3.96.61-7.12 45.82-3.96-.6Z"/><path fill="#ffd829" d="m753.15 108.53-37.44 27.37"/><path d="m751.95 106.88 2.36 3.23-37.43 27.37-2.37-3.23Z"/><path fill="#ffd829" d="m757.35 125.77-45.83-7.12"/><path d="m711.8 116.67 45.82 7.12-.61 3.95-45.83-7.12Z"/><path fill="#ffd829" d="m748.12 140.94-27.37-37.45"/><path d="m722.38 102.28 27.37 37.44-3.23 2.36-27.37-37.44Z"/><path fill="#ffd829" d="m645.72 237.21-7.13 45.83"/><path d="M638.6 285.04c-.1 0-.21 0-.32-.03a2 2 0 0 1-1.66-2.28l7.12-45.83a2 2 0 1 1 3.95.62l-7.12 45.83a2 2 0 0 1-1.97 1.69Z"/><path fill="#ffd829" d="m660.88 246.44-37.44 27.37"/><path d="M623.44 275.81a2 2 0 0 1-1.18-3.61l37.44-27.37a2 2 0 1 1 2.36 3.23l-37.44 27.37a2 2 0 0 1-1.18.38Z"/><path fill="#ffd829" d="m665.07 263.69-45.83-7.13"/><path d="m665.07 265.69-.3-.03-45.84-7.12a2 2 0 0 1 .62-3.96l45.83 7.13a2 2 0 0 1-.3 3.98Z"/><path fill="#ffd829" d="m655.84 278.85-27.36-37.45"/><path d="M655.84 280.85a2 2 0 0 1-1.61-.82l-27.37-37.45a2 2 0 1 1 3.23-2.36l27.37 37.45a2 2 0 0 1-1.62 3.18ZM123.4 203.59a75.41 75.41 0 0 0-.07 22.88l2.78 5.14 83.58-45.12-7.67-28.7 20.16 21.96 30.36-16.38-.49-.9a75.5 75.5 0 0 0-128.66 41.12Z"/></svg>