<svg xmlns="http://www.w3.org/2000/svg" width="1080" height="1080" xml:space="preserve"><path fill="#FFF" d="m212.465 951.323-4.598-835.989 9.963-.054 4.598 835.989zM513.167 235.086l-22.416-24.861-39.828-58.35 3.306-2.254 39.75 58.237 22.157 24.548zM821.75 966.049l-76.354-79.19-.003-.801-.724-162.73-76.057-190.7-45.008-86.576-60.951-67.991 2.979-2.67 61.289 68.367.116.225 45.254 87.071 76.374 191.497.002.38.721 162.307 75.241 78.033z"/><path fill="#FFF" d="m244.263 270.964-84.129-94.224-26.729-59.837 3.653-1.632 26.474 59.269 83.715 93.76zM505.873 350.093l-85.907-34.546 1.492-3.711 85.908 34.546zM609.799 263.569l-.09-3.999 45.305-1.02 79.843-44.33 1.943 3.497-80.708 44.809zM864.122 466.481l-75.492-13.386.699-3.938 73.613 13.053 40.725-35.312 2.621 3.022z"/><g><path fill="#FFF" d="m604.625 671.191-9.924-.886c.104-1.157.207-2.259.306-3.309 1.242-13.224 1.617-17.213-8.77-32.799-9.578-14.375-21.545-27.423-33.118-40.042-10.497-11.445-21.354-23.281-30.63-36.27-18.209-25.486-34.083-58.492-47.21-87.416-2.247-4.952-4.521-9.929-6.801-14.92-6.214-13.606-12.639-27.677-18.663-41.521-3.238-7.439-6.176-15.176-9.015-22.656-5.277-13.907-10.736-28.288-18.261-41.009-22.935-38.776-58.544-67.692-90.12-91.752-7.303-5.564-14.857-11.084-22.162-16.423-43.64-31.891-88.765-64.868-102.449-123.777l9.703-2.254c12.848 55.303 54.513 85.751 98.624 117.988 7.345 5.367 14.939 10.917 22.321 16.542 32.325 24.63 68.81 54.284 92.657 94.605 7.96 13.458 13.571 28.245 19.001 42.545 2.798 7.372 5.689 14.994 8.834 22.215 5.989 13.765 12.396 27.793 18.592 41.36 2.283 5 4.559 9.982 6.811 14.941 12.928 28.487 28.531 60.951 46.243 85.742 8.925 12.493 19.57 24.102 29.865 35.326 11.829 12.897 24.062 26.234 34.066 41.251 12.346 18.524 11.734 25.021 10.397 39.255-.094 1.038-.195 2.122-.297 3.264z"/></g><g><path fill="#FFD829" d="M338.662 285.459c-4.686-2.436-10.463-.609-12.9 4.076a.042.042 0 0 0-.006.014l-.04-.023-11.489 22.101c-.106-.104-.22-.205-.33-.31l5.526-23.086c.095-.281.18-.565.252-.86.069-.296.121-.589.164-.883l.072-.303-.039-.01c.518-4.722-2.539-9.202-7.276-10.336-4.741-1.134-9.494 1.479-11.167 5.924l-.126-.03-4.165 17.411-.078-.017 3.675-15.367c.096-.281.184-.564.253-.86 1.229-5.141-1.941-10.303-7.078-11.53-5.141-1.227-10.301 1.941-11.531 7.079l-.002.012-.044-.012-3.882 16.227-.078-.017 3.676-15.366a9.564 9.564 0 0 0-6.826-12.394c-4.942-1.182-9.896 1.711-11.359 6.504l-.074-.017-4.023 16.818-.079-.018 3.677-15.366c.095-.28.183-.566.254-.861a9.569 9.569 0 0 0-18.612-4.45c0 .003.002.007 0 .01l-.044-.01-3.883 16.225-5.013 20.964-4.011 16.76a18.332 18.332 0 0 0 1.203 14.062c2.213 5.587 2.506 11.594 2.521 11.894l-25.212 107.841c-3.994 17.095 6.62 34.192 23.717 38.188.649.15 1.302.274 1.955.385l105.867 24.75 14.473-61.904-76.855-17.968 17.697-75.712c1.674-4.001 5.82-7.648 8.39-9.041a26.98 26.98 0 0 0 13.506-12.462c.304-.581.574-1.172.831-1.764l22.141-42.595c.16-.248.313-.5.451-.769 2.436-4.688.608-10.466-4.079-12.904z"/><path d="M342.106 522.576a2.05 2.05 0 0 1-.457-.053l-105.807-24.736a33.02 33.02 0 0 1-2.015-.399c-18.141-4.239-29.449-22.448-25.21-40.591l25.146-107.56c-.083-1.298-.508-6.24-2.33-10.893-2.438-4.749-2.914-10.359-1.308-15.427l12.889-53.876c.036-.151.089-.293.154-.426a11.525 11.525 0 0 1 11.133-8.452c.904 0 1.812.107 2.699.319 3.894.933 6.857 3.746 8.156 7.246 2.095-1.935 4.881-3.096 7.835-3.096.903 0 1.81.107 2.694.319a11.491 11.491 0 0 1 7.168 5.198c.395.644.723 1.315.981 2.006a11.544 11.544 0 0 1 7.842-3.051c.903 0 1.811.107 2.695.318a11.486 11.486 0 0 1 7.167 5.197c.399.651.731 1.332.992 2.032a11.582 11.582 0 0 1 7.832-3.078c.903 0 1.811.107 2.696.319 5.517 1.32 9.254 6.475 8.837 12.092.024.217.013.44-.041.663l-.052.219c-.049.319-.107.637-.183.959a13.19 13.19 0 0 1-.274.954l-2.135 8.918 4.729-9.095c.072-.139.16-.268.261-.384a11.54 11.54 0 0 1 10.059-5.839c1.841 0 3.682.451 5.324 1.305a11.498 11.498 0 0 1 5.694 6.78 11.482 11.482 0 0 1-1.261 9.669l-22.066 42.453a28.867 28.867 0 0 1-.865 1.829 29.127 29.127 0 0 1-14.405 13.337c-2.196 1.219-5.843 4.403-7.354 7.864l-17.203 73.595 74.908 17.513a1.996 1.996 0 0 1 1.492 2.403l-14.473 61.904a1.997 1.997 0 0 1-1.944 1.545zm-95.298-252.194-12.809 53.54a1.86 1.86 0 0 1-.041.146c-1.321 4.109-.93 8.676 1.073 12.526.031.062.06.123.085.188 2.269 5.728 2.626 11.853 2.659 12.532.009.186-.008.373-.051.553l-25.212 107.841c-3.737 15.995 6.233 32.048 22.225 35.786.607.141 1.219.257 1.83.359.042.007.084.016.125.024l103.92 24.294 13.562-58.009-74.908-17.513a1.998 1.998 0 0 1-1.492-2.402l17.697-75.712c.025-.108.06-.214.103-.317 1.983-4.74 6.637-8.594 9.281-10.026a1.69 1.69 0 0 1 .177-.085 25.13 25.13 0 0 0 12.508-11.542c.243-.466.487-.983.771-1.638a2.42 2.42 0 0 1 .061-.126l22.141-42.595c.028-.056.061-.11.094-.163.125-.192.245-.387.353-.596a7.519 7.519 0 0 0 .507-5.779 7.528 7.528 0 0 0-3.726-4.437 7.478 7.478 0 0 0-3.479-.854 7.552 7.552 0 0 0-6.702 4.036 1.979 1.979 0 0 1-.267.414l-11.291 21.719a2.001 2.001 0 0 1-3.176.505l-.304-.285a1.999 1.999 0 0 1-.57-1.918l5.526-23.085c.015-.058.03-.116.05-.172.077-.229.146-.459.205-.698a8.359 8.359 0 0 0 .141-.776c.001-.054.005-.107.011-.162a7.571 7.571 0 0 0-7.52-8.382 7.583 7.583 0 0 0-7.063 4.893 2.012 2.012 0 0 1-.218.42l-4 16.721a2.007 2.007 0 0 1-2.361 1.491 2.091 2.091 0 0 1-1.314-.896c-.287-.456-.418-1.017-.293-1.542l3.675-15.367c.015-.06.032-.12.052-.179a7.526 7.526 0 0 0-.71-6.402 7.514 7.514 0 0 0-4.687-3.399 7.607 7.607 0 0 0-1.767-.209 7.543 7.543 0 0 0-7.345 5.767 1.955 1.955 0 0 1-.155.455l-3.782 15.813a2.005 2.005 0 0 1-2.361 1.491 2.091 2.091 0 0 1-1.314-.896c-.287-.456-.418-1.017-.293-1.542l3.676-15.366c.016-.064.034-.128.056-.191a7.521 7.521 0 0 0-.713-6.393 7.52 7.52 0 0 0-4.688-3.4 7.596 7.596 0 0 0-1.765-.209c-3.287 0-6.255 2.201-7.217 5.352a2.061 2.061 0 0 1-.169.396l-3.896 16.287a2.001 2.001 0 0 1-2.379 1.487 2.093 2.093 0 0 1-1.302-.901c-.284-.455-.414-1.013-.289-1.534l3.677-15.366c.015-.059.031-.118.051-.175.076-.225.147-.454.204-.691.968-4.051-1.545-8.143-5.603-9.114a7.609 7.609 0 0 0-1.768-.209 7.542 7.542 0 0 0-7.337 5.743 2.115 2.115 0 0 1-.159.474z"/><path fill="#FFF" d="M475.169 710.214c9.821 18.196 3.034 40.909-15.164 50.73-18.196 9.82-40.911 3.032-50.731-15.163-9.82-18.196-3.031-40.91 15.164-50.732a37.473 37.473 0 0 1 9.694-3.62c15.929-3.533 32.902 3.715 41.037 18.785z"/><path fill="#FFF" d="m414.362 705.068-22.647-16.831 30.213-17.851 12.249 22.55z"/><path fill="#FFD829" d="m654.112 772.538-35.781-6.139 14.236-91.583 44.112 7.272.079.007c2.367.199 4.771.597 7.145 1.179l.153.03.337.097a46.288 46.288 0 0 1 15.841 7.491 48.236 48.236 0 0 1 3.323 2.686l.067.06 144.801 105.929-54.859 74.986-139.454-102.015z"/><path d="m634.234 677.118 42.043 6.932.155.026.158.014c2.235.188 4.506.562 6.749 1.106l.555.143a44.222 44.222 0 0 1 15.155 7.167 46.149 46.149 0 0 1 3.188 2.574l.135.119.145.104 143.114 104.693-52.497 71.76-137.462-100.555-.759-.555-.927-.159-33.376-5.727 13.624-87.642m-3.333-4.603-14.85 95.523 37.259 6.392L794 877.348l57.221-78.216-146.342-107.056a49.517 49.517 0 0 0-3.464-2.797 48.308 48.308 0 0 0-16.522-7.814l.01-.047-.521-.086a48.32 48.32 0 0 0-7.452-1.229l-46.029-7.588z"/><path fill="#FFF" d="M941.07 771.939a9.077 9.077 0 0 0-6.764-1.682l.001-.002-1.43.491-103.575 140.195 5.291 5.076c4.06 2.998 9.783 2.14 12.783-1.921l19.014-25.735 45.033-60.955 31.562-42.72a9.115 9.115 0 0 0-1.915-12.747z"/><path d="M850.124 799.166 793.16 876.27l36.142 34.671 103.576-140.194z"/><path d="m850.093 799.096-1.648-1.217c-3.396-2.512-8.229-1.785-10.737 1.611l-12.014 16.263c-2.512 3.396-1.786 8.229 1.611 10.734l1.648 1.219 9.263 6.842 21.136-28.609-9.259-6.843z"/><g><path fill="#FFF" d="m859.382 819.364-14.868-7.491 1.8-3.572 11.363 5.725 6.858-12.985 13.121 6.605 6.862-12.986 13.125 6.606 5.949-11.256 3.537 1.869-7.784 14.723-13.123-6.606-6.861 12.986-13.121-6.605z"/></g><g><path fill="#FFD829" d="M343.597 521.108c-5.356-9.924-13.452-24.919-13.249-41.5.242-19.804 12.77-36.541 37.236-49.747l39.23-21.175c4.397-2.375 9.248-3.63 14.021-3.63 8.704 0 16.081 4.041 19.735 10.81l101.22 187.523-119.088 64.282-79.105-146.563z"/><path d="M420.838 407.058c7.956 0 14.676 3.648 17.975 9.759l78.604 145.626 11.997 22.229 9.668 17.909-5.419 2.926-88.769 47.913-21.381 11.543-9.666-17.912-11.998-22.228-56.493-104.664c-5.259-9.741-13.206-24.463-13.009-40.526.105-8.64 2.654-16.731 7.576-24.052 5.965-8.871 15.591-16.932 28.609-23.959l39.23-21.174c4.111-2.218 8.631-3.39 13.076-3.39m0-4c-4.945 0-10.119 1.25-14.974 3.87l-39.23 21.174c-58.478 31.564-35.354 74.401-24.797 93.957l56.492 104.664 11.998 22.229 11.565 21.432 24.9-13.442 88.768-47.912 8.939-4.827-11.568-21.429-11.997-22.229-78.604-145.627c-4.133-7.66-12.428-11.86-21.492-11.86z"/></g><g><path fill="#FFD829" d="m402.33 410.494-44.656 24.099-24.88-46.104 44.656-24.098z"/><path d="m356.871 437.292-26.787-49.625 48.176-26.006 26.789 49.629-48.178 26.002zm-21.367-48.004 22.986 42.584 41.139-22.202-22.988-42.589-41.137 22.207z"/><path fill="#FFD829" d="M386.64 275.654c-.88.474-1.718.998-2.521 1.555-22.83-23.231-59.093-29.654-89.193-13.406-30.101 16.246-44.63 50.086-37.739 81.921-.904.365-1.803.777-2.683 1.253-12.67 6.839-17.396 22.652-10.558 35.322 6.839 12.669 22.653 17.396 35.323 10.557a26.188 26.188 0 0 0 5.224-3.709c22.772 17.692 54.744 21.37 81.753 6.791 27.01-14.578 41.479-43.322 39.189-72.072a26.192 26.192 0 0 0 5.968-2.33c12.669-6.838 17.396-22.652 10.557-35.322-6.838-12.671-22.65-17.399-35.32-10.56z"/><path d="M330.664 406.96h-.005c-16.542-.001-32.842-5.403-46.089-15.244a28.14 28.14 0 0 1-17.662 6.273 28.06 28.06 0 0 1-24.723-14.74c-3.562-6.598-4.34-14.188-2.193-21.371 2.147-7.184 6.963-13.101 13.561-16.662.438-.235.884-.461 1.348-.679-6.363-32.813 9.535-66.552 39.074-82.495 11.228-6.061 23.864-9.264 36.542-9.264 20.039 0 39.574 7.952 53.863 21.869a28.113 28.113 0 0 1 14.619-4.128 28.057 28.057 0 0 1 24.721 14.742c3.562 6.597 4.341 14.187 2.194 21.371-2.147 7.184-6.963 13.102-13.561 16.661a28.106 28.106 0 0 1-4.812 2.046c1.743 29.85-13.962 58.116-40.347 72.357-11.223 6.061-23.856 9.264-36.53 9.264zm-46.274-20.427 1.33 1.034c12.775 9.925 28.735 15.392 44.94 15.393h.004c12.013 0 23.987-3.037 34.632-8.782 25.472-13.749 40.445-41.287 38.146-70.154l-.135-1.681 1.635-.417a24.226 24.226 0 0 0 5.511-2.151c5.657-3.055 9.787-8.128 11.628-14.288s1.173-12.668-1.881-18.325a24.064 24.064 0 0 0-21.201-12.642 24.101 24.101 0 0 0-11.409 2.894c-.773.417-1.535.886-2.331 1.438l-1.385.96-1.182-1.202c-13.635-13.875-32.651-21.832-52.175-21.832-12.017 0-23.996 3.037-34.642 8.784-28.466 15.364-43.571 48.153-36.734 79.738l.356 1.646-1.562.631c-.901.364-1.712.743-2.48 1.158a23.911 23.911 0 0 0-11.629 14.288 23.91 23.91 0 0 0 1.88 18.325 24.067 24.067 0 0 0 21.203 12.641c3.957 0 7.903-1 11.41-2.895a24.268 24.268 0 0 0 4.826-3.427l1.245-1.134z"/><path fill="none" d="m251.987 370.122 22.325 7.698"/><path d="M274.312 379.821a1.98 1.98 0 0 1-.652-.11l-22.324-7.698a1.998 1.998 0 0 1-1.238-2.542 1.994 1.994 0 0 1 2.543-1.238l22.324 7.697a2 2 0 0 1-.653 3.891z"/><g><path fill="none" d="m404.626 287.732-5.815 22.889"/><path d="M398.812 312.622a1.998 1.998 0 0 1-1.939-2.493l5.814-22.889a2 2 0 1 1 3.878.985l-5.815 22.889a2.002 2.002 0 0 1-1.938 1.508z"/></g><g><circle cx="304.906" cy="352.788" r="9.906"/><path d="M289.151 365.708a1.999 1.999 0 0 1-1.991-2.213 25.995 25.995 0 0 1 13.494-20.12 26.005 26.005 0 0 1 24.225-.242 2 2 0 0 1-1.826 3.559 22.004 22.004 0 0 0-20.498.201 22 22 0 0 0-11.418 17.026 2 2 0 0 1-1.986 1.789z"/></g><g><circle cx="361.798" cy="322.079" r="9.906"/><path d="M346.043 335a2 2 0 0 1-1.991-2.212 25.987 25.987 0 0 1 13.494-20.121 25.984 25.984 0 0 1 24.225-.239 2 2 0 0 1-1.828 3.559 21.991 21.991 0 0 0-20.496.2 21.988 21.988 0 0 0-11.418 17.025 2 2 0 0 1-1.986 1.788z"/></g><g><path fill="none" d="m333.949 337.196 6.85 12.693"/><path d="M340.801 351.889c-.712 0-1.4-.38-1.762-1.051l-6.85-12.691a2 2 0 1 1 3.52-1.899l6.85 12.692a2 2 0 0 1-1.758 2.949z"/></g><g><path fill="#FFF" d="M367.066 345.134c6.656 12.33 2.056 27.724-10.277 34.379-12.329 6.656-27.724 2.059-34.379-10.273l44.656-24.106z"/></g></g><g><path fill="#FFD829" d="M578.888 629.706 440.433 704.44l-18.42-34.128 138.454-74.734z"/></g><g><path fill="#FFD829" d="m605.585 603.309-1.165 2.086-81.154-45.246 24.688-44.279.004.002 1.038-1.572c8.614-13.047 23.117-20.837 38.794-20.837 7.855 0 15.657 2.035 22.563 5.885a45.893 45.893 0 0 1 3.631 2.258l.073.051 156.699 87.364-45.245 81.152-119.926-66.864z"/><path d="M587.79 495.461c7.515 0 14.979 1.948 21.592 5.633a44.04 44.04 0 0 1 3.474 2.16l.15.104.158.088 154.873 86.346-43.298 77.659-116.436-64.917-3.489-1.945-1.166 2.085-77.662-43.299 22.87-41.019.009-.015.011-.021.104-.178.021-.047.631-1.132 1.033-1.563c8.243-12.485 22.122-19.939 37.125-19.939m0-4c-15.85 0-31.258 7.793-40.463 21.735l-.132-.076-1.775 3.187a.277.277 0 0 1-.013.021.106.106 0 0 1-.012.02l-24.852 44.573 84.646 47.192 1.165-2.085 119.93 66.863 47.192-84.646-158.365-88.294a49.672 49.672 0 0 0-3.785-2.354c-7.464-4.159-15.556-6.136-23.536-6.136z"/><g><path fill="#FFF" d="M859.314 550.235a9.092 9.092 0 0 0-6.918-.839l-1.36.664-85.595 151.839 5.873 4.388a9.138 9.138 0 0 0 12.45-3.475l15.714-27.873 37.217-66.02 26.082-46.266c2.471-4.386.922-9.945-3.463-12.418z"/><path d="m772.395 588.414-47.077 83.511 40.123 29.974 85.595-151.838z"/><path d="m772.354 588.346-1.786-1.004c-3.678-2.074-8.384-.76-10.456 2.918l-9.931 17.614c-2.072 3.675-.76 8.383 2.919 10.457l1.782 1.005 10.034 5.654 17.467-30.988-10.029-5.656z"/><g><path fill="#FFF" d="m784.047 607.424-15.674-5.612 1.348-3.765 11.98 4.289 5.215-13.732 13.832 4.949 5.217-13.731 13.836 4.947 4.526-11.903 3.737 1.422-5.918 15.566-13.835-4.946-5.217 13.733-13.832-4.949z"/></g></g></g><g><path d="m608.232 602.607-84.371-47.038-55.926 99.624-27.51 49.238.021-.005-.017.015c19.109 45.491 55.62 44.755 73.933 47.577l102.886 16.215 13.651-95.72-53.371-8.271c-.029.084-.063.17-.109.252l-9.092 16.463c-.275.493-.576 1.042-.908 1.647-4.193 7.61-12.913 23.449-26.393 35.777-14.402 13.172-30.019 18.518-46.52 15.951a58.684 58.684 0 0 1-8.673-2.052 1.615 1.615 0 0 1-1.051-2.022 1.614 1.614 0 0 1 2.022-1.05c43.662 13.81 69.35-32.833 77.788-48.16"/></g><g><path fill="#FFD829" d="m464.954 477.073 69.79-38.142c8.118-3.691 14.648-10.754 17.356-19.983l31.192-106.365-.062-.019c2.212-4.172 4.92-8.176 8.188-11.584 3.969-4.136 6.771-8.585 8.975-13.365 1.83-3.974 3.248-8.173 4.575-12.612l6.259-20.938 6.613-22.132s-.045-.014-.04-.025c1.533-5.13-1.382-10.536-6.516-12.069-5.133-1.535-10.536 1.383-12.072 6.514-.088.297-.156.59-.218.885l-6.355 21.271-.078-.021 8.386-28.058s-.043-.014-.039-.023c1.534-5.133-1.382-10.536-6.515-12.072-5.133-1.532-10.537 1.385-12.07 6.517-.09.293-.159.589-.217.885l-8.129 27.195-.08-.021 10.157-33.982s-.044-.015-.04-.024c1.534-5.132-1.384-10.537-6.518-12.072-5.131-1.532-10.536 1.384-12.069 6.517-.088.294-.157.587-.218.882l-9.896 33.124-.08-.022 8.386-28.057s-.043-.014-.041-.026c1.535-5.133-1.382-10.536-6.514-12.069-5.134-1.534-10.538 1.383-12.071 6.516a9.922 9.922 0 0 0-.217.885l-10.434 34.907c-.147.037-.3.067-.447.104l.738-16.874s-.045-.002-.042-.016c.243-5.351-3.896-9.888-9.247-10.134-5.351-.245-9.889 3.895-10.134 9.247-.014.305-.01.604.004.903l-1.812 40.265c-.076.65-.139 1.305-.17 1.972a27.349 27.349 0 0 0 5.513 17.796c1.562 2.557 4.147 7.576 3.521 11.961l.017.005-27.446 93.582-60.37 32.988"/><path d="M464.956 479.074a1.998 1.998 0 0 1-1.757-1.042 1.999 1.999 0 0 1 .796-2.714l69.79-38.142c.043-.022.087-.045.131-.065a29.778 29.778 0 0 0 16.267-18.728l31.067-105.938a1.87 1.87 0 0 1 .215-.818c2.484-4.685 5.35-8.733 8.514-12.032 3.533-3.683 6.268-7.756 8.602-12.818 1.545-3.354 2.926-7.163 4.476-12.348l12.755-42.675c.011-.142.036-.282.077-.419a7.646 7.646 0 0 0-.602-5.861 7.647 7.647 0 0 0-4.57-3.719c-4.065-1.218-8.366 1.103-9.584 5.171a9.532 9.532 0 0 0-.176.719c-.012.056-.025.11-.042.165l-6.355 21.271a2.002 2.002 0 0 1-2.439 1.357 2.096 2.096 0 0 1-1.263-.969c-.264-.471-.362-1.039-.208-1.556l8.27-27.668a2.03 2.03 0 0 1 .077-.413c1.216-4.067-1.104-8.366-5.172-9.583-4.069-1.213-8.365 1.105-9.581 5.173a6.993 6.993 0 0 0-.17.694 2.027 2.027 0 0 1-.047.19l-8.129 27.195a2.004 2.004 0 0 1-2.436 1.359 2.096 2.096 0 0 1-1.268-.968c-.265-.472-.365-1.041-.21-1.558l10.04-33.589a2 2 0 0 1 .078-.418c1.216-4.067-1.105-8.367-5.176-9.583-4.066-1.214-8.363 1.106-9.58 5.173-.069.235-.126.47-.174.706-.012.06-.025.119-.044.177l-9.896 33.124a2 2 0 0 1-2.456 1.353 2.093 2.093 0 0 1-1.252-.972c-.26-.47-.357-1.035-.204-1.549l8.267-27.659a1.66 1.66 0 0 1 .019-.156c.014-.091.033-.181.061-.269a7.645 7.645 0 0 0-.601-5.861 7.653 7.653 0 0 0-4.569-3.718 7.652 7.652 0 0 0-5.863.601 7.65 7.65 0 0 0-3.891 5.27 1.74 1.74 0 0 1-.046.186l-10.434 34.907a1.999 1.999 0 0 1-1.431 1.368l-.437.103a1.999 1.999 0 0 1-2.495-2.025l.722-16.478a2.133 2.133 0 0 1-.024-.415c.192-4.241-3.101-7.85-7.341-8.045a7.64 7.64 0 0 0-5.542 2.004 7.648 7.648 0 0 0-2.498 6.057c.003.061.003.121 0 .181l-1.812 40.265a1.723 1.723 0 0 1-.012.143 24.45 24.45 0 0 0-.158 1.833 25.503 25.503 0 0 0 5.109 16.497c.04.053.077.107.111.163 1.691 2.769 4.404 8.097 3.829 13.01.001.186-.025.374-.08.561l-27.446 93.583a1.987 1.987 0 0 1-.96 1.191l-60.371 32.988a2 2 0 1 1-1.918-3.51l59.646-32.591 27.139-92.534c.536-3.832-2.019-8.581-3.201-10.533a29.511 29.511 0 0 1-5.854-19.011c.028-.623.084-1.272.173-2.041l1.805-40.107a11.627 11.627 0 0 1 3.804-9.1 11.644 11.644 0 0 1 8.421-3.045c6.298.29 11.221 5.535 11.165 11.79.025.146.036.295.029.445l-.104 2.387 6.306-21.098a11.62 11.62 0 0 1 5.895-7.918 11.616 11.616 0 0 1 8.906-.914c2.881.86 5.271 2.75 6.771 5.339 2.566-4.799 8.25-7.301 13.663-5.687 5.417 1.62 8.795 6.835 8.306 12.259a11.668 11.668 0 0 1 8.59-.755c5.416 1.621 8.793 6.837 8.304 12.262a11.64 11.64 0 0 1 8.591-.755 11.608 11.608 0 0 1 6.943 5.652 11.61 11.61 0 0 1 1.035 8.471 2.002 2.002 0 0 1-.081.46l-12.872 43.069c-1.08 3.617-2.589 8.349-4.675 12.876-2.491 5.404-5.549 9.955-9.348 13.914-2.81 2.927-5.373 6.521-7.627 10.689l-.024.092-31.191 106.364a33.773 33.773 0 0 1-18.381 21.211l-69.728 38.106a1.999 1.999 0 0 1-.959.246z"/></g><g><path fill="#FFF" d="M356.888 508.933c13.632 25.258 44.938 34.796 69.922 21.312l50.498-27.259-49.363-91.456-50.496 27.257c-24.988 13.485-34.193 44.891-20.561 70.146z"/></g></g><g><path fill="#FFF" d="m595.409 951.343-.398-284.31 9.963-.015.398 284.311z"/></g><g><path fill="none" d="m819.676 206.323-7.123 45.826"/><path d="m814.532 252.453-3.953-.614 7.118-45.822 3.954.614z"/><path fill="none" d="m834.836 215.554-37.441 27.368"/><path d="m798.579 244.538-2.362-3.23 37.435-27.37 2.361 3.229z"/><g><path fill="none" d="m839.03 232.797-45.828-7.124"/><path d="m838.721 234.775-45.826-7.124.615-3.952 45.826 7.124z"/></g><g><path fill="none" d="m829.801 247.96-27.368-37.444"/><path d="m828.215 249.128-27.368-37.442 3.228-2.36 27.369 37.442z"/></g><g><path fill="none" d="m851.8 168.704-7.123 45.826"/><path d="m846.656 214.835-3.953-.614 7.118-45.822 3.954.614z"/><path fill="none" d="m866.961 177.935-37.44 27.368"/><path d="m830.704 206.918-2.361-3.23 37.433-27.37 2.362 3.23z"/><g><path fill="none" d="m871.155 195.18-45.829-7.124"/><path d="m870.846 197.16-45.827-7.125.614-3.952 45.827 7.124z"/></g><g><path fill="none" d="m861.926 210.341-27.368-37.445"/><path d="m860.345 211.506-27.368-37.442 3.228-2.36 27.369 37.442z"/></g></g><g><path fill="none" d="m870.989 214.3-7.123 45.826"/><path d="m865.782 260.397-3.953-.614 7.113-45.827 3.953.614z"/><path fill="none" d="m886.152 223.53-37.442 27.369"/><path d="m849.894 252.516-2.361-3.23 37.435-27.372 2.362 3.23z"/><g><path fill="none" d="m890.345 240.774-45.829-7.124"/><path d="m890.034 242.753-45.827-7.124.614-3.952 45.827 7.124z"/></g><g><path fill="none" d="m881.116 255.937-27.368-37.445"/><path d="m879.537 257.102-27.368-37.442 3.228-2.36 27.368 37.442z"/></g></g></g><g><path fill="none" d="m778.716 352.211-7.123 45.827"/><path d="M771.596 400.039a2 2 0 0 1-1.98-2.306l7.123-45.827a2 2 0 1 1 3.953.613l-7.123 45.827a2 2 0 0 1-1.973 1.693z"/><path fill="none" d="m793.878 361.442-37.44 27.37"/><path d="M756.438 390.812a2 2 0 0 1-1.181-3.615l37.441-27.369a2 2 0 1 1 2.36 3.23l-37.44 27.369a1.99 1.99 0 0 1-1.18.385z"/><g><path fill="none" d="m798.071 378.686-45.83-7.125"/><path d="M798.074 380.686c-.104 0-.206-.008-.312-.023l-45.83-7.125a2 2 0 0 1 .615-3.952l45.83 7.125a2 2 0 0 1-.303 3.975z"/></g><g><path fill="none" d="m788.842 393.849-27.365-37.446"/><path d="M788.844 395.849a1.99 1.99 0 0 1-1.615-.819l-27.366-37.445a1.999 1.999 0 1 1 3.229-2.36l27.366 37.445a1.998 1.998 0 0 1-1.614 3.179z"/></g></g><g><path d="M256.391 318.586a75.41 75.41 0 0 0-.065 22.879l2.779 5.147 83.587-45.118-7.672-28.697 20.159 21.957 30.358-16.387-.485-.902c-11.016-11.31-25.655-19.275-42.455-21.887-41.205-6.405-79.801 21.805-86.206 63.008z"/></g></svg>