<?xml version="1.0" encoding="UTF-8" standalone="no"?>
<svg xmlns:svg="http://www.w3.org/2000/svg" xmlns="http://www.w3.org/2000/svg" version="1.0" width="950px" height="320px" viewBox="0 0 950 320">
	<defs />
	<g transform="translate( 10,10)" style="fill-rule:evenodd;stroke:#000000;stroke-width:2;stroke-linecap:butt;stroke-linejoin:miter;stroke-miterlimit:4;">
		<g id="keyrow_1" transform="translate( 30,0)">
			<polygon id="key_1"      transform="translate(  0,0  )" points="0,0 60,0 60,60 00,60" style="fill:#ffffff;" />
			<polygon id="key_2"      transform="translate( 60,0  )" points="0,0 60,0 60,60 00,60" style="fill:#ffffff;" />
			<polygon id="key_3"      transform="translate(120,0  )" points="0,0 60,0 60,60 00,60" style="fill:#ffffff;" />
			<polygon id="key_4"      transform="translate(180,0  )" points="0,0 60,0 60,60 00,60" style="fill:#ffffff;" />
			<polygon id="key_5"      transform="translate(240,0  )" points="0,0 60,0 60,60 00,60" style="fill:#ffffff;" />
			<polygon id="key_6"      transform="translate(300,0  )" points="0,0 60,0 60,60 00,60" style="fill:#ffffff;" />
			<polygon id="key_7"      transform="translate(360,0  )" points="0,0 60,0 60,60 00,60" style="fill:#ffffff;" />
			<polygon id="key_8"      transform="translate(420,0  )" points="0,0 60,0 60,60 00,60" style="fill:#ffffff;" />
			<polygon id="key_9"      transform="translate(480,0  )" points="0,0 60,0 60,60 00,60" style="fill:#ffffff;" />
			<polygon id="key_0"      transform="translate(540,0  )" points="0,0 60,0 60,60 00,60" style="fill:#ffffff;" />
			<polygon id="key_colon"  transform="translate(600,0  )" points="0,0 60,0 60,60 00,60" style="fill:#ffffff;" />
			<polygon id="key_minus"  transform="translate(660,0  )" points="0,0 60,0 60,60 00,60" style="fill:#ffffff;" />
			<polygon id="key_bracel" transform="translate(720,0  )" points="0,0 60,0 60,60 00,60" style="fill:#ffffff;" />
			<polygon id="key_bracer" transform="translate(780,0  )" points="0,0 60,0 60,60 00,60" style="fill:#ffffff;" />
			<polygon id="key_home"   transform="translate(840,0  )" points="0,0 60,0 60,60 00,60" style="fill:#dddddd;" />
		</g>
		<g id="keyrow_2" transform="translate( 0,60)">
			<polygon id="key_esc"    transform="translate(  0,0 )" points="0,0 60,0 60,60 00,60" style="fill:#dddddd;" />
			<polygon id="key_Q"      transform="translate( 60,0 )" points="0,0 60,0 60,60 00,60" style="fill:#ffffff;" />
			<polygon id="key_W"      transform="translate(120,0 )" points="0,0 60,0 60,60 00,60" style="fill:#ffffff;" />
			<polygon id="key_E"      transform="translate(180,0 )" points="0,0 60,0 60,60 00,60" style="fill:#ffffff;" />
			<polygon id="key_R"      transform="translate(240,0 )" points="0,0 60,0 60,60 00,60" style="fill:#ffffff;" />
			<polygon id="key_T"      transform="translate(300,0 )" points="0,0 60,0 60,60 00,60" style="fill:#ffffff;" />
			<polygon id="key_Y"      transform="translate(360,0 )" points="0,0 60,0 60,60 00,60" style="fill:#ffffff;" />
			<polygon id="key_U"      transform="translate(420,0 )" points="0,0 60,0 60,60 00,60" style="fill:#ffffff;" />
			<polygon id="key_I"      transform="translate(480,0 )" points="0,0 60,0 60,60 00,60" style="fill:#ffffff;" />
			<polygon id="key_O"      transform="translate(540,0 )" points="0,0 60,0 60,60 00,60" style="fill:#ffffff;" />
			<polygon id="key_P"      transform="translate(600,0 )" points="0,0 60,0 60,60 00,60" style="fill:#ffffff;" />
			<polygon id="key_lf"     transform="translate(660,0 )" points="0,0 60,0 60,60 00,60" style="fill:#dddddd;" />
			<polygon id="key_enter"  transform="translate(720,0 )" points="0,0 120,0 120,60 00,60" style="fill:#dddddd;" />
			<polygon id="key_HereIs" transform="translate(840,0 )" points="0,0 60,0 60,60 00,60" style="fill:#dddddd;" />
		</g>
		<g id="keyrow_3" transform="translate(15,120)">
			<polygon id="key_Ctrl"   transform="translate(  0,0 )" points="0,0 60,0 60,60 00,60" style="fill:#dddddd;" />
			<polygon id="key_A"      transform="translate( 60,0 )" points="0,0 60,0 60,60 00,60" style="fill:#ffffff;" />
			<polygon id="key_S"      transform="translate(120,0 )" points="0,0 60,0 60,60 00,60" style="fill:#ffffff;" />
			<polygon id="key_D"      transform="translate(180,0 )" points="0,0 60,0 60,60 00,60" style="fill:#ffffff;" />
			<polygon id="key_F"      transform="translate(240,0 )" points="0,0 60,0 60,60 00,60" style="fill:#ffffff;" />
			<polygon id="key_G"      transform="translate(300,0 )" points="0,0 60,0 60,60 00,60" style="fill:#ffffff;" />
			<polygon id="key_H"      transform="translate(360,0 )" points="0,0 60,0 60,60 00,60" style="fill:#ffffff;" />
			<polygon id="key_J"      transform="translate(420,0 )" points="0,0 60,0 60,60 00,60" style="fill:#ffffff;" />
			<polygon id="key_K"      transform="translate(480,0 )" points="0,0 60,0 60,60 00,60" style="fill:#ffffff;" />
			<polygon id="key_L"      transform="translate(540,0 )" points="0,0 60,0 60,60 00,60" style="fill:#ffffff;" />
			<polygon id="key_Plus"   transform="translate(600,0 )" points="0,0 60,0 60,60 00,60" style="fill:#ffffff;" />
			<polygon id="key_At"     transform="translate(660,0 )" points="0,0 60,0 60,60 00,60" style="fill:#ffffff;" />
			<polygon id="key_Backsl" transform="translate(720,0 )" points="0,0 60,0 60,60 00,60" style="fill:#ffffff;" />
			<polygon id="key_Rub"    transform="translate(780,0 )" points="0,0 60,0 60,60 00,60" style="fill:#dddddd;" />
			<polygon id="key_Break"  transform="translate(840,0 )" points="0,0 60,0 60,60 00,60" style="fill:#dddddd;" />
		</g>
		<g id="keyrow_4" transform="translate(45,180)">
			<polygon id="key_ShiftL" transform="translate(-30,0 )" points="0,0 90,0 90,60 00,60" style="fill:#dddddd;" />
			<polygon id="key_Z"      transform="translate( 60,0 )" points="0,0 60,0 60,60 00,60" style="fill:#ffffff;" />
			<polygon id="key_X"      transform="translate(120,0 )" points="0,0 60,0 60,60 00,60" style="fill:#ffffff;" />
			<polygon id="key_C"      transform="translate(180,0 )" points="0,0 60,0 60,60 00,60" style="fill:#ffffff;" />
			<polygon id="key_V"      transform="translate(240,0 )" points="0,0 60,0 60,60 00,60" style="fill:#ffffff;" />
			<polygon id="key_B"      transform="translate(300,0 )" points="0,0 60,0 60,60 00,60" style="fill:#ffffff;" />
			<polygon id="key_N"      transform="translate(360,0 )" points="0,0 60,0 60,60 00,60" style="fill:#ffffff;" />
			<polygon id="key_M"      transform="translate(420,0 )" points="0,0 60,0 60,60 00,60" style="fill:#ffffff;" />
			<polygon id="key_Lt"     transform="translate(480,0 )" points="0,0 60,0 60,60 00,60" style="fill:#ffffff;" />
			<polygon id="key_Gt"     transform="translate(540,0 )" points="0,0 60,0 60,60 00,60" style="fill:#ffffff;" />
			<polygon id="key_Slash"  transform="translate(600,0 )" points="0,0 60,0 60,60 00,60" style="fill:#ffffff;" />
			<polygon id="key_ShiftR" transform="translate(660,0 )" points="0,0 90,0 90,60 00,60" style="fill:#dddddd;" />
			<polygon id="key_Repeat" transform="translate(750,0 )" points="0,0 60,0 60,60 00,60" style="fill:#dddddd;" />
			<polygon id="key_Clear"  transform="translate(810,0 )" points="0,0 60,0 60,60 00,60" style="fill:#dddddd;" />
		</g>
		<polygon id="key_Space" transform="translate(120,240)" points="0,0 560,0 560,60 00,60" style="fill:#ffffff;" />
		<g id="textlayer" transform="translate(-30,0)" style="fill:#000000;stroke:none;">
			<path id="text_1"      d="M 75.35,18.83 74.44,11.06 74.44,6.369 78.05,6.369 78.05,11.06 77.13,18.83 75.35,18.83 M 74.48,23.63 74.48,20.17 77.96,20.17 77.96,23.63 74.48,23.63 M 75.35,53.63 75.35,42.16 71.34,42.16 71.34,39.8 71.6,39.8 C 73.06,39.8 74.12,39.58 74.79,39.12 75.46,38.67 75.86,37.91 75.97,36.85 L 78.66,36.85 78.66,53.63 75.35,53.63" />
			<path id="text_2"      d="M 135.6,6.779 137.8,6.779 137.8,13.33 135.6,13.33 135.6,6.779 M 131.8,6.779 134,6.779 134,13.33 131.8,13.33 131.8,6.779 M 128.6,53.63 C 128.6,52.13 128.9,50.86 129.5,49.82 130.2,48.78 131.3,47.72 132.9,46.65 133.1,46.48 133.4,46.26 133.9,45.97 136,44.62 137.1,43.31 137.1,42.06 137.1,41.32 136.9,40.74 136.4,40.31 136,39.88 135.4,39.66 134.6,39.66 133.7,39.66 133.1,39.93 132.6,40.46 132.2,40.98 131.9,41.73 131.9,42.71 L 131.9,42.85 128.8,42.85 C 128.8,40.93 129.4,39.45 130.4,38.41 131.4,37.37 132.9,36.85 134.8,36.85 136.5,36.85 137.9,37.32 138.9,38.27 140,39.21 140.5,40.46 140.5,42.02 140.5,43.13 140.2,44.1 139.7,44.92 139.1,45.74 138.1,46.68 136.5,47.72 136.2,47.95 135.8,48.25 135.2,48.62 133.7,49.56 132.9,50.28 132.7,50.77 L 140.3,50.77 140.3,53.63 128.6,53.63" />
			<path id="text_3"      d="M 195.3,13.69 194.3,16.55 197.2,16.55 198.2,13.69 195.3,13.69 M 195.3,6.475 197.9,6.475 196.2,11.34 199,11.34 200.7,6.475 203.3,6.475 201.6,11.34 204.9,11.34 204,13.69 200.8,13.69 199.8,16.53 203.2,16.53 202.3,18.87 198.9,18.87 197.2,23.75 194.6,23.75 196.3,18.87 193.5,18.87 191.7,23.75 189.2,23.75 190.9,18.87 187.5,18.87 188.4,16.53 191.7,16.53 192.7,13.69 189.2,13.69 190.1,11.34 193.5,11.34 195.3,6.475 M 190.1,48.52 193.3,48.52 C 193.3,49.46 193.5,50.17 194,50.64 194.4,51.11 195.1,51.35 196,51.35 196.8,51.35 197.5,51.13 197.9,50.69 198.4,50.24 198.6,49.61 198.6,48.78 198.6,47.95 198.3,47.33 197.8,46.9 197.3,46.47 196.5,46.26 195.4,46.26 195.4,46.26 195.3,46.26 195.2,46.27 195,46.28 195,46.28 194.9,46.28 L 194.9,43.96 195.3,43.96 C 196.2,43.96 197,43.78 197.4,43.4 197.9,43.02 198.1,42.44 198.1,41.65 198.1,41.01 197.9,40.49 197.5,40.12 197.1,39.74 196.6,39.54 195.9,39.54 195.2,39.54 194.6,39.76 194.2,40.2 193.8,40.64 193.6,41.26 193.6,42.06 L 193.6,42.21 190.4,42.21 C 190.5,40.49 191,39.17 191.9,38.26 192.9,37.33 194.3,36.87 196.1,36.87 197.7,36.87 199.1,37.28 200.1,38.1 201,38.92 201.5,40.03 201.5,41.42 201.5,42.15 201.4,42.8 201,43.35 200.7,43.91 200.2,44.37 199.5,44.72 200.4,45.1 201,45.62 201.5,46.28 201.9,46.94 202.1,47.72 202.1,48.64 202.1,50.32 201.6,51.65 200.5,52.63 199.4,53.62 197.9,54.11 196,54.11 194.1,54.11 192.6,53.63 191.6,52.68 190.6,51.72 190.1,50.36 190.1,48.59 L 190.1,48.52" />
			<path id="text_4"      d="M 254.5,21.45 C 255.1,21.37 255.6,21.13 255.9,20.76 256.3,20.38 256.4,19.88 256.4,19.26 256.4,18.71 256.3,18.25 255.9,17.89 255.6,17.52 255.1,17.24 254.5,17.03 L 254.5,21.45 M 253.1,13.44 253.1,9.451 C 252.5,9.529 252,9.74 251.7,10.08 251.4,10.42 251.2,10.87 251.2,11.44 251.2,11.92 251.3,12.32 251.6,12.64 251.9,12.96 252.4,13.22 253.1,13.44 M 253.1,26.27 253.1,24.02 C 251.3,23.91 250,23.4 249.1,22.48 248.2,21.57 247.8,20.25 247.8,18.52 L 250.9,18.52 C 251,19.37 251.2,20.03 251.5,20.53 251.9,21.01 252.4,21.32 253.1,21.45 L 253.1,16.6 C 251.3,16.14 250,15.54 249.2,14.79 248.4,14.05 248.1,13.04 248.1,11.75 248.1,10.32 248.5,9.166 249.4,8.291 250.3,7.416 251.5,6.959 253.1,6.92 L 253.1,5.42 254.5,5.42 254.5,6.92 C 256,6.998 257.2,7.459 258,8.303 258.9,9.139 259.3,10.32 259.4,11.84 L 256.2,11.84 C 256.2,11.12 256,10.56 255.7,10.18 255.4,9.787 255,9.568 254.5,9.521 L 254.5,13.79 C 256.4,14.39 257.7,15.08 258.5,15.85 259.3,16.62 259.7,17.64 259.7,18.91 259.7,20.4 259.3,21.59 258.3,22.48 257.4,23.37 256.1,23.89 254.5,24.04 L 254.5,26.27 253.1,26.27 M 254.6,47.42 254.6,40.24 250.1,47.42 254.6,47.42 M 254.6,53.63 254.6,50.01 247.5,50.01 247.5,47.06 253.7,37.33 257.8,37.33 257.8,47.34 259.8,47.34 259.8,50.01 257.8,50.01 257.8,53.63 254.6,53.63" />
			<path id="text_5"      d="M 320.4,19.74 C 320.4,20.26 320.6,20.71 321,21.06 321.3,21.42 321.7,21.59 322.3,21.59 322.8,21.59 323.2,21.41 323.5,21.05 323.9,20.69 324.1,20.25 324.1,19.74 324.1,19.24 323.9,18.81 323.5,18.46 323.2,18.1 322.8,17.92 322.3,17.92 321.7,17.92 321.3,18.1 321,18.45 320.6,18.79 320.4,19.22 320.4,19.74 M 317.9,19.74 C 317.9,18.52 318.3,17.49 319.1,16.66 320,15.82 321,15.4 322.3,15.4 323.5,15.4 324.5,15.83 325.3,16.68 326.2,17.53 326.6,18.54 326.6,19.74 326.6,20.94 326.2,21.97 325.3,22.83 324.5,23.69 323.4,24.11 322.3,24.11 321,24.11 320,23.69 319.1,22.85 318.3,22 317.9,20.97 317.9,19.74 M 311.1,24.11 321.1,6.85 323,6.85 313,24.11 311.1,24.11 M 310,11.22 C 310,11.74 310.2,12.17 310.6,12.52 310.9,12.87 311.3,13.05 311.9,13.05 312.4,13.05 312.8,12.87 313.1,12.52 313.5,12.16 313.7,11.73 313.7,11.22 313.7,10.72 313.5,10.29 313.1,9.943 312.8,9.584 312.4,9.404 311.9,9.404 311.3,9.404 310.9,9.58 310.6,9.932 310.2,10.28 310,10.71 310,11.22 M 307.5,11.22 C 307.5,10 307.9,8.971 308.8,8.127 309.6,7.275 310.6,6.85 311.9,6.85 313.1,6.85 314.1,7.279 314.9,8.139 315.8,8.99 316.2,10.02 316.2,11.22 316.2,12.42 315.8,13.45 314.9,14.3 314.1,15.15 313.1,15.57 311.9,15.57 310.6,15.57 309.6,15.15 308.8,14.31 307.9,13.48 307.5,12.45 307.5,11.22 M 310.9,49.12 314.1,49.12 C 314.2,49.85 314.4,50.42 314.9,50.83 315.3,51.23 315.9,51.43 316.6,51.43 317.5,51.43 318.2,51.16 318.7,50.63 319.2,50.1 319.4,49.34 319.4,48.35 319.4,47.42 319.2,46.69 318.7,46.15 318.2,45.62 317.5,45.35 316.7,45.35 316.2,45.35 315.7,45.44 315.4,45.64 315,45.83 314.7,46.12 314.4,46.51 L 311.4,46.33 312.5,37.33 322.1,37.33 322.1,40.17 314.9,40.17 314.4,43.53 C 314.8,43.24 315.2,43.03 315.7,42.88 316.2,42.74 316.7,42.66 317.3,42.66 319,42.66 320.3,43.17 321.3,44.19 322.4,45.2 322.9,46.53 322.9,48.18 322.9,49.99 322.3,51.43 321.2,52.51 320.1,53.58 318.5,54.11 316.6,54.11 314.9,54.11 313.5,53.67 312.5,52.79 311.5,51.9 310.9,50.67 310.9,49.12" />
			<path id="text_6"      d="M 372.2,48.3 C 372.2,49.26 372.4,50.02 372.9,50.58 373.4,51.15 374,51.43 374.8,51.43 375.6,51.43 376.2,51.15 376.7,50.61 377.1,50.06 377.3,49.3 377.3,48.32 377.3,47.42 377.1,46.72 376.6,46.22 376.2,45.72 375.5,45.47 374.7,45.47 373.9,45.47 373.3,45.72 372.8,46.22 372.4,46.72 372.2,47.42 372.2,48.3 M 372.1,43.92 C 372.5,43.53 372.9,43.23 373.5,43.04 374,42.83 374.6,42.73 375.3,42.73 376.9,42.73 378.2,43.23 379.2,44.23 380.2,45.23 380.7,46.56 380.7,48.23 380.7,49.99 380.2,51.42 379.1,52.51 378,53.59 376.6,54.13 374.8,54.13 372.8,54.13 371.2,53.43 370.2,52.03 369.1,50.62 368.6,48.56 368.6,45.85 368.6,42.94 369.2,40.71 370.3,39.17 371.4,37.62 373.1,36.85 375.2,36.85 376.7,36.85 377.9,37.24 378.8,38.01 379.7,38.78 380.2,39.83 380.3,41.15 L 376.9,41.15 C 376.8,40.61 376.6,40.21 376.3,39.93 375.9,39.66 375.4,39.52 374.8,39.52 374,39.52 373.3,39.89 372.9,40.62 372.4,41.35 372.2,42.45 372.1,43.92 M 372.9,16.1 372,16.74 C 371.6,16.99 371.3,17.29 371.2,17.64 371,17.99 370.9,18.39 370.9,18.83 370.9,19.49 371.1,20.05 371.6,20.5 372,20.96 372.6,21.18 373.3,21.18 373.8,21.18 374.2,21.08 374.7,20.88 375.2,20.67 375.6,20.36 376,19.96 L 372.9,16.1 M 373.8,12.4 374.2,12.11 C 374.6,11.85 374.9,11.56 375,11.24 375.2,10.92 375.3,10.56 375.3,10.14 375.3,9.744 375.2,9.428 374.9,9.193 374.7,8.959 374.4,8.842 373.9,8.842 373.5,8.842 373.2,8.963 372.9,9.205 372.7,9.439 372.5,9.76 372.5,10.17 372.5,10.38 372.6,10.62 372.7,10.88 372.8,11.14 373,11.41 373.2,11.7 L 373.8,12.4 M 371.2,13.96 370.5,13.07 C 370.1,12.6 369.9,12.17 369.7,11.76 369.6,11.35 369.5,10.91 369.5,10.46 369.5,9.209 369.9,8.217 370.7,7.482 371.5,6.74 372.6,6.369 374,6.369 375.3,6.369 376.3,6.709 377.1,7.389 377.9,8.068 378.2,8.986 378.2,10.14 378.2,11.02 378,11.8 377.6,12.5 377.1,13.19 376.4,13.83 375.4,14.44 L 377.9,17.49 C 378.2,17.11 378.3,16.68 378.5,16.2 378.6,15.72 378.7,15.19 378.8,14.61 L 381.8,14.61 C 381.7,15.62 381.5,16.56 381.2,17.43 380.8,18.3 380.4,19.09 379.8,19.81 L 382.9,23.63 378.9,23.63 377.8,22.19 C 377.1,22.82 376.3,23.3 375.5,23.63 374.7,23.95 373.8,24.11 372.9,24.11 371.3,24.11 370,23.64 369,22.69 368,21.75 367.5,20.54 367.5,19.07 367.5,17.98 367.8,17.04 368.3,16.25 368.9,15.46 369.8,14.7 371.2,13.96" />
			<path id="text_7"      d="M 434.7,53.63 431.2,53.63 C 431.3,51.34 431.8,49.07 432.8,46.82 433.8,44.57 435.2,42.36 437,40.19 L 428.8,40.19 428.8,37.33 440.7,37.33 440.7,39.85 C 438.8,41.88 437.4,44.03 436.4,46.29 435.4,48.56 434.8,51.01 434.7,53.63 M 438,6.112 435,9.712 433.3,9.712 435,6.112 438,6.112" />
			<path id="text_8"      d="M 490.9,48.76 C 490.9,49.58 491.1,50.21 491.6,50.65 492,51.1 492.7,51.32 493.5,51.32 494.3,51.32 495,51.1 495.4,50.64 495.9,50.19 496.1,49.56 496.1,48.76 496.1,47.98 495.9,47.36 495.4,46.89 494.9,46.42 494.3,46.19 493.5,46.19 492.7,46.19 492.1,46.43 491.6,46.9 491.1,47.38 490.9,48 490.9,48.76 M 491.1,41.56 C 491.1,42.21 491.3,42.71 491.8,43.06 492.2,43.4 492.7,43.58 493.5,43.58 494.3,43.58 494.8,43.4 495.2,43.05 495.7,42.7 495.9,42.2 495.9,41.56 495.9,40.94 495.7,40.44 495.2,40.08 494.8,39.72 494.2,39.54 493.5,39.54 492.8,39.54 492.2,39.73 491.8,40.1 491.4,40.46 491.1,40.95 491.1,41.56 M 489.9,44.82 C 489.2,44.43 488.7,43.97 488.4,43.45 488.1,42.92 487.9,42.26 487.9,41.44 487.9,40.01 488.4,38.88 489.4,38.06 490.4,37.24 491.8,36.83 493.5,36.83 495.2,36.83 496.6,37.24 497.6,38.06 498.6,38.87 499.1,40 499.1,41.44 499.1,42.22 498.9,42.89 498.6,43.46 498.2,44.02 497.7,44.47 497.1,44.82 497.9,45.2 498.5,45.73 498.9,46.41 499.3,47.08 499.5,47.9 499.5,48.87 499.5,50.51 499,51.79 497.9,52.72 496.9,53.65 495.4,54.11 493.5,54.11 491.6,54.11 490.1,53.65 489.1,52.73 488,51.81 487.5,50.52 487.5,48.87 487.5,47.91 487.7,47.11 488.1,46.46 488.5,45.8 489.1,45.26 489.9,44.82 M 497.9,6.369 C 496.8,8.135 496,9.932 495.5,11.76 494.9,13.59 494.7,15.51 494.7,17.51 494.7,19.51 494.9,21.43 495.5,23.26 496,25.08 496.8,26.88 497.9,28.65 L 495.4,28.65 C 494,26.78 493,24.9 492.3,23.02 491.6,21.13 491.2,19.29 491.2,17.51 491.2,15.73 491.6,13.9 492.3,12.01 493,10.12 494,8.236 495.4,6.369 L 497.9,6.369" />
			<path id="text_9"      d="M 556.1,42.69 C 556.1,41.72 555.8,40.97 555.3,40.41 554.9,39.85 554.2,39.57 553.4,39.57 552.6,39.57 552,39.84 551.6,40.38 551.1,40.92 550.9,41.67 550.9,42.64 550.9,43.54 551.1,44.25 551.6,44.76 552,45.27 552.7,45.52 553.5,45.52 554.3,45.52 554.9,45.27 555.4,44.77 555.8,44.27 556.1,43.58 556.1,42.69 M 556.1,47.06 C 555.7,47.45 555.3,47.74 554.7,47.94 554.2,48.13 553.6,48.23 552.9,48.23 551.3,48.23 550,47.73 549,46.74 548,45.75 547.5,44.42 547.5,42.76 547.5,40.99 548,39.56 549.1,38.48 550.2,37.39 551.6,36.85 553.4,36.85 555.4,36.85 557,37.56 558,38.97 559.1,40.38 559.7,42.43 559.7,45.13 559.7,48.04 559.1,50.27 557.9,51.81 556.8,53.36 555.2,54.13 553,54.13 551.5,54.13 550.4,53.75 549.4,52.99 548.5,52.21 548,51.16 548,49.83 L 551.3,49.85 C 551.4,50.38 551.6,50.79 552,51.05 552.3,51.32 552.8,51.45 553.4,51.45 554.3,51.45 554.9,51.08 555.4,50.35 555.8,49.62 556.1,48.52 556.1,47.06 M 549.4,6.369 551.9,6.369 C 553.2,8.229 554.3,10.1 555,11.99 555.7,13.88 556,15.72 556,17.51 556,19.3 555.7,21.14 555,23.03 554.3,24.92 553.2,26.79 551.9,28.65 L 549.4,28.65 C 550.5,26.87 551.3,25.07 551.8,23.24 552.3,21.41 552.6,19.5 552.6,17.51 552.6,15.52 552.3,13.61 551.8,11.78 551.3,9.955 550.5,8.15 549.4,6.369" />
			<path id="text_0"      d="M 611,45.47 C 611,47.51 611.2,48.99 611.6,49.92 612,50.84 612.7,51.3 613.6,51.3 614.5,51.3 615.1,50.83 615.5,49.9 615.9,48.97 616.1,47.5 616.1,45.47 616.1,43.44 615.9,41.97 615.5,41.04 615.1,40.12 614.5,39.66 613.6,39.66 612.7,39.66 612,40.12 611.6,41.04 611.2,41.96 611,43.44 611,45.47 M 607.5,45.47 C 607.5,42.59 608,40.44 609,39.01 610,37.57 611.5,36.85 613.6,36.85 615.6,36.85 617.1,37.57 618.1,39.02 619.1,40.46 619.6,42.62 619.6,45.5 619.6,48.38 619.1,50.53 618.1,51.96 617.1,53.38 615.6,54.09 613.6,54.09 611.5,54.09 610,53.37 609,51.94 608,50.51 607.5,48.36 607.5,45.47" />
			<path id="text_Colon"  d="M 673.5,13.21 671.4,16.12 669.4,14.72 671.7,11.9 668.4,10.99 669.2,8.607 672.3,9.732 672.3,6.369 674.6,6.369 674.6,9.732 677.8,8.631 678.6,11.01 675.3,11.9 677.5,14.7 675.5,16.17 673.5,13.21 M 672.2,44.65 672.2,41.1 675.8,41.1 675.8,44.65 672.2,44.65 M 672.2,53.63 672.2,50.1 675.8,50.1 675.8,53.63 672.2,53.63" />
			<path id="text_Minus"  d="M 727.5,17.82 741.5,17.82 741.5,20.15 727.5,20.15 727.5,17.82 M 727.5,12.78 741.5,12.78 741.5,15.11 727.5,15.11 727.5,12.78 M 730.2,48.85 730.2,45.64 736.8,45.64 736.8,48.85 730.2,48.85" />
			<path id="text_BraceL" d="M 799.2,3.92 799.2,6.369 C 799.2,6.369 799.1,6.365 799,6.358 798.8,6.35 798.7,6.346 798.7,6.346 797.9,6.346 797.4,6.498 797.1,6.803 796.8,7.1 796.7,7.733 796.7,8.701 L 796.7,11.51 C 796.7,12.67 796.5,13.49 796.2,13.97 795.8,14.46 795.2,14.81 794.3,15.02 795.2,15.23 795.8,15.57 796.2,16.05 796.5,16.53 796.7,17.34 796.7,18.5 L 796.7,21.32 C 796.7,22.28 796.8,22.91 797.1,23.21 797.4,23.51 797.9,23.65 798.7,23.65 798.7,23.65 798.8,23.65 799,23.64 799.1,23.63 799.2,23.63 799.2,23.63 L 799.2,26.08 C 799.1,26.08 799,26.08 798.8,26.09 798.6,26.1 798.5,26.1 798.4,26.1 797.6,26.1 796.9,26.06 796.4,25.96 795.9,25.87 795.4,25.72 795.1,25.53 794.6,25.26 794.3,24.9 794.1,24.45 793.9,24.01 793.8,23.23 793.8,22.12 L 793.8,19.17 C 793.8,18.1 793.6,17.34 793.2,16.89 792.8,16.44 792.2,16.21 791.2,16.21 791.2,16.21 791.1,16.22 791,16.22 790.9,16.23 790.8,16.24 790.8,16.24 L 790.8,13.79 C 790.8,13.79 790.9,13.79 791,13.8 791.1,13.81 791.2,13.81 791.2,13.81 792.2,13.81 792.8,13.58 793.2,13.13 793.6,12.68 793.8,11.91 793.8,10.83 L 793.8,7.904 C 793.8,6.787 793.9,6.002 794.1,5.549 794.3,5.096 794.6,4.736 795.1,4.471 795.4,4.276 795.9,4.131 796.4,4.037 796.9,3.943 797.6,3.897 798.4,3.897 798.5,3.897 798.6,3.901 798.8,3.908 799,3.916 799.1,3.92 799.2,3.92 M 793.1,33.97 799,33.97 799,36.46 796.3,36.46 796.3,53.84 799,53.84 799,56.34 793.1,56.34 793.1,33.97" />
			<path id="text_BraceR" d="M 850.8,3.908 851.5,3.908 C 852.4,3.908 853.1,3.955 853.6,4.049 854.1,4.143 854.6,4.291 854.9,4.494 855.4,4.744 855.7,5.104 855.9,5.572 856.1,6.033 856.2,6.807 856.2,7.893 L 856.2,10.85 C 856.2,11.92 856.4,12.68 856.8,13.13 857.2,13.58 857.8,13.8 858.8,13.8 858.8,13.8 858.9,13.8 859,13.79 859.1,13.78 859.2,13.78 859.2,13.78 L 859.2,16.22 858.8,16.22 C 857.8,16.22 857.2,16.44 856.8,16.88 856.4,17.32 856.2,18.08 856.2,19.15 L 856.2,22.11 C 856.2,23.22 856.1,24.01 855.9,24.46 855.7,24.92 855.4,25.27 854.9,25.52 854.6,25.71 854.1,25.86 853.6,25.95 853.1,26.05 852.4,26.09 851.6,26.09 851.5,26.09 851.4,26.09 851.2,26.08 851,26.07 850.9,26.07 850.8,26.07 L 850.8,23.62 C 850.8,23.62 850.9,23.62 851,23.63 851.2,23.64 851.3,23.64 851.3,23.64 852.1,23.64 852.6,23.49 852.9,23.19 853.2,22.89 853.3,22.26 853.3,21.31 L 853.3,18.51 C 853.3,17.34 853.5,16.51 853.8,16.04 854.2,15.55 854.8,15.21 855.7,15.01 854.8,14.8 854.2,14.45 853.8,13.96 853.5,13.48 853.3,12.66 853.3,11.5 L 853.3,8.666 C 853.3,7.713 853.2,7.088 852.9,6.791 852.6,6.486 852.1,6.334 851.3,6.334 851.3,6.334 851.2,6.338 851,6.346 850.9,6.354 850.8,6.358 850.8,6.358 L 850.8,3.908 M 857,33.96 857,56.33 851.1,56.33 851.1,53.83 853.8,53.83 853.8,36.45 851.1,36.45 851.1,33.96 857,33.96" />
			<path id="text_Home"   d="M 914.4,14.59 910,14.59 910,19.55 907.8,19.55 907.8,8.618 910,8.618 910,12.71 914.4,12.71 914.4,8.618 916.6,8.618 916.6,19.55 914.4,19.55 914.4,14.59 M 923,11.32 C 924.2,11.32 925.2,11.7 925.9,12.47 926.6,13.23 927,14.3 927,15.67 927,16.97 926.6,18 925.9,18.76 925.2,19.52 924.2,19.9 923,19.9 921.7,19.9 920.8,19.52 920,18.76 919.3,17.99 919,16.94 919,15.61 919,14.28 919.3,13.23 920,12.47 920.8,11.7 921.7,11.32 923,11.32 M 923,13.01 C 922.4,13.01 922,13.25 921.6,13.73 921.3,14.21 921.1,14.84 921.1,15.61 921.1,16.38 921.3,17 921.6,17.48 922,17.96 922.4,18.2 923,18.2 923.5,18.2 924,17.97 924.3,17.5 924.7,17.02 924.9,16.4 924.9,15.64 924.9,14.84 924.7,14.2 924.4,13.73 924,13.25 923.6,13.01 923,13.01 M 929.4,11.45 931.4,11.45 931.4,12.46 C 931.8,12.05 932.1,11.76 932.5,11.59 932.8,11.41 933.2,11.32 933.7,11.32 934.7,11.32 935.5,11.72 935.9,12.52 936.5,11.72 937.3,11.32 938.2,11.32 939.1,11.32 939.7,11.54 940.1,11.98 940.6,12.42 940.8,13.03 940.8,13.82 L 940.8,19.55 938.7,19.55 938.7,14.15 C 938.7,13.83 938.6,13.58 938.4,13.39 938.2,13.2 937.9,13.1 937.6,13.1 937.1,13.1 936.8,13.24 936.5,13.52 936.3,13.8 936.1,14.19 936.1,14.69 L 936.1,19.55 934,19.55 934,14.15 C 934,13.83 933.9,13.58 933.7,13.39 933.5,13.2 933.3,13.1 932.9,13.1 932.5,13.1 932.1,13.24 931.8,13.52 931.6,13.8 931.5,14.19 931.5,14.69 L 931.5,19.55 929.4,19.55 929.4,11.45 M 946.7,11.32 C 947.1,11.32 947.4,11.36 947.7,11.44 948.1,11.52 948.4,11.66 948.7,11.87 949.1,12.08 949.4,12.35 949.6,12.68 949.9,13 950.1,13.43 950.3,13.97 950.4,14.5 950.5,15.11 950.5,15.8 950.5,15.92 950.5,16.04 950.5,16.16 L 945.1,16.16 C 945.1,16.47 945.1,16.74 945.1,16.97 945.2,17.19 945.3,17.41 945.4,17.63 945.5,17.84 945.7,18.01 945.9,18.13 946.1,18.24 946.4,18.29 946.7,18.29 947.5,18.29 948.1,17.95 948.3,17.27 L 950.4,17.27 C 950.2,18.07 949.7,18.71 949.1,19.19 948.4,19.66 947.6,19.9 946.7,19.9 945.5,19.9 944.6,19.53 944,18.79 943.3,18.04 943,17.01 943,15.71 943,14.35 943.3,13.28 944,12.5 944.6,11.71 945.6,11.32 946.7,11.32 M 948.3,14.77 C 948.3,14.18 948.1,13.72 947.8,13.4 947.6,13.08 947.2,12.92 946.7,12.92 945.8,12.92 945.2,13.54 945.1,14.77 L 948.3,14.77 M 917.9,28.34 C 918.4,28.34 918.7,28.22 918.9,27.98 919,27.72 919.1,27.31 919.1,26.75 L 921,26.75 C 920.9,29.09 919.9,30.26 918,30.26 917.3,30.26 916.6,30.05 916,29.63 L 914.6,28.62 C 914.1,28.24 913.6,28.05 913.1,28.05 912.6,28.05 912.3,28.17 912.1,28.41 912,28.65 911.9,29.05 911.9,29.61 L 910,29.61 C 910.1,27.29 911.1,26.13 913.1,26.13 913.8,26.13 914.5,26.33 915,26.73 L 916.4,27.74 C 917,28.14 917.4,28.34 917.9,28.34 M 921.1,44.99 918.4,44.99 915.5,37.79 912.7,44.99 910,44.99 914,34.79 917,34.79 921.1,44.99" />
			<path id="text_Esc"    d="M 39.75,91.01 39.75,93.84 45.67,93.84 45.67,95.72 37.5,95.72 37.5,84.78 45.4,84.78 45.4,86.66 39.75,86.66 39.75,89.13 44.98,89.13 44.98,91.01 39.75,91.01 M 48.82,93.36 C 48.89,93.7 49.03,93.96 49.24,94.14 49.46,94.32 49.87,94.41 50.47,94.41 50.96,94.41 51.34,94.34 51.61,94.2 51.89,94.06 52.03,93.87 52.03,93.62 52.03,93.46 51.98,93.33 51.87,93.23 51.77,93.13 51.59,93.04 51.33,92.96 L 48.82,92.18 C 48.7,92.17 48.54,92.12 48.34,92.03 48.15,91.94 47.96,91.84 47.76,91.73 47.57,91.61 47.4,91.41 47.26,91.14 47.12,90.87 47.05,90.55 47.05,90.18 47.05,89.35 47.35,88.7 47.94,88.22 48.54,87.73 49.35,87.48 50.38,87.48 51.47,87.48 52.33,87.73 52.95,88.22 53.57,88.7 53.89,89.37 53.91,90.23 L 51.88,90.23 C 51.87,89.5 51.37,89.13 50.37,89.13 50,89.13 49.7,89.2 49.48,89.34 49.26,89.47 49.15,89.65 49.15,89.88 49.15,90.04 49.2,90.17 49.3,90.26 49.4,90.34 49.6,90.42 49.89,90.51 L 52.54,91.28 C 53.6,91.59 54.13,92.27 54.13,93.32 54.13,93.63 54.08,93.93 53.97,94.23 53.86,94.52 53.68,94.81 53.43,95.1 53.19,95.39 52.82,95.62 52.33,95.79 51.84,95.97 51.26,96.06 50.59,96.06 48.1,96.06 46.83,95.16 46.77,93.36 L 48.82,93.36 M 59,89.18 C 57.86,89.18 57.29,90.06 57.29,91.83 57.29,92.62 57.44,93.24 57.74,93.69 58.05,94.14 58.47,94.37 59,94.37 59.41,94.37 59.73,94.26 59.96,94.04 60.19,93.81 60.37,93.43 60.5,92.91 L 62.51,92.91 C 62.41,93.88 62.04,94.65 61.4,95.22 60.77,95.78 59.97,96.06 58.99,96.06 57.79,96.06 56.85,95.69 56.18,94.95 55.52,94.21 55.19,93.17 55.19,91.83 55.19,90.45 55.53,89.38 56.2,88.62 56.87,87.86 57.81,87.48 59.02,87.48 60.03,87.48 60.84,87.76 61.46,88.32 62.09,88.88 62.44,89.66 62.51,90.65 L 60.5,90.65 C 60.38,90.12 60.21,89.74 59.98,89.52 59.76,89.29 59.43,89.18 59,89.18" />
			<path id="text_Q"      d="M 107.1,80.56 105.2,78.78 107.2,76.76 109.1,78.59 C 109.3,78.12 109.5,77.59 109.6,76.99 109.8,76.38 109.8,75.73 109.8,75.02 109.8,73.12 109.4,71.65 108.6,70.6 107.7,69.54 106.5,69.02 105,69.02 103.5,69.02 102.3,69.54 101.4,70.59 100.6,71.63 100.2,73.11 100.2,75.02 100.2,76.92 100.6,78.39 101.4,79.45 102.3,80.49 103.5,81.02 105,81.02 105.4,81.02 105.7,80.98 106.1,80.9 106.4,80.82 106.8,80.71 107.1,80.56 M 109.6,82.92 C 109,83.31 108.3,83.6 107.5,83.81 106.7,84.01 105.9,84.11 105,84.11 102.4,84.11 100.3,83.29 98.82,81.65 97.31,80.01 96.55,77.8 96.55,75.02 96.55,72.23 97.31,70.02 98.82,68.38 100.3,66.74 102.4,65.92 105,65.92 107.6,65.92 109.6,66.74 111.1,68.38 112.7,70.03 113.4,72.24 113.4,75.02 113.4,76.24 113.3,77.35 113,78.37 112.6,79.38 112.2,80.26 111.6,81.02 L 113.4,82.81 111.5,84.83 109.6,82.92" />
			<path id="text_W"      d="M 158.9,83.63 154,66.37 157.7,66.37 160.6,78.54 163.1,66.37 166.9,66.37 169.4,78.54 172.4,66.37 176,66.37 171.1,83.63 167.7,83.63 165,70.41 162.3,83.63 158.9,83.63" />
			<path id="text_E"      d="M 218.5,83.63 218.5,66.37 231.1,66.37 231.1,69.37 222,69.37 222,73.05 230.3,73.05 230.3,76 222,76 222,80.44 231.5,80.44 231.5,83.63 218.5,83.63" />
			<path id="text_R"      d="M 281.4,73.92 285.6,73.92 C 286.5,73.92 287.2,73.73 287.6,73.37 288,73 288.2,72.42 288.2,71.63 288.2,70.88 288,70.31 287.6,69.93 287.2,69.54 286.6,69.35 285.8,69.35 L 281.4,69.35 281.4,73.92 M 277.9,83.63 277.9,66.37 286.3,66.37 C 288.1,66.37 289.5,66.77 290.4,67.58 291.3,68.38 291.8,69.61 291.8,71.27 291.8,72.32 291.6,73.2 291.1,73.9 290.7,74.61 290.1,75.09 289.2,75.35 290,75.61 290.5,76.02 290.8,76.56 291.1,77.11 291.3,77.96 291.4,79.12 L 291.4,81.16 C 291.4,81.17 291.4,81.2 291.4,81.23 291.5,82.26 291.7,82.88 292.1,83.1 L 292.1,83.63 288.2,83.63 C 288.1,83.39 288,83.09 287.9,82.74 287.9,82.38 287.8,81.96 287.8,81.46 L 287.8,79.65 C 287.7,78.58 287.5,77.85 287.2,77.48 286.8,77.1 286.1,76.92 285.2,76.92 L 281.4,76.92 281.4,83.63 277.9,83.63" />
			<path id="text_T"      d="M 343.2,83.63 343.2,69.45 338.1,69.45 338.1,66.37 351.9,66.37 351.9,69.45 346.8,69.45 346.8,83.63 343.2,83.63" />
			<path id="text_Y"      d="M 407.1,83.63 403.5,83.63 403.5,77.2 397.2,66.37 401.6,66.37 405.3,73.81 408.7,66.37 412.8,66.37 407.1,77.2 407.1,83.63" />
			<path id="text_U"      d="M 458.1,66.11 461.7,66.11 461.7,76.93 C 461.7,78.27 461.9,79.25 462.5,79.86 463,80.47 463.8,80.78 465,80.78 466.2,80.78 467,80.47 467.6,79.86 468.1,79.25 468.4,78.28 468.4,76.93 L 468.4,66.11 471.9,66.11 471.9,77.32 C 471.9,79.44 471.3,81.06 470.1,82.2 469,83.33 467.2,83.89 465,83.89 462.8,83.89 461.1,83.33 459.9,82.21 458.7,81.07 458.1,79.45 458.1,77.32 L 458.1,66.11" />
			<path id="text_I"      d="M 523.2,83.63 523.2,66.37 526.8,66.37 526.8,83.63 523.2,83.63" />
			<path id="text_O"      d="M 580.2,75 C 580.2,76.9 580.6,78.38 581.4,79.43 582.3,80.48 583.5,81 585,81 586.5,81 587.7,80.48 588.6,79.43 589.4,78.38 589.8,76.9 589.8,75 589.8,73.1 589.4,71.63 588.6,70.58 587.7,69.53 586.5,69 585,69 583.5,69 582.3,69.52 581.4,70.57 580.6,71.62 580.2,73.09 580.2,75 M 576.6,75 C 576.6,72.21 577.3,70 578.8,68.37 580.4,66.73 582.4,65.91 585,65.91 587.6,65.91 589.6,66.73 591.1,68.37 592.7,70.01 593.4,72.22 593.4,75 593.4,77.78 592.7,79.99 591.1,81.63 589.6,83.27 587.6,84.09 585,84.09 582.4,84.09 580.4,83.27 578.8,81.63 577.3,79.99 576.6,77.78 576.6,75" />
			<path id="text_P"      d="M 642,74.36 645.4,74.36 C 646.3,74.36 647,74.17 647.4,73.78 647.9,73.38 648.1,72.74 648.1,71.87 648.1,71.04 647.9,70.42 647.4,70 647,69.58 646.4,69.37 645.6,69.37 L 642,69.37 642,74.36 M 642,77.49 642,83.63 638.4,83.63 638.4,66.37 646.1,66.37 C 647.9,66.37 649.3,66.84 650.2,67.79 651.1,68.72 651.6,70.1 651.6,71.92 651.6,73.71 651.1,75.08 650.2,76.05 649.3,77.01 648,77.49 646.3,77.49 L 642,77.49" />
			<path id="text_Lf"     d="M 699.8,77.7 699.8,86.76 705.1,86.76 705.1,88.64 697.6,88.64 697.6,77.7 699.8,77.7 M 708.7,77.7 708.7,79.58 706.6,79.58 706.6,77.7 708.7,77.7 M 708.7,80.54 708.7,88.64 706.6,88.64 706.6,80.54 708.7,80.54 M 710.7,80.54 712.8,80.54 712.8,81.71 C 713.3,80.84 714.2,80.4 715.2,80.4 716.1,80.4 716.7,80.65 717.2,81.14 717.7,81.63 717.9,82.32 717.9,83.21 L 717.9,88.64 715.8,88.64 715.8,83.64 C 715.8,82.67 715.4,82.19 714.5,82.19 714,82.19 713.5,82.33 713.2,82.62 712.9,82.91 712.8,83.3 712.8,83.78 L 712.8,88.64 710.7,88.64 710.7,80.54 M 723.8,80.4 C 724.2,80.4 724.5,80.44 724.8,80.52 725.2,80.6 725.5,80.75 725.8,80.96 726.2,81.17 726.5,81.44 726.7,81.77 727,82.09 727.2,82.52 727.4,83.06 727.5,83.59 727.6,84.2 727.6,84.89 727.6,85.01 727.6,85.13 727.6,85.25 L 722.2,85.25 C 722.2,85.56 722.2,85.83 722.2,86.06 722.3,86.28 722.4,86.5 722.5,86.72 722.6,86.93 722.8,87.09 723,87.21 723.2,87.32 723.5,87.38 723.8,87.38 724.6,87.38 725.2,87.04 725.4,86.36 L 727.5,86.36 C 727.3,87.16 726.8,87.8 726.1,88.28 725.5,88.75 724.7,88.98 723.8,88.98 722.6,88.98 721.7,88.61 721,87.87 720.4,87.12 720.1,86.1 720.1,84.8 720.1,83.44 720.4,82.37 721.1,81.59 721.7,80.8 722.6,80.4 723.8,80.4 M 725.4,83.85 C 725.4,83.26 725.2,82.81 724.9,82.49 724.6,82.17 724.3,82.01 723.8,82.01 722.9,82.01 722.3,82.62 722.2,83.85 L 725.4,83.85 M 699.7,98.93 699.7,103.6 697.5,103.6 697.5,92.7 705.2,92.7 705.2,94.58 699.7,94.58 699.7,97.05 704.5,97.05 704.5,98.93 699.7,98.93 M 709.5,95.4 C 709.9,95.4 710.2,95.44 710.6,95.52 710.9,95.6 711.2,95.75 711.6,95.96 711.9,96.17 712.2,96.44 712.5,96.77 712.7,97.09 712.9,97.52 713.1,98.06 713.3,98.59 713.3,99.2 713.3,99.89 713.3,100 713.3,100.1 713.3,100.2 L 707.9,100.2 C 707.9,100.6 707.9,100.8 708,101.1 708,101.3 708.1,101.5 708.2,101.7 708.3,101.9 708.5,102.1 708.7,102.2 708.9,102.3 709.2,102.4 709.6,102.4 710.4,102.4 710.9,102 711.2,101.4 L 713.2,101.4 C 713,102.2 712.6,102.8 711.9,103.3 711.2,103.7 710.4,104 709.5,104 708.3,104 707.4,103.6 706.8,102.9 706.1,102.1 705.8,101.1 705.8,99.8 705.8,98.44 706.1,97.37 706.8,96.59 707.5,95.8 708.4,95.4 709.5,95.4 M 711.1,98.85 C 711.1,98.26 710.9,97.81 710.6,97.49 710.4,97.17 710,97.01 709.5,97.01 708.6,97.01 708.1,97.62 707.9,98.85 L 711.1,98.85 M 717.9,95.4 C 718.2,95.4 718.6,95.44 718.9,95.52 719.2,95.6 719.6,95.75 719.9,95.96 720.3,96.17 720.6,96.44 720.8,96.77 721.1,97.09 721.3,97.52 721.4,98.06 721.6,98.59 721.7,99.2 721.7,99.89 721.7,100 721.7,100.1 721.7,100.2 L 716.2,100.2 C 716.2,100.6 716.3,100.8 716.3,101.1 716.4,101.3 716.4,101.5 716.5,101.7 716.7,101.9 716.8,102.1 717.1,102.2 717.3,102.3 717.6,102.4 717.9,102.4 718.7,102.4 719.2,102 719.5,101.4 L 721.6,101.4 C 721.4,102.2 720.9,102.8 720.2,103.3 719.5,103.7 718.7,104 717.8,104 716.7,104 715.8,103.6 715.1,102.9 714.5,102.1 714.1,101.1 714.1,99.8 714.1,98.44 714.5,97.37 715.1,96.59 715.8,95.8 716.7,95.4 717.9,95.4 M 719.5,98.85 C 719.4,98.26 719.3,97.81 719,97.49 718.7,97.17 718.3,97.01 717.9,97.01 716.9,97.01 716.4,97.62 716.3,98.85 L 719.5,98.85 M 726,104 C 725,104 724.2,103.6 723.5,102.8 722.9,101.9 722.6,100.9 722.6,99.71 722.6,98.49 722.9,97.47 723.6,96.65 724.2,95.82 725,95.4 726,95.4 727,95.4 727.7,95.8 728.2,96.59 L 728.2,92.7 730.3,92.7 730.3,103.6 728.2,103.6 728.2,102.8 C 727.7,103.6 727,104 726,104 M 726.5,97.16 C 725.9,97.16 725.5,97.4 725.2,97.88 724.9,98.35 724.7,98.96 724.7,99.71 724.7,100.4 724.9,101.1 725.2,101.5 725.5,102 725.9,102.2 726.5,102.2 727,102.2 727.4,102 727.7,101.5 728.1,101.1 728.2,100.5 728.2,99.74 728.2,98.97 728.1,98.35 727.7,97.88 727.4,97.4 727,97.16 726.5,97.16" />
			<g id="Enter">
				<path id="text_Enter" d="M 757.5,80.61 757.5,69.1 765.9,69.1 765.9,71.1 759.8,71.1 759.8,73.55 765.3,73.55 765.3,75.52 759.8,75.52 759.8,78.48 766.1,78.48 766.1,80.61 757.5,80.61 M 767.7,80.61 767.7,72.12 770,72.12 770,73.12 C 770.3,72.71 770.7,72.41 771.1,72.2 771.5,71.99 772,71.89 772.5,71.89 773.5,71.89 774.2,72.14 774.6,72.62 775.1,73.11 775.3,73.84 775.3,74.82 L 775.3,80.61 773.1,80.61 773.1,75.48 C 773.1,74.87 773,74.43 772.8,74.17 772.6,73.91 772.2,73.78 771.8,73.78 771.2,73.78 770.8,73.94 770.5,74.27 770.2,74.58 770,75.02 770,75.57 L 770,80.61 767.7,80.61 M 781.1,80.67 C 780.9,80.68 780.6,80.68 780.3,80.7 780,80.71 779.9,80.72 779.8,80.72 778.9,80.72 778.3,80.56 778,80.23 777.7,79.91 777.5,79.26 777.5,78.3 L 777.5,73.71 776.4,73.71 776.4,72.12 777.5,72.12 777.5,69.8 779.8,69.8 779.8,72.12 781.1,72.12 781.1,73.71 779.8,73.71 779.8,78.41 C 779.8,78.64 779.8,78.79 779.9,78.86 780,78.93 780.2,78.96 780.5,78.96 L 781.1,78.96 781.1,80.67 M 787.6,78.03 789.9,78.03 C 789.7,78.93 789.2,79.63 788.5,80.14 787.8,80.65 787,80.9 786,80.9 784.7,80.9 783.8,80.49 783,79.66 782.3,78.84 782,77.72 782,76.3 782,74.91 782.3,73.82 783,73.02 783.7,72.21 784.7,71.81 785.9,71.81 787.2,71.81 788.2,72.21 789,73 789.7,73.79 790,74.91 790,76.37 790,76.53 790,76.65 790,76.73 790,76.81 790,76.89 790,76.96 L 784.3,76.96 C 784.4,77.63 784.5,78.13 784.8,78.47 785.1,78.81 785.5,78.98 786.1,78.98 786.5,78.98 786.8,78.9 787,78.75 787.3,78.59 787.5,78.35 787.6,78.03 M 784.3,75.47 787.7,75.47 C 787.6,74.9 787.5,74.46 787.2,74.16 786.9,73.86 786.5,73.71 786,73.71 785.5,73.71 785.1,73.86 784.8,74.16 784.5,74.47 784.4,74.9 784.3,75.47 M 791.5,80.61 791.5,72.12 793.6,72.12 793.6,73.57 C 793.9,72.99 794.3,72.56 794.7,72.29 795.1,72.01 795.5,71.88 796.1,71.87 796.2,71.88 796.2,71.88 796.3,71.88 796.3,71.88 796.4,71.89 796.4,71.89 L 796.4,74.2 795.7,74.2 C 795,74.2 794.6,74.36 794.3,74.68 794,75 793.8,75.48 793.8,76.12 L 793.8,80.61 791.5,80.61" />
				<path id="EnterArr1"  d="M 772.5,112.5 772.5,97.5 757.5,105 772.5,112.5 z" />
				<path id="EnterArr2"  d="M 795,90 795,105 765,105" style="fill:none;stroke:#000000;stroke-width:3;stroke-linecap:butt;stroke-linejoin:miter;stroke-miterlimit:4;" />
			</g>
			<path id="textHereIs" d="M 884,75.54 879.7,75.54 879.7,80.51 877.4,80.51 877.4,69.57 879.7,69.57 879.7,73.67 884,73.67 884,69.57 886.3,69.57 886.3,80.51 884,80.51 884,75.54 M 892.4,72.27 C 892.7,72.27 893.1,72.31 893.4,72.39 893.7,72.47 894.1,72.62 894.4,72.83 894.7,73.04 895,73.31 895.3,73.64 895.6,73.96 895.8,74.39 895.9,74.93 896.1,75.46 896.2,76.07 896.2,76.76 896.2,76.88 896.2,77 896.2,77.12 L 890.7,77.12 C 890.7,77.43 890.8,77.7 890.8,77.93 890.8,78.15 890.9,78.37 891,78.59 891.2,78.8 891.3,78.96 891.5,79.08 891.8,79.19 892.1,79.25 892.4,79.25 893.2,79.25 893.7,78.91 894,78.23 L 896.1,78.23 C 895.8,79.03 895.4,79.67 894.7,80.15 894,80.62 893.2,80.85 892.3,80.85 891.2,80.85 890.3,80.48 889.6,79.74 889,78.99 888.6,77.97 888.6,76.67 888.6,75.31 889,74.24 889.6,73.46 890.3,72.67 891.2,72.27 892.4,72.27 M 894,75.72 C 893.9,75.13 893.8,74.68 893.5,74.36 893.2,74.04 892.8,73.88 892.3,73.88 891.4,73.88 890.9,74.49 890.8,75.72 L 894,75.72 M 898.5,72.41 900.6,72.41 900.6,74 C 900.8,73.45 901.1,73.02 901.5,72.72 901.9,72.42 902.4,72.27 902.9,72.27 903,72.27 903,72.28 903.1,72.29 L 903.1,74.42 C 902.9,74.38 902.7,74.36 902.5,74.36 901.2,74.36 900.6,74.97 900.6,76.2 L 900.6,80.51 898.5,80.51 898.5,72.41 M 907.5,72.27 C 907.9,72.27 908.2,72.31 908.6,72.39 908.9,72.47 909.2,72.62 909.6,72.83 909.9,73.04 910.2,73.31 910.5,73.64 910.7,73.96 910.9,74.39 911.1,74.93 911.3,75.46 911.3,76.07 911.3,76.76 911.3,76.88 911.3,77 911.3,77.12 L 905.9,77.12 C 905.9,77.43 905.9,77.7 906,77.93 906,78.15 906.1,78.37 906.2,78.59 906.3,78.8 906.5,78.96 906.7,79.08 906.9,79.19 907.2,79.25 907.6,79.25 908.4,79.25 908.9,78.91 909.2,78.23 L 911.2,78.23 C 911,79.03 910.6,79.67 909.9,80.15 909.2,80.62 908.4,80.85 907.5,80.85 906.3,80.85 905.4,80.48 904.8,79.74 904.1,78.99 903.8,77.97 903.8,76.67 903.8,75.31 904.1,74.24 904.8,73.46 905.5,72.67 906.4,72.27 907.5,72.27 M 909.1,75.72 C 909.1,75.13 908.9,74.68 908.7,74.36 908.4,74.04 908,73.88 907.5,73.88 906.6,73.88 906.1,74.49 905.9,75.72 L 909.1,75.72 M 879.5,84.57 879.5,86.45 877.4,86.45 877.4,84.57 879.5,84.57 M 879.5,87.41 879.5,95.51 877.4,95.51 877.4,87.41 879.5,87.41 M 883.9,93.15 C 884,93.49 884.1,93.75 884.3,93.93 884.6,94.11 885,94.2 885.6,94.2 886.1,94.2 886.4,94.13 886.7,93.99 887,93.85 887.1,93.66 887.1,93.41 887.1,93.25 887.1,93.12 887,93.02 886.9,92.92 886.7,92.83 886.4,92.75 L 883.9,91.97 C 883.8,91.96 883.6,91.91 883.4,91.82 883.3,91.73 883.1,91.63 882.9,91.52 882.7,91.4 882.5,91.2 882.4,90.93 882.2,90.66 882.2,90.34 882.2,89.97 882.2,89.14 882.4,88.49 883,88.01 883.6,87.52 884.5,87.27 885.5,87.27 886.6,87.27 887.4,87.52 888,88.01 888.7,88.49 889,89.16 889,90.02 L 887,90.02 C 887,89.29 886.5,88.92 885.5,88.92 885.1,88.92 884.8,88.99 884.6,89.13 884.4,89.26 884.3,89.44 884.3,89.67 884.3,89.83 884.3,89.96 884.4,90.05 884.5,90.13 884.7,90.21 885,90.3 L 887.6,91.07 C 888.7,91.38 889.2,92.06 889.2,93.11 889.2,93.42 889.2,93.72 889.1,94.02 889,94.31 888.8,94.6 888.5,94.89 888.3,95.18 887.9,95.41 887.4,95.58 886.9,95.76 886.4,95.85 885.7,95.85 883.2,95.85 881.9,94.95 881.9,93.15 L 883.9,93.15" />
			<path id="text_Ctrl"  d="M 63,151.8 C 62.91,153.1 62.41,154.1 61.48,154.9 60.57,155.7 59.37,156.1 57.89,156.1 56.19,156.1 54.86,155.5 53.91,154.5 52.97,153.4 52.5,151.9 52.5,150 52.5,148 52.98,146.5 53.95,145.5 54.91,144.5 56.29,143.9 58.1,143.9 59.57,143.9 60.73,144.3 61.58,145 62.43,145.7 62.9,146.7 62.98,148 L 60.65,148 C 60.55,147.4 60.28,146.9 59.85,146.6 59.42,146.2 58.84,146 58.1,146 57.06,146 56.27,146.4 55.73,147.1 55.18,147.7 54.91,148.7 54.91,150 54.91,151.2 55.18,152.2 55.72,152.9 56.26,153.6 57.03,153.9 58.02,153.9 58.74,153.9 59.33,153.7 59.79,153.4 60.25,153 60.54,152.5 60.68,151.8 L 63,151.8 M 68.47,155.8 C 68.26,155.8 68.01,155.8 67.72,155.8 67.43,155.8 67.25,155.9 67.17,155.9 66.3,155.9 65.71,155.7 65.38,155.4 65.07,155 64.91,154.4 64.91,153.4 L 64.91,148.8 63.78,148.8 63.78,147.2 64.91,147.2 64.91,144.9 67.16,144.9 67.16,147.2 68.47,147.2 68.47,148.8 67.16,148.8 67.16,153.5 C 67.16,153.8 67.21,153.9 67.3,154 67.4,154.1 67.61,154.1 67.91,154.1 L 68.47,154.1 68.47,155.8 M 69.79,155.7 69.79,147.2 71.9,147.2 71.9,148.7 C 72.2,148.1 72.54,147.7 72.94,147.4 73.33,147.1 73.8,147 74.35,147 74.44,147 74.51,147 74.55,147 74.61,147 74.65,147 74.68,147 L 74.69,149.3 73.93,149.3 C 73.31,149.3 72.84,149.5 72.53,149.8 72.22,150.1 72.06,150.6 72.06,151.2 L 72.06,155.7 69.79,155.7 M 76.02,155.7 76.02,144.2 78.3,144.2 78.3,155.7 76.02,155.7" />
			<path id="text_A"     d="M 120,129.8 117.6,137.2 122.4,137.2 120,129.8 M 117.9,126.4 122,126.4 128.2,143.6 124.5,143.6 123.3,140.1 116.6,140.1 115.5,143.6 111.8,143.6 117.9,126.4" />
			<path id="text_S"     d="M 173,138.3 176.5,138.3 C 176.6,139.2 177,139.9 177.6,140.4 178.3,140.9 179.2,141.1 180.4,141.1 181.5,141.1 182.2,140.9 182.8,140.5 183.3,140.2 183.5,139.6 183.5,138.9 183.5,137.9 182,137 179,136.3 179,136.3 179,136.3 178.9,136.3 178.8,136.3 178.7,136.2 178.6,136.2 176.9,135.8 175.8,135.4 175.1,135 174.5,134.6 174,134.1 173.7,133.4 173.4,132.8 173.2,132 173.2,131.1 173.2,129.4 173.8,128.1 174.9,127.2 176.1,126.3 177.7,125.9 179.9,125.9 181.9,125.9 183.5,126.4 184.6,127.3 185.8,128.3 186.4,129.6 186.4,131.4 L 183,131.4 C 182.9,130.5 182.6,129.9 182.1,129.4 181.5,129 180.6,128.8 179.6,128.8 178.6,128.8 177.9,129 177.4,129.3 176.9,129.7 176.7,130.2 176.7,130.9 176.7,131.8 177.7,132.5 179.6,132.9 180.1,133.1 180.6,133.2 180.9,133.2 182.1,133.6 183,133.8 183.5,134 184.1,134.2 184.5,134.4 184.9,134.6 185.6,135 186.1,135.5 186.5,136.1 186.8,136.8 187,137.5 187,138.4 187,140.2 186.4,141.6 185.2,142.6 184,143.6 182.3,144.1 180.1,144.1 177.9,144.1 176.2,143.6 175,142.6 173.7,141.6 173.1,140.2 173,138.3" />
			<path id="text_D"     d="M 236.2,140.5 239,140.5 C 240.7,140.5 241.8,140.1 242.6,139.2 243.3,138.4 243.7,137 243.7,135 243.7,133.1 243.4,131.7 242.7,130.8 242,129.9 240.9,129.4 239.4,129.4 L 236.2,129.4 236.2,140.5 M 232.7,143.6 232.7,126.4 239.4,126.4 C 242.1,126.4 244.1,127.1 245.4,128.5 246.7,129.9 247.3,132.1 247.3,135 247.3,136.6 247.1,138 246.6,139.2 246.1,140.4 245.4,141.4 244.5,142.1 243.8,142.6 243,143 242.2,143.3 241.3,143.5 240.1,143.6 238.5,143.6 L 232.7,143.6" />
			<path id="text_F"     d="M 294,143.6 294,126.4 306,126.4 306,129.4 297.5,129.4 297.5,133.3 305,133.3 305,136.3 297.5,136.3 297.5,143.6 294,143.6" />
			<path id="text_G"     d="M 365.2,141.6 C 364.5,142.4 363.8,143.1 363,143.5 362.2,143.9 361.2,144.1 360.1,144.1 357.7,144.1 355.7,143.3 354.2,141.6 352.8,139.9 352,137.7 352,135 352,132.2 352.8,130 354.2,128.4 355.7,126.7 357.7,125.9 360.2,125.9 362.4,125.9 364.1,126.4 365.5,127.5 366.9,128.5 367.7,129.9 367.9,131.7 L 364.3,131.7 C 364.1,130.8 363.7,130.1 363,129.7 362.3,129.2 361.4,129 360.3,129 358.9,129 357.8,129.5 356.9,130.6 356.1,131.6 355.7,133.1 355.7,135 355.7,136.8 356.1,138.3 357,139.4 357.8,140.4 359,141 360.5,141 361.7,141 362.6,140.6 363.4,140 364.1,139.3 364.6,138.4 364.8,137.2 L 360.8,137.2 360.8,134.3 368,134.3 368,143.6 365.6,143.6 365.2,141.6" />
			<g id="H_ArrowLeft">
				<path id="text_H" d="M 412.9,143.6 412.9,126.4 416.4,126.4 416.4,132.8 423.6,132.8 423.6,126.4 427.1,126.4 427.1,143.6 423.6,143.6 423.6,136 416.4,136 416.4,143.6 412.9,143.6" />
				<path id="ArrL1"  d="M 436,163 421,163" style="fill:none;stroke:#000000;stroke-width:2;stroke-linecap:butt;" />
				<path id="ArrL2"  d="M 422.5,168 422.5,158 412.5,163 z" />
			</g>
			<g id="J_ArrowDown">
				<path id="text_J" d="M 474.5,137 477.9,137 477.9,139 C 477.9,139.6 478.1,140.1 478.5,140.4 478.8,140.7 479.3,140.9 480,140.9 480.7,140.9 481.2,140.7 481.5,140.3 481.8,139.9 482,139.2 482,138.2 L 482,126.1 485.5,126.1 485.5,138.3 C 485.5,139.4 485.5,140.2 485.3,140.7 485.2,141.3 485,141.7 484.7,142.1 484.2,142.7 483.6,143.1 482.8,143.4 482,143.7 481.1,143.9 480,143.9 479.1,143.9 478.2,143.7 477.5,143.5 476.7,143.2 476.1,142.8 475.6,142.3 475.2,141.9 474.9,141.4 474.7,140.9 474.6,140.4 474.5,139.5 474.5,138.3 L 474.5,137" />
				<path id="ArrD1"  d="M 485,164.4 475,164.4 480,174.4 485,164.4 z" />
				<path id="ArrD2"  d="M 480,150.9 480,165.8" style="fill:none;stroke:#000000;stroke-width:2;stroke-linecap:butt;" />
			</g>
			<g id="K_ArrowUp">
				<path id="text_K" d="M 532.3,143.6 532.3,126.4 535.9,126.4 535.9,133.5 542.6,126.4 547.1,126.4 540.2,133.4 547.7,143.6 543.3,143.6 537.7,135.7 535.9,137.6 535.9,143.6 532.3,143.6" />
				<path id="ArrU1"  d="M 535,160.9 545,160.9 540,150.9 z" />
				<path id="ArrU2"  d="M 540,174.4 540,159.5" style="fill:none;stroke:#000000;stroke-width:2;stroke-linecap:butt;" />
			</g>
			<g id="L_ArrowRight">
				<path id="text_L" d="M 594,143.6 594,126.4 597.6,126.4 597.6,140.4 606,140.4 606,143.6 594,143.6" />
				<path id="ArrR1"  d="M 606.9,168 606.9,158 616.9,163 z" />
				<path id="ArrR2"  d="M 593.4,163 608.3,163" style="fill:none;stroke:#000000;stroke-width:2;stroke-linecap:butt;" />
			</g>
			<path id="text_plus"   d="M 658.3,129.3 660.7,129.3 660.7,135.3 666.5,135.3 666.5,137.6 660.7,137.6 660.7,143.6 658.3,143.6 658.3,137.6 652.5,137.6 652.5,135.3 658.3,135.3 658.3,129.3 M 658.2,164.7 658.2,161.1 661.8,161.1 661.8,164.7 658.2,164.7 M 658.2,177.7 658.2,176.3 C 658.9,176.1 659.4,175.8 659.7,175.4 660,175.1 660.2,174.5 660.2,173.9 L 660.2,173.6 658.2,173.6 658.2,170.1 661.8,170.1 661.8,173.5 C 661.8,174.7 661.5,175.6 660.9,176.3 660.3,177 659.4,177.5 658.2,177.7" />
			<path id="textAt"      d="M 716.8,126.1 719.8,126.1 721.5,129.7 719.8,129.7 716.8,126.1 M 724.3,165.4 C 723.9,166.1 723.4,166.6 722.9,166.9 722.3,167.2 721.6,167.3 720.9,167.3 719.6,167.3 718.7,167 718,166.3 717.4,165.7 717.1,164.7 717.1,163.3 717.1,161.5 717.6,159.9 718.7,158.6 719.8,157.4 721.1,156.7 722.7,156.7 723.4,156.7 723.9,156.9 724.4,157.1 724.8,157.4 725.2,157.8 725.5,158.3 L 726.1,157.1 728.2,157.1 726.5,164.1 C 726.5,164.2 726.5,164.3 726.4,164.4 726.4,164.5 726.4,164.6 726.4,164.6 726.4,164.9 726.5,165.1 726.7,165.2 726.9,165.4 727.2,165.4 727.5,165.4 727.8,165.4 728.1,165.4 728.5,165.2 728.8,165.1 729.1,164.8 729.4,164.6 730.1,163.9 730.6,163.2 730.9,162.4 731.3,161.5 731.5,160.6 731.5,159.6 731.5,157.7 730.7,156.2 729.3,155 727.8,153.8 726,153.2 723.7,153.2 722.6,153.2 721.6,153.3 720.6,153.6 719.7,153.8 718.8,154.2 718,154.8 716.7,155.6 715.7,156.8 715,158.1 714.2,159.4 713.9,160.9 713.9,162.5 713.9,164.9 714.7,166.8 716.3,168.2 717.9,169.7 720.1,170.4 722.8,170.4 724.1,170.4 725.3,170.2 726.5,169.8 727.7,169.4 728.8,168.9 729.9,168.2 L 730.8,169.5 C 729.6,170.4 728.4,171.1 727,171.5 725.7,172 724.3,172.2 722.8,172.2 721.3,172.2 720,172 718.7,171.7 717.4,171.3 716.3,170.7 715.3,170 714.1,169 713.2,167.9 712.6,166.7 712,165.5 711.7,164.1 711.7,162.5 711.7,161.2 711.9,160 712.3,158.8 712.8,157.6 713.4,156.5 714.2,155.6 715.3,154.1 716.7,153.1 718.3,152.3 720,151.6 721.8,151.3 723.8,151.3 725.1,151.3 726.3,151.4 727.5,151.8 728.6,152.1 729.6,152.6 730.5,153.3 731.6,154.1 732.3,155 732.9,156.1 733.4,157.2 733.6,158.3 733.6,159.7 733.6,160.9 733.4,162.1 732.9,163.2 732.4,164.3 731.6,165.2 730.7,166 730.1,166.5 729.5,166.8 728.9,167 728.2,167.3 727.6,167.4 726.9,167.4 726,167.4 725.4,167.2 725,166.9 724.6,166.5 724.4,166.1 724.3,165.4 M 724.9,160.4 C 724.8,159.8 724.6,159.3 724.3,159 723.9,158.6 723.5,158.5 722.9,158.5 722,158.5 721.2,158.9 720.6,159.9 719.9,160.9 719.6,162 719.6,163.4 719.6,164.1 719.7,164.7 720,165 720.4,165.4 720.8,165.6 721.4,165.6 722.1,165.6 722.7,165.4 723.2,164.9 723.7,164.4 724.1,163.7 724.3,162.9 L 724.9,160.4" />
			<path id="text_Backsl" d="M 778.8,122.9 781.2,122.9 781.2,146.9 778.8,146.9 778.8,122.9 M 782.1,173.4 776.3,153.5 777.9,153.5 783.7,173.4 782.1,173.4" />
			<path id="text_Rub"    d="M 840,139.6 C 840,139.3 840,139.1 840,138.9 840,138.7 840,138.6 840,138.4 840,138 839.9,137.7 839.7,137.5 839.5,137.2 839.1,137.1 838.6,137.1 L 836,137.1 836,141.5 833.8,141.5 833.8,130.5 839.6,130.5 C 840.2,130.5 840.7,130.6 841.1,130.8 841.5,131 841.8,131.3 842,131.6 842.2,131.9 842.4,132.2 842.4,132.5 842.5,132.8 842.6,133.2 842.6,133.5 842.6,134.8 842,135.7 840.7,136.2 841,136.3 841.2,136.4 841.3,136.5 841.5,136.5 841.6,136.6 841.7,136.8 841.9,136.9 842,137.1 842,137.2 842,137.3 842.1,137.5 842.1,137.8 842.2,138.2 842.2,138.5 842.2,138.8 842.2,139.1 842.2,139.6 842.3,140.2 842.3,140.6 842.4,140.9 842.7,141.1 L 842.7,141.5 840.3,141.5 C 840.2,141.2 840.1,141 840,140.7 840,140.5 840,140.1 840,139.6 M 840.3,133.8 C 840.3,133.3 840.2,132.9 839.9,132.7 839.7,132.5 839.3,132.4 838.7,132.4 L 836,132.4 836,135.3 838.7,135.3 C 839.3,135.3 839.7,135.2 839.9,135 840.2,134.8 840.3,134.4 840.3,133.8 M 852.3,141.5 850.2,141.5 850.2,140.5 C 849.6,141.4 848.8,141.8 847.8,141.8 846.9,141.8 846.3,141.6 845.8,141.1 845.3,140.6 845.1,139.9 845.1,139 L 845.1,133.4 847.2,133.4 847.2,138.6 C 847.2,139.6 847.6,140 848.5,140 849,140 849.4,139.9 849.7,139.6 850.1,139.3 850.2,138.9 850.2,138.4 L 850.2,133.4 852.3,133.4 852.3,141.5 M 859.4,133.2 C 860.4,133.2 861.2,133.6 861.9,134.5 862.5,135.3 862.8,136.3 862.8,137.5 862.8,138.8 862.5,139.8 861.9,140.6 861.2,141.4 860.4,141.8 859.4,141.8 858.4,141.8 857.7,141.4 857.2,140.7 L 857.2,141.5 855.1,141.5 855.1,130.5 857.2,130.5 857.2,134.4 C 857.7,133.6 858.4,133.2 859.4,133.2 M 860.2,135.7 C 859.9,135.2 859.5,135 859,135 858.4,135 858,135.2 857.7,135.7 857.4,136.2 857.2,136.8 857.2,137.5 857.2,138.3 857.4,138.9 857.7,139.4 858,139.8 858.4,140.1 859,140.1 859.5,140.1 859.9,139.8 860.2,139.4 860.6,138.9 860.7,138.3 860.7,137.5 860.7,136.8 860.6,136.2 860.2,135.7 M 842.2,151.9 854.2,151.9 854.2,154.3 842.2,154.3 842.2,151.9" />
			<path id="text_Break"  d="M 902.5,138.3 C 902.5,138.7 902.4,139 902.3,139.4 902.2,139.7 902,140.1 901.7,140.4 901.5,140.7 901.1,141 900.5,141.2 900,141.4 899.4,141.5 898.6,141.5 L 893.7,141.5 893.7,130.5 898.6,130.5 C 899.3,130.5 899.9,130.6 900.4,130.8 900.9,131 901.2,131.3 901.5,131.6 901.7,131.9 901.9,132.2 902,132.5 902.1,132.8 902.2,133.1 902.2,133.4 902.2,133.9 902.1,134.3 901.8,134.6 901.6,135 901.2,135.3 900.7,135.7 901.9,136.4 902.5,137.3 902.5,138.3 M 896,132.4 896,134.9 898.4,134.9 C 899.5,134.9 900,134.5 900,133.7 900,132.8 899.5,132.4 898.4,132.4 L 896,132.4 M 896,136.8 896,139.6 898.7,139.6 C 899.8,139.6 900.3,139.1 900.3,138.2 900.3,137.2 899.8,136.8 898.7,136.8 L 896,136.8 M 905.1,133.4 907.2,133.4 907.2,135 C 907.4,134.4 907.8,134 908.2,133.7 908.6,133.4 909,133.2 909.5,133.2 909.6,133.2 909.6,133.2 909.7,133.3 L 909.7,135.4 C 909.5,135.3 909.3,135.3 909.1,135.3 907.8,135.3 907.2,135.9 907.2,137.2 L 907.2,141.5 905.1,141.5 905.1,133.4 M 914.1,133.2 C 914.5,133.2 914.8,133.3 915.2,133.4 915.5,133.4 915.8,133.6 916.2,133.8 916.5,134 916.8,134.3 917.1,134.6 917.3,134.9 917.5,135.4 917.7,135.9 917.9,136.4 917.9,137 917.9,137.7 917.9,137.8 917.9,138 917.9,138.1 L 912.5,138.1 C 912.5,138.4 912.5,138.7 912.6,138.9 912.6,139.1 912.7,139.3 912.8,139.6 912.9,139.8 913.1,139.9 913.3,140.1 913.6,140.2 913.8,140.2 914.2,140.2 915,140.2 915.5,139.9 915.8,139.2 L 917.9,139.2 C 917.6,140 917.2,140.6 916.5,141.1 915.8,141.6 915,141.8 914.1,141.8 913,141.8 912,141.5 911.4,140.7 910.7,140 910.4,138.9 910.4,137.6 910.4,136.3 910.7,135.2 911.4,134.4 912.1,133.6 913,133.2 914.1,133.2 M 915.8,136.7 C 915.7,136.1 915.5,135.6 915.3,135.3 915,135 914.6,134.8 914.1,134.8 913.2,134.8 912.7,135.5 912.5,136.7 L 915.8,136.7 M 921.3,141.8 C 920.6,141.8 920,141.6 919.5,141.2 919.1,140.7 918.8,140.1 918.8,139.4 918.8,138 919.6,137.1 921.2,136.8 L 922.1,136.7 C 922.2,136.7 922.4,136.7 922.6,136.6 922.8,136.6 923,136.5 923.2,136.5 923.3,136.4 923.5,136.3 923.6,136.2 923.7,136.1 923.7,135.9 923.7,135.7 923.7,135.2 923.3,134.9 922.5,134.9 922,134.9 921.6,135 921.4,135.2 921.2,135.3 921.1,135.6 921,136 L 919,136 C 919.1,134.2 920.3,133.2 922.5,133.2 924.7,133.2 925.8,134.1 925.8,135.7 L 925.8,140.2 C 925.8,140.6 926,140.9 926.3,141.2 L 926.3,141.5 924,141.5 C 923.8,141.3 923.8,141 923.8,140.7 923,141.4 922.2,141.8 921.3,141.8 M 923.7,138.2 923.7,137.7 C 923.6,137.7 923.3,137.8 922.9,137.9 L 922.1,138 C 921.7,138.1 921.4,138.3 921.2,138.4 921,138.6 920.9,138.8 920.9,139.2 920.9,139.5 921,139.7 921.2,139.9 921.4,140 921.7,140.1 922.1,140.1 922.6,140.1 923,140 923.3,139.6 923.6,139.3 923.7,138.8 923.7,138.2 M 929.8,136.5 932.4,133.4 934.8,133.4 932,136.4 935,141.5 932.5,141.5 930.6,137.9 929.8,138.8 929.8,141.5 927.7,141.5 927.7,130.5 929.8,130.5 929.8,136.5" />
			<g style="fill:none;stroke:#000000;stroke-width:2;stroke-linecap:butt;stroke-linejoin:miter;stroke-miterlimit:4;">
				<path id="ShiftArrowL" transform="translate(45,0)"    d="M 27.25,207.1 16,222.1 23.5,222.1 23.5,229.6 31,229.6 31,222.1 38.5,222.1 27.25,207.1 z" />
				<path id="ShiftArrowR" transform="translate(727.5,0)" d="M 27.25,207.1 16,222.1 23.5,222.1 23.5,229.6 31,229.6 31,222.1 38.5,222.1 27.25,207.1 z" />
			</g>
			<path id="text_Z"      d="M 143.2,203.6 143.2,200.6 152.5,189.5 143.3,189.5 143.3,186.4 156.8,186.4 156.8,189.4 147.4,200.5 156.6,200.5 156.6,203.6 143.2,203.6" />
			<path id="text_X"      d="M 202.4,203.6 207.8,194.8 202.4,186.4 206.5,186.4 210,192.4 213.5,186.4 217.6,186.4 212.2,194.8 217.6,203.6 213.5,203.6 210,197.7 206.5,203.6 202.4,203.6" />
			<path id="text_C"      d="M 277.9,197.7 C 277.7,199.6 277,201.2 275.6,202.4 274.2,203.5 272.4,204.1 270.2,204.1 267.7,204.1 265.7,203.3 264.2,201.7 262.8,200.1 262.1,197.9 262.1,195 262.1,192.1 262.8,189.8 264.3,188.3 265.7,186.7 267.8,185.9 270.5,185.9 272.7,185.9 274.5,186.4 275.7,187.5 277,188.6 277.7,190.1 277.9,192.1 L 274.3,192.1 C 274.2,191.1 273.8,190.4 273.2,189.8 272.5,189.3 271.6,189.1 270.5,189.1 269,189.1 267.8,189.6 267,190.6 266.2,191.6 265.7,193.1 265.7,195 265.7,196.9 266.1,198.3 267,199.3 267.8,200.4 268.9,200.9 270.4,200.9 271.5,200.9 272.4,200.6 273.1,200.1 273.7,199.5 274.2,198.7 274.4,197.7 L 277.9,197.7" />
			<path id="text_V"      d="M 328.3,203.6 322.4,186.4 326.3,186.4 330,199.3 333.7,186.4 337.6,186.4 331.7,203.6 328.3,203.6" />
			<path id="text_B"      d="M 386.3,200.5 390.5,200.5 C 391.5,200.5 392.2,200.3 392.7,200 393.1,199.6 393.4,199 393.4,198.3 393.4,197.5 393.2,196.9 392.7,196.5 392.3,196.2 391.5,196 390.5,196 L 386.3,196 386.3,200.5 M 386.3,193 390.4,193 C 391.2,193 391.9,192.9 392.3,192.6 392.7,192.3 392.9,191.8 392.9,191.2 392.9,190.5 392.7,190.1 392.3,189.8 391.9,189.5 391.3,189.4 390.4,189.4 L 386.3,189.4 386.3,193 M 382.9,203.6 382.9,186.4 391.1,186.4 C 392.8,186.4 394.2,186.7 395.1,187.5 396,188.2 396.5,189.3 396.5,190.7 396.5,191.6 396.3,192.3 396,192.9 395.6,193.5 395.1,194 394.4,194.3 395.3,194.7 396,195.2 396.4,195.8 396.9,196.5 397.1,197.4 397.1,198.4 397.1,200 396.5,201.3 395.4,202.3 394.3,203.2 392.8,203.6 390.8,203.6 L 382.9,203.6" />
			<path id="text_N"      d="M 442.9,203.6 442.9,186.4 446.6,186.4 453.6,198.2 453.6,186.4 457.1,186.4 457.1,203.6 453.4,203.6 446.4,191.8 446.4,203.6 442.9,203.6" />
			<path id="text_M"      d="M 501.3,203.6 501.3,186.4 506.6,186.4 510,199.5 513.4,186.4 518.7,186.4 518.7,203.6 515.3,203.6 515.3,189.7 511.8,203.6 508.2,203.6 504.7,189.7 504.7,203.6 501.3,203.6" />
			<path id="text_Lt"     d="M 576.9,189.6 576.9,192.2 566.4,196.5 576.9,200.7 576.9,203.3 563.1,197.6 563.1,195.3 576.9,189.6 M 568.2,237.7 568.2,236.3 C 568.9,236.1 569.4,235.8 569.7,235.4 570,235.1 570.1,234.5 570.1,233.9 L 570.1,233.6 568.2,233.6 568.2,230.1 571.8,230.1 571.8,233.5 C 571.8,234.7 571.5,235.6 570.9,236.3 570.3,237 569.4,237.5 568.2,237.7" />
			<path id="text_Gt"     d="M 623.1,189.6 636.9,195.3 636.9,197.6 623.1,203.3 623.1,200.7 633.6,196.5 623.1,192.2 623.1,189.6 M 628.2,233.6 628.2,230.1 631.7,230.1 631.7,233.6 628.2,233.6" />
			<path id="text_Slash"  d="M 688.4,198.6 C 688.4,198.5 688.4,198.4 688.4,198.3 688.4,198.1 688.4,198 688.4,197.9 688.4,197.3 688.5,196.7 688.6,196.2 688.8,195.8 689,195.3 689.4,194.9 689.6,194.7 690,194.3 690.5,193.9 691,193.5 691.3,193.3 691.4,193.1 691.8,192.7 692,192.4 692.1,192.1 692.2,191.9 692.3,191.6 692.3,191.2 692.3,190.5 692.1,189.9 691.6,189.5 691.2,189.1 690.7,188.9 689.9,188.9 689.2,188.9 688.6,189.1 688.2,189.6 687.7,190.1 687.5,190.8 687.5,191.7 L 684.2,191.7 684.2,191.3 C 684.2,189.7 684.7,188.4 685.7,187.4 686.8,186.4 688.2,185.9 689.9,185.9 691.7,185.9 693.2,186.4 694.2,187.3 695.3,188.2 695.8,189.5 695.8,191 695.8,191.6 695.8,192.1 695.7,192.5 695.5,192.9 695.4,193.3 695.1,193.7 694.8,194.1 694.3,194.6 693.6,195.2 693,195.7 692.5,196 692.4,196.1 692.1,196.4 691.9,196.7 691.8,197.1 691.6,197.4 691.6,197.8 691.6,198.2 691.6,198.2 691.6,198.3 691.6,198.4 691.6,198.5 691.6,198.6 691.6,198.6 L 688.4,198.6 M 688.3,203.6 688.3,200.2 691.7,200.2 691.7,203.6 688.3,203.6 M 686.3,235.9 692.1,215.9 693.7,215.9 687.9,235.9 686.3,235.9" />
			<path id="text_Repeat" d="M 836,199.6 C 836,199.3 836.1,199.1 836.1,198.9 836.1,198.7 836.1,198.6 836.1,198.4 836.1,198 836,197.7 835.7,197.5 835.5,197.2 835.2,197.1 834.7,197.1 L 832.1,197.1 832.1,201.5 829.9,201.5 829.9,190.5 835.7,190.5 C 836.3,190.5 836.8,190.6 837.2,190.8 837.6,191 837.9,191.3 838.1,191.6 838.3,191.9 838.4,192.2 838.5,192.5 838.6,192.8 838.7,193.2 838.7,193.5 838.7,194.8 838,195.7 836.8,196.2 837.1,196.3 837.3,196.4 837.4,196.5 837.5,196.5 837.7,196.6 837.8,196.8 837.9,196.9 838,197.1 838.1,197.2 838.1,197.3 838.2,197.5 838.2,197.8 838.3,198.2 838.3,198.5 838.3,198.8 838.3,199.1 838.3,199.6 838.3,200.2 838.3,200.6 838.5,200.9 838.8,201.1 L 838.8,201.5 836.4,201.5 C 836.3,201.2 836.2,201 836.1,200.7 836.1,200.5 836,200.1 836,199.6 M 836.4,193.8 C 836.4,193.3 836.3,192.9 836,192.7 835.8,192.5 835.4,192.4 834.8,192.4 L 832.1,192.4 832.1,195.3 834.8,195.3 C 835.3,195.3 835.7,195.2 836,195 836.3,194.8 836.4,194.4 836.4,193.8 M 843.6,193.2 C 844,193.2 844.3,193.3 844.6,193.4 845,193.4 845.3,193.6 845.6,193.8 846,194 846.3,194.3 846.5,194.6 846.8,194.9 847,195.4 847.2,195.9 847.3,196.4 847.4,197 847.4,197.7 847.4,197.8 847.4,198 847.4,198.1 L 842,198.1 C 842,198.4 842,198.7 842,198.9 842.1,199.1 842.2,199.3 842.3,199.6 842.4,199.8 842.6,199.9 842.8,200.1 843,200.2 843.3,200.2 843.6,200.2 844.4,200.2 845,199.9 845.2,199.2 L 847.3,199.2 C 847.1,200 846.6,200.6 845.9,201.1 845.3,201.6 844.5,201.8 843.6,201.8 842.4,201.8 841.5,201.5 840.8,200.7 840.2,200 839.9,198.9 839.9,197.6 839.9,196.3 840.2,195.2 840.9,194.4 841.5,193.6 842.4,193.2 843.6,193.2 M 845.2,196.7 C 845.2,196.1 845,195.6 844.7,195.3 844.4,195 844.1,194.8 843.6,194.8 842.7,194.8 842.1,195.5 842,196.7 L 845.2,196.7 M 854.1,193.2 C 855.1,193.2 855.9,193.7 856.6,194.5 857.2,195.3 857.5,196.3 857.5,197.5 857.5,198.8 857.2,199.8 856.5,200.6 855.9,201.4 855.1,201.8 854.1,201.8 853.1,201.8 852.3,201.4 851.8,200.5 L 851.8,204.7 849.7,204.7 849.7,193.4 851.8,193.4 851.8,194.6 C 852.3,193.7 853.1,193.2 854.1,193.2 M 854.9,195.7 C 854.6,195.2 854.1,195 853.6,195 853.1,195 852.7,195.2 852.3,195.7 852,196.2 851.8,196.8 851.8,197.5 851.8,198.3 852,198.9 852.3,199.4 852.7,199.9 853.1,200.1 853.6,200.1 854.1,200.1 854.6,199.8 854.9,199.4 855.2,198.9 855.4,198.3 855.4,197.6 855.4,196.8 855.2,196.2 854.9,195.7 M 862.1,193.2 C 862.5,193.2 862.8,193.3 863.1,193.4 863.5,193.4 863.8,193.6 864.2,193.8 864.5,194 864.8,194.3 865.1,194.6 865.3,194.9 865.5,195.4 865.7,195.9 865.8,196.4 865.9,197 865.9,197.7 865.9,197.8 865.9,198 865.9,198.1 L 860.5,198.1 C 860.5,198.4 860.5,198.7 860.6,198.9 860.6,199.1 860.7,199.3 860.8,199.6 860.9,199.8 861.1,199.9 861.3,200.1 861.5,200.2 861.8,200.2 862.2,200.2 863,200.2 863.5,199.9 863.8,199.2 L 865.8,199.2 C 865.6,200 865.1,200.6 864.5,201.1 863.8,201.6 863,201.8 862.1,201.8 860.9,201.8 860,201.5 859.4,200.7 858.7,200 858.4,198.9 858.4,197.6 858.4,196.3 858.7,195.2 859.4,194.4 860.1,193.6 861,193.2 862.1,193.2 M 863.7,196.7 C 863.7,196.1 863.5,195.6 863.2,195.3 863,195 862.6,194.8 862.1,194.8 861.2,194.8 860.6,195.5 860.5,196.7 L 863.7,196.7 M 869.3,201.8 C 868.5,201.8 867.9,201.6 867.5,201.2 867,200.7 866.8,200.1 866.8,199.4 866.8,198 867.6,197.1 869.2,196.8 L 870,196.7 C 870.2,196.7 870.4,196.7 870.6,196.6 870.8,196.6 871,196.5 871.1,196.5 871.3,196.4 871.4,196.3 871.6,196.2 871.7,196.1 871.7,195.9 871.7,195.7 871.7,195.2 871.3,194.9 870.5,194.9 870,194.9 869.6,195 869.4,195.2 869.2,195.3 869.1,195.6 869,196 L 867,196 C 867.1,194.2 868.3,193.2 870.5,193.2 872.7,193.2 873.8,194.1 873.8,195.7 L 873.8,200.2 C 873.8,200.6 873.9,200.9 874.3,201.2 L 874.3,201.5 872,201.5 C 871.8,201.3 871.7,201 871.7,200.7 871,201.4 870.2,201.8 869.3,201.8 M 871.7,198.2 871.7,197.7 C 871.5,197.7 871.2,197.8 870.8,197.9 L 870.1,198 C 869.7,198.1 869.4,198.3 869.2,198.4 869,198.6 868.9,198.8 868.9,199.2 868.9,199.5 869,199.7 869.2,199.9 869.4,200 869.7,200.1 870.1,200.1 870.6,200.1 871,200 871.3,199.6 871.6,199.3 871.7,198.8 871.7,198.2 M 880.3,193.5 880.3,194.9 879.1,194.9 879.1,199.3 C 879.1,199.7 879.1,199.9 879.2,200.1 879.3,200.2 879.5,200.2 879.8,200.2 879.9,200.2 880.1,200.2 880.3,200.2 L 880.3,201.7 C 879.9,201.8 879.5,201.8 879.1,201.8 877.7,201.8 877,201.2 877,199.9 L 877,194.9 876,194.9 876,193.5 877,193.5 877,191.4 879.1,191.4 879.1,193.5 880.3,193.5" />
			<path id="text_Clear"  d="M 900.9,194.2 C 900.7,192.9 899.9,192.3 898.6,192.3 897.7,192.3 897,192.6 896.5,193.3 896,194 895.8,194.9 895.8,196.1 895.8,197.3 896,198.3 896.5,198.9 897,199.6 897.7,199.9 898.5,199.9 899.2,199.9 899.8,199.7 900.2,199.4 900.6,199 900.9,198.4 900.9,197.7 L 903.1,197.7 C 903.1,199 902.6,200 901.8,200.7 900.9,201.5 899.8,201.8 898.5,201.8 896.9,201.8 895.7,201.3 894.8,200.3 894,199.3 893.5,197.9 893.5,196.1 893.5,194.3 894,192.9 894.9,191.9 895.8,190.9 897,190.4 898.5,190.4 899.8,190.4 900.9,190.7 901.7,191.4 902.5,192.1 903,193 903.1,194.2 L 900.9,194.2 M 907.7,190.5 907.7,201.5 905.6,201.5 905.6,190.5 907.7,190.5 M 913.8,193.2 C 914.2,193.2 914.5,193.3 914.8,193.4 915.2,193.4 915.5,193.6 915.8,193.8 916.2,194 916.5,194.3 916.7,194.6 917,194.9 917.2,195.4 917.4,195.9 917.5,196.4 917.6,197 917.6,197.7 917.6,197.8 917.6,198 917.6,198.1 L 912.2,198.1 C 912.2,198.4 912.2,198.7 912.2,198.9 912.3,199.1 912.4,199.3 912.5,199.6 912.6,199.8 912.8,199.9 913,200.1 913.2,200.2 913.5,200.2 913.9,200.2 914.7,200.2 915.2,199.9 915.5,199.2 L 917.5,199.2 C 917.3,200 916.8,200.6 916.2,201.1 915.5,201.6 914.7,201.8 913.8,201.8 912.6,201.8 911.7,201.5 911.1,200.7 910.4,200 910.1,198.9 910.1,197.6 910.1,196.3 910.4,195.2 911.1,194.4 911.7,193.6 912.7,193.2 913.8,193.2 M 915.4,196.7 C 915.4,196.1 915.2,195.6 914.9,195.3 914.7,195 914.3,194.8 913.8,194.8 912.9,194.8 912.3,195.5 912.2,196.7 L 915.4,196.7 M 921,201.8 C 920.2,201.8 919.6,201.6 919.2,201.2 918.7,200.7 918.5,200.1 918.5,199.4 918.5,198 919.3,197.1 920.9,196.8 L 921.7,196.7 C 921.9,196.7 922.1,196.7 922.3,196.6 922.5,196.6 922.7,196.5 922.8,196.5 923,196.4 923.1,196.3 923.3,196.2 923.4,196.1 923.4,195.9 923.4,195.7 923.4,195.2 923,194.9 922.2,194.9 921.7,194.9 921.3,195 921.1,195.2 920.9,195.3 920.8,195.6 920.7,196 L 918.7,196 C 918.8,194.2 920,193.2 922.2,193.2 924.4,193.2 925.5,194.1 925.5,195.7 L 925.5,200.2 C 925.5,200.6 925.6,200.9 926,201.2 L 926,201.5 923.7,201.5 C 923.5,201.3 923.4,201 923.4,200.7 922.7,201.4 921.9,201.8 921,201.8 M 923.4,198.2 923.4,197.7 C 923.2,197.7 922.9,197.8 922.5,197.9 L 921.8,198 C 921.4,198.1 921.1,198.3 920.9,198.4 920.7,198.6 920.6,198.8 920.6,199.2 920.6,199.5 920.7,199.7 920.9,199.9 921.1,200 921.4,200.1 921.8,200.1 922.3,200.1 922.7,200 923,199.6 923.3,199.3 923.4,198.8 923.4,198.2 M 927.4,193.4 929.5,193.4 929.5,195 C 929.7,194.4 930,194 930.4,193.7 930.8,193.4 931.3,193.2 931.7,193.2 931.8,193.2 931.9,193.2 932,193.3 L 932,195.4 C 931.7,195.3 931.5,195.3 931.3,195.3 930.1,195.3 929.5,195.9 929.5,197.2 L 929.5,201.5 927.4,201.5 927.4,193.4" />
		</g>
	</g>
</svg>
