<svg xmlns="http://www.w3.org/2000/svg" version="1.0" viewBox="0 0 950 320"><g fill-rule="evenodd" stroke="#000" stroke-width="2"><path fill="#fff" d="M40 10h60v60H40zm60 0h60v60h-60zm60 0h60v60h-60zm60 0h60v60h-60zm60 0h60v60h-60zm60 0h60v60h-60zm60 0h60v60h-60zm60 0h60v60h-60zm60 0h60v60h-60zm60 0h60v60h-60zm60 0h60v60h-60zm60 0h60v60h-60zm60 0h60v60h-60zm60 0h60v60h-60z"/><path fill="#ddd" d="M880 10h60v60h-60zM10 70h60v60H10z"/><path fill="#fff" d="M70 70h60v60H70zm60 0h60v60h-60zm60 0h60v60h-60zm60 0h60v60h-60zm60 0h60v60h-60zm60 0h60v60h-60zm60 0h60v60h-60zm60 0h60v60h-60zm60 0h60v60h-60zm60 0h60v60h-60z"/><path fill="#ddd" d="M670 70h60v60h-60zm60 0h120v60H730zm120 0h60v60h-60zM25 130h60v60H25z"/><path fill="#fff" d="M85 130h60v60H85zm60 0h60v60h-60zm60 0h60v60h-60zm60 0h60v60h-60zm60 0h60v60h-60zm60 0h60v60h-60zm60 0h60v60h-60zm60 0h60v60h-60zm60 0h60v60h-60zm60 0h60v60h-60zm60 0h60v60h-60zm60 0h60v60h-60z"/><path fill="#ddd" d="M805 130h60v60h-60zm60 0h60v60h-60zM25 190h90v60H25z"/><path fill="#fff" d="M115 190h60v60h-60zm60 0h60v60h-60zm60 0h60v60h-60zm60 0h60v60h-60zm60 0h60v60h-60zm60 0h60v60h-60zm60 0h60v60h-60zm60 0h60v60h-60zm60 0h60v60h-60zm60 0h60v60h-60z"/><path fill="#ddd" d="M715 190h90v60h-90zm90 0h60v60h-60zm60 0h60v60h-60z"/><path fill="#fff" d="M130 250h560v60H130z"/><g stroke="none"><path d="m55.35 28.83-.91-7.77v-4.7h3.61v4.7l-.92 7.77h-1.78m-.87 4.8v-3.46h3.48v3.46h-3.48m.87 30V52.16h-4.01V49.8h.26c1.46 0 2.52-.22 3.19-.68.67-.45 1.07-1.21 1.18-2.27h2.69v16.78h-3.31m60.25-46.85h2.2v6.55h-2.2v-6.55m-3.8 0h2.2v6.55h-2.2v-6.55m-3.2 46.85c0-1.5.3-2.77.9-3.81.7-1.04 1.8-2.1 3.4-3.17.2-.17.5-.39 1-.68 2.1-1.35 3.2-2.66 3.2-3.91 0-.74-.2-1.32-.7-1.75-.4-.43-1-.65-1.8-.65-.9 0-1.5.27-2 .8-.4.52-.7 1.27-.7 2.25v.14h-3.1c0-1.92.6-3.4 1.6-4.44 1-1.04 2.5-1.56 4.4-1.56 1.7 0 3.1.47 4.1 1.42 1.1.94 1.6 2.19 1.6 3.75a5.5 5.5 0 0 1-.8 2.9c-.6.82-1.6 1.76-3.2 2.8-.3.23-.7.53-1.3.9-1.5.94-2.3 1.66-2.5 2.15h7.6v2.86h-11.7m66.7-39.94-1 2.86h2.9l1-2.86h-2.9m0-7.21h2.6l-1.7 4.86h2.8l1.7-4.86h2.6l-1.7 4.86h3.3l-.9 2.35h-3.2l-1 2.84h3.4l-.9 2.34h-3.4l-1.7 4.88h-2.6l1.7-4.88h-2.8l-1.8 4.88h-2.5l1.7-4.88h-3.4l.9-2.34h3.3l1-2.84h-3.5l.9-2.35h3.4l1.8-4.86m-5.2 42.04h3.2c0 .94.2 1.65.7 2.12.4.47 1.1.71 2 .71.8 0 1.5-.22 1.9-.66.5-.45.7-1.08.7-1.91 0-.83-.3-1.45-.8-1.88-.5-.43-1.3-.64-2.4-.64l-.2.01-.3.01v-2.32h.4c.9 0 1.7-.18 2.1-.56.5-.38.7-.96.7-1.75a2 2 0 0 0-.6-1.53c-.4-.38-.9-.58-1.6-.58-.7 0-1.3.22-1.7.66-.4.44-.6 1.06-.6 1.86v.15h-3.2c.1-1.72.6-3.04 1.5-3.95 1-.93 2.4-1.39 4.2-1.39 1.6 0 3 .41 4 1.23.9.82 1.4 1.93 1.4 3.32 0 .73-.1 1.38-.5 1.93a3.3 3.3 0 0 1-1.5 1.37c.9.38 1.5.9 2 1.56.4.66.6 1.44.6 2.36 0 1.68-.5 3.01-1.6 3.99-1.1.99-2.6 1.48-4.5 1.48s-3.4-.48-4.4-1.43c-1-.96-1.5-2.32-1.5-4.09v-.07m64.4-27.07c.6-.08 1.1-.32 1.4-.69.4-.38.5-.88.5-1.5 0-.55-.1-1.01-.5-1.37a3.1 3.1 0 0 0-1.4-.86v4.42m-1.4-8.01v-3.99c-.6.08-1.1.29-1.4.63a2 2 0 0 0-.5 1.36c0 .48.1.88.4 1.2.3.32.8.58 1.5.8m0 12.83v-2.25c-1.8-.11-3.1-.62-4-1.54-.9-.91-1.3-2.23-1.3-3.96h3.1c.1.85.3 1.51.6 2.01.4.48.9.79 1.6.92V26.6c-1.8-.46-3.1-1.06-3.9-1.81-.8-.74-1.1-1.75-1.1-3.04 0-1.43.4-2.58 1.3-3.46.9-.87 2.1-1.33 3.7-1.37v-1.5h1.4v1.5c1.5.08 2.7.54 3.5 1.38.9.84 1.3 2.02 1.4 3.54h-3.2c0-.72-.2-1.28-.5-1.66-.3-.4-.7-.61-1.2-.66v4.27c1.9.6 3.2 1.29 4 2.06.8.77 1.2 1.79 1.2 3.06 0 1.49-.4 2.68-1.4 3.57-.9.89-2.2 1.41-3.8 1.56v2.23h-1.4m1.5 21.15v-7.18l-4.5 7.18h4.5m0 6.21v-3.62h-7.1v-2.95l6.2-9.73h4.1v10.01h2v2.67h-2v3.62h-3.2m65.8-33.89c0 .52.2.97.6 1.32.3.36.7.53 1.3.53.5 0 .9-.18 1.2-.54a1.7 1.7 0 0 0 0-2.59c-.3-.36-.7-.54-1.2-.54-.6 0-1 .18-1.3.53-.4.34-.6.77-.6 1.29m-2.5 0c0-1.22.4-2.25 1.2-3.08.9-.84 1.9-1.26 3.2-1.26 1.2 0 2.2.43 3 1.28a4 4 0 0 1 1.3 3.06c0 1.2-.4 2.23-1.3 3.09-.8.86-1.9 1.28-3 1.28-1.3 0-2.3-.42-3.2-1.26a4.36 4.36 0 0 1-1.2-3.11m-6.8 4.37 10-17.26h1.9l-10 17.26h-1.9M290 21.22c0 .52.2.95.6 1.3.3.35.7.53 1.3.53.5 0 .9-.18 1.2-.53a1.68 1.68 0 0 0 0-2.58c-.3-.36-.7-.54-1.2-.54-.6 0-1 .18-1.3.53-.4.35-.6.78-.6 1.29m-2.5 0c0-1.22.4-2.25 1.3-3.1.8-.85 1.8-1.27 3.1-1.27 1.2 0 2.2.43 3 1.29.9.85 1.3 1.88 1.3 3.08 0 1.2-.4 2.23-1.3 3.08-.8.85-1.8 1.27-3 1.27-1.3 0-2.3-.42-3.1-1.26a3.99 3.99 0 0 1-1.3-3.09m3.4 37.9h3.2c.1.73.3 1.3.8 1.71.4.4 1 .6 1.7.6.9 0 1.6-.27 2.1-.8s.7-1.29.7-2.28c0-.93-.2-1.66-.7-2.2-.5-.53-1.2-.8-2-.8a2.74 2.74 0 0 0-2.3 1.16l-3-.18 1.1-9h9.6v2.84h-7.2l-.5 3.36c.4-.29.8-.5 1.3-.65.5-.14 1-.22 1.6-.22 1.7 0 3 .51 4 1.53a5.12 5.12 0 0 1 1.6 3.99c0 1.81-.6 3.25-1.7 4.33-1.1 1.07-2.7 1.6-4.6 1.6-1.7 0-3.1-.44-4.1-1.32-1-.89-1.6-2.12-1.6-3.67m61.3-.82c0 .96.2 1.72.7 2.28.5.57 1.1.85 1.9.85.8 0 1.4-.28 1.9-.82.4-.55.6-1.31.6-2.29 0-.9-.2-1.6-.7-2.1-.4-.5-1.1-.75-1.9-.75-.8 0-1.4.25-1.9.75-.4.5-.6 1.2-.6 2.08m-.1-4.38a4.64 4.64 0 0 1 3.2-1.19c1.6 0 2.9.5 3.9 1.5s1.5 2.33 1.5 4c0 1.76-.5 3.19-1.6 4.28a5.82 5.82 0 0 1-4.3 1.62c-2 0-3.6-.7-4.6-2.1-1.1-1.41-1.6-3.47-1.6-6.18 0-2.91.6-5.14 1.7-6.68 1.1-1.55 2.8-2.32 4.9-2.32 1.5 0 2.7.39 3.6 1.16.9.77 1.4 1.82 1.5 3.14h-3.4c-.1-.54-.3-.94-.6-1.22-.4-.27-.9-.41-1.5-.41-.8 0-1.5.37-1.9 1.1-.5.73-.7 1.83-.8 3.3m.8-27.82-.9.64c-.4.25-.7.55-.8.9-.2.35-.3.75-.3 1.19 0 .66.2 1.22.7 1.67.4.46 1 .68 1.7.68.5 0 .9-.1 1.4-.3.5-.21.9-.52 1.3-.92l-3.1-3.86m.9-3.7.4-.29c.4-.26.7-.55.8-.87.2-.32.3-.68.3-1.1 0-.4-.1-.71-.4-.95-.2-.23-.5-.35-1-.35-.4 0-.7.12-1 .36-.2.24-.4.56-.4.97 0 .21.1.45.2.71.1.26.3.53.5.82l.6.7m-2.6 1.56-.7-.89c-.4-.47-.6-.9-.8-1.31-.1-.41-.2-.85-.2-1.3 0-1.25.4-2.24 1.2-2.98.8-.74 1.9-1.11 3.3-1.11 1.3 0 2.3.34 3.1 1.02.8.68 1.1 1.6 1.1 2.75 0 .88-.2 1.66-.6 2.36-.5.69-1.2 1.33-2.2 1.94l2.5 3.05c.3-.38.4-.81.6-1.29l.3-1.59h3c-.1 1.01-.3 1.95-.6 2.82-.4.87-.8 1.66-1.4 2.38l3.1 3.82h-4l-1.1-1.44a7.06 7.06 0 0 1-4.9 1.92c-1.6 0-2.9-.47-3.9-1.42-1-.94-1.5-2.15-1.5-3.62 0-1.09.3-2.03.8-2.82.6-.79 1.5-1.55 2.9-2.29m63.5 39.67h-3.5c.1-2.29.6-4.56 1.6-6.81s2.4-4.46 4.2-6.63h-8.2v-2.86h11.9v2.52a22.96 22.96 0 0 0-4.3 6.44c-1 2.27-1.6 4.72-1.7 7.34m3.3-47.52-3 3.6h-1.7l1.7-3.6h3m52.9 42.65c0 .82.2 1.45.7 1.89.4.45 1.1.67 1.9.67.8 0 1.5-.22 1.9-.68.5-.45.7-1.08.7-1.88 0-.78-.2-1.4-.7-1.87a2.6 2.6 0 0 0-1.9-.7c-.8 0-1.4.24-1.9.71-.5.48-.7 1.1-.7 1.86m.2-7.2c0 .65.2 1.15.7 1.5.4.34.9.52 1.7.52.8 0 1.3-.18 1.7-.53.5-.35.7-.85.7-1.49 0-.62-.2-1.12-.7-1.48-.4-.36-1-.54-1.7-.54s-1.3.19-1.7.56c-.4.36-.7.85-.7 1.46m-1.2 3.26a3.8 3.8 0 0 1-1.5-1.37 4 4 0 0 1-.5-2.01c0-1.43.5-2.56 1.5-3.38 1-.82 2.4-1.23 4.1-1.23 1.7 0 3.1.41 4.1 1.23 1 .81 1.5 1.94 1.5 3.38 0 .78-.2 1.45-.5 2.02-.4.56-.9 1.01-1.5 1.36.8.38 1.4.91 1.8 1.59.4.67.6 1.49.6 2.46 0 1.64-.5 2.92-1.6 3.85-1 .93-2.5 1.39-4.4 1.39-1.9 0-3.4-.46-4.4-1.38-1.1-.92-1.6-2.21-1.6-3.86 0-.96.2-1.76.6-2.41.4-.66 1-1.2 1.8-1.64m8-38.45a20.34 20.34 0 0 0-2.4 5.39 18.3 18.3 0 0 0-.8 5.75c0 2 .2 3.92.8 5.75a20.5 20.5 0 0 0 2.4 5.39h-2.5a22.36 22.36 0 0 1-3.1-5.63c-.7-1.89-1.1-3.73-1.1-5.51 0-1.78.4-3.61 1.1-5.5a22.2 22.2 0 0 1 3.1-5.64h2.5m58.2 36.32c0-.97-.3-1.72-.8-2.28-.4-.56-1.1-.84-1.9-.84-.8 0-1.4.27-1.8.81-.5.54-.7 1.29-.7 2.26 0 .9.2 1.61.7 2.12.4.51 1.1.76 1.9.76.8 0 1.4-.25 1.9-.75.4-.5.7-1.19.7-2.08m0 4.37c-.4.39-.8.68-1.4.88-.5.19-1.1.29-1.8.29-1.6 0-2.9-.5-3.9-1.49s-1.5-2.32-1.5-3.98c0-1.77.5-3.2 1.6-4.28a5.79 5.79 0 0 1 4.3-1.63c2 0 3.6.71 4.6 2.12 1.1 1.41 1.7 3.46 1.7 6.16 0 2.91-.6 5.14-1.8 6.68-1.1 1.55-2.7 2.32-4.9 2.32-1.5 0-2.6-.38-3.6-1.14a4 4 0 0 1-1.4-3.16l3.3.02c.1.53.3.94.7 1.2.3.27.8.4 1.4.4.9 0 1.5-.37 2-1.1.4-.73.7-1.83.7-3.29m-6.7-40.7h2.5a25.8 25.8 0 0 1 3.1 5.63 15.75 15.75 0 0 1 0 11.04c-.7 1.89-1.8 3.76-3.1 5.62h-2.5c1.1-1.78 1.9-3.58 2.4-5.41s.8-3.74.8-5.73c0-1.99-.3-3.9-.8-5.73-.5-1.83-1.3-3.63-2.4-5.41m61.6 39.1c0 2.04.2 3.52.6 4.45.4.92 1.1 1.38 2 1.38.9 0 1.5-.47 1.9-1.4.4-.93.6-2.4.6-4.43s-.2-3.5-.6-4.43c-.4-.92-1-1.38-1.9-1.38-.9 0-1.6.46-2 1.38-.4.92-.6 2.4-.6 4.43m-3.5 0c0-2.88.5-5.03 1.5-6.46 1-1.44 2.5-2.16 4.6-2.16 2 0 3.5.72 4.5 2.17 1 1.44 1.5 3.6 1.5 6.48 0 2.88-.5 5.03-1.5 6.46-1 1.42-2.5 2.13-4.5 2.13-2.1 0-3.6-.72-4.6-2.15-1-1.43-1.5-3.58-1.5-6.47m66-32.26-2.1 2.91-2-1.4 2.3-2.82-3.3-.91.8-2.38 3.1 1.12v-3.36h2.3v3.36l3.2-1.1.8 2.38-3.3.89 2.2 2.8-2 1.47-2-2.96m-1.3 31.44V51.1h3.6v3.55h-3.6m0 8.98V60.1h3.6v3.53h-3.6m55.3-35.81h14v2.33h-14v-2.33m0-5.04h14v2.33h-14v-2.33m2.7 36.07v-3.21h6.6v3.21h-6.6m69-44.93v2.45l-.2-.01-.3-.01c-.8 0-1.3.15-1.6.45-.3.3-.4.93-.4 1.9v2.81c0 1.16-.2 1.98-.5 2.46-.4.49-1 .84-1.9 1.05.9.21 1.5.55 1.9 1.03.3.48.5 1.29.5 2.45v2.82c0 .96.1 1.59.4 1.89.3.3.8.44 1.6.44l.3-.01.2-.01v2.45l-.4.01-.4.01a11 11 0 0 1-2-.14c-.5-.09-1-.24-1.3-.43-.5-.27-.8-.63-1-1.08-.2-.44-.3-1.22-.3-2.33v-2.95c0-1.07-.2-1.83-.6-2.28-.4-.45-1-.68-2-.68l-.2.01-.2.02v-2.45l.2.01.2.01c1 0 1.6-.23 2-.68.4-.45.6-1.22.6-2.3V17.9c0-1.11.1-1.9.3-2.35.2-.45.5-.81 1-1.08.3-.2.8-.34 1.3-.43a11 11 0 0 1 2-.14h.4l.4.02m-6.1 30.05h5.9v2.49h-2.7v17.38h2.7v2.5h-5.9V43.97m57.7-30.07h.7c.9 0 1.6.05 2.1.15.5.1 1 .24 1.3.44.5.25.8.61 1 1.08.2.46.3 1.24.3 2.32v2.96c0 1.07.2 1.83.6 2.28.4.45 1 .67 2 .67l.2-.01.2-.01v2.44h-.4c-1 0-1.6.22-2 .66-.4.44-.6 1.2-.6 2.27v2.96c0 1.11-.1 1.9-.3 2.35-.2.46-.5.81-1 1.06-.3.19-.8.34-1.3.43a11 11 0 0 1-2 .14l-.4-.01-.4-.01v-2.45l.2.01.3.01c.8 0 1.3-.15 1.6-.45.3-.3.4-.93.4-1.88v-2.8c0-1.17.2-2 .5-2.47.4-.49 1-.83 1.9-1.03-.9-.21-1.5-.56-1.9-1.05-.3-.48-.5-1.3-.5-2.46v-2.83c0-.96-.1-1.58-.4-1.88-.3-.3-.8-.46-1.6-.46l-.3.02h-.2v-2.44m6.2 30.05v22.37h-5.9v-2.5h2.7V46.45h-2.7v-2.49h5.9m57.4-19.37H890v4.96h-2.2V18.62h2.2v4.09h4.4v-4.1h2.2v10.94h-2.2v-4.96m8.6-3.27c1.2 0 2.2.38 2.9 1.15.7.76 1.1 1.83 1.1 3.2 0 1.3-.4 2.33-1.1 3.09a3.8 3.8 0 0 1-2.9 1.14c-1.3 0-2.2-.38-3-1.14-.7-.77-1-1.82-1-3.15 0-1.33.3-2.38 1-3.14a4 4 0 0 1 3-1.15m0 1.69c-.6 0-1 .24-1.4.72a3.5 3.5 0 0 0-.5 1.88c0 .77.2 1.39.5 1.87.4.48.8.72 1.4.72.5 0 1-.23 1.3-.7.4-.48.6-1.1.6-1.86 0-.8-.2-1.44-.5-1.91-.4-.48-.8-.72-1.4-.72m6.4-1.56h2v1.01c.4-.41.7-.7 1.1-.87.3-.18.7-.27 1.2-.27 1 0 1.8.4 2.2 1.2.6-.8 1.4-1.2 2.3-1.2.9 0 1.5.22 1.9.66.5.44.7 1.05.7 1.84v5.73h-2.1v-5.4a1 1 0 0 0-.3-.76c-.2-.19-.5-.29-.8-.29-.5 0-.8.14-1.1.42a2 2 0 0 0-.4 1.17v4.86H914v-5.4a1 1 0 0 0-.3-.76c-.2-.19-.4-.29-.8-.29s-.8.14-1.1.42c-.2.28-.3.67-.3 1.17v4.86h-2.1v-8.1m17.3-.13a3.7 3.7 0 0 1 2 .55c.4.21.7.48.9.81.3.32.5.75.7 1.29.1.53.2 1.14.2 1.83v.36h-5.4v.81l.3.66c.1.21.3.38.5.5.2.11.5.16.8.16.8 0 1.4-.34 1.6-1.02h2.1c-.2.8-.7 1.44-1.3 1.92-.7.47-1.5.71-2.4.71-1.2 0-2.1-.37-2.7-1.11-.7-.75-1-1.78-1-3.08 0-1.36.3-2.43 1-3.21a3.3 3.3 0 0 1 2.7-1.18m1.6 3.45c0-.59-.2-1.05-.5-1.37-.2-.32-.6-.48-1.1-.48-.9 0-1.5.62-1.6 1.85h3.2m-30.4 13.57c.5 0 .8-.12 1-.36.1-.26.2-.67.2-1.23h1.9c-.1 2.34-1.1 3.51-3 3.51-.7 0-1.4-.21-2-.63l-1.4-1.01c-.5-.38-1-.57-1.5-.57s-.8.12-1 .36c-.1.24-.2.64-.2 1.2H890c.1-2.32 1.1-3.48 3.1-3.48.7 0 1.4.2 1.9.6l1.4 1.01c.6.4 1 .6 1.5.6m3.2 16.65h-2.7l-2.9-7.2-2.8 7.2H890l4-10.2h3l4.1 10.2M19.75 101.01v2.83h5.92v1.88H17.5V94.78h7.9v1.88h-5.65v2.47h5.23v1.88h-5.23m9.07 2.35c.07.34.21.6.42.78.22.18.63.27 1.23.27.49 0 .87-.07 1.14-.21.28-.14.42-.33.42-.58a.5.5 0 0 0-.16-.39c-.1-.1-.28-.19-.54-.27l-2.51-.78a1.58 1.58 0 0 1-.48-.15l-.58-.3a1.5 1.5 0 0 1-.5-.59 2.06 2.06 0 0 1-.21-.96c0-.83.3-1.48.89-1.96.6-.49 1.41-.74 2.44-.74 1.09 0 1.95.25 2.57.74.62.48.94 1.15.96 2.01h-2.03c-.01-.73-.51-1.1-1.51-1.1-.37 0-.67.07-.89.21-.22.13-.33.31-.33.54 0 .16.05.29.15.38.1.08.3.16.59.25l2.65.77c1.06.31 1.59.99 1.59 2.04a2.6 2.6 0 0 1-.7 1.78c-.24.29-.61.52-1.1.69-.49.18-1.07.27-1.74.27-2.49 0-3.76-.9-3.82-2.7h2.05M39 99.18c-1.14 0-1.71.88-1.71 2.65 0 .79.15 1.41.45 1.86.31.45.73.68 1.26.68.41 0 .73-.11.96-.33.23-.23.41-.61.54-1.13h2.01c-.1.97-.47 1.74-1.11 2.31-.63.56-1.43.84-2.41.84a3.6 3.6 0 0 1-2.81-1.11 4.53 4.53 0 0 1-.99-3.12 4.7 4.7 0 0 1 1.01-3.21 3.56 3.56 0 0 1 2.82-1.14 3.5 3.5 0 0 1 2.44.84c.63.56.98 1.34 1.05 2.33H40.5a2.25 2.25 0 0 0-.52-1.13c-.22-.23-.55-.34-.98-.34m48.1-8.62-1.9-1.78 2-2.02 1.9 1.83a7 7 0 0 0 .5-1.6c.2-.61.2-1.26.2-1.97 0-1.9-.4-3.37-1.2-4.42a4.48 4.48 0 0 0-3.6-1.58c-1.5 0-2.7.52-3.6 1.57-.8 1.04-1.2 2.52-1.2 4.43 0 1.9.4 3.37 1.2 4.43a4.53 4.53 0 0 0 3.6 1.57 5.15 5.15 0 0 0 2.1-.46m2.5 2.36c-.6.39-1.3.68-2.1.89-.8.2-1.6.3-2.5.3-2.6 0-4.7-.82-6.18-2.46-1.51-1.64-2.27-3.85-2.27-6.63 0-2.79.76-5 2.27-6.64 1.48-1.64 3.58-2.46 6.18-2.46 2.6 0 4.6.82 6.1 2.46 1.6 1.65 2.3 3.86 2.3 6.64 0 1.22-.1 2.33-.4 3.35-.4 1.01-.8 1.89-1.4 2.65l1.8 1.79-1.9 2.02-1.9-1.91m49.3.71L134 76.37h3.7l2.9 12.17 2.5-12.17h3.8l2.5 12.17 3-12.17h3.6l-4.9 17.26h-3.4L145 80.41l-2.7 13.22h-3.4m59.6 0V76.37h12.6v3H202v3.68h8.3V86H202v4.44h9.5v3.19h-13m62.9-9.71h4.2c.9 0 1.6-.19 2-.55.4-.37.6-.95.6-1.74 0-.75-.2-1.32-.6-1.7-.4-.39-1-.58-1.8-.58h-4.4v4.57m-3.5 9.71V76.37h8.4c1.8 0 3.2.4 4.1 1.21.9.8 1.4 2.03 1.4 3.69a4.4 4.4 0 0 1-.7 2.63 3 3 0 0 1-1.9 1.45c.8.26 1.3.67 1.6 1.21.3.55.5 1.4.6 2.56v2.11c.1 1.03.3 1.65.7 1.87v.53h-3.9c-.1-.24-.2-.54-.3-.89 0-.36-.1-.78-.1-1.28v-1.81c-.1-1.07-.3-1.8-.6-2.17-.4-.38-1.1-.56-2-.56h-3.8v6.71h-3.5m65.3 0V79.45h-5.1v-3.08h13.8v3.08h-5.1v14.18h-3.6m63.9 0h-3.6V87.2l-6.3-10.83h4.4l3.7 7.44 3.4-7.44h4.1l-5.7 10.83v6.43m51-17.52h3.6v10.82c0 1.34.2 2.32.8 2.93.5.61 1.3.92 2.5.92s2-.31 2.6-.92c.5-.61.8-1.58.8-2.93V76.11h3.5v11.21c0 2.12-.6 3.74-1.8 4.88-1.1 1.13-2.9 1.69-5.1 1.69-2.2 0-3.9-.56-5.1-1.68-1.2-1.14-1.8-2.76-1.8-4.89V76.11m65.1 17.52V76.37h3.6v17.26h-3.6m57-8.63c0 1.9.4 3.38 1.2 4.43A4.5 4.5 0 0 0 565 91c1.5 0 2.7-.52 3.6-1.57.8-1.05 1.2-2.53 1.2-4.43s-.4-3.37-1.2-4.42A4.5 4.5 0 0 0 565 79c-1.5 0-2.7.52-3.6 1.57-.8 1.05-1.2 2.52-1.2 4.43m-3.6 0c0-2.79.7-5 2.2-6.63a8.18 8.18 0 0 1 6.2-2.46c2.6 0 4.6.82 6.1 2.46 1.6 1.64 2.3 3.85 2.3 6.63s-.7 4.99-2.3 6.63c-1.5 1.64-3.5 2.46-6.1 2.46-2.6 0-4.6-.82-6.2-2.46-1.5-1.64-2.2-3.85-2.2-6.63m65.4-.64h3.4c.9 0 1.6-.19 2-.58.5-.4.7-1.04.7-1.91 0-.83-.2-1.45-.7-1.87-.4-.42-1-.63-1.8-.63H622v4.99m0 3.13v6.14h-3.6V76.37h7.7c1.8 0 3.2.47 4.1 1.42.9.93 1.4 2.31 1.4 4.13 0 1.79-.5 3.16-1.4 4.13-.9.96-2.2 1.44-3.9 1.44H622m57.8.21v9.06h5.3v1.88h-7.5V87.7h2.2m8.9 0v1.88h-2.1V87.7h2.1m0 2.84v8.1h-2.1v-8.1h2.1m2 0h2.1v1.17c.5-.87 1.4-1.31 2.4-1.31.9 0 1.5.25 2 .74s.7 1.18.7 2.07v5.43h-2.1v-5c0-.97-.4-1.45-1.3-1.45-.5 0-1 .14-1.3.43-.3.29-.4.68-.4 1.16v4.86h-2.1v-8.1m13.1-.14a3.7 3.7 0 0 1 2 .56c.4.21.7.48.9.81.3.32.5.75.7 1.29.1.53.2 1.14.2 1.83v.36h-5.4v.81l.3.66c.1.21.3.37.5.49.2.11.5.17.8.17.8 0 1.4-.34 1.6-1.02h2.1c-.2.8-.7 1.44-1.4 1.92-.6.47-1.4.7-2.3.7-1.2 0-2.1-.37-2.8-1.11-.6-.75-.9-1.77-.9-3.07 0-1.36.3-2.43 1-3.21.6-.79 1.5-1.19 2.7-1.19m1.6 3.45c0-.59-.2-1.04-.5-1.36-.3-.32-.6-.48-1.1-.48-.9 0-1.5.61-1.6 1.84h3.2m-25.7 15.08v4.67h-2.2v-10.9h7.7v1.88h-5.5v2.47h4.8v1.88h-4.8m9.8-3.53c.4 0 .7.04 1.1.12.3.08.6.23 1 .44.3.21.6.48.9.81a5.25 5.25 0 0 1 .8 3.12v.31h-5.4c0 .4 0 .6.1.9 0 .2.1.4.2.6.1.2.3.4.5.5.2.1.5.2.9.2.8 0 1.3-.4 1.6-1h2c-.2.8-.6 1.4-1.3 1.9-.7.4-1.5.7-2.4.7-1.2 0-2.1-.4-2.7-1.1-.7-.8-1-1.8-1-3.1 0-1.36.3-2.43 1-3.21.7-.79 1.6-1.19 2.7-1.19m1.6 3.45c0-.59-.2-1.04-.5-1.36-.2-.32-.6-.48-1.1-.48-.9 0-1.4.61-1.6 1.84h3.2m6.8-3.45c.3 0 .7.04 1 .12.3.08.7.23 1 .44.4.21.7.48.9.81.3.32.5.75.6 1.29.2.53.3 1.14.3 1.83v.31h-5.5c0 .4.1.6.1.9.1.2.1.4.2.6.2.2.3.4.6.5.2.1.5.2.8.2.8 0 1.3-.4 1.6-1h2.1c-.2.8-.7 1.4-1.4 1.9-.7.4-1.5.7-2.4.7-1.1 0-2-.4-2.7-1.1a5 5 0 0 1-1-3.1c0-1.36.4-2.43 1-3.21.7-.79 1.6-1.19 2.8-1.19m1.6 3.45c-.1-.59-.2-1.04-.5-1.36a1.5 1.5 0 0 0-1.1-.48c-1 0-1.5.61-1.6 1.84h3.2M706 114c-1 0-1.8-.4-2.5-1.2-.6-.9-.9-1.9-.9-3.09 0-1.22.3-2.24 1-3.06.6-.83 1.4-1.25 2.4-1.25s1.7.4 2.2 1.19v-3.89h2.1v10.9h-2.1v-.8c-.5.8-1.2 1.2-2.2 1.2m.5-6.84c-.6 0-1 .24-1.3.72-.3.47-.5 1.08-.5 1.83 0 .69.2 1.39.5 1.79.3.5.7.7 1.3.7.5 0 .9-.2 1.2-.7.4-.4.5-1 .5-1.76 0-.77-.1-1.39-.5-1.86-.3-.48-.7-.72-1.2-.72m31-16.55V79.1h8.4v2h-6.1v2.45h5.5v1.97h-5.5v2.96h6.3v2.13h-8.6m10.2 0v-8.49h2.3v1a3.06 3.06 0 0 1 2.5-1.23c1 0 1.7.25 2.1.73.5.49.7 1.22.7 2.2v5.79h-2.2v-5.13c0-.61-.1-1.05-.3-1.31-.2-.26-.6-.39-1-.39-.6 0-1 .16-1.3.49-.3.31-.5.75-.5 1.3v5.04h-2.3m13.4.06-.8.03-.5.02c-.9 0-1.5-.16-1.8-.49-.3-.32-.5-.97-.5-1.93v-4.59h-1.1v-1.59h1.1V79.8h2.3v2.32h1.3v1.59h-1.3v4.7c0 .23 0 .38.1.45s.3.1.6.1h.6v1.71m6.5-2.64h2.3c-.2.9-.7 1.6-1.4 2.11-.7.51-1.5.76-2.5.76-1.3 0-2.2-.41-3-1.24-.7-.82-1-1.94-1-3.36 0-1.39.3-2.48 1-3.28.7-.81 1.7-1.21 2.9-1.21 1.3 0 2.3.4 3.1 1.19.7.79 1 1.91 1 3.37v.59h-5.7c.1.67.2 1.17.5 1.51.3.34.7.51 1.3.51.4 0 .7-.08.9-.23.3-.16.5-.4.6-.72m-3.3-2.56h3.4c-.1-.57-.2-1.01-.5-1.31-.3-.3-.7-.45-1.2-.45s-.9.15-1.2.45c-.3.31-.4.74-.5 1.31m7.2 5.14v-8.49h2.1v1.45c.3-.58.7-1.01 1.1-1.28.4-.28.8-.41 1.4-.42l.2.01.1.01v2.31h-.7c-.7 0-1.1.16-1.4.48-.3.32-.5.8-.5 1.44v4.49h-2.3m-19 31.89v-15l-15 7.5 15 7.5z"/><path fill="none" stroke="#000" stroke-width="3" d="M775 100v15h-30"/><path d="M864 85.54h-4.3v4.97h-2.3V79.57h2.3v4.1h4.3v-4.1h2.3v10.94H864v-4.97m8.4-3.27c.3 0 .7.04 1 .12.3.08.7.23 1 .44.3.21.6.48.9.81.3.32.5.75.6 1.29.2.53.3 1.14.3 1.83v.36h-5.5c0 .31.1.58.1.81 0 .22.1.44.2.66.2.21.3.37.5.49.3.11.6.17.9.17.8 0 1.3-.34 1.6-1.02h2.1c-.3.8-.7 1.44-1.4 1.92-.7.47-1.5.7-2.4.7-1.1 0-2-.37-2.7-1.11a4.8 4.8 0 0 1-1-3.07c0-1.36.4-2.43 1-3.21.7-.79 1.6-1.19 2.8-1.19m1.6 3.45c-.1-.59-.2-1.04-.5-1.36-.3-.32-.7-.48-1.2-.48-.9 0-1.4.61-1.5 1.84h3.2m4.5-3.31h2.1V84c.2-.55.5-.98.9-1.28.4-.3.9-.45 1.4-.45l.2.02v2.13c-.2-.04-.4-.06-.6-.06-1.3 0-1.9.61-1.9 1.84v4.31h-2.1v-8.1m9-.14c.4 0 .7.04 1.1.12.3.08.6.23 1 .44.3.21.6.48.9.81a5.25 5.25 0 0 1 .8 3.12v.36h-5.4c0 .31 0 .58.1.81 0 .22.1.44.2.66.1.21.3.37.5.49.2.11.5.17.9.17.8 0 1.3-.34 1.6-1.02h2c-.2.8-.6 1.44-1.3 1.92-.7.47-1.5.7-2.4.7-1.2 0-2.1-.37-2.7-1.11-.7-.75-1-1.77-1-3.07 0-1.36.3-2.43 1-3.21.7-.79 1.6-1.19 2.7-1.19m1.6 3.45c0-.59-.2-1.04-.4-1.36-.3-.32-.7-.48-1.2-.48-.9 0-1.4.61-1.6 1.84h3.2m-29.6 8.85v1.88h-2.1v-1.88h2.1m0 2.84v8.1h-2.1v-8.1h2.1m4.4 5.74c.1.34.2.6.4.78.3.18.7.27 1.3.27.5 0 .8-.07 1.1-.21.3-.14.4-.33.4-.58 0-.16 0-.29-.1-.39-.1-.1-.3-.19-.6-.27l-2.5-.78c-.1-.01-.3-.06-.5-.15-.1-.09-.3-.19-.5-.3-.2-.12-.4-.32-.5-.59-.2-.27-.2-.59-.2-.96 0-.83.2-1.48.8-1.96.6-.49 1.5-.74 2.5-.74 1.1 0 1.9.25 2.5.74.7.48 1 1.15 1 2.01h-2c0-.73-.5-1.1-1.5-1.1-.4 0-.7.07-.9.21-.2.13-.3.31-.3.54 0 .16 0 .29.1.38.1.08.3.16.6.25l2.6.77c1.1.31 1.6.99 1.6 2.04 0 .31 0 .61-.1.91-.1.29-.3.58-.6.87-.2.29-.6.52-1.1.69-.5.18-1 .27-1.7.27-2.5 0-3.8-.9-3.8-2.7h2M43 161.8a4.26 4.26 0 0 1-1.52 3.1c-.91.8-2.11 1.2-3.59 1.2a5.3 5.3 0 0 1-3.98-1.6c-.94-1.1-1.41-2.6-1.41-4.5 0-2 .48-3.5 1.45-4.5.96-1 2.34-1.6 4.15-1.6 1.47 0 2.63.4 3.48 1.1a4 4 0 0 1 1.4 3h-2.33c-.1-.6-.37-1.1-.8-1.4-.43-.4-1.01-.6-1.75-.6-1.04 0-1.83.4-2.37 1.1-.55.6-.82 1.6-.82 2.9 0 1.2.27 2.2.81 2.9.54.7 1.31 1 2.3 1 .72 0 1.31-.2 1.77-.5.46-.4.75-.9.89-1.6H43m5.47 4h-.75c-.29 0-.47.1-.55.1-.87 0-1.46-.2-1.79-.5-.31-.4-.47-1-.47-2v-4.6h-1.13v-1.6h1.13v-2.3h2.25v2.3h1.31v1.6h-1.31v4.7c0 .3.05.4.14.5.1.1.31.1.61.1h.56v1.7m1.32-.1v-8.5h2.11v1.5c.3-.6.64-1 1.04-1.3.39-.3.86-.4 1.41-.4h.33l.01 2.3h-.76c-.62 0-1.09.2-1.4.5-.31.3-.47.8-.47 1.4v4.5h-2.27m6.23 0v-11.5h2.28v11.5h-2.28M100 139.8l-2.4 7.4h4.8l-2.4-7.4m-2.1-3.4h4.1l6.2 17.2h-3.7l-1.2-3.5h-6.7l-1.1 3.5h-3.7l6.1-17.2m55.1 11.9h3.5c.1.9.5 1.6 1.1 2.1.7.5 1.6.7 2.8.7 1.1 0 1.8-.2 2.4-.6.5-.3.7-.9.7-1.6 0-1-1.5-1.9-4.5-2.6h-.1c-.1 0-.2-.1-.3-.1-1.7-.4-2.8-.8-3.5-1.2-.6-.4-1.1-.9-1.4-1.6-.3-.6-.5-1.4-.5-2.3 0-1.7.6-3 1.7-3.9 1.2-.9 2.8-1.3 5-1.3 2 0 3.6.5 4.7 1.4 1.2 1 1.8 2.3 1.8 4.1H163c-.1-.9-.4-1.5-.9-2-.6-.4-1.5-.6-2.5-.6s-1.7.2-2.2.5c-.5.4-.7.9-.7 1.6 0 .9 1 1.6 2.9 2 .5.2 1 .3 1.3.3 1.2.4 2.1.6 2.6.8.6.2 1 .4 1.4.6.7.4 1.2.9 1.6 1.5.3.7.5 1.4.5 2.3 0 1.8-.6 3.2-1.8 4.2-1.2 1-2.9 1.5-5.1 1.5-2.2 0-3.9-.5-5.1-1.5-1.3-1-1.9-2.4-2-4.3m63.2 2.2h2.8c1.7 0 2.8-.4 3.6-1.3.7-.8 1.1-2.2 1.1-4.2 0-1.9-.3-3.3-1-4.2-.7-.9-1.8-1.4-3.3-1.4h-3.2v11.1m-3.5 3.1v-17.2h6.7c2.7 0 4.7.7 6 2.1 1.3 1.4 1.9 3.6 1.9 6.5 0 1.6-.2 3-.7 4.2-.5 1.2-1.2 2.2-2.1 2.9-.7.5-1.5.9-2.3 1.2-.9.2-2.1.3-3.7.3h-5.8m61.3 0v-17.2h12v3h-8.5v3.9h7.5v3h-7.5v7.3H274m71.2-2c-.7.8-1.4 1.5-2.2 1.9-.8.4-1.8.6-2.9.6-2.4 0-4.4-.8-5.9-2.5a10.1 10.1 0 0 1-2.2-6.6c0-2.8.8-5 2.2-6.6 1.5-1.7 3.5-2.5 6-2.5 2.2 0 3.9.5 5.3 1.6 1.4 1 2.2 2.4 2.4 4.2h-3.6c-.2-.9-.6-1.6-1.3-2-.7-.5-1.6-.7-2.7-.7-1.4 0-2.5.5-3.4 1.6-.8 1-1.2 2.5-1.2 4.4 0 1.8.4 3.3 1.3 4.4.8 1 2 1.6 3.5 1.6 1.2 0 2.1-.4 2.9-1 .7-.7 1.2-1.6 1.4-2.8h-4v-2.9h7.2v9.3h-2.4l-.4-2m47.7 2v-17.2h3.5v6.4h7.2v-6.4h3.5v17.2h-3.5V146h-7.2v7.6h-3.5"/><path fill="none" stroke="#000" d="M416 173h-15"/><path d="M402.5 178v-10l-10 5zm52-31h3.4v2c0 .6.2 1.1.6 1.4.3.3.8.5 1.5.5s1.2-.2 1.5-.6c.3-.4.5-1.1.5-2.1v-12.1h3.5v12.2c0 1.1 0 1.9-.2 2.4-.1.6-.3 1-.6 1.4-.5.6-1.1 1-1.9 1.3-.8.3-1.7.5-2.8.5-.9 0-1.8-.2-2.5-.4-.8-.3-1.4-.7-1.9-1.2-.4-.4-.7-.9-.9-1.4-.1-.5-.2-1.4-.2-2.6V147m10.5 27.4h-10l5 10 5-10z"/><path fill="none" stroke="#000" d="M460 160.9v14.9"/><path d="M512.3 153.6v-17.2h3.6v7.1l6.7-7.1h4.5l-6.9 7 7.5 10.2h-4.4l-5.6-7.9-1.8 1.9v6h-3.6m2.7 17.3h10l-5-10z"/><path fill="none" stroke="#000" d="M520 184.4v-14.9"/><path d="M574 153.6v-17.2h3.6v14h8.4v3.2h-12m12.9 24.4v-10l10 5z"/><path fill="none" stroke="#000" d="M573.4 173h14.9"/><path d="M638.3 139.3h2.4v6h5.8v2.3h-5.8v6h-2.4v-6h-5.8v-2.3h5.8v-6m-.1 35.4v-3.6h3.6v3.6h-3.6m0 13v-1.4c.7-.2 1.2-.5 1.5-.9.3-.3.5-.9.5-1.5v-.3h-2v-3.5h3.6v3.4c0 1.2-.3 2.1-.9 2.8-.6.7-1.5 1.2-2.7 1.4m58.6-51.6h3l1.7 3.6h-1.7l-3-3.6m7.5 39.3c-.4.7-.9 1.2-1.4 1.5-.6.3-1.3.4-2 .4-1.3 0-2.2-.3-2.9-1-.6-.6-.9-1.6-.9-3 0-1.8.5-3.4 1.6-4.7 1.1-1.2 2.4-1.9 4-1.9.7 0 1.2.2 1.7.4.4.3.8.7 1.1 1.2l.6-1.2h2.1l-1.7 7c0 .1 0 .2-.1.3v.2c0 .3.1.5.3.6.2.2.5.2.8.2.3 0 .6 0 1-.2.3-.1.6-.4.9-.6.7-.7 1.2-1.4 1.5-2.2.4-.9.6-1.8.6-2.8 0-1.9-.8-3.4-2.2-4.6a8.55 8.55 0 0 0-5.6-1.8c-1.1 0-2.1.1-3.1.4-.9.2-1.8.6-2.6 1.2-1.3.8-2.3 2-3 3.3-.8 1.3-1.1 2.8-1.1 4.4 0 2.4.8 4.3 2.4 5.7 1.6 1.5 3.8 2.2 6.5 2.2 1.3 0 2.5-.2 3.7-.6 1.2-.4 2.3-.9 3.4-1.6l.9 1.3c-1.2.9-2.4 1.6-3.8 2-1.3.5-2.7.7-4.2.7s-2.8-.2-4.1-.5c-1.3-.4-2.4-1-3.4-1.7-1.2-1-2.1-2.1-2.7-3.3-.6-1.2-.9-2.6-.9-4.2 0-1.3.2-2.5.6-3.7.5-1.2 1.1-2.3 1.9-3.2 1.1-1.5 2.5-2.5 4.1-3.3 1.7-.7 3.5-1 5.5-1 1.3 0 2.5.1 3.7.5 1.1.3 2.1.8 3 1.5a8 8 0 0 1 2.4 2.8c.5 1.1.7 2.2.7 3.6 0 1.2-.2 2.4-.7 3.5-.5 1.1-1.3 2-2.2 2.8-.6.5-1.2.8-1.8 1-.7.3-1.3.4-2 .4-.9 0-1.5-.2-1.9-.5-.4-.4-.6-.8-.7-1.5m.6-5c-.1-.6-.3-1.1-.6-1.4-.4-.4-.8-.5-1.4-.5-.9 0-1.7.4-2.3 1.4-.7 1-1 2.1-1 3.5 0 .7.1 1.3.4 1.6.4.4.8.6 1.4.6.7 0 1.3-.2 1.8-.7.5-.5.9-1.2 1.1-2l.6-2.5m53.9-37.5h2.4v24h-2.4v-24m3.3 50.5-5.8-19.9h1.6l5.8 19.9h-1.6m57.9-33.8v-1.2c0-.4-.1-.7-.3-.9-.2-.3-.6-.4-1.1-.4H816v4.4h-2.2v-11h5.8c.6 0 1.1.1 1.5.3.4.2.7.5.9.8.2.3.4.6.4.9.1.3.2.7.2 1 0 1.3-.6 2.2-1.9 2.7.3.1.5.2.6.3.2 0 .3.1.4.3.2.1.3.3.3.4 0 .1.1.3.1.6.1.4.1.7.1 1 0 .3 0 .8.1 1.4 0 .4.1.7.4.9v.4h-2.4c-.1-.3-.2-.5-.3-.8v-1.1m.3-5.8c0-.5-.1-.9-.4-1.1-.2-.2-.6-.3-1.2-.3H816v2.9h2.7c.6 0 1-.1 1.2-.3.3-.2.4-.6.4-1.2m12 7.7h-2.1v-1c-.6.9-1.4 1.3-2.4 1.3-.9 0-1.5-.2-2-.7-.5-.5-.7-1.2-.7-2.1v-5.6h2.1v5.2c0 1 .4 1.4 1.3 1.4.5 0 .9-.1 1.2-.4.4-.3.5-.7.5-1.2v-5h2.1v8.1m7.1-8.3c1 0 1.8.4 2.5 1.3.6.8.9 1.8.9 3 0 1.3-.3 2.3-.9 3.1-.7.8-1.5 1.2-2.5 1.2s-1.7-.4-2.2-1.1v.8h-2.1v-11h2.1v3.9c.5-.8 1.2-1.2 2.2-1.2m.8 2.5c-.3-.5-.7-.7-1.2-.7-.6 0-1 .2-1.3.7-.3.5-.5 1.1-.5 1.8 0 .8.2 1.4.5 1.9.3.4.7.7 1.3.7.5 0 .9-.3 1.2-.7.4-.5.5-1.1.5-1.9 0-.7-.1-1.3-.5-1.8m-18 16.2h12v2.4h-12v-2.4m60.3-13.6c0 .4-.1.7-.2 1.1-.1.3-.3.7-.6 1-.2.3-.6.6-1.2.8-.5.2-1.1.3-1.9.3h-4.9v-11h4.9c.7 0 1.3.1 1.8.3.5.2.8.5 1.1.8.2.3.4.6.5.9.1.3.2.6.2.9 0 .5-.1.9-.4 1.2-.2.4-.6.7-1.1 1.1 1.2.7 1.8 1.6 1.8 2.6m-6.5-5.9v2.5h2.4c1.1 0 1.6-.4 1.6-1.2 0-.9-.5-1.3-1.6-1.3H876m0 4.4v2.8h2.7c1.1 0 1.6-.5 1.6-1.4 0-1-.5-1.4-1.6-1.4H876m9.1-3.4h2.1v1.6c.2-.6.6-1 1-1.3.4-.3.8-.5 1.3-.5.1 0 .1 0 .2.1v2.1c-.2-.1-.4-.1-.6-.1-1.3 0-1.9.6-1.9 1.9v4.3h-2.1v-8.1m9-.2c.4 0 .7.1 1.1.2.3 0 .6.2 1 .4.3.2.6.5.9.8a4.97 4.97 0 0 1 .8 3.1v.4h-5.4c0 .3 0 .6.1.8 0 .2.1.4.2.7.1.2.3.3.5.5.3.1.5.1.9.1.8 0 1.3-.3 1.6-1h2.1c-.3.8-.7 1.4-1.4 1.9s-1.5.7-2.4.7c-1.1 0-2.1-.3-2.7-1.1-.7-.7-1-1.8-1-3.1s.3-2.4 1-3.2c.7-.8 1.6-1.2 2.7-1.2m1.7 3.5c-.1-.6-.3-1.1-.5-1.4-.3-.3-.7-.5-1.2-.5-.9 0-1.4.7-1.6 1.9h3.3m5.5 5.1c-.7 0-1.3-.2-1.8-.6-.4-.5-.7-1.1-.7-1.8 0-1.4.8-2.3 2.4-2.6l.9-.1c.1 0 .3 0 .5-.1.2 0 .4-.1.6-.1.1-.1.3-.2.4-.3.1-.1.1-.3.1-.5 0-.5-.4-.8-1.2-.8-.5 0-.9.1-1.1.3-.2.1-.3.4-.4.8h-2c.1-1.8 1.3-2.8 3.5-2.8s3.3.9 3.3 2.5v4.5c0 .4.2.7.5 1v.3H904c-.2-.2-.2-.5-.2-.8-.8.7-1.6 1.1-2.5 1.1m2.4-3.6v-.5c-.1 0-.4.1-.8.2l-.8.1c-.4.1-.7.3-.9.4-.2.2-.3.4-.3.8 0 .3.1.5.3.7.2.1.5.2.9.2.5 0 .9-.1 1.2-.5.3-.3.4-.8.4-1.4m6.1-1.7 2.6-3.1h2.4l-2.8 3 3 5.1h-2.5l-1.9-3.6-.8.9v2.7h-2.1v-11h2.1v6"/><path fill="none" stroke="#000" d="M52.25 217.1 41 232.1h7.5v7.5H56v-7.5h7.5l-11.25-15zm682.5 0-11.25 15h7.5v7.5h7.5v-7.5h7.5l-11.25-15z"/><path d="M123.2 213.6v-3l9.3-11.1h-9.2v-3.1h13.5v3l-9.4 11.1h9.2v3.1h-13.4m59.2 0 5.4-8.8-5.4-8.4h4.1l3.5 6 3.5-6h4.1l-5.4 8.4 5.4 8.8h-4.1l-3.5-5.9-3.5 5.9h-4.1m75.5-5.9c-.2 1.9-.9 3.5-2.3 4.7a8.5 8.5 0 0 1-5.4 1.7c-2.5 0-4.5-.8-6-2.4-1.4-1.6-2.1-3.8-2.1-6.7 0-2.9.7-5.2 2.2-6.7 1.4-1.6 3.5-2.4 6.2-2.4 2.2 0 4 .5 5.2 1.6 1.3 1.1 2 2.6 2.2 4.6h-3.6c-.1-1-.5-1.7-1.1-2.3-.7-.5-1.6-.7-2.7-.7-1.5 0-2.7.5-3.5 1.5-.8 1-1.3 2.5-1.3 4.4 0 1.9.4 3.3 1.3 4.3.8 1.1 1.9 1.6 3.4 1.6 1.1 0 2-.3 2.7-.8.6-.6 1.1-1.4 1.3-2.4h3.5m50.4 5.9-5.9-17.2h3.9l3.7 12.9 3.7-12.9h3.9l-5.9 17.2h-3.4m58-3.1h4.2c1 0 1.7-.2 2.2-.5.4-.4.7-1 .7-1.7 0-.8-.2-1.4-.7-1.8-.4-.3-1.2-.5-2.2-.5h-4.2v4.5m0-7.5h4.1c.8 0 1.5-.1 1.9-.4.4-.3.6-.8.6-1.4 0-.7-.2-1.1-.6-1.4-.4-.3-1-.4-1.9-.4h-4.1v3.6m-3.4 10.6v-17.2h8.2c1.7 0 3.1.3 4 1.1.9.7 1.4 1.8 1.4 3.2 0 .9-.2 1.6-.5 2.2-.4.6-.9 1.1-1.6 1.4.9.4 1.6.9 2 1.5.5.7.7 1.6.7 2.6 0 1.6-.6 2.9-1.7 3.9-1.1.9-2.6 1.3-4.6 1.3h-7.9m60 0v-17.2h3.7l7 11.8v-11.8h3.5v17.2h-3.7l-7-11.8v11.8h-3.5m58.4 0v-17.2h5.3l3.4 13.1 3.4-13.1h5.3v17.2h-3.4v-13.9l-3.5 13.9h-3.6l-3.5-13.9v13.9h-3.4m75.6-14v2.6l-10.5 4.3 10.5 4.2v2.6l-13.8-5.7v-2.3l13.8-5.7m-8.7 48.1v-1.4c.7-.2 1.2-.5 1.5-.9.3-.3.4-.9.4-1.5v-.3h-1.9v-3.5h3.6v3.4c0 1.2-.3 2.1-.9 2.8-.6.7-1.5 1.2-2.7 1.4m54.9-48.1 13.8 5.7v2.3l-13.8 5.7v-2.6l10.5-4.2-10.5-4.3v-2.6m5.1 44v-3.5h3.5v3.5h-3.5m60.2-35v-.7c0-.6.1-1.2.2-1.7.2-.4.4-.9.8-1.3.2-.2.6-.6 1.1-1 .5-.4.8-.6.9-.8.4-.4.6-.7.7-1 .1-.2.2-.5.2-.9 0-.7-.2-1.3-.7-1.7-.4-.4-.9-.6-1.7-.6-.7 0-1.3.2-1.7.7-.5.5-.7 1.2-.7 2.1h-3.3v-.4c0-1.6.5-2.9 1.5-3.9a6 6 0 0 1 4.2-1.5c1.8 0 3.3.5 4.3 1.4 1.1.9 1.6 2.2 1.6 3.7 0 .6 0 1.1-.1 1.5-.2.4-.3.8-.6 1.2-.3.4-.8.9-1.5 1.5-.6.5-1.1.8-1.2.9-.3.3-.5.6-.6 1-.2.3-.2.7-.2 1.1v.4h-3.2m-.1 5v-3.4h3.4v3.4h-3.4m-2 32.3 5.8-20h1.6l-5.8 20h-1.6M816 209.6c0-.3.1-.5.1-.7v-.5c0-.4-.1-.7-.4-.9-.2-.3-.5-.4-1-.4h-2.6v4.4h-2.2v-11h5.8c.6 0 1.1.1 1.5.3.4.2.7.5.9.8.2.3.3.6.4.9.1.3.2.7.2 1 0 1.3-.7 2.2-1.9 2.7.3.1.5.2.6.3.1 0 .3.1.4.3.1.1.2.3.3.4 0 .1.1.3.1.6.1.4.1.7.1 1v1.4c0 .4.2.7.5.9v.4h-2.4c-.1-.3-.2-.5-.3-.8 0-.2-.1-.6-.1-1.1m.4-5.8c0-.5-.1-.9-.4-1.1-.2-.2-.6-.3-1.2-.3h-2.7v2.9h2.7c.5 0 .9-.1 1.2-.3.3-.2.4-.6.4-1.2m7.2-.6c.4 0 .7.1 1 .2.4 0 .7.2 1 .4.4.2.7.5.9.8.3.3.5.8.7 1.3.1.5.2 1.1.2 1.8v.4H822v.8c.1.2.2.4.3.7.1.2.3.3.5.5.2.1.5.1.8.1.8 0 1.4-.3 1.6-1h2.1c-.2.8-.7 1.4-1.4 1.9-.6.5-1.4.7-2.3.7-1.2 0-2.1-.3-2.8-1.1-.6-.7-.9-1.8-.9-3.1s.3-2.4 1-3.2c.6-.8 1.5-1.2 2.7-1.2m1.6 3.5c0-.6-.2-1.1-.5-1.4-.3-.3-.6-.5-1.1-.5-.9 0-1.5.7-1.6 1.9h3.2m8.9-3.5c1 0 1.8.5 2.5 1.3.6.8.9 1.8.9 3 0 1.3-.3 2.3-1 3.1-.6.8-1.4 1.2-2.4 1.2s-1.8-.4-2.3-1.3v4.2h-2.1v-11.3h2.1v1.2c.5-.9 1.3-1.4 2.3-1.4m.8 2.5c-.3-.5-.8-.7-1.3-.7s-.9.2-1.3.7c-.3.5-.5 1.1-.5 1.8 0 .8.2 1.4.5 1.9.4.5.8.7 1.3.7s1-.3 1.3-.7c.3-.5.5-1.1.5-1.8 0-.8-.2-1.4-.5-1.9m7.2-2.5c.4 0 .7.1 1 .2.4 0 .7.2 1.1.4.3.2.6.5.9.8.2.3.4.8.6 1.3.1.5.2 1.1.2 1.8v.4h-5.4c0 .3 0 .6.1.8 0 .2.1.4.2.7.1.2.3.3.5.5.2.1.5.1.9.1.8 0 1.3-.3 1.6-1h2c-.2.8-.7 1.4-1.3 1.9-.7.5-1.5.7-2.4.7-1.2 0-2.1-.3-2.7-1.1-.7-.7-1-1.8-1-3.1s.3-2.4 1-3.2c.7-.8 1.6-1.2 2.7-1.2m1.6 3.5c0-.6-.2-1.1-.5-1.4-.2-.3-.6-.5-1.1-.5-.9 0-1.5.7-1.6 1.9h3.2m5.6 5.1c-.8 0-1.4-.2-1.8-.6-.5-.5-.7-1.1-.7-1.8 0-1.4.8-2.3 2.4-2.6l.8-.1c.2 0 .4 0 .6-.1.2 0 .4-.1.5-.1.2-.1.3-.2.5-.3.1-.1.1-.3.1-.5 0-.5-.4-.8-1.2-.8-.5 0-.9.1-1.1.3-.2.1-.3.4-.4.8h-2c.1-1.8 1.3-2.8 3.5-2.8s3.3.9 3.3 2.5v4.5c0 .4.1.7.5 1v.3H852c-.2-.2-.3-.5-.3-.8-.7.7-1.5 1.1-2.4 1.1m2.4-3.6v-.5c-.2 0-.5.1-.9.2l-.7.1c-.4.1-.7.3-.9.4-.2.2-.3.4-.3.8 0 .3.1.5.3.7.2.1.5.2.9.2.5 0 .9-.1 1.2-.5.3-.3.4-.8.4-1.4m8.6-4.7v1.4h-1.2v4.4c0 .4 0 .6.1.8.1.1.3.1.6.1h.5v1.5c-.4.1-.8.1-1.2.1-1.4 0-2.1-.6-2.1-1.9v-5h-1v-1.4h1v-2.1h2.1v2.1h1.2m20.6.7c-.2-1.3-1-1.9-2.3-1.9-.9 0-1.6.3-2.1 1s-.7 1.6-.7 2.8c0 1.2.2 2.2.7 2.8.5.7 1.2 1 2 1 .7 0 1.3-.2 1.7-.5.4-.4.7-1 .7-1.7h2.2c0 1.3-.5 2.3-1.3 3-.9.8-2 1.1-3.3 1.1-1.6 0-2.8-.5-3.7-1.5-.8-1-1.3-2.4-1.3-4.2 0-1.8.5-3.2 1.4-4.2.9-1 2.1-1.5 3.6-1.5 1.3 0 2.4.3 3.2 1a4 4 0 0 1 1.4 2.8h-2.2m6.8-3.7v11h-2.1v-11h2.1m6.1 2.7c.4 0 .7.1 1 .2.4 0 .7.2 1 .4.4.2.7.5.9.8.3.3.5.8.7 1.3.1.5.2 1.1.2 1.8v.4h-5.4v.8c.1.2.2.4.3.7.1.2.3.3.5.5.2.1.5.1.9.1.8 0 1.3-.3 1.6-1h2c-.2.8-.7 1.4-1.3 1.9-.7.5-1.5.7-2.4.7-1.2 0-2.1-.3-2.7-1.1-.7-.7-1-1.8-1-3.1s.3-2.4 1-3.2c.6-.8 1.6-1.2 2.7-1.2m1.6 3.5c0-.6-.2-1.1-.5-1.4-.2-.3-.6-.5-1.1-.5-.9 0-1.5.7-1.6 1.9h3.2m5.6 5.1c-.8 0-1.4-.2-1.8-.6-.5-.5-.7-1.1-.7-1.8 0-1.4.8-2.3 2.4-2.6l.8-.1c.2 0 .4 0 .6-.1.2 0 .4-.1.5-.1.2-.1.3-.2.5-.3.1-.1.1-.3.1-.5 0-.5-.4-.8-1.2-.8-.5 0-.9.1-1.1.3-.2.1-.3.4-.4.8h-2c.1-1.8 1.3-2.8 3.5-2.8s3.3.9 3.3 2.5v4.5c0 .4.1.7.5 1v.3h-2.3c-.2-.2-.3-.5-.3-.8-.7.7-1.5 1.1-2.4 1.1m2.4-3.6v-.5c-.2 0-.5.1-.9.2l-.7.1c-.4.1-.7.3-.9.4-.2.2-.3.4-.3.8 0 .3.1.5.3.7.2.1.5.2.9.2.5 0 .9-.1 1.2-.5.3-.3.4-.8.4-1.4m4-4.8h2.1v1.6a2.54 2.54 0 0 1 2.2-1.8c.1 0 .2 0 .3.1v2.1c-.3-.1-.5-.1-.7-.1-1.2 0-1.8.6-1.8 1.9v4.3h-2.1v-8.1"/></g></g></svg>