<svg xmlns="http://www.w3.org/2000/svg" viewBox="0 0 1925 1050" xml:space="preserve"><path fill="#FFF" d="m1039.38 947.25-2.23-1.14-208.51-107.07 2.29-4.45 206.28 105.93 325.39-633.7-465.46-239-148.42 289.04-4.45-2.28 150.71-293.5 2.22 1.15 472.14 242.42-1.15 2.23zm579.46-440.29c79.36 0 143.92-64.56 143.92-143.92 0-79.36-64.56-143.92-143.92-143.92v92.2a51.78 51.78 0 0 1 51.72 51.72 51.78 51.78 0 0 1-51.72 51.72v92.2z"/><path fill="#FFD829" d="M1588.85 197.92c-34.59 37.37-97.97 62.41-170.44 62.41s-135.86-25.04-170.45-62.41c-17.67-19.1-27.84-41.41-27.84-65.26v460.76h396.57V132.66c0 23.85-10.17 46.16-27.84 65.26z"/><path d="M1619.19 595.92h-401.57V132.66h5c0 22.37 9.4 44.35 27.18 63.56 17.01 18.39 41.24 33.8 70.05 44.58 29.8 11.14 63.87 17.03 98.56 17.03s68.76-5.89 98.55-17.03c28.81-10.78 53.04-26.2 70.06-44.58l1.83 1.7-1.83-1.7c17.77-19.2 27.17-41.19 27.17-63.56h5v463.26zm-396.57-5h391.57v-429.3c-4.68 13.36-12.59 26.2-23.5 38-17.55 18.95-42.44 34.81-71.98 45.86-30.35 11.35-65.03 17.35-100.3 17.35s-69.96-6-100.31-17.35c-29.54-11.05-54.43-26.9-71.97-45.86-10.93-11.8-18.83-24.64-23.5-38v429.3z"/><path d="m1251.08 204.97-4.95-5.35c-18.65-20.15-28.5-43.3-28.5-66.96 0-34.98 21.03-67.79 59.22-92.38 37.85-24.37 88.12-37.8 141.56-37.8s103.7 13.43 141.56 37.8c38.18 24.59 59.22 57.4 59.22 92.38 0 23.65-9.86 46.8-28.5 66.96l-4.95 5.34.62-7.26c.18-2.05.27-4.06.27-5.97 0-59.24-75.47-107.43-168.22-107.43s-168.22 48.19-168.22 107.43c0 1.92.09 3.93.26 5.97l.63 7.27zM1418.4 7.49c-107.96 0-195.79 56.15-195.79 125.17 0 20.35 7.78 40.38 22.57 58.3.3-29.96 18.44-58 51.15-79.07 32.64-21.02 76-32.59 122.07-32.59 46.07 0 89.42 11.57 122.06 32.6 32.7 21.05 50.84 49.1 51.15 79.06 14.79-17.92 22.57-37.95 22.57-58.3 0-69.02-87.83-125.17-195.79-125.17z"/><path d="M1418.4 260.33c72.48 0 135.86-25.04 170.45-62.41.18-2.05.27-4.12.27-6.2 0-60.7-76.43-109.92-170.71-109.92s-170.72 49.22-170.72 109.93a75 75 0 0 0 .27 6.19c34.59 37.37 97.97 62.41 170.44 62.41z"/><path d="M1418.4 262.83c-35.27 0-69.95-6-100.3-17.35-29.54-11.05-54.43-26.9-71.97-45.86l-.59-.63-.07-.86a75.04 75.04 0 0 1-.28-6.4c0-30.25 18.16-58.6 51.14-79.84 32.65-21.01 76-32.59 122.07-32.59s89.43 11.58 122.07 32.6c32.99 21.23 51.15 49.58 51.15 79.83 0 2.05-.1 4.2-.28 6.4l-.07.86-.59.63c-17.54 18.95-42.43 34.81-71.97 45.86-30.35 11.35-65.03 17.35-100.3 17.35zm-168.02-65.98c16.99 18.1 40.99 33.3 69.47 43.95 29.8 11.14 63.88 17.03 98.56 17.03s68.76-5.89 98.55-17.03c28.48-10.65 52.48-25.84 69.47-43.95.13-1.76.2-3.48.2-5.12 0-59.24-75.47-107.43-168.22-107.43s-168.22 48.2-168.22 107.43c0 1.65.06 3.37.2 5.12z"/><path fill="#FFF" d="M1418.4 312.81c-59.45 0-107.65 48.2-107.65 107.66 0 59.46 48.2 107.66 107.66 107.66s107.65-48.2 107.65-107.66c0-59.46-48.2-107.66-107.65-107.66zm0 67.4a8.76 8.76 0 1 1 0-17.5 8.76 8.76 0 0 1 0 17.5z"/><ellipse cx="1389.63" cy="403.51" rx="10.73" ry="26.1"/><ellipse cx="1446.96" cy="403.51" rx="10.73" ry="26.1"/><path d="M1418.4 482.03a72.42 72.42 0 0 1-66.43-43.6 2.5 2.5 0 1 1 4.58-1.98 67.42 67.42 0 0 0 123.7 0 2.5 2.5 0 0 1 4.6 1.99 72.42 72.42 0 0 1-66.44 43.59z"/><path fill="#FFF" d="m1338.92 958.16-36 15.96a19.25 19.25 0 0 1-25.4-9.8l-8.17-18.4c-4.3-9.72.08-21.1 9.8-25.4l36.01-15.96 23.76 53.6z"/><path fill="#FFD829" d="m1302.68 910.05 494.02-218.97 23.76 53.61-494.02 218.96z"/><path d="m1325.2 966.98-25.78-58.18 2.29-1.01 496.31-219.98 25.8 58.18-2.3 1.01-496.31 219.98zm-19.18-55.64 21.73 49.04 489.46-216.93-21.73-49.04-489.46 216.93z"/><path fill="#FFF" d="m1798.04 687.82 12.88 29.05 12.87 29.04 58.26-46.84-10.17-22.95z"/><path d="m1871.88 676.12 10.17 22.95 38.03-30.59zM1342.5 974.87l-5.85 2.6a7.88 7.88 0 0 1-10.4-4.02l-30.92-69.77a7.88 7.88 0 0 1 4.01-10.4l5.84-2.6a7.88 7.88 0 0 1 10.4 4.02l30.92 69.77a7.88 7.88 0 0 1-4 10.4zm-16.64-57.15 477.52-211.65 2.02 4.57-477.52 211.65zm8.38 18.92 477.52-211.65 2.03 4.57-477.53 211.65zM919.43 539.25 413.81 8.52 40.15 364.5l-3.44-3.62L413.98 1.45l1.73 1.81L923.05 535.8z"/><path fill="#FFD829" d="M522.44 948.38a75.05 75.05 0 0 1 23.19-53l.14-.15L38.43 362.69a75.29 75.29 0 0 0-2.58 106.45l507.34 532.53a74.92 74.92 0 0 1-19.15-36.4 67.27 67.27 0 0 1-1.6-16.9z"/><path d="M541.38 1003.4 34.04 470.86a77.28 77.28 0 0 1-21.44-55.54 77.28 77.28 0 0 1 24.1-54.44l1.81-1.72 1.73 1.8L549.3 895.32l-1.89 1.81-1.79-1.75-1.66 1.58-505.59-530.7a72.27 72.27 0 0 0-20.78 49.2 72.31 72.31 0 0 0 20.07 51.96L545 999.95l-3.62 3.45z"/><path fill="#FFF" d="M597.72 1027.5a77.57 77.57 0 0 1-56.34-24.1 77.28 77.28 0 0 1-21.44-55.55 77.28 77.28 0 0 1 24.1-54.43l1.73 1.8-1.72-1.8 377.27-359.43 107.32 112.64-1.81 1.73-375.47 357.7a77.52 77.52 0 0 1-53.64 21.43zm323.43-486.44L547.5 897.04a72.31 72.31 0 0 0-22.56 50.94A72.31 72.31 0 0 0 545 999.95a72.6 72.6 0 0 0 52.72 22.54 72.51 72.51 0 0 0 50.2-20.05l373.65-355.98-100.42-105.4z"/><path fill="#FFF" d="M521.08 951.26 936.35 553.3l3.46 3.6-415.27 397.97zm71.27 71.91L1006.4 626.4l3.45 3.6-414.03 396.78zm-27.83-8.37 424.36-406.68 3.46 3.61-424.37 406.67zm-22.09-13.9 428.94-411.06 3.46 3.61-428.94 411.05zm-14.77-20.91 426.2-408.42 3.45 3.6L531.12 983.6z"/><path d="m828.7 963.98-73.9 7.51-10.66 73.51-134.38-140.25 84.56-81.03z"/><path d="M745.88 1050.43 606.22 904.67l88.17-84.48 139.66 145.75-77.06 7.84-11.11 76.65zm-132.59-145.6 129.11 134.74 10.2-70.37 70.75-7.2-129.1-134.74-80.96 77.56z"/><path fill="#FFF" d="M382.6 328.26a2.5 2.5 0 0 1-1.58-.57L266.48 233.8a2.5 2.5 0 0 1 3.17-3.87l104.34 85.53-30.43-54.44a2.5 2.5 0 0 1 3.49-3.35l53.09 32.73-81-107.9a2.5 2.5 0 0 1 4-3l88.92 118.45a2.5 2.5 0 0 1-3.31 3.63l-56.14-34.6 32.18 57.56a2.5 2.5 0 0 1-2.18 3.72zm-66.13 63.37h-.06a2.5 2.5 0 0 1-1.75-.77L212.93 284.69a2.5 2.5 0 0 1 .08-3.53l29.95-28.7a2.33 2.33 0 0 1 1.78-.7c.66.02 1.3.3 1.75.78L348.22 358.7a2.5 2.5 0 0 1-.07 3.53l-29.95 28.7a2.5 2.5 0 0 1-1.73.7zm-98.2-108.6 98.27 102.57 26.34-25.24-98.27-102.56-26.34 25.24zm169.9 288.69h-.06a2.5 2.5 0 0 1-1.75-.77L284.63 464.77a2.5 2.5 0 0 1 .08-3.53l29.95-28.7a2.5 2.5 0 0 1 3.54.08l101.72 106.17a2.5 2.5 0 0 1-.07 3.53l-29.95 28.7a2.5 2.5 0 0 1-1.73.7zm-98.2-108.6 98.27 102.56 26.34-25.24-98.27-102.56-26.34 25.24zm240.39 120.43c-.43 0-.87-.11-1.27-.35l-66.13-39.04a2.5 2.5 0 0 1 2.54-4.3l58.25 34.38-31.78-59.76a2.5 2.5 0 0 1 4.42-2.34l35.66 67.05.12.13a2.5 2.5 0 0 1-1.8 4.23z"/><path fill="#FFF" d="M581.23 636.63a2.5 2.5 0 0 1-1.8-.77L528.2 582.4a2.5 2.5 0 1 1 3.6-3.46l51.23 53.46a2.5 2.5 0 0 1-1.8 4.23zM264.68 441.25a2.5 2.5 0 0 1-1.8-.77L161.13 334.31a2.5 2.5 0 1 1 3.62-3.46l101.72 106.17a2.5 2.5 0 0 1-1.8 4.23zm29.95-28.69a2.5 2.5 0 0 1-1.8-.78L191.08 305.61a2.5 2.5 0 1 1 3.61-3.46l101.73 106.18a2.5 2.5 0 0 1-1.8 4.23z"/><path fill="#FFF" d="M213.81 388.17a2.5 2.5 0 0 1-1.73-4.3l29.95-28.7a2.5 2.5 0 1 1 3.46 3.6l-29.95 28.7c-.48.47-1.1.7-1.73.7zm196.25 310.07a2.5 2.5 0 0 1-1.8-.78l-50.87-53.08a2.5 2.5 0 1 1 3.61-3.46l50.86 53.09a2.5 2.5 0 0 1-1.8 4.23z"/><path fill="#FFF" d="M359.2 645.15a2.5 2.5 0 0 1-1.73-4.3l29.95-28.7a2.5 2.5 0 1 1 3.45 3.6l-29.95 28.7c-.48.47-1.1.7-1.73.7zm101.76 106.21a2.5 2.5 0 0 1-1.73-4.3l28.8-27.61-47.43-49.51-28.81 27.6a2.5 2.5 0 1 1-3.46-3.6l29.95-28.7.11-.1.71-.6c1-.86 2.5-.78 3.42.17l50.86 53.09a2.5 2.5 0 0 1-.09 3.55l-.67.63-29.93 28.68c-.49.47-1.11.7-1.73.7zM351.35 606.99a2.5 2.5 0 0 1-1.8-.77L247.82 500.05a2.5 2.5 0 1 1 3.6-3.46l101.74 106.17a2.5 2.5 0 0 1-1.8 4.23z"/><path fill="#FFF" d="M234.07 514.56a2.5 2.5 0 0 1-1.73-4.3l29.95-28.7a2.5 2.5 0 1 1 3.46 3.6l-29.95 28.7c-.49.47-1.11.7-1.73.7zm293.91 173.09a2.5 2.5 0 0 1-1.8-.77L424.43 580.71a2.5 2.5 0 1 1 3.61-3.46l101.73 106.18a2.5 2.5 0 0 1-1.8 4.22z"/><path fill="#FFF" d="M410.7 595.23a2.5 2.5 0 0 1-1.74-4.31l29.95-28.7a2.5 2.5 0 1 1 3.46 3.61l-29.95 28.7c-.48.46-1.1.7-1.73.7z"/><g fill="#FFF"><path d="M619.2 600.25a2.5 2.5 0 0 1-1.8-.77L515.65 493.3a2.5 2.5 0 1 1 3.62-3.46L621 596.02a2.5 2.5 0 0 1-1.8 4.23z"/><path d="M619.06 600.1a2.5 2.5 0 0 1-1.73-4.3l29.95-28.7a2.5 2.5 0 1 1 3.46 3.61l-29.95 28.7c-.48.47-1.1.7-1.73.7z"/></g><g fill="#FFF"><path d="M670.69 550.33a2.5 2.5 0 0 1-1.81-.77L567.15 443.4a2.5 2.5 0 0 1 .08-3.53l29.95-28.7a2.5 2.5 0 1 1 3.46 3.61l-28.15 26.97 98.27 102.56 28.15-26.97a2.5 2.5 0 1 1 3.46 3.61l-29.95 28.7c-.49.46-1.11.7-1.73.7z"/><path d="M619.82 497.25a2.5 2.5 0 0 1-1.73-4.3l29.95-28.7a2.5 2.5 0 1 1 3.46 3.6l-29.95 28.7c-.48.47-1.1.7-1.73.7z"/></g><path d="M227.42 472.69h-.3a13.51 13.51 0 0 1-9.54-4.2l-30.38-31.7-26.07 2.04a2.49 2.49 0 0 1-2.68-2.8l3.16-25.96-30.39-31.7c-5.19-5.42-5-14.05.41-19.24l6.96-6.67a2.5 2.5 0 0 1 3.46 3.61l-6.96 6.66a8.62 8.62 0 0 0-.26 12.17l31.25 32.61c.65.69.84 1.65.57 2.5l-2.87 23.6 23.84-1.87a2.54 2.54 0 0 1 2.33.7l31.24 32.6a8.55 8.55 0 0 0 6.03 2.64c2.3.07 4.48-.8 6.14-2.39l6.96-6.66a2.5 2.5 0 1 1 3.46 3.6l-6.96 6.67a13.5 13.5 0 0 1-9.4 3.79zm503.46 19.96a2.5 2.5 0 0 1-1.73-4.3l6.96-6.67a8.62 8.62 0 0 0 .26-12.17l-31.24-32.6a2.5 2.5 0 0 1-.58-2.5l2.87-23.6-23.83 1.87a2.54 2.54 0 0 1-2.33-.7L650 379.4a8.62 8.62 0 0 0-12.17-.26l-6.95 6.67a2.5 2.5 0 1 1-3.46-3.61l6.95-6.67a13.54 13.54 0 0 1 9.7-3.77c3.64.07 7.03 1.56 9.54 4.19l30.38 31.7 26.07-2.04a2.5 2.5 0 0 1 2.68 2.8l-3.15 25.96 30.38 31.7c5.2 5.42 5 14.05-.41 19.24l-6.95 6.67c-.5.46-1.11.7-1.74.7zm-260.18-.01a2.5 2.5 0 0 1-2.21-1.33L396.7 356.45a2.5 2.5 0 0 1 4.41-2.35l71.78 134.86a2.5 2.5 0 0 1-2.2 3.68zm-29.28 28.06a2.5 2.5 0 0 1-2.21-1.33L367.43 384.5a2.5 2.5 0 0 1 4.41-2.35l71.78 134.87a2.5 2.5 0 0 1-2.2 3.68z"/><circle cx="451.21" cy="369.88" r="5.06"/><circle cx="491.15" cy="411.56" r="5.06"/><path d="M529.74 803.97a6.72 6.72 0 0 0 2.13-5.56c-.04-.6.05-.94.43-1.3.41-.4 1.09-.46 1.5-.03.35.36.42.66.44 1.06a9.42 9.42 0 0 1-3 7.4c-4.06 3.88-9.65 3.03-14.42-1.95-4.78-4.99-5.36-10.58-1.3-14.46a9.42 9.42 0 0 1 7.51-2.68c.4.03.7.12 1.04.47.42.44.33 1.1-.09 1.5-.38.37-.73.44-1.32.38a6.72 6.72 0 0 0-5.65 1.89c-2.87 2.76-2.61 6.92 1.53 11.25s8.33 4.79 11.2 2.03zm3.49-16.1c-4.41-4.6-5.74-10.22-1.69-14.1 4.06-3.88 9.6-2.32 14.01 2.29 4.44 4.62 5.77 10.23 1.71 14.12s-9.6 2.31-14.03-2.31zm10.6-10.16c-3.65-3.8-7.97-5.08-10.8-2.38-2.81 2.7-1.72 7.07 1.92 10.88 3.65 3.81 8 5.11 10.82 2.4 2.82-2.7 1.7-7.1-1.94-10.9zm13.67.24-13.3-13.89c-.53-.55-.51-1.2.04-1.72l2.87-2.75c4.85-4.65 10.44-3.64 14.77.88 4.27 4.46 5.07 10.11.22 14.76l-2.88 2.75c-.55.53-1.19.51-1.71-.03zm1.05-2.26 1.89-1.81c4.08-3.91 2.94-8.4-.29-11.76-3.23-3.37-7.68-4.72-11.76-.81l-1.89 1.8 12.05 12.58zm15.31-13.41-13.3-13.89c-.53-.55-.52-1.19.03-1.72l9.01-8.63c.6-.58 1.25-.51 1.67-.07.42.44.46 1.08-.15 1.66-1.26 1.2-6.4 5.98-8.32 7.76l5.23 5.45a905.8 905.8 0 0 1 6-5.9c.6-.58 1.24-.51 1.66-.08s.46 1.09-.14 1.66c-.9.87-4.1 3.83-6.16 5.75l5.56 5.8c2.03-2 6.85-6.77 8.11-7.98.6-.58 1.25-.5 1.67-.07.42.44.46 1.08-.14 1.66l-9.01 8.64c-.55.52-1.2.5-1.72-.04zm10.87-31.7c1.1-1.05 2.68-1.1 3.68-.06s.88 2.63-.21 3.68c-1.1 1.05-2.68 1.1-3.68.05s-.88-2.62.21-3.67zm8.3 8.66c1.1-1.05 2.68-1.1 3.67-.06 1 1.04.89 2.62-.2 3.67-1.1 1.05-2.69 1.1-3.69.06s-.88-2.62.22-3.67zm13.76-8.62c-1.16.22-1.78.23-2.28-.29-.4-.4-.35-1.08.06-1.47s.87-.47 1.97-.63a9.18 9.18 0 0 0 4.86-2.5c2.2-2.1 3.35-5.1 1.44-7.1-1.63-1.7-3.98-.87-7.27 1.02-4.43 2.56-7.5 3.4-10.1.7-2.36-2.47-1.53-6.37 1.46-9.23 1.86-1.79 4.22-3.05 6.43-3.27.56-.07.99-.06 1.36.32.42.44.46 1.09-.04 1.56-.35.34-.76.41-1.37.53a9.22 9.22 0 0 0-4.91 2.45c-2.3 2.2-2.57 4.56-1.15 6.04 1.7 1.77 4.2.6 6.97-.96 4.42-2.5 7.56-3.72 10.3-.88 2.82 2.96 1.8 7.1-1.6 10.35a12.32 12.32 0 0 1-6.13 3.36zm3.01-28.05c-.6.57-1.24.5-1.66.07-.42-.44-.46-1.08.14-1.66l11.64-11.15c.6-.58 1.25-.51 1.67-.08.42.44.46 1.09-.15 1.66-.98.95-4 3.68-5.08 4.67l13.04 13.61c.58.6.53 1.28.04 1.75s-1.14.46-1.71-.15l-13.05-13.6c-1.01 1.02-3.9 3.93-4.88 4.88zm34.36-7.02-4.93-5.15-13.86-3.17a2.4 2.4 0 0 1-1.27-.62c-.45-.46-.4-1.13.03-1.55.36-.34.76-.36 1.43-.21l12.97 3.12-2.6-13.07c-.11-.67-.08-1.07.28-1.41a1.08 1.08 0 0 1 1.55.03c.37.38.5.9.57 1.3l2.57 13.98 4.93 5.15c.58.6.54 1.27.05 1.74-.5.47-1.14.46-1.72-.14zm-1.7-28.05c.49-.47 1.16-.48 1.74.12l13.04 13.6c1.9-1.85 6.85-6.76 8.11-7.97.6-.58 1.25-.51 1.67-.07.42.43.46 1.08-.15 1.66l-9 8.63c-.55.52-1.2.51-1.72-.04l-13.62-14.21c-.58-.6-.57-1.25-.07-1.72zm30.01.3-13.3-13.9c-.53-.54-.52-1.19.03-1.71l9.01-8.64c.6-.58 1.25-.5 1.67-.07.42.44.46 1.08-.14 1.66-1.26 1.2-6.41 5.98-8.33 7.77l5.23 5.45c1.86-1.84 5.1-5.05 6-5.91.6-.58 1.24-.51 1.66-.07.42.43.46 1.08-.14 1.66-.9.86-4.1 3.82-6.16 5.74l5.56 5.8c2.03-1.99 6.86-6.77 8.11-7.97.6-.58 1.25-.52 1.67-.08.42.44.46 1.09-.14 1.66l-9.01 8.64c-.55.52-1.2.5-1.72-.04zm16.6-15.92L675.77 638c-.53-.55-.52-1.2.03-1.72l3.73-3.57c3.86-3.7 7.4-3.78 9.63-1.45 1.66 1.72 1.75 3.74.88 5.68 2.38-1.14 4.71-1.06 6.52.83 2.86 2.99 1.79 6.9-1.83 10.37l-3.94 3.78c-.55.53-1.2.51-1.72-.03zm-5.86-9.46 2.93-2.8c2.5-2.4 3.16-4.77 1.46-6.55-1.71-1.78-4.11-1.21-6.6 1.18l-2.93 2.8 5.14 5.37zm6.9 7.2 3.15-3.01c2.74-2.63 3.6-5.08 1.6-7.16-1.8-1.89-4.16-1.27-7.06 1.51l-3.12 3 5.43 5.67zm7.47-19.23c-4.4-4.6-5.74-10.21-1.68-14.1 4.05-3.88 9.6-2.31 14 2.29 4.44 4.63 5.77 10.24 1.72 14.12-4.06 3.88-9.6 2.32-14.04-2.31zm10.6-10.16c-3.65-3.8-7.97-5.08-10.79-2.37-2.82 2.7-1.73 7.07 1.92 10.87 3.65 3.81 8 5.11 10.81 2.4 2.82-2.7 1.7-7.1-1.94-10.9zm5.84-5.59c-4.41-4.6-5.74-10.21-1.69-14.1s9.6-2.31 14.01 2.29c4.44 4.63 5.76 10.24 1.71 14.12-4.05 3.89-9.6 2.32-14.03-2.3zm10.6-10.15c-3.65-3.81-7.97-5.08-10.8-2.38s-1.73 7.07 1.92 10.88c3.65 3.8 8 5.1 10.82 2.4s1.7-7.1-1.94-10.9zm24.03-8.53-13.15-2.11-.07 4.48 4.88 5.1c.58.6.54 1.27.04 1.74s-1.13.46-1.71-.15l-13.94-14.54c-.57-.6-.56-1.25-.07-1.72.5-.47 1.17-.48 1.74.12l7.12 7.42-.15-14.73c0-.73.06-1.2.47-1.6.4-.4 1.03-.46 1.5.03.34.36.39.79.4 1.35l-.17 10.3 13.62 1.98c.53.06.88.2 1.17.5.39.42.37 1.12-.12 1.59-.38.37-.76.36-1.56.24z" stroke="#000" stroke-miterlimit="10"/><path fill="#FFD829" d="M433.74 161.75c.65-3.6.04-6.57-1.96-7.92-3.22-2.17-8.99.58-13.66 6.22-2.1-7.01-6.34-11.8-10.16-11.05-3.82.75-5.95 6.77-5.26 14.06-6.46-3.47-12.83-3.85-15-.62-2.17 3.22.58 8.98 6.22 13.66-7.02 2.1-11.8 6.34-11.05 10.16.74 3.82 6.76 5.94 14.06 5.26-3.47 6.45-3.86 12.83-.63 15 3.67 2.47 10.57-1.61 15.47-8.88l2.27-17.46 19.7-18.43z"/><path d="m451.9 126.18-46.1 43.12-16.88-34.71c-1.2-2.48.5-5.4 3.25-5.56L409.2 128a1.35 1.35 0 0 0 1.26-1.18l2.16-16.92a3.87 3.87 0 0 1 5.77-2.87l33.51 19.15z"/><path fill="#FFF" d="m465.52 133.8-53.02 49.6-6.7-14.09 46.1-43.13z"/><path d="m488.25 132.36-78.7 73.62 2.95-22.58 53.02-49.6z"/><path fill="#FFD829" d="M454.35 240.03a21.4 21.4 0 0 1-15.59-6.7 21.3 21.3 0 0 1-5.85-15.33 21.3 21.3 0 0 1 6.7-14.98 21.3 21.3 0 0 1 15.33-5.86 21.3 21.3 0 0 1 14.98 6.7 21.3 21.3 0 0 1 5.86 15.34 21.3 21.3 0 0 1-6.7 14.98 21.36 21.36 0 0 1-14.73 5.85zm-.02-37.88c-4.21 0-8.2 1.59-11.28 4.5a16.34 16.34 0 0 0-5.14 11.49 16.46 16.46 0 0 0 32.87.92c.12-4.4-1.47-8.57-4.49-11.76a16.33 16.33 0 0 0-11.96-5.15zm41.78-.66a21.39 21.39 0 0 1-15.58-6.7 21.47 21.47 0 0 1 .85-30.32 21.47 21.47 0 0 1 30.3.85 21.47 21.47 0 0 1-.84 30.31 21.38 21.38 0 0 1-14.73 5.86zm0-37.87c-4.06 0-8.13 1.48-11.3 4.48a16.46 16.46 0 0 0-.65 23.25 16.46 16.46 0 0 0 23.24.65 16.46 16.46 0 0 0 .66-23.25 16.4 16.4 0 0 0-11.96-5.13z"/><path fill="#FFD829" d="M468.58 208.58a2.5 2.5 0 0 1-1.82-.78 11.89 11.89 0 0 1-3.27-8.56c.1-3.2 1.42-6.17 3.75-8.36a11.9 11.9 0 0 1 8.56-3.27 11.9 11.9 0 0 1 8.36 3.74 2.5 2.5 0 0 1-3.63 3.43 6.94 6.94 0 0 0-12.03 4.6 6.92 6.92 0 0 0 1.9 4.98 2.5 2.5 0 0 1-1.82 4.22z"/><path d="M494.82 232.38a11.9 11.9 0 0 1-8.7-3.74 2.5 2.5 0 1 1 3.63-3.44 6.98 6.98 0 0 0 10.13-9.57 2.5 2.5 0 1 1 3.63-3.44 11.99 11.99 0 0 1-8.7 20.2z"/><circle cx="454.34" cy="218.6" r="5.08"/><circle cx="496.11" cy="180.05" r="5.08"/></svg>