<svg xmlns="http://www.w3.org/2000/svg" viewBox="0 0 1080 1080" xml:space="preserve"><path fill="#FFF" d="m584.75 1078.88-.78-1.83-69.42-164.93 3.69-1.55 68.65 163.1L983.92 910.3l-222.4-540.47-244.05 100.42-1.52-3.7L763.7 364.6l.76 1.85 224.68 546.02-1.85.76z"/><path fill="#FFD829" d="M21.42 800.7a64.92 64.92 0 0 1 46.32-19.39l-.31-636.25a65.13 65.13 0 0 0-65.1 65.16l.31 636.25a64.8 64.8 0 0 1 9.7-34.23 58.16 58.16 0 0 1 9.08-11.54z"/><path d="m514.33 781.09-.31-634.25-446.59.22-.01-4 450.6-.22.31 638.25z"/><path d="M.64 846.47.33 210.22a66.7 66.7 0 0 1 19.64-47.48 66.69 66.69 0 0 1 47.45-19.68h2l.32 637.3v.07c-.05.77-.18 2.82-2.11 2.89l-.1-3h-1.69a1.1 1.1 0 0 0-.15.4l.05-.47-.31-633.16a63.2 63.2 0 0 0-61.1 63.13l.31 636.25h-4zm65.27-66.27 1.61.1-.03-.98c-.74.02-1.29.44-1.58.88z"/><path fill="#FFF" d="M67.77 913.57a67.2 67.2 0 0 1-67.13-67.1A66.7 66.7 0 0 1 20.28 799a66.69 66.69 0 0 1 47.46-19.68l450.59-.22.06 134.25-450.59.23h-.03zm446.56-130.48-446.6.22a62.71 62.71 0 0 0-44.62 18.51 62.72 62.72 0 0 0-18.47 44.65 63.2 63.2 0 0 0 63.13 63.1h.03l446.6-.22-.07-126.26z"/><path fill="#FFF" d="m18.84 801.85 497.54-1.7.01 4-497.54 1.7zm1.78 87.56 496.05-1.68.01 4-496.05 1.68zM8.17 867.56l508.44-1.72.01 4-508.44 1.72zm-5.54-21.88 513.9-1.74.01 4-513.9 1.74zm3.2-21.9 510.62-1.74.01 4-510.62 1.74z"/><path d="m204.02 993.12-50.78-39.37-50.52 39.71-.57-168.02 101.31-.34z"/><path d="m100.73 997.56-.59-174.12 105.31-.35.59 174.12-52.8-40.92-52.51 41.27zm3.43-170.13.54 161.92 48.53-38.13 48.78 37.8-.54-161.92-97.31.33z"/><path fill="#FFF" d="M311.11 329.17h-.13a2 2 0 0 1-1.85-1.75l-15.78-127.14a2 2 0 1 1 3.97-.5l14.48 116.67 13.6-53.09a2 2 0 0 1 3.87-.01l13.98 53 13.7-116.77a2 2 0 1 1 3.97.47L345.99 327.3a2 2 0 0 1-3.92.27l-14.7-55.76-14.32 55.86a2 2 0 0 1-1.94 1.5zm-79.23.27a2 2 0 0 1-2-2l-.43-127.19a2 2 0 0 1 2-2l35.87-.13h.01a2 2 0 0 1 2 2l.43 127.2a2 2 0 0 1-2 2l-35.88.12zm1.58-127.2.4 123.2 31.89-.11-.41-123.2-31.88.1zm-64.06 282.8a2 2 0 0 1-2-2l-.42-127.19a2 2 0 0 1 2-2l35.87-.12a2 2 0 0 1 2 1.99l.44 127.2a2 2 0 0 1-2 2l-35.88.12zm1.59-127.2.4 123.2 31.89-.11-.41-123.2-31.88.1zm80.46 219.42a2 2 0 0 1-1.92-1.46l-18.16-63.9a2 2 0 1 1 3.85-1.1l16.15 56.85 15.88-56.95a2 2 0 1 1 3.85 1.07l-17.65 63.3v.18a2 2 0 0 1-2 2z"/><path fill="#FFF" d="M251.66 640.85a2 2 0 0 1-2-1.99l-.21-64.05a2 2 0 1 1 4-.01l.21 64.05a2 2 0 0 1-1.99 2zm-81.83-311.2a2 2 0 0 1-2-2l-.42-127.2a2 2 0 1 1 4-.01l.42 127.2a2 2 0 0 1-2 2zm35.88-.12a2 2 0 0 1-2-2l-.42-127.2a2 2 0 1 1 4-.01l.42 127.2a2 2 0 0 1-1.99 2z"/><path fill="#FFF" d="M169.62 266.05a2 2 0 0 1 0-4l35.87-.12h.01a2 2 0 0 1 0 4l-35.87.12h-.01zm-61.95 311.32a2 2 0 0 1-2-1.99l-.21-63.6a2 2 0 1 1 4-.01l.21 63.6a2 2 0 0 1-2 2z"/><path fill="#FFF" d="M107.46 513.78a2 2 0 0 1 0-4l35.87-.12a2 2 0 0 1 .01 4l-35.88.12zm.42 127.23a2 2 0 0 1 0-4l34.67-.11-.2-59.64-34.67.11a2 2 0 0 1-.02-4l35.88-.12h.13l.8.05a2 2 0 0 1 1.88 2l.21 63.6a2 2 0 0 1-2 2h-.8l-35.87.11zm17.42-155.82a2 2 0 0 1-2-2L122.88 356a2 2 0 1 1 4-.01l.42 127.2a2 2 0 0 1-2 2z"/><path fill="#FFF" d="M106.93 357.33a2 2 0 0 1 0-4l35.88-.12a2 2 0 0 1 .01 4l-35.88.12zm80.94 283.74a2 2 0 0 1-2-2l-.43-127.2a2 2 0 1 1 4-.01l.43 127.2a2 2 0 0 1-2 2z"/><path fill="#FFF" d="M169.5 513.2a2 2 0 0 1 0-4l35.87-.11h.01a2 2 0 0 1 0 4l-35.87.12h-.01z"/><g fill="#FFF"><path d="M297.15 640.7a2 2 0 0 1-2-2l-.42-127.19a2 2 0 1 1 4-.01l.42 127.2a2 2 0 0 1-1.99 2z"/><path d="M297.15 640.53a2 2 0 0 1 0-4l35.88-.12a2 2 0 0 1 .01 4l-35.88.12z"/></g><g fill="#FFF"><path d="M359.18 640.13a2 2 0 0 1-2-2l-.42-127.19a2 2 0 0 1 1.99-2l35.88-.13a2 2 0 0 1 .01 4l-33.88.12.42 123.2 33.88-.12a2 2 0 0 1 .01 4l-35.88.12z"/><path d="M358.97 576.53a2 2 0 0 1 0-4l35.87-.12h.01a2 2 0 0 1 0 4l-35.87.12z"/></g><path d="M134.36 329.77c-3.09 0-6-1.2-8.18-3.38a11.54 11.54 0 0 1-3.43-8.2l-.13-38.06-17.61-14.32a2 2 0 0 1-.01-3.09l17.51-14.44-.12-38.06a11.54 11.54 0 0 1 3.37-8.22c2.18-2.2 5.1-3.42 8.2-3.43l8.33-.03a2 2 0 0 1 .01 4l-8.33.03a7.62 7.62 0 0 0-7.58 7.63l.13 39.07a2 2 0 0 1-1.06 1.77l-16.03 13.21 16.23 13.2a2 2 0 0 1 .96 1.67l.13 39.06a7.62 7.62 0 0 0 7.6 7.59h.03l8.33-.03h.01a2 2 0 0 1 0 4l-8.32.03h-.04zM431.3 639.89a2 2 0 0 1 0-4l8.33-.03a7.57 7.57 0 0 0 7.58-7.63l-.13-39.07a2 2 0 0 1 1.06-1.77l16.03-13.21-16.23-13.2a2 2 0 0 1-.96-1.67l-.13-39.06a7.5 7.5 0 0 0-2.25-5.37 7.56 7.56 0 0 0-5.36-2.21h-.02l-8.34.02a2 2 0 0 1-.01-4l8.33-.02h.04c3.09 0 6 1.2 8.18 3.37 2.2 2.18 3.42 5.1 3.43 8.2l.13 38.06 17.61 14.32a2 2 0 0 1 .01 3.1l-17.52 14.43.13 38.06c.01 3.1-1.19 6.02-3.37 8.22a11.53 11.53 0 0 1-8.2 3.43l-8.33.03zM268.28 484.71a2 2 0 0 1-1.93-2.54l35.45-127.31a2 2 0 0 1 3.85 1.07L270.2 483.24a2 2 0 0 1-1.92 1.47zm-35.08.12a2 2 0 0 1-1.93-2.54l35.46-127.32a2 2 0 0 1 3.85 1.08l-35.45 127.31a2 2 0 0 1-1.93 1.47z"/><circle cx="327.79" cy="395.74" r="4.38"/><circle cx="327.95" cy="445.67" r="4.38"/><path d="M118.12 714.57a5.8 5.8 0 0 0 4.65-2.21c.33-.4.6-.56 1.05-.56.5 0 .96.35.96.88 0 .43-.13.66-.36.92a8.16 8.16 0 0 1-6.3 2.84c-4.85.02-7.85-3.84-7.87-9.82-.02-5.97 2.95-9.82 7.81-9.84 2.27 0 4.57.81 6.31 2.8.23.27.37.5.37.92 0 .53-.46.9-.95.9-.46 0-.72-.17-1.05-.56a5.82 5.82 0 0 0-4.67-2.19c-3.45.02-5.77 2.78-5.75 7.97.02 5.18 2.36 7.97 5.8 7.95zm11.78-8.01c-.01-5.52 2.5-9.82 7.36-9.84 4.86-.02 7.4 4.27 7.42 9.79.02 5.54-2.5 9.85-7.35 9.87-4.86.02-7.4-4.27-7.42-9.82zm12.71-.04c-.02-4.57-1.96-7.94-5.34-7.93s-5.31 3.4-5.3 7.96 1.97 7.97 5.35 7.96c3.38-.01 5.3-3.43 5.29-8zm8.43 8.31-.06-16.65c0-.65.4-1.05 1.05-1.05l3.44-.01c5.81-.02 8.71 3.94 8.73 9.35.02 5.36-2.85 9.37-8.66 9.39l-3.45.01c-.66 0-1.05-.39-1.05-1.04zm2-.8h2.26c4.9-.02 6.85-3.51 6.83-7.55s-1.99-7.54-6.88-7.52h-2.27l.06 15.07zm17.59.73-.06-16.64c0-.66.4-1.05 1.05-1.06l10.8-.03c.72 0 1.08.42 1.08.95 0 .52-.35.95-1.08.95-1.5 0-7.58-.07-9.84-.1l.02 6.53c2.26-.04 6.2-.12 7.28-.12.73 0 1.09.42 1.1.95s-.37.95-1.09.95c-1.08 0-4.86-.05-7.29-.07l.03 6.96c2.46-.04 8.33-.16 9.84-.17.73 0 1.09.43 1.09.95 0 .53-.36.95-1.08.96l-10.8.03c-.66 0-1.05-.38-1.05-1.04zm25.72-13.38c1.3 0 2.33.91 2.33 2.16 0 1.24-1 2.17-2.32 2.17-1.31 0-2.33-.91-2.34-2.16 0-1.25 1.01-2.17 2.33-2.17zm.03 10.37c1.31 0 2.34.91 2.34 2.16s-1.01 2.17-2.32 2.17c-1.32 0-2.34-.9-2.34-2.16s1-2.16 2.32-2.17zm13.76 2.81c-.85-.56-1.25-.91-1.25-1.54a.9.9 0 0 1 .91-.89c.5 0 .82.23 1.61.78a7.92 7.92 0 0 0 4.54 1.33c2.62 0 5.15-1.2 5.14-3.59 0-2.04-1.98-2.92-5.17-3.7-4.3-1.03-6.73-2.33-6.74-5.58-.01-2.96 2.83-4.9 6.41-4.91 2.23-.01 4.47.6 5.98 1.78.4.3.66.56.66 1.02 0 .52-.36.95-.95.95-.43 0-.72-.2-1.18-.49a7.98 7.98 0 0 0-4.54-1.4c-2.75.02-4.32 1.33-4.32 3.1.01 2.14 2.28 2.89 4.94 3.57 4.27 1.07 6.96 2.18 6.98 5.59 0 3.54-3.1 5.52-7.17 5.54-2.56 0-4.53-.71-5.85-1.56zm18.62-15.78c-.72 0-1.09-.43-1.09-.95 0-.53.36-.95 1.08-.96l13.95-.05c.72 0 1.09.43 1.09.95s-.36.96-1.08.96c-1.18 0-4.7-.08-5.98-.11l.06 16.31c0 .72-.42 1.12-1.01 1.12s-1-.4-1-1.11l-.05-16.31c-1.25.03-4.79.14-5.97.15zm25.72 16.09-.02-6.17-6.8-10.25a2.1 2.1 0 0 1-.43-1.15c0-.55.42-.95.95-.95.42 0 .69.23 1.02.72l6.27 9.7 6.17-9.75c.32-.49.59-.72 1.01-.72.53 0 .96.4.96.95 0 .46-.23.85-.43 1.15l-6.72 10.3.02 6.16c0 .73-.43 1.12-1.02 1.12-.59 0-.98-.39-.98-1.1zm15.65-18.6c.6 0 1.02.4 1.02 1.12l.06 16.3c2.3-.03 8.34-.15 9.85-.15.72 0 1.08.42 1.08.94s-.36.96-1.08.96l-10.8.03c-.65 0-1.05-.39-1.05-1.04l-.06-17.04c0-.72.4-1.11.98-1.12zm18.64 18.09-.06-16.64c0-.66.4-1.05 1.05-1.05l10.8-.04c.72 0 1.08.42 1.08.95 0 .52-.35.95-1.08.95-1.5 0-7.58-.07-9.84-.1l.02 6.54 7.28-.13c.73 0 1.09.43 1.09.95s-.36.95-1.08.96c-1.08 0-4.86-.05-7.29-.08l.03 6.96c2.46-.04 8.33-.16 9.84-.16.73 0 1.09.42 1.09.94 0 .53-.36.96-1.08.96l-10.8.04c-.65 0-1.05-.4-1.05-1.05zm19.88-.06-.05-16.64c0-.66.39-1.06 1.04-1.06l4.47-.01c4.63-.02 6.9 2.04 6.9 4.83.02 2.07-1.13 3.39-2.83 4.08 2.16.72 3.58 2.15 3.59 4.42.01 3.58-3 5.4-7.34 5.4l-4.72.02c-.66 0-1.05-.39-1.06-1.04zm1.98-9.43 3.5-.01c3-.01 4.83-1.1 4.82-3.23 0-2.14-1.85-3.21-4.83-3.2h-3.52l.02 6.44zm.02 8.63 3.78-.01c3.28-.01 5.28-1.04 5.27-3.53 0-2.27-1.85-3.28-5.33-3.27l-3.74.02.02 6.8zm16.15-7.6c-.01-5.52 2.5-9.82 7.36-9.84 4.86-.02 7.4 4.27 7.42 9.79.02 5.54-2.5 9.85-7.35 9.87-4.86.02-7.4-4.27-7.42-9.82zm12.71-.04c-.02-4.57-1.96-7.94-5.34-7.93s-5.31 3.4-5.3 7.96 1.97 7.97 5.35 7.96c3.38-.01 5.3-3.43 5.29-8zm6.99-.03c-.02-5.51 2.5-9.82 7.35-9.84 4.86-.01 7.4 4.28 7.42 9.8.02 5.54-2.5 9.85-7.35 9.87-4.86.01-7.4-4.28-7.42-9.83zm12.7-.04c-.02-4.56-1.96-7.94-5.34-7.93s-5.31 3.4-5.3 7.96 1.97 7.97 5.35 7.96c3.38 0 5.3-3.43 5.29-7.99zm20.15 8.99-7-9.17-2.7 2.77.01 6.1c0 .73-.42 1.12-1.01 1.12s-.99-.39-.99-1.1l-.06-17.44c0-.72.4-1.11.98-1.12s1.02.4 1.02 1.12l.03 8.9 8.7-9.33c.43-.46.76-.72 1.25-.72s.92.32.92.91c0 .43-.23.73-.55 1.09l-6.25 6.35 7.35 9.37c.3.36.43.65.43 1.01 0 .5-.42.92-1.02.93-.45 0-.69-.23-1.11-.79z" stroke="#000" stroke-miterlimit="10"/><path fill="#FFD829" d="M425.62 245.1c2.55-1.85 3.93-4.06 3.48-6.1-.72-3.26-5.95-4.97-12.21-4.22 2.85-5.63 3.04-11.12.22-12.92-2.82-1.8-7.72.68-11.63 5.64-1.96-6-5.7-10.02-8.98-9.3-3.27.73-4.97 5.95-4.23 12.22-5.62-2.85-11.12-3.05-12.92-.22-1.8 2.82.69 7.72 5.65 11.62-6 1.97-10.02 5.71-9.3 8.98.82 3.72 7.55 5.27 14.92 3.65l11.78-9.55 23.22.2z"/><path d="m458.06 233.7-54.35-.47 10.08-31.66a3.33 3.33 0 0 1 5.33-1.54l11.23 9.46c.43.36 1.05.36 1.49.01l11.4-9.27a3.34 3.34 0 0 1 5.29 1.63l9.53 31.84z"/><path fill="#FFF" d="m462.03 246.54-62.5-.54 4.18-12.77 54.35.47z"/><path d="m477.06 259.13-92.78-.8L399.53 246l62.5.54z"/><path fill="#FFD829" d="M404.73 311.1h-.06a18.2 18.2 0 0 1-12.93-5.4 18.19 18.19 0 0 1-5.32-12.97 18.2 18.2 0 0 1 5.4-12.93 18.19 18.19 0 0 1 12.9-5.32h.07a18.2 18.2 0 0 1 12.93 5.4 18.19 18.19 0 0 1 5.32 12.97 18.19 18.19 0 0 1-5.4 12.93 18.18 18.18 0 0 1-12.9 5.32zm0-32.62c-3.8 0-7.38 1.47-10.08 4.16a14.22 14.22 0 0 0-4.23 10.1 14.21 14.21 0 0 0 4.16 10.13 14.22 14.22 0 0 0 10.1 4.23h.05c3.8 0 7.38-1.48 10.08-4.16a14.22 14.22 0 0 0 4.23-10.1 14.21 14.21 0 0 0-4.16-10.14 14.22 14.22 0 0 0-10.1-4.22h-.05zm48.93 33.37h-.07a18.2 18.2 0 0 1-12.92-5.4 18.33 18.33 0 0 1 12.99-31.21l.06-.01a18.33 18.33 0 0 1 18.24 18.37 18.2 18.2 0 0 1-5.4 12.93 18.2 18.2 0 0 1-12.9 5.32zm0-32.62a14.33 14.33 0 0 0-10.16 24.4 14.22 14.22 0 0 0 10.1 4.22h.05c3.8 0 7.39-1.48 10.09-4.16a14.33 14.33 0 0 0-10.04-24.46h-.05zm16.3 14.36h.01z"/><path fill="#FFD829" d="M437.35 295.49h-.01a2 2 0 0 1-2-2.01 6.11 6.11 0 0 0-6.13-6.18h-.02a6.12 6.12 0 0 0-6.15 6.14 2 2 0 0 1-2 2h-.01a2 2 0 0 1-2-2.01 10.14 10.14 0 0 1 3-7.17 10.09 10.09 0 0 1 7.16-2.95h.03c2.72 0 5.26 1.07 7.17 3a10.08 10.08 0 0 1 2.95 7.18 2 2 0 0 1-2 2z"/><path d="M428.9 328.1h-.04a10.11 10.11 0 0 1-7.17-3 10.09 10.09 0 0 1-2.95-7.2 2 2 0 0 1 4 .01 6.12 6.12 0 0 0 6.13 6.19h.02a6.12 6.12 0 0 0 6.16-6.14 2 2 0 1 1 4 .01 10.14 10.14 0 0 1-3 7.18 10.09 10.09 0 0 1-7.16 2.95z"/><circle cx="404.73" cy="292.79" r="4.38"/><circle cx="453.65" cy="293.54" r="4.38"/><path fill="#FFF" d="M967.27 396.13c62.16 0 112.73-50.57 112.73-112.73 0-62.15-50.57-112.72-112.73-112.72v72.22a40.55 40.55 0 0 1 40.51 40.5 40.56 40.56 0 0 1-40.5 40.52v72.21z"/><path fill="#FFD829" d="M943.78 154.07c-27.09 29.27-76.73 48.89-133.5 48.89-56.76 0-106.4-19.62-133.5-48.89-13.84-14.96-21.8-32.43-21.8-51.11v360.9h310.6v-360.9c0 18.68-7.95 36.15-21.8 51.11z"/><path d="M967.59 465.85H652.98v-362.9h4c0 17.52 7.36 34.73 21.27 49.76 27.54 29.76 78.13 48.25 132.03 48.25 53.9 0 104.5-18.49 132.04-48.25 13.91-15.03 21.27-32.24 21.27-49.75h4v362.9zm-310.61-4h306.6V125.9c-3.67 10.39-9.83 20.36-18.33 29.54l-1.47-1.36 1.47 1.36c-13.74 14.85-33.24 27.28-56.39 35.94-23.77 8.89-50.94 13.59-78.58 13.59s-54.8-4.7-78.57-13.6c-23.15-8.65-42.65-21.08-56.4-35.93-8.49-9.18-14.66-19.15-18.33-29.54v335.96z"/><path d="m941.3 159.71.5-5.81c.13-1.6.2-3.18.2-4.68 0-46.37-59.09-84.1-131.72-84.1s-131.71 37.73-131.71 84.1c0 1.5.07 3.07.2 4.68l.5 5.8-3.95-4.27c-14.62-15.79-22.34-33.93-22.34-52.47 0-27.42 16.48-53.13 46.4-72.4C729.04 11.47 768.42.96 810.28.96s81.25 10.51 110.9 29.6c29.93 19.27 46.4 44.98 46.4 72.4 0 18.54-7.72 36.68-22.33 52.47l-3.96 4.28zM810.28 4.96c-84.54 0-153.31 43.96-153.31 98 0 15.9 6.06 31.54 17.6 45.54.6-48.25 61.24-87.38 135.7-87.38S945.4 100.25 946 148.5c11.53-14 17.59-29.64 17.59-45.54 0-54.04-68.77-98-153.3-98z"/><path d="M810.28 202.96c56.77 0 106.41-19.62 133.5-48.89.14-1.6.22-3.22.22-4.85 0-47.55-59.87-86.1-133.72-86.1s-133.71 38.55-133.71 86.1c0 1.63.07 3.25.21 4.85 27.1 29.27 76.74 48.89 133.5 48.89z"/><path d="M810.28 204.96c-27.63 0-54.8-4.7-78.57-13.6-23.15-8.65-42.65-21.08-56.4-35.93l-.46-.5-.06-.69c-.15-1.72-.22-3.4-.22-5.02 0-48.58 60.88-88.1 135.71-88.1S946 100.64 946 149.22c0 1.62-.07 3.3-.22 5.02l-.06.69-.47.5c-13.74 14.85-33.24 27.28-56.39 35.94-23.77 8.89-50.94 13.59-78.58 13.59zm-131.56-51.74c27.65 29.46 77.97 47.74 131.56 47.74 53.6 0 103.92-18.28 131.57-47.74.1-1.37.15-2.71.15-4 0-46.37-59.09-84.1-131.72-84.1s-131.71 37.73-131.71 84.1c0 1.29.05 2.63.15 4z"/><path fill="#FFF" d="M810.28 244.06a84.32 84.32 0 1 0 0 168.65 84.32 84.32 0 0 0 0-168.65zm0 52.8a6.86 6.86 0 1 1 0-13.72 6.86 6.86 0 0 1 0 13.71z"/><ellipse cx="787.75" cy="315.11" rx="8.4" ry="20.44"/><ellipse cx="832.65" cy="315.11" rx="8.4" ry="20.44"/><path d="M810.28 376.64a56.77 56.77 0 0 1-52.07-34.17 2 2 0 1 1 3.67-1.59 52.77 52.77 0 0 0 96.81 0 2 2 0 1 1 3.67 1.6 56.77 56.77 0 0 1-52.08 34.16z"/><path fill="#FFF" d="m688.89 840.72-15.46 11.03a18.98 18.98 0 0 1-22.05-30.9l15.46-11.03 22.05 30.9z"/><path fill="#FFD829" d="m659.62 814.93 284.8-203.2 22.06 30.9-284.8 203.2z"/><path d="m681.25 848.63-24.38-34.16 1.63-1.16 286.44-204.38 24.37 34.16-1.62 1.16-286.45 204.38zm-18.8-33.23 19.73 27.65 281.55-200.9-19.72-27.64-281.56 200.9z"/><path fill="#FFF" d="m944.89 608.83 12.2 17.1 12.2 17.1 31.51-38.08-9.64-13.51z"/><path d="m991.16 591.44 9.64 13.51 20.56-24.87zM691.7 851.9a7.07 7.07 0 0 1-9.85-1.64l-25.93-36.34a7.07 7.07 0 0 1 11.5-8.21l25.93 36.34a7.07 7.07 0 0 1-1.64 9.86z"/><path d="m679.05 822.01 275.26-196.49 2.33 3.26-275.26 196.49z"/></svg>