<svg xmlns="http://www.w3.org/2000/svg" viewBox="0 0 1920 1080" xml:space="preserve"><path fill="#41E847" d="m770.373 258.658 137.909-74.176a77.281 77.281 0 0 1 64.884-3.861l45.705 17.97a77.28 77.28 0 0 0 70.156-6.971l49.028-31.613c28.266-18.225 65.073-16.077 91.027 5.312l82.454 67.954v25.384H770.373z"/><circle fill="#41E847" cx="1052.867" cy="147.677" r="21.557"/><path fill="#41E847" d="M303.895 220.409v-35.564h-28.692a76.417 76.417 0 0 0-9.496-22.447l20.112-20.112-25.148-25.148-20.289 20.289a76.4 76.4 0 0 0-22.586-9.17v-28.43h-35.564v28.692a76.417 76.417 0 0 0-22.447 9.496l-20.112-20.112-25.148 25.148 20.289 20.289a76.4 76.4 0 0 0-9.17 22.586H97.213v35.564h28.692a76.417 76.417 0 0 0 9.496 22.447l-20.112 20.112 25.148 25.148 20.289-20.289a76.4 76.4 0 0 0 22.586 9.17v28.431h35.564v-28.692a76.417 76.417 0 0 0 22.447-9.496l20.112 20.112 25.148-25.148-20.289-20.289a76.4 76.4 0 0 0 9.17-22.586h28.431zm-103.341 23.413c-22.453 0-40.655-18.202-40.655-40.655s18.202-40.655 40.655-40.655 40.655 18.202 40.655 40.655c0 22.454-18.201 40.655-40.655 40.655z"/><path d="M1406.041 541.67H772.632V323.054h633.409V541.67zm-629.409-4h625.409V327.054H776.632V537.67z"/><path d="M1513.923 325.054H494.161l-43.158-67.765h1062.92c18.713 0 33.882 15.17 33.882 33.882 0 18.714-15.169 33.883-33.882 33.883z"/><path d="M1381.145 30.791H946.052C945.289 13.684 931.137 0 913.844 0H804.876c-17.292 0-31.445 13.684-32.208 30.791h-.037V258.96h633.409V55.688c.001-13.728-11.168-24.897-24.895-24.897zm-107.594 31.1c0-6.53 5.313-11.844 11.844-11.844s11.844 5.313 11.844 11.844-5.313 11.844-11.844 11.844-11.844-5.314-11.844-11.844zm44.246 0c0-6.53 5.313-11.844 11.844-11.844s11.844 5.313 11.844 11.844-5.313 11.844-11.844 11.844-11.844-5.314-11.844-11.844zm44.245 0c0-6.53 5.313-11.844 11.844-11.844s11.845 5.313 11.845 11.844-5.313 11.844-11.845 11.844c-6.531-.001-11.844-5.314-11.844-11.844zm39.999 193.069H776.632V92.99h625.409v161.97z"/><path fill="#41E847" d="M1800.258 715.656v-35.564h-28.692a76.417 76.417 0 0 0-9.496-22.447l20.112-20.112-25.148-25.148-20.289 20.289a76.4 76.4 0 0 0-22.586-9.17v-28.431h-35.564v28.692a76.417 76.417 0 0 0-22.447 9.496l-20.112-20.112-25.148 25.148 20.289 20.289a76.4 76.4 0 0 0-9.17 22.586h-28.431v35.564h28.692a76.417 76.417 0 0 0 9.496 22.447l-20.111 20.112 25.148 25.148 20.289-20.289a76.4 76.4 0 0 0 22.586 9.17v28.431h35.564v-28.692a76.417 76.417 0 0 0 22.447-9.496l20.112 20.112 25.148-25.148-20.289-20.289a76.4 76.4 0 0 0 9.17-22.586h28.43zm-103.341 23.414c-22.453 0-40.655-18.202-40.655-40.655s18.202-40.655 40.655-40.655 40.655 18.202 40.655 40.655-18.202 40.655-40.655 40.655z"/><path d="M1715.923 901.387H1311.36l.622-2.486 90.118-359.717 71.104-286.757.176-.275c8.871-13.93 24.026-22.246 40.542-22.246 16.515 0 31.671 8.316 40.543 22.246l161.457 253.517v395.718zm-399.438-4h395.438V506.834L1551.093 254.3c-8.134-12.771-22.029-20.395-37.17-20.395-15.032 0-28.837 7.517-36.994 20.122l-70.946 286.124-89.498 357.236zM1133.081 647.327a26.175 26.175 0 0 1-14.604-4.441c-5.847-3.914-9.816-9.867-11.183-16.765-1.365-6.897.036-13.914 3.948-19.757l7.62-11.383-58.017-38.841-7.62 11.383c-8.051 12.026-24.362 15.286-36.412 7.302l-.111-.073c-12.062-8.075-15.306-24.458-7.23-36.52l7.62-11.383-11.382-7.62c-5.844-3.912-9.813-9.865-11.18-16.763-1.365-6.897.036-13.914 3.948-19.757l.115-.169c8.111-11.925 24.397-15.104 36.406-7.065l11.383 7.621 38.841-58.018-11.382-7.62c-12.062-8.075-15.306-24.458-7.231-36.52l.115-.169c3.913-5.753 9.817-9.661 16.65-11.014 6.896-1.366 13.914.037 19.757 3.948l11.382 7.62 7.62-11.382c8.052-12.027 24.361-15.287 36.413-7.302l.11.073c5.843 3.912 9.813 9.865 11.179 16.763s-.037 13.914-3.948 19.757l-7.62 11.383 58.018 38.841 7.62-11.383c3.911-5.843 9.864-9.813 16.762-11.179 6.858-1.357 13.829.02 19.65 3.877l.11.073c12.062 8.075 15.306 24.458 7.23 36.52l-7.62 11.383 11.383 7.62c5.843 3.911 9.813 9.864 11.179 16.762 1.357 6.855-.02 13.829-3.877 19.65l-.073.11c-3.912 5.843-9.865 9.813-16.763 11.179-6.899 1.366-13.914-.037-19.757-3.948l-11.383-7.62-38.841 58.018 11.382 7.62c12.062 8.075 15.307 24.458 7.231 36.52l-.115.169c-3.912 5.753-9.817 9.661-16.649 11.014-6.901 1.366-13.915-.037-19.757-3.948l-11.383-7.621-7.62 11.383c-5.07 7.576-13.418 11.672-21.914 11.672zm-73.335-96.735 64.665 43.292-9.845 14.705a22.18 22.18 0 0 0-3.349 16.755 22.18 22.18 0 0 0 9.48 14.216 22.194 22.194 0 0 0 16.759 3.351 22.177 22.177 0 0 0 14.215-9.479l9.845-14.707 14.707 9.846a22.174 22.174 0 0 0 16.755 3.349 22.176 22.176 0 0 0 14.215-9.48l.109-.163c6.713-10.214 3.938-23.998-6.238-30.811l-14.706-9.845 43.29-64.666 14.707 9.845a22.173 22.173 0 0 0 16.756 3.349 22.175 22.175 0 0 0 14.146-9.377l.071-.106c3.317-4.955 4.507-10.905 3.349-16.755s-4.524-10.898-9.479-14.215l-14.707-9.846 9.845-14.706a22.181 22.181 0 0 0 3.349-16.756 22.172 22.172 0 0 0-9.406-14.165l-.077-.052a22.187 22.187 0 0 0-16.755-3.349 22.174 22.174 0 0 0-14.215 9.479l-9.847 14.707-64.664-43.291 9.845-14.706a22.181 22.181 0 0 0 3.349-16.756 22.176 22.176 0 0 0-9.406-14.166l-.077-.051a22.178 22.178 0 0 0-16.756-3.349 22.177 22.177 0 0 0-14.215 9.479l-9.845 14.706-14.706-9.845c-10.229-6.849-24.123-4.098-30.971 6.132l-.107.161c-6.715 10.214-3.939 24 6.236 30.812l14.706 9.845-43.291 64.666-14.706-9.846a22.181 22.181 0 0 0-16.755-3.348 22.174 22.174 0 0 0-14.215 9.479l-.109.163a22.178 22.178 0 0 0-3.242 16.596 22.178 22.178 0 0 0 9.48 14.215l14.706 9.847-9.845 14.705a22.182 22.182 0 0 0-3.349 16.756 22.176 22.176 0 0 0 9.406 14.166l.077.051a22.184 22.184 0 0 0 16.756 3.349 22.18 22.18 0 0 0 14.215-9.479l9.844-14.707zm89.506 6.186-64.664-43.291 43.29-64.665 64.666 43.29-43.292 64.666zm-59.115-44.39 58.018 38.841 38.841-58.018-58.018-38.841-38.841 58.018zM611.559 901.387h-404V505.668l.313-.491 161.145-253.025c8.872-13.93 24.027-22.246 40.542-22.246s31.671 8.316 40.542 22.246l161.458 253.517v395.718zm-400-4h396V506.834L446.728 254.3c-8.133-12.771-22.028-20.395-37.168-20.395s-29.035 7.624-37.168 20.395L211.559 506.834v390.553z"/><path d="M0 897.387h1920v4H0z"/><path fill="#FFF" d="m810.644 322.357-38.653-109.722c-38.409 32.355-54.842 86.261-37.167 136.432 17.675 50.172 64.266 81.875 114.473 83.012l62.907 178.571c-38.409 32.355-54.842 86.26-37.167 136.432 17.675 50.172 64.266 81.875 114.473 83.012l-38.653-109.722 82.89-29.201 38.653 109.722c38.409-32.355 54.842-86.26 37.167-136.432-17.675-50.172-64.266-81.875-114.473-83.012l-62.907-178.571c38.409-32.355 54.842-86.26 37.167-136.432s-64.266-81.875-114.474-83.012l38.653 109.722-82.889 29.201z"/><circle cx="868.334" cy="362.6" r="18.737"/><circle cx="409.559" cy="291.172" r="33"/><path d="M609.559 502.8h1104.364v396.588H609.559z"/><g fill="#FFF"><path d="M1076.754 747.157c10.641 0 19.57-3.99 26.98-12.73 1.9-2.28 3.42-3.229 6.08-3.229 2.85 0 5.51 2.09 5.51 5.13 0 2.47-.76 3.8-2.09 5.32-10.07 11.59-23.37 16.34-36.48 16.34-28.12 0-45.41-22.42-45.41-57.001 0-34.58 17.29-56.811 45.41-56.811 13.11 0 26.41 4.75 36.48 16.34 1.33 1.521 2.09 2.851 2.09 5.32 0 3.04-2.66 5.13-5.51 5.13-2.66 0-4.18-.95-6.08-3.229-7.41-8.74-16.34-12.73-26.98-12.73-19.95 0-33.44 15.96-33.44 45.98s13.49 46.17 33.44 46.17zM1187.902 672.296c7.6 0 13.49 5.32 13.49 12.54 0 7.221-5.891 12.54-13.49 12.54-7.601 0-13.49-5.319-13.49-12.54 0-7.22 5.89-12.54 13.49-12.54zm0 60.041c7.6 0 13.49 5.32 13.49 12.54s-5.891 12.54-13.49 12.54c-7.601 0-13.49-5.32-13.49-12.54s5.89-12.54 13.49-12.54zM1347.69 629.926c3.42 0 5.32 2.28 5.32 5.13 0 1.33-.38 2.47-.95 3.42l-91.201 153.332c-.95 1.71-2.85 3.23-4.939 3.23-3.42 0-5.32-2.28-5.32-5.131 0-1.33.38-2.47.95-3.42l91.201-153.332c.95-1.709 2.85-3.229 4.939-3.229z"/></g><path fill="#41E847" d="m840.854 504.525-205.851-336.77c-15.716-28.696-51.719-39.218-80.415-23.501-28.696 15.716-39.218 51.719-23.501 80.415l174.68 279.856h135.087z"/><path d="M844.421 506.525H704.658l-.587-.941L529.333 225.63c-16.22-29.618-5.322-66.91 24.295-83.13 14.346-7.857 30.894-9.657 46.596-5.07 15.701 4.589 28.676 15.018 36.533 29.364l207.664 339.731zm-137.544-4h130.411L633.297 168.798c-7.392-13.492-19.519-23.239-34.195-27.528s-30.143-2.605-43.553 4.738c-27.666 15.151-37.856 49.976-22.735 77.65l174.063 278.867zM486.429 785.354H385.481c0 99.996 81.063 181.059 181.059 181.059h100.948c-99.996 0-181.059-81.063-181.059-181.059z"/><path d="M667.488 968.413H566.54c-100.939 0-183.059-82.12-183.059-183.06v-2h104.948v2c0 98.733 80.326 179.06 179.059 179.06v4zM387.492 787.354c1.078 97.814 80.983 177.06 179.048 177.06h62.79c-82.063-17.466-143.957-90.082-144.89-177.06h-96.948z"/><path fill="#41E847" d="M747.599 785.354h-261.17c0 99.996 81.063 181.059 181.059 181.059s181.059-81.063 181.059-181.059H747.599z"/><path d="M667.488 968.413c-100.939 0-183.059-82.12-183.059-183.06v-2h366.118v2c0 100.94-82.12 183.06-183.059 183.06zM488.44 787.354c1.079 97.814 80.984 177.06 179.048 177.06s177.97-79.245 179.048-177.06H488.44z"/><path fill="#41E847" d="M636.576 785.354h53.397v-52.993z"/><path d="M691.973 787.354h-60.252l60.252-59.795v59.795zm-50.543-4h46.543v-46.189l-46.543 46.189z"/><path fill="#41E847" d="M715.863 785.354h53.397v-52.993z"/><path d="M771.26 787.354h-60.252l60.252-59.795v59.795zm-50.543-4h46.543v-46.189l-46.543 46.189z"/><path fill="#41E847" d="M795.15 785.354h53.397v-52.993z"/><path d="M850.547 787.354h-60.252l60.252-59.795v59.795zm-50.543-4h46.543v-46.189l-46.543 46.189z"/><path fill="#41E847" d="M469.649 665.441h-65.948v160.404c0 13.002 10.54 23.542 23.542 23.542h18.863c13.002 0 23.542-10.54 23.542-23.542V665.441z"/><path d="M446.106 851.387h-18.863c-14.084 0-25.542-11.458-25.542-25.542V663.441h69.947v162.404c0 14.084-11.458 25.542-25.542 25.542zm-40.405-183.946v158.404c0 11.878 9.664 21.542 21.542 21.542h18.863c11.878 0 21.542-9.664 21.542-21.542V667.441h-61.947z"/><path fill="#41E847" d="m600.044 150.356-5.892-1.722c-25.13-7.344-51.456 7.074-58.8 32.204L386.66 689.619c-7.344 25.13 7.074 51.456 32.204 58.8l5.892 1.722c25.13 7.344 51.456-7.074 58.8-32.204l148.692-508.781c7.344-25.131-7.074-51.456-32.204-58.8z"/><path d="M438.031 754.049a49.233 49.233 0 0 1-13.837-1.988l-5.892-1.722c-26.148-7.643-41.205-35.133-33.563-61.28l148.692-508.782c7.643-26.148 35.131-41.202 61.281-33.562l5.892 1.722c12.667 3.702 23.134 12.115 29.473 23.689s7.792 24.925 4.09 37.591l-148.692 508.78c-6.294 21.538-26.059 35.55-47.444 35.552zm142.842-605.323c-19.655 0-37.816 12.877-43.601 32.673L388.58 690.18c-7.023 24.031 6.814 49.296 30.845 56.319l5.892 1.722c24.029 7.022 49.295-6.814 56.319-30.846l148.692-508.781c3.402-11.641 2.067-23.91-3.758-34.548-5.826-10.637-15.445-18.369-27.087-21.771l-5.892-1.722a45.322 45.322 0 0 0-12.718-1.827z"/><circle fill="#FFF" cx="436.675" cy="698.415" r="32.965"/><circle fill="#FFF" cx="582.595" cy="199.12" r="32.991"/><path fill="#FFF" d="M1797.924 982.381c-.004 8.102-6.575 14.666-14.676 14.662l-329.548-.22-.015 29.885 329.548.22c8.101.004 14.666 6.575 14.662 14.676l113.728-8.3a8.362 8.362 0 0 0 8.365-8.356l.013-25.789a8.362 8.362 0 0 0-8.356-8.365l-113.721-8.413zM1021.389 1048.814l14.142.007.037-74.529-14.142-.007c-16.569-.008-22.007 13.421-22.015 29.989l-.007 14.529c-.008 16.569 5.417 30.003 21.985 30.011z"/><path d="M1413.016 1080h-.022l-336.807-.167c-23.528-.013-42.661-19.164-42.649-42.692l.025-51.17c.006-11.397 4.449-22.111 12.513-30.166 8.059-8.05 18.769-12.483 30.158-12.483h.021l336.807.167c23.529.013 42.662 19.164 42.649 42.692l-.025 51.17c-.006 11.397-4.449 22.111-12.513 30.167-8.059 8.049-18.768 12.482-30.157 12.482zm-336.784-132.679c-10.321 0-20.027 4.018-27.33 11.312-7.308 7.301-11.335 17.01-11.34 27.339l-.025 51.17c-.01 21.323 17.329 38.68 38.651 38.69l336.807.167h.021c10.322.001 20.026-4.017 27.329-11.312 7.308-7.301 11.335-17.01 11.34-27.339l.025-51.17c.011-21.323-17.328-38.68-38.651-38.69l-336.807-.167h-.02z"/><path d="M1413.663 1000.191h-.007l-336.662-.167c-5.77-.002-10.462-4.699-10.46-10.47l.004-6.782a10.395 10.395 0 0 1 3.068-7.398 10.398 10.398 0 0 1 7.395-3.061h.007l336.662.167c2.795.001 5.423 1.091 7.398 3.068s3.062 4.606 3.061 7.401l-.003 6.782a10.399 10.399 0 0 1-3.069 7.398 10.391 10.391 0 0 1-7.394 3.062zm-336.661-23.878a6.416 6.416 0 0 0-4.568 1.891 6.423 6.423 0 0 0-1.896 4.57l-.004 6.782a6.473 6.473 0 0 0 6.462 6.468l336.662.167h.004a6.416 6.416 0 0 0 4.568-1.891 6.428 6.428 0 0 0 1.896-4.57l.003-6.782a6.421 6.421 0 0 0-1.891-4.572 6.423 6.423 0 0 0-4.57-1.896l-336.662-.167h-.004zM1413.638 1050.212h-.007l-336.662-.167c-2.795-.001-5.422-1.091-7.397-3.068s-3.062-4.606-3.062-7.401l.003-6.782c.004-5.769 4.698-10.46 10.466-10.46h.005l336.661.168c5.77.002 10.462 4.699 10.46 10.47l-.004 6.782a10.395 10.395 0 0 1-3.068 7.398 10.402 10.402 0 0 1-7.395 3.06zm-336.659-23.879a6.474 6.474 0 0 0-6.466 6.462l-.003 6.782a6.472 6.472 0 0 0 6.461 6.468l336.662.167h.005a6.416 6.416 0 0 0 4.567-1.891 6.423 6.423 0 0 0 1.896-4.57l.004-6.782a6.473 6.473 0 0 0-6.462-6.468l-336.661-.168h-.003zM294.293 996.09l-60.807-60.025 33.709-34.012-160.379-52.666 54.095 159.903 33.709-34.012 60.808 60.025z"/><path d="m255.443 1038.129-60.807-60.025-34.583 34.893-56.413-166.758 167.254 54.924-34.577 34.887 60.808 60.025-41.682 42.054zm-60.838-65.676 60.807 60.025 36.05-36.373-60.808-60.025 32.842-33.137-153.504-50.408 51.776 153.049 32.837-33.131z"/><g fill="#FFF"><path d="m1358.524 136.96-15.8 102.494-16.558-102.494h-54.615v186.353h279.559V136.96z"/><path d="M1553.109 325.313H1269.55V134.96h58.318l14.809 91.667 14.131-91.667h196.301v190.353zm-279.558-4h275.559V138.96h-188.871l-17.469 113.321-18.307-113.321h-50.912v182.353z"/></g><path fill="#41E847" d="M1450.411 502.8V453c0-28.559 23.152-51.711 51.711-51.711 27.055 0 48.987-21.932 48.987-48.987v-27.248H1271.55v27.248c0 27.055 21.932 48.987 48.987 48.987 28.559 0 51.711 23.152 51.711 51.711v49.8"/><path d="M1452.411 502.799h-4V453c0-29.616 24.095-53.711 53.711-53.711 25.909 0 46.987-21.078 46.987-46.987v-25.248H1273.55v25.248c0 25.909 21.078 46.987 46.987 46.987 29.616 0 53.711 24.095 53.711 53.711v49.799h-4V453c0-27.411-22.3-49.711-49.711-49.711-28.114 0-50.987-22.873-50.987-50.987v-29.248h283.559v29.248c0 28.114-22.872 50.987-50.986 50.987-27.411 0-49.712 22.3-49.712 49.711v49.799z"/><path d="M1271.551 354.561h279.559v4h-279.559z"/><path fill="#41E847" d="m1406.041 255.289-4 .871V134.831l4 .129zM1480.324 134.96h4v120.329h-4zM1504.467 134.96h4v120.329h-4z"/></svg>