<svg xmlns="http://www.w3.org/2000/svg" viewBox="0 0 1080 1080" xml:space="preserve"><path fill="#41E847" d="m359.25 278.261 127.546-74.734c18.505-10.843 40.453-12.266 60.008-3.89l42.27 18.105c21.405 9.169 45.553 6.555 64.884-7.024l45.344-31.851c26.142-18.363 60.183-16.198 84.187 5.352l76.258 68.465v25.575H359.25z"/><path d="M867.403 281.452H353.739V121.581h513.664v159.871zm-509.664-4h505.664V125.581H357.739v151.871z"/><path d="M893.916 343.093h-623.23l-40.532-63.641h663.762c17.574 0 31.821 14.247 31.821 31.821s-14.247 31.82-31.821 31.82zM845.352 68.923H514.885V58.511c0-16.703-13.541-30.244-30.244-30.244h-98.657c-16.703 0-30.244 13.541-30.244 30.244v65.07h511.116V90.426c-.001-11.876-9.628-21.503-21.504-21.503zm-89.924 40.33c-7.181 0-13.001-5.821-13.001-13.001s5.821-13.002 13.001-13.002 13.001 5.821 13.001 13.002-5.821 13.001-13.001 13.001zm41.553 0c-7.181 0-13.002-5.821-13.002-13.001S789.8 83.25 796.981 83.25s13.001 5.821 13.001 13.002-5.82 13.001-13.001 13.001zm41.554 0c-7.181 0-13.002-5.821-13.002-13.001s5.821-13.002 13.002-13.002 13.001 5.821 13.001 13.002-5.82 13.001-13.001 13.001z"/><path d="M867.403 125.58H353.738V58.512c0-17.779 14.465-32.244 32.245-32.244h98.657c17.779 0 32.244 14.465 32.244 32.244v8.411h327.015c12.96 0 23.504 10.543 23.504 23.503v35.154zm-509.665-4h505.665V90.426c0-10.754-8.749-19.503-19.504-19.503H512.885V58.512c0-15.574-12.67-28.244-28.244-28.244h-98.657c-15.574 0-28.245 12.67-28.245 28.244v63.068zm480.797-10.327c-8.272 0-15.002-6.729-15.002-15.001 0-8.272 6.729-15.002 15.002-15.002s15.002 6.729 15.002 15.002c0 8.271-6.729 15.001-15.002 15.001zm0-26.003c-6.066 0-11.002 4.936-11.002 11.002s4.936 11.001 11.002 11.001 11.002-4.935 11.002-11.001-4.935-11.002-11.002-11.002zm-41.554 26.003c-8.272 0-15.002-6.729-15.002-15.001 0-8.272 6.729-15.002 15.002-15.002 8.271 0 15.001 6.729 15.001 15.002 0 8.271-6.729 15.001-15.001 15.001zm0-26.003c-6.066 0-11.002 4.936-11.002 11.002s4.936 11.001 11.002 11.001 11.001-4.935 11.001-11.001-4.934-11.002-11.001-11.002zm-41.553 26.003c-8.272 0-15.002-6.729-15.002-15.001 0-8.272 6.729-15.002 15.002-15.002s15.002 6.729 15.002 15.002c0 8.271-6.73 15.001-15.002 15.001zm0-26.003c-6.066 0-11.002 4.936-11.002 11.002s4.936 11.001 11.002 11.001 11.002-4.935 11.002-11.001-4.936-11.002-11.002-11.002z"/><path fill="#41E847" d="M849.798 523.587v-30.134h-24.311a64.74 64.74 0 0 0-8.046-19.019l17.041-17.04-21.308-21.308-17.191 17.191a64.713 64.713 0 0 0-19.137-7.769v-24.09h-30.134v24.311a64.728 64.728 0 0 0-19.019 8.046l-17.041-17.04-21.308 21.308 17.191 17.191a64.713 64.713 0 0 0-7.769 19.137h-24.089v30.134h24.311a64.74 64.74 0 0 0 8.046 19.019l-17.04 17.04L711.3 581.87l17.191-17.191a64.713 64.713 0 0 0 19.137 7.769v24.089h30.134v-24.311a64.728 64.728 0 0 0 19.019-8.046l17.041 17.04 21.308-21.308-17.191-17.191a64.713 64.713 0 0 0 7.769-19.137h24.09zm-87.561 19.838c-19.024 0-34.447-15.422-34.447-34.447 0-19.024 15.422-34.447 34.447-34.447s34.447 15.422 34.447 34.447c0 19.024-15.422 34.447-34.447 34.447z"/><path d="M892.121 259.612c13.49 0 25.871 6.793 33.117 18.172l150.714 236.647v364.051H711.234L921.61 515.754l.828-1.427-.419-1.596-62.064-236.373c7.35-10.518 19.249-16.746 32.166-16.746m0-4c-13.995 0-27.99 6.675-36.492 20.023l62.521 238.112-213.86 368.735h375.662V513.265l-151.34-237.63c-8.501-13.348-22.496-20.023-36.491-20.023zM379.662 884.481H0V512.682l.313-.491 151.34-237.63c8.354-13.117 22.626-20.948 38.178-20.948s29.824 7.831 38.178 20.948l151.653 238.121v371.799zM4 880.481h371.662V513.848L224.636 276.71c-7.616-11.958-20.627-19.097-34.805-19.097s-27.188 7.139-34.805 19.097L4 513.848v366.633z"/><path fill="#FFF" d="m581.378 327.812-37.272-105.801c-37.037 31.198-52.882 83.178-35.839 131.557 17.043 48.379 61.969 78.949 110.383 80.045l60.659 172.189C642.272 637 626.427 688.98 643.47 737.359c17.043 48.379 61.969 78.949 110.383 80.045L716.58 711.603l79.928-28.157 37.272 105.801c37.037-31.198 52.882-83.178 35.839-131.557-17.043-48.379-61.969-78.949-110.383-80.045l-60.659-172.189c37.037-31.198 52.882-83.178 35.839-131.556s-61.969-78.95-110.383-80.045l37.272 105.801-79.927 28.156z"/><circle cx="637.007" cy="366.617" r="18.067"/><circle cx="189.228" cy="307.27" r="31.821"/><path d="M1078.86 882.481H378.11V512.617l701.89.648z"/><g fill="#FFF"><path d="M666.825 735.399c8.812 0 16.209-3.305 22.346-10.543 1.574-1.889 2.833-2.676 5.036-2.676 2.36 0 4.563 1.731 4.563 4.249 0 2.046-.63 3.147-1.731 4.406-8.34 9.599-19.355 13.533-30.214 13.533-23.29 0-37.609-18.569-37.609-47.209 0-28.641 14.319-47.052 37.609-47.052 10.858 0 21.874 3.934 30.214 13.533 1.102 1.259 1.731 2.36 1.731 4.406 0 2.518-2.203 4.249-4.563 4.249-2.203 0-3.462-.787-5.036-2.676-6.137-7.238-13.533-10.543-22.346-10.543-16.522 0-27.695 13.219-27.695 38.082s11.173 38.241 27.695 38.241zM758.88 673.398c6.295 0 11.173 4.405 11.173 10.386 0 5.979-4.878 10.386-11.173 10.386-6.294 0-11.173-4.406-11.173-10.386 0-5.98 4.879-10.386 11.173-10.386zm0 49.727c6.295 0 11.173 4.406 11.173 10.386 0 5.98-4.878 10.387-11.173 10.387-6.294 0-11.173-4.406-11.173-10.387 0-5.98 4.879-10.386 11.173-10.386zM891.22 638.305c2.833 0 4.406 1.889 4.406 4.249a5.427 5.427 0 0 1-.787 2.833L819.305 772.38c-.787 1.416-2.36 2.675-4.092 2.675-2.832 0-4.406-1.888-4.406-4.248 0-1.102.314-2.046.787-2.833l75.534-126.992c.787-1.418 2.361-2.677 4.092-2.677z"/></g><path fill="#41E847" d="M609.267 512.617 407.725 191.216c-15.754-28.765-51.844-39.312-80.609-23.558-28.765 15.754-39.312 51.844-23.558 80.609l168.991 264.35h136.718z"/><path d="M612.882 514.617H471.455l-.591-.923-169.027-264.407-.032-.06c-7.876-14.381-9.681-30.968-5.081-46.705 4.6-15.738 15.052-28.742 29.433-36.618s30.969-9.682 46.705-5.081c15.719 4.594 28.711 15.026 36.59 29.38l203.43 324.414zm-137.973-2h132.006L406 192.228l-.028-.052c-7.363-13.443-19.521-23.215-34.232-27.515-14.711-4.299-30.218-2.612-43.661 4.75-13.444 7.363-23.216 19.521-27.516 34.232-4.293 14.69-2.617 30.173 4.718 43.603l169.628 265.371zM265.425 775.387h-94.806c0 93.912 76.131 170.043 170.043 170.043h94.806c-93.913-.001-170.043-76.131-170.043-170.043z"/><path d="M435.467 947.43h-94.806c-94.865 0-172.043-77.178-172.043-172.043v-2h98.807v2c0 92.659 75.384 168.043 168.042 168.043v4zM172.63 777.387c1.075 91.742 76.039 166.043 168.031 166.043h57.831c-76.533-16.822-134.128-84.746-135.056-166.043H172.63z"/><path fill="#41E847" d="M510.704 775.387H265.425c0 93.912 76.131 170.043 170.043 170.043S605.51 869.299 605.51 775.387h-94.806z"/><path d="M435.467 947.43c-94.864 0-172.042-77.178-172.042-172.043v-2H607.51v2c0 94.865-77.178 172.043-172.043 172.043zm-168.03-170.043c1.075 91.742 76.039 166.043 168.03 166.043 91.992 0 166.956-74.301 168.031-166.043H267.437z"/><path fill="#41E847" d="M406.435 775.387h50.149v-49.769z"/><path d="M458.584 777.387h-57.003l57.003-56.571v56.571zm-47.294-4h43.294v-42.966l-43.294 42.966z"/><path fill="#41E847" d="M480.898 775.387h50.149v-49.769z"/><path d="M533.047 777.387h-57.003l57.003-56.571v56.571zm-47.294-4h43.294v-42.966l-43.294 42.966z"/><path fill="#41E847" d="M555.361 775.387h50.149v-49.769z"/><path d="M607.51 777.387h-57.003l57.003-56.571v56.571zm-47.294-4h43.294v-42.966l-43.294 42.966z"/><path fill="#41E847" d="M249.665 662.769H187.73v149.977c0 12.579 10.198 22.777 22.777 22.777h16.381c12.579 0 22.777-10.198 22.777-22.777V662.769z"/><path d="M226.888 837.523h-16.381c-13.662 0-24.777-11.114-24.777-24.776V660.769h65.936v151.978c-.001 13.662-11.116 24.776-24.778 24.776zm-37.159-172.754v147.978c0 11.456 9.32 20.776 20.777 20.776h16.381c11.457 0 20.777-9.32 20.777-20.776V664.769h-57.935z"/><path fill="#41E847" d="m369.362 178.217-.006-.002c-25.127-7.343-51.45 7.073-58.793 32.2l-138.03 472.298c-7.343 25.127 7.073 51.45 32.2 58.793l.006.002c25.127 7.344 51.45-7.073 58.793-32.2l138.03-472.298c7.344-25.127-7.072-51.45-32.2-58.793z"/><path d="M218.105 745.434c-4.615 0-9.257-.654-13.812-1.974l-.122-.034c-26.146-7.642-41.2-35.13-33.559-61.274l138.03-472.298c7.641-26.145 35.125-41.196 61.273-33.56l.007.002c12.665 3.702 23.131 12.114 29.47 23.687 6.338 11.573 7.79 24.922 4.089 37.587L265.453 709.868c-3.702 12.666-12.114 23.132-23.688 29.471-7.376 4.04-15.476 6.095-23.66 6.095zm-12.914-5.878.109.031c11.638 3.402 23.908 2.067 34.543-3.758 10.637-5.825 18.368-15.443 21.77-27.084l138.029-472.298c7.022-24.027-6.812-49.289-30.842-56.312l-.077-.024c-23.948-6.995-49.219 6.836-56.24 30.863l-138.03 472.299c-7.013 23.995 6.772 49.22 30.738 56.283z"/><circle fill="#FFF" cx="218.697" cy="693.737" r="30.959"/><circle fill="#FFF" cx="355.739" cy="224.821" r="30.959"/><path fill="#FFF" d="M964.375 988.2c-.004 7.609-6.175 13.773-13.783 13.77l-122.579-.207-.014 28.067 122.579.207c7.609.004 13.773 6.175 13.77 13.783l106.808-7.795a7.853 7.853 0 0 0 7.856-7.848l.012-24.22a7.852 7.852 0 0 0-7.848-7.856L964.375 988.2zM551.694 1050.591l13.282.007.035-69.994-13.282-.007c-15.56-.008-20.668 12.604-20.675 28.164l-.007 13.645c-.008 15.561 5.087 28.177 20.647 28.185z"/><path d="M785.308 1080H785.286l-179.657-.154c-23.526-.013-42.658-19.163-42.646-42.69l.021-43.111c.006-11.397 4.449-22.11 12.513-30.165 8.058-8.05 18.767-12.482 30.155-12.482h.022l179.657.154c23.526.013 42.659 19.163 42.647 42.69l-.021 43.111c-.012 23.519-19.152 42.647-42.669 42.647zm-.019-4h.019c21.314 0 38.659-17.333 38.67-38.649l.021-43.111c.01-21.321-17.328-38.678-38.65-38.688l-179.657-.154h-.021c-10.321 0-20.024 4.017-27.327 11.312-7.308 7.301-11.335 17.009-11.34 27.338l-.021 43.111c-.01 21.321 17.328 38.678 38.649 38.688l179.657.153z"/><path d="M787.873 1005.049h-.006l-183.438-.157c-2.794-.001-5.422-1.091-7.397-3.068s-3.062-4.605-3.061-7.4l.002-5.341c.004-5.768 4.698-10.459 10.465-10.459h.005l183.438.156c2.795.002 5.422 1.092 7.397 3.069s3.062 4.605 3.061 7.4l-.002 5.34c-.003 5.768-4.697 10.46-10.464 10.46zm-.002-4h.002a6.473 6.473 0 0 0 6.465-6.462l.002-5.34a6.472 6.472 0 0 0-6.461-6.468l-183.438-.156h-.003a6.472 6.472 0 0 0-6.464 6.461l-.002 5.341c-.001 1.727.67 3.35 1.891 4.571s2.844 1.895 4.57 1.896l183.438.157zM787.85 1052.025h-.006l-183.438-.156c-2.795-.002-5.422-1.092-7.397-3.069s-3.062-4.605-3.061-7.4l.002-5.34c.004-5.769 4.698-10.46 10.465-10.46h.005l183.438.157c2.794.001 5.422 1.091 7.397 3.068s3.062 4.606 3.061 7.401l-.002 5.34c-.003 5.768-4.698 10.459-10.464 10.459zm-.002-4h.002a6.473 6.473 0 0 0 6.465-6.461l.002-5.34a6.421 6.421 0 0 0-1.891-4.572 6.423 6.423 0 0 0-4.57-1.896l-183.438-.157h-.003a6.473 6.473 0 0 0-6.464 6.462l-.002 5.34a6.472 6.472 0 0 0 6.461 6.468l183.438.156z"/><path fill="#FFF" d="M143.514 112.301 96.966 66.352l25.805-26.036L0 0l41.41 122.406L67.215 96.37l46.548 45.949z"/><g fill="#FFF"><path d="m864.833 167.69-14.839 96.258-15.55-96.258h-51.292v175.014h262.549V167.69z"/><path d="M1047.702 344.704h-266.55V165.69h54.995l13.802 85.431 13.17-85.431h184.583v179.014zm-262.55-4h258.55V169.69H866.548L850.04 276.775l-17.3-107.085h-47.589v171.014z"/></g><path fill="#41E847" d="M951.13 513.146v-50.281c0-26.822 21.743-48.565 48.565-48.565 25.409 0 46.006-20.598 46.006-46.006v-25.59H783.152v25.59c0 25.409 20.598 46.006 46.006 46.006 26.822 0 48.565 21.743 48.565 48.565v50.213"/><path d="M953.13 513.689h-4v-50.824c0-27.882 22.684-50.565 50.564-50.565 24.266 0 44.007-19.741 44.007-44.006v-23.591h-258.55v23.591c0 24.265 19.741 44.006 44.007 44.006 27.881 0 50.564 22.684 50.564 50.565v50.824h-4v-50.824c0-25.676-20.889-46.565-46.564-46.565-26.471 0-48.007-21.535-48.007-48.006v-27.591h266.55v27.591c0 26.471-21.536 48.006-48.007 48.006-25.676 0-46.564 20.89-46.564 46.565v50.824z"/><path d="M783.152 371.929h262.55v4h-262.55z"/><path fill="#41E847" d="M905.581 165.69h4v113.008h-4zM979.101 165.69h4v113.008h-4zM1001.774 165.69h4v113.008h-4z"/><circle fill="#41E847" cx="598.285" cy="166.444" r="19.518"/></svg>