<svg xmlns="http://www.w3.org/2000/svg" xml:space="preserve" viewBox="0 0 1920 1080"><path fill="#FFD829" d="M1470.628 986.594h58.545V866.363a79.125 79.125 0 0 0-34.074 19.23c-1.806-14.815-14.42-26.294-29.723-26.294-16.543 0-29.954 13.411-29.954 29.954s13.411 29.954 29.954 29.954c3.26 0 6.396-.528 9.334-1.491a79.044 79.044 0 0 0-4.082 25.089v43.789zM1809.206 774.551c-14.034-8.102-31.978-3.294-40.081 10.74l-23.784 41.195v-38.892c0-16.205-13.136-29.341-29.341-29.341-16.205 0-29.341 13.136-29.341 29.341v76.023h-111.745v122.976h214.038v-43.789c0-21.553-8.622-41.083-22.591-55.362l53.585-72.811c8.102-14.032 3.293-31.977-10.74-40.08zm-67.14 173.902c-6.198 0-11.222-5.024-11.222-11.222 0-6.198 5.024-11.222 11.222-11.222 6.198 0 11.222 5.024 11.222 11.222 0 6.198-5.024 11.222-11.222 11.222zM993.925 202.549h723.998v-30.832c0-16.569-13.431-30-30-30H993.925"/><path d="M1669.876 984.595V744.748h18.047c17.645 0 32-14.355 32-32V171.717c0-17.645-14.355-32-32-32H993.925v4h693.998c15.439 0 28 12.561 28 28v28.832H993.925v4h721.998v508.199c0 15.439-12.561 28-28 28H1577.15V602.03h-4v382.564h-41.741V602.03h-4v138.718H885.007c-15.439 0-28-12.561-28-28V602.03h-4v110.718c0 17.645 14.355 32 32 32h642.401v239.847H790.337V602.03h-4v382.564h-41.741V602.03h-4v382.564H564.467v-504.54h-45.741v504.541H0v4h1920v-4h-250.124zm-45.741 0h-46.986V744.748h46.986v239.847z"/><path d="M1349.886 743.748h-276.277l-38.183 56.651c-3.423 5.079-4.668 10.988-3.505 16.639 5.319 25.831 29.626 44.58 57.796 44.58 32.455 0 58.859-24.696 58.859-55.052a2 2 0 0 1 4 0c0 30.355 26.403 55.052 58.858 55.052s58.859-24.696 58.859-55.052c0-1.104.896-2 2-2s2.005.896 2.005 2c0 30.355 26.404 55.052 58.859 55.052 28.212 0 52.525-18.781 57.811-44.658 1.146-5.605-.068-11.47-3.418-16.513l-37.664-56.699z"/><circle cx="765.466" cy="286.347" r="186.106" fill="#FFD829"/><path d="m646.092 380.635-.824-3.914.412 1.957-.416-1.956c.094-.021 9.45-2.094 17.468-9.825.973-.938 1.857-1.82 2.691-2.651 6.689-6.667 10.374-10.34 28.113-12.733l.535 3.965c-16.404 2.212-19.552 5.351-25.824 11.602-.848.846-1.749 1.743-2.738 2.697-8.88 8.561-18.991 10.768-19.417 10.858zM785.844 399.21c-8.931-1.7-13.829-6.122-20.031-11.72-.595-.537-1.203-1.086-1.83-1.646-9.723-8.687-21.574-10.499-32.512-4.972-6.237 3.152-11.251 9.613-13.084 16.863l-3.878-.98c2.108-8.34 7.917-15.794 15.158-19.453 12.487-6.31 25.965-4.283 36.981 5.56.632.564 1.246 1.118 1.845 1.659 5.961 5.382 10.269 9.27 18.099 10.76l-.748 3.929zM662.768 397.055v-4c6.854 0 13.127-1.921 17.663-5.409 1.864-1.435 3.33-3.753 4.748-5.995l.571-.899c2.242-3.497 5.827-4.637 9.039-5.291 1.267-.258 2.546-.442 3.783-.621 2.554-.369 4.966-.718 7.14-1.65 4.201-1.802 7.17-5.572 10.313-9.563.605-.77 1.209-1.535 1.819-2.284 4.206-5.158 13.199-10.339 19.869-9.841l-.3 3.988c-5.192-.394-12.981 4.103-16.469 8.38-.596.731-1.186 1.48-1.777 2.231-3.315 4.209-6.742 8.562-11.879 10.765-2.658 1.141-5.447 1.543-8.145 1.934-1.235.179-2.402.347-3.557.582-2.903.591-5.115 1.418-6.469 3.529l-.558.879c-1.53 2.419-3.263 5.161-5.69 7.027-5.231 4.022-12.37 6.238-20.101 6.238zM681.261 375.032a1.94 1.94 0 0 1-.132-.004c-1.103-.069-1.937-1.055-1.868-2.157.041-.654.709-6.455 11.369-8.74a1.993 1.993 0 0 1 2.375 1.536 2 2 0 0 1-1.536 2.374c-7.639 1.639-8.217 5.117-8.222 5.152-.066 1.058-.941 1.839-1.986 1.839z"/><path d="M754.7 399.246a2.001 2.001 0 0 1-1.832-1.195c-3.333-7.573-10.285-7.229-10.582-7.218a2.005 2.005 0 0 1-2.124-1.861 1.995 1.995 0 0 1 1.843-2.129c.407-.026 10.027-.616 14.523 9.597a2 2 0 0 1-1.828 2.806zM649.588 367.221a2 2 0 0 1-1.004-3.731c2.36-1.367 8.776-5.929 10.095-10.545a2.001 2.001 0 0 1 3.846 1.1c-2.035 7.121-11.536 12.676-11.939 12.909a1.998 1.998 0 0 1-.998.267z"/><path d="M863.916 307.783V168.888l-43.731 54.02-54.719-85.198-47.395 83.596-51.055-52.061v139.232c-16.754 3.838-29.51 22.556-29.51 45.018 0 25.228 16.088 45.751 35.863 45.751h189.302c19.775 0 35.863-20.523 35.863-45.751 0-24.696-15.418-44.87-34.618-45.712zm-57.413 3.96c-7.457 3.51-15.854 6.077-24.688 7.507-7.282 1.177-11.748.629-17.403-.067-4.886-.601-10.425-1.28-19.099-1.095-3.087.067-6.192.338-9.195.6-4.837.421-9.838.855-14.681.411-9.773-.899-19.231-3.479-27.173-7.355h112.239zm-133.134 83.502c-17.569 0-31.863-18.729-31.863-41.751 0-8.758 2.073-16.891 5.604-23.612 7.99-3.452 17.714-3.163 26.803.846 2.305 1.016 4.186 2.443 6.178 3.955 1.553 1.179 3.158 2.396 5.012 3.442 4.683 2.641 10.216 3.354 15.134 3.987 3.826.493 7.739 1.059 11.326 2.547 1.702.706 3.327 1.633 4.693 2.879.347.316.685.625 1.027.912.858.719 3.754 2.775 4.472.838.606-1.635-1.678-3.629-2.648-4.564-1.563-1.508-3.48-2.657-5.457-3.532-4.075-1.802-8.553-2.486-12.939-3.051-4.739-.611-9.64-1.243-13.644-3.5-1.617-.912-3.046-1.996-4.558-3.145-2.088-1.585-4.248-3.224-6.983-4.429-8.325-3.671-17.179-4.52-25.079-2.531 5.799-7.879 13.928-12.794 22.921-12.794h12.562c.276.173.497.294.763.435.238.126.531.281 1.047.59 9.23 5.523 21.066 9.187 33.329 10.313 5.198.48 10.382.027 15.395-.409 2.939-.256 5.978-.521 8.935-.584 8.389-.184 13.772.48 18.523 1.064 3.312.408 6.363.783 9.861.783 2.559 0 5.356-.2 8.669-.736 11.994-1.942 23.244-5.906 32.576-11.456h33.003c-3.634 2.082-6.948 4.909-9.822 8.334-2.233.394-9.317 1.901-19.257 6.536-5.411 2.522-14.219 8.923-16.311 16.215-.912 3.179-.484 6.163 1.272 8.868 1.942 2.991 5.443 3.935 9.375 3.935 3.887 0 8.195-.922 11.835-1.701.597-.128 1.152-.245 1.682-.354.019 13.669 4.766 25.942 12.255 34.318a36.56 36.56 0 0 1-8.716-3.875c-.437-.269-.868-.547-1.299-.824-.921-.594-1.873-1.207-2.893-1.749-3.728-1.98-7.595-2.699-11.335-3.395-4.978-.925-9.679-1.799-13.56-5.618-3.896-3.833-6.131-9.017-8.497-14.504-2.799-6.492-5.694-13.205-11.611-17.541-8.597-6.299-20.362-4.905-27.824-1.799-1.901.791-4.262 1.998-6.762 3.274-4.894 2.5-10.44 5.333-14.134 5.921l.629 3.951c4.32-.688 10.167-3.675 15.325-6.31 2.429-1.24 4.723-2.412 6.479-3.144 6.502-2.708 16.67-3.983 23.923 1.332 5.04 3.692 7.596 9.621 10.303 15.898 2.414 5.6 4.911 11.389 9.364 15.771 4.752 4.677 10.284 5.705 15.634 6.699 3.602.67 7.004 1.302 10.19 2.995.872.463 1.712 1.005 2.603 1.578.454.292.908.585 1.369.868a40.671 40.671 0 0 0 16.558 5.718 33.806 33.806 0 0 0 3.223 2.102h-174.66zm153.587-45.778c-.812.157-1.694.344-2.664.552-5.482 1.173-14.657 3.136-17.019-.5-1.113-1.715-1.369-3.543-.783-5.588 1.62-5.646 9.253-11.406 14.156-13.692 5.849-2.727 10.677-4.317 13.988-5.223-4.274 6.834-7.046 15.254-7.678 24.451zm35.715 45.778c-17.569 0-31.863-18.729-31.863-41.751s14.293-41.751 31.863-41.751 31.863 18.729 31.863 41.751-14.293 41.751-31.863 41.751z"/><path d="M862.671 325.021c-12.401 0-22.49 12.773-22.49 28.474s10.089 28.474 22.49 28.474 22.491-12.773 22.491-28.474-10.089-28.474-22.491-28.474zm0 52.947c-10.195 0-18.49-10.979-18.49-24.474s8.295-24.474 18.49-24.474c10.196 0 18.491 10.979 18.491 24.474s-8.295 24.474-18.491 24.474z"/><path d="M862.671 339.768c-6.107 0-11.076 6.157-11.076 13.727s4.969 13.727 11.076 13.727 11.076-6.157 11.076-13.727-4.968-13.727-11.076-13.727zm0 23.453c-3.902 0-7.076-4.363-7.076-9.727s3.174-9.727 7.076-9.727 7.076 4.363 7.076 9.727-3.174 9.727-7.076 9.727z"/><path fill="#FFF" d="M907.245 409.833c28.836-33.065 46.327-76.27 46.327-123.486 0-103.722-84.384-188.105-188.105-188.105-47.265 0-90.509 17.528-123.588 46.418a1.999 1.999 0 0 0-.591.402 1.99 1.99 0 0 0-.292.381c-38.999 34.49-63.635 84.871-63.635 140.904 0 103.722 84.384 188.105 188.105 188.105 55.986 0 106.329-24.595 140.817-63.537.18-.093.352-.205.502-.356.213-.211.363-.461.46-.726zm42.327-123.485c0 45.695-16.74 87.55-44.401 119.77L645.697 146.644c32.219-27.661 74.074-44.402 119.769-44.402 101.516 0 184.106 82.59 184.106 184.106zM765.466 470.453c-101.516 0-184.105-82.59-184.105-184.105 0-54.383 23.709-103.326 61.325-137.059l259.839 259.839c-33.732 37.616-82.676 61.325-137.059 61.325z"/><path fill="#FFF" d="M963.925 605.03H567.008c-17.645 0-32-14.355-32-32V60.831h460.917V573.03c0 17.645-14.356 32-32 32zM539.008 64.831V573.03c0 15.439 12.561 28 28 28h396.917c15.439 0 28-12.561 28-28V64.831H539.008z"/><path d="M963.925 0H567.008c-17.645 0-32 14.355-32 32v32.831h460.917V32c0-17.645-14.356-32-32-32zM607.901 47.088c-8.103 0-14.673-6.569-14.673-14.673 0-8.103 6.569-14.672 14.673-14.672s14.673 6.569 14.673 14.672c0 8.104-6.569 14.673-14.673 14.673z"/><circle cx="647.101" cy="32.416" r="14.673" fill="#FFD829"/><path fill="#FFF" d="M926.577 520.937H604.355a2 2 0 0 1 0-4h322.221a2 2 0 0 1 .001 4zM926.577 544H604.355a2 2 0 0 1 0-4h322.221a2 2 0 0 1 .001 4zM855.134 567.063H675.798a2 2 0 0 1 0-4h179.336a2 2 0 0 1 0 4z"/><circle cx="568.702" cy="32.416" r="14.673" fill="#FFF"/><path fill="#FFF" d="M1311.143 375.968h-94.871a2 2 0 0 1 0-4h94.871a2 2 0 0 1 0 4zM1311.143 393.245h-94.871a2 2 0 0 1 0-4h94.871a2 2 0 0 1 0 4zM1311.143 410.522h-94.871a2 2 0 0 1 0-4h94.871a2 2 0 0 1 0 4zM1311.143 427.799h-94.871a2 2 0 0 1 0-4h94.871a2 2 0 0 1 0 4zM1311.143 445.076h-94.871a2 2 0 0 1 0-4h94.871a2 2 0 0 1 0 4z"/><circle cx="1084.697" cy="543.83" r="47.435" fill="#FFD829"/><path d="M1064.942 523.778h40.659v40.659h-40.659z"/><path fill="#FFF" d="M1084.697 494.395c-27.259 0-49.436 22.177-49.436 49.436s22.177 49.435 49.436 49.435 49.436-22.176 49.436-49.435-22.177-49.436-49.436-49.436zm45.436 49.435c0 11.733-4.471 22.442-11.799 30.512l-64.149-64.149c8.07-7.327 18.779-11.798 30.512-11.798 25.054 0 45.436 20.381 45.436 45.435zm-90.871 0c0-11.884 4.592-22.712 12.087-30.817l64.165 64.165c-8.105 7.495-18.933 12.087-30.817 12.087-25.053 0-45.435-20.382-45.435-45.435z"/><circle cx="1263.707" cy="543.83" r="47.435" fill="#FFD829"/><circle cx="1263.92" cy="543.686" r="20.751"/><path fill="#FFF" d="M1298.862 578.544c8.823-8.933 14.281-21.197 14.281-34.714 0-27.259-22.177-49.436-49.436-49.436s-49.436 22.177-49.436 49.436 22.177 49.435 49.436 49.435c13.518 0 25.782-5.458 34.716-14.282.082-.06.165-.121.239-.195.076-.076.138-.16.2-.244zm10.281-34.714c0 11.808-4.53 22.575-11.941 30.663l-64.087-64.226c8.08-7.371 18.819-11.872 30.592-11.872 25.054 0 45.436 20.381 45.436 45.435zm-90.872 0c0-11.845 4.56-22.641 12.011-30.738l64.09 64.229c-8.088 7.412-18.857 11.943-30.666 11.943-25.053.001-45.435-20.381-45.435-45.434z"/><path d="M217.44 979.911c0-1.109.9-2 2.01-2 1.1 0 1.99.891 1.99 2 0 1.101-.89 2-1.99 2-1.11 0-2.01-.899-2.01-2zm81.32-.519a2 2 0 1 1 4 0c0 1.11-.89 2-2 2a2 2 0 0 1-2-2zm-81.32-9.481c0-1.1.9-2 2.01-2 1.1 0 1.99.9 1.99 2 0 1.101-.89 2-1.99 2-1.11 0-2.01-.899-2.01-2zm81.32-.519a2 2 0 1 1 4 0c0 1.11-.89 2-2 2a2 2 0 0 1-2-2zm-81.32-9.481c0-1.1.9-2 2.01-2 1.1 0 1.99.9 1.99 2 0 1.101-.89 2-1.99 2-1.11 0-2.01-.899-2.01-2zm81.32-.519a2 2 0 1 1 4 0c0 1.11-.89 2-2 2a2 2 0 0 1-2-2zm-81.32-9.481c0-1.1.9-2 2.01-2 1.1 0 1.99.9 1.99 2 0 1.101-.89 2-1.99 2-1.11 0-2.01-.899-2.01-2zm81.32-.519a2 2 0 1 1 4 0c0 1.11-.89 2-2 2a2 2 0 0 1-2-2zm-81.32-9.481c0-1.1.9-2 2.01-2 1.1 0 1.99.9 1.99 2 0 1.11-.89 2-1.99 2-1.11 0-2.01-.889-2.01-2zm81.32-.519a2 2 0 1 1 4 0c0 1.11-.89 2-2 2a2 2 0 0 1-2-2zm-81.32-9.481c0-1.1.9-2 2.01-2 1.1 0 1.99.9 1.99 2 0 1.11-.89 2-1.99 2-1.11 0-2.01-.889-2.01-2zm81.32-.519a2 2 0 1 1 4 0c0 1.11-.89 2-2 2a2 2 0 0 1-2-2zm-81.32-9.481c0-1.109.9-2 2.01-2 1.1 0 1.99.891 1.99 2 0 1.11-.89 2-1.99 2-1.11 0-2.01-.889-2.01-2zm81.32-.519a2 2 0 1 1 4 0c0 1.11-.89 2-2 2a2 2 0 0 1-2-2zm-81.32-9.481c0-1.109.9-2 2.01-2 1.1 0 1.99.891 1.99 2 0 1.11-.89 2-1.99 2-1.11 0-2.01-.889-2.01-2zm81.32-.519a2 2 0 1 1 4 0c0 1.11-.89 2-2 2a2 2 0 0 1-2-2zm-81.32-9.481c0-1.109.9-2 2.01-2 1.1 0 1.99.891 1.99 2 0 1.101-.89 2-1.99 2-1.11 0-2.01-.899-2.01-2zm81.32-.519a2 2 0 1 1 4 0c0 1.11-.89 2-2 2a2 2 0 0 1-2-2zm-81.32-9.481c0-1.109.9-2 2.01-2 1.1 0 1.99.891 1.99 2 0 1.101-.89 2-1.99 2-1.11 0-2.01-.899-2.01-2zm81.32-.519a2 2 0 1 1 4 0c0 1.11-.89 2-2 2a2 2 0 0 1-2-2zm-81.32-9.481c0-1.1.9-2 2.01-2 1.1 0 1.99.9 1.99 2 0 1.101-.89 2-1.99 2-1.11 0-2.01-.899-2.01-2zm81.32-.519a2 2 0 1 1 4 0c0 1.11-.89 2-2 2a2 2 0 0 1-2-2zm-81.32-9.481c0-1.1.9-2 2.01-2 1.1 0 1.99.9 1.99 2 0 1.101-.89 2-1.99 2-1.11 0-2.01-.899-2.01-2zm81.32-.519a2 2 0 1 1 4 0c0 1.11-.89 2-2 2a2 2 0 0 1-2-2zm-81.32-9.481c0-1.1.9-2 2.01-2 1.1 0 1.99.9 1.99 2 0 1.101-.89 2-1.99 2-1.11 0-2.01-.899-2.01-2zm81.32-.519a2 2 0 1 1 4 0c0 1.11-.89 2-2 2a2 2 0 0 1-2-2zm-81.32-9.481c0-1.1.9-2 2.01-2 1.1 0 1.99.9 1.99 2 0 1.11-.89 2-1.99 2-1.11 0-2.01-.889-2.01-2zm81.32-.519a2 2 0 1 1 4 0c0 1.11-.89 2-2 2a2 2 0 0 1-2-2zm-81.32-9.481c0-1.1.9-2 2.01-2 1.1 0 1.99.9 1.99 2 0 1.11-.89 2-1.99 2-1.11 0-2.01-.889-2.01-2zm81.32-.519a2 2 0 1 1 4 0c0 1.11-.89 2-2 2a2 2 0 0 1-2-2zm-81.32-9.481c0-1.109.9-2 2.01-2 1.1 0 1.99.891 1.99 2 0 1.11-.89 2-1.99 2-1.11 0-2.01-.889-2.01-2zm81.32-.519a2 2 0 1 1 4 0c0 1.11-.89 2-2 2a2 2 0 0 1-2-2zm-.92-9.08c0-1.1.9-2 2-2 1.11 0 2.01.9 2.01 2 0 1.11-.9 2-2.01 2a2 2 0 0 1-2-2zm-10 0a2 2 0 1 1 4 0c0 1.11-.89 2-2 2a2 2 0 0 1-2-2zm-10 0c0-1.1.9-2 2.01-2 1.1 0 1.99.9 1.99 2 0 1.11-.89 2-1.99 2-1.11 0-2.01-.89-2.01-2zm-10 0c0-1.1.9-2 2.01-2 1.1 0 1.99.9 1.99 2 0 1.11-.89 2-1.99 2-1.11 0-2.01-.89-2.01-2zm-10 0c0-1.1.9-2 2.01-2 1.1 0 1.99.9 1.99 2 0 1.11-.89 2-1.99 2-1.11 0-2.01-.89-2.01-2zm-9.99 0c0-1.1.89-2 1.99-2a2 2 0 0 1 2 2c0 1.11-.89 2-2 2-1.1 0-1.99-.89-1.99-2zm-10 0c0-1.1.89-2 1.99-2a2 2 0 0 1 2 2c0 1.11-.89 2-2 2-1.1 0-1.99-.89-1.99-2zm-10 0c0-1.1.89-2 1.99-2 1.11 0 2.01.9 2.01 2 0 1.11-.9 2-2.01 2-1.1 0-1.99-.89-1.99-2zm-10.01 0c0-1.1.9-2 2-2 1.11 0 2.01.9 2.01 2 0 1.11-.9 2-2.01 2a2 2 0 0 1-2-2zM1168.78 978.911c0-1.109.899-2 2.01-2 1.1 0 1.99.891 1.99 2 0 1.101-.891 2-1.99 2-1.11 0-2.01-.899-2.01-2zm81.32-.519a2 2 0 1 1 4 0c0 1.11-.89 2-2 2a2 2 0 0 1-2-2zm-81.32-9.481c0-1.1.899-2 2.01-2 1.1 0 1.99.9 1.99 2 0 1.101-.891 2-1.99 2-1.11 0-2.01-.899-2.01-2zm81.32-.519a2 2 0 1 1 4 0c0 1.11-.89 2-2 2a2 2 0 0 1-2-2zm-81.32-9.481c0-1.1.899-2 2.01-2 1.1 0 1.99.9 1.99 2 0 1.101-.891 2-1.99 2-1.11 0-2.01-.899-2.01-2zm81.32-.519a2 2 0 1 1 4 0c0 1.11-.89 2-2 2a2 2 0 0 1-2-2zm-81.32-9.481c0-1.1.899-2 2.01-2 1.1 0 1.99.9 1.99 2 0 1.101-.891 2-1.99 2-1.11 0-2.01-.899-2.01-2zm81.32-.519a2 2 0 1 1 4 0c0 1.11-.89 2-2 2a2 2 0 0 1-2-2zm-81.32-9.481c0-1.1.899-2 2.01-2 1.1 0 1.99.9 1.99 2 0 1.11-.891 2-1.99 2-1.11 0-2.01-.889-2.01-2zm81.32-.519a2 2 0 1 1 4 0c0 1.11-.89 2-2 2a2 2 0 0 1-2-2zm-81.32-9.481c0-1.1.899-2 2.01-2 1.1 0 1.99.9 1.99 2 0 1.11-.891 2-1.99 2-1.11 0-2.01-.889-2.01-2zm81.32-.519a2 2 0 1 1 4 0c0 1.11-.89 2-2 2a2 2 0 0 1-2-2zm-81.32-9.481c0-1.109.899-2 2.01-2 1.1 0 1.99.891 1.99 2 0 1.11-.891 2-1.99 2-1.11 0-2.01-.889-2.01-2zm81.32-.519a2 2 0 1 1 4 0c0 1.11-.89 2-2 2a2 2 0 0 1-2-2zm-81.32-9.481c0-1.109.899-2 2.01-2 1.1 0 1.99.891 1.99 2 0 1.11-.891 2-1.99 2-1.11 0-2.01-.889-2.01-2zm81.32-.519a2 2 0 1 1 4 0c0 1.11-.89 2-2 2a2 2 0 0 1-2-2zm-81.32-9.481c0-1.109.899-2 2.01-2 1.1 0 1.99.891 1.99 2 0 1.101-.891 2-1.99 2-1.11 0-2.01-.899-2.01-2zm81.32-.519a2 2 0 1 1 4 0c0 1.11-.89 2-2 2a2 2 0 0 1-2-2zm-81.32-9.481c0-1.109.899-2 2.01-2 1.1 0 1.99.891 1.99 2 0 1.101-.891 2-1.99 2-1.11 0-2.01-.899-2.01-2zm81.32-.519a2 2 0 1 1 4 0c0 1.11-.89 2-2 2a2 2 0 0 1-2-2zm-81.32-9.481c0-1.1.899-2 2.01-2 1.1 0 1.99.9 1.99 2 0 1.101-.891 2-1.99 2-1.11 0-2.01-.899-2.01-2zm81.32-.519a2 2 0 1 1 4 0c0 1.11-.89 2-2 2a2 2 0 0 1-2-2zm-81.32-9.481c0-1.1.899-2 2.01-2 1.1 0 1.99.9 1.99 2 0 1.101-.891 2-1.99 2-1.11 0-2.01-.899-2.01-2zm81.32-.519a2 2 0 1 1 4 0c0 1.11-.89 2-2 2a2 2 0 0 1-2-2zm-81.32-9.481c0-1.1.899-2 2.01-2 1.1 0 1.99.9 1.99 2 0 1.101-.891 2-1.99 2-1.11 0-2.01-.899-2.01-2zm81.32-.519a2 2 0 1 1 4 0c0 1.11-.89 2-2 2a2 2 0 0 1-2-2zm-81.32-9.481c0-1.1.899-2 2.01-2 1.1 0 1.99.9 1.99 2 0 1.11-.891 2-1.99 2-1.11 0-2.01-.889-2.01-2zm81.32-.519a2 2 0 1 1 4 0c0 1.11-.89 2-2 2a2 2 0 0 1-2-2zm-81.32-9.481c0-1.1.899-2 2.01-2 1.1 0 1.99.9 1.99 2 0 1.11-.891 2-1.99 2-1.11 0-2.01-.889-2.01-2zm81.32-.519a2 2 0 1 1 4 0c0 1.11-.89 2-2 2a2 2 0 0 1-2-2zm-81.32-9.481c0-1.109.899-2 2.01-2 1.1 0 1.99.891 1.99 2 0 1.11-.891 2-1.99 2-1.11 0-2.01-.889-2.01-2zm81.32-.519a2 2 0 1 1 4 0c0 1.11-.89 2-2 2a2 2 0 0 1-2-2zm-.92-9.08c0-1.1.9-2 2.01-2 1.101 0 1.99.9 1.99 2 0 1.11-.89 2-1.99 2-1.11 0-2.01-.89-2.01-2zm-9.991 0a2 2 0 0 1 2-2c1.101 0 1.99.9 1.99 2 0 1.11-.89 2-1.99 2-1.109 0-2-.89-2-2zm-10 0a2 2 0 0 1 2-2c1.101 0 1.99.9 1.99 2 0 1.11-.89 2-1.99 2-1.109 0-2-.89-2-2zm-10 0c0-1.1.891-2 1.99-2a2 2 0 0 1 2 2c0 1.11-.89 2-2 2-1.099 0-1.99-.89-1.99-2zm-10 0c0-1.1.891-2 1.99-2 1.11 0 2.01.9 2.01 2 0 1.11-.899 2-2.01 2-1.099 0-1.99-.89-1.99-2zm-10 0c0-1.1.891-2 1.99-2 1.11 0 2.01.9 2.01 2 0 1.11-.899 2-2.01 2-1.099 0-1.99-.89-1.99-2zm-10.009 0c0-1.1.9-2 2-2 1.11 0 2.01.9 2.01 2 0 1.11-.899 2-2.01 2a2 2 0 0 1-2-2zm-10 0a2.005 2.005 0 0 1 4.01 0c0 1.11-.899 2-2 2-1.11 0-2.01-.89-2.01-2zm-10 0c0-1.1.9-2 2.01-2 1.101 0 1.99.9 1.99 2 0 1.11-.89 2-1.99 2-1.11 0-2.01-.89-2.01-2zM905.831 742.748h45.741v243.847h-45.741z"/><path d="M316.455 683.939c-6.693 23.348-29.425 40.584-56.36 40.584-26.933 0-49.663-17.23-56.358-40.576-6.695 23.346-29.425 40.576-56.358 40.576-3.899 0-7.72-.377-11.43-1.073L84.086 800.4c-3.424 5.079-4.668 10.989-3.505 16.639 5.318 25.831 29.625 44.58 57.795 44.58 32.455 0 58.859-24.696 58.859-55.052a2 2 0 0 1 4 0c0 30.355 26.404 55.052 58.859 55.052s58.859-24.696 58.859-55.052c0-1.104.896-2 2-2s2.005.896 2.005 2c0 30.355 26.404 55.052 58.859 55.052 28.212 0 52.526-18.781 57.812-44.658 1.145-5.605-.069-11.47-3.419-16.513l-51.24-77.134a61.944 61.944 0 0 1-12.155 1.209c-26.934 0-49.666-17.237-56.36-40.584z"/><path fill="#FFD829" d="M135.022 721.246a59.662 59.662 0 0 1-2.087-.482l-1.18 1.75c.687.18 1.379.344 2.075.5l1.192-1.768zM137.16 721.653a58 58 0 0 1-2.138-.407l-1.191 1.768c.702.158 1.408.302 2.119.435l1.21-1.796z"/><path fill="#FFD829" d="m134.136 718.981-1.201 1.783c.691.171 1.386.335 2.087.482l1.22-1.811a56.65 56.65 0 0 1-2.106-.454zM138.398 719.817a56.706 56.706 0 0 1-2.155-.381l-1.22 1.811c.708.148 1.421.283 2.138.407l1.237-1.837z"/><path d="m423.062 664.107-60.832-91.572a52.872 52.872 0 0 1-6.706.427c-22.563 0-41.663-14.202-47.714-33.596-3.564 11.425-11.66 21.044-22.322 27.023a51.217 51.217 0 0 1-3.6 1.837c-6.584 3.031-13.98 4.736-21.792 4.736-7.124 0-13.901-1.419-20.033-3.967a50.5 50.5 0 0 1-3.687-1.709c-11.484-5.886-20.243-15.901-23.992-27.913-6.052 19.391-25.151 33.589-47.712 33.589a52.87 52.87 0 0 1-5.822-.331l-61.623 91.431c-3.148 4.671-4.293 10.103-3.224 15.296 4.052 19.681 20.048 34.898 40.133 39.623a58.293 58.293 0 0 0 4.261.836c2.931.459 5.93.706 8.982.706 29.973 0 54.358-22.803 54.358-50.832a2 2 0 0 1 4 0c0 28.029 24.385 50.832 54.358 50.832s54.358-22.803 54.358-50.832c0-1.104.896-2 2-2s2.004.896 2.004 2c0 28.029 24.385 50.832 54.358 50.832a58.13 58.13 0 0 0 9.753-.825 57.368 57.368 0 0 0 2.134-.402c.699-.146 1.392-.31 2.082-.481 19.775-4.92 35.442-20.044 39.423-39.528 1.052-5.154-.065-10.545-3.145-15.18z"/><path d="M156.918 568.339a48.71 48.71 0 0 0 4.485.504c1.082.072 2.17.119 3.269.119 25.206 0 45.712-19.168 45.712-42.728a2 2 0 0 1 4 0c0 16.4 9.943 30.664 24.485 37.824a46.979 46.979 0 0 0 3.886 1.701 48.214 48.214 0 0 0 17.34 3.202 48.12 48.12 0 0 0 18.955-3.862 46.798 46.798 0 0 0 3.83-1.848c13.689-7.39 22.927-21.21 22.927-37.018 0-1.104.896-2 2-2s2.004.896 2.004 2c0 23.56 20.506 42.728 45.712 42.728 1.418 0 2.822-.064 4.211-.183a48.68 48.68 0 0 0 4.411-.59c18.088-3.245 32.725-16.5 36.278-33.893.875-4.281-.055-8.763-2.617-12.619l-52.815-79.504c-17.812-3.626-32.1-16.248-37.182-32.535-4.482 14.365-16.129 25.875-31.035 30.881-.832.279-1.67.545-2.521.783-.982.275-1.981.513-2.987.732a52.663 52.663 0 0 1-23.84-.346 51.746 51.746 0 0 1-2.555-.707c-15.599-4.729-27.859-16.51-32.487-31.338-4.99 15.99-18.855 28.439-36.213 32.318l-53.703 79.68c-2.619 3.885-3.572 8.401-2.683 12.716 3.631 17.637 18.674 31.015 37.133 33.983z"/><path d="M397.807 391.947 341.244 306.8a39.051 39.051 0 0 1-12.395 2.013c-16.234 0-30.063-9.87-35.066-23.567-5.002 13.697-18.832 23.567-35.066 23.567-16.232 0-30.061-9.868-35.064-23.562-5.003 13.694-18.832 23.562-35.064 23.562-3.216 0-6.35-.396-9.35-1.133l-56.771 84.231c-2.619 3.885-3.572 8.401-2.683 12.716 4.128 20.051 23.006 34.604 44.887 34.604 3.111 0 6.149-.294 9.087-.851a47.316 47.316 0 0 0 2.84-.634 47.475 47.475 0 0 0 2.996-.865c17.898-5.796 30.79-21.7 30.79-40.376a2 2 0 0 1 4 0c0 20.303 15.234 37.332 35.575 41.655a48.07 48.07 0 0 0 4.108.688c1.974.245 3.984.383 6.029.383 2.533 0 5.015-.202 7.437-.574a48.463 48.463 0 0 0 4.09-.804c19.643-4.788 34.185-21.509 34.185-41.348 0-1.104.896-2 2-2s2.004.896 2.004 2c0 19.061 13.425 35.242 31.9 40.728a48.045 48.045 0 0 0 5.67 1.306c2.645.446 5.363.692 8.143.692 21.914 0 40.796-14.579 44.899-34.665.873-4.28-.056-8.761-2.618-12.619z"/><path d="M177.545 303.036a35.053 35.053 0 0 0 11.044 1.778c18.232 0 33.064-13.849 33.064-30.871a2 2 0 0 1 4 0c0 17.022 14.833 30.871 33.064 30.871 18.232 0 33.064-13.849 33.064-30.871a2 2 0 0 1 4.003 0c0 17.022 14.833 30.871 33.064 30.871 3.503 0 6.899-.516 10.096-1.474a34.533 34.533 0 0 0 1.964-.659 34.446 34.446 0 0 0 1.901-.753c9.386-4.087 16.48-12.186 18.518-22.166.614-3.008-.041-6.159-1.845-8.875L271.06 137.782c-2.507-3.773-6.854-6.036-11.627-6.053h-.05c-4.758 0-9.102 2.234-11.628 5.983l-89.742 133.152c-1.844 2.735-2.517 5.91-1.893 8.941 2.257 10.966 10.627 19.651 21.425 23.231z"/><path fill="#FFF" d="M777.572 493.923H305.62c-16.569 0-30-13.431-30-30v-87.388c0-16.569 13.431-30 30-30h471.952c16.569 0 30 13.431 30 30v87.388c0 16.569-13.431 30-30 30z"/><path d="M340.557 432.071a1.794 1.794 0 0 1-1.798 1.797c-.321 0-.707-.128-1.092-.256l-19.781-8.928c-.963-.449-1.349-.963-1.349-1.798s.514-1.413 1.349-1.798l19.781-8.928c.385-.129.771-.257 1.092-.257.963 0 1.798.771 1.798 1.798 0 .707-.578 1.35-1.413 1.734l-17.02 7.45 17.02 7.45c.835.387 1.413 1.029 1.413 1.736zM355.522 426.933v-22.222c0-1.413.771-2.184 1.927-2.184 1.156 0 1.991.771 1.991 2.184v22.222c0 7.386 3.211 10.404 8.414 10.404 5.331 0 8.542-3.019 8.542-10.404v-22.222c0-1.413.771-2.184 1.927-2.184 1.156 0 1.991.771 1.991 2.184v22.222c0 8.734-4.046 14.064-12.459 14.064-8.287 0-12.333-5.33-12.333-14.064zM394.828 437.915c-1.67-1.092-2.44-1.799-2.44-3.019 0-.964.835-1.733 1.798-1.733s1.605.449 3.147 1.541c2.44 1.67 5.459 2.633 8.863 2.633 5.138 0 10.083-2.312 10.083-7 0-3.982-3.854-5.717-10.083-7.258-8.413-2.055-13.166-4.624-13.166-10.982 0-5.779 5.588-9.569 12.588-9.569 4.368 0 8.735 1.22 11.689 3.532.771.578 1.285 1.092 1.285 1.991 0 1.027-.707 1.862-1.863 1.862-.835 0-1.413-.385-2.312-.963-2.44-1.67-5.459-2.762-8.863-2.762-5.395 0-8.478 2.568-8.478 6.037 0 4.174 4.431 5.651 9.634 7 8.349 2.119 13.615 4.303 13.615 10.982 0 6.937-6.101 10.789-14.065 10.789-5.01.001-8.863-1.411-11.432-3.081zM433.107 438.044v-32.562c0-1.284.771-2.055 2.055-2.055h21.13c1.413 0 2.119.835 2.119 1.862 0 1.028-.706 1.862-2.119 1.862-2.955 0-14.836-.192-19.268-.257v12.78c4.432-.063 12.139-.192 14.258-.192 1.413 0 2.12.835 2.12 1.862s-.707 1.863-2.12 1.863c-2.119 0-9.505-.129-14.258-.193v13.615c4.817-.063 16.313-.256 19.268-.256 1.413 0 2.119.834 2.119 1.862 0 1.027-.706 1.862-2.119 1.862h-21.13c-1.285.002-2.055-.769-2.055-2.053zM510.5 437.915c-1.67-1.092-2.44-1.799-2.44-3.019 0-.964.835-1.733 1.798-1.733s1.605.449 3.147 1.541c2.44 1.67 5.459 2.633 8.863 2.633 5.138 0 10.083-2.312 10.083-7 0-3.982-3.854-5.717-10.083-7.258-8.413-2.055-13.166-4.624-13.166-10.982 0-5.779 5.588-9.569 12.588-9.569 4.368 0 8.735 1.22 11.689 3.532.771.578 1.285 1.092 1.285 1.991 0 1.027-.707 1.862-1.863 1.862-.835 0-1.413-.385-2.312-.963-2.44-1.67-5.459-2.762-8.863-2.762-5.395 0-8.478 2.568-8.478 6.037 0 4.174 4.431 5.651 9.634 7 8.349 2.119 13.615 4.303 13.615 10.982 0 6.937-6.101 10.789-14.065 10.789-5.01.001-8.863-1.411-11.432-3.081zM547.045 407.151c-1.413 0-2.12-.834-2.12-1.862 0-1.027.707-1.862 2.12-1.862h27.295c1.413 0 2.119.835 2.119 1.862 0 1.028-.707 1.862-2.119 1.862-2.312 0-9.184-.192-11.689-.257v31.919c0 1.414-.835 2.184-1.991 2.184-1.156 0-1.927-.77-1.927-2.184v-31.919c-2.44.065-9.376.257-11.688.257zM589.755 403.427h9.056c7.129 0 13.744 3.082 13.744 10.854 0 6.23-4.239 9.441-9.569 10.469l8.67 12.331c.578.835.835 1.413.835 2.184 0 1.028-.771 1.733-1.798 1.733-1.027 0-1.541-.577-2.312-1.669l-9.569-14.194h-7.193v13.68c0 1.414-.835 2.184-1.991 2.184-1.156 0-1.927-.77-1.927-2.184v-33.332c-.001-1.286.77-2.056 2.054-2.056zm9.056 3.596h-7.193v14.516h7.193c5.78 0 9.698-2.569 9.698-7.258 0-4.688-3.918-7.258-9.698-7.258zM626.878 407.151c-1.413 0-2.12-.834-2.12-1.862 0-1.027.707-1.862 2.12-1.862h21.515c1.413 0 2.119.835 2.119 1.862 0 1.028-.707 1.862-2.119 1.862-1.927 0-6.551-.192-8.799-.257v29.735c2.248-.063 6.872-.256 8.799-.256 1.413 0 2.119.834 2.119 1.862 0 1.027-.707 1.862-2.119 1.862h-21.515c-1.413 0-2.12-.835-2.12-1.862 0-1.028.707-1.862 2.12-1.862 1.927 0 6.615.192 8.798.256v-29.735c-2.183.065-6.871.257-8.798.257zM677.231 437.337c3.597 0 6.615-1.349 9.12-4.303.642-.771 1.156-1.092 2.055-1.092.963 0 1.862.706 1.862 1.734 0 .834-.257 1.284-.707 1.798-3.404 3.917-7.899 5.522-12.331 5.522-9.505 0-15.35-7.578-15.35-19.267s5.845-19.203 15.35-19.203c4.432 0 8.927 1.605 12.331 5.523.45.514.707.964.707 1.798 0 1.027-.899 1.734-1.862 1.734-.899 0-1.413-.321-2.055-1.092-2.505-2.954-5.523-4.303-9.12-4.303-6.743 0-11.303 5.395-11.303 15.542s4.56 15.609 11.303 15.609zM701.188 407.151c-1.413 0-2.12-.834-2.12-1.862 0-1.027.707-1.862 2.12-1.862h27.295c1.413 0 2.119.835 2.119 1.862 0 1.028-.707 1.862-2.119 1.862-2.312 0-9.184-.192-11.689-.257v31.919c0 1.414-.835 2.184-1.991 2.184-1.156 0-1.927-.77-1.927-2.184v-31.919c-2.44.065-9.376.257-11.688.257zM742.164 413.702c0-1.027.835-1.798 1.798-1.798.321 0 .707.128 1.092.257l19.781 8.928c.835.385 1.349.963 1.349 1.798s-.386 1.349-1.349 1.798l-19.781 8.928c-.385.128-.771.256-1.092.256-.963 0-1.798-.77-1.798-1.797 0-.707.514-1.35 1.413-1.734l17.019-7.45-17.019-7.45c-.899-.386-1.413-1.029-1.413-1.736z"/><path fill="#FFD829" d="M1059.097 987.869a9.991 9.991 0 0 1-1.543-.243c-5.373-1.278-8.693-6.669-7.415-12.042l7.806-32.821c4.819-20.265-7.746-40.672-28.01-45.493l-100.718-23.954c-9.816-2.336-19.955-.706-28.547 4.584s-14.61 13.61-16.945 23.426l-7.806 32.821c-1.277 5.374-6.666 8.697-12.043 7.415-5.373-1.278-8.693-6.669-7.415-12.042l7.806-32.821c3.571-15.015 12.774-27.739 25.916-35.831 13.142-8.092 28.649-10.578 43.661-7.01l100.718 23.954c30.993 7.372 50.212 38.584 42.84 69.577l-7.806 32.821c-1.155 4.859-5.672 8.038-10.499 7.659z"/><path fill="#FFF" d="m1072.435 976.918 6.912-29.065c3.689-15.509 1.105-31.546-7.275-45.157s-21.538-23.139-37.047-26.827l-100.719-23.955c-15.538-3.692-31.581-1.117-45.172 7.253-13.596 8.372-23.118 21.537-26.812 37.071l-7.133 29.991-16.403-3.827c-16.112 69.056 26.807 138.099 95.863 154.211s138.099-26.807 154.211-95.863l-16.425-3.832zm-206.222-79.755c3.447-14.494 12.332-26.779 25.019-34.591 12.683-7.809 27.654-10.21 42.149-6.768l100.719 23.954c14.47 3.441 26.746 12.332 34.566 25.033s10.232 27.665 6.791 42.135l-6.916 29.082-15.583-3.636 6.933-29.147c5.075-21.337-8.156-42.825-29.493-47.9l-100.719-23.954a40.037 40.037 0 0 0-9.277-1.096c-7.274 0-14.429 2.011-20.782 5.922-9.047 5.57-15.383 14.33-17.842 24.667l-7.113 29.909-15.581-3.635 7.129-29.975zm12.348 34.519 7.109-29.892c2.211-9.297 7.911-17.177 16.047-22.187 8.14-5.013 17.74-6.551 27.036-4.342l100.719 23.954c19.191 4.565 31.092 23.893 26.528 43.084l-6.937 29.165-170.502-39.782zM1816.895 475.347l-186.4-358.476c-32.924-63.317-123.509-63.317-156.433 0l-186.401 358.476c-30.516 58.688 12.069 128.829 78.216 128.829h372.801c66.149 0 108.734-70.142 78.217-128.829zm-306.804 21.343c0-22.56 18.288-40.848 40.848-40.848s40.848 18.288 40.848 40.848h-81.696z"/><path fill="#FFF" d="m1583.987 461.27-21.353-5.26.105-.168h-22.691l.124.198-21.231 5.23 15.348 14.871 6.365-19.331 10.739 17.142 10.832-17.29 6.414 19.479z"/><path d="M1691.275 330.476c0-24.975-20.247-45.222-45.222-45.222-21.707 0-39.833 15.297-44.208 35.697-15.659-5.75-32.857-8.93-50.907-8.93-17.103 0-33.442 2.855-48.431 8.046-4.703-19.955-22.613-34.812-44.004-34.812-24.975 0-45.222 20.246-45.222 45.222 0 17.043 9.432 31.878 23.356 39.586-10.967 16.786-17.238 36.219-17.238 56.933 0 63.499 58.892 114.974 131.539 114.974s131.539-51.476 131.539-114.974c0-20.286-6.018-39.34-16.568-55.885 15.02-7.355 25.366-22.785 25.366-40.635zm-45.222-24.33c13.438 0 24.33 10.893 24.33 24.33 0 11.202-7.572 20.629-17.876 23.458-8.752-9.286-19.139-17.35-30.775-23.857.215-13.252 11.018-23.931 24.321-23.931zm-211.88 24.33c0-13.437 10.893-24.33 24.33-24.33 12.823 0 23.321 9.922 24.255 22.506-12.417 6.591-23.481 14.932-32.757 24.625-9.243-3.449-15.828-12.355-15.828-22.801zM1493.824 444c-6.986 0-12.649-5.663-12.649-12.649s5.663-12.649 12.649-12.649 12.649 5.663 12.649 12.649S1500.81 444 1493.824 444zm16.267 52.69c0-22.56 18.288-40.848 40.848-40.848s40.848 18.288 40.848 40.848h-81.696zm96.616-52.69c-6.986 0-12.649-5.663-12.649-12.649s5.663-12.649 12.649-12.649 12.649 5.663 12.649 12.649S1613.692 444 1606.707 444z"/><path fill="#FFF" d="M1515.804 419.041c-2.182 0-4.386-.65-6.306-2.003l-36.185-25.506c-4.948-3.488-6.131-10.327-2.644-15.275 3.489-4.949 10.328-6.131 15.276-2.645l36.185 25.506c4.948 3.488 6.131 10.327 2.644 15.275a10.953 10.953 0 0 1-8.97 4.648zM1582.749 419.041a10.948 10.948 0 0 1-8.969-4.648c-3.487-4.948-2.304-11.787 2.644-15.275l36.185-25.506c4.95-3.486 11.788-2.304 15.276 2.645 3.487 4.948 2.304 11.787-2.644 15.275l-36.185 25.506a10.926 10.926 0 0 1-6.307 2.003z"/><circle cx="1550.079" cy="431.351" r="15.341" fill="#FFD829"/><circle cx="1552.279" cy="249.305" r="17.131"/><path d="M1552.279 116.566c-9.461 0-17.131 7.67-17.131 17.131v71.445c0 9.461 7.67 17.131 17.131 17.131s17.131-7.67 17.131-17.131v-71.445c0-9.461-7.67-17.131-17.131-17.131z"/><circle cx="1425.661" cy="555.418" r="17.131"/><path d="M1322.078 472.41c-5.917 7.383-4.728 18.165 2.655 24.081l55.752 44.678c7.383 5.917 18.165 4.728 24.081-2.655 5.917-7.383 4.728-18.164-2.656-24.081l-55.752-44.678c-7.382-5.917-18.163-4.728-24.08 2.655z"/><circle cx="1678.896" cy="555.418" r="17.131"/><path d="M1782.479 472.41c5.917 7.383 4.728 18.165-2.655 24.081l-55.752 44.678c-7.383 5.917-18.165 4.728-24.081-2.655-5.917-7.383-4.728-18.164 2.655-24.081l55.752-44.678c7.383-5.917 18.164-4.728 24.081 2.655zM1265.945 141.717l-40.499-60.964c-6.128-9.225-20.438-9.269-26.63-.081l-41.143 61.045h108.272z"/><circle cx="1084.697" cy="303.477" r="47.435" fill="#FFD829"/><path d="M1080.367 283.474c1.924-3.333 6.736-3.333 8.66 0l10.105 17.503 10.105 17.503c1.925 3.333-.481 7.5-4.33 7.5h-40.42c-3.849 0-6.255-4.167-4.33-7.5l10.105-17.503 10.105-17.503z"/><path fill="#FFF" d="M1084.697 254.042c-27.259 0-49.436 22.176-49.436 49.435s22.177 49.436 49.436 49.436 49.436-22.177 49.436-49.436-22.177-49.435-49.436-49.435zm45.436 49.435c0 11.734-4.471 22.442-11.798 30.512l-64.149-64.149c8.07-7.327 18.778-11.798 30.512-11.798 25.053 0 45.435 20.382 45.435 45.435zm-90.871 0c0-11.884 4.592-22.712 12.088-30.817l64.165 64.165c-8.105 7.496-18.933 12.087-30.817 12.087-25.054 0-45.436-20.382-45.436-45.435z"/><circle cx="1263.707" cy="303.477" r="47.435" fill="#FFD829"/><path d="m1283.778 323.669-15.304-6.619-7.803 14.735-4.366-16.092-16.386 3.087 9.859-13.447-12.63-10.887 16.66-.676.637-16.661 10.916 12.603 13.424-9.89-3.047 16.392 16.101 4.329-14.716 7.838z"/><path fill="#FFF" d="M1298.859 338.194c8.824-8.934 14.284-21.198 14.284-34.718 0-27.259-22.177-49.435-49.436-49.435s-49.436 22.176-49.436 49.435 22.177 49.436 49.436 49.436c13.52 0 25.785-5.46 34.719-14.285.081-.06.162-.119.236-.192.075-.075.136-.158.197-.241zm10.284-34.717c0 11.808-4.53 22.575-11.94 30.663l-64.087-64.226c8.08-7.37 18.819-11.872 30.592-11.872 25.053 0 45.435 20.382 45.435 45.435zm-90.872 0c0-11.844 4.56-22.641 12.011-30.737l64.09 64.229c-8.088 7.412-18.857 11.943-30.666 11.943-25.053 0-45.435-20.382-45.435-45.435zM1132.133 375.968h-94.871a2 2 0 0 1 0-4h94.871a2 2 0 0 1 0 4zM1132.133 393.245h-94.871a2 2 0 0 1 0-4h94.871a2 2 0 0 1 0 4zM1132.133 410.522h-94.871a2 2 0 0 1 0-4h94.871a2 2 0 0 1 0 4zM1132.133 427.799h-94.871a2 2 0 0 1 0-4h94.871a2 2 0 0 1 0 4zM1132.133 445.076h-94.871a2 2 0 0 1 0-4h94.871a2 2 0 0 1 0 4zM1311.143 619.535h-94.871a2 2 0 0 1 0-4h94.871a2 2 0 0 1 0 4zM1311.143 636.812h-94.871a2 2 0 0 1 0-4h94.871a2 2 0 0 1 0 4zM1311.143 654.089h-94.871a2 2 0 0 1 0-4h94.871a2 2 0 0 1 0 4zM1311.143 671.366h-94.871a2 2 0 0 1 0-4h94.871a2 2 0 0 1 0 4zM1311.143 688.644h-94.871a2 2 0 0 1 0-4h94.871a2 2 0 0 1 0 4zM1490.152 619.535h-94.871a2 2 0 0 1 0-4h94.871a2 2 0 0 1 0 4zM1490.152 636.812h-94.871a2 2 0 0 1 0-4h94.871a2 2 0 0 1 0 4zM1490.152 654.089h-94.871a2 2 0 0 1 0-4h94.871a2 2 0 0 1 0 4zM1490.152 671.366h-94.871a2 2 0 0 1 0-4h94.871a2 2 0 0 1 0 4zM1490.152 688.644h-94.871a2 2 0 0 1 0-4h94.871a2 2 0 0 1 0 4zM1132.133 619.535h-94.871a2 2 0 0 1 0-4h94.871a2 2 0 0 1 0 4zM1132.133 636.812h-94.871a2 2 0 0 1 0-4h94.871a2 2 0 0 1 0 4zM1132.133 654.089h-94.871a2 2 0 0 1 0-4h94.871a2 2 0 0 1 0 4zM1132.133 671.366h-94.871a2 2 0 0 1 0-4h94.871a2 2 0 0 1 0 4zM1132.133 688.644h-94.871a2 2 0 0 1 0-4h94.871a2 2 0 0 1 0 4z"/><circle cx="471.331" cy="232.174" r="8.422" fill="#FFD829"/><circle cx="317.026" cy="70.253" r="8.422" fill="#FFD829"/><circle cx="57.26" cy="354.806" r="8.422" fill="#FFD829"/><circle cx="425.35" cy="172.133" r="8.422" fill="#FFD829"/><circle cx="1650.384" cy="16.743" r="8.422" fill="#FFD829"/><circle cx="468.005" cy="46.088" r="8.422" fill="#FFD829"/><circle cx="1097.281" cy="46.088" r="8.422" fill="#FFD829"/><circle cx="145.472" cy="31.416" r="8.422" fill="#FFD829"/><circle cx="1800.274" cy="266.436" r="8.422" fill="#FFD829"/><circle cx="1800.274" cy="107.763" r="8.422" fill="#FFD829"/><circle cx="1371.795" cy="78.675" r="8.422" fill="#FFD829"/><path fill="#FFF" d="M1223.634 1004.642c-2.001-12.759 6.72-24.725 19.479-26.727l79.649-12.493 7.248 46.206-79.649 12.493c-12.759 2.002-24.725-6.719-26.727-19.479z"/><path d="M1356.906 1026.52c15.594-2.446 26.253-17.071 23.807-32.665l-4.241-27.037c-2.446-15.594-17.071-26.253-32.665-23.807l-11.488-8.373a39.618 39.618 0 0 0-29.474-7.123l-1.927.302c-12.625 1.98-21.254 13.82-19.273 26.445l12.639 80.579c1.98 12.625 13.82 21.254 26.444 19.273l3.418-.536a35.97 35.97 0 0 0 23.497-14.351l9.263-12.707z"/><path fill="#FFF" d="M446.19 1053.253c-11.833 5.176-25.621-.221-30.797-12.054l-32.309-73.866 42.851-18.743 32.309 73.866c5.176 11.833-.221 25.621-12.054 30.797z"/><path d="M433.509 918.794c-6.326-14.462-23.178-21.058-37.64-14.732l-25.074 10.967c-14.462 6.326-21.058 23.178-14.732 37.64l-5.181 13.237a39.614 39.614 0 0 0 .595 30.316l.781 1.787c5.121 11.708 18.764 17.048 30.472 11.927l74.729-32.686c11.708-5.121 17.048-18.764 11.927-30.472l-1.386-3.17a35.973 35.973 0 0 0-19.847-19.083l-14.644-5.731z"/><path fill="#FFD829" d="M102.484 219.198c-41.079 0-74.38-33.301-74.38-74.38s33.301-74.38 74.38-74.38c1.046 0 2.085.027 3.12.07a78.772 78.772 0 0 0-26.67-4.624C35.34 65.884 0 101.224 0 144.818s35.34 78.934 78.934 78.934c9.36 0 18.338-1.633 26.67-4.624-1.035.043-2.075.07-3.12.07z"/><path d="m634.217 921.413 46.771.075-.104 65.118-46.771-.075z"/><g fill="#FFF"><circle cx="658.499" cy="888.208" r="18.289"/><path d="M723.115 902.865a26.15 26.15 0 0 0 .222-1.481c.04-.34.072-.682.099-1.026.011-.148.026-.295.035-.443.029-.486.048-.975.049-1.468l.005-3.46a38.973 38.973 0 0 0-.093-2.586c-.012-.179-.024-.358-.038-.537a38.069 38.069 0 0 0-.806-5.336l-.013-.06a37.521 37.521 0 0 0-6.085-13.56l-1.275-1.867-.064.098a38.628 38.628 0 0 0-2.704-3.021l-10.527-10.562a30.534 30.534 0 0 0-1.712-9.35l.11-.015-.743-1.643a30.256 30.256 0 0 0-3.156-5.715l-.14-.197c-.264-.37-.537-.735-.818-1.094-.126-.162-.251-.325-.38-.484-.172-.211-.352-.417-.53-.625a30.412 30.412 0 0 0-2.587-2.675l-.098-.09a29.895 29.895 0 0 0-1.062-.92l-.131-.106a30.345 30.345 0 0 0-3.113-2.23c-.19-.119-.377-.241-.569-.356-.23-.136-.464-.266-.697-.397a27.34 27.34 0 0 0-1.451-.766c-.393-.194-.79-.377-1.191-.553-.112-.049-.221-.101-.333-.148a30.11 30.11 0 0 0-3.4-1.209l-.228-.063a30.177 30.177 0 0 0-1.547-.392c-.094-.021-.187-.043-.281-.063a31.703 31.703 0 0 0-1.739-.327l-.037-.007-.026-.004-.206-.032-2.027-.315-.002.093a31.004 31.004 0 0 0-2.426-.107l-27.367-.045h-.053c-.936 0-1.865.047-2.787.129l-.002-.084-1.632.273a30.25 30.25 0 0 0-12.68 4.906l-.044.031c-.439.298-.869.61-1.294.932-.146.111-.29.225-.434.338-.288.227-.573.459-.854.697-.179.152-.358.304-.534.46a31.2 31.2 0 0 0-.735.678c-.173.163-.348.323-.517.491l-.074.07c-.362.36-.712.729-1.053 1.104-.064.07-.124.144-.187.215a30.482 30.482 0 0 0-1.15 1.37 30.347 30.347 0 0 0-4.203 7.069l-.721 1.89a30.571 30.571 0 0 0-1.665 9.123l-9.493 9.462a42.298 42.298 0 0 0-2.634 2.886l-.058-.106-1.22 1.718a41.157 41.157 0 0 0-7.198 15.336l-.04.176a41.11 41.11 0 0 0-.532 2.69c-.017.106-.039.211-.055.317-.045.292-.082.587-.121.881-.045.337-.089.675-.126 1.014a44.07 44.07 0 0 0-.167 1.988c-.013.212-.028.423-.038.636a41.567 41.567 0 0 0-.049 1.871l-.003 1.951a25.108 25.108 0 0 0 .094 2.131 25.043 25.043 0 0 0 .193 1.707 31.128 31.128 0 0 0 .413 2.078c.129.535.269 1.065.431 1.586l.019.069.932 2.974.161-.145c3.949 8.693 12.7 14.763 22.854 14.78l81.564.134h.041c10.633-.001 19.744-6.643 23.41-15.998l.16.123.758-2.913c.019-.073.032-.148.05-.221.098-.391.188-.785.268-1.182.032-.166.058-.329.087-.491zm-3.595-4.425c-.001.659-.042 1.31-.102 1.954-.01.107-.017.215-.029.323-.009.078-.026.153-.036.231a20.036 20.036 0 0 0-9.661-2.459c-11.187 0-20.289 9.102-20.289 20.288 0 .246.006.497.017.752l-62.181-.102c.008-.22.013-.436.013-.65 0-11.187-9.102-20.288-20.289-20.288a20.188 20.188 0 0 0-10.976 3.246 19.944 19.944 0 0 1-.134-.887c-.025-.208-.058-.415-.077-.623a21.049 21.049 0 0 1-.097-1.987l.003-1.951c.001-.771.033-1.538.081-2.302.012-.198.029-.396.044-.593.05-.635.113-1.267.194-1.896.017-.132.031-.265.049-.397a37.306 37.306 0 0 1 4.957-14.028 20.288 20.288 0 0 0 16.06 7.89c11.188 0 20.289-9.102 20.289-20.289 0-9.789-6.939-18.002-16.272-19.868a26.725 26.725 0 0 1 2.241-3.231l.019-.025c.191-.236.391-.464.59-.692.104-.119.204-.241.31-.358.121-.134.247-.262.37-.394.186-.198.371-.397.564-.59.086-.087.176-.169.264-.254.227-.222.456-.442.69-.655.107-.097.217-.189.325-.284.213-.188.426-.375.645-.555.18-.148.365-.29.549-.434.147-.115.292-.232.441-.344.292-.218.59-.429.891-.635.042-.029.083-.06.126-.088a26.468 26.468 0 0 1 8.325-3.727c1.39 9.828 9.94 17.471 20.076 17.471 10.15 0 18.706-7.661 20.081-17.506l.056.013c.388.094.773.198 1.154.308l.141.039c.401.119.797.248 1.19.385l.094.031c.391.138.777.286 1.159.442l.106.041c.33.135.654.282.977.431.089.041.18.077.268.119.096.046.189.097.285.144a26.614 26.614 0 0 1 8.778 6.914c.067.081.136.16.202.241.141.173.275.351.411.527.165.216.332.43.491.652.046.063.09.128.135.192.495.701.961 1.427 1.39 2.18-8.594 2.428-14.785 10.381-14.785 19.51 0 11.188 9.102 20.289 20.289 20.289a20.209 20.209 0 0 0 15.155-6.812 33.76 33.76 0 0 1 4.135 12.265c.018.133.032.267.048.4.065.538.116 1.078.155 1.62.013.174.028.348.037.523.039.672.063 1.346.062 2.024l-.004 3.459z"/></g><circle cx="1850.875" cy="652.089" r="8.422" fill="#FFD829"/></svg>