<svg xmlns="http://www.w3.org/2000/svg" xml:space="preserve" viewBox="0 0 1080 1080"><path d="M220.595 985.597c0-1.11.9-2 2.011-2a2 2 0 0 1 2 2c0 1.1-.9 2-2 2a2.009 2.009 0 0 1-2.011-2zm-9.99 0c0-1.11.89-2 2-2a2 2 0 0 1 2 2c0 1.1-.9 2-2 2a2 2 0 0 1-2-2zm-10 0c0-1.11.89-2 2-2a2 2 0 0 1 2 2c0 1.1-.9 2-2 2a2 2 0 0 1-2-2zm-10 0c0-1.11.89-2 2-2a2 2 0 0 1 2 2c0 1.1-.9 2-2 2a2 2 0 0 1-2-2zm-10 0c0-1.11.89-2 2-2a2 2 0 0 1 2 2c0 1.1-.9 2-2 2a2 2 0 0 1-2-2zm-10 0c0-1.11.89-2 2-2a2 2 0 0 1 2 2c0 1.1-.9 2-2 2a2 2 0 0 1-2-2zm-10 0c0-1.11.89-2 2-2a2 2 0 0 1 2 2c0 1.1-.9 2-2 2a2 2 0 0 1-2-2zm-10 0c0-1.11.89-2 2-2 1.1 0 1.989.89 1.989 2 0 1.1-.89 2-1.989 2a2 2 0 0 1-2-2zm-10 0c0-1.11.89-2 2-2a2 2 0 0 1 2 2c0 1.1-.9 2-2 2a2 2 0 0 1-2-2zm-1.32-8.681c0-1.109.89-2 2-2a2 2 0 0 1 2 2 1.999 1.999 0 1 1-4 0zm81.31-.52c0-1.11.9-2 2.011-2a2 2 0 0 1 2 2c0 1.1-.9 2-2 2-1.111 0-2.011-.9-2.011-2zm-81.31-9.48c0-1.109.89-2.01 2-2.01a2.005 2.005 0 0 1 0 4.01c-1.11 0-2-.899-2-2zm81.31-.52c0-1.11.9-2 2.011-2a2 2 0 0 1 2 2c0 1.1-.9 2-2 2-1.111 0-2.011-.9-2.011-2zm-81.31-9.48c0-1.109.89-2 2-2a2 2 0 0 1 2 2 1.999 1.999 0 1 1-4 0zm81.31-.52c0-1.11.9-2 2.011-2a2 2 0 0 1 2 2c0 1.1-.9 2-2 2-1.111 0-2.011-.9-2.011-2zm-81.31-9.48c0-1.109.89-2 2-2a2 2 0 0 1 2 2 1.999 1.999 0 1 1-4 0zm81.31-.52c0-1.11.9-2 2.011-2a2 2 0 0 1 2 2c0 1.1-.9 2-2 2-1.111 0-2.011-.9-2.011-2zm-81.31-9.48c0-1.109.89-2 2-2a2 2 0 0 1 2 2 1.999 1.999 0 1 1-4 0zm81.31-.52c0-1.11.9-2 2.011-2a2 2 0 0 1 2 2c0 1.1-.9 2-2 2-1.111 0-2.011-.9-2.011-2zm-81.31-9.48c0-1.109.89-2 2-2a2 2 0 0 1 2 2 1.999 1.999 0 1 1-4 0zm81.31-.52c0-1.11.9-2 2.011-2a2 2 0 0 1 2 2c0 1.1-.9 2-2 2-1.111 0-2.011-.9-2.011-2zm-81.31-9.48c0-1.109.89-2 2-2a2 2 0 0 1 2 2 1.999 1.999 0 1 1-4 0zm81.31-.52c0-1.11.9-2 2.011-2a2 2 0 0 1 2 2c0 1.1-.9 2-2 2-1.111 0-2.011-.9-2.011-2zm-81.31-9.48c0-1.109.89-2 2-2a2 2 0 0 1 2 2 1.999 1.999 0 1 1-4 0zm81.31-.52c0-1.11.9-2 2.011-2a2 2 0 0 1 2 2c0 1.1-.9 2-2 2-1.111 0-2.011-.9-2.011-2zm-81.31-9.48c0-1.109.89-2 2-2a2 2 0 0 1 2 2 1.999 1.999 0 1 1-4 0zm81.31-.52c0-1.11.9-2 2.011-2a2 2 0 0 1 2 2c0 1.1-.9 2-2 2-1.111 0-2.011-.9-2.011-2zm-81.31-9.48c0-1.109.89-2 2-2a2 2 0 0 1 2 2 1.999 1.999 0 1 1-4 0zm81.31-.52c0-1.11.9-2 2.011-2a2 2 0 0 1 2 2c0 1.1-.9 2-2 2-1.111 0-2.011-.9-2.011-2zm-81.31-9.48c0-1.109.89-2 2-2a2 2 0 0 1 2 2 1.999 1.999 0 1 1-4 0zm81.31-.52c0-1.11.9-2 2.011-2a2 2 0 0 1 2 2c0 1.1-.9 2-2 2-1.111 0-2.011-.9-2.011-2zm-81.31-9.48c0-1.109.89-2 2-2a2 2 0 0 1 2 2c0 1.101-.9 1.99-2 1.99-1.11 0-2-.889-2-1.99zm81.31-.52c0-1.11.9-2 2.011-2a2 2 0 0 1 2 2c0 1.1-.9 2-2 2-1.111 0-2.011-.9-2.011-2zm-81.31-9.48c0-1.109.89-2 2-2a2 2 0 0 1 2 2 1.999 1.999 0 1 1-4 0zm81.31-.52c0-1.11.9-2 2.011-2a2 2 0 0 1 2 2c0 1.1-.9 2-2 2-1.111 0-2.011-.9-2.011-2zm-81.31-9.48c0-1.109.89-2 2-2a2 2 0 0 1 2 2 1.999 1.999 0 1 1-4 0zm81.31-.52c0-1.11.9-2 2.011-2a2 2 0 0 1 2 2c0 1.1-.9 2-2 2-1.111 0-2.011-.9-2.011-2zm-81.31-9.48c0-1.109.89-2 2-2a2 2 0 0 1 2 2c0 1.101-.9 1.99-2 1.99-1.11 0-2-.889-2-1.99zm81.31-.52c0-1.11.9-2 2.011-2a2 2 0 0 1 2 2c0 1.1-.9 2-2 2-1.111 0-2.011-.9-2.011-2zm-81.31-9.48c0-1.109.89-2 2-2a2 2 0 0 1 2 2 1.999 1.999 0 1 1-4 0zm81.31-.52c0-1.11.9-2 2.011-2a2 2 0 0 1 2 2c0 1.1-.9 2-2 2-1.111 0-2.011-.9-2.011-2zm-.91-9.08c0-1.11.89-2 2-2a2 2 0 0 1 2 2 2 2 0 1 1-4 0zm-10 0c0-1.11.89-2 2-2a2 2 0 0 1 2 2 2 2 0 1 1-4 0zm-10 0c0-1.11.89-2 2-2a2 2 0 0 1 2 2 2 2 0 1 1-4 0zm-10 0c0-1.11.89-2 2-2a2 2 0 0 1 2 2 2 2 0 1 1-4 0zm-10 0c0-1.11.89-2 2-2a2 2 0 0 1 2 2 2 2 0 1 1-4 0zm-10 0c0-1.11.89-2 2-2a2 2 0 0 1 2 2 2 2 0 1 1-4 0zm-10 0c0-1.11.89-2 2-2a2 2 0 0 1 2 2 2 2 0 1 1-4 0zm-10 0c0-1.11.89-2 2-2a2 2 0 0 1 2 2 2 2 0 1 1-4 0zm-10 0c0-1.11.89-2 2-2a2 2 0 0 1 2 2 2 2 0 1 1-4 0z"/><path d="M238.295 682.938c-6.691 23.351-29.423 40.585-56.359 40.585-26.933 0-49.663-17.23-56.358-40.576-6.695 23.346-29.425 40.576-56.357 40.576-3.899 0-7.72-.377-11.43-1.074L5.926 799.4c-3.423 5.079-4.668 10.987-3.505 16.638 5.318 25.831 29.625 44.58 57.796 44.58 32.455 0 58.858-24.696 58.858-55.052a2 2 0 0 1 4 0c0 30.355 26.404 55.052 58.859 55.052s58.859-24.696 58.859-55.052c0-1.104.896-2 2-2s2.005.896 2.005 2c0 30.355 26.403 55.052 58.858 55.052 28.213 0 52.526-18.781 57.812-44.658 1.146-5.604-.068-11.469-3.418-16.513l-51.241-77.135a61.868 61.868 0 0 1-12.155 1.21c-26.935 0-49.667-17.234-56.359-40.584z"/><path d="m344.902 663.106-60.832-91.572a52.9 52.9 0 0 1-6.707.427c-22.562 0-41.663-14.202-47.714-33.596-3.564 11.425-11.66 21.044-22.322 27.023a51.217 51.217 0 0 1-3.6 1.836c-6.584 3.031-13.979 4.736-21.792 4.736-7.125 0-13.902-1.419-20.034-3.967a50.454 50.454 0 0 1-3.686-1.709c-11.484-5.886-20.242-15.901-23.992-27.913-6.053 19.391-25.15 33.589-47.712 33.589-1.966 0-3.908-.119-5.822-.331l-61.624 91.432c-3.147 4.67-4.292 10.103-3.223 15.295 4.052 19.681 20.048 34.898 40.133 39.623a58.706 58.706 0 0 0 4.26.836c2.931.459 5.931.706 8.982.706 29.973 0 54.357-22.803 54.357-50.832a2 2 0 0 1 4 0c0 28.029 24.385 50.832 54.358 50.832 29.973 0 54.357-22.803 54.357-50.832 0-1.104.896-2 2-2s2.005.896 2.005 2c0 28.029 24.385 50.832 54.357 50.832a58.13 58.13 0 0 0 9.753-.825 58.154 58.154 0 0 0 2.134-.402c.699-.146 1.392-.31 2.082-.481 19.775-4.92 35.442-20.044 39.422-39.528 1.057-5.151-.061-10.542-3.14-15.179z"/><path d="m319.647 520.677-52.815-79.504c-17.812-3.626-32.1-16.248-37.182-32.535-4.482 14.365-16.129 25.875-31.036 30.881a51.86 51.86 0 0 1-2.521.782c-.982.275-1.981.514-2.988.732a52.66 52.66 0 0 1-23.84-.346 52.508 52.508 0 0 1-2.554-.706c-15.599-4.729-27.859-16.511-32.487-31.338-4.991 15.99-18.855 28.439-36.214 32.318l-53.703 79.68c-2.618 3.886-3.571 8.401-2.683 12.716 3.631 17.636 18.674 31.014 37.134 33.982a48.666 48.666 0 0 0 4.484.504c1.082.072 2.171.119 3.27.119 25.206 0 45.712-19.168 45.712-42.728a2 2 0 0 1 4 0c0 16.401 9.943 30.664 24.485 37.824a46.979 46.979 0 0 0 3.886 1.701 48.22 48.22 0 0 0 17.341 3.202 48.12 48.12 0 0 0 18.955-3.862 47.497 47.497 0 0 0 3.83-1.848c13.688-7.39 22.927-21.21 22.927-37.018 0-1.104.896-2 2-2s2.004.896 2.004 2c0 23.56 20.506 42.728 45.712 42.728a48.506 48.506 0 0 0 8.621-.772c18.088-3.245 32.725-16.5 36.278-33.892.876-4.281-.053-8.763-2.616-12.62z"/><path d="M319.647 390.947 263.084 305.8a39.053 39.053 0 0 1-12.396 2.013c-16.233 0-30.063-9.87-35.065-23.566-5.003 13.696-18.833 23.566-35.066 23.566-16.232 0-30.061-9.868-35.063-23.562-5.003 13.694-18.832 23.562-35.064 23.562-3.216 0-6.35-.396-9.35-1.133l-56.771 84.232c-2.618 3.886-3.571 8.401-2.683 12.715 4.128 20.051 23.006 34.604 44.888 34.604 3.111 0 6.149-.294 9.087-.851a47.457 47.457 0 0 0 2.839-.634 47.223 47.223 0 0 0 2.994-.865c17.899-5.795 30.791-21.7 30.791-40.377a2 2 0 0 1 4 0c0 20.303 15.234 37.332 35.576 41.655a48.07 48.07 0 0 0 4.108.688c1.974.244 3.984.383 6.028.383 2.533 0 5.015-.202 7.437-.574a48.463 48.463 0 0 0 4.09-.804c19.644-4.788 34.185-21.509 34.185-41.348 0-1.104.896-2 2-2s2.004.896 2.004 2c0 19.061 13.425 35.242 31.899 40.728a47.984 47.984 0 0 0 5.67 1.306c2.645.446 5.363.692 8.143.692 21.913 0 40.797-14.579 44.899-34.665.875-4.278-.055-8.76-2.617-12.618z"/><path d="M99.386 302.036a35.494 35.494 0 0 0 4.093 1.085c2.249.452 4.574.693 6.95.693 18.231 0 33.064-13.849 33.064-30.871a2 2 0 0 1 4 0c0 17.022 14.832 30.871 33.063 30.871s33.064-13.849 33.064-30.871a2 2 0 0 1 4.003 0c0 17.022 14.833 30.871 33.064 30.871 3.503 0 6.899-.516 10.096-1.474a34.238 34.238 0 0 0 1.963-.659 34.446 34.446 0 0 0 1.901-.753c9.386-4.087 16.479-12.186 18.517-22.165.615-3.008-.04-6.159-1.845-8.875l-88.422-133.105c-2.507-3.773-6.854-6.036-11.627-6.052h-.051c-4.757 0-9.102 2.233-11.628 5.982L79.85 269.864c-1.844 2.735-2.516 5.911-1.892 8.941 2.258 10.966 10.63 19.652 21.428 23.231z"/><circle cx="222.602" cy="45.088" r="8.422" fill="#FFD829"/><circle cx="47.726" cy="217.271" r="8.422" fill="#FFD829"/><circle cx="757.026" cy="128.729" r="8.422" fill="#FFD829"/><circle cx="790.978" cy="45.088" r="8.422" fill="#FFD829"/><circle cx="995.909" cy="60.832" r="8.422" fill="#FFD829"/><circle cx="1028.338" cy="111.034" r="8.422" fill="#FFD829"/><circle cx="1018.578" cy="671.389" r="8.422" fill="#FFD829"/><circle cx="955.115" cy="601.03" r="8.422" fill="#FFD829"/><path fill="#FFF" d="M162.312 1052.253c-11.833 5.176-25.621-.221-30.797-12.054l-32.309-73.866 42.851-18.743 32.309 73.866c5.176 11.833-.221 25.622-12.054 30.797z"/><path d="M149.63 917.794c-6.326-14.462-23.178-21.058-37.64-14.732L86.917 914.03c-14.462 6.326-21.058 23.178-14.732 37.64l-5.181 13.237a39.614 39.614 0 0 0 .595 30.316l.781 1.787c5.121 11.708 18.764 17.048 30.472 11.927l74.729-32.687c11.708-5.121 17.048-18.764 11.927-30.472l-1.386-3.17a35.973 35.973 0 0 0-19.847-19.083l-14.645-5.731z"/><path fill="#FFD829" d="M116.336 158.479c-31.254 0-56.591-25.337-56.591-56.591s25.337-56.591 56.591-56.591c.795 0 1.586.021 2.374.053a59.949 59.949 0 0 0-20.291-3.518c-33.168 0-60.056 26.888-60.056 60.056s26.888 60.056 60.056 60.056a59.945 59.945 0 0 0 20.291-3.518c-.788.032-1.579.053-2.374.053z"/><path d="m971.152 920.4 46.77.074-.104 65.118-46.77-.075z"/><g fill="#FFF"><circle cx="995.434" cy="887.208" r="18.289" transform="rotate(-9.213 995.404 887.027)"/><path d="M1059.998 902.19c.089-.466.163-.935.226-1.408.016-.116.029-.232.043-.349.045-.375.081-.752.109-1.13.01-.131.021-.262.029-.394.029-.486.048-.973.048-1.463l.006-3.46a38.948 38.948 0 0 0-.093-2.586c-.012-.179-.024-.358-.038-.537a37.983 37.983 0 0 0-.821-5.402 37.533 37.533 0 0 0-6.076-13.543l-1.282-1.879-.064.098a38.628 38.628 0 0 0-2.704-3.021l-10.527-10.562a30.385 30.385 0 0 0-1.725-9.346l.123-.017-1.006-2.224-.018-.04-.079-.173c-.035-.078-.076-.151-.112-.229a30.281 30.281 0 0 0-1.371-2.616 30.42 30.42 0 0 0-17.07-13.69c-.147-.047-.293-.097-.441-.142-.309-.093-.62-.179-.932-.262a31.787 31.787 0 0 0-.821-.208c-.258-.061-.515-.123-.776-.178-.405-.086-.813-.16-1.224-.23-.129-.022-.255-.052-.384-.072l-2.259-.352-.002.095a30.919 30.919 0 0 0-2.427-.109l-27.367-.045h-.052c-.94 0-1.869.048-2.788.132l-.002-.086-1.718.287c-.12.018-.238.041-.357.06l-.204.034c-.026.004-.051.011-.077.015a30.4 30.4 0 0 0-1.638.326l-.253.058c-.535.126-1.065.265-1.588.419-.052.015-.105.028-.157.044-.553.166-1.1.347-1.64.543-.179.065-.354.138-.531.206a27.243 27.243 0 0 0-1.786.751 30.674 30.674 0 0 0-1.56.767l-.145.079a30.526 30.526 0 0 0-11.229 10.357c-.068.105-.14.208-.207.315-.154.245-.3.495-.448.745a31.052 31.052 0 0 0-.786 1.408 31.47 31.47 0 0 0-.562 1.135c-.045.095-.096.186-.14.282l-1.228 2.684.151.007a30.427 30.427 0 0 0-1.677 9.123l-9.493 9.462a42.298 42.298 0 0 0-2.634 2.886l-.058-.106-1.217 1.714a41.164 41.164 0 0 0-7.204 15.354l-.026.116a42.016 42.016 0 0 0-.568 2.881l-.029.166c-.047.301-.084.604-.125.907-.044.329-.087.658-.123.988a41.818 41.818 0 0 0-.167 1.986c-.013.216-.028.431-.038.647a41.434 41.434 0 0 0-.049 1.868l-.003 1.95a25.382 25.382 0 0 0 .088 2.079c.098 1.23.284 2.442.557 3.628l.004.02c.167.724.365 1.438.595 2.141l.84 2.677.147-.133a25.114 25.114 0 0 0 5.103 7.375c4.74 4.756 11.049 7.381 17.765 7.393l5.952.01 71.231.117 4.381.007h.041c6.699 0 13-2.604 17.746-7.334a25.055 25.055 0 0 0 5.674-8.656l.15.115.734-2.821c.143-.542.269-1.089.375-1.642.006-.001.007-.007.008-.012zm-95.824 16.237a15.8 15.8 0 0 0 .013-.65c0-11.188-9.102-20.289-20.288-20.289-3.919 0-7.72 1.138-10.982 3.249a21.734 21.734 0 0 1-.124-.85c-.03-.239-.067-.477-.088-.717a21.41 21.41 0 0 1-.091-1.935l.003-1.95a37.66 37.66 0 0 1 .081-2.308c.012-.194.029-.386.043-.579.05-.643.114-1.283.197-1.919.016-.125.029-.25.047-.375a37.317 37.317 0 0 1 4.958-14.035 20.288 20.288 0 0 0 16.059 7.89c11.188 0 20.289-9.102 20.289-20.289 0-9.786-6.934-17.996-16.262-19.866.045-.076.087-.154.132-.23l.152-.244a26.726 26.726 0 0 1 13.336-10.943c.053-.02.104-.042.157-.061.148-.054.301-.101.45-.152a26.505 26.505 0 0 1 2.112-.636c1.391 9.827 9.94 17.47 20.076 17.47 10.15 0 18.706-7.661 20.08-17.506l.055.012c.387.094.771.197 1.152.308l.145.04c.397.118.79.246 1.179.381l.106.035c.382.135.759.28 1.133.431l.135.052c.311.128.616.267.921.406.108.05.218.094.325.145.06.029.118.061.178.09a26.607 26.607 0 0 1 8.85 6.929c.082.098.166.194.246.293.128.157.249.319.373.479.178.232.357.463.529.701.035.048.068.097.102.145.503.71.975 1.447 1.411 2.211-8.594 2.427-14.785 10.38-14.785 19.509 0 11.188 9.102 20.289 20.289 20.289a20.205 20.205 0 0 0 15.154-6.812 33.757 33.757 0 0 1 4.135 12.267c.018.132.032.264.048.396.065.539.116 1.081.156 1.625.013.173.028.346.037.52.039.673.063 1.347.062 2.025l-.006 3.46a21.409 21.409 0 0 1-.094 1.867c-.011.13-.021.26-.035.389-.009.085-.028.167-.038.251a20.036 20.036 0 0 0-9.661-2.459c-11.188 0-20.289 9.102-20.289 20.289 0 .246.006.496.018.752l-1.091-.002-61.09-.099z"/></g><path fill="#FFD829" d="M715.247 60.832v460.157c0 16.569-13.431 30-30 30H288.331c-16.569 0-30-13.431-30-30V60.832h456.916z"/><path fill="#FFF" d="M685.247 552.988H288.331c-17.645 0-32-14.355-32-32V58.832h460.916v462.156c0 17.645-14.356 32-32 32zM260.331 62.832v458.156c0 15.439 12.561 28 28 28h396.916c15.439 0 28-12.561 28-28V62.832H260.331z"/><path d="M685.247 0H288.331c-17.645 0-32 14.355-32 32v32.832h460.916V32c0-17.645-14.356-32-32-32zM329.224 47.088c-8.103 0-14.673-6.569-14.673-14.673s6.569-14.673 14.673-14.673 14.673 6.569 14.673 14.673-6.569 14.673-14.673 14.673z"/><circle cx="486.789" cy="300.348" r="186.106" fill="#FFD829"/><path d="M585.238 321.783V182.888l-43.73 54.02-54.719-85.198-47.395 83.596-51.054-52.061v139.231c-16.754 3.838-29.51 22.557-29.51 45.018 0 25.228 16.088 45.751 35.863 45.751h189.302c19.775 0 35.863-20.523 35.863-45.751-.001-24.695-15.419-44.869-34.62-45.711zm-57.411 3.96c-7.458 3.511-15.856 6.077-24.688 7.507-7.28 1.179-11.747.63-17.403-.067-4.886-.601-10.43-1.285-19.099-1.095-3.088.067-6.194.338-9.197.6-4.838.421-9.84.854-14.679.412-9.773-.9-19.231-3.479-27.174-7.356h112.24zm-159.393 18.138c7.99-3.452 17.714-3.161 26.803.846 2.305 1.016 4.186 2.443 6.178 3.955 1.553 1.179 3.158 2.396 5.012 3.442 4.685 2.641 10.217 3.354 15.135 3.987 5.278.68 15.272 3.512 16.403 6.736.097.276.392 1.118-1.176 2.739-1.075 1.111-2.912 1.535-4.393 1.781-3.413.565-6.626.118-10.029-.354-2.46-.341-4.998-.679-7.668-.649-7.192.121-13.25 1.434-18.007 3.903-4.127 2.144-7.332 5.349-10.432 8.448-.731.731-1.463 1.463-2.205 2.179-6.156 5.936-13.084 8.53-16.02 9.427-3.286-6.566-5.205-14.408-5.205-22.829-.001-8.756 2.072-16.89 5.604-23.611zm1.595 50.013c3.653-1.198 10.527-4.067 16.803-10.119.759-.732 1.508-1.48 2.257-2.229 3.017-3.018 5.867-5.867 9.446-7.726 4.202-2.183 9.662-3.345 16.23-3.454 2.356-.051 4.635.277 7.051.612 3.55.491 7.22 1.002 11.233.336 2.087-.346 4.725-.993 6.613-2.946 2.714-2.807 2.626-5.27 2.075-6.843-2.484-7.089-19.495-9.358-19.703-9.385-4.739-.611-9.64-1.243-13.645-3.5-1.617-.912-3.046-1.996-4.559-3.145-2.088-1.584-4.247-3.223-6.982-4.429-8.325-3.671-17.18-4.519-25.079-2.53 5.799-7.879 13.928-12.794 22.922-12.794h12.561c.277.173.499.295.766.437.238.126.531.281 1.045.588 9.229 5.523 21.066 9.187 33.329 10.314 5.197.479 10.382.028 15.393-.41 2.939-.256 5.979-.521 8.937-.584 8.396-.185 13.772.481 18.524 1.064 3.312.408 6.363.783 9.861.783 2.559 0 5.356-.2 8.669-.736 11.992-1.941 23.241-5.904 32.577-11.456h33.003c-3.634 2.082-6.947 4.909-9.822 8.334-2.232.393-9.316 1.901-19.258 6.536-5.41 2.523-14.22 8.924-16.311 16.215-.911 3.18-.483 6.163 1.273 8.868 1.941 2.99 5.442 3.935 9.375 3.935 3.887 0 8.195-.922 11.835-1.701a260.64 260.64 0 0 1 1.682-.355c.021 15.72 6.289 29.605 15.799 37.823-3.614-1.375-6.581-3.46-9.177-5.292-1.084-.765-2.107-1.487-3.084-2.088-.44-.271-.875-.552-1.311-.832-.916-.59-1.864-1.2-2.88-1.741-3.728-1.98-7.596-2.699-11.336-3.395-4.978-.925-9.679-1.799-13.56-5.618-3.896-3.833-6.131-9.017-8.497-14.504-2.799-6.492-5.694-13.205-11.61-17.541-8.596-6.298-20.359-4.904-27.823-1.8-5.708 2.377-11.51 6.557-15.92 11.468-1.132 1.261-2.157 2.598-3.148 3.892-1.142 1.49-2.221 2.897-3.44 4.184-5.608 5.919-13.841 8.813-21.801 11.613-.979.344-1.955.687-2.923 1.034-3.973 1.425-8.085 3.105-10.881 6.566-1.1 1.362-1.87 2.856-2.615 4.301-.285.555-.571 1.11-.876 1.653-3.245 5.791-10.783 11.946-18.358 11.946-9.929.002-18.812-5.986-24.66-15.349zm178.25-30.427c-.812.157-1.694.344-2.665.552-5.483 1.173-14.658 3.134-17.018-.5-1.114-1.715-1.37-3.543-.784-5.588 1.62-5.646 9.253-11.406 14.156-13.692 5.85-2.727 10.677-4.317 13.989-5.223-4.274 6.834-7.046 15.254-7.678 24.451zM416.54 399.255c.327-.584.636-1.18.942-1.776.684-1.325 1.328-2.576 2.171-3.62 2.146-2.655 5.682-4.081 9.12-5.314.96-.345 1.928-.686 2.898-1.026 8.409-2.957 17.104-6.015 23.378-12.635 1.363-1.438 2.558-2.996 3.712-4.503.988-1.289 1.922-2.507 2.95-3.652 4.025-4.483 9.304-8.291 14.48-10.446 6.503-2.707 16.67-3.982 23.921 1.333 5.039 3.692 7.596 9.622 10.303 15.898 2.414 5.6 4.911 11.389 9.364 15.771 4.753 4.677 10.284 5.705 15.635 6.699 3.602.67 7.004 1.302 10.188 2.994.868.462 1.705 1.001 2.592 1.572.458.295.917.59 1.381.875.869.535 1.842 1.222 2.872 1.949 2.76 1.949 6.119 4.314 10.331 5.871h-55.027c-7.723-1.513-12.016-5.381-17.934-10.724-.601-.542-1.214-1.096-1.846-1.66-11.017-9.844-24.495-11.868-36.981-5.56-6.801 3.437-12.337 10.222-14.732 17.943h-29.257c4.092-2.666 7.491-6.334 9.539-9.989zm80.289 9.99H440.48c2.249-6.215 6.802-11.587 12.315-14.373 10.938-5.525 22.79-3.715 32.512 4.972.627.561 1.235 1.11 1.83 1.647 3.33 3.006 6.288 5.666 9.692 7.754zm87.165 0c-17.569 0-31.862-18.729-31.862-41.751s14.293-41.751 31.862-41.751 31.863 18.729 31.863 41.751-14.294 41.751-31.863 41.751z"/><path d="M583.994 339.021c-12.401 0-22.49 12.773-22.49 28.474s10.089 28.474 22.49 28.474 22.49-12.773 22.49-28.474-10.089-28.474-22.49-28.474zm0 52.947c-10.195 0-18.49-10.979-18.49-24.474s8.295-24.474 18.49-24.474 18.49 10.979 18.49 24.474-8.295 24.474-18.49 24.474z"/><path d="M583.994 353.768c-6.107 0-11.076 6.157-11.076 13.727s4.969 13.727 11.076 13.727 11.076-6.157 11.076-13.727-4.969-13.727-11.076-13.727zm0 23.453c-3.901 0-7.076-4.363-7.076-9.727s3.175-9.727 7.076-9.727 7.076 4.363 7.076 9.727-3.175 9.727-7.076 9.727z"/><path fill="#FFF" d="M628.567 423.833c28.836-33.065 46.327-76.27 46.327-123.486 0-103.722-84.384-188.105-188.105-188.105-47.265 0-90.509 17.528-123.588 46.418a2.012 2.012 0 0 0-.591.402 1.99 1.99 0 0 0-.292.381c-38.999 34.49-63.635 84.871-63.635 140.904 0 103.722 84.384 188.105 188.105 188.105 55.987 0 106.329-24.595 140.817-63.537.18-.093.352-.205.502-.355.214-.212.363-.462.46-.727zm42.327-123.485c0 45.695-16.74 87.55-44.402 119.769L367.02 160.644c32.219-27.661 74.074-44.402 119.769-44.402 101.516 0 184.105 82.59 184.105 184.106zM486.789 484.453c-101.516 0-184.105-82.59-184.105-184.105 0-54.383 23.709-103.326 61.325-137.059l259.839 259.839c-33.733 37.616-82.676 61.325-137.059 61.325z"/><path d="M511.659 987.595h-49.74V601.03h4v382.565h41.74V601.03h4z"/><circle cx="290.025" cy="32.416" r="14.673" fill="#FFF"/><circle cx="368.424" cy="32.416" r="14.673" fill="#FFD829"/><path d="M632.495 981.916c0-1.109.89-2.01 2-2.01a2.005 2.005 0 0 1 0 4.01c-1.11 0-2-.899-2-2zm95.31-8.52a2 2 0 0 1 2-2c1.11 0 2 .89 2 2a2 2 0 0 1-2 2c-1.1 0-2-.9-2-2zm-95.31-1.48c0-1.109.89-2 2-2a2 2 0 0 1 2 2 1.999 1.999 0 1 1-4 0zm95.31-8.52a2 2 0 0 1 2-2c1.11 0 2 .89 2 2a2 2 0 0 1-2 2c-1.1 0-2-.9-2-2zm-95.31-1.48c0-1.109.89-2 2-2a2 2 0 0 1 2 2 1.999 1.999 0 1 1-4 0zm95.31-8.52a2 2 0 0 1 2-2c1.11 0 2 .89 2 2a2 2 0 0 1-2 2c-1.1 0-2-.9-2-2zm-95.31-1.48c0-1.109.89-2.01 2-2.01a2.005 2.005 0 0 1 0 4.01c-1.11 0-2-.899-2-2zm95.31-8.52a2 2 0 0 1 2-2c1.11 0 2 .89 2 2a2 2 0 0 1-2 2c-1.1 0-2-.9-2-2zm-95.31-1.48c0-1.109.89-2 2-2a2 2 0 0 1 2 2 1.999 1.999 0 1 1-4 0zm95.31-8.52a2 2 0 0 1 2-2c1.11 0 2 .89 2 2a2 2 0 0 1-2 2c-1.1 0-2-.9-2-2zm-95.31-1.48c0-1.109.89-2 2-2a2 2 0 0 1 2 2 1.999 1.999 0 1 1-4 0zm95.31-8.52a2 2 0 0 1 2-2c1.11 0 2 .89 2 2a2 2 0 0 1-2 2c-1.1 0-2-.9-2-2zm-95.31-1.48c0-1.109.89-2 2-2a2 2 0 0 1 2 2 1.999 1.999 0 1 1-4 0zm95.31-8.52a2 2 0 0 1 2-2c1.11 0 2 .89 2 2a2 2 0 0 1-2 2c-1.1 0-2-.9-2-2zm-95.31-1.48c0-1.109.89-2 2-2a2 2 0 0 1 2 2 1.999 1.999 0 1 1-4 0zm95.31-8.52a2 2 0 0 1 2-2c1.11 0 2 .89 2 2a2 2 0 0 1-2 2c-1.1 0-2-.9-2-2zm-95.31-1.48c0-1.109.89-2 2-2a2 2 0 0 1 2 2 1.999 1.999 0 1 1-4 0zm95.31-8.52a2 2 0 0 1 2-2c1.11 0 2 .89 2 2a2 2 0 0 1-2 2c-1.1 0-2-.9-2-2zm-95.31-1.48c0-1.109.89-2 2-2a2 2 0 0 1 2 2 1.999 1.999 0 1 1-4 0zm95.31-8.52a2 2 0 0 1 2-2c1.11 0 2 .89 2 2a2 2 0 0 1-2 2c-1.1 0-2-.9-2-2zm-95.31-1.48c0-1.109.89-2 2-2a2 2 0 0 1 2 2c0 1.101-.9 1.99-2 1.99-1.11 0-2-.889-2-1.99zm95.31-8.52a2 2 0 0 1 2-2c1.11 0 2 .89 2 2a2 2 0 0 1-2 2c-1.1 0-2-.9-2-2zm-95.31-1.48c0-1.109.89-2 2-2a2 2 0 0 1 2 2 1.999 1.999 0 1 1-4 0zm95.31-8.52a2 2 0 0 1 2-2c1.11 0 2 .89 2 2a2 2 0 0 1-2 2c-1.1 0-2-.9-2-2zm-95.31-1.48c0-1.109.89-2 2-2a2 2 0 0 1 2 2 1.999 1.999 0 1 1-4 0zm95.31-8.52a2 2 0 0 1 2-2c1.11 0 2 .89 2 2a2 2 0 0 1-2 2c-1.1 0-2-.9-2-2zm-95.31-1.48c0-1.109.89-2 2-2a2 2 0 0 1 2 2c0 1.101-.9 1.99-2 1.99-1.11 0-2-.889-2-1.99zm95.31-8.52a2 2 0 0 1 2-2c1.11 0 2 .89 2 2a2 2 0 0 1-2 2c-1.1 0-2-.9-2-2zm-95.31-1.48c0-1.109.89-2 2-2a2 2 0 0 1 2 2 1.999 1.999 0 1 1-4 0zm95.31-8.52a2 2 0 0 1 2-2c1.11 0 2 .89 2 2a2 2 0 0 1-2 2c-1.1 0-2-.9-2-2zm-95.31-1.48c0-1.109.89-2 2-2a2 2 0 0 1 2 2 1.999 1.999 0 1 1-4 0zm95.31-8.52a2 2 0 0 1 2-2c1.11 0 2 .89 2 2a2 2 0 0 1-2 2c-1.1 0-2-.9-2-2zm-95.31-1.49c0-1.1.89-1.99 2-1.99 1.1 0 2 .891 2 1.99a2 2 0 0 1-2 2c-1.11 0-2-.889-2-2z"/><path d="M901.331 983.595V472.359h-4v511.236H855.59V472.359h-4v511.236H0v4h1079.925v-4z"/><path fill="#FFF" d="M1072.545 376.895 934.42 111.259c-24.397-46.919-91.522-46.919-115.919 0L680.375 376.895c-22.613 43.488 8.943 95.464 57.959 95.464h276.251c49.017.001 80.573-51.975 57.96-95.464zm-227.347 15.816c0-16.717 13.552-30.269 30.269-30.269s30.269 13.552 30.269 30.269h-60.538z"/><path fill="#FFF" d="m899.956 366.464-15.823-3.898.078-.124h-16.814l.092.146-15.733 3.876 11.374 11.019 4.716-14.324 7.958 12.703 8.026-12.812 4.753 14.433z"/><path d="M979.459 269.544c0-18.507-15.003-33.51-33.51-33.51-16.085 0-29.517 11.335-32.759 26.452-11.604-4.261-24.348-6.617-37.723-6.617-12.673 0-24.781 2.115-35.888 5.962-3.485-14.787-16.756-25.797-32.608-25.797-18.507 0-33.51 15.003-33.51 33.51 0 12.629 6.989 23.622 17.307 29.333-8.127 12.438-12.774 26.839-12.774 42.188 0 47.053 43.64 85.198 97.472 85.198s97.472-38.144 97.472-85.198c0-15.032-4.46-29.151-12.277-41.412 11.131-5.448 18.798-16.882 18.798-30.109zm-33.51-18.029c9.957 0 18.029 8.072 18.029 18.029 0 8.303-5.62 15.276-13.258 17.37-6.481-6.873-14.172-12.843-22.786-17.662.157-9.821 8.156-17.737 18.015-17.737zm-157.007 18.029c0-9.957 8.072-18.029 18.029-18.029 9.503 0 17.271 7.357 17.961 16.683-9.19 4.88-17.379 11.053-24.246 18.226-6.853-2.553-11.744-9.137-11.744-16.88zm44.202 84.123a9.373 9.373 0 1 1 0-18.746 9.373 9.373 0 0 1 0 18.746zm12.054 39.044c0-16.717 13.552-30.269 30.269-30.269s30.269 13.552 30.269 30.269h-60.538zm71.594-39.044a9.373 9.373 0 1 1 0-18.746 9.373 9.373 0 0 1 0 18.746z"/><path fill="#FFF" d="M849.432 335.172a8.092 8.092 0 0 1-4.673-1.484l-26.814-18.9a8.123 8.123 0 0 1 9.36-13.279l26.814 18.9a8.123 8.123 0 0 1-4.687 14.763zM899.039 335.172a8.124 8.124 0 0 1-4.687-14.763l26.814-18.9a8.124 8.124 0 0 1 9.36 13.279l-26.814 18.9a8.092 8.092 0 0 1-4.673 1.484z"/><circle cx="874.83" cy="344.294" r="11.368" fill="#FFD829"/><circle cx="876.46" cy="209.395" r="12.694"/><path d="M876.46 111.034c-7.011 0-12.694 5.683-12.694 12.694v52.942c0 7.011 5.683 12.694 12.694 12.694 7.011 0 12.694-5.683 12.694-12.694v-52.942c0-7.011-5.683-12.694-12.694-12.694z"/><circle cx="782.635" cy="436.229" r="12.694"/><path d="M705.879 374.719c-4.384 5.471-3.503 13.46 1.968 17.844l41.313 33.107c5.471 4.384 13.46 3.503 17.844-1.968s3.503-13.46-1.968-17.844l-41.313-33.107c-5.471-4.384-13.46-3.503-17.844 1.968z"/><circle cx="970.285" cy="436.229" r="12.694"/><path d="M1047.042 374.719c4.384 5.471 3.503 13.46-1.968 17.844l-41.313 33.107c-5.471 4.384-13.46 3.503-17.844-1.968s-3.503-13.46 1.968-17.844l41.313-33.107c5.47-4.384 13.459-3.503 17.844 1.968zM730.239 701.828c-6.051 19.394-25.151 33.596-47.715 33.596-22.562 0-41.659-14.198-47.712-33.589-5.607 17.962-22.411 31.46-42.79 33.352l-47.126 69.921c-2.618 3.885-3.571 8.4-2.683 12.716 4.128 20.051 23.006 34.604 44.887 34.604 25.206 0 45.712-19.168 45.712-42.728a2 2 0 0 1 4 0c0 23.56 20.506 42.728 45.712 42.728s45.713-19.168 45.713-42.728c0-1.104.896-2 2-2s2.004.896 2.004 2c0 23.56 20.506 42.728 45.712 42.728 21.914 0 40.797-14.579 44.898-34.666.875-4.281-.054-8.763-2.616-12.619l-46.422-69.881c-20.733-1.614-37.897-15.239-43.574-33.434z"/><path d="m820.235 684.139-61.5-92.578c-2.418.467-4.912.72-7.458.72-16.233 0-30.063-9.87-35.066-23.567-5.002 13.697-18.832 23.567-35.065 23.567-16.232 0-30.062-9.868-35.064-23.562-5.003 13.694-18.832 23.562-35.064 23.562-1.378 0-2.74-.08-4.084-.22l-62.036 92.043c-2.618 3.885-3.571 8.4-2.683 12.716 4.128 20.051 23.006 34.604 44.887 34.604a49.81 49.81 0 0 0 5.241-.289 48.05 48.05 0 0 0 2.656-.362c21.453-3.509 37.815-21.035 37.815-42.076a2 2 0 0 1 4 0c0 23.56 20.506 42.728 45.712 42.728s45.713-19.168 45.713-42.728c0-1.104.896-2 2-2s2.004.896 2.004 2c0 21.327 16.804 39.053 38.686 42.222a48.239 48.239 0 0 0 5.108.46c.637.025 1.275.046 1.918.046 21.914 0 40.797-14.579 44.898-34.666.873-4.282-.055-8.764-2.618-12.62z"/><path d="m781.91 554.353-88.423-133.104c-2.507-3.773-6.853-6.036-11.626-6.053h-.052c-4.758 0-9.102 2.233-11.628 5.982L580.439 554.33c-1.844 2.735-2.516 5.911-1.892 8.942 2.598 12.617 13.286 22.218 26.457 24.491.728.125 1.464.225 2.206.305a34.649 34.649 0 0 0 3.807.211c18.231 0 33.064-13.849 33.064-30.871a2 2 0 0 1 4 0c0 17.022 14.833 30.871 33.064 30.871s33.064-13.849 33.064-30.871a2 2 0 0 1 4.003 0c0 17.022 14.833 30.871 33.064 30.871 1.708 0 3.389-.129 5.036-.366a34.571 34.571 0 0 0 2.154-.372 34.585 34.585 0 0 0 2.067-.502c11.671-3.181 20.854-12.225 23.22-23.812.617-3.005-.038-6.158-1.843-8.874z"/><path fill="#FFD829" d="m759.654 589.328 1.178 1.773a37.71 37.71 0 0 0 2.021-.571l-1.151-1.733c-.674.197-1.357.372-2.048.531zM758.736 591.561a39.218 39.218 0 0 0 2.096-.459l-1.178-1.773a36.67 36.67 0 0 1-2.116.429l1.198 1.803z"/><path fill="#FFD829" d="m758.468 587.542 1.186 1.786a36.355 36.355 0 0 0 2.048-.531l-1.167-1.758c-.682.187-1.37.358-2.067.503z"/><path fill="#FFD829" d="m756.313 587.914 1.225 1.843a37.538 37.538 0 0 0 2.116-.429l-1.186-1.786c-.71.148-1.43.268-2.155.372z"/><path d="M379.195 616.535h45.741v369.059h-45.741z"/><path fill="#FFF" d="M617.642 657.072H186.49c-16.569 0-30-13.431-30-30v-76.084c0-16.569 13.431-30 30-30h431.153c16.569 0 30 13.431 30 30v76.084c-.001 16.569-13.432 30-30.001 30z"/><path d="M201.026 600.872a1.795 1.795 0 0 1-1.798 1.798c-.321 0-.707-.129-1.092-.257l-19.781-8.928c-.964-.449-1.349-.963-1.349-1.798s.514-1.413 1.349-1.798l19.781-8.928c.385-.128.771-.257 1.092-.257.963 0 1.798.771 1.798 1.799 0 .706-.578 1.349-1.413 1.733l-17.02 7.45 17.02 7.45c.835.386 1.413 1.029 1.413 1.736zM215.992 595.733v-22.222c0-1.412.771-2.184 1.927-2.184 1.155 0 1.99.771 1.99 2.184v22.222c0 7.386 3.212 10.404 8.414 10.404 5.33 0 8.541-3.019 8.541-10.404v-22.222c0-1.412.771-2.184 1.927-2.184 1.156 0 1.991.771 1.991 2.184v22.222c0 8.734-4.046 14.065-12.459 14.065-8.285.001-12.331-5.33-12.331-14.065zM255.298 606.716c-1.67-1.092-2.44-1.798-2.44-3.019 0-.963.835-1.733 1.799-1.733.963 0 1.605.449 3.146 1.541 2.44 1.67 5.459 2.633 8.863 2.633 5.138 0 10.083-2.312 10.083-7 0-3.982-3.854-5.716-10.083-7.258-8.413-2.055-13.166-4.624-13.166-10.982 0-5.779 5.588-9.569 12.588-9.569 4.367 0 8.734 1.221 11.688 3.532.771.578 1.285 1.092 1.285 1.991 0 1.027-.707 1.862-1.863 1.862-.835 0-1.412-.385-2.312-.963-2.44-1.67-5.459-2.762-8.863-2.762-5.395 0-8.478 2.569-8.478 6.037 0 4.175 4.432 5.651 9.634 7 8.35 2.12 13.615 4.304 13.615 10.982 0 6.937-6.101 10.79-14.064 10.79-5.009.001-8.863-1.412-11.432-3.082zM293.577 606.845v-32.562c0-1.285.771-2.056 2.055-2.056h21.13c1.413 0 2.119.835 2.119 1.862 0 1.028-.706 1.862-2.119 1.862-2.954 0-14.836-.192-19.268-.257v12.781c4.432-.064 12.139-.193 14.258-.193 1.413 0 2.12.835 2.12 1.863 0 1.027-.707 1.862-2.12 1.862-2.119 0-9.505-.129-14.258-.192v13.615c4.817-.064 16.313-.257 19.268-.257 1.413 0 2.119.835 2.119 1.862s-.706 1.862-2.119 1.862h-21.13c-1.284.002-2.055-.768-2.055-2.052zM370.97 606.716c-1.67-1.092-2.44-1.798-2.44-3.019 0-.963.835-1.733 1.799-1.733.963 0 1.605.449 3.146 1.541 2.44 1.67 5.459 2.633 8.863 2.633 5.138 0 10.083-2.312 10.083-7 0-3.982-3.854-5.716-10.083-7.258-8.413-2.055-13.166-4.624-13.166-10.982 0-5.779 5.588-9.569 12.588-9.569 4.367 0 8.734 1.221 11.688 3.532.771.578 1.285 1.092 1.285 1.991 0 1.027-.707 1.862-1.863 1.862-.835 0-1.412-.385-2.312-.963-2.44-1.67-5.459-2.762-8.863-2.762-5.395 0-8.478 2.569-8.478 6.037 0 4.175 4.432 5.651 9.634 7 8.35 2.12 13.615 4.304 13.615 10.982 0 6.937-6.101 10.79-14.064 10.79-5.01.001-8.863-1.412-11.432-3.082zM407.515 575.952c-1.413 0-2.119-.834-2.119-1.862 0-1.027.706-1.862 2.119-1.862h27.296c1.412 0 2.119.835 2.119 1.862 0 1.028-.707 1.862-2.119 1.862-2.312 0-9.185-.192-11.689-.257v31.92c0 1.413-.835 2.184-1.991 2.184-1.155 0-1.927-.771-1.927-2.184v-31.92c-2.441.065-9.377.257-11.689.257zM450.225 572.228h9.056c7.129 0 13.744 3.083 13.744 10.854 0 6.23-4.239 9.441-9.569 10.469l8.67 12.331c.578.835.835 1.413.835 2.184 0 1.028-.771 1.734-1.799 1.734-1.027 0-1.541-.578-2.312-1.67l-9.569-14.193h-7.193v13.68c0 1.413-.835 2.184-1.991 2.184-1.155 0-1.927-.771-1.927-2.184v-33.332c0-1.287.771-2.057 2.055-2.057zm9.056 3.596h-7.193v14.515h7.193c5.78 0 9.697-2.569 9.697-7.258 0-4.687-3.917-7.257-9.697-7.257zM487.349 575.952c-1.413 0-2.12-.834-2.12-1.862 0-1.027.707-1.862 2.12-1.862h21.515c1.413 0 2.119.835 2.119 1.862 0 1.028-.706 1.862-2.119 1.862-1.927 0-6.551-.192-8.799-.257v29.736c2.248-.064 6.872-.257 8.799-.257 1.413 0 2.119.835 2.119 1.862s-.706 1.862-2.119 1.862h-21.515c-1.413 0-2.12-.835-2.12-1.862s.707-1.862 2.12-1.862c1.927 0 6.614.192 8.798.257v-29.736c-2.184.065-6.872.257-8.798.257zM537.701 606.138c3.597 0 6.615-1.349 9.12-4.303.642-.771 1.155-1.092 2.055-1.092.964 0 1.862.706 1.862 1.734 0 .835-.257 1.284-.706 1.798-3.404 3.918-7.899 5.523-12.331 5.523-9.505 0-15.35-7.578-15.35-19.268 0-11.688 5.845-19.203 15.35-19.203 4.432 0 8.927 1.605 12.331 5.523.449.514.706.964.706 1.799 0 1.027-.898 1.733-1.862 1.733-.899 0-1.413-.321-2.055-1.092-2.505-2.954-5.523-4.303-9.12-4.303-6.743 0-11.304 5.395-11.304 15.542s4.561 15.609 11.304 15.609zM561.658 575.952c-1.413 0-2.12-.834-2.12-1.862 0-1.027.707-1.862 2.12-1.862h27.295c1.413 0 2.119.835 2.119 1.862 0 1.028-.706 1.862-2.119 1.862-2.312 0-9.184-.192-11.688-.257v31.92c0 1.413-.835 2.184-1.991 2.184s-1.927-.771-1.927-2.184v-31.92c-2.441.065-9.377.257-11.689.257zM602.634 582.504c0-1.028.835-1.799 1.799-1.799.32 0 .706.129 1.092.257l19.78 8.928c.835.385 1.35.963 1.35 1.798s-.386 1.349-1.35 1.798l-19.78 8.928c-.386.128-.771.257-1.092.257a1.795 1.795 0 0 1-1.799-1.798c0-.707.514-1.35 1.413-1.734l17.02-7.45-17.02-7.45c-.9-.386-1.413-1.029-1.413-1.735z"/><path fill="#FFD829" d="M570.04 987.869a9.991 9.991 0 0 1-1.543-.243c-5.373-1.278-8.693-6.669-7.415-12.042l7.806-32.821c4.819-20.265-7.746-40.672-28.011-45.493l-100.718-23.954c-9.816-2.336-19.955-.706-28.547 4.584-8.592 5.29-14.61 13.61-16.945 23.426l-7.806 32.821c-1.277 5.374-6.666 8.697-12.043 7.415-5.373-1.278-8.693-6.669-7.415-12.042l7.806-32.821c3.571-15.015 12.774-27.739 25.916-35.831 13.142-8.092 28.649-10.578 43.661-7.01l100.718 23.954c30.993 7.372 50.212 38.584 42.84 69.577l-7.806 32.821c-1.154 4.859-5.671 8.038-10.498 7.659z"/><path fill="#FFF" d="m583.378 976.917 6.912-29.065c3.689-15.509 1.105-31.546-7.275-45.157s-21.537-23.139-37.047-26.827l-100.719-23.955c-15.538-3.692-31.58-1.117-45.172 7.253-13.597 8.372-23.119 21.538-26.812 37.071l-7.133 29.992-16.404-3.827c-16.112 69.056 26.807 138.099 95.863 154.211 69.056 16.112 138.099-26.807 154.211-95.863l-16.424-3.833zm-206.223-79.754c3.447-14.494 12.332-26.779 25.02-34.591 12.682-7.81 27.65-10.209 42.148-6.768l100.719 23.954c14.47 3.442 26.746 12.333 34.566 25.034 7.821 12.701 10.232 27.664 6.791 42.134l-6.917 29.082-15.582-3.636 6.932-29.146c5.074-21.338-8.156-42.826-29.493-47.901l-100.718-23.954c-10.333-2.461-21.009-.745-30.059 4.826-9.047 5.569-15.384 14.33-17.842 24.667l-7.113 29.909-15.582-3.636 7.13-29.974zm12.348 34.519 7.109-29.892c2.212-9.298 7.911-17.177 16.049-22.187 8.14-5.011 17.741-6.55 27.035-4.342l100.718 23.954c19.191 4.565 31.092 23.894 26.528 43.085l-6.936 29.164-170.503-39.782zM657.87 1003.642c-2.001-12.759 6.72-24.725 19.479-26.727l79.649-12.493 7.248 46.206-79.649 12.493c-12.76 2.002-24.726-6.719-26.727-19.479z"/><path d="M791.142 1025.52c15.594-2.446 26.253-17.071 23.807-32.665l-4.241-27.037c-2.446-15.594-17.071-26.253-32.665-23.807l-11.488-8.373a39.617 39.617 0 0 0-29.474-7.123l-1.927.302c-12.625 1.98-21.254 13.82-19.273 26.445l12.639 80.579c1.98 12.625 13.82 21.254 26.444 19.273l3.418-.536a35.97 35.97 0 0 0 23.497-14.351l9.263-12.707z"/></svg>