<svg xmlns="http://www.w3.org/2000/svg" viewBox="0 0 1920 1080" xml:space="preserve"><path d="M1429.14 465.02c-6.35.04-12.61.47-18.77 1.2-58.59-198.53-242.7-342.94-460.07-341.82-217.35 1.13-399.98 147.44-456.5 346.54a166.84 166.84 0 0 0-18.79-.99c-91.48.48-165.26 75.02-164.79 166.5.48 91.5 75.02 165.27 166.5 164.8a165.96 165.96 0 0 0 40.38-5.2c74.82 167.3 243.1 283.48 438.13 282.48 195.03-1.01 362.1-118.93 435.2-286.98a166.06 166.06 0 0 0 40.42 4.77c91.48-.47 165.26-75.02 164.79-166.5-.47-91.5-75-165.26-166.5-164.8zm-474.89 80.41c-170.86 0-309.37-81.69-309.37-182.45 0-100.76 138.51-182.45 309.38-182.45 170.86 0 309.37 81.69 309.37 182.45 0 100.76-138.52 182.45-309.38 182.45z"/><path fill="#FFF" d="M1401.86 704.62a2.5 2.5 0 0 1-1.83-4.2l102.16-109.9a2.5 2.5 0 0 1 3.66 3.4l-102.16 109.9c-.5.53-1.16.8-1.83.8zm-898.98-4.64a2.5 2.5 0 0 1-1.85-.82L399.99 588.2a2.5 2.5 0 0 1 3.7-3.37L504.72 695.8a2.5 2.5 0 0 1-1.85 4.18z"/><g fill="#FFF"><path d="M1112.06 652.94a52.33 52.33 0 1 0 104.65.52 52.33 52.33 0 0 0-104.65-.52z"/><path d="M1164.4 708.03h-.3a54.88 54.88 0 0 1-54.54-55.1 54.9 54.9 0 0 1 54.81-54.54h.29a54.47 54.47 0 0 1 38.69 16.25 54.46 54.46 0 0 1 15.86 38.85 54.46 54.46 0 0 1-16.26 38.69 54.46 54.46 0 0 1-38.56 15.85zm-49.85-55.07a49.88 49.88 0 0 0 49.57 50.07h.27a49.5 49.5 0 0 0 35.04-14.4 49.5 49.5 0 0 0 14.78-35.16 49.5 49.5 0 0 0-14.41-35.3 49.5 49.5 0 0 0-35.17-14.78h-.26a49.89 49.89 0 0 0-49.81 49.57z"/></g><path fill="#FFF" d="M1291.2 669.83a2.5 2.5 0 0 1-2.07-1.1 149.97 149.97 0 0 0-124.08-65.8c-49.1 0-95.11 24.08-123.21 64.52a2.5 2.5 0 1 1-4.1-2.85 155.05 155.05 0 0 1 127.31-66.67h.8c51.07.27 98.7 25.69 127.42 68a2.5 2.5 0 0 1-2.07 3.9z"/><g fill="#FFF"><path d="M698.9 652.94a52.32 52.32 0 1 0 104.64.53 52.32 52.32 0 0 0-104.65-.53z"/><path d="M751.22 708.03h-.3a54.48 54.48 0 0 1-38.67-16.26 54.44 54.44 0 0 1-15.86-38.84 54.9 54.9 0 0 1 54.82-54.54h.29a54.47 54.47 0 0 1 38.68 16.25 54.46 54.46 0 0 1 15.87 38.85 54.45 54.45 0 0 1-16.26 38.69 54.48 54.48 0 0 1-38.57 15.85zm-.01-104.64a49.88 49.88 0 0 0-49.82 49.56 49.47 49.47 0 0 0 14.41 35.3 49.5 49.5 0 0 0 35.15 14.78h.27a49.5 49.5 0 0 0 35.05-14.4 49.5 49.5 0 0 0 14.78-35.16c.07-13.31-5.05-25.85-14.42-35.3s-21.85-14.71-35.16-14.78h-.26z"/><path d="M880.22 669.83a2.5 2.5 0 0 1-2.07-1.1 149.97 149.97 0 0 0-124.08-65.8c-49.1 0-95.12 24.08-123.22 64.52a2.5 2.5 0 1 1-4.1-2.85 155.05 155.05 0 0 1 127.32-66.67h.8c51.06.27 98.7 25.69 127.41 68a2.5 2.5 0 0 1-2.06 3.9z"/></g><path fill="#FFF" d="M959.77 746.74h-.02a2.5 2.5 0 0 1-2.48-2.51l.46-91.65a2.5 2.5 0 0 1 2.5-2.48h.02a2.5 2.5 0 0 1 2.49 2.51l-.47 91.64a2.5 2.5 0 0 1-2.5 2.5zm143.19 53.56c0 78.95-64 142.95-142.96 142.95-78.96 0-142.96-64-142.96-142.96h285.92z"/><path fill="#FF8630" d="M1019.57 239.41a34.45 34.45 0 0 1-24.45 42.14L816.15 329.1A34.45 34.45 0 0 1 774 304.64l-2.22-8.32a34.45 34.45 0 0 1 24.46-42.14l178.97-47.55a34.46 34.46 0 0 1 42.14 24.46l2.21 8.32z"/><path fill="#FFF" d="M807.24 332.77c-6.43 0-12.77-1.7-18.48-5a36.7 36.7 0 0 1-17.17-22.48l-2.21-8.33a37 37 0 0 1 26.22-45.2l178.98-47.54a37 37 0 0 1 45.2 26.22l2.2 8.33a36.7 36.7 0 0 1-3.74 28.03 36.7 36.7 0 0 1-22.48 17.17L816.79 331.5a37.14 37.14 0 0 1-9.55 1.26zm176.81-124.8c-2.7 0-5.45.35-8.19 1.08L796.89 256.6a31.99 31.99 0 0 0-22.68 39.08l2.21 8.32a31.74 31.74 0 0 0 14.85 19.44 31.74 31.74 0 0 0 24.24 3.24l178.97-47.54a31.74 31.74 0 0 0 19.43-14.85 31.74 31.74 0 0 0 3.25-24.24l-2.21-8.32a32.02 32.02 0 0 0-30.9-23.75z"/><path d="M821.91 296.39c-.21-.81-.99-1.4-2.09-1.6l-15.34-2.38 12.16-9.67c.86-.7 1.24-1.6 1.02-2.41a2.2 2.2 0 0 0-2.67-1.56c-.38.1-.74.34-1.1.58l-15.24 12.39c-1.09.9-1.12 1.83-.95 2.46.25.95.87 1.46 2.04 1.67l19.43 3.24.55.02a2.2 2.2 0 0 0 2.2-2.74zm35.21-18.69c-.8-3.04-2.06-5.2-3.74-6.43-1.7-1.24-3.8-1.53-6.28-.88a7.25 7.25 0 0 0-5.17 4.43 7.11 7.11 0 0 0-6.57-1.32 6.72 6.72 0 0 0-4.32 3.04c-.49-1.03-1.45-1.51-2.54-1.23-.67.18-1.17.56-1.44 1.1-.26.5-.3 1.12-.1 1.82l5.7 21.56c.19.74.57 1.29 1.1 1.6.31.18.66.27 1.02.27.2 0 .4-.03.61-.08a2.16 2.16 0 0 0 1.45-1.1c.25-.5.29-1.12.1-1.82L833 283.72c-.4-1.5-.39-2.8.02-3.77.43-1.02 1.3-1.7 2.6-2.05 1.3-.34 2.4-.18 3.26.5.83.65 1.45 1.75 1.85 3.28l3.96 14.94c.37 1.4 1.47 2.11 2.73 1.78a2.17 2.17 0 0 0 1.45-1.1c.25-.5.29-1.11.1-1.82l-3.95-14.94c-.4-1.52-.4-2.79 0-3.76.4-1.02 1.27-1.7 2.57-2.05 1.41-.37 2.5-.2 3.34.5.83.68 1.47 1.92 1.96 3.77l3.82 14.44c.37 1.4 1.47 2.11 2.73 1.78 1.34-.35 1.93-1.47 1.55-2.92l-3.86-14.6zm34.4 1.42a2.2 2.2 0 0 0-1.66-.2c-.82.22-1.25.74-1.63 1.2l-.33.38a12.89 12.89 0 0 1-7.05 4.58c-5.02 1.33-9.46-.74-11.24-5.17l19.23-5.09c1.52-.4 2.16-1.49 1.77-2.98a12.1 12.1 0 0 0-6.08-7.75 13.9 13.9 0 0 0-10.02-.95c-7.58 2-11.8 9.19-9.8 16.7 1.66 6.3 6.65 10.04 12.8 10.04 1.38 0 2.81-.19 4.28-.58 4.11-1.08 7.8-3.36 9.85-6.09.67-.83 1.19-1.62.88-2.8a2.09 2.09 0 0 0-1-1.3zm-6.06-7.75-16.6 4.39a9 9 0 0 1 6.75-8.44 9.77 9.77 0 0 1 2.5-.33c3.2 0 6.08 1.65 7.35 4.38zm38.37.78c-.73.2-1.2.54-1.89 1.06l-.58.42c-.77.57-2.16 1.31-3.54 1.68-1.88.5-3.29.3-4.42-.6-1.2-.95-2.14-2.75-2.86-5.49l-2.65-10 1.23-.3a768 768 0 0 0 9.35-2.27c1.48-.4 2.18-1.45 1.84-2.75-.27-1-1.18-1.9-2.95-1.43l-10.52 2.78-2.08-7.88c-.38-1.4-1.5-2.11-2.8-1.76a2.2 2.2 0 0 0-1.46 1.08 2.5 2.5 0 0 0-.14 1.84l2.08 7.89-6.08 1.6c-1.77.47-2.12 1.7-1.86 2.7.35 1.3 1.48 1.87 2.96 1.48a142 142 0 0 0 6.03-1.81l2.66 10.05c1.07 4.04 2.58 6.72 4.63 8.18a7.64 7.64 0 0 0 4.58 1.38 14 14 0 0 0 3.56-.52c2.32-.61 4.64-1.8 5.72-2.64 1.1-.87 2.04-1.78 1.65-3.25a1.97 1.97 0 0 0-2.46-1.44zm31.81-19.19c-1.82-6.9-6.88-9.45-14.62-7.4-3.41.9-6.43 2.7-7.9 4.07-.87.8-1.7 1.77-1.39 2.99a2.15 2.15 0 0 0 2.75 1.6c.73-.2 1.39-.8 1.97-1.34l.32-.3a12.46 12.46 0 0 1 5.36-2.85c4.75-1.26 8.1.36 9.18 4.44l.29 1.08c-2.44-.66-5.51-.58-8.61.24-6.47 1.71-10.1 6.3-8.81 11.14a7.57 7.57 0 0 0 4.91 5.21c1.24.46 2.63.68 4.11.68 1.33 0 2.74-.18 4.15-.56 3.1-.82 5.83-2.28 7.62-4.07a2.16 2.16 0 0 0 2.66 1.35c1.33-.35 1.93-1.47 1.55-2.91l-3.54-13.37zm-8.38 14.8c-2.26.6-4.28.65-5.85.16-1.43-.45-2.35-1.31-2.67-2.5-.66-2.52 1.9-5.09 6.25-6.23 1.23-.33 2.39-.48 3.43-.48 2.66 0 4.6 1 5.08 2.81.67 2.53-1.9 5.1-6.24 6.24zm42.51-24.36c-.16-.63-.65-1.43-2.04-1.68l-19.42-3.23a3.8 3.8 0 0 0-1.2.04 2.2 2.2 0 0 0-1.55 2.67c.22.85 1 1.44 2.09 1.6l15.34 2.39-12.15 9.65c-.87.68-1.26 1.58-1.03 2.43a2.17 2.17 0 0 0 2.67 1.56c.37-.1.72-.33 1.1-.59l15.25-12.39c.9-.75 1.2-1.51.94-2.46z"/><path fill="#FF8630" d="M898.63 492.94a34.45 34.45 0 0 1-48.3 6.38L703.4 386.62a34.45 34.45 0 0 1-6.37-48.3l5.24-6.83a34.45 34.45 0 0 1 48.3-6.37L897.51 437.8a34.46 34.46 0 0 1 6.37 48.31l-5.25 6.83z"/><path fill="#FFF" d="M871.22 508.94c-8.08 0-15.9-2.64-22.41-7.64L701.87 388.61a37 37 0 0 1-6.84-51.8l5.24-6.84a37 37 0 0 1 51.81-6.84l146.95 112.7a37 37 0 0 1 6.83 51.8l-5.24 6.84a36.7 36.7 0 0 1-29.4 14.47zM729.63 320.52c-9.6 0-19.1 4.3-25.39 12.5l-5.24 6.82a31.99 31.99 0 0 0 5.91 44.8l146.94 112.7a31.75 31.75 0 0 0 23.63 6.32 31.73 31.73 0 0 0 21.17-12.24l5.24-6.83a32 32 0 0 0-5.9-44.8L749.03 327.1a31.79 31.79 0 0 0-19.4-6.58z"/><path d="M732.81 371.22c.51-.67.5-1.65-.01-2.64l-7.48-13.6 15.08 3.73c1.08.25 2.03 0 2.54-.67a2.2 2.2 0 0 0-.4-3.07 3.9 3.9 0 0 0-1.14-.51l-19.12-4.5c-1.37-.32-2.13.23-2.53.75-.6.77-.62 1.58-.07 2.64l9.3 17.35c.1.16.2.31.32.46a2.2 2.2 0 0 0 3.51.06zm36.29 16.47c1.93-2.5 2.87-4.82 2.82-6.9-.06-2.09-1.12-3.94-3.15-5.5a7.25 7.25 0 0 0-6.66-1.39 7.11 7.11 0 0 0-2.97-6.01 6.73 6.73 0 0 0-5.04-1.56c.52-1.02.31-2.08-.58-2.76a2.16 2.16 0 0 0-1.74-.48c-.56.1-1.07.45-1.51 1.03l-13.6 17.69a2.5 2.5 0 0 0-.58 1.85c.04.35.18.68.4.97.12.15.27.3.44.43.56.43 1.16.6 1.75.48.56-.1 1.06-.45 1.5-1.03l9.42-12.25a5.97 5.97 0 0 1 3-2.29c1.07-.28 2.15-.01 3.22.81 1.06.82 1.6 1.79 1.59 2.88-.01 1.05-.5 2.22-1.46 3.47l-9.42 12.26c-.89 1.14-.78 2.45.26 3.25.55.42 1.16.6 1.74.48.56-.1 1.07-.46 1.51-1.03l9.42-12.25c.96-1.25 1.96-2.03 2.98-2.31 1.05-.3 2.13-.03 3.2.8 1.15.88 1.68 1.84 1.64 2.93-.04 1.08-.63 2.34-1.8 3.86l-9.1 11.84c-.88 1.15-.77 2.46.27 3.26 1.1.84 2.34.63 3.25-.55l9.2-11.98zM789 415.8a2.2 2.2 0 0 0-.86-1.45 3.04 3.04 0 0 0-1.95-.55l-.5-.03a12.89 12.89 0 0 1-7.94-2.78c-4.11-3.16-5.18-7.95-2.76-12.07l15.77 12.12c1.25.96 2.5.81 3.44-.4a12.1 12.1 0 0 0 2.43-9.56 13.89 13.89 0 0 0-5.37-8.51c-6.22-4.78-14.48-3.74-19.21 2.43-3.97 5.16-3.89 11.4-.13 16.28a16.7 16.7 0 0 0 3.07 3.03c3.37 2.59 7.43 4.11 10.84 4.08 1.06.02 2-.05 2.75-1.01.35-.46.5-1.02.41-1.59zm2.43-9.54-13.61-10.46a9 9 0 0 1 10.8.2 9.76 9.76 0 0 1 1.78 1.76c1.97 2.55 2.41 5.83 1.03 8.5zm22.81 30.87a5.32 5.32 0 0 0-1.99-.86l-.69-.2a11.2 11.2 0 0 1-3.49-1.78c-1.54-1.18-2.25-2.41-2.23-3.86.03-1.54.88-3.38 2.6-5.62l6.31-8.2.99.79a714 714 0 0 0 7.5 6c1.22.94 2.48.86 3.3-.21.63-.82.78-2.1-.66-3.2l-8.63-6.64 4.97-6.46c.88-1.15.76-2.48-.3-3.3a2.24 2.24 0 0 0-1.76-.5 2.5 2.5 0 0 0-1.55 1.02l-4.97 6.47-4.99-3.84c-1.45-1.1-2.63-.63-3.26.18-.82 1.07-.58 2.31.63 3.25.93.7 2.53 1.84 3.94 2.83l1.18.83-6.34 8.25c-2.55 3.31-3.74 6.15-3.65 8.66a7.64 7.64 0 0 0 1.7 4.46c.67.87 1.53 1.7 2.59 2.51a17.94 17.94 0 0 0 5.59 2.92c1.36.34 2.65.53 3.58-.68.7-.9.54-2.12-.37-2.82zm34.62 13.47c4.35-5.66 3.29-11.23-3.06-16.1a20 20 0 0 0-8.06-3.77c-1.15-.2-2.44-.28-3.2.72a2.15 2.15 0 0 0 .4 3.15c.61.46 1.49.61 2.27.75l.43.07a12.5 12.5 0 0 1 5.53 2.5c3.9 3 4.67 6.64 2.1 9.99l-.69.88c-.97-2.33-2.9-4.71-5.44-6.67-5.31-4.08-11.15-4.15-14.21-.17a7.57 7.57 0 0 0-1.12 7.07c.4 1.26 1.07 2.5 1.97 3.67a16.32 16.32 0 0 0 2.97 2.94c2.55 1.96 5.37 3.22 7.89 3.55-.27.46-.38.94-.34 1.4.06.6.37 1.14.88 1.53 1.1.85 2.35.64 3.26-.55l8.42-10.96zm-16.84 2.4c-1.84-1.43-3.12-3-3.69-4.54-.52-1.4-.4-2.66.35-3.63 1.59-2.07 5.19-1.6 8.75 1.13 1 .77 1.84 1.6 2.48 2.43 1.62 2.1 2.01 4.25.87 5.74-1.6 2.07-5.2 1.6-8.76-1.14zm45.27 18.78c.4-.51.73-1.39.07-2.64l-9.3-17.35a3.82 3.82 0 0 0-.76-.92 2.19 2.19 0 0 0-3.07.4c-.53.69-.52 1.68.01 2.63l7.48 13.6-15.06-3.72c-1.07-.28-2.02-.03-2.55.66a2.17 2.17 0 0 0 .4 3.07c.3.23.7.37 1.14.52l19.11 4.5c1.15.26 1.93.03 2.53-.75z"/><path fill="#FF8630" d="M1145.82 259.32a34.45 34.45 0 0 1-9.18 47.84L983.4 411.11a34.45 34.45 0 0 1-47.85-9.18l-4.84-7.12a34.45 34.45 0 0 1 9.18-47.85L1093.13 243a34.46 34.46 0 0 1 47.85 9.18l4.84 7.13z"/><path fill="#FFF" d="M964.1 419.54a36.94 36.94 0 0 1-30.63-16.2l-4.84-7.13a37 37 0 0 1 9.85-51.32l153.25-103.95a37 37 0 0 1 51.32 9.84l4.84 7.13c5.54 8.17 7.56 18 5.7 27.7s-7.37 18.08-15.54 23.63L984.79 413.18a36.75 36.75 0 0 1-20.69 6.36zm148.32-179.96c-6.17 0-12.4 1.78-17.89 5.5L941.28 349.03a31.99 31.99 0 0 0-8.5 44.38l4.83 7.12a31.74 31.74 0 0 0 20.42 13.45 31.75 31.75 0 0 0 23.95-4.94l153.26-103.94a31.74 31.74 0 0 0 13.44-20.43 31.74 31.74 0 0 0-4.93-23.95l-4.84-7.13a31.95 31.95 0 0 0-26.49-14z"/><path d="M978.04 378.33c-.48-.7-1.4-1-2.5-.82l-15.28 2.81 8.3-13.13c.57-.95.63-1.93.16-2.62a2.2 2.2 0 0 0-3.03-.59c-.33.22-.6.57-.86.92l-10.3 16.72c-.72 1.2-.44 2.1-.08 2.64.55.8 1.31 1.09 2.49.9l19.4-3.36.53-.16a2.2 2.2 0 0 0 1.16-3.31zm27.06-29.26c-1.76-2.6-3.66-4.23-5.65-4.83-2-.61-4.1-.19-6.22 1.25a7.25 7.25 0 0 0-3.42 5.88 7.11 7.11 0 0 0-6.64.92 6.72 6.72 0 0 0-3.07 4.3c-.8-.81-1.86-.95-2.8-.33-.58.4-.93.92-1 1.5-.08.58.1 1.17.5 1.77L989.3 378a2.5 2.5 0 0 0 1.58 1.14 2 2 0 0 0 1.04-.08c.19-.06.37-.15.55-.28.58-.39.93-.9 1-1.5a2.49 2.49 0 0 0-.5-1.76l-8.66-12.8a5.97 5.97 0 0 1-1.22-3.56c.06-1.1.66-2.05 1.78-2.8s2.2-.96 3.24-.6c1 .34 1.95 1.17 2.83 2.48l8.66 12.8c.81 1.2 2.09 1.51 3.17.78.58-.4.93-.92 1-1.5a2.52 2.52 0 0 0-.5-1.77l-8.66-12.8c-.88-1.3-1.3-2.5-1.25-3.55.06-1.09.65-2.02 1.76-2.78 1.21-.81 2.3-1.02 3.31-.64 1.01.38 2.03 1.34 3.1 2.93l8.37 12.36c.81 1.2 2.09 1.51 3.17.78 1.14-.78 1.34-2.03.5-3.26l-8.47-12.52zm32.94-10.01a2.2 2.2 0 0 0-1.63.35c-.7.48-.94 1.12-1.14 1.68-.06.14-.11.3-.19.47a12.89 12.89 0 0 1-5.14 6.65c-4.3 2.91-9.18 2.42-12.32-1.18l16.47-11.14c1.3-.89 1.56-2.12.7-3.4a12.1 12.1 0 0 0-8.3-5.32 13.9 13.9 0 0 0-9.78 2.42c-6.49 4.4-8.1 12.56-3.74 19 3.64 5.39 9.6 7.28 15.4 5.25a16.7 16.7 0 0 0 3.85-1.96c3.52-2.38 6.25-5.75 7.3-9 .34-1 .58-1.92-.1-2.93a2.1 2.1 0 0 0-1.38-.9zm-8.28-5.32-14.22 9.62a9 9 0 0 1 3.6-10.2 9.76 9.76 0 0 1 2.24-1.12c3.03-1.06 6.29-.45 8.38 1.7zm36.49-11.92c-.63.42-.95.9-1.44 1.62l-.4.59c-.54.8-1.62 1.95-2.8 2.75-1.61 1.1-3 1.38-4.37.9-1.45-.5-2.92-1.9-4.51-4.24l-5.8-8.57 1.06-.69a640.8 640.8 0 0 0 8.08-5.23c1.26-.86 1.58-2.08.82-3.2-.58-.86-1.74-1.4-3.25-.38l-9.01 6.1-4.57-6.75c-.81-1.2-2.11-1.5-3.22-.75-.58.4-.93.92-1.02 1.51-.1.58.07 1.2.47 1.79l4.57 6.75-5.21 3.53c-1.51 1.02-1.44 2.3-.86 3.15.76 1.12 2.01 1.28 3.28.43.97-.66 2.54-1.82 3.93-2.85l1.16-.86 5.83 8.62c2.34 3.46 4.65 5.48 7.06 6.19 1.52.44 3.1.37 4.78-.21a14 14 0 0 0 3.2-1.66 18.13 18.13 0 0 0 4.53-4.39c.74-1.18 1.34-2.35.48-3.61a1.97 1.97 0 0 0-2.8-.54zm23.69-28.62c-4-5.9-9.62-6.65-16.25-2.17a20 20 0 0 0-6.11 6.47c-.56 1.03-1.03 2.23-.32 3.27a2.15 2.15 0 0 0 3.12.6 5.21 5.21 0 0 0 1.41-1.9l.21-.4c1-1.82 2.3-3.24 4.11-4.46 4.08-2.76 7.78-2.34 10.14 1.16l.63.93c-2.52.18-5.4 1.27-8.05 3.07-5.54 3.75-7.45 9.27-4.64 13.42a7.57 7.57 0 0 0 6.36 3.3c1.32.02 2.7-.23 4.1-.71a16.3 16.3 0 0 0 3.73-1.9c2.67-1.8 4.75-4.08 5.85-6.36.36.39.77.65 1.23.76.58.13 1.2 0 1.73-.36 1.14-.77 1.34-2.02.5-3.26l-7.75-11.46zm-3.03 16.74c-1.93 1.31-3.82 2.03-5.47 2.08-1.5.05-2.65-.46-3.34-1.47-1.46-2.17.12-5.44 3.84-7.95 1.05-.71 2.1-1.24 3.08-1.6 2.51-.87 4.67-.56 5.72 1 1.47 2.16-.11 5.43-3.83 7.94zM1119 272.9c-.36-.53-1.09-1.12-2.48-.9l-19.4 3.36c-.37.1-.79.22-1.11.44a2.2 2.2 0 0 0-.59 3.03c.49.72 1.43 1.03 2.5.83l15.27-2.82-8.28 13.12c-.6.93-.67 1.91-.18 2.64a2.17 2.17 0 0 0 3.04.58c.32-.21.57-.55.85-.92l10.3-16.72c.6-1 .63-1.82.08-2.63z"/><path fill="#FF8630" d="M1205.54 378.76a34.45 34.45 0 0 1-16 46.02l-166.66 80.7a34.45 34.45 0 0 1-46.02-16l-3.76-7.74a34.45 34.45 0 0 1 16-46.03l166.67-80.7a34.46 34.46 0 0 1 46.02 16l3.75 7.75z"/><path fill="#FFF" d="M1007.92 511.42a37 37 0 0 1-33.31-20.84l-3.76-7.75a36.71 36.71 0 0 1-1.64-28.24 36.7 36.7 0 0 1 18.8-21.12l166.66-80.71a37 37 0 0 1 49.37 17.16l3.75 7.75a36.7 36.7 0 0 1 1.65 28.23 36.7 36.7 0 0 1-18.8 21.13l-166.67 80.7a36.75 36.75 0 0 1-16.05 3.7zm162.8-157.35a31.7 31.7 0 0 0-13.87 3.19l-166.66 80.7a31.74 31.74 0 0 0-16.26 18.27 31.75 31.75 0 0 0 1.42 24.42l3.76 7.75a31.99 31.99 0 0 0 42.68 14.83l166.67-80.7a31.74 31.74 0 0 0 16.26-18.27 31.74 31.74 0 0 0-1.43-24.41l-3.75-7.76a32 32 0 0 0-28.81-18.02z"/><path d="M1022.32 472.27c-.36-.75-1.24-1.19-2.36-1.17l-15.51.58 10.1-11.8c.7-.85.9-1.81.54-2.57a2.2 2.2 0 0 0-2.92-1.02c-.35.17-.66.48-.97.79l-12.6 15.05c-.9 1.09-.75 2.01-.47 2.6.42.88 1.14 1.27 2.33 1.25l19.68-.51c.18-.03.37-.05.55-.09.22-.04.42-.1.61-.18a2.2 2.2 0 0 0 1.02-2.93zm31.01-25.04c-1.37-2.83-3.01-4.72-4.89-5.6-1.9-.89-4.03-.77-6.34.34a7.25 7.25 0 0 0-4.23 5.33 7.11 7.11 0 0 0-6.7-.05 6.72 6.72 0 0 0-3.66 3.8 2.11 2.11 0 0 0-2.72-.72c-.63.3-1.05.77-1.22 1.35-.15.54-.07 1.15.25 1.8l9.7 20.1a2.5 2.5 0 0 0 1.39 1.35c.34.12.69.14 1.04.07.2-.03.4-.1.59-.2.63-.3 1.05-.76 1.21-1.34.16-.55.08-1.16-.24-1.81l-6.72-13.92a5.96 5.96 0 0 1-.7-3.7c.23-1.08.96-1.93 2.17-2.51 1.21-.58 2.32-.63 3.29-.13.94.48 1.76 1.44 2.44 2.86l6.72 13.92c.63 1.3 1.85 1.8 3.03 1.23.63-.3 1.05-.77 1.21-1.35a2.5 2.5 0 0 0-.24-1.8l-6.72-13.93a5.98 5.98 0 0 1-.73-3.69c.21-1.07.94-1.91 2.15-2.5 1.3-.63 2.4-.68 3.36-.15.95.52 1.81 1.61 2.65 3.34l6.49 13.44c.63 1.3 1.85 1.8 3.02 1.23 1.25-.6 1.62-1.81.97-3.15l-6.57-13.6zm34.05-5.15a2.2 2.2 0 0 0-1.67.12c-.77.38-1.1.97-1.38 1.5l-.24.43a12.9 12.9 0 0 1-6.05 5.84c-4.68 2.26-9.43 1.07-12.03-2.94l17.91-8.65c1.42-.69 1.85-1.88 1.18-3.26a12.1 12.1 0 0 0-7.44-6.46 13.9 13.9 0 0 0-10.02.98c-7.06 3.4-9.83 11.25-6.45 18.25 2.83 5.86 8.44 8.6 14.49 7.42 1.35-.26 2.72-.72 4.08-1.38 3.83-1.84 7.02-4.79 8.52-7.85.49-.95.85-1.82.33-2.91a2.1 2.1 0 0 0-1.23-1.09zm-7.43-6.45-15.46 7.46a9 9 0 0 1 5.03-9.56 9.74 9.74 0 0 1 2.38-.8c3.15-.61 6.29.47 8.05 2.9zm37.83-6.53c-.69.33-1.07.76-1.66 1.4l-.49.53c-.64.7-1.87 1.7-3.16 2.32-1.75.84-3.17.92-4.45.25-1.36-.7-2.62-2.3-3.86-4.85l-4.5-9.31 1.16-.53c2.97-1.35 7.46-3.4 8.74-4.01 1.38-.66 1.87-1.83 1.28-3.05-.45-.93-1.52-1.63-3.16-.84l-9.8 4.73-3.55-7.34c-.63-1.3-1.87-1.79-3.07-1.2-.63.3-1.06.77-1.24 1.34-.17.56-.1 1.2.22 1.84l3.54 7.34-5.67 2.74c-1.64.8-1.75 2.07-1.3 3 .59 1.21 1.8 1.55 3.18.89 1.05-.51 2.78-1.44 4.3-2.25l1.28-.68 4.52 9.36c1.82 3.77 3.81 6.1 6.1 7.15 1.43.66 3 .82 4.75.49a14 14 0 0 0 3.4-1.19 17.96 17.96 0 0 0 5.12-3.68c.9-1.06 1.67-2.13 1-3.5a1.97 1.97 0 0 0-2.68-.94zm27.58-24.88c-3.1-6.43-8.56-7.98-15.77-4.5a19.98 19.98 0 0 0-6.98 5.51c-.7.95-1.34 2.06-.8 3.2a2.15 2.15 0 0 0 3 1.04 5.2 5.2 0 0 0 1.68-1.68l.27-.36a12.46 12.46 0 0 1 4.71-3.82c4.43-2.14 8.03-1.19 9.87 2.61l.48 1.01c-2.52-.18-5.52.48-8.4 1.87-6.03 2.91-8.72 8.1-6.54 12.62a7.57 7.57 0 0 0 5.82 4.18c1.3.2 2.71.17 4.16-.11a16.3 16.3 0 0 0 3.96-1.34c2.9-1.4 5.3-3.35 6.72-5.45.29.44.66.75 1.1.93.56.21 1.18.18 1.76-.1 1.24-.6 1.62-1.82.97-3.16l-6.01-12.45zm-5.42 16.12c-2.1 1.01-4.08 1.45-5.71 1.26-1.5-.17-2.56-.84-3.1-1.94-1.13-2.35.9-5.36 4.95-7.3a13.6 13.6 0 0 1 3.28-1.14c2.61-.5 4.7.12 5.52 1.8 1.13 2.36-.9 5.37-4.94 7.32zm37.11-32.01c-.29-.58-.92-1.27-2.33-1.25l-19.68.52c-.38.04-.81.1-1.17.27a2.2 2.2 0 0 0-1.01 2.92c.37.78 1.26 1.22 2.35 1.17l15.52-.58-10.1 11.79c-.72.83-.93 1.8-.55 2.58a2.17 2.17 0 0 0 2.92 1.02c.35-.17.65-.46.98-.78l12.6-15.06c.75-.92.9-1.72.47-2.6z"/><g fill="#FFF"><path d="M266.26 83.29c-9.07 0-14.7 3.85-14.7 8.96 0 5.1 5.63 8.96 14.7 8.96 9.06 0 14.7-3.85 14.7-8.96 0-5.1-5.63-8.96-14.7-8.96zm-60.45-17.72a17.07 17.07 0 0 0-16.88 13.55h33.25c-.73-8.13-8.24-13.55-16.37-13.55zm120.48 0c-9.07 0-15.22 7.09-15.22 17.61s6.15 17.62 15.22 17.62c9.06 0 15.21-7.09 15.21-17.62s-6.15-17.61-15.21-17.61z"/><path d="m408.27 3.13-344-1.11A64 64 0 0 0 .04 65.82l-.05 16a64 64 0 0 0 63.8 64.2l344 1.11A64 64 0 0 0 472 83.33l.06-16a64 64 0 0 0-63.8-64.2zM98.16 89.54c1.35.63 2.3 1.67 2.3 2.82a2.91 2.91 0 0 1-2.93 2.91c-.52 0-1.14-.2-1.77-.41l-32.1-14.49c-1.56-.73-2.2-1.56-2.2-2.92 0-1.35.84-2.3 2.2-2.92l32.1-14.48c.63-.21 1.25-.42 1.77-.42a2.91 2.91 0 0 1 2.92 2.92c0 1.14-.94 2.19-2.3 2.81l-27.61 12.1 27.62 12.08zm65.03 13.66c0 2.08-1.15 3.33-3.13 3.33-1.77 0-3.02-1.25-3.02-3.33V79.95c0-10.42-5.42-14.38-12.2-14.38-7.4 0-13.13 3.96-13.13 14.49v23.14c0 2.08-1.15 3.33-3.13 3.33-1.77 0-3.02-1.25-3.02-3.33V39.93c0-2.09 1.15-3.34 3.13-3.34 1.77 0 3.02 1.25 3.02 3.34v26.26c3.13-4.58 8.44-6.35 14.18-6.35 10.42 0 17.3 6.25 17.3 18.76v24.6zm43.56-2.4c6.36 0 10.73-1.98 14.9-4.9 1.15-.73 1.98-1.67 3.55-1.67a2.83 2.83 0 0 1 2.92 2.82c0 1.56-.73 2.4-2.4 3.64-3.86 3.03-10.74 5.84-19.28 5.84-14.07 0-24.29-9.48-24.29-23.24 0-13.86 10.42-23.45 23.66-23.45 12.82 0 22.93 8.75 22.93 21.47 0 1.98-.94 3.33-3.44 3.33h-36.79c.63 9.38 7.82 16.16 18.24 16.16zm79.83 2.4c0 2.08-1.04 3.33-3.02 3.33-1.77 0-3.02-1.25-3.02-3.33v-1.05c-4.17 3.03-10.22 4.38-16.06 4.38-10.63 0-19.38-5.42-19.38-14.28s8.75-14.28 19.38-14.28c5.84 0 11.89 1.36 16.06 4.38V78.5c0-7.82-5.22-12.93-14.9-12.93-3.55 0-7.2.63-11.06 2.6-1.25.63-2.92 1.67-4.27 1.67-1.88 0-3.02-1.25-3.02-3.02 0-1.56 1.25-2.6 3.23-3.65 2.7-1.46 8.54-3.33 15.11-3.33 13.65 0 20.95 6.25 20.95 18.55v24.8zm60.45 0c0 2.08-1.25 3.33-3.03 3.33-1.98 0-3.12-1.25-3.12-3.33v-3.96c-3.13 5-8.97 7.3-14.9 7.3-12.72 0-21.27-9.7-21.27-23.35s8.55-23.35 21.26-23.35c5.94 0 11.68 2.4 14.9 7.3V39.92c0-2.09 1.26-3.34 3.03-3.34 1.98 0 3.13 1.25 3.13 3.34v63.27zm61.38-22.83-32.1 14.49c-.63.2-1.25.42-1.77.42a2.91 2.91 0 0 1-2.92-2.92c0-1.15.83-2.2 2.29-2.82l27.62-12.09-27.62-12.09c-1.46-.62-2.3-1.67-2.3-2.81a2.91 2.91 0 0 1 2.93-2.92c.52 0 1.14.2 1.77.42l32.1 14.48c1.35.63 2.19 1.57 2.19 2.92 0 1.36-.63 2.19-2.19 2.92zm1396.55-14.8c-9.07 0-15.22 7.09-15.22 17.61s6.15 17.62 15.22 17.62 15.22-7.09 15.22-17.62-6.15-17.61-15.22-17.61zm-60.03 17.72c-9.07 0-14.7 3.85-14.7 8.96 0 5.1 5.63 8.96 14.7 8.96s14.7-3.85 14.7-8.96c0-5.1-5.63-8.96-14.7-8.96zm-60.45-17.72a17.07 17.07 0 0 0-16.88 13.55h33.25c-.73-8.13-8.23-13.55-16.37-13.55z"/><path d="m1856.22 3.17-344-1.2a64 64 0 0 0-64.23 63.79l-.06 16a64 64 0 0 0 63.78 64.22l344 1.2a64 64 0 0 0 64.23-63.78l.06-16a64 64 0 0 0-63.78-64.23zm-340.88 86.37c1.36.63 2.3 1.67 2.3 2.82a2.91 2.91 0 0 1-2.92 2.91c-.52 0-1.15-.2-1.77-.41l-32.1-14.49c-1.57-.73-2.2-1.56-2.2-2.92 0-1.35.84-2.3 2.2-2.92l32.1-14.49c.62-.2 1.25-.41 1.77-.41a2.91 2.91 0 0 1 2.92 2.92c0 1.14-.94 2.19-2.3 2.81l-27.62 12.1 27.62 12.08zm73.17-48.26-50.03 84.12c-.52.93-1.57 1.77-2.71 1.77-1.88 0-2.92-1.25-2.92-2.82 0-.72.2-1.35.52-1.87l50.03-84.11c.52-.94 1.56-1.77 2.7-1.77 1.88 0 2.93 1.25 2.93 2.81a3.6 3.6 0 0 1-.52 1.87zm53.35 61.92c0 2.08-1.14 3.33-3.12 3.33-1.77 0-3.03-1.25-3.03-3.33V79.95c0-10.42-5.42-14.38-12.2-14.38-7.4 0-13.12 3.96-13.12 14.49v23.14c0 2.08-1.15 3.33-3.13 3.33-1.77 0-3.02-1.25-3.02-3.33V39.93c0-2.09 1.14-3.34 3.12-3.34 1.77 0 3.03 1.25 3.03 3.34v26.26c3.12-4.58 8.44-6.35 14.17-6.35 10.42 0 17.3 6.25 17.3 18.76v24.6zm43.56-2.4c6.36 0 10.74-1.98 14.9-4.9 1.15-.73 1.99-1.67 3.55-1.67a2.83 2.83 0 0 1 2.92 2.82c0 1.56-.73 2.4-2.4 3.64-3.85 3.03-10.73 5.84-19.28 5.84-14.07 0-24.28-9.48-24.28-23.24 0-13.86 10.42-23.45 23.66-23.45 12.82 0 22.93 8.75 22.93 21.47 0 1.98-.94 3.33-3.44 3.33h-36.8c.63 9.38 7.82 16.16 18.24 16.16zm79.84 2.4c0 2.08-1.05 3.33-3.03 3.33-1.77 0-3.02-1.25-3.02-3.33v-1.05c-4.17 3.03-10.22 4.38-16.05 4.38-10.63 0-19.39-5.42-19.39-14.28s8.76-14.28 19.39-14.28c5.83 0 11.88 1.36 16.05 4.38V78.5c0-7.82-5.21-12.93-14.9-12.93-3.55 0-7.2.63-11.05 2.6-1.25.63-2.92 1.67-4.28 1.67-1.87 0-3.02-1.25-3.02-3.02 0-1.56 1.25-2.6 3.23-3.65 2.71-1.46 8.55-3.33 15.11-3.33 13.66 0 20.95 6.25 20.95 18.55v24.8zm60.44 0c0 2.08-1.25 3.33-3.02 3.33-1.98 0-3.13-1.25-3.13-3.33v-3.96c-3.13 5-8.96 7.3-14.9 7.3-12.72 0-21.27-9.7-21.27-23.35s8.55-23.35 21.27-23.35c5.94 0 11.67 2.4 14.9 7.3V39.92c0-2.09 1.25-3.34 3.02-3.34 1.98 0 3.13 1.25 3.13 3.34v63.27zm61.38-22.83-32.1 14.49c-.62.2-1.25.42-1.77.42a2.91 2.91 0 0 1-2.92-2.92c0-1.15.83-2.2 2.3-2.82l27.61-12.09-27.62-12.09c-1.46-.62-2.29-1.67-2.29-2.81a2.91 2.91 0 0 1 2.92-2.92c.52 0 1.15.2 1.77.42l32.1 14.48c1.36.63 2.2 1.57 2.2 2.92 0 1.36-.63 2.19-2.2 2.92z"/></g></svg>