<svg xmlns="http://www.w3.org/2000/svg" viewBox="0 0 1516 753"><path d="M1128.4 268.9c-5 .03-9.95.37-14.8.94C1067.35 113.2 922.07-.76 750.56.14c-171.5.88-315.61 116.33-360.2 273.43-4.87-.52-9.82-.8-14.83-.78-72.19.38-130.4 59.2-130.03 131.38.38 72.2 59.2 130.4 131.38 130.03a131 131 0 0 0 31.86-4.1c59.03 132 191.81 223.69 345.7 222.9 153.9-.8 285.72-93.85 343.4-226.45a131.06 131.06 0 0 0 31.9 3.76c72.18-.37 130.4-59.19 130.03-131.38-.37-72.19-59.18-130.4-131.38-130.03Zm-374.7 63.45c-134.82 0-244.11-64.46-244.11-143.96 0-79.51 109.29-143.97 244.1-143.97 134.83 0 244.12 64.46 244.12 143.97 0 79.5-109.3 143.96-244.11 143.96Z"/><path fill="none" stroke="#fff" stroke-linecap="round" stroke-linejoin="round" stroke-width="5.04" d="M1179.5 369.26 1098.88 456m-789.07-91.22 79.72 87.56"/><g stroke="#fff" stroke-linecap="round" stroke-linejoin="round"><path fill="#fff" stroke-width="1.26" d="M859.47 417.18a41.29 41.29 0 1 0 82.58.42 41.29 41.29 0 0 0-82.58-.42Z"/><path fill="none" stroke-width="5.04" d="M801.57 427.5a120.15 120.15 0 0 1 99.46-51.75 120.1 120.1 0 0 1 98.92 52.79"/></g><g stroke="#fff" stroke-linecap="round" stroke-linejoin="round"><path fill="#fff" stroke-width="1.26" d="M535.17 417.18a41.29 41.29 0 1 0 82.58.42 41.29 41.29 0 0 0-82.58-.42Z"/><path fill="none" stroke-width="5.04" d="M477.27 427.5a120.16 120.16 0 0 1 99.47-51.75 120.1 120.1 0 0 1 98.92 52.79"/></g><path fill="none" stroke="#fff" stroke-linecap="round" stroke-linejoin="round" stroke-width="5.04" d="M477.43 425.84a120.06 120.06 0 0 1 99.45-51.77 120.11 120.11 0 0 1 98.92 52.8m61.05-9.96-.37 72.31"/><path fill="#fff" d="M865.45 533.45c0 62.3-50.5 112.8-112.8 112.8s-112.81-50.5-112.81-112.8Z"/><path fill="#f68635" stroke="#fff" stroke-linecap="round" stroke-linejoin="round" stroke-width="4.36" d="M799.86 89.3a27.18 27.18 0 0 1-19.3 33.25l-141.22 37.52a27.18 27.18 0 0 1-33.25-19.3l-1.74-6.56a27.18 27.18 0 0 1 19.3-33.26l141.21-37.51a27.19 27.19 0 0 1 33.25 19.3Z"/><path fill="#231f20" d="m639.88 128.1-.29-1.07 14.6-15.27 2.02 1.92-12.37 12.61 16.99 4.62-.82 2.6Zm33.23 3.27-3.27-12.32c-.13-.5-.29-1-.46-1.48a5.2 5.2 0 0 0-.6-1.23 2.1 2.1 0 0 0-.83-.75 1.56 1.56 0 0 0-1.1-.06c-.85.22-1.46.76-1.86 1.6-.4.85-.6 1.82-.63 2.94l3.38 12.73-2.8.74-4.92-18.5 1.92-.5 1.16 2.1.15-.04c.14-.43.3-.85.44-1.24a3.55 3.55 0 0 1 1.52-1.95 5.43 5.43 0 0 1 2.73-.77 3.36 3.36 0 0 1 2.35.94c.35.33.63.77.86 1.32a8.14 8.14 0 0 1 1.3-2.77 4.82 4.82 0 0 1 2.7-1.58 4.31 4.31 0 0 1 2.08-.12 3 3 0 0 1 1.5.85c.41.43.77.98 1.07 1.66.3.67.56 1.44.79 2.3l3.5 13.21-2.8.75-3.35-12.58c-.14-.52-.29-1-.46-1.44a4.9 4.9 0 0 0-.6-1.13 2.06 2.06 0 0 0-.77-.67 1.47 1.47 0 0 0-1.02-.04c-.86.23-1.5.77-1.9 1.61-.41.85-.6 1.96-.55 3.32l3.28 12.36Zm31.46-10.85a11.26 11.26 0 0 1-3.02 2.94 15.14 15.14 0 0 1-4.38 2c-1.48.39-2.85.5-4.1.35a7.78 7.78 0 0 1-3.37-1.2 8.81 8.81 0 0 1-2.55-2.6 12.96 12.96 0 0 1-1.66-3.83c-.41-1.56-.56-3-.45-4.32.1-1.32.46-2.5 1.06-3.53a8.43 8.43 0 0 1 2.47-2.65 12.27 12.27 0 0 1 6.9-2.09c1.07 0 2.13.29 3.08.82a7.54 7.54 0 0 1 2.62 2.64c.77 1.2 1.37 2.87 1.8 5l-14.28 3.8c.6 2.22 1.63 3.72 3.11 4.5 1.49.78 3.23.9 5.22.37a8.2 8.2 0 0 0 1.9-.76c.62-.34 1.19-.7 1.72-1.07a10.27 10.27 0 0 0 2.23-2.18Zm-11.55-12.1c-.81.21-1.56.5-2.24.87a4.93 4.93 0 0 0-2.63 3.33c-.18.75-.2 1.62-.03 2.6l11.47-3.04a5.9 5.9 0 0 0-2.58-3.38 5.15 5.15 0 0 0-4-.38Zm11.03-5.07 4.4-1.17-.97-3.67 2.7-1.59 1.2 4.48 9.87-2.62.66 2.47-9.88 2.63 2.32 8.73c.48 1.8 1.27 3.02 2.37 3.65 1.1.63 2.47.73 4.1.3 1.1-.3 2-.76 2.72-1.4.68-.6 1.3-1.25 1.87-1.96l1.54 1.93c-.68.92-1.57 1.75-2.65 2.48a11.4 11.4 0 0 1-3.51 1.61c-.95.26-1.93.36-2.91.32a6.47 6.47 0 0 1-4.86-2.55 8.7 8.7 0 0 1-1.47-3.16l-2.44-9.18-4.4 1.17Zm25.43-5.21c.9-.9 1.98-1.66 3.24-2.29 1.22-.6 2.5-1.1 3.81-1.45a7.24 7.24 0 0 1 3.25-.23 5.2 5.2 0 0 1 3.79 2.94c.37.76.67 1.54.88 2.36.25.93.5 1.94.73 3.01.23 1.08.47 2.15.73 3.21.3 1.18.7 2.34 1.16 3.46l2.47-.66.64 2.4-4.88 1.3-1.07-2.68-.19.05a6.43 6.43 0 0 1-1.34 2.36 7.52 7.52 0 0 1-3.88 2.36c-1.83.48-3.4.4-4.72-.26a5.03 5.03 0 0 1-2.61-3.43 5.78 5.78 0 0 1 0-3.36 5.4 5.4 0 0 1 1.88-2.56c.92-.72 2.1-1.32 3.56-1.78 1.45-.47 3.13-.8 5.03-1.02a13.68 13.68 0 0 0-.7-2.85 4.06 4.06 0 0 0-1.06-1.63 2.57 2.57 0 0 0-1.55-.6c-.6-.04-1.32.05-2.14.27a11.3 11.3 0 0 0-3.07 1.3c-.84.53-1.66 1.08-2.46 1.67Zm9.44 13.45a5.61 5.61 0 0 0 1.84-.84 6.11 6.11 0 0 0 2.13-2.69c.2-.49.31-.93.36-1.34l-.69-2.6c-1.34.13-2.55.33-3.64.62-1.08.29-1.99.65-2.71 1.1a4.1 4.1 0 0 0-1.57 1.58 2.86 2.86 0 0 0-.15 2.1c.2.8.7 1.48 1.4 1.9.71.47 1.72.52 3.03.17Zm16.04-3.3-2-1.85L765.42 94l-17-4.81.8-2.67 20.24 6 .29 1.08Z"/><path fill="#f68635" stroke="#fff" stroke-linecap="round" stroke-linejoin="round" stroke-width="4.36" d="M702.87 288.63a27.18 27.18 0 0 1-38.15 4.68l-115.13-89.97a27.19 27.19 0 0 1-4.68-38.16l4.18-5.36a27.19 27.19 0 0 1 38.16-4.68l115.13 89.98a27.19 27.19 0 0 1 4.68 38.16Z"/><path fill="#231f20" d="m575.37 184.52.68-.87 21 2.43-.33 2.77-17.52-2.26 6.57 16.34-2.56.91ZM592.81 213l7.85-10.05c.33-.42.64-.84.91-1.25.28-.42.48-.83.62-1.23.13-.4.16-.77.1-1.11a1.55 1.55 0 0 0-.63-.92 2.77 2.77 0 0 0-2.4-.51c-.9.19-1.81.62-2.71 1.27l-8.11 10.38-2.3-1.8 11.8-15.08 1.56 1.23-.99 2.2.13.09 1.26-.4a3.59 3.59 0 0 1 2.47.04 5.41 5.41 0 0 1 2.26 1.71 3.35 3.35 0 0 1 .67 2.44 3.8 3.8 0 0 1-.53 1.48 8.16 8.16 0 0 1 2.99-.62c.92 0 1.88.4 2.89 1.19a4.33 4.33 0 0 1 1.35 1.59c.24.54.31 1.1.23 1.7-.1.6-.32 1.21-.68 1.86-.4.7-.85 1.38-1.36 2.02L601.77 220l-2.29-1.8 8.02-10.25c.33-.42.62-.84.87-1.24s.43-.79.54-1.16c.1-.36.13-.7.06-1.01-.06-.31-.25-.6-.58-.85a2.86 2.86 0 0 0-2.43-.54c-.93.19-1.92.7-2.98 1.56l-7.87 10.07Zm27.64 18.54c-.66.03-1.33 0-1.99-.1a12.1 12.1 0 0 1-2.18-.54 15.22 15.22 0 0 1-4.23-2.29 10.8 10.8 0 0 1-2.76-3.06c-.64-1.1-1-2.23-1.08-3.4-.08-1.2.1-2.4.53-3.6a13.02 13.02 0 0 1 2.06-3.64 12.73 12.73 0 0 1 3.17-2.97 8.32 8.32 0 0 1 3.46-1.28 8.38 8.38 0 0 1 3.6.36 12.45 12.45 0 0 1 5.83 4.23 6.27 6.27 0 0 1 1.2 2.97 7.56 7.56 0 0 1-.52 3.67 14.99 14.99 0 0 1-2.9 4.47l-11.64-9.1c-1.41 1.8-1.99 3.54-1.71 5.2.27 1.65 1.22 3.11 2.85 4.38.54.43 1.13.78 1.76 1.07a19 19 0 0 0 1.88.72c.58.18 1.16.31 1.75.4.55.06.99.08 1.33.06Zm2.68-16.52c-.63-.5-1.32-.92-2.04-1.26a4.95 4.95 0 0 0-4.25-.09c-.7.31-1.4.82-2.1 1.55l9.35 7.3a5.9 5.9 0 0 0 1.14-4.08 5.16 5.16 0 0 0-2.1-3.42Zm10.7 5.74 3.59 2.8 2.33-2.98 2.9 1.2-2.85 3.65 8.06 6.29-1.59 2.02-8.05-6.3-5.56 7.13c-1.15 1.46-1.64 2.83-1.48 4.09.16 1.26.9 2.4 2.23 3.44a6.5 6.5 0 0 0 2.76 1.33c.94.18 1.83.28 2.69.3l-.61 2.4c-1.15 0-2.34-.2-3.58-.62a11.41 11.41 0 0 1-3.4-1.83 9.35 9.35 0 0 1-2-2.13 6.51 6.51 0 0 1-.9-5.41c.26-1 .8-2.03 1.62-3.07l5.85-7.48-3.59-2.8Zm19.5 17.13c1.26.18 2.52.58 3.77 1.2a20.3 20.3 0 0 1 3.46 2.17 7.25 7.25 0 0 1 2.14 2.45 5.16 5.16 0 0 1-.05 4.8c-.38.75-.83 1.46-1.35 2.13-.63.8-1.3 1.6-1.97 2.4l-2.12 2.51c-.75.96-1.43 1.96-2.05 3.01l2.02 1.58-1.53 1.96-3.99-3.11 1.5-2.48-.15-.11a6.42 6.42 0 0 1-2.69.35 7.6 7.6 0 0 1-4.23-1.67c-1.48-1.17-2.37-2.48-2.64-3.92a5.03 5.03 0 0 1 1.15-4.15 5.8 5.8 0 0 1 2.69-2.03 5.43 5.43 0 0 1 3.18-.04c1.13.3 2.32.88 3.56 1.76 1.25.88 2.53 2.01 3.85 3.4.83-.85 1.44-1.6 1.85-2.27a4 4 0 0 0 .66-1.84c.03-.56-.12-1.1-.46-1.6a6.8 6.8 0 0 0-1.5-1.54c-.88-.7-1.85-1.25-2.9-1.66a33.1 33.1 0 0 0-2.8-.95Zm-5.04 15.65a5.66 5.66 0 0 0 3.6 1.25 5.82 5.82 0 0 0 2.9-.74l1.65-2.1c-.9-1-1.8-1.85-2.68-2.54a9.8 9.8 0 0 0-2.52-1.5 4 4 0 0 0-2.2-.3c-.68.12-1.27.5-1.77 1.15a3.15 3.15 0 0 0-.68 2.26c.07.85.64 1.69 1.7 2.52Zm12.32 10.79.26-2.7 17.45 2.42-6.43-16.46 2.61-.97 7.43 19.77-.68.88Z"/><path fill="#f68635" stroke="#fff" stroke-linecap="round" stroke-linejoin="round" stroke-width="4.36" d="M953.05 197.51a27.19 27.19 0 0 1-12.26 36.44l-130.87 64.99a27.18 27.18 0 0 1-36.44-12.26l-3.02-6.1a27.18 27.18 0 0 1 12.26-36.43l130.87-64.98a27.18 27.18 0 0 1 36.43 12.26Z"/><path fill="#231f20" d="m804.2 267.6-.5-.99 11.26-17.88 2.36 1.48-9.6 14.84 17.56 1.13-.28 2.7Zm33.2-3.43-5.66-11.42c-.23-.46-.48-.92-.74-1.36a5.2 5.2 0 0 0-.84-1.08 2.1 2.1 0 0 0-.96-.57 1.62 1.62 0 0 0-1.1.16 2.77 2.77 0 0 0-1.5 1.94c-.21.9-.22 1.9-.02 3l5.86 11.8-2.6 1.3-8.52-17.15 1.78-.89 1.55 1.84.14-.07c.06-.45.12-.9.19-1.3.06-.43.18-.82.35-1.19.17-.37.42-.72.75-1.03a5.48 5.48 0 0 1 2.52-1.3 3.36 3.36 0 0 1 2.49.45c.4.26.78.63 1.1 1.12a8.3 8.3 0 0 1 .73-2.97 4.82 4.82 0 0 1 2.32-2.09 4.31 4.31 0 0 1 2.02-.53c.59.01 1.15.2 1.64.53.49.34.95.81 1.38 1.4.43.61.84 1.31 1.23 2.11l6.08 12.24-2.6 1.3-5.8-11.66c-.22-.46-.46-.9-.73-1.32-.23-.37-.5-.7-.81-.99a2.07 2.07 0 0 0-.9-.5c-.3-.07-.64-.02-1 .16-.8.4-1.32 1.06-1.55 1.97a7.1 7.1 0 0 0 .13 3.35l5.68 11.46Zm28.66-16.92a9.7 9.7 0 0 1-.94 1.75c-.4.6-.88 1.18-1.43 1.73a15.22 15.22 0 0 1-3.9 2.84 10.78 10.78 0 0 1-3.94 1.17 7.76 7.76 0 0 1-3.55-.51 8.8 8.8 0 0 1-3.01-2.03 13.2 13.2 0 0 1-2.39-3.43 12.7 12.7 0 0 1-1.3-4.14 8.34 8.34 0 0 1 .33-3.67c.38-1.13 1-2.16 1.88-3.1a12.37 12.37 0 0 1 6.34-3.43 6.3 6.3 0 0 1 3.19.2 7.57 7.57 0 0 1 3.1 2.05 15.1 15.1 0 0 1 2.76 4.55l-13.23 6.57c1.02 2.06 2.34 3.32 3.95 3.79 1.6.47 3.34.24 5.19-.68.61-.3 1.19-.68 1.72-1.13a16.9 16.9 0 0 0 1.46-1.38 11 11 0 0 0 1.11-1.41c.3-.46.51-.86.63-1.17Zm-13.73-9.55c-.76.37-1.43.8-2.02 1.3a4.97 4.97 0 0 0-1.91 3.8c-.03.76.13 1.61.48 2.55l10.63-5.28a5.88 5.88 0 0 0-3.2-2.79 5.14 5.14 0 0 0-3.98.42Zm9.8-7.17 4.07-2.03-1.68-3.4 2.33-2.1 2.06 4.15 9.16-4.54 1.14 2.3-9.16 4.54 4.02 8.1c.83 1.66 1.85 2.7 3.05 3.1 1.21.4 2.57.22 4.07-.53a6.56 6.56 0 0 0 2.4-1.91c.53-.73 1.02-1.5 1.43-2.3l1.9 1.59a11.44 11.44 0 0 1-5.22 5.24c-.88.44-1.82.74-2.79.89a6.5 6.5 0 0 1-5.27-1.53 8.69 8.69 0 0 1-2.07-2.8l-4.22-8.5-4.08 2.02Zm23.87-10.2a12.2 12.2 0 0 1 2.71-2.88 20.53 20.53 0 0 1 3.45-2.18 7.26 7.26 0 0 1 3.14-.87 5.14 5.14 0 0 1 4.3 2.11c.51.67.96 1.39 1.33 2.14.44.87.87 1.8 1.32 2.81.44 1 .9 2 1.36 3a27.4 27.4 0 0 0 1.82 3.16l2.3-1.15 1.1 2.23-4.53 2.25-1.58-2.42-.17.09a6.94 6.94 0 0 1-.84 2.58 7.5 7.5 0 0 1-3.33 3.09c-1.7.84-3.26 1.07-4.68.69a5.03 5.03 0 0 1-3.25-2.83 5.74 5.74 0 0 1-.67-3.3c.13-1.03.57-2 1.33-2.89.76-.89 1.8-1.7 3.13-2.45a25.58 25.58 0 0 1 4.73-2c-.4-1.12-.82-2-1.25-2.66a4.06 4.06 0 0 0-1.37-1.39 2.56 2.56 0 0 0-1.64-.27c-.6.08-1.28.31-2.04.69-1 .5-1.93 1.13-2.75 1.9-.72.67-1.41 1.38-2.07 2.12Zm11.94 11.3a5.6 5.6 0 0 0 1.63-1.19 6.13 6.13 0 0 0 1.56-3.06c.08-.51.11-.97.08-1.39l-1.2-2.4c-1.28.39-2.43.83-3.44 1.33-1 .5-1.82 1.04-2.44 1.62a4.09 4.09 0 0 0-1.22 1.86c-.18.66-.09 1.36.27 2.1.36.73.99 1.3 1.75 1.58.8.3 1.8.16 3-.45Zm15.05-6.44-2.33-1.4 9.73-14.7-17.63-1.3.25-2.78 21.05 1.84.49 1Z"/><path fill="#f68635" stroke="#fff" stroke-linecap="round" stroke-linejoin="round" stroke-width="4.36" d="M899.44 105a27.18 27.18 0 0 1-7.24 37.76l-120.92 82.02a27.19 27.19 0 0 1-37.76-7.24l-3.81-5.62a27.18 27.18 0 0 1 7.24-37.76l120.92-82.02a27.18 27.18 0 0 1 37.75 7.23Z"/><path fill="#231f20" d="m761.4 194.44-.63-.92 8.74-19.23 2.54 1.15-7.52 15.99 17.57-1.25.08 2.72Zm32.45-7.88-7.16-10.55c-.3-.43-.6-.84-.92-1.25a5.3 5.3 0 0 0-.98-.96 2 2 0 0 0-1.03-.43c-.35-.04-.7.06-1.06.3a2.78 2.78 0 0 0-1.22 2.13c-.1.93.03 1.92.38 2.98l7.4 10.9-2.41 1.63-10.75-15.84 1.65-1.12 1.78 1.61.13-.09v-1.32c.01-.42.07-.82.2-1.22.12-.39.31-.76.6-1.12a5.5 5.5 0 0 1 2.32-1.62 3.35 3.35 0 0 1 2.53.11c.44.2.86.52 1.25.96a8.1 8.1 0 0 1 .32-3.04c.28-.88.95-1.67 2.01-2.39.7-.47 1.35-.73 1.93-.8a3 3 0 0 1 1.7.31c.53.27 1.05.67 1.56 1.21.55.6 1.05 1.24 1.5 1.92l7.67 11.3-2.4 1.64-7.31-10.77a13.5 13.5 0 0 0-.91-1.2 4.88 4.88 0 0 0-.94-.88 2.08 2.08 0 0 0-.95-.37 1.5 1.5 0 0 0-.98.3 2.87 2.87 0 0 0-1.26 2.15c-.1.94.09 2.04.58 3.3l7.17 10.59Zm26.11-20.63c-.17.65-.4 1.27-.7 1.87-.34.67-.73 1.3-1.18 1.9a15.3 15.3 0 0 1-3.48 3.34 10.8 10.8 0 0 1-3.76 1.69 7.8 7.8 0 0 1-3.58-.02 8.86 8.86 0 0 1-3.26-1.6 13.07 13.07 0 0 1-2.83-3.09 12.78 12.78 0 0 1-1.85-3.92 8.33 8.33 0 0 1-.16-3.69c.22-1.16.7-2.27 1.45-3.32a12.21 12.21 0 0 1 5.82-4.25 6.28 6.28 0 0 1 3.18-.24c1.1.2 2.22.74 3.35 1.62 1.12.9 2.24 2.27 3.35 4.13l-12.23 8.3c1.29 1.9 2.76 2.98 4.42 3.22 1.66.25 3.35-.2 5.05-1.36a8.55 8.55 0 0 0 1.55-1.36c.47-.52.9-1.04 1.27-1.57a10 10 0 0 0 1.38-2.8Zm-14.9-7.6c-.7.47-1.3.98-1.82 1.55a5.02 5.02 0 0 0-1.38 4.01c.07.77.34 1.6.82 2.48l9.82-6.66a5.87 5.87 0 0 0-3.55-2.34 5.15 5.15 0 0 0-3.9.95Zm8.74-8.43 3.77-2.56-2.13-3.14 2.03-2.4 2.6 3.84 8.46-5.74 1.44 2.12-8.46 5.74 5.07 7.48c1.05 1.54 2.2 2.43 3.44 2.66 1.25.23 2.57-.12 3.96-1.06a6.54 6.54 0 0 0 2.11-2.22c.46-.84.84-1.66 1.12-2.47l2.09 1.3a11.43 11.43 0 0 1-4.47 5.9c-.8.56-1.7.99-2.64 1.27a6.49 6.49 0 0 1-5.43-.8 8.7 8.7 0 0 1-2.43-2.5l-5.33-7.86-3.77 2.56Zm22.29-13.32a12.12 12.12 0 0 1 2.3-3.22c.95-.98 2-1.86 3.12-2.63a7.27 7.27 0 0 1 2.99-1.29 5.17 5.17 0 0 1 4.54 1.52c.6.6 1.15 1.24 1.62 1.94a81.5 81.5 0 0 1 1.67 2.6c.58.94 1.16 1.87 1.76 2.8.68 1 1.42 1.97 2.23 2.88l2.12-1.44 1.4 2.06-4.19 2.83-1.9-2.18-.15.1c0 .28-.02.66-.08 1.13a6.5 6.5 0 0 1-.4 1.55 7.58 7.58 0 0 1-2.89 3.5c-1.57 1.07-3.09 1.5-4.54 1.32a5.05 5.05 0 0 1-3.6-2.37 5.77 5.77 0 0 1-1.12-3.18c0-1.04.3-2.05.94-3.03a11.5 11.5 0 0 1 2.77-2.86 26.4 26.4 0 0 1 4.42-2.62 13.7 13.7 0 0 0-1.6-2.46 3.97 3.97 0 0 0-1.55-1.19 2.57 2.57 0 0 0-1.66-.05c-.59.16-1.23.48-1.93.96-.93.62-1.76 1.38-2.46 2.25-.63.76-1.22 1.56-1.77 2.38Zm13.35 9.6a5.97 5.97 0 0 0 2.48-6.03l-1.5-2.23a21.62 21.62 0 0 0-3.24 1.78c-.93.63-1.66 1.28-2.2 1.94a4.04 4.04 0 0 0-.95 2c-.1.69.08 1.36.54 2.04a3.14 3.14 0 0 0 1.95 1.34c.82.2 1.8-.09 2.92-.85Zm14.04-8.43-2.5-1.08 7.66-15.86-17.63 1.08-.14-2.79 21.1-1.01.63.92Z"/><path fill="#fff" d="M373.17 64.56a50.5 50.5 0 0 1-50.67 50.33l-271.44-.88A50.5 50.5 0 0 1 .72 63.36l.04-12.62A50.5 50.5 0 0 1 51.43.39l271.44.88a50.5 50.5 0 0 1 50.34 50.66Z"/><path fill="#f68635" d="M67.4 56.9v-2.06l33.56-20.34 2.7 4.43-28.3 16.65 28.25 16.49-2.71 4.25Zm39.84-27.92 11.1.03-.06 18.64h.35a15.9 15.9 0 0 1 5.13-3.86 16.83 16.83 0 0 1 7.26-1.37c2.28.01 4.26.26 5.94.73a8.5 8.5 0 0 1 4.11 2.5 11.31 11.31 0 0 1 2.37 4.89c.52 2.06.77 4.68.76 7.86l-.07 20.48-5.62-.02.07-19.41c0-2.04-.1-3.82-.34-5.34a9.34 9.34 0 0 0-1.37-3.81 6.4 6.4 0 0 0-2.8-2.32 11.3 11.3 0 0 0-4.53-.8c-1.28 0-2.55.23-3.75.67a12.58 12.58 0 0 0-3.38 1.83 11.6 11.6 0 0 0-2.63 2.84 10.65 10.65 0 0 0-1.53 3.66l-.08 22.62-5.47-.02.14-45.02-5.62-.02Zm79.86 45.56c-.85.75-1.86 1.46-3.03 2.12a22.3 22.3 0 0 1-3.8 1.7 28.03 28.03 0 0 1-8.83 1.46 20.1 20.1 0 0 1-7.54-1.34 14.5 14.5 0 0 1-5.46-3.79 16.42 16.42 0 0 1-3.32-5.87 24.18 24.18 0 0 1-1.12-7.69 23.6 23.6 0 0 1 1.28-7.96 15.45 15.45 0 0 1 3.6-5.82 15.63 15.63 0 0 1 5.7-3.57 21.32 21.32 0 0 1 7.48-1.23c1.99.01 3.96.28 5.9.8 1.94.53 3.66 1.52 5.14 2.98a14.08 14.08 0 0 1 3.44 5.98c.8 2.54 1.07 5.82.82 9.85l-27.46-.08c-.01 4.26 1.13 7.45 3.41 9.57 2.3 2.12 5.35 3.18 9.18 3.2 1.28 0 2.55-.15 3.8-.45a31.4 31.4 0 0 0 3.58-1.1 18.9 18.9 0 0 0 3.02-1.4c.88-.53 1.55-1 2.03-1.42Zm-14.88-27.29a19.1 19.1 0 0 0-4.44.48c-1.4.33-2.62.88-3.69 1.66a9.17 9.17 0 0 0-2.63 3.05 12.3 12.3 0 0 0-1.33 4.66l22.05.07c-.23-3.13-1.22-5.56-2.99-7.3-1.77-1.74-4.09-2.61-6.97-2.62Zm27.7-.98a22.63 22.63 0 0 1 6.91-2.54c2.48-.5 5-.75 7.54-.75 2.42 0 4.4.4 5.94 1.15a9.63 9.63 0 0 1 5.38 7.1c.3 1.54.45 3.1.45 4.66-.01 1.8-.06 3.72-.16 5.76-.1 2.04-.19 4.08-.24 6.11-.01 2.26.12 4.52.4 6.76l4.77.02-.01 4.62-9.4-.03-.61-5.34h-.36c-.29.43-.72.97-1.29 1.63a11.4 11.4 0 0 1-2.25 1.95 14.03 14.03 0 0 1-8.1 2.36c-3.53-.01-6.3-.92-8.35-2.73-2.03-1.8-3.05-4.28-3.04-7.4 0-2.42.55-4.44 1.63-6.05a10.14 10.14 0 0 1 4.6-3.68c2-.85 4.43-1.34 7.26-1.47 2.82-.13 6 .07 9.52.6.24-2.18.28-4 .12-5.44a7.49 7.49 0 0 0-1.13-3.45 4.8 4.8 0 0 0-2.5-1.83 12.73 12.73 0 0 0-3.95-.54 20.9 20.9 0 0 0-6.14.87c-1.95.59-3.7 1.18-5.22 1.8Zm10.44 28.7c1.32 0 2.56-.2 3.7-.63a11.28 11.28 0 0 0 5.13-3.79c.57-.78 1-1.52 1.29-2.23l.01-4.98a40.25 40.25 0 0 0-6.82-.66c-2.09-.01-3.89.2-5.4.65a7.52 7.52 0 0 0-3.57 2.1 5.32 5.32 0 0 0-1.3 3.68c0 1.57.53 2.94 1.6 4.1 1.06 1.17 2.84 1.75 5.36 1.76Zm49.36-45.5 11.6.04-.13 37.62c0 .43.02.96.07 1.6a86.02 86.02 0 0 0 .4 4.13c.1.69.2 1.29.29 1.81l4.76.02-.01 4.62-9.53-.03-.7-5.48h-.28c-1.05 1.8-2.6 3.3-4.66 4.5a13.8 13.8 0 0 1-7.13 1.8c-5.35-.03-9.28-1.54-11.8-4.56-2.52-3.02-3.77-7.7-3.75-14.06 0-2.99.44-5.63 1.3-7.93a15.3 15.3 0 0 1 3.67-5.75c1.6-1.53 3.5-2.7 5.72-3.5 2.23-.8 4.71-1.2 7.46-1.18a41.24 41.24 0 0 1 4.82.29c.66.1 1.29.23 1.88.4l1.94.54.04-10.1-5.98-.02Zm-4.38 45.86c2.88 0 5.15-.73 6.81-2.22 1.66-1.49 2.8-3.72 3.43-6.71l.05-16.5a10.97 10.97 0 0 0-3.5-1.58c-1.3-.33-3.02-.5-5.14-.51-3.78-.01-6.76 1.08-8.94 3.28-2.19 2.2-3.28 5.66-3.3 10.4 0 1.95.17 3.76.52 5.45.35 1.68.93 3.14 1.75 4.38a8.73 8.73 0 0 0 3.29 2.92 10.8 10.8 0 0 0 5.03 1.09Zm28.05 1.58-2.69-4.27 28.36-16.3-28.18-16.84 2.72-4.4 33.43 20.55v2.06Z"/><path fill="#fff" d="M1515.67 64.6a50.5 50.5 0 0 1-50.67 50.33l-271.45-.95a50.5 50.5 0 0 1-50.32-50.67l.04-12.63A50.5 50.5 0 0 1 1193.95.36l271.44.94a50.5 50.5 0 0 1 50.33 50.68Z"/><path fill="#f68635" d="m1183.32 56.87.01-2.06 33.57-20.34 2.69 4.43-28.3 16.65 28.25 16.5-2.72 4.25Zm71.65-28.66 4.48 2-26.17 58.52-4.47-2.01Zm10.88.89 11.1.04-.07 18.63h.36a15.9 15.9 0 0 1 5.13-3.86 16.83 16.83 0 0 1 7.26-1.36c2.27.01 4.25.26 5.94.73a8.5 8.5 0 0 1 4.11 2.5 11.3 11.3 0 0 1 2.37 4.89c.51 2.06.76 4.68.75 7.86l-.07 20.48-5.62-.02.07-19.42c0-2.03-.1-3.81-.34-5.33a9.32 9.32 0 0 0-1.37-3.81 6.41 6.41 0 0 0-2.79-2.32 11.3 11.3 0 0 0-4.53-.8c-1.28 0-2.55.22-3.76.66a12.54 12.54 0 0 0-3.37 1.84c-1.03.8-1.92 1.75-2.63 2.84a10.77 10.77 0 0 0-1.54 3.65l-.08 22.62-5.47-.02.15-45.02-5.62-.02Zm79.85 45.58c-.86.76-1.87 1.46-3.03 2.12-1.22.69-2.5 1.25-3.81 1.7a27.87 27.87 0 0 1-8.83 1.46 20.08 20.08 0 0 1-7.53-1.34 14.5 14.5 0 0 1-5.46-3.8 16.43 16.43 0 0 1-3.33-5.87 24.18 24.18 0 0 1-1.1-7.69c0-2.98.43-5.64 1.27-7.96a15.45 15.45 0 0 1 3.6-5.82 15.66 15.66 0 0 1 5.7-3.57 21.3 21.3 0 0 1 7.48-1.22 23 23 0 0 1 5.9.8c1.94.53 3.66 1.53 5.15 2.98a14.1 14.1 0 0 1 3.42 5.98c.8 2.54 1.07 5.83.82 9.86l-27.45-.1c-.02 4.27 1.12 7.46 3.4 9.58 2.3 2.12 5.35 3.18 9.18 3.2 1.28 0 2.56-.15 3.8-.45a31.6 31.6 0 0 0 3.59-1.1c1.04-.38 2.05-.85 3.02-1.4.87-.53 1.55-1 2.02-1.42Zm-14.88-27.3a19.1 19.1 0 0 0-4.43.5 9.22 9.22 0 0 0-6.33 4.7 12.32 12.32 0 0 0-1.33 4.65l22.05.08c-.23-3.13-1.22-5.56-2.99-7.3-1.76-1.74-4.09-2.61-6.97-2.62Zm27.7-.96a22.67 22.67 0 0 1 6.91-2.54c2.49-.5 5.01-.76 7.55-.75 2.41 0 4.4.4 5.93 1.15a9.62 9.62 0 0 1 5.38 7.1c.3 1.54.45 3.1.45 4.66-.01 1.8-.06 3.72-.16 5.76-.1 2.04-.19 4.08-.24 6.12a52.6 52.6 0 0 0 .4 6.75l4.77.02-.02 4.62-9.4-.03-.6-5.34h-.36c-.29.43-.72.97-1.3 1.64-.57.66-1.32 1.3-2.25 1.94a14.04 14.04 0 0 1-8.1 2.35c-3.52 0-6.3-.92-8.34-2.73-2.04-1.8-3.05-4.27-3.04-7.4a10.7 10.7 0 0 1 1.63-6.04 10.13 10.13 0 0 1 4.6-3.68 21.13 21.13 0 0 1 7.26-1.47c2.82-.13 6 .07 9.52.6.24-2.18.28-4 .12-5.44a7.47 7.47 0 0 0-1.13-3.45 4.8 4.8 0 0 0-2.49-1.83 12.74 12.74 0 0 0-3.96-.54c-2.14-.01-4.19.28-6.14.87a62.57 62.57 0 0 0-5.21 1.79Zm10.43 28.7c1.33 0 2.57-.2 3.7-.63a11.26 11.26 0 0 0 5.14-3.79c.57-.78 1-1.52 1.28-2.23l.02-4.98a40.23 40.23 0 0 0-6.82-.67c-2.09 0-3.89.21-5.4.66a7.54 7.54 0 0 0-3.57 2.09 5.33 5.33 0 0 0-1.3 3.69c0 1.56.53 2.93 1.6 4.1 1.05 1.16 2.84 1.75 5.36 1.76Zm49.38-45.5 11.59.05-.13 37.62c0 .43.02.96.06 1.6a81.16 81.16 0 0 0 .42 4.13c.09.69.18 1.3.27 1.81l4.77.02-.02 4.62-9.52-.03-.7-5.48h-.28c-1.05 1.8-2.6 3.3-4.66 4.5a13.8 13.8 0 0 1-7.14 1.79c-5.35-.02-9.28-1.54-11.8-4.56-2.52-3.02-3.77-7.7-3.74-14.06 0-2.99.44-5.63 1.3-7.93a15.3 15.3 0 0 1 3.67-5.74c1.6-1.54 3.5-2.7 5.73-3.5 2.23-.8 4.71-1.2 7.45-1.19a30.2 30.2 0 0 1 4.82.3c.64.1 1.26.23 1.88.4l1.95.54.04-10.1-5.98-.02Zm-4.4 45.87c2.89 0 5.16-.73 6.82-2.22 1.66-1.49 2.8-3.73 3.42-6.71l.06-16.5a10.95 10.95 0 0 0-3.5-1.58 22 22 0 0 0-5.14-.51c-3.78-.02-6.76 1.08-8.94 3.27-2.18 2.2-3.28 5.67-3.3 10.41 0 1.94.17 3.76.52 5.44a12.3 12.3 0 0 0 1.75 4.38 8.74 8.74 0 0 0 3.29 2.93 10.8 10.8 0 0 0 5.03 1.09Zm28.06 1.59-2.7-4.27 28.37-16.3-28.17-16.84 2.71-4.41 33.43 20.56v2.06Z"/></svg>