<svg xmlns="http://www.w3.org/2000/svg" width="1920" height="1080"><path d="M1335.403 451.903c-5.012.025-9.953.365-14.812.937-46.227-156.642-191.511-270.593-363.022-269.708-171.504.887-315.609 116.34-360.205 273.442-4.867-.521-9.812-.812-14.826-.781-72.188.373-130.402 59.195-130.029 131.379.377 72.191 59.195 130.403 131.382 130.029 11-.055 21.664-1.486 31.859-4.094 59.032 132.001 191.812 223.679 345.706 222.89 153.893-.8 285.717-93.845 343.396-226.445a131.053 131.053 0 0031.9 3.761c72.182-.37 130.4-59.193 130.029-131.381-.371-72.188-59.186-130.397-131.378-130.029zm-374.715 63.446c-134.819 0-244.111-64.456-244.111-143.963 0-79.51 109.292-143.965 244.111-143.965S1204.8 291.876 1204.8 371.386c0 79.507-109.293 143.963-244.112 143.963z"/><g fill="none" stroke="#FFF" stroke-width="5.042" stroke-linecap="round" stroke-linejoin="round" stroke-miterlimit="10"><path d="M1386.5 552.264l-80.615 86.723M516.808 547.769l79.723 87.556"/></g><g stroke="#FFF" stroke-miterlimit="10"><path fill="#FFF" stroke-width="1.26" d="M1066.467 600.181c-.121 22.801 18.279 41.376 41.072 41.497 22.805.12 41.392-18.27 41.51-41.071.115-22.803-18.281-41.382-41.084-41.496-22.797-.119-41.376 18.264-41.498 41.07z"/><path fill="none" stroke-width="5.042" stroke-linecap="round" stroke-linejoin="round" d="M1008.566 610.506c21.846-31.443 58.282-51.973 99.467-51.76 41.188.218 77.413 21.115 98.916 52.791"/></g><g stroke="#FFF" stroke-miterlimit="10"><path fill="#FFF" stroke-width="1.26" d="M742.175 600.181c-.122 22.801 18.276 41.376 41.069 41.497 22.805.12 41.395-18.27 41.512-41.071.116-22.803-18.281-41.382-41.084-41.496-22.797-.119-41.376 18.264-41.497 41.07z"/><path fill="none" stroke-width="5.042" stroke-linecap="round" stroke-linejoin="round" d="M684.273 610.506c21.847-31.443 58.284-51.973 99.47-51.76 41.188.218 77.412 21.115 98.914 52.791"/></g><path fill="none" stroke="#FFF" stroke-width="5.042" stroke-linecap="round" stroke-linejoin="round" stroke-miterlimit="10" d="M684.425 608.84c21.831-31.463 58.267-51.982 99.455-51.769 41.179.211 77.419 21.114 98.924 52.791M943.848 599.911l-.369 72.312"/><path fill="#FFF" d="M1072.449 716.449c0 62.302-50.505 112.807-112.805 112.807-62.302 0-112.805-50.505-112.805-112.807h225.61z"/><g><path fill="#F68635" stroke="#FFF" stroke-width="4.357" stroke-linecap="round" stroke-linejoin="round" stroke-miterlimit="10" d="M1006.857 272.302c3.856 14.509-4.78 29.398-19.293 33.252l-141.22 37.515c-14.511 3.854-29.397-4.783-33.252-19.294l-1.746-6.567c-3.854-14.513 4.784-29.399 19.295-33.253l141.22-37.517c14.511-3.853 29.397 4.785 33.254 19.295l1.742 6.569z"/><g fill="#231F20"><path d="M846.879 311.098l-.285-1.071 14.602-15.269 2.016 1.925-12.375 12.611 16.993 4.621-.817 2.59-20.134-5.407zM880.111 314.371l-3.273-12.321a20.762 20.762 0 00-.454-1.483 5.243 5.243 0 00-.603-1.228c-.237-.345-.516-.595-.833-.748-.317-.152-.688-.174-1.105-.062-.839.223-1.457.757-1.854 1.601-.396.846-.604 1.824-.625 2.939l3.381 12.727-2.812.749-4.913-18.501 1.924-.511 1.154 2.11.148-.041c.146-.433.295-.85.441-1.244.146-.396.34-.758.582-1.086s.556-.617.938-.863c.384-.248.896-.456 1.538-.627a4.315 4.315 0 011.191-.139c.423.007.832.084 1.229.229.396.146.768.385 1.12.712.352.33.639.769.864 1.315.312-1.112.748-2.032 1.306-2.764.56-.729 1.455-1.256 2.688-1.585.813-.216 1.51-.256 2.088-.118.578.137 1.074.42 1.492.85.418.432.776.983 1.074 1.657.298.674.562 1.442.791 2.304l3.509 13.21-2.812.748-3.341-12.581c-.14-.518-.292-.999-.464-1.441a4.78 4.78 0 00-.597-1.129c-.227-.31-.483-.531-.771-.668-.287-.134-.626-.149-1.021-.044-.863.229-1.5.768-1.908 1.614-.407.85-.591 1.954-.546 3.314l3.283 12.359-2.809.746zM911.572 303.52a9.89 9.89 0 01-1.277 1.528c-.513.506-1.094.979-1.744 1.412-.649.437-1.345.825-2.086 1.169-.741.342-1.506.619-2.295.827-1.479.393-2.849.513-4.104.356-1.256-.152-2.379-.556-3.37-1.204-.991-.646-1.841-1.511-2.55-2.59-.709-1.077-1.261-2.357-1.653-3.84-.413-1.554-.564-2.991-.454-4.315.11-1.322.465-2.501 1.062-3.529.599-1.03 1.418-1.915 2.464-2.655 1.045-.739 2.281-1.299 3.713-1.68a12.288 12.288 0 013.179-.409 6.276 6.276 0 013.09.824c.979.545 1.851 1.423 2.62 2.631.771 1.208 1.371 2.878 1.806 5.007l-14.282 3.792c.59 2.221 1.628 3.722 3.112 4.503 1.484.781 3.224.905 5.217.376a8.449 8.449 0 001.909-.765c.61-.334 1.181-.69 1.712-1.068.531-.378.988-.766 1.372-1.156.382-.394.667-.731.854-1.021l1.705 1.807zm-11.554-12.102c-.812.216-1.558.506-2.236.871a5.418 5.418 0 00-1.688 1.379 4.925 4.925 0 00-.941 1.952c-.184.749-.194 1.616-.038 2.604l11.471-3.047c-.557-1.594-1.415-2.719-2.576-3.375-1.163-.655-2.494-.783-3.992-.384zM911.051 286.346l4.403-1.168-.974-3.664 2.707-1.59 1.188 4.477 9.879-2.625.659 2.479-9.88 2.625 2.319 8.732c.479 1.8 1.27 3.017 2.371 3.647 1.104.632 2.465.731 4.088.301 1.104-.294 2.016-.759 2.728-1.397a16.31 16.31 0 001.869-1.963l1.539 1.93c-.681.919-1.562 1.748-2.647 2.484a11.405 11.405 0 01-3.515 1.608 9.332 9.332 0 01-2.907.315 6.616 6.616 0 01-2.661-.699c-.823-.414-1.555-1.031-2.195-1.853-.641-.819-1.13-1.871-1.472-3.154l-2.438-9.177-4.403 1.171-.658-2.479zM936.482 281.137c.896-.898 1.977-1.66 3.236-2.285a20.196 20.196 0 013.814-1.451c1.257-.333 2.34-.41 3.247-.227.905.181 1.67.525 2.295 1.032a5.616 5.616 0 011.495 1.901c.374.759.668 1.544.885 2.359.249.938.489 1.943.722 3.018.232 1.074.478 2.145.734 3.211a27.658 27.658 0 001.155 3.456l2.479-.659.639 2.405-4.887 1.298-1.068-2.687-.185.048c-.09.261-.237.604-.442 1.03-.205.423-.506.865-.898 1.327-.396.461-.905.906-1.532 1.337-.626.431-1.411.772-2.351 1.021-1.831.486-3.403.401-4.717-.253-1.312-.654-2.185-1.797-2.617-3.424-.333-1.259-.334-2.382-.001-3.367.334-.985.962-1.84 1.883-2.56.921-.721 2.108-1.314 3.561-1.779 1.453-.463 3.13-.805 5.034-1.02-.178-1.167-.411-2.116-.695-2.844-.287-.73-.644-1.274-1.07-1.638-.428-.363-.945-.562-1.551-.599-.606-.038-1.318.053-2.135.27a11.267 11.267 0 00-3.069 1.312 33.558 33.558 0 00-2.46 1.663l-1.501-1.895zm9.438 13.455a5.618 5.618 0 001.836-.843 6.098 6.098 0 001.329-1.265c.353-.464.622-.938.81-1.424.188-.486.308-.934.356-1.341l-.688-2.592c-1.341.12-2.555.322-3.64.61-1.086.289-1.992.656-2.718 1.099-.729.444-1.248.973-1.561 1.584-.313.61-.364 1.312-.155 2.1a3.152 3.152 0 001.396 1.907c.717.458 1.728.512 3.035.165zM961.956 291.283l-1.995-1.842 12.458-12.445-17.003-4.809.795-2.671 20.253 6.009.285 1.072-14.793 14.686z"/></g></g><g><path fill="#F68635" stroke="#FFF" stroke-width="4.357" stroke-linecap="round" stroke-linejoin="round" stroke-miterlimit="10" d="M909.873 471.63c-9.243 11.829-26.329 13.926-38.158 4.681l-115.129-89.974c-11.83-9.247-13.925-26.332-4.68-38.162l4.185-5.354c9.245-11.829 26.33-13.925 38.159-4.682l115.129 89.977c11.83 9.246 13.924 26.33 4.68 38.16l-4.186 5.354z"/><g fill="#231F20"><path d="M782.371 367.521l.684-.875 20.986 2.432-.319 2.77-17.523-2.259 6.569 16.339-2.559.912-7.838-19.319zM799.812 395.998l7.852-10.045c.33-.423.633-.842.909-1.257.275-.418.479-.822.614-1.223.132-.396.164-.77.095-1.116-.07-.348-.275-.652-.618-.918-.684-.535-1.482-.706-2.395-.512-.914.193-1.82.619-2.722 1.273l-8.11 10.377-2.291-1.792 11.787-15.082 1.568 1.226-.986 2.193.121.095a49.76 49.76 0 011.26-.398c.404-.122.81-.186 1.22-.19.408-.005.825.069 1.254.229.428.156.904.438 1.428.848.302.236.578.525.829.867.25.341.438.714.561 1.117.121.403.157.844.107 1.322-.05.479-.226.975-.527 1.482 1.076-.422 2.072-.63 2.991-.627.919.008 1.881.402 2.888 1.188.664.518 1.114 1.051 1.354 1.593.239.544.312 1.111.225 1.705-.092.593-.315 1.211-.674 1.854a15.865 15.865 0 01-1.361 2.021l-8.416 10.768-2.292-1.79 8.016-10.257c.33-.423.619-.836.871-1.238.249-.403.429-.789.54-1.157.109-.367.131-.706.064-1.017-.064-.312-.258-.592-.58-.844-.705-.55-1.519-.731-2.439-.545-.922.187-1.914.707-2.973 1.563l-7.873 10.073-2.297-1.786zM827.451 414.536a9.662 9.662 0 01-1.989-.098 12.088 12.088 0 01-2.18-.536 15.23 15.23 0 01-2.19-.959 14.28 14.28 0 01-2.045-1.331c-1.207-.943-2.127-1.962-2.762-3.059-.634-1.096-.992-2.233-1.073-3.412-.082-1.184.095-2.382.528-3.6.431-1.216 1.12-2.427 2.062-3.634.99-1.268 2.046-2.256 3.168-2.968 1.122-.709 2.275-1.137 3.457-1.281 1.185-.146 2.384-.025 3.604.363 1.219.386 2.413 1.034 3.579 1.946a12.16 12.16 0 012.245 2.287 6.27 6.27 0 011.207 2.963c.154 1.107-.018 2.334-.518 3.676-.499 1.345-1.467 2.83-2.902 4.462L820 400.259c-1.414 1.81-1.986 3.542-1.712 5.197.272 1.654 1.222 3.116 2.847 4.388a8.622 8.622 0 001.764 1.062c.634.283 1.262.523 1.885.72a10.27 10.27 0 001.75.396c.543.069.986.091 1.328.067l-.411 2.447zm2.678-16.518a10.285 10.285 0 00-2.044-1.256c-.702-.321-1.408-.493-2.119-.514s-1.419.123-2.126.428c-.707.307-1.406.818-2.1 1.54l9.352 7.311c.937-1.406 1.315-2.771 1.139-4.091-.18-1.324-.879-2.46-2.102-3.418zM840.83 403.758l3.589 2.805 2.334-2.984 2.902 1.198-2.854 3.649 8.054 6.294-1.58 2.021-8.055-6.295-5.562 7.12c-1.147 1.467-1.642 2.829-1.479 4.091.162 1.261.905 2.405 2.228 3.44.9.704 1.822 1.148 2.761 1.33.938.186 1.835.286 2.69.309l-.608 2.389c-1.146.013-2.337-.19-3.58-.61s-2.376-1.03-3.402-1.832a9.347 9.347 0 01-2.007-2.128 6.623 6.623 0 01-1.047-2.543c-.166-.906-.117-1.863.15-2.869.269-1.007.812-2.03 1.629-3.076l5.846-7.481-3.589-2.805 1.58-2.023zM860.33 420.894c1.257.175 2.517.572 3.775 1.2a20.342 20.342 0 013.455 2.169c1.026.802 1.74 1.617 2.143 2.451.402.831.589 1.649.56 2.452a5.56 5.56 0 01-.612 2.338 12.547 12.547 0 01-1.349 2.131 65.689 65.689 0 01-1.969 2.396c-.716.834-1.422 1.674-2.118 2.522a27.824 27.824 0 00-2.058 3.007l2.02 1.579-1.531 1.96-3.983-3.11 1.498-2.475-.151-.117c-.263.085-.625.175-1.087.269-.462.091-.994.119-1.601.084-.605-.035-1.271-.174-1.991-.413-.721-.241-1.466-.66-2.234-1.26-1.491-1.167-2.373-2.473-2.643-3.913-.27-1.442.113-2.826 1.151-4.153.802-1.026 1.695-1.703 2.684-2.032.989-.328 2.047-.345 3.178-.042 1.132.3 2.319.887 3.566 1.766 1.247.877 2.53 2.01 3.851 3.396.823-.845 1.439-1.603 1.85-2.271s.628-1.281.66-1.842c.029-.561-.123-1.091-.459-1.598-.336-.506-.838-1.02-1.504-1.539a11.25 11.25 0 00-2.896-1.655 33.186 33.186 0 00-2.811-.958l.606-2.342zm-5.036 15.645a5.672 5.672 0 001.78.955 6.1 6.1 0 001.81.296 5.825 5.825 0 001.624-.213c.5-.145.93-.318 1.284-.525l1.651-2.111c-.905-.998-1.799-1.843-2.685-2.534-.885-.692-1.724-1.192-2.516-1.506-.795-.312-1.528-.407-2.204-.289-.676.119-1.266.502-1.77 1.145a3.154 3.154 0 00-.677 2.266c.071.844.638 1.683 1.703 2.516zM867.607 447.329l.267-2.702 17.442 2.427-6.427-16.461 2.611-.977 7.429 19.774-.684.876-20.638-2.937z"/></g></g><g><path fill="#F68635" stroke="#FFF" stroke-width="4.357" stroke-linecap="round" stroke-linejoin="round" stroke-miterlimit="10" d="M1160.049 380.512c6.676 13.449 1.188 29.763-12.258 36.438l-130.871 64.986c-13.447 6.678-29.762 1.189-36.438-12.259l-3.023-6.088c-6.678-13.446-1.19-29.761 12.258-36.437l130.87-64.986c13.447-6.677 29.762-1.189 36.438 12.259l3.024 6.087z"/><g fill="#231F20"><path d="M1011.194 450.605l-.494-.994 11.256-17.879 2.36 1.481-9.605 14.832 17.574 1.13-.283 2.701-20.808-1.271zM1044.409 447.17l-5.669-11.418a19.972 19.972 0 00-.741-1.363 5.192 5.192 0 00-.836-1.082c-.304-.291-.624-.479-.966-.566-.343-.085-.707-.032-1.096.16-.778.386-1.275 1.033-1.495 1.938-.22.907-.229 1.907-.025 3.004l5.856 11.796-2.606 1.294-8.514-17.145 1.784-.885 1.553 1.837.137-.069c.059-.456.12-.893.184-1.31.064-.416.185-.809.354-1.18.171-.369.423-.716.747-1.035.326-.318.786-.625 1.382-.922.344-.17.722-.294 1.14-.371a3.62 3.62 0 011.25-.021c.416.064.829.222 1.24.473.408.253.779.624 1.11 1.116.081-1.153.325-2.143.726-2.969.403-.827 1.174-1.522 2.317-2.092.753-.375 1.429-.551 2.021-.532a3.02 3.02 0 011.634.534c.494.34.955.809 1.383 1.407.428.602.839 1.303 1.235 2.103l6.079 12.24-2.605 1.294-5.79-11.658a13.704 13.704 0 00-.741-1.32 4.847 4.847 0 00-.809-.985c-.285-.258-.584-.425-.892-.5-.308-.072-.646-.021-1.011.16-.8.397-1.312 1.053-1.546 1.965-.231.914-.188 2.031.128 3.354l5.688 11.453-2.606 1.295zM1073.064 430.248a9.724 9.724 0 01-.944 1.752c-.4.599-.877 1.177-1.426 1.733a15.242 15.242 0 01-1.811 1.562c-.659.481-1.354.906-2.085 1.271-1.373.683-2.688 1.07-3.949 1.169-1.263.1-2.443-.067-3.545-.508-1.099-.435-2.104-1.109-3.015-2.026-.911-.915-1.706-2.061-2.388-3.431-.717-1.439-1.151-2.82-1.309-4.139-.156-1.317-.043-2.542.336-3.672.379-1.129 1.008-2.16 1.884-3.094.876-.935 1.976-1.73 3.303-2.39a12.336 12.336 0 013.033-1.035 6.296 6.296 0 013.191.188c1.067.339 2.099 1.025 3.095 2.055.995 1.03 1.921 2.545 2.77 4.544l-13.235 6.573c1.022 2.06 2.339 3.32 3.949 3.788 1.611.469 3.34.243 5.188-.673a8.662 8.662 0 001.719-1.133c.53-.447 1.018-.91 1.463-1.387.445-.479.815-.947 1.113-1.409.296-.46.509-.853.634-1.17l2.029 1.432zm-13.738-9.548c-.754.374-1.424.809-2.018 1.3a5.407 5.407 0 00-1.379 1.688 4.977 4.977 0 00-.531 2.104c-.029.77.132 1.622.482 2.56l10.63-5.277c-.862-1.453-1.93-2.384-3.196-2.793-1.27-.412-2.599-.272-3.988.418zM1069.122 413.526l4.081-2.025-1.686-3.396 2.334-2.1 2.061 4.148 9.154-4.547 1.143 2.299-9.156 4.545 4.02 8.092c.829 1.67 1.847 2.704 3.052 3.104 1.206.397 2.562.223 4.065-.523 1.023-.509 1.821-1.146 2.394-1.914a16.598 16.598 0 001.438-2.295l1.894 1.581c-.483 1.036-1.182 2.024-2.097 2.963a11.438 11.438 0 01-3.123 2.278 9.35 9.35 0 01-2.785.892 6.604 6.604 0 01-2.747-.153c-.89-.241-1.729-.701-2.521-1.376-.792-.678-1.482-1.606-2.072-2.797l-4.225-8.503-4.079 2.025-1.145-2.298zM1093.001 403.338c.698-1.061 1.604-2.021 2.712-2.888a20.531 20.531 0 013.448-2.183c1.165-.577 2.211-.868 3.135-.871.925-.005 1.743.18 2.455.554a5.606 5.606 0 011.846 1.562 12.63 12.63 0 011.338 2.14c.433.866.868 1.804 1.312 2.811.44 1.005.896 2.005 1.362 2.999a27.335 27.335 0 001.821 3.156l2.298-1.143 1.105 2.229-4.528 2.249-1.583-2.42-.172.085c-.036.274-.11.641-.228 1.098s-.321.949-.614 1.48c-.295.529-.706 1.069-1.234 1.614-.526.55-1.229 1.039-2.1 1.473-1.697.843-3.254 1.075-4.672.693-1.416-.379-2.5-1.321-3.249-2.83-.58-1.168-.806-2.266-.674-3.3.13-1.031.575-1.995 1.333-2.886.76-.888 1.805-1.708 3.133-2.452 1.33-.746 2.906-1.415 4.729-2.006-.406-1.109-.824-1.991-1.25-2.649-.427-.656-.885-1.118-1.377-1.39-.49-.269-1.036-.362-1.638-.276-.603.087-1.28.315-2.036.691a11.473 11.473 0 00-2.749 1.896 34.118 34.118 0 00-2.075 2.123l-1.848-1.559zm11.937 11.297a5.572 5.572 0 001.631-1.192c.444-.479.796-.98 1.048-1.505a5.788 5.788 0 00.51-1.557c.087-.515.114-.976.081-1.387l-1.191-2.401c-1.291.386-2.439.827-3.445 1.328-1.006.498-1.819 1.039-2.443 1.619-.624.582-1.027 1.201-1.214 1.862-.185.661-.095 1.358.27 2.09a3.149 3.149 0 001.75 1.588c.789.305 1.792.158 3.003-.445zM1119.987 408.188l-2.323-1.405 9.721-14.685-17.621-1.312.246-2.776 21.046 1.839.493.995-11.562 17.344z"/></g></g><g><path fill="#F68635" stroke="#FFF" stroke-width="4.357" stroke-linecap="round" stroke-linejoin="round" stroke-miterlimit="10" d="M1106.442 287.999c8.429 12.424 5.188 29.328-7.238 37.758l-120.923 82.022c-12.424 8.428-29.329 5.186-37.758-7.239l-3.814-5.624c-8.428-12.425-5.189-29.33 7.238-37.757l120.924-82.024c12.424-8.426 29.33-5.188 37.754 7.238l3.817 5.626z"/><g fill="#231F20"><path d="M968.395 377.44l-.625-.921 8.744-19.23 2.539 1.152-7.52 15.989 17.565-1.247.082 2.715-20.785 1.542zM1000.845 369.561l-7.157-10.55a20.76 20.76 0 00-.918-1.251 5.334 5.334 0 00-.975-.96c-.338-.248-.683-.391-1.033-.432-.352-.039-.706.062-1.064.307-.719.488-1.124 1.195-1.221 2.123-.095.929.031 1.921.381 2.981l7.394 10.897-2.407 1.633-10.747-15.842 1.648-1.118 1.786 1.612.126-.088c-.003-.458-.003-.899.005-1.321.009-.42.07-.825.193-1.217.119-.391.318-.765.601-1.126.281-.358.695-.726 1.244-1.099a4.262 4.262 0 011.08-.522 3.675 3.675 0 011.233-.191c.422.01.854.109 1.293.305.44.193.858.515 1.25.957-.072-1.154.034-2.168.321-3.04.286-.874.956-1.668 2.015-2.385.696-.474 1.342-.738 1.931-.802a3 3 0 011.69.312c.537.269 1.058.671 1.562 1.208a15.783 15.783 0 011.507 1.917l7.672 11.31-2.406 1.634-7.309-10.772a14.085 14.085 0 00-.911-1.208 4.876 4.876 0 00-.937-.868c-.318-.217-.635-.343-.948-.376-.314-.032-.644.067-.979.296-.738.501-1.162 1.22-1.269 2.153-.104.937.089 2.04.579 3.31l7.179 10.582-2.409 1.631zM1026.96 348.934a9.687 9.687 0 01-.702 1.863 12.11 12.11 0 01-1.18 1.91 15.239 15.239 0 01-1.584 1.791 14.446 14.446 0 01-1.895 1.539c-1.268.859-2.521 1.425-3.757 1.691-1.235.27-2.43.261-3.577-.023-1.149-.285-2.236-.819-3.263-1.604-1.026-.783-1.967-1.811-2.829-3.077-.903-1.332-1.519-2.64-1.854-3.926-.33-1.285-.386-2.515-.16-3.683.224-1.169.706-2.277 1.447-3.321.743-1.042 1.727-1.979 2.951-2.81a12.233 12.233 0 012.866-1.437 6.287 6.287 0 013.189-.244c1.102.193 2.216.733 3.343 1.619 1.123.889 2.243 2.265 3.355 4.131l-12.229 8.296c1.288 1.9 2.764 2.977 4.423 3.221 1.659.249 3.342-.207 5.049-1.363a8.56 8.56 0 001.551-1.354c.467-.518.887-1.041 1.264-1.574a9.985 9.985 0 00.913-1.545c.231-.496.389-.91.471-1.245l2.208 1.145zm-14.903-7.611c-.693.473-1.301.992-1.822 1.561a5.458 5.458 0 00-1.139 1.858 5.021 5.021 0 00-.244 2.155c.074.767.351 1.59.824 2.472l9.82-6.662c-1.05-1.323-2.231-2.102-3.545-2.336-1.312-.236-2.609.081-3.894.952zM1020.798 332.896l3.771-2.558-2.128-3.137 2.029-2.396 2.602 3.832 8.459-5.737 1.438 2.123-8.459 5.738 5.071 7.479c1.046 1.541 2.193 2.429 3.441 2.661s2.568-.123 3.957-1.066c.947-.643 1.652-1.381 2.115-2.219.46-.838.832-1.66 1.114-2.47l2.089 1.313c-.34 1.092-.896 2.165-1.678 3.219a11.437 11.437 0 01-2.788 2.678 9.422 9.422 0 01-2.64 1.26 6.626 6.626 0 01-2.742.217c-.914-.12-1.812-.461-2.684-1.024-.877-.562-1.687-1.393-2.433-2.49l-5.33-7.858-3.771 2.559-1.433-2.124zM1043.086 319.583c.55-1.146 1.316-2.221 2.3-3.227a20.183 20.183 0 013.121-2.626c1.077-.731 2.075-1.16 2.99-1.289.916-.126 1.751-.055 2.508.221a5.566 5.566 0 012.038 1.301 12.332 12.332 0 011.613 1.936 68.171 68.171 0 011.678 2.609 136.03 136.03 0 001.755 2.789 27.591 27.591 0 002.229 2.879l2.123-1.438 1.396 2.06-4.184 2.837-1.896-2.184-.158.107c.002.276-.023.648-.077 1.118a6.489 6.489 0 01-.41 1.55c-.22.564-.554 1.154-1.004 1.769-.451.613-1.079 1.194-1.884 1.739-1.567 1.062-3.08 1.503-4.535 1.317-1.454-.186-2.655-.975-3.603-2.368-.729-1.077-1.101-2.136-1.111-3.178-.01-1.041.3-2.055.934-3.039.634-.982 1.558-1.935 2.773-2.854 1.219-.917 2.69-1.793 4.416-2.624-.555-1.042-1.087-1.862-1.598-2.456-.511-.595-1.027-.991-1.551-1.19-.524-.2-1.077-.22-1.66-.054-.586.165-1.229.484-1.925.958a11.304 11.304 0 00-2.468 2.251 33.332 33.332 0 00-1.771 2.382l-2.039-1.296zm13.352 9.588a5.627 5.627 0 001.453-1.404 5.976 5.976 0 001.132-3.242 5.758 5.758 0 00-.105-1.384l-1.506-2.22c-1.228.558-2.306 1.147-3.234 1.778-.928.631-1.663 1.277-2.202 1.936-.541.66-.857 1.329-.95 2.01-.097.68.088 1.357.547 2.032a3.144 3.144 0 001.948 1.34c.822.196 1.795-.087 2.917-.846zM1070.48 320.754l-2.491-1.08 7.653-15.86-17.637 1.073-.132-2.783 21.103-1.016.621.92-9.117 18.746z"/></g></g><g><path fill="#FFF" d="M580.169 247.555c-.089 27.893-22.771 50.43-50.666 50.34l-271.443-.88c-27.892-.089-50.426-22.775-50.338-50.663l.042-12.625c.092-27.893 22.772-50.429 50.666-50.339l271.445.88c27.893.089 50.428 22.771 50.338 50.663l-.044 12.624z"/><g fill="#F68635"><path d="M274.394 239.903l.006-2.062 33.564-20.339 2.688 4.427-28.289 16.649 28.252 16.492-2.717 4.251-33.504-19.418zM314.241 211.976l11.095.036-.061 18.634.355.001c1.474-1.654 3.185-2.942 5.133-3.859 1.947-.919 4.366-1.374 7.259-1.364 2.276.007 4.254.252 5.936.731 1.681.479 3.054 1.313 4.117 2.502 1.063 1.189 1.851 2.814 2.367 4.879.515 2.064.767 4.687.757 7.862l-.066 20.482-5.619-.019.063-19.416c.007-2.038-.106-3.816-.337-5.335-.232-1.518-.689-2.787-1.37-3.81-.681-1.021-1.612-1.794-2.792-2.32-1.179-.525-2.69-.791-4.533-.797a10.858 10.858 0 00-3.759.664 12.566 12.566 0 00-3.372 1.837 11.602 11.602 0 00-2.632 2.837 10.651 10.651 0 00-1.535 3.658l-.073 22.616-5.477-.019.146-45.02-5.618-.018.016-4.762zM394.103 257.538c-.856.756-1.866 1.464-3.029 2.124a22.285 22.285 0 01-3.811 1.695 27.982 27.982 0 01-4.307 1.087c-1.494.256-3 .382-4.517.377-2.845-.009-5.357-.456-7.535-1.34-2.179-.884-4-2.146-5.464-3.787-1.464-1.641-2.573-3.6-3.323-5.878-.752-2.278-1.123-4.841-1.113-7.686.01-2.987.433-5.64 1.271-7.962.837-2.319 2.041-4.26 3.611-5.819 1.569-1.56 3.469-2.75 5.701-3.573 2.23-.821 4.721-1.229 7.472-1.221 1.991.007 3.957.274 5.9.802 1.942.528 3.658 1.518 5.146 2.969 1.489 1.451 2.631 3.446 3.43 5.984.797 2.54 1.071 5.825.821 9.854l-27.452-.089c-.014 4.268 1.123 7.46 3.41 9.576 2.287 2.118 5.345 3.183 9.175 3.195a15.843 15.843 0 003.796-.45 31.481 31.481 0 003.586-1.091 18.88 18.88 0 003.02-1.413c.876-.518 1.551-.99 2.025-1.415l2.187 4.061zm-14.886-27.287a19.093 19.093 0 00-4.432.483c-1.396.327-2.626.88-3.693 1.659-1.066.778-1.944 1.796-2.632 3.05-.689 1.255-1.131 2.805-1.326 4.654l22.047.071c-.227-3.13-1.224-5.562-2.99-7.3-1.768-1.735-4.091-2.608-6.974-2.617zM406.924 229.274c2.042-1.179 4.346-2.024 6.907-2.539a37.72 37.72 0 017.541-.758c2.418.008 4.396.395 5.935 1.157 1.538.764 2.743 1.751 3.617 2.963.873 1.212 1.461 2.59 1.766 4.131.302 1.543.451 3.096.446 4.66-.006 1.803-.06 3.723-.161 5.76-.102 2.04-.18 4.079-.232 6.116a51.195 51.195 0 00.404 6.758l4.766.016-.016 4.623-9.393-.031-.618-5.336-.356-.001c-.287.426-.717.971-1.29 1.632-.574.662-1.325 1.312-2.253 1.948-.929.636-2.062 1.191-3.395 1.66-1.333.47-2.902.702-4.71.696-3.519-.012-6.299-.92-8.338-2.729s-3.053-4.277-3.043-7.406c.008-2.418.549-4.431 1.624-6.04 1.076-1.607 2.613-2.836 4.614-3.684 2-.847 4.416-1.337 7.246-1.471 2.829-.132 6.003.067 9.521.601.243-2.18.285-3.993.124-5.44-.162-1.446-.539-2.599-1.13-3.453-.593-.854-1.423-1.463-2.492-1.822-1.069-.358-2.39-.541-3.959-.546a20.994 20.994 0 00-6.139.869c-1.953.587-3.691 1.186-5.215 1.797l-1.771-4.131zm10.433 28.695c1.326.005 2.56-.204 3.699-.627 1.14-.424 2.137-.965 2.992-1.626a10.944 10.944 0 002.142-2.163c.571-.78 1-1.525 1.288-2.236l.016-4.979c-2.465-.435-4.74-.655-6.826-.662-2.086-.007-3.888.213-5.407.658-1.52.446-2.707 1.141-3.562 2.087-.856.946-1.287 2.177-1.292 3.693-.005 1.563.523 2.931 1.587 4.096 1.062 1.165 2.85 1.751 5.363 1.759zM466.72 212.47l11.593.037-.121 37.623c-.002.426.02.96.064 1.6.045.642.104 1.316.171 2.028.069.711.149 1.412.242 2.099.093.688.185 1.293.279 1.814l4.765.016-.015 4.623-9.526-.031-.698-5.479-.282-.001c-1.047 1.799-2.602 3.299-4.662 4.501-2.062 1.202-4.438 1.8-7.135 1.791-5.345-.018-9.276-1.535-11.797-4.556-2.521-3.018-3.77-7.703-3.75-14.058.011-2.987.443-5.629 1.303-7.926.858-2.297 2.082-4.213 3.671-5.749 1.59-1.535 3.497-2.702 5.722-3.502 2.225-.798 4.709-1.193 7.452-1.185.992.003 1.879.03 2.659.08a26.34 26.34 0 012.162.22c.662.098 1.289.229 1.88.397.59.168 1.239.348 1.947.54l.033-10.1-5.974-.02.017-4.762zm-4.382 45.858c2.883.009 5.153-.729 6.812-2.219 1.658-1.487 2.8-3.724 3.425-6.709l.053-16.5a10.966 10.966 0 00-3.503-1.576c-1.299-.335-3.011-.508-5.137-.515-3.78-.013-6.762 1.08-8.942 3.278-2.181 2.197-3.278 5.668-3.294 10.408-.006 1.944.165 3.759.514 5.442.35 1.685.937 3.145 1.759 4.38.822 1.236 1.917 2.211 3.284 2.927 1.368.717 3.045 1.077 5.029 1.084zM490.391 259.913l-2.688-4.269 28.359-16.309-28.181-16.833 2.717-4.409 33.432 20.556-.006 2.062-33.633 19.202z"/></g></g><g><path fill="#FFF" d="M1722.674 247.6c-.096 27.893-22.781 50.424-50.678 50.327l-271.442-.945c-27.892-.095-50.42-22.787-50.326-50.675l.046-12.625c.099-27.893 22.783-50.423 50.678-50.326l271.443.945c27.894.095 50.424 22.783 50.326 50.675l-.047 12.624z"/><g fill="#F68635"><path d="M1390.323 239.867l.008-2.062 33.568-20.331 2.687 4.428-28.293 16.644 28.248 16.499-2.717 4.25-33.501-19.428zM1461.97 211.207l4.476 2.007-26.164 58.512-4.474-2.006 26.162-58.513zM1472.847 212.098l11.096.039-.064 18.634.357.001c1.474-1.654 3.185-2.941 5.132-3.858 1.947-.918 4.367-1.373 7.26-1.362 2.276.008 4.255.253 5.938.733 1.68.479 3.053 1.314 4.115 2.503s1.851 2.814 2.365 4.879c.514 2.064.768 4.687.755 7.862l-.071 20.481-5.617-.02.067-19.416c.007-2.038-.106-3.816-.337-5.335-.23-1.518-.688-2.787-1.369-3.811-.682-1.021-1.611-1.794-2.791-2.32-1.181-.525-2.688-.792-4.531-.798a10.849 10.849 0 00-3.761.663 12.55 12.55 0 00-3.372 1.836 11.644 11.644 0 00-2.634 2.836 10.771 10.771 0 00-1.536 3.658l-.078 22.616-5.476-.02.157-45.02-5.619-.02.014-4.761zM1552.7 257.68c-.855.756-1.866 1.463-3.03 2.123a22.251 22.251 0 01-3.812 1.694 27.968 27.968 0 01-4.306 1.086 26.107 26.107 0 01-4.518.376c-2.847-.01-5.356-.457-7.534-1.342-2.18-.884-4-2.147-5.464-3.788-1.464-1.642-2.572-3.601-3.322-5.879-.751-2.278-1.121-4.841-1.11-7.686.01-2.987.436-5.64 1.272-7.962.836-2.319 2.041-4.259 3.61-5.818 1.57-1.559 3.471-2.749 5.703-3.572 2.23-.82 4.722-1.229 7.472-1.219a22.69 22.69 0 015.899.804c1.941.528 3.657 1.519 5.146 2.97 1.486 1.451 2.63 3.447 3.428 5.985.797 2.54 1.07 5.825.819 9.854l-27.452-.096c-.016 4.268 1.12 7.46 3.406 9.577 2.285 2.119 5.345 3.184 9.176 3.197a15.809 15.809 0 003.796-.449 31.436 31.436 0 003.587-1.09 18.794 18.794 0 003.02-1.412c.877-.518 1.553-.99 2.026-1.415l2.188 4.062zm-14.88-27.291a19.102 19.102 0 00-4.433.482c-1.396.327-2.627.879-3.692 1.658-1.065.778-1.944 1.796-2.635 3.05-.688 1.255-1.131 2.804-1.326 4.653l22.047.077c-.227-3.13-1.222-5.563-2.987-7.301-1.767-1.738-4.091-2.61-6.974-2.619zM1565.527 229.418c2.043-1.177 4.347-2.022 6.908-2.536a37.642 37.642 0 017.541-.756c2.418.008 4.396.396 5.934 1.158 1.539.765 2.744 1.752 3.617 2.964.871 1.212 1.461 2.59 1.765 4.131.302 1.543.452 3.097.444 4.661-.006 1.803-.06 3.723-.161 5.759-.104 2.041-.181 4.08-.233 6.117a51.034 51.034 0 00.402 6.758l4.766.017-.017 4.623-9.394-.034-.617-5.336-.355-.001c-.287.426-.717.971-1.29 1.632-.573.662-1.325 1.311-2.254 1.947-.928.637-2.062 1.191-3.394 1.66-1.332.469-2.904.701-4.711.694-3.521-.013-6.299-.921-8.338-2.731-2.037-1.809-3.053-4.277-3.041-7.406.01-2.418.549-4.432 1.626-6.04 1.075-1.607 2.612-2.835 4.613-3.683 2.002-.846 4.417-1.336 7.247-1.469 2.829-.131 6.003.068 9.521.603.243-2.18.285-3.993.125-5.44-.162-1.446-.537-2.599-1.13-3.454-.593-.854-1.423-1.462-2.491-1.822-1.068-.358-2.389-.541-3.959-.547-2.141-.007-4.188.282-6.141.868s-3.689 1.185-5.215 1.795l-1.768-4.132zm10.428 28.698c1.326.005 2.562-.204 3.699-.626 1.14-.424 2.138-.965 2.992-1.626a10.886 10.886 0 002.142-2.162c.571-.78 1.001-1.525 1.286-2.236l.02-4.979c-2.465-.435-4.738-.656-6.824-.663-2.087-.008-3.89.211-5.408.656-1.52.446-2.705 1.141-3.562 2.086-.855.946-1.288 2.177-1.293 3.693-.005 1.564.521 2.931 1.586 4.096 1.061 1.166 2.848 1.752 5.362 1.761zM1625.327 212.629l11.593.04-.13 37.623c-.003.426.019.96.063 1.6.045.642.104 1.316.172 2.028.067.711.147 1.411.242 2.099.09.688.184 1.293.277 1.814l4.766.017-.018 4.623-9.525-.033-.697-5.479-.282-.002c-1.047 1.799-2.603 3.299-4.663 4.5-2.061 1.202-4.439 1.799-7.135 1.789-5.346-.019-9.277-1.537-11.797-4.558-2.521-3.019-3.769-7.704-3.745-14.059.011-2.987.446-5.629 1.305-7.926.859-2.297 2.082-4.212 3.672-5.748 1.591-1.535 3.498-2.701 5.724-3.501 2.228-.798 4.711-1.191 7.453-1.183a43.94 43.94 0 012.658.081c.779.049 1.5.123 2.162.22a14.93 14.93 0 011.879.397c.592.168 1.24.348 1.948.54l.036-10.1-5.975-.021.017-4.761zm-4.391 45.857c2.883.01 5.153-.729 6.812-2.217 1.659-1.487 2.801-3.725 3.426-6.709l.059-16.5c-1.038-.715-2.205-1.24-3.504-1.576s-3.012-.509-5.138-.517c-3.78-.014-6.761 1.079-8.939 3.276-2.183 2.197-3.281 5.667-3.298 10.407-.008 1.944.162 3.759.513 5.442.348 1.685.934 3.145 1.757 4.381.822 1.236 1.917 2.211 3.285 2.928 1.364.716 3.041 1.078 5.027 1.085zM1648.987 260.078l-2.688-4.27 28.364-16.302-28.177-16.84 2.718-4.408 33.427 20.563-.008 2.062-33.636 19.195z"/></g></g></svg>