<svg xmlns="http://www.w3.org/2000/svg" viewBox="0 0 760 793"><path d="M660.92 316.51c-3.75.02-7.44.28-11.07.7-34.57-117.1-143.18-202.3-271.4-201.63-128.22.66-235.95 86.97-269.3 204.42-3.67-.4-7.37-.6-11.08-.58C44.11 319.7.6 363.67.87 417.64c.28 53.97 44.25 97.49 98.21 97.21a97.9 97.9 0 0 0 23.82-3.06C167.04 610.47 266.3 679 381.35 678.42c115.05-.6 213.6-70.16 256.73-169.29a98.08 98.08 0 0 0 23.85 2.81c53.96-.27 97.49-44.25 97.2-98.22-.27-53.97-44.24-97.48-98.21-97.2Zm-280.14 47.43c-100.8 0-182.5-48.18-182.5-107.62 0-59.44 81.7-107.63 182.5-107.63 100.79 0 182.5 48.19 182.5 107.63s-81.71 107.62-182.5 107.62Z"/><path fill="#231f20" d="m48.93 391.54 60.27 64.84"/><path fill="#fff" d="M109.2 458.26c-.52 0-1.02-.21-1.38-.6l-60.27-64.84a1.88 1.88 0 1 1 2.76-2.56l60.27 64.83a1.89 1.89 0 0 1-1.38 3.17Z"/><path fill="#231f20" d="m699.12 388.18-59.6 65.46"/><path fill="#fff" d="M639.52 455.52a1.89 1.89 0 0 1-1.4-3.15l59.6-65.46a1.88 1.88 0 1 1 2.8 2.54l-59.61 65.46a1.9 1.9 0 0 1-1.4.61Z"/><g fill="#fff"><path d="M287.75 427.37a30.86 30.86 0 1 1-61.72.31 30.86 30.86 0 0 1 61.72-.31Z"/><path d="M256.88 458.86a31.4 31.4 0 0 1-31.34-31.18 31.13 31.13 0 0 1 9.07-22.2 31.14 31.14 0 0 1 22.12-9.3h.16a31.4 31.4 0 0 1 31.33 31.18 31.12 31.12 0 0 1-9.06 22.2 31.14 31.14 0 0 1-22.1 9.3Zm.01-61.73h-.16a30.2 30.2 0 0 0-21.45 9.01 30.2 30.2 0 0 0-8.8 21.54 30.46 30.46 0 0 0 30.4 30.24h.17a30.2 30.2 0 0 0 21.44-9.02 30.18 30.18 0 0 0 8.8-21.53 30.46 30.46 0 0 0-30.4-30.24Z"/></g><path fill="#fff" d="M183.17 437.74a1.88 1.88 0 0 1-1.56-2.94 91.83 91.83 0 0 1 75.5-40.3h.47a91.86 91.86 0 0 1 75.44 39.5 1.88 1.88 0 1 1-3.1 2.16 88.19 88.19 0 0 0-72.8-37.89 88.05 88.05 0 0 0-72.4 38.64c-.34.52-.93.83-1.55.83Z"/><g fill="#fff"><path d="M530.2 427.37a30.86 30.86 0 1 1-61.73.31 30.86 30.86 0 0 1 61.73-.31Z"/><path d="M499.32 458.86A31.4 31.4 0 0 1 468 427.68a31.13 31.13 0 0 1 9.06-22.2 31.14 31.14 0 0 1 22.12-9.3h.16a31.4 31.4 0 0 1 31.33 31.18 31.12 31.12 0 0 1-9.06 22.2 31.14 31.14 0 0 1-22.1 9.3Zm.01-61.73h-.16a30.2 30.2 0 0 0-21.45 9.01 30.2 30.2 0 0 0-8.8 21.54 30.46 30.46 0 0 0 30.4 30.24h.17a30.2 30.2 0 0 0 21.44-9.02 30.19 30.19 0 0 0 8.8-21.53 30.46 30.46 0 0 0-30.4-30.24Z"/><path d="M425.6 437.74a1.88 1.88 0 0 1-1.55-2.94 91.83 91.83 0 0 1 75.5-40.3h.47a91.87 91.87 0 0 1 75.45 39.5 1.89 1.89 0 1 1-3.1 2.16 88.1 88.1 0 0 0-72.8-37.89 88.05 88.05 0 0 0-72.4 38.64c-.35.52-.94.83-1.56.83Z"/></g><path fill="#fff" d="M425.5 436.49a1.88 1.88 0 0 1-1.56-2.95 91.82 91.82 0 0 1 75.5-40.29h.49a91.8 91.8 0 0 1 75.43 39.51 1.88 1.88 0 1 1-3.1 2.15 88.04 88.04 0 0 0-72.33-37.9l-.47.01a88.05 88.05 0 0 0-72.4 38.64c-.35.52-.94.83-1.56.83Zm-45.36 46.61a1.89 1.89 0 0 1-1.89-1.87l-.27-54.06a1.89 1.89 0 0 1 3.77-.02l.27 54.06c0 1.04-.83 1.9-1.87 1.9Zm84.19 31.19a84.34 84.34 0 0 1-168.66 0Z"/><path fill="#f68635" d="M415.3 182.24a20.32 20.32 0 0 1-14.43 24.86L295.3 235.15a20.32 20.32 0 0 1-24.86-14.43l-1.3-4.9a20.32 20.32 0 0 1 14.42-24.87l105.57-28.04A20.33 20.33 0 0 1 414 177.32Z"/><path fill="#fff" d="M290.06 237.46a21.97 21.97 0 0 1-21.2-16.32l-1.3-4.9a21.81 21.81 0 0 1 2.23-16.66 21.8 21.8 0 0 1 13.35-10.2l105.57-28.05a21.97 21.97 0 0 1 26.85 15.58l1.31 4.91a21.79 21.79 0 0 1-2.23 16.66 21.8 21.8 0 0 1-13.35 10.2l-105.58 28.04c-1.84.5-3.74.74-5.64.74Zm104.3-73.61c-1.62 0-3.24.21-4.81.63l-105.57 28.05a18.57 18.57 0 0 0-11.38 8.68 18.58 18.58 0 0 0-1.9 14.19l1.31 4.9a18.7 18.7 0 0 0 22.87 13.27l105.58-28.04a18.6 18.6 0 0 0 11.37-8.69 18.56 18.56 0 0 0 1.9-14.18l-1.31-4.91a18.71 18.71 0 0 0-18.06-13.9Z"/><path fill="#231f20" d="m295.7 211.25-.22-.8 10.92-11.42 1.5 1.44-9.25 9.43 12.7 3.45-.6 1.94Zm24.84 2.44-2.45-9.21c-.1-.37-.2-.74-.33-1.1a3.93 3.93 0 0 0-.46-.93 1.6 1.6 0 0 0-.62-.55 1.16 1.16 0 0 0-.82-.05c-.63.16-1.1.56-1.39 1.2a5.4 5.4 0 0 0-.47 2.2l2.53 9.5-2.1.57-3.68-13.83 1.44-.39.86 1.58.11-.03.33-.93c.11-.3.26-.57.44-.81.18-.25.42-.46.7-.65a4.02 4.02 0 0 1 2.04-.57 2.52 2.52 0 0 1 2.4 1.69c.24-.84.56-1.52.98-2.07a3.6 3.6 0 0 1 2.01-1.19c.6-.16 1.13-.19 1.56-.08.43.1.8.3 1.12.63.31.32.58.74.8 1.24.22.5.42 1.08.6 1.72l2.62 9.88-2.1.56-2.5-9.4c-.1-.4-.22-.75-.35-1.08a3.57 3.57 0 0 0-.45-.85 1.54 1.54 0 0 0-.57-.5 1.1 1.1 0 0 0-.77-.03c-.64.17-1.12.57-1.42 1.2-.3.64-.45 1.47-.41 2.49l2.45 9.23-2.1.56Zm23.52-8.11c-.28.41-.6.8-.95 1.14-.39.38-.82.73-1.3 1.06a11.54 11.54 0 0 1-3.28 1.49 8.1 8.1 0 0 1-3.07.27c-.9-.1-1.76-.41-2.52-.9a6.56 6.56 0 0 1-1.9-1.94 9.72 9.72 0 0 1-1.24-2.87 9.48 9.48 0 0 1-.34-3.23c.08-.98.35-1.86.8-2.63a6.29 6.29 0 0 1 1.83-1.99 9.22 9.22 0 0 1 5.15-1.56c.82 0 1.59.2 2.32.62.73.4 1.38 1.06 1.95 1.96.58.9 1.03 2.15 1.36 3.75l-10.68 2.83c.44 1.66 1.21 2.78 2.32 3.37a5.3 5.3 0 0 0 3.9.28c.5-.13.98-.33 1.43-.57.44-.25.87-.51 1.28-.8a7.76 7.76 0 0 0 1.67-1.63Zm-8.64-9.05c-.58.15-1.14.37-1.67.65a3.67 3.67 0 0 0-1.96 2.49 4.85 4.85 0 0 0-.03 1.95l8.57-2.28a4.4 4.4 0 0 0-1.93-2.52 3.85 3.85 0 0 0-2.98-.29Zm8.25-3.79 3.3-.87-.74-2.74 2.03-1.19.89 3.35 7.38-1.97.5 1.86-7.39 1.96 1.73 6.53c.36 1.34.95 2.25 1.77 2.73.83.47 1.85.54 3.06.22.83-.22 1.5-.57 2.04-1.04.53-.48 1-.97 1.4-1.47l1.15 1.44a8.5 8.5 0 0 1-4.6 3.06c-.72.2-1.45.27-2.18.24a4.85 4.85 0 0 1-3.63-1.9 6.48 6.48 0 0 1-1.1-2.37l-1.83-6.86-3.29.88Zm19.01-3.9a9.1 9.1 0 0 1 2.42-1.7c.94-.47 1.9-.83 2.86-1.09.94-.25 1.75-.3 2.42-.17a3.88 3.88 0 0 1 2.84 2.2c.28.56.5 1.15.66 1.76.18.7.36 1.45.54 2.26.17.8.35 1.6.55 2.4a20 20 0 0 0 .86 2.58l1.85-.5.48 1.8-3.65.98-.8-2.01-.14.03a4.73 4.73 0 0 1-1 1.76 5.81 5.81 0 0 1-2.9 1.77 4.9 4.9 0 0 1-3.53-.19 3.77 3.77 0 0 1-1.96-2.56 4.3 4.3 0 0 1 0-2.52c.25-.73.72-1.37 1.4-1.9a8.47 8.47 0 0 1 2.67-1.34c1.09-.35 2.34-.6 3.76-.76a10.2 10.2 0 0 0-.52-2.13 3.02 3.02 0 0 0-.8-1.22c-.32-.27-.7-.42-1.16-.45-.45-.03-.98.04-1.6.2-.82.22-1.59.55-2.29.98a25 25 0 0 0-1.84 1.24Zm7.06 10.06a4.2 4.2 0 0 0 2.36-1.57 4.32 4.32 0 0 0 .88-2.07l-.52-1.93c-1 .09-1.9.24-2.72.45-.81.22-1.49.5-2.03.82-.55.34-.94.73-1.17 1.19-.23.45-.27.98-.12 1.57.17.6.51 1.08 1.05 1.42.53.34 1.3.38 2.27.13Zm11.99-2.47-1.5-1.37 9.32-9.3-12.71-3.6.6-2 15.14 4.5.2.8Z"/><path fill="#f68635" d="M342.8 331.26a20.32 20.32 0 0 1-28.54 3.5l-86.07-67.27a20.32 20.32 0 0 1-3.5-28.53l3.13-4a20.32 20.32 0 0 1 28.53-3.5l86.07 67.27a20.32 20.32 0 0 1 3.5 28.53Z"/><path fill="#fff" d="M326.76 340.7c-4.93 0-9.6-1.61-13.5-4.66l-86.07-67.26a21.98 21.98 0 0 1-3.78-30.82l3.13-4a21.83 21.83 0 0 1 17.31-8.44c4.94 0 9.6 1.61 13.5 4.66l86.08 67.27a21.98 21.98 0 0 1 3.77 30.81l-3.13 4a21.83 21.83 0 0 1-17.3 8.44Zm-82.9-111.92a18.6 18.6 0 0 0-14.75 7.19l-3.13 4a18.72 18.72 0 0 0 3.22 26.24l86.07 67.27a18.5 18.5 0 0 0 11.5 3.96 18.6 18.6 0 0 0 14.74-7.18l3.13-4a18.72 18.72 0 0 0-3.22-26.25l-86.07-67.26a18.5 18.5 0 0 0-11.5-3.97Z"/><path fill="#231f20" d="m247.47 253.43.51-.66 15.7 1.82-.25 2.07-13.1-1.69 4.91 12.22-1.91.68Zm13.04 21.29 5.87-7.51c.25-.32.47-.63.68-.94.2-.31.36-.62.46-.91.1-.3.12-.58.07-.84-.05-.26-.2-.49-.46-.69a2.1 2.1 0 0 0-1.8-.38c-.68.15-1.35.46-2.03.95l-6.06 7.76-1.71-1.34 8.8-11.27 1.18.91-.74 1.64.1.07.94-.3c.3-.09.6-.13.9-.14.31 0 .62.05.94.17a4.06 4.06 0 0 1 1.7 1.28c.18.26.32.54.41.84.1.3.12.63.08.99-.04.36-.17.73-.4 1.1a6.06 6.06 0 0 1 2.24-.46c.69 0 1.4.3 2.16.89.5.38.83.78 1.01 1.19.18.4.24.83.17 1.27-.07.44-.24.9-.5 1.39-.27.48-.61.98-1.02 1.5l-6.3 8.06-1.7-1.34 5.99-7.67c.24-.31.46-.62.65-.92.18-.3.32-.6.4-.87.08-.27.1-.53.05-.76a1.1 1.1 0 0 0-.44-.63 2.14 2.14 0 0 0-1.82-.4c-.69.13-1.43.52-2.22 1.16l-5.89 7.53Zm20.66 13.86a9.06 9.06 0 0 1-3.12-.47 11.49 11.49 0 0 1-3.16-1.72 8.1 8.1 0 0 1-2.06-2.28 5.85 5.85 0 0 1-.8-2.56c-.07-.88.06-1.78.39-2.69a9.7 9.7 0 0 1 1.54-2.71 9.53 9.53 0 0 1 2.37-2.22c.84-.53 1.7-.85 2.58-.96a6.3 6.3 0 0 1 2.7.27 9.13 9.13 0 0 1 4.36 3.17c.48.64.78 1.38.9 2.21.1.83-.02 1.75-.4 2.75-.37 1-1.09 2.12-2.16 3.33l-8.7-6.8c-1.07 1.36-1.5 2.65-1.29 3.89.2 1.23.92 2.33 2.13 3.28.4.31.84.58 1.32.8.47.2.94.38 1.4.53a7.52 7.52 0 0 0 2.3.35Zm2-12.35a7.66 7.66 0 0 0-1.52-.94 3.72 3.72 0 0 0-3.17-.07c-.54.23-1.06.62-1.58 1.16l7 5.46c.7-1.05.98-2.07.85-3.06a3.86 3.86 0 0 0-1.58-2.55Zm8 4.29 2.69 2.1 1.74-2.24 2.17.9-2.13 2.73 6.02 4.7-1.18 1.52-6.02-4.71-4.16 5.32c-.86 1.1-1.23 2.12-1.1 3.06.11.94.67 1.8 1.66 2.57.67.53 1.36.86 2.06 1s1.37.21 2.01.23l-.45 1.78a8.54 8.54 0 0 1-5.22-1.83 7.02 7.02 0 0 1-1.5-1.58 4.86 4.86 0 0 1-.67-4.05c.2-.75.6-1.52 1.21-2.3l4.38-5.6-2.69-2.1Zm14.58 12.8a9.2 9.2 0 0 1 2.82.9c.94.48 1.8 1.02 2.59 1.63.77.6 1.3 1.2 1.6 1.83a3.87 3.87 0 0 1-.04 3.58c-.28.56-.62 1.1-1 1.6l-1.48 1.79c-.54.62-1.06 1.25-1.58 1.88a19.9 19.9 0 0 0-1.54 2.25l1.5 1.18-1.14 1.47-2.98-2.33 1.12-1.85-.11-.09a4.77 4.77 0 0 1-2 .26 5.83 5.83 0 0 1-3.17-1.25 4.92 4.92 0 0 1-1.97-2.92c-.2-1.08.08-2.11.86-3.1a4.32 4.32 0 0 1 2-1.53 4.07 4.07 0 0 1 2.38-.03c.84.23 1.73.67 2.66 1.32a19 19 0 0 1 2.88 2.54c.62-.63 1.08-1.2 1.39-1.7a3 3 0 0 0 .49-1.37c.02-.43-.1-.85-.34-1.2a5.11 5.11 0 0 0-1.13-1.15 8.52 8.52 0 0 0-2.16-1.23c-.7-.27-1.4-.51-2.1-.72Zm-3.76 11.7a4.26 4.26 0 0 0 2.68.94 4.38 4.38 0 0 0 2.18-.55l1.23-1.58a16.36 16.36 0 0 0-2-1.9 7.64 7.64 0 0 0-1.89-1.12c-.6-.23-1.14-.3-1.64-.22-.51.1-.95.38-1.33.86a2.35 2.35 0 0 0-.5 1.7c.05.63.47 1.25 1.27 1.88Zm9.2 8.07.2-2.02 13.04 1.82-4.8-12.31 1.95-.73 5.55 14.78-.51.66Z"/><path fill="#f68635" d="M529.82 263.14c5 10.06.9 22.25-9.16 27.24l-97.84 48.59a20.33 20.33 0 0 1-27.24-9.17l-2.26-4.55a20.32 20.32 0 0 1 9.16-27.24l97.84-48.58a20.3 20.3 0 0 1 27.24 9.16Z"/><path fill="#fff" d="M413.8 342.72c-8.4 0-15.95-4.67-19.68-12.2l-2.26-4.54a21.82 21.82 0 0 1-1.15-16.77 21.8 21.8 0 0 1 11.05-12.66l97.84-48.58a21.74 21.74 0 0 1 9.74-2.3c8.4 0 15.95 4.68 19.68 12.2l2.26 4.55a21.82 21.82 0 0 1 1.15 16.76 21.8 21.8 0 0 1-11.05 12.66l-97.83 48.59a21.74 21.74 0 0 1-9.75 2.29Zm95.54-93.79c-2.9 0-5.68.66-8.3 1.95l-97.83 48.59a18.56 18.56 0 0 0-9.4 10.78c-1.6 4.7-1.25 9.84.97 14.27l2.26 4.56a18.6 18.6 0 0 0 16.76 10.38c2.9 0 5.69-.66 8.3-1.95l97.83-48.59a18.58 18.58 0 0 0 9.41-10.78c1.6-4.7 1.24-9.84-.98-14.27l-2.26-4.55a18.6 18.6 0 0 0-16.76-10.39Z"/><path fill="#231f20" d="m418.54 315.54-.37-.74 8.41-13.37 1.77 1.11-7.18 11.09 13.14.84-.21 2.02Zm24.83-2.57-4.24-8.53c-.17-.35-.35-.69-.55-1.02a3.9 3.9 0 0 0-.63-.81c-.2-.2-.45-.35-.72-.43a1.18 1.18 0 0 0-.82.12c-.58.3-.95.78-1.12 1.45a5.38 5.38 0 0 0-.02 2.25l4.38 8.82-1.94.97-6.37-12.82 1.33-.66 1.16 1.37.1-.05.14-.98c.05-.31.14-.6.27-.88s.32-.54.56-.78a4.05 4.05 0 0 1 1.89-.96 2.51 2.51 0 0 1 1.86.34c.3.18.58.46.83.83.06-.86.24-1.6.54-2.22a3.6 3.6 0 0 1 1.73-1.56 3.25 3.25 0 0 1 1.51-.4c.44.01.87.15 1.23.4.37.25.71.6 1.03 1.05.32.45.63.97.92 1.57l4.55 9.15-1.95.97-4.33-8.72c-.17-.33-.35-.67-.55-.98a3.62 3.62 0 0 0-.6-.74c-.2-.18-.42-.3-.67-.37a1.1 1.1 0 0 0-.76.12c-.6.3-.98.78-1.15 1.46a5.3 5.3 0 0 0 .1 2.51l4.24 8.57Zm21.42-12.65c-.19.46-.42.9-.7 1.31a10.88 10.88 0 0 1-3.98 3.41c-1.03.52-2.01.8-2.95.88a5.82 5.82 0 0 1-2.65-.38 6.57 6.57 0 0 1-2.26-1.52 9.75 9.75 0 0 1-1.78-2.56 9.5 9.5 0 0 1-.98-3.1c-.12-.98-.03-1.9.25-2.74.3-.86.78-1.65 1.4-2.31a9.19 9.19 0 0 1 4.74-2.56 4.7 4.7 0 0 1 2.4.14c.8.25 1.56.77 2.3 1.54.75.77 1.44 1.9 2.08 3.4l-9.9 4.9c.76 1.55 1.75 2.49 2.95 2.84 1.2.35 2.5.18 3.88-.5.46-.23.9-.52 1.29-.85.4-.34.76-.68 1.09-1.04a7.77 7.77 0 0 0 1.3-1.93Zm-10.27-7.13a7.4 7.4 0 0 0-1.5.97 3.72 3.72 0 0 0-1.43 2.84c-.03.57.1 1.2.36 1.9l7.94-3.94a4.39 4.39 0 0 0-2.39-2.09 3.9 3.9 0 0 0-2.98.31Zm7.33-5.37 3.05-1.51-1.26-2.54 1.74-1.57 1.54 3.1 6.85-3.4.85 1.72-6.85 3.4 3 6.05c.63 1.25 1.39 2.02 2.29 2.32.9.3 1.91.16 3.04-.4a4.9 4.9 0 0 0 1.79-1.43c.42-.57.78-1.14 1.07-1.71l1.42 1.18a8.54 8.54 0 0 1-3.9 3.92c-.69.34-1.38.56-2.09.67a4.9 4.9 0 0 1-3.94-1.14 6.63 6.63 0 0 1-1.55-2.1l-3.15-6.36-3.05 1.52Zm17.85-7.62c.52-.79 1.2-1.5 2.02-2.15a15.3 15.3 0 0 1 2.58-1.63 5.4 5.4 0 0 1 2.35-.66 3.85 3.85 0 0 1 3.21 1.59c.39.5.72 1.03 1 1.6.32.64.65 1.34.98 2.1.33.75.67 1.5 1.02 2.24.43.85.88 1.64 1.36 2.36l1.72-.86.83 1.67-3.39 1.68-1.18-1.81-.13.06a4.8 4.8 0 0 1-.63 1.93 5.86 5.86 0 0 1-2.5 2.3 4.9 4.9 0 0 1-3.49.53 3.76 3.76 0 0 1-2.42-2.12 4.3 4.3 0 0 1-.5-2.46c.09-.78.42-1.5.99-2.16a8.56 8.56 0 0 1 2.34-1.84c1-.55 2.17-1.05 3.53-1.5a9.88 9.88 0 0 0-.93-1.97c-.32-.5-.66-.84-1.03-1.04-.37-.2-.8-.28-1.22-.21-.45.06-.96.23-1.52.52a8.5 8.5 0 0 0-2.06 1.42 23.1 23.1 0 0 0-1.55 1.58Zm8.92 8.45a4.5 4.5 0 0 0 2.44-4.22l-.88-1.8c-.9.26-1.75.6-2.58 1-.75.37-1.36.78-1.83 1.21-.46.44-.77.9-.9 1.4-.14.49-.08 1.01.2 1.56.28.56.71.95 1.3 1.18.6.23 1.35.12 2.25-.33Zm11.25-4.82-1.73-1.05 7.26-10.98-13.17-.98.19-2.08 15.73 1.38.37.74Z"/><path fill="#f68635" d="M489.75 193.98a20.32 20.32 0 0 1-5.42 28.23l-90.4 61.32a20.33 20.33 0 0 1-28.23-5.42l-2.85-4.2a20.32 20.32 0 0 1 5.41-28.23l90.4-61.32a20.32 20.32 0 0 1 28.23 5.41Z"/><path fill="#fff" d="M382.55 288.66a22 22 0 0 1-18.2-9.63l-2.85-4.2a21.81 21.81 0 0 1-3.39-16.46 21.8 21.8 0 0 1 9.24-14.04l90.4-61.32a21.94 21.94 0 0 1 30.49 5.84l2.85 4.21a21.8 21.8 0 0 1 3.4 16.46 21.81 21.81 0 0 1-9.24 14.03l-90.4 61.32a21.83 21.83 0 0 1-12.3 3.79Zm87.5-106.18a18.6 18.6 0 0 0-10.47 3.23l-90.4 61.32a18.57 18.57 0 0 0-7.87 11.95c-.94 4.9.09 9.88 2.9 14.01l2.84 4.2a18.7 18.7 0 0 0 25.97 4.99l90.4-61.32a18.58 18.58 0 0 0 7.87-11.96c.95-4.87-.1-9.91-2.9-14.01l-2.84-4.2a18.7 18.7 0 0 0-15.5-8.2Z"/><path fill="#231f20" d="m386.54 260.84-.47-.68 6.54-14.38 1.9.86-5.62 11.95 13.13-.93.06 2.03Zm24.26-5.89-5.35-7.88c-.22-.33-.44-.64-.69-.94a3.96 3.96 0 0 0-.72-.72 1.6 1.6 0 0 0-.78-.32 1.2 1.2 0 0 0-.8.23c-.53.36-.83.9-.9 1.59-.07.69.02 1.43.28 2.22l5.53 8.15-1.8 1.22-8.04-11.84 1.23-.84 1.34 1.2.1-.06v-.99a2.8 2.8 0 0 1 .59-1.75 4.1 4.1 0 0 1 1.74-1.2 2.51 2.51 0 0 1 1.9.08c.32.14.63.38.92.71-.05-.86.03-1.62.24-2.27.22-.66.72-1.25 1.51-1.78.52-.36 1-.56 1.44-.6.44-.05.87.03 1.27.23s.79.5 1.16.9c.38.4.76.88 1.13 1.44l5.74 8.45-1.8 1.22-5.47-8.05c-.2-.32-.44-.62-.68-.9-.2-.25-.44-.47-.7-.65a1.55 1.55 0 0 0-.7-.29 1.1 1.1 0 0 0-.74.23c-.55.37-.87.9-.95 1.6-.08.7.07 1.53.44 2.48l5.36 7.91Zm19.52-15.42c-.12.48-.3.95-.52 1.4-.24.48-.53.95-.88 1.42a11.23 11.23 0 0 1-2.6 2.5 8.12 8.12 0 0 1-2.81 1.26c-.93.2-1.82.2-2.68-.02a6.61 6.61 0 0 1-2.43-1.2 9.77 9.77 0 0 1-2.12-2.3 9.51 9.51 0 0 1-1.38-2.94 6.2 6.2 0 0 1-.12-2.75c.17-.9.54-1.74 1.08-2.48a9.1 9.1 0 0 1 4.35-3.17 4.7 4.7 0 0 1 2.38-.19c.83.15 1.66.55 2.5 1.21.84.67 1.68 1.7 2.51 3.1l-9.14 6.2c.96 1.41 2.06 2.22 3.3 2.4 1.24.19 2.5-.15 3.78-1.02.42-.29.81-.63 1.16-1.01.35-.39.66-.78.94-1.18a7.56 7.56 0 0 0 1.04-2.08Zm-11.14-5.69a7.8 7.8 0 0 0-1.36 1.17 3.73 3.73 0 0 0-1.03 3c.05.57.26 1.19.61 1.85l7.35-4.98a4.4 4.4 0 0 0-2.65-1.75 3.84 3.84 0 0 0-2.92.71Zm6.54-6.3 2.82-1.9-1.6-2.35 1.52-1.8 1.95 2.87 6.32-4.29 1.08 1.59-6.32 4.29 3.79 5.59c.78 1.15 1.64 1.81 2.57 1.99.93.17 1.92-.1 2.96-.8a4.89 4.89 0 0 0 1.58-1.66c.34-.63.62-1.24.83-1.85l1.56.99a8.49 8.49 0 0 1-3.34 4.4 6.5 6.5 0 0 1-1.97.94 4.9 4.9 0 0 1-2.05.17 4.87 4.87 0 0 1-2-.77 6.53 6.53 0 0 1-1.82-1.86l-3.99-5.88-2.81 1.92Zm16.66-9.95a9.1 9.1 0 0 1 1.72-2.41 15.8 15.8 0 0 1 2.33-1.97c.8-.54 1.56-.86 2.24-.96a3.87 3.87 0 0 1 3.4 1.14c.45.44.85.92 1.2 1.44.41.6.83 1.25 1.26 1.95.43.7.86 1.4 1.31 2.1.5.74 1.06 1.46 1.67 2.14l1.58-1.07 1.05 1.54-3.13 2.12-1.42-1.64-.11.09a4.74 4.74 0 0 1-.37 2 5.76 5.76 0 0 1-2.16 2.61 4.9 4.9 0 0 1-3.39.99 3.77 3.77 0 0 1-2.7-1.77c-.54-.8-.81-1.6-.82-2.38 0-.78.22-1.53.7-2.27a8.58 8.58 0 0 1 2.07-2.13c.9-.69 2.01-1.34 3.3-1.97a9.66 9.66 0 0 0-1.2-1.83 3 3 0 0 0-1.15-.9c-.4-.14-.84-.16-1.24-.03-.44.12-.92.36-1.44.72a8.39 8.39 0 0 0-1.85 1.68c-.47.57-.9 1.16-1.32 1.78Zm9.98 7.17a4.24 4.24 0 0 0 1.71-2.27 4.38 4.38 0 0 0 .15-2.24l-1.13-1.66c-.92.42-1.72.86-2.42 1.33-.7.47-1.24.95-1.65 1.45-.4.49-.64.99-.7 1.5-.08.5.06 1.01.4 1.52.36.52.84.85 1.46 1 .62.15 1.34-.07 2.18-.63Zm10.5-6.3-1.86-.8 5.72-11.86-13.18.8-.1-2.08 15.77-.76.47.69Z"/><path fill="#fff" d="M496.92 40.2a31.7 31.7 0 0 1-31.74 31.69l-170.42-.13a31.7 31.7 0 0 1-31.68-31.73V32.1A31.7 31.7 0 0 1 294.82.42l170.42.13a31.7 31.7 0 0 1 31.68 31.73Z"/><path fill="#f68635" d="M304.93 35.88v-1.3l21.04-12.82 1.7 2.77-17.74 10.5 17.76 10.31-1.7 2.68Zm24.97-17.6h6.97l-.01 11.7h.22a9.97 9.97 0 0 1 3.22-2.43c1.22-.58 2.74-.87 4.55-.86 1.43 0 2.68.15 3.73.45 1.06.3 1.92.82 2.6 1.56a7.11 7.11 0 0 1 1.49 3.06c.32 1.3.48 2.94.48 4.93v12.86h-3.53V37.36c0-1.28-.07-2.4-.22-3.35a5.87 5.87 0 0 0-.86-2.39 4.02 4.02 0 0 0-1.76-1.45 7.08 7.08 0 0 0-2.84-.5c-.81 0-1.6.15-2.37.43a7.9 7.9 0 0 0-2.1 1.16 7.26 7.26 0 0 0-2.61 4.08l-.01 14.2h-3.44l.02-28.27h-3.53Zm50.21 28.48a13.4 13.4 0 0 1-4.29 2.41 17.74 17.74 0 0 1-5.53.93 12.6 12.6 0 0 1-4.74-.83 9.11 9.11 0 0 1-3.43-2.37 10.34 10.34 0 0 1-2.1-3.68 15.2 15.2 0 0 1-.7-4.82c0-1.88.25-3.55.78-5a9.68 9.68 0 0 1 2.25-3.66 9.83 9.83 0 0 1 3.58-2.25 14.28 14.28 0 0 1 8.4-.28 7.3 7.3 0 0 1 3.23 1.84 8.95 8.95 0 0 1 2.16 3.76c.5 1.6.68 3.65.53 6.18l-17.23-.01c0 2.68.71 4.68 2.15 6 1.44 1.33 3.36 2 5.77 2 .8 0 1.6-.1 2.38-.29.76-.18 1.51-.41 2.25-.69a11.37 11.37 0 0 0 3.16-1.78Zm-9.38-17.1c-.94-.01-1.87.1-2.79.3-.83.2-1.62.55-2.31 1.05a5.73 5.73 0 0 0-1.65 1.92 7.7 7.7 0 0 0-.83 2.92l13.85.02c-.15-1.97-.78-3.5-1.9-4.58a6 6 0 0 0-4.37-1.64Zm17.39-.66a14.2 14.2 0 0 1 4.33-1.6c1.56-.33 3.15-.5 4.74-.5a8.5 8.5 0 0 1 3.72.72 6.06 6.06 0 0 1 3.4 4.45c.19.97.28 1.94.28 2.92 0 1.2-.03 2.41-.1 3.62-.05 1.28-.1 2.56-.13 3.84 0 1.42.08 2.84.27 4.24h2.99v2.9h-5.9l-.4-3.35h-.22a7.44 7.44 0 0 1-2.22 2.25 8.83 8.83 0 0 1-5.08 1.5c-2.21 0-3.96-.57-5.24-1.7a5.87 5.87 0 0 1-1.93-4.65c0-1.52.34-2.78 1.01-3.8a6.35 6.35 0 0 1 2.9-2.31c1.25-.54 2.77-.85 4.54-.94 1.78-.09 3.77.03 5.98.36.15-1.37.18-2.5.07-3.41a4.7 4.7 0 0 0-.71-2.17 3 3 0 0 0-1.57-1.14 7.95 7.95 0 0 0-2.49-.34c-1.3 0-2.6.19-3.85.56a38.8 38.8 0 0 0-3.27 1.14Zm6.6 18c.79 0 1.57-.13 2.32-.4a7.07 7.07 0 0 0 3.21-2.39c.36-.49.63-.96.8-1.4l.01-3.13a25.1 25.1 0 0 0-4.29-.4c-1.3 0-2.44.13-3.39.42-.95.28-1.7.72-2.23 1.31-.54.6-.8 1.37-.8 2.32a3.6 3.6 0 0 0 1 2.57c.66.73 1.79 1.1 3.36 1.1Zm30.91-28.65h7.28l-.02 23.63a44.94 44.94 0 0 0 .49 4.73h3v2.9h-5.99l-.44-3.44h-.18a7.88 7.88 0 0 1-2.92 2.84 8.66 8.66 0 0 1-4.48 1.13c-3.36 0-5.83-.95-7.41-2.84-1.6-1.89-2.38-4.83-2.38-8.82 0-1.87.27-3.53.8-4.98a9.6 9.6 0 0 1 2.3-3.61c1-.97 2.2-1.7 3.59-2.2 1.4-.51 2.95-.77 4.68-.77a28.33 28.33 0 0 1 3.02.19c.42.06.81.14 1.18.24l1.23.34v-6.34h-3.75Zm-2.68 28.8c1.82 0 3.24-.47 4.28-1.4 1.04-.94 1.75-2.34 2.14-4.22V31.17a6.88 6.88 0 0 0-2.2-.98c-.81-.21-1.89-.32-3.22-.32-2.38 0-4.25.7-5.61 2.07-1.36 1.39-2.05 3.57-2.05 6.54-.01 1.15.1 2.3.33 3.42a7.8 7.8 0 0 0 1.1 2.75 5.5 5.5 0 0 0 2.08 1.83 6.8 6.8 0 0 0 3.15.67Zm17.62.95-1.7-2.67 17.78-10.29-17.71-10.52 1.7-2.77 21.02 12.85V36Z"/><path fill="#fff" d="M496.92 760.7a31.7 31.7 0 0 1-31.68 31.74l-170.42.15a31.7 31.7 0 0 1-31.74-31.68V753a31.7 31.7 0 0 1 31.68-31.74l170.42-.15a31.7 31.7 0 0 1 31.74 31.68Z"/><path fill="#f68635" d="M288.24 756.77v-1.3l21.02-12.86 1.7 2.78-17.72 10.52 17.78 10.28-1.69 2.68Zm44.9-18.2 2.82 1.25-16.27 36.8-2.81-1.24Zm6.84.53h6.96l.01 11.7h.23c.9-1.02 1.99-1.85 3.21-2.44a10.6 10.6 0 0 1 4.56-.87c1.43 0 2.67.14 3.72.44 1.06.3 1.93.81 2.6 1.56a7.1 7.1 0 0 1 1.5 3.06c.32 1.3.49 2.94.49 4.93l.01 12.86h-3.53v-12.19c0-1.28-.08-2.4-.23-3.35a5.85 5.85 0 0 0-.87-2.38 4.02 4.02 0 0 0-1.76-1.45 7.09 7.09 0 0 0-2.85-.5c-.8 0-1.59.15-2.36.43a7.79 7.79 0 0 0-3.75 2.95 6.7 6.7 0 0 0-.96 2.3l.01 14.2h-3.44l-.02-28.26h-3.53Zm50.26 28.4c-.54.48-1.17.93-1.9 1.34a14 14 0 0 1-2.39 1.08 17.49 17.49 0 0 1-5.53.94 12.6 12.6 0 0 1-4.74-.82 9.11 9.11 0 0 1-3.44-2.37 10.31 10.31 0 0 1-2.1-3.68 15.17 15.17 0 0 1-.72-4.82c0-1.87.26-3.54.78-5a9.7 9.7 0 0 1 2.25-3.66 9.85 9.85 0 0 1 3.57-2.26 14.23 14.23 0 0 1 8.4-.3c1.22.33 2.3.94 3.23 1.85.94.9 1.66 2.16 2.17 3.75.51 1.6.69 3.65.54 6.18l-17.23.02c0 2.68.72 4.68 2.16 6 1.44 1.33 3.37 1.99 5.77 1.99.8 0 1.6-.1 2.39-.3.76-.18 1.5-.42 2.24-.7a10.83 10.83 0 0 0 3.17-1.79Zm-9.42-17.09c-.98 0-1.9.1-2.78.31a5.78 5.78 0 0 0-3.96 2.97c-.43.8-.7 1.77-.82 2.93l13.84-.01c-.15-1.96-.78-3.49-1.9-4.58a6.01 6.01 0 0 0-4.38-1.62Zm17.4-.68a14.13 14.13 0 0 1 4.32-1.62c1.56-.32 3.15-.49 4.74-.5a8.4 8.4 0 0 1 3.73.72 6.05 6.05 0 0 1 3.4 4.44c.19.97.28 1.94.28 2.93 0 1.2-.02 2.41-.08 3.62-.06 1.27-.1 2.55-.13 3.83 0 1.42.08 2.84.27 4.24h3v2.9h-5.9l-.4-3.34h-.23a8.06 8.06 0 0 1-2.21 2.26 8.81 8.81 0 0 1-5.08 1.5c-2.22 0-3.96-.57-5.25-1.7a5.87 5.87 0 0 1-1.93-4.64c0-1.52.33-2.78 1-3.8a6.36 6.36 0 0 1 2.9-2.32c1.25-.54 2.76-.85 4.54-.94 1.77-.1 3.77.03 5.98.35.15-1.37.17-2.5.06-3.41a4.7 4.7 0 0 0-.72-2.17c-.37-.53-.9-.91-1.56-1.14a8 8 0 0 0-2.5-.33c-1.34 0-2.62.19-3.85.56-1.22.38-2.3.76-3.27 1.15Zm6.62 17.98c.83 0 1.6-.13 2.32-.4a7.07 7.07 0 0 0 3.21-2.4c.33-.43.6-.9.8-1.4v-3.12a25.1 25.1 0 0 0-4.29-.4c-1.3 0-2.44.14-3.39.43-.95.28-1.7.72-2.23 1.31a3.4 3.4 0 0 0-.8 2.33c0 .98.34 1.83 1 2.56.68.73 1.8 1.1 3.38 1.1Zm30.87-28.7H443l.02 23.62a53.92 53.92 0 0 0 .31 3.6l.19 1.14h2.99v2.9h-5.98l-.45-3.44h-.18a7.88 7.88 0 0 1-2.92 2.84 8.65 8.65 0 0 1-4.47 1.14c-3.36 0-5.83-.93-7.42-2.82-1.59-1.9-2.38-4.83-2.39-8.82 0-1.88.26-3.53.8-4.98a9.61 9.61 0 0 1 2.29-3.62 10 10 0 0 1 3.58-2.21c1.4-.5 2.95-.76 4.68-.76a28.01 28.01 0 0 1 3.03.17c.41.06.8.14 1.18.25l1.22.33v-6.34h-3.76Zm-2.63 28.81c1.8 0 3.23-.47 4.27-1.4 1.04-.95 1.75-2.35 2.13-4.23v-10.36a6.85 6.85 0 0 0-2.21-.98c-.82-.2-1.9-.31-3.23-.3-2.37 0-4.24.69-5.6 2.07-1.37 1.39-2.05 3.57-2.04 6.54 0 1.23.1 2.36.33 3.42s.6 1.97 1.12 2.75c.52.77 1.23 1.4 2.07 1.82a6.8 6.8 0 0 0 3.16.67Zm17.62.92-1.7-2.67 17.76-10.31-17.74-10.5 1.7-2.77 21.04 12.82v1.3Z"/></svg>