<svg xmlns="http://www.w3.org/2000/svg" viewBox="0 0 1080 1080" xml:space="preserve"><path d="M891.68 439.24c-4.7.02-9.32.34-13.86.87-43.27-146.6-179.24-253.25-339.76-252.42-160.52.83-295.39 108.89-337.12 255.92a122.5 122.5 0 0 0-13.88-.73c-67.56.35-122.04 55.4-121.7 122.96.36 67.56 55.4 122.04 122.97 121.7 10.3-.06 20.27-1.4 29.81-3.84C273.4 807.24 397.66 893.05 541.7 892.3c144.02-.74 267.4-87.82 321.38-211.92a122.65 122.65 0 0 0 29.86 3.52c67.56-.35 122.04-55.4 121.7-122.97-.35-67.56-55.4-122.04-122.96-121.7zm-350.7 59.38c-126.18 0-228.47-60.33-228.47-134.74 0-74.41 102.29-134.74 228.47-134.74 126.18 0 228.46 60.33 228.46 134.74 0 74.41-102.28 134.74-228.46 134.74z"/><path fill="#FFF" d="M871.53 616.33a2 2 0 0 1-1.47-3.36l75.45-81.16a2 2 0 1 1 2.93 2.72L873 615.69a2 2 0 0 1-1.46.64zm-663.89-3.43a2 2 0 0 1-1.48-.65l-74.62-81.94a2 2 0 1 1 2.96-2.7l74.61 81.95a2 2 0 0 1-1.47 3.35z"/><g fill="#FFF"><path d="M652.3 578.01a38.65 38.65 0 1 0 77.28.39 38.65 38.65 0 0 0-77.29-.39z"/><path d="M690.94 618.85h-.22A40.69 40.69 0 0 1 650.3 578a40.7 40.7 0 0 1 40.64-40.43h.21a40.7 40.7 0 0 1 40.44 40.85 40.38 40.38 0 0 1-12.05 28.68 40.37 40.37 0 0 1-28.59 11.75zm-36.65-40.83a36.68 36.68 0 0 0 36.45 36.83h.2a36.4 36.4 0 0 0 25.77-10.6 36.4 36.4 0 0 0 10.87-25.85 36.69 36.69 0 0 0-36.46-36.83h-.2a36.69 36.69 0 0 0-36.63 36.45z"/></g><path fill="#FFF" d="M784.6 590.64a2 2 0 0 1-1.67-.87 110.6 110.6 0 0 0-91.5-48.54 110.67 110.67 0 0 0-90.87 47.59 2 2 0 0 1-3.28-2.28 114.66 114.66 0 0 1 94.15-49.3h.6c37.75.2 72.98 19 94.21 50.28a2 2 0 0 1-1.65 3.12z"/><g fill="#FFF"><path d="M351.17 578.01a38.64 38.64 0 1 0 77.29.4 38.64 38.64 0 0 0-77.29-.4z"/><path d="M389.82 618.85h-.22A40.68 40.68 0 0 1 349.17 578l2 .01h-2a40.7 40.7 0 0 1 40.64-40.44h.21a40.39 40.39 0 0 1 28.68 12.05 40.37 40.37 0 0 1 11.76 28.8 40.36 40.36 0 0 1-12.05 28.68 40.39 40.39 0 0 1-28.6 11.75zm-.01-77.28a36.69 36.69 0 0 0-36.64 36.45 36.68 36.68 0 0 0 36.45 36.83 36.34 36.34 0 0 0 25.97-10.6 36.4 36.4 0 0 0 10.87-25.85 36.4 36.4 0 0 0-10.6-25.96A36.42 36.42 0 0 0 390 541.57h-.2z"/><path d="M481.08 590.64a2 2 0 0 1-1.65-.87 110.6 110.6 0 0 0-91.51-48.54 110.65 110.65 0 0 0-90.87 47.59 2 2 0 0 1-3.28-2.28 114.66 114.66 0 0 1 94.15-49.3h.6c37.75.2 72.98 19 94.21 50.28a2 2 0 0 1-1.65 3.12z"/></g><path fill="#FFF" d="M539.83 647.44h-.01a2 2 0 0 1-2-2.01l.35-67.68a2 2 0 0 1 2-1.99h.01a2 2 0 0 1 2 2.01l-.35 67.68a2 2 0 0 1-2 1.99zm105.75 39.39c0 58.3-47.27 105.58-105.58 105.58-58.3 0-105.58-47.27-105.58-105.58h211.16z"/><path fill="#FF8630" d="M590.49 274.76a24.8 24.8 0 0 1-17.6 30.34l-128.86 34.23a24.8 24.8 0 0 1-30.34-17.6l-1.6-6a24.8 24.8 0 0 1 17.61-30.34l128.85-34.23a24.8 24.8 0 0 1 30.34 17.6l1.6 6z"/><path fill="#FFF" d="M437.62 342.17c-4.67 0-9.27-1.23-13.41-3.63a26.63 26.63 0 0 1-12.45-16.3l-1.6-6a26.83 26.83 0 0 1 19.03-32.78l128.85-34.23c14.28-3.8 29 4.74 32.79 19.02l1.59 6a26.63 26.63 0 0 1-2.72 20.33 26.63 26.63 0 0 1-16.3 12.45l-128.86 34.23c-2.29.61-4.61.91-6.92.91zm127.3-89.84c-1.94 0-3.9.24-5.85.76L430.2 287.32a22.83 22.83 0 0 0-16.18 27.9l1.59 6a22.65 22.65 0 0 0 10.6 13.86 22.66 22.66 0 0 0 17.3 2.32l128.85-34.23c5.89-1.57 10.81-5.33 13.87-10.6s3.88-11.41 2.31-17.3l-1.59-6a22.85 22.85 0 0 0-22.05-16.94z"/><path d="M448.18 315.78c-.15-.58-.72-1.01-1.5-1.15l-11.05-1.72 8.76-6.95c.61-.5.89-1.16.73-1.74a1.58 1.58 0 0 0-1.92-1.12c-.28.07-.54.24-.8.42l-10.97 8.91c-.78.65-.8 1.32-.68 1.78.18.68.63 1.05 1.47 1.2l13.98 2.33a6 6 0 0 0 .4.02 1.58 1.58 0 0 0 1.58-1.98zm25.35-13.45c-.58-2.2-1.49-3.75-2.7-4.63-1.21-.9-2.74-1.1-4.52-.63a5.22 5.22 0 0 0-3.72 3.19 5.12 5.12 0 0 0-4.73-.96 4.84 4.84 0 0 0-3.1 2.2c-.36-.75-1.05-1.1-1.84-.89-.48.13-.84.4-1.04.78-.18.37-.2.81-.07 1.32l4.1 15.53c.14.52.42.92.8 1.14.22.13.47.2.73.2.15 0 .3-.02.44-.06.5-.13.85-.4 1.04-.79.19-.36.21-.8.08-1.31l-2.84-10.76a4.3 4.3 0 0 1 0-2.71c.32-.74.95-1.23 1.89-1.48.93-.25 1.72-.13 2.34.36.6.47 1.04 1.26 1.33 2.36l2.85 10.76c.27 1 1.06 1.52 1.97 1.28.48-.13.84-.4 1.04-.79.18-.36.2-.8.07-1.3l-2.84-10.77c-.29-1.1-.3-2 0-2.7.3-.74.92-1.23 1.85-1.48 1.02-.27 1.8-.15 2.4.35.6.5 1.06 1.4 1.41 2.72l2.75 10.4c.27 1 1.06 1.52 1.97 1.28.97-.25 1.4-1.06 1.12-2.1l-2.78-10.51zm24.77 1.02c-.36-.2-.79-.26-1.2-.15-.6.16-.9.54-1.18.87l-.23.27a9.28 9.28 0 0 1-5.08 3.3c-3.61.96-6.8-.53-8.1-3.72l13.85-3.67c1.1-.29 1.56-1.07 1.28-2.14a8.7 8.7 0 0 0-4.37-5.58 10 10 0 0 0-7.22-.68 9.64 9.64 0 0 0-7.06 12.02c1.2 4.53 4.8 7.23 9.22 7.23a12 12 0 0 0 3.08-.42c2.96-.78 5.61-2.42 7.1-4.38.47-.6.85-1.17.62-2.02a1.5 1.5 0 0 0-.72-.93zm-4.37-5.58-11.95 3.16a6.48 6.48 0 0 1 4.86-6.08c.6-.16 1.2-.23 1.8-.23a5.71 5.71 0 0 1 5.29 3.15zm27.63.56c-.53.14-.86.4-1.36.76l-.42.3c-.55.42-1.56.95-2.55 1.22-1.36.35-2.37.22-3.18-.43-.87-.7-1.54-1.98-2.06-3.96l-1.9-7.2.88-.21c2.28-.55 5.74-1.38 6.73-1.64 1.06-.28 1.57-1.04 1.32-1.98-.19-.72-.85-1.36-2.12-1.03l-7.57 2-1.5-5.67c-.27-1-1.08-1.52-2.01-1.27-.49.13-.86.4-1.06.78-.2.37-.23.83-.1 1.33l1.5 5.68-4.38 1.15c-1.27.34-1.52 1.23-1.34 1.94.25.94 1.07 1.35 2.13 1.07.82-.22 2.16-.63 3.35-1l1-.3 1.91 7.23c.77 2.91 1.86 4.84 3.33 5.89.93.66 2.02.99 3.3.99.78 0 1.63-.12 2.56-.37 1.68-.44 3.34-1.3 4.12-1.9.8-.63 1.47-1.28 1.2-2.34a1.42 1.42 0 0 0-1.78-1.04zm22.9-13.81c-1.31-4.97-4.95-6.81-10.53-5.34a14.39 14.39 0 0 0-5.69 2.94c-.62.57-1.22 1.27-1 2.15.25.92 1.07 1.4 1.98 1.15.53-.14 1-.58 1.42-.96l.24-.22a8.97 8.97 0 0 1 3.85-2.05c3.42-.9 5.84.26 6.61 3.2l.21.78a12.38 12.38 0 0 0-6.2.17c-4.66 1.23-7.27 4.53-6.34 8.02a5.45 5.45 0 0 0 3.54 3.75 8.5 8.5 0 0 0 2.95.49c.96 0 1.97-.13 2.99-.4 2.24-.6 4.2-1.64 5.49-2.94.14.35.37.63.65.81.37.23.81.29 1.26.17.96-.26 1.39-1.06 1.12-2.1l-2.55-9.62zm-6.04 10.65a7.74 7.74 0 0 1-4.2.11c-1.04-.32-1.7-.94-1.93-1.8-.48-1.8 1.37-3.65 4.5-4.48a9.74 9.74 0 0 1 2.47-.35c1.92 0 3.31.73 3.66 2.03.48 1.82-1.37 3.67-4.5 4.5zm30.61-17.54c-.11-.45-.47-1.03-1.47-1.2l-13.98-2.34a2.73 2.73 0 0 0-.86.04 1.58 1.58 0 0 0-1.12 1.92c.16.6.72 1.04 1.5 1.15l11.05 1.72-8.75 6.95c-.62.49-.9 1.14-.74 1.75a1.57 1.57 0 0 0 1.92 1.12c.27-.07.52-.24.8-.42l10.97-8.92c.65-.55.87-1.1.68-1.77z"/><path fill="#FF8630" d="M503.42 457.3a24.8 24.8 0 0 1-34.78 4.58l-105.8-81.13a24.8 24.8 0 0 1-4.58-34.78l3.77-4.92a24.8 24.8 0 0 1 34.78-4.58l105.8 81.13a24.8 24.8 0 0 1 4.58 34.77l-3.77 4.93z"/><path fill="#FFF" d="M483.68 469.01a26.6 26.6 0 0 1-16.26-5.54l-105.79-81.13a26.83 26.83 0 0 1-4.96-37.58l3.77-4.92a26.83 26.83 0 0 1 37.58-4.96L503.82 416a26.84 26.84 0 0 1 4.96 37.58L505 458.5a26.62 26.62 0 0 1-21.32 10.5zM381.74 333.35a22.78 22.78 0 0 0-18.12 8.92l-3.77 4.92a22.83 22.83 0 0 0 4.21 31.97l105.8 81.14a22.66 22.66 0 0 0 16.86 4.51c6.04-.8 11.4-3.9 15.11-8.73l3.77-4.92a22.83 22.83 0 0 0-4.21-31.98l-105.8-81.13c-4.13-3.16-9-4.7-13.85-4.7z"/><path d="M384.03 369.66c.37-.48.36-1.19 0-1.9l-5.4-9.8 10.86 2.7c.78.17 1.46-.01 1.83-.49.53-.69.4-1.68-.29-2.2a2.82 2.82 0 0 0-.82-.38l-13.76-3.24c-.99-.23-1.53.17-1.82.54-.43.56-.45 1.14-.05 1.9l6.69 12.5.23.33a1.58 1.58 0 0 0 2.53.04zm26.13 11.85c1.38-1.8 2.06-3.46 2.03-4.96-.04-1.5-.8-2.84-2.27-3.96a5.22 5.22 0 0 0-4.8-1 5.12 5.12 0 0 0-2.13-4.33 4.84 4.84 0 0 0-3.64-1.12c.38-.74.23-1.5-.4-2a1.6 1.6 0 0 0-1.26-.34c-.4.08-.77.33-1.1.74l-9.78 12.74c-.33.43-.48.9-.42 1.33.03.26.13.5.3.7.08.11.18.22.3.31.4.31.84.43 1.26.35.4-.08.77-.33 1.1-.74l6.77-8.83a4.3 4.3 0 0 1 2.16-1.64c.77-.2 1.55-.01 2.32.58.76.6 1.15 1.29 1.14 2.08 0 .75-.36 1.6-1.05 2.5l-6.78 8.81c-.64.83-.56 1.77.18 2.35.4.3.84.42 1.26.34.4-.07.77-.32 1.09-.74l6.78-8.82a4.3 4.3 0 0 1 2.14-1.66c.76-.21 1.53-.02 2.3.57.83.64 1.22 1.33 1.19 2.12-.03.77-.45 1.68-1.3 2.78l-6.55 8.52c-.63.83-.55 1.77.19 2.34.79.61 1.69.46 2.35-.4l6.62-8.62zm14.32 20.24c-.06-.4-.28-.77-.62-1.04-.48-.37-.97-.38-1.4-.4-.11 0-.22 0-.36-.02-2.34-.1-4-.68-5.71-2-2.97-2.28-3.74-5.72-2-8.69l11.36 8.73c.9.69 1.8.58 2.48-.3a8.7 8.7 0 0 0 1.75-6.87 10 10 0 0 0-3.87-6.13 9.64 9.64 0 0 0-13.83 1.75c-2.86 3.71-2.8 8.2-.1 11.72.61.78 1.35 1.52 2.21 2.18 2.43 1.87 5.35 2.96 7.8 2.94.78.01 1.46-.04 1.99-.73.25-.33.36-.74.3-1.14zm1.75-6.87-9.8-7.53a6.48 6.48 0 0 1 7.78.14c.5.38.93.81 1.28 1.28a5.71 5.71 0 0 1 .74 6.11zm16.43 22.22a3.84 3.84 0 0 0-1.44-.6l-.5-.15a8.27 8.27 0 0 1-2.5-1.28c-1.12-.86-1.63-1.74-1.61-2.78.02-1.11.63-2.43 1.87-4.05l4.54-5.9.71.56a548 548 0 0 0 5.41 4.33c.87.67 1.78.61 2.38-.16.45-.59.56-1.5-.49-2.3l-6.2-4.78 3.57-4.65c.64-.83.54-1.78-.22-2.37-.4-.3-.84-.43-1.26-.36-.42.07-.8.32-1.12.73l-3.58 4.66-3.59-2.77c-1.04-.8-1.9-.46-2.35.13-.59.77-.41 1.67.46 2.34.66.51 1.82 1.32 2.83 2.04l.85.6-4.56 5.94c-1.83 2.38-2.7 4.42-2.63 6.23a5.5 5.5 0 0 0 1.23 3.21c.48.62 1.1 1.22 1.86 1.81a12.94 12.94 0 0 0 4.02 2.1c.98.24 1.91.39 2.58-.49.5-.65.4-1.52-.26-2.03zm24.92 9.7c3.13-4.07 2.37-8.07-2.2-11.59a14.4 14.4 0 0 0-5.8-2.71c-.83-.14-1.76-.2-2.31.52-.58.76-.46 1.7.3 2.27.43.33 1.06.44 1.62.53l.32.06c1.47.27 2.73.84 3.98 1.8 2.8 2.15 3.36 4.78 1.5 7.19l-.49.64c-.7-1.68-2.1-3.4-3.92-4.8-3.82-2.94-8.03-3-10.23-.13a5.45 5.45 0 0 0-.8 5.1c.28.9.76 1.8 1.41 2.63.59.76 1.31 1.48 2.14 2.12a12.33 12.33 0 0 0 5.68 2.56 1.7 1.7 0 0 0-.24 1c.04.43.27.82.63 1.1.8.61 1.69.46 2.35-.4l6.06-7.88zm-12.12 1.73a7.74 7.74 0 0 1-2.66-3.26c-.37-1.02-.29-1.92.25-2.62 1.15-1.49 3.74-1.15 6.3.82a9.77 9.77 0 0 1 1.79 1.74c1.17 1.52 1.45 3.07.62 4.14-1.14 1.49-3.74 1.15-6.3-.82zm32.59 13.53c.28-.37.52-1 .05-1.9l-6.7-12.5a2.74 2.74 0 0 0-.54-.66 1.58 1.58 0 0 0-2.21.3c-.39.49-.38 1.2 0 1.89l5.4 9.8-10.86-2.7c-.76-.2-1.45-.01-1.83.49a1.56 1.56 0 0 0 .28 2.2c.22.17.5.27.82.38l13.77 3.24c.83.18 1.39.02 1.82-.54z"/><path fill="#FF8630" d="M681.38 289.1a24.8 24.8 0 0 1-6.6 34.44l-110.34 74.84a24.8 24.8 0 0 1-34.45-6.6l-3.49-5.14a24.8 24.8 0 0 1 6.61-34.45l110.34-74.84a24.8 24.8 0 0 1 34.45 6.61l3.48 5.13z"/><path fill="#FFF" d="M550.57 404.66c-1.7 0-3.4-.16-5.1-.49a26.63 26.63 0 0 1-17.14-11.28l-3.48-5.12a26.84 26.84 0 0 1 7.14-37.23l110.33-74.84a26.84 26.84 0 0 1 37.23 7.14l3.48 5.13a26.62 26.62 0 0 1 4.15 20.1 26.63 26.63 0 0 1-11.28 17.13l-110.34 74.83a26.63 26.63 0 0 1-15 4.63zm106.77-129.58c-4.4 0-8.86 1.28-12.77 3.93l-110.34 74.83a22.83 22.83 0 0 0-6.07 31.68l3.48 5.13a22.65 22.65 0 0 0 14.58 9.6 22.66 22.66 0 0 0 17.1-3.53l110.33-74.83a22.65 22.65 0 0 0 9.6-14.58 22.65 22.65 0 0 0-3.53-17.1l-3.48-5.13a22.8 22.8 0 0 0-18.9-10z"/><path d="M560.58 374.78c-.34-.5-1-.72-1.8-.6l-11 2.03 5.98-9.45c.41-.69.45-1.4.12-1.89a1.58 1.58 0 0 0-2.19-.42c-.23.15-.42.4-.61.66l-7.42 12.04c-.52.86-.32 1.5-.06 1.9.4.58.95.78 1.8.64l13.96-2.41.39-.12a1.58 1.58 0 0 0 .84-2.38zm19.49-21.07c-1.27-1.88-2.64-3.05-4.07-3.48-1.44-.44-2.95-.13-4.48.9a5.22 5.22 0 0 0-2.46 4.24 5.12 5.12 0 0 0-4.78.66 4.84 4.84 0 0 0-2.2 3.1c-.59-.6-1.35-.7-2.03-.24-.41.28-.66.65-.72 1.08-.05.4.07.83.36 1.27l9 13.3c.31.45.7.74 1.14.82.25.05.5.03.75-.06.13-.05.27-.11.4-.2.41-.28.66-.66.72-1.08.05-.41-.07-.84-.36-1.27l-6.24-9.21a4.3 4.3 0 0 1-.88-2.57c.05-.8.48-1.47 1.28-2.02.8-.54 1.59-.68 2.33-.43.72.25 1.4.85 2.04 1.79l6.24 9.21c.58.87 1.5 1.1 2.28.56.42-.28.67-.65.72-1.08.06-.4-.06-.83-.36-1.27l-6.23-9.21a4.31 4.31 0 0 1-.9-2.56c.04-.78.46-1.46 1.26-2 .87-.59 1.65-.74 2.39-.46.73.27 1.45.96 2.23 2.1l6.02 8.9c.59.87 1.5 1.1 2.28.57.83-.56.97-1.46.37-2.35l-6.1-9zm23.72-7.21c-.4-.07-.82.02-1.18.26-.5.34-.68.8-.82 1.2l-.13.34a9.27 9.27 0 0 1-3.7 4.8c-3.1 2.09-6.61 1.73-8.88-.86l11.86-8.02c.94-.64 1.12-1.53.5-2.45a8.7 8.7 0 0 0-5.97-3.82 10 10 0 0 0-7.04 1.74 9.64 9.64 0 0 0-2.7 13.68c2.63 3.88 6.92 5.23 11.1 3.77a12 12 0 0 0 2.76-1.4c2.54-1.72 4.5-4.14 5.26-6.48.25-.73.42-1.39-.07-2.11a1.51 1.51 0 0 0-1-.65zm-5.97-3.82-10.23 6.92a6.48 6.48 0 0 1 2.58-7.34 7 7 0 0 1 1.62-.81 5.7 5.7 0 0 1 6.03 1.23zm26.28-8.58c-.46.3-.7.64-1.04 1.16l-.3.42a8.27 8.27 0 0 1-2 1.98c-1.17.79-2.16 1-3.15.65-1.04-.37-2.1-1.36-3.25-3.05l-4.18-6.17.77-.5c1.98-1.27 4.96-3.19 5.81-3.76.92-.62 1.14-1.5.6-2.3-.42-.62-1.25-1.01-2.34-.28l-6.49 4.4-3.29-4.87c-.58-.86-1.52-1.08-2.31-.54a1.6 1.6 0 0 0-.74 1.09c-.07.42.05.86.34 1.29l3.29 4.86-3.75 2.54c-1.1.74-1.04 1.65-.62 2.27.54.8 1.45.92 2.36.3.7-.47 1.83-1.3 2.83-2.05l.84-.61 4.19 6.2c1.69 2.5 3.35 3.95 5.09 4.46a5.5 5.5 0 0 0 3.44-.15c.74-.26 1.5-.66 2.3-1.2a12.91 12.91 0 0 0 3.26-3.16c.53-.85.96-1.69.35-2.6a1.42 1.42 0 0 0-2.02-.39zm17.05-20.61c-2.88-4.25-6.92-4.8-11.7-1.56a14.38 14.38 0 0 0-4.4 4.65c-.4.75-.74 1.6-.23 2.36.53.79 1.46.96 2.25.43.45-.3.75-.87 1.02-1.37l.15-.29a8.96 8.96 0 0 1 2.96-3.2c2.93-2 5.6-1.7 7.3.83l.45.67c-1.82.13-3.88.91-5.8 2.2-3.99 2.7-5.36 6.68-3.34 9.67a5.45 5.45 0 0 0 4.58 2.37 8.6 8.6 0 0 0 2.95-.51c.91-.32 1.82-.78 2.69-1.36a12.32 12.32 0 0 0 4.21-4.59c.26.29.56.47.89.55.42.1.85 0 1.24-.25.83-.56.96-1.46.36-2.35l-5.58-8.25zm-2.18 12.05a7.75 7.75 0 0 1-3.94 1.5c-1.08.03-1.9-.34-2.4-1.07-1.06-1.55.08-3.9 2.76-5.72.76-.51 1.5-.9 2.22-1.14 1.8-.63 3.36-.4 4.12.7 1.05 1.56-.08 3.92-2.76 5.73zm23.11-26.66c-.27-.39-.79-.82-1.8-.65l-13.96 2.41c-.27.08-.57.16-.8.32a1.56 1.56 0 0 0-.42 2.18c.35.52 1.02.74 1.8.6l11-2.03-5.97 9.45c-.43.66-.48 1.37-.13 1.9a1.56 1.56 0 0 0 1.82.6c.13-.05.25-.1.37-.19.23-.15.41-.4.61-.66l7.42-12.04c.43-.72.45-1.3.06-1.9z"/><path fill="#FF8630" d="M724.38 375.08a24.8 24.8 0 0 1-11.51 33.14l-120 58.1a24.8 24.8 0 0 1-33.13-11.51l-2.7-5.58a24.8 24.8 0 0 1 11.5-33.14l120-58.1a24.8 24.8 0 0 1 33.14 11.51l2.7 5.58z"/><path fill="#FFF" d="M582.08 470.81c-2.96 0-5.94-.5-8.82-1.5a26.62 26.62 0 0 1-15.32-13.63l-2.7-5.58a26.62 26.62 0 0 1-1.2-20.48 26.63 26.63 0 0 1 13.64-15.33l120-58.1a26.84 26.84 0 0 1 35.8 12.44l2.7 5.58a26.62 26.62 0 0 1 1.2 20.48 26.62 26.62 0 0 1-13.64 15.33l-120 58.1a26.7 26.7 0 0 1-11.66 2.7zm117.23-113.3c-3.33 0-6.7.73-9.9 2.28l-119.99 58.1a22.66 22.66 0 0 0-11.6 13.04 22.66 22.66 0 0 0 1.01 17.43l2.7 5.58a22.65 22.65 0 0 0 13.04 11.6c5.76 2 11.94 1.64 17.43-1.02l120-58.1a22.65 22.65 0 0 0 11.6-13.04c2-5.75 1.63-11.94-1.02-17.42l-2.7-5.59a22.84 22.84 0 0 0-20.57-12.86z"/><path d="M592.47 442.41c-.27-.54-.9-.86-1.7-.84l-11.17.42 7.28-8.5c.5-.62.65-1.3.39-1.85a1.58 1.58 0 0 0-2.1-.73c-.26.12-.49.34-.71.56l-9.08 10.84c-.64.78-.53 1.45-.33 1.87.3.64.82.91 1.68.9l14.17-.37.4-.06c.15-.03.3-.07.43-.13a1.58 1.58 0 0 0 .74-2.1zm22.33-18.02c-1-2.04-2.18-3.4-3.53-4.04-1.36-.64-2.9-.56-4.56.25a5.22 5.22 0 0 0-3.05 3.83 5.12 5.12 0 0 0-4.82-.03 4.84 4.84 0 0 0-2.64 2.74c-.48-.66-1.23-.87-1.96-.52-.45.22-.75.55-.87.96-.11.4-.05.84.17 1.3l6.99 14.47c.24.5.58.83 1 .98.24.08.5.1.75.05.14-.03.29-.08.43-.14.45-.22.75-.56.87-.97.11-.4.05-.83-.18-1.3l-4.83-10.02a4.3 4.3 0 0 1-.5-2.67c.15-.78.68-1.39 1.56-1.81.87-.42 1.66-.45 2.36-.1a4.32 4.32 0 0 1 1.76 2.07l4.84 10.02c.45.94 1.33 1.3 2.18.88.45-.22.75-.55.87-.96.11-.4.05-.84-.17-1.3l-4.84-10.03a4.32 4.32 0 0 1-.52-2.66c.15-.77.67-1.38 1.54-1.8.94-.45 1.74-.49 2.42-.1.68.37 1.3 1.15 1.9 2.4l4.68 9.68c.46.94 1.33 1.29 2.18.88.9-.43 1.16-1.3.7-2.27l-4.74-9.8zm24.5-3.71c-.38-.13-.81-.1-1.2.08-.55.27-.78.7-.99 1.08l-.17.31a9.28 9.28 0 0 1-4.36 4.2c-3.37 1.63-6.8.77-8.66-2.12l12.9-6.22c1.02-.5 1.33-1.35.85-2.35a8.7 8.7 0 0 0-5.36-4.65 10 10 0 0 0-7.22.7 9.64 9.64 0 0 0-4.64 13.15c2.03 4.22 6.08 6.18 10.43 5.34a11.9 11.9 0 0 0 2.94-1c2.76-1.32 5.05-3.44 6.13-5.64.36-.69.62-1.31.24-2.1-.18-.37-.5-.65-.89-.78zm-5.34-4.65-11.13 5.38a6.48 6.48 0 0 1 3.62-6.9 7 7 0 0 1 1.71-.57 5.71 5.71 0 0 1 5.8 2.09zm27.23-4.7c-.49.24-.77.55-1.2 1l-.34.39a8.26 8.26 0 0 1-2.28 1.67c-1.26.6-2.28.66-3.2.18-.98-.51-1.9-1.65-2.78-3.49l-3.24-6.7.83-.39c2.14-.97 5.37-2.44 6.3-2.88.99-.48 1.34-1.32.92-2.2-.32-.67-1.1-1.18-2.28-.6l-7.05 3.4-2.56-5.28c-.45-.94-1.34-1.3-2.21-.87-.45.22-.76.55-.89.97-.12.4-.07.86.15 1.32l2.56 5.29-4.08 1.97c-1.19.57-1.27 1.49-.95 2.16.43.87 1.3 1.11 2.3.64a101.73 101.73 0 0 0 4.01-2.11l3.26 6.74c1.3 2.71 2.74 4.4 4.39 5.15a5.5 5.5 0 0 0 3.42.35 9.95 9.95 0 0 0 2.45-.85 12.8 12.8 0 0 0 3.68-2.66c.66-.76 1.2-1.53.73-2.52a1.42 1.42 0 0 0-1.94-.68zm19.86-17.92c-2.24-4.62-6.16-5.74-11.35-3.23a14.3 14.3 0 0 0-5.03 3.96c-.5.68-.96 1.49-.57 2.3.41.86 1.3 1.17 2.16.76.49-.24.87-.76 1.2-1.22l.2-.25a8.97 8.97 0 0 1 3.39-2.75c3.19-1.54 5.78-.86 7.1 1.88l.35.72c-1.81-.13-3.97.35-6.05 1.35-4.34 2.1-6.27 5.83-4.7 9.08a5.45 5.45 0 0 0 4.18 3.01 8.6 8.6 0 0 0 3-.08c.94-.18 1.9-.5 2.85-.96 2.09-1 3.81-2.41 4.84-3.92a1.57 1.57 0 0 0 2.06.6c.9-.44 1.16-1.31.7-2.28l-4.33-8.97zm-3.9 11.61a7.73 7.73 0 0 1-4.12.91c-1.07-.12-1.84-.6-2.22-1.4-.82-1.69.65-3.85 3.56-5.26a9.4 9.4 0 0 1 2.36-.8c1.88-.37 3.39.07 3.97 1.29.82 1.7-.64 3.86-3.56 5.26zm26.71-23.04c-.2-.42-.65-.92-1.67-.9l-14.17.37a2.4 2.4 0 0 0-.84.2 1.58 1.58 0 0 0-.73 2.1c.27.56.9.88 1.7.84l11.17-.41-7.27 8.48c-.52.6-.67 1.3-.4 1.86a1.55 1.55 0 0 0 1.72.86c.13-.02.26-.07.38-.13.25-.12.47-.33.7-.56l9.08-10.84c.54-.66.64-1.24.33-1.87z"/><g fill="#FFF"><path d="M600.5 44.67c-5.25 0-8.78 4.14-8.78 10.3s3.53 10.29 8.79 10.29 8.8-4.14 8.8-10.3-3.54-10.29-8.8-10.29zm-75.45 0a10 10 0 0 0-9.61 7h19.01c-.79-4.04-4.68-7-9.4-7zm37.86 11.1c-4.98 0-8.46 2-8.46 4.87s3.48 4.88 8.46 4.88c4.99 0 8.47-2 8.47-4.88 0-2.87-3.48-4.87-8.47-4.87z"/><path d="M657.24.76 423.08 0a43.57 43.57 0 0 0-43.7 43.42l-.04 10.9a43.56 43.56 0 0 0 43.42 43.7l234.16.76a43.56 43.56 0 0 0 43.7-43.43l.04-10.89A43.56 43.56 0 0 0 657.24.76zm-199.32 57.5c1.18.55 1.88 1.46 1.88 2.45a2.57 2.57 0 0 1-2.57 2.57c-.45 0-.92-.16-1.34-.3l-20.18-9.1c-.84-.4-1.8-1.04-1.8-2.5 0-.77.3-1.82 1.8-2.5l20.1-9.08c.5-.17.97-.33 1.42-.33a2.57 2.57 0 0 1 2.57 2.57c0 .98-.7 1.9-1.86 2.43l-15.77 6.9 15.75 6.9zm41.18 9.24c0 1.72-1.06 2.83-2.7 2.83-1.55 0-2.63-1.17-2.63-2.83V52.94c0-6.83-3.76-8.27-6.9-8.27-3.42 0-7.49 1.45-7.49 8.33v14.5c0 1.72-1.06 2.83-2.7 2.83-1.55 0-2.63-1.17-2.63-2.83V27.87c0-1.72 1.06-2.83 2.7-2.83 1.55 0 2.63 1.17 2.63 2.83v14.47c1.96-1.8 4.73-2.74 8.14-2.74 7.25 0 11.58 4.67 11.58 12.49v15.4zm26.54-2.24c3.35 0 5.93-.86 8.91-2.94.18-.11.32-.22.46-.32a3.5 3.5 0 0 1 2.18-.86 2.5 2.5 0 0 1 2.57 2.5c0 1.42-.81 2.15-1.8 2.88-3.03 2.38-7.72 3.8-12.52 3.8-9.24 0-15.95-6.42-15.95-15.29 0-8.8 6.7-15.43 15.56-15.43 8.61 0 15.1 6.1 15.1 14.19 0 1.8-1.05 2.83-2.89 2.83h-22.23c.7 5.2 4.88 8.64 10.61 8.64zm50.74 2.24c0 1.74-1 2.83-2.63 2.83a2.54 2.54 0 0 1-2.58-2.18c-2.47 1.4-5.8 2.18-9.37 2.18-7.59 0-12.88-3.99-12.88-9.69s5.3-9.68 12.88-9.68c3.54 0 6.85.77 9.31 2.14v-1.07c0-4.68-3.13-7.36-8.6-7.36-2.42 0-4.52.5-6.57 1.55l-.45.23c-.8.42-1.7.9-2.57.9a2.52 2.52 0 0 1-2.63-2.64c0-1.46 1.22-2.3 2.42-2.93 2-1.09 5.82-2.18 9.8-2.18 9.08 0 13.87 4.28 13.87 12.36V67.5zm37.86 0c0 1.66-1.08 2.83-2.63 2.83-1.64 0-2.7-1.11-2.7-2.83v-.38c-2.07 2.06-5.1 3.2-8.6 3.2-8.27 0-14.05-6.31-14.05-15.36 0-9.04 5.78-15.36 14.05-15.36 3.4 0 6.47 1.2 8.6 3.27v-15c0-1.66 1.08-2.83 2.63-2.83 1.64 0 2.7 1.11 2.7 2.83V67.5zm38.02-13.63-20.12 9.08a4.4 4.4 0 0 1-1.41.32 2.57 2.57 0 0 1-2.57-2.56c0-1.03.7-1.94 1.89-2.44l15.74-6.9-15.75-6.9c-1.17-.5-1.88-1.4-1.88-2.43a2.57 2.57 0 0 1 2.57-2.57c.45 0 .93.16 1.34.3l20.18 9.1c1.5.69 1.8 1.74 1.8 2.5 0 1.47-.95 2.11-1.79 2.5zm-68.16 981.75c-4.99 0-8.47 2-8.47 4.87s3.48 4.87 8.47 4.87 8.46-2 8.46-4.87-3.48-4.88-8.46-4.88zm-37.86-11.1a10 10 0 0 0-9.62 7h19.02c-.8-4.04-4.69-7-9.4-7zm75.46 0c-5.26 0-8.8 4.13-8.8 10.29 0 6.16 3.54 10.3 8.8 10.3 5.25 0 8.79-4.14 8.79-10.3 0-6.16-3.54-10.3-8.8-10.3z"/><path d="m657.25 981.98-234.16-.81a43.56 43.56 0 0 0-43.72 43.41l-.03 10.9a43.57 43.57 0 0 0 43.4 43.7l234.17.82a43.56 43.56 0 0 0 43.71-43.41l.05-10.9a43.56 43.56 0 0 0-43.42-43.7zm-216.65 56.13c1.18.55 1.87 1.46 1.87 2.44a2.57 2.57 0 0 1-2.56 2.57c-.46 0-.93-.16-1.35-.3l-20.17-9.1c-.85-.4-1.81-1.03-1.81-2.5 0-.76.31-1.81 1.8-2.5l20.11-9.08c.52-.17.97-.32 1.42-.32a2.57 2.57 0 0 1 2.56 2.56c0 .99-.7 1.9-1.86 2.44l-15.77 6.9 15.76 6.9zm46.16-29.16-31.34 52.68a2.77 2.77 0 0 1-2.33 1.47c-1.51 0-2.57-1.03-2.57-2.5a3 3 0 0 1 .43-1.56l31.34-52.68a2.77 2.77 0 0 1 2.33-1.47c1.51 0 2.57 1.03 2.57 2.5a3 3 0 0 1-.43 1.56zm33.52 38.4c0 1.71-1.06 2.82-2.7 2.82-1.55 0-2.63-1.16-2.63-2.83v-14.55c0-6.84-3.75-8.27-6.9-8.27-3.41 0-7.48 1.44-7.48 8.33v14.5c0 1.71-1.06 2.82-2.7 2.82-1.55 0-2.63-1.16-2.63-2.83v-39.62c0-1.72 1.05-2.83 2.7-2.83 1.54 0 2.63 1.16 2.63 2.83v14.47c1.95-1.8 4.73-2.74 8.14-2.74 7.24 0 11.57 4.67 11.57 12.49v15.4zm26.55-2.25c3.35 0 5.93-.85 8.9-2.93l.47-.32a3.5 3.5 0 0 1 2.18-.86 2.5 2.5 0 0 1 2.57 2.5c0 1.42-.81 2.14-1.8 2.88-3.03 2.38-7.72 3.8-12.52 3.8-9.24 0-15.95-6.43-15.95-15.3 0-8.79 6.69-15.42 15.56-15.42 8.6 0 15.1 6.1 15.1 14.19 0 1.8-1.05 2.82-2.9 2.82h-22.22c.7 5.2 4.87 8.64 10.6 8.64zm50.74 2.24c0 1.75-1.01 2.83-2.64 2.83a2.54 2.54 0 0 1-2.57-2.17c-2.47 1.39-5.8 2.17-9.37 2.17-7.59 0-12.89-3.98-12.89-9.68s5.3-9.68 12.89-9.68c3.54 0 6.85.76 9.31 2.13v-1.07c0-4.67-3.13-7.35-8.6-7.35-2.43 0-4.52.49-6.58 1.55l-.44.23c-.8.42-1.7.9-2.57.9a2.52 2.52 0 0 1-2.64-2.64c0-1.47 1.23-2.31 2.42-2.94 2.01-1.08 5.83-2.17 9.81-2.17 9.07 0 13.86 4.27 13.86 12.36v15.53zm37.86 0c0 1.67-1.09 2.83-2.64 2.83-1.64 0-2.7-1.1-2.7-2.83v-.37c-2.06 2.06-5.09 3.2-8.6 3.2-8.27 0-14.05-6.32-14.05-15.36s5.78-15.36 14.06-15.36c3.4 0 6.47 1.19 8.6 3.26v-15c0-1.66 1.08-2.82 2.63-2.82 1.64 0 2.7 1.1 2.7 2.83v39.62zm38.02-13.62-20.12 9.08c-.49.16-.96.32-1.41.32a2.57 2.57 0 0 1-2.57-2.57c0-1.02.7-1.93 1.88-2.44l15.75-6.9-15.75-6.89c-1.18-.5-1.88-1.42-1.88-2.44a2.57 2.57 0 0 1 2.57-2.56c.44 0 .9.15 1.34.3l20.19 9.1c1.48.68 1.8 1.74 1.8 2.5 0 1.47-.97 2.1-1.8 2.5z"/></g></svg>