<svg xmlns="http://www.w3.org/2000/svg" width="1080" height="1080"><path d="M820.918 459.512c-3.746.02-7.44.273-11.073.701-34.56-117.105-143.174-202.297-271.396-201.636-128.217.664-235.951 86.977-269.291 204.427a98.502 98.502 0 00-11.084-.584c-53.967.278-97.489 44.255-97.21 98.22.281 53.971 44.254 97.49 98.221 97.21a97.863 97.863 0 0023.818-3.061c44.133 98.685 143.399 167.224 258.451 166.633 115.051-.598 213.603-70.158 256.724-169.291a98.054 98.054 0 0023.85 2.812c53.963-.277 97.487-44.254 97.21-98.221-.279-53.968-44.249-97.485-98.22-97.21zm-280.139 47.431c-100.791 0-182.498-48.187-182.498-107.627 0-59.441 81.707-107.629 182.498-107.629s182.5 48.188 182.5 107.629-81.709 107.627-182.5 107.627z"/><path fill="#231F20" d="M208.934 534.542l60.267 64.835"/><path fill="#FFF" d="M269.201 601.262a1.876 1.876 0 01-1.38-.602l-60.268-64.835a1.884 1.884 0 112.76-2.566l60.268 64.835a1.884 1.884 0 01-1.38 3.168z"/><path fill="#231F20" d="M859.119 531.182l-59.602 65.457"/><path fill="#FFF" d="M799.516 598.523a1.885 1.885 0 01-1.393-3.153l59.603-65.457a1.884 1.884 0 112.787 2.537l-59.603 65.457a1.882 1.882 0 01-1.394.616z"/><g fill="#FFF"><path d="M447.754 570.365c.092 17.045-13.664 30.933-30.704 31.022-17.05.09-30.945-13.658-31.034-30.705-.086-17.047 13.668-30.937 30.716-31.022 17.041-.088 30.932 13.654 31.022 30.705z"/><path d="M416.884 601.859c-17.191 0-31.25-13.984-31.339-31.174-.043-8.371 3.178-16.257 9.068-22.206s13.745-9.248 22.116-9.29l.164-.001c17.186 0 31.241 13.984 31.331 31.174.046 8.369-3.174 16.254-9.063 22.204-5.889 5.948-13.74 9.248-22.108 9.292l-.169.001zm.01-61.728h-.16c-8.119.041-15.737 3.241-21.45 9.012-5.714 5.771-8.837 13.419-8.797 21.538.087 16.672 13.724 30.236 30.397 30.236h.163c8.117-.043 15.732-3.244 21.444-9.014 5.713-5.771 8.835-13.419 8.792-21.535-.088-16.673-13.721-30.237-30.389-30.237z"/></g><path fill="#FFF" d="M343.166 580.74a1.886 1.886 0 01-1.558-2.943c17.018-25.07 45.24-40.134 75.498-40.294l.476-.001c30.067 0 58.238 14.742 75.443 39.507a1.885 1.885 0 11-3.096 2.15 88.187 88.187 0 00-72.804-37.887c-29.015.153-56.079 14.599-72.398 38.642a1.882 1.882 0 01-1.561.826z"/><g><g fill="#FFF"><path d="M690.195 570.365c.092 17.045-13.663 30.933-30.704 31.022-17.049.09-30.946-13.658-31.034-30.705-.087-17.047 13.668-30.937 30.715-31.022 17.043-.088 30.932 13.654 31.023 30.705z"/><path d="M659.325 601.859c-17.192 0-31.251-13.984-31.339-31.175-.043-8.37 3.178-16.256 9.068-22.205 5.89-5.949 13.744-9.248 22.115-9.29l.164-.001c17.186 0 31.241 13.984 31.332 31.174.046 8.369-3.174 16.254-9.063 22.204-5.889 5.948-13.74 9.248-22.108 9.292l-.169.001zm.009-61.728h-.16c-8.119.041-15.736 3.241-21.45 9.012-5.713 5.771-8.837 13.419-8.796 21.538.086 16.672 13.723 30.236 30.397 30.236h.163c8.117-.043 15.733-3.244 21.445-9.014 5.712-5.771 8.834-13.419 8.791-21.535-.088-16.673-13.721-30.237-30.39-30.237z"/></g><path fill="#FFF" d="M585.606 580.74a1.886 1.886 0 01-1.558-2.943c17.018-25.07 45.24-40.134 75.498-40.294l.476-.001c30.067 0 58.239 14.742 75.445 39.507a1.885 1.885 0 11-3.096 2.15c-16.587-23.874-43.842-38.056-72.806-37.887-29.015.153-56.079 14.599-72.398 38.642a1.881 1.881 0 01-1.561.826z"/></g><g><path fill="#FFF" d="M585.497 579.487a1.886 1.886 0 01-1.558-2.943c17.023-25.075 45.25-40.138 75.506-40.292l.481-.001c30.077 0 58.243 14.744 75.429 39.513a1.882 1.882 0 01-.474 2.622c-.855.596-2.03.38-2.622-.474-16.481-23.751-43.493-37.893-72.333-37.893l-.462.002c-29.014.147-56.082 14.593-72.406 38.64a1.882 1.882 0 01-1.561.826z"/></g><g><path fill="#FFF" d="M540.139 626.108a1.886 1.886 0 01-1.885-1.875l-.277-54.06a1.886 1.886 0 011.875-1.895c1.007-.021 1.888.835 1.895 1.875l.277 54.06a1.886 1.886 0 01-1.875 1.895h-.01z"/></g><g><path fill="#FFF" d="M624.334 657.287c0 46.577-37.759 84.335-84.334 84.335-46.577 0-84.334-37.758-84.334-84.335h168.668z"/></g><g><path fill="#F68635" d="M575.297 325.242c2.884 10.847-3.574 21.978-14.423 24.858l-105.577 28.046c-10.848 2.882-21.978-3.575-24.859-14.424l-1.305-4.91c-2.881-10.849 3.576-21.979 14.426-24.859l105.574-28.048c10.85-2.88 21.979 3.577 24.861 14.425l1.303 4.912z"/><path fill="#FFF" d="M450.065 380.462c-9.931 0-18.649-6.712-21.202-16.321l-1.305-4.91c-1.505-5.668-.713-11.582 2.229-16.653s7.685-8.693 13.353-10.198l105.574-28.048c1.851-.491 3.75-.74 5.647-.74 9.932 0 18.652 6.711 21.206 16.321l1.303 4.912a21.79 21.79 0 01-2.228 16.651 21.802 21.802 0 01-13.352 10.199l-105.577 28.046a22.017 22.017 0 01-5.648.741zm104.297-73.613a18.76 18.76 0 00-4.812.631l-105.574 28.048a18.57 18.57 0 00-11.371 8.685 18.574 18.574 0 00-1.898 14.183l1.305 4.91c2.174 8.184 9.598 13.899 18.054 13.899 1.616 0 3.235-.213 4.813-.632l105.577-28.046a18.565 18.565 0 0011.37-8.686 18.558 18.558 0 001.896-14.18l-1.303-4.913c-2.174-8.184-9.6-13.899-18.057-13.899z"/><g><path fill="#231F20" d="M455.696 354.245l-.213-.801 10.915-11.415 1.508 1.439-9.251 9.428 12.704 3.455-.611 1.936-15.052-4.042zM480.54 356.692l-2.447-9.212a14.764 14.764 0 00-.338-1.108 3.926 3.926 0 00-.451-.918c-.177-.258-.384-.444-.622-.559s-.514-.13-.826-.047c-.628.166-1.09.566-1.386 1.196-.296.633-.451 1.363-.468 2.197l2.528 9.515-2.103.561-3.675-13.832 1.438-.382.864 1.578.11-.031c.11-.322.221-.635.33-.93.108-.297.253-.566.437-.812.18-.246.414-.462.7-.646.287-.186.67-.342 1.151-.469.275-.074.571-.107.89-.104.316.006.623.063.919.172s.573.288.837.532c.263.246.479.574.646.982.232-.83.559-1.519.977-2.065.418-.545 1.086-.939 2.01-1.185.608-.162 1.128-.192 1.561-.089.432.103.805.313 1.116.635.313.323.58.736.803 1.239.224.504.42 1.078.591 1.723l2.624 9.876-2.103.56-2.499-9.406c-.103-.387-.218-.747-.345-1.078s-.276-.612-.447-.844a1.532 1.532 0 00-.577-.499c-.214-.1-.468-.112-.763-.033-.646.172-1.121.574-1.427 1.207-.304.635-.441 1.461-.407 2.479l2.453 9.239-2.101.558zM504.062 348.58a7.39 7.39 0 01-.956 1.143c-.384.378-.816.73-1.303 1.056-.486.326-1.007.616-1.561.874a10.39 10.39 0 01-1.716.617c-1.106.295-2.13.385-3.068.268a5.828 5.828 0 01-2.521-.9c-.74-.483-1.375-1.128-1.904-1.936-.531-.807-.942-1.763-1.236-2.871-.31-1.161-.422-2.236-.34-3.227.082-.988.348-1.869.795-2.639.447-.771 1.061-1.431 1.842-1.984.781-.553 1.705-.971 2.775-1.256a9.205 9.205 0 012.377-.307c.811.003 1.58.208 2.311.617.73.407 1.383 1.063 1.958 1.967.576.903 1.025 2.151 1.351 3.743l-10.678 2.834c.441 1.661 1.217 2.782 2.326 3.367 1.111.584 2.41.677 3.9.281a6.36 6.36 0 001.428-.571 13.01 13.01 0 001.28-.8 7.69 7.69 0 001.025-.864 5.29 5.29 0 00.639-.764l1.276 1.352zm-8.64-9.047a7.672 7.672 0 00-1.672.651 4.03 4.03 0 00-1.261 1.03 3.682 3.682 0 00-.704 1.459c-.138.561-.146 1.209-.028 1.947l8.575-2.277c-.416-1.191-1.057-2.033-1.927-2.523-.867-.489-1.862-.586-2.983-.287zM503.672 335.741l3.291-.874-.728-2.739 2.024-1.188.888 3.348 7.386-1.964.493 1.854-7.386 1.963 1.733 6.527c.358 1.346.948 2.256 1.772 2.728.825.472 1.843.547 3.056.225.827-.22 1.507-.567 2.039-1.045s.998-.965 1.397-1.468l1.15 1.443c-.51.687-1.168 1.307-1.98 1.857a8.5 8.5 0 01-2.627 1.202 7.037 7.037 0 01-2.173.236 4.958 4.958 0 01-1.99-.523c-.615-.309-1.162-.771-1.641-1.385-.479-.612-.847-1.399-1.101-2.358l-1.822-6.859-3.293.875-.488-1.855zM522.684 331.847c.671-.673 1.478-1.241 2.42-1.709.94-.469 1.893-.829 2.852-1.084.939-.249 1.749-.307 2.428-.17.676.135 1.248.393 1.715.772.466.379.838.854 1.117 1.42.28.568.5 1.154.66 1.765.188.702.367 1.453.541 2.256.174.804.356 1.604.549 2.4.246.923.533 1.784.863 2.584l1.854-.493.478 1.799-3.653.97-.799-2.007-.137.035a7.814 7.814 0 01-.332.771 4.775 4.775 0 01-.672.992 5.801 5.801 0 01-1.146 1c-.468.321-1.055.577-1.758.763-1.367.363-2.545.301-3.525-.188-.981-.489-1.633-1.344-1.957-2.56-.25-.941-.25-1.781 0-2.519.25-.736.719-1.375 1.407-1.913.688-.539 1.575-.982 2.663-1.33 1.085-.347 2.34-.602 3.763-.763-.133-.872-.308-1.581-.521-2.126-.214-.545-.481-.952-.801-1.224s-.705-.42-1.159-.448c-.453-.027-.984.04-1.596.202-.832.221-1.597.548-2.295.98s-1.311.846-1.84 1.243l-1.119-1.418zm7.055 10.058a4.204 4.204 0 001.373-.63c.398-.284.729-.598.992-.945.264-.348.467-.701.606-1.064.141-.363.229-.697.266-1.002l-.514-1.938c-1.003.09-1.911.24-2.722.456-.812.216-1.489.49-2.033.82-.544.333-.933.728-1.167 1.185-.232.456-.271.981-.115 1.569.162.61.51 1.085 1.045 1.427s1.292.382 2.269.122zM541.728 339.432l-1.491-1.376 9.314-9.305-12.711-3.595.595-1.996 15.142 4.491.212.802-11.061 10.979z"/></g></g><g><path fill="#F68635" d="M502.791 474.26c-6.91 8.844-19.684 10.411-28.527 3.5l-86.071-67.266c-8.845-6.913-10.41-19.686-3.498-28.53l3.129-4.002c6.911-8.844 19.685-10.41 28.527-3.499l86.071 67.267c8.844 6.912 10.409 19.684 3.498 28.528l-3.129 4.002z"/><path fill="#FFF" d="M486.764 483.699c-4.937 0-9.605-1.61-13.503-4.656l-86.071-67.266c-9.537-7.454-11.232-21.278-3.778-30.816l3.129-4.002c4.189-5.361 10.499-8.436 17.311-8.436 4.937 0 9.605 1.61 13.503 4.656l86.071 67.267c9.536 7.453 11.231 21.276 3.778 30.814l-3.129 4.002c-4.189 5.362-10.5 8.437-17.311 8.437zm-82.913-111.918c-5.802 0-11.176 2.618-14.744 7.184l-3.129 4.002c-6.348 8.123-4.904 19.896 3.218 26.244l86.071 67.266a18.506 18.506 0 0011.497 3.965c5.803 0 11.177-2.619 14.744-7.185l3.129-4.002c6.347-8.123 4.903-19.895-3.218-26.242l-86.071-67.267a18.508 18.508 0 00-11.497-3.965z"/><g><path fill="#231F20" d="M407.47 396.428l.512-.654 15.689 1.818-.24 2.07-13.101-1.688 4.911 12.216-1.911.681-5.86-14.443zM420.51 417.717l5.869-7.509c.247-.317.473-.63.68-.94.207-.312.359-.614.46-.913.099-.297.122-.575.069-.835-.051-.26-.205-.488-.461-.687-.511-.399-1.109-.528-1.79-.382-.683.145-1.361.463-2.034.952l-6.063 7.758-1.714-1.339 8.812-11.276 1.172.916-.736 1.64.091.071c.326-.108.64-.207.941-.299.302-.091.604-.138.911-.143.305-.003.617.053.938.171.32.117.676.328 1.067.634.225.176.432.393.62.648s.327.533.418.835c.092.303.118.63.081.989-.038.358-.169.728-.395 1.108.804-.316 1.548-.472 2.236-.469.688.006 1.406.3 2.157.889.497.387.834.785 1.014 1.189.178.407.234.832.166 1.275s-.235.905-.503 1.387c-.267.48-.606.985-1.019 1.512l-6.291 8.05-1.713-1.338 5.992-7.668c.246-.316.463-.626.651-.926.186-.302.32-.59.403-.865.082-.275.098-.528.049-.761-.049-.231-.193-.441-.434-.63-.526-.411-1.136-.548-1.825-.408-.688.14-1.431.529-2.221 1.17l-5.888 7.53-1.71-1.336zM441.172 431.576a7.297 7.297 0 01-1.487-.072 9.058 9.058 0 01-1.631-.401 11.448 11.448 0 01-1.636-.717 10.574 10.574 0 01-1.529-.995c-.902-.706-1.59-1.467-2.064-2.286s-.742-1.67-.803-2.551c-.061-.885.071-1.78.396-2.691.321-.909.836-1.813 1.541-2.716.74-.947 1.53-1.688 2.369-2.22.838-.529 1.7-.849 2.583-.957a6.291 6.291 0 012.695.271c.91.288 1.803.774 2.675 1.455a9.133 9.133 0 011.68 1.71c.486.647.788 1.386.903 2.215s-.015 1.745-.387 2.749c-.373 1.004-1.097 2.115-2.171 3.335l-8.705-6.802c-1.057 1.352-1.483 2.647-1.279 3.885.204 1.236.913 2.329 2.129 3.28.404.315.843.58 1.318.794.473.212.943.392 1.408.537.466.146.901.245 1.309.296.406.052.737.067.993.051l-.307 1.83zm2.002-12.348a7.624 7.624 0 00-1.528-.938 4.038 4.038 0 00-1.583-.385 3.73 3.73 0 00-1.591.319c-.528.229-1.051.612-1.569 1.152l6.991 5.464c.699-1.051.983-2.07.851-3.058-.135-.989-.657-1.839-1.571-2.554zM451.174 423.519l2.682 2.097 1.745-2.232 2.17.896-2.132 2.729 6.021 4.704-1.182 1.512-6.021-4.705-4.16 5.322c-.856 1.097-1.226 2.115-1.104 3.058.121.943.676 1.8 1.665 2.573.673.526 1.362.858 2.064.994.701.139 1.371.215 2.012.23l-.455 1.786c-.857.01-1.748-.143-2.677-.456a8.553 8.553 0 01-2.544-1.37 7.017 7.017 0 01-1.501-1.591 4.954 4.954 0 01-.782-1.901c-.124-.679-.088-1.394.113-2.146.2-.752.606-1.518 1.217-2.3l4.371-5.593-2.684-2.098 1.182-1.509zM465.752 436.329a9.12 9.12 0 012.822.897c.941.47 1.803 1.01 2.585 1.621.767.599 1.3 1.21 1.601 1.833.301.621.441 1.233.42 1.833a4.17 4.17 0 01-.46 1.748 9.476 9.476 0 01-1.008 1.593 49.161 49.161 0 01-1.474 1.792c-.533.623-1.062 1.251-1.582 1.886a20.561 20.561 0 00-1.539 2.248l1.511 1.181-1.146 1.466-2.979-2.327 1.121-1.849-.114-.089a7.908 7.908 0 01-.812.201c-.346.068-.744.09-1.197.063a5.862 5.862 0 01-1.489-.31c-.539-.18-1.096-.493-1.67-.941-1.115-.873-1.773-1.849-1.976-2.926-.202-1.078.084-2.113.859-3.105.6-.767 1.27-1.273 2.008-1.52.739-.245 1.531-.257 2.376-.031.845.225 1.733.663 2.666 1.319s1.892 1.503 2.879 2.541c.615-.632 1.076-1.198 1.382-1.698.307-.499.47-.959.493-1.377a1.934 1.934 0 00-.343-1.194c-.251-.378-.627-.762-1.123-1.15a8.524 8.524 0 00-2.167-1.238 24.955 24.955 0 00-2.101-.716l.457-1.751zm-3.765 11.696c.421.328.865.567 1.331.715.467.146.918.22 1.353.221s.84-.052 1.215-.159a4.16 4.16 0 00.96-.393l1.234-1.579a16.334 16.334 0 00-2.008-1.895c-.66-.519-1.287-.892-1.879-1.126-.596-.232-1.143-.305-1.647-.216-.506.09-.947.375-1.323.855a2.354 2.354 0 00-.506 1.693c.051.634.474 1.261 1.27 1.884zM471.192 456.093l.2-2.021 13.039 1.814-4.804-12.306 1.952-.731 5.553 14.784-.512.655-15.428-2.195z"/></g></g><g><path fill="#F68635" d="M689.822 406.14c4.992 10.055.89 22.25-9.164 27.241l-97.838 48.585c-10.055 4.991-22.251.889-27.241-9.165l-2.261-4.551c-4.992-10.053-.89-22.25 9.163-27.24l97.839-48.584c10.054-4.991 22.251-.889 27.242 9.165l2.26 4.549z"/><path fill="#FFF" d="M573.797 485.72c-8.403 0-15.943-4.673-19.677-12.194l-2.261-4.551a21.816 21.816 0 01-1.146-16.763 21.806 21.806 0 0111.043-12.661l97.839-48.584a21.749 21.749 0 019.748-2.295c8.403 0 15.943 4.673 19.678 12.194l2.26 4.549a21.82 21.82 0 011.146 16.764 21.807 21.807 0 01-11.044 12.661l-97.838 48.585a21.749 21.749 0 01-9.748 2.295zm95.547-93.79c-2.895 0-5.687.658-8.299 1.955l-97.839 48.584a18.564 18.564 0 00-9.404 10.782 18.57 18.57 0 00.976 14.274l2.261 4.551c3.18 6.406 9.602 10.386 16.759 10.386 2.894 0 5.687-.658 8.299-1.955l97.838-48.585a18.575 18.575 0 009.405-10.782 18.573 18.573 0 00-.976-14.275l-2.26-4.549c-3.18-6.407-9.603-10.386-16.76-10.386z"/><g><path fill="#231F20" d="M578.539 458.542l-.369-.743 8.415-13.366 1.765 1.108-7.182 11.089 13.138.844-.211 2.02-15.556-.952zM603.371 455.974l-4.238-8.536a15.196 15.196 0 00-.555-1.02 3.87 3.87 0 00-.625-.809 1.64 1.64 0 00-.722-.425c-.257-.063-.528-.024-.819.12-.582.289-.954.773-1.117 1.449-.164.679-.171 1.427-.021 2.246l4.379 8.819-1.948.968-6.365-12.818 1.334-.661 1.16 1.374.103-.053c.044-.34.09-.667.138-.979.048-.31.137-.604.266-.881.127-.276.315-.535.559-.774.243-.238.587-.467 1.032-.688.257-.128.54-.221.853-.279.311-.058.622-.065.935-.016.311.048.619.166.927.354.305.189.582.467.83.834.061-.862.243-1.602.542-2.219.302-.619.878-1.139 1.733-1.564.562-.279 1.067-.411 1.512-.398a2.27 2.27 0 011.221.399c.37.255.715.605 1.034 1.054s.626.973.924 1.571l4.544 9.149-1.947.969-4.33-8.717a10.37 10.37 0 00-.553-.986 3.666 3.666 0 00-.604-.737 1.572 1.572 0 00-.667-.374c-.229-.055-.482-.016-.755.121-.598.297-.981.786-1.156 1.468-.173.684-.141 1.52.096 2.509l4.251 8.562-1.951.968zM624.794 443.323a7.229 7.229 0 01-.707 1.309c-.299.448-.655.88-1.065 1.296a10.874 10.874 0 01-2.913 2.118c-1.025.511-2.01.801-2.952.874-.944.074-1.827-.051-2.65-.38-.821-.325-1.574-.83-2.253-1.515-.682-.685-1.276-1.541-1.785-2.564-.535-1.077-.861-2.109-.978-3.095-.117-.985-.033-1.9.251-2.744a6.27 6.27 0 011.407-2.313c.654-.698 1.478-1.293 2.47-1.785a9.197 9.197 0 012.268-.775 4.713 4.713 0 012.387.142c.798.253 1.568.767 2.312 1.536s1.436 1.903 2.07 3.397l-9.895 4.914c.764 1.539 1.747 2.482 2.952 2.832 1.204.351 2.497.183 3.878-.503a6.426 6.426 0 001.284-.847c.397-.335.761-.681 1.095-1.037.332-.358.608-.708.832-1.054.221-.344.38-.636.474-.874l1.518 1.068zm-10.273-7.138a7.718 7.718 0 00-1.507.972c-.443.369-.788.79-1.031 1.263a3.72 3.72 0 00-.397 1.572c-.022.575.099 1.213.361 1.914l7.946-3.946c-.645-1.086-1.441-1.783-2.39-2.088-.948-.309-1.942-.204-2.982.313zM621.846 430.821l3.051-1.515-1.26-2.538 1.745-1.568 1.54 3.102 6.844-3.399.854 1.719-6.846 3.397 3.005 6.049c.619 1.248 1.38 2.022 2.281 2.32.902.297 1.914.166 3.039-.392.766-.381 1.362-.857 1.79-1.431.424-.574.784-1.147 1.074-1.716l1.415 1.182c-.36.774-.883 1.514-1.566 2.215a8.53 8.53 0 01-2.335 1.703c-.686.34-1.378.562-2.082.667s-1.39.066-2.054-.114c-.666-.182-1.294-.525-1.886-1.029-.593-.507-1.108-1.201-1.55-2.09l-3.158-6.358-3.049 1.515-.852-1.719zM639.697 423.204c.522-.793 1.199-1.511 2.027-2.159a15.319 15.319 0 012.578-1.63c.871-.433 1.653-.65 2.344-.652.691-.003 1.304.134 1.836.414.532.278.993.668 1.379 1.168a9.5 9.5 0 011.001 1.599c.322.648.648 1.348.98 2.101.329.751.669 1.499 1.019 2.242.424.854.877 1.642 1.362 2.359l1.718-.854.826 1.666-3.386 1.682-1.184-1.81-.128.064a7.576 7.576 0 01-.17.82c-.088.341-.24.709-.459 1.106a5.861 5.861 0 01-.923 1.208c-.395.41-.919.777-1.569 1.101-1.27.629-2.433.804-3.493.519-1.06-.283-1.868-.988-2.429-2.115-.434-.874-.602-1.694-.504-2.468.097-.771.43-1.491.996-2.157.568-.664 1.35-1.276 2.342-1.833.994-.558 2.173-1.059 3.535-1.499-.305-.83-.616-1.489-.935-1.981-.319-.491-.661-.837-1.029-1.039a1.92 1.92 0 00-1.225-.206c-.449.063-.958.235-1.521.517a8.486 8.486 0 00-2.055 1.418 25.352 25.352 0 00-1.553 1.587l-1.38-1.168zm8.924 8.446a4.167 4.167 0 001.219-.893 4.5 4.5 0 001.165-2.287c.064-.386.085-.73.06-1.038l-.89-1.795a16.11 16.11 0 00-2.577.993c-.751.372-1.36.777-1.826 1.211-.467.435-.769.897-.908 1.392-.137.494-.07 1.017.201 1.562.281.565.718.96 1.31 1.188.592.228 1.341.119 2.246-.333zM659.873 426.83l-1.737-1.051 7.268-10.979-13.174-.981.185-2.076 15.733 1.375.368.744-8.643 12.968z"/></g></g><g><path fill="#F68635" d="M649.746 336.977c6.302 9.288 3.88 21.926-5.411 28.229l-90.401 61.32c-9.289 6.3-21.928 3.876-28.229-5.412l-2.852-4.205c-6.301-9.288-3.881-21.927 5.411-28.228l90.403-61.321c9.288-6.3 21.927-3.879 28.225 5.411l2.854 4.206z"/><path fill="#FFF" d="M542.545 431.659a21.953 21.953 0 01-18.188-9.632l-2.852-4.205c-3.292-4.853-4.497-10.696-3.394-16.455s4.385-10.743 9.238-14.034l90.403-61.321a21.835 21.835 0 0112.304-3.787 21.943 21.943 0 0118.184 9.632l2.853 4.206a21.802 21.802 0 013.394 16.454 21.813 21.813 0 01-9.238 14.036l-90.401 61.32a21.833 21.833 0 01-12.303 3.786zm87.513-106.177a18.6 18.6 0 00-10.476 3.225l-90.403 61.321c-4.134 2.804-6.928 7.048-7.867 11.952s.087 9.881 2.89 14.014l2.852 4.205a18.697 18.697 0 0015.492 8.202c3.742 0 7.364-1.114 10.475-3.224l90.401-61.32a18.581 18.581 0 007.867-11.954 18.57 18.57 0 00-2.89-14.013l-2.854-4.206a18.691 18.691 0 00-15.487-8.202z"/><g><path fill="#231F20" d="M546.54 403.844l-.466-.688 6.537-14.378 1.898.862-5.621 11.953 13.132-.933.062 2.03-15.542 1.154zM570.802 397.952l-5.352-7.887a14.4 14.4 0 00-.686-.935 3.97 3.97 0 00-.729-.718 1.605 1.605 0 00-.771-.323c-.264-.029-.527.047-.797.229-.537.365-.841.894-.912 1.587-.07.694.023 1.436.284 2.229l5.527 8.147-1.8 1.221-8.034-11.844 1.232-.836 1.335 1.206.095-.066c-.003-.343-.003-.672.003-.988a3.26 3.26 0 01.146-.909c.09-.292.237-.572.448-.842.21-.268.521-.543.931-.821.236-.161.506-.29.807-.391s.609-.147.923-.144c.316.007.639.082.968.228.329.145.641.385.933.716-.054-.863.026-1.621.241-2.273.215-.653.715-1.246 1.506-1.782.521-.354 1.003-.552 1.442-.599.443-.046.865.031 1.266.231.4.201.79.502 1.166.903.375.402.752.879 1.127 1.434l5.735 8.455-1.799 1.222-5.464-8.055a10.32 10.32 0 00-.682-.903 3.612 3.612 0 00-.699-.648 1.543 1.543 0 00-.71-.281c-.234-.024-.479.05-.732.221-.552.374-.868.912-.947 1.61-.079.7.066 1.524.433 2.474l5.366 7.911-1.8 1.221zM590.325 382.532a7.382 7.382 0 01-.524 1.393c-.238.484-.532.959-.883 1.428s-.746.915-1.184 1.339a10.62 10.62 0 01-1.416 1.15c-.948.643-1.884 1.065-2.809 1.267-.924.2-1.816.193-2.675-.02-.86-.213-1.671-.612-2.438-1.198s-1.471-1.354-2.115-2.301c-.675-.996-1.136-1.973-1.385-2.936-.248-.96-.289-1.879-.12-2.753a6.286 6.286 0 011.082-2.482c.556-.779 1.29-1.479 2.207-2.101a9.103 9.103 0 012.142-1.073 4.694 4.694 0 012.385-.182c.824.144 1.657.548 2.499 1.209.84.665 1.678 1.692 2.51 3.089l-9.144 6.201c.963 1.422 2.066 2.226 3.307 2.408 1.24.187 2.498-.154 3.774-1.02a6.33 6.33 0 001.159-1.012c.349-.387.662-.778.944-1.177.281-.397.509-.783.683-1.155a5.27 5.27 0 00.352-.931l1.649.857zm-11.141-5.689c-.52.353-.973.741-1.363 1.166a4.086 4.086 0 00-.851 1.39 3.728 3.728 0 00-.183 1.611c.056.573.262 1.188.617 1.848l7.341-4.98c-.785-.989-1.669-1.571-2.65-1.747s-1.951.06-2.911.712zM585.719 370.542l2.818-1.911-1.59-2.346 1.518-1.79 1.945 2.864 6.322-4.289 1.077 1.587-6.324 4.291 3.791 5.59c.782 1.151 1.64 1.815 2.573 1.989.934.175 1.921-.092 2.959-.797.709-.48 1.235-1.033 1.582-1.659.343-.627.621-1.241.832-1.847l1.562.983c-.254.815-.671 1.618-1.255 2.406a8.5 8.5 0 01-2.084 2.001 6.954 6.954 0 01-1.973.941 4.934 4.934 0 01-2.051.162c-.683-.09-1.353-.345-2.006-.765-.654-.422-1.26-1.042-1.817-1.863l-3.985-5.875-2.818 1.912-1.076-1.584zM602.381 360.589c.412-.855.984-1.66 1.72-2.412s1.513-1.407 2.333-1.963c.805-.547 1.552-.868 2.236-.964.685-.094 1.309-.041 1.875.165a4.193 4.193 0 011.523.972c.45.443.854.926 1.205 1.447.408.601.826 1.25 1.255 1.951.43.701.866 1.395 1.312 2.086a21.084 21.084 0 001.666 2.152l1.588-1.076 1.046 1.539-3.128 2.122-1.418-1.634-.119.082c.002.206-.017.484-.058.836a4.74 4.74 0 01-.307 1.158 5.76 5.76 0 01-.751 1.322c-.337.458-.806.893-1.407 1.299-1.172.796-2.302 1.125-3.39.986s-1.986-.729-2.693-1.771c-.546-.805-.822-1.596-.831-2.374-.007-.778.224-1.537.697-2.272s1.165-1.446 2.073-2.134c.911-.686 2.012-1.34 3.303-1.962-.415-.778-.813-1.392-1.195-1.836-.381-.444-.768-.74-1.158-.89a1.928 1.928 0 00-1.242-.04c-.438.123-.917.362-1.438.717a8.401 8.401 0 00-1.844 1.683 24.406 24.406 0 00-1.326 1.78l-1.527-.969zm9.981 7.168c.441-.3.804-.65 1.087-1.049.283-.4.491-.807.625-1.221s.207-.815.22-1.205a4.19 4.19 0 00-.078-1.033l-1.126-1.659c-.917.416-1.724.857-2.418 1.328-.694.473-1.244.956-1.647 1.448-.403.493-.641.993-.71 1.502-.071.508.065 1.015.408 1.52.354.522.84.855 1.457 1.002s1.344-.066 2.182-.633zM622.861 361.464l-1.863-.807 5.723-11.858-13.185.804-.099-2.081 15.776-.76.464.688-6.816 14.014z"/></g></g><g><path fill="#FFF" d="M656.916 183.203c-.013 17.512-14.219 31.697-31.732 31.685l-170.423-.129c-17.512-.013-31.694-14.22-31.684-31.729l.007-7.928c.014-17.513 14.219-31.697 31.731-31.685l170.425.13c17.511.012 31.695 14.217 31.682 31.729l-.006 7.927z"/><path fill="#F68635" d="M464.928 178.878l.001-1.296 21.042-12.82 1.694 2.773-17.735 10.497 17.765 10.311-1.699 2.674-21.068-12.139zM489.901 161.281l6.966.005-.009 11.699h.224a9.977 9.977 0 013.217-2.431c1.221-.58 2.739-.869 4.555-.867 1.429 0 2.672.15 3.729.448 1.056.299 1.92.821 2.589 1.564.669.745 1.166 1.766 1.493 3.061.326 1.295.488 2.94.487 4.935l-.01 12.859-3.527-.002.009-12.19c.001-1.28-.072-2.396-.219-3.35-.148-.952-.438-1.747-.867-2.389-.43-.64-1.014-1.125-1.756-1.453s-1.689-.492-2.847-.492a6.806 6.806 0 00-2.36.422 7.927 7.927 0 00-2.114 1.159 7.274 7.274 0 00-1.646 1.784c-.461.7-.78 1.467-.959 2.3l-.011 14.199-3.438-.003.021-28.264-3.528-.003.001-2.991zM540.113 189.762c-.535.477-1.169.922-1.898 1.339-.73.416-1.526.773-2.391 1.069-.863.297-1.764.526-2.701.691-.938.162-1.883.243-2.836.242-1.785-.001-3.363-.278-4.732-.83-1.368-.551-2.516-1.341-3.437-2.368s-1.62-2.257-2.096-3.686c-.475-1.43-.712-3.037-.71-4.823.001-1.875.262-3.542.785-5 .521-1.458 1.274-2.679 2.257-3.659.983-.981 2.175-1.732 3.574-2.252 1.399-.521 2.962-.78 4.688-.778 1.251.001 2.485.166 3.707.494 1.219.328 2.299.945 3.235 1.854s1.657 2.16 2.163 3.753c.505 1.593.682 3.654.53 6.184l-17.235-.013c-.002 2.679.717 4.683 2.156 6.008 1.438 1.325 3.359 1.99 5.765 1.992.802 0 1.596-.097 2.383-.289a19.717 19.717 0 002.25-.69 11.764 11.764 0 001.894-.892c.55-.326.973-.624 1.27-.893l1.379 2.547zm-9.387-17.108a11.95 11.95 0 00-2.782.31 6.355 6.355 0 00-2.316 1.048 5.733 5.733 0 00-1.646 1.919c-.432.789-.707 1.763-.827 2.923l13.843.012c-.146-1.965-.776-3.491-1.889-4.579-1.113-1.088-2.574-1.633-4.383-1.633zM548.119 171.997c1.281-.743 2.725-1.278 4.332-1.604a23.712 23.712 0 014.734-.488c1.518.002 2.762.241 3.728.718.967.478 1.726 1.096 2.276 1.854.55.761.921 1.624 1.114 2.59.192.969.289 1.944.288 2.927a78.842 78.842 0 01-.092 3.615c-.062 1.28-.107 2.562-.138 3.841a32.253 32.253 0 00.265 4.243l2.992.002-.003 2.901-5.896-.004-.396-3.35h-.223c-.18.269-.449.61-.808 1.027-.358.416-.83.824-1.412 1.227-.581.4-1.291.751-2.128 1.047-.835.296-1.821.446-2.956.445-2.209-.002-3.956-.569-5.239-1.702-1.283-1.132-1.924-2.68-1.922-4.644.001-1.519.338-2.783 1.01-3.795.673-1.013 1.638-1.785 2.892-2.32 1.255-.535 2.771-.847 4.547-.935s3.77.033 5.979.362c.15-1.369.173-2.508.068-3.416-.103-.907-.341-1.631-.713-2.167-.374-.535-.896-.916-1.568-1.139-.672-.225-1.502-.336-2.486-.337a13.187 13.187 0 00-3.854.556c-1.226.371-2.315.75-3.271 1.136l-1.12-2.59zm6.595 17.999a6.542 6.542 0 002.323-.399 7.064 7.064 0 001.875-1.026 6.786 6.786 0 001.342-1.36c.357-.491.625-.96.805-1.406l.002-3.125c-1.548-.27-2.977-.404-4.286-.405s-2.44.14-3.394.421c-.954.283-1.697.722-2.234 1.315-.535.596-.805 1.37-.805 2.322a3.668 3.668 0 001.002 2.568c.67.729 1.793 1.095 3.37 1.095zM585.635 161.353l7.279.006-.019 23.621c0 .268.015.604.044 1.005a45.07 45.07 0 00.264 2.589c.06.432.119.812.18 1.139l2.991.003-.003 2.902-5.98-.005-.446-3.439h-.178c-.655 1.132-1.629 2.076-2.92 2.834-1.292.758-2.783 1.137-4.477 1.135-3.355-.003-5.828-.948-7.414-2.841-1.587-1.891-2.379-4.831-2.376-8.82.002-1.876.27-3.534.806-4.978.535-1.444 1.301-2.648 2.296-3.615s2.191-1.703 3.587-2.207c1.396-.506 2.955-.758 4.677-.757.623.001 1.18.017 1.67.047.489.03.942.075 1.358.134.416.061.809.143 1.18.247s.779.218 1.224.336l.005-6.341-3.75-.002.002-2.993zm-2.68 28.799c1.811.001 3.235-.468 4.273-1.404 1.039-.937 1.752-2.342 2.14-4.217l.007-10.36a6.88 6.88 0 00-2.201-.984c-.816-.208-1.892-.313-3.226-.315-2.374 0-4.243.69-5.608 2.073s-2.051 3.563-2.053 6.54a16.612 16.612 0 00.33 3.416c.224 1.057.594 1.973 1.111 2.746a5.484 5.484 0 002.068 1.833c.86.447 1.914.671 3.159.672zM600.57 191.103l-1.694-2.675 17.779-10.285-17.719-10.523 1.699-2.771 21.021 12.854-.001 1.295-21.085 12.105z"/><g><path fill="#FFF" d="M656.922 903.705c.017 17.513-14.166 31.721-31.68 31.736l-170.423.151c-17.512.018-31.718-14.169-31.737-31.677l-.004-7.927c-.017-17.513 14.166-31.72 31.678-31.735l170.425-.151c17.514-.017 31.72 14.165 31.736 31.677l.005 7.926z"/><path fill="#F68635" d="M448.242 899.766l-.001-1.295 21.021-12.857 1.698 2.773-17.716 10.525 17.78 10.281-1.694 2.676-21.088-12.103zM493.146 881.574l2.814 1.248-16.266 36.807-2.814-1.247 16.266-36.808zM499.978 882.104l6.966-.006.011 11.699h.224a10.012 10.012 0 013.213-2.438c1.22-.581 2.737-.872 4.553-.873 1.43-.002 2.672.146 3.729.441 1.057.297 1.921.817 2.592 1.562.67.743 1.169 1.763 1.498 3.057.329 1.295.493 2.94.495 4.935l.012 12.859-3.527.003-.011-12.19c-.002-1.279-.077-2.396-.226-3.348-.149-.953-.439-1.748-.87-2.389-.43-.639-1.017-1.123-1.759-1.449s-1.691-.49-2.848-.488c-.801 0-1.587.143-2.358.426a7.934 7.934 0 00-2.112 1.162 7.289 7.289 0 00-1.645 1.788c-.46.7-.777 1.468-.955 2.301l.013 14.199-3.438.003-.025-28.265-3.528.004-.004-2.993zM550.237 910.503c-.536.478-1.169.924-1.897 1.341-.729.418-1.525.775-2.388 1.074s-1.763.529-2.701.694c-.937.163-1.883.247-2.835.247-1.786.002-3.363-.271-4.734-.821-1.369-.55-2.517-1.337-3.439-2.363-.924-1.026-1.625-2.253-2.103-3.682-.478-1.428-.717-3.036-.718-4.821-.002-1.876.256-3.543.777-5.003.518-1.458 1.27-2.68 2.251-3.663.98-.982 2.172-1.734 3.57-2.258 1.398-.521 2.96-.783 4.687-.785 1.251-.001 2.486.16 3.708.487 1.22.327 2.3.942 3.239 1.85.938.907 1.66 2.157 2.168 3.749.508 1.593.688 3.654.541 6.184l-17.236.016c.003 2.68.726 4.682 2.167 6.004 1.44 1.324 3.363 1.984 5.769 1.982.801 0 1.596-.098 2.383-.293a19.747 19.747 0 002.248-.693c.712-.27 1.343-.566 1.893-.895.549-.328.971-.627 1.268-.895l1.382 2.544zm-9.417-17.093c-.98 0-1.907.105-2.781.314a6.35 6.35 0 00-2.314 1.051c-.667.492-1.215 1.133-1.645 1.922-.43.79-.703 1.764-.821 2.925l13.843-.012c-.15-1.964-.782-3.489-1.896-4.575-1.114-1.084-2.576-1.627-4.386-1.625zM558.214 892.725c1.278-.746 2.722-1.283 4.329-1.611a23.576 23.576 0 014.733-.496c1.519-.002 2.761.236 3.729.711.968.476 1.728 1.094 2.279 1.852.551.76.924 1.622 1.118 2.588.193.969.292 1.943.293 2.926a75.859 75.859 0 01-.086 3.616c-.06 1.28-.104 2.562-.131 3.841a32.21 32.21 0 00.271 4.242l2.992-.003.002 2.901-5.896.006-.402-3.35h-.225c-.178.269-.446.612-.805 1.029-.357.416-.828.826-1.409 1.229s-1.291.754-2.126 1.051c-.836.298-1.822.449-2.956.449-2.21.002-3.958-.562-5.242-1.692-1.285-1.129-1.928-2.677-1.93-4.642-.002-1.518.333-2.783 1.004-3.797.671-1.012 1.634-1.787 2.888-2.324 1.253-.537 2.768-.85 4.545-.941 1.776-.092 3.77.026 5.979.352.148-1.369.169-2.508.064-3.415-.105-.907-.345-1.631-.718-2.165-.376-.536-.897-.914-1.569-1.138-.673-.223-1.503-.333-2.488-.333-1.345.002-2.628.189-3.853.562s-2.313.754-3.27 1.142l-1.12-2.59zm6.624 17.988c.833 0 1.607-.135 2.322-.404a7.038 7.038 0 001.874-1.029 6.796 6.796 0 001.338-1.362 6.59 6.59 0 00.803-1.407l-.003-3.125c-1.549-.267-2.977-.4-4.287-.398-1.31.002-2.44.145-3.393.428-.953.283-1.696.723-2.232 1.318-.534.596-.801 1.371-.801 2.324 0 .98.336 1.836 1.007 2.566.671.728 1.794 1.091 3.372 1.089zM595.711 882.018l7.279-.006.021 23.621c0 .268.016.604.045 1.004.03.402.068.827.112 1.273.046.446.098.887.158 1.317.06.432.119.812.18 1.14l2.992-.004.003 2.902-5.98.006-.454-3.438h-.177c-.653 1.132-1.625 2.078-2.916 2.838-1.29.761-2.781 1.142-4.474 1.143-3.356.003-5.829-.938-7.42-2.828-1.589-1.89-2.385-4.827-2.389-8.816-.002-1.876.264-3.534.797-4.979.533-1.444 1.295-2.65 2.289-3.619.994-.968 2.189-1.705 3.584-2.213 1.396-.508 2.953-.762 4.676-.764.623-.001 1.18.015 1.67.043.49.029.942.074 1.358.133.416.061.809.141 1.181.244.371.104.779.216 1.224.335l-.005-6.341-3.75.003-.004-2.994zm-2.632 28.804c1.81-.002 3.233-.473 4.271-1.41 1.037-.939 1.748-2.346 2.132-4.222l-.009-10.359a6.867 6.867 0 00-2.204-.981c-.816-.206-1.892-.311-3.227-.309-2.373.001-4.241.695-5.605 2.08-1.362 1.387-2.043 3.566-2.041 6.544.001 1.222.113 2.358.337 3.415s.596 1.973 1.116 2.746a5.479 5.479 0 002.07 1.828c.86.447 1.914.668 3.16.668zM610.696 911.744l-1.699-2.674 17.763-10.312-17.737-10.495 1.695-2.774 21.042 12.818.001 1.295-21.065 12.142z"/></g></g></svg>