<svg width="63" height="59" viewBox="0 0 63 59" xmlns="http://www.w3.org/2000/svg">
  <path d="M59.85 0C61.5888 0 63 1.34538 63 3.00308V45.0462C63 46.7039 61.5888 48.0492 59.85 48.0492H14.0333L0 58.56V3.00308C0 1.34538 1.4112 0 3.15 0H59.85ZM28.2303 15.3157L26.8223 13.2496C21.1932 15.577 17.325 20.2858 17.325 25.5412C17.325 28.5292 18.1976 30.3731 19.8198 32.0158C20.8404 33.0489 22.4564 33.7846 24.1479 33.7846C27.1908 33.7846 29.6604 31.4302 29.6604 28.5292C29.6604 25.7664 27.4208 23.5411 24.5763 23.2889C24.0723 23.2438 23.5557 23.2528 23.0675 23.3189V23.0426C23.0864 21.7753 23.3573 18.1386 27.6476 15.637L28.2303 15.3157ZM42.5723 13.2496C36.9432 15.577 33.075 20.2858 33.075 25.5412C33.075 28.5292 33.9476 30.3731 35.5698 32.0158C36.5904 33.0489 38.2064 33.7846 39.8979 33.7846C42.9408 33.7846 45.4104 31.4302 45.4104 28.5292C45.4104 25.7664 43.1708 23.5411 40.3263 23.2889C39.8223 23.2438 39.3057 23.2528 38.8175 23.3189C38.8175 22.3789 38.7261 18.0275 43.9803 15.3157L42.5723 13.2496Z" fill="#10F3AF"/>
</svg>
