<svg xmlns="http://www.w3.org/2000/svg" fill="none" viewBox="0 0 138 35">
  <path fill="#000" d="M16.1.672v3.97H5.084V.672H16.1Zm3.471 0V22H14.43V.672h5.141Zm-14.839 0h5.113l-.557 10.84c-.088 1.64-.254 3.056-.498 4.248-.244 1.181-.571 2.177-.981 2.988-.41.8-.904 1.44-1.48 1.919a5.224 5.224 0 0 1-2.007 1.025c-.752.205-1.596.308-2.534.308H.543v-3.955l.557-.059c.449-.049.844-.17 1.186-.366.342-.205.635-.508.879-.908.254-.4.464-.913.63-1.538.166-.625.298-1.382.395-2.27.108-.9.181-1.949.22-3.15L4.732.672Zm36.094 10.24v.863c0 1.631-.23 3.096-.688 4.395-.45 1.289-1.09 2.392-1.92 3.31a8.506 8.506 0 0 1-2.944 2.095c-1.132.479-2.382.718-3.75.718-1.377 0-2.636-.24-3.779-.718a8.654 8.654 0 0 1-2.959-2.095c-.83-.918-1.475-2.021-1.934-3.31-.449-1.299-.673-2.764-.673-4.395v-.864c0-1.63.224-3.096.674-4.394.459-1.3 1.098-2.403 1.919-3.311a8.257 8.257 0 0 1 2.944-2.095C28.858.623 30.118.38 31.496.38c1.366 0 2.616.244 3.75.732a8.226 8.226 0 0 1 2.958 2.095c.83.908 1.475 2.012 1.934 3.31.459 1.3.688 2.764.688 4.395Zm-5.215.863v-.893c0-1.055-.092-1.983-.278-2.783-.176-.81-.44-1.49-.791-2.037s-.786-.957-1.304-1.23c-.507-.283-1.089-.425-1.743-.425-.684 0-1.28.142-1.787.425-.508.273-.933.684-1.274 1.23-.342.547-.601 1.226-.777 2.037-.166.8-.249 1.728-.249 2.783v.893c0 1.045.083 1.973.25 2.784.175.8.434 1.48.776 2.036.351.556.78.976 1.289 1.26.517.283 1.118.424 1.801.424.655 0 1.236-.141 1.744-.425s.932-.703 1.274-1.26c.352-.556.615-1.235.791-2.035.186-.811.278-1.739.278-2.784ZM57.862.672v3.97H48.59V22h-5.127V.672h14.4Zm19.41 10.24v.863c0 1.631-.23 3.096-.689 4.395-.45 1.289-1.089 2.392-1.919 3.31a8.506 8.506 0 0 1-2.944 2.095c-1.133.479-2.383.718-3.75.718-1.377 0-2.637-.24-3.78-.718a8.654 8.654 0 0 1-2.959-2.095c-.83-.918-1.474-2.021-1.933-3.31-.45-1.299-.674-2.764-.674-4.395v-.864c0-1.63.225-3.096.674-4.394.459-1.3 1.098-2.403 1.919-3.311a8.257 8.257 0 0 1 2.944-2.095C65.304.623 66.563.38 67.941.38c1.367 0 2.617.244 3.75.732a8.226 8.226 0 0 1 2.958 2.095c.83.908 1.475 2.012 1.934 3.31.459 1.3.689 2.764.689 4.395Zm-5.215.863v-.893c0-1.055-.093-1.983-.279-2.783-.176-.81-.44-1.49-.79-2.037s-.787-.957-1.304-1.23c-.508-.283-1.09-.425-1.744-.425-.683 0-1.279.142-1.787.425-.508.273-.932.684-1.274 1.23-.342.547-.6 1.226-.777 2.037-.165.8-.248 1.728-.248 2.783v.893c0 1.045.083 1.973.249 2.784.175.8.434 1.48.776 2.036.351.556.781.976 1.289 1.26.517.283 1.118.424 1.802.424.654 0 1.235-.141 1.743-.425s.933-.703 1.274-1.26c.352-.556.616-1.235.791-2.035.186-.811.279-1.739.279-2.784ZM89.005.672V22h-5.142V.672h5.142Zm6.416 0v3.97H77.594V.672H95.42Zm7.031 13.462L110.113.672h5.142V22h-5.142V8.553L102.452 22h-5.141V.672h5.141v13.462ZM136.305.672V22h-5.142V4.642h-7.661V22h-5.127V.672h17.93ZM1.521 30.959l3.142-4.77h.644v5.812h-.644v-4.77l-3.142 4.77H.887V26.19h.634v4.769Zm6.542-4.77h.639l-.097 2.095a7.667 7.667 0 0 1-.188 1.456 4.954 4.954 0 0 1-.36 1.047c-.143.287-.3.528-.473.725a3.43 3.43 0 0 1-.515.489h-.35l.011-.548.162-.005c.103-.126.21-.267.322-.425.114-.16.224-.358.328-.59a4.56 4.56 0 0 0 .268-.87c.075-.348.125-.774.15-1.279l.103-2.095Zm.209 0h3.217v5.812h-.639v-5.21H8.272v-.602Zm-1.8 5.259h5.624v2.261h-.644v-1.708H7.085v1.708h-.612v-2.261Zm9.11.66c-.38 0-.729-.07-1.047-.21a2.503 2.503 0 0 1-.827-.59 2.723 2.723 0 0 1-.543-.902 3.396 3.396 0 0 1-.188-1.15v-.23c0-.448.066-.853.199-1.214.132-.362.315-.672.548-.93.232-.257.497-.454.795-.59.3-.14.615-.21.945-.21.369 0 .696.066.983.199.286.129.526.313.72.553.196.236.345.517.445.843.1.323.15.679.15 1.07v.391h-4.398v-.548h3.76v-.075a2.358 2.358 0 0 0-.2-.913 1.65 1.65 0 0 0-.547-.698c-.243-.18-.548-.269-.913-.269-.272 0-.523.058-.752.172-.226.115-.42.28-.586.494a2.378 2.378 0 0 0-.376.758c-.085.29-.128.612-.128.966v.231c0 .323.046.623.14.903.096.275.232.519.407.73.18.211.39.376.634.494.244.119.512.178.806.178.344 0 .648-.063.913-.188.265-.13.503-.332.714-.607l.403.311a2.453 2.453 0 0 1-.473.516 2.14 2.14 0 0 1-.67.376 2.73 2.73 0 0 1-.914.14Zm7.412-3.319v.548h-3.448v-.548h3.448Zm-3.282-2.6v5.812h-.639V26.19h.64Zm3.776 0v5.812h-.644V26.19h.644Zm3.782 0v5.812h-.64V26.19h.64Zm2.116 0v.548h-4.797v-.548h4.797Zm1.74 4.77 3.142-4.77h.645v5.812h-.645v-4.77l-3.142 4.77h-.634V26.19h.634v4.769Zm9.641-4.77v5.812h-.64V26.19h.64Zm-.22 2.638v.553a4.955 4.955 0 0 1-.57.226c-.21.071-.434.13-.67.177a3.836 3.836 0 0 1-.7.064c-.479 0-.885-.07-1.218-.21a1.47 1.47 0 0 1-.747-.687c-.168-.322-.252-.752-.252-1.289v-1.477h.639v1.477c0 .412.057.738.172.978.114.236.288.404.52.505.233.1.529.15.887.15.247-.007.492-.032.736-.075.243-.047.469-.104.677-.172a3.62 3.62 0 0 0 .526-.22Zm5.908-.038v.548h-3.448v-.548h3.448Zm-3.282-2.6v5.812h-.639V26.19h.64Zm3.776 0v5.812h-.644V26.19h.644Zm2.208 2.106h1.896c.458 0 .845.08 1.16.242.315.157.553.376.714.655.165.28.247.594.247.945 0 .265-.046.512-.14.741a1.588 1.588 0 0 1-.407.591c-.18.168-.402.3-.667.392a2.7 2.7 0 0 1-.907.14h-2.304V26.19h.639v5.258h1.665c.354 0 .64-.061.86-.183.218-.125.375-.286.472-.483a1.367 1.367 0 0 0 0-1.252 1.128 1.128 0 0 0-.473-.489c-.218-.128-.505-.193-.86-.193h-1.895v-.553Zm5.989-2.106v5.812h-.64V26.19h.64Zm2.47 4.77 3.142-4.77h.645v5.812h-.645v-4.77l-3.142 4.77h-.634V26.19h.634v4.769Zm2.551-6.854h.548c0 .269-.062.507-.188.715a1.26 1.26 0 0 1-.531.489 1.806 1.806 0 0 1-.828.177c-.48 0-.859-.13-1.138-.387-.276-.258-.414-.589-.414-.994h.543c0 .247.075.462.225.645.154.179.416.269.784.269.358 0 .615-.092.768-.274a.961.961 0 0 0 .231-.64Zm9.61 4.684v.548h-3.449v-.548h3.448Zm-3.282-2.6v5.812h-.64V26.19h.64Zm3.775 0v5.812h-.644V26.19h.644Zm5.264 4.77v-2.997c0-.276-.057-.514-.172-.714a1.132 1.132 0 0 0-.505-.462c-.222-.108-.496-.162-.821-.162-.301 0-.57.054-.806.162a1.387 1.387 0 0 0-.553.424.948.948 0 0 0-.199.585l-.644-.005c0-.218.053-.43.16-.634.108-.204.26-.387.457-.548a2.25 2.25 0 0 1 .704-.38c.275-.098.578-.146.907-.146.416 0 .781.07 1.096.21.319.14.568.349.747.628.179.28.268.63.268 1.053v2.809c0 .2.015.408.043.623.033.215.077.392.135.531v.065h-.682a2.624 2.624 0 0 1-.103-.483 5.16 5.16 0 0 1-.032-.559Zm.15-2.342.011.494h-1.262c-.33 0-.625.03-.886.092a2.023 2.023 0 0 0-.655.257 1.24 1.24 0 0 0-.414.403c-.093.158-.14.337-.14.537 0 .208.052.398.156.57.108.172.258.31.451.413.197.1.43.15.699.15.358 0 .673-.066.945-.198.276-.133.503-.306.682-.521a1.72 1.72 0 0 0 .36-.704l.28.371a1.865 1.865 0 0 1-.259.553 2.41 2.41 0 0 1-1.176.924c-.265.1-.566.15-.902.15-.38 0-.711-.071-.994-.214a1.653 1.653 0 0 1-.655-.586 1.588 1.588 0 0 1-.231-.849 1.58 1.58 0 0 1 .709-1.348c.233-.16.512-.283.838-.365.33-.086.698-.129 1.106-.129h1.338Zm4.18-2.428v5.812h-.64V26.19h.64Zm2.115 0v.548h-4.796v-.548h4.796Zm2.853 5.232 1.81-5.231h.693l-2.46 6.745c-.05.133-.115.28-.194.441a2.043 2.043 0 0 1-.3.462 1.42 1.42 0 0 1-1.133.51c-.069 0-.157-.009-.264-.027a1.586 1.586 0 0 1-.226-.043l-.005-.542a1.932 1.932 0 0 0 .328.038c.232 0 .428-.04.585-.119.161-.078.295-.197.403-.354.107-.154.202-.347.285-.58l.478-1.3ZM83.14 26.19l1.853 4.99.172.67-.468.264-2.256-5.924h.699Zm5.833 1.117v6.928h-.645V26.19h.602l.043 1.118Zm4.039 1.735v.112c0 .434-.05.831-.15 1.193-.1.361-.246.675-.436.94a1.941 1.941 0 0 1-.693.607 2.009 2.009 0 0 1-.94.214c-.347 0-.657-.053-.929-.16a2.043 2.043 0 0 1-.703-.457 2.41 2.41 0 0 1-.468-.699 3.536 3.536 0 0 1-.241-.88v-1.488c.053-.351.141-.67.263-.956a2.57 2.57 0 0 1 .467-.741c.194-.208.423-.368.688-.479.265-.11.567-.166.907-.166.355 0 .67.07.946.21.279.136.514.334.703.596.194.257.339.569.435.934.1.362.15.768.15 1.22Zm-.645.112v-.113c0-.34-.036-.655-.107-.945a2.3 2.3 0 0 0-.317-.757 1.495 1.495 0 0 0-.537-.51 1.534 1.534 0 0 0-.768-.183c-.308 0-.571.052-.79.156a1.56 1.56 0 0 0-.537.403 1.994 1.994 0 0 0-.338.542 3.1 3.1 0 0 0-.183.58v1.713c.068.273.177.525.328.758.15.229.35.413.601.553.255.136.564.204.93.204.293 0 .547-.06.762-.182a1.51 1.51 0 0 0 .532-.51c.143-.22.249-.473.317-.763.071-.29.107-.606.107-.946Zm5.608 1.805v-2.997c0-.276-.058-.514-.172-.714a1.131 1.131 0 0 0-.505-.462c-.222-.108-.496-.162-.822-.162-.3 0-.57.054-.806.162a1.389 1.389 0 0 0-.553.424.948.948 0 0 0-.199.585l-.644-.005c0-.218.054-.43.161-.634.107-.204.26-.387.457-.548.197-.16.431-.288.703-.38.276-.098.578-.146.908-.146.415 0 .78.07 1.096.21.318.14.567.349.746.628.18.28.269.63.269 1.053v2.809c0 .2.014.408.043.623.032.215.077.392.134.531v.065h-.682a2.624 2.624 0 0 1-.102-.483 5.185 5.185 0 0 1-.032-.559Zm.15-2.342.01.494h-1.262c-.329 0-.624.03-.886.092a2.024 2.024 0 0 0-.655.257 1.24 1.24 0 0 0-.413.403 1.03 1.03 0 0 0-.14.537 1.08 1.08 0 0 0 .606.983c.198.1.43.15.699.15.358 0 .673-.066.945-.198.276-.133.503-.306.682-.521.18-.215.3-.45.36-.704l.28.371a1.867 1.867 0 0 1-.258.553 2.413 2.413 0 0 1-1.176.924c-.265.1-.566.15-.903.15-.38 0-.71-.071-.993-.214a1.653 1.653 0 0 1-.656-.586 1.589 1.589 0 0 1-.23-.849c0-.286.06-.542.182-.768.122-.229.297-.422.526-.58.233-.16.512-.283.838-.365.33-.086.698-.129 1.107-.129h1.337Zm6.155-2.428v.559h-2.943v-.559h2.943Zm.521 0v5.812h-.639V26.19h.639Zm-3.636 0h.639l-.129 2.724c-.021.44-.057.83-.107 1.17-.047.34-.111.632-.193.876-.083.24-.188.437-.317.59a1.167 1.167 0 0 1-.457.345 1.684 1.684 0 0 1-.628.107h-.242v-.58l.199-.006a.998.998 0 0 0 .403-.096.75.75 0 0 0 .3-.274c.086-.125.156-.29.21-.494a4.72 4.72 0 0 0 .134-.747c.036-.297.063-.646.081-1.047l.107-2.568Zm5.849 2.106h1.896c.458 0 .845.08 1.16.242.315.157.554.376.715.655.164.28.247.594.247.945 0 .265-.047.512-.14.741a1.584 1.584 0 0 1-.408.591 1.854 1.854 0 0 1-.666.392c-.262.093-.564.14-.908.14h-2.304V26.19h.639v5.258h1.665c.355 0 .641-.061.86-.183a1.13 1.13 0 0 0 .472-.483 1.37 1.37 0 0 0 0-1.252 1.124 1.124 0 0 0-.472-.489c-.219-.128-.505-.193-.86-.193h-1.896v-.553Zm9.373.494v.548h-3.449v-.548h3.449Zm-3.282-2.6v5.812h-.639V26.19h.639Zm3.776 0v5.812h-.645V26.19h.645Zm1.375 2.997v-.177c0-.422.061-.813.182-1.17.122-.359.296-.668.521-.93a2.39 2.39 0 0 1 .822-.607 2.51 2.51 0 0 1 1.064-.22c.394 0 .75.073 1.069.22.318.143.592.346.821.607.23.262.405.571.527.93.121.358.182.748.182 1.17v.177c0 .423-.061.813-.182 1.171a2.719 2.719 0 0 1-.527.924 2.372 2.372 0 0 1-.816.613 2.567 2.567 0 0 1-1.064.214c-.393 0-.75-.071-1.068-.214a2.433 2.433 0 0 1-.822-.613 2.735 2.735 0 0 1-.527-.924 3.637 3.637 0 0 1-.182-1.17Zm.639-.177v.177c0 .32.043.622.129.908.086.283.211.536.376.758.165.218.369.39.612.515.244.125.525.188.843.188.316 0 .593-.063.833-.188a1.77 1.77 0 0 0 .612-.515 2.36 2.36 0 0 0 .371-.758 3.14 3.14 0 0 0 .129-.908v-.177c0-.315-.043-.614-.129-.897a2.308 2.308 0 0 0-.376-.757 1.811 1.811 0 0 0-.612-.526 1.766 1.766 0 0 0-.838-.194c-.315 0-.595.065-.838.194a1.87 1.87 0 0 0-.612.526 2.431 2.431 0 0 0-.376.757 3.17 3.17 0 0 0-.124.897Zm9.093 2.111 2.31-4.93h.639L128.214 32h-.451l-2.718-5.811h.639l2.304 4.93Zm-2.503-4.93V32h-.639v-5.81h.639Zm4.963 5.81v-5.81h.645V32h-.645Zm4.098-.58 1.81-5.231h.693l-2.46 6.745a5.11 5.11 0 0 1-.193.441 2.013 2.013 0 0 1-.301.462 1.417 1.417 0 0 1-1.133.51c-.068 0-.156-.009-.263-.027a1.603 1.603 0 0 1-.226-.043l-.005-.542a1.933 1.933 0 0 0 .327.038c.233 0 .428-.04.586-.119.161-.078.295-.197.403-.354a2.43 2.43 0 0 0 .284-.58l.478-1.3Zm-1.692-5.231 1.854 4.99.171.67-.467.264-2.256-5.924h.698Z"/>
</svg>
