<svg xmlns="http://www.w3.org/2000/svg" fill="none" viewBox="0 0 138 35">
  <path fill="#000" d="M16.0996.671875V4.6416H5.08398V.671875H16.0996Zm3.4717 0V22h-5.1416V.671875h5.1416Zm-14.83888 0h5.11231L9.28809 11.5117c-.08789 1.6406-.25391 3.0567-.49805 4.2481-.24414 1.1816-.57129 2.1777-.98145 2.9882-.41015.8008-.90332 1.4405-1.47949 1.919-.57617.4785-1.24512.8203-2.00683 1.0254-.75196.2051-1.59668.3076-2.53418.3076H.542969v-3.9551l.556641-.0586c.44922-.0488.84473-.1709 1.18652-.3662.3418-.2051.63477-.5078.87891-.9082.25391-.4004.46387-.9131.62988-1.5381.16602-.625.29785-1.3818.39551-2.2705.10742-.8984.18066-1.9482.21973-3.14939L4.73242.671875ZM40.8262 10.9111v.8643c0 1.6308-.2295 3.0957-.6885 4.3945-.4492 1.2891-1.0889 2.3926-1.9189 3.3106-.8301.9082-1.8116 1.6064-2.9444 2.0947-1.1328.4785-2.3828.7178-3.75.7178-1.3769 0-2.6367-.2393-3.7793-.7178-1.1328-.4883-2.1191-1.1865-2.959-2.0947-.83-.918-1.4746-2.0215-1.9336-3.3106-.4492-1.2988-.6738-2.7637-.6738-4.3945v-.8643c0-1.63083.2246-3.09567.6738-4.3945.459-1.29883 1.0987-2.40234 1.919-3.31055.8301-.91796 1.8115-1.61621 2.9443-2.09472 1.1426-.488283 2.4024-.732424 3.7793-.732424 1.3672 0 2.6172.244141 3.75.732424 1.1426.47851 2.1289 1.17676 2.959 2.09472.8301.90821 1.4746 2.01172 1.9336 3.31055.459 1.29883.6885 2.76367.6885 4.3945Zm-5.2149.8643v-.8936c0-1.05465-.0927-1.98239-.2783-2.78317-.1758-.81054-.4394-1.48925-.791-2.03613s-.7861-.95703-1.3037-1.23047c-.5078-.2832-1.0889-.4248-1.7432-.4248-.6836 0-1.2793.1416-1.7871.4248-.5078.27344-.9326.68359-1.2744 1.23047-.3418.54688-.6006 1.22559-.7764 2.03613-.166.80078-.249 1.72852-.249 2.78317v.8936c0 1.0449.083 1.9726.249 2.7832.1758.8008.4346 1.4795.7764 2.0361.3516.5567.7812.9766 1.2891 1.2598.5175.2832 1.1181.4248 1.8017.4248.6543 0 1.2354-.1416 1.7432-.4248s.9326-.7031 1.2744-1.2598c.3516-.5566.6152-1.2353.791-2.0361.1856-.8106.2783-1.7383.2783-2.7832ZM57.8623.671875V4.6416h-9.2725V22h-5.1269V.671875h14.3994ZM77.2715 10.9111v.8643c0 1.6308-.2295 3.0957-.6885 4.3945-.4492 1.2891-1.0889 2.3926-1.9189 3.3106-.8301.9082-1.8116 1.6064-2.9444 2.0947-1.1328.4785-2.3828.7178-3.75.7178-1.3769 0-2.6367-.2393-3.7793-.7178-1.1328-.4883-2.1191-1.1865-2.959-2.0947-.83-.918-1.4746-2.0215-1.9335-3.3106-.4493-1.2988-.6739-2.7637-.6739-4.3945v-.8643c0-1.63083.2246-3.09567.6739-4.3945.4589-1.29883 1.0986-2.40234 1.9189-3.31055.8301-.91796 1.8115-1.61621 2.9443-2.09472 1.1426-.488283 2.4024-.732424 3.7793-.732424 1.3672 0 2.6172.244141 3.75.732424 1.1426.47851 2.1289 1.17676 2.959 2.09472.8301.90821 1.4746 2.01172 1.9336 3.31055.459 1.29883.6885 2.76367.6885 4.3945Zm-5.2149.8643v-.8936c0-1.05465-.0927-1.98239-.2783-2.78317-.1758-.81054-.4394-1.48925-.791-2.03613s-.7861-.95703-1.3037-1.23047c-.5078-.2832-1.0889-.4248-1.7432-.4248-.6836 0-1.2793.1416-1.7871.4248-.5078.27344-.9326.68359-1.2744 1.23047-.3418.54688-.6006 1.22559-.7764 2.03613-.166.80078-.249 1.72852-.249 2.78317v.8936c0 1.0449.083 1.9726.249 2.7832.1758.8008.4346 1.4795.7764 2.0361.3516.5567.7813.9766 1.2891 1.2598.5175.2832 1.1181.4248 1.8017.4248.6543 0 1.2354-.1416 1.7432-.4248s.9326-.7031 1.2744-1.2598c.3516-.5566.6152-1.2353.791-2.0361.1856-.8106.2783-1.7383.2783-2.7832ZM89.0049.671875V22h-5.1416V.671875h5.1416Zm6.416 0V4.6416H77.5938V.671875h17.8271ZM102.452 14.1338 110.113.671875h5.142V22h-5.142V8.55273L102.452 22h-5.1415V.671875h5.1415V14.1338ZM136.305.671875V22h-5.142V4.6416h-7.661V22h-5.127V.671875h17.93ZM1.52051 30.959l3.14209-4.7695h.64453v5.8115H4.6626v-4.7696L1.52051 32.001H.886719v-5.8115h.633791v4.7695ZM8.0625 26.1895h.63916l-.09668 2.0947c-.02506.5586-.08773 1.0438-.18799 1.4555-.09668.4082-.21663.7574-.35986 1.0474-.14323.2865-.30078.5282-.47266.7251-.16829.1934-.34017.3563-.51562.4888h-.34912l.01074-.5479.16113-.0053c.10384-.1254.21126-.2668.32227-.4244.11458-.1611.22379-.358.32763-.5908.10385-.2327.19336-.5228.26856-.8701.07519-.3473.12532-.7734.15039-1.2783l.10205-2.0947Zm.20947 0h3.21733v5.8115h-.6392v-5.21H8.27197v-.6015Zm-1.79931 5.2583h5.62354v2.2612h-.6445v-1.708H7.08496v1.708h-.6123v-2.2612ZM15.582 32.1084c-.3795 0-.7286-.0698-1.0473-.2095-.3151-.1396-.5909-.3366-.8272-.5908-.2327-.2542-.4136-.555-.5425-.9023-.1253-.3509-.1879-.7341-.1879-1.1495v-.2309c0-.4476.0662-.8522.1987-1.2139.1325-.3616.3151-.6714.5478-.9292.2328-.2578.4978-.4547.795-.5908.3007-.1396.6158-.2095.9453-.2095.3688 0 .6964.0663.9829.1988.2864.1289.5263.3133.7197.5532.1969.2363.3455.5174.4458.8432.1003.3223.1504.6786.1504 1.0689v.3921h-4.3989v-.5479h3.7597v-.0752c-.0071-.3258-.0734-.6302-.1987-.913-.1217-.2865-.3044-.5193-.5478-.6983-.2435-.179-.5479-.2685-.9131-.2685-.2722 0-.5228.0572-.752.1718-.2256.1146-.4207.2793-.5854.4942-.1612.2112-.2865.4637-.376.7573-.0859.29-.1289.6123-.1289.9668v.2309c0 .3223.0465.6231.1396.9024.0967.2757.2328.5192.4082.7305.1791.2112.3903.3759.6338.4941.2435.1182.5121.1772.8057.1772.3437 0 .6481-.0626.9131-.1879.2649-.1289.5031-.3313.7143-.607l.4029.3115c-.1254.1862-.2829.3581-.4727.5157-.1862.1575-.41.2829-.6714.376-.2614.093-.5657.1396-.9131.1396ZM22.9941 28.7891v.5478h-3.4482v-.5478h3.4482Zm-3.2817-2.5996v5.8115h-.6392v-5.8115h.6392Zm3.7759 0v5.8115h-.6445v-5.8115h.6445ZM27.2695 26.1895v5.8115h-.6391v-5.8115h.6391Zm2.1162 0v.5478h-4.7963v-.5478h4.7963ZM31.126 30.959l3.1421-4.7695h.6445v5.8115h-.6445v-4.7696L31.126 32.001h-.6338v-5.8115h.6338v4.7695ZM40.7671 26.1895v5.8115h-.6392v-5.8115h.6392Zm-.2202 2.6372v.5532c-.1647.0788-.3545.154-.5694.2256-.2112.0716-.435.1307-.6713.1772-.2328.043-.4655.0645-.6983.0645-.4798 0-.8862-.0699-1.2192-.2095-.3295-.1397-.5783-.3688-.7466-.6875-.1683-.3223-.2525-.752-.2525-1.2891v-1.477h.6392v1.477c0 .4118.0573.7377.1719.9776.1146.2363.2882.4046.521.5049.2327.1002.5281.1503.8862.1503.2471-.0071.4924-.0322.7359-.0751.2434-.0466.469-.1039.6767-.1719.2113-.0716.3867-.145.5264-.2202ZM46.4551 28.7891v.5478h-3.4483v-.5478h3.4483Zm-3.2818-2.5996v5.8115h-.6391v-5.8115h.6391Zm3.7759 0v5.8115h-.6445v-5.8115h.6445ZM49.1567 28.2949h1.896c.4584 0 .8451.0806 1.1602.2417.3151.1576.5532.376.7143.6553.1648.2793.2471.5944.2471.9453 0 .265-.0465.5121-.1396.7412-.0896.2256-.2256.4225-.4082.5908-.1791.1683-.4011.299-.6661.3921-.2613.0931-.5639.1397-.9077.1397h-2.3042v-5.8115h.6392v5.2583h1.665c.3545 0 .641-.0609.8594-.1827.2184-.1253.376-.2864.4727-.4834.1002-.1969.1504-.4064.1504-.6284 0-.2184-.0502-.4261-.1504-.623-.0967-.2005-.2543-.3635-.4727-.4888-.2184-.1289-.5049-.1934-.8594-.1934h-1.896v-.5532Zm5.9888-2.1054v5.8115h-.6392v-5.8115h.6392ZM57.6162 30.959l3.1421-4.7695h.6445v5.8115h-.6445v-4.7696l-3.1421 4.7696h-.6338v-5.8115h.6338v4.7695Zm2.5513-6.8535h.5478c0 .2685-.0626.5066-.188.7143-.1217.2077-.2989.3706-.5317.4888-.2327.1182-.5085.1772-.8271.1772-.4799 0-.8594-.1289-1.1387-.3867-.2757-.2578-.4136-.589-.4136-.9936h.5425c0 .247.0752.4619.2256.6445.1539.179.4153.2686.7842.2686.358 0 .6141-.0914.768-.274.154-.1826.231-.3956.231-.6391ZM69.7764 28.7891v.5478h-3.4483v-.5478h3.4483Zm-3.2818-2.5996v5.8115h-.6391v-5.8115h.6391Zm3.7759 0v5.8115h-.6445v-5.8115h.6445ZM75.5342 30.959v-2.9971c0-.2757-.0573-.5138-.1719-.7143-.1146-.2006-.2829-.3545-.5049-.462-.222-.1074-.4959-.1611-.8218-.1611-.3007 0-.5693.0537-.8056.1611-.2328.1039-.4172.2453-.5532.4244-.1325.1754-.1988.3706-.1988.5854l-.6445-.0054c0-.2184.0537-.4296.1611-.6338.1075-.2041.2596-.3867.4566-.5478.1969-.1611.4314-.2883.7036-.3813.2757-.0967.5783-.1451.9077-.1451.4154 0 .7806.0699 1.0957.2095.3187.1397.5675.3491.7466.6284.179.2793.2685.6302.2685 1.0528v2.809c0 .2006.0144.4082.043.6231.0322.2148.077.3921.1343.5317v.0645h-.6821c-.043-.1289-.077-.2901-.1021-.4834-.0215-.197-.0322-.3832-.0322-.5586Zm.1504-2.3418.0107.4941h-1.2622c-.3294 0-.6248.0305-.8862.0913-.2578.0573-.4763.1433-.6553.2578-.179.1111-.3169.2453-.4136.4029-.0931.1575-.1396.3366-.1396.5371 0 .2077.0519.3975.1557.5693.1075.1719.2579.3098.4512.4136.197.1003.4297.1504.6983.1504.358 0 .6731-.0663.9453-.1987.2757-.1325.5031-.3062.6821-.521.179-.2149.299-.4494.3599-.7036l.2793.3706c-.0466.179-.1325.3634-.2579.5532-.1217.1862-.281.3616-.478.5263-.1969.1612-.4297.2937-.6982.3975-.265.1003-.5658.1504-.9024.1504-.3795 0-.7107-.0716-.9936-.2148-.2793-.1433-.4977-.3384-.6553-.5855-.154-.2506-.231-.5335-.231-.8486 0-.2865.0609-.5425.1827-.7681.1217-.2292.2972-.4225.5263-.5801.2328-.1611.5121-.2828.8379-.3652.3294-.0859.6983-.1289 1.1065-.1289h1.3374ZM79.8633 26.1895v5.8115h-.6392v-5.8115h.6392Zm2.1162 0v.5478h-4.7964v-.5478h4.7964ZM84.8315 31.4209l1.8101-5.2314h.6929l-2.46 6.746c-.0501.1325-.1146.2793-.1933.4405-.0752.1611-.1755.3151-.3008.4619-.1218.1504-.2757.2721-.4619.3652-.1827.0967-.4065.145-.6714.145-.0681 0-.1558-.0089-.2632-.0268-.1039-.0143-.179-.0287-.2256-.043l-.0054-.5425c.0394.0108.0967.0197.1719.0269.0752.0072.1271.0107.1558.0107.2327 0 .4279-.0394.5854-.1181.1611-.0788.2954-.197.4028-.3545.1075-.154.2024-.3473.2847-.5801l.478-1.2998Zm-1.6919-5.2314 1.8531 4.9897.1719.6714-.4673.2632-2.2559-5.9243h.6982ZM88.9727 27.3066v6.9288h-.6446v-8.0459h.6016l.043 1.1171Zm4.039 1.7349v.1128c0 .4333-.0501.8307-.1504 1.1924-.1002.3616-.2453.6749-.435.9399-.1862.2614-.4172.4637-.6929.607-.2757.1432-.589.2148-.9399.2148-.3474 0-.6571-.0537-.9292-.1611-.2722-.1075-.5067-.2596-.7037-.4566-.1933-.2005-.3491-.4332-.4672-.6982-.1146-.2686-.1952-.5622-.2417-.8809v-1.4878c.0537-.3509.1414-.6696.2631-.956.1218-.2865.2776-.5336.4673-.7412.1934-.2077.4226-.3671.6875-.4781.265-.111.5676-.1665.9077-.1665.3545 0 .6696.0699.9454.2095.2793.1361.5138.3348.7036.5962.1933.2578.3383.5693.435.9346.1003.3616.1504.768.1504 1.2192Zm-.6445.1128v-.1128c0-.3402-.0358-.6553-.1074-.9453-.0681-.29-.1737-.5425-.3169-.7573-.1397-.2185-.3187-.3885-.5371-.5103-.2149-.1217-.4709-.1826-.7681-.1826-.3079 0-.5711.0519-.7896.1558-.2148.1002-.3938.2345-.5371.4028-.1432.1647-.256.3455-.3383.5425-.0824.1969-.1433.3903-.1827.58v1.7134c.0681.2722.1773.5246.3277.7574.1504.2291.3509.4135.6015.5532.2543.136.564.2041.9292.2041.2937 0 .5479-.0609.7627-.1826.2149-.1218.3921-.2919.5318-.5103.1432-.2184.2488-.4727.3169-.7627.0716-.29.1074-.6051.1074-.9453ZM97.9746 30.959v-2.9971c0-.2757-.0573-.5138-.1719-.7143-.1145-.2006-.2828-.3545-.5048-.462-.2221-.1074-.496-.1611-.8218-.1611-.3008 0-.5694.0537-.8057.1611-.2327.1039-.4171.2453-.5532.4244-.1325.1754-.1987.3706-.1987.5854l-.6446-.0054c0-.2184.0537-.4296.1612-.6338.1074-.2041.2596-.3867.4565-.5478.1969-.1611.4315-.2883.7036-.3813.2757-.0967.5783-.1451.9077-.1451.4154 0 .7806.0699 1.0957.2095.3187.1397.5676.3491.7466.6284.1791.2793.2686.6302.2686 1.0528v2.809c0 .2006.0143.4082.0429.6231.0323.2148.077.3921.1343.5317v.0645h-.6821c-.043-.1289-.077-.2901-.1021-.4834-.0214-.197-.0322-.3832-.0322-.5586Zm.1504-2.3418.0107.4941h-1.2622c-.3294 0-.6248.0305-.8862.0913-.2578.0573-.4762.1433-.6553.2578-.179.1111-.3169.2453-.4135.4029-.0931.1575-.1397.3366-.1397.5371 0 .2077.0519.3975.1558.5693.1074.1719.2578.3098.4511.4136.197.1003.4297.1504.6983.1504.3581 0 .6732-.0663.9453-.1987.2757-.1325.5031-.3062.6821-.521.1791-.2149.299-.4494.3599-.7036l.2793.3706c-.0466.179-.1325.3634-.2578.5532-.1218.1862-.2811.3616-.4781.5263-.1969.1612-.4296.2937-.6982.3975-.265.1003-.5658.1504-.9023.1504-.3796 0-.7108-.0716-.9937-.2148-.2793-.1433-.4977-.3384-.6553-.5855-.1539-.2506-.2309-.5335-.2309-.8486 0-.2865.0608-.5425.1826-.7681.1217-.2292.2972-.4225.5264-.5801.2327-.1611.512-.2828.8379-.3652.3294-.0859.6982-.1289 1.1064-.1289h1.3374ZM104.28 26.1895v.5585h-2.943v-.5585h2.943Zm.521 0v5.8115h-.639v-5.8115h.639Zm-3.636 0h.639l-.129 2.7231c-.021.4404-.057.8307-.107 1.1709-.047.3402-.111.632-.193.8755-.083.2399-.188.4368-.317.5908-.126.154-.278.2686-.457.3438-.179.0716-.388.1074-.6283.1074h-.2417v-.5801l.1987-.0054c.1543-.0071.2883-.0394.4033-.0967.118-.0572.218-.1486.3-.2739.086-.1253.156-.29.21-.4941.057-.2041.102-.453.134-.7466.036-.2972.063-.6463.081-1.0474l.107-2.5673ZM107.014 28.2949h1.896c.458 0 .845.0806 1.16.2417.315.1576.554.376.715.6553.164.2793.247.5944.247.9453 0 .265-.047.5121-.14.7412-.089.2256-.225.4225-.408.5908-.179.1683-.401.299-.666.3921-.262.0931-.564.1397-.908.1397h-2.304v-5.8115h.639v5.2583h1.665c.355 0 .641-.0609.86-.1827.218-.1253.376-.2864.472-.4834.1-.1969.151-.4064.151-.6284 0-.2184-.051-.4261-.151-.623-.096-.2005-.254-.3635-.472-.4888-.219-.1289-.505-.1934-.86-.1934h-1.896v-.5532ZM116.387 28.7891v.5478h-3.449v-.5478h3.449Zm-3.282-2.5996v5.8115h-.639v-5.8115h.639Zm3.776 0v5.8115h-.645v-5.8115h.645ZM118.256 29.1865v-.1772c0-.4225.061-.8128.182-1.1709.122-.3581.296-.6678.521-.9292.23-.2614.504-.4637.822-.607.319-.1468.673-.2202 1.064-.2202.394 0 .75.0734 1.069.2202.318.1433.592.3456.821.607.23.2614.405.5711.527.9292.121.3581.182.7484.182 1.1709v.1772c0 .4225-.061.8128-.182 1.1709-.122.3545-.297.6625-.527.9238-.225.2614-.497.4655-.816.6124-.319.1432-.673.2148-1.064.2148-.393 0-.75-.0716-1.068-.2148-.319-.1469-.593-.351-.822-.6124-.229-.2613-.405-.5693-.527-.9238-.121-.3581-.182-.7484-.182-1.1709Zm.639-.1772v.1772c0 .3187.043.6213.129.9077.086.2829.211.5354.376.7574.165.2184.369.3903.612.5156.244.1253.525.188.843.188.316 0 .593-.0627.833-.188.243-.1253.448-.2972.612-.5156.165-.222.289-.4745.371-.7574.086-.2864.129-.589.129-.9077v-.1772c0-.3151-.043-.6141-.129-.897-.082-.2829-.208-.5353-.376-.7573-.165-.222-.369-.3975-.612-.5264-.244-.1289-.523-.1933-.838-.1933-.315 0-.595.0644-.838.1933-.24.1289-.444.3044-.612.5264-.165.222-.291.4744-.376.7573-.083.2829-.124.5819-.124.897ZM127.988 31.1201l2.31-4.9306h.639l-2.723 5.8115h-.451l-2.718-5.8115h.639l2.304 4.9306Zm-2.503-4.9306v5.8115h-.639v-5.8115h.639Zm4.963 5.8115v-5.8115h.645v5.8115h-.645ZM134.546 31.4209l1.81-5.2314h.693l-2.46 6.746c-.05.1325-.114.2793-.193.4405-.075.1611-.175.3151-.301.4619-.122.1504-.276.2721-.462.3652-.182.0967-.406.145-.671.145-.068 0-.156-.0089-.263-.0268-.104-.0143-.179-.0287-.226-.043l-.005-.5425c.039.0108.096.0197.172.0269.075.0072.127.0107.155.0107.233 0 .428-.0394.586-.1181.161-.0788.295-.197.403-.3545.107-.154.202-.3473.284-.5801l.478-1.2998Zm-1.692-5.2314 1.854 4.9897.171.6714-.467.2632-2.256-5.9243h.698Z"/>
</svg>
