<?xml version="1.0" encoding="utf-8"?>
<!-- Generator: Adobe Illustrator 24.0.2, SVG Export Plug-In . SVG Version: 6.00 Build 0)  -->
<svg version="1.1" id="Layer_1" xmlns="http://www.w3.org/2000/svg" xmlns:xlink="http://www.w3.org/1999/xlink" x="0px" y="0px"
	 viewBox="0 0 1920 1080" enable-background="new 0 0 1920 1080" xml:space="preserve">
<g>
	<g>
		<g>
			<g>
				<polygon fill="#FFD829" points="758.091,715.368 758.091,715.368 775.159,680.735 803.804,691.405 825.641,663.515 
					832.952,689.042 810.713,715.992 781.173,701.732 				"/>
			</g>
		</g>
		<g>
			<g>
				<g>
					<path fill="#FFFFFF" d="M821.833,839.955c-5.928-7.527-6.348-13.585-6.718-18.93c-0.352-5.073-0.684-9.865-5.658-16.182
						s-9.555-7.763-14.404-9.294c-5.109-1.613-10.899-3.441-16.827-10.969c-5.927-7.526-6.347-13.584-6.717-18.928
						c-0.351-5.073-0.683-9.864-5.656-16.18s-9.553-7.761-14.402-9.291c-5.108-1.612-10.899-3.44-16.825-10.966
						c-5.927-7.526-6.346-13.584-6.716-18.928c-0.351-5.072-0.683-9.864-5.656-16.179c-4.974-6.315-9.553-7.761-14.402-9.292
						c-5.108-1.612-10.898-3.44-16.825-10.966s-6.345-13.582-6.715-18.926c-0.351-5.072-0.683-9.863-5.655-16.177l3.928-3.094
						c5.926,7.525,6.345,13.582,6.715,18.926c0.351,5.072,0.683,9.863,5.655,16.177c4.973,6.315,9.553,7.761,14.402,9.292
						c5.108,1.612,10.898,3.44,16.825,10.966c5.927,7.526,6.346,13.583,6.716,18.927c0.351,5.073,0.683,9.864,5.656,16.18
						c4.973,6.315,9.553,7.761,14.402,9.291c5.108,1.612,10.898,3.44,16.825,10.966c5.927,7.526,6.347,13.584,6.717,18.928
						c0.351,5.073,0.683,9.864,5.656,16.18c4.975,6.316,9.555,7.763,14.405,9.294c5.109,1.613,10.899,3.441,16.827,10.969
						c5.928,7.527,6.348,13.585,6.718,18.93c0.352,5.073,0.684,9.865,5.658,16.182L821.833,839.955z"/>
				</g>
			</g>
			<g>
				<g>
					<path fill="#FFFFFF" d="M783.84,858.242c-5.366-7.724-5.36-13.721-5.356-19.011c0.005-4.998,0.009-9.719-4.462-16.153
						c-4.471-6.436-8.896-8.078-13.581-9.818c-4.959-1.841-10.581-3.929-15.947-11.651c-5.365-7.723-5.359-13.719-5.354-19.009
						c0.004-4.997,0.009-9.717-4.461-16.15s-8.895-8.077-13.58-9.816c-4.959-1.841-10.581-3.928-15.946-11.65
						c-5.365-7.723-5.359-13.719-5.354-19.009c0.005-4.997,0.009-9.717-4.46-16.15s-8.895-8.076-13.579-9.815
						c-4.959-1.841-10.581-3.927-15.946-11.649c-5.364-7.722-5.358-13.717-5.353-19.007c0.005-4.997,0.01-9.716-4.459-16.148
						l4.106-2.854c5.364,7.722,5.358,13.718,5.353,19.007c-0.005,4.997-0.01,9.716,4.459,16.148c4.47,6.435,8.895,8.077,13.58,9.816
						c4.959,1.841,10.58,3.927,15.945,11.648c5.365,7.723,5.359,13.719,5.354,19.009c-0.005,4.997-0.009,9.717,4.46,16.15
						c4.47,6.435,8.896,8.078,13.58,9.817c4.959,1.841,10.581,3.928,15.946,11.649c5.365,7.723,5.359,13.719,5.354,19.009
						c-0.005,4.997-0.009,9.717,4.46,16.15c4.471,6.436,8.896,8.078,13.581,9.818c4.959,1.841,10.581,3.929,15.947,11.651
						c5.366,7.724,5.36,13.721,5.355,19.011c-0.004,4.998-0.008,9.719,4.462,16.153L783.84,858.242z"/>
				</g>
			</g>
			<g>
				<g>
					<circle fill="#FFFFFF" cx="756.301" cy="636.486" r="20.835"/>
				</g>
			</g>
			<g>
				<g>
					<g>
						<path d="M890.514,732.119c-6.112,0-11.922-2.315-16.362-6.519c-2.445-2.314-4.336-5.062-5.622-8.167l-1.169-2.824
							l-2.536,1.706c-3.926,2.642-8.519,4.037-13.28,4.037c-6.108,0-11.915-2.313-16.353-6.515
							c-8.129-7.696-9.784-20.196-3.935-29.722l1.61-2.622l-2.895-1.039c-3.746-1.346-7.115-3.419-10.013-6.163
							c-5.564-5.269-8.744-12.388-8.954-20.048s2.576-14.943,7.845-20.508c2.16-2.28,4.643-4.168,7.397-5.625l87.885,83.207
							c-0.63,5.042-2.803,9.641-6.327,13.362c-4.542,4.797-10.682,7.438-17.29,7.438
							C890.515,732.119,890.515,732.119,890.514,732.119z"/>
					</g>
				</g>
				<g>
					<g>
						<path d="M825.877,631.204l85.585,81.03c-0.74,4.03-2.608,7.703-5.472,10.729c-4.065,4.293-9.561,6.658-15.476,6.658
							c-5.469,0-10.67-2.072-14.643-5.834c-2.188-2.072-3.881-4.531-5.031-7.308l-2.338-5.648l-5.072,3.411
							c-3.513,2.363-7.623,3.612-11.885,3.612c-5.466,0-10.663-2.071-14.634-5.83c-7.276-6.888-8.758-18.075-3.523-26.599
							l3.219-5.243l-5.791-2.079c-3.418-1.227-6.492-3.12-9.139-5.625c-10.486-9.928-10.94-26.535-1.012-37.021
							C822.225,633.808,823.97,632.385,825.877,631.204 M826.704,625.101c-3.537,1.617-6.831,3.919-9.67,6.917
							c-11.842,12.508-11.302,32.247,1.206,44.089c3.232,3.06,6.949,5.287,10.887,6.7c-6.372,10.377-4.848,24.141,4.347,32.846
							c5.084,4.813,11.584,7.199,18.071,7.199c5.135,0,10.262-1.494,14.676-4.463c1.372,3.313,3.44,6.401,6.213,9.026
							c5.086,4.815,11.59,7.203,18.081,7.203c6.974,0,13.933-2.756,19.107-8.22c4.313-4.556,6.675-10.25,7.121-16.053
							L826.704,625.101L826.704,625.101z"/>
					</g>
				</g>
			</g>
			<g>
				<g>
					<path d="M839.434,739.584c-1.067,0-2.108,0.104-3.133,0.256c-2.825-5.168-8.309-8.674-14.614-8.674
						c-9.193,0-16.646,7.453-16.646,16.646c0,8.081,5.759,14.812,13.396,16.324c1.58,10.19,10.365,17.998,20.997,17.998
						c11.75,0,21.275-9.525,21.275-21.275C860.709,749.109,851.184,739.584,839.434,739.584z"/>
				</g>
			</g>
		</g>
		<g>
			<g>
				<g>
					<path fill="#FFFFFF" d="M1099.906,487.049c-22.737,0-48.618-13.947-66.895-38.471c-26.488-35.545-27.122-80.051-1.412-99.213
						c25.711-19.159,68.18-5.83,94.669,29.714c12.741,17.098,19.965,36.754,20.338,55.349c0.38,18.907-6.342,34.484-18.926,43.863
						C1119.709,484.232,1110.124,487.049,1099.906,487.049z M1059.483,345.548c-9.191,0-17.771,2.517-24.896,7.827
						c-23.5,17.514-22.408,58.881,2.434,92.215c24.841,33.335,64.171,46.205,87.671,28.691
						c11.254-8.387,17.262-22.505,16.915-39.753c-0.353-17.562-7.224-36.192-19.349-52.461
						C1104.949,358.841,1080.604,345.548,1059.483,345.548z"/>
				</g>
			</g>
			<g>
				<g>
					<path fill="#FFFFFF" d="M1124.15,468.982c-22.737,0-48.618-13.948-66.895-38.472c-12.741-17.098-19.965-36.754-20.338-55.349
						c-0.38-18.907,6.342-34.484,18.926-43.863c25.712-19.157,68.179-5.831,94.669,29.714c26.488,35.544,27.122,80.051,1.412,99.212
						C1143.952,466.164,1134.369,468.982,1124.15,468.982z M1083.729,327.481c-9.191,0-17.771,2.517-24.896,7.827
						c-11.254,8.387-17.262,22.505-16.915,39.753c0.353,17.562,7.224,36.192,19.349,52.461
						c24.841,33.334,64.17,46.206,87.671,28.692c23.5-17.514,22.408-58.881-2.434-92.214
						C1129.194,340.774,1104.85,327.481,1083.729,327.481z"/>
				</g>
			</g>
			<g>
				<g>
					<path fill="#FFFFFF" d="M1148.394,450.913c-22.736,0-48.617-13.947-66.894-38.471c-12.741-17.098-19.965-36.754-20.338-55.349
						c-0.38-18.907,6.342-34.484,18.926-43.863c25.711-19.159,68.18-5.831,94.669,29.713l0,0
						c26.488,35.546,27.121,80.052,1.411,99.212C1168.196,448.096,1158.612,450.913,1148.394,450.913z M1107.973,309.413
						c-9.191,0-17.771,2.517-24.896,7.827c-11.254,8.387-17.262,22.505-16.915,39.753c0.353,17.562,7.224,36.192,19.349,52.461
						c24.84,33.333,64.17,46.207,87.67,28.691c23.5-17.513,22.409-58.88-2.433-92.214
						C1153.438,322.705,1129.094,309.413,1107.973,309.413z"/>
				</g>
			</g>
			<g>
				<g>
					<path fill="#FFFFFF" d="M1172.585,432.922c-6.266,0-12.859-1.072-19.616-3.236c-17.712-5.673-34.483-18.214-47.225-35.311
						c-26.489-35.545-27.122-80.051-1.412-99.212c12.585-9.378,29.436-11.367,47.443-5.598
						c17.712,5.673,34.483,18.214,47.226,35.311l0,0c12.741,17.098,19.964,36.754,20.337,55.349
						c0.38,18.907-6.342,34.484-18.926,43.863C1192.549,429.947,1183.021,432.922,1172.585,432.922z M1132.184,291.335
						c-9.376,0-17.887,2.638-24.863,7.838c-23.5,17.513-22.408,58.88,2.434,92.214c12.123,16.269,28.013,28.179,44.74,33.537
						c16.429,5.262,31.676,3.542,42.93-4.846c11.255-8.387,17.262-22.505,16.916-39.753c-0.354-17.562-7.225-36.192-19.349-52.461
						s-28.014-28.18-44.741-33.537C1144.006,292.327,1137.932,291.335,1132.184,291.335z"/>
				</g>
			</g>
			<g>
				<g>
					<path fill="#FFFFFF" d="M1196.829,414.855c-6.266,0-12.859-1.072-19.616-3.236c-17.712-5.674-34.483-18.214-47.225-35.312
						c-26.489-35.544-27.122-80.05-1.412-99.212c12.584-9.377,29.433-11.366,47.443-5.598c17.712,5.674,34.483,18.214,47.225,35.312
						s19.965,36.754,20.338,55.349c0.38,18.907-6.341,34.484-18.926,43.863C1216.793,411.88,1207.265,414.855,1196.829,414.855z
						 M1156.428,273.268c-9.376,0-17.887,2.637-24.863,7.837c-23.5,17.514-22.408,58.881,2.434,92.214
						c12.123,16.27,28.013,28.18,44.74,33.538c16.429,5.262,31.676,3.542,42.93-4.846c11.255-8.387,17.262-22.505,16.915-39.753
						c-0.353-17.562-7.224-36.192-19.349-52.461l0,0c-12.123-16.27-28.013-28.18-44.74-33.538
						C1168.25,274.259,1162.176,273.268,1156.428,273.268z"/>
				</g>
			</g>
		</g>
		<g>
			<g>
				<g>
					<path fill="#FFFFFF" d="M1775.127,372.047c-19.98-52.167-49.204-98.379-86.862-137.351
						c-38.003-39.329-83.262-69.914-134.521-90.905c-51.744-21.19-108.1-31.935-167.504-31.935
						c-98.366,0-190.007,29.097-280.162,88.953c-53.847,35.751-101.203,78.235-146.005,121.771
						c-42.957-41.93-90.09-84.831-142.108-120.556c-88.345-60.674-175.296-90.168-265.821-90.168
						c-119.661,0-230.782,45.451-312.893,127.98c-39.236,39.436-70.004,85.352-91.449,136.473
						C125.91,428.5,114.81,483.604,114.81,540.094c0,59.456,10.262,116.091,30.501,168.331
						c20.164,52.045,49.582,98.187,87.439,137.147c76.803,79.041,183.704,122.571,301.011,122.571
						c98.451,0,190.167-29.14,280.39-89.085c53.723-35.694,101.012-78.107,145.753-121.591
						c105.597,103.149,235.113,210.676,407.857,210.676c119.697,0,230.837-45.408,312.946-127.858
						c39.253-39.415,70.031-85.314,91.481-136.422c21.899-52.176,33.002-107.275,33.002-163.77
						C1805.19,480.673,1795.075,424.134,1775.127,372.047z M552.24,147.749c60.004,0,118.585,14.323,177.468,43.561l-0.001,1.351
						l-103.64,213.042l0,0.093c-24.227-10.833-49.5-17.227-76.173-17.227c-30.775,0-60.019,9.044-84.755,25.884l0.241-0.16
						L357.313,196.012l-0.002-0.008C415.89,164.486,482.463,147.749,552.24,147.749z M339.941,885.252l-0.004,0.007
						c-30.481-17.026-58.077-38.253-82.389-63.414c-34.282-35.478-60.914-77.617-79.156-125.247
						c-18.363-47.946-27.678-100.134-27.688-155.116h-0.001v-0.094c0,0.031,0.001,0.062,0.001,0.094h247.759v-0.094
						c0,43.428,14.61,82.441,41.137,109.853c6.596,6.816,12.684,12.081,20.389,17.265L339.941,885.252z M434.262,540.094
						c0-29.817,12.164-59.376,33.371-81.098c21.743-22.27,50.956-34.534,82.261-34.534c32,0,63.675,11.357,99.685,35.74
						c32.083,21.724,63.586,51.23,94.258,81.187c-62.752,60.746-130.723,114.149-200.885,114.149
						C477.941,655.537,434.262,609.144,434.262,540.094z M748.719,875.598L622.674,676.276c0,0,43.396-22.482,64.598-38.504
						c28.186-21.3,55.898-44.785,82.129-70.211l165.254,165.405C873.108,792.68,828.877,837.411,748.719,875.598z M959.957,707.039
						L794.621,541.703l166.57-166.57l165.336,165.336L959.957,707.039z M984.456,347.227
						c61.547-59.713,128.183-118.164,208.341-156.352l103.64,213.042l0,0.093l-0.001,1.201
						c-20.895,8.915-42.354,21.291-64.597,37.21c-27.578,19.739-54.847,43.766-82.129,70.211L984.456,347.227z M1377.047,424.462
						c64.955,0,108.596,46.469,108.596,115.632c0,29.786-12.149,59.3-33.331,80.974c-21.722,22.228-50.917,34.469-82.207,34.469
						c-32.091,0-63.836-11.365-99.903-35.766c-32.038-21.674-63.49-51.092-94.113-80.977
						C1238.857,478.009,1306.859,424.462,1377.047,424.462z M1367.76,932.25c-60.004,0-118.585-14.323-177.468-43.56l0.001-1.351
						l103.64-213.042l0-0.093c24.227,10.833,49.5,17.227,76.173,17.227c30.775,0,60.019-9.044,84.755-25.884l-0.241,0.16
						l108.068,218.28l0.002,0.008C1504.11,915.513,1437.537,932.25,1367.76,932.25z M1769.297,540.094
						c0-0.031-0.001-0.062-0.001-0.094h-247.759v0.094c0-43.428-14.61-82.441-41.137-109.853
						c-6.596-6.816-12.684-12.08-20.389-17.265l120.049-216.746l0.004-0.007c30.481,17.026,58.077,38.253,82.389,63.414
						c34.282,35.478,60.914,77.617,79.156,125.247c18.363,47.946,27.678,100.134,27.688,155.116h0.001V540.094z"/>
				</g>
			</g>
			<g>
				<g>
					<path fill="#FFD829" d="M1035.27,693.346c-0.64,0-1.279-0.244-1.768-0.732c-0.977-0.977-0.977-2.559,0-3.535l119.234-119.235
						c0.977-0.977,2.559-0.977,3.535,0s0.977,2.559,0,3.535l-119.234,119.235C1036.549,693.102,1035.909,693.346,1035.27,693.346z"
						/>
				</g>
			</g>
			<g>
				<g>
					<path fill="#FFD829" d="M1038.335,781.429c-0.624,0-1.249-0.232-1.734-0.699c-0.994-0.958-1.024-2.54-0.066-3.535
						l160.205-166.358c0.956-0.996,2.54-1.023,3.535-0.066c0.994,0.958,1.024,2.54,0.066,3.535l-160.205,166.358
						C1039.646,781.173,1038.99,781.429,1038.335,781.429z"/>
				</g>
			</g>
			<g>
				<g>
					<path fill="#FFD829" d="M1072.043,809.354c-0.58,0-1.162-0.2-1.635-0.609c-1.044-0.903-1.158-2.482-0.255-3.526l151.197-174.71
						c0.905-1.044,2.482-1.157,3.526-0.255c1.044,0.903,1.158,2.482,0.255,3.526l-151.197,174.71
						C1073.439,809.061,1072.743,809.354,1072.043,809.354z"/>
				</g>
			</g>
			<g>
				<g>
					<path fill="#FFD829" d="M1106.335,837.072c-0.534,0-1.072-0.17-1.527-0.522c-1.092-0.844-1.293-2.414-0.448-3.507
						l141.546-183.094c0.844-1.091,2.414-1.294,3.507-0.448c1.092,0.844,1.293,2.414,0.448,3.507l-141.546,183.094
						C1107.822,836.738,1107.083,837.072,1106.335,837.072z"/>
				</g>
			</g>
			<g>
				<g>
					<circle cx="675.087" cy="403.273" r="24.885"/>
				</g>
			</g>
			<g>
				<g>
					<path fill="#FFD829" d="M697.922,373.671c-0.46,0-0.926-0.127-1.342-0.393c-1.164-0.743-1.505-2.288-0.763-3.452
						l91.093-142.751c0.742-1.164,2.289-1.507,3.452-0.763c1.164,0.743,1.505,2.288,0.763,3.452l-91.093,142.751
						C699.556,373.263,698.748,373.671,697.922,373.671z"/>
				</g>
			</g>
			<g>
				<g>
					<path fill="#FFD829" d="M706.272,456.142c-0.536,0-1.076-0.172-1.532-0.526c-1.09-0.847-1.287-2.418-0.44-3.508
						l141.725-182.359c0.848-1.089,2.419-1.287,3.508-0.439c1.09,0.847,1.287,2.418,0.44,3.508L708.248,455.176
						C707.755,455.81,707.018,456.142,706.272,456.142z"/>
				</g>
			</g>
			<g>
				<g>
					<path fill="#FFD829" d="M729.179,477.787c-0.58,0-1.163-0.201-1.636-0.61c-1.044-0.904-1.157-2.482-0.253-3.526
						l151.279-174.638c0.904-1.045,2.483-1.156,3.526-0.253c1.044,0.904,1.157,2.483,0.253,3.526L731.069,476.924
						C730.575,477.495,729.878,477.787,729.179,477.787z"/>
				</g>
			</g>
			<g>
				<g>
					<path fill="#FFD829" d="M751.841,499.409c-0.626,0-1.253-0.233-1.738-0.704c-0.992-0.96-1.018-2.543-0.058-3.534
						l160.957-166.286c0.959-0.992,2.542-1.02,3.535-0.058c0.992,0.96,1.018,2.543,0.058,3.534L753.638,498.648
						C753.148,499.154,752.495,499.409,751.841,499.409z"/>
				</g>
			</g>
			<g>
				<g>
					<g>
						<path d="M1610.436,825.718c-2.185-3.777-3.933-8.327-7.709-10.512c-3.661-2.118-8.425-1.417-12.958-1.417
							s-9.297-0.701-12.958,1.417c-3.777,2.185-5.524,6.735-7.709,10.512c-2.118,3.661-5.244,7.397-5.244,11.931
							c0,4.533,3.125,8.27,5.243,11.931c2.185,3.777,3.933,8.327,7.709,10.512c3.661,2.118,8.425,1.417,12.958,1.417
							c4.533,0,9.297,0.701,12.958-1.417c3.776-2.185,5.524-6.735,7.709-10.512c2.118-3.661,5.244-7.397,5.244-11.931
							C1615.679,833.115,1612.553,829.379,1610.436,825.718z M1589.768,847.415c-5.394,0-9.766-4.373-9.766-9.766
							c0-5.394,4.373-9.766,9.766-9.766c5.394,0,9.766,4.373,9.766,9.766C1599.535,843.042,1595.162,847.415,1589.768,847.415z"/>
					</g>
				</g>
				<g>
					<g>
						<path fill="#FFD829" d="M1714.015,737.491c-0.479,0-0.961-0.137-1.389-0.422l-202.245-135.312
							c-1.147-0.768-1.455-2.32-0.688-3.469c0.769-1.147,2.32-1.453,3.469-0.688l202.245,135.312
							c1.147,0.768,1.455,2.32,0.688,3.469C1715.612,737.102,1714.82,737.491,1714.015,737.491z"/>
					</g>
				</g>
				<g>
					<g>
						<path fill="#FFD829" d="M1750.101,662.966c-0.31,0-0.625-0.059-0.93-0.181l-229.866-92.221
							c-1.281-0.515-1.903-1.97-1.39-3.251c0.514-1.28,1.972-1.902,3.251-1.39l229.866,92.221c1.281,0.515,1.903,1.97,1.39,3.251
							C1752.03,662.372,1751.092,662.966,1750.101,662.966z"/>
					</g>
				</g>
				<g>
					<g>
						<path fill="#FFD829" d="M1666.372,800.832c-0.645,0-1.288-0.247-1.777-0.742l-169.261-171.099
							c-0.971-0.981-0.963-2.564,0.02-3.535c0.981-0.972,2.563-0.964,3.535,0.02l169.261,171.099
							c0.971,0.981,0.963,2.564-0.02,3.535C1667.643,800.592,1667.008,800.832,1666.372,800.832z"/>
					</g>
				</g>
				<g>
					<g>
						<path fill="#FFD829" d="M1566.077,795.169c-0.828,0-1.639-0.411-2.114-1.163l-90.143-142.411
							c-0.738-1.166-0.392-2.711,0.775-3.449c1.166-0.737,2.711-0.393,3.449,0.775l90.143,142.411
							c0.738,1.166,0.392,2.711-0.775,3.449C1566.997,795.044,1566.535,795.169,1566.077,795.169z"/>
					</g>
				</g>
			</g>
			<g>
				<g>
					<g>
						<circle cx="368.257" cy="512.279" r="15.561"/>
					</g>
				</g>
				<g>
					<g>
						<circle cx="383.821" cy="496.714" r="15.561"/>
					</g>
				</g>
				<g>
					<g>
						<path fill="#FFD829" d="M427.935,436.552c-0.598,0-1.199-0.214-1.677-0.646L242.624,269.622
							c-1.023-0.927-1.102-2.508-0.175-3.531c0.925-1.023,2.507-1.103,3.531-0.176l183.634,166.283
							c1.023,0.927,1.102,2.508,0.175,3.531C429.295,436.275,428.616,436.552,427.935,436.552z"/>
					</g>
				</g>
				<g>
					<g>
						<path fill="#FFD829" d="M411.448,465.606c-0.322,0-0.65-0.063-0.966-0.195l-226.667-95.072
							c-1.273-0.534-1.873-1.999-1.338-3.272c0.534-1.274,1.999-1.869,3.272-1.339l226.667,95.072
							c1.273,0.534,1.873,1.999,1.339,3.272C413.353,465.029,412.425,465.606,411.448,465.606z"/>
					</g>
				</g>
				<g>
					<g>
						<path fill="#FFD829" d="M325.755,505.454c-0.08,0-0.161-0.004-0.242-0.012l-169.054-16.234
							c-1.375-0.132-2.382-1.353-2.25-2.728c0.132-1.374,1.363-2.37,2.728-2.249l169.054,16.234c1.375,0.132,2.382,1.353,2.25,2.728
							C328.117,504.486,327.028,505.454,325.755,505.454z"/>
					</g>
				</g>
			</g>
			<g>
				<g>
					<g>
						<path d="M1521.26,177.364c10.965,0,19.885,8.92,19.885,19.885s-8.92,19.885-19.885,19.885s-19.885-8.92-19.885-19.885
							S1510.295,177.364,1521.26,177.364 M1521.26,172.364c-13.744,0-24.885,11.142-24.885,24.885s11.141,24.885,24.885,24.885
							c13.744,0,24.885-11.142,24.885-24.885S1535.004,172.364,1521.26,172.364L1521.26,172.364z"/>
					</g>
				</g>
				<g>
					<g>
						<circle fill="#FFD829" cx="1521.26" cy="197.249" r="8.976"/>
					</g>
				</g>
				<g>
					<g>
						<path fill="#FFD829" d="M1438.491,400.965c-0.317,0-0.64-0.061-0.95-0.189c-1.277-0.525-1.886-1.986-1.36-3.263
							l67.126-163.098c0.526-1.277,1.99-1.889,3.263-1.36c1.277,0.525,1.886,1.986,1.36,3.263l-67.126,163.098
							C1440.406,400.381,1439.475,400.965,1438.491,400.965z"/>
					</g>
				</g>
				<g>
					<g>
						<path fill="#FFD829" d="M1408.641,391.069c-0.215,0-0.433-0.028-0.649-0.086c-1.334-0.358-2.125-1.729-1.768-3.062
							l61.878-230.688c0.358-1.334,1.732-2.122,3.062-1.768c1.334,0.358,2.125,1.729,1.768,3.062l-61.878,230.688
							C1410.754,390.333,1409.744,391.069,1408.641,391.069z"/>
					</g>
				</g>
				<g>
					<g>
						<path fill="#FFD829" d="M1346.047,392.095c-1.132,0-2.158-0.774-2.431-1.924l-54.699-230.688
							c-0.318-1.344,0.513-2.691,1.855-3.01c1.349-0.324,2.691,0.513,3.01,1.855l54.699,230.688c0.318,1.344-0.513,2.691-1.855,3.01
							C1346.432,392.072,1346.237,392.095,1346.047,392.095z"/>
					</g>
				</g>
				<g>
					<g>
						<path fill="#FFD829" d="M1377.049,389.018c-0.033,0-0.065-0.001-0.099-0.002c-1.38-0.054-2.455-1.216-2.401-2.595
							l9.193-236.716c0.053-1.38,1.219-2.465,2.595-2.401c1.38,0.054,2.455,1.216,2.401,2.595l-9.193,236.716
							C1379.493,387.961,1378.385,389.018,1377.049,389.018z"/>
					</g>
				</g>
			</g>
			<g>
				<g>
					<g>
						<g>
							<path d="M595.219,687.145c0.575,0,1.159,0.025,1.735,0.075c10.924,0.941,19.046,10.594,18.105,21.519
								c-0.878,10.194-9.568,18.18-19.784,18.18c-0.575,0-1.159-0.025-1.735-0.075c-10.924-0.941-19.046-10.594-18.105-21.519
								C576.314,695.13,585.004,687.145,595.219,687.145 M595.219,682.145c-12.778,0-23.648,9.784-24.765,22.75
								c-1.18,13.693,8.964,25.75,22.657,26.929c0.726,0.062,1.449,0.093,2.164,0.093c12.778,0,23.648-9.784,24.765-22.751
								c1.18-13.693-8.964-25.75-22.657-26.929C596.657,682.175,595.935,682.145,595.219,682.145L595.219,682.145z"/>
						</g>
					</g>
					<g>
						<g>
							<circle fill="#FFD829" cx="595.248" cy="707.031" r="11.362"/>
						</g>
					</g>
				</g>
				<g>
					<g>
						<path fill="#FFD829" d="M686.12,903.337c-0.976,0-1.903-0.576-2.306-1.532l-65.982-156.952
							c-0.535-1.272,0.063-2.738,1.336-3.273c1.271-0.534,2.738,0.063,3.273,1.336l65.982,156.952
							c0.535,1.272-0.063,2.738-1.336,3.273C686.771,903.274,686.443,903.337,686.12,903.337z"/>
					</g>
				</g>
				<g>
					<g>
						<path fill="#FFD829" d="M595.245,926.787c-1.182,0-2.232-0.841-2.455-2.045L549.66,691.715
							c-0.251-1.357,0.646-2.662,2.003-2.913c1.355-0.25,2.662,0.645,2.913,2.003l43.129,233.027
							c0.251,1.357-0.646,2.662-2.003,2.913C595.549,926.774,595.396,926.787,595.245,926.787z"/>
					</g>
				</g>
				<g>
					<g>
						<path fill="#FFD829" d="M430.588,918.026c-0.24,0-0.485-0.035-0.727-0.108c-1.321-0.401-2.067-1.797-1.667-3.118
							l69.257-228.358c0.401-1.321,1.799-2.068,3.118-1.667c1.321,0.401,2.067,1.797,1.667,3.118L432.98,916.25
							C432.652,917.329,431.661,918.026,430.588,918.026z"/>
					</g>
				</g>
				<g>
					<g>
						<path fill="#FFD829" d="M508.757,931.665c-0.061,0-0.123-0.002-0.185-0.007c-1.377-0.101-2.412-1.298-2.311-2.675
							L523.6,691.496c0.101-1.377,1.295-2.417,2.675-2.312c1.377,0.101,2.412,1.298,2.311,2.675l-17.338,237.487
							C511.152,930.662,510.056,931.665,508.757,931.665z"/>
					</g>
				</g>
			</g>
			<g>
				<g>
					
						<rect x="849.371" y="496.642" transform="matrix(0.7071 -0.7071 0.7071 0.7071 -209.7118 792.5463)" fill="#FFFFFF" width="4.999" height="305.572"/>
				</g>
			</g>
			<g>
				<g>
					
						<rect x="1065.582" y="277.872" transform="matrix(0.7074 -0.7068 0.7068 0.7074 8.0867 880.9109)" fill="#FFFFFF" width="5" height="305.632"/>
				</g>
			</g>
			<g>
				<g>
					<path d="M1010.186,695.669c-13.744,0-24.885,11.141-24.885,24.885c0,13.744,11.142,24.885,24.885,24.885
						c13.744,0,24.885-11.142,24.885-24.885C1035.072,706.811,1023.93,695.669,1010.186,695.669z M1022.161,727.476l-2.092,0.163
						c-2.02,0.158-3.709,1.598-4.183,3.568l-0.491,2.04c-1.06,4.405-7.137,4.879-8.869,0.692l-0.802-1.939
						c-0.774-1.872-2.666-3.033-4.686-2.876l-2.092,0.163c-4.517,0.353-6.846-5.28-3.399-8.221l1.597-1.362
						c1.542-1.315,2.061-3.473,1.287-5.345l-0.802-1.939c-1.731-4.187,2.907-8.143,6.768-5.773l1.789,1.098
						c1.727,1.06,3.94,0.887,5.481-0.428l1.597-1.362c3.447-2.94,8.642,0.248,7.582,4.653l-0.491,2.04
						c-0.474,1.97,0.374,4.021,2.101,5.081l1.789,1.098C1028.105,721.197,1026.678,727.123,1022.161,727.476z"/>
				</g>
			</g>
		</g>
		<g>
			<g>
				<circle fill="#FFD829" cx="675.087" cy="403.273" r="9.584"/>
			</g>
			<g>
				<path d="M675.087,415.358c-6.664,0-12.084-5.421-12.084-12.084c0-6.664,5.421-12.085,12.084-12.085
					c6.663,0,12.084,5.421,12.084,12.085C687.171,409.937,681.75,415.358,675.087,415.358z M675.087,396.189
					c-3.906,0-7.084,3.179-7.084,7.085s3.178,7.084,7.084,7.084s7.084-3.178,7.084-7.084S678.994,396.189,675.087,396.189z"/>
			</g>
		</g>
		<g>
			<g>
				<g>
					
						<rect x="845.292" y="426.676" transform="matrix(0.7071 -0.7071 0.7071 0.7071 -101.2589 837.7124)" width="230.566" height="228.821"/>
				</g>
			</g>
			<g>
				<g>
					<path d="M961.192,382.204l158.265,158.265L959.957,699.968L801.693,541.703L961.192,382.204 M961.192,375.133l-166.57,166.57
						l165.336,165.336l166.57-166.57L961.192,375.133L961.192,375.133z"/>
				</g>
			</g>
		</g>
		<g>
			<g>
				<g>
					<path fill="#FFD829" d="M912.172,492.364c-28.265,28.265-28.265,74.092,0,102.357l35.044,35.044
						c11.778,11.778,30.875,11.778,42.653,0l59.704-59.704c11.778-11.778,11.778-30.875,0-42.653l-35.044-35.044
						C986.264,464.099,940.437,464.099,912.172,492.364z"/>
				</g>
			</g>
			<g>
				<g>
					<circle fill="#FFFFFF" cx="962.4" cy="594.964" r="21.983"/>
				</g>
			</g>
			<g>
				<g>
					<path fill="#FFFFFF" d="M1026.18,504.015c13.109-13.108,13.109-34.361,0-47.47l-29.204-29.204
						c-5.462-5.462-14.319-5.462-19.781,0l-27.689,27.689c-5.462,5.462-5.462,14.319,0,19.781l29.204,29.204
						C991.819,517.124,1013.072,517.124,1026.18,504.015z"/>
				</g>
			</g>
			<g>
				<g>
					<g>
						
							<ellipse transform="matrix(0.7071 -0.7071 0.7071 0.7071 -138.3591 855.9005)" cx="963.984" cy="594.964" rx="10.809" ry="10.81"/>
					</g>
				</g>
				<g>
					<g>
						
							<ellipse transform="matrix(0.7071 -0.7071 0.7071 0.7071 -84.6012 878.1677)" cx="1017.742" cy="541.206" rx="10.809" ry="10.81"/>
					</g>
				</g>
				<g>
					<g>
						<path d="M1000.63,563.488c4.386,4.386,6.977,17.218,4.157,20.037c-2.523,2.523-15.652,0.229-20.037-4.157
							s-4.386-11.496-0.001-15.881C989.134,559.102,996.244,559.103,1000.63,563.488z"/>
					</g>
				</g>
				<g>
					<g>
						<path d="M1000.556,599.191c-0.95,0-1.858-0.545-2.277-1.466c-0.566-1.245-0.027-2.711,1.204-3.294
							c0.522-0.267,4.697-2.712,1.095-11.27c-0.536-1.272,0.061-2.738,1.334-3.273c1.271-0.537,2.738,0.061,3.273,1.333
							c5.629,13.366-3.503,17.702-3.596,17.744C1001.253,599.118,1000.901,599.191,1000.556,599.191z"/>
					</g>
				</g>
				<g>
					<g>
						<path d="M1010.479,585.755c-2.206,0-4.852-0.508-7.996-1.832c-1.272-0.535-1.87-2.001-1.334-3.273
							c0.535-1.273,2.002-1.872,3.273-1.334c8.594,3.619,11.024-0.606,11.273-1.101c0.572-1.257,2.045-1.79,3.301-1.22
							c1.257,0.571,1.803,2.075,1.23,3.332C1020.194,580.398,1017.651,585.755,1010.479,585.755z"/>
					</g>
				</g>
			</g>
			<g>
				<g>
					<path fill="#FFFFFF" d="M923.823,606.372c13.108-13.108,13.108-34.362,0-47.47l-29.204-29.204
						c-5.462-5.462-14.319-5.462-19.781,0l-27.689,27.689c-5.462,5.462-5.462,14.319,0,19.781l29.204,29.204
						C889.462,619.481,910.715,619.481,923.823,606.372z"/>
				</g>
			</g>
		</g>
		<g>
			<g>
				<path fill="#FFD829" d="M1640.685,310.022c-13.433,7.454,3.867,67.989,11.322,81.422c7.454,13.433,45.996,61.076,59.429,53.621
					c13.433-7.454-3.33-67.183-10.785-80.616C1693.197,351.017,1654.118,302.568,1640.685,310.022z M1676.292,361.516
					c1.892-1.05,5.128,1.166,7.228,4.95s2.268,7.702,0.376,8.752c-1.892,1.05-5.128-1.166-7.228-4.95
					S1674.4,362.566,1676.292,361.516z M1662.131,369.375c1.892-1.05,5.128,1.166,7.228,4.95s2.268,7.702,0.376,8.752
					c-1.892,1.05-5.128-1.166-7.228-4.95S1660.239,370.424,1662.131,369.375z M1694.323,388.859
					c-0.838,0.465-1.893,0.163-2.358-0.675c-2.261-4.075-7.416-5.551-11.491-3.289c-4.075,2.262-5.55,7.417-3.289,11.492
					c0.465,0.838,0.163,1.893-0.675,2.358c-0.838,0.465-1.893,0.163-2.358-0.675c-3.19-5.748-1.109-13.018,4.639-16.208
					c5.747-3.189,13.018-1.108,16.207,4.639C1695.463,387.339,1695.161,388.395,1694.323,388.859z"/>
			</g>
		</g>
		<g>
			<g>
				<g>
					<path d="M1594.196,474.738l-38.919,6.112c-1.486-10.409-4.243-19.916-7.491-28.27l30.454-13.948
						c2.644-1.211,3.807-4.337,2.595-6.981c-1.212-2.645-4.34-3.805-6.98-2.595l-30.258,13.859
						c-5.239-10.959-10.86-19.138-14.303-23.684l28.736-26.187c2.151-1.959,2.305-5.29,0.346-7.44
						c-1.959-2.148-5.29-2.305-7.44-0.346l-32.392,29.518c-2.123,1.934-2.3,5.217-0.405,7.374
						c0.237,0.269,23.717,27.378,27.312,65.248c0.137,1.446,0.866,2.771,2.013,3.662c0.93,0.722,2.068,1.107,3.23,1.107
						c0.272,0,0.545-0.021,0.817-0.064l44.32-6.96c2.874-0.451,4.836-3.147,4.385-6.02
						C1599.765,476.25,1597.066,474.29,1594.196,474.738z"/>
				</g>
			</g>
			<g>
				<g>
					<path d="M1636.796,410.452l-15.547,7.124c-2.644,1.211-3.806,4.337-2.594,6.981c1.211,2.645,4.337,3.805,6.981,2.594
						l11.492-5.266c4.651,7.408,11.252,20.847,8.354,29.978c-1.397,4.402-4.987,7.508-10.976,9.494
						c-5.324,1.764-10.665-0.084-16.323-5.656c-19.172-18.88-31.927-71.962-26.933-87.829c1.544-4.905,3.722-7.837,6.472-8.716
						c4.329-1.382,10.168,2.006,12.051,3.429c2.306,1.757,5.6,1.322,7.369-0.979c1.773-2.306,1.34-5.612-0.966-7.385
						c-1.126-0.866-11.297-8.365-21.595-5.118c-6.235,1.965-10.736,7.216-13.376,15.607c-3.618,11.494-0.207,32.538,4.192,48.4
						c6.083,21.933,15.339,40.192,25.398,50.097c7.269,7.159,14.143,9.332,19.813,9.332c2.711,0,5.146-0.497,7.216-1.184
						c9.298-3.084,15.255-8.577,17.707-16.327c5.768-18.235-11.568-41.925-12.309-42.925
						C1641.737,410.103,1639.056,409.415,1636.796,410.452z"/>
				</g>
			</g>
			<g>
				<g>
					<path d="M1708.379,370.967c-1.423-2.59-2.94-5.468-4.545-8.515c-9.771-18.548-23.153-43.951-42.461-54.523
						c-8.61-4.714-17.845-5.422-24.704-1.895c-5.777,2.97-9.459,8.758-10.369,16.297c-2.035,16.885,6.002,36.748,11.32,49.891
						c6.332,15.648,15.076,29.669,24.235,43.847c6.814,10.546,23.294,36.054,42.228,36.054c3.173,0,6.414-0.716,9.689-2.338
						c5.656-2.801,9.515-7.376,11.467-13.597C1731.471,416.336,1715.525,383.963,1708.379,370.967z M1715.19,433.034
						c-1.089,3.47-3.025,5.794-6.091,7.313c-5.787,2.863-12.51,0.557-20.557-7.055c-7.768-7.348-14.319-17.489-17.839-22.937
						c-8.873-13.735-17.333-27.289-23.318-42.082c-4.913-12.141-12.338-30.49-10.627-44.68c0.492-4.075,2.082-6.831,4.729-8.191
						c1.387-0.713,3.055-1.063,4.888-1.063c3.042,0,6.536,0.964,9.941,2.829c16.526,9.048,29.053,32.829,38.2,50.193
						c1.627,3.09,3.165,6.008,4.634,8.681C1709.59,395.033,1719.287,419.979,1715.19,433.034z"/>
				</g>
			</g>
		</g>
		<g>
			<g>
				<g>
					<g>
						<g>
							<path fill="#FFD829" d="M1505.675,403.605c0.316,0.235,0.474,0.353,0.789,0.588c0.415,0.309,0.379,0.826-0.114,1.397
								c-0.442,0.512-0.998,0.692-1.405,0.389c-4.944-3.682-7.414-5.522-12.359-9.206c-0.407-0.303-0.417-0.854-0.009-1.491
								c0.364-0.569,0.87-0.786,1.285-0.476c2.168,1.615,3.251,2.422,5.419,4.037c-0.25-1.72,0.52-3.869,1.826-5.714
								c2.798-3.951,6.829-5.005,9.858-2.749c3.029,2.256,3.049,6.328-0.12,10.002
								C1509.364,402.097,1507.438,403.433,1505.675,403.605z M1509.473,392.285c-2.293-1.708-5.213-0.964-7.241,1.83
								c-2.027,2.793-1.992,5.736,0.1,7.295c2.093,1.559,5.012,0.816,7.239-1.828
								C1511.799,396.938,1511.766,393.994,1509.473,392.285z"/>
						</g>
					</g>
					<g>
						<g>
							<path fill="#FFD829" d="M1505.387,406.628c-0.264,0-0.518-0.081-0.741-0.249l-12.358-9.205
								c-0.495-0.37-0.79-1.132-0.133-2.162c0.295-0.459,0.682-0.754,1.092-0.829c0.321-0.059,0.64,0.018,0.913,0.221l4.587,3.417
								c0.096-1.547,0.787-3.335,1.952-4.981c1.607-2.271,3.682-3.709,5.841-4.052c1.688-0.266,3.32,0.145,4.724,1.19
								c1.406,1.048,2.246,2.481,2.429,4.144c0.234,2.131-0.643,4.47-2.469,6.586c-1.338,1.551-2.908,2.67-4.377,3.152
								c0.229,0.198,0.365,0.454,0.396,0.745c0.032,0.289-0.031,0.753-0.514,1.312
								C1506.327,406.383,1505.843,406.628,1505.387,406.628z M1493.456,395.164c-0.011,0-0.021,0.001-0.03,0.003
								c-0.1,0.018-0.266,0.129-0.429,0.384c-0.117,0.184-0.364,0.633-0.112,0.821l12.358,9.205
								c0.193,0.147,0.504-0.055,0.728-0.313c0.222-0.257,0.289-0.452,0.278-0.55c-0.003-0.021-0.007-0.062-0.084-0.119l-1.828-1.36
								l1.289-0.127c1.508-0.147,3.317-1.289,4.839-3.053c1.644-1.904,2.436-3.973,2.232-5.824c-0.151-1.38-0.854-2.573-2.032-3.45
								c-1.183-0.882-2.553-1.227-3.97-1.005c-1.891,0.3-3.73,1.593-5.181,3.642c-1.308,1.848-1.958,3.849-1.739,5.353l0.173,1.193
								l-6.386-4.757C1493.519,395.173,1493.484,395.164,1493.456,395.164z M1504.769,402.726c-0.972,0-1.908-0.299-2.735-0.914
								c-2.332-1.737-2.415-4.948-0.206-7.99c1.178-1.623,2.698-2.649,4.28-2.891c1.295-0.197,2.561,0.133,3.664,0.953
								c1.104,0.823,1.768,1.933,1.915,3.209c0.181,1.562-0.435,3.27-1.732,4.812
								C1508.398,401.75,1506.524,402.726,1504.769,402.726z M1506.829,391.875c-0.189,0-0.38,0.015-0.571,0.044
								c-1.315,0.201-2.602,1.085-3.622,2.49c-1.861,2.563-1.863,5.216-0.005,6.6c1.87,1.394,4.505,0.689,6.558-1.749
								c1.119-1.328,1.653-2.768,1.505-4.052c-0.115-0.996-0.641-1.867-1.52-2.521l0,0
								C1508.455,392.151,1507.654,391.875,1506.829,391.875z"/>
						</g>
					</g>
				</g>
				<g>
					<g>
						<g>
							<path fill="#FFD829" d="M1530.391,375.711c0.461,0.344,0.475,0.897-0.095,1.561c-3.71,4.32-5.565,6.48-9.275,10.8
								c-0.57,0.664-1.122,0.797-1.534,0.49c-0.388-0.289-0.374-0.823,0.188-1.493c0.766-0.913,2.015-2.259,2.807-3.153
								c-3.265-2.432-4.897-3.648-8.162-6.08c-0.629,0.917-1.699,2.542-2.378,3.472c-0.515,0.705-1.039,0.859-1.451,0.552
								c-0.388-0.289-0.401-0.844,0.105-1.555c1.224-1.72,1.836-2.58,3.061-4.3c0.46-0.647,1.043-0.806,1.555-0.425
								c0.297,0.221,0.445,0.332,0.742,0.553c-0.694-1.753,0.06-4.06,1.253-5.744c0.734-1.036,1.887-2.206,3.078-2.704
								c0.545-0.236,0.958-0.225,1.313,0.04c0.465,0.346,0.459,0.986,0.13,1.432c-0.354,0.48-0.798,0.742-1.268,0.986
								c-0.791,0.4-1.54,0.981-2.193,1.88c-1.678,2.311-1.111,5.007,1.166,6.704c1.822,1.357,2.733,2.036,4.556,3.394
								c1.124-1.388,3.881-4.826,4.825-5.952C1529.378,375.5,1529.957,375.388,1530.391,375.711z"/>
						</g>
					</g>
					<g>
						<g>
							<path fill="#FFD829" d="M1519.958,389.219c-0.375,0-0.648-0.165-0.77-0.255c-0.264-0.196-0.423-0.467-0.46-0.783
								c-0.052-0.443,0.138-0.925,0.563-1.433c0.505-0.603,1.219-1.392,1.875-2.116c0.201-0.223,0.396-0.438,0.578-0.641
								l-7.305-5.441c-0.129,0.19-0.269,0.396-0.412,0.611c-0.566,0.841-1.216,1.805-1.682,2.443
								c-0.385,0.526-0.804,0.827-1.245,0.894c-0.317,0.053-0.637-0.031-0.909-0.234c-0.506-0.378-0.772-1.166-0.003-2.247
								l3.061-4.3c0.334-0.469,0.743-0.754,1.185-0.822c0.257-0.045,0.517-0.005,0.762,0.102c-0.12-1.737,0.675-3.583,1.603-4.895
								c0.354-0.5,1.64-2.185,3.295-2.876c0.709-0.307,1.302-0.275,1.804,0.101c0.652,0.486,0.756,1.422,0.234,2.129
								c-0.423,0.575-0.943,0.875-1.439,1.133c-0.812,0.41-1.471,0.976-2.02,1.729c-1.471,2.026-1.044,4.441,1.062,6.009l4.17,3.106
								l0.939-1.164c1.277-1.585,2.906-3.606,3.59-4.42c0.844-1.008,1.718-0.939,2.256-0.539l0,0
								c0.311,0.231,0.495,0.539,0.534,0.892c0.049,0.446-0.136,0.916-0.549,1.396l-9.274,10.801
								C1520.851,389.038,1520.35,389.219,1519.958,389.219z M1514.202,377.125l9.016,6.716l-0.361,0.408
								c-0.274,0.309-0.603,0.672-0.947,1.054c-0.648,0.716-1.353,1.494-1.852,2.088c-0.268,0.32-0.35,0.558-0.336,0.673
								c0.004,0.028,0.012,0.059,0.064,0.098c0.27,0.203,0.689-0.222,0.856-0.415l9.274-10.801c0.306-0.355,0.32-0.562,0.312-0.634
								c-0.003-0.029-0.012-0.106-0.138-0.199v-0.001c-0.308-0.227-0.69,0.14-0.893,0.38c-0.681,0.811-2.304,2.825-3.576,4.404
								l-1.546,1.913l-4.94-3.68c-2.539-1.891-3.062-4.934-1.272-7.399c0.645-0.886,1.42-1.551,2.372-2.031
								c0.403-0.209,0.794-0.434,1.091-0.836c0.164-0.224,0.211-0.558-0.027-0.735c-0.148-0.111-0.352-0.184-0.814,0.02
								c-1.127,0.47-2.221,1.616-2.87,2.533c-0.972,1.372-1.867,3.576-1.196,5.271l0.647,1.635l-2.152-1.602
								c-0.114-0.086-0.221-0.118-0.325-0.102c-0.166,0.026-0.353,0.174-0.524,0.415l-3.061,4.3
								c-0.22,0.309-0.407,0.721-0.214,0.865c0.072,0.053,0.122,0.052,0.162,0.048c0.06-0.009,0.277-0.071,0.586-0.495
								c0.46-0.631,1.102-1.582,1.66-2.412c0.264-0.392,0.509-0.756,0.71-1.049L1514.202,377.125z"/>
						</g>
					</g>
				</g>
				<g>
					<g>
						<g>
							<path fill="#FFD829" d="M1529.213,367.064c-3.666-2.731-4.047-7.911-1.089-12.089c2.958-4.178,8.171-5.191,12.24-2.16
								c4.07,3.031,4.441,8.204,1.089,12.089C1538.102,368.789,1532.88,369.795,1529.213,367.064z M1538.873,354.721
								c-3.058-2.278-6.991-1.448-9.112,1.472c-2.12,2.921-1.889,6.853,0.945,8.963c2.833,2.11,6.782,1.293,9.112-1.473
								C1542.147,360.92,1541.931,356.999,1538.873,354.721z"/>
						</g>
					</g>
					<g>
						<g>
							<path fill="#FFD829" d="M1533.898,369.093c-1.777,0-3.511-0.53-4.984-1.628c-3.824-2.849-4.339-8.343-1.197-12.779
								c1.561-2.204,3.768-3.631,6.214-4.019c2.329-0.373,4.724,0.249,6.733,1.746s3.255,3.587,3.507,5.884
								c0.266,2.416-0.564,4.878-2.338,6.933C1539.654,367.755,1536.721,369.092,1533.898,369.093z M1535.253,351.563
								c-0.389,0-0.778,0.03-1.166,0.092c-2.178,0.346-4.15,1.627-5.554,3.609c-2.82,3.982-2.399,8.883,0.979,11.398l0,0
								c3.391,2.526,8.361,1.627,11.563-2.085c1.59-1.844,2.337-4.034,2.103-6.171c-0.222-2.019-1.327-3.861-3.111-5.19
								C1538.611,352.132,1536.938,351.563,1535.253,351.563z M1534.349,366.861c-1.391,0-2.763-0.425-3.941-1.302
								c-2.934-2.187-3.396-6.429-1.051-9.659c1.156-1.593,2.817-2.626,4.677-2.909c1.788-0.274,3.619,0.198,5.139,1.329l0,0
								c1.521,1.134,2.471,2.73,2.675,4.496c0.213,1.835-0.372,3.678-1.646,5.191
								C1538.624,365.876,1536.466,366.861,1534.349,366.861z M1535.03,353.914c-0.282,0-0.564,0.021-0.847,0.064
								c-1.593,0.243-3.02,1.134-4.019,2.509c-2.053,2.828-1.691,6.383,0.84,8.269c2.539,1.895,6.166,1.294,8.43-1.394
								c1.096-1.3,1.6-2.874,1.419-4.432c-0.173-1.489-0.981-2.843-2.279-3.809C1537.512,354.33,1536.278,353.914,1535.03,353.914z"
								/>
						</g>
					</g>
				</g>
				<g>
					<g>
						<g>
							<path fill="#FFD829" d="M1560.788,341.363c-4.891-0.042-7.282-0.024-11.96,0.092c0.026,2.018,0.029,3.02,0.013,5.007
								c1.652,1.231,2.479,1.846,4.131,3.077c0.661,0.492,0.772,1.118,0.278,1.691c-0.441,0.511-1.145,0.581-1.798,0.094
								c-7.926-5.904-11.89-8.857-19.815-14.76c-0.653-0.486-0.809-1.146-0.403-1.782c0.364-0.57,1.018-0.677,1.679-0.185
								c5.485,4.086,8.228,6.129,13.713,10.216c-0.062-5.428-0.169-8.199-0.536-13.854c-0.026-0.712-0.123-1.18,0.221-1.667
								c0.344-0.485,0.972-0.611,1.573-0.163c0.601,0.447,0.652,0.831,0.7,1.807c0.141,3.29,0.185,4.916,0.223,8.129
								c4.494-0.135,6.79-0.165,11.481-0.154c0.8,0.003,1.237,0.033,1.662,0.35c0.601,0.448,0.679,1.099,0.238,1.611
								C1561.851,341.263,1561.345,341.382,1560.788,341.363z"/>
						</g>
					</g>
					<g>
						<g>
							<path fill="#FFD829" d="M1552.359,352.157c-0.399,0-0.817-0.143-1.205-0.431l-19.814-14.76
								c-0.861-0.642-1.068-1.604-0.525-2.453c0.244-0.381,0.602-0.632,1.009-0.706c0.459-0.083,0.938,0.052,1.39,0.39l12.902,9.611
								c-0.064-4.788-0.179-7.505-0.522-12.817l-0.017-0.33c-0.031-0.569-0.062-1.106,0.328-1.657
								c0.245-0.346,0.599-0.57,0.995-0.633c0.431-0.066,0.884,0.061,1.284,0.358c0.785,0.585,0.852,1.181,0.9,2.183
								c0.134,3.119,0.18,4.718,0.218,7.64c4.199-0.124,6.461-0.158,10.988-0.14c0.85,0.003,1.404,0.035,1.96,0.448
								c0.411,0.307,0.663,0.717,0.711,1.156c0.046,0.415-0.095,0.835-0.395,1.183c-0.401,0.468-0.996,0.684-1.789,0.664
								c-4.727-0.043-7.075-0.025-11.443,0.08c0.02,1.625,0.021,2.605,0.01,4.27l3.928,2.926c0.58,0.433,0.743,0.897,0.777,1.212
								c0.046,0.418-0.099,0.836-0.419,1.207C1553.286,351.954,1552.836,352.157,1552.359,352.157z M1532.085,334.784
								c-0.028,0-0.057,0.003-0.083,0.008c-0.134,0.024-0.25,0.112-0.346,0.261c-0.259,0.406-0.165,0.78,0.281,1.111l19.814,14.76
								c0.421,0.313,0.84,0.306,1.121-0.02c0.136-0.157,0.197-0.307,0.182-0.444c-0.018-0.165-0.153-0.35-0.381-0.519l-4.334-3.229
								l0.002-0.254c0.016-1.983,0.013-2.983-0.014-4.996l-0.007-0.494l0.494-0.013c4.707-0.117,7.056-0.137,11.977-0.093h0.014
								c0.487,0.027,0.807-0.087,1.004-0.317c0.083-0.096,0.177-0.246,0.157-0.421c-0.018-0.162-0.126-0.322-0.314-0.462
								c-0.285-0.213-0.577-0.248-1.365-0.251c-4.688-0.014-6.943,0.02-11.465,0.154l-0.509,0.015l-0.006-0.509
								c-0.038-3.241-0.082-4.834-0.223-8.114c-0.047-0.972-0.104-1.133-0.499-1.427c-0.186-0.139-0.368-0.196-0.53-0.173
								c-0.165,0.026-0.273,0.136-0.335,0.224c-0.181,0.255-0.176,0.498-0.146,1.023l0.017,0.335
								c0.368,5.683,0.474,8.406,0.536,13.867l0.012,1.011l-14.524-10.819C1532.428,334.858,1532.242,334.784,1532.085,334.784z"/>
						</g>
					</g>
				</g>
				<g>
					<g>
						<g>
							<path fill="#FFD829" d="M1558.748,329.401c-4.842-3.607-5.898-9.34-2.985-13.454c2.82-3.982,8.359-4.656,13.171-1.071
								c0.75,0.558,1.041,1.221,0.452,1.97c-3.467,4.403-5.2,6.604-8.667,11.006c3.462,2.28,7.628,1.971,10.189-1.068
								c1.562-1.854,1.91-3.673,1.83-5.711c0.005-0.54-0.146-1.048,0.231-1.508c0.403-0.491,1.178-0.508,1.769-0.067
								s0.729,0.889,0.791,1.726c0.191,1.973-0.477,4.739-2.609,7.209C1569.413,332.498,1563.554,332.981,1558.748,329.401z
								 M1558.864,326.273c3.087-4.013,4.631-6.019,7.718-10.032c-3.213-2.046-6.914-1.242-8.731,1.261
								C1556.031,320.008,1556.401,323.597,1558.864,326.273z"/>
						</g>
					</g>
					<g>
						<g>
							<path fill="#FFD829" d="M1565.626,332.329c-2.403,0-4.904-0.835-7.177-2.527l0,0c-4.894-3.646-6.224-9.726-3.095-14.144
								c1.347-1.902,3.347-3.148,5.629-3.511c2.729-0.43,5.656,0.396,8.25,2.327c0.567,0.423,0.888,0.892,0.954,1.392
								c0.058,0.438-0.08,0.872-0.409,1.289l-8.32,10.566c3.231,1.879,6.825,1.401,9.066-1.26c1.306-1.55,1.802-3.105,1.713-5.37
								c0.001-0.137-0.006-0.248-0.012-0.358c-0.025-0.437-0.058-0.98,0.356-1.486c0.563-0.688,1.642-0.755,2.454-0.151
								c0.744,0.555,0.923,1.163,0.991,2.092c0.239,2.478-0.78,5.312-2.729,7.571
								C1571.257,331.126,1568.511,332.329,1565.626,332.329z M1562.417,313.036c-0.43,0-0.856,0.032-1.276,0.1
								c-2.015,0.319-3.78,1.42-4.97,3.101c-2.854,4.028-1.644,9.396,2.876,12.763l0,0c4.562,3.399,10.111,3.029,13.494-0.893
								c1.773-2.057,2.704-4.611,2.489-6.835c-0.059-0.795-0.174-1.062-0.592-1.373c-0.383-0.284-0.856-0.291-1.083-0.018
								c-0.159,0.194-0.154,0.406-0.132,0.795c0.008,0.132,0.015,0.266,0.014,0.401c0.098,2.481-0.484,4.292-1.947,6.029
								c-2.651,3.145-7.11,3.623-10.847,1.163l-0.454-0.3l9.004-11.434c0.158-0.2,0.225-0.377,0.203-0.539
								c-0.029-0.22-0.223-0.469-0.561-0.721C1566.666,313.81,1564.5,313.036,1562.417,313.036z M1558.898,327.048l-0.402-0.437
								c-2.593-2.817-3.024-6.685-1.05-9.403c2.088-2.876,6.131-3.473,9.403-1.39l0.461,0.294L1558.898,327.048z M1562.723,315.581
								c-1.76,0-3.413,0.762-4.468,2.215c-1.59,2.188-1.33,5.276,0.588,7.684l6.996-9.095
								C1564.83,315.845,1563.758,315.581,1562.723,315.581z"/>
						</g>
					</g>
				</g>
				<g>
					<g>
						<g>
							<path fill="#FFD829" d="M1590.155,305.846c-3.823-2.848-5.735-4.272-9.558-7.121c-4.286-3.193-7.128-2.737-8.643-0.65
								c-1.655,2.279-1.371,5.212,2.791,8.312c3.66,2.726,5.489,4.089,9.148,6.815c0.824,0.614,1.032,1.314,0.539,1.886
								c-0.442,0.512-1.244,0.509-2.06-0.099c-6.268-4.669-9.402-7.004-15.67-11.673c-0.816-0.608-1.053-1.329-0.617-1.945
								c0.39-0.55,1.159-0.57,1.983,0.044c0.478,0.356,0.717,0.534,1.195,0.89c-1.113-2.313-0.657-4.495,0.605-6.277
								c2.293-3.238,6.403-3.442,11.595,0.426c4.084,3.043,6.126,4.564,10.21,7.606c0.865,0.645,1.099,1.362,0.605,1.935
								C1591.838,306.506,1591.012,306.485,1590.155,305.846z"/>
						</g>
					</g>
					<g>
						<g>
							<path fill="#FFD829" d="M1583.598,315.958c-0.483,0.001-1.016-0.189-1.523-0.568l-15.671-11.672
								c-1.251-0.934-1.195-1.974-0.727-2.636c0.236-0.333,0.572-0.543,0.972-0.605c0.513-0.081,1.069,0.081,1.624,0.469
								c-0.37-1.771,0.033-3.574,1.188-5.206c1.032-1.457,2.381-2.327,4.01-2.585c2.381-0.378,5.242,0.627,8.293,2.898l10.21,7.606
								c0.63,0.47,0.993,1.002,1.053,1.539c0.044,0.404-0.083,0.792-0.368,1.123c-0.635,0.732-1.76,0.702-2.802-0.075l-9.559-7.12
								c-2.212-1.647-4.184-2.403-5.713-2.164c-0.899,0.137-1.648,0.61-2.228,1.407c-1.73,2.385-0.802,5.019,2.687,7.617
								l9.148,6.814c0.594,0.443,0.938,0.953,0.996,1.476c0.044,0.407-0.086,0.801-0.377,1.139
								C1584.498,315.778,1584.071,315.958,1583.598,315.958z M1566.904,301.456c-0.034,0-0.067,0.003-0.099,0.008
								c-0.132,0.021-0.233,0.085-0.312,0.196c-0.354,0.499,0.167,1.001,0.508,1.256l15.671,11.672
								c0.564,0.422,1.107,0.491,1.382,0.174c0.145-0.167,0.149-0.295,0.141-0.376c-0.025-0.232-0.244-0.518-0.6-0.782l-9.148-6.814
								c-5.328-3.97-4.103-7.348-2.897-9.008c0.73-1.007,1.729-1.632,2.886-1.809c1.821-0.28,3.994,0.515,6.461,2.351l9.559,7.122
								c0.597,0.443,1.178,0.536,1.447,0.223c0.136-0.157,0.14-0.281,0.131-0.36c-0.027-0.247-0.267-0.556-0.656-0.846l-10.21-7.606
								c-2.83-2.108-5.434-3.046-7.539-2.714c-1.353,0.215-2.479,0.946-3.35,2.176c-0.907,1.28-1.741,3.321-0.563,5.771l0.881,1.831
								l-2.825-2.104C1567.459,301.583,1567.149,301.456,1566.904,301.456z"/>
						</g>
					</g>
				</g>
			</g>
		</g>
		<g>
			<g>
				<g>
					<circle fill="#FFFFFF" cx="490.828" cy="247.114" r="52.681"/>
				</g>
			</g>
			<g>
				<g>
					<path d="M503.366,346.922c-4.667,0.001-9.065-1.356-12.84-4.023c-10.153-7.173-16.184-21.719-17.657-32.951
						c-2.302-17.549,1.246-36.438,9.732-51.825c2.104-3.813,4.474-7.346,7.08-10.572c-24.896-11.191-55.806-7.388-76.018,10.054
						l-3.267-3.785c22.02-19.001,55.861-22.912,82.71-10.192c8.449-8.947,18.928-15.021,30.594-17.561
						c13.625-2.967,27.583-2.07,40.362,2.594c10.237,3.735,19.404,9.689,27.246,17.697c18.469,18.859,25.68,43.099,22.692,76.28
						l-4.979-0.449c2.846-31.613-3.918-54.598-21.285-72.333c-7.316-7.47-15.858-13.021-25.388-16.498
						c-11.889-4.34-24.886-5.173-37.584-2.406c-10.751,2.342-19.779,7.771-26.981,15.102c0.312,0.177,0.623,0.355,0.933,0.537
						c21.861,12.805,41.158,54.481,31.694,81.201c-2.906,8.204-10.178,15.039-18.979,17.835
						C508.701,346.492,505.991,346.922,503.366,346.922z M494.342,249.86c-13.38,16.094-19.168,39.208-16.515,59.437
						c1.331,10.152,6.667,23.217,15.584,29.518c4.589,3.242,10.451,3.968,16.505,2.046c7.229-2.297,13.423-8.083,15.781-14.74
						c8.591-24.259-9.634-63.576-29.509-75.217C495.577,250.545,494.963,250.198,494.342,249.86z"/>
				</g>
			</g>
			<g>
				<g>
					<polygon points="652.787,286.665 634.414,298.836 651.966,312.167 629.94,311.208 636.321,332.311 619.064,318.582 
						611.818,339.409 605.931,318.164 587.828,330.748 595.536,310.1 573.502,309.634 591.875,297.463 574.323,284.131 
						596.349,285.09 589.968,263.988 607.225,277.717 614.471,256.89 620.358,278.135 638.461,265.551 630.753,286.199 					"/>
				</g>
			</g>
			<g>
				<g>
					<g>
						<path fill="#FFD829" d="M642.025,231.145c-9.019-9.02-9.018-23.643,0.002-32.664c-9.02,9.02-23.644,9.021-32.664,0.001
							c9.019,9.02,9.019,23.644-0.002,32.664C618.381,222.127,633.005,222.126,642.025,231.145z"/>
					</g>
				</g>
			</g>
		</g>
		<g>
			<g>
				<g>
					<g>
						<path fill="#FFFFFF" d="M309.844,796.435c-4.268,0-8.591-0.33-12.958-0.994c-33.201-5.046-66.131-29.012-85.938-62.543
							c-19.346-32.749-24.329-72.309-13.003-103.239c8.951-24.446,27.317-42.118,53.114-51.105
							c24.826-8.648,56.175-10.366,83.858-4.595c31.714,6.611,56.508,22.398,69.813,44.452l0,0
							c13.335,22.102,15.458,51.651,5.977,83.207c-8.268,27.519-24.845,54.483-44.345,72.13
							C349.817,788.718,330.486,796.434,309.844,796.435z M301.341,575.582c-17.082,0-34.033,2.604-48.639,7.692
							c-24.333,8.479-41.645,25.111-50.063,48.103c-10.823,29.56-5.991,67.485,12.612,98.978
							c19.063,32.271,50.632,55.316,82.385,60.143c23.952,3.642,46.557-3.434,65.368-20.457
							c18.854-17.062,34.896-43.178,42.912-69.861c9.069-30.187,7.127-58.309-5.469-79.186v-0.001
							c-12.579-20.85-36.214-35.814-66.552-42.14C323.388,576.662,312.336,575.582,301.341,575.582z"/>
					</g>
				</g>
				<g>
					<g>
						<path fill="#FFFFFF" d="M309.627,734.522c-3.26,0-6.583-0.33-9.956-0.996c-16.138-3.187-31.476-14.158-40.027-28.633
							c-8.593-14.545-10.725-32.63-5.705-48.377c4.231-13.273,13.363-23.621,25.714-29.137c12.755-5.694,28.178-7.112,42.313-3.887
							c15.302,3.491,27.641,12.039,34.742,24.069l0,0c7.115,12.053,8.694,27.034,4.445,42.183
							c-3.944,14.063-12.603,26.964-23.756,35.396C329.185,731.349,319.723,734.522,309.627,734.522z M306.578,626.868
							c-8.746,0-17.398,1.733-24.885,5.077c-14.14,6.313-20.306,17.672-22.989,26.089c-4.526,14.196-2.516,31.177,5.246,44.315
							c7.849,13.285,21.908,23.352,36.69,26.271c8.631,1.705,21.492,1.792,33.742-7.469c20.022-15.137,32.042-47.298,18.021-71.049
							l0,0C343.043,634.247,324.616,626.868,306.578,626.868z"/>
					</g>
				</g>
			</g>
		</g>
		<g>
			<g>
				<circle fill="#FFD829" cx="284.826" cy="651.327" r="9.893"/>
			</g>
		</g>
		<g>
			<g>
				<circle fill="#FFD829" cx="324.803" cy="689.754" r="9.893"/>
			</g>
		</g>
		<g>
			<g>
				<circle fill="#FFD829" cx="308.938" cy="645.644" r="9.893"/>
			</g>
		</g>
		<g>
			<g>
				<circle fill="#FFD829" cx="285.826" cy="627.734" r="9.893"/>
			</g>
		</g>
		<g>
			<g>
				<circle fill="#FFD829" cx="259.76" cy="653.343" r="9.893"/>
			</g>
		</g>
		<g>
			<g>
				<circle fill="#FFD829" cx="325.959" cy="627.734" r="9.893"/>
			</g>
		</g>
		<g>
			<g>
				<circle fill="#FFD829" cx="357.728" cy="649.734" r="9.893"/>
			</g>
		</g>
		<g>
			<g>
				<circle fill="#FFD829" cx="359.176" cy="687.166" r="9.893"/>
			</g>
		</g>
		<g>
			<g>
				<circle fill="#FFD829" cx="301.789" cy="672.346" r="9.893"/>
			</g>
		</g>
		<g>
			<g>
				<circle fill="#FFD829" cx="329.989" cy="665.757" r="9.893"/>
			</g>
		</g>
		<g>
			<g>
				<circle fill="#FFD829" cx="359.176" cy="624.294" r="9.893"/>
			</g>
		</g>
		<g>
			<g>
				<circle fill="#FFD829" cx="381.681" cy="668.256" r="9.893"/>
			</g>
		</g>
		<g>
			<g>
				<g>
					<path d="M375.736,714.738c-5.021-9.871-17.093-13.803-26.964-8.783c-4.631,2.356-9.534,4.112-14.576,5.252l7.758,13.132
						c1.499,2.536,0.658,5.808-1.879,7.306c-2.536,1.498-5.808,0.657-7.306-1.88l-10.076-17.055
						c-1.674,0.063-3.351,0.066-5.027-0.006c-3.789-0.164-7.544-0.686-11.223-1.536l1.518,15.38
						c0.289,2.932-1.853,5.544-4.785,5.833c-2.932,0.29-5.543-1.853-5.833-4.785l-1.985-20.109c-3.066-1.35-6.035-2.946-8.87-4.786
						c-2.585-1.678-5.013-3.535-7.284-5.538l-19.04,6.449c-2.79,0.945-5.819-0.551-6.764-3.341c-0.945-2.79,0.551-5.819,3.342-6.764
						l14.432-4.888c-3.395-4.379-6.185-9.184-8.305-14.282l-19.287-2.104c-2.929-0.319-5.044-2.952-4.725-5.881
						c0.319-2.929,2.952-5.044,5.882-4.725l14.689,1.602c-1.188-5.634-1.613-11.478-1.187-17.386
						c0.797-11.047-7.511-20.647-18.557-21.444c-11.046-0.797-20.646,7.51-21.444,18.556c-2.691,37.271,15.093,73.054,46.412,93.384
						c15.349,9.963,33.082,15.646,51.281,16.431c17.641,0.762,35.282-3.065,51.019-11.069
						C376.824,736.681,380.757,724.609,375.736,714.738z"/>
				</g>
			</g>
			<g>
				<g>
					<path fill="#FFD829" d="M238.858,666.351c-0.32,2.929,1.796,5.562,4.725,5.881l19.287,2.104
						c-1.487-3.574-2.637-7.293-3.441-11.108l-14.689-1.602C241.81,661.307,239.177,663.422,238.858,666.351z"/>
				</g>
			</g>
			<g>
				<g>
					<path fill="#FFD829" d="M253.401,700.27c0.945,2.79,3.974,4.287,6.764,3.341l19.04-6.449c-2.957-2.608-5.646-5.468-8.03-8.544
						l-14.432,4.888C253.952,694.451,252.456,697.48,253.401,700.27z"/>
				</g>
			</g>
			<g>
				<g>
					<path fill="#FFD829" d="M340.075,731.644c2.537-1.498,3.378-4.77,1.879-7.306l-7.758-13.132
						c-3.774,0.854-7.627,1.357-11.503,1.503l10.076,17.055C334.267,732.302,337.539,733.143,340.075,731.644z"/>
				</g>
			</g>
			<g>
				<g>
					<path fill="#FFD829" d="M297.344,727.595c0.29,2.932,2.901,5.074,5.833,4.785c2.932-0.289,5.074-2.901,4.785-5.833
						l-1.518-15.38c-3.796-0.876-7.508-2.106-11.084-3.681L297.344,727.595z"/>
				</g>
			</g>
			<g>
				<g>
					<path d="M248.458,606.675c2.272,0.03,3.12,1.616,1.884,3.523l-9.829,15.162c-1.237,1.907-3.216,1.88-4.4-0.059l-9.415-15.423
						c-1.184-1.939-0.293-3.502,1.979-3.471L248.458,606.675z"/>
				</g>
			</g>
			<g>
				<g>
					<path d="M387.273,696.221c-0.965-2.058-2.759-2.176-3.987-0.263l-9.76,15.205c-1.228,1.913-0.388,3.706,1.868,3.985
						l17.932,2.22c2.256,0.278,3.312-1.177,2.347-3.234L387.273,696.221z"/>
				</g>
			</g>
		</g>
		<g>
			<g>
				<g>
					<g>
						<path fill="#FFFFFF" d="M1480.296,883.071c-7.993,0-16.019-1.529-23.611-4.65c-20.502-8.43-35.089-27.338-38.069-49.347
							c-0.12-0.887,0.243-1.77,0.952-2.315c17.598-13.55,41.268-16.729,61.769-8.303c20.502,8.43,35.089,27.338,38.069,49.347
							c0.12,0.887-0.243,1.77-0.952,2.315C1507.373,878.65,1493.884,883.071,1480.296,883.071z M1423.784,829.846
							c3.169,19.628,16.394,36.382,34.801,43.95c18.41,7.568,39.593,4.96,55.651-6.765c-3.169-19.628-16.394-36.382-34.801-43.95
							C1461.022,815.512,1439.841,818.122,1423.784,829.846z"/>
					</g>
				</g>
				<g>
					<g>
						<path fill="#FFFFFF" d="M1516.927,870.639c-0.316,0-0.639-0.061-0.949-0.188l-95.835-39.398
							c-1.277-0.525-1.887-1.986-1.362-3.263c0.525-1.277,1.988-1.887,3.263-1.362l95.835,39.398
							c1.277,0.525,1.887,1.986,1.362,3.263C1518.843,870.055,1517.91,870.639,1516.927,870.639z"/>
					</g>
				</g>
				<g>
					<g>
						<path fill="#FFFFFF" d="M1477.964,854.503c-0.731,0-1.457-0.319-1.95-0.934c-0.865-1.076-0.694-2.65,0.382-3.515
							l20.599-16.557c1.078-0.864,2.652-0.692,3.515,0.382c0.865,1.076,0.694,2.65-0.382,3.515l-20.599,16.557
							C1479.066,854.322,1478.513,854.503,1477.964,854.503z"/>
					</g>
				</g>
				<g>
					<g>
						<path fill="#FFFFFF" d="M1480.956,880.759c-1.254,0-2.335-0.941-2.48-2.217l-2.997-26.256c-0.157-1.371,0.828-2.61,2.2-2.767
							c1.362-0.166,2.61,0.828,2.767,2.2l2.997,26.256c0.157,1.371-0.828,2.61-2.2,2.767
							C1481.146,880.754,1481.051,880.759,1480.956,880.759z"/>
					</g>
				</g>
				<g>
					<g>
						<path fill="#FFFFFF" d="M1449.653,842.703c-0.731,0-1.457-0.319-1.95-0.934c-0.865-1.076-0.694-2.65,0.382-3.515
							l25.852-20.779c1.078-0.865,2.651-0.693,3.515,0.382c0.865,1.076,0.694,2.65-0.382,3.515l-25.852,20.779
							C1450.756,842.523,1450.202,842.703,1449.653,842.703z"/>
					</g>
				</g>
				<g>
					<g>
						<path fill="#FFFFFF" d="M1453.41,875.656c-1.254,0-2.335-0.941-2.48-2.217l-3.762-32.953c-0.157-1.371,0.828-2.61,2.2-2.767
							c1.358-0.17,2.609,0.828,2.767,2.2l3.762,32.953c0.157,1.371-0.828,2.61-2.2,2.767
							C1453.601,875.651,1453.505,875.656,1453.41,875.656z"/>
					</g>
				</g>
			</g>
			<g>
				<g>
					<g>
						<path fill="#FFFFFF" d="M1267.861,888.471c-13.477,0-26.857-4.347-37.894-12.75c-0.712-0.543-1.08-1.424-0.965-2.312
							c2.863-22.024,17.351-41.01,37.807-49.548c20.46-8.534,44.144-5.479,61.812,7.975c0.712,0.543,1.08,1.424,0.965,2.312
							c-2.863,22.024-17.351,41.01-37.808,49.548C1284.1,886.9,1275.963,888.471,1267.861,888.471z M1234.168,872.61
							c16.12,11.64,37.318,14.137,55.686,6.47c18.368-7.665,31.503-24.489,34.568-44.134c-16.121-11.639-37.32-14.136-55.687-6.47
							C1250.368,836.142,1237.233,852.966,1234.168,872.61z"/>
					</g>
				</g>
				<g>
					<g>
						<path fill="#FFFFFF" d="M1231.483,876.233c-0.979,0-1.907-0.578-2.309-1.538c-0.531-1.274,0.07-2.738,1.345-3.271
							l95.625-39.906c1.271-0.53,2.737,0.068,3.271,1.345c0.531,1.274-0.07,2.738-1.345,3.271l-95.625,39.906
							C1232.131,876.17,1231.805,876.233,1231.483,876.233z"/>
					</g>
				</g>
				<g>
					<g>
						<path fill="#FFFFFF" d="M1267.59,886.359c-0.09,0-0.182-0.005-0.273-0.015c-1.372-0.149-2.364-1.383-2.215-2.756l2.857-26.271
							c0.149-1.371,1.373-2.368,2.756-2.215c1.372,0.149,2.364,1.383,2.215,2.756l-2.857,26.271
							C1269.933,885.41,1268.85,886.359,1267.59,886.359z"/>
					</g>
				</g>
				<g>
					<g>
						<path fill="#FFFFFF" d="M1270.442,860.088c-0.545,0-1.094-0.178-1.554-0.543l-20.685-16.446
							c-1.081-0.859-1.261-2.433-0.401-3.513c0.86-1.08,2.432-1.259,3.513-0.401L1272,855.631c1.081,0.859,1.261,2.433,0.401,3.513
							C1271.907,859.765,1271.179,860.088,1270.442,860.088z"/>
					</g>
				</g>
				<g>
					<g>
						<path fill="#FFFFFF" d="M1295.223,881.386c-0.09,0-0.182-0.005-0.273-0.015c-1.372-0.149-2.364-1.383-2.215-2.756
							l3.587-32.973c0.149-1.372,1.374-2.371,2.756-2.215c1.372,0.149,2.364,1.383,2.215,2.756l-3.587,32.973
							C1297.565,880.437,1296.482,881.386,1295.223,881.386z"/>
					</g>
				</g>
				<g>
					<g>
						<path fill="#FFFFFF" d="M1298.805,848.412c-0.545,0-1.094-0.178-1.554-0.543l-25.961-20.642
							c-1.081-0.859-1.261-2.433-0.401-3.513c0.86-1.08,2.432-1.259,3.513-0.401l25.961,20.642c1.081,0.859,1.261,2.433,0.401,3.513
							C1300.27,848.089,1299.541,848.412,1298.805,848.412z"/>
					</g>
				</g>
			</g>
			<g>
				<g>
					<path d="M1456.329,779.201c-4.603-11.1,0.878-29.259-7.486-37.624c-8.365-8.365-26.524-2.884-37.624-7.487
						c-10.708-4.44-19.578-21.308-31.892-21.308c-12.313,0-21.184,16.867-31.891,21.308c-11.1,4.603-29.259-0.879-37.624,7.486
						c-8.365,8.365-2.884,26.524-7.487,37.624c-4.44,10.708-21.308,19.578-21.308,31.892c0,12.314,16.868,21.184,21.308,31.892
						c4.603,11.1-0.879,29.259,7.486,37.624c8.365,8.365,26.524,2.884,37.624,7.487c10.708,4.44,19.578,21.308,31.892,21.308
						c12.313,0,21.184-16.867,31.892-21.308c11.1-4.603,29.259,0.879,37.624-7.486c8.365-8.365,2.884-26.524,7.487-37.624
						c4.44-10.708,21.308-19.578,21.308-31.892C1477.637,798.779,1460.769,789.909,1456.329,779.201z M1379.327,852.113
						c-22.655,0-41.02-18.365-41.02-41.02c0-22.655,18.365-41.02,41.02-41.02c22.655,0,41.02,18.365,41.02,41.02
						C1420.347,833.747,1401.982,852.113,1379.327,852.113z"/>
				</g>
			</g>
			<g>
				<g>
					<path fill="#FFD829" d="M1403.134,800.989c-3.895-1.029-15.324-0.065-23.408,1.237c-0.319-0.739-0.768-1.436-1.361-2.048
						c-1.671-1.725-4.027-2.38-6.222-1.959c-5.155-6.666,0.518-16.104,0.577-16.2c0.666-1.08,0.332-2.496-0.747-3.164
						c-1.081-0.669-2.499-0.335-3.168,0.745c-0.282,0.454-6.141,10.124-1.961,18.769c-8.506-4.459-18.359,1.086-18.822,1.353
						c-1.099,0.633-1.478,2.035-0.847,3.137c0.63,1.101,2.036,1.484,3.139,0.855c0.098-0.056,9.879-5.518,16.377,0.083
						c-0.352,2.077,0.247,4.288,1.825,5.918c0.554,0.572,1.186,1.019,1.859,1.357c-1.572,8.051-2.927,19.643-2.008,23.609
						c1.447,6.249,7.686,10.142,13.935,8.696c6.249-1.447,10.142-7.686,8.696-13.935c-0.652-2.817-3.982-8.6-7.627-14.059
						c5.348,3.815,11.031,7.326,13.828,8.066c6.202,1.639,12.558-2.06,14.197-8.261
						C1413.034,808.983,1409.336,802.628,1403.134,800.989z"/>
				</g>
			</g>
		</g>
	</g>
	<g>
		<circle fill="#FFFFFF" cx="6.565" cy="147.903" r="6.565"/>
		<circle fill="#FFFFFF" cx="36.71" cy="112.538" r="6.565"/>
	</g>
	<circle fill="#FFFFFF" cx="843.052" cy="1000.971" r="6.565"/>
	<circle fill="#FFFFFF" cx="1641.164" cy="72.426" r="6.565"/>
	<circle fill="#FFFFFF" cx="1032.182" cy="147.749" r="6.565"/>
	<circle fill="#FFFFFF" cx="1844.709" cy="253.679" r="6.565"/>
	<circle fill="#FFFFFF" cx="1634.599" cy="1047.652" r="6.565"/>
	<circle fill="#FFFFFF" cx="1913.435" cy="312.037" r="6.565"/>
	<g>
		<path fill="#FFFFFF" d="M118.557,1080c0-21.824,17.693-39.514,39.519-39.514c-21.825,0-39.519-17.692-39.519-39.515
			c0,21.824-17.693,39.515-39.519,39.515C100.864,1040.486,118.557,1058.176,118.557,1080z"/>
	</g>
	<g>
		<path fill="#FFFFFF" d="M1805.191,940.875c0-21.824,17.693-39.514,39.519-39.514c-21.825,0-39.519-17.692-39.519-39.515
			c0,21.824-17.693,39.515-39.519,39.515C1787.498,901.361,1805.191,919.051,1805.191,940.875z"/>
	</g>
	<g>
		<path fill="#FFFFFF" d="M811.12,78.99c0-21.824,17.693-39.514,39.518-39.514c-21.825,0-39.518-17.692-39.518-39.515
			c0,21.824-17.693,39.515-39.519,39.515C793.427,39.476,811.12,57.167,811.12,78.99z"/>
	</g>
</g>
</svg>
