<?xml version="1.0" encoding="utf-8"?>
<!-- Generator: Adobe Illustrator 24.0.2, SVG Export Plug-In . SVG Version: 6.00 Build 0)  -->
<svg version="1.1" id="Layer_1" xmlns="http://www.w3.org/2000/svg" xmlns:xlink="http://www.w3.org/1999/xlink" x="0px" y="0px"
	 viewBox="0 0 1080 1080" enable-background="new 0 0 1080 1080" xml:space="preserve">
<g>
	<g>
		<g>
			<g>
				<polygon fill="#FFD829" points="355.784,558.928 355.784,558.928 374.327,535.206 393.883,541.877 408.115,522.62 
					419.86,532.536 399.015,558.36 378.785,549.281 				"/>
			</g>
		</g>
		<g>
			<g>
				<g>
					<path fill="#FFFFFF" d="M332.13,617.521l-3.973-0.473c0.802-6.741,4.689-9.778,8.119-12.459
						c3.222-2.519,6.005-4.693,6.609-9.78c0.605-5.087-1.59-7.854-4.132-11.058c-2.706-3.409-5.772-7.274-4.972-14.016
						c0.801-6.74,4.688-9.777,8.118-12.458c3.223-2.518,6.005-4.692,6.609-9.778c0.605-5.086-1.59-7.852-4.132-11.055
						c-2.706-3.409-5.773-7.273-4.973-14.014c0.802-6.74,4.689-9.777,8.119-12.457c3.222-2.518,6.004-4.692,6.608-9.778
						c0.605-5.086-1.59-7.852-4.132-11.055c-2.706-3.409-5.773-7.273-4.973-14.014c0.802-6.739,4.689-9.775,8.119-12.455
						c3.222-2.518,6.004-4.691,6.608-9.777l3.973,0.473c-0.802,6.739-4.688,9.777-8.119,12.457c-3.222,2.517-6.004,4.69-6.608,9.775
						c-0.604,5.086,1.591,7.852,4.133,11.055c2.706,3.409,5.772,7.273,4.972,14.014s-4.688,9.777-8.118,12.457
						c-3.223,2.518-6.005,4.692-6.609,9.778s1.591,7.852,4.133,11.055c2.706,3.409,5.772,7.273,4.972,14.014
						c-0.802,6.74-4.689,9.777-8.119,12.458c-3.222,2.518-6.004,4.691-6.608,9.778c-0.605,5.087,1.59,7.854,4.132,11.058
						c2.706,3.409,5.772,7.274,4.972,14.016c-0.802,6.741-4.689,9.778-8.119,12.459C335.517,610.259,332.734,612.434,332.13,617.521
						z"/>
				</g>
			</g>
			<g>
				<g>
					<path fill="#FFFFFF" d="M303.248,607.83l-3.938-0.709c1.183-6.567,5.241-9.3,8.822-11.71c3.347-2.253,6.236-4.199,7.119-9.102
						s-1.146-7.734-3.496-11.014c-2.515-3.509-5.365-7.485-4.183-14.053c1.184-6.566,5.242-9.298,8.823-11.709
						c3.346-2.253,6.235-4.198,7.118-9.1s-1.146-7.733-3.496-11.012c-2.515-3.508-5.365-7.484-4.183-14.051
						c1.183-6.565,5.241-9.298,8.822-11.708c3.346-2.253,6.235-4.198,7.118-9.1s-1.146-7.732-3.496-11.011
						c-2.515-3.509-5.365-7.485-4.183-14.051s5.241-9.297,8.822-11.707c3.346-2.252,6.235-4.197,7.118-9.098l3.938,0.709
						c-1.183,6.565-5.241,9.297-8.822,11.707c-3.346,2.252-6.235,4.197-7.118,9.098c-0.883,4.901,1.146,7.732,3.496,11.011
						c2.515,3.509,5.365,7.485,4.183,14.051c-1.183,6.566-5.241,9.299-8.822,11.709c-3.346,2.252-6.235,4.197-7.118,9.099
						s1.146,7.733,3.496,11.012c2.515,3.508,5.365,7.484,4.183,14.051s-5.241,9.299-8.822,11.709
						c-3.347,2.253-6.236,4.198-7.119,9.1c-0.883,4.902,1.146,7.734,3.496,11.014c2.515,3.509,5.365,7.485,4.183,14.053
						c-1.184,6.567-5.242,9.3-8.822,11.71C307.02,600.981,304.131,602.928,303.248,607.83z"/>
				</g>
			</g>
			<g>
				<g>
					<circle fill="#FFFFFF" cx="409.216" cy="582.242" r="14.084"/>
				</g>
			</g>
			<g>
				<g>
					<path d="M435.828,540v-24.753v-40.264l-0.292-12.934c-3.521,0.465-25.4-6.215-28.68-4.358
						c-6.01,3.404-23.605-5.063-25.88,0.925c-2.906,7.649-2.511,16.487,1.837,24.164c2.003,3.537,4.653,6.475,7.712,8.763
						c-8.34,7.355-10.693,19.779-4.995,29.84c5.644,9.966,17.339,14.345,27.858,11.152c0.311,3.26,1.29,6.509,3.009,9.543
						c4.086,7.215,11.344,11.506,19.031,12.113L435.828,540z"/>
				</g>
			</g>
			<g>
				<g>
					<path d="M403.229,584.528c-0.51-0.51-1.057-0.958-1.62-1.375c1.12-3.82,0.174-8.118-2.84-11.131
						c-4.394-4.394-11.519-4.394-15.913,0c-3.862,3.862-4.327,9.833-1.4,14.206c-4.116,5.626-3.649,13.557,1.434,18.64
						c5.616,5.616,14.722,5.616,20.339,0C408.846,599.25,408.846,590.144,403.229,584.528z"/>
				</g>
			</g>
		</g>
		<g>
			<g>
				<g>
					<path fill="#FFFFFF" d="M653.692,591.252c-1.425,0-2.851-0.104-4.274-0.311c-21.617-3.156-35.663-29.984-31.311-59.806
						c2.092-14.326,8.064-27.234,16.818-36.347c8.927-9.293,19.684-13.556,30.281-12.013c21.617,3.156,35.663,29.984,31.311,59.806
						c-2.092,14.326-8.064,27.234-16.818,36.347C671.972,586.974,662.873,591.252,653.692,591.252z M660.957,486.469
						c-8.094,0-16.191,3.851-23.146,11.091c-8.182,8.517-13.772,20.646-15.744,34.154c-4.035,27.639,8.494,52.433,27.93,55.269
						c9.29,1.362,18.811-2.488,26.818-10.824c8.182-8.517,13.772-20.646,15.744-34.154l1.979,0.289l-1.979-0.289
						c4.034-27.639-8.495-52.433-27.93-55.269C663.408,486.557,662.182,486.469,660.957,486.469z"/>
				</g>
			</g>
			<g>
				<g>
					<path fill="#FFFFFF" d="M673.917,594.204c-1.425,0-2.851-0.104-4.274-0.311c-21.617-3.156-35.663-29.984-31.311-59.806
						c2.092-14.326,8.064-27.234,16.818-36.347c8.928-9.293,19.681-13.55,30.281-12.013c21.617,3.156,35.663,29.984,31.311,59.806
						c-2.092,14.326-8.064,27.234-16.818,36.347C692.196,589.926,683.098,594.204,673.917,594.204z M681.182,489.42
						c-8.094,0-16.191,3.852-23.146,11.092c-8.182,8.517-13.772,20.646-15.744,34.154c-4.035,27.639,8.494,52.433,27.93,55.269
						c9.285,1.359,18.811-2.488,26.818-10.824c8.182-8.517,13.772-20.646,15.744-34.154l1.979,0.289l-1.979-0.289
						c4.034-27.639-8.495-52.433-27.93-55.269C683.633,489.509,682.406,489.42,681.182,489.42z"/>
				</g>
			</g>
			<g>
				<g>
					<path fill="#FFFFFF" d="M694.141,597.156c-1.425,0-2.851-0.104-4.274-0.311c-21.617-3.156-35.663-29.984-31.311-59.806
						c4.354-29.821,25.482-51.506,47.1-48.359c21.617,3.156,35.663,29.984,31.311,59.806c-2.092,14.326-8.064,27.234-16.818,36.347
						C712.421,592.878,703.323,597.156,694.141,597.156z M701.415,492.373c-18.117,0-35.119,19.346-38.899,45.245
						c-4.034,27.639,8.495,52.432,27.93,55.269c9.285,1.36,18.812-2.487,26.819-10.824c8.181-8.517,13.771-20.646,15.743-34.154
						l1.979,0.289l-1.979-0.289c4.034-27.639-8.495-52.433-27.93-55.269C703.855,492.461,702.631,492.373,701.415,492.373z"/>
				</g>
			</g>
			<g>
				<g>
					<path fill="#FFFFFF" d="M714.366,600.108c-1.425,0-2.851-0.104-4.274-0.311c-21.617-3.156-35.663-29.984-31.311-59.806
						c4.354-29.82,25.48-51.503,47.101-48.359c10.6,1.548,19.686,8.71,25.584,20.167c5.783,11.235,7.816,25.312,5.726,39.639l0,0
						c-2.092,14.326-8.064,27.234-16.818,36.347C732.645,595.83,723.548,600.108,714.366,600.108z M721.64,495.325
						c-18.116,0-35.119,19.346-38.899,45.245c-4.034,27.639,8.495,52.432,27.93,55.269c9.28,1.356,18.812-2.488,26.819-10.824
						c8.181-8.517,13.771-20.646,15.743-34.154l0,0c1.973-13.508,0.082-26.729-5.323-37.229
						c-5.291-10.277-13.318-16.684-22.605-18.039C724.081,495.413,722.856,495.325,721.64,495.325z"/>
				</g>
			</g>
			<g>
				<g>
					<path fill="#FFFFFF" d="M734.591,603.061c-1.425,0-2.851-0.104-4.274-0.311c-10.6-1.548-19.686-8.71-25.584-20.167
						c-5.783-11.234-7.816-25.312-5.726-39.639c2.092-14.326,8.064-27.234,16.818-36.347c8.926-9.294,19.683-13.555,30.281-12.013
						c10.6,1.548,19.686,8.71,25.584,20.167c5.783,11.235,7.816,25.312,5.726,39.639l0,0c-2.092,14.326-8.064,27.234-16.818,36.347
						C752.87,598.782,743.772,603.061,734.591,603.061z M741.855,498.277c-8.094,0-16.191,3.851-23.146,11.091
						c-8.181,8.517-13.771,20.646-15.743,34.154c-1.973,13.508-0.082,26.73,5.323,37.229c5.291,10.277,13.318,16.684,22.605,18.039
						c9.283,1.36,18.812-2.487,26.819-10.824c8.181-8.517,13.771-20.646,15.743-34.154l0,0c1.973-13.508,0.082-26.729-5.323-37.229
						c-5.291-10.277-13.318-16.684-22.605-18.039C744.307,498.365,743.081,498.277,741.855,498.277z"/>
				</g>
			</g>
		</g>
		<g>
			<g>
				<g>
					<path fill="#FFFFFF" d="M1009.722,849.325c15.385-34.486,23.505-70.544,24.133-107.173
						c0.634-36.964-6.38-73.217-20.848-107.752c-14.605-34.862-36.407-66.936-64.801-95.33
						c-47.018-47.018-104.73-76.914-176.435-91.396c-42.827-8.65-85.77-10.979-127.995-11.584
						c-0.491-40.575-2.514-83.611-10.302-125.552c-13.226-71.23-40.69-126.89-83.961-170.161
						c-57.197-57.197-132.038-88.587-210.735-88.387c-37.605,0.096-74.259,7.336-108.945,21.521
						c-35.411,14.482-67.057,35.515-94.058,62.517c-28.42,28.42-50.585,60.396-65.882,95.041
						c-15.239,34.515-23.233,70.633-23.76,107.351c-1.07,74.492,29.221,146.397,85.293,202.469
						c47.059,47.059,104.828,76.97,176.607,91.443c42.741,8.617,85.618,10.948,127.789,11.549
						c1.17,99.779,11.681,213.085,94.251,295.655c57.215,57.215,132.043,88.634,210.702,88.471
						c37.602-0.078,74.254-7.305,108.937-21.482c35.407-14.472,67.052-35.502,94.056-62.506
						C972.17,915.618,994.36,883.758,1009.722,849.325z M532.402,157.58c28.682,28.682,49.836,63.529,64.007,105.65l-0.646,0.645
						l-151.372,52.294l-0.044,0.045c-6.402-16.758-15.426-31.896-28.175-44.645c-14.71-14.71-33.012-24.366-52.885-28.14
						l0.192,0.039l52.681-155.992l0.003-0.004C459.228,100.406,499.05,124.228,532.402,157.58z M78.403,408.625l-0.005,0.001
						c-6.432-22.708-9.476-46.045-9.07-69.693c0.572-33.345,7.984-66.217,22.031-97.703c14.141-31.695,34.634-61.093,60.909-87.379
						l0,0l0.045-0.045c-0.015,0.015-0.029,0.03-0.044,0.045l118.427,118.427l0.045-0.045c-20.758,20.758-32.423,46.39-32.846,72.172
						c-0.105,6.411,0.289,11.837,1.493,17.999L78.403,408.625z M288.472,288.726c14.252-14.252,34.195-22.567,54.716-22.813
						c21.038-0.252,40.864,7.85,55.827,22.813c15.296,15.296,25.008,35.865,30.565,64.732c4.951,25.72,5.906,54.881,6.248,83.862
						c-59.031-0.959-117.047-7.923-150.584-41.459C254.169,364.786,255.466,321.732,288.472,288.726z M278.411,599.403
						l35.026-155.523c0,0,31.49,9.997,49.282,12.473c23.654,3.292,48.126,5.312,72.817,5.697l-0.072,158.053
						C377.503,619.227,334.979,619.465,278.411,599.403z M459.952,619.804V461.745h159.239v158.059H459.952z M643.65,459.526
						c57.961,0.876,117.753,4.789,174.321,24.851l-52.294,151.372l-0.045,0.044l-0.574,0.574
						c-14.249-5.726-30.422-10.068-48.663-13.091c-22.617-3.747-47.136-5.297-72.817-5.697L643.65,459.526z M794.388,684.1
						c31.048,31.048,29.696,74.12-3.363,107.18c-14.237,14.237-34.152,22.538-54.637,22.773
						c-21.008,0.242-40.814-7.862-55.77-22.818c-15.339-15.339-25.081-35.946-30.657-64.849
						c-4.954-25.674-5.926-54.769-6.279-83.692C702.739,643.641,760.839,650.551,794.388,684.1z M547.23,922.38
						c-28.682-28.682-49.837-63.529-64.007-105.65l0.646-0.645l151.372-52.294l0.044-0.044
						c6.402,16.758,15.426,31.895,28.176,44.645c14.71,14.71,33.012,24.366,52.885,28.14l-0.192-0.039l-52.681,155.992l-0.003,0.004
						C620.404,979.555,580.583,955.733,547.23,922.38z M926.61,926.864c0.015-0.015,0.029-0.03,0.044-0.045L808.227,808.392
						l-0.045,0.045c20.758-20.758,32.423-46.39,32.846-72.172c0.105-6.411-0.289-11.837-1.493-17.999l160.986-46.221l0.005-0.001
						c6.432,22.708,9.475,46.045,9.07,69.693c-0.572,33.345-7.984,66.217-22.031,97.703c-14.141,31.695-34.634,61.093-60.91,87.379
						l0,0L926.61,926.864z"/>
				</g>
			</g>
			<g>
				<g>
					<path fill="#FFD829" d="M617.678,650.062H503.691c-1.104,0-2-0.896-2-2s0.896-2,2-2h113.986c1.104,0,2,0.896,2,2
						S618.782,650.062,617.678,650.062z"/>
				</g>
			</g>
			<g>
				<g>
					<path fill="#FFD829" d="M463.053,693.631c-1.087,0-1.979-0.871-1.999-1.962c-0.021-1.104,0.858-2.017,1.962-2.038
						l156.095-2.941c0.014,0,0.026,0,0.039,0c1.087,0,1.979,0.871,1.999,1.962c0.021,1.104-0.858,2.017-1.962,2.038l-156.095,2.941
						C463.078,693.631,463.065,693.631,463.053,693.631z"/>
				</g>
			</g>
			<g>
				<g>
					<path fill="#FFD829" d="M465.816,723.091c-1.039,0-1.917-0.804-1.993-1.856c-0.079-1.102,0.749-2.059,1.852-2.139
						l155.781-11.238c1.106-0.056,2.059,0.751,2.139,1.852c0.079,1.102-0.749,2.059-1.852,2.139l-155.781,11.238
						C465.913,723.089,465.864,723.091,465.816,723.091z"/>
				</g>
			</g>
			<g>
				<g>
					<path fill="#FFD829" d="M468.958,752.732c-0.991,0-1.852-0.736-1.98-1.746c-0.141-1.096,0.634-2.098,1.729-2.237
						l155.175-19.859c1.087-0.148,2.098,0.633,2.237,1.729c0.141,1.096-0.634,2.098-1.729,2.237l-155.175,19.859
						C469.129,752.728,469.043,752.732,468.958,752.732z"/>
				</g>
			</g>
			<g>
				<g>
					<circle cx="468.984" cy="338.44" r="16.822"/>
				</g>
			</g>
			<g>
				<g>
					<path fill="#FFD829" d="M495.243,336.011c-0.918,0-1.745-0.636-1.951-1.568c-0.238-1.079,0.443-2.146,1.521-2.385
						l111.776-24.691c1.078-0.245,2.146,0.443,2.385,1.521c0.238,1.079-0.443,2.146-1.521,2.385l-111.776,24.691
						C495.531,335.996,495.386,336.011,495.243,336.011z"/>
				</g>
			</g>
			<g>
				<g>
					<path fill="#FFD829" d="M459.812,379.423c-0.993,0-1.854-0.739-1.981-1.751c-0.138-1.096,0.64-2.096,1.735-2.233l154.91-19.424
						c1.1-0.145,2.095,0.64,2.233,1.735c0.138,1.096-0.64,2.096-1.735,2.233l-154.91,19.424
						C459.979,379.418,459.895,379.423,459.812,379.423z"/>
				</g>
			</g>
			<g>
				<g>
					<path fill="#FFD829" d="M460.415,400.718c-1.04,0-1.917-0.804-1.993-1.857c-0.079-1.102,0.75-2.059,1.853-2.138l155.787-11.166
						c1.088-0.066,2.059,0.751,2.138,1.853s-0.75,2.059-1.853,2.138l-155.787,11.166
						C460.512,400.716,460.463,400.718,460.415,400.718z"/>
				</g>
			</g>
			<g>
				<g>
					<path fill="#FFD829" d="M460.914,421.886c-1.089,0-1.98-0.874-1.999-1.968c-0.018-1.104,0.863-2.014,1.968-2.032l156.42-2.548
						c0.011,0,0.021,0,0.033,0c1.089,0,1.98,0.874,1.999,1.968c0.018,1.104-0.863,2.014-1.968,2.032l-156.42,2.548
						C460.936,421.886,460.926,421.886,460.914,421.886z"/>
				</g>
			</g>
			<g>
				<g>
					<g>
						<path d="M714.149,987.456c0.761-2.85,2.1-5.86,1.34-8.71c-0.737-2.762-3.35-4.704-5.517-6.871
							c-2.167-2.167-4.109-4.779-6.871-5.516c-2.85-0.761-5.86,0.579-8.71,1.339c-2.762,0.737-6.042,1.03-8.209,3.197
							c-2.167,2.167-2.459,5.447-3.196,8.209c-0.761,2.85-2.1,5.86-1.34,8.71c0.737,2.762,3.35,4.704,5.517,6.871
							s4.109,4.779,6.871,5.516c2.849,0.761,5.86-0.579,8.71-1.34c2.762-0.737,6.042-1.03,8.209-3.197
							C713.119,993.498,713.411,990.218,714.149,987.456z M693.899,987.948c-2.578-2.578-2.578-6.758,0-9.337
							c2.578-2.578,6.758-2.578,9.337,0c2.578,2.578,2.578,6.758,0,9.337S696.477,990.527,693.899,987.948z"/>
					</g>
				</g>
				<g>
					<g>
						<path fill="#FFD829" d="M807.024,995.601c-0.936,0-1.771-0.659-1.96-1.611l-31.993-161.351
							c-0.215-1.083,0.489-2.136,1.573-2.351c1.082-0.218,2.137,0.49,2.351,1.573l31.993,161.351
							c0.215,1.083-0.489,2.136-1.573,2.351C807.284,995.589,807.153,995.601,807.024,995.601z"/>
					</g>
				</g>
				<g>
					<g>
						<path fill="#FFD829" d="M859.899,977.227c-0.776,0-1.516-0.456-1.84-1.215l-65.794-153.956
							c-0.435-1.016,0.037-2.191,1.053-2.625c1.017-0.434,2.191,0.037,2.625,1.053l65.794,153.956
							c0.435,1.016-0.037,2.191-1.053,2.625C860.428,977.174,860.161,977.227,859.899,977.227z"/>
					</g>
				</g>
				<g>
					<g>
						<path fill="#FFD829" d="M753.976,1003.104c-0.004,0-0.007,0-0.011,0c-1.104-0.006-1.995-0.906-1.989-2.011l0.878-162.689
							c0.006-1.101,0.9-1.989,2-1.989c0.004,0,0.007,0,0.011,0c1.104,0.006,1.995,0.906,1.989,2.011l-0.878,162.689
							C755.971,1002.215,755.076,1003.104,753.976,1003.104z"/>
					</g>
				</g>
				<g>
					<g>
						<path fill="#FFD829" d="M708.744,952.455c-0.146,0-0.293-0.016-0.44-0.049c-1.078-0.242-1.755-1.312-1.513-2.39
							l24.984-111.159c0.243-1.078,1.314-1.755,2.39-1.513c1.078,0.242,1.755,1.312,1.513,2.39l-24.984,111.159
							C710.484,951.823,709.659,952.455,708.744,952.455z"/>
					</g>
				</g>
			</g>
			<g>
				<g>
					<g>
						<circle cx="270.217" cy="243.88" r="10.519"/>
					</g>
				</g>
				<g>
					<g>
						<circle cx="285.096" cy="243.88" r="10.519"/>
					</g>
				</g>
				<g>
					<g>
						<path fill="#FFD829" d="M336.133,237.015c-1.059,0-1.942-0.831-1.995-1.901l-8.293-167.258
							c-0.056-1.103,0.795-2.041,1.898-2.096c1.095-0.063,2.041,0.794,2.096,1.898l8.293,167.258
							c0.056,1.103-0.795,2.041-1.898,2.096C336.2,237.014,336.166,237.015,336.133,237.015z"/>
					</g>
				</g>
				<g>
					<g>
						<path fill="#FFD829" d="M314.368,243.022c-0.788,0-1.535-0.47-1.853-1.244l-62.901-153.79
							c-0.418-1.022,0.072-2.189,1.095-2.608c1.021-0.414,2.19,0.073,2.608,1.095l62.901,153.79
							c0.418,1.022-0.072,2.189-1.095,2.608C314.877,242.974,314.62,243.022,314.368,243.022z"/>
					</g>
				</g>
				<g>
					<g>
						<path fill="#FFD829" d="M254.358,221.106c-0.576,0-1.148-0.248-1.544-0.728l-73.047-88.566
							c-0.703-0.852-0.582-2.112,0.271-2.815c0.852-0.702,2.112-0.581,2.815,0.271l73.047,88.566
							c0.703,0.852,0.582,2.112-0.271,2.815C255.258,220.957,254.807,221.106,254.358,221.106z"/>
					</g>
				</g>
			</g>
			<g>
				<g>
					<g>
						<path d="M971.928,631.604c3.425,0,6.645,1.334,9.067,3.755c4.999,5,4.999,13.134,0,18.133
							c-2.422,2.422-5.642,3.755-9.067,3.755c-3.425,0-6.645-1.334-9.067-3.755c-4.999-4.999-4.999-13.134,0-18.133
							C965.283,632.938,968.503,631.604,971.928,631.604 M971.928,627.604c-4.305,0-8.61,1.642-11.895,4.927
							c-6.569,6.57-6.569,17.221,0,23.79c3.285,3.285,7.59,4.927,11.895,4.927c4.305,0,8.61-1.642,11.895-4.927
							c6.569-6.569,6.569-17.22,0-23.79C980.538,629.247,976.233,627.604,971.928,627.604L971.928,627.604z"/>
					</g>
				</g>
				<g>
					<g>
						<circle fill="#FFD829" cx="971.928" cy="644.427" r="6.068"/>
					</g>
				</g>
				<g>
					<g>
						<path fill="#FFD829" d="M836.186,703.044c-0.783,0-1.526-0.463-1.847-1.231c-0.426-1.02,0.057-2.19,1.076-2.615
							l110.045-45.873c1.02-0.426,2.19,0.057,2.615,1.076c0.426,1.02-0.057,2.19-1.076,2.615l-110.045,45.873
							C836.704,702.994,836.442,703.044,836.186,703.044z"/>
					</g>
				</g>
				<g>
					<g>
						<path fill="#FFD829" d="M826.647,684.044c-0.691,0-1.364-0.358-1.734-1c-0.552-0.957-0.224-2.181,0.732-2.732l139.845-80.69
							c0.959-0.554,2.181-0.224,2.732,0.732c0.552,0.957,0.224,2.181-0.732,2.732l-139.845,80.69
							C827.33,683.958,826.986,684.044,826.647,684.044z"/>
					</g>
				</g>
				<g>
					<g>
						<path fill="#FFD829" d="M796.236,654.616c-0.358,0-0.721-0.096-1.048-0.298c-0.94-0.579-1.232-1.812-0.652-2.752
							l84.121-136.413c0.579-0.941,1.812-1.233,2.752-0.652c0.94,0.579,1.232,1.812,0.652,2.752L797.94,653.666
							C797.562,654.279,796.907,654.616,796.236,654.616z"/>
					</g>
				</g>
				<g>
					<g>
						<path fill="#FFD829" d="M812.525,667.963c-0.537,0-1.074-0.216-1.468-0.642c-0.75-0.811-0.701-2.076,0.109-2.826
							L928.71,555.74c0.809-0.751,2.076-0.702,2.826,0.109c0.75,0.811,0.701,2.076-0.109,2.826L813.884,667.431
							C813.499,667.787,813.012,667.963,812.525,667.963z"/>
					</g>
				</g>
			</g>
			<g>
				<g>
					<g>
						<g>
							<path d="M285.618,432.649c3.799,0,7.378,1.665,9.82,4.568c2.205,2.621,3.258,5.943,2.964,9.355
								c-0.294,3.412-1.899,6.506-4.52,8.711c-2.308,1.942-5.236,3.011-8.246,3.011c-3.798,0-7.378-1.665-9.82-4.568
								c-4.552-5.41-3.854-13.515,1.556-18.066C279.68,433.718,282.608,432.649,285.618,432.649 M285.618,428.649
								c-3.823,0-7.667,1.296-10.822,3.95c-7.109,5.981-8.023,16.593-2.042,23.702c3.327,3.955,8.088,5.992,12.881,5.992
								c3.823,0,7.667-1.296,10.822-3.95c7.109-5.981,8.023-16.593,2.042-23.702C295.172,430.687,290.411,428.649,285.618,428.649
								L285.618,428.649z"/>
						</g>
					</g>
					<g>
						<g>
							<circle fill="#FFD829" cx="285.627" cy="445.471" r="7.681"/>
						</g>
					</g>
				</g>
				<g>
					<g>
						<path fill="#FFD829" d="M236.425,583.546c-0.251,0-0.507-0.048-0.755-0.149c-1.022-0.417-1.514-1.584-1.096-2.607
							l43.482-106.562c0.417-1.022,1.578-1.519,2.607-1.096c1.022,0.417,1.514,1.584,1.096,2.607l-43.482,106.562
							C237.961,583.076,237.214,583.546,236.425,583.546z"/>
					</g>
				</g>
				<g>
					<g>
						<path fill="#FFD829" d="M181.778,551.318c-0.391,0-0.785-0.114-1.131-0.352c-0.91-0.626-1.141-1.871-0.516-2.781
							l90.77-132.001c0.628-0.91,1.873-1.139,2.781-0.516c0.91,0.626,1.141,1.871,0.516,2.781l-90.77,132.001
							C183.04,551.016,182.415,551.318,181.778,551.318z"/>
					</g>
				</g>
				<g>
					<g>
						<path fill="#FFD829" d="M107.264,468.423c-0.715,0-1.405-0.383-1.766-1.057c-0.521-0.975-0.153-2.187,0.82-2.707
							l142.259-76.049c0.977-0.52,2.187-0.153,2.707,0.82c0.521,0.975,0.153,2.187-0.82,2.707l-142.259,76.049
							C107.904,468.347,107.582,468.423,107.264,468.423z"/>
					</g>
				</g>
				<g>
					<g>
						<path fill="#FFD829" d="M138.106,512.307c-0.562,0-1.119-0.234-1.515-0.692c-0.722-0.836-0.63-2.099,0.206-2.821
							l121.805-105.229c0.836-0.723,2.1-0.63,2.821,0.206s0.63,2.099-0.206,2.821L139.413,511.82
							C139.035,512.146,138.569,512.307,138.106,512.307z"/>
					</g>
				</g>
			</g>
			<g>
				<g>
					<rect x="433.825" y="437.32" fill="#FFFFFF" width="4" height="206.562"/>
				</g>
			</g>
			<g>
				<g>
					<rect x="641.729" y="436.091" fill="#FFFFFF" width="4" height="206.603"/>
				</g>
			</g>
			<g>
				<g>
					<path d="M489.396,638.378c-6.569-6.569-17.221-6.569-23.79,0c-6.569,6.569-6.569,17.221,0,23.79
						c6.569,6.569,17.221,6.569,23.79,0C495.965,655.599,495.965,644.948,489.396,638.378z M479.917,659.306l-1.078-0.922
						c-1.041-0.89-2.537-1.009-3.705-0.294l-1.21,0.74c-2.612,1.599-5.744-1.08-4.57-3.908l0.544-1.31
						c0.525-1.265,0.176-2.724-0.865-3.614l-1.078-0.922c-2.328-1.99-0.748-5.796,2.305-5.554l1.414,0.112
						c1.365,0.108,2.645-0.675,3.17-1.94l0.544-1.31c1.174-2.829,5.281-2.503,5.994,0.476l0.33,1.38
						c0.319,1.332,1.459,2.307,2.824,2.415l1.414,0.112c3.053,0.242,4.012,4.25,1.4,5.848l-1.21,0.74
						c-1.168,0.715-1.743,2.101-1.424,3.433l0.33,1.38C485.759,659.145,482.244,661.296,479.917,659.306z"/>
				</g>
			</g>
		</g>
		<g>
			<g>
				<circle fill="#FFD829" cx="468.984" cy="338.44" r="6.479"/>
			</g>
			<g>
				<path d="M468.984,346.918c-2.266,0-4.395-0.882-5.995-2.483c-3.306-3.306-3.306-8.685,0-11.99
					c1.601-1.602,3.729-2.483,5.995-2.483c2.265,0,4.394,0.882,5.995,2.483c3.306,3.306,3.306,8.685,0,11.99
					C473.378,346.036,471.249,346.918,468.984,346.918z M468.984,333.961c-1.196,0-2.321,0.466-3.167,1.312
					c-1.746,1.746-1.746,4.588,0,6.334c0.846,0.846,1.971,1.312,3.167,1.312s2.321-0.466,3.167-1.312
					c1.746-1.746,1.746-4.588,0-6.334C471.306,334.427,470.181,333.961,468.984,333.961z"/>
			</g>
		</g>
		<g>
			<g>
				<g>
					<rect x="461.952" y="463.745" width="155.239" height="154.059"/>
				</g>
			</g>
			<g>
				<g>
					<path d="M615.191,465.745v150.059H463.952V465.745H615.191 M619.191,461.745H459.952v158.059h159.239V461.745L619.191,461.745z
						"/>
				</g>
			</g>
		</g>
		<g>
			<g>
				<g>
					<path fill="#FFD829" d="M539.724,494.349c-27.021,0-48.926,21.905-48.926,48.926v33.501c0,11.26,9.128,20.388,20.388,20.388
						h57.076c11.26,0,20.388-9.128,20.388-20.388v-33.501C588.65,516.254,566.745,494.349,539.724,494.349z"/>
				</g>
			</g>
			<g>
				<g>
					<circle fill="#FFFFFF" cx="514.691" cy="567.4" r="14.86"/>
				</g>
			</g>
			<g>
				<g>
					<path fill="#FFFFFF" d="M588.65,554.414c12.531,0,22.69-10.159,22.69-22.69v-27.919c0-5.222-4.233-9.455-9.455-9.455h-26.47
						c-5.222,0-9.455,4.233-9.455,9.455v27.919C565.96,544.255,576.119,554.414,588.65,554.414z"/>
				</g>
			</g>
			<g>
				<g>
					<g>
						<circle cx="515.447" cy="568.157" r="7.307"/>
					</g>
				</g>
				<g>
					<g>
						<circle cx="566.839" cy="568.157" r="7.307"/>
					</g>
				</g>
				<g>
					<g>
						<path d="M548.01,570.629c0,4.193-4.895,11.565-7.591,11.565c-2.412,0-7.591-7.372-7.591-11.565s3.398-7.592,7.591-7.592
							S548.01,566.436,548.01,570.629z"/>
					</g>
				</g>
				<g>
					<g>
						<path d="M533.419,588.676c-0.785,0-1.479-0.138-2.019-0.34c-1.034-0.388-1.559-1.54-1.171-2.575
							c0.383-1.021,1.513-1.55,2.538-1.184c0.357,0.109,3.278,0.826,5.525-4.688c0.417-1.022,1.582-1.518,2.607-1.098
							c1.022,0.417,1.514,1.584,1.098,2.607C539.653,587.152,536.029,588.676,533.419,588.676z"/>
					</g>
				</g>
				<g>
					<g>
						<path d="M547.418,588.676c-2.61,0-6.234-1.522-8.578-7.276c-0.416-1.023,0.075-2.19,1.098-2.607
							c1.022-0.42,2.19,0.075,2.607,1.098c2.26,5.549,5.202,4.791,5.53,4.685c1.032-0.389,2.166,0.144,2.554,1.18
							c0.388,1.034-0.158,2.194-1.192,2.582C548.896,588.538,548.203,588.676,547.418,588.676z"/>
					</g>
				</g>
			</g>
			<g>
				<g>
					<path fill="#FFFFFF" d="M490.798,554.414c12.532,0,22.69-10.159,22.69-22.69v-27.919c0-5.222-4.233-9.455-9.455-9.455h-26.47
						c-5.222,0-9.455,4.233-9.455,9.455v27.919C468.108,544.255,478.267,554.414,490.798,554.414z"/>
				</g>
			</g>
		</g>
		<g>
			<g>
				<path fill="#FFD829" d="M975.107,755.416c-9.984-2.858-30.65,34.347-33.507,44.331c-2.858,9.984-7.208,51.18,2.776,54.037
					c9.984,2.858,30.521-33.705,33.379-43.689S985.091,758.274,975.107,755.416z M967.514,797.049
					c1.406,0.402,1.894,3.009,1.089,5.821c-0.805,2.812-2.597,4.766-4.004,4.364s-1.894-3.009-1.089-5.821
					C964.315,798.601,966.107,796.647,967.514,797.049z M956.988,794.037c1.406,0.402,1.894,3.009,1.089,5.821
					c-0.805,2.812-2.597,4.766-4.004,4.364c-1.406-0.403-1.894-3.009-1.089-5.821C953.789,795.588,955.582,793.634,956.988,794.037z
					 M963.062,818.738c-0.623-0.178-0.983-0.827-0.805-1.45c0.867-3.029-0.892-6.198-3.92-7.065
					c-3.029-0.867-6.198,0.892-7.065,3.921c-0.178,0.623-0.827,0.983-1.45,0.805c-0.623-0.178-0.983-0.827-0.805-1.45
					c1.223-4.272,5.693-6.753,9.965-5.53c4.271,1.223,6.752,5.693,5.529,9.965C964.334,818.556,963.685,818.916,963.062,818.738z"/>
			</g>
		</g>
		<g>
			<g>
				<g>
					<path d="M874.152,811.928l-21.525-15.682c4.265-5.686,7.491-11.548,9.932-17.094l21.224,7.89
						c1.843,0.685,3.893-0.253,4.577-2.096c0.685-1.844-0.255-3.893-2.096-4.577l-21.087-7.839
						c2.734-7.742,3.957-14.339,4.484-18.157l26.253,1.218c1.965,0.091,3.63-1.427,3.722-3.391c0.091-1.963-1.427-3.63-3.391-3.721
						l-29.593-1.374c-1.939-0.09-3.593,1.394-3.718,3.331c-0.016,0.242-1.75,24.423-18.133,44.243
						c-0.626,0.757-0.911,1.739-0.788,2.713c0.099,0.789,0.459,1.517,1.015,2.073c0.13,0.13,0.271,0.251,0.421,0.36l24.511,17.858
						c1.589,1.158,3.816,0.808,4.974-0.781C876.092,815.312,875.739,813.086,874.152,811.928z"/>
				</g>
			</g>
			<g>
				<g>
					<path d="M925.243,801.561l-10.836-4.026c-1.843-0.685-3.892,0.254-4.577,2.097c-0.685,1.843,0.254,3.892,2.097,4.577
						l8.01,2.976c-1.318,5.764-4.586,15.343-10.336,18.323c-2.772,1.436-5.972,1.205-9.785-0.708
						c-3.388-1.702-5.057-5.138-5.099-10.506c-0.14-18.189,19.137-49.658,29.108-54.856c3.082-1.606,5.525-1.967,7.26-1.073
						c2.73,1.409,3.902,5.819,4.121,7.399c0.263,1.942,2.045,3.309,3.99,3.054c1.95-0.255,3.323-2.042,3.068-3.992
						c-0.124-0.952-1.401-9.398-7.876-12.769c-3.919-2.041-8.581-1.683-13.854,1.066c-7.223,3.765-15.652,15.454-21.131,25.139
						c-7.576,13.391-11.88,26.544-11.806,36.086c0.053,6.896,2.3,11.221,5.01,13.931c1.296,1.296,2.697,2.222,4.015,2.883
						c5.919,2.97,11.392,3.192,16.268,0.66c11.473-5.959,14.511-25.569,14.634-26.401
						C927.772,803.757,926.819,802.146,925.243,801.561z"/>
				</g>
			</g>
			<g>
				<g>
					<path d="M978.333,816.904c0.558-1.918,1.208-4.019,1.898-6.243c4.196-13.536,9.941-32.075,5.766-46.357
						c-1.862-6.369-5.938-11.122-10.903-12.714c-4.181-1.342-8.708-0.335-12.746,2.834c-9.044,7.099-14.696,20.434-18.437,29.259
						c-4.453,10.506-6.975,21.388-9.375,32.543c-1.784,8.298-6.099,28.368,2.951,37.418c1.517,1.517,3.408,2.724,5.749,3.514
						c4.043,1.365,8.074,1.022,11.981-1.018C967.685,849.628,975.536,826.532,978.333,816.904z M951.921,849.827
						c-2.179,1.138-4.215,1.323-6.407,0.584c-4.135-1.398-6.246-5.713-6.454-13.198c-0.2-7.225,1.515-15.204,2.437-19.491
						c2.324-10.807,4.759-21.329,8.969-31.261c3.455-8.152,8.677-20.471,16.277-26.436c2.183-1.713,4.26-2.27,6.176-1.655
						c1.004,0.322,1.968,0.952,2.844,1.828c1.454,1.454,2.664,3.585,3.4,6.104c3.574,12.224-1.805,29.579-5.733,42.252
						c-0.699,2.255-1.359,4.385-1.934,6.365C967.409,828.987,960.12,845.546,951.921,849.827z"/>
				</g>
			</g>
		</g>
		<g>
			<g>
				<g>
					<g>
						<g>
							<path fill="#FFD829" d="M865.841,735.614c0.038,0.263,0.058,0.395,0.096,0.658c0.051,0.346-0.213,0.576-0.722,0.613
								c-0.456,0.034-0.808-0.146-0.858-0.486c-0.603-4.124-0.904-6.184-1.507-10.308c-0.05-0.34,0.209-0.607,0.708-0.717
								c0.446-0.098,0.791,0.04,0.842,0.387c0.264,1.808,0.396,2.712,0.661,4.52c0.703-0.942,2.098-1.601,3.604-1.859
								c3.226-0.551,5.656,0.872,6.026,3.398c0.369,2.526-1.567,4.482-4.838,4.723C868.325,736.656,866.766,736.374,865.841,735.614
								z M873.067,732.019c-0.28-1.913-2.031-2.953-4.336-2.586c-2.304,0.366-3.694,1.789-3.439,3.535
								c0.255,1.746,2.006,2.786,4.334,2.587C871.955,735.354,873.347,733.931,873.067,732.019z"/>
						</g>
					</g>
					<g>
						<g>
							<path fill="#FFD829" d="M865.107,737.347c-0.648,0-1.124-0.343-1.203-0.881l-1.507-10.309
								c-0.064-0.446,0.175-1.034,1.063-1.23c0.394-0.087,0.752-0.035,1.011,0.144c0.208,0.144,0.344,0.364,0.382,0.623l0.527,3.614
								c0.799-0.64,1.934-1.119,3.208-1.337c1.882-0.322,3.594-0.012,4.816,0.875c0.961,0.698,1.562,1.703,1.739,2.907
								c0.176,1.207-0.115,2.324-0.844,3.232c-0.927,1.157-2.495,1.871-4.413,2.013c-1.337,0.096-2.562-0.086-3.495-0.514
								c-0.021,0.158-0.084,0.304-0.186,0.43c-0.138,0.172-0.416,0.386-0.957,0.426
								C865.201,737.346,865.154,737.347,865.107,737.347z M863.822,725.801c-0.043,0-0.098,0.004-0.165,0.02
								c-0.18,0.039-0.365,0.125-0.354,0.205l1.507,10.307c0.006,0.049,0.15,0.116,0.372,0.096c0.207-0.015,0.297-0.068,0.311-0.086
								l-0.28-1.836l0.918,0.753c0.769,0.631,2.155,0.946,3.688,0.826c1.663-0.122,3.001-0.716,3.767-1.673
								c0.565-0.705,0.791-1.579,0.652-2.528c-0.139-0.955-0.614-1.75-1.37-2.299c-1.02-0.74-2.486-0.995-4.126-0.714
								c-1.479,0.252-2.718,0.881-3.315,1.681l-0.659,0.885l-0.82-5.613C863.942,725.818,863.9,725.801,863.822,725.801z
								 M869.059,736.036c-2.286,0-3.95-1.16-4.219-3.003c-0.295-2.014,1.241-3.643,3.82-4.053c1.367-0.216,2.619,0.026,3.517,0.686
								c0.74,0.544,1.204,1.334,1.343,2.287c0.139,0.956-0.083,1.834-0.644,2.541c-0.681,0.858-1.821,1.397-3.211,1.516
								C869.459,736.027,869.256,736.036,869.059,736.036z M869.62,729.817c-0.263,0-0.537,0.022-0.818,0.067
								c-2.045,0.325-3.274,1.537-3.057,3.017c0.218,1.493,1.771,2.377,3.842,2.197c1.137-0.097,2.051-0.514,2.573-1.173
								c0.4-0.505,0.557-1.141,0.455-1.841c-0.103-0.705-0.441-1.286-0.979-1.682C871.11,730.017,870.413,729.817,869.62,729.817z"
								/>
						</g>
					</g>
				</g>
				<g>
					<g>
						<g>
							<path fill="#FFD829" d="M890.988,734.095c0.056,0.385-0.202,0.656-0.791,0.701c-3.838,0.291-5.757,0.437-9.596,0.729
								c-0.59,0.045-0.917-0.155-0.968-0.499c-0.047-0.324,0.215-0.572,0.804-0.624c0.803-0.07,2.043-0.116,2.849-0.165
								c-0.398-2.723-0.597-4.085-0.995-6.808c-0.739,0.138-2.027,0.403-2.796,0.523c-0.583,0.091-0.907-0.086-0.958-0.43
								c-0.047-0.324,0.212-0.595,0.794-0.693c1.407-0.237,2.111-0.356,3.519-0.593c0.529-0.089,0.884,0.113,0.946,0.54
								c0.036,0.248,0.054,0.371,0.09,0.619c0.506-1.17,1.969-1.912,3.344-2.147c0.846-0.145,1.957-0.153,2.764,0.179
								c0.373,0.148,0.565,0.35,0.609,0.647c0.057,0.388-0.252,0.691-0.622,0.747c-0.398,0.06-0.736-0.027-1.077-0.135
								c-0.569-0.187-1.205-0.268-1.947-0.15c-1.907,0.303-2.925,1.862-2.647,3.762c0.222,1.52,0.333,2.28,0.556,3.8
								c1.201-0.126,4.162-0.452,5.151-0.539C890.605,733.51,890.935,733.733,890.988,734.095z"/>
						</g>
					</g>
					<g>
						<g>
							<path fill="#FFD829" d="M880.444,735.988c-0.83,0-1.198-0.45-1.263-0.895c-0.037-0.25,0.027-0.493,0.179-0.685
								c0.208-0.263,0.557-0.419,1.037-0.461c0.526-0.046,1.239-0.082,1.896-0.115c0.161-0.008,0.317-0.015,0.467-0.023l-0.853-5.84
								l-0.373,0.071c-0.673,0.131-1.442,0.281-1.969,0.364c-0.469,0.071-0.841,0.01-1.112-0.189
								c-0.204-0.151-0.331-0.367-0.369-0.626c-0.066-0.456,0.2-1.047,1.171-1.21l3.518-0.592c0.415-0.07,0.778-0.004,1.048,0.194
								c0.113,0.082,0.206,0.183,0.277,0.301c0.799-0.831,2.017-1.305,3.056-1.483c0.416-0.071,1.865-0.264,3.014,0.208
								c0.519,0.205,0.82,0.543,0.888,1.002c0.088,0.611-0.354,1.166-1.006,1.266c-0.503,0.075-0.927-0.038-1.284-0.151
								c-0.567-0.186-1.131-0.231-1.737-0.134c-1.627,0.258-2.516,1.532-2.265,3.244l0.491,3.365l0.921-0.099
								c1.364-0.146,3.09-0.331,3.801-0.394c0.974-0.088,1.394,0.444,1.465,0.924l0,0c0.042,0.292-0.025,0.558-0.196,0.772
								c-0.212,0.264-0.553,0.415-1.014,0.451l-9.595,0.729C880.569,735.985,880.505,735.988,880.444,735.988z M882.674,726.893
								l1.135,7.771l-0.497,0.03c-0.284,0.017-0.621,0.034-0.974,0.052c-0.646,0.032-1.345,0.067-1.861,0.113
								c-0.271,0.024-0.382,0.094-0.4,0.117c0.022,0.079,0.262,0.111,0.489,0.094l9.595-0.73c0.237-0.018,0.343-0.077,0.369-0.11
								l0.004-0.068c-0.024-0.172-0.375-0.156-0.479-0.145c-0.708,0.062-2.426,0.247-3.784,0.393l-1.796,0.19l-0.62-4.234
								c-0.319-2.187,0.925-3.946,3.028-4.28c0.749-0.117,1.457-0.063,2.161,0.168c0.333,0.104,0.582,0.16,0.866,0.117
								c0.109-0.017,0.255-0.099,0.237-0.229c-0.009-0.062-0.025-0.169-0.324-0.288c-0.74-0.305-1.786-0.278-2.519-0.154
								c-1.091,0.186-2.531,0.79-3.001,1.877l-0.637,1.475l-0.326-2.208c-0.014-0.092-0.047-0.116-0.06-0.125
								c-0.024-0.018-0.121-0.072-0.358-0.031l-3.518,0.592c-0.307,0.052-0.408,0.147-0.419,0.17
								c0.022,0.044,0.144,0.096,0.436,0.05c0.518-0.081,1.275-0.229,1.935-0.358L882.674,726.893z"/>
						</g>
					</g>
				</g>
				<g>
					<g>
						<g>
							<path fill="#FFD829" d="M894.559,729.399c-0.447-3.058,1.847-5.716,5.258-6.299c3.411-0.583,6.387,1.424,6.883,4.818
								c0.496,3.394-1.799,6.044-5.258,6.299C897.983,734.472,895.006,732.457,894.559,729.399z M905.076,728.116
								c-0.373-2.551-2.65-4.034-5.059-3.652c-2.41,0.383-4.178,2.373-3.833,4.736c0.345,2.363,2.624,3.86,5.059,3.651
								C903.678,732.644,905.448,730.667,905.076,728.116z"/>
						</g>
					</g>
					<g>
						<g>
							<path fill="#FFD829" d="M900.859,734.695c-3.455,0-6.305-2.167-6.752-5.23l0,0c-0.476-3.256,1.945-6.186,5.634-6.816
								c1.83-0.312,3.6,0.068,4.981,1.07c1.318,0.958,2.181,2.425,2.431,4.133c0.25,1.709-0.163,3.336-1.161,4.58
								c-1.049,1.308-2.653,2.103-4.516,2.241C901.268,734.688,901.062,734.695,900.859,734.695z M900.98,723.457
								c-0.356,0-0.719,0.03-1.086,0.094c-3.186,0.544-5.285,3.029-4.882,5.782l0,0c0.403,2.764,3.148,4.67,6.396,4.428
								c1.608-0.118,2.982-0.793,3.871-1.9c0.837-1.045,1.182-2.421,0.968-3.876c-0.213-1.461-0.946-2.714-2.063-3.524
								C903.277,723.8,902.166,723.457,900.98,723.457z M900.794,733.328c-2.543,0.001-4.72-1.71-5.063-4.061
								c-0.367-2.513,1.484-4.82,4.214-5.254c1.343-0.211,2.665,0.093,3.716,0.866c1.015,0.746,1.677,1.872,1.868,3.171
								c0.19,1.301-0.128,2.551-0.895,3.519c-0.796,1.004-1.986,1.621-3.351,1.738C901.118,733.322,900.955,733.328,900.794,733.328
								z M900.775,724.862c-0.226,0-0.456,0.019-0.687,0.055c-2.267,0.359-3.75,2.172-3.451,4.218
								c0.3,2.056,2.269,3.466,4.567,3.262c1.112-0.096,2.076-0.59,2.713-1.395c0.609-0.768,0.859-1.769,0.706-2.819l0,0
								c-0.154-1.055-0.688-1.967-1.504-2.566C902.445,725.121,901.631,724.862,900.775,724.862z"/>
						</g>
					</g>
				</g>
				<g>
					<g>
						<g>
							<path fill="#FFD829" d="M921.936,732.206c-2.317-2.358-3.469-3.492-5.761-5.672c-0.952,0.977-1.43,1.457-2.387,2.4
								c0.202,1.378,0.302,2.067,0.504,3.445c0.081,0.551-0.165,0.904-0.675,0.941c-0.455,0.034-0.825-0.27-0.904-0.814
								c-0.967-6.611-1.45-9.917-2.416-16.527c-0.08-0.545,0.161-0.935,0.659-1.044c0.447-0.098,0.81,0.163,0.891,0.714
								c0.669,4.575,1.003,6.862,1.672,11.438c2.565-2.624,3.838-4,6.366-6.879c0.328-0.353,0.505-0.623,0.902-0.691
								c0.396-0.068,0.757,0.173,0.83,0.674c0.073,0.501-0.086,0.709-0.53,1.198c-1.505,1.64-2.261,2.438-3.779,3.992
								c2.213,2.084,3.325,3.167,5.561,5.414c0.381,0.384,0.575,0.607,0.627,0.961c0.073,0.502-0.201,0.85-0.656,0.884
								C922.492,732.667,922.193,732.481,921.936,732.206z"/>
						</g>
					</g>
					<g>
						<g>
							<path fill="#FFD829" d="M913.548,733.78c-0.659,0-1.182-0.483-1.288-1.208l-2.416-16.527
								c-0.114-0.785,0.283-1.397,1.014-1.558c0.329-0.072,0.654-0.015,0.912,0.163c0.199,0.138,0.454,0.412,0.53,0.932
								l1.538,10.522c2.151-2.212,3.391-3.565,5.703-6.199l0.151-0.166c0.259-0.29,0.528-0.59,1.019-0.673
								c0.311-0.054,0.621,0.014,0.866,0.194c0.263,0.191,0.439,0.498,0.492,0.865c0.103,0.707-0.163,1.042-0.643,1.572
								c-1.409,1.534-2.151,2.32-3.466,3.671c1.995,1.882,3.089,2.951,5.233,5.105c0.409,0.412,0.682,0.719,0.756,1.218
								c0.054,0.375-0.029,0.724-0.237,0.983c-0.197,0.247-0.495,0.397-0.838,0.422c-0.456,0.029-0.88-0.159-1.268-0.574
								c-2.203-2.243-3.332-3.357-5.419-5.347c-0.706,0.723-1.166,1.183-1.913,1.92l0.471,3.215
								c0.077,0.527-0.085,0.858-0.233,1.043c-0.139,0.173-0.401,0.387-0.861,0.421C913.616,733.779,913.582,733.78,913.548,733.78z
								 M911.136,715.371c-0.025,0-0.052,0.004-0.081,0.01c-0.111,0.024-0.371,0.082-0.305,0.532l2.416,16.527
								c0.024,0.169,0.139,0.439,0.417,0.423c0.073-0.005,0.17-0.023,0.215-0.08c0.049-0.061,0.064-0.184,0.041-0.339l-0.537-3.675
								l0.165-0.163c0.955-0.94,1.431-1.418,2.38-2.393l0.315-0.324l0.328,0.312c2.312,2.2,3.444,3.315,5.771,5.683l0.008,0.008
								c0.292,0.313,0.48,0.297,0.537,0.291c0.062-0.004,0.144-0.022,0.192-0.081c0.046-0.059,0.063-0.158,0.045-0.28
								c-0.028-0.194-0.121-0.326-0.498-0.706c-2.254-2.265-3.343-3.325-5.55-5.404l-0.339-0.32l0.326-0.333
								c1.518-1.554,2.257-2.336,3.768-3.981c0.434-0.48,0.455-0.544,0.414-0.824c-0.017-0.121-0.062-0.212-0.123-0.256
								c-0.046-0.035-0.109-0.045-0.177-0.032c-0.163,0.027-0.253,0.115-0.49,0.381l-0.154,0.169
								c-2.539,2.892-3.792,4.246-6.374,6.887l-0.646,0.661l-1.806-12.352c-0.021-0.15-0.074-0.263-0.144-0.312
								C911.219,715.382,911.181,715.371,911.136,715.371z"/>
						</g>
					</g>
				</g>
				<g>
					<g>
						<g>
							<path fill="#FFD829" d="M926.679,725.514c-0.59-4.039,1.645-7.284,5.004-7.858c3.252-0.556,6.221,1.77,6.808,5.784
								c0.091,0.625-0.086,1.081-0.726,1.157c-3.762,0.447-5.642,0.671-9.404,1.118c0.565,2.745,2.704,4.589,5.381,4.36
								c1.632-0.14,2.669-0.843,3.605-1.855c0.26-0.256,0.431-0.571,0.831-0.61c0.427-0.042,0.806,0.32,0.878,0.813
								c0.072,0.493-0.076,0.773-0.447,1.203c-0.852,1.034-2.493,2.037-4.693,2.199
								C930.297,732.091,927.265,729.522,926.679,725.514z M928.229,724.074c3.394-0.443,5.091-0.664,8.484-1.106
								c-0.558-2.514-2.711-3.898-4.776-3.571C929.87,719.725,928.331,721.617,928.229,724.074z"/>
						</g>
					</g>
					<g>
						<g>
							<path fill="#FFD829" d="M933.387,732.302c-3.666,0-6.571-2.69-7.161-6.722c-0.606-4.147,1.707-7.747,5.38-8.375
								c1.587-0.271,3.17,0.096,4.459,1.033c1.535,1.116,2.557,2.939,2.879,5.135c0.074,0.506-0.004,0.913-0.231,1.21
								c-0.202,0.263-0.503,0.422-0.893,0.467l-8.89,1.058c0.667,2.306,2.529,3.703,4.774,3.511c1.332-0.113,2.29-0.609,3.307-1.71
								c0.068-0.068,0.116-0.123,0.164-0.177c0.199-0.223,0.472-0.531,0.958-0.579c0.651-0.079,1.268,0.463,1.376,1.202
								c0.096,0.664-0.13,1.078-0.555,1.568c-1.088,1.321-2.962,2.205-5.005,2.356C933.76,732.295,933.572,732.302,933.387,732.302z
								 M932.643,718.03c-0.291,0-0.586,0.026-0.884,0.077c-3.223,0.55-5.169,3.637-4.628,7.34c0.546,3.739,3.307,6.182,6.75,5.921
								c1.799-0.132,3.434-0.893,4.374-2.034c0.351-0.406,0.39-0.551,0.347-0.847c-0.037-0.249-0.205-0.436-0.38-0.423
								c-0.119,0.012-0.19,0.081-0.364,0.277c-0.062,0.069-0.124,0.138-0.191,0.205c-1.158,1.253-2.324,1.852-3.885,1.985
								c-2.847,0.247-5.246-1.699-5.868-4.723l-0.101-0.488l9.899-1.176c0.136-0.016,0.228-0.055,0.274-0.116
								c0.069-0.089,0.088-0.28,0.052-0.521c-0.285-1.951-1.176-3.558-2.511-4.528C934.664,718.352,933.68,718.03,932.643,718.03z
								 M927.75,724.597l0.022-0.542c0.11-2.644,1.793-4.745,4.093-5.11c2.425-0.387,4.713,1.3,5.295,3.923l0.108,0.488
								L927.75,724.597z M932.555,719.805c-0.18,0-0.363,0.014-0.547,0.044c-1.708,0.271-2.998,1.757-3.273,3.698l7.397-0.966
								C935.571,720.907,934.144,719.805,932.555,719.805z"/>
						</g>
					</g>
				</g>
				<g>
					<g>
						<g>
							<path fill="#FFD829" d="M952.95,729.267c-0.466-3.189-0.699-4.783-1.165-7.972c-0.523-3.575-2.099-4.715-3.821-4.442
								c-1.88,0.298-3.146,1.836-2.639,5.307c0.446,3.052,0.669,4.578,1.115,7.63c0.101,0.687-0.135,1.122-0.644,1.159
								c-0.456,0.034-0.838-0.351-0.937-1.032c-0.764-5.228-1.146-7.842-1.91-13.07c-0.1-0.681,0.132-1.139,0.635-1.225
								c0.449-0.077,0.827,0.282,0.927,0.969c0.058,0.399,0.087,0.598,0.146,0.997c0.574-1.637,1.835-2.462,3.29-2.711
								c2.644-0.452,4.706,1.416,5.339,5.746c0.498,3.407,0.747,5.11,1.245,8.516c0.105,0.722-0.126,1.176-0.636,1.214
								C953.439,730.387,953.055,729.982,952.95,729.267z"/>
						</g>
					</g>
					<g>
						<g>
							<path fill="#FFD829" d="M945.741,731.409c-0.677,0-1.207-0.561-1.334-1.426l-1.911-13.07
								c-0.135-0.93,0.262-1.614,1.011-1.742c0.308-0.047,0.598,0.016,0.844,0.196c0.248,0.18,0.43,0.456,0.537,0.81
								c0.69-0.927,1.713-1.534,2.981-1.752c1.208-0.204,2.326,0.037,3.242,0.702c1.342,0.974,2.25,2.851,2.627,5.429l1.244,8.517
								c0.081,0.559-0.008,1.019-0.258,1.331c-0.193,0.241-0.469,0.381-0.797,0.406c-0.598,0.035-1.273-0.395-1.431-1.477
								l-1.165-7.973c-0.264-1.813-0.834-3.088-1.648-3.686c-0.47-0.345-1.02-0.471-1.649-0.37
								c-2.389,0.379-2.547,2.813-2.258,4.789l1.116,7.63c0.078,0.529-0.011,0.969-0.254,1.273
								c-0.195,0.243-0.474,0.384-0.808,0.409C945.801,731.408,945.771,731.409,945.741,731.409z M943.702,716.07
								c-0.013,0-0.027,0.001-0.041,0.004c-0.292,0.05-0.303,0.412-0.259,0.707l1.911,13.07c0.049,0.332,0.23,0.681,0.452,0.642
								c0.113-0.008,0.147-0.05,0.162-0.068c0.029-0.037,0.119-0.184,0.062-0.569l-1.116-7.63c-0.664-4.546,1.608-5.601,3.021-5.825
								c0.86-0.133,1.669,0.049,2.334,0.537c1.029,0.757,1.706,2.201,2.011,4.291l1.165,7.973c0.062,0.425,0.267,0.732,0.458,0.697
								c0.092-0.006,0.128-0.037,0.15-0.064c0.031-0.039,0.129-0.2,0.066-0.627l-1.244-8.516c-0.34-2.328-1.121-3.995-2.259-4.82
								c-0.722-0.524-1.58-0.708-2.551-0.54c-1.014,0.172-2.346,0.732-2.935,2.411l-0.615,1.756l-0.414-2.838
								c-0.038-0.261-0.13-0.466-0.245-0.55C943.779,716.082,943.743,716.07,943.702,716.07z"/>
						</g>
					</g>
				</g>
			</g>
		</g>
		<g>
			<g>
				<g>
					<circle fill="#FFFFFF" cx="455.552" cy="175.722" r="35.612"/>
				</g>
			</g>
			<g>
				<g>
					<path d="M479.922,264.379l-2.562-3.07c16.396-13.687,24.114-27.832,24.289-44.515c0.073-7.02-1.347-13.711-4.221-19.887
						c-3.584-7.704-9.359-14.269-16.701-18.984c-6.083-3.907-12.789-5.624-19.543-5.634c0.028,0.105,0.057,0.213,0.084,0.317
						c4.357,16.679-6.417,46.017-23.83,54.322c-5.396,2.574-12.245,2.363-17.872-0.552c-4.864-2.518-8.009-6.608-8.853-11.519
						c-1.44-8.374,2.663-18.305,7.37-24.432c7.328-9.54,18.11-16.913,29.583-20.229c2.71-0.783,5.416-1.327,8.091-1.636
						c-6.605-16.953-22.981-29.65-40.731-30.957l0.293-3.988c19.654,1.445,37.746,15.735,44.601,34.655
						c8.284-0.188,16.186,1.928,22.97,6.286c7.98,5.126,14.262,12.271,18.166,20.662c3.128,6.722,4.674,13.995,4.594,21.616
						C505.461,234.778,497.286,249.885,479.922,264.379z M457.089,172.49c-13.91,1.363-27.53,9.565-35.833,20.375
						c-4.176,5.436-7.836,14.135-6.601,21.316c0.628,3.646,3.024,6.716,6.75,8.645c4.469,2.312,10.087,2.506,14.311,0.493
						c15.585-7.434,25.591-34.742,21.683-49.7C457.3,173.241,457.196,172.864,457.089,172.49z"/>
				</g>
			</g>
			<g>
				<g>
					<polygon points="513.479,275.316 493.824,268.426 499.433,288.484 487.582,271.349 480.341,290.883 480.828,270.051 
						463.483,281.598 476.121,265.037 455.305,264.18 475.255,258.199 458.926,245.271 478.581,252.161 472.972,232.103 
						484.823,249.238 492.063,229.704 491.576,250.536 508.922,238.989 496.283,255.55 517.1,256.407 497.149,262.388 					"/>
				</g>
			</g>
			<g>
				<g>
					<g>
						<path fill="#FFD829" d="M535.456,240.36c0-8.623,6.991-15.612,15.614-15.612c-8.623,0-15.614-6.99-15.614-15.613
							c0,8.623-6.991,15.613-15.614,15.613C528.466,224.748,535.456,231.737,535.456,240.36z"/>
					</g>
				</g>
			</g>
		</g>
		<g>
			<g>
				<g>
					<g>
						<path fill="#FFFFFF" d="M148.455,368.366c-1.396,0-2.776-0.034-4.14-0.103c-18.273-0.911-33.424-8.853-43.812-22.965
							c-13.513-18.354-17.817-45.65-11.234-71.234c6.429-24.989,23.021-46.357,43.302-55.767
							c16.051-7.448,33.369-7.114,50.081,0.962c33.449,16.164,63.358,57.335,54.569,92.859l0,0
							c-4.212,17.024-17.377,32.233-37.07,42.827C184.311,363.468,165.298,368.366,148.455,368.366z M156.308,216.96
							c-7.5,0-14.914,1.654-22.053,4.966c-19.221,8.918-34.974,29.278-41.112,53.135c-6.29,24.45-2.235,50.455,10.582,67.867
							c9.652,13.112,23.757,20.491,40.79,21.342c35.328,1.752,80.537-19.614,88.824-53.111c3.933-15.895-0.197-34.259-11.628-51.71
							c-10.123-15.456-25.375-29.133-40.799-36.587C172.774,218.929,164.49,216.96,156.308,216.96z"/>
					</g>
				</g>
				<g>
					<g>
						<path fill="#FFFFFF" d="M159.196,331.557c-1.872,0-3.717-0.123-5.519-0.373c-9.21-1.28-16.906-6.177-22.257-14.16
							c-6.238-9.308-8.341-21.979-5.487-33.067c2.866-11.144,10.549-20.881,20.553-26.049c8.445-4.364,17.847-4.951,26.473-1.65
							c8.881,3.397,16.985,10.138,22.235,18.491c5.691,9.057,7.517,19.126,5.139,28.354l0,0
							C195.695,321.107,176.418,331.557,159.196,331.557z M161.599,258.115c-5.371,0-9.938,1.621-13.276,3.346
							c-8.872,4.583-15.967,13.585-18.516,23.491c-2.577,10.019-0.686,21.455,4.938,29.845c3.276,4.888,9.315,11.012,19.484,12.424
							c16.668,2.324,37.621-7.222,42.231-25.116l0,0c4.569-17.737-9.201-36.095-24.931-42.111
							C168.01,258.646,164.672,258.115,161.599,258.115z"/>
					</g>
				</g>
			</g>
		</g>
		<g>
			<g>
				<circle fill="#FFD829" cx="163.873" cy="270.465" r="6.688"/>
			</g>
		</g>
		<g>
			<g>
				<circle fill="#FFD829" cx="164.614" cy="307.942" r="6.688"/>
			</g>
		</g>
		<g>
			<g>
				<circle fill="#FFD829" cx="178.115" cy="279.274" r="6.688"/>
			</g>
		</g>
		<g>
			<g>
				<circle fill="#FFD829" cx="176.18" cy="260.834" r="6.688"/>
			</g>
		</g>
		<g>
			<g>
				<circle fill="#FFD829" cx="151.38" cy="259.925" r="6.688"/>
			</g>
		</g>
		<g>
			<g>
				<circle fill="#FFD829" cx="194.812" cy="278.849" r="6.688"/>
			</g>
		</g>
		<g>
			<g>
				<circle fill="#FFD829" cx="199.481" cy="304.551" r="6.688"/>
			</g>
		</g>
		<g>
			<g>
				<circle fill="#FFD829" cx="182.281" cy="323.135" r="6.688"/>
			</g>
		</g>
		<g>
			<g>
				<circle fill="#FFD829" cx="161.935" cy="288.62" r="6.688"/>
			</g>
		</g>
		<g>
			<g>
				<circle fill="#FFD829" cx="178.564" cy="298.95" r="6.688"/>
			</g>
		</g>
		<g>
			<g>
				<circle fill="#FFD829" cx="212.334" cy="293.082" r="6.688"/>
			</g>
		</g>
		<g>
			<g>
				<circle fill="#FFD829" cx="202.078" cy="324.853" r="6.688"/>
			</g>
		</g>
		<g>
			<g>
				<g>
					<path d="M177.018,344.23c2.319-7.118-1.572-14.768-8.69-17.087c-3.34-1.088-6.523-2.592-9.478-4.457l-2.569,9.985
						c-0.496,1.928-2.462,3.09-4.39,2.594c-1.929-0.496-3.09-2.462-2.594-4.391l3.336-12.969c-0.83-0.77-1.633-1.57-2.4-2.406
						c-1.733-1.889-3.278-3.934-4.63-6.099l-6.626,8.077c-1.263,1.54-3.535,1.764-5.075,0.501c-1.54-1.263-1.764-3.535-0.501-5.075
						l8.663-10.561c-0.82-2.111-1.476-4.293-1.952-6.527c-0.433-2.038-0.706-4.086-0.835-6.129l-12.184-6.018
						c-1.786-0.882-2.518-3.045-1.636-4.83c0.882-1.786,3.045-2.518,4.83-1.636l9.235,4.562c0.47-3.716,1.434-7.346,2.857-10.796
						l-8.214-10.225c-1.247-1.553-1-3.822,0.553-5.07c1.553-1.247,3.822-1,5.07,0.553l6.256,7.787
						c2.125-3.261,4.716-6.257,7.743-8.877c5.661-4.899,6.279-13.459,1.38-19.12c-4.899-5.661-13.459-6.279-19.12-1.38
						c-19.101,16.529-27.705,42.133-22.452,66.821c2.574,12.099,8.334,23.291,16.658,32.366c8.068,8.796,18.33,15.4,29.677,19.096
						C167.049,355.239,174.699,351.348,177.018,344.23z"/>
				</g>
			</g>
			<g>
				<g>
					<path fill="#FFD829" d="M134.719,255.674c-1.553,1.247-1.8,3.517-0.553,5.07l8.214,10.225c0.998-2.419,2.226-4.747,3.665-6.954
						l-6.256-7.787C138.542,254.674,136.272,254.427,134.719,255.674z"/>
				</g>
			</g>
			<g>
				<g>
					<path fill="#FFD829" d="M125.458,278.839c-0.882,1.786-0.15,3.948,1.636,4.83l12.184,6.018
						c-0.167-2.66-0.085-5.312,0.245-7.922l-9.235-4.562C128.502,276.321,126.34,277.053,125.458,278.839z"/>
				</g>
			</g>
			<g>
				<g>
					<path fill="#FFD829" d="M151.891,335.265c1.929,0.496,3.895-0.666,4.39-2.594l2.569-9.985c-2.212-1.396-4.295-2.997-6.217-4.78
						l-3.336,12.969C148.801,332.803,149.962,334.769,151.891,335.265z"/>
				</g>
			</g>
			<g>
				<g>
					<path fill="#FFD829" d="M133.401,312.904c-1.263,1.54-1.039,3.812,0.501,5.075c1.54,1.263,3.812,1.039,5.075-0.501l6.626-8.077
						c-1.395-2.233-2.582-4.595-3.539-7.057L133.401,312.904z"/>
				</g>
			</g>
			<g>
				<g>
					<path d="M167.833,231.738c1.072,1.101,0.719,2.264-0.784,2.585l-11.946,2.549c-1.503,0.32-2.436-0.639-2.075-2.132
						l2.871-11.872c0.361-1.493,1.533-1.814,2.605-0.713L167.833,231.738z"/>
				</g>
			</g>
			<g>
				<g>
					<path d="M191.383,340.893c0.522-1.445-0.279-2.359-1.78-2.031l-11.933,2.603c-1.502,0.327-1.957,1.586-1.012,2.798l7.51,9.632
						c0.945,1.212,2.146,1.021,2.668-0.424L191.383,340.893z"/>
				</g>
			</g>
		</g>
		<g>
			<g>
				<g>
					<g>
						<path fill="#FFFFFF" d="M653.532,975.474c-0.085,0-0.172-0.006-0.258-0.017c-14.998-1.949-27.926-11.814-33.739-25.745
							c-5.814-13.93-3.733-30.058,5.43-42.091c0.434-0.568,1.139-0.857,1.849-0.771c14.998,1.949,27.926,11.814,33.739,25.744
							c5.813,13.932,3.733,30.06-5.43,42.092C654.742,975.186,654.151,975.474,653.532,975.474z M627.453,910.984
							c-7.709,10.791-9.343,24.929-4.227,37.187c5.115,12.259,16.314,21.042,29.408,23.151c7.709-10.79,9.342-24.929,4.227-37.188
							S640.547,913.094,627.453,910.984z"/>
					</g>
				</g>
				<g>
					<g>
						<path fill="#FFFFFF" d="M653.533,975.475c-0.783,0-1.526-0.463-1.847-1.23l-26.977-64.641c-0.426-1.02,0.056-2.19,1.075-2.616
							c1.021-0.426,2.19,0.056,2.616,1.075l26.977,64.641c0.426,1.02-0.056,2.19-1.075,2.616
							C654.051,975.425,653.79,975.475,653.533,975.475z"/>
					</g>
				</g>
				<g>
					<g>
						<path fill="#FFFFFF" d="M660.381,951.067c-0.073,0-0.146-0.004-0.219-0.012l-17.759-1.932
							c-1.099-0.119-1.892-1.106-1.772-2.204c0.12-1.1,1.133-1.884,2.204-1.772l17.759,1.932c1.099,0.119,1.892,1.106,1.772,2.204
							C662.255,950.309,661.388,951.067,660.381,951.067z"/>
					</g>
				</g>
				<g>
					<g>
						<path fill="#FFFFFF" d="M631.5,963.119c-0.437,0-0.876-0.142-1.244-0.435c-0.864-0.688-1.008-1.945-0.32-2.811l11.118-13.983
							c0.687-0.864,1.945-1.01,2.811-0.32c0.864,0.688,1.008,1.945,0.32,2.811l-11.118,13.983
							C632.672,962.86,632.089,963.119,631.5,963.119z"/>
					</g>
				</g>
				<g>
					<g>
						<path fill="#FFFFFF" d="M657.018,932.388c-0.073,0-0.146-0.004-0.219-0.012l-22.289-2.424
							c-1.099-0.119-1.892-1.106-1.772-2.204c0.12-1.1,1.133-1.88,2.204-1.772l22.289,2.424c1.099,0.119,1.892,1.106,1.772,2.204
							C658.892,931.629,658.025,932.388,657.018,932.388z"/>
					</g>
				</g>
				<g>
					<g>
						<path fill="#FFFFFF" d="M620.772,947.513c-0.437,0-0.876-0.142-1.244-0.435c-0.864-0.688-1.008-1.945-0.32-2.811
							l13.953-17.549c0.687-0.864,1.945-1.009,2.811-0.32c0.864,0.688,1.008,1.945,0.32,2.811l-13.953,17.549
							C621.944,947.254,621.361,947.513,620.772,947.513z"/>
					</g>
				</g>
			</g>
			<g>
				<g>
					<g>
						<path fill="#FFFFFF" d="M544.03,863.897c-5.443,0-10.908-1.041-16.079-3.167c-13.961-5.739-23.895-18.615-25.923-33.603
							c-0.097-0.71,0.194-1.417,0.762-1.854c11.983-9.227,28.102-11.393,42.061-5.652c13.96,5.739,23.894,18.615,25.923,33.603
							c0.097,0.71-0.194,1.416-0.762,1.854C562.468,860.887,553.282,863.897,544.03,863.897z M506.166,827.746
							c2.179,13.081,11.02,24.234,23.307,29.285c12.284,5.051,26.414,3.344,37.164-4.425c-2.18-13.082-11.021-24.234-23.307-29.285
							C531.046,818.271,516.916,819.979,506.166,827.746z"/>
					</g>
				</g>
				<g>
					<g>
						<path fill="#FFFFFF" d="M568.792,855.494c-0.253,0-0.511-0.049-0.76-0.151l-64.783-26.634c-1.021-0.42-1.509-1.589-1.089-2.61
							c0.419-1.021,1.586-1.512,2.61-1.089l64.783,26.634c1.021,0.42,1.509,1.589,1.089,2.61
							C570.325,855.026,569.579,855.494,568.792,855.494z"/>
					</g>
				</g>
				<g>
					<g>
						<path fill="#FFFFFF" d="M516.427,850.959c-0.585,0-1.165-0.256-1.56-0.747c-0.692-0.86-0.556-2.12,0.306-2.812l13.924-11.192
							c0.86-0.692,2.121-0.555,2.812,0.306c0.692,0.86,0.556,2.12-0.306,2.812l-13.924,11.192
							C517.309,850.814,516.866,850.959,516.427,850.959z"/>
					</g>
				</g>
				<g>
					<g>
						<path fill="#FFFFFF" d="M530.347,839.767c-1.003,0-1.868-0.753-1.984-1.773l-2.025-17.748
							c-0.125-1.098,0.663-2.089,1.761-2.214c1.096-0.125,2.089,0.663,2.214,1.761l2.025,17.748
							c0.125,1.098-0.663,2.089-1.761,2.214C530.499,839.763,530.423,839.767,530.347,839.767z"/>
					</g>
				</g>
				<g>
					<g>
						<path fill="#FFFFFF" d="M532.014,861.789c-0.585,0-1.165-0.256-1.56-0.747c-0.692-0.861-0.556-2.12,0.306-2.812l17.475-14.046
							c0.861-0.692,2.12-0.555,2.812,0.306c0.692,0.861,0.556,2.12-0.306,2.812l-17.475,14.046
							C532.896,861.645,532.453,861.789,532.014,861.789z"/>
					</g>
				</g>
				<g>
					<g>
						<path fill="#FFFFFF" d="M549.484,847.743c-1.003,0-1.868-0.753-1.984-1.773l-2.542-22.276
							c-0.125-1.098,0.663-2.089,1.761-2.214c1.096-0.128,2.089,0.662,2.214,1.761l2.542,22.276
							c0.125,1.098-0.663,2.089-1.761,2.214C549.637,847.739,549.56,847.743,549.484,847.743z"/>
					</g>
				</g>
			</g>
			<g>
				<g>
					<path d="M662.722,891.56c3.106-7.506,14.405-13.566,14.405-21.562c0-7.997-11.3-14.057-14.405-21.563
						c-2.996-7.241,0.827-19.543-5.059-25.429c-5.886-5.886-18.188-2.063-25.429-5.059c-7.506-3.106-13.566-14.406-21.562-14.406
						c-7.997,0-14.057,11.3-21.563,14.405c-7.241,2.996-19.543-0.827-25.429,5.059s-2.063,18.188-5.059,25.429
						c-3.106,7.506-14.405,13.566-14.405,21.562c0,7.997,11.3,14.057,14.405,21.563c2.996,7.241-0.827,19.543,5.059,25.429
						c5.886,5.886,18.188,2.063,25.429,5.059c7.506,3.106,13.566,14.406,21.562,14.406s14.057-11.3,21.563-14.405
						c7.241-2.996,19.543,0.827,25.429-5.059S659.726,898.8,662.722,891.56z M591.064,889.604
						c-10.829-10.829-10.829-28.386,0-39.215s28.386-10.829,39.215,0s10.829,28.386,0,39.215
						C619.45,900.433,601.892,900.433,591.064,889.604z"/>
				</g>
			</g>
			<g>
				<g>
					<path fill="#FFD829" d="M626.88,876.547c-1.37-2.353-7.294-7.356-11.78-10.597c0.2-0.506,0.319-1.053,0.329-1.629
						c0.026-1.623-0.787-3.063-2.037-3.91c0.722-5.651,7.945-7.45,8.019-7.468c0.835-0.198,1.352-1.034,1.155-1.87
						c-0.197-0.836-1.035-1.355-1.87-1.158c-0.352,0.082-7.774,1.904-9.909,8.034c-1.935-6.198-9.295-8.257-9.643-8.35
						c-0.828-0.223-1.679,0.266-1.904,1.095c-0.225,0.828,0.264,1.683,1.092,1.909c0.074,0.02,7.36,2.084,7.788,7.868
						c-1.161,0.825-1.932,2.168-1.956,3.701c-0.009,0.538,0.079,1.054,0.24,1.537c-4.6,3.097-10.788,7.99-12.245,10.325
						c-2.295,3.679-1.174,8.522,2.504,10.817c3.679,2.296,8.522,1.174,10.817-2.504c1.035-1.659,2.207-6.014,3.074-10.366
						c0.733,4.38,1.771,8.774,2.754,10.465c2.181,3.748,6.987,5.018,10.735,2.837C627.791,885.101,629.061,880.295,626.88,876.547z"
						/>
				</g>
			</g>
		</g>
		<g>
			<g>
				<g>
					<path fill="#FFFFFF" d="M138.105,724.996c0-14.893,12.074-26.965,26.968-26.965c-14.894,0-26.968-12.073-26.968-26.966
						c0,14.893-12.074,26.966-26.969,26.966C126.031,698.031,138.105,710.103,138.105,724.996z"/>
				</g>
			</g>
		</g>
		<g>
			<g>
				<g>
					<path fill="#FFFFFF" d="M753.977,310.224c0-14.893,12.074-26.965,26.968-26.965c-14.894,0-26.968-12.073-26.968-26.966
						c0,14.893-12.074,26.966-26.969,26.966C741.902,283.259,753.977,295.331,753.977,310.224z"/>
				</g>
			</g>
		</g>
		<g>
			<g>
				<g>
					<path fill="#FFFFFF" d="M1061.378,1080c0-10.284,8.337-18.62,18.622-18.62c-10.285,0-18.622-8.337-18.622-18.62
						c0,10.284-8.337,18.62-18.622,18.62C1053.041,1061.38,1061.378,1069.716,1061.378,1080z"/>
				</g>
			</g>
		</g>
	</g>
	<g>
		<circle fill="#FFFFFF" cx="52.67" cy="44.965" r="6.565"/>
	</g>
	<g>
		<circle fill="#FFFFFF" cx="349.86" cy="958.009" r="6.565"/>
	</g>
	<g>
		<circle fill="#FFFFFF" cx="6.565" cy="1028.009" r="6.565"/>
	</g>
	<g>
		<circle fill="#FFFFFF" cx="191.543" cy="747.101" r="6.565"/>
	</g>
	<g>
		<circle fill="#FFFFFF" cx="1073.435" cy="297.457" r="6.565"/>
	</g>
	<g>
		<circle fill="#FFFFFF" cx="1016.195" cy="346.744" r="6.565"/>
	</g>
	<g>
		<circle fill="#FFFFFF" cx="843.985" cy="6.565" r="6.565"/>
	</g>
</g>
</svg>
