<svg xmlns="http://www.w3.org/2000/svg" fill="none" viewBox="0 0 66 264"><path fill="#18191C" d="M0 198h66v66H0z"/><path fill="#ED6742" d="M0 0h66v198H0z"/><circle cx="33" cy="231" r="33" fill="#ED6742"/><circle cx="33" cy="33" r="33" fill="#fff"/><path fill="#fff" d="M33 164c18.225 0 33-14.775 33-33H0c0 18.225 14.775 33 33 33zM33 99c18.225 0 33-14.775 33-33H0c0 18.225 14.775 33 33 33zM33 131c18.225 0 33-14.327 33-32H0c0 17.673 14.775 32 33 32zM33 198c18.225 0 33-15.222 33-34H0c0 18.778 14.775 34 33 34z"/></svg>