<svg xmlns="http://www.w3.org/2000/svg" width="100" height="100" fill="none"><path stroke="#18191c" stroke-linecap="round" stroke-linejoin="round" stroke-width="7" d="M32 64H16l2-4M73 64H61l-2-4M17.998 44.205c-1.875-8.273-15.467-5.193-13.592 3.08"/><path stroke="#18191c" stroke-linecap="round" stroke-linejoin="round" stroke-width="8.49" d="M73.639 42.852c-4.273 0-3.6 10.153-3.6 19.406M90.62 42.852c4.271 0 3.6 10.153 3.6 19.406"/><rect width="74" height="27" x="10" y="34" fill="#18191c" rx="13.5"/><circle cx="82.129" cy="50.129" r="12.129" fill="#18191c"/><circle cx="82.077" cy="57.458" r="8.49" fill="#18191c" transform="rotate(.35 82.077 57.458)"/><path fill="#fff" d="M82.256 60.32c-2.345 0-4.372-.4-4.372-2.416 0-2.015 1.9-3.65 4.245-3.65 2.344 0 4.245 1.635 4.245 3.65 0 2.015-1.774 2.415-4.118 2.415Z"/><path stroke="#fff" stroke-linecap="round" stroke-linejoin="round" stroke-width="2" d="M83.585 43.822c0 3.881 5.821 3.881 5.821 0M74.852 43.822c0 3.881 5.822 3.881 5.822 0"/></svg>
