<svg xmlns="http://www.w3.org/2000/svg" width="100" height="100" fill="none"><path stroke="#18191c" stroke-linecap="round" stroke-linejoin="round" stroke-width="7" d="M14.453 52v23l4 2M23.453 47v23h3M10.499 33c-5.999 5.998 3.856 15.853 9.854 9.855"/><path stroke="#18191c" stroke-linecap="round" stroke-linejoin="round" stroke-width="8.49" d="M86 27c4.272 0 3.6 10.153 3.6 19.406"/><path stroke="#18191c" stroke-linecap="round" stroke-linejoin="round" stroke-width="7" d="M62.453 54v23l3 1M71.453 48v23h4"/><rect width="74" height="27" x="6" y="38" fill="#18191c" rx="13.5"/><circle cx="77.129" cy="34.129" r="12.129" fill="#18191c"/><circle cx="76" cy="30" r="3" fill="#18191c" stroke="#fff" stroke-width="2"/><circle cx="63.542" cy="36.542" r="8.49" fill="#18191c" transform="rotate(.35 63.542 36.542)"/><path fill="#fff" d="M58.372 34.065c-2.345 0-4.372-.4-4.372-2.416C54 29.634 55.9 28 58.245 28s4.245 1.634 4.245 3.65c0 2.014-1.774 2.415-4.118 2.415Z"/></svg>
