<svg xmlns="http://www.w3.org/2000/svg" width="100" height="100" fill="none"><path stroke="#18191c" stroke-linecap="round" stroke-linejoin="round" stroke-width="7" d="M14.453 50v23l4 2M23.453 45v23h3M10.499 31c-5.999 5.998 3.856 15.853 9.854 9.855"/><path stroke="#18191c" stroke-linecap="round" stroke-linejoin="round" stroke-width="8.49" d="M69.639 28.852c-4.273 0-3.6 10.153-3.6 19.406M86.62 28.852c4.271 0 3.6 10.153 3.6 19.406"/><path stroke="#18191c" stroke-linecap="round" stroke-linejoin="round" stroke-width="7" d="M62.453 52v23l3 1M71.453 46v23h4"/><rect width="74" height="27" x="6" y="36" fill="#18191c" rx="13.5"/><circle cx="78.129" cy="36.129" r="12.129" fill="#18191c"/><circle cx="78.077" cy="43.458" r="8.49" fill="#18191c" transform="rotate(.35 78.077 43.458)"/><path fill="#fff" d="M78.256 46.32c-2.345 0-4.372-.4-4.372-2.416 0-2.015 1.9-3.65 4.245-3.65 2.344 0 4.245 1.635 4.245 3.65 0 2.015-1.774 2.415-4.118 2.415Z"/><path stroke="#fff" stroke-linecap="round" stroke-linejoin="round" stroke-width="2" d="M76.674 32.733c0-3.881-5.822-3.881-5.822 0M85.406 32.733c0-3.881-5.822-3.881-5.822 0"/></svg>
