<svg xmlns="http://www.w3.org/2000/svg" width="1920" height="1080"><path fill="#F68635" d="M309.822 314.178v-58.724c0-16.267 13.187-29.453 29.453-29.453h872.87c16.268 0 29.453 13.186 29.453 29.453v58.724"/><path d="M1243.599 314.178h-4v-58.724c0-15.137-12.315-27.453-27.453-27.453h-872.87c-15.138 0-27.453 12.315-27.453 27.453v58.724h-4v-58.724c0-17.343 14.11-31.453 31.453-31.453h872.87c17.344 0 31.453 14.109 31.453 31.453v58.724z"/><path fill="#F68635" d="M536 314.375l6.951-55.563c2.716-20.145 14.67-32.768 32.768-32.768h202.563c18.097 0 30.052 13.957 32.768 32.768l6.95 55.563"/><path fill="#FFF" d="M816.016 314.623l-6.951-55.563c-2.719-18.827-14.804-31.016-30.783-31.016H575.718c-16.657 0-28.165 11.602-30.786 31.035l-6.948 55.544-3.969-.496 6.951-55.563c2.915-21.622 15.906-34.52 34.752-34.52h202.563c18.084 0 31.723 13.535 34.747 34.482l6.956 55.601-3.968.496z"/><path fill="#FFF" d="M1243.599 742.839H307.822v-431.02h935.776v431.02zm-931.777-4h927.776v-423.02H311.822v423.02z"/><path fill="#FFF" d="M309 653.4h932v4H309zM309 567.8h932v4H309zM309 482.2h932v4H309zM309 396.6h932v4H309z"/><circle cx="355.007" cy="270.626" r="19.635"/><circle fill="#FFF" cx="412.127" cy="270.626" r="19.635"/><path fill="#FFF" d="M469.247 292.262c-11.93 0-21.635-9.706-21.635-21.635s9.705-21.635 21.635-21.635 21.635 9.706 21.635 21.635-9.705 21.635-21.635 21.635zm0-39.271c-9.724 0-17.635 7.911-17.635 17.635s7.911 17.635 17.635 17.635c9.724 0 17.635-7.911 17.635-17.635s-7.911-17.635-17.635-17.635z"/><path d="M694.872 561.904c-3.356-75.721-65.799-136.083-142.35-136.083-76.549 0-138.993 60.362-142.35 136.083h-.15v180.85h285v-180.85h-.15z"/><path fill="#FFF" d="M571.5 242.709h55v55h-55z"/><circle cx="599" cy="277.084" r="15"/><circle cx="585" cy="259.209" r="5.75"/><circle cx="613" cy="259.209" r="5.75"/><circle cx="599" cy="254.084" r="5.75"/><g><path d="M648.8 258.8c.216-.023.594-.06 1.134-.108.54-.048 1.152-.09 1.836-.126s1.392-.066 2.124-.09a60.522 60.522 0 011.962-.036c2.232 0 4.08.324 5.544.972s2.622 1.542 3.474 2.682c.852 1.14 1.446 2.484 1.782 4.032s.504 3.234.504 5.058c0 1.656-.168 3.276-.504 4.86s-.942 2.994-1.818 4.23c-.876 1.236-2.088 2.232-3.636 2.988-1.548.756-3.534 1.134-5.958 1.134-.384 0-.876-.012-1.476-.036-.6-.024-1.212-.054-1.836-.09a369.18 369.18 0 01-1.8-.108 15.87 15.87 0 01-1.332-.126V258.8zm7.236 4.032c-.457 0-.9.018-1.332.054-.432.036-.756.066-.972.09v16.884c.096.024.24.042.432.054a162.571 162.571 0 001.188.072c.192.013.348.018.468.018 1.392 0 2.502-.257 3.33-.774a4.874 4.874 0 001.854-2.034c.408-.84.672-1.788.792-2.844.12-1.056.18-2.112.18-3.168 0-.912-.054-1.86-.162-2.844-.108-.984-.36-1.884-.756-2.7s-.99-1.488-1.782-2.016-1.872-.792-3.24-.792zM669.896 271.4c0-2.04.192-3.875.576-5.508.384-1.632.972-3.006 1.764-4.122s1.782-1.974 2.97-2.574c1.188-.6 2.586-.9 4.194-.9 1.728 0 3.192.324 4.392.972a8.018 8.018 0 012.934 2.7c.756 1.152 1.308 2.533 1.656 4.14.347 1.608.522 3.372.522 5.292 0 4.104-.787 7.314-2.358 9.63-1.572 2.316-3.954 3.474-7.146 3.474-1.728 0-3.198-.324-4.41-.972-1.212-.648-2.196-1.548-2.952-2.7s-1.302-2.532-1.638-4.14c-.337-1.608-.504-3.372-.504-5.292zm5.184 0c0 1.224.054 2.364.162 3.42.108 1.057.312 1.975.612 2.754.3.78.732 1.398 1.296 1.854s1.314.684 2.25.684c.84 0 1.536-.174 2.088-.522.552-.348.996-.882 1.332-1.602.335-.72.57-1.625.702-2.718.132-1.092.198-2.382.198-3.87 0-1.175-.042-2.292-.126-3.348-.084-1.056-.276-1.98-.576-2.772-.3-.792-.738-1.422-1.314-1.89-.576-.468-1.344-.702-2.304-.702-1.68 0-2.82.732-3.42 2.196-.601 1.464-.9 3.636-.9 6.516zM701.827 270.86h8.604v11.376c-.816.744-1.878 1.309-3.186 1.692a14.213 14.213 0 01-4.014.576c-1.608 0-3.114-.276-4.518-.828a9.796 9.796 0 01-3.654-2.502c-1.032-1.116-1.848-2.496-2.448-4.14-.6-1.644-.9-3.57-.9-5.778 0-2.328.36-4.308 1.08-5.94.72-1.632 1.65-2.97 2.79-4.014a10.745 10.745 0 013.834-2.286c1.416-.48 2.82-.72 4.212-.72 1.44 0 2.64.114 3.6.342s1.836.522 2.628.882v7.452h-3.96v-3.996l-.576-.144a8.091 8.091 0 00-1.584-.144 7.3 7.3 0 00-2.736.504 5.594 5.594 0 00-2.178 1.566c-.612.708-1.086 1.615-1.422 2.718-.336 1.104-.504 2.424-.504 3.96 0 1.368.168 2.592.504 3.672.335 1.08.804 1.993 1.404 2.736a5.939 5.939 0 002.142 1.692 6.296 6.296 0 002.682.576c.624 0 1.193-.072 1.71-.216.516-.144.87-.288 1.062-.432v-5.004h-4.572v-3.6z"/></g><g><path fill="#FFF" d="M856 250.626h4v40h-4z"/><path fill="#FFF" d="M838 268.626h40v4h-40z"/></g><g><path d="M834.881 470.277c-19.584 0-40.846-4.001-58.984-14.009-17.347-9.572-29.028-23.58-33.782-40.511a45.004 45.004 0 01-.39-1.491c-26.614 3.893-52.782-3.381-66.208-8.155-44.37-15.778-76.324-59.172-79.514-107.98l3.991-.261c3.088 47.237 33.977 89.221 76.863 104.472 13.014 4.628 38.399 11.698 64.082 7.994-3.076-19.225 3.092-46.193 17.368-56.85 14.398-10.751 26.177-6.721 32.398.637 8.052 9.523 8.782 26.632-3.934 38.78-12.352 11.8-26.699 17.981-41.092 20.701.092.359.188.715.288 1.072 4.521 16.103 15.241 28.918 31.863 38.09 25.032 13.812 62.781 17.439 91.801 8.82 28.322-8.412 59.574-19.601 71.949-46.039l3.623 1.695c-13.078 27.94-45.278 39.519-74.434 48.178-10.208 3.032-22.666 4.857-35.888 4.857zm-59.164-119.286c-5.239 0-10.625 2.421-15.017 5.699-10.97 8.189-19.51 32.135-15.862 52.998 13.766-2.59 27.439-8.471 39.17-19.678 11.012-10.52 10.5-25.195 3.642-33.305-3.461-4.094-7.648-5.714-11.933-5.714z"/></g><g><path d="M1128.78 884.948c-24.601-24.601-24.601-64.487.001-89.089 24.601-24.602 64.487-24.602 89.088 0l-89.089 89.089z"/><path d="M1231.658 782.07l-65.758 65.758-142.474-209.646 86.97-86.971zM1522.78 880.573c-24.601-24.601-24.601-64.487.001-89.089 24.601-24.602 64.487-24.602 89.088 0l-89.089 89.089z"/><path d="M1625.658 777.695l-65.758 65.758-142.474-209.646 86.97-86.971z"/><path fill="#FFF" d="M1564.559 444.095v190.486c0 43.078-34.922 78-78 78h-463.47c-43.078 0-78-34.922-78-78V444.095h619.47z"/><circle fill="#FFFFF7" cx="1736.465" cy="449.882" r="5.787"/><path fill="#FFF" d="M1737.265 455.614l-175.474 24.478-2.497-35.997h177.172l.799 11.519z"/><path fill="#FFF" d="M1577.379 462.18c0 9.986-8.098 18.084-18.082 18.084-9.99 0-18.089-8.098-18.089-18.084 0-9.987 8.099-18.085 18.089-18.085 9.984 0 18.082 8.098 18.082 18.085z"/><g><path fill="#FFF" d="M1033.312 265.211c-25.963-48.083-26.012-48.172-39.32-72.821-3.705-6.877-10.97-11.553-19.328-11.553-12.118 0-21.942 9.824-21.942 21.942v83.198c0 23.731 19.239 42.97 42.971 42.97s42.97-19.239 42.97-42.97a42.797 42.797 0 00-5.351-20.766z"/><path d="M1119.252 265.211c-25.964-48.083-26.012-48.172-39.32-72.821-3.705-6.877-10.97-11.553-19.329-11.553-12.117 0-21.941 9.824-21.941 21.942v83.198c0 23.731 19.238 42.97 42.97 42.97s42.971-19.239 42.971-42.97a42.786 42.786 0 00-5.351-20.766z"/><path fill="#FFF" d="M952.499 295.913h189.667l10 123.998H942.499z"/><path fill="#FFF" d="M1310.397 256.501c-20.295 0-36.748-16.453-36.748-36.748 0-.756.03-1.505.075-2.25h-237.128v.001c-46.35 0-83.928 37.575-83.928 83.926s37.578 83.926 83.928 83.926a83.679 83.679 0 0029.811-5.469l223.684-83.224c.275-.099.546-.207.819-.311-13.967-3.225-24.413-15.754-24.413-30.686a2 2 0 014 0c0 14.984 12.049 27.2 26.966 27.486 11.798-7.141 19.688-20.088 19.688-34.885 0-.801-.029-1.595-.075-2.384-2.167.4-4.396.618-6.679.618z"/><path d="M1310.397 256.501a36.93 36.93 0 006.679-.617c-1.234-21.403-18.978-38.38-40.689-38.38v-.001h-2.662a37.267 37.267 0 00-.075 2.25c-.001 20.296 16.453 36.748 36.747 36.748zM1270.497 265.667a2 2 0 00-4 0c0 14.932 10.446 27.461 24.413 30.686a40.636 40.636 0 006.553-3.2c-14.917-.286-26.966-12.501-26.966-27.486z"/><circle cx="1033.662" cy="273" r="12.841"/><circle cx="1095.159" cy="273" r="12.841"/><g><path d="M1165.655 428.993c0 8.284-6.938 14.999-15.499 14.999H948.667c-8.561 0-15.499-6.715-15.499-14.999s6.938-14.999 15.499-14.999h201.489c8.561 0 15.499 6.714 15.499 14.999z"/></g><g><path fill="#F68635" d="M1040.078 413.833h18.667v31.333h-18.667z"/></g><g><circle fill="#F68635" cx="1049" cy="461.5" r="21.5"/></g></g><g><path fill="#FFF" d="M904.094 880.573c0-34.791 28.204-62.995 62.996-62.995 34.791 0 62.995 28.204 62.995 62.995H904.094z"/><path fill="#FFF" d="M1049.585 880.573H956.59l47.497-248.987h122.995z"/></g><g><path fill="#FFF" d="M1271.686 880.573c0-34.791 28.203-62.995 62.995-62.995 34.791 0 62.995 28.204 62.995 62.995h-125.99z"/><path fill="#FFF" d="M1417.176 880.573h-92.995l60.371-213.073h122.995z"/></g></g><g><path fill="#F68635" d="M1340.175 586.17c-32.498 0-58.938-26.439-58.938-58.938s26.439-58.939 58.938-58.939c5.522 0 10 4.477 10 10s-4.478 10-10 10c-21.47 0-38.938 17.468-38.938 38.939 0 21.47 17.468 38.938 38.938 38.938 5.522 0 10 4.478 10 10s-4.478 10-10 10zM1396.533 585.875c-18.925 0-34.321-15.396-34.321-34.32 0-5.522 4.478-10 10-10s10 4.478 10 10c0 7.896 6.425 14.32 14.321 14.32 7.897 0 14.322-6.424 14.322-14.32 0-7.897-6.425-14.323-14.322-14.323-18.925 0-34.321-15.396-34.321-34.321 0-18.925 15.396-34.322 34.321-34.322 18.926 0 34.322 15.397 34.322 34.322 0 5.523-4.478 10-10 10s-10-4.477-10-10c0-7.897-6.425-14.322-14.322-14.322-7.896 0-14.321 6.425-14.321 14.322 0 7.897 6.425 14.321 14.321 14.321 18.926 0 34.322 15.397 34.322 34.323 0 18.924-15.396 34.32-34.322 34.32zM1479.866 585.875c-18.925 0-34.321-15.396-34.321-34.32 0-5.522 4.478-10 10-10s10 4.478 10 10c0 7.896 6.425 14.32 14.321 14.32 7.897 0 14.322-6.424 14.322-14.32 0-7.897-6.425-14.323-14.322-14.323-18.925 0-34.321-15.396-34.321-34.321 0-18.925 15.396-34.322 34.321-34.322 18.926 0 34.322 15.397 34.322 34.322 0 5.523-4.478 10-10 10s-10-4.477-10-10c0-7.897-6.425-14.322-14.322-14.322-7.896 0-14.321 6.425-14.321 14.322 0 7.897 6.425 14.321 14.321 14.321 18.926 0 34.322 15.397 34.322 34.323 0 18.924-15.396 34.32-34.322 34.32z"/></g></svg>