<svg xmlns="http://www.w3.org/2000/svg" viewBox="0 0 1436 705"><path fill="#FF8630" d="M2.82 134.18V75.45A29.45 29.45 0 0 1 32.27 46h872.88a29.45 29.45 0 0 1 29.45 29.45v58.73"/><path d="M936.6 134.18h-4V75.45A27.48 27.48 0 0 0 905.15 48H32.28A27.48 27.48 0 0 0 4.82 75.45v58.73h-4V75.45A31.49 31.49 0 0 1 32.28 44h872.87a31.49 31.49 0 0 1 31.45 31.45Z"/><path fill="#FF8630" d="m229 134.38 6.95-55.57c2.72-20.14 14.67-32.77 32.77-32.77h202.56c18.1 0 30.05 13.96 32.77 32.77l6.95 55.56"/><path fill="#fff" d="m509.02 134.62-6.95-55.56c-2.72-18.83-14.8-31.02-30.79-31.02H268.72c-16.66 0-28.17 11.6-30.79 31.04l-6.95 55.54-3.97-.5 6.96-55.56c2.91-21.62 15.9-34.52 34.75-34.52h202.56c18.09 0 31.72 13.54 34.75 34.49l6.95 55.6Z"/><path fill="#fff" d="M936.6 562.84H.82V131.82H936.6v431.02Zm-931.78-4H932.6V135.82H4.82Z"/><path fill="#fff" d="M2 473.4h932v4H2Zm0-85.6h932v4H2Zm0-85.6h932v4H2Zm0-85.6h932v4H2Z"/><path d="M67.64 90.63a19.64 19.64 0 1 1-39.27 0 19.64 19.64 0 0 1 39.27 0Z"/><path fill="#fff" d="M124.76 90.63a19.64 19.64 0 1 1-39.27 0 19.64 19.64 0 0 1 39.27 0Zm37.49 21.63a21.66 21.66 0 0 1-21.64-21.63c0-11.93 9.7-21.64 21.64-21.64 11.93 0 21.63 9.7 21.63 21.64 0 11.93-9.7 21.63-21.63 21.63Zm0-39.27a17.65 17.65 0 0 0-17.64 17.64c0 9.72 7.91 17.63 17.64 17.63a17.65 17.65 0 0 0 0-35.27Z"/><path d="M387.87 381.9c-3.35-75.72-65.8-136.08-142.35-136.08s-139 60.36-142.35 136.08h-.15v180.85h285V381.9Z"/><path fill="#fff" d="M264.5 62.7h55v55h-55Z"/><path d="M307 97.08a15 15 0 1 1-30 0 15 15 0 0 1 30 0Z"/><path d="M283.75 79.2a5.75 5.75 0 1 1-11.5.01 5.75 5.75 0 0 1 11.5 0Zm28 0a5.75 5.75 0 1 1-11.5.01 5.75 5.75 0 0 1 11.5 0Zm-14-5.12a5.75 5.75 0 1 1-11.5 0 5.75 5.75 0 0 1 11.5 0Zm44.05 4.72a70.79 70.79 0 0 1 7.06-.36c2.23 0 4.08.32 5.54.97a8.55 8.55 0 0 1 3.47 2.68 10.28 10.28 0 0 1 1.79 4.04c.33 1.54.5 3.23.5 5.05 0 1.66-.17 3.28-.5 4.86-.34 1.59-.95 3-1.82 4.23a9.4 9.4 0 0 1-3.64 3 13.6 13.6 0 0 1-5.96 1.13c-.38 0-.87-.02-1.47-.04a104.18 104.18 0 0 1-4.97-.32Zm7.24 4.03a16.02 16.02 0 0 0-2.3.15v16.88a157.42 157.42 0 0 0 2.09.14c1.38 0 2.5-.25 3.32-.77.8-.49 1.44-1.2 1.85-2.03.41-.84.68-1.8.8-2.85a28.04 28.04 0 0 0 .01-6.01 8.18 8.18 0 0 0-.75-2.7 5.04 5.04 0 0 0-1.78-2.02 5.88 5.88 0 0 0-3.24-.79Zm13.86 8.57c0-2.04.19-3.88.57-5.5.39-1.64.97-3.01 1.77-4.13a8.05 8.05 0 0 1 2.97-2.57 9.2 9.2 0 0 1 4.19-.9c1.73 0 3.2.32 4.4.97a8.02 8.02 0 0 1 2.93 2.7 12.3 12.3 0 0 1 1.65 4.14c.35 1.6.52 3.37.52 5.29 0 4.1-.78 7.31-2.35 9.63-1.58 2.32-3.96 3.47-7.15 3.47-1.73 0-3.2-.32-4.41-.97a7.98 7.98 0 0 1-2.95-2.7 11.92 11.92 0 0 1-1.64-4.14c-.34-1.6-.5-3.37-.5-5.29Zm5.18 0c0 1.22.05 2.36.16 3.42s.31 1.98.61 2.75c.3.78.74 1.4 1.3 1.86.56.45 1.31.68 2.25.68.84 0 1.54-.17 2.09-.52.55-.35 1-.88 1.33-1.6.33-.72.57-1.63.7-2.72a42.3 42.3 0 0 0 .07-7.22 10.1 10.1 0 0 0-.57-2.77 4.3 4.3 0 0 0-1.32-1.89 3.54 3.54 0 0 0-2.3-.7c-1.68 0-2.82.73-3.42 2.2-.6 1.46-.9 3.63-.9 6.51Zm26.75-.54h8.6v11.38a7.97 7.97 0 0 1-3.19 1.69c-1.3.38-2.65.57-4 .57-1.62 0-3.12-.27-4.53-.82a9.8 9.8 0 0 1-3.65-2.5 12.14 12.14 0 0 1-2.45-4.15 16.8 16.8 0 0 1-.9-5.77c0-2.33.36-4.31 1.08-5.94a11.82 11.82 0 0 1 2.8-4.02c1.1-1.02 2.4-1.8 3.83-2.28 1.41-.48 2.81-.72 4.2-.72 1.45 0 2.65.11 3.6.34.97.23 1.84.52 2.63.88v7.45h-3.96v-4l-.57-.14a8.1 8.1 0 0 0-4.32.36 5.6 5.6 0 0 0-2.18 1.57 7.4 7.4 0 0 0-1.42 2.72 13.7 13.7 0 0 0-.5 3.96c0 1.36.16 2.59.5 3.67.33 1.08.8 2 1.4 2.73a5.93 5.93 0 0 0 4.83 2.27c.62 0 1.19-.07 1.7-.21.52-.15.88-.3 1.07-.44v-5h-4.57Z"/><g fill="#fff"><path d="M549 70.63h4v40h-4Z"/><path d="M531 88.63h40v4h-40Z"/></g><path d="M527.88 290.28c-19.58 0-40.84-4-58.98-14.01-17.35-9.57-29.03-23.58-33.78-40.51l-.4-1.5c-26.6 3.9-52.78-3.38-66.2-8.15-44.37-15.78-76.33-59.17-79.52-107.98l4-.26c3.08 47.24 33.97 89.22 76.86 104.47 13.01 4.63 38.4 11.7 64.08 8-3.08-19.23 3.1-46.2 17.37-56.85 14.4-10.75 26.17-6.73 32.4.63 8.05 9.53 8.78 26.63-3.94 38.78-12.35 11.8-26.7 17.98-41.1 20.7l.3 1.08c4.52 16.1 15.24 28.91 31.86 38.09 25.03 13.8 62.78 17.44 91.8 8.82 28.32-8.42 59.58-19.6 71.95-46.04l3.62 1.7c-13.08 27.93-45.28 39.51-74.43 48.17-10.2 3.03-22.67 4.86-35.89 4.86Zm-59.16-119.29c-5.24 0-10.63 2.42-15.02 5.7-10.97 8.19-19.51 32.13-15.86 53 13.76-2.6 27.44-8.47 39.17-19.68 11.01-10.52 10.5-25.2 3.64-33.3-3.46-4.1-7.65-5.72-11.93-5.72Zm353.06 533.96a63 63 0 0 1 89.09-89.1Z"/><path d="m924.66 602.07-65.76 65.76-142.47-209.65 86.97-86.97Zm291.12 98.5a63 63 0 0 1 89.09-89.09Z"/><path d="m1318.66 597.7-65.76 65.75-142.47-209.64 86.97-86.97Z"/><path fill="#fff" d="M1257.56 264.1v190.48a78 78 0 0 1-78 78H716.09a78 78 0 0 1-78-78V264.1Z"/><path fill="#fffff7" d="M1435.25 269.88a5.79 5.79 0 1 1-11.57 0 5.79 5.79 0 0 1 11.57 0Z"/><path fill="#fff" d="m1430.27 275.61-175.48 24.48-2.5-36h177.18Z"/><path fill="#fff" d="M1270.38 282.18a18.09 18.09 0 1 1-36.17 0 18.09 18.09 0 0 1 36.17 0ZM726.31 85.21 687 12.4a21.94 21.94 0 0 0-41.27 10.39v83.2a42.97 42.97 0 1 0 80.6-20.77Z"/><path d="M812.25 85.21 772.93 12.4a21.94 21.94 0 0 0-41.27 10.39v83.2a42.97 42.97 0 1 0 80.6-20.77Z"/><path fill="#fff" d="M645.5 115.91h189.67l10 124H635.5Z"/><path fill="#fff" d="M1003.4 76.5a36.75 36.75 0 0 1-36.68-39H729.6a83.93 83.93 0 1 0 29.8 162.39l223.7-83.23.81-.3a31.55 31.55 0 0 1-24.41-30.7 2 2 0 1 1 4 0 27.53 27.53 0 0 0 26.96 27.5 40.73 40.73 0 0 0 19.62-37.28c-2.17.4-4.4.62-6.68.62Z"/><path d="M1003.4 76.5c2.24 0 4.47-.2 6.68-.62a40.76 40.76 0 0 0-40.7-38.38h-2.65a36.75 36.75 0 0 0 36.67 39Zm-39.9 9.17a2 2 0 1 0-4 0 31.55 31.55 0 0 0 24.41 30.68 40.61 40.61 0 0 0 6.55-3.2 27.53 27.53 0 0 1-26.96-27.48ZM739.5 93a12.84 12.84 0 1 1-25.68 0 12.84 12.84 0 0 1 25.68 0Zm61.5 0a12.84 12.84 0 1 1-25.68 0A12.84 12.84 0 0 1 801 93Zm57.65 156c0 8.28-6.93 15-15.5 15H641.68c-8.56 0-15.5-6.72-15.5-15 0-8.3 6.94-15 15.5-15h201.49c8.56 0 15.5 6.7 15.5 15Z"/><path fill="#FF8630" d="M733.08 233.83h18.66v31.34h-18.66Z"/><path fill="#FF8630" d="M763.5 281.5a21.5 21.5 0 1 1-43 0 21.5 21.5 0 0 1 43 0Z"/><g fill="#fff"><path d="M597.1 700.57a63 63 0 0 1 125.99 0Z"/><path d="M742.59 700.57h-93l47.5-248.98h123Z"/></g><g fill="#fff"><path d="M964.69 700.57a63 63 0 1 1 125.99 0Z"/><path d="M1110.18 700.57h-93l60.37-213.07h123Z"/></g><path fill="#FF8630" d="M1033.17 406.17a59 59 0 0 1-58.93-58.94 59 59 0 0 1 58.93-58.94 10 10 0 0 1 0 20 38.98 38.98 0 0 0-38.93 38.94 38.98 38.98 0 0 0 38.93 38.94 10 10 0 0 1 0 20Zm56.36-.3a34.36 34.36 0 0 1-34.32-34.31 10 10 0 0 1 20 0 14.33 14.33 0 0 0 28.65 0c0-7.9-6.43-14.33-14.33-14.33a34.36 34.36 0 0 1-34.32-34.32 34.36 34.36 0 0 1 34.32-34.32 34.36 34.36 0 0 1 34.33 34.32 10 10 0 0 1-20 0 14.33 14.33 0 1 0-14.33 14.32 34.36 34.36 0 0 1 34.33 34.32 34.36 34.36 0 0 1-34.33 34.32Zm83.34 0a34.36 34.36 0 0 1-34.32-34.31 10 10 0 0 1 20 0 14.32 14.32 0 1 0 14.32-14.33 34.36 34.36 0 0 1-34.32-34.32 34.36 34.36 0 0 1 34.32-34.32 34.36 34.36 0 0 1 34.32 34.32 10 10 0 0 1-20 0 14.33 14.33 0 1 0-14.32 14.32 34.36 34.36 0 0 1 34.32 34.32 34.36 34.36 0 0 1-34.32 34.32Z"/></svg>
