<svg xmlns="http://www.w3.org/2000/svg" width="1080" height="1080"><path d="M235.502 831.486c-38.349 0-72.991-13.329-99.283-39.059-28.392-27.785-37.099-62.416-24.518-97.512 13.612-37.97 51.775-75.729 95.674-70.947l.452.052c6.562-10.558 14.61-20.029 22.425-27.061 28.159-25.335 88.127-33.983 117.975-7.961l-2.629 3.016c-13.121-11.439-33.985-16.65-57.231-14.29-21.703 2.201-42.428 10.504-55.438 22.209-7.241 6.515-14.692 15.181-20.877 24.83 9.794 2.257 19.309 8.183 27.204 17.027 8.765 9.818 14.255 21.977 15.062 33.356.945 13.321-5.041 25.253-15.253 30.396-9.501 4.788-20.53 2.755-30.252-5.575-9.969-8.539-15.103-19.508-15.262-32.603-.158-12.998 4.768-26.91 12.013-39.554-31.141-2.602-72.809 20.226-90.097 68.453-12.022 33.539-3.659 66.675 23.549 93.303 37.189 36.395 91.709 47.221 149.577 29.709 34.17-10.341 71.472-35.372 97.347-65.325l3.027 2.615c-26.343 30.494-64.36 55.99-99.216 66.538-18.556 5.619-36.788 8.383-54.249 8.383zm-25.684-203.102c-7.355 12.42-12.423 26.171-12.269 38.934.145 11.894 4.81 21.856 13.864 29.614 8.438 7.227 17.858 9.064 25.852 5.04 8.766-4.416 13.893-14.834 13.062-26.541-1.527-21.522-20.437-43.121-40.509-47.047z"/><path fill="#FFF" d="M127.752 444.563h684.941v4H127.752zM127.752 381.653h684.941v4H127.752z"/><path fill="#F68635" d="M128.355 195.794v-43.158c0-11.954 9.689-21.645 21.646-21.645h641.484c11.957 0 21.646 9.69 21.646 21.645v43.158"/><path d="M815.133 195.794h-4v-43.158c0-10.832-8.813-19.645-19.646-19.645H150.002c-10.833 0-19.646 8.812-19.646 19.645v43.158h-4v-43.158c0-13.038 10.607-23.645 23.646-23.645h641.484c13.039 0 23.646 10.607 23.646 23.645v43.158z"/><path fill="#F68635" d="M294.576 195.938l5.109-40.835c1.996-14.804 10.781-24.081 24.08-24.081h148.869c13.299 0 22.084 10.257 24.08 24.081l5.109 40.835"/><path fill="#FFF" d="M499.84 196.187l-5.109-40.835c-1.987-13.759-10.456-22.33-22.096-22.33H323.766c-11.95 0-20.211 8.354-22.098 22.348l-5.107 40.816-3.969-.497 5.109-40.835c2.182-16.183 11.925-25.833 26.064-25.833h148.869c13.568 0 23.797 10.125 26.06 25.795l5.114 40.872-3.968.499z"/><path fill="#FFF" d="M815.133 511.354H126.355V193.529h688.777v317.825zm-684.778-4h680.777V197.529H130.355v309.825z"/><path fill="#FFF" d="M127.752 318.745h684.941v4H127.752zM127.752 255.837h684.941v4H127.752z"/><circle cx="161.562" cy="163.787" r="14.43"/><circle fill="#FFF" cx="203.541" cy="163.787" r="14.43"/><path fill="#FFF" d="M245.52 180.217c-9.06 0-16.43-7.37-16.43-16.43 0-9.06 7.37-16.431 16.43-16.431s16.43 7.371 16.43 16.431c-.001 9.06-7.371 16.43-16.43 16.43zm0-28.861c-6.854 0-12.43 5.576-12.43 12.431 0 6.854 5.576 12.43 12.43 12.43s12.43-5.576 12.43-12.43c-.001-6.854-5.577-12.431-12.43-12.431z"/><circle cx="292.719" cy="382.566" r="104.726"/><path d="M187.993 377.852h209.451v132.909H187.993z"/><path fill="#FFF" d="M320.666 143.271h40.422v40.421h-40.422z"/><g><circle cx="340.876" cy="168.533" r="11.024"/><circle cx="330.587" cy="155.396" r="4.226"/><circle cx="351.165" cy="155.396" r="4.226"/><circle cx="340.877" cy="151.63" r="4.227"/></g><g><path d="M377.475 155.094a39.669 39.669 0 012.183-.172c.502-.026 1.022-.048 1.561-.066s1.019-.027 1.442-.027c1.64 0 2.998.238 4.074.714 1.075.477 1.927 1.134 2.553 1.971.626.838 1.062 1.826 1.31 2.963s.37 2.377.37 3.717c0 1.217-.123 2.407-.37 3.571s-.692 2.201-1.336 3.109c-.644.909-1.534 1.64-2.672 2.196s-2.598.833-4.379.833c-.282 0-.644-.009-1.085-.026-.44-.018-.891-.04-1.349-.066-.459-.026-.9-.053-1.323-.079s-.75-.058-.979-.093v-18.545zm5.317 2.964c-.335 0-.661.013-.979.04s-.556.049-.715.066v12.408c.07.018.177.031.317.04l.437.026.437.026c.142.009.256.014.345.014 1.022 0 1.838-.189 2.447-.569a3.58 3.58 0 001.362-1.495c.3-.617.493-1.313.582-2.09.088-.776.132-1.552.132-2.328 0-.67-.039-1.367-.119-2.09a6.004 6.004 0 00-.556-1.984 3.709 3.709 0 00-1.31-1.481c-.581-.389-1.374-.583-2.38-.583zM392.978 164.354c0-1.499.142-2.849.424-4.048.281-1.2.714-2.209 1.296-3.03a5.93 5.93 0 012.183-1.892c.873-.44 1.9-.661 3.083-.661 1.27 0 2.345.238 3.228.714a5.889 5.889 0 012.156 1.984c.556.847.961 1.861 1.217 3.043s.384 2.478.384 3.889c0 3.016-.578 5.375-1.733 7.077s-2.906 2.553-5.251 2.553c-1.271 0-2.351-.238-3.241-.714-.891-.477-1.614-1.138-2.17-1.984s-.957-1.861-1.203-3.042c-.25-1.181-.373-2.477-.373-3.889zm3.81 0c0 .899.039 1.737.118 2.513.08.776.229 1.451.45 2.024s.538 1.028.952 1.363.966.502 1.654.502c.617 0 1.128-.127 1.534-.384.405-.255.731-.648.979-1.177.247-.529.419-1.194.517-1.998.097-.802.146-1.75.146-2.844 0-.864-.031-1.685-.093-2.46-.062-.776-.203-1.456-.424-2.038s-.542-1.045-.966-1.389c-.423-.344-.987-.516-1.692-.516-1.235 0-2.073.538-2.514 1.614-.441 1.078-.661 2.674-.661 4.79zM416.445 163.958h6.323v8.36c-.601.547-1.381.961-2.342 1.244-.962.282-1.944.423-2.95.423a8.984 8.984 0 01-3.32-.609 7.222 7.222 0 01-2.686-1.838c-.758-.82-1.358-1.834-1.799-3.043-.441-1.208-.661-2.623-.661-4.246 0-1.71.265-3.166.794-4.365.528-1.199 1.212-2.183 2.05-2.95s1.777-1.327 2.818-1.68a9.585 9.585 0 013.095-.529c1.059 0 1.94.084 2.646.251.706.168 1.35.384 1.932.648v5.477h-2.91v-2.937l-.423-.106a5.999 5.999 0 00-1.164-.106 5.36 5.36 0 00-2.011.371 4.113 4.113 0 00-1.601 1.151c-.45.521-.799 1.187-1.046 1.998-.247.812-.37 1.782-.37 2.91 0 1.005.123 1.905.37 2.699.247.793.591 1.464 1.032 2.011.44.547.966.961 1.574 1.243a4.63 4.63 0 001.971.423c.459 0 .878-.053 1.257-.159s.64-.211.78-.317v-3.678h-3.359v-2.646z"/></g><g><path fill="#FFF" d="M529.219 149.089h4v29.396h-4z"/><path fill="#FFF" d="M516.521 161.787h29.396v4h-29.396z"/></g><g><path d="M536.813 623.353l-2.779-3.867c8.58-6.167 15.854-14.221 22.888-22.009 6.349-7.029 12.913-14.298 20.537-20.35 30.598-24.289 67.438-42.089 106.538-51.476 37.786-9.07 80.614-19.35 114.007-42.576 37.422-26.033 57.776-73.486 49.498-115.399-11.231-56.854-69.64-84.446-119.156-86.022-26.175-.841-51.951 6.703-76.569 22.401l-2.979 1.901c-31.608 20.186-67.435 43.063-107.326 38.145-16.561-2.042-33.011-8.266-46.321-17.524-14.984-10.424-25.188-24.067-29.506-39.457a43.8 43.8 0 01-.219-.815 93.387 93.387 0 01-6.716.696c-15.779 1.07-33.399-1.66-50.945-7.9-39.062-13.889-67.191-52.083-69.998-95.042l4.752-.311c2.685 41.087 29.547 77.603 66.842 90.865 22.584 8.032 40.829 9.147 55.144 7.027-1.057-7.285-.678-15.872 1.138-23.99 2.587-11.572 7.701-20.699 14.4-25.7 8.104-6.049 20.616-9.51 29.21.657 7.234 8.556 7.907 23.912-3.49 34.798-9.708 9.275-21.655 15.34-35.621 18.103l.09.324c4.016 14.312 13.574 27.049 27.64 36.833 12.687 8.825 28.378 14.758 44.185 16.708 38.193 4.708 73.249-17.678 104.18-37.432l2.981-1.903c25.44-16.224 52.106-24.004 79.282-23.146 51.339 1.635 111.94 30.453 123.676 89.86 8.634 43.711-12.523 93.152-51.45 120.232-34.128 23.738-77.42 34.129-115.615 43.297-38.43 9.226-74.631 26.715-104.688 50.575-7.314 5.807-13.745 12.927-19.964 19.812-7.205 7.975-14.652 16.221-23.646 22.685zm-41.452-392.507c-3.384 0-7.547 1.246-12.47 4.921-9.124 6.81-16.479 27.371-13.742 45.047 17.141-3.567 27.96-11.729 33.322-16.853 9.369-8.948 8.955-21.405 3.144-28.279-1.273-1.505-4.722-4.836-10.254-4.836z"/></g><g><path d="M490.33 949.009c-19.311-19.313-19.311-50.625.002-69.938 19.312-19.312 50.625-19.312 69.936 0l-69.938 69.938z"/><path d="M571.094 868.245l-51.621 51.622-111.848-164.579 68.273-68.274zM799.633 945.573c-19.311-19.312-19.311-50.624.002-69.937 19.312-19.313 50.623-19.313 69.938 0l-69.94 69.937z"/><path d="M880.396 864.812l-51.623 51.622-111.847-164.58 68.277-68.274z"/><path fill="#FFF" d="M832.432 602.924v149.539c0 33.816-27.416 61.231-61.234 61.231H407.359c-33.816 0-61.232-27.415-61.232-61.231V602.924h486.305z"/><circle fill="#FFF" cx="967.383" cy="607.467" r="4.543"/><path fill="#FFF" d="M968.012 611.967L830.26 631.183l-1.961-28.259h139.084l.629 9.043z"/><path fill="#FFF" d="M842.496 617.122c0 7.841-6.359 14.196-14.195 14.196-7.844 0-14.201-6.355-14.201-14.196 0-7.84 6.357-14.198 14.201-14.198 7.836 0 14.195 6.358 14.195 14.198z"/><g><path fill="#FFF" d="M415.385 462.496c-20.381-37.747-20.42-37.817-30.867-57.168-2.908-5.398-8.613-9.069-15.174-9.069-9.514 0-17.227 7.712-17.227 17.226v65.312c0 18.63 15.105 33.733 33.736 33.733 18.629 0 33.732-15.104 33.732-33.733a33.552 33.552 0 00-4.2-16.301z"/><path d="M482.852 462.496c-20.383-37.747-20.42-37.817-30.867-57.168-2.91-5.398-8.613-9.069-15.174-9.069-9.514 0-17.225 7.712-17.225 17.226v65.312c0 18.63 15.102 33.733 33.732 33.733 18.629 0 33.732-15.104 33.732-33.733a33.583 33.583 0 00-4.198-16.301z"/><path fill="#FFF" d="M351.943 486.597h148.895l7.851 97.342H344.094z"/><path fill="#FFF" d="M632.906 455.658c-15.932 0-28.848-12.916-28.848-28.849 0-.594.023-1.182.059-1.767H417.965v.001c-36.387 0-65.887 29.498-65.887 65.885s29.5 65.885 65.887 65.885a65.7 65.7 0 0023.402-4.293l174.63-64.974c-10.084-3.035-17.452-12.402-17.452-23.462a2 2 0 014 0c0 11.121 8.907 20.183 19.959 20.473 9.393-5.575 15.703-15.797 15.703-27.512 0-.628-.023-1.251-.059-1.871a28.93 28.93 0 01-5.242.484z"/><path d="M632.906 455.658a28.93 28.93 0 005.242-.484c-.969-16.803-14.896-30.13-31.941-30.13v-.001h-2.09a29.539 29.539 0 00-.059 1.767c.001 15.932 12.917 28.848 28.848 28.848zM602.545 464.084a2 2 0 00-4 0c0 11.06 7.368 20.427 17.452 23.462l.968-.36a31.808 31.808 0 005.539-2.629c-11.052-.29-19.959-9.351-19.959-20.473z"/><circle cx="415.661" cy="468.609" r="10.081"/><circle cx="463.938" cy="468.609" r="10.08"/><g><path d="M519.279 591.068c0 6.504-5.447 11.775-12.168 11.775H348.936c-6.719 0-12.166-5.271-12.166-11.775 0-6.503 5.447-11.775 12.166-11.775h158.176c6.72 0 12.167 5.272 12.167 11.775z"/></g><g><path fill="#F68635" d="M420.697 579.168h14.654v24.598h-14.654z"/></g><g><circle fill="#F68635" cx="427.701" cy="616.587" r="16.879"/></g></g><g><path fill="#FFF" d="M313.947 945.573c0-27.312 22.139-49.452 49.453-49.452 27.311 0 49.451 22.14 49.451 49.452h-98.904z"/><path fill="#FFF" d="M428.16 945.573h-73.004l37.285-195.462h96.557z"/></g><g><path fill="#FFF" d="M602.516 945.573c0-27.312 22.141-49.452 49.453-49.452 27.312 0 49.453 22.14 49.453 49.452h-98.906z"/><path fill="#FFF" d="M716.73 945.573h-73.005l47.394-167.267h96.555z"/></g><g><path fill="#F68635" d="M656.281 714.458c-25.51 0-46.268-20.756-46.268-46.267 0-25.514 20.758-46.271 46.268-46.271a7.85 7.85 0 110 15.7c-16.854 0-30.564 13.714-30.564 30.571 0 16.853 13.711 30.566 30.564 30.566a7.851 7.851 0 110 15.701zM700.525 714.227c-14.855 0-26.943-12.087-26.943-26.942a7.852 7.852 0 0115.702 0c0 6.198 5.043 11.242 11.242 11.242s11.244-5.044 11.244-11.242c0-6.2-5.045-11.244-11.244-11.244-14.855 0-26.943-12.088-26.943-26.944s12.088-26.944 26.943-26.944c14.857 0 26.945 12.088 26.945 26.944a7.851 7.851 0 11-15.702 0c0-6.198-5.045-11.243-11.244-11.243s-11.242 5.045-11.242 11.243c0 6.199 5.043 11.242 11.242 11.242 14.857 0 26.945 12.088 26.945 26.946.001 14.855-12.087 26.942-26.945 26.942zM765.945 714.227c-14.857 0-26.945-12.087-26.945-26.942a7.852 7.852 0 0115.704 0c0 6.198 5.041 11.242 11.242 11.242 6.199 0 11.244-5.044 11.244-11.242 0-6.2-5.045-11.244-11.244-11.244-14.857 0-26.945-12.088-26.945-26.944s12.088-26.944 26.945-26.944 26.943 12.088 26.943 26.944c0 4.337-3.516 7.853-7.85 7.853s-7.85-3.516-7.85-7.853c0-6.198-5.045-11.243-11.244-11.243-6.201 0-11.242 5.045-11.242 11.243 0 6.199 5.041 11.242 11.242 11.242 14.857 0 26.943 12.088 26.943 26.946.001 14.855-12.085 26.942-26.943 26.942z"/></g></g></svg>