<svg xmlns="http://www.w3.org/2000/svg" viewBox="0 0 866 821"><path d="M129.5 703.49c-38.35 0-72.99-13.33-99.28-39.06C1.82 636.64-6.88 602 5.7 566.92c13.61-37.97 51.78-75.73 95.68-70.95l.45.05a128.47 128.47 0 0 1 22.42-27.06c28.16-25.34 88.13-33.98 117.98-7.96l-2.63 3c-13.12-11.44-33.99-16.65-57.23-14.29-21.7 2.2-42.43 10.5-55.44 22.21a124.5 124.5 0 0 0-20.88 24.83c9.8 2.26 19.31 8.19 27.2 17.03 8.77 9.82 14.26 21.98 15.07 33.36.94 13.32-5.04 25.25-15.25 30.4-9.5 4.78-20.53 2.75-30.26-5.58-9.97-8.54-15.1-19.51-15.26-32.6-.16-13 4.77-26.92 12.01-39.56-31.14-2.6-72.8 20.23-90.1 68.45-12.02 33.54-3.65 66.68 23.56 93.3 37.18 36.4 91.7 47.23 149.57 29.72 34.17-10.35 71.47-35.38 97.35-65.33l3.03 2.62c-26.35 30.49-64.36 55.98-99.22 66.53-18.56 5.62-36.79 8.39-54.25 8.39Zm-25.68-203.1c-7.36 12.41-12.42 26.16-12.27 38.93.14 11.9 4.8 21.85 13.86 29.61 8.44 7.23 17.86 9.07 25.85 5.04 8.77-4.41 13.9-14.83 13.07-26.54-1.53-21.52-20.44-43.12-40.51-47.05Z"/><path fill="#fff" d="M21.75 316.56H706.7v4H21.75Zm0-62.9H706.7v4H21.75Z"/><path fill="#FF8630" d="M22.36 67.8V24.63A21.64 21.64 0 0 1 44 2.99h641.5a21.64 21.64 0 0 1 21.64 21.65v43.15"/><path d="M709.13 67.8h-4V24.63A19.67 19.67 0 0 0 685.5 4.99H44a19.67 19.67 0 0 0-19.64 19.65v43.15h-4V24.64A23.67 23.67 0 0 1 44 .99h641.5a23.67 23.67 0 0 1 23.64 23.65v43.15Z"/><path fill="#FF8630" d="m188.58 67.94 5.1-40.84c2-14.8 10.79-24.08 24.08-24.08h148.87c13.3 0 22.09 10.26 24.08 24.08l5.11 40.84"/><path fill="#fff" d="m393.84 68.19-5.1-40.84c-2-13.76-10.47-22.33-22.1-22.33H217.76c-11.95 0-20.22 8.36-22.1 22.35l-5.1 40.82-3.98-.5 5.11-40.84c2.18-16.18 11.93-25.83 26.06-25.83h148.87c13.57 0 23.8 10.13 26.06 25.8l5.12 40.87Z"/><path fill="#fff" d="M709.13 383.35H20.36V65.53h688.77v317.82Zm-684.77-4h680.77V69.53H24.36Z"/><path fill="#fff" d="M21.75 190.75H706.7v4H21.75Zm0-62.91H706.7v4H21.75Z"/><path d="M70 35.79a14.43 14.43 0 1 1-28.87 0 14.43 14.43 0 0 1 28.86 0Z"/><path fill="#fff" d="M111.97 35.79a14.43 14.43 0 1 1-28.86 0 14.43 14.43 0 0 1 28.86 0Zm27.55 16.43a16.45 16.45 0 0 1-16.43-16.43c0-9.06 7.37-16.43 16.43-16.43 9.06 0 16.43 7.37 16.43 16.43 0 9.06-7.37 16.43-16.43 16.43Zm0-28.86a12.44 12.44 0 0 0-12.43 12.43c0 6.85 5.58 12.43 12.43 12.43s12.43-5.58 12.43-12.43c0-6.86-5.58-12.43-12.43-12.43Z"/><path d="M291.44 254.57c0 57.83-46.88 104.72-104.72 104.72-57.84 0-104.73-46.89-104.73-104.72 0-57.84 46.89-104.73 104.73-104.73s104.72 46.89 104.72 104.73Z"/><path d="M82 249.85h209.44v132.91H82Z"/><path fill="#fff" d="M214.67 15.27h40.42V55.7h-40.42Z"/><path d="M245.9 40.53a11.02 11.02 0 1 1-22.05 0 11.02 11.02 0 0 1 22.05 0Z"/><path d="M228.81 27.4a4.23 4.23 0 1 1-8.45 0 4.23 4.23 0 0 1 8.45 0Zm20.59 0a4.23 4.23 0 1 1-8.46 0 4.23 4.23 0 0 1 8.45 0Zm-10.3-3.77a4.23 4.23 0 1 1-8.45 0 4.23 4.23 0 0 1 8.45 0Zm32.38 3.47a39.85 39.85 0 0 1 3.74-.24l1.44-.03c1.64 0 3 .24 4.07.71a6.3 6.3 0 0 1 2.56 1.97 7.58 7.58 0 0 1 1.3 2.97 17.75 17.75 0 0 1 .01 7.29 8.28 8.28 0 0 1-1.34 3.1 6.9 6.9 0 0 1-2.67 2.2c-1.14.56-2.6.83-4.38.83a29.42 29.42 0 0 1-2.43-.09l-1.33-.08a7.67 7.67 0 0 1-.97-.1Zm5.31 2.96a11.57 11.57 0 0 0-1.7.1v12.41c.08.02.19.03.33.04l.43.03.44.02.34.02c1.03 0 1.84-.2 2.45-.57a3.58 3.58 0 0 0 1.36-1.5c.3-.61.5-1.3.58-2.09a20.64 20.64 0 0 0 .02-4.41 6.02 6.02 0 0 0-.56-1.99c-.3-.6-.75-1.11-1.3-1.48a4.23 4.23 0 0 0-2.39-.58Zm10.19 6.3c0-1.5.14-2.85.42-4.05.28-1.2.72-2.21 1.3-3.03a5.94 5.94 0 0 1 2.18-1.9c.87-.44 1.9-.66 3.08-.66 1.27 0 2.35.24 3.23.72a5.9 5.9 0 0 1 2.16 1.98c.55.85.96 1.86 1.21 3.04.26 1.19.39 2.48.39 3.9 0 3-.58 5.37-1.73 7.07-1.16 1.7-2.91 2.55-5.26 2.55a6.8 6.8 0 0 1-3.24-.71 5.88 5.88 0 0 1-2.17-1.99 8.73 8.73 0 0 1-1.2-3.04 18.8 18.8 0 0 1-.37-3.89Zm3.8 0c0 .9.05 1.73.13 2.5.08.78.22 1.46.45 2.03.22.57.53 1.03.95 1.36.41.34.96.5 1.65.5.62 0 1.13-.12 1.54-.38.4-.25.73-.65.98-1.17a7 7 0 0 0 .51-2 30.92 30.92 0 0 0 .05-5.3 7.41 7.41 0 0 0-.42-2.04 3.2 3.2 0 0 0-.97-1.4 2.6 2.6 0 0 0-1.69-.51c-1.23 0-2.07.54-2.51 1.61-.44 1.08-.66 2.68-.66 4.8Zm19.67-.4h6.32v8.36a5.8 5.8 0 0 1-2.34 1.24c-.97.28-1.95.42-2.95.42a9.12 9.12 0 0 1-3.32-.6 7.22 7.22 0 0 1-2.69-1.84 8.92 8.92 0 0 1-1.8-3.05c-.44-1.2-.66-2.62-.66-4.24 0-1.71.26-3.17.8-4.37a8.67 8.67 0 0 1 2.04-2.95 7.9 7.9 0 0 1 2.82-1.68 9.6 9.6 0 0 1 3.1-.52 10.76 10.76 0 0 1 4.58.89v5.48h-2.92v-2.94l-.42-.1a5.98 5.98 0 0 0-3.17.26 4.1 4.1 0 0 0-1.6 1.15c-.45.53-.8 1.2-1.05 2a9.95 9.95 0 0 0-.37 2.91c0 1 .12 1.9.37 2.7.25.8.6 1.47 1.03 2.01a4.35 4.35 0 0 0 3.55 1.67 4.4 4.4 0 0 0 2.03-.48V38.6h-3.36Z"/><g fill="#fff"><path d="M423.22 21.09h4v29.4h-4Z"/><path d="M410.52 33.79h29.4v4h-29.4Z"/></g><path d="m430.81 495.35-2.78-3.86c8.58-6.17 15.86-14.23 22.9-22.01 6.34-7.03 12.9-14.3 20.53-20.35 30.6-24.3 67.44-42.1 106.54-51.48 37.78-9.07 80.61-19.35 114-42.57 37.43-26.04 57.78-73.5 49.5-115.4-11.23-56.86-69.64-84.45-119.15-86.03-26.18-.84-51.96 6.7-76.57 22.4l-2.98 1.9c-31.61 20.2-67.44 43.07-107.33 38.15-16.56-2.04-33-8.26-46.32-17.52-14.98-10.43-25.19-24.07-29.5-39.46a37.6 37.6 0 0 1-.22-.81c-2.23.3-4.47.54-6.72.7-15.78 1.06-33.4-1.67-50.94-7.9-39.07-13.9-67.2-52.1-70-95.05l4.75-.31c2.68 41.08 29.55 77.6 66.84 90.86 22.58 8.03 40.83 9.15 55.14 7.03-1.05-7.28-.67-15.87 1.14-23.99 2.59-11.57 7.7-20.7 14.4-25.7 8.1-6.05 20.62-9.51 29.21.66 7.24 8.55 7.91 23.9-3.49 34.8-9.7 9.27-21.65 15.34-35.62 18.1l.1.32c4 14.31 13.57 27.05 27.63 36.83 12.69 8.83 28.38 14.76 44.19 16.71 38.19 4.71 73.25-17.68 104.18-37.43l2.98-1.9c25.44-16.23 52.1-24 79.28-23.15 51.34 1.64 111.94 30.46 123.68 89.86 8.63 43.71-12.53 93.15-51.45 120.23-34.13 23.74-77.42 34.13-115.62 43.3-38.43 9.23-74.63 26.72-104.69 50.58-7.31 5.8-13.74 12.92-19.96 19.8-7.2 7.98-14.65 16.23-23.65 22.7Zm-41.45-392.5c-3.38 0-7.55 1.24-12.47 4.92-9.12 6.8-16.48 27.37-13.74 45.04 17.14-3.56 27.96-11.72 33.32-16.85 9.37-8.95 8.96-21.4 3.14-28.28a13.52 13.52 0 0 0-10.25-4.83ZM384.33 821a49.46 49.46 0 0 1 69.94-69.93Z"/><path d="m465.1 740.25-51.63 51.62-111.85-164.58L369.9 559Zm228.53 77.32a49.45 49.45 0 0 1 69.94-69.93Z"/><path d="m774.4 736.81-51.63 51.62-111.84-164.58 68.27-68.27Z"/><path fill="#fff" d="M726.43 474.92v149.54a61.23 61.23 0 0 1-61.23 61.23H301.36a61.23 61.23 0 0 1-61.23-61.23V474.92Zm139.5 4.55a4.54 4.54 0 1 1-9.09 0 4.54 4.54 0 0 1 9.09 0Z"/><path fill="#fff" d="m862.01 483.97-137.75 19.21-1.96-28.26h139.08Z"/><path fill="#fff" d="M736.5 489.12a14.2 14.2 0 1 1-28.4 0 14.2 14.2 0 0 1 28.4 0ZM309.38 334.5l-30.86-57.17a17.22 17.22 0 0 0-32.4 8.16v65.3a33.74 33.74 0 1 0 63.26-16.3Z"/><path d="m376.85 334.5-30.87-57.17a17.23 17.23 0 0 0-32.4 8.16v65.3a33.73 33.73 0 1 0 63.27-16.3Z"/><path fill="#fff" d="M245.94 358.6h148.9l7.85 97.34h-164.6Z"/><path fill="#fff" d="M526.9 327.66a28.85 28.85 0 0 1-28.78-30.62H311.96a65.89 65.89 0 1 0 23.4 127.48L510 359.55a24.54 24.54 0 0 1-17.45-23.47 2 2 0 1 1 4 0 20.5 20.5 0 0 0 19.95 20.48 31.96 31.96 0 0 0 15.65-29.39c-1.73.32-3.49.49-5.24.49Z"/><path d="M526.9 327.66c1.76 0 3.52-.17 5.25-.49a32 32 0 0 0-31.94-30.13h-2.1a28.85 28.85 0 0 0 28.79 30.62Zm-30.35 8.42a2 2 0 1 0-4 0A24.54 24.54 0 0 0 510 359.55l.96-.36c1.93-.7 3.79-1.58 5.54-2.63a20.51 20.51 0 0 1-19.95-20.48Zm-176.81 4.52a10.08 10.08 0 1 1-20.16.01 10.08 10.08 0 0 1 20.16 0Zm48.28 0a10.08 10.08 0 1 1-20.16 0 10.08 10.08 0 0 1 20.16 0Zm45.26 122.47c0 6.5-5.45 11.77-12.17 11.77H242.94c-6.72 0-12.17-5.27-12.17-11.77s5.45-11.78 12.17-11.78H401.1c6.72 0 12.17 5.27 12.17 11.78Z"/><path fill="#FF8630" d="M314.7 451.17h14.65v24.6H314.7Z"/><path fill="#FF8630" d="M338.58 488.59a16.88 16.88 0 1 1-33.76 0 16.88 16.88 0 0 1 33.76 0Z"/><g fill="#fff"><path d="M207.95 817.57a49.45 49.45 0 1 1 98.9 0Z"/><path d="M322.16 817.57h-73l37.28-195.46H383Z"/></g><g fill="#fff"><path d="M496.52 817.57a49.45 49.45 0 0 1 98.9 0Z"/><path d="M610.73 817.57h-73l47.39-167.26h96.55Z"/></g><path fill="#FF8630" d="M550.28 586.46a46.32 46.32 0 0 1-46.27-46.27 46.32 46.32 0 0 1 46.27-46.27 7.85 7.85 0 1 1 0 15.7 30.6 30.6 0 0 0-30.56 30.57 30.6 30.6 0 0 0 30.56 30.57 7.85 7.85 0 1 1 0 15.7Zm44.25-.23a26.97 26.97 0 0 1-26.95-26.95 7.85 7.85 0 0 1 15.7 0 11.26 11.26 0 0 0 22.49 0c0-6.2-5.04-11.24-11.24-11.24a26.98 26.98 0 0 1-26.95-26.94 26.98 26.98 0 0 1 26.95-26.95 26.98 26.98 0 0 1 26.94 26.95 7.85 7.85 0 1 1-15.7 0 11.26 11.26 0 0 0-22.49 0c0 6.2 5.05 11.24 11.25 11.24a26.98 26.98 0 0 1 26.94 26.94 26.97 26.97 0 0 1-26.95 26.95Zm65.42 0A26.97 26.97 0 0 1 633 559.28a7.85 7.85 0 0 1 15.7 0 11.25 11.25 0 0 0 22.49 0c0-6.2-5.05-11.24-11.24-11.24A26.98 26.98 0 0 1 633 521.1a26.98 26.98 0 0 1 26.95-26.95 26.97 26.97 0 0 1 26.94 26.95 7.85 7.85 0 1 1-15.7 0 11.25 11.25 0 1 0-11.24 11.24 26.97 26.97 0 0 1 26.94 26.94 26.97 26.97 0 0 1-26.94 26.95Z"/></svg>
