<svg xmlns="http://www.w3.org/2000/svg" viewBox="0 0 1920 1080" xml:space="preserve"><path fill="#41E847" d="M878.58 581.87v257.47a11.7 11.7 0 0 1-11.69 11.7H802.5c-54.06 0-97.89-43.83-97.89-97.9a97.89 97.89 0 0 1 33.3-73.55l121.27-106.5c7.55-6.64 19.4-1.27 19.4 8.78z"/><path fill="#231F20" d="M866.9 853.53h-64.4c-55.35 0-100.39-45.03-100.39-100.39 0-28.88 12.45-56.37 34.15-75.43l121.27-106.5a14.03 14.03 0 0 1 15.21-2.27 14.03 14.03 0 0 1 8.34 12.93v257.47a14.2 14.2 0 0 1-14.19 14.2zm-.04-280.87a9.1 9.1 0 0 0-6.03 2.3L739.56 681.47a95.4 95.4 0 0 0-32.45 71.67c0 52.6 42.8 95.4 95.4 95.4h64.38a9.2 9.2 0 0 0 9.2-9.2V581.87a9.09 9.09 0 0 0-5.4-8.37 9.25 9.25 0 0 0-3.83-.84z"/><path fill="#FFF" d="M850.55 636.35v174.5a7.92 7.92 0 0 1-7.92 7.93h-43.64a66.35 66.35 0 0 1-43.78-116.2l82.19-72.18a7.92 7.92 0 0 1 13.15 5.95z"/><path fill="#41E847" d="M1035.96 581.87v257.47a11.7 11.7 0 0 0 11.69 11.7h64.38c54.07 0 97.9-43.83 97.9-97.9a97.89 97.89 0 0 0-33.3-73.55l-121.27-106.5c-7.55-6.64-19.4-1.27-19.4 8.78z"/><path fill="#231F20" d="M1112.04 853.53h-64.4a14.2 14.2 0 0 1-14.18-14.19V581.87c0-5.65 3.2-10.6 8.34-12.93a14.04 14.04 0 0 1 15.21 2.27l121.27 106.5a100.4 100.4 0 0 1 34.15 75.43c0 55.36-45.04 100.4-100.4 100.4zm-64.36-280.87a9.1 9.1 0 0 0-3.82.84 9.1 9.1 0 0 0-5.4 8.37v257.47a9.2 9.2 0 0 0 9.19 9.2h64.39c52.6 0 95.39-42.8 95.39-95.4a95.41 95.41 0 0 0-32.45-71.67l-121.27-106.5a9.13 9.13 0 0 0-6.03-2.3z"/><path fill="#FFF" d="M1062.8 636.35v174.5a7.92 7.92 0 0 0 7.93 7.93h43.64a66.34 66.34 0 0 0 43.78-116.2l-82.2-72.18a7.92 7.92 0 0 0-13.14 5.95z"/><path fill="#41E847" d="M956 726.9c-85.51 0-154.84 69.32-154.84 154.83v121.17a63.03 63.03 0 0 0 63.04 63.04h183.6a63.03 63.03 0 0 0 63.04-63.04V881.73c0-85.51-69.33-154.83-154.84-154.83z"/><path fill="#231F20" d="M1047.8 1068.44H864.2a65.6 65.6 0 0 1-65.54-65.54V881.73c0-86.75 70.58-157.33 157.34-157.33 86.75 0 157.34 70.58 157.34 157.33v121.17a65.6 65.6 0 0 1-65.53 65.54zM956 729.4c-84 0-152.34 68.34-152.34 152.33v121.17a60.6 60.6 0 0 0 60.54 60.54h183.6a60.6 60.6 0 0 0 60.54-60.54V881.73c0-84-68.34-152.33-152.34-152.33z"/><circle fill="#FFF" cx="878.58" cy="955.15" r="28.03"/><circle fill="#FFF" cx="1035.96" cy="955.15" r="28.03"/><path fill="#231F20" d="M878.58 927.12a28.03 28.03 0 0 1 0 56.06v-56.06zm157.38 0a28.03 28.03 0 0 1 0 56.06v-56.06zm-78.69-88.82c-23.1 0-43.64-12.75-53.6-33.27l-27.34-56.32 4.5-2.19 27.33 56.33c9.12 18.78 27.94 30.45 49.1 30.45 21.18 0 40-11.67 49.11-30.45l27.34-56.33 4.5 2.19-27.34 56.32c-9.96 20.52-30.5 33.27-53.6 33.27z"/><g fill="#231F20"><path d="M929.32 1036.34a30.49 30.49 0 0 1-30.46-30.45 2.5 2.5 0 1 1 5 0c0 14.03 11.42 25.45 25.46 25.45s25.45-11.42 25.45-25.45a2.5 2.5 0 1 1 5 0 30.49 30.49 0 0 1-30.45 30.45z"/><path d="M985.22 1036.34a30.49 30.49 0 0 1-30.45-30.45 2.5 2.5 0 1 1 5 0c0 14.03 11.42 25.45 25.45 25.45s25.45-11.42 25.45-25.45a2.5 2.5 0 1 1 5 0 30.49 30.49 0 0 1-30.45 30.45z"/></g><path fill="#FFF" d="m981.46 976.15-15.48 24.9a10.26 10.26 0 0 1-17.43 0l-15.47-24.9a10.26 10.26 0 0 1 8.71-15.68h30.95c8.05 0 12.97 8.84 8.72 15.68z"/><path fill="none" d="m855.18 283.38-2.42 2.42a12.42 12.42 0 0 0 0 17.57l30.88 30.88a12.42 12.42 0 0 0 17.57 0l3.2-3.2a12.42 12.42 0 0 0 0-17.56l-30.89-30.88c-.12-.13-.26-.24-.38-.35-1.52.71-3.2 1.12-4.98 1.12h-12.98zm154.95 30.11a12.42 12.42 0 0 0 0 17.57l3.2 3.2a12.42 12.42 0 0 0 17.57 0l30.88-30.89a12.42 12.42 0 0 0 0-17.57l-2.42-2.42h-10.45c-2.4 0-4.63-.73-6.49-1.97-.49.36-.96.75-1.4 1.2l-30.89 30.88z"/><path fill="#41E847" d="M879.85 179.96V14.22c0-10.06-11.85-15.42-19.4-8.79L739.17 111.94a97.89 97.89 0 0 0-33.29 73.55c0 54.06 43.83 97.9 97.9 97.9h1.7a155.03 155.03 0 0 1 74.37-103.43z"/><path fill="#231F20" d="M807.53 285.88h-3.76c-55.35 0-100.39-45.03-100.39-100.39 0-28.88 12.45-56.37 34.15-75.43L858.79 3.56a14.03 14.03 0 0 1 15.22-2.27 14.03 14.03 0 0 1 8.34 12.93V181.4l-1.25.72a152.4 152.4 0 0 0-73.17 101.74l-.4 2.01zm60.6-280.87a9.1 9.1 0 0 0-6.03 2.3l-121.27 106.5a95.4 95.4 0 0 0-32.45 71.68c0 52.49 42.62 95.21 95.07 95.4a157.42 157.42 0 0 1 73.9-102.36V14.22a9.09 9.09 0 0 0-5.4-8.38 9.25 9.25 0 0 0-3.82-.83z"/><path fill="#41E847" d="M1177.9 111.94 1056.63 5.44c-7.55-6.64-19.4-1.28-19.4 8.78v167.24a155 155 0 0 1 71.83 101.92h4.24a97.9 97.9 0 0 0 64.6-171.44z"/><path fill="#231F20" d="M1113.3 285.88h-6.29l-.4-2a152.72 152.72 0 0 0-70.68-100.28l-1.2-.73V14.22c0-5.65 3.19-10.6 8.33-12.93a14.04 14.04 0 0 1 15.22 2.27l121.27 106.5a100.4 100.4 0 0 1 34.14 75.43c0 55.36-45.03 100.4-100.39 100.4zm-2.21-5h2.21c52.6 0 95.4-42.8 95.4-95.39a95.41 95.41 0 0 0-32.45-71.67L1054.98 7.32a9.1 9.1 0 0 0-9.86-1.48 9.1 9.1 0 0 0-5.4 8.38v165.84a157.75 157.75 0 0 1 71.37 100.82z"/><path fill="#FFF" d="M851.82 68.7v174.5a7.92 7.92 0 0 1-7.92 7.92h-43.64a66.35 66.35 0 0 1-43.78-116.2l82.19-72.17a7.92 7.92 0 0 1 13.15 5.95zm212.25 0v174.5a7.92 7.92 0 0 0 7.93 7.92h43.64a66.35 66.35 0 0 0 43.78-116.2l-82.2-72.17a7.92 7.92 0 0 0-13.15 5.95z"/><path fill="#41E847" d="M957.27 159.24c-85.51 0-154.84 69.33-154.84 154.84v121.17a63.03 63.03 0 0 0 63.04 63.03h183.6a63.03 63.03 0 0 0 63.04-63.03V314.08c0-85.51-69.33-154.84-154.84-154.84zM904.4 331.06l-3.19 3.2a12.42 12.42 0 0 1-17.57 0l-30.88-30.89a12.42 12.42 0 0 1 0-17.57l3.2-3.2a12.42 12.42 0 0 1 17.57 0l30.88 30.89a12.42 12.42 0 0 1 0 17.57zm157.38-27.69-30.88 30.88a12.42 12.42 0 0 1-17.57 0l-3.2-3.2a12.42 12.42 0 0 1 0-17.56l30.88-30.88a12.42 12.42 0 0 1 17.57 0l3.2 3.2a12.43 12.43 0 0 1 0 17.56z"/><circle fill="#FFF" cx="879.85" cy="387.5" r="28.03"/><circle fill="#FFF" cx="1037.22" cy="387.5" r="28.03"/><path fill="#231F20" d="M879.85 359.46a28.03 28.03 0 0 1 0 56.07v-56.07zm157.37 0a28.03 28.03 0 0 1 0 56.07v-56.07zm-78.68-88.81c-23.1 0-43.65-12.75-53.6-33.27l-27.34-56.32 4.5-2.19 27.33 56.33c9.12 18.78 27.94 30.45 49.1 30.45 21.18 0 40-11.67 49.11-30.45l27.34-56.33 4.5 2.19-27.34 56.32c-9.96 20.52-30.5 33.27-53.6 33.27z"/><g fill="#231F20"><path d="M930.59 468.69a2.5 2.5 0 1 1 0-5 25.48 25.48 0 0 0 25.45-25.46 2.5 2.5 0 1 1 5 0 30.49 30.49 0 0 1-30.45 30.46z"/><path d="M986.49 468.69a30.49 30.49 0 0 1-30.45-30.46 2.5 2.5 0 1 1 5 0 25.48 25.48 0 0 0 25.45 25.46 2.5 2.5 0 0 1 0 5z"/></g><g fill="#231F20"><path d="M930.59 468.69a2.5 2.5 0 1 1 0-5 25.48 25.48 0 0 0 25.45-25.46 2.5 2.5 0 1 1 5 0 30.49 30.49 0 0 1-30.45 30.46z"/><path d="M986.49 468.69a30.49 30.49 0 0 1-30.45-30.46 2.5 2.5 0 1 1 5 0 25.48 25.48 0 0 0 25.45 25.46 2.5 2.5 0 0 1 0 5z"/></g><path fill="#231F20" d="M1049.07 500.78h-183.6a65.6 65.6 0 0 1-65.54-65.53V314.08c0-86.75 70.58-157.34 157.34-157.34 86.75 0 157.34 70.59 157.34 157.34v121.17a65.6 65.6 0 0 1-65.54 65.53zm-91.8-339.04c-84 0-152.34 68.34-152.34 152.34v121.17a60.6 60.6 0 0 0 60.54 60.53h183.6a60.6 60.6 0 0 0 60.54-60.53V314.08c0-84-68.34-152.34-152.34-152.34z"/><path fill="#FFF" d="m982.73 408.5-15.48 24.89a10.26 10.26 0 0 1-17.43 0l-15.47-24.9a10.26 10.26 0 0 1 8.71-15.67h30.95c8.05 0 12.97 8.84 8.72 15.68z"/><path fill="#41E847" d="M223.64 581.14V838.6a11.7 11.7 0 0 1-11.69 11.7h-64.39c-54.06 0-97.89-43.83-97.89-97.9a97.89 97.89 0 0 1 33.3-73.55l121.27-106.5c7.55-6.64 19.4-1.28 19.4 8.78z"/><path fill="#231F20" d="M211.95 852.8h-64.39c-55.35 0-100.39-45.03-100.39-100.39a100.4 100.4 0 0 1 34.15-75.43l121.27-106.5a14.03 14.03 0 0 1 15.21-2.27 14.03 14.03 0 0 1 8.34 12.93V838.6a14.2 14.2 0 0 1-14.19 14.2zm-.03-280.87a9.1 9.1 0 0 0-6.03 2.3L84.62 680.73a95.4 95.4 0 0 0-32.45 71.68c0 52.6 42.8 95.4 95.4 95.4h64.38a9.2 9.2 0 0 0 9.2-9.2V581.14a9.09 9.09 0 0 0-5.4-8.37 9.24 9.24 0 0 0-3.83-.84z"/><path fill="#FFF" d="M195.61 635.62v174.5a7.92 7.92 0 0 1-7.92 7.93h-43.64a66.35 66.35 0 0 1-43.78-116.2l82.19-72.18a7.92 7.92 0 0 1 13.15 5.95z"/><path fill="#41E847" d="M381.02 581.14V838.6a11.7 11.7 0 0 0 11.69 11.7h64.39c54.06 0 97.89-43.83 97.89-97.9a97.89 97.89 0 0 0-33.3-73.55l-121.27-106.5c-7.55-6.64-19.4-1.28-19.4 8.78z"/><path fill="#231F20" d="M457.1 852.8h-64.4a14.2 14.2 0 0 1-14.18-14.19V581.14c0-5.65 3.2-10.6 8.34-12.93a14.03 14.03 0 0 1 15.21 2.27l121.27 106.5a100.4 100.4 0 0 1 34.15 75.43c0 55.36-45.04 100.4-100.4 100.4zm-64.36-280.87a9.2 9.2 0 0 0-3.82.83 9.1 9.1 0 0 0-5.4 8.38V838.6a9.2 9.2 0 0 0 9.19 9.2h64.38c52.6 0 95.4-42.8 95.4-95.4a95.41 95.41 0 0 0-32.45-71.67l-121.27-106.5a9.12 9.12 0 0 0-6.03-2.31z"/><path fill="#FFF" d="M407.87 635.62v174.5a7.92 7.92 0 0 0 7.92 7.93h43.64a66.35 66.35 0 0 0 43.78-116.2L421 629.67a7.92 7.92 0 0 0-13.14 5.95z"/><path fill="#41E847" d="M301.06 726.17c-85.51 0-154.84 69.32-154.84 154.83v121.17a63.03 63.03 0 0 0 63.04 63.04h183.6a63.03 63.03 0 0 0 63.04-63.04V881c0-85.51-69.33-154.83-154.84-154.83z"/><path fill="#231F20" d="M392.86 1067.7h-183.6a65.6 65.6 0 0 1-65.54-65.53V881c0-86.75 70.58-157.34 157.34-157.34 86.75 0 157.34 70.59 157.34 157.34v121.17a65.6 65.6 0 0 1-65.54 65.53zm-91.8-339.04c-84 0-152.34 68.34-152.34 152.34v121.17a60.6 60.6 0 0 0 60.54 60.53h183.6a60.6 60.6 0 0 0 60.54-60.53V881c0-84-68.34-152.34-152.34-152.34z"/><g fill="#231F20"><circle cx="223.64" cy="954.42" r="28.03"/><circle cx="381.02" cy="954.42" r="28.03"/></g><path fill="#231F20" d="M302.33 837.57c-23.1 0-43.64-12.75-53.6-33.27l-27.34-56.32 4.5-2.19 27.33 56.33c9.12 18.78 27.94 30.45 49.1 30.45 21.18 0 40-11.67 49.11-30.45l27.34-56.33 4.5 2.19-27.34 56.32c-9.96 20.52-30.5 33.27-53.6 33.27z"/><path fill="#FFF" d="M283.35 1031.63v28.5a18.98 18.98 0 0 0 37.95 0v-28.5l-8.55-4.95-10.42-10.39-10.9 10.81-8.08 4.53z"/><path fill="#231F20" d="M358.23 1002.66a2.5 2.5 0 0 0-2.5 2.5 25.48 25.48 0 0 1-25.45 25.45 25.48 25.48 0 0 1-25.45-25.45 2.5 2.5 0 1 0-5 0c0 14.03-11.42 25.45-25.45 25.45s-25.45-11.42-25.45-25.45a2.5 2.5 0 1 0-5 0 30.49 30.49 0 0 0 30.45 30.45 30.5 30.5 0 0 0 27.95-18.38 30.5 30.5 0 0 0 27.95 18.38 30.49 30.49 0 0 0 30.45-30.45 2.5 2.5 0 0 0-2.5-2.5z"/><path fill="#FFF" d="m326.52 975.42-15.48 24.9a10.26 10.26 0 0 1-17.43 0l-15.47-24.9a10.26 10.26 0 0 1 8.71-15.68h30.95c8.05 0 12.97 8.84 8.72 15.68z"/><circle fill="#FFF" cx="217.48" cy="944.22" r="8.9"/><circle fill="#FFF" cx="372.12" cy="944.22" r="8.9"/><path fill="#41E847" d="M222.37 14.22v257.47a11.7 11.7 0 0 1-11.69 11.7H146.3c-54.06 0-97.89-43.84-97.89-97.9a97.89 97.89 0 0 1 33.3-73.55L202.97 5.44c7.55-6.64 19.4-1.28 19.4 8.78z"/><path fill="#231F20" d="M210.68 285.88H146.3c-55.35 0-100.39-45.03-100.39-100.39a100.4 100.4 0 0 1 34.15-75.43L201.32 3.56a14.03 14.03 0 0 1 15.21-2.27 14.03 14.03 0 0 1 8.34 12.93v257.47a14.2 14.2 0 0 1-14.19 14.2zm-.03-280.87a9.1 9.1 0 0 0-6.03 2.3L83.35 113.81A95.4 95.4 0 0 0 50.9 185.5c0 52.6 42.79 95.4 95.39 95.4h64.38a9.2 9.2 0 0 0 9.2-9.2V14.22a9.26 9.26 0 0 0-9.22-9.2z"/><path fill="#FFF" d="M194.34 68.7v174.5a7.92 7.92 0 0 1-7.92 7.92h-43.64A66.35 66.35 0 0 1 99 134.92l82.19-72.17a7.92 7.92 0 0 1 13.15 5.95z"/><path fill="#41E847" d="M379.75 14.22v257.47a11.7 11.7 0 0 0 11.69 11.7h64.39c54.06 0 97.89-43.84 97.89-97.9a97.89 97.89 0 0 0-33.3-73.55L399.15 5.44c-7.55-6.64-19.4-1.28-19.4 8.78z"/><path fill="#231F20" d="M455.83 285.88h-64.4a14.2 14.2 0 0 1-14.18-14.19V14.22c0-5.65 3.2-10.6 8.34-12.93a14.03 14.03 0 0 1 15.21 2.26l121.27 106.51a100.4 100.4 0 0 1 34.15 75.43c0 55.36-45.04 100.4-100.4 100.4zM391.47 5.01c-1.28 0-2.58.27-3.82.83a9.1 9.1 0 0 0-5.4 8.38v257.47a9.2 9.2 0 0 0 9.19 9.2h64.39c52.6 0 95.39-42.8 95.39-95.4a95.4 95.4 0 0 0-32.45-71.67L397.5 7.32A9.12 9.12 0 0 0 391.47 5z"/><path fill="#FFF" d="M406.6 68.7v174.5a7.92 7.92 0 0 0 7.92 7.92h43.64a66.35 66.35 0 0 0 43.78-116.2l-82.2-72.17a7.92 7.92 0 0 0-13.14 5.95z"/><path fill="#41E847" d="M299.8 159.24c-85.52 0-154.85 69.33-154.85 154.84v121.17A63.03 63.03 0 0 0 208 498.28h183.6a63.03 63.03 0 0 0 63.04-63.03V314.08c0-85.51-69.32-154.84-154.84-154.84z"/><path fill="#231F20" d="M391.6 500.78H207.99a65.6 65.6 0 0 1-65.54-65.53V314.08c0-86.75 70.59-157.34 157.34-157.34 86.76 0 157.34 70.59 157.34 157.34v121.17a65.6 65.6 0 0 1-65.53 65.53zm-91.8-339.04c-84 0-152.35 68.34-152.35 152.34v121.17A60.6 60.6 0 0 0 208 495.78h183.6a60.6 60.6 0 0 0 60.54-60.53V314.08c0-84-68.34-152.34-152.34-152.34z"/><path fill="#231F20" d="M222.37 418.03a30.57 30.57 0 0 1-30.53-30.53 2.5 2.5 0 1 1 5 0c0 14.07 11.46 25.53 25.53 25.53s25.53-11.46 25.53-25.53a2.5 2.5 0 1 1 5 0 30.57 30.57 0 0 1-30.53 30.53zm157.38 0a30.57 30.57 0 0 1-30.53-30.53 2.5 2.5 0 1 1 5 0c0 14.07 11.45 25.53 25.53 25.53s25.53-11.46 25.53-25.53a2.5 2.5 0 1 1 5 0 30.57 30.57 0 0 1-30.53 30.53z"/><g fill="#231F20"><path d="M273.1 468.69a30.49 30.49 0 0 1-30.44-30.46 2.5 2.5 0 1 1 5 0c0 14.04 11.41 25.46 25.45 25.46s25.45-11.42 25.45-25.46a2.5 2.5 0 1 1 5 0 30.49 30.49 0 0 1-30.45 30.46z"/><path d="M329.01 468.69a30.49 30.49 0 0 1-30.45-30.46 2.5 2.5 0 1 1 5 0 25.48 25.48 0 0 0 25.45 25.46 25.48 25.48 0 0 0 25.45-25.46 2.5 2.5 0 1 1 5 0 30.49 30.49 0 0 1-30.45 30.46z"/></g><path fill="#FFF" d="m325.25 408.5-15.48 24.89a10.26 10.26 0 0 1-17.42 0l-15.48-24.9a10.26 10.26 0 0 1 8.71-15.67h30.95c8.05 0 12.97 8.84 8.72 15.68z"/><path fill="#231F20" d="M300.97 270.65c-23.1 0-43.64-12.75-53.6-33.27l-27.33-56.32 4.5-2.19 27.33 56.33c9.11 18.78 27.93 30.45 49.1 30.45s40-11.67 49.11-30.45l27.33-56.33 4.5 2.19-27.33 56.32c-9.96 20.52-30.5 33.27-53.6 33.27z"/><path fill="#41E847" d="M1696.36 581.87v257.47a11.7 11.7 0 0 0 11.69 11.7h64.39c54.06 0 97.89-43.83 97.89-97.9a97.89 97.89 0 0 0-33.3-73.55l-121.27-106.5c-7.55-6.64-19.4-1.27-19.4 8.78z"/><path fill="#231F20" d="M1772.44 853.53h-64.4a14.2 14.2 0 0 1-14.18-14.19V581.87c0-5.65 3.2-10.6 8.34-12.93a14.04 14.04 0 0 1 15.21 2.27l121.27 106.5a100.41 100.41 0 0 1 34.15 75.43c0 55.36-45.04 100.4-100.4 100.4zm-64.36-280.87c-1.28 0-2.58.27-3.82.84a9.1 9.1 0 0 0-5.4 8.37v257.47a9.2 9.2 0 0 0 9.19 9.2h64.39c52.6 0 95.39-42.8 95.39-95.4a95.41 95.41 0 0 0-32.44-71.67l-121.28-106.5a9.13 9.13 0 0 0-6.03-2.3z"/><path fill="#FFF" d="M1724.39 636.35v174.5a7.92 7.92 0 0 0 7.92 7.93h43.64a66.35 66.35 0 0 0 43.78-116.2l-82.19-72.18a7.92 7.92 0 0 0-13.15 5.95z"/><path fill="#41E847" d="M1538.98 581.87v257.47a11.7 11.7 0 0 1-11.69 11.7h-64.39c-54.06 0-97.89-43.83-97.89-97.9a97.89 97.89 0 0 1 33.3-73.55l121.27-106.5c7.55-6.64 19.4-1.27 19.4 8.78z"/><path fill="#231F20" d="M1527.3 853.53h-64.4c-55.35 0-100.39-45.03-100.39-100.39a100.4 100.4 0 0 1 34.15-75.43l121.27-106.5a14.04 14.04 0 0 1 15.22-2.27 14.04 14.04 0 0 1 8.33 12.93v257.47a14.2 14.2 0 0 1-14.19 14.2zm-.04-280.87a9.1 9.1 0 0 0-6.03 2.3l-121.27 106.51a95.4 95.4 0 0 0-32.44 71.67c0 52.6 42.79 95.4 95.39 95.4h64.38a9.2 9.2 0 0 0 9.2-9.2V581.87a9.26 9.26 0 0 0-9.22-9.2z"/><path fill="#FFF" d="M1512.13 636.35v174.5a7.92 7.92 0 0 1-7.92 7.93h-43.64a66.35 66.35 0 0 1-43.78-116.2l82.2-72.18a7.92 7.92 0 0 1 13.14 5.95z"/><path fill="#41E847" d="M1618.94 726.9c85.51 0 154.84 69.32 154.84 154.83v121.17a63.03 63.03 0 0 1-63.04 63.04h-183.6a63.03 63.03 0 0 1-63.04-63.04V881.73c0-85.51 69.33-154.83 154.84-154.83z"/><path fill="#231F20" d="M1710.74 1068.44h-183.6a65.6 65.6 0 0 1-65.54-65.54V881.73c0-86.75 70.58-157.33 157.34-157.33s157.34 70.58 157.34 157.33v121.17a65.6 65.6 0 0 1-65.54 65.54zm-91.8-339.04c-84 0-152.34 68.34-152.34 152.33v121.17a60.6 60.6 0 0 0 60.54 60.54h183.6a60.6 60.6 0 0 0 60.53-60.54V881.73c0-84-68.33-152.33-152.33-152.33z"/><circle fill="#FFF" cx="1696.36" cy="955.15" r="28.03"/><circle fill="#FFF" cx="1538.98" cy="955.15" r="28.03"/><path fill="#231F20" d="M1696.36 927.12a28.03 28.03 0 0 0 0 56.06v-56.06zm-157.38 0a28.03 28.03 0 0 0 0 56.06v-56.06zm78.69-88.82c-23.1 0-43.64-12.75-53.6-33.27l-27.33-56.32 4.5-2.19 27.32 56.33c9.12 18.78 27.94 30.45 49.11 30.45s39.99-11.67 49.1-30.45l27.34-56.33 4.5 2.19-27.34 56.32c-9.95 20.52-30.5 33.27-53.6 33.27z"/><g fill="#231F20"><path d="M1645.62 1036.34a30.49 30.49 0 0 1-30.45-30.45 2.5 2.5 0 1 1 5 0c0 14.03 11.42 25.45 25.45 25.45s25.45-11.42 25.45-25.45a2.5 2.5 0 1 1 5 0 30.49 30.49 0 0 1-30.45 30.45z"/><path d="M1589.72 1036.34a30.49 30.49 0 0 1-30.45-30.45 2.5 2.5 0 1 1 5 0c0 14.03 11.42 25.45 25.45 25.45s25.45-11.42 25.45-25.45a2.5 2.5 0 1 1 5 0 30.49 30.49 0 0 1-30.45 30.45z"/></g><path fill="#FFF" d="m1593.48 976.15 15.48 24.9a10.26 10.26 0 0 0 17.42 0l15.48-24.9a10.26 10.26 0 0 0-8.71-15.68h-30.95a10.26 10.26 0 0 0-8.72 15.68z"/><path fill="#41E847" d="M1506.85 918.19h73.41v36.96h-73.41zm157.53 0h73.41v36.96h-73.41zm-62.24-466.96-11.15 23.42-11.15-23.42zm55.9 0-11.15 23.42-11.15-23.42z"/><path fill="#231F20" d="M1646.9 454.71a30.49 30.49 0 0 1-30.46-30.45 2.5 2.5 0 1 1 5 0c0 14.03 11.42 25.45 25.45 25.45s25.45-11.42 25.45-25.45a2.5 2.5 0 1 1 5 0 30.49 30.49 0 0 1-30.45 30.45z"/><path fill="#231F20" d="M1590.99 454.71a30.49 30.49 0 0 1-30.45-30.45 2.5 2.5 0 1 1 5 0c0 14.03 11.41 25.45 25.45 25.45s25.45-11.42 25.45-25.45a2.5 2.5 0 1 1 5 0 30.49 30.49 0 0 1-30.45 30.45zm-123.06-168.83h-3.76c-55.35 0-100.39-45.03-100.39-100.39a100.4 100.4 0 0 1 34.15-75.43L1519.2 3.56a14.04 14.04 0 0 1 15.21-2.27 14.04 14.04 0 0 1 8.34 12.93V181.4l-1.25.72a152.4 152.4 0 0 0-73.17 101.74l-.4 2.01zm60.6-280.87a9.1 9.1 0 0 0-6.03 2.3l-121.27 106.5a95.4 95.4 0 0 0-32.45 71.68c0 52.49 42.62 95.21 95.07 95.4a157.42 157.42 0 0 1 73.9-102.36V14.22a9.09 9.09 0 0 0-5.4-8.38 9.25 9.25 0 0 0-3.82-.83zm245.17 280.87h-6.29l-.4-2a152.72 152.72 0 0 0-70.68-100.28l-1.2-.73V14.22c0-5.65 3.2-10.6 8.34-12.93a14.04 14.04 0 0 1 15.21 2.27l121.27 106.5a100.41 100.41 0 0 1 34.15 75.43c0 55.36-45.04 100.4-100.4 100.4zm-2.2-5h2.2c52.6 0 95.4-42.8 95.4-95.39a95.41 95.41 0 0 0-32.45-71.67L1715.38 7.32a9.1 9.1 0 0 0-9.85-1.48 9.1 9.1 0 0 0-5.4 8.38v165.84a157.75 157.75 0 0 1 71.36 100.82z"/><circle fill="#FFF" cx="1696.36" cy="371.19" r="28.03"/><circle fill="#FFF" cx="1538.98" cy="371.19" r="28.03"/><path fill="#231F20" d="M1696.36 343.16a28.03 28.03 0 0 0 0 56.06v-56.06zm-157.38 0a28.03 28.03 0 0 0 0 56.06v-56.06z"/><path fill="#41E847" d="M1562.09 323.11h-43.67a12.42 12.42 0 0 1-12.43-12.42v-4.52c0-6.86 5.56-12.42 12.43-12.42h43.67c6.86 0 12.42 5.56 12.42 12.42v4.52c0 6.86-5.56 12.42-12.42 12.42zm157.37 0h-43.67a12.42 12.42 0 0 1-12.42-12.42v-4.52c0-6.86 5.56-12.42 12.42-12.42h43.67c6.86 0 12.43 5.56 12.43 12.42v4.52c0 6.86-5.57 12.42-12.43 12.42zm-24.28-143.15-26.15 56.33c-20.62 42.48-82.1 42.48-102.71 0l-26.15-56.33s34.92-21.1 77.5-20.72c0 0 34.86-1.65 77.5 20.72z"/><path fill="#231F20" d="M1617.67 270.65c-23.1 0-43.64-12.75-53.6-33.27l-27.12-58.4 1.92-1.15c1.45-.88 35.98-21.4 78.76-21.09 2.27-.1 36.5-1.13 78.7 21.01l2.12 1.1-27.16 58.49c-9.97 20.56-30.52 33.31-53.62 33.31zm-74.27-89.64 25.18 54.22c9.1 18.75 27.92 30.42 49.1 30.42s39.98-11.67 49.1-30.46l25.12-54.1a183.31 183.31 0 0 0-51.71-17.38c-13.67-2.34-22.32-1.97-22.4-1.97h-1.26c-35.3 0-65.35 15.03-73.13 19.26z"/><path fill="#FFF" d="M1512.22 200.72V68.7a7.92 7.92 0 0 0-13.15-5.95l-82.2 72.18a66.35 66.35 0 0 0 43.78 116.2h15.53a155.17 155.17 0 0 1 36.04-50.4zm307.6-65.79-82.2-72.18a7.92 7.92 0 0 0-13.14 5.95V202a155.18 155.18 0 0 1 34.67 49.12h16.89a66.34 66.34 0 0 0 43.78-116.2z"/><path fill="#231F20" d="M1709.47 500.78h-183.6a65.6 65.6 0 0 1-65.53-65.53V314.08a156.4 156.4 0 0 1 13.57-63.97 156.76 156.76 0 0 1 36.61-51.21 157.9 157.9 0 0 1 28.48-21.1 157.28 157.28 0 0 1 78.67-21.06 157.08 157.08 0 0 1 108.53 43.45 156.86 156.86 0 0 1 48.8 113.89v121.17a65.61 65.61 0 0 1-65.53 65.53zm-91.8-339.04c-26.78 0-53.12 7.05-76.17 20.39a153 153 0 0 0-27.57 20.43 151.8 151.8 0 0 0-48.6 111.52v121.17a60.6 60.6 0 0 0 60.54 60.53h183.6a60.6 60.6 0 0 0 60.54-60.53V314.08a151.51 151.51 0 0 0-13.14-61.94 153.17 153.17 0 0 0-60.54-68.54 152.07 152.07 0 0 0-78.66-21.86z"/><path fill="#FFF" d="m1594.75 407.08 15.48-24.9a10.26 10.26 0 0 1 17.42 0l15.48 24.9a10.26 10.26 0 0 1-8.72 15.68h-30.94a10.26 10.26 0 0 1-8.72-15.68z"/><circle fill="#41E847" cx="1840.22" cy="421.13" r="9.23"/><circle fill="#41E847" cx="1231.86" cy="373.7" r="9.23"/><circle fill="#41E847" cx="1300.56" cy="566.83" r="9.23"/><circle fill="#41E847" cx="593.35" cy="465.28" r="9.23"/><circle fill="#41E847" cx="561.92" cy="969.1" r="9.23"/><circle fill="#41E847" cx="1332.91" cy="975.71" r="9.23"/><circle fill="#41E847" cx="9.23" cy="945.9" r="9.23"/><circle fill="#41E847" cx="76.44" cy="54.08" r="9.23"/><circle fill="#41E847" cx="1637.06" cy="105.48" r="9.23"/><circle fill="#41E847" cx="695.63" cy="65.75" r="9.23"/><circle fill="#41E847" cx="1910.77" cy="1070.77" r="9.23"/><path d="M1233.54 950.07a32.32 32.32 0 0 1 32.33-32.32 32.33 32.33 0 0 1-32.33-32.32 32.33 32.33 0 0 1-32.33 32.32 32.32 32.32 0 0 1 32.33 32.32zM654.15 631.58a32.32 32.32 0 0 1 32.33-32.32 32.33 32.33 0 0 1-32.33-32.33 32.33 32.33 0 0 1-32.33 32.33 32.32 32.32 0 0 1 32.33 32.32zM1887.67 64.65A32.32 32.32 0 0 1 1920 32.32 32.33 32.33 0 0 1 1887.67 0a32.33 32.33 0 0 1-32.32 32.32 32.32 32.32 0 0 1 32.32 32.33z" fill="#41E847"/></svg>