<svg xmlns="http://www.w3.org/2000/svg" viewBox="0 0 1920 1080" xml:space="preserve"><path d="M324.9 1078.22H194.26v-120.3h130.66v120.3zm-125.65-5h120.66v-110.3H199.25v110.3z"/><path d="M257.48 1000.62h5v75.12h-5z"/><path fill="#41E847" d="M446.62 757.06c-2.5.01-4.98.2-7.41.48-23.35-78.4-96.28-135.31-182.2-134.65S99.05 681.56 76.91 760.32a65.48 65.48 0 1 0 9.53 128.49c29.73 66.04 96.36 111.8 173.46 111.22 77.09-.6 143.01-47.37 171.74-113.87a65.47 65.47 0 1 0 14.98-129.1z"/><path d="M258.45 1002.53A191.24 191.24 0 0 1 85.02 891.72a68.53 68.53 0 0 1-15.04 1.67A68.05 68.05 0 0 1 2 825.94a68.06 68.06 0 0 1 73.07-68.3 192.56 192.56 0 0 1 66.44-97.3A189.32 189.32 0 0 1 257 620.37a189.34 189.34 0 0 1 116.07 38.18A192.57 192.57 0 0 1 441 754.84a67.62 67.62 0 0 1 53.83 19.26A67.52 67.52 0 0 1 515.1 822c.14 18.16-6.8 35.28-19.54 48.22s-29.76 20.14-47.92 20.28a68.6 68.6 0 0 1-14.54-1.46 191.27 191.27 0 0 1-174.65 113.48zM87.85 885.86l.87 1.92a186.25 186.25 0 0 0 171.16 109.75 186.26 186.26 0 0 0 169.47-112.36l.83-1.93 2.05.5a64.51 64.51 0 0 0 15.37 1.77 62.56 62.56 0 0 0 44.4-18.79 62.56 62.56 0 0 0 18.1-44.67 62.56 62.56 0 0 0-18.79-44.39 62.56 62.56 0 0 0-44.18-18.1h-.49c-2.27.01-4.68.17-7.14.47l-2.09.25-.6-2.02a187.45 187.45 0 0 0-66.74-95.7 184.47 184.47 0 0 0-113.04-37.18 184.36 184.36 0 0 0-112.45 38.9A187.45 187.45 0 0 0 79.3 761l-.57 2.03-2.1-.22A63.05 63.05 0 0 0 7 825.9a63.05 63.05 0 0 0 78.81 60.48l2.04-.52z"/><path fill="#41E847" d="m36.67 808.35 40.5 43.34"/><path d="M77.17 854.2a2.5 2.5 0 0 1-1.83-.8l-40.5-43.34a2.5 2.5 0 0 1 3.66-3.42L79 850a2.5 2.5 0 0 1-1.83 4.2z"/><path fill="#41E847" d="m472.34 805.02-39.83 43.96"/><path d="M432.51 851.48a2.5 2.5 0 0 1-1.85-4.18l39.82-43.96a2.5 2.5 0 0 1 3.7 3.35l-39.82 43.96a2.5 2.5 0 0 1-1.85.83zM213.3 834.29a23.78 23.78 0 1 1-47.57.36 23.78 23.78 0 0 1 47.56-.36z"/><path d="M128 840.32a2.5 2.5 0 0 1-2.06-3.9 62.76 62.76 0 0 1 103.5-.8 2.5 2.5 0 1 1-4.1 2.87 57.79 57.79 0 0 0-47.38-24.74h-.44a57.76 57.76 0 0 0-47.44 25.47 2.5 2.5 0 0 1-2.07 1.1zm247.3-7.22a23.78 23.78 0 1 1-47.55.36 23.78 23.78 0 0 1 47.56-.36z"/><path d="M290.39 839.08a2.5 2.5 0 0 1-2.07-3.9 62.77 62.77 0 0 1 52.02-27.68 62.76 62.76 0 0 1 51.48 26.89 2.5 2.5 0 1 1-4.1 2.86 57.76 57.76 0 0 0-95.26.73 2.5 2.5 0 0 1-2.07 1.1z"/><path fill="#41E847" d="m259.94 831.67.27 36.23"/><path d="M260.21 870.4a2.5 2.5 0 0 1-2.5-2.48l-.27-36.23a2.5 2.5 0 0 1 2.48-2.52h.02a2.5 2.5 0 0 1 2.5 2.48l.27 36.23a2.5 2.5 0 0 1-2.48 2.52h-.02z"/><path fill="#FFF" d="M322.79 888.24a63.73 63.73 0 0 1-127.46.98l127.46-.98z"/><circle fill="#FFF" cx="322.62" cy="672.56" r="7.07"/><circle fill="#FFF" cx="349.5" cy="683.45" r="7.07"/><circle fill="#FFF" cx="326.91" cy="695.61" r="7.07"/><path d="M199.25 1078.22H46.71a25.77 25.77 0 0 1-25.74-25.74v-16.39a25.77 25.77 0 0 1 25.74-25.74h152.54v67.87zm-152.54-62.87a20.76 20.76 0 0 0-20.74 20.74v16.4c0 11.43 9.3 20.73 20.74 20.73h147.54v-57.87H46.71z"/><path d="M62.52 1010.35h50.95v68.02H62.52z"/><path fill="#41E847" d="m87.99 1028.1 3.65 11.23h11.81l-9.56 6.94 3.65 11.23-9.55-6.94-9.55 6.94 3.65-11.23-9.55-6.94h11.8z"/><path d="M472.74 1078.22H319.91v-67.87h152.83a25.77 25.77 0 0 1 25.74 25.74v16.4a25.77 25.77 0 0 1-25.74 25.73zm-147.83-5h147.83c11.44 0 20.74-9.3 20.74-20.74v-16.39c0-11.43-9.3-20.74-20.74-20.74H324.91v57.87z"/><path d="M456.93 1078.36h-50.95v-68.02h50.95z"/><path fill="#41E847" d="m431.46 1028.1-3.65 11.23h-11.8l9.55 6.94-3.65 11.23 9.55-6.94 9.55 6.94-3.65-11.23 9.56-6.94h-11.81z"/><path d="M1032.86 1078.22H902.21v-120.3h130.65v120.3zm-125.65-5h120.65v-110.3H907.21v110.3z"/><path d="M965.43 1000.62h5v75.12h-5z"/><path fill="#41E847" d="M1154.58 757.06c-2.51.01-4.99.2-7.42.48-23.35-78.4-96.28-135.31-182.19-134.65s-157.96 58.67-180.1 137.43a65.48 65.48 0 1 0 9.53 128.49c29.73 66.04 96.36 111.8 173.45 111.22 77.1-.6 143.02-47.37 171.75-113.87a65.47 65.47 0 1 0 14.98-129.1z"/><path d="M966.4 1002.53a191.24 191.24 0 0 1-173.42-110.81 68.53 68.53 0 0 1-15.05 1.67 68.06 68.06 0 0 1-67.97-67.45 68.06 68.06 0 0 1 73.07-68.3 192.56 192.56 0 0 1 66.44-97.3 189.32 189.32 0 0 1 117-39.96c41.68 0 81.26 13.18 114.56 38.18a192.57 192.57 0 0 1 67.92 96.28 64 64 0 0 1 5.6-.28h.54a67.53 67.53 0 0 1 47.69 19.54 67.52 67.52 0 0 1 20.27 47.91 67.53 67.53 0 0 1-19.54 48.22 67.52 67.52 0 0 1-47.91 20.28 69.4 69.4 0 0 1-14.55-1.46 191.27 191.27 0 0 1-174.64 113.48zM795.8 885.86l.87 1.92a186.25 186.25 0 0 0 171.16 109.75 186.26 186.26 0 0 0 169.47-112.36l.84-1.93 2.04.5a63.5 63.5 0 0 0 15.38 1.77 62.56 62.56 0 0 0 44.4-18.79 62.56 62.56 0 0 0 18.1-44.67 62.56 62.56 0 0 0-18.79-44.39 62.56 62.56 0 0 0-44.18-18.1h-.5a61.5 61.5 0 0 0-7.13.47l-2.1.25-.6-2.02a187.46 187.46 0 0 0-66.73-95.7 184.38 184.38 0 0 0-113.04-37.18 184.36 184.36 0 0 0-112.45 38.9A187.45 187.45 0 0 0 787.27 761l-.57 2.03-2.1-.22a63.05 63.05 0 0 0-69.64 63.1 63.05 63.05 0 0 0 78.8 60.48l2.05-.52z"/><path fill="#41E847" d="m744.63 808.35 40.49 43.34"/><path d="M785.12 854.2a2.5 2.5 0 0 1-1.83-.8l-40.49-43.34a2.5 2.5 0 0 1 3.66-3.42L786.95 850a2.5 2.5 0 0 1-1.83 4.2z"/><path fill="#41E847" d="m1180.29 805.02-39.82 43.96"/><path d="M1140.46 851.48a2.5 2.5 0 0 1-1.85-4.18l39.83-43.96a2.5 2.5 0 0 1 3.7 3.35l-39.82 43.96a2.5 2.5 0 0 1-1.86.83zm-242.99-17.19a23.78 23.78 0 1 1-47.56.36 23.78 23.78 0 0 1 47.56-.36z"/><path d="M835.96 840.32a2.5 2.5 0 0 1-2.07-3.9 62.76 62.76 0 0 1 51.54-27.67 62.91 62.91 0 0 1 51.96 26.88 2.5 2.5 0 1 1-4.1 2.86 57.76 57.76 0 0 0-95.25.73 2.5 2.5 0 0 1-2.08 1.1zm223.52-7.22a23.78 23.78 0 1 1-47.56.36 23.78 23.78 0 0 1 47.56-.36z"/><path d="M998.34 839.08a2.5 2.5 0 0 1-2.07-3.9 62.77 62.77 0 0 1 52.02-27.68 62.76 62.76 0 0 1 51.48 26.89 2.5 2.5 0 1 1-4.1 2.86 57.77 57.77 0 0 0-47.38-24.75h-.43a57.77 57.77 0 0 0-47.44 25.48 2.5 2.5 0 0 1-2.08 1.1z"/><path fill="#41E847" d="m967.89 831.67.28 36.23"/><path d="M968.17 870.4a2.5 2.5 0 0 1-2.5-2.48l-.28-36.23a2.5 2.5 0 0 1 2.48-2.52h.02a2.5 2.5 0 0 1 2.5 2.48l.28 36.23a2.5 2.5 0 0 1-2.48 2.52h-.02zM967 918.06a66.26 66.26 0 0 1-57.91-34.1 2.5 2.5 0 1 1 4.37-2.42 61.22 61.22 0 0 0 54.02 31.52 61.39 61.39 0 0 0 53.08-31.51 2.5 2.5 0 1 1 4.37 2.43A66.4 66.4 0 0 1 967 918.06z"/><circle fill="#FFF" cx="1030.57" cy="672.56" r="7.07"/><circle fill="#FFF" cx="1057.46" cy="683.45" r="7.07"/><circle fill="#FFF" cx="1034.87" cy="695.61" r="7.07"/><path d="M907.2 1078.22H754.67a25.77 25.77 0 0 1-25.73-25.74v-16.39a25.77 25.77 0 0 1 25.73-25.74h152.55v67.87zm-152.54-62.87a20.76 20.76 0 0 0-20.73 20.74v16.4c0 11.43 9.3 20.73 20.73 20.73h147.55v-57.87H754.66z"/><path d="M770.47 1010.35h50.95v68.02h-50.95z"/><path fill="#41E847" d="m795.95 1028.1 3.64 11.23h11.81l-9.55 6.94 3.65 11.23-9.55-6.94-9.56 6.94 3.65-11.23-9.55-6.94h11.81z"/><path d="M1180.7 1078.22h-152.84v-67.87h152.84a25.77 25.77 0 0 1 25.73 25.74v16.4a25.76 25.76 0 0 1-25.73 25.73zm-147.84-5h147.84c11.43 0 20.73-9.3 20.73-20.74v-16.39c0-11.43-9.3-20.74-20.73-20.74h-147.84v57.87z"/><path d="M1164.9 1078.36h-50.96v-68.02h50.95z"/><path fill="#41E847" d="m1139.42 1028.1-3.65 11.23h-11.81l9.55 6.94-3.65 11.23 9.56-6.94 9.55 6.94-3.65-11.23 9.55-6.94h-11.81z"/><path d="M324.9 528.08H194.26v-120.3h130.66v120.3zm-125.65-5h120.66v-110.3H199.25v110.3z"/><path d="M257.48 450.48h5v75.12h-5z"/><path fill="#41E847" d="M446.62 206.92c-2.5.01-4.98.2-7.41.49C415.86 128.99 342.93 72.09 257 72.75c-85.91.65-157.96 58.67-180.1 137.43a65.48 65.48 0 1 0 9.53 128.49c29.73 66.04 96.36 111.8 173.46 111.22 77.09-.6 143.01-47.37 171.74-113.87a65.47 65.47 0 1 0 14.98-129.1z"/><path d="M258.45 452.4A191.24 191.24 0 0 1 85.02 341.57a68.53 68.53 0 0 1-15.04 1.68A68.05 68.05 0 0 1 2 275.8a68.06 68.06 0 0 1 73.07-68.3 192.56 192.56 0 0 1 66.44-97.3A189.32 189.32 0 0 1 257 70.25a189.16 189.16 0 0 1 116.07 38.18A192.57 192.57 0 0 1 441 204.7c1.91-.17 3.8-.27 5.6-.28h.53a67.53 67.53 0 0 1 47.7 19.54 67.52 67.52 0 0 1 20.27 47.91c.14 18.16-6.8 35.28-19.54 48.22s-29.76 20.14-47.92 20.28c-4.88.03-9.75-.45-14.54-1.45a191.27 191.27 0 0 1-174.65 113.47zM87.85 335.71l.87 1.92a186.25 186.25 0 0 0 171.16 109.75 186.26 186.26 0 0 0 169.47-112.36l.83-1.93 2.05.5a63.7 63.7 0 0 0 15.37 1.77 62.56 62.56 0 0 0 44.4-18.79 62.56 62.56 0 0 0 18.1-44.67 62.56 62.56 0 0 0-18.79-44.39 62.6 62.6 0 0 0-44.67-18.1c-2.27.01-4.68.17-7.14.47l-2.09.25-.6-2.02a187.45 187.45 0 0 0-66.74-95.7 184.32 184.32 0 0 0-113.04-37.18 184.36 184.36 0 0 0-112.45 38.9 187.45 187.45 0 0 0-65.26 96.71l-.58 2.03-2.1-.22A63.05 63.05 0 0 0 7 275.76a63.05 63.05 0 0 0 78.81 60.48l2.04-.52z"/><path fill="#41E847" d="m36.67 258.21 40.5 43.34"/><path d="M77.17 304.05a2.5 2.5 0 0 1-1.83-.79l-40.5-43.34a2.5 2.5 0 0 1 3.66-3.42L79 299.85a2.5 2.5 0 0 1-1.83 4.2z"/><path fill="#41E847" d="m472.34 254.88-39.83 43.96"/><path d="M432.51 301.33a2.5 2.5 0 0 1-1.85-4.17l39.82-43.96a2.5 2.5 0 0 1 3.7 3.35l-39.82 43.96c-.49.55-1.17.82-1.85.82zm-92.74 7.71a62.78 62.78 0 0 1-51.47-26.88 2.5 2.5 0 1 1 4.1-2.86 57.68 57.68 0 0 0 47.82 24.74 57.76 57.76 0 0 0 47.43-25.47 2.5 2.5 0 0 1 4.15 2.8 62.76 62.76 0 0 1-52.03 27.67zm-162.37 1.25a62.77 62.77 0 0 1-51.48-26.89 2.5 2.5 0 1 1 4.1-2.86 57.83 57.83 0 0 0 47.82 24.74 57.77 57.77 0 0 0 47.43-25.47 2.5 2.5 0 0 1 4.15 2.8 62.77 62.77 0 0 1-52.02 27.68z"/><path fill="#41E847" d="m259.94 281.53.27 36.23"/><path d="M260.21 320.26a2.5 2.5 0 0 1-2.5-2.48l-.27-36.23a2.5 2.5 0 0 1 2.48-2.52h.02a2.5 2.5 0 0 1 2.5 2.48l.27 36.23a2.5 2.5 0 0 1-2.48 2.52h-.02z"/><path fill="#41E847" d="M284.31 347.04a63.55 63.55 0 0 1-24.77 5.2c-8.8.06-17.2-1.66-24.84-4.82"/><path d="M259.04 354.74a65.8 65.8 0 0 1-25.3-5.01 2.5 2.5 0 1 1 1.92-4.62 60.63 60.63 0 0 0 23.86 4.62 60.85 60.85 0 0 0 23.8-4.99 2.5 2.5 0 0 1 1.98 4.6 65.8 65.8 0 0 1-26.26 5.4z"/><circle fill="#FFF" cx="322.62" cy="122.42" r="7.07"/><circle fill="#FFF" cx="349.5" cy="133.31" r="7.07"/><circle fill="#FFF" cx="326.91" cy="145.47" r="7.07"/><path d="M199.25 528.08H46.71a25.77 25.77 0 0 1-25.74-25.74v-16.39a25.77 25.77 0 0 1 25.74-25.74h152.54v67.87zM46.71 465.21a20.76 20.76 0 0 0-20.74 20.74v16.4c0 11.43 9.3 20.73 20.74 20.73h147.54v-57.87H46.71z"/><path d="M62.52 460.21h50.95v68.02H62.52z"/><path fill="#41E847" d="m87.99 477.96 3.65 11.23h11.81l-9.56 6.94 3.65 11.23-9.55-6.94-9.55 6.94 3.65-11.23-9.55-6.94h11.8z"/><path d="M472.74 528.08H319.91v-67.87h152.83a25.77 25.77 0 0 1 25.74 25.74v16.4a25.77 25.77 0 0 1-25.74 25.73zm-147.83-5h147.83c11.44 0 20.74-9.3 20.74-20.74v-16.39c0-11.43-9.3-20.74-20.74-20.74H324.91v57.87z"/><path d="M456.93 528.22h-50.95V460.2h50.95z"/><path fill="#41E847" d="m431.46 477.96-3.65 11.23h-11.8l9.55 6.94-3.65 11.23 9.55-6.94 9.55 6.94-3.65-11.23 9.56-6.94h-11.81z"/><path d="M1032.86 528.08H902.21v-120.3h130.65v120.3zm-125.65-5h120.65v-110.3H907.21v110.3z"/><path d="M965.43 450.48h5v75.12h-5z"/><path fill="#41E847" d="M1154.58 206.92c-2.51.01-4.99.2-7.42.49-23.35-78.42-96.28-135.32-182.19-134.66-85.92.65-157.96 58.67-180.1 137.43a65.48 65.48 0 1 0 9.53 128.49c29.73 66.05 96.36 111.8 173.45 111.22 77.1-.6 143.02-47.37 171.75-113.87a65.47 65.47 0 1 0 14.98-129.1z"/><path d="M966.4 452.4a191.24 191.24 0 0 1-173.42-110.82 68.53 68.53 0 0 1-15.05 1.68 68.06 68.06 0 0 1-67.97-67.46 68.06 68.06 0 0 1 73.07-68.3 192.56 192.56 0 0 1 66.44-97.3 189.32 189.32 0 0 1 117-39.96 189.3 189.3 0 0 1 114.56 38.19 192.57 192.57 0 0 1 67.92 96.27c1.92-.17 3.8-.27 5.6-.28h.54a67.53 67.53 0 0 1 47.69 19.54 67.52 67.52 0 0 1 20.27 47.91 67.53 67.53 0 0 1-19.54 48.22 67.52 67.52 0 0 1-47.91 20.28 68.7 68.7 0 0 1-14.55-1.45 191.27 191.27 0 0 1-174.64 113.47zM795.8 335.71l.87 1.92a186.25 186.25 0 0 0 171.16 109.75 186.26 186.26 0 0 0 169.47-112.36l.84-1.93 2.04.5a63.5 63.5 0 0 0 15.38 1.77 62.56 62.56 0 0 0 44.4-18.79 62.56 62.56 0 0 0 18.1-44.67 62.56 62.56 0 0 0-18.79-44.39 62.56 62.56 0 0 0-44.18-18.1h-.5a61.5 61.5 0 0 0-7.13.47l-2.1.25-.6-2.02a187.46 187.46 0 0 0-66.73-95.7 184.7 184.7 0 0 0-113.04-37.18 184.36 184.36 0 0 0-112.45 38.9 187.45 187.45 0 0 0-65.27 96.71l-.57 2.03-2.1-.22a63.05 63.05 0 0 0-69.64 63.1 63.05 63.05 0 0 0 78.8 60.48l2.05-.52z"/><path fill="#41E847" d="m744.63 258.21 40.49 43.34"/><path d="M785.12 304.05a2.5 2.5 0 0 1-1.83-.79l-40.49-43.34a2.5 2.5 0 0 1 3.66-3.42l40.49 43.35a2.5 2.5 0 0 1-1.83 4.2z"/><path fill="#41E847" d="m1180.29 254.88-39.82 43.96"/><path d="M1140.46 301.33a2.5 2.5 0 0 1-1.85-4.17l39.83-43.96a2.5 2.5 0 0 1 3.7 3.35l-39.82 43.96a2.5 2.5 0 0 1-1.86.82zM925.2 284.15a23.78 23.78 0 1 1-47.56.36 23.78 23.78 0 0 1 47.56-.36z"/><path d="M835.96 284.9a2.5 2.5 0 0 1-2.07-3.9 62.76 62.76 0 0 1 51.54-27.66 62.88 62.88 0 0 1 51.96 26.87 2.5 2.5 0 1 1-4.1 2.87 57.79 57.79 0 0 0-47.37-24.74h-.45a57.77 57.77 0 0 0-47.43 25.47 2.5 2.5 0 0 1-2.08 1.1zm251.26-1.94a23.78 23.78 0 1 1-47.56.36 23.78 23.78 0 0 1 47.56-.36z"/><path d="M998.34 283.67a2.5 2.5 0 0 1-2.07-3.9 62.77 62.77 0 0 1 52.02-27.68 62.76 62.76 0 0 1 51.48 26.88 2.5 2.5 0 1 1-4.1 2.87 57.77 57.77 0 0 0-47.38-24.75h-.43a57.77 57.77 0 0 0-47.44 25.48 2.5 2.5 0 0 1-2.08 1.1z"/><path fill="#41E847" d="m967.89 281.53.28 36.23"/><path d="M968.17 320.26a2.5 2.5 0 0 1-2.5-2.48l-.28-36.23a2.5 2.5 0 0 1 2.48-2.52h.02a2.5 2.5 0 0 1 2.5 2.48l.28 36.23a2.5 2.5 0 0 1-2.48 2.52h-.02z"/><circle fill="#FFF" cx="1030.57" cy="122.42" r="7.07"/><circle fill="#FFF" cx="1057.46" cy="133.31" r="7.07"/><circle fill="#FFF" cx="1034.87" cy="145.47" r="7.07"/><path d="M907.2 528.08H754.67a25.77 25.77 0 0 1-25.73-25.74v-16.39a25.77 25.77 0 0 1 25.73-25.74h152.55v67.87zm-152.54-62.87a20.76 20.76 0 0 0-20.73 20.74v16.4c0 11.43 9.3 20.73 20.73 20.73h147.55v-57.87H754.66z"/><path d="M770.47 460.21h50.95v68.02h-50.95z"/><path fill="#41E847" d="m795.95 477.96 3.64 11.23h11.81l-9.55 6.94 3.65 11.23-9.55-6.94-9.56 6.94 3.65-11.23-9.55-6.94h11.81z"/><path d="M1180.7 528.08h-152.84v-67.87h152.84a25.77 25.77 0 0 1 25.73 25.74v16.4a25.76 25.76 0 0 1-25.73 25.73zm-147.84-5h147.84c11.43 0 20.73-9.3 20.73-20.74v-16.39c0-11.43-9.3-20.74-20.73-20.74h-147.84v57.87z"/><path d="M1164.9 528.22h-50.96V460.2h50.95z"/><path fill="#41E847" d="m1139.42 477.96-3.65 11.23h-11.81l9.55 6.94-3.65 11.23 9.56-6.94 9.55 6.94-3.65-11.23 9.55-6.94h-11.81z"/><circle fill="#FFF" cx="969.75" cy="366.4" r="30.12"/><path d="M1727.26 1078.22h-130.65v-120.3h130.65v120.3zm-125.65-5h120.65v-110.3h-120.65v110.3z"/><path d="M1659.84 1000.62h5v75.12h-5z"/><path fill="#41E847" d="M1848.98 757.06c-2.5.01-4.99.2-7.42.48-23.35-78.4-96.27-135.31-182.19-134.65s-157.96 58.67-180.1 137.43a65.48 65.48 0 1 0 9.53 128.49c29.73 66.04 96.36 111.8 173.45 111.22 77.1-.6 143.02-47.37 171.75-113.87a65.47 65.47 0 1 0 14.98-129.1z"/><path d="M1660.8 1002.53a191.24 191.24 0 0 1-173.42-110.81 68.54 68.54 0 0 1-15.05 1.67 68.06 68.06 0 0 1-67.97-67.45 68.06 68.06 0 0 1 73.07-68.3 192.56 192.56 0 0 1 66.44-97.3 189.32 189.32 0 0 1 115.48-39.96 189.35 189.35 0 0 1 116.08 38.18 192.57 192.57 0 0 1 67.92 96.28c1.92-.18 3.8-.27 5.61-.28h.52a68.05 68.05 0 0 1 67.97 67.45c.14 18.16-6.8 35.28-19.54 48.22s-29.75 20.14-47.91 20.28c-4.86.02-9.76-.45-14.54-1.46a191.27 191.27 0 0 1-174.65 113.48zm-170.59-116.67.86 1.92a186.25 186.25 0 0 0 171.16 109.75 186.27 186.27 0 0 0 169.47-112.36l.84-1.93 2.05.5a63.57 63.57 0 0 0 15.37 1.77 62.56 62.56 0 0 0 44.4-18.79 62.57 62.57 0 0 0 18.1-44.67 63.05 63.05 0 0 0-62.97-62.5h-.49c-2.28.02-4.68.18-7.14.48l-2.1.25-.6-2.02a187.45 187.45 0 0 0-66.73-95.7 184.32 184.32 0 0 0-113.04-37.18 184.36 184.36 0 0 0-112.45 38.9 187.46 187.46 0 0 0-65.27 96.71l-.57 2.03-2.1-.22a63.05 63.05 0 0 0-69.64 63.1 63.06 63.06 0 0 0 62.97 62.5h.5a63.49 63.49 0 0 0 15.34-2.02l2.04-.52z"/><path fill="#41E847" d="m1439.03 808.35 40.49 43.34"/><path d="M1479.52 854.2a2.5 2.5 0 0 1-1.83-.8l-40.49-43.34a2.5 2.5 0 0 1 3.66-3.42l40.49 43.35a2.5 2.5 0 0 1-1.83 4.2z"/><path fill="#41E847" d="m1874.69 805.02-39.82 43.96"/><path d="M1834.87 851.48a2.5 2.5 0 0 1-1.86-4.18l39.83-43.96a2.5 2.5 0 0 1 3.7 3.35l-39.82 43.96a2.5 2.5 0 0 1-1.85.83zm-231.12-17.19a23.78 23.78 0 1 1-47.56.36 23.78 23.78 0 0 1 47.56-.36z"/><path d="M1530.37 840.32a2.5 2.5 0 0 1-2.07-3.9 62.76 62.76 0 0 1 51.54-27.67 62.9 62.9 0 0 1 51.96 26.88 2.5 2.5 0 0 1-4.1 2.86 57.79 57.79 0 0 0-47.38-24.74h-.44a57.76 57.76 0 0 0-47.44 25.47 2.5 2.5 0 0 1-2.07 1.1zm236.39-7.22a23.78 23.78 0 1 1-47.56.36 23.78 23.78 0 0 1 47.56-.36z"/><path d="M1692.74 839.08a2.5 2.5 0 0 1-2.07-3.9 62.77 62.77 0 0 1 52.03-27.68 62.76 62.76 0 0 1 51.47 26.89 2.5 2.5 0 1 1-4.1 2.86 57.77 57.77 0 0 0-47.37-24.75h-.44a57.77 57.77 0 0 0-47.44 25.48 2.5 2.5 0 0 1-2.08 1.1z"/><path fill="#41E847" d="m1662.29 831.67.28 36.23"/><path d="M1662.57 870.4a2.5 2.5 0 0 1-2.5-2.48l-.28-36.23a2.5 2.5 0 0 1 2.49-2.52h.01a2.5 2.5 0 0 1 2.5 2.48l.28 36.23a2.5 2.5 0 0 1-2.48 2.52h-.02z"/><circle fill="#FFF" cx="1729.58" cy="669.05" r="7.07"/><circle fill="#FFF" cx="1754.64" cy="683.01" r="7.07"/><circle fill="#FFF" cx="1729.27" cy="695.61" r="7.07"/><path d="M1601.61 1078.22h-152.54a25.77 25.77 0 0 1-25.74-25.74v-16.39a25.77 25.77 0 0 1 25.73-25.74h152.55v67.87zm-152.54-62.87a20.76 20.76 0 0 0-20.74 20.74v16.4c0 11.43 9.3 20.73 20.74 20.73h147.54v-57.87h-147.54z"/><path d="M1464.88 1010.35h50.95v68.02h-50.95z"/><path fill="#41E847" d="m1490.35 1028.1 3.65 11.23h11.8l-9.55 6.94 3.65 11.23-9.55-6.94-9.55 6.94 3.64-11.23-9.55-6.94h11.81z"/><path d="M1875.1 1078.22h-152.84v-67.87h152.84a25.77 25.77 0 0 1 25.74 25.74v16.4a25.77 25.77 0 0 1-25.74 25.73zm-147.84-5h147.84c11.44 0 20.74-9.3 20.74-20.74v-16.39c0-11.43-9.3-20.74-20.74-20.74h-147.84v57.87z"/><path d="M1859.29 1078.36h-50.95v-68.02h50.95z"/><path fill="#41E847" d="m1833.82 1028.1-3.65 11.23h-11.81l9.56 6.94-3.65 11.23 9.55-6.94 9.55 6.94-3.65-11.23 9.55-6.94h-11.8z"/><path d="M1704.06 903.8h-79.82a2.5 2.5 0 1 1 0-5h79.82a2.5 2.5 0 1 1 0 5zm23.2-375.72h-130.65v-120.3h130.65v120.3zm-125.65-5h120.65v-110.3h-120.65v110.3z"/><path d="M1659.84 450.48h5v75.12h-5z"/><path fill="#41E847" d="M1848.98 206.92c-2.5.01-4.99.2-7.42.49-23.35-78.42-96.27-135.32-182.19-134.66-85.91.65-157.96 58.67-180.1 137.43a65.48 65.48 0 1 0 9.53 128.49c29.73 66.05 96.36 111.8 173.45 111.22 77.1-.6 143.02-47.37 171.75-113.87a65.47 65.47 0 1 0 14.98-129.1z"/><path d="M1660.8 452.4a191.24 191.24 0 0 1-173.42-110.82 68.54 68.54 0 0 1-15.05 1.68 68.06 68.06 0 0 1-67.97-67.46 68.06 68.06 0 0 1 73.07-68.3 192.56 192.56 0 0 1 66.44-97.3 189.32 189.32 0 0 1 115.48-39.95 189.19 189.19 0 0 1 116.08 38.18 192.57 192.57 0 0 1 67.92 96.27c1.92-.17 3.8-.27 5.61-.28 37.46-.24 68.2 29.97 68.5 67.45.13 18.16-6.8 35.28-19.55 48.22s-29.75 20.14-47.91 20.28a68.6 68.6 0 0 1-14.54-1.45 191.27 191.27 0 0 1-174.65 113.47zm-170.59-116.68.86 1.92a186.25 186.25 0 0 0 171.16 109.75 186.27 186.27 0 0 0 169.47-112.36l.84-1.93 2.05.5a63.57 63.57 0 0 0 15.37 1.77 62.56 62.56 0 0 0 44.4-18.79 62.57 62.57 0 0 0 18.1-44.67 63.05 63.05 0 0 0-62.97-62.5h-.49c-2.28.02-4.68.18-7.14.48l-2.1.25-.6-2.02a187.45 187.45 0 0 0-66.73-95.7 184.55 184.55 0 0 0-113.04-37.18 184.36 184.36 0 0 0-112.45 38.9 187.46 187.46 0 0 0-65.27 96.71l-.57 2.03-2.1-.22a63.05 63.05 0 0 0-69.64 63.1 63.06 63.06 0 0 0 62.97 62.5h.5a63.49 63.49 0 0 0 15.34-2.02l2.04-.52z"/><path fill="#41E847" d="m1439.03 258.21 40.49 43.34"/><path d="M1479.52 304.05a2.5 2.5 0 0 1-1.83-.79l-40.49-43.34a2.5 2.5 0 0 1 3.66-3.42l40.49 43.35a2.5 2.5 0 0 1-1.83 4.2z"/><path fill="#41E847" d="m1874.69 254.88-39.82 43.96"/><path d="M1834.87 301.33a2.5 2.5 0 0 1-1.86-4.17l39.83-43.96a2.5 2.5 0 0 1 3.7 3.35l-39.82 43.96c-.5.55-1.17.82-1.85.82zm-230.61-17.18a23.78 23.78 0 1 1-47.56.36 23.78 23.78 0 0 1 47.56-.36z"/><path d="M1530.37 290.18a2.5 2.5 0 0 1-2.07-3.9 62.76 62.76 0 0 1 103.5-.8 2.5 2.5 0 0 1-4.1 2.87 57.79 57.79 0 0 0-47.38-24.74h-.44a57.76 57.76 0 0 0-47.44 25.47 2.5 2.5 0 0 1-2.07 1.1zm236.77-7.22a23.78 23.78 0 1 1-47.56.36 23.78 23.78 0 0 1 47.56-.36z"/><path d="M1692.74 288.94a2.5 2.5 0 0 1-2.07-3.9 62.76 62.76 0 0 1 103.5-.8 2.5 2.5 0 1 1-4.1 2.87 57.77 57.77 0 0 0-47.37-24.75h-.44a57.77 57.77 0 0 0-47.44 25.48 2.5 2.5 0 0 1-2.08 1.1z"/><path fill="#41E847" d="m1662.29 281.53.28 36.23"/><path d="M1662.57 320.26a2.5 2.5 0 0 1-2.5-2.48l-.28-36.23a2.5 2.5 0 0 1 2.49-2.52h.01a2.5 2.5 0 0 1 2.5 2.48l.28 36.23a2.5 2.5 0 0 1-2.48 2.52h-.02z"/><path fill="#FFF" d="M1617.1 385.34a44.72 44.72 0 0 1 89.45-.68l-89.44.68z"/><circle fill="#FFF" cx="1568.38" cy="125.07" r="7.07"/><circle fill="#FFF" cx="1595.26" cy="135.96" r="7.07"/><circle fill="#FFF" cx="1572.67" cy="148.11" r="7.07"/><path d="M1601.61 528.08h-152.54a25.77 25.77 0 0 1-25.74-25.74v-16.39a25.77 25.77 0 0 1 25.73-25.74h152.55v67.87zm-152.54-62.87a20.76 20.76 0 0 0-20.74 20.74v16.4c0 11.43 9.3 20.73 20.74 20.73h147.54v-57.87h-147.54z"/><path d="M1464.88 460.21h50.95v68.02h-50.95z"/><path fill="#41E847" d="m1490.35 477.96 3.65 11.23h11.8l-9.55 6.94 3.65 11.23-9.55-6.94-9.55 6.94 3.64-11.23-9.55-6.94h11.81z"/><path d="M1875.1 528.08h-152.84v-67.87h152.84a25.77 25.77 0 0 1 25.74 25.74v16.4a25.77 25.77 0 0 1-25.74 25.73zm-147.84-5h147.84c11.44 0 20.74-9.3 20.74-20.74v-16.39c0-11.43-9.3-20.74-20.74-20.74h-147.84v57.87z"/><path d="M1859.29 528.22h-50.95V460.2h50.95z"/><path fill="#41E847" d="m1833.82 477.96-3.65 11.23h-11.81l9.56 6.94-3.65 11.23 9.55-6.94 9.55 6.94-3.65-11.23 9.55-6.94h-11.8z"/><path d="M1907.35 88.26c-59.25 59.74-112.55 32.23-112.55 32.23 66.44-44.63 34.46-120 34.46-120-23.55 74.88-169.32 69.92-169.32 69.92-.98 42.36 9.09 77.66 28.12 103.36a110.93 110.93 0 0 0 37.91 32.6 134.24 134.24 0 0 0 67.4 18.02 134.2 134.2 0 0 0 78.9-25.5 84.75 84.75 0 0 0 18.6-16.21c33.47-39.19 16.48-94.42 16.48-94.42z"/><path fill="#929497" d="m1461.2 144.66-76.39-29.03"/><path fill="#FFF" d="M1461.2 147.16c-.3 0-.6-.05-.89-.16l-76.4-29.03a2.5 2.5 0 0 1 1.78-4.68l76.4 29.03a2.5 2.5 0 0 1-.9 4.84z"/><path fill="#929497" d="m1485.64 107.99-44.3-36.67"/><path fill="#FFF" d="M1485.64 110.5c-.56 0-1.12-.2-1.59-.58l-44.3-36.67a2.5 2.5 0 1 1 3.18-3.85l44.3 36.67a2.5 2.5 0 0 1-1.59 4.42z"/><path fill="#929497" d="m1519.26 80.49-45.84-67.22"/><path fill="#FFF" d="M1519.26 83a2.5 2.5 0 0 1-2.07-1.1l-45.83-67.23a2.5 2.5 0 0 1 4.13-2.81l45.83 67.22a2.5 2.5 0 0 1-2.06 3.91z"/><path fill="#929497" d="m1557.45 57.57-21.39-50.41"/><path fill="#FFF" d="M1557.45 60.07a2.5 2.5 0 0 1-2.3-1.52l-21.39-50.42a2.5 2.5 0 0 1 4.6-1.95l21.4 50.42a2.5 2.5 0 0 1-2.3 3.47z"/></svg>