<svg xmlns="http://www.w3.org/2000/svg" viewBox="0 0 1080 1080" xml:space="preserve"><path d="M304.67 1075.61H182.6V963.26h122.08v112.35zm-118.08-4h114.08V967.26H186.6v104.35z"/><path d="M242 1003.03h4v70.59h-4z"/><path fill="#41E847" d="M419.4 774.15a61.8 61.8 0 0 0-6.97.46c-21.94-73.7-90.47-127.17-171.21-126.55-80.74.62-148.45 55.14-169.26 129.15a61.54 61.54 0 1 0 8.95 120.75c27.95 62.07 90.57 105.07 163.02 104.52 72.44-.55 134.4-44.51 161.4-107a61.53 61.53 0 1 0 14.08-121.33z"/><path d="M242.57 1004.49c-69.9 0-133.5-40.72-162.78-104.2a64.01 64.01 0 0 1-14.34 1.63 63.6 63.6 0 0 1-63.53-63.04 63.6 63.6 0 0 1 68.58-63.81 180.6 180.6 0 0 1 62.4-91.54 177.56 177.56 0 0 1 108.3-37.47 177.36 177.36 0 0 1 108.88 35.81 180.6 180.6 0 0 1 63.79 90.57c1.89-.18 3.74-.28 5.52-.3h.5a63.1 63.1 0 0 1 44.56 18.27 63.1 63.1 0 0 1 18.95 44.78 63.11 63.11 0 0 1-18.26 45.07 63.11 63.11 0 0 1-44.78 18.95c-4.65.03-9.3-.44-13.87-1.42a179.4 179.4 0 0 1-163.92 106.7zM82.05 895.6l.7 1.54a175.37 175.37 0 0 0 161.16 103.34 175.39 175.39 0 0 0 159.58-105.8l.66-1.55 1.64.4a60.66 60.66 0 0 0 14.54 1.68 59.14 59.14 0 0 0 41.96-17.76 59.15 59.15 0 0 0 17.11-42.23 59.14 59.14 0 0 0-17.75-41.96 59.23 59.23 0 0 0-42.23-17.11 59.2 59.2 0 0 0-6.75.44l-1.68.2-.48-1.61a176.52 176.52 0 0 0-62.84-90.11 173.57 173.57 0 0 0-106.44-35 173.6 173.6 0 0 0-105.89 36.62 176.5 176.5 0 0 0-61.45 91.06l-.46 1.63-1.68-.18a59.6 59.6 0 0 0-65.83 59.64c.25 32.83 27.2 59.36 59.99 59.08 4.9-.04 9.78-.68 14.5-1.9l1.64-.42z"/><path fill="#41E847" d="m34.15 822.35 38.05 40.73"/><path d="M72.2 865.08a2 2 0 0 1-1.46-.63L32.7 823.72a2 2 0 1 1 2.92-2.73l38.06 40.73a2 2 0 0 1-1.47 3.36z"/><path fill="#41E847" d="m443.57 819.22-37.43 41.31"/><path d="M406.14 862.53a2 2 0 0 1-1.48-3.34l37.42-41.32a2 2 0 0 1 2.97 2.69l-37.43 41.31a2 2 0 0 1-1.48.66zm-207.86-15.8a22.35 22.35 0 1 1-44.7.34 22.35 22.35 0 0 1 44.7-.34z"/><path d="M119.98 852.05a2 2 0 0 1-1.66-3.12 58.63 58.63 0 0 1 48.16-25.85 58.73 58.73 0 0 1 48.54 25.1 2 2 0 1 1-3.28 2.3 54.65 54.65 0 0 0-44.81-23.4h-.42a54.63 54.63 0 0 0-44.87 24.09 2 2 0 0 1-1.66.88zm213.06-6.44a22.35 22.35 0 1 1-44.7.34 22.35 22.35 0 0 1 44.7-.34z"/><path d="M272.58 850.88a2 2 0 0 1-1.66-3.12 58.64 58.64 0 0 1 48.15-25.85 58.54 58.54 0 0 1 48.54 25.11 2 2 0 0 1-3.28 2.29 54.64 54.64 0 0 0-44.8-23.4h-.43A54.64 54.64 0 0 0 274.24 850a2 2 0 0 1-1.66.88z"/><path fill="#41E847" d="m243.97 844.27.25 34.04"/><path d="M244.22 880.31a2 2 0 0 1-2-1.98l-.26-34.05a2 2 0 0 1 1.99-2.01h.02a2 2 0 0 1 2 1.98l.25 34.05a2 2 0 0 1-1.98 2.01h-.02zm-1.09 44.79a61.91 61.91 0 0 1-54.12-31.86 2 2 0 0 1 3.5-1.94 57.92 57.92 0 0 0 50.62 29.8h.45a58.04 58.04 0 0 0 50.18-29.8 2 2 0 0 1 3.5 1.96 62.05 62.05 0 0 1-53.65 31.84h-.48z"/><circle fill="#FFF" cx="302.87" cy="694.75" r="6.64"/><circle fill="#FFF" cx="328.13" cy="704.98" r="6.64"/><circle fill="#FFF" cx="306.9" cy="716.4" r="6.64"/><path d="M186.59 1075.61H44.99a25.26 25.26 0 0 1-25.24-25.23v-12.6a25.26 25.26 0 0 1 25.23-25.24h141.6v63.07zm-141.6-59.07a21.26 21.26 0 0 0-21.24 21.23v12.6a21.26 21.26 0 0 0 21.23 21.24h137.6v-55.08H44.99z"/><path d="M58.44 1014.68h47.88v58.45H58.44z"/><path fill="#41E847" d="m82.38 1028.87 3.43 10.55H96.9l-8.97 6.52 3.42 10.55-8.97-6.52-8.98 6.52 3.43-10.55-8.98-6.52h11.1z"/><path d="M442.55 1075.61H300.67v-63.07h141.88a25.26 25.26 0 0 1 25.23 25.23v12.6a25.27 25.27 0 0 1-25.23 25.24zm-137.88-4h137.88a21.26 21.26 0 0 0 21.23-21.23v-12.6a21.26 21.26 0 0 0-21.23-21.24H304.67v55.07z"/><path d="M429.1 1073.12h-47.88v-58.45h47.88z"/><path fill="#41E847" d="m405.15 1028.87-3.42 10.55h-11.1l8.98 6.52-3.43 10.55 8.97-6.52 8.98 6.52-3.43-10.55 8.98-6.52h-11.1z"/><path d="M304.67 536.33H182.6V423.97h122.08v112.36zm-118.08-4h114.08V427.97H186.6v104.36z"/><path d="M242 463.75h4v70.59h-4z"/><path fill="#41E847" d="M419.4 234.86a61.8 61.8 0 0 0-6.97.46c-21.94-73.69-90.47-127.16-171.21-126.55S92.77 163.91 71.96 237.93a61.54 61.54 0 1 0 8.95 120.75c27.95 62.06 90.57 105.07 163.02 104.51 72.44-.55 134.4-44.5 161.4-107a61.53 61.53 0 1 0 14.08-121.33z"/><path d="M242.57 465.2c-69.9 0-133.5-40.72-162.78-104.2a64.01 64.01 0 0 1-14.34 1.64 63.6 63.6 0 0 1-63.53-63.05 63.6 63.6 0 0 1 68.58-63.81 180.6 180.6 0 0 1 62.4-91.54 177.56 177.56 0 0 1 108.3-37.47 177.38 177.38 0 0 1 108.88 35.81 180.6 180.6 0 0 1 63.79 90.57c1.89-.18 3.74-.28 5.52-.29h.5a63.1 63.1 0 0 1 44.56 18.27 63.1 63.1 0 0 1 18.95 44.77 63.11 63.11 0 0 1-18.26 45.07 63.11 63.11 0 0 1-44.78 18.95c-4.65.04-9.3-.44-13.87-1.41A179.4 179.4 0 0 1 242.57 465.2zM82.05 356.3l.7 1.54A175.37 175.37 0 0 0 243.9 461.19 175.39 175.39 0 0 0 403.5 355.4l.66-1.54 1.64.4a60.06 60.06 0 0 0 14.54 1.67 59.14 59.14 0 0 0 41.96-17.76 59.15 59.15 0 0 0 17.11-42.23c-.12-15.9-6.42-30.8-17.75-41.96s-26.3-17.23-42.23-17.1c-2.15 0-4.42.15-6.75.43l-1.68.2-.48-1.61a176.52 176.52 0 0 0-62.84-90.1 173.57 173.57 0 0 0-106.44-35.02 173.6 173.6 0 0 0-105.89 36.64 176.5 176.5 0 0 0-61.45 91.06l-.46 1.62-1.68-.18a59.6 59.6 0 0 0-65.83 59.64 59.6 59.6 0 0 0 59.53 59.08h.46c4.9-.04 9.77-.68 14.5-1.9l1.64-.42z"/><path fill="#41E847" d="M34.15 283.06 72.2 323.8"/><path d="M72.2 325.8a2 2 0 0 1-1.46-.64L32.7 284.43a2 2 0 1 1 2.93-2.73l38.05 40.73a2 2 0 0 1-1.47 3.37z"/><path fill="#41E847" d="m443.57 279.93-37.43 41.31"/><path d="M406.14 323.24a2 2 0 0 1-1.48-3.34l37.42-41.31a2 2 0 0 1 2.97 2.68l-37.43 41.32a2 2 0 0 1-1.48.65zm-202.29-15.8a22.35 22.35 0 1 1-44.7.34 22.35 22.35 0 0 1 44.7-.34z"/><path d="M119.98 307.8a2 2 0 0 1-1.66-3.12 58.63 58.63 0 0 1 48.6-25.85 58.7 58.7 0 0 1 48.1 25.11 2 2 0 1 1-3.28 2.3 54.66 54.66 0 0 0-44.81-23.4h-.42a54.64 54.64 0 0 0-44.87 24.08 2 2 0 0 1-1.66.89zm236.12-1.48a22.35 22.35 0 1 1-44.7.35 22.35 22.35 0 0 1 44.7-.35z"/><path d="M272.58 306.64a2 2 0 0 1-1.66-3.12 58.64 58.64 0 0 1 48.15-25.85 58.64 58.64 0 0 1 48.54 25.1 2 2 0 0 1-3.28 2.3 54.64 54.64 0 0 0-44.8-23.4h-.43a54.64 54.64 0 0 0-44.86 24.09 2 2 0 0 1-1.66.88z"/><path fill="#41E847" d="m243.97 304.98.25 34.04"/><path d="M244.22 341.02a2 2 0 0 1-2-1.98l-.26-34.04a2 2 0 0 1 1.99-2.02h.02a2 2 0 0 1 2 1.98l.25 34.05a2 2 0 0 1-1.98 2.01h-.02z"/><circle fill="#FFF" cx="302.87" cy="155.46" r="6.64"/><circle fill="#FFF" cx="328.13" cy="165.69" r="6.64"/><circle fill="#FFF" cx="306.9" cy="177.11" r="6.64"/><path d="M186.59 536.33H44.99a25.26 25.26 0 0 1-25.24-25.24v-12.6a25.26 25.26 0 0 1 25.23-25.24h141.6v63.08zm-141.6-59.08a21.26 21.26 0 0 0-21.24 21.23v12.61a21.26 21.26 0 0 0 21.23 21.24h137.6v-55.08H44.99z"/><path d="M58.44 475.1h47.88v59.29H58.44z"/><path fill="#41E847" d="m82.38 489.58 3.43 10.55H96.9l-8.97 6.52 3.42 10.55-8.97-6.52-8.98 6.52 3.43-10.55-8.98-6.52h11.1z"/><path d="M442.55 536.33H300.67v-63.08h141.88a25.26 25.26 0 0 1 25.23 25.23v12.61a25.27 25.27 0 0 1-25.23 25.24zm-137.88-4h137.88a21.26 21.26 0 0 0 21.23-21.24v-12.6a21.26 21.26 0 0 0-21.23-21.24H304.67v55.08z"/><path d="M429.1 534.4h-47.88v-59.3h47.88z"/><path fill="#41E847" d="m405.15 489.58-3.42 10.55h-11.1l8.98 6.52-3.43 10.55 8.97-6.52 8.98 6.52-3.43-10.55 8.98-6.52h-11.1z"/><circle fill="#FFF" cx="245.71" cy="384.74" r="28.31"/><path d="M898.13 1075.61H776.05V963.26h122.08v112.35zm-118.08-4h114.08V967.26H780.05v104.35z"/><path d="M835.47 1003.03h4v70.59h-4z"/><path fill="#41E847" d="M1012.87 774.15c-2.36.02-4.69.18-6.97.46-21.95-73.7-90.48-127.17-171.22-126.55-80.74.62-148.44 55.14-169.25 129.15a61.54 61.54 0 1 0 8.95 120.75c27.95 62.07 90.56 105.07 163 104.52 72.46-.55 134.4-44.51 161.4-107a61.53 61.53 0 1 0 14.08-121.33z"/><path d="M836.03 1004.49c-69.9 0-133.5-40.72-162.78-104.2a64.01 64.01 0 0 1-14.34 1.63 63.6 63.6 0 0 1-63.53-63.04 63.6 63.6 0 0 1 68.58-63.81 180.6 180.6 0 0 1 62.4-91.54 177.56 177.56 0 0 1 108.3-37.47 177.35 177.35 0 0 1 108.88 35.81 180.6 180.6 0 0 1 63.79 90.57c1.9-.18 3.74-.28 5.52-.3h.5a63.1 63.1 0 0 1 44.57 18.27 63.1 63.1 0 0 1 18.95 44.78 63.11 63.11 0 0 1-18.27 45.07 63.11 63.11 0 0 1-44.78 18.95 64.1 64.1 0 0 1-13.87-1.42 179.4 179.4 0 0 1-163.92 106.7zM675.5 895.6l.7 1.54a175.42 175.42 0 0 0 161.16 103.34 175.39 175.39 0 0 0 159.58-105.8l.67-1.55 1.64.4a60.71 60.71 0 0 0 14.53 1.68 59.14 59.14 0 0 0 41.96-17.76 59.15 59.15 0 0 0 17.12-42.23 59.14 59.14 0 0 0-17.76-41.96 59.3 59.3 0 0 0-42.23-17.11 59.2 59.2 0 0 0-6.75.44l-1.67.2-.48-1.61a176.52 176.52 0 0 0-62.84-90.11 173.57 173.57 0 0 0-106.44-35 173.6 173.6 0 0 0-105.9 36.62 176.5 176.5 0 0 0-61.45 91.06l-.46 1.63-1.67-.18a59.6 59.6 0 0 0-65.83 59.64 59.6 59.6 0 0 0 59.52 59.08h.46a60.1 60.1 0 0 0 14.51-1.9l1.63-.42z"/><path fill="#41E847" d="m627.62 822.35 38.05 40.73"/><path d="M665.67 865.08a2 2 0 0 1-1.46-.63l-38.06-40.73a2 2 0 1 1 2.93-2.73l38.05 40.73a2 2 0 0 1-1.46 3.36z"/><path fill="#41E847" d="m1037.03 819.22-37.43 41.31"/><path d="M999.6 862.53a2 2 0 0 1-1.48-3.34l37.43-41.32a2 2 0 0 1 2.96 2.69l-37.42 41.31a2 2 0 0 1-1.49.66zm-217.19-15.8a22.35 22.35 0 1 1-44.7.34 22.35 22.35 0 0 1 44.7-.34z"/><path d="M713.45 852.05a2 2 0 0 1-1.65-3.12 58.63 58.63 0 0 1 48.14-25.85 58.76 58.76 0 0 1 48.54 25.1 2 2 0 1 1-3.28 2.3 54.65 54.65 0 0 0-44.8-23.4h-.43a54.63 54.63 0 0 0-44.86 24.09 2 2 0 0 1-1.66.88zm222.15-6.44a22.35 22.35 0 1 1-44.7.34 22.35 22.35 0 0 1 44.7-.34z"/><path d="M866.04 850.88a2 2 0 0 1-1.65-3.12 58.64 58.64 0 0 1 48.15-25.85 58.54 58.54 0 0 1 48.54 25.11 2 2 0 0 1-3.29 2.29 54.64 54.64 0 0 0-44.8-23.4h-.42A54.64 54.64 0 0 0 867.7 850a2 2 0 0 1-1.66.88z"/><path fill="#41E847" d="m837.43 844.27.26 34.04"/><path d="M837.69 880.31a2 2 0 0 1-2-1.98l-.26-34.05a2 2 0 0 1 1.98-2.01h.02a2 2 0 0 1 2 1.98l.26 34.05a2 2 0 0 1-1.99 2.01h-.01z"/><circle fill="#FFF" cx="900.66" cy="691.45" r="6.64"/><circle fill="#FFF" cx="924.21" cy="704.56" r="6.64"/><circle fill="#FFF" cx="900.37" cy="716.4" r="6.64"/><path d="M780.05 1075.61h-141.6a25.27 25.27 0 0 1-25.24-25.23v-12.6a25.27 25.27 0 0 1 25.24-25.24h141.6v63.07zm-141.6-59.07a21.26 21.26 0 0 0-21.24 21.23v12.6a21.26 21.26 0 0 0 21.24 21.24h137.6v-55.08h-137.6z"/><path d="M651.9 1014.68h47.88v58.45H651.9z"/><path fill="#41E847" d="m675.84 1028.87 3.43 10.55h11.09l-8.97 6.52 3.43 10.55-8.98-6.52-8.97 6.52 3.42-10.55-8.97-6.52h11.09z"/><path d="M1036.01 1075.61H894.13v-63.07h141.88a25.26 25.26 0 0 1 25.24 25.23v12.6a25.27 25.27 0 0 1-25.24 25.24zm-137.88-4h137.88a21.26 21.26 0 0 0 21.24-21.23v-12.6a21.26 21.26 0 0 0-21.24-21.24H898.13v55.07z"/><path d="M1022.55 1073.12h-47.88v-58.45h47.88z"/><path fill="#41E847" d="m998.62 1028.87-3.43 10.55h-11.1l8.98 6.52-3.43 10.55 8.98-6.52 8.97 6.52-3.43-10.55 8.98-6.52h-11.09z"/><path d="M876.68 911.7h-75.02a2 2 0 0 1 0-4h75.02a2 2 0 0 1 0 4zm21.45-375.37H776.05V423.97h122.08v112.36zm-118.08-4h114.08V427.97H780.05v104.36z"/><path d="M835.47 463.75h4v70.59h-4z"/><path fill="#41E847" d="M1012.87 234.86c-2.36.02-4.69.18-6.97.46-21.95-73.69-90.48-127.16-171.22-126.55s-148.44 55.14-169.25 129.16a61.54 61.54 0 1 0 8.95 120.75c27.95 62.06 90.56 105.07 163 104.51 72.46-.55 134.4-44.5 161.4-107a61.53 61.53 0 1 0 14.08-121.33z"/><path d="M836.03 465.2c-69.9 0-133.5-40.72-162.78-104.2a64.01 64.01 0 0 1-14.34 1.64 63.6 63.6 0 0 1-63.53-63.05 63.6 63.6 0 0 1 68.58-63.81 180.6 180.6 0 0 1 62.4-91.54 177.56 177.56 0 0 1 108.3-37.47 177.37 177.37 0 0 1 108.88 35.81 180.6 180.6 0 0 1 63.79 90.57c1.9-.18 3.74-.28 5.52-.29h.5a63.1 63.1 0 0 1 44.57 18.27 63.1 63.1 0 0 1 18.95 44.77 63.11 63.11 0 0 1-18.27 45.07 63.11 63.11 0 0 1-44.78 18.95c-4.66.04-9.3-.44-13.87-1.41A179.4 179.4 0 0 1 836.03 465.2zM675.5 356.3l.7 1.54a175.37 175.37 0 0 0 161.16 103.34 175.39 175.39 0 0 0 159.58-105.8l.67-1.54 1.64.4a60.1 60.1 0 0 0 14.53 1.67 59.14 59.14 0 0 0 41.96-17.76 59.15 59.15 0 0 0 17.12-42.23 59.14 59.14 0 0 0-17.76-41.96 59.14 59.14 0 0 0-41.76-17.11h-.47c-2.15.02-4.42.16-6.75.44l-1.67.2-.48-1.61a176.52 176.52 0 0 0-62.84-90.1 173.57 173.57 0 0 0-106.44-35.02 173.6 173.6 0 0 0-105.9 36.64 176.5 176.5 0 0 0-61.45 91.06l-.46 1.62-1.67-.18a59.6 59.6 0 0 0-65.83 59.64 59.6 59.6 0 0 0 59.52 59.08h.46a60.1 60.1 0 0 0 14.51-1.9l1.63-.42z"/><path fill="#41E847" d="m627.62 283.06 38.05 40.74"/><path d="M665.67 325.8a2 2 0 0 1-1.46-.64l-38.06-40.73a2 2 0 1 1 2.93-2.73l38.05 40.73a2 2 0 0 1-1.46 3.37z"/><path fill="#41E847" d="m1037.03 279.93-37.43 41.31"/><path d="M999.6 323.24a2 2 0 0 1-1.48-3.34l37.43-41.31a2 2 0 0 1 2.96 2.68l-37.42 41.32a2 2 0 0 1-1.49.65zm-216.7-15.8a22.35 22.35 0 1 1-44.7.34 22.35 22.35 0 0 1 44.7-.34z"/><path d="M713.45 312.76a2 2 0 0 1-1.65-3.12 58.63 58.63 0 0 1 48.14-25.85 58.75 58.75 0 0 1 48.54 25.1 2 2 0 1 1-3.28 2.3 54.65 54.65 0 0 0-44.8-23.4h-.43a54.63 54.63 0 0 0-44.86 24.09 2 2 0 0 1-1.66.88zm222.51-6.44a22.35 22.35 0 1 1-44.7.35 22.35 22.35 0 0 1 44.7-.35z"/><path d="M866.04 311.6a2 2 0 0 1-1.65-3.12 58.63 58.63 0 0 1 96.69-.74 2 2 0 0 1-3.29 2.28 54.64 54.64 0 0 0-44.8-23.4h-.42a54.64 54.64 0 0 0-44.87 24.1 2 2 0 0 1-1.66.87z"/><path fill="#41E847" d="m837.43 304.98.26 34.04"/><path d="M837.69 341.02a2 2 0 0 1-2-1.98l-.26-34.04a2 2 0 0 1 1.98-2.02h.02a2 2 0 0 1 2 1.98l.26 34.05a2 2 0 0 1-1.99 2.01h-.01z"/><path fill="#FFF" d="M794.96 402.54a42.03 42.03 0 0 1 84.05-.65l-84.05.65z"/><circle fill="#FFF" cx="749.17" cy="157.95" r="6.64"/><circle fill="#FFF" cx="774.43" cy="168.18" r="6.64"/><circle fill="#FFF" cx="753.2" cy="179.6" r="6.64"/><path d="M780.05 536.33h-141.6a25.27 25.27 0 0 1-25.24-25.24v-12.6a25.27 25.27 0 0 1 25.24-25.24h141.6v63.08zm-141.6-59.08a21.26 21.26 0 0 0-21.24 21.23v12.61a21.26 21.26 0 0 0 21.24 21.24h137.6v-55.08h-137.6z"/><path d="M651.9 475.1h47.88v59.29H651.9z"/><path fill="#41E847" d="m675.84 489.58 3.43 10.55h11.09l-8.97 6.52 3.43 10.55-8.98-6.52-8.97 6.52 3.42-10.55-8.97-6.52h11.09z"/><path d="M1036.01 536.33H894.13v-63.08h141.88a25.26 25.26 0 0 1 25.24 25.23v12.61a25.27 25.27 0 0 1-25.24 25.24zm-137.88-4h137.88a21.26 21.26 0 0 0 21.24-21.24v-12.6a21.26 21.26 0 0 0-21.24-21.24H898.13v55.08z"/><path d="M1022.55 534.4h-47.88v-59.3h47.88z"/><path fill="#41E847" d="m998.62 489.58-3.43 10.55h-11.1l8.98 6.52-3.43 10.55 8.98-6.52 8.97 6.52-3.43-10.55 8.98-6.52h-11.09z"/><path d="M1067.72 123.57c-55.68 56.15-105.77 30.29-105.77 30.29 62.44-41.94 32.38-112.76 32.38-112.76-22.13 70.36-159.12 65.7-159.12 65.7-.92 39.8 8.54 72.98 26.43 97.13a104.22 104.22 0 0 0 35.63 30.63 126.15 126.15 0 0 0 63.33 16.94c27.7 0 53.3-8.89 74.16-23.96a79.66 79.66 0 0 0 17.48-15.23c31.45-36.83 15.48-88.74 15.48-88.74z"/><path fill="#929497" d="m648.45 176.35-71.79-27.27"/><path fill="#FFF" d="M648.45 178.36a2 2 0 0 1-.71-.14l-71.8-27.28a2 2 0 1 1 1.43-3.73l71.79 27.28a2 2 0 0 1-.71 3.87z"/><path fill="#929497" d="m671.42 141.9-48.79-40.48"/><path fill="#FFF" d="M671.42 143.9a2 2 0 0 1-1.28-.46l-48.78-40.48a2 2 0 0 1 2.55-3.08l48.79 40.48a2 2 0 0 1-1.28 3.54z"/><path fill="#929497" d="m703.01 116.05-85-112.94"/><path fill="#FFF" d="M703 118.05a2 2 0 0 1-1.6-.8l-85-112.94a2 2 0 1 1 3.2-2.4l85 112.94a2 2 0 0 1-1.6 3.2z"/><path fill="#929497" d="m738.9 93.49-35.3-77.53"/><path fill="#FFF" d="M738.9 95.5a2 2 0 0 1-1.82-1.18l-35.3-77.53a2 2 0 1 1 3.63-1.66l35.31 77.53a2 2 0 0 1-1.82 2.83z"/><path fill="#929497" d="m773.52 81.89-8.23-46.13"/><path fill="#FFF" d="M773.52 83.89a2 2 0 0 1-1.97-1.65l-8.23-46.13a2 2 0 1 1 3.94-.7l8.23 46.13a2 2 0 0 1-1.97 2.35z"/></svg>