<svg xmlns="http://www.w3.org/2000/svg" viewBox="0 0 1080 1080" xml:space="preserve"><path fill="#41E847" d="M177.97 579.46v257.47a11.7 11.7 0 0 1-11.7 11.69H101.9a97.89 97.89 0 0 1-64.6-171.44l121.27-106.5c7.56-6.64 19.4-1.28 19.4 8.78z"/><path fill="#231F20" d="M166.28 850.62h-64.39C46.81 850.62 2 805.8 2 750.72a99.9 99.9 0 0 1 33.97-75.04l121.28-106.51a13.52 13.52 0 0 1 14.68-2.19 13.54 13.54 0 0 1 8.04 12.48v257.47a13.7 13.7 0 0 1-13.7 13.69zm-.03-280.87a9.6 9.6 0 0 0-6.37 2.42L38.61 678.68A95.9 95.9 0 0 0 6 750.73c0 52.87 43.02 95.89 95.89 95.89h64.39a9.7 9.7 0 0 0 9.69-9.7V579.47a9.59 9.59 0 0 0-5.7-8.83 9.75 9.75 0 0 0-4.03-.88z"/><path fill="#FFF" d="M149.94 633.94v174.5a7.92 7.92 0 0 1-7.93 7.92H98.38a66.35 66.35 0 0 1-43.78-116.2l82.19-72.18a7.92 7.92 0 0 1 13.15 5.96z"/><path fill="#41E847" d="M335.34 579.46v257.47a11.7 11.7 0 0 0 11.7 11.69h64.38a97.89 97.89 0 0 0 64.6-171.44l-121.27-106.5c-7.56-6.64-19.4-1.28-19.4 8.78z"/><path fill="#231F20" d="M411.42 850.62h-64.39a13.7 13.7 0 0 1-13.69-13.7V579.47c0-5.45 3.09-10.23 8.05-12.48a13.54 13.54 0 0 1 14.68 2.19l121.27 106.5a99.9 99.9 0 0 1 33.97 75.06c0 55.08-44.8 99.89-99.89 99.89zm-64.35-280.87c-1.36 0-2.73.29-4.03.88a9.58 9.58 0 0 0-5.7 8.83v257.47a9.7 9.7 0 0 0 9.7 9.69h64.38c52.88 0 95.9-43.02 95.9-95.9a95.9 95.9 0 0 0-32.62-72.04l-121.27-106.5a9.61 9.61 0 0 0-6.36-2.43z"/><path fill="#FFF" d="M362.2 633.94v174.5a7.92 7.92 0 0 0 7.92 7.92h43.63a66.35 66.35 0 0 0 43.78-116.2l-82.19-72.18a7.92 7.92 0 0 0-13.15 5.96z"/><path fill="#41E847" d="M255.39 724.48c-85.52 0-154.84 69.33-154.84 154.84v121.17a63.03 63.03 0 0 0 63.03 63.03H347.2a63.03 63.03 0 0 0 63.03-63.03V879.32c0-85.51-69.32-154.84-154.83-154.84z"/><path fill="#231F20" d="M347.2 1065.52H163.57a65.1 65.1 0 0 1-65.03-65.03V879.32c0-86.48 70.36-156.84 156.84-156.84s156.83 70.36 156.83 156.84v121.17a65.1 65.1 0 0 1-65.03 65.03zm-91.81-339.04c-84.28 0-152.84 68.56-152.84 152.84v121.17a61.1 61.1 0 0 0 61.03 61.03H347.2a61.1 61.1 0 0 0 61.03-61.03V879.32c0-84.27-68.56-152.84-152.83-152.84z"/><path fill="#FFF" d="M238.11 1030.53v30.5a18.98 18.98 0 0 0 37.95 0v-30.5l-18.97-15.33-18.98 15.33z"/><circle fill="#FFF" cx="177.97" cy="952.73" r="28.03"/><circle fill="#FFF" cx="335.34" cy="952.73" r="28.03"/><path fill="#231F20" d="M177.97 924.7a28.03 28.03 0 0 1 0 56.06V924.7zm157.37 0a28.03 28.03 0 0 1 0 56.06V924.7zm-78.69-89.3c-22.9 0-43.27-12.65-53.15-33l-27.33-56.33 3.6-1.74 27.33 56.32c9.2 18.96 28.19 30.74 49.56 30.74 21.36 0 40.35-11.78 49.55-30.74l27.33-56.32 3.6 1.74-27.33 56.33c-9.88 20.35-30.24 33-53.16 33z"/><g fill="#231F20"><path d="M228.7 1033.42a29.99 29.99 0 0 1-29.95-29.95 2 2 0 0 1 4 0 25.98 25.98 0 0 0 25.95 25.95 25.98 25.98 0 0 0 25.96-25.95 2 2 0 0 1 4 0 29.99 29.99 0 0 1-29.96 29.95z"/><path d="M284.6 1033.42a29.99 29.99 0 0 1-29.94-29.95 2 2 0 0 1 4 0c0 14.31 11.64 25.95 25.95 25.95s25.95-11.64 25.95-25.95a2 2 0 0 1 4 0 29.99 29.99 0 0 1-29.95 29.95z"/></g><path fill="#FFF" d="m280.85 973.73-15.48 24.9a10.26 10.26 0 0 1-17.43 0l-15.47-24.9a10.26 10.26 0 0 1 8.71-15.67h30.95c8.05 0 12.96 8.84 8.72 15.67z"/><path fill="none" d="m153.3 284.16-2.42 2.42a12.42 12.42 0 0 0 0 17.57l30.88 30.88a12.42 12.42 0 0 0 17.57 0l3.2-3.2a12.42 12.42 0 0 0 0-17.57l-30.89-30.88-.39-.35c-1.5.72-3.19 1.13-4.97 1.13H153.3zm154.95 30.1a12.42 12.42 0 0 0 0 17.57l3.2 3.2a12.42 12.42 0 0 0 17.56 0l30.89-30.88a12.42 12.42 0 0 0 0-17.57l-2.43-2.42h-10.44c-2.4 0-4.63-.73-6.49-1.97-.49.36-.97.75-1.4 1.2l-30.89 30.87z"/><path fill="#41E847" d="M177.97 180.74V14.99c0-10.05-11.85-15.42-19.4-8.78L37.28 112.7A97.89 97.89 0 0 0 4 186.28c0 54.06 43.83 97.89 97.89 97.89h1.71a155.03 155.03 0 0 1 74.37-103.42z"/><path fill="#231F20" d="M105.24 286.16h-3.35c-55.08 0-99.9-44.81-99.9-99.9a99.9 99.9 0 0 1 33.98-75.05L157.24 4.71c4.1-3.6 9.72-4.44 14.68-2.19A13.54 13.54 0 0 1 179.97 15v166.9l-1 .58a152.9 152.9 0 0 0-73.4 102.08l-.33 1.6zm61-280.88a9.6 9.6 0 0 0-6.36 2.43L38.61 114.22A95.9 95.9 0 0 0 6 186.27c0 52.87 43.02 95.89 95.89 95.89h.08a156.91 156.91 0 0 1 74-102.57V15a9.58 9.58 0 0 0-5.7-8.82 9.75 9.75 0 0 0-4.03-.88z"/><path fill="#41E847" d="M476.02 112.72 354.75 6.2c-7.56-6.64-19.4-1.27-19.4 8.78v167.25a155 155 0 0 1 71.82 101.92h4.25c54.06 0 97.9-43.83 97.9-97.9a97.9 97.9 0 0 0-33.3-73.54z"/><path fill="#231F20" d="M411.42 286.16h-5.88l-.33-1.6a153.21 153.21 0 0 0-70.9-100.6l-.97-.6V15c0-5.44 3.09-10.22 8.05-12.47a13.54 13.54 0 0 1 14.68 2.19l121.27 106.5a99.9 99.9 0 0 1 33.97 75.06c0 55.08-44.8 99.89-99.89 99.89zm-2.62-4h2.62c52.88 0 95.9-43.02 95.9-95.9a95.9 95.9 0 0 0-32.62-72.04L353.43 7.72c-2.9-2.55-6.88-3.14-10.4-1.55s-5.69 4.97-5.69 8.82v166.13a157.26 157.26 0 0 1 71.46 101.04z"/><path fill="#FFF" d="M149.94 69.48v174.5a7.92 7.92 0 0 1-7.93 7.92H98.38A66.35 66.35 0 0 1 54.6 135.7l82.19-72.18a7.92 7.92 0 0 1 13.15 5.96zm212.26 0v174.5a7.92 7.92 0 0 0 7.92 7.92h43.63a66.35 66.35 0 0 0 43.78-116.2l-82.19-72.18a7.92 7.92 0 0 0-13.15 5.96z"/><path fill="#41E847" d="M255.39 160.02c-85.52 0-154.84 69.32-154.84 154.84v121.17a63.03 63.03 0 0 0 63.03 63.03H347.2a63.03 63.03 0 0 0 63.03-63.03V314.86c0-85.52-69.32-154.84-154.83-154.84zm-52.87 171.81-3.2 3.2a12.42 12.42 0 0 1-17.56 0l-30.88-30.88a12.42 12.42 0 0 1 0-17.57l3.2-3.2a12.42 12.42 0 0 1 17.56 0l30.88 30.89a12.42 12.42 0 0 1 0 17.56zm157.38-27.68-30.88 30.88a12.42 12.42 0 0 1-17.57 0l-3.2-3.2a12.42 12.42 0 0 1 0-17.57l30.88-30.88a12.42 12.42 0 0 1 17.57 0l3.2 3.2a12.42 12.42 0 0 1 0 17.57z"/><circle fill="#FFF" cx="177.97" cy="388.27" r="28.03"/><circle fill="#FFF" cx="335.34" cy="388.27" r="28.03"/><path fill="#231F20" d="M177.97 360.24a28.03 28.03 0 0 1 0 56.06v-56.06zm157.37 0a28.03 28.03 0 0 1 0 56.06v-56.06zm-78.69-89.31c-22.9 0-43.27-12.64-53.15-33l-27.33-56.32 3.6-1.74 27.33 56.32c9.2 18.96 28.19 30.74 49.56 30.74 21.36 0 40.35-11.78 49.55-30.74l27.33-56.32 3.6 1.74-27.33 56.33c-9.88 20.35-30.24 32.99-53.16 32.99z"/><g fill="#231F20"><path d="M228.7 468.96a2 2 0 0 1 0-4 25.98 25.98 0 0 0 25.96-25.95 2 2 0 0 1 4 0 29.99 29.99 0 0 1-29.96 29.95z"/><path d="M284.6 468.96a29.99 29.99 0 0 1-29.94-29.95 2 2 0 0 1 4 0 25.98 25.98 0 0 0 25.95 25.95 2 2 0 0 1 0 4z"/></g><g fill="#231F20"><path d="M228.7 468.96a2 2 0 0 1 0-4 25.98 25.98 0 0 0 25.96-25.95 2 2 0 0 1 4 0 29.99 29.99 0 0 1-29.96 29.95z"/><path d="M284.6 468.96a29.99 29.99 0 0 1-29.94-29.95 2 2 0 0 1 4 0 25.98 25.98 0 0 0 25.95 25.95 2 2 0 0 1 0 4z"/></g><path fill="#231F20" d="M347.2 501.06H163.57a65.1 65.1 0 0 1-65.03-65.03V314.86c0-86.48 70.36-156.84 156.84-156.84s156.83 70.36 156.83 156.84v121.17a65.1 65.1 0 0 1-65.03 65.03zm-91.81-339.04c-84.28 0-152.84 68.56-152.84 152.84v121.17a61.1 61.1 0 0 0 61.03 61.03H347.2a61.1 61.1 0 0 0 61.03-61.03V314.86c0-84.28-68.56-152.84-152.83-152.84z"/><path fill="#FFF" d="m280.85 409.27-15.48 24.9a10.26 10.26 0 0 1-17.43 0l-15.47-24.9a10.26 10.26 0 0 1 8.71-15.68h30.95c8.05 0 12.96 8.85 8.72 15.68z"/><path fill="#41E847" d="M902.03 579.46v257.47a11.7 11.7 0 0 0 11.7 11.69h64.38a97.89 97.89 0 0 0 64.6-171.44l-121.27-106.5c-7.56-6.64-19.4-1.28-19.4 8.78z"/><path fill="#231F20" d="M978.11 850.62h-64.39a13.7 13.7 0 0 1-13.69-13.7V579.47c0-5.45 3.08-10.23 8.05-12.48a13.54 13.54 0 0 1 14.68 2.19l121.27 106.5a99.9 99.9 0 0 1 33.97 75.06c0 55.08-44.81 99.89-99.89 99.89zm-64.36-280.87c-1.35 0-2.72.29-4.02.88a9.58 9.58 0 0 0-5.7 8.83v257.47a9.7 9.7 0 0 0 9.7 9.69h64.38c52.88 0 95.9-43.02 95.9-95.9a95.9 95.9 0 0 0-32.62-72.04l-121.27-106.5a9.6 9.6 0 0 0-6.37-2.43z"/><path fill="#FFF" d="M930.06 633.94v174.5a7.92 7.92 0 0 0 7.93 7.92h43.63a66.35 66.35 0 0 0 43.78-116.2l-82.19-72.18a7.92 7.92 0 0 0-13.15 5.96z"/><path fill="#41E847" d="M744.66 579.46v257.47a11.7 11.7 0 0 1-11.7 11.69h-64.38a97.89 97.89 0 0 1-64.6-171.44l121.27-106.5c7.56-6.64 19.4-1.28 19.4 8.78z"/><path fill="#231F20" d="M732.97 850.62h-64.4c-55.07 0-99.88-44.81-99.88-99.9a99.9 99.9 0 0 1 33.97-75.04l121.27-106.51c4.1-3.6 9.72-4.44 14.68-2.19a13.54 13.54 0 0 1 8.05 12.48v257.47a13.7 13.7 0 0 1-13.7 13.69zm-.04-280.87a9.6 9.6 0 0 0-6.36 2.42L605.3 678.68a95.9 95.9 0 0 0-32.61 72.05c0 52.87 43.02 95.89 95.89 95.89h64.39a9.7 9.7 0 0 0 9.69-9.7V579.47a9.76 9.76 0 0 0-9.72-9.7z"/><path fill="#FFF" d="M717.8 633.94v174.5a7.92 7.92 0 0 1-7.91 7.92h-43.64a66.35 66.35 0 0 1-43.78-116.2l82.19-72.18a7.92 7.92 0 0 1 13.15 5.96z"/><path fill="#41E847" d="M824.61 724.48c85.52 0 154.84 69.33 154.84 154.84v121.17a63.03 63.03 0 0 1-63.03 63.03H732.8a63.03 63.03 0 0 1-63.03-63.03V879.32c0-85.51 69.32-154.84 154.83-154.84z"/><path fill="#231F20" d="M916.42 1065.52H732.8a65.1 65.1 0 0 1-65.03-65.03V879.32c0-86.48 70.35-156.84 156.83-156.84 86.48 0 156.84 70.36 156.84 156.84v121.17a65.1 65.1 0 0 1-65.03 65.03zm-91.8-339.04c-84.28 0-152.84 68.56-152.84 152.84v121.17a61.1 61.1 0 0 0 61.03 61.03h183.6a61.1 61.1 0 0 0 61.04-61.03V879.32c0-84.27-68.56-152.84-152.84-152.84z"/><circle fill="#FFF" cx="902.03" cy="952.73" r="28.03"/><circle fill="#FFF" cx="744.66" cy="952.73" r="28.03"/><path fill="#231F20" d="M902.03 924.7a28.03 28.03 0 0 0 0 56.06V924.7zm-157.37 0a28.03 28.03 0 0 0 0 56.06V924.7zm78.69-89.3c-22.92 0-43.28-12.65-53.16-33l-27.33-56.33 3.6-1.74 27.33 56.32c9.2 18.96 28.19 30.74 49.56 30.74 21.36 0 40.35-11.78 49.55-30.74l27.33-56.32 3.6 1.74-27.33 56.33c-9.88 20.35-30.25 33-53.15 33z"/><g fill="#231F20"><path d="M851.3 1033.42a29.99 29.99 0 0 1-29.96-29.95 2 2 0 0 1 4 0 25.98 25.98 0 0 0 25.96 25.95 25.98 25.98 0 0 0 25.95-25.95 2 2 0 0 1 4 0 29.99 29.99 0 0 1-29.95 29.95z"/><path d="M795.4 1033.42a29.99 29.99 0 0 1-29.96-29.95 2 2 0 0 1 4 0c0 14.31 11.64 25.95 25.95 25.95s25.95-11.64 25.95-25.95a2 2 0 0 1 4 0 29.99 29.99 0 0 1-29.95 29.95z"/></g><path fill="#FFF" d="m799.15 973.73 15.48 24.9a10.26 10.26 0 0 0 17.43 0l15.47-24.9a10.26 10.26 0 0 0-8.71-15.67h-30.95a10.26 10.26 0 0 0-8.72 15.67z"/><path fill="#41E847" d="M712.52 915.77h73.41v36.96h-73.41zm157.53 0h73.41v36.96h-73.41z"/><path fill="#231F20" d="M671.93 286.16h-3.35c-55.08 0-99.9-44.81-99.9-99.9a99.9 99.9 0 0 1 33.98-75.05L723.93 4.71c4.1-3.6 9.72-4.44 14.68-2.19A13.54 13.54 0 0 1 746.66 15v166.9l-1 .58a152.9 152.9 0 0 0-73.41 102.08l-.32 1.6zm61-280.88a9.6 9.6 0 0 0-6.36 2.43L605.3 114.22a95.9 95.9 0 0 0-32.61 72.05c0 52.87 43.02 95.89 95.89 95.89h.08a156.91 156.91 0 0 1 74-102.57V15a9.58 9.58 0 0 0-5.7-8.82 9.76 9.76 0 0 0-4.03-.88zm245.18 280.88h-5.88l-.33-1.6a153.21 153.21 0 0 0-70.9-100.6l-.97-.6V15c0-5.44 3.08-10.22 8.05-12.47a13.54 13.54 0 0 1 14.68 2.19l121.27 106.5a99.9 99.9 0 0 1 33.97 75.06c0 55.08-44.81 99.89-99.89 99.89zm-2.62-4h2.62c52.87 0 95.89-43.02 95.89-95.9a95.9 95.9 0 0 0-32.61-72.04L920.12 7.72a9.59 9.59 0 0 0-10.4-1.55 9.58 9.58 0 0 0-5.69 8.82v166.13a157.26 157.26 0 0 1 71.46 101.04z"/><circle fill="#FFF" cx="900.76" cy="371.97" r="28.03"/><circle fill="#FFF" cx="743.39" cy="371.97" r="28.03"/><path fill="#231F20" d="M900.76 343.94a28.03 28.03 0 0 0 0 56.06v-56.06zm-157.37 0a28.03 28.03 0 0 0 0 56.06v-56.06z"/><path fill="#41E847" d="M766.5 323.89h-43.68a12.42 12.42 0 0 1-12.42-12.42v-4.52c0-6.86 5.56-12.43 12.42-12.43h43.67c6.87 0 12.43 5.57 12.43 12.43v4.52c0 6.86-5.56 12.42-12.43 12.42zm157.37 0h-43.68a12.42 12.42 0 0 1-12.42-12.42v-4.52c0-6.86 5.56-12.43 12.42-12.43h43.68c6.86 0 12.42 5.57 12.42 12.43v4.52c0 6.86-5.56 12.42-12.42 12.42zm-24.29-143.15-26.15 56.32c-20.62 42.49-82.09 42.49-102.7 0l-26.16-56.32s34.92-21.1 77.5-20.72c0 0 34.86-1.66 77.51 20.72z"/><path fill="#231F20" d="M822.08 270.93c-22.91 0-43.28-12.64-53.16-33L742 179.97l1.54-.93c.35-.21 35.27-21.01 77.4-21.01h1.1c2.13-.1 36.3-1.18 78.47 20.95l1.69.88-26.95 58.05c-9.9 20.39-30.26 33.03-53.17 33.03zm-74.92-89.36 25.38 54.65c9.18 18.93 28.17 30.7 49.54 30.7 21.36 0 40.35-11.77 49.55-30.73l25.33-54.56a183.88 183.88 0 0 0-52.32-17.65c-13.7-2.33-22.39-1.96-22.47-1.96h-1.23c-36.07 0-66.67 15.62-73.78 19.55z"/><path fill="#FFF" d="M716.63 201.5V69.48a7.92 7.92 0 0 0-13.16-5.96l-82.19 72.19a66.35 66.35 0 0 0 43.78 116.2h15.53a155.22 155.22 0 0 1 36.04-50.4zm307.59-65.8-82.19-72.18a7.92 7.92 0 0 0-13.15 5.95v133.3a155.18 155.18 0 0 1 34.68 49.13h16.88a66.35 66.35 0 0 0 43.78-116.2z"/><path fill="#231F20" d="M913.88 501.06h-183.6a65.1 65.1 0 0 1-65.04-65.03V314.86a156.03 156.03 0 0 1 13.52-63.77 156.3 156.3 0 0 1 36.5-51.05 157.67 157.67 0 0 1 28.4-21.03 156.8 156.8 0 0 1 78.42-20.99 156.58 156.58 0 0 1 108.18 43.31 156.33 156.33 0 0 1 45.56 82.43 158.04 158.04 0 0 1 3.1 31.1v121.17a65.1 65.1 0 0 1-65.04 65.03zm-91.8-339.04c-26.87 0-53.3 7.07-76.42 20.45a153.61 153.61 0 0 0-27.67 20.5 152.32 152.32 0 0 0-48.75 111.89v121.17a61.1 61.1 0 0 0 61.03 61.03h183.61a61.1 61.1 0 0 0 61.03-61.03V314.86a152 152 0 0 0-13.18-62.14 152.37 152.37 0 0 0-34.23-48.5 152.58 152.58 0 0 0-105.43-42.2z"/><path fill="#41E847" d="m806.54 452.01-11.15 23.41-11.15-23.41 11.14 1.63zm55.91 0-11.15 23.41-11.15-23.41 11.28 1.63z"/><path fill="#231F20" d="M879.25 423.04a2 2 0 0 0-2 2 25.98 25.98 0 0 1-25.95 25.95 25.98 25.98 0 0 1-25.94-25.24h.01v-10.92h-4.02v10.2c0 14.32-11.65 25.96-25.96 25.96s-25.95-11.65-25.95-25.95a2 2 0 0 0-4 0 29.99 29.99 0 0 0 29.95 29.95 30 30 0 0 0 27.95-19.21 30 30 0 0 0 27.96 19.2 29.99 29.99 0 0 0 29.95-29.94 2 2 0 0 0-2-2z"/><path fill="#FFF" d="m799.15 407.86 15.48-24.9a10.26 10.26 0 0 1 17.43 0l15.47 24.9a10.26 10.26 0 0 1-8.71 15.68h-30.95a10.26 10.26 0 0 1-8.72-15.68z"/><path d="M565.7 376.17a32.33 32.33 0 0 1 32.34-32.32 32.33 32.33 0 0 1-32.33-32.32 32.32 32.32 0 0 1-32.33 32.32 32.32 32.32 0 0 1 32.33 32.32zm441.6 197.65a32.32 32.32 0 0 1 32.34-32.32 32.33 32.33 0 0 1-32.33-32.33 32.33 32.33 0 0 1-32.33 32.33 32.32 32.32 0 0 1 32.33 32.32zM513.87 931.8a32.32 32.32 0 0 1 32.33-32.32 32.33 32.33 0 0 1-32.33-32.33 32.33 32.33 0 0 1-32.32 32.33 32.32 32.32 0 0 1 32.32 32.32z" fill="#41E847"/><circle fill="#41E847" cx="489.51" cy="512.37" r="9.23"/><circle fill="#41E847" cx="39.8" cy="988.98" r="9.23"/><circle fill="#41E847" cx="846.2" cy="83.2" r="9.23"/><circle fill="#41E847" cx="44.32" cy="40.28" r="9.23"/><circle fill="#41E847" cx="69.17" cy="573.56" r="9.23"/><circle fill="#41E847" cx="595.67" cy="1004.79" r="9.23"/><circle fill="#41E847" cx="559.43" cy="582.3" r="9.23"/></svg>