<svg xmlns="http://www.w3.org/2000/svg" xmlns:xlink="http://www.w3.org/1999/xlink" xml:space="preserve" viewBox="0 0 1920 1080"><path fill="#41E847" d="M228.001 530.248 376.583 322.75l148.583 207.498z"/><path fill="#41E847" d="m95.13 530.248 68.429-95.562 68.429 95.562z"/><path d="M1746.591 528.819H1920v4h-173.409z"/><path fill="#FFF" d="M548.135 63.17v665.652c0 20.179 16.359 36.538 36.538 36.538h1126.445c20.18 0 36.538-16.359 36.538-36.538V63.17H548.135zm901.529 4.053h195.604v112.231h-195.604V67.223zM650.87 300.349h195.604v111.765H650.87V300.349zm-98.476-4.565V184.02h195.604v111.765H552.394zm794.415 0h-195.225V184.02h195.225v111.764zm98.475 4.565v111.765H1250.06V300.349h195.224zm-199.603 0v111.765h-195.224V300.349h195.224zm-98.476-4.565H951.98V184.02h195.225v111.764zm-101.128 4.565v111.765H850.853V300.349h195.224zm-98.476-4.565H752.376V184.02h195.225v111.764zM747.997 416.775v112.232H552.394V416.775h195.603zM650.87 533.007h195.603V645.24H650.87V533.007zm101.506-4V416.775h195.225v112.232H752.376zm98.477 4h195.224V645.24H850.853V533.007zm101.127-4V416.775h195.225v112.232H951.98zm98.477 4h195.224V645.24h-195.224V533.007zm101.127-4V416.775h195.225v112.232h-195.225zm98.477 4h195.224V645.24h-195.224V533.007zm101.127-4V416.775h195.604v112.232H1351.188zm98.476 4H1645.268V645.24h-195.604V533.007zm0-120.893V300.349h195.604v111.765h-195.604zm97.128-116.33h-195.604V184.02h195.604v111.764zM1250.061 67.223h195.224v112.231h-195.224V67.223zm-199.604 0h195.224v112.231h-195.224V67.223zm-199.604 0h195.224v112.231H850.853V67.223zm-199.983 0h195.604v112.231H650.87V67.223zm-98.735-.053h94.735v112.382h-94.735V67.17zm0 233.179h94.735v112.329h-94.735V300.349zm0 232.658h94.735v112.329h-94.735V533.007zm1191.521 195.814c0 17.942-14.597 32.538-32.538 32.538H584.673c-17.942 0-32.538-14.596-32.538-32.538v-79.485h1191.521v79.485zm0-83.485h-94.388V533.007h94.388v112.329zm0-116.329h-192.864V416.678h192.864v112.329zm0-116.329h-94.388V300.349h94.388v112.329zm0-116.329h-94.388v-.468h-98.476V184.02h192.864v112.329zm0-116.329h-94.388V67.17h94.388v112.85z"/><path d="M1713.968 0H581.735c-18.557 0-33.6 15.043-33.6 33.6v33.95h1199.433V33.6c0-18.557-15.044-33.6-33.6-33.6zM631.146 52.773c-9.636 0-17.448-7.812-17.448-17.448s7.812-17.448 17.448-17.448 17.448 7.812 17.448 17.448c0 9.637-7.812 17.448-17.448 17.448z"/><circle cx="678.075" cy="35.326" r="17.448" fill="#FFF"/><circle cx="584.218" cy="35.326" r="17.448" fill="#41E847"/><path d="M689.036 379.125c0-88.573 71.803-160.376 160.376-160.376s160.376 71.803 160.376 160.376v386.258H689.036V379.125z"/><path fill="#41E847" d="M1416.106 900.513H863.448V864.49c0-37.581 30.465-68.046 68.046-68.046h484.612v104.069z"/><path d="M1418.106 902.513H861.449V864.49c0-38.623 31.422-70.046 70.046-70.046h486.612v108.069zm-552.657-4h548.658V798.444H931.494c-36.418 0-66.046 29.628-66.046 66.046v34.023z"/><path fill="#FFF" d="M1385.52 781.981h-212.219V656.962h212.219v125.019zm-208.218-4h204.219V660.962h-204.219v117.019z"/><path fill="#FFF" d="M1593.344 781.981h-212.219V656.962h212.219v125.019zm-208.218-4h204.219V660.962h-204.219v117.019zM938.127 532.34c12.428-17.97 21.104-38.305 25.119-59.782 12.7-67.921 72.298-119.328 143.904-119.328 71.193 0 130.518 50.817 143.68 118.157 4.314 22.074 13.195 43.003 26.212 61.345l1.309 1.845c8.181 11.528 9.41 26.323 3.802 38.809-5.61 12.491-11.031 25.067-15.733 37.928l-12.868 35.199H962.789l-1.446-3.851c-8.806-23.446-17.712-46.881-28.084-69.677-5.626-12.365-4.535-27.05 3.45-38.596l1.418-2.049z"/><path fill="#41E847" d="M1048.215 546.413h117.298v124.354h-117.298z"/><path d="M1167.513 672.767h-121.298V544.413h121.298v128.354zm-117.297-4h113.298V548.413h-113.298v120.354z"/><defs><path id="a" d="M1221.39 468.982c-1.527.013-3.029.12-4.51.298-14.202-47.626-58.516-82.182-110.706-81.763-52.194.418-95.951 35.677-109.389 83.525a39.952 39.952 0 0 0-4.507-.224c-21.969.174-39.635 18.127-39.459 40.095.176 21.97 18.128 39.634 40.096 39.458a39.862 39.862 0 0 0 9.689-1.275c18.084 40.118 58.57 67.903 105.405 67.529 46.833-.376 86.869-28.805 104.309-69.209a39.907 39.907 0 0 0 9.71 1.119c21.967-.175 39.631-18.126 39.456-40.094-.178-21.969-18.128-39.635-40.094-39.459z"/></defs><defs><path id="b" d="M1107.086 618.629c-45.251.003-86.45-26.244-105.616-67.207a42.063 42.063 0 0 1-8.539.95c-11.163.12-21.686-4.172-29.64-11.999-7.954-7.827-12.383-18.283-12.473-29.443-.089-11.159 4.173-21.686 12-29.64s18.284-12.384 29.443-12.472c.979-.009 2.012.021 3.058.092 6.881-23.188 21.181-44.09 40.4-58.997 20.311-15.754 44.668-24.189 70.438-24.396.322-.003.646-.004.969-.004 25.413 0 49.544 8.035 69.846 23.269 19.455 14.598 34.087 35.268 41.339 58.343a41.304 41.304 0 0 1 3.061-.144h.002c23.021-.205 41.923 18.407 42.108 41.444.184 23.036-18.406 41.926-41.44 42.109a42.28 42.28 0 0 1-8.556-.812c-18.634 41.547-59.848 68.536-105.464 68.902-.309.003-.627.005-.936.005zm-103.354-71.891.693 1.537c18.205 40.388 58.433 66.354 102.66 66.354.302 0 .603-.001.905-.004 44.584-.357 84.813-27.05 102.489-68.001l.668-1.547 1.638.396c3.017.729 6.123 1.109 9.225 1.062 20.827-.166 37.638-17.247 37.472-38.078-.167-20.728-17.082-37.477-37.77-37.477l-.308.001a39.383 39.383 0 0 0-4.287.284l-1.673.201-.482-1.615c-6.827-22.897-21.172-43.449-40.391-57.87-19.603-14.708-42.906-22.468-67.446-22.468-.312 0-.623.001-.937.004-24.886.199-48.406 8.345-68.018 23.557-18.986 14.726-33.001 35.505-39.461 58.51l-.456 1.623-1.678-.175a38.108 38.108 0 0 0-4.282-.214c-10.092.08-19.548 4.085-26.626 11.277-7.078 7.192-10.931 16.711-10.851 26.803.081 10.091 4.086 19.546 11.278 26.624 7.192 7.077 16.725 10.931 26.802 10.85a37.99 37.99 0 0 0 9.202-1.211l1.634-.423z"/></defs><use xlink:href="#a" fill="#41E847" overflow="visible"/><use xlink:href="#b" overflow="visible"/><clipPath id="c"><use xlink:href="#a" overflow="visible"/></clipPath><path d="M996.965 528.559a1.995 1.995 0 0 1-1.461-.634L970.896 501.6a2 2 0 1 1 2.922-2.732l24.607 26.325a2 2 0 0 1-1.46 3.366zM1212.835 526.83a2 2 0 0 1-1.482-3.342l24.184-26.719a2 2 0 1 1 2.965 2.683l-24.184 26.719a1.986 1.986 0 0 1-1.483.659zM1087.985 512.24h-60.369a2 2 0 0 0 0 4h5.909c1.017 7.418 7.395 13.108 15.08 13.046 7.599-.062 13.83-5.73 14.835-13.046h24.545a2 2 0 0 0 0-4zM1186.684 512.24h-60.369a2 2 0 0 0 0 4h2.59c.905 7.542 7.348 13.359 15.12 13.297 7.69-.062 13.98-5.858 14.875-13.297h27.785a2 2 0 0 0-.001-4zM1109.056 413.281h-3.812c-5.523 0-10-4.477-10-10v-39.972c0-5.523 4.477-10 10-10h3.812c5.523 0 10 4.477 10 10v39.972c0 5.523-4.477 10-10 10z"/><path fill="#41E847" d="M1212.538 796.125H901.545l31.751-119.277c4.675-17.87 20.82-30.334 39.292-30.334h280.679l-40.729 149.611z"/><path d="M1214.066 798.125H898.944l32.42-121.792c4.9-18.731 21.854-31.819 41.225-31.819h283.296l-41.819 153.611zm-309.918-4h306.862l39.641-145.611H972.589c-17.553 0-32.915 11.859-37.357 28.84l-31.084 116.771z"/><path fill="#41E847" d="M934.297 796.444H831.991c-39.128 0-70.848 31.72-70.848 70.848v33.221h102.305v-33.221c0-39.128 31.72-70.848 70.849-70.848z"/><path d="M865.449 902.513H759.143v-35.221c0-40.169 32.68-72.849 72.849-72.849h102.305v4c-37.963 0-68.848 30.886-68.848 68.849v35.221zm-102.306-4h98.306v-31.221c0-31.831 20.518-58.958 49.024-68.849h-78.481c-37.963 0-68.849 30.886-68.849 68.849v31.221z"/><path fill="#41E847" d="M1130.088 796.444h-102.305c-39.128 0-70.848 31.72-70.848 70.848v33.221h102.305v-33.221c0-39.128 31.719-70.848 70.848-70.848z"/><path d="M1061.24 902.513H954.934v-35.221c0-40.169 32.68-72.849 72.848-72.849h102.306v4c-37.963 0-68.848 30.886-68.848 68.849v35.221zm-102.306-4h98.306v-31.221c0-31.831 20.518-58.958 49.024-68.849h-78.482c-37.963 0-68.848 30.886-68.848 68.849v31.221z"/><path d="M988.745 902.513a2 2 0 0 1-2-2v-33.221c0-9.832 1.927-19.373 5.727-28.357a2 2 0 1 1 3.683 1.559c-3.59 8.488-5.41 17.505-5.41 26.799v33.221a2 2 0 0 1-2 1.999zM1023.104 902.513a2 2 0 0 1-2-2v-33.221c0-9.834 1.927-19.374 5.726-28.357a2 2 0 1 1 3.683 1.559c-3.589 8.487-5.409 17.503-5.409 26.799v33.221a2 2 0 0 1-2 1.999zM794.487 902.513a2 2 0 0 1-2-2v-33.221c0-9.834 1.926-19.374 5.726-28.357a2.002 2.002 0 0 1 2.621-1.062 1.999 1.999 0 0 1 1.063 2.621c-3.589 8.487-5.409 17.503-5.409 26.799v33.221a2.001 2.001 0 0 1-2.001 1.999zM828.846 902.513a2 2 0 0 1-2-2v-33.221c0-9.834 1.926-19.375 5.726-28.357a2 2 0 1 1 3.683 1.559c-3.589 8.486-5.41 17.503-5.41 26.799v33.221a1.998 1.998 0 0 1-1.999 1.999z"/><path fill="#41E847" d="M1514.365 796.444h-161.302c-37.581 0-68.046 30.465-68.046 68.046v36.023h349.077c21.948 0 39.741-17.793 39.741-39.741 0 0 .341-128.326.341-130.989 0-46.21-39.788-83.27-85.999-83.27h-334.644l-40.837 149.93h141.764"/><path d="M1634.094 902.513h-351.078V864.49c0-30.441 19.521-56.409 46.7-66.046H1210.08l41.925-153.93h336.172c23.036 0 44.952 8.829 61.711 24.86 16.952 16.217 26.288 37.67 26.288 60.409 0 2.635-.338 129.71-.341 130.993.001 23.012-18.724 41.737-41.741 41.737zm-347.078-4h347.078c20.811 0 37.741-16.931 37.741-37.741.004-1.288.341-128.359.341-130.988 0-21.637-8.897-42.064-25.053-57.519-16.011-15.316-36.945-23.751-58.946-23.751h-333.115l-39.747 145.93h297.05a2 2 0 1 1 0 4h-159.303c-36.476 0-66.046 29.57-66.046 66.046v34.023z"/><path fill="#41E847" d="M1456.767 796.444h-102.305c-39.128 0-70.848 31.72-70.848 70.848v33.221h102.305v-33.221c0-39.128 31.72-70.848 70.848-70.848z"/><path d="M1387.919 902.513h-106.305v-35.221c0-40.169 32.68-72.849 72.848-72.849h102.306v4c-37.963 0-68.849 30.886-68.849 68.849v35.221zm-102.305-4h98.305v-31.221c0-31.831 20.519-58.958 49.024-68.849h-78.481c-37.963 0-68.848 30.886-68.848 68.849v31.221z"/><path d="M1315.425 902.513a2 2 0 0 1-2-2v-33.221c0-9.834 1.927-19.374 5.726-28.357a2 2 0 1 1 3.683 1.559c-3.589 8.487-5.409 17.503-5.409 26.799v33.221a2 2 0 0 1-2 1.999zM1349.784 902.513a2 2 0 0 1-2-2v-33.221c0-9.834 1.927-19.374 5.726-28.357a2 2 0 1 1 3.683 1.559c-3.589 8.487-5.409 17.503-5.409 26.799v33.221a2 2 0 0 1-2 1.999zM928.954 695.336h310.964v4H928.954zM915.025 747.548h310.211v4H915.025zM1231.26 724.442h-98.259a2 2 0 0 1 0-4h98.259a2 2 0 0 1 0 4zM1008.766 675.877h-73.412a2 2 0 0 1 0-4h73.412a2 2 0 0 1 0 4zM1021.284 724.442h-98.259a2 2 0 0 1 0-4h98.259a2 2 0 0 1 0 4zM1244.625 675.877h-73.412a2 2 0 0 1 0-4h73.412a2 2 0 0 1 0 4zM1218.366 775.83h-73.412a2 2 0 0 1 0-4h73.412a2 2 0 0 1 0 4zM982.508 774.983h-73.412a2 2 0 0 1 0-4h73.412a2 2 0 0 1 0 4zM1107.025 542.501a2 2 0 0 1-2-2v-38.188a2 2 0 0 1 4 0v38.188a2 2 0 0 1-2 2z"/><path fill="#FFF" d="M1085.566 571.619c0-11.643 9.439-21.082 21.082-21.082s21.082 9.439 21.082 21.082h-42.164z"/><path fill="#41E847" d="M1514.365 794.724c0-38.049 30.845-68.894 68.894-68.894"/><path d="M1512.389 798.394a2 2 0 0 1-2-2c0-39.091 31.803-70.894 70.894-70.894a2 2 0 0 1 0 4c-36.885 0-66.894 30.009-66.894 66.894a2 2 0 0 1-2 2z"/><path fill="#41E847" d="M1708.118 752.189v118.026c0 13.364 10.833 24.197 24.197 24.197h101.626c45.695 0 83.611 36.487 84.054 82.18.448 46.14-36.956 83.819-82.996 83.819h-446.118c-9.528 0-17.621-7.797-17.443-17.324.173-9.239 7.717-16.676 16.997-16.676h445.742c26.831 0 49.303-21.226 49.812-48.052.521-27.45-21.657-49.947-48.991-49.947h-102.685c-32.141 0-58.197-26.056-58.197-58.197V718.189c18.779 0 34.002 15.222 34.002 34z"/><path d="M1835 1062.411h-446.118c-5.217 0-10.323-2.153-14.008-5.908-3.599-3.666-5.528-8.444-5.435-13.453.192-10.277 8.715-18.639 18.997-18.639h445.742c25.881 0 47.33-20.676 47.812-46.09.241-12.711-4.538-24.718-13.457-33.808-8.923-9.094-20.832-14.102-33.534-14.102h-102.685c-33.192 0-60.197-27.004-60.197-60.197V716.189h2c19.851 0 36 16.149 36 36v118.026c0 12.239 9.958 22.197 22.197 22.197h101.626c46.999 0 85.604 37.754 86.055 84.16.222 22.833-8.524 44.362-24.626 60.621-16.105 16.262-37.544 25.218-60.369 25.218zm-446.564-34c-8.118 0-14.846 6.601-14.997 14.713-.074 3.927 1.449 7.684 4.289 10.577 2.938 2.993 7.003 4.71 11.153 4.71H1835c21.749 0 42.18-8.535 57.527-24.032 15.345-15.495 23.68-36.01 23.469-57.768-.43-44.222-37.239-80.199-82.055-80.199h-101.626c-14.445 0-26.197-11.752-26.197-26.197V752.189c0-16.973-13.283-30.902-30-31.938v149.965c0 30.987 25.21 56.197 56.197 56.197H1835c13.784 0 26.708 5.434 36.39 15.301 9.677 9.862 14.862 22.891 14.602 36.685-.524 27.577-23.768 50.014-51.812 50.014h-445.744z"/><path fill="#FFF" d="M1368.281 1080c-22.67 0-112.315-41.047-112.315-41.047s89.645-41.047 112.315-41.047 41.047 18.377 41.047 41.047-18.377 41.047-41.047 41.047z"/><path fill="#41E847" d="M1333.023 616.689c17.121 0 31-13.879 31-31 0-17.121-13.879-31-31-31v-.211c-16.609-.476-29.929-14.079-29.929-30.803 0-17.025 13.801-30.826 30.826-30.826v-.219h214.301c18.416 0 33.344 14.929 33.344 33.344 0 15.634-12.674 28.307-28.307 28.307h-48.505c7.38 1.189 13.022 7.569 13.022 15.284 0 8.56-6.939 15.5-15.5 15.5h-16.133c6.686 1.72 11.633 7.771 11.633 14.994 0 8.56-6.94 15.5-15.5 15.5h-16.133c6.686 1.72 11.633 7.771 11.633 14.994 0 8.56-6.94 15.5-15.5 15.5h-16.133c6.686 1.72 11.633 7.771 11.633 14.994 0 8.56-6.94 15.5-15.5 15.5h-109.252c-16.53 0-29.929-13.4-29.929-29.929 0-16.529 13.4-29.929 29.929-29.929z"/><path d="M1324.07 654.313a2 2 0 0 1-2-2v-6.212c0-6.708 5.457-12.165 12.165-12.165 26.61 0 48.259-21.648 48.259-48.258 0-26.61-21.648-48.259-48.259-48.259h-1.13c-7.02 0-12.729-5.71-12.729-12.729s5.71-12.729 12.729-12.729h217.118a2 2 0 0 1 0 4h-217.118c-4.813 0-8.729 3.916-8.729 8.729s3.916 8.729 8.729 8.729h1.13c28.815 0 52.259 23.442 52.259 52.258s-23.443 52.259-52.259 52.259c-4.502 0-8.165 3.663-8.165 8.165v6.212a2 2 0 0 1-2 2z"/><path d="M1548.22 490.631h-214.3c-.338 0-.656.084-.936.231-17.67.497-31.891 15.025-31.891 32.812 0 17.577 13.526 31.798 30.961 32.765.287.159.617.25.969.25 15.99 0 29 13.01 29 29s-13.01 29-29 29c-17.606 0-31.93 14.323-31.93 31.929 0 17.606 14.323 31.93 31.93 31.93h109.252c9.649 0 17.5-7.851 17.5-17.5 0-5.086-2.194-9.759-5.789-12.994h8.289c9.649 0 17.5-7.851 17.5-17.5 0-5.086-2.194-9.759-5.789-12.994h8.289c9.649 0 17.5-7.851 17.5-17.5 0-5.086-2.194-9.759-5.789-12.994h8.289c9.649 0 17.5-7.851 17.5-17.5 0-5.29-2.324-10.064-6.086-13.283h39.568c16.712 0 30.308-13.596 30.308-30.308 0-19.488-15.855-35.344-35.345-35.344zm5.038 61.651h-130.137a2 2 0 0 0 0 4h81.437a13.421 13.421 0 0 1 11.217 13.283c0 7.444-6.056 13.5-13.5 13.5h-67.578a2 2 0 0 0 0 4h51.157c5.851 1.608 9.921 6.915 9.921 12.994 0 7.444-6.056 13.5-13.5 13.5h-79.484a2 2 0 0 0 0 4h63.062c5.851 1.608 9.921 6.915 9.921 12.994 0 7.444-6.056 13.5-13.5 13.5H1400.248a2 2 0 0 0 0 4h45.604a13.478 13.478 0 0 1 9.921 12.994c0 7.444-6.056 13.5-13.5 13.5h-109.252c-15.4 0-27.93-12.529-27.93-27.93s12.529-27.929 27.93-27.929c18.196 0 33-14.804 33-33 0-17.889-14.308-32.498-32.08-32.987a1.99 1.99 0 0 0-.862-.223c-15.694-.449-27.987-13.102-27.987-28.805 0-15.895 12.932-28.825 28.826-28.825.328 0 .638-.079.91-.219h213.391c17.283 0 31.345 14.061 31.345 31.344.001 14.508-11.801 26.309-26.306 26.309z"/><path fill="#FFF" d="M321.287 305.319c0-10.845-8.511-19.678-19.214-20.247v-.055h-3.576c-3.18-15.315-16.749-26.825-33.007-26.825a33.69 33.69 0 0 0-10.213 1.579c.003-.249.019-.495.019-.745 0-34.095-27.639-61.734-61.734-61.734s-61.734 27.639-61.734 61.734c0 .25.016.496.019.745a33.69 33.69 0 0 0-10.213-1.579c-16.259 0-29.827 11.509-33.007 26.825h-3.576c-11.212 0-20.302 9.089-20.302 20.302 0 11.212 9.089 20.302 20.302 20.302h217.023v-.055c10.702-.568 19.213-9.402 19.213-20.247zM473.594 144.174c0-13.915-11.28-25.195-25.195-25.195a25.087 25.087 0 0 0-11.982 3.027c-4.683-14.622-18.382-25.21-34.558-25.21-20.04 0-36.286 16.246-36.286 36.286 0 3.475.499 6.832 1.411 10.014a13.481 13.481 0 0 0-4.586-.813c-7.479 0-13.543 6.063-13.543 13.543 0 7.479 6.063 13.543 13.543 13.543h89.622c12.198-1.757 21.574-12.51 21.574-25.195z"/><circle cx="221.455" cy="680.29" r="26.915" fill="#FFF"/><path fill="#FFF" d="m212.139 718.903.087-19.703 18.105.08-.087 19.702z"/><path d="M238.331 679.341a3.533 3.533 0 1 1-7.067.153 3.533 3.533 0 0 1 7.067-.153zM271.461 892.123l-22.889-63.451-.341-93.874c-.035-9.597-7.843-17.349-17.441-17.314l-19.688.071a17.32 17.32 0 0 0-12.351 5.225H177.53a6.372 6.372 0 0 0-6.372 6.372v71.962a6.372 6.372 0 0 0 6.372 6.372h16.521l.09 24.755h.078L166.212 964.04c-2.557 12.033 5.125 23.861 17.158 26.417 12.034 2.561 23.86-5.125 26.417-17.157l16.163-76.061 2.244 6.223-.72 68.786c-.129 12.301 9.739 22.376 22.039 22.506l.238.001c12.192 0 22.14-9.819 22.268-22.041l.762-72.801a22.267 22.267 0 0 0-1.32-7.79z"/><path fill="#FFF" d="M301.352 781.259a3.461 3.461 0 0 0 3.433-3.431c.012-1.374-.9-2.594-2.146-3.174-.674-.314-1.175-.346-1.666-.298l-1.96.016.073-.029s0-.016.005-.017a3.461 3.461 0 0 0 3.379-4.079c-.251-1.44-1.449-2.587-2.894-2.803a3.359 3.359 0 0 0-.864-.019l-7.062.103-.019-.142 5.832-1.517s-.004-.016.001-.016a3.464 3.464 0 0 0 2.303-4.749c-.409-.945-1.274-1.602-2.269-1.869-1.005-.27-1.548-.175-2.071.012l-13.92 3.604a9.76 9.76 0 0 0-6.18 3.895c-.708.801-2.149 2.209-3.71 2.455v.006l-29.582.601.085-33.832c.119-6.46-5.252-11.673-11.706-11.362a11.337 11.337 0 0 0-10.79 11.229l-.308 36.976a18.68 18.68 0 0 0 19.248 20.194l33.358-1.128v-.023c1.654.317 3.304.82 4.809 1.578 1.826.92 3.637 1.409 5.499 1.659 1.547.207 3.128.251 4.781.238l7.796-.061 2.241-.065s0-.017.004-.016a3.46 3.46 0 0 0 3.432-3.507c-.018-1.336-.907-2.479-2.108-3.065a3.898 3.898 0 0 0-.586-.23l1.409-.15s0-.016.004-.016a3.461 3.461 0 0 0 3.434-3.487 3.45 3.45 0 0 0-2.539-3.292l1.253-.171c-.003-.002-.003-.019.001-.018z"/><path d="m249.023 677.191-2.1.12c-1.004-5.791-6.052-10.213-12.126-10.213-6.793 0-12.319 5.526-12.319 12.319 0 .305.024.603.046.902l-4.98.564a6.86 6.86 0 0 0-4.681 2.63 6.854 6.854 0 0 0-1.386 5.184l.333 2.414a2 2 0 1 0 3.962-.547l-.333-2.415a2.891 2.891 0 0 1 .584-2.184 2.885 2.885 0 0 1 1.971-1.107l5.468-.62c1.88 4.403 6.252 7.498 11.335 7.498 6.146 0 11.24-4.528 12.158-10.421l2.296-.131a2 2 0 0 0 1.883-2.111 2.009 2.009 0 0 0-2.111-1.882zm-14.225 10.546c-4.587 0-8.319-3.732-8.319-8.319s3.732-8.319 8.319-8.319 8.319 3.732 8.319 8.319-3.732 8.319-8.319 8.319zM225.84 643.751c-.494.02-.974.091-1.439.196-.45-4.135-4.026-7.273-8.243-7.103a7.977 7.977 0 0 0-7.648 8.293c.015.371.064.732.127 1.087-.08.001-.158-.006-.238-.002a7.977 7.977 0 1 0 .645 15.941 7.927 7.927 0 0 0 4.119-1.354 7.94 7.94 0 0 0 5.134 1.608 7.952 7.952 0 0 0 5.883-2.97 7.977 7.977 0 1 0 1.66-15.696z"/><path fill="#41E847" d="M207.188 807.227h-8.359a2 2 0 0 1 0-4h8.359c.698 0 1.354-.272 1.846-.768a2.585 2.585 0 0 0 .758-1.852l-.398-68.887a2.001 2.001 0 0 1 1.988-2.012h.012a2 2 0 0 1 2 1.988l.398 68.888a6.564 6.564 0 0 1-1.922 4.695 6.556 6.556 0 0 1-4.682 1.948z"/><path fill="#FFF" d="M233.823 1010.507c-2.683-.018-4.283-1.412-4.267-3.803l2.487-20.646 35.162.534 25.708 18.531s.982.753.942 2.387c-.045 1.854-1.558 3.332-3.411 3.301l-56.621-.304z"/><path fill="#FFF" d="M172.082 1006.742c-2.683-.018-4.283-1.412-4.267-3.803l2.487-20.646 35.162.534 25.708 18.531s.982.753.942 2.387c-.045 1.854-1.558 3.332-3.411 3.301l-56.621-.304z"/><path d="M290.812 721.156a9.5 9.5 0 0 1 2.584 7.031l-1.949 39.346h4.005l1.939-39.148a13.464 13.464 0 0 0-3.664-9.967 13.469 13.469 0 0 0-9.717-4.281c-3.626-.035-7.054 1.319-9.652 3.85a13.482 13.482 0 0 0-4.104 9.547l-.119 8.938a2 2 0 0 0 1.974 2.026c1.095-.013 2.012-.869 2.026-1.974l.119-8.938a9.514 9.514 0 0 1 2.895-6.734c1.833-1.785 4.248-2.76 6.809-2.715a9.492 9.492 0 0 1 6.854 3.019zM290.064 795.318l-11.32 228.514a1.999 1.999 0 0 0 1.999 2.099 2 2 0 0 0 1.996-1.901l11.332-228.758-4.007.046z"/><path fill="#FFF" d="M1817.475 333.342a40.6 40.6 0 0 0-19.391 4.898c-7.272-22.704-27.986-39.353-52.776-40.669v117.32h78.026c19.742-2.842 34.915-20.246 34.915-40.774.001-22.519-18.255-40.775-40.774-40.775z"/><path d="M0 528.443h550.669v4H0z"/></svg>