<svg xmlns="http://www.w3.org/2000/svg" xmlns:xlink="http://www.w3.org/1999/xlink" xml:space="preserve" viewBox="0 0 1080 1080"><path d="M0 542.313h165.988v4H0zM1012.525 542.983H1080v4h-67.475z"/><path fill="#FFF" d="M165.344 51.044v197.053h-.091v102.241h.091v257.668c0 20.179 16.359 36.538 36.538 36.538h46.604v.097h173.029v-.097H754.61v.097h173.028v-.097h48.698c20.179 0 36.538-16.359 36.538-36.538V51.044h-847.53zm758.295 589.5H758.61V547.32h165.028v93.224zm-506.123 0h-165.03V547.32h165.029v93.224zm591.359-392.724h-81.236v-94.323h81.236v94.323zm-85.236 196.646H758.931V350.42h164.708v94.046zM169.344 252.097h164.617v94.047H169.344v-94.047zm670.741 290.692H675.697v-94.046h164.388v94.046zM421.516 153.497h164.387v94.24H421.516v-94.24zm333.094 94.24H590.223v-94.24H754.61v94.24zm-416.329 4.36h164.388v94.047H338.281v-94.047zm333.096 94.046H506.989v-94.047h164.388v94.047zm83.233 98.323H590.223V350.42H754.61v94.046zM585.902 350.42v94.046H421.516V350.42h164.386zm-247.621 98.323h164.388v94.046H338.281v-94.046zm168.708 0h164.388v94.046H506.989v-94.046zm333.096-102.6H675.697v-94.047h164.388v94.047zM671.838 149.335H507.45V55.094h164.388v94.241zM333.961 448.743v94.046H169.344v-94.046h164.617zm589.678-201.006H758.931v-94.24h164.708v94.24zm-82.773-98.402H676.158V55.094h164.708v94.241zM338.422 55.094H503.13v94.241H338.422V55.094zm78.772 98.403v94.24H252.486v-94.24h164.708zM248.486 247.82h-79.142v-94.323h79.142v94.323zm168.708 102.6v94.046H252.486V350.42h164.708zm591.681 192.369h-164.47v-94.046h164.47v94.046zm0-98.323h-81.236v-94.128h81.236v94.128zm0-98.323h-164.47v-94.047h164.47v94.047zm0-196.646H844.867V55.044h164.009v94.453zM334.422 55.044v94.453H169.344V55.044h165.078zm-85.936 295.294v94.128h-79.142v-94.128h79.142zm-46.604 290.206c-17.942 0-32.538-14.597-32.538-32.538v-61.023h79.142v93.561h-46.604zm219.634 0v-93.561H754.61v93.561H421.516zm554.821 0h-48.698v-93.561h81.236v61.023c0 17.941-14.597 32.538-32.538 32.538z"/><path d="M984.476 0H193.743c-15.684 0-28.399 12.715-28.399 28.399v27.695h847.531V28.399C1012.875 12.715 1000.16 0 984.476 0zM235.507 44.605c-8.145 0-14.747-6.603-14.747-14.747 0-8.145 6.603-14.747 14.747-14.747s14.747 6.603 14.747 14.747-6.603 14.747-14.747 14.747z"/><circle cx="275.171" cy="29.858" r="14.747" fill="#FFF"/><circle cx="195.842" cy="29.858" r="14.747" fill="#41E847"/><path d="M284.436 318.093c0-74.863 60.689-135.552 135.552-135.552S555.54 243.23 555.54 318.093v326.471H284.436V318.093z"/><path fill="#41E847" d="M766.693 852.21H307.389v-38.791c0-26.343 21.355-47.699 47.699-47.699h411.605v86.49z"/><path d="M768.692 854.211H305.39v-40.792c0-27.403 22.295-49.698 49.698-49.698h413.604v90.49zm-459.302-4h455.303v-82.49H355.088c-25.198 0-45.698 20.5-45.698 45.698v36.792z"/><path fill="#FFF" d="M369.453 546.229c10.329-14.934 17.539-31.835 20.876-49.684 10.554-56.448 60.086-99.171 119.596-99.171 59.168 0 108.471 42.233 119.41 98.198 3.586 18.345 10.966 35.739 21.784 50.983l1.088 1.533a32.638 32.638 0 0 1 3.16 32.253c-4.662 10.381-9.168 20.833-13.076 31.521l-10.694 29.253H389.95l-1.202-3.2c-7.318-19.485-14.72-38.962-23.34-57.907a32.64 32.64 0 0 1 2.867-32.076l1.178-1.703z"/><path fill="#41E847" d="M460.946 557.925h97.484v103.348h-97.484z"/><path d="M560.43 663.273H458.945V555.925H560.43v107.348zm-97.485-4h93.484v-99.349h-93.484v99.349z"/><defs><path id="a" d="M604.867 493.574c-1.269.011-2.517.1-3.748.248-11.803-39.581-48.631-68.3-92.006-67.951-43.377.347-79.743 29.651-90.911 69.416a33.36 33.36 0 0 0-3.746-.186c-18.258.144-32.94 15.065-32.794 33.322.146 18.259 15.066 32.939 33.323 32.793a33.082 33.082 0 0 0 8.052-1.06c15.029 33.341 48.676 56.433 87.6 56.122 38.922-.313 72.195-23.939 86.689-57.518a33.19 33.19 0 0 0 8.07.93c18.256-.145 32.937-15.064 32.791-33.321-.146-18.26-15.064-32.942-33.32-32.795z"/></defs><defs><path id="b" d="M509.874 618.28c-37.649.002-71.938-21.783-87.97-55.807a35.068 35.068 0 0 1-6.902.741c-9.357.032-18.198-3.501-24.872-10.068-6.675-6.568-10.393-15.344-10.467-24.709-.075-9.364 3.501-18.197 10.069-24.872 6.569-6.675 15.344-10.392 24.709-10.466.74-.013 1.514.014 2.296.061 5.768-19.236 17.658-36.567 33.616-48.944 16.939-13.139 37.252-20.174 58.744-20.346 21.462-.174 41.912 6.536 59.059 19.402 16.152 12.12 28.318 29.259 34.394 48.399.78-.059 1.549-.092 2.299-.099h.003c19.317-.185 35.181 15.448 35.336 34.778.074 9.364-3.501 18.197-10.069 24.871-6.568 6.675-15.343 10.392-24.706 10.466a35.468 35.468 0 0 1-6.915-.63c-15.592 34.512-49.891 56.914-87.845 57.219a67.43 67.43 0 0 1-.779.004zm-85.707-60.484.693 1.537c15.075 33.444 48.389 54.947 85.014 54.947.25 0 .497-.001.747-.003 36.919-.296 70.232-22.399 84.869-56.312l.668-1.547 1.638.396c2.482.602 5.033.922 7.584.874 8.296-.065 16.068-3.358 21.887-9.271 5.819-5.913 8.987-13.738 8.921-22.035-.137-17.04-14.044-30.811-31.053-30.811l-.252.001a32.557 32.557 0 0 0-3.525.233l-1.674.201-.481-1.615c-11.778-39.5-48.808-66.885-90.073-66.522-41.258.33-77.856 28.274-89.001 67.957l-.456 1.623-1.677-.175a31.438 31.438 0 0 0-3.521-.176c-8.297.065-16.07 3.358-21.89 9.271-5.819 5.913-8.987 13.739-8.921 22.035s3.359 16.07 9.272 21.889c5.852 5.759 13.577 8.921 21.777 8.921l.257-.001a31.118 31.118 0 0 0 7.564-.995l1.633-.422z"/></defs><use xlink:href="#a" fill="#41E847" overflow="visible"/><use xlink:href="#b" overflow="visible"/><clipPath id="c"><use xlink:href="#a" overflow="visible"/></clipPath><path d="M418.352 543.425a1.993 1.993 0 0 1-1.461-.635l-20.45-21.879a2 2 0 1 1 2.922-2.73l20.45 21.879a1.997 1.997 0 0 1-1.461 3.365zM597.758 541.988a2 2 0 0 1-1.482-3.342l20.098-22.205a1.999 1.999 0 1 1 2.965 2.683l-20.098 22.205a1.99 1.99 0 0 1-1.483.659zM493.998 529.187h-50.172a2 2 0 0 0 0 4h4.965c.99 5.998 6.209 10.555 12.478 10.504 6.198-.05 11.303-4.588 12.281-10.504h20.448a2 2 0 0 0 0-4zM576.024 529.187h-50.172a2 2 0 0 0 0 4h2.207c.902 6.101 6.17 10.763 12.511 10.712 6.273-.051 11.422-4.694 12.313-10.712h23.141a2 2 0 0 0 0-4zM511.583 447.281h-3.316a8.237 8.237 0 0 1-8.237-8.237v-33.368a8.237 8.237 0 0 1 8.237-8.237h3.316a8.237 8.237 0 0 1 8.237 8.237v33.368a8.237 8.237 0 0 1-8.237 8.237z"/><path fill="#41E847" d="M597.511 765.456h-258.46l26.388-99.129c3.886-14.851 17.303-25.21 32.655-25.21H631.36l-33.849 124.339z"/><path d="M599.04 767.456H336.449l27.057-101.644c4.111-15.715 18.336-26.696 34.588-26.696h235.884l-34.938 128.34zm-257.387-4h254.33l32.76-120.34H398.094c-14.435 0-27.066 9.753-30.721 23.717l-25.72 96.623z"/><path fill="#41E847" d="M366.27 765.721h-85.024c-32.519 0-58.881 26.362-58.881 58.881v27.609h85.024v-27.609c0-32.52 26.362-58.881 58.881-58.881z"/><path d="M309.39 854.211h-89.024v-29.609c0-33.569 27.311-60.881 60.881-60.881h85.023v4c-31.363 0-56.88 25.517-56.88 56.881v29.609zm-85.025-4h81.024v-25.609c0-25.925 16.289-48.118 39.169-56.881h-63.312c-31.364 0-56.881 25.517-56.881 56.881v25.609z"/><path fill="#41E847" d="M528.988 765.721h-85.024c-32.519 0-58.881 26.362-58.881 58.881v27.609h85.024v-27.609c.001-32.52 26.362-58.881 58.881-58.881z"/><path d="M472.107 854.211h-89.023v-29.609c0-33.569 27.311-60.881 60.88-60.881h85.024v4c-31.364 0-56.881 25.517-56.881 56.881v29.609zm-85.023-4h81.023v-25.609c0-25.925 16.289-48.118 39.17-56.881h-63.313c-31.363 0-56.88 25.517-56.88 56.881v25.609z"/><path d="M411.521 854.211a2 2 0 0 1-2-2v-27.609c0-8.219 1.61-16.191 4.785-23.698a2 2 0 1 1 3.683 1.559c-2.965 7.011-4.469 14.459-4.469 22.14v27.609a1.998 1.998 0 0 1-1.999 1.999zM440.076 854.211a2 2 0 0 1-2-2v-27.609c0-8.219 1.61-16.191 4.785-23.698a2 2 0 1 1 3.683 1.559c-2.965 7.011-4.469 14.459-4.469 22.14v27.609a1.998 1.998 0 0 1-1.999 1.999zM250.077 854.211a2 2 0 0 1-2-2v-27.609c0-8.219 1.61-16.191 4.785-23.698a2 2 0 1 1 3.683 1.559c-2.965 7.011-4.469 14.459-4.469 22.14v27.609a1.998 1.998 0 0 1-1.999 1.999zM278.632 854.211a2 2 0 0 1-2-2v-27.609c0-8.219 1.61-16.191 4.785-23.698a2 2 0 1 1 3.683 1.559c-2.965 7.011-4.469 14.459-4.469 22.14v27.609a1.999 1.999 0 0 1-1.999 1.999z"/><path fill="#41E847" d="M827.899 765.721h-113.6c-31.233 0-56.552 25.319-56.552 56.552v29.938h269.656c18.241 0 33.028-14.787 33.028-33.028 0 0 .284-106.649.284-108.862 0-38.405-33.067-69.204-71.472-69.204H631.582l-33.938 124.604h117.818"/><path d="M927.403 854.211H655.747v-31.938c0-24.783 15.479-46.021 37.275-54.552h-97.996l35.027-128.604h259.189c19.232 0 37.528 7.371 51.52 20.755 14.156 13.542 21.952 31.458 21.952 50.449 0 2.19-.28 107.801-.283 108.867.001 19.309-15.713 35.023-35.028 35.023zm-267.656-4h267.656c17.109 0 31.028-13.919 31.028-31.028.003-1.071.283-106.678.283-108.862 0-17.889-7.357-34.778-20.717-47.559-13.243-12.669-30.558-19.646-48.755-19.646H633.11L600.26 763.72h227.638v4h-113.6c-30.079 0-54.551 24.472-54.551 54.552v27.939z"/><path fill="#41E847" d="M780.03 765.721h-85.024c-32.519 0-58.881 26.362-58.881 58.881v27.609h85.024v-27.609c0-32.52 26.362-58.881 58.881-58.881z"/><path d="M723.149 854.211h-89.024v-29.609c0-33.569 27.311-60.881 60.881-60.881h85.024v4c-31.364 0-56.881 25.517-56.881 56.881v29.609zm-85.024-4h81.024v-25.609c0-25.925 16.289-48.118 39.17-56.881h-63.313c-31.364 0-56.881 25.517-56.881 56.881v25.609z"/><path d="M662.563 854.211a2 2 0 0 1-2-2v-27.609c0-8.219 1.61-16.191 4.785-23.698a1.999 1.999 0 1 1 3.683 1.559c-2.965 7.011-4.469 14.459-4.469 22.14v27.609a1.998 1.998 0 0 1-1.999 1.999zM691.118 854.211a2 2 0 0 1-2-2v-27.609c0-8.219 1.61-16.191 4.785-23.698a1.999 1.999 0 1 1 3.683 1.559c-2.965 7.011-4.469 14.459-4.469 22.14v27.609a1.998 1.998 0 0 1-1.999 1.999zM361.83 681.354h258.437v4H361.83zM350.254 724.746h257.811v4H350.254zM613.07 706.219h-81.661a2 2 0 0 1 0-4h81.661a2 2 0 0 1 0 4zM428.16 665.858h-61.011a2 2 0 0 1 0-4h61.011a2 2 0 0 1 0 4zM438.563 706.219h-81.661a2 2 0 0 1 0-4h81.661a2 2 0 0 1 0 4zM624.178 665.858h-61.012a2 2 0 0 1 0-4h61.012a2 2 0 0 1 0 4zM602.354 748.927h-61.012a2 2 0 0 1 0-4h61.012a2 2 0 0 1 0 4zM406.337 748.222h-61.011a2 2 0 0 1 0-4h61.011a2 2 0 0 1 0 4zM509.821 555.012a2 2 0 0 1-2-2v-31.737a2 2 0 0 1 4 0v31.737a2 2 0 0 1-2 2z"/><path fill="#FFF" d="M491.987 578.873c0-9.677 7.844-17.521 17.521-17.521s17.521 7.844 17.521 17.521h-35.042z"/><path fill="#41E847" d="M825.841 765.338c0-31.622 25.635-57.256 57.256-57.256"/><path d="M825.841 767.339a2 2 0 0 1-2-2c0-32.675 26.582-59.257 59.257-59.257a2 2 0 0 1 0 4c-30.469 0-55.257 24.788-55.257 55.257a2 2 0 0 1-2 2z"/><path fill="#41E847" d="M988.452 728.941v98.089c0 11.106 9.003 20.11 20.11 20.11h-.834c37.976 0 69.487 30.324 69.856 68.298.372 38.346-30.714 69.66-68.976 69.66H723.141c-7.919 0-14.644-6.48-14.496-14.398.144-7.678 6.413-13.859 14.126-13.859h285.154c22.298 0 40.975-17.641 41.398-39.935.433-22.813-17.999-41.51-40.715-41.51h-.045c-26.712 0-48.367-21.654-48.367-48.367V700.684c15.605 0 28.256 12.651 28.256 28.257z"/><path d="M1008.607 987.098H723.142c-4.427 0-8.758-1.826-11.883-5.011-3.055-3.112-4.692-7.17-4.613-11.424.163-8.724 7.396-15.821 16.125-15.821h285.154c21.327 0 39.002-17.035 39.398-37.974.199-10.473-3.738-20.364-11.087-27.854-7.352-7.492-17.164-11.618-27.629-11.618-27.818 0-50.412-22.595-50.412-50.367V698.684h2c16.684 0 30.257 13.573 30.257 30.257v98.089c0 9.986 8.124 18.11 18.109 18.11v.005c38.867.442 70.648 31.796 71.022 70.273.185 19.067-7.118 37.045-20.563 50.621-13.449 13.581-31.352 21.059-50.413 21.059zm-285.836-28.255c-6.563 0-12.003 5.337-12.125 11.896-.06 3.173 1.172 6.208 3.468 8.548 2.378 2.423 5.669 3.812 9.028 3.812h285.466c17.985 0 34.879-7.058 47.571-19.873 12.688-12.812 19.58-29.776 19.405-47.768-.355-36.567-30.796-66.317-67.856-66.317v-.016c-11.807-.439-21.275-10.182-21.275-22.095v-98.089c0-13.806-10.709-25.157-24.257-26.182V827.03c0 25.567 20.8 46.367 46.366 46.367 11.594 0 22.42 4.552 30.53 12.817 8.106 8.262 12.45 19.175 12.231 30.73-.438 23.103-19.907 41.897-43.398 41.897H722.771z"/><path fill="#FFF" d="M706.021 1001.379c-18.84 0-93.342-34.113-93.342-34.113s74.502-34.113 93.342-34.113 34.113 15.273 34.113 34.113-15.273 34.113-34.113 34.113z"/><path fill="#41E847" d="M696.659 617.925c13.466 0 24.383-10.917 24.383-24.383s-10.917-24.383-24.383-24.383v-.166c-13.064-.374-23.541-11.074-23.541-24.228 0-13.391 10.855-24.246 24.246-24.246v-.172h168.557c14.485 0 26.227 11.742 26.227 26.227 0 12.297-9.968 22.265-22.265 22.265h-38.151c5.804.935 10.242 5.953 10.242 12.021 0 6.733-5.458 12.191-12.191 12.191h-12.689c5.259 1.353 9.15 6.112 9.15 11.793 0 6.733-5.458 12.191-12.191 12.191h-12.69c5.259 1.353 9.15 6.112 9.15 11.794 0 6.733-5.458 12.191-12.191 12.191h-12.689c5.259 1.353 9.15 6.113 9.15 11.794 0 6.733-5.458 12.191-12.191 12.191H696.66c-13.001 0-23.541-10.54-23.541-23.541s10.539-23.539 23.54-23.539z"/><path d="M689.617 647.944a2 2 0 0 1-2-2v-4.886c0-5.512 4.483-9.995 9.995-9.995 20.694 0 37.53-16.836 37.53-37.53s-16.836-37.531-37.53-37.531h-.889c-5.756 0-10.438-4.683-10.438-10.438s4.683-10.439 10.438-10.439h170.773a2 2 0 0 1 0 4H696.724a6.446 6.446 0 0 0-6.438 6.439 6.446 6.446 0 0 0 6.438 6.438h.889c22.899 0 41.53 18.631 41.53 41.531 0 22.899-18.631 41.53-41.53 41.53a6.001 6.001 0 0 0-5.995 5.995v4.886a2 2 0 0 1-2.001 2z"/><path d="M865.922 518.347H697.364c-.301 0-.586.066-.842.186-14.084.446-25.404 12.042-25.404 26.232 0 14.024 10.769 25.376 24.665 26.192.265.129.562.201.876.201 12.342 0 22.383 10.041 22.383 22.383 0 12.343-10.041 22.384-22.383 22.384-14.083 0-25.541 11.457-25.541 25.54s11.458 25.541 25.541 25.541h85.932c7.825 0 14.191-6.366 14.191-14.191a14.16 14.16 0 0 0-3.927-9.793h5.467c7.825 0 14.191-6.366 14.191-14.191 0-3.75-1.471-7.223-3.928-9.794h5.467c7.825 0 14.191-6.366 14.191-14.191a14.16 14.16 0 0 0-3.928-9.794h5.468c7.825 0 14.191-6.366 14.191-14.191 0-3.896-1.555-7.446-4.124-10.021h30.032c13.38 0 24.265-10.886 24.265-24.266.001-15.564-12.661-28.227-28.225-28.227zm3.962 48.493H769.242a2 2 0 0 0 0 4h62.295a10.131 10.131 0 0 1 8.439 10.021c0 5.619-4.572 10.191-10.191 10.191h-12.689c-.193 0-.378.035-.556.087h-61.878a2 2 0 0 0 0 4h62.432a10.173 10.173 0 0 1 7.151 9.707c0 5.619-4.572 10.191-10.191 10.191h-12.689c-.181 0-.354.032-.521.077h-38.405a2 2 0 0 0 0 4h38.893a10.173 10.173 0 0 1 7.184 9.717c0 5.619-4.572 10.191-10.191 10.191h-12.689c-.168 0-.33.028-.487.067h-44.092a2 2 0 0 0 0 4h44.513a10.171 10.171 0 0 1 7.215 9.726c0 5.619-4.572 10.191-10.191 10.191h-85.932c-11.878 0-21.541-9.663-21.541-21.541 0-11.877 9.663-21.54 21.541-21.54 14.548 0 26.383-11.836 26.383-26.384 0-14.271-11.391-25.933-25.558-26.37a2 2 0 0 0-.768-.177c-12.111-.347-21.599-10.111-21.599-22.229 0-12.267 9.979-22.246 22.246-22.246a2 2 0 0 0 .812-.172h167.745c13.358 0 24.227 10.868 24.227 24.227-.002 11.175-9.092 20.266-20.266 20.266z"/><path fill="#FFF" d="M129.807 764.253c0-13.579-11.008-24.587-24.587-24.587s-24.587 11.008-24.587 24.587c0 10.605 6.715 19.642 16.125 23.092l-.053 12.183 16.539.073.052-12.125c9.61-3.342 16.511-12.474 16.511-23.223z"/><path d="M120.636 763.385a3.228 3.228 0 1 1-6.455.14 3.228 3.228 0 0 1 6.455-.14zM150.901 957.765l-20.91-57.964-.306-84.252c-.035-9.597-7.843-17.349-17.44-17.314l-14.979.054c-4.609.017-8.781 1.839-11.881 4.778h-19.74a6.372 6.372 0 0 0-6.372 6.372v64.636a6.372 6.372 0 0 0 6.372 6.372h14.541l.082 22.614h.071l-25.585 120.401c-2.336 10.992 4.681 21.797 15.674 24.133 10.993 2.339 21.797-4.681 24.132-15.673l14.765-69.483 2.05 5.685-.658 62.837c-.117 11.237 8.896 20.441 20.133 20.56l.218.001c11.138 0 20.225-8.97 20.342-20.134l.696-66.505a20.328 20.328 0 0 0-1.205-7.118z"/><path fill="#FFF" d="M178.207 856.489a3.16 3.16 0 0 0 3.136-3.134c.011-1.255-.823-2.37-1.96-2.899-.616-.286-1.073-.316-1.522-.272l-1.79.014.066-.027s0-.015.004-.015a3.161 3.161 0 0 0 3.086-3.726c-.229-1.315-1.323-2.363-2.644-2.561a3.043 3.043 0 0 0-.789-.017l-6.451.094-.017-.13 5.327-1.386s-.004-.014.001-.015a3.165 3.165 0 0 0 2.104-4.338c-.374-.863-1.164-1.463-2.073-1.707-.918-.247-1.414-.16-1.892.011l-12.716 3.293a8.918 8.918 0 0 0-5.646 3.558c-.647.731-1.963 2.018-3.389 2.242v.006l-27.023.549.077-30.906c.108-5.901-4.798-10.663-10.693-10.379a10.357 10.357 0 0 0-9.857 10.258l-.282 33.778a17.062 17.062 0 0 0 17.583 18.447l30.473-1.031v-.021c1.511.29 3.018.75 4.393 1.442 1.669.84 3.323 1.287 5.023 1.516 1.413.19 2.857.229 4.367.217l7.122-.056 2.047-.06s0-.015.004-.015a3.16 3.16 0 0 0 3.135-3.203c-.017-1.22-.829-2.265-1.926-2.799a3.49 3.49 0 0 0-.536-.21l1.287-.137s0-.015.004-.014a3.162 3.162 0 0 0 3.137-3.186 3.154 3.154 0 0 0-2.32-3.008l1.145-.156c.001-.002.001-.017.005-.017z"/><path d="M117.408 774.882c-6.301 0-11.427-5.126-11.427-11.427s5.126-11.427 11.427-11.427c6.302 0 11.428 5.126 11.428 11.427s-5.126 11.427-11.428 11.427zm0-18.854c-4.095 0-7.427 3.332-7.427 7.427s3.332 7.427 7.427 7.427c4.096 0 7.428-3.332 7.428-7.427s-3.332-7.427-7.428-7.427z"/><path d="M98.217 775.888c-.982 0-1.84-.725-1.979-1.727l-.305-2.205a6.434 6.434 0 0 1 1.302-4.865 6.436 6.436 0 0 1 4.393-2.468l5.571-.633a2 2 0 1 1 .451 3.975l-5.571.633a2.469 2.469 0 0 0-1.685.946 2.462 2.462 0 0 0-.498 1.864l.305 2.206a2 2 0 0 1-1.984 2.274zM126.834 765.455a2 2 0 0 1-.111-3.997l3.672-.209c1.09-.041 2.048.781 2.11 1.884a2 2 0 0 1-1.884 2.11l-3.672.209a2.207 2.207 0 0 1-.115.003zM109.226 730.874a7.293 7.293 0 0 0-1.315.179c-.411-3.777-3.677-6.644-7.53-6.488a7.287 7.287 0 0 0-6.986 7.576c.014.339.058.668.116.993-.073.001-.144-.005-.217-.002a7.287 7.287 0 0 0 .59 14.562 7.25 7.25 0 0 0 3.763-1.237 7.254 7.254 0 0 0 4.69 1.469 7.263 7.263 0 0 0 5.374-2.713 7.287 7.287 0 1 0 1.515-14.339z"/><path fill="#41E847" d="M92.187 880.384h-7.636a2 2 0 0 1 0-4h7.636c.592 0 1.147-.231 1.564-.65s.645-.976.642-1.567l-.363-62.93a2.001 2.001 0 0 1 1.988-2.012h.012a2 2 0 0 1 2 1.988l.363 62.931a6.16 6.16 0 0 1-1.806 4.41 6.162 6.162 0 0 1-4.4 1.83z"/><path fill="#FFF" d="M116.518 1065.91c-2.451-.017-3.912-1.29-3.898-3.474l2.272-18.861 32.121.488 23.485 16.928s.897.688.861 2.181c-.042 1.693-1.423 3.043-3.116 3.016l-51.725-.278z"/><path fill="#FFF" d="M60.117 1062.471c-2.451-.017-3.912-1.29-3.898-3.474l2.272-18.861 32.121.488 23.485 16.928s.897.688.861 2.181c-.042 1.693-1.423 3.043-3.116 3.016l-51.725-.278z"/><path d="M168.578 801.584a8.678 8.678 0 0 1 2.361 6.423l-1.78 35.943h3.659l1.772-35.762a12.304 12.304 0 0 0-3.347-9.105 12.304 12.304 0 0 0-8.877-3.911c-3.312-.032-6.444 1.205-8.818 3.517a12.318 12.318 0 0 0-3.749 8.721l-.108 8.165a1.827 1.827 0 0 0 1.803 1.851c1-.012 1.838-.794 1.851-1.803l.108-8.165a8.695 8.695 0 0 1 2.644-6.152 8.644 8.644 0 0 1 6.22-2.48 8.674 8.674 0 0 1 6.261 2.758zM167.895 869.333l-10.341 208.75a1.826 1.826 0 1 0 3.649.18l10.352-208.973-3.66.043z"/><path fill="#FFF" d="M92.728 242.321a40.6 40.6 0 0 1 19.391 4.898c7.272-22.704 27.986-39.353 52.776-40.669v117.32H86.869c-19.742-2.842-34.915-20.246-34.915-40.774 0-22.519 18.256-40.775 40.774-40.775z"/></svg>