<svg xmlns="http://www.w3.org/2000/svg" width="32" height="32" viewBox="0 0 32 32"><path d="M20.18 12.15v6.34h-1.77v7.53H13.6v-7.53h-1.76v-6.34c0-.28.1-.51.28-.7.2-.2.43-.3.7-.3h6.38a1 1 0 01.7.3c.19.2.3.42.3.7zm-6.34-3.98c0-1.46.72-2.19 2.15-2.19s2.16.73 2.16 2.19c0 1.44-.72 2.16-2.16 2.16s-2.15-.72-2.15-2.16zM15.97.5A15.3 15.3 0 0131.5 16c0 9.2-7.4 15.5-15.53 15.5A15.54 15.54 0 01.5 16C.5 7.7 7.04.5 15.97.5zm.05 2.8A12.76 12.76 0 003.3 16a12.8 12.8 0 0012.73 12.68c6.45 0 12.68-5.07 12.68-12.68A12.6 12.6 0 0016.02 3.3z"/></svg>
