<svg xmlns="http://www.w3.org/2000/svg" width="32" height="32" viewBox="0 0 32 32"><path d="M15.86 13.43L13.8 14.5c-.6-1.22-1.58-1.25-1.72-1.25-1.38 0-2.07.92-2.07 2.74 0 1.48.57 2.74 2.07 2.74.9 0 1.54-.44 1.91-1.33l1.91.97a4.58 4.58 0 01-4.07 2.44c-1.41 0-4.62-.65-4.62-4.82 0-3.66 2.69-4.81 4.54-4.81 1.92 0 3.3.74 4.12 2.24zm8.95 0l-2.05 1.08c-.6-1.24-1.61-1.25-1.75-1.25-1.38 0-2.07.92-2.07 2.74 0 1.48.57 2.74 2.07 2.74.9 0 1.54-.44 1.91-1.33l1.94.97c-.13.24-1.34 2.44-4.07 2.44-1.42 0-4.62-.62-4.62-4.82 0-3.66 2.68-4.81 4.54-4.81 1.92 0 3.28.74 4.1 2.24zM15.96.5A15.4 15.4 0 00.5 16c0 8.66 7.1 15.5 15.47 15.5 8.12 0 15.53-6.3 15.53-15.5A15.3 15.3 0 0015.97.5zm.06 28.18A12.8 12.8 0 013.3 16c0-6.59 5.34-12.7 12.73-12.7A12.6 12.6 0 0128.7 16c0 7.6-6.23 12.68-12.67 12.68z"/></svg>
