<svg xmlns="http://www.w3.org/2000/svg" width="32" height="32" viewBox="0 0 32 32"><path d="M15.97.5C24.71.5 31.5 7.24 31.5 16c0 9.2-7.4 15.5-15.53 15.5C7.57 31.5.5 24.58.5 16 .5 7.7 7.04.5 15.97.5zM4 11.82c-.47 1.27-.7 2.67-.7 4.18 0 6.93 5.76 12.65 12.73 12.65 7.65 0 11.08-6.36 11.16-6.5l-5.84-2.6c-.48 2.31-2.57 3.3-4.26 3.46v2.38h-1.8V23a7.18 7.18 0 01-4.7-1.86L12.7 19c1.98 1.84 5.4 1.99 5.4-.14 0-.39-.14-.7-.42-.94-.88-.38-.1 0-13.7-6.09zm12.03-8.55c-2.4 0-7.02.54-10.65 5.81l5.92 2.66c.63-1.96 2.53-2.68 4-2.77V6.59h1.8v2.38a6.9 6.9 0 013.87 1.44l-2.02 2.07c-2.67-1.87-5.22-.5-4.38.7l5.82 2.6 7.94 3.54c.26-1.09.39-2.2.39-3.32 0-3.56-1.24-6.56-3.7-9a12.12 12.12 0 00-8.98-3.73z"/></svg>
