<svg xmlns="http://www.w3.org/2000/svg" width="32" height="32" viewBox="0 0 32 32"><path d="M15.97.5A15.3 15.3 0 0131.5 16c0 9.2-7.4 15.5-15.53 15.5A15.54 15.54 0 01.5 16C.5 7.7 7.04.5 15.97.5zm.05 2.8A12.76 12.76 0 003.3 16a12.8 12.8 0 0012.73 12.68c6.45 0 12.68-5.07 12.68-12.68A12.6 12.6 0 0016.02 3.3zM9.11 13.8c.8-5.24 5.03-5.98 6.8-5.98 6.24 0 7.97 5.16 7.97 8.39 0 3.97-2.56 8.3-8.05 8.3-2.44 0-6.2-1.25-6.84-6.06h3.9c.1 1.88 1.23 2.83 3.41 2.83 1.46 0 3.63-1.14 3.63-5.18 0-5.15-3.07-5.04-3.55-5.04-2.07 0-3.23.92-3.49 2.74h1.14l-3.07 3.08-3.07-3.08z"/></svg>
