<svg xmlns="http://www.w3.org/2000/svg" xml:space="preserve" viewBox="0 0 1920 1080"><path fill="#FFF" d="M381.751 286.231a2 2 0 0 1-.509-3.934c.359-.095 36.451-9.758 76.998-32.576 37.294-20.988 86.113-57.729 106.893-113.575a1.998 1.998 0 0 1 2.572-1.177 1.999 1.999 0 0 1 1.177 2.571c-21.214 57.014-70.858 94.396-108.769 115.716-23.734 13.349-45.968 22.241-60.549 27.381 23.842-2.84 68.729-10.56 117.48-31.108 41.949-17.683 78.517-41.268 108.688-70.102 37.688-36.019 65.458-80.394 82.539-131.893a2.001 2.001 0 0 1 3.797 1.259c-17.298 52.153-45.436 97.098-83.633 133.583-30.542 29.174-67.541 53.025-109.965 70.891-72.186 30.399-136.012 32.939-136.648 32.962-.024.002-.047.002-.071.002z"/><path fill="#FFF" d="M381.754 286.231a2 2 0 0 1-1.444-3.384c.132-.137 13.293-14 25.867-38.621 11.587-22.688 25.035-59.428 23.304-105.612a2 2 0 0 1 1.924-2.074 2.006 2.006 0 0 1 2.073 1.924c1.767 47.115-11.973 84.585-23.811 107.723-6.438 12.584-12.936 22.316-17.885 28.967 56.141-39.131 84.439-86.53 98.42-120.332 16.098-38.918 17.197-68.567 17.207-68.862.034-1.104.938-2.003 2.062-1.937a2 2 0 0 1 1.937 2.062c-.01.311-.265 7.759-2.552 20.192-2.104 11.434-6.406 29.402-14.957 50.074-15.095 36.494-46.619 88.597-111.073 129.569a2.007 2.007 0 0 1-1.072.311z"/><path fill="#FFF" d="M476.174 450.008a2.002 2.002 0 0 1-1.893-1.354c-29.25-85.604-69.996-136.816-86.509-155.204 23.887 59.682 28.711 117.075 28.759 117.681a1.999 1.999 0 0 1-1.834 2.152 1.996 1.996 0 0 1-2.153-1.834c-.051-.632-5.384-63.947-32.625-126.418a2.001 2.001 0 0 1 3.199-2.262c.568.531 57.288 54.374 94.949 164.592a2 2 0 0 1-1.893 2.647zm817.221-189.692a1.98 1.98 0 0 1-.909-.22c-42.777-21.893-98.583-60.927-121.515-122.556a1.998 1.998 0 0 1 1.177-2.571 1.996 1.996 0 0 1 2.571 1.177c22.484 60.424 77.443 98.82 119.589 120.39a2 2 0 0 1-.913 3.78z"/><path fill="#FFF" d="M1293.398 276.408a2.03 2.03 0 0 1-.455-.052c-37.218-8.655-92.328-26.565-143.515-62.74-58.05-41.026-98.978-96.48-121.645-164.822a2 2 0 1 1 3.797-1.259c22.393 67.514 62.818 122.293 120.156 162.815 50.658 35.802 105.242 53.537 142.112 62.11a2 2 0 0 1-.45 3.948zm26.253-58.251a2.002 2.002 0 0 1-1.894-1.357c-8.557-25.2-12.387-51.557-11.383-78.338a2 2 0 1 1 3.998.15c-.986 26.292 2.772 52.165 11.172 76.9a1.999 1.999 0 0 1-1.893 2.645zm-21.677 18.015a2 2 0 0 1-1.477-.649c-33.888-37.019-50.581-75.634-58.618-101.509-8.723-28.083-9.408-47.135-9.434-47.932a2.001 2.001 0 0 1 1.936-2.062c1.098.009 2.028.831 2.062 1.936.024.764 3.182 77.147 67.005 146.865a2.002 2.002 0 0 1-1.474 3.351zm-56.773 347.376a2 2 0 0 1-1.994-2.184c5.93-64.478 16.681-139.458 51.451-206.703a2 2 0 0 1 3.552 1.838c-34.455 66.633-45.126 141.139-51.021 205.232a1.996 1.996 0 0 1-1.988 1.817z"/><path fill="#FF8630" d="M964.454 222.186c0-52.409-42.333-94.925-94.67-95.233v-.007c-.095 0-.19.003-.285.004-.095 0-.19-.004-.285-.004v.007c-52.337.307-94.67 42.824-94.67 95.233s42.333 94.925 94.67 95.233v.007c.095 0 .19-.003.285-.004.095 0 .19.004.285.004v-.007c52.337-.308 94.67-42.824 94.67-95.233z"/><path fill="#FFD829" d="M694.543 469.424h175.523v4H694.543z"/><path fill="#FFF" d="M1005.25 353.042c-20.83-25.316-26.605-59.421-16.028-90.385a124.662 124.662 0 0 0 6.635-36.912c1.928-69.89-54.55-128.091-124.439-129.236v-.011c-.144-.002-.287.001-.432 0-.494-.006-.991 0-1.487-.001-.495.001-.992-.006-1.487.001-.144.001-.287-.002-.431 0v.011c-69.889 1.145-126.367 59.346-124.439 129.236a124.624 124.624 0 0 0 6.635 36.912c10.577 30.964 4.801 65.069-16.028 90.385-24.714 30.037-39.539 68.417-39.539 110.239 0 2.519.066 5.021.173 7.514h350.235c.106-2.493.173-4.995.173-7.514-.002-41.822-14.828-80.202-39.541-110.239zm-135.751-38.185c-50.574-1.017-91.261-42.054-91.261-92.546 0-50.493 40.685-91.537 91.261-92.552 50.575 1.016 91.261 42.06 91.261 92.552 0 50.492-40.687 91.529-91.261 92.546z"/><path d="M1044.616 470.796H694.382c3.958 92.682 80.741 166.635 174.958 166.801v.004l.159-.002.159.002v-.004c94.218-.167 171.001-74.12 174.958-166.801zm-308.742 52.741c-11.363 0-20.574-9.152-20.574-20.442 0-11.29 9.211-20.442 20.574-20.442 11.363 0 20.574 9.152 20.574 20.442 0 11.289-9.211 20.442-20.574 20.442zm46.939 47.543c-11.363 0-20.574-9.152-20.574-20.442 0-11.29 9.211-20.442 20.574-20.442 11.363 0 20.574 9.152 20.574 20.442 0 11.29-9.211 20.442-20.574 20.442zm47.113 46.951c-11.363 0-20.574-9.152-20.574-20.442 0-11.29 9.211-20.442 20.574-20.442 11.363 0 20.574 9.152 20.574 20.442 0 11.29-9.211 20.442-20.574 20.442zm0-94.483c-11.363 0-20.574-9.152-20.574-20.442s9.211-20.442 20.574-20.442c11.363 0 20.574 9.152 20.574 20.442s-9.211 20.442-20.574 20.442zm79.146 94.483c-11.363 0-20.574-9.152-20.574-20.442 0-11.29 9.211-20.442 20.574-20.442 11.363 0 20.574 9.152 20.574 20.442 0 11.29-9.211 20.442-20.574 20.442zm0-94.483c-11.363 0-20.574-9.152-20.574-20.442s9.211-20.442 20.574-20.442c11.363 0 20.574 9.152 20.574 20.442s-9.211 20.442-20.574 20.442zm47.113 47.532c-11.363 0-20.574-9.152-20.574-20.442 0-11.29 9.211-20.442 20.574-20.442 11.363 0 20.574 9.152 20.574 20.442 0 11.29-9.211 20.442-20.574 20.442zm26.365-67.985c0-11.29 9.211-20.442 20.574-20.442 11.363 0 20.574 9.152 20.574 20.442 0 11.289-9.211 20.442-20.574 20.442-11.363 0-20.574-9.153-20.574-20.442zM870.066 571.08c-11.363 0-20.574-9.152-20.574-20.442 0-11.29 9.211-20.442 20.574-20.442 11.363 0 20.574 9.152 20.574 20.442 0 11.29-9.212 20.442-20.574 20.442zM840.8 213.365c0 6.709-5.473 12.144-12.224 12.144s-12.224-5.435-12.224-12.144c0-6.707 5.473-12.143 12.224-12.143s12.224 5.436 12.224 12.143z"/><path d="M803.85 216.128a2 2 0 0 1-1.643-3.136 31.668 31.668 0 0 1 26.057-13.646 31.665 31.665 0 0 1 26.057 13.646 2 2 0 1 1-3.291 2.273 27.662 27.662 0 0 0-22.766-11.92 27.666 27.666 0 0 0-22.766 11.92 2.002 2.002 0 0 1-1.648.863z"/><path d="M821.074 204.222a1.995 1.995 0 0 1-1.489-.664l-12.193-13.582a2 2 0 1 1 2.976-2.672l12.193 13.582a2 2 0 0 1-1.487 3.336zm-11.231 5.514c-.373 0-.749-.104-1.085-.321l-10.064-6.515a2 2 0 0 1 2.174-3.358l10.064 6.515a2 2 0 0 1-1.089 3.679z"/><ellipse cx="819.948" cy="252.047" fill="#FFF" rx="20.116" ry="19.987"/><ellipse cx="919.05" cy="252.047" fill="#FFF" rx="20.116" ry="19.987"/><path d="M899.904 213.365c0 6.709 5.473 12.144 12.224 12.144s12.224-5.435 12.224-12.144c0-6.707-5.473-12.143-12.224-12.143s-12.224 5.436-12.224 12.143z"/><path d="M936.854 216.128a1.996 1.996 0 0 1-1.647-.863 27.666 27.666 0 0 0-22.766-11.92 27.662 27.662 0 0 0-22.766 11.92 2 2 0 1 1-3.291-2.273 31.662 31.662 0 0 1 26.057-13.646 31.67 31.67 0 0 1 26.057 13.646 2 2 0 0 1-1.644 3.136z"/><path d="M919.629 204.222a2 2 0 0 1-1.487-3.336l12.193-13.582a2 2 0 1 1 2.976 2.672l-12.193 13.582c-.395.44-.941.664-1.489.664zm11.231 5.514a1.999 1.999 0 0 1-1.089-3.679l10.065-6.515a2 2 0 0 1 2.174 3.358l-10.065 6.515a1.987 1.987 0 0 1-1.085.321zm-60.839 47.645h-1.044c-.15 0-.297-.017-.438-.048a22.761 22.761 0 0 1-17.256-9.767 2 2 0 1 1 3.291-2.273 18.77 18.77 0 0 0 14.925 8.081 18.772 18.772 0 0 0 14.925-8.081 2 2 0 1 1 3.291 2.273 22.769 22.769 0 0 1-17.256 9.767 2.041 2.041 0 0 1-.438.048zm-339.01 380.22h762.387v49.293H531.011z"/><path fill="#FFF" d="M794.786 637.601h149.427v4.638c0 11.05-8.958 20.009-20.009 20.009h-109.41c-11.05 0-20.009-8.958-20.009-20.009v-4.638z"/><path d="M1355.676 0H383.322c-19.914 0-36.058 16.144-36.058 36.058v397.793c11.795.057 23.324.385 34.489.961V48.164h975.665v166.152h34.317V36.058C1391.734 16.144 1375.591 0 1355.676 0zM869.499 32.88c-4.887 0-8.848-3.961-8.848-8.848s3.961-8.848 8.848-8.848c4.887 0 8.848 3.961 8.848 8.848s-3.961 8.848-8.848 8.848z"/><path fill="#FF8630" d="m1180.308 258.014.005-.012s-44.745-19.417-105.271 12.749c0 0-31.808 14.238-71.918-12.228 0 0 18.988 112.269 121.477 147.408l.006-.016a78.788 78.788 0 0 0 29.474 5.702c43.652 0 79.039-35.387 79.039-79.039.001-34.455-22.055-63.745-52.812-74.564zm-91.853 80.386c-1.479-.362-2.208-1.689-1.813-3.303l3.182-12.997-13.484-3.301-3.182 12.997c-.395 1.613-1.676 2.448-3.189 2.078-1.479-.362-2.207-1.689-1.812-3.303l7.26-29.656c.395-1.613 1.654-2.453 3.133-2.091 1.513.37 2.264 1.703 1.869 3.315l-2.922 11.936 13.484 3.301 2.922-11.936c.395-1.613 1.654-2.453 3.134-2.091 1.513.37 2.264 1.703 1.869 3.315l-7.26 29.656c-.397 1.616-1.678 2.451-3.191 2.08zm37.136-22.105c-2.011-.493-8.596-2.211-13.404-3.465l-2.501-.653-2.324 9.495 2.654.608c3.57.816 7.616 1.741 8.985 2.077 1.554.381 2.397 1.64 2.048 3.064-.349 1.423-1.678 2.152-3.232 1.771-1.242-.304-4.579-1.175-7.806-2.018l-3.757-.978-2.503 10.222c1.166.268 2.624.602 4.189.959 4.463 1.022 10.017 2.293 11.82 2.735 1.555.381 2.398 1.641 2.049 3.064-.349 1.423-1.678 2.152-3.233 1.771l-18.374-4.498c-1.546-.379-2.331-1.671-1.952-3.218l6.932-28.316c.379-1.547 1.671-2.331 3.218-1.952l18.374 4.498c1.555.38 2.398 1.641 2.049 3.064-.347 1.422-1.677 2.151-3.232 1.77zm25.76 34.112c-.349 1.423-1.678 2.152-3.233 1.771l-18.374-4.498c-1.547-.379-2.331-1.671-1.952-3.218l7.096-28.986c.395-1.613 1.654-2.453 3.133-2.091 1.513.37 2.264 1.703 1.869 3.316l-6.597 26.948 2.653.607c4.794 1.097 11.36 2.599 13.356 3.087 1.555.381 2.398 1.641 2.049 3.064zm29.317 7.178c-.349 1.423-1.678 2.152-3.233 1.771l-18.375-4.498c-1.546-.379-2.331-1.671-1.952-3.218l7.096-28.986c.395-1.613 1.654-2.453 3.133-2.091 1.513.37 2.264 1.703 1.87 3.316l-6.597 26.948 2.653.607c4.794 1.097 11.36 2.599 13.356 3.087 1.555.38 2.398 1.64 2.049 3.064zm15.84 7.269c-8.118-1.987-11.677-10.162-9.066-20.825 2.602-10.629 9.529-16.212 17.647-14.225 8.119 1.988 11.683 10.139 9.081 20.768-2.611 10.663-9.543 16.269-17.662 14.282z"/><path fill="#FF8630" d="M1203.919 334.583c-5.012-1.227-9.472 2.973-11.363 10.698-1.899 7.759.111 13.566 5.122 14.793 5.012 1.227 9.478-2.994 11.377-10.754 1.892-7.725-.125-13.51-5.136-14.737zm627.214-94.951h-504.688c-6.256 0-11.328 5.072-11.328 11.328v8.891c0 18.938 15.504 34.202 34.4 32.958 16.81-1.106 30.102-15.091 30.102-32.18 0 17.812 14.439 32.251 32.251 32.251 17.812 0 32.251-14.439 32.251-32.251 0 17.812 14.439 32.251 32.251 32.251 17.812 0 32.251-14.439 32.251-32.251 0 17.812 14.439 32.251 32.251 32.251 17.812 0 32.251-14.439 32.251-32.251 0 17.812 14.439 32.251 32.251 32.251 17.812 0 32.251-14.439 32.251-32.251 0 17.812 14.439 32.251 32.251 32.251 17.812 0 32.251-14.439 32.251-32.251 0 17.812 14.439 32.251 32.251 32.251 17.812 0 32.251-14.439 32.251-32.251 0 17.812 14.439 32.251 32.251 32.251 17.812 0 32.251-14.439 32.251-32.251 0 17.089 13.292 31.074 30.101 32.18 18.897 1.244 34.401-14.02 34.401-32.958v-8.669c0-6.379-5.171-11.551-11.551-11.551h-52.951z"/><path fill="#FFF" d="M533.011 927.594H154.047V481.032h4c0 11.309 19.462 22.645 53.396 31.103 35.257 8.788 82.166 13.628 132.086 13.628s96.829-4.84 132.086-13.628c33.934-8.458 53.396-19.794 53.396-31.103h4v446.562zm-374.964-4h370.964V491.299c-7.527 9.458-25.501 18.006-52.428 24.718-35.564 8.864-82.817 13.746-133.054 13.746s-97.489-4.882-133.054-13.746c-26.927-6.712-44.901-15.26-52.428-24.718v432.295z"/><path fill="#FFF" d="m505.923 506.575-.792-.341c-33.215-14.312-95.137-23.202-161.603-23.202-66.466 0-128.388 8.891-161.603 23.202l-.792.341-.792-.341c-17.449-7.519-26.296-15.998-26.296-25.202 0-18.201 35.354-29.731 56.428-34.984 35.565-8.865 82.817-13.747 133.054-13.747s97.489 4.882 133.054 13.747c21.074 5.253 56.428 16.783 56.428 34.984 0 9.204-8.847 17.684-26.296 25.202l-.79.341zm-162.394-70.274c-49.92 0-96.829 4.84-132.086 13.628-33.934 8.459-53.396 19.795-53.396 31.104 0 7.229 7.981 14.546 23.096 21.188 33.866-14.312 95.938-23.188 162.386-23.188 66.447 0 128.52 8.875 162.386 23.188 15.115-6.642 23.096-13.959 23.096-21.188 0-11.309-19.462-22.645-53.396-31.104-35.258-8.788-82.166-13.628-132.086-13.628z"/><ellipse cx="343.529" cy="504.398" rx="162.394" ry="23.365"/><path fill="#FFF" d="M343.529 529.763c-66.975 0-129.504-9.016-163.186-23.528l-4.263-1.837 4.263-1.837c33.682-14.513 96.211-23.528 163.186-23.528 66.974 0 129.503 9.016 163.186 23.528l4.263 1.837-4.263 1.837c-33.683 14.512-96.212 23.528-163.186 23.528zm-157.107-25.365c34.115 13.231 93.534 21.365 157.107 21.365 63.573 0 122.991-8.134 157.106-21.365-34.115-13.231-93.534-21.365-157.106-21.365-63.573-.001-122.992 8.133-157.107 21.365zm-30.764 354.573C69.828 858.971 0 789.143 0 703.313s69.828-155.658 155.658-155.658v80c-41.718 0-75.658 33.94-75.658 75.658s33.94 75.658 75.658 75.658v80z"/><path fill="#FF8630" d="m341.55 614.581-.043.074v-.074c-24.426 0-44.228 19.802-44.228 44.228 0 24.426 19.801 44.228 44.228 44.228v-.075l.043.075c24.426 0 44.228-19.801 44.228-44.228 0-24.426-19.802-44.228-44.228-44.228z"/><path fill="#FFF" d="M340.048 682.971c10.843 0 17.614-4.485 17.614-13.633h-17.614v13.633z"/><path d="M351.69 653.541c0 3.267 2.674 5.915 5.972 5.915 3.298 0 5.972-2.647 5.972-5.915 0-3.267-2.674-5.914-5.972-5.914-3.298 0-5.972 2.647-5.972 5.914z"/><path fill="#FFF" d="M341.529 682.971c-10.843 0-17.614-4.485-17.614-13.633h17.614v13.633z"/><path d="M329.886 653.541c0 3.267-2.674 5.915-5.972 5.915s-5.972-2.647-5.972-5.915c0-3.267 2.674-5.914 5.972-5.914s5.972 2.647 5.972 5.914z"/><path fill="#FFF" d="M420.855 770.742H262.203c1.777 41.481 36.485 75.185 78.643 75.903v.034c.229 0 .455-.015.684-.017.229.002.454.017.684.017v-.034c42.155-.718 76.864-34.422 78.641-75.903z"/><path d="M403.01 717.53c-9.442-11.44-12.06-26.852-7.265-40.845a56.212 56.212 0 0 0 3.008-16.681c.873-31.547-24.672-57.807-56.301-58.383v-.023c-.309-.004-.614.011-.923.011-.308-.001-.613-.016-.923-.011v.023c-31.629.576-57.174 26.836-56.301 58.383a56.154 56.154 0 0 0 3.008 16.681c4.794 13.992 2.176 29.404-7.265 40.845-11.202 13.574-17.923 30.917-17.923 49.817 0 1.138.03 2.269.078 3.396h158.652c.048-1.126.078-2.257.078-3.396 0-18.9-6.721-36.244-17.923-49.817zm-61.481-17.265c-22.899-.488-41.314-19.014-41.314-41.812 0-22.799 18.415-41.325 41.314-41.812 22.899.488 41.314 19.013 41.314 41.812 0 22.799-18.415 41.325-41.314 41.812z"/><circle cx="253.654" cy="713.989" r="22.871" fill="#FF8630"/><circle cx="429.469" cy="713.989" r="22.871" fill="#FF8630"/><path fill="#FFF" d="M1879.422 963.21h-548.091c-22.02 0-39.934-17.914-39.934-39.934V252.25c0-22.02 17.914-39.934 39.934-39.934h548.091c22.02 0 39.934 17.914 39.934 39.934v671.026c-.001 22.02-17.915 39.934-39.934 39.934zm-548.091-746.893c-19.813 0-35.934 16.12-35.934 35.934v671.026c0 19.813 16.12 35.934 35.934 35.934h548.091c19.813 0 35.934-16.12 35.934-35.934V252.25c0-19.813-16.12-35.934-35.934-35.934h-548.091z"/><path fill="#FFF" d="M1884.688 937.895h-558.624c-7.139 0-12.946-5.808-12.946-12.946V250.577c0-7.138 5.808-12.945 12.946-12.945h558.624c7.139 0 12.946 5.808 12.946 12.945v674.371c.001 7.139-5.807 12.947-12.946 12.947zm-558.624-696.263c-4.933 0-8.946 4.013-8.946 8.945v674.371c0 4.933 4.014 8.946 8.946 8.946h558.624c4.933 0 8.946-4.014 8.946-8.946V250.577c0-4.933-4.014-8.945-8.946-8.945h-558.624z"/><path fill="#FF8630" d="M1719.699 469.885c0-62.865-49.737-114.106-112.006-116.54v-.1c-.775 0-1.546.014-2.317.029-.771-.015-1.542-.029-2.317-.029v.1c-62.269 2.434-112.006 53.674-112.006 116.54 0 62.866 49.737 114.106 112.006 116.54v.1c.775 0 1.546-.014 2.317-.029.771.015 1.542.029 2.317.029v-.1c62.27-2.434 112.006-53.675 112.006-116.54z"/><path fill="#FFF" d="M1802.883 747.978H1407.87c4.431 103.442 91.607 187.388 197.019 187.904v.012c.163 0 .325-.006.488-.006.163 0 .325.006.488.006l.003-.012c105.409-.517 192.584-84.463 197.015-187.904z"/><path d="M1661.518 522.152c-9.169-6.781-17.439-17.436-17.439-26.155 0-7.081 4.842-10.88 10.061-10.88 4.693 0 7.527 1.936 9.39 4.32 1.863-2.385 4.842-4.32 9.539-4.32 5.215 0 10.06 3.798 10.06 10.88 0 8.72-8.273 19.375-17.439 26.155-.819.598-1.49.819-2.16.819-.522 0-1.193-.221-2.012-.819z"/><path fill="#FFF" d="M1602.916 492.994h-24.605c0 13.569 8.521 23.446 24.605 23.446 16.083 0 24.605-9.877 24.605-23.446h-24.605z"/><path d="M1572.57 457.826c0 8.086-6.617 14.636-14.778 14.636s-14.778-6.551-14.778-14.636c0-8.084 6.617-14.635 14.778-14.635s14.778 6.551 14.778 14.635z"/><path d="M1528.024 460.745a2 2 0 0 1-1.642-3.139c7.062-10.187 18.709-16.268 31.156-16.268 12.448 0 24.096 6.081 31.156 16.268a2 2 0 1 1-3.287 2.279c-6.314-9.108-16.732-14.547-27.869-14.547-11.136 0-21.554 5.438-27.869 14.547-.388.56-1.011.86-1.645.86z"/><path d="M1548.848 446.396a1.993 1.993 0 0 1-1.487-.662l-14.741-16.37a2 2 0 1 1 2.972-2.676l14.741 16.37a2 2 0 0 1-1.485 3.338zm-13.578 6.646a2 2 0 0 1-1.082-.319l-12.168-7.852a2 2 0 0 1 2.168-3.362l12.168 7.852a2 2 0 0 1-1.086 3.681zm9.299 69.929c-.67 0-1.341-.221-2.16-.819-9.165-6.781-17.439-17.436-17.439-26.155 0-7.081 4.845-10.88 10.061-10.88 4.696 0 7.676 1.936 9.539 4.32 1.863-2.385 4.697-4.32 9.39-4.32 5.218 0 10.061 3.798 10.061 10.88 0 8.72-8.271 19.375-17.439 26.155-.821.598-1.491.819-2.013.819zm90.959-65.145c0 8.086 6.617 14.636 14.778 14.636s14.778-6.551 14.778-14.636c0-8.084-6.617-14.635-14.778-14.635s-14.778 6.551-14.778 14.635z"/><path d="M1680.074 460.745a2 2 0 0 1-1.646-.86c-6.315-9.108-16.733-14.547-27.869-14.547-11.137 0-21.555 5.438-27.869 14.547a1.999 1.999 0 1 1-3.287-2.279c7.061-10.187 18.708-16.268 31.156-16.268 12.447 0 24.094 6.081 31.156 16.268a2 2 0 0 1-1.641 3.139z"/><path d="M1659.251 446.396a1.998 1.998 0 0 1-1.485-3.338l14.741-16.37a1.998 1.998 0 1 1 2.972 2.676l-14.741 16.37a1.995 1.995 0 0 1-1.487.662zm13.578 6.646a2 2 0 0 1-1.086-3.681l12.168-7.852a2 2 0 1 1 2.168 3.362l-12.168 7.852a1.992 1.992 0 0 1-1.082.319z"/><path d="M1757.342 616.298c-23.365-28.31-29.844-66.45-17.979-101.076a139.03 139.03 0 0 0 7.443-41.278c2.157-77.951-60.858-142.894-138.969-144.506v-.028c-.372-.005-.742.002-1.114-.001-.448-.006-.898.001-1.347-.001-.449.002-.899-.005-1.347.001-.372.002-.741-.004-1.114.001v.028c-78.11 1.611-141.125 66.555-138.969 144.506.399 14.406 2.985 28.27 7.443 41.278 11.864 34.626 5.385 72.765-17.979 101.076-27.722 33.589-44.352 76.509-44.352 123.278 0 2.816.074 5.615.194 8.402h.039l32.875 62.543 32.875-62.543h.027l32.875 62.543 32.875-62.543h.027l32.875 62.543 31.658-60.228 31.658 60.228 32.875-62.543h.027l32.875 62.543 32.875-62.543h.027l32.875 62.543 32.875-62.543h.039c.12-2.787.194-5.586.194-8.402-.003-46.77-16.634-89.689-44.356-123.278zm-151.966-42.708c-56.587-1.297-102.061-47.124-102.061-103.485 0-56.362 45.472-102.2 102.061-103.495 56.588 1.296 102.061 47.133 102.061 103.495 0 56.361-45.473 102.188-102.061 103.485z"/><path fill="#FF8630" d="M1692.679 615.814a2 2 0 0 1-2-2v-31.135a2 2 0 0 1 4 0v31.135a2 2 0 0 1-2 2z"/><path fill="#FF8630" d="M1708.246 600.246h-31.135a2 2 0 0 1 0-4h31.135a2 2 0 0 1 0 4z"/><path fill="#FF8630" d="M1703.687 611.254a1.992 1.992 0 0 1-1.414-.586l-22.016-22.016a2 2 0 1 1 2.828-2.828l22.016 22.016a2 2 0 0 1-1.414 3.414z"/><path fill="#FF8630" d="M1681.671 611.254a2 2 0 0 1-1.414-3.414l22.016-22.016a2 2 0 1 1 2.828 2.828l-22.016 22.016a1.992 1.992 0 0 1-1.414.586zm55.914 93.55a2 2 0 0 1-2-2v-31.135a2 2 0 0 1 4 0v31.135a2 2 0 0 1-2 2z"/><path fill="#FF8630" d="M1753.151 689.236h-31.134a2 2 0 0 1 0-4h31.134a2 2 0 0 1 0 4z"/><path fill="#FF8630" d="M1748.592 700.244a1.992 1.992 0 0 1-1.414-.586l-22.015-22.016a2 2 0 1 1 2.828-2.828l22.015 22.016a2 2 0 0 1-1.414 3.414z"/><path fill="#FF8630" d="M1726.577 700.244a2 2 0 0 1-1.414-3.414l22.015-22.016a2 2 0 1 1 2.828 2.828l-22.015 22.016a1.99 1.99 0 0 1-1.414.586zm-76.654 7.283a2 2 0 0 1-2-2v-31.134a2 2 0 0 1 4 0v31.134a2 2 0 0 1-2 2z"/><path fill="#FF8630" d="M1665.49 691.96h-31.135a2 2 0 0 1 0-4h31.135a2 2 0 0 1 0 4z"/><path fill="#FF8630" d="M1660.931 702.968a1.992 1.992 0 0 1-1.414-.586l-22.016-22.015a2 2 0 1 1 2.828-2.828l22.016 22.015a2 2 0 0 1-1.414 3.414z"/><path fill="#FF8630" d="M1638.915 702.968a2 2 0 0 1-1.414-3.414l22.016-22.015a2 2 0 1 1 2.828 2.828l-22.016 22.015a1.992 1.992 0 0 1-1.414.586zm-118.928-87.154a2 2 0 0 1-2-2v-31.135a2 2 0 0 1 4 0v31.135a2 2 0 0 1-2 2z"/><path fill="#FF8630" d="M1535.555 600.246h-31.135a2 2 0 0 1 0-4h31.135a2 2 0 0 1 0 4z"/><path fill="#FF8630" d="M1508.979 611.254a2 2 0 0 1-1.414-3.414l22.016-22.016a2 2 0 1 1 2.828 2.828l-22.016 22.016a1.99 1.99 0 0 1-1.414.586z"/><path fill="#FF8630" d="M1530.995 611.254a1.992 1.992 0 0 1-1.414-.586l-22.016-22.016a2 2 0 1 1 2.828-2.828l22.016 22.016a2 2 0 0 1-1.414 3.414zm74.381 31.795a2 2 0 0 1-2-2v-31.135a2 2 0 0 1 4 0v31.135a2 2 0 0 1-2 2z"/><path fill="#FF8630" d="M1620.943 627.482h-31.135a2 2 0 0 1 0-4h31.135a2 2 0 0 1 0 4z"/><path fill="#FF8630" d="M1594.368 638.489a2 2 0 0 1-1.414-3.414l22.016-22.016a2 2 0 1 1 2.828 2.828l-22.016 22.016a1.99 1.99 0 0 1-1.414.586z"/><path fill="#FF8630" d="M1616.384 638.489a1.992 1.992 0 0 1-1.414-.586l-22.016-22.016a2 2 0 1 1 2.828-2.828l22.016 22.016a2 2 0 0 1-1.414 3.414zm-141.302 66.315a2 2 0 0 1-2-2v-31.135a2 2 0 0 1 4 0v31.135a2 2 0 0 1-2 2z"/><path fill="#FF8630" d="M1490.649 689.236h-31.135a2 2 0 0 1 0-4h31.135a2 2 0 0 1 0 4z"/><path fill="#FF8630" d="M1464.074 700.244a2 2 0 0 1-1.414-3.414l22.016-22.016a2 2 0 1 1 2.828 2.828l-22.016 22.016a1.99 1.99 0 0 1-1.414.586z"/><path fill="#FF8630" d="M1486.09 700.244a1.992 1.992 0 0 1-1.414-.586l-22.016-22.016a2 2 0 1 1 2.828-2.828l22.016 22.016a2 2 0 0 1-1.414 3.414zm76.654 7.283a2 2 0 0 1-2-2v-31.134a2 2 0 0 1 4 0v31.134a2 2 0 0 1-2 2z"/><path fill="#FF8630" d="M1578.311 691.96h-31.134a2 2 0 0 1 0-4h31.134a2 2 0 0 1 0 4z"/><path fill="#FF8630" d="M1551.736 702.968a2 2 0 0 1-1.414-3.414l22.015-22.015a2 2 0 1 1 2.828 2.828l-22.015 22.015a1.99 1.99 0 0 1-1.414.586z"/><path fill="#FF8630" d="M1573.751 702.968a1.992 1.992 0 0 1-1.414-.586l-22.015-22.015a2 2 0 1 1 2.828-2.828l22.015 22.015a2 2 0 0 1-1.414 3.414zm-205.92 39.698-18.73-22.467-17.391 9.295a12.138 12.138 0 0 1-15.044-2.932l-72.653-87.146a12.137 12.137 0 0 1 .079-15.638l12.438-14.616-23.07-27.672c-9.669-11.598-26.908-13.161-38.506-3.492L862.78 854.927c-11.598 9.669-13.161 26.909-3.492 38.506l134.371 161.177c9.669 11.597 26.908 13.161 38.506 3.492l332.174-276.93c11.598-9.669 13.161-26.908 3.492-38.506zm-180.115 117.073a80.66 80.66 0 0 1-20.968 12.742c-19.734 8.174-34.009 25.921-37.522 47.394-4.168 25.477-16.667 49.626-37.205 67.835a114.256 114.256 0 0 1-3.764 3.185c-47.01 38.206-116.941 32.007-157.447-14.655l-.009.008c-.107-.126-.21-.254-.316-.38-.108-.125-.218-.246-.326-.372l.009-.008c-39.727-47.353-36.061-118.803 7.574-160.964a113.291 113.291 0 0 1 3.616-3.358c20.538-18.209 45.733-27.48 71.065-28.158 21.351-.571 40.572-12.522 51.248-31.31a82.286 82.286 0 0 1 15.285-19.4c33.903-31.779 87.545-28.318 117.848 7.448 30.555 35.545 26.486 90.173-9.088 119.993z"/><path fill="#FFF" d="M1383.952 743.775 1235.27 565.432c-9.669-11.598-26.909-13.161-38.506-3.492L846.659 853.818c-11.598 9.669-13.161 26.908-3.492 38.506l148.682 178.343c9.669 11.598 26.909 13.161 38.506 3.492l350.105-291.878c11.597-9.669 13.161-26.908 3.492-38.506zm-19.613 37.397-332.174 276.93c-11.598 9.669-28.837 8.105-38.506-3.492L859.288 893.433c-9.669-11.597-8.105-28.837 3.492-38.506l332.174-276.93c11.598-9.669 28.837-8.105 38.506 3.492l23.07 27.672 15.667 18.792 76.904 92.246 18.73 22.467c9.669 11.598 8.106 28.837-3.492 38.506z"/><path fill="#FFF" d="m1244.014 639.415 72.653 87.146a12.138 12.138 0 0 0 15.044 2.932l17.391-9.295-76.904-92.246-15.667-18.792-12.438 14.616a12.138 12.138 0 0 0-.079 15.639zm12.516-30.254 15.667 18.792zm-80.752 231.617c-25.036 22.197-63.129 19.313-85.096-6.427-21.967-25.74-19.492-64.592 5.544-86.79 25.03-22.192 63.126-19.31 85.093 6.43 21.967 25.741 19.489 64.595-5.541 86.787z"/><path d="M1129.273 780.386c-4.058 3.598-10.232 3.13-13.792-1.042-3.56-4.172-3.159-10.469.899-14.067 4.057-3.597 10.232-3.13 13.792 1.042 3.56 4.173 3.158 10.47-.899 14.067z"/><path fill="#FFF" d="M1134.44 713.803c23.087 0 44.956 10.183 60.017 27.959 14.284 16.617 21.155 37.941 19.349 60.044-1.773 21.696-11.723 41.166-28.016 54.824a77.07 77.07 0 0 1-20.024 12.17c-21.375 8.854-36.369 27.793-40.11 50.661-4.172 25.5-16.986 48.868-36.081 65.798-.217.192-.436.385-.66.579l-73.002-85.543-.05-.059-73.098-85.655c.258-.234.513-.462.766-.687 19.079-16.915 43.528-26.604 68.843-27.281 22.782-.61 43.288-13.124 54.853-33.476a78.693 78.693 0 0 1 14.613-18.547c14.301-13.404 32.982-20.787 52.6-20.787m0-4c-19.834 0-39.679 7.194-55.336 21.87a82.612 82.612 0 0 0-15.355 19.489c-10.725 18.874-30.034 30.879-51.482 31.453-25.448.681-50.758 9.994-71.39 28.287a115.395 115.395 0 0 0-3.632 3.373l75.575 88.558.052.061 75.575 88.558a116.531 116.531 0 0 0 3.781-3.199c20.632-18.292 33.188-42.552 37.375-68.145 3.529-21.571 17.869-39.399 37.693-47.611a81.021 81.021 0 0 0 21.063-12.8c35.737-29.957 39.825-84.834 9.132-120.541-16.448-19.413-39.741-29.353-63.051-29.353z"/><path d="m1088.447 991.452-75.575-88.558-.052-.061-75.575-88.558c-43.835 42.354-47.517 114.129-7.608 161.699l-.009.008c.108.126.219.248.327.374.107.127.21.256.318.382l.009-.008c40.69 46.875 110.94 53.102 158.165 14.722z"/><path fill="#FF8630" d="M1108.165 794.972c-1.741 3.896-3.433 11.095 3.669 19.417 6.614 7.75 14.851 8.222 18.878 7.004l-22.547-26.421z"/><path d="M1150.331 803.827c-4.058 3.598-4.459 9.895-.899 14.067 3.56 4.172 9.734 4.64 13.792 1.042 4.057-3.597 4.458-9.894.898-14.066-3.56-4.173-9.734-4.64-13.791-1.043z"/><path fill="#FFF" d="m965.61 841.433 14.918-39.063-40.021 9.648zm25.103 29.415 14.918-39.063-40.021 9.648zm25.102 29.415 14.919-39.063-40.021 9.648zm50.206 58.83 40.021-9.648-14.918 39.063zm-25.103-29.415 40.021-9.648-14.918 39.063z"/><path fill="#FFF" d="m1015.815 900.263 40.021-9.648-14.918 39.063z"/><circle cx="1291.905" cy="671.044" r="6.972"/><path fill="#FFF" d="M1276.404 801.788 1158.471 660.85c-7.366-8.803-6.201-21.91 2.602-29.276l17.41-14.568c8.803-7.366 21.91-6.201 29.276 2.602l117.933 140.938c7.366 8.803 6.201 21.91-2.602 29.276l-17.41 14.568c-8.803 7.365-21.91 6.2-29.276-2.602z"/><path fill="#FF8630" d="M1206.836 671.428c-10.19 7.535-24.464 5.17-31.889-5.278-7.424-10.448-5.188-25.022 5.001-32.557 10.187-7.533 24.463-5.169 31.887 5.279 7.426 10.447 5.188 25.023-4.999 32.556z"/><path d="M1190.545 647.123c-1.651 1.221-3.965.838-5.168-.855-1.203-1.693-.841-4.056.811-5.277 1.651-1.221 3.965-.838 5.168.856 1.203 1.693.84 4.055-.811 5.276zm8.103 8.759c-1.651 1.221-2.014 3.584-.811 5.277 1.203 1.693 3.517 2.077 5.168.855 1.651-1.221 2.014-3.583.81-5.277-1.202-1.692-3.516-2.076-5.167-.855z"/><path fill="#FFF" d="M1194.058 661.529a7.343 7.343 0 1 1-9.425-11.263l9.425 11.263z"/><path fill="#FF8630" d="M1307.113 780.407c-.571 0-1.14-.244-1.535-.717l-83.232-99.467a1.999 1.999 0 1 1 3.068-2.566l83.232 99.467a1.999 1.999 0 0 1-1.533 3.283zm-24.761-7.863c-.571 0-1.14-.244-1.535-.717l-69.164-82.655a1.999 1.999 0 1 1 3.068-2.566l69.164 82.655a1.999 1.999 0 0 1-1.533 3.283z"/></svg>
