<svg xmlns="http://www.w3.org/2000/svg" xml:space="preserve" viewBox="0 0 1080 1080"><path fill="#FFF" d="M196.088 234.412a2 2 0 0 1-.509-3.934c.294-.078 29.774-7.973 62.89-26.611 30.437-17.131 70.275-47.114 87.227-92.669a1.999 1.999 0 1 1 3.748 1.394c-17.385 46.723-58.049 77.347-89.102 94.81-17.812 10.019-34.597 16.972-46.467 21.303 20.134-2.616 55.014-9.117 92.722-25.015 34.256-14.442 64.116-33.704 88.75-57.249 30.769-29.408 53.44-65.64 67.386-107.688a2.001 2.001 0 0 1 3.797 1.259c-14.163 42.702-37.203 79.503-68.479 109.378-25.007 23.887-55.296 43.414-90.027 58.04-59.086 24.882-111.343 26.962-111.864 26.98-.025.002-.049.002-.072.002z"/><path fill="#FFF" d="M196.091 234.412a2 2 0 0 1-1.445-3.384c.429-.446 42.81-45.54 40.104-117.672a2.001 2.001 0 0 1 1.924-2.074 2.012 2.012 0 0 1 2.074 1.924c1.447 38.604-9.811 69.306-19.51 88.264-4.722 9.229-9.486 16.592-13.344 21.944 44.564-31.648 67.197-69.614 78.466-96.79 13.181-31.79 14.104-56.107 14.111-56.35.036-1.104.946-1.953 2.062-1.936a2 2 0 0 1 1.936 2.062c-.031 1.012-.929 25.153-14.344 57.584-12.363 29.89-38.181 72.562-90.964 106.116-.33.211-.702.312-1.07.312z"/><path fill="#FFF" d="M265.787 347.949a2.002 2.002 0 0 1-1.893-1.354c-8.757-25.627-23.836-62.034-45.945-89.948-7.037-8.886-13.044-14.678-17.135-18.159 20.014 49.324 24.036 97.16 24.075 97.66a1.997 1.997 0 0 1-1.833 2.152 1.987 1.987 0 0 1-2.153-1.833c-.042-.517-4.4-52.234-26.647-103.255a2 2 0 0 1 2.848-2.524c1.605.944 39.673 24.174 70.576 114.613a2 2 0 0 1-1.893 2.648zm728.302-113.537-.07-.001c-.521-.019-52.778-2.099-111.864-26.98-34.731-14.626-65.021-34.153-90.028-58.04-31.276-29.875-54.316-66.676-68.479-109.378a2 2 0 1 1 3.797-1.259c13.946 42.048 36.618 78.28 67.386 107.688 24.635 23.545 54.494 42.807 88.751 57.249 37.708 15.897 72.587 22.398 92.722 25.015-11.87-4.331-28.654-11.284-46.468-21.303-31.052-17.463-71.717-48.087-89.102-94.81a1.998 1.998 0 0 1 1.177-2.571 1.998 1.998 0 0 1 2.571 1.177c9.356 25.145 32.085 61.633 87.228 92.669 33.115 18.639 62.596 26.533 62.89 26.611a2.001 2.001 0 0 1 1.469 2.226 2.005 2.005 0 0 1-1.98 1.707z"/><path fill="#FFF" d="M994.086 234.412c-.368 0-.74-.102-1.071-.312-52.783-33.555-78.601-76.227-90.964-106.116-13.415-32.431-14.312-56.572-14.344-57.584a2.001 2.001 0 0 1 1.936-2.062c1.08-.023 2.026.832 2.062 1.936.008.242.931 24.56 14.111 56.35 11.269 27.176 33.901 65.142 78.466 96.79-3.857-5.353-8.622-12.715-13.344-21.944-9.699-18.958-20.957-49.659-19.51-88.264a2 2 0 0 1 3.998.15c-2.705 72.132 39.676 117.226 40.104 117.672a2 2 0 0 1-1.444 3.384z"/><path fill="#FFF" d="M947.369 485.548c-.278-16.404-.264-49.594 2.939-87.911 6.68-79.942 22.495-127.933 36.398-155.767-8.97 8.839-23.832 25.177-39.244 49.401-21.763 34.208-48.941 91.332-57.353 171.673l-3.934-.835c8.554-80.991 36.018-138.617 58.022-173.156 24.868-39.035 48.414-57.923 48.649-58.109a2 2 0 0 1 2.968 2.579c-44.495 75.953-45.081 216.64-44.405 253.726l-4.04-1.601z"/><path fill="#FF8630" d="M672.557 181.679c0-42.854-34.615-77.619-77.411-77.871v-.006c-.078 0-.155.003-.233.003-.078 0-.155-.003-.233-.003v.006c-42.795.251-77.411 35.016-77.411 77.871s34.615 77.619 77.411 77.871v.006c.078 0 .155-.003.233-.003.078 0 .155.003.233.003v-.006c42.795-.252 77.411-35.017 77.411-77.871z"/><path fill="#FFD829" d="M451.853 383.478h143.523v4H451.853z"/><path fill="#FFF" d="M705.915 288.678c-17.032-20.701-21.755-48.588-13.106-73.907a101.914 101.914 0 0 0 5.425-30.183C699.81 127.44 653.629 79.85 596.481 78.914v-.009c-.118-.002-.235.001-.353 0-.404-.005-.811 0-1.216-.001-.405.001-.812-.005-1.216.001h-.353v.009c-57.147.936-103.329 48.526-101.752 105.675a101.946 101.946 0 0 0 5.425 30.183c8.648 25.319 3.926 53.206-13.106 73.907-20.208 24.561-32.331 55.943-32.331 90.141 0 2.059.054 4.106.141 6.144h286.384c.087-2.038.141-4.085.141-6.144.001-34.198-12.122-65.581-32.33-90.142zm-111.002-31.223c-41.354-.831-74.623-34.387-74.623-75.674 0-41.287 33.268-74.849 74.623-75.679 41.355.83 74.623 34.392 74.623 75.679s-33.269 74.843-74.623 75.674z"/><path d="m625.424 463.313 19.953-51.929c7.456-19.404 27.084-29.836 46.66-23.61l42.226 16.533c2.52-7.26 3.423-9.542 3.841-19.343H451.722c3.236 75.785 66.021 136.255 143.061 136.392v.003l.13-.002.13.002v-.003c3.912-.007 4.239.316 8.072.003l9.084-23.105 13.225-34.941zm1.847-68.644c9.291 0 16.823 7.484 16.823 16.715s-7.532 16.715-16.823 16.715-16.823-7.483-16.823-16.715 7.532-16.715 16.823-16.715zm-31.895 38.867c9.291 0 16.823 7.484 16.823 16.715s-7.532 16.715-16.823 16.715-16.823-7.483-16.823-16.715 7.532-16.715 16.823-16.715zm-32.821-38.867c9.291 0 16.823 7.484 16.823 16.715s-7.532 16.715-16.823 16.715-16.823-7.483-16.823-16.715 7.531-16.715 16.823-16.715zm0 77.258c9.291 0 16.823 7.483 16.823 16.715 0 9.231-7.532 16.715-16.823 16.715s-16.823-7.484-16.823-16.715c-.001-9.232 7.531-16.715 16.823-16.715zm-38.524-38.391c9.291 0 16.823 7.484 16.823 16.715s-7.532 16.715-16.823 16.715-16.823-7.483-16.823-16.715 7.532-16.715 16.823-16.715zm-55.205-22.161c0-9.232 7.532-16.715 16.823-16.715s16.823 7.483 16.823 16.715c0 9.231-7.532 16.715-16.823 16.715s-16.823-7.484-16.823-16.715zm102.62-236.909c0 5.486-4.475 9.93-9.995 9.93s-9.995-4.444-9.995-9.93c0-5.484 4.475-9.929 9.995-9.929s9.995 4.445 9.995 9.929z"/><path d="M581.158 177.59a2.5 2.5 0 0 1-2.059-1.079 21.755 21.755 0 0 0-17.904-9.374 21.759 21.759 0 0 0-17.904 9.374 2.501 2.501 0 0 1-4.114-2.842 26.755 26.755 0 0 1 22.018-11.532 26.758 26.758 0 0 1 22.018 11.532 2.5 2.5 0 0 1-2.055 3.921z"/><path d="M555.317 167.854c-.686 0-1.367-.28-1.861-.83l-9.971-11.106a2.5 2.5 0 0 1 3.72-3.34l9.971 11.106a2.5 2.5 0 0 1-1.859 4.17zm-9.184 4.509a2.49 2.49 0 0 1-1.356-.401l-8.229-5.326a2.5 2.5 0 0 1 2.717-4.197l8.229 5.326a2.5 2.5 0 0 1-1.361 4.598z"/><ellipse cx="554.395" cy="206.096" fill="#FFF" rx="16.449" ry="16.343"/><ellipse cx="635.431" cy="206.096" fill="#FFF" rx="16.449" ry="16.343"/><path d="M619.775 174.466c0 5.486 4.475 9.93 9.995 9.93s9.995-4.444 9.995-9.93c0-5.484-4.475-9.929-9.995-9.929s-9.995 4.445-9.995 9.929z"/><path d="M610.062 177.59a2.5 2.5 0 0 1-2.055-3.921 26.754 26.754 0 0 1 22.018-11.532 26.759 26.759 0 0 1 22.018 11.532 2.5 2.5 0 1 1-4.114 2.842 21.76 21.76 0 0 0-17.904-9.374 21.753 21.753 0 0 0-17.904 9.374 2.498 2.498 0 0 1-2.059 1.079z"/><path d="M635.903 167.854a2.5 2.5 0 0 1-1.859-4.17l9.971-11.106a2.5 2.5 0 1 1 3.72 3.34l-9.971 11.106c-.494.55-1.175.83-1.861.83zm9.185 4.509a2.5 2.5 0 0 1-1.361-4.599l8.229-5.326a2.5 2.5 0 1 1 2.717 4.197l-8.229 5.326c-.42.272-.89.402-1.356.402zm-49.748 38.959h-.854c-.162 0-.321-.016-.476-.045a19.48 19.48 0 0 1-14.704-8.354 2.5 2.5 0 1 1 4.114-2.842c2.62 3.79 6.892 6.1 11.493 6.234a14.485 14.485 0 0 0 11.493-6.234 2.497 2.497 0 0 1 3.478-.636 2.5 2.5 0 0 1 .636 3.478 19.483 19.483 0 0 1-14.704 8.354c-.155.03-.314.045-.476.045zm-8.703 350.343 16.478-40.306H343.627v40.306z"/><path fill="#FFF" d="M550.182 541.512h44.731l7.744-20.153h-68.836v3.792c0 9.036 7.325 16.361 16.361 16.361z"/><path d="M992.454 0H197.372c-16.284 0-29.484 13.201-29.484 29.484v318.202c8.999-1.706 17.03-2.577 28.201-2.891V39.383h797.79v463.973l28.061 10.782V29.484C1021.939 13.201 1008.738 0 992.454 0zM594.913 26.885a7.235 7.235 0 1 1 0-14.47 7.235 7.235 0 1 1 0 14.47z"/><path fill="#FF8630" d="m828.7 210.307.003-.008s-31.446-13.646-73.983 8.96c0 0-22.355 10.006-50.544-8.594 0 0 13.345 78.902 85.373 103.597l.004-.012a55.367 55.367 0 0 0 20.714 4.007c30.678 0 55.548-24.87 55.548-55.548.001-24.215-15.499-44.799-37.115-52.402zm-64.554 56.494c-1.04-.254-1.552-1.187-1.274-2.321l2.236-9.134-9.476-2.32-2.236 9.134c-.278 1.134-1.178 1.721-2.241 1.46-1.039-.254-1.551-1.187-1.274-2.321l5.102-20.842c.277-1.133 1.163-1.724 2.202-1.47 1.063.26 1.591 1.197 1.313 2.33l-2.054 8.389 9.477 2.32 2.054-8.389c.278-1.133 1.163-1.724 2.202-1.469 1.063.26 1.591 1.197 1.313 2.33l-5.102 20.842c-.278 1.135-1.178 1.722-2.242 1.461zm26.1-15.535c-1.414-.346-6.041-1.554-9.42-2.435l-1.758-.459-1.634 6.673 1.865.427c2.509.574 5.352 1.224 6.315 1.46 1.092.267 1.685 1.153 1.44 2.153-.245 1-1.179 1.512-2.271 1.245a611.14 611.14 0 0 1-5.486-1.418l-2.64-.688-1.759 7.184 2.944.674c3.136.718 7.04 1.612 8.307 1.922 1.093.267 1.685 1.153 1.44 2.153-.245 1-1.179 1.512-2.272 1.245l-12.913-3.161c-1.087-.266-1.638-1.175-1.372-2.261l4.872-19.9c.266-1.087 1.175-1.638 2.261-1.372l12.913 3.161c1.093.267 1.685 1.153 1.44 2.153-.245.999-1.18 1.511-2.272 1.244zm18.103 23.973c-.245 1-1.179 1.512-2.272 1.245l-12.913-3.161c-1.087-.266-1.638-1.175-1.372-2.262l4.987-20.371c.277-1.133 1.162-1.724 2.202-1.469 1.063.26 1.591 1.197 1.314 2.33l-4.636 18.939 1.865.427c3.369.771 7.983 1.826 9.386 2.17 1.092.267 1.684 1.152 1.439 2.152zm20.604 5.045c-.245 1-1.179 1.512-2.272 1.244l-12.913-3.161c-1.087-.266-1.638-1.175-1.372-2.261l4.987-20.371c.277-1.133 1.163-1.724 2.202-1.469 1.063.26 1.591 1.197 1.314 2.33l-4.636 18.939 1.865.427c3.369.771 7.983 1.826 9.386 2.17 1.092.266 1.684 1.151 1.439 2.152zm11.132 5.108c-5.705-1.397-8.206-7.142-6.372-14.635 1.829-7.47 6.697-11.394 12.402-9.997 5.706 1.397 8.211 7.126 6.382 14.596-1.834 7.493-6.706 11.433-12.412 10.036z"/><path fill="#FF8630" d="M845.293 264.118c-3.522-.862-6.657 2.089-7.986 7.518-1.335 5.453.078 9.534 3.6 10.397 3.522.862 6.661-2.104 7.996-7.558 1.33-5.428-.087-9.494-3.61-10.357z"/><path fill="#FFF" d="M345.627 663.873H98.98V374.188h4c0 13.638 47.947 28.24 119.323 28.24s119.323-14.603 119.323-28.24h4v289.685zm-242.647-4h238.646V382.694c-14.729 15.017-67.779 23.734-119.323 23.734s-104.594-8.718-119.323-23.734v277.179z"/><path fill="#FFF" d="m327.392 391.486-.791-.341c-21.413-9.226-61.378-14.957-104.298-14.957-42.919 0-82.884 5.731-104.297 14.957l-.791.341-.791-.341c-11.575-4.987-17.444-10.692-17.444-16.957 0-20.181 62.703-32.24 123.323-32.24s123.323 12.06 123.323 32.24c0 6.265-5.868 11.97-17.443 16.957l-.791.341zm-105.088-45.538c-71.376 0-119.323 14.603-119.323 28.24 0 4.271 5.052 8.853 14.247 12.942 22.062-9.227 62.176-14.942 105.076-14.942 42.901 0 83.016 5.716 105.077 14.942 9.195-4.09 14.246-8.671 14.246-12.942 0-13.637-47.947-28.24-119.323-28.24z"/><ellipse cx="222.304" cy="389.309" rx="105.088" ry="15.12"/><path fill="#FFF" d="M222.304 406.429c-43.431 0-84.001-5.856-105.879-15.283l-4.264-1.837 4.264-1.837c21.88-9.427 62.45-15.283 105.879-15.283s84 5.856 105.88 15.283l4.264 1.837-4.264 1.837c-21.878 9.426-62.449 15.283-105.88 15.283zm-99.665-17.12c22.24 8.144 59.67 13.12 99.665 13.12 39.996 0 77.426-4.977 99.666-13.12-22.242-8.143-59.672-13.12-99.666-13.12-39.994-.001-77.423 4.977-99.665 13.12zm-21.91 229.451C45.187 618.76 0 573.573 0 518.031s45.187-100.729 100.729-100.729v51.77c-26.997 0-48.96 21.964-48.96 48.96s21.963 48.96 48.96 48.96v51.768z"/><path fill="#FF8630" d="m221.023 460.611-.028.048v-.048c-15.807 0-28.621 12.814-28.621 28.621 0 15.807 12.814 28.621 28.621 28.621v-.048l.028.048c15.807 0 28.621-12.814 28.621-28.621 0-15.807-12.814-28.621-28.621-28.621z"/><path fill="#FFF" d="M220.051 504.867c7.017 0 11.398-2.902 11.398-8.822h-11.398v8.822z"/><path d="M227.585 485.822c0 2.114 1.73 3.827 3.864 3.827s3.864-1.713 3.864-3.827-1.73-3.827-3.864-3.827-3.864 1.713-3.864 3.827z"/><path fill="#FFF" d="M221.01 504.867c-7.017 0-11.398-2.902-11.398-8.822h11.398v8.822z"/><path d="M213.476 485.822c0 2.114-1.73 3.827-3.864 3.827s-3.864-1.713-3.864-3.827 1.73-3.827 3.864-3.827c2.133 0 3.864 1.713 3.864 3.827z"/><path fill="#FFF" d="M272.343 561.665H169.677c1.15 26.843 23.61 48.654 50.891 49.118v.022c.148 0 .294-.01.442-.011.148.001.294.011.442.011v-.022c27.281-.464 49.741-22.275 50.891-49.118z"/><path d="M260.795 527.23c-6.11-7.403-7.804-17.377-4.702-26.431a36.331 36.331 0 0 0 1.946-10.794c.565-20.414-15.966-37.408-36.433-37.781v-.015c-.2-.003-.398.007-.597.007-.199 0-.397-.01-.597-.007v.015c-20.468.373-36.998 17.366-36.433 37.781a36.358 36.358 0 0 0 1.946 10.794c3.103 9.055 1.408 19.028-4.702 26.431-7.249 8.784-11.598 20.007-11.598 32.237a50 50 0 0 0 .051 2.197h102.666c.031-.729.051-1.461.051-2.197 0-12.229-4.348-23.453-11.598-32.237zm-39.785-11.172c-14.819-.316-26.735-12.304-26.735-27.058s11.917-26.742 26.735-27.058c14.819.316 26.735 12.304 26.735 27.058s-11.917 26.743-26.735 27.058z"/><circle cx="164.144" cy="524.939" r="14.8" fill="#FF8630"/><circle cx="277.918" cy="524.939" r="14.8" fill="#FF8630"/><path fill="#FFF" d="M868.934 1044.307c-4.753 0-9.581-.854-14.277-2.658L496.266 903.942c-9.956-3.826-17.827-11.3-22.163-21.046-4.335-9.746-4.616-20.597-.79-30.554L643.51 409.386c7.899-20.555 31.045-30.849 51.601-22.953l358.392 137.705c9.956 3.826 17.827 11.3 22.163 21.046 4.335 9.746 4.616 20.598.79 30.555l-170.197 442.956c-6.095 15.858-21.27 25.612-37.325 25.612zm-12.841-6.393c18.493 7.108 39.324-2.159 46.431-20.655l170.197-442.956c3.443-8.959 3.19-18.724-.711-27.493s-10.983-15.495-19.943-18.938L693.675 390.167c-18.494-7.108-39.324 2.158-46.431 20.654L477.047 853.778c-3.443 8.959-3.19 18.723.711 27.492s10.983 15.495 19.943 18.938l358.392 137.706z"/><path fill="#FF8630" d="m1019.147 536.809-43.807-16.936-43.807-16.936-43.807-16.936-43.807-16.936-43.807-16.936-43.807-16.936-43.807-16.936-36.114-13.962a8.248 8.248 0 0 0-10.668 4.719l-2.335 6.039c-4.972 12.862 1.549 27.299 14.71 31.416 11.707 3.662 24.406-2.346 28.893-13.952-4.677 12.097 1.339 25.695 13.436 30.372s25.695-1.339 30.372-13.436c-4.677 12.097 1.339 25.695 13.436 30.372s25.695-1.339 30.372-13.436c-4.677 12.097 1.339 25.695 13.436 30.372s25.695-1.339 30.372-13.436c-4.677 12.097 1.339 25.695 13.436 30.372s25.695-1.339 30.372-13.436c-4.677 12.097 1.339 25.695 13.436 30.372s25.695-1.339 30.372-13.436c-4.677 12.097 1.339 25.695 13.436 30.372s25.695-1.339 30.372-13.436c-4.677 12.097 1.339 25.695 13.436 30.372s25.695-1.339 30.372-13.436c-4.487 11.606.868 24.594 11.994 29.759 12.507 5.806 27.045-.49 32.017-13.351l2.276-5.887a8.41 8.41 0 0 0-4.812-10.877l-35.968-13.904z"/><path fill="#FFF" d="M675.462 406.026c1.26 0 2.504.232 3.695.69l372.61 143.168a10.247 10.247 0 0 1 5.723 5.434 10.244 10.244 0 0 1 .204 7.889l-173.761 452.229c-1.521 3.958-5.39 6.617-9.629 6.617-1.26 0-2.503-.232-3.695-.69L498 878.196c-5.307-2.039-7.966-8.016-5.927-13.324l173.761-452.229c1.52-3.958 5.39-6.617 9.628-6.617m0-4c-5.751 0-11.176 3.492-13.362 9.182l-173.761 452.23c-2.835 7.378.848 15.657 8.226 18.492l372.61 143.168c1.688.649 3.423.956 5.13.956 5.751 0 11.176-3.492 13.362-9.182l173.761-452.229c2.835-7.378-.848-15.657-8.226-18.492l-372.61-143.168a14.247 14.247 0 0 0-5.13-.957z"/><path fill="#FF8630" d="m535.068 833.669-13.657-16.382-12.68 6.777a8.85 8.85 0 0 1-10.969-2.138l-52.975-63.543a8.85 8.85 0 0 1 .057-11.402l9.069-10.657-16.821-20.177c-7.05-8.456-19.62-9.596-28.077-2.547L166.812 915.524c-8.456 7.05-9.596 19.62-2.546 28.077l97.976 117.521c7.05 8.456 19.62 9.596 28.077 2.546l242.204-201.922c8.455-7.05 9.595-19.62 2.545-28.077zm-131.331 85.364a58.808 58.808 0 0 1-15.288 9.291c-14.389 5.96-24.798 18.9-27.359 34.557-3.039 18.577-12.153 36.185-27.128 49.462-.902.8-1.818 1.57-2.744 2.322-34.277 27.858-85.267 23.338-114.802-10.686l-.007.006-.231-.277c-.079-.091-.159-.18-.237-.271l.007-.006c-28.967-34.527-26.294-86.625 5.522-117.366a84.104 84.104 0 0 1 2.636-2.448c14.975-13.277 33.346-20.037 51.817-20.531 15.568-.416 29.583-9.13 37.367-22.83a60.007 60.007 0 0 1 11.145-14.146c24.72-23.171 63.833-20.648 85.928 5.431 22.28 25.917 19.313 65.748-6.626 87.492z"/><path fill="#FFF" d="M546.822 834.478 438.411 704.44c-7.05-8.456-19.62-9.596-28.077-2.547L155.057 914.716c-8.456 7.05-9.596 19.62-2.546 28.076l108.411 130.038c7.05 8.456 19.62 9.596 28.076 2.547l255.277-212.822c8.457-7.05 9.597-19.621 2.547-28.077zm-14.301 27.268-242.204 201.922c-8.456 7.05-21.027 5.91-28.077-2.546l-97.976-117.521c-7.05-8.456-5.91-21.026 2.546-28.077l242.204-201.922c8.456-7.05 21.027-5.91 28.077 2.547l16.821 20.177 11.423 13.702 56.074 67.261 13.657 16.382c7.052 8.455 5.912 21.025-2.545 28.075z"/><path fill="#FFF" d="m444.787 758.385 52.975 63.543a8.85 8.85 0 0 0 10.969 2.138l12.68-6.777-56.074-67.261-11.423-13.702-9.069 10.657a8.849 8.849 0 0 0-.058 11.402zm9.126-22.06 11.423 13.702zm-58.88 168.883c-18.255 16.185-46.03 14.082-62.047-4.686-16.017-18.768-14.213-47.097 4.043-63.282 18.251-16.181 46.028-14.08 62.045 4.689 16.016 18.767 14.209 47.097-4.041 63.279z"/><path d="M361.124 861.173c-2.959 2.623-7.461 2.282-10.057-.76s-2.304-7.634.655-10.257c2.958-2.623 7.46-2.282 10.056.76 2.597 3.042 2.304 7.634-.654 10.257z"/><path fill="#FFF" d="M364.891 813.708c16.515 0 32.159 7.285 42.94 20.009 10.225 11.895 15.144 27.161 13.85 42.986-1.269 15.529-8.388 29.462-20.045 39.233a55.091 55.091 0 0 1-14.319 8.703c-15.934 6.601-27.112 20.719-29.901 37.765-2.976 18.194-12.065 34.877-25.611 47.031l-52.518-61.54-.032-.038-52.611-61.649c13.687-12.037 31.171-18.928 49.272-19.412 16.994-.455 32.287-9.784 40.909-24.956a56.294 56.294 0 0 1 10.454-13.268c10.226-9.585 23.584-14.864 37.612-14.864m0-4c-14.462 0-28.931 5.245-40.348 15.946a60.263 60.263 0 0 0-11.196 14.21c-7.821 13.762-21.899 22.516-37.538 22.934-18.555.496-37.01 7.287-52.054 20.625a83.785 83.785 0 0 0-2.648 2.46l55.105 64.572.038.044 55.105 64.572a84.63 84.63 0 0 0 2.757-2.333c15.044-13.338 24.199-31.026 27.252-49.688 2.573-15.729 13.029-28.728 27.484-34.715a59.057 59.057 0 0 0 15.358-9.333c26.057-21.843 29.038-61.856 6.658-87.892-11.992-14.155-28.977-21.402-45.973-21.402z"/><path d="m331.355 1015.071-55.105-64.572-.038-.044-55.105-64.572c-31.962 30.882-34.647 83.217-5.548 117.902l-.007.006c.079.092.16.181.238.272.078.092.153.186.232.278l.007-.006c29.67 34.18 80.893 38.721 115.326 10.736z"/><path fill="#FF8630" d="M345.733 871.808c-1.27 2.841-2.503 8.09 2.676 14.158 4.822 5.651 10.829 5.995 13.765 5.107l-16.441-19.265z"/><path d="M376.478 878.265c-2.959 2.623-3.251 7.215-.655 10.257s7.098 3.383 10.057.76c2.958-2.623 3.251-7.215.655-10.257s-7.099-3.383-10.057-.76z"/><path fill="#FFF" d="m241.79 905.685 10.877-28.482-29.181 7.034zm18.303 21.448 10.878-28.483-29.181 7.035zm18.304 21.447 10.877-28.482-29.181 7.035zm36.607 42.896 29.181-7.034-10.878 28.482zM296.7 970.028l29.182-7.034-10.878 28.482zm-18.303-21.448 29.181-7.034-10.878 28.482z"/><circle cx="479.706" cy="781.447" r="5.083"/><path fill="#FFF" d="m464.791 872.46-78.766-94.13c-7.366-8.803-6.201-21.91 2.602-29.276l4.06-3.397c8.803-7.366 21.91-6.201 29.276 2.602l78.766 94.13c7.366 8.803 6.201 21.91-2.602 29.276l-4.06 3.397c-8.802 7.366-21.91 6.201-29.276-2.602z"/><path fill="#FF8630" d="M417.679 781.726c-7.43 5.494-17.838 3.769-23.251-3.848-5.414-7.618-3.783-18.245 3.647-23.739 7.428-5.493 17.837-3.769 23.251 3.849 5.412 7.618 3.781 18.246-3.647 23.738z"/><path d="M405.8 764.005c-1.204.891-2.891.611-3.769-.624-.877-1.235-.613-2.957.591-3.848 1.204-.89 2.891-.611 3.768.624s.614 2.957-.59 3.848zm5.909 6.386c-1.204.89-1.468 2.613-.591 3.848.877 1.235 2.564 1.514 3.769.624 1.204-.89 1.468-2.613.591-3.847s-2.565-1.515-3.769-.625z"/><path fill="#FFF" d="M408.362 774.509a5.355 5.355 0 1 1-6.873-8.213l6.873 8.213z"/><path fill="#FF8630" d="M490.796 861.73c-.571 0-1.14-.244-1.535-.717l-60.688-72.526a1.999 1.999 0 1 1 3.068-2.566l60.688 72.526a1.999 1.999 0 0 1-1.533 3.283zm-18.055-5.733c-.571 0-1.14-.244-1.535-.717l-50.431-60.269a1.999 1.999 0 1 1 3.068-2.566l50.431 60.269a1.999 1.999 0 0 1-1.533 3.283zm412.234-202.533c17.124-44.294-3.962-93.944-47.172-112.621l.027-.07a85.533 85.533 0 0 0-1.641-.61 85.968 85.968 0 0 0-1.625-.652l-.027.07c-44.536-15.247-93.537 7.308-110.661 51.602-17.124 44.294 3.962 93.944 47.172 112.621l-.027.07c.546.211 1.093.411 1.641.61.539.221 1.079.441 1.625.652l.027-.07c44.536 15.246 93.537-7.308 110.661-51.602z"/><path fill="#FFF" d="m867.834 872.061-107.772-41.665-31.185-12.056-139.36-53.877c-25.055 74.09 13.501 156.983 87.631 186.06l-.003.008.345.129c.115.045.227.093.342.137l.005-.008c74.411 28.348 158.699-7.053 189.997-78.728z"/><path d="M829.745 674.442c-4.613-7.275-7.538-17.035-5.163-23.179 1.929-4.989 6.375-6.347 10.052-4.925 3.307 1.279 4.776 3.414 5.439 5.602 1.962-1.173 4.589-1.725 7.898-.446 3.675 1.421 6.054 5.417 4.125 10.406-2.375 6.144-11.107 11.397-19.412 13.678-.74.198-1.273.171-1.745-.011-.367-.142-.78-.48-1.194-1.125z"/><path fill="#FFF" d="m796.398 637.935-17.336-6.702c-3.696 9.56-.383 18.841 10.949 23.222s20.026-.257 23.722-9.817l-17.335-6.703z"/><path d="M784.596 604.891c-2.203 5.697-8.649 8.51-14.399 6.287s-8.628-8.641-6.425-14.338c2.202-5.696 8.648-8.51 14.399-6.286 5.75 2.222 8.627 8.641 6.425 14.337z"/><path d="M794.547 611.984a2.502 2.502 0 0 1-2.428-1.914c-1.891-7.822-7.523-14.233-15.068-17.149-7.547-2.92-16.025-1.963-22.688 2.554a2.5 2.5 0 1 1-2.805-4.139c8.019-5.437 18.225-6.586 27.295-3.079 9.074 3.508 15.85 11.224 18.125 20.64a2.5 2.5 0 0 1-2.431 3.087z"/><path d="M771.54 591.467a2.5 2.5 0 0 1-2.336-1.61l-5.928-15.55a2.5 2.5 0 0 1 1.445-3.227 2.506 2.506 0 0 1 3.227 1.445l5.928 15.55a2.5 2.5 0 0 1-2.336 3.392zm-11.374.984a2.494 2.494 0 0 1-2.023-1.029l-6.434-8.847a2.5 2.5 0 0 1 4.043-2.941l6.434 8.847a2.5 2.5 0 0 1-2.02 3.97zm-13.044 50.712c-.472-.183-.885-.521-1.299-1.166-4.611-7.274-7.538-17.035-5.163-23.179 1.929-4.989 6.377-6.346 10.052-4.925 3.309 1.279 4.881 3.455 5.544 5.642 1.962-1.173 4.486-1.765 7.793-.486 3.677 1.421 6.054 5.417 4.125 10.406-2.375 6.144-11.105 11.398-19.412 13.678-.74.199-1.272.172-1.64.03zm81.833-21.123c-2.203 5.697.675 12.115 6.425 14.338 5.75 2.223 12.197-.59 14.399-6.287 2.202-5.696-.675-12.114-6.426-14.337-5.749-2.224-12.196.59-14.398 6.286z"/><path d="M860.088 637.322a2.502 2.502 0 0 1-2.428-1.913c-1.893-7.823-7.525-14.234-15.069-17.15-7.546-2.92-16.027-1.963-22.686 2.554a2.501 2.501 0 0 1-2.807-4.139c8.019-5.438 18.222-6.586 27.295-3.079 9.072 3.508 15.849 11.223 18.126 20.639a2.5 2.5 0 0 1-2.431 3.088z"/><path d="M849.331 621.54a2.5 2.5 0 0 1-1.131-4.731l14.845-7.519a2.5 2.5 0 1 1 2.259 4.461l-14.845 7.519c-.362.183-.748.27-1.128.27zm7.749 8.381a2.502 2.502 0 0 1-.504-4.949l10.712-2.218a2.499 2.499 0 1 1 1.014 4.896l-10.712 2.218a2.546 2.546 0 0 1-.51.053z"/><path d="M871.616 766.877c-8.751-26.311-2.927-54.948 14.864-76.113a105.01 105.01 0 0 0 16.488-27.056c22.753-54.335-3.956-117.258-58.552-139.67l.008-.02c-.261-.105-.523-.201-.785-.304-.314-.126-.633-.244-.949-.367-.317-.121-.632-.248-.949-.366-.263-.1-.521-.205-.785-.303l-.008.02c-55.474-20.141-117.563 8.451-137.277 63.961a105.025 105.025 0 0 0-6 31.111c-1.073 27.629-16.026 52.736-40.2 66.318-28.682 16.115-52.09 41.825-64.83 74.778a148.281 148.281 0 0 0-2.152 5.973l.028.011 6.126 53.022 40.199-35.112.019.007 6.127 53.022 40.199-35.112.019.007 6.127 53.022 38.711-33.812 5.9 51.059 40.199-35.112.019.007 6.126 53.022 40.199-35.112.019.007 6.126 53.022 40.199-35.112.028.011a148.489 148.489 0 0 0 2.425-5.867c12.741-32.954 12.715-67.724 2.332-98.942zm-95.439-71.485c-39.517-16.328-59.073-61.003-43.721-100.714 15.353-39.712 59.877-59.621 100.101-45.12 39.518 16.327 59.071 61.009 43.718 100.721-15.352 39.711-59.874 59.613-100.098 45.113z"/><path fill="#FF8630" d="M826.732 749.515a2 2 0 0 1-1.866-2.722l8.48-21.938a2.001 2.001 0 0 1 3.731 1.441l-8.48 21.938a2 2 0 0 1-1.865 1.281z"/><path fill="#FF8630" d="M841.941 742.786a1.99 1.99 0 0 1-.721-.136l-21.938-8.48a2 2 0 0 1 1.441-3.731l21.938 8.48a2 2 0 0 1-.72 3.867z"/><path fill="#FF8630" d="M835.731 749.3a2 2 0 0 1-1.83-1.191l-9.515-21.509a2.001 2.001 0 0 1 3.659-1.619l9.515 21.509a2.001 2.001 0 0 1-1.829 2.81z"/><path fill="#FF8630" d="M820.22 743.303a2 2 0 0 1-.81-3.83l21.509-9.515a2.001 2.001 0 0 1 1.619 3.659l-21.509 9.515a2.024 2.024 0 0 1-.809.171zm13.912 81.143a2 2 0 0 1-1.866-2.722l8.48-21.937a2 2 0 0 1 3.731 1.441l-8.48 21.937a2 2 0 0 1-1.865 1.281z"/><path fill="#FF8630" d="M849.341 817.718a1.99 1.99 0 0 1-.721-.136l-21.938-8.48a2 2 0 0 1 1.441-3.731l21.938 8.48a2 2 0 0 1-.72 3.867z"/><path fill="#FF8630" d="M843.131 824.232a2 2 0 0 1-1.83-1.191l-9.516-21.509a2.001 2.001 0 0 1 3.659-1.619l9.516 21.509a2.001 2.001 0 0 1-1.829 2.81z"/><path fill="#FF8630" d="M827.619 818.235a2 2 0 0 1-.81-3.83l21.508-9.515a2 2 0 1 1 1.619 3.659l-21.508 9.515a2.004 2.004 0 0 1-.809.171zm-55.994-15.748a2 2 0 0 1-1.866-2.723l8.481-21.937a2 2 0 0 1 3.731 1.443l-8.481 21.937a2 2 0 0 1-1.865 1.28z"/><path fill="#FF8630" d="M786.834 795.76c-.24 0-.484-.044-.722-.136l-21.937-8.481a2 2 0 0 1 1.443-3.731l21.937 8.481a2 2 0 0 1-.721 3.867z"/><path fill="#FF8630" d="M780.624 802.273a2 2 0 0 1-1.83-1.191l-9.515-21.509a2.001 2.001 0 0 1 3.659-1.619l9.515 21.509a2.001 2.001 0 0 1-1.829 2.81z"/><path fill="#FF8630" d="M765.112 796.276a2 2 0 0 1-.81-3.83l21.509-9.515a2.002 2.002 0 0 1 1.619 3.659l-21.509 9.515a2.004 2.004 0 0 1-.809.171zm-60.055-93.801a2 2 0 0 1-1.866-2.723l8.481-21.938a2 2 0 0 1 3.731 1.443l-8.481 21.938a2 2 0 0 1-1.865 1.28z"/><path fill="#FF8630" d="M720.266 695.746a1.99 1.99 0 0 1-.721-.136l-21.937-8.48a2 2 0 0 1 1.441-3.731l21.937 8.48a2 2 0 0 1-.72 3.867z"/><path fill="#FF8630" d="M698.545 696.263a1.999 1.999 0 0 1-.81-3.83l21.509-9.515a2 2 0 1 1 1.619 3.659l-21.509 9.515a2.024 2.024 0 0 1-.809.171z"/><path fill="#FF8630" d="M714.057 702.26a2 2 0 0 1-1.83-1.191l-9.515-21.508a2.001 2.001 0 0 1 3.659-1.619l9.515 21.508a2.001 2.001 0 0 1-1.829 2.81zm43.745 42.663a2 2 0 0 1-1.866-2.723l8.481-21.938a2.001 2.001 0 0 1 3.731 1.443l-8.481 21.938a2 2 0 0 1-1.865 1.28z"/><path fill="#FF8630" d="M773.011 738.194a1.99 1.99 0 0 1-.721-.136l-21.937-8.48a2 2 0 0 1 1.441-3.731l21.937 8.48a2 2 0 0 1-.72 3.867z"/><path fill="#FF8630" d="M751.289 738.712a2 2 0 0 1-.81-3.83l21.509-9.516a2 2 0 1 1 1.619 3.659l-21.509 9.516a2.024 2.024 0 0 1-.809.171z"/><path fill="#FF8630" d="M766.801 744.708a2 2 0 0 1-1.83-1.191l-9.515-21.508a2.001 2.001 0 0 1 3.659-1.619l9.515 21.508a2.001 2.001 0 0 1-1.829 2.81zm-117.623 8.234a2 2 0 0 1-1.866-2.723l8.481-21.937a2 2 0 0 1 3.731 1.443l-8.481 21.937a2 2 0 0 1-1.865 1.28z"/><path fill="#FF8630" d="M664.387 746.214a1.99 1.99 0 0 1-.721-.136l-21.937-8.48a2 2 0 0 1 1.441-3.731l21.937 8.48a2 2 0 0 1-.72 3.867z"/><path fill="#FF8630" d="M642.665 746.731a2 2 0 0 1-.81-3.83l21.509-9.515a2 2 0 1 1 1.619 3.659l-21.509 9.515a2.007 2.007 0 0 1-.809.171z"/><path fill="#FF8630" d="M658.177 752.729a2 2 0 0 1-1.83-1.191l-9.515-21.509a2.001 2.001 0 0 1 3.659-1.619l9.515 21.509a2.001 2.001 0 0 1-1.829 2.81zM710.2 778.74a2 2 0 0 1-1.866-2.723l8.481-21.937a2 2 0 0 1 3.731 1.443l-8.481 21.937a1.999 1.999 0 0 1-1.865 1.28z"/><path fill="#FF8630" d="M725.409 772.013c-.24 0-.484-.044-.722-.136l-21.937-8.481a2 2 0 0 1 1.443-3.731l21.937 8.481a2 2 0 0 1-.721 3.867z"/><path fill="#FF8630" d="M703.687 772.529a1.999 1.999 0 0 1-.81-3.83l21.509-9.515a2 2 0 1 1 1.619 3.659l-21.509 9.515a2.004 2.004 0 0 1-.809.171z"/><path fill="#FF8630" d="M719.199 778.526a2 2 0 0 1-1.83-1.191l-9.515-21.509a2.001 2.001 0 0 1 3.659-1.619l9.515 21.509a2.001 2.001 0 0 1-1.829 2.81z"/></svg>
