<svg xmlns="http://www.w3.org/2000/svg" viewBox="0 0 1920 1080" xml:space="preserve"><path fill="#2E9AFF" d="M1634.27 458c-8.44-250.06-213.8-450.18-465.91-450.18l-50.62.83H702.16c-197.09 1.94-363.84 130.47-422.67 308.1l-.74 2.23-.5 1.53a448.62 448.62 0 0 0-21.72 138.34h91.87c.9 92.94 75.77 168.01 168.01 168.01h185.47l55.59-.34v-.5h.17v48.68H608.87c-30.8 0-56 25.2-56 56v50.64c0 30.8 25.2 56 56 56h35.96c30.8 0 56-25.2 56-56v-25.32h86.53a51.6 51.6 0 0 0 51.6-51.6V626h239.19l44.09 45.24h-114.85a47.85 47.85 0 1 0 0 95.7h106.55l2.9-2.33a202.4 202.4 0 0 0-13.34 40.26 204.5 204.5 0 0 0-4.5 34.32 206.1 206.1 0 0 0 8.99 69.33 212.12 212.12 0 0 0 13.4 32.75l2.04 3.94 1.03 1.96 1.04 1.82 4.22 7.25 1.06 1.8 1.14 1.78 2.29 3.53 2.3 3.53 1.17 1.76 1.23 1.71 4.97 6.85c1.64 2.3 3.48 4.44 5.23 6.66 3.49 4.47 7.33 8.63 11.12 12.87a248.89 248.89 0 0 0 53.02 43.12c4.86 3.06 9.95 5.73 15.02 8.47 2.55 1.32 5.16 2.54 7.75 3.8l3.9 1.87 3.97 1.7a250.46 250.46 0 0 0 32.68 11.6l8.43 2.22c2.82.69 5.67 1.26 8.51 1.88l4.28.9 4.3.72c2.88.47 5.75.98 8.65 1.37a271.03 271.03 0 0 0 35.06 2.36 257.76 257.76 0 0 0 70.19-9.9c5.76-1.54 11.39-3.52 17.04-5.46 2.83-.97 5.57-2.13 8.36-3.21 2.77-1.11 5.57-2.2 8.27-3.46l8.15-3.73c2.7-1.28 5.33-2.7 7.99-4.06 5.49-2.76 10.1-5.58 15.04-8.43a308.91 308.91 0 0 0 54.43-41.15 317.33 317.33 0 0 0 76.85-114.32 325.59 325.59 0 0 0 18.25-67.73c3.65-23.26 3.9-306.6 3.9-356.65l-6.12 1.2 6.12-1.85zM1453 795.51c-.17 10.6-1.48 21.3-3.96 31.85a150.85 150.85 0 0 1-28.83 58.8 151.4 151.4 0 0 1-24.13 23.94c-2.26 1.7-4.66 3.73-6.66 5.05-1.05.73-2.07 1.54-3.14 2.24-1.08.67-2.16 1.36-3.23 2.06-1.06.75-2.2 1.33-3.3 1.97-1.12.6-2.2 1.33-3.35 1.9-2.3 1.11-4.55 2.39-6.94 3.35a112.68 112.68 0 0 1-30 8.68c-5.26.7-10.6 1.09-16 1.16-1.36 0-2.7-.08-4.06-.1l-2.03-.03-2.03-.16c-1.35-.12-2.72-.17-4.07-.3l-4.07-.5a122.27 122.27 0 0 1-60.71-26.48c-2.14-1.9-4.41-3.67-6.43-5.71-1.02-1.01-2.15-1.93-3.12-3l-3-3.15-.76-.78-.7-.83-1.42-1.67-1.44-1.66-.73-.82-.66-.88-2.7-3.5-.7-.86-.56-.81-1.14-1.6a96.92 96.92 0 0 1-7.98-13.61 95.07 95.07 0 0 1-8.45-30.9c-.5-5.45-.52-11-.09-16.55a97.67 97.67 0 0 1 8.37-32.72 99.4 99.4 0 0 1 19.44-28.68c4.1-4.22 8.63-8.17 13.47-11.75a76.5 76.5 0 0 1 14-8.25 77.57 77.57 0 0 1 32.44-6.84c11.4.12 23.03 2.7 33.74 7.67a83.45 83.45 0 0 1 28.33 21.8c1.04 1.15 1.94 2.4 2.89 3.62 1.02 1.26 1.72 2.37 2.57 3.53a63.36 63.36 0 0 1 9.7 23.5 67.1 67.1 0 0 1-2.9 35.1 69.18 69.18 0 0 1-21.38 29.9c-.61.52-1.26.98-1.9 1.47-.63.48-1.28 1-1.87 1.39-.6.41-1.2.86-1.82 1.26l-1.87 1.17a53.72 53.72 0 0 1-25.67 7.43c-6.14.2-12.4-.7-18.45-2.57a58.01 58.01 0 0 1-16.98-8.7 60.32 60.32 0 0 1-7.28-6.5c-1.15-1.17-2.2-2.45-3.27-3.71l-1.5-2-.38-.49-.31-.49-.63-.97a44.63 44.63 0 0 1-6.93-17.36 46.93 46.93 0 0 1 .76-19.37 47.29 47.29 0 0 1 8.93-17.87l1.65-1.97c.28-.32.53-.67.83-.98l.93-.88c1.25-1.17 2.4-2.5 3.82-3.5 1.36-1.05 2.71-2.26 4.11-3.05.7-.43 1.38-.94 2.1-1.33l2.23-1.13c.37-.18.73-.41 1.12-.56l1.16-.44c.78-.3 1.56-.63 2.35-.91l2.43-.67c.4-.1.81-.26 1.23-.33l1.25-.21c.83-.14 1.67-.32 2.52-.43l2.55-.2c.86-.1 1.72-.06 2.58-.03.86.03 1.73-.01 2.6.08 1.7.24 3.47.32 5.16.78.85.2 1.73.31 2.56.6l2.52.8c.87.22 1.64.66 2.46.99l1.23.52c.42.16.82.35 1.2.58l2.34 1.3.6.32.55.38 1.1.76c5.92 4 11 9.9 13.85 16.38a33.97 33.97 0 0 1 1.56 21.63 35 35 0 0 1-12.52 18.9 28.65 28.65 0 0 1-10.38 5.29 29.37 29.37 0 0 1-11.9.7 30.4 30.4 0 0 1-20.63-12.82 31.95 31.95 0 0 0 19.99 15.84 33.23 33.23 0 0 0 13.46.8c4.52-.65 9-2.3 12.92-4.72 7.97-4.63 14.29-12.23 17.81-21.07a44.77 44.77 0 0 0 1.32-28.57 50.8 50.8 0 0 0-6.26-13.32c-.61-1.05-1.42-1.97-2.13-2.96l-1.11-1.46-.56-.73-.62-.68-2.5-2.7-.63-.68-.69-.62-1.38-1.23-1.4-1.23-.7-.61-.74-.55-3.02-2.18c-.5-.38-1.02-.72-1.56-1.02l-1.6-.95c-1.1-.6-2.14-1.31-3.3-1.8l-3.4-1.57c-1.14-.54-2.35-.88-3.53-1.32-2.35-.92-4.83-1.42-7.29-2.03-1.23-.28-2.5-.4-3.75-.6a28.5 28.5 0 0 0-3.8-.42l-3.83-.18c-1.28 0-2.56.1-3.84.15l-1.93.1c-.64.05-1.28.17-1.91.25l-3.84.57c-1.27.26-2.52.6-3.78.91l-1.89.49c-.63.16-1.23.41-1.84.62l-3.68 1.33c-1.21.48-2.37 1.1-3.55 1.64-2.44 1.08-4.5 2.45-6.68 3.76-2.22 1.24-4.17 2.87-6.22 4.39l-1.52 1.17c-.5.4-.95.85-1.43 1.27l-2.81 2.61a73.49 73.49 0 0 0-17.09 25.68 76.25 76.25 0 0 0-5.2 31.02 77.06 77.06 0 0 0 8.02 31.1l.9 1.82.44.92.49.85 1.95 3.38a96.65 96.65 0 0 0 14.77 18.45 96.56 96.56 0 0 0 57.52 26.56 98.47 98.47 0 0 0 48.71-7.5l3.82-1.73c1.26-.6 2.5-1.26 3.74-1.9 1.28-.64 2.4-1.3 3.56-1.97 1.15-.68 2.32-1.32 3.45-2.03a121.7 121.7 0 0 0 43.8-47.26 125.7 125.7 0 0 0 13.86-64.52 128.03 128.03 0 0 0-12.97-49.21c-1.3-2.53-2.61-5.17-3.98-7.44-1.36-2.36-2.7-4.73-4.23-7a154.47 154.47 0 0 0-46.6-46.57 159.6 159.6 0 0 0-62.87-23.35 160.55 160.55 0 0 0-49.83.72l.7-.56-24.7-28.9h8.72c-1.67.31-3.36.6-5.11.85h59.65c76.27 0 142.88 56.03 158.44 137.49a136.02 136.02 0 0 1 2.99 31.16z"/><path fill="#FFF" d="M785.54 852.76c-.5 0-.99-.14-1.42-.45a715.93 715.93 0 0 0-86.69-51.63 2.5 2.5 0 0 1 2.25-4.47 720.9 720.9 0 0 1 87.29 52 2.5 2.5 0 0 1-1.43 4.55z"/><path d="M1572.32 364.14a48.15 48.15 0 0 0 56.9 44.47 385.73 385.73 0 0 0-22.95-93.35 48.16 48.16 0 0 0-33.95 48.88zm-161.08-287.3a58 58 0 0 0 90.6 72.34 468.17 468.17 0 0 0-90.6-72.34zm-167.57-48.58a58 58 0 0 0 112.57 19.71 462.75 462.75 0 0 0-110.99-33.14 58.07 58.07 0 0 0-1.58 13.43zM928.3 9.92a50.4 50.4 0 1 0 100.78 0H928.3zm141.76-.07a50.4 50.4 0 0 0 100.78-.73l-100.78.73zM516.41 628.53c-45.26 0-87.88-17.72-120.02-49.88a171.93 171.93 0 0 1-50.45-118.13h-89.4a2.5 2.5 0 0 1-2.5-2.5c0-117.9 45.18-229.48 127.22-314.18C462.85 59.61 572.16 10.85 689.14 6.47c.36-.2.76-.3 1.2-.3h192.88a2.5 2.5 0 0 1 2.5 2.5 99.25 99.25 0 0 1-63.62 92.44c-1.87 38.35-26.04 72.04-62.13 86.58v438a2.5 2.5 0 0 1-2.48 2.5l-55.6.34H516.42zm-257.37-173h89.36a2.5 2.5 0 0 1 2.5 2.47c.44 44.31 17.85 85.9 49.03 117.11 31.2 31.22 72.56 48.42 116.48 48.42H701.9l53.08-.32V185.99a2.5 2.5 0 0 1 1.6-2.34C792.2 170 816 136.87 817.18 99.27a2.5 2.5 0 0 1 1.65-2.27 94.24 94.24 0 0 0 61.87-85.83H691.45a2.5 2.5 0 0 1-1.02.25C574.32 15.5 465.8 63.76 384.85 147.32c-80.56 83.17-125.18 192.53-125.81 308.2z"/><circle fill="#FFF" cx="533.3" cy="281.07" r="97.7"/><circle cx="590.09" cy="257.87" r="13.2"/><circle cx="316.7" cy="408.9" r="19.57"/><path fill="#FFF" d="M625.42 769.82c-.28 0-.56-.05-.84-.14-138.35-49.16-241.62-31.38-242.64-31.2a2.5 2.5 0 1 1-.9-4.92c.27-.04 26.6-4.69 69.79-3.12 39.78 1.45 102.5 8.62 175.42 34.53a2.5 2.5 0 0 1-.83 4.85z"/><path d="M381.37 735.49h-.03c-3.56-27.33-13.56-53.46-36.27-72.67a114.8 114.8 0 0 0-79.38-27.14 114.8 114.8 0 0 0 39.92 73.78c20.88 17.66 43.34 26.62 68.17 27.23a114.72 114.72 0 0 0-66.2 38.72 114.8 114.8 0 0 0-27.14 79.39 114.8 114.8 0 0 0 73.79-39.93 114.78 114.78 0 0 0 27.17-78.26l-.03-1.12zm243.83 35.97-.3-.02a2.5 2.5 0 0 1-2.19-2.77c2.72-23.49 19.24-39.9 40.16-39.9a40.22 40.22 0 0 1 40.18 40.19 2.5 2.5 0 1 1-5 0 35.22 35.22 0 0 0-35.18-35.18c-18.3 0-32.77 14.58-35.2 35.46a2.5 2.5 0 0 1-2.47 2.22zm-68-310.94H346.37a2.5 2.5 0 1 1 0-5h210.81c13.06 0 22.22-3.03 27.23-9.01 5.32-6.36 4-14.11 3.99-14.2a2.5 2.5 0 0 1 4.91-.9c.08.4 1.8 10.03-5 18.23-6 7.22-16.47 10.88-31.13 10.88z"/><path d="M1636.74 458.34c.02-.14.04-.28.03-.42-4.1-121.79-54.66-235.64-142.34-320.58-87.88-85.13-203.68-132.02-326.11-132.02l-50.58.83h-415.6a449.77 449.77 0 0 0-174.5 36.74 451.01 451.01 0 0 0-142.32 97.07A450.33 450.33 0 0 0 254.31 458a2.5 2.5 0 0 0 2.5 2.5h89.41a171.94 171.94 0 0 0 50.45 118.13c32.14 32.16 74.76 49.88 120.02 49.88h238.45v43.69H608.88a58.57 58.57 0 0 0-58.5 58.5v50.64a58.57 58.57 0 0 0 58.5 58.5h35.95a58.57 58.57 0 0 0 58.5-58.5v-22.82h84.03a54.16 54.16 0 0 0 54.1-54.1v-75.9h235.63l39.22 40.22H1007.4a50.41 50.41 0 0 0-50.35 50.36 50.43 50.43 0 0 0 50.3 50.35h104.67a205.2 205.2 0 0 0-10.95 34.9 207.73 207.73 0 0 0-4.56 34.74 208.53 208.53 0 0 0 9.1 70.18 215.8 215.8 0 0 0 13.57 33.17l3.13 5.98 6.38 10.99 6.97 10.7 6.2 8.55a97.36 97.36 0 0 0 3.62 4.66l1.67 2.08c3.01 3.86 6.31 7.54 9.5 11.09l1.77 1.96a250.81 250.81 0 0 0 53.5 43.52 226.7 226.7 0 0 0 12.9 7.34l2.31 1.25c1.93.99 3.9 1.94 5.8 2.85l6.02 2.88 3.94 1.7a251.95 251.95 0 0 0 33.06 11.72l8.47 2.24c2.1.5 4.23.96 6.3 1.4l6.66 1.4 6.63 1.12c2.09.34 4.25.7 6.41 1a274.68 274.68 0 0 0 35.4 2.38c24.5-.12 48.34-3.49 70.82-9.99 5.4-1.44 10.71-3.27 15.86-5.04l1.36-.47c2.02-.7 4-1.49 5.93-2.25l2.54-1 1.22-.49c2.36-.94 4.81-1.92 7.16-3.02l8.18-3.75c1.96-.92 3.89-1.92 5.75-2.89l2.3-1.19c4.36-2.2 8.24-4.46 12-6.65l3.2-1.87a311.34 311.34 0 0 0 54.87-41.48 320.54 320.54 0 0 0 77.45-115.23 328.54 328.54 0 0 0 18.4-68.25c3.81-24.35 3.93-323.06 3.93-357.04 0-.1-.02-.2-.04-.3zm-5.33 147.52a50.39 50.39 0 0 0-.71 100.51c-.19 17.42-.4 33.8-.64 48.35a50.38 50.38 0 0 0-10.53 98.37 310.64 310.64 0 0 1-20.67 53.74 50.4 50.4 0 0 0-57.54 81.04c-2.55 2.6-5.13 5.17-7.77 7.67a302.9 302.9 0 0 1-39.3 31.49 50.4 50.4 0 0 0-91.66 40.72 257.93 257.93 0 0 1-56.78 6.5c-2.25 0-4.5-.05-6.77-.11a50.4 50.4 0 0 0-97.34-22.1l-.7-.3-5.9-2.83a211.2 211.2 0 0 1-5.64-2.78l-2.28-1.22c-4.2-2.27-8.53-4.6-12.64-7.2a237.5 237.5 0 0 1-25.4-17.66 50.4 50.4 0 0 0-63.76-76.5l-1.77-3.4a209.87 209.87 0 0 1-13.23-32.36 205.56 205.56 0 0 1-4.07-15.37 50.4 50.4 0 0 0 2.75-99.4 195.32 195.32 0 0 1 17.08-41.36 50.4 50.4 0 0 0 69.2-71.99 199.6 199.6 0 0 1 7.5-4.33 161.39 161.39 0 0 1 40.88-15.6 50.38 50.38 0 0 0 98.17 8.9 154.84 154.84 0 0 1 21.78 11.56 152.27 152.27 0 0 1 45.86 45.86c1.34 1.99 2.57 4.13 3.76 6.2l.4.7c1.12 1.85 2.24 4.04 3.32 6.15l.56 1.08a125.48 125.48 0 0 1 12.73 48.26 122.7 122.7 0 0 1-13.59 63.23 119.98 119.98 0 0 1-42.9 46.3c-.76.46-1.53.9-2.3 1.35l-1.79 1.03a42 42 0 0 1-2.74 1.5l-1.07.56c-.86.45-1.72.9-2.56 1.3l-3.76 1.7a100.4 100.4 0 0 1-15.49 5.12 95.45 95.45 0 0 1-62.41-6.11 93.55 93.55 0 0 1-25.61-17.56 94.19 94.19 0 0 1-14.38-17.96l-2.37-4.1-1.32-2.69a74.12 74.12 0 0 1-2.72-60.08 71.19 71.19 0 0 1 16.46-24.76l2.78-2.58.52-.48c.26-.24.51-.48.76-.68l1.5-1.14 1.43-1.09a39.2 39.2 0 0 1 4.58-3.17l1.28-.78a42.83 42.83 0 0 1 5.16-2.85l1.15-.54c.78-.39 1.52-.74 2.2-1.01l3.63-1.32.67-.24c.34-.12.67-.24 1-.33l2.95-.75c.84-.21 1.68-.43 2.53-.6l3.72-.56.7-.1c.35-.06.71-.11 1.02-.13l1.9-.1 1.16-.06c.88-.05 1.7-.09 2.52-.09l3.84.18c1.1.03 2.24.2 3.46.38l1.25.19a31.75 31.75 0 0 1 3.83.75c1.92.46 3.73.9 5.48 1.58.41.15.83.3 1.24.43.75.26 1.46.5 2.11.8l3.49 1.62c.64.27 1.3.65 1.98 1.06l1 .59 1.66.97a13 13 0 0 1 1.32.86l3.66 2.66 3.97 3.52 3.6 3.88 1.55 2.05.8 1.06c.45.6.88 1.15 1.2 1.71l.07.1a48.48 48.48 0 0 1 5.95 12.64 42.14 42.14 0 0 1-1.24 26.95c-3.38 8.49-9.33 15.53-16.8 19.88a31.84 31.84 0 0 1-8.93 3.77 31.01 31.01 0 0 0 8.29-4.74 37.42 37.42 0 0 0 13.42-20.27 36.4 36.4 0 0 0-1.69-23.27 42.16 42.16 0 0 0-14.7-17.42l-1.65-1.14-.24-.15-2.88-1.58a9.18 9.18 0 0 0-1.47-.72l-1.29-.55-.72-.31c-.57-.26-1.21-.55-1.96-.75l-2.4-.76c-.68-.24-1.35-.37-1.94-.49-.28-.05-.56-.1-.79-.16-1.37-.38-2.7-.52-4-.67-.49-.05-.98-.1-1.57-.19a19.3 19.3 0 0 0-1.83-.07c-.3 0-.6 0-.94-.02h-.25c-.8-.03-1.7-.06-2.65.05l-2.5.19-.13.01c-.55.07-1.1.17-1.64.27l-.97.17-1.3.22a10.07 10.07 0 0 0-1.43.38l-2.43.67-.16.05-1.47.56-.94.37-1.17.45c-.4.15-.73.33-1 .48l-.36.18-2.28 1.16c-.55.3-1.03.62-1.5.93l-.64.43a25.3 25.3 0 0 0-3.37 2.42l-1 .8a23.45 23.45 0 0 0-2.99 2.64l-1.08 1.06-.95.91c-.26.26-.5.54-.73.83l-.26.32-1.69 2.01a49.98 49.98 0 0 0-9.4 18.82 49.6 49.6 0 0 0-.8 20.4 47.38 47.38 0 0 0 7.3 18.29l.92 1.45.13.18 1.88 2.48.08.1.5.6c.92 1.08 1.86 2.2 2.87 3.23a63.05 63.05 0 0 0 7.6 6.78 58.89 58.89 0 0 0 37 11.75 56.02 56.02 0 0 0 26.9-7.8l1.91-1.19a31.83 31.83 0 0 0 1.82-1.26c.53-.34 1.05-.74 1.55-1.12l.51-.4.72-.55a71.57 71.57 0 0 0 23.36-31.93 69.17 69.17 0 0 0 3.01-36.46 65.9 65.9 0 0 0-10.06-24.37l-.07-.1-.8-1.12a39 39 0 0 0-1.82-2.47l-.63-.83c-.74-.97-1.51-1.98-2.32-2.86a86.49 86.49 0 0 0-29.2-22.46 85.24 85.24 0 0 0-34.76-7.9 80.96 80.96 0 0 0-33.49 7.06 78.95 78.95 0 0 0-14.47 8.51c-4.96 3.68-9.6 7.73-13.76 12.01a101.56 101.56 0 0 0-19.93 29.4 99.55 99.55 0 0 0-8.58 33.55 100.9 100.9 0 0 0 .09 17 98.61 98.61 0 0 0 8.69 31.73 98.6 98.6 0 0 0 8.19 13.97l1.69 2.4.09.12 4.03 5.2.1.14 4.27 4.95.11.12 3.7 3.86c.67.75 1.38 1.4 2.07 2.03.39.35.77.71 1.12 1.06a67.59 67.59 0 0 0 4.48 4.04c.7.59 1.4 1.18 2.15 1.84a124.06 124.06 0 0 0 61.99 27.03l4.12.5c.8.09 1.6.14 2.39.19l1.73.12 2.03.17h.16l2.05.04c.57 0 1.14.02 1.7.04.8.03 1.6.05 2.4.05 5.56-.07 11.05-.47 16.35-1.19a115.41 115.41 0 0 0 30.63-8.85 65.5 65.5 0 0 0 4.91-2.33c.71-.37 1.42-.73 2.13-1.07.78-.39 1.5-.81 2.2-1.23.4-.24.83-.5 1.3-.75.28-.17.57-.32.85-.48.86-.48 1.76-.98 2.57-1.56 1.06-.7 2.12-1.38 3.22-2.06.7-.45 1.35-.93 1.97-1.4.41-.3.82-.6 1.19-.85 1.4-.92 2.96-2.15 4.47-3.33a154.2 154.2 0 0 0 26.91-26.18 153.92 153.92 0 0 0 29.3-59.8 152.29 152.29 0 0 0 4.02-32.38c.19-10.93-.84-21.61-3.03-31.67-7.58-39.71-27.93-75.48-57.28-100.72-29.1-25.02-65.9-38.8-103.61-38.8h-38.59c15.04-5.38 26.7-14.13 34.78-26.17 20.66-30.77 10.67-71.57 10.23-73.29a2.5 2.5 0 0 0-4.85 1.23c.1.4 9.88 40.4-9.55 69.3-10.65 15.84-28.15 25.58-52.02 28.95-.38.06-.73.2-1.03.4l-116.94-136.8a2.5 2.5 0 1 0-3.8 3.26l138.8 162.37c-5.22 1-10.4 2.24-15.48 3.75a166.21 166.21 0 0 0-32.7 13.6 204.3 204.3 0 0 0-28.08 18.6 196.38 196.38 0 0 0-45.36 50.83 177.84 177.84 0 0 0-12.74 23.88l-1.19.18h-105.67c-25 0-45.35-20.34-45.35-45.35s20.35-45.35 45.3-45.36h114.9a2.5 2.5 0 0 0 1.8-4.24l-84.09-86.26c-43.56-43.57-43.56-114.45 0-158.02 43.57-43.57 114.45-43.57 158.02 0a2.5 2.5 0 1 0 3.54-3.54c-45.52-45.51-119.58-45.51-165.1 0-45.51 45.52-45.51 119.58-.02 165.07l35.84 36.76H838.96a2.5 2.5 0 0 0-2.5 2.5v78.4a49.16 49.16 0 0 1-49.1 49.11h-86.53a2.5 2.5 0 0 0-2.5 2.5v25.32c0 29.5-24 53.5-53.5 53.5h-35.95c-29.5 0-53.5-24-53.5-53.5V730.7c0-29.5 24-53.5 53.5-53.5h148.76a2.5 2.5 0 0 0 2.5-2.5V626a2.5 2.5 0 0 0-2.5-2.5H516.69c-43.92 0-85.29-17.2-116.49-48.42-31.18-31.2-48.59-72.8-49.02-117.11a2.5 2.5 0 0 0-2.5-2.48h-89.36a443.6 443.6 0 0 1 34.73-170.48 445.36 445.36 0 0 1 94.82-141.54 446.03 446.03 0 0 1 140.76-96 444.76 444.76 0 0 1 172.53-36.33h415.62l50.58-.83c121.08 0 235.65 46.38 322.6 130.61 86.73 84.04 136.75 196.67 140.81 317.15a50.4 50.4 0 0 0-.17 100.61c-.05 15-.11 30.9-.19 47.17zm-350.35 228.05a34.58 34.58 0 0 0 21.55 17.1 35.9 35.9 0 0 0 28.29-4.17c8.37-4.87 15.08-12.8 18.88-22.32a47.18 47.18 0 0 0 1.4-30.19 52.82 52.82 0 0 0-6.54-13.93c-.48-.8-1.01-1.5-1.53-2.18-.23-.3-.47-.61-.73-.98l-1.68-2.2a2.43 2.43 0 0 0-.14-.17l-3.78-4.08-.15-.15-4.18-3.71c-.06-.05-.11-.1-.17-.13l-3.73-2.71a15.4 15.4 0 0 0-1.8-1.19l-1.67-.97-.93-.55c-.8-.47-1.64-.97-2.52-1.34l-3.4-1.56c-.88-.42-1.75-.72-2.6-1l-1.08-.39c-2.02-.79-4.1-1.28-6.09-1.76l-1.56-.38c-.94-.21-1.85-.34-2.74-.47-.39-.05-.77-.1-1.22-.18-1.3-.2-2.66-.4-4.01-.43l-3.84-.18h-.14c-.95 0-1.9.05-2.8.1l-1.15.05-1.98.1c-.49.04-.97.1-1.45.18l-.65.1-3.84.57-.13.02c-.95.2-1.88.43-2.81.67l-3 .76c-.52.13-1 .31-1.43.47-.2.06-.38.13-.62.22l-3.75 1.36c-.92.36-1.78.78-2.61 1.18l-1.03.5a47.15 47.15 0 0 0-5.72 3.13l-1.17.72a43.62 43.62 0 0 0-5.1 3.53l-1.42 1.06-1.55 1.2a18.64 18.64 0 0 0-1.58 1.4l-2.86 2.65a76.23 76.23 0 0 0-17.66 26.56 79.14 79.14 0 0 0 2.9 64.12l1.34 2.76.07.13 2.45 4.24.06.09a99.39 99.39 0 0 0 15.14 18.9 98.59 98.59 0 0 0 27 18.51 100.44 100.44 0 0 0 65.69 6.44 105.54 105.54 0 0 0 16.3-5.41l3.86-1.75c.93-.44 1.85-.91 2.76-1.39l1.03-.52c1.08-.55 2.05-1.1 2.98-1.64l1.79-1.04c.82-.47 1.64-.94 2.43-1.44a125.04 125.04 0 0 0 44.72-48.23 127.75 127.75 0 0 0 7.57-99.81 130.3 130.3 0 0 0-6.68-16.22l-.58-1.13a111.48 111.48 0 0 0-3.46-6.41l-.38-.66a157.2 157.2 0 0 0-51.26-53.77 162.8 162.8 0 0 0-63.87-23.71 163.33 163.33 0 0 0-48.17.32l-19.87-23.24h57.1c36.53 0 72.17 13.35 100.37 37.59 28.5 24.5 48.25 59.26 55.64 97.93a133.8 133.8 0 0 1 2.93 30.6 147.32 147.32 0 0 1-3.89 31.3 148.87 148.87 0 0 1-28.35 57.82 149.12 149.12 0 0 1-26.1 25.37 64.91 64.91 0 0 1-4.17 3.12l-1.35.98c-.6.44-1.15.85-1.68 1.2-1.1.68-2.2 1.38-3.36 2.14-.67.48-1.41.9-2.2 1.33l-.85.48c-.48.26-.95.54-1.42.82-.64.38-1.24.74-1.83 1.02-.74.36-1.48.74-2.21 1.12a56.16 56.16 0 0 1-4.67 2.21c-8.76 4-18.63 6.86-29.3 8.48-5.07.68-10.35 1.07-15.68 1.13-.73 0-1.47-.02-2.2-.04l-1.8-.05-1.96-.03-1.93-.15c-.6-.06-1.22-.1-1.83-.14a44.1 44.1 0 0 1-2.15-.16l-4.04-.5a118.98 118.98 0 0 1-59.39-25.87c-.7-.62-1.43-1.24-2.15-1.85a63.58 63.58 0 0 1-4.18-3.76 36.3 36.3 0 0 0-1.28-1.2 25.76 25.76 0 0 1-1.78-1.75l-3.72-3.89-4.2-4.88-3.99-5.15-1.66-2.35a94.54 94.54 0 0 1-7.77-13.23 92.77 92.77 0 0 1-8.22-30.07 95.79 95.79 0 0 1-.09-16.13 94.57 94.57 0 0 1 8.15-31.88 96.57 96.57 0 0 1 18.96-27.97c3.98-4.1 8.4-7.97 13.16-11.49a73.87 73.87 0 0 1 13.55-7.97c9.72-4.4 20.6-6.7 31.39-6.62a80.18 80.18 0 0 1 32.7 7.43 81.56 81.56 0 0 1 29.64 23.83l.7.9c.62.76 1.1 1.47 1.63 2.22.27.39.53.77.82 1.16a60.97 60.97 0 0 1 9.3 22.54 65.03 65.03 0 0 1-2.8 33.8 66.58 66.58 0 0 1-20.61 28.82c-.34.28-.7.54-1.05.81-.27.2-.54.4-.77.59l-.52.4c-.44.33-.85.65-1.24.9l-.81.57-.93.64-1.82 1.14a51.03 51.03 0 0 1-24.48 7.09 53.86 53.86 0 0 1-33.85-10.76 58.25 58.25 0 0 1-9.63-9.24l-1.94-2.49-1.23-1.84a42.44 42.44 0 0 1-6.54-16.39 44.5 44.5 0 0 1 .72-18.33 44.9 44.9 0 0 1 8.43-16.88l1.6-1.93.37-.43c.1-.14.22-.29.32-.38l.9-.87c.39-.37.78-.75 1.16-1.14a19.07 19.07 0 0 1 2.48-2.2l1.12-.89c.95-.76 1.85-1.48 2.78-2.01l.88-.58c.4-.26.76-.5 1.04-.66l2.18-1.1c.17-.08.34-.17.5-.27.15-.07.28-.15.42-.2l1.15-.44 1.04-.4 1.18-.47 2.31-.63.55-.16.46-.13 1.23-.2 1.08-.2a26 26 0 0 1 1.3-.22l2.49-.18.14-.01c.57-.08 1.23-.06 1.92-.03h.23c.35.02.71.02 1.07.02.5 0 .96.01 1.28.04.54.08 1.08.14 1.62.2 1.15.12 2.24.25 3.29.53.35.09.72.16 1.08.23.47.1.91.18 1.32.32l2.52.81.15.04c.36.1.76.27 1.22.48.31.14.62.28.88.38l1.31.56a4.64 4.64 0 0 1 .89.44l2.82 1.55 1.58 1.1a37.05 37.05 0 0 1 12.94 15.27 31.33 31.33 0 0 1 1.44 20.02 32.45 32.45 0 0 1-11.65 17.59 26.14 26.14 0 0 1-9.49 4.82 26.98 26.98 0 0 1-10.9.65 27.96 27.96 0 0 1-18.9-11.76 2.5 2.5 0 0 0-4.27 2.57z"/><path fill="#FFF" d="M194.6 460.1S39.64 459.7 48.33 332c.1-2.33.24-4.69.44-7.08.07-1.05 1.98-27.65 22.77-48.96 9.07-9.3 21.54-14.2 35.15-13.77a55.06 55.06 0 0 1 39.88 19.05 43.18 43.18 0 0 1-4.43 60.81 23.42 23.42 0 0 0 15.11 41.29c7.44 0 11.89-2.57 18.35-8.89 34.05-31.71 33.88-87 1.68-122.56-24.06-26.57-63-37.92-96.13-29.89-45.68 11.07-71.11 54.54-77.4 90.73-8.03 46.23.85 93.95 31.63 129.59 38.5 44.59 93.58 59.43 147.87 65.64 24.3 2.78 49.33 2.6 73.66.89 17.88-1.26 35.74-2.9 53.54-5 13.21-1.56 26.44-3.28 39.51-5.73l184.46-37.53-339.82-.5z"/><g fill="#FFF"><path d="M1390.84 451.58a2.5 2.5 0 0 1-2.39-3.24l20.12-64.95a2.5 2.5 0 1 1 4.77 1.48l-20.11 64.94a2.5 2.5 0 0 1-2.39 1.77zm-16-142.29c-.25 0-.5-.04-.74-.12l-49.93-15.46a2.5 2.5 0 1 1 1.48-4.78l49.93 15.47a2.5 2.5 0 0 1-.74 4.89zm31.35-28.36a2.5 2.5 0 0 1-2.3-1.5l-34.56-79.17a2.5 2.5 0 1 1 4.59-2l34.56 79.17a2.5 2.5 0 0 1-2.29 3.5zm73.61 161.29a2.5 2.5 0 0 1-2.28-1.5l-28.41-65.07a2.5 2.5 0 1 1 4.58-2l28.4 65.07a2.5 2.5 0 0 1-2.28 3.5zm-205.12-30.12a2.5 2.5 0 0 1-1.19-4.7l104.92-56.74a2.5 2.5 0 0 1 2.38 4.4l-104.92 56.74c-.38.2-.78.3-1.19.3zm355.29-385.04-216.1 307.03 370.02-63.63-76.96-121.7z"/><path d="m1893.68 100.44-31.52-49.84L1830.63.75l-155.22 98.16 31.52 49.85 31.52 49.85z"/></g></svg>