<svg xmlns="http://www.w3.org/2000/svg" viewBox="0 0 1080 1080" xml:space="preserve"><path d="m975.25 612.12 92.11 226.4h-24.58l-67.63-166.23.1-60.17m-4.96-25.45-.14 86.6 69.27 170.25h35.38L970.29 586.67z"/><path d="M101.77 161.29h876.7v488.04h-876.7zM773.63 86.8a2.5 2.5 0 0 1-2.5-2.5V3a2.5 2.5 0 1 1 5 0v81.3a2.5 2.5 0 0 1-2.5 2.5z"/><ellipse fill="#2E9AFF" cx="773.63" cy="203.93" rx="124.35" ry="124.36"/><path d="M773.63 330.79c-69.95 0-126.85-56.91-126.85-126.86s56.9-126.86 126.85-126.86c69.94 0 126.84 56.9 126.84 126.86s-56.9 126.86-126.85 126.86zm0-248.72c-67.2 0-121.85 54.66-121.85 121.86s54.66 121.86 121.85 121.86c67.18 0 121.84-54.67 121.84-121.86S840.81 82.07 773.62 82.07z"/><path fill="#FFF" d="M682.9 237.2c6.26.28 12.2 2.95 17.4 6.43 2.1 1.4 4.13 2.94 6.47 3.88 6.39 2.59 14.02 0 18.9-4.86 4.9-4.87 7.46-11.6 9.06-18.3 3.58-15.1-.8-47.03 16.79-54.98 3.75-1.7 8.21-1.87 11.46-4.39 3.59-2.77 4.7-7.6 6.84-11.6 4.5-8.45 13.9-13.41 23.35-14.86 7.38-1.13 16.47-1.28 20-7.86 3.2-5.97-1.07-13.8-7.23-16.63-6.16-2.83-13.34-1.97-19.97-.58-6.64 1.4-13.39 3.26-20.09 2.24-11.81-1.8-22.4-12.36-33.98-9.4-14.14 3.6-16.56 10.05-30.02-.03l-2.63-2a124.18 124.18 0 0 0-49.97 99.67c0 14.72 2.56 28.83 7.25 41.94a8 8 0 0 0 2.05.76c8.69 1.9 14.1-9.89 24.32-9.43zm215.07-33.27c0-36.98-16.14-70.18-41.75-92.96a56.78 56.78 0 0 0-6.75 15.78c-1.61 6.4-.2 14.05 5.13 17.96 3.17 2.32 7.23 3.03 10.67 4.93a17.67 17.67 0 0 1 8.56 18.3c-.63 3.28-2.21 6.33-2.73 9.63-1.25 7.97 3.78 15.47 8.86 21.74 2.93 3.61 6.04 7.3 7.3 11.77 1.27 4.48.1 10.03-3.95 12.32-8.13 4.61-20.1-6.6-26.84-.11-1.7 1.64-2.45 4.07-2.66 6.44-1 11.2 8.15 20.98 9 32.2 1.32 17.36-16.87 30.15-21.89 46.58a124.26 124.26 0 0 0 57.05-104.58zM719.02 310.67c1.7-3.04.94-6.83-.2-10.12-1.43-4.16-3.4-8.12-5.35-12.06-6.27-12.6-28.95-22.32-36.04-5.76a124.89 124.89 0 0 0 38.38 31.32c1.27-.96 2.44-2 3.2-3.38z"/><path d="M773.63 330.79c-69.95 0-126.85-56.91-126.85-126.86s56.9-126.86 126.85-126.86c69.94 0 126.84 56.9 126.84 126.86s-56.9 126.86-126.85 126.86zm0-248.72c-67.2 0-121.85 54.66-121.85 121.86s54.66 121.86 121.85 121.86c67.18 0 121.84-54.67 121.84-121.86S840.81 82.07 773.62 82.07zM104.85 613.66v58.63L37.22 838.52H12.66l92.2-224.86m5-25.37L5.2 843.52h35.38l69.27-170.26V588.3z"/><path fill="#FFF" d="M766.81 561.2c18.34-3.4 37.77 3.51 51.78 18.44 10.16 10.82 17.88 25.82 30.25 32.3 9.34 4.89 20.31 4.27 29.13 10.46 10.87 7.63 18.97 16.03 31.88 19.57 11.84 3.26 24.17-4.72 36.3-4.72 8.01 0 21.95 3.56 32.32 11.9V904.4h-876.7V649.22c12.2-.6 33.21-1.5 45.85-15.71 12.22-13.74 27.33-29.64 44.98-28.84 7.26.32 14.34 4.25 19.86 8.74 4.19 3.41 8.33 7.2 13.43 9.2 5.56 2.16 11.7 1.73 17.34.2 2.88-.77 5.48-2.3 8.07-3.74 5.24-2.9 10.6-3.77 16.51-3.73 22.76.13 41.6 17.77 61.28 26.87 36.58 16.9 76.51 6 114.44 7.04 29.92.82 60.3 11.4 89.34 2.5 24.77-7.6 45.2-28.4 67.77-43.06 9.79-6.36 20.65-11.47 32.14-13.77 14.91-2.99 29.93 4.42 40.34 14.7 3.83 3.77 6.72 7.68 12.13 9.39a30.1 30.1 0 0 0 8.29 1.19c6.05.16 11.25-1.74 15.6-6.05 2.7-2.69 4.84-5.88 6.96-9.05 2.98-4.47 6.15-8.87 9-13.39a76.5 76.5 0 0 1 11.21-14.03c8-7.8 17.95-13.76 28.92-16.16.52-.12 1.05-.22 1.58-.32z"/><path d="M124.54 855.6c11.63-5.61 26.86-10.77 39.71-7.6 6.34 1.58 12.26 4.44 18.09 7.39m727.81-16.16c13.65-8.79 32.26-9.16 46.25-.93m-39.06-131.06a31.63 31.63 0 0 1 32.44-.65m-41.08 94.56a31.63 31.63 0 0 1 32.44-.65m-800.96 2.8a31.63 31.63 0 0 1 32.44-.65" fill="none" stroke="#2E9AFF" stroke-width="5" stroke-linecap="round" stroke-linejoin="round" stroke-miterlimit="10"/><g stroke="#000" stroke-width="5" stroke-linecap="round" stroke-linejoin="round" stroke-miterlimit="10"><path fill="#2E9AFF" d="M874.11 877.32h-658.8L190.2 728.14h709.02z"/><g fill="#2E9AFF"><ellipse cx="455.27" cy="871.7" rx="69.44" ry="69.45"/><ellipse cx="455.27" cy="871.7" rx="49.1" ry="49.11"/></g><g fill="#2E9AFF"><ellipse cx="300.22" cy="871.7" rx="69.44" ry="69.45"/><ellipse cx="300.22" cy="871.7" rx="49.1" ry="49.11"/></g><g fill="#2E9AFF"><ellipse cx="634.67" cy="871.7" rx="69.44" ry="69.45"/><ellipse cx="634.67" cy="871.7" rx="49.1" ry="49.11"/></g><g fill="#2E9AFF"><ellipse cx="790.18" cy="871.7" rx="69.44" ry="69.45"/><ellipse cx="790.18" cy="871.7" rx="49.1" ry="49.11"/></g><g fill="#2E9AFF"><path d="M190.2 579.33h499.93v148.81H190.2zm683.74 115.63 25.28 33.18H690.13V579.33z"/><path d="M218.52 606.2h443.29v121.94H218.52z"/></g><path d="M183.35 728.14h725.41v31.23H183.35z"/></g><path fill="none" stroke="#FFF" stroke-width="5" stroke-linecap="round" stroke-linejoin="round" stroke-miterlimit="10" d="M690.13 579.33V449.02M190.2 579.33V449.02"/><ellipse transform="rotate(-27.82 290.02 499.52)" fill="#2E9AFF" stroke="#000" stroke-width="5" stroke-linecap="round" stroke-linejoin="round" stroke-miterlimit="10" cx="290.06" cy="499.54" rx="88.44" ry="11.71"/><path stroke="#2E9AFF" stroke-width="5" stroke-linecap="round" stroke-linejoin="round" stroke-miterlimit="10" d="M295.52 497.15v87.39"/><path d="M295.61 606.2v-26.87m18.63 26.87v-26.87m18.64 26.87v-26.87m18.64 26.87v-26.87m18.64 26.87v-26.87m18.64 26.87v-26.87m18.64 26.87v-26.87m18.64 26.87v-26.87" fill="none" stroke="#000" stroke-width="5" stroke-linecap="round" stroke-linejoin="round" stroke-miterlimit="10"/><path d="M419.57 703.52H272.6a28.52 28.52 0 0 1-28.52-28.53v-15.65a28.52 28.52 0 0 1 28.52-28.52h146.97a28.52 28.52 0 0 1 28.53 28.52V675a28.52 28.52 0 0 1-28.53 28.53z"/><path fill="none" stroke="#FFF" stroke-width="5" stroke-linecap="round" stroke-linejoin="round" stroke-miterlimit="10" d="M295.12 649.33v26.87s-2.18 7.9-9.9 7.9c-7.73 0-9.91-7.9-9.91-7.9v-26.87m141.56 0v26.87s-2.19 7.9-9.91 7.9-9.9-7.9-9.9-7.9v-26.87"/><circle fill="#FFF" cx="315.95" cy="663.11" r="4.87"/><circle fill="#FFF" cx="376.77" cy="663.11" r="4.87"/><path fill="#FFF" d="M354.48 667.22c0 4.96-5.79 13.69-8.98 13.69-2.85 0-8.98-8.73-8.98-13.69a8.98 8.98 0 1 1 17.96 0z"/><path fill="none" stroke="#FFF" stroke-width="5" stroke-linecap="round" stroke-linejoin="round" stroke-miterlimit="10" d="M335.09 684.77s5.82 2.18 9.52-6.89m11.3 6.89s-5.82 2.18-9.52-6.89"/><path fill="#FFF" d="m783.69 662.21-75.56 46.61v-94.94zm-50.21 46.61 65.17-40.14 65.12 39.81z"/><circle fill="#FFF" cx="300.22" cy="871.7" r="13.31"/><circle fill="#FFF" cx="455.27" cy="871.7" r="13.31"/><circle fill="#FFF" cx="634.67" cy="871.7" r="13.31"/><circle fill="#FFF" cx="790.18" cy="871.7" r="13.31"/><path fill="none" stroke="#FFF" stroke-width="5" stroke-linecap="round" stroke-linejoin="round" stroke-miterlimit="10" d="m220.86 809.33 24.33-33.08h262.68l25.12 33.08m21.19 0 24.33-33.08h262.68l25.12 33.08"/><ellipse fill="#FFF" cx="585.89" cy="349.18" rx="22" ry="22.01"/><circle fill="#FFF" cx="843.51" cy="454.66" r="17.63"/><circle fill="#FFF" cx="528.34" cy="403.93" r="17.63"/><circle fill="#FFF" cx="161.24" cy="363.19" r="10.3"/><circle fill="#FFF" cx="261.85" cy="422.54" r="11.16"/><circle fill="#FFF" cx="458.38" cy="508.85" r="5.31"/><circle fill="#FFF" cx="931.43" cy="552.17" r="5.31"/><circle fill="#FFF" cx="494.91" cy="260.65" r="5.31"/><circle fill="#FFF" cx="347.12" cy="208.39" r="5.31"/><circle fill="#FFF" cx="627.32" cy="454.94" r="5.31"/><circle fill="#FFF" cx="595.88" cy="228.99" r="2.66"/><circle fill="#FFF" cx="159.67" cy="219.13" r="2.66"/><circle fill="#FFF" cx="207.74" cy="230.43" r="2.66"/><circle fill="#FFF" cx="937.41" cy="302.38" r="2.66"/><circle fill="#FFF" cx="461.31" cy="385.86" r="2.66"/><circle fill="#FFF" cx="883.94" cy="547.04" r="2.66"/><circle fill="#FFF" cx="770.24" cy="400.47" r="2.66"/><circle fill="#FFF" cx="148.74" cy="536.97" r="2.66"/><circle fill="#FFF" cx="569.97" cy="534.09" r="2.66"/><circle fill="#FFF" cx="426.28" cy="490.56" r="2.66"/><circle fill="#FFF" cx="939.19" cy="241.43" r="5.31"/><g fill="#FFF"><circle cx="904.26" cy="374.9" r="5.31"/><circle cx="926.12" cy="400.25" r="5.31"/></g><path fill="#2E9AFF" d="M310.04 332.03a47.13 47.13 0 1 0 86.68-35.17c-35.21 26.48-71.14 33.38-86.68 35.17z"/><ellipse transform="rotate(-22.71 355.5 319.75)" fill="#FFF" cx="355.54" cy="319.78" rx="96.16" ry="22.13"/><path fill="#2E9AFF" d="M337.35 276.3a47.14 47.14 0 0 0-27.3 55.73c3.22 8.84 84.44-24.32 86.67-35.17a47.13 47.13 0 0 0-59.37-20.56z"/><path d="M973.8 1041.26a51.56 51.56 0 0 0-62.2-39.1c-12.61-18.8-34.06-31.2-58.41-31.2s-45.8 12.4-58.41 31.2a51.56 51.56 0 0 0-62.2 39.1H973.8zm-568.96-12.48c-5.17 0-10.2.62-15.02 1.76a88.83 88.83 0 0 0-73.9-39.47 88.48 88.48 0 0 0-51.28 16.27 73.94 73.94 0 0 0-123.73 21.71A73.96 73.96 0 0 0 56 1080h412.53a65.23 65.23 0 0 0-63.7-51.22z"/></svg>