<svg xmlns="http://www.w3.org/2000/svg" viewBox="0 0 1080 1080" xml:space="preserve"><path fill="#2E9AFF" d="M1079.8 546.9c-5.67-167.92-143.58-302.31-312.88-302.31l-33.99.55H453.85c-165.45 1.63-299.07 136.1-299.07 301.76h61.7c.6 62.42 50.88 112.82 112.82 112.82h161.81v32.7H391.2a37.72 37.72 0 0 0-37.61 37.6v34.01a37.72 37.72 0 0 0 37.6 37.61h24.15a37.72 37.72 0 0 0 37.61-37.6v-17h58.11a34.65 34.65 0 0 0 34.66-34.66v-52.66h160.62l29.61 30.38h-77.13a32.14 32.14 0 0 0 0 64.27h71.56l1.94-1.56a137.3 137.3 0 0 0-11.97 50.08 138.05 138.05 0 0 0 6.03 46.56c2.38 7.55 5.4 14.92 9 22l1.37 2.63.7 1.32.7 1.22 2.82 4.87.72 1.22.76 1.19 1.54 2.37 1.55 2.37.78 1.18.83 1.15 3.33 4.6c1.1 1.54 2.34 2.98 3.52 4.47 2.34 3 4.92 5.8 7.46 8.64a167.1 167.1 0 0 0 35.61 28.96c3.27 2.06 6.68 3.85 10.08 5.69 1.72.88 3.47 1.7 5.21 2.55l2.62 1.25 2.67 1.15a168.02 168.02 0 0 0 21.95 7.78l5.65 1.5c1.9.46 3.8.84 5.72 1.26l2.87.6 2.9.49c1.92.31 3.86.65 5.8.92a181.96 181.96 0 0 0 23.54 1.58c15.8-.08 31.75-2.2 47.14-6.65 3.87-1.03 7.65-2.36 11.44-3.66 1.9-.66 3.74-1.44 5.62-2.16 1.86-.75 3.74-1.47 5.55-2.32l5.48-2.5c1.81-.87 3.57-1.82 5.36-2.73 3.68-1.85 6.78-3.75 10.1-5.67a207.47 207.47 0 0 0 36.55-27.63 213.1 213.1 0 0 0 51.6-76.77 217.77 217.77 0 0 0 12.26-45.48c2.46-15.62 2.62-205.9 2.62-239.5l-4.1.8 4.1-1.24zM807.46 660.3h42.2c51.22 0 95.95 37.62 106.4 92.32a91.5 91.5 0 0 1 2 20.93c-.1 7.12-.98 14.3-2.65 21.39a101.3 101.3 0 0 1-19.36 39.49 101.63 101.63 0 0 1-16.2 16.07c-1.52 1.15-3.13 2.5-4.48 3.4-.7.48-1.38 1.03-2.1 1.5-.73.45-1.45.91-2.18 1.38-.7.5-1.47.9-2.21 1.32-.75.41-1.48.9-2.25 1.28-1.54.75-3.06 1.6-4.66 2.25a75.65 75.65 0 0 1-30.9 6.6c-.9 0-1.8-.05-2.72-.06l-1.36-.02-1.37-.1c-.9-.09-1.82-.12-2.73-.21l-2.73-.34a82.12 82.12 0 0 1-40.77-17.78c-1.44-1.27-2.96-2.46-4.32-3.83-.69-.68-1.45-1.3-2.1-2.02l-2-2.11-.52-.53-.47-.56-.96-1.11-.96-1.12-.49-.55-.45-.59-1.81-2.34-.46-.59-.38-.54-.77-1.08a65.1 65.1 0 0 1-5.36-9.14 63.81 63.81 0 0 1-5.67-20.75 65.94 65.94 0 0 1-.06-11.11 66.74 66.74 0 0 1 18.68-41.23 73.94 73.94 0 0 1 9.04-7.9 51.1 51.1 0 0 1 9.4-5.53 52.1 52.1 0 0 1 21.79-4.6 55.43 55.43 0 0 1 22.65 5.15 56.04 56.04 0 0 1 19.03 14.65c.7.76 1.3 1.6 1.94 2.42.69.85 1.16 1.6 1.72 2.37a42.55 42.55 0 0 1 6.52 15.78 45.1 45.1 0 0 1-1.95 23.58 46.46 46.46 0 0 1-14.35 20.08c-.42.34-.85.65-1.28.98-.42.32-.86.68-1.26.94-.4.27-.8.57-1.22.84l-1.26.79a36.1 36.1 0 0 1-17.24 5 38.08 38.08 0 0 1-23.79-7.58 40.5 40.5 0 0 1-4.88-4.36c-.78-.8-1.48-1.65-2.2-2.5l-1.01-1.33-.26-.33-.2-.33-.42-.66a29.99 29.99 0 0 1-4.66-11.66 31.52 31.52 0 0 1 6.51-25l1.1-1.32c.2-.22.36-.46.57-.66l.62-.6c.84-.78 1.6-1.67 2.56-2.34.92-.7 1.83-1.52 2.77-2.05.47-.3.92-.63 1.4-.9l1.5-.75c.25-.13.5-.28.75-.38l.78-.3c.53-.2 1.05-.42 1.58-.6l1.63-.46c.28-.07.55-.17.83-.22l.84-.14c.56-.1 1.12-.22 1.69-.3l1.71-.12c.58-.07 1.16-.04 1.74-.03.57.03 1.16 0 1.74.06 1.15.16 2.33.21 3.47.52.56.14 1.16.21 1.72.4l1.69.55c.58.14 1.1.44 1.65.66l.83.35c.28.1.55.23.8.39l1.58.86.4.22.36.26.75.51a26.55 26.55 0 0 1 9.3 11 22.82 22.82 0 0 1 1.04 14.53 23.5 23.5 0 0 1-8.4 12.69 19.24 19.24 0 0 1-14.97 4.02 20.41 20.41 0 0 1-13.85-8.61c2.65 5.1 7.6 9.09 13.42 10.63 2.9.79 6 .99 9.04.54a22.87 22.87 0 0 0 8.68-3.16 28.68 28.68 0 0 0 11.96-14.16 30.07 30.07 0 0 0 .89-19.18 34.13 34.13 0 0 0-4.2-8.94c-.42-.71-.96-1.33-1.44-2l-.74-.98-.38-.49-.42-.45-1.68-1.82-.42-.45-.46-.42-.93-.83-.93-.82-.47-.41-.5-.37-2.03-1.47a8.84 8.84 0 0 0-1.05-.68l-1.08-.63c-.73-.41-1.43-.89-2.2-1.21l-2.3-1.06c-.76-.36-1.57-.59-2.36-.88-1.59-.62-3.25-.96-4.9-1.37-.83-.18-1.68-.27-2.52-.4-.85-.13-1.7-.26-2.55-.28l-2.57-.12c-.86 0-1.72.06-2.58.1l-1.3.06c-.43.03-.85.11-1.28.17l-2.58.38c-.85.18-1.69.4-2.54.62l-1.27.32c-.42.11-.82.28-1.24.42l-2.47.9c-.81.32-1.58.73-2.38 1.1-1.64.72-3.02 1.64-4.49 2.52-1.48.83-2.8 1.93-4.17 2.95l-1.02.78c-.34.27-.64.57-.96.86l-1.9 1.75a49.36 49.36 0 0 0-11.46 17.25 51.2 51.2 0 0 0-3.5 20.83 51.73 51.73 0 0 0 5.39 20.88l.6 1.23.3.61.32.57 1.32 2.27a64.7 64.7 0 0 0 9.92 12.39 64.82 64.82 0 0 0 38.62 17.84 66.14 66.14 0 0 0 32.71-5.04l2.57-1.16c.85-.4 1.67-.85 2.5-1.27.87-.43 1.62-.88 2.4-1.33.77-.45 1.55-.89 2.32-1.36a81.72 81.72 0 0 0 29.41-31.74 84.42 84.42 0 0 0 9.31-43.33 85.87 85.87 0 0 0-8.71-33.05c-.87-1.7-1.76-3.46-2.68-5-.9-1.57-1.81-3.16-2.83-4.69a103.73 103.73 0 0 0-31.3-31.27 107.17 107.17 0 0 0-42.22-15.68 101.97 101.97 0 0 0-32.54.48l-16.76-19.22z"/><path fill="#FFF" d="M665.25 1080a2 2 0 0 1-1.96-2.4l.52-2.61c2-9.84 5.7-28.15 5.79-36.47.24-21.01-14.37-41.41-35.53-49.61-9.72-3.77-18.62-4.34-28.93-5-1.89-.13-3.8-.25-5.76-.4-13.46-1-23.29-5.54-28.44-13.13-2.66-3.91-8-14.91-.2-32.45 2.11-4.74 4.8-9.24 7.38-13.59 2.76-4.64 5.62-9.43 7.7-14.42 8.87-21.25 1.27-44.96-18.49-57.66-7.88-5.07-18-8.22-28.52-9.07.23 1.68.4 3.37.52 5.07.53 7.99-5.37 18.78-16.17 23.01-7.67 3-14.8 1.33-19.6-4.6-4.84-5.97-4.36-10.78-3.11-13.76 3.54-8.5 17.15-12.78 25.43-13.6 2.7-.27 5.43-.39 8.15-.34-7.75-37.1-44.9-65.52-80.68-77.95a2 2 0 1 1 1.32-3.78c37.2 12.92 75.83 42.79 83.47 81.9 11.53.77 22.69 4.18 31.36 9.75 21.42 13.77 29.65 39.5 20.01 62.57-2.19 5.25-5.12 10.17-7.95 14.93-2.53 4.25-5.15 8.64-7.16 13.17-4.85 10.9-4.9 21.57-.15 28.58 5.61 8.26 16.92 10.75 25.42 11.39 1.95.14 3.85.26 5.73.38 10.2.66 19.82 1.28 30.12 5.27 22.68 8.8 38.34 30.74 38.08 53.39-.1 8.7-3.85 27.25-5.86 37.21l-.53 2.61a2 2 0 0 1-1.96 1.6zM533.08 842.96c-2.27 0-4.55.1-6.8.33-7.57.75-19.44 4.7-22.14 11.16-1.22 2.92-.4 6.1 2.53 9.7 4.97 6.14 11.55 4.76 15.03 3.4 9.1-3.57 14.08-12.47 13.64-19.02a68.74 68.74 0 0 0-.6-5.55l-1.66-.02z"/><path fill="#2E9AFF" d="M575.44 245.71H445.9v.18c-161.85 5.67-291.32 138.5-291.32 301.58h61.7c.6 62.42 50.88 112.82 112.82 112.82h124.56l37.32-.22V364.79c23.71-9.1 40.93-31.48 41.77-58.18a64.79 64.79 0 0 0 42.68-60.9z"/><circle fill="#FFF" cx="340.46" cy="428.08" r="65.61"/><circle cx="370.11" cy="401.2" r="8.87"/><circle cx="195" cy="513.93" r="13.14"/><path fill="#FFF" d="M238.62 783.83a2 2 0 0 1-.93-3.77c.63-.33 64.23-32.67 163.7-28.56a2 2 0 1 1-.16 4c-98.4-4.07-161.07 27.79-161.7 28.1-.29.16-.6.23-.91.23z"/><path d="m238.43 781.51-.02.01c-7.71-16.82-19.3-31.6-37.7-39.43a77.09 77.09 0 0 0-56.3-1.65 77.1 77.1 0 0 0 40.25 39.41c16.96 7.21 33.2 8.47 49.3 3.87a77.02 77.02 0 0 0-34.94 38.05 77.09 77.09 0 0 0-1.66 56.31 77.1 77.1 0 0 0 39.41-40.25 77.08 77.08 0 0 0 1.9-55.6l-.24-.72zm163.74-23.79c-.08 0-.15 0-.23-.02a2 2 0 0 1-1.76-2.21c1.85-15.94 13.07-27.08 27.29-27.08a27.33 27.33 0 0 1 27.3 27.3 2 2 0 0 1-4 0 23.33 23.33 0 0 0-23.3-23.3c-12.12 0-21.71 9.68-23.32 23.54a2 2 0 0 1-1.98 1.77z"/><path d="m1081.78 547.13.02-.3c-2.76-81.86-36.74-158.4-95.68-215.5a313.49 313.49 0 0 0-219.23-88.75l-33.96.56h-279.1c-80.58.8-156.22 32.74-212.98 89.96a302.2 302.2 0 0 0-75.6 127.26c-.26.9-.51 1.82-.78 2.72l-1 3.51a304.56 304.56 0 0 0-10.88 80.88c0 1.1.9 2 2 2h59.73a115.76 115.76 0 0 0 33.97 79.23 113.55 113.55 0 0 0 80.82 33.6h124.57l35.43-.22v28.34h-97.9a39.65 39.65 0 0 0-39.61 39.6v34.01a39.65 39.65 0 0 0 39.6 39.61h24.15a39.65 39.65 0 0 0 39.6-39.6v-15h56.11a36.7 36.7 0 0 0 36.66-36.66v-50.66H705.5l25.71 26.38h-72.39c-18.82 0-34.13 15.31-34.13 34.14s15.31 34.13 34.16 34.13h69.74a139.62 139.62 0 0 0-10.25 46.43 140.35 140.35 0 0 0 6.14 47.24 144.39 144.39 0 0 0 9.12 22.33l2.11 4.03 4.3 7.4 4.68 7.18 4.17 5.75c.78 1.1 1.62 2.14 2.44 3.14l1.12 1.4a141.4 141.4 0 0 0 6.4 7.46l1.18 1.32a168.7 168.7 0 0 0 44.7 34.23l1.54.83c1.3.67 2.61 1.3 3.93 1.94l4.02 1.92 2.65 1.14c6.55 2.9 13.81 5.48 22.24 7.9l5.7 1.5c1.4.33 2.8.63 4.2.93l4.52.95 4.48.75c1.42.24 2.85.48 4.3.67a184.98 184.98 0 0 0 23.81 1.6 174.67 174.67 0 0 0 58.28-10.1l.94-.32c1.37-.47 2.7-1 4-1.52l1.7-.67.8-.32c1.6-.63 3.26-1.3 4.85-2.04l5.5-2.52c1.32-.62 2.62-1.3 3.87-1.95l1.53-.8c2.94-1.47 5.56-3 8.08-4.47l2.15-1.26a209.41 209.41 0 0 0 36.9-27.9 215.58 215.58 0 0 0 52.1-77.49 220.83 220.83 0 0 0 12.37-45.9c2.57-16.38 2.64-217 2.64-239.82l-.02-.2zm-925-1.85a303.57 303.57 0 0 1 12.19-83.32l.4-1.4A298.5 298.5 0 0 1 241 339.05c54.3-56.06 127.1-88.44 204.99-91.17.26 0 .51-.07.74-.17h126.68a62.97 62.97 0 0 1-41.33 57.02 2 2 0 0 0-1.32 1.81c-.79 25.13-16.68 47.25-40.48 56.38a2 2 0 0 0-1.28 1.87v292.94H329.3c-29.4 0-57.1-11.52-78-32.42a111.78 111.78 0 0 1-32.77-75.98h139.4c9.94 0 17.05-2.5 21.14-7.42a16.23 16.23 0 0 0 3.43-12.51 2 2 0 1 0-3.93.74c.01.05.9 5.03-2.58 9.22-3.3 3.96-9.37 5.97-18.07 5.97H156.8m920.9 69.16-.13 31.73a33.83 33.83 0 0 0-.48 67.45c-.12 11.72-.26 22.74-.43 32.51a33.83 33.83 0 0 0-7.08 65.94c-1.87 6.6-4.03 13.1-6.5 19.48a207.91 207.91 0 0 1-7.34 16.56 33.84 33.84 0 0 0-38.58 54.33 203 203 0 0 1-31.55 26.25 33.84 33.84 0 0 0-61.49 27.3 173.52 173.52 0 0 1-38.03 4.37c-1.5 0-3-.04-4.51-.08a33.84 33.84 0 0 0-65.27-14.8l-.46-.2-3.94-1.89c-1.28-.62-2.57-1.24-3.8-1.87l-1.5-.81c-2.83-1.52-5.74-3.1-8.5-4.84a159.28 159.28 0 0 1-17-11.83 33.84 33.84 0 0 0-42.76-51.28l-1.18-2.27c-3.57-7-6.55-14.3-8.87-21.68a138.47 138.47 0 0 1-2.72-10.27 33.85 33.85 0 0 0 1.87-66.65 131.2 131.2 0 0 1 11.4-27.64 33.84 33.84 0 0 0 46.4-48.29 108.04 108.04 0 0 1 32.32-13.31 33.84 33.84 0 0 0 65.8 5.96 101.92 101.92 0 0 1 45.26 38.43c.88 1.33 1.7 2.75 2.5 4.13l.28.49c.75 1.24 1.5 2.7 2.22 4.1l.37.74a83.9 83.9 0 0 1 8.51 32.28 82.1 82.1 0 0 1-9.08 42.3 80.27 80.27 0 0 1-28.7 30.96c-.5.31-1 .6-1.51.9l-1.23.7c-.58.34-1.16.68-1.82 1l-.73.38c-.57.3-1.14.6-1.7.86l-2.52 1.14a66.95 66.95 0 0 1-10.34 3.42 63.77 63.77 0 0 1-41.7-4.08 62.54 62.54 0 0 1-17.12-11.73 63.28 63.28 0 0 1-9.58-11.96l-1.3-2.26-1.18-2.31a49.47 49.47 0 0 1-1.82-40.09 47.44 47.44 0 0 1 10.97-16.51l1.86-1.73.36-.33c.17-.15.33-.31.48-.43l1-.77.96-.72a26.16 26.16 0 0 1 3.06-2.12l.85-.52c1.14-.7 2.2-1.36 3.45-1.9l.76-.37c.5-.24 1-.48 1.46-.66l2.42-.88.47-.17c.21-.08.42-.16.63-.21l1.98-.5c.56-.15 1.12-.29 1.68-.4l2.95-.44.67-.1 2.05-.1 1.62-.06 2.63.13c.7.01 1.45.12 2.28.25l.83.12c.55.08 1.08.15 1.52.25l1.03.25c1.28.3 2.49.6 3.65 1.05l.85.3c.5.17.95.33 1.38.53l2.35 1.08c.4.17.83.43 1.28.7l.69.39 1.11.65c.31.18.58.35.86.56l2.44 1.78 2.25 1.99 2.43 2.55 1.39 1.74.53.72c.3.39.59.76.85 1.2a32.21 32.21 0 0 1 3.95 8.4c1.7 5.9 1.4 12.26-.81 17.89a26.58 26.58 0 0 1-12.14 13.76 25.47 25.47 0 0 0 10.04-14.47 24.78 24.78 0 0 0-1.14-15.84 28.66 28.66 0 0 0-10-11.84l-1.1-.76a2.09 2.09 0 0 0-.19-.12l-1.88-1.03c-.35-.22-.73-.4-1.07-.53l-.87-.37-.47-.2c-.4-.18-.84-.38-1.36-.52l-1.6-.51c-.48-.17-.94-.26-1.34-.34l-.5-.1c-.95-.26-1.86-.36-2.74-.46a13.62 13.62 0 0 0-2.32-.18l-.63-.01h-.17a11.2 11.2 0 0 0-1.81.04l-1.67.12-.1.01c-.38.05-.75.12-1.12.18l-.66.12-.88.15c-.24.05-.49.11-.73.19l-1.88.52a2.8 2.8 0 0 0-.13.04l-1 .38-.63.25-.78.3c-.25.09-.49.21-.72.34l-1.76.9c-.36.19-.7.41-1.03.64l-.42.27c-.83.47-1.58 1.08-2.3 1.66l-.62.5c-.81.56-1.46 1.2-2.09 1.83l-.72.7-.65.63a6.8 6.8 0 0 0-.5.57l-1.31 1.57a33.91 33.91 0 0 0-6.37 12.77 33.65 33.65 0 0 0-.55 13.83 32.17 32.17 0 0 0 4.94 12.4l.62.96.1.16 1.27 1.66.06.08.34.4a42.75 42.75 0 0 0 7.08 6.78c3.7 2.72 7.73 4.8 12 6.14a40.12 40.12 0 0 0 13.06 1.81 37.98 37.98 0 0 0 18.22-5.3l1.29-.8c.26-.16.52-.35.78-.53l.44-.3c.34-.23.7-.5 1.07-.8l.33-.25.48-.36.83-.64a48.37 48.37 0 0 0 14.97-20.95 46.75 46.75 0 0 0 2.03-24.66 44.6 44.6 0 0 0-6.86-16.56l-.53-.75c-.37-.53-.76-1.09-1.23-1.66l-.42-.55c-.5-.66-1.02-1.35-1.57-1.95A58.39 58.39 0 0 0 875 735.83a57.6 57.6 0 0 0-23.48-5.34 54.13 54.13 0 0 0-22.62 4.77 53.29 53.29 0 0 0-9.77 5.75 76.08 76.08 0 0 0-9.28 8.1 68.52 68.52 0 0 0-13.45 19.83 67.18 67.18 0 0 0-5.8 22.65 68.5 68.5 0 0 0 .07 11.46 66.6 66.6 0 0 0 5.86 21.43 67.57 67.57 0 0 0 5.53 9.42l1.14 1.6.07.1 2.7 3.5.09.1 2.86 3.32c.02.04.06.07.09.1l2.47 2.58c.46.52.94.96 1.41 1.39.26.24.52.47.75.7.97.98 2.01 1.87 3.01 2.72l1.46 1.25a83.66 83.66 0 0 0 41.8 18.22l2.77.35c.53.05 1.07.08 1.6.12l1.17.08 1.36.11h.13l1.38.03 1.14.03c.54.02 1.07.03 1.63.03a77.58 77.58 0 0 0 31.62-6.75 41.8 41.8 0 0 0 3.36-1.6l1.43-.71c.53-.26 1.02-.55 1.49-.83l.88-.51.57-.33a17.1 17.1 0 0 0 1.74-1.05c.7-.46 1.42-.92 2.16-1.38.46-.3.9-.62 1.34-.94l.78-.57c.95-.63 2-1.46 3.02-2.26l1.6-1.24a103.87 103.87 0 0 0 16.52-16.4 103.7 103.7 0 0 0 19.75-40.27 102.6 102.6 0 0 0 2.7-21.81 93.39 93.39 0 0 0-2.04-21.34c-5.1-26.73-18.8-50.82-38.57-67.82a107.23 107.23 0 0 0-69.79-26.13h-24.14c9.37-3.67 16.69-9.38 21.85-17.07 13.96-20.79 7.21-48.32 6.92-49.48a2 2 0 1 0-3.88.98c.07.27 6.6 27-6.37 46.29-7.1 10.56-18.78 17.05-34.72 19.3-.2.03-.39.1-.56.18l-78.36-91.67a2 2 0 0 0-3.04 2.6l92.85 108.62a111.99 111.99 0 0 0-31.9 11.58 137.5 137.5 0 0 0-18.91 12.52 132.17 132.17 0 0 0-30.54 34.22 132.42 132.42 0 0 0-8.55 16h-71.49c-16.61 0-30.13-13.51-30.13-30.13s13.52-30.13 30.06-30.14h77.21a2 2 0 0 0 1.42-3.39l-28.47-29.2c-.1-.91-.8-1.63-1.7-1.75l-26.3-26.98c-14.1-14.11-21.88-32.88-21.88-52.83s7.77-38.72 21.88-52.83 32.88-21.89 52.83-21.89 38.72 7.77 52.83 21.89a2 2 0 1 0 2.83-2.83c-30.69-30.7-80.63-30.7-111.32 0-30.69 30.69-30.69 80.63-.02 111.3l23.54 24.14H545.72a2 2 0 0 0-2 2v52.65a32.7 32.7 0 0 1-32.66 32.66h-58.1a2 2 0 0 0-2 2v17a35.65 35.65 0 0 1-35.6 35.6H391.2a35.65 35.65 0 0 1-35.61-35.6v-34a35.65 35.65 0 0 1 35.6-35.62h99.9a2 2 0 0 0 2-2v-32.69a2 2 0 0 0-.1-.63V366.15c24.17-9.83 40.37-32.41 41.7-58.14a66.98 66.98 0 0 0 42.71-60.87h28.33a33.83 33.83 0 0 0 67.62 0h34.37a33.83 33.83 0 0 0 67.62-.43c12.1.32 24.09 1.33 35.93 3.01a33.84 33.84 0 0 0 65.33 16.72 308.32 308.32 0 0 1 52.81 25.87 32.33 32.33 0 0 0 48.82 41.24c.77-.68 1.48-1.39 2.17-2.11.97.92 1.96 1.83 2.92 2.77a315.43 315.43 0 0 1 24.33 26.43 32.34 32.34 0 0 0 32.94 54.7 30.5 30.5 0 0 0 2.45-1.13 307.8 307.8 0 0 1 16.42 37.35 32.34 32.34 0 0 0 12.92 62.67c.85-.05 1.7-.15 2.54-.26a314.2 314.2 0 0 1 2.87 33 33.84 33.84 0 0 0-.12 67.52zm-235.37 185A23.55 23.55 0 0 0 857 811.12a24.5 24.5 0 0 0 19.24-2.82 30.58 30.58 0 0 0 12.82-15.15 32 32 0 0 0 .95-20.48 35.54 35.54 0 0 0-4.4-9.4c-.34-.57-.71-1.06-1.07-1.53l-.5-.65-1.12-1.49a2.3 2.3 0 0 0-.11-.13l-2.54-2.74a2.63 2.63 0 0 0-.12-.12l-2.82-2.5a1.88 1.88 0 0 0-.13-.1l-2.5-1.82c-.39-.3-.8-.57-1.24-.81l-1.13-.66-.62-.36a13.4 13.4 0 0 0-1.72-.92l-2.27-1.05c-.61-.28-1.2-.48-1.77-.68l-.73-.25a28.8 28.8 0 0 0-4.14-1.2l-1.04-.26c-.65-.14-1.27-.23-1.88-.32l-.84-.12c-.88-.13-1.78-.27-2.7-.29l-2.66-.12c-.64 0-1.28.03-1.92.06l-2.1.1c-.34.03-.67.08-1 .13l-3.02.45-.1.02c-.64.13-1.27.29-1.9.45l-2 .5c-.35.1-.68.21-1 .33-.13.05-.25.1-.43.15l-2.52.92c-.63.25-1.21.53-1.78.8l-.67.33a31.8 31.8 0 0 0-3.89 2.13l-.77.47c-1.27.72-2.4 1.57-3.48 2.4l-.93.71-1.05.8c-.26.21-.51.44-.75.66l-2.26 2.1a51.53 51.53 0 0 0-11.93 17.94 53.46 53.46 0 0 0 1.95 43.32l.9 1.85c.03.03.04.07.06.1l1.7 2.93a67.03 67.03 0 0 0 10.22 12.76 66.53 66.53 0 0 0 18.2 12.48 67.73 67.73 0 0 0 44.33 4.34c3.72-.9 7.4-2.12 11-3.65l2.6-1.18c.63-.3 1.25-.61 1.86-.93l.7-.36c.73-.36 1.38-.74 2-1.1l1.23-.71c.55-.32 1.1-.63 1.63-.96a84.3 84.3 0 0 0 30.14-32.52 86.1 86.1 0 0 0 5.1-67.27 87.79 87.79 0 0 0-4.5-10.94l-.4-.77a75.86 75.86 0 0 0-2.32-4.31l-.27-.46a105.91 105.91 0 0 0-34.52-36.2 109.69 109.69 0 0 0-43.01-15.97 110 110 0 0 0-32.27.19l-12.77-14.95h37.65c24.45 0 48.31 8.94 67.19 25.17 19.08 16.41 32.3 39.69 37.26 65.59a89.52 89.52 0 0 1 1.96 20.47 98.48 98.48 0 0 1-2.6 20.96 99.64 99.64 0 0 1-18.98 38.7 99.73 99.73 0 0 1-17.47 16.99c-1 .78-1.94 1.52-2.79 2.08l-.92.66c-.37.28-.74.56-1.1.79-.74.46-1.48.93-2.27 1.45-.44.3-.93.58-1.44.87l-.58.33-.97.55c-.4.24-.79.48-1.2.68-.5.24-1 .5-1.49.75-1.04.53-2.03 1.04-3.12 1.48a73.73 73.73 0 0 1-30.08 6.43c-.49 0-.97-.02-1.46-.03l-1.22-.04-1.3-.02-1.28-.1-1.25-.09-1.42-.1-2.7-.34a79.57 79.57 0 0 1-39.72-17.3l-1.46-1.26a41.9 41.9 0 0 1-2.77-2.5l-.87-.81c-.42-.38-.81-.75-1.19-1.16l-2.02-2.13-2.84-3.23-2.68-3.41-1.54-2.12a63.56 63.56 0 0 1-5.18-8.83 61.97 61.97 0 0 1-5.5-20.09 63.93 63.93 0 0 1-.06-10.77 63.3 63.3 0 0 1 5.45-21.3 64.53 64.53 0 0 1 12.67-18.7 72.08 72.08 0 0 1 8.8-7.68 49.22 49.22 0 0 1 9.04-5.32 50.45 50.45 0 0 1 20.94-4.41c7.45.07 15 1.79 21.82 4.96a54.48 54.48 0 0 1 19.8 15.9l.47.62c.4.5.73.97 1.07 1.46l.56.78a40.74 40.74 0 0 1 6.2 15.02 43.3 43.3 0 0 1-1.87 22.52 44.38 44.38 0 0 1-13.75 19.22l-.7.54-.51.4-.34.25c-.27.21-.54.42-.83.61l-.54.38-.62.43-1.21.75a33.96 33.96 0 0 1-16.29 4.72 35.85 35.85 0 0 1-27.19-11.33c-.6-.61-1.16-1.28-1.75-1.98l-1.3-1.67-.8-1.21a28.2 28.2 0 0 1-4.35-10.89 29.6 29.6 0 0 1 .48-12.18c1-3.98 2.94-7.87 5.6-11.2l1.07-1.3.25-.3.18-.22.6-.58c.28-.25.54-.5.8-.77a13.1 13.1 0 0 1 1.63-1.45l.76-.6c.63-.5 1.22-.98 1.83-1.33l.6-.4.67-.42 1.46-.74.35-.18c.08-.04.15-.09.24-.12l.77-.3.7-.27.78-.3 1.54-.43.36-.1.28-.08.82-.14.74-.13.85-.14 1.66-.13h.1c.36-.05.79-.04 1.24-.03h.15c.25.02.5.02.74.02.3 0 .6 0 .81.02.37.06.73.1 1.1.14.76.08 1.48.16 2.17.35l.74.16c.3.06.59.12.85.2l1.7.55.1.03c.22.06.48.17.78.3.2.1.42.2.6.26l.89.38c.18.07.33.15.55.28l1.59.87 1.34.89a24.54 24.54 0 0 1 8.58 10.12c1.76 4.13 2.1 8.83.95 13.23a21.48 21.48 0 0 1-7.71 11.64 17.24 17.24 0 0 1-6.26 3.19c-2.3.62-4.78.77-7.19.42a18.46 18.46 0 0 1-12.47-7.76 2 2 0 0 0-3.42 2.05z"/><path fill="#FFF" d="M130.04 549.28S25.98 549 31.8 463.26c.06-1.57.16-3.15.3-4.76.04-.7 1.33-18.56 15.29-32.88 6.09-6.24 14.46-9.53 23.6-9.24a36.97 36.97 0 0 1 26.78 12.79 29 29 0 0 1-2.97 40.84 15.72 15.72 0 0 0 10.15 27.73c5 0 7.98-1.73 12.32-5.97 22.86-21.3 22.75-58.43 1.13-82.3-16.16-17.85-42.3-25.48-64.56-20.08-30.68 7.43-47.75 36.63-51.97 60.92-5.4 31.05.56 63.1 21.23 87.03 25.86 29.94 62.85 39.91 99.3 44.08 16.32 1.87 33.13 1.74 49.47.6 12.01-.84 24-1.95 35.96-3.36 8.87-1.05 17.75-2.2 26.53-3.85l123.87-25.2-228.2-.33z"/><g fill="#FFF"><path d="M891 478.77a2 2 0 0 1-1.9-1.41l-15.53-50.19a2 2 0 0 1 3.82-1.18l15.52 50.18a2 2 0 0 1-1.9 2.6zm-110.89-71.79a2 2 0 0 1-.59-3.92l38.58-11.93a2 2 0 0 1 1.18 3.82l-38.58 11.94a2 2 0 0 1-.59.09zm46.19-43.7a2 2 0 0 1-1.06-.3l-56.6-35.39a2 2 0 0 1 2.13-3.4l56.59 35.39a2 2 0 0 1-1.06 3.7zm117.33 70.68a2 2 0 0 1-1.05-.3l-46.52-29.08a2 2 0 0 1 2.12-3.4l46.52 29.09a2 2 0 0 1-1.07 3.7zM799.72 504.3a2 2 0 0 1-1.78-2.91l42.12-81.97a2 2 0 0 1 3.56 1.83l-42.12 81.97a2 2 0 0 1-1.78 1.09zm53.71-113.87 119.09-239.98 99.65 49.45zm0 0 119.09-239.98-99.66-49.46z"/><path d="m972.49 150.48-40.83-20.26L994.74 3.11l40.82 20.25z"/><path d="m1013.3 170.73-40.82-20.26 63.07-127.11 40.83 20.25z"/></g></svg>