<svg xmlns="http://www.w3.org/2000/svg" fill="none" viewBox="0 0 111 111"><g clip-path="url(#a)"><mask id="b" width="111" height="111" x="0" y="1" mask-type="alpha" maskUnits="userSpaceOnUse"><path fill="#fff" d="M104.16 1.21H6c-3.3137 0-6 2.6863-6 6v98.16c0 3.314 2.6863 6 6 6h98.16c3.314 0 6-2.686 6-6V7.21c0-3.3137-2.686-6-6-6Z"/></mask><g mask="url(#b)"><path fill="#fff" d="M52.4202 26.73s-8.82-.73-13.4 1.57c-2.84 2.23-3.4 6.42-3.4 6.42l-1.29 24.79-.36 1.83-6.34 1.75-1.28 1.74-6.35 3.77 1.01 2.02 4.68 2.48 3.4.91-.27 1.66-2.48 4.86-6.25 8.08-4.22 6.52-4.5 10-1.65 6.34H104.1l-.56-3.77-2.38-6.33-3.0298-6.43-8.72-12.02-3.58-5.23-9.55-17.17-6.98-31.49-3.49-1.1-7.53-2.66-4.22-2.12-.18.74.18 1.38 1.01 1.1-2.66.36h.01Z"/><path fill="#020202" d="M83.1598 78.35c7.66 5.9 15.33 3.18 15.33 3.18s-11.62-6.45-13.84-14.02c0 0 2.06 1.03 3.74 0 0 0-8.23-8.79-8.6-20.2-.37-11.4 11.5-36.08 8.6-37.48-2.9-1.4-19.82 18.6-19.82 18.6l-2.43-.74s-7.76 5.7-7.85 18.7c-.1 12.99 9.44 16.45 13 19.72 4.67 4.3 4.2 6.35 11.87 12.24Z"/><path fill="#fff" d="M45.1802 47.9c-1.17 4.6-4.27 7.79-6.91 7.11-2.65-.67-3.85-4.94-2.68-9.55 1.17-4.6 4.26-7.78 6.9-7.1 2.66.66 3.85 4.94 2.69 9.54Z"/><path fill="#020202" d="M48.9398 41.7c3.83 15.8-17.39 20.67-17.39 20.67s3.07-8.42 1.31-21.78c-1.75-13.37-12.52-29.36-8.6-29.36 3.93 0 20.85 14.68 24.68 30.48v-.01Z"/><path fill="#000" fill-rule="evenodd" d="M58.9798 25.19c.9.45 1.78.83 2.53 1.01a65.0366 65.0366 0 0 1 6.67 2c.2204.079.4404.159.66.24l.03.01h.02l-.13.36-.13.35-.04-.02a44.7138 44.7138 0 0 0-.65-.22 64.3542 64.3542 0 0 0-6.6-1.99c-.84-.2-1.78-.62-2.7-1.08-.57-.29-1.15-.6-1.7-.9l-.9-.49c-.39-.2-.74-.38-1.05-.52a3.1803 3.1803 0 0 0-.85-.25c0 .04 0 .12.03.27a5.5404 5.5404 0 0 0 1.08 2.17 5.953 5.953 0 0 0 .15.2l.55.65-6.19-.32a.3756.3756 0 0 1 .04-.75l4.55.24-.1-.16a6.2806 6.2806 0 0 1-.81-1.87c-.07-.31-.1-.66.12-.92.22-.27.57-.28.82-.24.27.04.58.15.91.3.34.14.71.33 1.1.54l.93.5 1.66.89Zm10.13 3.74c-.07.2-.28.3-.48.23l.13-.35.13-.35c.2.07.3.28.22.47Z" clip-rule="evenodd"/><path fill="#fff" d="M36.9102 46.7399c0-2.73 1.84-4.94 4.1-4.94 2.27 0 4.1 2.21 4.1 4.94 0 2.73-1.84 4.95-4.1 4.95s-4.1-2.22-4.1-4.95Zm25.16.62c0-2.73 1.83-4.94 4.1-4.94 2.26 0 4.1 2.21 4.1 4.94 0 2.73-1.84 4.95-4.1 4.95-2.27 0-4.1-2.22-4.1-4.95Z"/><path fill="#000" fill-rule="evenodd" d="M41.3302 57.45c.13.16.11.4-.04.53-2.36 2.01-6.06 3.44-9.82 4.45a79.0486 79.0486 0 0 1-10.42 1.97c-.97.12-1.76.62-2.17 1.25-.4.6-.45 1.35.07 2.1 1.92 2.71 6.47 6.25 17.29 6.58 9.11.28 15.23-1.23 19.06-2.8a21.4733 21.4733 0 0 0 4.11-2.18 11.588 11.588 0 0 0 1.21-.96l.02-.02.26-.27.27.27h.01a2.1 2.1 0 0 0 .21.2c.15.11.36.27.61.43.52.32 1.2.6 1.88.57a.3709.3709 0 0 1 .39.35.3705.3705 0 0 1-.35.39c-.9.06-1.73-.31-2.3-.67-.3-.18-.54-.36-.7-.5a11.573 11.573 0 0 1-1.08.83c-.9.63-2.3 1.45-4.26 2.26-3.93 1.6-10.15 3.13-19.36 2.85-10.98-.33-15.79-3.94-17.88-6.9-.7-1.01-.64-2.1-.08-2.94a3.7695 3.7695 0 0 1 2.7-1.58c2.74-.34 6.59-.94 10.31-1.95 3.74-1 7.31-2.4 9.53-4.3.16-.13.4-.12.53.04Z" clip-rule="evenodd"/><path fill="#000" d="M38.0802 45.14c.47-1.83 1.7-3.1 2.74-2.83 1.05.27 1.53 1.97 1.07 3.8-.47 1.82-1.7 3.09-2.75 2.82s-1.52-1.97-1.06-3.8v.01Zm25.16.53c.47-1.83 1.7-3.1 2.75-2.82 1.05.26 1.52 1.96 1.06 3.79-.46 1.82-1.7 3.09-2.74 2.82-1.05-.27-1.53-1.96-1.07-3.8v.01Z"/><path fill="#000" fill-rule="evenodd" d="M26.12 79.9c1.56-2.29 2.54-4.25 2.63-6.05l.75.03c-.1 2.03-1.2 4.14-2.76 6.44a105.5254 105.5254 0 0 1-3.27 4.44c-.82 1.07-1.68 2.2-2.55 3.4-4.33 5.91-9.02 13.43-10.69 23.72l-.73-.12c1.7-10.46 6.45-18.09 10.81-24.05l2.59-3.44c1.2-1.57 2.3-3 3.22-4.37Zm61.72 0c-1.55-2.29-2.54-4.25-2.63-6.05l-.74.03c.1 2.03 1.19 4.14 2.75 6.44.93 1.37 2.06 2.85 3.27 4.44.82 1.07 1.68 2.2 2.55 3.4 4.34 5.91 9.02 13.43 10.69 23.72l.73-.12c-1.7-10.46-6.45-18.09-10.81-24.05l-2.59-3.44c-1.2-1.57-2.3-3-3.22-4.37Z" clip-rule="evenodd"/><path fill="#000" fill-rule="evenodd" d="M26.12 79.9c1.56-2.29 2.54-4.25 2.63-6.05l.75.03c-.1 2.03-1.2 4.14-2.76 6.44a105.5254 105.5254 0 0 1-3.27 4.44c-.82 1.07-1.68 2.2-2.55 3.4-4.33 5.91-9.02 13.43-10.69 23.72l-.73-.12c1.7-10.46 6.45-18.09 10.81-24.05l2.59-3.44c1.2-1.57 2.3-3 3.22-4.37Z" clip-rule="evenodd"/><path fill="#000" fill-rule="evenodd" d="m27.75 78.07.25-.28.25-.27h.01l.03.02c.1626.1513.3293.298.5.44.37.3.9.73 1.6 1.24a50.9348 50.9348 0 0 0 6.04 3.8c5.18 2.8 12.5 5.62 21.12 5.8a44.2097 44.2097 0 0 0 28.34-9.62l.26.28.25.27-.01.01-.03.03a10.6743 10.6743 0 0 1-.5.4c-.34.29-.85.69-1.52 1.16a44.96 44.96 0 0 1-26.8 8.22c-8.78-.19-16.22-3.06-21.47-5.89a51.6665 51.6665 0 0 1-7.75-5.12 22.9332 22.9332 0 0 1-.53-.46l-.03-.02v-.01h-.01Z" clip-rule="evenodd"/><path fill="#000" fill-rule="evenodd" d="M25.7701 83.8499c.07-.2.28-.3.47-.24 2.27.71 5.08 2.3 8 4.23 2.94 1.95 6.02 4.28 8.82 6.51a219.4883 219.4883 0 0 1 9.29 7.8801l.38.34 5.02-13.5001a.3733.3733 0 1 1 .7.26l-5.4 14.5401-.42-.38.26-.27-.26.28-.02-.03-.03-.02-.15-.14-.58-.52a208.0996 208.0996 0 0 0-9.26-7.8501 125.851 125.851 0 0 0-8.75-6.47c-2.92-1.94-5.66-3.47-7.82-4.15a.3676.3676 0 0 1-.1309-.0681.3697.3697 0 0 1-.1191-.4019Z" clip-rule="evenodd"/><path fill="#000" fill-rule="evenodd" d="M90.6199 83.8499a.3715.3715 0 0 0-.1847-.2185.3711.3711 0 0 0-.2853-.0215c-2.26.71-5.08 2.3-8 4.23a126.5161 126.5161 0 0 0-8.82 6.51 219.4366 219.4366 0 0 0-9.29 7.8801l-.38.34-5.02-13.5001a.3738.3738 0 0 0-.48-.22.3732.3732 0 0 0-.22.48l5.4 14.5401.42-.38-.25-.27.25.28.03-.03.02-.02.15-.14.58-.52a206.5338 206.5338 0 0 1 9.26-7.8501c2.79-2.23 5.85-4.55 8.76-6.47 2.91-1.94 5.66-3.47 7.81-4.15.2-.06.31-.27.25-.47Z" clip-rule="evenodd"/><path fill="#000" d="m22.7698 63.77 5.23-.65s0 2.33-3.36 3.74c-3.37 1.4-3.37 3.73-3.37 3.73l-3.18-3.27.47-1.87 1.12-1.12 3.09-.56Z"/></g></g><defs><clipPath id="a"><path fill="#fff" d="M0 0h111v111H0z"/></clipPath></defs></svg>