<svg xmlns="http://www.w3.org/2000/svg" viewBox="0 0 1362 724"><path fill="#ffd829" d="M1036.89 292.15a38.76 38.76 0 1 1-77.53 0 38.76 38.76 0 0 1 77.53 0Zm150.63 0a38.76 38.76 0 1 1-77.52 0 38.76 38.76 0 0 1 77.52 0Z"/><path d="M680.03 286.56c-31.7 0-57.5-25.8-57.5-57.5s25.8-57.5 57.5-57.5 57.5 25.8 57.5 57.5-25.8 57.5-57.5 57.5Zm0-111c-29.5 0-53.5 24-53.5 53.5s24 53.5 53.5 53.5 53.5-24 53.5-53.5-24-53.5-53.5-53.5Z"/><path d="M678.18 260.77a2 2 0 0 1-1.41-.58l-29.71-29.71a2 2 0 0 1 0-2.83l29.7-29.7a2 2 0 1 1 2.83 2.83l-28.29 28.29 28.3 28.29a2 2 0 0 1-1.42 3.41Z"/><path d="M711.58 231.06h-63.1a2 2 0 0 1 0-4h63.1a2 2 0 0 1 0 4Zm-31.55 339.05c-31.7 0-57.5-25.8-57.5-57.5s25.8-57.5 57.5-57.5 57.5 25.8 57.5 57.5-25.8 57.5-57.5 57.5Zm0-111c-29.5 0-53.5 24-53.5 53.5s24 53.5 53.5 53.5 53.5-24 53.5-53.5-24-53.5-53.5-53.5Z"/><path d="M681.87 544.32a2 2 0 0 1-1.41-3.41l28.3-28.3-28.3-28.29a2 2 0 1 1 2.83-2.82l29.7 29.7a2 2 0 0 1 0 2.83l-29.7 29.7a2 2 0 0 1-1.42.6Z"/><path d="M711.58 514.62h-63.1a2 2 0 0 1 0-4h63.1a2 2 0 0 1 0 4Z"/><path fill="#fff" d="M1207.12 530.22v-4a44.36 44.36 0 0 0 44.31-44.3 44.36 44.36 0 0 0-44.3-44.32v-4a48.37 48.37 0 0 1 48.3 48.31 48.37 48.37 0 0 1-48.3 48.31Zm-271.33 0a48.37 48.37 0 0 1-48.31-48.3 48.37 48.37 0 0 1 48.3-48.32v4a44.36 44.36 0 0 0-44.3 44.31 44.36 44.36 0 0 0 44.3 44.31Z"/><path fill="#fff" d="M937.79 671.2h-49.3V491.61h4v175.6h41.3V481.9h4Z"/><path fill="#ffd829" d="M935.79 431.34h271.33V669.2H935.8Z"/><path d="M1209.12 671.2H933.8V429.34h275.33Zm-271.33-4h267.33V433.34H937.8Z"/><path fill="#fff" d="M939.79 398.72a2 2 0 0 1-1.3-.47l-98.57-83a2 2 0 0 1 1.29-3.53h98.58a2 2 0 0 1 2 2v83a2 2 0 0 1-2 2Zm-93.1-83 91.1 76.7v-76.7Zm356.78 83.35a2 2 0 0 1-2-2v-83c0-1.1.9-2 2-2h98.58a2 2 0 0 1 1.29 3.53l-98.58 83a2 2 0 0 1-1.3.47Zm2-83v76.7l91.1-76.7Z"/><path d="M998.12 330.91a38.76 38.76 0 1 1 0-77.52Zm150.64 0a38.76 38.76 0 1 1 0-77.52Z"/><path fill="#fff" d="M1207.12 249.41c0-74.92-60.74-135.66-135.66-135.66-74.93 0-135.67 60.74-135.67 135.66 0 1.33.02 2.66.06 3.98h-.06V395.8h271.33V253.39h-.06c.04-1.32.06-2.65.06-3.98Zm-209 81.5a38.76 38.76 0 1 1 0-77.52 38.76 38.76 0 0 1 0 77.52Zm89.1-32a18.8 18.8 0 0 1-37.58 0v-54.04a18.8 18.8 0 0 1 37.59 0Zm61.54 32a38.76 38.76 0 1 1 0-77.52 38.76 38.76 0 0 1 0 77.52Z"/><path d="M1236.4 414.6a18.8 18.8 0 0 0-18.79-18.8H925.3a18.8 18.8 0 0 0 0 37.6h292.31a18.8 18.8 0 0 0 18.8-18.8Z"/><g fill="#fff"><path d="M841.2 313.72h98.59v-83Z"/><path d="M939.79 315.72H841.2a2 2 0 0 1-1.3-3.53l98.59-83a2 2 0 0 1 3.29 1.53v83a2 2 0 0 1-2 2Zm-93.1-4h91.1v-76.7Z"/></g><g fill="#fff"><path d="M1302.05 314.06h-98.58v-83Z"/><path d="M1302.07 316.06h-98.6a2 2 0 0 1-2-2v-83a2 2 0 0 1 3.29-1.52l98.41 82.86a2 2 0 0 1-1.1 3.67Zm-96.6-4h91.1l-91.1-76.7Z"/></g><path fill="#fff" d="m1252.37 465.2 52.52 124.38-3.68 1.55-52.53-124.38Z"/><path d="M1041.86 517.88h99.12v124.88h-99.13Z"/><path d="M1121.6 478.4h42.18v164.36h-42.18Z"/><path d="M1163.78 478.4a21.09 21.09 0 1 1-42.18 0 21.09 21.09 0 0 1 42.18 0Zm-100.96 60.36a20.88 20.88 0 1 0-41.77 0 20.88 20.88 0 0 0 41.77 0Z"/><path d="M1062.82 580.52a20.88 20.88 0 1 1-41.77 0 20.88 20.88 0 0 1 41.77 0Z"/><path d="M1062.82 621.86a20.88 20.88 0 1 1-41.77 0 20.88 20.88 0 0 1 41.77 0Zm85.02-71.59h112.4v92.49h-112.4Z"/><path d="M1306.48 596.51a46.24 46.24 0 1 1-92.48 0 46.24 46.24 0 0 1 92.48 0Z"/><path fill="#ffd829" d="M1071.25 344.49a64.29 64.29 0 0 1-30.8-7.87 2 2 0 1 1 1.92-3.5 60.27 60.27 0 0 0 59.37-.92 2 2 0 0 1 2.03 3.45 64.14 64.14 0 0 1-32.52 8.84Z"/><path d="M1318.1 671.2H824.8a43.45 43.45 0 0 1-43.4-43.4V106.39a43.45 43.45 0 0 1 43.4-43.4h493.31a43.45 43.45 0 0 1 43.4 43.4v521.4a43.46 43.46 0 0 1-43.4 43.41ZM824.8 66.98a39.45 39.45 0 0 0-39.4 39.4V627.8a39.45 39.45 0 0 0 39.4 39.41h493.31a39.45 39.45 0 0 0 39.4-39.4V106.38a39.45 39.45 0 0 0-39.4-39.4H824.8Z"/><path d="M1071.45 113.75a2 2 0 0 1-2-2V19.42a2 2 0 0 1 4 0v92.33a2 2 0 0 1-2 2Z"/><path d="M1101.4 19.42c0 8.96-13.4 16.23-29.95 16.23-16.53 0-29.94-7.26-29.94-16.23s13.4-16.24 29.94-16.24 29.95 7.27 29.95 16.24Zm9.86 45.56c0 8.97-17.82 16.24-39.8 16.24-21.99 0-39.8-7.27-39.8-16.24 0-8.97 17.81-16.24 39.8-16.24 21.98 0 39.8 7.27 39.8 16.24ZM537.2 671.2H43.89a43.45 43.45 0 0 1-43.4-43.4V106.39a43.45 43.45 0 0 1 43.4-43.4H537.2a43.45 43.45 0 0 1 43.4 43.4v521.4a43.46 43.46 0 0 1-43.4 43.41ZM43.89 66.98a39.45 39.45 0 0 0-39.4 39.4V627.8a39.45 39.45 0 0 0 39.4 39.41H537.2a39.45 39.45 0 0 0 39.4-39.4V106.38a39.45 39.45 0 0 0-39.4-39.4H43.89Z"/><path fill="#fff" d="M42.23 458.12h47V667.2h-47Zm67.72-145.18a47.28 47.28 0 0 1-47.23-47.22 47.28 47.28 0 0 1 47.23-47.22 47.28 47.28 0 0 1 47.22 47.22 47.28 47.28 0 0 1-47.22 47.22Zm0-90.44a43.27 43.27 0 0 0-43.23 43.22 43.27 43.27 0 0 0 43.23 43.22 43.27 43.27 0 0 0 43.22-43.22 43.27 43.27 0 0 0-43.22-43.22Z"/><path fill="#fff" d="M109.95 290.33c-26.48 0-47.23-10.8-47.23-24.6 0-13.81 20.75-24.62 47.23-24.62 26.48 0 47.22 10.81 47.22 24.61 0 13.8-20.74 24.61-47.22 24.61Zm0-45.22c-23.43 0-43.23 9.44-43.23 20.61s19.8 20.61 43.23 20.61c23.43 0 43.22-9.44 43.22-20.61s-19.8-20.61-43.22-20.61Z"/><path fill="#fff" d="M64.72 263.72h90.45v4H64.73Zm406.42 49.22a47.28 47.28 0 0 1-47.22-47.22 47.28 47.28 0 0 1 47.22-47.22 47.28 47.28 0 0 1 47.23 47.22 47.28 47.28 0 0 1-47.23 47.22Zm0-90.44a43.27 43.27 0 0 0-43.22 43.22 43.27 43.27 0 0 0 43.22 43.22 43.27 43.27 0 0 0 43.23-43.22 43.27 43.27 0 0 0-43.23-43.22Z"/><path fill="#fff" d="M471.14 290.33c-26.48 0-47.22-10.8-47.22-24.6 0-13.81 20.74-24.62 47.22-24.62s47.23 10.81 47.23 24.61c0 13.8-20.75 24.61-47.23 24.61Zm0-45.22c-23.43 0-43.22 9.44-43.22 20.61s19.8 20.61 43.22 20.61c23.43 0 43.23-9.44 43.23-20.61s-19.8-20.61-43.23-20.61Z"/><path fill="#fff" d="M425.92 263.72h90.44v4h-90.44Z"/><path d="M207.73 351.18H367.2v65.19H207.73Z"/><path d="M109.95 667.2V439.86c0-24.17 18.53-43.76 41.4-43.76h278.39c22.86 0 41.4 19.6 41.4 43.76V667.2Z"/><path fill="#fff" d="M126.5 667.2H46.63l90.05-65.36 27.53 38.1Z"/><path fill="#ffd829" d="M215.66 214.63a38.76 38.76 0 1 1 0 77.52Z"/><path fill="#fff" d="M215.66 292.15a38.76 38.76 0 1 1 0-77.53Zm151.53 0a38.76 38.76 0 1 1 0-77.53Z"/><path fill="#ffd829" d="M367.19 214.63a38.76 38.76 0 1 1 0 77.52Z"/><path d="M109.95 160.88v209.68h361.2V160.88Zm162.1 59.62h37v63.72h-37Zm-95.15 32.89a38.76 38.76 0 1 1 77.52 0 38.76 38.76 0 0 1-77.52 0Zm113.64 78.1a62.17 62.17 0 0 1-51.1-26.72h102.21a62.17 62.17 0 0 1-51.1 26.72Zm76.65-39.34a38.76 38.76 0 1 1 0-77.53 38.76 38.76 0 0 1 0 77.53ZM89.4 436.92h20.55v106.3H89.39Zm381.74 0h20.56v106.3h-20.56Z"/><path fill="#fff" d="M229.76 25.8a19.38 19.38 0 1 1-38.76 0 19.38 19.38 0 0 1 38.76 0Zm156.81 0a19.38 19.38 0 1 1-38.76 0 19.38 19.38 0 0 1 38.76 0Z"/><path fill="#fff" d="M365.19 45.19h4v115.7h-4Zm-156.81 0h4v115.7h-4ZM188.63 653.6a66.52 66.52 0 0 1-52.49-25.47 66.69 66.69 0 0 1 11.3-93.52l29.82-23.38 29 36.98-29.8 23.38a19.63 19.63 0 0 0-3.34 27.53 19.64 19.64 0 0 0 27.54 3.33l29.81-23.38 29 36.98-29.8 23.38a66.3 66.3 0 0 1-41.04 14.18Zm302.96-195.48h47V667.2h-47Z"/><path d="M249 25.8 288.33.48v25.34Zm78.67 0-39.34 25.34V25.8Z"/><path fill="#fff" d="M326.92 689.4c-15.15 0-26.59-4.26-34.02-12.68-11.1-12.57-9.05-29.66-8.95-30.38a2 2 0 1 1 3.97.5c-.03.18-1.89 16.08 8 27.26 6.64 7.5 17.07 11.3 31 11.3h.21a2 2 0 0 1 0 4h-.21Z"/><path fill="#ffd829" d="M285.93 648.6a2 2 0 0 1-1.57-.77L160.4 489.75a2 2 0 1 1 3.15-2.47l122.37 156.07L408.3 487.28a2 2 0 0 1 3.15 2.47L287.5 647.83a2 2 0 0 1-1.57.76Z"/><path fill="#ffd829" d="M244.5 490.52a2 2 0 0 1-1.74-1l-41.31-71.56a2 2 0 0 1 1.73-3h82.63a2 2 0 0 1 1.74 3l-41.32 71.56a2 2 0 0 1-1.73 1Zm-37.86-71.57 37.86 65.57 37.85-65.57Z"/><path fill="#ffd829" d="M327.13 490.52a2 2 0 0 1-1.73-1l-41.32-71.56a2 2 0 0 1 1.74-3h82.63a2 2 0 0 1 1.73 3l-41.32 71.56a2 2 0 0 1-1.73 1Zm-37.85-71.57 37.85 65.57 37.85-65.57Z"/><path fill="#ffd829" d="M327.15 490.51H244.5a2 2 0 0 1-1.74-3l41.32-71.56a2 2 0 0 1 3.47 0l41.19 71.35a2 2 0 0 1-1.59 3.21Zm-79.19-4h75.7l-37.85-65.56Z"/><path fill="#ffd829" d="M244.52 490.51h-82.66a2 2 0 0 1-1.73-3l41.32-71.56a2 2 0 0 1 3.46 0l41.2 71.35a2 2 0 0 1-1.6 3.21Zm-79.2-4h75.71l-37.85-65.56Zm244.47 4h-82.66a2 2 0 0 1-1.73-3l41.32-71.56a2 2 0 0 1 3.46 0l41.19 71.35a2 2 0 0 1-1.58 3.21Zm-79.2-4h75.71l-37.85-65.56Z"/><path fill="#ffd829" d="M285.93 648.6a2 2 0 0 1-1.94-1.5l-41.43-158.08a2 2 0 1 1 3.87-1l41.43 158.07a2 2 0 0 1-1.93 2.5Z"/><path fill="#ffd829" d="M285.93 648.6a2 2 0 0 1-1.94-2.51L325.2 488a2 2 0 0 1 3.88 1.01l-41.2 158.08a2 2 0 0 1-1.94 1.5Z"/><path fill="#fff" d="M450.97 723.53h-92.09l-31.75-36.12 31.75-36.12h92.09Z"/><path fill="#fff" d="M354.27 687.4a5.29 5.29 0 1 1-10.57 0 5.29 5.29 0 0 1 10.57 0Z"/><path fill="#ffd829" d="M376.05 695.07h-12.86l-3.05 9.3h-3.97l11.2-33.53h4.7l11.3 33.52h-4.16Zm-11.62-3.45h10.51l-4.93-15.75h-.57Zm24.5-20.45c1.21-.29 2.52-.48 3.93-.57 1.4-.1 2.79-.15 4.16-.15 1.47 0 2.96.15 4.48.43 1.52.3 2.9.82 4.14 1.59a8.88 8.88 0 0 1 3.05 3.16 10.07 10.07 0 0 1 1.17 5.12c0 2.04-.37 3.77-1.1 5.17a9.7 9.7 0 0 1-2.92 3.43c-1.22.88-2.6 1.5-4.17 1.89-1.56.38-3.18.58-4.84.58h-.79a30.61 30.61 0 0 1-2.32-.1 7.39 7.39 0 0 1-.82-.1v12.74h-3.97Zm8.2 2.73c-.83 0-1.63.02-2.4.05-.77.03-1.38.11-1.83.24v13.89c.17.06.42.1.77.12l1.11.05 1.1.02h.78c1.08 0 2.17-.1 3.24-.31a8.46 8.46 0 0 0 2.9-1.13 5.96 5.96 0 0 0 2.1-2.3 8 8 0 0 0 .8-3.78 5.96 5.96 0 0 0-2.72-5.39 8.31 8.31 0 0 0-2.77-1.12 14.54 14.54 0 0 0-3.07-.34Zm18.62-3.06h22.99v3.54h-9.53v26.44h9.53v3.54h-22.99v-3.54h9.48v-26.44h-9.48Z"/><path d="M888.59 577.5h49v91.7h-49Z"/><path fill="#ffd829" d="M290.54 331.5a62.17 62.17 0 0 1-51.1-26.73h102.21a62.17 62.17 0 0 1-51.1 26.72Zm-18.5-111h37v63.72h-37Z"/></svg>