<svg xmlns="http://www.w3.org/2000/svg" viewBox="0 0 868 880"><path fill="#ffd829" d="M188.96 152.61h25.55v44.01h-25.55Z"/><path fill="#fff" d="M176.79 175.33a26.77 26.77 0 1 1-53.55 0 26.77 26.77 0 0 1 53.55 0Z"/><path fill="#ffd829" d="M201.73 229.27a42.95 42.95 0 0 1-35.3-18.45h70.6a42.94 42.94 0 0 1-35.3 18.45Z"/><path fill="#fff" d="M281.44 175.33a26.77 26.77 0 1 1-53.54 0 26.77 26.77 0 0 1 53.54 0Z"/><path d="M555.89 363.59a61.09 61.09 0 0 1-43.5-18.01 61.57 61.57 0 0 1 .01-86.98 61.1 61.1 0 0 1 43.49-18.01 61.1 61.1 0 0 1 43.48 18.01 61.57 61.57 0 0 1 0 86.98 61.1 61.1 0 0 1-43.48 18.01Zm0-119a57.12 57.12 0 0 0-40.66 16.84 57.57 57.57 0 0 0 0 81.32 57.13 57.13 0 0 0 40.66 16.84c15.36 0 29.8-5.98 40.65-16.84a57.56 57.56 0 0 0 0-81.32 57.12 57.12 0 0 0-40.65-16.84Z"/><path d="M531.97 325.2a2 2 0 0 1-2-2v-45.03a2 2 0 0 1 2-2H577a2 2 0 0 1 0 4h-43.03v43.04a2 2 0 0 1-2 2Z"/><path d="M579.8 328.01c-.5 0-1.01-.2-1.4-.58l-47.85-47.85a2 2 0 1 1 2.83-2.82l47.84 47.84a2 2 0 0 1-1.41 3.41ZM319.47 678.43A61.09 61.09 0 0 1 276 660.42a61.57 61.57 0 0 1 0-86.97 61.1 61.1 0 0 1 43.48-18.02 61.1 61.1 0 0 1 43.49 18.02 61.1 61.1 0 0 1 18.01 43.48c0 16.43-6.4 31.87-18.01 43.49a61.09 61.09 0 0 1-43.49 18.01Zm0-119a57.12 57.12 0 0 0-40.66 16.85 57.56 57.56 0 0 0 0 81.31 57.13 57.13 0 0 0 40.66 16.84c15.36 0 29.8-5.98 40.66-16.84a57.12 57.12 0 0 0 16.84-40.66 57.1 57.1 0 0 0-16.84-40.65 57.12 57.12 0 0 0-40.66-16.85Z"/><path d="M343.4 642.85h-45.05a2 2 0 0 1 0-4h43.04v-43.03a2 2 0 0 1 4 0v45.03a2 2 0 0 1-2 2Z"/><path d="M343.4 642.85c-.52 0-1.03-.19-1.42-.58l-47.84-47.84a2 2 0 0 1 2.83-2.83l47.84 47.84a2 2 0 0 1-1.42 3.41Zm195.81 170.37h33.35v64.14h-33.35Z"/><path fill="#fff" d="M759.97 781.99v-4a30.02 30.02 0 0 0 29.99-30 30.02 30.02 0 0 0-30-29.98v-4a34.02 34.02 0 0 1 34 33.99 34.03 34.03 0 0 1-34 33.99Zm-187.41 0a34.03 34.03 0 0 1-33.99-34 34.03 34.03 0 0 1 34-33.98v4a30.02 30.02 0 0 0-30 29.99 30.02 30.02 0 0 0 30 29.99Z"/><path fill="#ffd829" d="M572.56 713.07h187.4v164.28h-187.4Z"/><path d="M761.97 879.36h-191.4v-168.3h191.4Zm-187.4-4h183.4v-160.3h-183.4Z"/><path fill="#fff" d="M575.32 691.16a2 2 0 0 1-1.28-.47l-68.1-57.33a2 2 0 0 1 1.3-3.53h68.08a2 2 0 0 1 2 2v57.33a2 2 0 0 1-2 2Zm-62.6-57.33 60.6 51.03v-51.03Zm244.73 57.57a2 2 0 0 1-2-2v-57.33c0-1.1.9-2 2-2h68.08a2 2 0 0 1 1.3 3.53l-68.1 57.33c-.36.3-.82.47-1.28.47Zm2-57.33v51.03l60.6-51.03Z"/><path d="M615.62 643.7a26.77 26.77 0 1 1 0-53.54Zm104.04 0a26.77 26.77 0 1 1 0-53.54Z"/><path fill="#fff" d="M759.97 587.42a93.7 93.7 0 1 0-187.36 2.74h-.05v98.37h187.4v-98.37h-.03c.02-.91.04-1.83.04-2.74ZM615.62 643.7a26.77 26.77 0 1 1 0-53.54 26.77 26.77 0 0 1 0 53.54Zm61.54-22.1a12.98 12.98 0 0 1-25.96 0v-37.32a12.98 12.98 0 0 1 25.96 0Zm42.5 22.1a26.77 26.77 0 1 1 0-53.54 26.77 26.77 0 0 1 0 53.54Z"/><path d="M780.2 701.51c0-7.17-5.82-12.98-12.99-12.98h-201.9a12.98 12.98 0 1 0 0 25.96h201.9c7.17 0 12.98-5.81 12.98-12.98Z"/><g fill="#fff"><path d="M507.24 631.83h68.08V574.5Z"/><path d="M575.32 633.83h-68.08a2 2 0 0 1-1.3-3.53l68.1-57.32a2 2 0 0 1 3.28 1.52v57.33a2 2 0 0 1-2 2Zm-62.6-4h60.6V578.8Z"/></g><g fill="#fff"><path d="M825.53 632.07h-68.08v-57.33Z"/><path d="M825.55 634.07h-68.1a2 2 0 0 1-2-2v-57.33a2 2 0 0 1 3.28-1.53l67.93 57.2a2 2 0 0 1-1.1 3.66Zm-66.1-4h60.6l-60.6-51.03Z"/></g><path fill="#fff" d="m824.38 823.72-36.27-85.91 3.68-1.56 36.28 85.91Z"/><path d="M645.82 772.84h68.46v86.25h-68.46Z"/><path d="M700.9 745.57h29.13v113.52H700.9Z"/><path d="M730.03 745.57a14.57 14.57 0 1 1-29.13 0 14.57 14.57 0 0 1 29.13 0Zm-69.73 41.69a14.42 14.42 0 1 1-28.84 0 14.42 14.42 0 0 1 28.84 0Z"/><path d="M660.3 816.1a14.42 14.42 0 1 1-28.84 0 14.42 14.42 0 0 1 28.84 0Z"/><path d="M660.3 844.66a14.42 14.42 0 1 1-28.84 0 14.42 14.42 0 0 1 28.84 0Zm58.72-49.45h77.64v63.88h-77.64Z"/><path d="M828.6 827.15a31.94 31.94 0 1 1-63.88 0 31.94 31.94 0 0 1 63.87 0Z"/><path fill="#ffd829" d="M666.13 653.7c-7.54 0-15-1.9-21.58-5.5a2 2 0 1 1 1.92-3.52 41.02 41.02 0 0 0 40.4-.62 2 2 0 1 1 2.03 3.45 44.9 44.9 0 0 1-22.77 6.19Z"/><path d="M836.63 879.36H495.9a30.63 30.63 0 0 1-30.6-30.6V488.63a30.63 30.63 0 0 1 30.6-30.6h340.73a30.63 30.63 0 0 1 30.6 30.6v360.13a30.63 30.63 0 0 1-30.6 30.6ZM495.9 462.03a26.63 26.63 0 0 0-26.6 26.6v360.13a26.63 26.63 0 0 0 26.6 26.6h340.73a26.63 26.63 0 0 0 26.6-26.6V488.63a26.63 26.63 0 0 0-26.6-26.6Z"/><path d="M666.27 494.33a2 2 0 0 1-2-2v-63.77a2 2 0 0 1 4 0v63.77a2 2 0 0 1-2 2Z"/><path d="M686.95 428.56c0 6.2-9.26 11.22-20.68 11.22-11.43 0-20.69-5.02-20.69-11.22 0-6.19 9.26-11.21 20.69-11.21 11.42 0 20.68 5.02 20.68 11.21Zm6.81 31.47c0 6.2-12.31 11.22-27.5 11.22-15.18 0-27.49-5.02-27.49-11.22 0-6.2 12.31-11.21 27.5-11.21 15.18 0 27.49 5.02 27.49 11.21Z"/><path fill="#fff" d="M538.57 751.4h4v61.81h-4Z"/><path d="M372.1 464.52H31.36a30.63 30.63 0 0 1-30.6-30.6V73.8a30.63 30.63 0 0 1 30.6-30.6H372.1a30.63 30.63 0 0 1 30.6 30.6v360.13a30.63 30.63 0 0 1-30.6 30.6ZM31.36 47.2a26.63 26.63 0 0 0-26.6 26.6v360.13a26.63 26.63 0 0 0 26.6 26.6H372.1a26.63 26.63 0 0 0 26.6-26.6V73.8a26.63 26.63 0 0 0-26.6-26.6Z"/><path fill="#fff" d="M77 217.08a33.27 33.27 0 0 1-33.23-33.23A33.27 33.27 0 0 1 77 150.6a33.27 33.27 0 0 1 33.23 33.24A33.27 33.27 0 0 1 77 217.08Zm0-62.47a29.27 29.27 0 0 0-29.23 29.24A29.27 29.27 0 0 0 77 213.08a29.27 29.27 0 0 0 29.23-29.23A29.27 29.27 0 0 0 77 154.6Z"/><path fill="#fff" d="M77 201.46c-18.64 0-33.23-7.73-33.23-17.61 0-9.88 14.6-17.62 33.23-17.62 18.64 0 33.23 7.74 33.23 17.62S95.63 201.46 77 201.46Zm0-31.23c-17.49 0-29.23 7.04-29.23 13.62 0 6.57 11.74 13.61 29.23 13.61 17.49 0 29.23-7.04 29.23-13.61 0-6.58-11.74-13.62-29.23-13.62Z"/><path fill="#fff" d="M45.77 181.85h62.46v4H45.77Zm280.7 35.23a33.27 33.27 0 0 1-33.23-33.23 33.27 33.27 0 0 1 33.23-33.24 33.27 33.27 0 0 1 33.23 33.24 33.27 33.27 0 0 1-33.23 33.23Zm0-62.47a29.27 29.27 0 0 0-29.23 29.24 29.27 29.27 0 0 0 29.23 29.23 29.27 29.27 0 0 0 29.23-29.23 29.27 29.27 0 0 0-29.23-29.24Z"/><path fill="#fff" d="M326.47 201.46c-18.64 0-33.23-7.73-33.23-17.61 0-9.88 14.6-17.62 33.23-17.62 18.63 0 33.23 7.74 33.23 17.62s-14.6 17.61-33.23 17.61Zm0-31.23c-17.49 0-29.23 7.04-29.23 13.62 0 6.57 11.74 13.61 29.23 13.61 17.49 0 29.23-7.04 29.23-13.61 0-6.58-11.74-13.62-29.23-13.62Z"/><path fill="#fff" d="M295.23 181.85h62.47v4h-62.47Z"/><path d="M144.54 242.87h110.13v45.02H144.54Z"/><path d="M77 461.14V304.12c0-16.69 12.8-30.22 28.6-30.22h192.27c15.8 0 28.6 13.53 28.6 30.22v157.02Z"/><path fill="#ffd829" d="M150.01 148.56a26.77 26.77 0 1 1 0 53.54Zm104.66 0a26.77 26.77 0 1 1 0 53.54Z"/><path d="M62.8 302.1H77v73.41H62.8Zm263.67 0h14.2v73.41h-14.2ZM77 111.44v144.81h249.47V111.44Zm111.96 41.17h25.55v44.01h-25.55Zm-65.72 22.72a26.77 26.77 0 1 1 53.54 0 26.77 26.77 0 0 1-53.54 0Zm78.5 53.94a42.95 42.95 0 0 1-35.3-18.45h70.6a42.94 42.94 0 0 1-35.3 18.45Zm52.93-27.17a26.77 26.77 0 1 1 0-53.54 26.77 26.77 0 0 1 0 53.54Z"/><path fill="#fff" d="M159.75 18.14a13.39 13.39 0 1 1-26.77 0 13.39 13.39 0 0 1 26.77 0Zm108.31 0a13.39 13.39 0 1 1-26.78 0 13.39 13.39 0 0 1 26.78 0Z"/><path fill="#fff" d="M252.67 31.53h4v79.9h-4Zm-108.3 0h4v79.9h-4Z"/><g fill="#fff"><path d="M312.54 500.05h-63.6L227 475.1l21.94-24.95h63.6Z"/><path d="M245.75 475.1a3.65 3.65 0 1 1-7.3 0 3.65 3.65 0 0 1 7.3 0Z"/></g><path fill="#ffd829" d="M198.55 448.9a2 2 0 0 1-1.58-.76l-85.6-109.18a2 2 0 1 1 3.14-2.47l84.04 107.17 84.03-107.17a2 2 0 1 1 3.15 2.47l-85.6 109.18a2 2 0 0 1-1.58.77Z"/><path fill="#ffd829" d="M169.93 339.73a2 2 0 0 1-1.73-1l-28.54-49.43a2 2 0 0 1 1.74-3h57.07a2 2 0 0 1 1.73 3l-28.54 49.43a2 2 0 0 1-1.73 1Zm-25.07-49.43 25.07 43.43L195 290.3Z"/><path fill="#ffd829" d="M227 339.73a2 2 0 0 1-1.73-1l-28.53-49.43a2 2 0 0 1 1.73-3h57.07a2 2 0 0 1 1.73 3l-28.53 49.43a2 2 0 0 1-1.74 1Zm-25.07-49.43L227 333.73l25.08-43.43Z"/><path fill="#ffd829" d="M227.02 339.73h-57.09a2 2 0 0 1-1.73-3l28.54-49.43a2 2 0 0 1 3.46 0l28.4 49.2a2 2 0 0 1-1.59 3.22Zm-53.63-4h50.15l-25.07-43.43Z"/><path fill="#ffd829" d="M169.95 339.73h-57.09a2 2 0 0 1-1.73-3l28.53-49.43a2 2 0 0 1 3.47 0l28.4 49.2a2 2 0 0 1-1.58 3.22Zm-53.63-4h50.15L141.4 292.3Zm167.78 4H227a2 2 0 0 1-1.73-3l28.54-49.43a2 2 0 0 1 3.46 0l28.41 49.2a2 2 0 0 1-1.58 3.22Zm-53.63-4h50.14l-25.07-43.43Z"/><path fill="#ffd829" d="M198.55 448.9a2 2 0 0 1-1.94-1.49L168 338.23a2 2 0 0 1 3.87-1.01l28.62 109.18a2 2 0 0 1-1.93 2.5Z"/><path fill="#fff" d="M226.85 477.1c-10.64 0-18.7-3.02-23.95-8.97-7.85-8.9-6.4-20.97-6.34-21.48a2 2 0 0 1 3.97.5c-.01.11-1.26 10.84 5.4 18.36 4.45 5.03 11.5 7.59 20.92 7.59h.15a2 2 0 0 1 0 4h-.15Z"/><path fill="#ffd829" d="M198.55 448.9a2 2 0 0 1-1.94-2.5l28.46-109.18a2 2 0 1 1 3.87 1.01l-28.46 109.18a2 2 0 0 1-1.93 1.5Zm62.24 31.5h-8.88l-2.1 6.4h-2.75l7.74-23.15h3.24l7.81 23.16h-2.88Zm-8.02-2.4h7.26l-3.4-10.88h-.4Zm16.92-14.12a17 17 0 0 1 2.7-.4c.98-.06 1.94-.1 2.89-.1 1.01 0 2.04.1 3.1.3 1.04.2 2 .57 2.85 1.1a6.14 6.14 0 0 1 2.1 2.18c.54.93.81 2.1.81 3.54a7.6 7.6 0 0 1-.76 3.57 6.71 6.71 0 0 1-2.02 2.37c-.83.6-1.8 1.04-2.87 1.3-1.08.27-2.2.4-3.35.4h-.54a20 20 0 0 1-2.17-.13v8.8h-2.74Zm5.66 1.89c-.57 0-1.13.01-1.65.03a5.4 5.4 0 0 0-1.27.17v9.6c.11.04.29.06.53.07a103 103 0 0 0 1.53.05h.53c.76 0 1.5-.07 2.24-.21.75-.15 1.41-.4 2.01-.78.6-.37 1.08-.9 1.45-1.59.36-.68.55-1.55.55-2.6a4.1 4.1 0 0 0-1.88-3.72 5.73 5.73 0 0 0-1.91-.79 9.98 9.98 0 0 0-2.13-.23Zm12.86-2.12h15.88v2.45h-6.58v18.26h6.58v2.45H288.2v-2.45h6.55V466.1h-6.55Z"/><path fill="#fff" d="M131.38 451.78a45.71 45.71 0 0 1-36.3-17.62 46.06 46.06 0 0 1 7.82-64.6l20.6-16.15 20.02 25.54-20.59 16.15a13.56 13.56 0 0 0 6.74 24.11c3.59.43 7.14-.56 9.98-2.79l20.6-16.15 20.03 25.55-20.6 16.14a45.65 45.65 0 0 1-28.3 9.82ZM30.23 316.73h32.46v143.85H30.23Z"/><path fill="#fff" d="M89.2 460.58H35L95.47 416l19.02 26.31Zm251.4-143.85h32.45V460.5H340.6Z"/><path d="M173.04 18.14 200.21.64v17.5Zm54.34 0-27.17 17.5v-17.5Z"/></svg>