<svg xmlns="http://www.w3.org/2000/svg">
	<defs>
		<style>
            g {
                display: none;
            }
            g:target {
                display: inline;
            }
		</style>
	</defs>

    <g id="cat">
        <path d="M9 13.125C9 13.3475 8.93402 13.565 8.8104 13.75C8.68679 13.935 8.51109 14.0792 8.30552 14.1643C8.09995 14.2495 7.87375 14.2718 7.65552 14.2284C7.43729 14.185 7.23684 14.0778 7.0795 13.9205C6.92217 13.7631 6.81502 13.5627 6.77162 13.3445C6.72821 13.1262 6.75049 12.9 6.83564 12.6945C6.92078 12.4889 7.06498 12.3132 7.24998 12.1896C7.43499 12.066 7.6525 12 7.875 12C8.17337 12 8.45952 12.1185 8.6705 12.3295C8.88147 12.5405 9 12.8266 9 13.125ZM16.125 12C15.9025 12 15.685 12.066 15.5 12.1896C15.315 12.3132 15.1708 12.4889 15.0856 12.6945C15.0005 12.9 14.9782 13.1262 15.0216 13.3445C15.065 13.5627 15.1722 13.7631 15.3295 13.9205C15.4868 14.0778 15.6873 14.185 15.9055 14.2284C16.1238 14.2718 16.35 14.2495 16.5555 14.1643C16.7611 14.0792 16.9368 13.935 17.0604 13.75C17.184 13.565 17.25 13.3475 17.25 13.125C17.25 12.8266 17.1315 12.5405 16.9205 12.3295C16.7095 12.1185 16.4234 12 16.125 12ZM21.75 4.49998V12.75C21.75 17.7122 17.3766 21.75 12 21.75C6.62344 21.75 2.25 17.7122 2.25 12.75V4.49998C2.25014 4.20341 2.33819 3.91353 2.50302 3.66699C2.66785 3.42044 2.90207 3.22829 3.17607 3.11481C3.45007 3.00134 3.75156 2.97164 4.04244 3.02946C4.33332 3.08728 4.60054 3.23003 4.81031 3.43966C4.82344 3.45279 4.83469 3.46498 4.84594 3.4781L6.46875 5.34373C8.12807 4.30412 10.0466 3.75275 12.0047 3.75275C13.9628 3.75275 15.8813 4.30412 17.5406 5.34373L19.1541 3.4781C19.1653 3.46498 19.1766 3.45279 19.1897 3.43966C19.3995 3.23003 19.6667 3.08728 19.9576 3.02946C20.2484 2.97164 20.5499 3.00134 20.8239 3.11481C21.0979 3.22829 21.3322 3.42044 21.497 3.66699C21.6618 3.91353 21.7499 4.20341 21.75 4.49998ZM20.25 4.49998L18.2288 6.82498C18.1051 6.96802 17.932 7.05908 17.7441 7.07994C17.5562 7.1008 17.3673 7.04992 17.2153 6.93748C16.7578 6.59913 16.2668 6.30855 15.75 6.07029V8.24998C15.75 8.44889 15.671 8.63965 15.5303 8.78031C15.3897 8.92096 15.1989 8.99998 15 8.99998C14.8011 8.99998 14.6103 8.92096 14.4697 8.78031C14.329 8.63965 14.25 8.44889 14.25 8.24998V5.53591C13.758 5.40935 13.2562 5.32405 12.75 5.28091V8.24998C12.75 8.44889 12.671 8.63965 12.5303 8.78031C12.3897 8.92096 12.1989 8.99998 12 8.99998C11.8011 8.99998 11.6103 8.92096 11.4697 8.78031C11.329 8.63965 11.25 8.44889 11.25 8.24998V5.28091C10.7438 5.32405 10.242 5.40935 9.75 5.53591V8.24998C9.75 8.44889 9.67098 8.63965 9.53033 8.78031C9.38968 8.92096 9.19891 8.99998 9 8.99998C8.80109 8.99998 8.61032 8.92096 8.46967 8.78031C8.32902 8.63965 8.25 8.44889 8.25 8.24998V6.07029C7.73323 6.30855 7.24223 6.59913 6.78469 6.93748C6.63302 7.05025 6.44437 7.1016 6.25647 7.08127C6.06857 7.06093 5.89528 6.9704 5.77125 6.82779L3.75 4.49998V12.75C3.75 16.6556 7.05094 19.875 11.25 20.219V18.3103L9.96937 17.0297C9.89975 16.96 9.84454 16.8773 9.80688 16.7862C9.76923 16.6952 9.74987 16.5977 9.74991 16.4992C9.74996 16.4007 9.7694 16.3031 9.80714 16.2122C9.84487 16.1212 9.90016 16.0385 9.96984 15.9689C10.1106 15.8283 10.3014 15.7493 10.5003 15.7494C10.5988 15.7495 10.6964 15.7689 10.7874 15.8066C10.8783 15.8444 10.961 15.8997 11.0306 15.9694L12 16.9387L12.9694 15.9694C13.039 15.8997 13.1217 15.8444 13.2126 15.8066C13.3036 15.7689 13.4012 15.7495 13.4997 15.7494C13.5982 15.7494 13.6957 15.7687 13.7867 15.8064C13.8778 15.844 13.9605 15.8993 14.0302 15.9689C14.0998 16.0385 14.1551 16.1212 14.1929 16.2122C14.2306 16.3031 14.25 16.4007 14.2501 16.4992C14.2501 16.5977 14.2308 16.6952 14.1931 16.7862C14.1555 16.8773 14.1002 16.96 14.0306 17.0297L12.75 18.3103V20.219C16.9491 19.8731 20.25 16.6565 20.25 12.75V4.49998Z" fill="black"/>
    </g>

    <g id="dog">
        <path d="M22.4728 11.7187L20.9334 3.46872C20.8958 3.26762 20.8175 3.07635 20.7032 2.90665C20.5889 2.73696 20.4411 2.59243 20.2689 2.48197C20.0967 2.3715 19.9038 2.29743 19.7019 2.2643C19.5 2.23117 19.2935 2.2397 19.095 2.28934L19.0659 2.29778L14.1422 3.74997H9.85781L4.93406 2.30247L4.905 2.29403C4.70653 2.24438 4.5 2.23586 4.29812 2.26899C4.09623 2.30211 3.90326 2.37619 3.73106 2.48665C3.55886 2.59712 3.41108 2.74164 3.29681 2.91134C3.18253 3.08103 3.10418 3.27231 3.06656 3.47341L1.52719 11.7187C1.46136 12.0489 1.51022 12.3917 1.6657 12.6904C1.82117 12.9891 2.07394 13.2257 2.38219 13.3612C2.5796 13.4518 2.79407 13.4991 3.01125 13.5C3.27119 13.4998 3.52633 13.4299 3.75 13.2975V17.25C3.75 18.2445 4.14509 19.1984 4.84835 19.9016C5.55161 20.6049 6.50544 21 7.5 21H16.5C17.4946 21 18.4484 20.6049 19.1517 19.9016C19.8549 19.1984 20.25 18.2445 20.25 17.25V13.2984C20.4734 13.4306 20.7282 13.5005 20.9878 13.5009C21.2052 13.5003 21.42 13.4533 21.6178 13.3631C21.9264 13.2275 22.1795 12.9906 22.335 12.6915C22.4905 12.3924 22.5391 12.0492 22.4728 11.7187ZM3 12L4.54031 3.74997L8.48438 4.90966L3 12ZM16.5 19.5H12.75V18.3103L14.0306 17.0306C14.1714 16.8899 14.2504 16.699 14.2504 16.5C14.2504 16.3009 14.1714 16.1101 14.0306 15.9693C13.8899 15.8286 13.699 15.7496 13.5 15.7496C13.301 15.7496 13.1101 15.8286 12.9694 15.9693L12 16.9397L11.0306 15.9693C10.8899 15.8286 10.699 15.7496 10.5 15.7496C10.301 15.7496 10.1101 15.8286 9.96938 15.9693C9.82864 16.1101 9.74958 16.3009 9.74958 16.5C9.74958 16.699 9.82864 16.8899 9.96938 17.0306L11.25 18.3103V19.5H7.5C6.90326 19.5 6.33097 19.2629 5.90901 18.841C5.48705 18.419 5.25 17.8467 5.25 17.25V11.5415L10.1175 5.24997H13.8816L18.75 11.5415V17.25C18.75 17.8467 18.5129 18.419 18.091 18.841C17.669 19.2629 17.0967 19.5 16.5 19.5ZM21 12L15.5156 4.90966L19.4597 3.74997L21 12ZM9.75 13.125C9.75 13.3475 9.68402 13.565 9.5604 13.75C9.43679 13.935 9.26109 14.0792 9.05552 14.1643C8.84995 14.2495 8.62375 14.2718 8.40552 14.2284C8.18729 14.1849 7.98684 14.0778 7.82951 13.9205C7.67217 13.7631 7.56503 13.5627 7.52162 13.3444C7.47821 13.1262 7.50049 12.9 7.58564 12.6945C7.67078 12.4889 7.81498 12.3132 7.99998 12.1896C8.18499 12.0659 8.4025 12 8.625 12C8.92337 12 9.20952 12.1185 9.4205 12.3295C9.63147 12.5405 9.75 12.8266 9.75 13.125ZM16.5 13.125C16.5 13.3475 16.434 13.565 16.3104 13.75C16.1868 13.935 16.0111 14.0792 15.8055 14.1643C15.6 14.2495 15.3738 14.2718 15.1555 14.2284C14.9373 14.1849 14.7368 14.0778 14.5795 13.9205C14.4222 13.7631 14.315 13.5627 14.2716 13.3444C14.2282 13.1262 14.2505 12.9 14.3356 12.6945C14.4208 12.4889 14.565 12.3132 14.75 12.1896C14.935 12.0659 15.1525 12 15.375 12C15.6734 12 15.9595 12.1185 16.1705 12.3295C16.3815 12.5405 16.5 12.8266 16.5 13.125Z" fill="black"/>
    </g>
</svg>