<svg xmlns="http://www.w3.org/2000/svg" fill="none" viewBox="0 0 163 147"><defs/><path fill="#fff" fill-rule="evenodd" d="M112.58 16.87c0 7.0017-4.682 12.9472-11.187 15.0751v16.5397h32.814V31.9296c-6.48-2.1412-11.139-8.0749-11.139-15.0596 0-8.7882 7.376-15.9124 16.474-15.9124 9.099 0 16.474 7.1242 16.474 15.9124 0 6.9607-4.627 12.8775-11.072 15.0373v16.5775h1.275c9.006 0 16.306 7.3006 16.306 16.3064s-7.3 16.3064-16.306 16.3064v36.0354s.981 15.416-6.341 22.614C132.5 147 116.378 147 116.378 147H8l82.6228-98.5152h.0336V31.8914c-6.4207-2.1729-11.0252-8.0777-11.0252-15.0214 0-8.7882 7.3758-15.9124 16.4742-15.9124 9.0986 0 16.4746 7.1242 16.4746 15.9124zm-10.871.0001c0 2.9991-2.5091 5.4303-5.6036 5.4303-3.0946 0-5.6033-2.4312-5.6033-5.4303 0-2.999 2.5087-5.4302 5.6033-5.4302 3.0945 0 5.6036 2.4312 5.6036 5.4302zm43.436 0c0 2.9991-2.508 5.4303-5.603 5.4303-3.095 0-5.603-2.4312-5.603-5.4303 0-2.999 2.508-5.4302 5.603-5.4302 3.095 0 5.603 2.4312 5.603 5.4302z" clip-rule="evenodd"/><path fill="#665610" d="M52.1364 43.0035c40.4824.3973 55.4226 33.1918 57.8316 49.5394.399 3.8738-3.074 5.9183-4.86 6.4563l-2.493.6208c-5.8832 2.185-10.3452 9.022-11.8408 12.168-14.2586 24.037-37.9315 27.314-47.9856 25.949C7.89 139.028.4117 108.146 1.0349 92.5429c.1662-16.6787 10.6192-49.9367 51.1015-49.5394z"/><path fill="#FFD829" d="M52.1095 41.7144c41.2194.4061 56.4315 33.9265 58.8845 50.6359.406 3.9595-3.13 6.0492-4.949 6.5991l-2.538.6346c-5.0765 1.32-7.953-2.3266-8.7568-4.3149-6.7007-28.8333-32.5728-35.6186-44.6713-35.407-29.0363-1.1168-35.6609 25.7621-33.5034 41.6259 3.0457 16.624 18.4438 19.924 26.0159 20.305 7.5722.38 16.8787-3.3 18.1477-14.087 1.9043-16.186-7.2368-21.4848-13.0714-19.9244-10.914 2.9189-8.3818 15.8984-2.7362 20.8554-14.7212.203-17.4138-9.9434-17.6253-15.1466 0-7.7836 4.5996-23.9093 22.7727-22.9955 18.1731.9137 24.2816 12.9719 26.2698 19.0634 4.9494 16.8787 1.7767 47.6667-33.7573 48.9857C7.0574 139.864-.557 108.298.0776 92.3503.2468 75.3024 10.89 41.3083 52.1095 41.7144z"/></svg>