<?xml version="1.0" encoding="utf-8"?>
<!-- Generator: Adobe Illustrator 24.0.2, SVG Export Plug-In . SVG Version: 6.00 Build 0)  -->
<svg version="1.1" id="Layer_1" xmlns="http://www.w3.org/2000/svg" xmlns:xlink="http://www.w3.org/1999/xlink" x="0px" y="0px"
	 viewBox="0 0 1920 1080" enable-background="new 0 0 1920 1080" xml:space="preserve">
<g>
	<g>
		<g>
			<path fill="#41E847" d="M1501.446,1080V970.275c-30.387,1.134-31.604,16.539-64.309,16.539c-33.95,0-33.95-16.611-67.9-16.611
				c-33.951,0-33.951,16.611-67.902,16.611c-33.95,0-33.95-16.611-67.899-16.611c-33.949,0-33.949,16.611-67.898,16.611
				c-33.945,0-33.945-16.611-67.89-16.611c-33.949,0-33.949,16.611-67.897,16.611c-33.95,0-33.95-16.611-67.9-16.611
				c-33.949,0-33.949,16.611-67.898,16.611c-33.947,0-33.947-16.611-67.895-16.611c-33.947,0-33.947,16.611-67.893,16.611
				c-33.946,0-33.946-16.611-67.892-16.611c-33.947,0-33.947,16.611-67.895,16.611c-33.945,0-33.945-16.611-67.891-16.611
				c-33.949,0-33.949,16.611-67.897,16.611c-33.945,0-33.945-16.611-67.89-16.611c-0.05,0-0.096,0.002-0.146,0.002V1080H1501.446z"
				/>
		</g>
	</g>
	<g>
		<g>
			<g>
				<path fill="#FFFFFF" d="M1506.276,288.134c-2.043,0.116-4.078,0.341-6.101,0.65
					C1502.198,288.475,1504.234,288.25,1506.276,288.134z"/>
			</g>
			<g>
				<path fill="#FFFFFF" d="M1555.86,308.285c-0.108-0.139-0.215-0.277-0.322-0.414c-0.788-1.008-1.624-1.974-2.538-2.87
					c-11.932-11.695-28.474-17.266-44.853-16.823c-4.284,0.116-8.553,0.645-12.729,1.585c-9.389,2.112-18.287,6.295-25.728,12.547
					c-0.017,0.015-0.035,0.029-0.052,0.044c-3.11,2.619-5.631,5.856-7.553,9.44c-8.948,16.684-21.645,44.927-36.44,79.834
					c1.627,0.11,3.264,0.187,4.919,0.187c24.688,0,46.458-12.491,59.338-31.497c6.49,3.54,13.932,5.553,21.846,5.553
					c6.541,0,12.756-1.385,18.382-3.861c12.566,10.893,28.948,17.501,46.885,17.501c5.464,0,10.778-0.632,15.892-1.791
					C1580.347,350.603,1566.696,322.322,1555.86,308.285z"/>
			</g>
		</g>
		<g>
			<path d="M1239.099,955.995c-10.229,25.851,8.851,53.869,36.653,53.82l134.576-0.151v5.304c0,35.916,29.115,65.031,65.031,65.031
				H1920V606.82l0,0V305.978c-9.958,4.303-20.934,6.7-32.472,6.7c-7.563,0-14.879-1.046-21.832-2.964
				c-9.509,34.732-41.277,60.265-79.026,60.265c-9.083,0-17.811-1.5-25.976-4.228l-36.519,70.378
				c-22.085,42.562-83.266,41.692-104.133-1.481c-6.687-11.925-16.52-34.008-27.136-56.93c-5.114,1.159-10.428,1.791-15.892,1.791
				c-17.936,0-34.318-6.607-46.885-17.501c-5.626,2.476-11.84,3.861-18.382,3.861c-7.913,0-15.355-2.013-21.846-5.553
				c-12.88,19.006-34.649,31.497-59.338,31.497c-1.655,0-3.292-0.076-4.919-0.187L1239.099,955.995z"/>
		</g>
	</g>
	<g>
		<g>
			<g>
				<path fill="#FFFFFF" d="M380.781,435.914c-9.76,0-17.701-7.94-17.701-17.701c0-9.76,7.941-17.7,17.701-17.7
					s17.701,7.94,17.701,17.7C398.481,427.974,390.541,435.914,380.781,435.914z M380.781,401.513
					c-9.209,0-16.701,7.491-16.701,16.7s7.492,16.701,16.701,16.701s16.701-7.492,16.701-16.701S389.99,401.513,380.781,401.513z"/>
			</g>
			<g>
				<path d="M55.044,309.328c-4.304,0.836-8.745,1.287-13.294,1.287c-15.676,0-30.133-5.204-41.75-13.972v309.591h494.17
					l-85.509-216.091c-3.001-7.583-6.85-14.359-11.358-20.333c-5.243,1.535-10.783,2.375-16.523,2.375
					c-13.367,0-25.688-4.462-35.57-11.968c-13.264,20.932-36.616,34.839-63.231,34.839c-10.447,0-20.391-2.148-29.423-6.015
					l-8.648,17.893c-16.967,35.105-66.716,35.813-84.675,1.204l-23.205-44.719c-4.223,0.803-8.576,1.24-13.034,1.24
					C89.493,364.657,61.539,340.909,55.044,309.328z M380.781,401.012c9.5,0,17.201,7.701,17.201,17.201
					s-7.701,17.201-17.201,17.201s-17.201-7.701-17.201-17.201S371.281,401.012,380.781,401.012z"/>
			</g>
			<g>
				<path d="M632.573,955.995l-6.395-16.162H0V1080h444.642c35.916,0,65.031-29.115,65.031-65.031v-5.304l86.248,0.151
					C623.722,1009.864,642.803,981.846,632.573,955.995z"/>
			</g>
		</g>
		<g>
			<g>
				<path fill="#FFFFFF" d="M380.869,319.906c-0.329-0.831-0.68-1.64-1.042-2.439c-0.096-0.213-0.195-0.425-0.294-0.636
					c-0.323-0.689-0.656-1.367-1.002-2.032c-0.055-0.106-0.107-0.215-0.163-0.32c-0.4-0.755-0.818-1.491-1.247-2.215
					c-0.106-0.179-0.215-0.354-0.323-0.531c-0.366-0.6-0.741-1.189-1.127-1.766c-0.091-0.137-0.18-0.276-0.272-0.412
					c-0.468-0.686-0.949-1.356-1.444-2.01c-0.098-0.13-0.2-0.256-0.299-0.384c-0.426-0.552-0.862-1.093-1.307-1.621
					c-0.112-0.133-0.222-0.268-0.335-0.399c-0.536-0.624-1.082-1.234-1.643-1.824c-0.057-0.06-0.116-0.118-0.174-0.177
					c-0.514-0.536-1.039-1.056-1.572-1.564c-0.121-0.116-0.242-0.231-0.364-0.345c-1.194-1.115-2.434-2.162-3.715-3.139
					c-0.115-0.088-0.23-0.175-0.346-0.261c-1.305-0.978-2.65-1.888-4.031-2.725c-0.096-0.058-0.194-0.115-0.29-0.173
					c-0.66-0.394-1.326-0.774-2.001-1.136c-0.039-0.021-0.077-0.043-0.116-0.064c-0.732-0.39-1.472-0.76-2.22-1.112
					c-0.061-0.029-0.122-0.056-0.183-0.084c-0.697-0.325-1.4-0.633-2.109-0.925c-0.068-0.028-0.136-0.058-0.205-0.086
					c-0.771-0.314-1.548-0.61-2.332-0.885c-0.914-0.321-1.836-0.614-2.765-0.882c-0.017-0.005-0.034-0.01-0.051-0.015
					c-0.902-0.259-1.81-0.491-2.723-0.701c-0.072-0.016-0.144-0.033-0.215-0.049c-1.185-0.267-2.38-0.483-3.58-0.667
					c-1.645-0.252-3.3-0.435-4.961-0.529c-0.028-0.002-0.056-0.003-0.084-0.005c-2.908-0.16-5.829-0.079-8.727,0.245h0h0
					c-3.023,0.339-6.019,0.942-8.949,1.811c-0.025,0.007-0.049,0.014-0.074,0.022c-0.963,0.287-1.92,0.603-2.867,0.948
					c-0.015,0.006-0.03,0.011-0.045,0.017c-1.896,0.692-3.756,1.501-5.57,2.425c-0.033,0.017-0.067,0.033-0.1,0.05
					c-0.869,0.445-1.726,0.92-2.572,1.419c-0.08,0.047-0.16,0.095-0.24,0.143c-0.838,0.501-1.665,1.025-2.478,1.578
					c-0.043,0.03-0.086,0.061-0.13,0.091c-1.639,1.124-3.221,2.36-4.739,3.701c-0.097,0.086-0.195,0.171-0.292,0.257
					c-0.71,0.638-1.405,1.3-2.085,1.985c-0.104,0.105-0.206,0.211-0.309,0.317c-0.686,0.705-1.36,1.43-2.012,2.185
					c-0.041,0.047-0.08,0.097-0.121,0.144c-0.635,0.741-1.251,1.508-1.852,2.297c-0.071,0.093-0.143,0.183-0.213,0.276
					c-0.592,0.789-1.162,1.606-1.717,2.442c-0.103,0.155-0.206,0.31-0.307,0.467c-0.541,0.835-1.065,1.692-1.568,2.573
					c-0.082,0.144-0.161,0.292-0.242,0.437c-0.519,0.93-1.023,1.879-1.497,2.86l-35.069,72.558
					c9.032,3.867,18.976,6.015,29.423,6.015c26.614,0,49.966-13.907,63.231-34.839c9.882,7.506,22.203,11.968,35.57,11.968
					c5.74,0,11.279-0.84,16.523-2.375c0.99-0.29,1.974-0.596,2.943-0.935L380.869,319.906z"/>
			</g>
			<g>
				<path fill="#FFFFFF" d="M336.416,287.796c1.661,0.094,3.316,0.277,4.961,0.529C339.732,288.073,338.077,287.89,336.416,287.796z
					"/>
			</g>
		</g>
	</g>
	<g>
		<g>
			<polygon fill="#FFFFFF" points="962,941.833 0,941.833 0,937.833 958,937.833 958,608.234 0,608.234 0,604.234 962,604.234 			
				"/>
		</g>
		<g>
			<rect y="890.438" fill="#FFFFFF" width="960" height="4"/>
		</g>
		<g>
			<rect x="894.35" y="606.234" fill="#FFFFFF" width="4" height="333.6"/>
		</g>
		<g>
			<rect x="829.904" y="606.234" fill="#FFFFFF" width="4" height="333.6"/>
		</g>
		<g>
			<rect x="765.458" y="606.234" fill="#FFFFFF" width="4" height="333.6"/>
		</g>
		<g>
			<rect x="701.012" y="606.234" fill="#FFFFFF" width="4" height="333.6"/>
		</g>
		<g>
			<rect x="636.565" y="606.234" fill="#FFFFFF" width="4" height="333.6"/>
		</g>
		<g>
			<rect x="572.119" y="606.234" fill="#FFFFFF" width="4" height="333.6"/>
		</g>
		<g>
			<rect x="507.673" y="606.234" fill="#FFFFFF" width="4" height="333.6"/>
		</g>
		<g>
			<rect x="443.227" y="606.234" fill="#FFFFFF" width="4" height="333.6"/>
		</g>
		<g>
			<rect x="378.781" y="606.234" fill="#FFFFFF" width="4" height="333.6"/>
		</g>
		<g>
			<rect x="314.334" y="606.234" fill="#FFFFFF" width="4" height="333.6"/>
		</g>
		<g>
			<rect x="249.888" y="606.234" fill="#FFFFFF" width="4" height="333.6"/>
		</g>
		<g>
			<rect x="185.442" y="606.234" fill="#FFFFFF" width="4" height="333.6"/>
		</g>
		<g>
			<rect x="120.996" y="606.234" fill="#FFFFFF" width="4" height="333.6"/>
		</g>
		<g>
			<rect x="56.55" y="606.234" fill="#FFFFFF" width="4" height="333.6"/>
		</g>
	</g>
	<g>
		<g>
			<path fill="#41E847" d="M757.715,566.292h-42.118c-30.972,0-56.079-25.108-56.079-56.079v0c0-23.396,18.966-42.363,42.363-42.363
				h69.551c23.396,0,42.363,18.966,42.363,42.363v0C813.794,541.184,788.687,566.292,757.715,566.292z"/>
			<path d="M757.715,568.292h-42.118c-32.025,0-58.079-26.054-58.079-58.079c0-24.462,19.901-44.363,44.363-44.363h69.551
				c24.461,0,44.362,19.901,44.362,44.363C815.794,542.238,789.74,568.292,757.715,568.292z M701.881,469.85
				c-22.256,0-40.363,18.106-40.363,40.363c0,29.819,24.26,54.079,54.079,54.079h42.118c29.819,0,54.079-24.26,54.079-54.079
				c0-22.257-18.106-40.363-40.362-40.363H701.881z"/>
		</g>
		<g>
			<path fill="#FFFFFF" d="M783.409,465.85h-93.506c-5.523,0-10-4.477-10-10v-0.894c0-5.523,4.477-10,10-10h93.506
				c5.523,0,10,4.477,10,10v0.894C793.409,461.373,788.932,465.85,783.409,465.85z"/>
		</g>
		<g>
			<rect x="719.225" y="226.961" fill="#FFFFFF" width="34.862" height="70.306"/>
		</g>
		<g>
			<circle fill="#41E847" cx="736.605" cy="149.334" r="98.039"/>
			<path d="M736.604,249.373c-55.162,0-100.039-44.877-100.039-100.039S681.443,49.295,736.604,49.295
				c55.162,0,100.04,44.877,100.04,100.039S791.767,249.373,736.604,249.373z M736.604,53.295
				c-52.956,0-96.039,43.083-96.039,96.039s43.083,96.039,96.039,96.039c52.957,0,96.04-43.083,96.04-96.039
				S789.561,53.295,736.604,53.295z"/>
		</g>
		<g>
			<g>
				<circle fill="#FFFFFF" cx="736.605" cy="149.334" r="28.685"/>
			</g>
			<g>
				<path d="M736.605,178.019c-15.843,0-28.685-12.843-28.685-28.685h28.685V178.019z"/>
				<path d="M738.604,180.02h-2c-16.92,0-30.686-13.766-30.686-30.686v-2h32.686V180.02z M709.993,151.334
					c0.977,13.124,11.488,23.635,24.611,24.611v-24.611H709.993z"/>
			</g>
			<g>
				<path d="M736.605,120.649c15.843,0,28.685,12.843,28.685,28.685h-28.685V120.649z"/>
				<path d="M767.29,151.334h-32.686v-32.686h2c16.92,0,30.686,13.766,30.686,30.686V151.334z M738.604,147.334h24.611
					c-0.977-13.124-11.488-23.635-24.611-24.611V147.334z"/>
			</g>
		</g>
		<g>
			<circle cx="795.713" cy="146.448" r="9.983"/>
			<path d="M795.713,158.431c-6.607,0-11.983-5.375-11.983-11.982s5.375-11.982,11.983-11.982c6.607,0,11.982,5.375,11.982,11.982
				S802.32,158.431,795.713,158.431z M795.713,138.466c-4.402,0-7.983,3.581-7.983,7.982s3.581,7.982,7.983,7.982
				c4.401,0,7.982-3.581,7.982-7.982S800.115,138.466,795.713,138.466z"/>
		</g>
		<g>
			<path d="M826.772,189.146c-11.167,0-20.252-9.085-20.252-20.253c0-1.104,0.896-2,2-2s2,0.896,2,2
				c0,8.962,7.291,16.253,16.252,16.253c1.104,0,2,0.896,2,2S827.876,189.146,826.772,189.146z"/>
		</g>
		<g>
			<rect x="734.604" y="10.919" width="4" height="40.376"/>
		</g>
		<g>
			<circle fill="#FFFFFF" cx="736.605" cy="10.919" r="10.919"/>
		</g>
		<g>
			<path fill="#41E847" d="M788.199,443.177H685.114c-25.278,0-45.771-20.492-45.771-45.771V351.26
				c0-40.135,32.536-72.671,72.671-72.671h49.284c40.135,0,72.671,32.536,72.671,72.671v46.146
				C833.969,422.685,813.477,443.177,788.199,443.177z"/>
			<path d="M788.199,445.177H685.114c-26.341,0-47.771-21.43-47.771-47.771v-46.146c0-41.174,33.498-74.672,74.671-74.672h49.284
				c41.174,0,74.671,33.498,74.671,74.672v46.146C835.969,423.747,814.54,445.177,788.199,445.177z M712.014,280.589
				c-38.968,0-70.671,31.703-70.671,70.672v46.146c0,24.135,19.636,43.771,43.771,43.771h103.085
				c24.135,0,43.771-19.636,43.771-43.771v-46.146c0-38.969-31.703-70.672-70.671-70.672H712.014z"/>
		</g>
		<g>
			<path d="M742.75,323.276c-7.093-1.154-13.769,3.648-14.926,10.734c-7.476,45.759-37.743,75.401-89.961,88.104
				c-33.792,8.22-66.591,6.576-77.41,5.706c-5.615-15.195-20.246-26.059-37.369-26.059c-7.18,0-13,5.82-13,13s5.82,13,13,13
				c7.622,0,13.823,6.201,13.823,13.823c0,7.623-6.201,13.824-13.823,13.824c-7.18,0-13,5.82-13,13s5.82,13,13,13
				c17.644,0,32.637-11.539,37.85-27.464c4.659,0.329,11.299,0.656,19.37,0.656c16.687,0,39.417-1.397,63.005-7.054
				c62.853-15.075,100.95-52.885,110.174-109.344C754.642,331.117,749.836,324.434,742.75,323.276z"/>
		</g>
		<g>
			<g>
				<path fill="#41E847" d="M771.431,467.85h-69.551c-23.396,0-42.363,18.966-42.363,42.363v0c0,30.972,25.108,56.079,56.079,56.079
					h36.905h5.213c8.033,0,15.664-1.701,22.572-4.743c19.728-8.687,33.507-28.397,33.507-51.336v0
					C813.794,486.816,794.828,467.85,771.431,467.85z"/>
				<path d="M757.715,568.292h-42.118c-32.025,0-58.079-26.054-58.079-58.079c0-24.462,19.901-44.363,44.363-44.363h69.551
					c24.461,0,44.362,19.901,44.362,44.363c0,23.015-13.621,43.883-34.701,53.166C773.69,566.639,765.825,568.292,757.715,568.292z
					 M701.881,469.85c-22.256,0-40.363,18.106-40.363,40.363c0,29.819,24.26,54.079,54.079,54.079h42.118
					c7.551,0,14.875-1.539,21.766-4.573c19.629-8.645,32.313-28.076,32.313-49.506c0-22.257-18.106-40.363-40.362-40.363H701.881z"
					/>
			</g>
			<g>
				<path d="M937.781,806.06c-1.785-6.954-8.868-11.148-15.823-9.361l-39.326,9.437l-29.137-127.855
					c-0.33-1.446-0.905-2.825-1.7-4.078l-71.508-112.654c-6.908,3.042-14.539,4.743-22.572,4.743h-5.213l76.141,119.952
					l31.606,138.692c0.78,3.421,2.91,6.382,5.905,8.209c2.057,1.255,4.402,1.902,6.771,1.902c1.08,0,2.166-0.135,3.23-0.408
					l52.263-12.757C935.373,820.098,939.565,813.014,937.781,806.06z"/>
			</g>
		</g>
		<g>
			<circle fill="#FFFFFF" cx="839.644" cy="678.106" r="14.733"/>
		</g>
		<g>
			<circle fill="#FFFFFF" cx="736.656" cy="517.071" r="23.687"/>
		</g>
		<g>
			<g>
				<path d="M623.035,851.7c-2.269,0-4.566-0.594-6.655-1.842l-48.928-33.615c-3.165-1.891-5.378-5.036-6.089-8.654
					c-0.71-3.617,0.148-7.367,2.363-10.314l94.42-125.674l66.511-159.531c2.763-6.626,10.375-9.758,17.001-6.997
					c6.627,2.763,9.759,10.375,6.997,17.001l-67.138,161.035c-0.417,0.998-0.956,1.94-1.605,2.806l-86.717,115.421l36.52,26.202
					c6.164,3.683,8.175,11.664,4.493,17.827C631.774,849.44,627.46,851.7,623.035,851.7z"/>
			</g>
		</g>
		<g>
			<circle fill="#FFFFFF" cx="669.518" cy="678.106" r="14.733"/>
		</g>
		<g>
			<g>
				<path d="M959.257,455.409c-7.622,0-13.823-6.201-13.823-13.824c0-7.622,6.201-13.823,13.823-13.823c7.18,0,13-5.82,13-13
					s-5.82-13-13-13c-17.122,0-31.754,10.863-37.369,26.059c-10.818,0.87-43.618,2.514-77.41-5.706
					c-5.316-1.293-10.393-2.772-15.253-4.415c-4.303,8.682-11.277,15.798-19.851,20.282c9.174,3.817,19.054,7.023,29.657,9.566
					c23.588,5.657,46.318,7.054,63.005,7.054c8.072,0,14.711-0.327,19.37-0.656c5.213,15.925,20.206,27.464,37.85,27.464
					c7.18,0,13-5.82,13-13S966.437,455.409,959.257,455.409z"/>
			</g>
		</g>
	</g>
	<g>
		<g>
			<g>
				<rect x="960" y="890.439" fill="#FFFFFF" width="15" height="4"/>
			</g>
			<g>
				<path fill="#FFFFFF" d="M1875,894.439h-30v-4h30V894.439z M1815,894.439h-30v-4h30V894.439z M1755,894.439h-30v-4h30V894.439z
					 M1695,894.439h-30v-4h30V894.439z M1635,894.439h-30v-4h30V894.439z M1575,894.439h-30v-4h30V894.439z M1515,894.439h-30v-4h30
					V894.439z M1455,894.439h-30v-4h30V894.439z M1395,894.439h-30v-4h30V894.439z M1335,894.439h-30v-4h30V894.439z M1275,894.439
					h-30v-4h30V894.439z M1215,894.439h-30v-4h30V894.439z M1155,894.439h-30v-4h30V894.439z M1095,894.439h-30v-4h30V894.439z
					 M1035,894.439h-30v-4h30V894.439z"/>
			</g>
			<g>
				<rect x="1905" y="890.439" fill="#FFFFFF" width="15" height="4"/>
			</g>
		</g>
		<g>
			<g>
				<rect x="1905" y="604.234" fill="#FFFFFF" width="15" height="4"/>
			</g>
			<g>
				<path fill="#FFFFFF" d="M1875,608.234h-30v-4h30V608.234z M1815,608.234h-30v-4h30V608.234z M1755,608.234h-30v-4h30V608.234z
					 M1695,608.234h-30v-4h30V608.234z M1635,608.234h-30v-4h30V608.234z M1575,608.234h-30v-4h30V608.234z M1515,608.234h-30v-4h30
					V608.234z M1455,608.234h-30v-4h30V608.234z M1395,608.234h-30v-4h30V608.234z M1335,608.234h-30v-4h30V608.234z M1275,608.234
					h-30v-4h30V608.234z M1215,608.234h-30v-4h30V608.234z M1155,608.234h-30v-4h30V608.234z M1095,608.234h-30v-4h30V608.234z
					 M1035,608.234h-30v-4h30V608.234z"/>
			</g>
			<g>
				<rect x="960" y="604.234" fill="#FFFFFF" width="15" height="4"/>
			</g>
		</g>
		<g>
			<g>
				<rect x="1905" y="937.833" fill="#FFFFFF" width="15" height="4"/>
			</g>
			<g>
				<path fill="#FFFFFF" d="M1875,941.833h-30v-4h30V941.833z M1815,941.833h-30v-4h30V941.833z M1755,941.833h-30v-4h30V941.833z
					 M1695,941.833h-30v-4h30V941.833z M1635,941.833h-30v-4h30V941.833z M1575,941.833h-30v-4h30V941.833z M1515,941.833h-30v-4h30
					V941.833z M1455,941.833h-30v-4h30V941.833z M1395,941.833h-30v-4h30V941.833z M1335,941.833h-30v-4h30V941.833z M1275,941.833
					h-30v-4h30V941.833z M1215,941.833h-30v-4h30V941.833z M1155,941.833h-30v-4h30V941.833z M1095,941.833h-30v-4h30V941.833z
					 M1035,941.833h-30v-4h30V941.833z"/>
			</g>
			<g>
				<rect x="960" y="937.833" fill="#FFFFFF" width="15" height="4"/>
			</g>
		</g>
	</g>
	<g>
		<path fill="#FFFFFF" d="M1528.118,290.658c-3.603-1.069-7.288-1.811-11.005-2.227
			C1520.83,288.847,1524.516,289.589,1528.118,290.658z"/>
	</g>
	<g>
		<path fill="#FFFFFF" d="M1471.682,300.794c-1.575,1.202-3.1,2.49-4.569,3.861C1468.582,303.284,1470.107,301.997,1471.682,300.794
			z"/>
	</g>
	<g>
		<path fill="#FFFFFF" d="M1500.175,288.785c-1.475,0.226-2.945,0.491-4.403,0.82C1497.23,289.276,1498.7,289.011,1500.175,288.785z
			"/>
	</g>
	<g>
		<path fill="#FFFFFF" d="M1506.38,288.129c3.577-0.197,7.169-0.097,10.733,0.302
			C1513.549,288.031,1509.958,287.931,1506.38,288.129z"/>
	</g>
	<g>
		<path fill="#FFFFFF" d="M1843.056,207.024l-7.797,15.026l-22.223,42.827l-52.343,100.874c8.165,2.728,16.893,4.228,25.976,4.228
			c37.749,0,69.517-25.533,79.026-60.265c6.954,1.918,14.269,2.964,21.832,2.964c11.538,0,22.514-2.396,32.472-6.699v-80.18
			C1920,183.115,1862.715,169.138,1843.056,207.024z"/>
	</g>
	<g>
		<path fill="#FFFFFF" d="M74.795,245.408l-12.229-23.567C46.581,191.035,0,202.4,0,237.108v59.535
			c11.617,8.768,26.074,13.972,41.75,13.972c4.548,0,8.99-0.451,13.294-1.287c6.495,31.581,34.449,55.329,67.952,55.329
			c4.457,0,8.81-0.437,13.034-1.24L95.433,285.18L74.795,245.408z"/>
	</g>
	<g>
		
			<ellipse transform="matrix(0.9871 -0.1602 0.1602 0.9871 -62.0734 66.3943)" fill="#FFFFFF" cx="380.781" cy="418.213" rx="17.201" ry="17.201"/>
	</g>
	<g>
		<circle fill="#FFFFFF" cx="1802.488" cy="417.31" r="18.061"/>
	</g>
	<g>
		<path fill="#41E847" d="M1222.845,119.89c20.706,18.229,33.775,44.928,33.775,74.683c0,54.936-44.535,99.471-99.471,99.471
			c-29.755,0-56.454-13.069-74.683-33.775c15.804,40.212,54.975,68.679,100.796,68.679c59.791,0,108.262-48.471,108.262-108.262
			C1291.524,174.865,1263.057,135.694,1222.845,119.89z"/>
	</g>
	<g>
		<circle fill="#41E847" cx="1500.175" cy="74.596" r="8.6"/>
	</g>
	<g>
		<circle fill="#41E847" cx="1704.888" cy="224.419" r="8.6"/>
	</g>
	<g>
		<circle fill="#41E847" cx="1157.611" cy="480.65" r="8.6"/>
	</g>
	<g>
		<circle fill="#41E847" cx="541.596" cy="309.328" r="8.6"/>
	</g>
	<g>
		<g>
			<circle fill="#41E847" cx="372.18" cy="142.833" r="8.6"/>
		</g>
		<g>
			<circle fill="#41E847" cx="323.13" cy="177.261" r="8.6"/>
		</g>
	</g>
	<g>
		<g>
			<g>
				<path fill="#41E847" d="M136.03,100.148c-1.104,0-2-0.896-2-2V83.196c0-1.104,0.896-2,2-2s2,0.896,2,2v14.951
					C138.03,99.252,137.134,100.148,136.03,100.148z"/>
			</g>
			<g>
				<path fill="#41E847" d="M136.03,130.289c-1.104,0-2-0.896-2-2v-14.951c0-1.104,0.896-2,2-2s2,0.896,2,2v14.951
					C138.03,129.394,137.134,130.289,136.03,130.289z"/>
			</g>
		</g>
		<g>
			<g>
				<path fill="#41E847" d="M158.576,107.742h-14.951c-1.104,0-2-0.896-2-2s0.896-2,2-2h14.951c1.104,0,2,0.896,2,2
					S159.681,107.742,158.576,107.742z"/>
			</g>
			<g>
				<path fill="#41E847" d="M128.434,107.742h-14.951c-1.104,0-2-0.896-2-2s0.896-2,2-2h14.951c1.104,0,2,0.896,2,2
					S129.539,107.742,128.434,107.742z"/>
			</g>
		</g>
	</g>
	<g>
		<g>
			<g>
				<path fill="#41E847" d="M1748.625,107.742c-1.104,0-2-0.896-2-2v-14.95c0-1.104,0.896-2,2-2s2,0.896,2,2v14.95
					C1750.625,106.847,1749.729,107.742,1748.625,107.742z"/>
			</g>
			<g>
				<path fill="#41E847" d="M1748.625,137.885c-1.104,0-2-0.896-2-2v-14.951c0-1.104,0.896-2,2-2s2,0.896,2,2v14.951
					C1750.625,136.989,1749.729,137.885,1748.625,137.885z"/>
			</g>
		</g>
		<g>
			<g>
				<path fill="#41E847" d="M1771.171,115.338h-14.951c-1.104,0-2-0.896-2-2s0.896-2,2-2h14.951c1.104,0,2,0.896,2,2
					S1772.275,115.338,1771.171,115.338z"/>
			</g>
			<g>
				<path fill="#41E847" d="M1741.029,115.338h-14.951c-1.104,0-2-0.896-2-2s0.896-2,2-2h14.951c1.104,0,2,0.896,2,2
					S1742.134,115.338,1741.029,115.338z"/>
			</g>
		</g>
	</g>
	<g>
		<g>
			<g>
				<path fill="#41E847" d="M1236.3,411.714c-1.104,0-2-0.896-2-2v-14.951c0-1.104,0.896-2,2-2s2,0.896,2,2v14.951
					C1238.3,410.818,1237.404,411.714,1236.3,411.714z"/>
			</g>
			<g>
				<path fill="#41E847" d="M1236.3,441.857c-1.104,0-2-0.896-2-2v-14.951c0-1.104,0.896-2,2-2s2,0.896,2,2v14.951
					C1238.3,440.961,1237.404,441.857,1236.3,441.857z"/>
			</g>
		</g>
		<g>
			<g>
				<path fill="#41E847" d="M1258.847,419.31h-14.951c-1.104,0-2-0.896-2-2s0.896-2,2-2h14.951c1.104,0,2,0.896,2,2
					S1259.951,419.31,1258.847,419.31z"/>
			</g>
			<g>
				<path fill="#41E847" d="M1228.704,419.31h-14.95c-1.104,0-2-0.896-2-2s0.896-2,2-2h14.95c1.104,0,2,0.896,2,2
					S1229.809,419.31,1228.704,419.31z"/>
			</g>
		</g>
	</g>
	<g>
		<g>
			<g>
				<path fill="#41E847" d="M994.804,163.066c-1.104,0-2-0.896-2-2v-14.951c0-1.104,0.896-2,2-2s2,0.896,2,2v14.951
					C996.804,162.17,995.908,163.066,994.804,163.066z"/>
			</g>
			<g>
				<path fill="#41E847" d="M994.804,193.207c-1.104,0-2-0.896-2-2v-14.951c0-1.104,0.896-2,2-2s2,0.896,2,2v14.951
					C996.804,192.312,995.908,193.207,994.804,193.207z"/>
			</g>
		</g>
		<g>
			<g>
				<path fill="#41E847" d="M1017.35,170.66h-14.95c-1.104,0-2-0.896-2-2s0.896-2,2-2h14.95c1.104,0,2,0.896,2,2
					S1018.454,170.66,1017.35,170.66z"/>
			</g>
			<g>
				<path fill="#41E847" d="M987.208,170.66h-14.951c-1.104,0-2-0.896-2-2s0.896-2,2-2h14.951c1.104,0,2,0.896,2,2
					S988.312,170.66,987.208,170.66z"/>
			</g>
		</g>
	</g>
</g>
</svg>
