<?xml version="1.0" encoding="utf-8"?>
<!-- Generator: Adobe Illustrator 24.0.2, SVG Export Plug-In . SVG Version: 6.00 Build 0)  -->
<svg version="1.1" id="Layer_1" xmlns="http://www.w3.org/2000/svg" xmlns:xlink="http://www.w3.org/1999/xlink" x="0px" y="0px"
	 viewBox="0 0 1080 1080" enable-background="new 0 0 1080 1080" xml:space="preserve">
<g>
	<rect x="517.813" y="251.761" fill="#FFFFFF" width="34.862" height="70.306"/>
</g>
<g>
	<g>
		<g>
			<path d="M651.134,1045.911h367.82l61.046-43.325V668.107l-53.389-86.703c-19.632-0.912-36.916-10.796-47.851-25.649
				c-9.104,5.099-19.594,8.018-30.771,8.018c-7.034,0-13.79-1.168-20.108-3.293c-11.51,15.306-29.82,25.207-50.446,25.207
				c-1.623,0-3.225-0.081-4.817-0.202L651.134,1045.911z"/>
		</g>
		<g>
			<path fill="#FFFFFF" d="M927.881,560.481c6.318,2.124,13.074,3.293,20.108,3.293c11.177,0,21.667-2.919,30.771-8.018
				c10.935,14.852,28.219,24.737,47.851,25.649l-11.509-18.691l-29.404-47.751c-3.664-5.9-8.403-10.49-13.74-13.791
				c-9.755-6.035-21.509-7.727-32.396-5.15c-10.761,2.547-20.671,9.258-26.942,20.127l-16.616,28.801l-23.387,40.538
				c1.592,0.12,3.195,0.202,4.817,0.202C898.061,585.688,916.371,575.787,927.881,560.481z"/>
		</g>
	</g>
	<g>
		<g>
			<g>
				<path d="M258.24,670.106l-70.893-122.883c-7.419,4.238-16.001,6.673-25.157,6.673c-5.576,0-10.936-0.911-15.956-2.571
					c-8.653,15.666-25.332,26.279-44.495,26.279c-12.834,0-24.547-4.769-33.489-12.617L3.351,670.381L258.24,670.106z"/>
			</g>
			<g>
				<path fill="#FFFFFF" d="M170.73,518.422c-6.271-10.869-16.181-17.58-26.942-20.127c-10.887-2.577-22.641-0.885-32.396,5.15
					c-5.336,3.301-10.076,7.891-13.74,13.791l-29.404,47.751c8.943,7.849,20.656,12.617,33.489,12.617
					c19.163,0,35.841-10.614,44.495-26.279c5.02,1.66,10.38,2.571,15.956,2.571c9.156,0,17.738-2.435,25.157-6.673L170.73,518.422z"
					/>
			</g>
		</g>
		<g>
			<circle fill="#FFFFFF" cx="171.511" cy="583.747" r="15.531"/>
		</g>
	</g>
	<g>
		<polygon points="363.994,941.305 417.338,1028.13 0.843,1028.13 0,941.305 		"/>
	</g>
	<g>
		<path fill="#41E847" d="M901.403,82.72c20.698,18.222,33.762,44.91,33.762,74.654c0,54.915-44.518,99.432-99.433,99.432
			c-29.744,0-56.432-13.064-74.654-33.762c15.798,40.196,54.953,68.652,100.756,68.652c59.768,0,108.22-48.452,108.22-108.22
			C970.055,137.673,941.599,98.518,901.403,82.72z"/>
	</g>
	<g>
		<circle fill="#41E847" cx="745.752" cy="66.553" r="8.597"/>
	</g>
	<g>
		<circle fill="#41E847" cx="80.796" cy="372.244" r="8.597"/>
	</g>
	<g>
		<circle fill="#41E847" cx="1026.611" cy="57.956" r="8.597"/>
	</g>
	<g>
		<g>
			<circle fill="#41E847" cx="262.106" cy="187.208" r="8.597"/>
		</g>
		<g>
			<circle fill="#41E847" cx="213.075" cy="221.622" r="8.597"/>
		</g>
	</g>
	<g>
		<g>
			<g>
				<path fill="#41E847" d="M108.258,100.692c-1.104,0-2-0.896-2-2V83.747c0-1.104,0.896-2,2-2s2,0.896,2,2v14.945
					C110.258,99.797,109.362,100.692,108.258,100.692z"/>
			</g>
			<g>
				<path fill="#41E847" d="M108.258,130.823c-1.104,0-2-0.896-2-2v-14.945c0-1.104,0.896-2,2-2s2,0.896,2,2v14.945
					C110.258,129.928,109.362,130.823,108.258,130.823z"/>
			</g>
		</g>
		<g>
			<g>
				<path fill="#41E847" d="M130.796,108.285H115.85c-1.104,0-2-0.896-2-2s0.896-2,2-2h14.945c1.104,0,2,0.896,2,2
					S131.9,108.285,130.796,108.285z"/>
			</g>
			<g>
				<path fill="#41E847" d="M100.665,108.285H85.72c-1.104,0-2-0.896-2-2s0.896-2,2-2h14.945c1.104,0,2,0.896,2,2
					S101.769,108.285,100.665,108.285z"/>
			</g>
		</g>
	</g>
	<g>
		<g>
			<g>
				<path fill="#41E847" d="M929.572,404.545c-1.104,0-2-0.896-2-2v-14.944c0-1.104,0.896-2,2-2s2,0.896,2,2v14.944
					C931.572,403.649,930.677,404.545,929.572,404.545z"/>
			</g>
			<g>
				<path fill="#41E847" d="M929.572,434.676c-1.104,0-2-0.896-2-2V417.73c0-1.104,0.896-2,2-2s2,0.896,2,2v14.945
					C931.572,433.78,930.677,434.676,929.572,434.676z"/>
			</g>
		</g>
		<g>
			<g>
				<path fill="#41E847" d="M952.11,412.138h-14.945c-1.104,0-2-0.896-2-2s0.896-2,2-2h14.945c1.104,0,2,0.896,2,2
					S953.215,412.138,952.11,412.138z"/>
			</g>
			<g>
				<path fill="#41E847" d="M921.98,412.138h-14.945c-1.104,0-2-0.896-2-2s0.896-2,2-2h14.945c1.104,0,2,0.896,2,2
					S923.085,412.138,921.98,412.138z"/>
			</g>
		</g>
	</g>
	<g>
		<g>
			<g>
				<polygon fill="#FFFFFF" points="541.055,943.306 0,943.306 0,939.306 537.055,939.306 537.055,672.106 0,672.106 0,668.106 
					541.055,668.106 				"/>
			</g>
			<g>
				<path fill="#FFFFFF" d="M539.055,904.775H2.577c-1.104,0-2-0.896-2-2s0.896-2,2-2h536.478c1.104,0,2,0.896,2,2
					S540.159,904.775,539.055,904.775z"/>
			</g>
			<g>
				<path fill="#FFFFFF" d="M471.888,943.306c-1.104,0-2-0.896-2-2V670.106c0-1.104,0.896-2,2-2s2,0.896,2,2v271.199
					C473.888,942.41,472.992,943.306,471.888,943.306z"/>
			</g>
			<g>
				<path fill="#FFFFFF" d="M403.881,943.306c-1.104,0-2-0.896-2-2V670.106c0-1.104,0.896-2,2-2s2,0.896,2,2v271.199
					C405.881,942.41,404.985,943.306,403.881,943.306z"/>
			</g>
			<g>
				<path fill="#FFFFFF" d="M335.874,943.306c-1.104,0-2-0.896-2-2V670.106c0-1.104,0.896-2,2-2s2,0.896,2,2v271.199
					C337.874,942.41,336.978,943.306,335.874,943.306z"/>
			</g>
			<g>
				<path fill="#FFFFFF" d="M267.867,943.306c-1.104,0-2-0.896-2-2V670.106c0-1.104,0.896-2,2-2s2,0.896,2,2v271.199
					C269.867,942.41,268.972,943.306,267.867,943.306z"/>
			</g>
			<g>
				<path fill="#FFFFFF" d="M199.86,943.306c-1.104,0-2-0.896-2-2V670.106c0-1.104,0.896-2,2-2s2,0.896,2,2v271.199
					C201.86,942.41,200.965,943.306,199.86,943.306z"/>
			</g>
			<g>
				<path fill="#FFFFFF" d="M131.854,943.306c-1.104,0-2-0.896-2-2V670.106c0-1.104,0.896-2,2-2s2,0.896,2,2v271.199
					C133.854,942.41,132.959,943.306,131.854,943.306z"/>
			</g>
			<g>
				<path fill="#FFFFFF" d="M63.848,943.306c-1.104,0-2-0.896-2-2V670.106c0-1.104,0.896-2,2-2c1.104,0,2,0.896,2,2v271.199
					C65.848,942.41,64.952,943.306,63.848,943.306z"/>
			</g>
		</g>
		<g>
			<g>
				<rect x="539.055" y="900.775" fill="#FFFFFF" width="15" height="4"/>
			</g>
			<g>
				<path fill="#FFFFFF" d="M1034.944,904.775h-30.056v-4h30.056V904.775z M974.833,904.775h-30.056v-4h30.056V904.775z
					 M914.722,904.775h-30.056v-4h30.056V904.775z M854.61,904.775h-30.056v-4h30.056V904.775z M794.499,904.775h-30.056v-4h30.056
					V904.775z M734.388,904.775h-30.056v-4h30.056V904.775z M674.276,904.775h-30.056v-4h30.056V904.775z M614.165,904.775h-30.056
					v-4h30.056V904.775z"/>
			</g>
			<g>
				<rect x="1065" y="900.775" fill="#FFFFFF" width="15" height="4"/>
			</g>
		</g>
		<g>
			<g>
				<rect x="1065" y="668.106" fill="#FFFFFF" width="15" height="4"/>
			</g>
			<g>
				<path fill="#FFFFFF" d="M1034.944,672.106h-30.056v-4h30.056V672.106z M974.833,672.106h-30.056v-4h30.056V672.106z
					 M914.722,672.106h-30.056v-4h30.056V672.106z M854.61,672.106h-30.056v-4h30.056V672.106z M794.499,672.106h-30.056v-4h30.056
					V672.106z M734.388,672.106h-30.056v-4h30.056V672.106z M674.276,672.106h-30.056v-4h30.056V672.106z M614.165,672.106h-30.056
					v-4h30.056V672.106z"/>
			</g>
			<g>
				<rect x="539.055" y="668.106" fill="#FFFFFF" width="15" height="4"/>
			</g>
		</g>
		<g>
			<g>
				<rect x="1065" y="939.306" fill="#FFFFFF" width="15" height="4"/>
			</g>
			<g>
				<path fill="#FFFFFF" d="M1034.944,943.306h-30.056v-4h30.056V943.306z M974.833,943.306h-30.056v-4h30.056V943.306z
					 M914.722,943.306h-30.056v-4h30.056V943.306z M854.61,943.306h-30.056v-4h30.056V943.306z M794.499,943.306h-30.056v-4h30.056
					V943.306z M734.388,943.306h-30.056v-4h30.056V943.306z M674.276,943.306h-30.056v-4h30.056V943.306z M614.165,943.306h-30.056
					v-4h30.056V943.306z"/>
			</g>
			<g>
				<rect x="539.055" y="939.306" fill="#FFFFFF" width="15" height="4"/>
			</g>
		</g>
	</g>
	<g>
		<g>
			<path fill="#41E847" d="M570.204,615.895h-69.807c-27.057,0-48.991-21.934-48.991-48.991v-21.065
				c0-20.439,16.569-37.008,37.008-37.008h93.773c20.439,0,37.008,16.569,37.008,37.008v21.065
				C619.195,593.961,597.261,615.895,570.204,615.895z"/>
			<path d="M570.204,617.895h-69.808c-28.116,0-50.99-22.875-50.99-50.991v-21.064c0-21.51,17.499-39.009,39.008-39.009h93.773
				c21.509,0,39.008,17.499,39.008,39.009v21.064C621.195,595.02,598.32,617.895,570.204,617.895z M488.414,510.83
				c-19.304,0-35.008,15.705-35.008,35.009v21.064c0,25.911,21.08,46.991,46.99,46.991h69.808c25.911,0,46.991-21.08,46.991-46.991
				v-21.064c0-19.304-15.704-35.009-35.008-35.009H488.414z"/>
		</g>
		<g>
			<path fill="#FFFFFF" d="M587.898,506.655H482.703c-5.04,0-9.127-4.086-9.127-9.127v-4.471c0-5.04,4.086-9.127,9.127-9.127
				h105.195c5.04,0,9.127,4.086,9.127,9.127v4.471C597.024,502.569,592.938,506.655,587.898,506.655z"/>
		</g>
		<g>
			<circle fill="#41E847" cx="535.245" cy="162.415" r="106.627"/>
			<path d="M535.244,271.041c-59.896,0-108.626-48.729-108.626-108.627c0-59.896,48.729-108.626,108.626-108.626
				c59.897,0,108.627,48.729,108.627,108.626C643.871,222.312,595.141,271.041,535.244,271.041z M535.244,57.788
				c-57.691,0-104.626,46.935-104.626,104.626s46.935,104.627,104.626,104.627s104.627-46.936,104.627-104.627
				S592.935,57.788,535.244,57.788z"/>
		</g>
		<g>
			<g>
				<circle fill="#FFFFFF" cx="535.245" cy="162.415" r="31.198"/>
			</g>
			<g>
				<path d="M535.245,193.613c-17.23,0-31.198-13.968-31.198-31.198h31.198V193.613z"/>
				<path d="M535.744,194.112h-0.5c-17.478,0-31.697-14.22-31.697-31.698v-0.5h32.197V194.112z M504.551,162.914
					c0.266,16.53,13.664,29.929,30.193,30.194v-30.194H504.551z"/>
			</g>
			<g>
				<path d="M535.245,131.216c17.23,0,31.198,13.968,31.198,31.198h-31.198V131.216z"/>
				<path d="M566.942,162.914h-32.198v-32.197h0.5c17.479,0,31.698,14.22,31.698,31.697V162.914z M535.744,161.914h30.194
					c-0.266-16.529-13.664-29.928-30.194-30.193V161.914z"/>
			</g>
		</g>
		<g>
			<circle cx="599.531" cy="159.276" r="10.857"/>
			<path d="M599.53,170.633c-6.262,0-11.356-5.095-11.356-11.356c0-6.263,5.095-11.357,11.356-11.357
				c6.263,0,11.357,5.095,11.357,11.357C610.888,165.538,605.793,170.633,599.53,170.633z M599.53,148.919
				c-5.711,0-10.356,4.646-10.356,10.357s4.646,10.356,10.356,10.356s10.357-4.646,10.357-10.356S605.241,148.919,599.53,148.919z"
				/>
		</g>
		<g>
			<path d="M633.309,205.538c-12.049,0-21.851-9.803-21.851-21.852c0-1.104,0.896-2,2-2s2,0.896,2,2
				c0,9.844,8.008,17.852,17.851,17.852c1.104,0,2,0.896,2,2S634.414,205.538,633.309,205.538z"/>
		</g>
		<g>
			<rect x="533.244" y="11.876" width="4" height="43.912"/>
		</g>
		<g>
			<circle fill="#FFFFFF" cx="535.245" cy="11.875" r="11.875"/>
		</g>
		<g>
			<path fill="#41E847" d="M595.367,481.996H475.234c-25.278,0-45.771-20.492-45.771-45.771v-60.563
				c0-40.135,32.536-72.671,72.671-72.671h66.332c40.135,0,72.671,32.536,72.671,72.671v60.563
				C641.138,461.504,620.645,481.996,595.367,481.996z"/>
			<path d="M595.367,483.996H475.234c-26.341,0-47.771-21.43-47.771-47.771v-60.562c0-41.174,33.497-74.672,74.671-74.672h66.332
				c41.174,0,74.671,33.498,74.671,74.672v60.562C643.138,462.566,621.708,483.996,595.367,483.996z M502.135,304.991
				c-38.968,0-70.671,31.703-70.671,70.672v60.562c0,24.135,19.636,43.771,43.771,43.771h120.133
				c24.135,0,43.771-19.636,43.771-43.771v-60.562c0-38.969-31.703-70.672-70.671-70.672H502.135z"/>
		</g>
		<g>
			<path d="M541.929,351.593c-7.714-1.255-14.975,3.967-16.234,11.674c-8.13,49.767-41.049,82.005-97.841,95.821
				c-36.752,8.94-72.424,7.152-84.19,6.206c-6.107-16.526-22.02-28.341-40.642-28.341c-7.809,0-14.139,6.33-14.139,14.139
				s6.33,14.139,14.139,14.139c8.29,0,15.034,6.744,15.034,15.034c0,8.29-6.744,15.035-15.034,15.035
				c-7.809,0-14.139,6.33-14.139,14.139c0,7.809,6.33,14.139,14.139,14.139c19.19,0,35.495-12.55,41.165-29.869
				c5.068,0.358,12.288,0.713,21.067,0.713c18.149,0,42.869-1.519,68.524-7.672c68.358-16.395,109.793-57.518,119.825-118.921
				C554.861,360.12,549.635,352.852,541.929,351.593z"/>
		</g>
		<g>
			<g>
				<path d="M736.744,812.9c-1.784-6.951-8.864-11.144-15.817-9.358l-39.31,9.434L652.491,685.17
					c-0.33-1.446-0.904-2.824-1.699-4.077l-50.314-79.449c-10.085,10.999-8.243,8.026-17.971,11.601h-5.211l50.353,79.885
					l31.594,138.638c0.779,3.42,2.909,6.379,5.902,8.206c2.056,1.254,4.401,1.902,6.768,1.902c1.08,0,2.165-0.135,3.229-0.408
					l52.243-12.752C734.338,826.932,738.527,819.851,736.744,812.9z"/>
			</g>
		</g>
		<g>
			<circle fill="#FFFFFF" cx="638.645" cy="684.996" r="19.45"/>
		</g>
		<g>
			<circle fill="#FFFFFF" cx="535.3" cy="562.363" r="25.762"/>
		</g>
		<g>
			<g>
				<path d="M422.121,858.521c-2.268,0-4.564-0.594-6.652-1.841l-48.909-33.602c-3.164-1.89-5.376-5.034-6.087-8.651
					c-0.71-3.616,0.148-7.364,2.362-10.31l94.384-125.625l65.586-121.13c2.762-6.624,10.371-9.755,16.995-6.994
					c6.624,2.762,9.755,10.37,6.994,16.995L480.58,689.996c-0.416,0.998-0.955,1.94-1.605,2.805l-86.683,115.376l36.505,26.192
					c6.161,3.681,8.172,11.659,4.491,17.82C430.856,856.262,426.544,858.521,422.121,858.521z"/>
			</g>
		</g>
		<g>
			<g>
				<path d="M777.399,495.299c-8.29,0-15.034-6.744-15.034-15.035c0-8.29,6.744-15.034,15.034-15.034
					c7.809,0,14.139-6.33,14.139-14.139c0-7.809-6.33-14.139-14.139-14.139c-18.622,0-34.535,11.815-40.642,28.341
					c-11.766,0.946-47.438,2.734-84.19-6.206c-5.782-1.407-11.303-3.014-16.589-4.802c-4.679,9.442-12.265,17.181-21.589,22.058
					c9.978,4.152,20.723,7.638,32.254,10.404c25.655,6.153,50.375,7.672,68.524,7.672c8.779,0,15.999-0.355,21.067-0.713
					c5.67,17.32,21.975,29.869,41.165,29.869c7.809,0,14.139-6.33,14.139-14.139C791.538,501.629,785.208,495.299,777.399,495.299z"
					/>
			</g>
		</g>
		<g>
			<circle fill="#FFFFFF" cx="468.856" cy="684.996" r="19.45"/>
		</g>
	</g>
	<g>
		<g>
			<path fill="#41E847" d="M1080,1080v-77.576c-1.467-0.061-2.988-0.096-4.581-0.096c-38.773,0-38.773,18.971-77.546,18.971
				c-38.768,0-38.768-18.971-77.536-18.971c-38.772,0-38.772,18.971-77.545,18.971c-38.774,0-38.774-18.971-77.547-18.971
				c-38.773,0-38.773,18.971-77.546,18.971c-38.771,0-38.771-18.971-77.542-18.971c-38.77,0-38.77,18.971-77.541,18.971
				c-38.77,0-38.77-18.971-77.539-18.971c-38.771,0-38.771,18.971-77.542,18.971c-38.769,0-38.769-18.971-77.538-18.971
				c-38.772,0-38.772,18.971-77.545,18.971c-38.769,0-38.769-18.971-77.537-18.971c-38.767,0-38.767,18.971-77.534,18.971
				c-34.876,0-38.381-15.352-66.96-18.434V1080H1080z"/>
		</g>
	</g>
	<g>
		<circle fill="#41E847" cx="360.229" cy="583.747" r="8.597"/>
	</g>
</g>
</svg>
