<svg xmlns="http://www.w3.org/2000/svg" viewBox="0 0 1925 1050" xml:space="preserve"><path fill="#FFF" d="M174.2 962.11h231.66V1050H174.2z"/><path d="M253.5 1020.82h8.3v-23.68l-7.15 5.47-3.26-4.33 12.36-9.43h4.77v31.97h8.13v5.97H253.5v-5.97zm32.14 2.38c0-1.26.4-2.26 1.2-3a4.43 4.43 0 0 1 3.14-1.11c1.37 0 2.46.37 3.25 1.11.8.74 1.2 1.74 1.2 3a4 4 0 0 1-1.2 3.04 4.51 4.51 0 0 1-3.25 1.14c-1.3 0-2.35-.38-3.14-1.14a4 4 0 0 1-1.2-3.03zm16.21-15.44c0-3.28.34-6.17 1.03-8.64.7-2.48 1.66-4.53 2.91-6.15s2.75-2.85 4.5-3.66a13.6 13.6 0 0 1 5.81-1.22c4.57 0 8.1 1.6 10.56 4.8 2.46 3.2 3.7 8.15 3.7 14.87 0 3.33-.35 6.23-1.04 8.7a18.13 18.13 0 0 1-2.9 6.18 11.9 11.9 0 0 1-4.52 3.69c-1.76.8-3.71 1.22-5.85 1.22-4.6 0-8.12-1.7-10.55-5.07-2.44-3.38-3.65-8.28-3.65-14.72zm7.04 0a44.42 44.42 0 0 0 .11 3.04l13.12-12.09c-1.08-3.1-3.1-4.66-6.08-4.66-2.29 0-4.06 1.11-5.3 3.34-1.23 2.22-1.85 5.68-1.85 10.37zm14.42 0a48.17 48.17 0 0 0-.1-3.2l-13.18 12.1c1.11 3.28 3.14 4.92 6.08 4.92 2.29 0 4.06-1.1 5.32-3.3 1.25-2.2 1.88-5.71 1.88-10.52z"/><path fill="#FFF" d="M840.16 960.83h235.03V1050H840.16z"/><path d="M943.55 1026.45h-24.52v-5.33c.44-.37.99-.86 1.65-1.46l2.22-2.06c.83-.77 1.7-1.62 2.62-2.53a120.56 120.56 0 0 0 5.96-6.65c.94-1.14 1.7-2.21 2.31-3.22.6-1 1.05-2 1.35-2.97.29-.97.44-1.97.44-3 0-.73-.17-1.44-.5-2.14a5.85 5.85 0 0 0-1.37-1.84 6.58 6.58 0 0 0-2.12-1.27 7.66 7.66 0 0 0-2.72-.47c-1.32 0-2.52.2-3.6.6a12.37 12.37 0 0 0-3.38 2.04l-2.86-5.06a24.21 24.21 0 0 1 5.14-2.77 17.53 17.53 0 0 1 6.51-1.13c1.58 0 3.1.22 4.54.66 1.45.44 2.73 1.1 3.85 1.95 1.12.86 2 1.94 2.66 3.22a9.6 9.6 0 0 1 1 4.45 15.95 15.95 0 0 1-1.24 6.3c-.42 1-.97 2.04-1.65 3.1a50.6 50.6 0 0 1-4.84 6.35 88.8 88.8 0 0 1-5.06 5.25 31.4 31.4 0 0 1-2.23 1.93h15.84v6.05zm9.68-3.63c0-1.28.4-2.3 1.2-3.05a4.5 4.5 0 0 1 3.2-1.13 4.7 4.7 0 0 1 3.3 1.13c.8.75 1.2 1.77 1.2 3.05 0 1.28-.4 2.3-1.2 3.08s-1.92 1.15-3.3 1.15a4.43 4.43 0 0 1-3.2-1.15c-.8-.77-1.2-1.8-1.2-3.08zm16.43-15.67c0-3.34.35-6.26 1.05-8.77.7-2.51 1.69-4.6 2.96-6.24s2.78-2.89 4.55-3.71a13.78 13.78 0 0 1 5.9-1.24c4.64 0 8.21 1.62 10.71 4.87 2.5 3.24 3.76 8.27 3.76 15.09 0 3.37-.35 6.31-1.05 8.82s-1.69 4.6-2.96 6.27a12.08 12.08 0 0 1-4.58 3.74 13.97 13.97 0 0 1-5.93 1.24c-4.67 0-8.24-1.72-10.7-5.14-2.47-3.43-3.7-8.4-3.7-14.93zm7.15 0a43.27 43.27 0 0 0 .11 3.08l13.3-12.26c-1.08-3.16-3.14-4.73-6.15-4.73-2.33 0-4.12 1.12-5.38 3.38-1.25 2.25-1.88 5.76-1.88 10.53zm14.63 0a52.45 52.45 0 0 0-.11-3.25l-13.36 12.27c1.12 3.33 3.18 5 6.16 5 2.33 0 4.13-1.12 5.4-3.35 1.27-2.24 1.9-5.8 1.9-10.67z"/><path fill="#FFD829" d="M475.37 722.86h100.78V875.7H475.37zm-470.56 0h95.58V875.7H4.81z"/><path d="M477.85 873.7h-5V603.03a69.72 69.72 0 0 0-69.65-69.64H172.93a69.72 69.72 0 0 0-69.65 69.64V873.7h-5V603.02c0-41.16 33.49-74.64 74.65-74.64H403.2c41.15 0 74.64 33.48 74.64 74.64V873.7z"/><path d="m202.25 531.17-76.62-.44c-66 0-119.52 53.5-119.52 119.52v72.6h92.33v-82.88c0-55.1 50.9-100.67 103.81-108.8z"/><path d="M100.94 725.36H3.61v-75.11c0-67.29 54.74-122.02 122.02-122.02l76.64.44.37 4.97c-25.7 3.95-51.34 17.1-70.37 36.09-20.2 20.16-31.33 45.1-31.33 70.25v85.38zm-92.33-5h87.33v-80.39c0-26.47 11.65-52.68 32.8-73.78a137 137 0 0 1 53.1-32.64l-56.22-.32c-64.51 0-117 52.5-117 117.02v70.1zm444.24-190.52H362.4l17.84 2.16c54.09 7.08 96.22 53.63 96.22 109.56v80.41h95.91v-72.6c0-65.74-53.78-119.53-119.52-119.53z"/><path d="M574.87 724.47H473.96v-82.9c0-54.04-40.43-100.07-94.04-107.09l-17.82-2.15.3-4.99h90.45c67.28 0 122.02 54.74 122.02 122.02v75.11zm-95.91-5h90.91v-70.1c0-64.53-52.5-117.03-117.02-117.03h-58c48.85 12.97 84.1 57.6 84.1 109.23v77.9zM97.87 649.93l115.87-118.01-114.59 8.24z"/><path d="m95.3 656.11 1.37-118.28 123.48-8.88L95.3 656.11zm6.32-113.63-1.18 101.26 106.88-108.85-105.7 7.6zm376.51 97.5L369.36 534.7l117.17 5.46z"/><path d="M480.18 645.44 362.86 531.89l126.38 5.89-9.06 107.66zM375.85 537.5l100.23 97.01 7.74-91.98-107.97-5.03z"/><path fill="#FFD829" d="M286.8 585.18a68.75 68.75 0 0 1-68.74-68.75v-37.12h137.5v37.12a68.75 68.75 0 0 1-68.76 68.75z"/><path d="M286.8 587.68c-39.28 0-71.24-31.96-71.24-71.24V476.8h142.5v39.63c0 39.28-31.97 71.24-71.26 71.24zm-66.25-105.87v34.62c0 36.53 29.72 66.25 66.25 66.25s66.25-29.72 66.25-66.25v-34.62h-132.5z"/><path fill="#FFD829" d="M99.72 343.87c2.26-.45 4.51-.75 6.75-.94 6.45-74.68 61.37-139.22 138.58-154.52s152.6 23.44 187.02 90.02a60 60 0 1 1 15.2 117.06c-14.46 64.76-65.78 118.14-135.07 131.87-69.28 13.73-137.08-16.06-175.16-70.42a59.99 59.99 0 1 1-37.32-113.08z"/><path d="M278.65 533.16a175.48 175.48 0 0 1-142.46-73.1 62.62 62.62 0 0 1-12.67 3.95 62.07 62.07 0 0 1-46.9-9.37 62.08 62.08 0 0 1-26.54-39.79 62.07 62.07 0 0 1 9.37-46.9 62.1 62.1 0 0 1 39.78-26.54c1.58-.31 3.24-.57 4.94-.76a176.63 176.63 0 0 1 43.18-98.9 173.66 173.66 0 0 1 97.21-55.8 173.66 173.66 0 0 1 111.15 14.52 176.64 176.64 0 0 1 77.62 74.97 62.57 62.57 0 0 1 78.3 47.98 62.56 62.56 0 0 1-62.37 74.63 175.42 175.42 0 0 1-170.61 135.1zm-140.77-79.37 1.2 1.72a170.44 170.44 0 0 0 172.64 69.4 170.42 170.42 0 0 0 133.12-129.97l.46-2.06 2.1.1a57.56 57.56 0 0 0 59.32-68.6 57.56 57.56 0 0 0-73.89-43.57l-2 .64-.98-1.87a171.52 171.52 0 0 0-76.35-74.62 168.69 168.69 0 0 0-107.96-14.1 168.71 168.71 0 0 0-94.44 54.2 171.54 171.54 0 0 0-42.14 98.09l-.19 2.1-2.1.18a57.11 57.11 0 0 0-43.07 25.31 57.1 57.1 0 0 0-8.62 43.14 57.11 57.11 0 0 0 24.42 36.6 57.1 57.1 0 0 0 43.15 8.63c4.62-.92 9.14-2.4 13.42-4.42l1.9-.9z"/><path fill="#FFD829" d="m477.06 314.09-28.32 46.38"/><path d="M448.74 362.97a2.5 2.5 0 0 1-2.13-3.8l28.32-46.38a2.5 2.5 0 0 1 4.26 2.6l-28.31 46.38a2.5 2.5 0 0 1-2.14 1.2z"/><path fill="#FFD829" d="m85.52 391.66 43.86 32.08"/><path d="M129.38 426.24c-.51 0-1.03-.16-1.48-.48l-43.86-32.09a2.5 2.5 0 1 1 2.95-4.03l43.87 32.08a2.5 2.5 0 0 1-1.48 4.52zM200 391.7a24.83 24.83 0 1 0 48.72-9.64 24.83 24.83 0 0 0-48.71 9.65z"/><path d="M162.03 403.92a2.5 2.5 0 0 1-2.3-3.49 65.43 65.43 0 0 1 47.4-38.37 65.4 65.4 0 0 1 58.45 17.4 2.5 2.5 0 1 1-3.5 3.58 60.44 60.44 0 0 0-53.98-16.08 60.43 60.43 0 0 0-43.77 35.45 2.5 2.5 0 0 1-2.3 1.51zm178.67-41.9a24.83 24.83 0 1 0 48.72-9.65 24.83 24.83 0 0 0-48.71 9.65z"/><path d="M302.74 374.23a2.5 2.5 0 0 1-2.3-3.49 65.43 65.43 0 0 1 47.4-38.37 65.43 65.43 0 0 1 58.44 17.4 2.5 2.5 0 0 1-3.5 3.58 60.44 60.44 0 0 0-53.98-16.08 60.43 60.43 0 0 0-43.77 35.44 2.5 2.5 0 0 1-2.3 1.52z"/><circle fill="#FFF" cx="195.37" cy="245.12" r="6.47"/><circle fill="#FFF" cx="173.26" cy="259.86" r="6.47"/><circle fill="#FFF" cx="195.78" cy="266.59" r="6.47"/><path fill="#FFF" d="M323.8 406.91a31.65 31.65 0 0 1-61.67 14.24"/><circle cx="222.9" cy="459.17" r="6.51"/><path fill="#FFD829" d="M271.86 873.8s.03-.09 0-.1c-9.83-3.9-14.65-13.03-10.75-22.88a19.17 19.17 0 0 1 24.88-10.76l12.08 4.61.06-.15-13.47-5.1a19.18 19.18 0 0 1 14.13-35.64l13.47 5.1.06-.15-14.44-5.6a18.98 18.98 0 0 1-10.56-24.8 19.17 19.17 0 0 1 24.89-10.76l29.4 11.26c.25-.18.1-.27.33-.45l-27.1-19.5s.06-.07.04-.09a19.18 19.18 0 1 1 23.74-30.05l64.7 46.47a54.08 54.08 0 0 1 24.14 32.48c2.06 5.56 6.68 15.71 14.26 20.1l-.02.03 132.13 45.37"/><path d="M271.86 876.3a2.5 2.5 0 0 1-1.53-.53c-11.02-4.67-15.76-15.22-11.55-25.87a21.7 21.7 0 0 1 17.15-13.47 21.7 21.7 0 0 1-4.35-22.81 21.7 21.7 0 0 1 17.53-13.53 21.66 21.66 0 0 1-4.11-22.68 21.53 21.53 0 0 1 11.55-11.9 21.53 21.53 0 0 1 16.58-.26l13.44 5.15-13.18-9.5a2.5 2.5 0 0 1-.5-.47 21.7 21.7 0 0 1-4.45-29.85 21.7 21.7 0 0 1 31.73-3.8l64.54 46.35a56.9 56.9 0 0 1 25.14 33.81c1.98 5.32 6.27 14.68 13.07 18.66l131.72 45.23a2.5 2.5 0 1 1-1.62 4.73l-132.13-45.37c-.3-.1-.57-.26-.8-.46-8-4.88-12.8-15.32-14.97-21.17a51.87 51.87 0 0 0-23.25-31.32l-64.71-46.47a16.69 16.69 0 0 0-24.66 2.73 16.7 16.7 0 0 0 3.83 23.26c.18.13.34.28.48.45l26.6 19.14a2.5 2.5 0 0 1 .55 3.5c-.2.38-.46.7-.82.97a2.5 2.5 0 0 1-2.41.35l-29.41-11.26a16.55 16.55 0 0 0-12.79.19 16.56 16.56 0 0 0-8.88 9.16 16.68 16.68 0 0 0 .1 12.73 16.24 16.24 0 0 0 9.06 8.82l14.41 5.59a2.5 2.5 0 0 1 1.4 3.3l-.06.15a2.5 2.5 0 0 1-3.19 1.36l-13.47-5.1a16.7 16.7 0 0 0-21.68 9.35 16.7 16.7 0 0 0 9.36 21.64l13.44 5.08a2.5 2.5 0 0 1 1.42 3.32l-.07.15a2.5 2.5 0 0 1-3.19 1.36l-12.08-4.61a16.7 16.7 0 0 0-21.67 9.34c-3.26 8.24.5 16.13 9.36 19.64.58.23 1.06.67 1.33 1.24.3.62.32 1.43.07 2.08a2.5 2.5 0 0 1-2.33 1.6zm71.6-95.93z"/><path d="m333.28 774.45 65.79-154.48 11.04 4.7-65.79 154.49z"/><circle fill="#FFF" cx="429.05" cy="552.73" r="97"/><path fill="#FFD829" d="m466.91 499.84 1.75 31.26 26.74 16.28c10.13 6.16 8.8 21.27-2.27 25.56l-29.18 11.33-7.22 30.46c-2.74 11.54-17.52 14.94-25.02 5.74l-19.79-24.26-31.2 2.55c-11.82.97-19.62-12.05-13.2-22.02l16.96-26.31-12.06-28.89c-4.57-10.95 5.4-22.38 16.86-19.35l30.27 8 23.74-20.4c9-7.74 22.96-1.8 23.62 10.05z"/><path fill="#FFF" d="M578.67 878.2H1.4V1.58h577.27V878.2zm-572.27-5h567.27V6.58H6.4V873.2z"/><path fill="#FFF" d="M578.67 88.75H1.4V1.58h577.27v87.17zm-572.27-5h567.27V6.58H6.4v77.17z"/><path d="M56.28 72.59c-14.92 0-27.06-12.14-27.06-27.07s12.14-27.06 27.06-27.06c14.92 0 27.06 12.14 27.06 27.06S71.2 72.6 56.28 72.6zm0-49.13a22.09 22.09 0 0 0-22.06 22.06c0 12.17 9.9 22.07 22.06 22.07s22.06-9.9 22.06-22.07c0-12.16-9.9-22.06-22.06-22.06z"/><path fill="#FFF" d="M119.29 72.59c-14.93 0-27.07-12.14-27.07-27.07s12.14-27.06 27.07-27.06c14.92 0 27.06 12.14 27.06 27.06S134.21 72.6 119.3 72.6zm0-49.13a22.09 22.09 0 0 0-22.07 22.06c0 12.17 9.9 22.07 22.07 22.07s22.06-9.9 22.06-22.07c0-12.16-9.9-22.06-22.06-22.06zm61.53 49.13c-14.92 0-27.06-12.14-27.06-27.07s12.14-27.06 27.06-27.06c14.93 0 27.07 12.14 27.07 27.06S195.75 72.6 180.82 72.6zm0-49.13a22.09 22.09 0 0 0-22.06 22.06c0 12.17 9.9 22.07 22.06 22.07s22.07-9.9 22.07-22.07a22.1 22.1 0 0 0-22.07-22.06zm871.96 490.42c-.61 0-1.21-.05-1.83-.05H868.33c-1.62 0-3.22.07-4.83.13l96.9 284.11 92.38-284.19z"/><path d="M908.14 711.56h97.69v42.5h-97.69zm-36.7-154.99h180.41v42.5H871.44zm0 77.5h180.41v42.5H871.44z"/><path fill="#FFF" d="m799.47 380.17-35 44.56 40.49 1.76-12.32 45.77 45.77-8.8 8.8 36.97 58.1-49.88zm320.25 0 35 44.56-40.49 1.76 12.32 45.77-45.77-8.8-8.81 36.97-58.09-49.88z"/><path fill="#FFD829" d="M959.64 594.91a69.75 69.75 0 0 1-69.74-69.74v-76.03h139.49v76.03a69.75 69.75 0 0 1-69.75 69.74z"/><path fill="#FFD829" d="M784.95 259.3c2.33-.01 6.03-.1 8.3.14 20.82-73.14 85.71-125.56 165.57-125.92 79.86-.35 147.47 52.77 168.93 125.72a60.86 60.86 0 1 1-7.42 119.52c-26.9 61.73-88.31 105-159.97 105.32-71.66.31-133.45-42.42-160.9-103.9a60.86 60.86 0 0 1-75.96-58.7c-.14-33.62 27.84-62.03 61.45-62.18z"/><path d="M959.6 486.58a177.94 177.94 0 0 1-161.56-103.5c-4.4.97-8.9 1.47-13.4 1.49h-.29a62.93 62.93 0 0 1-44.59-18.36 62.95 62.95 0 0 1-18.75-44.72c-.08-16.94 6.6-33.06 18.78-45.4 12.2-12.37 28.24-19.22 45.15-19.3h1.33c1.6-.02 3.47-.04 5.14.02 22.24-74.98 89.26-125.44 167.4-125.79a176.08 176.08 0 0 1 107.88 35.88 179.16 179.16 0 0 1 62.86 89.64 59.6 59.6 0 0 1 5.1-.23h.27a63.43 63.43 0 0 1 63.36 63.08 63.44 63.44 0 0 1-76.5 62.27 177.93 177.93 0 0 1-161.4 104.92h-.79zM800.9 377.23l.85 1.93a172.96 172.96 0 0 0 157.84 102.42h.76a172.93 172.93 0 0 0 157.69-103.81l.84-1.93 2.05.5a58.43 58.43 0 0 0 72.35-56.93 58.43 58.43 0 0 0-58.36-58.1h-.26c-2.14 0-4.3.14-6.62.41l-2.1.25-.59-2.02a174.06 174.06 0 0 0-61.68-89.06 171.35 171.35 0 0 0-104.84-34.86c-76.57.33-142.14 50.2-163.18 124.1l-.58 2.02-2.1-.23c-1.71-.18-4.45-.15-6.65-.13l-1.36.01c-15.57.07-30.35 6.39-41.61 17.8-11.26 11.4-17.42 26.27-17.35 41.87a57.98 57.98 0 0 0 17.28 41.19 57.98 57.98 0 0 0 41.07 16.91h.27c4.78-.02 9.57-.63 14.23-1.82l2.04-.52z"/><path fill="#FFD829" d="m1165.68 303.43-37.14 40.74"/><path d="M1128.54 346.67a2.5 2.5 0 0 1-1.85-4.18l37.15-40.74a2.5 2.5 0 0 1 3.69 3.37l-37.15 40.74a2.5 2.5 0 0 1-1.85.81z"/><path fill="#FFD829" d="m760.74 305.21 37.5 40.41"/><path d="M798.24 348.12a2.5 2.5 0 0 1-1.83-.8l-37.5-40.4a2.5 2.5 0 0 1 3.66-3.41l37.5 40.41a2.5 2.5 0 0 1-1.83 4.2zm219.1-18.87a22.1 22.1 0 1 0 44.2-.2 22.1 22.1 0 0 0-44.2.2z"/><path d="M988.75 334.75a2.5 2.5 0 0 1-2.06-3.9 58.53 58.53 0 0 1 48.13-25.65h.26a58.51 58.51 0 0 1 48.1 25.22 2.5 2.5 0 0 1-4.11 2.85 53.52 53.52 0 0 0-44-23.07h-.22a53.54 53.54 0 0 0-44.03 23.45 2.5 2.5 0 0 1-2.07 1.1zm-122.01-4.79a22.1 22.1 0 1 0 44.21-.2 22.1 22.1 0 0 0-44.2.2z"/><path d="M837.82 335.42a2.5 2.5 0 0 1-2.07-3.9 58.51 58.51 0 0 1 48.14-25.65h.26a58.52 58.52 0 0 1 48.1 25.21 2.5 2.5 0 1 1-4.11 2.85 53.52 53.52 0 0 0-44-23.06h-.23a53.52 53.52 0 0 0-44.02 23.45 2.5 2.5 0 0 1-2.07 1.1z"/><path fill="#41E847" d="m958.44 327.61.15 33.67"/><path d="M958.59 363.78a2.5 2.5 0 0 1-2.5-2.49l-.15-33.67a2.5 2.5 0 0 1 2.49-2.51h.01a2.5 2.5 0 0 1 2.5 2.49l.15 33.67a2.5 2.5 0 0 1-2.49 2.51h-.01z"/><path fill="#FFF" d="m942.7 403.79-28.96-18.99-12.08 18.43-.07.11a17.31 17.31 0 1 0 28.96 18.99l.06-.11 12.1-18.43z"/><path d="M959.49 408.07a61.89 61.89 0 0 1-53.63-31.12 2.5 2.5 0 1 1 4.35-2.48 56.88 56.88 0 0 0 49.28 28.6h.25a56.76 56.76 0 0 0 49.7-29.81 2.5 2.5 0 1 1 4.4 2.38 61.76 61.76 0 0 1-54.08 32.43h-.27zm69.94 60.63h5v45.1h-5zm-144.56-1.57h5v46.65h-5z"/><path fill="#FFF" d="m1030.15 210.61 19.4 53.32h87.05c-21.44-77.7-92.61-134.75-177.12-134.75s-155.69 57.06-177.12 134.75h228.87l18.92-53.32z"/><circle cx="873.18" cy="397.44" r="6.6"/><path d="M851.73 656.87a2.5 2.5 0 0 1 .8 2.91l-18.82 47.05 126.94 95.59 123.67-95.57-18.82-47.07a2.5 2.5 0 0 1 .8-2.9l64.89-50.03-77.67-92.95-.74-.02-92.37 284.2-96.9-284.12h-.12l-76.57 92.88 64.91 50.03z"/><path d="M1150.34 513.83h-90.36l76.71 91.8a2.5 2.5 0 0 1-.4 3.6l-65.45 50.45 18.83 47.07a2.5 2.5 0 0 1-.8 2.9L962.91 807v65.75a2.5 2.5 0 0 1-5 0v-66.13l-128.74-96.94a2.5 2.5 0 0 1-.81-2.93l18.82-47.06-65.46-50.46a2.5 2.5 0 0 1-.4-3.57l75.65-91.76c-.55-.04-1.19-.06-1.92-.06h-88.39c-53.86 0-97.93 44.07-97.93 97.94v261.9h68.12v2.65h445.58v-2.65h65.84v-261.9c0-53.87-44.07-97.94-97.93-97.94zM786.89 873.67a2.5 2.5 0 1 1-5 0V695.12a2.5 2.5 0 1 1 5 0v178.55zm352.41 0a2.5 2.5 0 1 1-5 0V695.12a2.5 2.5 0 1 1 5 0v178.55z"/><path fill="#FFD829" d="m962.03 803.47.2.19a2.49 2.49 0 0 0-.2-.19zm.6.78zm-.25-.41zm.42.86.07.24a2.65 2.65 0 0 0-.06-.24zm-.57-1.05.15.19-.15-.19zm.51.82z"/><path fill="#FFF" d="M1250.47 878.66H664.9V1.56h585.58v877.1zm-580.58-5h575.58V6.56H669.9v867.1z"/><path fill="#FFF" d="M1250.47 88.4H664.9V1.56h585.58V88.4zm-580.58-5h575.58V6.56H669.9V83.4z"/><path fill="#FFF" d="M722.04 72.59c-14.92 0-27.07-12.14-27.07-27.07s12.15-27.06 27.07-27.06S749.1 30.6 749.1 45.52 736.96 72.6 722.04 72.6zm0-49.13a22.09 22.09 0 0 0-22.07 22.06c0 12.17 9.9 22.07 22.07 22.07s22.06-9.9 22.06-22.07c0-12.16-9.9-22.06-22.06-22.06z"/><path d="M785.05 72.59c-14.93 0-27.07-12.14-27.07-27.07s12.14-27.06 27.07-27.06c14.92 0 27.06 12.14 27.06 27.06S799.97 72.6 785.05 72.6zm0-49.13a22.09 22.09 0 0 0-22.07 22.06c0 12.17 9.9 22.07 22.07 22.07s22.06-9.9 22.06-22.07a22.1 22.1 0 0 0-22.06-22.06z"/><path fill="#FFF" d="M846.58 72.59c-14.92 0-27.06-12.14-27.06-27.07s12.14-27.06 27.06-27.06c14.93 0 27.07 12.14 27.07 27.06S861.5 72.6 846.58 72.6zm0-49.13a22.09 22.09 0 0 0-22.06 22.06c0 12.17 9.9 22.07 22.06 22.07s22.07-9.9 22.07-22.07a22.1 22.1 0 0 0-22.07-22.06zm664.95 937.04 235.03.6-.23 89.16-235.03-.58z"/><path d="M1599.61 1021.1c1.21 0 2.32-.15 3.33-.46a8.1 8.1 0 0 0 2.59-1.31 6.35 6.35 0 0 0 1.68-1.97c.4-.74.6-1.56.6-2.43a5.2 5.2 0 0 0-.67-2.77 4.96 4.96 0 0 0-1.9-1.78c-.8-.44-1.77-.75-2.9-.94s-2.37-.28-3.69-.28h-3.08l.01-3.95 9.27-11.27-13.91-.03.01-6.05 22.44.06-.02 5-9.7 11.03h1.26c1.29 0 2.53.23 3.74.67a9.25 9.25 0 0 1 5.46 5.3c.56 1.31.84 2.84.84 4.56 0 2.09-.44 3.92-1.3 5.5a12.49 12.49 0 0 1-3.43 3.97 14.6 14.6 0 0 1-4.87 2.4c-1.83.53-3.72.8-5.66.79-1.65 0-3.3-.15-4.95-.45-1.65-.3-3.24-.76-4.78-1.39l1.94-5.93c.33.18.78.37 1.34.55.57.19 1.21.37 1.93.56.71.18 1.44.33 2.2.44.74.12 1.49.17 2.22.17zm24.79 1.7c0-1.28.41-2.3 1.22-3.04a4.5 4.5 0 0 1 3.2-1.12c1.39 0 2.48.38 3.29 1.13a4 4 0 0 1 1.2 3.06c0 1.28-.41 2.3-1.22 3.07-.8.77-1.9 1.15-3.3 1.15-1.32 0-2.38-.4-3.19-1.16a4.1 4.1 0 0 1-1.2-3.09zm16.48-15.62c.01-3.34.37-6.26 1.07-8.77.7-2.5 1.7-4.59 2.97-6.23a12.22 12.22 0 0 1 4.56-3.7 13.75 13.75 0 0 1 5.91-1.22c4.64 0 8.2 1.64 10.7 4.89 2.49 3.25 3.73 8.28 3.71 15.1 0 3.37-.36 6.31-1.07 8.82-.7 2.51-1.7 4.6-2.97 6.26s-2.8 2.91-4.59 3.73a13.97 13.97 0 0 1-5.94 1.22c-4.67 0-8.23-1.73-10.69-5.16-2.45-3.44-3.67-8.42-3.66-14.94zm7.15.02a45.98 45.98 0 0 0 .1 3.07l13.34-12.22c-1.09-3.16-3.14-4.74-6.15-4.75-2.33 0-4.12 1.12-5.38 3.37-1.26 2.25-1.9 5.76-1.91 10.53zm14.62.03a53.03 53.03 0 0 0-.1-3.24l-13.39 12.23c1.12 3.34 3.17 5 6.15 5.02 2.33 0 4.13-1.11 5.4-3.34 1.29-2.24 1.93-5.8 1.94-10.67zm159.58-500.39-80.25-.2c-3.98-.01-5.52.52-5.33 1.5-3.95-.42-7.94-.68-11.98-.75l-96.2 283.96-93.08-284.36c-3.82.14-7.6.44-11.35.9.54-1.17-.9-1.8-5.23-1.82l-80.25-.2c-53.87-.13-98.05 43.83-98.18 97.69l-.69 271.16 68.13.17 33.93.1a2.49 2.49 0 0 1-.75-1.8l.45-178.54a2.5 2.5 0 0 1 5 .01L1446 873.2c0 .7-.3 1.33-.77 1.79l338.56.95 35.45.1a2.48 2.48 0 0 1-.88-1.9l.45-178.55a2.5 2.5 0 0 1 5 .01l-.45 178.55c0 .76-.35 1.43-.88 1.9l96.76.23.68-271.27c.14-53.87-43.82-98.05-97.69-98.18z"/><path fill="#FFF" d="M1724.67 507.4c-.61-.02-1.21-.06-1.82-.06l-182.63-.46c-1.62 0-3.22.06-4.83.11l95.38 289.98 93.9-289.58z"/><path fill="#FFF" d="m1633.93 543.9-33.02 56.69-88.27-80.76 46.35-54.02z"/><path d="m1601.51 604.53-90.55-82.86 3.37-3.69 85.98 78.68 31.45-54.02 4.33 2.52z"/><path fill="#FFF" d="m1629.82 543.89 32.74 56.86 88.67-80.32-46.08-54.25z"/><path d="m1661.94 604.68-34.28-59.54 4.33-2.5 31.19 54.17 86.37-78.23 3.35 3.7z"/><circle cx="1550.21" cy="389.2" r="6.6"/><path fill="#FFD829" d="m1636.7 543.9-7.45-.01a66.02 66.02 0 0 1-65.86-66.19l-1.44-45.12 139.49.36 1.45 45.11a66.02 66.02 0 0 1-66.19 65.86z"/><path d="M1636.87 546.4h-.18l-7.45-.01a68.6 68.6 0 0 1-68.35-68.7l-1.53-47.61 144.5.36 1.52 47.53a68.11 68.11 0 0 1-20.19 48.49 68.07 68.07 0 0 1-48.32 19.94zm-72.34-111.3 1.36 42.52c-.09 35.11 28.34 63.68 63.36 63.77l7.46.02h.16a63.1 63.1 0 0 0 44.8-18.5 63.1 63.1 0 0 0 18.71-44.86l-1.36-42.62-134.5-.34z"/><path fill="#FFD829" d="M1457.48 242.48c2.33 0 6.03-.1 8.3.16 21-73.09 86.03-125.35 165.89-125.5s147.33 53.14 168.61 126.14a60.86 60.86 0 1 1-7.72 119.5c-27.05 61.66-88.57 104.79-160.23 104.92-71.66.14-133.34-42.76-160.64-104.31a60.86 60.86 0 0 1-75.81-58.9c-.07-33.6 28-61.95 61.6-62.01z"/><path d="M1632 470.2a177.95 177.95 0 0 1-161.74-103.9c-4.4.95-8.9 1.44-13.4 1.45h-.13a62.94 62.94 0 0 1-44.71-18.48 62.95 62.95 0 0 1-18.64-44.77c-.03-16.93 6.68-33.04 18.9-45.35 12.23-12.33 28.28-19.14 45.2-19.17l1.3-.01c1.61-.01 3.49-.03 5.16.04 22.43-74.93 89.58-125.22 167.72-125.37h.35c39.18 0 76.32 12.5 107.44 36.15a179.17 179.17 0 0 1 62.64 89.8c1.74-.14 3.44-.22 5.09-.22h.12a63.44 63.44 0 0 1 63.36 63.24 63.44 63.44 0 0 1-76.65 62.08 177.94 177.94 0 0 1-161.68 104.51h-.33zm-158.88-109.75.86 1.93A172.96 172.96 0 0 0 1632 465.2h.32a172.94 172.94 0 0 0 157.95-103.42l.85-1.93 2.04.51a58.8 58.8 0 0 0 14.14 1.73h.1a58.43 58.43 0 0 0 58.26-58.47 58.43 58.43 0 0 0-58.36-58.25h-.11c-2.14 0-4.3.13-6.62.4l-2.1.24-.59-2.03a174.07 174.07 0 0 0-61.45-89.21A171.18 171.18 0 0 0 1632 119.64h-.34c-76.56.15-142.27 49.85-163.49 123.69l-.58 2.02-2.1-.23a67.2 67.2 0 0 0-6.68-.15l-1.33.01c-15.58.03-30.37 6.31-41.66 17.7-11.28 11.36-17.48 26.21-17.45 41.81a57.98 57.98 0 0 0 17.17 41.24 57.97 57.97 0 0 0 41.18 17.02h.12c4.78-.01 9.57-.6 14.23-1.78l2.04-.52z"/><path fill="#FFD829" d="m1838.1 287.57-37.25 40.65"/><path d="M1800.85 330.72a2.5 2.5 0 0 1-1.84-4.19l37.25-40.65a2.5 2.5 0 1 1 3.68 3.38l-37.25 40.65a2.5 2.5 0 0 1-1.84.8z"/><path fill="#FFD829" d="m1433.15 288.33 37.4 40.5"/><path d="M1470.55 331.33a2.5 2.5 0 0 1-1.83-.8l-37.4-40.5a2.5 2.5 0 0 1 3.67-3.4l37.4 40.5a2.5 2.5 0 0 1-1.84 4.2zM1685 313a22.1 22.1 0 1 0 44.22-.08 22.1 22.1 0 0 0-44.21.08z"/><path d="M1661.1 318.44a2.5 2.5 0 0 1-2.07-3.91 58.54 58.54 0 0 1 48.2-25.52h.11a58.51 58.51 0 0 1 48.19 25.34 2.5 2.5 0 0 1-4.12 2.84 53.51 53.51 0 0 0-44.07-23.18h-.1a53.53 53.53 0 0 0-44.08 23.34 2.5 2.5 0 0 1-2.07 1.1zm-126.69-5.11a22.1 22.1 0 1 0 44.21-.08 22.1 22.1 0 0 0-44.2.08z"/><path d="M1510.16 318.73a2.5 2.5 0 0 1-2.06-3.91 58.52 58.52 0 0 1 48.2-25.52h.11a58.52 58.52 0 0 1 48.19 25.33 2.5 2.5 0 0 1-4.12 2.84 53.52 53.52 0 0 0-44.07-23.17h-.1a53.51 53.51 0 0 0-44.08 23.34 2.5 2.5 0 0 1-2.07 1.09z"/><path fill="#41E847" d="m1630.8 311.23.06 33.67"/><path d="M1630.86 347.4a2.5 2.5 0 0 1-2.5-2.5l-.06-33.67a2.5 2.5 0 1 1 5-.01l.06 33.67a2.5 2.5 0 0 1-2.5 2.5z"/><circle cx="1549.94" cy="389.2" r="6.6"/><path d="M1631.82 385.75h-.54c-23.43-.21-31.04-9.86-31.35-10.27a2.5 2.5 0 1 1 3.98-3.03c.05.06 6.78 8.2 27.72 8.3 20.91-.02 27.67-8.1 27.74-8.18a2.51 2.51 0 0 1 3.5-.4 2.48 2.48 0 0 1 .45 3.47c-.32.41-7.98 10.02-31.42 10.1h-.08zm175.36-142.88c-2.33 0-4.64.15-6.9.41a175.72 175.72 0 0 0-98.89-111.85 174.67 174.67 0 0 0-69.73-14.29c-4.95.01-9.84.22-14.68.63-73.07 6.09-131.5 56.31-151.2 124.87-2.27-.25-5.97-.17-8.3-.16-1.03 0-2.05.03-3.07.08a181.58 181.58 0 0 0 72.98 15.42 181.74 181.74 0 0 0 135-59.33 169.39 169.39 0 0 0 119.46 49.5c12.91.04 25.49-1.38 37.58-4.07a61.2 61.2 0 0 0-12.25-1.21z"/><path fill="#FFD829" d="m1631.41 543.89-.63 253.08"/><path d="m1628.23 796.92.59-253.07 5 .02-.59 253.07z"/><path fill="#FFF" d="M1922.01 879.4h-2.5l-583.08-1.48v-2.5l2.2-874.6 2.5.01 583.09 1.47v2.5l-2.2 874.6zm-580.57-6.47 575.58 1.46 2.19-867.1-575.58-1.45-2.19 867.1z"/><path fill="#FFF" d="M1924 89.6h-2.5l-583.08-1.48.22-87.3 2.5.01 583.08 1.47-.22 87.3zm-580.57-6.47 575.58 1.46.2-77.3-575.58-1.45-.2 77.3z"/><path fill="#FFF" d="M1395.15 72.59c-14.92 0-27.06-12.14-27.06-27.07s12.14-27.06 27.06-27.06 27.07 12.14 27.07 27.06-12.14 27.07-27.07 27.07zm0-49.13a22.09 22.09 0 0 0-22.06 22.06 22.1 22.1 0 0 0 22.06 22.07 22.1 22.1 0 0 0 22.07-22.07 22.1 22.1 0 0 0-22.07-22.06zm63.01 49.13c-14.92 0-27.06-12.14-27.06-27.07s12.14-27.06 27.06-27.06 27.06 12.14 27.06 27.06-12.14 27.07-27.06 27.07zm0-49.13a22.09 22.09 0 0 0-22.06 22.06c0 12.17 9.9 22.07 22.06 22.07s22.06-9.9 22.06-22.07c0-12.16-9.9-22.06-22.06-22.06z"/><path d="M1519.7 72.59c-14.93 0-27.07-12.14-27.07-27.07s12.14-27.06 27.06-27.06 27.07 12.14 27.07 27.06-12.14 27.07-27.07 27.07zm0-49.13a22.09 22.09 0 0 0-22.07 22.06 22.1 22.1 0 0 0 22.06 22.07 22.1 22.1 0 0 0 22.07-22.07 22.1 22.1 0 0 0-22.07-22.06z"/><path fill="#FFF" d="M1195.25 365.98a28.02 28.02 0 0 0-14.25-16.22 28.02 28.02 0 0 0-21.54-1.39 7.96 7.96 0 1 0 5.13 15.08 12.29 12.29 0 0 1 7.91 23.24c-3.1 1.06-6.44.85-9.38-.6a12.2 12.2 0 0 1-6.2-7.06c-9.21 3.06-15.59 3.6-15.59 3.6l.51 1.53a28.03 28.03 0 0 0 18.15 17.8 28.24 28.24 0 0 0 35.26-35.97z"/></svg>