<svg xmlns="http://www.w3.org/2000/svg" viewBox="0 0 1080 1080" xml:space="preserve"><path d="M358.07 366.66h-60.03l11.84 1.44c35.9 4.7 63.86 35.59 63.86 72.72v49.13h63.66V446c0-43.64-35.7-79.34-79.33-79.34z"/><path fill="#FFD829" d="M251.36 408.07h-5.33a45.19 45.19 0 0 1-45.18-45.19v-28.5h95.7v28.5a45.19 45.19 0 0 1-45.2 45.19z"/><path d="M251.36 410.07h-5.33a47.24 47.24 0 0 1-47.18-47.19v-30.5h99.7v30.5a47.24 47.24 0 0 1-47.2 47.19zm-48.51-73.69v26.5a43.24 43.24 0 0 0 43.18 43.19h5.33a43.24 43.24 0 0 0 43.18-43.19v-26.5h-91.7z"/><path fill="#FFD829" d="M118.49 240.12a40.2 40.2 0 0 1 4.7-.65c4.48-51.98 42.7-96.9 96.45-107.55s106.2 16.31 130.16 62.65a41.75 41.75 0 1 1 10.58 81.47c-10.06 45.08-45.79 82.23-94 91.78-48.23 9.56-95.42-11.17-121.92-49a41.75 41.75 0 1 1-25.97-78.7z"/><path d="M243.02 372.12c-38.86 0-76-18.57-99.24-50.8a43.88 43.88 0 0 1-8.68 2.67c-11.46 2.27-23.12-.06-32.83-6.56s-16.32-16.4-18.59-27.86a43.46 43.46 0 0 1 6.56-32.83 43.46 43.46 0 0 1 31.1-19.1 123.2 123.2 0 0 1 30.1-68.77 121.13 121.13 0 0 1 67.8-38.91 121.12 121.12 0 0 1 77.53 10.12 123.2 123.2 0 0 1 54.04 52.1 43.8 43.8 0 0 1 54.62 33.65 43.8 43.8 0 0 1-43.46 52.26 122.35 122.35 0 0 1-118.95 94.03zm-97.89-55.83.97 1.38a118.36 118.36 0 0 0 119.89 48.2 118.35 118.35 0 0 0 92.45-90.27l.36-1.64 1.69.08a39.8 39.8 0 0 0 41.02-47.43 39.8 39.8 0 0 0-51.1-30.14l-1.6.52-.78-1.5A119.12 119.12 0 0 0 295 143.67a117.16 117.16 0 0 0-74.98-9.79 117.16 117.16 0 0 0-65.59 37.64 119.13 119.13 0 0 0-29.26 68.12l-.15 1.68-1.68.14a39.5 39.5 0 0 0-29.78 17.5 39.5 39.5 0 0 0-5.96 29.83c2.06 10.42 8.06 19.41 16.88 25.32s19.42 8.02 29.84 5.95c3.2-.63 6.32-1.66 9.28-3.05l1.52-.72z"/><path fill="#FFD829" d="m381.11 219.39-19.71 32.28"/><path d="M361.4 253.67a2 2 0 0 1-1.7-3.04l19.7-32.28a2 2 0 0 1 3.42 2.08l-19.71 32.28a2 2 0 0 1-1.7.96z"/><path fill="#FFD829" d="m108.6 273.38 30.53 22.32"/><path d="M139.13 297.7a2 2 0 0 1-1.18-.38l-30.53-22.33a2 2 0 1 1 2.36-3.23l30.53 22.33a2 2 0 0 1-1.18 3.62zm49.55-25.07a17.28 17.28 0 1 0 33.9-6.72 17.28 17.28 0 0 0-33.9 6.72z"/><path d="M161.86 282.17a2 2 0 0 1-1.84-2.79 45.8 45.8 0 0 1 74.09-14.67 2 2 0 1 1-2.8 2.86 41.8 41.8 0 0 0-67.61 13.4 2 2 0 0 1-1.84 1.2zm124.74-30.21a17.28 17.28 0 1 0 33.91-6.71 17.28 17.28 0 0 0-33.9 6.71z"/><path d="M259.78 261.5a2 2 0 0 1-1.83-2.78 45.8 45.8 0 0 1 74.08-14.68 2 2 0 1 1-2.8 2.86 41.8 41.8 0 0 0-67.61 13.4 2 2 0 0 1-1.84 1.2z"/><circle fill="#FFF" cx="185.06" cy="171.39" r="4.5"/><circle fill="#FFF" cx="169.67" cy="181.65" r="4.5"/><circle fill="#FFF" cx="185.34" cy="186.33" r="4.5"/><path fill="#FFF" d="M274.45 284a22.03 22.03 0 0 1-42.93 9.9"/><circle cx="204.22" cy="320.37" r="4.53"/><path d="m200.85 365.9-56.9.17-.05.12h-3.02c-47.4 0-79.33 31.94-79.33 79.33v45.02h61.28V438.7c0-.92.04-1.84.08-2.75l77.94-70.05zm174 73.86-72.2-69.88 77.78 3.63z"/><path d="m376.5 444.13-79.04-76.49 85.13 3.97-6.1 72.52zm-68.65-72 65.36 63.26 5.05-59.98-70.41-3.28zM303 492.1l-13.75-.6 23.1-50.13 11.69 4.97z"/><circle fill="#FFF" cx="335.06" cy="400.77" r="61.57"/><path fill="#FFD829" d="m359.1 367.2 1.1 19.84 16.98 10.34a9.08 9.08 0 0 1-1.44 16.23l-18.53 7.18-4.58 19.34a9.08 9.08 0 0 1-15.88 3.64l-12.56-15.4-19.8 1.62a9.08 9.08 0 0 1-8.38-13.97l10.77-16.7-7.66-18.34a9.08 9.08 0 0 1 10.7-12.29l19.21 5.08 15.07-12.95a9.08 9.08 0 0 1 15 6.38z"/><path fill="#FFF" d="M497.3 494.1H1.65V1.24H497.3V494.1zm-491.65-4H493.3V5.24H5.65V490.1z"/><path fill="#FFF" d="M4.43 79.63h491.29v4H4.43z"/><path d="M397.9 54.65h7.12V34.3l-6.14 4.7-2.8-3.72 10.62-8.1h4.1v27.46h6.98v5.13H397.9v-5.13zm27.61 2.05c0-1.1.34-1.95 1.03-2.59a3.8 3.8 0 0 1 2.7-.95c1.18 0 2.1.31 2.79.95.68.64 1.02 1.5 1.02 2.58 0 1.1-.34 1.96-1.02 2.61-.68.65-1.61.98-2.8.98a3.74 3.74 0 0 1-2.7-.98 3.43 3.43 0 0 1-1.02-2.6zm13.92-13.28c0-2.82.3-5.3.89-7.42.6-2.13 1.43-3.89 2.5-5.29a10.39 10.39 0 0 1 3.86-3.14 11.7 11.7 0 0 1 5-1.05c3.92 0 6.94 1.38 9.06 4.12 2.12 2.75 3.18 7.01 3.18 12.78 0 2.86-.3 5.35-.89 7.48-.59 2.12-1.42 3.9-2.5 5.3s-2.37 2.47-3.88 3.17c-1.5.7-3.18 1.05-5.02 1.05-3.96 0-6.98-1.45-9.07-4.35s-3.13-7.12-3.13-12.65zm6.05 0a37.25 37.25 0 0 0 .1 2.61l11.26-10.38c-.92-2.67-2.66-4-5.21-4-1.98 0-3.5.95-4.55 2.86-1.06 1.9-1.6 4.88-1.6 8.91zm12.39 0a42.73 42.73 0 0 0-.1-2.74l-11.3 10.38c.95 2.83 2.69 4.24 5.21 4.24 1.97 0 3.5-.95 4.57-2.84 1.08-1.9 1.62-4.9 1.62-9.04zM45.32 64.72c-11.74 0-21.29-9.54-21.29-21.28s9.55-21.29 21.29-21.29 21.29 9.55 21.29 21.29-9.55 21.28-21.29 21.28zm0-38.57c-9.53 0-17.29 7.76-17.29 17.29s7.76 17.29 17.29 17.29 17.29-7.76 17.29-17.3-7.76-17.28-17.29-17.28z"/><path fill="#FFF" d="M94.79 64.72c-11.74 0-21.29-9.54-21.29-21.28s9.55-21.29 21.29-21.29 21.28 9.55 21.28 21.29-9.54 21.28-21.28 21.28zm0-38.57c-9.53 0-17.29 7.76-17.29 17.29s7.76 17.29 17.29 17.29 17.28-7.76 17.28-17.3-7.75-17.28-17.28-17.28zm48.31 38.57a21.3 21.3 0 0 1 0-42.57c11.74 0 21.29 9.55 21.29 21.29s-9.55 21.28-21.29 21.28zm0-38.57c-9.53 0-17.28 7.76-17.28 17.29s7.75 17.29 17.28 17.29 17.29-7.76 17.29-17.3-7.76-17.28-17.29-17.28zm719.93 464.08 31.72-97.59c-.42 0-.83-.03-1.25-.03H768.2c-1.1 0-2.2.05-3.31.09l33.27 97.53h64.86z"/><path d="M770.35 421.93h123.77v29.16H770.35z"/><path fill="#FFF" d="m720.97 300.92-24.01 30.56 27.78 1.21-8.45 31.4 31.4-6.04 6.04 25.37 39.85-34.22zm219.7 0 24.01 30.56-27.78 1.21 8.46 31.4-31.4-6.04-6.04 25.37-39.86-34.22z"/><path fill="#FFD829" d="M833.52 448.24h-5.33a45.19 45.19 0 0 1-45.18-45.2v-54.8h95.7v54.8a45.19 45.19 0 0 1-45.2 45.2z"/><path fill="#FFD829" d="M711.01 218c1.6-.01 4.14-.08 5.7.1 14.28-50.18 58.8-86.15 113.58-86.39 54.79-.24 101.17 36.2 115.9 86.24a41.75 41.75 0 1 1-5.09 82c-18.46 42.34-60.6 72.03-109.75 72.25-49.16.22-91.55-29.1-110.38-71.28a41.75 41.75 0 0 1-52.11-40.27c-.1-23.06 19.1-42.55 42.15-42.65z"/><path d="M830.82 374.2c-47.66 0-91-27.75-111-70.96a43.4 43.4 0 0 1-9.02.98h-.2a43.45 43.45 0 0 1-30.8-12.68 43.47 43.47 0 0 1-12.94-30.88 44.16 44.16 0 0 1 12.97-31.35A43.89 43.89 0 0 1 711 216l.91-.01a81.6 81.6 0 0 1 3.31 0c15.36-51.44 61.4-86.04 115.05-86.28a121.23 121.23 0 0 1 74.19 24.67 123.2 123.2 0 0 1 43.15 61.42 42.3 42.3 0 0 1 3.29-.14h.2a43.8 43.8 0 0 1 43.74 43.56 43.8 43.8 0 0 1-52.6 43.04 122.36 122.36 0 0 1-110.9 71.94h-.53zm-108.71-75.63.69 1.53a118.37 118.37 0 0 0 108.02 70.1h.52c46.84-.2 89.2-28.1 107.92-71.05l.67-1.54 1.64.4a39.8 39.8 0 0 0 49.28-38.77 39.8 39.8 0 0 0-39.75-39.58h-.18c-1.44 0-2.95.1-4.5.28l-1.68.2-.48-1.62a119.11 119.11 0 0 0-42.2-60.95 116.93 116.93 0 0 0-71.76-23.86c-52.4.23-97.28 34.36-111.67 84.93l-.47 1.62-1.67-.18c-1.16-.13-3.03-.1-4.53-.1l-.94.02a39.92 39.92 0 0 0-28.35 12.12 40.18 40.18 0 0 0-11.81 28.52 39.5 39.5 0 0 0 11.76 28.06 39.49 39.49 0 0 0 27.98 11.52h.19c3.26-.01 6.52-.43 9.69-1.24l1.63-.42z"/><path fill="#FFD829" d="m972.2 248.27-25.48 27.95"/><path d="M946.72 278.22a2 2 0 0 1-1.48-3.35l25.49-27.94a2 2 0 0 1 2.95 2.7l-25.48 27.94a2 2 0 0 1-1.48.65z"/><path fill="#FFD829" d="m694.4 249.49 25.73 27.73"/><path d="M720.13 279.22a2 2 0 0 1-1.47-.64l-25.73-27.73a2 2 0 1 1 2.94-2.72l25.73 27.73a2 2 0 0 1-1.47 3.36zm146.3-13.23a15.16 15.16 0 1 0 30.33-.14 15.16 15.16 0 0 0-30.33.13z"/><path d="M850.82 270.04a2 2 0 0 1-1.65-3.13 40.44 40.44 0 0 1 33.26-17.7h.18c13.25 0 25.66 6.5 33.23 17.42a2 2 0 1 1-3.29 2.27 36.42 36.42 0 0 0-29.94-15.7h-.16c-12 .06-23.2 6.02-29.97 15.97a2 2 0 0 1-1.66.87zm-87.7-3.57a15.16 15.16 0 1 0 30.33-.13 15.16 15.16 0 0 0-30.33.13z"/><path d="M747.28 270.5a2 2 0 0 1-1.65-3.13 40.43 40.43 0 0 1 33.25-17.71h.18c13.26 0 25.67 6.5 33.24 17.42a2 2 0 1 1-3.3 2.28 36.44 36.44 0 0 0-29.94-15.7h-.16c-12 .05-23.2 6.02-29.96 15.96a2 2 0 0 1-1.66.88z"/><path fill="#41E847" d="m830.03 264.86.1 23.1"/><path d="M830.13 289.96a2 2 0 0 1-2-2l-.1-23.1a2 2 0 0 1 4-.02l.1 23.11a2 2 0 0 1-1.99 2z"/><path fill="#FFF" d="m819.23 317.12-19.87-13.02-8.29 12.64c0 .03-.03.05-.04.08a11.88 11.88 0 0 0 19.87 13.02l.04-.08 8.3-12.64z"/><path d="M830.75 320.34a42.75 42.75 0 0 1-37.03-21.49 2 2 0 1 1 3.47-1.99 38.74 38.74 0 0 0 33.56 19.48h.17a38.66 38.66 0 0 0 33.85-20.3 2 2 0 0 1 3.52 1.9 42.66 42.66 0 0 1-37.35 22.4h-.2zm47.9 41.31h4v30.94h-4zm-99.63-1.08h4v32.01h-4z"/><path fill="#FFF" d="m879.23 184.6 13.3 36.58h59.72c-14.7-53.3-63.53-92.45-121.5-92.45-57.99 0-106.81 39.15-121.52 92.45h157.02l12.98-36.58z"/><circle cx="771.54" cy="312.76" r="4.53"/><path d="M760.23 392.61h-61.76c-36.96 0-67.19 30.24-67.19 67.19v27.24h118.04l-37.3-28.76a2 2 0 0 1-.37-2.81l48.42-62.44"/><path d="m716.04 456.33 39.84 30.71h149.84l39.81-30.69-50.81-63.63-26.77 82.38H793l-27.95-81.96z"/><path d="m899.98 392.9 49.95 62.54a2 2 0 0 1-.35 2.84l-37.31 28.76h116.59V459.8c0-36.95-30.23-67.19-67.18-67.19h-61.7"/><path fill="#FFF" d="M996.9 290.72a21.68 21.68 0 0 0-11.03-12.55 21.68 21.68 0 0 0-16.67-1.07 6.16 6.16 0 1 0 3.97 11.66 9.5 9.5 0 1 1-5.93 12.06c-7.13 2.36-12.06 2.79-12.06 2.79l.4 1.18a21.68 21.68 0 0 0 14.03 13.76 21.85 21.85 0 0 0 27.28-27.83z"/><path fill="#FFF" d="M1077.9 491.3H582.25V-1.57h495.65V491.3zm-491.65-4h487.65V2.43H586.25V487.3z"/><path fill="#FFF" d="M584.76 76.83h491.6v4h-491.6zm44.31-16.03a21.3 21.3 0 0 1 0-42.57c11.73 0 21.28 9.54 21.28 21.28s-9.55 21.28-21.28 21.28zm0-38.58c-9.54 0-17.29 7.76-17.29 17.29s7.75 17.28 17.29 17.28a17.3 17.3 0 0 0 0-34.57z"/><path d="M678.53 60.8a21.3 21.3 0 0 1 0-42.57c11.74 0 21.29 9.54 21.29 21.28s-9.55 21.28-21.29 21.28zm0-38.58a17.3 17.3 0 1 0 17.29 17.29 17.3 17.3 0 0 0-17.29-17.29z"/><path fill="#FFF" d="M726.85 60.8a21.3 21.3 0 0 1 0-42.57c11.74 0 21.28 9.54 21.28 21.28s-9.54 21.28-21.28 21.28zm0-38.58c-9.53 0-17.29 7.76-17.29 17.29s7.76 17.28 17.29 17.28a17.3 17.3 0 0 0 0-34.57z"/><path d="M993.63 56.97h-20.77v-4.52c.37-.31.84-.72 1.4-1.23l1.88-1.75a70.5 70.5 0 0 0 4.5-4.56 105.3 105.3 0 0 0 2.77-3.22 22.8 22.8 0 0 0 1.95-2.72c.51-.85.9-1.7 1.14-2.52.25-.82.38-1.66.38-2.53a4.2 4.2 0 0 0-.42-1.82 4.97 4.97 0 0 0-1.17-1.56 5.8 5.8 0 0 0-1.79-1.07c-.7-.26-1.47-.4-2.3-.4a8.67 8.67 0 0 0-5.92 2.24l-2.42-4.28c1.3-.93 2.76-1.72 4.35-2.35 1.6-.64 3.44-.96 5.52-.96 1.34 0 2.62.19 3.84.56 1.23.37 2.32.93 3.26 1.65a8 8 0 0 1 3.1 6.5 13.58 13.58 0 0 1-1.05 5.33 16.5 16.5 0 0 1-1.4 2.63 44.95 44.95 0 0 1-4.1 5.38 71.69 71.69 0 0 1-4.27 4.45c-.7.65-1.33 1.2-1.89 1.63h13.4v5.12zm9.12-3.07c0-1.1.34-1.95 1.03-2.6a3.8 3.8 0 0 1 2.7-.95c1.18 0 2.1.32 2.79.96.68.63 1.02 1.5 1.02 2.58a3.4 3.4 0 0 1-1.02 2.6c-.68.66-1.61.99-2.8.99a3.74 3.74 0 0 1-2.7-.98 3.44 3.44 0 0 1-1.02-2.6zm13.92-13.28c0-2.82.3-5.3.9-7.42.58-2.13 1.42-3.9 2.5-5.29 1.07-1.4 2.35-2.44 3.85-3.14s3.16-1.05 5-1.05c3.93 0 6.95 1.37 9.07 4.12 2.11 2.75 3.17 7 3.17 12.78 0 2.86-.3 5.35-.88 7.48-.6 2.12-1.43 3.9-2.5 5.3s-2.37 2.47-3.88 3.17a11.9 11.9 0 0 1-5.03 1.05c-3.95 0-6.98-1.45-9.06-4.36s-3.14-7.11-3.14-12.64zm6.06 0a37.2 37.2 0 0 0 .09 2.61l11.27-10.38c-.93-2.67-2.67-4-5.22-4-1.97 0-3.49.95-4.55 2.86-1.06 1.9-1.6 4.88-1.6 8.91zm12.38 0a42.68 42.68 0 0 0-.1-2.74l-11.3 10.38c.95 2.82 2.69 4.24 5.21 4.24 1.97 0 3.5-.95 4.58-2.84 1.07-1.9 1.61-4.9 1.61-9.04z"/><path fill="#FFF" d="m564.26 1077.38 37.26-110.9c-.4 0-.78-.03-1.18-.03H482.02c-1.04 0-2.08.05-3.12.08l36.59 110.86h48.77z"/><path d="M739.18 1075.59v-48.48c0-36.96-30.23-67.19-67.19-67.19h-55.05c-1.97 0-3.07.2-3.48.56a89.9 89.9 0 0 0-8.4-.53l-38.85 115.64h172.97zm-225.81 0-38.15-115.58c-2.62.1-5.2.32-7.77.64-.24-.48-1.35-.73-3.61-.73h-55.06c-36.95 0-67.18 30.23-67.18 67.19v48.48h171.77z"/><path fill="#FFF" d="m541.5 985.15-22.55 38.95-60.69-55.25 31.7-37.14z"/><path d="m519.43 1027.25-62.52-56.92 2.7-2.96 58.85 53.58 21.31-36.8 3.46 2z"/><path fill="#FFF" d="m538.69 985.15 22.55 38.95 60.69-55.25-31.7-37.14z"/><path d="m560.75 1027.25-23.79-41.1 3.46-2 21.31 36.8 58.86-53.58 2.69 2.96z"/><circle cx="483.81" cy="879.17" r="4.53"/><path fill="#FFD829" d="M543.4 985.15h-5.1a45.3 45.3 0 0 1-45.3-45.29l-1.07-30.95h95.7l1.07 30.95a45.3 45.3 0 0 1-45.3 45.3z"/><path d="M543.4 987.15h-5.1a47.35 47.35 0 0 1-47.3-47.29l-1.14-32.95h99.7l1.14 32.88a47.36 47.36 0 0 1-47.3 47.36zM494 910.91l1 28.88a43.36 43.36 0 0 0 43.3 43.36h5.1a43.34 43.34 0 0 0 43.3-43.29l-1-28.95H494z"/><path fill="#FFD829" d="M419.94 778.68c1.6-.01 4.13-.08 5.69.1 14.28-50.18 58.8-86.15 113.58-86.39 54.79-.24 101.17 36.2 115.9 86.25a41.75 41.75 0 1 1-5.09 82c-18.46 42.33-60.59 72.02-109.75 72.24-49.16.22-91.55-29.1-110.38-71.28a41.75 41.75 0 0 1-52.11-40.27c-.1-23.06 19.1-42.55 42.16-42.65z"/><path d="M539.74 934.88c-47.65 0-91-27.75-110.99-70.96-2.97.64-6 .97-9.02.98h-.2a43.45 43.45 0 0 1-30.8-12.68 43.47 43.47 0 0 1-12.95-30.88 44.16 44.16 0 0 1 12.97-31.35 43.9 43.9 0 0 1 31.18-13.31l.92-.01c1.03-.01 2.22-.02 3.3 0 15.36-51.43 61.4-86.04 115.06-86.28a120.88 120.88 0 0 1 74.18 24.67 123.2 123.2 0 0 1 43.16 61.42c1.12-.09 2.22-.14 3.28-.14h.2a43.8 43.8 0 0 1 43.75 43.56 43.8 43.8 0 0 1-43.56 43.94h-.19c-2.97 0-5.94-.3-8.85-.9a122.36 122.36 0 0 1-110.9 71.94h-.54zm-108.7-75.63.68 1.53a118.37 118.37 0 0 0 108.02 70.1h.52c46.84-.2 89.2-28.1 107.92-71.05l.68-1.54 1.63.4a39.8 39.8 0 0 0 49.28-38.78 39.8 39.8 0 0 0-39.75-39.57h-.17c-1.44 0-2.96.1-4.51.28l-1.68.2-.48-1.62a119.11 119.11 0 0 0-42.2-60.95 117.14 117.14 0 0 0-71.22-23.86h-.54c-52.4.23-97.27 34.36-111.67 84.93l-.46 1.62-1.68-.18c-1.16-.13-3.03-.1-4.53-.1l-.93.02a39.93 39.93 0 0 0-28.35 12.12 40.18 40.18 0 0 0-11.82 28.52 39.5 39.5 0 0 0 11.77 28.06 39.49 39.49 0 0 0 27.98 11.52h.18a39.9 39.9 0 0 0 9.69-1.24l1.63-.41z"/><path fill="#FFD829" d="m681.13 808.95-25.49 27.95"/><path d="M655.64 838.9a2 2 0 0 1-1.47-3.35l25.48-27.94a2 2 0 0 1 2.95 2.7l-25.48 27.94a2 2 0 0 1-1.48.65z"/><path fill="#FFD829" d="m403.32 810.17 25.73 27.73"/><path d="M429.06 839.9a2 2 0 0 1-1.47-.64l-25.73-27.73a2 2 0 1 1 2.93-2.72l25.73 27.73a2 2 0 0 1-1.46 3.36zm147.09-13.24a15.16 15.16 0 1 0 30.33-.13 15.16 15.16 0 0 0-30.33.13z"/><path d="M559.75 830.72a2 2 0 0 1-1.65-3.13 40.44 40.44 0 0 1 33.25-17.7h.18a40.4 40.4 0 0 1 33.23 17.42 2 2 0 1 1-3.29 2.27 36.43 36.43 0 0 0-29.94-15.7h-.16c-12 .06-23.2 6.02-29.97 15.97a2 2 0 0 1-1.65.87zm-86.91-3.57a15.16 15.16 0 1 0 30.32-.13 15.16 15.16 0 0 0-30.32.13z"/><path d="M456.2 831.18a2 2 0 0 1-1.65-3.13 40.43 40.43 0 0 1 33.26-17.71h.18c13.25 0 25.66 6.5 33.23 17.42a2 2 0 1 1-3.29 2.28 36.43 36.43 0 0 0-29.94-15.7h-.16c-12 .05-23.2 6.02-29.97 15.96a2 2 0 0 1-1.66.88z"/><path fill="#41E847" d="m538.95 825.54.11 23.1"/><path d="M539.06 850.64a2 2 0 0 1-2-2l-.1-23.1a2 2 0 0 1 4-.02l.1 23.1a2 2 0 0 1-2 2.02z"/><circle cx="483.62" cy="879.17" r="4.53"/><path d="M539.78 876.94h-.37c-16.2-.1-21.53-6.8-21.75-7.1a2 2 0 1 1 3.18-2.43c.03.04 4.6 5.5 18.8 5.53 14.18-.04 18.76-5.5 18.8-5.55a2 2 0 0 1 2.8-.32c.86.67 1.03 1.9.36 2.77-.22.3-5.54 7-21.75 7.1h-.07zm120.06-98.6a42 42 0 0 0-4.74.3 120.55 120.55 0 0 0-68.03-76.57 119.81 119.81 0 0 0-47.86-9.68c-3.4.02-6.75.17-10.07.46-50.12 4.3-90.11 38.86-103.51 85.92-1.56-.16-4.1-.1-5.7-.1-.7.01-1.4.03-2.1.07a124.57 124.57 0 0 0 50.09 10.46 124.7 124.7 0 0 0 92.51-40.94A116.2 116.2 0 0 0 642.47 782c8.86 0 17.48-.99 25.77-2.86a41.74 41.74 0 0 0-8.4-.81zM537.78 985.15h4v92.23h-4z"/><path fill="#FFF" d="M788.21 1079.09H292.56V586.22h495.65v492.87zm-491.65-4h487.65V590.22H296.56v484.87z"/><path fill="#FFF" d="M293.79 664.61h491.6v4h-491.6zm44.31-16.03c-11.74 0-21.29-9.55-21.29-21.29S326.36 606 338.1 606s21.28 9.55 21.28 21.29-9.55 21.29-21.28 21.29zm0-38.58c-9.53 0-17.29 7.76-17.29 17.29s7.76 17.29 17.29 17.29 17.28-7.76 17.28-17.29S347.63 610 338.1 610zm49.46 38.58c-11.73 0-21.28-9.55-21.28-21.29S375.83 606 387.56 606s21.29 9.55 21.29 21.29-9.55 21.29-21.29 21.29zm0-38.58c-9.53 0-17.28 7.76-17.28 17.29s7.75 17.29 17.28 17.29 17.29-7.76 17.29-17.29S397.1 610 387.56 610z"/><path d="M435.88 648.58c-11.74 0-21.29-9.55-21.29-21.29S424.14 606 435.88 606s21.28 9.55 21.28 21.29-9.55 21.29-21.28 21.29zm0-38.58c-9.53 0-17.29 7.76-17.29 17.29s7.76 17.29 17.29 17.29 17.28-7.76 17.28-17.29S445.41 610 435.88 610zm255.98 30.28c1.02 0 1.96-.13 2.81-.4s1.58-.63 2.19-1.1 1.08-1.04 1.42-1.68c.34-.63.51-1.32.51-2.06 0-.93-.2-1.7-.58-2.34a4.2 4.2 0 0 0-1.6-1.5c-.69-.38-1.51-.64-2.47-.8s-2-.22-3.12-.22h-2.61v-3.35l7.82-9.55h-11.78v-5.12h19v4.23l-8.2 9.36h1.08c1.08 0 2.14.19 3.16.56a7.84 7.84 0 0 1 4.63 4.47 9.7 9.7 0 0 1 .73 3.86c0 1.77-.37 3.33-1.1 4.66a10.61 10.61 0 0 1-2.88 3.38c-1.2.91-2.57 1.6-4.13 2.04-1.55.45-3.15.68-4.8.68-1.39 0-2.78-.13-4.18-.37-1.4-.25-2.75-.64-4.05-1.17l1.63-5.03c.28.16.66.32 1.14.47s1.02.31 1.63.47a16.99 16.99 0 0 0 3.75.5zm21.92 1.39c0-1.08.35-1.94 1.03-2.58a3.8 3.8 0 0 1 2.7-.95c1.18 0 2.1.31 2.8.95.68.64 1.02 1.5 1.02 2.58 0 1.1-.35 1.96-1.03 2.61-.68.65-1.61.98-2.8.98a3.74 3.74 0 0 1-2.7-.98 3.43 3.43 0 0 1-1.02-2.6zm13.92-13.27c0-2.82.3-5.3.9-7.42a15.2 15.2 0 0 1 2.5-5.29c1.07-1.4 2.35-2.44 3.85-3.14s3.16-1.05 5-1.05c3.93 0 6.95 1.38 9.07 4.12 2.12 2.75 3.18 7.01 3.18 12.78 0 2.86-.3 5.35-.9 7.48-.58 2.12-1.42 3.9-2.5 5.3s-2.36 2.47-3.87 3.17c-1.51.7-3.19 1.05-5.03 1.05-3.95 0-6.97-1.45-9.06-4.35s-3.13-7.12-3.13-12.64zm6.06 0a37.2 37.2 0 0 0 .09 2.61l11.27-10.38c-.92-2.67-2.66-4-5.22-4-1.97 0-3.49.95-4.55 2.86-1.06 1.9-1.6 4.88-1.6 8.91zm12.38 0a42.68 42.68 0 0 0-.09-2.74l-11.31 10.38c.95 2.83 2.7 4.24 5.22 4.24 1.97 0 3.49-.95 4.57-2.84 1.07-1.9 1.61-4.9 1.61-9.04z"/></svg>