<svg width="190" height="66" viewBox="0 0 190 66" xmlns="http://www.w3.org/2000/svg">
  <path d="M33.1746 0.5H156.825C174.874 0.5 189.5 15.0532 189.5 33C189.5 50.9468 174.874 65.5 156.825 65.5H33.1746C15.1264 65.5 0.5 50.9468 0.5 33C0.5 15.0532 15.1264 0.5 33.1746 0.5Z" fill="#000000" />
  <path d="M39.4828 48.8401C47.3844 48.8401 51.1844 43.8601 51.1844 35.7001V14.9401C51.1844 13.6201 50.4003 12.9001 49.3146 12.9001C48.2288 12.9001 47.505 13.6201 47.505 14.9401V35.7001C47.505 42.6001 44.4892 45.4201 39.4828 45.4201C34.5971 45.4201 31.5812 42.6001 31.5812 35.7001V14.9401C31.5812 13.6201 30.7971 12.9001 29.7114 12.9001C28.6257 12.9001 27.9019 13.6201 27.9019 14.9401V35.7001C27.9019 43.8601 31.7019 48.8401 39.4828 48.8401ZM67.2656 18.8401C63.7069 18.8401 60.872 21.6601 60.872 25.2001C60.872 28.7401 63.7069 31.5601 67.2656 31.5601C70.8244 31.5601 73.6593 28.7401 73.6593 25.2001C73.6593 21.6601 70.8244 18.8401 67.2656 18.8401ZM86.5069 49.5601C90.6085 49.5601 93.0212 47.0401 95.0117 44.3401C97.0021 47.0401 99.4148 49.5601 103.516 49.5601C105.024 49.5601 106.351 49.1401 106.351 47.7601C106.351 46.9201 105.688 46.1401 104.723 46.1401C104.361 46.1401 103.697 46.2601 103.275 46.2601C101.345 46.2601 99.0529 43.7401 97.7863 41.9401C100.38 39.1801 103.215 35.6401 103.215 31.7401C103.215 27.2401 99.7767 24.0601 95.0117 24.0601C90.2466 24.0601 86.8085 27.2401 86.8085 31.7401C86.8085 35.6401 89.6434 39.1801 92.2371 41.9401C90.9704 43.7401 88.6783 46.2601 86.7482 46.2601C86.3259 46.2601 85.6625 46.1401 85.3006 46.1401C84.3355 46.1401 83.672 46.9201 83.672 47.7601C83.672 49.1401 84.999 49.5601 86.5069 49.5601ZM122.734 18.8401C119.175 18.8401 116.341 21.6601 116.341 25.2001C116.341 28.7401 119.175 31.5601 122.734 31.5601C126.293 31.5601 129.128 28.7401 129.128 25.2001C129.128 21.6601 126.293 18.8401 122.734 18.8401ZM150.42 48.8401C158.321 48.8401 162.121 43.8601 162.121 35.7001V14.9401C162.121 13.6201 161.337 12.9001 160.251 12.9001C159.166 12.9001 158.442 13.6201 158.442 14.9401V35.7001C158.442 42.6001 155.426 45.4201 150.42 45.4201C145.534 45.4201 142.518 42.6001 142.518 35.7001V14.9401C142.518 13.6201 141.734 12.9001 140.648 12.9001C139.563 12.9001 138.839 13.6201 138.839 14.9401V35.7001C138.839 43.8601 142.639 48.8401 150.42 48.8401Z" fill="#FFFFFF"/>
</svg>
