<svg xmlns="http://www.w3.org/2000/svg" viewBox="0 0 1925 1050" xml:space="preserve"><path fill="#FFD829" d="m1069.24 309.5-98.38-183.42a32.24 32.24 0 1 1 57.26-29.6L1129 309.5"/><path d="m1067.04 310.69-98.39-183.43a34.45 34.45 0 0 1-2.77-26.86 34.47 34.47 0 0 1 17.33-20.74 34.47 34.47 0 0 1 26.89-2.06 34.47 34.47 0 0 1 20.26 17.79l100.9 213.04-4.51 2.15-100.9-213.03c-3.51-7.25-9.67-12.66-17.34-15.21s-15.83-1.93-23.01 1.77a29.5 29.5 0 0 0-14.84 17.75 29.5 29.5 0 0 0 2.39 23.02l98.4 183.44-4.41 2.37z"/><circle fill="#FFF" cx="999.58" cy="110.89" r="18.37"/><path fill="#FFD829" d="M1633.54 79.39h-279.53v231.07h62.97a27.9 27.9 0 0 1 27.38 22.6l2.85 14.7h186.33V79.4z"/><path d="M1636.04 350.27h-188.33l-3.24-16.74c-2.3-11.92-15.35-23.07-27.49-23.07h-65.46V76.9h284.52v273.38zm-187.77-5h182.77V81.89h-274.52v227.07h60.46c14.53 0 26.08 9.36 28.84 23.62l2.45 12.69z"/><path d="M1534.48 181.07c18.12 18.72 40.86 110.02 40.86 110.02s-90.51-25.69-108.63-44.4a47.17 47.17 0 0 1 67.77-65.62z"/><path fill="#FFD829" d="M1517.8 266.1c8.23 3.14 16.65 6.1 24.52 8.76l17.68-18.08a681.44 681.44 0 0 0-7.95-24.8l-34.25 34.13zm-33.93-26.28a689.3 689.3 0 0 0 24.52 8.75l27.05-26.2a681.44 681.44 0 0 0-7.95-24.78l-43.62 42.23z"/><path fill="#FFF" d="M1461.52 170c6-1.4 49.35 60.42 53.64 78.96a34.45 34.45 0 1 1-67.13 15.54c-4.29-18.54 8.16-93.28 13.49-94.5z"/><path fill="#FFF" d="M1456.28 175.13c-1.58 5.95 58.88 51.2 77.27 56.05a34.45 34.45 0 1 0 17.6-66.61c-18.39-4.86-93.48 5.27-94.87 10.56z"/><circle cx="1463.08" cy="176.3" r="20.33"/><path d="M1447.7 169.86c-.48 0-.94-.16-1.32-.49-21.92-19.13-53.98-1.1-54.3-.92a2 2 0 0 1-2-3.46 73.1 73.1 0 0 1 20.18-7.28c15.35-3.07 28.74-.08 38.75 8.65a2 2 0 0 1-1.32 3.5zm6.75-6.54a2 2 0 0 1-1.55-.73c-8.4-10.28-10.96-23.77-7.4-39a73 73 0 0 1 7.93-19.93 2 2 0 1 1 3.4 2.1c-.2.32-19.25 31.77-.84 54.3a2 2 0 0 1-1.54 3.26zm181.59-81.57h-284.53V23.97h284.53v57.78zm-279.52-5h274.52V28.97h-274.52v47.78z"/><circle fill="#FFD829" cx="1382.1" cy="52.8" r="11.99"/><path d="M1382.1 67.3a14.5 14.5 0 0 1-14.5-14.5 14.5 14.5 0 0 1 28.98 0c0 8-6.5 14.5-14.48 14.5zm0-23.99a9.5 9.5 0 0 0 0 18.98 9.5 9.5 0 0 0 0-18.98z"/><circle fill="#FFD829" cx="1421.02" cy="52.8" r="11.99"/><path d="M1421.02 67.3a14.5 14.5 0 0 1 0-28.98c8 0 14.5 6.5 14.5 14.48 0 8-6.5 14.5-14.5 14.5zm0-23.99a9.5 9.5 0 0 0 0 18.98 9.5 9.5 0 0 0 0-18.98z"/><circle fill="#FFD829" cx="1458.68" cy="52.8" r="11.99"/><path d="M1458.68 67.3a14.5 14.5 0 0 1 0-28.98 14.5 14.5 0 0 1 14.49 14.48c0 8-6.5 14.5-14.5 14.5zm0-23.99a9.5 9.5 0 0 0 0 18.98 9.5 9.5 0 0 0 0-18.98z"/><path fill="#FFF" d="M2.5 794.97h235.78v5H2.5zm1620.11 0h299.89v5h-299.89z"/><path d="M1024.48 378.51h408.46v51.7h-408.46z"/><path fill="none" d="M1399.45 614.75h-341.49a31 31 0 0 0-30.9 30.9v57.12a31 31 0 0 0 30.9 30.9h341.5a31 31 0 0 0 30.9-30.9v-57.12a31 31 0 0 0-30.91-30.9z"/><path d="M1429.95 423h-402.5c-61.23 0-115.78 28.64-150.99 73.25v429.17h745.75V615.26c0-106.18-86.08-192.25-192.26-192.25zm.4 279.77a31 31 0 0 1-30.9 30.9h-341.49a31 31 0 0 1-30.9-30.9v-57.11a31 31 0 0 1 30.9-30.9h341.5a31 31 0 0 1 30.9 30.9v57.11z"/><path d="M879.08 925.3H240.16V283.56c0-38.39 15.05-74.58 42.38-101.91 27.33-27.33 63.53-42.39 101.91-42.39H734.8c38.38 0 74.58 15.06 101.9 42.39s42.4 63.52 42.4 101.9V925.3zm-633.92-5h628.92V283.56c0-37.05-14.53-71.99-40.92-98.38-26.38-26.39-61.32-40.92-98.37-40.92H384.45c-37.05 0-71.99 14.53-98.37 40.92s-40.92 61.33-40.92 98.38V920.3z"/><path fill="#FFD829" d="M774.83 763.96c-38.44 67.88-124.63 91.74-192.5 53.3s-91.74-124.64-53.3-192.51l245.8 139.21z"/><path d="M651.69 837.57c-23.9 0-48.11-5.98-70.35-18.58-68.73-38.92-92.97-126.5-54.05-195.23l.99-1.74 249.28 141.19-.99 1.74c-26.33 46.48-74.92 72.62-124.88 72.62zm-121.9-210.1c-36.45 66.55-12.71 150.53 53.52 188.04 66.23 37.51 150.46 14.68 188.78-50.8L529.8 627.48z"/><path fill="#FFD829" d="M753.77 752.03c-31.86 56.24-103.27 76.02-159.52 44.16s-76.01-103.27-44.15-159.51l203.67 115.35z"/><path d="M651.75 813.44c-20.3 0-40.34-5.24-58.48-15.51-57.12-32.35-77.26-105.13-44.92-162.24l1-1.74 207.14 117.33-.98 1.74a118.26 118.26 0 0 1-71.82 56.06 119.7 119.7 0 0 1-31.94 4.36zM550.87 639.41c-29.88 54.92-10.24 124.1 44.37 155.04a114.28 114.28 0 0 0 87.38 10.77 114.25 114.25 0 0 0 68.4-52.44L550.88 639.4z"/><path fill="#FFD829" d="M665.86 702.7s34.93 39.8 44 45.79 21.26 3.49 27.24-5.57l-71.24-40.22z"/><path d="M720.65 753.75c-4.2 0-8.31-1.23-11.9-3.6-9.18-6.06-42.96-44.5-44.4-46.13l-7.76-8.85 83.36 47.06-1.18 1.79a21.53 21.53 0 0 1-18.12 9.73zm-45.3-43.4c10.82 12.05 29.5 32.44 35.6 36.47a17.53 17.53 0 0 0 13.28 2.56c3.91-.8 7.36-2.84 9.91-5.84l-58.8-33.19z"/><path fill="#FFD829" d="M637.31 686.53s-52.1-9.49-61.89-14.18-13.93-16.44-9.23-26.24l71.12 40.42z"/><path d="m648.53 690.6-11.58-2.1c-2.14-.4-52.47-9.6-62.4-14.35a21.7 21.7 0 0 1-10.17-28.9l.93-1.94 83.22 47.3zm-81.35-41.63a17.7 17.7 0 0 0 9.1 21.57c6.6 3.17 33.69 8.7 49.6 11.79l-58.7-33.36z"/><path fill="#FFD829" d="M648.45 769.64a19.67 19.67 0 0 0 38.54-7.88c-2.17-10.64-31.58-56.27-31.58-56.27s-9.13 53.51-6.96 64.15z"/><path d="M667.72 787.37a21.7 21.7 0 0 1-21.23-17.33c-2.22-10.88 6.58-62.7 6.95-64.9l.87-5.06 2.78 4.32c1.21 1.88 29.64 46.08 31.86 56.96a21.7 21.7 0 0 1-21.23 26.01zm-11.19-76.42c-2.82 17.37-7.67 50.7-6.12 58.3A17.69 17.69 0 0 0 671.26 783a17.69 17.69 0 0 0 13.77-20.85c-1.55-7.58-19.09-36.34-28.5-51.2z"/><path fill="#FFD829" d="M587.22 734.96a19.67 19.67 0 1 1-13.07-37.1c10.25-3.61 64.5-1.86 64.5-1.86s-41.19 35.35-51.43 38.96z"/><path d="M580.67 738.09c-3.2 0-6.38-.72-9.35-2.14-5.22-2.5-9.15-6.9-11.07-12.35s-1.6-11.34.9-16.56a21.52 21.52 0 0 1 12.34-11.07c10.48-3.7 63-2.04 65.23-1.97l5.15.16-3.9 3.35c-1.7 1.46-41.61 35.65-52.1 39.33a21.66 21.66 0 0 1-7.2 1.25zm30.78-40.51c-15.56 0-31.82.47-36.63 2.16a17.55 17.55 0 0 0-10.07 9.03 17.55 17.55 0 0 0-.73 13.5 17.55 17.55 0 0 0 9.03 10.07 17.56 17.56 0 0 0 13.5.73c7.3-2.57 33.4-23.87 46.84-35.22-6-.15-13.87-.27-21.94-.27z"/><path fill="#FFD829" d="M628.79 772.85a19.6 19.6 0 0 1-34.1-19.31c5.33-9.42 47.23-43.63 47.23-43.63s-7.8 53.52-13.13 62.94z"/><path d="M611.7 784.8a21.62 21.62 0 0 1-18.76-32.25c5.46-9.63 45.99-42.78 47.71-44.2l3.99-3.25-.74 5.1c-.32 2.2-7.92 54-13.37 63.64A21.45 21.45 0 0 1 617.5 784c-1.92.53-3.86.79-5.8.79zm27.47-70.03c-13.5 11.19-38.94 33.04-42.74 39.75a17.62 17.62 0 0 0 20 25.63c4.53-1.25 8.3-4.2 10.62-8.29 3.8-6.7 9.45-39.77 12.12-57.1z"/><path fill="#FFD829" d="M505.24 302.17c53.91 56.38 51.92 145.78-4.45 199.7s-145.78 51.92-199.7-4.45l204.15-195.25z"/><path d="M403.2 542.97a142.82 142.82 0 0 1-103.55-44.17l-1.39-1.44L505.3 299.34l1.38 1.45c54.6 57.08 52.57 147.93-4.5 202.52a142.75 142.75 0 0 1-98.99 39.66zm-99.27-45.5c53.2 54.1 140.47 55.56 195.48 2.95 55-52.6 57.42-139.85 5.75-195.41L303.93 497.48z"/><path fill="#FFD829" d="M487.74 318.9c44.68 46.72 43.03 120.8-3.68 165.48s-120.8 43.02-165.48-3.69L487.74 318.9z"/><path d="M403.19 518.78a118.7 118.7 0 0 1-86.05-36.7l-1.38-1.45L487.8 316.08l1.38 1.44a118.26 118.26 0 0 1 32.98 84.93 118.26 118.26 0 0 1-36.73 83.37 118.63 118.63 0 0 1-82.25 32.96zm-81.77-38.04c43.98 44.43 115.9 45.57 161.25 2.19a114.29 114.29 0 0 0 35.5-80.57 114.25 114.25 0 0 0-30.5-80.62l-166.25 159z"/><path fill="#FFD829" d="M415.17 388.86s48.18-21.97 56.52-28.93a19.67 19.67 0 0 0 2.52-27.7l-59.04 56.63z"/><path d="m405.3 395.57 69.07-66.27 1.38 1.65a21.53 21.53 0 0 1 4.93 15.83 21.52 21.52 0 0 1-7.7 14.69c-8.46 7.04-55 28.31-56.98 29.21l-10.7 4.89zm68.65-60.32-48.72 46.73c14.66-6.89 39.56-18.9 45.18-23.58a17.56 17.56 0 0 0 6.29-11.98c.36-3.97-.6-7.87-2.75-11.17z"/><path fill="#FFD829" d="M391.46 411.54s-24.1 47.15-31.42 55.18a19.67 19.67 0 0 1-27.78 1.28l59.2-56.46z"/><path d="M345.48 475.14c-5.4 0-10.55-2-14.57-5.66l-1.59-1.44 69.28-66.07-5.36 10.48c-.99 1.94-24.3 47.49-31.72 55.62a21.53 21.53 0 0 1-16.04 7.07zm-10.2-7.26a17.55 17.55 0 0 0 11.04 3.24 17.55 17.55 0 0 0 12.24-5.75c4.93-5.4 18.04-29.74 25.58-44.08l-48.86 46.59z"/><path fill="#FFD829" d="M474.25 424.82a19.67 19.67 0 1 0 3.57-39.17c-10.82-.98-63 14.02-63 14.02s48.62 24.17 59.44 25.15z"/><path d="M476.05 426.9c-.65 0-1.31-.02-1.98-.08-11.06-1.01-58.14-24.37-60.13-25.36l-4.61-2.29 4.94-1.42c2.15-.62 52.66-15.09 63.73-14.1a21.7 21.7 0 0 1 19.62 23.55 21.7 21.7 0 0 1-21.57 19.7zm-55.67-26.72c15.82 7.7 46.34 21.95 54.06 22.65 9.7.9 18.31-6.29 19.2-16a17.7 17.7 0 0 0-16-19.19c-7.72-.73-40.31 7.8-57.25 12.54z"/><path fill="#FFD829" d="M423.4 473.47a19.67 19.67 0 1 1-39.3 1.81c-.5-10.85 16.81-62.3 16.81-62.3s21.98 49.64 22.48 60.49z"/><path d="M403.72 496.04a21.5 21.5 0 0 1-14.57-5.65 21.52 21.52 0 0 1-7.05-15.02c-.51-11.1 16.2-60.91 16.92-63.03l1.64-4.88 2.08 4.7c.9 2.05 22.14 50.12 22.65 61.22a21.53 21.53 0 0 1-5.63 15.6 21.53 21.53 0 0 1-16.04 7.06zm-2.55-77.49c-5.48 16.72-15.43 48.9-15.07 56.64a17.54 17.54 0 0 0 5.74 12.24 17.57 17.57 0 0 0 12.72 4.6 17.55 17.55 0 0 0 12.24-5.75c3.18-3.49 4.81-8 4.6-12.72-.36-7.74-13.23-38.87-20.23-55z"/><path fill="#FFD829" d="M471.66 444.58a19.6 19.6 0 0 1-28.32 27.09c-7.48-7.82-28.17-57.8-28.17-57.8s49.01 22.89 56.5 30.7z"/><path d="M457.5 479.71a21.5 21.5 0 0 1-15.6-6.66c-7.66-8-27.73-56.36-28.58-58.42l-1.96-4.75 4.66 2.18c2.01.94 49.43 23.14 57.09 31.14a21.46 21.46 0 0 1 5.98 15.4 21.45 21.45 0 0 1-6.66 15.13c-4.18 4-9.56 5.98-14.93 5.98zm-38.47-61.8c6.83 16.14 20.42 46.8 25.75 52.38a17.62 17.62 0 0 0 30.31-11.77c.1-4.7-1.63-9.16-4.87-12.56-5.34-5.57-35.37-20.51-51.2-28.06z"/><path fill="#FFF" d="M704.38 597.98H414.86c-14.85 0-27-12.15-27-27v-82.07c0-14.85 12.15-27 27-27h289.52c14.85 0 27 12.15 27 27v82.07c0 14.85-12.15 27-27 27zM769.3 99.81H348.4c-14.86 0-27-12.15-27-27V56.1c0-14.85 12.14-27 27-27h420.9c14.86 0 27 12.15 27 27v16.7c0 14.85-12.14 27-27 27zm-507.65 75.06c-13.25 8.6-20.52 24.26-17.73 39.8 2.28 12.77 10.34 24.37 23.27 30.23 5.3 2.4 11.65 4 20.12 4 33.87 0 33.87-25.6 67.74-25.6s33.87 25.6 67.74 25.6 33.87-25.6 67.73-25.6c33.87 0 33.87 25.6 67.74 25.6 33.88 0 33.88-25.6 67.75-25.6s33.87 25.6 67.74 25.6c33.88 0 33.88-25.6 67.75-25.6s33.87 25.6 67.75 25.6c13.8 0 21.99-4.25 29.13-9.29.52-.37 1.03-.74 1.52-1.13 21.62-16.76 19.3-50.23-3.8-64.87l-92.06-58.32H353.42l-91.77 59.58z"/><path d="M353.42 99.76h410.62v15.53H353.42z"/><path fill="#FFF" d="M1441.15 380.68h-428.68c-3.7 0-7.17-1.64-9.53-4.5a12.32 12.32 0 0 1-2.6-10.2l6.46-33.4a30.44 30.44 0 0 1 29.84-24.62h380.34a30.44 30.44 0 0 1 29.84 24.62l6.46 33.4c.7 3.63-.24 7.35-2.6 10.2a12.32 12.32 0 0 1-9.53 4.5zm-404.5-67.72a25.43 25.43 0 0 0-24.94 20.57l-6.46 33.4a7.34 7.34 0 0 0 7.22 8.75h428.68a7.34 7.34 0 0 0 7.22-8.76l-6.46-33.4a25.43 25.43 0 0 0-24.93-20.56h-380.34zm366.52 439.85H1053.4a45.24 45.24 0 0 1-45.19-45.2v-65.46a45.24 45.24 0 0 1 45.2-45.2h349.76c.53.02 45.2 1.9 45.2 45.2v65.47a45.25 45.25 0 0 1-45.2 45.2zm-.07-150.86h-349.7a40.24 40.24 0 0 0-40.19 40.2v65.47a40.24 40.24 0 0 0 40.2 40.19h349.76a40.24 40.24 0 0 0 40.2-40.2v-65.46c0-16.15-6.73-27.81-20-34.65a53.35 53.35 0 0 0-20.27-5.55zm-994 153.65c-10.75 0-19.5-8.75-19.5-19.5s8.75-19.52 19.5-19.52 19.51 8.75 19.51 19.51-8.75 19.51-19.5 19.51zm0-34.02a14.52 14.52 0 0 0 0 29.02 14.52 14.52 0 0 0 .01-29.02z"/><circle fill="#FFF" cx="342.55" cy="324.2" r="11.86"/><circle fill="#FFF" cx="353.73" cy="827.76" r="11.86"/><circle fill="#FFF" cx="787.63" cy="848.79" r="11.86"/><circle fill="#FFF" cx="772.08" cy="660.14" r="11.86"/><circle fill="#FFF" cx="650.92" cy="376.72" r="11.86"/><path fill="#FFF" d="M364.73 689.04c-10.75 0-19.5-8.75-19.5-19.5s8.75-19.51 19.5-19.51 19.51 8.75 19.51 19.5-8.75 19.51-19.5 19.51zm0-34.01a14.51 14.51 0 1 0 0 29.02 14.51 14.51 0 0 0 .01-29.02zm369.01-267.7c-10.76 0-19.5-8.75-19.5-19.5s8.74-19.51 19.5-19.51 19.5 8.75 19.5 19.5-8.74 19.51-19.5 19.51zm0-34.01a14.51 14.51 0 1 0 .02 29.02 14.51 14.51 0 0 0-.02-29.02z"/><path d="M501.36 517.76h-22.27v-6.14h29.51v46.93c0 6.17-1.57 10.77-4.72 13.8-3.15 3.02-7.5 4.53-13.06 4.53a18 18 0 0 1-4.81-.64 33.33 33.33 0 0 1-7.89-3.3c-1-.6-1.75-1.1-2.24-1.46l3.04-5.96a28.61 28.61 0 0 0 5.65 3.2 16.4 16.4 0 0 0 6.58 1.38c3.68 0 6.3-1.15 7.87-3.44s2.34-5.45 2.34-9.48v-39.42zm-3.94-19.16c0-1.65.55-3.07 1.65-4.26a5.49 5.49 0 0 1 4.21-1.79c1.78 0 3.26.6 4.45 1.79a5.81 5.81 0 0 1 1.79 4.26c0 1.6-.6 2.94-1.79 4.03a6.3 6.3 0 0 1-4.45 1.65 5.72 5.72 0 0 1-4.21-1.65 5.49 5.49 0 0 1-1.65-4.03zm37.95 16.6c2.63-1.53 5.59-2.63 8.89-3.3s6.54-1.01 9.72-1.01c3.11 0 5.66.49 7.65 1.46 1.99.98 3.54 2.25 4.68 3.8a13.45 13.45 0 0 1 2.29 5.32c.4 1.99.6 4 .6 6 0 2.33-.07 4.8-.19 7.43a329.4 329.4 0 0 0-.27 7.89c0 3.05.18 5.96.55 8.7h6.14v5.96h-12.11l-.82-6.87h-.46a23 23 0 0 1-1.65 2.1c-.74.86-1.7 1.7-2.9 2.53a18.1 18.1 0 0 1-10.43 3.07c-4.54 0-8.13-1.16-10.76-3.49-2.64-2.32-3.96-5.5-3.96-9.53 0-3.12.7-5.71 2.07-7.79a13.06 13.06 0 0 1 5.93-4.77c2.58-1.1 5.69-1.74 9.34-1.92s7.73.06 12.27.73c.3-2.81.35-5.15.14-7.01a9.65 9.65 0 0 0-1.47-4.45 6.15 6.15 0 0 0-3.22-2.34 16.34 16.34 0 0 0-5.1-.68c-2.77 0-5.4.38-7.92 1.14a81.05 81.05 0 0 0-6.71 2.34l-2.3-5.32zm13.56 36.93c1.71 0 3.3-.27 4.77-.82a14.53 14.53 0 0 0 6.6-4.9 13.59 13.59 0 0 0 1.65-2.9v-6.4a51.96 51.96 0 0 0-8.8-.83c-2.69 0-5.01.29-6.97.87a9.72 9.72 0 0 0-4.58 2.7 6.86 6.86 0 0 0-1.65 4.77c0 2.02.69 3.77 2.06 5.27 1.38 1.5 3.68 2.25 6.92 2.25zm55.55 5.32v-30.52c0-1.29-.04-2.52-.14-3.71s-.3-2.26-.64-3.21a5.15 5.15 0 0 0-1.46-2.25 3.74 3.74 0 0 0-2.53-.82c-2.07 0-3.83.85-5.27 2.56a17.16 17.16 0 0 0-3.25 6.42v31.53h-6.97v-45.83H589l1.38 5.6h.36c.61-.93 1.2-1.8 1.79-2.62.58-.83 1.25-1.54 2.02-2.16a8.46 8.46 0 0 1 2.7-1.42 13.01 13.01 0 0 1 6.78-.09 7.98 7.98 0 0 1 4.86 3.62 8.96 8.96 0 0 1 1.2 3.58 19.38 19.38 0 0 1 4.71-5.6c1.75-1.34 4.14-2.01 7.2-2.01 2.02 0 3.65.34 4.9 1a7.23 7.23 0 0 1 2.94 2.9c.7 1.25 1.19 2.74 1.46 4.49.28 1.74.42 3.68.42 5.82v32.72h-6.97v-31.17c0-1.28-.06-2.49-.18-3.62a11.6 11.6 0 0 0-.7-2.97 4.95 4.95 0 0 0-1.37-2.02 3.52 3.52 0 0 0-2.33-.74c-2.14 0-3.94.86-5.41 2.57s-2.57 4.16-3.3 7.33v30.62h-6.97zm492.12 78.43h14.3v24.02h.46a20.5 20.5 0 0 1 6.6-5c2.5-1.19 5.62-1.79 9.35-1.79 2.93 0 5.48.31 7.65.92 2.17.61 3.94 1.68 5.32 3.2s2.4 3.63 3.07 6.29c.67 2.66 1 6.03 1 10.13v26.4h-7.23v-25.03c0-2.63-.16-4.92-.46-6.87-.3-1.96-.9-3.6-1.78-4.9-.88-1.32-2.09-2.31-3.6-2.99s-3.48-1-5.85-1c-1.65 0-3.26.28-4.85.86a16.19 16.19 0 0 0-4.34 2.39c-1.3 1-2.43 2.23-3.38 3.67a13.77 13.77 0 0 0-1.96 4.72v29.15h-7.06v-58.03h-7.24v-6.14zm59.86 41.25c0-7.4 1.92-13.24 5.77-17.55s9.35-6.47 16.5-6.47c3.85 0 7.17.63 9.95 1.88a19.54 19.54 0 0 1 6.92 5.09 20.78 20.78 0 0 1 4.08 7.6 32.5 32.5 0 0 1 1.33 9.45c0 3.67-.5 6.98-1.47 9.95s-2.41 5.48-4.3 7.56a19.04 19.04 0 0 1-7.02 4.8 25.05 25.05 0 0 1-9.49 1.7c-3.79 0-7.09-.62-9.9-1.87a19.4 19.4 0 0 1-6.97-5.1 20.76 20.76 0 0 1-4.08-7.6 32.5 32.5 0 0 1-1.32-9.44zm7.6 0c0 2.14.26 4.28.78 6.42s1.36 4.06 2.52 5.77 2.66 3.09 4.52 4.13a13.76 13.76 0 0 0 6.8 1.55c4.88 0 8.55-1.5 11.02-4.53 2.46-3.03 3.7-7.47 3.7-13.34 0-2.2-.26-4.35-.78-6.46a17.15 17.15 0 0 0-2.56-5.73 13.56 13.56 0 0 0-4.57-4.13 13.8 13.8 0 0 0-6.8-1.55c-4.88 0-8.53 1.5-10.97 4.49-2.44 3-3.65 7.45-3.65 13.38zm50.7-6.87a69.88 69.88 0 0 0-.19-4.9 59.85 59.85 0 0 0-.55-5.19h-6.14v-5.96h12.28l.83 7.43h.46a15.45 15.45 0 0 1 2.43-3.07 18.98 18.98 0 0 1 8.02-4.72 17.9 17.9 0 0 1 5.22-.74c2.81 0 5.3.31 7.47.92a11.4 11.4 0 0 1 5.41 3.25c1.44 1.56 2.52 3.67 3.26 6.33s1.1 6.04 1.1 10.13v26.3h-7.24v-24.87c0-5.06-.83-8.87-2.47-11.43-1.65-2.56-4.63-3.84-8.95-3.84-1.59 0-3.12.32-4.61.96-1.5.64-2.85 1.48-4.07 2.51s-2.28 2.24-3.2 3.61a15.18 15.18 0 0 0-2 4.35v28.72h-7.06v-29.8zm94.96 24.01c-1.1.98-2.4 1.9-3.9 2.75a28.7 28.7 0 0 1-4.9 2.2 36.21 36.21 0 0 1-5.55 1.42c-1.92.34-3.86.5-5.81.5-3.67 0-6.91-.56-9.72-1.69a18.7 18.7 0 0 1-7.06-4.86c-1.9-2.1-3.33-4.63-4.31-7.56s-1.47-6.23-1.47-9.9c0-3.85.54-7.27 1.6-10.27a19.99 19.99 0 0 1 4.64-7.51 20.18 20.18 0 0 1 7.33-4.63 27.44 27.44 0 0 1 9.63-1.6c2.56 0 5.1.33 7.6 1 2.5.68 4.73 1.94 6.65 3.8 1.93 1.87 3.4 4.44 4.45 7.7 1.03 3.28 1.4 7.51 1.1 12.7h-35.39c0 5.5 1.48 9.61 4.44 12.33 2.95 2.72 6.9 4.08 11.84 4.08 1.64 0 3.27-.2 4.89-.6 1.61-.4 3.15-.87 4.62-1.42a24.12 24.12 0 0 0 3.88-1.83c1.13-.67 2-1.28 2.6-1.83l2.84 5.22zm-19.3-35.1c-2.01 0-3.91.2-5.71.64a11.88 11.88 0 0 0-8.13 6.1 15.83 15.83 0 0 0-1.7 6h28.42c-.3-4.04-1.6-7.17-3.88-9.4s-5.28-3.35-9-3.35zm54.32 33.82h3.48l11.37-38.78h7.42l-12.74 41.16c-.67 2.14-1.36 4.57-2.06 7.29-.7 2.72-1.7 5.27-2.98 7.65a18.36 18.36 0 0 1-5.23 6.05c-2.2 1.65-5.07 2.48-8.61 2.48-.8 0-1.64-.1-2.53-.28a25 25 0 0 1-2.6-.68c-.86-.28-1.66-.6-2.4-.97a6.33 6.33 0 0 1-1.64-1.1l2.57-6.6c.36.3.87.61 1.5.92.65.3 1.35.56 2.12.78.76.21 1.5.4 2.24.55.73.15 1.35.23 1.83.23 4.59 0 7.7-3.88 9.36-11.64h-6.15l-19.25-45.84h8.25l16.05 38.78z"/><path fill="#FFD829" d="m1674.2 868.49-581.3 13.77c-18.33-38.96-70.17-67.04-131.26-67.04-76.4 0-138.34 43.92-138.34 98.1 0 54.2 61.94 98.12 138.34 98.12 62.26 0 114.92-29.18 132.27-69.3L1674.04 958a44.77 44.77 0 1 0 .16-89.51z"/><path d="M961.64 1013.94c-77.66 0-140.84-45.14-140.84-100.61 0-55.48 63.18-100.61 140.84-100.61 59.86 0 112.96 26.86 132.8 67l579.7-13.73a46.85 46.85 0 0 1 34.15 13.44 46.9 46.9 0 0 1 14.24 33.81 46.9 46.9 0 0 1-14.3 33.88 46.87 46.87 0 0 1-34.26 13.38l-578.46-15.82c-8.95 19.54-26.54 37.02-49.72 49.36-24.44 13.02-53.54 19.9-84.15 19.9zm0-196.22c-74.9 0-135.84 42.89-135.84 95.6 0 52.73 60.94 95.62 135.84 95.62 29.8 0 58.08-6.68 81.8-19.31 22.8-12.14 39.9-29.36 48.18-48.49l.67-1.55 1.7.04 580.12 15.87a41.89 41.89 0 0 0 30.63-11.96 41.93 41.93 0 0 0 12.8-30.3A41.94 41.94 0 0 0 1704.8 883a42.04 42.04 0 0 0-30.54-12.02l-582.94 13.82-.69-1.48c-18.46-39.24-70.3-65.6-129-65.6z"/><circle fill="#FFF" cx="1674.55" cy="912.88" r="25.51"/><path fill="#FFF" d="M962 997.98c-67.44 0-122.3-37.95-122.3-84.59s54.86-84.58 122.3-84.58c67.43 0 122.3 37.94 122.3 84.58s-54.87 84.59-122.3 84.59zm0-164.17c-64.68 0-117.3 35.7-117.3 79.59 0 43.88 52.62 79.58 117.3 79.58 64.67 0 117.3-35.7 117.3-79.59 0-43.88-52.63-79.58-117.3-79.58z"/></svg>