<svg xmlns="http://www.w3.org/2000/svg" viewBox="0 0 1080 1080" xml:space="preserve"><path d="M584.75 70.34h210.58V297.9H584.75z"/><path fill="#FFD829" d="m896.62 417.54 111.82-208.47a36.64 36.64 0 1 0-65.08-33.65L828.7 417.54"/><path d="m898.4 418.5-3.56-1.9 111.83-208.49a34.36 34.36 0 0 0 2.78-26.81 34.36 34.36 0 0 0-17.27-20.68 34.37 34.37 0 0 0-26.8-2.06 34.36 34.36 0 0 0-20.2 17.74L830.5 418.4l-3.64-1.72 114.68-242.13a38.38 38.38 0 0 1 22.56-19.81 38.37 38.37 0 0 1 29.92 2.3 38.35 38.35 0 0 1 19.28 23.08 38.35 38.35 0 0 1-3.1 29.92L898.4 418.5z"/><circle fill="#FFF" cx="975.8" cy="191.8" r="20.88"/><path fill="#FFD829" d="M703.42 71.6H560.79v205.44h213.97V71.6z"/><path d="M776.78 279.06h-218V69.58h218v209.48zm-213.98-4.04h209.95V73.61H562.8v201.41z"/><path d="M698.93 149.44c13.87 14.32 31.28 84.2 31.28 84.2s-69.29-19.65-83.16-33.98a36.1 36.1 0 0 1 51.88-50.22z"/><path fill="#FFD829" d="M686.16 214.53c6.3 2.4 12.75 4.67 18.77 6.7l13.54-13.85a534.2 534.2 0 0 0-6.09-18.97l-26.22 26.12zM660.2 194.4c6.3 2.4 12.73 4.67 18.76 6.7l20.7-20.05a513.91 513.91 0 0 0-6.08-18.97l-33.39 32.32z"/><path fill="#FFF" d="M643.08 140.95c4.59-1.06 37.78 46.26 41.06 60.45a26.37 26.37 0 1 1-51.38 11.9c-3.29-14.2 6.24-71.4 10.32-72.35z"/><path fill="#FFF" d="M639.07 144.88c-1.2 4.56 45.07 39.2 59.15 42.91a26.37 26.37 0 1 0 13.48-51c-14.08-3.71-71.56 4.05-72.63 8.1z"/><circle cx="644.28" cy="145.78" r="15.56"/><path d="M632.5 141.34a2 2 0 0 1-1.33-.5c-16.51-14.4-40.76-.79-41-.65a2.02 2.02 0 0 1-2.01-3.49 56.5 56.5 0 0 1 15.6-5.63c11.89-2.38 22.29-.05 30.06 6.73a2.02 2.02 0 0 1-1.32 3.54zm5.17-5.01a2 2 0 0 1-1.56-.74c-6.54-7.99-8.53-18.46-5.76-30.27a56.45 56.45 0 0 1 6.13-15.4 2.01 2.01 0 1 1 3.42 2.12c-.14.24-14.54 24.03-.67 41a2.02 2.02 0 0 1-1.56 3.3zM776.78 73.5h-218V31.7h218v41.8zM562.8 69.47h209.95V35.72H562.8v33.75z"/><circle fill="#FFD829" cx="582.28" cy="52.63" r="9.18"/><path d="M582.28 63.82a11.2 11.2 0 1 1 11.2-11.2 11.2 11.2 0 0 1-11.2 11.2zm0-18.36a7.17 7.17 0 1 0 .02 14.35 7.17 7.17 0 0 0-.02-14.35z"/><circle fill="#FFD829" cx="612.08" cy="52.63" r="9.18"/><path d="M612.08 63.82a11.2 11.2 0 1 1 11.2-11.2 11.2 11.2 0 0 1-11.2 11.2zm0-18.36a7.17 7.17 0 1 0 .02 14.35 7.17 7.17 0 0 0-.02-14.35z"/><circle fill="#FFD829" cx="640.91" cy="52.63" r="9.18"/><path d="M640.9 63.82a11.2 11.2 0 1 1 .02-22.37 11.2 11.2 0 0 1-.01 22.37zm0-18.36a7.17 7.17 0 1 0 .02 14.34 7.17 7.17 0 0 0-.01-14.34zM499.28 969.47H0V397.83c0-62.19 50.6-112.79 112.8-112.79h273.7c62.19 0 112.79 50.6 112.79 112.8v571.63zM4.03 965.44h491.23v-567.6c0-59.98-48.8-108.77-108.77-108.77H112.8c-59.97 0-108.76 48.8-108.76 108.76v567.61z"/><path fill="#FFD829" d="M52.81 823.9c35.06 61.9 113.66 83.66 175.55 48.6s83.65-113.65 48.6-175.55L52.82 823.9z"/><path d="M165.09 891.3c-11.72 0-23.5-1.59-35.1-4.8a129.95 129.95 0 0 1-78.93-61.6l-1-1.76 227.66-128.93.99 1.75c17.22 30.4 21.57 65.7 12.25 99.37s-31.2 61.7-61.6 78.92a130.07 130.07 0 0 1-64.27 17.05zM55.57 824.66c34.94 59.49 111.56 80.2 171.8 46.09a125.96 125.96 0 0 0 59.7-76.5 125.92 125.92 0 0 0-10.89-94.54L55.58 824.65z"/><path fill="#FFD829" d="M72.02 813.02c29.05 51.3 94.18 69.32 145.46 40.27 51.29-29.05 69.32-94.17 40.27-145.46L72.02 813.03z"/><path d="M165.07 869.15c-37.93 0-74.81-19.84-94.8-55.13l-1-1.76L258.52 705.1l1 1.75a108.03 108.03 0 0 1 10.17 82.6 107.98 107.98 0 0 1-51.2 65.6 108.08 108.08 0 0 1-53.41 14.1zm-90.29-55.38c28.94 48.9 92.05 65.89 141.7 37.77a104.02 104.02 0 0 0 49.32-63.18 104 104 0 0 0-8.83-77.77L74.78 813.77z"/><path fill="#FFD829" d="M152.18 768.04s-31.85 36.3-40.11 41.75-19.4 3.19-24.85-5.08l64.96-36.67z"/><path d="M102.22 814.78a19.82 19.82 0 0 1-16.69-8.96l-1.18-1.8 77.17-43.57-7.82 8.92c-1.31 1.49-32.13 36.56-40.52 42.1a19.81 19.81 0 0 1-10.96 3.31zm-12-9.45a15.8 15.8 0 0 0 8.77 5.1c4.17.84 8.42.02 11.97-2.32 5.4-3.57 21.7-21.29 31.65-32.36l-52.4 29.58z"/><path fill="#FFD829" d="M178.22 753.3s47.5-8.66 56.43-12.94c8.94-4.28 12.7-15 8.43-23.93l-64.86 36.86z"/><path d="m166.91 757.4 77.05-43.79.93 1.95a19.97 19.97 0 0 1-9.36 26.62c-9.08 4.34-55 12.74-56.95 13.1l-11.67 2.12zm75.16-38.07-52.31 29.72c14.61-2.85 38.18-7.7 44.02-10.5a15.95 15.95 0 0 0 8.29-19.22z"/><path fill="#FFD829" d="M168.06 829.08a17.94 17.94 0 1 1-35.15-7.18c1.99-9.7 28.8-51.32 28.8-51.32s8.33 48.8 6.35 58.5z"/><path d="M150.53 845.45a19.97 19.97 0 0 1-19.59-23.95c2.04-9.97 27.97-50.3 29.08-52.01l2.8-4.36.88 5.1c.34 2.02 8.37 49.3 6.33 59.26a19.82 19.82 0 0 1-8.55 12.65 19.81 19.81 0 0 1-10.95 3.3zm10.05-69.36c-8.63 13.66-24.3 39.4-25.7 46.21a15.94 15.94 0 0 0 24.38 16.47 15.82 15.82 0 0 0 6.82-10.1c1.4-6.81-2.91-36.63-5.5-52.58z"/><path fill="#FFD829" d="M223.9 797.45a17.94 17.94 0 0 0 11.91-33.83c-9.34-3.29-58.82-1.7-58.82-1.7s37.57 32.25 46.91 35.53z"/><path d="M229.84 800.49c-2.2 0-4.43-.37-6.61-1.13-9.59-3.38-46.01-34.58-47.55-35.9l-3.94-3.38 5.18-.17c2.04-.06 49.97-1.57 59.56 1.8a19.82 19.82 0 0 1 11.37 10.2 19.98 19.98 0 0 1-18 28.57zm-47.54-36.7c12.35 10.42 35.7 29.45 42.27 31.76a15.8 15.8 0 0 0 12.17-.66 15.81 15.81 0 0 0 8.13-9.07 15.81 15.81 0 0 0-.66-12.16 15.81 15.81 0 0 0-9.07-8.14c-6.57-2.31-36.69-2.11-52.84-1.73z"/><path fill="#FFD829" d="M185.99 832a17.87 17.87 0 1 0 31.1-17.6c-4.87-8.6-43.07-39.79-43.07-39.79s7.1 48.81 11.97 57.4z"/><path d="M201.57 843.08A19.9 19.9 0 0 1 184.24 833c-5-8.81-11.92-56.1-12.22-58.1l-.74-5.13 4.01 3.28c1.57 1.28 38.56 31.54 43.55 40.35a19.9 19.9 0 0 1-17.27 29.68zm-13.83-12.06c4.31 7.6 14 10.29 21.61 5.98 7.6-4.31 10.3-14 5.98-21.61-3.41-6.03-26.15-25.59-38.54-35.88 2.46 15.92 7.54 45.47 10.95 51.5z"/><path fill="#FFD829" d="M252.38 411.86c-49.17 51.4-47.35 132.94 4.05 182.1 51.41 49.17 132.94 47.35 182.1-4.05L252.39 411.86z"/><path d="M345.43 631.64a130.35 130.35 0 0 1-90.39-36.22c-52.12-49.86-53.97-132.83-4.12-184.95l1.4-1.46 189.07 180.83-1.4 1.46a130.47 130.47 0 0 1-94.56 40.34zm-92.98-216.92c-46.9 50.6-44.66 129.93 5.38 177.79 50.03 47.85 129.39 46.55 177.85-2.55L252.45 414.72z"/><path fill="#FFD829" d="M268.33 427.12c-40.74 42.6-39.23 110.15 3.36 150.9 42.6 40.73 110.16 39.23 150.9-3.37L268.33 427.12z"/><path d="M345.4 609.63a108 108 0 0 1-75.1-30.16 108.02 108.02 0 0 1-33.55-76.16 108.04 108.04 0 0 1 30.12-77.58l1.4-1.46 157.16 150.32-1.39 1.45a108.03 108.03 0 0 1-78.65 33.59zm-77-179.65a104 104 0 0 0-27.62 73.24c.62 27.96 12.1 54 32.3 73.34a104.01 104.01 0 0 0 74.71 29 104 104 0 0 0 71.93-30.86L268.41 429.98z"/><path fill="#FFD829" d="M334.5 490.91s-43.92-20.04-51.53-26.38-8.64-17.65-2.3-25.26l53.84 51.64z"/><path d="m344.46 497.67-10.79-4.92c-1.8-.83-44.26-20.23-52-26.67a19.82 19.82 0 0 1-7.09-13.52 19.82 19.82 0 0 1 4.54-14.58l1.39-1.66 63.95 61.35zm-63.52-55.35a15.8 15.8 0 0 0-2.35 9.88c.39 4.23 2.4 8.06 5.67 10.79 4.98 4.14 26.63 14.64 40.1 20.98l-43.42-41.65z"/><path fill="#FFD829" d="M356.13 511.6s21.98 42.99 28.65 50.31a17.93 17.93 0 0 0 25.34 1.17l-53.99-51.49z"/><path d="M398.06 569.78c-.32 0-.63 0-.94-.02a19.82 19.82 0 0 1-13.83-6.5c-6.78-7.42-28.05-48.98-28.95-50.75l-5.4-10.56 64.13 61.16-1.6 1.46a19.8 19.8 0 0 1-13.41 5.2zm-34.54-48.36c6.94 13.18 18.38 34.34 22.75 39.13a15.94 15.94 0 0 0 20.79 2.4l-43.54-41.53z"/><path fill="#FFD829" d="M280.63 523.7a17.93 17.93 0 1 1-3.25-35.72c9.87-.9 57.44 12.79 57.44 12.79s-44.32 22.04-54.19 22.94z"/><path d="M279 525.8c-10.2 0-18.92-7.8-19.86-18.15a19.97 19.97 0 0 1 18.06-21.67c10.15-.92 56.22 12.3 58.18 12.85l4.98 1.44-4.64 2.3c-1.82.91-44.78 22.22-54.9 23.15-.62.05-1.23.08-1.83.08zm-.51-35.85a15.94 15.94 0 0 0-15.33 17.33 15.94 15.94 0 0 0 17.29 14.42c6.93-.63 34.24-13.35 48.77-20.42-14.96-4.16-42.44-11.33-50.73-11.33z"/><path fill="#FFD829" d="M327.01 568.07a17.94 17.94 0 0 0 35.83 1.65c.46-9.9-15.33-56.81-15.33-56.81s-20.04 45.26-20.5 55.16z"/><path d="M344.95 588.85A19.97 19.97 0 0 1 325 567.98c.47-10.16 19.84-54.03 20.67-55.9l2.1-4.73 1.65 4.91c.65 1.93 15.9 47.4 15.44 57.55a19.82 19.82 0 0 1-6.5 13.82 19.8 19.8 0 0 1-13.41 5.22zm2.3-70.32c-6.42 14.83-17.9 42.68-18.23 49.63a15.94 15.94 0 0 0 26.63 12.5 15.82 15.82 0 0 0 5.18-11.03c.32-6.96-8.56-35.74-13.58-51.1z"/><path fill="#FFD829" d="M283 541.72a17.87 17.87 0 0 0 25.82 24.7c6.83-7.13 25.69-52.7 25.69-52.7s-44.7 20.87-51.51 28z"/><path d="M295.9 573.96a19.9 19.9 0 0 1-14.36-33.63c7-7.32 50.28-27.58 52.12-28.44l4.7-2.2-1.99 4.8c-.78 1.87-19.09 46-26.09 53.33a19.76 19.76 0 0 1-14.38 6.14zm-11.45-30.85a15.75 15.75 0 0 0-4.4 11.32c.1 4.23 1.84 8.17 4.9 11.1a16 16 0 0 0 11.31 4.4c4.24-.1 8.18-1.84 11.1-4.9 4.8-5 16.97-32.42 23.26-47.24-14.54 6.94-41.38 20.32-46.17 25.33z"/><path fill="#FFF" d="M356.83 679.14H142.46c-14.85 0-27-12.15-27-27v-52.3c0-14.85 12.15-27 27-27h214.37c14.85 0 27 12.15 27 27v52.3c0 14.85-12.15 27-27 27zm57.71-424.86h-331c-11 0-20.01-9-20.01-20.01v-15.22c0-11 9-20.01 20-20.01h331.01c11 0 20.01 9 20.01 20.01v15.22c0 11-9 20.01-20 20.01zM16.86 312.93C6.5 319.65.82 331.87 3 344.03a31.81 31.81 0 0 0 18.19 23.6c4.13 1.88 9.1 3.13 15.7 3.13 26.47 0 26.47-20 52.93-20s26.46 20 52.92 20 26.46-20 52.92-20 26.46 20 52.92 20c26.47 0 26.47-20 52.93-20s26.46 20 52.92 20c26.47 0 26.47-20 52.93-20s26.46 20 52.93 20c10.79 0 17.18-3.32 22.76-7.26.4-.28.8-.58 1.19-.88 16.89-13.1 15.07-39.24-2.98-50.68l-71.92-45.56H88.54l-71.68 46.55z"/><path d="M88.55 254.24h320.8v12.13H88.55z"/><path fill="#FFF" d="M424.51 823.74c-8.44 0-15.3-6.87-15.3-15.3 0-8.44 6.86-15.3 15.3-15.3s15.3 6.86 15.3 15.3c0 8.43-6.86 15.3-15.3 15.3zm0-26.58a11.29 11.29 0 0 0-11.27 11.27c0 6.22 5.06 11.28 11.27 11.28s11.28-5.06 11.28-11.28c0-6.21-5.06-11.27-11.28-11.27z"/><circle fill="#FFF" cx="80.06" cy="429.58" r="9.26"/><circle fill="#FFF" cx="77.3" cy="738.51" r="9.26"/><circle fill="#FFF" cx="238.48" cy="911.73" r="9.26"/><circle fill="#FFF" cx="345.62" cy="777.57" r="9.26"/><circle fill="#FFF" cx="439.46" cy="702.87" r="9.26"/><circle fill="#FFF" cx="375.09" cy="432.99" r="9.26"/><path fill="#FFF" d="M134.41 504.17c-8.43 0-15.3-6.86-15.3-15.3 0-8.44 6.86-15.3 15.3-15.3s15.3 6.86 15.3 15.3c0 8.44-6.86 15.3-15.3 15.3zm0-26.57a11.29 11.29 0 0 0-11.27 11.27 11.28 11.28 0 0 0 22.55 0c0-6.22-5.06-11.27-11.28-11.27zm305.39-36.26c-8.44 0-15.3-6.87-15.3-15.3 0-8.44 6.86-15.3 15.3-15.3s15.3 6.86 15.3 15.3c0 8.43-6.87 15.3-15.3 15.3zm0-26.58a11.29 11.29 0 0 0-11.28 11.27 11.28 11.28 0 1 0 11.27-11.27z"/><path d="M204.13 616.47h-17.4v-4.8h23.06v36.67c0 4.82-1.23 8.41-3.7 10.77-2.45 2.37-5.85 3.55-10.2 3.55-1.29 0-2.54-.17-3.76-.5a25.82 25.82 0 0 1-6.16-2.58c-.78-.48-1.37-.86-1.75-1.15l2.37-4.65a22.6 22.6 0 0 0 4.42 2.5 12.8 12.8 0 0 0 5.14 1.08c2.88 0 4.92-.9 6.15-2.69 1.22-1.79 1.83-4.26 1.83-7.4v-30.8zm-3.08-14.97c0-1.29.43-2.4 1.29-3.33a4.29 4.29 0 0 1 3.3-1.4c1.38 0 2.53.47 3.47 1.4s1.4 2.04 1.4 3.33c0 1.24-.47 2.3-1.4 3.15a4.93 4.93 0 0 1-3.48 1.3 4.47 4.47 0 0 1-3.3-1.3 4.29 4.29 0 0 1-1.28-3.15zm29.65 12.96a22.8 22.8 0 0 1 6.94-2.58c2.58-.52 5.11-.78 7.6-.78 2.43 0 4.42.38 5.97 1.14a9.7 9.7 0 0 1 5.45 7.13c.3 1.55.46 3.11.46 4.69 0 1.81-.05 3.75-.14 5.8-.1 2.05-.17 4.1-.22 6.16 0 2.39.15 4.65.43 6.8h4.8v4.66h-9.46l-.64-5.38h-.36c-.28.44-.71.98-1.29 1.65-.57.67-1.33 1.33-2.26 1.97a14.13 14.13 0 0 1-8.15 2.4c-3.55 0-6.35-.9-8.4-2.72-2.07-1.81-3.1-4.3-3.1-7.45 0-2.43.54-4.46 1.62-6.08a10.2 10.2 0 0 1 4.63-3.73 21.27 21.27 0 0 1 7.3-1.5c2.84-.15 6.04.04 9.58.57.24-2.2.28-4.02.11-5.48a7.52 7.52 0 0 0-1.15-3.47 4.8 4.8 0 0 0-2.51-1.83 12.8 12.8 0 0 0-4-.53c-2.15 0-4.2.3-6.17.9a62.3 62.3 0 0 0-5.25 1.82l-1.8-4.16zm10.6 28.86c1.33 0 2.57-.21 3.72-.64a11.3 11.3 0 0 0 5.16-3.83c.57-.79 1-1.54 1.28-2.26v-5.01a40.58 40.58 0 0 0-6.87-.65c-2.1 0-3.92.23-5.44.68a7.6 7.6 0 0 0-3.58 2.12 5.36 5.36 0 0 0-1.3 3.72c0 1.58.54 2.95 1.62 4.12 1.07 1.17 2.87 1.75 5.4 1.75zm43.4 4.16v-23.85c0-1-.04-1.97-.11-2.9a9.78 9.78 0 0 0-.5-2.5 4.03 4.03 0 0 0-1.15-1.76 2.92 2.92 0 0 0-1.97-.65c-1.62 0-3 .67-4.12 2a13.58 13.58 0 0 0-2.54 5.02v24.64h-5.44v-35.81h3.72l1.07 4.37h.29c.48-.72.94-1.4 1.4-2.04.45-.65.97-1.2 1.57-1.69a6.6 6.6 0 0 1 2.11-1.1 10.17 10.17 0 0 1 5.3-.08 6.27 6.27 0 0 1 3.8 2.83c.47.76.79 1.7.93 2.8a15.14 15.14 0 0 1 3.69-4.37c1.36-1.05 3.23-1.58 5.62-1.58a8.1 8.1 0 0 1 3.83.79 5.64 5.64 0 0 1 2.3 2.25c.54.98.92 2.15 1.14 3.51.21 1.36.32 2.88.32 4.55v25.57h-5.44v-24.35c0-1-.05-1.95-.15-2.83a9.08 9.08 0 0 0-.53-2.33 3.88 3.88 0 0 0-1.08-1.57 2.75 2.75 0 0 0-1.82-.58c-1.67 0-3.08.67-4.23 2-1.14 1.35-2 3.26-2.58 5.74v23.92h-5.44zM931.92 506.8v-34.79h-319.1v34.8c-46.9.72-88.59 22.9-115.65 57.2v405.5h582.62V656.97c0-82.18-66-148.93-147.87-150.17zm-29.3 239.9a37.38 37.38 0 0 1-37.26 37.26H671.52a37.38 37.38 0 0 1-37.27-37.27v-31.77a37.38 37.38 0 0 1 37.27-37.26h193.84a37.38 37.38 0 0 1 37.26 37.27v31.76z"/><path fill="#FFF" d="M938.34 473.77h-334.9a9.69 9.69 0 0 1-9.54-11.56l5.04-26.09a23.84 23.84 0 0 1 23.37-19.28h297.15c11.37 0 21.2 8.1 23.37 19.28l5.04 26.1a9.69 9.69 0 0 1-9.53 11.55zm-316.02-52.9a19.8 19.8 0 0 0-19.42 16.02l-5.05 26.09a5.67 5.67 0 0 0 5.59 6.76h334.9a5.67 5.67 0 0 0 5.58-6.76l-5.05-26.1a19.8 19.8 0 0 0-19.41-16.01H622.32z"/><path d="M667.78 701.14h11.17v18.76h.36a16.03 16.03 0 0 1 5.15-3.9 17 17 0 0 1 7.3-1.4c2.3 0 4.3.24 5.99.72a8.58 8.58 0 0 1 4.15 2.5 11.4 11.4 0 0 1 2.4 4.91c.53 2.08.79 4.72.79 7.91v20.63h-5.66v-19.55c0-2.05-.12-3.84-.36-5.37a9.4 9.4 0 0 0-1.39-3.83 6.45 6.45 0 0 0-2.81-2.33 11.38 11.38 0 0 0-4.57-.79c-1.29 0-2.55.23-3.78.68a12.64 12.64 0 0 0-3.4 1.86c-1.02.79-1.9 1.75-2.64 2.87a10.74 10.74 0 0 0-1.53 3.68v22.78h-5.51v-45.34h-5.66v-4.79zm46.76 32.23c0-5.78 1.5-10.35 4.51-13.72 3.01-3.37 7.3-5.05 12.9-5.05 3 0 5.59.5 7.76 1.47 2.17.98 3.98 2.3 5.4 3.98a16.24 16.24 0 0 1 3.2 5.94 25.4 25.4 0 0 1 1.03 7.38c0 2.86-.38 5.45-1.14 7.76a16.12 16.12 0 0 1-3.37 5.91 14.89 14.89 0 0 1-5.48 3.76 19.57 19.57 0 0 1-7.4 1.33c-2.97 0-5.55-.5-7.74-1.47a15.14 15.14 0 0 1-8.63-9.92 25.37 25.37 0 0 1-1.04-7.37zm5.95 0c0 1.67.2 3.34.6 5 .4 1.68 1.06 3.18 1.96 4.52.9 1.34 2.09 2.41 3.54 3.22 1.45.82 3.22 1.22 5.32 1.22 3.8 0 6.67-1.18 8.6-3.54 1.93-2.37 2.9-5.84 2.9-10.42 0-1.72-.21-3.4-.61-5.05a13.4 13.4 0 0 0-2-4.48 10.58 10.58 0 0 0-3.57-3.22 10.76 10.76 0 0 0-5.32-1.22c-3.81 0-6.66 1.17-8.57 3.51-1.9 2.34-2.86 5.83-2.86 10.46zm39.6-5.37a53.1 53.1 0 0 0-.15-3.84c-.04-.74-.1-1.46-.17-2.18a23.9 23.9 0 0 0-.26-1.86h-4.8v-4.66h9.6l.65 5.8h.35c.48-.8 1.11-1.6 1.9-2.4a14.8 14.8 0 0 1 10.35-4.26c2.2 0 4.14.24 5.84.72a8.9 8.9 0 0 1 4.22 2.54 11.79 11.79 0 0 1 2.54 4.94c.58 2.08.86 4.72.86 7.92v20.55h-5.65v-19.43c0-3.96-.65-6.94-1.93-8.94-1.28-2-3.62-3-7-3-1.23 0-2.43.25-3.6.75a13.26 13.26 0 0 0-5.67 4.79 11.8 11.8 0 0 0-1.57 3.4v22.43h-5.51V728zm74.19 18.76a17.9 17.9 0 0 1-3.04 2.15 22.48 22.48 0 0 1-3.84 1.72 28.2 28.2 0 0 1-8.88 1.5c-2.86 0-5.4-.44-7.59-1.32a14.61 14.61 0 0 1-5.51-3.8 16.54 16.54 0 0 1-3.37-5.9 24.4 24.4 0 0 1-1.14-7.74c0-3.01.42-5.68 1.25-8.02.84-2.34 2.04-4.3 3.62-5.87a15.76 15.76 0 0 1 5.73-3.62 21.45 21.45 0 0 1 7.52-1.25c2 0 3.98.26 5.94.78 1.96.53 3.69 1.52 5.2 2.98a14.17 14.17 0 0 1 3.47 6.01c.8 2.55 1.1 5.86.86 9.92h-27.65c0 4.3 1.16 7.5 3.46 9.63 2.31 2.13 5.4 3.19 9.25 3.19 1.29 0 2.56-.16 3.83-.47 1.26-.3 2.46-.68 3.6-1.1 1.15-.44 2.16-.91 3.04-1.44.88-.52 1.56-1 2.03-1.43l2.22 4.08zm-15.08-27.43c-1.57 0-3.06.17-4.46.5a9.27 9.27 0 0 0-6.35 4.76 12.36 12.36 0 0 0-1.32 4.7h22.2c-.24-3.16-1.25-5.6-3.04-7.35-1.78-1.74-4.13-2.61-7.03-2.61zm42.43 26.43h2.73l8.88-30.3h5.8l-9.96 32.16a110.2 110.2 0 0 0-1.61 5.7 26.6 26.6 0 0 1-2.33 5.97c-1 1.86-2.36 3.44-4.08 4.73-1.72 1.29-3.96 1.93-6.73 1.93-.62 0-1.28-.07-1.97-.21-.7-.15-1.37-.33-2.04-.54a13.1 13.1 0 0 1-1.87-.75c-.57-.29-1-.58-1.28-.86l2-5.16c.29.24.68.48 1.18.72.5.24 1.05.44 1.65.6.6.17 1.18.32 1.75.43.58.12 1.05.18 1.44.18 3.58 0 6.01-3.03 7.3-9.1h-4.8l-15.04-35.8h6.45l12.53 30.3z"/><path fill="#FFD829" d="m971.34 931.27-475.8 9.67c-14.89-31.94-57.23-55.07-107.23-55.24-62.53-.21-113.35 35.57-113.5 79.91-.15 44.35 50.42 80.47 112.95 80.68 50.96.18 94.14-23.56 108.45-56.35l474.75 14.6a36.64 36.64 0 1 0 .38-73.26z"/><path d="M388.32 1048.31h-.57c-30.65-.1-59.47-8.69-81.14-24.16-21.88-15.64-33.89-36.42-33.81-58.54.15-45.26 51.67-81.92 114.96-81.92h.55c49 .16 92.37 22.3 108.49 55.2l474.5-9.63a38.45 38.45 0 0 1 27.89 11.09 38.36 38.36 0 0 1 11.55 27.7 38.35 38.35 0 0 1-11.79 27.66 38.38 38.38 0 0 1-28.05 10.84L497.5 992c-7.38 15.97-21.83 30.22-40.83 40.26-19.89 10.5-43.5 16.05-68.35 16.05zm-.56-160.6c-61.08 0-110.79 34.87-110.93 77.91-.07 20.78 11.34 40.4 32.13 55.24 20.99 15 48.98 23.32 78.8 23.42h.56c24.19 0 47.16-5.38 66.47-15.58 18.7-9.88 32.75-23.93 39.57-39.56l.55-1.25 1.36.04 474.75 14.59c9.45.3 18.35-3.16 25.13-9.71a34.35 34.35 0 0 0 10.56-24.78 34.36 34.36 0 0 0-10.34-24.81 34.27 34.27 0 0 0-24.99-9.93l-477.1 9.69-.56-1.2c-15-32.17-57.37-53.9-105.42-54.06h-.54z"/><circle fill="#FFF" cx="971.5" cy="967.61" r="20.88"/><path fill="#FFF" d="M388.6 1035.25h-.5c-55.18-.19-99.96-31.38-99.83-69.54.06-18.62 10.63-36.05 29.75-49.06 18.9-12.85 43.92-19.89 70.54-19.8 26.6.1 51.6 7.3 70.4 20.28 19.04 13.14 29.49 30.63 29.43 49.26-.07 18.63-10.64 36.06-29.76 49.07-18.77 12.77-43.63 19.79-70.03 19.79zm-.55-134.36c-25.6 0-49.64 6.77-67.76 19.1-18 12.23-27.94 28.48-28 45.74-.12 35.93 42.86 65.3 95.82 65.49h.49c25.6 0 49.65-6.77 67.76-19.1 18-12.23 27.94-28.48 28-45.74.06-17.26-9.78-33.57-27.69-45.94-18.14-12.52-42.34-19.46-68.12-19.55h-.5zm107.06-10.76H1080v4.03H495.11z"/></svg>