<svg xmlns="http://www.w3.org/2000/svg" id="Layer_1" data-name="Layer 1" viewBox="0 0 1920 1080"><defs><style>.cls-1{fill:#fff}.cls-2{fill:#231f20}.cls-3{fill:#2e9aff}</style></defs><path d="M1792.53 192h64v64h-64zM1728.53 320h64v64h-64z" class="cls-1"/><path d="M1856.53 256h-64v192h64V320h64v-64h-64z" class="cls-2"/><path d="M1918.52 65.53V2.86H1792.53v62.67h-61.88v64h61.88v60.13H1918.52v-60.13h-61.99v-64h61.99z" class="cls-3"/><path d="M1856.53 0h-128v192h192V0Zm60 63.53h-58V4h58Zm-58 64v-60h58v60Zm-4 60.47h-60v-56.47h60Zm-60-60.47v-60h60v60Zm-4-60v60h-58v-60Zm4-63.53h60v59.53h-60Zm-4 0v59.53h-58V4Zm-58 127.53h58V188h-58Zm126 56.47v-56.47h58V188ZM1728 888h64v64h-64zM1856 888h64v64h-64z" class="cls-1"/><path d="M1792.12 824v256h64V824h-64z" class="cls-2"/><path d="M1856 761.53h61.99v60.14H1856zM1730.11 633.53v128h64v-64h123.88v-64h-187.88z" class="cls-3"/><path d="M1856 632h-128v192h192V632Zm-66 188h-58v-56.47h58Zm0-60.47h-58v-60h58Zm0-64h-58V636h58Zm4-59.53h60v59.53h-60Zm60 184h-60v-56.47h60Zm62 0h-58v-56.47h58Zm0-60.47h-58v-60h58Zm0-64h-58V636h58Z" class="cls-1"/><path d="M128 760H64v-64h64" class="cls-3"/><path d="M128 952h64v64h-64z" class="cls-2"/><path d="M64 824v64H0v64h64v128h64V824H64zM188 636v184H4V636h184m4-4H0v192h192V632Z" class="cls-1"/><path d="M64 696v-64h64v64M128 760v64H64v-64M64 760H0v-64h64M128 696h64v64h-64" class="cls-2"/><path d="M1596 4v1072H324V4h1272m4-4H320v1080h1280V0Z" class="cls-1"/><path d="M1473 955h-13v-4h9v-9.01h4V955zM1437.78 955h-22.22v-4h22.22Zm-44.44 0h-22.22v-4h22.22Zm-44.44 0h-22.23v-4h22.23Zm-44.44 0h-22.23v-4h22.23Zm-44.46 0h-22.22v-4H1260Zm-44.44 0h-22.22v-4h22.22Zm-44.44 0h-22.22v-4h22.22Zm-44.44 0h-22.22v-4h22.22Zm-44.44 0H1060v-4h22.22Zm-44.44 0h-22.22v-4h22.22Zm-44.44 0h-22.21v-4h22.22Zm-44.44 0h-22.21v-4h22.22Zm-44.44 0h-22.21v-4h22.22Zm-44.44 0h-22.21v-4h22.22Zm-44.45 0h-22.21v-4h22.22Zm-44.44 0h-22.21v-4h22.22Zm-44.44 0H704.5v-4h22.22Zm-44.44 0h-22.21v-4h22.22Zm-44.44 0h-22.21v-4h22.22Zm-44.44 0h-22.21v-4h22.22ZM549 955h-22.26v-4H549Zm-44.44 0H482.3v-4h22.22ZM460 955h-13v-13.01h4V951h9v4zM451 920.26h-4v-21.71h4Zm0-43.42h-4v-21.72h4Zm0-43.43h-4v-21.72h4Zm0-43.41h-4v-21.74h4Zm0-43.43h-4v-21.73h4Zm0-43.43h-4v-21.73h4Zm0-43.43h-4V638h4Zm0-43.42h-4v-21.74h4Zm0-43.43h-4v-21.74h4Zm0-43.43h-4v-21.74h4Zm0-43.43h-4v-21.73h4Zm0-43.43h-4v-21.73h4Zm0-43.43h-4v-21.73h4Zm0-43.42h-4V334h4Zm0-43.43h-4v-21.74h4Zm0-43.43h-4v-21.73h4Zm0-43.43h-4V203.7h4Zm0-43.43h-4v-21.73h4ZM451 138.01h-4V125h13v4h-9v9.01zM1437.7 129h-22.22v-4h22.22Zm-44.44 0H1371v-4h22.22Zm-44.44 0h-22.22v-4h22.22Zm-44.44 0h-22.22v-4h22.22Zm-44.44 0h-22.22v-4h22.22Zm-44.44 0h-22.22v-4h22.22Zm-44.44 0h-22.22v-4h22.22Zm-44.44 0h-22.22v-4h22.22Zm-44.45 0H1060v-4h22.21Zm-44.44 0h-22.22v-4h22.22Zm-44.44 0h-22.22v-4h22.22Zm-44.44 0h-22.22v-4h22.22Zm-44.44 0h-22.22v-4h22.22ZM860 129h-22.25v-4H860Zm-44.44 0h-22.25v-4h22.22Zm-44.44 0h-22.25v-4h22.22Zm-44.44 0h-22.25v-4h22.22Zm-44.44 0H660v-4h22.22Zm-44.44 0h-22.25v-4h22.22Zm-44.44 0H571.1v-4h22.23Zm-44.45 0h-22.25v-4h22.22Zm-44.44 0h-22.25v-4h22.22ZM1473 138.01h-4V129h-9v-4h13v13.01zM1473 919.73h-4V898h4Zm0-43.43h-4v-21.71h4Zm0-43.43h-4v-21.71h4Zm0-43.42h-4v-21.72h4Zm0-43.43h-4V724.3h4Zm0-43.43h-4v-21.71h4Zm0-43.43h-4v-21.71h4Zm0-43.43h-4V594h4Zm0-43.42h-4v-21.72h4Zm0-43.43h-4v-21.72h4Zm0-43.43h-4v-21.72h4Zm0-43.43h-4v-21.71h4Zm0-43.43h-4v-21.71h4Zm0-43.43h-4v-21.71h4Zm0-43.42h-4V290h4Zm0-43.43h-4v-21.72h4Zm0-43.43h-4v-21.71h4Zm0-43.43h-4v-21.71h4Z" class="cls-1"/><path d="M752 348h64v64h-64z" class="cls-3"/><path d="M818 414h-68v-68h68Zm-64-4h60v-60h-60Z" class="cls-3"/><path d="M624 348h64v64h-64z" class="cls-2"/><path d="M752 284h64v64h-64zM944 476H816v-64h-64v-64h-64v64h-64v64h128v320h64V668h64v128h64V668h64V476h-64zM1072 732h64v64h-64zM1200 732h64v64h-64zM1200 284h-64v64h64v64h64V284h-64z" class="cls-1"/><path d="M880 284h-64v192h128V284h-64zM1200 412v64h-192v192h64v64h64v-64h64v64h64V412h-64zM0 256h64v64H0zM128 256h64v64h-64z" class="cls-2"/><path d="M64 192v256h64V192H64z" class="cls-1"/><path d="M2 2h188v188H2z" class="cls-3"/><path d="M128 0H0v192h192V0ZM4 4h58v59.53H4Zm0 63.53h58v60H4ZM62 188H4v-56.47h58Zm64 0H66v-56.47h60Zm0-124.47H66V4h60ZM188 188h-58v-56.47h58Zm0-60.47h-58v-60h58Zm0-64h-58V4h58Z" class="cls-1"/></svg>