<svg xmlns="http://www.w3.org/2000/svg" id="Layer_1" data-name="Layer 1" viewBox="0 0 1080 1080"><defs><style>.cls-1{fill:#fff}.cls-2{fill:#231f20}.cls-3{fill:#2e9aff}</style></defs><path d="M678 126h42v42h-42zM636 210h42v42h-42z" class="cls-1"/><path d="M720 168h-42v126h42v-84h42v-42h-42z" class="cls-2"/><path d="M760.68 43V1.88H678V43h-40.61v42H678v39.47h82.68V85H720V43h40.68z" class="cls-3"/><path d="M720 0h-84v126h126V0Zm38 41h-36V4h36Zm-36 42V45h36v38Zm-4 39h-38V87h38Zm-38-39V45h38v38Zm-4-38v38h-36V45Zm4-41h38v37h-38Zm-4 0v37h-36V4Zm-36 83h36v35h-36Zm82 35V87h36v35Z" class="cls-1"/><path d="M402 84h-42V42h42" class="cls-3"/><path d="M402 210h42v42h-42z" class="cls-2"/><path d="M360 126v42h-42v42h42v84h42V126h-42zM440 4v118H322V4h118m4-4H318v126h126V0Z" class="cls-1"/><path d="M360 42V0h42v42M402 84v42h-42V84M360 84h-42V42h42M402 42h42v42h-42" class="cls-2"/><path d="M381.37 589.15h42v42h-42z" class="cls-3"/><path d="M424.69 632.46h-44.63v-44.62h44.63Zm-42-2.62h39.37v-39.38h-39.37Z" class="cls-3"/><path d="M297.37 589.15h42v42h-42z" class="cls-2"/><path d="M381.37 547.15h42v42h-42zM507.37 673.15h-84v-42h-42v-42h-42v42h-42v42h84v210h42v-84h42v84h42v-84h42v-126h-42zM591.37 841.15h42v42h-42zM675.37 841.15h42v42h-42zM675.37 547.15h-42v42h42v42h42v-84h-42z" class="cls-1"/><path d="M465.37 547.15h-42v126h84v-126h-42zM675.37 631.15v42h-126v126h42v42h42v-42h42v42h42v-210h-42z" class="cls-2"/><path d="M1076 376.12v700H4v-700h1072m4-4H0v708h1080v-708Z" class="cls-1"/><path d="M997 997.12h-13v-4h9v-9.02h4v13.02zM962.34 997.11h-21.65v-4h21.65Zm-43.3 0h-21.65v-4H919Zm-43.3 0h-21.66v-4h21.66Zm-43.31 0h-21.65v-4h21.65Zm-43.3 0h-21.65v-4h21.65Zm-43.3 0h-21.65v-4h21.65Zm-43.3 0h-21.65v-4h21.65Zm-43.3 0h-21.65v-4h21.65Zm-43.3 0h-21.65v-4h21.65Zm-43.3 0H551v-4h21.65Zm-43.31 0h-21.65v-4h21.65Zm-43.3 0h-21.65v-4H486Zm-43.3 0h-21.65v-4h21.65Zm-43.3 0h-21.65v-4h21.65Zm-43.3 0h-21.65v-4h21.65Zm-43.3 0h-21.65v-4h21.65Zm-43.3 0h-21.65v-4h21.65Zm-43.31 0h-21.65v-4h21.65Zm-43.3 0h-21.65v-4h21.65Zm-43.3 0H118v-4h21.65ZM96 997.12H83V984.1h4v9.02h9v4zM87 961.67h-4v-22.41h4Zm0-44.82h-4v-22.41h4ZM87 872h-4v-22.38h4Zm0-44.83h-4v-22.38h4Zm0-44.82h-4V760h4Zm0-44.82h-4v-22.38h4Zm0-44.82h-4v-22.38h4Zm0-44.82h-4v-22.38h4Zm0-44.82h-4v-22.38h4Zm0-44.82h-4v-22.39h4Zm0-44.83h-4V491h4ZM87 468.13h-4v-13.01h13v4h-9v9.01zM962 459.11h-21.61v-4H962Zm-43.3 0h-21.61v-4h21.65Zm-43.3 0h-21.61v-4h21.65Zm-43.31 0h-21.61v-4h21.65Zm-43.3 0h-21.61v-4h21.65Zm-43.3 0h-21.61v-4h21.65Zm-43.3 0h-21.61v-4h21.65Zm-43.3 0h-21.61v-4h21.65Zm-43.3 0H594v-4h21.65Zm-43.3 0h-21.61v-4h21.65Zm-43.31 0h-21.61v-4H529Zm-43.3 0h-21.61v-4h21.65Zm-43.3 0h-21.61v-4h21.65Zm-43.3 0h-21.61v-4h21.65Zm-43.3 0h-21.61v-4h21.65Zm-43.3 0h-21.61v-4h21.65Zm-43.3 0h-21.61v-4h21.65Zm-43.3 0h-21.62v-4h21.66Zm-43.31 0H161v-4h21.65Zm-43.3 0h-21.61v-4h21.65ZM997 468.13h-4v-9.01h-9v-4h13v13.01zM997 961.19h-4v-22.41h4Zm0-44.83h-4V894h4Zm0-44.82h-4v-22.41h4Zm0-44.82h-4v-22.41h4Zm0-44.82h-4v-22.41h4Zm0-44.82h-4v-22.41h4Zm0-44.82h-4v-22.41h4Zm0-44.82h-4V625h4Zm0-44.83h-4V580.2h4Zm0-44.82h-4v-22.41h4Zm0-44.79h-4v-22.44h4Z" class="cls-1"/><path d="M954 168h42v42h-42zM1038 168h42v42h-42z" class="cls-2"/><path d="M956 2h122v122H956z" class="cls-3"/><path d="M1038 0h-84v126h42v168h42V126h42V0Zm-44 122h-36V87h36Zm0-39h-36V45h36Zm0-42h-36V4h36Zm4-37h38v37h-38Zm0 83h38v35h-38Zm78 35h-36V87h36Zm0-39h-36V45h36Zm0-42h-36V4h36ZM0 168h42v42H0zM84 168h42v42H84z" class="cls-1"/><path d="M42.08 126v168h42V126h-42z" class="cls-2"/><path d="M84 85h40.68v39.46H84zM1.39 1v84h42V43h81.29V1H1.39z" class="cls-3"/><path d="M84 0H0v126h126V0Zm38 41H86V4h36ZM86 83V45h36v38Zm-4 39H44V87h38ZM40 45v38H4V45Zm4-41h38v37H44Zm-4 0v37H4V4ZM4 87h36v35H4Zm82 35V87h36v35Z" class="cls-1"/></svg>