<svg xmlns="http://www.w3.org/2000/svg" viewBox="0 0 1920 1080" xml:space="preserve"><path d="M1312.378 526.142H607.623a2 2 0 0 1-2-2V442.32a2 2 0 0 1 4 0v79.822h700.755v-89.976a2 2 0 0 1 4 0v91.976a2 2 0 0 1-2 2z"/><path fill="#FFF" d="M504.282 283.404c25.659 0 48.021-13.301 59.844-33.002-12.941-18.203-34.913-30.18-59.844-30.18-24.932 0-46.904 11.978-59.844 30.18 11.823 19.701 34.185 33.002 59.844 33.002zM708.38 284.405c25.659 0 48.021-13.301 59.844-33.002-12.941-18.203-34.913-30.18-59.844-30.18s-46.904 11.978-59.844 30.18c11.823 19.701 34.185 33.002 59.844 33.002z"/><path fill="#FFF" d="M676.212 444H534.785c-47.406 0-92.252-20.679-123.04-56.734-30.782-36.049-44.178-83.569-36.754-130.379.115-.728.231-1.452.349-2.17 3.4-20.827 6.224-38.196 8.568-52.677a638.893 638.893 0 0 1 39.988-141.284l14.847-36C445.041 9.486 459.213 0 475.731 0s30.691 9.485 36.989 24.756l42.808 103.804H657.68l42.808-103.804C706.785 9.485 720.958 0 737.476 0s30.691 9.485 36.988 24.756l24.648 59.769c15.659 37.972 26.247 77.742 31.471 118.208 2.657 20.584 4.977 42.975 6.896 66.551 3.648 44.806-11.751 89.477-42.25 122.559C764.671 424.989 721.292 444 676.212 444zM475.731 4c-14.866 0-27.622 8.537-33.29 22.281l-14.847 36a634.94 634.94 0 0 0-39.738 140.397 38944.031 38944.031 0 0 1-8.569 52.684c-.117.713-.232 1.43-.346 2.15-7.241 45.652 5.825 91.998 35.845 127.155C444.813 419.832 488.551 440 534.785 440h141.427c43.965 0 86.273-18.541 116.076-50.869 30.181-32.737 44.814-75.186 41.204-119.523-1.914-23.514-4.227-45.841-6.876-66.363-5.179-40.117-15.677-79.548-31.202-117.194l-24.648-59.769C765.098 12.537 752.342 4 737.476 4s-27.623 8.537-33.29 22.281L660.357 132.56H552.851l-43.83-106.279C503.354 12.537 490.598 4 475.731 4zM708.38 285.403c-24.542 0-47.442-12.137-61.256-32.467l-.764-1.124.764-1.124c13.814-20.33 36.714-32.468 61.256-32.468s47.442 12.138 61.257 32.468l.764 1.124-.764 1.124c-13.815 20.331-36.715 32.467-61.257 32.467zm-57.168-33.591c13.14 18.555 34.408 29.591 57.168 29.591 22.76 0 44.027-11.036 57.168-29.591-13.141-18.556-34.409-29.592-57.168-29.592-22.76.001-44.027 11.037-57.168 29.592zm-146.93 33.591c-24.542 0-47.442-12.137-61.257-32.467l-.764-1.124.764-1.124c13.815-20.33 36.715-32.468 61.257-32.468 24.542 0 47.441 12.138 61.256 32.468l.764 1.124-.764 1.124c-13.814 20.331-36.714 32.467-61.256 32.467zm-57.168-33.591c13.141 18.555 34.409 29.591 57.168 29.591s44.027-11.036 57.168-29.591c-13.141-18.556-34.409-29.592-57.168-29.592s-44.027 11.037-57.168 29.592z"/><path fill="#FFF" d="m592.513 299.637-47.322-147.223c-5.369-9.849 1.76-21.854 12.977-21.854h94.644c11.217 0 18.346 12.005 12.977 21.854l-47.322 147.223c-5.601 10.274-20.353 10.274-25.954 0z"/><path fill="#FFF" d="M605.49 309.343c-6.239 0-11.747-3.271-14.733-8.749-.06-.11-.11-.226-.148-.345L543.343 153.2c-2.768-5.215-2.624-11.342.397-16.428 3.054-5.143 8.447-8.213 14.428-8.213h94.644c5.981 0 11.375 3.07 14.428 8.213 3.021 5.086 3.165 11.213.397 16.428l-47.266 147.049a2.096 2.096 0 0 1-.148.345c-2.986 5.478-8.494 8.749-14.733 8.749zm-11.133-10.504c2.294 4.076 6.442 6.504 11.133 6.504s8.839-2.428 11.133-6.504l47.262-147.037c.038-.119.088-.234.148-.345 2.18-4 2.093-8.727-.232-12.643-2.326-3.917-6.434-6.255-10.989-6.255h-94.644c-4.555 0-8.663 2.338-10.989 6.255-2.326 3.916-2.413 8.643-.232 12.643.06.11.11.226.148.345l47.262 147.037z"/><path d="M523.845 130.559h-96.228l26.565-71.313c7.931-19.23 35.168-19.23 43.098 0l26.565 71.313zM785.589 130.559h-96.228l26.565-71.313c7.93-19.23 35.168-19.23 43.098 0l26.565 71.313z"/><path fill="#FFF" d="M650.672 366.363c-21.288 0-39.328-14.17-45.182-33.573-5.854 19.403-23.895 33.573-45.182 33.573-26.016 0-47.182-21.166-47.182-47.182a2 2 0 0 1 4 0c0 23.811 19.372 43.182 43.182 43.182s43.182-19.371 43.182-43.182a2 2 0 0 1 4 0c0 23.811 19.372 43.182 43.182 43.182s43.182-19.371 43.182-43.182a2 2 0 0 1 4 0c0 26.016-21.166 47.182-47.182 47.182z"/><path d="m605.491 287.01 11.534.001c6.48.001 10.529 7.015 7.289 12.627l-5.768 9.988-9.57 16.573c-1.55 2.685-5.426 2.684-6.975-.001l-9.568-16.575-5.766-9.989c-3.24-5.612.811-12.626 7.291-12.626l11.533.002zM283.437 364.608a2 2 0 0 1-1.13-3.652c68.735-46.91 137.129-56.772 182.4-56.785h.089c49.032 0 82.319 11.25 82.65 11.363a2 2 0 0 1-1.3 3.783c-.325-.111-33.042-11.146-81.352-11.146h-.25c-44.667.035-112.15 9.795-179.982 56.09a1.989 1.989 0 0 1-1.125.347zM368.491 388.318a1.999 1.999 0 0 1-1.347-3.478c33.081-30.127 83.082-42.131 119.202-46.896 39.022-5.148 70.718-3.191 71.035-3.171a2 2 0 0 1 1.867 2.125c-.071 1.104-1.036 1.951-2.124 1.867-.313-.021-31.685-1.952-70.331 3.154-35.528 4.694-84.658 16.465-116.956 45.878a1.991 1.991 0 0 1-1.346.521zM475.73 408.016a2 2 0 0 1-1.613-3.182c33.187-45.347 88.884-54.954 89.442-55.046 1.088-.173 2.118.559 2.297 1.648s-.559 2.119-1.648 2.299c-.543.09-54.666 9.466-86.864 53.462-.39.535-.998.819-1.614.819zM937.089 364.608c-.388 0-.78-.112-1.125-.348-67.832-46.295-135.315-56.055-179.982-56.09h-.25c-48.315 0-81.027 11.035-81.352 11.146a2 2 0 0 1-1.3-3.783c.331-.113 33.623-11.363 82.65-11.363h.089c45.271.013 113.665 9.875 182.4 56.785a2 2 0 0 1-1.13 3.653zM852.035 388.318c-.481 0-.963-.172-1.346-.521-32.297-29.413-81.428-41.184-116.956-45.878-38.646-5.106-70.018-3.175-70.331-3.154-1.091.082-2.053-.764-2.124-1.867a2 2 0 0 1 1.867-2.125c.315-.02 32.012-1.977 71.035 3.171 36.121 4.766 86.122 16.77 119.202 46.896a2 2 0 0 1-1.347 3.478zM744.796 408.016a1.995 1.995 0 0 1-1.615-.818c-32.198-43.996-86.321-53.372-86.864-53.462a2 2 0 0 1 .649-3.947c.559.092 56.256 9.699 89.442 55.046a2 2 0 0 1-1.612 3.181z"/><circle cx="708.38" cy="251.812" r="30.063"/><circle cx="504.282" cy="251.812" r="30.063"/><path fill="#FFD829" d="m1502.018 85.287-24.648-59.769c-12.932-31.358-57.346-31.359-70.279 0l-43.318 105.041h-71.976c16.921 48.5 63.056 83.301 117.326 83.301 19.914 0 38.73-4.693 55.413-13.022 16.315 27.61 43.006 48.354 74.706 56.875-1.857-20.973-3.881-39.177-5.888-54.725-5.219-40.442-15.789-80.002-31.336-117.701z"/><path d="m1541.488 260.389-2.765-.743c-30.958-8.322-58.177-28.756-74.956-56.203-17.117 8.241-35.492 12.418-54.645 12.418-53.643 0-101.552-34.015-119.215-84.642l-.928-2.659h73.454l42.809-103.804C1411.54 9.485 1425.713 0 1442.23 0c16.519 0 30.691 9.485 36.988 24.756l24.648 59.769c15.66 37.972 26.248 77.743 31.471 118.208 2.207 17.095 4.19 35.534 5.897 54.805l.254 2.851zm-76.178-62.172.948 1.604c15.673 26.522 41.339 46.505 70.734 55.181-1.643-18.173-3.532-35.571-5.621-51.758-5.178-40.117-15.676-79.547-31.201-117.194l-24.648-59.769C1469.854 12.537 1457.098 4 1442.23 4c-14.866 0-27.622 8.537-33.29 22.281l-43.828 106.278h-70.465c17.83 47.551 63.477 79.301 114.476 79.301 19.148 0 37.491-4.311 54.52-12.811l1.667-.832z"/><path fill="#FFF" d="M1209.037 283.404c25.659 0 48.021-13.301 59.844-33.002-12.941-18.203-34.913-30.18-59.844-30.18-24.932 0-46.904 11.978-59.844 30.18 11.823 19.701 34.185 33.002 59.844 33.002zM1413.135 283.404c25.659 0 48.021-13.301 59.844-33.002-12.941-18.203-34.913-30.18-59.844-30.18-24.932 0-46.904 11.978-59.844 30.18 11.824 19.701 34.185 33.002 59.844 33.002z"/><circle fill="#FFD829" cx="1209.037" cy="251.812" r="30.063"/><circle fill="#FFD829" cx="1413.135" cy="251.812" r="30.063"/><path d="M1464.536 200.839c-16.683 8.329-35.499 13.022-55.413 13.022-54.27 0-100.405-34.801-117.326-83.301h-32.853l-43.318-105.041c-12.932-31.358-57.347-31.358-70.279 0l-14.846 36a636.044 636.044 0 0 0-39.863 140.841 39063.276 39063.276 0 0 1-8.569 52.68c-.117.716-.233 1.436-.348 2.16-15.385 97.005 59.601 184.8 157.819 184.8h141.427c93.278 0 166.843-79.584 159.274-172.555-.326-4.007-.66-7.91-.998-11.731-31.7-8.522-58.392-29.266-74.707-56.875zM1158.938 59.246c7.931-19.23 35.168-19.23 43.098 0l26.565 71.313h-96.228l26.565-71.313zm50.099 224.158c-24.788 0-46.647-12.526-59.602-31.591h119.205c-12.956 19.065-34.815 31.591-59.603 31.591zm204.098 0c-24.788 0-46.647-12.526-59.602-31.591h119.204c-12.955 19.065-34.814 31.591-59.602 31.591z"/><path d="M1380.968 444H1239.54c-47.406 0-92.253-20.679-123.04-56.734-30.781-36.049-44.178-83.57-36.754-130.379.116-.729.231-1.452.35-2.17 3.4-20.827 6.224-38.196 8.568-52.677a638.901 638.901 0 0 1 39.988-141.284l14.847-36C1149.796 9.485 1163.969 0 1180.487 0s30.69 9.485 36.987 24.756l42.809 103.804h32.935l.468 1.341c17.103 49.023 63.494 81.96 115.438 81.96 19.148 0 37.491-4.311 54.52-12.811l1.667-.833.948 1.604c16.163 27.352 42.955 47.749 73.505 55.961l1.35.363.123 1.393c.338 3.825.673 7.732.999 11.745 3.648 44.806-11.751 89.477-42.25 122.559-30.559 33.147-73.939 52.158-119.018 52.158zM1180.487 4c-14.867 0-27.623 8.537-33.291 22.281l-14.847 36a634.889 634.889 0 0 0-39.736 140.397c-2.345 14.482-5.17 31.854-8.57 52.684-.116.713-.231 1.431-.346 2.152-7.241 45.65 5.824 91.996 35.845 127.153C1149.568 419.832 1193.306 440 1239.54 440h141.428c43.965 0 86.272-18.541 116.076-50.869 30.181-32.738 44.813-75.186 41.204-119.523-.287-3.521-.579-6.96-.875-10.334-30.399-8.547-57.07-28.783-73.605-55.83-17.117 8.24-35.492 12.417-54.645 12.417-53.168 0-100.703-33.415-118.738-83.301h-32.779l-43.828-106.278C1208.109 12.537 1195.354 4 1180.487 4zm232.649 281.403c-24.543 0-47.442-12.137-61.257-32.467l-2.123-3.124h126.759l-2.123 3.124c-13.815 20.331-36.714 32.467-61.256 32.467zm-55.698-31.591a70 70 0 0 0 55.698 27.591 69.996 69.996 0 0 0 55.697-27.591h-111.395zm-148.401 31.591c-24.542 0-47.441-12.137-61.256-32.467l-2.123-3.124h126.759l-2.123 3.124c-13.815 20.331-36.715 32.467-61.257 32.467zm-55.697-31.591a69.998 69.998 0 0 0 55.697 27.591 70 70 0 0 0 55.698-27.591H1153.34zm78.139-121.252h-101.985l27.595-74.076c3.983-9.659 12.949-15.66 23.398-15.66 10.448 0 19.414 6.001 23.397 15.66l27.595 74.076zm-96.227-4h90.47l-25.56-68.615c-3.329-8.068-10.878-13.121-19.675-13.121-8.787 0-16.327 5.039-19.688 13.154l-25.547 68.582z"/><path fill="none" d="M1209.037 283.404c24.788 0 46.647-12.526 59.602-31.591h-119.205c12.956 19.065 34.816 31.591 59.603 31.591zM1228.6 130.559l-26.565-71.313c-7.931-19.23-35.167-19.23-43.098 0l-26.564 71.313h96.227zM1413.135 283.404c24.788 0 46.647-12.526 59.602-31.591h-119.204c12.956 19.065 34.815 31.591 59.602 31.591z"/><path fill="#FFF" d="M1493.224 132.56h-101.985l27.595-74.076c3.983-9.659 12.949-15.66 23.397-15.66h.001c10.448 0 19.414 6.001 23.396 15.66l27.596 74.076zm-96.228-4h90.47l-25.561-68.615c-3.328-8.068-10.877-13.121-19.674-13.121-8.786 0-16.327 5.039-19.688 13.154l-25.547 68.582z"/><path fill="#FFD829" d="M1335.677 359.827v25.362c0 14.046-11.386 25.432-25.432 25.432s-25.432-11.386-25.432-25.432v-25.364s21.747-9.948 25.432-33.684c0 0 3.309 25.62 25.432 33.686z"/><path fill="#FFF" d="M1355.428 366.363c-21.288 0-39.328-14.17-45.183-33.573-5.854 19.403-23.895 33.573-45.182 33.573-26.016 0-47.182-21.166-47.182-47.182a2 2 0 0 1 4 0c0 23.811 19.371 43.182 43.182 43.182s43.182-19.371 43.182-43.182a2 2 0 0 1 4 0c0 23.811 19.372 43.182 43.183 43.182s43.182-19.371 43.182-43.182a2 2 0 0 1 4 0c-.001 26.016-21.167 47.182-47.182 47.182z"/><path fill="#FFF" d="m1310.246 287.01 11.534.001c6.48.001 10.529 7.015 7.289 12.627l-5.768 9.988-9.57 16.573c-1.55 2.685-5.426 2.684-6.975-.001l-9.568-16.575-5.766-9.989c-3.239-5.612.811-12.626 7.291-12.626l11.533.002z"/><path fill="#FFD829" d="M1267.907 332.466c-.257 0-.518-.05-.77-.154-.584-.243-59.451-24.2-147.669-9.55a2 2 0 1 1-.656-3.946c89.43-14.857 149.272 9.556 149.867 9.804a2 2 0 0 1-.772 3.846zM1170.786 377.274a2 2 0 0 1-1.238-3.572c44.146-34.768 100.377-29.067 100.94-29.003a2 2 0 0 1-.434 3.976c-.549-.06-55.202-5.562-98.031 28.169a1.98 1.98 0 0 1-1.237.43zM1353.632 332.467a2.001 2.001 0 0 1-.773-3.846c.595-.249 60.438-24.66 149.866-9.804a2 2 0 0 1-.656 3.946c-88.307-14.663-147.084 9.305-147.667 9.55a2.034 2.034 0 0 1-.77.154zM1450.753 377.274c-.434 0-.87-.14-1.236-.429-42.83-33.731-97.483-28.229-98.031-28.169a2 2 0 0 1-.434-3.976c.563-.062 56.796-5.764 100.94 29.003a2 2 0 0 1-1.239 3.571z"/><path fill="#FFF" d="M813.019 908.174c10.48 17.463 30.3 29.252 53.044 29.252 22.743 0 42.564-11.789 53.044-29.252M993.924 908.174c10.48 17.463 30.3 29.252 53.044 29.252s42.564-11.789 53.044-29.252"/><path fill="#FFF" d="M1018.455 1080H893.099c-42.085 0-81.898-18.357-109.23-50.366-27.327-32.003-39.22-74.191-32.629-115.747l.31-1.923c3.014-18.462 5.517-33.856 7.595-46.691a566.551 566.551 0 0 1 35.458-125.279l13.159-31.909c5.618-13.621 18.261-22.083 32.996-22.083 14.734 0 27.377 8.462 32.995 22.083l37.885 91.867h29.202l.468 1.341c15.128 43.361 56.161 72.494 102.105 72.494 16.937 0 33.161-3.812 48.223-11.331l1.667-.833.948 1.604c14.296 24.192 37.993 42.234 65.016 49.498l1.35.363.123 1.392c.3 3.392.597 6.855.886 10.412 3.238 39.777-10.433 79.436-37.508 108.805-27.132 29.426-65.642 46.303-105.663 46.303zM840.756 690.001c-13.083 0-24.31 7.513-29.297 19.608l-13.159 31.91a562.552 562.552 0 0 0-35.208 124.393 34581.347 34581.347 0 0 1-7.596 46.697l-.306 1.904c-6.407 40.399 5.154 81.412 31.721 112.523 26.571 31.117 65.275 48.964 106.188 48.964h125.356c38.906 0 76.346-16.407 102.719-45.015 26.708-28.971 39.657-66.533 36.463-105.77-.25-3.064-.504-6.061-.762-9.001-26.87-7.598-50.449-25.481-65.115-49.369-15.151 7.261-31.407 10.94-48.349 10.94-47.17 0-89.346-29.609-105.405-73.835h-29.047l-38.906-94.342c-4.988-12.094-16.214-19.607-29.297-19.607zm45.526 113.95H795.23l24.576-65.973c3.567-8.648 11.594-14.021 20.95-14.021 9.355 0 17.382 5.373 20.949 14.021l24.577 65.973zm-85.293-4h79.534l-22.541-60.512c-2.912-7.058-9.522-11.482-17.226-11.482-7.693 0-14.295 4.412-17.239 11.516l-22.528 60.478z"/><path fill="none" d="M866.062 937.427c21.971 0 41.346-11.103 52.829-28.001H813.233c11.483 16.898 30.859 28.001 52.829 28.001zM883.402 801.951l-23.546-63.209c-7.029-17.045-31.171-17.045-38.201 0l-23.546 63.209h85.293z"/><path fill="#FFF" d="M1118.281 803.951h-91.05l24.576-65.973c3.566-8.648 11.594-14.021 20.949-14.021 9.354 0 17.382 5.372 20.948 14.021l24.577 65.973zm-85.292-4h79.534l-22.541-60.512c-2.912-7.058-9.522-11.481-17.226-11.481-7.693 0-14.295 4.411-17.238 11.515l-22.529 60.478z"/><path d="m1160.99 917.331-2.765-.743c-27.43-7.374-51.555-25.455-66.466-49.742-15.151 7.261-31.407 10.94-48.349 10.94-47.644 0-90.194-30.211-105.882-75.176l-.928-2.659h65.274l37.886-91.867c5.617-13.621 18.262-22.084 32.995-22.084.001 0 0 0 0 0 14.734.001 27.377 8.463 32.994 22.084l21.848 52.977c13.888 33.674 23.278 68.945 27.91 104.833 1.955 15.144 3.715 31.49 5.229 48.586l.254 2.851zm-67.689-55.709.948 1.604c13.806 23.362 36.377 40.988 62.244 48.712-1.449-15.993-3.113-31.298-4.951-45.533-4.588-35.54-13.888-70.47-27.641-103.819l-21.848-52.977c-4.988-12.095-16.214-19.608-29.297-19.609-13.083 0-24.31 7.514-29.298 19.609l-38.905 94.342h-62.281c15.852 41.89 56.14 69.835 101.139 69.835 16.937 0 33.161-3.812 48.223-11.331l1.667-.833zM892.709 908.174c0 14.717-11.93 26.647-26.647 26.647s-26.647-11.93-26.647-26.647M1073.447 908.174c0 14.717-11.93 26.647-26.647 26.647s-26.647-11.93-26.647-26.647"/><path fill="#FFF" d="M995.817 1011.187c-18.715 0-34.613-12.288-40.048-29.222-5.435 16.934-21.333 29.222-40.048 29.222-23.185 0-42.047-18.862-42.047-42.048a2 2 0 0 1 4 0c0 20.979 17.068 38.048 38.047 38.048s38.048-17.068 38.048-38.048a2 2 0 0 1 4 0c0 20.979 17.068 38.048 38.048 38.048s38.048-17.068 38.048-38.048a2 2 0 0 1 4 0c0 23.185-18.862 42.048-42.048 42.048z"/><path d="m955.77 940.623 10.223.001c5.743 0 9.333 6.218 6.461 11.192l-5.112 8.853-8.483 14.69c-1.374 2.38-4.809 2.379-6.183 0l-8.48-14.691-5.111-8.854c-2.871-4.974.719-11.191 6.462-11.191h10.223zM670.313 1009.631a2 2 0 0 1-1.13-3.652c60.973-41.612 121.642-50.36 161.801-50.372h.078c43.498 0 73.04 9.984 73.333 10.085a2 2 0 0 1-1.3 3.783c-.289-.099-29.257-9.868-72.035-9.868l-.239.001c-39.554.033-99.313 8.679-159.383 49.676a1.987 1.987 0 0 1-1.125.347zM745.702 1030.646a1.999 1.999 0 0 1-1.347-3.478c16.208-14.762 47.717-33.965 105.78-41.625 34.609-4.563 62.728-2.829 63.007-2.812a2 2 0 0 1 1.867 2.125c-.07 1.103-1.03 1.953-2.124 1.867-1.104-.068-111.015-6.525-165.836 43.401a1.987 1.987 0 0 1-1.347.522zM840.755 1048.105a2 2 0 0 1-1.613-3.181c29.47-40.269 78.929-48.801 79.425-48.882a2.007 2.007 0 0 1 2.297 1.648 2.002 2.002 0 0 1-1.648 2.299c-.48.079-48.365 8.379-76.846 47.296-.391.537-.999.82-1.615.82zM1249.687 1009.631c-.389 0-.78-.112-1.125-.348-60.069-40.997-119.829-49.643-159.383-49.676l-.239-.001c-42.782 0-71.747 9.77-72.035 9.868a2.004 2.004 0 0 1-2.541-1.242 2 2 0 0 1 1.241-2.541c.294-.101 29.84-10.085 73.333-10.085h.078c40.158.012 100.828 8.76 161.8 50.372a2 2 0 0 1-1.129 3.653zM1174.297 1030.646c-.48 0-.962-.172-1.346-.521-54.822-49.928-164.731-43.473-165.835-43.401-1.108.085-2.054-.765-2.125-1.867a2 2 0 0 1 1.867-2.125c.279-.018 28.398-1.753 63.007 2.812 58.062 7.66 89.571 26.863 105.779 41.625a2 2 0 0 1-1.347 3.477zM1079.246 1048.105a1.997 1.997 0 0 1-1.616-.818c-28.515-38.964-76.365-47.218-76.846-47.297a2 2 0 1 1 .649-3.947c.496.081 49.955 8.613 79.426 48.881a2.002 2.002 0 0 1-1.613 3.181zM204.335 821.666a2 2 0 0 1-2-2V603.507a2 2 0 0 1 2-2H953.77v-77.365a2 2 0 0 1 4 0v79.365a2 2 0 0 1-2 2H206.335v214.159a2 2 0 0 1-2 2z"/><path d="M955.77 803.632a2 2 0 0 1-2-2V603.507a2 2 0 0 1 2-2h759.896a2 2 0 0 1 2 2v196.159a2 2 0 0 1-4 0V605.507H957.77v196.125a2 2 0 0 1-2 2z"/><path fill="#FFF" d="M116.603 940.446c25.196 0 47.153-13.06 58.763-32.406-12.707-17.874-34.282-29.635-58.763-29.635S70.547 890.166 57.84 908.04c11.61 19.345 33.568 32.406 58.763 32.406zM297.509 940.446c25.196 0 47.153-13.06 58.763-32.406-12.707-17.874-34.282-29.635-58.763-29.635s-46.056 11.761-58.763 29.635c11.609 19.345 33.567 32.406 58.763 32.406z"/><circle fill="#FFD829" cx="116.603" cy="909.425" r="26.647"/><circle fill="#FFD829" cx="297.508" cy="909.425" r="26.647"/><path d="M410.171 925.054c-1.876-23.044-4.001-42.613-6.104-58.904-4.627-35.847-13.996-70.912-27.776-104.326l-21.847-52.977c-11.462-27.795-50.83-27.795-62.292 0l-38.396 93.104h-92.917l-38.396-93.104c-11.462-27.795-50.83-27.795-62.292 0l-13.159 31.909a563.725 563.725 0 0 0-35.333 124.836 36173.535 36173.535 0 0 1-7.595 46.693 386.45 386.45 0 0 0-.308 1.915C-9.882 1000.182 56.583 1078 143.64 1078h125.356c82.678 0 147.884-70.54 141.175-152.946zM72.197 738.741c7.029-17.045 31.171-17.045 38.201 0l23.546 63.209H48.651l23.546-63.209zm44.406 198.686c-21.971 0-41.346-11.103-52.829-28.001 11.483-16.899 30.858-28.002 52.829-28.002s41.346 11.103 52.829 28.002c-11.483 16.898-30.858 28.001-52.829 28.001zm180.905 0c-21.971 0-41.346-11.103-52.829-28.001 11.483-16.899 30.858-28.002 52.829-28.002s41.346 11.103 52.829 28.002c-11.482 16.898-30.858 28.001-52.829 28.001zm25.79-135.476h-42.646l23.546-63.209c7.029-17.045 31.171-17.045 38.201 0l23.546 63.209h-42.647z"/><path d="M268.996 1080H143.64c-42.085 0-81.898-18.357-109.23-50.366C7.082 997.631-4.811 955.442 1.78 913.887l.31-1.923c3.014-18.462 5.517-33.856 7.595-46.691a566.551 566.551 0 0 1 35.458-125.279l13.159-31.909c5.618-13.621 18.261-22.083 32.996-22.083 14.734 0 27.377 8.462 32.995 22.083l37.885 91.867h90.24l37.885-91.867c5.618-13.621 18.261-22.083 32.996-22.083 14.734 0 27.377 8.462 32.995 22.083l21.847 52.977c13.888 33.676 23.278 68.946 27.91 104.833 2.355 18.245 4.412 38.096 6.114 58.998 3.239 39.777-10.433 79.436-37.508 108.805-27.13 29.425-65.641 46.302-105.661 46.302zM91.297 690.001c-13.083 0-24.31 7.513-29.297 19.608l-13.159 31.909a562.552 562.552 0 0 0-35.208 124.393 34581.347 34581.347 0 0 1-7.596 46.697l-.307 1.906c-6.407 40.397 5.155 81.41 31.721 112.521C64.022 1058.153 102.727 1076 143.64 1076h125.356c38.906 0 76.345-16.407 102.718-45.015 26.708-28.971 39.657-66.533 36.463-105.77-1.697-20.84-3.747-40.627-6.094-58.811-4.587-35.538-13.887-70.468-27.641-103.819l-21.847-52.977C347.607 697.512 336.381 690 323.298 690c-13.083 0-24.31 7.513-29.297 19.608l-38.906 94.342H159.5l-38.906-94.342c-4.988-12.094-16.214-19.607-29.297-19.607zm206.211 249.426c-21.829 0-42.197-10.796-54.483-28.878l-.764-1.124.764-1.124c12.287-18.082 32.655-28.877 54.483-28.877s42.196 10.795 54.484 28.877l.764 1.124-.764 1.124c-12.287 18.082-32.655 28.878-54.484 28.878zm-50.393-30.002c11.612 16.308 30.347 26.002 50.393 26.002s38.781-9.694 50.394-26.002c-11.613-16.307-30.348-26.001-50.394-26.001s-38.78 9.694-50.393 26.001zm-130.512 30.002c-21.829 0-42.197-10.796-54.483-28.878l-.764-1.124.764-1.124c12.287-18.082 32.655-28.877 54.483-28.877 21.828 0 42.196 10.795 54.483 28.877l.764 1.124-.764 1.124c-12.287 18.082-32.654 28.878-54.483 28.878zM66.21 909.425c11.612 16.308 30.347 26.002 50.393 26.002 20.045 0 38.781-9.694 50.393-26.002-11.613-16.307-30.348-26.001-50.393-26.001s-38.78 9.694-50.393 26.001zm302.613-105.474h-91.051l24.551-65.908c3.592-8.713 11.619-14.086 20.975-14.086 9.355 0 17.382 5.373 20.949 14.021l24.576 65.973zm-85.292-4h79.534l-22.541-60.512c-2.912-7.058-9.522-11.482-17.226-11.482-7.704 0-14.314 4.425-17.251 11.547l-22.516 60.447zm-146.708 4H45.771l24.576-65.973c3.567-8.648 11.594-14.021 20.95-14.021 9.355 0 17.382 5.373 20.949 14.021l24.577 65.973zm-85.293-4h79.534l-22.541-60.512c-2.912-7.058-9.522-11.482-17.226-11.482-7.693 0-14.295 4.412-17.239 11.516L51.53 799.951z"/><path fill="#FFF" d="m194.808 950.815-41.944-130.493c-4.759-8.73 1.56-19.371 11.502-19.371h83.889c9.943 0 16.261 10.641 11.502 19.371l-41.944 130.493c-4.965 9.107-18.04 9.107-23.005 0z"/><path fill="#FFF" d="M206.311 959.646c-5.615 0-10.571-2.943-13.258-7.874-.06-.11-.11-.226-.148-.345l-41.888-130.32c-2.481-4.688-2.348-10.193.367-14.765 2.748-4.628 7.602-7.391 12.984-7.391h83.889c5.382 0 10.236 2.763 12.984 7.391 2.715 4.571 2.848 10.076.367 14.765l-41.888 130.32a2.096 2.096 0 0 1-.148.345c-2.69 4.93-7.647 7.874-13.261 7.874zm-9.659-9.63c1.994 3.529 5.591 5.63 9.658 5.63s7.664-2.101 9.658-5.63l41.885-130.307c.038-.119.088-.234.148-.345 1.894-3.474 1.818-7.578-.202-10.98-2.02-3.401-5.588-5.433-9.545-5.433h-83.889c-3.957 0-7.525 2.031-9.545 5.433-2.02 3.402-2.095 7.507-.202 10.98.06.11.11.226.148.345l41.886 130.307z"/><path d="M286.406 969.139c0 22.118-17.93 40.048-40.048 40.048s-40.048-17.93-40.048-40.048c0 22.118-17.93 40.048-40.048 40.048s-40.048-17.93-40.048-40.048"/><path fill="#FFF" d="M246.358 1011.187c-18.715 0-34.613-12.288-40.048-29.222-5.435 16.934-21.333 29.222-40.048 29.222-23.185 0-42.047-18.862-42.047-42.048a2 2 0 0 1 4 0c0 20.979 17.068 38.048 38.047 38.048s38.048-17.068 38.048-38.048a2 2 0 0 1 4 0c0 20.979 17.068 38.048 38.048 38.048s38.047-17.068 38.047-38.048a2 2 0 0 1 4 0c.001 23.185-18.862 42.048-42.047 42.048z"/><path fill="#FFD829" d="m206.311 940.623 10.223.001c5.743 0 9.333 6.218 6.46 11.192l-5.112 8.853-8.483 14.69c-1.374 2.38-4.809 2.379-6.183 0l-8.48-14.691-5.111-8.854c-2.871-4.974.719-11.191 6.462-11.191h10.224zM168.082 977.64c-.257 0-.518-.05-.769-.154-.13-.055-13.284-5.473-35.984-9.206-20.941-3.446-54.527-6.118-95.6.703a1.995 1.995 0 0 1-2.301-1.645 2 2 0 0 1 1.646-2.301c79.82-13.258 133.25 8.535 133.781 8.757a2 2 0 0 1-.773 3.846zM81.463 1017.604a2 2 0 0 1-1.239-3.572c39.442-31.064 89.682-25.965 90.184-25.912a1.999 1.999 0 1 1-.435 3.976c-.485-.054-49.147-4.95-87.274 25.078a1.98 1.98 0 0 1-1.236.43zM244.539 977.641a2.002 2.002 0 0 1-.772-3.846c.531-.222 53.961-22.017 133.781-8.757a2.001 2.001 0 0 1-.655 3.946c-41.146-6.832-74.782-4.141-95.754-.678-22.656 3.74-35.7 9.126-35.829 9.181a2.047 2.047 0 0 1-.771.154zM331.158 1017.604c-.433 0-.869-.14-1.236-.429-38.127-30.028-86.789-25.136-87.274-25.078a1.999 1.999 0 1 1-.435-3.976c.501-.055 50.742-5.152 90.184 25.912a2 2 0 0 1-1.239 3.571zM1776.364 1078c82.678 0 147.884-70.541 141.175-152.946-1.876-23.044-4.001-42.613-6.104-58.904-4.627-35.847-13.995-70.912-27.775-104.326l-21.847-52.977c-11.462-27.795-50.83-27.795-62.292 0l-38.396 93.104h-92.917l-38.396-93.104c-11.463-27.795-50.83-27.795-62.292 0l-13.159 31.909a563.725 563.725 0 0 0-35.333 124.836 36173.535 36173.535 0 0 1-7.595 46.693 386.45 386.45 0 0 0-.308 1.915c-13.637 85.982 52.828 163.8 139.885 163.8h125.354z"/><path d="M1776.364 1080h-125.356c-42.086 0-81.898-18.357-109.23-50.366-27.327-32.003-39.221-74.191-32.63-115.747l.311-1.923a36028.79 36028.79 0 0 0 7.594-46.691 566.5 566.5 0 0 1 35.459-125.279l13.159-31.909c5.617-13.621 18.261-22.083 32.995-22.083s27.378 8.462 32.995 22.083l37.886 91.867h90.239l37.886-91.867c5.617-13.621 18.262-22.083 32.995-22.083.001 0-.001 0 0 0 14.734 0 27.377 8.462 32.994 22.083l21.848 52.977c13.888 33.674 23.278 68.945 27.91 104.833 2.353 18.223 4.41 38.072 6.114 58.998 3.238 39.777-10.433 79.435-37.508 108.805-27.13 29.425-65.642 46.302-105.661 46.302zm-177.699-389.999c-13.083 0-24.31 7.513-29.298 19.608l-13.159 31.909a562.496 562.496 0 0 0-35.207 124.393 36253.565 36253.565 0 0 1-7.596 46.697l-.308 1.907c-6.406 40.396 5.155 81.409 31.722 112.521 26.57 31.117 65.275 48.964 106.188 48.964h125.356c38.906 0 76.346-16.407 102.719-45.016 26.708-28.97 39.657-66.532 36.463-105.769-1.699-20.863-3.75-40.649-6.095-58.811-4.588-35.54-13.888-70.47-27.641-103.819l-21.848-52.977c-4.988-12.095-16.214-19.608-29.297-19.608-13.083-.001-24.31 7.513-29.298 19.608l-38.905 94.342h-95.595l-38.905-94.342c-4.987-12.094-16.213-19.607-29.296-19.607z"/><path fill="#FFF" d="m1702.176 949.849-41.944-130.493c-4.759-8.73 1.56-19.371 11.502-19.371h83.889c9.943 0 16.261 10.641 11.502 19.371l-41.944 130.493c-4.965 9.107-18.041 9.107-23.005 0z"/><path fill="#FFF" d="M1713.679 958.68c-5.615 0-10.572-2.943-13.26-7.873a1.981 1.981 0 0 1-.148-.345l-41.889-130.32c-2.48-4.688-2.348-10.193.367-14.766 2.748-4.628 7.603-7.391 12.984-7.391h83.889c5.383 0 10.236 2.763 12.984 7.392 2.715 4.571 2.848 10.076.366 14.765l-41.889 130.32a2.096 2.096 0 0 1-.148.345c-2.685 4.929-7.642 7.873-13.256 7.873zm-9.66-9.629c1.995 3.528 5.593 5.629 9.659 5.629 4.067 0 7.664-2.101 9.658-5.629l41.884-130.307a2.06 2.06 0 0 1 .148-.345c1.894-3.474 1.818-7.578-.201-10.98-2.021-3.402-5.588-5.434-9.545-5.434h-83.889c-3.956 0-7.524 2.031-9.545 5.434-2.021 3.401-2.096 7.507-.202 10.98.061.11.109.226.148.345l41.885 130.307z"/><path d="M1641.311 801.951h-85.292l23.546-63.209c7.029-17.045 31.171-17.045 38.201 0l23.545 63.209zM1873.311 801.951h-85.292l23.546-63.209c7.029-17.045 31.171-17.045 38.201 0l23.545 63.209zM1753.726 1011.187c-18.715 0-34.613-12.288-40.048-29.222-5.435 16.934-21.333 29.222-40.048 29.222-23.186 0-42.048-18.862-42.048-42.048a2 2 0 0 1 4 0c0 20.979 17.068 38.048 38.048 38.048s38.048-17.068 38.048-38.048a2 2 0 0 1 4 0c0 20.979 17.068 38.048 38.048 38.048s38.048-17.068 38.048-38.048a2 2 0 0 1 4 0c0 23.185-18.862 42.048-42.048 42.048z"/><path d="m1713.679 940.623 10.223.001c5.743 0 9.333 6.218 6.46 11.192l-5.112 8.853-8.483 14.69c-1.374 2.38-4.809 2.379-6.183 0l-8.48-14.691-5.111-8.854c-2.871-4.974.719-11.191 6.462-11.191h10.224z"/><path d="M1735.566 1006.242v21.828c0 12.088-9.8 21.888-21.888 21.888-12.088 0-21.888-9.8-21.888-21.888v-21.83s18.716-8.562 21.888-28.99c0 0 2.847 22.051 21.888 28.992z"/><path fill="#FFF" d="M1675.45 979.221c-.257 0-.518-.05-.77-.154-.13-.055-13.283-5.473-35.983-9.206-20.941-3.445-54.527-6.117-95.6.703a1.99 1.99 0 0 1-2.301-1.645 2 2 0 0 1 1.645-2.301c79.826-13.26 133.251 8.535 133.781 8.757a2 2 0 0 1-.772 3.846zM1588.83 1019.186a2 2 0 0 1-1.238-3.572c39.442-31.065 89.682-25.968 90.185-25.912a1.999 1.999 0 0 1-.434 3.976c-.486-.053-49.147-4.95-87.275 25.078-.368.29-.805.43-1.238.43zM1751.906 979.221a2 2 0 0 1-.773-3.845c.53-.221 53.955-22.018 133.782-8.757a2 2 0 0 1 1.645 2.301 1.993 1.993 0 0 1-2.301 1.645c-41.072-6.82-74.658-4.147-95.6-.703-22.701 3.733-35.854 9.151-35.984 9.206a2.028 2.028 0 0 1-.769.153zM1838.527 1019.186c-.434 0-.87-.14-1.236-.429-38.127-30.026-86.788-25.132-87.275-25.078a1.999 1.999 0 0 1-.434-3.976c.503-.057 50.742-5.151 90.185 25.912a2 2 0 0 1-1.24 3.571zM1623.25 938.156c23.482 0 43.947-12.172 54.767-30.203-11.843-16.658-31.951-27.62-54.767-27.62-22.816 0-42.924 10.962-54.767 27.62 10.82 18.031 31.285 30.203 54.767 30.203zM1804.106 939.072c23.482 0 43.947-12.172 54.767-30.203-11.843-16.658-31.951-27.62-54.767-27.62s-42.924 10.962-54.767 27.62c10.82 18.03 31.285 30.203 54.767 30.203z"/><circle fill="#FFD829" cx="1622.971" cy="909.425" r="26.647"/><circle cx="1803.876" cy="910.425" r="26.647"/><circle fill="#FFD829" cx="1698.304" cy="420.493" r="52.167"/><circle fill="#FFD829" cx="1698.304" cy="326.896" r="26.281"/><circle fill="#FFD829" cx="1638.455" cy="353.054" r="26.281"/><circle fill="#FFD829" cx="1763.064" cy="353.054" r="26.281"/><circle fill="#FFD829" cx="1792.875" cy="420.493" r="26.281"/><circle fill="#FFD829" cx="189.243" cy="202.113" r="52.167"/><circle fill="#FFD829" cx="123.059" cy="135.929" r="26.281"/><circle fill="#FFD829" cx="99.237" cy="196.746" r="26.281"/><circle fill="#FFD829" cx="187.348" cy="108.635" r="26.281"/><circle fill="#FFD829" cx="256.114" cy="135.242" r="26.281"/></svg>