<svg xmlns="http://www.w3.org/2000/svg" viewBox="0 0 1080 1080" xml:space="preserve"><path d="M786.208 414.6H293.793a2 2 0 0 1-2-2v-69.188a2 2 0 0 1 4 0V410.6h488.415v-67.904a2 2 0 0 1 4 0V412.6a2 2 0 0 1-2 2z"/><path fill="#FFF" d="M210.929 219.449c19.828 0 37.107-10.278 46.243-25.502-10-14.066-26.978-23.321-46.243-23.321s-36.244 9.256-46.243 23.321c9.136 15.224 26.416 25.502 46.243 25.502zM368.641 220.222c19.828 0 37.107-10.278 46.243-25.502-10-14.066-26.978-23.321-46.243-23.321s-36.244 9.256-46.243 23.321c9.136 15.225 26.416 25.502 46.243 25.502z"/><path fill="#FFF" d="M343.784 344.001H234.5c-36.765 0-71.545-16.037-95.422-43.999-23.873-27.958-34.263-64.812-28.505-101.115l.27-1.676c2.629-16.096 4.81-29.518 6.622-40.706A494.103 494.103 0 0 1 148.394 47.23l11.472-27.818C164.803 7.438 175.916 0 188.867 0s24.064 7.438 29.002 19.411l32.963 79.931h78.327l32.963-79.931C367.059 7.438 378.173 0 391.124 0s24.064 7.438 29.002 19.411l19.046 46.186c12.115 29.376 20.308 60.147 24.35 91.458 2.054 15.912 3.848 33.222 5.331 51.446 2.829 34.749-9.114 69.394-32.767 95.051-23.698 25.706-57.342 40.449-92.302 40.449zM188.867 4c-11.3 0-20.996 6.49-25.305 16.937L152.09 48.755a490.122 490.122 0 0 0-30.677 108.389c-1.812 11.19-3.995 24.614-6.623 40.71l-.267 1.66c-5.574 35.145 4.484 70.824 27.596 97.891 23.115 27.07 56.787 42.597 92.38 42.597h109.284c33.847 0 66.417-14.273 89.36-39.161 23.234-25.203 34.5-57.881 31.722-92.015-1.479-18.162-3.266-35.408-5.312-51.259-3.997-30.963-12.099-61.393-24.08-90.444l-19.046-46.186C412.12 10.49 402.424 4 391.124 4s-20.996 6.49-25.305 16.937l-33.982 82.405h-83.683l-33.982-82.405C209.863 10.49 200.167 4 188.867 4zm179.775 217.449c-19.115 0-36.951-9.453-47.711-25.287l-.764-1.124.764-1.124c10.76-15.835 28.596-25.288 47.711-25.288 19.114 0 36.95 9.453 47.71 25.288l.764 1.124-.764 1.124c-10.76 15.834-28.596 25.287-47.71 25.287zm-43.618-26.411a53.638 53.638 0 0 0 43.617 22.411 53.643 53.643 0 0 0 43.616-22.411 53.639 53.639 0 0 0-43.616-22.412 53.642 53.642 0 0 0-43.617 22.412zM210.93 221.449c-19.115 0-36.951-9.453-47.711-25.287l-.764-1.124.764-1.124c10.76-15.835 28.596-25.288 47.711-25.288s36.95 9.453 47.71 25.288l.764 1.124-.764 1.124c-10.76 15.834-28.596 25.287-47.71 25.287zm-43.618-26.411a53.638 53.638 0 0 0 43.617 22.411 53.64 53.64 0 0 0 43.616-22.411 53.639 53.639 0 0 0-43.616-22.412 53.643 53.643 0 0 0-43.617 22.412z"/><path fill="#FFF" d="M279.108 231.993 242.541 118.23c-4.149-7.611 1.36-16.888 10.028-16.888h73.134c8.668 0 14.177 9.277 10.028 16.888l-36.567 113.763c-4.329 7.939-15.728 7.939-20.056 0z"/><path fill="#FFF" d="M289.135 239.947c-4.989 0-9.395-2.616-11.783-6.997a1.981 1.981 0 0 1-.148-.345l-36.511-113.591c-2.194-4.163-2.073-9.047.336-13.104 2.442-4.113 6.756-6.569 11.54-6.569h73.134c4.783 0 9.098 2.456 11.54 6.568 2.409 4.058 2.531 8.941.337 13.104l-36.512 113.592a2.096 2.096 0 0 1-.148.345c-2.39 4.381-6.795 6.997-11.785 6.997zm-8.184-8.754c1.695 2.98 4.741 4.754 8.184 4.754 3.443 0 6.489-1.773 8.185-4.754l36.507-113.576c.039-.119.088-.234.148-.345a9.34 9.34 0 0 0-.172-9.319 9.34 9.34 0 0 0-8.101-4.611h-73.134a9.342 9.342 0 0 0-8.101 4.611 9.34 9.34 0 0 0-.171 9.319c.061.109.109.226.148.345l36.507 113.576z"/><path d="M226.046 101.342h-74.358l20.527-55.106c6.128-14.86 27.175-14.86 33.303 0l20.528 55.106zM428.303 101.342h-74.358l20.527-55.106c6.128-14.86 27.175-14.86 33.303 0l20.528 55.106z"/><path fill="#FFF" d="M324.049 284.009c-16.157 0-29.924-10.435-34.913-24.919-4.99 14.484-18.756 24.919-34.914 24.919-20.354 0-36.913-16.56-36.913-36.913a2 2 0 0 1 4 0c0 18.148 14.765 32.913 32.913 32.913s32.914-14.765 32.914-32.913a2 2 0 0 1 4 0c0 18.148 14.765 32.913 32.913 32.913s32.913-14.765 32.913-32.913a2 2 0 0 1 4 0c0 20.353-16.56 36.913-36.913 36.913z"/><path d="m289.136 222.236 8.912.001c5.007 0 8.136 5.421 5.632 9.757l-4.457 7.718-7.395 12.806c-1.198 2.075-4.192 2.074-5.39 0l-7.393-12.808-4.456-7.719c-2.503-4.336.627-9.757 5.634-9.756l8.913.001zM40.276 282.652A2 2 0 0 1 39.147 279c53.209-36.314 106.155-43.948 141.201-43.958h.067c37.964 0 63.759 8.718 64.016 8.806a2 2 0 0 1-1.3 3.783c-.251-.086-25.472-8.589-62.718-8.589h-.229c-34.441.032-86.478 7.564-138.784 43.263a1.984 1.984 0 0 1-1.124.347zM106.001 300.974a1.999 1.999 0 0 1-1.347-3.478c14.157-12.894 41.672-29.666 92.357-36.353 30.195-3.982 54.733-2.468 54.979-2.453 1.103.071 1.938 1.022 1.867 2.125s-.993 1.96-2.125 1.867c-.959-.06-96.674-5.681-144.385 37.771a1.995 1.995 0 0 1-1.346.521zM188.865 316.195a2.002 2.002 0 0 1-1.613-3.182c25.756-35.191 67.638-42.426 69.408-42.717a2.005 2.005 0 0 1 2.297 1.648 2.001 2.001 0 0 1-1.647 2.299c-.418.068-42.064 7.294-66.829 41.133-.391.536-1 .819-1.616.819zM545.37 282.652c-.388 0-.78-.112-1.125-.348-52.307-35.698-104.342-43.23-138.784-43.263h-.228c-37.249 0-62.467 8.503-62.718 8.589a2 2 0 0 1-1.3-3.783c.257-.088 26.056-8.806 64.016-8.806h.067c35.046.01 87.991 7.644 141.2 43.958a2 2 0 0 1-1.128 3.653zM479.646 300.974c-.48 0-.962-.172-1.346-.521-47.711-43.451-143.428-37.833-144.385-37.771-1.119.093-2.053-.765-2.125-1.867a2 2 0 0 1 1.867-2.125c.245-.017 24.785-1.53 54.979 2.453 50.686 6.687 78.2 23.459 92.357 36.353a2 2 0 0 1-1.347 3.478zM396.781 316.195a1.995 1.995 0 0 1-1.616-.819c-24.764-33.838-66.411-41.063-66.829-41.132a2 2 0 0 1 .65-3.947c1.771.291 43.653 7.525 69.408 42.718a2 2 0 0 1-1.613 3.18z"/><circle cx="368.641" cy="195.038" r="23.23"/><circle cx="210.929" cy="195.038" r="23.23"/><path fill="#FFD829" d="m938.634 66.359-19.046-46.185c-9.993-24.232-44.313-24.232-54.306 0l-33.473 81.168h-55.618c13.075 37.477 48.725 64.369 90.661 64.369 15.388 0 29.928-3.627 42.819-10.062 12.607 21.335 33.232 37.364 57.728 43.949-1.435-16.207-2.999-30.273-4.55-42.288-4.034-31.251-12.201-61.82-24.215-90.951z"/><path d="m969.644 202.272-2.765-.743c-23.902-6.426-44.933-22.15-57.976-43.282-13.183 6.281-27.32 9.464-42.053 9.464-41.645 0-78.837-26.407-92.55-65.71l-.928-2.659h57.096l32.964-79.931C868.371 7.438 879.484 0 892.435 0c.001 0 0 0 0 0 12.951 0 24.064 7.438 29.001 19.411l19.047 46.186c12.116 29.381 20.309 60.151 24.349 91.458 1.706 13.215 3.24 27.47 4.56 42.366l.252 2.851zm-59.2-49.246.948 1.604c11.938 20.202 31.418 35.472 53.754 42.243-1.255-13.795-2.693-27.004-4.281-39.308-3.995-30.958-12.097-61.388-24.079-90.444l-19.047-46.186C913.432 10.49 903.735 4 892.435 4s-20.996 6.489-25.305 16.937l-33.983 82.405h-54.096c13.872 36.228 48.801 60.369 87.8 60.369 14.727 0 28.833-3.314 41.926-9.852l1.667-.833z"/><path fill="#FFF" d="M712.24 219.449c19.828 0 37.107-10.278 46.243-25.502-10-14.066-26.978-23.321-46.243-23.321s-36.244 9.256-46.243 23.321c9.136 15.224 26.415 25.502 46.243 25.502zM869.952 219.449c19.828 0 37.107-10.278 46.243-25.502-10-14.066-26.978-23.321-46.243-23.321s-36.244 9.256-46.243 23.321c9.136 15.224 26.416 25.502 46.243 25.502z"/><circle fill="#FFD829" cx="712.24" cy="195.038" r="23.23"/><circle fill="#FFD829" cx="869.952" cy="195.038" r="23.23"/><path d="M909.671 155.649c-12.892 6.436-27.431 10.062-42.819 10.062-41.936 0-77.586-26.892-90.661-64.369h-25.386l-33.473-81.168c-9.993-24.232-44.313-24.232-54.306 0l-11.472 27.818a491.452 491.452 0 0 0-30.803 108.832c-1.812 11.19-3.994 24.612-6.622 40.707-.09.553-.18 1.11-.269 1.669C601.971 274.159 659.915 342 735.81 342h109.285c72.078 0 128.924-61.497 123.075-133.338-.252-3.096-.51-6.112-.771-9.065-24.496-6.584-45.121-22.613-57.728-43.948zM673.527 46.236c6.128-14.86 27.175-14.86 33.303 0l20.527 55.106h-74.358l20.528-55.106zm38.713 173.213c-19.154 0-36.045-9.679-46.056-24.411h92.113c-10.012 14.732-26.903 24.411-46.057 24.411zm157.712 0c-19.154 0-36.045-9.679-46.056-24.411h92.113c-10.012 14.732-26.903 24.411-46.057 24.411z"/><path d="M845.095 344.001H735.81c-36.765 0-71.545-16.037-95.422-43.999-23.873-27.958-34.263-64.812-28.505-101.115l.271-1.677c2.628-16.095 4.81-29.517 6.621-40.705A494.103 494.103 0 0 1 649.704 47.23l11.473-27.818C666.113 7.438 677.226 0 690.178 0c12.952 0 24.064 7.438 29.002 19.411l32.964 79.931h25.468l.468 1.341c13.152 37.699 48.827 63.028 88.772 63.028 14.727 0 28.833-3.314 41.926-9.852l1.667-.833.948 1.604c12.43 21.034 33.032 36.72 56.526 43.035l1.35.363.123 1.393c.261 2.957.52 5.978.771 9.079 2.83 34.749-9.113 69.393-32.766 95.05-23.698 25.708-57.341 40.451-92.302 40.451zM690.178 4c-11.3 0-20.996 6.489-25.304 16.937l-11.473 27.818a490.122 490.122 0 0 0-30.677 108.389c-1.812 11.19-3.995 24.614-6.623 40.71l-.267 1.66c-5.574 35.145 4.484 70.824 27.596 97.891 23.115 27.07 56.787 42.597 92.38 42.597h109.284c33.847 0 66.418-14.273 89.362-39.162 23.233-25.202 34.499-57.88 31.72-92.014-.213-2.61-.43-5.164-.648-7.67-23.343-6.647-43.827-22.176-56.624-42.907-13.183 6.28-27.32 9.463-42.053 9.463-41.169 0-77.987-25.808-92.07-64.369h-25.315l-33.983-82.405C711.175 10.489 701.478 4 690.178 4zm179.774 217.449c-19.114 0-36.95-9.453-47.711-25.287l-2.123-3.124h99.668l-2.123 3.124c-10.761 15.834-28.597 25.287-47.711 25.287zm-42.111-24.411c10.148 12.848 25.619 20.411 42.111 20.411s31.963-7.563 42.111-20.411h-84.222zM712.24 221.449c-19.115 0-36.951-9.453-47.711-25.287l-2.123-3.124h99.668l-2.123 3.124c-10.761 15.834-28.597 25.287-47.711 25.287zm-42.111-24.411a53.63 53.63 0 0 0 42.111 20.411 53.633 53.633 0 0 0 42.111-20.411h-84.222zm60.106-93.696h-80.114l21.557-57.868c3.149-7.638 10.239-12.382 18.5-12.382 8.262 0 15.352 4.744 18.501 12.382l21.556 57.868zm-74.356-4h68.599l-19.521-52.407c-2.495-6.047-8.168-9.843-14.778-9.843-6.599 0-12.263 3.783-14.79 9.876l-19.51 52.374z"/><path fill="none" d="M712.24 219.449c19.154 0 36.045-9.679 46.056-24.411h-92.113c10.012 14.732 26.903 24.411 46.057 24.411zM727.357 101.342 706.83 46.236c-6.128-14.86-27.175-14.86-33.303 0L653 101.342h74.357zM869.952 219.449c19.154 0 36.045-9.679 46.056-24.411h-92.113c10.012 14.732 26.903 24.411 46.057 24.411z"/><path fill="#FFF" d="M932.492 103.342h-80.115l21.558-57.868c3.149-7.637 10.238-12.382 18.5-12.382s15.351 4.744 18.501 12.382l21.556 57.868zm-74.357-4h68.6l-19.521-52.407c-2.495-6.047-8.168-9.843-14.778-9.843-6.6 0-12.263 3.783-14.79 9.876l-19.511 52.374z"/><path fill="#FFD829" d="M810.098 278.504v19.598c0 10.853-8.798 19.652-19.652 19.652-10.853 0-19.652-8.798-19.652-19.652v-19.599s16.804-7.687 19.652-26.029c0 0 2.557 19.797 19.652 26.03z"/><path fill="#FFF" d="M825.359 284.009c-16.157 0-29.924-10.435-34.913-24.919-4.989 14.484-18.756 24.919-34.913 24.919-20.354 0-36.914-16.56-36.914-36.913a2 2 0 0 1 4 0c0 18.148 14.766 32.913 32.914 32.913s32.913-14.765 32.913-32.913a2 2 0 0 1 4 0c0 18.148 14.765 32.913 32.913 32.913s32.914-14.765 32.914-32.913a2 2 0 0 1 4 0c0 20.353-16.559 36.913-36.914 36.913z"/><path fill="#FFF" d="m790.447 222.236 8.912.001c5.007 0 8.136 5.421 5.632 9.757l-4.457 7.718-7.395 12.806c-1.198 2.075-4.193 2.074-5.39 0l-7.393-12.808-4.456-7.719c-2.503-4.336.627-9.757 5.634-9.756l8.913.001z"/><path fill="#FFD829" d="M757.729 257.815c-.256 0-.517-.05-.769-.154-.45-.188-45.834-18.648-113.858-7.351a1.99 1.99 0 0 1-2.301-1.645 2 2 0 0 1 1.645-2.301c36.155-6.007 65.733-3.634 84.183-.589 20.056 3.312 31.4 7.996 31.874 8.193a2 2 0 0 1 1.073 2.616 1.997 1.997 0 0 1-1.847 1.231zM682.682 292.44a2 2 0 0 1-1.238-3.572c34.262-26.982 76.548-22.698 78.33-22.506a1.999 1.999 0 0 1-.434 3.976c-.421-.047-42.478-4.272-75.421 21.672-.366.291-.803.43-1.237.43zM823.974 257.815a2.002 2.002 0 0 1-.774-3.845c.474-.197 11.818-4.882 31.874-8.193 18.447-3.046 48.026-5.416 84.182.589a2 2 0 0 1 1.645 2.301 1.993 1.993 0 0 1-2.301 1.645c-35.54-5.902-64.601-3.592-82.72-.612-19.644 3.229-31.025 7.916-31.138 7.963a2.029 2.029 0 0 1-.768.152zM899.019 292.44c-.434 0-.87-.14-1.236-.429-32.941-25.945-75.002-21.721-75.421-21.672a1.999 1.999 0 0 1-.434-3.976c1.782-.193 44.07-4.477 78.33 22.506a2 2 0 0 1-1.239 3.571z"/><path fill="#FFF" d="M419.593 938.88c8.585 14.305 24.822 23.963 43.453 23.963 18.631 0 34.868-9.658 43.453-23.963M567.79 938.88c8.585 14.305 24.822 23.963 43.453 23.963s34.868-9.658 43.453-23.963"/><path fill="#FFF" d="M587.887 1080H485.195a117.87 117.87 0 0 1-89.757-41.387c-22.455-26.297-32.228-60.964-26.812-95.111l.253-1.574c2.471-15.126 4.521-27.737 6.223-38.251a464.445 464.445 0 0 1 29.07-102.709l10.78-26.14c4.658-11.297 15.144-18.315 27.363-18.315s22.705 7.018 27.364 18.315l30.943 75.033h23.936l.468 1.341c12.343 35.376 45.819 59.145 83.303 59.145 13.819 0 27.056-3.11 39.343-9.244l1.667-.833.948 1.604c11.664 19.738 30.997 34.458 53.043 40.384l1.35.363.123 1.392c.246 2.779.489 5.618.726 8.532 2.661 32.686-8.572 65.273-30.821 89.407-22.291 24.18-53.937 38.048-86.821 38.048zM442.315 760.513c-10.568 0-19.637 6.07-23.666 15.841l-10.78 26.14a460.433 460.433 0 0 0-28.818 101.822 27787.35 27787.35 0 0 1-6.224 38.254l-.25 1.559a113.852 113.852 0 0 0 25.903 91.888 113.873 113.873 0 0 0 86.715 39.984h102.691c31.771 0 62.344-13.398 83.881-36.76 21.81-23.657 32.384-54.331 29.775-86.371a1130.93 1130.93 0 0 0-.602-7.123c-21.896-6.257-41.111-20.82-53.141-40.257-12.377 5.879-25.646 8.857-39.471 8.857-38.706 0-73.326-24.247-86.601-60.485h-23.784l-31.963-77.508c-4.028-9.772-13.096-15.841-23.665-15.841zm37.815 93.348h-75.629l20.319-54.544c2.979-7.223 9.683-11.71 17.495-11.71 7.813 0 14.518 4.487 17.496 11.71l20.319 54.544zm-69.871-4h64.113l-18.283-49.083c-2.324-5.632-7.611-9.171-13.773-9.171-6.149 0-11.429 3.525-13.784 9.203l-18.273 49.051z"/><path fill="none" d="M463.047 962.843c17.999 0 33.87-9.095 43.278-22.939H419.77c9.406 13.844 25.278 22.939 43.277 22.939zM477.251 851.861l-19.289-51.781c-5.758-13.963-25.535-13.963-31.294 0l-19.289 51.781h69.872z"/><path fill="#FFF" d="M670.184 853.861h-75.629l20.319-54.544c2.979-7.223 9.682-11.709 17.495-11.709s14.517 4.486 17.495 11.709l20.32 54.544zm-69.871-4h64.113l-18.284-49.083c-2.324-5.632-7.61-9.17-13.772-9.17-6.15 0-11.43 3.525-13.785 9.203l-18.272 49.05z"/><path d="m705.057 946.864-2.765-.743c-22.454-6.036-42.216-20.796-54.492-40.632-12.376 5.879-25.645 8.857-39.47 8.857-39.183 0-74.177-24.846-87.08-61.826l-.928-2.659h53.74l30.944-75.034c4.658-11.296 15.145-18.314 27.363-18.314 0 0-.001 0 0 0 12.22 0 22.705 7.019 27.363 18.315l17.897 43.398c11.389 27.613 19.089 56.538 22.889 85.971 1.603 12.418 3.044 25.814 4.284 39.815l.255 2.852zM649.34 900.27l.948 1.604c11.173 18.907 29.381 33.209 50.271 39.588-1.175-12.897-2.521-25.247-4.006-36.753-3.755-29.084-11.365-57.668-22.619-84.957l-17.897-43.398c-4.029-9.771-13.098-15.841-23.666-15.841s-19.637 6.069-23.666 15.84l-31.964 77.509h-50.737c13.062 33.902 45.791 56.485 82.327 56.485 13.819 0 27.056-3.11 39.343-9.244l1.666-.833zM484.875 938.88c0 12.056-9.773 21.829-21.829 21.829-12.056 0-21.829-9.773-21.829-21.829M632.936 938.88c0 12.056-9.773 21.829-21.829 21.829-12.056 0-21.829-9.773-21.829-21.829"/><path fill="#FFF" d="M569.342 1023.628c-15.114 0-28.009-9.684-32.808-23.171-4.798 13.487-17.693 23.171-32.807 23.171-19.192 0-34.807-15.614-34.807-34.807a2 2 0 0 1 4 0c0 16.987 13.819 30.807 30.807 30.807 16.987 0 30.807-13.819 30.807-30.807a2 2 0 0 1 4 0c0 16.987 13.82 30.807 30.808 30.807s30.807-13.819 30.807-30.807a2 2 0 0 1 4 0c-.001 19.193-15.615 34.807-34.807 34.807z"/><path d="m536.535 965.462 8.375.001c4.705 0 7.645 5.094 5.292 9.168l-4.188 7.252-6.949 12.034c-1.126 1.949-3.94 1.949-5.065 0l-6.947-12.035-4.187-7.253c-2.352-4.075.589-9.168 5.294-9.168l8.375.001zM302.689 1022.354a2 2 0 0 1-1.129-3.652c50.024-34.141 99.802-41.317 132.751-41.326h.065c35.691 0 59.206 7.942 60.19 8.28a2 2 0 0 1-1.3 3.783c-.235-.081-23.918-8.064-58.895-8.064l-.225.001c-32.345.031-81.212 7.105-130.334 40.631a1.986 1.986 0 0 1-1.123.347zM364.448 1039.569a1.999 1.999 0 0 1-1.347-3.478c24.125-21.971 60.546-30.719 86.852-34.189 28.387-3.743 51.457-2.318 51.686-2.306 1.103.071 1.938 1.022 1.867 2.125s-.994 1.953-2.125 1.867c-.904-.062-90.792-5.334-135.586 35.46a1.998 1.998 0 0 1-1.347.521zM442.313 1053.873a2 2 0 0 1-1.613-3.181c24.23-33.108 63.634-39.915 65.299-40.188 1.084-.177 2.117.559 2.297 1.648s-.559 2.118-1.647 2.299c-.393.064-39.48 6.848-62.72 38.603a1.994 1.994 0 0 1-1.616.819zM777.31 1022.354c-.389 0-.78-.112-1.125-.348-49.122-33.525-97.989-40.6-130.334-40.631l-.224-.001c-34.98 0-58.659 7.983-58.895 8.064a2.005 2.005 0 0 1-2.541-1.242 2 2 0 0 1 1.241-2.541c.984-.338 24.503-8.28 60.189-8.28h.066c32.948.009 82.726 7.186 132.75 41.326a2 2 0 0 1-1.127 3.653zM715.552 1039.569c-.48 0-.962-.172-1.346-.521-44.793-40.794-134.683-35.522-135.585-35.46-1.102.086-2.054-.765-2.125-1.867a2 2 0 0 1 1.867-2.125c.229-.015 23.298-1.438 51.686 2.306 26.305 3.471 62.726 12.219 86.851 34.189a2 2 0 0 1-1.348 3.478zM637.686 1053.873a1.995 1.995 0 0 1-1.616-.819c-23.272-31.801-62.327-38.538-62.719-38.603a2 2 0 1 1 .649-3.947c1.665.273 41.068 7.08 65.299 40.188a2 2 0 0 1-1.613 3.181zM159.328 727.021a2 2 0 0 1-2-2V494.983a2 2 0 0 1 2-2h376.451v-78.46a2 2 0 0 1 4 0v80.46a2 2 0 0 1-2 2H161.328V725.02a2 2 0 0 1-2 2.001z"/><path d="M537.779 854.146a2 2 0 0 1-2-2V494.983a2 2 0 0 1 2-2h382.893a2 2 0 0 1 2 2v208.753a2 2 0 0 1-4 0V496.983H539.779v355.162a2 2 0 0 1-2 2.001z"/><path fill="#FFF" d="M90.157 774.621c19.381 0 36.272-10.047 45.202-24.928-9.775-13.749-26.371-22.796-45.202-22.796s-35.428 9.047-45.202 22.796c8.93 14.881 25.821 24.928 45.202 24.928zM229.315 774.621c19.381 0 36.272-10.047 45.202-24.928-9.775-13.749-26.371-22.796-45.202-22.796s-35.428 9.047-45.202 22.796c8.93 14.881 25.82 24.928 45.202 24.928z"/><circle fill="#FFD829" cx="90.157" cy="750.759" r="20.497"/><circle fill="#FFD829" cx="229.315" cy="750.759" r="20.497"/><path d="M315.978 762.781c-1.443-17.726-3.078-32.779-4.695-45.311-3.559-27.574-10.766-54.548-21.366-80.251l-16.806-40.751c-8.817-21.381-39.1-21.381-47.917 0l-29.535 71.619h-71.474L94.65 596.468c-8.817-21.381-39.1-21.381-47.917 0l-10.122 24.546A433.532 433.532 0 0 0 9.43 717.041c-1.599 9.873-3.524 21.716-5.843 35.918-.08.488-.159.979-.237 1.473-10.49 66.14 40.637 126 107.604 126h96.428c63.599 0 113.756-54.262 108.596-117.651zM55.998 619.464c5.407-13.112 23.978-13.112 29.385 0l18.112 48.623H37.886l18.112-48.623zm34.159 152.834c-16.901 0-31.805-8.541-40.638-21.539 8.833-12.999 23.737-21.54 40.638-21.54s31.805 8.541 40.638 21.54c-8.834 12.999-23.737 21.539-40.638 21.539zm139.158 0c-16.901 0-31.805-8.541-40.638-21.539 8.833-12.999 23.737-21.54 40.638-21.54s31.805 8.541 40.638 21.54c-8.834 12.999-23.738 21.539-40.638 21.539zm19.837-104.212h-32.805l18.112-48.623c5.407-13.112 23.978-13.112 29.385 0l18.112 48.623h-32.804z"/><path d="M207.382 882.432h-96.428a110.803 110.803 0 0 1-84.375-38.905C5.471 818.806-3.716 786.218 1.375 754.118l.239-1.482c2.318-14.199 4.243-26.042 5.841-35.914a436.196 436.196 0 0 1 27.306-96.471l10.122-24.546c4.394-10.654 14.282-17.273 25.808-17.273s21.414 6.619 25.808 17.273l29.024 70.381h68.797l29.025-70.381c4.394-10.654 14.282-17.273 25.808-17.273s21.414 6.619 25.808 17.273l16.806 40.751c10.698 25.941 17.932 53.112 21.5 80.758 1.811 14.024 3.395 29.301 4.705 45.405 2.502 30.726-8.059 61.358-28.973 84.045-20.956 22.731-50.704 35.768-81.617 35.768zm-136.692-300c-9.874 0-18.346 5.671-22.11 14.799l-10.122 24.546a432.222 432.222 0 0 0-27.054 95.584 26101.12 26101.12 0 0 1-5.843 35.921l-.235 1.463a106.782 106.782 0 0 0 24.295 86.185 106.806 106.806 0 0 0 81.333 37.503h96.428c29.8 0 58.476-12.567 78.676-34.479 20.455-22.188 30.373-50.959 27.927-81.01-1.307-16.041-2.883-31.255-4.686-45.218-3.524-27.297-10.667-54.127-21.23-79.744l-16.806-40.751c-3.765-9.128-12.236-14.799-22.11-14.799s-18.346 5.671-22.11 14.799l-30.045 72.855h-74.152L92.801 597.23c-3.765-9.127-12.236-14.798-22.111-14.798zm158.625 191.867a51.098 51.098 0 0 1-42.292-22.416l-.764-1.124.764-1.124c9.538-14.036 25.348-22.416 42.292-22.416s32.754 8.38 42.292 22.416l.764 1.124-.764 1.124c-9.539 14.036-25.348 22.416-42.292 22.416zm-38.196-23.54c8.859 12.262 23.035 19.54 38.195 19.54s29.336-7.278 38.195-19.54c-8.859-12.262-23.035-19.54-38.195-19.54s-29.335 7.278-38.195 19.54zm-100.962 23.54a51.102 51.102 0 0 1-42.293-22.416l-.764-1.124.764-1.124c9.539-14.036 25.35-22.416 42.293-22.416s32.753 8.38 42.292 22.416l.764 1.124-.764 1.124c-9.539 14.036-25.348 22.416-42.292 22.416zm-38.196-23.54a47.093 47.093 0 0 0 38.196 19.54 47.093 47.093 0 0 0 38.195-19.54 47.093 47.093 0 0 0-38.195-19.54 47.093 47.093 0 0 0-38.196 19.54zm232.875-80.673h-71.367l19.117-51.32c2.842-6.894 9.18-11.136 16.566-11.136s13.725 4.242 16.541 11.071l19.143 51.385zm-65.609-4h59.852l-17.107-45.924c-2.162-5.238-7.083-8.532-12.818-8.532s-10.656 3.294-12.844 8.597l-17.083 45.859zm-112.853 4H35.007l19.143-51.385c2.816-6.829 9.154-11.071 16.541-11.071s13.725 4.242 16.541 11.071l19.142 51.385zm-65.609-4h59.852L83.51 620.162c-2.162-5.238-7.083-8.532-12.818-8.532-5.725 0-10.638 3.281-12.831 8.565l-17.096 45.891z"/><path fill="#FFF" d="M150.314 783.366 118.05 682.987c-3.661-6.715 1.2-14.901 8.848-14.901h64.53c7.648 0 12.509 8.186 8.848 14.901L168.01 783.366c-3.818 7.005-13.877 7.005-17.696 0z"/><path fill="#FFF" d="M159.162 790.62c-4.491 0-8.455-2.354-10.604-6.297a1.981 1.981 0 0 1-.148-.345l-32.209-100.207c-1.965-3.743-1.853-8.13.312-11.774 2.198-3.701 6.08-5.911 10.385-5.911h64.529c4.305 0 8.187 2.21 10.385 5.91 2.164 3.646 2.277 8.032.312 11.774l-32.209 100.208a2.06 2.06 0 0 1-.148.345c-2.15 3.944-6.115 6.297-10.605 6.297zm-7.004-8.055c1.455 2.542 4.061 4.055 7.004 4.055s5.549-1.513 7.006-4.055l32.203-100.19c.039-.119.088-.234.148-.345 1.378-2.528 1.322-5.516-.147-7.991s-4.066-3.953-6.945-3.953h-64.529c-2.879 0-5.476 1.478-6.945 3.953s-1.524 5.463-.146 7.991c.061.11.109.226.148.345l32.203 100.19z"/><path d="M220.774 796.692c0 17.014-13.792 30.806-30.806 30.806s-30.806-13.792-30.806-30.806c0 17.014-13.792 30.806-30.806 30.806S97.55 813.706 97.55 796.692"/><path fill="#FFF" d="M189.968 829.498c-14.126 0-26.195-8.975-30.806-21.521-4.61 12.546-16.681 21.521-30.806 21.521-18.089 0-32.806-14.717-32.806-32.806a2 2 0 0 1 4 0c0 15.884 12.922 28.806 28.806 28.806s28.806-12.922 28.806-28.806a2 2 0 0 1 4 0c0 15.884 12.922 28.806 28.806 28.806s28.807-12.922 28.807-28.806a2 2 0 0 1 4 0c-.001 18.089-14.717 32.806-32.807 32.806z"/><path fill="#FFD829" d="m159.163 774.757 7.864.001c4.418 0 7.179 4.783 4.97 8.609l-3.932 6.81-6.525 11.3c-1.057 1.831-3.699 1.83-4.756 0l-6.523-11.301-3.931-6.811c-2.209-3.826.553-8.609 4.971-8.608h7.862zM129.755 803.693c-.256 0-.517-.05-.769-.154-.399-.167-40.648-16.53-100.965-6.512a2 2 0 1 1-.656-3.946c32.13-5.338 58.419-3.229 74.813-.522 17.832 2.944 27.929 7.112 28.35 7.288a1.999 1.999 0 0 1 1.073 2.616 1.999 1.999 0 0 1-1.846 1.23zM63.125 834.436a2 2 0 0 1-1.238-3.572c30.489-24.013 68.123-20.202 69.709-20.029a1.999 1.999 0 0 1 1.77 2.205 1.99 1.99 0 0 1-2.204 1.771c-.374-.038-37.627-3.779-66.8 19.195-.367.29-.803.43-1.237.43zM188.569 803.693a2.002 2.002 0 0 1-.774-3.845c.421-.176 10.518-4.344 28.35-7.288 16.396-2.706 42.686-4.814 74.813.522a2 2 0 0 1-.656 3.946c-31.516-5.235-57.284-3.186-73.352-.547-17.42 2.862-27.514 7.017-27.613 7.059a2.004 2.004 0 0 1-.768.153zM255.199 834.436c-.434 0-.87-.14-1.236-.429-29.172-22.975-66.424-19.232-66.799-19.195a1.99 1.99 0 0 1-2.204-1.771 1.999 1.999 0 0 1 1.77-2.205c1.588-.174 39.219-3.983 69.708 20.029a2 2 0 0 1-1.239 3.571zM969.049 876.667c63.599 0 113.757-54.262 108.596-117.651-1.443-17.726-3.078-32.779-4.695-45.311-3.559-27.574-10.766-54.548-21.366-80.251l-16.806-40.751c-8.817-21.381-39.1-21.381-47.917 0l-29.535 71.619h-71.474l-29.535-71.619c-8.817-21.381-39.1-21.381-47.917 0l-10.122 24.546a433.658 433.658 0 0 0-27.179 96.028c-1.599 9.873-3.524 21.716-5.843 35.918-.08.488-.159.979-.237 1.473-10.49 66.14 40.637 126 107.604 126h96.426z"/><path d="M969.049 878.667h-96.428a110.803 110.803 0 0 1-84.375-38.905c-21.108-24.721-30.295-57.309-25.204-89.408l.237-1.479c2.32-14.203 4.244-26.046 5.843-35.918a436.22 436.22 0 0 1 27.306-96.472l10.122-24.545c4.394-10.654 14.282-17.272 25.807-17.272 11.525 0 21.414 6.618 25.808 17.272l29.025 70.381h68.797l29.025-70.381c4.394-10.654 14.283-17.272 25.808-17.272.001 0 0 0 0 0 11.525 0 21.414 6.618 25.807 17.272l16.806 40.751c10.698 25.939 17.932 53.109 21.501 80.758 1.812 14.048 3.396 29.324 4.705 45.405 2.502 30.727-8.059 61.359-28.974 84.046-20.956 22.731-50.703 35.767-81.616 35.767zM832.357 578.668c-9.873 0-18.345 5.67-22.109 14.798l-10.122 24.545a432.261 432.261 0 0 0-27.054 95.585c-1.599 9.874-3.524 21.719-5.844 35.921l-.234 1.463a106.782 106.782 0 0 0 24.295 86.185 106.806 106.806 0 0 0 81.333 37.503h96.428c29.799 0 58.475-12.566 78.675-34.478 20.455-22.189 30.374-50.959 27.928-81.011-1.305-16.019-2.881-31.232-4.686-45.218-3.524-27.3-10.668-54.13-21.231-79.744l-16.806-40.751c-3.764-9.128-12.235-14.798-22.109-14.798-9.873-.001-18.346 5.67-22.11 14.798l-30.045 72.855h-74.152l-30.045-72.855c-3.766-9.128-12.238-14.798-22.112-14.798z"/><path fill="#FFF" d="m911.982 778.09-32.265-100.38c-3.661-6.715 1.2-14.901 8.848-14.901h64.53c7.648 0 12.509 8.186 8.848 14.901l-32.265 100.38c-3.819 7.005-13.878 7.005-17.696 0z"/><path fill="#FFF" d="M920.83 785.344c-4.49 0-8.454-2.354-10.604-6.297a1.981 1.981 0 0 1-.148-.345l-32.21-100.208c-1.965-3.742-1.852-8.129.312-11.773 2.198-3.701 6.08-5.911 10.385-5.911h64.529c4.305 0 8.187 2.21 10.385 5.911 2.164 3.645 2.277 8.031.312 11.773l-32.21 100.208a2.096 2.096 0 0 1-.148.345c-2.149 3.942-6.113 6.297-10.603 6.297zm-7.004-8.055c1.455 2.542 4.061 4.055 7.004 4.055s5.549-1.513 7.004-4.055l32.205-100.191c.039-.119.088-.234.148-.345 1.378-2.527 1.322-5.515-.147-7.99s-4.066-3.953-6.945-3.953h-64.529c-2.879 0-5.476 1.478-6.945 3.953s-1.525 5.463-.147 7.99c.061.11.109.226.148.345l32.204 100.191z"/><path d="M865.162 664.321h-65.61l18.112-48.623c5.407-13.112 23.978-13.112 29.385 0l18.113 48.623zM1043.624 664.321h-65.61l18.112-48.623c5.407-13.112 23.978-13.112 29.385 0l18.113 48.623zM951.635 825.733c-14.125 0-26.195-8.975-30.806-21.521-4.61 12.546-16.68 21.521-30.806 21.521-18.09 0-32.807-14.717-32.807-32.806a2 2 0 0 1 4 0c0 15.884 12.923 28.806 28.807 28.806s28.806-12.922 28.806-28.806a2 2 0 0 1 4 0c0 15.884 12.922 28.806 28.806 28.806s28.806-12.922 28.806-28.806a2 2 0 0 1 4 0c0 18.09-14.717 32.806-32.806 32.806z"/><path d="m920.83 770.993 7.864.001c4.418 0 7.179 4.783 4.97 8.609l-3.932 6.81-6.525 11.3c-1.057 1.831-3.699 1.83-4.756 0l-6.523-11.301-3.931-6.811c-2.209-3.826.553-8.609 4.971-8.608h7.862z"/><path d="M937.666 821.469v16.791c0 9.299-7.538 16.837-16.837 16.837s-16.837-7.538-16.837-16.837v-16.792s14.397-6.586 16.837-22.3c.001-.001 2.191 16.961 16.837 22.301z"/><path fill="#FFF" d="M891.422 801.145c-.256 0-.517-.05-.769-.154-.399-.167-40.647-16.529-100.965-6.512a2 2 0 1 1-.656-3.946c32.13-5.339 58.419-3.229 74.813-.522 17.832 2.944 27.929 7.112 28.35 7.288a1.999 1.999 0 0 1 1.073 2.616 1.997 1.997 0 0 1-1.846 1.23zM824.792 831.887a2 2 0 0 1-1.238-3.572c30.489-24.013 68.12-20.203 69.708-20.029a1.999 1.999 0 0 1-.434 3.976c-.372-.039-37.626-3.78-66.799 19.195-.366.29-.803.43-1.237.43zM950.236 801.146a2.001 2.001 0 0 1-.773-3.846c.421-.176 10.518-4.344 28.35-7.288 16.395-2.706 42.682-4.814 74.813.522a2 2 0 0 1-.656 3.946c-60.401-10.029-100.565 6.345-100.964 6.512a2.034 2.034 0 0 1-.77.154zM1016.867 831.887c-.434 0-.87-.14-1.236-.429-29.171-22.975-66.425-19.233-66.799-19.195a2 2 0 0 1-.434-3.976c1.586-.173 39.219-3.983 69.708 20.029a2 2 0 0 1-1.239 3.571zM851.27 769.095c18.063 0 33.805-9.363 42.129-23.233-9.11-12.814-24.577-21.246-42.129-21.246-17.551 0-33.019 8.432-42.129 21.246 8.323 13.869 24.065 23.233 42.129 23.233zM990.39 769.799c18.063 0 33.805-9.363 42.129-23.233-9.11-12.814-24.578-21.246-42.129-21.246s-33.019 8.432-42.129 21.246c8.323 13.87 24.065 23.233 42.129 23.233z"/><circle fill="#FFD829" cx="851.055" cy="746.994" r="20.497"/><circle cx="990.213" cy="747.763" r="20.497"/><circle fill="#FFD829" cx="440.038" cy="646.782" r="29.777"/><circle fill="#FFD829" cx="392.05" cy="623.298" r="15.001"/><circle fill="#FFD829" cx="390.445" cy="660.546" r="15.001"/><circle fill="#FFD829" cx="421.711" cy="596.659" r="15.001"/><circle fill="#FFD829" cx="463.766" cy="598.296" r="15.001"/><circle fill="#FFD829" cx="627.871" cy="648.297" r="29.777"/><circle fill="#FFD829" cx="633.298" cy="595.147" r="15.001"/><circle fill="#FFD829" cx="597.796" cy="606.531" r="15.001"/><circle fill="#FFD829" cx="668.555" cy="613.756" r="15.001"/><circle fill="#FFD829" cx="681.573" cy="653.78" r="15.001"/></svg>