<svg xmlns="http://www.w3.org/2000/svg" xml:space="preserve" viewBox="0 0 1583 702"><path fill="#FFF" d="m1094.15 102.17-45.96 17.35 45.96 17.35z"/><path fill="#FF8630" d="M1003.36 152.64h64.07l-20.16-33.12 20.16-33.12h-64.07"/><path d="M1067.43 154.64h-64.07a2 2 0 0 1 0-4h60.52l-18.31-30.08a2 2 0 0 1 0-2.08l18.31-30.08h-60.52a2 2 0 0 1 0-4h64.08a2 2 0 0 1 1.7 3.04l-19.53 32.08 19.53 32.09a2 2 0 0 1-1.7 3.03z"/><path fill="#FFF" d="M1003.36 84.42a4.32 4.32 0 0 0-3.06 1.27l-30.73 30.74a4.34 4.34 0 0 0 0 6.12l30.73 30.74a4.32 4.32 0 0 0 3.06 1.26"/><circle fill="#FF8630" cx="990.02" cy="119.49" r="9.37"/><circle fill="#231F20" cx="990.02" cy="119.49" r="5.87"/><path fill="#FFF" d="M169.56 241.65c17.4 1.15 34.3-11.72 50.58-16.37 21.08-6.03 39.57-.2 59.09 7.23 7.76 2.96 14.94 7.88 22.96 9.9 9.76 2.43 20.9 1.83 30.69.11 16.84-2.97 31.4-11.08 48.93-9.58 18.45 1.59 34.15 15.3 52.63 18.2 9.42 1.48 17.84 1.15 27.41 1.15v19.3H169.56v-29.94z"/><path fill="#FFF" d="M461.85 271.6H968.1c37 0 74.1-.36 111.08.02.22-12.78.2-15.53-13.01-15.9-13.86-.4-27.6-.22-41.4-2.05-17.57-2.33-36.67 2.65-53.5-4.21-11.44-4.66-19.38-9.64-33.02-9.76-14.05-.12-25.78 5.24-39.2 6.02-15.29.9-36.32-8.48-50.6-13.96-20.13-7.74-37.16-9.44-59.14-7.89-26.53 1.88-48.45 10.58-71.95 21.89-20.9 10.07-47.56 6.36-70.1 6.5-26.57.16-53.16.06-79.73.06-35.23.01-70.45-.02-105.68-.02v19.3zm953.22-123.7c-.44-3.7-1.47-7.29-3.7-10.56-7.7-11.31-29.33-11.29-39.5-4.03-11.46 8.18-16.3 24.12-15.33 37.67-1.19-16.58.32-35.82-7.62-51-8.98-17.19-38.55-14.07-44.51 4.61-3.42 10.71-.93 22.4-.7 33.37-.18-8.84-8.22-20.64-14.95-25.68-15.47-11.58-32.07-14.34-48.97-5.23-12.96 6.98-19.33 24.27-19.16 38.36.26 23.02 16.42 42.62 38.07 51.32l56.78 56.87 97.52-2c.45-.01 1.32-67.08 1.41-71.8.32-15.86 1.36-31.89.94-47.74a44.42 44.42 0 0 0-.28-4.17zM170 682c.07 7.3 72.33-13.33 78.17-15.03 40.2-11.75 80.02-14.6 120.08 1.88 27.66 11.38 57.26 9.81 86.38 6.9 14.22-1.44 29.76-5.06 44.06-4.04 12.87.92 24.86 6.44 38.07 7.28 43.36 2.78 80.51-18.3 122.95-24.2 48.42-6.73 85.57-4.24 130.75 13.43 16.41 6.42 34.98 12.2 53.36 14.54 20.79 2.64 39.53-4.14 60.2-6.98 16.89-2.32 34.98 2.08 51.43-2.68 27.37-7.93 39.45-29.58 68.24-29.88 26.38-.27 46.6 2.5 68.7 15.62 23.18 13.73 54.4 9.07 80.02 3.38 44.1-9.79 80.49-17.06 123.87-2.32 22.23 7.55 42.46 13.11 66.19 13.11 18.03 0 34.4-7.62 52.03-5.99l-1.5 32.93H170V682z"/><path d="M0 697.97h170v3.99H0zm1413 0h170v3.99h-170z"/><path fill="#FFF" d="M1415 701.96H168V0h1247v701.96zm-1243-4h1239V4H172v693.98z"/><path fill="#FFF" d="M1415 273.6H168V0h1247v273.6zm-1243-4h1239V4H172v265.6z"/><path fill="#FFF" d="M459.85 2h4v269.6h-4zm703.87 0h4v269.6h-4z"/><path d="M1015.96 187.87h299.52v85.73h-299.52zm0 428.37h299.52v85.72h-299.52zm278.54-97.94a90.37 90.37 0 0 1-7.09 6.75l32.4 7.07V504.5l-32.4 7.07a90.9 90.9 0 0 1 7.1 6.75zm-30.33-21.19a26.98 26.98 0 0 0-51.56-5.8 90.88 90.88 0 0 1 16.09-1.44c12.6 0 24.58 2.59 35.47 7.24zm-51.09 48.27a26.97 26.97 0 0 0 50.9-5.8 90.07 90.07 0 0 1-35.28 7.16 90.76 90.76 0 0 1-15.61-1.36z"/><path fill="#FFF" d="M1228.7 548.73a93.07 93.07 0 0 1-15.96-1.38l-1.65-.29v-57.51l1.65-.3a93.2 93.2 0 0 1 15.96-1.38 91.75 91.75 0 0 1 36.26 7.4 92.24 92.24 0 0 1 23.75 14.77 93.03 93.03 0 0 1 7.25 6.9l1.29 1.36-1.3 1.37a92.84 92.84 0 0 1-7.24 6.9 92.25 92.25 0 0 1-23.96 14.85 91.78 91.78 0 0 1-36.05 7.31zm-13.62-5.04a89.24 89.24 0 0 0 13.62 1.05 87.8 87.8 0 0 0 34.5-7 88.2 88.2 0 0 0 22.92-14.2 89.62 89.62 0 0 0 5.61-5.24 89.28 89.28 0 0 0-5.61-5.22 88.28 88.28 0 0 0-22.73-14.13 87.8 87.8 0 0 0-34.7-7.08c-4.53 0-9.1.35-13.6 1.05v50.77z"/><g fill="#231F20"><path d="M1212.61 491.3a90.22 90.22 0 0 0-49.72 27 90.2 90.2 0 0 0 50.2 27.09v-54.16l-.48.08z"/><path d="m1215.08 547.76-2.34-.4a92.83 92.83 0 0 1-51.3-27.69l-1.3-1.36 1.3-1.37a91.62 91.62 0 0 1 50.82-27.6l2.82-.48v58.9zm-49.42-29.45a87.52 87.52 0 0 0 45.43 24.67v-49.35a87.6 87.6 0 0 0-45.43 24.68z"/></g><circle fill="#FFF" cx="1185.05" cy="518.3" r="8.82"/><circle fill="#231F20" cx="1185.05" cy="518.3" r="5.53"/><path d="M288.45 57.52c-18 0-34 8.55-44.18 21.8a55.6 55.6 0 0 0 44.18 21.8c18 0 34-8.55 44.19-21.8a55.6 55.6 0 0 0-44.19-21.8z"/><path d="m231.33 58.54 20.78 20.78-20.78 20.79zm115.17 85.73c18 0 34 8.55 44.18 21.8a55.6 55.6 0 0 1-44.18 21.8c-18 0-34-8.55-44.18-21.8a55.6 55.6 0 0 1 44.18-21.8z"/><path d="m403.63 145.29-20.79 20.78 20.79 20.79zm430.3 362.98c6.3.85 6.3 2.23 0 3.07L683.3 531.48a9.88 9.88 0 0 1-11.47-10.04v-23.27a9.88 9.88 0 0 1 11.46-10.04l150.64 20.14zm0 81.02c6.3.84 6.3 2.22 0 3.06L683.3 612.5a9.88 9.88 0 0 1-11.47-10.03v-23.28a9.88 9.88 0 0 1 11.46-10.03l150.64 20.14zm-201.35-56.87c6.31-.84 6.64.4.73 2.77l-152.09 60.9c-5.9 2.37-10.74-.9-10.74-7.27v-23.27c0-6.37 5.16-12.26 11.47-13.1l150.63-20.03z"/><path fill="#FFF" d="M853.04 508.66c-.85 0-1.68.03-2.52.08l-457.95 27.72v.01a13.87 13.87 0 0 0 0 27.7v.01l457.95 27.73v-.01a41.66 41.66 0 1 0 2.52-83.24z"/><path fill="#FFF" d="M855.55 591.75a83.08 83.08 0 0 0 83.09-83.1h-83.09v83.1z"/><circle fill="#FF8630" cx="879.08" cy="535.33" r="18.01"/><path fill="#FFF" d="M879.08 555.34c-11.03 0-20-8.97-20-20a20.03 20.03 0 0 1 20-20.02 20.04 20.04 0 0 1 20.01 20.01 20.03 20.03 0 0 1-20.01 20.01zm0-36.03a16.03 16.03 0 0 0-16.01 16.02c0 8.84 7.18 16.02 16.01 16.02 8.83 0 16.02-7.18 16.02-16.02 0-8.83-7.19-16.02-16.02-16.02z"/><circle fill="#231F20" cx="879.08" cy="535.33" r="11.29"/><path d="M381.01 550.32a192.15 192.15 0 0 1 14.92-14.21l-68.21-14.88v58.18l68.21-14.89a190.47 190.47 0 0 1-14.92-14.2zm444.82-208.55c-4.7.63-4.7 1.66 0 2.28l112.14 15a7.36 7.36 0 0 0 8.53-7.48v-17.32c0-4.74-3.84-8.1-8.53-7.47l-112.14 15zm0 60.3c-4.7.64-4.7 1.66 0 2.29l112.14 15a7.36 7.36 0 0 0 8.53-7.48v-17.32c0-4.74-3.84-8.1-8.53-7.48l-112.14 15zm149.89-42.33c-4.7-.62-4.94.3-.54 2.07l113.22 45.33c4.4 1.76 8-.67 8-5.41v-17.32c0-4.74-3.85-9.13-8.55-9.75l-112.13-14.92z"/><path fill="#FF8630" d="m1154.39 362.76-340.9-20.65a31.43 31.43 0 0 0-1.88-.05c-.63 0-1.25.02-1.88.06v-.06H747.9a61.84 61.84 0 0 0 60.11 61.8 31.1 31.1 0 0 0 3.6.22c.64 0 1.26-.02 1.88-.06l340.9-20.63v-.01a10.33 10.33 0 0 0 0-20.62z"/><path fill="#FFF" d="M811.48 406.15v-.07a33.27 33.27 0 0 1-3.62-.22 63.5 63.5 0 0 1-43.85-19.26 63.47 63.47 0 0 1-18.12-44.54v-2h65.6V340l2.11.12 342.78 20.75v.16a12.34 12.34 0 0 1 9.71 12.04c0 5.87-4.13 10.83-9.7 12.04v.14l-1.89.13-340.9 20.64-2.12.13zm-61.56-62.1a59.47 59.47 0 0 0 16.95 39.77 59.52 59.52 0 0 0 41.19 18.05l.17.02a28.64 28.64 0 0 0 5.13.14l2.12-.13 336.9-20.39 1.89-.13a8.34 8.34 0 0 0 7.83-8.3 8.34 8.34 0 0 0-7.83-8.32l-23.1-1.41L814.9 344.2l-1.54-.09a29.55 29.55 0 0 0-3.5 0l-2.12.13v-.19h-57.82z"/><path fill="#FFF" d="M786.9 369.68a16.26 16.26 0 1 0 32.53 0 16.26 16.26 0 0 0-32.53 0z"/><circle fill="#231F20" cx="803.16" cy="369.68" r="10.19"/><path fill="#FFF" d="M1161.15 373.07a147.27 147.27 0 0 0-11.48-10.93l72.42-13.44v48.74l-72.42-13.45a146.66 146.66 0 0 0 11.48-10.92zm-704.08 15.46a24.34 24.34 0 0 1-24.31-24.32c0-13.4 10.9-24.31 24.31-24.31 13.4 0 24.31 10.9 24.31 24.31 0 13.4-10.9 24.32-24.31 24.32zm0-44.64a20.34 20.34 0 0 0-20.32 20.32c0 11.2 9.12 20.32 20.32 20.32 11.2 0 20.32-9.11 20.32-20.32 0-11.2-9.12-20.32-20.32-20.32zm622.12 154.99c-13.4 0-24.32-10.91-24.32-24.32s10.91-24.31 24.32-24.31a24.32 24.32 0 0 1 0 48.63zm0-44.64c-11.2 0-20.32 9.12-20.32 20.32s9.11 20.32 20.32 20.32a20.33 20.33 0 0 0 0-40.64zm-564.07-25.18a12.87 12.87 0 0 1 0-25.72c7.09 0 12.86 5.77 12.86 12.86s-5.77 12.86-12.86 12.86zm0-21.73a8.88 8.88 0 0 0 0 17.73 8.88 8.88 0 0 0 0-17.73zM1035.4 559.6a12.87 12.87 0 0 1 0-25.72c7.09 0 12.86 5.77 12.86 12.86s-5.77 12.86-12.86 12.86zm0-21.73a8.88 8.88 0 0 0 0 17.73 8.88 8.88 0 0 0 0-17.73zm280.08-166.4a12.87 12.87 0 0 1 0-25.72c7.09 0 12.86 5.77 12.86 12.86s-5.77 12.86-12.86 12.86zm0-21.73a8.88 8.88 0 0 0 0 17.73 8.88 8.88 0 0 0 0-17.73zm-682.3 11.82a12.87 12.87 0 0 1 0-25.72 12.87 12.87 0 0 1 0 25.72zm0-21.73a8.88 8.88 0 0 0 0 17.74 8.88 8.88 0 0 0 0-17.74zm431.02-90.64v-4.02h10.42v-21.92h-10.43v-4.02h15.16v25.94h10.18v4.01h-25.34zm8.74-38.46c0-1.08.36-2.01 1.08-2.79a3.59 3.59 0 0 1 2.75-1.17c1.16 0 2.13.4 2.9 1.17a3.8 3.8 0 0 1 1.17 2.79c0 1.04-.38 1.91-1.16 2.63a4.12 4.12 0 0 1-2.9 1.08 3.72 3.72 0 0 1-3.84-3.71zm26.47 18.99c0-.36 0-.83-.03-1.41a67.74 67.74 0 0 0-.09-1.8 54.23 54.23 0 0 0-.14-1.82c-.07-.6-.14-1.12-.21-1.56h-4.02v-3.9h8.03l.54 4.86h.3c.4-.68.93-1.35 1.58-2.01a12.5 12.5 0 0 1 5.25-3.09 11.97 11.97 0 0 1 3.41-.48 18 18 0 0 1 4.88.6c1.42.4 2.6 1.11 3.54 2.13.93 1.02 1.64 2.4 2.12 4.13s.72 3.95.72 6.62v17.2h-4.73v-16.26c0-3.3-.54-5.8-1.61-7.47-1.08-1.68-3.02-2.51-5.85-2.51a7.58 7.58 0 0 0-3.01.63 10.34 10.34 0 0 0-2.66 1.64 11.34 11.34 0 0 0-2.09 2.36 9.9 9.9 0 0 0-1.31 2.84v18.77h-4.61v-19.47zm37.5-22.47h10v31.87c0 2.44.41 4.16 1.23 5.15.82 1 2.03 1.5 3.62 1.5a8.69 8.69 0 0 0 3.2-.6c1.03-.4 2.16-1.08 3.4-2.04l2.15 3.3a13.24 13.24 0 0 1-2.1 1.5 15.68 15.68 0 0 1-4.75 1.8 12.78 12.78 0 0 1-6.2-.33 6.76 6.76 0 0 1-2.9-1.83c-.79-.84-1.38-1.95-1.78-3.33s-.6-3.08-.6-5.12v-27.86h-5.27v-4zm35.1 41.94v-4.02h10.42v-21.92h-10.42v-4.02h15.15v25.94h10.19v4.01H1172zm8.74-38.46c0-1.08.36-2.01 1.08-2.79a3.59 3.59 0 0 1 2.76-1.17c1.16 0 2.12.4 2.9 1.17a3.8 3.8 0 0 1 1.17 2.79c0 1.04-.39 1.91-1.17 2.63a4.12 4.12 0 0 1-2.9 1.08c-1.12 0-2.04-.36-2.76-1.08s-1.08-1.6-1.08-2.63zm26.48 18.99-.03-1.41a67.74 67.74 0 0 0-.09-1.8 54.23 54.23 0 0 0-.15-1.82 27.1 27.1 0 0 0-.2-1.56h-4.02v-3.9h8.02l.54 4.86h.3c.4-.68.93-1.35 1.59-2.01a12.5 12.5 0 0 1 5.24-3.09 11.97 11.97 0 0 1 3.41-.48c1.84 0 3.47.2 4.89.6 1.41.4 2.6 1.11 3.53 2.13.94 1.02 1.65 2.4 2.13 4.13s.72 3.95.72 6.62v17.2h-4.73v-16.26c0-3.3-.54-5.8-1.62-7.47-1.07-1.68-3.02-2.51-5.85-2.51a7.58 7.58 0 0 0-3.01.63 10.34 10.34 0 0 0-2.66 1.64 11.34 11.34 0 0 0-2.08 2.36 9.9 9.9 0 0 0-1.32 2.84v18.77h-4.6v-19.47zm62.05 15.7a16 16 0 0 1-2.54 1.79 18.72 18.72 0 0 1-3.2 1.44 23.66 23.66 0 0 1-3.63.93 22.13 22.13 0 0 1-3.8.32c-2.4 0-4.52-.36-6.36-1.1a12.2 12.2 0 0 1-4.6-3.18 13.8 13.8 0 0 1-2.82-4.94 20.37 20.37 0 0 1-.96-6.47c0-2.52.35-4.75 1.05-6.7a13 13 0 0 1 3.02-4.92 13.16 13.16 0 0 1 4.8-3.03c1.87-.7 3.97-1.05 6.28-1.05 1.68 0 3.34.23 4.98.66a9.84 9.84 0 0 1 4.34 2.49 11.84 11.84 0 0 1 2.9 5.03c.68 2.14.92 4.9.72 8.3h-23.12c0 3.6.97 6.28 2.9 8.06 1.93 1.77 4.5 2.66 7.73 2.66 1.08 0 2.15-.13 3.2-.39a26.47 26.47 0 0 0 3.02-.93 15.93 15.93 0 0 0 2.54-1.2c.73-.43 1.3-.83 1.7-1.2l1.85 3.42zm-12.6-22.95c-1.32 0-2.57.14-3.74.42s-2.2.75-3.1 1.4a7.74 7.74 0 0 0-2.21 2.58 10.36 10.36 0 0 0-1.1 3.92h18.56c-.2-2.63-1.05-4.68-2.54-6.14a8.1 8.1 0 0 0-5.88-2.18zM1076 636.64h9.58v15.4h.3c1.04-1.32 2.37-2.34 4.01-3.05s3.42-1.08 5.33-1.08c8.79 0 13.18 5.07 13.18 15.21 0 5.16-1.42 9.1-4.25 11.84-2.84 2.73-6.87 4.1-12.1 4.1a28.8 28.8 0 0 1-6.71-.72 13.4 13.4 0 0 1-4.37-1.68v-36h-4.98v-4.01zm18.62 15.28c-2.4 0-4.33.68-5.8 2.04a11.84 11.84 0 0 0-3.24 5.75v13.78c.92.47 2.02.85 3.3 1.13 1.27.28 2.6.42 4 .42 1.6 0 3.05-.22 4.35-.68a8.26 8.26 0 0 0 3.32-2.16 9.91 9.91 0 0 0 2.13-3.74c.5-1.52.75-3.32.75-5.4a18.8 18.8 0 0 0-.48-4.3 10.5 10.5 0 0 0-1.53-3.57 7.35 7.35 0 0 0-2.72-2.4 8.76 8.76 0 0 0-4.08-.87zm24.32-15.27h10v31.86c0 2.44.41 4.16 1.23 5.16.82 1 2.03 1.5 3.63 1.5a8.69 8.69 0 0 0 3.2-.6c1.02-.4 2.15-1.08 3.38-2.04l2.16 3.3a13.24 13.24 0 0 1-2.1 1.49 15.68 15.68 0 0 1-4.75 1.8 12.78 12.78 0 0 1-6.2-.33 6.76 6.76 0 0 1-2.9-1.83c-.79-.84-1.38-1.95-1.78-3.33s-.6-3.08-.6-5.12v-27.85h-5.27v-4.01zm32.22 26.95c0-4.83 1.26-8.65 3.78-11.47s6.1-4.22 10.78-4.22c2.52 0 4.68.4 6.5 1.22a12.76 12.76 0 0 1 7.19 8.3c.57 1.92.86 3.98.86 6.17 0 2.4-.32 4.56-.95 6.5a12.45 12.45 0 0 1-7.4 8.09c-1.82.74-3.89 1.1-6.2 1.1-2.48 0-4.63-.4-6.47-1.22a12.68 12.68 0 0 1-7.22-8.3 21.24 21.24 0 0 1-.87-6.17zm4.98 0c0 1.4.16 2.8.5 4.2.34 1.4.9 2.65 1.65 3.77a8.54 8.54 0 0 0 2.95 2.7 8.98 8.98 0 0 0 4.45 1.01c3.18 0 5.58-.98 7.2-2.96 1.6-1.98 2.41-4.89 2.41-8.72 0-1.44-.17-2.84-.5-4.22s-.9-2.63-1.68-3.75-1.77-2.01-2.98-2.7a9 9 0 0 0-4.45-1.01c-3.18 0-5.57.98-7.16 2.94-1.6 1.95-2.4 4.87-2.4 8.74zm53.84-10.36a23.84 23.84 0 0 0-2.96-.81 15.5 15.5 0 0 0-3.15-.33c-3.91 0-6.82.92-8.74 2.76s-2.88 4.77-2.88 8.77c0 1.77.28 3.34.84 4.72a9.61 9.61 0 0 0 2.4 3.51c1.04.96 2.28 1.7 3.74 2.22 1.46.53 3.07.79 4.82.79a15.83 15.83 0 0 0 5.48-.98c1.78-.65 3.27-1.5 4.47-2.56l2.1 3.47c-.57.48-1.27.98-2.1 1.5a20.66 20.66 0 0 1-2.9 1.47 20.23 20.23 0 0 1-3.66 1.1c-1.34.29-2.79.43-4.34.43-2.6 0-4.89-.37-6.86-1.11a13 13 0 0 1-4.94-3.18 13.58 13.58 0 0 1-3-4.97 19.33 19.33 0 0 1-1.02-6.44c0-2.51.35-4.75 1.05-6.7.7-1.96 1.7-3.6 3.03-4.92a13.16 13.16 0 0 1 4.79-3.02c1.87-.7 3.97-1.05 6.29-1.05 2.95 0 5.36.26 7.21.78 1.86.52 3.43 1.1 4.7 1.73l-.05.18v8.33h-4.32v-5.7zm11.09-16.6h9.7v24.8h3.3l11.8-12.81h5.62l-13.23 14.2 10.9 11.74h3.9v4h-6.18l-12.82-13.53h-3.3v13.54h-4.6v-37.92h-5.1v-4.01z"/><circle cx="1220.62" cy="68.52" r="5.03"/><circle cx="1263.97" cy="68.52" r="5.03"/><circle fill="#FF8630" cx="1361.53" cy="90.15" r="5.03"/><circle fill="#FF8630" cx="1203.93" cy="36.35" r="5.03"/><circle fill="#FF8630" cx="1253.92" cy="54.03" r="5.03"/><circle fill="#FF8630" cx="1190.91" cy="149.52" r="5.03"/><circle cx="1243.56" cy="73.55" r="5.03"/><circle cx="1331.37" cy="74.29" r="5.03"/><circle cx="1198.9" cy="126.41" r="5.03"/><circle cx="1258.94" cy="89.31" r="5.03"/><circle cx="1238.39" cy="49" r="5.03"/><circle cx="1381.55" cy="53.51" r="5.03"/><path d="m513.5 113.22 85.13 32.13-85.13 32.13z"/><path fill="#FF8630" d="M681.65 206.7H562.99l37.35-61.35L562.98 84h118.67"/><path d="M681.65 208.7H562.97a2 2 0 0 1-1.7-3.04l36.72-60.31-36.72-60.31a2 2 0 0 1 1.7-3.04h118.69a2 2 0 0 1 0 4H566.53l35.5 58.31a2 2 0 0 1 0 2.08l-35.5 58.3h115.13a2 2 0 0 1 0 4z"/><path fill="#FFF" d="M681.38 81.92a7.81 7.81 0 0 1 5.54 2.29l55.6 55.6a7.85 7.85 0 0 1 0 11.07l-55.6 55.6a7.81 7.81 0 0 1-5.54 2.3"/><circle fill="#FF8630" cx="704.52" cy="145.29" r="13.66"/><circle fill="#231F20" cx="704.52" cy="145.29" r="8.56"/><path d="m759.86 66.85 61.85 23.35-61.85 23.34z"/><path fill="#FF8630" d="M882.03 134.77h-86.22l27.13-44.57-27.13-44.57h86.22"/><path d="M882.03 136.77h-86.22a2 2 0 0 1-1.7-3.04l26.5-43.53-26.5-43.54a2 2 0 0 1 1.7-3.03h86.22a2 2 0 0 1 0 4h-82.67l25.29 41.53a2 2 0 0 1 0 2.07l-25.29 41.54h82.67a2 2 0 0 1 0 4z"/><path fill="#FFF" d="M881.55 43.65a5.74 5.74 0 0 1 4.07 1.68l40.88 40.89a5.78 5.78 0 0 1 0 8.14l-40.88 40.89a5.73 5.73 0 0 1-4.07 1.68"/><circle fill="#FF8630" cx="898.65" cy="90.15" r="9.93"/><circle fill="#231F20" cx="898.65" cy="90.15" r="6.22"/><path fill="#FF8630" d="M288.67 426.15a48.18 48.18 0 1 1-84.51-46.3c12.78-23.34 100.02-137.7 123.35-124.92 23.34 12.8-26.06 147.88-38.84 171.22z"/><path fill="#FFF" d="M246.37 453.2a50.23 50.23 0 0 1-24.06-6.19 50.24 50.24 0 0 1-19.9-68.12c6.52-11.9 30.22-44.24 53.81-71.59 21.78-25.25 51.1-55.35 67.1-55.35 1.92 0 3.65.41 5.15 1.23 11.05 6.05 9.4 34.3-4.91 83.96-11.1 38.52-26.78 78.37-33.14 89.97a50.2 50.2 0 0 1-44.05 26.08zm76.95-197.26c-26.4 0-104.42 101.16-117.41 124.87a46.24 46.24 0 0 0 40.46 68.39 46.2 46.2 0 0 0 40.55-24c6.26-11.45 21.77-50.9 32.8-89.17 18.66-64.77 11-77.06 6.83-79.34a6.6 6.6 0 0 0-3.23-.75z"/><path d="M192.99 541.84a2 2 0 0 1-1.94-2.48c27.97-113.13 132.12-281.2 133.17-282.88a2 2 0 0 1 3.39 2.1c-1.05 1.69-104.86 169.22-132.69 281.74a2 2 0 0 1-1.93 1.51z"/><path fill="#FF8630" d="M110.46 392.03a59.56 59.56 0 1 0 119.1 0c0-32.9-26.65-208.69-59.55-208.69-32.89 0-59.55 175.8-59.55 208.69z"/><path fill="#FFF" d="M170.02 453.58a61.62 61.62 0 0 1-61.56-61.55c0-16.34 6.66-68.8 17.5-117.12 13.92-62.08 28.74-93.56 44.06-93.56 15.3 0 30.13 31.48 44.06 93.56 10.83 48.33 17.49 100.78 17.49 117.12a61.63 61.63 0 0 1-61.55 61.55zm0-268.24c-12.64 0-27.28 32.97-40.17 90.45-10.78 48.05-17.4 100.09-17.4 116.24a57.63 57.63 0 0 0 57.57 57.56 57.63 57.63 0 0 0 57.55-57.56c0-16.15-6.61-68.19-17.4-116.24-12.88-57.48-27.52-90.45-40.15-90.45z"/><path d="M170.02 575.63a2 2 0 0 1-2-2V186.78a2 2 0 1 1 4 0v386.85a2 2 0 0 1-2 2z"/><path fill="#FF8630" d="M58.74 453a48.18 48.18 0 1 0 81.68-51.13C126.3 379.32 32.57 270.23 10.02 284.35c-22.56 14.12 34.6 146.1 48.72 168.67z"/><path fill="#FFF" d="M99.63 477.63a49.95 49.95 0 0 1-42.58-23.57c-7.02-11.21-24.99-50.07-38.3-87.89-17.17-48.74-20.47-76.85-9.8-83.53a10.93 10.93 0 0 1 5.9-1.56c16.3 0 47.08 28.31 70.03 52.06 27.55 28.51 50.94 57.62 57.23 67.68a50.24 50.24 0 0 1-15.91 69.16 50.03 50.03 0 0 1-26.58 7.65zM14.84 285.08c-1.52 0-2.75.3-3.77.95-4.02 2.52-10.96 15.23 11.43 78.81 13.23 37.56 31 76.05 37.92 87.1a45.97 45.97 0 0 0 39.2 21.7 46.06 46.06 0 0 0 24.45-7.05 46.24 46.24 0 0 0 14.65-63.66c-14.01-22.38-96.89-117.85-123.88-117.85z"/><path d="M160.86 562.94a2 2 0 0 1-1.9-1.4C124.65 450.81 11.8 290.36 10.68 288.76a2 2 0 0 1 3.26-2.3c1.14 1.6 114.33 162.57 148.83 273.88a2 2 0 0 1-1.9 2.59z"/><path d="M230.66 702h-122.2L80.51 504.49h178.1z"/></svg>
