<svg xmlns="http://www.w3.org/2000/svg" width="1583" height="701.997" xml:space="preserve"><path fill="#FFF" d="m1094.147 102.174-45.961 17.346 45.961 17.347z"/><path fill="#F68635" d="M1003.361 152.642h64.074l-20.165-33.122 20.165-33.122h-64.074"/><path d="M1067.435 154.639h-64.073a1.998 1.998 0 0 1 0-3.994h60.52l-18.316-30.087a1.992 1.992 0 0 1 0-2.076l18.316-30.086h-60.52a1.998 1.998 0 0 1 0-3.994h64.073a1.995 1.995 0 0 1 1.705 3.036l-19.532 32.083 19.532 32.084a1.995 1.995 0 0 1-1.705 3.034z"/><path fill="#FFF" d="M1003.361 84.424a4.317 4.317 0 0 0-3.063 1.263l-30.733 30.738a4.338 4.338 0 0 0 0 6.121l30.733 30.739a4.319 4.319 0 0 0 3.062 1.263"/><circle fill="#F68635" cx="990.017" cy="119.486" r="9.374"/><circle fill="#231F20" cx="990.017" cy="119.486" r="5.873"/><path fill="#FFF" d="M169.56 241.646c17.397 1.156 34.297-11.712 50.583-16.369 21.072-6.024 39.568-.188 59.082 7.237 7.769 2.956 14.945 7.876 22.968 9.887 9.752 2.442 20.893 1.843 30.685.12 16.844-2.967 31.409-11.078 48.933-9.576 18.447 1.581 34.15 15.298 52.632 18.2 9.418 1.478 17.838 1.15 27.407 1.15v19.303H169.56v-29.952z"/><path fill="#FFF" d="M461.849 271.599h506.247c37.013 0 74.103-.359 111.087.026.218-12.78.201-15.538-13.015-15.913-13.854-.392-27.606-.211-41.389-2.042-17.581-2.335-36.682 2.645-53.511-4.21-11.438-4.659-19.381-9.641-33.022-9.758-14.046-.121-25.779 5.237-39.205 6.022-15.278.894-36.309-8.484-50.584-13.968-20.138-7.735-37.166-9.44-59.147-7.882-26.534 1.881-48.454 10.572-71.945 21.885-20.902 10.067-47.565 6.366-70.101 6.503-26.578.162-53.16.055-79.737.062-35.226.009-70.451-.028-105.678-.028v19.303zM1415.067 147.893c-.442-3.695-1.464-7.281-3.69-10.549-7.708-11.318-29.334-11.292-39.503-4.033-11.461 8.182-16.303 24.121-15.331 37.665-1.189-16.579.312-35.813-7.619-50.989-8.987-17.193-38.556-14.075-44.517 4.608-3.417 10.706-.923 22.404-.705 33.362-.176-8.837-8.211-20.64-14.939-25.677-15.474-11.579-32.072-14.337-48.975-5.23-12.96 6.981-19.324 24.274-19.162 38.356.265 23.022 16.428 42.621 38.077 51.328l56.775 56.861 97.524-1.997c.446-.009 1.319-67.074 1.411-71.806.312-15.853 1.354-31.882.939-47.732a44.416 44.416 0 0 0-.285-4.167zM169.998 682.01c.071 7.309 72.333-13.329 78.167-15.034 40.206-11.742 80.025-14.6 120.08 1.884 27.665 11.385 57.266 9.813 86.387 6.891 14.216-1.428 29.761-5.047 44.055-4.028 12.874.917 24.862 6.437 38.07 7.281 43.358 2.773 80.513-18.308 122.953-24.206 48.423-6.731 85.567-4.234 130.745 13.434 16.419 6.422 34.984 12.196 53.361 14.536 20.793 2.646 39.539-4.14 60.202-6.978 16.887-2.321 34.986 2.079 51.432-2.683 27.368-7.922 39.452-29.577 68.239-29.873 26.376-.271 46.592 2.504 68.707 15.614 23.169 13.734 54.392 9.076 80.014 3.387 44.092-9.791 80.487-17.064 123.869-2.324 22.228 7.552 42.459 13.111 66.188 13.109 18.028-.002 34.404-7.622 52.032-5.989l-1.495 32.933H169.997l.001-17.954z"/><path d="M0 697.966h169.998v3.994H0zM1413.003 697.966H1583v3.994h-169.997z"/><path fill="#FFF" d="M1415 701.96H168V0h1247v701.96zm-1243.007-3.994h1239.013V3.994H171.993v693.972z"/><path fill="#FFF" d="M1415 273.596H168V0h1247v273.596zm-1243.007-3.994h1239.013V3.994H171.993v265.608z"/><path fill="#FFF" d="M459.852 1.997h3.993v269.602h-3.993zM1163.723 1.997h3.994v269.602h-3.994z"/><path d="M1015.96 187.871h299.519v85.725H1015.96zM1015.96 616.235h299.519v85.725H1015.96zM1294.503 518.305a90.368 90.368 0 0 1-7.088 6.749l32.402 7.07v-27.637l-32.402 7.07a90.905 90.905 0 0 1 7.088 6.748zM1264.171 497.11c-2.113-12.791-13.216-22.548-26.604-22.548-11.275 0-20.928 6.922-24.956 16.744a90.883 90.883 0 0 1 16.087-1.434c12.593.001 24.581 2.584 35.473 7.238zM1213.085 545.385c4.279 9.243 13.629 15.658 24.482 15.658 13.005 0 23.857-9.207 26.404-21.457-10.838 4.6-22.758 7.15-35.273 7.15a90.76 90.76 0 0 1-15.613-1.351z"/><path fill="#FFF" d="M1228.698 548.733a93.069 93.069 0 0 1-15.956-1.382l-1.654-.288v-57.516l1.654-.288a93.205 93.205 0 0 1 15.956-1.384c12.571 0 24.77 2.489 36.257 7.398a92.242 92.242 0 0 1 23.758 14.767 93.025 93.025 0 0 1 7.244 6.895l1.288 1.369-1.288 1.368a92.836 92.836 0 0 1-7.244 6.898 92.251 92.251 0 0 1-23.961 14.853c-11.428 4.85-23.558 7.31-36.054 7.31zm-13.616-5.043a89.24 89.24 0 0 0 13.616 1.049c11.957 0 23.562-2.352 34.493-6.991a88.209 88.209 0 0 0 22.925-14.211 89.618 89.618 0 0 0 5.615-5.232 89.28 89.28 0 0 0-5.614-5.229 88.285 88.285 0 0 0-22.73-14.129c-10.989-4.695-22.66-7.076-34.688-7.076-4.535 0-9.107.354-13.616 1.052v50.767z"/><g fill="#231F20"><path d="M1212.611 491.307c-19.442 3.494-36.726 13.202-49.719 26.998 13.099 13.91 30.559 23.66 50.192 27.08v-54.158c-.157.027-.316.05-.473.08z"/><path d="m1215.082 547.76-2.34-.408c-19.47-3.391-37.689-13.221-51.304-27.678l-1.289-1.369 1.29-1.369c13.691-14.538 31.265-24.08 50.818-27.594l2.824-.486v58.904zm-49.42-29.455c12.46 12.692 28.087 21.179 45.426 24.674V493.63c-17.343 3.502-32.975 11.994-45.426 24.675z"/></g><circle fill="#FFF" cx="1185.051" cy="518.305" r="8.821"/><circle fill="#231F20" cx="1185.05" cy="518.305" r="5.527"/><path d="M288.453 57.521c-18.002 0-34 8.55-44.183 21.801 10.183 13.25 26.181 21.799 44.183 21.799s34-8.549 44.183-21.799c-10.184-13.251-26.181-21.801-44.183-21.801z"/><path d="m231.328 58.536 20.782 20.786-20.782 20.784zM346.5 144.272c18.002 0 34 8.549 44.183 21.8-10.183 13.25-26.181 21.799-44.183 21.799-18.001 0-33.999-8.549-44.182-21.799 10.182-13.251 26.18-21.8 44.182-21.8z"/><path d="m403.625 145.287-20.783 20.785 20.783 20.785zM833.929 508.274c6.309.843 6.309 2.224 0 3.066l-150.634 20.143c-6.309.843-11.47-3.674-11.47-10.039v-23.271c0-6.365 5.162-10.882 11.47-10.039l150.634 20.14zM833.929 589.286c6.309.843 6.309 2.224 0 3.066l-150.634 20.143c-6.309.843-11.47-3.674-11.47-10.039v-23.271c0-6.365 5.162-10.882 11.47-10.039l150.634 20.14zM632.581 532.417c6.309-.839 6.637.41.728 2.776L481.22 596.09c-5.909 2.366-10.743-.905-10.743-7.271v-23.271c0-6.365 5.162-12.259 11.471-13.098l150.633-20.033z"/><path fill="#FFF" d="M853.039 508.658c-.847 0-1.682.032-2.517.082v-.007c-83.16 5.036-430.232 26.046-457.951 27.724v.018c-7.275.436-13.046 6.457-13.046 13.843s5.771 13.41 13.046 13.846v.018c27.719 1.676 374.791 22.688 457.951 27.723v-.008c.835.051 1.67.084 2.517.084 23.007 0 41.655-18.652 41.655-41.662 0-23.008-18.648-41.661-41.655-41.661z"/><path fill="#FFF" d="M855.555 591.747c45.884 0 83.081-37.199 83.081-83.089h-83.081v83.089z"/><circle fill="#F68635" cx="879.082" cy="535.333" r="18.013"/><path fill="#FFF" d="M879.08 555.344c-11.032 0-20.008-8.977-20.008-20.011 0-11.035 8.976-20.013 20.008-20.013 11.034 0 20.012 8.978 20.012 20.013 0 11.034-8.978 20.011-20.012 20.011zm0-36.03c-8.83 0-16.014 7.186-16.014 16.019 0 8.832 7.184 16.017 16.014 16.017 8.832 0 16.018-7.185 16.018-16.017 0-8.833-7.186-16.019-16.018-16.019z"/><circle fill="#231F20" cx="879.082" cy="535.333" r="11.286"/><path d="M381.011 550.317a192.153 192.153 0 0 1 14.92-14.207l-68.211-14.882v58.181l68.211-14.885a190.47 190.47 0 0 1-14.92-14.207zM825.834 341.771c-4.696.628-4.696 1.655 0 2.283l112.132 14.994c4.696.628 8.539-2.735 8.539-7.473V334.25c0-4.737-3.843-8.101-8.539-7.473l-112.132 14.994zM825.834 402.077c-4.696.628-4.696 1.655 0 2.283l112.132 14.993c4.696.628 8.539-2.735 8.539-7.473v-17.323c0-4.737-3.843-8.101-8.539-7.473l-112.132 14.993zM975.72 359.743c-4.696-.625-4.94.306-.542 2.066l113.217 45.333c4.398 1.761 7.997-.675 7.997-5.412v-17.324c0-4.737-3.843-9.125-8.539-9.75L975.72 359.743z"/><path fill="#F68635" d="M1154.386 362.765v-.014l-340.905-20.638v.004a31.434 31.434 0 0 0-1.872-.061c-.63 0-1.254.024-1.875.062v-.062h-61.845c0 33.58 26.76 60.891 60.115 61.811a31.1 31.1 0 0 0 3.605.216c.627 0 1.252-.024 1.872-.062v.007c61.905-3.75 320.272-19.391 340.905-20.639v-.014c5.416-.324 9.712-4.807 9.712-10.305 0-5.499-4.296-9.982-9.712-10.305z"/><path fill="#FFF" d="M811.483 406.148v-.069a33.268 33.268 0 0 1-3.623-.219c-16.644-.481-32.215-7.318-43.853-19.257-11.683-11.984-18.116-27.805-18.116-44.547v-1.997h65.592v-.063l2.118.124 342.781 20.751v.157c5.575 1.207 9.712 6.175 9.712 12.042 0 5.865-4.137 10.833-9.712 12.04v.145l-1.877.127c-20.633 1.248-278.999 16.889-340.904 20.639l-2.118.127zm-61.566-62.094c.489 14.951 6.464 29.006 16.95 39.762 10.93 11.213 25.558 17.625 41.19 18.056l.176.013a28.64 28.64 0 0 0 5.125.144l2.119-.13v.009c63.882-3.87 306.287-18.544 336.911-20.397v-.001l1.878-.126c4.393-.263 7.834-3.914 7.834-8.312a8.337 8.337 0 0 0-7.834-8.312l-23.093-1.411L814.902 344.2l-1.541-.09a29.554 29.554 0 0 0-3.509.001l-2.116.126v-.184h-57.819z"/><path fill="#FFF" d="M786.897 369.678c0 8.984 7.281 16.266 16.266 16.266 8.98 0 16.263-7.281 16.263-16.266 0-8.982-7.282-16.266-16.263-16.266-8.985 0-16.266 7.283-16.266 16.266z"/><circle fill="#231F20" cx="803.16" cy="369.678" r="10.191"/><g><path fill="#FFF" d="M1161.146 373.07a147.268 147.268 0 0 0-11.472-10.927l72.419-13.441v48.735l-72.419-13.444a146.657 146.657 0 0 0 11.472-10.923z"/></g><g><path fill="#FFF" d="M457.07 388.526c-13.406 0-24.312-10.907-24.312-24.314 0-13.408 10.906-24.316 24.312-24.316 13.405 0 24.312 10.908 24.312 24.316-.001 13.407-10.907 24.314-24.312 24.314zm0-44.636c-11.204 0-20.319 9.116-20.319 20.322 0 11.205 9.115 20.32 20.319 20.32 11.204 0 20.318-9.115 20.318-20.32 0-11.206-9.115-20.322-20.318-20.322z"/></g><g><path fill="#FFF" d="M1079.187 498.878c-13.406 0-24.313-10.908-24.313-24.315s10.907-24.315 24.313-24.315 24.312 10.908 24.312 24.315-10.906 24.315-24.312 24.315zm0-44.637c-11.204 0-20.319 9.116-20.319 20.321s9.115 20.321 20.319 20.321 20.318-9.116 20.318-20.321-9.114-20.321-20.318-20.321z"/></g><g><path fill="#FFF" d="M515.117 429.057c-7.091 0-12.859-5.77-12.859-12.861s5.769-12.861 12.859-12.861 12.859 5.77 12.859 12.861-5.768 12.861-12.859 12.861zm0-21.729c-4.889 0-8.866 3.978-8.866 8.867s3.978 8.867 8.866 8.867 8.866-3.978 8.866-8.867-3.977-8.867-8.866-8.867z"/></g><g><path fill="#FFF" d="M1035.398 559.598c-7.091 0-12.859-5.771-12.859-12.862s5.769-12.86 12.859-12.86 12.859 5.77 12.859 12.86c.001 7.091-5.768 12.862-12.859 12.862zm0-21.729c-4.889 0-8.865 3.978-8.865 8.866 0 4.89 3.977 8.868 8.865 8.868s8.865-3.979 8.865-8.868c.001-4.888-3.976-8.866-8.865-8.866z"/></g><g><path fill="#FFF" d="M1315.479 371.469c-7.091 0-12.859-5.771-12.859-12.862s5.769-12.86 12.859-12.86 12.859 5.77 12.859 12.86c0 7.091-5.769 12.862-12.859 12.862zm0-21.729c-4.889 0-8.865 3.978-8.865 8.866 0 4.89 3.977 8.868 8.865 8.868s8.865-3.979 8.865-8.868c0-4.888-3.977-8.866-8.865-8.866z"/></g><g><path fill="#FFF" d="M633.177 361.563c-7.09 0-12.858-5.771-12.858-12.862s5.768-12.86 12.858-12.86c7.091 0 12.859 5.77 12.859 12.86.001 7.092-5.768 12.862-12.859 12.862zm0-21.728c-4.888 0-8.865 3.978-8.865 8.866 0 4.89 3.977 8.868 8.865 8.868 4.889 0 8.866-3.979 8.866-8.868s-3.977-8.866-8.866-8.866z"/></g><g fill="#FFF"><path d="M1064.194 249.186v-4.014h10.423v-21.925h-10.423v-4.014h15.154v25.938h10.183v4.014h-25.337zm8.745-38.459c0-1.078.359-2.007 1.078-2.786.719-.778 1.637-1.168 2.756-1.168 1.157 0 2.126.39 2.904 1.168.779.779 1.168 1.708 1.168 2.786 0 1.039-.389 1.917-1.168 2.636-.778.719-1.747 1.078-2.904 1.078-1.119 0-2.037-.359-2.756-1.078s-1.078-1.597-1.078-2.636zM1099.414 229.717c0-.359-.01-.829-.029-1.408a67.737 67.737 0 0 0-.09-1.797 54.232 54.232 0 0 0-.15-1.827c-.06-.6-.13-1.118-.209-1.558h-4.014v-3.894h8.026l.539 4.852h.3c.398-.679.928-1.348 1.587-2.007.659-.658 1.428-1.258 2.306-1.797s1.857-.968 2.936-1.288a11.971 11.971 0 0 1 3.414-.479c1.836 0 3.464.201 4.882.6 1.417.399 2.595 1.108 3.534 2.127.938 1.018 1.646 2.396 2.126 4.133s.719 3.944.719 6.62v17.192h-4.731v-16.257c0-3.307-.537-5.798-1.612-7.472-1.074-1.673-3.023-2.51-5.849-2.51a7.58 7.58 0 0 0-3.014.628 10.34 10.34 0 0 0-2.656 1.644 11.336 11.336 0 0 0-2.089 2.36 9.894 9.894 0 0 0-1.312 2.839v18.768h-4.612v-19.469zM1136.909 207.252h10.003v31.869c0 2.437.409 4.154 1.228 5.152.818.999 2.026 1.497 3.624 1.497a8.69 8.69 0 0 0 3.205-.599c1.018-.398 2.146-1.078 3.384-2.037l2.156 3.295a13.244 13.244 0 0 1-2.103 1.498 15.68 15.68 0 0 1-4.748 1.796c-.802.159-1.543.239-2.224.239-1.482 0-2.804-.189-3.967-.568-1.162-.379-2.134-.988-2.914-1.827-.781-.839-1.372-1.947-1.772-3.325s-.602-3.085-.602-5.122v-27.855h-5.271v-4.013zM1172.009 249.186v-4.014h10.423v-21.925h-10.423v-4.014h15.154v25.938h10.183v4.014h-25.337zm8.745-38.459c0-1.078.359-2.007 1.078-2.786.719-.778 1.637-1.168 2.756-1.168 1.157 0 2.126.39 2.904 1.168.779.779 1.168 1.708 1.168 2.786 0 1.039-.389 1.917-1.168 2.636-.778.719-1.747 1.078-2.904 1.078-1.119 0-2.037-.359-2.756-1.078s-1.078-1.597-1.078-2.636zM1207.229 229.717c0-.359-.01-.829-.029-1.408a67.737 67.737 0 0 0-.09-1.797 54.232 54.232 0 0 0-.15-1.827c-.06-.6-.13-1.118-.209-1.558h-4.014v-3.894h8.026l.539 4.852h.3c.398-.679.928-1.348 1.587-2.007.659-.658 1.428-1.258 2.306-1.797s1.857-.968 2.936-1.288a11.971 11.971 0 0 1 3.414-.479c1.836 0 3.464.201 4.882.6 1.417.399 2.595 1.108 3.534 2.127.938 1.018 1.646 2.396 2.126 4.133s.719 3.944.719 6.62v17.192h-4.731v-16.257c0-3.307-.537-5.798-1.612-7.472-1.074-1.673-3.023-2.51-5.849-2.51a7.58 7.58 0 0 0-3.014.628 10.34 10.34 0 0 0-2.656 1.644 11.336 11.336 0 0 0-2.089 2.36 9.894 9.894 0 0 0-1.312 2.839v18.768h-4.612v-19.469zM1269.282 245.411c-.719.64-1.567 1.238-2.545 1.798a18.716 18.716 0 0 1-3.205 1.438 23.656 23.656 0 0 1-3.624.929 22.128 22.128 0 0 1-3.803.329c-2.396 0-4.514-.369-6.35-1.108-1.837-.738-3.375-1.797-4.612-3.175-1.238-1.378-2.177-3.025-2.814-4.942-.64-1.917-.959-4.073-.959-6.47 0-2.516.35-4.752 1.049-6.709.697-1.956 1.707-3.595 3.024-4.912 1.317-1.318 2.914-2.326 4.792-3.025 1.876-.698 3.973-1.049 6.289-1.049 1.677 0 3.334.221 4.972.659 1.637.44 3.085 1.269 4.343 2.486 1.258 1.219 2.226 2.896 2.904 5.032.679 2.137.919 4.902.719 8.297h-23.12c0 3.594.966 6.28 2.897 8.057 1.932 1.778 4.51 2.666 7.736 2.666 1.075 0 2.141-.129 3.196-.39a26.468 26.468 0 0 0 3.018-.928 15.929 15.929 0 0 0 2.539-1.198c.736-.439 1.304-.839 1.702-1.198l1.852 3.413zm-12.611-22.943c-1.313 0-2.558.141-3.731.42s-2.209.748-3.104 1.407c-.896.659-1.633 1.519-2.209 2.576-.577 1.059-.945 2.366-1.104 3.924h18.568c-.199-2.636-1.046-4.683-2.538-6.141-1.494-1.457-3.454-2.186-5.882-2.186z"/></g><g fill="#FFF"><path d="M1075.995 636.645h9.583v15.396h.3c1.038-1.317 2.375-2.336 4.013-3.055s3.415-1.079 5.331-1.079c8.785 0 13.178 5.072 13.178 15.217 0 5.151-1.418 9.096-4.253 11.831-2.836 2.735-6.868 4.104-12.099 4.104-2.477 0-4.713-.24-6.709-.719-1.997-.479-3.454-1.038-4.372-1.678v-36.003h-4.972v-4.014zm18.628 15.275c-2.396 0-4.333.68-5.811 2.037-1.478 1.358-2.556 3.275-3.234 5.751v13.778c.919.479 2.017.859 3.295 1.138 1.277.28 2.614.42 4.013.42 1.597 0 3.045-.229 4.343-.689a8.26 8.26 0 0 0 3.324-2.156c.918-.979 1.627-2.226 2.127-3.744.498-1.518.748-3.314.748-5.392a18.8 18.8 0 0 0-.479-4.312c-.32-1.357-.829-2.547-1.527-3.564a7.346 7.346 0 0 0-2.726-2.396c-1.118-.58-2.476-.871-4.073-.871zM1118.941 636.645h10.003v31.869c0 2.437.409 4.154 1.228 5.152.818.999 2.026 1.497 3.624 1.497a8.69 8.69 0 0 0 3.205-.599c1.018-.398 2.146-1.078 3.384-2.037l2.156 3.295a13.244 13.244 0 0 1-2.103 1.498 15.68 15.68 0 0 1-4.748 1.796c-.802.159-1.543.239-2.224.239-1.482 0-2.804-.189-3.967-.568-1.162-.379-2.134-.988-2.914-1.827-.781-.839-1.372-1.947-1.772-3.325s-.602-3.085-.602-5.122v-27.855h-5.271v-4.013zM1151.165 663.602c0-4.831 1.258-8.656 3.773-11.472s6.109-4.224 10.782-4.224c2.516 0 4.681.41 6.499 1.229 1.816.819 3.324 1.928 4.521 3.325 1.198 1.398 2.087 3.055 2.666 4.972.578 1.917.868 3.975.868 6.17 0 2.396-.32 4.563-.958 6.5-.64 1.938-1.578 3.585-2.815 4.942-1.238 1.358-2.766 2.406-4.582 3.145-1.817.739-3.884 1.108-6.199 1.108-2.477 0-4.633-.41-6.47-1.228-1.837-.818-3.354-1.927-4.552-3.325-1.198-1.397-2.087-3.055-2.666-4.972s-.867-3.973-.867-6.17zm4.972 0c0 1.398.168 2.796.507 4.193.339 1.398.887 2.656 1.643 3.774a8.535 8.535 0 0 0 2.956 2.695c1.214.68 2.696 1.019 4.448 1.019 3.184 0 5.583-.988 7.195-2.965 1.611-1.978 2.418-4.883 2.418-8.717 0-1.438-.169-2.845-.508-4.223s-.896-2.626-1.672-3.744-1.771-2.017-2.985-2.696c-1.215-.679-2.697-1.019-4.448-1.019-3.185 0-5.573.979-7.165 2.936-1.593 1.957-2.389 4.874-2.389 8.747zM1209.984 653.238a23.843 23.843 0 0 0-2.965-.809 15.491 15.491 0 0 0-3.145-.33c-3.914 0-6.828.922-8.745 2.764s-2.875 4.766-2.875 8.769c0 1.763.279 3.334.839 4.716.559 1.382 1.356 2.554 2.396 3.514 1.038.961 2.285 1.701 3.744 2.222 1.457.521 3.063.781 4.821.781a15.83 15.83 0 0 0 5.48-.975c1.776-.649 3.265-1.503 4.463-2.56l2.096 3.474c-.56.479-1.258.979-2.096 1.498a20.662 20.662 0 0 1-2.905 1.468 20.229 20.229 0 0 1-3.653 1.108c-1.339.278-2.786.419-4.343.419-2.597 0-4.882-.369-6.858-1.108-1.977-.738-3.624-1.797-4.941-3.175-1.318-1.378-2.316-3.034-2.995-4.972-.68-1.937-1.019-4.083-1.019-6.44 0-2.516.35-4.752 1.048-6.709.698-1.956 1.708-3.595 3.025-4.912 1.317-1.318 2.914-2.326 4.792-3.025 1.876-.698 3.973-1.049 6.289-1.049 2.955 0 5.361.261 7.218.779 1.856.52 3.424 1.099 4.702 1.737l-.061.18v8.327h-4.312v-5.692zM1221.065 636.645h9.703v24.801h3.295l11.8-12.819h5.63l-13.237 14.197 10.901 11.741h3.894v4.014h-6.169l-12.818-13.538h-3.295v13.538h-4.611v-37.92h-5.092v-4.014z"/></g><g><circle cx="1220.622" cy="68.521" r="5.027"/></g><g><circle cx="1263.972" cy="68.521" r="5.027"/></g><g><circle fill="#F68635" cx="1361.528" cy="90.153" r="5.028"/></g><g><circle fill="#F68635" cx="1203.927" cy="36.354" r="5.028"/></g><g><circle fill="#F68635" cx="1253.917" cy="54.029" r="5.027"/></g><g><circle fill="#F68635" cx="1190.912" cy="149.52" r="5.028"/></g><g><circle cx="1243.556" cy="73.548" r="5.027"/></g><g><circle cx="1331.368" cy="74.293" r="5.027"/></g><g><circle cx="1198.9" cy="126.41" r="5.028"/></g><g><circle cx="1258.944" cy="89.306" r="5.027"/></g><g><circle cx="1238.39" cy="49.002" r="5.028"/></g><g><circle cx="1381.554" cy="53.508" r="5.027"/></g><g><path d="m513.5 113.22 85.131 32.13-85.131 32.129z"/><path fill="#F68635" d="M681.655 206.698H562.976l37.351-61.348-37.351-61.349h118.679"/><path d="M681.655 208.695h-118.68a1.998 1.998 0 0 1-1.706-3.036l36.719-60.311-36.718-60.309a1.997 1.997 0 0 1 1.706-3.036h118.68a1.998 1.998 0 0 1 0 3.994H566.529l35.503 58.313a1.997 1.997 0 0 1 0 2.076l-35.503 58.313h115.126a1.998 1.998 0 0 1 0 3.996z"/><g><path fill="#FFF" d="M681.375 81.924a7.81 7.81 0 0 1 5.541 2.284l55.597 55.604c3.044 3.045 3.044 8.026 0 11.072l-55.598 55.605a7.812 7.812 0 0 1-5.536 2.284"/></g><g><circle fill="#F68635" cx="704.524" cy="145.288" r="13.663"/><circle fill="#231F20" cx="704.524" cy="145.288" r="8.561"/></g></g><g><path d="m759.86 66.854 61.85 23.343-61.85 23.346z"/><path fill="#F68635" d="M882.032 134.77h-86.224l27.134-44.573-27.134-44.571h86.224"/><path d="M882.032 136.767h-86.225a1.995 1.995 0 0 1-1.705-3.036l26.502-43.534-26.502-43.533a1.997 1.997 0 0 1 1.705-3.036h86.225a1.998 1.998 0 0 1 0 3.994h-82.671l25.286 41.536a1.992 1.992 0 0 1 0 2.076l-25.287 41.537h82.672a1.998 1.998 0 0 1 0 3.996z"/><g><path fill="#FFF" d="M881.549 43.648a5.739 5.739 0 0 1 4.073 1.679l40.883 40.888c2.239 2.24 2.239 5.902 0 8.144l-40.883 40.887a5.734 5.734 0 0 1-4.069 1.682"/></g><g><circle fill="#F68635" cx="898.646" cy="90.153" r="9.927"/><circle fill="#231F20" cx="898.646" cy="90.153" r="6.22"/></g></g><g><path fill="#F68635" d="M288.67 426.151c-12.784 23.34-42.066 31.896-65.403 19.109-23.337-12.785-31.893-42.069-19.109-65.409 12.783-23.339 100.018-137.7 123.356-124.916 23.337 12.787-26.061 147.877-38.844 171.216z"/><path fill="#FFF" d="M246.373 453.192c-8.364 0-16.685-2.137-24.065-6.181-24.265-13.293-33.192-43.852-19.901-68.119 6.522-11.908 30.228-44.238 53.814-71.591 21.777-25.254 51.094-55.356 67.096-55.356 1.921 0 3.656.417 5.157 1.239 11.042 6.05 9.388 34.296-4.918 83.954-11.099 38.526-26.779 78.368-33.134 89.972a50.204 50.204 0 0 1-44.049 26.082zm76.943-197.254c-26.398 0-104.419 101.159-117.407 124.872-12.234 22.337-4.018 50.464 18.317 62.699 6.793 3.722 14.451 5.689 22.146 5.689a46.208 46.208 0 0 0 40.546-24.007c6.267-11.442 21.777-50.896 32.8-89.159 18.66-64.771 10.997-77.067 6.836-79.347-.918-.501-1.977-.747-3.238-.747z"/><path d="M192.987 541.835a1.998 1.998 0 0 1-1.94-2.477c27.976-113.132 132.122-281.195 133.171-282.88a1.997 1.997 0 0 1 3.39 2.111c-1.045 1.679-104.86 169.211-132.684 281.728a1.997 1.997 0 0 1-1.937 1.518z"/><path fill="#F68635" d="M110.46 392.026c0 32.896 26.664 59.561 59.555 59.561s59.554-26.665 59.554-59.561-26.663-208.684-59.554-208.684c-32.891.001-59.555 175.789-59.555 208.684z"/><path fill="#FFF" d="M170.016 453.584c-33.94 0-61.552-27.615-61.552-61.558 0-16.333 6.654-68.788 17.492-117.114 13.923-62.086 28.747-93.566 44.06-93.566 15.313 0 30.137 31.48 44.06 93.566 10.837 48.326 17.491 100.781 17.491 117.114-.001 33.943-27.612 61.558-61.551 61.558zm0-268.244c-12.635 0-27.273 32.966-40.164 90.446-10.777 48.059-17.395 100.092-17.395 116.24 0 31.741 25.821 57.563 57.559 57.563 31.737 0 57.558-25.822 57.558-57.563 0-16.148-6.618-68.183-17.395-116.24-12.89-57.48-27.529-90.446-40.163-90.446z"/><g><path d="M170.016 575.626a1.998 1.998 0 0 1-1.997-1.997V186.782a1.997 1.997 0 1 1 3.994 0v386.847a1.999 1.999 0 0 1-1.997 1.997z"/></g><g><path fill="#F68635" d="M58.739 453.005c14.118 22.559 43.848 29.4 66.403 15.279 22.555-14.119 29.396-43.851 15.278-66.409-14.118-22.557-107.847-131.658-130.402-117.539-22.556 14.119 34.604 146.112 48.721 168.669z"/><path fill="#FFF" d="M99.625 477.63c-17.427-.001-33.344-8.811-42.579-23.565-7.019-11.216-24.986-50.079-38.304-87.895-17.165-48.743-20.457-76.846-9.785-83.526 1.654-1.035 3.636-1.561 5.892-1.561 16.301 0 47.08 28.311 70.03 52.06 27.55 28.509 50.939 57.619 57.231 67.673 14.679 23.455 7.541 54.48-15.911 69.161a50.03 50.03 0 0 1-26.574 7.653zM14.85 285.076c-1.516 0-2.75.312-3.773.952-4.021 2.518-10.958 15.236 11.433 78.814 13.226 37.558 31.001 76.044 37.921 87.103 8.5 13.582 23.152 21.69 39.193 21.69a46.056 46.056 0 0 0 24.458-7.044c21.586-13.513 28.155-42.069 14.645-63.657C124.72 380.553 41.843 285.076 14.85 285.076z"/><g><path d="M160.863 562.939a2 2 0 0 1-1.907-1.406c-34.31-110.71-147.143-271.159-148.279-272.766a1.997 1.997 0 0 1 3.262-2.304c1.139 1.613 114.333 162.573 148.832 273.89a1.996 1.996 0 0 1-1.908 2.586z"/></g></g></g><g><path d="M230.656 701.997H108.461l-27.952-197.51h178.099z"/></g></svg>