<svg xmlns="http://www.w3.org/2000/svg" width="825.144" height="709.443" xml:space="preserve"><path d="M0 705.443h53.177v4H0zM771.967 705.443h53.177v4h-53.177z"/><path fill="#FFF" d="M772.512 709.191H51.176V470.57h721.336v238.621zm-717.336-4h713.336V474.57H55.176v230.621zM573.432 114.387l-26.523 10.009 26.523 10.012z"/><path fill="#F68635" d="M520.038 143.512h37.978l-11.637-19.116 11.637-19.113h-37.978z"/><path d="M558.016 145.512h-36.978a2 2 0 0 1 0-4h33.419l-9.786-16.075a1.995 1.995 0 0 1 0-2.08l9.785-16.073h-33.418a2 2 0 0 1 0-4h36.978a2 2 0 0 1 1.708 3.041l-11.003 18.073 11.003 18.075a1.998 1.998 0 0 1-1.708 3.039z"/><path fill="#FFF" d="M520.421 103.278a2.596 2.596 0 0 0-1.843.76l-18.493 18.498a2.606 2.606 0 0 0 0 3.684l18.493 18.498c.506.505 1.175.76 1.842.76"/><circle fill="#F68635" cx="513.337" cy="124.377" r="5.41"/><circle fill="#231F20" cx="513.337" cy="124.377" r="3.389"/><path fill="#FFF" d="M52.344 222.332c10.041.664 19.79-6.76 29.191-9.449 12.159-3.477 22.835-.107 34.096 4.178 4.483 1.707 8.624 4.545 13.256 5.705 5.627 1.41 12.057 1.064 17.706.068 9.722-1.709 18.127-6.393 28.239-5.525 10.646.912 19.709 8.83 30.375 10.504 5.434.852 10.293.666 15.813.666v11.137H52.344v-17.284z"/><path fill="#FFF" d="M221.021 239.615h292.156c21.359 0 42.764-.207 64.105.018.127-7.377.118-8.969-7.508-9.186-7.997-.227-15.934-.121-23.887-1.176-10.147-1.35-21.168 1.523-30.88-2.432-6.601-2.688-11.185-5.564-19.059-5.631-8.104-.07-14.877 3.023-22.625 3.475-8.815.518-20.952-4.895-29.192-8.062-11.62-4.461-21.447-5.447-34.13-4.547-15.316 1.086-27.965 6.1-41.521 12.631-12.062 5.809-27.45 3.674-40.456 3.75-15.337.096-30.678.035-46.017.037-20.327.004-40.656-.014-60.988-.014v11.137zM771.124 168.225c-.256-2.133-.845-4.203-2.129-6.088-4.45-6.533-16.928-6.518-22.799-2.328-6.612 4.721-9.407 13.92-8.846 21.736-.686-9.568.18-20.668-4.398-29.424-5.187-9.926-22.249-8.125-25.69 2.658-1.973 6.178-.533 12.93-.406 19.254-.103-5.102-4.739-11.912-8.621-14.82-8.931-6.682-18.51-8.273-28.265-3.018-7.479 4.031-11.151 14.01-11.057 22.135.151 13.289 9.479 24.598 21.975 29.625l29.292 31.66h59.752c.258-.004.761-38.707.814-41.438.181-9.148.78-18.4.543-27.549a25.992 25.992 0 0 0-.165-2.403zM52.598 464.174c.04 4.223 41.742-7.691 45.108-8.676 23.203-6.775 46.183-8.424 69.299 1.088 15.966 6.57 33.046 5.662 49.854 3.977 8.203-.824 17.175-2.912 25.422-2.326 7.43.531 14.351 3.717 21.972 4.203 25.022 1.602 46.464-10.564 70.956-13.969 27.945-3.887 49.381-2.443 75.453 7.754 9.476 3.703 20.189 7.037 30.795 8.389 12 1.527 22.816-2.391 34.741-4.027 9.742-1.338 20.183 1.197 29.668-1.545 18.545-5.359 39.566-14.695 60.106-11.975 24.445 3.236 39.083 11.475 65.113 5.695 25.447-5.648 46.451-9.848 71.486-1.34 12.827 4.357 24.503 7.568 38.195 7.568 10.405-.004 19.855-4.402 30.028-3.461l-.863 19.008H52.598v-10.363zM770.795 697.17c-.04 4.223-41.742-7.693-45.108-8.676-23.203-6.775-46.183-8.426-69.299 1.088-15.966 6.568-33.046 5.662-49.854 3.977-8.203-.824-17.175-2.912-25.422-2.326-7.43.531-14.351 3.717-21.972 4.203-25.022 1.602-46.464-10.564-70.956-13.969-27.945-3.887-49.381-2.443-75.453 7.754-9.476 3.703-20.189 7.035-30.795 8.389-12 1.527-22.816-2.391-34.741-4.029-9.742-1.338-20.183 1.197-29.668-1.543-18.545-5.359-39.566-14.697-60.106-11.975-24.445 3.236-39.083 11.475-65.113 5.695-25.447-5.65-46.451-9.85-71.486-1.34-12.827 4.357-24.503 7.566-38.195 7.566-10.405-.002-19.855-4.4-30.028-3.459l.863 19.008h717.334V697.17z"/><path fill="#FFF" d="M771.932 475.494H50.598V236.428h721.334v239.066zm-717.334-4h713.334V240.428H54.598v231.066z"/><path fill="#FFF" d="M771.932 238.674H50.598V0h721.334v238.674zm-717.334-4h713.334V4H54.598v230.674z"/><path fill="#FFF" d="M232.222 2h4v231.164h-4zM615.966 2h4v212.52h-4z"/><path d="M653.577 549.65a58.862 58.862 0 0 1-4.598 4.379l21.025 4.59v-17.938l-21.025 4.59a58.862 58.862 0 0 1 4.598 4.379zM633.896 535.896c-1.371-8.303-8.575-14.631-17.262-14.631-7.316 0-13.581 4.49-16.194 10.865a58.946 58.946 0 0 1 10.439-.93 58.475 58.475 0 0 1 23.017 4.696zM600.746 567.221c2.777 6 8.846 10.16 15.888 10.16 8.439 0 15.48-5.975 17.135-13.922a58.478 58.478 0 0 1-22.89 4.641c-3.456 0-6.84-.303-10.133-.879z"/><path fill="#FFF" d="M610.879 570.1c-3.506 0-7.031-.306-10.478-.909l-1.655-.289v-38.506l1.657-.288a61.317 61.317 0 0 1 10.476-.906c8.251 0 16.26 1.634 23.803 4.856a60.678 60.678 0 0 1 15.598 9.694 61.297 61.297 0 0 1 4.753 4.526l1.294 1.372-1.294 1.372a61.143 61.143 0 0 1-4.754 4.527 60.602 60.602 0 0 1-15.728 9.75 60.283 60.283 0 0 1-23.672 4.801zm-8.133-4.585a56.9 56.9 0 0 0 8.133.585 56.305 56.305 0 0 0 22.108-4.481 56.673 56.673 0 0 0 14.692-9.108 57.214 57.214 0 0 0 3.104-2.859 57.163 57.163 0 0 0-3.104-2.858 56.72 56.72 0 0 0-14.571-9.057c-7.043-3.009-14.522-4.534-22.23-4.534-2.705 0-5.434.196-8.133.584v31.728z"/><g fill="#231F20"><path d="M600.439 532.131c-12.613 2.266-23.829 8.566-32.262 17.52 8.501 9.025 19.83 15.354 32.568 17.57v-35.143c-.102.018-.205.031-.306.053z"/><path d="m602.746 569.599-2.343-.407c-12.778-2.224-24.74-8.677-33.682-18.17l-1.291-1.371 1.291-1.371c8.992-9.547 20.529-15.812 33.364-18.117.039-.009.144-.026.25-.044l2.312-.366.098 2.326v37.52zm-31.776-19.95c7.621 7.555 17.35 12.855 27.776 15.141v-30.283c-10.575 2.308-20.092 7.501-27.776 15.142z"/></g><path fill="#FFF" d="M588.28 549.65a5.72 5.72 0 0 1-5.724 5.723c-3.163 0-5.728-2.559-5.728-5.723a5.726 5.726 0 1 1 11.452 0z"/><circle fill="#231F20" cx="582.556" cy="549.65" r="3.588"/><path d="M118.149 48.275c-10.39 0-19.622 4.932-25.499 12.582 5.877 7.646 15.109 12.58 25.499 12.58 10.388 0 19.619-4.934 25.497-12.58-5.877-7.65-15.109-12.582-25.497-12.582z"/><path d="m85.182 48.861 11.993 11.996-11.993 11.995zM167.018 140.922c10.39 0 19.622 4.932 25.498 12.58-5.876 7.648-15.108 12.58-25.498 12.58s-19.621-4.932-25.496-12.58c5.874-7.648 15.106-12.58 25.496-12.58z"/><path d="m199.983 141.506-11.992 11.996 11.992 11.998zM448.61 574.693c4.341.58 4.341 1.529 0 2.11l-103.661 13.861c-4.342.581-7.894-2.528-7.894-6.908v-16.014c0-4.38 3.552-7.489 7.894-6.909l103.661 13.86zM448.61 630.446c4.341.581 4.341 1.53 0 2.111l-103.661 13.861c-4.342.581-7.894-2.528-7.894-6.908v-16.016c0-4.38 3.552-7.489 7.894-6.908l103.661 13.86zM310.05 591.312c4.342-.577 4.567.282.501 1.91l-104.66 41.906c-4.066 1.628-7.394-.624-7.394-5.004V614.11c0-4.38 3.553-8.437 7.895-9.014l103.658-13.784z"/><path fill="#FFF" d="M461.76 574.959c-.584 0-1.158.025-1.733.057v-.004c-57.224 3.465-296.062 17.924-315.138 19.076v.014c-5.009.299-8.979 4.445-8.979 9.527s3.971 9.227 8.979 9.527v.014c19.076 1.154 257.914 15.611 315.138 19.076v-.006c.575.037 1.149.057 1.733.057 15.831 0 28.665-12.836 28.665-28.668 0-15.834-12.834-28.67-28.665-28.67z"/><path fill="#FFF" d="M463.492 632.141c31.573 0 57.171-25.6 57.171-57.182h-57.171v57.182z"/><circle fill="#F68635" cx="479.682" cy="593.316" r="12.395"/><circle fill="#231F20" cx="479.681" cy="593.316" r="7.767"/><path d="M136.933 603.629a131.915 131.915 0 0 1 10.269-9.777L100.26 583.61v40.039l46.942-10.242a130.82 130.82 0 0 1-10.269-9.778zM481.463 318.66c-2.771.371-2.771.977 0 1.348l66.166 8.85c2.771.371 5.038-1.613 5.038-4.409v-10.225c0-2.796-2.268-4.78-5.038-4.409l-66.166 8.845zM481.463 354.246c-2.771.371-2.771.977 0 1.348l66.166 8.846c2.771.371 5.038-1.613 5.038-4.409V349.81c0-2.796-2.268-4.78-5.038-4.409l-66.166 8.845zM569.905 329.268c-2.771-.368-2.915.18-.32 1.22l66.806 26.748c2.596 1.04 4.719-.397 4.719-3.193V343.82c0-2.796-2.268-5.385-5.039-5.753l-66.166-8.799z"/><path fill="#F68635" d="m608.613 327.003-134.438-8.14v.002c-.367-.02-.735-.037-1.104-.037-.373 0-.741.018-1.105.037v-.037h-36.494c0 19.814 15.79 35.932 35.471 36.477.7.08 1.408.125 2.129.125.369 0 .737-.014 1.104-.039v.008c36.526-2.213 188.979-11.445 201.154-12.18v-.008c3.196-.193 5.731-2.836 5.731-6.08s-2.535-5.891-5.731-6.082v-.006l-66.717-4.04"/><path fill="#FFF" d="M472.175 357.523v-.114c-.45-.021-.905-.056-1.374-.107-20.94-.624-37.33-17.508-37.33-38.474v-2l40.494.024.316.016 203.048 12.292v.23c3.33 1.018 5.731 4.118 5.731 7.74 0 3.619-2.401 6.72-5.731 7.738v.225l-1.88.121c-12.176.734-164.627 9.967-201.153 12.18l-2.121.129zm-34.649-36.695c1.001 17.875 15.342 31.976 33.471 32.478l.172.012c1.003.114 1.931.145 2.868.078l2.138-.148v.026c38.48-2.331 176.468-10.688 197.194-11.939l1.839-.119a4.102 4.102 0 0 0 3.853-4.084 4.1 4.1 0 0 0-3.851-4.086l-1.881-.119-199.275-12.066a20.466 20.466 0 0 0-1.981.003l-2.107.113v-.147h-32.44z"/><circle fill="#FFF" cx="468.085" cy="335.129" r="9.597"/><circle fill="#231F20" cx="468.085" cy="335.129" r="6.014"/><g><path fill="#FFF" d="M679.318 337.131a87.329 87.329 0 0 0-6.768-6.449l42.73-7.93v28.758l-42.73-7.932a87.692 87.692 0 0 0 6.768-6.447z"/></g><g><path fill="#FFF" d="M97.176 301.605c-8.205 0-14.88-6.676-14.88-14.881s6.675-14.881 14.88-14.881c8.204 0 14.878 6.676 14.878 14.881s-6.674 14.881-14.878 14.881zm0-25.761c-5.999 0-10.88 4.881-10.88 10.881s4.881 10.881 10.88 10.881c5.998 0 10.878-4.881 10.878-10.881s-4.88-10.881-10.878-10.881z"/></g><g><path fill="#FFF" d="M707.719 602.637c-8.204 0-14.878-6.676-14.878-14.881 0-8.204 6.674-14.879 14.878-14.879s14.879 6.675 14.879 14.879c0 8.205-6.675 14.881-14.879 14.881zm0-25.76c-5.998 0-10.878 4.88-10.878 10.879 0 6 4.88 10.881 10.878 10.881 5.999 0 10.879-4.881 10.879-10.881 0-5.999-4.88-10.879-10.879-10.879z"/></g><g><path fill="#FFF" d="M136.681 332.732c-4.558 0-8.266-3.71-8.266-8.27s3.708-8.27 8.266-8.27c4.56 0 8.27 3.71 8.27 8.27s-3.711 8.27-8.27 8.27zm0-12.539c-2.353 0-4.266 1.915-4.266 4.27s1.913 4.27 4.266 4.27c2.354 0 4.27-1.915 4.27-4.27s-1.916-4.27-4.27-4.27z"/></g><g><path fill="#FFF" d="M666.151 623.801c-4.561 0-8.271-3.71-8.271-8.27 0-4.561 3.71-8.271 8.271-8.271 4.56 0 8.269 3.711 8.269 8.271 0 4.56-3.709 8.27-8.269 8.27zm0-12.541a4.277 4.277 0 0 0-4.271 4.271 4.276 4.276 0 0 0 4.271 4.27 4.274 4.274 0 0 0 4.269-4.27 4.275 4.275 0 0 0-4.269-4.271z"/></g><g><path fill="#FFF" d="M479.345 536.852c-4.561 0-8.271-3.71-8.271-8.27 0-4.561 3.71-8.271 8.271-8.271 4.559 0 8.268 3.711 8.268 8.271-.001 4.56-3.71 8.27-8.268 8.27zm0-12.541a4.277 4.277 0 0 0-4.271 4.271 4.276 4.276 0 0 0 4.271 4.27 4.273 4.273 0 0 0 4.268-4.27 4.275 4.275 0 0 0-4.268-4.271z"/></g><g><path fill="#FFF" d="M722.71 401.963c-4.561 0-8.271-3.71-8.271-8.27 0-4.561 3.711-8.271 8.271-8.271 4.559 0 8.268 3.711 8.268 8.271 0 4.56-3.709 8.27-8.268 8.27zm0-12.541a4.276 4.276 0 0 0-4.271 4.271 4.276 4.276 0 0 0 4.271 4.27 4.273 4.273 0 0 0 4.268-4.27 4.275 4.275 0 0 0-4.268-4.271z"/></g><g><path fill="#FFF" d="M399.166 294.992c-4.559 0-8.268-3.709-8.268-8.268 0-4.56 3.709-8.27 8.268-8.27 4.56 0 8.269 3.71 8.269 8.27 0 4.559-3.709 8.268-8.269 8.268zm0-12.537a4.273 4.273 0 0 0-4.268 4.27c0 2.354 1.914 4.268 4.268 4.268s4.269-1.914 4.269-4.268a4.274 4.274 0 0 0-4.269-4.27z"/></g><g><path d="M540.799 191.145h172.854v49.471H540.799z"/><g fill="#FFF"><path d="M568.636 226.526v-2.316h6.015v-12.653h-6.015v-2.316h8.745v14.97h5.876v2.316h-14.621zm5.047-22.195c0-.622.207-1.158.622-1.607.414-.449.944-.674 1.59-.674.668 0 1.227.225 1.677.674.449.449.674.985.674 1.607 0 .6-.225 1.106-.674 1.521-.45.415-1.009.622-1.677.622-.646 0-1.176-.207-1.59-.622a2.065 2.065 0 0 1-.622-1.521zM588.961 215.29a36.906 36.906 0 0 0-.07-1.849 31.654 31.654 0 0 0-.086-1.054 11.706 11.706 0 0 0-.121-.899h-2.316v-2.247H591l.312 2.801h.173a5.75 5.75 0 0 1 .916-1.158c.38-.381.823-.727 1.331-1.037a7.023 7.023 0 0 1 3.664-1.02c1.06 0 1.999.116 2.816.346.818.23 1.498.64 2.04 1.228.541.588.95 1.383 1.227 2.386.277 1.002.415 2.276.415 3.82v9.922h-2.73v-9.382c0-1.908-.311-3.346-.931-4.312-.619-.966-1.745-1.449-3.375-1.449-.597 0-1.177.121-1.739.362s-1.074.558-1.533.949a6.56 6.56 0 0 0-1.205 1.362 5.71 5.71 0 0 0-.758 1.638v10.831h-2.661V215.29zM610.599 202.326h5.772v18.392c0 1.406.236 2.397.709 2.974.472.576 1.169.864 2.092.864.645 0 1.261-.115 1.849-.346s1.238-.622 1.953-1.176l1.244 1.902c-.369.322-.774.61-1.213.864a9.01 9.01 0 0 1-1.354.639 8.82 8.82 0 0 1-1.387.398 6.61 6.61 0 0 1-1.283.138c-.855 0-1.618-.109-2.289-.328s-1.231-.57-1.682-1.055c-.451-.483-.792-1.123-1.023-1.919-.231-.795-.347-1.78-.347-2.956v-16.075h-3.042v-2.316zM630.855 226.526v-2.316h6.015v-12.653h-6.015v-2.316h8.745v14.97h5.876v2.316h-14.621zm5.047-22.195c0-.622.207-1.158.622-1.607.414-.449.944-.674 1.59-.674.668 0 1.227.225 1.677.674.449.449.674.985.674 1.607 0 .6-.225 1.106-.674 1.521-.45.415-1.009.622-1.677.622-.646 0-1.176-.207-1.59-.622a2.065 2.065 0 0 1-.622-1.521zM651.18 215.29a36.906 36.906 0 0 0-.07-1.849 31.654 31.654 0 0 0-.086-1.054 11.706 11.706 0 0 0-.121-.899h-2.316v-2.247h4.632l.312 2.801h.173a5.75 5.75 0 0 1 .916-1.158c.38-.381.823-.727 1.331-1.037a7.023 7.023 0 0 1 3.664-1.02c1.06 0 1.999.116 2.816.346.818.23 1.498.64 2.04 1.228.541.588.95 1.383 1.227 2.386.277 1.002.415 2.276.415 3.82v9.922h-2.73v-9.382c0-1.908-.311-3.346-.931-4.312-.619-.966-1.745-1.449-3.375-1.449-.597 0-1.177.121-1.739.362s-1.074.558-1.533.949a6.56 6.56 0 0 0-1.205 1.362 5.71 5.71 0 0 0-.758 1.638v10.831h-2.661V215.29zM686.991 224.349a8.705 8.705 0 0 1-1.47 1.037c-.564.323-1.181.6-1.849.829-.669.231-1.365.409-2.092.536-.726.127-1.458.19-2.194.19-1.383 0-2.604-.214-3.665-.64-1.06-.427-1.947-1.037-2.661-1.832-.715-.796-1.256-1.746-1.625-2.853-.368-1.106-.553-2.351-.553-3.733 0-1.452.201-2.743.604-3.872.403-1.13.985-2.075 1.746-2.835.761-.761 1.682-1.343 2.766-1.746 1.083-.403 2.292-.605 3.629-.605.968 0 1.924.127 2.869.381s1.78.731 2.506 1.435c.727.703 1.285 1.671 1.677 2.904.392 1.232.53 2.829.415 4.788h-13.343c0 2.074.558 3.624 1.672 4.649 1.115 1.026 2.603 1.539 4.465 1.539a7.7 7.7 0 0 0 1.845-.225c.608-.15 1.188-.329 1.741-.536a9.302 9.302 0 0 0 1.465-.691c.425-.254.753-.484.982-.691l1.07 1.971zm-7.278-13.242c-.758 0-1.476.081-2.153.242s-1.275.432-1.792.812c-.517.38-.942.876-1.274 1.486-.334.61-.546 1.365-.638 2.265h10.716c-.115-1.521-.604-2.702-1.465-3.544-.862-.84-1.993-1.261-3.394-1.261z"/></g></g><g><path d="M540.799 659.529h172.854V709H540.799z"/><g fill="#FFF"><path d="M575.446 671.307h5.53v8.885h.173c.6-.761 1.371-1.349 2.316-1.763.944-.415 1.97-.623 3.076-.623 5.069 0 7.604 2.928 7.604 8.781 0 2.974-.818 5.25-2.454 6.828-1.637 1.579-3.964 2.368-6.982 2.368-1.429 0-2.72-.138-3.871-.415-1.153-.276-1.994-.599-2.523-.968v-20.777h-2.869v-2.316zm10.75 8.815c-1.383 0-2.501.393-3.353 1.176-.854.783-1.476 1.89-1.867 3.318v7.952c.53.276 1.164.496 1.901.656.737.162 1.509.242 2.316.242.921 0 1.757-.132 2.506-.397.748-.265 1.388-.68 1.918-1.244s.939-1.285 1.228-2.161.432-1.913.432-3.111c0-.876-.092-1.705-.276-2.489-.185-.783-.479-1.47-.881-2.057a4.253 4.253 0 0 0-1.573-1.383c-.646-.334-1.429-.502-2.351-.502zM600.23 671.307h5.772v18.392c0 1.406.236 2.397.709 2.974.472.576 1.169.864 2.092.864.645 0 1.261-.115 1.849-.346s1.238-.622 1.953-1.176l1.244 1.902c-.369.322-.774.61-1.213.864a9.01 9.01 0 0 1-1.354.639 8.82 8.82 0 0 1-1.387.398 6.61 6.61 0 0 1-1.283.138c-.855 0-1.618-.109-2.289-.328s-1.231-.57-1.682-1.055c-.451-.483-.792-1.123-1.023-1.919-.231-.795-.347-1.78-.347-2.956v-16.075h-3.042v-2.316zM618.827 686.864c0-2.789.726-4.996 2.178-6.621 1.451-1.625 3.525-2.438 6.222-2.438 1.452 0 2.701.237 3.75.709 1.049.473 1.919 1.112 2.61 1.919s1.204 1.763 1.538 2.869.501 2.294.501 3.562c0 1.383-.185 2.633-.553 3.751-.369 1.118-.911 2.068-1.625 2.852-.714.784-1.596 1.389-2.645 1.815-1.049.426-2.241.64-3.577.64-1.429 0-2.674-.236-3.733-.709-1.061-.472-1.936-1.111-2.627-1.919-.691-.807-1.204-1.763-1.538-2.869-.335-1.107-.501-2.293-.501-3.561zm2.869 0c0 .807.097 1.613.292 2.42s.512 1.533.948 2.178a4.93 4.93 0 0 0 1.706 1.556c.7.393 1.556.588 2.566.588 1.838 0 3.222-.57 4.152-1.711.931-1.142 1.396-2.818 1.396-5.03a10.2 10.2 0 0 0-.293-2.438 6.435 6.435 0 0 0-.965-2.161 5.105 5.105 0 0 0-1.723-1.556c-.701-.392-1.557-.588-2.567-.588-1.838 0-3.216.565-4.135 1.694-.918 1.13-1.377 2.813-1.377 5.048zM652.771 680.883a13.62 13.62 0 0 0-1.711-.467 8.968 8.968 0 0 0-1.814-.19c-2.259 0-3.941.532-5.047 1.595-1.106 1.063-1.659 2.75-1.659 5.061 0 1.018.161 1.925.483 2.722s.783 1.474 1.383 2.028c.599.555 1.319.981 2.16 1.282.842.3 1.769.45 2.783.45a9.167 9.167 0 0 0 3.163-.562c1.024-.375 1.884-.867 2.575-1.478l1.21 2.006a9.994 9.994 0 0 1-1.21.864 11.893 11.893 0 0 1-3.785 1.487c-.772.161-1.607.242-2.507.242-1.498 0-2.816-.214-3.957-.64-1.142-.427-2.092-1.037-2.853-1.832-.76-.796-1.336-1.752-1.728-2.87-.393-1.117-.588-2.356-.588-3.716 0-1.452.201-2.743.604-3.872.403-1.13.985-2.075 1.746-2.835.76-.761 1.682-1.343 2.765-1.746s2.293-.605 3.63-.605c1.705 0 3.094.15 4.165.449 1.072.3 1.977.635 2.714 1.003l-.034.104v4.806h-2.489v-3.286zM659.166 671.307h5.6v14.312h1.901l6.81-7.398h3.249l-7.64 8.193 6.291 6.776h2.247v2.316h-3.561l-7.396-7.813h-1.901v7.813h-2.662v-21.884h-2.938v-2.315z"/></g></g><g><path d="M661.697 79.744a2.902 2.902 0 1 1-5.804 0 2.902 2.902 0 0 1 5.804 0z"/></g><g><circle cx="683.812" cy="79.744" r="2.901"/></g><g><circle fill="#F68635" cx="740.113" cy="92.229" r="2.902"/></g><g><circle fill="#F68635" cx="649.162" cy="61.182" r="2.901"/></g><g><circle fill="#F68635" cx="678.011" cy="71.381" r="2.9"/></g><g><circle fill="#F68635" cx="704.818" cy="27.982" r="2.9"/></g><g><path fill="#F68635" d="M644.551 126.488a2.902 2.902 0 1 1-5.804.004 2.902 2.902 0 0 1 5.804-.004z"/></g><g><circle cx="672.031" cy="82.646" r="2.9"/></g><g><path d="M725.608 83.074a2.9 2.9 0 1 1-5.799.003 2.9 2.9 0 0 1 5.799-.003z"/></g><g><path d="M649.163 113.152a2.9 2.9 0 1 1-5.804.002 2.9 2.9 0 0 1 5.804-.002z"/></g><g><circle cx="680.913" cy="91.74" r="2.902"/></g><g><path d="M671.951 68.48a2.901 2.901 0 1 1-5.802-.002 2.901 2.901 0 0 1 5.802.002z"/></g><g><path d="M754.57 71.082a2.9 2.9 0 0 1-2.9 2.898 2.898 2.898 0 0 1-2.9-2.898 2.9 2.9 0 1 1 5.8 0z"/></g><g><path d="m278.654 127.109 49.131 18.543-49.131 18.543z"/><path fill="#F68635" d="M375.696 181.057h-68.487l21.555-35.405-21.555-35.406h68.487"/><path d="M375.696 183.057h-68.487a2 2 0 0 1-1.708-3.041l20.921-34.364-20.921-34.366a1.999 1.999 0 0 1 1.708-3.041h68.487a2 2 0 0 1 0 4h-64.929l19.704 32.366c.39.639.39 1.441 0 2.08l-19.703 32.364h64.928a2 2 0 0 1 0 4.002z"/><g><path fill="#FFF" d="M375.709 108.246a4.6 4.6 0 0 1 3.271 1.35l32.825 32.829c1.797 1.797 1.797 4.741 0 6.537l-32.825 32.833c-.9.897-2.085 1.262-3.268 1.262l-.003-74.811z"/></g><g><path fill="#F68635" d="M396.779 145.615a7.887 7.887 0 0 1-7.886 7.887 7.886 7.886 0 0 1 0-15.772 7.887 7.887 0 0 1 7.886 7.885z"/><circle fill="#231F20" cx="388.895" cy="145.615" r="4.94"/></g></g><g><path d="m393.52 50.236 35.695 13.471L393.52 77.18z"/><path fill="#F68635" d="M465.027 89.43h-50.762l15.661-25.723-15.661-25.725h50.762z"/><path d="M464.027 91.43h-49.763a2 2 0 0 1-1.708-3.041l15.027-24.683-15.027-24.685a1.999 1.999 0 0 1 1.708-3.041h49.763a2 2 0 0 1 0 4h-46.204l13.811 22.685c.39.639.39 1.441 0 2.08l-13.81 22.683h46.203a2 2 0 0 1 0 4.002z"/><g><path fill="#FFF" d="M464.241 36.008c.876 0 1.754.336 2.423 1.001l24.322 24.327a3.439 3.439 0 0 1 0 4.845l-24.322 24.326a3.422 3.422 0 0 1-2.423 1.001"/></g><g><circle fill="#F68635" cx="473.613" cy="63.682" r="5.73"/><path fill="#231F20" d="M477.202 63.682a3.59 3.59 0 1 1-7.179 0 3.59 3.59 0 1 1 7.179 0z"/></g></g><g><path fill="#F68635" d="M340.502 467.758c-11.199 20.445-36.858 27.945-57.303 16.744-20.451-11.201-27.945-36.861-16.742-57.305 11.199-20.447 87.629-120.639 108.078-109.436s-22.833 129.55-34.033 149.997z"/><path fill="#FFF" d="M303.438 491.7a44.26 44.26 0 0 1-21.2-5.444c-10.359-5.674-17.889-15.042-21.2-26.38-3.312-11.337-2.011-23.283 3.665-33.64 10.138-18.51 79.69-111.346 106.153-111.346 1.726 0 3.287.376 4.64 1.117 9.793 5.365 8.384 30.208-4.188 73.839-9.729 33.766-23.478 68.694-29.053 78.872a44.235 44.235 0 0 1-38.817 22.982zm67.418-172.809c-9.689 0-30.081 17.202-55.947 47.195-22.412 25.989-41.838 53.199-46.698 62.072-5.162 9.419-6.346 20.285-3.333 30.597 3.012 10.312 9.86 18.832 19.282 23.993a40.249 40.249 0 0 0 19.278 4.952 40.243 40.243 0 0 0 35.31-20.903c5.485-10.015 19.064-44.556 28.717-78.058 16.3-56.569 9.702-67.255 6.109-69.224-.767-.42-1.657-.624-2.718-.624z"/><path d="M256.669 569.354a2 2 0 0 1-1.943-2.481c24.518-99.146 115.541-246.011 116.458-247.483a2 2 0 1 1 3.396 2.115c-.914 1.466-91.605 147.799-115.971 246.329a2.002 2.002 0 0 1-1.94 1.52z"/><path fill="#F68635" d="M184.359 437.863c0 28.816 23.36 52.182 52.18 52.182 28.818 0 52.182-23.365 52.182-52.182 0-28.82-23.363-182.82-52.182-182.82-28.819 0-52.18 154-52.18 182.82z"/><path fill="#FFF" d="M236.539 492.045c-29.875 0-54.18-24.306-54.18-54.182 0-14.321 5.832-60.303 15.331-102.655 12.228-54.521 25.298-82.165 38.849-82.165 13.55 0 26.621 27.645 38.85 82.165 9.499 42.354 15.332 88.335 15.332 102.655 0 29.876-24.306 54.182-54.182 54.182zm0-235.002c-5.177 0-18.946 7.702-34.945 79.04-9.438 42.085-15.234 87.645-15.234 101.78 0 27.67 22.511 50.182 50.18 50.182 27.67 0 50.182-22.512 50.182-50.182 0-14.136-5.796-59.694-15.235-101.78-16.003-71.338-29.771-79.04-34.948-79.04z"/><g><path d="M236.539 598.957a2 2 0 0 1-2-2V257.246a2 2 0 0 1 4 0v339.711a2 2 0 0 1-2 2z"/></g><g><path fill="#F68635" d="M139.041 491.285c12.369 19.762 38.42 25.756 58.18 13.385 19.764-12.369 25.758-38.418 13.389-58.18-12.37-19.764-94.492-115.342-114.257-102.971-19.765 12.368 30.318 128.006 42.688 147.766z"/><path fill="#FFF" d="M174.865 513.107c-.001 0 0 0 0 0-15.357 0-29.383-7.761-37.52-20.761-6.155-9.833-21.911-43.903-33.586-77.052-15.084-42.829-17.934-67.548-8.468-73.471 1.489-.933 3.271-1.405 5.296-1.405 14.371 0 41.397 24.842 61.539 45.682 24.151 24.988 44.659 50.512 50.178 59.328 6.266 10.011 8.258 21.862 5.609 33.372s-9.621 21.299-19.633 27.564a44.07 44.07 0 0 1-23.415 6.743zm-74.277-168.688c-1.28 0-2.318.261-3.174.796-3.474 2.173-9.438 13.222 10.118 68.751 11.584 32.89 27.146 66.582 33.204 76.258 7.401 11.824 20.159 18.884 34.128 18.884 7.522 0 14.887-2.12 21.295-6.133 9.106-5.699 15.447-14.603 17.856-25.071 2.409-10.468.598-21.247-5.102-30.352-12.257-19.585-84.747-103.133-108.325-103.133z"/><g><path d="M228.522 587.847a1.999 1.999 0 0 1-1.909-1.409C196.562 489.486 97.645 348.845 96.648 347.436a2.001 2.001 0 0 1 3.267-2.309c.999 1.415 100.277 142.567 130.518 240.127a2 2 0 0 1-1.911 2.593z"/></g></g><g><path d="M289.669 709.418H182.605l-24.49-173.031h156.047z"/></g></g></svg>