<svg xmlns="http://www.w3.org/2000/svg" xml:space="preserve" viewBox="0 0 825.14 709.44"><path d="M0 705.44h53.18v4H0zm771.97 0h53.17v4h-53.17z"/><path fill="#FFF" d="M772.51 709.2H51.18V470.56H772.5v238.62zm-717.33-4H768.5V474.56H55.18v230.62zm518.25-590.81-26.52 10 26.52 10.02z"/><path fill="#FF8630" d="M520.04 143.51h37.98l-11.64-19.11 11.64-19.12h-37.98z"/><path d="M558.02 145.51h-36.98a2 2 0 0 1 0-4h33.42l-9.79-16.07a2 2 0 0 1 0-2.08l9.79-16.08h-33.42a2 2 0 0 1 0-4h36.98a2 2 0 0 1 1.7 3.04l-11 18.08 11 18.07a2 2 0 0 1-1.7 3.04z"/><path fill="#FFF" d="M520.42 103.28a2.6 2.6 0 0 0-1.84.76l-18.5 18.5a2.6 2.6 0 0 0 0 3.68l18.5 18.5c.5.5 1.17.76 1.84.76"/><circle fill="#FF8630" cx="513.34" cy="124.38" r="5.41"/><circle fill="#231F20" cx="513.34" cy="124.38" r="3.39"/><path fill="#FFF" d="M52.34 222.33c10.04.67 19.8-6.76 29.2-9.45 12.15-3.47 22.83-.1 34.1 4.18 4.47 1.7 8.62 4.55 13.25 5.7 5.62 1.42 12.05 1.07 17.7.07 9.72-1.7 18.13-6.39 28.24-5.52 10.65.91 19.71 8.83 30.38 10.5 5.43.85 10.29.67 15.81.67v11.14H52.34v-17.29z"/><path fill="#FFF" d="M221.02 239.62h292.16c21.36 0 42.76-.21 64.1.01.13-7.37.12-8.97-7.5-9.18-8-.23-15.94-.12-23.9-1.18-10.14-1.35-21.16 1.52-30.87-2.43-6.6-2.69-11.19-5.56-19.06-5.63-8.1-.07-14.88 3.02-22.63 3.47-8.81.52-20.95-4.9-29.19-8.06-11.62-4.46-21.45-5.45-34.13-4.55-15.32 1.09-27.96 6.1-41.52 12.64-12.06 5.8-27.45 3.67-40.46 3.75-15.33.1-30.67.03-46.01.03l-61-.01v11.14zm550.1-71.4a13.3 13.3 0 0 0-2.12-6.08c-4.45-6.54-16.93-6.52-22.8-2.33-6.62 4.72-9.41 13.92-8.85 21.73-.69-9.56.18-20.66-4.4-29.42-5.19-9.93-22.25-8.12-25.69 2.66-1.97 6.18-.53 12.93-.4 19.25-.1-5.1-4.74-11.9-8.63-14.82-8.93-6.68-18.5-8.27-28.26-3.02-7.48 4.04-11.15 14.01-11.06 22.14.15 13.29 9.48 24.6 21.98 29.62l29.29 31.66h59.75c.26 0 .76-38.7.82-41.43.18-9.15.78-18.4.54-27.55a26 26 0 0 0-.17-2.4zM52.6 464.17c.04 4.23 41.74-7.69 45.1-8.67 23.2-6.78 46.19-8.43 69.3 1.09 15.97 6.57 33.05 5.66 49.86 3.97 8.2-.82 17.17-2.9 25.42-2.32 7.43.53 14.35 3.71 21.97 4.2 25.02 1.6 46.47-10.56 70.96-13.97 27.94-3.89 49.38-2.44 75.45 7.75 9.48 3.7 20.2 7.04 30.8 8.4 12 1.52 22.81-2.4 34.74-4.03 9.74-1.34 20.18 1.2 29.67-1.55 18.54-5.36 39.56-14.7 60.1-11.97 24.45 3.23 39.09 11.47 65.12 5.7 25.44-5.66 46.45-9.86 71.48-1.35 12.83 4.36 24.5 7.57 38.2 7.57 10.4 0 19.85-4.4 30.02-3.46l-.86 19H52.6v-10.36zm718.2 233c-.04 4.22-41.75-7.7-45.11-8.68-23.2-6.77-46.19-8.42-69.3 1.1-15.97 6.56-33.05 5.65-49.86 3.97-8.2-.83-17.17-2.91-25.42-2.33-7.43.53-14.35 3.72-21.97 4.2-25.02 1.6-46.46-10.56-70.96-13.96-27.94-3.89-49.38-2.45-75.45 7.75-9.48 3.7-20.19 7.04-30.8 8.39-12 1.53-22.81-2.4-34.74-4.03-9.74-1.34-20.18 1.2-29.66-1.54-18.55-5.36-39.57-14.7-60.1-11.98-24.45 3.24-39.1 11.48-65.12 5.7-25.45-5.65-46.45-9.85-71.49-1.34-12.83 4.35-24.5 7.56-38.2 7.56-10.4 0-19.85-4.4-30.02-3.46l.86 19.01H770.8v-10.36z"/><path fill="#FFF" d="M771.93 475.5H50.6V236.42h721.33v239.06zm-717.33-4h713.33V240.42H54.6v231.06z"/><path fill="#FFF" d="M771.93 238.67H50.6V0h721.33v238.67zm-717.33-4h713.33V4H54.6v230.67z"/><path fill="#FFF" d="M232.22 2h4v231.16h-4zm383.75 0h4v212.52h-4z"/><path d="M653.58 549.65a58.86 58.86 0 0 1-4.6 4.38l21.02 4.59v-17.94l-21.02 4.6a58.86 58.86 0 0 1 4.6 4.37zM633.9 535.9a17.5 17.5 0 0 0-33.46-3.77 58.95 58.95 0 0 1 10.44-.93 58.48 58.48 0 0 1 23.02 4.7zm-33.15 31.32a17.5 17.5 0 0 0 33.02-3.76 58.48 58.48 0 0 1-22.9 4.64c-3.45 0-6.83-.3-10.12-.88z"/><path fill="#FFF" d="M610.88 570.1c-3.5 0-7.03-.3-10.48-.9l-1.65-.3v-38.5l1.65-.3a61.32 61.32 0 0 1 10.48-.9c8.25 0 16.26 1.64 23.8 4.86a60.68 60.68 0 0 1 15.6 9.7 61.3 61.3 0 0 1 4.75 4.52l1.3 1.37-1.3 1.37a61.14 61.14 0 0 1-4.75 4.53 60.6 60.6 0 0 1-15.73 9.75 60.28 60.28 0 0 1-23.67 4.8zm-8.13-4.58a56.9 56.9 0 0 0 8.13.58 56.3 56.3 0 0 0 22.1-4.48 56.67 56.67 0 0 0 14.7-9.1 57.21 57.21 0 0 0 3.1-2.87 57.16 57.16 0 0 0-3.1-2.86 56.72 56.72 0 0 0-14.57-9.05 56.26 56.26 0 0 0-30.37-3.95v31.73z"/><g fill="#231F20"><path d="M600.44 532.13a58.54 58.54 0 0 0-32.26 17.52 58.52 58.52 0 0 0 32.56 17.57v-35.14l-.3.05z"/><path d="m602.75 569.6-2.35-.4a60.94 60.94 0 0 1-33.68-18.18l-1.29-1.37 1.3-1.37a60.14 60.14 0 0 1 33.35-18.12l.25-.04 2.32-.37.1 2.33v37.52zm-31.78-19.95a57 57 0 0 0 27.78 15.14v-30.28a56.13 56.13 0 0 0-27.78 15.14z"/></g><path fill="#FFF" d="M588.28 549.65a5.72 5.72 0 0 1-5.72 5.72 5.72 5.72 0 0 1-5.73-5.72 5.73 5.73 0 1 1 11.45 0z"/><circle fill="#231F20" cx="582.56" cy="549.65" r="3.59"/><path d="M118.15 48.27a32.08 32.08 0 0 0-25.5 12.59 32.09 32.09 0 0 0 25.5 12.58 32.09 32.09 0 0 0 25.5-12.58 32.08 32.08 0 0 0-25.5-12.59z"/><path d="m85.18 48.86 12 12-12 12zm81.84 92.06a32.08 32.08 0 0 1 25.5 12.58c-5.88 7.65-15.11 12.58-25.5 12.58s-19.62-4.93-25.5-12.58a32.07 32.07 0 0 1 25.5-12.58z"/><path d="m199.98 141.5-11.99 12 12 12zm248.63 433.2c4.34.57 4.34 1.52 0 2.1l-103.66 13.86a6.8 6.8 0 0 1-7.9-6.9v-16.02a6.8 6.8 0 0 1 7.9-6.9l103.66 13.85zm0 55.75c4.34.58 4.34 1.53 0 2.1l-103.66 13.87a6.8 6.8 0 0 1-7.9-6.91v-16.02a6.8 6.8 0 0 1 7.9-6.9l103.66 13.86zM310.05 591.3c4.34-.57 4.57.28.5 1.91l-104.66 41.9c-4.06 1.64-7.4-.62-7.4-5V614.1a9.37 9.37 0 0 1 7.9-9.01l103.66-13.79z"/><path fill="#FFF" d="M461.76 574.96c-.58 0-1.16.02-1.73.06l-315.14 19.07v.01a9.55 9.55 0 0 0 0 19.06v.01l315.14 19.08v-.01a28.67 28.67 0 1 0 1.73-57.28z"/><path fill="#FFF" d="M463.5 632.14a57.18 57.18 0 0 0 57.16-57.18H463.5v57.18z"/><circle fill="#FF8630" cx="479.68" cy="593.32" r="12.39"/><circle fill="#231F20" cx="479.68" cy="593.32" r="7.77"/><path d="M136.93 603.63a131.91 131.91 0 0 1 10.27-9.78l-46.94-10.24v40.04l46.94-10.24a130.82 130.82 0 0 1-10.27-9.78zm344.53-284.97c-2.77.37-2.77.98 0 1.35l66.17 8.85a4.34 4.34 0 0 0 5.04-4.41v-10.23c0-2.8-2.27-4.78-5.04-4.4l-66.17 8.84zm0 35.59c-2.77.37-2.77.97 0 1.34l66.17 8.85a4.34 4.34 0 0 0 5.04-4.4V349.8c0-2.8-2.27-4.78-5.04-4.4l-66.17 8.84zm88.44-24.98c-2.77-.37-2.91.18-.32 1.22l66.81 26.75c2.6 1.04 4.72-.4 4.72-3.2v-10.22c0-2.8-2.27-5.38-5.04-5.75l-66.17-8.8z"/><path fill="#FF8630" d="m608.61 327-134.43-8.14a20.28 20.28 0 0 0-2.21 0v-.03h-36.5a36.5 36.5 0 0 0 35.47 36.48 18.71 18.71 0 0 0 3.24.08l201.15-12.17a6.1 6.1 0 0 0 0-12.17L608.61 327"/><path fill="#FFF" d="M472.18 357.52v-.11c-.45-.02-.91-.06-1.38-.1a38.29 38.29 0 0 1-37.33-38.48v-2l40.5.02.31.02 203.05 12.29v.23a8.1 8.1 0 0 1 0 15.48v.22l-1.88.12L474.3 357.4l-2.13.13zm-34.65-36.7a34.3 34.3 0 0 0 33.47 32.5h.17c1 .12 1.93.15 2.87.09l2.14-.15v.02l197.19-11.93 1.84-.12a4.1 4.1 0 0 0 3.85-4.09 4.1 4.1 0 0 0-3.85-4.08l-1.88-.12-199.28-12.07a20.47 20.47 0 0 0-1.98 0l-2.1.12v-.15h-32.44z"/><circle fill="#FFF" cx="468.08" cy="335.13" r="9.6"/><circle fill="#231F20" cx="468.08" cy="335.13" r="6.01"/><path fill="#FFF" d="M679.32 337.13a87.33 87.33 0 0 0-6.77-6.45l42.73-7.93v28.76l-42.73-7.93a87.7 87.7 0 0 0 6.77-6.45zM97.18 301.6a14.89 14.89 0 0 1 0-29.76 14.9 14.9 0 0 1 0 29.77zm0-25.76a10.9 10.9 0 0 0 0 21.77 10.9 10.9 0 0 0 0-21.77zm610.54 326.8a14.9 14.9 0 0 1-14.88-14.88 14.9 14.9 0 0 1 14.88-14.88 14.9 14.9 0 0 1 0 29.76zm0-25.76a10.9 10.9 0 0 0 0 21.76 10.9 10.9 0 0 0 0-21.76zM136.68 332.73a8.28 8.28 0 1 1 .02-16.55 8.28 8.28 0 0 1-.02 16.55zm0-12.54a4.27 4.27 0 1 0 .01 8.55 4.27 4.27 0 0 0 0-8.55zM666.15 623.8a8.28 8.28 0 0 1 0-16.54 8.28 8.28 0 0 1 0 16.54zm0-12.54a4.28 4.28 0 0 0-4.27 4.27 4.28 4.28 0 0 0 4.27 4.27 4.27 4.27 0 0 0 4.27-4.27 4.28 4.28 0 0 0-4.27-4.27zm-186.8-74.41a8.28 8.28 0 0 1 0-16.54 8.28 8.28 0 0 1 0 16.54zm0-12.54a4.28 4.28 0 0 0-4.28 4.27 4.28 4.28 0 0 0 4.28 4.27 4.27 4.27 0 0 0 4.26-4.27 4.28 4.28 0 0 0-4.27-4.27zm243.36-122.35a8.28 8.28 0 0 1 0-16.54 8.28 8.28 0 0 1 0 16.54zm0-12.54a4.28 4.28 0 0 0-4.27 4.27 4.28 4.28 0 0 0 4.27 4.27 4.27 4.27 0 0 0 4.27-4.27 4.28 4.28 0 0 0-4.27-4.27zM399.17 295a8.28 8.28 0 1 1 .01-16.56 8.28 8.28 0 0 1-.01 16.55zm0-12.54a4.27 4.27 0 0 0-4.27 4.27 4.27 4.27 0 0 0 8.54 0 4.27 4.27 0 0 0-4.27-4.27z"/><path d="M540.8 191.15h172.85v49.47H540.8z"/><path d="M568.64 226.53v-2.32h6.01v-12.65h-6.01v-2.32h8.74v14.97h5.88v2.32h-14.62zm5.04-22.2c0-.62.21-1.16.63-1.6.4-.45.94-.68 1.59-.68a2.3 2.3 0 0 1 2.35 2.28 2 2 0 0 1-.68 1.52c-.45.42-1 .62-1.68.62-.64 0-1.17-.2-1.59-.62a2.06 2.06 0 0 1-.62-1.52zm15.28 10.96a36.9 36.9 0 0 0-.07-1.85 31.65 31.65 0 0 0-.09-1.05 11.7 11.7 0 0 0-.12-.9h-2.31v-2.25H591l.31 2.8h.18a5.75 5.75 0 0 1 .91-1.16c.38-.38.82-.72 1.33-1.03a7.02 7.02 0 0 1 3.67-1.02c1.06 0 2 .11 2.81.34.82.23 1.5.64 2.04 1.23a5.7 5.7 0 0 1 1.23 2.39c.28 1 .41 2.27.41 3.82v9.92h-2.73v-9.38c0-1.91-.3-3.35-.93-4.32-.62-.96-1.74-1.44-3.37-1.44-.6 0-1.18.12-1.74.36s-1.08.56-1.53.95a6.56 6.56 0 0 0-1.2 1.36 5.71 5.71 0 0 0-.77 1.64v10.83h-2.66v-11.24zm21.64-12.96h5.77v18.39c0 1.4.24 2.4.71 2.97.47.58 1.17.87 2.1.87.64 0 1.25-.12 1.84-.35s1.24-.62 1.95-1.18l1.25 1.9c-.37.33-.78.62-1.21.87a9.01 9.01 0 0 1-1.36.64 8.82 8.82 0 0 1-1.39.4 6.61 6.61 0 0 1-1.28.13c-.85 0-1.62-.1-2.29-.32s-1.23-.57-1.68-1.06a4.67 4.67 0 0 1-1.02-1.92c-.23-.8-.35-1.78-.35-2.95v-16.08h-3.04v-2.31zm20.25 24.2v-2.32h6.02v-12.65h-6.01v-2.32h8.74v14.97h5.88v2.32h-14.63zm5.05-22.2a2.23 2.23 0 0 1 2.22-2.28 2.3 2.3 0 0 1 2.35 2.28 2 2 0 0 1-.68 1.52c-.45.42-1 .62-1.68.62-.64 0-1.17-.2-1.59-.62a2.06 2.06 0 0 1-.62-1.52zm15.28 10.96a36.9 36.9 0 0 0-.07-1.85 31.65 31.65 0 0 0-.09-1.05 11.7 11.7 0 0 0-.12-.9h-2.31v-2.25h4.63l.31 2.8h.17a5.75 5.75 0 0 1 .92-1.16c.38-.38.82-.72 1.33-1.03a7.02 7.02 0 0 1 3.66-1.02c1.06 0 2 .11 2.82.34.82.23 1.5.64 2.04 1.23a5.7 5.7 0 0 1 1.23 2.39c.27 1 .41 2.27.41 3.82v9.92h-2.73v-9.38c0-1.91-.3-3.35-.93-4.32-.62-.96-1.74-1.44-3.37-1.44-.6 0-1.18.12-1.74.36s-1.08.56-1.54.95a6.56 6.56 0 0 0-1.2 1.36 5.71 5.71 0 0 0-.76 1.64v10.83h-2.66v-11.24zm35.81 9.06a8.7 8.7 0 0 1-1.47 1.04c-.56.32-1.18.6-1.85.83a13.52 13.52 0 0 1-4.28.72c-1.39 0-2.6-.21-3.67-.64a7.06 7.06 0 0 1-2.66-1.83 7.99 7.99 0 0 1-1.62-2.85 11.76 11.76 0 0 1-.56-3.74c0-1.45.2-2.74.6-3.87a7.5 7.5 0 0 1 1.75-2.83 7.6 7.6 0 0 1 2.77-1.75 11 11 0 0 1 6.5-.22c.94.25 1.78.73 2.5 1.43.73.7 1.29 1.67 1.68 2.9.4 1.24.53 2.83.41 4.8h-13.34c0 2.07.56 3.62 1.67 4.64a6.33 6.33 0 0 0 4.47 1.54 7.7 7.7 0 0 0 1.84-.22c.61-.15 1.2-.33 1.74-.54a9.3 9.3 0 0 0 1.47-.7c.42-.24.75-.47.98-.68l1.07 1.97zm-7.28-13.24c-.76 0-1.47.08-2.15.24s-1.27.43-1.8.81c-.5.38-.93.88-1.27 1.49a5.96 5.96 0 0 0-.63 2.26h10.71a5.32 5.32 0 0 0-1.46-3.54c-.87-.84-2-1.26-3.4-1.26z" fill="#FFF"/><path d="M540.8 659.53h172.85V709H540.8z"/><path d="M575.45 671.3h5.53v8.9h.17a5.91 5.91 0 0 1 2.32-1.77 7.56 7.56 0 0 1 3.07-.62c5.07 0 7.6 2.92 7.6 8.78 0 2.97-.81 5.25-2.45 6.82-1.64 1.58-3.96 2.37-6.98 2.37-1.43 0-2.72-.14-3.87-.41a7.7 7.7 0 0 1-2.52-.97v-20.78h-2.87v-2.31zm10.75 8.82c-1.39 0-2.5.4-3.36 1.18a6.82 6.82 0 0 0-1.86 3.32v7.95a10.16 10.16 0 0 0 4.21.9c.92 0 1.76-.14 2.5-.4.76-.27 1.4-.68 1.93-1.25s.94-1.28 1.23-2.16.43-1.9.43-3.1c0-.88-.1-1.71-.28-2.5a6.08 6.08 0 0 0-.88-2.05 4.25 4.25 0 0 0-1.57-1.39 5.07 5.07 0 0 0-2.35-.5zm14.03-8.81H606v18.39c0 1.4.24 2.4.71 2.97.47.58 1.17.87 2.1.87.64 0 1.25-.12 1.84-.35s1.24-.62 1.96-1.17l1.24 1.9c-.37.32-.77.6-1.21.86a9.01 9.01 0 0 1-1.36.64 8.82 8.82 0 0 1-1.38.4 6.61 6.61 0 0 1-1.29.14c-.85 0-1.62-.11-2.29-.33s-1.23-.57-1.68-1.06a4.67 4.67 0 0 1-1.02-1.92c-.23-.8-.35-1.78-.35-2.95v-16.08h-3.04v-2.31zm18.6 15.55c0-2.78.72-5 2.17-6.62 1.46-1.62 3.53-2.43 6.23-2.43 1.45 0 2.7.23 3.75.7a7.36 7.36 0 0 1 4.14 4.8 12 12 0 0 1 .5 3.55c0 1.39-.18 2.64-.55 3.76a7.17 7.17 0 0 1-4.27 4.67 9.44 9.44 0 0 1-3.57.63 9.1 9.1 0 0 1-3.74-.7 7.3 7.3 0 0 1-4.16-4.8c-.34-1.1-.5-2.29-.5-3.56zm2.87 0c0 .81.1 1.62.29 2.42s.51 1.54.95 2.18a4.93 4.93 0 0 0 1.7 1.56c.7.4 1.56.59 2.57.59 1.84 0 3.22-.57 4.15-1.72.93-1.14 1.4-2.81 1.4-5.03a10.2 10.2 0 0 0-.3-2.43 6.43 6.43 0 0 0-.96-2.16 5.1 5.1 0 0 0-1.72-1.56 5.2 5.2 0 0 0-2.57-.59c-1.84 0-3.22.57-4.14 1.7-.91 1.13-1.37 2.8-1.37 5.04zm31.07-5.98a13.62 13.62 0 0 0-1.71-.46 8.97 8.97 0 0 0-1.81-.2c-2.26 0-3.95.54-5.05 1.6-1.1 1.06-1.66 2.75-1.66 5.06 0 1.02.16 1.93.48 2.72s.79 1.48 1.39 2.03c.6.56 1.31.98 2.16 1.28.84.3 1.76.45 2.78.45a9.17 9.17 0 0 0 3.16-.56 7.99 7.99 0 0 0 2.58-1.48l1.2 2.01a10 10 0 0 1-1.2.86 11.9 11.9 0 0 1-3.79 1.5 13.04 13.04 0 0 1-6.46-.41 7.52 7.52 0 0 1-4.58-4.7c-.4-1.12-.6-2.35-.6-3.71 0-1.46.21-2.75.61-3.88a7.5 7.5 0 0 1 1.75-2.83c.76-.76 1.68-1.34 2.76-1.75s2.3-.6 3.63-.6c1.7 0 3.1.15 4.17.45 1.07.3 1.98.63 2.71 1l-.03.1v4.8h-2.49v-3.28zm6.4-9.57h5.6v14.3h1.9l6.8-7.39h3.26l-7.64 8.2 6.29 6.77h2.24v2.32h-3.56l-7.4-7.82h-1.9v7.82h-2.66v-21.89h-2.93v-2.31z" fill="#FFF"/><path d="M661.7 79.74a2.9 2.9 0 1 1-5.8 0 2.9 2.9 0 0 1 5.8 0z"/><circle cx="683.81" cy="79.74" r="2.9"/><circle fill="#FF8630" cx="740.11" cy="92.23" r="2.9"/><circle fill="#FF8630" cx="649.16" cy="61.18" r="2.9"/><circle fill="#FF8630" cx="678.01" cy="71.38" r="2.9"/><circle fill="#FF8630" cx="704.82" cy="27.98" r="2.9"/><path fill="#FF8630" d="M644.55 126.49a2.9 2.9 0 1 1-5.8 0 2.9 2.9 0 0 1 5.8 0z"/><circle cx="672.03" cy="82.65" r="2.9"/><path d="M725.6 83.07a2.9 2.9 0 1 1-5.8 0 2.9 2.9 0 0 1 5.8 0zm-76.44 30.08a2.9 2.9 0 1 1-5.8 0 2.9 2.9 0 0 1 5.8 0z"/><circle cx="680.91" cy="91.74" r="2.9"/><path d="M671.95 68.48a2.9 2.9 0 1 1-5.8 0 2.9 2.9 0 0 1 5.8 0zm82.62 2.6a2.9 2.9 0 0 1-2.9 2.9 2.9 2.9 0 0 1-2.9-2.9 2.9 2.9 0 1 1 5.8 0zM278.65 127.1l49.14 18.55-49.14 18.54z"/><path fill="#FF8630" d="M375.7 181.06h-68.5l21.56-35.4-21.55-35.41h68.49"/><path d="M375.7 183.06h-68.5a2 2 0 0 1-1.7-3.04l20.92-34.37-20.92-34.36a2 2 0 0 1 1.7-3.05h68.5a2 2 0 0 1 0 4h-64.93l19.7 32.37a2 2 0 0 1 0 2.08l-19.7 32.37h64.93a2 2 0 0 1 0 4z"/><path fill="#FFF" d="M375.7 108.25a4.6 4.6 0 0 1 3.28 1.35l32.83 32.82a4.64 4.64 0 0 1 0 6.54l-32.83 32.83c-.9.9-2.08 1.27-3.27 1.27v-74.81z"/><path fill="#FF8630" d="M396.78 145.62a7.89 7.89 0 0 1-7.89 7.88 7.89 7.89 0 0 1 0-15.77 7.89 7.89 0 0 1 7.89 7.89z"/><circle fill="#231F20" cx="388.89" cy="145.62" r="4.94"/><path d="m393.52 50.24 35.7 13.47-35.7 13.47z"/><path fill="#FF8630" d="M465.03 89.43h-50.76l15.66-25.72-15.67-25.73h50.77z"/><path d="M464.03 91.43h-49.77a2 2 0 0 1-1.7-3.04l15.02-24.68-15.02-24.69a2 2 0 0 1 1.7-3.04h49.77a2 2 0 0 1 0 4h-46.2l13.8 22.69a2 2 0 0 1 0 2.08l-13.8 22.68h46.2a2 2 0 0 1 0 4z"/><path fill="#FFF" d="M464.24 36c.88 0 1.75.34 2.42 1L491 61.35a3.44 3.44 0 0 1 0 4.84l-24.33 24.33a3.42 3.42 0 0 1-2.42 1"/><circle fill="#FF8630" cx="473.61" cy="63.68" r="5.73"/><path fill="#231F20" d="M477.2 63.68a3.59 3.59 0 1 1-7.18 0 3.59 3.59 0 1 1 7.18 0z"/><path fill="#FF8630" d="M340.5 467.76a42.22 42.22 0 0 1-74.04-40.56c11.2-20.45 87.63-120.64 108.08-109.44s-22.84 129.55-34.04 150z"/><path fill="#FFF" d="M303.44 491.7a44.26 44.26 0 0 1-21.2-5.44 43.92 43.92 0 0 1-21.2-26.38 43.91 43.91 0 0 1 3.66-33.64c10.14-18.51 79.7-111.35 106.16-111.35a9.6 9.6 0 0 1 4.64 1.12c9.79 5.36 8.38 30.2-4.2 73.84-9.72 33.76-23.47 68.69-29.04 78.87a44.23 44.23 0 0 1-38.82 22.98zm67.42-172.8c-9.7 0-30.09 17.2-55.95 47.19-22.41 25.98-41.84 53.2-46.7 62.07a39.94 39.94 0 0 0-3.33 30.6 39.95 39.95 0 0 0 19.28 23.99 40.25 40.25 0 0 0 19.28 4.95 40.24 40.24 0 0 0 35.3-20.9c5.5-10.02 19.07-44.56 28.72-78.06 16.3-56.57 9.7-67.26 6.11-69.23a5.53 5.53 0 0 0-2.71-.62z"/><path d="M256.67 569.35a2 2 0 0 1-1.94-2.48c24.51-99.14 115.54-246 116.45-247.48a2 2 0 1 1 3.4 2.12c-.91 1.46-91.6 147.8-115.97 246.32a2 2 0 0 1-1.94 1.52z"/><path fill="#FF8630" d="M184.36 437.86a52.18 52.18 0 1 0 104.36 0c0-28.82-23.36-182.82-52.18-182.82s-52.18 154-52.18 182.82z"/><path fill="#FFF" d="M236.54 492.05a54.24 54.24 0 0 1-54.18-54.19c0-14.32 5.83-60.3 15.33-102.65 12.23-54.52 25.3-82.17 38.85-82.17s26.62 27.65 38.85 82.17c9.5 42.35 15.33 88.33 15.33 102.65a54.24 54.24 0 0 1-54.18 54.18zm0-235c-5.18 0-18.95 7.7-34.95 79.03-9.43 42.09-15.23 87.65-15.23 101.78a50.24 50.24 0 0 0 50.18 50.19 50.24 50.24 0 0 0 50.18-50.19c0-14.13-5.8-59.7-15.23-101.78-16-71.33-29.77-79.04-34.95-79.04z"/><path d="M236.54 598.96a2 2 0 0 1-2-2V257.25a2 2 0 0 1 4 0v339.7a2 2 0 0 1-2 2z"/><path fill="#FF8630" d="M139.04 491.29a42.21 42.21 0 0 0 71.57-44.8c-12.37-19.76-94.5-115.34-114.26-102.97-19.76 12.37 30.32 128 42.7 147.77z"/><path fill="#FFF" d="M174.87 513.1a44 44 0 0 1-37.52-20.75c-6.16-9.84-21.92-43.9-33.6-77.06-15.07-42.83-17.93-67.54-8.46-73.47a9.81 9.81 0 0 1 5.3-1.4c14.37 0 41.4 24.84 61.54 45.68 24.15 24.99 44.66 50.51 50.17 59.33 6.27 10 8.26 21.86 5.61 33.37s-9.62 21.3-19.63 27.56a44.07 44.07 0 0 1-23.41 6.75zm-74.28-168.68c-1.28 0-2.32.26-3.18.8-3.47 2.17-9.43 13.22 10.12 68.75 11.59 32.89 27.15 66.58 33.2 76.25a40.03 40.03 0 0 0 34.13 18.89 40 40 0 0 0 21.3-6.14A39.95 39.95 0 0 0 214 477.9a39.94 39.94 0 0 0-5.1-30.35c-12.25-19.58-84.74-103.13-108.32-103.13z"/><path d="M228.52 587.85a2 2 0 0 1-1.9-1.41c-30.06-96.95-128.98-237.6-129.97-239a2 2 0 0 1 3.26-2.31c1 1.41 100.28 142.56 130.52 240.12a2 2 0 0 1-1.9 2.6z"/><path d="M289.67 709.42H182.6l-24.49-173.03h156.05z"/></svg>
