<svg width="1200" height="200" fill="none" xmlns="http://www.w3.org/2000/svg"><path fill="#18191C" d="M0 0h1200v200H0z"/><path d="M1147.12 81.1213c1.17-1.1716 1.17-3.071 0-4.2426l-19.09-19.0919c-1.17-1.1716-3.07-1.1716-4.24 0-1.17 1.1716-1.17 3.0711 0 4.2426L1140.76 79l-16.97 16.9706c-1.17 1.1715-1.17 3.071 0 4.2424 1.17 1.172 3.07 1.172 4.24 0l19.09-19.0917ZM45 82h1100v-6H45v6ZM1034.51 154v-20.076h8.14c2.75 0 4.84.482 6.27 1.447 1.44.953 2.16 2.326 2.16 4.119 0 .928-.29 1.763-.88 2.505-.56.73-1.41 1.293-2.54 1.689 1.31.272 2.35.822 3.12 1.651.77.829 1.15 1.806 1.15 2.932 0 1.867-.69 3.29-2.08 4.267-1.37.977-3.35 1.466-5.94 1.466h-9.4Zm4.51-8.554v4.992h4.93c2.31 0 3.47-.829 3.47-2.487 0-1.67-1.17-2.505-3.52-2.505h-4.88Zm0-3.228h3.71c2.56 0 3.84-.755 3.84-2.264 0-1.583-1.21-2.4-3.64-2.449h-3.91v4.713Zm34.4 1.948c0 3.105-.71 5.585-2.12 7.44-1.41 1.844-3.3 2.765-5.68 2.765-2.2 0-3.96-.724-5.29-2.171v9.519h-4.5v-27.795h4.15l.19 2.041c1.32-1.608 3.12-2.412 5.4-2.412 2.45 0 4.36.915 5.75 2.746 1.4 1.818 2.1 4.348 2.1 7.589v.278Zm-4.49-.39c0-2.004-.41-3.593-1.21-4.768-.79-1.175-1.93-1.763-3.41-1.763-1.85 0-3.17.761-3.98 2.282v8.907c.82 1.558 2.16 2.337 4.01 2.337 1.44 0 2.56-.575 3.36-1.725.82-1.163 1.23-2.919 1.23-5.27Zm17.16 10.595c-2.86 0-5.18-.897-6.96-2.69-1.77-1.806-2.65-4.206-2.65-7.2v-.556c0-2.004.38-3.792 1.15-5.363.78-1.583 1.87-2.814 3.26-3.692 1.4-.878 2.96-1.317 4.68-1.317 2.73 0 4.84.872 6.33 2.616 1.49 1.744 2.24 4.212 2.24 7.403v1.819h-13.12c.14 1.657.69 2.968 1.65 3.933.98.965 2.21 1.447 3.68 1.447 2.06 0 3.75-.834 5.05-2.504l2.43 2.319c-.81 1.2-1.88 2.134-3.23 2.802-1.34.655-2.84.983-4.51.983Zm-.54-17.2c-1.24 0-2.24.433-3.01 1.299-.75.866-1.23 2.072-1.44 3.618h8.59v-.334c-.1-1.509-.5-2.647-1.21-3.414-.7-.779-1.68-1.169-2.93-1.169Zm24.03 11.281 5.94-14.528h5.64V154h-4.51v-13.285L1111.12 154h-3.06l-5.55-13.359V154H1098v-20.076h5.68l5.9 14.528Zm32.73-14.528V154h-4.49v-7.366h-4.21l-4.29 7.366h-4.67l4.73-8.108c-1.24-.52-2.19-1.262-2.86-2.227-.66-.965-.98-2.072-.98-3.321 0-1.868.71-3.396 2.15-4.583 1.45-1.2 3.39-1.812 5.84-1.837h8.78Zm-12.27 6.531c0 .841.31 1.528.93 2.06.63.519 1.44.779 2.41.779h4.44v-5.789h-4.16c-1.1 0-1.98.278-2.63.835-.66.556-.99 1.262-.99 2.115Z" fill="#fff"/><circle cx="145" cy="79" r="25" fill="#FF2F24"/><circle cx="425" cy="79" r="25" fill="#FF7C1F"/><circle cx="505" cy="79" r="25" fill="#FFD829"/><circle cx="765" cy="79" r="25" fill="#37E73E"/><circle cx="975" cy="79" r="25" fill="#2495FF"/></svg>