<svg xmlns="http://www.w3.org/2000/svg" viewBox="0 0 1925 1050" xml:space="preserve"><path fill="#FFD829" d="m1394.37 297.58-257.55 257.55-53.03-53.04 257.54-257.54z"/><path fill="#FFD829" d="M1089.96 508.23s-58.85-60.5-60.2-61.87a60.8 60.8 0 0 0-86.62 85.3l81.06 81.03 6.8 7.66 103.1 104.75 76.8 78.01c25.69 26.27 44.42 34.86 79.8 40.85 37.54 6.9 51.8 5.76 72.56 26.47l56.93 57.38 285.63-285.63-54.1-54.38c-25.98-27.05-18.62-54.12-17.47-72.66a171.41 171.41 0 0 0-28.39-125.11l-154.93-262.68c-.8-1.69-10.44-17.6-11.42-19.26-17.04-28.91-29.31-12.1-64.21 8.96-28.72 17.34-40.47 51.97-23.42 80.88l5.8 9.56 14.46 23.91 18.83 31.11 18.87 31.17 14.58 24.09 3.25 5.37c.93 1.54 2.76 3.6 2.6 5.52-.18 2.04-2 2.34-3.48 1.36-3.36-2.2-10.7-10.15-23.88-23.68"/><path d="M1420.2 930.3h-.01a2.5 2.5 0 0 1-1.77-.73l-56.94-57.38c-16.69-16.66-29.2-18.72-54.1-22.83-5.07-.83-10.8-1.77-17.13-2.94-37.2-6.3-56.16-16.02-81.14-41.56L1029.2 622.1a2.03 2.03 0 0 1-.08-.1l-6.75-7.6-81.01-80.99a63.37 63.37 0 0 1 .7-89.5 63.38 63.38 0 0 1 89.48.69c1.34 1.36 59.61 61.27 60.2 61.87a2.5 2.5 0 1 1-3.58 3.5l-60.19-61.87a58.36 58.36 0 0 0-82.4-.63 58.36 58.36 0 0 0-.66 82.42l81.05 81.03.1.1 6.76 7.62 179.85 182.7c24.4 24.97 42 33.97 78.44 40.15 6.31 1.16 12.03 2.1 17.07 2.93 25.96 4.28 39 6.43 56.83 24.23l55.18 55.6 282.1-282.08-52.35-52.61c-23.22-24.18-20.73-48.66-18.92-66.53a210.24 210.24 0 0 0 .75-8.3 169.84 169.84 0 0 0-21.36-113.03 168.32 168.32 0 0 0-6.61-10.26l-.1-.15-154.93-262.68a2.15 2.15 0 0 1-.1-.2c-.6-1.23-7.29-12.36-9.81-16.54l-1.51-2.51c-4.94-8.4-9.46-12.81-14.2-13.91-7.37-1.7-16.3 4.15-29.79 13.03a492.18 492.18 0 0 1-16.78 10.7c-28.69 17.32-38.39 50.63-22.55 77.47l75.77 125.19c.18.3.4.63.64.97 1.06 1.55 2.5 3.67 2.3 6.06a4.43 4.43 0 0 1-2.4 3.75 4.98 4.98 0 0 1-4.93-.51c-2.88-1.9-7.79-6.97-16.69-16.18l-7.6-7.85a2.5 2.5 0 0 1 3.57-3.49l7.63 7.87c7.32 7.57 12.4 12.82 15.08 14.92-.3-.6-.76-1.27-1.08-1.74-.3-.43-.57-.84-.8-1.21l-75.79-125.22a57.92 57.92 0 0 1-5.7-46.8c4.67-15.34 15.31-28.66 29.97-37.5 6.2-3.75 11.73-7.4 16.61-10.6 14.57-9.6 24.2-15.93 33.67-13.73 6.25 1.45 11.61 6.46 17.37 16.23l1.5 2.48c5.44 9.04 9.23 15.39 9.97 16.86l154.84 262.52c2.7 3.92 4.85 7.26 6.76 10.5a174.86 174.86 0 0 1 22 116.24c-.16 2.58-.43 5.27-.72 8.13-1.82 17.84-4.07 40.04 17.52 62.52l54.06 54.35a2.5 2.5 0 0 1 0 3.53l-285.63 285.63a2.5 2.5 0 0 1-1.77.73z"/><path fill="#FFD829" d="M1348.26 250.28a60.77 60.77 0 0 0-85.94-.67c-23.91 23.56-22.41 63.82 1.12 87.74l45.58 45.57c23.92 23.54 64.18 25.04 87.73 1.13 23.56-23.91 26.94-57.5 3.03-81.04l-51.52-52.73z"/><path d="M1354.22 403.8a67 67 0 0 1-46.96-19.1l-45.58-45.59c-25.03-25.43-25.53-67.23-1.12-91.28a62.82 62.82 0 0 1 44.88-18.19 62.87 62.87 0 0 1 44.6 18.89l51.53 52.73c11.99 11.8 17.88 26.44 17 42.27-.84 15-7.96 30.01-20.03 42.27-11.84 12.01-27.96 18-44.32 18zm-49.29-169.16a57.84 57.84 0 0 0-40.86 16.75c-22.48 22.16-21.96 60.72 1.16 84.2l45.56 45.56c23.47 23.1 62.03 23.63 84.18 1.14 11.23-11.39 17.83-25.25 18.6-39.04.8-14.36-4.57-27.66-15.55-38.46l-51.55-52.76a57.9 57.9 0 0 0-41.06-17.38h-.48z"/><path fill="#FFD829" d="M1262.31 336.23a60.77 60.77 0 0 0-85.94-.67c-23.91 23.56-22.41 63.82 1.12 87.74"/><path d="M1177.5 425.8a2.5 2.5 0 0 1-1.79-.75c-25-25.42-25.51-67.22-1.1-91.27a62.82 62.82 0 0 1 44.88-18.19 62.87 62.87 0 0 1 44.6 18.89 2.5 2.5 0 1 1-3.56 3.5 57.9 57.9 0 0 0-41.07-17.39h-.48a57.84 57.84 0 0 0-40.86 16.75c-22.48 22.15-21.95 60.71 1.16 84.2a2.5 2.5 0 0 1-1.79 4.26z"/><path fill="#FFD829" d="M1176.36 422.18a60.77 60.77 0 0 0-85.94-.67c-23.91 23.56-22.41 63.82 1.13 87.74"/><path d="M1091.55 511.75a2.5 2.5 0 0 1-1.79-.75c-25-25.42-25.51-67.22-1.1-91.27a62.82 62.82 0 0 1 44.37-18.19h.52a62.88 62.88 0 0 1 44.6 18.89 2.5 2.5 0 1 1-3.57 3.5 57.9 57.9 0 0 0-41.55-17.39 57.84 57.84 0 0 0-40.86 16.75c-22.48 22.15-21.95 60.71 1.16 84.2a2.5 2.5 0 0 1-1.78 4.25z"/><path d="M1209.74 458.06a2.5 2.5 0 0 1-1.77-.73l-37.7-37.7a2.5 2.5 0 1 1 3.53-3.54l37.7 37.7a2.5 2.5 0 0 1-1.76 4.27zm85.95-85.96a2.5 2.5 0 0 1-1.77-.72l-37.7-37.7a2.5 2.5 0 1 1 3.53-3.54l37.7 37.7a2.5 2.5 0 0 1-1.76 4.27z"/><ellipse transform="rotate(-45 1326.04 314.01)" fill="#FFF" cx="1326.03" cy="314" rx="30.65" ry="13.39"/><path d="M1350.66 383.25c-12.3 0-24.8-4.83-34.39-14.42-9-9-14.13-20.82-14.42-33.28a44.4 44.4 0 0 1 12.95-32.79c17.81-17.81 47.45-17.15 66.07 1.47 18.63 18.63 19.29 48.27 1.48 66.08a44.5 44.5 0 0 1-31.69 12.94zm-4.18-88.43a39.52 39.52 0 0 0-28.15 11.48 39.44 39.44 0 0 0-11.48 29.13 43.6 43.6 0 0 0 12.96 29.87c16.67 16.67 43.14 17.33 59 1.47 15.86-15.86 15.2-42.33-1.47-59a43.7 43.7 0 0 0-30.86-12.95z"/><path fill="#FFD829" d="M1262.31 336.23a60.77 60.77 0 0 0-85.94-.67c-23.91 23.56-22.41 63.82 1.12 87.74l45.58 45.57c23.92 23.54 64.18 25.04 87.73 1.13 23.56-23.91 26.94-57.5 3.03-81.04l-51.52-52.73z"/><path d="M1268.27 489.74a67 67 0 0 1-46.95-19.09l-45.6-45.59c-25.02-25.43-25.52-67.23-1.1-91.28a62.82 62.82 0 0 1 44.88-18.19 62.87 62.87 0 0 1 44.6 18.89l51.52 52.73c11.99 11.8 17.88 26.44 17 42.27-.84 15-7.96 30.01-20.03 42.27-11.84 12.01-27.96 18-44.32 18zm-49.29-169.15a57.84 57.84 0 0 0-40.86 16.75c-22.48 22.16-21.95 60.72 1.16 84.2l45.56 45.56c23.47 23.1 62.03 23.63 84.18 1.14 11.23-11.39 17.83-25.25 18.6-39.04.8-14.36-4.57-27.66-15.55-38.46l-51.55-52.76a57.9 57.9 0 0 0-41.06-17.39h-.48z"/><ellipse transform="rotate(-45 1240.09 399.96)" fill="#FFF" cx="1240.08" cy="399.94" rx="30.65" ry="13.39"/><path d="M1264.71 469.2c-12.3 0-24.8-4.83-34.39-14.42-18.62-18.62-19.28-48.26-1.47-66.07 8.64-8.64 20.27-13.23 32.79-12.95a48.58 48.58 0 0 1 33.28 14.42c18.63 18.63 19.29 48.27 1.48 66.08a44.5 44.5 0 0 1-31.69 12.94zm-4.2-88.45a39.38 39.38 0 0 0-28.13 11.5c-15.86 15.85-15.2 42.32 1.48 59 16.67 16.67 43.14 17.33 59 1.47 15.86-15.86 15.2-42.33-1.47-59a43.6 43.6 0 0 0-30.87-12.97z"/><path fill="#FFD829" d="M1176.05 422.5a60.77 60.77 0 0 0-85.94-.68c-23.92 23.56-22.41 63.82 1.12 87.74l45.58 45.57c23.92 23.54 64.17 25.04 87.73 1.13 23.56-23.91 26.94-57.5 3.02-81.04l-51.51-52.73z"/><path d="M1182 576a67 67 0 0 1-46.95-19.09l-45.58-45.58c-25.03-25.44-25.53-67.23-1.12-91.29a62.82 62.82 0 0 1 44.88-18.18 62.87 62.87 0 0 1 44.6 18.88l51.53 52.73c11.99 11.8 17.88 26.44 17 42.27-.84 15-7.96 30.01-20.03 42.27-11.84 12.01-27.96 18-44.32 18zm-49.28-169.14a57.84 57.84 0 0 0-40.86 16.74c-22.48 22.16-21.96 60.72 1.16 84.2l45.56 45.56c23.47 23.1 62.03 23.63 84.18 1.14 11.22-11.39 17.83-25.25 18.6-39.04.8-14.35-4.57-27.65-15.55-38.46l-51.55-52.76a57.9 57.9 0 0 0-41.07-17.38h-.47z"/><ellipse transform="rotate(-45 1154.13 485.9)" fill="#FFF" cx="1154.13" cy="485.89" rx="30.65" ry="13.39"/><path d="M1178.79 555.17c-.38 0-.76 0-1.13-.02a48.58 48.58 0 0 1-33.29-14.42c-18.62-18.62-19.28-48.26-1.47-66.07 17.81-17.81 47.45-17.15 66.07 1.47 18.63 18.62 19.29 48.27 1.48 66.08a44.33 44.33 0 0 1-31.66 12.96zm-4.2-88.45a39.51 39.51 0 0 0-28.15 11.47c-15.87 15.86-15.2 42.33 1.47 59a43.6 43.6 0 0 0 29.87 12.97 39.5 39.5 0 0 0 29.13-11.49c15.86-15.86 15.2-42.33-1.47-59a43.71 43.71 0 0 0-30.86-12.95z"/><path fill="#FFD829" d="M1462.96 382.56s-158.62 111.44-4.8 277.32"/><path d="M1458.15 662.38a2.5 2.5 0 0 1-1.83-.8c-50-53.92-72.53-107.85-66.99-160.3 4.14-39.12 23.54-69.87 39.09-88.77 16.82-20.45 32.45-31.53 33.1-32a2.5 2.5 0 0 1 2.88 4.1c-.62.43-62.46 44.72-70.1 117.24-5.37 50.94 16.73 103.54 65.68 156.33a2.5 2.5 0 0 1-1.83 4.2z"/><path fill="#FFF" d="m1467.16 161.02 13.47 22.82c-9.72 4.66-20.22 5.48-31.2 1.79 2.42-10 8.95-18.56 17.73-24.6z"/><path d="M1461.74 192.67c-16.02 0-31.9-8.66-41.35-24.19-14.03-23.08-7.6-50.11 15.3-64.28a2.5 2.5 0 0 1 2.62 4.25c-20.45 12.66-26.19 36.81-13.64 57.44 12.47 20.51 37.39 27.74 56.71 16.45a2.5 2.5 0 0 1 2.52 4.32 43.75 43.75 0 0 1-22.16 6.01zm292.66 494.29-289.8 289.8-80.76-80.74 289.8-289.8z"/><circle fill="#FFF" cx="1624.62" cy="735.99" r="18.79"/><circle fill="#FFF" cx="1677.93" cy="682.67" r="18.79"/><circle fill="#FFF" cx="1517.98" cy="842.62" r="18.79"/><circle fill="#FFF" cx="1571.3" cy="789.3" r="18.79"/><circle fill="#FFF" cx="1464.67" cy="895.94" r="18.79"/><path fill="#FFF" d="m1700.57 633.16 95.98-66.32-69.25 93.05zm-289.81 289.8-66.31 95.98 93.04-69.25z"/><path fill="#FFD829" d="m584.72 245.5 257.55 257.54-53.03 53.04-257.55-257.55z"/><path fill="#FFD829" d="m803.35 542.23 92.92-94.93a60.8 60.8 0 0 1 86.63 85.3l-81.06 81.04-6.8 7.66-103.1 104.74-76.8 78.01c-25.68 26.28-44.42 34.86-79.8 40.86-37.54 6.89-42.88-3.17-63.63 17.54L284.13 574.87c25.99-27.05 8.81-40.24 7.67-58.78a171.4 171.4 0 0 1 28.38-125.12l142.58-241.36c.8-1.69 20.66-33.8 21.65-35.44 17.03-28.92 29.31-12.1 64.2 8.95 28.72 17.34 38.52 54.32 21.47 83.23l-.04.07-7.53 13.3-60.26 101.82c-2.25 3.7.84 6.03 3.51 3.28l37.2-37.72"/><path d="M571.71 864.95a2.5 2.5 0 0 1-1.77-.73L282.37 576.64a2.5 2.5 0 0 1-.04-3.5c17.9-18.63 14.24-29.97 10.38-41.98-1.5-4.67-3.05-9.5-3.4-14.8a174.84 174.84 0 0 1 22-116.24c1.91-3.23 4.06-6.57 6.76-10.5l142.5-241.22c.9-1.68 7.08-11.78 17.36-28.46l4.33-7.05c5.75-9.77 11.11-14.78 17.37-16.23 9.46-2.2 19.1 4.14 33.66 13.73a494.16 494.16 0 0 0 16.62 10.6 63.89 63.89 0 0 1 29.02 38.78 62.55 62.55 0 0 1-6.72 47.89l-7.52 13.29-60.02 101.41 36.51-37.02a2.5 2.5 0 1 1 3.56 3.51l-37.2 37.72c-2.41 2.5-5.25 2.3-6.85 1.06-1.72-1.33-2.56-4.13-.57-7.4l60.24-101.79 7.49-13.22.08-.14a57.59 57.59 0 0 0 6.16-44.05 58.9 58.9 0 0 0-26.77-35.77c-6.28-3.79-11.85-7.46-16.78-10.7-13.49-8.88-22.4-14.74-29.78-13.03-4.75 1.1-9.26 5.52-14.2 13.9-.28.47-2 3.28-4.38 7.13-5.34 8.68-16.46 26.73-17.17 28.14l-.1.18-142.58 241.36-.1.15a168.56 168.56 0 0 0-6.6 10.26 169.84 169.84 0 0 0-21.34 113.28c.3 4.73 1.7 9.08 3.18 13.7 4.02 12.5 8.18 25.42-9.86 45.18l284.12 284.12c13.24-12.6 20.93-12.93 34.43-13.5 7.17-.29 16.09-.66 28.73-2.98 36.47-6.19 54.07-15.19 78.47-40.14l179.86-182.72 6.75-7.61 81.15-81.14a58.36 58.36 0 0 0-.65-82.42 58.37 58.37 0 0 0-82.42.64l-92.91 94.92-3.57-3.5 92.92-94.92a63.37 63.37 0 0 1 89.48-.7 63.37 63.37 0 0 1 .72 89.49l-81.03 81-6.75 7.6-.09.1-179.9 182.76c-24.96 25.54-43.93 35.25-81.16 41.56-12.95 2.38-22.07 2.76-29.4 3.07-13.66.56-19.9.82-32.88 13.78a2.5 2.5 0 0 1-1.77.73z"/><path fill="#FFF" d="m497.04 1005.21 76.1-141.33-289.73-289.73-143.46 76.9c-6.72 3.26-12.16 6.28-17.24 11.36-20 20-20 52.43 0 72.44 18.16 18.15 52.43 20 72.43 0a51.22 51.22 0 0 0 72.44 72.43c-20 20-20 52.43 0 72.43 17.99 18 52.43 20 72.43 0a51.22 51.22 0 0 0 72.43 72.44 51.22 51.22 0 0 0 72.44 72.43c5.65-5.65 8.35-10.95 12.16-19.37z"/><path fill="#FFF" d="M448.66 1042.06a53.55 53.55 0 0 1-37.98-15.7 53.81 53.81 0 0 1-9.7-62.75 53.82 53.82 0 0 1-62.74-9.7 53.82 53.82 0 0 1-9.53-63.04 55.09 55.09 0 0 1-25.72 5.6c-14.38-.28-27.93-5.74-37.18-14.99a53.81 53.81 0 0 1-9.71-62.7 53.46 53.46 0 0 1-24.74 6 53.37 53.37 0 0 1-37.98-15.73 53.37 53.37 0 0 1-15.74-37.99c0-8.86 2.13-17.4 6.16-25.02a54.5 54.5 0 0 1-25.6 5.62c-14.37-.25-27.95-5.73-37.26-15.05a53.37 53.37 0 0 1-15.73-37.98 53.36 53.36 0 0 1 15.73-37.98c5.1-5.1 10.44-8.21 17.92-11.85l143.37-76.86a2.5 2.5 0 0 1 2.95.44l289.74 289.74c.78.78.95 1.98.43 2.95l-76.06 141.26c-3.7 8.16-6.6 13.98-12.64 20.02a53.57 53.57 0 0 1-37.99 15.71zm-34.45-88.14c-19 19-19 49.9 0 68.9a48.79 48.79 0 0 0 68.9 0c5.48-5.48 8.06-10.7 11.65-18.64a2 2 0 0 1 .08-.15l75.22-139.7-287.1-287.1-141.83 76.02c-7.1 3.45-12.04 6.32-16.65 10.93a48.4 48.4 0 0 0-14.27 34.45 48.4 48.4 0 0 0 14.27 34.45c16.26 16.26 49.18 19.71 68.9 0a2.5 2.5 0 1 1 3.53 3.53c-9.2 9.2-14.27 21.44-14.27 34.45s5.07 25.25 14.27 34.45c9.2 9.2 21.44 14.27 34.45 14.27s25.25-5.06 34.45-14.27a2.5 2.5 0 1 1 3.54 3.54c-19 19-19 49.9 0 68.9 8.34 8.34 20.64 13.27 33.74 13.51 13.7.28 26.18-4.54 35.15-13.51a2.5 2.5 0 1 1 3.54 3.53c-19 19-19 49.9 0 68.9 19 19 49.9 19 68.9 0a2.5 2.5 0 1 1 3.53 3.54z"/><path d="M716.3 459a2.5 2.5 0 0 1-1.76-4.27l37.7-37.7a2.5 2.5 0 1 1 3.53 3.54l-37.7 37.7c-.48.49-1.12.73-1.76.73zm-85.94-85.95a2.5 2.5 0 0 1-1.77-4.27l37.7-37.7a2.5 2.5 0 1 1 3.53 3.54l-37.7 37.7c-.49.49-1.13.73-1.76.73z"/><path fill="#FFD829" d="M540.78 289.34s35.64-36.74 37-38.11a60.77 60.77 0 0 1 85.95-.67c23.9 23.55 22.4 63.8-1.13 87.73"/><path d="M662.6 340.79a2.5 2.5 0 0 1-1.78-4.25c23.1-23.5 23.64-62.05 1.15-84.2a57.89 57.89 0 0 0-41.33-16.75 57.9 57.9 0 0 0-41.08 17.4c-1.34 1.34-36.63 37.73-36.98 38.1a2.5 2.5 0 1 1-3.6-3.49c1.46-1.5 35.67-36.76 37.03-38.13a62.87 62.87 0 0 1 45.1-18.88 62.8 62.8 0 0 1 44.37 18.18c24.42 24.06 23.91 65.86-1.1 91.27a2.5 2.5 0 0 1-1.78.75z"/><path fill="#FFD829" d="M663.73 337.18a60.77 60.77 0 0 1 85.94-.68c23.92 23.56 22.42 63.82-1.12 87.74"/><path d="M748.55 426.74a2.5 2.5 0 0 1-1.78-4.25c23.1-23.5 23.64-62.05 1.15-84.2a57.85 57.85 0 0 0-40.86-16.75h-.47a57.9 57.9 0 0 0-41.08 17.39 2.5 2.5 0 1 1-3.56-3.5 62.87 62.87 0 0 1 44.6-18.9h.51a62.8 62.8 0 0 1 44.37 18.2c24.42 24.05 23.91 65.85-1.1 91.26a2.5 2.5 0 0 1-1.78.75z"/><path fill="#FFD829" d="M749.68 423.13a60.77 60.77 0 0 1 85.94-.68c23.92 23.56 22.42 63.82-1.12 87.74"/><path d="M834.5 512.69a2.5 2.5 0 0 1-1.78-4.25c23.1-23.5 23.64-62.05 1.15-84.2a57.9 57.9 0 0 0-41.33-16.75 57.9 57.9 0 0 0-41.08 17.4 2.5 2.5 0 0 1-3.56-3.52 62.87 62.87 0 0 1 45.11-18.88 62.81 62.81 0 0 1 44.37 18.18c24.42 24.06 23.91 65.86-1.1 91.27a2.5 2.5 0 0 1-1.78.75z"/><ellipse transform="rotate(-45 917.58 511)" fill="#FFF" cx="917.58" cy="510.98" rx="13.39" ry="30.65"/><path d="M938 535.18a44.33 44.33 0 0 1-31.65-12.96c-17.82-17.81-17.15-47.45 1.47-66.08 18.62-18.62 48.26-19.28 66.07-1.47 17.82 17.81 17.15 47.45-1.47 66.08a48.58 48.58 0 0 1-34.41 14.43zm4.21-88.45a43.7 43.7 0 0 0-30.86 12.95c-16.67 16.67-17.33 43.14-1.47 59a39.44 39.44 0 0 0 29.14 11.49c11.17-.26 21.77-4.87 29.87-12.96s12.69-18.7 12.95-29.86a39.45 39.45 0 0 0-11.48-29.14 39.52 39.52 0 0 0-28.15-11.48zM184.14 700.84a17.07 17.07 0 0 1-20.46-27.34c7.55-5.65 75.7-35.32 75.7-35.32s-47.7 57.01-55.24 62.66zm73.54 70.2a17.07 17.07 0 1 1-24.5-23.77c6.56-6.77 69.2-46.8 69.2-46.8s-38.13 63.8-44.7 70.57zm72.03 72.03a17.07 17.07 0 1 1-24.5-23.77c6.56-6.77 69.2-46.8 69.2-46.8s-38.13 63.8-44.7 70.57zm72.29 72.3a17.07 17.07 0 1 1-24.5-23.78c6.57-6.77 69.2-46.8 69.2-46.8s-38.13 63.8-44.7 70.58zm43.8 47.13a17.07 17.07 0 0 0 27.34 20.46c5.65-7.55 35.32-75.7 35.32-75.7s-57.01 47.7-62.66 55.24z"/><path fill="#FFF" d="M458.47 162.75 445 185.57c9.73 4.66 20.22 5.48 31.2 1.79-2.42-10-8.95-18.56-17.73-24.6z"/><path d="M463.9 194.4a43.73 43.73 0 0 1-22.17-6 2.5 2.5 0 0 1 2.52-4.33c19.33 11.29 44.24 4.06 56.72-16.45 12.54-20.63 6.8-44.78-13.65-57.44a2.5 2.5 0 0 1 2.63-4.25c22.9 14.17 29.32 41.2 15.29 64.29-9.44 15.52-25.33 24.18-41.35 24.18z"/><path fill="#FFF" d="M90.02 13.54 300.39 205.2m0 2.5c-.6 0-1.2-.22-1.69-.65L88.33 15.39a2.5 2.5 0 1 1 3.37-3.7l210.37 191.66a2.5 2.5 0 0 1-1.68 4.35zm-16.26 61.89L2.5 187.94m281.63 84.15c-.23 0-.46-.03-.7-.1L1.8 190.35a2.5 2.5 0 0 1 1.4-4.8l281.63 81.63a2.5 2.5 0 0 1-.7 4.9zm-11.43 74.86H119.95a2.5 2.5 0 1 1 0-5H272.7a2.5 2.5 0 1 1 0 5zm-200.65 0H19.64a2.5 2.5 0 1 1 0-5h52.4a2.5 2.5 0 1 1 0 5zm193.31 76.57L31.62 485.89m0 2.51a2.5 2.5 0 0 1-.65-4.92l233.75-62.37a2.5 2.5 0 1 1 1.29 4.83L32.26 488.31c-.21.06-.43.08-.64.08zm314.52-325.65L284.13 19.53m62.01 145.72a2.5 2.5 0 0 1-2.3-1.5l-62-143.23a2.5 2.5 0 1 1 4.59-1.98l62 143.22a2.5 2.5 0 0 1-2.29 3.5zm55.76-40.42a2.5 2.5 0 0 1-2.46-2.11l-14.22-92.09a2.5 2.5 0 0 1 4.94-.76l14.22 92.08a2.5 2.5 0 0 1-2.47 2.88zM1834.98 13.54 1624.61 205.2m0 2.5a2.5 2.5 0 0 1-1.68-4.35L1833.3 11.7a2.5 2.5 0 1 1 3.37 3.7L1626.3 207.05a2.5 2.5 0 0 1-1.69.65zm16.26 61.89 281.63-81.65m-281.63 84.15a2.5 2.5 0 0 1-.7-4.9l281.63-81.65a2.5 2.5 0 0 1 1.4 4.8L1641.56 272c-.23.06-.46.1-.7.1zm11.44 72.36h152.73m0 2.5H1652.3a2.5 2.5 0 1 1 0-5h152.73a2.5 2.5 0 1 1 0 5zm47.91-2.5h52.41m0 2.5h-52.4a2.5 2.5 0 1 1 0-5h52.4a2.5 2.5 0 1 1 0 5zm-245.72 76.57 233.74 62.37m0 2.51c-.21 0-.43-.03-.64-.1l-233.75-62.36a2.5 2.5 0 1 1 1.3-4.83l233.74 62.37a2.5 2.5 0 0 1-.65 4.91zm-314.52-325.65 62.01-143.22m-62.01 145.72a2.5 2.5 0 0 1-2.3-3.5l62.01-143.21a2.5 2.5 0 0 1 4.6 1.98l-62.02 143.23a2.5 2.5 0 0 1-2.3 1.5zm-55.76-40.42c-.13 0-.26 0-.4-.02a2.5 2.5 0 0 1-2.08-2.86l14.22-92.08a2.5 2.5 0 0 1 4.94.76l-14.22 92.09a2.5 2.5 0 0 1-2.47 2.11zM960 322.24a2.5 2.5 0 0 1-2.5-2.5V2.3a2.5 2.5 0 1 1 5 0v317.44a2.5 2.5 0 0 1-2.5 2.5zm-67.38 0a2.5 2.5 0 0 1-2.4-1.77l-56.9-185.67a2.5 2.5 0 1 1 4.79-1.46L895 319a2.5 2.5 0 0 1-2.4 3.23zm133.26 0a2.5 2.5 0 0 1-2.37-3.28l61.39-185.67a2.5 2.5 0 0 1 4.74 1.57l-61.39 185.67a2.5 2.5 0 0 1-2.37 1.71zM964.6 1050.2a2.5 2.5 0 0 1-2.5-2.5V784.6a2.5 2.5 0 1 1 5 0v263.08a2.5 2.5 0 0 1-2.5 2.5zm109.03-127.15a2.5 2.5 0 0 1-2.39-1.77l-41.65-135.94a2.5 2.5 0 0 1 4.78-1.46l41.66 135.93a2.5 2.5 0 0 1-2.4 3.24zm-222.26 7.26a2.5 2.5 0 0 1-2.38-3.29l47.35-143.2a2.5 2.5 0 0 1 4.75 1.57l-47.35 143.2a2.5 2.5 0 0 1-2.37 1.72z"/><circle fill="#FFF" cx="687.6" cy="148.22" r="33.41"/><circle fill="#FFF" cx="962.5" cy="682.67" r="33.41"/><circle fill="#FFF" cx="605.44" cy="83.88" r="22.67"/><circle fill="#FFF" cx="134.35" cy="948.92" r="22.67"/><circle fill="#FFF" cx="1773.61" cy="948.92" r="22.67"/><circle fill="#FFF" cx="1196.57" cy="84.29" r="61.35"/></svg>