<svg xmlns="http://www.w3.org/2000/svg" viewBox="0 0 1080 1080" xml:space="preserve"><path fill="#FFD829" d="m957.05 611.48-265.94-1.43.3-54.76 265.94 1.43z"/><path fill="#FFD829" d="m691.4 561.68 1.2-63.01a44.39 44.39 0 0 0-88.75-1.17l-.44 83.7-.49 7.46-1.42 107.3-1.06 79.92c-.44 26.83 4.72 40.96 19.78 62.4 15.7 23.03 23.61 29.85 23.52 51.25l-.55 59.02 294.93 1.59.45-56c.7-27.38 18.53-37.46 28.74-46.39a125.16 125.16 0 0 0 50.37-78.98l56.78-215.3c.47-1.29 3.78-14.47 4.13-15.82 6.26-23.7-8.77-21.44-37.62-28.73-23.75-6-47.76 5.68-54 29.37l-2 7.92L980 566l-6.48 25.75-6.49 25.8-5.01 19.93-1.12 4.45c-.32 1.27-.45 3.28-1.53 4.18-1.15.96-2.24.17-2.5-1.1-.58-2.88-.23-10.77.03-24.56"/><path d="M938.13 952.14h-.02l-294.93-1.59a2 2 0 0 1-1.99-2.02l.55-59.02c.07-17.16-4.93-24.23-15.9-39.7-2.17-3.06-4.63-6.52-7.27-10.4-15.86-22.58-20.56-37.44-20.13-63.56l2.49-187.22v-.1l.48-7.4.18-33.86.26-49.78a46.48 46.48 0 0 1 47-45.78 46.45 46.45 0 0 1 45.76 46.98c-.03 1.4-1.2 62.41-1.2 63.03a2 2 0 0 1-2 1.96h-.04a2 2 0 0 1-1.97-2.04l1.2-63a42.44 42.44 0 0 0-42.38-42.93 42.44 42.44 0 0 0-42.37 41.82s0 .87-.26 49.76l-.18 33.91v.12l-.48 7.41-2.49 187.17c-.42 25.45 3.94 39.18 19.42 61.23 2.64 3.87 5.08 7.32 7.24 10.36 10.78 15.21 16.72 23.6 16.64 42.05l-.53 57.02 290.93 1.56.43-54c.63-24.56 14.65-35.86 24.88-44.12a151.06 151.06 0 0 0 4.7-3.88 123.82 123.82 0 0 0 47.64-69.03 123.35 123.35 0 0 0 1.96-8.83l56.78-215.3c.02-.07.03-.13.06-.18a563.3 563.3 0 0 0 4.07-15.64c1.8-6.83 1.79-11.4-.05-14.38-2.86-4.65-10.45-6.26-21.95-8.69-4.2-.9-8.98-1.9-14.18-3.22-23.62-5.97-45.8 6.04-51.58 27.95l-26.07 103.6-.17.83c-.27 1.37-.63 3.24-2.02 4.4a3.4 3.4 0 0 1-3.36.71 3.81 3.81 0 0 1-2.37-2.95c-.5-2.49-.39-7.64-.18-17l.17-7.99a2 2 0 0 1 2-1.96h.04a2 2 0 0 1 1.96 2.04l-.17 8c-.15 6.75-.26 11.68-.09 14.44l.1-.45c.06-.37.13-.73.21-1.04l26.08-103.64c6.36-24.11 30.61-37.35 56.44-30.83 5.11 1.3 9.85 2.3 14.02 3.19 12.5 2.64 20.77 4.4 24.52 10.5 2.49 4.04 2.65 9.43.52 17.5l-.5 1.95a432.7 432.7 0 0 1-3.65 13.93l-56.75 215.17c-.65 3.42-1.28 6.25-1.98 8.9a127.83 127.83 0 0 1-49.1 71.2 134.89 134.89 0 0 1-4.59 3.8c-10.16 8.2-22.81 18.4-23.39 41.07l-.44 55.97a2 2 0 0 1-2 1.99zm20.75-307.38zM605.85 497.53zm0 0z"/><path fill="#FFD829" d="M957.93 563.3a44.37 44.37 0 0 0-43.78-44.96c-24.5-.31-44.63 21.14-44.96 45.64l-.26 47.06c.07 24.5 19.96 46.17 44.47 46.12 24.5-.05 43.68-15.54 43.62-40.05l.91-53.81z"/><path d="M913.32 659.16c-25.09 0-46.32-22.01-46.39-48.12l.26-47.07c.35-25.95 21.55-47.63 46.43-47.63h.55a46.04 46.04 0 0 1 32.61 14.01 46.08 46.08 0 0 1 13.15 32.97v.01l-.91 53.82c.03 12.33-4.56 22.95-13.27 30.65-8.25 7.3-19.74 11.33-32.34 11.36h-.1zm.3-138.82c-22.73 0-42.11 19.88-42.43 43.67l-.26 47.04c.07 23.92 19.47 44.1 42.39 44.1h.08c11.63-.02 22.18-3.7 29.7-10.34 7.82-6.93 11.94-16.5 11.92-27.7l.91-53.85a42.1 42.1 0 0 0-12.01-30.12 42.07 42.07 0 0 0-30.3-12.8zm44.31 42.96h.01z"/><path fill="#FFD829" d="M869.18 562.82a44.37 44.37 0 0 0-43.78-44.95c-24.5-.32-44.63 21.13-44.96 45.63"/><path d="M780.44 565.5h-.03a2 2 0 0 1-1.97-2.02c.35-25.94 21.55-47.62 46.43-47.62h.55a46.04 46.04 0 0 1 32.61 14.02 46.07 46.07 0 0 1 13.15 32.97 2 2 0 0 1-2 1.97h-.02a2 2 0 0 1-1.98-2.02 42.1 42.1 0 0 0-12.01-30.13 42.07 42.07 0 0 0-30.3-12.8c-22.73 0-42.11 19.87-42.43 43.66a2 2 0 0 1-2 1.97z"/><path fill="#FFD829" d="M780.43 562.34a44.37 44.37 0 0 0-43.78-44.95c-24.5-.32-44.63 21.14-44.96 45.64"/><path d="M691.69 565.03h-.03a2 2 0 0 1-1.97-2.03c.35-25.94 21.56-47.61 46.44-47.61h.55a46.04 46.04 0 0 1 32.6 14.01 46.08 46.08 0 0 1 13.15 32.97 2 2 0 0 1-2 1.97h-.02a2 2 0 0 1-1.98-2.02 42.1 42.1 0 0 0-12.01-30.13 42.07 42.07 0 0 0-30.3-12.8c-22.73 0-42.11 19.88-42.43 43.66a2 2 0 0 1-2 1.98z"/><path d="M780.25 598.8h-.01a2 2 0 0 1-2-2l.22-38.94a2 2 0 0 1 2-1.98 2 2 0 0 1 2 2l-.21 38.94a2 2 0 0 1-2 1.98zm88.75.48h-.01a2 2 0 0 1-2-2l.22-38.94a2 2 0 0 1 2-1.99h.01a2 2 0 0 1 1.99 2.01L871 597.3a2 2 0 0 1-2 2z"/><ellipse transform="rotate(-89.69 913.46 584.46)" fill="#FFF" cx="913.45" cy="584.48" rx="9.78" ry="22.38"/><path d="M913.31 642.8h-.18c-18.48-.1-33.44-15.9-33.34-35.23.1-19.27 15.14-34.87 33.55-34.87h.17a32.6 32.6 0 0 1 23.69 10.43 35.64 35.64 0 0 1 9.65 24.8 35.64 35.64 0 0 1-9.92 24.7 32.6 32.6 0 0 1-23.62 10.17zm.03-66.1c-16.22 0-29.45 13.82-29.55 30.9-.09 17.11 13.08 31.11 29.37 31.2h.15c7.81 0 15.17-3.17 20.74-8.95a31.67 31.67 0 0 0 8.8-21.94c.04-8.31-3-16.14-8.56-22.04a28.63 28.63 0 0 0-20.8-9.17h-.15z"/><path fill="#FFD829" d="M869.18 562.82a44.37 44.37 0 0 0-43.78-44.95c-24.5-.32-44.63 21.13-44.96 45.63l-.26 47.06c.07 24.5 19.96 46.17 44.47 46.12 24.5-.05 43.68-15.54 43.62-40.05l.91-53.81z"/><path d="M824.57 658.68c-25.08 0-46.32-22.01-46.39-48.11l.26-47.08c.35-25.95 21.55-47.63 46.43-47.63h.55a46.04 46.04 0 0 1 32.61 14.02 46.07 46.07 0 0 1 13.15 32.97l-.91 53.82c.03 12.34-4.56 22.95-13.27 30.66-8.25 7.3-19.73 11.32-32.34 11.35h-.1zm.3-138.82c-22.73 0-42.11 19.88-42.43 43.67l-.25 47.04c.06 23.92 19.46 44.11 42.38 44.11h.08c11.63-.02 22.18-3.7 29.7-10.35 7.82-6.92 11.95-16.5 11.92-27.7l.91-53.84a42.1 42.1 0 0 0-12.01-30.12 42.07 42.07 0 0 0-30.3-12.8zm44.31 42.96h.01z"/><ellipse transform="rotate(-89.69 824.72 583.99)" fill="#FFF" cx="824.7" cy="584" rx="9.78" ry="22.38"/><path d="M824.56 642.32h-.17a32.6 32.6 0 0 1-23.7-10.43 35.64 35.64 0 0 1-9.64-24.8c.1-19.32 15.2-34.98 33.71-34.87 18.49.1 33.44 15.9 33.34 35.23-.1 19.27-15.13 34.87-33.54 34.87zm.03-66.1c-16.21 0-29.45 13.83-29.54 30.9-.05 8.3 3 16.13 8.56 22.03a28.63 28.63 0 0 0 20.8 9.17h.15c16.21 0 29.45-13.82 29.54-30.89.1-17.12-13.08-31.12-29.36-31.2h-.15zm31.51 31.22h.01z"/><path fill="#FFD829" d="M780.11 562.34a44.37 44.37 0 0 0-43.78-44.95c-24.5-.32-44.63 21.13-44.96 45.64l-.26 47.05c.07 24.5 19.96 46.17 44.47 46.12 24.5-.05 43.68-15.54 43.62-40.04l.91-53.82z"/><path d="M735.5 658.2c-25.09 0-46.32-22-46.39-48.11l.26-47.08c.35-25.95 21.55-47.63 46.43-47.63h.55a46.03 46.03 0 0 1 32.61 14.02 46.08 46.08 0 0 1 13.15 32.97l-.91 53.82c.03 12.34-4.56 22.95-13.27 30.66-8.25 7.3-19.74 11.33-32.34 11.35h-.1zm.3-138.82c-22.73 0-42.11 19.88-42.43 43.67l-.26 47.04c.07 23.92 19.47 44.11 42.39 44.11h.08c11.63-.02 22.18-3.7 29.7-10.35 7.82-6.92 11.95-16.5 11.92-27.7l.91-53.84a42.1 42.1 0 0 0-12.01-30.12 42.07 42.07 0 0 0-30.3-12.8zm44.31 42.96h.01z"/><ellipse transform="rotate(-89.69 735.97 583.51)" fill="#FFF" cx="735.95" cy="583.52" rx="9.78" ry="22.38"/><path d="M735.81 641.84h-.17a32.6 32.6 0 0 1-23.69-10.42 35.64 35.64 0 0 1-9.65-24.8 35.64 35.64 0 0 1 9.92-24.7 32.54 32.54 0 0 1 23.8-10.17c18.48.1 33.44 15.9 33.33 35.22-.1 19.27-15.13 34.87-33.54 34.87zm.03-66.1a28.63 28.63 0 0 0-20.74 8.95 31.67 31.67 0 0 0-8.8 21.95c-.05 8.3 3 16.13 8.56 22.03a28.63 28.63 0 0 0 20.8 9.17h.15c16.21 0 29.45-13.82 29.54-30.89.1-17.12-13.08-31.12-29.36-31.2h-.15zm31.51 31.23h.01z"/><path fill="#FFD829" d="M948.17 690.76s-139.3-25.1-146.42 139.91"/><path d="M801.76 832.67h-.1a2 2 0 0 1-1.9-2.08c2.31-53.7 18.76-93.13 48.87-117.22 42.95-34.35 99.33-24.68 99.9-24.58a2 2 0 0 1-.71 3.94c-.55-.1-55.22-9.44-96.72 23.79-29.15 23.34-45.08 61.77-47.35 114.24a2 2 0 0 1-2 1.91z"/><path fill="#FFF" d="m1065.32 579.18-4.93 18.7a29.4 29.4 0 0 1-16.94-15.26c6.43-3.89 14.22-4.9 21.87-3.44z"/><path d="M1061.09 601.27c-.18 0-.35-.02-.52-.07-17.82-4.78-28.06-23.45-23.3-42.5 4.79-19.24 22.22-29.83 41.42-25.21a2 2 0 0 1-.94 3.89c-16.97-4.1-32.37 5.28-36.6 22.28-4.22 16.92 4.76 33.47 20.45 37.68a2 2 0 0 1-.51 3.93zM939.83 998.31l-299.25-1.62.45-83.38 299.25 1.62z"/><circle fill="#FFF" cx="847.74" cy="956.16" r="13.72"/><circle fill="#FFF" cx="902.79" cy="956.45" r="13.72"/><circle fill="#FFF" cx="737.63" cy="955.56" r="13.72"/><circle fill="#FFF" cx="792.68" cy="955.86" r="13.72"/><circle fill="#FFF" cx="682.58" cy="955.27" r="13.72"/><path fill="#FFF" d="m940.11 942.78 83.71 15.76-83.86 11.83zm-299.24-1.61-83.88 14.86 83.73 12.74z"/><path fill="#FFD829" d="m454.95 195.77 96.77 247.72-51 19.93-96.78-247.72z"/><path fill="#FFD829" d="M514.2 458.26 604.18 422a44.39 44.39 0 0 1 32.94 82.43l-77.96 30.44-6.8 3.13-99.64 39.84-74.22 29.66c-24.88 10.05-39.92 10.3-65.34 3.94-27.13-6.4-27.75-14.69-47.7-6.92L157.42 327.93c25.3-10.47 17.68-24.33 22.35-37.06a125.15 125.15 0 0 1 55.64-75.36L401.48 95.88c1.03-.9 23.73-16.54 24.87-17.36 19.86-14.35 23.15.5 40.31 24.8 14.13 20.01 9.84 47.62-10.03 61.95a.37.37 0 0 0-.05.04l-8.93 6.68-70.13 50.44c-2.6 1.82-1.22 4.28 1.38 3.22l35.93-14.32"/><path d="M342.22 617.7c-8.84 0-18.19-1.48-29.56-4.32-9.36-2.2-15.58-4.63-20.57-6.57-9.27-3.6-13.5-5.26-25.9-.42a2 2 0 0 1-2.6-1.14L155.54 328.66a2 2 0 0 1 1.1-2.58c17.33-7.17 18.21-15.77 19.14-24.89.36-3.56.74-7.25 2.07-10.92a127.84 127.84 0 0 1 48.85-71.38c2.21-1.6 4.63-3.2 7.6-5.04L400.26 94.29c1.1-.88 7.9-5.61 19.87-13.9l5.04-3.5c6.76-4.87 11.85-6.66 16.51-5.79 7.05 1.32 11.65 8.4 18.6 19.12 2.33 3.58 4.96 7.64 8 11.95 14.74 20.87 10.04 49.88-10.46 64.7l-.05.04-8.93 6.68-68.7 49.4 33.94-13.52a2 2 0 1 1 1.48 3.71l-35.93 14.33c-2.44 1-4.36-.02-5.1-1.38-.8-1.46-.54-3.68 1.83-5.34l70.11-50.42 8.88-6.65.1-.07c18.76-13.53 23.05-40.08 9.57-59.17-3.1-4.38-5.75-8.47-8.1-12.08-6.39-9.85-10.61-16.37-15.97-17.37-3.45-.64-7.72.98-13.44 5.1l-5.1 3.55a1491.69 1491.69 0 0 0-19.77 13.82L236.57 217.13l-.12.08c-2.9 1.8-5.26 3.36-7.41 4.92a123.83 123.83 0 0 0-47.4 69.42c-1.19 3.23-1.52 6.54-1.88 10.05-.93 9.12-1.98 19.42-19.79 27.4L266.6 601.96c12.5-4.5 17.75-2.46 26.94 1.12 4.88 1.9 10.95 4.26 20.07 6.41 26.16 6.55 40.54 5.68 64.13-3.84l173.82-69.49 6.75-3.1.11-.05 40.4-15.77 37.61-14.7a42.42 42.42 0 0 0 23.55-55.06 42.44 42.44 0 0 0-55.07-23.62l-89.96 36.25a2 2 0 0 1-1.5-3.7l89.97-36.26A46.45 46.45 0 0 1 663.7 446a46.44 46.44 0 0 1-25.85 60.29l-37.58 14.67-40.32 15.74-6.76 3.12-.1.04-173.86 69.5c-13.94 5.63-25.01 8.33-37 8.33z"/><path fill="#FFF" d="M173.68 678.12 266 605.9 157.13 327.23l-118.47 9.4c-5.45.2-9.97.63-14.86 2.54a37.4 37.4 0 0 0-21.23 48.44c6.82 17.47 29.2 28.74 48.44 21.23a37.4 37.4 0 0 0 27.22 69.67A37.4 37.4 0 0 0 57 526.95c6.76 17.3 29.2 28.74 48.44 21.22a37.4 37.4 0 0 0 27.22 69.67 37.4 37.4 0 0 0 27.21 69.67c5.44-2.12 8.8-4.88 13.81-9.39z"/><path fill="#FFF" d="M146.31 692.07a39.46 39.46 0 0 1-36.74-25.06 39.14 39.14 0 0 1 .61-30.15 39.23 39.23 0 0 1 10.9-14.5 39.45 39.45 0 0 1-38.73-25.02 39.47 39.47 0 0 1 11.75-44.82 40.6 40.6 0 0 1-18.4-3.83c-9.57-4.42-17.07-12.08-20.56-21.01a39.14 39.14 0 0 1 .61-30.15 39.23 39.23 0 0 1 10.87-14.49 39.26 39.26 0 0 1-17.81-3.28c-9.64-4.22-17.06-11.95-20.89-21.75s-3.6-20.5.61-30.15a39.21 39.21 0 0 1 11.09-14.66 40.45 40.45 0 0 1-18.32-3.79c-9.57-4.39-17.08-12.07-20.6-21.07a39.44 39.44 0 0 1 22.37-51.03c4.94-1.93 9.42-2.44 15.5-2.68l118.4-9.39a2 2 0 0 1 2.03 1.27l108.86 278.67a2 2 0 0 1-.64 2.3l-92.25 72.18c-4.88 4.39-8.53 7.43-14.37 9.72a39.23 39.23 0 0 1-14.29 2.7zm-12.92-72.36c-8.8 3.43-15.75 10.1-19.54 18.76s-4 18.28-.55 27.09 10.1 15.74 18.76 19.54a35.18 35.18 0 0 0 27.09.55c5.24-2.05 8.48-4.77 13.2-9.02l.1-.08 91.14-71.3-107.78-275.9-117 9.27c-5.73.23-9.87.7-14.28 2.42a35.44 35.44 0 0 0-20.1 45.85c6.09 15.56 26.99 27.46 45.86 20.09a2 2 0 0 1 1.45 3.72 35.16 35.16 0 0 0-19.54 18.77 35.17 35.17 0 0 0-.55 27.08 35.16 35.16 0 0 0 18.77 19.55 35.17 35.17 0 0 0 27.08.55 2 2 0 0 1 1.46 3.72c-8.8 3.44-15.75 10.1-19.54 18.77s-4 18.28-.55 27.08c3.12 7.99 9.86 14.85 18.51 18.83 9.04 4.17 18.75 4.62 27.34 1.26a2 2 0 0 1 1.46 3.73 35.44 35.44 0 0 0-20.1 45.85 35.44 35.44 0 0 0 45.86 20.1 2 2 0 0 1 1.45 3.72z"/><path d="M481.12 377.42a2 2 0 0 1-.73-3.87l36.26-14.16a2 2 0 0 1 1.46 3.72l-36.27 14.17c-.24.1-.48.14-.72.14zm-32.3-82.67a2 2 0 0 1-.73-3.87l36.27-14.16a2 2 0 0 1 1.45 3.73l-36.26 14.16c-.24.1-.49.14-.73.14z"/><path fill="#FFD829" d="M412.71 212.2s34.6-14.14 35.92-14.66a44.37 44.37 0 0 1 57.67 24.74c9.09 22.76-3.71 49.24-26.46 58.34"/><path d="M479.84 282.62a2 2 0 0 1-.75-3.86c22.26-8.9 33.86-34.42 25.35-55.74a42.07 42.07 0 0 0-22.64-23.22 42.12 42.12 0 0 0-32.43-.4c-1.3.51-35.55 14.5-35.9 14.64a2 2 0 1 1-1.51-3.7l35.93-14.66a46.07 46.07 0 0 1 35.5.45 46.04 46.04 0 0 1 24.77 25.4c9.31 23.34-3.32 51.24-27.58 60.95-.24.1-.5.14-.74.14z"/><path fill="#FFD829" d="M480.92 280.2a44.37 44.37 0 0 1 57.67 24.74c9.1 22.77-3.7 49.25-26.46 58.35"/><path d="M512.13 365.29a2 2 0 0 1-.74-3.86c22.25-8.9 33.86-34.43 25.35-55.74a42.07 42.07 0 0 0-22.64-23.22 42.12 42.12 0 0 0-32.44-.4 2 2 0 0 1-1.48-3.72 46.09 46.09 0 0 1 35.5.44 46.04 46.04 0 0 1 24.77 25.41c9.31 23.33-3.31 51.24-27.58 60.95-.24.1-.5.14-.74.14z"/><path fill="#FFD829" d="M513.22 362.88a44.37 44.37 0 0 1 57.67 24.73c9.09 22.76-3.71 49.24-26.47 58.34"/><path d="M544.43 447.96a2 2 0 0 1-.75-3.86c22.25-8.9 33.86-34.43 25.35-55.75a42.07 42.07 0 0 0-22.64-23.21 42.12 42.12 0 0 0-32.43-.4 2 2 0 0 1-1.49-3.72 46.08 46.08 0 0 1 35.5.44 46.04 46.04 0 0 1 24.77 25.4c9.32 23.34-3.31 51.25-27.57 60.95a2 2 0 0 1-.74.15z"/><ellipse transform="rotate(-21.34 599.7 470.8)" fill="#FFF" cx="599.75" cy="470.83" rx="9.78" ry="22.38"/><path d="M620.43 496.1c-13.74 0-26.54-7.92-31.64-20.98-6.73-17.22 2.44-36.95 20.44-43.99 18-7.02 38.12 1.26 44.85 18.48a32.6 32.6 0 0 1-.96 25.86 35.64 35.64 0 0 1-19.49 18.12 36.25 36.25 0 0 1-13.2 2.5zm2.01-63.47c-3.9 0-7.88.72-11.75 2.23-15.95 6.23-24.1 23.64-18.18 38.8 5.93 15.17 23.72 22.44 39.67 16.2a31.65 31.65 0 0 0 17.32-16.08 28.63 28.63 0 0 0 .85-22.71c-4.48-11.48-15.77-18.44-27.9-18.44zM53.62 382.87a12.47 12.47 0 0 1-5.67-24.27c6.7-1.57 60.97-1.44 60.97-1.44s-48.6 24.15-55.3 25.71zm28.61 68.5a12.47 12.47 0 0 1-9.42-23.08c6.38-2.6 59.99-11.02 59.99-11.02s-44.2 31.5-50.57 34.1zm27.07 69.28a12.47 12.47 0 0 1-9.42-23.08c6.37-2.6 59.98-11.02 59.98-11.02s-44.19 31.5-50.56 34.1zm27.16 69.53a12.47 12.47 0 0 1-9.42-23.08c6.37-2.6 59.98-11.02 59.98-11.02s-44.19 31.5-50.56 34.1zm15.47 44.36a12.47 12.47 0 0 0 12.29 21.7c5.99-3.4 45.8-40.28 45.8-40.28s-52.1 15.19-58.09 18.58z"/><path fill="#FFF" d="m394.76 103.41-15.69 11.32a29.4 29.4 0 0 0 20.34 10.33c1.31-7.4-.54-15.03-4.65-21.65z"/><path d="M402.63 129.13c-10.38 0-20.32-4.6-26.71-13.38a2 2 0 0 1 3.23-2.35c9.56 13.13 28.24 15.58 42.51 5.57 14.35-10.06 17.57-27.79 7.66-42.16a2 2 0 1 1 3.3-2.27c11.21 16.26 7.57 36.33-8.66 47.71a37.2 37.2 0 0 1-21.33 6.88z"/><path fill="#FFF" d="M753.27 315.44a2 2 0 0 1-1.42-3.4l207.02-210.03a2 2 0 0 1 2.85 2.8L754.7 314.86a2 2 0 0 1-1.43.6zm-53.89-40.24a2 2 0 0 1-1.8-2.84l77.92-166.03a2 2 0 1 1 3.63 1.7l-77.94 166.03a2 2 0 0 1-1.8 1.15zm88.75 101.93a2 2 0 0 1-.92-3.78l170.3-87.98a2 2 0 1 1 1.84 3.56l-170.3 87.98a2 2 0 0 1-.92.22zM1021.15 8.1a36.67 36.67 0 0 1 .1 51.86 36.67 36.67 0 0 1 51.86-.1 36.67 36.67 0 0 1-.1-51.85 36.67 36.67 0 0 1-51.86.1zM631.14 265.57l-.18-.01a2 2 0 0 1-1.82-2.17l12.7-144.98a2 2 0 1 1 3.98.35l-12.7 144.98a2 2 0 0 1-1.98 1.83z"/><g fill="#FFF"><path d="M108.92 999.77a2 2 0 0 1-1.38-3.44l303.8-290.89a2 2 0 1 1 2.76 2.9L110.3 999.2a2 2 0 0 1-1.38.56zm258.84-32a2 2 0 0 1-1.85-2.77l93.23-222.57a2 2 0 1 1 3.69 1.55L369.6 966.54a2 2 0 0 1-1.84 1.23zM278.37 687.5a2 2 0 0 1-.5-3.95l111.08-28.8a2 2 0 1 1 1 3.87l-111.07 28.8c-.17.05-.34.07-.5.07zM5.8 1024.14a36.67 36.67 0 0 1 .1 51.86 36.67 36.67 0 0 1 51.85-.1 36.67 36.67 0 0 1-.1-51.86 36.67 36.67 0 0 1-51.85.1z"/><ellipse transform="rotate(-12.89 278.22 970)" cx="278.38" cy="970.17" rx="19.44" ry="23.7"/><ellipse transform="translate(-1.63 .14)" cx="73.62" cy="881.65" rx="27.96" ry="13.24"/><path d="M518.13 905.25a2 2 0 0 1-2-1.97l-2.02-147.57a2 2 0 0 1 1.98-2.03h.03a2 2 0 0 1 2 1.98l2.01 147.57a2 2 0 0 1-1.97 2.02h-.03z"/></g><path fill="#FFF" d="M794.01 436.79a2 2 0 0 1-.08-4l141.8-5.88a2 2 0 1 1 .17 4l-141.8 5.87h-.1z"/></svg>