<svg xmlns="http://www.w3.org/2000/svg" width="500" height="246" fill="none" xmlns:v="https://vecta.io/nano"><path fill="#18191c" d="M0 0h500v246H0z"/><path d="M82.6 41.647h6.221V44h-9.15V29.781h2.93v11.865z" fill="#ff8630"/><path d="M103.83 36.051h-8.144v-1.572h8.144v1.572zm0 4.053h-8.144v-1.562h8.144v1.563zM117.258 44h-1.817V31.959l-3.642 1.338v-1.641l5.176-1.943h.283V44zm14.209-6.065c0 2.116-.362 3.688-1.084 4.717s-1.852 1.543-3.389 1.543c-1.517 0-2.64-.501-3.369-1.504-.729-1.009-1.107-2.513-1.133-4.512v-2.412c0-2.09.362-3.643 1.084-4.658s1.856-1.524 3.399-1.524c1.53 0 2.656.492 3.379 1.475.722.977 1.093 2.487 1.113 4.531v2.344zm-1.807-2.471c0-1.53-.215-2.643-.644-3.34-.43-.703-1.11-1.055-2.041-1.055-.925 0-1.599.348-2.022 1.045s-.641 1.768-.654 3.213v2.891c0 1.536.221 2.672.664 3.408.449.729 1.126 1.094 2.031 1.094.892 0 1.553-.345 1.983-1.035.436-.69.664-1.777.683-3.262v-2.959z" fill="#fff"/><path d="M45 66a5 5 0 0 1 5-5h107a5 5 0 0 1 5 5v3H45v-3z" fill="#ff8630"/><rect x="25.5" y="69.5" width="449" height="107" rx="5.5" fill="#000"/><path d="M48.643 103.398h-.186v1.612h.186c1.172 0 2.165-.16 2.978-.479.82-.325 1.462-.748 1.924-1.269.768-.86 1.27-1.843 1.504-2.95a16.07 16.07 0 0 0 .352-3.32v-.654a8.66 8.66 0 0 0-.322-2.324c-.215-.781-.537-1.432-.967-1.953-.365-.443-.817-.797-1.357-1.064-.534-.273-1.165-.41-1.895-.41s-1.37.133-1.924.4c-.547.26-1.003.612-1.367 1.055a4.62 4.62 0 0 0-.84 1.572c-.182.592-.273 1.224-.273 1.895a6.4 6.4 0 0 0 .234 1.709 4.59 4.59 0 0 0 .732 1.523 3.86 3.86 0 0 0 1.26 1.094c.514.273 1.123.41 1.826.41a4.45 4.45 0 0 0 1.006-.107c.313-.078.596-.183.85-.313a3.65 3.65 0 0 0 .684-.449c.202-.176.381-.361.537-.557v.02c-.033.599-.127 1.178-.283 1.738s-.459 1.084-.908 1.572c-.371.398-.863.707-1.475.928-.605.215-1.364.322-2.275.322zm2.158-4.648c-.436 0-.817-.094-1.143-.283-.319-.195-.583-.449-.791-.762-.215-.312-.374-.667-.478-1.064-.104-.404-.156-.814-.156-1.23 0-.469.059-.905.176-1.309a3.18 3.18 0 0 1 .518-1.065c.221-.293.495-.524.82-.693s.7-.254 1.123-.254c.371 0 .719.091 1.045.273.332.182.625.443.879.781.247.345.443.765.586 1.26.15.495.225 1.058.225 1.689v.586c-.111.306-.264.586-.459.84-.189.247-.404.462-.645.645-.247.189-.518.335-.81.439-.287.098-.583.147-.889.147zm9.853 4.648h-.185v1.612h.185c1.172 0 2.165-.16 2.979-.479.82-.325 1.462-.748 1.924-1.269.768-.86 1.27-1.843 1.504-2.95a16.07 16.07 0 0 0 .352-3.32v-.654a8.66 8.66 0 0 0-.322-2.324c-.215-.781-.537-1.432-.967-1.953-.365-.443-.817-.797-1.357-1.064-.534-.273-1.165-.41-1.895-.41s-1.37.133-1.924.4c-.547.26-1.003.612-1.367 1.055a4.62 4.62 0 0 0-.84 1.572c-.182.592-.273 1.224-.273 1.895a6.4 6.4 0 0 0 .234 1.709 4.59 4.59 0 0 0 .732 1.523 3.86 3.86 0 0 0 1.26 1.094c.514.273 1.123.41 1.826.41a4.45 4.45 0 0 0 1.006-.107c.313-.078.596-.183.85-.313a3.65 3.65 0 0 0 .684-.449 4.31 4.31 0 0 0 .537-.557v.02a8.07 8.07 0 0 1-.283 1.738c-.156.56-.459 1.084-.908 1.572-.371.398-.863.707-1.475.928-.605.215-1.364.322-2.275.322zm2.158-4.648c-.436 0-.817-.094-1.143-.283-.319-.195-.583-.449-.791-.762-.215-.312-.374-.667-.479-1.064-.104-.404-.156-.814-.156-1.23 0-.469.059-.905.176-1.309a3.18 3.18 0 0 1 .518-1.065c.221-.293.495-.524.82-.693s.7-.254 1.123-.254c.371 0 .719.091 1.045.273.332.182.625.443.879.781.247.345.443.765.586 1.26.15.495.225 1.058.225 1.689v.586a3.09 3.09 0 0 1-.459.84c-.189.247-.404.462-.644.645-.247.189-.518.335-.811.439-.286.098-.583.147-.889.147zm9.853 4.648h-.185v1.612h.185c1.172 0 2.165-.16 2.978-.479.82-.325 1.462-.748 1.924-1.269.768-.86 1.27-1.843 1.504-2.95.234-1.113.352-2.22.352-3.32v-.654c0-.775-.107-1.55-.322-2.324-.215-.781-.537-1.432-.967-1.953-.365-.443-.817-.797-1.358-1.064-.534-.273-1.165-.41-1.894-.41s-1.37.133-1.924.4c-.547.26-1.003.612-1.367 1.055a4.62 4.62 0 0 0-.84 1.572c-.182.592-.273 1.224-.273 1.895a6.4 6.4 0 0 0 .234 1.709 4.59 4.59 0 0 0 .732 1.523 3.86 3.86 0 0 0 1.26 1.094c.514.273 1.123.41 1.826.41a4.45 4.45 0 0 0 1.006-.107c.313-.078.596-.183.85-.313a3.65 3.65 0 0 0 .684-.449 4.31 4.31 0 0 0 .537-.557v.02a8.07 8.07 0 0 1-.283 1.738c-.156.56-.459 1.084-.908 1.572-.371.398-.863.707-1.475.928-.606.215-1.364.322-2.275.322zm2.158-4.648c-.436 0-.817-.094-1.143-.283-.319-.195-.583-.449-.791-.762-.215-.312-.374-.667-.479-1.064-.104-.404-.156-.814-.156-1.23 0-.469.059-.905.176-1.309.117-.41.29-.765.518-1.065.221-.293.495-.524.82-.693s.7-.254 1.123-.254c.371 0 .719.091 1.045.273.332.182.625.443.879.781.247.345.443.765.586 1.26.15.495.225 1.058.225 1.689v.586c-.111.306-.264.586-.459.84a3.36 3.36 0 0 1-.645.645c-.247.189-.517.335-.81.439-.287.098-.583.147-.889.147zm9.853 4.648h-.186v1.612h.186c1.172 0 2.165-.16 2.978-.479.82-.325 1.462-.748 1.924-1.269.768-.86 1.269-1.843 1.504-2.95a16.07 16.07 0 0 0 .352-3.32v-.654c0-.775-.107-1.55-.322-2.324-.215-.781-.537-1.432-.967-1.953-.365-.443-.817-.797-1.357-1.064-.534-.273-1.165-.41-1.895-.41s-1.37.133-1.924.4c-.547.26-1.003.612-1.367 1.055a4.62 4.62 0 0 0-.84 1.572c-.182.592-.273 1.224-.273 1.895a6.4 6.4 0 0 0 .234 1.709c.156.566.4 1.074.732 1.523s.752.814 1.26 1.094c.514.273 1.123.41 1.826.41a4.45 4.45 0 0 0 1.006-.107c.313-.078.596-.183.85-.313a3.65 3.65 0 0 0 .684-.449c.202-.176.381-.361.537-.557v.02a8.07 8.07 0 0 1-.283 1.738c-.156.56-.459 1.084-.908 1.572-.371.398-.863.707-1.475.928-.605.215-1.364.322-2.275.322zm2.158-4.648c-.436 0-.817-.094-1.142-.283-.319-.195-.583-.449-.791-.762-.215-.312-.374-.667-.478-1.064-.104-.404-.156-.814-.156-1.23 0-.469.059-.905.176-1.309a3.18 3.18 0 0 1 .517-1.065c.221-.293.495-.524.82-.693s.7-.254 1.123-.254c.371 0 .719.091 1.045.273.332.182.625.443.879.781.247.345.443.765.586 1.26.15.495.225 1.058.225 1.689v.586c-.111.306-.264.586-.459.84a3.36 3.36 0 0 1-.644.645c-.247.189-.518.335-.811.439-.286.098-.583.147-.889.147zm9.854 4.648h-.186v1.612h.186c1.172 0 2.165-.16 2.979-.479.82-.325 1.462-.748 1.924-1.269.768-.86 1.269-1.843 1.504-2.95.234-1.113.351-2.22.351-3.32v-.654c0-.775-.107-1.55-.322-2.324-.215-.781-.537-1.432-.967-1.953a4.06 4.06 0 0 0-1.357-1.064c-.534-.273-1.166-.41-1.895-.41s-1.37.133-1.924.4c-.547.26-1.003.612-1.367 1.055a4.62 4.62 0 0 0-.84 1.572c-.182.592-.273 1.224-.273 1.895a6.4 6.4 0 0 0 .234 1.709 4.59 4.59 0 0 0 .733 1.523 3.86 3.86 0 0 0 1.26 1.094c.514.273 1.123.41 1.826.41.365 0 .7-.036 1.006-.107.313-.078.596-.183.849-.313s.482-.28.684-.449a4.28 4.28 0 0 0 .537-.557v.02a8.12 8.12 0 0 1-.283 1.738c-.157.56-.459 1.084-.909 1.572-.371.398-.862.707-1.474.928-.605.215-1.364.322-2.275.322zm2.158-4.648c-.436 0-.817-.094-1.143-.283-.319-.195-.583-.449-.791-.762a3.37 3.37 0 0 1-.479-1.064c-.104-.404-.156-.814-.156-1.23 0-.469.059-.905.176-1.309a3.18 3.18 0 0 1 .518-1.065c.221-.293.495-.524.82-.693s.7-.254 1.123-.254c.371 0 .719.091 1.045.273.332.182.625.443.879.781.247.345.443.765.586 1.26.15.495.224 1.058.224 1.689v.586a3.06 3.06 0 0 1-.459.84 3.33 3.33 0 0 1-.644.645 2.98 2.98 0 0 1-.811.439c-.286.098-.583.147-.889.147zm9.853 4.648h-.185v1.612h.185c1.172 0 2.165-.16 2.979-.479.82-.325 1.461-.748 1.924-1.269.768-.86 1.269-1.843 1.503-2.95a16.03 16.03 0 0 0 .352-3.32v-.654c0-.775-.107-1.55-.322-2.324-.215-.781-.537-1.432-.967-1.953-.365-.443-.817-.797-1.358-1.064-.533-.273-1.165-.41-1.894-.41s-1.37.133-1.924.4c-.547.26-1.002.612-1.367 1.055-.371.449-.651.973-.84 1.572-.182.592-.273 1.224-.273 1.895a6.41 6.41 0 0 0 .234 1.709c.156.566.4 1.074.732 1.523a3.86 3.86 0 0 0 1.26 1.094c.515.273 1.123.41 1.826.41.365 0 .7-.036 1.006-.107a3.95 3.95 0 0 0 .85-.313c.254-.13.482-.28.683-.449a4.36 4.36 0 0 0 .538-.557v.02a8.06 8.06 0 0 1-.284 1.738c-.156.56-.459 1.084-.908 1.572-.371.398-.862.707-1.474.928-.606.215-1.364.322-2.276.322zm2.158-4.648c-.436 0-.817-.094-1.142-.283a2.52 2.52 0 0 1-.791-.762c-.215-.312-.375-.667-.479-1.064a4.91 4.91 0 0 1-.156-1.23c0-.469.059-.905.176-1.309.117-.41.29-.765.517-1.065a2.41 2.41 0 0 1 .821-.693c.325-.169.7-.254 1.123-.254.371 0 .719.091 1.045.273.332.182.625.443.879.781a4.13 4.13 0 0 1 .586 1.26c.149.495.224 1.058.224 1.689v.586a3.11 3.11 0 0 1-.459.84c-.189.247-.404.462-.644.645a2.98 2.98 0 0 1-.811.439c-.286.098-.583.147-.889.147zm9.854 4.648h-.186v1.612h.186c1.172 0 2.165-.16 2.978-.479.821-.325 1.462-.748 1.924-1.269.768-.86 1.27-1.843 1.504-2.95a16.03 16.03 0 0 0 .352-3.32v-.654c0-.775-.108-1.55-.323-2.324-.214-.781-.537-1.432-.966-1.953-.365-.443-.817-.797-1.358-1.064-.534-.273-1.165-.41-1.894-.41s-1.371.133-1.924.4c-.547.26-1.003.612-1.367 1.055-.371.449-.651.973-.84 1.572-.182.592-.274 1.224-.274 1.895a6.41 6.41 0 0 0 .235 1.709c.156.566.4 1.074.732 1.523a3.86 3.86 0 0 0 1.26 1.094c.514.273 1.123.41 1.826.41.365 0 .7-.036 1.006-.107a3.97 3.97 0 0 0 .85-.313c.254-.13.481-.28.683-.449a4.28 4.28 0 0 0 .537-.557v.02a8.06 8.06 0 0 1-.283 1.738c-.156.56-.459 1.084-.908 1.572-.371.398-.863.707-1.475.928-.605.215-1.364.322-2.275.322zm2.158-4.648c-.436 0-.817-.094-1.142-.283a2.52 2.52 0 0 1-.791-.762c-.215-.312-.375-.667-.479-1.064a4.91 4.91 0 0 1-.156-1.23c0-.469.058-.905.176-1.309.117-.41.289-.765.517-1.065.221-.293.495-.524.82-.693a2.4 2.4 0 0 1 1.123-.254 2.1 2.1 0 0 1 1.045.273c.332.182.625.443.879.781.248.345.443.765.586 1.26.15.495.225 1.058.225 1.689v.586a3.11 3.11 0 0 1-.459.84c-.189.247-.404.462-.645.645-.247.189-.517.335-.81.439a2.74 2.74 0 0 1-.889.147zm9.854 4.648h-.186v1.612h.186c1.171 0 2.164-.16 2.978-.479.82-.325 1.462-.748 1.924-1.269.768-.86 1.269-1.843 1.504-2.95.234-1.113.351-2.22.351-3.32v-.654c0-.775-.107-1.55-.322-2.324-.215-.781-.537-1.432-.967-1.953a4.06 4.06 0 0 0-1.357-1.064c-.534-.273-1.165-.41-1.895-.41s-1.37.133-1.923.4a3.94 3.94 0 0 0-1.368 1.055c-.371.449-.651.973-.839 1.572-.183.592-.274 1.224-.274 1.895a6.41 6.41 0 0 0 .234 1.709c.157.566.401 1.074.733 1.523a3.86 3.86 0 0 0 1.26 1.094c.514.273 1.123.41 1.826.41.364 0 .7-.036 1.006-.107.312-.078.595-.183.849-.313s.482-.28.684-.449a4.28 4.28 0 0 0 .537-.557v.02a8.12 8.12 0 0 1-.283 1.738c-.156.56-.459 1.084-.908 1.572-.371.398-.863.707-1.475.928-.605.215-1.364.322-2.275.322zm2.158-4.648a2.24 2.24 0 0 1-1.143-.283 2.53 2.53 0 0 1-.791-.762c-.215-.312-.374-.667-.478-1.064-.104-.404-.157-.814-.157-1.23 0-.469.059-.905.176-1.309.117-.41.29-.765.518-1.065.221-.293.495-.524.82-.693a2.4 2.4 0 0 1 1.123-.254c.371 0 .72.091 1.045.273.332.182.625.443.879.781.247.345.443.765.586 1.26.15.495.225 1.058.225 1.689v.586a3.11 3.11 0 0 1-.459.84c-.189.247-.404.462-.645.645-.247.189-.518.335-.811.439a2.73 2.73 0 0 1-.888.147zm16.66-4.258c0-.618-.107-1.169-.322-1.65-.215-.488-.511-.898-.889-1.231s-.824-.586-1.338-.762a5.13 5.13 0 0 0-1.67-.264c-.605 0-1.165.088-1.679.264-.508.176-.944.43-1.309.762a3.43 3.43 0 0 0-.869 1.231c-.209.482-.313 1.032-.313 1.65 0 .352.049.687.147 1.006s.234.612.41.879c.176.273.391.521.644.742.254.215.538.4.85.557-.365.156-.693.352-.986.586s-.544.498-.752.791c-.209.299-.368.628-.479.986-.11.352-.166.726-.166 1.123 0 .651.117 1.227.352 1.729a3.55 3.55 0 0 0 .967 1.259c.403.345.879.606 1.425.782a5.9 5.9 0 0 0 1.788.263 5.73 5.73 0 0 0 1.757-.263c.547-.183 1.026-.446 1.436-.791a3.62 3.62 0 0 0 .957-1.26c.241-.501.361-1.074.361-1.719a3.51 3.51 0 0 0-.176-1.123c-.11-.352-.27-.677-.478-.977a3.69 3.69 0 0 0-.772-.791 4.24 4.24 0 0 0-.986-.586 4.36 4.36 0 0 0 .586-.352c.182-.13.348-.27.498-.42.313-.312.557-.674.733-1.084.175-.417.266-.863.273-1.338zm-1.484 6.631c0 .41-.069.778-.205 1.104-.131.319-.313.589-.547.81-.241.221-.528.391-.86.508s-.696.176-1.093.176a3.45 3.45 0 0 1-1.133-.176c-.332-.117-.616-.287-.85-.508s-.417-.491-.547-.81a3.11 3.11 0 0 1-.185-1.104c0-.397.062-.762.185-1.094a2.56 2.56 0 0 1 .547-.859c.234-.234.518-.417.85-.547s.703-.195 1.113-.195c.397 0 .762.065 1.094.195a2.54 2.54 0 0 1 .869.547c.241.241.426.527.557.859a2.86 2.86 0 0 1 .205 1.094zm-.332-6.602c0 .365-.059.697-.176.996s-.28.553-.489.762a2.23 2.23 0 0 1-.761.498c-.293.111-.612.166-.957.166-.352 0-.674-.055-.967-.166a2.15 2.15 0 0 1-.742-.498c-.215-.208-.381-.459-.498-.752-.111-.299-.166-.635-.166-1.006s.055-.706.166-1.006c.117-.306.28-.566.488-.781a2.05 2.05 0 0 1 .742-.488 2.51 2.51 0 0 1 .957-.176 2.46 2.46 0 0 1 .967.186c.293.117.547.283.762.498.208.221.371.482.488.781.124.299.186.628.186.986zm8.222 9.307c0 .378.117.7.352.967.241.26.595.391 1.064.391.462 0 .817-.131 1.065-.391a1.35 1.35 0 0 0 .371-.967c0-.39-.124-.719-.371-.986-.241-.274-.596-.41-1.065-.41-.475 0-.83.136-1.064.41a1.46 1.46 0 0 0-.352.986zm-109.306 25.57h-.186v1.612h.186c1.172 0 2.165-.16 2.978-.479.82-.325 1.462-.748 1.924-1.269.768-.86 1.27-1.843 1.504-2.95.234-1.113.352-2.22.352-3.32v-.654c0-.775-.107-1.55-.322-2.324-.215-.782-.537-1.433-.967-1.953-.365-.443-.817-.798-1.357-1.065-.534-.273-1.165-.41-1.895-.41s-1.37.133-1.924.4c-.547.261-1.003.612-1.367 1.055-.371.449-.651.973-.84 1.572-.182.593-.273 1.224-.273 1.895a6.4 6.4 0 0 0 .234 1.709 4.59 4.59 0 0 0 .732 1.523c.332.449.752.814 1.26 1.094.514.273 1.123.41 1.826.41a4.45 4.45 0 0 0 1.006-.107c.313-.078.596-.183.85-.313s.482-.28.684-.449c.202-.176.381-.361.537-.557v.02a8.08 8.08 0 0 1-.283 1.738c-.156.56-.459 1.084-.908 1.572-.371.398-.863.707-1.475.928-.605.215-1.364.322-2.275.322zm2.158-4.648c-.436 0-.817-.094-1.143-.283-.319-.196-.583-.449-.791-.762-.215-.312-.374-.667-.478-1.064a4.91 4.91 0 0 1-.156-1.231c0-.469.059-.905.176-1.308a3.18 3.18 0 0 1 .518-1.065c.221-.293.495-.524.82-.693a2.39 2.39 0 0 1 1.123-.254 2.11 2.11 0 0 1 1.045.273c.332.183.625.443.879.782.247.345.443.765.586 1.259.15.495.225 1.058.225 1.69v.586a3.1 3.1 0 0 1-.459.84c-.189.247-.404.462-.645.644-.247.189-.518.335-.81.44-.287.097-.583.146-.889.146zm9.853 4.648h-.185v1.612h.185c1.172 0 2.165-.16 2.979-.479.82-.325 1.462-.748 1.924-1.269.768-.86 1.27-1.843 1.504-2.95.234-1.113.352-2.22.352-3.32v-.654c0-.775-.107-1.55-.322-2.324-.215-.782-.537-1.433-.967-1.953-.365-.443-.817-.798-1.357-1.065-.534-.273-1.165-.41-1.895-.41s-1.37.133-1.924.4c-.547.261-1.003.612-1.367 1.055-.371.449-.651.973-.84 1.572-.182.593-.273 1.224-.273 1.895a6.4 6.4 0 0 0 .234 1.709 4.59 4.59 0 0 0 .732 1.523c.332.449.752.814 1.26 1.094.514.273 1.123.41 1.826.41a4.45 4.45 0 0 0 1.006-.107c.313-.078.596-.183.85-.313s.482-.28.684-.449a4.28 4.28 0 0 0 .537-.557v.02a8.07 8.07 0 0 1-.283 1.738c-.156.56-.459 1.084-.908 1.572-.371.398-.863.707-1.475.928-.605.215-1.364.322-2.275.322zm2.158-4.648c-.436 0-.817-.094-1.143-.283-.319-.196-.583-.449-.791-.762-.215-.312-.374-.667-.479-1.064a4.91 4.91 0 0 1-.156-1.231c0-.469.059-.905.176-1.308a3.18 3.18 0 0 1 .518-1.065c.221-.293.495-.524.82-.693s.7-.254 1.123-.254c.371 0 .719.091 1.045.273.332.183.625.443.879.782.247.345.443.765.586 1.259.15.495.225 1.058.225 1.69v.586c-.111.306-.264.586-.459.84-.189.247-.404.462-.644.644-.247.189-.518.335-.811.44-.286.097-.583.146-.889.146zm9.853 4.648h-.185v1.612h.185c1.172 0 2.165-.16 2.978-.479.82-.325 1.462-.748 1.924-1.269.768-.86 1.27-1.843 1.504-2.95.234-1.113.352-2.22.352-3.32v-.654c0-.775-.107-1.55-.322-2.324-.215-.782-.537-1.433-.967-1.953-.365-.443-.817-.798-1.358-1.065-.534-.273-1.165-.41-1.894-.41s-1.37.133-1.924.4c-.547.261-1.003.612-1.367 1.055-.371.449-.651.973-.84 1.572-.182.593-.273 1.224-.273 1.895a6.4 6.4 0 0 0 .234 1.709 4.59 4.59 0 0 0 .732 1.523c.332.449.752.814 1.26 1.094.514.273 1.123.41 1.826.41a4.45 4.45 0 0 0 1.006-.107c.313-.078.596-.183.85-.313s.482-.28.684-.449a4.28 4.28 0 0 0 .537-.557v.02a8.07 8.07 0 0 1-.283 1.738c-.156.56-.459 1.084-.908 1.572-.371.398-.863.707-1.475.928-.606.215-1.364.322-2.275.322zm2.158-4.648c-.436 0-.817-.094-1.143-.283a2.53 2.53 0 0 1-.791-.762c-.215-.312-.374-.667-.479-1.064-.104-.404-.156-.814-.156-1.231a4.67 4.67 0 0 1 .176-1.308c.117-.411.29-.765.518-1.065.221-.293.495-.524.82-.693s.7-.254 1.123-.254c.371 0 .719.091 1.045.273.332.183.625.443.879.782.247.345.443.765.586 1.259.15.495.225 1.058.225 1.69v.586a3.1 3.1 0 0 1-.459.84c-.189.247-.404.462-.645.644-.247.189-.517.335-.81.44-.287.097-.583.146-.889.146zm9.853 4.648h-.186v1.612h.186c1.172 0 2.165-.16 2.978-.479.82-.325 1.462-.748 1.924-1.269.768-.86 1.269-1.843 1.504-2.95.234-1.113.352-2.22.352-3.32v-.654c0-.775-.107-1.55-.322-2.324-.215-.782-.537-1.433-.967-1.953-.365-.443-.817-.798-1.357-1.065-.534-.273-1.165-.41-1.895-.41s-1.37.133-1.924.4c-.547.261-1.003.612-1.367 1.055-.371.449-.651.973-.84 1.572-.182.593-.273 1.224-.273 1.895 0 .573.078 1.142.234 1.709s.4 1.074.732 1.523.752.814 1.26 1.094c.514.273 1.123.41 1.826.41a4.45 4.45 0 0 0 1.006-.107c.313-.078.596-.183.85-.313s.482-.28.684-.449c.202-.176.381-.361.537-.557v.02a8.07 8.07 0 0 1-.283 1.738c-.156.56-.459 1.084-.908 1.572-.371.398-.863.707-1.475.928-.605.215-1.364.322-2.275.322zm2.158-4.648c-.436 0-.817-.094-1.142-.283-.319-.196-.583-.449-.791-.762-.215-.312-.374-.667-.478-1.064a4.91 4.91 0 0 1-.156-1.231c0-.469.059-.905.176-1.308a3.18 3.18 0 0 1 .517-1.065c.221-.293.495-.524.82-.693s.7-.254 1.123-.254c.371 0 .719.091 1.045.273.332.183.625.443.879.782.247.345.443.765.586 1.259.15.495.225 1.058.225 1.69v.586a3.1 3.1 0 0 1-.459.84 3.36 3.36 0 0 1-.644.644c-.247.189-.518.335-.811.44a2.75 2.75 0 0 1-.889.146zm9.854 4.648h-.186v1.612h.186c1.172 0 2.165-.16 2.979-.479.82-.325 1.462-.748 1.924-1.269.768-.86 1.269-1.843 1.504-2.95a16.1 16.1 0 0 0 .351-3.32v-.654a8.65 8.65 0 0 0-.322-2.324c-.215-.782-.537-1.433-.967-1.953a4.06 4.06 0 0 0-1.357-1.065c-.534-.273-1.166-.41-1.895-.41s-1.37.133-1.924.4c-.547.261-1.003.612-1.367 1.055-.371.449-.651.973-.84 1.572-.182.593-.273 1.224-.273 1.895 0 .573.078 1.142.234 1.709a4.59 4.59 0 0 0 .733 1.523c.332.449.752.814 1.26 1.094.514.273 1.123.41 1.826.41.365 0 .7-.036 1.006-.107.313-.078.596-.183.849-.313a3.66 3.66 0 0 0 .684-.449c.202-.176.381-.361.537-.557v.02a8.12 8.12 0 0 1-.283 1.738c-.157.56-.459 1.084-.909 1.572-.371.398-.862.707-1.474.928-.605.215-1.364.322-2.275.322zm2.158-4.648c-.436 0-.817-.094-1.143-.283-.319-.196-.583-.449-.791-.762-.215-.312-.374-.667-.479-1.064a4.91 4.91 0 0 1-.156-1.231c0-.469.059-.905.176-1.308a3.18 3.18 0 0 1 .518-1.065c.221-.293.495-.524.82-.693a2.39 2.39 0 0 1 1.123-.254c.371 0 .719.091 1.045.273.332.183.625.443.879.782a4.11 4.11 0 0 1 .586 1.259c.15.495.224 1.058.224 1.69v.586a3.06 3.06 0 0 1-.459.84 3.33 3.33 0 0 1-.644.644 3 3 0 0 1-.811.44 2.75 2.75 0 0 1-.889.146zm9.853 4.648h-.185v1.612h.185c1.172 0 2.165-.16 2.979-.479.82-.325 1.461-.748 1.924-1.269.768-.86 1.269-1.843 1.503-2.95.235-1.113.352-2.22.352-3.32v-.654a8.65 8.65 0 0 0-.322-2.324c-.215-.782-.537-1.433-.967-1.953-.365-.443-.817-.798-1.358-1.065-.533-.273-1.165-.41-1.894-.41s-1.37.133-1.924.4a3.94 3.94 0 0 0-1.367 1.055c-.371.449-.651.973-.84 1.572-.182.593-.273 1.224-.273 1.895 0 .573.078 1.142.234 1.709s.4 1.074.732 1.523.752.814 1.26 1.094c.515.273 1.123.41 1.826.41.365 0 .7-.036 1.006-.107.313-.078.596-.183.85-.313a3.62 3.62 0 0 0 .683-.449 4.33 4.33 0 0 0 .538-.557v.02a8.06 8.06 0 0 1-.284 1.738c-.156.56-.459 1.084-.908 1.572-.371.398-.862.707-1.474.928-.606.215-1.364.322-2.276.322zm2.158-4.648c-.436 0-.817-.094-1.142-.283-.319-.196-.583-.449-.791-.762a3.36 3.36 0 0 1-.479-1.064c-.104-.404-.156-.814-.156-1.231 0-.469.059-.905.176-1.308.117-.411.29-.765.517-1.065a2.41 2.41 0 0 1 .821-.693c.325-.17.7-.254 1.123-.254a2.11 2.11 0 0 1 1.045.273 2.77 2.77 0 0 1 .879.782c.247.345.442.765.586 1.259s.224 1.058.224 1.69v.586c-.111.306-.264.586-.459.84-.189.247-.404.462-.644.644-.248.189-.518.335-.811.44a2.75 2.75 0 0 1-.889.146zm9.854 4.648h-.186v1.612h.186c1.172 0 2.165-.16 2.978-.479.821-.325 1.462-.748 1.924-1.269.768-.86 1.27-1.843 1.504-2.95.235-1.113.352-2.22.352-3.32v-.654a8.65 8.65 0 0 0-.323-2.324c-.214-.782-.537-1.433-.966-1.953-.365-.443-.817-.798-1.358-1.065-.534-.273-1.165-.41-1.894-.41s-1.371.133-1.924.4a3.93 3.93 0 0 0-1.367 1.055c-.371.449-.651.973-.84 1.572-.182.593-.274 1.224-.274 1.895 0 .573.079 1.142.235 1.709s.4 1.074.732 1.523.752.814 1.26 1.094c.514.273 1.123.41 1.826.41.365 0 .7-.036 1.006-.107.312-.078.596-.183.85-.313a3.65 3.65 0 0 0 .683-.449c.202-.176.381-.361.537-.557v.02c-.032.599-.127 1.178-.283 1.738s-.459 1.084-.908 1.572c-.371.398-.863.707-1.475.928-.605.215-1.364.322-2.275.322zm2.158-4.648c-.436 0-.817-.094-1.142-.283-.319-.196-.583-.449-.791-.762a3.36 3.36 0 0 1-.479-1.064c-.104-.404-.156-.814-.156-1.231 0-.469.058-.905.176-1.308.117-.411.289-.765.517-1.065.221-.293.495-.524.82-.693s.7-.254 1.123-.254c.372 0 .72.091 1.045.273a2.77 2.77 0 0 1 .879.782c.248.345.443.765.586 1.259.15.495.225 1.058.225 1.69v.586c-.111.306-.264.586-.459.84a3.36 3.36 0 0 1-.645.644c-.247.189-.517.335-.81.44-.287.097-.583.146-.889.146zm9.854 4.648h-.186v1.612h.186c1.171 0 2.164-.16 2.978-.479.82-.325 1.462-.748 1.924-1.269.768-.86 1.269-1.843 1.504-2.95a16.1 16.1 0 0 0 .351-3.32v-.654a8.65 8.65 0 0 0-.322-2.324c-.215-.782-.537-1.433-.967-1.953a4.06 4.06 0 0 0-1.357-1.065c-.534-.273-1.165-.41-1.895-.41s-1.37.133-1.923.4c-.547.261-1.003.612-1.368 1.055-.371.449-.651.973-.839 1.572a6.39 6.39 0 0 0-.274 1.895c0 .573.078 1.142.234 1.709s.401 1.074.733 1.523.752.814 1.26 1.094c.514.273 1.123.41 1.826.41.364 0 .7-.036 1.006-.107.312-.078.595-.183.849-.313a3.66 3.66 0 0 0 .684-.449c.202-.176.381-.361.537-.557v.02a8.12 8.12 0 0 1-.283 1.738c-.156.56-.459 1.084-.908 1.572-.371.398-.863.707-1.475.928-.605.215-1.364.322-2.275.322zm2.158-4.648c-.436 0-.817-.094-1.143-.283-.319-.196-.582-.449-.791-.762-.215-.312-.374-.667-.478-1.064-.104-.404-.157-.814-.157-1.231 0-.469.059-.905.176-1.308.117-.411.29-.765.518-1.065.221-.293.495-.524.82-.693s.7-.254 1.123-.254c.371 0 .72.091 1.045.273a2.77 2.77 0 0 1 .879.782 4.11 4.11 0 0 1 .586 1.259c.15.495.225 1.058.225 1.69v.586c-.111.306-.264.586-.459.84a3.36 3.36 0 0 1-.645.644 2.98 2.98 0 0 1-.811.44c-.286.097-.582.146-.888.146zm9.853 4.648h-.185v1.612h.185c1.172 0 2.165-.16 2.979-.479.82-.325 1.461-.748 1.924-1.269.768-.86 1.269-1.843 1.504-2.95a16.1 16.1 0 0 0 .351-3.32v-.654a8.65 8.65 0 0 0-.322-2.324c-.215-.782-.537-1.433-.967-1.953a4.07 4.07 0 0 0-1.357-1.065c-.534-.273-1.166-.41-1.895-.41s-1.37.133-1.924.4a3.94 3.94 0 0 0-1.367 1.055c-.371.449-.651.973-.84 1.572-.182.593-.273 1.224-.273 1.895 0 .573.078 1.142.234 1.709s.401 1.074.733 1.523a3.87 3.87 0 0 0 1.259 1.094c.515.273 1.123.41 1.827.41.364 0 .699-.036 1.005-.107.313-.078.596-.183.85-.313a3.66 3.66 0 0 0 .684-.449c.201-.176.38-.361.537-.557v.02a8.12 8.12 0 0 1-.283 1.738c-.157.56-.459 1.084-.909 1.572-.371.398-.862.707-1.474.928-.606.215-1.364.322-2.276.322zm2.159-4.648c-.437 0-.818-.094-1.143-.283-.319-.196-.583-.449-.791-.762a3.38 3.38 0 0 1-.479-1.064c-.104-.404-.156-.814-.156-1.231 0-.469.059-.905.176-1.308.117-.411.29-.765.518-1.065.221-.293.494-.524.82-.693s.7-.254 1.123-.254a2.11 2.11 0 0 1 1.045.273 2.77 2.77 0 0 1 .879.782c.247.345.442.765.586 1.259s.224 1.058.224 1.69v.586a3.06 3.06 0 0 1-.459.84c-.189.247-.403.462-.644.644-.248.189-.518.335-.811.44-.286.097-.582.146-.888.146zm11.054 5.078c0 .378.117.7.352.967.241.26.595.391 1.064.391.462 0 .817-.131 1.065-.391a1.35 1.35 0 0 0 .371-.967c0-.39-.124-.719-.371-.986-.241-.274-.596-.41-1.065-.41-.475 0-.83.136-1.064.41a1.46 1.46 0 0 0-.352.986zM220.723 157v-14.219h-.147l-5.381 2.071v1.65l3.721-1.416V157h1.807zm9.297-1.172c0 .378.117.7.351.967.241.26.596.391 1.065.391.462 0 .817-.131 1.064-.391a1.35 1.35 0 0 0 .371-.967c0-.39-.124-.719-.371-.986-.241-.274-.596-.41-1.064-.41-.476 0-.831.136-1.065.41s-.351.602-.351.986z" fill="#abb2bf"/><path d="M187.539 105V90.781h-8.828V105h1.807V92.266h5.214V105h1.807zm4.15 4.268c.476 0 .896-.088 1.26-.264s.684-.394.957-.654.505-.544.694-.85c.195-.306.354-.596.478-.869l5.361-12.197h-2.021l-2.725 6.855-.498 1.24-.468-1.279-2.901-6.816h-2.021l4.55 10.068-.722 1.406-.274.498a3.71 3.71 0 0 1-.4.586 2.62 2.62 0 0 1-.557.488 1.17 1.17 0 0 1-.673.206 5.11 5.11 0 0 1-.381-.02l-.479-.029-.293 1.474.518.098c.228.039.426.059.595.059zM211.533 105V94.434h-1.806v4.58h-5.157v-4.58h-1.806V105h1.806v-4.512h5.157V105h1.806zm6.758-4.502l4.033 4.502h2.295l-4.883-5.478 4.532-5.088h-2.198l-3.935 4.473h-1.563v-4.473h-1.806V105h1.806v-4.502h1.719zm18.086-4.6v-1.465h-10.186v1.465h4.151V105h1.816v-9.102h4.219zm-55.576 29.399h2.803a5.87 5.87 0 0 0 1.806-.293 4.55 4.55 0 0 0 1.504-.82c.43-.358.768-.798 1.016-1.319.254-.527.381-1.133.381-1.816s-.127-1.289-.381-1.817c-.248-.527-.586-.97-1.016-1.328a4.55 4.55 0 0 0-1.504-.82 6.06 6.06 0 0 0-1.806-.303h-4.61V131h1.807v-5.703zm0-1.485v-5.546h2.803c.416.006.8.074 1.152.205.358.13.667.315.928.556.254.241.452.534.595.879.15.345.225.733.225 1.162a2.82 2.82 0 0 1-.225 1.153 2.41 2.41 0 0 1-.605.849c-.261.235-.567.417-.918.547-.352.124-.736.189-1.152.195h-2.803zm9.531 1.807v.215a6.55 6.55 0 0 0 .332 2.119c.221.651.54 1.218.957 1.699.41.482.912.86 1.504 1.133.599.274 1.273.41 2.021.41s1.41-.136 2.002-.41a4.42 4.42 0 0 0 1.514-1.133c.41-.481.726-1.048.947-1.699s.332-1.357.332-2.119v-.215c0-.762-.11-1.468-.332-2.119-.221-.658-.537-1.227-.947-1.709a4.41 4.41 0 0 0-1.523-1.133c-.593-.28-1.263-.42-2.012-.42-.742 0-1.41.14-2.002.42a4.34 4.34 0 0 0-1.504 1.133c-.417.482-.736 1.051-.957 1.709a6.55 6.55 0 0 0-.332 2.119zm1.807.215v-.215a5.78 5.78 0 0 1 .185-1.474c.124-.476.313-.892.567-1.25a2.74 2.74 0 0 1 .927-.85c.371-.215.808-.322 1.309-.322s.937.107 1.309.322a2.81 2.81 0 0 1 .947.85c.247.358.433.774.556 1.25.131.468.196.96.196 1.474v.215a5.89 5.89 0 0 1-.186 1.494 3.91 3.91 0 0 1-.556 1.24c-.254.358-.57.642-.948.85-.371.208-.804.312-1.299.312-.501 0-.94-.104-1.318-.312s-.69-.492-.937-.85c-.254-.358-.443-.771-.567-1.24-.123-.475-.185-.973-.185-1.494zm10.537 3.691h-.996l.175 4.58h1.622V131h7.373v3.105h1.63l.176-4.58h-1.357v-9.091h-6.807l-.156 3.964-.186 2.051c-.071.612-.169 1.14-.293 1.582s-.283.795-.478 1.055c-.189.254-.423.4-.703.439zm3.467-5.127l.087-2.294h3.262v7.421h-4.316c.156-.286.286-.612.39-.976.111-.365.202-.765.274-1.201l.176-1.387.127-1.563zm15.595-3.964l-5.166 7.802v-7.802h-1.797V131h1.797l5.166-7.793V131h1.807v-10.566h-1.807zm14.639 1.464v-1.464h-10.186v1.464h4.151V131h1.816v-9.102h4.219zm7.178 9.297c1.028 0 1.891-.205 2.588-.615.703-.417 1.23-.892 1.582-1.426l-1.104-.859a3.72 3.72 0 0 1-1.25 1.035c-.501.26-1.074.391-1.719.391-.488 0-.934-.091-1.338-.274a3.08 3.08 0 0 1-1.035-.752 3.43 3.43 0 0 1-.664-1.035c-.156-.39-.257-.843-.303-1.357v-.069h7.549v-.81c0-.736-.094-1.419-.283-2.051a4.64 4.64 0 0 0-.84-1.65c-.377-.463-.853-.824-1.426-1.084-.566-.267-1.23-.401-1.992-.401a4.49 4.49 0 0 0-1.777.371c-.573.248-1.084.603-1.533 1.065-.456.469-.821 1.041-1.094 1.719-.273.67-.41 1.432-.41 2.285v.41c0 .736.124 1.416.371 2.041a4.86 4.86 0 0 0 1.035 1.621c.443.456.973.811 1.592 1.064.625.254 1.308.381 2.051.381zm-.235-9.472c.463 0 .86.084 1.192.254.338.169.618.39.84.664s.393.599.517.976c.124.371.186.72.186 1.045v.088h-5.684c.072-.488.195-.918.371-1.289.182-.378.404-.697.664-.957a2.68 2.68 0 0 1 .879-.576c.326-.137.671-.205 1.035-.205zm16.25-1.289h-7.509l-.02 4.521-.02.928-.039.81-.127.879c-.052.261-.113.492-.185.694-.143.371-.339.651-.586.839-.241.183-.547.274-.918.274l-.4.01-.03 1.611h.528c.69 0 1.266-.133 1.728-.4a2.95 2.95 0 0 0 1.104-1.182c.169-.319.309-.687.42-1.104s.192-.872.244-1.367l.068-.947.029-1.045.01-3.027h3.887V131h1.816v-10.566zm5.059 4.004v-4.004h-1.807V131h5.039c.632 0 1.195-.085 1.69-.254s.911-.404 1.25-.703a2.9 2.9 0 0 0 .771-1.045c.176-.41.264-.85.264-1.318 0-.476-.091-.912-.274-1.309a2.81 2.81 0 0 0-.771-1.025c-.339-.287-.755-.508-1.25-.664-.488-.163-1.048-.244-1.68-.244h-3.232zm0 1.474h3.232c.378 0 .7.055.967.166.274.104.498.241.674.41a1.7 1.7 0 0 1 .391.596 1.81 1.81 0 0 1 .127.664 1.84 1.84 0 0 1-.127.674 1.43 1.43 0 0 1-.381.566c-.176.163-.401.293-.674.391s-.599.146-.977.146h-3.232v-3.613zm14.795 3.818c-.567 0-1.042-.11-1.426-.332a2.69 2.69 0 0 1-.908-.888c-.235-.358-.404-.762-.508-1.211-.098-.456-.146-.915-.146-1.377v-.41a6.36 6.36 0 0 1 .146-1.358c.104-.449.273-.856.508-1.22.234-.358.54-.648.918-.87.384-.227.856-.341 1.416-.341.364 0 .703.062 1.015.185.319.124.593.293.821.508s.407.466.537.752c.137.28.208.579.215.898h1.709a3.57 3.57 0 0 0-.323-1.504c-.214-.468-.511-.875-.888-1.22-.384-.339-.84-.606-1.367-.801-.521-.202-1.094-.303-1.719-.303-.801 0-1.501.144-2.1.43s-1.097.671-1.494 1.152c-.404.489-.706 1.052-.908 1.69a6.59 6.59 0 0 0-.303 2.002v.41c0 .703.101 1.374.303 2.012a4.89 4.89 0 0 0 .908 1.67c.397.488.895.875 1.494 1.162s1.299.429 2.1.429a4.63 4.63 0 0 0 1.611-.283c.514-.195.97-.456 1.367-.781a3.77 3.77 0 0 0 .948-1.113c.24-.43.364-.879.371-1.348h-1.709c-.007.293-.085.566-.235.82-.143.248-.335.462-.576.645a2.72 2.72 0 0 1-.83.439c-.306.104-.622.156-.947.156zm10.937-3.232l4.034 4.502h2.294l-4.882-5.479 4.531-5.087h-2.197l-3.936 4.472h-1.562v-4.472h-1.807V131h1.807v-4.502h1.718zm15.459-6.064l-5.166 7.802v-7.802h-1.797V131h1.797l5.166-7.793V131h1.807v-10.566h-1.807zm12.012 0l-5.166 7.802v-7.802h-1.797V131h1.797l5.166-7.793V131h1.807v-10.566h-1.807zm.225-4.307h-1.465c0 .195-.03.384-.088.566a1.29 1.29 0 0 1-.264.459c-.117.131-.267.235-.449.313-.176.078-.391.117-.645.117-.26 0-.481-.039-.664-.117s-.332-.182-.449-.313-.205-.283-.263-.459c-.059-.182-.088-.371-.088-.566h-1.465c0 .384.068.739.205 1.064a2.42 2.42 0 0 0 .596.821c.253.228.559.407.918.537.358.124.761.185 1.21.185.443 0 .844-.061 1.202-.185.358-.13.664-.309.918-.537s.449-.502.586-.821a2.73 2.73 0 0 0 .205-1.064zM343.662 131v-10.566h-8.769V131h1.806v-9.072h5.156V131h1.807zm4.18 4.268c.475 0 .895-.088 1.26-.264a3.75 3.75 0 0 0 .957-.654c.273-.261.504-.544.693-.85.195-.306.355-.596.478-.869l5.362-12.197h-2.022l-2.724 6.855-.498 1.24-.469-1.279-2.9-6.816h-2.022l4.551 10.068-.723 1.406-.273.498c-.111.202-.244.397-.401.586s-.348.352-.556.488c-.202.137-.427.206-.674.206-.091 0-.218-.007-.381-.02l-.479-.029-.292 1.474.517.098c.228.039.427.059.596.059zM367.686 131v-10.566h-1.807v4.58h-5.156v-4.58h-1.807V131h1.807v-4.512h5.156V131h1.807zm6.757-4.502l4.034 4.502h2.294l-4.882-5.479 4.531-5.087h-2.197l-3.936 4.472h-1.562v-4.472h-1.807V131h1.807v-4.502h1.718zm18.086-4.6v-1.464h-10.185v1.464h4.15V131h1.817v-9.102h4.218zm-132.334 38.588l.176-4.961h-1.24v-12.744h-6.338l-.313 5.713-.068 1.377-.107 1.201-.186 1.201-.224.997c-.163.572-.359 1.044-.586 1.416a2.67 2.67 0 0 1-.791.839h-.635l.263 4.981h1.534V157h6.884v3.486h1.631zm-5.888-11.992l.214-4.228h2.803v11.259h-4.375a7.02 7.02 0 0 0 .459-1.035 11.31 11.31 0 0 0 .362-1.26 13.54 13.54 0 0 0 .244-1.308l.175-1.494.069-.938.049-.996zm8.095 3.125v.215a6.55 6.55 0 0 0 .332 2.119c.222.651.541 1.218.957 1.699s.912.86 1.504 1.133c.599.274 1.273.41 2.022.41.742 0 1.409-.136 2.002-.41s1.097-.651 1.513-1.133c.411-.481.726-1.048.948-1.699a6.55 6.55 0 0 0 .332-2.119v-.215a6.55 6.55 0 0 0-.332-2.119c-.222-.658-.537-1.227-.948-1.709a4.4 4.4 0 0 0-1.523-1.133c-.592-.28-1.263-.42-2.012-.42-.742 0-1.409.14-2.002.42a4.35 4.35 0 0 0-1.504 1.133c-.416.482-.735 1.051-.957 1.709a6.55 6.55 0 0 0-.332 2.119zm1.807.215v-.215c0-.514.062-1.006.186-1.474.123-.476.312-.892.566-1.25a2.74 2.74 0 0 1 .928-.85c.371-.215.807-.322 1.308-.322s.938.107 1.309.322a2.81 2.81 0 0 1 .947.85c.248.358.433.774.557 1.25.13.468.195.96.195 1.474v.215c0 .521-.062 1.019-.185 1.494-.124.469-.31.882-.557 1.24a2.82 2.82 0 0 1-.947.85c-.371.208-.804.312-1.299.312-.502 0-.941-.104-1.319-.312s-.69-.492-.937-.85c-.254-.358-.443-.771-.566-1.24a5.89 5.89 0 0 1-.186-1.494zM283.604 157v-10.566h-1.807v5.224l-.596.127-.596.098-.839.088-.879.029c-.423 0-.798-.055-1.123-.166s-.593-.283-.801-.518c-.176-.201-.313-.452-.41-.752s-.147-.651-.147-1.054v-3.076H274.6v3.076c0 .67.101 1.256.302 1.758.202.494.492.905.869 1.23.372.332.821.579 1.348.742s1.117.244 1.768.244c.553 0 1.064-.029 1.533-.088.475-.058.934-.143 1.377-.253V157h1.807zm7.998.195c1.028 0 1.891-.205 2.587-.615.704-.417 1.231-.892 1.582-1.426l-1.103-.859a3.72 3.72 0 0 1-1.25 1.035c-.501.26-1.074.391-1.719.391-.488 0-.934-.091-1.338-.274a3.08 3.08 0 0 1-1.035-.752 3.43 3.43 0 0 1-.664-1.035c-.156-.39-.257-.843-.303-1.357v-.069h7.549v-.81c0-.736-.094-1.419-.283-2.051a4.64 4.64 0 0 0-.84-1.65c-.377-.463-.853-.824-1.426-1.084-.566-.267-1.23-.401-1.992-.401a4.49 4.49 0 0 0-1.777.371c-.573.248-1.084.603-1.533 1.065-.456.469-.821 1.041-1.094 1.719-.274.67-.41 1.432-.41 2.285v.41c0 .736.123 1.416.371 2.041a4.86 4.86 0 0 0 1.035 1.621c.443.456.973.811 1.592 1.064.625.254 1.308.381 2.051.381zm-.235-9.472c.462 0 .86.084 1.192.254a2.49 2.49 0 0 1 .839.664 3.03 3.03 0 0 1 .518.976c.124.371.186.72.186 1.045v.088h-5.684c.072-.488.195-.918.371-1.289.182-.378.404-.697.664-.957a2.68 2.68 0 0 1 .879-.576c.326-.137.671-.205 1.035-.205zm7.569 13.339h1.806v-5.078a3.98 3.98 0 0 0 .42.401 4.13 4.13 0 0 0 .479.322c.28.156.592.277.937.361.352.085.729.127 1.133.127.664 0 1.253-.136 1.768-.41.52-.273.957-.651 1.308-1.133s.619-1.048.801-1.699c.182-.657.273-1.364.273-2.119v-.205c0-.788-.091-1.511-.273-2.168-.182-.664-.449-1.234-.801-1.709a3.72 3.72 0 0 0-1.308-1.113c-.521-.267-1.12-.401-1.797-.401-.384 0-.746.043-1.084.127-.332.078-.635.196-.909.352a2.82 2.82 0 0 0-.546.381c-.17.143-.326.306-.469.488l-.088-1.152h-1.65v14.628zm7.119-9.433v.205c0 .514-.059 1.006-.176 1.475-.111.468-.283.882-.518 1.24a2.7 2.7 0 0 1-.898.859c-.365.209-.798.313-1.299.313-.312 0-.599-.039-.859-.117a2.74 2.74 0 0 1-.694-.323c-.182-.117-.345-.26-.488-.429a3.66 3.66 0 0 1-.381-.547v-5.088c.124-.222.267-.423.43-.606a2.36 2.36 0 0 1 .557-.459c.188-.123.4-.218.634-.283.241-.065.502-.098.782-.098.507 0 .944.105 1.308.313a2.72 2.72 0 0 1 .908.84c.235.358.407.771.518 1.24a5.95 5.95 0 0 1 .176 1.465zM319.639 157v-10.566h-1.807v4.58h-5.156v-4.58h-1.807V157h1.807v-4.512h5.156V157h1.807zm10.205-10.566l-5.166 7.802v-7.802h-1.797V157h1.797l5.166-7.793V157h1.806v-10.566h-1.806zm12.011 0l-5.166 7.802v-7.802h-1.796V157h1.796l5.166-7.793V157h1.807v-10.566h-1.807zm.225-4.307h-1.465c0 .195-.029.384-.088.566-.058.176-.146.329-.263.459s-.267.235-.45.313a1.58 1.58 0 0 1-.644.117c-.26 0-.482-.039-.664-.117s-.332-.182-.449-.313-.205-.283-.264-.459c-.059-.182-.088-.371-.088-.566h-1.465a2.73 2.73 0 0 0 .205 1.064c.144.319.342.593.596.821s.56.407.918.537c.358.124.762.185 1.211.185.443 0 .843-.061 1.201-.185.358-.13.664-.309.918-.537s.449-.502.586-.821c.137-.325.205-.68.205-1.064zM367.686 157v-10.566h-8.77V157h1.807v-9.072h5.156V157h1.807zm4.179 4.268c.475 0 .895-.088 1.26-.264s.684-.394.957-.654.505-.544.693-.85c.196-.306.355-.596.479-.869l5.361-12.197h-2.021l-2.725 6.855-.498 1.24-.469-1.279-2.9-6.816h-2.022l4.551 10.068-.722 1.406-.274.498a3.78 3.78 0 0 1-.4.586c-.163.189-.349.352-.557.488-.202.137-.426.206-.674.206-.091 0-.218-.007-.381-.02l-.478-.029-.293 1.474.518.098c.227.039.426.059.595.059zM391.709 157v-10.566h-1.807v4.58h-5.156v-4.58h-1.807V157h1.807v-4.512h5.156V157h1.807zm6.758-4.502L402.5 157h2.295l-4.883-5.479 4.531-5.087h-2.197l-3.935 4.472h-1.563v-4.472h-1.807V157h1.807v-4.502h1.719zm18.086-4.6v-1.464h-10.186v1.464h4.151V157h1.816v-9.102h4.219z" fill="#fff"/><rect x="25.5" y="69.5" width="449" height="107" rx="5.5" stroke="#242629"/><path d="M45 177h117v3a5 5 0 0 1-5 5H50a5 5 0 0 1-5-5v-3z" fill="#ff8630"/><path d="M162 177h52v3a5 5 0 0 1-5 5h-42a5 5 0 0 1-5-5v-3z" fill="#2e9aff"/><path d="M55.315 210.619c0-1.035.202-1.966.605-2.793.41-.827.977-1.465 1.699-1.914.729-.449 1.559-.674 2.49-.674 1.439 0 2.601.498 3.486 1.494.892.997 1.338 2.321 1.338 3.975v.127c0 1.029-.199 1.953-.596 2.773-.391.814-.954 1.449-1.69 1.905-.729.455-1.569.683-2.52.683-1.432 0-2.594-.498-3.486-1.494-.885-.996-1.328-2.314-1.328-3.955v-.127zm1.816.215c0 1.172.27 2.113.811 2.822a2.62 2.62 0 0 0 2.188 1.065c.918 0 1.647-.358 2.188-1.075s.81-1.731.81-3.027c0-1.159-.277-2.096-.83-2.812-.547-.723-1.276-1.084-2.187-1.084a2.59 2.59 0 0 0-2.158 1.064c-.547.71-.82 1.725-.82 3.047zm17.705-3.936h-3.545V216h-1.807v-9.102h-3.477v-1.464h8.828v1.464zm28.496 1.475h3.964v1.709h-3.964v4.492h-1.817v-4.492H97.55v-1.709h3.965v-4.15h1.817v4.15zm27.69 6.152l.625-.771c.703-.912 1.103-2.279 1.201-4.102l.166-4.218h6.807v9.091h1.357v4.58h-1.807V216h-7.373v3.105h-1.806l.01-4.58h.82zm2.139 0h4.853v-7.421h-3.252l-.107 2.519c-.111 2.103-.609 3.737-1.494 4.902zm9.541-3.906c0-1.035.201-1.966.605-2.793.41-.827.977-1.465 1.699-1.914.729-.449 1.559-.674 2.49-.674 1.439 0 2.601.498 3.487 1.494.892.997 1.338 2.321 1.338 3.975v.127c0 1.029-.199 1.953-.596 2.773-.391.814-.954 1.449-1.689 1.905s-1.569.683-2.52.683c-1.432 0-2.594-.498-3.486-1.494-.886-.996-1.328-2.314-1.328-3.955v-.127zm1.816.215c0 1.172.27 2.113.811 2.822s1.276 1.065 2.187 1.065c.918 0 1.647-.358 2.188-1.075s.81-1.731.81-3.027c0-1.159-.277-2.096-.83-2.812-.547-.723-1.276-1.084-2.188-1.084a2.59 2.59 0 0 0-2.158 1.064c-.547.71-.82 1.725-.82 3.047zm37.206-2.461h3.965v1.709h-3.965v4.492h-1.817v-4.492h-3.964v-1.709h3.964v-4.15h1.817v4.15z" fill="#fff"/><path d="M85.187 213.646h6.221V216h-9.15v-14.219h2.93v11.865zm78.392 0h6.221V216h-9.15v-14.219h2.929v11.865z" fill="#ff8630"/><path d="M121.12 216h-2.823v-10.879l-3.369 1.045v-2.295l5.889-2.109h.303V216zm80.286-5.352h1.611v2.276h-1.611V216h-2.822v-3.076h-5.83l-.127-1.778 5.927-9.365h2.852v8.867zm-5.967 0h3.145v-5.019l-.186.322-2.959 4.697z" fill="#2e9aff"/></svg>
