<svg xmlns="http://www.w3.org/2000/svg" fill="none" viewBox="0 0 210 210">
  <path fill="#F498AD" d="M0 0h210v210H0z"/>
  <path fill="#18191C" d="M147.225 175.106H64.88c-8.709 0-22.769-7.06-22.769-15.769v-31.77h120.883v31.77c0 8.709-7.06 15.769-15.769 15.769Z"/>
  <path fill="#FFD829" d="M165.698 96.414c-.798 0-1.583.05-2.358.137-7.224-24.954-30.24-43.2-57.52-43.2-27.282 0-50.299 18.246-57.523 43.2a21.036 21.036 0 0 0-2.355-.137c-11.483 0-20.792 9.307-20.792 20.791 0 11.482 9.309 20.789 20.792 20.789 1.75 0 3.447-.219 5.069-.626 9.283 21.047 30.328 35.737 54.809 35.737 24.478 0 45.523-14.69 54.807-35.737 1.624.407 3.322.626 5.071.626 11.482 0 20.79-9.307 20.79-20.789 0-11.484-9.308-20.791-20.79-20.791Z"/>
  <path fill="#18191C" d="M105.82 174.256c-23.858 0-45.527-13.926-55.471-35.558-1.45.297-2.929.447-4.407.447-12.099.001-21.942-9.842-21.942-21.94 0-12.099 9.843-21.941 21.942-21.941.495 0 1.004.019 1.521.056 7.801-25.435 31.66-43.118 58.356-43.118 26.695 0 50.552 17.683 58.353 43.118a21.317 21.317 0 0 1 1.525-.056c12.098 0 21.94 9.843 21.94 21.941 0 12.098-9.842 21.94-21.94 21.94a22 22 0 0 1-4.409-.447c-9.944 21.632-31.612 35.558-55.468 35.558Zm-54.148-38.239.392.888c9.391 21.293 30.492 35.051 53.756 35.051 23.263 0 44.363-13.758 53.755-35.051l.392-.888.94.236c1.567.393 3.179.592 4.792.592 10.83 0 19.64-8.811 19.64-19.64 0-10.83-8.811-19.641-19.64-19.641-.723 0-1.453.042-2.23.129l-.963.108-.27-.932C155.014 71.924 131.816 54.5 105.82 54.5c-25.997 0-49.197 17.423-56.419 42.368l-.27.932-.963-.108a19.984 19.984 0 0 0-2.226-.13c-10.831.002-19.642 8.812-19.642 19.642 0 10.829 8.812 19.64 19.642 19.64 1.612 0 3.223-.199 4.79-.592l.94-.236Z"/>
  <path fill="#18191C" d="M48.158 126.717c-.311 0-.62-.125-.847-.372l-12.75-13.863a1.15 1.15 0 1 1 1.693-1.557l12.75 13.863a1.15 1.15 0 0 1-.846 1.929Zm112.836 0a1.15 1.15 0 0 1-.846-1.929l12.75-13.863a1.15 1.15 0 1 1 1.693 1.557l-12.75 13.863a1.147 1.147 0 0 1-.847.372Zm-21.032-6.356a7.9 7.9 0 1 1-15.8.222 7.9 7.9 0 0 1 15.8-.222Z"/>
  <path fill="#18191C" d="M115.965 122.266a1.15 1.15 0 0 1-.956-1.788 20.282 20.282 0 0 1 16.885-9.053 20.283 20.283 0 0 1 16.564 8.584 1.15 1.15 0 0 1-1.878 1.329c-3.427-4.848-8.986-7.648-14.938-7.61a17.988 17.988 0 0 0-14.718 8.026 1.154 1.154 0 0 1-.959.512Zm-27.849-1.905a7.9 7.9 0 1 1-15.8.222 7.9 7.9 0 0 1 15.8-.222Z"/>
  <path fill="#18191C" d="M64.119 122.266a1.15 1.15 0 0 1-.956-1.788 20.28 20.28 0 0 1 16.885-9.053 20.28 20.28 0 0 1 16.563 8.584 1.15 1.15 0 0 1-1.878 1.329 17.996 17.996 0 0 0-14.938-7.61 17.988 17.988 0 0 0-14.718 8.026 1.151 1.151 0 0 1-.958.512Zm41.702 12.828a1.15 1.15 0 0 1-1.15-1.15v-14.467a1.15 1.15 0 0 1 2.3 0v14.467a1.15 1.15 0 0 1-1.15 1.15Zm35.115-19.463a1.15 1.15 0 0 1-.953-1.793l3.778-5.604a1.15 1.15 0 1 1 1.907 1.285l-3.778 5.604c-.222.33-.584.508-.954.508Zm4.939 2.559a1.149 1.149 0 0 1-.749-2.024l4.455-3.811a1.15 1.15 0 0 1 1.496 1.748l-4.455 3.811a1.145 1.145 0 0 1-.747.276Z"/>
  <path fill="#18191C" d="M66.444 118.19c-.265 0-.53-.091-.747-.276l-4.455-3.811a1.15 1.15 0 0 1 1.496-1.748l4.455 3.811a1.15 1.15 0 0 1-.749 2.024Zm4.107-2.559a1.15 1.15 0 0 1-.955-.508l-3.777-5.604a1.15 1.15 0 0 1 1.907-1.285l3.777 5.604a1.15 1.15 0 0 1-.952 1.793Zm67.617 27.442a1.621 1.621 0 1 0 0-3.243 1.621 1.621 0 0 0 0 3.243Z"/>
  <path fill="#fff" d="M168.744 146.812c-3.016.001-5.807-1.966-6.711-5.001-1.102-3.698 1.011-7.604 4.709-8.706a1.15 1.15 0 1 1 .658 2.205 4.706 4.706 0 0 0-3.163 5.845 4.703 4.703 0 0 0 5.845 3.161 4.703 4.703 0 0 0 3.162-5.844 1.151 1.151 0 0 1 .774-1.431 1.152 1.152 0 0 1 1.43.774 7.006 7.006 0 0 1-6.704 8.997Zm-126.965.001a7.001 7.001 0 0 1-6.704-8.997 1.15 1.15 0 0 1 2.204.657 4.704 4.704 0 0 0 3.162 5.844 4.705 4.705 0 0 0 5.845-3.161 4.706 4.706 0 0 0-3.163-5.845 1.15 1.15 0 0 1 .658-2.205c3.698 1.103 5.811 5.008 4.709 8.706-.903 3.033-3.695 5-6.711 5.001Z"/>
  <path fill="#18191C" d="M105.708 144.719c-9.219.001-16.064-2.09-16.433-2.387a1.163 1.163 0 0 1-.43-.989c.048-.634.605-1.125 1.234-1.059.172.013.332.063.473.143 1.886.731 15.913 4.149 30.041-.098a1.15 1.15 0 0 1 .662 2.204c-5.437 1.633-10.806 2.186-15.547 2.186Z"/>
  <path fill="#18191C" d="M139.005 50.744c-2.234 0-4.39.314-6.457.849C123.733 41.434 110.738 35 96.232 35c-8.958 0-17.028 2.449-23.917 6.705L38.79 61.353c2.454 3.739 4.857 5.71 6.822 6.744L33.612 81c4.295 3.399 8.96 3.536 13.065 2.435-12.842 18.389-1.06 60.528 5.353 79.734.57 1.708 3.082 1.267 3.056-.533-1.316-90.714 73.149-103.525 73.149-103.525l-7.604-3.891a59.849 59.849 0 0 1 30.027 18.334l.176-.001.002.202.211 25.428.111 7.338 13.063-9.301.003-.72.092-20.194c.002-14.218-11.093-25.562-25.311-25.562Z"/>
  <path fill="#fff" d="M128.235 59.11s-26.854-12.654-53.961 35.247c0 0 17.867-26.332 53.961-35.246Z"/>
</svg>
