<svg xmlns="http://www.w3.org/2000/svg" xmlns:xlink="http://www.w3.org/1999/xlink" viewBox="0 0 1920 1080" xml:space="preserve"><path fill="#FFF" d="M857.08 1080.07v-119.1c0-88.35 71.62-159.97 159.97-159.97h708.34c88.36 0 159.97 71.62 159.97 159.97v119.1H857.08z"/><path fill="#FF8630" d="M1450.18 854.14V643.47h-207.36v214.1h.09c.08 57.2 46.46 103.54 103.68 103.54 57.26 0 103.68-46.42 103.68-103.68 0-1.1-.05-2.2-.09-3.3z"/><path d="M1346.59 963.61c-57.64 0-104.74-46.22-106.15-103.54h-.03l-.09-2.5v-216.6h212.36l.03 213.87c.03.86.06 1.72.06 2.59 0 58.55-47.63 106.18-106.18 106.18zm-101.27-108.44.09 2.4c.07 55.71 45.46 101.04 101.18 101.04 55.79 0 101.18-45.39 101.18-101.18 0-.81-.03-1.61-.06-2.42l-.03-.87V645.97h-202.36v209.2z"/><defs><path id="a" d="M1594.52 455.17a86 86 0 0 0-9.65.5c-29.05-102.26-122.86-177.4-234.52-177.97-111.64-.56-206.22 73.64-236.3 175.61a85.1 85.1 0 1 0 10.27 167.11c37.56 86.32 123.38 146.88 223.57 147.38 100.19.51 186.61-59.18 225.04-145.12a85.09 85.09 0 0 0 106.25-82 85.09 85.09 0 0 0-84.66-85.51z"/></defs><defs><path id="b" d="M1349.13 770.3h-1.25a247.78 247.78 0 0 1-225-146.97 85.4 85.4 0 0 1-19.33 2.05c-48.3-.24-87.4-39.73-87.15-88.03.24-48.15 39.5-87.15 87.58-87.15h.45c2.54.02 5.17.15 7.83.4 15.1-49.6 46.24-94.13 87.85-125.54 43.23-32.64 94.71-49.86 148.97-49.86h1.29c54.73.27 106.51 18.04 149.75 51.37 41.29 31.83 71.98 76.66 86.58 126.42a87.01 87.01 0 0 1 69.64 25.64 87.02 87.02 0 0 1 25.34 62.07 87.01 87.01 0 0 1-25.96 61.8 87 87 0 0 1-62.06 25.35 88.07 88.07 0 0 1-19.3-2.25 247.8 247.8 0 0 1-225.23 144.7zm-223.35-152.8.84 1.93a242.78 242.78 0 0 0 222.51 145.88c95.6 0 182.45-56.27 221.52-143.65l.86-1.92 2.04.52a82.95 82.95 0 0 0 20.56 2.59c21.9 0 42.52-8.48 58.1-23.9a82.04 82.04 0 0 0 24.47-58.28 82.02 82.02 0 0 0-23.9-58.52 82.03 82.03 0 0 0-67.64-23.98l-2.1.22-.57-2.03c-14.07-49.53-44.4-94.22-85.4-125.83-42.36-32.66-93.1-50.06-146.73-50.33-53.68-.26-104.53 16.62-147.22 48.85-41.32 31.2-72.1 75.58-86.66 124.97l-.6 2.02-2.1-.24a84.4 84.4 0 0 0-9.36-.6h-.42c-45.35 0-82.35 36.78-82.58 82.18-.23 45.54 36.63 82.77 82.17 83 6.78.05 13.56-.77 20.16-2.38l2.05-.5z"/></defs><use xlink:href="#a" overflow="visible" fill="#FF8630"/><use xlink:href="#b" overflow="visible"/><path fill="#FF8630" d="m1060.99 515.07 51.9 56.98"/><path d="M1112.9 574.55a2.5 2.5 0 0 1-1.86-.81l-51.9-56.99a2.5 2.5 0 0 1 3.7-3.37l51.9 56.99a2.5 2.5 0 0 1-1.85 4.18z"/><path fill="#FF8630" d="m1627.15 517.91-52.48 56.47"/><path d="M1574.67 576.88a2.5 2.5 0 0 1-1.83-4.2l52.48-56.47a2.5 2.5 0 0 1 3.66 3.4l-52.48 56.47c-.49.53-1.16.8-1.83.8z"/><path fill="#FF8630" d="m1347.35 537.5-.24 47.07"/><path d="M1347.11 587.07h-.01a2.5 2.5 0 0 1-2.49-2.51l.24-47.08a2.5 2.5 0 1 1 5 .03l-.24 47.08a2.5 2.5 0 0 1-2.5 2.48zm67.05 84.35v-.52h-.01a67.73 67.73 0 0 0-67.39-67.35h-.39a67.73 67.73 0 0 0-67.66 66.65l-.02.01v.73h.01a67.73 67.73 0 0 0 67.38 67.34h.4a67.73 67.73 0 0 0 67.66-66.65h.02v-.22zM1254.6 541.83a32.44 32.44 0 1 1-64.88.34 32.44 32.44 0 0 1 64.88-.34z"/><path d="M1175.86 544.37a2.5 2.5 0 0 1-2.07-3.9 81.07 81.07 0 0 1 66.67-35.59h.41a81.1 81.1 0 0 1 66.62 34.89 2.5 2.5 0 1 1-4.11 2.85 76.1 76.1 0 0 0-62.5-32.74h-.4a76.07 76.07 0 0 0-62.55 33.4 2.5 2.5 0 0 1-2.07 1.09zm290.44-3.63a32.44 32.44 0 1 1-64.87.34 32.44 32.44 0 0 1 64.88-.34z"/><path d="M1387.57 543.27a2.5 2.5 0 0 1-2.07-3.9 81.08 81.08 0 0 1 66.67-35.58h.42a81.06 81.06 0 0 1 66.6 34.89 2.5 2.5 0 1 1-4.1 2.85 76.19 76.19 0 0 0-62.9-32.74 76.08 76.08 0 0 0-62.55 33.39 2.5 2.5 0 0 1-2.07 1.1z"/><path fill="#FF8630" d="m1480.6 959.69.17-.13c-11.38-9.45-23.99-17.83-37.52-23.81-16.42-7.25-29.83-16.81-41.9-28.03-10.04-9.33-19.15-19.8-28.27-31.09l-43.06-53.2-45.5-56.23s.1-.1.08-.12a30.37 30.37 0 1 1 48.9-35.92l43.74 54.05.2-.16-57.7-71.28s.12-.1.1-.12a30.38 30.38 0 1 1 48.9-35.92l55.92 69.1.2-.16-69.88-86.34s.12-.1.09-.11a30.38 30.38 0 1 1 48.9-35.93l68.12 84.16.2-.16-57.7-71.28s.11-.1.1-.13a30.36 30.36 0 1 1 48.9-35.9l71.78 88.68c.47-.07.95-.16 1.42-.22l-22.23-48s.13-.06.1-.1a30.39 30.39 0 0 1 55.09-25.64c.4.87.74 1.73 1.06 2.62L1624 732.8a85.7 85.7 0 0 1 8.06 63.62c-1.49 9.26-3 26.88 4.04 38.84l-.04.03"/><path d="M1480.6 962.19a2.5 2.5 0 0 1-2.23-1.37c-11.92-9.79-24.07-17.45-36.13-22.78-15.31-6.77-29.25-16.09-42.6-28.49-8.82-8.2-17.61-17.87-28.5-31.35l-88.57-109.43a2.46 2.46 0 0 1-.42-.76 32.64 32.64 0 0 1-6.64-23.48 32.65 32.65 0 0 1 12.01-22.1 32.65 32.65 0 0 1 24.14-7.15c2.56.27 5.06.83 7.44 1.66l-1.3-1.6c-.19-.24-.33-.5-.42-.77a32.92 32.92 0 0 1 5.38-45.6 32.9 32.9 0 0 1 31.6-5.44l-1.32-1.63a2.5 2.5 0 0 1-.42-.75 32.93 32.93 0 0 1 5.38-45.6 32.92 32.92 0 0 1 47.73 6.88 33.06 33.06 0 0 1-.13-8.1 32.64 32.64 0 0 1 12-22.1 32.68 32.68 0 0 1 24.14-7.15 32.66 32.66 0 0 1 23.86 14.4l62.59 77.34-15.9-34.33c-.12-.26-.2-.54-.22-.82a32.93 32.93 0 0 1 16.26-42.96 32.93 32.93 0 0 1 44.8 18.66l53.1 114.3c1.1 1.97 2.03 3.8 2.87 5.58a88.67 88.67 0 0 1 5.4 59.68c-1.44 9.09-2.84 25.86 3.75 37.06a2.5 2.5 0 0 1-.7 3.3 2.53 2.53 0 0 1-3.8-1.11c-7.2-12.58-5.7-30.52-4.16-40.16 0-.08.03-.16.05-.24a83.66 83.66 0 0 0-5.07-56.42 86.03 86.03 0 0 0-2.84-5.5l-53.19-114.49a27.91 27.91 0 0 0-38.1-16.13 27.92 27.92 0 0 0-13.5 37.05c.1.25.18.52.21.8l21.9 47.3a2.5 2.5 0 0 1-1.91 3.52l-.68.1c-.24.05-.49.09-.73.12a2.51 2.51 0 0 1-2.3-.9l-71.79-88.69-.13-.18a27.7 27.7 0 0 0-20.3-12.3 27.7 27.7 0 0 0-20.45 6.05 27.68 27.68 0 0 0-10.19 18.74 27.68 27.68 0 0 0 6.2 20.64c.1.17.2.36.27.56l57.2 70.67a2.5 2.5 0 0 1-.42 3.55l-.2.16a2.5 2.5 0 0 1-3.48-.4l-68.1-84.17-.15-.19a27.92 27.92 0 0 0-40.74-6.24 27.92 27.92 0 0 0-4.14 39.21c.18.22.32.47.41.73l69.39 85.73a2.5 2.5 0 0 1-.41 3.55l-.2.16a2.5 2.5 0 0 1-3.48-.4l-55.92-69.1-.14-.2a27.92 27.92 0 0 0-40.75-6.25 27.91 27.91 0 0 0-4.13 39.21c.17.22.31.47.4.74l57.2 70.67a2.5 2.5 0 0 1-.4 3.54l-.2.16a2.5 2.5 0 0 1-3.48-.4l-43.74-54.05-.14-.19a27.59 27.59 0 0 0-20.29-12.3 27.7 27.7 0 0 0-20.46 6.07 27.7 27.7 0 0 0-10.19 18.74 27.68 27.68 0 0 0 6.06 20.46c.18.22.32.47.41.73l88.07 108.82c10.74 13.28 19.38 22.79 28.02 30.83 13.12 12.18 26.22 20.95 41.22 27.57 12.75 5.64 25.57 13.77 38.1 24.17a2.5 2.5 0 0 1-.05 3.9l-.17.13c-.46.35-1 .53-1.54.53z"/><path d="M1885.36 1079.83 1636.1 831.34l-161.31 126.38 92.19 122.44zM1485.5 319.22l.15-.22c-89.7-63.73-192.89-35.02-192.89-35.02-153.9 41.46-178.7 171.51-178.7 171.51 163.11 32.08 273.3-38.4 329.02-89.53 44.48 97.48 140.52 91.97 140.52 91.97-20.6-76.28-74.94-122.1-98.1-138.71zM38.15 1080V960.9c0-88.36 71.62-159.97 159.97-159.97h708.34c88.35 0 159.97 71.61 159.97 159.97V1080H38.15z"/><path fill="#FF8630" d="M656.88 853.9V643.23H449.5v214.1h.1c.07 57.2 46.45 103.54 103.67 103.54 57.26 0 103.68-46.42 103.68-103.68 0-1.1-.05-2.2-.08-3.3z"/><path d="M553.28 963.37c-57.63 0-104.74-46.22-106.15-103.54h-.03l-.09-2.5v-216.6h212.37l.02 213.89c.03.85.06 1.7.06 2.57 0 58.55-47.63 106.18-106.18 106.18zM452.02 854.93l.08 2.4c.08 55.71 45.47 101.04 101.18 101.04 55.8 0 101.18-45.39 101.18-101.18 0-.8-.03-1.6-.05-2.4l-.03-.9V645.74H452v209.2z"/><path d="m487.08 738.02 1.22-.18 15.03 18-2.37 1.98-12.38-15.2-7.2 18.16-2.75-1.22 8.45-21.53zm22.17 35.1 1.02 6.85-22.23 3.31-.94.18a48.36 48.36 0 0 0-2.4.62c-.4.11-.74.22-1.04.33l.41 2.81-2.73.4-.83-5.62 3.17-.9-.03-.17a7.5 7.5 0 0 1-3.07-2.35 8.25 8.25 0 0 1-1.7-4.06c-.47-3.15.07-5.61 1.63-7.37 1.55-1.76 4.21-2.92 7.96-3.48 1.77-.26 3.37-.24 4.8.06 1.44.3 2.68.85 3.73 1.65a9.47 9.47 0 0 1 2.58 3.06 12.99 12.99 0 0 1 1.37 4.3 27.01 27.01 0 0 1 .26 2.87c0 .4-.02.78-.07 1.15-.04.36-.1.76-.14 1.2l5.97-.9-.53-3.52 2.81-.42zm-27.48 1.53a5.9 5.9 0 0 0 1.93 3.83 7.2 7.2 0 0 0 4.27 1.42l9.75-1.45c.33-.68.53-1.42.61-2.21.09-.8.03-1.83-.15-3.08-.34-2.24-1.25-3.9-2.74-5-1.5-1.08-3.64-1.42-6.45-1-1.15.17-2.2.43-3.16.8-.97.35-1.78.83-2.43 1.42a5.22 5.22 0 0 0-1.44 2.2c-.3.88-.36 1.9-.19 3.07zm.29 17.76 2.81-.42 1.09 7.31 15.38-2.29-1.09-7.3 2.82-.43 1.58 10.64-18.2 2.7 1.07 7.15-2.82.42-2.64-17.78zm27.89 2.12a2.8 2.8 0 0 1 2.07.47 2.5 2.5 0 0 1 1.1 1.8 2.8 2.8 0 0 1-.51 2.17 2.7 2.7 0 0 1-1.84 1.1 2.37 2.37 0 0 1-1.97-.54 2.92 2.92 0 0 1-1.06-1.92c-.11-.79.04-1.47.47-2.05a2.55 2.55 0 0 1 1.74-1.03zm-19.41 26.9.07.46 17.91 4.06.55 3.66-22.34-5.74-.54-3.66 19.67-12.16.58 3.86-15.9 9.52zm-.39 15.55 2.28-1.97 12.18 15.29 7.4-18.16 2.86 1.2-9.14 21.6-1.22.18-14.36-18.14zM555.77 856l-1.1-.53-2.22-23.35 3.08-.3 1.6 19.55 16.22-10.9 1.58 2.56L555.77 856zm1.57-41.48 3.03-6.22 20.2 9.84a55.6 55.6 0 0 0 3.2 1.23c.4.13.75.24 1.06.32l1.25-2.56 2.48 1.21-2.5 5.12-3.12-1.05-.08.15a7.49 7.49 0 0 1 1.21 3.68 8.25 8.25 0 0 1-.89 4.3c-1.4 2.88-3.24 4.6-5.52 5.17-2.28.57-5.12.02-8.53-1.64-1.6-.78-2.92-1.7-3.93-2.76s-1.72-2.22-2.14-3.47a9.44 9.44 0 0 1-.4-3.99c.15-1.4.59-2.84 1.3-4.32a25.83 25.83 0 0 1 1.42-2.51c.23-.33.46-.63.7-.9l.8-.92-5.42-2.64-1.57 3.21-2.55-1.25zm23.52 14.28c.76-1.55.95-2.96.58-4.24a7.18 7.18 0 0 0-2.72-3.59l-8.86-4.31c-.65.37-1.24.86-1.76 1.47s-1.05 1.49-1.61 2.63c-.99 2.03-1.18 3.92-.56 5.66.62 1.75 2.2 3.24 4.74 4.48 1.05.51 2.07.89 3.06 1.14s1.94.31 2.82.2a5.2 5.2 0 0 0 2.42-1.02 6.47 6.47 0 0 0 1.9-2.42zm-11.99-32.33a2.8 2.8 0 0 1-1.44-1.55c-.27-.7-.24-1.4.11-2.12a2.8 2.8 0 0 1 1.65-1.49 2.7 2.7 0 0 1 2.14.12c.66.32 1.1.85 1.31 1.57s.15 1.45-.21 2.18a2.65 2.65 0 0 1-1.54 1.43c-.68.23-1.36.19-2.02-.14zm21.8 17.53-2.55-1.25 3.23-6.64-13.97-6.82-3.24 6.65-2.56-1.25 4.7-9.66 16.54 8.06 3.17-6.5 2.56 1.25-7.88 16.16zm9.43-28.74.2-.41-12.49-13.48 1.62-3.33 15.17 17.37-1.61 3.32-23.1-1.1 1.7-3.5 18.5 1.13zm9.1-12.6-2.99.34-1.4-19.5-16.38 10.79-1.66-2.6 19.75-12.65 1.1.54 1.59 23.08z" fill="#FFF"/><defs><path id="c" d="M796.48 453c-3.26.03-6.47.26-9.64.65-30.59-101.82-125.53-175.54-237.17-174.42-111.64 1.12-205.1 76.73-233.63 179.14a85.1 85.1 0 1 0 12.78 166.94c38.86 85.75 125.58 145 225.77 144 100.18-1 185.7-61.99 222.82-148.5a85.09 85.09 0 0 0 105-83.59A85.1 85.1 0 0 0 796.49 453z"/></defs><defs><path id="d" d="M552.12 771.83a247.76 247.76 0 0 1-224.7-143.59 88.08 88.08 0 0 1-19.3 2.34 87.03 87.03 0 0 1-62.19-25.03 87.02 87.02 0 0 1-26.27-61.67 87.02 87.02 0 0 1 25.03-62.2 87.02 87.02 0 0 1 69.51-25.98c14.36-49.83 44.82-94.82 85.96-126.86 43.06-33.54 94.75-51.56 149.48-52.11 54.73-.53 106.78 16.43 150.5 49.1 41.78 31.21 73.14 75.58 88.49 125.1a87.05 87.05 0 0 1 70.02 24.6 87 87 0 0 1 26.27 61.67 87.02 87.02 0 0 1-25.03 62.2 87.02 87.02 0 0 1-61.68 26.27c-6.5.06-13-.6-19.33-1.96a247.79 247.79 0 0 1-226.76 148.12zM330.23 622.36l.87 1.92a242.78 242.78 0 0 0 223.46 142.53A242.79 242.79 0 0 0 775.1 619.83l.84-1.94 2.05.5a82.58 82.58 0 0 0 20.16 2.28 82.05 82.05 0 0 0 58.16-24.78 82.05 82.05 0 0 0 23.6-58.64 82.05 82.05 0 0 0-24.77-58.15 81.9 81.9 0 0 0-58.64-23.6c-3.04.03-6.1.23-9.37.63l-2.09.26-.6-2.02c-14.82-49.32-45.82-93.54-87.3-124.53a240.1 240.1 0 0 0-147.46-48.12c-53.62.54-104.27 18.2-146.46 51.07-40.85 31.81-70.96 76.65-84.78 126.26l-.56 2.03-2.1-.22a82.06 82.06 0 0 0-67.53 24.32 82.04 82.04 0 0 0-23.6 58.65 82.05 82.05 0 0 0 24.77 58.15 82.17 82.17 0 0 0 58.65 23.6 83 83 0 0 0 20.11-2.68l2.04-.53z"/></defs><use xlink:href="#c" overflow="visible" fill="#FF8630"/><use xlink:href="#d" overflow="visible"/><path fill="#FF8630" d="m263.91 520.92 52.75 56.2"/><path d="M316.66 579.62a2.5 2.5 0 0 1-1.82-.79l-52.76-56.2a2.5 2.5 0 1 1 3.65-3.42l52.76 56.2a2.5 2.5 0 0 1-1.83 4.21z"/><path fill="#FF8630" d="m830.05 515.24-51.62 57.25"/><path d="M778.43 575a2.5 2.5 0 0 1-1.86-4.17l51.62-57.26a2.5 2.5 0 0 1 3.71 3.35l-51.61 57.24a2.5 2.5 0 0 1-1.86.83zm-124.53 5.46A80.82 80.82 0 0 1 587.73 546a2.5 2.5 0 0 1 4.09-2.87 75.83 75.83 0 0 0 62.84 32.32 75.82 75.82 0 0 0 62.18-33.57 2.5 2.5 0 0 1 4.15 2.79 80.82 80.82 0 0 1-67.1 35.79zm-211.02 2.12c-26.32 0-51-12.84-66.17-34.46a2.5 2.5 0 1 1 4.1-2.87 75.83 75.83 0 0 0 62.84 32.32A75.83 75.83 0 0 0 505.83 544a2.5 2.5 0 0 1 4.15 2.8 80.83 80.83 0 0 1-67.1 35.79z"/><path fill="#FF8630" d="m550.57 539.04.47 47.07"/><path d="M551.04 588.61a2.5 2.5 0 0 1-2.5-2.47l-.47-47.08a2.5 2.5 0 0 1 2.48-2.52h.02a2.5 2.5 0 0 1 2.5 2.47l.47 47.08a2.5 2.5 0 0 1-2.47 2.52h-.03zM427 616.29v.37c.9 68.5 57.04 123.4 125.58 122.72 68.55-.7 123.57-56.72 123.09-125.21v-.38"/><path fill="#FFF" d="M551.64 615.03a27.2 27.2 0 1 1-54.4.55l54.4-.55z"/><path fill="#FFF" d="M605.42 614.5a27.2 27.2 0 0 1-54.39.54l54.4-.54zm6.62-153.12.46-1.14 23.13-3.87.51 3.06-19.38 2.98 12.03 15.4-2.45 1.76-14.3-18.2zm41.49-1.38 6.43 2.59-8.4 20.85a45.17 45.17 0 0 0-1.25 4.35l2.65 1.07-1.03 2.56-5.28-2.13.82-3.2-.15-.05a7.51 7.51 0 0 1-3.58 1.46 8.28 8.28 0 0 1-4.36-.58c-2.96-1.2-4.8-2.9-5.54-5.14-.73-2.23-.39-5.1 1.03-8.63a13.6 13.6 0 0 1 2.48-4.1 9.11 9.11 0 0 1 3.3-2.39 9.43 9.43 0 0 1 3.96-.68 13 13 0 0 1 4.4 1 26.47 26.47 0 0 1 2.6 1.23c.35.2.67.41.96.64l.96.72 2.25-5.6-3.31-1.33 1.06-2.64zm-12.57 24.49c1.6.64 3.02.73 4.27.27a7.18 7.18 0 0 0 3.38-2.96l3.68-9.15a6.54 6.54 0 0 0-1.6-1.65 12.8 12.8 0 0 0-2.73-1.42c-2.1-.85-4-.9-5.69-.16-1.7.74-3.07 2.42-4.13 5.05a15.68 15.68 0 0 0-.92 3.13 7.35 7.35 0 0 0 .01 2.82c.18.87.58 1.65 1.18 2.35.6.7 1.45 1.27 2.55 1.72zm15.46 8.73 1.06-2.64 6.86 2.76 5.8-14.42-6.86-2.77 1.07-2.64 9.97 4.02-6.87 17.06 6.7 2.7-1.06 2.64-16.67-6.7zm15.93-22.99c.29-.7.77-1.22 1.45-1.54a2.54 2.54 0 0 1 2.12-.04c.77.3 1.3.81 1.6 1.53.31.72.32 1.44.04 2.15a2.44 2.44 0 0 1-1.47 1.42 2.9 2.9 0 0 1-2.2-.06 2.64 2.64 0 0 1-1.52-1.44 2.54 2.54 0 0 1-.02-2.02zm13.39 30.35.43.17 12.57-13.4 3.43 1.38-16.25 16.37-3.43-1.38-.54-23.12 3.62 1.46.17 18.52zm13.22 8.21-.55-2.97 19.35-2.78-11.92-15.57 2.49-1.85 14 18.8-.46 1.15-22.9 3.22zM650.9 376.46l.8-.94 23.14 3.81-.5 3.06-19.3-3.44 6.4 18.46-2.88.88-7.66-21.83zm39.71 12.09 5.25 4.52-14.67 17.03c-.17.19-.37.44-.6.75a50.16 50.16 0 0 0-1.41 2.03l-.58.93 2.16 1.86-1.8 2.1-4.32-3.72 1.81-2.76-.13-.11a7.5 7.5 0 0 1-3.86.23 8.26 8.26 0 0 1-3.93-1.96c-2.42-2.08-3.62-4.3-3.59-6.65.03-2.35 1.28-4.96 3.76-7.84a13.6 13.6 0 0 1 3.67-3.09 9.12 9.12 0 0 1 3.9-1.18 9.46 9.46 0 0 1 3.96.63c1.32.5 2.6 1.3 3.84 2.36a16.75 16.75 0 0 1 2.07 2c.27.31.5.62.7.92l.68 1 3.94-4.57-2.7-2.33 1.85-2.15zm-19.8 19.1a5.84 5.84 0 0 0 3.95 1.65 7.19 7.19 0 0 0 4.16-1.72l6.44-7.46a6.56 6.56 0 0 0-.98-2.08c-.46-.66-1.17-1.4-2.13-2.23-1.71-1.48-3.5-2.14-5.34-1.99-1.84.15-3.69 1.3-5.53 3.45a15.8 15.8 0 0 0-1.89 2.67c-.5.9-.8 1.79-.9 2.67-.1.88.01 1.75.35 2.6.35.86.97 1.67 1.87 2.45zm11.81 13.27 1.86-2.16 5.6 4.83 10.15-11.78-5.6-4.83 1.85-2.15 8.15 7.01-12.01 13.94 5.47 4.71-1.86 2.16-13.61-11.73zm22.5-16.62a2.9 2.9 0 0 1 1.87-1c.75-.08 1.42.14 2.02.65.63.54.97 1.2 1.03 1.98a2.7 2.7 0 0 1-.67 2.03c-.48.56-1.1.85-1.85.88a2.93 2.93 0 0 1-2.06-.77 2.64 2.64 0 0 1-.98-1.85c-.05-.72.16-1.36.64-1.92zm2.88 33.05.35.3 16.22-8.63 2.8 2.42-20.66 10.24-2.8-2.41 6.95-22.06 2.96 2.55-5.82 17.59zm9.86 12.03.44-2.98 19.2 3.62-6.24-18.6 2.94-.94 7.19 22.32-.8.93-22.73-4.35zm-308.02-98.67.46-1.14 23.12-3.86.52 3.05-19.39 2.98 12.03 15.4-2.44 1.76-14.3-18.19zm41.49-1.37 6.42 2.58-8.39 20.86a44 44 0 0 0-1.24 4.35l2.64 1.06-1.03 2.56-5.28-2.12.82-3.2-.15-.06a7.5 7.5 0 0 1-3.59 1.47c-1.4.21-2.86.01-4.35-.59-2.96-1.19-4.81-2.9-5.54-5.13-.73-2.24-.39-5.11 1.03-8.64a13.51 13.51 0 0 1 2.47-4.1 9.14 9.14 0 0 1 3.31-2.38 9.45 9.45 0 0 1 3.95-.68 13 13 0 0 1 4.4.99 25.35 25.35 0 0 1 2.61 1.23c.34.2.66.41.95.64l.97.73 2.25-5.6-3.31-1.33 1.06-2.64zm-12.58 24.48a5.9 5.9 0 0 0 4.27.28 7.18 7.18 0 0 0 3.39-2.97l3.68-9.15a6.54 6.54 0 0 0-1.6-1.65c-.65-.47-1.56-.94-2.74-1.42-2.1-.84-3.99-.9-5.68-.16-1.7.74-3.08 2.42-4.13 5.05a15.68 15.68 0 0 0-.92 3.14 7.37 7.37 0 0 0 0 2.82c.19.86.58 1.65 1.18 2.35.6.7 1.45 1.27 2.55 1.71zm15.46 8.74 1.06-2.64 6.86 2.76 5.8-14.43-6.85-2.76 1.06-2.64 9.97 4.01-6.86 17.07 6.7 2.7-1.06 2.64-16.68-6.71zm15.94-23c.28-.7.77-1.22 1.44-1.54a2.54 2.54 0 0 1 2.13-.04c.76.3 1.3.82 1.6 1.54.3.72.32 1.43.03 2.14a2.44 2.44 0 0 1-1.47 1.43 3 3 0 0 1-2.2-.06 2.64 2.64 0 0 1-1.52-1.44 2.54 2.54 0 0 1-.01-2.02zm13.39 30.36.43.17 12.56-13.4 3.43 1.38-16.24 16.36-3.43-1.38-.55-23.12 3.63 1.46.17 18.53zm13.22 8.2-.55-2.96 19.34-2.78-11.91-15.58 2.48-1.84 14 18.8-.45 1.14-22.91 3.22zm132.87-125.49a79.96 79.96 0 1 1-159.92 0c0-44.16 79.96-186.9 79.96-186.9s79.96 142.74 79.96 186.9zM446.19 494.45l-.49-1.13 13.62-19.08 2.52 1.79-11.6 15.81 19.4 2.39-.48 2.97-22.98-2.75zm28.36-30.31 6.37-2.71 8.81 20.67a23.65 23.65 0 0 0 .99 1.94 35.4 35.4 0 0 0 1.2 2.03l2.63-1.12 1.08 2.54-5.24 2.23-1.67-2.84-.16.06a7.5 7.5 0 0 1-1.5 3.58 8.24 8.24 0 0 1-3.49 2.66c-2.94 1.25-5.45 1.35-7.55.29s-3.88-3.34-5.37-6.83c-.7-1.65-1.09-3.2-1.16-4.66-.07-1.47.15-2.8.66-4.02a9.44 9.44 0 0 1 2.31-3.27c1.04-.97 2.3-1.77 3.81-2.41a26.92 26.92 0 0 1 2.72-.98c.39-.1.76-.18 1.12-.22l1.2-.17-2.36-5.55-3.29 1.4-1.11-2.62zm8.42 26.2a5.85 5.85 0 0 0 3.21-2.82c.56-1.2.66-2.7.3-4.49l-3.87-9.07a6.55 6.55 0 0 0-2.3-.03c-.78.12-1.76.43-2.93.93-2.08.88-3.46 2.18-4.14 3.9-.68 1.73-.46 3.89.65 6.5.46 1.06.98 2.02 1.57 2.86.59.84 1.25 1.5 2 1.99s1.57.76 2.49.83 1.93-.13 3.02-.6zm17.11-4.74-1.12-2.63 6.8-2.9-6.1-14.3-6.8 2.9-1.11-2.62 9.89-4.21 7.21 16.92 6.65-2.83 1.11 2.62-16.53 7.04zm-5-27.53c-.3-.7-.31-1.41-.06-2.12.25-.7.74-1.22 1.47-1.53a2.8 2.8 0 0 1 2.22-.04c.73.29 1.24.78 1.54 1.49.29.68.28 1.36-.03 2.04-.3.7-.84 1.2-1.6 1.52a2.7 2.7 0 0 1-2.1.06 2.54 2.54 0 0 1-1.43-1.42zm30.94 11.99.42-.18-.59-18.36 3.4-1.45.08 23.06-3.4 1.44-16.73-15.96 3.6-1.53 13.22 12.98zm15.15-3.55-2.49-1.7 11.72-15.65-19.44-2.59.45-3.06 23.2 3.4.48 1.13-13.92 18.47zm157.05 196.35-1.1-.54-2.22-23.34 3.08-.3 1.6 19.55 16.22-10.91 1.58 2.56-19.16 12.98zm1.57-41.48 3.03-6.23 20.2 9.85c.24.1.53.24.89.38a41.84 41.84 0 0 0 3.37 1.17l1.25-2.56 2.48 1.21-2.5 5.11-3.12-1.04-.07.15c.69 1.03 1.1 2.26 1.2 3.68s-.18 2.85-.89 4.3c-1.4 2.87-3.23 4.6-5.51 5.16-2.28.57-5.13.03-8.54-1.64-1.6-.78-2.91-1.7-3.93-2.76a9.14 9.14 0 0 1-2.13-3.47 9.45 9.45 0 0 1-.4-3.98c.15-1.4.58-2.85 1.3-4.32a26.47 26.47 0 0 1 1.41-2.52c.23-.33.46-.63.7-.9l.8-.91-5.42-2.64-1.56 3.2-2.56-1.24zm23.53 14.27c.75-1.54.94-2.96.57-4.24a7.17 7.17 0 0 0-2.71-3.58l-8.87-4.32c-.65.37-1.24.86-1.75 1.48-.52.6-1.06 1.48-1.62 2.63-.98 2.03-1.17 3.91-.56 5.66.62 1.74 2.2 3.23 4.75 4.48 1.04.5 2.06.88 3.06 1.13s1.93.32 2.81.2c.88-.13 1.69-.46 2.43-1.01s1.37-1.36 1.89-2.43zm-12-32.32a2.81 2.81 0 0 1-1.44-1.55c-.27-.7-.23-1.41.11-2.12a2.8 2.8 0 0 1 1.65-1.5 2.7 2.7 0 0 1 2.14.13c.66.32 1.1.84 1.32 1.56.21.72.14 1.45-.22 2.19a2.64 2.64 0 0 1-1.54 1.42 2.5 2.5 0 0 1-2.02-.13zm21.8 17.52-2.55-1.24 3.24-6.65-13.98-6.81-3.24 6.65-2.56-1.25 4.7-9.67 16.55 8.06 3.16-6.49 2.56 1.25-7.87 16.15zm9.42-28.73.2-.41-12.47-13.49 1.62-3.32 15.17 17.36-1.62 3.33-23.1-1.1 1.71-3.51 18.5 1.14zm9.12-12.61-3 .34-1.4-19.5-16.37 10.8-1.67-2.62 19.75-12.64 1.1.54 1.6 23.09zM423.22 689.68l-1.03.67-21.16-10.1 1.33-2.8 17.59 8.68-1.02-19.51 3.02-.04 1.27 23.1zM388.45 667l-3.78-5.8 18.84-12.27a42 42 0 0 0 3.52-2.85l-1.55-2.38 2.31-1.5 3.1 4.76-2.5 2.15.09.14c1.24-.07 2.5.22 3.78.85a8.25 8.25 0 0 1 3.23 2.98c1.74 2.68 2.27 5.14 1.59 7.39-.69 2.24-2.62 4.4-5.8 6.47-1.5.98-2.96 1.63-4.39 1.95a9.12 9.12 0 0 1-4.07.05 9.45 9.45 0 0 1-3.62-1.71 13 13 0 0 1-3.04-3.34 26.13 26.13 0 0 1-1.43-2.5 8.8 8.8 0 0 1-.42-1.07l-.36-1.15-5.06 3.29 1.95 3-2.39 1.54zm24.35-12.83a5.84 5.84 0 0 0-3.34-2.68 7.19 7.19 0 0 0-4.47.49l-8.26 5.38c-.02.75.1 1.5.36 2.26.25.76.73 1.68 1.42 2.74 1.23 1.9 2.76 3.02 4.57 3.4 1.81.36 3.9-.23 6.28-1.77.97-.64 1.82-1.31 2.55-2.04a7.37 7.37 0 0 0 1.61-2.31c.35-.82.48-1.69.39-2.6a6.48 6.48 0 0 0-1.11-2.87zm-33.9-6.34a2.8 2.8 0 0 1-2.06.43 2.54 2.54 0 0 1-1.77-1.18 2.8 2.8 0 0 1-.43-2.18 2.7 2.7 0 0 1 1.2-1.77 2.5 2.5 0 0 1 2.03-.33c.72.19 1.31.62 1.76 1.31.43.67.58 1.35.43 2.06a2.6 2.6 0 0 1-1.15 1.66zm26.25-9.69-2.38 1.55-4.04-6.2-13.03 8.5 4.03 6.19-2.38 1.55-5.87-9 15.42-10.04-3.94-6.06 2.38-1.55 9.81 15.06zm-19.8-22.85-.25-.39-17.98 3.77-2.02-3.1 22.7-4.08 2.02 3.1L377 633.84l-2.14-3.28 10.5-15.27zm-6.12-14.31-1.25 2.75-17.44-8.83.83 19.6-3.1.08-.68-23.44 1.03-.67 20.61 10.51zm187.79-181.86-.83-.91 6.48-22.53 2.98.85-5.67 18.77 19.09-4.21.53 2.96-22.58 5.07zm16.64-38.03 5.1-4.69 15.2 16.56.68.68a42.64 42.64 0 0 0 2.72 2.32l2.1-1.92 1.86 2.03-4.19 3.85-2.53-2.12-.12.11a7.5 7.5 0 0 1-.22 3.87 8.25 8.25 0 0 1-2.4 3.68c-2.36 2.16-4.7 3.09-7.03 2.78-2.33-.3-4.78-1.85-7.35-4.65a13.6 13.6 0 0 1-2.64-4 9.13 9.13 0 0 1-.72-4.01c.08-1.32.44-2.6 1.1-3.86a12.95 12.95 0 0 1 2.78-3.54 25.55 25.55 0 0 1 2.24-1.82c.33-.23.66-.43.98-.6.33-.16.7-.34 1.08-.55l-4.08-4.44-2.63 2.41-1.93-2.1zm16.67 21.9a5.83 5.83 0 0 0 2.1-3.74 7.18 7.18 0 0 0-1.22-4.33l-6.67-7.26c-.74.1-1.47.35-2.18.73-.7.38-1.52 1-2.46 1.85-1.66 1.53-2.53 3.22-2.6 5.07-.06 1.84.87 3.81 2.78 5.9.79.85 1.6 1.58 2.43 2.18.84.6 1.69 1 2.55 1.2.86.22 1.74.2 2.63-.04a6.43 6.43 0 0 0 2.64-1.56zm.67-34.48a2.81 2.81 0 0 1-.77-1.97c0-.75.3-1.4.88-1.93a2.8 2.8 0 0 1 2.08-.79 2.7 2.7 0 0 1 1.95.9c.5.54.71 1.19.65 1.94s-.4 1.4-1 1.95a2.6 2.6 0 0 1-1.96.76 2.54 2.54 0 0 1-1.83-.86zm13.88 24.3-1.92-2.1 5.44-5-10.51-11.46-5.45 5-1.93-2.1 7.92-7.27 12.45 13.56 5.32-4.89 1.92 2.1-13.24 12.15zm19.28-23.3.34-.31-6.68-17.12 2.73-2.5 7.76 21.72-2.72 2.5-21.1-9.48 2.88-2.64 16.8 7.83zm13.1-8.39-2.9-.79 5.82-18.65-19.19 4.04-.6-3.04 23.01-4.53.83.9-6.97 22.07zM506.9 914.68l-.27-1.2 16.82-16.34 2.16 2.22-14.25 13.48 18.66 5.82-1.01 2.84-22.11-6.82zm33.34-24.73 6.75-1.53 4.97 21.92a39.32 39.32 0 0 0 1.45 4.29l2.77-.63.61 2.7-5.55 1.25-1.14-3.1-.17.04a7.5 7.5 0 0 1-2.1 3.25 8.25 8.25 0 0 1-3.92 2c-3.12.7-5.6.34-7.48-1.08-1.87-1.42-3.23-3.98-4.06-7.69a13.6 13.6 0 0 1-.3-4.78 9.03 9.03 0 0 1 1.36-3.84 9.45 9.45 0 0 1 2.87-2.8 13 13 0 0 1 4.18-1.7 26.1 26.1 0 0 1 2.85-.47c.4-.03.78-.03 1.14-.02l1.21.06-1.33-5.89-3.48.79-.63-2.77zm3.58 27.28a5.84 5.84 0 0 0 3.67-2.2 7.17 7.17 0 0 0 1.1-4.36l-2.18-9.62a6.56 6.56 0 0 0-2.25-.45c-.8-.02-1.82.11-3.06.4-2.2.49-3.79 1.52-4.77 3.1-.97 1.57-1.15 3.73-.52 6.5.25 1.13.6 2.16 1.03 3.1.42.93.96 1.7 1.6 2.31a5.37 5.37 0 0 0 2.3 1.27c.9.23 1.93.22 3.08-.05zm17.68-1.6-.62-2.78 7.21-1.63-3.43-15.17-7.21 1.63-.63-2.77 10.48-2.37 4.07 17.94 7.04-1.6.63 2.78-17.53 3.97zm.04-27.98a2.82 2.82 0 0 1 .3-2.1c.38-.64.96-1.06 1.73-1.23a2.8 2.8 0 0 1 2.2.35c.66.42 1.07 1 1.24 1.75.16.71.03 1.38-.4 2a2.92 2.92 0 0 1-1.84 1.2c-.77.18-1.46.07-2.07-.31-.61-.39-1-.94-1.16-1.66zM589.81 905l.45-.1 2.72-18.18 3.6-.81-4.05 22.7-3.61.81-13.6-18.7 3.81-.86L589.81 905zm15.54-.78-2.13-2.12 14.33-13.3-18.66-6.02.99-2.93 22.22 7.5.27 1.2-17.02 15.67zM345.21 467.93l-.48-1.13 13.62-19.09 2.52 1.8-11.6 15.81 19.4 2.39-.48 2.97-22.98-2.75zm28.37-30.31 6.37-2.71 8.81 20.67a48.93 48.93 0 0 0 1.61 3.03l.59.94 2.62-1.12 1.08 2.54-5.24 2.23-1.67-2.84-.16.07a7.5 7.5 0 0 1-1.5 3.57 8.26 8.26 0 0 1-3.49 2.66c-2.94 1.25-5.45 1.35-7.55.29-2.1-1.07-3.88-3.34-5.37-6.83a13.6 13.6 0 0 1-1.16-4.66c-.07-1.47.15-2.8.66-4.02a9.45 9.45 0 0 1 2.32-3.27 12.8 12.8 0 0 1 3.8-2.41 26.85 26.85 0 0 1 2.72-.98c.39-.1.76-.18 1.13-.22s.76-.1 1.2-.17l-2.37-5.55-3.28 1.4-1.12-2.62zm8.42 26.2a5.84 5.84 0 0 0 3.21-2.82c.56-1.2.66-2.7.3-4.49l-3.87-9.07a6.55 6.55 0 0 0-2.3-.03c-.78.12-1.76.43-2.93.93-2.08.88-3.46 2.18-4.14 3.9s-.46 3.89.65 6.5c.46 1.06.98 2.02 1.57 2.86a7.4 7.4 0 0 0 2 1.99c.74.48 1.57.76 2.5.83.91.07 1.92-.13 3-.6zm17.1-4.75-1.1-2.61 6.8-2.9-6.1-14.3-6.8 2.89-1.12-2.62 9.89-4.21 7.21 16.92 6.65-2.83 1.11 2.62-16.53 7.04zm-4.98-27.52c-.3-.7-.32-1.41-.07-2.12.25-.7.74-1.22 1.47-1.53.76-.32 1.5-.33 2.22-.04s1.24.78 1.54 1.49c.29.68.28 1.36-.03 2.04-.3.69-.84 1.2-1.6 1.52a2.64 2.64 0 0 1-3.53-1.36zm30.93 11.99.42-.18-.59-18.36 3.4-1.45.09 23.06-3.4 1.45-16.74-15.97 3.6-1.53 13.22 12.98zM440.2 440l-2.49-1.72 11.72-15.64-19.44-2.59.45-3.06 23.2 3.4.48 1.13-13.92 18.47z"/><path fill="#FF8630" d="m292.29 1080.07.94-90.8c2.83-14.51 7.28-28.98 13.97-42.17 8.11-16.02 12.44-31.9 14.69-48.24 1.85-13.57 2.27-27.44 2.2-41.95l-.36-68.44-.38-72.34s-.14 0-.14-.04a30.37 30.37 0 0 0-30.53-30.21c-16.78.08-28.8 11.8-30.02 29.62-.07.96-.1 2.07-.05 3.75l.11 69.53.13-24.5s-.11-6.35-.1-6.4c-.1-16.76-13.07-30.33-29.85-30.25-16.78.1-30.85 13.8-30.82 30.57 0 .96-.08 6.82-.11 8.22l-.26 22.68.34-28.9.04-1.34a30.4 30.4 0 0 0-30.54-30.22c-16.78.1-30.08 13.11-30 29.88 0 .97-.36 13.25-.27 14.18l-.32 16.71.6-30.89-1.48-60.85a30.36 30.36 0 1 0-60.59 3.17l.6 114.1c-.41.24-.84.47-1.25.72l-13.18-51.23s-.13.04-.14 0a30.39 30.39 0 0 0-58.87 15.02c.24.92.52 1.81.84 2.7l31.3 122.29a85.7 85.7 0 0 0 34.04 54.35c7.02 6.23 19.35 18.9 21.47 32.62l.05 18.75.58 69.91"/><path d="m92.43 1080.1-.58-69.91-.05-18.58c-2.07-12.77-13.7-24.79-20.53-30.88a88.67 88.67 0 0 1-33.6-49.61 90.55 90.55 0 0 1-1.32-6.15L5.1 782.88a32.93 32.93 0 0 1 22.86-42.8 32.93 32.93 0 0 1 39.79 22.95c.15.24.27.5.34.78l9.43 36.64-.51-99.49a32.66 32.66 0 0 1 9.35-26.26 32.67 32.67 0 0 1 23.2-9.75h.18c8.71 0 16.91 3.37 23.1 9.5a32.65 32.65 0 0 1 9.75 23.2l1.07 44c5.62-9.3 15.88-15.44 27.89-15.51h.16c13.52 0 25.17 8.2 30.22 19.9a33.57 33.57 0 0 1 30.96-20.92 31.82 31.82 0 0 1 27.27 14.92l-.04-20.79a38.7 38.7 0 0 1 .05-3.93c1.3-19.02 14.37-31.86 32.51-31.95h.18c8.71 0 16.92 3.38 23.11 9.51a32.63 32.63 0 0 1 9.74 22.38c.1.27.15.56.15.85l.73 140.78c.1 17.32-.58 30.37-2.22 42.31-2.48 18.06-7.37 34.1-14.94 49.03-6.06 11.96-10.67 25.85-13.7 41.3l-.94 90.57m-5-.05.95-90.8c0-.15.02-.3.04-.45 3.12-15.99 7.9-30.4 14.2-42.83 7.41-14.63 12-29.7 14.44-47.45 1.6-11.69 2.27-24.52 2.17-41.6l-.72-139.99a2.5 2.5 0 0 1-.15-.83c-.03-7.44-2.97-14.43-8.26-19.66s-12.34-8.07-19.75-8.07c-15.6.08-26.42 10.8-27.55 27.3-.05.7-.1 1.74-.04 3.5l.06 36.6c.05.7.07 1.4.07 2.1v.02l.11 6.35-.13 24.56a2.5 2.5 0 0 1-5-.01l-.05-32.82c-1-14.66-12.57-25.84-27.12-25.84h-.14c-15.64.08-28.35 12.68-28.32 28.06v.1a34.94 34.94 0 0 1 0 .76l-.01.3-.08 5.23-.28 24.55a2.5 2.5 0 0 1-2.5 2.47h-.03a2.5 2.5 0 0 1-2.47-2.53l.25-22.68.03-1.89.05-4.32a165.05 165.05 0 0 1 .03-1.84 27.92 27.92 0 0 0-27.87-27.2h-.14c-15.5.09-27.6 12.1-27.51 27.36v.04l-.02 1.1-.25 13.06v.05l-.32 16.71a2.5 2.5 0 0 1-5-.1l.32-16.62c-.04-.88 0-3.52.18-10.6l.06-2.44.03-1.17-1.47-60.78v-.07a27.68 27.68 0 0 0-8.27-19.67 27.68 27.68 0 0 0-19.6-8.06h-.15a27.7 27.7 0 0 0-19.67 8.27 27.69 27.69 0 0 0-7.9 22.6l.59 114.1c0 .88-.46 1.7-1.21 2.15l-.65.38-.59.34a2.49 2.49 0 0 1-3.72-1.5l-12.99-50.5a2.54 2.54 0 0 1-.33-.75 27.92 27.92 0 0 0-33.9-20.12 27.92 27.92 0 0 0-19.3 36.61l31.32 122.29.04.18c.38 2.15.8 4.07 1.25 5.89a83.65 83.65 0 0 0 31.99 47.03c7.36 6.54 20.03 19.66 22.27 34.1l.02.38.06 18.76.58 69.9m225.9-366.43z"/><path d="m62.21 881.94-.67-1.04 10.1-21.15 2.8 1.33-8.68 17.58 19.52-1.01.03 3.01-23.1 1.28zm22.68-34.77 5.8-3.78 12.27 18.84c.14.2.32.47.56.77a42.19 42.19 0 0 0 2.29 2.74l2.38-1.55 1.51 2.31-4.77 3.1-2.14-2.5-.14.1a7.5 7.5 0 0 1-.86 3.77 8.24 8.24 0 0 1-2.98 3.23c-2.67 1.74-5.13 2.27-7.38 1.59-2.25-.68-4.4-2.61-6.48-5.8a13.85 13.85 0 0 1-1.95-4.38 9.05 9.05 0 0 1 1.67-7.7 12.98 12.98 0 0 1 3.33-3.03 25.71 25.71 0 0 1 2.5-1.43 9.2 9.2 0 0 1 1.08-.42l1.15-.37-3.3-5.06-2.99 1.95-1.55-2.38zm12.83 24.34a5.84 5.84 0 0 0 2.68-3.34 7.19 7.19 0 0 0-.49-4.47l-5.37-8.26c-.76-.02-1.51.1-2.27.36s-1.67.73-2.74 1.43c-1.89 1.23-3.02 2.75-3.39 4.56-.37 1.81.22 3.9 1.76 6.28.64.97 1.32 1.82 2.04 2.55.73.73 1.5 1.27 2.32 1.61.81.35 1.68.48 2.6.39a6.44 6.44 0 0 0 2.86-1.1zm16.03-7.64-1.55-2.39 6.2-4.03-8.49-13.03-6.2 4.03-1.55-2.39 9-5.86 10.05 15.42 6.05-3.94 1.55 2.38-15.06 9.8zm-9.68-26.25a2.81 2.81 0 0 1-.44-2.07c.13-.74.52-1.33 1.19-1.76a2.8 2.8 0 0 1 2.17-.43 2.7 2.7 0 0 1 1.78 1.2c.4.62.5 1.3.32 2.02s-.62 1.32-1.3 1.77c-.67.43-1.36.57-2.06.42a2.54 2.54 0 0 1-1.66-1.15zm32.53 6.45.4-.25-3.77-17.98 3.1-2.02 4.07 22.7-3.1 2.01-19.24-12.82 3.27-2.13 15.27 10.49zm14.3-6.12-2.73-1.25 8.82-17.44-19.6.82-.08-3.1 23.44-.67.67 1.03-10.51 20.61zm41.64-20.86.66-1.04 23.44.49-.06 3.1-19.6-.67 8.97 17.36-2.73 1.28-10.68-20.52zm41.02 6.34 5.84 3.73-12.11 18.93a44.27 44.27 0 0 0-2.03 4.05l2.4 1.53-1.5 2.33-4.8-3.07 1.41-2.98-.14-.1a7.5 7.5 0 0 1-3.8.78 8.24 8.24 0 0 1-4.17-1.38c-2.69-1.72-4.18-3.75-4.49-6.08-.3-2.33.57-5.09 2.61-8.29a13.6 13.6 0 0 1 3.2-3.58 9.14 9.14 0 0 1 3.7-1.72 9.44 9.44 0 0 1 4 .07 13 13 0 0 1 4.14 1.78 26.1 26.1 0 0 1 2.33 1.7c.3.26.58.53.82.8l.81.9 3.25-5.08-3-1.93 1.53-2.4zm-16.9 21.72a5.84 5.84 0 0 0 4.15 1.06 7.19 7.19 0 0 0 3.88-2.28l5.3-8.3a6.2 6.2 0 0 0-1.25-1.93 12.82 12.82 0 0 0-2.43-1.9c-1.9-1.22-3.75-1.62-5.56-1.21-1.8.41-3.47 1.8-5 4.2-.62.97-1.11 1.94-1.48 2.9a7.37 7.37 0 0 0-.51 2.77c.02.9.26 1.73.72 2.53.46.8 1.19 1.52 2.19 2.16zm13.58 11.45 1.53-2.4 6.23 3.99 8.38-13.1-6.23-3.98 1.53-2.4 9.06 5.79-9.92 15.5 6.1 3.9-1.54 2.39-15.14-9.69zm19.92-19.63a2.8 2.8 0 0 1 1.7-1.26 2.54 2.54 0 0 1 2.1.36 2.8 2.8 0 0 1 1.3 1.8 2.7 2.7 0 0 1-.38 2.12c-.4.62-.96 1-1.7 1.13a2.91 2.91 0 0 1-2.15-.47 2.64 2.64 0 0 1-.87-3.68zm7.53 32.3.39.25 14.83-10.84 3.12 2-19 13.06-3.12-2 3.75-22.81 3.3 2.1-3.27 18.24zm11.47 10.51.01-3 19.52.85-8.82-17.52 2.79-1.35 10.27 21.07-.66 1.04-23.11-1.09zm-145.6 144.51.25-1.21 22.08-7.9 1.05 2.92-18.55 6.36 14.57 13.03-2.1 2.16-17.3-15.36zm40.6-8.7 6.78 1.4-4.57 22.02a53.1 53.1 0 0 0-.4 3.41l-.06 1.09 2.79.58-.56 2.7-5.57-1.15.24-3.3-.16-.03a7.5 7.5 0 0 1-3.27 2.08 8.24 8.24 0 0 1-4.39.2c-3.13-.65-5.25-2.01-6.36-4.08-1.12-2.07-1.29-4.96-.52-8.68.37-1.74.94-3.24 1.71-4.48a9.14 9.14 0 0 1 2.84-2.93 9.45 9.45 0 0 1 3.77-1.36 13 13 0 0 1 4.5.2 26.26 26.26 0 0 1 2.79.74c.37.14.72.3 1.05.46l1.08.55 1.22-5.9-3.5-.73.59-2.79zm-8.05 26.32c1.69.35 3.1.19 4.25-.48a7.18 7.18 0 0 0 2.81-3.52l2-9.65a6.58 6.58 0 0 0-1.86-1.34 12.5 12.5 0 0 0-2.94-.92c-2.22-.46-4.1-.17-5.63.85-1.54 1.03-2.6 2.93-3.17 5.7a15.77 15.77 0 0 0-.35 3.25c0 1.02.17 1.95.5 2.77.34.82.86 1.52 1.58 2.1s1.65 1 2.81 1.24zm16.76 5.87.58-2.8 7.24 1.51 3.16-15.23-7.24-1.5.58-2.79 10.52 2.19-3.73 18.01 7.07 1.47-.58 2.79-17.6-3.65zm11.62-25.45c.16-.75.54-1.35 1.15-1.78a2.5 2.5 0 0 1 2.08-.41c.8.16 1.42.57 1.85 1.22.43.66.57 1.36.41 2.1a2.44 2.44 0 0 1-1.19 1.67c-.64.39-1.37.5-2.17.33a2.65 2.65 0 0 1-1.76-1.15 2.5 2.5 0 0 1-.37-1.98zm18.55 27.5.45.1 10-15.42 3.62.75-13.1 18.98-3.62-.75-4.62-22.66 3.82.8 3.45 18.2zm14.46 5.73-1.06-2.82 18.55-6.15-14.49-13.22 2.12-2.26 17.11 16.03-.25 1.2-21.98 7.22zM98.94 927.46l-.43-1.16 14.55-18.38 2.43 1.91-12.37 15.22 19.26 3.35-.64 2.95-22.8-3.9zm29.83-28.86 6.5-2.4 7.77 21.09.38.88a43.64 43.64 0 0 0 1.62 3.19l2.67-.99.96 2.6-5.34 1.96-1.53-2.92-.16.06a7.51 7.51 0 0 1-1.67 3.49 8.25 8.25 0 0 1-3.63 2.49c-3 1.1-5.51 1.07-7.55-.1-2.04-1.16-3.72-3.52-5.03-7.08-.62-1.68-.92-3.25-.92-4.71s.29-2.8.85-3.99a9.48 9.48 0 0 1 2.48-3.15 13.02 13.02 0 0 1 3.92-2.22 26.8 26.8 0 0 1 2.77-.83c.39-.09.77-.14 1.13-.17l1.2-.1-2.08-5.67-3.35 1.24-.99-2.67zm7.1 26.58a5.84 5.84 0 0 0 3.36-2.66c.62-1.18.8-2.67.52-4.47l-3.41-9.25a6.55 6.55 0 0 0-2.29-.15c-.8.08-1.8.34-2.98.78-2.12.78-3.56 2.02-4.33 3.7-.76 1.69-.65 3.86.33 6.52.4 1.09.87 2.07 1.42 2.94a7.39 7.39 0 0 0 1.9 2.08 5.2 5.2 0 0 0 2.45.96c.91.11 1.93-.04 3.04-.45zm17.33-3.89-.98-2.67 6.94-2.56-5.38-14.59-6.94 2.56-.98-2.67 10.08-3.72 6.37 17.26 6.77-2.5.99 2.67-16.87 6.22zm-3.6-27.74a2.81 2.81 0 0 1 .03-2.12c.28-.7.8-1.18 1.54-1.45a2.8 2.8 0 0 1 2.22.06c.71.33 1.2.85 1.46 1.57a2.4 2.4 0 0 1-.13 2.04 2.9 2.9 0 0 1-1.67 1.43c-.74.27-1.44.26-2.1-.04-.65-.3-1.1-.8-1.36-1.5zm30.28 13.52.44-.16.32-18.37 3.47-1.28-1.07 23.03-3.47 1.28-15.91-16.77 3.66-1.35 12.56 13.62zm15.32-2.79-2.4-1.83 12.47-15.05-19.28-3.55.6-3.03 23 4.54.43 1.16-14.83 17.76zm-23.32 76.71-.6-1.08 11.46-20.45 2.7 1.51-9.81 16.98 19.54.26-.16 3.01-23.13-.23zm24.9-33.22 6.04-3.39 11 19.6c.13.22.3.5.51.81l.69 1a32.37 32.37 0 0 0 1.42 1.89l2.48-1.4 1.35 2.41-4.96 2.79-1.97-2.64-.15.08a7.51 7.51 0 0 1-1.1 3.71 8.26 8.26 0 0 1-3.18 3.03c-2.79 1.56-5.28 1.93-7.48 1.1-2.2-.82-4.22-2.9-6.08-6.2-.88-1.56-1.43-3.06-1.66-4.5s-.15-2.8.22-4.08a9.47 9.47 0 0 1 1.94-3.5c.93-1.07 2.1-2 3.53-2.81a25.99 25.99 0 0 1 2.6-1.26 8.7 8.7 0 0 1 1.09-.35c.35-.08.75-.18 1.17-.3l-2.95-5.25-3.12 1.75-1.4-2.49zM208 972.91a5.84 5.84 0 0 0 2.88-3.16 7.2 7.2 0 0 0-.19-4.5l-4.83-8.59c-.75-.07-1.5 0-2.28.21-.78.2-1.72.62-2.82 1.24-1.97 1.11-3.2 2.56-3.69 4.34-.49 1.78-.04 3.91 1.35 6.38.57 1.01 1.2 1.9 1.87 2.68a7.4 7.4 0 0 0 2.2 1.76c.8.4 1.65.58 2.57.55a6.5 6.5 0 0 0 2.94-.91zm16.49-6.59-1.4-2.48 6.45-3.62-7.62-13.56-6.44 3.62-1.4-2.48 9.38-5.26 9 16.04 6.3-3.54 1.4 2.48-15.67 8.8zm-7.95-26.82a2.82 2.82 0 0 1-.3-2.1c.17-.72.6-1.28 1.3-1.67a2.8 2.8 0 0 1 2.2-.3 2.7 2.7 0 0 1 1.69 1.33c.36.64.42 1.32.2 2.03s-.72 1.28-1.43 1.68c-.7.39-1.39.48-2.08.29-.7-.2-1.22-.62-1.58-1.26zm32.05 8.56.4-.22-2.58-18.2 3.22-1.8 2.59 22.9-3.23 1.82-18.37-14.05 3.41-1.91 14.56 11.46zm14.67-5.16-2.65-1.44 9.94-16.82-19.6-.46.11-3.1 23.43.86.6 1.07-11.83 19.88z" fill="#FFF"/><path fill="#FF8630" d="M1542.59 294.12 1818.71 5.84"/><path fill="#FF8630" d="M1542.59 296.62a2.5 2.5 0 0 1-1.8-4.23L1816.9 4.1a2.5 2.5 0 0 1 3.61 3.46L1544.4 295.85a2.5 2.5 0 0 1-1.8.77z"/><path fill="#FF8630" d="m1568.06 318.1 267.24-162.26"/><path fill="#FF8630" d="M1568.06 320.6a2.5 2.5 0 0 1-1.3-4.64L1834 153.7a2.5 2.5 0 1 1 2.6 4.28l-267.25 162.26c-.41.24-.86.36-1.3.36z"/><path fill="#FF8630" d="m1590.8 352.6 195.6-47.8"/><path fill="#FF8630" d="M1590.8 355.1a2.5 2.5 0 0 1-.59-4.93l195.6-47.8a2.5 2.5 0 1 1 1.19 4.86l-195.6 47.8c-.2.05-.4.07-.6.07z"/><path fill="#FF8630" d="m1823.71 294.15 90.59-19.94"/><path fill="#FF8630" d="M1823.7 296.65a2.5 2.5 0 0 1-.53-4.94l90.6-19.94a2.5 2.5 0 1 1 1.07 4.88l-90.6 19.94a2.4 2.4 0 0 1-.53.06z"/><path fill="#FF8630" d="M1511.35 270.45 1646.34 5.84"/><path fill="#FF8630" d="M1511.35 272.95a2.5 2.5 0 0 1-2.22-3.63L1644.1 4.7a2.5 2.5 0 0 1 4.46 2.27l-135 264.6a2.5 2.5 0 0 1-2.22 1.37z"/><path fill="#FF8630" d="m1475.84 256.58 32.51-198.65"/><path fill="#FF8630" d="M1475.85 259.08c-.14 0-.27 0-.4-.03a2.5 2.5 0 0 1-2.07-2.87l32.5-198.65a2.5 2.5 0 1 1 4.93.8L1478.32 257a2.5 2.5 0 0 1-2.46 2.1z"/><path fill="#FF8630" d="m1600.91 386.67 185.49 15.26"/><path fill="#FF8630" d="m1786.4 404.43-.2-.01-185.5-15.26a2.5 2.5 0 1 1 .41-4.98l185.5 15.25a2.5 2.5 0 0 1-.2 5z"/></svg>
