<svg xmlns="http://www.w3.org/2000/svg" xmlns:xlink="http://www.w3.org/1999/xlink" viewBox="0 0 1080 1080" xml:space="preserve"><path d="M1.79 1080V634.13c0-59.66 48.36-108.01 108-108.01h478.28c59.65 0 108 48.35 108 108V1080H1.8z"/><path fill="#FF8630" d="M419.55 562V419.75H279.54v144.57h.06a70 70 0 0 0 140-.1c0-.75-.03-1.48-.05-2.22z"/><path d="M349.6 636.22c-38.98 0-70.86-31.18-71.97-69.9h-.03l-.06-2V417.75h144.01l.02 144.74c.02.58.04 1.15.04 1.73 0 39.7-32.3 72-72 72zm-68.06-73.81.06 1.9a68.1 68.1 0 0 0 68 67.91c37.5 0 68-30.5 68-68l-.03-1.59-.02-.64V421.75H281.54v140.66z"/><path d="m304.91 483.76.82-.12 10.15 12.15-1.6 1.34-8.36-10.27-4.86 12.27-1.86-.83 5.71-14.54zm14.99 23.84.69 4.63-15.01 2.23a36.38 36.38 0 0 0-2.25.54l-.72.22.29 1.9-1.85.28-.56-3.8 2.14-.61-.02-.12c-.78-.3-1.47-.83-2.08-1.58s-.98-1.66-1.14-2.74c-.32-2.13.05-3.8 1.1-4.98 1.05-1.19 2.84-1.97 5.38-2.35a9.18 9.18 0 0 1 3.24.04 6.17 6.17 0 0 1 4.26 3.19c.45.83.76 1.8.92 2.9a17.48 17.48 0 0 1 .17 1.94c0 .27 0 .52-.04.77l-.1.8 4.03-.6-.35-2.38 1.9-.28zm-18.55 1.04c.17 1.15.6 2 1.3 2.58.69.57 1.65.9 2.88.96l6.58-.98c.22-.46.36-.96.42-1.5.05-.53.02-1.22-.1-2.07a4.83 4.83 0 0 0-1.86-3.37c-1-.74-2.46-.96-4.35-.68-.78.11-1.49.3-2.14.53-.65.24-1.2.57-1.64.97-.44.4-.77.9-.97 1.49-.2.59-.24 1.28-.12 2.07zm.21 12.13 1.9-.28.73 4.94 10.39-1.55-.74-4.93 1.9-.29 1.07 7.18-12.28 1.83.71 4.82-1.9.29-1.78-12zm18.83 1.44c.51-.08.98.02 1.4.3.42.3.66.7.74 1.23.09.55-.03 1.04-.35 1.46s-.72.67-1.23.75c-.5.07-.94-.05-1.33-.37-.4-.31-.64-.75-.72-1.3a1.8 1.8 0 0 1 .32-1.38c.29-.39.68-.62 1.17-.7zm-13.08 18.36.05.3 12.1 2.75.36 2.47-15.07-3.88-.37-2.47 13.28-8.21.39 2.61-10.74 6.43zm-.24 10.65 1.54-1.33 8.23 10.32 5-12.26 1.92.81-6.17 14.58-.82.12-9.7-12.24zm44.21 12.2-.75-.37-1.5-15.76 2.09-.2 1.08 13.2 10.95-7.37 1.06 1.74-12.93 8.76zm1.12-28.14 2.05-4.2 13.64 6.64.6.26a28.21 28.21 0 0 0 2.28.79l.84-1.73 1.68.82-1.69 3.45-2.11-.7-.05.1c.47.7.74 1.52.82 2.48.07.96-.13 1.93-.6 2.9-.95 1.94-2.2 3.1-3.73 3.49-1.54.38-3.46.02-5.76-1.1a9.16 9.16 0 0 1-2.65-1.87 6.17 6.17 0 0 1-1.72-5.04c.1-.94.4-1.92.88-2.91a18.9 18.9 0 0 1 .96-1.7c.15-.22.3-.43.47-.61l.54-.61-3.66-1.79-1.06 2.17-1.73-.84zm15.89 9.64a4 4 0 0 0 .39-2.87 4.86 4.86 0 0 0-1.84-2.42l-5.98-2.91c-.44.25-.84.58-1.19 1-.35.4-.71 1-1.09 1.77-.66 1.37-.79 2.64-.37 3.82s1.48 2.19 3.2 3.02c.7.35 1.4.6 2.06.77a5 5 0 0 0 1.9.13c.6-.08 1.14-.3 1.64-.68.5-.37.93-.91 1.28-1.63zm-8.04-21.96c-.46-.23-.78-.58-.97-1.05s-.16-.95.08-1.43c.24-.5.61-.83 1.1-1s.99-.15 1.45.07c.45.22.75.57.9 1.06.14.49.09.98-.15 1.48-.24.48-.58.8-1.04.96-.46.16-.92.13-1.37-.09zm14.73 11.83-1.73-.84 2.19-4.49-9.44-4.6-2.19 4.5-1.73-.85 3.18-6.53 11.17 5.44 2.14-4.38 1.72.84-5.31 10.91zm6.44-19.58.14-.28-8.43-9.1 1.1-2.25 10.24 11.73-1.1 2.24-15.59-.74 1.16-2.37 12.48.77zm6.23-8.65-2.02.23-.95-13.16-11.06 7.28-1.13-1.76 13.34-8.54.74.37 1.08 15.58z" fill="#FFF"/><defs><path id="a" d="M513.81 291.31c-2.2.02-4.37.18-6.51.44-20.65-68.75-84.76-118.53-160.14-117.77-75.38.76-138.47 51.8-157.74 120.96a57.45 57.45 0 1 0 8.63 112.72c26.23 57.9 84.79 97.9 152.43 97.23 67.64-.68 125.39-41.86 150.45-100.27a57.45 57.45 0 1 0 12.88-113.31z"/></defs><defs><path id="b" d="M348.81 506.9A167.62 167.62 0 0 1 196.92 410a59.82 59.82 0 0 1-13.46 1.53 59.05 59.05 0 0 1-41.6-17c-11.34-11.1-17.67-25.98-17.83-41.86s5.87-30.87 16.99-42.2a59.06 59.06 0 0 1 46.92-17.67 168.77 168.77 0 0 1 58.08-85.57 165.92 165.92 0 0 1 101.12-35.25 165.75 165.75 0 0 1 101.81 33.22 168.78 168.78 0 0 1 59.78 84.39c1.72-.17 3.42-.26 5.06-.28h.61c15.65 0 30.4 6.02 41.6 17a59.06 59.06 0 0 1 17.83 41.85 59.06 59.06 0 0 1-16.99 42.22 59.06 59.06 0 0 1-41.86 17.83c-4.35.04-8.65-.39-12.87-1.27a167.62 167.62 0 0 1-153.3 99.95zM199.18 405.3l.7 1.53a163.6 163.6 0 0 0 150.58 96.05 163.61 163.61 0 0 0 148.64-99.05l.66-1.55 1.64.4a54.89 54.89 0 0 0 13.54 1.53A55.09 55.09 0 0 0 554 387.57a55.09 55.09 0 0 0 15.84-39.37 55.09 55.09 0 0 0-16.63-39.04 55.08 55.08 0 0 0-39.37-15.85c-2.04.02-4.1.16-6.29.43l-1.67.2-.48-1.61a164.69 164.69 0 0 0-58.83-83.93 161.83 161.83 0 0 0-99.38-32.42 161.95 161.95 0 0 0-98.7 34.4 164.69 164.69 0 0 0-57.13 85.1l-.46 1.62-1.67-.17a55.09 55.09 0 0 0-45.34 16.33 55.1 55.1 0 0 0-15.85 39.37 55.09 55.09 0 0 0 16.63 39.05 55.08 55.08 0 0 0 39.38 15.85 56.4 56.4 0 0 0 13.5-1.8l1.64-.43z"/></defs><use xlink:href="#a" overflow="visible" fill="#FF8630"/><use xlink:href="#b" overflow="visible"/><path fill="#FF8630" d="m154.22 337.17 35.62 37.95"/><path d="M189.84 377.12a2 2 0 0 1-1.46-.63l-35.62-37.95a2 2 0 0 1 2.92-2.73l35.62 37.94a2 2 0 0 1-1.46 3.37z"/><path fill="#FF8630" d="m536.47 333.34-34.85 38.65"/><path d="M501.62 374a2 2 0 0 1-1.48-3.34L534.99 332a2 2 0 1 1 2.97 2.68l-34.86 38.65c-.39.44-.93.66-1.48.66zm-84.09 3.68a54.89 54.89 0 0 1-44.93-23.4 2 2 0 0 1 3.28-2.3 50.83 50.83 0 0 0 83.9-.83 2 2 0 0 1 3.31 2.23 54.89 54.89 0 0 1-45.56 24.3zm-142.47 1.43a54.89 54.89 0 0 1-44.93-23.4 2 2 0 0 1 3.27-2.3 50.89 50.89 0 0 0 42.17 21.7 50.9 50.9 0 0 0 41.73-22.53 2 2 0 1 1 3.32 2.23 54.9 54.9 0 0 1-45.56 24.3z"/><path fill="#FF8630" d="m347.77 349.4.32 31.79"/><path d="M348.1 383.19a2 2 0 0 1-2-1.98l-.33-31.78a2 2 0 0 1 4-.05l.32 31.79a2 2 0 0 1-1.98 2.02h-.02zm-83.76 18.37v.26a83.96 83.96 0 0 0 167.9-1.7v.01-.25"/><path fill="#FFF" d="M348.5 400.72a18.36 18.36 0 0 1-36.73.37l36.72-.37z"/><path fill="#FFF" d="M384.8 400.35a18.36 18.36 0 0 1-36.72.37l36.73-.37zm4.48-103.38.31-.77 15.62-2.6.34 2.05-13.08 2.02 8.12 10.4-1.65 1.18-9.66-12.28zm28.15-.87 4.34 1.74-5.67 14.08-.21.61a33 33 0 0 0-.63 2.33l1.79.72-.7 1.73-3.57-1.44.56-2.15-.1-.05c-.66.52-1.47.85-2.42 1s-1.93 0-2.94-.4c-2-.8-3.25-1.96-3.74-3.47-.5-1.5-.27-3.45.7-5.83a9.1 9.1 0 0 1 1.66-2.77 6.18 6.18 0 0 1 4.9-2.07 8.8 8.8 0 0 1 2.97.67 17.1 17.1 0 0 1 1.77.84c.23.13.44.27.64.42l.65.5 1.52-3.78-2.23-.9.71-1.78zm-8.5 16.53c1.09.43 2.05.5 2.9.18.84-.3 1.6-.97 2.28-2l2.48-6.17c-.28-.43-.64-.8-1.07-1.12a8.7 8.7 0 0 0-1.85-.96c-1.42-.57-2.7-.6-3.84-.1s-2.08 1.63-2.8 3.4c-.29.73-.5 1.44-.61 2.12a4.98 4.98 0 0 0 0 1.9c.13.59.39 1.12.8 1.59.4.47.98.86 1.72 1.16zm10.58 5.95.72-1.78 4.63 1.86 3.92-9.74-4.63-1.86.72-1.79 6.73 2.71-4.63 11.53 4.52 1.82-.72 1.78-11.26-4.53zm10.76-15.52c.2-.48.52-.83.98-1.05.46-.21.94-.22 1.43-.02.52.2.88.55 1.09 1.04.2.48.21.96.02 1.44-.19.46-.52.78-1 .96-.47.18-.96.17-1.48-.04a1.76 1.76 0 0 1-1.03-2.33zm9.23 20.56.3.12 8.48-9.05 2.31.93-10.97 11.05-2.32-.93-.36-15.61 2.45.99.11 12.5zm9.07 5.6-.37-2 13.06-1.88-8.04-10.51 1.67-1.25 9.46 12.7-.31.77-15.47 2.17zm-33.06-89.59.55-.63 15.62 2.57-.34 2.06-13.04-2.32 4.34 12.47-1.95.59-5.18-14.74zm26.93 8.26 3.54 3.05-9.9 11.5a33.76 33.76 0 0 0-1.75 2.51l1.45 1.25-1.21 1.41-2.91-2.5 1.22-1.87-.09-.07c-.79.28-1.66.33-2.6.16a5.56 5.56 0 0 1-2.66-1.33c-1.63-1.4-2.44-2.9-2.42-4.49.02-1.58.86-3.35 2.54-5.29a9.17 9.17 0 0 1 2.48-2.08 6.18 6.18 0 0 1 5.3-.38c.9.34 1.76.87 2.6 1.6a18.43 18.43 0 0 1 1.4 1.35c.17.2.33.41.47.62l.45.67 2.66-3.08-1.83-1.57 1.26-1.46zm-13.38 12.9a3.95 3.95 0 0 0 2.67 1.1c.9-.01 1.84-.4 2.81-1.15l4.35-5.04c-.13-.5-.35-.96-.66-1.4a8.67 8.67 0 0 0-1.44-1.5 4.83 4.83 0 0 0-3.6-1.35c-1.25.1-2.5.88-3.74 2.33-.51.59-.94 1.19-1.27 1.8-.34.6-.54 1.2-.61 1.8-.07.6 0 1.18.24 1.76s.65 1.13 1.25 1.65zm8.09 9.05 1.26-1.45 3.78 3.25 6.85-7.95-3.78-3.26 1.25-1.46 5.5 4.74-8.1 9.41 3.69 3.19-1.26 1.45-9.19-7.92zm15.2-11.22c.33-.39.75-.61 1.26-.67.5-.06.96.09 1.36.44.42.36.65.8.7 1.33.03.52-.12.98-.46 1.37-.32.38-.74.58-1.24.6-.51.01-.97-.16-1.4-.52a1.8 1.8 0 0 1-.66-1.26c-.03-.48.11-.91.44-1.29zm2.09 22.45.24.2 10.95-5.83 1.89 1.63-13.95 6.92-1.9-1.63 4.7-14.9 2 1.73-3.93 11.88zm6.77 8.22.3-2.01 12.97 2.44-4.22-12.55 1.99-.64 4.85 15.07-.54.63-15.35-2.94zm-208.46-67.04.31-.77 15.61-2.61.35 2.06-13.09 2.01 8.13 10.4-1.66 1.19-9.65-12.28zm28.15-.88 4.34 1.75-5.67 14.08c-.06.16-.14.36-.21.6a29.95 29.95 0 0 0-.63 2.34l1.78.72-.7 1.72-3.56-1.43.56-2.16-.1-.04c-.67.52-1.47.85-2.43 1-.95.13-1.93 0-2.94-.4-2-.8-3.25-1.97-3.74-3.47-.5-1.51-.26-3.45.7-5.83.45-1.12 1-2.04 1.67-2.78a6.17 6.17 0 0 1 4.9-2.06 8.8 8.8 0 0 1 2.97.67 17.98 17.98 0 0 1 1.76.83 6 6 0 0 1 .65.43l.65.5 1.52-3.78-2.24-.9.72-1.79zm-8.5 16.53c1.08.44 2.05.5 2.89.19s1.6-.98 2.29-2l2.48-6.18c-.28-.42-.64-.8-1.08-1.11s-1.05-.64-1.85-.96a4.83 4.83 0 0 0-3.84-.1c-1.14.49-2.07 1.63-2.79 3.4-.29.73-.5 1.43-.62 2.12a4.94 4.94 0 0 0 0 1.9c.13.58.4 1.11.8 1.59.41.47.98.85 1.73 1.15zm10.58 5.96.72-1.79 4.63 1.87 3.92-9.74-4.63-1.86.72-1.79 6.73 2.71-4.64 11.52 4.53 1.82-.72 1.79-11.26-4.53zm10.76-15.52c.2-.48.52-.83.98-1.05.46-.22.93-.23 1.43-.02.52.2.88.55 1.09 1.03.2.49.2.97.02 1.45-.19.46-.52.78-1 .96-.47.18-.96.17-1.48-.04-.5-.2-.84-.52-1.03-.97-.2-.45-.2-.9 0-1.36zm9.23 20.56.29.12 8.48-9.05 2.32.93-10.97 11.05-2.32-.93-.37-15.61 2.45.98.12 12.51zm9.07 5.6-.37-2 13.06-1.88-8.05-10.52 1.68-1.24 9.46 12.7-.31.76-15.47 2.18zm89.11-84.97a53.99 53.99 0 1 1-107.98 0c0-29.82 54-126.2 54-126.2s53.98 96.38 53.98 126.2zM277.29 319.3l-.33-.77 9.2-12.88 1.7 1.2-7.83 10.69 13.1 1.6-.33 2.01-15.51-1.85zm19.29-20.52 4.3-1.84 5.95 13.97.28.58a35.5 35.5 0 0 0 1.2 2.09l1.77-.75.73 1.71-3.53 1.5-1.14-1.91-.1.04c-.1.84-.44 1.64-1.01 2.41a5.56 5.56 0 0 1-2.36 1.8c-1.98.85-3.68.91-5.1.2-1.41-.72-2.62-2.26-3.63-4.61a9.19 9.19 0 0 1-.78-3.15 6.18 6.18 0 0 1 2.01-4.92 8.7 8.7 0 0 1 2.57-1.63 17.9 17.9 0 0 1 1.84-.66c.26-.07.51-.12.76-.15l.8-.11-1.6-3.75-2.2.95-.76-1.77zm5.68 17.69a3.95 3.95 0 0 0 2.17-1.9c.38-.82.45-1.83.2-3.04l-2.6-6.12c-.5-.1-1.02-.11-1.56-.03-.53.08-1.2.3-1.98.63-1.4.6-2.34 1.48-2.8 2.64s-.3 2.62.44 4.38c.31.72.66 1.37 1.06 1.94.4.57.85 1.01 1.35 1.34.5.33 1.07.51 1.69.56a4.4 4.4 0 0 0 2.03-.4zm11.69-3.27-.76-1.76 4.6-1.96-4.12-9.66-4.6 1.96-.75-1.77 6.68-2.85 4.87 11.43 4.49-1.91.75 1.77-11.16 4.75zm-3.37-18.58a1.9 1.9 0 0 1-.05-1.43c.17-.48.5-.82 1-1.03a1.88 1.88 0 0 1 1.5-.03c.49.2.83.53 1.03 1 .2.46.2.92-.02 1.38-.2.47-.56.8-1.07 1.03-.5.2-.97.22-1.42.04s-.78-.5-.97-.96zm21.07 8.01.28-.12-.4-12.4 2.3-.97.06 15.57-2.3.97-11.3-10.77 2.43-1.04 8.93 8.76zm10.37-2.45-1.68-1.15 7.9-10.56-13.12-1.75.3-2.07 15.67 2.3.33.76-9.4 12.47zM447.46 433l-.74-.36-1.5-15.76 2.08-.2 1.08 13.2 10.95-7.37 1.07 1.73-12.94 8.76zm1.12-28.13 2.05-4.2 13.65 6.64.6.26a27.1 27.1 0 0 0 2.27.79l.84-1.73 1.68.81-1.68 3.46-2.12-.7-.05.1c.47.69.74 1.52.82 2.48.07.96-.13 1.93-.6 2.9-.95 1.94-2.19 3.1-3.73 3.49s-3.46.01-5.76-1.1a9.39 9.39 0 0 1-2.65-1.87 6.18 6.18 0 0 1-1.71-5.04c.1-.95.39-1.92.87-2.91a17.72 17.72 0 0 1 .96-1.7c.15-.22.3-.43.47-.61l.54-.61-3.66-1.79-1.06 2.17-1.73-.84zm15.9 9.63c.5-1.04.63-2 .38-2.86a4.84 4.84 0 0 0-1.83-2.42l-5.99-2.91c-.44.25-.83.58-1.18 1-.35.4-.72 1-1.1 1.77a4.83 4.83 0 0 0-.37 3.82c.41 1.18 1.48 2.18 3.2 3.02.7.34 1.4.6 2.07.77.67.17 1.3.21 1.9.13.59-.08 1.14-.3 1.64-.68.5-.37.92-.91 1.27-1.63zm-8.04-21.95a1.9 1.9 0 0 1-.98-1.05c-.18-.47-.16-.95.08-1.43.24-.5.61-.84 1.11-1 .5-.18.98-.15 1.45.07.44.22.74.57.89 1.06.14.48.1.98-.15 1.48-.23.48-.58.8-1.04.96-.46.16-.92.13-1.36-.1zm14.72 11.83-1.73-.84 2.19-4.49-9.44-4.6-2.19 4.49-1.72-.84 3.17-6.53 11.17 5.44 2.14-4.38 1.73.84-5.32 10.91zm6.44-19.58.14-.28-8.42-9.1 1.09-2.25 10.24 11.72-1.09 2.25-15.6-.74 1.16-2.37 12.49.77zm6.23-8.65-2.02.23-.95-13.16-11.06 7.28-1.12-1.76L482 360.2l.75.37 1.07 15.58zm-222.04 74.97-.7.45-14.29-6.82.9-1.89 11.88 5.86-.69-13.18 2.03-.02.87 15.6zm-23.56-15.44-2.55-3.92 12.72-8.28.52-.37a27.34 27.34 0 0 0 1.85-1.55l-1.05-1.61 1.57-1.02 2.1 3.22-1.7 1.45.06.1c.84-.05 1.69.14 2.55.57.86.43 1.6 1.1 2.19 2.01 1.17 1.8 1.53 3.47 1.07 4.99-.46 1.52-1.77 2.97-3.92 4.37-1 .66-2 1.1-2.96 1.32a6.18 6.18 0 0 1-5.2-1.13 8.74 8.74 0 0 1-2.04-2.25 19.63 19.63 0 0 1-.97-1.7c-.11-.24-.2-.48-.28-.71l-.25-.78-3.41 2.22 1.31 2.02-1.6 1.05zm16.44-8.67a3.95 3.95 0 0 0-2.25-1.8 4.87 4.87 0 0 0-3.03.33l-5.57 3.63c-.01.5.07 1.02.24 1.53s.5 1.13.96 1.85c.83 1.27 1.86 2.04 3.09 2.29s2.63-.15 4.24-1.2c.65-.42 1.23-.88 1.72-1.37.49-.5.85-1.01 1.09-1.56s.32-1.14.26-1.76a4.4 4.4 0 0 0-.75-1.94zm-22.97-4.4c-.43.28-.9.38-1.4.3a1.7 1.7 0 0 1-1.18-.8 1.9 1.9 0 0 1-.3-1.48c.12-.51.39-.91.82-1.2.42-.26.87-.34 1.36-.21.5.12.9.42 1.2.88.29.45.38.91.28 1.39-.1.47-.36.85-.77 1.12zm17.73-6.54-1.62 1.05-2.72-4.18-8.8 5.73 2.73 4.18-1.62 1.05-3.95-6.08 10.4-6.78-2.66-4.09 1.61-1.05 6.63 10.17zm-13.48-15.6-.17-.26-12.14 2.54-1.36-2.09 15.32-2.75 1.36 2.09-8.65 13-1.44-2.22 7.08-10.3zm-4.22-9.78-.84 1.85-11.78-5.96.56 13.23-2.09.06-.46-15.83.7-.45 13.91 7.1zm127.15-122.26-.56-.61 4.37-15.22 2.01.58-3.82 12.68 12.88-2.85.36 2-15.24 3.42zm11.34-25.77 3.45-3.17 10.26 11.18.46.46.6.55a24.52 24.52 0 0 0 1.23 1.02l1.41-1.3 1.27 1.38-2.83 2.6-1.71-1.44-.09.08c.19.82.14 1.69-.14 2.6a5.57 5.57 0 0 1-1.63 2.5c-1.59 1.45-3.17 2.07-4.74 1.87-1.57-.2-3.23-1.25-4.96-3.14a9.17 9.17 0 0 1-1.78-2.7 6.17 6.17 0 0 1 .25-5.32 8.73 8.73 0 0 1 1.88-2.39 17.76 17.76 0 0 1 1.51-1.23c.23-.15.45-.28.67-.4.22-.1.46-.23.72-.37l-2.75-3-1.78 1.63-1.3-1.41zm11.26 14.78a3.95 3.95 0 0 0 1.4-2.52 4.7 4.7 0 0 0-.81-2.92l-4.5-4.9c-.5.06-1 .23-1.47.48s-1.04.68-1.67 1.26a4.83 4.83 0 0 0-1.75 3.42c-.04 1.24.58 2.57 1.87 3.98.53.58 1.08 1.07 1.65 1.47.56.4 1.14.68 1.72.82.58.14 1.17.13 1.77-.03a4.5 4.5 0 0 0 1.79-1.06zm.56-23.37a1.9 1.9 0 0 1-.52-1.33c0-.51.2-.95.6-1.31.4-.38.87-.55 1.4-.53.52.02.96.23 1.3.6.34.37.5.8.45 1.31a2 2 0 0 1-.68 1.33c-.4.36-.83.53-1.32.5-.48-.01-.9-.2-1.23-.57zm9.37 16.4-1.3-1.42 3.68-3.37-7.1-7.74-3.68 3.38-1.3-1.42 5.34-4.9 8.4 9.14 3.6-3.3 1.3 1.42-8.94 8.2zm13.16-15.87.23-.2-4.5-11.56 1.83-1.7 5.24 14.67-1.84 1.69-14.24-6.4 1.94-1.78 11.34 5.28zm8.96-5.76-1.97-.53 3.94-12.6-12.96 2.73-.4-2.05 15.53-3.06.57.61-4.71 14.9zm-95.24 374.19-.19-.8 11.36-11.03 1.46 1.5-9.62 9.1 12.6 3.93-.69 1.91-14.92-4.6zm22.65-16.73 4.56-1.03 3.35 14.8.17.63a27.24 27.24 0 0 0 .81 2.27l1.88-.42.4 1.81-3.74.85-.77-2.09-.11.03a5.1 5.1 0 0 1-1.43 2.19c-.7.66-1.58 1.1-2.64 1.35-2.1.47-3.79.23-5.05-.73-1.26-.96-2.18-2.69-2.74-5.19a9.18 9.18 0 0 1-.2-3.23 6.18 6.18 0 0 1 2.85-4.49c.8-.51 1.74-.9 2.82-1.14a18.16 18.16 0 0 1 1.93-.31c.27-.02.52-.03.77-.02l.81.04-.9-3.97-2.35.53-.42-1.88zm2.42 18.43a3.95 3.95 0 0 0 2.48-1.49c.52-.73.76-1.71.74-2.94l-1.47-6.5a4.41 4.41 0 0 0-1.52-.3 8.6 8.6 0 0 0-2.07.26 4.83 4.83 0 0 0-3.22 2.1c-.65 1.06-.77 2.52-.35 4.39.17.76.4 1.46.7 2.1.28.62.64 1.14 1.08 1.55.43.42.95.7 1.56.86.6.15 1.29.14 2.07-.03zm12.08-1.12-.42-1.87 4.87-1.1-2.32-10.25-4.87 1.1-.42-1.87 7.08-1.6 2.74 12.12 4.76-1.08.42 1.87-11.84 2.68zm.02-18.89a1.9 1.9 0 0 1 .21-1.41c.26-.44.64-.72 1.17-.84a1.9 1.9 0 0 1 1.48.24c.44.28.72.67.84 1.18.1.48.02.94-.27 1.35-.29.42-.7.7-1.24.81-.52.12-1 .05-1.4-.2a1.72 1.72 0 0 1-.79-1.13zm19.29 11.67.3-.07 1.84-12.27 2.43-.55-2.73 15.33-2.44.55-9.18-12.63 2.57-.58 7.21 10.22zm10.65-.55-1.45-1.44 9.68-8.97-12.6-4.08.67-1.97 15 5.06.18.8-11.49 10.6zM209.12 301.4l-.33-.77 9.2-12.89 1.7 1.21-7.83 10.68 13.1 1.61-.33 2-15.51-1.85zm19.28-20.53 4.3-1.83 5.95 13.96.28.58a35.5 35.5 0 0 0 1.2 2.1l1.77-.76.74 1.71-3.54 1.51-1.13-1.92-.1.05a5.56 5.56 0 0 1-3.37 4.21c-1.99.84-3.69.9-5.1.2-1.42-.73-2.63-2.26-3.63-4.62a9.19 9.19 0 0 1-.78-3.15 6.16 6.16 0 0 1 2-4.92c.7-.65 1.56-1.2 2.58-1.63a18.9 18.9 0 0 1 1.83-.66 6 6 0 0 1 .76-.15l.81-.1-1.6-3.76-2.21.95-.76-1.77zm5.69 17.7a3.95 3.95 0 0 0 2.17-1.91c.38-.82.44-1.83.2-3.04l-2.61-6.12c-.5-.1-1.02-.1-1.55-.02a8.6 8.6 0 0 0-1.99.62 4.83 4.83 0 0 0-2.79 2.64c-.46 1.17-.31 2.63.44 4.39.3.72.66 1.36 1.06 1.93.4.57.85 1.02 1.35 1.34.5.33 1.06.52 1.68.57.62.04 1.3-.1 2.04-.4zm11.68-3.27-.75-1.77 4.6-1.96-4.12-9.66-4.6 1.96-.75-1.77 6.68-2.84 4.87 11.42 4.48-1.91.76 1.77-11.17 4.76zm-3.36-18.59a1.9 1.9 0 0 1-.05-1.43c.17-.48.5-.82 1-1.03a1.88 1.88 0 0 1 1.5-.03c.48.2.83.53 1.03 1 .2.46.19.92-.02 1.39-.2.46-.57.8-1.08 1.02-.5.2-.96.22-1.41.04-.46-.18-.78-.5-.97-.96zm21.06 8.02.29-.12-.4-12.4 2.3-.98.05 15.57-2.3.98-11.3-10.78 2.44-1.03 8.92 8.76zm10.37-2.46-1.68-1.15 7.91-10.56-13.12-1.75.3-2.06 15.67 2.29.32.76-9.4 12.47z"/><path fill="#FF8630" d="m196.2 1080 71.05-198.77c5.01-8.64 11.05-16.88 18.23-23.83 8.72-8.42 14.99-17.6 20.03-27.52 4.18-8.25 7.52-17.01 10.67-26.3l14.9-43.73 15.73-46.24s-.1-.04-.08-.06a20.5 20.5 0 1 0-39.36-11.37l-15.13 44.44-.16-.05 6.92-19.65s-.1-.03-.09-.06c3.66-10.72-1.63-22.24-12.35-25.9-10.73-3.64-22.73 2-26.42 12.7-.2.62-1.56 4.33-1.89 5.22l-5.17 14.42 6.6-18.36s.3-.83.32-.85a20.52 20.52 0 0 0-12.8-26.03c-10.73-3.65-22.1 1.72-25.75 12.44-.2.61-3.16 8.37-3.3 8.98l-3.9 10.6 7.2-19.58 12.5-39.15a20.5 20.5 0 1 0-39.35-11.37l-24.83 72.93-.95.19 2.9-35.6s-.09 0-.08-.03a20.52 20.52 0 1 0-40.95-1.51l-7.03 84.94a57.85 57.85 0 0 0 9.71 42.2c3.1 5.52 8.16 16.33 6.49 25.55l-4.11 11.98L52.25 1080"/><path d="m194.07 1080 71.3-199.44c.04-.12.1-.23.15-.33 5.54-9.54 11.78-17.7 18.57-24.26 7.94-7.67 14.18-16.25 19.64-27 3.6-7.1 6.85-15.13 10.55-26.02l30.45-89.44c0-.2.04-.4.1-.6 1.6-4.68 1.27-9.7-.91-14.14a18.38 18.38 0 0 0-10.64-9.35 18.4 18.4 0 0 0-14.14.91 18.4 18.4 0 0 0-9.88 12.5l-8.28 24.32c-.02.15-.05.3-.1.43l-1.39 3.93-5.36 15.76a2 2 0 0 1-2.5 1.26l-.17-.05a2 2 0 0 1-1.28-2.57l6.74-19.25c.02-.15.05-.3.1-.44 3.35-9.84-1.53-20.1-11.11-23.36-9.84-3.35-20.56 1.79-23.88 11.45l-.03.09a32.26 32.26 0 0 1-.16.47l-.06.16-1.22 3.35-5.6 15.6a2 2 0 0 1-3.77-1.36l5.17-14.41c.1-.24.26-.7.46-1.26l.97-2.69.24-.63.18-.5a18.54 18.54 0 0 0-11.67-23.18c-9.75-3.31-19.94 1.6-23.2 11.2l-.4 1.07-2.91 7.93-.01.03-3.9 10.59a2 2 0 0 1-3.75-1.38l3.87-10.53c.18-.6.78-2.24 2.47-6.74l.57-1.52.28-.77.02-.04 12.46-39.04.02-.05c1.6-4.68 1.27-9.7-.91-14.13a18.38 18.38 0 0 0-10.65-9.35 18.4 18.4 0 0 0-14.14.91 18.38 18.38 0 0 0-9.88 12.5l-24.82 72.93a2 2 0 0 1-1.48 1.31l-.52.1-.43.09a2 2 0 0 1-2.41-2.12l2.86-35.03a2 2 0 0 1-.05-.6 18.54 18.54 0 0 0-16.9-20 18.53 18.53 0 0 0-20.05 18.82l-7.04 84.94c0 .05 0 .1-.02.14a56.17 56.17 0 0 0 9.48 40.9c3.28 5.84 8.5 17.1 6.72 26.9l-.08.29-4.1 11.98L54.37 1080h-4.33l83.82-230.06 4.04-11.8c1.48-8.5-3.24-18.63-6.24-23.99a60.18 60.18 0 0 1-10-43.5l7.02-84.77a22.56 22.56 0 0 1 24.38-22.56 22.55 22.55 0 0 1 20.6 23.72 2 2 0 0 1 .05.63l-1.88 22.95 20.84-61.2a22.35 22.35 0 0 1 11.93-14.88 22.36 22.36 0 0 1 17.19-1.1 22.35 22.35 0 0 1 12.94 11.36 22.35 22.35 0 0 1 1.1 17.2c-.2.67-1.43 4.48-8.72 27.31a22.27 22.27 0 0 1 20.71-3.15 22.55 22.55 0 0 1 15.14 18.97 23 23 0 0 1 24.23-6.06 21.73 21.73 0 0 1 14.07 14.83l4.17-12.28a22.37 22.37 0 0 1 11.93-14.88 22.37 22.37 0 0 1 17.2-1.1A22.35 22.35 0 0 1 347.51 697a22.35 22.35 0 0 1 1.3 16.6c0 .22-.04.43-.1.64l-30.64 89.98c-3.77 11.09-7.09 19.28-10.78 26.55-5.59 11-12.27 20.19-20.42 28.06-6.48 6.27-12.47 14.09-17.8 23.24L198.33 1080"/><path d="m148.47 754.75-.13-.82 12.13-10.17 1.34 1.6-10.25 8.38 12.28 4.83-.82 1.86-14.55-5.67zm23.8-15.05 4.62-.7 2.28 15.01a27.1 27.1 0 0 0 .77 2.96l1.9-.29.27 1.85-3.8.57-.61-2.14-.12.02c-.3.78-.83 1.47-1.58 2.08-.75.6-1.66.99-2.73 1.15-2.13.33-3.8-.04-4.98-1.09-1.2-1.04-1.98-2.84-2.36-5.37a9.15 9.15 0 0 1 .03-3.24 6.17 6.17 0 0 1 3.17-4.27c.84-.45 1.8-.76 2.9-.93a17.8 17.8 0 0 1 1.94-.18c.27 0 .52.02.77.05l.8.1-.6-4.04-2.38.36-.3-1.9zm1.08 18.55a3.9 3.9 0 0 0 2.58-1.3c.57-.7.89-1.66.95-2.89l-1-6.58a4.45 4.45 0 0 0-1.49-.4 8.6 8.6 0 0 0-2.08.1c-1.5.23-2.63.85-3.36 1.86-.73 1.01-.96 2.46-.67 4.35.11.78.3 1.5.54 2.14.24.65.56 1.2.97 1.64.4.44.9.76 1.49.96.59.2 1.28.25 2.07.13zm12.14-.24-.3-1.9 4.94-.74-1.57-10.38-4.93.74-.3-1.9 7.18-1.08 1.86 12.28 4.82-.73.3 1.9-12 1.81zm1.38-18.83a1.9 1.9 0 0 1 .3-1.4c.3-.42.7-.67 1.23-.75a1.9 1.9 0 0 1 2.21 1.58c.08.49-.04.94-.36 1.33-.32.4-.75.64-1.3.72a1.77 1.77 0 0 1-2.08-1.48zm18.39 13.02.31-.04 2.72-12.1 2.46-.38-3.84 15.09-2.46.37-8.25-13.26 2.61-.4 6.45 10.73zm10.65.22-1.33-1.53 10.3-8.26-12.27-4.97.8-1.92 14.6 6.13.13.82-12.22 9.73zm-34.26 199.5-.56-.61 4.38-15.21 2 .57-3.82 12.68 12.89-2.85.36 2-15.25 3.42zM193 926.15l3.44-3.17 10.27 11.18a31.26 31.26 0 0 0 2.29 2.03l1.4-1.3 1.27 1.38-2.83 2.6-1.7-1.44-.1.08c.2.82.14 1.69-.14 2.6a5.55 5.55 0 0 1-1.62 2.5c-1.6 1.45-3.17 2.08-4.75 1.87-1.57-.2-3.22-1.25-4.95-3.14a9.17 9.17 0 0 1-1.79-2.7 6.17 6.17 0 0 1 .25-5.31 8.75 8.75 0 0 1 1.89-2.4 17.22 17.22 0 0 1 1.5-1.22c.23-.16.45-.29.67-.4l.73-.37-2.76-3-1.77 1.62-1.3-1.41zm11.25 14.78a3.94 3.94 0 0 0 1.41-2.52c.09-.9-.19-1.87-.82-2.92l-4.5-4.9c-.5.06-1 .23-1.47.48-.48.26-1.03.68-1.66 1.26a4.83 4.83 0 0 0-1.75 3.42c-.05 1.25.58 2.57 1.87 3.98.53.58 1.08 1.07 1.64 1.47.57.4 1.14.68 1.72.82.58.14 1.18.13 1.78-.03a4.3 4.3 0 0 0 1.78-1.06zm.56-23.37a1.9 1.9 0 0 1-.52-1.33c0-.51.2-.95.6-1.3.4-.38.87-.56 1.4-.54.53.03.96.23 1.31.6.34.37.49.8.44 1.32-.04.5-.26.94-.67 1.32-.4.36-.84.53-1.32.5-.49-.01-.9-.2-1.24-.57zm9.37 16.4-1.3-1.42 3.68-3.37-7.1-7.74-3.68 3.38-1.3-1.42 5.35-4.9 8.4 9.14 3.6-3.3 1.3 1.42-8.95 8.2zm13.17-15.86.23-.22-4.51-11.55 1.84-1.69 5.24 14.66-1.84 1.69-14.24-6.4 1.94-1.78 11.34 5.29zm8.95-5.77-1.96-.53 3.94-12.6-12.96 2.73-.4-2.05 15.53-3.06.56.61-4.7 14.9zm14.4-164 .7-.45 14.27 6.85-.9 1.89-11.86-5.89.65 13.18-2.03.02-.83-15.6zm23.52 15.49 2.54 3.92-12.73 8.25-.53.38a27.85 27.85 0 0 0-1.85 1.54l1.04 1.62-1.56 1.01-2.1-3.22 1.7-1.45-.06-.1a5.05 5.05 0 0 1-2.55-.58 5.57 5.57 0 0 1-2.17-2.01c-1.18-1.81-1.53-3.47-1.07-5 .47-1.5 1.78-2.96 3.93-4.36a9.2 9.2 0 0 1 2.96-1.3 6.15 6.15 0 0 1 5.2 1.13 8.78 8.78 0 0 1 2.04 2.26 19.35 19.35 0 0 1 .96 1.7c.11.24.2.48.28.71l.25.78 3.42-2.21-1.31-2.03 1.61-1.04zm-16.46 8.63a3.95 3.95 0 0 0 2.25 1.8c.87.24 1.88.13 3.02-.31l5.59-3.62a4.53 4.53 0 0 0-.24-1.53 8.68 8.68 0 0 0-.96-1.85 4.83 4.83 0 0 0-3.08-2.3c-1.22-.25-2.64.14-4.24 1.18-.66.43-1.23.89-1.73 1.38s-.85 1-1.09 1.56a3.53 3.53 0 0 0-.26 1.75c.06.62.3 1.26.74 1.94zm5.22 10.95 1.61-1.04 2.72 4.19 8.8-5.71-2.7-4.2 1.6-1.04 3.95 6.1-10.42 6.75 2.65 4.1-1.61 1.04-6.6-10.19zm17.73-6.5c.44-.28.9-.37 1.4-.29a1.91 1.91 0 0 1 1.48 2.28c-.11.51-.38.91-.82 1.2-.41.26-.87.34-1.36.21a1.98 1.98 0 0 1-1.19-.89 1.79 1.79 0 0 1 .49-2.51zm-4.29 22.13.17.27 12.15-2.52 1.35 2.1-15.33 2.71-1.35-2.1 8.68-12.97 1.44 2.22-7.1 10.3zm4.19 9.8.85-1.85 11.76 5.98-.52-13.23 2.09-.05.42 15.82-.7.46-13.9-7.13zM133.55 926.75l.7-.45 14.27 6.85-.9 1.89-11.86-5.9.65 13.19-2.03.02-.83-15.6zm23.52 15.49 2.54 3.92-12.73 8.26a25.48 25.48 0 0 0-2.38 1.92l1.04 1.6-1.56 1.02-2.1-3.23 1.7-1.44-.06-.1a5.07 5.07 0 0 1-2.55-.58 5.57 5.57 0 0 1-2.17-2.01c-1.18-1.81-1.53-3.48-1.07-5 .47-1.5 1.77-2.96 3.93-4.36 1-.65 2-1.09 2.96-1.3a6.17 6.17 0 0 1 5.2 1.13 8.78 8.78 0 0 1 2.04 2.26 18.56 18.56 0 0 1 .96 1.7c.11.24.2.48.28.71l.25.78 3.42-2.21-1.31-2.03 1.6-1.04zm-16.46 8.63a3.94 3.94 0 0 0 2.25 1.8c.87.24 1.88.13 3.02-.31l5.59-3.62c.01-.51-.07-1.02-.24-1.53s-.5-1.13-.96-1.85a4.83 4.83 0 0 0-3.08-2.3c-1.22-.25-2.64.14-4.24 1.18-.66.43-1.23.89-1.73 1.37-.49.5-.85 1.01-1.09 1.57a3.54 3.54 0 0 0-.26 1.75c.06.62.3 1.27.74 1.94zm5.22 10.95 1.61-1.04 2.72 4.19 8.8-5.71-2.7-4.2 1.6-1.04 3.95 6.1-10.42 6.75 2.65 4.1-1.61 1.04-6.6-10.19zm17.73-6.5c.44-.28.9-.37 1.4-.29a1.91 1.91 0 0 1 1.48 2.28c-.11.52-.39.91-.82 1.2-.42.26-.87.34-1.36.21-.5-.13-.89-.42-1.19-.89-.3-.45-.39-.91-.28-1.39s.36-.85.77-1.12zm-4.29 22.13.17.26 12.15-2.51 1.35 2.1-15.33 2.71-1.35-2.1 8.68-12.97 1.44 2.22-7.11 10.3zm4.19 9.8.85-1.85 11.76 5.98-.52-13.23 2.09-.05.42 15.82-.7.46-13.9-7.13zm-79.18 60.35-.65-.52 1.86-15.72 2.07.24-1.72 13.13 12.25-4.9.68 1.93-14.49 5.84zm7.03-27.27 2.89-3.68 11.94 9.37.52.38a25.32 25.32 0 0 0 2.06 1.25l1.19-1.51 1.47 1.15-2.38 3.02-1.91-1.14-.07.1c.3.77.4 1.64.27 2.6a5.56 5.56 0 0 1-1.2 2.7c-1.33 1.7-2.79 2.58-4.37 2.63-1.6.05-3.4-.71-5.4-2.3a9.15 9.15 0 0 1-2.2-2.38 6.17 6.17 0 0 1-.61-5.28c.3-.9.78-1.8 1.47-2.67a17.96 17.96 0 0 1 1.29-1.45c.2-.19.4-.36.6-.5l.65-.49-3.2-2.52-1.5 1.9-1.5-1.18zm13.5 12.77a3.94 3.94 0 0 0 .98-2.72 4.85 4.85 0 0 0-1.28-2.75l-5.24-4.12c-.48.16-.94.4-1.37.73-.43.33-.9.83-1.43 1.5a4.83 4.83 0 0 0-1.18 3.66c.16 1.24.99 2.45 2.5 3.63.6.49 1.23.88 1.85 1.19.62.3 1.23.48 1.83.53.6.04 1.18-.06 1.75-.32a4.4 4.4 0 0 0 1.59-1.33zm-3.23-23.16a1.9 1.9 0 0 1-.73-1.23c-.08-.5.05-.96.38-1.38.34-.44.77-.69 1.3-.75.52-.07.99.06 1.4.38.39.3.6.71.64 1.22.04.5-.1.98-.45 1.41a1.8 1.8 0 0 1-1.22.72c-.49.06-.92-.06-1.32-.37zm11.9 14.67-1.51-1.19 3.08-3.92-8.25-6.49-3.09 3.93-1.51-1.2 4.48-5.7 9.77 7.67 3.02-3.83 1.5 1.19-7.49 9.54zm10.42-17.78.2-.25-6.31-10.67 1.54-1.97 7.54 13.62-1.54 1.97-15.1-4.01 1.64-2.08 12.04 3.39zm7.92-7.14-2.03-.2 1.85-13.07-12.34 4.78-.73-1.95 14.83-5.54.66.52-2.24 15.46zm12.47-104-.23-.8 10.66-11.7 1.54 1.4-9.04 9.68 12.81 3.15-.56 1.96-15.18-3.7zm21.59-18.09 4.49-1.3 4.24 14.57.21.61a32.2 32.2 0 0 0 .95 2.22l1.84-.54.52 1.8-3.68 1.07-.9-2.04-.1.03c-.21.81-.64 1.57-1.3 2.27s-1.51 1.2-2.56 1.51c-2.07.6-3.76.46-5.08-.42s-2.34-2.55-3.06-5a9.16 9.16 0 0 1-.4-3.22 6.17 6.17 0 0 1 2.58-4.65c.77-.57 1.69-1 2.75-1.31a18.1 18.1 0 0 1 1.9-.44c.27-.04.52-.06.77-.06l.82-.01-1.14-3.91-2.32.67-.53-1.84zm3.54 18.25a3.94 3.94 0 0 0 2.38-1.64c.47-.76.66-1.76.56-2.98l-1.86-6.4a4.4 4.4 0 0 0-1.54-.2c-.54.02-1.22.15-2.04.39-1.47.42-2.5 1.19-3.09 2.28s-.62 2.57-.09 4.4c.22.76.5 1.44.82 2.05.33.62.72 1.11 1.18 1.5s1 .64 1.6.76c.62.12 1.3.07 2.08-.16zM181.4 894l-.53-1.85 4.8-1.4-2.94-10.07-4.8 1.4-.53-1.85 6.96-2.03 3.48 11.92 4.68-1.36.54 1.85-11.65 3.4zm-1.12-18.85c-.15-.5-.1-.98.12-1.43.23-.45.6-.76 1.11-.9a1.9 1.9 0 0 1 1.5.14c.45.25.76.63.9 1.13.14.47.08.93-.18 1.36-.26.44-.66.73-1.2.89a1.78 1.78 0 0 1-2.25-1.19zm19.96 10.46.3-.08 1.08-12.36 2.4-.7-1.8 15.47-2.4.7-9.93-12.05 2.53-.74 7.82 9.76zm10.59-1.2-1.53-1.34 9.11-9.55-12.82-3.3.55-2.01 15.28 4.14.23.8-10.82 11.26zM150.44 792l.06-.83 14.08-7.23.96 1.86-11.86 5.9 10.9 7.43-1.21 1.64-12.93-8.77zm26.55-9.38 4.66.34-1.12 15.14-.02.64a29.63 29.63 0 0 0 .11 2.41l1.92.14-.14 1.86-3.83-.28-.13-2.22-.1-.01a5.07 5.07 0 0 1-2.01 1.68c-.87.42-1.84.6-2.92.51-2.15-.15-3.7-.88-4.62-2.16-.93-1.29-1.3-3.21-1.11-5.77.09-1.2.34-2.25.75-3.15a6.19 6.19 0 0 1 4.04-3.46 8.79 8.79 0 0 1 3.03-.26 17.7 17.7 0 0 1 1.94.26c.26.05.5.13.74.21l.77.27.3-4.06-2.4-.18.14-1.91zm-3.07 18.32c1.16.09 2.1-.14 2.8-.7a4.85 4.85 0 0 0 1.57-2.6l.5-6.64c-.4-.31-.86-.56-1.37-.73a8.6 8.6 0 0 0-2.05-.35 4.83 4.83 0 0 0-3.7 1.06c-.93.82-1.47 2.19-1.62 4.1-.05.78-.04 1.51.06 2.2.09.69.28 1.3.58 1.81.3.52.7.95 1.24 1.27.53.33 1.2.52 2 .58zm11.88 2.46.15-1.91 4.98.36.77-10.47-4.98-.36.14-1.92 7.24.53-.91 12.4 4.86.35-.14 1.92-12.1-.9zm5.54-18.06c.04-.51.24-.94.61-1.29.37-.34.83-.5 1.36-.46a1.9 1.9 0 0 1 1.81 2.03c-.04.5-.26.9-.65 1.22-.4.32-.88.45-1.43.41a1.79 1.79 0 0 1-1.28-.6 1.72 1.72 0 0 1-.42-1.3zm15.04 16.79.31.03 5.34-11.2 2.48.18-7.1 13.86-2.48-.18-5.1-14.76 2.64.2 3.9 11.87zm10.34 2.58-.96-1.8 11.87-5.75-10.86-7.57 1.22-1.7 12.87 9.22-.06.83-14.08 6.77zm-34.45 36.08-.07-.83 12.77-9.36 1.24 1.68-10.78 7.7 11.94 5.62-.94 1.8-14.16-6.61zM207 827.33l4.67-.4 1.28 15.12.09.64.14.81a24.03 24.03 0 0 0 .35 1.55l1.91-.16.16 1.86-3.83.33-.47-2.18h-.12a5.06 5.06 0 0 1-1.71 1.98c-.79.56-1.72.88-2.8.98-2.15.18-3.79-.3-4.9-1.41-1.13-1.13-1.8-2.97-2.01-5.52a9.3 9.3 0 0 1 .24-3.23 6.2 6.2 0 0 1 1.27-2.44c.59-.68 1.31-1.21 2.18-1.61s1.85-.65 2.95-.74a19.92 19.92 0 0 1 1.95-.05c.27.01.52.04.77.1l.8.14-.35-4.06-2.4.2-.16-1.91zm-.12 18.58a3.94 3.94 0 0 0 2.65-1.14c.62-.65 1-1.6 1.14-2.81l-.56-6.64a4.48 4.48 0 0 0-1.46-.5 8.7 8.7 0 0 0-2.09-.03 4.83 4.83 0 0 0-3.47 1.64c-.8.96-1.12 2.4-.96 4.3.07.78.2 1.5.4 2.16.2.67.49 1.24.86 1.7.38.47.85.82 1.43 1.06a4.4 4.4 0 0 0 2.06.26zm12.12.55-.16-1.92 4.97-.42-.89-10.46-4.97.42-.17-1.91 7.23-.62 1.06 12.38 4.86-.41.16 1.91-12.09 1.03zm2.61-18.7c-.04-.52.1-.98.4-1.38.31-.4.74-.62 1.27-.67.55-.05 1.03.1 1.43.44.4.34.63.77.67 1.28.05.5-.1.93-.45 1.3-.34.38-.78.6-1.34.64a1.8 1.8 0 0 1-1.36-.4 1.72 1.72 0 0 1-.62-1.22zm17.51 14.2.3-.03 3.5-11.9 2.5-.21-4.82 14.8-2.5.22-7.35-13.77 2.63-.23 5.74 11.12zm10.61.91-1.23-1.62 10.81-7.56-11.92-5.77.94-1.86 14.16 7.07.07.83-12.83 8.9zm-125.25 215.2-.42-.72 7.56-13.9 1.84.98-6.47 11.56h13.2l-.1 2.03-15.61.05zm16.64-22.72 4.05-2.34 7.6 13.13.35.55a30.66 30.66 0 0 0 1.45 1.93l1.66-.97.94 1.62-3.32 1.92-1.36-1.77-.1.06c0 .84-.24 1.68-.71 2.52a5.56 5.56 0 0 1-2.12 2.07c-1.87 1.08-3.55 1.35-5.04.81-1.49-.54-2.88-1.91-4.16-4.13-.6-1.05-1-2.05-1.16-3.03s-.13-1.89.11-2.75c.24-.85.67-1.65 1.28-2.38a8.77 8.77 0 0 1 2.36-1.93 20.14 20.14 0 0 1 1.74-.88c.25-.1.5-.18.73-.24l.8-.2-2.05-3.53-2.09 1.2-.96-1.66zm7.8 16.87c1-.58 1.64-1.3 1.92-2.16.27-.85.22-1.86-.17-3.03l-3.34-5.76c-.5-.04-1.02.02-1.54.16-.52.15-1.15.44-1.9.87a4.83 4.83 0 0 0-2.44 2.96c-.31 1.2 0 2.64.97 4.3.4.67.82 1.27 1.28 1.78.47.52.97.91 1.5 1.17.54.27 1.12.38 1.74.36a4.36 4.36 0 0 0 1.98-.65zm11.2-4.66-.96-1.67 4.32-2.5-5.27-9.09-4.32 2.5-.96-1.66 6.28-3.64 6.23 10.76 4.22-2.45.96 1.67-10.5 6.08zm-5.6-18.04a1.9 1.9 0 0 1-.23-1.41c.11-.5.4-.88.86-1.15a1.9 1.9 0 0 1 1.49-.21c.5.13.9.42 1.15.87.25.43.3.89.15 1.38a2 2 0 0 1-.95 1.14c-.46.27-.93.34-1.4.21a1.7 1.7 0 0 1-1.08-.83zm21.88 5.39.27-.15-1.9-12.26 2.16-1.25 1.95 15.45-2.16 1.25-12.53-9.33 2.29-1.32 9.92 7.61zm10-3.7-1.81-.94 6.56-11.44-13.24-.14.05-2.09 15.83.37.42.72-7.82 13.52zM387.5 1080V874.24c0-59.66 48.36-108.01 108-108.01h478.28c59.65 0 108 48.35 108 108V1080H387.5z" fill="#FFF"/><path fill="#FF8630" d="M787.96 802.1V659.87H647.95v144.57h.06a70 70 0 0 0 140-.1c0-.75-.03-1.48-.05-2.22z"/><path d="M718 876.34c-38.97 0-70.85-31.18-71.96-69.91H646l-.06-2V657.86h144l.03 144.72c.02.58.03 1.16.03 1.75 0 39.7-32.3 72-72 72zm-68.05-73.82.06 1.9a68.1 68.1 0 0 0 68 67.91 68.07 68.07 0 0 0 67.97-69.61l-.02-.61V661.86H649.95v140.66z"/><defs><path id="c" d="M885.41 532.72c-2.2 0-4.37.12-6.51.35-19.61-69.06-82.96-119.8-158.35-120.17-75.38-.38-139.24 49.72-159.54 118.57a57.45 57.45 0 1 0 6.93 112.84c25.36 58.28 83.3 99.17 150.95 99.5 67.64.35 126-39.96 151.94-97.98a57.45 57.45 0 1 0 14.58-113.1z"/></defs><defs><path id="d" d="M719.72 745.82h-.84a167.62 167.62 0 0 1-152.1-99.2 59.52 59.52 0 0 1-72.02-58.41 59.52 59.52 0 0 1 59.44-59.15h.3c1.65 0 3.35.1 5.07.25a168.76 168.76 0 0 1 59.35-84.68 165.9 165.9 0 0 1 101.65-33.73c37.02.19 72.05 12.2 101.3 34.75a168.77 168.77 0 0 1 58.5 85.27 59.52 59.52 0 0 1 64.22 59.55 59.06 59.06 0 0 1-17.64 41.96 59.12 59.12 0 0 1-42.12 17.2 59.63 59.63 0 0 1-12.86-1.47 167.63 167.63 0 0 1-152.25 97.66zM569.1 641.96l.67 1.55a163.62 163.62 0 0 0 149.95 98.3 163.61 163.61 0 0 0 149.29-96.8l.69-1.54 1.63.42a55.7 55.7 0 0 0 13.52 1.74h.28c14.7 0 28.55-5.7 39-16.05a55.09 55.09 0 0 0 16.45-39.13 55.51 55.51 0 0 0-55.17-55.73c-2.01-.02-4.1.1-6.3.34l-1.67.18-.46-1.62a164.68 164.68 0 0 0-57.56-84.8 161.95 161.95 0 0 0-98.88-33.92h-.85a161.92 161.92 0 0 0-98.36 32.92 164.68 164.68 0 0 0-58.4 84.22l-.48 1.61-1.68-.2a56.35 56.35 0 0 0-6.28-.39h-.29a55.52 55.52 0 0 0-55.44 55.17 55.52 55.52 0 0 0 68.7 54.13l1.64-.4z"/></defs><use xlink:href="#c" overflow="visible" fill="#FF8630"/><use xlink:href="#d" overflow="visible"/><path fill="#FF8630" d="m525.17 573.17 35.05 38.47"/><path d="M560.22 613.64a2 2 0 0 1-1.48-.65l-35.05-38.48a2 2 0 1 1 2.96-2.69l35.05 38.48a2 2 0 0 1-1.48 3.34z"/><path fill="#FF8630" d="m907.44 575.09-35.43 38.12"/><path d="M872.01 615.21a2 2 0 0 1-1.47-3.36l35.44-38.12a2 2 0 0 1 2.93 2.72l-35.43 38.12a2 2 0 0 1-1.47.64z"/><path fill="#FF8630" d="m718.52 588.31-.16 31.79"/><path d="M718.36 622.1a2 2 0 0 1-2-2.01l.16-31.79a2 2 0 0 1 2-1.99h.01a2 2 0 0 1 2 2.01l-.17 31.79a2 2 0 0 1-2 1.99zm45.27 56.64v-.36a45.73 45.73 0 0 0-45.5-45.47h-.27a45.73 45.73 0 0 0-45.68 45h-.01v.5a45.73 45.73 0 0 0 45.5 45.48h.1l.16-.01a45.73 45.73 0 0 0 45.68-45h.02v-.14zm-109.7-86.52a21.9 21.9 0 1 1-43.8.23 21.9 21.9 0 0 1 43.8-.23z"/><path d="M602.74 593.26a2 2 0 0 1-1.65-3.12 55.05 55.05 0 0 1 45.26-24.16h.28a55.07 55.07 0 0 1 45.23 23.69 2 2 0 0 1-3.28 2.28 51.08 51.08 0 0 0-41.95-21.97h-.26a51.05 51.05 0 0 0-41.98 22.4 2 2 0 0 1-1.65.88zm194.14-1.78a21.9 21.9 0 1 1-43.8.23 21.9 21.9 0 0 1 43.8-.23z"/><path d="M745.68 592.52a2 2 0 0 1-1.65-3.12 55.06 55.06 0 0 1 45.27-24.16h.28a55.05 55.05 0 0 1 45.23 23.69 2 2 0 0 1-3.29 2.28 51.05 51.05 0 0 0-41.94-21.97h-.26a51.06 51.06 0 0 0-41.98 22.4 2 2 0 0 1-1.66.88z"/><path fill="#FF8630" d="m762.39 893.5.12-.09c-7.2-6.93-15.26-13.2-24.08-17.9-10.7-5.7-19.25-12.8-26.82-20.96-6.29-6.78-11.9-14.28-17.49-22.34l-26.34-37.96-27.85-40.13s.09-.06.07-.08a20.5 20.5 0 1 1 34.72-21.75l26.76 38.57.14-.1-35.3-50.87s.08-.06.06-.08a20.51 20.51 0 1 1 34.72-21.74l34.22 49.3.14-.09-42.75-61.61s.08-.06.06-.08a20.52 20.52 0 0 1 33.7-23.39c.38.53.7 1.08 1.02 1.63l41.67 60.07.15-.1-35.3-50.88s.07-.05.06-.08a20.5 20.5 0 1 1 34.72-21.74l43.92 63.3.96-.09-12.57-33.42s.09-.04.07-.06a20.52 20.52 0 1 1 38.96-12.71l30.11 79.73a57.86 57.86 0 0 1 2.26 43.24c-1.46 6.17-3.35 17.95.8 26.36l-.04.01"/><path d="M762.4 895.5a2 2 0 0 1-1.82-1.17c-7.51-7.15-15.27-12.88-23.09-17.05-10-5.33-18.95-12.32-27.35-21.37-5.54-5.97-10.99-12.93-17.66-22.56l-54.19-78.1a1.98 1.98 0 0 1-.27-.58 22.34 22.34 0 0 1-3.32-16.32 22.5 22.5 0 0 1 30.19-17.02l-.21-.3a2.02 2.02 0 0 1-.28-.58 22.54 22.54 0 0 1 6-30.82 22.52 22.52 0 0 1 20.87-2.53l-.2-.3a2.04 2.04 0 0 1-.28-.57 22.55 22.55 0 0 1 6-30.83 22.54 22.54 0 0 1 31.62 6.1 22.35 22.35 0 0 1 9.68-18.83 22.37 22.37 0 0 1 16.84-3.66 22.36 22.36 0 0 1 15.56 11.02l36.85 53.11-8.11-21.55c-.08-.2-.12-.4-.13-.61a22.55 22.55 0 0 1 13.29-28.47 22.54 22.54 0 0 1 29.64 14.99l30.06 79.58a60.2 60.2 0 0 1 2.34 44.57c-1.42 6-3.18 17.14.66 24.91a2 2 0 0 1-.74 2.58 2.02 2.02 0 0 1-2.98-1.07c-4.24-8.92-2.34-21-.81-27.44l.05-.19a56.18 56.18 0 0 0-2.24-41.88l-30.11-79.73a18.54 18.54 0 0 0-24.45-12.58 18.54 18.54 0 0 0-10.76 23.87c.07.19.11.4.12.6l12.38 32.89a2 2 0 0 1-1.74 2.7 13.54 13.54 0 0 0-.96.08 1.97 1.97 0 0 1-1.78-.86l-43.92-63.29-.1-.16a18.39 18.39 0 0 0-12.83-9.14c-4.87-.88-9.79.2-13.85 3.01a18.4 18.4 0 0 0-7.66 11.91 18.38 18.38 0 0 0 3.09 13.97c.08.14.14.28.2.44l34.95 50.39a2 2 0 0 1-.54 2.81l-.15.1a2 2 0 0 1-2.74-.53l-41.67-60.06-.1-.17a18.54 18.54 0 0 0-26.68-6.13 18.54 18.54 0 0 0-4.65 25.77c.11.17.2.36.26.55l42.43 61.14a2 2 0 0 1-.54 2.82l-.15.1a2 2 0 0 1-2.74-.54l-34.22-49.31-.1-.16a18.54 18.54 0 0 0-26.68-6.13 18.54 18.54 0 0 0-4.65 25.76c.12.17.2.36.27.55l34.97 50.4a2 2 0 0 1-.52 2.8l-.15.1a2 2 0 0 1-2.77-.52l-26.76-38.58-.1-.16a18.53 18.53 0 0 0-34.34 5.8c-.88 4.86.2 9.77 3.01 13.84a2 2 0 0 1 .27.55l53.86 77.62c6.56 9.46 11.9 16.28 17.3 22.12 8.2 8.83 16.56 15.36 26.3 20.55 8.33 4.45 16.58 10.58 24.53 18.23a2 2 0 0 1-.28 3.1l-.12.08c-.34.22-.73.33-1.1.33z"/><path d="M1081.79 1080 875.65 814.81 759.64 894.6 889.73 1080zM811.9 441.94S727.1 566.77 561 534.12c0 0 16.76-87.82 120.67-115.8 0 0 69.67-19.39 130.24 23.63z"/><path d="M878.04 535.75s-66.13 3.8-95.76-64.05l22.3-34.42s55.56 32.23 73.46 98.48z"/><path fill="#FF8630" d="m789.47 387.93 177.89-261.3"/><path fill="#FF8630" d="M789.46 389.93a2 2 0 0 1-1.65-3.13l177.9-261.3a2 2 0 0 1 3.3 2.26l-177.9 261.3a2 2 0 0 1-1.65.87z"/><path fill="#FF8630" d="M817.5 401.32 999.96 241.6"/><path fill="#FF8630" d="M817.5 403.32a2 2 0 0 1-1.32-3.5L998.65 240.1a2 2 0 1 1 2.63 3L818.82 402.84a2 2 0 0 1-1.32.5z"/><path fill="#FF8630" d="m844.79 422.29 136.49-57.95"/><path fill="#FF8630" d="M844.79 424.29a2 2 0 0 1-.78-3.85L980.5 362.5a2 2 0 1 1 1.56 3.68l-136.49 57.95a2 2 0 0 1-.78.16z"/><path fill="#FF8630" d="m1009.02 351.14 68.14-27.44"/><path fill="#FF8630" d="M1009.02 353.14a2 2 0 0 1-.75-3.86l68.14-27.44a2 2 0 0 1 1.5 3.71L1009.77 353a2 2 0 0 1-.75.15z"/><path fill="#FF8630" d="m761.97 379.55 70.77-230.34"/><path fill="#FF8630" d="M761.97 381.55a2 2 0 0 1-1.91-2.6l70.77-230.33a2 2 0 0 1 3.82 1.17l-70.77 230.34a2 2 0 0 1-1.9 1.42z"/><path fill="#FF8630" d="m732.42 375.37-.63-167.41"/><path fill="#FF8630" d="M732.42 377.37a2 2 0 0 1-2-2l-.63-167.4a2 2 0 1 1 4-.02l.63 167.41a2 2 0 0 1-2 2z"/><path fill="#FF8630" d="M866.15 445.57 994 440.2"/><path fill="#FF8630" d="M866.15 447.57a2 2 0 0 1-.08-4l127.85-5.37a2 2 0 0 1 .17 4l-127.85 5.37h-.09z"/><path d="M551.22 1080V919.73a2 2 0 0 1 4 0V1080"/></svg>
