<svg xmlns="http://www.w3.org/2000/svg" fill="none" viewBox="0 0 684 386"><path fill="#18191C" d="M0 0h684v386H0z"/><path fill="#663613" d="M146-55h149v210H146z"/><circle cx="221" cy="311" r="75" fill="#123E66"/><circle cx="220.5" cy="160.5" r="74.5" fill="#663613"/><path fill="#123E66" d="M146 386a73 73 0 10-146 0h146z"/><path fill="#123E66" d="M146 313a73 73 0 10-146 0h146z"/><path fill="#123E66" d="M146 240a73 73 0 10-146 0h146z"/><path fill="#123E66" d="M146 167a73 73 0 10-146 0h146zM684.5 0C578.18 0 492 86.19 492 192.5S578.18 385 684.5 385V0z"/></svg>
