<svg fill="none" xmlns="http://www.w3.org/2000/svg" viewBox="0 0 325 622">
  <path fill="#FFD829" d="M11.447 75.651h301.608V550.46H11.447z"/>
  <path d="M.497 546.976h323.507c0 41.231-33.424 74.655-74.655 74.655H75.153c-41.232 0-74.656-33.424-74.656-74.655Z" fill="#D9D9D9"/>
  <path d="M52.259 590.442c6.963 0 12.608-5.645 12.608-12.609 0-6.963-5.645-12.608-12.608-12.608-6.964 0-12.609 5.645-12.609 12.608 0 6.964 5.645 12.609 12.609 12.609Z" stroke="#353535" stroke-width="3" stroke-miterlimit="10" stroke-linecap="round" stroke-linejoin="round"/>
  <path d="m55.351 583.367-5.056-5.056a.658.658 0 0 1 0-.943l5.056-5.056M122.434 565.224c-6.964 0-12.609 5.645-12.609 12.609 0 6.963 5.645 12.608 12.609 12.608 6.963 0 12.608-5.645 12.608-12.608 0-6.964-5.645-12.609-12.608-12.609Z" stroke="#353535" stroke-width="3" stroke-miterlimit="10" stroke-linecap="round" stroke-linejoin="round"/>
  <path d="m119.341 572.299 5.057 5.057a.657.657 0 0 1 0 .942l-5.057 5.056M197.575 585.132a7.3 7.3 0 1 0 0-14.599 7.3 7.3 0 0 0 0 14.599Z" stroke="#353535" stroke-width="3" stroke-miterlimit="10" stroke-linecap="round" stroke-linejoin="round"/>
  <path d="m199.181 566.817 1.433-1.592c1.871.769 1.871.769 3.743 1.552l-.106 2.137a2.145 2.145 0 0 0 2.256 2.256l2.137-.106c.769 1.872.769 1.872 1.552 3.743l-1.592 1.433a2.148 2.148 0 0 0 0 3.186l1.592 1.433c-.769 1.871-.769 1.871-1.552 3.743l-2.137-.106a2.145 2.145 0 0 0-2.256 2.256l.106 2.137c-1.872.77-1.872.77-3.743 1.553l-1.433-1.593a2.15 2.15 0 0 0-3.186 0l-1.433 1.593c-1.871-.77-1.871-.77-3.743-1.553l.106-2.137a2.145 2.145 0 0 0-2.256-2.256l-2.137.106c-.769-1.872-.769-1.872-1.553-3.743l1.593-1.433a2.15 2.15 0 0 0 0-3.186l-1.593-1.433c.77-1.871.77-1.871 1.553-3.743l2.137.106a2.145 2.145 0 0 0 2.256-2.256l-.106-2.137c1.872-.769 1.872-.769 3.743-1.552l1.433 1.592c.85.943 2.323.943 3.186 0ZM270.751 581.069h3.981c.372 0 .664.292.664.664v6.636a.657.657 0 0 1-.664.664h-3.981a.657.657 0 0 1-.664-.664v-6.636c0-.372.292-.664.664-.664Z" stroke="#353535" stroke-width="3" stroke-miterlimit="10" stroke-linecap="round" stroke-linejoin="round"/>
  <path d="M267.432 589.033h-2.654a.657.657 0 0 1-.664-.664v-12.608h-3.981l12.21-8.999a.658.658 0 0 1 .783 0l12.224 8.999h-3.982v12.608a.665.665 0 0 1-.663.664h-2.655" stroke="#353535" stroke-width="3" stroke-miterlimit="10" stroke-linecap="round" stroke-linejoin="round"/>
  <path d="M0 75.651C0 34.422 33.424.996 74.655.996h174.196c41.232 0 74.656 33.424 74.656 74.656H0Z" fill="#D9D9D9"/>
  <rect x="28.871" y="41.315" width="266.76" height="27.862" rx="13.931" stroke="#353535" stroke-width="2"/>
  <path d="M111.149 53.36c.597 0 1.12.117 1.568.35.457.224.812.57 1.064 1.036.261.467.392 1.055.392 1.764v4.27h-.994v-4.172c0-.774-.196-1.358-.588-1.75-.383-.401-.924-.602-1.624-.602-.523 0-.98.108-1.372.322a2.155 2.155 0 0 0-.896.91c-.206.392-.308.868-.308 1.428v3.864h-.994V50.392h.994v5.054l-.196-.378a2.632 2.632 0 0 1 1.12-1.246c.513-.308 1.124-.462 1.834-.462Zm8.033 7.49c-.691 0-1.223-.186-1.596-.56-.374-.373-.56-.9-.56-1.582v-6.902h.994v6.846c0 .43.107.76.322.994.224.234.541.35.952.35.438 0 .802-.126 1.092-.378l.35.714a1.831 1.831 0 0 1-.714.392 2.82 2.82 0 0 1-.84.126Zm-3.472-6.594v-.826h4.55v.826h-4.55Zm8.968 6.594c-.691 0-1.223-.186-1.596-.56-.374-.373-.56-.9-.56-1.582v-6.902h.994v6.846c0 .43.107.76.322.994.224.234.541.35.952.35.438 0 .802-.126 1.092-.378l.35.714a1.831 1.831 0 0 1-.714.392 2.82 2.82 0 0 1-.84.126Zm-3.472-6.594v-.826h4.55v.826h-4.55Zm10.629 6.594a3.45 3.45 0 0 1-1.722-.434 3.306 3.306 0 0 1-1.232-1.274c-.298-.56-.448-1.241-.448-2.044 0-.802.15-1.48.448-2.03.299-.56.705-.984 1.218-1.274a3.475 3.475 0 0 1 1.736-.434c.7 0 1.326.159 1.876.476.56.308.999.747 1.316 1.316.318.56.476 1.209.476 1.946 0 .747-.158 1.4-.476 1.96-.317.56-.756.999-1.316 1.316-.55.318-1.176.476-1.876.476Zm-3.794 2.646V53.43h.952v2.212l-.098 1.47.14 1.484v4.9h-.994Zm3.724-3.528c.523 0 .99-.116 1.4-.35a2.67 2.67 0 0 0 .98-1.008c.243-.438.364-.942.364-1.512 0-.57-.121-1.068-.364-1.498a2.668 2.668 0 0 0-.98-1.008 2.697 2.697 0 0 0-1.4-.364c-.522 0-.994.122-1.414.364-.41.243-.737.579-.98 1.008-.233.43-.35.929-.35 1.498 0 .57.117 1.074.35 1.512.243.43.57.766.98 1.008.42.234.892.35 1.414.35Zm7.739.882a5.775 5.775 0 0 1-1.722-.252c-.542-.177-.966-.396-1.274-.658l.448-.784c.298.224.681.42 1.148.588.466.159.956.238 1.47.238.7 0 1.204-.107 1.512-.322.308-.224.462-.518.462-.882 0-.27-.089-.48-.266-.63a1.533 1.533 0 0 0-.672-.35 7.41 7.41 0 0 0-.938-.21 20.076 20.076 0 0 1-1.036-.196 3.998 3.998 0 0 1-.924-.322c-.28-.15-.509-.35-.686-.602-.168-.252-.252-.588-.252-1.008 0-.401.112-.76.336-1.078.224-.317.55-.564.98-.742.438-.186.97-.28 1.596-.28.476 0 .952.066 1.428.196.476.122.868.285 1.176.49l-.434.798a3.235 3.235 0 0 0-1.05-.476 4.212 4.212 0 0 0-1.12-.154c-.663 0-1.153.117-1.47.35-.308.224-.462.514-.462.868 0 .28.084.5.252.658.177.159.406.285.686.378.289.084.602.154.938.21.345.056.686.126 1.022.21.345.075.658.182.938.322.289.13.518.322.686.574.177.243.266.565.266.966 0 .43-.122.803-.364 1.12-.234.308-.579.55-1.036.728-.448.168-.994.252-1.638.252Zm4.959-5.964a.729.729 0 0 1-.532-.224.77.77 0 0 1-.21-.546c0-.224.07-.406.21-.546.15-.14.327-.21.532-.21.206 0 .378.07.518.21.15.14.224.322.224.546a.74.74 0 0 1-.224.546.681.681 0 0 1-.518.224Zm0 5.964a.729.729 0 0 1-.532-.224.77.77 0 0 1-.21-.546c0-.224.07-.406.21-.546.15-.14.327-.21.532-.21.206 0 .378.07.518.21.15.14.224.322.224.546a.74.74 0 0 1-.224.546.681.681 0 0 1-.518.224Zm1.762 1.33 4.62-13.188h.91l-4.62 13.188h-.91Zm3.787 0 4.62-13.188h.91l-4.62 13.188h-.91Zm8.395-1.33c-.7 0-1.33-.158-1.89-.476a3.453 3.453 0 0 1-1.302-1.316c-.318-.57-.476-1.222-.476-1.96 0-.746.158-1.4.476-1.96.317-.56.751-.994 1.302-1.302.56-.317 1.19-.476 1.89-.476.644 0 1.218.145 1.722.434.513.29.919.714 1.218 1.274.308.55.462 1.228.462 2.03 0 .794-.15 1.47-.448 2.03-.299.56-.705.99-1.218 1.288-.504.29-1.083.434-1.736.434Zm.07-.882c.522 0 .989-.116 1.4-.35a2.55 2.55 0 0 0 .98-1.008c.242-.438.364-.942.364-1.512 0-.578-.122-1.082-.364-1.512-.234-.43-.56-.76-.98-.994a2.702 2.702 0 0 0-1.4-.364c-.514 0-.976.122-1.386.364a2.565 2.565 0 0 0-.98.994c-.243.43-.364.934-.364 1.512 0 .57.121 1.074.364 1.512.242.43.569.766.98 1.008.41.234.872.35 1.386.35Zm2.772.812v-2.212l.098-1.484-.14-1.484v-5.208h.994V60.78h-.952Zm6.716.07c-.709 0-1.349-.158-1.918-.476a3.638 3.638 0 0 1-1.33-1.33c-.327-.57-.49-1.218-.49-1.946 0-.737.163-1.386.49-1.946.327-.56.77-.998 1.33-1.316.56-.317 1.199-.476 1.918-.476.728 0 1.372.159 1.932.476a3.402 3.402 0 0 1 1.33 1.316c.327.56.49 1.209.49 1.946 0 .728-.163 1.377-.49 1.946a3.5 3.5 0 0 1-1.33 1.33c-.569.318-1.213.476-1.932.476Zm0-.882c.532 0 1.003-.116 1.414-.35a2.57 2.57 0 0 0 .966-1.008c.243-.438.364-.942.364-1.512 0-.578-.121-1.082-.364-1.512a2.472 2.472 0 0 0-.966-.994 2.7 2.7 0 0 0-1.4-.364 2.7 2.7 0 0 0-1.4.364 2.572 2.572 0 0 0-.98.994c-.243.43-.364.934-.364 1.512 0 .57.121 1.074.364 1.512.243.43.569.766.98 1.008.411.234.873.35 1.386.35Zm6.565-1.092.028-1.274 4.578-4.172h1.218l-3.234 3.094-.56.476-2.03 1.876Zm-.784 1.904V50.392h.994V60.78h-.994Zm5.698 0-3.066-3.822.644-.77 3.64 4.592h-1.218Zm7.18 0v-1.624l-.042-.266v-2.716c0-.625-.177-1.106-.532-1.442-.345-.336-.863-.504-1.554-.504-.476 0-.929.08-1.358.238a3.464 3.464 0 0 0-1.092.63l-.448-.742c.373-.317.821-.56 1.344-.728a5.105 5.105 0 0 1 1.652-.266c.952 0 1.685.238 2.198.714.523.467.784 1.18.784 2.142v4.564h-.952Zm-2.534.07c-.551 0-1.031-.088-1.442-.266-.401-.186-.709-.438-.924-.756a1.99 1.99 0 0 1-.322-1.12c0-.382.089-.728.266-1.036.187-.317.485-.57.896-.756.42-.196.98-.294 1.68-.294h2.534v.742h-2.506c-.709 0-1.204.126-1.484.378a1.228 1.228 0 0 0-.406.938c0 .42.163.756.49 1.008.327.252.784.378 1.372.378.56 0 1.041-.126 1.442-.378.411-.261.709-.634.896-1.12l.224.686a2.326 2.326 0 0 1-.98 1.162c-.457.29-1.036.434-1.736.434Zm6.284 0a.725.725 0 0 1-.532-.224.77.77 0 0 1-.21-.546c0-.224.07-.406.21-.546a.75.75 0 0 1 .532-.21c.205 0 .378.07.518.21.149.14.224.322.224.546a.744.744 0 0 1-.224.546.683.683 0 0 1-.518.224Zm5.799 2.716a6.333 6.333 0 0 1-1.932-.294c-.616-.196-1.115-.476-1.498-.84l.504-.756c.346.308.77.55 1.274.728a4.72 4.72 0 0 0 1.624.28c.934 0 1.62-.22 2.058-.658.439-.43.658-1.101.658-2.016v-1.834l.14-1.26-.098-1.26V53.43h.952v6.454c0 1.27-.312 2.198-.938 2.786-.616.598-1.53.896-2.744.896Zm-.182-3.066c-.7 0-1.33-.15-1.89-.448a3.492 3.492 0 0 1-1.33-1.274c-.317-.541-.476-1.162-.476-1.862 0-.7.159-1.316.476-1.848.327-.541.77-.961 1.33-1.26.56-.298 1.19-.448 1.89-.448.654 0 1.242.136 1.764.406.523.27.938.672 1.246 1.204.308.532.462 1.18.462 1.946s-.154 1.414-.462 1.946a3.124 3.124 0 0 1-1.246 1.218c-.522.28-1.11.42-1.764.42Zm.098-.882c.542 0 1.022-.112 1.442-.336.42-.233.752-.55.994-.952.243-.41.364-.882.364-1.414 0-.532-.121-.998-.364-1.4a2.526 2.526 0 0 0-.994-.938c-.42-.233-.9-.35-1.442-.35-.532 0-1.012.117-1.442.35-.42.224-.751.537-.994.938-.233.402-.35.868-.35 1.4 0 .532.117 1.004.35 1.414.243.402.574.719.994.952.43.224.91.336 1.442.336Zm9.57 1.232c-.625 0-1.171-.116-1.638-.35a2.53 2.53 0 0 1-1.092-1.05c-.252-.466-.378-1.05-.378-1.75v-4.27h.994v4.158c0 .784.192 1.377.574 1.778.392.392.938.588 1.638.588.514 0 .957-.102 1.33-.308.383-.214.672-.522.868-.924.206-.401.308-.882.308-1.442v-3.85h.994v7.35h-.952v-2.016l.154.364a2.741 2.741 0 0 1-1.092 1.274c-.485.299-1.054.448-1.708.448Zm6.369-.07v-7.35h.994v7.35h-.994Zm.504-8.974a.703.703 0 0 1-.518-.21.687.687 0 0 1-.21-.504c0-.196.07-.36.21-.49.14-.14.312-.21.518-.21a.73.73 0 0 1 .518.196c.14.13.21.294.21.49 0 .206-.07.378-.21.518a.677.677 0 0 1-.518.21Zm6.181 9.044c-.7 0-1.33-.158-1.89-.476a3.467 3.467 0 0 1-1.302-1.316c-.317-.57-.476-1.222-.476-1.96 0-.746.159-1.4.476-1.96.318-.56.752-.994 1.302-1.302.56-.317 1.19-.476 1.89-.476.644 0 1.218.145 1.722.434.514.29.92.714 1.218 1.274.308.55.462 1.228.462 2.03 0 .794-.149 1.47-.448 2.03-.298.56-.704.99-1.218 1.288-.504.29-1.082.434-1.736.434Zm.07-.882c.523 0 .99-.116 1.4-.35.42-.242.747-.578.98-1.008.243-.438.364-.942.364-1.512 0-.578-.121-1.082-.364-1.512-.233-.43-.56-.76-.98-.994a2.697 2.697 0 0 0-1.4-.364c-.513 0-.975.122-1.386.364-.41.234-.737.565-.98.994-.242.43-.364.934-.364 1.512 0 .57.122 1.074.364 1.512.243.43.57.766.98 1.008.411.234.873.35 1.386.35Zm2.772.812v-2.212l.098-1.484-.14-1.484v-5.208h.994V60.78h-.952Zm6.843.07c-.766 0-1.438-.158-2.016-.476a3.568 3.568 0 0 1-1.358-1.33c-.327-.57-.49-1.218-.49-1.946s.154-1.372.462-1.932c.317-.56.746-.998 1.288-1.316a3.55 3.55 0 0 1 1.848-.49c.69 0 1.302.159 1.834.476.541.308.966.747 1.274 1.316.308.56.462 1.209.462 1.946a.982.982 0 0 1-.014.154v.154h-6.398v-.742h5.866l-.392.294c0-.532-.117-1.003-.35-1.414a2.462 2.462 0 0 0-.924-.98c-.392-.233-.845-.35-1.358-.35a2.65 2.65 0 0 0-1.358.35c-.402.234-.714.56-.938.98-.224.42-.336.9-.336 1.442v.154c0 .56.121 1.055.364 1.484.252.42.597.752 1.036.994.448.234.956.35 1.526.35.448 0 .863-.08 1.246-.238a2.593 2.593 0 0 0 1.008-.728l.56.644c-.327.392-.738.69-1.232.896a4.094 4.094 0 0 1-1.61.308Zm3.591 1.33 4.62-13.188h.91l-4.62 13.188h-.91Z" fill="#353535"/>
  <path fill-rule="evenodd" clip-rule="evenodd" d="M287.175 621.935H44.295c-15.17-1.28-23.008-3.673-34.092-15.18C2.919 596.079.116 589.559 0 575.897V42.857c.765-10.424 2.99-16.405 10.95-27.373C18.37 7.4 27.87 1.797 35.585.553c7.714-1.244 247.856 0 247.856 0 14.896.977 20.432 5.868 29.862 14.682s11.278 26.292 10.701 27.623L325 575.897c-1.114 13.94-3.297 20.348-10.203 29.614-7.897 9.96-13.94 13.562-27.622 16.424ZM12.194 575.897l.249-533.04c1.226-7.535 3.172-11.632 8.71-18.663 5.92-5.722 10.316-7.931 19.659-10.452h61.964c-.173 5.722.317 7.587 2.986 12.94 3.032 3.685 6.453 6.165 11.696 7.963h91.08c5.073-2.088 7.5-3.886 10.949-8.46 1.86-4.773 2.432-7.49 2.24-12.443h61.715c10.439 2.317 14.843 4.811 20.654 10.95 5.415 7.095 7.05 11.07 8.213 18.166v533.039c-.316 8.44-2.162 12.643-6.968 19.66-6.031 6.531-10.001 9.24-18.166 12.193l-242.88.498c-11.727-1.451-16.97-3.947-24.138-11.198-5.279-7.039-6.981-11.703-7.963-21.153Z" fill="#353535"/>
  <path fill="#000" d="M127.412 20.903h49.77v4.977h-49.77z"/>
  <circle cx="193.607" cy="23.392" fill="#000" r="2.489"/>
  <path d="m75.944 305-4.752-12.6h1.632l4.32 11.688H76.4l4.44-11.688h1.464l4.392 11.688h-.744l4.392-11.688h1.56L87.128 305H85.52l-4.224-10.992h.504L77.552 305h-1.608Zm18.526 0v-12.6h1.704V305H94.47Zm.864-15.384c-.352 0-.648-.12-.888-.36s-.36-.528-.36-.864c0-.336.12-.616.36-.84.24-.24.536-.36.888-.36s.648.112.888.336c.24.224.36.504.36.84 0 .352-.12.648-.36.888-.224.24-.52.36-.888.36Zm10.597 15.504c-1.2 0-2.28-.272-3.24-.816a5.927 5.927 0 0 1-2.232-2.256c-.544-.976-.816-2.096-.816-3.36 0-1.28.272-2.4.816-3.36a5.755 5.755 0 0 1 2.232-2.232c.96-.544 2.04-.816 3.24-.816 1.104 0 2.088.248 2.952.744.88.496 1.576 1.224 2.088 2.184.528.944.792 2.104.792 3.48 0 1.36-.256 2.52-.768 3.48s-1.208 1.696-2.088 2.208c-.864.496-1.856.744-2.976.744Zm.12-1.512c.896 0 1.696-.2 2.4-.6a4.364 4.364 0 0 0 1.68-1.728c.416-.752.624-1.616.624-2.592 0-.992-.208-1.856-.624-2.592a4.202 4.202 0 0 0-1.68-1.704c-.704-.416-1.504-.624-2.4-.624-.88 0-1.672.208-2.376.624a4.41 4.41 0 0 0-1.68 1.704c-.416.736-.624 1.6-.624 2.592 0 .976.208 1.84.624 2.592a4.587 4.587 0 0 0 1.68 1.728c.704.4 1.496.6 2.376.6Zm4.752 1.392v-3.792l.168-2.544-.24-2.544v-8.928h1.704V305h-1.632Zm10.432.12c-1.184 0-2.096-.32-2.736-.96-.64-.64-.96-1.544-.96-2.712v-11.832h1.704v11.736c0 .736.184 1.304.552 1.704.384.4.928.6 1.632.6.752 0 1.376-.216 1.872-.648l.6 1.224a3.139 3.139 0 0 1-1.224.672 4.83 4.83 0 0 1-1.44.216Zm-5.952-11.304V292.4h7.8v1.416h-7.8Zm18.15-1.536c1.024 0 1.92.2 2.688.6.784.384 1.392.976 1.824 1.776.448.8.672 1.808.672 3.024V305h-1.704v-7.152c0-1.328-.336-2.328-1.008-3-.656-.688-1.584-1.032-2.784-1.032-.896 0-1.68.184-2.352.552a3.705 3.705 0 0 0-1.536 1.56c-.352.672-.528 1.488-.528 2.448V305h-1.704v-17.808h1.704v8.664l-.336-.648a4.52 4.52 0 0 1 1.92-2.136c.88-.528 1.928-.792 3.144-.792Zm9.955 2.616c-.352 0-.656-.128-.912-.384a1.318 1.318 0 0 1-.36-.936c0-.384.12-.696.36-.936.256-.24.56-.36.912-.36s.648.12.888.36c.256.24.384.552.384.936 0 .368-.128.68-.384.936-.24.256-.536.384-.888.384Zm0 10.224c-.352 0-.656-.128-.912-.384a1.318 1.318 0 0 1-.36-.936c0-.384.12-.696.36-.936.256-.24.56-.36.912-.36s.648.12.888.36c.256.24.384.552.384.936 0 .368-.128.68-.384.936-.24.256-.536.384-.888.384Zm12.999-.12v-16.08l.768.816h-4.728V288.2h5.688V305h-1.728Zm12.44.144c-1.296 0-2.448-.336-3.456-1.008-1.008-.688-1.8-1.664-2.376-2.928-.576-1.28-.864-2.816-.864-4.608 0-1.792.288-3.32.864-4.584.576-1.28 1.368-2.256 2.376-2.928 1.008-.688 2.16-1.032 3.456-1.032 1.296 0 2.448.344 3.456 1.032 1.008.672 1.8 1.648 2.376 2.928.592 1.264.888 2.792.888 4.584 0 1.792-.296 3.328-.888 4.608-.576 1.264-1.368 2.24-2.376 2.928-1.008.672-2.16 1.008-3.456 1.008Zm0-1.584c.992 0 1.856-.264 2.592-.792.736-.544 1.312-1.328 1.728-2.352.416-1.04.624-2.312.624-3.816s-.208-2.768-.624-3.792c-.416-1.04-.992-1.824-1.728-2.352-.736-.544-1.6-.816-2.592-.816-.96 0-1.816.272-2.568.816-.752.528-1.336 1.312-1.752 2.352-.416 1.024-.624 2.288-.624 3.792s.208 2.776.624 3.816c.416 1.024 1 1.808 1.752 2.352.752.528 1.608.792 2.568.792Zm15.89 1.584c-1.296 0-2.448-.336-3.456-1.008-1.008-.688-1.8-1.664-2.376-2.928-.576-1.28-.864-2.816-.864-4.608 0-1.792.288-3.32.864-4.584.576-1.28 1.368-2.256 2.376-2.928 1.008-.688 2.16-1.032 3.456-1.032 1.296 0 2.448.344 3.456 1.032 1.008.672 1.8 1.648 2.376 2.928.592 1.264.888 2.792.888 4.584 0 1.792-.296 3.328-.888 4.608-.576 1.264-1.368 2.24-2.376 2.928-1.008.672-2.16 1.008-3.456 1.008Zm0-1.584c.992 0 1.856-.264 2.592-.792.736-.544 1.312-1.328 1.728-2.352.416-1.04.624-2.312.624-3.816s-.208-2.768-.624-3.792c-.416-1.04-.992-1.824-1.728-2.352-.736-.544-1.6-.816-2.592-.816-.96 0-1.816.272-2.568.816-.752.528-1.336 1.312-1.752 2.352-.416 1.024-.624 2.288-.624 3.792s.208 2.776.624 3.816c.416 1.024 1 1.808 1.752 2.352.752.528 1.608.792 2.568.792Zm15.339 1.56c-1.2 0-2.28-.272-3.24-.816a5.927 5.927 0 0 1-2.232-2.256c-.544-.976-.816-2.096-.816-3.36 0-1.28.272-2.4.816-3.36a5.755 5.755 0 0 1 2.232-2.232c.96-.544 2.04-.816 3.24-.816 1.104 0 2.088.248 2.952.744.88.496 1.576 1.224 2.088 2.184.528.944.792 2.104.792 3.48 0 1.36-.256 2.52-.768 3.48s-1.208 1.696-2.088 2.208c-.864.496-1.856.744-2.976.744Zm.12-1.512c.896 0 1.696-.2 2.4-.6a4.364 4.364 0 0 0 1.68-1.728c.416-.752.624-1.616.624-2.592 0-.992-.208-1.856-.624-2.592a4.202 4.202 0 0 0-1.68-1.704c-.704-.416-1.504-.624-2.4-.624-.88 0-1.672.208-2.376.624a4.41 4.41 0 0 0-1.68 1.704c-.416.736-.624 1.6-.624 2.592 0 .976.208 1.84.624 2.592a4.587 4.587 0 0 0 1.68 1.728c.704.4 1.496.6 2.376.6Zm4.752 1.392v-3.792l.168-2.544-.24-2.544v-8.928h1.704V305h-1.632Zm9.618 0-5.592-12.6h1.776l5.136 11.688h-.84l5.208-11.688h1.68l-5.616 12.6h-1.752Zm12.218 0-4.752-12.6h1.632l4.32 11.688h-.744l4.44-11.688h1.464l4.392 11.688h-.744l4.392-11.688h1.56l-4.776 12.6h-1.608l-4.224-10.992h.504L228.372 305h-1.608Zm18.882-10.104c-.352 0-.656-.128-.912-.384a1.318 1.318 0 0 1-.36-.936c0-.384.12-.696.36-.936.256-.24.56-.36.912-.36s.648.12.888.36c.256.24.384.552.384.936 0 .368-.128.68-.384.936-.24.256-.536.384-.888.384Zm-1.2 13.608 1.056-4.44.192 1.032c-.368 0-.68-.12-.936-.36-.24-.24-.36-.552-.36-.936s.12-.696.36-.936c.256-.24.56-.36.912-.36.368 0 .664.128.888.384.24.256.36.56.36.912a2.68 2.68 0 0 1-.12.816c-.048.16-.112.352-.192.576l-1.008 3.312h-1.152ZM79.808 321.28c1.024 0 1.92.2 2.688.6.784.384 1.392.976 1.824 1.776.448.8.672 1.808.672 3.024V334h-1.704v-7.152c0-1.328-.336-2.328-1.008-3-.656-.688-1.584-1.032-2.784-1.032-.896 0-1.68.184-2.352.552a3.705 3.705 0 0 0-1.536 1.56c-.352.672-.528 1.488-.528 2.448V334h-1.704v-17.808h1.704v8.664l-.336-.648a4.52 4.52 0 0 1 1.92-2.136c.88-.528 1.928-.792 3.144-.792Zm15.139 12.84c-1.312 0-2.464-.272-3.456-.816a6.129 6.129 0 0 1-2.328-2.28c-.56-.976-.84-2.088-.84-3.336 0-1.248.264-2.352.792-3.312a5.98 5.98 0 0 1 2.208-2.256c.944-.56 2-.84 3.168-.84 1.184 0 2.232.272 3.144.816.928.528 1.656 1.28 2.184 2.256.528.96.792 2.072.792 3.336 0 .08-.008.168-.024.264v.264H89.619v-1.272h10.056l-.672.504c0-.912-.2-1.72-.6-2.424a4.222 4.222 0 0 0-1.584-1.68c-.672-.4-1.448-.6-2.328-.6-.864 0-1.64.2-2.328.6-.688.4-1.224.96-1.608 1.68-.384.72-.576 1.544-.576 2.472v.264c0 .96.208 1.808.624 2.544a4.662 4.662 0 0 0 1.776 1.704c.768.4 1.64.6 2.616.6.768 0 1.48-.136 2.136-.408a4.443 4.443 0 0 0 1.728-1.248l.96 1.104a5.388 5.388 0 0 1-2.112 1.536c-.832.352-1.752.528-2.76.528Zm9.132-.12v-12.6h1.704V334h-1.704Zm.864-15.384c-.352 0-.648-.12-.888-.36s-.36-.528-.36-.864c0-.336.12-.616.36-.84.24-.24.536-.36.888-.36s.648.112.888.336c.24.224.36.504.36.84 0 .352-.12.648-.36.888-.224.24-.52.36-.888.36Zm10.957 20.16c-1.152 0-2.256-.168-3.312-.504-1.056-.336-1.912-.816-2.568-1.44l.864-1.296c.592.528 1.32.944 2.184 1.248.88.32 1.808.48 2.784.48 1.6 0 2.776-.376 3.528-1.128.752-.736 1.128-1.888 1.128-3.456v-3.144l.24-2.16-.168-2.16V321.4h1.632v11.064c0 2.176-.536 3.768-1.608 4.776-1.056 1.024-2.624 1.536-4.704 1.536Zm-.312-5.256c-1.2 0-2.28-.256-3.24-.768a5.981 5.981 0 0 1-2.28-2.184c-.544-.928-.816-1.992-.816-3.192 0-1.2.272-2.256.816-3.168a5.806 5.806 0 0 1 2.28-2.16c.96-.512 2.04-.768 3.24-.768 1.12 0 2.128.232 3.024.696.896.464 1.608 1.152 2.136 2.064.528.912.792 2.024.792 3.336 0 1.312-.264 2.424-.792 3.336a5.359 5.359 0 0 1-2.136 2.088c-.896.48-1.904.72-3.024.72Zm.168-1.512c.928 0 1.752-.192 2.472-.576.72-.4 1.288-.944 1.704-1.632.416-.704.624-1.512.624-2.424 0-.912-.208-1.712-.624-2.4a4.338 4.338 0 0 0-1.704-1.608c-.72-.4-1.544-.6-2.472-.6-.912 0-1.736.2-2.472.6-.72.384-1.288.92-1.704 1.608-.4.688-.6 1.488-.6 2.4 0 .912.2 1.72.6 2.424a4.515 4.515 0 0 0 1.704 1.632c.736.384 1.56.576 2.472.576Zm17.63-10.728c1.024 0 1.92.2 2.688.6.784.384 1.392.976 1.824 1.776.448.8.672 1.808.672 3.024V334h-1.704v-7.152c0-1.328-.336-2.328-1.008-3-.656-.688-1.584-1.032-2.784-1.032-.896 0-1.68.184-2.352.552a3.705 3.705 0 0 0-1.536 1.56c-.352.672-.528 1.488-.528 2.448V334h-1.704v-17.808h1.704v8.664l-.336-.648a4.52 4.52 0 0 1 1.92-2.136c.88-.528 1.928-.792 3.144-.792Zm13.771 12.84c-1.184 0-2.096-.32-2.736-.96-.64-.64-.96-1.544-.96-2.712v-11.832h1.704v11.736c0 .736.184 1.304.552 1.704.384.4.928.6 1.632.6.752 0 1.376-.216 1.872-.648l.6 1.224a3.139 3.139 0 0 1-1.224.672 4.83 4.83 0 0 1-1.44.216Zm-5.952-11.304V321.4h7.8v1.416h-7.8Zm11.886 1.08c-.352 0-.656-.128-.912-.384a1.318 1.318 0 0 1-.36-.936c0-.384.12-.696.36-.936.256-.24.56-.36.912-.36s.648.12.888.36c.256.24.384.552.384.936 0 .368-.128.68-.384.936-.24.256-.536.384-.888.384Zm0 10.224c-.352 0-.656-.128-.912-.384a1.318 1.318 0 0 1-.36-.936c0-.384.12-.696.36-.936.256-.24.56-.36.912-.36s.648.12.888.36c.256.24.384.552.384.936 0 .368-.128.68-.384.936-.24.256-.536.384-.888.384Zm12.999-.12v-16.08l.768.816h-4.728V317.2h5.688V334h-1.728Zm12.44.144c-1.296 0-2.448-.336-3.456-1.008-1.008-.688-1.8-1.664-2.376-2.928-.576-1.28-.864-2.816-.864-4.608 0-1.792.288-3.32.864-4.584.576-1.28 1.368-2.256 2.376-2.928 1.008-.688 2.16-1.032 3.456-1.032 1.296 0 2.448.344 3.456 1.032 1.008.672 1.8 1.648 2.376 2.928.592 1.264.888 2.792.888 4.584 0 1.792-.296 3.328-.888 4.608-.576 1.264-1.368 2.24-2.376 2.928-1.008.672-2.16 1.008-3.456 1.008Zm0-1.584c.992 0 1.856-.264 2.592-.792.736-.544 1.312-1.328 1.728-2.352.416-1.04.624-2.312.624-3.816s-.208-2.768-.624-3.792c-.416-1.04-.992-1.824-1.728-2.352-.736-.544-1.6-.816-2.592-.816-.96 0-1.816.272-2.568.816-.752.528-1.336 1.312-1.752 2.352-.416 1.024-.624 2.288-.624 3.792s.208 2.776.624 3.816c.416 1.024 1 1.808 1.752 2.352.752.528 1.608.792 2.568.792Zm15.891 1.584c-1.296 0-2.448-.336-3.456-1.008-1.008-.688-1.8-1.664-2.376-2.928-.576-1.28-.864-2.816-.864-4.608 0-1.792.288-3.32.864-4.584.576-1.28 1.368-2.256 2.376-2.928 1.008-.688 2.16-1.032 3.456-1.032 1.296 0 2.448.344 3.456 1.032 1.008.672 1.8 1.648 2.376 2.928.592 1.264.888 2.792.888 4.584 0 1.792-.296 3.328-.888 4.608-.576 1.264-1.368 2.24-2.376 2.928-1.008.672-2.16 1.008-3.456 1.008Zm0-1.584c.992 0 1.856-.264 2.592-.792.736-.544 1.312-1.328 1.728-2.352.416-1.04.624-2.312.624-3.816s-.208-2.768-.624-3.792c-.416-1.04-.992-1.824-1.728-2.352-.736-.544-1.6-.816-2.592-.816-.96 0-1.816.272-2.568.816-.752.528-1.336 1.312-1.752 2.352-.416 1.024-.624 2.288-.624 3.792s.208 2.776.624 3.816c.416 1.024 1 1.808 1.752 2.352.752.528 1.608.792 2.568.792Zm15.338 1.56c-1.2 0-2.28-.272-3.24-.816a5.927 5.927 0 0 1-2.232-2.256c-.544-.976-.816-2.096-.816-3.36 0-1.28.272-2.4.816-3.36a5.755 5.755 0 0 1 2.232-2.232c.96-.544 2.04-.816 3.24-.816 1.104 0 2.088.248 2.952.744.88.496 1.576 1.224 2.088 2.184.528.944.792 2.104.792 3.48 0 1.36-.256 2.52-.768 3.48s-1.208 1.696-2.088 2.208c-.864.496-1.856.744-2.976.744Zm.12-1.512c.896 0 1.696-.2 2.4-.6a4.364 4.364 0 0 0 1.68-1.728c.416-.752.624-1.616.624-2.592 0-.992-.208-1.856-.624-2.592a4.202 4.202 0 0 0-1.68-1.704c-.704-.416-1.504-.624-2.4-.624-.88 0-1.672.208-2.376.624a4.41 4.41 0 0 0-1.68 1.704c-.416.736-.624 1.6-.624 2.592 0 .976.208 1.84.624 2.592a4.587 4.587 0 0 0 1.68 1.728c.704.4 1.496.6 2.376.6Zm4.752 1.392v-3.792l.168-2.544-.24-2.544v-8.928h1.704V334h-1.632Zm9.618 0-5.592-12.6h1.776l5.136 11.688h-.84l5.208-11.688h1.68l-5.616 12.6h-1.752Zm16.2-12.72c1.024 0 1.92.2 2.688.6.784.384 1.392.976 1.824 1.776.448.8.672 1.808.672 3.024V334h-1.704v-7.152c0-1.328-.336-2.328-1.008-3-.656-.688-1.584-1.032-2.784-1.032-.896 0-1.68.184-2.352.552a3.705 3.705 0 0 0-1.536 1.56c-.352.672-.528 1.488-.528 2.448V334h-1.704v-17.808h1.704v8.664l-.336-.648a4.52 4.52 0 0 1 1.92-2.136c.88-.528 1.928-.792 3.144-.792Zm9.954 2.616c-.352 0-.656-.128-.912-.384a1.318 1.318 0 0 1-.36-.936c0-.384.12-.696.36-.936.256-.24.56-.36.912-.36s.648.12.888.36c.256.24.384.552.384.936 0 .368-.128.68-.384.936-.24.256-.536.384-.888.384Zm-1.2 13.608 1.056-4.44.192 1.032c-.368 0-.68-.12-.936-.36-.24-.24-.36-.552-.36-.936s.12-.696.36-.936c.256-.24.56-.36.912-.36.368 0 .664.128.888.384.24.256.36.56.36.912a2.68 2.68 0 0 1-.12.816c-.048.16-.112.352-.192.576l-1.008 3.312h-1.152Z" fill="#353535"/>
</svg>
