<svg width="325" height="622" viewBox="0 0 325 622" fill="none" xmlns="http://www.w3.org/2000/svg">
<rect x="11.4473" y="75.6514" width="301.608" height="474.809" fill="#FBD568"/>
<path d="M0.49707 546.976H324.004C324.004 588.207 290.58 621.631 249.349 621.631H75.1525C33.9214 621.631 0.49707 588.207 0.49707 546.976Z" fill="#D9D9D9"/>
<path d="M52.2589 590.442C59.2223 590.442 64.8673 584.797 64.8673 577.833C64.8673 570.87 59.2223 565.225 52.2589 565.225C45.2954 565.225 39.6504 570.87 39.6504 577.833C39.6504 584.797 45.2954 590.442 52.2589 590.442Z" stroke="#353535" stroke-width="3" stroke-miterlimit="10" stroke-linecap="round" stroke-linejoin="round"/>
<path d="M55.3514 583.367L50.2948 578.311C50.0293 578.045 50.0293 577.634 50.2948 577.368L55.3514 572.312" stroke="#353535" stroke-width="3" stroke-miterlimit="10" stroke-linecap="round" stroke-linejoin="round"/>
<path d="M122.434 565.224C115.47 565.224 109.825 570.869 109.825 577.833C109.825 584.796 115.47 590.441 122.434 590.441C129.397 590.441 135.042 584.796 135.042 577.833C135.042 570.869 129.397 565.224 122.434 565.224Z" stroke="#353535" stroke-width="3" stroke-miterlimit="10" stroke-linecap="round" stroke-linejoin="round"/>
<path d="M119.341 572.299L124.398 577.356C124.663 577.621 124.663 578.032 124.398 578.298L119.341 583.354" stroke="#353535" stroke-width="3" stroke-miterlimit="10" stroke-linecap="round" stroke-linejoin="round"/>
<path d="M197.575 585.132C201.607 585.132 204.875 581.864 204.875 577.833C204.875 573.801 201.607 570.533 197.575 570.533C193.544 570.533 190.275 573.801 190.275 577.833C190.275 581.864 193.544 585.132 197.575 585.132Z" stroke="#353535" stroke-width="3" stroke-miterlimit="10" stroke-linecap="round" stroke-linejoin="round"/>
<path d="M199.181 566.817L200.614 565.225C202.485 565.994 202.485 565.994 204.357 566.777L204.251 568.914C204.184 570.188 205.233 571.237 206.507 571.17L208.644 571.064C209.413 572.936 209.413 572.936 210.196 574.807L208.604 576.24C207.661 577.09 207.661 578.576 208.604 579.426L210.196 580.859C209.427 582.73 209.427 582.73 208.644 584.602L206.507 584.496C205.233 584.429 204.184 585.478 204.251 586.752L204.357 588.889C202.485 589.659 202.485 589.659 200.614 590.442L199.181 588.849C198.331 587.907 196.845 587.907 195.995 588.849L194.562 590.442C192.691 589.672 192.691 589.672 190.819 588.889L190.925 586.752C190.992 585.478 189.943 584.429 188.669 584.496L186.532 584.602C185.763 582.73 185.763 582.73 184.979 580.859L186.572 579.426C187.514 578.576 187.514 577.09 186.572 576.24L184.979 574.807C185.749 572.936 185.749 572.936 186.532 571.064L188.669 571.17C189.943 571.237 190.992 570.188 190.925 568.914L190.819 566.777C192.691 566.008 192.691 566.008 194.562 565.225L195.995 566.817C196.845 567.76 198.318 567.76 199.181 566.817Z" stroke="#353535" stroke-width="3" stroke-miterlimit="10" stroke-linecap="round" stroke-linejoin="round"/>
<path d="M270.751 581.069H274.732C275.104 581.069 275.396 581.361 275.396 581.733V588.369C275.396 588.741 275.104 589.033 274.732 589.033H270.751C270.379 589.033 270.087 588.741 270.087 588.369V581.733C270.087 581.361 270.379 581.069 270.751 581.069Z" stroke="#353535" stroke-width="3" stroke-miterlimit="10" stroke-linecap="round" stroke-linejoin="round"/>
<path d="M267.432 589.033H264.778C264.406 589.033 264.114 588.741 264.114 588.369V575.761H260.133L272.343 566.762C272.582 566.59 272.901 566.59 273.126 566.762L285.35 575.761H281.368V588.369C281.368 588.741 281.063 589.033 280.705 589.033H278.05" stroke="#353535" stroke-width="3" stroke-miterlimit="10" stroke-linecap="round" stroke-linejoin="round"/>
<path d="M0 75.6515C0 34.4205 33.4244 0.996094 74.6554 0.996094H248.851C290.083 0.996094 323.507 34.4205 323.507 75.6515H0Z" fill="#D9D9D9"/>
<rect x="28.8711" y="41.3145" width="266.76" height="27.8622" rx="13.9311" stroke="#353535" stroke-width="2"/>
<path d="M111.149 53.3603C111.746 53.3603 112.269 53.4769 112.717 53.7103C113.174 53.9343 113.529 54.2796 113.781 54.7463C114.042 55.2129 114.173 55.8009 114.173 56.5103V60.7803H113.179V56.6083C113.179 55.8336 112.983 55.2503 112.591 54.8583C112.208 54.4569 111.667 54.2563 110.967 54.2563C110.444 54.2563 109.987 54.3636 109.595 54.5783C109.212 54.7836 108.913 55.0869 108.699 55.4883C108.493 55.8803 108.391 56.3563 108.391 56.9163V60.7803H107.397V50.3923H108.391V55.4463L108.195 55.0683C108.428 54.5363 108.801 54.1209 109.315 53.8223C109.828 53.5143 110.439 53.3603 111.149 53.3603ZM119.182 60.8503C118.491 60.8503 117.959 60.6636 117.586 60.2903C117.212 59.9169 117.026 59.3896 117.026 58.7083V51.8063H118.02V58.6523C118.02 59.0816 118.127 59.4129 118.342 59.6463C118.566 59.8796 118.883 59.9963 119.294 59.9963C119.732 59.9963 120.096 59.8703 120.386 59.6183L120.736 60.3323C120.54 60.5096 120.302 60.6403 120.022 60.7243C119.751 60.8083 119.471 60.8503 119.182 60.8503ZM115.71 54.2563V53.4303H120.26V54.2563H115.71ZM124.678 60.8503C123.987 60.8503 123.455 60.6636 123.082 60.2903C122.708 59.9169 122.522 59.3896 122.522 58.7083V51.8063H123.516V58.6523C123.516 59.0816 123.623 59.4129 123.838 59.6463C124.062 59.8796 124.379 59.9963 124.79 59.9963C125.228 59.9963 125.592 59.8703 125.882 59.6183L126.232 60.3323C126.036 60.5096 125.798 60.6403 125.518 60.7243C125.247 60.8083 124.967 60.8503 124.678 60.8503ZM121.206 54.2563V53.4303H125.756V54.2563H121.206ZM131.835 60.8503C131.201 60.8503 130.627 60.7056 130.113 60.4163C129.6 60.1176 129.189 59.6929 128.881 59.1423C128.583 58.5823 128.433 57.9009 128.433 57.0983C128.433 56.2956 128.583 55.6189 128.881 55.0683C129.18 54.5083 129.586 54.0836 130.099 53.7943C130.613 53.5049 131.191 53.3603 131.835 53.3603C132.535 53.3603 133.161 53.5189 133.711 53.8363C134.271 54.1443 134.71 54.5829 135.027 55.1523C135.345 55.7123 135.503 56.3609 135.503 57.0983C135.503 57.8449 135.345 58.4983 135.027 59.0583C134.71 59.6183 134.271 60.0569 133.711 60.3743C133.161 60.6916 132.535 60.8503 131.835 60.8503ZM128.041 63.4963V53.4303H128.993V55.6423L128.895 57.1123L129.035 58.5963V63.4963H128.041ZM131.765 59.9683C132.288 59.9683 132.755 59.8516 133.165 59.6183C133.576 59.3756 133.903 59.0396 134.145 58.6103C134.388 58.1716 134.509 57.6676 134.509 57.0983C134.509 56.5289 134.388 56.0296 134.145 55.6003C133.903 55.1709 133.576 54.8349 133.165 54.5923C132.755 54.3496 132.288 54.2283 131.765 54.2283C131.243 54.2283 130.771 54.3496 130.351 54.5923C129.941 54.8349 129.614 55.1709 129.371 55.6003C129.138 56.0296 129.021 56.5289 129.021 57.0983C129.021 57.6676 129.138 58.1716 129.371 58.6103C129.614 59.0396 129.941 59.3756 130.351 59.6183C130.771 59.8516 131.243 59.9683 131.765 59.9683ZM139.504 60.8503C138.897 60.8503 138.323 60.7663 137.782 60.5983C137.24 60.4209 136.816 60.2016 136.508 59.9403L136.956 59.1563C137.254 59.3803 137.637 59.5763 138.104 59.7443C138.57 59.9029 139.06 59.9823 139.574 59.9823C140.274 59.9823 140.778 59.8749 141.086 59.6603C141.394 59.4363 141.548 59.1423 141.548 58.7783C141.548 58.5076 141.459 58.2976 141.282 58.1483C141.114 57.9896 140.89 57.8729 140.61 57.7983C140.33 57.7143 140.017 57.6443 139.672 57.5883C139.326 57.5323 138.981 57.4669 138.636 57.3923C138.3 57.3176 137.992 57.2103 137.712 57.0703C137.432 56.9209 137.203 56.7203 137.026 56.4683C136.858 56.2163 136.774 55.8803 136.774 55.4603C136.774 55.0589 136.886 54.6996 137.11 54.3823C137.334 54.0649 137.66 53.8176 138.09 53.6403C138.528 53.4536 139.06 53.3603 139.686 53.3603C140.162 53.3603 140.638 53.4256 141.114 53.5563C141.59 53.6776 141.982 53.8409 142.29 54.0463L141.856 54.8443C141.529 54.6203 141.179 54.4616 140.806 54.3683C140.432 54.2656 140.059 54.2143 139.686 54.2143C139.023 54.2143 138.533 54.3309 138.216 54.5643C137.908 54.7883 137.754 55.0776 137.754 55.4323C137.754 55.7123 137.838 55.9316 138.006 56.0903C138.183 56.2489 138.412 56.3749 138.692 56.4683C138.981 56.5523 139.294 56.6223 139.63 56.6783C139.975 56.7343 140.316 56.8043 140.652 56.8883C140.997 56.9629 141.31 57.0703 141.59 57.2103C141.879 57.3409 142.108 57.5323 142.276 57.7843C142.453 58.0269 142.542 58.3489 142.542 58.7503C142.542 59.1796 142.42 59.5529 142.178 59.8703C141.944 60.1783 141.599 60.4209 141.142 60.5983C140.694 60.7663 140.148 60.8503 139.504 60.8503ZM144.463 54.8863C144.258 54.8863 144.081 54.8116 143.931 54.6623C143.791 54.5129 143.721 54.3309 143.721 54.1163C143.721 53.8923 143.791 53.7103 143.931 53.5703C144.081 53.4303 144.258 53.3603 144.463 53.3603C144.669 53.3603 144.841 53.4303 144.981 53.5703C145.131 53.7103 145.205 53.8923 145.205 54.1163C145.205 54.3309 145.131 54.5129 144.981 54.6623C144.841 54.8116 144.669 54.8863 144.463 54.8863ZM144.463 60.8503C144.258 60.8503 144.081 60.7756 143.931 60.6263C143.791 60.4769 143.721 60.2949 143.721 60.0803C143.721 59.8563 143.791 59.6743 143.931 59.5343C144.081 59.3943 144.258 59.3243 144.463 59.3243C144.669 59.3243 144.841 59.3943 144.981 59.5343C145.131 59.6743 145.205 59.8563 145.205 60.0803C145.205 60.2949 145.131 60.4769 144.981 60.6263C144.841 60.7756 144.669 60.8503 144.463 60.8503ZM146.225 62.1803L150.845 48.9923H151.755L147.135 62.1803H146.225ZM150.012 62.1803L154.632 48.9923H155.542L150.922 62.1803H150.012ZM158.407 60.8503C157.707 60.8503 157.077 60.6916 156.517 60.3743C155.966 60.0569 155.532 59.6183 155.215 59.0583C154.897 58.4889 154.739 57.8356 154.739 57.0983C154.739 56.3516 154.897 55.6983 155.215 55.1383C155.532 54.5783 155.966 54.1443 156.517 53.8363C157.077 53.5189 157.707 53.3603 158.407 53.3603C159.051 53.3603 159.625 53.5049 160.129 53.7943C160.642 54.0836 161.048 54.5083 161.347 55.0683C161.655 55.6189 161.809 56.2956 161.809 57.0983C161.809 57.8916 161.659 58.5683 161.361 59.1283C161.062 59.6883 160.656 60.1176 160.143 60.4163C159.639 60.7056 159.06 60.8503 158.407 60.8503ZM158.477 59.9683C158.999 59.9683 159.466 59.8516 159.877 59.6183C160.297 59.3756 160.623 59.0396 160.857 58.6103C161.099 58.1716 161.221 57.6676 161.221 57.0983C161.221 56.5196 161.099 56.0156 160.857 55.5863C160.623 55.1569 160.297 54.8256 159.877 54.5923C159.466 54.3496 158.999 54.2283 158.477 54.2283C157.963 54.2283 157.501 54.3496 157.091 54.5923C156.68 54.8256 156.353 55.1569 156.111 55.5863C155.868 56.0156 155.747 56.5196 155.747 57.0983C155.747 57.6676 155.868 58.1716 156.111 58.6103C156.353 59.0396 156.68 59.3756 157.091 59.6183C157.501 59.8516 157.963 59.9683 158.477 59.9683ZM161.249 60.7803V58.5683L161.347 57.0843L161.207 55.6003V50.3923H162.201V60.7803H161.249ZM167.965 60.8503C167.256 60.8503 166.616 60.6916 166.047 60.3743C165.487 60.0476 165.044 59.6043 164.717 59.0443C164.39 58.4749 164.227 57.8263 164.227 57.0983C164.227 56.3609 164.39 55.7123 164.717 55.1523C165.044 54.5923 165.487 54.1536 166.047 53.8363C166.607 53.5189 167.246 53.3603 167.965 53.3603C168.693 53.3603 169.337 53.5189 169.897 53.8363C170.466 54.1536 170.91 54.5923 171.227 55.1523C171.554 55.7123 171.717 56.3609 171.717 57.0983C171.717 57.8263 171.554 58.4749 171.227 59.0443C170.91 59.6043 170.466 60.0476 169.897 60.3743C169.328 60.6916 168.684 60.8503 167.965 60.8503ZM167.965 59.9683C168.497 59.9683 168.968 59.8516 169.379 59.6183C169.79 59.3756 170.112 59.0396 170.345 58.6103C170.588 58.1716 170.709 57.6676 170.709 57.0983C170.709 56.5196 170.588 56.0156 170.345 55.5863C170.112 55.1569 169.79 54.8256 169.379 54.5923C168.968 54.3496 168.502 54.2283 167.979 54.2283C167.456 54.2283 166.99 54.3496 166.579 54.5923C166.168 54.8256 165.842 55.1569 165.599 55.5863C165.356 56.0156 165.235 56.5196 165.235 57.0983C165.235 57.6676 165.356 58.1716 165.599 58.6103C165.842 59.0396 166.168 59.3756 166.579 59.6183C166.99 59.8516 167.452 59.9683 167.965 59.9683ZM174.53 58.8763L174.558 57.6023L179.136 53.4303H180.354L177.12 56.5243L176.56 57.0003L174.53 58.8763ZM173.746 60.7803V50.3923H174.74V60.7803H173.746ZM179.444 60.7803L176.378 56.9583L177.022 56.1883L180.662 60.7803H179.444ZM186.624 60.7803V59.1563L186.582 58.8903V56.1743C186.582 55.5489 186.405 55.0683 186.05 54.7323C185.705 54.3963 185.187 54.2283 184.496 54.2283C184.02 54.2283 183.567 54.3076 183.138 54.4663C182.709 54.6249 182.345 54.8349 182.046 55.0963L181.598 54.3543C181.971 54.0369 182.419 53.7943 182.942 53.6263C183.465 53.4489 184.015 53.3603 184.594 53.3603C185.546 53.3603 186.279 53.5983 186.792 54.0743C187.315 54.5409 187.576 55.2549 187.576 56.2163V60.7803H186.624ZM184.09 60.8503C183.539 60.8503 183.059 60.7616 182.648 60.5843C182.247 60.3976 181.939 60.1456 181.724 59.8283C181.509 59.5016 181.402 59.1283 181.402 58.7083C181.402 58.3256 181.491 57.9803 181.668 57.6723C181.855 57.3549 182.153 57.1029 182.564 56.9163C182.984 56.7203 183.544 56.6223 184.244 56.6223H186.778V57.3643H184.272C183.563 57.3643 183.068 57.4903 182.788 57.7423C182.517 57.9943 182.382 58.3069 182.382 58.6803C182.382 59.1003 182.545 59.4363 182.872 59.6883C183.199 59.9403 183.656 60.0663 184.244 60.0663C184.804 60.0663 185.285 59.9403 185.686 59.6883C186.097 59.4269 186.395 59.0536 186.582 58.5683L186.806 59.2543C186.619 59.7396 186.293 60.1269 185.826 60.4163C185.369 60.7056 184.79 60.8503 184.09 60.8503ZM190.374 60.8503C190.168 60.8503 189.991 60.7756 189.842 60.6263C189.702 60.4769 189.632 60.2949 189.632 60.0803C189.632 59.8563 189.702 59.6743 189.842 59.5343C189.991 59.3943 190.168 59.3243 190.374 59.3243C190.579 59.3243 190.752 59.3943 190.892 59.5343C191.041 59.6743 191.116 59.8563 191.116 60.0803C191.116 60.2949 191.041 60.4769 190.892 60.6263C190.752 60.7756 190.579 60.8503 190.374 60.8503ZM196.173 63.5663C195.501 63.5663 194.857 63.4683 194.241 63.2723C193.625 63.0763 193.126 62.7963 192.743 62.4323L193.247 61.6763C193.593 61.9843 194.017 62.2269 194.521 62.4043C195.035 62.5909 195.576 62.6843 196.145 62.6843C197.079 62.6843 197.765 62.4649 198.203 62.0263C198.642 61.5969 198.861 60.9249 198.861 60.0103V58.1763L199.001 56.9163L198.903 55.6563V53.4303H199.855V59.8843C199.855 61.1536 199.543 62.0823 198.917 62.6703C198.301 63.2676 197.387 63.5663 196.173 63.5663ZM195.991 60.5003C195.291 60.5003 194.661 60.3509 194.101 60.0523C193.541 59.7443 193.098 59.3196 192.771 58.7783C192.454 58.2369 192.295 57.6163 192.295 56.9163C192.295 56.2163 192.454 55.6003 192.771 55.0683C193.098 54.5269 193.541 54.1069 194.101 53.8083C194.661 53.5096 195.291 53.3603 195.991 53.3603C196.645 53.3603 197.233 53.4956 197.755 53.7663C198.278 54.0369 198.693 54.4383 199.001 54.9703C199.309 55.5023 199.463 56.1509 199.463 56.9163C199.463 57.6816 199.309 58.3303 199.001 58.8623C198.693 59.3943 198.278 59.8003 197.755 60.0803C197.233 60.3603 196.645 60.5003 195.991 60.5003ZM196.089 59.6183C196.631 59.6183 197.111 59.5063 197.531 59.2823C197.951 59.0489 198.283 58.7316 198.525 58.3303C198.768 57.9196 198.889 57.4483 198.889 56.9163C198.889 56.3843 198.768 55.9176 198.525 55.5163C198.283 55.1149 197.951 54.8023 197.531 54.5783C197.111 54.3449 196.631 54.2283 196.089 54.2283C195.557 54.2283 195.077 54.3449 194.647 54.5783C194.227 54.8023 193.896 55.1149 193.653 55.5163C193.42 55.9176 193.303 56.3843 193.303 56.9163C193.303 57.4483 193.42 57.9196 193.653 58.3303C193.896 58.7316 194.227 59.0489 194.647 59.2823C195.077 59.5063 195.557 59.6183 196.089 59.6183ZM205.659 60.8503C205.034 60.8503 204.488 60.7336 204.021 60.5003C203.555 60.2669 203.191 59.9169 202.929 59.4503C202.677 58.9836 202.551 58.4003 202.551 57.7003V53.4303H203.545V57.5883C203.545 58.3723 203.737 58.9649 204.119 59.3663C204.511 59.7583 205.057 59.9543 205.757 59.9543C206.271 59.9543 206.714 59.8516 207.087 59.6463C207.47 59.4316 207.759 59.1236 207.955 58.7223C208.161 58.3209 208.263 57.8403 208.263 57.2803V53.4303H209.257V60.7803H208.305V58.7643L208.459 59.1283C208.226 59.6696 207.862 60.0943 207.367 60.4023C206.882 60.7009 206.313 60.8503 205.659 60.8503ZM212.028 60.7803V53.4303H213.022V60.7803H212.028ZM212.532 51.8063C212.326 51.8063 212.154 51.7363 212.014 51.5963C211.874 51.4563 211.804 51.2883 211.804 51.0923C211.804 50.8963 211.874 50.7329 212.014 50.6023C212.154 50.4623 212.326 50.3923 212.532 50.3923C212.737 50.3923 212.91 50.4576 213.05 50.5883C213.19 50.7189 213.26 50.8823 213.26 51.0783C213.26 51.2836 213.19 51.4563 213.05 51.5963C212.919 51.7363 212.746 51.8063 212.532 51.8063ZM218.713 60.8503C218.013 60.8503 217.383 60.6916 216.823 60.3743C216.273 60.0569 215.839 59.6183 215.521 59.0583C215.204 58.4889 215.045 57.8356 215.045 57.0983C215.045 56.3516 215.204 55.6983 215.521 55.1383C215.839 54.5783 216.273 54.1443 216.823 53.8363C217.383 53.5189 218.013 53.3603 218.713 53.3603C219.357 53.3603 219.931 53.5049 220.435 53.7943C220.949 54.0836 221.355 54.5083 221.653 55.0683C221.961 55.6189 222.115 56.2956 222.115 57.0983C222.115 57.8916 221.966 58.5683 221.667 59.1283C221.369 59.6883 220.963 60.1176 220.449 60.4163C219.945 60.7056 219.367 60.8503 218.713 60.8503ZM218.783 59.9683C219.306 59.9683 219.773 59.8516 220.183 59.6183C220.603 59.3756 220.93 59.0396 221.163 58.6103C221.406 58.1716 221.527 57.6676 221.527 57.0983C221.527 56.5196 221.406 56.0156 221.163 55.5863C220.93 55.1569 220.603 54.8256 220.183 54.5923C219.773 54.3496 219.306 54.2283 218.783 54.2283C218.27 54.2283 217.808 54.3496 217.397 54.5923C216.987 54.8256 216.66 55.1569 216.417 55.5863C216.175 56.0156 216.053 56.5196 216.053 57.0983C216.053 57.6676 216.175 58.1716 216.417 58.6103C216.66 59.0396 216.987 59.3756 217.397 59.6183C217.808 59.8516 218.27 59.9683 218.783 59.9683ZM221.555 60.7803V58.5683L221.653 57.0843L221.513 55.6003V50.3923H222.507V60.7803H221.555ZM228.398 60.8503C227.632 60.8503 226.96 60.6916 226.382 60.3743C225.803 60.0476 225.35 59.6043 225.024 59.0443C224.697 58.4749 224.534 57.8263 224.534 57.0983C224.534 56.3703 224.688 55.7263 224.996 55.1663C225.313 54.6063 225.742 54.1676 226.284 53.8503C226.834 53.5236 227.45 53.3603 228.132 53.3603C228.822 53.3603 229.434 53.5189 229.966 53.8363C230.507 54.1443 230.932 54.5829 231.24 55.1523C231.548 55.7123 231.702 56.3609 231.702 57.0983C231.702 57.1449 231.697 57.1963 231.688 57.2523C231.688 57.2989 231.688 57.3503 231.688 57.4063H225.29V56.6643H231.156L230.764 56.9583C230.764 56.4263 230.647 55.9549 230.414 55.5443C230.19 55.1243 229.882 54.7976 229.49 54.5643C229.098 54.3309 228.645 54.2143 228.132 54.2143C227.628 54.2143 227.175 54.3309 226.774 54.5643C226.372 54.7976 226.06 55.1243 225.836 55.5443C225.612 55.9643 225.5 56.4449 225.5 56.9863V57.1403C225.5 57.7003 225.621 58.1949 225.864 58.6243C226.116 59.0443 226.461 59.3756 226.9 59.6183C227.348 59.8516 227.856 59.9683 228.426 59.9683C228.874 59.9683 229.289 59.8889 229.672 59.7303C230.064 59.5716 230.4 59.3289 230.68 59.0023L231.24 59.6463C230.913 60.0383 230.502 60.3369 230.008 60.5423C229.522 60.7476 228.986 60.8503 228.398 60.8503ZM231.989 62.1803L236.609 48.9923H237.519L232.899 62.1803H231.989Z" fill="#353535"/>
<path fill-rule="evenodd" clip-rule="evenodd" d="M287.175 621.935H44.2956C29.125 620.655 21.2867 618.262 10.2029 606.755C2.91875 596.079 0.11605 589.559 0 575.897V42.8577C0.764897 32.433 2.98938 26.4522 10.9495 15.4841C18.3709 7.39952 27.8714 1.79726 35.5858 0.553003C43.3002 -0.691254 283.442 0.553003 283.442 0.553003C298.338 1.5302 303.874 6.42096 313.304 15.2351C322.734 24.0492 324.582 41.5272 324.005 42.8576L325 575.897C323.886 589.837 321.703 596.245 314.797 605.511C306.9 615.471 300.857 619.073 287.175 621.935ZM12.1937 575.897L12.4426 42.8577C13.6687 35.3215 15.615 31.2254 21.1524 24.1938C27.0727 18.4716 31.4687 16.263 40.8116 13.742H102.776C102.603 19.4637 103.093 21.3288 105.762 26.6823C108.794 30.3673 112.215 32.8465 117.458 34.6455H208.538C213.611 32.5568 216.038 30.7591 219.487 26.1846C221.347 21.4117 221.919 18.6945 221.727 13.742H283.442C293.881 16.0589 298.285 18.5535 304.096 24.6915C309.511 31.7865 311.146 35.7624 312.309 42.8576V575.897C311.993 584.337 310.147 588.54 305.341 595.557C299.31 602.088 295.34 604.797 287.175 607.75L44.2956 608.248C32.5678 606.797 27.3251 604.301 20.157 597.05C14.878 590.011 13.1756 585.347 12.1937 575.897Z" fill="#353535"/>
<rect x="127.412" y="20.9033" width="49.7703" height="4.97703" fill="black"/>
<ellipse cx="193.607" cy="23.3918" rx="2.48851" ry="2.48851" fill="black"/>
<path d="M75.944 305L71.192 292.4H72.824L77.144 304.088H76.4L80.84 292.4H82.304L86.696 304.088H85.952L90.344 292.4H91.904L87.128 305H85.52L81.296 294.008H81.8L77.552 305H75.944ZM94.4698 305V292.4H96.1738V305H94.4698ZM95.3338 289.616C94.9818 289.616 94.6858 289.496 94.4458 289.256C94.2058 289.016 94.0858 288.728 94.0858 288.392C94.0858 288.056 94.2058 287.776 94.4458 287.552C94.6858 287.312 94.9818 287.192 95.3338 287.192C95.6858 287.192 95.9818 287.304 96.2218 287.528C96.4618 287.752 96.5818 288.032 96.5818 288.368C96.5818 288.72 96.4618 289.016 96.2218 289.256C95.9978 289.496 95.7018 289.616 95.3338 289.616ZM105.931 305.12C104.731 305.12 103.651 304.848 102.691 304.304C101.747 303.76 101.003 303.008 100.459 302.048C99.9151 301.072 99.6431 299.952 99.6431 298.688C99.6431 297.408 99.9151 296.288 100.459 295.328C101.003 294.368 101.747 293.624 102.691 293.096C103.651 292.552 104.731 292.28 105.931 292.28C107.035 292.28 108.019 292.528 108.883 293.024C109.763 293.52 110.459 294.248 110.971 295.208C111.499 296.152 111.763 297.312 111.763 298.688C111.763 300.048 111.507 301.208 110.995 302.168C110.483 303.128 109.787 303.864 108.907 304.376C108.043 304.872 107.051 305.12 105.931 305.12ZM106.051 303.608C106.947 303.608 107.747 303.408 108.451 303.008C109.171 302.592 109.731 302.016 110.131 301.28C110.547 300.528 110.755 299.664 110.755 298.688C110.755 297.696 110.547 296.832 110.131 296.096C109.731 295.36 109.171 294.792 108.451 294.392C107.747 293.976 106.947 293.768 106.051 293.768C105.171 293.768 104.379 293.976 103.675 294.392C102.971 294.792 102.411 295.36 101.995 296.096C101.579 296.832 101.371 297.696 101.371 298.688C101.371 299.664 101.579 300.528 101.995 301.28C102.411 302.016 102.971 302.592 103.675 303.008C104.379 303.408 105.171 303.608 106.051 303.608ZM110.803 305V301.208L110.971 298.664L110.731 296.12V287.192H112.435V305H110.803ZM121.235 305.12C120.051 305.12 119.139 304.8 118.499 304.16C117.859 303.52 117.539 302.616 117.539 301.448V289.616H119.243V301.352C119.243 302.088 119.427 302.656 119.795 303.056C120.179 303.456 120.723 303.656 121.427 303.656C122.179 303.656 122.803 303.44 123.299 303.008L123.899 304.232C123.563 304.536 123.155 304.76 122.675 304.904C122.211 305.048 121.731 305.12 121.235 305.12ZM115.283 293.816V292.4H123.083V293.816H115.283ZM133.433 292.28C134.457 292.28 135.353 292.48 136.121 292.88C136.905 293.264 137.513 293.856 137.945 294.656C138.393 295.456 138.617 296.464 138.617 297.68V305H136.913V297.848C136.913 296.52 136.577 295.52 135.905 294.848C135.249 294.16 134.321 293.816 133.121 293.816C132.225 293.816 131.441 294 130.769 294.368C130.113 294.72 129.601 295.24 129.233 295.928C128.881 296.6 128.705 297.416 128.705 298.376V305H127.001V287.192H128.705V295.856L128.369 295.208C128.769 294.296 129.409 293.584 130.289 293.072C131.169 292.544 132.217 292.28 133.433 292.28ZM143.388 294.896C143.036 294.896 142.732 294.768 142.476 294.512C142.236 294.256 142.116 293.944 142.116 293.576C142.116 293.192 142.236 292.88 142.476 292.64C142.732 292.4 143.036 292.28 143.388 292.28C143.74 292.28 144.036 292.4 144.276 292.64C144.532 292.88 144.66 293.192 144.66 293.576C144.66 293.944 144.532 294.256 144.276 294.512C144.036 294.768 143.74 294.896 143.388 294.896ZM143.388 305.12C143.036 305.12 142.732 304.992 142.476 304.736C142.236 304.48 142.116 304.168 142.116 303.8C142.116 303.416 142.236 303.104 142.476 302.864C142.732 302.624 143.036 302.504 143.388 302.504C143.74 302.504 144.036 302.624 144.276 302.864C144.532 303.104 144.66 303.416 144.66 303.8C144.66 304.168 144.532 304.48 144.276 304.736C144.036 304.992 143.74 305.12 143.388 305.12ZM156.387 305V288.92L157.155 289.736H152.427V288.2H158.115V305H156.387ZM168.827 305.144C167.531 305.144 166.379 304.808 165.371 304.136C164.363 303.448 163.571 302.472 162.995 301.208C162.419 299.928 162.131 298.392 162.131 296.6C162.131 294.808 162.419 293.28 162.995 292.016C163.571 290.736 164.363 289.76 165.371 289.088C166.379 288.4 167.531 288.056 168.827 288.056C170.123 288.056 171.275 288.4 172.283 289.088C173.291 289.76 174.083 290.736 174.659 292.016C175.251 293.28 175.547 294.808 175.547 296.6C175.547 298.392 175.251 299.928 174.659 301.208C174.083 302.472 173.291 303.448 172.283 304.136C171.275 304.808 170.123 305.144 168.827 305.144ZM168.827 303.56C169.819 303.56 170.683 303.296 171.419 302.768C172.155 302.224 172.731 301.44 173.147 300.416C173.563 299.376 173.771 298.104 173.771 296.6C173.771 295.096 173.563 293.832 173.147 292.808C172.731 291.768 172.155 290.984 171.419 290.456C170.683 289.912 169.819 289.64 168.827 289.64C167.867 289.64 167.011 289.912 166.259 290.456C165.507 290.984 164.923 291.768 164.507 292.808C164.091 293.832 163.883 295.096 163.883 296.6C163.883 298.104 164.091 299.376 164.507 300.416C164.923 301.44 165.507 302.224 166.259 302.768C167.011 303.296 167.867 303.56 168.827 303.56ZM184.717 305.144C183.421 305.144 182.269 304.808 181.261 304.136C180.253 303.448 179.461 302.472 178.885 301.208C178.309 299.928 178.021 298.392 178.021 296.6C178.021 294.808 178.309 293.28 178.885 292.016C179.461 290.736 180.253 289.76 181.261 289.088C182.269 288.4 183.421 288.056 184.717 288.056C186.013 288.056 187.165 288.4 188.173 289.088C189.181 289.76 189.973 290.736 190.549 292.016C191.141 293.28 191.437 294.808 191.437 296.6C191.437 298.392 191.141 299.928 190.549 301.208C189.973 302.472 189.181 303.448 188.173 304.136C187.165 304.808 186.013 305.144 184.717 305.144ZM184.717 303.56C185.709 303.56 186.573 303.296 187.309 302.768C188.045 302.224 188.621 301.44 189.037 300.416C189.453 299.376 189.661 298.104 189.661 296.6C189.661 295.096 189.453 293.832 189.037 292.808C188.621 291.768 188.045 290.984 187.309 290.456C186.573 289.912 185.709 289.64 184.717 289.64C183.757 289.64 182.901 289.912 182.149 290.456C181.397 290.984 180.813 291.768 180.397 292.808C179.981 293.832 179.773 295.096 179.773 296.6C179.773 298.104 179.981 299.376 180.397 300.416C180.813 301.44 181.397 302.224 182.149 302.768C182.901 303.296 183.757 303.56 184.717 303.56ZM200.056 305.12C198.856 305.12 197.776 304.848 196.816 304.304C195.872 303.76 195.128 303.008 194.584 302.048C194.04 301.072 193.768 299.952 193.768 298.688C193.768 297.408 194.04 296.288 194.584 295.328C195.128 294.368 195.872 293.624 196.816 293.096C197.776 292.552 198.856 292.28 200.056 292.28C201.16 292.28 202.144 292.528 203.008 293.024C203.888 293.52 204.584 294.248 205.096 295.208C205.624 296.152 205.888 297.312 205.888 298.688C205.888 300.048 205.632 301.208 205.12 302.168C204.608 303.128 203.912 303.864 203.032 304.376C202.168 304.872 201.176 305.12 200.056 305.12ZM200.176 303.608C201.072 303.608 201.872 303.408 202.576 303.008C203.296 302.592 203.856 302.016 204.256 301.28C204.672 300.528 204.88 299.664 204.88 298.688C204.88 297.696 204.672 296.832 204.256 296.096C203.856 295.36 203.296 294.792 202.576 294.392C201.872 293.976 201.072 293.768 200.176 293.768C199.296 293.768 198.504 293.976 197.8 294.392C197.096 294.792 196.536 295.36 196.12 296.096C195.704 296.832 195.496 297.696 195.496 298.688C195.496 299.664 195.704 300.528 196.12 301.28C196.536 302.016 197.096 302.592 197.8 303.008C198.504 303.408 199.296 303.608 200.176 303.608ZM204.928 305V301.208L205.096 298.664L204.856 296.12V287.192H206.56V305H204.928ZM214.546 305L208.954 292.4H210.73L215.866 304.088H215.026L220.234 292.4H221.914L216.298 305H214.546ZM226.764 305L222.012 292.4H223.644L227.964 304.088H227.22L231.66 292.4H233.124L237.516 304.088H236.772L241.164 292.4H242.724L237.948 305H236.34L232.116 294.008H232.62L228.372 305H226.764ZM245.646 294.896C245.294 294.896 244.99 294.768 244.734 294.512C244.494 294.256 244.374 293.944 244.374 293.576C244.374 293.192 244.494 292.88 244.734 292.64C244.99 292.4 245.294 292.28 245.646 292.28C245.998 292.28 246.294 292.4 246.534 292.64C246.79 292.88 246.918 293.192 246.918 293.576C246.918 293.944 246.79 294.256 246.534 294.512C246.294 294.768 245.998 294.896 245.646 294.896ZM244.446 308.504L245.502 304.064L245.694 305.096C245.326 305.096 245.014 304.976 244.758 304.736C244.518 304.496 244.398 304.184 244.398 303.8C244.398 303.416 244.518 303.104 244.758 302.864C245.014 302.624 245.318 302.504 245.67 302.504C246.038 302.504 246.334 302.632 246.558 302.888C246.798 303.144 246.918 303.448 246.918 303.8C246.918 303.928 246.91 304.056 246.894 304.184C246.878 304.312 246.846 304.456 246.798 304.616C246.75 304.776 246.686 304.968 246.606 305.192L245.598 308.504H244.446ZM79.808 321.28C80.832 321.28 81.728 321.48 82.496 321.88C83.28 322.264 83.888 322.856 84.32 323.656C84.768 324.456 84.992 325.464 84.992 326.68V334H83.288V326.848C83.288 325.52 82.952 324.52 82.28 323.848C81.624 323.16 80.696 322.816 79.496 322.816C78.6 322.816 77.816 323 77.144 323.368C76.488 323.72 75.976 324.24 75.608 324.928C75.256 325.6 75.08 326.416 75.08 327.376V334H73.376V316.192H75.08V324.856L74.744 324.208C75.144 323.296 75.784 322.584 76.664 322.072C77.544 321.544 78.592 321.28 79.808 321.28ZM94.9468 334.12C93.6348 334.12 92.4828 333.848 91.4908 333.304C90.4988 332.744 89.7228 331.984 89.1628 331.024C88.6028 330.048 88.3228 328.936 88.3228 327.688C88.3228 326.44 88.5868 325.336 89.1148 324.376C89.6588 323.416 90.3948 322.664 91.3228 322.12C92.2668 321.56 93.3228 321.28 94.4908 321.28C95.6748 321.28 96.7228 321.552 97.6348 322.096C98.5628 322.624 99.2908 323.376 99.8188 324.352C100.347 325.312 100.611 326.424 100.611 327.688C100.611 327.768 100.603 327.856 100.587 327.952C100.587 328.032 100.587 328.12 100.587 328.216H89.6188V326.944H99.6748L99.0028 327.448C99.0028 326.536 98.8028 325.728 98.4028 325.024C98.0188 324.304 97.4908 323.744 96.8188 323.344C96.1468 322.944 95.3708 322.744 94.4908 322.744C93.6268 322.744 92.8508 322.944 92.1628 323.344C91.4748 323.744 90.9388 324.304 90.5548 325.024C90.1708 325.744 89.9788 326.568 89.9788 327.496V327.76C89.9788 328.72 90.1868 329.568 90.6028 330.304C91.0348 331.024 91.6268 331.592 92.3788 332.008C93.1468 332.408 94.0188 332.608 94.9948 332.608C95.7628 332.608 96.4748 332.472 97.1308 332.2C97.8028 331.928 98.3788 331.512 98.8588 330.952L99.8188 332.056C99.2588 332.728 98.5548 333.24 97.7068 333.592C96.8748 333.944 95.9548 334.12 94.9468 334.12ZM104.079 334V321.4H105.783V334H104.079ZM104.943 318.616C104.591 318.616 104.295 318.496 104.055 318.256C103.815 318.016 103.695 317.728 103.695 317.392C103.695 317.056 103.815 316.776 104.055 316.552C104.295 316.312 104.591 316.192 104.943 316.192C105.295 316.192 105.591 316.304 105.831 316.528C106.071 316.752 106.191 317.032 106.191 317.368C106.191 317.72 106.071 318.016 105.831 318.256C105.607 318.496 105.311 318.616 104.943 318.616ZM115.9 338.776C114.748 338.776 113.644 338.608 112.588 338.272C111.532 337.936 110.676 337.456 110.02 336.832L110.884 335.536C111.476 336.064 112.204 336.48 113.068 336.784C113.948 337.104 114.876 337.264 115.852 337.264C117.452 337.264 118.628 336.888 119.38 336.136C120.132 335.4 120.508 334.248 120.508 332.68V329.536L120.748 327.376L120.58 325.216V321.4H122.212V332.464C122.212 334.64 121.676 336.232 120.604 337.24C119.548 338.264 117.98 338.776 115.9 338.776ZM115.588 333.52C114.388 333.52 113.308 333.264 112.348 332.752C111.388 332.224 110.628 331.496 110.068 330.568C109.524 329.64 109.252 328.576 109.252 327.376C109.252 326.176 109.524 325.12 110.068 324.208C110.628 323.28 111.388 322.56 112.348 322.048C113.308 321.536 114.388 321.28 115.588 321.28C116.708 321.28 117.716 321.512 118.612 321.976C119.508 322.44 120.22 323.128 120.748 324.04C121.276 324.952 121.54 326.064 121.54 327.376C121.54 328.688 121.276 329.8 120.748 330.712C120.22 331.624 119.508 332.32 118.612 332.8C117.716 333.28 116.708 333.52 115.588 333.52ZM115.756 332.008C116.684 332.008 117.508 331.816 118.228 331.432C118.948 331.032 119.516 330.488 119.932 329.8C120.348 329.096 120.556 328.288 120.556 327.376C120.556 326.464 120.348 325.664 119.932 324.976C119.516 324.288 118.948 323.752 118.228 323.368C117.508 322.968 116.684 322.768 115.756 322.768C114.844 322.768 114.02 322.968 113.284 323.368C112.564 323.752 111.996 324.288 111.58 324.976C111.18 325.664 110.98 326.464 110.98 327.376C110.98 328.288 111.18 329.096 111.58 329.8C111.996 330.488 112.564 331.032 113.284 331.432C114.02 331.816 114.844 332.008 115.756 332.008ZM133.386 321.28C134.41 321.28 135.306 321.48 136.074 321.88C136.858 322.264 137.466 322.856 137.898 323.656C138.346 324.456 138.57 325.464 138.57 326.68V334H136.866V326.848C136.866 325.52 136.53 324.52 135.858 323.848C135.202 323.16 134.274 322.816 133.074 322.816C132.178 322.816 131.394 323 130.722 323.368C130.066 323.72 129.554 324.24 129.186 324.928C128.834 325.6 128.658 326.416 128.658 327.376V334H126.954V316.192H128.658V324.856L128.322 324.208C128.722 323.296 129.362 322.584 130.242 322.072C131.122 321.544 132.17 321.28 133.386 321.28ZM147.157 334.12C145.973 334.12 145.061 333.8 144.421 333.16C143.781 332.52 143.461 331.616 143.461 330.448V318.616H145.165V330.352C145.165 331.088 145.349 331.656 145.717 332.056C146.101 332.456 146.645 332.656 147.349 332.656C148.101 332.656 148.725 332.44 149.221 332.008L149.821 333.232C149.485 333.536 149.077 333.76 148.597 333.904C148.133 334.048 147.653 334.12 147.157 334.12ZM141.205 322.816V321.4H149.005V322.816H141.205ZM153.091 323.896C152.739 323.896 152.435 323.768 152.179 323.512C151.939 323.256 151.819 322.944 151.819 322.576C151.819 322.192 151.939 321.88 152.179 321.64C152.435 321.4 152.739 321.28 153.091 321.28C153.443 321.28 153.739 321.4 153.979 321.64C154.235 321.88 154.363 322.192 154.363 322.576C154.363 322.944 154.235 323.256 153.979 323.512C153.739 323.768 153.443 323.896 153.091 323.896ZM153.091 334.12C152.739 334.12 152.435 333.992 152.179 333.736C151.939 333.48 151.819 333.168 151.819 332.8C151.819 332.416 151.939 332.104 152.179 331.864C152.435 331.624 152.739 331.504 153.091 331.504C153.443 331.504 153.739 331.624 153.979 331.864C154.235 332.104 154.363 332.416 154.363 332.8C154.363 333.168 154.235 333.48 153.979 333.736C153.739 333.992 153.443 334.12 153.091 334.12ZM166.09 334V317.92L166.858 318.736H162.13V317.2H167.818V334H166.09ZM178.53 334.144C177.234 334.144 176.082 333.808 175.074 333.136C174.066 332.448 173.274 331.472 172.698 330.208C172.122 328.928 171.834 327.392 171.834 325.6C171.834 323.808 172.122 322.28 172.698 321.016C173.274 319.736 174.066 318.76 175.074 318.088C176.082 317.4 177.234 317.056 178.53 317.056C179.826 317.056 180.978 317.4 181.986 318.088C182.994 318.76 183.786 319.736 184.362 321.016C184.954 322.28 185.25 323.808 185.25 325.6C185.25 327.392 184.954 328.928 184.362 330.208C183.786 331.472 182.994 332.448 181.986 333.136C180.978 333.808 179.826 334.144 178.53 334.144ZM178.53 332.56C179.522 332.56 180.386 332.296 181.122 331.768C181.858 331.224 182.434 330.44 182.85 329.416C183.266 328.376 183.474 327.104 183.474 325.6C183.474 324.096 183.266 322.832 182.85 321.808C182.434 320.768 181.858 319.984 181.122 319.456C180.386 318.912 179.522 318.64 178.53 318.64C177.57 318.64 176.714 318.912 175.962 319.456C175.21 319.984 174.626 320.768 174.21 321.808C173.794 322.832 173.586 324.096 173.586 325.6C173.586 327.104 173.794 328.376 174.21 329.416C174.626 330.44 175.21 331.224 175.962 331.768C176.714 332.296 177.57 332.56 178.53 332.56ZM194.421 334.144C193.125 334.144 191.973 333.808 190.965 333.136C189.957 332.448 189.165 331.472 188.589 330.208C188.013 328.928 187.725 327.392 187.725 325.6C187.725 323.808 188.013 322.28 188.589 321.016C189.165 319.736 189.957 318.76 190.965 318.088C191.973 317.4 193.125 317.056 194.421 317.056C195.717 317.056 196.869 317.4 197.877 318.088C198.885 318.76 199.677 319.736 200.253 321.016C200.845 322.28 201.141 323.808 201.141 325.6C201.141 327.392 200.845 328.928 200.253 330.208C199.677 331.472 198.885 332.448 197.877 333.136C196.869 333.808 195.717 334.144 194.421 334.144ZM194.421 332.56C195.413 332.56 196.277 332.296 197.013 331.768C197.749 331.224 198.325 330.44 198.741 329.416C199.157 328.376 199.365 327.104 199.365 325.6C199.365 324.096 199.157 322.832 198.741 321.808C198.325 320.768 197.749 319.984 197.013 319.456C196.277 318.912 195.413 318.64 194.421 318.64C193.461 318.64 192.605 318.912 191.853 319.456C191.101 319.984 190.517 320.768 190.101 321.808C189.685 322.832 189.477 324.096 189.477 325.6C189.477 327.104 189.685 328.376 190.101 329.416C190.517 330.44 191.101 331.224 191.853 331.768C192.605 332.296 193.461 332.56 194.421 332.56ZM209.759 334.12C208.559 334.12 207.479 333.848 206.519 333.304C205.575 332.76 204.831 332.008 204.287 331.048C203.743 330.072 203.471 328.952 203.471 327.688C203.471 326.408 203.743 325.288 204.287 324.328C204.831 323.368 205.575 322.624 206.519 322.096C207.479 321.552 208.559 321.28 209.759 321.28C210.863 321.28 211.847 321.528 212.711 322.024C213.591 322.52 214.287 323.248 214.799 324.208C215.327 325.152 215.591 326.312 215.591 327.688C215.591 329.048 215.335 330.208 214.823 331.168C214.311 332.128 213.615 332.864 212.735 333.376C211.871 333.872 210.879 334.12 209.759 334.12ZM209.879 332.608C210.775 332.608 211.575 332.408 212.279 332.008C212.999 331.592 213.559 331.016 213.959 330.28C214.375 329.528 214.583 328.664 214.583 327.688C214.583 326.696 214.375 325.832 213.959 325.096C213.559 324.36 212.999 323.792 212.279 323.392C211.575 322.976 210.775 322.768 209.879 322.768C208.999 322.768 208.207 322.976 207.503 323.392C206.799 323.792 206.239 324.36 205.823 325.096C205.407 325.832 205.199 326.696 205.199 327.688C205.199 328.664 205.407 329.528 205.823 330.28C206.239 331.016 206.799 331.592 207.503 332.008C208.207 332.408 208.999 332.608 209.879 332.608ZM214.631 334V330.208L214.799 327.664L214.559 325.12V316.192H216.263V334H214.631ZM224.249 334L218.657 321.4H220.433L225.569 333.088H224.729L229.937 321.4H231.617L226.001 334H224.249ZM240.449 321.28C241.473 321.28 242.369 321.48 243.137 321.88C243.921 322.264 244.529 322.856 244.961 323.656C245.409 324.456 245.633 325.464 245.633 326.68V334H243.929V326.848C243.929 325.52 243.593 324.52 242.921 323.848C242.265 323.16 241.337 322.816 240.137 322.816C239.241 322.816 238.457 323 237.785 323.368C237.129 323.72 236.617 324.24 236.249 324.928C235.897 325.6 235.721 326.416 235.721 327.376V334H234.017V316.192H235.721V324.856L235.385 324.208C235.785 323.296 236.425 322.584 237.305 322.072C238.185 321.544 239.233 321.28 240.449 321.28ZM250.403 323.896C250.051 323.896 249.747 323.768 249.491 323.512C249.251 323.256 249.131 322.944 249.131 322.576C249.131 322.192 249.251 321.88 249.491 321.64C249.747 321.4 250.051 321.28 250.403 321.28C250.755 321.28 251.051 321.4 251.291 321.64C251.547 321.88 251.675 322.192 251.675 322.576C251.675 322.944 251.547 323.256 251.291 323.512C251.051 323.768 250.755 323.896 250.403 323.896ZM249.203 337.504L250.259 333.064L250.451 334.096C250.083 334.096 249.771 333.976 249.515 333.736C249.275 333.496 249.155 333.184 249.155 332.8C249.155 332.416 249.275 332.104 249.515 331.864C249.771 331.624 250.075 331.504 250.427 331.504C250.795 331.504 251.091 331.632 251.315 331.888C251.555 332.144 251.675 332.448 251.675 332.8C251.675 332.928 251.667 333.056 251.651 333.184C251.635 333.312 251.603 333.456 251.555 333.616C251.507 333.776 251.443 333.968 251.363 334.192L250.355 337.504H249.203Z" fill="#353535"/>
</svg>
