<svg width="459" height="160" viewBox="0 0 459 160" fill="none" xmlns="http://www.w3.org/2000/svg">
  <path d="M80 0.5H378.182C422.088 0.5 457.682 36.0934 457.682 80C457.682 123.907 422.088 159.5 378.182 159.5H80C36.0934 159.5 0.5 123.907 0.5 80C0.5 36.0934 36.0934 0.5 80 0.5Z" fill="#FF852E"/>
  <path d="M80.7237 118.4C99.7782 118.4 108.942 106.327 108.942 86.5457V36.2184C108.942 33.0184 107.051 31.2729 104.433 31.2729C101.815 31.2729 100.069 33.0184 100.069 36.2184V86.5457C100.069 103.273 92.7964 110.109 80.7237 110.109C68.9418 110.109 61.6691 103.273 61.6691 86.5457V36.2184C61.6691 33.0184 59.7782 31.2729 57.16 31.2729C54.5418 31.2729 52.7964 33.0184 52.7964 36.2184V86.5457C52.7964 106.327 61.96 118.4 80.7237 118.4ZM154.994 117.237C156.303 117.237 157.612 116.8 159.212 115.637C177.103 102.4 193.248 81.6002 193.248 64.582C193.248 50.7639 183.794 43.3457 173.612 43.3457C164.448 43.3457 158.63 47.1275 154.994 51.782C151.357 47.1275 145.83 43.3457 136.667 43.3457C126.485 43.3457 117.03 50.7639 117.03 64.582C117.03 81.6002 133.176 102.4 151.067 115.637C152.667 116.8 153.976 117.237 154.994 117.237ZM154.994 66.9093C158.485 59.4911 164.012 51.3457 172.303 51.3457C179.285 51.3457 184.376 56.4366 184.376 64.582C184.376 77.8184 169.83 97.4548 154.994 107.346C140.448 97.4548 125.903 77.8184 125.903 64.582C125.903 56.4366 130.994 51.3457 137.976 51.3457C146.267 51.3457 151.648 59.4911 154.994 66.9093ZM208.61 120.146C218.501 120.146 224.319 114.037 229.119 107.491C233.919 114.037 239.737 120.146 249.628 120.146C253.264 120.146 256.464 119.127 256.464 115.782C256.464 113.746 254.864 111.855 252.537 111.855C251.664 111.855 250.064 112.146 249.046 112.146C244.392 112.146 238.864 106.037 235.81 101.673C242.064 94.982 248.901 86.4002 248.901 76.9457C248.901 66.0366 240.61 58.3275 229.119 58.3275C217.628 58.3275 209.337 66.0366 209.337 76.9457C209.337 86.4002 216.173 94.982 222.428 101.673C219.373 106.037 213.846 112.146 209.192 112.146C208.173 112.146 206.573 111.855 205.701 111.855C203.373 111.855 201.773 113.746 201.773 115.782C201.773 119.127 204.973 120.146 208.61 120.146ZM303.244 117.237C304.553 117.237 305.862 116.8 307.462 115.637C325.353 102.4 341.499 81.6002 341.499 64.582C341.499 50.7639 332.044 43.3457 321.862 43.3457C312.699 43.3457 306.88 47.1275 303.244 51.782C299.608 47.1275 294.08 43.3457 284.917 43.3457C274.735 43.3457 265.28 50.7639 265.28 64.582C265.28 81.6002 281.426 102.4 299.317 115.637C300.917 116.8 302.226 117.237 303.244 117.237ZM303.244 66.9093C306.735 59.4911 312.262 51.3457 320.553 51.3457C327.535 51.3457 332.626 56.4366 332.626 64.582C332.626 77.8184 318.08 97.4548 303.244 107.346C288.699 97.4548 274.153 77.8184 274.153 64.582C274.153 56.4366 279.244 51.3457 286.226 51.3457C294.517 51.3457 299.899 59.4911 303.244 66.9093ZM377.225 118.4C396.28 118.4 405.443 106.327 405.443 86.5457V36.2184C405.443 33.0184 403.552 31.2729 400.934 31.2729C398.316 31.2729 396.571 33.0184 396.571 36.2184V86.5457C396.571 103.273 389.298 110.109 377.225 110.109C365.443 110.109 358.169 103.273 358.169 86.5457V36.2184C358.169 33.0184 356.278 31.2729 353.66 31.2729C351.042 31.2729 349.296 33.0184 349.296 36.2184V86.5457C349.296 106.327 358.46 118.4 377.225 118.4Z" fill="#000000"/>
</svg>
