<svg xmlns="http://www.w3.org/2000/svg" viewBox="0 0 1920 1080" xml:space="preserve"><path d="M243.1 959.1H2.55a2.5 2.5 0 1 1 0-5H243.1a2.5 2.5 0 1 1 0 5z"/><path fill="none" stroke="#000" stroke-width="5" stroke-linecap="round" stroke-linejoin="round" stroke-miterlimit="10" d="M541.49 956.59h229.56"/><path fill="#2E9AFF" d="M1880.43 350.12h-62.14a41.88 41.88 0 0 1-41.83-41.83v-48.27a17.61 17.61 0 0 1 35.19 0v26.42l70.4 59.27a2.5 2.5 0 0 1-1.62 4.41zm-86.38-102.7c-6.94 0-12.6 5.66-12.6 12.6v48.27a36.88 36.88 0 0 0 36.84 36.83h55.29l-66.04-55.6a2.5 2.5 0 0 1-.9-1.92v-27.58a12.6 12.6 0 0 0-12.59-12.6z"/><path fill="#2E9AFF" d="M1759.67 273.2h19.29v-12.14h-31.43c0 6.71 5.43 12.14 12.14 12.14z"/><circle fill="#2E9AFF" cx="1793.75" cy="267.13" r="6.07"/><path fill="#2E9AFF" d="M1857.14 328.11c-9.06 10.62-27.25 9.98-40.63-1.43s-16.88-29.27-7.82-39.9l48.45 41.33zm-57.32 60.21a2.5 2.5 0 0 1-2.5-2.5v-42.8a2.5 2.5 0 1 1 5 0v42.8a2.5 2.5 0 0 1-2.5 2.5zm12.88-2.31a2.5 2.5 0 0 1-2.5-2.5v-35.89a2.5 2.5 0 1 1 5 0v35.9a2.5 2.5 0 0 1-2.5 2.5z"/><path d="m290.06 948.08-28.79-.66-62.04-383.4 27.95-4.53z"/><path fill="#2E9AFF" d="m4.95 595.58 175.38-226.13 237.79 159.21z"/><path d="M4.95 598.08a2.5 2.5 0 0 1-1.97-4.03L178.36 367.9a2.5 2.5 0 0 1 3.36-.54l237.79 159.2a2.5 2.5 0 0 1-1 4.55L5.36 598.04c-.13.03-.27.04-.4.04zm175.92-225.26L10.81 592.1l400.65-64.9-230.59-154.38z"/><path fill="#2E9AFF" d="M87.58 582.2c3.66 22.55-11.88 43.83-34.7 47.53S8.6 618.13 4.95 595.58l82.63-13.38z"/><path d="M46.02 632.78a44.2 44.2 0 0 1-25.74-8.25 43.35 43.35 0 0 1-17.8-28.55 2.5 2.5 0 0 1 2.07-2.87l82.63-13.38a2.48 2.48 0 0 1 2.87 2.07c3.87 23.88-12.63 46.48-36.77 50.4-2.42.39-4.85.58-7.26.58zM7.89 597.63a38.37 38.37 0 0 0 15.29 22.84 39.33 39.33 0 0 0 29.3 6.8c20.59-3.34 34.91-21.97 32.96-42.2L7.89 597.63z"/><path fill="#2E9AFF" d="M170.22 568.81c3.65 22.56-11.89 43.84-34.7 47.53s-44.28-11.59-47.94-34.15l82.64-13.38z"/><path d="M128.72 619.4c-21.32 0-40.12-15.32-43.6-36.8a2.5 2.5 0 0 1 2.06-2.87l82.64-13.39a2.5 2.5 0 0 1 2.86 2.07c3.87 23.88-12.62 46.49-36.77 50.4-2.41.4-4.81.58-7.19.58zm-38.2-35.15c4.54 19.8 24.02 32.95 44.6 29.63 20.58-3.34 34.9-21.97 32.95-42.2l-77.54 12.57z"/><path fill="#2E9AFF" d="M252.85 555.42c3.65 22.56-11.88 43.84-34.7 47.54s-44.28-11.6-47.93-34.15l82.63-13.38z"/><path d="M211.36 606c-21.33 0-40.13-15.3-43.6-36.8a2.5 2.5 0 0 1 2.06-2.86l82.63-13.38a2.5 2.5 0 0 1 2.87 2.06c3.87 23.88-12.63 46.5-36.77 50.4-2.42.4-4.82.59-7.2.59zm-38.2-35.14c4.54 19.81 24 32.96 44.59 29.63 20.58-3.33 34.9-21.96 32.95-42.19l-77.54 12.56z"/><path fill="#2E9AFF" d="M335.48 542.04c3.66 22.56-11.88 43.84-34.7 47.53s-44.28-11.59-47.93-34.15l82.63-13.38z"/><path d="M293.92 592.63a44.2 44.2 0 0 1-25.74-8.25 43.35 43.35 0 0 1-17.8-28.56 2.5 2.5 0 0 1 2.07-2.86l82.64-13.39c1.36-.23 2.64.7 2.86 2.07a43.35 43.35 0 0 1-7.87 32.71 44.31 44.31 0 0 1-28.9 17.69c-2.42.4-4.85.59-7.26.59zm-38.13-35.15a38.37 38.37 0 0 0 15.29 22.83 39.34 39.34 0 0 0 29.3 6.8 39.34 39.34 0 0 0 25.66-15.7 38.38 38.38 0 0 0 7.3-26.5l-77.55 12.57z"/><path fill="#2E9AFF" d="M418.12 528.65c3.65 22.56-11.89 43.84-34.7 47.54s-44.28-11.6-47.94-34.15l82.64-13.38z"/><path d="M376.55 579.24a44.2 44.2 0 0 1-25.74-8.25 43.35 43.35 0 0 1-17.8-28.55 2.5 2.5 0 0 1 2.08-2.87l82.63-13.38a2.5 2.5 0 0 1 2.86 2.07c3.87 23.88-12.62 46.49-36.76 50.4-2.43.39-4.86.58-7.27.58zm-38.12-35.14a38.37 38.37 0 0 0 15.28 22.83 39.34 39.34 0 0 0 29.3 6.8c20.6-3.34 34.91-21.97 32.96-42.2l-77.54 12.57zM87.58 584.7a2.5 2.5 0 0 1-2.29-3.5l92.75-212.75a2.5 2.5 0 1 1 4.58 2L89.87 583.18a2.5 2.5 0 0 1-2.29 1.5z"/><path d="M170.22 571.3h-.13a2.5 2.5 0 0 1-2.37-2.62l10.12-199.36a2.5 2.5 0 1 1 4.98.25l-10.1 199.37a2.5 2.5 0 0 1-2.5 2.37z"/><path d="M252.85 557.92c-1 0-1.94-.6-2.33-1.59L178 370.35a2.5 2.5 0 1 1 4.66-1.81l72.52 185.98a2.5 2.5 0 0 1-2.33 3.4z"/><path d="M335.49 544.54a2.5 2.5 0 0 1-1.86-.83l-155.16-172.6a2.5 2.5 0 0 1 3.72-3.34l155.15 172.6a2.5 2.5 0 0 1-1.85 4.17z"/><path fill="#FFF" d="M958.58 324.58c-.16 0-.32-.02-.5-.05-.14-.04-.3-.08-.45-.15a2.38 2.38 0 0 1-.81-.54 2.5 2.5 0 0 1-.55-2.72 2.38 2.38 0 0 1 1.36-1.35c.15-.07.3-.1.46-.15a2.5 2.5 0 0 1 2.26 4.22 2.5 2.5 0 0 1-1.77.74zM629.9 464.69a2.5 2.5 0 1 1 .69-4.95 2.5 2.5 0 0 1-.35 4.97c-.1 0-.22 0-.33-.02zm-13.92-2.38a2.5 2.5 0 1 1 1-4.9 2.5 2.5 0 0 1 1.95 2.95 2.5 2.5 0 0 1-2.45 2c-.16 0-.33-.02-.5-.05zm-13.76-3.3a2.5 2.5 0 0 1 1.34-4.82 2.5 2.5 0 0 1 1.74 3.08 2.5 2.5 0 0 1-2.4 1.83c-.23 0-.45-.03-.68-.1zm-13.49-4.32a2.5 2.5 0 0 1-1.5-3.2 2.5 2.5 0 0 1 3.21-1.5v.02a2.5 2.5 0 0 1-.86 4.85c-.28 0-.57-.06-.85-.17zm-13.1-5.42a2.5 2.5 0 0 1 2.12-4.53h-.02a2.5 2.5 0 0 1 1.21 3.33 2.52 2.52 0 0 1-2.27 1.44c-.35 0-.7-.08-1.05-.24zm-12.58-6.67a2.5 2.5 0 1 1 2.58-4.29 2.5 2.5 0 0 1 .85 3.43 2.53 2.53 0 0 1-3.43.86zm-11.78-8.02a2.5 2.5 0 0 1 3.05-3.96 2.5 2.5 0 0 1 .45 3.5 2.48 2.48 0 0 1-3.5.46zm-10.73-9.44a2.5 2.5 0 1 1 3.54-3.52c.98.98.97 2.57-.01 3.53a2.48 2.48 0 0 1-3.53-.01zm-9.34-10.85a2.5 2.5 0 0 1 .53-3.5 2.5 2.5 0 0 1 2.97 4.02 2.5 2.5 0 0 1-3.5-.52zm-7.62-12.15a2.5 2.5 0 1 1 4.43-2.32 2.5 2.5 0 0 1-1.05 3.37c-.37.2-.77.3-1.16.3-.9 0-1.77-.5-2.22-1.35zm-5.62-13.2a2.5 2.5 0 1 1 4.74-1.6 2.5 2.5 0 0 1-1.59 3.17 2.5 2.5 0 0 1-3.16-1.57zm-3.5-13.92a2.5 2.5 0 1 1 4.93-.84h-.01a2.5 2.5 0 0 1-2.04 2.89 2.5 2.5 0 0 1-2.89-2.05zm-1.36-14.26a2.5 2.5 0 0 1 2.44-2.56 2.5 2.5 0 1 1 .11 5h-.05a2.5 2.5 0 0 1-2.5-2.44zm2.86-11.52a2.5 2.5 0 0 1-2.2-2.76 2.5 2.5 0 1 1 4.97.55h-.01a2.5 2.5 0 0 1-2.48 2.23c-.09 0-.19 0-.28-.02zm2.1-13.8a2.5 2.5 0 1 1 1.13-4.87 2.5 2.5 0 0 1-.57 4.93c-.18 0-.37-.02-.56-.06zm3.64-13.49a2.5 2.5 0 0 1-1.55-3.17 2.5 2.5 0 0 1 4.73 1.64 2.5 2.5 0 0 1-2.37 1.67 2.3 2.3 0 0 1-.81-.14zm443.28-9.4a2.5 2.5 0 1 1 2.62-4.25 2.49 2.49 0 0 1 .82 3.43 2.5 2.5 0 0 1-2.13 1.2c-.45 0-.9-.12-1.3-.38zm-438.33-3.65a2.5 2.5 0 1 1 2.06-4.56 2.51 2.51 0 0 1 1.25 3.31 2.51 2.51 0 0 1-2.28 1.47c-.34 0-.69-.07-1.03-.22zm445.39-8.41a2.5 2.5 0 0 1-1.07-3.37 2.5 2.5 0 1 1 4.43 2.3 2.48 2.48 0 0 1-2.22 1.35c-.38 0-.78-.1-1.14-.28zm-439.31-4.18a2.5 2.5 0 0 1-1-3.39 2.51 2.51 0 0 1 3.4-.99 2.53 2.53 0 0 1 1 3.4 2.5 2.5 0 0 1-2.2 1.3c-.4 0-.82-.1-1.2-.32zm445.41-8.4a2.49 2.49 0 1 1 1.92-4.6 2.5 2.5 0 0 1-.96 4.8c-.32 0-.65-.05-.96-.2zm-438.4-3.68a2.49 2.49 0 0 1-.74-3.45 2.5 2.5 0 0 1 4.2 2.7v.01a2.49 2.49 0 0 1-3.46.74zm443.4-9.35a2.5 2.5 0 1 1 1.48-4.78 2.5 2.5 0 0 1-.74 4.89c-.24 0-.5-.04-.73-.11zm-435.57-2.22a2.5 2.5 0 0 1 2.97-4.03 2.5 2.5 0 0 1 .52 3.5 2.5 2.5 0 0 1-2.02 1c-.5 0-1.03-.14-1.47-.47zm8.5-11.08a2.5 2.5 0 0 1-.31-3.52 2.5 2.5 0 1 1 3.84 3.19c-.5.6-1.2.9-1.92.9a2.6 2.6 0 0 1-1.6-.57zm430.76-.18a2.5 2.5 0 0 1-1.96-2.93 2.48 2.48 0 0 1 2.92-1.97 2.5 2.5 0 0 1-.48 4.94 2.6 2.6 0 0 1-.47-.04zM565.2 250.99a2.5 2.5 0 1 1 3.39-3.67 2.49 2.49 0 0 1-1.69 4.33c-.61 0-1.22-.22-1.7-.66zm423.78-3.4a2.5 2.5 0 0 1-2.3-2.66h-.02a2.5 2.5 0 0 1 2.67-2.32 2.5 2.5 0 0 1-.17 4.99h-.18zm-414.14-6.72a2.5 2.5 0 0 1 .04-3.52v-.02a2.5 2.5 0 0 1 3.5 3.57 2.5 2.5 0 0 1-3.54-.03zm411.86-9.56a2.5 2.5 0 0 1 4.99-.34 2.5 2.5 0 0 1-2.33 2.66h-.18a2.5 2.5 0 0 1-2.48-2.32zm-401.74-.08a2.5 2.5 0 0 1 3.72-3.34 2.5 2.5 0 0 1-.19 3.53 2.48 2.48 0 0 1-3.53-.19zm10.54-9.2a2.5 2.5 0 1 1 3.86-3.17 2.5 2.5 0 0 1-.35 3.53 2.5 2.5 0 0 1-3.52-.35zm389.26-4.17a2.5 2.5 0 0 1 4.89-1.08 2.5 2.5 0 0 1-1.9 2.98 2.5 2.5 0 0 1-2.99-1.9zM606.4 213.3a2.49 2.49 0 0 1 .48-3.5 2.5 2.5 0 0 1 3.02 3.98 2.49 2.49 0 0 1-3.5-.48zm374.38-8.41a2.5 2.5 0 0 1 1.4-3.25 2.5 2.5 0 0 1 3.25 1.41 2.5 2.5 0 0 1-1.41 3.25 2.5 2.5 0 0 1-3.24-1.4zm-363.14.12a2.5 2.5 0 0 1 .62-3.48 2.5 2.5 0 0 1 2.86 4.1 2.5 2.5 0 0 1-3.48-.62zm11.55-7.86a2.5 2.5 0 0 1 4.2-2.7v-.01a2.5 2.5 0 0 1-2.1 3.85 2.5 2.5 0 0 1-2.1-1.14zm345.64-4.45a2.5 2.5 0 1 1 4.3-2.54 2.5 2.5 0 0 1-.88 3.43c-.4.23-.84.34-1.27.34-.86 0-1.69-.44-2.15-1.23zm-333.8-2.99a2.5 2.5 0 0 1 4.3-2.56c.7 1.2.3 2.72-.87 3.43a2.5 2.5 0 0 1-3.43-.87zm12.1-7.01a2.5 2.5 0 0 1 .98-3.4 2.48 2.48 0 0 1 3.39 1c.67 1.2.23 2.73-1 3.39a2.5 2.5 0 0 1-3.39-.99zm313.93-1.12a2.5 2.5 0 0 1 .36-3.52 2.5 2.5 0 0 1 3.16 3.88 2.5 2.5 0 0 1-3.52-.36zm-301.6-5.47a2.5 2.5 0 0 1 4.46-2.26h-.01a2.51 2.51 0 0 1-1.1 3.37h-.01a2.5 2.5 0 0 1-3.35-1.1zm292.27-4.42a2.5 2.5 0 1 1 3.38-3.68 2.5 2.5 0 0 1-1.69 4.34c-.61 0-1.21-.22-1.7-.66zM678 169.95a2.5 2.5 0 0 1 1.22-3.32 2.49 2.49 0 0 1 3.3 1.2 2.49 2.49 0 0 1-1.2 3.32 2.5 2.5 0 0 1-3.32-1.2zm12.74-5.75a2.5 2.5 0 0 1 1.32-3.28 2.5 2.5 0 0 1 1.96 4.6 2.5 2.5 0 0 1-3.28-1.32zm256.38-1.08a2.5 2.5 0 0 1 2.9-4.08 2.5 2.5 0 0 1 .58 3.5 2.52 2.52 0 0 1-2.04 1.04c-.5 0-1-.15-1.44-.46zm-243.46-4.26a2.49 2.49 0 1 1 4.66-1.8 2.5 2.5 0 0 1-1.43 3.23 2.5 2.5 0 0 1-3.23-1.43zm231.87-3.01a2.5 2.5 0 1 1 2.42-4.37 2.5 2.5 0 0 1-1.2 4.68h-.01c-.41 0-.82-.1-1.21-.31zm-218.8-1.88a2.5 2.5 0 0 1 1.54-3.18 2.5 2.5 0 0 1 1.65 4.72 2.5 2.5 0 0 1-3.19-1.54zm13.23-4.46a2.5 2.5 0 0 1 1.65-3.13 2.5 2.5 0 0 1 1.49 4.77c-.25.08-.5.1-.75.1a2.5 2.5 0 0 1-2.39-1.74zm193.25.29a2.49 2.49 0 0 1-1.3-3.28 2.5 2.5 0 0 1 3.28-1.3 2.51 2.51 0 0 1 1.3 3.28 2.47 2.47 0 0 1-3.29 1.3zm-179.86-4.3a2.5 2.5 0 0 1 1.75-3.07 2.5 2.5 0 1 1 .66 4.91 2.5 2.5 0 0 1-2.41-1.85zm167-.6a2.5 2.5 0 0 1-1.57-3.16 2.49 2.49 0 0 1 3.16-1.57 2.49 2.49 0 0 1 1.57 3.15 2.5 2.5 0 0 1-2.36 1.71 2.7 2.7 0 0 1-.8-.13zm-153.48-2.95a2.5 2.5 0 0 1 4.87-1.15 2.5 2.5 0 0 1-1.86 3 2.5 2.5 0 0 1-3-1.86zm140.26-.91a2.5 2.5 0 0 1-1.81-3.04 2.5 2.5 0 0 1 4.84 1.23 2.5 2.5 0 0 1-2.42 1.89c-.2 0-.41-.03-.61-.08zm-126.62-2.15a2.5 2.5 0 0 1 1.95-2.94 2.5 2.5 0 0 1 .98 4.9 2.5 2.5 0 0 1-2.94-1.97zm13.74-2.55a2.5 2.5 0 0 1 4.94-.79 2.51 2.51 0 0 1-2.09 2.86 2.49 2.49 0 0 1-2.86-2.07zm99.39 1.78v-.01a2.5 2.5 0 1 1 .89-4.9 2.5 2.5 0 0 1-.45 4.96v-.01c-.14 0-.3-.02-.44-.04zm-85.56-3.8a2.49 2.49 0 1 1 4.96-.59 2.5 2.5 0 0 1-2.2 2.77l-.29.02a2.5 2.5 0 0 1-2.47-2.2zm71.89 1.74a2.5 2.5 0 0 1 .59-4.97 2.5 2.5 0 0 1 2.19 2.78 2.52 2.52 0 0 1-2.5 2.21l-.28-.02zm-58-3.22a2.5 2.5 0 1 1 4.99-.38h-.01a2.5 2.5 0 0 1-2.3 2.68l-.2.01a2.5 2.5 0 0 1-2.49-2.3zm44.22 1.95a2.5 2.5 0 1 1 .32-4.99 2.5 2.5 0 0 1 2.33 2.66 2.48 2.48 0 0 1-2.5 2.33h-.15zm-30.28-2.83a2.5 2.5 0 0 1 2.42-2.57 2.5 2.5 0 0 1 2.58 2.41 2.5 2.5 0 0 1-2.42 2.58h.01-.09a2.5 2.5 0 0 1-2.5-2.42zm16.44 2.3a2.5 2.5 0 0 1-2.46-2.55 2.5 2.5 0 0 1 5 .07 2.5 2.5 0 0 1-2.51 2.47h-.03zm-197.99 332a2.53 2.53 0 0 1-2.08-1.12 2.18 2.18 0 0 1-.22-.43 2.62 2.62 0 0 1-.15-1.45c.03-.15.08-.3.14-.45a2.38 2.38 0 0 1 .54-.81 2.5 2.5 0 1 1 1.77 4.26zm7.9-10.76a2.5 2.5 0 0 1 3.45-3.62 2.5 2.5 0 0 1 .08 3.53 2.48 2.48 0 0 1-3.53.08zm9.62-10.08a2.5 2.5 0 0 1 3.46-3.62 2.5 2.5 0 0 1 .08 3.53 2.47 2.47 0 0 1-3.54.08zm9.63-10.08a2.5 2.5 0 1 1 3.46-3.6v-.01a2.5 2.5 0 0 1 .07 3.53 2.51 2.51 0 0 1-3.54.08zm9.63-10.08a2.5 2.5 0 0 1 3.45-3.62 2.5 2.5 0 0 1-1.72 4.3v.01c-.63 0-1.25-.23-1.73-.69zm9.62-10.07a2.5 2.5 0 1 1 3.45-3.62 2.5 2.5 0 0 1-1.73 4.3v.01c-.62 0-1.24-.23-1.72-.69zm9.62-10.08a2.5 2.5 0 0 1-.08-3.53 2.5 2.5 0 1 1 3.62 3.45 2.49 2.49 0 0 1-3.54.08zm9.64-10.07a2.5 2.5 0 1 1 3.45-3.6v-.01a2.5 2.5 0 0 1-1.73 4.3c-.63 0-1.25-.23-1.72-.7zm9.62-10.08a2.5 2.5 0 0 1 3.45-3.62 2.5 2.5 0 0 1 .09 3.55 2.5 2.5 0 0 1-3.54.08zm9.62-10.07a2.5 2.5 0 0 1 3.46-3.62 2.5 2.5 0 0 1 .08 3.53 2.5 2.5 0 0 1-3.54.09zm9.63-10.08a2.49 2.49 0 0 1-.08-3.53 2.5 2.5 0 1 1 3.6 3.45 2.45 2.45 0 0 1-3.53.08zm9.63-10.07a2.5 2.5 0 0 1 3.45-3.62 2.5 2.5 0 0 1 .07 3.54 2.5 2.5 0 0 1-3.53.08zm9.62-10.07a2.5 2.5 0 0 1-.08-3.54 2.5 2.5 0 0 1 3.62 3.46 2.53 2.53 0 0 1-3.54.08zm9.63-10.08a2.5 2.5 0 0 1-.1-3.53 2.5 2.5 0 1 1 3.62 3.45 2.48 2.48 0 0 1-3.53.09zm9.62-10.08a2.49 2.49 0 0 1-.08-3.53c.95-1 2.53-1.04 3.53-.08 1 .95 1.04 2.53.08 3.53a2.48 2.48 0 0 1-3.53.08zm9.62-10.07a2.5 2.5 0 0 1 3.45-3.62 2.5 2.5 0 0 1 .1 3.54 2.51 2.51 0 0 1-3.54.08zM949.98 311a2.5 2.5 0 1 1 4.25-2.62 2.5 2.5 0 0 1-.8 3.44 2.49 2.49 0 0 1-3.44-.82zm-153.34-6.63a2.5 2.5 0 0 1 3.46-3.62 2.5 2.5 0 0 1-1.73 4.3 2.5 2.5 0 0 1-1.73-.69zM942.05 300a2.5 2.5 0 1 1 3.83-3.2v-.01a2.5 2.5 0 0 1-.31 3.52 2.5 2.5 0 0 1-1.6.58c-.72 0-1.43-.3-1.92-.9zm-135.81-5.75a2.5 2.5 0 0 1 3.54-3.54A2.5 2.5 0 0 1 808 295c-.64 0-1.28-.24-1.77-.73zm126.36-3.95a2.49 2.49 0 0 1-.22-3.53 2.5 2.5 0 0 1 3.75 3.3 2.47 2.47 0 0 1-3.53.22zm-116.08-5.44a2.5 2.5 0 0 1 .51-3.5c1.1-.83 2.67-.6 3.49.51.83 1.1.6 2.67-.5 3.49a2.5 2.5 0 0 1-3.5-.51zm105.28-2.74a2.5 2.5 0 0 1 2.72-4.2 2.5 2.5 0 0 1-1.36 4.6 2.5 2.5 0 0 1-1.36-.4zm-93.74-5.06a2.5 2.5 0 0 1 4.4-2.36 2.5 2.5 0 0 1-1.02 3.4c-.37.2-.78.28-1.17.28a2.5 2.5 0 0 1-2.2-1.31zm81.85-1.41a2.5 2.5 0 0 1-1.25-3.31 2.48 2.48 0 0 1 3.3-1.25 2.5 2.5 0 0 1 1.25 3.3 2.5 2.5 0 0 1-3.3 1.25zm-69.26-4.54a2.48 2.48 0 0 1 1.53-3.18c1.3-.46 2.73.22 3.18 1.53a2.48 2.48 0 0 1-1.53 3.18 2.49 2.49 0 0 1-3.18-1.53zm56.53-.08a2.5 2.5 0 0 1-1.73-3.09 2.5 2.5 0 1 1 4.8 1.35 2.5 2.5 0 0 1-2.4 1.83 2.6 2.6 0 0 1-.67-.09zM854 267.17a2.5 2.5 0 0 1 4.92-.9 2.5 2.5 0 0 1-2.01 2.9 2.5 2.5 0 0 1-2.9-2zm29.9 1.2a2.5 2.5 0 0 1-2.18-2.78 2.5 2.5 0 0 1 2.79-2.17 2.5 2.5 0 0 1-.3 4.98c-.1 0-.21 0-.31-.03zm-16.1-3.05a2.5 2.5 0 1 1 5-.15 2.5 2.5 0 0 1-2.43 2.57h-.07a2.5 2.5 0 0 1-2.5-2.42zm341.15 166.75a2.52 2.52 0 0 1-2.3-1.54c-.08-.15-.12-.3-.16-.47a2.5 2.5 0 0 1 4.22-2.26 2.5 2.5 0 0 1-1.76 4.27zm10.65-6.99a2.51 2.51 0 0 1 1.34-3.27 2.5 2.5 0 0 1 1.94 4.6 2.51 2.51 0 0 1-3.28-1.33zm12.97-5.46a2.5 2.5 0 0 1 1.33-3.28 2.5 2.5 0 0 1 3.26 1.34 2.49 2.49 0 0 1-1.32 3.27 2.49 2.49 0 0 1-3.27-1.33zm12.96-5.46a2.5 2.5 0 0 1 4.6-1.95 2.51 2.51 0 0 1-1.33 3.28 2.5 2.5 0 0 1-3.27-1.33zm12.96-5.46a2.5 2.5 0 0 1 4.6-1.94 2.5 2.5 0 0 1-1.32 3.27 2.49 2.49 0 0 1-3.28-1.33zm13.1-5.23a2.48 2.48 0 0 1 .69-3.46 2.5 2.5 0 0 1 2.77 4.16v-.01a2.49 2.49 0 0 1-3.46-.69zm11.25-8.42a2.5 2.5 0 1 1 3.63-3.43 2.5 2.5 0 0 1-.1 3.54 2.46 2.46 0 0 1-3.53-.12zm9.72-10.15a2.5 2.5 0 0 1-.46-3.5 2.49 2.49 0 0 1 3.5-.45 2.49 2.49 0 1 1-3.04 3.95zm8-11.55a2.5 2.5 0 0 1 2.4-4.39 2.53 2.53 0 0 1 1 3.4 2.5 2.5 0 0 1-2.2 1.3c-.4 0-.83-.1-1.2-.3zm6.17-12.63a2.48 2.48 0 0 1-1.46-3.2 2.5 2.5 0 0 1 4.68 1.74 2.5 2.5 0 0 1-3.22 1.47zm4.32-13.38a2.5 2.5 0 0 1 1.09-4.88 2.5 2.5 0 0 1 1.88 3 2.49 2.49 0 0 1-2.42 1.94c-.18 0-.37-.02-.55-.06zm2.44-13.84a2.5 2.5 0 0 1 .42-4.98 2.5 2.5 0 0 1-.21 4.99h-.2zm-343.34-13.95a2.5 2.5 0 0 1 1.22-3.32 2.51 2.51 0 0 1 3.32 1.23 2.48 2.48 0 0 1-1.23 3.31 2.5 2.5 0 0 1-3.3-1.22zm341.33-2.48v.02a2.5 2.5 0 0 1 2.37-2.62 2.5 2.5 0 0 1 2.62 2.38 2.5 2.5 0 0 1-2.39 2.6l-.1.01a2.51 2.51 0 0 1-2.5-2.38zm-328.56-3.4a2.52 2.52 0 0 1 1.23-3.32 2.51 2.51 0 0 1 3.31 1.23 2.52 2.52 0 0 1-1.22 3.32 2.51 2.51 0 0 1-3.32-1.23zm12.78-5.88a2.5 2.5 0 1 1 4.54-2.09 2.5 2.5 0 0 1-1.22 3.31 2.5 2.5 0 0 1-3.32-1.22zm314.26-4.35h-.01a2.5 2.5 0 0 1 4.93-.88 2.5 2.5 0 0 1-2.03 2.9 2.48 2.48 0 0 1-2.9-2.02zm-301.48-1.53a2.5 2.5 0 1 1 4.54-2.09 2.5 2.5 0 0 1-1.23 3.3 2.5 2.5 0 0 1-3.3-1.22zm12.77-5.89a2.5 2.5 0 0 1 1.23-3.32 2.49 2.49 0 0 1 3.3 1.23 2.49 2.49 0 0 1-1.21 3.31 2.5 2.5 0 0 1-3.32-1.22zm285.41-5.91a2.5 2.5 0 1 1 4.77-1.5v-.01a2.5 2.5 0 0 1-1.63 3.14c-.25.08-.5.1-.75.1a2.51 2.51 0 0 1-2.39-1.73zm-272.63.02a2.5 2.5 0 0 1 1.22-3.31 2.5 2.5 0 1 1 2.09 4.55 2.49 2.49 0 0 1-3.3-1.23zm12.77-5.88a2.49 2.49 0 0 1 1.23-3.3 2.5 2.5 0 0 1 2.09 4.54v-.01a2.5 2.5 0 0 1-3.32-1.23zm12.78-5.88a2.5 2.5 0 0 1 1.22-3.31 2.5 2.5 0 0 1 3.31 1.23 2.48 2.48 0 0 1-1.23 3.3 2.5 2.5 0 0 1-3.3-1.22zm242.16-1.22a2.5 2.5 0 0 1 4.63-1.9 2.51 2.51 0 0 1-1.37 3.27 2.5 2.5 0 0 1-3.26-1.37zm-229.4-4.66a2.5 2.5 0 0 1 4.55-2.09 2.52 2.52 0 0 1-1.23 3.32 2.51 2.51 0 0 1-3.32-1.23zm12.79-5.89a2.5 2.5 0 0 1 4.54-2.09 2.5 2.5 0 0 1-1.23 3.32 2.5 2.5 0 0 1-3.32-1.23zm210.78-1.9a2.51 2.51 0 0 1 .97-3.4 2.5 2.5 0 1 1 2.43 4.37 2.5 2.5 0 0 1-3.4-.96zm-198-3.98a2.5 2.5 0 0 1 1.21-3.31 2.5 2.5 0 0 1 3.32 1.22 2.51 2.51 0 0 1-1.23 3.32 2.49 2.49 0 0 1-3.3-1.23zm12.77-5.88a2.5 2.5 0 0 1 1.22-3.32 2.49 2.49 0 0 1 3.31 1.23 2.49 2.49 0 0 1-1.22 3.31 2.5 2.5 0 0 1-3.32-1.22zm177.71-1.59v.01a2.5 2.5 0 0 1 .47-3.5 2.49 2.49 0 0 1 3.5.46 2.5 2.5 0 0 1-.46 3.5 2.5 2.5 0 0 1-3.5-.47zm-164.93-4.3a2.5 2.5 0 0 1 1.21-3.31 2.5 2.5 0 1 1 2.09 4.55 2.49 2.49 0 0 1-3.3-1.23zm12.77-5.88a2.48 2.48 0 0 1 1.23-3.3 2.5 2.5 0 0 1 2.09 4.54 2.5 2.5 0 0 1-3.32-1.23zm143.07-.03a2.48 2.48 0 0 1-.06-3.53 2.5 2.5 0 1 1 3.59 3.47 2.5 2.5 0 0 1-1.8.76c-.62 0-1.25-.23-1.73-.7zM1149 237.2a2.5 2.5 0 0 1 1.23-3.32 2.49 2.49 0 0 1 3.31 1.23 2.5 2.5 0 0 1-1.22 3.3 2.5 2.5 0 0 1-3.32-1.22zm119.78-2.91a2.5 2.5 0 0 1 2.9-4.07 2.5 2.5 0 0 1 .59 3.49 2.52 2.52 0 0 1-2.04 1.05c-.5 0-1.01-.15-1.45-.47zm-107-2.98a2.5 2.5 0 1 1 4.55-2.09 2.5 2.5 0 0 1-1.24 3.3 2.3 2.3 0 0 1-1.04.24 2.5 2.5 0 0 1-2.27-1.45zm95.3-4.1a2.5 2.5 0 0 1-1.1-3.36 2.51 2.51 0 0 1 3.37-1.1h-.01a2.5 2.5 0 0 1-1.13 4.73c-.38 0-.76-.09-1.13-.27zm-82.52-1.79a2.5 2.5 0 0 1 1.22-3.31 2.5 2.5 0 0 1 2.09 4.55 2.5 2.5 0 0 1-3.32-1.23zm69.9-3.44a2.5 2.5 0 0 1 1.55-4.75 2.5 2.5 0 0 1 1.6 3.16 2.51 2.51 0 0 1-2.38 1.72 2.3 2.3 0 0 1-.77-.13zm-56.97-2.04a2.5 2.5 0 1 1 4.76-1.5h.01a2.5 2.5 0 0 1-1.64 3.14 2.51 2.51 0 0 1-3.13-1.64zm43.69-1.21a2.5 2.5 0 0 1-2.06-2.87 2.49 2.49 0 0 1 2.88-2.06 2.5 2.5 0 0 1 2.06 2.87 2.51 2.51 0 0 1-2.47 2.09c-.14 0-.27-.01-.41-.03zm-30.08-2.32a2.5 2.5 0 0 1 2.1-2.84h.01a2.5 2.5 0 0 1 2.84 2.11 2.5 2.5 0 0 1-2.1 2.84l-.38.02a2.5 2.5 0 0 1-2.47-2.13zm16.47 1.15a2.5 2.5 0 0 1 .04-5 2.5 2.5 0 0 1-.02 5h-.02z"/><path fill="#FFF" d="M959.58 326.92a2.89 2.89 0 0 1-.95-.2 2.27 2.27 0 0 1-.81-.53 2.51 2.51 0 0 1-.32-3.16c.1-.13.2-.26.32-.38a2.64 2.64 0 0 1 1.27-.68 2.5 2.5 0 0 1 2.25 4.22 2.5 2.5 0 0 1-1.76.73z"/><path fill="#FFF" d="M958.58 324.58c-.16 0-.32-.02-.5-.05-.14-.04-.3-.08-.45-.15a2.38 2.38 0 0 1-.81-.54 2.5 2.5 0 0 1-.55-2.72 2.38 2.38 0 0 1 1.36-1.35c.15-.07.3-.1.46-.15a2.5 2.5 0 0 1 2.26 4.22 2.5 2.5 0 0 1-1.77.74zm-289.2 140.06a2.5 2.5 0 0 1 2.46-2.53 2.5 2.5 0 0 1 .08 4.99h-.04a2.5 2.5 0 0 1-2.5-2.46zm-11.35 2.37a2.5 2.5 0 0 1 .15-5 2.5 2.5 0 0 1-.08 5h-.07zm25.12-2.8a2.5 2.5 0 0 1 2.34-2.65 2.5 2.5 0 0 1 .31 4.99h-.16a2.5 2.5 0 0 1-2.5-2.35zm13.74-1.03a2.5 2.5 0 0 1 4.97-.52 2.5 2.5 0 0 1-2.24 2.75h-.26a2.5 2.5 0 0 1-2.47-2.23zm13.68-1.6a2.5 2.5 0 0 1 4.95-.72 2.51 2.51 0 0 1-2.13 2.84l-.36.02a2.5 2.5 0 0 1-2.46-2.14zm13.6-2.14a2.5 2.5 0 0 1 4.92-.89 2.5 2.5 0 0 1-2 2.9 2.5 2.5 0 0 1-2.9-2.02zm13.52-2.63a2.5 2.5 0 1 1 4.88-1.08 2.5 2.5 0 0 1-1.9 2.98 2.5 2.5 0 0 1-2.98-1.9zm13.42-3.13a2.5 2.5 0 0 1 1.8-3.04 2.5 2.5 0 1 1 1.25 4.84 2.5 2.5 0 0 1-3.04-1.8zm13.3-3.6a2.5 2.5 0 1 1 4.79-1.4 2.5 2.5 0 0 1-1.7 3.1 2.5 2.5 0 0 1-3.1-1.69zm13.16-4.03a2.5 2.5 0 0 1 1.6-3.16 2.5 2.5 0 0 1 1.58 4.74h-.01a2.5 2.5 0 0 1-3.17-1.58zm13.03-4.49a2.5 2.5 0 1 1 4.69-1.73 2.5 2.5 0 0 1-1.48 3.21 2.5 2.5 0 0 1-3.2-1.48zm12.88-4.9a2.5 2.5 0 0 1 1.38-3.26c1.28-.52 2.74.1 3.25 1.38a2.5 2.5 0 0 1-1.37 3.26 2.5 2.5 0 0 1-3.26-1.38zm12.72-5.33a2.5 2.5 0 0 1 4.57-2.03 2.5 2.5 0 0 1-1.27 3.3 2.5 2.5 0 0 1-3.3-1.27zm12.53-5.73a2.5 2.5 0 0 1 4.5-2.17 2.5 2.5 0 0 1-1.16 3.34 2.5 2.5 0 0 1-3.34-1.17zm12.33-6.12a2.5 2.5 0 0 1 4.43-2.33 2.5 2.5 0 0 1-1.05 3.38c-.37.19-.77.29-1.16.29a2.53 2.53 0 0 1-2.22-1.34zm12.13-6.55a2.5 2.5 0 0 1 .93-3.4 2.5 2.5 0 0 1 3.4.94 2.5 2.5 0 0 1-.92 3.4 2.5 2.5 0 0 1-1.24.32 2.5 2.5 0 0 1-2.17-1.26zm11.9-6.94a2.5 2.5 0 1 1 4.26-2.63h-.01a2.5 2.5 0 0 1-2.13 3.8 2.5 2.5 0 0 1-2.13-1.17zm11.63-7.38a2.5 2.5 0 0 1 4.16-2.77 2.5 2.5 0 0 1-.69 3.47 2.49 2.49 0 0 1-3.47-.7zm11.37-7.77a2.5 2.5 0 1 1 4.05-2.93 2.5 2.5 0 0 1-.56 3.49 2.49 2.49 0 0 1-3.49-.56zm11.06-8.21a2.5 2.5 0 0 1 3.94-3.08 2.51 2.51 0 0 1-.43 3.52v-.01c-.46.36-1 .53-1.54.53-.74 0-1.48-.32-1.97-.96zM909.9 374a2.5 2.5 0 1 1 3.8-3.24 2.5 2.5 0 0 1-1.9 4.12c-.7 0-1.4-.3-1.9-.88zm10.37-9.07a2.5 2.5 0 0 1 .13-3.53 2.5 2.5 0 0 1 3.4 3.67 2.48 2.48 0 0 1-3.54-.14zm9.96-9.51a2.5 2.5 0 1 1 3.5-3.56 2.49 2.49 0 0 1-1.75 4.28 2.5 2.5 0 0 1-1.75-.72zm9.51-9.97a2.5 2.5 0 1 1 3.33-3.73 2.5 2.5 0 0 1 .2 3.53c-.5.55-1.18.83-1.87.83a2.5 2.5 0 0 1-1.66-.63zm9-10.43a2.5 2.5 0 0 1-.4-3.52v.01a2.5 2.5 0 0 1 3.52-.4 2.5 2.5 0 0 1 .38 3.52 2.5 2.5 0 0 1-3.5.39zM644.36 466.26a2.53 2.53 0 0 1-2.08-1.12 2.18 2.18 0 0 1-.22-.43 2.62 2.62 0 0 1-.15-1.45c.03-.15.08-.3.14-.45a2.38 2.38 0 0 1 .54-.81 2.5 2.5 0 1 1 1.77 4.26zm51.68 179.2a2.5 2.5 0 0 1 5-.02 2.5 2.5 0 0 1-2.5 2.5 2.5 2.5 0 0 1-2.5-2.48zm14-.07a2.5 2.5 0 0 1 2.5-2.5 2.5 2.5 0 1 1 .02 4.99v-.01h-.02a2.5 2.5 0 0 1-2.5-2.48zm14.01-.08a2.5 2.5 0 1 1 5-.02 2.5 2.5 0 1 1-5 .02zm14.01-.08a2.5 2.5 0 0 1 5-.02 2.5 2.5 0 0 1-2.49 2.5 2.5 2.5 0 0 1-2.5-2.48zm14.01-.07a2.49 2.49 0 0 1 2.49-2.5 2.5 2.5 0 0 1 .02 5v-.01h-.01a2.5 2.5 0 0 1-2.5-2.49zm-67.78 2.26a2.5 2.5 0 0 1 .53-4.97 2.49 2.49 0 0 1-.26 4.98l-.27-.01zm-14.13-2.59v.01a2.5 2.5 0 0 1 1.27-4.84 2.5 2.5 0 0 1-.63 4.92c-.21 0-.43-.03-.64-.09zm-13.58-4.74a2.5 2.5 0 0 1 2-4.57 2.5 2.5 0 0 1 1.3 3.3 2.5 2.5 0 0 1-2.3 1.5c-.33 0-.67-.08-1-.23zm-12.67-6.8a2.5 2.5 0 0 1 2.7-4.2 2.5 2.5 0 0 1 .75 3.45 2.48 2.48 0 0 1-2.1 1.15 2.5 2.5 0 0 1-1.35-.4zm-11.44-8.66a2.5 2.5 0 0 1 3.3-3.75c1.03.92 1.13 2.5.21 3.52a2.46 2.46 0 0 1-3.52.22zm-10.02-10.3a2.5 2.5 0 1 1 3.83-3.2 2.5 2.5 0 0 1-.32 3.51 2.5 2.5 0 0 1-1.6.58c-.72 0-1.43-.3-1.91-.89zm-8.42-11.62a2.5 2.5 0 0 1 4.25-2.64 2.5 2.5 0 0 1-.81 3.44 2.5 2.5 0 0 1-3.44-.8zm-6.7-12.69a2.5 2.5 0 1 1 4.57-2.02 2.5 2.5 0 0 1-1.28 3.3 2.5 2.5 0 0 1-3.3-1.28zm-4.89-13.48a2.5 2.5 0 0 1 1.72-3.09 2.5 2.5 0 0 1 1.38 4.8 2.52 2.52 0 0 1-3.1-1.7zm-3-14.03a2.5 2.5 0 1 1 4.95-.7 2.49 2.49 0 0 1-2.12 2.82l-.36.03a2.5 2.5 0 0 1-2.47-2.15zm-1.03-14.3a2.5 2.5 0 1 1 5-.01 2.48 2.48 0 0 1-2.49 2.49 2.51 2.51 0 0 1-2.5-2.49zm3.13-11.5a2.5 2.5 0 0 1-2.13-2.84 2.5 2.5 0 1 1 4.95.7v.01a2.49 2.49 0 0 1-2.47 2.15c-.1 0-.23 0-.35-.03zm2.62-13.76a2.5 2.5 0 0 1 1.4-4.8 2.5 2.5 0 0 1-.7 4.9h.01c-.24 0-.48-.03-.71-.1zm4.6-13.23a2.5 2.5 0 1 1 2.1-4.53 2.5 2.5 0 0 1-1.05 4.77c-.35 0-.71-.08-1.05-.24zm6.48-12.41a2.49 2.49 0 0 1-.72-3.46 2.5 2.5 0 0 1 3.46-.72 2.5 2.5 0 0 1-1.38 4.59c-.47 0-.94-.13-1.36-.41zm8.2-11.35a2.48 2.48 0 0 1-.24-3.52 2.49 2.49 0 0 1 3.52-.24 2.5 2.5 0 0 1 .23 3.53 2.49 2.49 0 0 1-3.52.23zm9.52-10.26a2.5 2.5 0 0 1-.08-3.53 2.49 2.49 0 0 1 3.52-.1 2.5 2.5 0 0 1 .1 3.55 2.52 2.52 0 0 1-3.54.08zm135.72 171.87a2.55 2.55 0 0 1-2.08-1.11 2.59 2.59 0 0 1-.42-1.39c0-.66.27-1.3.73-1.77.12-.1.24-.22.38-.3.14-.1.28-.17.43-.24a2.51 2.51 0 0 1 2.73.54 2.54 2.54 0 0 1 .54 2.73c-.06.15-.14.29-.23.43a2.53 2.53 0 0 1-2.08 1.1zm8.06-10.68a2.5 2.5 0 0 1-.02-3.53c.97-.98 2.55-1 3.53-.02.99.97 1 2.55.03 3.53a2.48 2.48 0 0 1-3.54.02zm9.82-9.96a2.5 2.5 0 1 1 3.5-3.56h.01c.99.98 1 2.55.03 3.53a2.52 2.52 0 0 1-3.54.03zm9.83-9.96a2.5 2.5 0 0 1 3.52-3.56 2.5 2.5 0 0 1-1.76 4.28c-.63 0-1.27-.24-1.76-.72zm9.82-9.95a2.5 2.5 0 0 1 3.52-3.56 2.51 2.51 0 0 1-1.76 4.28c-.63 0-1.27-.24-1.76-.72zm9.82-9.96a2.5 2.5 0 0 1 3.52-3.56 2.5 2.5 0 0 1-1.76 4.28c-.63 0-1.27-.24-1.76-.72zm9.83-9.96a2.5 2.5 0 0 1-.03-3.53 2.51 2.51 0 0 1 3.54-.03 2.5 2.5 0 0 1-1.76 4.27 2.5 2.5 0 0 1-1.75-.7zm9.81-9.96a2.5 2.5 0 0 1 3.52-3.56c.98.97 1 2.55.02 3.53a2.48 2.48 0 0 1-3.53.03zm9.83-9.96a2.5 2.5 0 0 1-.02-3.53 2.5 2.5 0 0 1 3.56 3.5 2.5 2.5 0 0 1-3.54.02zm9.82-9.95a2.5 2.5 0 1 1 3.5-3.56c1 .97 1 2.55.04 3.53a2.5 2.5 0 0 1-3.54.03zm9.82-9.97a2.5 2.5 0 0 1-.02-3.52 2.5 2.5 0 1 1 3.56 3.5 2.5 2.5 0 0 1-3.54.02zm9.82-9.96a2.5 2.5 0 1 1 3.5-3.55h.01c.99.96 1 2.55.03 3.53a2.48 2.48 0 0 1-3.54.02zm9.83-9.95a2.5 2.5 0 0 1 3.52-3.56c.97.97.98 2.55.01 3.53a2.5 2.5 0 0 1-3.54.03zm9.82-9.96a2.5 2.5 0 0 1 3.52-3.56 2.5 2.5 0 0 1-1.76 4.28c-.63 0-1.27-.25-1.76-.72zm9.82-9.96a2.5 2.5 0 0 1 3.52-3.56c.98.97.99 2.55.02 3.53a2.51 2.51 0 0 1-3.54.03zm9.83-9.96a2.5 2.5 0 1 1 3.5-3.56h.01a2.5 2.5 0 0 1-1.76 4.28c-.63 0-1.27-.24-1.75-.72zm9.82-9.96a2.5 2.5 0 1 1 3.52-3.55c.97.96.98 2.55.01 3.53a2.51 2.51 0 0 1-3.54.02zm9.82-9.95a2.5 2.5 0 1 1 3.5-3.56c1 .97 1 2.55.03 3.53a2.5 2.5 0 0 1-3.54.03zm9.82-9.97a2.5 2.5 0 0 1-.02-3.52 2.5 2.5 0 1 1 3.56 3.5 2.5 2.5 0 0 1-3.54.02zm9.82-9.95a2.5 2.5 0 1 1 3.5-3.56c1 .96 1 2.55.04 3.53a2.52 2.52 0 0 1-3.54.03zm9.82-9.96a2.5 2.5 0 1 1 3.5-3.56h.01c.99.97 1 2.55.03 3.53a2.49 2.49 0 0 1-3.54.03zm9.82-9.95a2.5 2.5 0 0 1-.02-3.54 2.52 2.52 0 0 1 3.54-.03 2.5 2.5 0 0 1-1.76 4.28 2.5 2.5 0 0 1-1.76-.71zm9.83-9.97a2.5 2.5 0 0 1 3.52-3.56c.97.98.98 2.55.01 3.53a2.5 2.5 0 0 1-3.54.03zm217.92-9.96a2.5 2.5 0 1 1 4.56-2.05c.57 1.26 0 2.74-1.26 3.3a2.5 2.5 0 0 1-3.3-1.25zm-208.1 0a2.5 2.5 0 0 1-.02-3.53 2.5 2.5 0 1 1 3.56 3.5 2.51 2.51 0 0 1-3.54.02zm9.82-9.95a2.5 2.5 0 1 1 3.5-3.56 2.49 2.49 0 0 1-1.75 4.28 2.5 2.5 0 0 1-1.75-.72zm192.57-2.82a2.5 2.5 0 0 1 4.56-2.05 2.5 2.5 0 0 1-1.26 3.3 2.5 2.5 0 0 1-3.3-1.26zm-182.75-7.14a2.5 2.5 0 1 1 3.5-3.56h.01c.99.97 1 2.55.03 3.54a2.5 2.5 0 0 1-3.54.02zm177.03-5.62a2.5 2.5 0 1 1 4.56-2.05 2.5 2.5 0 0 1-1.26 3.3 2.5 2.5 0 0 1-3.3-1.26zm-167.2-4.35a2.5 2.5 0 0 1 3.5-3.56c1 .97 1 2.56.03 3.54-.49.5-1.12.75-1.77.75-.63 0-1.27-.25-1.76-.73zm161.48-8.42a2.5 2.5 0 0 1 4.57-2.05 2.5 2.5 0 0 1-1.26 3.3 2.5 2.5 0 0 1-3.3-1.26zm-151.66-1.53a2.5 2.5 0 1 1 3.5-3.56 2.49 2.49 0 0 1-1.75 4.28 2.5 2.5 0 0 1-1.75-.72zm9.82-9.96a2.5 2.5 0 0 1 3.52-3.56c.98.97.99 2.55.02 3.54a2.51 2.51 0 0 1-3.54.02zm136.12-1.28a2.5 2.5 0 0 1 1.26-3.3 2.5 2.5 0 1 1 2.05 4.56 2.5 2.5 0 0 1-3.3-1.26zm-126.3-8.68a2.5 2.5 0 0 1-.02-3.53 2.51 2.51 0 0 1 3.54-.03c.98.98.99 2.56.02 3.54a2.5 2.5 0 0 1-3.54.03zm120.59-4.08a2.51 2.51 0 0 1 1.26-3.31 2.5 2.5 0 0 1 2.04 4.56 2.5 2.5 0 0 1-3.3-1.26zm-110.76-5.88a2.5 2.5 0 0 1-.02-3.52 2.5 2.5 0 0 1 3.56 3.5c-.5.5-1.15.74-1.79.74a2.5 2.5 0 0 1-1.75-.72zm104.76-6.37a2.5 2.5 0 1 1 4.25-2.63 2.5 2.5 0 0 1-.81 3.44 2.5 2.5 0 0 1-3.44-.81zm-94.94-3.6a2.5 2.5 0 0 1-.02-3.52c.97-.99 2.54-1 3.52-.02 1 .96 1 2.55.03 3.53a2.48 2.48 0 0 1-3.53.02zm86.6-6.8a2.5 2.5 0 1 1 3.48-3.59 2.5 2.5 0 0 1-1.74 4.29c-.63 0-1.26-.23-1.74-.7zm-76.75-3.12a2.5 2.5 0 1 1 3.83-3.2v-.01a2.5 2.5 0 0 1-1.9 4.1h-.01c-.72 0-1.43-.3-1.92-.9zm66.1-4.93a2.49 2.49 0 0 1-.9-3.4 2.48 2.48 0 0 1 3.4-.92 2.5 2.5 0 1 1-2.49 4.32zm-54.72-3.17a2.5 2.5 0 0 1 4.5-2.18 2.5 2.5 0 0 1-1.16 3.34 2.5 2.5 0 0 1-3.34-1.16zm42.45-2.05a2.5 2.5 0 0 1-1.71-3.1 2.5 2.5 0 0 1 3.1-1.7 2.5 2.5 0 0 1-.7 4.9c-.23 0-.46-.02-.7-.1zm-29.43-3a2.5 2.5 0 1 1 4.89-1v-.01a2.5 2.5 0 0 1-1.94 2.94c-.17.03-.34.06-.51.06-1.16 0-2.2-.81-2.44-2zm16.25.87a2.5 2.5 0 0 1 .2-5 2.5 2.5 0 0 1 2.4 2.6 2.5 2.5 0 0 1-2.5 2.4h-.1z"/><g fill="#FFF"><path d="M1199.68 436.52a2.47 2.47 0 0 1-.95-.2 2.17 2.17 0 0 1-.81-.54 1.9 1.9 0 0 1-.32-.38 2.53 2.53 0 0 1 .3-3.15 2.65 2.65 0 0 1 1.29-.69c.33-.06.66-.06.98 0a2.6 2.6 0 0 1 1.28.69 2.49 2.49 0 0 1 0 3.53c-.48.47-1.12.74-1.77.74zm-154.12 68.45a2.5 2.5 0 0 1 4.55-2.09 2.51 2.51 0 0 1-1.23 3.32 2.5 2.5 0 0 1-3.32-1.23zm12.66-5.82a2.5 2.5 0 0 1 4.54-2.09 2.5 2.5 0 0 1-1.22 3.32 2.49 2.49 0 0 1-3.32-1.23zm12.65-5.83a2.5 2.5 0 0 1 4.54-2.09 2.5 2.5 0 0 1-1.23 3.32 2.5 2.5 0 0 1-3.32-1.23zm12.66-5.82a2.5 2.5 0 0 1 1.22-3.32 2.51 2.51 0 0 1 3.32 1.23 2.48 2.48 0 0 1-1.23 3.3 2.48 2.48 0 0 1-3.3-1.22zm12.65-5.83a2.5 2.5 0 0 1 1.22-3.32 2.5 2.5 0 0 1 3.32 1.23 2.49 2.49 0 0 1-1.22 3.31 2.5 2.5 0 0 1-3.32-1.22zm12.65-5.82a2.5 2.5 0 1 1 4.55-2.09 2.5 2.5 0 0 1-1.24 3.3c-.34.17-.68.24-1.03.24-.95 0-1.86-.54-2.28-1.45zm12.66-5.83a2.5 2.5 0 1 1 4.54-2.09 2.49 2.49 0 0 1-1.23 3.31 2.5 2.5 0 0 1-3.3-1.22zm12.65-5.83a2.5 2.5 0 0 1 1.23-3.31 2.5 2.5 0 0 1 2.09 4.54 2.5 2.5 0 0 1-3.32-1.23zm12.65-5.83a2.5 2.5 0 0 1 4.55-2.09 2.5 2.5 0 0 1-1.24 3.32 2.51 2.51 0 0 1-3.32-1.23zm12.66-5.83a2.5 2.5 0 0 1 4.54-2.09 2.5 2.5 0 0 1-1.24 3.32 2.5 2.5 0 0 1-3.3-1.23zm12.65-5.82a2.48 2.48 0 0 1 1.23-3.3 2.48 2.48 0 0 1 3.3 1.21 2.5 2.5 0 0 1-1.22 3.32 2.5 2.5 0 0 1-3.32-1.23zm12.66-5.83a2.5 2.5 0 0 1 1.22-3.32 2.5 2.5 0 1 1 2.09 4.55c-.35.15-.7.22-1.04.22-.95 0-1.85-.53-2.27-1.45zM780.39 645.01a2.5 2.5 0 0 1 2.49-2.5 2.48 2.48 0 0 1 2.5 2.47 2.48 2.48 0 0 1-2.47 2.5h-.01a2.5 2.5 0 0 1-2.51-2.47zm14.17-.08a2.5 2.5 0 1 1 5-.02 2.5 2.5 0 1 1-5 .02zm14.17-.08a2.49 2.49 0 0 1 2.47-2.5 2.5 2.5 0 1 1 .03 5v-.01h-.02a2.49 2.49 0 0 1-2.48-2.49zm14.16-.07a2.48 2.48 0 0 1 2.48-2.5 2.48 2.48 0 0 1 2.51 2.47 2.48 2.48 0 0 1-2.48 2.5h-.02a2.49 2.49 0 0 1-2.49-2.47zm14.16-.08a2.5 2.5 0 1 1 5-.02 2.5 2.5 0 0 1-2.48 2.5 2.5 2.5 0 0 1-2.52-2.48zm14.17-.07a2.5 2.5 0 0 1 2.48-2.52 2.5 2.5 0 1 1 .03 5 2.5 2.5 0 0 1-2.5-2.48zm14.17-.08a2.48 2.48 0 0 1 2.48-2.5 2.5 2.5 0 0 1 .03 5v-.01h-.02a2.5 2.5 0 0 1-2.49-2.49zm14.16-.08a2.5 2.5 0 0 1 2.49-2.5 2.49 2.49 0 0 1 2.5 2.48 2.5 2.5 0 0 1-2.47 2.5h-.01a2.5 2.5 0 0 1-2.51-2.48zm14.17-.07a2.5 2.5 0 0 1 2.49-2.52 2.5 2.5 0 1 1 .02 5h-.01a2.5 2.5 0 0 1-2.5-2.48zm14.17-.08a2.5 2.5 0 1 1 5-.03 2.5 2.5 0 1 1-5 .03zm14.17-.08a2.49 2.49 0 0 1 2.48-2.5 2.49 2.49 0 0 1 2.5 2.48 2.49 2.49 0 0 1-2.47 2.5h-.02a2.49 2.49 0 0 1-2.5-2.48zm14.16-.07c0-1.38 1.1-2.5 2.48-2.52a2.5 2.5 0 0 1 2.51 2.49 2.48 2.48 0 0 1-2.48 2.5 2.5 2.5 0 0 1-2.51-2.47zm14.16-.05a2.5 2.5 0 0 1 2.4-2.6 2.5 2.5 0 0 1 .22 4.99v-.01l-.13.01a2.5 2.5 0 0 1-2.49-2.39zm14.1-1.3a2.5 2.5 0 1 1 4.9-.98h-.01a2.5 2.5 0 0 1-1.96 2.93 2.5 2.5 0 0 1-2.94-1.96zm13.71-3.49a2.5 2.5 0 0 1 1.48-3.2 2.49 2.49 0 1 1 1.73 4.69 2.5 2.5 0 0 1-3.2-1.48zm13.01-5.56a2.5 2.5 0 0 1 .96-3.4 2.48 2.48 0 0 1 3.4.96c.68 1.2.25 2.73-.96 3.4a2.5 2.5 0 0 1-3.4-.96zm12-7.52a2.49 2.49 0 0 1 .42-3.5 2.5 2.5 0 0 1 3.5.43 2.5 2.5 0 0 1-.42 3.5 2.48 2.48 0 0 1-3.5-.43zm10.7-9.24a2.5 2.5 0 0 1 3.44-3.63 2.49 2.49 0 0 1-1.72 4.3v.01a2.5 2.5 0 0 1-1.72-.68zm9.25-10.72a2.5 2.5 0 0 1 2.88-4.09 2.5 2.5 0 0 1 .6 3.48 2.52 2.52 0 0 1-2.04 1.06c-.5 0-1-.15-1.44-.45zm7.6-11.95a2.5 2.5 0 0 1-1.1-3.36 2.5 2.5 0 0 1 3.36-1.1 2.51 2.51 0 0 1 1.1 3.37 2.5 2.5 0 0 1-2.23 1.36 2.4 2.4 0 0 1-1.13-.27zm5.83-12.91a2.5 2.5 0 1 1 1.6-4.73c1.3.44 2 1.86 1.56 3.17a2.52 2.52 0 0 1-2.37 1.7c-.26 0-.53-.05-.8-.14zm3.92-13.61a2.49 2.49 0 0 1-2-2.91 2.49 2.49 0 1 1 4.9.9h.01a2.5 2.5 0 0 1-2.45 2.05c-.16 0-.3-.01-.46-.04zm1.94-14.03a2.5 2.5 0 1 1 .2-4.99 2.5 2.5 0 0 1-.1 4.99h-.1zm-2.84-16.38a2.5 2.5 0 1 1 4.97-.53 2.5 2.5 0 0 1-2.23 2.75h-.26a2.49 2.49 0 0 1-2.48-2.22zm-2.41-13.59a2.49 2.49 0 0 1 1.8-3.03 2.5 2.5 0 0 1 1.22 4.85 2.48 2.48 0 0 1-3.03-1.82zM768.68 647.57a2.55 2.55 0 0 1-2.08-1.11 2.59 2.59 0 0 1-.42-1.39c0-.66.27-1.3.73-1.77.12-.1.24-.22.38-.3.14-.1.28-.17.43-.24a2.51 2.51 0 0 1 2.73.54 2.54 2.54 0 0 1 .54 2.73c-.06.15-.14.29-.23.43a2.53 2.53 0 0 1-2.08 1.1zm-17.96 160.97a2.5 2.5 0 0 1 2.5-2.51 2.5 2.5 0 1 1 .02 5h-.02a2.5 2.5 0 0 1-2.5-2.5zm13.9-.07a2.5 2.5 0 0 1 2.49-2.51 2.5 2.5 0 0 1 2.5 2.48 2.5 2.5 0 0 1-2.48 2.52h-.01a2.5 2.5 0 0 1-2.5-2.5zm13.9-.07a2.5 2.5 0 0 1 2.49-2.51 2.5 2.5 0 0 1 .02 4.99h-.01a2.5 2.5 0 0 1-2.5-2.48zm-39.4 2.45a2.5 2.5 0 1 1 .42-4.98 2.5 2.5 0 0 1-.21 4.99l-.2-.01zm53.3-2.52a2.5 2.5 0 0 1 2.49-2.52 2.5 2.5 0 0 1 .02 5h-.02a2.49 2.49 0 0 1-2.49-2.48zm13.89-.07a2.5 2.5 0 0 1 2.49-2.52 2.5 2.5 0 1 1 .03 5h-.02a2.5 2.5 0 0 1-2.5-2.48zm13.9-.07a2.5 2.5 0 0 1 2.49-2.52 2.5 2.5 0 0 1 2.5 2.49 2.48 2.48 0 0 1-2.47 2.5h-.02a2.5 2.5 0 0 1-2.5-2.47zm13.9-.07a2.5 2.5 0 1 1 5-.03 2.5 2.5 0 0 1-5 .03zm13.9-.08a2.5 2.5 0 0 1 5-.02 2.5 2.5 0 1 1-5 .02zm13.9-.07a2.5 2.5 0 0 1 5-.03h-.01a2.5 2.5 0 0 1-2.49 2.52h-.02a2.5 2.5 0 0 1-2.49-2.5zm13.9-.07a2.5 2.5 0 0 1 5-.02h-.01a2.5 2.5 0 0 1-2.49 2.5h-.02a2.49 2.49 0 0 1-2.49-2.48zm13.88-.07a2.5 2.5 0 0 1 2.49-2.51 2.5 2.5 0 0 1 .03 5h-.02a2.51 2.51 0 0 1-2.5-2.5zm13.9-.07a2.5 2.5 0 0 1 5-.03 2.5 2.5 0 0 1-2.5 2.52 2.5 2.5 0 0 1-2.5-2.5zm13.87-.15a2.5 2.5 0 0 1-.01-3.53 2.5 2.5 0 1 1 3.54 3.53 2.48 2.48 0 0 1-3.53 0zm-192.5.33a2.5 2.5 0 0 1 1.59-4.73h.01a2.5 2.5 0 0 1-.8 4.87c-.27 0-.54-.05-.8-.14zm-13.04-6.3a2.5 2.5 0 0 1 2.72-4.19 2.5 2.5 0 0 1-1.36 4.6 2.5 2.5 0 0 1-1.36-.4zm215.34-3.87a2.5 2.5 0 0 1 0-3.53 2.5 2.5 0 1 1 3.54 3.52 2.49 2.49 0 0 1-3.54.01zm-226.4-5.44a2.5 2.5 0 1 1 3.66-3.4h-.01a2.5 2.5 0 0 1-.13 3.53 2.48 2.48 0 0 1-3.53-.13zm236.21-4.4a2.5 2.5 0 0 1 3.53-3.55 2.5 2.5 0 0 1-1.77 4.28c-.63 0-1.27-.26-1.76-.74zm-244.72-7.3a2.52 2.52 0 0 1 .96-3.4 2.5 2.5 0 0 1 2.45 4.37c-.4.2-.81.32-1.22.32-.88 0-1.73-.47-2.2-1.28zm254.54-2.56a2.5 2.5 0 0 1-.01-3.53 2.5 2.5 0 0 1 3.53 0 2.5 2.5 0 0 1-1.77 4.27v-.01c-.63 0-1.26-.24-1.75-.73zM686.82 767.3a2.5 2.5 0 0 1 1.72-3.09 2.5 2.5 0 1 1 1.36 4.8 2.5 2.5 0 0 1-3.08-1.72zm269.87.94a2.5 2.5 0 0 1 0-3.53 2.5 2.5 0 0 1 3.54 3.52 2.49 2.49 0 0 1-3.54.01zm9.81-9.85a2.5 2.5 0 0 1 0-3.53 2.5 2.5 0 0 1 3.53-.01 2.5 2.5 0 0 1-3.53 3.54zM684.58 753a2.5 2.5 0 0 1 4.99-.18 2.5 2.5 0 0 1-2.42 2.59h-.09a2.5 2.5 0 0 1-2.48-2.41zm291.72-4.47a2.5 2.5 0 0 1 3.53-3.54c.98.98.98 2.56.01 3.54-.49.5-1.13.73-1.77.73-.64 0-1.28-.24-1.77-.73zm-288.56-7a2.5 2.5 0 0 1-1.91-2.96v.01a2.5 2.5 0 1 1 4.88 1.04 2.5 2.5 0 0 1-2.44 1.98 2.4 2.4 0 0 1-.53-.06zm298.38-2.84a2.5 2.5 0 1 1 3.53-3.54 2.5 2.5 0 0 1-1.77 4.27c-.64 0-1.27-.24-1.76-.73zm9.8-9.84a2.5 2.5 0 1 1 3.53-3.54 2.49 2.49 0 0 1-1.77 4.26c-.63 0-1.27-.24-1.75-.72zm-304.19-.6a2.5 2.5 0 0 1-1.12-3.35 2.5 2.5 0 0 1 4.48 2.23 2.5 2.5 0 0 1-2.24 1.39c-.38 0-.76-.1-1.12-.27zm314-9.25a2.5 2.5 0 0 1 3.53-3.54 2.49 2.49 0 0 1-1.76 4.27 2.5 2.5 0 0 1-1.77-.74zm-306.85-2.64a2.5 2.5 0 1 1 3.23-3.8v-.01a2.5 2.5 0 0 1 .3 3.52 2.48 2.48 0 0 1-3.52.28zm316.66-7.2a2.5 2.5 0 1 1 3.53-3.54c.98.96.98 2.55 0 3.52a2.46 2.46 0 0 1-3.53.01zm-307.17-2.94a2.5 2.5 0 0 1 3.5-3.56c1 .97 1 2.56.03 3.53a2.5 2.5 0 0 1-3.54.02zm316.97-6.91a2.5 2.5 0 0 1 0-3.54 2.5 2.5 0 0 1 3.54 3.53 2.5 2.5 0 0 1-1.77.74c-.64 0-1.28-.25-1.77-.73zm-307.21-2.99a2.5 2.5 0 0 1-.02-3.53 2.5 2.5 0 0 1 3.56 3.5v.01a2.5 2.5 0 0 1-3.54.02zm317.03-6.86a2.5 2.5 0 0 1-.01-3.53 2.5 2.5 0 1 1 3.54 3.53 2.49 2.49 0 0 1-3.53 0zm-307.27-3.03a2.5 2.5 0 0 1-.03-3.54 2.5 2.5 0 1 1 3.56 3.5v.01a2.48 2.48 0 0 1-3.53.03zm317.08-6.82a2.5 2.5 0 1 1 3.52-3.54c.99.98.99 2.56 0 3.53a2.5 2.5 0 0 1-1.76.74c-.64 0-1.28-.24-1.76-.73zm-307.33-3.07a2.5 2.5 0 1 1 3.5-3.56h.01c.99.97 1 2.55.03 3.53a2.51 2.51 0 0 1-3.54.03zm317.13-6.77a2.5 2.5 0 0 1 0-3.53 2.5 2.5 0 0 1 3.54 3.53 2.5 2.5 0 0 1-1.77.73c-.64 0-1.28-.25-1.77-.73zm-307.36-3.13a2.5 2.5 0 0 1-.02-3.53 2.48 2.48 0 0 1 3.52-.02c1 .97 1 2.54.03 3.52a2.5 2.5 0 0 1-3.54.03zm317.17-6.72a2.5 2.5 0 0 1 0-3.53 2.5 2.5 0 1 1 3.54 3.53h-.01a2.49 2.49 0 0 1-3.53 0zm-307.41-3.18a2.5 2.5 0 1 1 3.5-3.56c.98.97 1 2.56.03 3.54a2.48 2.48 0 0 1-3.53.02zm317.22-6.66a2.5 2.5 0 0 1 0-3.53 2.5 2.5 0 1 1 3.54 3.52 2.49 2.49 0 0 1-3.54.01zm9.8-9.85a2.5 2.5 0 0 1 3.53-3.55 2.5 2.5 0 0 1-1.76 4.28c-.63 0-1.27-.25-1.76-.73zm9.82-9.84a2.5 2.5 0 0 1 3.53-3.55 2.5 2.5 0 0 1 0 3.54 2.5 2.5 0 0 1-3.53.01zm9.8-9.85a2.48 2.48 0 0 1 0-3.53 2.5 2.5 0 0 1 3.54 3.52 2.49 2.49 0 0 1-3.54.01zm9.81-9.84a2.5 2.5 0 0 1 0-3.54 2.5 2.5 0 0 1 3.53 0c.98.97.98 2.55.01 3.53a2.51 2.51 0 0 1-3.54.01zm9.82-9.85a2.5 2.5 0 0 1 3.53-3.55 2.5 2.5 0 0 1 0 3.54c-.5.5-1.14.73-1.78.73-.63 0-1.27-.24-1.75-.72zm9.8-9.85a2.48 2.48 0 0 1 0-3.53 2.5 2.5 0 1 1 3.54 3.52 2.49 2.49 0 0 1-3.54.01zm9.81-9.84a2.5 2.5 0 0 1-.01-3.54 2.5 2.5 0 1 1 3.54 3.53 2.5 2.5 0 0 1-1.77.74 2.5 2.5 0 0 1-1.76-.73zm9.81-9.84a2.5 2.5 0 1 1 3.52-3.55 2.5 2.5 0 0 1-1.76 4.27c-.64 0-1.28-.25-1.76-.72zm9.8-9.86a2.5 2.5 0 0 1 0-3.53 2.5 2.5 0 0 1 3.53 0c.98.97.98 2.55 0 3.52-.48.5-1.12.74-1.77.74-.64 0-1.27-.24-1.76-.73zm9.82-9.84a2.5 2.5 0 1 1 3.52-3.54 2.5 2.5 0 0 1-1.76 4.27c-.64 0-1.28-.24-1.76-.73zm9.8-9.84a2.5 2.5 0 0 1 0-3.54 2.5 2.5 0 0 1 3.53-.01 2.5 2.5 0 0 1 0 3.54 2.52 2.52 0 0 1-3.54.01zm9.81-9.86a2.5 2.5 0 0 1 0-3.52 2.5 2.5 0 0 1 3.53-.01 2.49 2.49 0 0 1-1.77 4.27c-.64 0-1.28-.25-1.76-.74zm9.8-9.84a2.5 2.5 0 1 1 3.53-3.54 2.5 2.5 0 0 1-1.76 4.27 2.5 2.5 0 0 1-1.77-.73zm9.81-9.84a2.5 2.5 0 0 1 3.53-3.55 2.5 2.5 0 0 1-1.77 4.27c-.63 0-1.27-.24-1.76-.72zm9.82-9.85a2.5 2.5 0 1 1 3.52-3.54c.97.97.97 2.56 0 3.54-.48.49-1.12.73-1.76.73-.64 0-1.28-.24-1.76-.73zm9.8-9.85a2.5 2.5 0 1 1 3.53-3.54 2.5 2.5 0 0 1-1.77 4.27c-.63 0-1.27-.25-1.76-.73zm9.81-9.84a2.5 2.5 0 0 1 3.53-3.55 2.5 2.5 0 0 1 0 3.54 2.5 2.5 0 0 1-3.53.01zm9.8-9.85a2.48 2.48 0 0 1 0-3.53 2.5 2.5 0 0 1 3.53 0 2.49 2.49 0 0 1-1.76 4.27v-.01c-.64 0-1.28-.24-1.77-.73zm9.82-9.84a2.5 2.5 0 1 1 3.53-3.54 2.5 2.5 0 0 1-1.77 4.27 2.5 2.5 0 0 1-1.76-.73zm9.8-9.85a2.5 2.5 0 0 1 3.53-3.55 2.5 2.5 0 0 1 0 3.54 2.5 2.5 0 0 1-3.53.01zm9.81-9.85a2.48 2.48 0 0 1 0-3.53 2.5 2.5 0 0 1 3.53 0c.98.96.98 2.55 0 3.53a2.49 2.49 0 0 1-3.54 0zm9.81-9.84a2.5 2.5 0 0 1 0-3.54 2.5 2.5 0 1 1 3.54 3.53h-.01a2.47 2.47 0 0 1-3.53 0zm9.8-9.84a2.5 2.5 0 0 1 0-3.54 2.5 2.5 0 1 1 3.54 3.53 2.52 2.52 0 0 1-3.54.01zm9.82-9.86a2.5 2.5 0 0 1-.01-3.52 2.5 2.5 0 0 1 3.55 3.53 2.55 2.55 0 0 1-3.54-.01zm9.81-9.84a2.5 2.5 0 1 1 3.52-3.54c.98.97.99 2.55 0 3.53a2.5 2.5 0 0 1-1.76.74c-.64 0-1.28-.24-1.76-.73zm9.8-9.84a2.5 2.5 0 0 1 0-3.54 2.5 2.5 0 0 1 3.53 0c.98.97.98 2.55 0 3.53a2.5 2.5 0 0 1-1.76.74c-.64 0-1.28-.25-1.77-.73zm9.81-9.85a2.5 2.5 0 0 1 0-3.53 2.5 2.5 0 1 1 3.54 3.53 2.55 2.55 0 0 1-3.54 0zm9.8-9.85a2.5 2.5 0 1 1 3.53-3.54 2.5 2.5 0 0 1-1.76 4.27 2.5 2.5 0 0 1-1.76-.73zm11.63-9.16a2.49 2.49 0 0 1-1.77-4.26 2.54 2.54 0 0 1 2.26-.69 2.47 2.47 0 0 1 .89.38 2.5 2.5 0 0 1 .93 3.03c-.07.15-.14.3-.24.43a1.9 1.9 0 0 1-.31.38 1.9 1.9 0 0 1-.38.3 2.45 2.45 0 0 1-.89.38 2.5 2.5 0 0 1-.5.05zm65.29 161.23a2.5 2.5 0 0 1 1.35-3.27 2.5 2.5 0 0 1 1.9 4.62h.01a2.5 2.5 0 0 1-3.26-1.35zm-5.2-12.52a2.5 2.5 0 1 1 4.62-1.92 2.49 2.49 0 0 1-2.3 3.46h-.01a2.5 2.5 0 0 1-2.31-1.54zm-5.2-12.52a2.5 2.5 0 0 1 1.35-3.27 2.5 2.5 0 0 1 1.92 4.62 2.5 2.5 0 0 1-3.27-1.35zm-5.2-12.52a2.5 2.5 0 0 1 4.62-1.92 2.49 2.49 0 0 1-2.3 3.46h-.01a2.5 2.5 0 0 1-2.31-1.54zm-5.2-12.52a2.5 2.5 0 0 1 4.62-1.92 2.5 2.5 0 0 1-1.35 3.27 2.5 2.5 0 0 1-3.27-1.35zm-5.2-12.52a2.5 2.5 0 0 1 4.62-1.92 2.49 2.49 0 0 1-2.3 3.46h-.02a2.5 2.5 0 0 1-2.3-1.54zm-5.2-12.53a2.5 2.5 0 1 1 4.62-1.92 2.5 2.5 0 0 1-1.35 3.27 2.5 2.5 0 0 1-3.27-1.35zm-5.2-12.52a2.5 2.5 0 0 1 4.62-1.92 2.5 2.5 0 0 1-1.36 3.27 2.5 2.5 0 0 1-3.27-1.35zm-5.2-12.52a2.5 2.5 0 0 1 4.62-1.92 2.5 2.5 0 0 1-1.35 3.27 2.5 2.5 0 0 1-3.27-1.35zm-5.2-12.52a2.5 2.5 0 0 1 4.62-1.92h-.01a2.5 2.5 0 0 1-1.35 3.27c-.3.13-.64.2-.95.2-.98 0-1.9-.59-2.32-1.55zm-5.2-12.52a2.5 2.5 0 0 1 4.62-1.92 2.5 2.5 0 0 1-1.36 3.27 2.5 2.5 0 0 1-3.27-1.35zm-5.2-12.52a2.5 2.5 0 0 1 4.6-1.92 2.5 2.5 0 0 1-1.33 3.27 2.5 2.5 0 0 1-3.27-1.35zm-5.2-12.52a2.5 2.5 0 0 1 4.62-1.92 2.49 2.49 0 0 1-2.3 3.46h-.02a2.5 2.5 0 0 1-2.3-1.54zm69.91 164.31a2.6 2.6 0 0 1-1.39-.42c-.13-.1-.26-.2-.38-.32a2.52 2.52 0 0 1-.73-1.76 2.52 2.52 0 0 1 2-2.46c.33-.06.67-.06.99 0a2.54 2.54 0 0 1 .9.38 2.53 2.53 0 0 1 1.1 2.08 2.52 2.52 0 0 1-2.5 2.5zm10.21-6.75a2.5 2.5 0 0 1 1.35-3.26 2.5 2.5 0 1 1 1.9 4.62c-.3.12-.62.2-.94.2a2.5 2.5 0 0 1-2.3-1.56zm12.51-5.2a2.5 2.5 0 0 1 4.62-1.92 2.49 2.49 0 0 1-2.3 3.46h-.01a2.5 2.5 0 0 1-2.3-1.53zm12.52-5.19a2.5 2.5 0 0 1 4.62-1.92 2.51 2.51 0 0 1-1.36 3.27 2.5 2.5 0 0 1-3.26-1.35zm12.51-5.2a2.5 2.5 0 1 1 4.62-1.92 2.5 2.5 0 0 1-1.35 3.26 2.5 2.5 0 0 1-3.27-1.34zm12.51-5.2a2.5 2.5 0 1 1 4.62-1.92 2.5 2.5 0 0 1-1.34 3.27 2.53 2.53 0 0 1-3.28-1.35zm12.52-5.2a2.5 2.5 0 0 1 4.62-1.92 2.5 2.5 0 0 1-1.35 3.27 2.5 2.5 0 0 1-3.27-1.35zm12.52-5.2a2.5 2.5 0 1 1 4.6-1.92 2.5 2.5 0 0 1-1.34 3.28 2.5 2.5 0 0 1-3.26-1.35zm12.51-5.2a2.5 2.5 0 0 1 4.62-1.92 2.51 2.51 0 0 1-1.35 3.28 2.51 2.51 0 0 1-3.27-1.36zm12.52-5.2a2.5 2.5 0 0 1 1.34-3.26 2.5 2.5 0 1 1 1.92 4.62 2.5 2.5 0 0 1-3.26-1.35zm12.51-5.2a2.5 2.5 0 1 1 4.62-1.92v.01a2.5 2.5 0 0 1-1.35 3.27 2.5 2.5 0 0 1-3.27-1.35zm12.52-5.19a2.5 2.5 0 0 1 1.35-3.27 2.49 2.49 0 0 1 3.26 1.36 2.49 2.49 0 0 1-1.34 3.25 2.5 2.5 0 0 1-3.27-1.34zm12.51-5.2a2.51 2.51 0 0 1 1.35-3.27 2.5 2.5 0 1 1 1.92 4.62 2.5 2.5 0 0 1-3.27-1.35zm12.52-5.2a2.5 2.5 0 1 1 4.6-1.92 2.49 2.49 0 0 1-1.34 3.27 2.5 2.5 0 0 1-3.26-1.35zm12.51-5.2a2.5 2.5 0 1 1 4.62-1.92 2.5 2.5 0 0 1-1.35 3.27 2.5 2.5 0 0 1-3.27-1.35zm14.83-3.65c-.17 0-.33-.02-.49-.05-.16-.04-.32-.08-.47-.15a2.26 2.26 0 0 1-.8-.54 2.49 2.49 0 0 1 0-3.53 2.52 2.52 0 0 1 2.7-.54c.16.06.3.14.44.23s.27.19.39.31a2.49 2.49 0 0 1-.82 4.06c-.15.07-.31.11-.47.15-.16.04-.32.06-.48.06z"/><path d="M1614.38 447.98a2.5 2.5 0 0 1 4.6-1.94 2.5 2.5 0 0 1-1.34 3.28 2.49 2.49 0 0 1-3.27-1.34zm-5.36-12.71a2.5 2.5 0 0 1 1.33-3.28 2.5 2.5 0 1 1 1.94 4.6 2.5 2.5 0 0 1-3.27-1.33zm-5.36-12.72a2.5 2.5 0 0 1 4.6-1.94h.01a2.51 2.51 0 0 1-1.34 3.28 2.49 2.49 0 0 1-3.27-1.34zm-5.35-12.71a2.5 2.5 0 1 1 4.6-1.94 2.5 2.5 0 0 1-1.34 3.27 2.5 2.5 0 0 1-3.27-1.33zm-5.36-12.72a2.5 2.5 0 0 1 4.6-1.94 2.52 2.52 0 0 1-1.33 3.28 2.49 2.49 0 0 1-3.27-1.34zm-287.23-9.29a2.5 2.5 0 0 1 1.3-3.29 2.5 2.5 0 0 1 3.28 1.31 2.49 2.49 0 0 1-1.3 3.28 2.47 2.47 0 0 1-3.28-1.3zm281.88-3.43a2.5 2.5 0 0 1 4.6-1.94 2.5 2.5 0 0 1-1.34 3.27 2.5 2.5 0 0 1-3.27-1.33zm-269.22-2.05a2.48 2.48 0 0 1 1.3-3.28 2.5 2.5 0 1 1 1.98 4.58c-.32.14-.66.2-1 .2-.96 0-1.88-.55-2.28-1.5zm12.65-5.49a2.51 2.51 0 0 1 1.3-3.29 2.5 2.5 0 0 1 3.29 1.31 2.49 2.49 0 0 1-1.3 3.28 2.5 2.5 0 0 1-3.29-1.3zm251.21-5.18a2.5 2.5 0 1 1 4.6-1.93 2.5 2.5 0 0 1-1.33 3.27 2.49 2.49 0 0 1-3.27-1.34zm-238.55-.3a2.5 2.5 0 0 1 4.59-1.99 2.5 2.5 0 0 1-1.3 3.28 2.51 2.51 0 0 1-3.29-1.3zm12.66-5.5a2.5 2.5 0 0 1 1.3-3.28 2.5 2.5 0 1 1 1.99 4.59 2.5 2.5 0 0 1-3.29-1.3zm12.66-5.48a2.5 2.5 0 1 1 4.59-1.99 2.5 2.5 0 0 1-2.29 3.5c-.97 0-1.89-.57-2.3-1.5zm207.88-1.43a2.5 2.5 0 0 1 1.32-3.27 2.5 2.5 0 1 1 1.94 4.6 2.5 2.5 0 0 1-3.27-1.33zm-195.22-4.05a2.5 2.5 0 0 1 1.3-3.3 2.5 2.5 0 1 1 1.99 4.59c-.33.15-.66.22-1 .22-.96 0-1.88-.57-2.29-1.51zm12.66-5.49a2.5 2.5 0 1 1 4.59-1.99 2.5 2.5 0 0 1-1.3 3.29 2.5 2.5 0 0 1-3.29-1.3zm177.2-3.18a2.49 2.49 0 1 1 4.6-1.94 2.5 2.5 0 0 1-1.33 3.28 2.5 2.5 0 0 1-3.27-1.34zm-164.54-2.3a2.5 2.5 0 1 1 4.58-1.99 2.5 2.5 0 0 1-1.3 3.28 2.5 2.5 0 0 1-3.28-1.3zm12.66-5.5a2.49 2.49 0 1 1 4.58-1.99v.01a2.5 2.5 0 0 1-1.3 3.29 2.5 2.5 0 0 1-3.28-1.3zm146.46-4.69a2.49 2.49 0 0 1 1.1-3.35 2.5 2.5 0 0 1 3.36 1.1 2.5 2.5 0 0 1-1.1 3.35 2.5 2.5 0 0 1-3.36-1.1zm-133.8-.79a2.5 2.5 0 1 1 4.58-1.99 2.5 2.5 0 0 1-1.3 3.3 2.49 2.49 0 0 1-3.28-1.3zm12.65-5.48a2.5 2.5 0 0 1 1.3-3.29 2.5 2.5 0 0 1 1.98 4.59 2.51 2.51 0 0 1-3.29-1.3zm113.83-4.66a2.5 2.5 0 1 1 3.79-3.26 2.5 2.5 0 0 1-1.89 4.13c-.71 0-1.4-.3-1.9-.87zm-101.17-.83a2.5 2.5 0 1 1 4.59-1.99 2.5 2.5 0 0 1-1.3 3.3 2.51 2.51 0 0 1-3.29-1.3zm12.66-5.48a2.5 2.5 0 1 1 4.59-1.99 2.5 2.5 0 0 1-1.3 3.29 2.51 2.51 0 0 1-3.29-1.3zm78.78-2.55a2.5 2.5 0 0 1 2.9-4.08 2.52 2.52 0 0 1 .58 3.49 2.49 2.49 0 0 1-2.03 1.05c-.5 0-1.01-.15-1.45-.46zm-66.12-2.94a2.5 2.5 0 1 1 4.59-1.99 2.51 2.51 0 0 1-2.3 3.5c-.96 0-1.88-.57-2.3-1.51zm54.56-3.35h-.01a2.5 2.5 0 0 1 1.86-4.65h-.02a2.49 2.49 0 0 1-.92 4.82c-.3 0-.61-.05-.91-.17zm-41.91-2.18a2.5 2.5 0 0 1 1.5-3.2 2.5 2.5 0 0 1 1.69 4.7v.01a2.5 2.5 0 0 1-3.19-1.5zm29.18-1.19a2.5 2.5 0 0 1-2.13-2.81 2.5 2.5 0 1 1 4.95.69 2.49 2.49 0 0 1-2.47 2.15c-.12 0-.23 0-.35-.02zm-15.9-2.45a2.5 2.5 0 1 1 4.97-.52 2.5 2.5 0 0 1-2.23 2.75h-.25a2.5 2.5 0 0 1-2.5-2.23zm-213.56 92.99a2.53 2.53 0 0 1-2.08-1.11c-.09-.14-.16-.3-.23-.44a2.51 2.51 0 0 1 2.8-3.4 2.57 2.57 0 0 1 1.28.68 2.49 2.49 0 0 1-.81 4.07c-.15.07-.31.1-.47.15-.16.03-.33.05-.49.05z"/></g><path fill="#2E9AFF" d="m1812.1 380.72-190.93 79.31-187.73 77.99-72.81-175.28-443.25 444.95L769.04 956.6l361.08-150 200.41-83.25 153.42-63.73 378.66-157.3z"/><path fill="#FFF" d="M769.04 959.1a2.5 2.5 0 0 1-1.77-4.27l591.6-593.86a2.5 2.5 0 0 1 4.07.8l71.85 172.98 376.35-156.34a2.5 2.5 0 0 1 3.27 1.35l50.5 121.6a2.5 2.5 0 0 1-1.34 3.27L770 958.9c-.31.13-.63.2-.96.2zm590.72-591.95-580.1 582.33 1079.68-448.5-48.59-117-376.35 156.34a2.5 2.5 0 0 1-3.27-1.34l-71.37-171.83z"/><g fill="#FFF"><path d="m1913.12 623.92-50.51-121.6-378.66 157.3-153.42 63.73-200.41 83.25-361.08 150 838.23-.1-72.81-175.28z"/><path d="M769.04 959.1a2.5 2.5 0 0 1-.96-4.8L1861.65 500a2.5 2.5 0 0 1 3.27 1.35l50.5 121.6a2.5 2.5 0 0 1-1.34 3.27l-376.36 156.34 71.85 172.97a2.5 2.5 0 0 1-2.3 3.46l-838.23.1zm1092.22-453.52L781.57 954.1l821.95-.1-71.37-171.82a2.5 2.5 0 0 1 1.35-3.27l376.35-156.34-48.59-116.99z"/></g><path fill="#FFF" d="m339.9 780.73 51.3 37.14a24.81 24.81 0 0 0 36.67-5.3l24.46-36.97-.02-.02a24.49 24.49 0 0 1 5.4-3.99 22.6 22.6 0 0 0 6.03-4.67 45.2 45.2 0 0 0 3.94-5l5.93-8.48 6.28-8.97-.02-.02a4.6 4.6 0 0 0-.95-6.27 4.67 4.67 0 0 0-4.97-.31 3.9 3.9 0 0 0-1.84 1.68l-6.03 8.62-.03-.02 7.95-11.37-.01-.02a4.6 4.6 0 1 0-7.76-4.9l-7.71 11.02-.03-.02 9.63-13.77-.02-.02a4.6 4.6 0 0 0-.96-6.28 4.74 4.74 0 0 0-5.4-.07 3.8 3.8 0 0 0-1.4 1.44l-9.38 13.43-.04-.02 7.95-11.37-.01-.02a4.6 4.6 0 1 0-7.76-4.9l-9.94 14.21-.17-.08 2.84-7.48s-.02-.01-.01-.02a4.6 4.6 0 0 0-3.31-6.13 4.52 4.52 0 0 0-3.83 1 4.13 4.13 0 0 0-1.58 2.25l-6.81 17.85c-.13.28-.26.56-.37.86a12.96 12.96 0 0 0-.17 8.82c.32 1.39.73 4.03-.2 5.91l-22.11 32.49-36.56-26.13a14.83 14.83 0 0 0-21.3 3.92l-7.69 11.98zm27.82 127.38 152.96.25a1.8 1.8 0 0 0 1.48-.77l23.44-33.45s.96-1.27 3.06-1.24a4.33 4.33 0 0 1 4.29 4.35l-.2 25.17-.27 35.91-.44 11.3c-.02 2.4-1.85 4.8-4.24 4.79l-26.13-.14-150.27-.23M320.75 742.2l23.68-4.18 4.56 25.77-23.68 4.19z"/><path fill="#FFF" d="M361.8 699.48c-.47.08-.93.2-1.37.32a35.59 35.59 0 0 0-67.3 11.92 12.35 12.35 0 1 0 5.81 23.6 35.58 35.58 0 0 0 64.13-11.35 12.38 12.38 0 0 0 13.04-14.48 12.35 12.35 0 0 0-14.32-10z"/><path d="M321.62 717.19a4.7 4.7 0 1 1-9.2 1.88 4.7 4.7 0 0 1 9.2-1.88zm30.02-6.12a4.7 4.7 0 1 1-9.2 1.88 4.7 4.7 0 0 1 9.2-1.88z"/><path fill="#FFF" d="m391.28 847.9-12.38 25.9c2.6 3.48 39.78 18.97 39.86 19l11.98-26.75 20.77 58.48 1.23 24.61a4.45 4.45 0 0 0 4.45 4.45l11.8-.01 33.77-.02 25.88-.02a4.45 4.45 0 0 0 3.15-7.58l-35.52-24.63-27.04-75.31a40.34 40.34 0 0 0-13.86-18.72l-.84-.62a40.35 40.35 0 0 0-49.62 1.08c-4.6 3.77-8.33 8.5-13.63 20.14z"/><path d="M429.65 954.42h-63.79l-5.3-47.95h69.09z"/><path fill="#2E9AFF" d="M329.73 735.15c-4.71 0-7.84-1.75-8.05-1.87a2.5 2.5 0 0 1 2.48-4.34c.3.17 6.51 3.48 14.39-1.57a2.5 2.5 0 0 1 2.7 4.2 21.12 21.12 0 0 1-11.52 3.58z"/><path d="M333.04 725.78a2.5 2.5 0 0 1-2.45-2.02l-1.63-8.51a2.5 2.5 0 0 1 4.9-.94l1.63 8.5a2.5 2.5 0 0 1-2.45 2.97zm51.56 149.5-1.92-10.83-2.17-12.25-6.83-41a26 26 0 0 0 6.21-16.9c0-5.48-3.9-10.95-12.98-21.59 0 0-8.22-11.47-16.4-10.1l-21.61 3.82c-32.21 5.7-28.04 29.3-26.13 40.07l10.2 57.66 6.4 33.83 4.4 21.82a41.49 41.49 0 0 0 42.09 34.59h.6c18.25-.25 33.62-11.63 40.27-28.64l12.91-33.03-35.04-17.45z"/><circle cx="292.64" cy="683.72" r="13.95"/><circle cx="350.19" cy="672.62" r="13.95"/><path d="m322.3 680.49-.35.07a35.6 35.6 0 0 0-28.82 31.1l1.04.02c14.46 0 32.33-10.98 33.78-25.06 4.44 9.57 11.94 14.9 19.42 16.22 4.61.81 9.1-1.16 12.97-3.2a35.58 35.58 0 0 0-38.04-19.15z"/><path fill="#FFF" d="M273.92 938.19h-.03l21.13-150.4a15.05 15.05 0 0 1 29.79 4.25l-21.11 150.5a12.56 12.56 0 0 1-12.54 11.88h-53.42a5.25 5.25 0 0 1-.88-10.43l37.06-5.8z"/><path fill="#FFF" d="m534.66 959.37-134.09 113.8-147.93-113.8h282.02m13.6-5h.01zm0 0h-310.3l162.77 125.23 147.54-125.23z"/><path fill="#FFF" d="M561.82 984.17c-.7 0-1.41-.3-1.9-.88l-20.23-23.91a2.5 2.5 0 0 1 3.8-3.23l20.24 23.9a2.5 2.5 0 0 1-1.9 4.12zm-14.21 12.03c-.7 0-1.41-.3-1.9-.89l-20.24-23.9a2.5 2.5 0 0 1 3.82-3.23l20.23 23.9a2.5 2.5 0 0 1-1.91 4.12zm-14.21 12.03c-.71 0-1.42-.3-1.91-.89l-20.23-23.9a2.5 2.5 0 0 1 3.81-3.23l20.23 23.9a2.5 2.5 0 0 1-1.9 4.12zm-14.22 12.03c-.7 0-1.41-.3-1.9-.89l-20.24-23.9a2.5 2.5 0 0 1 3.82-3.23l20.23 23.9a2.5 2.5 0 0 1-1.9 4.12zm-14.21 12.03c-.71 0-1.42-.3-1.91-.89l-20.23-23.9a2.5 2.5 0 0 1 3.81-3.23l20.23 23.9a2.5 2.5 0 0 1-1.9 4.12zm-14.22 12.03c-.7 0-1.4-.3-1.9-.89l-20.23-23.9a2.5 2.5 0 0 1 3.81-3.23l20.23 23.9a2.5 2.5 0 0 1-1.9 4.12zm-14.21 12.02c-.7 0-1.41-.3-1.9-.88l-20.24-23.9a2.5 2.5 0 0 1 3.82-3.23l20.23 23.9a2.5 2.5 0 0 1-1.9 4.11zm-14.21 12.04c-.71 0-1.42-.3-1.91-.89l-20.23-23.9a2.5 2.5 0 0 1 3.81-3.23l20.23 23.9a2.5 2.5 0 0 1-1.9 4.12zm-14.22 12.02c-.7 0-1.41-.3-1.9-.88l-20.23-23.9a2.5 2.5 0 0 1 3.81-3.23l20.23 23.9a2.5 2.5 0 0 1-1.9 4.11zM231.06 989a2.5 2.5 0 0 1-1.97-4.03l19.21-24.73a2.5 2.5 0 1 1 3.94 3.06l-19.2 24.73a2.5 2.5 0 0 1-1.98.97zm14.7 11.42a2.5 2.5 0 0 1-1.97-4.03l19.22-24.73a2.5 2.5 0 0 1 3.94 3.07l-19.21 24.73a2.5 2.5 0 0 1-1.98.96zm14.71 11.43a2.5 2.5 0 0 1-1.98-4.03l19.22-24.74a2.5 2.5 0 0 1 3.94 3.07l-19.21 24.73a2.5 2.5 0 0 1-1.97.97zm14.7 11.42a2.5 2.5 0 0 1-1.97-4.03l19.21-24.73a2.5 2.5 0 0 1 3.95 3.07l-19.22 24.73a2.5 2.5 0 0 1-1.97.96zm14.7 11.43a2.5 2.5 0 0 1-1.97-4.03l19.22-24.74a2.5 2.5 0 0 1 3.94 3.07l-19.21 24.73a2.5 2.5 0 0 1-1.98.97zm14.71 11.42a2.5 2.5 0 0 1-1.97-4.03l19.21-24.73a2.5 2.5 0 0 1 3.94 3.07l-19.2 24.73a2.5 2.5 0 0 1-1.98.96zm14.7 11.43a2.5 2.5 0 0 1-1.97-4.03l19.21-24.74a2.5 2.5 0 0 1 3.95 3.07l-19.21 24.73a2.5 2.5 0 0 1-1.98.97zm14.71 11.42a2.5 2.5 0 0 1-1.98-4.03l19.22-24.73a2.5 2.5 0 1 1 3.94 3.07L335.96 1068a2.5 2.5 0 0 1-1.97.96zm14.71 11.43a2.5 2.5 0 0 1-1.98-4.04l19.21-24.73a2.5 2.5 0 0 1 3.95 3.07l-19.22 24.73a2.5 2.5 0 0 1-1.97.97zm129.2-121.03-80.11 68-88.39-68h168.5m13.61-5zm0 0h-196.8l103.23 79.42 93.57-79.42z"/><path fill="#FFF" d="m418.15 959.37-23.3 19.77-25.69-19.77h48.99m13.6-5zm0 0h-77.28l40.54 31.19 36.74-31.19zm1171.77-.31.32-.01c13.27-.6 28.31-1.27 40.38-7.04 3.85-1.84 7.55-3.9 11.13-5.89 7.3-4.06 14.85-8.25 23.82-10.67 26.6-7.17 57.11-4.39 83.72 7.64 15.76 7.12 30.34 10.94 43.35 11.35 12.58.43 23.32-4.03 32.16-8.41 21.18-10.51 50.23-12.68 79.7-5.93a2.5 2.5 0 1 1-1.11 4.88c-28.37-6.5-56.2-4.48-76.37 5.53-9.4 4.66-20.85 9.35-34.54 8.93-13.66-.43-28.89-4.4-45.25-11.8-25.57-11.56-54.86-14.24-80.36-7.36-8.37 2.26-15.33 6.12-22.7 10.21-3.64 2.03-7.4 4.12-11.4 6.03-12.98 6.2-25.36 6.86-39.1 7.48l-3.75-4.94zm-1064.7-668.3c20.36-33.04 53.25-65.15 95.17-91.68a93.06 93.06 0 0 0-7.1-39.75c-20.06-48.15-75.86-70.7-124.65-50.4s-72.09 75.83-52.04 123.98c15.2 36.5 50.95 58.3 88.62 57.85zM1580.14 59.8a30.91 30.91 0 0 0-36.94-35.19 42.68 42.68 0 0 0-77.48 1.14 30.91 30.91 0 0 0-40.96 34.05h155.38zM538.54 72.15a2.5 2.5 0 0 1-2.5-2.5V27.67a2.5 2.5 0 1 1 5 0v41.98a2.5 2.5 0 0 1-2.5 2.5zM478.8 87.73a2.5 2.5 0 0 1-1.82-.78L399.12 5.12a2.5 2.5 0 1 1 3.62-3.44L480.6 83.5a2.5 2.5 0 0 1-1.8 4.22zm-86.34 290.04a2.5 2.5 0 0 1-1.86-4.17l69.53-77.53a2.5 2.5 0 0 1 3.72 3.34l-69.53 77.53a2.5 2.5 0 0 1-1.86.83zm18.29-184.01h-.02l-62.86-.29a2.5 2.5 0 0 1 .02-5l62.87.3a2.5 2.5 0 0 1-.01 5zm14.44-59.54c-.4 0-.8-.09-1.17-.29l-113.98-60.6a2.5 2.5 0 1 1 2.34-4.41l113.98 60.6a2.5 2.5 0 0 1-1.17 4.7zM311.21 301.8a2.5 2.5 0 0 1-.97-4.8l113.98-48.05a2.5 2.5 0 0 1 1.94 4.6L312.18 301.6c-.32.13-.64.2-.97.2zM598.88 86.5a2.5 2.5 0 0 1-1.7-4.33l67.24-62.53a2.5 2.5 0 0 1 3.4 3.66l-67.24 62.54a2.5 2.5 0 0 1-1.7.67zm47.27 47.1a2.5 2.5 0 0 1-1.1-4.73l60.03-29.69a2.5 2.5 0 0 1 2.22 4.48l-60.04 29.69a2.5 2.5 0 0 1-1.1.26z"/></svg>