<svg xmlns="http://www.w3.org/2000/svg" viewBox="0 0 1073.56 1080" xml:space="preserve"><path fill="#2E9AFF" d="M267.18 757.78h-62.14a41.88 41.88 0 0 1-41.84-41.84v-48.26c0-9.7 7.9-17.6 17.6-17.6 9.7 0 17.6 7.9 17.6 17.6v26.42l70.39 59.27a2.5 2.5 0 0 1-1.61 4.41zm-86.38-102.7c-6.95 0-12.6 5.66-12.6 12.6v48.27a36.88 36.88 0 0 0 36.84 36.83h55.29l-66.05-55.6a2.5 2.5 0 0 1-.89-1.92v-27.58a12.6 12.6 0 0 0-12.6-12.6z"/><path fill="#2E9AFF" d="M146.41 680.86h19.3v-12.14h-31.44c0 6.7 5.44 12.14 12.14 12.14z"/><circle fill="#2E9AFF" cx="180.5" cy="674.79" r="6.07"/><path fill="#2E9AFF" d="M243.89 735.77c-9.06 10.62-27.25 9.98-40.63-1.43s-16.88-29.28-7.82-39.9l48.45 41.33zm-57.32 60.21a2.5 2.5 0 0 1-2.5-2.5v-42.8a2.5 2.5 0 1 1 5 0v42.8a2.5 2.5 0 0 1-2.5 2.5zm12.87-2.31a2.5 2.5 0 0 1-2.5-2.5v-35.89a2.5 2.5 0 1 1 5 0v35.9a2.5 2.5 0 0 1-2.5 2.5z"/><path d="M358 996.6h-80.76c-1.1 0-2-.9-2-2s.9-2 2-2h80.77c1.1 0 2.01.9 2.01 2s-.9 2-2.01 2z"/><path fill="none" d="M537.84 547.4c.42 1.06.8 2.11 1.17 3.17l6.8-6.74-7.97 3.57z"/><path fill="#FFF" d="M366.47 219.12a2.53 2.53 0 0 1-2.1-1.11 2.2 2.2 0 0 1-.37-.9 1.99 1.99 0 0 1-.05-.5 2.5 2.5 0 0 1 4.6-1.38 2.28 2.28 0 0 1 .38.9 2.59 2.59 0 0 1 0 .98 2.54 2.54 0 0 1-.67 1.28c-.48.47-1.13.73-1.8.73zm-135.81 53.83a2.5 2.5 0 1 1 1.1-4.88 2.48 2.48 0 0 1 1.9 2.98 2.52 2.52 0 0 1-2.44 1.96c-.18 0-.38-.02-.56-.06zm-13.95-4.21a2.5 2.5 0 0 1-1.43-3.24 2.51 2.51 0 0 1 3.25-1.42 2.5 2.5 0 0 1 1.44 3.24 2.53 2.53 0 0 1-3.26 1.42zm-13.13-6.45a2.49 2.49 0 0 1-.83-3.45 2.52 2.52 0 0 1 3.47-.82 2.5 2.5 0 0 1 .82 3.44 2.52 2.52 0 0 1-3.46.82zm-11.7-8.9h.02a2.48 2.48 0 0 1-.1-3.54c.96-1 2.55-1.04 3.56-.08a2.5 2.5 0 0 1-1.73 4.31c-.63 0-1.25-.23-1.74-.69zm-9.43-11.3a2.51 2.51 0 0 1 4.23-2.71 2.51 2.51 0 0 1-2.1 3.85c-.84 0-1.65-.4-2.13-1.14zm-6.41-13.27a2.51 2.51 0 0 1 4.77-1.59 2.5 2.5 0 0 1-1.6 3.17 2.52 2.52 0 0 1-3.18-1.58zm-2.93-14.42a2.51 2.51 0 0 1 5.01-.39 2.5 2.5 0 0 1-2.31 2.69h-.2c-1.3 0-2.4-1-2.5-2.3zm199.32-7.79a2.5 2.5 0 0 1-1.2-3.33 2.52 2.52 0 0 1 3.35-1.19 2.5 2.5 0 0 1-1.08 4.76 2.6 2.6 0 0 1-1.07-.24zm-196.65-4.03a2.49 2.49 0 0 1-2.12-2.83 2.51 2.51 0 0 1 2.86-2.1 2.5 2.5 0 0 1-.37 4.97c-.12 0-.24-.02-.37-.04zm202-9.05a2.5 2.5 0 0 1-1.76-3.07 2.53 2.53 0 0 1 3.09-1.76 2.5 2.5 0 0 1 1.77 3.07 2.52 2.52 0 0 1-2.43 1.84c-.22 0-.44-.02-.66-.08zm-199-4.74a2.5 2.5 0 0 1-1.53-3.2 2.52 2.52 0 0 1 3.2-1.51 2.5 2.5 0 0 1 1.55 3.19h-.01a2.5 2.5 0 0 1-3.21 1.52zm201.85-9.1a2.5 2.5 0 1 1 .3-5h-.01a2.5 2.5 0 0 1-.14 5 .7.7 0 0 1-.15 0zm-196.37-3.93a2.5 2.5 0 0 1-.98-3.4 2.53 2.53 0 0 1 3.42-.98 2.5 2.5 0 0 1-1.23 4.7c-.4 0-.82-.1-1.21-.32zm193.23-12.2a2.5 2.5 0 0 1 2.03-2.9 2.5 2.5 0 0 1 2.92 2.02 2.51 2.51 0 0 1-2.03 2.9c-.16.02-.3.04-.45.04-1.2 0-2.25-.86-2.47-2.06zm-185.77.18a2.48 2.48 0 0 1-.48-3.5 2.53 2.53 0 0 1 3.52-.5 2.5 2.5 0 0 1-1.52 4.5v.01c-.53 0-1.06-.17-1.52-.51zm9.04-10.9a2.51 2.51 0 0 1 3.51-3.58c1 .95 1.02 2.53.05 3.53a2.5 2.5 0 0 1-1.8.76c-.63 0-1.27-.25-1.76-.72zm172.7-2.16a2.5 2.5 0 0 1 1.25-3.3 2.52 2.52 0 0 1 3.33 1.23 2.49 2.49 0 0 1-1.25 3.31 2.53 2.53 0 0 1-3.33-1.24zm-162.4-7.59a2.49 2.49 0 0 1 .36-3.52 2.53 2.53 0 0 1 3.54.36 2.5 2.5 0 0 1-.37 3.52h.01a2.52 2.52 0 0 1-3.54-.36zm155.32-3.9a2.49 2.49 0 0 1 .4-3.51 2.53 2.53 0 0 1 3.53.4 2.49 2.49 0 0 1-.4 3.5 2.5 2.5 0 0 1-3.53-.39zm-144-4.64a2.5 2.5 0 0 1 .73-3.47 2.53 2.53 0 0 1 3.48.73 2.5 2.5 0 0 1-.74 3.46 2.5 2.5 0 0 1-3.47-.72zm134.33-4.88a2.49 2.49 0 0 1-.4-3.51 2.52 2.52 0 0 1 3.53-.41 2.49 2.49 0 0 1 .4 3.5 2.5 2.5 0 0 1-3.53.42zm-122.18-2.46a2.49 2.49 0 0 1 1.07-3.38 2.54 2.54 0 0 1 3.4 1.08 2.5 2.5 0 0 1-1.08 3.37 2.5 2.5 0 0 1-3.4-1.07zm12.82-6.1a2.48 2.48 0 0 1 1.4-3.26 2.5 2.5 0 0 1 3.27 1.38 2.51 2.51 0 0 1-1.4 3.26 2.52 2.52 0 0 1-3.27-1.39zm97.83 1.21a2.5 2.5 0 0 1-1.1-3.37 2.52 2.52 0 0 1 3.4-1.08 2.5 2.5 0 0 1 1.08 3.36 2.51 2.51 0 0 1-2.24 1.37c-.39 0-.78-.09-1.14-.28zm-84.5-6.08a2.52 2.52 0 0 1 4.83-1.41 2.5 2.5 0 0 1-1.7 3.11 2.52 2.52 0 0 1-3.13-1.7zm71.74.9a2.5 2.5 0 0 1-1.64-3.14 2.51 2.51 0 0 1 3.16-1.63 2.5 2.5 0 0 1 1.64 3.14 2.53 2.53 0 0 1-2.4 1.74c-.26 0-.5-.03-.76-.1zm-57.97-4.43a2.52 2.52 0 0 1 4.95-.92 2.52 2.52 0 0 1-2.02 2.92 2.51 2.51 0 0 1-2.93-2zm44.5 1.24a2.5 2.5 0 0 1-2.08-2.87 2.51 2.51 0 0 1 2.9-2.06 2.5 2.5 0 0 1 2.08 2.87 2.53 2.53 0 0 1-2.49 2.1c-.13 0-.27-.01-.41-.04zm-30.44-3.36a2.5 2.5 0 0 1 2.3-2.7c1.4-.1 2.6.94 2.71 2.3a2.51 2.51 0 0 1-2.31 2.7l-.2.01c-1.3 0-2.4-1-2.5-2.31zm16.61 2a2.5 2.5 0 1 1 .2-5 2.5 2.5 0 0 1 2.4 2.6 2.5 2.5 0 0 1-2.5 2.4h-.1zm-59.74 162.57a2.75 2.75 0 0 1-.97-.2c-.15-.06-.3-.13-.43-.22a2.74 2.74 0 0 1-.7-.7 2.55 2.55 0 0 1-.42-1.38 2.72 2.72 0 0 1 .2-.96 2.63 2.63 0 0 1 .53-.81 2.53 2.53 0 0 1 4.3 1.77 2.54 2.54 0 0 1-1.12 2.08 3.08 3.08 0 0 1-.9.37c-.16.03-.33.05-.5.05zm226.05 117.19a2.5 2.5 0 0 1-2.32-1.54c-.07-.15-.11-.3-.15-.47a2.7 2.7 0 0 1 .15-1.44 2.68 2.68 0 0 1 .54-.82 2.6 2.6 0 0 1 3.56 0 2.66 2.66 0 0 1 .69 1.28 2.72 2.72 0 0 1 0 .98c-.04.16-.1.32-.15.47a2.55 2.55 0 0 1-.55.81 2.5 2.5 0 0 1-1.77.73z"/><path fill="#FFF" d="M325.87 441.78a2.51 2.51 0 0 1 5.03-.05 2.51 2.51 0 0 1-5.03.05zm-11.65 2.07a2.5 2.5 0 1 1 .34-5v.01a2.5 2.5 0 0 1 2.35 2.66 2.51 2.51 0 0 1-2.52 2.33h-.17zm25.66-2.51a2.52 2.52 0 0 1 5.01-.39 2.5 2.5 0 0 1-2.32 2.7h-.2c-1.3 0-2.4-1-2.5-2.31zm-39.79.98a2.5 2.5 0 1 1 .75-4.94 2.5 2.5 0 0 1 2.12 2.85 2.52 2.52 0 0 1-2.49 2.12l-.38-.03zm-13.95-2.76v.01a2.52 2.52 0 0 1-1.85-3.04 2.52 2.52 0 0 1 3.05-1.82 2.5 2.5 0 0 1-.6 4.93c-.2 0-.4-.03-.6-.08zm-13.66-4.12a2.49 2.49 0 0 1-1.5-3.21 2.52 2.52 0 0 1 3.22-1.5 2.5 2.5 0 0 1 1.51 3.2 2.52 2.52 0 0 1-2.36 1.66c-.3 0-.59-.05-.87-.15zm-13.12-5.66a2.5 2.5 0 0 1-1.1-3.37 2.52 2.52 0 0 1 3.38-1.09 2.5 2.5 0 0 1 1.11 3.37 2.53 2.53 0 0 1-2.25 1.36c-.38 0-.78-.08-1.14-.27zm-12.3-7.36a2.5 2.5 0 0 1-.6-3.48 2.53 2.53 0 0 1 3.5-.6 2.5 2.5 0 0 1-1.45 4.54c-.5 0-1-.15-1.44-.46zM236 413.26a2.51 2.51 0 0 1 3.54-3.56 2.5 2.5 0 0 1-1.77 4.28 2.5 2.5 0 0 1-1.77-.72zm-9.32-10.96a2.51 2.51 0 0 1 4.13-2.86 2.5 2.5 0 0 1-.63 3.48c-.43.3-.93.44-1.44.44a2.5 2.5 0 0 1-2.06-1.06zm-7.07-12.55a2.5 2.5 0 0 1 1.3-3.3 2.52 2.52 0 0 1 3.3 1.3 2.49 2.49 0 0 1-1.28 3.28 2.53 2.53 0 0 1-3.32-1.28zm260.55-7.32a2.49 2.49 0 0 1 .13-3.53 2.52 2.52 0 0 1 3.55.12 2.5 2.5 0 0 1-.12 3.54 2.53 2.53 0 0 1-3.56-.13zm-265.03-6.36a2.52 2.52 0 0 1 4.92-1.08 2.52 2.52 0 0 1-2.47 3.04c-1.15 0-2.19-.8-2.45-1.96zm275.05-3.37a2.52 2.52 0 0 1 3.42-3.67 2.5 2.5 0 0 1 .14 3.53 2.55 2.55 0 0 1-3.56.14zm-276.8-10.9a2.5 2.5 0 0 1 5.02-.14 2.5 2.5 0 0 1-2.44 2.56h-.06a2.5 2.5 0 0 1-2.51-2.43zm286.05.44a2.49 2.49 0 0 1-.43-3.5 2.52 2.52 0 0 1 3.54-.43 2.5 2.5 0 0 1-1.56 4.47 2.5 2.5 0 0 1-1.55-.54zm8.33-11.2a2.49 2.49 0 0 1-.75-3.44 2.53 2.53 0 0 1 3.48-.75 2.5 2.5 0 0 1 .74 3.46 2.53 2.53 0 0 1-3.47.74zm-291.4-.72a2.5 2.5 0 0 1-2.13-2.83 2.51 2.51 0 0 1 2.84-2.13 2.49 2.49 0 0 1-.35 4.97l-.35-.01zm298.62-11.2a2.5 2.5 0 0 1-1.1-3.36 2.54 2.54 0 0 1 3.39-1.1 2.5 2.5 0 0 1 1.1 3.37 2.52 2.52 0 0 1-2.25 1.36c-.38 0-.78-.08-1.14-.27zm-295.96-2.47a2.5 2.5 0 0 1-1.69-3.11 2.53 2.53 0 0 1 3.13-1.68 2.5 2.5 0 0 1-.71 4.9c-.24 0-.49-.03-.73-.1zm301.85-10.15a2.5 2.5 0 1 1 1.73-4.7 2.49 2.49 0 0 1 1.5 3.2 2.5 2.5 0 0 1-2.37 1.65c-.28 0-.57-.05-.86-.15zm-297.27-3a2.49 2.49 0 0 1-1.28-3.3 2.52 2.52 0 0 1 3.32-1.27 2.5 2.5 0 0 1 1.28 3.3 2.53 2.53 0 0 1-2.3 1.49c-.34 0-.69-.07-1.02-.22zm301.53-10.26a2.51 2.51 0 0 1-1.92-2.98 2.52 2.52 0 0 1 3-1.9 2.5 2.5 0 0 1 1.92 2.97 2.51 2.51 0 0 1-2.46 1.97c-.17 0-.35-.02-.53-.06zM229.74 311a2.5 2.5 0 0 1-.9-3.42 2.52 2.52 0 0 1 3.44-.9 2.5 2.5 0 0 1 .9 3.42 2.53 2.53 0 0 1-3.44.9zm7.44-11.8a2.5 2.5 0 0 1-.57-3.5 2.52 2.52 0 0 1 3.51-.55c1.13.8 1.38 2.37.58 3.48a2.53 2.53 0 0 1-2.06 1.04c-.5 0-1.01-.15-1.46-.47zm290.26.33a2.51 2.51 0 0 1-2.38-2.64 2.51 2.51 0 0 1 2.65-2.36 2.5 2.5 0 0 1-.13 5h-.14zm-281.76-11.4a2.5 2.5 0 0 1-.27-3.52 2.53 2.53 0 0 1 3.55-.27 2.5 2.5 0 0 1 .27 3.52 2.53 2.53 0 0 1-3.55.27zm278.91-4.69a2.49 2.49 0 0 1 2.18-2.79 2.51 2.51 0 0 1 2.81 2.16 2.51 2.51 0 0 1-2.17 2.8l-.32.02a2.51 2.51 0 0 1-2.5-2.19zm-269.52-5.63a2.49 2.49 0 0 1 0-3.54 2.52 2.52 0 0 1 3.57 0 2.51 2.51 0 0 1-1.8 4.26v.01c-.64 0-1.28-.24-1.77-.73zm266.53-7.45a2.5 2.5 0 0 1 1.6-3.16 2.52 2.52 0 0 1 3.17 1.59 2.5 2.5 0 0 1-1.59 3.16 2.52 2.52 0 0 1-3.18-1.59zm-256.38-2.15a2.48 2.48 0 0 1 .26-3.53 2.52 2.52 0 0 1 3.54.26 2.5 2.5 0 0 1-.26 3.53 2.56 2.56 0 0 1-3.54-.26zm10.78-8.88a2.5 2.5 0 0 1 .5-3.5 2.52 2.52 0 0 1 3.52.5 2.5 2.5 0 0 1-2 4c-.77 0-1.52-.35-2.02-1zm240.1-1.22a2.5 2.5 0 0 1 .96-3.4 2.53 2.53 0 0 1 3.43.93 2.5 2.5 0 0 1-.95 3.41 2.52 2.52 0 0 1-3.43-.94zm-228.75-6.93a2.5 2.5 0 0 1 .72-3.47 2.53 2.53 0 0 1 3.49.7 2.5 2.5 0 0 1-.72 3.47 2.54 2.54 0 0 1-3.5-.7zm221-4.04a2.48 2.48 0 0 1 .26-3.52 2.51 2.51 0 0 1 3.54.27 2.5 2.5 0 0 1-.27 3.53 2.5 2.5 0 0 1-3.54-.28zm-209.15-3.41a2.49 2.49 0 0 1 .92-3.41 2.53 2.53 0 0 1 3.44.92 2.52 2.52 0 0 1-2.18 3.75c-.87 0-1.71-.45-2.18-1.26zm12.26-6.73a2.5 2.5 0 0 1 1.13-3.36 2.53 2.53 0 0 1 3.38 1.11 2.51 2.51 0 0 1-1.13 3.37 2.52 2.52 0 0 1-3.38-1.12zm187.18.73a2.5 2.5 0 0 1-.34-3.52 2.52 2.52 0 0 1 3.54-.34 2.5 2.5 0 0 1-1.6 4.43c-.56 0-1.13-.18-1.6-.56zm-174.54-6.75a2.52 2.52 0 0 1 4.62-1.99 2.5 2.5 0 0 1-1.31 3.3 2.53 2.53 0 0 1-3.3-1.3zm163.4-1a2.48 2.48 0 0 1-.88-3.42 2.52 2.52 0 0 1 3.44-.88 2.5 2.5 0 0 1 .88 3.43 2.54 2.54 0 0 1-2.17 1.22c-.43 0-.87-.1-1.28-.35zm-150.45-4.3a2.52 2.52 0 0 1 4.73-1.73 2.5 2.5 0 0 1-1.5 3.21 2.51 2.51 0 0 1-3.23-1.48zm138.26-1.83a2.5 2.5 0 0 1-1.33-3.28 2.51 2.51 0 0 1 4.63 1.97 2.51 2.51 0 0 1-2.32 1.5c-.33.01-.66-.05-.98-.19zm-125.03-2.74a2.52 2.52 0 0 1 4.8-1.46 2.5 2.5 0 0 1-1.66 3.12 2.52 2.52 0 0 1-3.14-1.66zm112.12-1.9a2.5 2.5 0 0 1-1.68-3.1 2.51 2.51 0 0 1 4.82 1.44 2.52 2.52 0 0 1-2.41 1.78c-.25 0-.49-.04-.73-.11zm-98.65-1.92a2.5 2.5 0 0 1 1.85-3.02 2.5 2.5 0 1 1 1.18 4.86 2.5 2.5 0 0 1-3.03-1.84zm13.67-3.02a2.52 2.52 0 0 1 4.96-.88 2.5 2.5 0 0 1-2.05 2.9 2.52 2.52 0 0 1-2.92-2.02zm71.63 1.69a2.49 2.49 0 0 1-1.99-2.93 2.5 2.5 0 1 1 4.93.96 2.51 2.51 0 0 1-2.46 2.02 2.6 2.6 0 0 1-.48-.05zm-57.8-3.86a2.52 2.52 0 0 1 5-.57 2.5 2.5 0 0 1-2.21 2.77v-.01c-.1.02-.2.02-.3.02a2.5 2.5 0 0 1-2.49-2.21zm44.16 1.84a2.5 2.5 0 1 1 .53-4.97 2.5 2.5 0 0 1 2.24 2.74 2.51 2.51 0 0 1-2.5 2.25l-.27-.02zm-30.21-3.14a2.5 2.5 0 0 1 2.4-2.6 2.5 2.5 0 1 1 .23 5v-.01h-.13a2.5 2.5 0 0 1-2.5-2.39zm16.44 2.25a2.5 2.5 0 0 1-2.45-2.56 2.52 2.52 0 0 1 2.58-2.45 2.53 2.53 0 0 1 2.46 2.57 2.5 2.5 0 0 1-2.52 2.44h-.07zm-65.2 229.03a2.84 2.84 0 0 1-.96-.19 2.3 2.3 0 0 1-.43-.23 2.94 2.94 0 0 1-.7-.69 2.45 2.45 0 0 1-.37-1.88 2.83 2.83 0 0 1 .37-.9c.1-.13.2-.26.32-.38a2.4 2.4 0 0 1 .81-.54 2.38 2.38 0 0 1 1.92 0 2.27 2.27 0 0 1 1.13.92 2.63 2.63 0 0 1 .37.9c.04.16.05.33.05.49s0 .33-.05.49a2.55 2.55 0 0 1-.68 1.28c-.11.12-.24.22-.38.3a2.3 2.3 0 0 1-.9.38 2.6 2.6 0 0 1-.5.05zm270.58 67.89a2.84 2.84 0 0 1-.96-.2 2.8 2.8 0 0 1-.81-.54 2.5 2.5 0 0 1-.01-3.54c.12-.1.24-.22.38-.3s.29-.18.44-.24a2.65 2.65 0 0 1 1.46-.14 2.57 2.57 0 0 1 .9.37 2.54 2.54 0 0 1 .93 3.03c-.07.16-.14.3-.23.44-.1.13-.2.26-.32.38-.12.11-.25.22-.38.31-.14.1-.28.16-.43.23a2.8 2.8 0 0 1-.97.2zm10.43-7.17a2.5 2.5 0 0 1 1.25-3.32c1.27-.56 2.76 0 3.33 1.26a2.48 2.48 0 0 1-1.25 3.3 2.51 2.51 0 0 1-3.33-1.25zm12.71-5.7a2.52 2.52 0 0 1 4.59-2.06 2.5 2.5 0 0 1-1.25 3.31 2.53 2.53 0 0 1-3.33-1.25zm12.72-5.7a2.48 2.48 0 0 1 1.26-3.3 2.5 2.5 0 1 1 2.07 4.56 2.52 2.52 0 0 1-3.33-1.26zm12.72-5.7a2.5 2.5 0 0 1 1.26-3.3c1.27-.56 2.76 0 3.33 1.26a2.48 2.48 0 0 1-1.26 3.3 2.53 2.53 0 0 1-3.33-1.25zm12.39-6.33a2.5 2.5 0 0 1 .55-3.5h-.01a2.53 2.53 0 0 1 3.52.54 2.5 2.5 0 0 1-.55 3.5 2.52 2.52 0 0 1-3.51-.54zm10.6-8.99a2.5 2.5 0 0 1-.29-3.53 2.53 2.53 0 0 1 3.55-.27 2.5 2.5 0 0 1 .28 3.52 2.53 2.53 0 0 1-3.55.28zm8.24-11.16a2.49 2.49 0 0 1-1.06-3.37 2.51 2.51 0 0 1 3.39-1.06 2.49 2.49 0 0 1 1.06 3.37 2.53 2.53 0 0 1-3.4 1.06zm5.54-12.7a2.51 2.51 0 0 1-1.8-3.07 2.53 2.53 0 0 1 3.09-1.78 2.5 2.5 0 0 1 1.78 3.06 2.52 2.52 0 0 1-2.43 1.86 2.8 2.8 0 0 1-.64-.08zm2.6-13.62a2.51 2.51 0 0 1-2.43-2.6 2.5 2.5 0 0 1 2.6-2.4 2.51 2.51 0 0 1 2.43 2.6 2.5 2.5 0 0 1-2.52 2.4h-.09zm-213.53-7.29a2.48 2.48 0 0 1 1.26-3.3 2.52 2.52 0 0 1 3.33 1.25 2.5 2.5 0 0 1-1.26 3.31 2.52 2.52 0 0 1-3.33-1.26zm12.72-5.69a2.5 2.5 0 0 1 1.26-3.3 2.5 2.5 0 1 1 2.07 4.56 2.53 2.53 0 0 1-3.34-1.26zm197.38-2.86h.01a2.52 2.52 0 0 1 4.94-.92 2.5 2.5 0 0 1-2.01 2.92 2.52 2.52 0 0 1-2.94-2zm-184.66-2.83a2.52 2.52 0 0 1 4.59-2.06c.56 1.26 0 2.74-1.26 3.31a2.53 2.53 0 0 1-3.33-1.25zm12.71-5.7a2.48 2.48 0 0 1 1.26-3.3 2.52 2.52 0 0 1 3.33 1.25 2.5 2.5 0 0 1-1.26 3.3 2.52 2.52 0 0 1-3.33-1.26zm168.05-4.25a2.5 2.5 0 0 1 1.4-3.24 2.5 2.5 0 1 1 1.86 4.64 2.52 2.52 0 0 1-3.27-1.4zm-155.33-1.44a2.5 2.5 0 0 1 1.26-3.31c1.27-.57 2.76 0 3.33 1.25a2.5 2.5 0 0 1-1.26 3.3 2.53 2.53 0 0 1-3.33-1.25zm12.72-5.7a2.48 2.48 0 0 1 1.26-3.3 2.52 2.52 0 0 1 3.33 1.24c.56 1.26 0 2.74-1.26 3.31a2.52 2.52 0 0 1-3.33-1.26zm136.8-4.96a2.5 2.5 0 0 1 .8-3.44 2.53 2.53 0 0 1 3.47.82 2.48 2.48 0 0 1-.82 3.43 2.5 2.5 0 0 1-3.46-.81zm-124.08-.74a2.49 2.49 0 0 1 1.26-3.3 2.52 2.52 0 0 1 3.33 1.25 2.5 2.5 0 0 1-1.26 3.31 2.53 2.53 0 0 1-3.34-1.26zm12.72-5.69a2.5 2.5 0 0 1 1.25-3.31 2.52 2.52 0 0 1 3.34 1.25 2.5 2.5 0 0 1-1.26 3.31 2.53 2.53 0 0 1-3.33-1.25zm103.08-3.97a2.48 2.48 0 0 1 0-3.53 2.53 2.53 0 0 1 3.56 0 2.5 2.5 0 0 1 0 3.54 2.52 2.52 0 0 1-3.55-.01zm-90.37-1.73a2.48 2.48 0 0 1 1.26-3.3 2.52 2.52 0 0 1 3.33 1.25c.58 1.26 0 2.74-1.25 3.3a2.52 2.52 0 0 1-3.33-1.25zm12.72-5.7a2.5 2.5 0 0 1 1.26-3.3c1.27-.57 2.76 0 3.33 1.25a2.49 2.49 0 0 1-1.26 3.3 2.51 2.51 0 0 1-3.33-1.25zm67.2-.79a2.5 2.5 0 0 1-.83-3.44 2.53 2.53 0 0 1 3.46-.82 2.5 2.5 0 0 1 .83 3.44 2.53 2.53 0 0 1-3.46.82zm-54.48-4.9a2.5 2.5 0 0 1 1.26-3.3 2.52 2.52 0 0 1 3.33 1.24 2.5 2.5 0 0 1-1.26 3.31 2.53 2.53 0 0 1-3.33-1.25zm42.4-.66a2.5 2.5 0 0 1-1.63-3.15 2.53 2.53 0 0 1 3.17-1.6 2.5 2.5 0 0 1 1.62 3.14 2.53 2.53 0 0 1-3.17 1.61zm-29.26-3.93a2.49 2.49 0 0 1 2.05-2.89 2.5 2.5 0 0 1 2.9 2.04 2.49 2.49 0 0 1-2.04 2.88 2.5 2.5 0 0 1-2.9-2.03zm16.2 1.38a2.5 2.5 0 1 1 .36-5v.02c1.38.1 2.43 1.3 2.33 2.67a2.53 2.53 0 0 1-2.52 2.32h-.18zm-167.02 67.38a2.52 2.52 0 0 1-2.32-1.55c-.07-.15-.11-.31-.15-.47a2.68 2.68 0 0 1 .15-1.45 2.55 2.55 0 0 1 .54-.81 2.59 2.59 0 0 1 3.56 0c.12.11.22.24.3.38.1.13.18.28.24.43.07.15.1.32.15.47a2.63 2.63 0 0 1-.38 1.88 3 3 0 0 1-.31.38c-.11.12-.25.22-.39.3a2.55 2.55 0 0 1-1.39.43zm-59.18 201.05a2.5 2.5 0 1 1 .02-5 2.51 2.51 0 0 1 2.5 2.51 2.5 2.5 0 0 1-2.5 2.5h-.02zm-14.05-.04a2.5 2.5 0 1 1 0-5h.01c1.4 0 2.52 1.13 2.52 2.51a2.51 2.51 0 0 1-2.52 2.5zm-14.04-.04a2.51 2.51 0 0 1-2.52-2.51 2.52 2.52 0 0 1 2.53-2.5 2.5 2.5 0 1 1 0 5v.01h-.01zm-14.06-.04a2.52 2.52 0 0 1-2.5-2.51 2.5 2.5 0 0 1 2.52-2.5 2.5 2.5 0 0 1 2.5 2.51 2.5 2.5 0 0 1-2.5 2.5h-.02zm-14.05-.04a2.5 2.5 0 1 1 .02-5 2.5 2.5 0 0 1 2.51 2.51 2.51 2.51 0 0 1-2.51 2.5h-.01zm-14.04-.05a2.5 2.5 0 1 1 .01-5 2.5 2.5 0 0 1 2.51 2.51 2.52 2.52 0 0 1-2.51 2.5h-.01zm-14.05-.03a2.52 2.52 0 0 1-2.51-2.51 2.51 2.51 0 0 1 2.52-2.5 2.5 2.5 0 0 1 2.5 2.51 2.5 2.5 0 0 1-2.5 2.5zm-14.04-.04a2.52 2.52 0 0 1-2.52-2.51 2.51 2.51 0 0 1 2.53-2.5 2.5 2.5 0 0 1 2.5 2.51 2.5 2.5 0 0 1-2.51 2.5zm-14.16-.1a2.5 2.5 0 0 1-2.4-2.6 2.51 2.51 0 0 1 2.62-2.4 2.5 2.5 0 0 1 2.4 2.6 2.52 2.52 0 0 1-2.51 2.41h-.11zm-14.42-2.31a2.51 2.51 0 0 1-1.72-3.1 2.52 2.52 0 0 1 3.12-1.71 2.5 2.5 0 0 1 1.72 3.1 2.52 2.52 0 0 1-2.42 1.8c-.23 0-.46-.03-.7-.09zm-13.44-5.74a2.49 2.49 0 0 1-.9-3.42 2.52 2.52 0 0 1 3.44-.9c1.2.7 1.6 2.24.9 3.43a2.52 2.52 0 0 1-2.18 1.24c-.43 0-.86-.11-1.26-.35zm-11.62-8.82a2.51 2.51 0 0 1 3.51-3.58 2.5 2.5 0 0 1 .05 3.54 2.55 2.55 0 0 1-3.56.05zm-9.2-11.26a2.5 2.5 0 0 1 4.24-2.7v.01a2.48 2.48 0 0 1-.77 3.45 2.5 2.5 0 0 1-3.47-.76zm-6.45-13a2.5 2.5 0 0 1 1.5-3.2 2.5 2.5 0 1 1 1.72 4.7h.01a2.52 2.52 0 0 1-3.23-1.5zm-3.46-14.06a2.51 2.51 0 0 1 2.17-2.81 2.5 2.5 0 1 1 .65 4.96l-.33.02a2.53 2.53 0 0 1-2.5-2.17zm1.98-11.77a2.5 2.5 0 1 1 .46-4.98 2.51 2.51 0 0 1 2.29 2.72h-.01a2.51 2.51 0 0 1-2.5 2.27l-.24-.01zm2.32-13.77a2.49 2.49 0 0 1-1.58-3.16 2.52 2.52 0 0 1 3.18-1.58 2.5 2.5 0 0 1 1.59 3.16 2.52 2.52 0 0 1-2.39 1.71c-.27 0-.53-.04-.8-.13zm5.43-12.85a2.5 2.5 0 0 1-.82-3.44 2.53 2.53 0 0 1 3.47-.83 2.5 2.5 0 0 1 .81 3.46 2.55 2.55 0 0 1-3.46.81zm8.24-11.3a2.49 2.49 0 0 1-.06-3.53c.98-1 2.57-1.02 3.56-.05 1 .95 1.02 2.54.05 3.53a2.5 2.5 0 0 1-3.55.05zm9.79-10.02a2.49 2.49 0 0 1-.06-3.53c.98-1 2.57-1.01 3.56-.05 1 .96 1.02 2.54.05 3.53a2.5 2.5 0 0 1-1.8.76c-.63 0-1.27-.23-1.75-.71zm9.79-10.02a2.5 2.5 0 0 1-.06-3.54c.97-.99 2.57-1 3.56-.05a2.5 2.5 0 0 1 .05 3.54 2.5 2.5 0 0 1-3.55.05zm9.78-10.02a2.49 2.49 0 0 1-.05-3.53 2.53 2.53 0 0 1 3.56-.05c1 .96 1.02 2.54.05 3.53a2.5 2.5 0 0 1-1.8.76 2.5 2.5 0 0 1-1.76-.7zm9.8-10.01a2.5 2.5 0 0 1-.06-3.54c.97-1 2.56-1.01 3.56-.05a2.5 2.5 0 0 1 .05 3.54 2.51 2.51 0 0 1-3.56.05zm9.78-10.03a2.49 2.49 0 0 1-.05-3.53c.97-.99 2.57-1 3.56-.05 1 .96 1.02 2.54.05 3.53a2.5 2.5 0 0 1-3.56.05zm9.8-10.01a2.5 2.5 0 0 1-.06-3.54 2.52 2.52 0 0 1 3.55-.05 2.5 2.5 0 0 1-1.75 4.3v-.01a2.5 2.5 0 0 1-1.75-.7zm9.78-10.02a2.49 2.49 0 0 1-.05-3.53 2.5 2.5 0 0 1 3.55-.05c1 .96 1.03 2.54.05 3.53a2.5 2.5 0 0 1-1.8.76c-.63 0-1.26-.23-1.75-.71zm9.8-10.02a2.49 2.49 0 0 1-.06-3.54c.97-.99 2.56-1 3.55-.05a2.5 2.5 0 0 1 .05 3.54 2.5 2.5 0 0 1-1.8.75 2.5 2.5 0 0 1-1.75-.7zm9.78-10.02a2.49 2.49 0 0 1-.06-3.53 2.54 2.54 0 0 1 3.56-.06 2.5 2.5 0 0 1 .05 3.54 2.5 2.5 0 0 1-3.55.05zm9.8-10.01a2.5 2.5 0 0 1-.07-3.55c.98-.99 2.57-1 3.56-.05a2.5 2.5 0 0 1 .05 3.55 2.5 2.5 0 0 1-1.8.75 2.5 2.5 0 0 1-1.75-.7zm105.72-9a2.5 2.5 0 0 1 .65-3.48 2.52 2.52 0 0 1 3.5.64c.78 1.13.5 2.7-.65 3.47a2.54 2.54 0 0 1-3.5-.64zm-95.94-1.03a2.49 2.49 0 0 1-.06-3.53 2.53 2.53 0 0 1 3.56-.06 2.5 2.5 0 0 1 .05 3.54 2.5 2.5 0 0 1-3.55.05zm87.09-9v-.01a2.5 2.5 0 0 1-.18-3.53 2.52 2.52 0 0 1 3.54-.2 2.5 2.5 0 0 1 .19 3.55 2.56 2.56 0 0 1-3.55.2zm-77.3-1.01a2.5 2.5 0 0 1 .25-3.53 2.53 2.53 0 0 1 3.56.26 2.5 2.5 0 0 1-1.91 4.12c-.7 0-1.4-.28-1.9-.85zm66.32-6.66a2.5 2.5 0 0 1-1.03-3.39 2.52 2.52 0 0 1 3.41-1.02 2.5 2.5 0 0 1 1.03 3.39 2.53 2.53 0 0 1-2.22 1.32c-.4 0-.8-.1-1.19-.3zm-55.06-1.66a2.52 2.52 0 0 1 4.48-2.3 2.5 2.5 0 0 1-1.09 3.38 2.54 2.54 0 0 1-3.4-1.07zm42.57-3.2a2.51 2.51 0 0 1-1.8-3.06 2.52 2.52 0 0 1 3.06-1.79 2.5 2.5 0 0 1 1.8 3.05 2.52 2.52 0 0 1-2.43 1.87c-.2 0-.42-.03-.63-.08zm-29.64-2.2a2.52 2.52 0 0 1 4.9-1.14 2.51 2.51 0 0 1-1.87 3 2.5 2.5 0 0 1-3.03-1.87zm16.35.41a2.5 2.5 0 0 1-2.49-2.53 2.52 2.52 0 0 1 5.03.07 2.5 2.5 0 0 1-2.5 2.46h-.04zm9.26 238.83c-.16 0-.33 0-.5-.05a2.46 2.46 0 0 1-1.28-.68 2.54 2.54 0 0 1-.69-2.26 2.35 2.35 0 0 1 .38-.9l.3-.38c.13-.11.25-.22.39-.31.14-.1.28-.16.43-.23a2.64 2.64 0 0 1 1.94 0c.15.07.29.14.43.23l.38.3c.11.13.22.26.31.39a2.42 2.42 0 0 1 .42 1.4 2.54 2.54 0 0 1-1.54 2.3 2.45 2.45 0 0 1-.97.2zm209.54-50.55a2.53 2.53 0 0 1-2.1-1.11 2.45 2.45 0 0 1-.42-1.39 2.46 2.46 0 0 1 1.12-2.08 2.64 2.64 0 0 1 1.9-.37 2.47 2.47 0 0 1 1.28.7c.1.1.22.23.31.36.1.14.16.3.23.44a2.45 2.45 0 0 1 0 1.91c-.07.15-.14.3-.23.43a2.54 2.54 0 0 1-2.1 1.11zm34.14 246.5a2.5 2.5 0 0 1-2.5-2.5 2.51 2.51 0 0 1 5.03.02 2.5 2.5 0 0 1-2.52 2.48h-.01zm11.66-2.38a2.5 2.5 0 0 1 2.36-2.64 2.5 2.5 0 0 1 2.66 2.35 2.51 2.51 0 0 1-2.37 2.64h-.15a2.5 2.5 0 0 1-2.5-2.35zm-25.82 2.34a2.5 2.5 0 1 1 .02-5 2.5 2.5 0 0 1 2.5 2.51 2.51 2.51 0 0 1-2.51 2.5h-.01zm-14.17-.05a2.5 2.5 0 1 1 .02-5 2.5 2.5 0 1 1 0 5h-.02zm-14.15-.04a2.5 2.5 0 1 1 .02-5 2.5 2.5 0 0 1 2.5 2.51 2.5 2.5 0 0 1-2.52 2.5zm-14.16-.05a2.5 2.5 0 1 1 .01-5 2.5 2.5 0 1 1-.01 5zm-14.17-.04a2.5 2.5 0 0 1-2.5-2.5 2.51 2.51 0 0 1 2.52-2.5 2.5 2.5 0 1 1-.01 5zm-14.16-.05a2.5 2.5 0 1 1 .02-5 2.5 2.5 0 0 1 2.5 2.51 2.5 2.5 0 0 1-2.5 2.5h-.02zm-14.16-.04a2.52 2.52 0 0 1-2.5-2.5 2.51 2.51 0 0 1 2.52-2.5 2.5 2.5 0 1 1 0 5h-.02zm-14.16-.05a2.5 2.5 0 1 1 .02-5 2.52 2.52 0 0 1 2.5 2.51c0 1.38-1.13 2.5-2.52 2.5zm-14.17-.04a2.51 2.51 0 0 1-2.5-2.5 2.51 2.51 0 0 1 2.52-2.5 2.5 2.5 0 1 1 0 5h-.02zm-14.15-.05a2.5 2.5 0 0 1-2.51-2.5 2.52 2.52 0 0 1 5.03.01 2.5 2.5 0 0 1-2.52 2.5zm-14.16-.04a2.52 2.52 0 0 1-2.52-2.5 2.51 2.51 0 0 1 2.53-2.5 2.5 2.5 0 1 1-.01 5zm-14.17-.05a2.5 2.5 0 0 1-2.5-2.5 2.52 2.52 0 0 1 5.03.02 2.5 2.5 0 0 1-2.52 2.48zm-14.15-.04a2.52 2.52 0 0 1-2.52-2.5 2.5 2.5 0 0 1 2.52-2.5 2.5 2.5 0 1 1-.01 5zm-14.17-.05a2.5 2.5 0 0 1-2.5-2.5 2.52 2.52 0 0 1 5.03.01 2.5 2.5 0 0 1-2.52 2.5h-.01zm-14.16-.04a2.5 2.5 0 1 1 0-5c1.4 0 2.52 1.13 2.52 2.51a2.52 2.52 0 0 1-2.51 2.5h-.01zm-14.17-.05a2.5 2.5 0 1 1 .02-5v.01a2.5 2.5 0 0 1 2.5 2.5 2.5 2.5 0 0 1-2.5 2.5H463zm-14.15-.04a2.51 2.51 0 0 1-2.5-2.5 2.51 2.51 0 0 1 5.03.02 2.52 2.52 0 0 1-2.52 2.48h-.01zm-14.17-.05a2.5 2.5 0 0 1-2.5-2.5 2.51 2.51 0 0 1 5.03.01 2.5 2.5 0 0 1-2.51 2.5h-.02zm-14.16-.04a2.51 2.51 0 0 1-2.5-2.5 2.5 2.5 0 0 1 5.03.02 2.52 2.52 0 0 1-2.52 2.48zm-14.16-.05a2.5 2.5 0 0 1-2.51-2.5 2.5 2.5 0 0 1 2.52-2.49 2.5 2.5 0 1 1 0 5h-.01zm-14.16-.04a2.5 2.5 0 1 1 .02-5 2.5 2.5 0 0 1 2.5 2.51 2.51 2.51 0 0 1-2.51 2.5h-.01zm-14.17-.05a2.5 2.5 0 1 1 .02-5 2.5 2.5 0 1 1 0 5h-.02zm-14.16-.04a2.5 2.5 0 1 1 .02-5 2.5 2.5 0 0 1 2.5 2.51 2.51 2.51 0 0 1-2.5 2.5h-.02zm-14.26-.09a2.5 2.5 0 1 1 .23-5v.01a2.5 2.5 0 0 1-.11 5h-.13zM715.13 825a2.5 2.5 0 0 1 1.21-3.33 2.54 2.54 0 0 1 3.35 1.21 2.49 2.49 0 0 1-1.21 3.32 2.54 2.54 0 0 1-3.34-1.2zm-380.12.33a2.5 2.5 0 0 1-1.26-3.31 2.52 2.52 0 0 1 3.33-1.25 2.51 2.51 0 0 1 1.26 3.31 2.53 2.53 0 0 1-2.3 1.47c-.35 0-.7-.07-1.03-.22zm392.07-7.8a2.48 2.48 0 0 1-.11-3.53 2.51 2.51 0 0 1 3.55-.11 2.48 2.48 0 0 1 .1 3.53 2.49 2.49 0 0 1-3.55.1zm-404.33-.86v-.01c-.96-1-.92-2.58.1-3.53 1-.95 2.6-.91 3.55.09.96 1 .92 2.58-.09 3.53a2.53 2.53 0 0 1-3.56-.08zm412.68-10.45a2.48 2.48 0 0 1-1.4-3.25 2.52 2.52 0 0 1 3.27-1.39 2.5 2.5 0 0 1 1.4 3.25 2.52 2.52 0 0 1-3.27 1.39zm-420.82-2.09a2.51 2.51 0 0 1 1.37-3.27 2.5 2.5 0 1 1 1.92 4.63c-.32.13-.64.2-.95.2-1 0-1.94-.6-2.34-1.56zm421.91-13.96c0-1.38 1.13-2.5 2.52-2.5a2.5 2.5 0 0 1 2.52 2.5 2.5 2.5 0 0 1-2.52 2.5 2.51 2.51 0 0 1-2.51-2.5zm-424.98-.64a2.51 2.51 0 0 1 5.03-.1 2.5 2.5 0 0 1-2.46 2.55h-.05a2.51 2.51 0 0 1-2.52-2.45zm422.51-12.19a2.5 2.5 0 0 1 1.4-3.24c1.3-.5 2.76.12 3.28 1.4.5 1.3-.13 2.74-1.42 3.25a2.52 2.52 0 0 1-3.26-1.41zm-418.47.68a2.49 2.49 0 0 1-1.44-3.23 2.5 2.5 0 0 1 3.25-1.43 2.49 2.49 0 0 1-.91 4.83c-.3 0-.61-.05-.9-.16zm6.67-12.34a2.5 2.5 0 0 1-.14-3.54 2.52 2.52 0 0 1 3.55-.14 2.49 2.49 0 0 1 .15 3.53 2.53 2.53 0 0 1-3.56.15zm406.43-1.32a2.5 2.5 0 0 1 1.37-3.27 2.53 2.53 0 0 1 3.28 1.36 2.5 2.5 0 0 1-1.37 3.27c-.32.12-.64.18-.96.18a2.5 2.5 0 0 1-2.32-1.54zm-396.5-8.73a2.5 2.5 0 0 1 0-3.54 2.53 2.53 0 0 1 3.56.01c.98.98.98 2.57-.01 3.54a2.52 2.52 0 0 1-3.55 0zm391.1-4.3a2.5 2.5 0 0 1 4.65-1.9 2.49 2.49 0 0 1-1.36 3.27 2.51 2.51 0 0 1-3.3-1.36zm-381.07-5.64a2.49 2.49 0 0 1 0-3.54 2.53 2.53 0 0 1 3.56.01 2.5 2.5 0 0 1 0 3.54 2.6 2.6 0 0 1-1.79.73c-.64 0-1.29-.25-1.77-.74zm375.7-7.38a2.49 2.49 0 0 1 1.36-3.26 2.53 2.53 0 0 1 3.28 1.36 2.51 2.51 0 0 1-1.37 3.27 2.5 2.5 0 0 1-3.28-1.37zm-365.68-2.56a2.49 2.49 0 0 1 .01-3.53 2.52 2.52 0 0 1 3.55 0 2.5 2.5 0 0 1 0 3.54 2.52 2.52 0 0 1-3.56-.01zm10.03-9.95a2.49 2.49 0 0 1 0-3.53 2.53 2.53 0 0 1 3.56 0 2.5 2.5 0 0 1 0 3.54 2.52 2.52 0 0 1-3.55 0zm10.03-9.93a2.5 2.5 0 0 1 0-3.54 2.52 2.52 0 0 1 3.56.01c.98.97.98 2.56 0 3.53a2.52 2.52 0 0 1-3.56 0zm10.03-9.94a2.49 2.49 0 0 1 0-3.54 2.52 2.52 0 0 1 3.56 0 2.5 2.5 0 0 1 0 3.54 2.53 2.53 0 0 1-3.56 0zm10.03-9.95a2.49 2.49 0 0 1 0-3.54 2.53 2.53 0 0 1 3.56.01 2.5 2.5 0 0 1-.01 3.54 2.53 2.53 0 0 1-3.55-.01zm10.02-9.94a2.49 2.49 0 0 1 .01-3.53 2.52 2.52 0 0 1 3.55 0c.99.98.99 2.56 0 3.54a2.52 2.52 0 0 1-3.56 0zm10.03-9.94a2.51 2.51 0 0 1 3.56-3.53c.99.98.98 2.56 0 3.54a2.51 2.51 0 0 1-3.55 0zm10.03-9.94a2.49 2.49 0 0 1 0-3.54 2.53 2.53 0 0 1 3.56.01 2.49 2.49 0 0 1-1.78 4.26c-.65 0-1.3-.24-1.78-.73zm10.02-9.94a2.5 2.5 0 0 1 .02-3.54 2.52 2.52 0 0 1 3.55 0 2.5 2.5 0 0 1 0 3.54 2.52 2.52 0 0 1-3.56 0zm10.04-9.94a2.5 2.5 0 0 1 0-3.55 2.53 2.53 0 0 1 3.56.01c.98.99.98 2.57-.01 3.54a2.48 2.48 0 0 1-3.55 0zm10.02-9.95a2.48 2.48 0 0 1 0-3.53 2.52 2.52 0 0 1 3.56 0c.99.98.99 2.56 0 3.54a2.53 2.53 0 0 1-3.56 0zm10.03-9.94a2.51 2.51 0 0 1 3.56-3.53c.99.98.98 2.57 0 3.54a2.53 2.53 0 0 1-3.55 0zm10.03-9.94a2.5 2.5 0 0 1 0-3.54 2.53 2.53 0 0 1 3.56.01 2.5 2.5 0 0 1-1.78 4.26c-.64 0-1.29-.24-1.78-.73zm10.02-9.94a2.5 2.5 0 0 1 .01-3.54 2.52 2.52 0 0 1 3.55.01c1 .97 1 2.56 0 3.53a2.52 2.52 0 0 1-3.56 0zm10.04-9.94a2.49 2.49 0 0 1 0-3.54 2.52 2.52 0 0 1 3.56 0 2.5 2.5 0 0 1-.01 3.54 2.51 2.51 0 0 1-3.55 0zm10.03-9.95a2.48 2.48 0 0 1 0-3.53 2.53 2.53 0 0 1 3.56 0 2.5 2.5 0 0 1-.01 3.54 2.5 2.5 0 0 1-3.55 0zm10.02-9.94a2.49 2.49 0 0 1 0-3.53 2.52 2.52 0 0 1 3.56 0 2.5 2.5 0 0 1 0 3.54 2.52 2.52 0 0 1-3.56 0zm135.06-7.86a2.5 2.5 0 0 1 1.37-3.27 2.52 2.52 0 0 1 3.28 1.36 2.5 2.5 0 0 1-1.37 3.27 2.53 2.53 0 0 1-3.28-1.36zm-125.03-2.07a2.49 2.49 0 0 1 .01-3.54 2.52 2.52 0 0 1 3.55 0c.99.98.98 2.57 0 3.54a2.52 2.52 0 0 1-3.55 0zm10.03-9.95a2.49 2.49 0 0 1 0-3.54 2.53 2.53 0 0 1 3.56.01 2.49 2.49 0 0 1-1.79 4.26c-.64 0-1.28-.24-1.77-.73zm109.6-1a2.5 2.5 0 0 1 1.37-3.27 2.5 2.5 0 1 1 1.92 4.62 2.52 2.52 0 0 1-3.29-1.36zm-99.58-8.94a2.5 2.5 0 0 1 .01-3.54 2.52 2.52 0 0 1 3.56 0 2.5 2.5 0 1 1-3.57 3.54zm94.2-4.08a2.52 2.52 0 0 1 4.66-1.91 2.5 2.5 0 0 1-1.38 3.27 2.54 2.54 0 0 1-3.3-1.36zm-84.16-5.87a2.49 2.49 0 0 1 0-3.53 2.53 2.53 0 0 1 3.56 0 2.5 2.5 0 0 1-1.78 4.27c-.65 0-1.3-.24-1.78-.74zm78.78-7.13a2.5 2.5 0 0 1 1.33-3.28 2.52 2.52 0 0 1 3.3 1.32 2.5 2.5 0 0 1-1.33 3.28 2.51 2.51 0 0 1-3.3-1.32zm-68.76-2.8a2.49 2.49 0 0 1 0-3.54 2.52 2.52 0 0 1 3.56 0c.99.98.99 2.56 0 3.54a2.52 2.52 0 0 1-3.56 0zm61.46-8.05a2.5 2.5 0 0 1 .02-3.54 2.53 2.53 0 0 1 3.57.02 2.5 2.5 0 0 1-.02 3.54 2.53 2.53 0 0 1-3.56-.02zm-51.48-1.95a2.5 2.5 0 0 1 .23-3.53 2.51 2.51 0 0 1 3.54.23 2.49 2.49 0 0 1-.22 3.52 2.51 2.51 0 0 1-3.55-.22zm40.65-5.42a2.5 2.5 0 0 1-1.3-3.3 2.5 2.5 0 0 1 3.31-1.29 2.5 2.5 0 0 1-1 4.8 2.6 2.6 0 0 1-1.01-.21zm-29.01-2.5a2.51 2.51 0 0 1 4.74-1.68 2.5 2.5 0 0 1-1.52 3.2h-.01a2.53 2.53 0 0 1-3.2-1.52zm16.19-.43a2.5 2.5 0 0 1-2.42-2.59 2.51 2.51 0 0 1 2.62-2.4 2.5 2.5 0 0 1 2.42 2.6 2.5 2.5 0 0 1-2.52 2.4h-.1zM714.8 726.75a2.56 2.56 0 0 1-2.32-1.54 2.5 2.5 0 0 1 .23-2.35c.09-.13.2-.26.31-.38.12-.1.24-.22.38-.3s.29-.18.44-.24a2.63 2.63 0 0 1 1.92 0 2.35 2.35 0 0 1 .82.54c.11.12.22.25.31.38a2.52 2.52 0 0 1 0 2.78c-.09.15-.2.26-.3.38-.13.11-.26.23-.39.32a3.07 3.07 0 0 1-.9.37c-.17.02-.34.04-.5.04zm10.58-6.89a2.52 2.52 0 0 1 4.65-1.92 2.5 2.5 0 0 1-1.36 3.27 2.52 2.52 0 0 1-3.3-1.35zm12.9-5.35a2.52 2.52 0 0 1 4.65-1.92 2.5 2.5 0 0 1-2.33 3.46 2.5 2.5 0 0 1-2.32-1.54zm12.9-5.35a2.52 2.52 0 0 1 4.65-1.92 2.49 2.49 0 0 1-1.35 3.26 2.52 2.52 0 0 1-3.3-1.34zm12.9-5.35a2.52 2.52 0 0 1 4.65-1.92 2.5 2.5 0 0 1-1.36 3.27 2.53 2.53 0 0 1-3.3-1.35zm12.9-5.35a2.5 2.5 0 0 1 1.35-3.28 2.52 2.52 0 0 1 3.3 1.35 2.49 2.49 0 0 1-1.35 3.27 2.52 2.52 0 0 1-3.3-1.34zm12.9-5.36a2.5 2.5 0 0 1 1.35-3.27 2.5 2.5 0 1 1 1.94 4.61 2.51 2.51 0 0 1-3.29-1.34zm12.9-5.35a2.5 2.5 0 0 1 1.35-3.27 2.5 2.5 0 1 1 1.94 4.61 2.52 2.52 0 0 1-3.29-1.34zm12.9-5.35a2.51 2.51 0 0 1 4.64-1.92 2.48 2.48 0 0 1-1.35 3.26 2.52 2.52 0 0 1-3.3-1.34zm12.9-5.35a2.5 2.5 0 0 1 1.36-3.27 2.53 2.53 0 0 1 3.29 1.34 2.5 2.5 0 0 1-1.36 3.27 2.52 2.52 0 0 1-3.29-1.34zm12.9-5.35a2.51 2.51 0 0 1 4.64-1.93 2.48 2.48 0 0 1-1.35 3.27 2.52 2.52 0 0 1-3.29-1.34zm12.9-5.36a2.52 2.52 0 0 1 4.65-1.93 2.53 2.53 0 0 1-2.32 3.47c-1 0-1.93-.58-2.33-1.54zm12.9-5.35a2.5 2.5 0 0 1 1.36-3.27 2.53 2.53 0 0 1 3.29 1.34 2.5 2.5 0 0 1-1.36 3.27 2.54 2.54 0 0 1-3.29-1.34zm12.9-5.35a2.51 2.51 0 0 1 4.64-1.93 2.5 2.5 0 0 1-1.34 3.27 2.51 2.51 0 0 1-3.29-1.34zm12.76-5.68a2.52 2.52 0 0 1 4.1-2.9 2.5 2.5 0 0 1-.6 3.5 2.56 2.56 0 0 1-3.5-.6zm10.31-9.3a2.5 2.5 0 0 1-.72-3.47 2.53 2.53 0 0 1 3.48-.72 2.5 2.5 0 0 1 .73 3.46 2.53 2.53 0 0 1-2.11 1.13 2.5 2.5 0 0 1-1.38-.4zm6.2-12.4a2.51 2.51 0 0 1-1.93-2.97 2.52 2.52 0 0 1 2.98-1.92 2.5 2.5 0 0 1-.52 4.94c-.17 0-.35-.02-.52-.05zm-1.64-15.85a2.51 2.51 0 0 1 4.97-.83 2.51 2.51 0 0 1-2.07 2.89l-.42.03c-1.2 0-2.27-.87-2.48-2.09zm-4.26-12.61a2.5 2.5 0 0 1 1.37-3.26 2.5 2.5 0 1 1 1.91 4.62 2.52 2.52 0 0 1-3.28-1.36zm-5.31-12.85a2.5 2.5 0 0 1 1.37-3.27 2.5 2.5 0 1 1 1.91 4.63 2.5 2.5 0 0 1-3.28-1.36zm-232.16-10.49a2.5 2.5 0 0 1 1.36-3.27 2.5 2.5 0 1 1 1.94 4.61 2.53 2.53 0 0 1-3.3-1.34zm226.84-2.36a2.5 2.5 0 0 1 1.37-3.27 2.52 2.52 0 0 1 3.28 1.37 2.49 2.49 0 0 1-1.37 3.26 2.51 2.51 0 0 1-3.28-1.36zm-213.93-3a2.49 2.49 0 0 1 1.35-3.26 2.5 2.5 0 1 1 1.94 4.61 2.51 2.51 0 0 1-3.29-1.34zm12.9-5.34a2.5 2.5 0 0 1 1.35-3.28 2.51 2.51 0 1 1 1.94 4.62 2.52 2.52 0 0 1-3.3-1.35zm195.7-4.52a2.5 2.5 0 0 1 1.37-3.26 2.5 2.5 0 1 1 1.92 4.62 2.51 2.51 0 0 1-3.3-1.36zm-182.8-.84a2.5 2.5 0 0 1 1.35-3.27 2.52 2.52 0 0 1 3.29 1.34 2.49 2.49 0 0 1-1.35 3.27 2.52 2.52 0 0 1-3.3-1.34zm12.9-5.35a2.52 2.52 0 0 1 4.65-1.93 2.53 2.53 0 0 1-2.33 3.47c-.98 0-1.92-.58-2.32-1.54zm12.9-5.35a2.52 2.52 0 0 1 4.65-1.93 2.52 2.52 0 0 1-2.32 3.46 2.5 2.5 0 0 1-2.33-1.53zm151.7-1.31a2.5 2.5 0 0 1 1.35-3.26 2.5 2.5 0 1 1 1.92 4.62 2.49 2.49 0 0 1-3.28-1.36zm-138.8-4.04a2.52 2.52 0 0 1 4.65-1.93 2.54 2.54 0 0 1-2.32 3.47c-1 0-1.93-.58-2.33-1.54zm12.9-5.35a2.52 2.52 0 0 1 4.65-1.93 2.5 2.5 0 0 1-2.33 3.46 2.5 2.5 0 0 1-2.32-1.53zm120.57-3.46a2.5 2.5 0 0 1 1.37-3.27 2.53 2.53 0 0 1 3.28 1.36 2.5 2.5 0 0 1-1.37 3.28 2.52 2.52 0 0 1-3.28-1.36zm-107.67-1.9a2.52 2.52 0 0 1 4.65-1.93 2.5 2.5 0 0 1-1.36 3.27 2.53 2.53 0 0 1-3.29-1.34zm12.9-5.36a2.51 2.51 0 0 1 4.64-1.92 2.5 2.5 0 0 1-1.34 3.27 2.5 2.5 0 0 1-3.3-1.35zm88.88-4.68a2.51 2.51 0 0 1 4.1-2.88 2.5 2.5 0 0 1-2.05 3.94c-.78 0-1.56-.37-2.05-1.06zm-75.98-.66a2.51 2.51 0 0 1 4.64-1.93 2.5 2.5 0 0 1-1.34 3.27 2.5 2.5 0 0 1-3.3-1.34zm12.9-5.35a2.51 2.51 0 0 1 1.35-3.28 2.53 2.53 0 0 1 3.3 1.35 2.5 2.5 0 0 1-1.36 3.27 2.51 2.51 0 0 1-3.29-1.34zm53.76-2.95a2.49 2.49 0 0 1-.7-3.46 2.52 2.52 0 0 1 3.47-.71 2.5 2.5 0 0 1-1.39 4.58 2.5 2.5 0 0 1-1.38-.41zm-40.86-2.41a2.5 2.5 0 0 1 1.35-3.28 2.54 2.54 0 0 1 3.3 1.35 2.5 2.5 0 0 1-2.32 3.46c-.99 0-1.92-.57-2.33-1.53zm28.9-2.58a2.5 2.5 0 0 1-1.93-2.97 2.52 2.52 0 0 1 2.99-1.92 2.5 2.5 0 0 1 1.93 2.97 2.52 2.52 0 0 1-2.45 1.98c-.19 0-.36-.01-.54-.06zm-15.85-2.38a2.51 2.51 0 0 1 4.97-.81 2.5 2.5 0 0 1-2.07 2.88c-.14.02-.28.04-.41.04-1.2 0-2.28-.88-2.49-2.1zM252.3 122.17a144.83 144.83 0 0 1 28.01-7.8 58.2 58.2 0 0 0-2.55-34.59c-12.02-30.52-46.98-45.46-78.1-33.35-31.1 12.1-46.6 46.67-34.58 77.2a59.05 59.05 0 0 0 35.19 33.94c12.9-14.56 30.72-27.1 52.04-35.4z"/><path fill="#2E9AFF" d="m1004.71 632.4-215.45 88.97-47.8-114.41L353.03 994.6l469.39-193.85 215.46-88.97z"/><path fill="#FFF" d="M353.03 997.1a2.5 2.5 0 0 1-1.78-4.27L739.67 605.2a2.53 2.53 0 0 1 4.11.8l46.84 112.11 213.13-88a2.52 2.52 0 0 1 3.29 1.34l33.16 79.38a2.49 2.49 0 0 1-1.36 3.26L823.4 803.05 354 996.91c-.3.13-.63.19-.96.19zm387.55-385.72-376.86 376.1 457.74-189.04 213.13-88.02-31.23-74.75-213.14 88.01a2.52 2.52 0 0 1-3.28-1.35l-46.36-110.95z"/><g fill="#FFF"><path d="m1071.04 791.15-33.16-79.37-215.46 88.97L353.03 994.6l550.36-.07-47.8-114.41z"/><path d="M353.03 997.1a2.5 2.5 0 0 1-.96-4.81l469.39-193.86 215.45-88.96a2.52 2.52 0 0 1 3.3 1.35l33.15 79.37a2.49 2.49 0 0 1-1.35 3.27l-213.14 88.01 46.84 112.1a2.52 2.52 0 0 1-2.32 3.46l-550.36.07zm683.49-282.06-213.13 88.02-457.74 189.03 533.97-.06-46.36-110.95a2.49 2.49 0 0 1 1.36-3.27l213.13-88.01-31.23-74.76z"/></g><path fill="#FFF" d="M206.22 786.03c-8.57-4.92-21.03.58-27.82 12.28-3.16 5.43-4.51 11.24-4.23 16.4l-16.9 25.36-33.38-24.38a13.37 13.37 0 0 0-19.45 3.66l-7.01 11.18 46.85 34.65a22.3 22.3 0 0 0 19.49 4.9 22.66 22.66 0 0 0 14-9.84l21.67-33.5a31 31 0 0 0 10-10.61c6.8-11.7 5.35-25.18-3.22-30.1zM122.84 949.4l139.66.22c.54 0 1.04-.27 1.35-.72l21.4-31.2s.88-1.2 2.8-1.16a4 4 0 0 1 3.91 4.06l-.17 23.48-.25 33.5-.4 10.55c-.02 2.23-1.7 4.48-3.87 4.47h-24.95l-136.12-.35m-20.45-177.53-21.62 3.91-4.16-24.04 21.62-3.91z"/><path fill="#FFF" d="M117.43 754.72c-.43.07-.85.18-1.25.3-6.22-12.93-20.24-20.66-34.81-18.03-14.57 2.64-25.14 14.82-26.64 29.14a11.5 11.5 0 0 0-10.41 13.51A11.3 11.3 0 0 0 57.39 789c.93-.17 1.82-.46 2.65-.83 6.95 10.59 19.58 16.57 32.65 14.2 13.08-2.36 22.93-12.41 25.9-24.8.9.07 1.83.03 2.77-.14a11.5 11.5 0 0 0 9.14-13.36 11.3 11.3 0 0 0-13.07-9.34z"/><path d="M78.14 772.57a4.38 4.38 0 0 1-3.35 5.17 4.29 4.29 0 0 1-5.05-3.42 4.38 4.38 0 0 1 3.34-5.16 4.29 4.29 0 0 1 5.06 3.41zm30.02-7.04a4.38 4.38 0 0 1-3.35 5.17c-2.32.48-4.58-1.05-5.05-3.42s1.02-4.68 3.34-5.17a4.29 4.29 0 0 1 5.06 3.42z"/><path fill="#FFF" d="m144.35 893.2-11.3 24.18c2.37 3.24 36.32 17.7 36.4 17.73l10.93-24.97 18.97 54.57 1.12 22.96a4.1 4.1 0 0 0 4.06 4.16l10.78-.01 30.83-.02 23.63-.02a4.1 4.1 0 0 0 4.06-4.14c0-1.15-.45-2.18-1.18-2.93l-32.44-22.99-24.69-70.27a37.6 37.6 0 0 0-12.65-17.46l-.77-.59a36.22 36.22 0 0 0-45.3 1.02c-4.21 3.5-7.61 7.92-12.45 18.79z"/><path d="M179.38 992.6h-58.24l-4.84-44.74h63.08z"/><path fill="#2E9AFF" d="M88.14 791.68a15 15 0 0 1-7.23-1.73 2 2 0 0 1-.7-2.74 2.02 2.02 0 0 1 2.74-.7c.27.15 6.04 3.32 13.37-1.48a2.02 2.02 0 0 1 2.79.57 2 2 0 0 1-.57 2.77 18.77 18.77 0 0 1-10.4 3.3z"/><path d="M91.17 778.93a2 2 0 0 1-1.97-1.64l-1.5-7.93a2 2 0 0 1 1.62-2.34 2 2 0 0 1 2.34 1.6l1.5 7.94a2 2 0 0 1-1.99 2.37zm47.08 139.82-1.75-10.1-1.98-11.43-6.24-38.26a24.58 24.58 0 0 0 5.67-15.77c0-5.11-3.55-10.22-11.85-20.14 0 0-7.5-10.7-14.98-9.44l-19.73 3.57c-29.41 5.32-25.6 27.34-23.86 37.4l9.32 53.8 5.83 31.56 4.03 20.37c3.14 19.05 19.53 32.82 38.43 32.27h.54c16.67-.23 30.7-10.85 36.78-26.72l11.79-30.83-32-16.28z"/><ellipse cx="54.28" cy="740" rx="12.74" ry="13.02"/><ellipse cx="106.83" cy="729.58" rx="12.74" ry="13.02"/><path d="m81.37 737-.32.06c-.58.1-1.15.24-1.72.38-13.5 3.35-23.15 15.02-24.6 28.64l.95.02c13.2 0 29.52-10.25 30.85-23.39 4.05 8.94 10.9 13.9 17.72 15.14 4.22.76 8.31-1.08 11.85-2.98-6.25-12.84-20.21-20.5-34.73-17.88z"/><path fill="#FFF" d="M37.2 977.45h-.04l19.3-140.34a13.78 13.78 0 0 1 15.26-11.94c7.64.95 13.02 8.13 11.93 15.92L64.38 981.5a11.58 11.58 0 0 1-11.45 11.09H4.35c-2.65 0-4.8-2.2-4.8-4.9a4.87 4.87 0 0 1 4-4.84l33.64-5.4z"/><g fill="#FFF"><path d="m275.51 996.57-124.18 78.94-137-78.94H275.5m13.77-4zm0 0H-.44l151.87 87.63 137.85-87.63z"/><path d="m203.03 996.57-55.26 35.13-60.96-35.13h116.22m13.77-4zm0 0H71.84l76.03 43.81 68.93-43.81z"/></g><path fill="#FFF" d="M832.9 188.48a32.28 32.28 0 0 0-31.95-37.33c-2.32 0-4.56.25-6.74.7a44.71 44.71 0 0 0-40.29-25.2 44.7 44.7 0 0 0-40.83 26.39 32.48 32.48 0 0 0-10.93-1.89 32.28 32.28 0 0 0-31.95 37.33h162.68zm111.28 123.19a17.3 17.3 0 0 0-20.74-19.64 23.97 23.97 0 0 0-21.6-13.51 23.96 23.96 0 0 0-21.9 14.14 17.42 17.42 0 0 0-5.86-1 17.3 17.3 0 0 0-17.13 20h87.23zM167.98 36.82c-.51 0-1.03-.2-1.42-.59l-32.2-32.01a2 2 0 1 1 2.85-2.83l32.2 32.01a2 2 0 0 1-1.43 3.42zm59.48-13.01h-.09a2 2 0 0 1-1.92-2.08l.84-19.62a2.04 2.04 0 0 1 2.1-1.91 2 2 0 0 1 1.92 2.08l-.84 19.62a2 2 0 0 1-2.01 1.91zM139.5 73.06c-.12 0-.24 0-.36-.03L84.01 62.76a2 2 0 1 1 .74-3.94l55.11 10.28a2 2 0 0 1-.36 3.97zm156.3 2.93a2 2 0 0 1-.21-3.99l56.06-6a2 2 0 1 1 .43 3.98l-56.07 6-.22.01zM86.17 139.63a2 2 0 0 1-.8-3.84l51.56-21.94c1.02-.44 2.2.03 2.64 1.05s-.03 2.19-1.06 2.62l-51.54 21.95c-.26.11-.53.16-.8.16zM273.15 41.5a2 2 0 0 1-1.28-3.55l43.28-35.44c.86-.7 2.13-.58 2.83.27a2 2 0 0 1-.27 2.82l-43.28 35.45c-.38.3-.83.46-1.28.46zM123.27 190.48a2 2 0 0 1-1.28-3.55l35.85-29.35c.85-.7 2.12-.58 2.83.27a2 2 0 0 1-.27 2.82l-35.85 29.36c-.37.3-.83.45-1.28.45zM903.2 996.93c-1.35 0-2.47-1-2.57-2.32a2.53 2.53 0 0 1 2.38-2.67l.18-.02c7.2-.49 14.63-1 20.71-5.43a104 104 0 0 0 5.86-4.72c3.99-3.37 8.1-6.86 13.1-8.92 14.75-6.05 31.62-3.73 46.3 6.37 8.16 5.62 15.66 8.64 22.29 8.96 4.9.22 9.72-1.72 16.1-6.54 11.74-8.88 27.82-10.71 44.1-5.04 1.34.47 2.03 1.9 1.56 3.2s-1.96 1.98-3.3 1.51c-14.59-5.09-28.88-3.53-39.2 4.28-5.25 3.96-11.69 7.94-19.52 7.58-7.61-.37-16.03-3.7-25-9.87-13.2-9.08-28.25-11.21-41.32-5.84-4.25 1.74-7.89 4.82-11.73 8.08-1.96 1.66-4 3.37-6.16 4.95-7.3 5.31-15.86 5.9-23.43 6.42l-.17.01-.19.01z"/></svg>