<svg xmlns="http://www.w3.org/2000/svg" width="1329.75" height="844.51" xml:space="preserve"><path fill="#FFF" d="m6.56 318.02 387.7-318L801.3 496.28l-387.7 318z"/><path fill="#FF8630" d="m2.8 343.68 387.65-318 407.05 496.2-387.65 318z"/><path fill="#FFF" d="m409.6 842.72-1.28-1.55L0 343.4l1.55-1.26L390.77 22.86l1.27 1.54 408.32 497.77-1.55 1.27L409.6 842.72zM5.62 343.96l404.52 493.13 384.58-315.48L390.2 28.5 5.63 343.96z"/><circle cx="279.15" cy="661.93" r="81.11"/><path fill="#FFF" d="M261.38 642.8c-.02 12.76-3.8 23.1-8.42 23.09-4.62 0-8.35-10.36-8.32-23.12.02-12.76 3.79-23.1 8.41-23.09 4.63.01 8.35 10.36 8.33 23.12zm52.36.1c-.03 12.76-3.8 23.1-8.42 23.09-4.62 0-8.35-10.36-8.33-23.12.03-12.76 3.8-23.1 8.42-23.09 4.62.01 8.35 10.36 8.33 23.12zm-64.41 63.07a1.9 1.9 0 0 1-1.7-2.72 36.27 36.27 0 0 1 32.52-20.46h.06a35.9 35.9 0 0 1 32.17 19.89 1.9 1.9 0 1 1-3.4 1.7 32.13 32.13 0 0 0-28.78-17.8h-.05a32.45 32.45 0 0 0-29.1 18.32 1.9 1.9 0 0 1-1.72 1.07z"/><path d="m557.48 348.85 2.54 3.1L292.26 571.7l-2.54-3.1zm14.47 17.65 2.54 3.09-267.76 219.75-2.54-3.1zm42.81 132.86 2.54 3.09-191.15 156.87-2.54-3.09zm14.46 17.63 2.54 3.1L440.6 676.95l-2.54-3.1zm-42.8-132.85 2.54 3.09L321.2 606.98l-2.54-3.1zm14.48 17.63 2.53 3.1L335.67 624.6l-2.53-3.09zM339.08 254.55c-.67 0-1.36-.14-2.02-.42a33.75 33.75 0 0 1-17.48-44.35l27.76-63.86a5.09 5.09 0 1 1 9.33 4.06l-27.76 63.86a23.56 23.56 0 0 0 12.2 30.95 5.09 5.09 0 0 1-2.03 9.76z"/><path d="M344.78 169.66c-.68 0-1.37-.13-2.03-.42L326.13 162a5.09 5.09 0 1 1 4.06-9.33l16.62 7.23a5.09 5.09 0 0 1-2.03 9.75zm-7.98 18.37a5 5 0 0 1-2.03-.42l-16.62-7.23a5.09 5.09 0 1 1 4.05-9.33l16.62 7.23a5.09 5.09 0 0 1-2.03 9.75zm-8 18.37c-.67 0-1.36-.13-2.02-.42l-16.62-7.22a5.09 5.09 0 1 1 4.06-9.34l16.62 7.23a5.09 5.09 0 0 1-2.03 9.75zm22.5 50.89c-4.48 0-9.03-.9-13.4-2.8a5.09 5.09 0 1 1 4.07-9.33 23.37 23.37 0 0 0 18 .32 23.37 23.37 0 0 0 12.95-12.52l27.76-63.85a5.09 5.09 0 1 1 9.33 4.05l-27.76 63.86a33.75 33.75 0 0 1-30.95 20.27z"/><path d="M414.74 200.07c-.68 0-1.37-.14-2.03-.43l-16.62-7.22a5.09 5.09 0 0 1 4.06-9.33l16.62 7.22a5.09 5.09 0 0 1-2.03 9.76zm-7.99 18.37c-.67 0-1.36-.14-2.02-.43l-16.62-7.22a5.09 5.09 0 1 1 4.05-9.33l16.62 7.22a5.09 5.09 0 0 1-2.03 9.76zm-7.98 18.36c-.68 0-1.37-.13-2.03-.41l-16.62-7.23a5.09 5.09 0 1 1 4.06-9.33l16.62 7.22a5.09 5.09 0 0 1-2.03 9.76zM259.3 305.29c-.68 0-1.37-.14-2.03-.43a33.48 33.48 0 0 1-17.92-18.55 33.48 33.48 0 0 1 .44-25.79L257.41 220a5.09 5.09 0 1 1 9.33 4.06l-17.61 40.53c-2.51 5.76-2.62 12.15-.32 18s6.75 10.45 12.51 12.95a5.09 5.09 0 0 1-2.02 9.76zm109.33 44.95c-4.48 0-9.02-.9-13.38-2.8a5.09 5.09 0 1 1 4.05-9.32 23.56 23.56 0 0 0 30.96-12.2l17.62-40.54a5.1 5.1 0 0 1 9.33 4.06l-17.62 40.53a33.76 33.76 0 0 1-30.96 20.27zm-44.26 145.13a5.09 5.09 0 0 1-4.66-7.12l27.75-63.85a23.37 23.37 0 0 0 .3-18 23.37 23.37 0 0 0-12.5-12.96 5.09 5.09 0 1 1 4.05-9.33c8.26 3.59 14.62 10.18 17.92 18.55s3.15 17.54-.44 25.8l-27.76 63.85a5.09 5.09 0 0 1-4.66 3.06zM173.9 429.98a5.09 5.09 0 0 1-4.66-7.12L196.99 359a33.74 33.74 0 0 1 44.35-17.47 5.09 5.09 0 1 1-4.06 9.33 23.55 23.55 0 0 0-30.96 12.2l-27.75 63.86a5.09 5.09 0 0 1-4.67 3.06zm86.5-97.88c-.68 0-1.37-.13-2.03-.42l-36.97-16.06a5.09 5.09 0 1 1 4.05-9.33l36.97 16.06a5.09 5.09 0 0 1-2.03 9.76zm113.48 49.34c-.67 0-1.36-.14-2.02-.43l-36.97-16.07a5.09 5.09 0 1 1 4.05-9.33l36.98 16.07a5.09 5.09 0 0 1-2.04 9.75zm-14.65-117.36a23.83 23.83 0 0 0-43.72-19l-.14.35h-.01l-10.31 23.72 43.72 19 10.3-23.72.16-.35z"/><path d="m349.8 290.78-47.38-20.6 12.03-27.7.07.05a25.84 25.84 0 0 1 47.13 20.85l.04.02-.45 1.04a39.84 39.84 0 0 1-.24.56l-.1.23-11.1 25.55zm-42.12-22.67 40.05 17.4 8.72-20.06-.04-.02.98-2.14c2.33-5.36 2.43-11.29.29-16.72s-6.26-9.7-11.61-12.02a21.84 21.84 0 0 0-28.73 11.32l-1.05 2.5h-.03l-8.58 19.74z"/><path fill="#FF8630" d="M363.75 298.53a15.66 15.66 0 0 0-8.12-20.6l-47.8-20.77a15.66 15.66 0 0 0-20.6 8.12l-8.93 20.55a15.66 15.66 0 0 0 8.12 20.6l47.79 20.78a15.66 15.66 0 0 0 20.6-8.12l8.94-20.56z"/><path fill="#FFF" d="M340.45 330.51c-2.43 0-4.8-.5-7.04-1.47l-47.79-20.77a17.68 17.68 0 0 1-9.16-23.24l8.94-20.55a17.66 17.66 0 0 1 23.23-9.16l47.8 20.77a17.68 17.68 0 0 1 9.15 23.24l-8.93 20.56a17.67 17.67 0 0 1-16.2 10.62zm-38.85-72.66a13.67 13.67 0 0 0-12.54 8.22l-8.93 20.56c-3 6.9.18 14.97 7.09 17.97L335 325.38a13.67 13.67 0 0 0 17.98-7.09l8.93-20.55c3-6.91-.18-14.97-7.09-17.98l-47.79-20.77a13.59 13.59 0 0 0-5.44-1.14z"/><path fill="#FF8630" d="M261.33 295.53 215.2 401.67c-8.26 19 .45 41.1 19.45 49.37l29.16 12.67c19 8.26 41.1-.45 49.36-19.46l46.13-106.13"/><path fill="#FFF" d="M278.75 468.84c-5.35 0-10.69-1.1-15.74-3.3l-29.16-12.67a39.26 39.26 0 0 1-21.01-21.75 39.26 39.26 0 0 1 .52-30.25l46.13-106.14 3.67 1.6-46.13 106.14c-3.78 8.7-3.95 18.35-.47 27.18s10.19 15.77 18.89 19.55l29.15 12.68a35.29 35.29 0 0 0 27.19.47 35.28 35.28 0 0 0 19.55-18.9l46.13-106.13 3.67 1.6L315 445.04a39.26 39.26 0 0 1-21.76 21.02 39.54 39.54 0 0 1-14.5 2.77z"/><path fill="#FFF" d="m308.9 316.2 3.67 1.6-61.15 140.77-3.67-1.6z"/><path d="M359.68 337.24a18.45 18.45 0 0 0-9.57-24.28l-63.26-27.5-2.65-1.04a18.46 18.46 0 0 0-22.5 10.24l97.98 42.58z"/><path d="M360.72 339.87 259.07 295.7l.8-1.84a20.46 20.46 0 0 1 24.94-11.35l.12.05 2.65 1.04 63.33 27.52a20.32 20.32 0 0 1 10.88 11.26c2 5.09 1.9 10.65-.27 15.66l-.8 1.83zm-96.27-46.2 94.08 40.9c1.05-3.52.9-7.26-.46-10.72a16.36 16.36 0 0 0-8.76-9.06l-63.26-27.5-2.52-.99a16.46 16.46 0 0 0-19.09 7.37z"/><path d="m389.53 613.58 2.62-2.15 6.58 9.9-1.7 1.4-7.5-9.15zm6.22-5.1 2.62-2.16 6.58 9.91-1.7 1.4-7.5-9.15zm24.41 11.54-1.72-26.42-11.92 9.78-1.84-2.23 14.8-12.14 1.86 2.27 1.66 26.47 11.98-9.84 1.84 2.24-14.8 12.13-1.86-2.26zm1.1-32.47 4.7-3.86 6.5 7.9.15-.12c.04-1.21.32-2.36.82-3.43a9.25 9.25 0 0 1 2.6-3.11c.97-.8 1.89-1.38 2.77-1.77a4.68 4.68 0 0 1 2.62-.38 6.2 6.2 0 0 1 2.7 1.24c.94.7 1.97 1.72 3.07 3.06l7.14 8.7-2.39 1.96-6.76-8.25a19.53 19.53 0 0 0-2-2.14 5.13 5.13 0 0 0-1.92-1.13 3.4 3.4 0 0 0-2 0c-.68.18-1.4.6-2.2 1.24a6.8 6.8 0 0 0-2.26 5.67c.07.72.29 1.43.63 2.09l7.88 9.6-2.33 1.9-15.68-19.1-2.38 1.95-1.66-2.02zm33.88-17.69 4.32-3.54 8.44 10.3a29.6 29.6 0 0 0 2.51 2.69l2.02-1.66 1.61 1.96-4.04 3.32-2.2-2.5-.12.1a7.44 7.44 0 0 1-2.8 7.2c-.93.76-1.8 1.3-2.63 1.63-.82.32-1.66.4-2.51.22a6.62 6.62 0 0 1-2.66-1.34 19.42 19.42 0 0 1-2.98-3.02l-5.45-6.65-2.02 1.66-1.66-2.02 4.4-3.62 6.72 8.19c.67.82 1.31 1.53 1.92 2.13.6.6 1.2 1.03 1.8 1.3.59.28 1.2.35 1.81.23a4.7 4.7 0 0 0 2.01-1.06 5.11 5.11 0 0 0 1.87-3.25c.2-1.32.09-2.65-.35-4l-6.42-7.83-1.93 1.59-1.66-2.03zm2.96-12.53 4.89-4.01 10.25 12.5 1.66-1.36.65-11.34 2.84-2.33-.8 12.63 10.35 1.41 1.96-1.61 1.66 2.02-3.11 2.55-12.06-1.52-1.66 1.36 5.6 6.83-2.33 1.9-15.68-19.1-2.56 2.1-1.66-2.03zm23.28-8.99 3.59-2.95-2.45-2.99 1.84-2.62 3 3.65 8.06-6.6 1.66 2.01-8.06 6.62 5.84 7.12c1.2 1.47 2.45 2.27 3.74 2.39 1.3.12 2.6-.37 3.93-1.45.9-.74 1.55-1.56 1.94-2.45s.69-1.77.9-2.61l2.24 1.14a11.64 11.64 0 0 1-3.99 6.4 9.5 9.5 0 0 1-2.56 1.52 6.63 6.63 0 0 1-5.59-.32 8.86 8.86 0 0 1-2.7-2.3l-6.14-7.48-3.6 2.94-1.65-2.02zm43.97-14a11.94 11.94 0 0 1-1.56 4.01 15.46 15.46 0 0 1-3.22 3.7c-1.2 1-2.43 1.68-3.66 2.07a7.98 7.98 0 0 1-3.64.3 9.02 9.02 0 0 1-3.46-1.32 13.28 13.28 0 0 1-3.16-2.87 12.96 12.96 0 0 1-2.24-3.81c-.46-1.28-.63-2.52-.51-3.73s.5-2.38 1.17-3.5a12.45 12.45 0 0 1 5.51-4.85c1-.46 2.08-.64 3.22-.55s2.31.54 3.54 1.33c1.23.8 2.49 2.1 3.8 3.89l-11.66 9.56c1.48 1.81 3.08 2.77 4.8 2.86 1.7.1 3.37-.52 5-1.85.54-.45 1.02-.95 1.44-1.52s.8-1.14 1.14-1.72a9.82 9.82 0 0 0 1.15-2.96l2.34.96zm-15.84-6.35c-.66.54-1.23 1.13-1.7 1.75s-.81 1.3-1 2c-.17.7-.19 1.44-.04 2.2.15.78.5 1.59 1.07 2.44l9.35-7.68a6 6 0 0 0-3.81-2.04 5.26 5.26 0 0 0-3.87 1.33zm20.85-7.51-11.88-2.58 3.02-2.48 9 2.1-.18-9.33 2.72-2.23.12 12.03 12.63 2.77-2.9 2.38-9.88-2.26.18 10.2-2.74 2.26-.1-12.86zm5.37-16.72 3.59-2.95-2.45-3 1.84-2.61 3 3.65 8.06-6.61 1.66 2.02-8.07 6.61 5.85 7.13c1.2 1.47 2.45 2.27 3.74 2.38 1.3.13 2.6-.36 3.92-1.44a6.66 6.66 0 0 0 1.94-2.45c.4-.9.7-1.77.9-2.62l2.25 1.14a11.71 11.71 0 0 1-3.99 6.4 9.49 9.49 0 0 1-2.56 1.53 6.55 6.55 0 0 1-5.59-.32 8.97 8.97 0 0 1-2.7-2.3l-6.14-7.49-3.6 2.95-1.65-2.02zm31.61-4.32 4.74-3.89-13.03-15.88L557 487l-2.6-.75 2.76-10.2 1.7-1.38 15.55 18.96 4.65-3.81 1.78 2.17-11.72 9.61-1.78-2.17zm3.35-34.47 2.62-2.15 6.58 9.9-1.7 1.4-7.5-9.15zm6.22-5.1 2.63-2.15 6.58 9.9-1.7 1.4-7.51-9.15zM462.61 684.2l2.63-2.15 6.58 9.9-1.7 1.4-7.5-9.14zm6.22-5.1 2.63-2.15 6.58 9.9-1.7 1.4-7.5-9.15zm13.17-.7 3.6-2.94-2.46-3 1.84-2.61 3 3.65 8.06-6.61 1.66 2.02-8.06 6.61 5.84 7.13c1.2 1.47 2.45 2.26 3.75 2.38 1.29.13 2.6-.36 3.92-1.44a6.66 6.66 0 0 0 1.94-2.46c.39-.89.7-1.76.9-2.6l2.25 1.13a11.66 11.66 0 0 1-3.99 6.4 9.5 9.5 0 0 1-2.57 1.53 6.62 6.62 0 0 1-5.59-.31 8.85 8.85 0 0 1-2.7-2.31l-6.14-7.49-3.6 2.95-1.65-2.02zm43.98-14c-.1.62-.28 1.28-.54 1.96-.27.7-.6 1.37-1.02 2.05a15.39 15.39 0 0 1-3.23 3.7c-1.2 1-2.43 1.69-3.66 2.08a8 8 0 0 1-3.63.3 9 9 0 0 1-3.47-1.33 13.24 13.24 0 0 1-3.15-2.86 12.95 12.95 0 0 1-2.25-3.81 8.47 8.47 0 0 1-.5-3.73c.11-1.21.5-2.38 1.16-3.5a12.47 12.47 0 0 1 5.52-4.85 6.4 6.4 0 0 1 3.21-.55c1.14.1 2.32.54 3.55 1.33 1.22.8 2.48 2.1 3.79 3.89l-11.66 9.56c1.49 1.8 3.09 2.77 4.8 2.86 1.7.1 3.37-.52 5-1.85a8.6 8.6 0 0 0 1.45-1.52c.42-.57.8-1.14 1.14-1.72a10.15 10.15 0 0 0 1.14-2.96l2.35.96zm-15.85-6.35c-.66.55-1.23 1.13-1.7 1.76a5.04 5.04 0 0 0-1.03 4.2c.14.78.5 1.59 1.06 2.44l9.36-7.68a6 6 0 0 0-3.82-2.04 5.25 5.25 0 0 0-3.87 1.32zm20.85-7.5-11.87-2.58 3.02-2.48 9 2.1-.18-9.33 2.71-2.23.12 12.02 12.63 2.77-2.9 2.38-9.88-2.25.19 10.2-2.75 2.26-.1-12.86zm5.37-16.73 3.6-2.95-2.46-2.98 1.84-2.62 3 3.65 8.06-6.61 1.66 2.02-8.06 6.61 5.84 7.13c1.2 1.47 2.46 2.26 3.75 2.38s2.6-.36 3.92-1.45a6.64 6.64 0 0 0 1.94-2.45c.4-.89.7-1.76.9-2.6l2.25 1.13a11.69 11.69 0 0 1-3.99 6.4 9.5 9.5 0 0 1-2.57 1.53 6.55 6.55 0 0 1-5.58-.32 9 9 0 0 1-2.7-2.3l-6.15-7.49-3.6 2.95-1.65-2.03zm25.41-12 10.32-8.47 1.84 2.23-10.33 8.47-1.83-2.23zm10.82-17.72 3.6-2.95-2.46-2.99 1.84-2.62 3 3.66 8.06-6.62 1.66 2.03-8.06 6.61 5.85 7.13c1.2 1.47 2.45 2.26 3.74 2.38 1.29.12 2.6-.36 3.92-1.45a6.62 6.62 0 0 0 1.94-2.45c.4-.9.7-1.76.9-2.61l2.25 1.14a11.66 11.66 0 0 1-3.99 6.4 9.52 9.52 0 0 1-2.56 1.53c-.9.35-1.83.51-2.77.48a6.63 6.63 0 0 1-2.82-.8 8.85 8.85 0 0 1-2.7-2.3l-6.14-7.5-3.6 2.96-1.66-2.03zm30.14-19.17 9.9 5.92.22-.17-7.47-13.48 2.2-1.8 9.43 17.52-2.69 2.2-9.73-5.95-.1.07 3.82 10.81-2.68 2.2-15.56-12.49 2.33-1.9 12.1 9.76.18-.15-4-10.85 2.05-1.69zm13.07-3.65c-2-2.43-2.94-4.88-2.84-7.34.1-2.46 1.33-4.65 3.69-6.59a10.23 10.23 0 0 1 3.78-2.06 8.3 8.3 0 0 1 7.05 1.2 14.1 14.1 0 0 1 3 2.76c.98 1.2 1.72 2.43 2.2 3.67a8.1 8.1 0 0 1-.39 7.14 10.4 10.4 0 0 1-2.67 3.11c-1.24 1.03-2.5 1.71-3.77 2.06s-2.48.42-3.66.2-2.32-.67-3.4-1.4-2.08-1.64-2.99-2.75zm2.5-2.05c.59.7 1.25 1.34 2 1.9a7.5 7.5 0 0 0 2.38 1.23c.85.25 1.72.3 2.6.13s1.79-.6 2.67-1.32c1.6-1.32 2.4-2.81 2.4-4.47 0-1.67-.8-3.47-2.38-5.4a12.1 12.1 0 0 0-2-1.92 7.23 7.23 0 0 0-2.4-1.2 5.75 5.75 0 0 0-2.62-.12 5.8 5.8 0 0 0-2.66 1.33c-1.6 1.32-2.4 2.8-2.4 4.44.01 1.65.82 3.45 2.42 5.4zm7.37-28.77 2.63-2.16 6.58 9.91-1.7 1.4-7.51-9.15zm6.22-5.1 2.63-2.16 6.58 9.9-1.7 1.4-7.51-9.14zM107.42 398.6a9.47 9.47 0 0 1-5-1.44 11.18 11.18 0 0 1-5.17-8.75c-.48-8.1 6.83-10.82 14.29-12.42-1.89-7.46-5.63-14.72-9.25-21.1-2.28-4.01-8.44-13.3-16.33-12.67-4.24.33-8.6 2.76-11.4 6.34-2.24 2.9-3.18 6.23-2.64 9.4a18.27 18.27 0 0 0 6.3 10.79 2 2 0 1 1-2.5 3.1 22.02 22.02 0 0 1-7.74-13.21c-.74-4.3.48-8.75 3.43-12.53 3.45-4.44 8.9-7.46 14.24-7.88 10.18-.8 17.46 10 20.12 14.69 3.8 6.68 7.71 14.32 9.7 22.3l.67-.11c4.15-.75 8.43-1.53 10.45-2.98 5.07-3.64 4.12-9.64 1.77-13.66a2 2 0 1 1 3.45-2.02c3.46 5.9 3.9 14.06-2.89 18.93-2.75 1.98-7.28 2.8-12.07 3.66l-.58.1c.18 1.16.32 2.31.4 3.47.35 4.64.1 12.8-5.55 15.22-1.2.51-2.45.77-3.7.77zm4.92-18.68c-7.04 1.51-11.38 3.41-11.1 8.25a7.12 7.12 0 0 0 3.29 5.58 5.32 5.32 0 0 0 5.02.4c3.58-1.54 3.3-9 3.14-11.24-.07-1-.19-2-.34-3zM141.88 353a6.05 6.05 0 0 1-5.01-2.73 5.04 5.04 0 0 1-.29-4.94 5.83 5.83 0 0 1 5.35-3.32c1.76 0 3.39.75 4.47 2.07a5.03 5.03 0 0 1 1.13 3.95 6 6 0 0 1-2.61 4.05c-.9.6-1.94.93-3.04.93zm.05-7c-.6 0-1.37.28-1.73 1.04-.19.4-.17.74.05 1.09.47.75 1.7 1.13 2.41.64.5-.33.84-.83.9-1.3.05-.32-.03-.58-.24-.85a1.77 1.77 0 0 0-1.4-.61zm-10.13-3.44c-.42 0-.84-.13-1.2-.4-6.4-4.85-12.96-9.7-19.3-14.41-7.58-5.62-15.4-11.42-23.03-17.25a2 2 0 0 1 2.43-3.18c7.6 5.81 15.42 11.6 22.98 17.22 6.36 4.7 12.92 9.57 19.33 14.43a2 2 0 0 1-1.2 3.6zM848.68 73.2l481.02 141.5-181.13 615.7-481-141.5z" fill="#FFF"/><path fill="#FF8630" d="m825.35 84.56 481.01 141.5-181.12 615.7-481-141.5z"/><path fill="#FFF" d="m1126.74 844.51-2.07-.6-483.11-142.14L823.92 81.9l2.07.6 483.11 142.14-.6 2.07-181.76 617.8zM646.92 698.85l476.9 140.3 179.91-611.58-476.88-140.3-179.93 611.58z"/><circle cx="1233.09" cy="460.27" r="81.11"/><path fill="#FFF" d="M1214.82 441.62c.32 12.76-3.18 23.2-7.8 23.3-4.62.12-8.62-10.13-8.94-22.88-.3-12.76 3.18-23.2 7.8-23.3 4.63-.12 8.63 10.13 8.94 22.88zm52.34-1.28c.32 12.75-3.18 23.19-7.8 23.3-4.62.12-8.62-10.13-8.94-22.9-.3-12.75 3.18-23.18 7.8-23.3 4.63-.1 8.63 10.14 8.94 22.9zm-33.12 64.01a35.9 35.9 0 0 1-31.77-19.04 1.9 1.9 0 0 1 3.34-1.8 32.15 32.15 0 0 0 29.25 17.04 32.45 32.45 0 0 0 28.66-19.08 1.9 1.9 0 0 1 3.47 1.55 36.26 36.26 0 0 1-32.95 21.33z"/><path d="M800.85 448.26 1133.14 546l-1.1 3.72-332.29-97.75zm-6.43 21.89 332.29 97.75-1.1 3.72-332.29-97.75zm9.24 138.37 237.22 69.79-.93 3.14-237.21-69.78zm-6.44 21.88 237.22 69.79-.93 3.14-237.21-69.78zm-9.24-138.37 332.3 97.75-1.1 3.72-332.3-97.75zm-6.44 21.89 332.3 97.75-1.1 3.72-332.3-97.75zm310.96-199.29a5.1 5.1 0 0 1-5-4.14 33.48 33.48 0 0 1 5.25-25.26 33.5 33.5 0 0 1 21.57-14.14l68.4-13a5.1 5.1 0 0 1 1.9 10l-68.4 13a23.38 23.38 0 0 0-15.06 9.87 23.37 23.37 0 0 0-3.67 17.63 5.09 5.09 0 0 1-5 6.04z"/><path d="M1165.87 271.57a5.1 5.1 0 0 1-5-4.14l-3.37-17.8a5.09 5.09 0 1 1 10-1.9l3.37 17.8a5.09 5.09 0 0 1-5 6.04zm-19.68 3.73a5.1 5.1 0 0 1-5-4.14l-3.38-17.8a5.09 5.09 0 1 1 10-1.9l3.38 17.8a5.09 5.09 0 0 1-5 6.04zm-19.69 3.74a5.08 5.08 0 0 1-4.98-4.14l-3.38-17.8a5.09 5.09 0 1 1 10-1.9l3.37 17.8a5.09 5.09 0 0 1-5 6.04zm-5.79 59.78c-6.7 0-13.24-2-18.9-5.85a33.48 33.48 0 0 1-14.14-21.57 5.09 5.09 0 1 1 10-1.9 23.38 23.38 0 0 0 9.87 15.06 23.38 23.38 0 0 0 17.63 3.67l68.41-13a5.1 5.1 0 0 1 1.9 10l-68.41 13c-2.12.4-4.25.6-6.36.6z"/><path d="M1180.1 346.51a5.1 5.1 0 0 1-5-4.14l-3.37-17.8a5.09 5.09 0 1 1 10-1.9l3.37 17.8a5.09 5.09 0 0 1-5 6.04zm-19.68 3.74a5.1 5.1 0 0 1-5-4.14l-3.37-17.8a5.09 5.09 0 1 1 10-1.9l3.37 17.8a5.09 5.09 0 0 1-5 6.04zm-19.68 3.73c-2.4 0-4.53-1.7-4.99-4.14l-3.38-17.8a5.09 5.09 0 1 1 10-1.9l3.38 17.8a5.09 5.09 0 0 1-5 6.04zm-135.09-76.76c-2.4 0-4.53-1.7-4.99-4.14a33.48 33.48 0 0 1 5.25-25.25 33.48 33.48 0 0 1 21.57-14.15l43.42-8.24a5.1 5.1 0 0 1 1.9 10l-43.42 8.24a23.37 23.37 0 0 0-15.06 9.87 23.37 23.37 0 0 0-3.67 17.63 5.09 5.09 0 0 1-5 6.04zm48.05 128.24a33.76 33.76 0 0 1-33.1-27.42 5.09 5.09 0 1 1 9.99-1.9 23.56 23.56 0 0 0 27.5 18.73l43.42-8.25a5.1 5.1 0 0 1 1.9 10l-43.42 8.24c-2.11.4-4.22.6-6.3.6zm-168.57 32.52a5.09 5.09 0 0 1-.94-10.09l68.4-12.99a23.38 23.38 0 0 0 15.06-9.87 23.37 23.37 0 0 0 3.67-17.63 5.09 5.09 0 1 1 10-1.9 33.49 33.49 0 0 1-5.25 25.25 33.49 33.49 0 0 1-21.57 14.15l-68.41 12.99a5.2 5.2 0 0 1-.96.09zm71.25-151.4a5.1 5.1 0 0 1-5-4.14 23.56 23.56 0 0 0-27.5-18.72l-68.4 12.99a5.1 5.1 0 0 1-1.9-10l68.4-12.99a33.74 33.74 0 0 1 39.4 26.82 5.09 5.09 0 0 1-5 6.04zm27.72 6.65a5.1 5.1 0 0 1-5-4.14l-7.52-39.61a5.09 5.09 0 1 1 10-1.9l7.52 39.6a5.09 5.09 0 0 1-5 6.05zm23.09 121.57a5.1 5.1 0 0 1-5-4.14l-7.52-39.6a5.09 5.09 0 1 1 10-1.9l7.52 39.6a5.09 5.09 0 0 1-5 6.04zm84.56-80.38a23.84 23.84 0 0 0-8.9-46.84l-.37.08-25.4 4.82 8.89 46.83 25.4-4.82v-.01c.12-.03.25-.04.38-.06z"/><path d="m1064.37 341.65-9.64-50.76 29.36-5.58v.05a25.85 25.85 0 0 1 9.81 50.61l.02.06-1.32.26-.48.1-.37.06-27.38 5.2zm-4.96-47.58 8.15 42.9 21.26-4.04-.01-.03 2.57-.45a21.84 21.84 0 0 0-8.16-42.9l-2.34.49-.01-.05-21.46 4.08z"/><path fill="#FF8630" d="M1065.81 357.55a15.66 15.66 0 0 0 12.46-18.31l-9.72-51.2a15.66 15.66 0 0 0-18.31-12.47l-22.02 4.19a15.66 15.66 0 0 0-12.46 18.3l9.72 51.2a15.66 15.66 0 0 0 18.31 12.47l22.02-4.19z"/><path fill="#FFF" d="M1040.85 364a17.67 17.67 0 0 1-17.33-14.36l-9.73-51.2a17.68 17.68 0 0 1 14.06-20.65l22.02-4.18a17.67 17.67 0 0 1 20.65 14.06l9.72 51.2a17.68 17.68 0 0 1-14.06 20.64l-22.02 4.18c-1.09.2-2.2.31-3.3.31zm12.33-86.7c-.85 0-1.72.08-2.57.24l-22.01 4.18a13.68 13.68 0 0 0-10.88 15.97l9.73 51.2a13.67 13.67 0 0 0 13.4 11.12c.86 0 1.72-.09 2.57-.25l22.02-4.18a13.68 13.68 0 0 0 10.87-15.97l-9.72-51.2a13.67 13.67 0 0 0-13.41-11.11z"/><path fill="#FF8630" d="m1010.65 271.19-113.7 21.6a37.52 37.52 0 0 0-29.85 43.85l5.93 31.24a37.52 37.52 0 0 0 43.86 29.85l113.7-21.59"/><path fill="#FFF" d="M909.87 400.4a39.58 39.58 0 0 1-38.8-32.15L865.12 337a39.25 39.25 0 0 1 6.16-29.6 39.26 39.26 0 0 1 25.3-16.6l113.7-21.59.74 3.93-113.7 21.6a35.28 35.28 0 0 0-22.74 14.9 35.28 35.28 0 0 0-5.53 26.62l5.93 31.23a35.56 35.56 0 0 0 41.52 28.27l113.7-21.6.75 3.94-113.7 21.59c-2.48.47-4.95.7-7.39.7z"/><path fill="#FFF" d="m1020.32 322.1.74 3.93-150.78 28.63-.74-3.93z"/><path d="M1031.53 375.96a18.45 18.45 0 0 0 14.68-21.57l-12.87-67.77-.62-2.78a18.46 18.46 0 0 0-21.13-12.83l19.94 104.95z"/><path d="m1029.93 378.3-20.68-108.88 1.97-.38a20.56 20.56 0 0 1 23.41 14.23l.04.13.62 2.78 12.89 67.83a20.48 20.48 0 0 1-16.28 23.92l-1.97.37zm-15.98-105.58 19.14 100.78a16.48 16.48 0 0 0 11.16-18.74l-12.87-67.77-.6-2.64a16.58 16.58 0 0 0-16.83-11.63z"/><path d="m819.88 556.14 3.26.96-4.49 11.01-2.1-.62 3.33-11.35zm7.72 2.27 3.26.95-4.49 11.02-2.1-.62 3.33-11.35zm4.2 26.68 20.87-16.3-14.8-4.35.82-2.77 18.36 5.4-.83 2.81-20.95 16.27 14.88 4.37-.82 2.78-18.36-5.4.83-2.81zm27.46-17.37 5.84 1.72-2.89 9.82.2.05a8.75 8.75 0 0 1 3.3-1.25 9.24 9.24 0 0 1 4.03.4c1.2.35 2.2.78 3.01 1.3.82.5 1.41 1.15 1.8 1.94.37.8.54 1.77.5 2.94a18 18 0 0 1-.81 4.26l-3.18 10.8-2.96-.88 3.01-10.23c.32-1.07.53-2.03.64-2.86s.06-1.58-.14-2.22c-.2-.65-.57-1.2-1.11-1.65a6.2 6.2 0 0 0-2.27-1.12 6.65 6.65 0 0 0-5.97 1.32 5.82 5.82 0 0 0-1.37 1.7l-3.5 11.9-2.89-.84 6.98-23.72-2.96-.87.74-2.5zm33.69 18.05 5.35 1.58-3.76 12.77a27.62 27.62 0 0 0-.8 3.6l2.5.73-.71 2.44-5.02-1.48.82-3.22-.15-.04c-.96.88-2.08 1.5-3.35 1.86s-2.66.32-4.18-.13a10 10 0 0 1-2.82-1.26 4.32 4.32 0 0 1-1.6-1.95 6.6 6.6 0 0 1-.39-2.95c.07-1.16.35-2.55.82-4.17l2.43-8.24-2.51-.74.74-2.51 5.47 1.6-2.99 10.16c-.3 1.02-.53 1.95-.68 2.8a6.46 6.46 0 0 0-.07 2.21c.11.64.39 1.19.84 1.63s1.11.8 2 1.06c1.3.38 2.54.28 3.75-.28s2.24-1.42 3.1-2.55l2.86-9.7-2.4-.7.75-2.52zm12.02-4.6 6.06 1.78-4.56 15.51 2.06.61 9.74-5.85 3.52 1.04-10.89 6.44 4.66 9.35 2.43.72-.73 2.5-3.86-1.13-5.53-10.82-2.06-.6-2.5 8.46-2.88-.85 6.98-23.72-3.18-.93.74-2.51zm20.53 14.18 4.46 1.31 1.1-3.7 3.2.04-1.34 4.53 10 2.95-.74 2.5-10-2.94-2.6 8.85c-.54 1.82-.5 3.3.13 4.43.63 1.14 1.77 1.95 3.4 2.43 1.13.33 2.17.4 3.13.23.96-.18 1.84-.42 2.66-.73l.32 2.5a11.68 11.68 0 0 1-7.54.3 9.3 9.3 0 0 1-2.7-1.26 6.65 6.65 0 0 1-2.88-4.8c-.12-1.05 0-2.22.39-3.52l2.73-9.3-4.46-1.3.74-2.52zm36.32 28.47c-.56.27-1.2.49-1.92.66-.72.17-1.47.27-2.27.31a15.41 15.41 0 0 1-4.88-.58c-1.5-.44-2.75-1.06-3.77-1.86s-1.78-1.75-2.3-2.84a9.01 9.01 0 0 1-.85-3.6c-.05-1.32.15-2.73.6-4.23.46-1.57 1.09-2.9 1.88-4a8.47 8.47 0 0 1 2.8-2.52c1.07-.58 2.25-.91 3.55-1s2.68.07 4.13.5c1.05.3 2.05.75 2.99 1.32s1.7 1.36 2.26 2.36c.56.99.86 2.22.89 3.68a15.3 15.3 0 0 1-1.08 5.32l-14.46-4.26c-.66 2.25-.55 4.11.33 5.58a7.16 7.16 0 0 0 4.35 3.09c.67.2 1.36.31 2.07.34.7.03 1.4.02 2.06-.02.66-.05 1.26-.15 1.8-.28.55-.14.98-.29 1.3-.44l.52 2.47zm-3.66-16.67a10.6 10.6 0 0 0-2.42-.42 5.03 5.03 0 0 0-4.06 1.51 6.77 6.77 0 0 0-1.4 2.25l11.61 3.42a6 6 0 0 0-.46-4.3 5.26 5.26 0 0 0-3.27-2.46zm17.93 13.02-4.55-11.27 3.75 1.1 3.33 8.63 7.61-5.41 3.37.99-9.87 6.86 4.81 12-3.6-1.06-3.7-9.43-8.32 5.9-3.41-1 10.58-7.31zm16.85-4.98 4.46 1.31 1.09-3.7 3.2.04-1.33 4.53 10 2.94-.74 2.52-10-2.95-2.6 8.84c-.54 1.83-.5 3.3.13 4.44.63 1.14 1.76 1.94 3.4 2.43 1.13.33 2.17.4 3.12.22s1.85-.42 2.67-.72l.32 2.5a11.71 11.71 0 0 1-7.54.3c-1-.29-1.9-.71-2.7-1.26s-1.45-1.22-1.95-2.02-.8-1.72-.93-2.78 0-2.23.39-3.53l2.73-9.29-4.46-1.3.74-2.52zm21.36 23.71 5.88 1.73 5.8-19.71-7.23 2.43-.83-2.56 9.97-3.46 2.1.62-6.93 23.53 5.77 1.7-.79 2.69-14.54-4.28.8-2.7zm30.37-16.63 3.26.96-4.49 11.01-2.1-.62 3.33-11.35zm7.72 2.27 3.26.96-4.49 11.01-2.1-.62 3.33-11.35zM802.63 656.3l3.26.96-4.5 11-2.1-.61 3.34-11.35zm7.72 2.27 3.25.95-4.48 11.02-2.11-.62 3.34-11.35zm7.98 10.49 4.46 1.31 1.1-3.7 3.2.04-1.34 4.53 10 2.94-.74 2.51-10-2.94-2.6 8.84c-.54 1.83-.5 3.3.14 4.44.62 1.13 1.76 1.94 3.4 2.43 1.12.33 2.16.4 3.12.22.96-.18 1.85-.42 2.66-.72l.32 2.5c-1.07.44-2.28.7-3.62.76-1.34.07-2.64-.08-3.91-.46-1-.3-1.9-.71-2.7-1.26a6.78 6.78 0 0 1-1.96-2.02c-.5-.8-.8-1.72-.93-2.78-.12-1.05 0-2.23.39-3.53l2.73-9.29-4.46-1.31.74-2.51zm36.32 28.47c-.57.27-1.2.49-1.92.66s-1.47.27-2.27.3-1.61.01-2.44-.08c-.83-.1-1.64-.26-2.44-.5a11.04 11.04 0 0 1-3.77-1.85 7.96 7.96 0 0 1-2.3-2.84 9.01 9.01 0 0 1-.85-3.6c-.05-1.32.15-2.73.6-4.23.45-1.57 1.08-2.9 1.88-4 .8-1.1 1.73-1.94 2.8-2.52s2.25-.92 3.55-1.01a12.47 12.47 0 0 1 7.12 1.83c.94.57 1.7 1.36 2.26 2.35.56 1 .85 2.22.89 3.69s-.33 3.23-1.08 5.32l-14.46-4.26c-.66 2.25-.55 4.1.33 5.57.88 1.47 2.33 2.5 4.35 3.1.67.2 1.36.3 2.07.34.7.03 1.4.02 2.06-.03a10.3 10.3 0 0 0 3.1-.71l.52 2.47zm-3.67-16.67c-.82-.24-1.62-.38-2.4-.42a5.03 5.03 0 0 0-4.06 1.51 6.75 6.75 0 0 0-1.42 2.25l11.62 3.42a6 6 0 0 0-.46-4.3 5.26 5.26 0 0 0-3.28-2.46zm17.94 13.01-4.55-11.27 3.75 1.1 3.32 8.64 7.62-5.42 3.37 1-9.87 6.86 4.81 12-3.6-1.06-3.7-9.43-8.32 5.9-3.41-1 10.58-7.32zm16.85-4.97 4.46 1.3 1.09-3.7 3.2.05-1.33 4.53 10 2.94-.74 2.51-10-2.94-2.6 8.84c-.54 1.82-.5 3.3.13 4.44.63 1.13 1.76 1.94 3.4 2.42 1.13.33 2.16.4 3.12.23s1.85-.42 2.67-.72l.32 2.5a11.69 11.69 0 0 1-7.54.3c-1-.3-1.9-.71-2.7-1.26a6.58 6.58 0 0 1-2.88-4.8c-.13-1.06 0-2.23.39-3.53l2.73-9.3-4.46-1.3.74-2.51zm24.22 14.25 12.81 3.77-.81 2.77-12.82-3.77.82-2.77zm20.74-1.03 4.45 1.32 1.1-3.71 3.2.04-1.34 4.54 10 2.94-.73 2.5-10-2.93-2.6 8.84c-.54 1.82-.5 3.3.13 4.43.63 1.14 1.76 1.95 3.4 2.43 1.12.33 2.16.4 3.12.23s1.85-.42 2.67-.72l.32 2.5a11.69 11.69 0 0 1-7.54.3c-1-.3-1.9-.72-2.7-1.27a6.64 6.64 0 0 1-2.88-4.8c-.13-1.05 0-2.22.38-3.52l2.74-9.3-4.46-1.3.74-2.52zm32.8 14.13.69 11.52.26.08 6.93-13.76 2.74.8-9.18 17.66-3.34-.98-.55-11.4-.11-.03-6.8 9.24-3.33-.98 1.58-19.9 2.88.85-1.26 15.5.22.08 6.73-9.43 2.54.75zM973.9 725c.9-3.02 2.38-5.18 4.48-6.48 2.09-1.3 4.6-1.52 7.52-.65 1.57.46 2.85 1.11 3.84 1.96a8.33 8.33 0 0 1 2.96 6.51c.01 1.3-.18 2.65-.59 4.02a13.5 13.5 0 0 1-1.8 3.89 8.1 8.1 0 0 1-6.12 3.7c-1.26.12-2.62-.03-4.07-.45a10.36 10.36 0 0 1-3.82-1.96 8.24 8.24 0 0 1-2.99-6.52c0-1.3.19-2.64.6-4.02zm3.11.92c-.26.87-.4 1.78-.45 2.71a7.5 7.5 0 0 0 .33 2.67c.27.84.72 1.58 1.35 2.23.64.64 1.5 1.13 2.6 1.45 1.99.59 3.67.41 5.04-.53 1.38-.94 2.42-2.6 3.12-5 .27-.9.42-1.82.46-2.74.04-.92-.08-1.8-.36-2.65a5.56 5.56 0 0 0-3.97-3.69c-1.98-.59-3.66-.41-5.01.52-1.36.93-2.4 2.6-3.1 5.03zm27.93-10.11 3.26.96-4.49 11.02-2.11-.62 3.34-11.36zm7.72 2.28 3.26.95-4.5 11.02-2.1-.62 3.34-11.36z" fill="#FFF"/><g fill="#FFF"><path d="M869.26 218.27c-3.9 0-8.16-.84-12.6-2.57a1.72 1.72 0 1 1 1.24-3.2c11.5 4.47 21.42 2.39 26.5-5.57 4.53-7.08 3.78-16.78-1.7-22.07-11.3-10.91-27.02.05-27.18.16a1.72 1.72 0 0 1-2.71-1.4V155.3c0-.8.55-1.5 1.32-1.68l29.37-6.86a1.71 1.71 0 1 1 .78 3.34l-28.04 6.56v23.96c5.56-2.97 18.6-8.11 28.84 1.78 6.73 6.5 7.68 17.84 2.21 26.4-4 6.24-10.36 9.48-18.02 9.48zm29.99-34.8a1.72 1.72 0 0 1-.36-3.4l29.42-6.44a1.71 1.71 0 1 1 .74 3.36l-29.43 6.44c-.12.03-.25.04-.37.04z"/><path d="M917.22 193.7a2 2 0 0 1-1.97-1.7l-5-32a2 2 0 1 1 3.95-.61l5 32a2 2 0 0 1-1.98 2.3z"/></g></svg>
