<svg xmlns="http://www.w3.org/2000/svg" width="844.79" height="904.09" xml:space="preserve"><path fill="#FFF" d="m0 85.72 402.33-68.4 87.55 514.98-402.33 68.4z"/><path fill="#FF8630" d="M10.59 70.68 412.9 2.28l87.55 514.98-402.33 68.4z"/><path fill="#FFF" d="M96.47 587.94 8.27 69.04 414.54 0l88.2 518.9-406.26 69.04zM12.9 72.32l86.86 511.01 398.36-67.7L411.25 4.6 12.9 72.32z"/><circle cx="66.15" cy="476.55" r="66.01"/><path fill="#FFF" d="M51.62 461.04c.03 10.39-3 18.82-6.76 18.82-3.77.02-6.84-8.4-6.86-18.78-.03-10.39 3-18.81 6.76-18.82 3.76-.01 6.84 8.4 6.86 18.78zm42.61-.11c.03 10.39-3 18.82-6.76 18.82-3.77.02-6.84-8.4-6.87-18.78-.02-10.38 3-18.81 6.77-18.82 3.76-.01 6.84 8.4 6.86 18.78zm-52.19 52.03a2 2 0 0 1-1.8-2.86 29.97 29.97 0 0 1 26.85-17.04h.08a29.68 29.68 0 0 1 26.58 16.32 2 2 0 0 1-3.56 1.81 25.7 25.7 0 0 0-23.02-14.13h-.07a25.95 25.95 0 0 0-23.25 14.75 2 2 0 0 1-1.81 1.15z"/><path d="m400.47 297.78.67 3.94-277.94 47.22-.67-3.94zm3.1 18.3.67 3.95-277.94 47.22-.67-3.95zm-23.36 111.16.67 3.95-198.41 33.7-.67-3.94zm3.11 18.3.67 3.95-198.4 33.7-.68-3.94zm23.36-111.16.67 3.95-277.93 47.22-.67-3.95zm3.11 18.32.67 3.93-277.94 47.22-.67-3.94zM286.28 143.89c-1.26 0-2.5-.57-3.32-1.66a27.46 27.46 0 0 1 5.54-38.4l45.38-33.94a4.14 4.14 0 1 1 4.96 6.64l-45.38 33.93a19.17 19.17 0 0 0-3.87 26.8 4.14 4.14 0 0 1-3.31 6.63z"/><path d="M324.55 86.18c-1.26 0-2.5-.57-3.32-1.66l-8.83-11.81a4.14 4.14 0 0 1 6.63-4.96l8.83 11.81a4.14 4.14 0 0 1-3.31 6.62zm-13.05 9.77a4.14 4.14 0 0 1-3.32-1.66l-8.84-11.81a4.14 4.14 0 0 1 6.63-4.97l8.84 11.82a4.14 4.14 0 0 1-3.31 6.62zm-13.06 9.76c-1.26 0-2.5-.57-3.32-1.66l-8.83-11.81a4.14 4.14 0 1 1 6.63-4.96l8.83 11.81a4.14 4.14 0 0 1-3.3 6.62zm7 48.13a27.25 27.25 0 0 1-22.02-11 4.14 4.14 0 1 1 6.63-4.97 19.02 19.02 0 0 0 12.6 7.49c5.06.72 10.1-.56 14.2-3.62l45.38-33.94a4.14 4.14 0 1 1 4.96 6.63l-45.38 33.94a27.22 27.22 0 0 1-16.38 5.47z"/><path d="M361.73 135.9c-1.26 0-2.5-.58-3.32-1.66l-8.83-11.82a4.14 4.14 0 0 1 6.63-4.95l8.84 11.8a4.14 4.14 0 0 1-3.32 6.63zm-13.05 9.76c-1.26 0-2.5-.57-3.32-1.66l-8.84-11.8a4.14 4.14 0 0 1 6.64-4.97l8.83 11.81a4.14 4.14 0 0 1-3.31 6.62zm-13.06 9.77c-1.26 0-2.5-.58-3.32-1.66l-8.83-11.82a4.14 4.14 0 1 1 6.63-4.95l8.84 11.8a4.14 4.14 0 0 1-3.32 6.63zm-126.2-7.87c-1.26 0-2.5-.57-3.32-1.66-4.4-5.87-6.23-13.1-5.19-20.34s4.86-13.66 10.72-18.05l28.8-21.54a4.14 4.14 0 1 1 4.97 6.63l-28.8 21.54a19.02 19.02 0 0 0-7.49 12.6c-.73 5.06.56 10.1 3.62 14.2a4.14 4.14 0 0 1-3.31 6.62zm70.78 78.97a27.25 27.25 0 0 1-22.02-11 4.14 4.14 0 1 1 6.62-4.96 19.02 19.02 0 0 0 12.6 7.48c5.06.72 10.1-.56 14.2-3.62l28.8-21.54a4.14 4.14 0 1 1 4.96 6.63l-28.8 21.54a27.22 27.22 0 0 1-16.37 5.47zm-101.48 81.64a4.13 4.13 0 0 1-2.48-7.46l45.38-33.94a19.02 19.02 0 0 0 7.48-12.6c.73-5.06-.55-10.1-3.61-14.2a4.14 4.14 0 1 1 6.63-4.96c4.38 5.87 6.23 13.1 5.18 20.35s-4.85 13.66-10.72 18.04l-45.38 33.94c-.74.56-1.61.83-2.48.83zM98.75 201.25a4.13 4.13 0 0 1-2.48-7.46l45.38-33.94a27.46 27.46 0 0 1 38.4 5.54 4.14 4.14 0 0 1-6.64 4.96 19.17 19.17 0 0 0-26.8-3.87l-45.38 33.94c-.74.56-1.61.83-2.48.83zm100.62-34.29c-1.26 0-2.5-.57-3.32-1.66l-19.65-26.27a4.14 4.14 0 1 1 6.63-4.96l19.65 26.27a4.14 4.14 0 0 1-3.31 6.62zm60.32 80.65c-1.26 0-2.5-.57-3.32-1.66l-19.65-26.27a4.14 4.14 0 1 1 6.63-4.96L263 240.99a4.14 4.14 0 0 1-3.31 6.62zm34.92-89.41a19.4 19.4 0 0 0-23.23-31.06l-.24.19-16.86 12.6L277.5 171l16.85-12.61.25-.19z"/><path d="m277.19 173.27-25.2-33.67 19.73-14.75.03.06a20.8 20.8 0 0 1 11.23-3.26c6.7 0 12.84 3.07 16.85 8.43a20.9 20.9 0 0 1 3.98 15.6 20.93 20.93 0 0 1-7.58 13.33l-.23.18-.41.32-.12.08-.13.1-18.15 13.58zm-20.63-33.01 21.28 28.46 14.65-10.96v-.01l1.14-.85a17.6 17.6 0 0 0 6.95-11.7c.68-4.69-.51-9.37-3.35-13.17a17.63 17.63 0 0 0-14.25-7.13c-3.85 0-7.53 1.23-10.62 3.54l-1.8 1.36h-.01l-14 10.46z"/><path fill="#FF8630" d="M283.91 184.38a12.74 12.74 0 0 0 2.58-17.84l-25.4-33.96a12.75 12.75 0 0 0-17.85-2.57l-14.6 10.92a12.75 12.75 0 0 0-2.57 17.84l25.4 33.96a12.75 12.75 0 0 0 17.84 2.58l14.6-10.93z"/><path fill="#FFF" d="M261.68 199.85c-4.63 0-9.05-2.21-11.82-5.92l-25.4-33.96a14.77 14.77 0 0 1 2.98-20.64l14.6-10.93a14.62 14.62 0 0 1 8.83-2.93c4.63 0 9.05 2.2 11.82 5.91l25.4 33.96a14.66 14.66 0 0 1 2.79 10.94 14.63 14.63 0 0 1-5.77 9.7l-14.6 10.93a14.63 14.63 0 0 1-8.83 2.94zm-10.81-70.38c-2.33 0-4.56.74-6.43 2.14l-14.6 10.92a10.76 10.76 0 0 0-2.17 15.05l25.4 33.96a10.66 10.66 0 0 0 8.61 4.3c2.33 0 4.56-.73 6.43-2.13l14.6-10.93c2.3-1.72 3.8-4.23 4.2-7.07.41-2.84-.3-5.67-2.03-7.97l-25.4-33.96a10.66 10.66 0 0 0-8.61-4.31z"/><path fill="#FF8630" d="m212.73 140.94-75.43 56.41a30.53 30.53 0 0 0-6.16 42.74l15.5 20.72a30.53 30.53 0 0 0 42.74 6.17l75.42-56.41"/><path fill="#FFF" d="M171.16 275.07A32.32 32.32 0 0 1 145.04 262l-15.5-20.72c-5.2-6.96-7.4-15.53-6.15-24.13s5.76-16.2 12.72-21.41l75.42-56.41 2.4 3.2-75.43 56.41c-6.1 4.57-10.06 11.24-11.15 18.78s.83 15.06 5.4 21.16l15.49 20.72A28.35 28.35 0 0 0 167 270.77a28.33 28.33 0 0 0 21.17-5.4l75.42-56.4 2.4 3.2-75.42 56.4a32.28 32.28 0 0 1-19.42 6.5z"/><path fill="#FFF" d="m237.79 174.45 2.4 3.2-100.02 74.84-2.4-3.2z"/><path d="M265.42 210.1a15 15 0 0 0 3.03-21.02l-33.62-44.96-1.45-1.8a15.02 15.02 0 0 0-20.03-1.84l52.07 69.62z"/><path d="m265.02 212.9-54.47-72.83 1.6-1.2a17.06 17.06 0 0 1 22.7 2.08l.1.11 1.44 1.8 33.67 45.02a17.04 17.04 0 0 1-3.44 23.82l-1.6 1.2zM216.24 141l49.5 66.18a13.04 13.04 0 0 0 1.11-16.9l-33.62-44.96-1.36-1.7a13.05 13.05 0 0 0-15.63-2.62z"/><path d="m175.03 417.46 2.73-.46.65 9.66-1.76.3-1.62-9.5zm6.46-1.1 2.72-.46.66 9.66-1.77.3-1.61-9.5zm12.61 18.02 9.43-19.37-12.37 2.1-.4-2.32 15.36-2.6.4 2.34-9.5 19.38 12.43-2.11.4 2.32-15.36 2.6-.4-2.35zm13.87-22.51 4.88-.83 1.4 8.2.16-.02c.52-.84 1.18-1.54 1.96-2.1s1.82-.93 3.1-1.15c1-.17 1.89-.2 2.66-.13a3.8 3.8 0 0 1 2 .79 4.9 4.9 0 0 1 1.42 1.97c.39.87.7 2 .94 3.4l1.53 9.03-2.48.42-1.45-8.56a15.9 15.9 0 0 0-.56-2.32 4.18 4.18 0 0 0-.9-1.57c-.37-.4-.84-.67-1.4-.81a5.05 5.05 0 0 0-2.05 0c-.57.09-1.1.28-1.6.57a5.36 5.36 0 0 0-2.29 2.52 4.7 4.7 0 0 0-.4 1.73l1.7 9.96-2.42.41-3.37-19.84-2.48.43-.35-2.1zm31.08 1.16 4.48-.76 1.81 10.68c.18 1.03.4 2 .7 2.92l2.1-.36.34 2.04-4.2.71-.55-2.64-.12.02a6.07 6.07 0 0 1-4.89 3.96c-.96.16-1.8.19-2.5.08s-1.34-.39-1.87-.86a5.4 5.4 0 0 1-1.34-2 15.9 15.9 0 0 1-.9-3.36l-1.16-6.89-2.1.36-.36-2.1 4.57-.78 1.45 8.49c.14.86.3 1.62.5 2.28.18.67.43 1.22.74 1.65.3.43.7.73 1.2.9s1.1.18 1.84.05c1.08-.18 1.96-.7 2.63-1.54s1.14-1.84 1.37-2.97l-1.38-8.12-2 .34-.36-2.1zm7.15-7.66 5.07-.86 2.2 12.97 1.73-.3 5.03-7.75 2.94-.5-5.66 8.6 6.75 5.18 2.03-.35.36 2.1-3.23.55-7.9-5.94-1.73.3 1.2 7.07-2.4.41-3.38-19.83-2.66.45-.36-2.1zm20.08 3.03 3.73-.63-.53-3.1 2.36-1.11.64 3.79 8.37-1.42.35 2.1-8.36 1.42 1.25 7.4c.26 1.52.82 2.58 1.69 3.19.86.6 1.98.8 3.36.56a5.42 5.42 0 0 0 2.36-.95c.63-.47 1.2-.97 1.69-1.48l1.12 1.7a9.47 9.47 0 0 1-5.4 2.92c-.84.15-1.65.16-2.43.05a5.4 5.4 0 0 1-3.82-2.48 7.27 7.27 0 0 1-.98-2.72l-1.32-7.77-3.73.63-.35-2.1zm36.72 7.85c-.31.4-.7.79-1.16 1.17a10 10 0 0 1-1.55 1.03 12.7 12.7 0 0 1-3.78 1.32 8.91 8.91 0 0 1-3.42-.01 6.7 6.7 0 0 1-4.6-3.59c-.5-.94-.87-2.05-1.08-3.3a10.54 10.54 0 0 1-.05-3.6c.2-1.09.58-2.03 1.15-2.84s1.32-1.47 2.24-2a10.23 10.23 0 0 1 5.86-1.2c.89.07 1.72.38 2.48.9a6.28 6.28 0 0 1 1.97 2.38 12.3 12.3 0 0 1 1.12 4.27l-12.1 2.06c.32 1.88 1.06 3.2 2.23 3.95 1.17.76 2.6 1 4.28.7.57-.09 1.11-.25 1.64-.48s1.03-.48 1.5-.75a8.39 8.39 0 0 0 2-1.63l1.28 1.62zm-8.63-10.88a8.5 8.5 0 0 0-1.91.55 4.1 4.1 0 0 0-2.43 2.56c-.2.6-.28 1.32-.23 2.15l9.72-1.65a4.9 4.9 0 0 0-1.88-2.99c-.9-.63-2-.84-3.27-.62zm17.76 3.11-7.35-6.62 3.14-.53 5.51 5.12 3.64-6.68 2.82-.48-4.77 8.55 7.8 7.06-3 .5-6.07-5.57-3.99 7.29-2.85.48 5.12-9.12zm10.55-9.66 3.73-.64-.53-3.1 2.36-1.1.64 3.78 8.37-1.42.35 2.1-8.36 1.42 1.25 7.4c.26 1.52.82 2.59 1.69 3.2.86.6 1.98.79 3.36.55a5.42 5.42 0 0 0 2.36-.95c.63-.47 1.2-.96 1.69-1.48l1.12 1.71a9.47 9.47 0 0 1-5.4 2.92c-.84.14-1.65.15-2.43.04a5.38 5.38 0 0 1-3.82-2.48 7.27 7.27 0 0 1-.98-2.72l-1.32-7.77-3.73.64-.35-2.1zm24.08 9.7 4.92-.83-2.8-16.48-4.41 4.36-1.53-1.58 6.06-6.1 1.75-.3 3.35 19.69 4.82-.82.39 2.25-12.16 2.07-.39-2.26zm16.28-23.01 2.72-.46.65 9.65-1.76.3-1.61-9.49zm6.45-1.1 2.72-.46.66 9.66-1.77.3-1.61-9.5zM198.2 496.87l2.73-.46.65 9.65-1.77.3-1.6-9.5zm6.46-1.1 2.72-.46.66 9.65-1.77.3-1.61-9.49zm9.58 4.82 3.73-.63-.52-3.1 2.36-1.11.64 3.79 8.37-1.43.35 2.1-8.36 1.43 1.25 7.4c.26 1.51.82 2.58 1.69 3.19.86.6 1.98.79 3.35.55a5.4 5.4 0 0 0 2.36-.95c.64-.47 1.2-.96 1.7-1.48l1.12 1.72a9.53 9.53 0 0 1-5.4 2.92c-.84.14-1.65.15-2.43.03a5.41 5.41 0 0 1-3.82-2.48 7.25 7.25 0 0 1-.98-2.71l-1.32-7.77-3.73.63-.36-2.1zm36.74 7.85a9.75 9.75 0 0 1-2.72 2.2 12.5 12.5 0 0 1-3.78 1.32 9.1 9.1 0 0 1-3.42-.02 6.46 6.46 0 0 1-2.7-1.25 7.3 7.3 0 0 1-1.9-2.33c-.51-.95-.87-2.05-1.08-3.3a10.54 10.54 0 0 1-.05-3.6c.2-1.09.58-2.04 1.15-2.84s1.31-1.48 2.23-2.01 1.99-.9 3.2-1.1a9.47 9.47 0 0 1 2.66-.1c.9.08 1.73.38 2.5.9a6.3 6.3 0 0 1 1.96 2.38c.54 1.06.91 2.48 1.11 4.28l-12.1 2.05c.33 1.88 1.07 3.2 2.24 3.96 1.17.76 2.6 1 4.28.7.56-.09 1.11-.25 1.64-.48s1.03-.48 1.5-.75a8.14 8.14 0 0 0 2-1.64l1.28 1.63zm-8.64-10.88a8.5 8.5 0 0 0-1.92.55 4.13 4.13 0 0 0-2.43 2.56c-.2.6-.27 1.31-.22 2.14l9.71-1.65a4.9 4.9 0 0 0-1.87-2.98c-.91-.63-2-.84-3.27-.62zm17.76 3.1-7.35-6.62 3.14-.53 5.51 5.13 3.64-6.68 2.82-.48-4.77 8.55 7.8 7.05-3 .51-6.08-5.57-3.98 7.28-2.85.49 5.12-9.13zm10.54-9.66 3.73-.63-.52-3.1 2.36-1.11.64 3.79 8.37-1.42.35 2.1-8.36 1.42 1.25 7.4c.26 1.52.82 2.59 1.69 3.19s1.98.8 3.35.56a5.4 5.4 0 0 0 2.36-.95c.64-.47 1.2-.97 1.7-1.48l1.12 1.71a9.47 9.47 0 0 1-5.4 2.92c-.84.14-1.65.15-2.43.04a5.41 5.41 0 0 1-3.82-2.48 7.25 7.25 0 0 1-.98-2.72l-1.32-7.77-3.73.63-.36-2.1zm22.81 1.77 10.71-1.82.4 2.32-10.72 1.82-.4-2.32zm14.79-8.16 3.73-.63-.52-3.1 2.36-1.11.64 3.79 8.37-1.42.35 2.1-8.36 1.42 1.25 7.4c.26 1.52.82 2.58 1.69 3.19s1.98.8 3.35.56a5.4 5.4 0 0 0 2.36-.95c.64-.47 1.2-.97 1.7-1.48l1.12 1.7a9.48 9.48 0 0 1-5.4 2.92c-.84.15-1.65.16-2.43.05a5.41 5.41 0 0 1-3.82-2.48 7.25 7.25 0 0 1-.98-2.72l-1.32-7.77-3.73.63-.36-2.1zm29.04-1.38 4.61 8.17.23-.03.15-12.54 2.29-.39-.4 16.19-2.8.47-4.47-8.13-.1.01-1.66 9.19-2.8.47-5.94-15.1 2.4-.42 4.62 11.8.2-.04 1.54-9.3 2.13-.35zm10.71 2.69c-.43-2.53-.11-4.64.95-6.34 1.07-1.7 2.82-2.75 5.27-3.17a8.3 8.3 0 0 1 3.5.07 6.89 6.89 0 0 1 4.5 3.7c.48.95.81 2 1 3.15.22 1.25.25 2.41.09 3.48a6.63 6.63 0 0 1-3.15 4.89 8.6 8.6 0 0 1-3.15 1.13 8.5 8.5 0 0 1-3.5-.06 6.72 6.72 0 0 1-4.5-3.7c-.48-.95-.81-2-1.01-3.15zm2.6-.44c.13.73.34 1.44.64 2.14.3.7.7 1.31 1.2 1.83a4.46 4.46 0 0 0 4.2 1.29c1.66-.29 2.83-1.02 3.5-2.2.66-1.17.83-2.76.49-4.77a9.33 9.33 0 0 0-.64-2.16c-.3-.7-.7-1.3-1.21-1.81a4.7 4.7 0 0 0-1.8-1.15 4.8 4.8 0 0 0-2.42-.13c-1.67.28-2.83 1-3.49 2.17-.66 1.16-.81 2.76-.47 4.79zm16.81-17.37 2.73-.46.65 9.65-1.77.3-1.6-9.49zm6.46-1.1 2.72-.46.66 9.66-1.77.3-1.61-9.5zM65.97 153.06a7.97 7.97 0 0 1-6.88-4.22 9.47 9.47 0 0 1-.13-8.61c3-6.05 9.24-5.17 15.18-3.32 1.58-5.9 1.85-12.35 1.86-18.17 0-3.69-.58-12.56-6.22-15.2a13.1 13.1 0 0 0-10.3-.11c-2.66 1.1-4.6 3-5.46 5.36a14.43 14.43 0 0 0 .1 9.9 2 2 0 1 1-3.72 1.45 18.3 18.3 0 0 1-.14-12.72c1.25-3.43 3.98-6.16 7.7-7.7a17.28 17.28 0 0 1 13.53.2c7.43 3.5 8.52 13.3 8.5 18.83 0 6.17-.3 13.05-2.05 19.45l.2.07c3.19 1.12 6.5 2.29 8.42 2.09 4.8-.5 6.47-4.93 6.43-8.57a2 2 0 0 1 1.98-2.02c1.12-.04 2 .87 2.02 1.98.06 5.74-3.02 11.86-10.02 12.59-2.81.29-6.4-.97-10.17-2.3l-.11-.04c-.3.77-.63 1.54-1 2.3-2.7 5.68-6.13 8.76-9.72 8.76zm.95-13.53c-2.03 0-3.5.7-4.38 2.48a5.42 5.42 0 0 0 .06 4.92 3.93 3.93 0 0 0 3.1 2.11c2.28.26 4.82-3.17 6.39-6.47.28-.6.55-1.22.8-1.85-2.33-.72-4.33-1.19-5.97-1.19zm40.36-5.2a5.1 5.1 0 0 1-4.75-3.62 4.56 4.56 0 0 1 1.73-5.2 5.21 5.21 0 0 1 8.03 3.32 4.47 4.47 0 0 1-.88 3.54 5.24 5.24 0 0 1-4.13 1.96zm-.13-5.73a.98.98 0 0 0-.6.19c-.12.08-.35.24-.2.72.13.4.51.82.94.82h.06c.37-.03.73-.2.9-.42.1-.11.12-.23.09-.4-.1-.57-.68-.91-1.2-.91zm-4.13-6.08a2 2 0 0 1-1.84-1.22c-2.57-6-5.24-12.08-7.83-17.96-3.09-7.03-6.28-14.3-9.32-21.5a2 2 0 0 1 3.69-1.55c3.02 7.17 6.21 14.43 9.3 21.44 2.59 5.9 5.26 11.98 7.83 18a2 2 0 0 1-1.83 2.79zM462.49 272l382.28 142.7L662.1 904.01l-382.28-142.7z" fill="#FFF"/><path fill="#FF8630" d="m454.99 252.92 382.29 142.7-182.66 489.33-382.3-142.7z"/><path fill="#FFF" d="M655.78 887.6 269.73 743.47l184.09-493.1L839.87 394.5 655.78 887.6zm-380.9-146.48 378.55 141.33 181.3-485.6-378.56-141.33-181.3 485.6z"/><circle cx="704.67" cy="780.81" r="66.01"/><path fill="#FFF" d="M690.92 764.61c-.48 10.37-3.92 18.64-7.68 18.47-3.76-.18-6.41-8.73-5.93-19.1.48-10.38 3.92-18.65 7.68-18.47 3.76.18 6.42 8.73 5.93 19.1zm42.57 1.99c-.49 10.37-3.93 18.64-7.68 18.46-3.76-.17-6.42-8.72-5.94-19.1.49-10.37 3.93-18.64 7.69-18.46 3.76.17 6.41 8.73 5.93 19.1zm-28.51 50.57a29.8 29.8 0 0 1-27.2-17.64 2 2 0 0 1 3.66-1.63 25.7 25.7 0 0 0 22.36 15.25 25.89 25.89 0 0 0 23.95-13.6 2 2 0 0 1 3.52 1.9 29.97 29.97 0 0 1-26.3 15.72z"/><path d="m414.2 546.36 264.1 98.59-1.4 3.74-264.1-98.58zm-6.5 17.39 264.1 98.59-1.4 3.74-264.1-98.58zm-.4 112.65 188.52 70.37-1.4 3.75-188.53-70.38zm-6.5 17.38 188.53 70.38-1.4 3.75-188.53-70.38zm.36-112.6 264.08 98.6-1.4 3.75-264.08-98.6zm-6.44 17.36 264.08 98.59-1.4 3.74-264.08-98.58zM658.8 455.17a4.14 4.14 0 0 1-4.1-3.66 27.47 27.47 0 0 1 24.05-30.43l56.29-6.59a4.13 4.13 0 1 1 .96 8.22l-56.28 6.6a19.17 19.17 0 0 0-16.8 21.23 4.14 4.14 0 0 1-4.12 4.63z"/><path d="M720.86 424.46a4.14 4.14 0 0 1-4.1-3.66l-1.72-14.65a4.14 4.14 0 0 1 8.23-.96l1.71 14.64a4.14 4.14 0 0 1-4.12 4.63zm-16.19 1.89a4.14 4.14 0 0 1-4.1-3.66l-1.72-14.65a4.14 4.14 0 1 1 8.22-.96l1.72 14.65a4.14 4.14 0 0 1-4.12 4.62zm-16.19 1.9a4.14 4.14 0 0 1-4.1-3.66l-1.72-14.65a4.14 4.14 0 0 1 8.22-.96l1.72 14.64a4.14 4.14 0 0 1-4.12 4.63zm-6.51 48.25a27.22 27.22 0 0 1-16.95-5.91 27.25 27.25 0 0 1-10.23-18.33 4.14 4.14 0 0 1 8.22-.96c.6 5.08 3.13 9.62 7.14 12.8a19.02 19.02 0 0 0 14.1 3.99l56.29-6.59a4.14 4.14 0 1 1 .96 8.23l-56.28 6.58c-1.1.13-2.17.2-3.25.2z"/><path d="M728.08 486.12a4.14 4.14 0 0 1-4.11-3.66l-1.71-14.65a4.14 4.14 0 1 1 8.22-.96l1.71 14.65a4.14 4.14 0 0 1-4.11 4.62zm-16.2 1.89a4.14 4.14 0 0 1-4.1-3.66l-1.71-14.65a4.14 4.14 0 1 1 8.22-.96L716 483.4a4.14 4.14 0 0 1-4.12 4.62zm-16.18 1.89a4.14 4.14 0 0 1-4.11-3.65l-1.72-14.65a4.14 4.14 0 0 1 8.23-.96l1.71 14.65a4.14 4.14 0 0 1-4.11 4.62zm-105.23-70.13a4.14 4.14 0 0 1-4.1-3.66 27.25 27.25 0 0 1 5.72-20.2 27.25 27.25 0 0 1 18.33-10.22l35.72-4.18a4.14 4.14 0 1 1 .96 8.22l-35.72 4.18c-5.08.6-9.62 3.13-12.8 7.15a19.01 19.01 0 0 0-3.99 14.1 4.14 4.14 0 0 1-4.12 4.61zm33.19 106.94a27.23 27.23 0 0 1-16.95-5.91 27.24 27.24 0 0 1-10.24-18.33 4.14 4.14 0 1 1 8.23-.96c.6 5.08 3.13 9.62 7.14 12.8a19 19 0 0 0 14.1 3.99l35.72-4.18a4.14 4.14 0 1 1 .96 8.23l-35.71 4.18c-1.09.12-2.17.18-3.25.18zM483.33 543.3a4.14 4.14 0 0 1-.47-8.25l56.28-6.6a19 19 0 0 0 12.8-7.14 19.02 19.02 0 0 0 4-14.1 4.14 4.14 0 1 1 8.22-.96 27.25 27.25 0 0 1-5.73 20.2 27.25 27.25 0 0 1-18.33 10.23l-56.28 6.59a3.9 3.9 0 0 1-.49.03zm66.6-118.78a4.14 4.14 0 0 1-4.1-3.66 19.17 19.17 0 0 0-21.25-16.8l-56.28 6.6a4.13 4.13 0 1 1-.96-8.23l56.28-6.59a27.47 27.47 0 0 1 30.43 24.06 4.14 4.14 0 0 1-4.12 4.62zm22.12 7a4.14 4.14 0 0 1-4.1-3.66l-3.82-32.59a4.14 4.14 0 0 1 8.23-.96l3.8 32.59a4.14 4.14 0 0 1-4.11 4.62zm11.71 100.03a4.14 4.14 0 0 1-4.11-3.66l-3.81-32.59a4.14 4.14 0 1 1 8.22-.96l3.82 32.58a4.14 4.14 0 0 1-4.12 4.63zm73-60.37a19.4 19.4 0 0 0-4.51-38.54l-.3.05v-.01l-20.91 2.45 4.5 38.53 20.91-2.45.3-.03z"/><path d="m634.12 475.47-4.89-41.77 22.8-2.67h.03l1.5-.18v.05l.97-.02a21.02 21.02 0 0 1 4 41.67v.05l-1.15.14-.43.05-.31.04-22.52 2.64zm-1.27-38.91 4.12 35.3 17.4-2.04-.01-.02 2.24-.24a17.76 17.76 0 0 0-4.16-35.3l-2.13.32v-.07l-17.46 2.05z"/><path fill="#FF8630" d="M634.37 488.45c6.99-.82 12-7.15 11.17-14.14l-4.93-42.13a12.74 12.74 0 0 0-14.14-11.17l-18.11 2.12c-7 .82-12 7.15-11.18 14.14l4.93 42.12c.81 7 7.15 12 14.14 11.18l18.12-2.12z"/><path fill="#FFF" d="M614.75 492.66c-7.47 0-13.76-5.6-14.63-13.04l-4.93-42.12a14.76 14.76 0 0 1 12.93-16.36l18.12-2.12a14.74 14.74 0 0 1 16.36 12.93l4.93 42.13a14.76 14.76 0 0 1-12.93 16.36l-18.12 2.12c-.57.06-1.16.1-1.73.1zm13.22-69.74c-.42 0-.85.02-1.27.07l-18.11 2.12a10.76 10.76 0 0 0-9.43 11.93l4.93 42.12a10.75 10.75 0 0 0 11.92 9.42l18.12-2.11a10.76 10.76 0 0 0 9.43-11.93l-4.93-42.12a10.74 10.74 0 0 0-10.66-9.5z"/><path fill="#FF8630" d="m594.6 415.16-93.56 10.94a30.54 30.54 0 0 0-26.78 33.88l3.01 25.7a30.53 30.53 0 0 0 33.88 26.77l93.55-10.94"/><path fill="#FFF" d="M507.53 514.67c-7.28 0-14.3-2.43-20.1-7.02a32.33 32.33 0 0 1-12.15-21.74l-3-25.7a32.57 32.57 0 0 1 28.53-36.1l93.55-10.94.46 3.97-93.55 10.95a28.57 28.57 0 0 0-25.02 31.66l3 25.7a28.35 28.35 0 0 0 10.65 19.06 28.36 28.36 0 0 0 21.02 5.96l93.54-10.95.47 3.98-93.55 10.94a33 33 0 0 1-3.85.23z"/><path fill="#FFF" d="m599.46 456.7.46 3.97-124.06 14.51-.47-3.97z"/><path d="M605.47 501.42a15.02 15.02 0 0 0 13.17-16.67L612.12 429l-.35-2.29a15.03 15.03 0 0 0-16.41-11.64l10.1 86.36z"/><path d="m603.72 503.64-10.58-90.33 1.99-.23a17.12 17.12 0 0 1 18.6 13.2l.02.12.34 2.3 6.54 55.82a16.9 16.9 0 0 1-3.56 12.54 16.9 16.9 0 0 1-11.37 6.35l-1.99.23zm-6.12-86.67 9.6 82.08c2.65-.73 5-2.28 6.74-4.48a12.94 12.94 0 0 0 2.71-9.59l-6.52-55.76-.33-2.15a13.1 13.1 0 0 0-12.2-10.1z"/><path d="m423.23 635.43 2.6.97-4.29 8.68-1.68-.63 3.37-9.02zm6.13 2.29 2.6.97-4.28 8.68-1.68-.63 3.37-9.02zm1.87 21.9 17.89-12.02-11.76-4.39.82-2.2 14.59 5.45-.83 2.23-17.95 12 11.82 4.4-.82 2.2-14.6-5.44.84-2.23zm23.29-12.51 4.65 1.74-2.91 7.8.15.05a7.29 7.29 0 0 1 2.75-.82c.95-.08 2.04.1 3.25.56a9.9 9.9 0 0 1 2.38 1.22 3.83 3.83 0 0 1 1.33 1.69c.27.66.35 1.47.24 2.41-.1.95-.4 2.08-.9 3.41l-3.2 8.58-2.35-.88 3.03-8.13c.32-.85.55-1.61.69-2.29a4.2 4.2 0 0 0 .01-1.8c-.13-.54-.4-1-.8-1.41a5.23 5.23 0 0 0-3.46-1.34 5.23 5.23 0 0 0-4.45 2.33l-3.54 9.46-2.3-.85 7.04-18.85-2.35-.88.75-2zm26.31 16.61 4.26 1.59-3.8 10.15c-.36.97-.65 1.93-.86 2.87l2 .74-.73 1.94-3.99-1.5.86-2.56-.12-.04a6.06 6.06 0 0 1-6.22.97 8.09 8.09 0 0 1-2.21-1.18 3.57 3.57 0 0 1-1.19-1.68 5.4 5.4 0 0 1-.14-2.42c.12-.93.42-2.05.9-3.34l2.45-6.55-2-.74.75-2 4.35 1.62-3.01 8.07c-.3.82-.55 1.56-.72 2.23a5.28 5.28 0 0 0-.18 1.8c.05.52.24.98.58 1.37.34.39.86.71 1.57.98 1.03.38 2.04.37 3.05-.02a6.93 6.93 0 0 0 2.68-1.89l2.88-7.7-1.9-.72.74-2zm10.02-3.05 4.83 1.8-4.6 12.33 1.63.61 8.25-4.18 2.8 1.05-9.22 4.6 3.24 7.86 1.94.72-.75 2-3.07-1.15-3.86-9.11-1.63-.61-2.51 6.73-2.3-.86 7.04-18.85-2.53-.94.74-2zm15.85 12.71 3.55 1.32 1.1-2.95 2.6.23-1.35 3.6 7.95 2.97-.74 2-7.96-2.98-2.62 7.03c-.54 1.45-.6 2.65-.15 3.6s1.32 1.69 2.63 2.18c.89.33 1.73.45 2.52.36.78-.09 1.52-.23 2.2-.43l.12 2.04a9.5 9.5 0 0 1-6.14-.19c-.8-.3-1.5-.69-2.12-1.18a5.38 5.38 0 0 1-2.06-4.06 7.2 7.2 0 0 1 .52-2.84l2.75-7.39-3.54-1.32.74-2zm27.84 25.22a9.55 9.55 0 0 1-3.46.54 12.35 12.35 0 0 1-3.93-.76c-1.19-.44-2.17-1.02-2.95-1.73s-1.34-1.52-1.7-2.43a7.3 7.3 0 0 1-.48-2.98c.04-1.07.28-2.2.72-3.4a10.6 10.6 0 0 1 1.77-3.14 6.89 6.89 0 0 1 2.42-1.88 7 7 0 0 1 2.94-.61 10.27 10.27 0 0 1 5.67 1.9c.73.52 1.3 1.2 1.7 2.04.4.84.56 1.85.5 3.04a12.4 12.4 0 0 1-1.18 4.26l-11.5-4.3c-.66 1.8-.68 3.3-.05 4.55a5.83 5.83 0 0 0 3.36 2.76c.53.2 1.08.33 1.66.4s1.13.1 1.67.1a8.33 8.33 0 0 0 2.55-.4l.29 2.04zm-2.01-13.75c-.66-.24-1.3-.4-1.94-.48a4.09 4.09 0 0 0-3.38 1c-.48.41-.9 1-1.27 1.74l9.22 3.44a4.9 4.9 0 0 0-.12-3.52 4.28 4.28 0 0 0-2.51-2.18zm13.8 11.6-3.04-9.41 2.98 1.11 2.2 7.2 6.5-3.95 2.68 1-8.42 5 3.22 10.02-2.86-1.07-2.46-7.87-7.1 4.3-2.7-1 9-5.33zm13.97-3.06 3.54 1.32 1.1-2.95 2.6.22-1.35 3.6 7.95 2.98-.74 2-7.95-2.98-2.62 7.03c-.54 1.45-.6 2.65-.15 3.6s1.32 1.69 2.62 2.18c.9.33 1.73.45 2.52.36.8-.1 1.52-.23 2.2-.43l.12 2.04a9.47 9.47 0 0 1-6.14-.19c-.79-.3-1.5-.69-2.11-1.18s-1.11-1.07-1.47-1.75a5.38 5.38 0 0 1-.6-2.31 7.3 7.3 0 0 1 .52-2.84l2.76-7.39-3.54-1.32.74-2zm15.96 20.48 4.68 1.74 5.85-15.66-6.01 1.56-.53-2.14 8.3-2.22 1.66.62-6.98 18.7 4.59 1.7-.8 2.15-11.56-4.31.8-2.14zm25.62-11.74 2.6.96-4.28 8.69-1.68-.63 3.37-9.02zm6.14 2.29 2.59.96-4.28 8.69-1.68-.63 3.37-9.02zm-204.59 11.32 2.59.97-4.29 8.68-1.67-.63 3.37-9.02zm6.13 2.29 2.59.97-4.28 8.68-1.68-.63 3.37-9.02zm5.87 8.97 3.55 1.33 1.1-2.95 2.6.23-1.35 3.6 7.95 2.97-.74 2-7.95-2.98-2.63 7.03c-.54 1.45-.59 2.65-.14 3.61s1.31 1.68 2.62 2.17c.89.33 1.73.45 2.52.36a13.2 13.2 0 0 0 2.2-.43l.12 2.04a9.46 9.46 0 0 1-6.14-.19c-.8-.3-1.5-.69-2.12-1.18s-1.1-1.07-1.46-1.75a5.4 5.4 0 0 1-.6-2.3c-.04-.87.13-1.82.52-2.85l2.76-7.39-3.55-1.32.74-2zm27.84 25.23a9.88 9.88 0 0 1-3.46.54 12.35 12.35 0 0 1-3.92-.76 8.96 8.96 0 0 1-2.95-1.73 6.46 6.46 0 0 1-1.7-2.43 7.3 7.3 0 0 1-.49-2.98c.04-1.07.28-2.2.72-3.4a10.67 10.67 0 0 1 1.77-3.13 6.9 6.9 0 0 1 2.42-1.88c.9-.41 1.88-.62 2.94-.62s2.17.22 3.32.65c.83.3 1.62.73 2.35 1.25s1.3 1.2 1.7 2.04c.4.84.57 1.85.5 3.04-.05 1.19-.45 2.6-1.17 4.26l-11.5-4.3c-.66 1.8-.68 3.3-.05 4.55a5.82 5.82 0 0 0 3.35 2.76c.53.2 1.09.33 1.66.4.57.07 1.13.1 1.67.1a8.42 8.42 0 0 0 2.55-.4l.29 2.03zm-2.01-13.75c-.65-.24-1.3-.4-1.93-.48a4.11 4.11 0 0 0-3.38 1c-.49.41-.91 1-1.28 1.74l9.23 3.44c.39-1.35.35-2.52-.12-3.52s-1.31-1.73-2.52-2.18zm13.8 11.6-3.03-9.41 2.98 1.11 2.2 7.2 6.5-3.95 2.67 1-8.41 5 3.21 10.02-2.86-1.07-2.45-7.87-7.1 4.3-2.72-1 9.01-5.33zm13.97-3.06 3.54 1.32 1.1-2.95 2.6.22-1.34 3.6 7.95 2.98-.75 2-7.95-2.98-2.62 7.03c-.54 1.45-.6 2.65-.15 3.6.44.97 1.32 1.69 2.62 2.18.9.33 1.73.45 2.52.36a13.4 13.4 0 0 0 2.21-.43l.12 2.04a9.51 9.51 0 0 1-6.14-.19c-.8-.3-1.5-.69-2.12-1.18s-1.11-1.07-1.47-1.75a5.38 5.38 0 0 1-.6-2.31 7.2 7.2 0 0 1 .52-2.84l2.76-7.39-3.54-1.32.74-2zm18.84 12.97 10.18 3.8-.82 2.2-10.18-3.8.82-2.2zm16.89.37 3.55 1.32 1.1-2.95 2.6.22-1.35 3.6 7.95 2.98-.75 1.99-7.95-2.97-2.62 7.03c-.54 1.45-.6 2.65-.15 3.6s1.32 1.69 2.63 2.17a5.3 5.3 0 0 0 2.51.37 13.4 13.4 0 0 0 2.21-.43l.12 2.04a9.46 9.46 0 0 1-6.14-.19c-.8-.3-1.5-.69-2.12-1.18a5.37 5.37 0 0 1-2.06-4.06 7.2 7.2 0 0 1 .52-2.85l2.75-7.38-3.54-1.32.74-2zm25.81 13.37-.1 9.38.2.08 6.43-10.76 2.17.8-8.48 13.8-2.65-.98.21-9.29-.09-.03-6.04 7.1-2.65-.98 2.43-16.06 2.3.86-1.93 12.51.18.07 6-7.26 2.02.75zm7.92 7.7c.9-2.4 2.23-4.07 4-5 1.77-.94 3.82-.97 6.14-.1a8.34 8.34 0 0 1 3 1.81 6.75 6.75 0 0 1 2.04 5.46c-.07 1.06-.3 2.14-.71 3.23-.45 1.2-1 2.2-1.69 3.05a6.6 6.6 0 0 1-5.18 2.65 8.64 8.64 0 0 1-3.28-.6 8.32 8.32 0 0 1-2.99-1.81 6.71 6.71 0 0 1-2.05-5.46c.07-1.06.3-2.14.72-3.23zm2.47.92c-.26.7-.44 1.42-.53 2.18s-.05 1.48.12 2.18a4.49 4.49 0 0 0 2.99 3.22c1.58.6 2.96.55 4.13-.14s2.1-1.98 2.82-3.88c.26-.72.44-1.45.53-2.2.08-.74.04-1.47-.14-2.17s-.5-1.33-.98-1.89c-.48-.56-1.15-1-2.02-1.33-1.59-.6-2.96-.55-4.11.13-1.16.67-2.1 1.98-2.81 3.9zm23.25-6.58 2.6.96-4.29 8.68-1.68-.62 3.37-9.02zm6.14 2.28 2.59.97-4.28 8.68-1.68-.62 3.37-9.03z" fill="#FFF"/><g fill="#FFF"><path d="M484.3 364.7c-3.31 0-7.22-.8-11.77-2.96a2 2 0 1 1 1.7-3.61c8.94 4.22 16.63 3.2 21.1-2.8 3.93-5.27 3.9-12.85-.06-17.26-8.21-9.13-21.19-1.4-21.31-1.33a2 2 0 0 1-3.04-1.85l1.64-23a2 2 0 0 1 1.68-1.83l24.24-3.88a2 2 0 0 1 .63 3.95l-22.67 3.63-1.28 17.91c6.27-2.6 16.15-4 23.08 3.73 5.28 5.87 5.4 15.46.3 22.31a17.6 17.6 0 0 1-14.24 7zm25.03-26.6a2 2 0 0 1-.28-3.98l24.26-3.52a2 2 0 0 1 .58 3.96l-24.27 3.52c-.1.02-.2.02-.29.02z"/><path d="M523.35 347.22a2 2 0 0 1-2-1.84l-2.2-26.26a2 2 0 0 1 3.99-.34l2.2 26.27a2 2 0 0 1-2 2.17z"/></g></svg>
