<svg xmlns="http://www.w3.org/2000/svg" viewBox="0 0 1925 1050" xml:space="preserve"><path fill="#FFF" d="M-.27 96.11v81.05h526.8V96.1H-.28zm157.39 63.74a22.85 22.85 0 1 1 0-45.7 22.85 22.85 0 0 1 0 45.7z"/><path fill="#FFF" d="M521.52 101.11v904.64H4.74V101.11h516.78m5-5H-.26v914.64h526.78V96.11z"/><g fill="#FFD829" stroke="#000" stroke-width="5" stroke-miterlimit="10"><path d="M263.11 367.2v-73.19m-77.04 77.92a77.04 77.04 0 0 1 154.08 0H186.07z"/><path d="M263.11 295.15s-38.52 18.12-39.97 66.75m40.46-66.75s38.51 18.12 39.96 66.75"/></g><circle cx="263.11" cy="268.33" r="25.68"/><path d="M263.13 427.98a72.03 72.03 0 0 1 55.52-26.07 71.92 71.92 0 0 1 48.93 19.12c4.73-18 7.83-38.88 6-60.25l-.04.03v-.03H152.68c-1.83 21.37 1.26 42.25 6 60.25a71.92 71.92 0 0 1 48.92-19.12 72.02 72.02 0 0 1 55.53 26.07zm80.91 275.63c-37.97-52.26-35.79-112.16-25.11-157.34h-.28a72.03 72.03 0 0 1-55.52-26.06 72.03 72.03 0 0 1-55.53 26.06h-.27c10.67 45.18 12.85 105.08-25.11 157.34-42.81 58.93-61.78 109.91-69.54 148.79h300.9c-7.76-38.88-26.73-89.86-69.54-148.79z"/><path fill="#FFD829" d="M113.54 930.95c-1.65-7.02-6.78-34.41 1.2-76.05h296.78c4.78 24.96 4.8 44.56 3.93 56.73a123.58 123.58 0 0 1-2.73 19.32H113.54z"/><path d="M409.45 857.4c6.77 36.95 3.09 62.15 1.26 71.05H115.55c-1.84-8.91-5.52-34.1 1.26-71.05h292.64m4.13-5h-300.9c-10.17 50.91-1.09 81.05-1.09 81.05h303.07s9.08-30.14-1.08-81.05zm-94.93-445.49c15.93 0 31.18 5.6 43.3 15.8-8.25 29.63-20.79 50.85-20.92 51.07l-.02.03-.02.03c-.67 1.17-16.13 28.18-25.97 67.34-18.66-1-36-9.68-48.05-24.17l-3.84-4.62-3.85 4.62a67.02 67.02 0 0 1-48.05 24.17c-9.83-39.16-25.3-66.17-25.97-67.34l-.02-.03-.02-.03c-.13-.22-12.67-21.44-20.9-51.06a66.96 66.96 0 0 1 43.28-15.8 67.03 67.03 0 0 1 51.68 24.25l3.85 4.63 3.84-4.63a67.03 67.03 0 0 1 51.68-24.26m0-5a72.03 72.03 0 0 0-55.52 26.07 72.03 72.03 0 0 0-55.53-26.07 71.92 71.92 0 0 0-48.92 19.12c8.5 32.28 22.25 55.31 22.25 55.31s16.7 28.9 26.4 69.93h.27a72.03 72.03 0 0 0 55.53-26.06 72.03 72.03 0 0 0 55.52 26.06h.28c9.69-41.04 26.4-69.93 26.4-69.93s13.75-23.03 22.25-55.31a71.92 71.92 0 0 0-48.93-19.12z"/><circle fill="#FFD829" cx="44.24" cy="137" r="22.85"/><circle cx="100.68" cy="137" r="22.85"/><path fill="#FFF" d="M1575.78 480.31v76.44h348.75v-76.44h-348.75zm148.44 60.12a21.55 21.55 0 1 1 0-43.11 21.55 21.55 0 0 1 0 43.1z"/><circle fill="#FFD829" cx="1617.5" cy="518.87" r="21.55"/><circle cx="1670.73" cy="518.87" r="21.55"/><path fill="#FFF" d="M1920.04 485.31v468.72h-339.77V485.31h339.77m5-5h-349.77v478.72h349.77V480.31z"/><circle fill="#FFF" cx="1750.92" cy="647.16" r="39.44"/><path fill="#FFD829" stroke="#FFF" stroke-width="5" stroke-miterlimit="10" d="M1793.26 857.19h-84.67l19.81-143.45h45.04z"/><path fill="#FFF" d="M1849.2 887.68h-196.56v-27.8c0-14.85 12.15-27 27-27h142.56c14.85 0 27 12.15 27 27v27.8zm-44.97-160.57c6.94 0 11.76-7.04 9.11-13.45a35.23 35.23 0 0 0-62.42-5.22 35.23 35.23 0 0 0-62.42 5.22c-2.65 6.41 2.18 13.45 9.12 13.45h106.6z"/><path fill="#FFD829" d="m1310.38 36.76-660.5 632.7 364.41 380.41 660.5-632.7-364.41-380.41zm-208.71 847.62-47.13 17.43-18.6 44.93a4.84 4.84 0 0 1-8.04 1.7L781.8 691.82a4.84 4.84 0 0 1 1.88-7.92l45.76-16.08a4.84 4.84 0 0 0 2.91-2.83l16.82-43.71a4.84 4.84 0 0 1 8-1.61l246.31 256.82a4.84 4.84 0 0 1-1.81 7.89zm219.95-245.6-56.86-59.28 11.33-256.36 53.2-51.02c99.13 103.37 95.7 267.53-7.67 366.67z"/><path d="m1310.38 36.76-58.53 56.06 364.4 380.41 58.53-56.06-364.4-380.41zM1375 196.37a22.85 22.85 0 1 1 33.01-31.61 22.85 22.85 0 0 1-33 31.61z"/><circle cx="1210.24" cy="379.73" r="22.44"/><path fill="none" stroke="#FFF" stroke-width="5" stroke-miterlimit="10" d="m1264.76 579.5 56.86 59.29c103.36-99.14 106.8-263.3 7.66-366.66l-53.2 51.01-11.32 256.36z"/><path fill="#FFF" d="m879.99 643.91 198.42 206.9 195.99-261.26-132.28-137.93z"/><path fill="none" stroke="#FFF" stroke-width="5" stroke-miterlimit="10" d="m781.8 691.82 246.1 256.61a4.84 4.84 0 0 0 8.04-1.69l18.7-45.2c.5-1.34-1.93.94-.6.45l47.63-17.61a4.84 4.84 0 0 0 1.81-7.89l-246.3-256.82a4.84 4.84 0 0 0-8.01 1.6L832.35 665a4.84 4.84 0 0 1-2.9 2.83l-45.77 16.08a4.84 4.84 0 0 0-1.89 7.92z"/><path fill="#FFF" d="m1122.9 273.82-53.77 51.57 53 55.27a63.12 63.12 0 0 0 20.43 70.54l-.44.42 132.28 137.94c76.18-73.06 78.7-194.04 5.65-270.22l-157.14-45.52zm76.78 95.07a27.84 27.84 0 1 1 38.55 40.19 27.84 27.84 0 0 1-38.55-40.19z"/><path fill="none" stroke="#FFF" stroke-width="5" stroke-miterlimit="10" d="M1054.65 901.54 830.66 667.98"/><path fill="none" stroke="#FFD829" stroke-width="5" stroke-miterlimit="10" d="M1132.53 331a22.44 22.44 0 0 1-31.73-.66l-17.65-18.4"/><circle fill="#FFD829" cx="1313.43" cy="99.05" r="22.85"/><circle fill="#FFF" cx="1352.47" cy="139.81" r="22.85"/><path d="m1310.22 43.83 357.5 373.19-653.28 625.79-357.49-373.2 653.27-625.78m.16-7.07-660.5 632.7 364.41 380.41 660.5-632.7-364.41-380.41z"/><g fill="#FFF"><path d="m611.49 80.87 124.43 134.34-62.18 57.6 340.25 156.08-234.93-253.64L654.63 40.91z"/><path d="m697.77.95-43.14 39.96 124.43 134.34 234.93 253.64L884.38 77.7l-62.18 57.59z"/></g></svg>