<svg xmlns="http://www.w3.org/2000/svg" viewBox="0 0 1080 1080" xml:space="preserve"><path fill="#FFF" d="M-.14 71.36v60.99h396.42v-61H-.14zm118.44 47.96a17.2 17.2 0 1 1 0-34.4 17.2 17.2 0 0 1 0 34.4z"/><path fill="#FFF" d="M392.28 75.36v680.28H3.86V75.36h388.42m4-4H-.14v688.28h396.42V71.36z"/><g fill="#FFD829" stroke="#000" stroke-width="4" stroke-miterlimit="10"><path d="M198.06 275.36v-55.08m-57.98 58.64a57.97 57.97 0 1 1 115.95 0H140.08z"/><path d="M198.06 221.14s-28.99 13.64-30.08 50.23m30.44-50.23s28.99 13.64 30.07 50.23"/></g><circle cx="198.06" cy="200.96" r="19.32"/><path d="M198.07 321.1a54.2 54.2 0 0 1 41.79-19.62c14.2 0 27.13 5.46 36.81 14.38 3.57-13.54 5.9-29.25 4.51-45.33l-.02.02v-.02h-166.2c-1.38 16.08.95 31.79 4.51 45.33a54.12 54.12 0 0 1 36.82-14.38 54.2 54.2 0 0 1 41.78 19.61zm60.89 207.41c-28.57-39.32-26.93-84.4-18.9-118.4h-.2a54.2 54.2 0 0 1-41.79-19.6 54.2 54.2 0 0 1-41.78 19.6h-.2c8.02 34 9.66 79.08-18.9 118.4-32.22 44.35-46.5 82.72-52.33 111.97h226.43c-5.84-29.26-20.12-67.62-52.33-111.97z"/><path fill="#FFD829" d="M85.6 699.47c-1.26-5.4-5.04-25.9.9-57h223.14c5.94 31.1 2.16 51.6.9 57H85.6z"/><path d="M307.98 644.48c5 27.4 2.34 46.17.96 53H87.2c-1.38-6.84-4.04-25.6.95-53h219.82m3.3-4H84.86c-7.64 38.31-.8 61-.8 61H312.1s6.84-22.69-.81-61zm-71.41-335a50.15 50.15 0 0 1 32.3 11.74c-6.19 22.18-15.57 38.05-15.67 38.22l-.01.02-.02.03c-.5.87-12.1 21.14-19.52 50.54a50.2 50.2 0 0 1-35.8-18.09l-3.07-3.7-3.07 3.7a50.2 50.2 0 0 1-35.8 18.09c-7.4-29.4-19.01-49.67-19.52-50.54l-.01-.03-.02-.02c-.1-.17-9.48-16.04-15.67-38.22a50.15 50.15 0 0 1 32.3-11.74c15 0 29.11 6.62 38.72 18.17l3.07 3.7 3.08-3.7a50.2 50.2 0 0 1 38.7-18.17m0-4a54.2 54.2 0 0 0-41.78 19.61 54.2 54.2 0 0 0-41.78-19.61 54.12 54.12 0 0 0-36.82 14.38c6.4 24.3 16.75 41.63 16.75 41.63s12.57 21.74 19.86 52.62h.2a54.2 54.2 0 0 0 41.8-19.6 54.2 54.2 0 0 0 41.78 19.6h.2c7.3-30.88 19.87-52.62 19.87-52.62s10.35-17.33 16.74-41.63a54.12 54.12 0 0 0-36.81-14.38z"/><circle fill="#FFD829" cx="33.35" cy="102.13" r="17.2"/><circle cx="75.83" cy="102.13" r="17.2"/><path fill="#FFF" d="M743.66-.35v57.52h262.44V-.35H743.66zm111.7 45.23a16.22 16.22 0 1 1 0-32.44 16.22 16.22 0 0 1 0 32.45z"/><circle fill="#FFD829" cx="775.05" cy="28.66" r="16.22"/><circle cx="815.11" cy="28.66" r="16.22"/><path fill="#FFF" d="M1002.48 3.65V355.9h-255.2V3.65h255.2m4-4h-263.2V359.9h263.2V-.35z"/><circle fill="#FFF" cx="875.46" cy="125.21" r="29.68"/><path fill="#FFD829" stroke="#FFF" stroke-width="4" stroke-miterlimit="10" d="M907.31 283.26H843.6l14.91-112.47h33.89z"/><path fill="#FFF" d="M949.41 306.2H801.5v-14.24c0-14.85 12.15-27 27-27h93.91c14.85 0 27 12.15 27 27v14.24zm-33.84-120.83c5.22 0 8.85-5.3 6.86-10.13a26.51 26.51 0 0 0-46.97-3.92 26.51 26.51 0 0 0-46.97 3.93 7.37 7.37 0 0 0 6.85 10.12h80.23z"/><path fill="#FFD829" d="M700.96 295.32 264.1 827.18l306.32 251.62 436.87-531.87-306.33-251.61zm-80.07 652-33.65 17.24-9.87 35.24a3.64 3.64 0 0 1-5.86 1.98l-206.85-169.7a3.64 3.64 0 0 1 .7-6.08l32.75-16.12a3.64 3.64 0 0 0 1.92-2.37l8.65-34.17a3.64 3.64 0 0 1 5.84-1.92l207.03 169.85a3.64 3.64 0 0 1-.65 6.05zm142.36-203.19-47.79-39.2-14.48-192.56 35.18-42.88c83.32 68.36 95.45 191.32 27.1 274.64z"/><path d="m700.96 295.32-38.7 47.12 306.32 251.62 38.71-47.13-306.33-251.61zm62.58 113.47a17.2 17.2 0 1 1 21.84-26.58 17.2 17.2 0 0 1-21.84 26.58z"/><circle cx="656.84" cy="560.54" r="16.89"/><path fill="none" stroke="#FFF" stroke-width="4" stroke-miterlimit="10" d="m715.46 704.92 47.8 39.21c68.35-83.32 56.22-206.29-27.1-274.64l-35.18 42.88 14.48 192.55z"/><path fill="#FFF" d="m433.74 787.49 166.77 136.83 123.06-212.75-111.19-91.21z"/><path fill="none" stroke="#FFF" stroke-width="4" stroke-miterlimit="10" d="m364.66 832.08 206.85 169.7a3.64 3.64 0 0 0 5.86-1.98l9.93-35.45c.24-1.04-1.37.88-.42.4l34.02-17.43a3.64 3.64 0 0 0 .64-6.05L414.52 771.42a3.64 3.64 0 0 0-5.84 1.92l-8.65 34.17a3.64 3.64 0 0 1-1.92 2.37L365.36 826a3.64 3.64 0 0 0-.7 6.08z"/><path fill="#FFF" d="m582.1 489.22-35.56 43.35 44.55 36.55A47.5 47.5 0 0 0 612.67 620l-.29.36 111.18 91.21c50.38-61.4 41.44-152.02-19.96-202.4l-121.5-19.95zM648 553.4a20.95 20.95 0 1 1 32.4 26.58A20.95 20.95 0 0 1 648 553.4z"/><path fill="none" stroke="#FFF" stroke-width="4" stroke-miterlimit="10" d="M587.3 964.35 399.03 809.89"/><path fill="none" stroke="#FFD829" stroke-width="4" stroke-miterlimit="10" d="M594.41 531.1a16.88 16.88 0 0 1-23.76 2.33l-14.83-12.16"/><circle fill="#FFD829" cx="708.82" cy="341.59" r="17.2"/><circle fill="#FFF" cx="741.64" cy="368.54" r="17.2"/><path d="m701.51 300.95 300.15 246.53-431.79 525.69-300.14-246.54L701.5 300.95m-.55-5.63L264.1 827.18l306.32 251.62 436.87-531.87-306.33-251.61z"/><path fill="#FFF" d="m968.8 895.32 38.01-51.08-272.73-68.5 143.98 241.54 38.01-51.08 110.36 82.1 26.36-35.43 26.37-35.44z"/></svg>