<?xml version="1.0" encoding="utf-8"?>
<!-- Generator: Adobe Illustrator 16.0.0, SVG Export Plug-In . SVG Version: 6.00 Build 0)  -->
<!DOCTYPE svg PUBLIC "-//W3C//DTD SVG 1.1//EN" "http://www.w3.org/Graphics/SVG/1.1/DTD/svg11.dtd">
<svg version="1.1" id="Layer_1" xmlns="http://www.w3.org/2000/svg" xmlns:xlink="http://www.w3.org/1999/xlink" x="0px" y="0px"
	 width="1409.941px" height="775.793px" viewBox="0 0 1409.941 775.793" enable-background="new 0 0 1409.941 775.793"
	 xml:space="preserve">
<g>
	<g>
		<g>
			<path d="M760.941,199.46h-684c-28.122,0-51-22.879-51-51s22.878-51,51-51h684c28.121,0,51,22.879,51,51
				S789.062,199.46,760.941,199.46z M76.941,101.46c-25.916,0-47,21.084-47,47s21.084,47,47,47h684c25.916,0,47-21.084,47-47
				s-21.084-47-47-47H76.941z"/>
		</g>
		<g>
			<g>
				<path fill="#FFFFFF" d="M464.554,775.461v-96.426c0-71.53,57.985-129.512,129.511-129.512h613.5
					c71.529,0,129.51,57.981,129.51,129.512v96.426H464.554z"/>
			</g>
			<g>
				<path fill="#F68635" d="M984.755,592.546V421.985H816.874v173.342h0.07c0.063,46.305,37.617,83.823,83.938,83.823
					c46.358,0,83.94-37.582,83.94-83.94C984.822,594.316,984.782,593.433,984.755,592.546z"/>
				<path d="M900.882,681.15c-46.654,0-84.784-37.42-85.912-83.823h-0.025l-0.07-2V419.985h171.881l0.021,173.132
					c0.023,0.695,0.047,1.392,0.047,2.093C986.822,642.598,948.27,681.15,900.882,681.15z M818.874,593.401l0.07,1.923
					c0.062,45.119,36.819,81.826,81.938,81.826c45.182,0,81.94-36.759,81.94-81.94c0-0.655-0.022-1.306-0.045-1.956l-0.021-0.646
					l-0.001-168.622H818.874V593.401z"/>
			</g>
			<g>
				<g>
					<g>
						<circle cx="733.819" cy="177.222" r="92.479"/>
					</g>
					<g>
						<circle cx="852.632" cy="102.61" r="92.48"/>
					</g>
					<g>
						<circle cx="1135.8" cy="336.617" r="92.48"/>
					</g>
					<g>
						<circle cx="1100.405" cy="195.033" r="92.479"/>
					</g>
					<g>
						<circle cx="998.15" cy="100.644" r="92.48"/>
					</g>
				</g>
				<g>
					<g>
						<g>
							<defs>
								<path id="SVGID_1_" d="M1110.113,348.423c-2.449-0.987-4.926-1.807-7.414-2.498
									c8.673-85.637-39.494-170.196-123.348-203.953c-83.85-33.755-177.174-6.155-230.253,61.605
									c-2.271-1.225-4.624-2.348-7.073-3.335c-35.295-14.208-75.424,2.886-89.631,38.179
									c-14.209,35.295,2.884,75.422,38.179,89.63c5.376,2.165,10.864,3.592,16.358,4.353
									c2.491,76.171,48.997,147.366,124.24,177.656c75.243,30.291,158.105,11.174,212.679-42.025
									c4.485,3.259,9.434,6.031,14.812,8.197c35.293,14.207,75.421-2.883,89.629-38.18
									C1162.499,402.76,1145.406,362.63,1110.113,348.423z"/>
							</defs>
							<defs>
								<path id="SVGID_2_" d="M905.186,526.464c-25.627,0-50.78-4.895-74.761-14.549
									c-73.121-29.436-122.204-99.099-125.431-177.781c-5.198-0.845-10.292-2.265-15.168-4.228
									c-17.565-7.071-31.326-20.56-38.747-37.979s-7.612-36.688-0.541-54.253c10.866-26.992,36.687-44.434,65.783-44.434
									c9.067,0,17.967,1.731,26.451,5.146c1.915,0.772,3.854,1.66,5.786,2.647c18.496-23.198,42.404-42.305,69.237-55.314
									c27.192-13.184,57.464-20.152,87.541-20.152c25.627,0,50.781,4.896,74.762,14.549c41.102,16.546,74.762,45.37,97.344,83.355
									c21.571,36.287,31.278,79.188,27.407,120.994c2.092,0.63,4.107,1.335,6.012,2.103c17.563,7.069,31.323,20.558,38.744,37.979
									c7.42,17.42,7.612,36.688,0.541,54.252c-10.865,26.992-36.687,44.435-65.779,44.435c-0.001,0,0,0-0.001,0
									c-9.068,0-17.968-1.731-26.451-5.146c-4.885-1.968-9.542-4.475-13.867-7.462
									C1006.994,506.134,956.484,526.464,905.186,526.464z M716.321,197.24c-27.455,0-51.819,16.457-62.072,41.928
									c-6.673,16.574-6.492,34.755,0.51,51.191c7.001,16.438,19.986,29.164,36.561,35.836c5.091,2.05,10.436,3.473,15.886,4.227
									l1.669,0.231l0.055,1.685c2.544,77.782,50.819,146.814,122.988,175.866c23.504,9.462,48.154,14.26,73.267,14.26
									c50.818,0,100.851-20.36,137.269-55.862l1.208-1.177l1.364,0.991c4.441,3.227,9.28,5.905,14.383,7.96
									c8.006,3.223,16.402,4.857,24.957,4.857c27.453,0.001,51.816-16.457,62.069-41.929c6.672-16.573,6.491-34.753-0.511-51.19
									c-7.001-16.438-19.984-29.164-36.559-35.836c-2.284-0.921-4.64-1.715-7.202-2.427l-1.625-0.451l0.17-1.677
									c4.201-41.481-5.283-84.173-26.705-120.208c-22.13-37.226-55.118-65.473-95.399-81.688
									c-23.504-9.462-48.154-14.26-73.268-14.26c-29.477,0-59.144,6.83-85.796,19.752c-26.792,12.989-50.606,32.178-68.868,55.491
									l-1.04,1.327l-1.483-0.8c-2.291-1.235-4.603-2.326-6.872-3.241C733.271,198.874,724.875,197.24,716.321,197.24z"/>
							</defs>
							<use xlink:href="#SVGID_1_"  overflow="visible" fill="#F68635"/>
							<use xlink:href="#SVGID_2_"  overflow="visible"/>
							<clipPath id="SVGID_3_">
								<use xlink:href="#SVGID_1_"  overflow="visible"/>
							</clipPath>
							<clipPath id="SVGID_4_" clip-path="url(#SVGID_3_)">
								<use xlink:href="#SVGID_2_"  overflow="visible"/>
							</clipPath>
						</g>
						<g>
							<line fill="#DDF6C5" x1="690.723" y1="234.207" x2="712.769" y2="292.589"/>
							<path d="M712.77,294.59c-0.808,0-1.569-0.494-1.872-1.294l-22.046-58.382c-0.39-1.034,0.131-2.188,1.165-2.578
								c1.035-0.39,2.188,0.132,2.578,1.164l22.046,58.382c0.39,1.034-0.131,2.188-1.165,2.578
								C713.243,294.548,713.004,294.59,712.77,294.59z"/>
						</g>
						<g>
							<line fill="#DDF6C5" x1="1115.931" y1="405.381" x2="1059.585" y2="432.205"/>
							<path d="M1059.586,434.205c-0.747,0-1.464-0.421-1.807-1.141c-0.475-0.997-0.052-2.19,0.946-2.665l56.346-26.824
								c0.996-0.474,2.19-0.051,2.665,0.946s0.052,2.19-0.946,2.665l-56.346,26.824
								C1060.167,434.143,1059.874,434.205,1059.586,434.205z"/>
						</g>
					</g>
					<g>
						<g>
							<path d="M988.979,404.53c-8.247,0-16.524-1.561-24.391-4.727c-19.988-8.046-34.721-25.432-39.41-46.507
								c-0.24-1.078,0.439-2.146,1.518-2.387c1.084-0.238,2.147,0.44,2.387,1.518c4.403,19.788,18.235,36.111,37,43.665
								c18.766,7.554,40.051,5.369,56.935-5.85c0.92-0.609,2.161-0.36,2.772,0.56s0.36,2.161-0.56,2.772
								C1014.324,400.821,1001.69,404.53,988.979,404.53z"/>
						</g>
					</g>
					<g>
						<g>
							<path d="M830.492,340.729c-8.245,0-16.523-1.561-24.387-4.726c-19.987-8.045-34.721-25.431-39.411-46.506
								c-0.24-1.078,0.439-2.146,1.518-2.387c1.084-0.238,2.147,0.44,2.387,1.518c4.404,19.788,18.236,36.111,37.001,43.664
								c18.764,7.555,40.048,5.366,56.935-5.85c0.919-0.609,2.163-0.36,2.772,0.56c0.611,0.92,0.36,2.161-0.56,2.772
								C855.838,337.021,843.205,340.729,830.492,340.729z"/>
						</g>
					</g>
					<g>
						<line fill="#DDF6C5" x1="899.523" y1="336.581" x2="885.291" y2="371.937"/>
						<path d="M885.29,373.938c-0.248,0-0.501-0.047-0.746-0.146c-1.024-0.413-1.521-1.578-1.108-2.603l14.232-35.355
							c0.413-1.024,1.574-1.522,2.603-1.108c1.024,0.413,1.521,1.578,1.108,2.603l-14.232,35.355
							C886.832,373.463,886.082,373.938,885.29,373.938z"/>
					</g>
					<g>
						<path d="M783.163,356.071l-0.004-0.003c-0.021,0.048-0.036,0.095-0.056,0.144c-0.019,0.046-0.039,0.091-0.059,0.14
							l0.005,0.001c-20.559,51.503,4.422,109.972,55.9,130.695c51.485,20.726,110.002-4.131,130.861-55.512l0.005,0.003
							c0.02-0.048,0.036-0.095,0.054-0.142c0.021-0.049,0.04-0.094,0.061-0.141l-0.005-0.002"/>
					</g>
					<g>
						<g>
							<path fill="#FFFFFF" d="M876.771,393.753c-4.542,11.281-17.368,16.746-28.648,12.205
								c-11.282-4.541-16.744-17.369-12.203-28.649L876.771,393.753z"/>
						</g>
						<g>
							<path fill="#FFFFFF" d="M917.17,410.018c-4.542,11.28-17.368,16.743-28.649,12.202c-11.28-4.54-16.745-17.367-12.203-28.649
								L917.17,410.018z"/>
						</g>
					</g>
				</g>
			</g>
			<g>
				<g>
					<polygon fill="#FFFFFF" points="236.273,775.793 166.925,661.655 335.331,561.379 462.94,775.46 					"/>
				</g>
				<g>
					<g>
						<path fill="#F68635" d="M419.511,394.544c-16.578-10.083-38.19-4.815-48.273,11.761l-35.662,58.47l-7.717-12.871
							L87.284,596.155l20.823,34.729c24.994,41.687,79.051,55.216,120.735,30.22l89.619-53.737
							c14.121-8.467,25.557-19.298,32.813-32.824c1.542-2.625,2.423-4.539,3.667-6.583l76.33-125.145
							C441.353,426.237,436.087,404.627,419.511,394.544z"/>
						<path d="M183.667,675.647C183.667,675.647,183.668,675.647,183.667,675.647c-31.492,0-61.102-16.758-77.276-43.734
							l-20.823-34.729c-0.568-0.947-0.26-2.176,0.687-2.743l240.575-144.252c0.455-0.273,1-0.354,1.514-0.226
							s0.957,0.457,1.229,0.912l6.016,10.034l33.94-55.646c6.794-11.171,18.668-17.841,31.759-17.841
							c6.78,0,13.44,1.872,19.261,5.412c17.492,10.64,23.067,33.527,12.43,51.02l-76.332,125.146
							c-0.605,0.996-1.139,1.992-1.704,3.047c-0.549,1.027-1.172,2.19-1.946,3.508c-7.036,13.118-18.322,24.421-33.51,33.526
							l-89.619,53.737C215.877,671.211,199.898,675.647,183.667,675.647z M90.028,596.842l19.794,33.015
							c15.456,25.777,43.751,41.791,73.845,41.791c15.507,0,30.773-4.239,44.147-12.258l89.619-53.737
							c14.559-8.73,25.352-19.515,32.08-32.055c0.771-1.316,1.348-2.395,1.906-3.438c0.591-1.104,1.15-2.147,1.813-3.239
							l76.332-125.146c9.49-15.606,4.515-36.028-11.092-45.521c-5.194-3.159-11.136-4.83-17.182-4.83
							c-11.684,0-22.279,5.952-28.343,15.921l-35.663,58.472c-0.363,0.596-1.01,0.959-1.708,0.959c-0.002,0-0.005,0-0.008,0
							c-0.7-0.003-1.348-0.371-1.708-0.972l-6.688-11.155L90.028,596.842z"/>
					</g>
					<g>
						<path fill="#F68635" d="M457.945,403.526l108.319-65.13c5.536-3.328,7.328-10.51,4.007-16.048
							c-0.002-0.004-0.005-0.008-0.008-0.012c-3.33-5.541-10.521-7.33-16.061-4L445.896,383.46
							c-12.159,7.289-27.153,5.858-37.667-2.454l135.535-81.271c5.543-3.322,7.343-10.512,4.019-16.057
							c-3.324-5.543-10.512-7.342-16.057-4.018L396.193,360.93c-2.379-13.19,3.42-27.093,15.578-34.382l107.779-64.625
							c5.544-3.324,7.344-10.514,4.02-16.057c-3.324-5.543-10.513-7.342-16.057-4.018l-107.779,64.624
							c-23.319,13.983-32.931,42.224-24.399,66.963L7.687,593.883c-5.544,3.322-7.343,10.512-4.019,16.056
							c3.324,5.543,10.513,7.342,16.055,4.02l367.648-220.447C405.176,412.69,434.615,417.518,457.945,403.526z"/>
						<path fill="#FFFFFF" d="M13.717,617.625c-4.794,0-9.302-2.552-11.765-6.658c-1.882-3.14-2.429-6.824-1.541-10.375
							s3.107-6.543,6.247-8.425l366.276-219.625c-8.037-25.615,2.628-53.907,25.771-67.784l107.779-64.624
							c2.13-1.278,4.563-1.953,7.037-1.953c4.794,0,9.301,2.551,11.764,6.657c1.882,3.139,2.43,6.823,1.541,10.374
							c-0.889,3.552-3.107,6.544-6.247,8.427l-107.779,64.625c-10.199,6.114-15.996,17.652-15.022,29.385l132.921-79.702
							c2.131-1.278,4.564-1.953,7.037-1.953c4.793,0,9.3,2.551,11.763,6.657c1.882,3.14,2.43,6.825,1.541,10.376
							s-3.107,6.543-6.247,8.425l-132.922,79.703c5.039,3.253,10.983,5.02,17.024,5.02c5.617,0,11.14-1.532,15.973-4.43
							l108.304-65.121c2.134-1.283,4.572-1.961,7.051-1.961c4.753,0,9.227,2.509,11.701,6.556l0.101,0.165
							c3.83,6.465,1.718,14.852-4.73,18.728l-108.318,65.13c-9.092,5.452-19.481,8.334-30.045,8.334
							c-15.764,0-30.941-6.367-41.902-17.526L20.751,615.674C18.622,616.95,16.189,617.625,13.717,617.625z M513.521,242.181
							c-1.749,0-3.47,0.479-4.98,1.383l-107.779,64.624c-21.997,13.191-31.896,40.357-23.537,64.596l0.529,1.533l-1.391,0.835
							L8.715,595.598c-2.223,1.333-3.794,3.451-4.423,5.966c-0.629,2.514-0.242,5.123,1.091,7.347
							c1.771,2.952,4.886,4.715,8.334,4.715c1.748,0,3.469-0.479,4.978-1.383l369.039-221.281l1.104,1.189
							c10.279,11.073,24.893,17.424,40.094,17.424c9.84,0,19.517-2.685,27.985-7.763l108.317-65.129
							c4.551-2.736,6.052-8.646,3.375-13.218l-0.06-0.098c-1.771-2.946-4.883-4.705-8.326-4.705c-1.752,0-3.478,0.48-4.99,1.389
							l-108.306,65.123c-5.457,3.271-11.691,5-18.032,5c-7.928,0-15.707-2.698-21.905-7.599l-2.271-1.796l138.018-82.759
							c2.223-1.333,3.793-3.451,4.423-5.966s0.242-5.124-1.091-7.348c-1.771-2.952-4.885-4.714-8.333-4.714
							c-1.749,0-3.471,0.479-4.98,1.383l-138.015,82.758l-0.514-2.849c-2.585-14.33,4.053-28.979,16.518-36.452l107.779-64.625
							c2.223-1.333,3.794-3.452,4.423-5.967c0.63-2.515,0.242-5.124-1.091-7.347C520.084,243.942,516.969,242.181,513.521,242.181z"
							/>
					</g>
					<g>
						<g>
							<path fill="#F68635" d="M256.343,537.329c16.618-10.02,21.966-31.607,11.949-48.225
								c10.018,16.617,31.61,21.967,48.227,11.947c16.618-10.019,21.969-31.609,11.952-48.227l-41.422-68.708
								c-10.019-16.618-31.61-21.968-48.228-11.951c-16.614,10.016-21.966,31.611-11.948,48.229
								c-10.018-16.617-31.609-21.97-48.228-11.951c-15.768,9.509-21.379,29.424-13.36,45.635
								c-10.59-14.661-30.824-18.999-46.588-9.494c-16.619,10.019-21.967,31.61-11.95,48.23
								c-10.017-16.62-31.612-21.969-48.226-11.952c-16.619,10.019-21.97,31.611-11.952,48.229L87.989,597.8
								c10.018,16.615,31.61,21.965,48.229,11.947c16.614-10.017,21.968-31.61,11.95-48.227
								c10.018,16.616,31.607,21.967,48.226,11.948c15.764-9.504,21.377-29.421,13.356-45.631
								C220.341,542.497,240.575,546.834,256.343,537.329z"/>
							<path d="M118.111,616.797c-13.152,0-25.052-6.716-31.835-17.964l-41.421-68.71c-5.121-8.494-6.627-18.475-4.241-28.103
								c2.386-9.627,8.378-17.75,16.873-22.871c5.791-3.491,12.407-5.336,19.136-5.336c8.955,0,17.329,3.112,23.902,8.65
								c-3.218-15.068,3.223-31.203,17.138-39.593c5.788-3.49,12.402-5.335,19.125-5.335c8.703,0,17.06,3.07,23.641,8.481
								c-3.044-15.031,3.543-31.062,17.182-39.287c5.792-3.491,12.409-5.337,19.137-5.337c8.944,0,17.31,3.106,23.881,8.634
								c-1.17-5.448-1.092-11.135,0.288-16.704c2.385-9.628,8.376-17.75,16.87-22.87c5.792-3.491,12.409-5.336,19.138-5.336
								c13.152,0,25.053,6.717,31.836,17.968l41.422,68.708c10.57,17.534,4.903,40.4-12.632,50.972
								c-5.792,3.492-12.41,5.338-19.14,5.338c-8.953,0-17.325-3.112-23.898-8.648c3.218,15.065-3.222,31.198-17.137,39.588
								c-5.79,3.49-12.405,5.335-19.129,5.335c0,0,0,0,0,0c-8.703,0-17.059-3.069-23.641-8.479
								c3.046,15.03-3.54,31.061-17.178,39.283c-5.792,3.492-12.41,5.337-19.139,5.337c-8.953,0-17.325-3.112-23.898-8.648
								c3.219,15.066-3.222,31.199-17.139,39.59C131.458,614.951,124.84,616.797,118.111,616.797z M76.623,477.813
								c-6,0-11.903,1.646-17.07,4.762c-7.58,4.569-12.927,11.817-15.056,20.408s-0.785,17.495,3.785,25.075l41.421,68.709
								c6.052,10.037,16.672,16.029,28.409,16.029c6.001,0,11.905-1.646,17.074-4.763c15.646-9.434,20.702-29.836,11.27-45.481
								c-0.195-0.323-0.288-0.68-0.288-1.031c0-0.678,0.345-1.339,0.968-1.714c0.946-0.57,2.175-0.267,2.746,0.681
								c6.052,10.038,16.671,16.03,28.407,16.03c6,0,11.904-1.646,17.073-4.763c14.637-8.824,20.169-27.726,12.596-43.031
								c-0.461-0.932-0.131-2.062,0.76-2.6c0.892-0.537,2.045-0.302,2.654,0.542c6.203,8.585,16.249,13.71,26.875,13.71
								c5.997,0,11.898-1.646,17.064-4.761c15.645-9.433,20.7-29.834,11.269-45.479c-0.195-0.323-0.288-0.68-0.288-1.031
								c0-0.678,0.345-1.339,0.968-1.714c0.946-0.57,2.175-0.266,2.746,0.681c6.051,10.038,16.671,16.03,28.407,16.03
								c6.001,0,11.906-1.646,17.074-4.764c15.646-9.433,20.703-29.835,11.272-45.481l-41.422-68.708
								c-6.052-10.039-16.673-16.032-28.41-16.032c-6,0-11.904,1.646-17.073,4.762c-7.578,4.568-12.923,11.815-15.052,20.407
								c-2.129,8.591-0.785,17.497,3.785,25.076c0.195,0.323,0.288,0.68,0.288,1.031c0,0.678-0.345,1.339-0.968,1.714
								c-0.948,0.568-2.176,0.265-2.746-0.681c-6.053-10.039-16.673-16.033-28.41-16.033c-6,0-11.904,1.646-17.072,4.763
								c-14.637,8.826-20.171,27.729-12.601,43.035c0.461,0.933,0.131,2.062-0.76,2.6c-0.891,0.538-2.044,0.302-2.654-0.542
								c-6.202-8.586-16.249-13.713-26.874-13.713c-5.996,0-11.895,1.646-17.06,4.761c-15.646,9.432-20.701,29.836-11.27,45.485
								c0.195,0.323,0.288,0.68,0.288,1.031c0,0.678-0.345,1.339-0.968,1.714c-0.946,0.569-2.175,0.265-2.745-0.681
								C98.982,483.807,88.361,477.813,76.623,477.813z"/>
						</g>
						<g>
							<path d="M268.303,491.146c-0.678,0-1.339-0.345-1.715-0.968l-41.416-68.738c-0.57-0.946-0.265-2.175,0.681-2.745
								c0.944-0.57,2.175-0.266,2.745,0.681l41.416,68.738c0.57,0.946,0.265,2.175-0.681,2.745
								C269.011,491.053,268.655,491.146,268.303,491.146z"/>
						</g>
						<g>
							<path d="M209.465,529.479c-0.678,0-1.34-0.345-1.715-0.969l-43.845-72.821c-0.57-0.946-0.265-2.175,0.682-2.745
								c0.947-0.568,2.175-0.264,2.745,0.683l43.845,72.821c0.57,0.946,0.265,2.175-0.682,2.745
								C210.172,529.388,209.816,529.479,209.465,529.479z"/>
						</g>
						<g>
							<path d="M148.979,564.72c-0.678,0-1.34-0.345-1.715-0.969l-43.504-72.247c-0.57-0.945-0.265-2.175,0.682-2.744
								c0.947-0.572,2.175-0.265,2.745,0.682l43.504,72.247c0.57,0.945,0.265,2.175-0.682,2.744
								C149.686,564.628,149.33,564.72,148.979,564.72z"/>
						</g>
					</g>
				</g>
				<g>
					<g>
						<path fill="#FFFFFF" d="M755.271,416.123c-0.361-28.345-23.632-51.028-51.976-50.667c-13.298,0.17-26.542-1.346-39.409-4.43
							l2.958,38.928c0.573,7.518-5.06,14.078-12.579,14.649c-7.519,0.571-14.078-5.061-14.649-12.58l-3.842-50.558
							c-3.914-1.75-7.768-3.639-11.536-5.701c-8.514-4.662-16.545-10.109-24.03-16.223l-13.911,37.031
							c-2.652,7.059-10.524,10.633-17.584,7.98c-7.06-2.651-10.632-10.524-7.98-17.584l18.189-48.416
							c-5.514-6.568-10.524-13.591-14.952-21.022c-4.037-6.777-7.511-13.786-10.461-20.956l-51.014-6.729
							c-7.476-0.985-12.737-7.847-11.751-15.323c0.986-7.476,7.847-12.737,15.324-11.75l38.667,5.102
							c-2.841-13.895-3.812-28.084-2.914-42.187l-41.905-26.647c-6.364-4.046-8.242-12.484-4.195-18.849
							c4.046-6.363,12.485-8.241,18.849-4.195l31.916,20.294c3.646-14.28,9.281-28.179,16.942-41.261
							c14.326-24.462,6.11-55.903-18.351-70.228c-24.46-14.326-55.901-6.11-70.228,18.35
							c-48.338,82.534-47.981,184.81,0.932,266.916c23.972,40.239,58.26,73.345,99.158,95.735
							c39.642,21.704,84.479,32.872,129.664,32.297C732.947,467.738,755.633,444.468,755.271,416.123z"/>
					</g>
					<g>
						<path fill="#F68635" d="M495.722,150.191c-4.047,6.364-2.168,14.803,4.195,18.849l41.905,26.647
							c0.629-9.889,2.195-19.729,4.664-29.397l-31.916-20.294C508.207,141.95,499.768,143.828,495.722,150.191z"/>
					</g>
					<g>
						<path fill="#F68635" d="M490.745,244.522c-0.986,7.477,4.275,14.338,11.751,15.323l51.014,6.729
							c-3.84-9.332-6.778-18.939-8.774-28.701l-38.667-5.102C498.592,231.785,491.731,237.047,490.745,244.522z"/>
					</g>
					<g>
						<path fill="#F68635" d="M654.266,414.604c7.52-0.571,13.152-7.132,12.579-14.649l-2.958-38.928
							c-9.632-2.309-19.048-5.51-28.113-9.561l3.842,50.558C640.188,409.543,646.748,415.175,654.266,414.604z"/>
					</g>
					<g>
						<path fill="#F68635" d="M560.733,356.97c-2.651,7.06,0.92,14.933,7.98,17.584c7.06,2.652,14.932-0.922,17.584-7.98
							l13.911-37.031c-7.724-6.306-14.855-13.328-21.286-20.988L560.733,356.97z"/>
					</g>
					<g>
						<path fill="#FFFFFF" d="M585.269,24.028c5.183,2.641,5.336,7.24,0.34,10.221L545.89,57.943
							c-4.996,2.979-9.511,0.679-10.037-5.113L531.68,6.769c-0.525-5.793,3.287-8.373,8.469-5.73L585.269,24.028z"/>
					</g>
					<g>
						<path fill="#FFFFFF" d="M802.705,386.658c0.111-5.816-3.873-8.118-8.855-5.114l-39.609,23.872
							c-4.984,3.003-5.082,8.07-0.219,11.263l38.662,25.381c4.865,3.191,8.936,1.045,9.047-4.771L802.705,386.658z"/>
					</g>
				</g>
			</g>
		</g>
		<g>
			<path fill="#F68635" d="M1407.941,687.46c0,21.539-17.461,39-39,39h-116c-21.539,0-39-17.461-39-39l0,0c0-21.539,17.461-39,39-39
				h116C1390.48,648.46,1407.941,665.921,1407.941,687.46L1407.941,687.46z"/>
			<path d="M1368.941,728.46h-116c-22.607,0-41-18.393-41-41s18.393-41,41-41h116c22.607,0,41,18.393,41,41
				S1391.549,728.46,1368.941,728.46z M1252.941,650.46c-20.402,0-37,16.598-37,37s16.598,37,37,37h116c20.402,0,37-16.598,37-37
				s-16.598-37-37-37H1252.941z"/>
		</g>
		<g>
			<circle cx="1254.941" cy="688.46" r="28.5"/>
		</g>
	</g>
	<g>
		<path d="M76.125,154.657h6.872v6.186c0.125,0.041,0.25,0.084,0.375,0.125c0.958,0.416,2.009,0.76,3.155,1.03
			c1.145,0.271,2.363,0.405,3.655,0.405c2.332,0,4.144-0.468,5.435-1.404c1.291-0.938,1.937-2.197,1.937-3.78
			c0-1.415-0.531-2.562-1.593-3.437s-2.374-1.645-3.936-2.311c-1.562-0.666-3.27-1.333-5.123-2c-1.854-0.666-3.561-1.509-5.123-2.53
			c-1.562-1.021-2.874-2.301-3.936-3.842c-1.062-1.54-1.593-3.54-1.593-5.997c0-1.875,0.364-3.593,1.094-5.154
			c0.728-1.562,1.749-2.906,3.061-4.03s2.884-1.999,4.717-2.624c1.833-0.625,3.874-0.938,6.123-0.938c2.54,0,5.039,0.23,7.497,0.688
			c2.457,0.459,4.414,1.084,5.873,1.875v12.682h-6.873v-6.935c-0.125,0-0.25-0.021-0.375-0.062
			c-0.917-0.249-1.906-0.446-2.968-0.593s-2.114-0.219-3.155-0.219c-1.999,0-3.572,0.396-4.717,1.187
			c-1.146,0.792-1.718,1.854-1.718,3.187c0,1.374,0.531,2.498,1.593,3.373s2.374,1.666,3.936,2.375
			c1.562,0.708,3.269,1.416,5.123,2.123c1.853,0.709,3.561,1.573,5.123,2.594s2.874,2.301,3.936,3.842s1.593,3.479,1.593,5.811
			c0,2.248-0.417,4.217-1.249,5.903c-0.834,1.687-2,3.103-3.499,4.248c-1.499,1.146-3.27,1.999-5.31,2.562
			c-2.041,0.562-4.249,0.844-6.623,0.844c-1.583,0-3.051-0.125-4.404-0.375c-1.354-0.25-2.604-0.562-3.749-0.938
			c-1.146-0.375-2.155-0.77-3.03-1.188c-0.875-0.415-1.583-0.77-2.124-1.062V154.657z"/>
		<path d="M113.496,139.851c1.666-0.75,3.592-1.395,5.779-1.937c2.187-0.541,4.779-0.812,7.778-0.812c2.165,0,4.008,0.26,5.529,0.78
			c1.52,0.521,2.749,1.261,3.686,2.218c0.937,0.959,1.614,2.104,2.031,3.436c0.416,1.334,0.625,2.834,0.625,4.499
			c0,2.124-0.073,3.936-0.219,5.435c-0.146,1.5-0.219,2.834-0.219,3.999c0,0.874,0.041,1.854,0.125,2.937
			c0.083,0.584,0.146,1.146,0.188,1.687h4.061v6.872h-10.487l-0.821-4.248h-0.311c-0.828,1.291-2.008,2.405-3.54,3.342
			c-1.531,0.938-3.601,1.406-6.208,1.406c-3.105,0-5.568-0.833-7.39-2.499c-1.822-1.665-2.731-3.874-2.731-6.622
			c0-1.75,0.32-3.259,0.961-4.529c0.642-1.271,1.573-2.312,2.794-3.124c1.22-0.812,2.689-1.415,4.407-1.812
			c1.717-0.396,3.631-0.594,5.742-0.594c0.745,0,1.532,0.042,2.359,0.125c0.828,0.084,1.841,0.166,3.042,0.25
			c0.082-0.416,0.124-0.833,0.124-1.25v-1.188c0-1.582-0.455-2.717-1.365-3.404s-2.254-1.031-4.032-1.031
			c-2.109,0-4.012,0.271-5.707,0.812c-1.695,0.542-3.122,1.084-4.279,1.625L113.496,139.851z M124.129,162.778
			c1.976,0,3.458-0.363,4.448-1.093c0.988-0.728,1.709-1.509,2.162-2.343v-3.748c-0.412-0.084-1.03-0.178-1.854-0.281
			c-0.824-0.104-1.709-0.156-2.656-0.156c-0.783,0-1.565,0.073-2.348,0.219c-0.783,0.146-1.483,0.375-2.1,0.688
			c-0.618,0.312-1.112,0.718-1.482,1.218c-0.371,0.499-0.556,1.104-0.556,1.812c0,1.166,0.34,2.072,1.019,2.718
			C121.442,162.456,122.564,162.778,124.129,162.778z"/>
		<path d="M164.538,137.727h11.62v21.741c0,0.875,0,1.749,0,2.624h4.748v6.872h-9.871l-1.437-4.623h-0.25
			c-0.958,1.584-2.396,2.895-4.311,3.936c-1.916,1.041-4.04,1.562-6.372,1.562c-1.583,0-3.03-0.209-4.342-0.625
			s-2.427-1.104-3.342-2.062c-0.917-0.958-1.625-2.249-2.124-3.874c-0.5-1.624-0.75-3.664-0.75-6.122v-12.558h-3.561v-6.872h11.683
			v17.743c0,2.541,0.406,4.373,1.218,5.498c0.812,1.124,2.093,1.686,3.842,1.686c1.541,0,2.926-0.457,4.155-1.374
			c1.228-0.915,2.093-2.04,2.593-3.374v-13.307h-3.499V137.727z"/>
		<path d="M206.201,160.343c0-0.833-0.511-1.5-1.531-2c-1.021-0.5-2.28-0.957-3.78-1.374c-1.499-0.416-3.145-0.843-4.935-1.28
			c-1.792-0.438-3.437-1.041-4.936-1.812c-1.5-0.77-2.76-1.749-3.78-2.936c-1.021-1.188-1.531-2.719-1.531-4.592
			c0-1.541,0.344-2.895,1.031-4.062c0.688-1.165,1.625-2.155,2.812-2.968c1.187-0.812,2.603-1.426,4.248-1.843
			c1.645-0.415,3.425-0.624,5.342-0.624c2.04,0,3.832,0.146,5.373,0.438c1.541,0.291,2.884,0.646,4.03,1.062
			c1.145,0.417,2.124,0.886,2.937,1.405c0.812,0.521,1.509,0.99,2.093,1.406l-3.436,5.561c-0.625-0.375-1.343-0.76-2.156-1.156
			c-0.812-0.396-1.666-0.76-2.561-1.094c-0.896-0.332-1.833-0.604-2.812-0.812c-0.979-0.207-1.947-0.312-2.905-0.312
			c-1.749,0-3.166,0.23-4.248,0.688c-1.083,0.459-1.625,1.167-1.625,2.125c0,0.749,0.51,1.354,1.531,1.812
			c1.02,0.458,2.28,0.886,3.78,1.28c1.5,0.396,3.144,0.823,4.936,1.281c1.79,0.459,3.436,1.053,4.936,1.78
			c1.499,0.729,2.758,1.677,3.779,2.843c1.021,1.166,1.531,2.666,1.531,4.498c0,3.166-1.156,5.654-3.467,7.466
			s-5.738,2.718-10.277,2.718c-3.583,0-6.675-0.531-9.278-1.594c-2.603-1.062-4.696-2.301-6.278-3.717l3.749-5.873
			c0.541,0.459,1.259,0.969,2.155,1.531c0.895,0.562,1.905,1.072,3.03,1.53c1.125,0.459,2.321,0.843,3.592,1.155
			c1.27,0.312,2.53,0.469,3.78,0.469c1.333,0,2.478-0.229,3.436-0.688C205.722,162.196,206.201,161.426,206.201,160.343z"/>
		<path d="M222.082,139.851c1.666-0.75,3.592-1.395,5.779-1.937c2.187-0.541,4.779-0.812,7.778-0.812c2.165,0,4.008,0.26,5.529,0.78
			c1.52,0.521,2.749,1.261,3.686,2.218c0.937,0.959,1.614,2.104,2.031,3.436c0.416,1.334,0.625,2.834,0.625,4.499
			c0,2.124-0.073,3.936-0.219,5.435c-0.146,1.5-0.219,2.834-0.219,3.999c0,0.874,0.041,1.854,0.125,2.937
			c0.083,0.584,0.146,1.146,0.188,1.687h4.061v6.872h-10.487l-0.821-4.248h-0.311c-0.828,1.291-2.008,2.405-3.54,3.342
			c-1.531,0.938-3.601,1.406-6.208,1.406c-3.105,0-5.568-0.833-7.39-2.499c-1.822-1.665-2.731-3.874-2.731-6.622
			c0-1.75,0.32-3.259,0.961-4.529c0.642-1.271,1.573-2.312,2.794-3.124c1.22-0.812,2.689-1.415,4.407-1.812
			c1.717-0.396,3.631-0.594,5.742-0.594c0.745,0,1.532,0.042,2.359,0.125c0.828,0.084,1.841,0.166,3.042,0.25
			c0.082-0.416,0.124-0.833,0.124-1.25v-1.188c0-1.582-0.455-2.717-1.365-3.404s-2.254-1.031-4.032-1.031
			c-2.109,0-4.012,0.271-5.707,0.812c-1.695,0.542-3.122,1.084-4.279,1.625L222.082,139.851z M232.715,162.778
			c1.976,0,3.458-0.363,4.448-1.093c0.988-0.728,1.709-1.509,2.162-2.343v-3.748c-0.412-0.084-1.03-0.178-1.854-0.281
			c-0.824-0.104-1.709-0.156-2.656-0.156c-0.783,0-1.565,0.073-2.348,0.219c-0.783,0.146-1.483,0.375-2.1,0.688
			c-0.618,0.312-1.112,0.718-1.482,1.218c-0.371,0.499-0.556,1.104-0.556,1.812c0,1.166,0.34,2.072,1.019,2.718
			C230.028,162.456,231.149,162.778,232.715,162.778z"/>
		<path d="M285.655,168.964c0,2.249-0.385,4.206-1.156,5.873c-0.771,1.665-1.833,3.051-3.186,4.154
			c-1.354,1.104-2.958,1.915-4.811,2.437c-1.854,0.521-3.884,0.78-6.091,0.78c-1.5,0-2.905-0.115-4.217-0.344
			c-1.312-0.229-2.521-0.53-3.624-0.905c-1.104-0.375-2.073-0.78-2.905-1.218c-0.833-0.438-1.5-0.865-1.999-1.281l3.124-5.748
			c1,0.666,2.196,1.302,3.592,1.906c1.395,0.604,3.155,0.906,5.279,0.906c2.624,0,4.623-0.605,5.998-1.812
			c1.374-1.209,2.062-2.937,2.062-5.186v-1.999h-0.25c-0.75,0.999-1.854,1.739-3.311,2.218c-1.458,0.479-3.145,0.719-5.061,0.719
			c-1.999,0-3.842-0.312-5.529-0.938c-1.687-0.625-3.155-1.571-4.405-2.842c-1.249-1.271-2.218-2.885-2.905-4.842
			c-0.688-1.958-1.031-4.249-1.031-6.873c0-2.748,0.406-5.186,1.218-7.309c0.812-2.125,1.957-3.905,3.436-5.342
			c1.478-1.438,3.249-2.52,5.31-3.249c2.062-0.729,4.363-1.093,6.904-1.093c1.333,0,2.665,0.053,3.998,0.156
			c1.333,0.104,2.593,0.239,3.78,0.405c1.187,0.167,2.28,0.365,3.28,0.594c1,0.229,1.833,0.468,2.499,0.718V168.964z
			 M270.661,162.966c1.583,0,3.008-0.354,4.279-1.062c1.27-0.708,2.134-1.771,2.593-3.187v-14.057
			c-0.583-0.25-1.406-0.447-2.468-0.594c-1.062-0.145-2.072-0.219-3.03-0.219c-1.167,0-2.26,0.188-3.28,0.562
			c-1.021,0.375-1.916,0.969-2.686,1.781c-0.771,0.812-1.375,1.833-1.812,3.061c-0.437,1.229-0.656,2.697-0.656,4.404
			c0,1.5,0.188,2.833,0.562,3.998c0.375,1.167,0.896,2.146,1.562,2.938c0.666,0.791,1.416,1.385,2.249,1.78
			C268.807,162.769,269.703,162.966,270.661,162.966z"/>
		<path d="M322.321,165.653c-0.542,0.499-1.24,0.989-2.093,1.468c-0.854,0.479-1.854,0.927-2.999,1.343
			c-1.146,0.417-2.405,0.75-3.78,1c-1.374,0.25-2.833,0.375-4.373,0.375c-2.666,0-5.051-0.375-7.153-1.125
			c-2.104-0.75-3.884-1.843-5.341-3.279c-1.458-1.438-2.572-3.165-3.343-5.186c-0.771-2.02-1.156-4.32-1.156-6.904
			c0-2.748,0.438-5.154,1.312-7.215c0.875-2.062,2.072-3.78,3.592-5.154c1.52-1.375,3.301-2.406,5.342-3.093
			c2.04-0.687,4.248-1.03,6.622-1.03c1.583,0,3.218,0.209,4.904,0.624c1.687,0.417,3.238,1.136,4.654,2.155
			c1.416,1.021,2.571,2.385,3.467,4.092c0.896,1.709,1.343,3.874,1.343,6.498c0,1.791-0.209,3.729-0.625,5.811h-22.491
			c0.041,1.333,0.322,2.457,0.843,3.373c0.52,0.916,1.208,1.666,2.062,2.249c0.853,0.584,1.833,1.011,2.937,1.28
			c1.103,0.271,2.28,0.406,3.53,0.406c2.499,0,4.55-0.291,6.154-0.875c1.603-0.582,2.905-1.289,3.904-2.123L322.321,165.653z
			 M308.826,143.349c-1.083,0-2.104,0.15-3.061,0.447c-0.958,0.297-1.823,0.731-2.593,1.305c-0.771,0.573-1.406,1.283-1.905,2.132
			c-0.5,0.849-0.792,1.804-0.875,2.864h15.369c0-2.079-0.573-3.723-1.718-4.933C312.897,143.954,311.158,143.349,308.826,143.349z"
			/>
	</g>
	<g>
		<path fill="#FFFFFF" d="M72.093,269.735l-4.146-5.768h3.693l2.693,3.979l2.812-3.979h3.36l-4.075,5.719l4.313,6.196h-3.598
			l-3.026-4.385l-3.074,4.385H67.66L72.093,269.735z"/>
		<path d="M97.828,275.883v-2.621h2.812v-6.673h-2.836v-2.621h2.836v-0.667c0-0.747,0.131-1.39,0.393-1.931
			c0.262-0.539,0.608-0.984,1.037-1.334c0.429-0.35,0.925-0.607,1.489-0.774s1.147-0.251,1.751-0.251
			c1.096,0,1.998,0.092,2.705,0.274c0.707,0.183,1.291,0.409,1.751,0.679l-0.906,2.359c-0.366-0.174-0.759-0.333-1.18-0.477
			c-0.421-0.143-0.965-0.215-1.632-0.215c-0.858,0-1.458,0.195-1.799,0.584c-0.342,0.391-0.513,0.974-0.513,1.752h5.004v2.621
			h-5.004v6.673h5.028v2.621H97.828z"/>
		<path d="M110.729,269.925c0-1,0.151-1.89,0.453-2.668c0.302-0.779,0.731-1.438,1.287-1.979c0.556-0.539,1.219-0.949,1.99-1.227
			c0.771-0.278,1.632-0.418,2.585-0.418c1.001,0,1.895,0.152,2.681,0.453c0.787,0.303,1.45,0.727,1.99,1.275
			c0.54,0.548,0.949,1.211,1.227,1.989c0.278,0.778,0.417,1.637,0.417,2.573c0,1.002-0.151,1.891-0.453,2.67
			c-0.302,0.778-0.731,1.438-1.287,1.978s-1.219,0.949-1.99,1.228c-0.771,0.277-1.632,0.416-2.585,0.416
			c-1.001,0-1.895-0.15-2.681-0.452c-0.787-0.302-1.45-0.728-1.99-1.274c-0.541-0.549-0.95-1.212-1.228-1.99
			S110.729,270.862,110.729,269.925z M113.923,269.925c0,0.525,0.071,1.01,0.214,1.454s0.349,0.834,0.62,1.168
			c0.27,0.333,0.596,0.592,0.977,0.774s0.818,0.273,1.311,0.273c0.921,0,1.672-0.293,2.252-0.881c0.58-0.588,0.87-1.518,0.87-2.789
			c0-1.096-0.27-1.98-0.81-2.656s-1.311-1.014-2.312-1.014c-0.445,0-0.858,0.068-1.239,0.203s-0.711,0.354-0.989,0.655
			c-0.278,0.302-0.497,0.684-0.655,1.144C114.002,268.718,113.923,269.274,113.923,269.925z"/>
		<path d="M125.182,269.925c0-1,0.151-1.89,0.453-2.668c0.302-0.779,0.731-1.438,1.287-1.979c0.556-0.539,1.219-0.949,1.99-1.227
			c0.771-0.278,1.632-0.418,2.585-0.418c1.001,0,1.895,0.152,2.681,0.453c0.787,0.303,1.45,0.727,1.99,1.275
			c0.54,0.548,0.949,1.211,1.227,1.989c0.278,0.778,0.417,1.637,0.417,2.573c0,1.002-0.151,1.891-0.453,2.67
			c-0.302,0.778-0.731,1.438-1.287,1.978s-1.219,0.949-1.99,1.228c-0.771,0.277-1.632,0.416-2.585,0.416
			c-1.001,0-1.895-0.15-2.681-0.452c-0.787-0.302-1.45-0.728-1.99-1.274c-0.541-0.549-0.95-1.212-1.228-1.99
			S125.182,270.862,125.182,269.925z M128.375,269.925c0,0.525,0.071,1.01,0.214,1.454s0.349,0.834,0.62,1.168
			c0.27,0.333,0.596,0.592,0.977,0.774s0.818,0.273,1.311,0.273c0.921,0,1.672-0.293,2.252-0.881c0.58-0.588,0.87-1.518,0.87-2.789
			c0-1.096-0.27-1.98-0.81-2.656s-1.311-1.014-2.312-1.014c-0.445,0-0.858,0.068-1.239,0.203s-0.711,0.354-0.989,0.655
			c-0.278,0.302-0.497,0.684-0.655,1.144C128.455,268.718,128.375,269.274,128.375,269.925z"/>
		<path d="M146.262,259.202h4.98v10.295c0,1.191,0.063,2.367,0.19,3.526c0,0.079,0.008,0.159,0.024,0.238h1.525v2.621h-3.836
			l-0.31-1.524h-0.096c-0.159,0.285-0.373,0.539-0.643,0.762c-0.271,0.223-0.572,0.417-0.906,0.584s-0.699,0.294-1.096,0.381
			c-0.397,0.088-0.794,0.131-1.191,0.131c-0.747,0-1.45-0.119-2.109-0.357c-0.66-0.238-1.235-0.607-1.728-1.107
			c-0.493-0.5-0.882-1.136-1.168-1.906c-0.286-0.771-0.429-1.68-0.429-2.729c0-1.017,0.155-1.922,0.465-2.717
			c0.31-0.795,0.738-1.465,1.287-2.014c0.548-0.548,1.195-0.969,1.942-1.264c0.747-0.293,1.565-0.439,2.455-0.439
			c0.492,0,0.957,0.027,1.394,0.082c0.437,0.057,0.814,0.148,1.132,0.275v-2.217h-1.882V259.202z M145.618,273.595
			c0.604,0,1.14-0.146,1.608-0.44s0.775-0.719,0.917-1.274v-5.053c-0.223-0.174-0.528-0.305-0.917-0.393s-0.798-0.131-1.227-0.131
			c-0.429,0-0.846,0.07-1.251,0.214s-0.763,0.37-1.072,0.679c-0.31,0.311-0.557,0.712-0.739,1.204
			c-0.183,0.493-0.274,1.097-0.274,1.812c0,1.016,0.254,1.834,0.762,2.454C143.934,273.285,144.665,273.595,145.618,273.595z"/>
	</g>
	<g>
		<path fill="#FFFFFF" d="M246.093,269.735l-4.146-5.768h3.693l2.693,3.979l2.812-3.979h3.36l-4.075,5.719l4.313,6.196h-3.598
			l-3.026-4.385l-3.074,4.385h-3.384L246.093,269.735z"/>
		<path d="M270.637,272.522h0.905l2.312-8.555h3.193l-3.384,10.748c-0.302,0.889-0.596,1.703-0.882,2.441
			c-0.286,0.739-0.62,1.379-1.001,1.919c-0.381,0.54-0.83,0.956-1.346,1.251c-0.517,0.294-1.148,0.441-1.895,0.441
			c-0.366,0-0.711-0.049-1.037-0.144s-0.624-0.211-0.894-0.346c-0.271-0.136-0.509-0.278-0.715-0.429
			c-0.207-0.151-0.374-0.29-0.5-0.417l1.597-2.121c0.206,0.175,0.453,0.337,0.739,0.489c0.286,0.15,0.556,0.226,0.81,0.226
			c0.477,0,0.854-0.167,1.132-0.501c0.278-0.333,0.544-0.881,0.798-1.644h-1.692l-4.957-11.915h3.36L270.637,272.522z"/>
		<path d="M286.157,263.968h4.433v8.293c0,0.334,0,0.667,0,1.001h1.811v2.621h-3.765l-0.548-1.763h-0.095
			c-0.366,0.604-0.914,1.104-1.644,1.5c-0.731,0.397-1.542,0.596-2.431,0.596c-0.604,0-1.156-0.079-1.656-0.238
			c-0.5-0.158-0.926-0.42-1.275-0.785c-0.35-0.365-0.62-0.858-0.811-1.479c-0.19-0.619-0.286-1.397-0.286-2.335v-4.79h-1.358v-2.621
			h4.456v6.768c0,0.969,0.155,1.668,0.465,2.098c0.31,0.429,0.798,0.643,1.465,0.643c0.588,0,1.116-0.174,1.585-0.523
			c0.468-0.35,0.798-0.779,0.989-1.287v-5.076h-1.334V263.968z"/>
		<path d="M299.102,275.883v-7.292c0-0.477-0.032-0.861-0.096-1.156c-0.063-0.293-0.147-0.523-0.25-0.69
			c-0.104-0.167-0.23-0.278-0.381-0.333c-0.151-0.057-0.306-0.084-0.465-0.084c-0.27,0-0.521,0.088-0.75,0.262
			c-0.23,0.176-0.385,0.397-0.465,0.668v8.626h-2.859v-11.915h2.264l0.334,1.311h0.071c0.238-0.461,0.587-0.838,1.048-1.132
			s1.001-0.44,1.621-0.44c0.524,0,1.025,0.127,1.501,0.381s0.802,0.699,0.977,1.334c0.238-0.555,0.604-0.98,1.096-1.274
			c0.492-0.294,1.024-0.44,1.596-0.44c0.429,0,0.814,0.059,1.156,0.178s0.64,0.33,0.894,0.633c0.254,0.301,0.448,0.711,0.583,1.227
			c0.135,0.517,0.203,1.18,0.203,1.99v8.149h-2.859v-7.626c0-0.715-0.116-1.215-0.346-1.501c-0.23-0.286-0.512-0.429-0.846-0.429
			c-0.286,0-0.532,0.068-0.738,0.203c-0.207,0.135-0.35,0.354-0.429,0.654v8.698H299.102z"/>
		<path d="M314.514,275.883v-7.292c0-0.477-0.032-0.861-0.096-1.156c-0.063-0.293-0.147-0.523-0.25-0.69
			c-0.104-0.167-0.23-0.278-0.381-0.333c-0.151-0.057-0.306-0.084-0.465-0.084c-0.27,0-0.521,0.088-0.75,0.262
			c-0.23,0.176-0.385,0.397-0.465,0.668v8.626h-2.859v-11.915h2.264l0.334,1.311h0.071c0.238-0.461,0.587-0.838,1.048-1.132
			s1.001-0.44,1.621-0.44c0.524,0,1.025,0.127,1.501,0.381s0.802,0.699,0.977,1.334c0.238-0.555,0.604-0.98,1.096-1.274
			c0.492-0.294,1.024-0.44,1.596-0.44c0.429,0,0.814,0.059,1.156,0.178s0.64,0.33,0.894,0.633c0.254,0.301,0.448,0.711,0.583,1.227
			c0.135,0.517,0.203,1.18,0.203,1.99v8.149h-2.859v-7.626c0-0.715-0.116-1.215-0.346-1.501c-0.23-0.286-0.512-0.429-0.846-0.429
			c-0.286,0-0.532,0.068-0.738,0.203c-0.207,0.135-0.35,0.354-0.429,0.654v8.698H314.514z"/>
		<path d="M330.48,272.522h0.905l2.312-8.555h3.193l-3.384,10.748c-0.302,0.889-0.596,1.703-0.882,2.441
			c-0.286,0.739-0.62,1.379-1.001,1.919c-0.381,0.54-0.83,0.956-1.346,1.251c-0.517,0.294-1.148,0.441-1.895,0.441
			c-0.366,0-0.711-0.049-1.037-0.144s-0.624-0.211-0.894-0.346c-0.271-0.136-0.509-0.278-0.715-0.429
			c-0.207-0.151-0.374-0.29-0.5-0.417l1.597-2.121c0.206,0.175,0.453,0.337,0.739,0.489c0.286,0.15,0.556,0.226,0.81,0.226
			c0.477,0,0.854-0.167,1.132-0.501c0.278-0.333,0.544-0.881,0.798-1.644h-1.692l-4.957-11.915h3.36L330.48,272.522z"/>
	</g>
	<g>
		<path d="M176.735,300.46H70.086l-38.262-32.324l38.274-31.676h106.638V300.46z M71.55,296.46h101.186v-56H71.538l-33.479,27.707
			L71.55,296.46z"/>
	</g>
	<g>
		<path d="M350.838,300.46H244.189l-38.262-32.324l38.274-31.676h106.638V300.46z M245.653,296.46h101.186v-56H245.641
			l-33.479,27.707L245.653,296.46z"/>
	</g>
</g>
</svg>
