<svg xmlns="http://www.w3.org/2000/svg" xmlns:xlink="http://www.w3.org/1999/xlink" xml:space="preserve" viewBox="0 0 1409.94 775.79"><path d="M760.94 199.46h-684c-28.12 0-51-22.88-51-51s22.88-51 51-51h684c28.12 0 51 22.88 51 51s-22.88 51-51 51zm-684-98c-25.91 0-47 21.08-47 47s21.09 47 47 47h684c25.92 0 47-21.08 47-47s-21.08-47-47-47h-684z"/><path fill="#FFF" d="M464.55 775.46v-96.43c0-71.53 57.99-129.5 129.51-129.5h613.5c71.53 0 129.52 57.97 129.52 129.5v96.43H464.55z"/><path fill="#FF8630" d="M984.75 592.55V421.99H816.88v173.34h.07a83.94 83.94 0 0 0 167.88-.12c0-.9-.04-1.78-.07-2.66z"/><path d="M900.88 681.15c-46.65 0-84.78-37.42-85.91-83.82h-.03l-.07-2V419.98h171.89l.02 173.14c.02.7.04 1.39.04 2.09 0 47.39-38.55 85.94-85.94 85.94zm-82-87.75.06 1.92c.07 45.12 36.82 81.83 81.94 81.83 45.18 0 81.94-36.76 81.94-81.94 0-.66-.02-1.3-.04-1.96l-.02-.64V423.99H818.87V593.4z"/><circle cx="733.82" cy="177.22" r="92.48"/><circle cx="852.63" cy="102.61" r="92.48"/><circle cx="1135.8" cy="336.62" r="92.48"/><circle cx="1100.4" cy="195.03" r="92.48"/><circle cx="998.15" cy="100.64" r="92.48"/><defs><path id="a" d="M1110.11 348.42a69.7 69.7 0 0 0-7.41-2.5c8.67-85.63-39.5-170.2-123.35-203.95s-177.17-6.15-230.25 61.6a68.89 68.89 0 1 0-42.17 128.83c2.5 76.17 49 147.37 124.24 177.66 75.24 30.3 158.1 11.17 212.68-42.02a68.89 68.89 0 1 0 66.26-119.61z"/><path id="b" d="M905.19 526.46a200.59 200.59 0 0 1-200.2-192.33 71.26 71.26 0 0 1-15.16-4.22c-17.57-7.07-31.33-20.56-38.75-37.98s-7.61-36.7-.54-54.26a70.6 70.6 0 0 1 65.78-44.43 70.53 70.53 0 0 1 32.24 7.8 201.31 201.31 0 0 1 69.24-55.32 201.85 201.85 0 0 1 87.54-20.15c25.62 0 50.78 4.9 74.76 14.55a198.55 198.55 0 0 1 97.34 83.35 201.95 201.95 0 0 1 27.4 121 70.42 70.42 0 0 1 44.76 40.08 70.42 70.42 0 0 1 .55 54.25 70.6 70.6 0 0 1-65.78 44.43 71.31 71.31 0 0 1-40.32-12.6c-37.06 35.5-87.57 55.83-138.86 55.83zM716.32 197.24a66.61 66.61 0 0 0-62.07 41.93 66.44 66.44 0 0 0 .5 51.19 66.45 66.45 0 0 0 36.57 35.84 67.24 67.24 0 0 0 15.89 4.22l1.66.23.06 1.69A196.58 196.58 0 0 0 831.92 508.2a195.35 195.35 0 0 0 73.26 14.26c50.82 0 100.86-20.36 137.27-55.86l1.21-1.17 1.37.99a67.18 67.18 0 0 0 39.34 12.81 66.61 66.61 0 0 0 62.07-41.93 66.45 66.45 0 0 0-.52-51.19 66.44 66.44 0 0 0-43.76-38.26l-1.62-.45.17-1.68a197.87 197.87 0 0 0-26.7-120.2 194.58 194.58 0 0 0-95.4-81.7 195.35 195.35 0 0 0-73.27-14.25c-29.48 0-59.15 6.83-85.8 19.75a197.22 197.22 0 0 0-68.87 55.49l-1.04 1.33-1.48-.8a66.56 66.56 0 0 0-31.83-8.1z"/></defs><use xlink:href="#a" fill="#FF8630" overflow="visible"/><use xlink:href="#b" overflow="visible"/><path fill="#DDF6C5" d="m690.72 234.21 22.05 58.38"/><path d="M712.77 294.59a2 2 0 0 1-1.87-1.3l-22.05-58.38a2 2 0 0 1 3.74-1.41l22.05 58.38a2 2 0 0 1-1.87 2.71z"/><path fill="#DDF6C5" d="m1115.93 405.38-56.34 26.82"/><path d="M1059.59 434.2a2 2 0 0 1-.87-3.8l56.35-26.83a2 2 0 0 1 1.72 3.62L1060.44 434a2 2 0 0 1-.85.2zm-70.61-29.67a65.4 65.4 0 0 1-63.8-51.23 2 2 0 0 1 3.9-.87 61.41 61.41 0 0 0 37 43.66 61.41 61.41 0 0 0 56.94-5.85 2 2 0 0 1 2.21 3.33 65.48 65.48 0 0 1-36.25 10.96zm-158.48-63.8a65.41 65.41 0 0 1-63.8-51.23 2 2 0 0 1 3.9-.87 61.41 61.41 0 0 0 37 43.66 61.42 61.42 0 0 0 56.93-5.85 2 2 0 0 1 2.22 3.33 65.5 65.5 0 0 1-36.26 10.96z"/><path fill="#DDF6C5" d="m899.52 336.58-14.23 35.36"/><path d="M885.29 373.94a2 2 0 0 1-1.85-2.75l14.23-35.36a2 2 0 1 1 3.7 1.5l-14.22 35.35a2 2 0 0 1-1.86 1.26zm-102.13-17.87-.06.14-.06.14c-20.55 51.5 4.43 109.97 55.9 130.7 51.5 20.72 110.01-4.13 130.87-55.51l.06-.14.06-.14"/><g fill="#FFF"><path d="M876.77 393.75a22.02 22.02 0 1 1-40.85-16.44l40.85 16.44z"/><path d="M917.17 410.02a22.02 22.02 0 0 1-40.85-16.45l40.85 16.45z"/></g><path fill="#FFF" d="m236.27 775.79-69.34-114.14 168.4-100.27 127.61 214.08z"/><path fill="#FF8630" d="M419.51 394.54a35.13 35.13 0 0 0-48.27 11.76l-35.66 58.47-7.72-12.87L87.28 596.15l20.83 34.73a88 88 0 0 0 120.73 30.22l89.62-53.73c14.12-8.47 25.56-19.3 32.81-32.83 1.55-2.62 2.43-4.54 3.67-6.58l76.33-125.14a35.13 35.13 0 0 0-11.76-48.28z"/><path d="M183.67 675.65a90.53 90.53 0 0 1-77.28-43.74l-20.82-34.73a2 2 0 0 1 .69-2.74L326.82 450.2a2 2 0 0 1 2.74.68l6.02 10.04 33.94-55.65a36.9 36.9 0 0 1 31.76-17.84c6.78 0 13.44 1.87 19.26 5.41a37.18 37.18 0 0 1 12.43 51.02L356.65 569c-.6 1-1.14 2-1.7 3.05a96.06 96.06 0 0 1-1.95 3.5c-7.04 13.12-18.32 24.43-33.51 33.53l-89.62 53.74a89.86 89.86 0 0 1-46.2 12.83zm-93.64-78.8 19.8 33a86.52 86.52 0 0 0 73.84 41.8c15.5 0 30.77-4.24 44.14-12.26l89.62-53.74c14.56-8.73 25.35-19.51 32.08-32.05a89.6 89.6 0 0 0 1.9-3.44c.6-1.1 1.16-2.15 1.82-3.24l76.33-125.15a33.17 33.17 0 0 0-28.27-50.35 32.93 32.93 0 0 0-28.34 15.92l-35.67 58.48a2 2 0 0 1-1.7.96h-.01a2 2 0 0 1-1.71-.98l-6.69-11.15-237.14 142.2z"/><path fill="#FF8630" d="m457.94 403.53 108.32-65.13a11.7 11.7 0 0 0 4.01-16.05v-.01a11.7 11.7 0 0 0-16.07-4l-108.3 65.12a33.23 33.23 0 0 1-37.67-2.45l135.53-81.28a11.7 11.7 0 1 0-12.03-20.07l-135.54 81.27a33.23 33.23 0 0 1 15.58-34.38l107.78-64.63a11.7 11.7 0 1 0-12.04-20.07l-107.78 64.62a56.68 56.68 0 0 0-24.4 66.96L7.7 593.88a11.7 11.7 0 1 0 12.03 20.08L387.37 393.5a56.68 56.68 0 0 0 70.57 10.02z"/><path fill="#FFF" d="M13.72 617.63c-4.8 0-9.3-2.56-11.77-6.66-1.88-3.14-2.43-6.83-1.54-10.38s3.1-6.54 6.25-8.42l366.27-219.63a58.86 58.86 0 0 1 25.78-67.78l107.77-64.63a13.68 13.68 0 0 1 18.8 4.7 13.61 13.61 0 0 1 1.55 10.38 13.61 13.61 0 0 1-6.25 8.43L412.8 328.26a31.37 31.37 0 0 0-15.02 29.39l132.92-79.7a13.69 13.69 0 0 1 20.34 15.08 13.61 13.61 0 0 1-6.25 8.42l-132.92 79.7a31.49 31.49 0 0 0 17.03 5.03c5.61 0 11.14-1.54 15.97-4.43l108.3-65.13a13.69 13.69 0 0 1 18.75 4.6l.1.16a13.72 13.72 0 0 1-4.72 18.73l-108.32 65.13a58.44 58.44 0 0 1-30.05 8.34 58.88 58.88 0 0 1-41.9-17.53L20.75 615.67a13.69 13.69 0 0 1-7.03 1.96zm499.8-375.45a9.7 9.7 0 0 0-4.98 1.38L400.76 308.2a54.83 54.83 0 0 0-23.54 64.6l.53 1.53-1.39.83L8.71 595.6a9.64 9.64 0 0 0-4.42 5.96 9.64 9.64 0 0 0 1.1 7.35 9.7 9.7 0 0 0 13.31 3.33l369.03-221.28 1.1 1.2a54.85 54.85 0 0 0 40.1 17.41c9.84 0 19.52-2.68 27.99-7.76l108.31-65.13a9.72 9.72 0 0 0 3.38-13.22l-.06-.1a9.69 9.69 0 0 0-13.32-3.32l-108.3 65.13c-5.46 3.27-11.7 5-18.04 5-7.92 0-15.7-2.7-21.9-7.6l-2.27-1.8 138.02-82.75c2.22-1.33 3.79-3.45 4.42-5.97s.24-5.12-1.1-7.34a9.7 9.7 0 0 0-13.31-3.33l-138 82.75-.52-2.85a35.38 35.38 0 0 1 16.51-36.45l107.78-64.62a9.64 9.64 0 0 0 4.43-5.97 9.64 9.64 0 0 0-1.1-7.35 9.64 9.64 0 0 0-8.33-4.7z"/><path fill="#FF8630" d="M256.34 537.33a35.13 35.13 0 0 0 11.95-48.23 35.13 35.13 0 1 0 60.18-36.28l-41.42-68.7a35.13 35.13 0 1 0-60.18 36.27 35.13 35.13 0 0 0-61.59 33.69 35.12 35.12 0 0 0-58.53 38.73 35.13 35.13 0 1 0-60.18 36.28l41.42 68.71a35.14 35.14 0 0 0 60.18-36.28 35.13 35.13 0 0 0 61.58-33.68 35.13 35.13 0 0 0 46.6 9.49z"/><path d="M118.11 616.8a36.88 36.88 0 0 1-31.83-17.97l-41.42-68.7a36.89 36.89 0 0 1-4.25-28.11 36.9 36.9 0 0 1 16.88-22.87 36.96 36.96 0 0 1 19.13-5.34c8.96 0 17.33 3.12 23.9 8.65a37.2 37.2 0 0 1 17.14-39.59 37.05 37.05 0 0 1 42.77 3.15 37.4 37.4 0 0 1 17.18-39.3 37.2 37.2 0 0 1 43.02 3.31 37 37 0 0 1 .29-16.7 36.88 36.88 0 0 1 16.87-22.88 37.06 37.06 0 0 1 19.14-5.33 36.88 36.88 0 0 1 31.83 17.96l41.42 68.71a37.18 37.18 0 0 1-31.77 56.31 36.92 36.92 0 0 1-23.9-8.65 37.2 37.2 0 0 1-17.13 39.6 37.07 37.07 0 0 1-19.13 5.33c-8.7 0-17.06-3.07-23.64-8.48 3.04 15.03-3.54 31.06-17.18 39.28a37.08 37.08 0 0 1-19.14 5.34 36.92 36.92 0 0 1-23.9-8.65 37.2 37.2 0 0 1-17.14 39.59 37.1 37.1 0 0 1-19.14 5.34zm-41.49-139a33.13 33.13 0 0 0-32.12 25.17 32.92 32.92 0 0 0 3.78 25.08l41.42 68.7a32.9 32.9 0 0 0 28.41 16.04 33.17 33.17 0 0 0 28.34-50.24 2 2 0 0 1 .69-2.75 2 2 0 0 1 2.74.68 32.9 32.9 0 0 0 28.4 16.03c6 0 11.91-1.65 17.08-4.76a33.3 33.3 0 0 0 12.6-43.04 2 2 0 0 1 3.41-2.05 33.23 33.23 0 0 0 26.88 13.7c6 0 11.9-1.64 17.06-4.75a33.17 33.17 0 0 0 11.27-45.48 2 2 0 0 1 .68-2.75 2 2 0 0 1 2.75.68 32.9 32.9 0 0 0 28.4 16.03 33.17 33.17 0 0 0 28.35-50.25l-41.42-68.7a32.9 32.9 0 0 0-28.41-16.03c-6 0-11.9 1.64-17.08 4.76a32.91 32.91 0 0 0-15.05 20.4 32.91 32.91 0 0 0 3.79 25.08 2 2 0 0 1-.68 2.75 2 2 0 0 1-2.75-.68 32.91 32.91 0 0 0-28.4-16.04c-6 0-11.91 1.65-17.08 4.77a33.31 33.31 0 0 0-12.6 43.03 2 2 0 0 1-3.42 2.06 33.23 33.23 0 0 0-26.87-13.71 33.18 33.18 0 0 0-28.33 50.25 2 2 0 0 1-.68 2.74 2 2 0 0 1-2.75-.68 32.91 32.91 0 0 0-28.4-16.04z"/><path d="M268.3 491.15a2 2 0 0 1-1.71-.97l-41.42-68.74a2 2 0 0 1 3.43-2.06L270 488.1a2 2 0 0 1-1.7 3.04zm-58.83 38.33a2 2 0 0 1-1.72-.97l-43.84-72.82a2 2 0 1 1 3.42-2.06l43.85 72.82a2 2 0 0 1-1.72 3.03zm-60.49 35.24a2 2 0 0 1-1.72-.97l-43.5-72.25a2 2 0 1 1 3.43-2.06l43.5 72.25a2 2 0 0 1-1.71 3.03z"/><path fill="#FFF" d="M755.27 416.12a51.33 51.33 0 0 0-51.98-50.66c-13.3.17-26.54-1.35-39.4-4.43l2.95 38.92a13.65 13.65 0 1 1-27.22 2.07l-3.85-50.55a160.33 160.33 0 0 1-11.53-5.7 157.83 157.83 0 0 1-24.03-16.23l-13.91 37.03a13.65 13.65 0 1 1-25.57-9.6l18.2-48.42a159.49 159.49 0 0 1-25.41-41.98l-51.02-6.72a13.65 13.65 0 1 1 3.57-27.08l38.67 5.1a159.9 159.9 0 0 1-2.92-42.18l-41.9-26.65A13.65 13.65 0 1 1 514.57 146l31.92 20.29a159.84 159.84 0 0 1 16.94-41.26 51.32 51.32 0 1 0-88.58-51.88 262.43 262.43 0 0 0 .93 266.92 262.06 262.06 0 0 0 99.16 95.73 263.56 263.56 0 0 0 129.66 32.3 51.33 51.33 0 0 0 50.67-51.98z"/><path fill="#FF8630" d="M495.72 150.2a13.65 13.65 0 0 0 4.2 18.84l41.9 26.65c.63-9.9 2.2-19.73 4.67-29.4l-31.92-20.3a13.65 13.65 0 0 0-18.85 4.2zm-4.97 94.32a13.65 13.65 0 0 0 11.75 15.32l51.01 6.73a159.28 159.28 0 0 1-8.77-28.7l-38.67-5.1a13.66 13.66 0 0 0-15.32 11.75zM654.27 414.6a13.65 13.65 0 0 0 12.57-14.65l-2.95-38.92a160.8 160.8 0 0 1-28.12-9.56l3.85 50.55a13.66 13.66 0 0 0 14.65 12.58zm-93.54-57.63a13.65 13.65 0 1 0 25.57 9.6l13.9-37.03a159.47 159.47 0 0 1-21.28-20.99l-18.19 48.42z"/><path fill="#FFF" d="M585.27 24.03c5.18 2.64 5.34 7.24.34 10.22l-39.72 23.7c-5 2.97-9.51.67-10.04-5.12l-4.17-46.06c-.53-5.8 3.29-8.37 8.47-5.73l45.12 22.99zM802.7 386.66c.12-5.82-3.87-8.12-8.85-5.12l-39.6 23.88c-5 3-5.1 8.07-.23 11.26l38.66 25.38c4.87 3.2 8.94 1.05 9.05-4.77l.98-50.63z"/><path fill="#FF8630" d="M1407.94 687.46a39 39 0 0 1-39 39h-116a39 39 0 0 1 0-78h116a39 39 0 0 1 39 39z"/><path d="M1368.94 728.46h-116c-22.6 0-41-18.4-41-41s18.4-41 41-41h116c22.6 0 41 18.4 41 41s-18.4 41-41 41zm-116-78c-20.4 0-37 16.6-37 37s16.6 37 37 37h116c20.4 0 37-16.6 37-37s-16.6-37-37-37h-116z"/><circle cx="1254.94" cy="688.46" r="28.5"/><path d="M76.13 154.66H83v6.18l.37.13c.96.41 2.01.76 3.16 1.03 1.14.27 2.36.4 3.65.4 2.33 0 4.15-.46 5.44-1.4a4.44 4.44 0 0 0 1.93-3.78c0-1.42-.53-2.56-1.59-3.44s-2.37-1.64-3.93-2.3a96 96 0 0 0-5.13-2 24.4 24.4 0 0 1-5.12-2.54 14.11 14.11 0 0 1-3.94-3.84c-1.06-1.54-1.59-3.54-1.59-6a11.83 11.83 0 0 1 4.15-9.18 14.2 14.2 0 0 1 4.72-2.63c1.83-.62 3.88-.93 6.12-.93 2.54 0 5.04.23 7.5.68 2.46.46 4.42 1.09 5.87 1.88v12.68h-6.87v-6.93a1.2 1.2 0 0 1-.37-.07 23.78 23.78 0 0 0-6.13-.8c-2 0-3.57.39-4.71 1.18a3.69 3.69 0 0 0-1.72 3.19c0 1.37.53 2.5 1.6 3.37s2.37 1.66 3.93 2.37c1.56.71 3.27 1.42 5.12 2.13 1.85.7 3.56 1.57 5.12 2.6s2.88 2.3 3.94 3.83 1.6 3.48 1.6 5.81c0 2.25-.42 4.22-1.26 5.9-.83 1.7-2 3.11-3.5 4.25-1.5 1.15-3.27 2-5.3 2.57-2.05.56-4.25.84-6.63.84-1.58 0-3.05-.12-4.4-.37a28.78 28.78 0 0 1-8.9-3.2v-11.61zm37.37-14.81a34.1 34.1 0 0 1 5.77-1.94 32.7 32.7 0 0 1 7.78-.8c2.17 0 4.01.25 5.53.77a9.26 9.26 0 0 1 3.69 2.22c.93.96 1.61 2.1 2.03 3.44.41 1.33.62 2.83.62 4.5 0 2.12-.07 3.93-.21 5.43a41.8 41.8 0 0 0-.22 4c0 .87.04 1.85.12 2.94.08.58.15 1.14.19 1.68h4.06v6.87h-10.49l-.82-4.24h-.3a11 11 0 0 1-3.55 3.34c-1.53.94-3.6 1.4-6.2 1.4-3.11 0-5.57-.83-7.4-2.5-1.82-1.66-2.73-3.87-2.73-6.62 0-1.75.32-3.26.96-4.53a8.08 8.08 0 0 1 2.8-3.12 13.28 13.28 0 0 1 4.4-1.81 25.6 25.6 0 0 1 8.1-.47c.83.08 1.85.17 3.05.25.08-.42.12-.83.12-1.25v-1.19c0-1.58-.45-2.71-1.36-3.4s-2.26-1.03-4.04-1.03c-2.1 0-4 .27-5.7.8-1.7.55-3.13 1.1-4.28 1.63l-1.92-6.37zm10.63 22.93c1.98 0 3.46-.37 4.45-1.1.98-.72 1.7-1.5 2.16-2.34v-3.75a26.56 26.56 0 0 0-4.51-.43c-.78 0-1.57.07-2.35.22-.78.14-1.48.37-2.1.68a4.1 4.1 0 0 0-1.48 1.22c-.37.5-.56 1.1-.56 1.81 0 1.17.34 2.08 1.02 2.72.68.65 1.8.97 3.37.97zm40.41-25.05h11.62v24.36h4.75v6.87h-9.87l-1.44-4.62h-.25c-.96 1.59-2.4 2.9-4.31 3.94a13.13 13.13 0 0 1-6.38 1.56c-1.58 0-3.03-.21-4.34-.63s-2.42-1.1-3.34-2.06a9.56 9.56 0 0 1-2.12-3.87 21.2 21.2 0 0 1-.75-6.12V144.6h-3.56v-6.87h11.68v17.74c0 2.54.4 4.37 1.22 5.5.8 1.12 2.09 1.68 3.84 1.68a7.4 7.4 0 0 0 6.75-4.75v-13.3h-3.5v-6.87zm41.66 22.61c0-.83-.51-1.5-1.53-2s-2.28-.95-3.78-1.37c-1.5-.42-3.15-.84-4.93-1.28a22.35 22.35 0 0 1-4.94-1.81 12.35 12.35 0 0 1-3.78-2.94 6.8 6.8 0 0 1-1.53-4.6 7.8 7.8 0 0 1 1.03-4.05 9.33 9.33 0 0 1 2.81-2.97 13.2 13.2 0 0 1 4.25-1.84 21.8 21.8 0 0 1 5.34-.63 27.73 27.73 0 0 1 9.4 1.5c1.15.42 2.13.89 2.94 1.4.81.53 1.51 1 2.1 1.41l-3.44 5.56a28.3 28.3 0 0 0-4.72-2.25c-.9-.33-1.83-.6-2.81-.8-.98-.22-1.95-.32-2.9-.32-1.76 0-3.17.23-4.25.69-1.09.46-1.63 1.16-1.63 2.12 0 .75.51 1.36 1.53 1.81a23 23 0 0 0 3.78 1.28l4.94 1.29c1.79.45 3.43 1.05 4.93 1.78 1.5.72 2.76 1.67 3.78 2.84a6.58 6.58 0 0 1 1.53 4.5c0 3.16-1.15 5.65-3.46 7.46s-5.74 2.72-10.28 2.72c-3.58 0-6.68-.53-9.28-1.6-2.6-1.06-4.7-2.3-6.28-3.71l3.75-5.87a19.56 19.56 0 0 0 5.19 3.06c1.12.46 2.32.84 3.59 1.15 1.27.31 2.53.47 3.78.47a7.9 7.9 0 0 0 3.44-.69 2.37 2.37 0 0 0 1.43-2.3zm15.88-20.49a34.1 34.1 0 0 1 5.78-1.94 32.7 32.7 0 0 1 7.78-.8c2.16 0 4 .25 5.53.77a9.26 9.26 0 0 1 3.68 2.22 8.3 8.3 0 0 1 2.03 3.44c.42 1.33.63 2.83.63 4.5 0 2.12-.07 3.93-.22 5.43a41.8 41.8 0 0 0-.22 4 35.9 35.9 0 0 0 .32 4.62h4.06v6.87h-10.5l-.81-4.24h-.31a10.86 10.86 0 0 1-3.54 3.34c-1.53.94-3.6 1.4-6.21 1.4-3.1 0-5.57-.83-7.4-2.5-1.81-1.66-2.72-3.87-2.72-6.62 0-1.75.32-3.26.96-4.53a8.08 8.08 0 0 1 2.8-3.12 13.28 13.28 0 0 1 4.4-1.81 25.6 25.6 0 0 1 8.1-.47c.83.08 1.84.17 3.04.25.09-.42.13-.83.13-1.25v-1.19c0-1.58-.46-2.71-1.37-3.4s-2.25-1.03-4.03-1.03c-2.1 0-4.01.27-5.7.8a40.3 40.3 0 0 0-4.29 1.63l-1.92-6.37zm10.63 22.93c1.98 0 3.46-.37 4.45-1.1 1-.72 1.71-1.5 2.17-2.34v-3.75a26.56 26.56 0 0 0-4.52-.43c-.78 0-1.56.07-2.34.22a7.5 7.5 0 0 0-2.1.68 4.1 4.1 0 0 0-1.49 1.22c-.37.5-.55 1.1-.55 1.81 0 1.17.34 2.08 1.02 2.72.68.65 1.8.97 3.37.97zm52.94 6.18c0 2.25-.38 4.21-1.15 5.88a11.51 11.51 0 0 1-3.19 4.15 13.15 13.15 0 0 1-4.8 2.44c-1.86.52-3.9.78-6.1.78a24.53 24.53 0 0 1-7.84-1.25 20.6 20.6 0 0 1-2.9-1.22c-.84-.44-1.5-.86-2-1.28l3.12-5.75c1 .67 2.2 1.3 3.6 1.9 1.39.61 3.15.91 5.27.91 2.62 0 4.62-.6 6-1.8 1.37-1.22 2.06-2.94 2.06-5.2v-2h-.25a6.55 6.55 0 0 1-3.31 2.23c-1.46.47-3.15.71-5.06.71-2 0-3.84-.3-5.53-.93a11.9 11.9 0 0 1-7.31-7.69 20.74 20.74 0 0 1-1.03-6.87c0-2.75.4-5.19 1.22-7.31.8-2.13 1.95-3.9 3.43-5.34a14.38 14.38 0 0 1 5.31-3.25 20.6 20.6 0 0 1 6.9-1.1 62.37 62.37 0 0 1 7.78.56c1.2.17 2.29.37 3.29.6 1 .23 1.83.47 2.5.72v30.11zm-14.99-6c1.58 0 3-.35 4.28-1.06a5.43 5.43 0 0 0 2.6-3.18v-14.06a9.99 9.99 0 0 0-2.48-.6 22.44 22.44 0 0 0-3.03-.21c-1.16 0-2.25.19-3.27.56a6.98 6.98 0 0 0-2.7 1.78 8.53 8.53 0 0 0-1.8 3.06 13.1 13.1 0 0 0-.66 4.4c0 1.5.19 2.84.56 4 .38 1.17.9 2.15 1.57 2.94a6.7 6.7 0 0 0 2.24 1.78c.84.4 1.73.6 2.7.6zm51.66 2.69c-.54.5-1.24 1-2.1 1.47a23.18 23.18 0 0 1-6.78 2.34c-1.37.25-2.82.38-4.36.38a21.2 21.2 0 0 1-7.16-1.13 14.35 14.35 0 0 1-5.34-3.28 14.37 14.37 0 0 1-3.34-5.18 19.26 19.26 0 0 1-1.16-6.9c0-2.75.44-5.16 1.31-7.22a14.43 14.43 0 0 1 8.94-8.25 20.63 20.63 0 0 1 11.52-.4 13.4 13.4 0 0 1 4.66 2.15 11.56 11.56 0 0 1 3.47 4.1c.9 1.7 1.34 3.87 1.34 6.5 0 1.78-.21 3.72-.63 5.8H300.2a6.67 6.67 0 0 0 2.9 5.62 8.86 8.86 0 0 0 2.94 1.28c1.1.28 2.28.41 3.53.41 2.5 0 4.55-.29 6.16-.87 1.6-.59 2.9-1.3 3.9-2.13l2.7 5.31zm-13.5-22.3c-1.08 0-2.1.15-3.05.45-.96.3-1.83.73-2.6 1.3a7.12 7.12 0 0 0-1.9 2.13c-.5.85-.8 1.8-.88 2.87h15.37c0-2.08-.57-3.73-1.72-4.94-1.14-1.2-2.88-1.81-5.21-1.81z"/><path fill="#FFF" d="m72.1 269.74-4.15-5.77h3.69l2.7 3.98 2.8-3.98h3.36l-4.07 5.72 4.31 6.2h-3.6l-3.02-4.4-3.08 4.4h-3.38l4.43-6.15z"/><path d="M97.83 275.88v-2.62h2.81v-6.67H97.8v-2.62h2.84v-.67c0-.75.13-1.39.4-1.93a3.88 3.88 0 0 1 2.52-2.1 6.13 6.13 0 0 1 1.75-.26c1.1 0 2 .1 2.7.28.71.18 1.3.4 1.76.67l-.91 2.36a11.6 11.6 0 0 0-1.18-.47 5.17 5.17 0 0 0-1.63-.22c-.86 0-1.46.2-1.8.59-.34.39-.51.97-.51 1.75h5v2.62h-5v6.67h5.02v2.62H97.83zm12.9-5.95c0-1 .15-1.9.45-2.67a5.48 5.48 0 0 1 3.28-3.2 7.58 7.58 0 0 1 2.58-.43c1 0 1.9.16 2.68.46a5.36 5.36 0 0 1 3.22 3.26c.28.78.42 1.64.42 2.57 0 1-.15 1.9-.45 2.67a5.48 5.48 0 0 1-3.28 3.2 7.6 7.6 0 0 1-2.59.42c-1 0-1.9-.15-2.68-.45a5.36 5.36 0 0 1-3.22-3.26 7.6 7.6 0 0 1-.41-2.57zm3.2 0c0 .52.06 1 .2 1.45s.36.83.63 1.17a2.8 2.8 0 0 0 2.29 1.04c.92 0 1.67-.29 2.25-.88.58-.58.87-1.51.87-2.79 0-1.1-.27-1.98-.81-2.65s-1.31-1.02-2.31-1.02c-.45 0-.86.07-1.24.2s-.71.36-1 .66c-.27.3-.49.69-.65 1.15a5.12 5.12 0 0 0-.24 1.67zm11.25 0c0-1 .15-1.9.45-2.67a5.48 5.48 0 0 1 3.28-3.2 7.58 7.58 0 0 1 2.59-.43c1 0 1.9.16 2.68.46a5.36 5.36 0 0 1 3.22 3.26c.27.78.41 1.64.41 2.57 0 1-.15 1.9-.45 2.67a5.48 5.48 0 0 1-3.28 3.2 7.6 7.6 0 0 1-2.58.42c-1 0-1.9-.15-2.68-.45a5.36 5.36 0 0 1-3.22-3.26 7.6 7.6 0 0 1-.42-2.57zm3.2 0c0 .52.07 1 .2 1.45s.36.83.63 1.17a2.8 2.8 0 0 0 2.29 1.04c.92 0 1.67-.29 2.25-.88.58-.58.87-1.51.87-2.79 0-1.1-.27-1.98-.81-2.65s-1.31-1.02-2.31-1.02c-.45 0-.86.07-1.24.2s-.71.36-1 .66c-.27.3-.49.69-.65 1.15a5.15 5.15 0 0 0-.24 1.67zm17.88-10.73h4.98v10.3a32.36 32.36 0 0 0 .22 3.76h1.52v2.62h-3.83l-.32-1.52h-.1a2.5 2.5 0 0 1-.63.76 4.78 4.78 0 0 1-3.2 1.1c-.74 0-1.45-.12-2.1-.36a4.58 4.58 0 0 1-1.73-1.1 5.3 5.3 0 0 1-1.17-1.91 7.84 7.84 0 0 1-.43-2.73c0-1.02.15-1.93.46-2.72a5.64 5.64 0 0 1 3.23-3.28c.75-.3 1.57-.44 2.46-.44.49 0 .95.03 1.4.08.43.06.8.15 1.12.28v-2.22h-1.88v-2.62zm-.64 14.4c.6 0 1.14-.15 1.6-.44s.78-.72.92-1.28v-5.05c-.22-.18-.52-.3-.91-.4s-.8-.13-1.23-.13c-.43 0-.85.07-1.25.22a2.97 2.97 0 0 0-1.81 1.88 5.1 5.1 0 0 0-.28 1.81c0 1.02.26 1.84.76 2.46a2.7 2.7 0 0 0 2.2.93z"/><path fill="#FFF" d="m246.1 269.74-4.15-5.77h3.69l2.7 3.98 2.8-3.98h3.37l-4.08 5.72 4.31 6.2h-3.6l-3.02-4.4-3.07 4.4h-3.39l4.43-6.15z"/><path d="M270.64 272.52h.9l2.31-8.55h3.2l-3.39 10.74c-.3.9-.6 1.7-.88 2.45a8.87 8.87 0 0 1-1 1.91 4.2 4.2 0 0 1-1.35 1.26c-.51.29-1.14.44-1.9.44-.36 0-.7-.05-1.03-.15a5.65 5.65 0 0 1-1.6-.77 4.2 4.2 0 0 1-.5-.42l1.59-2.12c.2.17.45.34.74.49.28.15.55.22.8.22.49 0 .86-.16 1.14-.5.28-.33.54-.88.8-1.64h-1.7l-4.95-11.92h3.36l3.46 8.56zm15.52-8.55h4.43v9.3h1.81v2.61h-3.76l-.55-1.76h-.1a4.2 4.2 0 0 1-1.64 1.5 5.44 5.44 0 0 1-4.09.36c-.5-.16-.92-.42-1.27-.79a3.65 3.65 0 0 1-.81-1.48 8.09 8.09 0 0 1-.29-2.33v-4.8h-1.36v-2.61H283v6.77c0 .96.15 1.66.46 2.1.31.42.8.64 1.47.64a2.84 2.84 0 0 0 2.57-1.81v-5.08h-1.33v-2.62zm12.94 11.91v-7.29c0-.48-.03-.86-.1-1.15-.06-.3-.14-.53-.24-.7a.76.76 0 0 0-.39-.33 1.3 1.3 0 0 0-.46-.08 1.31 1.31 0 0 0-1.22.93v8.62h-2.85v-11.91h2.26l.33 1.31h.08a2.91 2.91 0 0 1 2.66-1.57c.53 0 1.03.12 1.5.38s.8.7.98 1.33c.24-.55.6-.98 1.1-1.27.49-.3 1.02-.44 1.6-.44.42 0 .8.06 1.15.18s.64.33.9.63c.25.3.44.71.58 1.23.13.51.2 1.18.2 1.99v8.15h-2.86v-7.63c0-.72-.11-1.22-.34-1.5a1.05 1.05 0 0 0-.85-.43c-.29 0-.53.07-.74.2-.2.14-.35.36-.43.66v8.7h-2.86zm15.41 0v-7.29c0-.48-.03-.86-.1-1.15-.06-.3-.14-.53-.24-.7a.76.76 0 0 0-.38-.33 1.3 1.3 0 0 0-.47-.08 1.3 1.3 0 0 0-1.21.93v8.62h-2.86v-11.91h2.26l.34 1.31h.07a2.91 2.91 0 0 1 2.67-1.57c.52 0 1.02.12 1.5.38s.8.7.97 1.33c.24-.55.6-.98 1.1-1.27a3.43 3.43 0 0 1 2.75-.26c.34.12.64.33.9.63.25.3.44.71.58 1.23.13.51.2 1.18.2 1.99v8.15h-2.86v-7.63c0-.72-.11-1.22-.34-1.5a1.05 1.05 0 0 0-.85-.43c-.28 0-.53.07-.74.2-.2.14-.35.36-.43.66v8.7h-2.86zm15.97-3.36h.9l2.32-8.55h3.19l-3.38 10.74c-.3.9-.6 1.7-.89 2.45a8.87 8.87 0 0 1-1 1.91 4.2 4.2 0 0 1-1.34 1.26c-.52.29-1.15.44-1.9.44-.36 0-.7-.05-1.03-.15a5.65 5.65 0 0 1-1.61-.77 4.2 4.2 0 0 1-.5-.42l1.6-2.12c.2.17.45.34.73.49.29.15.56.22.81.22.48 0 .86-.16 1.13-.5.28-.33.55-.88.8-1.64h-1.69l-4.96-11.92h3.36l3.46 8.56zm-153.74 27.94H70.09l-38.27-32.32 38.28-31.68h106.64v64zm-105.19-4h101.19v-56H71.54l-33.48 27.7 33.49 28.3z"/><path d="M350.84 300.46H244.19l-38.26-32.32 38.27-31.68h106.64v64zm-105.19-4h101.19v-56h-101.2l-33.48 27.7 33.5 28.3z"/></svg>
