<?xml version="1.0" encoding="utf-8"?>
<!-- Generator: Adobe Illustrator 16.0.0, SVG Export Plug-In . SVG Version: 6.00 Build 0)  -->
<!DOCTYPE svg PUBLIC "-//W3C//DTD SVG 1.1//EN" "http://www.w3.org/Graphics/SVG/1.1/DTD/svg11.dtd">
<svg version="1.1" id="Layer_1" xmlns="http://www.w3.org/2000/svg" xmlns:xlink="http://www.w3.org/1999/xlink" x="0px" y="0px"
	 width="841.572px" height="721.033px" viewBox="0 0 841.572 721.033" enable-background="new 0 0 841.572 721.033"
	 xml:space="preserve">
<g>
	<g>
		<g>
			<path d="M797.755,179.315H45.817c-21.779,0-39.498-17.719-39.498-39.497s17.719-39.497,39.498-39.497h751.938
				c21.779,0,39.498,17.719,39.498,39.497S819.534,179.315,797.755,179.315z M45.817,104.321c-19.573,0-35.498,15.924-35.498,35.497
				s15.925,35.497,35.498,35.497h751.938c19.573,0,35.498-15.924,35.498-35.497s-15.925-35.497-35.498-35.497H45.817z"/>
		</g>
		<g>
			<path d="M45.192,144.562h5.26v4.732c0.096,0.033,0.191,0.064,0.287,0.096c0.732,0.319,1.537,0.582,2.414,0.789
				c0.877,0.208,1.809,0.311,2.797,0.311c1.785,0,3.172-0.357,4.16-1.075c0.986-0.718,1.48-1.681,1.48-2.893
				c0-1.083-0.406-1.96-1.219-2.63c-0.812-0.669-1.816-1.258-3.012-1.769c-1.195-0.509-2.502-1.02-3.92-1.53
				c-1.418-0.509-2.725-1.154-3.92-1.936s-2.199-1.761-3.014-2.94c-0.812-1.179-1.219-2.708-1.219-4.59
				c0-1.435,0.279-2.749,0.838-3.944c0.557-1.195,1.338-2.223,2.342-3.084c1.004-0.859,2.207-1.529,3.609-2.008
				c1.402-0.478,2.965-0.717,4.686-0.717c1.943,0,3.855,0.176,5.736,0.525c1.881,0.352,3.379,0.83,4.494,1.436v9.705h-5.258v-5.307
				c-0.096,0-0.191-0.016-0.287-0.049c-0.701-0.191-1.459-0.342-2.271-0.453s-1.617-0.168-2.414-0.168
				c-1.529,0-2.732,0.303-3.609,0.908s-1.314,1.418-1.314,2.438c0,1.052,0.406,1.912,1.219,2.581
				c0.812,0.67,1.816,1.275,3.012,1.817s2.502,1.084,3.92,1.626c1.418,0.541,2.727,1.203,3.922,1.983
				c1.195,0.781,2.199,1.762,3.012,2.94c0.812,1.18,1.219,2.662,1.219,4.446c0,1.722-0.318,3.228-0.957,4.518
				c-0.637,1.291-1.529,2.375-2.676,3.251c-1.148,0.877-2.504,1.53-4.064,1.961c-1.562,0.43-3.252,0.645-5.068,0.645
				c-1.211,0-2.334-0.096-3.371-0.287c-1.035-0.19-1.992-0.43-2.867-0.717c-0.877-0.287-1.65-0.589-2.318-0.908
				c-0.67-0.318-1.213-0.59-1.627-0.812V144.562z"/>
			<path d="M74.013,133.231c1.273-0.574,2.748-1.068,4.422-1.482s3.658-0.622,5.953-0.622c1.656,0,3.066,0.2,4.23,0.598
				c1.162,0.399,2.104,0.964,2.82,1.697s1.234,1.61,1.555,2.63c0.318,1.02,0.477,2.168,0.477,3.441c0,1.626-0.055,3.013-0.166,4.16
				c-0.113,1.147-0.168,2.168-0.168,3.06c0,0.669,0.031,1.419,0.096,2.247c0.064,0.447,0.111,0.877,0.143,1.291h3.109v5.259h-8.025
				l-0.629-3.251h-0.238c-0.633,0.988-1.535,1.841-2.707,2.558c-1.174,0.718-2.756,1.075-4.752,1.075
				c-2.377,0-4.262-0.637-5.654-1.912c-1.395-1.273-2.09-2.964-2.09-5.067c0-1.339,0.244-2.493,0.734-3.466
				c0.492-0.973,1.203-1.77,2.139-2.391c0.934-0.621,2.059-1.084,3.373-1.387s2.779-0.454,4.393-0.454
				c0.57,0,1.174,0.032,1.807,0.096s1.408,0.128,2.328,0.191c0.062-0.318,0.094-0.638,0.094-0.956v-0.908
				c0-1.211-0.348-2.08-1.043-2.605c-0.697-0.526-1.727-0.789-3.086-0.789c-1.615,0-3.07,0.207-4.367,0.621
				s-2.389,0.829-3.275,1.243L74.013,133.231z M82.149,150.776c1.512,0,2.646-0.278,3.404-0.836
				c0.756-0.558,1.307-1.155,1.654-1.793v-2.869c-0.316-0.062-0.789-0.135-1.42-0.215c-0.629-0.079-1.307-0.119-2.031-0.119
				c-0.6,0-1.197,0.056-1.797,0.167c-0.6,0.112-1.135,0.286-1.607,0.526c-0.473,0.238-0.85,0.549-1.135,0.932
				c-0.283,0.383-0.424,0.846-0.424,1.387c0,0.893,0.26,1.586,0.779,2.08S80.952,150.776,82.149,150.776z"/>
			<path d="M113.282,131.605h8.893v16.638c0,0.669,0,1.338,0,2.008h3.633v5.259h-7.555l-1.1-3.538h-0.191
				c-0.732,1.212-1.832,2.216-3.299,3.012c-1.465,0.797-3.092,1.195-4.875,1.195c-1.213,0-2.32-0.16-3.324-0.478
				c-1.004-0.318-1.855-0.845-2.557-1.577c-0.701-0.733-1.244-1.722-1.625-2.965c-0.383-1.243-0.574-2.805-0.574-4.686v-9.609
				h-2.725v-5.259h8.939v13.577c0,1.945,0.311,3.348,0.932,4.207c0.621,0.861,1.602,1.291,2.941,1.291
				c1.178,0,2.238-0.35,3.178-1.051c0.941-0.701,1.604-1.562,1.984-2.582v-10.184h-2.676V131.605z"/>
			<path d="M145.36,148.912c0-0.638-0.391-1.147-1.17-1.53c-0.781-0.382-1.746-0.732-2.893-1.051
				c-1.148-0.318-2.406-0.646-3.777-0.98c-1.371-0.335-2.629-0.797-3.777-1.387c-1.146-0.59-2.111-1.339-2.893-2.247
				s-1.17-2.079-1.17-3.514c0-1.179,0.262-2.216,0.789-3.108c0.525-0.891,1.242-1.648,2.15-2.271s1.992-1.091,3.252-1.41
				c1.258-0.318,2.621-0.478,4.086-0.478c1.562,0,2.934,0.111,4.113,0.334c1.178,0.224,2.205,0.494,3.082,0.812
				c0.877,0.319,1.627,0.678,2.248,1.076s1.154,0.758,1.602,1.076l-2.629,4.254c-0.479-0.286-1.029-0.58-1.65-0.884
				c-0.621-0.303-1.275-0.581-1.959-0.837c-0.688-0.255-1.404-0.461-2.152-0.621c-0.75-0.16-1.49-0.239-2.223-0.239
				c-1.34,0-2.424,0.175-3.252,0.526c-0.828,0.351-1.242,0.893-1.242,1.625c0,0.574,0.389,1.036,1.172,1.387
				c0.779,0.351,1.744,0.678,2.891,0.979c1.148,0.304,2.406,0.63,3.777,0.98s2.631,0.806,3.777,1.362
				c1.146,0.559,2.111,1.283,2.893,2.176s1.172,2.039,1.172,3.441c0,2.423-0.885,4.327-2.654,5.714
				c-1.77,1.386-4.391,2.079-7.865,2.079c-2.74,0-5.107-0.406-7.1-1.219s-3.594-1.761-4.805-2.845l2.869-4.494
				c0.414,0.351,0.963,0.741,1.65,1.171c0.684,0.431,1.457,0.822,2.318,1.172c0.859,0.352,1.775,0.646,2.748,0.885
				c0.973,0.238,1.938,0.358,2.893,0.358c1.02,0,1.896-0.175,2.629-0.526C144.995,150.331,145.36,149.741,145.36,148.912z"/>
			<path d="M157.739,133.231c1.273-0.574,2.748-1.068,4.422-1.482s3.658-0.622,5.953-0.622c1.656,0,3.066,0.2,4.23,0.598
				c1.162,0.399,2.104,0.964,2.82,1.697s1.234,1.61,1.555,2.63c0.318,1.02,0.477,2.168,0.477,3.441c0,1.626-0.055,3.013-0.166,4.16
				c-0.113,1.147-0.168,2.168-0.168,3.06c0,0.669,0.031,1.419,0.096,2.247c0.064,0.447,0.111,0.877,0.143,1.291h3.109v5.259h-8.025
				l-0.629-3.251h-0.238c-0.633,0.988-1.535,1.841-2.707,2.558c-1.174,0.718-2.756,1.075-4.752,1.075
				c-2.377,0-4.262-0.637-5.654-1.912c-1.395-1.273-2.09-2.964-2.09-5.067c0-1.339,0.244-2.493,0.734-3.466
				c0.492-0.973,1.203-1.77,2.139-2.391c0.934-0.621,2.059-1.084,3.373-1.387s2.779-0.454,4.393-0.454
				c0.57,0,1.174,0.032,1.807,0.096s1.408,0.128,2.328,0.191c0.062-0.318,0.094-0.638,0.094-0.956v-0.908
				c0-1.211-0.348-2.08-1.043-2.605c-0.697-0.526-1.727-0.789-3.086-0.789c-1.615,0-3.07,0.207-4.367,0.621
				s-2.389,0.829-3.275,1.243L157.739,133.231z M165.876,150.776c1.512,0,2.646-0.278,3.404-0.836
				c0.756-0.558,1.307-1.155,1.654-1.793v-2.869c-0.316-0.062-0.789-0.135-1.42-0.215c-0.629-0.079-1.307-0.119-2.031-0.119
				c-0.6,0-1.197,0.056-1.797,0.167c-0.6,0.112-1.135,0.286-1.607,0.526c-0.473,0.238-0.85,0.549-1.135,0.932
				c-0.283,0.383-0.424,0.846-0.424,1.387c0,0.893,0.26,1.586,0.779,2.08S164.679,150.776,165.876,150.776z"/>
			<path d="M206.599,155.51c0,1.722-0.295,3.219-0.885,4.494c-0.59,1.274-1.402,2.335-2.438,3.179
				c-1.037,0.845-2.264,1.467-3.682,1.865s-2.973,0.598-4.66,0.598c-1.148,0-2.225-0.088-3.229-0.264s-1.928-0.406-2.771-0.693
				c-0.846-0.286-1.586-0.598-2.225-0.932c-0.637-0.334-1.146-0.662-1.529-0.98l2.391-4.398c0.766,0.51,1.68,0.996,2.748,1.459
				c1.068,0.461,2.416,0.693,4.041,0.693c2.008,0,3.537-0.463,4.59-1.387c1.051-0.926,1.576-2.248,1.576-3.969v-1.529h-0.189
				c-0.574,0.765-1.42,1.331-2.535,1.697c-1.115,0.365-2.406,0.549-3.873,0.549c-1.529,0-2.939-0.238-4.23-0.717
				s-2.414-1.203-3.371-2.175c-0.955-0.972-1.697-2.207-2.223-3.706c-0.525-1.497-0.789-3.25-0.789-5.258
				c0-2.104,0.311-3.969,0.934-5.594c0.621-1.626,1.496-2.988,2.629-4.088c1.131-1.1,2.486-1.928,4.064-2.486
				c1.576-0.557,3.338-0.836,5.281-0.836c1.021,0,2.041,0.039,3.061,0.119s1.984,0.184,2.893,0.311s1.744,0.279,2.51,0.454
				c0.766,0.176,1.402,0.358,1.912,0.55V155.51z M195.124,150.92c1.211,0,2.303-0.271,3.275-0.812s1.633-1.354,1.984-2.438v-10.757
				c-0.447-0.191-1.076-0.343-1.889-0.454s-1.586-0.168-2.318-0.168c-0.893,0-1.729,0.145-2.51,0.431
				c-0.781,0.287-1.467,0.741-2.057,1.362c-0.59,0.622-1.051,1.403-1.387,2.343c-0.334,0.94-0.502,2.064-0.502,3.37
				c0,1.148,0.145,2.168,0.432,3.061s0.684,1.642,1.195,2.247c0.508,0.605,1.082,1.06,1.721,1.362
				C193.706,150.769,194.392,150.92,195.124,150.92z"/>
			<path d="M234.862,152.976c-0.414,0.383-0.949,0.758-1.602,1.124c-0.654,0.366-1.418,0.71-2.295,1.028s-1.84,0.573-2.893,0.764
				c-1.051,0.191-2.168,0.287-3.346,0.287c-2.041,0-3.865-0.287-5.475-0.86s-2.973-1.41-4.088-2.51s-1.969-2.422-2.557-3.968
				c-0.592-1.546-0.885-3.307-0.885-5.283c0-2.104,0.334-3.944,1.004-5.521c0.668-1.578,1.584-2.893,2.748-3.945
				c1.164-1.051,2.525-1.84,4.088-2.366c1.561-0.526,3.252-0.788,5.068-0.788c1.211,0,2.461,0.159,3.752,0.478
				c1.291,0.319,2.479,0.868,3.562,1.649s1.967,1.824,2.652,3.131c0.686,1.309,1.029,2.965,1.029,4.973
				c0,1.371-0.16,2.854-0.479,4.446h-17.211c0.031,1.021,0.246,1.881,0.645,2.581c0.398,0.702,0.924,1.275,1.578,1.722
				c0.652,0.446,1.402,0.773,2.248,0.979c0.844,0.209,1.744,0.312,2.701,0.312c1.912,0,3.48-0.223,4.709-0.669
				c1.227-0.446,2.223-0.988,2.988-1.626L234.862,152.976z M224.536,135.908c-0.83,0-1.609,0.114-2.344,0.341
				c-0.732,0.228-1.395,0.561-1.982,0.999c-0.592,0.438-1.076,0.982-1.459,1.632c-0.383,0.65-0.605,1.381-0.67,2.191h11.762
				c0-1.591-0.439-2.85-1.314-3.774C227.651,136.371,226.321,135.908,224.536,135.908z"/>
		</g>
	</g>
	<g>
		<g>
			<g>
				<path fill="#FFFFFF" d="M329.2,720.89v-63.255c0-46.924,38.038-84.959,84.959-84.959h342.455
					c46.923,0,84.958,38.035,84.958,84.959v63.255H329.2z"/>
			</g>
			<g>
				<path fill="#F68635" d="M640.452,600.897V489.011H530.321v113.711h0.046c0.042,30.377,24.678,54.988,55.062,54.988
					c30.412,0,55.065-24.653,55.065-55.064C640.495,602.059,640.47,601.479,640.452,600.897z"/>
				<path d="M585.43,659.71c-30.752,0-55.926-24.488-57.025-54.988h-0.037l-0.046-2V487.011h114.131l0.012,114.231
					c0.016,0.466,0.031,0.933,0.031,1.403C642.495,634.111,616.896,659.71,585.43,659.71z M532.321,600.835l0.046,1.884
					c0.04,29.22,23.844,52.991,53.062,52.991c29.261,0,53.065-23.805,53.065-53.064c0-0.426-0.015-0.848-0.028-1.27l-0.014-0.418
					l-0.001-109.947H532.321V600.835z"/>
			</g>
			<g>
				<g>
					<g>
						<circle cx="475.838" cy="328.445" r="60.667"/>
					</g>
					<g>
						<circle cx="553.779" cy="279.501" r="60.667"/>
					</g>
					<g>
						<circle cx="739.537" cy="433.01" r="60.667"/>
					</g>
					<g>
						<circle cx="716.318" cy="340.13" r="60.667"/>
					</g>
					<g>
						<circle cx="649.238" cy="278.211" r="60.667"/>
					</g>
				</g>
				<g>
					<g>
						<g>
							<defs>
								<path id="SVGID_5_" d="M722.686,440.753c-1.605-0.647-3.23-1.186-4.863-1.639c5.69-56.178-25.907-111.648-80.916-133.793
									c-55.005-22.143-116.225-4.037-151.045,40.414c-1.49-0.804-3.033-1.541-4.641-2.188
									c-23.153-9.321-49.478,1.893-58.798,25.044c-9.32,23.154,1.893,49.477,25.046,58.797c3.526,1.421,7.127,2.356,10.731,2.855
									c1.634,49.969,32.142,96.673,81.501,116.543c49.359,19.871,103.717,7.33,139.517-27.568
									c2.942,2.137,6.188,3.956,9.717,5.377c23.151,9.319,49.476-1.892,58.796-25.046
									C757.051,476.398,745.839,450.073,722.686,440.753z"/>
							</defs>
							<defs>
								<path id="SVGID_6_" d="M588.254,558.236c-16.899,0-33.486-3.228-49.3-9.594c-48.047-19.342-80.354-65.019-82.688-116.677
									c-3.271-0.572-6.474-1.485-9.544-2.722c-24.138-9.717-35.871-37.261-26.154-61.399
									c7.234-17.969,24.423-29.579,43.791-29.579c6.037,0,11.962,1.153,17.609,3.427c1.104,0.444,2.228,0.95,3.352,1.51
									c24.871-30.92,63.259-49.329,103.034-49.329c16.9,0,33.486,3.228,49.3,9.593c27.104,10.911,49.301,29.919,64.192,54.968
									c14.129,23.767,20.539,51.838,18.123,79.229c1.199,0.376,2.359,0.789,3.465,1.235c11.692,4.706,20.853,13.686,25.792,25.282
									s5.067,24.423,0.36,36.116c-7.233,17.968-24.423,29.58-43.79,29.58c-0.001,0,0.001,0-0.001,0
									c-6.036,0-11.96-1.153-17.607-3.426c-3.076-1.239-6.019-2.801-8.768-4.651C655.023,544.975,621.894,558.236,588.254,558.236
									z M464.358,342.266c-17.727,0-33.459,10.627-40.08,27.073c-8.894,22.093,1.845,47.302,23.938,56.194
									c3.285,1.324,6.736,2.242,10.259,2.729l1.67,0.231l0.055,1.685c1.659,50.753,33.159,95.797,80.249,114.753
									c15.336,6.174,31.421,9.305,47.806,9.305c33.159,0,65.805-13.285,89.567-36.45l1.208-1.177l1.363,0.991
									c2.871,2.084,5.996,3.813,9.289,5.14c5.17,2.081,10.591,3.137,16.114,3.137c17.727,0,33.459-10.627,40.079-27.074
									c4.309-10.701,4.191-22.44-0.329-33.055c-4.521-10.613-12.905-18.832-23.607-23.14c-1.456-0.588-3.021-1.114-4.651-1.567
									l-1.625-0.45l0.17-1.678c2.742-27.066-3.446-54.922-17.425-78.436c-14.439-24.289-35.964-42.72-62.248-53.301
									c-15.336-6.174-31.42-9.304-47.806-9.304c-39.109,0-76.836,18.354-100.918,49.096l-1.039,1.327l-1.484-0.8
									c-1.488-0.803-2.981-1.507-4.438-2.093C475.304,343.321,469.881,342.266,464.358,342.266z"/>
							</defs>
							<use xlink:href="#SVGID_5_"  overflow="visible" fill="#F68635"/>
							<use xlink:href="#SVGID_6_"  overflow="visible"/>
							<clipPath id="SVGID_3_">
								<use xlink:href="#SVGID_5_"  overflow="visible"/>
							</clipPath>
							<clipPath id="SVGID_4_" clip-path="url(#SVGID_3_)">
								<use xlink:href="#SVGID_6_"  overflow="visible"/>
							</clipPath>
						</g>
						<g>
							<line fill="#DDF6C5" x1="447.566" y1="365.828" x2="462.029" y2="404.126"/>
							<path d="M462.029,406.127c-0.808,0-1.568-0.494-1.871-1.294l-14.463-38.298c-0.391-1.034,0.131-2.188,1.164-2.578
								c1.034-0.39,2.188,0.131,2.578,1.164l14.463,38.298c0.391,1.034-0.131,2.188-1.164,2.578
								C462.503,406.085,462.265,406.127,462.029,406.127z"/>
						</g>
						<g>
							<line fill="#DDF6C5" x1="726.503" y1="478.117" x2="689.54" y2="495.714"/>
							<path d="M689.541,497.714c-0.747,0-1.464-0.421-1.807-1.141c-0.475-0.997-0.052-2.19,0.946-2.665l36.963-17.597
								c0.997-0.474,2.19-0.051,2.665,0.946s0.052,2.19-0.946,2.665l-36.963,17.597
								C690.122,497.651,689.829,497.714,689.541,497.714z"/>
						</g>
					</g>
					<g>
						<g>
							<path d="M643.223,478.248c-5.497,0-11.015-1.04-16.258-3.15c-13.322-5.362-23.142-16.95-26.268-30.997
								c-0.24-1.078,0.439-2.146,1.518-2.387c1.083-0.241,2.146,0.439,2.387,1.518c2.84,12.76,11.758,23.285,23.857,28.155
								c12.101,4.871,25.825,3.463,36.711-3.772c0.92-0.609,2.161-0.36,2.772,0.56s0.361,2.161-0.56,2.772
								C660.115,475.775,651.695,478.248,643.223,478.248z"/>
						</g>
					</g>
					<g>
						<g>
							<path d="M539.256,436.395c-5.497,0-11.013-1.039-16.255-3.149c-13.322-5.362-23.143-16.95-26.269-30.997
								c-0.24-1.078,0.439-2.146,1.518-2.387c1.086-0.236,2.147,0.44,2.387,1.518c2.84,12.76,11.759,23.285,23.858,28.155
								c12.098,4.871,25.82,3.461,36.711-3.772c0.92-0.608,2.163-0.36,2.772,0.56c0.611,0.92,0.36,2.161-0.56,2.772
								C556.148,433.923,547.728,436.395,539.256,436.395z"/>
						</g>
					</g>
					<g>
						<line fill="#DDF6C5" x1="584.539" y1="432.985" x2="575.203" y2="456.179"/>
						<path d="M575.202,458.18c-0.248,0-0.501-0.047-0.746-0.146c-1.024-0.413-1.521-1.577-1.108-2.603l9.336-23.193
							c0.412-1.023,1.573-1.523,2.603-1.108c1.024,0.413,1.521,1.577,1.108,2.603l-9.336,23.193
							C576.744,457.705,575.994,458.18,575.202,458.18z"/>
					</g>
					<g>
						<path d="M508.208,445.771l-0.004-0.002c-0.013,0.031-0.023,0.062-0.036,0.094c-0.012,0.03-0.025,0.061-0.038,0.093
							l0.003,0.001c-13.486,33.785,2.901,72.141,36.671,85.734c33.773,13.597,72.161-2.709,85.845-36.415l0.003,0.002
							c0.013-0.031,0.024-0.062,0.035-0.093c0.015-0.032,0.026-0.062,0.04-0.093l-0.003-0.001"/>
					</g>
					<g>
						<g>
							<path fill="#FFFFFF" d="M569.614,470.489c-2.979,7.4-11.394,10.986-18.793,8.007c-7.401-2.979-10.985-11.394-8.005-18.794
								L569.614,470.489z"/>
						</g>
						<g>
							<path fill="#FFFFFF" d="M596.115,481.16c-2.979,7.399-11.394,10.982-18.793,8.004c-7.4-2.979-10.985-11.394-8.006-18.794
								L596.115,481.16z"/>
						</g>
					</g>
				</g>
			</g>
		</g>
		<g>
			<g>
				<polygon fill="#FFFFFF" points="298.682,721.033 160.176,721.033 126.682,664.958 228.682,598.958 				"/>
			</g>
			<g>
				<g>
					<path fill="#F68635" d="M271.686,477.388c-11.065-6.289-25.137-2.413-31.424,8.652l-22.243,39.035l-5.312-8.29L57.774,616.064
						l14.329,22.367c17.201,26.848,52.912,34.665,79.757,17.46l57.716-36.984c9.095-5.826,16.383-13.151,20.877-22.161
						c0.959-1.753,1.501-3.024,2.275-4.388l47.609-83.548C286.626,497.743,282.751,483.676,271.686,477.388z"/>
					<path d="M120.766,667.024L120.766,667.024c-20.487-0.001-39.309-10.286-50.346-27.514l-14.329-22.367
						c-0.597-0.931-0.325-2.167,0.604-2.763l154.933-99.279c0.445-0.286,0.987-0.382,1.507-0.271
						c0.519,0.114,0.97,0.429,1.256,0.875l3.527,5.506l20.606-36.162c4.441-7.817,12.794-12.675,21.798-12.675
						c4.312,0,8.583,1.132,12.352,3.273c12.007,6.823,16.225,22.143,9.403,34.15l-47.611,83.55c-0.377,0.665-0.697,1.31-1.043,2.004
						c-0.354,0.712-0.734,1.474-1.215,2.354c-4.402,8.829-11.666,16.552-21.553,22.885l-57.716,36.984
						C143.296,663.757,132.169,667.024,120.766,667.024z M60.537,616.67l13.25,20.683c10.299,16.074,27.861,25.671,46.979,25.672
						c10.637,0,21.017-3.049,30.016-8.816l57.716-36.984c9.271-5.939,16.056-13.129,20.166-21.37
						c0.488-0.896,0.845-1.613,1.179-2.283c0.372-0.747,0.724-1.453,1.147-2.2l47.611-83.55c5.73-10.087,2.187-22.96-7.903-28.693
						c-3.167-1.801-6.755-2.752-10.375-2.752c-7.567,0-14.588,4.082-18.321,10.653l-22.245,39.037
						c-0.347,0.608-0.985,0.991-1.686,1.009c-0.722,0.029-1.358-0.332-1.735-0.92l-4.233-6.606L60.537,616.67z"/>
				</g>
				<g>
					<path fill="#F68635" d="M297.062,482.528l69.754-44.818c3.566-2.291,4.601-7.035,2.316-10.602
						c-0.001-0.004-0.005-0.005-0.006-0.009c-2.291-3.566-7.041-4.601-10.609-2.309l-69.747,44.813
						c-7.831,5.018-17.69,4.371-24.747-0.873l87.285-55.934c3.572-2.287,4.613-7.037,2.322-10.607
						c-2.286-3.569-7.035-4.608-10.604-2.322l-87.286,55.934c-1.816-8.604,1.715-17.832,9.543-22.849l69.413-44.478
						c3.569-2.287,4.61-7.036,2.321-10.606c-2.287-3.569-7.037-4.61-10.606-2.322l-69.41,44.478
						c-15.019,9.623-20.771,28.328-14.694,44.385L5.537,616.127c-3.571,2.288-4.611,7.037-2.322,10.607
						c2.287,3.568,7.035,4.608,10.605,2.323l236.771-151.721C262.641,489.565,282.037,492.157,297.062,482.528z"/>
					<path fill="#FFFFFF" d="M9.688,632.27c-3.319,0-6.368-1.665-8.156-4.456c-1.396-2.176-1.859-4.766-1.307-7.291
						s2.057-4.685,4.233-6.079l235.434-150.862c-5.565-16.81,1.013-35.618,16.03-45.24l69.41-44.478
						c1.562-1.001,3.364-1.53,5.213-1.53c3.319,0,6.368,1.666,8.156,4.457c1.396,2.176,1.859,4.766,1.307,7.291
						s-2.057,4.684-4.232,6.078l-69.413,44.478c-6.027,3.863-9.447,10.751-9.058,17.787l84.643-54.239
						c1.562-1.001,3.364-1.529,5.213-1.529c3.319,0,6.367,1.666,8.155,4.456c1.395,2.175,1.859,4.765,1.308,7.29
						c-0.554,2.526-2.058,4.686-4.236,6.081l-84.64,54.238c2.854,1.507,6.074,2.316,9.318,2.316c3.77,0,7.444-1.078,10.626-3.116
						l69.745-44.812c1.565-1.005,3.372-1.536,5.225-1.536c3.238,0,6.222,1.587,8.025,4.259l0.253,0.252l0.061,0.244
						c2.632,4.451,1.283,10.248-3.103,13.065l-69.754,44.818c-6.306,4.041-13.585,6.176-21.052,6.176c-0.001,0-0.001,0-0.002,0
						c-9.906,0-19.564-3.812-26.754-10.51L14.899,630.741C13.337,631.741,11.535,632.27,9.688,632.27z M330.545,376.333
						c-1.082,0-2.138,0.311-3.055,0.897l-69.41,44.478c-13.895,8.903-19.742,26.563-13.903,41.993l0.574,1.517L6.616,617.811
						c-1.277,0.818-2.16,2.086-2.484,3.567s-0.052,3,0.767,4.277c1.05,1.637,2.84,2.614,4.789,2.614c1.082,0,2.138-0.31,3.055-0.896
						l238.136-152.595l1.139,1.155c6.546,6.643,15.685,10.453,25.073,10.453c0.001,0,0.001,0,0.002,0
						c6.701,0,13.233-1.916,18.892-5.542l69.752-44.817c2.575-1.654,3.366-5.059,1.817-7.671l-0.224-0.223l-0.052-0.198
						c-1.065-1.485-2.77-2.363-4.616-2.363c-1.085,0-2.144,0.312-3.062,0.901l-69.747,44.813c-3.829,2.453-8.25,3.75-12.786,3.75
						c-5.101,0-10.156-1.669-14.235-4.7l-2.323-1.728l89.723-57.495c1.278-0.819,2.161-2.086,2.485-3.568
						c0.324-1.48,0.052-2.999-0.768-4.275c-1.049-1.639-2.838-2.615-4.787-2.615c-1.082,0-2.139,0.31-3.055,0.897l-89.724,57.495
						l-0.599-2.833c-2.031-9.624,2.156-19.649,10.421-24.945l69.413-44.478c1.276-0.818,2.158-2.085,2.483-3.566
						c0.324-1.481,0.052-3-0.767-4.277C334.284,377.311,332.494,376.333,330.545,376.333z"/>
				</g>
				<g>
					<g>
						<path fill="#F68635" d="M167.479,574.195c10.7-6.894,13.786-21.152,6.894-31.854c6.893,10.702,21.156,13.788,31.856,6.893
							c10.701-6.893,13.788-21.154,6.896-31.854l-28.501-44.245c-6.893-10.702-21.156-13.788-31.857-6.897
							c-10.698,6.893-13.787,21.158-6.894,31.858c-6.894-10.7-21.155-13.79-31.856-6.897c-10.155,6.543-13.444,19.712-7.87,30.185
							c-7.229-9.407-20.581-11.856-30.735-5.316c-10.699,6.894-13.785,21.155-6.894,31.858c-6.892-10.703-21.157-13.79-31.854-6.898
							c-10.703,6.896-13.788,21.156-6.896,31.858l28.5,44.246c6.895,10.697,21.156,13.785,31.857,6.893
							c10.699-6.894,13.788-21.154,6.896-31.856c6.893,10.702,21.153,13.787,31.855,6.895c10.152-6.539,13.443-19.709,7.866-30.181
							C143.975,578.286,157.324,580.734,167.479,574.195z"/>
						<path d="M77.666,629.697c-8.564,0-16.445-4.292-21.079-11.483l-28.501-44.246c-7.477-11.611-4.115-27.144,7.495-34.623
							c4.054-2.611,8.735-3.992,13.539-3.992c5.123,0,10.001,1.536,14.086,4.31c-1.625-9.591,2.444-19.686,11.123-25.277
							c4.055-2.611,8.735-3.991,13.536-3.991c4.99,0,9.851,1.519,13.935,4.238c-1.533-9.578,2.615-19.626,11.135-25.115
							c4.055-2.611,8.736-3.992,13.539-3.992c5.123,0,10.001,1.536,14.086,4.31c-1.626-9.591,2.443-19.685,11.125-25.278
							c4.056-2.611,8.738-3.991,13.541-3.991c8.567,0,16.448,4.294,21.081,11.487l28.501,44.245
							c3.622,5.624,4.838,12.322,3.422,18.86c-1.415,6.539-5.292,12.135-10.917,15.758c-4.056,2.613-8.739,3.995-13.545,3.995
							c-5.121,0-9.998-1.536-14.082-4.308c1.625,9.59-2.443,19.683-11.123,25.274c-4.055,2.61-8.736,3.991-13.536,3.991
							c0,0,0,0-0.001,0c-4.989,0-9.85-1.519-13.935-4.237c1.536,9.577-2.611,19.624-11.132,25.112
							c-4.057,2.612-8.74,3.993-13.544,3.993c-5.122,0-9.998-1.535-14.082-4.309c1.625,9.591-2.444,19.685-11.125,25.277
							C87.152,628.317,82.47,629.697,77.666,629.697z M49.12,539.353c-4.033,0-7.966,1.16-11.373,3.355
							c-9.756,6.285-12.581,19.337-6.298,29.094l28.5,44.246c3.894,6.042,10.518,9.649,17.717,9.649
							c4.034,0,7.968-1.16,11.376-3.355c9.755-6.285,12.58-19.336,6.297-29.092c-0.216-0.336-0.319-0.712-0.318-1.083
							c0-0.656,0.324-1.3,0.917-1.682c0.929-0.597,2.167-0.33,2.765,0.599c3.893,6.044,10.515,9.652,17.713,9.652
							c4.034,0,7.969-1.16,11.378-3.356c9.128-5.879,12.283-17.984,7.184-27.559c-0.488-0.918-0.192-2.058,0.683-2.621
							c0.873-0.563,2.033-0.364,2.669,0.462c3.951,5.138,10.193,8.206,16.697,8.206c4.031,0,7.964-1.16,11.371-3.354
							c9.754-6.284,12.578-19.334,6.295-29.09c-0.216-0.336-0.319-0.712-0.318-1.083c0-0.656,0.324-1.3,0.917-1.682
							c0.929-0.597,2.166-0.33,2.765,0.599c3.893,6.044,10.515,9.652,17.713,9.652c4.035,0,7.97-1.161,11.379-3.357
							c4.727-3.045,7.984-7.747,9.174-13.242c1.189-5.494,0.168-11.122-2.876-15.848l-28.501-44.245
							c-3.893-6.045-10.517-9.653-17.718-9.653c-4.033,0-7.967,1.16-11.375,3.354c-9.757,6.286-12.581,19.337-6.295,29.094
							c0.216,0.335,0.319,0.711,0.318,1.083c0,0.656-0.324,1.299-0.917,1.682c-0.928,0.599-2.165,0.33-2.765-0.599
							c-3.895-6.045-10.518-9.654-17.719-9.654c-4.032,0-7.966,1.16-11.373,3.355c-9.127,5.88-12.284,17.987-7.188,27.563
							c0.488,0.918,0.191,2.058-0.683,2.621c-0.874,0.562-2.035,0.362-2.669-0.463c-3.949-5.14-10.191-8.208-16.696-8.208
							c-4.031,0-7.963,1.16-11.37,3.354c-9.754,6.284-12.578,19.336-6.295,29.094c0.216,0.336,0.319,0.712,0.318,1.083
							c0,0.657-0.324,1.3-0.917,1.682c-0.928,0.6-2.165,0.331-2.765-0.599C62.944,542.962,56.321,539.353,49.12,539.353z"/>
					</g>
					<g>
						<path d="M174.383,544.368c-0.657,0-1.302-0.323-1.684-0.917l-28.497-44.266c-0.598-0.929-0.33-2.167,0.599-2.765
							c0.929-0.597,2.168-0.33,2.765,0.599l28.497,44.266c0.598,0.929,0.33,2.167-0.599,2.765
							C175.129,544.266,174.754,544.368,174.383,544.368z"/>
					</g>
					<g>
						<path d="M136.549,570.65c-0.657,0-1.302-0.324-1.684-0.918l-30.171-46.895c-0.598-0.929-0.329-2.166,0.6-2.764
							c0.93-0.599,2.167-0.328,2.764,0.6l30.171,46.895c0.598,0.929,0.329,2.166-0.6,2.764
							C137.294,570.548,136.919,570.65,136.549,570.65z"/>
					</g>
					<g>
						<path d="M97.576,594.938c-0.657,0-1.302-0.323-1.684-0.918l-29.937-46.524c-0.598-0.929-0.329-2.166,0.6-2.764
							c0.93-0.6,2.167-0.33,2.764,0.6l29.937,46.524c0.598,0.929,0.329,2.166-0.6,2.764
							C98.321,594.836,97.946,594.938,97.576,594.938z"/>
					</g>
				</g>
			</g>
			<g>
				<g>
					<path fill="#FFFFFF" d="M492.269,484.989c-0.792-18.58-16.491-33-35.07-32.209c-8.717,0.369-17.43-0.365-25.927-2.135
						l2.699,25.467c0.522,4.918-3.043,9.329-7.965,9.851c-4.916,0.521-9.328-3.045-9.848-7.964l-3.508-33.078
						c-2.599-1.068-5.163-2.232-7.675-3.512c-5.673-2.891-11.046-6.307-16.073-10.168l-8.4,24.553
						c-1.6,4.68-6.692,7.178-11.375,5.576c-4.68-1.601-7.174-6.693-5.573-11.375l10.981-32.102
						c-3.743-4.2-7.166-8.705-10.214-13.493c-2.778-4.364-5.194-8.892-7.269-13.536l-33.581-3.417
						c-4.921-0.501-8.505-4.897-8.004-9.819c0.502-4.921,4.897-8.506,9.819-8.004l25.453,2.592
						c-2.135-9.055-3.047-18.341-2.732-27.605l-27.998-16.656c-4.253-2.528-5.646-8.025-3.118-12.277
						c2.528-4.25,8.026-5.646,12.277-3.118l21.324,12.685c2.111-9.435,5.534-18.658,10.303-27.386
						c8.918-16.318,2.915-36.775-13.402-45.69c-16.317-8.917-36.774-2.917-45.69,13.402c-30.086,55.06-27.857,122.115,5.818,175.001
						c16.502,25.917,39.631,46.956,66.885,60.84c26.417,13.458,56.033,19.906,85.65,18.647
						C478.635,519.27,493.058,503.568,492.269,484.989z"/>
				</g>
				<g>
					<path fill="#F68635" d="M316.892,315.677c-2.528,4.252-1.135,9.749,3.118,12.277l27.998,16.656
						c0.22-6.496,1.057-12.98,2.485-19.367l-21.324-12.685C324.918,310.03,319.42,311.427,316.892,315.677z"/>
				</g>
				<g>
					<path fill="#F68635" d="M315.468,377.628c-0.501,4.922,3.083,9.318,8.004,9.819l33.581,3.417
						c-2.698-6.045-4.812-12.287-6.312-18.648l-25.453-2.592C320.365,369.122,315.97,372.707,315.468,377.628z"/>
				</g>
				<g>
					<path fill="#F68635" d="M426.006,485.963c4.922-0.521,8.487-4.933,7.965-9.851l-2.699-25.467
						c-6.361-1.328-12.598-3.244-18.621-5.725l3.508,33.078C416.678,482.918,421.09,486.483,426.006,485.963z"/>
				</g>
				<g>
					<path fill="#F68635" d="M363.554,449.995c-1.601,4.682,0.894,9.774,5.573,11.375c4.683,1.602,9.775-0.896,11.375-5.576
						l8.4-24.553c-5.187-3.984-10-8.451-14.367-13.348L363.554,449.995z"/>
				</g>
				<g>
					<path fill="#FFFFFF" d="M373.147,231.206c3.45,1.629,3.642,4.643,0.423,6.693l-25.584,16.311
						c-3.215,2.053-6.221,0.631-6.681-3.156l-3.634-30.121c-0.457-3.787,1.993-5.555,5.442-3.924L373.147,231.206z"/>
				</g>
				<g>
					<path fill="#FFFFFF" d="M522.795,464.743c-0.041-3.814-2.697-5.248-5.906-3.18l-25.506,16.424
						c-3.21,2.068-3.176,5.393,0.077,7.391l25.845,15.888c3.251,1.997,5.879,0.511,5.839-3.304L522.795,464.743z"/>
				</g>
			</g>
		</g>
	</g>
	<g>
		<g>
			<path fill="#FFFFFF" d="M553.786,33.757l-4.21-5.855h3.75l2.734,4.041l2.855-4.041h3.411l-4.138,5.807l4.38,6.291h-3.653
				l-3.073-4.452l-3.121,4.452h-3.437L553.786,33.757z"/>
			<path d="M579.917,39.999v-2.661h2.855v-6.775h-2.88v-2.661h2.88v-0.678c0-0.758,0.133-1.411,0.399-1.96
				c0.266-0.548,0.616-1,1.052-1.354c0.436-0.355,0.939-0.617,1.513-0.787c0.572-0.169,1.165-0.254,1.778-0.254
				c1.113,0,2.028,0.093,2.746,0.278s1.311,0.416,1.778,0.689l-0.919,2.396c-0.371-0.177-0.771-0.339-1.198-0.483
				c-0.427-0.146-0.979-0.218-1.657-0.218c-0.871,0-1.479,0.197-1.826,0.593c-0.348,0.396-0.521,0.988-0.521,1.778h5.081v2.661
				h-5.081v6.775h5.105v2.661H579.917z"/>
			<path d="M593.01,33.95c0-1.017,0.153-1.919,0.46-2.71c0.307-0.79,0.742-1.46,1.307-2.008c0.564-0.549,1.237-0.964,2.021-1.246
				c0.782-0.282,1.657-0.424,2.625-0.424c1.017,0,1.924,0.153,2.722,0.46c0.799,0.307,1.473,0.737,2.021,1.294
				c0.549,0.557,0.964,1.23,1.246,2.021c0.282,0.791,0.424,1.662,0.424,2.613c0,1.017-0.153,1.92-0.46,2.71
				c-0.307,0.791-0.742,1.46-1.307,2.009c-0.564,0.548-1.238,0.964-2.021,1.246c-0.782,0.281-1.657,0.423-2.625,0.423
				c-1.017,0-1.924-0.153-2.722-0.46c-0.799-0.306-1.473-0.737-2.021-1.294c-0.549-0.557-0.964-1.23-1.246-2.021
				S593.01,34.902,593.01,33.95z M596.252,33.95c0,0.532,0.073,1.024,0.218,1.476c0.146,0.452,0.354,0.848,0.629,1.186
				c0.274,0.339,0.605,0.602,0.992,0.787c0.388,0.186,0.831,0.278,1.331,0.278c0.936,0,1.697-0.299,2.286-0.896
				s0.884-1.54,0.884-2.831c0-1.113-0.274-2.012-0.823-2.698c-0.548-0.685-1.33-1.028-2.347-1.028c-0.452,0-0.871,0.069-1.258,0.206
				c-0.388,0.138-0.723,0.359-1.005,0.665c-0.282,0.307-0.504,0.694-0.665,1.162S596.252,33.289,596.252,33.95z"/>
			<path d="M607.677,33.95c0-1.017,0.153-1.919,0.46-2.71c0.307-0.79,0.742-1.46,1.307-2.008c0.564-0.549,1.237-0.964,2.021-1.246
				c0.782-0.282,1.657-0.424,2.625-0.424c1.017,0,1.924,0.153,2.722,0.46c0.799,0.307,1.473,0.737,2.021,1.294
				c0.549,0.557,0.964,1.23,1.246,2.021c0.282,0.791,0.424,1.662,0.424,2.613c0,1.017-0.153,1.92-0.46,2.71
				c-0.307,0.791-0.742,1.46-1.307,2.009c-0.564,0.548-1.238,0.964-2.021,1.246c-0.782,0.281-1.657,0.423-2.625,0.423
				c-1.017,0-1.924-0.153-2.722-0.46c-0.799-0.306-1.473-0.737-2.021-1.294c-0.549-0.557-0.964-1.23-1.246-2.021
				S607.677,34.902,607.677,33.95z M610.919,33.95c0,0.532,0.073,1.024,0.218,1.476c0.146,0.452,0.354,0.848,0.629,1.186
				c0.274,0.339,0.605,0.602,0.992,0.787c0.388,0.186,0.831,0.278,1.331,0.278c0.936,0,1.697-0.299,2.286-0.896
				s0.884-1.54,0.884-2.831c0-1.113-0.274-2.012-0.823-2.698c-0.548-0.685-1.33-1.028-2.347-1.028c-0.452,0-0.871,0.069-1.258,0.206
				c-0.388,0.138-0.723,0.359-1.005,0.665c-0.282,0.307-0.504,0.694-0.665,1.162S610.919,33.289,610.919,33.95z"/>
			<path d="M629.076,23.062h5.057v10.453c0,1.21,0.064,2.403,0.193,3.581c0,0.081,0.008,0.161,0.024,0.242h1.549v2.661h-3.896
				l-0.314-1.548h-0.097c-0.162,0.29-0.38,0.548-0.653,0.773c-0.275,0.227-0.581,0.424-0.92,0.593
				c-0.339,0.17-0.71,0.299-1.113,0.388c-0.403,0.088-0.807,0.133-1.21,0.133c-0.758,0-1.472-0.121-2.141-0.363
				c-0.67-0.241-1.255-0.616-1.755-1.125c-0.5-0.508-0.895-1.152-1.186-1.936c-0.29-0.782-0.436-1.706-0.436-2.771
				c0-1.032,0.157-1.951,0.472-2.758c0.315-0.807,0.751-1.488,1.307-2.045c0.557-0.557,1.214-0.983,1.973-1.282
				c0.758-0.299,1.588-0.448,2.492-0.448c0.5,0,0.972,0.029,1.415,0.085c0.443,0.057,0.826,0.149,1.149,0.278v-2.25h-1.911V23.062z
				 M628.423,37.677c0.612,0,1.157-0.149,1.633-0.448c0.476-0.298,0.786-0.729,0.932-1.294v-5.13
				c-0.226-0.178-0.536-0.311-0.932-0.399c-0.396-0.088-0.811-0.133-1.246-0.133s-0.858,0.072-1.271,0.218
				c-0.411,0.146-0.773,0.375-1.089,0.689c-0.314,0.314-0.564,0.722-0.75,1.222s-0.278,1.113-0.278,1.839
				c0,1.033,0.258,1.863,0.774,2.492C626.713,37.362,627.455,37.677,628.423,37.677z"/>
		</g>
		<g>
			<path fill="#FFFFFF" d="M730.462,33.757l-4.21-5.855h3.75l2.734,4.041l2.855-4.041h3.411l-4.138,5.807l4.38,6.291h-3.653
				l-3.073-4.452l-3.121,4.452h-3.437L730.462,33.757z"/>
			<path d="M755.384,36.588h0.919l2.348-8.687h3.242l-3.436,10.912c-0.307,0.903-0.605,1.73-0.896,2.48
				c-0.291,0.75-0.629,1.399-1.017,1.947c-0.387,0.549-0.843,0.972-1.367,1.271s-1.165,0.448-1.924,0.448
				c-0.371,0-0.722-0.049-1.052-0.146c-0.331-0.097-0.634-0.214-0.907-0.351c-0.275-0.138-0.517-0.283-0.727-0.436
				c-0.21-0.154-0.379-0.295-0.508-0.424l1.621-2.153c0.209,0.177,0.46,0.343,0.75,0.496s0.564,0.229,0.822,0.229
				c0.484,0,0.867-0.169,1.149-0.508s0.553-0.896,0.811-1.67h-1.718l-5.032-12.098h3.411L755.384,36.588z"/>
			<path d="M771.137,27.901h4.501v8.42c0,0.339,0,0.678,0,1.017h1.839v2.661h-3.823l-0.557-1.79H773
				c-0.371,0.613-0.928,1.121-1.669,1.524c-0.742,0.402-1.565,0.604-2.469,0.604c-0.613,0-1.173-0.081-1.682-0.242
				c-0.508-0.161-0.939-0.427-1.294-0.798c-0.355-0.371-0.629-0.871-0.823-1.5c-0.193-0.63-0.29-1.42-0.29-2.372v-4.863h-1.379
				v-2.661h4.524v6.871c0,0.984,0.157,1.694,0.472,2.13s0.811,0.653,1.488,0.653c0.597,0,1.133-0.178,1.609-0.532
				c0.476-0.354,0.811-0.79,1.004-1.307v-5.154h-1.355V27.901z"/>
			<path d="M784.275,39.999v-7.403c0-0.484-0.032-0.875-0.097-1.174s-0.149-0.532-0.254-0.702c-0.105-0.169-0.234-0.282-0.387-0.339
				c-0.154-0.056-0.312-0.084-0.473-0.084c-0.274,0-0.528,0.089-0.762,0.266c-0.234,0.178-0.392,0.403-0.472,0.678v8.759h-2.903
				V27.901h2.298l0.339,1.331h0.073c0.241-0.468,0.596-0.852,1.064-1.149c0.468-0.299,1.016-0.448,1.646-0.448
				c0.532,0,1.04,0.13,1.524,0.388c0.483,0.258,0.813,0.71,0.991,1.354c0.242-0.564,0.613-0.996,1.113-1.294
				c0.5-0.299,1.041-0.448,1.621-0.448c0.436,0,0.826,0.061,1.174,0.182c0.347,0.121,0.649,0.335,0.907,0.642
				s0.455,0.722,0.593,1.246c0.137,0.524,0.206,1.197,0.206,2.021v8.274h-2.904v-7.742c0-0.727-0.117-1.234-0.351-1.524
				c-0.234-0.291-0.521-0.436-0.858-0.436c-0.291,0-0.541,0.068-0.751,0.205c-0.209,0.138-0.354,0.359-0.436,0.666v8.831H784.275z"
				/>
			<path d="M799.921,39.999v-7.403c0-0.484-0.032-0.875-0.097-1.174s-0.149-0.532-0.254-0.702c-0.105-0.169-0.234-0.282-0.387-0.339
				c-0.154-0.056-0.312-0.084-0.473-0.084c-0.274,0-0.528,0.089-0.762,0.266c-0.234,0.178-0.392,0.403-0.472,0.678v8.759h-2.903
				V27.901h2.298l0.339,1.331h0.073c0.241-0.468,0.596-0.852,1.064-1.149c0.468-0.299,1.016-0.448,1.646-0.448
				c0.532,0,1.04,0.13,1.524,0.388c0.483,0.258,0.813,0.71,0.991,1.354c0.242-0.564,0.613-0.996,1.113-1.294
				c0.5-0.299,1.041-0.448,1.621-0.448c0.436,0,0.826,0.061,1.174,0.182c0.347,0.121,0.649,0.335,0.907,0.642
				s0.455,0.722,0.593,1.246c0.137,0.524,0.206,1.197,0.206,2.021v8.274h-2.904v-7.742c0-0.727-0.117-1.234-0.351-1.524
				c-0.234-0.291-0.521-0.436-0.858-0.436c-0.291,0-0.541,0.068-0.751,0.205c-0.209,0.138-0.354,0.359-0.436,0.666v8.831H799.921z"
				/>
			<path d="M816.132,36.588h0.919l2.348-8.687h3.242l-3.436,10.912c-0.307,0.903-0.605,1.73-0.896,2.48
				c-0.291,0.75-0.629,1.399-1.017,1.947c-0.387,0.549-0.843,0.972-1.367,1.271s-1.165,0.448-1.924,0.448
				c-0.371,0-0.722-0.049-1.052-0.146c-0.331-0.097-0.634-0.214-0.907-0.351c-0.275-0.138-0.517-0.283-0.727-0.436
				c-0.21-0.154-0.379-0.295-0.508-0.424l1.621-2.153c0.209,0.177,0.46,0.343,0.75,0.496s0.564,0.229,0.822,0.229
				c0.484,0,0.867-0.169,1.149-0.508s0.553-0.896,0.811-1.67h-1.718l-5.032-12.098h3.411L816.132,36.588z"/>
		</g>
		<g>
			<path d="M660.008,64.922H551.762l-38.815-32.79L551.772,0h108.235V64.922z M553.225,60.922h102.783V4H553.214l-34.031,28.163
				L553.225,60.922z"/>
		</g>
		<g>
			<path fill="#FFFFFF" d="M378.294,33.757l-4.21-5.855h3.75l2.734,4.041l2.855-4.041h3.411l-4.138,5.807l4.38,6.291h-3.653
				l-3.073-4.452l-3.121,4.452h-3.437L378.294,33.757z"/>
			<path d="M404.425,39.999v-2.661h2.855v-6.775h-2.88v-2.661h2.88v-0.678c0-0.758,0.133-1.411,0.399-1.96
				c0.266-0.548,0.616-1,1.052-1.354c0.436-0.355,0.939-0.617,1.513-0.787c0.572-0.169,1.165-0.254,1.778-0.254
				c1.113,0,2.028,0.093,2.746,0.278s1.311,0.416,1.778,0.689l-0.919,2.396c-0.371-0.177-0.771-0.339-1.198-0.483
				c-0.427-0.146-0.979-0.218-1.657-0.218c-0.871,0-1.479,0.197-1.826,0.593c-0.348,0.396-0.521,0.988-0.521,1.778h5.081v2.661
				h-5.081v6.775h5.105v2.661H404.425z"/>
			<path d="M417.518,33.95c0-1.017,0.153-1.919,0.46-2.71c0.307-0.79,0.742-1.46,1.307-2.008c0.564-0.549,1.237-0.964,2.021-1.246
				c0.782-0.282,1.657-0.424,2.625-0.424c1.017,0,1.924,0.153,2.722,0.46c0.799,0.307,1.473,0.737,2.021,1.294
				c0.549,0.557,0.964,1.23,1.246,2.021c0.282,0.791,0.424,1.662,0.424,2.613c0,1.017-0.153,1.92-0.46,2.71
				c-0.307,0.791-0.742,1.46-1.307,2.009c-0.564,0.548-1.238,0.964-2.021,1.246c-0.782,0.281-1.657,0.423-2.625,0.423
				c-1.017,0-1.924-0.153-2.722-0.46c-0.799-0.306-1.473-0.737-2.021-1.294c-0.549-0.557-0.964-1.23-1.246-2.021
				S417.518,34.902,417.518,33.95z M420.76,33.95c0,0.532,0.073,1.024,0.218,1.476c0.146,0.452,0.354,0.848,0.629,1.186
				c0.274,0.339,0.605,0.602,0.992,0.787c0.388,0.186,0.831,0.278,1.331,0.278c0.936,0,1.697-0.299,2.286-0.896
				s0.884-1.54,0.884-2.831c0-1.113-0.274-2.012-0.823-2.698c-0.548-0.685-1.33-1.028-2.347-1.028c-0.452,0-0.871,0.069-1.258,0.206
				c-0.388,0.138-0.723,0.359-1.005,0.665c-0.282,0.307-0.504,0.694-0.665,1.162S420.76,33.289,420.76,33.95z"/>
			<path d="M432.185,33.95c0-1.017,0.153-1.919,0.46-2.71c0.307-0.79,0.742-1.46,1.307-2.008c0.564-0.549,1.237-0.964,2.021-1.246
				c0.782-0.282,1.657-0.424,2.625-0.424c1.017,0,1.924,0.153,2.722,0.46c0.799,0.307,1.473,0.737,2.021,1.294
				c0.549,0.557,0.964,1.23,1.246,2.021c0.282,0.791,0.424,1.662,0.424,2.613c0,1.017-0.153,1.92-0.46,2.71
				c-0.307,0.791-0.742,1.46-1.307,2.009c-0.564,0.548-1.238,0.964-2.021,1.246c-0.782,0.281-1.657,0.423-2.625,0.423
				c-1.017,0-1.924-0.153-2.722-0.46c-0.799-0.306-1.473-0.737-2.021-1.294c-0.549-0.557-0.964-1.23-1.246-2.021
				S432.185,34.902,432.185,33.95z M435.427,33.95c0,0.532,0.073,1.024,0.218,1.476c0.146,0.452,0.354,0.848,0.629,1.186
				c0.274,0.339,0.605,0.602,0.992,0.787c0.388,0.186,0.831,0.278,1.331,0.278c0.936,0,1.697-0.299,2.286-0.896
				s0.884-1.54,0.884-2.831c0-1.113-0.274-2.012-0.823-2.698c-0.548-0.685-1.33-1.028-2.347-1.028c-0.452,0-0.871,0.069-1.258,0.206
				c-0.388,0.138-0.723,0.359-1.005,0.665c-0.282,0.307-0.504,0.694-0.665,1.162S435.427,33.289,435.427,33.95z"/>
			<path d="M453.584,23.062h5.057v10.453c0,1.21,0.064,2.403,0.193,3.581c0,0.081,0.008,0.161,0.024,0.242h1.549v2.661h-3.896
				l-0.314-1.548h-0.097c-0.162,0.29-0.38,0.548-0.653,0.773c-0.275,0.227-0.581,0.424-0.92,0.593
				c-0.339,0.17-0.71,0.299-1.113,0.388c-0.403,0.088-0.807,0.133-1.21,0.133c-0.758,0-1.472-0.121-2.141-0.363
				c-0.67-0.241-1.255-0.616-1.755-1.125c-0.5-0.508-0.895-1.152-1.186-1.936c-0.29-0.782-0.436-1.706-0.436-2.771
				c0-1.032,0.157-1.951,0.472-2.758c0.315-0.807,0.751-1.488,1.307-2.045c0.557-0.557,1.214-0.983,1.973-1.282
				c0.758-0.299,1.588-0.448,2.492-0.448c0.5,0,0.972,0.029,1.415,0.085c0.443,0.057,0.826,0.149,1.149,0.278v-2.25h-1.911V23.062z
				 M452.931,37.677c0.612,0,1.157-0.149,1.633-0.448c0.476-0.298,0.786-0.729,0.932-1.294v-5.13
				c-0.226-0.178-0.536-0.311-0.932-0.399c-0.396-0.088-0.811-0.133-1.246-0.133s-0.858,0.072-1.271,0.218
				c-0.411,0.146-0.773,0.375-1.089,0.689c-0.314,0.314-0.564,0.722-0.75,1.222s-0.278,1.113-0.278,1.839
				c0,1.033,0.258,1.863,0.774,2.492C451.221,37.362,451.963,37.677,452.931,37.677z"/>
		</g>
		<g>
			<path d="M484.516,64.922H376.27l-38.815-32.79L376.28,0h108.235V64.922z M377.732,60.922h102.783V4H377.722L343.69,32.163
				L377.732,60.922z"/>
		</g>
		<g>
			<path d="M836.786,64.922H728.54l-38.814-32.79L728.551,0h108.235V64.922z M730.003,60.922h102.783V4H729.992l-34.03,28.163
				L730.003,60.922z"/>
		</g>
	</g>
	<g>
		<g>
			<g>
				<path fill="#F68635" d="M161.908,33.292c0,16.482-13.362,29.845-29.845,29.845H43.293c-16.482,0-29.845-13.362-29.845-29.845
					l0,0c0-16.483,13.362-29.845,29.845-29.845h88.771C148.546,3.447,161.908,16.809,161.908,33.292L161.908,33.292z"/>
				<path d="M132.063,65.137H43.293c-17.56,0-31.845-14.285-31.845-31.845S25.733,1.447,43.293,1.447h88.771
					c17.56,0,31.845,14.285,31.845,31.845S149.623,65.137,132.063,65.137z M43.293,5.447c-15.354,0-27.845,12.491-27.845,27.845
					s12.491,27.845,27.845,27.845h88.771c15.354,0,27.845-12.491,27.845-27.845S147.417,5.447,132.063,5.447H43.293z"/>
			</g>
			<g>
				<circle cx="44.824" cy="34.057" r="21.81"/>
			</g>
		</g>
		<g>
			<circle cx="44.824" cy="34.057" r="21.81"/>
		</g>
	</g>
	<g>
		<g>
			<circle fill="#FFFFFF" cx="44.824" cy="246.047" r="14.81"/>
		</g>
		<g>
			<path d="M44.824,277.356c-17.265,0-31.31-14.045-31.31-31.31s14.045-31.31,31.31-31.31s31.31,14.045,31.31,31.31
				S62.089,277.356,44.824,277.356z M44.824,218.737c-15.059,0-27.31,12.251-27.31,27.31s12.251,27.31,27.31,27.31
				s27.31-12.251,27.31-27.31S59.883,218.737,44.824,218.737z"/>
		</g>
		<g>
			<path d="M151.908,277.291h-38.667c-6.617,0-12-5.383-12-12v-38.667c0-6.617,5.383-12,12-12h38.667c6.617,0,12,5.383,12,12v38.667
				C163.908,271.908,158.525,277.291,151.908,277.291z M113.241,218.624c-4.411,0-8,3.589-8,8v38.667c0,4.411,3.589,8,8,8h38.667
				c4.411,0,8-3.589,8-8v-38.667c0-4.411-3.589-8-8-8H113.241z"/>
		</g>
		<g>
			<path fill="#FFFFFF" d="M131.784,261.958c-0.661,0-1.281-0.326-1.654-0.876l-12-17.667c-0.621-0.914-0.383-2.158,0.53-2.778
				c0.916-0.62,2.158-0.383,2.778,0.53l10.165,14.966l15.095-27.472c0.531-0.969,1.745-1.324,2.716-0.79
				c0.969,0.532,1.322,1.748,0.79,2.716l-16.667,30.334c-0.335,0.61-0.964,1.002-1.659,1.035
				C131.847,261.957,131.815,261.958,131.784,261.958z"/>
		</g>
	</g>
</g>
</svg>
