<svg xmlns="http://www.w3.org/2000/svg" xmlns:xlink="http://www.w3.org/1999/xlink" xml:space="preserve" viewBox="0 0 841.57 721.03"><path d="M797.75 179.31H45.83c-21.78 0-39.5-17.71-39.5-39.5s17.72-39.49 39.5-39.49h751.93c21.78 0 39.5 17.72 39.5 39.5s-17.72 39.5-39.5 39.5zM45.83 104.33c-19.58 0-35.5 15.93-35.5 35.5s15.92 35.5 35.5 35.5h751.93c19.58 0 35.5-15.93 35.5-35.5s-15.92-35.5-35.5-35.5H45.83z"/><path d="M45.2 144.56h5.25v4.73l.29.1a12.58 12.58 0 0 0 5.21 1.1c1.78 0 3.17-.36 4.16-1.07a3.4 3.4 0 0 0 1.48-2.9c0-1.08-.4-1.96-1.22-2.63a12.32 12.32 0 0 0-3.01-1.77c-1.2-.5-2.5-1.02-3.92-1.53-1.42-.5-2.73-1.15-3.92-1.93s-2.2-1.76-3.02-2.94a7.93 7.93 0 0 1-1.21-4.6 9.06 9.06 0 0 1 3.18-7.03c1-.85 2.2-1.52 3.6-2s2.97-.72 4.7-.72c1.93 0 3.85.18 5.73.53 1.88.35 3.38.83 4.5 1.44v9.7h-5.27v-5.3a17.85 17.85 0 0 0-4.97-.67c-1.53 0-2.73.3-3.6.9s-1.32 1.42-1.32 2.44c0 1.05.4 1.91 1.22 2.58.8.67 1.81 1.27 3 1.82s2.51 1.08 3.93 1.62c1.42.54 2.73 1.2 3.92 1.99 1.2.78 2.2 1.76 3.01 2.94a7.67 7.67 0 0 1 1.22 4.44c0 1.72-.32 3.23-.96 4.52a9.11 9.11 0 0 1-2.67 3.25c-1.15.88-2.5 1.53-4.07 1.96a19 19 0 0 1-5.06.65c-1.21 0-2.34-.1-3.37-.29a21.9 21.9 0 0 1-6.82-2.44v-8.89zm28.81-11.33c1.28-.57 2.75-1.07 4.42-1.48s3.66-.62 5.96-.62c1.65 0 3.06.2 4.23.6a6.5 6.5 0 0 1 4.38 4.33c.31 1.01.47 2.16.47 3.43 0 1.63-.05 3.02-.17 4.16a28.92 28.92 0 0 0 .07 6.6h3.11v5.26h-8.02l-.63-3.25h-.24a8.25 8.25 0 0 1-2.7 2.56c-1.18.71-2.76 1.07-4.76 1.07-2.37 0-4.26-.64-5.65-1.91a6.53 6.53 0 0 1-2.1-5.07c0-1.34.25-2.49.74-3.46.5-.98 1.2-1.77 2.14-2.4a10.2 10.2 0 0 1 3.37-1.38 19.74 19.74 0 0 1 6.2-.36l2.33.2a5 5 0 0 0 .1-.96v-.91c0-1.21-.35-2.08-1.05-2.6a5.08 5.08 0 0 0-3.08-.8c-1.62 0-3.07.21-4.37.62s-2.39.83-3.27 1.25L74 133.23zm8.14 17.55c1.51 0 2.64-.28 3.4-.84a5.63 5.63 0 0 0 1.66-1.8v-2.86a16.34 16.34 0 0 0-3.45-.33c-.6 0-1.2.05-1.8.16-.6.11-1.14.29-1.6.53-.48.24-.86.55-1.14.93-.29.38-.43.84-.43 1.39 0 .89.26 1.58.78 2.08s1.38.74 2.58.74zm31.13-19.18h8.9v18.65h3.63v5.26h-7.56l-1.1-3.54h-.19a8.42 8.42 0 0 1-3.3 3.01 9.98 9.98 0 0 1-4.87 1.2c-1.22 0-2.32-.16-3.33-.48-1-.32-1.85-.84-2.55-1.58a7.32 7.32 0 0 1-1.63-2.96c-.38-1.24-.57-2.8-.57-4.69v-9.6h-2.73v-5.27h8.94v13.58c0 1.95.31 3.35.93 4.2.63.87 1.6 1.3 2.95 1.3a5.65 5.65 0 0 0 5.16-3.63v-10.19h-2.68v-5.26zm32.08 17.31c0-.64-.4-1.14-1.17-1.53-.78-.38-1.75-.73-2.9-1.05-1.14-.32-2.4-.64-3.77-.98-1.37-.33-2.63-.8-3.78-1.39-1.14-.59-2.1-1.33-2.89-2.24s-1.17-2.08-1.17-3.52a6 6 0 0 1 .79-3.1c.52-.9 1.24-1.65 2.15-2.28s2-1.09 3.25-1.4c1.26-.32 2.62-.48 4.09-.48a20.16 20.16 0 0 1 7.2 1.15c.87.31 1.62.67 2.24 1.07s1.15.76 1.6 1.07l-2.63 4.26a22.76 22.76 0 0 0-3.6-1.72c-.7-.26-1.41-.46-2.16-.62a10.62 10.62 0 0 0-5.47.28c-.83.35-1.24.9-1.24 1.63 0 .57.38 1.03 1.17 1.39.78.35 1.74.67 2.89.97l3.78.98c1.38.35 2.63.81 3.77 1.37 1.15.56 2.11 1.28 2.9 2.17s1.17 2.04 1.17 3.44c0 2.43-.89 4.33-2.66 5.72-1.77 1.38-4.39 2.08-7.86 2.08-2.74 0-5.1-.41-7.1-1.22s-3.6-1.76-4.8-2.85l2.86-4.5a14.8 14.8 0 0 0 3.97 2.34c.86.36 1.78.66 2.75.9.97.23 1.94.35 2.9.35 1.01 0 1.89-.17 2.62-.52a1.8 1.8 0 0 0 1.1-1.77zm12.38-15.68c1.27-.57 2.75-1.07 4.42-1.48s3.66-.62 5.95-.62c1.66 0 3.07.2 4.23.6a6.5 6.5 0 0 1 4.38 4.33c.32 1.01.48 2.16.48 3.43 0 1.63-.06 3.02-.17 4.16a28.92 28.92 0 0 0 .07 6.6h3.11v5.26h-8.03l-.62-3.25h-.24a8.25 8.25 0 0 1-2.7 2.56c-1.18.71-2.76 1.07-4.76 1.07-2.38 0-4.26-.64-5.66-1.91a6.53 6.53 0 0 1-2.08-5.07c0-1.34.24-2.49.73-3.46.5-.98 1.2-1.77 2.14-2.4a10.1 10.1 0 0 1 3.37-1.38 19.74 19.74 0 0 1 6.2-.36l2.33.2a5 5 0 0 0 .1-.96v-.91c0-1.21-.36-2.08-1.05-2.6a5.08 5.08 0 0 0-3.09-.8c-1.61 0-3.07.21-4.36.62s-2.4.83-3.28 1.25l-1.47-4.88zm8.14 17.55c1.5 0 2.64-.28 3.4-.84a5.63 5.63 0 0 0 1.65-1.8v-2.86a16.34 16.34 0 0 0-3.45-.33c-.6 0-1.2.05-1.8.16-.6.11-1.13.29-1.6.53-.47.24-.85.55-1.14.93-.28.38-.42.84-.42 1.39 0 .89.26 1.58.78 2.08s1.38.74 2.58.74zm40.72 4.73c0 1.72-.3 3.22-.89 4.5a8.8 8.8 0 0 1-2.43 3.17c-1.04.85-2.27 1.47-3.69 1.87s-2.97.6-4.66.6a18.71 18.71 0 0 1-6-.96 15.6 15.6 0 0 1-2.22-.93 8.84 8.84 0 0 1-1.53-.98l2.4-4.4c.76.5 1.67 1 2.74 1.46 1.07.46 2.42.7 4.04.7 2 0 3.54-.47 4.59-1.4 1.05-.92 1.58-2.24 1.58-3.96v-1.53h-.2a5 5 0 0 1-2.53 1.7c-1.11.36-2.4.54-3.87.54-1.53 0-2.94-.24-4.23-.71s-2.41-1.2-3.37-2.18a9.85 9.85 0 0 1-2.22-3.7 15.9 15.9 0 0 1-.8-5.26c0-2.1.32-3.97.94-5.6.62-1.62 1.5-2.99 2.63-4.09a11 11 0 0 1 4.06-2.48c1.58-.56 3.34-.84 5.28-.84a39.13 39.13 0 0 1 5.96.43c.9.13 1.74.28 2.5.46.77.17 1.41.35 1.92.55v23.04zm-11.48-4.59c1.21 0 2.3-.27 3.28-.81s1.63-1.36 1.98-2.44v-10.76c-.44-.19-1.07-.34-1.89-.45s-1.58-.17-2.31-.17c-.9 0-1.73.15-2.51.43-.78.29-1.47.74-2.06 1.36a6.55 6.55 0 0 0-1.39 2.35c-.33.94-.5 2.06-.5 3.37 0 1.14.14 2.16.43 3.06s.69 1.64 1.2 2.24a4.75 4.75 0 0 0 3.78 1.82zm39.74 2.06a8.7 8.7 0 0 1-1.6 1.12 17.68 17.68 0 0 1-8.53 2.08c-2.05 0-3.87-.29-5.48-.86s-2.97-1.41-4.09-2.51-1.97-2.42-2.55-3.97a14.7 14.7 0 0 1-.89-5.28c0-2.1.34-3.95 1-5.52a11.02 11.02 0 0 1 6.84-6.31 15.78 15.78 0 0 1 8.82-.31c1.3.32 2.48.86 3.56 1.65s1.97 1.82 2.66 3.13c.68 1.3 1.02 2.96 1.02 4.97 0 1.37-.16 2.85-.47 4.45h-17.22a5.1 5.1 0 0 0 2.22 4.3c.66.44 1.4.77 2.26.98.84.2 1.74.3 2.7.3a14 14 0 0 0 4.7-.66 9.93 9.93 0 0 0 3-1.63l2.05 4.07zm-10.32-17.07c-.83 0-1.61.11-2.35.34-.73.23-1.4.56-1.98 1a5.3 5.3 0 0 0-2.13 3.83h11.76c0-1.6-.44-2.86-1.31-3.78-.88-.93-2.2-1.4-4-1.4z"/><path fill="#FFF" d="M329.2 720.89v-63.26a84.96 84.96 0 0 1 84.96-84.95H756.6a84.96 84.96 0 0 1 84.96 84.95v63.26H329.2z"/><path fill="#FF8630" d="M640.45 600.9V489H530.32v113.71h.05a55.06 55.06 0 0 0 110.12-.07c0-.6-.02-1.17-.04-1.75z"/><path d="M585.43 659.71a57.15 57.15 0 0 1-57.02-54.99h-.04l-.05-2v-115.7h114.13l.01 114.22c.02.47.04.93.04 1.4a57.13 57.13 0 0 1-57.07 57.07zm-53.1-58.88.04 1.89a53.14 53.14 0 0 0 53.06 52.99 53.12 53.12 0 0 0 53.06-53.06l-.02-1.27-.02-.42V491H532.32v109.83z"/><circle cx="475.84" cy="328.44" r="60.67"/><circle cx="553.78" cy="279.5" r="60.67"/><circle cx="739.54" cy="433.01" r="60.67"/><circle cx="716.32" cy="340.13" r="60.67"/><circle cx="649.24" cy="278.21" r="60.67"/><defs><path id="a" d="M722.69 440.75a45.57 45.57 0 0 0-4.87-1.64c5.7-56.17-25.9-111.64-80.91-133.79-55-22.14-116.23-4.04-151.05 40.41a45.2 45.2 0 1 0-27.66 84.5c1.63 49.98 32.14 96.69 81.5 116.56 49.36 19.87 103.72 7.33 139.52-27.57a45.19 45.19 0 1 0 43.47-78.46z"/><path id="b" d="M588.25 558.24a132.27 132.27 0 0 1-131.99-126.27 47.24 47.24 0 0 1-35.7-64.12 47 47 0 0 1 43.8-29.59 46.94 46.94 0 0 1 20.96 4.94 133.16 133.16 0 0 1 103.03-49.33c16.9 0 33.49 3.23 49.3 9.6a130.93 130.93 0 0 1 64.2 54.96 133.18 133.18 0 0 1 18.12 79.23 46.88 46.88 0 0 1 29.26 26.52 46.89 46.89 0 0 1 .36 36.12 47 47 0 0 1-43.8 29.58 47.51 47.51 0 0 1-26.38-8.08 133.45 133.45 0 0 1-91.16 36.44zm-123.9-215.97a43.02 43.02 0 0 0-40.07 27.07 43.24 43.24 0 0 0 34.2 58.92l1.67.23.05 1.69a128.26 128.26 0 0 0 128.06 124.06 129.4 129.4 0 0 0 89.56-36.45l1.21-1.18 1.36.99a43.51 43.51 0 0 0 25.4 8.28 43.01 43.01 0 0 0 40.09-27.08 42.9 42.9 0 0 0-.33-33.05 42.91 42.91 0 0 0-28.26-24.7l-1.63-.46.17-1.68a129.1 129.1 0 0 0-17.42-78.43 126.96 126.96 0 0 0-62.25-53.3 127.46 127.46 0 0 0-47.8-9.3 129.1 129.1 0 0 0-100.92 49.09l-1.04 1.32-1.49-.8a42.99 42.99 0 0 0-20.56-5.23z"/></defs><use xlink:href="#a" fill="#FF8630" overflow="visible"/><use xlink:href="#b" overflow="visible"/><path fill="#DDF6C5" d="m447.57 365.83 14.46 38.3"/><path d="M462.03 406.13a2 2 0 0 1-1.87-1.3l-14.47-38.3a2 2 0 1 1 3.75-1.4l14.46 38.29a2 2 0 0 1-1.87 2.7z"/><path fill="#DDF6C5" d="m726.5 478.12-36.96 17.59"/><path d="M689.54 497.71a2 2 0 0 1-.86-3.8l36.96-17.6a2 2 0 0 1 1.72 3.61l-36.96 17.6a2 2 0 0 1-.86.2zm-46.32-19.46a43.52 43.52 0 0 1-42.52-34.15 2 2 0 0 1 3.9-.87 39.6 39.6 0 0 0 60.57 24.38 2 2 0 0 1 2.21 3.34 43.65 43.65 0 0 1-24.16 7.3zM539.26 436.4a43.6 43.6 0 0 1-42.52-34.15 2 2 0 0 1 3.9-.87 39.6 39.6 0 0 0 60.57 24.38 2 2 0 0 1 2.2 3.33 43.66 43.66 0 0 1-24.15 7.3z"/><path fill="#DDF6C5" d="m584.54 432.99-9.34 23.19"/><path d="M575.2 458.18a2 2 0 0 1-1.85-2.75l9.33-23.2a2 2 0 1 1 3.72 1.5l-9.34 23.2a2 2 0 0 1-1.86 1.25zm-67-12.41-.03.1-.04.09a66.04 66.04 0 0 0 122.52 49.32l.04-.1.04-.09"/><g fill="#FFF"><path d="M569.61 470.49a14.45 14.45 0 1 1-26.8-10.79l26.8 10.79z"/><path d="M596.12 481.16a14.45 14.45 0 0 1-26.8-10.79l26.8 10.79z"/></g><path fill="#FFF" d="M298.68 721.03h-138.5l-33.5-56.07 102-66z"/><path fill="#FF8630" d="M271.69 477.39a23.05 23.05 0 0 0-31.43 8.65l-22.24 39.03-5.31-8.29-154.94 99.28 14.33 22.37a57.73 57.73 0 0 0 79.76 17.46l57.72-36.98c9.1-5.83 16.38-13.15 20.87-22.16.96-1.76 1.5-3.03 2.28-4.4l47.6-83.54a23.05 23.05 0 0 0-8.64-31.42z"/><path d="M120.77 667.02a59.53 59.53 0 0 1-50.35-27.51l-14.33-22.37a2 2 0 0 1 .6-2.76l154.94-99.28a2.01 2.01 0 0 1 2.76.6l3.53 5.51 20.6-36.16a25.06 25.06 0 0 1 43.55 24.75l-47.6 83.55c-.38.66-.7 1.3-1.05 2-.35.71-.73 1.47-1.21 2.35-4.4 8.83-11.67 16.56-21.56 22.89l-57.71 36.98a59.5 59.5 0 0 1-32.17 9.45zm-60.23-50.35 13.25 20.68a55.55 55.55 0 0 0 46.98 25.67 55.54 55.54 0 0 0 30.01-8.81l57.72-36.99c9.27-5.93 16.05-13.12 20.16-21.37.5-.9.85-1.6 1.18-2.28.38-.75.73-1.45 1.15-2.2l47.61-83.55a21.07 21.07 0 0 0-18.28-31.44A21.1 21.1 0 0 0 242 487.03l-22.24 39.04a2 2 0 0 1-3.42.09l-4.24-6.61-151.56 97.12z"/><path fill="#FF8630" d="m297.06 482.53 69.76-44.82a7.68 7.68 0 0 0 2.31-10.6v-.01a7.68 7.68 0 0 0-10.61-2.31l-69.75 44.81a21.8 21.8 0 0 1-24.75-.87l87.29-55.93a7.67 7.67 0 1 0-8.28-12.93l-87.29 55.93a21.8 21.8 0 0 1 9.54-22.85l69.42-44.48a7.68 7.68 0 1 0-8.29-12.92l-69.4 44.47a37.18 37.18 0 0 0-14.7 44.39L5.54 616.13a7.68 7.68 0 1 0 8.28 12.93l236.77-151.72a37.18 37.18 0 0 0 46.47 5.19z"/><path fill="#FFF" d="M9.69 632.27a9.64 9.64 0 0 1-8.16-4.46c-1.4-2.17-1.86-4.76-1.3-7.29s2.05-4.68 4.23-6.08l235.43-150.86a39.31 39.31 0 0 1 16.03-45.24l69.41-44.48a9.64 9.64 0 0 1 13.37 2.93c1.4 2.18 1.86 4.77 1.3 7.3s-2.05 4.68-4.22 6.07l-69.42 44.48a19.9 19.9 0 0 0-9.06 17.78l84.65-54.23a9.64 9.64 0 0 1 13.37 2.92 9.62 9.62 0 0 1 1.3 7.3 9.62 9.62 0 0 1-4.23 6.07l-84.64 54.24a20.03 20.03 0 0 0 9.32 2.32c3.77 0 7.44-1.08 10.62-3.12l69.75-44.81a9.65 9.65 0 0 1 13.25 2.72l.25.26.06.24a9.7 9.7 0 0 1-3.1 13.06l-69.76 44.82a38.95 38.95 0 0 1-21.05 6.18c-9.9 0-19.56-3.81-26.75-10.51L14.9 630.74a9.65 9.65 0 0 1-5.21 1.53zm320.86-255.94c-1.09 0-2.14.31-3.06.9l-69.41 44.48a35.28 35.28 0 0 0-13.9 42l.57 1.5L6.62 617.82a5.64 5.64 0 0 0-1.72 7.85 5.66 5.66 0 0 0 7.84 1.71l238.14-152.6 1.14 1.16a35.4 35.4 0 0 0 25.07 10.46c6.7 0 13.24-1.92 18.9-5.55l69.75-44.81a5.69 5.69 0 0 0 1.81-7.67l-.22-.23-.05-.2a5.66 5.66 0 0 0-7.68-1.46l-69.75 44.82a23.66 23.66 0 0 1-12.78 3.75c-5.1 0-10.16-1.67-14.24-4.7l-2.32-1.73 89.72-57.5a5.64 5.64 0 0 0 1.72-7.84 5.65 5.65 0 0 0-7.84-1.72l-89.73 57.5-.6-2.84a23.9 23.9 0 0 1 10.43-24.94l69.4-44.48a5.65 5.65 0 0 0 1.72-7.84 5.66 5.66 0 0 0-4.78-2.62z"/><path fill="#FF8630" d="M167.48 574.2a23.05 23.05 0 0 0 6.9-31.86 23.04 23.04 0 1 0 38.75-24.96l-28.5-44.24a23.05 23.05 0 1 0-38.76 24.96 23.05 23.05 0 0 0-39.72 23.28 23.04 23.04 0 0 0-37.63 26.55 23.04 23.04 0 1 0-38.75 24.96l28.5 44.24a23.05 23.05 0 0 0 38.75-24.96 23.05 23.05 0 0 0 39.72-23.29 23.05 23.05 0 0 0 30.74 5.32z"/><path d="M77.67 629.7c-8.57 0-16.45-4.3-21.08-11.49l-28.5-44.24a25.08 25.08 0 0 1 21.03-38.62c5.12 0 10 1.54 14.09 4.31a25.09 25.09 0 0 1 24.65-29.26c5 0 9.86 1.51 13.94 4.23a25.22 25.22 0 0 1 11.13-25.11 25.02 25.02 0 0 1 27.63.32 25.09 25.09 0 0 1 24.67-29.27c8.56 0 16.44 4.3 21.08 11.48l28.5 44.25a24.88 24.88 0 0 1 3.42 18.86 24.88 24.88 0 0 1-10.92 15.76 25.02 25.02 0 0 1-27.63-.31 25.08 25.08 0 0 1-24.65 29.26c-5 0-9.85-1.52-13.94-4.24a25.21 25.21 0 0 1-11.13 25.11 25 25 0 0 1-27.63-.32 25.09 25.09 0 0 1-24.66 29.28zm-28.55-90.35a21.08 21.08 0 0 0-17.67 32.45l28.5 44.25a20.99 20.99 0 0 0 17.72 9.65 21.07 21.07 0 0 0 17.67-32.45 2 2 0 1 1 3.36-2.17 20.98 20.98 0 0 0 17.72 9.66c4.03 0 7.96-1.16 11.37-3.36a21.15 21.15 0 0 0 7.19-27.56 2 2 0 0 1 3.35-2.16 21.19 21.19 0 0 0 16.7 8.2 21.07 21.07 0 0 0 17.67-32.44 2 2 0 1 1 3.36-2.17 20.98 20.98 0 0 0 17.71 9.66c4.03 0 7.97-1.16 11.38-3.36a20.91 20.91 0 0 0 9.17-13.24 20.9 20.9 0 0 0-2.87-15.85l-28.5-44.24a20.99 20.99 0 0 0-17.72-9.65 21.07 21.07 0 0 0-17.67 32.45 2 2 0 0 1-3.36 2.17 20.99 20.99 0 0 0-29.1-6.31 21.16 21.16 0 0 0-7.19 27.56 2 2 0 0 1-3.35 2.16 21.18 21.18 0 0 0-16.7-8.2 21.08 21.08 0 0 0-17.67 32.45c.23.33.33.7.33 1.07a2 2 0 0 1-3.68 1.09 20.98 20.98 0 0 0-17.72-9.66z"/><path d="M174.38 544.37a2 2 0 0 1-1.68-.92l-28.5-44.27a2 2 0 0 1 3.37-2.16l28.5 44.27a2 2 0 0 1-1.69 3.08zm-37.83 26.28a2 2 0 0 1-1.69-.92l-30.17-46.9a2 2 0 1 1 3.37-2.16l30.17 46.9a2 2 0 0 1-1.68 3.08zm-38.97 24.29a2 2 0 0 1-1.69-.92L65.95 547.5a2 2 0 1 1 3.37-2.17l29.94 46.53a2 2 0 0 1-1.68 3.08z"/><path fill="#FFF" d="M492.27 484.99c-.8-18.58-16.5-33-35.07-32.21a105.3 105.3 0 0 1-25.93-2.13l2.7 25.46a8.96 8.96 0 1 1-17.81 1.89l-3.51-33.08a103.7 103.7 0 0 1-23.75-13.68l-8.4 24.55a8.96 8.96 0 1 1-16.95-5.8l10.99-32.1a105.19 105.19 0 0 1-17.49-27.03l-33.58-3.41a8.96 8.96 0 0 1 1.82-17.83l25.45 2.6a104.79 104.79 0 0 1-2.73-27.6l-28-16.67a8.96 8.96 0 1 1 9.16-15.39l21.32 12.68a104.79 104.79 0 0 1 10.3-27.38 33.67 33.67 0 1 0-59.09-32.29 172.15 172.15 0 0 0 72.7 235.84 172.88 172.88 0 0 0 85.66 18.65c18.57-.79 33-16.5 32.2-35.07z"/><path fill="#FF8630" d="M316.9 315.68a8.96 8.96 0 0 0 3.11 12.27l28 16.66c.22-6.5 1.05-12.98 2.48-19.37l-21.32-12.68a8.96 8.96 0 0 0-12.28 3.12zm-1.43 61.95a8.96 8.96 0 0 0 8 9.82l33.58 3.41a104.75 104.75 0 0 1-6.3-18.64l-25.46-2.6a8.96 8.96 0 0 0-9.82 8zM426 485.96a8.96 8.96 0 0 0 7.97-9.85l-2.7-25.46a105.52 105.52 0 0 1-18.62-5.73l3.5 33.08a8.96 8.96 0 0 0 9.86 7.96zM363.55 450a8.96 8.96 0 1 0 16.95 5.8l8.4-24.56a104.7 104.7 0 0 1-14.37-13.35L363.55 450z"/><path fill="#FFF" d="M373.15 231.2c3.45 1.64 3.64 4.65.42 6.7l-25.58 16.31c-3.22 2.05-6.23.63-6.69-3.16l-3.63-30.12c-.46-3.78 2-5.55 5.44-3.92l30.04 14.2zM522.8 464.74c-.05-3.81-2.7-5.25-5.91-3.18L491.39 478c-3.22 2.06-3.18 5.39.07 7.39l25.85 15.89c3.25 2 5.87.5 5.83-3.3l-.35-33.23zm30.99-430.98-4.21-5.86h3.75l2.73 4.04 2.85-4.04h3.42l-4.14 5.8 4.38 6.3h-3.66l-3.07-4.45-3.12 4.45h-3.44l4.5-6.24z"/><path d="M579.92 40v-2.66h2.85v-6.78h-2.88V27.9h2.88v-.68c0-.75.14-1.4.4-1.96a3.92 3.92 0 0 1 2.57-2.14 6.24 6.24 0 0 1 1.77-.25c1.12 0 2.03.1 2.75.28s1.31.41 1.78.69l-.92 2.4a10.8 10.8 0 0 0-1.2-.5 5.22 5.22 0 0 0-1.66-.2c-.87 0-1.47.19-1.82.58-.35.4-.52 1-.52 1.78H591v2.66h-5.08v6.78h5.1V40h-11.1zm13.09-6.05c0-1.02.15-1.92.46-2.71a5.56 5.56 0 0 1 3.33-3.25 7.7 7.7 0 0 1 2.62-.43c1.02 0 1.93.16 2.73.46a5.43 5.43 0 0 1 3.27 3.32c.27.79.42 1.66.42 2.61 0 1.02-.16 1.92-.46 2.71a5.56 5.56 0 0 1-3.33 3.26c-.78.28-1.66.42-2.63.42a7.54 7.54 0 0 1-2.72-.46 5.43 5.43 0 0 1-3.27-3.31 7.73 7.73 0 0 1-.42-2.62zm3.24 0c0 .53.07 1.02.22 1.48.15.45.35.84.63 1.18a2.84 2.84 0 0 0 2.32 1.07c.94 0 1.7-.3 2.29-.9s.88-1.54.88-2.83a4.2 4.2 0 0 0-.82-2.7 2.83 2.83 0 0 0-2.35-1.03c-.45 0-.87.07-1.26.21-.38.14-.72.36-1 .66-.28.31-.5.7-.67 1.17s-.24 1.03-.24 1.69zm11.43 0c0-1.02.15-1.92.46-2.71a5.56 5.56 0 0 1 3.33-3.25 7.7 7.7 0 0 1 2.62-.43c1.02 0 1.92.16 2.72.46a5.43 5.43 0 0 1 3.27 3.32c.28.79.42 1.66.42 2.61 0 1.02-.15 1.92-.46 2.71a5.56 5.56 0 0 1-3.33 3.26 7.7 7.7 0 0 1-2.62.42 7.54 7.54 0 0 1-2.72-.46 5.43 5.43 0 0 1-3.27-3.31 7.73 7.73 0 0 1-.42-2.62zm3.24 0c0 .53.07 1.02.22 1.48.14.45.35.84.63 1.18a2.84 2.84 0 0 0 2.32 1.07c.93 0 1.7-.3 2.28-.9s.89-1.54.89-2.83c0-1.11-.28-2.01-.82-2.7a2.83 2.83 0 0 0-2.35-1.03c-.45 0-.87.07-1.26.21a2.5 2.5 0 0 0-1 .66c-.29.31-.5.7-.67 1.17s-.24 1.03-.24 1.69zm18.16-10.89h5.05v10.46a32.86 32.86 0 0 0 .22 3.82h1.55V40H632l-.31-1.55h-.1c-.16.3-.38.55-.65.77a4.8 4.8 0 0 1-2.03.99 6.25 6.25 0 0 1-3.35-.23 4.62 4.62 0 0 1-1.76-1.13c-.5-.5-.9-1.15-1.19-1.94a7.97 7.97 0 0 1-.43-2.77c0-1.03.16-1.95.47-2.75a5.71 5.71 0 0 1 3.28-3.33c.76-.3 1.59-.45 2.5-.45.5 0 .96.03 1.4.09.45.05.83.14 1.16.27v-2.25h-1.92v-2.66zm-.66 14.62a3 3 0 0 0 1.64-.45c.47-.3.78-.73.93-1.3v-5.12a2.3 2.3 0 0 0-.93-.4c-.4-.1-.81-.14-1.25-.14s-.86.08-1.27.22a2.9 2.9 0 0 0-1.09.69c-.31.31-.56.72-.75 1.22s-.28 1.12-.28 1.84c0 1.03.26 1.86.78 2.5.51.62 1.25.94 2.22.94z"/><path fill="#FFF" d="m730.46 33.76-4.2-5.86H730l2.74 4.04 2.85-4.04H739l-4.14 5.8 4.38 6.3h-3.65l-3.07-4.45L729.4 40h-3.44l4.5-6.24z"/><path d="M755.38 36.59h.92l2.35-8.69h3.24l-3.43 10.91c-.31.9-.6 1.73-.9 2.48-.29.75-.63 1.4-1.02 1.95-.38.55-.84.97-1.36 1.27s-1.17.45-1.93.45a3.6 3.6 0 0 1-1.05-.15 5.42 5.42 0 0 1-2.14-1.2l1.62-2.16c.2.18.46.34.75.5s.56.22.82.22c.49 0 .87-.16 1.15-.5s.55-.9.81-1.67h-1.72l-5.03-12.1h3.41l3.51 8.69zm15.76-8.69h4.5v9.44h1.84V40h-3.83l-.55-1.8h-.1a4.28 4.28 0 0 1-1.67 1.53 5.55 5.55 0 0 1-4.15.36c-.5-.16-.94-.42-1.3-.8a3.71 3.71 0 0 1-.82-1.5 8.23 8.23 0 0 1-.29-2.36v-4.87h-1.38V27.9h4.53v6.87c0 .99.16 1.7.47 2.13s.81.66 1.49.66c.6 0 1.13-.18 1.6-.54.48-.35.82-.79 1.01-1.3v-5.16h-1.35V27.9zM784.27 40v-7.4c0-.49-.03-.88-.1-1.18s-.14-.53-.25-.7a.78.78 0 0 0-.38-.34 1.38 1.38 0 0 0-.48-.08 1.3 1.3 0 0 0-1.23.94V40h-2.9V27.9h2.3l.33 1.33h.08a2.94 2.94 0 0 1 2.7-1.6c.54 0 1.05.13 1.53.4.48.25.81.7 1 1.35.23-.57.6-1 1.1-1.3a3.1 3.1 0 0 1 1.63-.44c.43 0 .82.06 1.17.18s.65.33.9.64.46.72.6 1.24c.14.53.2 1.2.2 2.03V40h-2.9v-7.74c0-.73-.11-1.24-.35-1.53a1.06 1.06 0 0 0-.86-.43c-.29 0-.54.07-.75.2-.2.14-.35.36-.43.67V40h-2.9zm15.65 0v-7.4c0-.49-.03-.88-.1-1.18s-.14-.53-.25-.7a.78.78 0 0 0-.39-.34 1.38 1.38 0 0 0-.47-.08c-.27 0-.53.09-.76.26-.24.18-.4.4-.47.68V40h-2.9V27.9h2.3l.33 1.33h.07a2.94 2.94 0 0 1 2.71-1.6c.54 0 1.04.13 1.53.4.48.25.81.7.99 1.35.24-.57.61-1 1.11-1.3a3.1 3.1 0 0 1 1.62-.44c.44 0 .83.06 1.18.18.34.12.65.33.9.64s.46.72.6 1.24c.13.53.2 1.2.2 2.03V40h-2.9v-7.74c0-.73-.12-1.24-.35-1.53a1.07 1.07 0 0 0-.86-.43c-.3 0-.54.07-.75.2a1.1 1.1 0 0 0-.44.67V40h-2.9zm16.21-3.41h.92l2.35-8.69h3.24l-3.44 10.91c-.3.9-.6 1.73-.9 2.48a8.9 8.9 0 0 1-1 1.95c-.4.55-.85.97-1.38 1.27s-1.16.45-1.92.45a3.6 3.6 0 0 1-1.05-.15 5.42 5.42 0 0 1-2.14-1.2l1.62-2.16c.2.18.46.34.75.5s.56.22.82.22c.48 0 .87-.16 1.15-.5s.55-.9.81-1.67h-1.72l-5.03-12.1h3.41l3.51 8.69zM660 64.92H551.77l-38.81-32.79L551.77 0h108.24v64.92zm-106.77-4H656V4H553.2l-34.03 28.16 34.05 28.76z"/><path fill="#FFF" d="m378.3 33.76-4.22-5.86h3.75l2.74 4.04 2.85-4.04h3.41l-4.13 5.8 4.38 6.3h-3.66l-3.07-4.45-3.12 4.45h-3.44l4.5-6.24z"/><path d="M404.43 40v-2.66h2.85v-6.78h-2.88V27.9h2.88v-.68c0-.75.13-1.4.4-1.96a3.92 3.92 0 0 1 2.56-2.14 6.24 6.24 0 0 1 1.78-.25c1.12 0 2.03.1 2.75.28s1.3.41 1.78.69l-.92 2.4a10.8 10.8 0 0 0-1.2-.5 5.22 5.22 0 0 0-1.66-.2c-.87 0-1.48.19-1.82.58-.35.4-.52 1-.52 1.78h5.08v2.66h-5.08v6.78h5.1V40h-11.1zm13.09-6.05c0-1.02.15-1.92.46-2.71a5.56 5.56 0 0 1 3.33-3.25 7.7 7.7 0 0 1 2.62-.43c1.02 0 1.92.16 2.72.46a5.43 5.43 0 0 1 3.27 3.32c.28.79.42 1.66.42 2.61 0 1.02-.15 1.92-.46 2.71a5.56 5.56 0 0 1-3.32 3.26 7.8 7.8 0 0 1-2.63.42 7.54 7.54 0 0 1-2.72-.46 5.43 5.43 0 0 1-3.27-3.31 7.73 7.73 0 0 1-.42-2.62zm3.24 0c0 .53.07 1.02.22 1.48.14.45.35.84.63 1.18a2.84 2.84 0 0 0 2.32 1.07c.94 0 1.7-.3 2.29-.9s.88-1.54.88-2.83a4.2 4.2 0 0 0-.82-2.7 2.83 2.83 0 0 0-2.35-1.03c-.45 0-.87.07-1.26.21a2.5 2.5 0 0 0-1 .66c-.28.31-.5.7-.67 1.17s-.24 1.03-.24 1.69zm11.43 0c0-1.02.15-1.92.46-2.71a5.56 5.56 0 0 1 3.32-3.25 7.7 7.7 0 0 1 2.63-.43c1.01 0 1.92.16 2.72.46a5.43 5.43 0 0 1 3.27 3.32c.28.79.42 1.66.42 2.61 0 1.02-.15 1.92-.46 2.71a5.56 5.56 0 0 1-3.33 3.26 7.7 7.7 0 0 1-2.62.42 7.54 7.54 0 0 1-2.72-.46 5.43 5.43 0 0 1-3.27-3.31 7.73 7.73 0 0 1-.43-2.62zm3.24 0c0 .53.07 1.02.22 1.48.14.45.35.84.62 1.18a2.84 2.84 0 0 0 2.33 1.07c.93 0 1.7-.3 2.28-.9s.89-1.54.89-2.83a4.2 4.2 0 0 0-.83-2.7 2.83 2.83 0 0 0-2.34-1.03c-.45 0-.87.07-1.26.21a2.5 2.5 0 0 0-1 .66c-.29.31-.51.7-.67 1.17s-.24 1.03-.24 1.69zm18.15-10.89h5.06v10.46a32.86 32.86 0 0 0 .22 3.82h1.55V40h-3.9l-.31-1.55h-.1c-.16.3-.38.55-.65.77a4.8 4.8 0 0 1-2.04.99 6.25 6.25 0 0 1-3.35-.23 4.62 4.62 0 0 1-1.75-1.13c-.5-.5-.9-1.15-1.19-1.94a7.97 7.97 0 0 1-.43-2.77c0-1.03.15-1.95.47-2.75a5.71 5.71 0 0 1 3.28-3.33c.76-.3 1.59-.45 2.49-.45.5 0 .97.03 1.42.09.44.05.82.14 1.14.27v-2.25h-1.9v-2.66zm-.65 14.62a3 3 0 0 0 1.63-.45c.48-.3.79-.73.94-1.3v-5.12a2.3 2.3 0 0 0-.94-.4c-.4-.1-.8-.14-1.24-.14s-.86.08-1.27.22a2.9 2.9 0 0 0-1.1.69c-.3.31-.56.72-.74 1.22s-.28 1.12-.28 1.84c0 1.03.26 1.86.77 2.5.52.62 1.26.94 2.23.94z"/><path d="M484.52 64.92H376.27l-38.81-32.79L376.27 0H484.5v64.92zm-106.79-4h102.79V4h-102.8L343.7 32.16l34.04 28.76zm459.06 4H728.54l-38.81-32.79L728.55 0H836.8v64.92zm-106.79-4h102.8V4H730l-34.03 28.16L730 60.92z"/><path fill="#FF8630" d="M161.9 33.3a29.85 29.85 0 0 1-29.84 29.84H43.3a29.84 29.84 0 1 1 0-59.69h88.77a29.84 29.84 0 0 1 29.85 29.84z"/><path d="M132.06 65.14H43.3c-17.56 0-31.84-14.29-31.84-31.85S25.73 1.45 43.29 1.45h88.77c17.56 0 31.85 14.28 31.85 31.84s-14.29 31.85-31.85 31.85zM43.3 5.44c-15.35 0-27.84 12.5-27.84 27.85S27.95 61.14 43.3 61.14h88.77c15.36 0 27.85-12.5 27.85-27.85S147.4 5.45 132.06 5.45H43.3z"/><circle cx="44.82" cy="34.06" r="21.81"/><circle cx="44.82" cy="34.06" r="21.81"/><circle cx="44.82" cy="246.05" r="14.81" fill="#FFF"/><path d="M44.82 277.36c-17.26 0-31.3-14.05-31.3-31.31s14.04-31.31 31.3-31.31 31.31 14.04 31.31 31.3-14.04 31.32-31.3 31.32zm0-58.62c-15.06 0-27.3 12.25-27.3 27.3s12.24 27.32 27.3 27.32 27.31-12.25 27.31-27.31-12.25-27.31-27.3-27.31zM151.9 277.3h-38.66c-6.62 0-12-5.4-12-12v-38.68c0-6.61 5.38-12 12-12h38.67c6.61 0 12 5.39 12 12v38.67c0 6.62-5.38 12-12 12zm-38.66-58.68a8 8 0 0 0-8 8v38.67a8 8 0 0 0 8 8h38.67a8 8 0 0 0 8-8v-38.67a8 8 0 0 0-8-8h-38.67z"/><path fill="#FFF" d="M131.78 261.96a2 2 0 0 1-1.65-.88l-12-17.66a2 2 0 0 1 3.3-2.25l10.17 14.96 15.1-27.47a2 2 0 1 1 3.5 1.93l-16.66 30.33a2 2 0 0 1-1.76 1.04z"/></svg>
