<svg width="45" height="45" viewBox="0 0 45 45" xmlns="http://www.w3.org/2000/svg">
  <path d="M22.5 45C10.0755 45 0 34.9245 0 22.5C0 10.0755 10.0755 0 22.5 0C34.9245 0 45 10.0755 45 22.5C45 34.9245 34.9245 45 22.5 45Z" fill="#FFFFFF"/>
  <path d="M27.6569 27.189C26.3654 27.189 25.3124 26.136 25.3124 24.8445C25.3124 23.553 26.3654 22.5 27.6569 22.5C28.9484 22.5 30.0014 23.553 30.0014 24.8445C30.0014 26.136 28.9484 27.189 27.6569 27.189ZM28.0709 31.0365C26.4689 32.634 23.4044 32.76 22.5044 32.76C21.6044 32.76 18.5354 32.634 16.9379 31.0365C16.6994 30.798 16.6994 30.4155 16.9379 30.177C17.1764 29.9385 17.5589 29.9385 17.7974 30.177C18.8054 31.185 20.9609 31.545 22.5044 31.545C24.0434 31.545 26.2034 31.185 27.2114 30.177C27.4499 29.9385 27.8324 29.9385 28.0709 30.177C28.3049 30.4155 28.3049 30.798 28.0709 31.0365ZM14.9984 24.8445C14.9984 23.553 16.0514 22.5 17.3429 22.5C18.6344 22.5 19.6874 23.553 19.6874 24.8445C19.6874 26.136 18.6344 27.189 17.3429 27.189C16.0514 27.189 14.9984 26.136 14.9984 24.8445ZM37.4984 22.5C37.4984 20.6865 36.0314 19.2195 34.2179 19.2195C33.3314 19.2195 32.5304 19.5705 31.9409 20.142C29.6999 18.522 26.6084 17.478 23.1659 17.3565L24.6599 10.323L29.5424 11.3625C29.6009 12.6045 30.6179 13.5945 31.8734 13.5945C33.1694 13.5945 34.2179 12.546 34.2179 11.25C34.2179 9.95402 33.1694 8.90552 31.8734 8.90552C30.9509 8.90552 30.1634 9.44102 29.7809 10.215L24.3269 9.05402C24.1739 9.02252 24.0164 9.04952 23.8859 9.13502C23.7554 9.22052 23.6654 9.35102 23.6339 9.50402L21.9959 17.2215C21.9869 17.2665 21.9959 17.307 21.9959 17.352C18.4904 17.442 15.3404 18.4905 13.0634 20.133C12.4739 19.566 11.6774 19.2195 10.7954 19.2195C8.98189 19.2195 7.51489 20.691 7.51489 22.5C7.51489 23.832 8.31139 24.9795 9.45439 25.4925C9.40489 25.8165 9.37789 26.1495 9.37789 26.487C9.37789 31.536 15.2549 35.6265 22.5044 35.6265C29.7539 35.6265 35.6309 31.536 35.6309 26.487C35.6309 26.154 35.6039 25.8255 35.5544 25.5015C36.6929 24.9885 37.4984 23.841 37.4984 22.5Z" fill="#000000"/>
</svg>
