<svg xmlns="http://www.w3.org/2000/svg" width="1449.55" height="844.72" viewBox="267.78 108.88 1449.55 844.72" xml:space="preserve"><path d="M654.72 250.46a9.14 9.14 0 0 0 0 18.25 9.14 9.14 0 0 0 0-18.25z"/><path fill="#231F20" d="M654.72 269.21a9.64 9.64 0 0 1 0-19.25 9.63 9.63 0 0 1 0 19.25zm0-18.25a8.64 8.64 0 0 0 0 17.25 8.64 8.64 0 0 0 0-17.25z"/><path d="M1320.32 216.7H571.98a29.2 29.2 0 0 0-29.2 29.2v182.18l141.75 285.07h635.79a29.2 29.2 0 0 0 29.2-29.2V245.9a29.2 29.2 0 0 0-29.2-29.2zm-665.6 55.66a12.79 12.79 0 0 1 0-25.55 12.79 12.79 0 0 1 0 25.55z"/><path fill="#231F20" d="M1320.32 713.65h-636.1l-.14-.27-141.8-285.19V245.9a29.74 29.74 0 0 1 29.7-29.7h748.34a29.5 29.5 0 0 1 21 8.7 29.5 29.5 0 0 1 8.7 21v438.06a29.74 29.74 0 0 1-29.7 29.7zm-635.48-1h635.48a28.73 28.73 0 0 0 28.7-28.7V245.9c0-7.67-2.98-14.88-8.4-20.3s-12.64-8.4-20.3-8.4H571.98a28.73 28.73 0 0 0-28.7 28.7v182.06l141.56 284.7zm-30.12-439.79a13.29 13.29 0 0 1-13.27-13.27 13.3 13.3 0 0 1 13.27-13.28 13.3 13.3 0 0 1 9.38 22.66 13.18 13.18 0 0 1-9.38 3.9zm0-25.55a12.29 12.29 0 0 0 0 24.55 12.2 12.2 0 0 0 8.68-3.6 12.2 12.2 0 0 0 3.6-8.67 12.3 12.3 0 0 0-12.28-12.28z"/><circle fill="#FFF" cx="722.57" cy="411.53" r="95.14"/><path d="M722.57 508.67c-53.56 0-97.15-43.57-97.15-97.14 0-53.56 43.58-97.14 97.15-97.14 53.56 0 97.14 43.57 97.14 97.14s-43.58 97.14-97.14 97.14zm0-190.28c-51.36 0-93.15 41.78-93.15 93.15 0 51.35 41.79 93.14 93.15 93.14 51.36 0 93.14-41.79 93.14-93.14 0-51.37-41.78-93.15-93.14-93.15z"/><path fill="#2E9AFF" d="M803.88 388.7c-1.08 0-2.15.06-3.2.19a81.34 81.34 0 0 0-156.22 0 28.23 28.23 0 1 0 3.7 55.42 81.32 81.32 0 0 0 148.84 0 28.23 28.23 0 1 0 6.88-55.6z"/><path fill="none" d="M803.88 388.7c-1.08 0-2.15.06-3.2.19a81.33 81.33 0 0 0-76.58-58.63c-5.3 34.6-35.27 61.18-71.33 61.18-6 0-11.81-.74-17.38-2.12a28.23 28.23 0 1 0 12.76 54.98 81.32 81.32 0 0 0 148.85 0 28.23 28.23 0 1 0 6.88-55.6z"/><path d="M803.88 386.7c-.58 0-1.16.02-1.75.05-10.76-34.54-43.23-58.52-79.55-58.52-36.34 0-68.82 23.98-79.57 58.53a30.26 30.26 0 0 0-31.98 30.18A30.26 30.26 0 0 0 647 446.6a83.38 83.38 0 0 0 75.57 48.23 83.4 83.4 0 0 0 75.58-48.23 30.27 30.27 0 0 0 35.96-29.68 30.27 30.27 0 0 0-30.23-30.23zm0 56.46c-2.14 0-4.3-.27-6.39-.8l-1.63-.4-.69 1.54a79.39 79.39 0 0 1-72.6 47.34 79.39 79.39 0 0 1-72.6-47.34l-.67-1.54-1.64.41a26.26 26.26 0 0 1-32.63-25.44 26.26 26.26 0 0 1 28.48-26.12c3.03.4 6.12.63 9.26.63 34.95 0 64.07-25.33 70.03-58.6 5.95 33.27 35.07 58.6 70.02 58.6 3.33 0 6.6-.25 9.82-.7a26.26 26.26 0 0 1 27.48 26.2 26.25 26.25 0 0 1-26.23 26.22z"/><path d="M644.27 430.29a2 2 0 0 1-1.47-.65l-17.32-18.82a2 2 0 0 1 2.94-2.7l17.32 18.81a2 2 0 0 1-1.47 3.36zm153.23 0a2 2 0 0 1-1.47-3.35l17.3-18.83a2 2 0 0 1 2.95 2.7l-17.31 18.83a2 2 0 0 1-1.48.65zm-111.1-21.64a27.99 27.99 0 0 0-23.07 12.16 2 2 0 1 0 3.3 2.26 24.01 24.01 0 0 1 10-8.34 11.24 11.24 0 1 0 21.05 5.44c0-1.95-.5-3.78-1.37-5.38a24.02 24.02 0 0 1 9.87 8.28 2 2 0 0 0 2.78.52 2 2 0 0 0 .52-2.78 27.99 27.99 0 0 0-23.08-12.16zm93.1 12.15a27.99 27.99 0 0 0-46.16 0 2 2 0 0 0 3.3 2.27 24.03 24.03 0 0 1 10.01-8.34 11.24 11.24 0 0 0 9.82 16.67 11.24 11.24 0 0 0 9.86-16.6 24.02 24.02 0 0 1 9.86 8.27 2 2 0 1 0 3.3-2.26zM722 437.87a2 2 0 0 1-2-2v-15.62a2 2 0 0 1 4 0v15.62a2 2 0 0 1-2 2z"/><path fill="#FFF" d="M736.42 444.74a14.13 14.13 0 0 1-28.26 0"/><path fill="#FFF" d="M1310.49 693.7H676.33v-4h634.16c8.96 0 16.25-7.3 16.25-16.26V256.4c0-8.96-7.29-16.25-16.25-16.25H581.81c-8.96 0-16.25 7.3-16.25 16.25V467h-4V256.4a20.28 20.28 0 0 1 20.25-20.25h728.68a20.27 20.27 0 0 1 20.26 20.25v417.05a20.28 20.28 0 0 1-20.26 20.25z"/><path fill="#FFF" d="M564.85 278.18h763.82v4H564.85zm671.5 118.49H871.23a2 2 0 0 1 0-4h365.12a2 2 0 0 1 0 4zM1124 429.23H871.23a2 2 0 0 1 0-4H1124a2 2 0 0 1 0 4zm74.9 32.57H871.22a2 2 0 0 1 0-4h327.69a2 2 0 1 1 0 4zm-149.8 32.56H871.23a2 2 0 0 1 0-4h177.87a2 2 0 0 1 0 4zM874.15 335.47h13.27v14.16c0 1.2-.16 2.34-.46 3.4a6.65 6.65 0 0 1-3.3 4.02 8.45 8.45 0 0 1-3.26.95 12.95 12.95 0 0 1-4.16-.27 9.79 9.79 0 0 1-2.86-1.19l1.56-3.49c.8.47 1.5.77 2.08.92.58.15 1.26.23 2.02.23.46 0 .97-.1 1.5-.27a3.42 3.42 0 0 0 1.42-.9 4.8 4.8 0 0 0 1.11-3.37v-10.32h-8.92v-3.87zm17.24 14.28c0-1.33.2-2.52.6-3.55a7.3 7.3 0 0 1 1.72-2.64 7.32 7.32 0 0 1 2.65-1.64c1.02-.37 2.17-.55 3.44-.55 1.33 0 2.52.2 3.57.6a7.13 7.13 0 0 1 4.29 4.35c.37 1.04.55 2.18.55 3.43 0 1.33-.2 2.52-.6 3.56a7.36 7.36 0 0 1-1.71 2.63 7.3 7.3 0 0 1-2.65 1.64 10.1 10.1 0 0 1-3.45.56 9.9 9.9 0 0 1-3.57-.6 7.12 7.12 0 0 1-4.28-4.35 10.1 10.1 0 0 1-.56-3.44zm4.25 0c0 .7.1 1.35.29 1.94.19.6.47 1.11.82 1.56a3.72 3.72 0 0 0 3.05 1.4c1.23 0 2.23-.4 3-1.18.77-.79 1.16-2.02 1.16-3.72a5.5 5.5 0 0 0-1.08-3.54 3.73 3.73 0 0 0-3.08-1.35c-.6 0-1.14.1-1.65.27-.5.19-.95.48-1.32.88-.37.4-.66.9-.87 1.52a6.84 6.84 0 0 0-.32 2.22zm13.69-14.28h6.41v8.12h.13a5.35 5.35 0 0 1 2.03-1.61c.85-.4 1.84-.6 2.98-.6.8 0 1.55.1 2.23.3a4.2 4.2 0 0 1 1.74 1.06c.49.48.87 1.14 1.15 1.98.27.83.41 1.86.41 3.1v9.87h-4.13v-9.02c0-1.3-.27-2.22-.82-2.8s-1.27-.85-2.16-.85a3.89 3.89 0 0 0-3.55 2.54v10.13h-4.13v-18.73h-2.29v-3.5zm19.43 6.34h5.56l.47 2.1h.13a6.3 6.3 0 0 1 2.1-1.78c.9-.5 2-.76 3.27-.76.78 0 1.52.1 2.2.32.7.21 1.28.56 1.77 1.05.48.48.87 1.14 1.16 1.98.28.83.42 1.86.42 3.1v9.87h-4.12v-9.02c0-1.3-.3-2.22-.88-2.8a3.02 3.02 0 0 0-2.2-.85c-.79 0-1.5.23-2.15.68a3.41 3.41 0 0 0-1.31 1.7v10.3h-4.13v-12.4h-2.29v-3.49zm39.31-6.34a54.23 54.23 0 0 1 6.22-.32 12 12 0 0 1 4.89.86 7.54 7.54 0 0 1 3.06 2.36 9.1 9.1 0 0 1 1.57 3.56c.3 1.36.44 2.85.44 4.46 0 1.46-.14 2.9-.44 4.28a9.9 9.9 0 0 1-1.6 3.73 8.28 8.28 0 0 1-3.21 2.64c-1.37.67-3.12 1-5.26 1l-1.3-.03a97.69 97.69 0 0 1-4.38-.29v-22.25zm6.38 3.55c-.4 0-.8.02-1.18.05l-.85.08v14.89a57.8 57.8 0 0 0 .9.08l.52.03a6.65 6.65 0 0 0 3.35-.67 4.34 4.34 0 0 0 1.64-1.79c.35-.74.6-1.58.7-2.51a25.1 25.1 0 0 0 0-5.3 7.3 7.3 0 0 0-.66-2.39 4.47 4.47 0 0 0-1.57-1.77 5.1 5.1 0 0 0-2.85-.7zm12.19 10.73c0-1.33.2-2.52.6-3.55a7.3 7.3 0 0 1 1.72-2.64 7.3 7.3 0 0 1 2.65-1.64 10.1 10.1 0 0 1 3.44-.55c1.34 0 2.53.2 3.57.6a7.12 7.12 0 0 1 4.29 4.35c.37 1.04.56 2.18.56 3.43 0 1.33-.2 2.52-.6 3.56a7.39 7.39 0 0 1-1.72 2.63 7.3 7.3 0 0 1-2.65 1.64c-1.03.37-2.18.56-3.45.56-1.33 0-2.52-.2-3.57-.6a7.12 7.12 0 0 1-4.29-4.35 10.14 10.14 0 0 1-.55-3.44zm4.26 0c0 .7.1 1.35.28 1.94.19.6.47 1.11.82 1.56a3.74 3.74 0 0 0 3.05 1.4c1.23 0 2.23-.4 3-1.18.77-.79 1.16-2.02 1.16-3.72a5.5 5.5 0 0 0-1.08-3.54 3.73 3.73 0 0 0-3.08-1.35c-.6 0-1.14.1-1.65.27-.5.19-.94.48-1.31.88-.37.4-.67.9-.88 1.52a6.85 6.85 0 0 0-.31 2.22zm30.63 6.25c-.27.26-.63.51-1.06.76a10.78 10.78 0 0 1-3.44 1.19 12.44 12.44 0 0 1-5.86-.38 7.36 7.36 0 0 1-2.72-1.67 7.28 7.28 0 0 1-1.7-2.64 9.75 9.75 0 0 1-.58-3.5c0-1.4.22-2.62.66-3.67a7.33 7.33 0 0 1 4.55-4.19 10.38 10.38 0 0 1 5.85-.2c.86.2 1.65.57 2.37 1.09a5.86 5.86 0 0 1 1.76 2.08c.45.87.68 1.97.68 3.3 0 .91-.1 1.9-.31 2.95h-11.43c.02.68.16 1.25.43 1.72.26.46.6.85 1.04 1.14.44.3.94.52 1.5.65.56.14 1.15.2 1.79.2 1.27 0 2.31-.14 3.13-.44a6.6 6.6 0 0 0 1.98-1.08l1.37 2.7zm-6.85-11.33a5.3 5.3 0 0 0-1.56.23c-.49.15-.93.37-1.32.67a3.44 3.44 0 0 0-1.41 2.53h7.81c0-1.06-.29-1.9-.87-2.5-.58-.62-1.47-.93-2.65-.93zM587.8 272.54a12.97 12.97 0 0 1 0-25.91 12.96 12.96 0 0 1 0 25.9zm0-21.9a8.96 8.96 0 0 0 0 17.9 8.96 8.96 0 0 0 0-17.9z"/><path fill="#2E9AFF" d="M621.26 272.54a12.97 12.97 0 0 1 0-25.91 12.95 12.95 0 0 1 0 25.91zm0-21.9a8.96 8.96 0 0 0 0 17.9 8.96 8.96 0 0 0 0-17.9z"/><path fill="#FFF" d="M962.08 596.85H634.4a2 2 0 0 1 0-4h327.68a2 2 0 0 1 0 4zm-149.81 32.57H634.4a2 2 0 0 1 0-4h177.87a2 2 0 0 1 0 4z"/><circle fill="#2E9AFF" cx="1539.2" cy="158.71" r="35.22"/><path fill="#FFF" d="M1539.2 195.93c-20.52 0-37.22-16.7-37.22-37.22s16.7-37.22 37.22-37.22c20.53 0 37.22 16.7 37.22 37.22s-16.7 37.22-37.22 37.22zm0-70.45a33.26 33.26 0 0 0-33.22 33.22 33.26 33.26 0 0 0 33.22 33.22 33.26 33.26 0 0 0 33.22-33.22 33.26 33.26 0 0 0-33.22-33.21z"/><path fill="#2E9AFF" d="M1524.57 171.87a61.01 61.01 0 0 0-3.69-60.93 61 61 0 0 0-50.93 33.66"/><path fill="#FFF" d="m1526.36 172.77-3.58-1.79a59.27 59.27 0 0 0-2.94-57.96 59.27 59.27 0 0 0-48.1 32.47l-3.58-1.79a63.27 63.27 0 0 1 52.6-34.75l1.15-.07.64.96a63.28 63.28 0 0 1 3.8 62.93z"/><path fill="#FFF" d="m1498.79 159.66-3.58-1.79 23.86-47.8 3.58 1.8z"/><path fill="#2E9AFF" d="M1525.4 172.7a61.01 61.01 0 0 1 60.92 3.68 61 61 0 0 1-33.65 50.93"/><path fill="#FFF" d="m1553.56 229.1-1.79-3.58a59.26 59.26 0 0 0 32.47-48.1 59.27 59.27 0 0 0-57.96-2.94l-1.78-3.57a63.28 63.28 0 0 1 62.92 3.8l.97.64-.07 1.16a63.27 63.27 0 0 1-34.76 52.59z"/><path fill="#FFF" d="m1539.4 202.05-1.79-3.58 47.79-23.87 1.78 3.58z"/><circle fill="#2E9AFF" cx="1166.17" cy="256.13" r="49.31"/><path fill="#FFF" d="M1166.17 307.44c-28.3 0-51.3-23.02-51.3-51.31s23-51.3 51.3-51.3 51.3 23 51.3 51.3-23.01 51.31-51.3 51.31zm0-98.62c-26.09 0-47.3 21.23-47.3 47.31s21.21 47.31 47.3 47.31 47.3-21.22 47.3-47.3-21.21-47.31-47.3-47.31z"/><circle fill="#2E9AFF" cx="1440.12" cy="530.08" r="49.31"/><path fill="#FFF" d="M1440.12 581.39c-28.3 0-51.31-23.02-51.31-51.31s23.02-51.3 51.3-51.3c28.3 0 51.32 23 51.32 51.3s-23.02 51.3-51.31 51.3zm0-98.62c-26.09 0-47.31 21.22-47.31 47.31s21.22 47.3 47.3 47.3 47.32-21.21 47.32-47.3a47.36 47.36 0 0 0-47.31-47.3z"/><ellipse transform="rotate(-135 1303.64 393.61)" fill="#2E9AFF" cx="1303.63" cy="393.61" rx="219.67" ry="313.03"/><path fill="#FFF" d="M1211.45 666.06c-52.93 0-98.08-17.18-130.58-49.68-41.96-41.96-58.14-104.62-45.56-176.43 12.54-71.55 52.17-143.67 111.58-203.08 72.44-72.45 165.5-115.7 248.94-115.7 52.93 0 98.08 17.18 130.58 49.68 41.96 41.96 58.14 104.62 45.56 176.43-12.54 71.55-52.17 143.67-111.58 203.09-72.44 72.44-165.5 115.7-248.94 115.7zm184.38-540.88c-82.4 0-174.4 42.81-246.11 114.52-121.27 121.27-150.9 288.99-66.02 373.86 31.73 31.73 75.9 48.5 127.75 48.5 82.4 0 174.4-42.81 246.11-114.52 58.84-58.84 98.07-130.2 110.47-200.95 12.35-70.48-3.44-131.9-44.45-172.91-31.73-31.73-75.9-48.5-127.75-48.5z"/><ellipse transform="rotate(-135 1303.64 393.61)" fill="#FFF" cx="1303.63" cy="393.61" rx="177.41" ry="263.85"/><path fill="#2E9AFF" d="M856.65 928.7c82.02-96.03 208.21-229.75 261.98-292.7h-.01a41.41 41.41 0 0 0-58.38-58.37v-.01C997.3 631.39 863.57 757.58 767.56 839.6a63.21 63.21 0 1 0 89.1 89.1z"/><path fill="#FFF" d="M808.44 953.02a64.78 64.78 0 0 1-46.1-19.1 65.29 65.29 0 0 1 3.92-95.85c53.05-45.31 118.06-104.53 175.42-156.77 45.81-41.73 89.09-81.14 117.26-105.2l1.68-1.44.04.06a43.42 43.42 0 0 1 57.18 3.68 43.61 43.61 0 0 1 3.56 57.36l.03.03-1.28 1.5c-24.08 28.2-63.53 71.52-105.3 117.38-52.21 57.33-111.39 122.3-156.68 175.32a64.78 64.78 0 0 1-49.73 23.03zm251.42-372.45c-28.15 24.14-70.6 62.8-115.49 103.69-57.38 52.26-122.42 111.5-175.51 156.86a61.28 61.28 0 0 0-3.7 89.97 60.8 60.8 0 0 0 43.28 17.93 60.79 60.79 0 0 0 46.68-21.62c45.34-53.07 104.54-118.07 156.76-175.42 41.02-45.03 79.79-87.6 103.94-115.77l1.28-1.52a39.58 39.58 0 0 0-2.1-53.46 39.13 39.13 0 0 0-27.85-11.54 39.4 39.4 0 0 0-25.6 9.45l-1.69 1.44v-.01z"/><path fill="#2E9AFF" d="m839.07 915.68.1-.1.04-.04 264.85-291.02a22.9 22.9 0 0 0-32.33-32.34L780.7 857.04l-.03.03-.12.1c-.47.45-.94.89-1.4 1.35a41.41 41.41 0 1 0 59.91 57.16z"/><path fill="#FFF" d="M808.44 931.22c-11.6 0-22.5-4.52-30.7-12.72a43.47 43.47 0 0 1 .38-61.76v-.02l1.25-1.16 264.12-240.38 26.9-24.48a24.81 24.81 0 0 1 16.75-6.48c6.65 0 12.9 2.59 17.6 7.29a24.85 24.85 0 0 1 .8 34.35l-207 227.45-57.9 63.62-2.14 2.44-.07-.17a43.12 43.12 0 0 1-30 12.02zm-25.52-73.49-1 .92a39.46 39.46 0 0 0-1.34 57.02 39.15 39.15 0 0 0 27.86 11.55 39.17 39.17 0 0 0 29.15-12.89l2.15-2.37 64.93-71.33c74.64-82 175.46-192.8 197.92-217.46a20.85 20.85 0 0 0-.68-28.84 20.75 20.75 0 0 0-14.77-6.11 20.85 20.85 0 0 0-14.07 5.43L782.92 857.73z"/><path fill="#2E9AFF" d="M897.89 849.4a36.09 36.09 0 0 1 0-51.04 36.09 36.09 0 0 1-51.04 0"/><path fill="#FFF" d="M897.89 851.4a2 2 0 0 1-1.42-.6 38.17 38.17 0 0 1-7.2-43.82 38.16 38.16 0 0 1-43.83-7.2 2 2 0 0 1 2.83-2.83 34.13 34.13 0 0 0 48.2 0 2 2 0 1 1 2.83 2.82 34.13 34.13 0 0 0 0 48.21 2 2 0 0 1-1.41 3.42z"/><path fill="#2E9AFF" d="M996.17 661.6a27.2 27.2 0 0 1 0 38.48 27.21 27.21 0 0 1 38.48 0"/><path fill="#FFF" d="M996.17 702.08a2 2 0 0 1-1.41-3.42c4.76-4.76 7.38-11.09 7.38-17.82s-2.62-13.07-7.38-17.83a2 2 0 0 1 2.83-2.83 29.02 29.02 0 0 1 8.55 20.66c0 4.1-.84 8.07-2.43 11.72a29.26 29.26 0 0 1 32.36 6.1 2 2 0 1 1-2.83 2.83 25.24 25.24 0 0 0-35.66 0 2 2 0 0 1-1.4.59z"/><path fill="#2E9AFF" d="M800.66 842.71a37.39 37.39 0 0 1 0 52.88 37.4 37.4 0 0 1 52.88 0"/><path fill="#FFF" d="M853.54 897.6c-.51 0-1.02-.2-1.41-.6a35.44 35.44 0 0 0-50.06 0 2 2 0 0 1-2.83-2.82c6.69-6.69 10.37-15.57 10.37-25.02s-3.69-18.35-10.37-25.03a2 2 0 1 1 2.83-2.83 39.15 39.15 0 0 1 11.54 27.86 39.2 39.2 0 0 1-4.16 17.65 39.46 39.46 0 0 1 45.5 7.37 2 2 0 0 1-1.41 3.41z"/><circle fill="#2E9AFF" cx="895.37" cy="800.88" r="9.83"/><path fill="#FFF" d="M895.37 812.7a11.84 11.84 0 0 1 0-23.66 11.84 11.84 0 0 1 0 23.67zm0-19.66a7.84 7.84 0 0 0 0 15.67 7.84 7.84 0 0 0 0-15.67z"/><circle fill="#2E9AFF" cx="995.92" cy="700.33" r="9.83"/><path fill="#FFF" d="M995.92 712.16a11.85 11.85 0 0 1-11.83-11.83 11.84 11.84 0 1 1 11.83 11.83zm0-19.67a7.84 7.84 0 0 0 0 15.67 7.84 7.84 0 0 0 0-15.67z"/><circle fill="#2E9AFF" cx="801.08" cy="895.28" r="9.83"/><path fill="#FFF" d="M801.08 907.1a11.85 11.85 0 0 1-11.83-11.82c0-6.53 5.3-11.84 11.83-11.84a11.85 11.85 0 0 1 0 23.66zm0-19.66a7.84 7.84 0 0 0 0 15.67 7.84 7.84 0 0 0 0-15.67zm101.62-91.89a2 2 0 0 1-1.41-3.41l85.27-85.28a2 2 0 1 1 2.83 2.83l-85.28 85.28a2 2 0 0 1-1.41.58z"/><circle fill="#FFF" cx="1399.31" cy="297.97" r="55.47"/><path fill="#231F20" d="M1399.31 355.44a57.54 57.54 0 0 1-57.47-57.48 57.54 57.54 0 0 1 57.47-57.47 57.54 57.54 0 0 1 57.48 57.47 57.54 57.54 0 0 1-57.48 57.48zm0-110.94a53.54 53.54 0 0 0-53.47 53.47 53.54 53.54 0 0 0 53.47 53.47 53.54 53.54 0 0 0 53.48-53.47 53.53 53.53 0 0 0-53.48-53.48z"/><path d="m1443.67 320.66-.3-.3a49.65 49.65 0 0 0-9.12-57.33 49.08 49.08 0 0 0-34.94-14.47c-7.79 0-15.5 1.85-22.4 5.36l-.3-.3a18.34 18.34 0 0 0-13.04-5.41c-4.94 0-9.57 1.92-13.06 5.4a18.35 18.35 0 0 0-5.4 13.06 18.36 18.36 0 0 0 7.58 14.92 49.45 49.45 0 0 0 11.69 51.31 49.07 49.07 0 0 0 34.93 14.47 49.4 49.4 0 0 0 16.38-2.78 18.34 18.34 0 0 0 14.92 7.59c4.93 0 9.56-1.93 13.05-5.42 3.49-3.48 5.41-8.12 5.41-13.05s-1.92-9.56-5.4-13.05z"/><path fill="#2E9AFF" d="M1424.38 289.25c0-8.05 2.26-15.58 6.18-22a42.01 42.01 0 0 1-21.99 6.19c-12.81 0-24.77-5.33-32.53-14.36l-.1-.09-1.05-1.3a14.44 14.44 0 0 0-21.55-1.24 14.37 14.37 0 0 0-4.24 10.22 14.38 14.38 0 0 0 7.04 12.41l1.45.87-.61 1.57a45.46 45.46 0 0 0 10.23 48.56 45.1 45.1 0 0 0 32.1 13.3c5.66 0 11.2-1.04 16.45-3.08l1.57-.6.86 1.44a14.38 14.38 0 0 0 12.41 7.04c3.87 0 7.5-1.5 10.23-4.24a14.37 14.37 0 0 0 4.24-10.22 14.36 14.36 0 0 0-5.46-11.32l-1.32-1.06-.5-.42c-8.7-7.75-13.41-19.13-13.41-31.67z"/><path d="M1386.18 281.27c-4-3.99-9.7-5.76-15.27-4.72a2 2 0 0 0 .73 3.93c2-.38 4.02-.26 5.92.27a6.75 6.75 0 1 0 9.17 9.23c.5 1.88.62 3.86.25 5.83a2 2 0 0 0 3.93.73 17.14 17.14 0 0 0-4.73-15.27zm28.87 28.87c-4-4-9.7-5.76-15.27-4.73a2 2 0 1 0 .73 3.93c2-.37 4.02-.25 5.92.28a6.75 6.75 0 1 0 9.16 9.23c.51 1.87.62 3.86.25 5.83a2 2 0 0 0 3.94.73 17.14 17.14 0 0 0-4.73-15.27zm-26-.37a2 2 0 0 1-1.41-3.41l6.44-6.45a2 2 0 1 1 2.82 2.83l-6.44 6.44a2 2 0 0 1-1.4.59z"/><path fill="#FFF" d="M1391.34 317.37a8.24 8.24 0 0 1-11.66-11.66"/><path fill="#2E9AFF" d="M1280.26 520.38a23.08 23.08 0 0 1-32.65 0l-71.94-71.95a23.07 23.07 0 0 1 0-32.65 23.07 23.07 0 0 1 32.64 0l71.95 71.94a23.1 23.1 0 0 1 0 32.66z"/><path fill="#FFF" d="M1263.93 529.14c-6.7 0-13-2.6-17.73-7.35l-71.95-71.95a24.92 24.92 0 0 1-7.35-17.74c0-6.7 2.61-13 7.35-17.73a24.93 24.93 0 0 1 17.74-7.35c6.7 0 13 2.6 17.74 7.35l71.94 71.94a25.12 25.12 0 0 1 0 35.48 24.92 24.92 0 0 1-17.74 7.35zM1192 411.02a20.92 20.92 0 0 0-14.91 6.18 20.93 20.93 0 0 0-6.18 14.9 20.9 20.9 0 0 0 6.18 14.91l71.94 71.95a20.93 20.93 0 0 0 14.9 6.18 21.11 21.11 0 0 0 14.91-36l-71.93-71.94a20.92 20.92 0 0 0-14.91-6.18z"/><path d="m1191.34 434.99.06.06 7.1-4.1 1.54 1.56-9.91 5.34-1.7-1.7 5.27-9.98 1.67 1.67-4.03 7.15zm3.01 4.69 1.92 1.91 3.05-3.05-1.92-1.92 1.2-1.2 3.33 3.34-4.25 4.25 2.02 2.02-1.2 1.2-5.35-5.36 1.2-1.2zm7.39-4.08c.22-.23.5-.33.83-.32.32 0 .64.15.93.46.3.3.47.62.5.97.01.34-.09.62-.31.85a1 1 0 0 1-.85.3c-.33-.03-.65-.2-.95-.51-.3-.3-.46-.6-.48-.92-.01-.32.1-.6.33-.83zm3.7 16.41c-.18 0-.4-.04-.62-.1a4.94 4.94 0 0 1-1.59-.78 5.98 5.98 0 0 1-1.88-2.14 3.54 3.54 0 0 1-.04-2.99c.22-.48.55-.95 1-1.4.48-.48.98-.82 1.5-1.03a3.52 3.52 0 0 1 2.98.12 5 5 0 0 1 2.09 1.94c.22.37.36.77.43 1.2.07.42.04.85-.1 1.3-.15.46-.44.92-.9 1.37-.31.32-.69.62-1.12.9l-3.93-3.91a1.62 1.62 0 0 0-.47 1.48c.05.25.15.5.29.73a4.49 4.49 0 0 0 1.77 1.6c.38.2.73.3 1.06.33l-.47 1.38zm1.54-6.24a2.19 2.19 0 0 0-1.3-.68 1.65 1.65 0 0 0-1.35.38l2.69 2.69c.36-.37.55-.75.56-1.16 0-.42-.2-.83-.6-1.23zm6.57 7.22-1.57 3.2.06.06 1.03-.84 3.2-2.31 1.28 1.27-6.55 4.35-1.43-1.43 1.55-2.77-.06-.05-2.84 1.47-1.47-1.47 4.3-6.6 1.42 1.42-2.48 3.55-.6.77.06.05 3.2-1.58.9.91zm12.51 15.67 1.2 1.2-2.18 2.18c-.4-.07-.83-.23-1.28-.5a6.18 6.18 0 0 1-2.4-2.54 4.2 4.2 0 0 1-.46-1.83c-.01-.64.14-1.31.45-2.02.31-.7.82-1.4 1.54-2.13a6.65 6.65 0 0 1 2.21-1.55c.73-.28 1.42-.4 2.08-.36.65.04 1.26.2 1.83.5a6.62 6.62 0 0 1 2.46 2.28c.23.38.4.7.5 1l-2.27 2.27-1.2-1.2 1.24-1.24c-.19-.27-.4-.52-.64-.75a2.8 2.8 0 0 0-.95-.64 2.41 2.41 0 0 0-1.12-.15c-.4.04-.81.17-1.25.4-.43.23-.87.56-1.32 1.02-.4.4-.7.8-.94 1.21-.23.42-.37.84-.42 1.25a2.67 2.67 0 0 0 .83 2.29c.24.24.5.45.77.63l1.32-1.32zm6.76-3.36 2.2 2.2-2.79 2.78.05.05c.4-.07.82-.02 1.25.14.43.15.84.42 1.23.81.27.28.5.57.65.88a2.05 2.05 0 0 1-.05 2.02c-.19.39-.5.79-.92 1.2l-3.39 3.4-1.41-1.42 3.1-3.1c.43-.43.66-.85.67-1.23 0-.4-.15-.73-.45-1.04a1.88 1.88 0 0 0-2.09-.35l-3.47 3.48-1.42-1.42 6.43-6.42-.78-.79 1.2-1.2zm4.98 10.06a8.25 8.25 0 0 1 2.84 1.88c.37.38.65.75.82 1.1a2.08 2.08 0 0 1 .01 1.98 3.4 3.4 0 0 1-.67.9c-.37.37-.7.68-.99.91a10.57 10.57 0 0 0-1.48 1.52l.7.7-1.19 1.2-1.83-1.83.6-.88-.06-.05a2.6 2.6 0 0 1-2.52-.88 2.6 2.6 0 0 1-.85-1.72c-.03-.6.2-1.15.68-1.64.3-.3.62-.5.95-.62a2 2 0 0 1 1.03-.05c.36.07.72.22 1.09.45a6.37 6.37 0 0 1 1.5 1.33c.12.16.29.35.48.57.09-.06.17-.12.24-.2l.2-.2c.28-.27.4-.55.36-.83a1.65 1.65 0 0 0-.52-.88 4.63 4.63 0 0 0-1.14-.86c-.4-.2-.73-.35-1.03-.46l.77-1.44zm-2.15 5.85c.34.35.66.54.96.59.3.04.57.03.79-.03l.65-.65a6.67 6.67 0 0 0-.71-.87 3.14 3.14 0 0 0-.45-.37c-.16-.1-.32-.19-.48-.24a1.06 1.06 0 0 0-.47-.05.72.72 0 0 0-.41.22c-.2.2-.3.42-.3.65 0 .23.14.48.42.75zm8.2-.53 1.9 1.9-.55.89.04.04a3.18 3.18 0 0 1 2.72.97c.27.27.48.56.64.86.17.31.25.63.25.97 0 .33-.1.69-.28 1.07-.19.4-.5.8-.92 1.21l-3.39 3.4-1.41-1.42 3.09-3.1c.44-.44.66-.86.66-1.26s-.16-.74-.46-1.05c-.27-.27-.6-.44-.97-.5a1.65 1.65 0 0 0-1.04.13l-3.53 3.53-1.42-1.41 4.25-4.25-.78-.79 1.2-1.2zm6.54 6.53 1.9 1.91-.55.88.04.05a3.13 3.13 0 0 1 2.72.96c.26.27.48.56.64.87.16.31.25.63.25.96s-.1.7-.29 1.08a4.4 4.4 0 0 1-.91 1.21l-3.4 3.4-1.4-1.42 3.09-3.1c.44-.44.66-.86.66-1.26s-.16-.75-.47-1.05a1.72 1.72 0 0 0-.97-.5 1.66 1.66 0 0 0-1.03.13l-3.53 3.53-1.42-1.42 4.25-4.25-.78-.78 1.2-1.2zm7.35 17.1c-.18 0-.39-.04-.62-.1a4.87 4.87 0 0 1-1.59-.78 5.88 5.88 0 0 1-1.88-2.14 3.54 3.54 0 0 1-.04-2.99c.22-.48.55-.95 1-1.4a4.6 4.6 0 0 1 1.49-1.03 3.5 3.5 0 0 1 3 .13 4.94 4.94 0 0 1 2.08 1.93c.22.37.36.77.43 1.2a2.93 2.93 0 0 1-1 2.67c-.31.32-.69.62-1.12.9l-3.93-3.92a1.65 1.65 0 0 0-.47 1.48c.05.26.15.5.3.74a4.56 4.56 0 0 0 1.77 1.61c.38.18.72.28 1.05.31l-.47 1.39zm1.54-6.24a2.24 2.24 0 0 0-1.3-.69 1.78 1.78 0 0 0-.7.04c-.23.06-.45.18-.65.35l2.68 2.68c.36-.36.55-.75.56-1.16.01-.4-.18-.82-.6-1.22zm7.18.86 2.32 2.32-5.03 5.03c-.57.56-.88 1.02-.96 1.37-.08.36.03.7.33 1a2.47 2.47 0 0 0 1.27.71l-.45 1.52-.6-.15a3.27 3.27 0 0 1-1.12-.56 5.29 5.29 0 0 1-.59-.52c-.68-.68-1.02-1.37-1.01-2.06 0-.69.33-1.35.97-2l4.57-4.57-.9-.9 1.2-1.2z" fill="#FFF"/><path fill="#231F20" d="M1373.51 449.25a2 2 0 0 1-1.41-.59l-121.4-121.4a2 2 0 1 1 2.83-2.83l121.4 121.4a2 2 0 0 1-1.42 3.42zm-35.28-2.08a2 2 0 0 1-1.41-.59l-84.05-84.04a2 2 0 0 1 2.83-2.83l84.04 84.05a2 2 0 0 1-1.41 3.41zm-4.15 29.06c-.51 0-1.02-.2-1.42-.59l-108.95-108.95a2 2 0 0 1 2.83-2.82L1335.5 472.8a2 2 0 0 1-1.41 3.42zm-41.51-8.31a2 2 0 0 1-1.41-.58L1232 408.2a2 2 0 0 1 2.83-2.83L1294 464.5a2 2 0 0 1-1.42 3.41zm-66.83 66.83a2 2 0 0 1-1.4-.58l-59.15-59.15a2 2 0 1 1 2.83-2.83l59.14 59.15a2 2 0 0 1-1.42 3.41zm-28.84 3.95c-.52 0-1.03-.2-1.42-.6l-34.23-34.23a2 2 0 1 1 2.82-2.83l34.24 34.24a2 2 0 0 1-1.41 3.42zm107.32-217.37 6.77 6.77-7.22 7.22a8.87 8.87 0 0 1-1.97 1.5 4.79 4.79 0 0 1-3.74.37 6.49 6.49 0 0 1-2.79-1.75 9.3 9.3 0 0 1-1.33-1.68 7.38 7.38 0 0 1-.85-2.06l2.57-.99c.17.65.37 1.16.6 1.53s.51.75.9 1.14c.24.24.54.45.91.63.37.2.76.27 1.18.27a3.45 3.45 0 0 0 2.29-1.15l5.26-5.26-4.55-4.55 1.97-1.99zm1.51 16.07a7.02 7.02 0 0 1 2.12-1.5 5.34 5.34 0 0 1 2.22-.47c.74.01 1.47.18 2.19.52s1.4.82 2.04 1.47a7.1 7.1 0 0 1 1.5 2.13c.34.74.5 1.48.5 2.22a5.11 5.11 0 0 1-.53 2.19c-.34.71-.82 1.4-1.46 2.03a7.06 7.06 0 0 1-2.12 1.5 5.26 5.26 0 0 1-4.4-.05 7.22 7.22 0 0 1-2.05-1.47 7.14 7.14 0 0 1-1.51-2.13 5.18 5.18 0 0 1 .04-4.4c.33-.72.82-1.4 1.46-2.04zm2.17 2.18c-.36.35-.64.73-.85 1.13-.2.4-.33.8-.37 1.21a2.66 2.66 0 0 0 .84 2.27 2.9 2.9 0 0 0 2.13.93c.8 0 1.62-.44 2.48-1.3a3.96 3.96 0 0 0 1.26-2.36c.1-.83-.2-1.58-.88-2.26a3.6 3.6 0 0 0-.98-.7 2.34 2.34 0 0 0-1.12-.23c-.4.02-.8.13-1.22.33-.42.21-.85.53-1.3.97zm14.26-.31 3.27 3.27-4.14 4.14.06.07c.6-.09 1.23-.02 1.86.2s1.24.64 1.83 1.22c.4.41.73.84.97 1.3.24.45.35.92.35 1.42 0 .5-.14 1.03-.43 1.6a7.22 7.22 0 0 1-1.36 1.79l-5.04 5.03-2.1-2.1 4.6-4.6c.66-.66 1-1.28 1-1.85a2.07 2.07 0 0 0-.66-1.54c-.4-.4-.89-.65-1.47-.73a2.76 2.76 0 0 0-1.64.22l-5.16 5.16-2.1-2.1 9.54-9.55-1.16-1.17 1.78-1.78zm6.67 13.14 2.83 2.83-.82 1.32.06.06a4.7 4.7 0 0 1 4.03 1.44c.4.4.72.83.96 1.29.25.45.37.93.37 1.43 0 .5-.14 1.03-.42 1.6s-.74 1.17-1.36 1.8l-5.03 5.03-2.1-2.1 4.6-4.6c.65-.66.97-1.28.97-1.87 0-.59-.23-1.1-.69-1.56-.4-.4-.88-.65-1.44-.75a2.47 2.47 0 0 0-1.53.2l-5.25 5.24-2.1-2.1 6.31-6.31-1.17-1.17 1.78-1.78zm23.27 16.8c.1.1.3.24.56.47a39.27 39.27 0 0 1 1.88 1.68l.9.86a9 9 0 0 1 2.06 2.94c.36.95.48 1.87.35 2.77-.13.9-.47 1.77-1.01 2.61a15.2 15.2 0 0 1-4.46 4.46c-.87.56-1.77.92-2.72 1.08-.95.17-1.94.07-2.98-.29a8.61 8.61 0 0 1-3.19-2.17 54.18 54.18 0 0 1-1.43-1.55l-.76-.85c-.25-.27-.43-.5-.55-.65l11.36-11.36zm1.45 5.07a10.65 10.65 0 0 0-1.1-.97l-7.6 7.6.17.21.25.29.25.28.2.22a3.92 3.92 0 0 0 1.85 1.14c.6.15 1.19.12 1.75-.08.56-.19 1.1-.5 1.64-.92a18.3 18.3 0 0 0 2.7-2.7c.4-.49.7-1 .88-1.55a3.2 3.2 0 0 0 .1-1.7c-.11-.6-.48-1.2-1.1-1.82zm.75 11.69a7.05 7.05 0 0 1 2.11-1.5 5.3 5.3 0 0 1 2.22-.48 5.3 5.3 0 0 1 2.19.52c.7.34 1.39.83 2.03 1.48a7.08 7.08 0 0 1 1.52 2.13 5.17 5.17 0 0 1-.04 4.4c-.34.72-.82 1.4-1.46 2.03a7 7 0 0 1-2.12 1.5 5.17 5.17 0 0 1-4.41-.04 7.4 7.4 0 0 1-2.04-1.47 7.27 7.27 0 0 1-1.51-2.13 5.34 5.34 0 0 1-.49-2.22c.01-.74.19-1.47.52-2.19s.83-1.4 1.47-2.03zm2.16 2.17a4.2 4.2 0 0 0-.84 1.13c-.2.4-.33.8-.37 1.22a2.67 2.67 0 0 0 .84 2.26 2.9 2.9 0 0 0 2.13.93c.79 0 1.62-.43 2.48-1.3a3.96 3.96 0 0 0 1.25-2.35c.1-.83-.2-1.58-.88-2.27a3.6 3.6 0 0 0-.98-.7 2.36 2.36 0 0 0-1.11-.23c-.4.02-.8.13-1.23.33a4.9 4.9 0 0 0-1.29.98zm12.44 18.81a4.3 4.3 0 0 1-.93-.17 7.3 7.3 0 0 1-2.36-1.15 9.3 9.3 0 0 1-1.23-1.03 7.73 7.73 0 0 1-1.57-2.15 5.23 5.23 0 0 1-.05-4.44c.33-.73.82-1.42 1.49-2.1a6.74 6.74 0 0 1 2.2-1.52 5.3 5.3 0 0 1 4.46.18 7.6 7.6 0 0 1 3.1 2.88c.32.55.54 1.14.64 1.77.1.63.05 1.28-.16 1.96a5.1 5.1 0 0 1-1.34 2.03c-.46.46-1.02.91-1.66 1.34l-5.83-5.83a2.4 2.4 0 0 0-.7 2.21c.06.38.2.74.42 1.1a6.72 6.72 0 0 0 2.63 2.39c.57.26 1.1.42 1.57.46l-.69 2.07zm2.27-9.28a3.8 3.8 0 0 0-.9-.68 3.1 3.1 0 0 0-1.01-.33 2.48 2.48 0 0 0-2.02.58l3.98 3.98c.54-.54.81-1.11.83-1.73.02-.6-.27-1.21-.88-1.82z"/><path fill="#2E9AFF" d="M1495.6 149.61a36.08 36.08 0 0 1 0 51.04 36.09 36.09 0 0 1 51.04 0"/><path fill="#FFF" d="M1546.64 202.65a2 2 0 0 1-1.42-.59 34.12 34.12 0 0 0-48.2 0 2 2 0 1 1-2.83-2.83c6.44-6.44 9.99-15 9.99-24.1s-3.55-17.67-9.99-24.1a2 2 0 0 1 2.83-2.83 37.84 37.84 0 0 1 11.16 26.93c0 5.95-1.36 11.7-3.93 16.89a38.15 38.15 0 0 1 43.8 7.21 2 2 0 0 1-1.41 3.42z"/><path fill="#2E9AFF" d="M1120.42 268.9a41.37 41.37 0 0 1 58.51 0 41.38 41.38 0 0 1 0-58.52"/><path fill="#FFF" d="M1120.42 270.9a2 2 0 0 1-1.41-3.42 43.09 43.09 0 0 1 30.67-12.7 43.1 43.1 0 0 1 20.02 4.87 43.46 43.46 0 0 1 7.81-50.68 2 2 0 1 1 2.83 2.83 39.42 39.42 0 0 0 0 55.68 1.98 1.98 0 0 1 0 2.83 2 2 0 0 1-2.83 0 39.1 39.1 0 0 0-27.83-11.53 39.14 39.14 0 0 0-27.85 11.53c-.38.39-.9.58-1.4.58z"/><path fill="#2E9AFF" d="M1427.98 576.45a41.38 41.38 0 0 0 0-58.5 41.38 41.38 0 0 0 58.5 0"/><path fill="#FFF" d="M1427.98 578.45a2 2 0 0 1-1.41-3.41 39.42 39.42 0 0 0 0-55.68 1.98 1.98 0 0 1 0-2.83 2 2 0 0 1 2.82 0 39.42 39.42 0 0 0 55.68 0 2 2 0 0 1 2.83 2.83 43.46 43.46 0 0 1-50.7 7.8c8.5 16.34 5.9 37-7.8 50.7-.4.4-.9.6-1.42.6z"/><circle fill="#2E9AFF" cx="1471.65" cy="136.19" r="9.83"/><path fill="#FFF" d="M1471.65 148.02c-6.52 0-11.83-5.31-11.83-11.83s5.31-11.83 11.83-11.83a11.84 11.84 0 0 1 0 23.66zm0-19.66a7.84 7.84 0 0 0 0 15.66 7.84 7.84 0 0 0 0-15.66z"/><circle fill="#2E9AFF" cx="1559.44" cy="223.97" r="9.83"/><path fill="#FFF" d="M1559.44 235.8a11.84 11.84 0 1 1 11.83-11.83c0 6.53-5.3 11.84-11.83 11.84zm0-19.66a7.84 7.84 0 0 0 0 15.67 7.84 7.84 0 0 0 0-15.67zM496.42 875.72a31.79 31.79 0 0 1-28.63-17.73L271.14 462.5a31.74 31.74 0 0 1-1.68-24.4 31.73 31.73 0 0 1 16.06-18.43l182.23-90.61a31.6 31.6 0 0 1 14.21-3.35 31.8 31.8 0 0 1 28.63 17.73l196.64 395.48c3.8 7.64 4.4 16.3 1.69 24.4a31.74 31.74 0 0 1-16.07 18.43l-182.23 90.61a31.66 31.66 0 0 1-14.2 3.35zm-14.46-532.29c-2.2 0-4.33.5-6.32 1.5l-182.23 90.6a14.15 14.15 0 0 0-7.16 8.22 14.18 14.18 0 0 0 .75 10.88L483.65 850.1a14.18 14.18 0 0 0 19.09 6.41l182.23-90.6c3.4-1.7 5.94-4.62 7.15-8.22a14.1 14.1 0 0 0-.75-10.88L494.74 351.33a14.18 14.18 0 0 0-12.77-7.9z"/><path fill="#FFF" d="m443.36 342.24 5.37 24.1c1.35 6.1-2.1 13.37-7.7 16.16l-91.37 45.43c-5.6 2.78-13.49 1.16-17.53-3.6l-15.97-18.83"/><circle fill="#FFF" cx="434.39" cy="488.53" r="55.78"/><path d="M469.96 454.18a49.7 49.7 0 0 0-57.43-9.7 49.67 49.67 0 0 0-26.83 51.7l-.53.26a18.4 18.4 0 0 0-10.15 16.87 18.35 18.35 0 0 0 29.09 14.37 49.49 49.49 0 0 0 52.54 5.3 49.67 49.67 0 0 0 27.38-45.16A18.4 18.4 0 0 0 497 469.83a18.35 18.35 0 0 0-26.5-15.93l-.53.28zm16.1 30.93zm5.84-21.41c.98 1.96 1.5 4.05 1.55 6.22a14.85 14.85 0 0 1-11.61 14.82l-1.46.32.07 1.5a46.1 46.1 0 0 1-25.38 43.26 45.96 45.96 0 0 1-49.83-5.77l-1.14-.95-1.14.97a14.8 14.8 0 0 1-24.4-10.85m92.06-55.32"/><path fill="#2E9AFF" d="M415.28 449.12a42.5 42.5 0 0 1 1.06 8.42c.45 18.23-10.34 34.4-26.34 40.82l-.3.08-1.41.51a14.84 14.84 0 0 0-9.73 14.26 14.8 14.8 0 0 0 24.4 10.85l1.14-.97 1.15.96a45.96 45.96 0 0 0 49.82 5.77 46.1 46.1 0 0 0 25.38-43.27l-.07-1.49 1.46-.32a14.85 14.85 0 0 0 11.62-14.82 14.8 14.8 0 0 0-22.82-12.02l-1.27.82-.3.17c-5.98 3.5-12.84 5.16-20.25 5.34-13.4.33-25.5-5.6-33.54-15.11zm-30.77 61.89 14 5.34a1.77 1.77 0 1 1-1.25 3.31l-14.01-5.34a1.77 1.77 0 1 1 1.26-3.31zm96.24-47.99a1.77 1.77 0 1 1 3.4.99l-4.16 14.4a1.77 1.77 0 0 1-2.2 1.22 1.76 1.76 0 0 1-1.2-2.2l4.16-14.4z"/><path d="M382.22 512.03c-.35.92.1 1.94 1.02 2.29l14.02 5.34a1.77 1.77 0 1 0 1.26-3.3L384.5 511c-.92-.35-1.94.1-2.29 1.02zm95.58-32.4c.94.27 1.92-.27 2.2-1.21l4.15-14.41a1.76 1.76 0 0 0-1.2-2.2 1.77 1.77 0 0 0-2.2 1.21l-4.16 14.41c-.28.95.27 1.93 1.2 2.2zm-63.21 16.52a17 17 0 0 0-9.25 12.86 1.77 1.77 0 1 0 3.5.5c.3-2.15 1.12-4.16 2.33-5.88a6.74 6.74 0 0 0 9.76 5.16 6.8 6.8 0 0 0 1.78-10.86c2.08.08 4.14.63 6 1.67a1.77 1.77 0 1 0 1.73-3.1 17 17 0 0 0-15.85-.35zm36.74-18.32a17.01 17.01 0 0 0-9.25 12.87 1.77 1.77 0 1 0 3.5.5 13.5 13.5 0 0 1 2.33-5.89 6.8 6.8 0 0 0 13.52-1.08 6.76 6.76 0 0 0-1.99-4.62c2.08.08 4.14.63 6.02 1.68a1.77 1.77 0 0 0 1.72-3.1 17 17 0 0 0-15.85-.36zm-8.9 23.77a1.77 1.77 0 0 1-3.35.84l-4.1-8.2a1.77 1.77 0 0 1 3.18-1.57l4.09 8.19c.12.24.18.5.18.75z"/><path fill="#FFF" d="M450.55 502.54a8.3 8.3 0 0 1-14.84 7.39"/><path fill="#2E9AFF" d="M608.31 673.23a23.22 23.22 0 0 1-10.45 31.13l-91.62 45.56a23.22 23.22 0 0 1-20.68-41.58l91.62-45.56a23.22 23.22 0 0 1 31.13 10.45z"/><path fill="#FFF" d="M495.92 753.92c-9.48 0-18-5.27-22.22-13.76a24.82 24.82 0 0 1 11.16-33.23l91.62-45.56a24.5 24.5 0 0 1 11.02-2.6c9.49 0 18 5.27 22.22 13.76a24.63 24.63 0 0 1 1.3 18.93 24.61 24.61 0 0 1-12.46 14.3l-91.62 45.57a24.58 24.58 0 0 1-11.02 2.6zm91.58-92c-3.35 0-6.59.76-9.62 2.27l-91.62 45.56a21.67 21.67 0 0 0 9.66 41.03c3.35 0 6.6-.76 9.62-2.27l91.62-45.56a21.5 21.5 0 0 0 10.88-12.49 21.5 21.5 0 0 0-1.14-16.52 21.53 21.53 0 0 0-19.4-12.02z"/><path d="m498.44 730.67.07-.04-1.63-8.07 1.98-.98 1.91 11.17-2.16 1.07-7.83-8.22 2.13-1.06 5.53 6.13zm5.43-1.37 2.44-1.21-1.93-3.9-2.44 1.22-.76-1.52 4.24-2.1 2.7 5.4 2.56-1.27.76 1.52-6.81 3.39-.76-1.53zm-1.52-8.35a1.11 1.11 0 0 1-.04-.9c.1-.3.35-.55.73-.74.4-.19.75-.24 1.08-.15.34.09.57.27.72.56.14.3.15.6.01.9-.14.3-.4.55-.78.75a1.5 1.5 0 0 1-1.03.15 1.02 1.02 0 0 1-.69-.57zm16.83 1.72c-.06.18-.16.36-.3.57a5.5 5.5 0 0 1-2.18 1.83c-.6.3-1.16.47-1.71.54a3.55 3.55 0 0 1-2.87-.92 4.92 4.92 0 0 1-1.02-1.4 4.5 4.5 0 0 1-.5-1.75 3.63 3.63 0 0 1 1.07-2.82 5.1 5.1 0 0 1 2.52-1.36 2.92 2.92 0 0 1 2.49.49c.39.28.73.7 1.02 1.3.2.39.36.85.5 1.35l-5 2.48a1.65 1.65 0 0 0 1.27.92c.26.04.52.03.8-.03a4.49 4.49 0 0 0 2.1-1.17c.29-.31.5-.61.63-.9l1.18.87zm-5.46-3.46c-.24.12-.45.27-.63.44a2.1 2.1 0 0 0-.43.57c-.1.21-.17.44-.19.69-.02.24.02.49.12.73l3.42-1.7a1.7 1.7 0 0 0-.93-.9c-.39-.14-.84-.09-1.36.17zm8.99-3.95 2.55 2.52.07-.03-.47-1.26-1.17-3.8 1.62-.8 2.05 7.64-1.82.9-2.14-2.36-.07.03.49 3.19-1.87.93-4.9-6.22 1.8-.9 2.59 3.51.54.8.07-.03-.49-3.55 1.15-.57zm18.94-6.91 1.53-.76 1.38 2.78c-.2.35-.48.71-.89 1.06a6.15 6.15 0 0 1-3.2 1.48 4.2 4.2 0 0 1-1.88-.15 4.8 4.8 0 0 1-1.77-1.08 7.21 7.21 0 0 1-1.54-2.14 6.66 6.66 0 0 1-.77-2.6 4.56 4.56 0 0 1 1.38-3.68 6.72 6.72 0 0 1 2.96-1.62c.43-.1.8-.16 1.1-.16l1.44 2.89-1.52.76-.79-1.58c-.3.1-.61.22-.92.37a2.8 2.8 0 0 0-.9.7c-.25.29-.42.63-.51 1.02-.1.4-.1.83-.02 1.32s.26 1.01.55 1.58c.24.5.53.93.85 1.28.33.35.68.62 1.06.8a2.64 2.64 0 0 0 2.45-.06c.3-.14.58-.32.85-.52l-.84-1.69zm-1.05-7.53 2.81-1.4 1.77 3.56.06-.02c.07-.41.25-.8.53-1.15.28-.36.68-.67 1.18-.91.35-.18.7-.3 1.04-.35a2.08 2.08 0 0 1 1.92.7c.3.3.58.73.85 1.26l2.15 4.32-1.8.9-1.97-3.95c-.28-.56-.6-.9-.97-1.04-.36-.13-.74-.1-1.13.1a1.9 1.9 0 0 0-1 1.88l2.2 4.43-1.8.9-4.07-8.2-1 .5-.76-1.53zm11.2-1.51a8.14 8.14 0 0 1 2.7-2.1c.49-.24.92-.39 1.32-.44.4-.05.75-.02 1.06.08.31.11.6.3.83.54.24.25.45.56.64.94.23.47.42.88.55 1.22a9.74 9.74 0 0 0 .98 1.91l.9-.45.76 1.53-2.33 1.16-.65-.86-.07.04c-.04.37-.18.75-.41 1.13-.24.38-.65.7-1.23 1a2.6 2.6 0 0 1-1.92.26 2.12 2.12 0 0 1-1.34-1.17 2.49 2.49 0 0 1-.28-1.11c0-.35.1-.69.27-1 .18-.32.44-.61.78-.9a6.49 6.49 0 0 1 1.75-1l.7-.27a1.5 1.5 0 0 0-.11-.3l-.13-.26c-.18-.35-.4-.55-.68-.6-.28-.06-.61.02-1.01.21-.47.23-.86.5-1.18.81-.32.32-.57.6-.77.84l-1.13-1.21zm4.9 3.92c.43-.22.72-.46.85-.73.15-.27.22-.52.23-.76l-.41-.83a4.95 4.95 0 0 0-1.54.71 2.1 2.1 0 0 0-.4.38.98.98 0 0 0-.2.44c-.02.15 0 .3.08.47.13.25.3.42.53.48.22.07.5.01.85-.16zm2.1-7.99 2.44-1.21.66.81.06-.02a3.2 3.2 0 0 1 1.8-2.27c.33-.18.68-.29 1.02-.35.35-.06.68-.03 1 .08.32.1.63.3.94.6.3.32.6.74.86 1.27l2.14 4.31-1.8.9-1.96-3.94c-.28-.56-.61-.9-.99-1.03a1.46 1.46 0 0 0-1.14.1c-.35.18-.61.43-.8.77-.18.34-.25.68-.2 1.03l2.23 4.5-1.8.89-2.7-5.41-1 .5-.75-1.53zm8.33-4.14 2.43-1.2.66.8.06-.02a3.2 3.2 0 0 1 1.8-2.27 3.4 3.4 0 0 1 1.03-.35 2.09 2.09 0 0 1 1.93.69c.3.3.6.72.86 1.26l2.14 4.31-1.8.9-1.96-3.94c-.28-.56-.61-.9-.99-1.03s-.76-.09-1.15.1c-.34.18-.6.43-.79.77-.18.34-.25.68-.2 1.03l2.23 4.5-1.8.89-2.7-5.41-1 .5-.75-1.53zm18.65-1.54c-.06.17-.16.36-.3.56a5.33 5.33 0 0 1-1.25 1.27 6.05 6.05 0 0 1-2.65 1.1c-.55.07-1.06.03-1.54-.13a3.56 3.56 0 0 1-1.32-.79c-.4-.36-.73-.83-1.02-1.4a4.5 4.5 0 0 1-.5-1.75 3.59 3.59 0 0 1 1.07-2.81 5.17 5.17 0 0 1 2.51-1.37c.43-.1.85-.1 1.28-.03.43.07.83.25 1.22.52.39.28.73.72 1.02 1.3.2.4.36.85.5 1.36l-5 2.48a1.7 1.7 0 0 0 1.27.93c.26.03.52.02.8-.04a4.5 4.5 0 0 0 2.1-1.17c.29-.32.5-.62.63-.91l1.18.88zm-5.46-3.46a2.6 2.6 0 0 0-.63.43 2.1 2.1 0 0 0-.43.58c-.1.21-.17.44-.2.68-.01.25.03.5.13.74l3.42-1.7a1.7 1.7 0 0 0-.93-.9c-.39-.15-.84-.1-1.36.17zm3.12-6.57 2.96-1.48 3.18 6.41c.36.72.7 1.17 1 1.36.32.19.67.19 1.06 0a2.68 2.68 0 0 0 1.09-.98l1.3.91c-.1.18-.21.35-.33.52a3.86 3.86 0 0 1-1.58 1.3c-.86.43-1.62.53-2.28.3a2.9 2.9 0 0 1-1.59-1.56l-2.9-5.82-1.15.57-.76-1.53z" fill="#FFF"/><path fill="#231F20" d="M413.85 639.57a1.78 1.78 0 0 1-.8-3.36l154.61-76.87a1.77 1.77 0 0 1 1.58 3.17l-154.6 76.87c-.26.13-.53.19-.8.19zm34.3 9.31a1.8 1.8 0 0 1-1.6-.98 1.77 1.77 0 0 1 .8-2.37l107.03-53.23a1.77 1.77 0 1 1 1.58 3.18L448.93 648.7a1.8 1.8 0 0 1-.78.18zm-5.35 29.02a1.77 1.77 0 0 1-.79-3.35l138.74-68.99a1.77 1.77 0 0 1 1.58 3.18L443.6 677.72c-.26.13-.52.19-.79.19zm42.23 5.38a1.77 1.77 0 0 1-.8-3.35l75.32-37.45a1.77 1.77 0 0 1 1.58 3.17l-75.31 37.45a1.9 1.9 0 0 1-.8.18zm42.31 85.1a1.77 1.77 0 0 1-.79-3.35l75.32-37.45a1.77 1.77 0 1 1 1.58 3.17l-75.32 37.45a1.8 1.8 0 0 1-.79.18zm26.24 13a1.77 1.77 0 0 1-.79-3.36l43.6-21.68a1.77 1.77 0 0 1 1.58 3.17l-43.6 21.68a1.7 1.7 0 0 1-.79.18zM426.23 586.67l8.61-4.29 4.58 9.2c.39.78.65 1.56.8 2.35a4.79 4.79 0 0 1-.85 3.69 6.16 6.16 0 0 1-1.8 1.66 9.42 9.42 0 0 1-2.79 1.17c-.7.16-1.44.21-2.24.15l-.12-2.77c.67.04 1.22.01 1.65-.08a6.3 6.3 0 0 0 1.38-.5c.3-.15.6-.38.9-.67.28-.29.5-.64.62-1.04.22-.76.1-1.6-.37-2.54l-3.33-6.7-5.8 2.88-1.24-2.51zm15.8 3.71a6.94 6.94 0 0 1-.75-2.5 5.3 5.3 0 0 1 1.45-4.19 7.35 7.35 0 0 1 2.06-1.47c.86-.43 1.7-.69 2.51-.77a5.19 5.19 0 0 1 4.19 1.44 7.4 7.4 0 0 1 1.47 2.05c.43.86.68 1.7.76 2.5a5.3 5.3 0 0 1-1.46 4.19 7.3 7.3 0 0 1-2.06 1.47c-.86.44-1.7.69-2.51.77a5.2 5.2 0 0 1-4.19-1.44 7.41 7.41 0 0 1-1.47-2.05zm2.77-1.38c.22.46.5.85.8 1.17.32.32.67.57 1.04.74a2.72 2.72 0 0 0 2.44-.07c.8-.4 1.31-.98 1.56-1.73.25-.76.1-1.69-.44-2.79a3.97 3.97 0 0 0-1.85-1.95 2.69 2.69 0 0 0-2.44.12c-.38.19-.7.43-.98.7-.27.28-.46.62-.57 1-.11.38-.14.8-.07 1.27.05.47.22.98.5 1.54zm4.27-13.69 4.16-2.07 2.63 5.27.08-.04c.1-.6.37-1.17.8-1.7a5 5 0 0 1 1.73-1.35 5.4 5.4 0 0 1 1.55-.52 3.09 3.09 0 0 1 2.86 1.04c.45.45.87 1.08 1.27 1.88l3.18 6.4-2.68 1.34-2.9-5.86c-.43-.84-.9-1.35-1.45-1.55a2.06 2.06 0 0 0-1.67.15 2.8 2.8 0 0 0-1.49 2.8l3.27 6.57-2.68 1.33-6.05-12.16-1.48.74-1.13-2.27zm14.66-2.15 3.6-1.8 1 1.21.08-.04a4.77 4.77 0 0 1 2.66-3.38c.5-.25 1.02-.42 1.53-.5a3.05 3.05 0 0 1 1.48.1c.48.16.94.47 1.4.92a6.9 6.9 0 0 1 1.27 1.87l3.19 6.41-2.68 1.33-2.91-5.85c-.42-.84-.9-1.35-1.47-1.53a2.18 2.18 0 0 0-1.71.15c-.51.25-.9.64-1.17 1.14-.28.5-.38 1.01-.31 1.52l3.32 6.69-2.68 1.33-4-8.04-1.48.73-1.12-2.26zm23.47-16.81.62-.39 1.02-.59 1.19-.66 1.1-.58a8.76 8.76 0 0 1 3.46-1.02 5.47 5.47 0 0 1 2.75.55 6.6 6.6 0 0 1 2.17 1.8c.64.8 1.2 1.71 1.73 2.76a15 15 0 0 1 1.1 2.92c.25 1 .3 1.99.16 2.94a6.01 6.01 0 0 1-1.23 2.75 8.68 8.68 0 0 1-3.1 2.34c-.21.11-.5.25-.85.4l-1.07.48-1.07.45c-.34.14-.6.24-.8.3l-7.18-14.45zm5.3.25c-.27.13-.52.27-.75.4l-.53.34 4.8 9.66c.07 0 .15-.04.27-.09l.35-.14.35-.15.27-.12c.8-.4 1.36-.86 1.7-1.4.32-.53.48-1.1.47-1.69 0-.6-.12-1.21-.35-1.85a17.65 17.65 0 0 0-1.7-3.45 5.2 5.2 0 0 0-1.2-1.33c-.46-.35-1-.57-1.6-.64-.6-.09-1.3.07-2.09.46zm11.37 3.03a7.06 7.06 0 0 1-.75-2.5 5.3 5.3 0 0 1 1.45-4.19 7.35 7.35 0 0 1 2.06-1.47c.87-.43 1.7-.69 2.52-.76a5.17 5.17 0 0 1 4.19 1.44 7.33 7.33 0 0 1 1.46 2.04c.43.87.69 1.7.76 2.5a5.3 5.3 0 0 1-1.46 4.19 7.38 7.38 0 0 1-2.05 1.48c-.87.43-1.7.68-2.52.76a5.16 5.16 0 0 1-4.19-1.44 7.34 7.34 0 0 1-1.47-2.05zm2.77-1.37c.23.45.5.84.8 1.16.32.33.67.57 1.05.75a2.7 2.7 0 0 0 2.43-.08c.8-.4 1.32-.98 1.57-1.73.24-.76.1-1.69-.45-2.79a3.97 3.97 0 0 0-1.84-1.95 2.7 2.7 0 0 0-2.44.12 3.3 3.3 0 0 0-.98.71c-.28.28-.47.61-.58 1-.1.37-.13.8-.07 1.26.06.47.23.98.5 1.55zm21.91-5.83c-.1.25-.25.53-.45.83a7.36 7.36 0 0 1-1.85 1.88 9.02 9.02 0 0 1-3.93 1.65c-.82.1-1.58.02-2.3-.2a5.3 5.3 0 0 1-1.96-1.17 7.12 7.12 0 0 1-1.51-2.09c-.45-.9-.7-1.77-.75-2.6a5.28 5.28 0 0 1 1.6-4.18 7.6 7.6 0 0 1 3.73-2.03 5.01 5.01 0 0 1 1.9-.05c.63.1 1.23.36 1.8.78s1.09 1.06 1.52 1.92c.3.6.54 1.27.74 2.02l-7.42 3.7a2.41 2.41 0 0 0 1.88 1.38c.38.04.78.02 1.18-.07a6.71 6.71 0 0 0 3.12-1.74c.44-.46.75-.9.94-1.35l1.76 1.32zm-8.11-5.15c-.36.18-.67.4-.94.65s-.48.54-.64.85a2.59 2.59 0 0 0-.1 2.11l5.07-2.52a2.53 2.53 0 0 0-1.38-1.35c-.57-.2-1.24-.12-2.01.26zM1218.2 946.9a66.79 66.79 0 0 1-60.46-38.62c-15.15-32.56-1.76-71.28 29.82-87.3l-.01-.04 1.81-.85 241.16-112.2 1.79 3.84-240.42 111.86-.73.34c-30.77 14.46-44.03 51.5-29.58 82.56 14.45 31.06 51.32 44.77 82.2 30.55l1.54-.7 239.61-111.5 1.79 3.85-243.02 113.07-.02-.05a65.24 65.24 0 0 1-25.47 5.18zm206.43-21.07-.93-1.55 1.71-1.03-.84-1.81 142.72-66.4v.04l129.63-60.32c14.26-6.7 20.4-23.86 13.7-38.26-6.69-14.4-23.78-20.75-38.09-14.16l-8.8 4.1-1.69-3.63 10.37-4.82.03.04c15.96-6.35 34.43.92 41.8 16.79a32.89 32.89 0 0 1-13.14 42.27l.1.1-2.58 1.2-136.3 63.41.01-.04-137.7 64.07z"/><path fill="#231F20" d="m1710.4 756.1-54.16-116.48c-6.7-14.4-23.78-20.75-38.09-14.16l-9.65 4.48-1.7-3.62 10.94-5.09.03.03c16.02-6.56 34.68.7 42.1 16.67l54.17 116.48-3.63 1.68z"/><path fill="#2E9AFF" d="m1640.13 774.83-118.77 55.25a32 32 0 0 1-42.52-15.51l12.66 27.2a32 32 0 0 0 42.51 15.51l118.77-55.25a32 32 0 0 0 15.52-42.52l-12.66-27.2a32 32 0 0 1-15.51 42.52z"/><path fill="#FFF" d="M1520.54 862.28a34.15 34.15 0 0 1-30.85-19.67l-12.65-27.19v-.01l3.62-1.69a30.13 30.13 0 0 0 27.22 17.35c4.38 0 8.63-.94 12.64-2.8L1639.29 773a29.8 29.8 0 0 0 15.52-16.92 29.8 29.8 0 0 0-.97-22.91l-.01-.02 3.62-1.7 12.66 27.2c7.9 17 .51 37.27-16.49 45.18l-118.76 55.25a33.66 33.66 0 0 1-14.32 3.19zm-33.15-34.09 5.93 12.73a30.13 30.13 0 0 0 27.22 17.36c4.38 0 8.63-.95 12.63-2.81l118.77-55.26a30.04 30.04 0 0 0 14.55-39.86l-5.9-12.66a33.7 33.7 0 0 1-2.02 9.78 33.77 33.77 0 0 1-17.6 19.17l-118.76 55.25a33.74 33.74 0 0 1-14.32 3.19c-7.53 0-14.7-2.51-20.5-6.89z"/><path fill="#FFF" d="M1507.89 835.08a34.14 34.14 0 0 1-30.86-19.67l-55.25-118.76a33.76 33.76 0 0 1-1.12-26 33.78 33.78 0 0 1 17.6-19.17l118.77-55.26a33.76 33.76 0 0 1 14.32-3.18 34.14 34.14 0 0 1 30.85 19.66l55.26 118.77a33.76 33.76 0 0 1 1.11 26 33.77 33.77 0 0 1-17.6 19.17l-118.76 55.26a33.69 33.69 0 0 1-14.32 3.18zm63.46-238.04c-4.38 0-8.63.95-12.63 2.8l-118.77 55.27a29.8 29.8 0 0 0-15.53 16.91 29.8 29.8 0 0 0 .98 22.94l55.26 118.77a30.13 30.13 0 0 0 27.22 17.35c4.39 0 8.64-.94 12.64-2.8L1639.3 773a29.8 29.8 0 0 0 15.52-16.91 29.81 29.81 0 0 0-.98-22.94l-55.26-118.77a30.13 30.13 0 0 0-27.22-17.35z"/><path d="M1587.88 739.6a49.7 49.7 0 0 0 11.1-57.18 49.66 49.66 0 0 0-51.01-28.1 18.4 18.4 0 0 0-16.85-11.1 18.35 18.35 0 0 0-15.08 28.72 49.49 49.49 0 0 0-6.61 52.4 49.67 49.67 0 0 0 44.48 28.5 18.41 18.41 0 0 0 17.66 13.4 18.35 18.35 0 0 0 16.32-26.63zm-31.32 15.32zm21.26 6.37c-1.98.93-4.09 1.4-6.26 1.4a14.85 14.85 0 0 1-14.52-11.98l-.3-1.46-1.48.03a46.1 46.1 0 0 1-42.63-26.44 45.95 45.95 0 0 1 7-49.67l.98-1.12-.94-1.16a14.8 14.8 0 0 1 11.45-24.13m53.02 93.4"/><path fill="#2E9AFF" d="M1594.29 685.06c-2.73.55-5.56.84-8.45.84-18.23 0-34.12-11.18-40.15-27.34l-.08-.3-.47-1.42a14.84 14.84 0 0 0-14.02-10.08 14.8 14.8 0 0 0-11.45 24.13l.94 1.16-.98 1.12a45.95 45.95 0 0 0-7 49.67 46.1 46.1 0 0 0 42.63 26.44l1.49-.03.29 1.46a14.85 14.85 0 0 0 14.52 11.98 14.8 14.8 0 0 0 12.58-22.52l-.79-1.28-.16-.3c-3.35-6.07-4.84-12.97-4.84-20.38 0-13.4 6.23-25.36 15.94-33.15zm-61.11-32.3-5.69 13.88a1.77 1.77 0 1 1-3.28-1.34l5.69-13.88a1.77 1.77 0 1 1 3.28 1.34zm45.6 97.4a1.77 1.77 0 1 1-1.08 3.38l-14.3-4.52a1.77 1.77 0 0 1-1.16-2.22 1.76 1.76 0 0 1 2.23-1.16l14.3 4.52z"/><path d="M1532.21 650.45c-.9-.37-1.94.06-2.31.97l-5.7 13.88a1.77 1.77 0 1 0 3.29 1.34l5.69-13.88c.37-.9-.06-1.94-.97-2.3zm30.04 96.35c-.3.94.22 1.93 1.15 2.22l14.3 4.52a1.77 1.77 0 1 0 1.07-3.38l-14.3-4.51c-.94-.3-1.93.22-2.22 1.15zm-14.95-63.6a17 17 0 0 0-12.64-9.56 1.77 1.77 0 1 0-.58 3.5 13.4 13.4 0 0 1 5.81 2.46 6.77 6.77 0 0 0-5.63 4.44 6.8 6.8 0 0 0 11.05 7.24 13.47 13.47 0 0 1-1.82 5.96 1.77 1.77 0 1 0 3.05 1.8 17 17 0 0 0 .75-15.84zm17.4 37.18a17.01 17.01 0 0 0-12.65-9.56 1.77 1.77 0 1 0-.57 3.5c2.14.35 4.13 1.21 5.82 2.46a6.8 6.8 0 0 0 .75 13.54c1.8 0 3.45-.72 4.67-1.87a13.49 13.49 0 0 1-1.83 5.97 1.77 1.77 0 1 0 3.06 1.8 17 17 0 0 0 .75-15.84zm-23.55-9.48a1.77 1.77 0 0 1-.75-3.37l8.29-3.89a1.77 1.77 0 0 1 1.5 3.2l-8.3 3.9c-.24.1-.5.16-.74.16z"/><path fill="#FFF" d="M1540.02 719a8.3 8.3 0 0 1-7.03-15.02"/><path d="m1470.34 687.62 4.12 8.7-9.28 4.4c-.79.37-1.58.62-2.37.74a4.79 4.79 0 0 1-3.66-.9 6.68 6.68 0 0 1-2.05-2.61 9.64 9.64 0 0 1-.7-2.04 7.16 7.16 0 0 1-.1-2.25l2.76-.06c-.05.67-.04 1.22.05 1.65s.24.89.48 1.39c.14.3.35.6.64.9s.63.52 1.03.65c.76.23 1.6.13 2.55-.32l6.77-3.2-2.77-5.85 2.53-1.2zm-4.01 15.73a7.16 7.16 0 0 1 2.52-.7 5.26 5.26 0 0 1 4.16 1.53 7.42 7.42 0 0 1 1.43 2.09c.41.87.65 1.71.72 2.52a5.23 5.23 0 0 1-1.52 4.16 7.42 7.42 0 0 1-2.07 1.43c-.88.42-1.72.65-2.52.71a5.23 5.23 0 0 1-4.16-1.53 7.3 7.3 0 0 1-1.43-2.09 7.22 7.22 0 0 1-.72-2.52 5.18 5.18 0 0 1 1.52-4.16 7.15 7.15 0 0 1 2.07-1.44zm1.32 2.79a4.6 4.6 0 0 0-1.18.79c-.33.31-.59.65-.77 1.02a2.67 2.67 0 0 0 .04 2.43 2.9 2.9 0 0 0 1.7 1.6c.75.27 1.68.14 2.8-.39a3.97 3.97 0 0 0 1.98-1.8 2.7 2.7 0 0 0-.07-2.44 3.63 3.63 0 0 0-.7-1 2.4 2.4 0 0 0-.97-.6c-.38-.11-.8-.14-1.27-.1-.47.06-.99.22-1.56.49zm13.61 4.53 2 4.2-5.33 2.53.04.08c.6.12 1.16.4 1.69.82a5 5 0 0 1 1.32 1.78c.25.52.4 1.04.48 1.55.07.51.02 1-.15 1.47a3.5 3.5 0 0 1-.94 1.37c-.46.44-1.1.85-1.9 1.23l-6.47 3.06-1.28-2.7 5.9-2.8c.85-.4 1.38-.88 1.58-1.41.2-.54.17-1.1-.1-1.68a2.6 2.6 0 0 0-1.14-1.2 2.87 2.87 0 0 0-1.63-.35l-6.64 3.15-1.28-2.7 12.27-5.82-.71-1.5 2.3-1.08zm1.87 14.71 1.73 3.64-1.22.96.03.08a4.8 4.8 0 0 1 3.33 2.73c.25.51.4 1.03.48 1.54.07.52.03 1.01-.14 1.48s-.48.93-.94 1.38c-.46.44-1.1.86-1.9 1.24l-6.47 3.06-1.28-2.7 5.91-2.8c.85-.4 1.37-.88 1.56-1.44.2-.56.15-1.13-.12-1.71a2.61 2.61 0 0 0-1.11-1.2c-.5-.27-1-.39-1.52-.33l-6.74 3.2-1.28-2.71 8.11-3.85-.7-1.5 2.28-1.08zm16.37 23.78a73.57 73.57 0 0 1 .95 1.65 84.65 84.65 0 0 1 1.2 2.33 9 9 0 0 1 .95 3.47 5.47 5.47 0 0 1-.6 2.74 6.58 6.58 0 0 1-1.84 2.13 15.5 15.5 0 0 1-5.74 2.72 7.2 7.2 0 0 1-2.94.1 6.06 6.06 0 0 1-2.72-1.28 8.7 8.7 0 0 1-2.29-3.13l-.38-.86-.45-1.09-.43-1.07a9.55 9.55 0 0 1-.3-.8l14.59-6.91zm-.35 5.29a8.78 8.78 0 0 0-.71-1.3l-9.76 4.63a2 2 0 0 0 .09.26 17.02 17.02 0 0 1 .4.98 4 4 0 0 0 1.36 1.72c.52.33 1.08.5 1.68.51.6 0 1.22-.1 1.86-.32a18.01 18.01 0 0 0 3.48-1.64c.54-.33 1-.72 1.36-1.17.36-.45.58-.98.67-1.58.09-.6-.05-1.3-.43-2.1zm-3.25 11.32a7.17 7.17 0 0 1 2.52-.71 5.22 5.22 0 0 1 4.16 1.54 7.33 7.33 0 0 1 1.43 2.08c.41.88.65 1.72.72 2.53a5.26 5.26 0 0 1-1.52 4.16 7.4 7.4 0 0 1-2.08 1.43 6.9 6.9 0 0 1-2.51.7 5.25 5.25 0 0 1-4.16-1.53 7.38 7.38 0 0 1-1.44-2.08 7.33 7.33 0 0 1-.71-2.53 5.18 5.18 0 0 1 1.52-4.16 7.3 7.3 0 0 1 2.07-1.43zm1.33 2.78c-.46.23-.86.48-1.18.8a3.5 3.5 0 0 0-.77 1.02c-.18.37-.27.76-.27 1.17s.1.83.3 1.26c.39.8.95 1.34 1.7 1.6.76.27 1.7.14 2.8-.4a3.99 3.99 0 0 0 1.98-1.8 2.7 2.7 0 0 0-.07-2.44 3.57 3.57 0 0 0-.69-1 2.4 2.4 0 0 0-.98-.59 3.1 3.1 0 0 0-1.27-.1c-.47.05-.99.22-1.55.48zm5.41 22.02c-.25-.1-.52-.25-.82-.46a7.8 7.8 0 0 1-1.85-1.9 9.2 9.2 0 0 1-1.57-3.95 5.27 5.27 0 0 1 1.45-4.23 7.23 7.23 0 0 1 2.12-1.48 6.7 6.7 0 0 1 2.6-.7 5.31 5.31 0 0 1 4.16 1.68 7.55 7.55 0 0 1 1.96 3.77c.12.63.13 1.26.01 1.9a4.27 4.27 0 0 1-.81 1.8 5.13 5.13 0 0 1-1.96 1.47c-.6.28-1.27.52-2.03.7l-3.55-7.48a2.46 2.46 0 0 0-1.41 1.85c-.06.38-.05.78.04 1.19a6.63 6.63 0 0 0 1.69 3.15c.44.44.88.76 1.32.96l-1.35 1.73zm5.3-8a3.76 3.76 0 0 0-.63-.96 2.96 2.96 0 0 0-1.86-.95 2.5 2.5 0 0 0-1.1.16l2.43 5.11a2.5 2.5 0 0 0 1.38-1.35c.22-.57.15-1.24-.22-2.02zM1361.41 953.6c-6.2 0-11.9-3.64-14.51-9.26l-21.1-45.33 104.87-48.8 21.1 45.33c3.72 8 .23 17.54-7.76 21.26l-75.86 35.3c-2.13 1-4.4 1.5-6.74 1.5zm-30.3-52.65 19.41 41.7a12.04 12.04 0 0 0 15.95 5.82l75.85-35.3c6-2.79 8.6-9.94 5.82-15.94l-19.4-41.7-11.04 5.13 18.7 40.2-75.25 35-18.7-40.19-11.33 5.28zm15.11-6.66 16.87 36.26 68-31.63-16.87-36.27-68 31.64z" fill="#231F20"/><path fill="#231F20" d="m1388.65 923.1-20.15-43.3 18.6-8.65 20.14 43.3-18.6 8.65zm-15.05-41.44 16.9 36.34 11.64-5.41-16.9-36.34-11.64 5.4z"/><path fill="#FFF" d="M1254.36 878.57c-7.4 0-13.43-6.02-13.43-13.42a13.43 13.43 0 0 1 26.85 0c0 7.4-6.02 13.42-13.42 13.42zm0-23a9.6 9.6 0 0 0 0 19.16 9.6 9.6 0 0 0 0-19.16zm70.72-9.9c-7.4 0-13.42-6.02-13.42-13.42s6.02-13.42 13.41-13.42c7.4 0 13.43 6.02 13.43 13.42s-6.03 13.42-13.42 13.42zm0-23a9.6 9.6 0 0 0 0 19.16 9.6 9.6 0 0 0 0-19.16zm70.72-9.9c-7.4 0-13.42-6.03-13.42-13.42 0-7.4 6.02-13.42 13.42-13.42s13.42 6.02 13.42 13.42-6.03 13.42-13.42 13.42zm0-23a9.6 9.6 0 1 0 9.58 9.58 9.6 9.6 0 0 0-9.58-9.58z"/></svg>