<svg xmlns="http://www.w3.org/2000/svg" xmlns:xlink="http://www.w3.org/1999/xlink" width="1920" height="1080"><g stroke="#231F20" stroke-miterlimit="10"><path d="M654.722 250.46c-5.032 0-9.126 4.094-9.126 9.126 0 5.032 4.094 9.126 9.126 9.126s9.126-4.094 9.126-9.126-4.094-9.126-9.126-9.126z"/><path d="M1320.318 216.694h-748.34c-16.128 0-29.203 13.075-29.203 29.204v182.178l141.752 285.077h635.789c16.13 0 29.202-13.074 29.202-29.203V245.897c.003-16.128-13.071-29.203-29.2-29.203zm-665.596 55.669c-7.045 0-12.775-5.731-12.775-12.776s5.73-12.776 12.775-12.776 12.776 5.731 12.776 12.776c.001 7.044-5.73 12.776-12.776 12.776z"/></g><circle fill="#FFF" stroke="#231F20" stroke-width="4" stroke-miterlimit="10" cx="722.571" cy="411.532" r="95.142"/><path fill="#2E9AFF" d="M803.881 388.7a28.02 28.02 0 00-3.202.186c-9.809-33.885-41.062-58.662-78.105-58.662-37.048 0-68.304 24.776-78.111 58.662a28.371 28.371 0 00-3.198-.186c-15.593 0-28.231 12.638-28.231 28.231s12.641 28.23 28.231 28.23c2.376 0 4.683-.298 6.885-.85 12.604 28.578 41.184 48.526 74.426 48.526 33.237 0 61.815-19.948 74.423-48.528 2.205.554 4.51.852 6.886.852 15.591 0 28.23-12.638 28.23-28.23-.002-15.593-12.642-28.231-28.234-28.231z"/><defs><path id="a" d="M803.881 388.7a28.02 28.02 0 00-3.202.186c-9.809-33.885-41.062-58.662-78.105-58.662-37.048 0-68.304 24.776-78.111 58.662a28.371 28.371 0 00-3.198-.186c-15.593 0-28.231 12.638-28.231 28.231s12.641 28.23 28.231 28.23c2.376 0 4.683-.298 6.885-.85 12.604 28.578 41.184 48.526 74.426 48.526 33.237 0 61.815-19.948 74.423-48.528 2.205.554 4.51.852 6.886.852 15.591 0 28.23-12.638 28.23-28.23-.002-15.593-12.642-28.231-28.234-28.231z"/></defs><clipPath id="b"><use xlink:href="#a" overflow="visible"/></clipPath><path clip-path="url(#b)" stroke="#231F20" stroke-miterlimit="10" d="M724.43 319.284c0 39.578-32.085 71.66-71.663 71.66-39.579 0-71.663-32.083-71.663-71.66 0-39.58 32.084-71.665 71.663-71.665 39.578 0 71.663 32.085 71.663 71.665z"/><defs><path id="c" d="M803.881 388.7a28.02 28.02 0 00-3.202.186c-9.809-33.885-41.062-58.662-78.105-58.662-37.048 0-68.304 24.776-78.111 58.662a28.371 28.371 0 00-3.198-.186c-15.593 0-28.231 12.638-28.231 28.231s12.641 28.23 28.231 28.23c2.376 0 4.683-.298 6.885-.85 12.604 28.578 41.184 48.526 74.426 48.526 33.237 0 61.815-19.948 74.423-48.528 2.205.554 4.51.852 6.886.852 15.591 0 28.23-12.638 28.23-28.23-.002-15.593-12.642-28.231-28.234-28.231z"/></defs><clipPath id="d"><use xlink:href="#c" overflow="visible"/></clipPath><path clip-path="url(#d)" stroke="#231F20" stroke-miterlimit="10" d="M865.332 319.284c0 39.578-32.083 71.66-71.662 71.66-39.577 0-71.663-32.083-71.663-71.66 0-39.58 32.086-71.665 71.663-71.665 39.579 0 71.662 32.085 71.662 71.665z"/><g><path fill="none" stroke="#000" stroke-width="4" stroke-miterlimit="10" d="M803.881 388.7a28.02 28.02 0 00-3.202.186c-9.809-33.885-41.062-58.662-78.105-58.662-37.048 0-68.304 24.776-78.111 58.662a28.371 28.371 0 00-3.198-.186c-15.593 0-28.231 12.638-28.231 28.231s12.641 28.23 28.231 28.23c2.376 0 4.683-.298 6.885-.85 12.604 28.578 41.184 48.526 74.426 48.526 33.237 0 61.815-19.948 74.423-48.528 2.205.554 4.51.852 6.886.852 15.591 0 28.23-12.638 28.23-28.23-.002-15.593-12.642-28.231-28.234-28.231z"/></g><path fill="none" stroke="#000" stroke-width="4" stroke-linecap="round" stroke-linejoin="round" stroke-miterlimit="10" d="M626.958 409.462l17.313 18.824M814.808 409.462l-17.314 18.824"/><g stroke-miterlimit="10"><path stroke="#231F20" d="M697.183 420.166c0 5.925-4.806 10.728-10.728 10.728-5.925 0-10.729-4.803-10.729-10.728 0-5.926 4.806-10.729 10.729-10.729 5.921.001 10.728 4.803 10.728 10.729z"/><path fill="none" stroke="#000" stroke-width="4" stroke-linecap="round" stroke-linejoin="round" d="M707.826 421.942c-4.682-6.822-12.529-11.296-21.425-11.296s-16.742 4.474-21.425 11.296"/></g><g stroke-miterlimit="10"><circle stroke="#231F20" cx="756.47" cy="420.166" r="10.729"/><path fill="none" stroke="#000" stroke-width="4" stroke-linecap="round" stroke-linejoin="round" d="M777.844 421.942c-4.681-6.822-12.526-11.296-21.426-11.296-8.896 0-16.742 4.474-21.426 11.296"/></g><path fill="none" stroke="#000" stroke-width="4" stroke-linecap="round" stroke-linejoin="round" stroke-miterlimit="10" d="M722.006 420.245v15.622"/><path fill="#FFF" d="M736.42 444.739c0 7.804-6.327 14.131-14.131 14.131-7.805 0-14.134-6.327-14.134-14.131"/><path fill="none" stroke="#FFF" stroke-width="4" stroke-miterlimit="10" d="M563.557 467.001V256.403c0-10.039 8.213-18.252 18.252-18.252h728.681c10.038 0 18.252 8.213 18.252 18.252v417.042c0 10.038-8.214 18.252-18.252 18.252H676.333M564.848 280.183h763.816"/><g><g fill="none" stroke="#FFF" stroke-width="4" stroke-linecap="round" stroke-linejoin="round" stroke-miterlimit="10"><path d="M871.225 394.665h365.129M871.225 427.23h252.777M871.225 459.797h327.677M871.225 492.362H1049.1"/></g><text transform="translate(871.226 357.691)" fill="#FFF" font-family="'PTMono-Bold'" font-size="31.751">John Doe</text></g><circle fill="none" stroke="#FFF" stroke-width="4" stroke-miterlimit="10" cx="587.798" cy="259.586" r="10.951"/><circle fill="none" stroke="#2E9AFF" stroke-width="4" stroke-miterlimit="10" cx="621.26" cy="259.586" r="10.951"/><g fill="none" stroke="#FFF" stroke-width="4" stroke-linecap="round" stroke-linejoin="round" stroke-miterlimit="10"><path d="M634.4 594.854h327.678M634.4 627.42h177.873"/></g><g><circle fill="#2E9AFF" stroke="#FFF" stroke-width="4" stroke-miterlimit="10" cx="1539.205" cy="158.705" r="35.22"/><g stroke="#FFF" stroke-width="4" stroke-miterlimit="10"><path fill="#2E9AFF" d="M1524.568 171.873c10.094-20.211 7.914-43.333-3.688-60.928-21.037 1.294-40.832 13.44-50.925 33.652"/><path fill="none" d="M1520.867 110.971l-23.868 47.789"/><g><path fill="#2E9AFF" d="M1525.391 172.694c20.211-10.094 43.332-7.914 60.928 3.689-1.293 21.036-13.438 40.832-33.65 50.925"/><path fill="none" d="M1586.291 176.396l-47.788 23.868"/></g></g><circle fill="#2E9AFF" stroke="#FFF" stroke-width="4" stroke-miterlimit="10" cx="1166.169" cy="256.133" r="49.308"/><circle fill="#2E9AFF" stroke="#FFF" stroke-width="4" stroke-miterlimit="10" cx="1440.117" cy="530.08" r="49.308"/><ellipse transform="rotate(-134.999 1303.64 393.613)" fill="#2E9AFF" stroke="#FFF" stroke-width="4" stroke-miterlimit="10" cx="1303.634" cy="393.608" rx="219.681" ry="313.044"/><ellipse transform="rotate(-134.999 1303.639 393.61)" fill="#FFF" cx="1303.633" cy="393.606" rx="177.412" ry="263.856"/><g stroke="#FFF" stroke-width="4" stroke-miterlimit="10"><path fill="#2E9AFF" d="M856.648 928.693c82.022-96.014 208.212-229.744 261.979-292.688l-.008-.007c13.928-16.271 13.204-40.777-2.195-56.178-15.399-15.399-39.905-16.125-56.18-2.194l-.007-.01C997.3 631.39 863.567 757.576 767.556 839.6a63 63 0 00-3.81 3.512c-24.686 24.685-24.686 64.708 0 89.395 24.685 24.688 64.708 24.688 89.394 0a64.212 64.212 0 003.508-3.814z"/><path fill="#2E9AFF" d="M839.071 915.681l.002.005c.036-.041.071-.079.106-.116.01-.016.021-.022.03-.034 55.907-61.43 234.07-257.188 264.858-291.021h-.001c8.188-8.982 7.941-22.905-.742-31.593-8.685-8.683-22.606-8.93-31.591-.742h-.002c-33.83 30.789-229.588 208.951-291.019 264.857l-.032.031a5.176 5.176 0 00-.117.104l.002.004c-.479.436-.95.88-1.411 1.342-16.175 16.177-16.175 42.399 0 58.572 16.174 16.176 42.397 16.176 58.573 0 .464-.459.91-.932 1.344-1.409z"/><path fill="#2E9AFF" stroke-linecap="round" stroke-linejoin="round" d="M897.89 849.396c-14.093-14.097-14.093-36.942 0-51.036-14.093 14.094-36.941 14.094-51.036 0M996.171 661.596c10.628 10.625 10.628 27.855 0 38.482 10.628-10.627 27.856-10.627 38.483 0M800.656 842.712c14.604 14.604 14.604 38.279 0 52.881 14.604-14.602 38.279-14.604 52.883 0"/><circle fill="#2E9AFF" stroke-linecap="round" stroke-linejoin="round" cx="895.372" cy="800.877" r="9.832"/><circle fill="#2E9AFF" stroke-linecap="round" stroke-linejoin="round" cx="995.923" cy="700.326" r="9.832"/><circle fill="#2E9AFF" stroke-linecap="round" stroke-linejoin="round" cx="801.082" cy="895.276" r="9.832"/><path fill="none" stroke-linecap="round" stroke-linejoin="round" d="M987.979 708.271l-85.283 85.282"/></g><circle fill="#FFF" stroke="#231F20" stroke-width="4" stroke-miterlimit="10" cx="1399.314" cy="297.967" r="55.472"/><path fill="#2E9AFF" d="M1442.251 322.075a16.437 16.437 0 00-1.396-1.243c9.925-18.013 7.254-41.114-8.021-56.386-15.271-15.273-38.373-17.944-56.387-8.02a17.091 17.091 0 00-1.242-1.395c-6.428-6.428-16.851-6.428-23.278 0-6.43 6.429-6.429 16.851 0 23.279a16.55 16.55 0 003.188 2.487c-6.584 16.979-3.027 36.985 10.679 50.69 13.702 13.703 33.71 17.261 50.688 10.677a16.531 16.531 0 002.486 3.188c6.43 6.43 16.852 6.43 23.278 0 6.432-6.427 6.434-16.85.005-23.277z"/><defs><path id="e" d="M1442.251 322.075a16.437 16.437 0 00-1.396-1.243c9.925-18.013 7.254-41.114-8.021-56.386-15.271-15.273-38.373-17.944-56.387-8.02a17.091 17.091 0 00-1.242-1.395c-6.428-6.428-16.851-6.428-23.278 0-6.43 6.429-6.429 16.851 0 23.279a16.55 16.55 0 003.188 2.487c-6.584 16.979-3.027 36.985 10.679 50.69 13.702 13.703 33.71 17.261 50.688 10.677a16.531 16.531 0 002.486 3.188c6.43 6.43 16.852 6.43 23.278 0 6.432-6.427 6.434-16.85.005-23.277z"/></defs><clipPath id="f"><use xlink:href="#e" overflow="visible"/></clipPath><circle clip-path="url(#f)" stroke="#231F20" stroke-miterlimit="10" cx="1408.569" cy="231.156" r="41.783"/><defs><path id="g" d="M1442.251 322.075a16.437 16.437 0 00-1.396-1.243c9.925-18.013 7.254-41.114-8.021-56.386-15.271-15.273-38.373-17.944-56.387-8.02a17.091 17.091 0 00-1.242-1.395c-6.428-6.428-16.851-6.428-23.278 0-6.43 6.429-6.429 16.851 0 23.279a16.55 16.55 0 003.188 2.487c-6.584 16.979-3.027 36.985 10.679 50.69 13.702 13.703 33.71 17.261 50.688 10.677a16.531 16.531 0 002.486 3.188c6.43 6.43 16.852 6.43 23.278 0 6.432-6.427 6.434-16.85.005-23.277z"/></defs><clipPath id="h"><use xlink:href="#g" overflow="visible"/></clipPath><circle clip-path="url(#h)" stroke="#231F20" stroke-miterlimit="10" cx="1466.66" cy="289.247" r="41.783"/><g><path fill="none" stroke="#000" stroke-width="4" stroke-miterlimit="10" d="M1442.251 322.075a16.437 16.437 0 00-1.396-1.243c9.925-18.013 7.254-41.114-8.021-56.386-15.271-15.273-38.373-17.944-56.387-8.02a17.091 17.091 0 00-1.242-1.395c-6.428-6.428-16.851-6.428-23.278 0-6.43 6.429-6.429 16.851 0 23.279a16.55 16.55 0 003.188 2.487c-6.584 16.979-3.027 36.985 10.679 50.69 13.702 13.703 33.71 17.261 50.688 10.677a16.531 16.531 0 002.486 3.188c6.43 6.43 16.852 6.43 23.278 0 6.432-6.427 6.434-16.85.005-23.277z"/></g><path fill="none" stroke="#000" stroke-width="4" stroke-linecap="round" stroke-linejoin="round" stroke-miterlimit="10" d="M1360.751 257.694l-.623 14.899M1438.196 335.14l-14.899.622"/><g stroke-miterlimit="10"><circle stroke="#231F20" cx="1380.867" cy="286.636" r="6.255"/><path fill="none" stroke="#000" stroke-width="4" stroke-linecap="round" stroke-linejoin="round" d="M1388.946 296.179c.881-4.742-.511-9.822-4.179-13.489-3.666-3.667-8.745-5.058-13.487-4.177"/></g><g stroke-miterlimit="10"><circle stroke="#231F20" cx="1409.733" cy="315.502" r="6.255"/><path fill="none" stroke="#000" stroke-width="4" stroke-linecap="round" stroke-linejoin="round" d="M1417.812 325.045a15.12 15.12 0 00-4.179-13.489c-3.667-3.667-8.747-5.058-13.487-4.177"/></g><path fill="none" stroke="#000" stroke-width="4" stroke-linecap="round" stroke-linejoin="round" stroke-miterlimit="10" d="M1395.49 301.326l-6.439 6.44"/><path fill="#FFF" d="M1391.336 317.366a8.24 8.24 0 01-11.652-11.653"/><g><path fill="#2E9AFF" stroke="#FFF" stroke-width="4" stroke-miterlimit="10" d="M1280.259 520.377c-9.017 9.015-23.636 9.015-32.65 0l-71.946-71.948c-9.018-9.016-9.018-23.635 0-32.65h0c9.017-9.018 23.637-9.018 32.65 0l71.946 71.944c9.016 9.018 9.016 23.636 0 32.654h0z"/><text transform="rotate(45.001 69.49 1648.448)" fill="#FFF" font-family="'PTMono-Bold'" font-size="15.409">View Channel</text><g fill="none" stroke="#231F20" stroke-width="4" stroke-linecap="round" stroke-linejoin="round" stroke-miterlimit="10"><path d="M1252.108 325.845l121.404 121.402M1254.183 361.125l84.046 84.046M1225.128 365.276l108.95 108.95M1233.431 406.783l59.141 59.141"/></g><path fill="none" stroke="#231F20" stroke-width="4" stroke-linecap="round" stroke-linejoin="round" stroke-miterlimit="10" d="M1166.604 473.609l59.141 59.143M1162.66 502.457l34.236 34.238"/></g><text transform="rotate(45.001 245.959 1724.453)" fill="#231F20" font-family="'PTMono-Bold'" font-size="22.893">John Doe</text><path fill="#2E9AFF" stroke="#FFF" stroke-width="4" stroke-linecap="round" stroke-linejoin="round" stroke-miterlimit="10" d="M1495.604 149.611c14.095 14.093 14.095 36.942 0 51.036 14.095-14.093 36.942-14.093 51.035 0M1120.422 268.892c16.157-16.157 42.354-16.157 58.508 0-16.154-16.157-16.154-42.351 0-58.508M1427.98 576.451c16.155-16.157 16.155-42.353 0-58.507 16.155 16.154 42.352 16.154 58.509 0"/><circle fill="#2E9AFF" stroke="#FFF" stroke-width="4" stroke-linecap="round" stroke-linejoin="round" stroke-miterlimit="10" cx="1471.653" cy="136.187" r="9.831"/><circle fill="#2E9AFF" stroke="#FFF" stroke-width="4" stroke-linecap="round" stroke-linejoin="round" stroke-miterlimit="10" cx="1559.439" cy="223.975" r="9.832"/></g><g><path fill="none" stroke="#FFF" stroke-width="17.709" stroke-miterlimit="10" d="M699.305 742.869c5.681 11.422 1.024 25.283-10.396 30.962l-182.23 90.612c-11.42 5.678-25.282 1.021-30.961-10.397L279.07 458.569c-5.679-11.42-1.024-25.282 10.396-30.961l182.23-90.612c11.421-5.679 25.282-1.024 30.961 10.396l196.648 395.477z"/><path fill="#FFF" d="M443.355 342.244l5.373 24.095c1.358 6.104-2.107 13.375-7.707 16.159l-91.358 45.427c-5.599 2.785-13.49 1.161-17.535-3.606l-15.971-18.825"/><circle fill="#FFF" cx="434.392" cy="488.533" r="55.785"/><path fill="#2E9AFF" d="M471.12 455.317a16.41 16.41 0 00-1.633.934c-13.995-15.228-36.872-20.077-56.32-10.406-19.45 9.671-29.392 30.838-25.696 51.188-.581.212-1.16.455-1.727.736-8.187 4.07-11.523 14.008-7.453 22.193 4.071 8.188 14.007 11.522 22.193 7.452a16.579 16.579 0 003.392-2.243c14.079 11.711 34.29 14.728 51.742 6.048 17.452-8.678 27.247-26.61 26.406-44.904a16.49 16.49 0 003.836-1.354c8.186-4.07 11.521-14.005 7.452-22.191-4.071-8.186-14.006-11.523-22.192-7.453z"/><defs><path id="i" d="M471.12 455.317a16.41 16.41 0 00-1.633.934c-13.995-15.228-36.872-20.077-56.32-10.406-19.45 9.671-29.392 30.838-25.696 51.188-.581.212-1.16.455-1.727.736-8.187 4.07-11.523 14.008-7.453 22.193 4.071 8.188 14.007 11.522 22.193 7.452a16.579 16.579 0 003.392-2.243c14.079 11.711 34.29 14.728 51.742 6.048 17.452-8.678 27.247-26.61 26.406-44.904a16.49 16.49 0 003.836-1.354c8.186-4.07 11.521-14.005 7.452-22.191-4.071-8.186-14.006-11.523-22.192-7.453z"/></defs><clipPath id="j"><use xlink:href="#i" overflow="visible"/></clipPath><circle clip-path="url(#j)" stroke="#231F20" stroke-miterlimit="10" cx="373.662" cy="458.323" r="42.019"/><defs><path id="k" d="M471.12 455.317a16.41 16.41 0 00-1.633.934c-13.995-15.228-36.872-20.077-56.32-10.406-19.45 9.671-29.392 30.838-25.696 51.188-.581.212-1.16.455-1.727.736-8.187 4.07-11.523 14.008-7.453 22.193 4.071 8.188 14.007 11.522 22.193 7.452a16.579 16.579 0 003.392-2.243c14.079 11.711 34.29 14.728 51.742 6.048 17.452-8.678 27.247-26.61 26.406-44.904a16.49 16.49 0 003.836-1.354c8.186-4.07 11.521-14.005 7.452-22.191-4.071-8.186-14.006-11.523-22.192-7.453z"/></defs><clipPath id="l"><use xlink:href="#k" overflow="visible"/></clipPath><circle clip-path="url(#l)" stroke="#231F20" stroke-miterlimit="10" cx="447.637" cy="421.54" r="42.018"/><g><path fill="none" stroke="#000" stroke-width="3.542" stroke-miterlimit="10" d="M471.12 455.317a16.41 16.41 0 00-1.633.934c-13.995-15.228-36.872-20.077-56.32-10.406-19.45 9.671-29.392 30.838-25.696 51.188-.581.212-1.16.455-1.727.736-8.187 4.07-11.523 14.008-7.453 22.193 4.071 8.188 14.007 11.522 22.193 7.452a16.579 16.579 0 003.392-2.243c14.079 11.711 34.29 14.728 51.742 6.048 17.452-8.678 27.247-26.61 26.406-44.904a16.49 16.49 0 003.836-1.354c8.186-4.07 11.521-14.005 7.452-22.191-4.071-8.186-14.006-11.523-22.192-7.453z"/></g><path fill="none" stroke="#000" stroke-width="3.542" stroke-linecap="round" stroke-linejoin="round" stroke-miterlimit="10" d="M383.654 512.406l14.004 5.363M482.277 463.366l-4.175 14.404"/><g stroke-miterlimit="10"><circle stroke="#231F20" cx="417.685" cy="502.493" r="6.29"/><path fill="none" stroke="#000" stroke-width="3.542" stroke-linecap="round" stroke-linejoin="round" d="M429.368 497.846c-4.238-2.357-9.526-2.656-14.197-.336-4.67 2.322-7.622 6.719-8.299 11.522"/></g><g stroke-miterlimit="10"><circle stroke="#231F20" cx="454.443" cy="484.215" r="6.291"/><path fill="none" stroke="#000" stroke-width="3.542" stroke-linecap="round" stroke-linejoin="round" d="M466.128 479.567c-4.239-2.359-9.526-2.658-14.197-.336-4.67 2.32-7.622 6.719-8.301 11.521"/></g><path fill="none" stroke="#000" stroke-width="3.542" stroke-linecap="round" stroke-linejoin="round" stroke-miterlimit="10" d="M436.37 493.254l4.078 8.201"/><path fill="#FFF" d="M450.332 502.35a8.286 8.286 0 01-14.837 7.378"/><g><path fill="#2E9AFF" stroke="#FFF" stroke-width="3.148" stroke-miterlimit="10" d="M608.311 673.23c5.709 11.481 1.029 25.419-10.453 31.128l-91.618 45.557c-11.482 5.711-25.418 1.03-31.128-10.452h0c-5.709-11.482-1.03-25.42 10.451-31.129l91.62-45.557c11.481-5.709 25.419-1.029 31.128 10.453h0z"/><text transform="rotate(-26.437 1813.163 -687.067)" fill="#FFF" font-family="'PTMono-Bold'" font-size="15.496">View Channel</text><g fill="none" stroke="#231F20" stroke-width="3.542" stroke-linecap="round" stroke-linejoin="round" stroke-miterlimit="10"><path d="M413.845 637.794l154.6-76.873M448.145 647.108l107.027-53.217M442.799 676.138l138.744-68.99M485.027 681.511l75.314-37.449"/></g><path fill="none" stroke="#231F20" stroke-width="3.542" stroke-linecap="round" stroke-linejoin="round" stroke-miterlimit="10" d="M527.342 766.611l75.315-37.449M553.581 779.604l43.6-21.68"/></g><text transform="rotate(-26.437 1497.342 -617.533)" fill="#231F20" font-family="'PTMono-Bold'" font-size="23.022">John Doe</text></g><g><path fill="none" stroke="#231F20" stroke-width="4.236" stroke-miterlimit="10" d="M1431.42 709.808l-241.16 112.203.002.005c-31.887 14.985-45.587 53.146-30.596 85.366 14.99 32.219 53.005 46.317 85.006 31.578l.003.006 241.16-112.203"/><path fill="none" stroke="#231F20" stroke-width="4" stroke-miterlimit="10" d="M1662.887 744.62l8.809-4.099.002.003c15.341-7.065 33.56-.31 40.742 15.135 7.188 15.44.619 33.729-14.664 40.915l.002.002-132.969 61.865.006-.043-139.4 64.856-.003-.005"/><path fill="none" stroke="#231F20" stroke-width="4" stroke-miterlimit="10" d="M1607.652 628.131l9.66-4.494.002.002c15.338-7.062 33.559-.307 40.74 15.137l54.169 116.474"/><g stroke="#FFF" stroke-width="4" stroke-miterlimit="10"><path fill="#2E9AFF" d="M1640.127 774.826l-118.766 55.258c-16.023 7.455-35.059.509-42.514-15.515l12.655 27.197c7.455 16.023 26.487 22.972 42.512 15.517l118.767-55.258c16.021-7.454 22.971-26.488 15.515-42.514l-12.654-27.197c7.456 16.024.506 35.058-15.515 42.512z"/><path fill="none" d="M1557.872 598.035l-118.765 55.257c-16.024 7.455-22.972 26.488-15.517 42.512l12.655 27.199 42.602 91.566c7.455 16.021 26.488 22.97 42.515 15.515l118.765-55.258c16.021-7.454 22.971-26.488 15.516-42.512l-42.604-91.566-12.654-27.199c-7.455-16.024-26.49-22.969-42.513-15.514z"/></g><circle fill="#FFF" cx="1554.207" cy="703.381" r="55.785"/><path fill="#2E9AFF" d="M1586.546 740.883a16.323 16.323 0 00-.896-1.651c15.555-13.634 20.941-36.39 11.732-56.062s-30.137-30.111-50.566-26.897a16.334 16.334 0 00-.696-1.742c-3.874-8.281-13.729-11.853-22.011-7.977-8.28 3.877-11.852 13.731-7.977 22.013a16.655 16.655 0 002.163 3.442c-12.039 13.798-15.53 33.935-7.267 51.585 8.264 17.651 25.96 27.867 44.269 27.459.257 1.31.673 2.605 1.263 3.867 3.877 8.279 13.729 11.85 22.01 7.975 8.282-3.877 11.852-13.731 7.976-22.012z"/><defs><path id="m" d="M1586.546 740.883a16.323 16.323 0 00-.896-1.651c15.555-13.634 20.941-36.39 11.732-56.062s-30.137-30.111-50.566-26.897a16.334 16.334 0 00-.696-1.742c-3.874-8.281-13.729-11.853-22.011-7.977-8.28 3.877-11.852 13.731-7.977 22.013a16.655 16.655 0 002.163 3.442c-12.039 13.798-15.53 33.935-7.267 51.585 8.264 17.651 25.96 27.867 44.269 27.459.257 1.31.673 2.605 1.263 3.867 3.877 8.279 13.729 11.85 22.01 7.975 8.282-3.877 11.852-13.731 7.976-22.012z"/></defs><clipPath id="n"><use xlink:href="#m" overflow="visible"/></clipPath><circle clip-path="url(#n)" stroke="#231F20" stroke-miterlimit="10" cx="1585.842" cy="643.382" r="42.019"/><defs><path id="o" d="M1586.546 740.883a16.323 16.323 0 00-.896-1.651c15.555-13.634 20.941-36.39 11.732-56.062s-30.137-30.111-50.566-26.897a16.334 16.334 0 00-.696-1.742c-3.874-8.281-13.729-11.853-22.011-7.977-8.28 3.877-11.852 13.731-7.977 22.013a16.655 16.655 0 002.163 3.442c-12.039 13.798-15.53 33.935-7.267 51.585 8.264 17.651 25.96 27.867 44.269 27.459.257 1.31.673 2.605 1.263 3.867 3.877 8.279 13.729 11.85 22.01 7.975 8.282-3.877 11.852-13.731 7.976-22.012z"/></defs><clipPath id="p"><use xlink:href="#o" overflow="visible"/></clipPath><circle clip-path="url(#p)" stroke="#231F20" stroke-miterlimit="10" cx="1620.869" cy="718.205" r="42.018"/><g><path fill="none" stroke="#000" stroke-width="3.542" stroke-miterlimit="10" d="M1586.546 740.883a16.323 16.323 0 00-.896-1.651c15.555-13.634 20.941-36.39 11.732-56.062s-30.137-30.111-50.566-26.897a16.334 16.334 0 00-.696-1.742c-3.874-8.281-13.729-11.853-22.011-7.977-8.28 3.877-11.852 13.731-7.977 22.013a16.655 16.655 0 002.163 3.442c-12.039 13.798-15.53 33.935-7.267 51.585 8.264 17.651 25.96 27.867 44.269 27.459.257 1.31.673 2.605 1.263 3.867 3.877 8.279 13.729 11.85 22.01 7.975 8.282-3.877 11.852-13.731 7.976-22.012z"/></g><path fill="none" stroke="#000" stroke-width="3.542" stroke-linecap="round" stroke-linejoin="round" stroke-miterlimit="10" d="M1531.539 652.093l-5.691 13.876M1578.237 751.848l-14.301-4.515"/><g stroke-miterlimit="10"><path stroke="#231F20" d="M1543.312 692.047a6.29 6.29 0 01-5.332-11.392 6.283 6.283 0 018.36 3.029 6.29 6.29 0 01-3.028 8.363z"/><path fill="none" stroke="#000" stroke-width="3.542" stroke-linecap="round" stroke-linejoin="round" d="M1545.016 698.14c2.459-4.182 2.883-9.461.672-14.185-2.211-4.725-6.537-7.779-11.321-8.57"/></g><g stroke-miterlimit="10"><circle stroke="#231F20" cx="1558.051" cy="723.529" r="6.291"/><path fill="none" stroke="#000" stroke-width="3.542" stroke-linecap="round" stroke-linejoin="round" d="M1562.42 735.32c2.46-4.185 2.885-9.461.673-14.188-2.213-4.723-6.538-7.776-11.325-8.568"/></g><path fill="none" stroke="#000" stroke-width="3.542" stroke-linecap="round" stroke-linejoin="round" stroke-miterlimit="10" d="M1549.439 705.247l-8.293 3.884"/><path fill="#FFF" d="M1540.018 718.991A8.291 8.291 0 011529 715a8.29 8.29 0 013.991-11.02"/><text transform="rotate(64.647 180.116 1495.938)" fill="#231F20" font-family="'PTMono-Bold'" font-size="23.022">John Doe</text><path fill="none" stroke="#231F20" stroke-width="4" stroke-miterlimit="10" d="M1328.462 899.976l20.249 43.521c3.261 7.01 11.589 10.049 18.6 6.787l75.856-35.293c7.01-3.264 10.049-11.59 6.788-18.602l-20.249-43.52-101.244 47.107zm105.289-.091l-71.627 33.326-18.562-39.894 71.627-33.325 18.562 39.893z"/><path fill="none" stroke="#231F20" stroke-width="3.8400384" stroke-miterlimit="10" d="M1371.052 880.728l15.111-7.03 18.526 39.822-15.111 7.03z"/><circle fill="none" stroke="#FFF" stroke-width="3.84" stroke-miterlimit="10" cx="1254.355" cy="865.153" r="11.5"/><circle fill="none" stroke="#FFF" stroke-width="3.84" stroke-miterlimit="10" cx="1325.075" cy="832.25" r="11.5"/><circle fill="none" stroke="#FFF" stroke-width="3.84" stroke-miterlimit="10" cx="1395.796" cy="799.346" r="11.5"/></g></svg>