<svg xmlns="http://www.w3.org/2000/svg" width="1920" height="1080" xml:space="preserve"><path d="M654.72 250.46a9.14 9.14 0 0 0 0 18.25 9.14 9.14 0 0 0 0-18.25z"/><path fill="#231F20" d="M654.72 269.21a9.64 9.64 0 0 1 0-19.25 9.64 9.64 0 0 1 0 19.25zm0-18.25a8.64 8.64 0 0 0 0 17.25 8.64 8.64 0 0 0 0-17.25z"/><path d="M1320.32 216.7H571.98a29.2 29.2 0 0 0-29.2 29.2v182.18l141.75 285.07h635.79a29.2 29.2 0 0 0 29.2-29.2V245.9a29.2 29.2 0 0 0-29.2-29.2zm-665.6 55.66a12.79 12.79 0 0 1 0-25.55 12.79 12.79 0 0 1 0 25.55z"/><path fill="#231F20" d="M1320.32 713.65h-636.1l-.14-.27-141.8-285.19V245.9a29.74 29.74 0 0 1 29.7-29.7h748.34a29.5 29.5 0 0 1 21 8.7 29.5 29.5 0 0 1 8.7 21v438.06a29.74 29.74 0 0 1-29.7 29.7zm-635.48-1h635.48a28.73 28.73 0 0 0 28.7-28.7V245.9c0-7.67-2.98-14.88-8.4-20.3s-12.64-8.4-20.3-8.4H571.98a28.73 28.73 0 0 0-28.7 28.7v182.06l141.56 284.7zm-30.12-439.79a13.29 13.29 0 0 1-13.27-13.27c0-7.32 5.95-13.28 13.27-13.28a13.3 13.3 0 0 1 9.38 22.66 13.18 13.18 0 0 1-9.38 3.9zm0-25.55a12.29 12.29 0 0 0 0 24.55 12.2 12.2 0 0 0 8.68-3.6 12.3 12.3 0 0 0-8.68-20.95z"/><circle fill="#FFF" cx="722.57" cy="411.53" r="95.14"/><path d="M722.57 508.67c-53.56 0-97.14-43.57-97.14-97.14 0-53.56 43.57-97.14 97.14-97.14 53.56 0 97.14 43.58 97.14 97.14 0 53.57-43.58 97.14-97.14 97.14zm0-190.28c-51.36 0-93.14 41.78-93.14 93.14s41.78 93.15 93.14 93.15 93.14-41.79 93.14-93.15c0-51.36-41.78-93.14-93.14-93.14z"/><path fill="#2E9AFF" d="M803.88 388.7c-1.08 0-2.15.06-3.2.19a81.34 81.34 0 0 0-156.22 0 28.23 28.23 0 1 0 3.69 55.42 81.32 81.32 0 0 0 148.85 0 28.23 28.23 0 1 0 6.88-55.6z"/><path fill="none" d="M803.88 388.7c-1.08 0-2.15.06-3.2.19a81.33 81.33 0 0 0-76.58-58.63c-5.3 34.6-35.27 61.18-71.33 61.18-6 0-11.81-.74-17.38-2.12a28.23 28.23 0 1 0 12.76 54.99 81.32 81.32 0 0 0 148.85 0 28.23 28.23 0 1 0 6.88-55.6z"/><path d="M723.09 331.23h-.51a81.34 81.34 0 0 0-78.12 58.65 28.37 28.37 0 0 0-6.46.01 71.08 71.08 0 0 0 14.77 1.55c35.51 0 65.03-26.15 70.32-60.2z"/><path d="M792.82 391.44c5.06 0 10-.54 14.76-1.55a28.38 28.38 0 0 0-6.46 0 81.34 81.34 0 0 0-78.1-58.67l-.52.01c5.28 34.06 34.8 60.21 70.32 60.21z"/><path d="M722.58 494.84A83.38 83.38 0 0 1 647 446.6a30.26 30.26 0 0 1-35.96-29.68 30.26 30.26 0 0 1 31.98-30.18c10.75-34.54 43.22-58.53 79.56-58.53 36.32 0 68.8 23.99 79.55 58.53a30.27 30.27 0 0 1 31.99 30.18 30.26 30.26 0 0 1-35.97 29.68 83.4 83.4 0 0 1-75.57 48.23zm-73.28-52.88.68 1.54a79.38 79.38 0 0 0 72.6 47.34 79.39 79.39 0 0 0 72.6-47.34l.67-1.54 1.64.4a26.26 26.26 0 0 0 32.63-25.44 26.26 26.26 0 0 0-29.21-26.05l-1.68.2-.47-1.63c-9.75-33.69-41.08-57.22-76.19-57.22-35.1 0-66.44 23.53-76.19 57.22l-.47 1.62-1.67-.19a26.26 26.26 0 0 0-29.2 26.06 26.26 26.26 0 0 0 32.62 25.44l1.64-.41z"/><path d="M644.27 430.29a2 2 0 0 1-1.47-.65l-17.32-18.82a2 2 0 0 1 2.95-2.71l17.31 18.82a2 2 0 0 1-1.47 3.36zm153.23 0a2 2 0 0 1-1.47-3.35l17.3-18.83a2 2 0 0 1 2.95 2.7l-17.31 18.83a2 2 0 0 1-1.48.65zm-100.32-10.12a10.73 10.73 0 1 1-21.46 0 10.73 10.73 0 0 1 21.46 0z"/><path fill="#231F20" d="M686.46 431.4a11.24 11.24 0 0 1 0-22.46 11.24 11.24 0 0 1 0 22.46zm0-21.46a10.24 10.24 0 0 0 0 20.45 10.24 10.24 0 0 0 0-20.45z"/><path d="M707.83 423.94a2 2 0 0 1-1.65-.87 23.98 23.98 0 0 0-39.55 0 2 2 0 1 1-3.3-2.26 27.99 27.99 0 0 1 46.14 0 2 2 0 0 1-1.64 3.13z"/><circle cx="756.47" cy="420.17" r="10.73"/><path fill="#231F20" d="M756.47 431.4c-6.19 0-11.23-5.04-11.23-11.23s5.04-11.23 11.23-11.23a11.24 11.24 0 0 1 0 22.45zm0-21.46a10.24 10.24 0 1 0 10.23 10.23c0-5.64-4.59-10.23-10.23-10.23z"/><path d="M734.99 423.94a2 2 0 0 1-1.65-3.13 28 28 0 0 1 46.15 0 2 2 0 1 1-3.3 2.26 23.98 23.98 0 0 0-39.55 0c-.39.57-1.01.87-1.65.87zM722 437.87a2 2 0 0 1-2-2v-15.62a2 2 0 0 1 4 0v15.62a2 2 0 0 1-2 2z"/><path fill="#FFF" d="M736.42 444.74a14.13 14.13 0 0 1-28.26 0"/><path fill="#FFF" d="M1310.49 693.7H676.33v-4h634.16c8.96 0 16.25-7.3 16.25-16.26V256.4c0-8.96-7.29-16.25-16.25-16.25H581.81c-8.96 0-16.25 7.3-16.25 16.25V467h-4V256.4a20.28 20.28 0 0 1 20.25-20.25h728.68a20.27 20.27 0 0 1 20.25 20.25v417.05a20.28 20.28 0 0 1-20.25 20.25z"/><path fill="#FFF" d="M564.85 278.18h763.82v4H564.85zm671.5 118.49H871.23a2 2 0 0 1 0-4h365.12a2 2 0 0 1 0 4zM1124 429.23H871.23a2 2 0 0 1 0-4H1124a2 2 0 0 1 0 4zm74.9 32.57H871.22a2 2 0 0 1 0-4h327.69a2 2 0 1 1 0 4zm-149.8 32.56H871.23a2 2 0 0 1 0-4h177.87a2 2 0 0 1 0 4zM874.15 335.47h13.27v14.16c0 1.2-.16 2.34-.46 3.4a6.65 6.65 0 0 1-3.3 4.02 8.5 8.5 0 0 1-3.26.96 12.96 12.96 0 0 1-4.16-.27 10.1 10.1 0 0 1-2.86-1.2l1.56-3.49c.8.47 1.5.78 2.08.92.58.15 1.25.23 2.02.23.46 0 .97-.1 1.5-.27a3.4 3.4 0 0 0 1.42-.9 4.8 4.8 0 0 0 1.11-3.37v-10.32h-8.92v-3.87zm17.24 14.28c0-1.33.2-2.52.6-3.55a7.3 7.3 0 0 1 1.72-2.64 7.32 7.32 0 0 1 2.65-1.64 10.1 10.1 0 0 1 3.44-.55c1.33 0 2.53.2 3.57.6a7.13 7.13 0 0 1 4.29 4.35c.37 1.04.56 2.18.56 3.43 0 1.33-.2 2.52-.6 3.56a7.35 7.35 0 0 1-1.72 2.63c-.74.72-1.63 1.27-2.65 1.64s-2.18.56-3.45.56a9.9 9.9 0 0 1-3.57-.6 7.12 7.12 0 0 1-4.28-4.35 10.1 10.1 0 0 1-.56-3.44zm4.25 0c0 .7.1 1.35.29 1.94.19.6.47 1.11.82 1.56a3.72 3.72 0 0 0 3.05 1.4c1.23 0 2.23-.4 3-1.18.77-.79 1.16-2.02 1.16-3.72a5.5 5.5 0 0 0-1.08-3.54 3.72 3.72 0 0 0-3.08-1.35c-.6 0-1.14.1-1.65.27-.5.18-.95.48-1.32.88-.37.4-.66.9-.87 1.52a6.86 6.86 0 0 0-.32 2.22zm13.69-14.28h6.41v8.12h.13a5.35 5.35 0 0 1 2.03-1.61c.85-.4 1.84-.6 2.98-.6.8 0 1.55.1 2.23.3a4.2 4.2 0 0 1 1.74 1.06c.49.48.87 1.14 1.15 1.98.27.83.41 1.87.41 3.1v9.87h-4.13v-9.02c0-1.29-.27-2.22-.82-2.8s-1.27-.85-2.16-.85a3.88 3.88 0 0 0-3.55 2.54v10.13h-4.13v-18.73h-2.29v-3.5zm19.43 6.34h5.56l.47 2.1h.13a6.3 6.3 0 0 1 2.1-1.78c.9-.5 2-.76 3.27-.76.78 0 1.52.1 2.2.32.7.21 1.28.56 1.77 1.05.48.48.87 1.14 1.15 1.98.3.83.43 1.87.43 3.1v9.87h-4.12v-9.02c0-1.29-.3-2.22-.88-2.8a3.02 3.02 0 0 0-2.2-.85c-.79 0-1.5.23-2.15.69a3.41 3.41 0 0 0-1.32 1.7v10.28h-4.12v-12.38h-2.29v-3.5zm39.31-6.34a55.14 55.14 0 0 1 6.22-.32c1.97 0 3.6.28 4.89.86a7.54 7.54 0 0 1 3.06 2.36 9.1 9.1 0 0 1 1.57 3.56 21 21 0 0 1 .44 4.46c0 1.46-.14 2.89-.44 4.29a9.91 9.91 0 0 1-1.6 3.73 8.28 8.28 0 0 1-3.21 2.63c-1.36.67-3.12 1-5.25 1l-1.3-.03a97.69 97.69 0 0 1-4.39-.29v-22.25zm6.38 3.55c-.4 0-.8.02-1.18.05l-.85.08v14.89a57.8 57.8 0 0 0 .9.08l.52.03.41.02c1.23 0 2.21-.23 2.94-.69s1.28-1.05 1.64-1.79c.36-.74.6-1.58.7-2.51a25.12 25.12 0 0 0 .01-5.3 7.27 7.27 0 0 0-.67-2.38 4.46 4.46 0 0 0-1.57-1.78 5.1 5.1 0 0 0-2.85-.7zm12.19 10.73c0-1.33.2-2.52.6-3.55a7.3 7.3 0 0 1 1.72-2.64 7.3 7.3 0 0 1 2.65-1.64 10.1 10.1 0 0 1 3.44-.55c1.34 0 2.53.2 3.58.6a7.12 7.12 0 0 1 4.29 4.35c.36 1.04.55 2.18.55 3.43 0 1.33-.2 2.52-.6 3.56a7.36 7.36 0 0 1-1.72 2.63 7.3 7.3 0 0 1-2.65 1.64c-1.03.37-2.18.56-3.45.56-1.33 0-2.52-.2-3.57-.6a7.12 7.12 0 0 1-4.29-4.35 10.14 10.14 0 0 1-.55-3.44zm4.26 0c0 .7.1 1.35.28 1.94.19.6.47 1.11.82 1.56a3.74 3.74 0 0 0 3.05 1.4c1.23 0 2.23-.4 3-1.18.78-.79 1.16-2.02 1.16-3.72a5.5 5.5 0 0 0-1.08-3.54 3.72 3.72 0 0 0-3.08-1.35c-.59 0-1.14.1-1.65.27-.5.18-.94.48-1.31.88-.37.4-.67.9-.88 1.52a6.83 6.83 0 0 0-.31 2.22zm30.63 6.25c-.27.26-.63.51-1.06.76a10.68 10.68 0 0 1-3.44 1.19 12.44 12.44 0 0 1-5.86-.38 7.34 7.34 0 0 1-2.72-1.67 7.28 7.28 0 0 1-1.7-2.64 9.76 9.76 0 0 1-.58-3.5c0-1.4.22-2.63.66-3.67a7.33 7.33 0 0 1 4.55-4.2 10.4 10.4 0 0 1 5.85-.2c.86.21 1.65.58 2.37 1.1.72.52 1.3 1.2 1.76 2.08.45.86.68 1.96.68 3.3 0 .9-.1 1.9-.31 2.95h-11.43a3.34 3.34 0 0 0 1.47 2.86c.44.3.94.52 1.5.65.56.14 1.15.2 1.79.2 1.27 0 2.31-.14 3.13-.44a6.6 6.6 0 0 0 1.98-1.08l1.37 2.7zm-6.85-11.33a5.3 5.3 0 0 0-1.56.23c-.49.15-.93.37-1.32.67a3.56 3.56 0 0 0-1.41 2.53h7.81c0-1.05-.29-1.9-.87-2.5-.58-.62-1.47-.93-2.65-.93zM587.8 272.54a12.97 12.97 0 0 1 0-25.91 12.96 12.96 0 0 1 0 25.9zm0-21.9a8.96 8.96 0 0 0 0 17.9 8.96 8.96 0 0 0 0-17.9z"/><path fill="#2E9AFF" d="M621.26 272.54a12.97 12.97 0 0 1 0-25.91 12.95 12.95 0 0 1 0 25.91zm0-21.9a8.96 8.96 0 0 0 0 17.9 8.96 8.96 0 0 0 0-17.9z"/><path fill="#FFF" d="M962.08 596.85H634.4a2 2 0 0 1 0-4h327.68a2 2 0 0 1 0 4zm-149.81 32.57H634.4a2 2 0 0 1 0-4h177.87a2 2 0 0 1 0 4z"/><circle fill="#2E9AFF" cx="1539.2" cy="158.71" r="35.22"/><path fill="#FFF" d="M1539.2 195.93c-20.52 0-37.22-16.7-37.22-37.22s16.7-37.22 37.22-37.22c20.53 0 37.22 16.7 37.22 37.22s-16.7 37.22-37.22 37.22zm0-70.45a33.26 33.26 0 0 0-33.22 33.22 33.26 33.26 0 0 0 33.22 33.22 33.26 33.26 0 0 0 33.22-33.22 33.26 33.26 0 0 0-33.22-33.21z"/><path fill="#2E9AFF" d="M1524.57 171.87a61.01 61.01 0 0 0-3.69-60.93 61 61 0 0 0-50.93 33.66"/><path fill="#FFF" d="m1526.36 172.77-3.58-1.79a59.27 59.27 0 0 0-2.94-57.96 59.27 59.27 0 0 0-48.1 32.47l-3.58-1.79a63.27 63.27 0 0 1 52.6-34.75l1.15-.07.64.96a63.28 63.28 0 0 1 3.8 62.93z"/><path fill="#FFF" d="m1519.12 110.04 3.58 1.79-23.86 47.79-3.58-1.8z"/><path fill="#2E9AFF" d="M1525.4 172.7a61.01 61.01 0 0 1 60.92 3.68 61 61 0 0 1-33.65 50.93"/><path fill="#FFF" d="m1553.56 229.1-1.79-3.58a59.26 59.26 0 0 0 32.47-48.1 59.27 59.27 0 0 0-57.96-2.94l-1.78-3.57a63.28 63.28 0 0 1 62.92 3.8l.97.64-.07 1.16a63.27 63.27 0 0 1-34.76 52.59z"/><path fill="#FFF" d="m1585.37 174.57 1.79 3.58-47.78 23.86-1.8-3.58z"/><circle fill="#2E9AFF" cx="1166.17" cy="256.13" r="49.31"/><path fill="#FFF" d="M1166.17 307.44c-28.3 0-51.3-23.02-51.3-51.3s23-51.32 51.3-51.32 51.3 23.02 51.3 51.31-23.01 51.31-51.3 51.31zm0-98.62c-26.09 0-47.3 21.23-47.3 47.31s21.21 47.31 47.3 47.31 47.3-21.22 47.3-47.3-21.21-47.31-47.3-47.31z"/><circle fill="#2E9AFF" cx="1440.12" cy="530.08" r="49.31"/><path fill="#FFF" d="M1440.12 581.39c-28.3 0-51.31-23.02-51.31-51.31s23.02-51.3 51.3-51.3c28.3 0 51.32 23 51.32 51.3s-23.02 51.3-51.31 51.3zm0-98.62c-26.09 0-47.31 21.22-47.31 47.31s21.22 47.3 47.3 47.3 47.32-21.21 47.32-47.3a47.36 47.36 0 0 0-47.31-47.3z"/><ellipse transform="rotate(-45 1303.65 393.62)" fill="#2E9AFF" cx="1303.64" cy="393.6" rx="313.04" ry="219.68"/><path fill="#FFF" d="M1211.45 666.06c-52.93 0-98.08-17.18-130.58-49.67-41.96-41.97-58.14-104.63-45.56-176.44 12.54-71.55 52.17-143.67 111.58-203.08 72.44-72.45 165.5-115.7 248.94-115.7 52.93 0 98.08 17.18 130.58 49.68 41.96 41.97 58.14 104.62 45.56 176.43-12.54 71.55-52.17 143.67-111.58 203.09-72.44 72.44-165.5 115.7-248.94 115.7zm184.38-540.88c-82.4 0-174.4 42.81-246.11 114.52-121.28 121.27-150.9 288.99-66.02 373.86 31.73 31.73 75.9 48.5 127.75 48.5 82.4 0 174.4-42.8 246.11-114.52 58.84-58.84 98.07-130.2 110.47-200.95 12.35-70.48-3.44-131.9-44.45-172.91-31.73-31.73-75.9-48.5-127.75-48.5z"/><ellipse transform="rotate(-45 1303.65 393.62)" fill="#FFF" cx="1303.65" cy="393.6" rx="263.85" ry="177.41"/><path fill="#2E9AFF" d="M856.65 928.7c82.02-96.02 208.21-229.75 261.98-292.7h-.01a41.41 41.41 0 0 0-58.38-58.37v-.01C997.3 631.39 863.57 757.58 767.56 839.6a63.21 63.21 0 1 0 89.1 89.1z"/><path fill="#FFF" d="M808.44 953.02a64.78 64.78 0 0 1-46.1-19.1 65.29 65.29 0 0 1 3.92-95.85c53.05-45.31 118.06-104.53 175.42-156.77 45.81-41.73 89.09-81.14 117.26-105.2l1.68-1.44.03.06a43.42 43.42 0 0 1 57.19 3.68 43.61 43.61 0 0 1 3.56 57.36l.03.03-1.28 1.5c-24.08 28.2-63.53 71.52-105.3 117.38C962.64 812 903.46 876.97 858.17 930a64.78 64.78 0 0 1-49.73 23.03zm251.42-372.45c-28.15 24.14-70.6 62.8-115.49 103.69-57.38 52.26-122.42 111.5-175.51 156.86a61.28 61.28 0 0 0-3.7 89.97 60.8 60.8 0 0 0 43.28 17.93 60.8 60.8 0 0 0 46.68-21.62c45.34-53.07 104.54-118.07 156.77-175.42 41-45.03 79.78-87.6 103.93-115.77l1.28-1.52a39.58 39.58 0 0 0-2.1-53.46 39.13 39.13 0 0 0-27.85-11.54 39.4 39.4 0 0 0-25.6 9.45l-1.68 1.44v-.01z"/><path fill="#2E9AFF" d="m839.07 915.68.1-.1.04-.04 264.85-291.02a22.9 22.9 0 0 0-32.33-32.34L780.7 857.04l-.03.03-.12.1c-.47.45-.94.89-1.4 1.35a41.41 41.41 0 1 0 59.91 57.16z"/><path fill="#FFF" d="M808.44 931.22c-11.6 0-22.5-4.52-30.7-12.72a43.47 43.47 0 0 1 .38-61.76v-.02l1.25-1.16 264.12-240.38 26.9-24.48a24.82 24.82 0 0 1 16.75-6.48c6.65 0 12.9 2.59 17.6 7.29a24.85 24.85 0 0 1 .8 34.35l-207 227.45-57.9 63.62-2.14 2.44-.07-.17a43.12 43.12 0 0 1-30 12.02zm-25.52-73.49-1 .92a39.46 39.46 0 0 0-1.34 57.02 39.16 39.16 0 0 0 27.86 11.55 39.17 39.17 0 0 0 29.15-12.89l2.16-2.37v.01l64.92-71.34 197.92-217.46a20.85 20.85 0 0 0-.68-28.84 20.75 20.75 0 0 0-14.77-6.11 20.84 20.84 0 0 0-14.06 5.44L782.92 857.73z"/><path fill="#2E9AFF" d="M897.89 849.4a36.09 36.09 0 0 1 0-51.04 36.09 36.09 0 0 1-51.04 0"/><path fill="#FFF" d="M897.89 851.4a2 2 0 0 1-1.42-.6 38.16 38.16 0 0 1-7.2-43.82 38.16 38.16 0 0 1-43.83-7.2 2 2 0 0 1 2.83-2.83 34.13 34.13 0 0 0 48.2 0 2 2 0 1 1 2.83 2.82 34.13 34.13 0 0 0 0 48.21 2 2 0 0 1-1.41 3.42z"/><path fill="#2E9AFF" d="M996.17 661.6a27.2 27.2 0 0 1 0 38.48 27.21 27.21 0 0 1 38.48 0"/><path fill="#FFF" d="M996.17 702.08a2 2 0 0 1-1.41-3.42c4.76-4.76 7.38-11.09 7.38-17.82s-2.62-13.07-7.38-17.83a2 2 0 0 1 2.83-2.83 29.02 29.02 0 0 1 8.55 20.66c0 4.1-.84 8.07-2.43 11.72a29.26 29.26 0 0 1 32.36 6.1 2 2 0 0 1-2.83 2.83 25.24 25.24 0 0 0-35.66 0 2 2 0 0 1-1.4.59z"/><path fill="#2E9AFF" d="M800.66 842.71a37.39 37.39 0 0 1 0 52.88 37.4 37.4 0 0 1 52.88 0"/><path fill="#FFF" d="M853.54 897.6c-.51 0-1.02-.2-1.41-.6a35.44 35.44 0 0 0-50.06 0 2 2 0 0 1-2.83-2.82c6.69-6.69 10.37-15.57 10.37-25.02s-3.68-18.35-10.37-25.03a2 2 0 1 1 2.83-2.83 39.14 39.14 0 0 1 11.54 27.86c0 6.23-1.44 12.24-4.16 17.65a39.46 39.46 0 0 1 45.5 7.37 2 2 0 0 1-1.41 3.41z"/><circle fill="#2E9AFF" cx="895.37" cy="800.88" r="9.83"/><path fill="#FFF" d="M895.37 812.7c-6.52 0-11.83-5.3-11.83-11.82a11.84 11.84 0 1 1 11.83 11.83zm0-19.66a7.84 7.84 0 0 0 0 15.67 7.84 7.84 0 0 0 0-15.67z"/><circle fill="#2E9AFF" cx="995.92" cy="700.33" r="9.83"/><path fill="#FFF" d="M995.92 712.16a11.85 11.85 0 0 1-11.83-11.83 11.84 11.84 0 1 1 11.83 11.83zm0-19.67a7.84 7.84 0 0 0 0 15.67 7.84 7.84 0 0 0 0-15.67z"/><circle fill="#2E9AFF" cx="801.08" cy="895.28" r="9.83"/><path fill="#FFF" d="M801.08 907.1a11.85 11.85 0 0 1-11.83-11.82c0-6.53 5.3-11.84 11.83-11.84a11.85 11.85 0 0 1 0 23.66zm0-19.66a7.84 7.84 0 0 0 0 15.67 7.84 7.84 0 0 0 0-15.67zm101.62-91.89a2 2 0 0 1-1.41-3.41l85.27-85.28a2 2 0 1 1 2.83 2.83l-85.28 85.28a2 2 0 0 1-1.41.58z"/><circle fill="#FFF" cx="1399.31" cy="297.97" r="55.47"/><path fill="#231F20" d="M1399.31 355.44a57.54 57.54 0 0 1-57.47-57.48 57.54 57.54 0 0 1 57.47-57.47 57.54 57.54 0 0 1 57.48 57.47 57.54 57.54 0 0 1-57.48 57.48zm0-110.94a53.53 53.53 0 0 0-53.47 53.47 53.54 53.54 0 0 0 53.47 53.47 53.54 53.54 0 0 0 53.48-53.47 53.53 53.53 0 0 0-53.48-53.48z"/><path fill="#2E9AFF" d="M1424.38 289.25c0-8.05 2.26-15.58 6.18-22a42.19 42.19 0 0 1-54.05-8.58l-.56.32-1.06-1.31a14.36 14.36 0 0 0-11.32-5.47c-3.87 0-7.5 1.5-10.23 4.24a14.37 14.37 0 0 0-4.24 10.22 14.38 14.38 0 0 0 7.04 12.41l1.45.87-.61 1.57a45.46 45.46 0 0 0 10.23 48.55 45.1 45.1 0 0 0 32.1 13.3c5.66 0 11.2-1.03 16.45-3.07l1.57-.6.87 1.44a14.52 14.52 0 0 0 12.4 7.04c3.87 0 7.5-1.5 10.23-4.24a14.37 14.37 0 0 0 4.24-10.23 14.36 14.36 0 0 0-5.46-11.31l-1.32-1.06.29-.52a42.18 42.18 0 0 1-14.2-31.57z"/><path fill="#2E9AFF" d="M1408.57 273.44c8.05 0 15.58-2.26 21.99-6.18l.62-.98a41.56 41.56 0 0 1-22.61 6.66 41.65 41.65 0 0 1-31.62-14.5l-.44.24a42.2 42.2 0 0 0 32.06 14.76z"/><path d="M1408.57 272.44c8.35 0 16.13-2.5 22.63-6.78a45.1 45.1 0 0 0-31.89-13.1 45.5 45.5 0 0 0-21.9 5.62 41.2 41.2 0 0 0 31.16 14.26z"/><path d="M1408.57 272.94a41.5 41.5 0 0 0 22.61-6.66c.1-.13.17-.27.26-.4a.1.1 0 0 1-.02-.02l-.22-.2a41.19 41.19 0 0 1-53.8-7.47l-.45.24a41.65 41.65 0 0 0 31.62 14.5zm30.5 46.99.03-.06a45.61 45.61 0 0 0-6.95-53.25 41.18 41.18 0 0 0 6.92 53.3z"/><path fill="#231F20" d="M1424.88 289.25c0-8.34 2.45-16.1 6.65-22.62-.32.21-.64.43-.97.63a42.18 42.18 0 0 0 8.02 53.57l.24-.46a41.64 41.64 0 0 1-13.94-31.12z"/><path fill="#231F20" d="m1431.58 266.02-.4.26-.62.98c.33-.2.65-.42.97-.63l.26-.38-.21-.23z"/><path fill="#231F20" d="m1431.44 265.88-.26.4.4-.26-.14-.14zm.09.75a41.56 41.56 0 0 0-6.65 22.62c0 12.37 5.4 23.47 13.95 31.12l.24-.44a41.18 41.18 0 0 1-6.92-53.3l-.23-.25-.39.25z"/><path fill="#231F20" d="m1431.79 266.25-.26.38.4-.25-.14-.13z"/><path d="M1354.38 253.02c.18-.13.37-.23.55-.35l-.55.35zm-1.26.94.43-.33c-.14.1-.3.2-.43.33zm3.94-2.4zm-1.36.66c.2-.12.42-.22.64-.32-.22.1-.43.2-.64.32zm89.34 73.58zm-86.58-74.77zm1.4-.38zm85.84 76.51zm-84.46-76.76zm85.66 81.05c.04.3.08.6.1.9-.02-.3-.06-.6-.1-.9z"/><path d="m1443.67 320.66-.3-.3a49.65 49.65 0 0 0-9.12-57.33 49.08 49.08 0 0 0-34.94-14.47c-7.79 0-15.5 1.85-22.4 5.36l-.3-.3a18.34 18.34 0 0 0-13.04-5.41c-4.94 0-9.57 1.92-13.06 5.4a18.35 18.35 0 0 0-5.4 13.06 18.36 18.36 0 0 0 7.58 14.92 49.45 49.45 0 0 0 11.69 51.31 49.07 49.07 0 0 0 34.93 14.47c5.62 0 11.12-.94 16.38-2.78a18.48 18.48 0 0 0 14.92 7.58c4.93 0 9.56-1.92 13.05-5.4a18.33 18.33 0 0 0 5.41-13.06c0-4.93-1.92-9.56-5.4-13.05zm3.33 14.55c-.02.23-.06.46-.1.69l-.1.8-.15.66c-.07.27-.12.54-.2.8l-.2.65a18.8 18.8 0 0 1-.9 2.2l-.3.58c-.14.27-.3.54-.47.8a16.98 16.98 0 0 1-.95 1.36l-.31.42a16.45 16.45 0 0 1-26.83-2 47.41 47.41 0 0 1-61.37-61.37 16.46 16.46 0 0 1-2-26.84l.44-.34c.27-.2.54-.41.83-.6a15.7 15.7 0 0 1 1.32-.8c.2-.12.42-.22.63-.33a16.63 16.63 0 0 1 4.4-1.43l.5-.07c.34-.05.68-.1 1.02-.12l.24-.01a16.4 16.4 0 0 1 9.42 2.24l.27.16a15.9 15.9 0 0 1 1.98 1.43l.25.22c.27.24.54.46.8.72.44.44.85.91 1.24 1.4a47.43 47.43 0 0 1 56.15 7.8l.23.21.05.05.07.08.29.3.07.08.27.27a47.15 47.15 0 0 1 12.12 22.99 49.16 49.16 0 0 1 .62 3.66l.02.1c.07.58.14 1.16.19 1.75v.13c.06.57.1 1.14.13 1.72v.19c.03.55.05 1.1.05 1.66v.25l-.01 1.6-.02.32c-.01.52-.03 1.03-.07 1.54 0 .13-.02.26-.03.38-.04.5-.07.98-.13 1.47l-.05.45-.18 1.4-.08.5-.22 1.34-.12.57-.26 1.26-.15.61-.3 1.2-.2.69c-.1.37-.2.75-.32 1.12l-.26.77-.34 1.01-.32.85-.35.92-.39.92-.35.83-.5 1.03a43.43 43.43 0 0 1-1.21 2.38 16.75 16.75 0 0 1 2.47 2.43l.04.04c.31.39.6.79.87 1.2h.01c.21.31.4.62.58.94l.22.37c.16.3.3.6.44.9l.22.45a16.2 16.2 0 0 1 1.2 4.3c.04.3.08.59.1.88l.03.6c.03.5.03 1.01 0 1.52l-.04.75zm-.37-5.21zm-.4-1.44z"/><path d="M1447 335.2c-.02.24-.06.47-.1.7.04-.23.08-.46.1-.7zm-1.65 5.82-.3.57.3-.57zm1.1-2.86-.2.65.2-.65zm-.48 1.44zm.83-2.9-.16.66c.05-.22.11-.44.15-.67zm-74.61-84.04-.28-.16.3.19c-.02 0-.02-.02-.02-.03zm72.39 89.74-.33.51.33-.51zm2.45-9.47zm-3.4 10.83-.32.41c.12-.13.21-.28.32-.41zm-71.73-91.26zm1.25.8z"/><path d="M1447.03 332.93c0-.2 0-.4-.02-.59l-.11-.88-.08-.57a15.98 15.98 0 0 0-.77-2.84c-.1-.3-.22-.6-.35-.89l-.22-.46c-.14-.3-.28-.6-.44-.9l-.22-.36a42.65 42.65 0 0 1-6.24-4.62l-.3.52 1.33 1.06a14.35 14.35 0 0 1 5.46 11.32c0 3.86-1.5 7.49-4.24 10.22a14.36 14.36 0 0 1-10.23 4.24 14.38 14.38 0 0 1-12.4-7.04l-.87-1.45-1.58.61a45.32 45.32 0 0 1-16.44 3.07 45.1 45.1 0 0 1-32.1-13.3 45.46 45.46 0 0 1-10.24-48.55l.61-1.57-1.44-.87a14.37 14.37 0 0 1-7.04-12.41c0-3.86 1.5-7.5 4.23-10.22a14.37 14.37 0 0 1 10.23-4.24 14.37 14.37 0 0 1 11.33 5.47l1.05 1.3.56-.3a42.39 42.39 0 0 1-4.3-5.99l-.29-.19a16.47 16.47 0 0 0-9.43-2.24l-.23.01c-.34.03-.68.08-1.01.12l-.5.08a15.62 15.62 0 0 0-2.28.57 16.04 16.04 0 0 0-3.53 1.63l-.56.35c-.28.19-.55.4-.83.6l-.43.34a16.46 16.46 0 0 0 2 26.84 47.41 47.41 0 0 0 61.37 61.37 16.45 16.45 0 0 0 26.83 2l.31-.41c.22-.28.43-.56.62-.84.12-.17.22-.35.33-.52a17 17 0 0 0 .47-.8l.3-.58a15.08 15.08 0 0 0 .9-2.2l.2-.65.2-.8.14-.67.12-.8c.03-.23.07-.46.09-.7.02-.24.02-.5.03-.74.04-.51.04-1.02.01-1.53z"/><path d="m1373.15 253.3-.95-.61a42.47 42.47 0 0 0 4.3 5.99l.46-.25a41.8 41.8 0 0 1-3.81-5.12zm1.01.79zm3.25 4.09a45.5 45.5 0 0 1 21.9-5.62 45.1 45.1 0 0 1 31.9 13.1l.72-.5.67-.94a47.43 47.43 0 0 0-56.15-7.8c-.39-.47-.8-.94-1.24-1.39-.26-.25-.53-.48-.8-.71a41.56 41.56 0 0 0 3 3.86z"/><path d="m1431.44 265.88.5-.71-.74.48.22.21.02.02zm-54.49-7.45.45-.25a41.69 41.69 0 0 1-2.99-3.87l-.25-.22c-.33-.27-.67-.54-1.02-.78a42.05 42.05 0 0 0 3.81 5.12zm69.45 45.01c-.06.46-.11.93-.18 1.39.07-.46.12-.93.18-1.4zm-.26 1.9-.22 1.33.22-1.33zm-.75 3.78-.3 1.2.3-1.2zm1.19-7.6zm-.78 5.72zm.86-11.48zm-.12-1.9zm-.2-1.89zm.35 7.63zm.02-1.93zm-.65-7.58zm-.36-1.88zm-2.34 35.09-.04-.04.03.03.01.01zm2.34-35.1zm-3.63 30.25-.33.69.33-.69zm2.24-5.55-.34 1 .34-1zm-.66 1.85-.35.92c.13-.3.24-.61.35-.92zm-.74 1.84-.35.83.35-.83zm1.99-5.59-.33 1.12.32-1.12zm-11.33-45.77-.25-.28.25.28z"/><path d="m1432.65 265.88-.5.74a45.61 45.61 0 0 1 6.95 53.25l-.03.06a41.62 41.62 0 0 0 4.25 3.33 16.92 16.92 0 0 0-2.47-2.43c.31-.56.6-1.12.9-1.7l.32-.68.49-1.03.35-.83.4-.92.34-.92.32-.85.34-1.01.26-.77.32-1.12.2-.69.3-1.2.15-.61c.1-.42.18-.84.26-1.26l.12-.57.22-1.33.08-.51.18-1.4.05-.45c.06-.49.1-.98.13-1.47l.03-.38c.04-.51.06-1.02.08-1.54l.01-.32c.02-.53.02-1.07.01-1.6v-.25c0-.56-.02-1.11-.05-1.67v-.18a48 48 0 0 0-.12-1.72l-.01-.14a51.5 51.5 0 0 0-.2-1.75v-.09a44.95 44.95 0 0 0-.62-3.66 47.17 47.17 0 0 0-12.14-22.99c-.3.23-.61.45-.92.66z"/><path d="m1433.57 265.23-.26-.28-.66.93.92-.65zm10.68 59.27zm-5.67-3.68a42.7 42.7 0 0 0 6.24 4.62c-.18-.32-.37-.63-.57-.94a41.87 41.87 0 0 1-5.42-4.13l-.25.45zm-6.36-55.22-.65.42.22.23.43-.65zm.66-1.1-.05-.05.05.04zm.07.07-.07-.08.07.08z"/><path d="m1432.88 264.5-.05-.05-.23-.23-.67.95.95-.68z"/><path d="M1431.58 266.02c.2-.14.43-.27.64-.42.24-.35.48-.7.73-1.03a2.52 2.52 0 0 1-.07-.08l-.95.68-.49.71.13.14zm12.66 58.47c-.28-.4-.56-.8-.88-1.19h-.01c.31.38.61.78.89 1.19zm-10.93-59.54-.07-.08.07.08z"/><path d="m1439.07 319.93-.24.44c1.69 1.51 3.5 2.9 5.42 4.13l-.01-.01c-.28-.41-.58-.81-.9-1.2a41.58 41.58 0 0 1-4.27-3.36zm-6.92-53.3.5-.75-.73.5.23.25z"/><path d="m1431.79 266.25.13.13.73-.5.66-.93-.07-.08c-.34.25-.68.5-1.02.73l-.43.64zm1.45-1.38-.29-.3.3.3z"/><path d="m1433.24 264.87-.29-.3c-.25.34-.5.68-.73 1.03l1.02-.73zm-73.11 9.73h-.09a2 2 0 0 1-1.91-2.1l.62-14.89a2 2 0 0 1 4 .17l-.62 14.9a2 2 0 0 1-2 1.91zm63.17 63.16a2 2 0 0 1-.09-4l14.9-.62a1.97 1.97 0 0 1 2.08 1.92 2 2 0 0 1-1.91 2.08l-14.9.62h-.08z"/><circle cx="1380.87" cy="286.64" r="6.25"/><path fill="#231F20" d="M1380.87 293.4a6.76 6.76 0 1 1 0-13.53 6.76 6.76 0 0 1 0 13.52zm0-12.52a5.76 5.76 0 1 0 .01 11.52 5.76 5.76 0 0 0-.01-11.52z"/><path d="M1388.95 298.18a2 2 0 0 1-1.97-2.37 13.15 13.15 0 0 0-15.34-15.33 2 2 0 0 1-.73-3.93 17.15 17.15 0 0 1 20 20 2 2 0 0 1-1.96 1.63z"/><circle cx="1409.73" cy="315.5" r="6.25"/><path fill="#231F20" d="M1409.73 322.26a6.76 6.76 0 1 1 .02-13.53 6.76 6.76 0 0 1-.02 13.53zm0-12.51a5.76 5.76 0 1 0 .02 11.52 5.76 5.76 0 0 0-.02-11.52z"/><path d="M1417.81 327.05c-.12 0-.24-.02-.36-.04a2 2 0 0 1-1.6-2.33 13.15 13.15 0 0 0-15.34-15.34 2 2 0 0 1-.73-3.93 17.15 17.15 0 0 1 20 20 2 2 0 0 1-1.97 1.63zm-28.76-17.28a2 2 0 0 1-1.41-3.41l6.44-6.45a2 2 0 1 1 2.82 2.83l-6.44 6.44a2 2 0 0 1-1.4.59z"/><path fill="#FFF" d="M1391.34 317.37a8.24 8.24 0 0 1-11.66-11.66"/><path fill="#2E9AFF" d="M1280.26 520.38a23.09 23.09 0 0 1-32.65 0l-71.94-71.95a23.07 23.07 0 1 1 32.65-32.65l71.94 71.94a23.1 23.1 0 0 1 0 32.66z"/><path fill="#FFF" d="M1263.93 529.14c-6.7 0-13-2.6-17.73-7.35l-71.95-71.95a24.92 24.92 0 0 1-7.35-17.74c0-6.7 2.61-13 7.35-17.73a24.92 24.92 0 0 1 17.74-7.35c6.7 0 13 2.6 17.74 7.35l71.94 71.94a25.12 25.12 0 0 1 0 35.48 24.92 24.92 0 0 1-17.74 7.35zM1192 411.02a20.92 20.92 0 0 0-14.91 6.18 20.94 20.94 0 0 0-6.18 14.9c0 5.64 2.19 10.93 6.18 14.92l71.94 71.94a20.94 20.94 0 0 0 14.91 6.18 21.11 21.11 0 0 0 14.91-36l-71.94-71.94a20.92 20.92 0 0 0-14.91-6.18z"/><path d="m1191.34 434.99.06.06 7.1-4.1 1.54 1.56-9.91 5.34-1.7-1.7 5.27-9.98 1.67 1.66-4.03 7.16zm3.01 4.69 1.92 1.91 3.05-3.05-1.92-1.92 1.2-1.2 3.33 3.34-4.25 4.25 2.02 2.02-1.2 1.2-5.35-5.36 1.2-1.2zm7.39-4.08c.22-.23.5-.33.83-.32.32 0 .64.15.93.45.3.3.47.63.5.97.01.35-.09.63-.31.85a1 1 0 0 1-.85.3c-.33-.03-.65-.2-.95-.5-.3-.3-.46-.6-.48-.92s.1-.6.33-.83zm3.7 16.41c-.18 0-.39-.04-.62-.1a4.94 4.94 0 0 1-1.59-.78 5.98 5.98 0 0 1-1.88-2.14 3.54 3.54 0 0 1-.04-2.99c.22-.49.55-.95 1-1.4.48-.48.98-.83 1.5-1.03a3.54 3.54 0 0 1 2.99.12 5.02 5.02 0 0 1 2.08 1.94c.22.37.36.76.43 1.19.07.42.04.86-.1 1.31-.15.46-.44.91-.9 1.37-.31.31-.69.61-1.12.9l-3.92-3.92a1.62 1.62 0 0 0-.47 1.49c.04.25.14.5.28.73a4.49 4.49 0 0 0 1.77 1.6c.38.2.73.3 1.06.32l-.47 1.4zm1.54-6.24a2.17 2.17 0 0 0-1.3-.68 1.65 1.65 0 0 0-1.36.38l2.7 2.69c.36-.37.55-.75.56-1.16 0-.42-.2-.83-.6-1.23zm6.57 7.22-1.57 3.2.06.06 1.03-.84 3.2-2.31 1.28 1.27-6.55 4.35-1.43-1.43 1.55-2.77-.06-.05-2.84 1.47-1.47-1.47 4.3-6.6 1.42 1.42-2.48 3.55-.6.77.06.05 3.2-1.58.9.91zm12.51 15.67 1.2 1.2-2.18 2.18c-.4-.07-.83-.23-1.28-.5a6.18 6.18 0 0 1-2.4-2.54 4.17 4.17 0 0 1-.46-1.83c-.01-.64.14-1.31.45-2.02.3-.7.82-1.4 1.54-2.13a6.64 6.64 0 0 1 2.21-1.54 4.49 4.49 0 0 1 3.9.14 6.66 6.66 0 0 1 2.46 2.28c.24.37.4.7.5.99l-2.26 2.27-1.2-1.2 1.24-1.24c-.19-.27-.4-.52-.64-.76-.28-.28-.6-.49-.95-.63a2.41 2.41 0 0 0-1.12-.15c-.4.04-.81.17-1.25.4a5.5 5.5 0 0 0-1.32 1.02c-.4.4-.7.8-.94 1.21-.23.42-.36.84-.42 1.25s0 .81.13 1.2c.14.4.37.75.7 1.09.24.24.5.45.77.63l1.32-1.32zm6.76-3.36 2.2 2.2-2.79 2.78.05.05c.4-.07.82-.02 1.25.14.43.15.84.42 1.23.81.28.28.5.57.65.88a2.05 2.05 0 0 1-.05 2.02c-.19.39-.5.79-.92 1.2l-3.39 3.4-1.41-1.42 3.1-3.1c.43-.43.66-.85.67-1.23 0-.4-.14-.73-.45-1.04a1.89 1.89 0 0 0-2.09-.35l-3.47 3.48-1.42-1.42 6.43-6.42-.78-.79 1.2-1.2zm4.98 10.06a8.33 8.33 0 0 1 2.84 1.88c.37.38.65.75.82 1.1a2.08 2.08 0 0 1 .01 1.98 3.4 3.4 0 0 1-.67.9c-.37.37-.7.68-.99.91a10.37 10.37 0 0 0-1.48 1.52l.7.7-1.2 1.2-1.82-1.82.6-.89-.06-.05c-.37.08-.77.07-1.2-.04-.43-.1-.87-.38-1.32-.83a2.6 2.6 0 0 1-.86-1.73c-.02-.6.2-1.15.68-1.63.31-.3.63-.52.96-.62a2 2 0 0 1 1.03-.06c.36.07.72.22 1.09.45a6.37 6.37 0 0 1 1.5 1.33l.48.58.24-.2.2-.2c.28-.28.4-.56.36-.84a1.65 1.65 0 0 0-.52-.88 4.64 4.64 0 0 0-1.14-.86c-.4-.2-.73-.35-1.03-.46l.77-1.44zm-2.15 5.85c.34.35.66.54.96.59.3.04.57.03.79-.03l.65-.65a6.67 6.67 0 0 0-.7-.87 3.14 3.14 0 0 0-.45-.37 1.7 1.7 0 0 0-.49-.24 1.05 1.05 0 0 0-.47-.05.72.72 0 0 0-.41.22c-.2.2-.3.42-.3.65 0 .23.14.48.42.75zm8.2-.53 1.9 1.9-.55.89.04.04a3.15 3.15 0 0 1 2.72.97c.27.27.48.56.64.86.17.31.25.63.25.97 0 .33-.1.69-.28 1.07-.19.4-.5.8-.92 1.22l-3.39 3.39-1.41-1.42 3.09-3.1c.44-.44.66-.86.66-1.26s-.16-.74-.46-1.05c-.27-.27-.6-.44-.97-.5a1.65 1.65 0 0 0-1.04.13l-3.53 3.53-1.42-1.41 4.25-4.25-.78-.79 1.2-1.2zm6.54 6.53 1.9 1.91-.55.88.04.05a3.11 3.11 0 0 1 2.72.96c.26.28.48.56.64.87.16.31.25.63.25.96s-.1.7-.29 1.08c-.18.39-.49.8-.91 1.21l-3.4 3.4-1.4-1.42 3.09-3.1c.44-.44.66-.86.66-1.26s-.16-.74-.47-1.05a1.72 1.72 0 0 0-.97-.5 1.66 1.66 0 0 0-1.03.13l-3.53 3.53-1.42-1.42 4.25-4.25-.78-.78 1.2-1.2zm7.35 17.1c-.18 0-.39-.04-.62-.1a4.87 4.87 0 0 1-1.59-.78 5.89 5.89 0 0 1-1.88-2.14 3.54 3.54 0 0 1-.04-2.99c.22-.48.55-.95 1-1.4a4.6 4.6 0 0 1 1.49-1.03 3.5 3.5 0 0 1 3 .12 4.98 4.98 0 0 1 2.08 1.94c.22.37.36.77.43 1.19.07.42.04.86-.1 1.31-.14.46-.44.91-.9 1.37-.31.31-.69.62-1.12.9l-3.93-3.92a1.65 1.65 0 0 0-.47 1.48c.05.26.15.5.3.74a4.55 4.55 0 0 0 1.77 1.61c.37.18.72.28 1.04.31l-.46 1.39zm1.54-6.24a2.5 2.5 0 0 0-.61-.46 2.2 2.2 0 0 0-.68-.23 1.78 1.78 0 0 0-.7.04c-.24.06-.46.18-.66.35l2.68 2.68c.36-.36.55-.75.56-1.16.01-.4-.18-.82-.6-1.22zm7.18.86 2.32 2.32-5.03 5.03c-.57.56-.88 1.02-.96 1.37-.08.36.03.7.33 1a2.52 2.52 0 0 0 1.27.71l-.45 1.52-.6-.15a3.26 3.26 0 0 1-1.12-.56 5.29 5.29 0 0 1-.59-.52c-.68-.68-1.02-1.36-1.01-2.06 0-.68.33-1.35.97-1.99l4.57-4.57-.9-.9 1.2-1.2z" fill="#FFF"/><path fill="#231F20" d="M1373.51 449.25a2 2 0 0 1-1.41-.59l-121.4-121.4a2 2 0 1 1 2.82-2.83l121.4 121.4a2 2 0 0 1-1.4 3.42zm-35.28-2.08a2 2 0 0 1-1.41-.59l-84.05-84.04a2 2 0 0 1 2.83-2.83l84.04 84.05a2 2 0 0 1-1.41 3.41zm-4.15 29.06c-.51 0-1.02-.2-1.42-.59l-108.95-108.95a2 2 0 0 1 2.83-2.82L1335.5 472.8a2 2 0 0 1-1.41 3.42zm-41.51-8.31a2 2 0 0 1-1.41-.58L1232 408.2a2 2 0 0 1 2.83-2.83L1294 464.5a2 2 0 0 1-1.42 3.41zm-66.83 66.83a2 2 0 0 1-1.4-.58l-59.15-59.15a2 2 0 1 1 2.83-2.83l59.14 59.15a2 2 0 0 1-1.42 3.41zm-28.84 3.95c-.52 0-1.03-.2-1.42-.6l-34.23-34.23a2 2 0 1 1 2.82-2.83l34.24 34.24a2 2 0 0 1-1.41 3.42zm107.32-217.37 6.77 6.77-7.22 7.22a8.84 8.84 0 0 1-1.97 1.5 4.8 4.8 0 0 1-3.74.37 6.46 6.46 0 0 1-2.79-1.76 9.33 9.33 0 0 1-1.33-1.67 7.35 7.35 0 0 1-.85-2.06l2.57-.99c.17.65.37 1.16.6 1.53s.52.75.9 1.14c.24.24.54.45.91.63.37.19.76.27 1.18.26a3.45 3.45 0 0 0 2.29-1.15l5.26-5.26-4.55-4.55 1.97-1.98zm1.51 16.07a7.03 7.03 0 0 1 2.12-1.5 5.32 5.32 0 0 1 2.22-.47c.74.01 1.47.18 2.19.52s1.39.82 2.03 1.47a7.1 7.1 0 0 1 1.52 2.13 5.16 5.16 0 0 1-.03 4.4c-.35.72-.83 1.4-1.47 2.04a7.06 7.06 0 0 1-2.12 1.5 5.26 5.26 0 0 1-4.4-.05 7.25 7.25 0 0 1-2.05-1.47 7.15 7.15 0 0 1-1.51-2.13 5.18 5.18 0 0 1 .04-4.4c.33-.72.82-1.4 1.46-2.04zm2.17 2.18c-.36.35-.64.73-.85 1.13-.2.4-.33.8-.37 1.21a2.67 2.67 0 0 0 .84 2.27 2.9 2.9 0 0 0 2.13.93c.8 0 1.62-.44 2.49-1.3a3.96 3.96 0 0 0 1.25-2.36c.1-.83-.2-1.58-.88-2.26a3.6 3.6 0 0 0-.98-.7 2.33 2.33 0 0 0-1.12-.23c-.4.02-.8.13-1.22.33-.42.21-.85.53-1.3.97zm14.26-.31 3.27 3.27-4.14 4.14.06.07c.6-.09 1.22-.02 1.86.2s1.24.64 1.83 1.22c.4.41.73.84.97 1.3.24.45.35.92.35 1.42 0 .5-.14 1.03-.43 1.6a7.2 7.2 0 0 1-1.36 1.79l-5.04 5.03-2.1-2.1 4.6-4.6c.66-.66 1-1.28 1-1.85a2.06 2.06 0 0 0-.66-1.54c-.4-.4-.89-.64-1.47-.73a2.76 2.76 0 0 0-1.64.22l-5.16 5.16-2.1-2.1 9.54-9.55-1.16-1.17 1.78-1.78zm6.67 13.14 2.83 2.83-.82 1.32.06.06a4.7 4.7 0 0 1 4.03 1.44c.4.4.72.83.96 1.29.25.45.37.93.37 1.43 0 .5-.14 1.03-.42 1.6s-.74 1.17-1.36 1.8l-5.03 5.03-2.1-2.1 4.6-4.6c.65-.66.97-1.28.97-1.87 0-.59-.23-1.1-.69-1.56-.4-.4-.88-.65-1.44-.75a2.47 2.47 0 0 0-1.54.2l-5.24 5.24-2.1-2.1 6.3-6.31-1.16-1.17 1.78-1.78zm23.27 16.8.56.47a36.87 36.87 0 0 1 1.88 1.68c.34.32.64.6.9.87 1 1 1.69 1.97 2.06 2.93.36.95.48 1.87.35 2.77-.13.9-.47 1.77-1.01 2.61a15.16 15.16 0 0 1-4.46 4.46c-.87.56-1.77.92-2.72 1.08-.95.17-1.94.07-2.98-.29a8.61 8.61 0 0 1-3.19-2.17l-.65-.68-.78-.86-.76-.86a9.6 9.6 0 0 1-.55-.65l11.36-11.36zm1.45 5.07a10.65 10.65 0 0 0-1.1-.97l-7.6 7.6.17.21.25.29.25.28.2.22a3.93 3.93 0 0 0 1.85 1.14c.6.15 1.19.12 1.75-.08.56-.19 1.1-.5 1.64-.92a18.3 18.3 0 0 0 2.7-2.7c.4-.49.7-1 .88-1.55a3.2 3.2 0 0 0 .1-1.7c-.11-.6-.48-1.2-1.1-1.82zm.75 11.69a7.05 7.05 0 0 1 2.11-1.5 5.3 5.3 0 0 1 2.22-.48 5.3 5.3 0 0 1 2.19.52c.7.34 1.39.83 2.03 1.48a7.07 7.07 0 0 1 1.52 2.13 5.17 5.17 0 0 1-.04 4.4 6.9 6.9 0 0 1-1.46 2.03 7.04 7.04 0 0 1-2.12 1.5 5.3 5.3 0 0 1-2.22.48c-.74-.02-1.47-.19-2.19-.52s-1.39-.83-2.04-1.48a7.24 7.24 0 0 1-1.51-2.12 5.19 5.19 0 0 1 .04-4.4c.34-.73.82-1.4 1.46-2.04zm2.16 2.17a4.2 4.2 0 0 0-.84 1.13c-.2.4-.33.8-.37 1.22a2.67 2.67 0 0 0 .84 2.26 2.9 2.9 0 0 0 2.13.93c.79 0 1.62-.43 2.48-1.3a3.96 3.96 0 0 0 1.25-2.36c.1-.82-.2-1.57-.88-2.26a3.6 3.6 0 0 0-.98-.7 2.35 2.35 0 0 0-1.11-.23c-.4.02-.8.13-1.23.33a4.9 4.9 0 0 0-1.29.98zm12.44 18.81a4.25 4.25 0 0 1-.93-.17 7.3 7.3 0 0 1-2.36-1.15 8.84 8.84 0 0 1-1.23-1.03 7.76 7.76 0 0 1-1.57-2.15 5.23 5.23 0 0 1-.05-4.44c.32-.72.82-1.42 1.49-2.09a6.74 6.74 0 0 1 2.2-1.53 5.3 5.3 0 0 1 4.46.18 7.6 7.6 0 0 1 3.1 2.88c.32.55.54 1.14.64 1.77s.05 1.28-.16 1.96a5.1 5.1 0 0 1-1.34 2.03c-.46.46-1.02.91-1.66 1.34l-5.83-5.83a2.4 2.4 0 0 0-.7 2.21c.06.38.2.74.42 1.1.22.35.49.7.82 1.02a6.7 6.7 0 0 0 1.81 1.37c.57.26 1.1.42 1.57.46l-.69 2.07zm2.27-9.28a3.8 3.8 0 0 0-.9-.68 3.11 3.11 0 0 0-1.01-.33c-.35-.05-.7-.03-1.05.06-.35.09-.67.26-.97.52l3.98 3.98c.54-.54.82-1.11.83-1.73.02-.6-.27-1.21-.88-1.82z"/><path fill="#2E9AFF" d="M1495.6 149.61a36.08 36.08 0 0 1 0 51.04 36.09 36.09 0 0 1 51.04 0"/><path fill="#FFF" d="M1546.64 202.65a2 2 0 0 1-1.42-.59 34.13 34.13 0 0 0-48.2 0 2 2 0 1 1-2.83-2.83c6.44-6.44 9.99-15 9.99-24.1s-3.55-17.67-9.99-24.1a2 2 0 0 1 2.83-2.83 37.84 37.84 0 0 1 11.16 26.93 37.9 37.9 0 0 1-3.93 16.89 38.15 38.15 0 0 1 43.8 7.21 2 2 0 0 1-1.41 3.42z"/><path fill="#2E9AFF" d="M1120.42 268.9a41.37 41.37 0 0 1 58.51 0 41.38 41.38 0 0 1 0-58.52"/><path fill="#FFF" d="M1120.42 270.9a2 2 0 0 1-1.41-3.42 43.09 43.09 0 0 1 30.67-12.7 43.1 43.1 0 0 1 20.02 4.87 43.46 43.46 0 0 1 7.81-50.68 2 2 0 1 1 2.83 2.83 39.42 39.42 0 0 0 0 55.68 1.98 1.98 0 0 1 0 2.83 2 2 0 0 1-2.83 0 39.1 39.1 0 0 0-27.83-11.53 39.14 39.14 0 0 0-27.85 11.53c-.38.39-.9.58-1.4.58z"/><path fill="#2E9AFF" d="M1427.98 576.45a41.38 41.38 0 0 0 0-58.5 41.38 41.38 0 0 0 58.5 0"/><path fill="#FFF" d="M1427.98 578.45a2 2 0 0 1-1.41-3.41 39.42 39.42 0 0 0 0-55.68 1.99 1.99 0 0 1 0-2.83 2 2 0 0 1 2.82 0 39.42 39.42 0 0 0 55.68 0 2 2 0 0 1 2.83 2.83 43.46 43.46 0 0 1-50.7 7.8c8.5 16.34 5.9 37-7.8 50.7-.4.4-.9.6-1.42.6z"/><circle fill="#2E9AFF" cx="1471.65" cy="136.19" r="9.83"/><path fill="#FFF" d="M1471.65 148.02c-6.52 0-11.83-5.31-11.83-11.83s5.31-11.83 11.83-11.83a11.84 11.84 0 0 1 0 23.66zm0-19.66a7.84 7.84 0 0 0 0 15.66 7.84 7.84 0 0 0 0-15.66z"/><circle fill="#2E9AFF" cx="1559.44" cy="223.97" r="9.83"/><path fill="#FFF" d="M1559.44 235.8a11.84 11.84 0 1 1 11.83-11.83c0 6.53-5.3 11.84-11.83 11.84zm0-19.66a7.84 7.84 0 0 0 0 15.67 7.84 7.84 0 0 0 0-15.67zM496.42 875.72a31.79 31.79 0 0 1-28.63-17.73L271.14 462.5a31.74 31.74 0 0 1-1.68-24.4 31.73 31.73 0 0 1 16.06-18.43l182.23-90.61a31.61 31.61 0 0 1 14.21-3.35 31.8 31.8 0 0 1 28.63 17.73l196.64 395.48c3.8 7.64 4.4 16.3 1.69 24.4a31.74 31.74 0 0 1-16.07 18.43l-182.23 90.61a31.66 31.66 0 0 1-14.2 3.35zm-14.46-532.29c-2.2 0-4.33.5-6.32 1.5l-182.23 90.6a14.15 14.15 0 0 0-7.16 8.22 14.18 14.18 0 0 0 .75 10.88L483.65 850.1a14.18 14.18 0 0 0 19.09 6.41l182.23-90.6c3.4-1.7 5.94-4.62 7.15-8.23 1.22-3.6.95-7.46-.75-10.87L494.74 351.33a14.18 14.18 0 0 0-12.77-7.9z"/><path fill="#FFF" d="m443.36 342.24 5.37 24.1c1.35 6.1-2.1 13.37-7.7 16.16l-91.37 45.43c-5.6 2.78-13.49 1.16-17.53-3.6l-15.97-18.83"/><circle fill="#FFF" cx="434.39" cy="488.53" r="55.78"/><path fill="#2E9AFF" d="M415.11 448.88a42.57 42.57 0 0 1-25.7 48.92l.07.39-1.4.5a14.68 14.68 0 0 0-8.98 9.19 14.68 14.68 0 0 0 .78 11.3 14.7 14.7 0 0 0 19.82 6.65c1.09-.54 2.1-1.22 3.02-2l1.14-.98 1.14.96a46.1 46.1 0 0 0 29.43 10.63 45.95 45.95 0 0 0 45.82-48.05l-.07-1.48 1.46-.32a14.82 14.82 0 0 0 10.08-21.03 14.71 14.71 0 0 0-19.81-6.65c-.48.23-.95.5-1.46.83l-1.26.81-.23-.25a42.44 42.44 0 0 1-53.85-9.42z"/><path d="M415.18 458.32c0-3.73-.5-7.34-1.43-10.78a46.11 46.11 0 0 0-24.53 49.18l.01.08a41.58 41.58 0 0 0 25.95-38.48z"/><path fill="#231F20" d="M416.18 458.32c0-3.24-.38-6.4-1.07-9.44-.24-.28-.47-.58-.7-.87a42.08 42.08 0 0 1-25.08 49.3l.08.5a42.57 42.57 0 0 0 26.77-39.49z"/><path fill="#231F20" d="M415.68 458.32c0-3.56-.44-7.01-1.28-10.3l-.45-.58-.2.1a41.58 41.58 0 0 1-24.52 49.26l.1.51a42.03 42.03 0 0 0 26.35-38.99z"/><path d="M447.64 463.06c7.5 0 14.55-2.02 20.63-5.52l-.08-.09a46.05 46.05 0 0 0-33.84-14.83 45.37 45.37 0 0 0-19.47 4.39 41.46 41.46 0 0 0 32.76 16.05z"/><path fill="#231F20" d="M447.64 463.56a41.93 41.93 0 0 1-32.77-15.73l.24 1.05a42.43 42.43 0 0 0 53.85 9.42l-.33-.37a41.81 41.81 0 0 1-21 5.63z"/><path fill="#231F20" d="m415.11 448.88-.24-1.05-.47-.6-.19.08.19.7.71.87zm-.9-1.57c-.08.05-.17.08-.25.12h-.01l.45.58-.19-.7z"/><path fill="#231F20" d="M447.64 463.56c7.65 0 14.81-2.06 20.99-5.63l-.36-.39A41.46 41.46 0 0 1 414.88 447l-.21.1.2.73a41.93 41.93 0 0 0 32.77 15.73z"/><path fill="#231F20" d="m414.67 447.1-.27.13c.15.2.3.4.47.6l-.2-.73z"/><path d="M494.9 461.98a18.23 18.23 0 0 0-16.42-10.17 18.13 18.13 0 0 0-8.68 2.2 49.62 49.62 0 0 0-35.45-14.94 48.94 48.94 0 0 0-21.97 5.19 49.7 49.7 0 0 0-26.89 51.67l-.54.25a18.22 18.22 0 0 0-9.2 10.58 18.2 18.2 0 0 0 .95 13.99 18.23 18.23 0 0 0 16.42 10.17 18.14 18.14 0 0 0 10.74-3.49A49.65 49.65 0 0 0 434.43 538a49.5 49.5 0 0 0 49.4-50.32 18.34 18.34 0 0 0 11.06-25.69zm-9.04 22.98a16.49 16.49 0 0 1-3.84 1.36 47.68 47.68 0 0 1-78.14 38.85 16.58 16.58 0 0 1-25.59-5.21 16.55 16.55 0 0 1 6.45-21.63 17.3 17.3 0 0 1 2.73-1.3A47.7 47.7 0 0 1 412.9 446l.28-.15.08-.04.07-.03.4-.18.08-.04.36-.18a47.7 47.7 0 0 1 55.33 10.88 15.89 15.89 0 0 1 5.62-2.3 16.55 16.55 0 0 1 10.75 31.01z"/><path d="M493.31 462.77a16.55 16.55 0 0 0-18.2-8.82 42.74 42.74 0 0 1-6.15 4.35l.23.25 1.26-.8a14.6 14.6 0 0 1 8.03-2.38 14.67 14.67 0 0 1 13.24 8.19 14.8 14.8 0 0 1-10.08 21.03l-1.45.32.06 1.49a45.95 45.95 0 0 1-45.82 48.04A46.1 46.1 0 0 1 405 523.81l-1.14-.96-1.14.98a14.81 14.81 0 0 1-9.6 3.55 14.7 14.7 0 0 1-13.24-8.2 14.68 14.68 0 0 1-.78-11.3 14.69 14.69 0 0 1 8.98-9.18l1.4-.51-.07-.39a41.9 41.9 0 0 1-6.92 2.11 16.55 16.55 0 1 0 21.38 25.26 47.68 47.68 0 0 0 78.15-38.86 16.55 16.55 0 0 0 11.29-23.54z"/><path d="M389.21 496.72a46.11 46.11 0 0 1 24.54-49.18l-.16-.56c-.24-.32-.47-.66-.7-.99a47.7 47.7 0 0 0-25.42 51.04c-.58.22-1.16.46-1.73.74-.34.17-.67.37-1 .56 1.54-.43 3.03-.94 4.49-1.53l-.02-.08zm.11.59c-1.9.77-3.87 1.4-5.9 1.88-.32.23-.63.47-.93.72a42.1 42.1 0 0 0 6.92-2.1l-.09-.5z"/><path d="M389.23 496.8a41 41 0 0 1-4.49 1.53c-.45.27-.9.56-1.32.86 2.03-.48 4-1.11 5.9-1.88l-.09-.5zm24.37-49.82.15.56.2-.1-.36-.46zm1.28.02a45.39 45.39 0 0 1 19.47-4.38c12.84 0 25.17 5.4 33.83 14.83l.09.1a41.61 41.61 0 0 0 4.38-2.9 16.35 16.35 0 0 0-3.16 1.6 47.7 47.7 0 0 0-55.33-10.87l.34 1.14.38.49z"/><path d="m414.16 445.38-.36.17.7.97c-.1-.38-.22-.76-.34-1.14zm54.8 12.92a42.68 42.68 0 0 0 6.15-4.35c-.35.07-.7.15-1.04.24a42.03 42.03 0 0 1-5.44 3.74l.33.37zm-55.71-12.5-.08.04-.28.15.7 1c-.11-.4-.22-.8-.34-1.18zm.82 1.01.14.5.19-.08-.33-.42z"/><path d="m413.95 447.44.26-.13-.14-.5c-.26-.34-.5-.69-.75-1.04l-.07.04.34 1.18.36.45zm.55-.92.17.58.21-.1-.38-.48zm54.13 11.41a42.03 42.03 0 0 0 5.44-3.74c-.47.13-.95.28-1.42.46a41.77 41.77 0 0 1-4.38 2.9l.36.38z"/><path d="m414.4 447.23.27-.13-.17-.58-.7-.97-.09.04c.13.4.25.81.36 1.22l.33.42z"/><path d="m413.71 445.59-.39.18.75 1.05c-.12-.42-.23-.83-.36-1.23zm-16.05 73.95c-.21 0-.43-.04-.64-.12l-14-5.36a1.77 1.77 0 1 1 1.27-3.3l14 5.36a1.77 1.77 0 0 1-.63 3.42zm80.44-40a1.77 1.77 0 0 1-1.7-2.26l4.18-14.4a1.77 1.77 0 0 1 3.4.98l-4.18 14.4a1.77 1.77 0 0 1-1.7 1.28z"/><circle cx="417.69" cy="502.49" r="6.29"/><path fill="#231F20" d="M417.69 509.28a6.8 6.8 0 1 1 .01-13.6 6.8 6.8 0 0 1-.01 13.6zm0-12.58a5.8 5.8 0 1 0 .01 11.6 5.8 5.8 0 0 0-.01-11.6z"/><path d="M406.88 510.8c-.09 0-.17 0-.25-.02a1.77 1.77 0 0 1-1.51-2 17 17 0 0 1 25.1-12.48 1.77 1.77 0 0 1-1.71 3.1 13.47 13.47 0 0 0-19.88 9.89 1.77 1.77 0 0 1-1.75 1.51z"/><circle cx="454.44" cy="484.21" r="6.29"/><path fill="#231F20" d="M454.44 491a6.8 6.8 0 1 1 .02-13.59 6.8 6.8 0 0 1-.02 13.6zm0-12.58a5.8 5.8 0 1 0 .02 11.6 5.8 5.8 0 0 0-.02-11.6z"/><path d="M443.63 492.52c-.08 0-.16 0-.25-.02a1.77 1.77 0 0 1-1.5-2 17 17 0 0 1 25.11-12.48 1.77 1.77 0 1 1-1.72 3.1 13.46 13.46 0 0 0-19.88 9.88 1.78 1.78 0 0 1-1.76 1.52zm-3.18 10.71c-.65 0-1.28-.36-1.59-.98l-4.08-8.2a1.77 1.77 0 0 1 3.18-1.58l4.08 8.2a1.77 1.77 0 0 1-1.59 2.56z"/><path fill="#FFF" d="M450.33 502.35a8.28 8.28 0 0 1-14.83 7.38"/><path fill="#2E9AFF" d="M608.31 673.23a23.22 23.22 0 0 1-10.45 31.13l-91.62 45.56a23.22 23.22 0 0 1-20.68-41.58l91.62-45.56a23.22 23.22 0 0 1 31.13 10.45z"/><path fill="#FFF" d="M495.92 753.92c-9.48 0-18-5.27-22.22-13.76a24.82 24.82 0 0 1 11.16-33.23l91.62-45.56a24.51 24.51 0 0 1 11.02-2.6c9.49 0 18 5.27 22.22 13.76a24.63 24.63 0 0 1 1.3 18.93 24.62 24.62 0 0 1-12.46 14.3l-91.62 45.57a24.56 24.56 0 0 1-11.02 2.6zm91.58-92c-3.35 0-6.59.76-9.62 2.27l-91.62 45.56a21.67 21.67 0 0 0-9.74 29.01 21.54 21.54 0 0 0 19.4 12.02c3.35 0 6.6-.77 9.62-2.27l91.62-45.56a21.5 21.5 0 0 0 10.88-12.49 21.5 21.5 0 0 0-1.14-16.52 21.53 21.53 0 0 0-19.4-12.02z"/><path d="m498.44 730.67.07-.04-1.62-8.07 1.97-.98 1.91 11.17-2.16 1.07-7.83-8.22 2.13-1.06 5.53 6.13zm5.43-1.37 2.44-1.21-1.93-3.9-2.44 1.22-.76-1.52 4.25-2.11 2.69 5.4 2.56-1.26.76 1.52-6.81 3.39-.76-1.53zm-1.52-8.35a1.1 1.1 0 0 1-.04-.9c.1-.3.35-.55.73-.74.4-.19.75-.24 1.08-.15.34.08.57.27.72.56.14.3.15.6.01.9-.14.3-.4.55-.78.74-.38.2-.73.24-1.03.16a1.03 1.03 0 0 1-.69-.57zm16.83 1.72a2.2 2.2 0 0 1-.3.56 5.33 5.33 0 0 1-1.25 1.27 6.06 6.06 0 0 1-2.64 1.11 3.56 3.56 0 0 1-2.87-.92 5.06 5.06 0 0 1-1.52-3.15 3.61 3.61 0 0 1 1.07-2.82 5.08 5.08 0 0 1 2.52-1.37 3.03 3.03 0 0 1 2.49.49c.39.28.73.72 1.02 1.3.2.4.36.85.5 1.36l-5 2.48a1.65 1.65 0 0 0 1.27.93c.26.03.52.02.8-.04a4.5 4.5 0 0 0 2.1-1.17c.29-.31.5-.61.63-.9l1.18.87zm-5.46-3.46c-.24.12-.45.27-.63.44-.18.17-.32.36-.43.57-.1.22-.17.44-.19.69-.02.24.02.49.12.73l3.42-1.7a1.7 1.7 0 0 0-.93-.9c-.39-.14-.84-.09-1.36.17zm8.99-3.95 2.55 2.52.07-.03-.47-1.26-1.17-3.8 1.62-.8 2.05 7.64-1.82.9-2.14-2.36-.07.03.49 3.18-1.87.94-4.9-6.22 1.8-.9 2.59 3.51.53.8.07-.03-.48-3.55 1.15-.57zm18.94-6.91 1.53-.76 1.38 2.78c-.2.35-.48.71-.89 1.06a6.18 6.18 0 0 1-3.2 1.48 4.2 4.2 0 0 1-1.87-.16 4.82 4.82 0 0 1-1.78-1.07 7.22 7.22 0 0 1-1.54-2.15 6.65 6.65 0 0 1-.77-2.6 4.55 4.55 0 0 1 1.38-3.68 6.72 6.72 0 0 1 2.96-1.62 5 5 0 0 1 1.1-.15l1.44 2.89-1.52.75-.79-1.58c-.3.1-.61.22-.92.37a2.8 2.8 0 0 0-.9.7c-.25.3-.42.63-.51 1.03-.1.4-.1.83-.02 1.31.08.49.26 1.02.55 1.6.24.5.53.92.86 1.27.32.35.67.61 1.05.8a2.65 2.65 0 0 0 2.45-.06c.3-.15.59-.32.85-.52l-.84-1.69zm-1.05-7.53 2.81-1.4 1.77 3.56.06-.03c.07-.4.25-.79.53-1.15a3.4 3.4 0 0 1 1.18-.9c.35-.18.7-.3 1.04-.35a2.07 2.07 0 0 1 1.92.7c.3.3.58.72.85 1.26l2.15 4.32-1.8.9-1.97-3.95c-.28-.56-.6-.9-.97-1.04-.36-.13-.74-.1-1.13.1a1.9 1.9 0 0 0-1 1.88l2.2 4.42-1.8.9-4.07-8.19-1 .5-.76-1.53zm11.2-1.51a8.14 8.14 0 0 1 2.7-2.1c.49-.24.92-.39 1.32-.44a2.09 2.09 0 0 1 1.9.63c.23.24.44.55.63.92.23.48.42.89.55 1.23a9.86 9.86 0 0 0 .98 1.9l.9-.44.76 1.53-2.33 1.15-.65-.85-.07.03a2.7 2.7 0 0 1-.42 1.14c-.23.37-.64.7-1.22 1a2.6 2.6 0 0 1-1.92.26 2.12 2.12 0 0 1-1.34-1.17 2.48 2.48 0 0 1-.28-1.11 2 2 0 0 1 .27-1c.18-.32.44-.62.78-.9a6.47 6.47 0 0 1 1.75-1l.7-.28c-.03-.1-.06-.2-.11-.29l-.13-.26c-.18-.35-.4-.55-.68-.6-.28-.06-.62.02-1.01.21-.47.23-.86.5-1.18.81-.32.31-.57.59-.77.84l-1.13-1.21zm4.9 3.92c.43-.22.72-.46.85-.73.15-.27.22-.53.23-.76l-.41-.83a5.03 5.03 0 0 0-1.54.71c-.17.12-.3.24-.4.38a.99.99 0 0 0-.2.44c-.02.15 0 .3.08.46.13.26.3.43.53.5.22.06.5 0 .85-.17zm2.1-7.99 2.44-1.21.66.81.06-.02c.06-.4.24-.82.52-1.24a3.71 3.71 0 0 1 2.3-1.38c.35-.06.68-.03 1 .08.32.1.63.3.94.6.3.31.59.73.86 1.27l2.14 4.31-1.8.9-1.96-3.94c-.28-.56-.61-.9-.99-1.03a1.47 1.47 0 0 0-1.15.1c-.34.17-.6.43-.79.77-.18.34-.25.68-.2 1.03l2.23 4.5-1.8.89-2.7-5.41-1 .5-.75-1.53zm8.33-4.14 2.43-1.2.66.8.06-.02a3.2 3.2 0 0 1 1.8-2.27c.34-.18.68-.3 1.03-.35a2.08 2.08 0 0 1 1.93.69c.3.3.6.72.86 1.26l2.14 4.31-1.8.9-1.96-3.94c-.28-.56-.6-.9-.99-1.03s-.76-.09-1.15.1c-.34.18-.6.43-.79.77-.18.34-.25.68-.2 1.03l2.23 4.5-1.8.89-2.7-5.41-1 .5-.75-1.53zm18.65-1.54c-.06.17-.16.36-.3.56a5.32 5.32 0 0 1-1.25 1.27 6.04 6.04 0 0 1-2.64 1.1 3.56 3.56 0 0 1-2.87-.92 4.8 4.8 0 0 1-1.02-1.4c-.3-.61-.47-1.2-.5-1.75a3.59 3.59 0 0 1 1.07-2.82 5.16 5.16 0 0 1 2.52-1.36c.42-.1.84-.1 1.27-.03.43.07.83.24 1.22.52s.73.72 1.02 1.3c.2.4.36.85.5 1.35l-5 2.49c.16.29.35.5.57.65s.45.24.7.27c.26.04.52.03.8-.03a4.5 4.5 0 0 0 2.1-1.17c.29-.32.5-.62.63-.91l1.18.88zm-5.46-3.46a2.6 2.6 0 0 0-.63.43 1.97 1.97 0 0 0-.62 1.26c-.02.25.02.5.12.74l3.42-1.7a1.7 1.7 0 0 0-.93-.9c-.39-.15-.84-.1-1.36.17zm3.12-6.57 2.96-1.47 3.18 6.4c.36.72.7 1.17 1 1.36.32.19.67.19 1.06 0a2.68 2.68 0 0 0 1.09-.98l1.3.91c-.1.18-.21.35-.33.52a3.16 3.16 0 0 1-.9.9 4.8 4.8 0 0 1-.67.4c-.87.43-1.64.53-2.29.3a2.9 2.9 0 0 1-1.59-1.56l-2.9-5.82-1.15.57-.76-1.53z" fill="#FFF"/><path fill="#231F20" d="M413.85 639.57a1.77 1.77 0 0 1-.8-3.36l154.6-76.87a1.77 1.77 0 0 1 1.59 3.17l-154.6 76.87c-.26.13-.53.19-.8.19zm34.3 9.31a1.77 1.77 0 0 1-.8-3.36l107.03-53.22a1.77 1.77 0 1 1 1.58 3.18L448.93 648.7a1.8 1.8 0 0 1-.78.18zm-5.35 29.02a1.77 1.77 0 0 1-.79-3.35l138.74-68.99a1.77 1.77 0 0 1 1.58 3.18L443.6 677.72c-.26.13-.52.19-.79.19zm42.23 5.38a1.77 1.77 0 0 1-.8-3.35l75.32-37.45a1.77 1.77 0 0 1 1.58 3.17l-75.31 37.45a1.9 1.9 0 0 1-.8.18zm42.31 85.1a1.77 1.77 0 0 1-.79-3.35l75.32-37.45a1.77 1.77 0 1 1 1.58 3.17l-75.32 37.45a1.8 1.8 0 0 1-.79.18zm26.24 13a1.77 1.77 0 0 1-.79-3.36l43.6-21.68a1.77 1.77 0 0 1 1.58 3.17l-43.6 21.68a1.7 1.7 0 0 1-.79.18zM426.23 586.67l8.61-4.29 4.58 9.2c.39.78.65 1.56.8 2.35a4.8 4.8 0 0 1-.85 3.69 6.16 6.16 0 0 1-1.8 1.66 9.41 9.41 0 0 1-2.79 1.17c-.7.16-1.44.21-2.24.15l-.12-2.77c.67.04 1.22.02 1.65-.08a6.3 6.3 0 0 0 1.38-.5c.3-.15.6-.37.9-.67.28-.29.5-.63.62-1.04.22-.76.1-1.6-.37-2.54l-3.33-6.7-5.8 2.88-1.24-2.51zm15.8 3.71a6.98 6.98 0 0 1-.75-2.5 5.3 5.3 0 0 1 1.45-4.19 7.35 7.35 0 0 1 2.06-1.47 7 7 0 0 1 2.51-.76 5.18 5.18 0 0 1 4.19 1.44 7.4 7.4 0 0 1 1.47 2.04c.43.87.68 1.7.76 2.5a5.3 5.3 0 0 1-1.46 4.19 7.3 7.3 0 0 1-2.06 1.47c-.86.44-1.7.69-2.51.77a5.2 5.2 0 0 1-4.19-1.44 7.4 7.4 0 0 1-1.47-2.05zm2.77-1.38c.22.46.5.85.8 1.17.32.32.67.57 1.04.74a2.72 2.72 0 0 0 2.44-.07c.8-.4 1.31-.98 1.56-1.73.25-.76.1-1.69-.44-2.79a3.97 3.97 0 0 0-1.85-1.95 2.69 2.69 0 0 0-2.43.12c-.39.19-.72.43-.99.7a2.3 2.3 0 0 0-.57 1c-.11.38-.14.8-.08 1.27.06.47.24.98.52 1.54zm4.27-13.69 4.16-2.07 2.63 5.28.08-.05c.1-.6.37-1.17.8-1.7a5 5 0 0 1 1.73-1.35 5.4 5.4 0 0 1 1.55-.52 3.09 3.09 0 0 1 2.86 1.04c.45.45.87 1.08 1.27 1.88l3.18 6.4-2.68 1.34-2.9-5.86c-.43-.84-.9-1.35-1.45-1.54s-1.1-.15-1.67.14a2.8 2.8 0 0 0-1.49 2.8l3.27 6.57-2.68 1.33-6.05-12.16-1.48.74-1.13-2.27zm14.66-2.15 3.6-1.8 1 1.21.08-.04a4.78 4.78 0 0 1 2.66-3.38 5.5 5.5 0 0 1 1.53-.5 3.05 3.05 0 0 1 1.48.1c.48.16.94.47 1.4.92.45.45.88 1.07 1.27 1.87l3.2 6.41-2.69 1.33-2.91-5.85c-.41-.84-.9-1.35-1.47-1.53a2.18 2.18 0 0 0-1.7.15c-.52.26-.9.64-1.18 1.14s-.37 1.01-.3 1.53l3.31 6.68-2.68 1.33-4-8.04-1.48.74-1.12-2.27zm23.47-16.81.62-.39a35.95 35.95 0 0 1 2.2-1.25l1.12-.58a8.76 8.76 0 0 1 3.45-1.02 5.47 5.47 0 0 1 2.75.55 6.58 6.58 0 0 1 2.17 1.8 15.42 15.42 0 0 1 2.82 5.68c.26 1 .32 1.99.17 2.94a6.01 6.01 0 0 1-1.23 2.75 8.7 8.7 0 0 1-3.1 2.34 27.37 27.37 0 0 1-1.92.88l-1.06.45c-.35.14-.61.24-.8.3l-7.19-14.45zm5.3.25c-.27.13-.52.27-.75.4l-.53.34 4.8 9.66c.07 0 .15-.04.27-.09l.35-.14.35-.15.27-.13c.8-.4 1.36-.85 1.7-1.39.32-.53.48-1.1.47-1.69 0-.6-.12-1.21-.35-1.85a17.75 17.75 0 0 0-1.7-3.45 5.2 5.2 0 0 0-1.2-1.33c-.46-.35-1-.57-1.6-.65-.6-.08-1.3.08-2.09.47zm11.37 3.03a7.06 7.06 0 0 1-.75-2.5 5.3 5.3 0 0 1 1.45-4.19 7.35 7.35 0 0 1 2.06-1.47c.87-.43 1.7-.69 2.52-.76a5.17 5.17 0 0 1 4.19 1.44 7.35 7.35 0 0 1 1.46 2.04c.43.87.69 1.7.76 2.5a5.3 5.3 0 0 1-1.46 4.19 7.37 7.37 0 0 1-2.05 1.48c-.87.43-1.7.68-2.52.76a5.16 5.16 0 0 1-4.19-1.44 7.34 7.34 0 0 1-1.47-2.05zm2.77-1.37c.22.45.5.84.8 1.16.32.33.67.57 1.05.75a2.7 2.7 0 0 0 2.43-.08c.8-.4 1.32-.98 1.57-1.73.24-.76.1-1.69-.45-2.79a3.97 3.97 0 0 0-1.84-1.95 2.7 2.7 0 0 0-2.44.12c-.39.2-.72.43-.99.71-.27.28-.46.61-.57 1s-.13.8-.07 1.26c.06.47.23.98.5 1.55zm21.91-5.83c-.1.25-.25.53-.45.83s-.46.6-.77.93a8.63 8.63 0 0 1-2.47 1.8 8 8 0 0 1-2.54.8c-.82.1-1.58.02-2.3-.2a5.3 5.3 0 0 1-1.96-1.17 7.12 7.12 0 0 1-1.51-2.1 6.7 6.7 0 0 1-.75-2.59 5.28 5.28 0 0 1 1.6-4.18 7.62 7.62 0 0 1 3.73-2.03 4.99 4.99 0 0 1 1.9-.05c.63.1 1.23.36 1.8.78s1.09 1.06 1.52 1.92c.3.6.54 1.27.74 2.02l-7.42 3.7a2.43 2.43 0 0 0 1.88 1.38c.38.04.78.02 1.18-.07a6.71 6.71 0 0 0 3.12-1.74c.44-.46.75-.9.94-1.35l1.76 1.32zm-8.11-5.15c-.36.18-.67.4-.94.65s-.48.54-.64.85a2.59 2.59 0 0 0-.1 2.11l5.07-2.52a2.53 2.53 0 0 0-1.38-1.35c-.57-.2-1.24-.12-2.01.26zM1218.2 946.9a66.79 66.79 0 0 1-60.46-38.62c-15.15-32.56-1.76-71.28 29.82-87.3l-.01-.04 1.81-.85 241.16-112.2 1.79 3.84-240.42 111.86-.73.34c-30.76 14.46-44.03 51.5-29.58 82.56 14.45 31.06 51.33 44.77 82.2 30.55l1.54-.7 239.62-111.5 1.78 3.85-243.02 113.07-.02-.05a65.24 65.24 0 0 1-25.47 5.18zm206.43-21.07-.93-1.55 1.71-1.03-.84-1.81 142.72-66.4v.04l129.63-60.32c14.26-6.7 20.4-23.86 13.7-38.26-6.69-14.4-23.78-20.75-38.09-14.16l-8.8 4.1-1.69-3.63 10.37-4.82.03.04c15.96-6.36 34.43.92 41.8 16.79a32.89 32.89 0 0 1-13.13 42.26l.1.1-2.6 1.21-136.28 63.41v-.04l-137.7 64.07z"/><path fill="#231F20" d="m1710.4 756.1-54.16-116.48c-6.7-14.4-23.78-20.75-38.09-14.16l-9.65 4.48-1.7-3.62 10.94-5.09.03.03c16.02-6.56 34.68.7 42.1 16.67l54.17 116.48-3.63 1.68z"/><path fill="#2E9AFF" d="m1640.13 774.83-118.77 55.25a32 32 0 0 1-42.52-15.51l12.66 27.2a32 32 0 0 0 42.51 15.51l118.77-55.25a32 32 0 0 0 15.52-42.52l-12.66-27.2a32 32 0 0 1-15.51 42.52z"/><path fill="#FFF" d="M1520.54 862.28a34.15 34.15 0 0 1-30.85-19.67l-12.65-27.19v-.01l3.62-1.69a30.13 30.13 0 0 0 27.22 17.36c4.38 0 8.63-.95 12.64-2.81L1639.29 773a29.8 29.8 0 0 0 15.52-16.92 29.8 29.8 0 0 0-.97-22.91l-.01-.02 3.63-1.7 12.65 27.2c7.9 17 .51 37.27-16.48 45.18l-118.77 55.25a33.67 33.67 0 0 1-14.32 3.19zm-33.15-34.09 5.93 12.73a30.12 30.12 0 0 0 27.22 17.36c4.38 0 8.63-.95 12.63-2.81l118.77-55.26a30.04 30.04 0 0 0 14.55-39.86l-5.9-12.66a33.7 33.7 0 0 1-2.02 9.78 33.77 33.77 0 0 1-17.6 19.17l-118.76 55.26a33.74 33.74 0 0 1-14.32 3.18 34.07 34.07 0 0 1-20.5-6.89z"/><path fill="#FFF" d="M1507.89 835.08a34.14 34.14 0 0 1-30.86-19.67l-55.25-118.76a33.76 33.76 0 0 1-1.12-26 33.78 33.78 0 0 1 17.6-19.17l118.77-55.26a33.75 33.75 0 0 1 14.32-3.18 34.14 34.14 0 0 1 30.85 19.66l55.26 118.77a33.76 33.76 0 0 1 1.11 26 33.78 33.78 0 0 1-17.6 19.17l-118.76 55.26a33.69 33.69 0 0 1-14.32 3.18zm63.46-238.04c-4.38 0-8.63.95-12.63 2.8l-118.77 55.27a29.8 29.8 0 0 0-15.53 16.91 29.8 29.8 0 0 0 .98 22.94l55.26 118.77a30.13 30.13 0 0 0 27.22 17.35c4.39 0 8.64-.94 12.64-2.8L1639.3 773a29.8 29.8 0 0 0 15.52-16.91 29.81 29.81 0 0 0-.98-22.94l-55.26-118.77a30.13 30.13 0 0 0-27.22-17.35z"/><circle fill="#FFF" cx="1554.21" cy="703.38" r="55.78"/><path fill="#2E9AFF" d="M1594.29 685.06a42.51 42.51 0 0 1-48.3-26.86l-.38.06-.47-1.42a14.85 14.85 0 0 0-14.02-10.08 14.8 14.8 0 0 0-11.45 24.13l.94 1.16-.98 1.12a45.95 45.95 0 0 0-7 49.67 46.1 46.1 0 0 0 42.63 26.44l1.49-.03.28 1.46a14.82 14.82 0 0 0 14.53 11.98 14.8 14.8 0 0 0 12.58-22.52l-.79-1.28.26-.22a42.45 42.45 0 0 1 10.68-53.61zm-61.11-32.3-5.7 13.88a1.77 1.77 0 1 1-3.27-1.34l5.69-13.88a1.77 1.77 0 1 1 3.28 1.34zm45.6 97.4a1.77 1.77 0 1 1-1.08 3.38l-14.3-4.52a1.77 1.77 0 1 1 1.07-3.38l14.3 4.52z"/><path d="M1585.84 684.9c3.4 0 6.68-.41 9.84-1.19a46.1 46.1 0 0 0-48.59-25.69l-.09.02a41.58 41.58 0 0 0 38.84 26.86z"/><path fill="#231F20" d="M1585.84 685.9c2.9 0 5.72-.3 8.45-.85l.9-.7a42.02 42.02 0 0 1-48.7-26.23l-.5.08a42.6 42.6 0 0 0 39.85 27.7z"/><path fill="#231F20" d="M1585.84 685.4c3.22 0 6.34-.37 9.35-1.06l.59-.43-.1-.2a41.59 41.59 0 0 1-48.67-25.67l-.52.08a42.03 42.03 0 0 0 39.35 27.28z"/><path d="M1579.35 718.2c0 7.17 1.82 13.9 5.03 19.8l.1-.1a46.12 46.12 0 0 0 11.7-53.06 41.5 41.5 0 0 0-16.83 33.37z"/><path fill="#231F20" d="M1578.85 718.2a41.94 41.94 0 0 1 16.53-33.4c-.36.1-.73.18-1.1.26a42.45 42.45 0 0 0-10.67 53.6l.37-.32a41.82 41.82 0 0 1-5.13-20.13z"/><path fill="#231F20" d="m1594.29 685.06 1.09-.25.6-.45-.08-.18-.7.16-.91.72z"/><path fill="#231F20" d="M1595.9 684.18c-.05-.08-.08-.17-.12-.26l-.59.42.7-.16zm-17.05 34.02a41.8 41.8 0 0 0 5.14 20.14l.4-.35a41.48 41.48 0 0 1 11.8-53.15l-.09-.2-.72.17a41.94 41.94 0 0 0-16.53 33.4z"/><path fill="#231F20" d="m1596.1 684.64-.13-.28-.59.45c.24-.06.48-.1.72-.17z"/><path d="m1588.15 740.13-.27-.53a49.7 49.7 0 0 0 11.1-57.18 49.66 49.66 0 0 0-51.02-28.1l-.24-.54a18.4 18.4 0 0 0-16.6-10.56 18.35 18.35 0 0 0-15.08 28.72 49.49 49.49 0 0 0-6.62 52.4 49.67 49.67 0 0 0 44.48 28.5 18.41 18.41 0 0 0 17.66 13.4 18.35 18.35 0 0 0 16.58-26.1zm-9.58 22.77a16.56 16.56 0 0 1-23.28-11.85 47.7 47.7 0 0 1-37-79.04 16.56 16.56 0 1 1 25.77-20.77 17.08 17.08 0 0 1 1.52 2.27c.18.34.37.67.54 1.02.27.58.5 1.16.7 1.75a47.7 47.7 0 0 1 50.41 26.6l.15.3.03.07.03.07c.07.13.12.26.18.4l.04.08.16.37a47.7 47.7 0 0 1-12.17 55.06 16.15 16.15 0 0 1 2.17 5.68 16.55 16.55 0 0 1-9.25 17.99z"/><path d="m1583.61 738.67-.26.22.8 1.28a14.8 14.8 0 0 1-12.58 22.52 14.85 14.85 0 0 1-14.53-11.98l-.3-1.46-1.48.03a46.1 46.1 0 0 1-42.63-26.44 45.95 45.95 0 0 1 7-49.67l.98-1.12-.94-1.16a14.8 14.8 0 0 1 11.45-24.13 14.85 14.85 0 0 1 14.02 10.08l.47 1.42.38-.06a42.1 42.1 0 0 1-1.93-6.95A16.55 16.55 0 1 0 1518.3 672a47.7 47.7 0 0 0 37 79.05 16.56 16.56 0 0 0 32.52-6.14 42.95 42.95 0 0 1-4.2-6.25z"/><path d="M1547.1 658.02a46.1 46.1 0 0 1 48.59 25.69l.54-.13 1-.7a47.7 47.7 0 0 0-50.41-26.6c-.2-.6-.43-1.18-.7-1.75-.16-.35-.35-.68-.54-1.02a41 41 0 0 0 1.43 4.53l.08-.01zm-.61.1c-.72-1.92-1.3-3.9-1.74-5.94l-.68-.94a41.6 41.6 0 0 0 1.92 6.96l.5-.08z"/><path d="M1547 658.04a41.14 41.14 0 0 1-1.42-4.53c-.26-.46-.53-.9-.83-1.33a42.09 42.09 0 0 0 1.74 5.94l.51-.08zm49.23 25.55-.56.13.1.2c.15-.12.3-.23.46-.33zm-.04 1.26a46.13 46.13 0 0 1-11.7 53.05l-.1.1c.83 1.53 1.76 3 2.78 4.41a16.75 16.75 0 0 0-1.52-3.17 47.7 47.7 0 0 0 12.18-55.07l-1.15.33-.5.35z"/><path d="m1597.82 684.17-.16-.37-.99.7c.4-.1.77-.22 1.15-.33zm-14.21 54.5c1.22 2.2 2.63 4.3 4.2 6.24-.06-.35-.12-.7-.21-1.06a41.63 41.63 0 0 1-3.62-5.51l-.37.33zm13.8-55.42c0-.03-.02-.05-.03-.08l-.14-.3-1 .72c.39-.1.78-.23 1.17-.34zm-1.02.82-.5.11.08.18.42-.3z"/><path d="M1595.77 683.91v.01l.12.26.5-.11c.35-.26.7-.51 1.06-.75l-.04-.07-1.18.34-.46.32zm.9.59-.57.14.09.2.48-.34zm-12.69 53.84a42.03 42.03 0 0 0 3.62 5.51c-.12-.48-.26-.96-.43-1.44a41.42 41.42 0 0 1-2.8-4.41l-.39.34z"/><path d="m1595.97 684.36.13.28.57-.14c.33-.24.65-.48.99-.7l-.04-.09c-.4.12-.82.25-1.23.35l-.42.3z"/><path d="m1597.62 683.72-.17-.4c-.36.24-.71.5-1.06.75l1.23-.36zm-65.41-33.27c-.9-.37-1.94.06-2.31.97l-5.7 13.88a1.77 1.77 0 1 0 3.29 1.34l5.69-13.88c.37-.9-.06-1.94-.97-2.3zm30.04 96.35c-.3.93.22 1.93 1.15 2.22l14.3 4.52a1.77 1.77 0 1 0 1.07-3.38l-14.3-4.52c-.94-.3-1.93.23-2.22 1.16zm-18.94-54.75a6.29 6.29 0 1 1-5.33-11.4 6.29 6.29 0 0 1 5.33 11.4z"/><path fill="#231F20" d="M1540.65 693.14a6.81 6.81 0 0 1-6.39-9.1 6.74 6.74 0 0 1 6.39-4.48 6.81 6.81 0 0 1 6.38 9.1 6.76 6.76 0 0 1-6.38 4.48zm0-12.58a5.73 5.73 0 0 0-5.44 3.82 5.8 5.8 0 0 0 7.9 7.22 5.75 5.75 0 0 0 2.79-7.7 5.8 5.8 0 0 0-5.25-3.34z"/><path d="M1545.01 699.91a1.77 1.77 0 0 1-1.52-2.67 13.47 13.47 0 0 0-9.41-20.1 1.77 1.77 0 1 1 .58-3.5 17 17 0 0 1 11.88 25.4c-.33.56-.92.87-1.53.87z"/><circle cx="1558.05" cy="723.53" r="6.29"/><path fill="#231F20" d="M1558.05 730.32a6.8 6.8 0 1 1 .02-13.6 6.8 6.8 0 0 1-.02 13.6zm0-12.58a5.8 5.8 0 1 0 .02 11.6 5.8 5.8 0 0 0-.02-11.6z"/><path d="M1562.42 737.1a1.77 1.77 0 0 1-1.52-2.67 13.47 13.47 0 0 0-9.42-20.12 1.77 1.77 0 1 1 .58-3.49 17.01 17.01 0 0 1 11.89 25.4c-.33.56-.92.87-1.53.87zm-21.27-26.2a1.77 1.77 0 0 1-.75-3.37l8.29-3.89a1.77 1.77 0 1 1 1.5 3.2l-8.3 3.9c-.24.1-.5.16-.74.16z"/><path fill="#FFF" d="M1540.02 719a8.3 8.3 0 0 1-7.03-15.02"/><path d="m1470.34 687.62 4.12 8.7-9.28 4.4c-.79.37-1.58.62-2.37.74a4.8 4.8 0 0 1-3.66-.9 6.58 6.58 0 0 1-2.05-2.61 9.57 9.57 0 0 1-.7-2.04 7.15 7.15 0 0 1-.1-2.25l2.76-.06c-.05.67-.04 1.22.05 1.65s.24.89.48 1.39c.14.3.35.6.64.9.29.3.63.52 1.03.65.76.23 1.6.13 2.55-.32l6.77-3.2-2.78-5.85 2.54-1.2zm-4.01 15.73a7.14 7.14 0 0 1 2.52-.7 5.27 5.27 0 0 1 4.15 1.53 7.39 7.39 0 0 1 1.44 2.08c.41.88.65 1.72.71 2.53a5.23 5.23 0 0 1-1.52 4.16 7.4 7.4 0 0 1-2.07 1.43c-.87.41-1.71.65-2.52.71a5.25 5.25 0 0 1-4.15-1.53 7.3 7.3 0 0 1-1.44-2.09 7.22 7.22 0 0 1-.71-2.52 5.18 5.18 0 0 1 1.52-4.16 7.2 7.2 0 0 1 2.07-1.44zm1.32 2.79a4.6 4.6 0 0 0-1.18.79c-.33.31-.58.65-.76 1.02a2.68 2.68 0 0 0 .03 2.43 2.9 2.9 0 0 0 1.7 1.6c.75.27 1.68.14 2.8-.39a3.97 3.97 0 0 0 1.98-1.8 2.7 2.7 0 0 0-.07-2.44 3.61 3.61 0 0 0-.7-1c-.27-.28-.6-.48-.97-.6-.38-.11-.8-.14-1.27-.1-.47.06-.99.22-1.56.49zm13.61 4.53 2 4.2-5.33 2.53.04.08c.6.12 1.16.4 1.69.83a5 5 0 0 1 1.32 1.77c.25.52.4 1.04.48 1.55a3.08 3.08 0 0 1-1.09 2.84c-.46.44-1.1.85-1.9 1.23l-6.47 3.06-1.28-2.7 5.9-2.8c.85-.4 1.38-.87 1.58-1.41.2-.54.17-1.1-.1-1.68a2.6 2.6 0 0 0-1.14-1.2 2.86 2.86 0 0 0-1.63-.34l-6.64 3.14-1.28-2.7 12.27-5.82-.71-1.5 2.3-1.08zm1.87 14.71 1.73 3.64-1.22.96.03.08a4.8 4.8 0 0 1 3.33 2.73c.25.51.4 1.03.48 1.54.08.52.03 1.01-.14 1.48s-.48.93-.94 1.38a7.1 7.1 0 0 1-1.9 1.24l-6.46 3.06-1.29-2.7 5.91-2.8c.85-.4 1.37-.88 1.56-1.44a2.2 2.2 0 0 0-.12-1.71 2.62 2.62 0 0 0-1.11-1.2c-.5-.27-1-.39-1.52-.33l-6.74 3.2-1.28-2.71 8.11-3.84-.7-1.5 2.28-1.09zm16.37 23.78a73.57 73.57 0 0 1 .95 1.65 79.55 79.55 0 0 1 1.2 2.33 9 9 0 0 1 .95 3.47 5.47 5.47 0 0 1-.6 2.74 6.59 6.59 0 0 1-1.84 2.13 15.46 15.46 0 0 1-5.74 2.72 7.2 7.2 0 0 1-2.94.1 6.04 6.04 0 0 1-2.72-1.28 8.7 8.7 0 0 1-2.29-3.13 45.05 45.05 0 0 1-.83-1.95l-.43-1.07c-.13-.34-.24-.6-.3-.8l14.59-6.91zm-.35 5.29a9.08 9.08 0 0 0-.71-1.3l-9.76 4.63c.01.06.04.14.09.26l.14.36.14.35.12.27a4 4 0 0 0 1.36 1.72c.52.33 1.08.5 1.68.51.6 0 1.22-.1 1.86-.32a18.01 18.01 0 0 0 3.48-1.64c.54-.33 1-.72 1.35-1.17.37-.45.6-.98.68-1.58a3.7 3.7 0 0 0-.43-2.1zm-3.25 11.32a7.08 7.08 0 0 1 2.52-.71 5.25 5.25 0 0 1 4.16 1.54 7.32 7.32 0 0 1 1.43 2.08c.41.87.65 1.72.72 2.53a5.13 5.13 0 0 1-1.52 4.16 7.39 7.39 0 0 1-2.08 1.43 6.9 6.9 0 0 1-2.51.7 5.26 5.26 0 0 1-4.16-1.53 7.36 7.36 0 0 1-1.43-2.08 7.29 7.29 0 0 1-.72-2.53 5.18 5.18 0 0 1 1.52-4.16 7.29 7.29 0 0 1 2.07-1.43zm1.33 2.78a4.23 4.23 0 0 0-1.95 1.82c-.18.37-.27.76-.27 1.17s.1.83.3 1.26c.39.8.95 1.34 1.7 1.6.76.27 1.7.13 2.8-.4a3.99 3.99 0 0 0 1.98-1.8 2.7 2.7 0 0 0-.07-2.44 3.57 3.57 0 0 0-.69-1c-.27-.27-.6-.47-.98-.6-.38-.1-.8-.14-1.27-.09-.47.05-.99.22-1.55.48zm5.41 22.02c-.25-.1-.52-.25-.82-.46a7.78 7.78 0 0 1-1.85-1.9 9.11 9.11 0 0 1-1.57-3.95 5.27 5.27 0 0 1 1.45-4.23 7.2 7.2 0 0 1 2.12-1.47 6.73 6.73 0 0 1 2.6-.7 5.31 5.31 0 0 1 4.16 1.67 7.57 7.57 0 0 1 1.96 3.77c.12.63.13 1.26.01 1.9a4.27 4.27 0 0 1-.81 1.8 5.13 5.13 0 0 1-1.95 1.47c-.6.28-1.28.52-2.04.7l-3.55-7.48a2.47 2.47 0 0 0-1.41 1.85c-.06.38-.05.78.04 1.18a6.67 6.67 0 0 0 1.69 3.15c.44.45.88.77 1.32.97l-1.35 1.73zm5.3-8a3.77 3.77 0 0 0-.63-.96 2.96 2.96 0 0 0-1.86-.95 2.5 2.5 0 0 0-1.1.16l2.43 5.11a2.5 2.5 0 0 0 1.38-1.35c.22-.57.15-1.24-.22-2.02zM1361.41 953.6c-6.2 0-11.9-3.64-14.51-9.26l-21.1-45.33 104.87-48.8 21.1 45.33c3.72 8 .24 17.54-7.76 21.26l-75.86 35.3c-2.13 1-4.4 1.5-6.74 1.5zm-30.3-52.65 19.41 41.7a12.04 12.04 0 0 0 15.95 5.82l75.85-35.3c6-2.79 8.6-9.94 5.82-15.94l-19.4-41.7-11.04 5.13 18.7 40.2-75.25 35-18.7-40.19-11.33 5.28zm15.11-6.66 16.87 36.26 68-31.63-16.87-36.27-68 31.64z" fill="#231F20"/><path fill="#231F20" d="m1388.65 923.1-20.15-43.3 18.6-8.65 20.14 43.3-18.6 8.65zm-15.05-41.44 16.9 36.34 11.64-5.41-16.9-36.34-11.64 5.4z"/><path fill="#FFF" d="M1254.36 878.57c-7.4 0-13.43-6.02-13.43-13.42a13.43 13.43 0 0 1 26.85 0c0 7.4-6.02 13.42-13.42 13.42zm0-23a9.6 9.6 0 0 0 0 19.16 9.6 9.6 0 0 0 0-19.16zm70.72-9.9c-7.4 0-13.42-6.02-13.42-13.42s6.02-13.42 13.41-13.42c7.4 0 13.43 6.02 13.43 13.42s-6.03 13.42-13.42 13.42zm0-23a9.6 9.6 0 0 0 0 19.16 9.6 9.6 0 0 0 0-19.16zm70.72-9.9c-7.4 0-13.42-6.03-13.42-13.42 0-7.4 6.02-13.42 13.42-13.42s13.42 6.02 13.42 13.42-6.03 13.42-13.42 13.42zm0-23a9.6 9.6 0 1 0 9.58 9.58 9.6 9.6 0 0 0-9.58-9.58z"/></svg>