<svg xmlns="http://www.w3.org/2000/svg" viewBox="0 0 1451 846"><path d="M387.72 142.46a9.14 9.14 0 0 0 0 18.25 9.14 9.14 0 0 0 0-18.25Z"/><path fill="#231f20" d="M387.72 161.21a9.64 9.64 0 0 1 0-19.25 9.64 9.64 0 0 1 0 19.25Zm0-18.25a8.64 8.64 0 0 0 0 17.25 8.64 8.64 0 0 0 0-17.25Z"/><path d="M1053.32 108.7H304.98a29.2 29.2 0 0 0-29.2 29.2v182.18l141.75 285.07h635.79a29.2 29.2 0 0 0 29.2-29.2V137.9a29.2 29.2 0 0 0-29.2-29.2Zm-665.6 55.66a12.79 12.79 0 0 1 0-25.55 12.79 12.79 0 0 1 0 25.55Z"/><path fill="#231f20" d="M1053.32 605.65h-636.1l-.14-.27-141.8-285.19V137.9a29.74 29.74 0 0 1 29.7-29.7h748.34a29.5 29.5 0 0 1 21 8.7 29.5 29.5 0 0 1 8.7 21v438.06a29.74 29.74 0 0 1-29.7 29.7Zm-635.48-1h635.48a28.73 28.73 0 0 0 28.7-28.7V137.9a28.5 28.5 0 0 0-8.4-20.3 28.52 28.52 0 0 0-20.3-8.4H304.98a28.73 28.73 0 0 0-28.7 28.7v182.06Zm-30.12-439.79a13.29 13.29 0 0 1-13.27-13.27c0-7.32 5.95-13.28 13.27-13.28a13.3 13.3 0 0 1 9.38 22.66 13.18 13.18 0 0 1-9.38 3.9Zm0-25.55a12.29 12.29 0 0 0 0 24.55 12.2 12.2 0 0 0 8.68-3.6c2.31-2.3 3.6-5.42 3.6-8.67a12.3 12.3 0 0 0-12.28-12.28Z"/><path fill="#fff" d="M550.71 303.53a95.14 95.14 0 1 1-190.28 0 95.14 95.14 0 0 1 190.28 0Z"/><path d="M455.57 400.67c-53.56 0-97.14-43.57-97.14-97.14 0-53.56 43.57-97.14 97.14-97.14 53.56 0 97.14 43.58 97.14 97.14 0 53.57-43.58 97.14-97.14 97.14Zm0-190.28c-51.36 0-93.14 41.78-93.14 93.14s41.78 93.15 93.14 93.15 93.14-41.79 93.14-93.15c0-51.36-41.78-93.14-93.14-93.14Z"/><path fill="#2e9aff" d="M536.88 280.7c-1.08 0-2.15.06-3.2.19a81.34 81.34 0 0 0-156.22 0 28.23 28.23 0 1 0 3.69 55.42 81.32 81.32 0 0 0 148.85 0 28.23 28.23 0 1 0 6.88-55.6Z"/><path fill="none" d="M536.88 280.7c-1.08 0-2.15.06-3.2.19a81.33 81.33 0 0 0-76.58-58.63c-5.3 34.6-35.27 61.19-71.33 61.19-6 0-11.81-.75-17.38-2.13a28.23 28.23 0 1 0 12.76 54.99 81.32 81.32 0 0 0 148.85 0 28.23 28.23 0 1 0 6.88-55.6Z"/><path d="M456.08 222.23h-.5a81.34 81.34 0 0 0-78.12 58.66 28.48 28.48 0 0 0-6.46 0 71.14 71.14 0 0 0 14.77 1.55c35.51 0 65.03-26.15 70.31-60.2Z"/><path fill="#231f20" d="M457.1 222.25h-.5a71.68 71.68 0 0 1-87 58.84c-.4.07-.8.14-1.2.23a72.02 72.02 0 0 0 17.37 2.12c36.06 0 66.03-26.58 71.33-61.19Z"/><path fill="#231f20" d="m456.6 222.25-.51-.02c-5.29 34.06-34.8 60.21-70.32 60.21-5.06 0-10-.54-14.77-1.55-.47.06-.94.12-1.4.2a71.68 71.68 0 0 0 87-58.85Z"/><path d="M598.33 211.28a71.66 71.66 0 1 1-143.32 0 71.66 71.66 0 1 1 143.32 0Z"/><path fill="#231f20" d="M526.67 283.44c-39.8 0-72.16-32.37-72.16-72.16s32.37-72.16 72.16-72.16a72.23 72.23 0 0 1 72.16 72.16 72.23 72.23 0 0 1-72.16 72.16Zm0-143.32a71.24 71.24 0 0 0-71.16 71.16 71.24 71.24 0 0 0 71.16 71.16 71.24 71.24 0 0 0 71.16-71.16 71.24 71.24 0 0 0-71.16-71.16Z"/><path d="M455.58 386.84A83.38 83.38 0 0 1 380 338.6a30.26 30.26 0 0 1-35.96-29.68 30.26 30.26 0 0 1 31.98-30.18c10.75-34.54 43.22-58.53 79.56-58.53 36.32 0 68.8 23.99 79.55 58.53a30.27 30.27 0 0 1 31.99 30.18 30.26 30.26 0 0 1-35.97 29.68 83.39 83.39 0 0 1-75.57 48.23Zm-73.28-52.88.68 1.54a79.38 79.38 0 0 0 72.6 47.34 79.39 79.39 0 0 0 72.6-47.34l.67-1.54 1.64.4a26.26 26.26 0 0 0 32.63-25.44 26.26 26.26 0 0 0-29.21-26.05l-1.68.2-.47-1.63c-9.75-33.69-41.08-57.22-76.19-57.22-35.1 0-66.44 23.53-76.19 57.22l-.47 1.63-1.67-.2a26.26 26.26 0 0 0-29.2 26.06 26.26 26.26 0 0 0 32.62 25.44Z"/><path d="M377.27 322.29a2 2 0 0 1-1.47-.65l-17.31-18.82a2 2 0 0 1 2.94-2.71l17.31 18.82a2 2 0 0 1-1.47 3.36Zm153.23 0a2 2 0 0 1-1.48-3.36l17.32-18.82a2 2 0 1 1 2.94 2.7l-17.31 18.83c-.38.41-.92.65-1.48.65Zm-100.32-10.12a10.73 10.73 0 1 1-21.46 0 10.73 10.73 0 0 1 21.46 0Z"/><path fill="#231f20" d="M419.45 323.4a11.24 11.24 0 0 1 0-22.46 11.23 11.23 0 0 1 0 22.45Zm0-21.46a10.24 10.24 0 0 0 0 20.45 10.24 10.24 0 0 0 0-20.45Z"/><path d="M440.83 315.94a2 2 0 0 1-1.65-.87 23.98 23.98 0 0 0-39.55 0 2 2 0 1 1-3.3-2.26 27.99 27.99 0 0 1 46.15 0 2 2 0 0 1-1.65 3.13Zm59.37-3.77a10.73 10.73 0 1 1-21.46 0 10.73 10.73 0 0 1 21.46 0Z"/><path fill="#231f20" d="M489.47 323.4a11.24 11.24 0 1 1 11.23-11.23c0 6.19-5.04 11.22-11.23 11.22Zm0-21.46a10.24 10.24 0 0 0 0 20.46 10.24 10.24 0 0 0 0-20.46Z"/><path d="M467.99 315.94a2 2 0 0 1-1.65-3.13 28 28 0 0 1 46.15 0 2 2 0 0 1-3.3 2.26 23.98 23.98 0 0 0-39.55 0 2 2 0 0 1-1.65.87ZM455 329.87a2 2 0 0 1-2-2v-15.63a2 2 0 1 1 4 0v15.63a2 2 0 0 1-2 2Z"/><path fill="#fff" d="M469.42 336.74a14.13 14.13 0 0 1-28.27 0"/><path fill="#fff" d="M1043.49 585.7H409.33v-4h634.16c8.96 0 16.25-7.3 16.25-16.25V148.4c0-8.96-7.29-16.25-16.25-16.25H314.81c-8.96 0-16.25 7.3-16.25 16.25V359h-4V148.4a20.28 20.28 0 0 1 20.25-20.25h728.68a20.27 20.27 0 0 1 20.25 20.25v417.05a20.28 20.28 0 0 1-20.25 20.25Z"/><path fill="#fff" d="M297.85 170.18h763.81v4H297.85Zm671.5 118.49H604.22a2 2 0 1 1 0-4h365.13a2 2 0 1 1 0 4ZM857 321.23H604.23a2 2 0 1 1 0-4H857a2 2 0 1 1 0 4Zm74.9 32.57H604.23a2 2 0 1 1 0-4H931.9a2 2 0 0 1 0 4Zm-149.8 32.56H604.22a2 2 0 1 1 0-4H782.1a2 2 0 1 1 0 4ZM607.15 227.47h13.27v14.16c0 1.2-.16 2.34-.46 3.4a6.64 6.64 0 0 1-3.3 4.03 8.63 8.63 0 0 1-3.26.95 12.97 12.97 0 0 1-4.16-.27 10 10 0 0 1-2.86-1.2l1.56-3.49c.8.47 1.5.78 2.08.92.58.15 1.25.23 2.02.23.46 0 .97-.1 1.5-.27a3.41 3.41 0 0 0 1.42-.9 4.79 4.79 0 0 0 1.11-3.37v-10.32h-8.92v-3.87Zm17.24 14.28c0-1.33.2-2.52.6-3.55a7.3 7.3 0 0 1 1.72-2.64 7.32 7.32 0 0 1 2.65-1.63 10.1 10.1 0 0 1 3.44-.56c1.34 0 2.53.2 3.57.6a7.13 7.13 0 0 1 4.29 4.35c.37 1.04.56 2.18.56 3.43 0 1.34-.2 2.52-.6 3.56a7.32 7.32 0 0 1-1.72 2.63 7.3 7.3 0 0 1-2.65 1.64 10.1 10.1 0 0 1-3.45.56 9.9 9.9 0 0 1-3.57-.6 7.13 7.13 0 0 1-4.29-4.35 10.1 10.1 0 0 1-.55-3.44Zm4.25 0c0 .7.1 1.35.29 1.94.19.6.47 1.11.82 1.56a3.72 3.72 0 0 0 3.05 1.4c1.23 0 2.23-.4 3-1.18.77-.78 1.16-2.02 1.16-3.72a5.5 5.5 0 0 0-1.08-3.54 3.72 3.72 0 0 0-3.08-1.35c-.6 0-1.14.1-1.65.27-.5.18-.96.48-1.32.88-.37.4-.66.9-.87 1.52a6.88 6.88 0 0 0-.32 2.22Zm13.69-14.28h6.41v8.12h.13a5.35 5.35 0 0 1 2.03-1.62 6.9 6.9 0 0 1 2.98-.6c.8 0 1.55.1 2.23.32.66.2 1.26.56 1.74 1.05.49.48.87 1.14 1.15 1.98.27.84.41 1.87.41 3.1v9.87h-4.13v-9.02c0-1.29-.27-2.22-.82-2.8a2.86 2.86 0 0 0-2.16-.85 3.88 3.88 0 0 0-3.55 2.54v10.13h-4.13v-18.73h-2.29v-3.5Zm19.43 6.34h5.56l.47 2.1h.13a6.29 6.29 0 0 1 2.1-1.78c.9-.5 2-.76 3.27-.76.74 0 1.49.1 2.2.32.7.21 1.28.56 1.76 1.05.5.48.88 1.14 1.16 1.98.29.84.43 1.87.43 3.1v9.87h-4.13v-9.02c0-1.29-.29-2.22-.87-2.8a3.02 3.02 0 0 0-2.2-.85 3.7 3.7 0 0 0-2.15.69 3.41 3.41 0 0 0-1.32 1.7v10.28h-4.12v-12.38h-2.29v-3.5Zm39.3-6.34a47.77 47.77 0 0 1 4.5-.29c.57-.02 1.15-.03 1.73-.03 1.97 0 3.6.28 4.89.85a7.54 7.54 0 0 1 3.06 2.37c.75 1 1.28 2.19 1.57 3.56.3 1.36.45 2.85.45 4.46 0 1.46-.15 2.89-.45 4.29a9.93 9.93 0 0 1-1.6 3.72 8.29 8.29 0 0 1-3.2 2.64 12 12 0 0 1-5.26 1l-1.3-.03a112.93 112.93 0 0 1-4.39-.28v-22.26Zm6.39 3.55a14.07 14.07 0 0 0-2.03.13v14.89c.08.02.2.04.38.05l.52.03.52.03.42.02c1.22 0 2.2-.23 2.93-.69a4.32 4.32 0 0 0 1.64-1.79c.36-.74.6-1.58.7-2.51a25.13 25.13 0 0 0 .01-5.3 7.24 7.24 0 0 0-.66-2.38 4.46 4.46 0 0 0-1.58-1.78 5.1 5.1 0 0 0-2.85-.7Zm12.2 10.73c0-1.33.2-2.52.6-3.55a7.28 7.28 0 0 1 4.36-4.27 10.1 10.1 0 0 1 3.44-.56c1.34 0 2.53.2 3.58.6a7.12 7.12 0 0 1 4.29 4.35c.36 1.04.55 2.18.55 3.43 0 1.34-.2 2.52-.6 3.56a7.34 7.34 0 0 1-1.72 2.63 7.3 7.3 0 0 1-2.65 1.64c-1.03.37-2.18.56-3.45.56-1.33 0-2.52-.2-3.57-.6a7.12 7.12 0 0 1-4.29-4.35 10.14 10.14 0 0 1-.55-3.44Zm4.25 0c0 .7.1 1.35.28 1.94.19.6.47 1.11.83 1.56a3.74 3.74 0 0 0 3.04 1.4c1.23 0 2.23-.4 3-1.18.78-.78 1.16-2.02 1.16-3.72a5.5 5.5 0 0 0-1.08-3.54 3.72 3.72 0 0 0-3.08-1.35c-.59 0-1.14.1-1.65.27-.5.18-.95.48-1.31.88-.37.4-.67.9-.88 1.52a6.82 6.82 0 0 0-.31 2.22Zm30.63 6.26c-.27.25-.63.5-1.06.75a10.6 10.6 0 0 1-3.44 1.19 12.43 12.43 0 0 1-5.86-.38 7.33 7.33 0 0 1-2.72-1.67 7.28 7.28 0 0 1-1.7-2.64 9.77 9.77 0 0 1-.58-3.5c0-1.4.22-2.63.66-3.67a7.33 7.33 0 0 1 4.54-4.2 10.43 10.43 0 0 1 5.86-.2c.85.2 1.66.58 2.37 1.1.72.52 1.3 1.2 1.76 2.08.45.86.68 1.96.68 3.3 0 .9-.1 1.9-.31 2.95h-11.44a3.4 3.4 0 0 0 1.48 2.86c.44.3.94.51 1.5.65.58.14 1.19.21 1.79.2 1.27 0 2.31-.14 3.13-.44a6.6 6.6 0 0 0 1.98-1.08Zm-6.85-11.34a5.3 5.3 0 0 0-1.56.23c-.47.14-.92.37-1.32.66-.39.3-.72.67-.96 1.09-.26.44-.42.94-.45 1.45h7.81c0-1.05-.29-1.89-.87-2.5-.58-.62-1.47-.93-2.65-.93ZM320.8 164.54a12.97 12.97 0 0 1-12.95-12.95c0-7.15 5.8-12.96 12.95-12.96a12.97 12.97 0 0 1 0 25.9Zm0-21.9a8.96 8.96 0 0 0 0 17.9 8.96 8.96 0 0 0 0-17.9Z"/><path fill="#2e9aff" d="M354.26 164.54a12.97 12.97 0 0 1-12.95-12.95c0-7.15 5.81-12.96 12.95-12.96s12.95 5.81 12.95 12.96c0 7.14-5.8 12.95-12.95 12.95Zm0-21.9a8.96 8.96 0 0 0 0 17.9 8.96 8.96 0 0 0 0-17.9Z"/><path fill="#fff" d="M695.08 488.85H367.4a2 2 0 1 1 0-4h327.68a2 2 0 1 1 0 4Zm-149.8 32.57H367.4a2 2 0 1 1 0-4h177.87a2 2 0 1 1 0 4Z"/><path fill="#2e9aff" d="M1307.42 50.7a35.22 35.22 0 1 1-70.44 0 35.22 35.22 0 0 1 70.44 0Z"/><path fill="#fff" d="M1272.2 87.92a37.26 37.26 0 0 1-37.22-37.22 37.26 37.26 0 0 1 37.22-37.22 37.26 37.26 0 0 1 37.22 37.22 37.26 37.26 0 0 1-37.22 37.22Zm0-70.44a33.26 33.26 0 0 0-33.22 33.22 33.26 33.26 0 0 0 33.22 33.22 33.26 33.26 0 0 0 33.22-33.22 33.26 33.26 0 0 0-33.22-33.22Z"/><path fill="#2e9aff" d="M1257.57 63.87a61.01 61.01 0 0 0-3.69-60.92 61 61 0 0 0-50.93 33.65"/><path fill="#fff" d="m1259.36 64.77-3.58-1.79a59.27 59.27 0 0 0-2.94-57.96 59.27 59.27 0 0 0-48.1 32.47l-3.58-1.79a63.27 63.27 0 0 1 52.6-34.75l1.15-.07.64.96a63.28 63.28 0 0 1 3.8 62.93Z"/><path fill="#fff" d="m1231.79 51.65-3.58-1.78 23.87-47.8 3.58 1.8Z"/><path fill="#2e9aff" d="M1258.4 64.7a61 61 0 0 1 60.92 3.68 61 61 0 0 1-33.65 50.93"/><path fill="#fff" d="m1286.56 121.1-1.78-3.58a59.26 59.26 0 0 0 32.46-48.1 59.27 59.27 0 0 0-57.96-2.94l-1.78-3.58a63.28 63.28 0 0 1 62.92 3.81l.97.64-.08 1.16a63.27 63.27 0 0 1-34.75 52.59Z"/><path fill="#fff" d="m1272.4 94.05-1.79-3.58 47.79-23.86 1.78 3.58Z"/><path fill="#2e9aff" d="M948.48 148.13a49.3 49.3 0 1 1-98.62 0 49.3 49.3 0 0 1 98.62 0Z"/><path fill="#fff" d="M899.17 199.44a51.37 51.37 0 0 1-51.3-51.3c0-28.3 23-51.32 51.3-51.32a51.36 51.36 0 0 1 51.3 51.31 51.36 51.36 0 0 1-51.3 51.31Zm0-98.61a47.36 47.36 0 0 0-47.3 47.3 47.36 47.36 0 0 0 47.3 47.31 47.36 47.36 0 0 0 47.3-47.3 47.36 47.36 0 0 0-47.3-47.31Z"/><path fill="#2e9aff" d="M1222.42 422.08a49.3 49.3 0 1 1-98.61 0 49.3 49.3 0 0 1 98.62 0Z"/><path fill="#fff" d="M1173.12 473.39a51.37 51.37 0 0 1-51.31-51.31c0-28.3 23.02-51.3 51.3-51.3 28.3 0 51.32 23 51.32 51.3 0 28.3-23.02 51.3-51.31 51.3Zm0-98.62a47.36 47.36 0 0 0-47.31 47.31 47.36 47.36 0 0 0 47.3 47.3 47.36 47.36 0 0 0 47.32-47.3 47.36 47.36 0 0 0-47.31-47.3Z"/><path fill="#2e9aff" d="M1191.98 440.94c-122.25 122.25-290.9 151.8-376.69 66.01-85.79-85.8-56.23-254.44 66.02-376.69 122.25-122.24 290.9-151.8 376.69-66 85.79 85.79 56.23 254.43-66.02 376.68Z"/><path fill="#fff" d="M944.45 558.06c-52.93 0-98.08-17.18-130.58-49.67-41.96-41.97-58.14-104.63-45.56-176.44 12.54-71.54 52.17-143.67 111.58-203.08 72.44-72.45 165.5-115.7 248.94-115.7 52.93 0 98.08 17.18 130.58 49.68 41.96 41.97 58.14 104.63 45.56 176.43-12.54 71.55-52.17 143.68-111.58 203.09-72.44 72.44-165.5 115.7-248.94 115.7Zm184.38-540.88c-82.4 0-174.4 42.81-246.11 114.52-121.28 121.27-150.9 288.99-66.02 373.86 31.73 31.73 75.9 48.5 127.75 48.5 82.4 0 174.4-42.8 246.11-114.52 58.84-58.84 98.07-130.2 110.47-200.95 12.35-70.48-3.43-131.9-44.45-172.9-31.73-31.74-75.9-48.51-127.75-48.51Z"/><path fill="#fff" d="M1162.1 411.05c-103.05 103.04-242.74 130.4-312.03 61.12-69.28-69.29-41.9-208.98 61.13-312.02 103.04-103.04 242.74-130.4 312.02-61.12 69.28 69.29 41.91 208.98-61.13 312.02Z"/><path fill="#2e9aff" d="M589.65 820.7c82.02-96.02 208.21-229.75 261.98-292.7h-.01a41.41 41.41 0 0 0-58.38-58.37v-.01C730.3 523.39 596.57 649.58 500.56 731.6a63.21 63.21 0 1 0 89.1 89.1Z"/><path fill="#fff" d="M541.44 845.02a64.78 64.78 0 0 1-46.1-19.1 65.29 65.29 0 0 1 3.92-95.85c53.05-45.31 118.06-104.53 175.42-156.77 45.81-41.73 89.09-81.14 117.26-105.2l1.67-1.44.04.06a43.42 43.42 0 0 1 57.19 3.68 43.61 43.61 0 0 1 3.55 57.36l.04.03-1.28 1.51c-24.08 28.2-63.53 71.51-105.3 117.37C695.64 704 636.46 768.97 591.17 822a64.78 64.78 0 0 1-49.73 23.03Zm251.42-372.45c-28.15 24.14-70.6 62.8-115.49 103.69-57.38 52.26-122.42 111.5-175.51 156.86a61.28 61.28 0 0 0-3.7 89.97 60.8 60.8 0 0 0 43.28 17.93 60.8 60.8 0 0 0 46.68-21.62c45.34-53.07 104.54-118.07 156.77-175.42 41-45.03 79.78-87.6 103.93-115.77l1.28-1.51a39.58 39.58 0 0 0-2.1-53.47 39.13 39.13 0 0 0-27.85-11.54 39.4 39.4 0 0 0-25.6 9.45l-1.68 1.44Z"/><path fill="#2e9aff" d="m572.07 807.68.1-.1.04-.04 264.86-291.02a22.9 22.9 0 0 0-32.34-32.34L513.7 749.04l-.03.03-.12.1c-.47.45-.94.89-1.4 1.35a41.41 41.41 0 1 0 59.91 57.16Z"/><path fill="#fff" d="M541.44 823.22c-11.6 0-22.5-4.51-30.7-12.72a43.47 43.47 0 0 1 .38-61.77l1.25-1.17 264.12-240.38 26.9-24.48a24.82 24.82 0 0 1 16.75-6.48c6.65 0 12.9 2.59 17.6 7.29a24.85 24.85 0 0 1 .8 34.35l-207 227.45-57.9 63.62-2.14 2.44-.07-.17a43.12 43.12 0 0 1-30 12.02Zm-25.52-73.49-1 .92a39.46 39.46 0 0 0-1.34 57.02 39.16 39.16 0 0 0 27.86 11.55 39.17 39.17 0 0 0 29.15-12.89l2.16-2.36 64.92-71.34L835.6 515.17a20.85 20.85 0 0 0-.68-28.84 20.76 20.76 0 0 0-14.77-6.11c-5.2 0-10.22 1.93-14.06 5.44Z"/><path fill="#2e9aff" d="M630.89 741.4a36.09 36.09 0 0 1 0-51.04 36.09 36.09 0 0 1-51.04 0"/><path fill="#fff" d="M630.89 743.4a2 2 0 0 1-1.41-.6 38.16 38.16 0 0 1-7.2-43.82 38.16 38.16 0 0 1-43.84-7.2 2 2 0 1 1 2.83-2.83 34.13 34.13 0 0 0 48.2 0 2 2 0 1 1 2.83 2.82 34.13 34.13 0 0 0 0 48.21 2 2 0 0 1-1.41 3.42Z"/><path fill="#2e9aff" d="M729.17 553.6a27.2 27.2 0 0 1 0 38.48 27.21 27.21 0 0 1 38.48 0"/><path fill="#fff" d="M729.17 594.08a2 2 0 0 1-2-2 2 2 0 0 1 .59-1.42 25.05 25.05 0 0 0 7.38-17.82c0-6.74-2.62-13.07-7.38-17.83a2 2 0 0 1 2.83-2.83 29.02 29.02 0 0 1 8.55 20.66c0 4.1-.84 8.07-2.43 11.72a29.26 29.26 0 0 1 32.36 6.1 2 2 0 1 1-2.83 2.83 25.24 25.24 0 0 0-35.65 0 2 2 0 0 1-1.42.59Z"/><path fill="#2e9aff" d="M533.66 734.71a37.39 37.39 0 0 1 0 52.88 37.4 37.4 0 0 1 52.88 0"/><path fill="#fff" d="M586.54 789.6c-.53 0-1.04-.22-1.41-.6a35.44 35.44 0 0 0-50.06 0 2 2 0 0 1-2.83-2.82 35.16 35.16 0 0 0 10.37-25.02c0-9.46-3.68-18.35-10.37-25.03a2 2 0 1 1 2.83-2.83 39.14 39.14 0 0 1 11.54 27.86c0 6.23-1.44 12.24-4.16 17.65a39.46 39.46 0 0 1 45.5 7.37 2 2 0 0 1-1.41 3.41Z"/><path fill="#2e9aff" d="M638.2 692.88a9.83 9.83 0 1 1-19.66 0 9.83 9.83 0 0 1 19.66 0Z"/><path fill="#fff" d="M628.37 704.7a11.84 11.84 0 0 1 0-23.66 11.84 11.84 0 0 1 0 23.67Zm0-19.66a7.84 7.84 0 0 0 0 15.67 7.84 7.84 0 0 0 0-15.67Z"/><path fill="#2e9aff" d="M738.75 592.33a9.83 9.83 0 1 1-19.66 0 9.83 9.83 0 0 1 19.66 0Z"/><path fill="#fff" d="M728.92 604.16a11.85 11.85 0 0 1 0-23.67c6.53 0 11.84 5.31 11.84 11.84 0 6.52-5.31 11.83-11.84 11.83Zm0-19.67a7.84 7.84 0 0 0 0 15.67 7.84 7.84 0 0 0 0-15.67Z"/><path fill="#2e9aff" d="M543.91 787.28a9.83 9.83 0 1 1-19.66 0 9.83 9.83 0 0 1 19.66 0Z"/><path fill="#fff" d="M534.08 799.1a11.84 11.84 0 0 1 0-23.66 11.85 11.85 0 0 1 0 23.66Zm0-19.66a7.84 7.84 0 0 0 0 15.67 7.84 7.84 0 0 0 0-15.67Zm101.62-91.89a2 2 0 0 1-1.42-3.41l85.28-85.28a2 2 0 1 1 2.83 2.83l-85.28 85.28a2 2 0 0 1-1.41.58Zm552.09-497.58a55.47 55.47 0 1 1-110.95 0 55.47 55.47 0 0 1 110.95 0Z"/><path fill="#231f20" d="M1132.31 247.44a57.54 57.54 0 0 1-57.47-57.47 57.54 57.54 0 0 1 57.47-57.48 57.54 57.54 0 0 1 57.48 57.47 57.54 57.54 0 0 1-57.48 57.48Zm0-110.94a53.53 53.53 0 0 0-53.47 53.47 53.53 53.53 0 0 0 53.47 53.47 53.53 53.53 0 0 0 53.48-53.47 53.53 53.53 0 0 0-53.48-53.47Z"/><path fill="#2e9aff" d="M1157.38 181.25c0-8.05 2.26-15.58 6.18-22a42.2 42.2 0 0 1-54.05-8.58l-.57.32-1.05-1.31a14.36 14.36 0 0 0-11.32-5.47 14.38 14.38 0 0 0-10.23 4.24 14.37 14.37 0 0 0-4.24 10.22 14.37 14.37 0 0 0 7.04 12.41l1.45.87-.61 1.57a45.45 45.45 0 0 0 10.23 48.55 45.1 45.1 0 0 0 32.1 13.3c5.66 0 11.2-1.03 16.45-3.07l1.57-.6.87 1.44a14.37 14.37 0 0 0 12.41 7.04c3.86 0 7.5-1.5 10.22-4.24a14.37 14.37 0 0 0 4.24-10.23 14.35 14.35 0 0 0-5.46-11.31l-1.32-1.06.29-.52a42.18 42.18 0 0 1-14.2-31.57Z"/><path fill="#2e9aff" d="M1141.57 165.44c8.05 0 15.58-2.26 21.99-6.18.2-.33.41-.66.63-.98a41.56 41.56 0 0 1-22.62 6.66 41.65 41.65 0 0 1-31.62-14.5l-.44.24a42.2 42.2 0 0 0 32.06 14.76Z"/><path d="M1141.57 164.44c8.35 0 16.13-2.5 22.63-6.78a45.1 45.1 0 0 0-31.88-13.1 45.5 45.5 0 0 0-21.9 5.62h-.02a41.2 41.2 0 0 0 31.17 14.26Z"/><path d="M1141.57 164.94c8.34 0 16.1-2.45 22.62-6.66l.25-.4-.02-.02-.22-.2a41.19 41.19 0 0 1-53.8-7.47l-.45.24a41.65 41.65 0 0 0 31.62 14.5Zm30.5 46.99.03-.06a45.61 45.61 0 0 0-6.95-53.25 41.18 41.18 0 0 0 6.92 53.3Z"/><path fill="#231f20" d="M1157.88 181.25a41.57 41.57 0 0 1 6.65-22.62c-.32.21-.64.43-.97.63a42.18 42.18 0 0 0 8.02 53.57l.24-.46a41.64 41.64 0 0 1-13.94-31.12Z"/><path fill="#231f20" d="m1164.58 158.02-.4.26-.62.98c.33-.2.65-.42.97-.63l.26-.38-.21-.23Z"/><path fill="#231f20" d="m1164.44 157.88-.26.4.4-.26-.14-.14Zm.1.75a41.57 41.57 0 0 0-6.66 22.62c0 12.37 5.4 23.47 13.95 31.12l.24-.44a41.18 41.18 0 0 1-6.92-53.3l-.23-.25-.39.25Z"/><path fill="#231f20" d="m1164.79 158.25-.26.38.4-.25Z"/><path d="M1087.38 145.02c.18-.13.37-.23.55-.35l-.55.35Zm-1.26.94.43-.33c-.14.1-.3.2-.43.33Zm2.58-1.74c.2-.12.42-.22.63-.32-.2.1-.42.2-.63.32Zm91.2 79.23c.04.3.08.6.1.9-.02-.3-.06-.6-.1-.9Z"/><path d="m1176.67 212.66-.3-.3a49.65 49.65 0 0 0-9.12-57.33 49.08 49.08 0 0 0-34.94-14.47 49.54 49.54 0 0 0-22.4 5.36l-.3-.3a18.34 18.34 0 0 0-13.04-5.41c-4.9-.01-9.6 1.93-13.06 5.4a18.35 18.35 0 0 0-5.4 13.06 18.35 18.35 0 0 0 7.58 14.92 49.45 49.45 0 0 0 11.69 51.31 49.07 49.07 0 0 0 34.93 14.47c5.62 0 11.12-.94 16.38-2.78a18.48 18.48 0 0 0 14.92 7.59c4.93 0 9.57-1.93 13.05-5.42a18.33 18.33 0 0 0 5.41-13.05 18.3 18.3 0 0 0-5.4-13.05Zm3.33 14.55c-.02.23-.06.46-.1.69l-.1.8-.15.66-.2.8-.2.65-.28.8a17.26 17.26 0 0 1-1.4 2.78 16.52 16.52 0 0 1-.95 1.36l-.3.42a16.45 16.45 0 0 1-26.83-2 47.41 47.41 0 0 1-61.37-61.37 16.46 16.46 0 0 1-2-26.84l.43-.34c.28-.2.55-.41.83-.6a15.7 15.7 0 0 1 1.32-.8c.21-.12.43-.22.64-.33a16.63 16.63 0 0 1 4.4-1.43l.5-.07c.34-.05.68-.1 1.02-.12l.23-.01c3.3-.22 6.58.56 9.42 2.24l.28.16a15.9 15.9 0 0 1 1.98 1.43l.25.22c.26.24.53.46.79.72.45.44.86.91 1.24 1.4a47.43 47.43 0 0 1 56.16 7.8l.23.21.04.05.07.08.3.3.07.08.26.27a47.13 47.13 0 0 1 12.75 26.65l.01.1.2 1.75v.13c.05.57.1 1.15.12 1.72v.19c.03.55.05 1.1.06 1.66v.25c0 .53 0 1.07-.02 1.6l-.01.32a52.6 52.6 0 0 1-.07 1.54l-.03.38-.13 1.47-.06.45c-.05.47-.1.93-.17 1.4l-.09.5-.22 1.34-.12.57c-.08.42-.16.84-.26 1.26l-.15.62-.3 1.2-.2.68c-.1.37-.2.75-.32 1.12l-.25.77-.34 1.01-.32.85-.35.92-.4.92c-.11.27-.22.55-.35.83-.15.34-.32.69-.49 1.03a45.6 45.6 0 0 1-1.21 2.38 16.75 16.75 0 0 1 2.46 2.43l.05.05c.3.38.6.78.87 1.18l.01.01c.2.3.4.62.58.94l.21.37c.16.29.31.6.45.9l.21.45a16.2 16.2 0 0 1 1.12 3.73l.08.57c.04.3.09.59.11.88l.03.59c.02.5.02 1.02 0 1.53l-.04.75Z"/><path d="M1180 227.2c-.02.24-.06.47-.1.7.04-.23.08-.46.1-.7Zm-.55 2.96-.2.65.2-.65Zm.34-1.47-.14.67.14-.67Zm-74.6-84.03-.28-.16.29.19Zm72.39 89.74-.33.51.33-.51Zm-.95 1.36c-.1.13-.2.28-.32.41.12-.13.21-.28.32-.41Zm-71.72-91.26Zm1.24.8-.97-.64.02.03c.32.2.64.4.95.62Z"/><path d="M1180.03 224.93c0-.2 0-.4-.02-.59l-.11-.88-.08-.57a16.93 16.93 0 0 0-1.12-3.73l-.21-.46-.45-.9-.22-.36a42.66 42.66 0 0 1-6.24-4.62l-.29.53 1.32 1.05a14.35 14.35 0 0 1 5.46 11.32c0 3.86-1.5 7.49-4.24 10.22a14.36 14.36 0 0 1-10.22 4.24 14.37 14.37 0 0 1-12.41-7.04l-.87-1.45-1.57.61a45.33 45.33 0 0 1-16.45 3.07 45.1 45.1 0 0 1-32.1-13.3 45.46 45.46 0 0 1-10.23-48.55l.6-1.57-1.44-.87a14.37 14.37 0 0 1-7.04-12.41c0-3.86 1.5-7.5 4.24-10.22a14.37 14.37 0 0 1 10.23-4.24 14.37 14.37 0 0 1 11.32 5.47l1.05 1.3.57-.3a42.4 42.4 0 0 1-4.31-5.99l-.29-.19a16.47 16.47 0 0 0-9.42-2.24l-.24.01c-.34.03-.67.08-1.01.12l-.5.08a15.62 15.62 0 0 0-1.5.33 16.8 16.8 0 0 0-2.9 1.1 16.54 16.54 0 0 0-1.4.78c-.2.1-.38.22-.56.34-.29.19-.56.4-.83.6-.15.12-.3.22-.43.34a16.44 16.44 0 0 0 2 26.84 47.41 47.41 0 0 0 61.36 61.37 16.45 16.45 0 0 0 26.83 2l.32-.41.62-.84.32-.52a17.53 17.53 0 0 0 .77-1.38 15.43 15.43 0 0 0 .9-2.2l.2-.65c.08-.27.14-.54.2-.8l.15-.67c.05-.27.08-.53.11-.8l.1-.7c.02-.24.02-.5.03-.74.03-.51.03-1.02 0-1.53Z"/><path d="M1106.15 145.3c-.31-.2-.63-.42-.95-.61a42.48 42.48 0 0 0 4.3 5.99l.45-.25a41.77 41.77 0 0 1-3.8-5.12Zm4.26 4.88a45.5 45.5 0 0 1 21.9-5.62 45.1 45.1 0 0 1 31.9 13.1l.72-.5.67-.94a47.43 47.43 0 0 0-56.15-7.8c-.4-.48-.8-.95-1.24-1.39-.26-.25-.53-.48-.8-.72a41.57 41.57 0 0 0 3 3.87Z"/><path d="m1164.44 157.88.5-.71-.74.49.22.2.02.02Zm-54.49-7.45.45-.25a41.74 41.74 0 0 1-2.99-3.87l-.25-.22a19.6 19.6 0 0 0-1.02-.78 41.96 41.96 0 0 0 3.81 5.12Zm69.45 45Zm-.26 1.9-.22 1.34.22-1.33Zm-.75 3.78-.3 1.2.3-1.2Zm-2.03 14.2-.04-.05.03.03Zm2.35-35.1Zm-3.64 30.24-.33.69.33-.69Zm2.24-5.56-.34 1.01.34-1Zm-.66 1.86-.35.92c.13-.3.24-.61.35-.92Zm-.74 1.84-.35.83.35-.83Zm1.98-5.6c-.1.38-.2.76-.32 1.13l.32-1.12Zm-11.32-45.76-.25-.28.25.28Z"/><path d="m1165.65 157.88-.5.74a45.61 45.61 0 0 1 6.95 53.25l-.03.06a41.54 41.54 0 0 0 4.28 3.36l-.03-.03a16.61 16.61 0 0 0-2.46-2.43c.3-.56.6-1.12.88-1.7.12-.22.22-.45.33-.68l.49-1.03.35-.83.4-.92.34-.92.32-.85.34-1 .26-.78.32-1.12.2-.69.3-1.2.15-.61c.1-.42.18-.84.26-1.26l.12-.57.22-1.33.08-.51.18-1.4.05-.45c.06-.49.1-.98.13-1.47l.03-.38c.04-.51.06-1.02.08-1.54l.01-.32c.01-.53.02-1.07.01-1.6v-.25c0-.55-.02-1.11-.05-1.66v-.2c-.03-.57-.07-1.14-.12-1.7l-.01-.15c-.06-.58-.12-1.16-.2-1.75v-.09a45.42 45.42 0 0 0-.62-3.66 47.17 47.17 0 0 0-12.14-22.99c-.3.23-.61.45-.92.66Z"/><path d="m1166.57 157.23-.26-.28-.66.93.92-.65Zm5 55.6a42.66 42.66 0 0 0 6.25 4.61c-.18-.32-.37-.63-.57-.94a41.95 41.95 0 0 1-5.42-4.13Zm-6.35-55.23c-.21.15-.43.28-.64.42l.2.22.44-.64Zm.66-1.1-.05-.05.05.04Zm.07.07-.07-.08.07.08Z"/><path d="m1165.88 156.5-.05-.05-.23-.23-.67.95.95-.68Z"/><path d="m1164.58 158.02.64-.42c.23-.35.48-.7.73-1.03a2.52 2.52 0 0 1-.07-.08l-.95.68-.49.71.13.14Zm12.66 58.47c-.28-.4-.57-.8-.88-1.19h-.01c.31.38.61.78.89 1.19Zm-10.93-59.54-.07-.08.07.08Z"/><path d="m1172.07 211.93-.24.44a41.9 41.9 0 0 0 5.42 4.13l-.01-.01c-.28-.41-.58-.81-.9-1.2a41.53 41.53 0 0 1-4.27-3.36Zm-6.92-53.3.5-.75-.73.5.23.25Z"/><path d="m1164.79 158.25.13.13.73-.5.66-.93-.07-.08c-.34.25-.68.5-1.02.73l-.43.65Z"/><path d="m1166.24 156.87-.29-.3.3.3Z"/><path d="m1166.24 156.87-.29-.3c-.25.34-.5.68-.73 1.03l1.02-.73Zm-73.11 9.73h-.09a2 2 0 0 1-1.91-2.1l.62-14.89a2 2 0 0 1 4 .17l-.62 14.9a2 2 0 0 1-2 1.91Zm63.17 63.16a2 2 0 0 1-.09-4l14.9-.62a1.97 1.97 0 0 1 2.08 1.92 2 2 0 0 1-1.91 2.08l-14.9.62h-.08Zm-36.18-51.12a6.25 6.25 0 1 1-12.5 0 6.25 6.25 0 0 1 12.5 0Z"/><path fill="#231f20" d="M1113.87 185.4a6.76 6.76 0 1 1 .01-13.53 6.76 6.76 0 0 1-.01 13.52Zm0-12.52a5.76 5.76 0 1 0 .01 11.52 5.76 5.76 0 0 0-.01-11.52Z"/><path d="M1121.95 190.18a2 2 0 0 1-1.97-2.37 13.14 13.14 0 0 0-15.34-15.33 2 2 0 0 1-.73-3.93 17.15 17.15 0 0 1 20 20 2 2 0 0 1-1.96 1.63Zm27.04 17.32a6.25 6.25 0 1 1-12.51 0 6.25 6.25 0 0 1 12.5 0Z"/><path fill="#231f20" d="M1142.73 214.26a6.76 6.76 0 1 1 .02-13.53 6.76 6.76 0 0 1-.02 13.53Zm0-12.51a5.76 5.76 0 1 0 .02 11.52 5.76 5.76 0 0 0-.02-11.52Z"/><path d="M1150.81 219.04a2 2 0 0 1-1.96-2.36 13.15 13.15 0 0 0-15.34-15.34 2 2 0 0 1-.73-3.93 17.14 17.14 0 0 1 20 20 2 2 0 0 1-1.97 1.63Zm-28.76-17.27a2 2 0 0 1-1.41-3.42l6.44-6.44a2 2 0 1 1 2.82 2.83l-6.44 6.44a2 2 0 0 1-1.4.59Z"/><path fill="#fff" d="M1124.34 209.37a8.24 8.24 0 0 1-11.66-11.66"/><path fill="#2e9aff" d="M1013.26 412.38a23.09 23.09 0 0 1-32.65 0l-71.95-71.95a23.08 23.08 0 1 1 32.65-32.65l71.95 71.94a23.1 23.1 0 0 1 0 32.66Z"/><path fill="#fff" d="M996.93 421.14c-6.7 0-13-2.61-17.73-7.35l-71.95-71.95a24.92 24.92 0 0 1-7.35-17.74c0-6.7 2.61-13 7.35-17.73a24.92 24.92 0 0 1 17.74-7.35c6.7 0 13 2.6 17.74 7.35l71.94 71.94a25.12 25.12 0 0 1 0 35.48 24.92 24.92 0 0 1-17.74 7.35ZM925 303.02a20.94 20.94 0 0 0-14.91 6.18 20.94 20.94 0 0 0-6.18 14.9 20.93 20.93 0 0 0 6.18 14.91l71.94 71.95a20.94 20.94 0 0 0 14.91 6.18 21.11 21.11 0 0 0 14.91-36L939.9 309.2a20.93 20.93 0 0 0-14.91-6.18Z"/><path fill="#fff" d="m924.34 326.99.06.06 7.1-4.1 1.54 1.56-9.91 5.34-1.7-1.7 5.27-9.98 1.66 1.66Zm3.01 4.69 1.92 1.91 3.05-3.05-1.92-1.92 1.2-1.2 3.33 3.34-4.25 4.25 2.02 2.02-1.2 1.2-5.35-5.36Zm7.39-4.08c.22-.23.5-.33.83-.32.32 0 .63.15.93.45.3.3.47.63.5.97.01.34-.09.63-.31.85a1 1 0 0 1-.85.3c-.33-.03-.64-.2-.95-.5-.3-.3-.46-.6-.48-.93-.02-.3.1-.6.33-.82Zm3.7 16.41a2.85 2.85 0 0 1-.62-.1 5.98 5.98 0 0 1-3.47-2.91 3.55 3.55 0 0 1-.04-3c.22-.49.56-.96 1-1.4.48-.49.98-.83 1.5-1.04a3.55 3.55 0 0 1 2.99.13 5.02 5.02 0 0 1 2.08 1.94 3 3 0 0 1 .33 2.5c-.15.45-.44.91-.9 1.37a7.4 7.4 0 0 1-1.12.9l-3.93-3.92a1.62 1.62 0 0 0-.47 1.49c.05.25.15.5.29.73a4.5 4.5 0 0 0 1.77 1.6c.38.19.73.29 1.05.32Zm1.54-6.24a2.62 2.62 0 0 0-.61-.46 2.15 2.15 0 0 0-.68-.22 1.65 1.65 0 0 0-1.36.38l2.68 2.69c.37-.37.55-.76.57-1.17 0-.4-.2-.82-.6-1.22Zm6.57 7.22-1.57 3.2.05.06 1.04-.84 3.2-2.31 1.28 1.27-6.55 4.35-1.43-1.43 1.55-2.77-.06-.05-2.84 1.47-1.47-1.47 4.3-6.6 1.42 1.42-2.48 3.56-.6.76.06.05 3.2-1.58Zm12.5 15.67 1.2 1.2-2.17 2.18c-.4-.07-.83-.23-1.29-.5a6.2 6.2 0 0 1-2.4-2.54 4.16 4.16 0 0 1-.45-1.83 4.8 4.8 0 0 1 .45-2.02c.3-.7.82-1.4 1.54-2.13a6.64 6.64 0 0 1 2.21-1.54 4.48 4.48 0 0 1 3.9.14 6.7 6.7 0 0 1 2.46 2.28c.24.37.4.7.5.99l-2.26 2.26-1.2-1.2 1.24-1.24a5.9 5.9 0 0 0-.64-.75 2.77 2.77 0 0 0-.95-.63 2.42 2.42 0 0 0-1.12-.15c-.4.03-.81.17-1.25.4-.43.23-.87.56-1.32 1.02a5 5 0 0 0-.93 1.21c-.23.42-.37.83-.42 1.25a2.65 2.65 0 0 0 .82 2.29c.24.24.5.45.77.63Zm6.77-3.37 2.2 2.2-2.79 2.8.05.03c.4-.06.82 0 1.25.15.43.15.84.42 1.23.81.28.28.5.57.65.88a2.05 2.05 0 0 1-.04 2.03c-.2.38-.5.78-.93 1.2l-3.39 3.39-1.41-1.42 3.1-3.1c.44-.43.66-.85.67-1.23 0-.39-.14-.73-.45-1.04a1.88 1.88 0 0 0-2.09-.35l-3.47 3.48-1.42-1.42 6.43-6.43-.78-.78Zm4.97 10.07a7.89 7.89 0 0 1 2.84 1.89c.38.37.66.74.83 1.1a2.07 2.07 0 0 1 .01 1.98c-.15.3-.38.6-.67.9a14 14 0 0 1-.99.9 10.19 10.19 0 0 0-1.48 1.52l.7.7-1.2 1.2-1.82-1.82.6-.89-.06-.05c-.37.08-.77.07-1.2-.04-.43-.1-.87-.38-1.33-.83a2.6 2.6 0 0 1-.85-1.73c-.02-.6.2-1.15.68-1.63.3-.3.63-.51.96-.62.33-.11.68-.13 1.03-.06s.72.22 1.09.45a6.4 6.4 0 0 1 1.49 1.33l.49.58.24-.2.2-.2c.28-.28.4-.56.36-.84a1.65 1.65 0 0 0-.53-.88 4.66 4.66 0 0 0-1.13-.86 9.67 9.67 0 0 0-1.03-.46Zm-2.14 5.85c.34.35.66.54.96.59.3.04.56.03.79-.03l.65-.66a6.58 6.58 0 0 0-.7-.86 3.14 3.14 0 0 0-.46-.37c-.16-.11-.32-.2-.48-.25a1.04 1.04 0 0 0-.47-.04c-.16.02-.3.1-.41.22-.2.2-.3.42-.3.65 0 .23.14.48.42.75Zm8.2-.53 1.9 1.9-.55.89.04.04a3.11 3.11 0 0 1 2.72.97c.27.27.48.56.64.86.17.31.25.63.25.97 0 .33-.1.7-.28 1.08-.2.38-.5.79-.92 1.2l-3.39 3.4-1.41-1.42 3.09-3.1c.44-.44.66-.86.66-1.25 0-.4-.16-.75-.46-1.06-.27-.26-.6-.44-.97-.5a1.66 1.66 0 0 0-1.04.13l-3.53 3.53-1.42-1.41 4.25-4.25-.78-.79Zm6.54 6.53 1.9 1.91-.55.88.04.05a3.1 3.1 0 0 1 2.72.96c.26.28.48.56.64.87.16.31.25.63.25.97 0 .33-.1.69-.29 1.07-.18.39-.49.8-.91 1.21l-3.4 3.4-1.4-1.42 3.09-3.1c.44-.44.66-.86.66-1.26s-.16-.74-.47-1.05c-.26-.27-.6-.44-.97-.5a1.66 1.66 0 0 0-1.03.13l-3.53 3.53-1.42-1.42 4.25-4.25-.78-.78Zm7.35 17.1a2.72 2.72 0 0 1-.62-.1 5.95 5.95 0 0 1-3.47-2.91 3.53 3.53 0 0 1-.04-2.99c.22-.5.55-.96 1-1.42.48-.47.98-.82 1.49-1.02a3.55 3.55 0 0 1 3 .12 5.02 5.02 0 0 1 2.08 1.94 2.96 2.96 0 0 1-.57 3.87c-.35.34-.72.64-1.12.9l-3.93-3.92a1.65 1.65 0 0 0-.47 1.49c.05.25.15.5.29.73a4.53 4.53 0 0 0 1.77 1.6c.38.19.73.29 1.05.32Zm1.54-6.24a2.48 2.48 0 0 0-.61-.46 2.19 2.19 0 0 0-.68-.23 1.77 1.77 0 0 0-.7.04c-.25.07-.47.19-.66.35l2.68 2.68c.36-.36.55-.75.56-1.16.01-.4-.18-.82-.6-1.22Zm7.18.86 2.32 2.32-5.03 5.03c-.57.56-.88 1.02-.96 1.37-.08.36.03.7.34 1 .22.22.43.38.62.48.2.1.4.18.64.23l-.45 1.52-.6-.15a3.26 3.26 0 0 1-1.12-.56c-.2-.16-.4-.33-.59-.51-.68-.69-1.02-1.37-1.01-2.06 0-.7.33-1.36.97-2l4.57-4.57-.9-.9Z"/><path fill="#231f20" d="M1106.51 341.25a2 2 0 0 1-1.41-.59l-121.4-121.4a2 2 0 1 1 2.82-2.83l121.4 121.4a2 2 0 0 1-1.4 3.42Zm-35.28-2.08c-.53 0-1.04-.2-1.41-.59l-84.05-84.04a2 2 0 0 1 2.83-2.83l84.04 84.05a2 2 0 0 1-1.41 3.41Zm-4.15 29.06a2 2 0 0 1-1.42-.59L956.71 258.69a2 2 0 1 1 2.83-2.83l108.95 108.95a2 2 0 0 1-1.41 3.42Zm-41.5-8.3c-.54 0-1.05-.22-1.42-.6L965 300.2a2 2 0 1 1 2.83-2.83L1027 356.5a2 2 0 0 1-1.42 3.41Zm-66.83 66.82a2 2 0 0 1-1.42-.58l-59.14-59.15a2 2 0 1 1 2.83-2.82l59.14 59.14a2 2 0 0 1-1.41 3.41Zm-28.85 3.95c-.53 0-1.04-.21-1.42-.6l-34.23-34.23a2 2 0 1 1 2.82-2.83l34.24 34.24a2 2 0 0 1-1.41 3.42Zm107.32-217.37 6.77 6.77-7.22 7.22a8.8 8.8 0 0 1-1.97 1.5 4.8 4.8 0 0 1-3.73.37 6.4 6.4 0 0 1-2.8-1.76c-.5-.5-.95-1.06-1.33-1.67a7.31 7.31 0 0 1-.85-2.06l2.57-1c.17.66.37 1.17.6 1.54.21.37.52.75.9 1.14.24.24.54.45.91.63.37.19.76.27 1.18.26a3.45 3.45 0 0 0 2.29-1.15l5.26-5.26-4.55-4.55Zm1.5 16.07a7.04 7.04 0 0 1 2.13-1.5 5.17 5.17 0 0 1 4.4.05c.72.33 1.4.82 2.04 1.47a7.1 7.1 0 0 1 1.52 2.13 5.18 5.18 0 0 1-.03 4.4c-.35.72-.83 1.4-1.47 2.04a7.06 7.06 0 0 1-2.12 1.5 5.26 5.26 0 0 1-4.4-.05 7.28 7.28 0 0 1-2.05-1.47 7.17 7.17 0 0 1-1.51-2.13 5.18 5.18 0 0 1 .03-4.4c.34-.72.83-1.4 1.47-2.03Zm2.18 2.17a4.5 4.5 0 0 0-.85 1.14c-.2.4-.33.8-.37 1.21a2.69 2.69 0 0 0 .84 2.27 2.9 2.9 0 0 0 2.13.93c.8 0 1.62-.44 2.49-1.3a3.96 3.96 0 0 0 1.25-2.36c.1-.83-.2-1.58-.88-2.26a3.6 3.6 0 0 0-.98-.7 2.33 2.33 0 0 0-1.12-.23c-.42.02-.84.14-1.22.33-.42.21-.85.53-1.3.97Zm14.26-.3 3.27 3.27-4.14 4.14.06.07a3.9 3.9 0 0 1 1.86.2 5 5 0 0 1 1.83 1.22c.4.41.73.84.97 1.3a3 3 0 0 1 .36 1.42c0 .5-.15 1.03-.43 1.6a7.22 7.22 0 0 1-1.37 1.79l-5.03 5.03-2.11-2.1 4.6-4.6c.66-.66 1-1.28 1-1.85a2.06 2.06 0 0 0-.66-1.54c-.4-.4-.91-.65-1.47-.73a2.77 2.77 0 0 0-1.64.22l-5.16 5.16-2.1-2.1 9.54-9.56-1.16-1.16Zm6.67 13.14 2.83 2.84-.82 1.3.06.07a4.77 4.77 0 0 1 4.03 1.44c.4.4.72.83.97 1.29.24.46.36.93.36 1.43 0 .5-.14 1.03-.42 1.6a6.93 6.93 0 0 1-1.36 1.8l-5.04 5.03-2.1-2.1 4.6-4.6c.66-.66.98-1.28.98-1.87 0-.59-.24-1.1-.69-1.56a2.6 2.6 0 0 0-1.44-.74 2.47 2.47 0 0 0-1.54.19l-5.24 5.25-2.1-2.1 6.3-6.32-1.16-1.17Zm23.28 16.8c.1.1.29.24.55.47a36.66 36.66 0 0 1 1.88 1.68c.34.32.64.6.9.87 1 1 1.69 1.97 2.06 2.93.36.95.48 1.87.35 2.76-.13.9-.47 1.77-1.01 2.62a15.16 15.16 0 0 1-4.46 4.46c-.86.56-1.77.92-2.72 1.08-.95.17-1.94.07-2.98-.29a8.61 8.61 0 0 1-3.19-2.17l-.65-.68-.78-.86-.76-.86c-.2-.21-.37-.43-.54-.66Zm1.44 5.07a10.57 10.57 0 0 0-1.1-.97l-7.6 7.6.17.21.25.28.26.29.2.22a3.95 3.95 0 0 0 1.84 1.14c.6.14 1.19.12 1.75-.08.56-.19 1.1-.5 1.64-.92a18.27 18.27 0 0 0 2.7-2.7c.4-.49.7-1 .88-1.55a3.2 3.2 0 0 0 .1-1.7c-.11-.6-.48-1.2-1.1-1.82Zm.74 11.69a7.05 7.05 0 0 1 2.12-1.5 5.3 5.3 0 0 1 2.22-.48 5.3 5.3 0 0 1 2.19.52c.7.34 1.39.83 2.03 1.48a7.09 7.09 0 0 1 1.52 2.13 5.16 5.16 0 0 1-.03 4.4c-.35.72-.83 1.4-1.47 2.03a7.08 7.08 0 0 1-2.12 1.5c-.7.32-1.45.48-2.22.48a5.29 5.29 0 0 1-2.18-.52 7.31 7.31 0 0 1-2.04-1.48 7.22 7.22 0 0 1-1.52-2.13 5.18 5.18 0 0 1 .04-4.4c.34-.72.82-1.4 1.46-2.03Zm2.17 2.17c-.34.33-.62.71-.84 1.13-.2.4-.33.8-.37 1.22a2.67 2.67 0 0 0 .84 2.26 2.9 2.9 0 0 0 2.13.93c.79 0 1.62-.44 2.48-1.3a3.96 3.96 0 0 0 1.25-2.36c.1-.82-.2-1.57-.88-2.26a3.57 3.57 0 0 0-.98-.7 2.33 2.33 0 0 0-1.11-.23c-.43.03-.85.14-1.22.33-.43.21-.86.53-1.3.98Zm12.43 18.8a4.18 4.18 0 0 1-.92-.15 8.8 8.8 0 0 1-5.15-4.33 5.24 5.24 0 0 1-.06-4.45c.32-.72.82-1.42 1.49-2.09a6.74 6.74 0 0 1 2.2-1.53 5.32 5.32 0 0 1 4.46.18 7.6 7.6 0 0 1 3.1 2.88c.32.55.54 1.14.64 1.77.1.63.05 1.28-.16 1.96a5.1 5.1 0 0 1-1.34 2.03c-.5.5-1.07.95-1.67 1.34l-5.82-5.83a2.41 2.41 0 0 0-.7 2.21c.06.38.2.74.42 1.1a6.7 6.7 0 0 0 2.63 2.39c.57.26 1.09.41 1.57.46Zm2.28-9.27c-.26-.27-.57-.5-.9-.68a3.11 3.11 0 0 0-1.01-.33 2.65 2.65 0 0 0-1.05.06 2.4 2.4 0 0 0-.97.52l3.98 3.98c.54-.54.82-1.11.83-1.73.02-.6-.27-1.21-.88-1.82Z"/><path fill="#2e9aff" d="M1228.6 41.61a36.08 36.08 0 0 1 0 51.04 36.09 36.09 0 0 1 51.04 0"/><path fill="#fff" d="M1279.64 94.65a2 2 0 0 1-1.42-.59 34.13 34.13 0 0 0-48.19-.01 2 2 0 0 1-2.84-2.82c6.44-6.44 9.99-15 9.99-24.1 0-9.1-3.55-17.67-9.99-24.1a2 2 0 0 1 2.83-2.83 37.84 37.84 0 0 1 11.16 26.93 37.9 37.9 0 0 1-3.93 16.89 38.15 38.15 0 0 1 43.8 7.21 2 2 0 0 1-1.41 3.42Z"/><path fill="#2e9aff" d="M853.42 160.9a41.37 41.37 0 0 1 58.51 0 41.38 41.38 0 0 1 0-58.52"/><path fill="#fff" d="M853.42 162.9a2 2 0 0 1-1.41-3.42 43.09 43.09 0 0 1 30.67-12.7 43.1 43.1 0 0 1 20.02 4.87 43.46 43.46 0 0 1 7.81-50.68 2 2 0 1 1 2.83 2.83 39.42 39.42 0 0 0 0 55.68 2 2 0 0 1-2.83 2.83 39.1 39.1 0 0 0-27.84-11.53 39.11 39.11 0 0 0-27.84 11.53c-.38.39-.9.58-1.4.58Z"/><path fill="#2e9aff" d="M1160.98 468.45a41.38 41.38 0 0 0 0-58.5 41.38 41.38 0 0 0 58.5 0"/><path fill="#fff" d="M1160.98 470.45a2 2 0 0 1-1.41-3.41 39.42 39.42 0 0 0 0-55.68 2 2 0 1 1 2.83-2.83 39.42 39.42 0 0 0 55.67 0 2 2 0 1 1 2.83 2.83 43.46 43.46 0 0 1-50.7 7.8c8.5 16.34 5.9 37-7.8 50.7-.38.38-.89.6-1.42.6Z"/><path fill="#2e9aff" d="M1214.48 28.19a9.83 9.83 0 1 1-19.66 0 9.83 9.83 0 0 1 19.66 0Z"/><path fill="#fff" d="M1204.65 40.02a11.84 11.84 0 1 1 11.83-11.83c0 6.52-5.3 11.83-11.83 11.83Zm0-19.66a7.84 7.84 0 0 0 0 15.66 7.84 7.84 0 0 0 0-15.66Z"/><path fill="#2e9aff" d="M1302.27 115.97a9.83 9.83 0 1 1-19.66 0 9.83 9.83 0 0 1 19.66 0Z"/><path fill="#fff" d="M1292.44 127.8a11.83 11.83 0 1 1 0-23.69 11.83 11.83 0 0 1 0 23.7Zm0-19.66a7.84 7.84 0 0 0 0 15.67 7.84 7.84 0 0 0 0-15.67ZM229.42 767.72a31.79 31.79 0 0 1-28.63-17.73L4.14 354.5a31.74 31.74 0 0 1-1.68-24.4 31.73 31.73 0 0 1 16.06-18.43l182.23-90.61a31.62 31.62 0 0 1 14.21-3.35 31.8 31.8 0 0 1 28.63 17.73l196.64 395.48c3.8 7.64 4.4 16.3 1.69 24.4a31.74 31.74 0 0 1-16.07 18.43l-182.23 90.61a31.67 31.67 0 0 1-14.2 3.35Zm-14.46-532.29a14 14 0 0 0-6.32 1.5L26.4 327.52a14.15 14.15 0 0 0-7.16 8.22c-1.21 3.58-.94 7.5.75 10.88L216.65 742.1a14.18 14.18 0 0 0 19.09 6.41l182.23-90.6a14.14 14.14 0 0 0 7.16-8.23 14.2 14.2 0 0 0-.75-10.87L227.73 243.33a14.18 14.18 0 0 0-12.77-7.9Z"/><path fill="#fff" d="m176.35 234.24 5.38 24.1c1.35 6.1-2.1 13.37-7.7 16.16l-91.37 45.43c-5.6 2.78-13.49 1.16-17.53-3.6L49.16 297.5m174.02 83.03a55.79 55.79 0 1 1-111.57 0 55.79 55.79 0 0 1 111.57 0Z"/><path fill="#2e9aff" d="M148.11 340.88a42.58 42.58 0 0 1-25.7 48.92l.07.39-1.4.5a14.68 14.68 0 0 0-8.98 9.2 14.68 14.68 0 0 0 .78 11.28 14.7 14.7 0 0 0 19.82 6.66 14.8 14.8 0 0 0 3.03-2l1.13-.98 1.15.96a46.1 46.1 0 0 0 29.42 10.63 45.95 45.95 0 0 0 45.82-48.05l-.06-1.48 1.45-.32a14.82 14.82 0 0 0 10.09-21.03 14.71 14.71 0 0 0-19.82-6.66c-.5.25-1 .53-1.46.84l-1.26.81-.23-.25a42.44 42.44 0 0 1-53.85-9.42Z"/><path d="M148.18 350.32c0-3.73-.5-7.34-1.43-10.78a46.11 46.11 0 0 0-24.53 49.18l.01.08a41.58 41.58 0 0 0 25.95-38.48Z"/><path fill="#231f20" d="M149.18 350.32c0-3.24-.38-6.4-1.07-9.44-.24-.28-.48-.57-.7-.87a42.08 42.08 0 0 1-25.09 49.3l.1.5a42.58 42.58 0 0 0 26.76-39.49Z"/><path fill="#231f20" d="M148.68 350.32c0-3.56-.44-7-1.28-10.3l-.45-.58-.2.1a41.58 41.58 0 0 1-24.52 49.26l.1.51a42.02 42.02 0 0 0 26.35-38.99Z"/><path d="M180.64 355.06c7.24 0 14.36-1.9 20.63-5.51l-.09-.1a46.05 46.05 0 0 0-33.83-14.83 45.36 45.36 0 0 0-19.47 4.38 41.46 41.46 0 0 0 32.76 16.06Z"/><path fill="#231f20" d="M180.64 355.56a41.93 41.93 0 0 1-32.77-15.73l.24 1.05a42.44 42.44 0 0 0 53.85 9.42l-.33-.37a41.81 41.81 0 0 1-21 5.63Z"/><path fill="#231f20" d="m148.11 340.88-.24-1.06-.47-.6-.19.1.2.7c.22.29.46.58.7.86Z"/><path fill="#231f20" d="M147.21 339.31c-.08.05-.17.08-.25.12h-.01l.45.58-.19-.7Zm33.43 16.25c7.37 0 14.6-1.94 20.99-5.63l-.36-.38A41.46 41.46 0 0 1 147.88 339l-.21.1.2.72a41.93 41.93 0 0 0 32.77 15.73Zm-32.97-16.46-.27.13c.15.2.3.4.47.6l-.2-.73Z"/><path d="M227.9 353.98a18.23 18.23 0 0 0-16.42-10.17 18.13 18.13 0 0 0-8.68 2.2 49.62 49.62 0 0 0-35.45-14.93 48.94 48.94 0 0 0-21.97 5.18 49.7 49.7 0 0 0-26.89 51.67 18.22 18.22 0 0 0-9.75 10.83 18.2 18.2 0 0 0 .97 13.99 18.23 18.23 0 0 0 16.42 10.17 18.14 18.14 0 0 0 10.73-3.49A49.65 49.65 0 0 0 167.43 430a49.5 49.5 0 0 0 49.4-50.32 18.34 18.34 0 0 0 11.06-25.69Zm-9.04 22.98a17.2 17.2 0 0 1-3.84 1.36 47.68 47.68 0 0 1-78.14 38.85 16.55 16.55 0 1 1-19.13-26.84 17.46 17.46 0 0 1 2.72-1.3A47.7 47.7 0 0 1 145.9 338l.28-.15.08-.03.07-.04.4-.18.08-.04.36-.18a47.7 47.7 0 0 1 55.33 10.88 16.08 16.08 0 0 1 5.62-2.3 16.55 16.55 0 0 1 10.75 31.01Z"/><path d="M226.31 354.77a16.55 16.55 0 0 0-18.2-8.82 42.64 42.64 0 0 1-6.15 4.35l.23.25 1.26-.8a14.6 14.6 0 0 1 8.03-2.38 14.7 14.7 0 0 1 13.25 8.19 14.8 14.8 0 0 1-10.09 21.03l-1.45.32.06 1.49a45.95 45.95 0 0 1-45.82 48.05 46.1 46.1 0 0 1-29.42-10.64l-1.15-.96-1.14.98a14.8 14.8 0 0 1-22.84-4.65 14.68 14.68 0 0 1-.78-11.3 14.68 14.68 0 0 1 8.98-9.18l1.4-.51-.07-.38c-2.24.9-4.56 1.6-6.92 2.1a16.55 16.55 0 1 0 21.39 25.26 47.68 47.68 0 0 0 78.14-38.86 16.55 16.55 0 0 0 11.29-23.55Z"/><path d="M122.22 388.72a46.11 46.11 0 0 1 24.53-49.18l-.16-.56c-.24-.32-.47-.66-.7-.99a47.7 47.7 0 0 0-25.42 51.04c-.58.22-1.16.46-1.73.74-.34.17-.67.37-1 .56a38.9 38.9 0 0 0 4.49-1.53Zm.1.6a41.6 41.6 0 0 1-5.9 1.87c-.32.23-.63.47-.93.72 2.36-.5 4.68-1.2 6.92-2.1Z"/><path d="M122.23 388.8c-1.46.6-2.96 1.1-4.48 1.53-.46.27-.9.55-1.33.86a41.6 41.6 0 0 0 5.9-1.88Zm24.36-49.82.16.56.2-.1-.36-.46Zm1.3.02a45.37 45.37 0 0 1 19.46-4.38c12.84 0 25.17 5.4 33.83 14.83l.09.1a41.54 41.54 0 0 0 4.38-2.9 16.73 16.73 0 0 0-3.16 1.6 47.7 47.7 0 0 0-55.33-10.87l.34 1.14.38.49Z"/><path d="m147.16 337.38-.36.17.7.97c-.1-.38-.22-.76-.34-1.14Zm54.8 12.92a42.64 42.64 0 0 0 6.15-4.35c-.35.07-.7.15-1.04.24a42.12 42.12 0 0 1-5.44 3.74Zm-55.71-12.5-.08.05-.28.14.7 1c-.1-.4-.22-.8-.34-1.18Zm.82 1.01.14.5.19-.08-.33-.42Z"/><path d="m146.95 339.44.26-.13-.14-.5c-.26-.34-.5-.69-.75-1.04l-.07.04.34 1.17.36.46Zm.55-.92.17.58.21-.1-.38-.48Zm54.13 11.41a42.12 42.12 0 0 0 5.44-3.74c-.47.13-.95.28-1.42.46a41.7 41.7 0 0 1-4.38 2.9Z"/><path d="m147.4 339.23.27-.13-.17-.58-.7-.97-.09.04c.13.4.25.81.36 1.22l.33.42Z"/><path d="m146.71 337.59-.39.18.75 1.04c-.11-.4-.23-.82-.36-1.22Zm-16.05 73.95c-.21 0-.43-.04-.63-.12l-14-5.36a1.77 1.77 0 1 1 1.26-3.3l14 5.36a1.77 1.77 0 0 1-.63 3.42Zm80.44-40a1.77 1.77 0 0 1-1.7-2.26l4.18-14.4a1.77 1.77 0 1 1 3.4.98l-4.18 14.4a1.77 1.77 0 0 1-1.7 1.28Zm-54.13 22.96a6.29 6.29 0 1 1-12.57 0 6.29 6.29 0 0 1 12.57 0Z"/><path fill="#231f20" d="M150.69 401.28a6.8 6.8 0 1 1 .01-13.6 6.8 6.8 0 0 1-.01 13.6Zm0-12.58a5.8 5.8 0 1 0 .01 11.6 5.8 5.8 0 0 0-.01-11.6Z"/><path d="M139.88 402.8a1.77 1.77 0 0 1-1.76-2.01 17 17 0 0 1 25.1-12.5 1.77 1.77 0 0 1-1.71 3.1 13.47 13.47 0 0 0-19.88 9.89 1.77 1.77 0 0 1-1.75 1.52Zm53.85-26.59a6.3 6.3 0 1 1-12.58 0 6.3 6.3 0 0 1 12.58 0Z"/><path fill="#231f20" d="M187.44 383a6.8 6.8 0 1 1 .02-13.59 6.8 6.8 0 0 1-.02 13.6Zm0-12.58a5.8 5.8 0 1 0 .02 11.6 5.8 5.8 0 0 0-.02-11.6Z"/><path d="M176.63 384.52a1.77 1.77 0 0 1-1.75-2.02 17 17 0 0 1 25.11-12.48 1.77 1.77 0 1 1-1.72 3.1 13.46 13.46 0 0 0-19.89 9.88 1.77 1.77 0 0 1-1.75 1.52Zm-3.18 10.71c-.67 0-1.29-.38-1.59-.99l-4.08-8.2a1.77 1.77 0 0 1 3.18-1.57l4.07 8.2a1.77 1.77 0 0 1-1.58 2.56Z"/><path fill="#fff" d="M183.33 394.35a8.29 8.29 0 0 1-14.83 7.38"/><path fill="#2e9aff" d="M341.31 565.23a23.22 23.22 0 0 1-10.45 31.13l-91.62 45.55a23.22 23.22 0 1 1-20.68-41.58l91.62-45.55a23.22 23.22 0 0 1 31.13 10.45Z"/><path fill="#fff" d="M228.92 645.92c-9.48 0-18-5.27-22.22-13.76a24.82 24.82 0 0 1 11.16-33.24l91.62-45.55c3.42-1.72 7.2-2.6 11.02-2.6 9.49 0 18 5.27 22.22 13.76a24.63 24.63 0 0 1 1.3 18.93 24.63 24.63 0 0 1-12.46 14.3l-91.62 45.57a24.54 24.54 0 0 1-11.02 2.6Zm91.58-92c-3.34 0-6.63.77-9.62 2.27l-91.62 45.55a21.67 21.67 0 0 0-9.74 29.02 21.54 21.54 0 0 0 19.4 12.02c3.35 0 6.6-.77 9.62-2.27l91.62-45.56a21.5 21.5 0 0 0 10.88-12.49 21.5 21.5 0 0 0-1.14-16.53 21.53 21.53 0 0 0-19.4-12.01Z"/><path fill="#fff" d="m231.44 622.67.07-.04-1.62-8.07 1.97-.98 1.91 11.17-2.16 1.07-7.83-8.22 2.13-1.06Zm5.43-1.37 2.44-1.21-1.93-3.9-2.44 1.22-.76-1.52 4.25-2.11 2.69 5.4 2.56-1.27.76 1.53-6.81 3.39Zm-1.52-8.35a1.1 1.1 0 0 1-.04-.9c.1-.3.35-.55.73-.74.4-.2.75-.24 1.09-.16a1.06 1.06 0 0 1 .72 1.47c-.13.3-.4.55-.78.74-.38.2-.73.24-1.03.16-.3-.08-.56-.28-.69-.57Zm16.83 1.72c-.08.2-.18.39-.3.56a5.62 5.62 0 0 1-2.18 1.84c-.6.3-1.16.47-1.71.54a3.55 3.55 0 0 1-2.87-.92 4.8 4.8 0 0 1-1.02-1.4c-.3-.62-.47-1.2-.5-1.76a3.6 3.6 0 0 1 1.07-2.81 5.07 5.07 0 0 1 2.52-1.37 3.03 3.03 0 0 1 2.49.49c.39.28.73.72 1.02 1.3.2.4.36.85.5 1.36l-5 2.48a1.64 1.64 0 0 0 1.27.93c.26.03.52.02.8-.04a4.52 4.52 0 0 0 2.1-1.17c.29-.31.5-.61.63-.9Zm-5.46-3.46a2.24 2.24 0 0 0-1.06 1.02 1.7 1.7 0 0 0-.07 1.41l3.42-1.7a1.7 1.7 0 0 0-.93-.9c-.39-.14-.84-.09-1.36.17Zm9-3.95 2.54 2.52.07-.03-.47-1.26-1.17-3.8 1.62-.8 2.05 7.63-1.82.9-2.14-2.35-.07.03.49 3.18-1.87.94-4.9-6.22 1.8-.9 2.59 3.51.53.8.07-.03-.48-3.55Zm18.93-6.9 1.53-.77 1.38 2.78c-.2.36-.49.71-.88 1.06a6.12 6.12 0 0 1-3.2 1.48 4 4 0 0 1-1.88-.16 4.82 4.82 0 0 1-1.78-1.07 7.22 7.22 0 0 1-1.54-2.15 6.65 6.65 0 0 1-.76-2.6 4.53 4.53 0 0 1 1.38-3.68 6.78 6.78 0 0 1 2.96-1.62 5.3 5.3 0 0 1 1.1-.15l1.44 2.88-1.53.76-.79-1.58c-.3.1-.61.22-.92.37a2.8 2.8 0 0 0-.9.7c-.25.3-.42.65-.51 1.02-.1.4-.1.84-.02 1.32.08.48.26 1.01.55 1.59.25.5.53.93.86 1.27.32.36.67.62 1.05.8a2.65 2.65 0 0 0 2.45-.05c.3-.15.59-.33.85-.52Zm-1.04-7.54 2.8-1.4 1.77 3.56.06-.02c.07-.41.25-.8.53-1.16.28-.35.68-.66 1.18-.9.32-.17.67-.29 1.04-.35.34-.06.67-.03.98.08.32.1.63.31.94.62.3.3.58.72.85 1.26l2.15 4.32-1.8.9-1.97-3.95c-.28-.56-.6-.9-.97-1.04-.36-.13-.74-.1-1.13.1a1.9 1.9 0 0 0-1 1.88l2.2 4.42-1.8.9-4.07-8.19-1 .5Zm11.19-1.51a8.14 8.14 0 0 1 2.7-2.1c.49-.25.92-.4 1.32-.44a2.09 2.09 0 0 1 1.9.63c.23.24.44.55.63.92.23.47.42.88.55 1.23a9.98 9.98 0 0 0 .98 1.9l.9-.44.76 1.52-2.33 1.16-.65-.85-.07.03c-.05.4-.2.8-.42 1.13-.24.38-.64.72-1.22 1a2.6 2.6 0 0 1-1.92.26 2.12 2.12 0 0 1-1.34-1.16c-.2-.4-.29-.76-.28-1.12a2 2 0 0 1 .27-1c.18-.31.44-.6.78-.89a6.45 6.45 0 0 1 1.75-1l.7-.28a1.5 1.5 0 0 0-.11-.29l-.13-.26c-.18-.35-.4-.56-.68-.6-.28-.06-.62.01-1.01.21-.44.2-.83.48-1.18.81-.27.26-.53.54-.77.83Zm4.9 3.92c.43-.22.72-.46.86-.73.14-.27.2-.53.22-.76l-.41-.84a5.06 5.06 0 0 0-1.55.72c-.15.1-.28.23-.4.38a1 1 0 0 0-.19.43c-.02.16 0 .33.08.47.13.26.3.42.53.49.22.07.5.01.85-.16Zm2.1-8 2.44-1.2.66.81.06-.02c.06-.4.24-.82.52-1.24a3.71 3.71 0 0 1 2.3-1.38 2.1 2.1 0 0 1 1 .07c.32.11.63.32.94.62.3.3.59.72.85 1.26l2.15 4.31-1.8.9-1.96-3.94c-.28-.56-.61-.9-.99-1.03a1.47 1.47 0 0 0-1.15.1c-.34.17-.61.44-.79.77-.18.3-.25.67-.2 1.03l2.23 4.5-1.8.89-2.7-5.41-1 .5Zm8.33-4.13 2.43-1.2.66.8.06-.02a3.22 3.22 0 0 1 1.8-2.28c.34-.17.68-.28 1.03-.34.34-.06.68-.03 1 .07.31.11.63.32.93.62.3.3.6.72.86 1.26l2.14 4.31-1.8.9-1.96-3.94c-.28-.56-.6-.9-.99-1.03a1.47 1.47 0 0 0-1.15.1 1.9 1.9 0 0 0-.79.77c-.17.31-.25.67-.2 1.03l2.23 4.5-1.8.89-2.7-5.41-1 .5Zm18.65-1.54c-.08.2-.18.39-.3.56a5.93 5.93 0 0 1-3.9 2.38 3.56 3.56 0 0 1-2.85-.93c-.4-.36-.74-.83-1.03-1.4-.3-.61-.47-1.2-.5-1.75a3.57 3.57 0 0 1 1.07-2.82 5.13 5.13 0 0 1 2.52-1.36c.41-.1.85-.1 1.27-.03.43.06.83.24 1.22.52s.73.71 1.02 1.3c.2.4.36.85.5 1.35l-5 2.49c.16.29.35.5.57.65.21.15.45.24.7.27.26.04.52.02.8-.04a4.5 4.5 0 0 0 2.1-1.17c.29-.3.5-.6.63-.9Zm-5.46-3.46a2.7 2.7 0 0 0-.63.43 2.04 2.04 0 0 0-.62 1.26c-.02.25.02.5.12.74l3.42-1.7a1.7 1.7 0 0 0-.93-.9c-.39-.15-.84-.1-1.36.17Zm3.12-6.57 2.96-1.47 3.18 6.4c.36.72.7 1.17 1 1.36.32.19.67.19 1.06 0 .29-.15.5-.3.66-.45.16-.15.3-.33.43-.53l1.3.91c-.1.18-.21.36-.33.52a3.21 3.21 0 0 1-.9.9c-.21.15-.44.28-.67.4-.87.43-1.63.53-2.29.3a2.89 2.89 0 0 1-1.59-1.56l-2.9-5.83-1.15.57Z"/><path fill="#231f20" d="M146.85 531.57a1.77 1.77 0 0 1-.8-3.36l154.6-76.88a1.77 1.77 0 0 1 1.59 3.18l-154.6 76.87c-.25.12-.52.19-.8.19Zm34.3 9.31a1.77 1.77 0 0 1-.8-3.36l107.03-53.21a1.77 1.77 0 0 1 1.58 3.17L181.93 540.7c-.24.12-.51.18-.78.18Zm-5.35 29.03a1.77 1.77 0 0 1-.79-3.36l138.74-68.99a1.77 1.77 0 1 1 1.58 3.18L176.6 569.72a1.7 1.7 0 0 1-.79.19Zm42.23 5.37a1.77 1.77 0 0 1-.8-3.36l75.32-37.44a1.77 1.77 0 0 1 1.58 3.17l-75.31 37.45c-.25.12-.52.18-.8.18Zm42.31 85.1a1.77 1.77 0 0 1-.79-3.35l75.32-37.45a1.77 1.77 0 0 1 1.58 3.17l-75.32 37.45a1.8 1.8 0 0 1-.79.18Zm26.24 13a1.77 1.77 0 0 1-.79-3.36l43.6-21.68a1.77 1.77 0 0 1 1.58 3.17l-43.6 21.68a1.8 1.8 0 0 1-.79.18ZM159.23 478.67l8.61-4.29 4.57 9.2c.4.78.66 1.56.8 2.35a4.81 4.81 0 0 1-.84 3.69 6.2 6.2 0 0 1-1.8 1.66 9.4 9.4 0 0 1-2.79 1.17c-.7.16-1.44.21-2.24.15l-.12-2.77c.67.04 1.22.02 1.65-.07.48-.12.94-.29 1.38-.51.3-.15.6-.37.9-.66.28-.3.5-.64.62-1.05.22-.76.1-1.6-.37-2.54l-3.33-6.7-5.8 2.88Zm15.8 3.7a7.02 7.02 0 0 1-.75-2.5 5.3 5.3 0 0 1 1.45-4.18 7.34 7.34 0 0 1 2.06-1.47c.87-.43 1.7-.69 2.51-.76a5.2 5.2 0 0 1 4.19 1.44 7.4 7.4 0 0 1 1.47 2.04c.43.87.68 1.7.76 2.5a5.3 5.3 0 0 1-1.46 4.19 7.32 7.32 0 0 1-2.06 1.47 6.8 6.8 0 0 1-2.51.76c-.77.09-1.54 0-2.27-.24a5.2 5.2 0 0 1-1.92-1.2 7.38 7.38 0 0 1-1.47-2.04Zm2.76-1.37c.23.46.5.85.82 1.17.31.32.66.57 1.03.74a2.72 2.72 0 0 0 2.44-.07c.8-.4 1.31-.98 1.56-1.73.25-.76.1-1.69-.44-2.79a3.98 3.98 0 0 0-1.85-1.95 2.69 2.69 0 0 0-2.43.12c-.37.18-.7.42-.99.7-.27.29-.46.62-.57 1-.11.38-.14.8-.08 1.27a5 5 0 0 0 .51 1.55Zm4.28-13.69 4.16-2.07 2.63 5.28.08-.04c.1-.6.37-1.18.8-1.7a5 5 0 0 1 1.73-1.36c.5-.25 1.01-.43 1.55-.52a3.09 3.09 0 0 1 2.86 1.04c.45.45.87 1.08 1.27 1.88l3.18 6.4-2.68 1.34-2.9-5.86c-.43-.83-.9-1.35-1.44-1.54-.55-.2-1.1-.15-1.68.14a2.8 2.8 0 0 0-1.49 2.8l3.27 6.57-2.68 1.33-6.05-12.16-1.48.74Zm14.66-2.15 3.6-1.8 1 1.21.08-.04a4.79 4.79 0 0 1 2.66-3.38c.48-.24 1-.41 1.53-.5.5-.1 1-.05 1.49.1.47.16.93.47 1.4.92.45.45.87 1.07 1.27 1.87l3.18 6.41-2.68 1.34-2.9-5.86c-.42-.84-.91-1.35-1.48-1.53a2.18 2.18 0 0 0-1.7.15c-.52.26-.9.64-1.18 1.14-.27.5-.37 1.01-.3 1.53l3.32 6.68-2.69 1.33-4-8.04-1.48.74Zm23.47-16.81a58.46 58.46 0 0 1 3.94-2.22 8.75 8.75 0 0 1 3.45-1.02 5.47 5.47 0 0 1 2.75.55 6.6 6.6 0 0 1 2.17 1.8 15.23 15.23 0 0 1 2.83 5.68c.25.96.3 1.96.16 2.94a6 6 0 0 1-1.23 2.75 8.7 8.7 0 0 1-3.1 2.34 27.37 27.37 0 0 1-1.92.88l-1.06.44c-.34.15-.6.25-.8.31Zm5.3.25c-.27.13-.52.27-.75.4l-.53.34 4.8 9.67.27-.1.35-.15.35-.14.27-.13c.8-.4 1.36-.86 1.69-1.39.32-.5.49-1.1.48-1.69a5.65 5.65 0 0 0-.35-1.85 18.02 18.02 0 0 0-1.7-3.45 5.22 5.22 0 0 0-1.2-1.33 3.24 3.24 0 0 0-1.6-.65c-.6-.08-1.3.08-2.09.47Zm11.37 3.03a7.06 7.06 0 0 1-.75-2.5 5.3 5.3 0 0 1 1.45-4.19 7.34 7.34 0 0 1 2.06-1.47c.87-.43 1.7-.69 2.52-.76a5.17 5.17 0 0 1 4.19 1.44 7.34 7.34 0 0 1 1.46 2.05 7 7 0 0 1 .76 2.5 5.3 5.3 0 0 1-1.46 4.18 7.36 7.36 0 0 1-2.06 1.48c-.86.43-1.7.68-2.5.76a5.16 5.16 0 0 1-4.19-1.44 7.34 7.34 0 0 1-1.48-2.05Zm2.77-1.37c.22.45.5.84.8 1.16.32.33.67.57 1.05.75a2.7 2.7 0 0 0 2.43-.08c.8-.4 1.32-.97 1.57-1.73s.1-1.69-.45-2.79a3.97 3.97 0 0 0-1.84-1.95 2.69 2.69 0 0 0-2.44.12c-.39.2-.71.43-.98.7-.28.29-.47.62-.58 1-.11.42-.14.85-.07 1.27.06.47.22.98.5 1.55Zm21.9-5.83a3.7 3.7 0 0 1-.44.82 7.52 7.52 0 0 1-1.85 1.9 8.97 8.97 0 0 1-3.93 1.64 5.3 5.3 0 0 1-4.26-1.37 7.12 7.12 0 0 1-1.51-2.1 6.7 6.7 0 0 1-.75-2.59 5.29 5.29 0 0 1 1.6-4.18 7.64 7.64 0 0 1 3.73-2.03 4.97 4.97 0 0 1 1.9-.05c.63.1 1.23.36 1.8.78a5.13 5.13 0 0 1 1.52 1.92c.3.6.54 1.27.74 2.02l-7.42 3.7a2.44 2.44 0 0 0 1.88 1.38c.38.04.77.02 1.18-.07a6.71 6.71 0 0 0 3.12-1.74c.44-.46.75-.9.94-1.34Zm-8.1-5.15c-.36.18-.67.4-.94.65a2.97 2.97 0 0 0-.92 1.87c-.03.37.04.75.18 1.09l5.07-2.52a2.53 2.53 0 0 0-1.37-1.35c-.58-.2-1.25-.12-2.02.26ZM951.2 838.9a66.79 66.79 0 0 1-60.46-38.62c-15.14-32.56-1.76-71.28 29.82-87.3l-.01-.04 1.81-.85 241.16-112.2 1.8 3.84-240.43 111.86-.73.34c-30.76 14.46-44.03 51.5-29.57 82.56 14.45 31.06 51.32 44.77 82.2 30.55l1.53-.71 239.62-111.49 1.78 3.85L976.7 833.76l-.02-.04a65.23 65.23 0 0 1-25.47 5.17Zm206.43-21.07-.93-1.55 1.71-1.03-.84-1.81 142.72-66.4v.04l129.63-60.32c14.26-6.7 20.4-23.86 13.7-38.26-6.69-14.4-23.78-20.75-38.09-14.16l-8.8 4.1-1.69-3.63 10.37-4.82.03.04c15.96-6.36 34.43.92 41.81 16.79a32.89 32.89 0 0 1-13.14 42.26l.1.1-2.6 1.21-136.28 63.41v-.04Z"/><path fill="#231f20" d="m1443.4 648.1-54.16-116.48c-6.7-14.4-23.78-20.75-38.09-14.16l-9.65 4.48-1.7-3.62 10.94-5.09.03.03c16.02-6.56 34.67.7 42.1 16.67l54.17 116.48Z"/><path fill="#2e9aff" d="m1373.13 666.83-118.77 55.25a32 32 0 0 1-42.51-15.51l12.65 27.2a32 32 0 0 0 42.51 15.51l118.77-55.25a32 32 0 0 0 15.52-42.52l-12.66-27.2a32 32 0 0 1-15.51 42.52Z"/><path fill="#fff" d="M1253.54 754.28a34.14 34.14 0 0 1-30.85-19.67l-12.65-27.19 3.62-1.7a30.13 30.13 0 0 0 27.22 17.36c4.38 0 8.63-.95 12.64-2.81L1372.29 665a29.8 29.8 0 0 0 15.52-16.91 29.8 29.8 0 0 0-.97-22.92l-.01-.02 3.63-1.7 12.65 27.2c7.9 17 .51 37.27-16.48 45.18l-118.77 55.25a33.7 33.7 0 0 1-14.32 3.19Zm-33.15-34.09 5.93 12.73a30.12 30.12 0 0 0 27.22 17.36c4.37 0 8.68-.96 12.63-2.81l118.77-55.26a30.04 30.04 0 0 0 14.55-39.86l-5.9-12.65a34.12 34.12 0 0 1-19.62 28.94l-118.76 55.26a33.72 33.72 0 0 1-14.33 3.18 34.07 34.07 0 0 1-20.49-6.89Z"/><path fill="#fff" d="M1240.89 727.08a34.14 34.14 0 0 1-30.86-19.67l-55.25-118.76a33.76 33.76 0 0 1-1.12-26 33.78 33.78 0 0 1 17.6-19.17l118.77-55.26a33.74 33.74 0 0 1 14.32-3.18 34.14 34.14 0 0 1 30.85 19.66l55.26 118.77a33.77 33.77 0 0 1 1.1 26 33.78 33.78 0 0 1-17.59 19.17l-118.76 55.26a33.7 33.7 0 0 1-14.32 3.18Zm63.46-238.04c-4.37 0-8.68.96-12.63 2.8l-118.77 55.27a29.8 29.8 0 0 0-15.53 16.91 29.8 29.8 0 0 0 .98 22.94l55.26 118.77a30.13 30.13 0 0 0 27.22 17.35c4.39 0 8.64-.95 12.64-2.8L1372.29 665a29.8 29.8 0 0 0 15.52-16.91 29.8 29.8 0 0 0-.98-22.94l-55.26-118.77a30.13 30.13 0 0 0-27.22-17.35Z"/><path fill="#fff" d="M1343 595.38a55.79 55.79 0 1 1-111.58 0 55.79 55.79 0 0 1 111.57 0Z"/><path fill="#2e9aff" d="M1327.29 577.06a42.59 42.59 0 0 1-48.3-26.86l-.38.06-.47-1.42a14.84 14.84 0 0 0-14.02-10.07 14.8 14.8 0 0 0-11.45 24.13l.94 1.15-.98 1.12a45.95 45.95 0 0 0-7 49.67 46.1 46.1 0 0 0 42.63 26.44l1.49-.03.29 1.46a14.82 14.82 0 0 0 14.52 11.98 14.8 14.8 0 0 0 12.58-22.52l-.79-1.28.26-.22a42.45 42.45 0 0 1 10.68-53.61Zm-61.11-32.3-5.7 13.88a1.77 1.77 0 1 1-3.27-1.34l5.69-13.88a1.77 1.77 0 1 1 3.28 1.34Zm45.6 97.4a1.77 1.77 0 0 1-1.08 3.38l-14.3-4.52a1.77 1.77 0 0 1-1.15-2.22 1.76 1.76 0 0 1 2.22-1.16Z"/><path d="M1318.84 576.9c3.4 0 6.68-.41 9.84-1.18a46.1 46.1 0 0 0-48.59-25.7l-.09.02a41.58 41.58 0 0 0 38.84 26.86Z"/><path fill="#231f20" d="M1318.84 577.9c2.9 0 5.72-.3 8.45-.84l.9-.72a42.03 42.03 0 0 1-48.7-26.22l-.5.08a42.59 42.59 0 0 0 39.85 27.7Z"/><path fill="#231f20" d="M1318.84 577.4c3.22 0 6.34-.37 9.35-1.06l.58-.43-.1-.2a41.58 41.58 0 0 1-48.67-25.68l-.51.09a42.03 42.03 0 0 0 39.35 27.28Z"/><path d="M1312.35 610.2c0 7.17 1.82 13.9 5.03 19.8l.1-.1a46.12 46.12 0 0 0 11.7-53.06 41.49 41.49 0 0 0-16.83 33.37Z"/><path fill="#231f20" d="M1311.85 610.2a41.94 41.94 0 0 1 16.53-33.4c-.36.1-.73.18-1.1.26a42.45 42.45 0 0 0-10.67 53.6l.37-.32a41.83 41.83 0 0 1-5.13-20.13Z"/><path fill="#231f20" d="m1327.29 577.06 1.09-.25.6-.45-.09-.18-.7.16-.9.72Z"/><path fill="#231f20" d="M1328.9 576.18c-.05-.08-.08-.17-.12-.26-.2.13-.4.28-.59.42l.7-.16Zm-17.05 34.03a41.82 41.82 0 0 0 5.13 20.13l.4-.35a41.48 41.48 0 0 1 11.8-53.15l-.08-.2-.72.17a41.94 41.94 0 0 0-16.53 33.4Z"/><path fill="#231f20" d="m1329.1 576.64-.13-.28-.59.45c.24-.06.48-.1.72-.17Z"/><path d="m1321.15 632.13-.27-.53a49.7 49.7 0 0 0 11.1-57.18 49.66 49.66 0 0 0-51.02-28.1 18.4 18.4 0 0 0-16.85-11.1 18.35 18.35 0 0 0-15.08 28.72 49.49 49.49 0 0 0-6.6 52.4 49.67 49.67 0 0 0 44.47 28.5 18.41 18.41 0 0 0 17.66 13.4 18.35 18.35 0 0 0 16.58-26.1Zm-9.58 22.77a16.55 16.55 0 0 1-23.27-11.85 47.7 47.7 0 0 1-37-79.04 16.56 16.56 0 1 1 25.77-20.77 16.57 16.57 0 0 1 1.5 2.27 16.04 16.04 0 0 1 1.24 2.76 47.69 47.69 0 0 1 50.42 26.61l.15.3.03.07.03.07c.07.13.12.26.18.4l.04.08.16.37a47.7 47.7 0 0 1-12.17 55.06 16.27 16.27 0 0 1 2.17 5.68 16.55 16.55 0 0 1-9.25 17.99Z"/><path d="m1316.61 630.67-.26.22.8 1.28a14.8 14.8 0 0 1-12.58 22.52 14.85 14.85 0 0 1-14.53-11.98l-.3-1.46-1.48.03a46.1 46.1 0 0 1-42.63-26.44 45.95 45.95 0 0 1 7-49.67l.98-1.12-.94-1.16a14.8 14.8 0 0 1 11.45-24.13 14.84 14.84 0 0 1 14.02 10.08l.47 1.42.38-.06a42.11 42.11 0 0 1-1.93-6.96 16.55 16.55 0 1 0-25.77 20.77 47.7 47.7 0 0 0 37 79.04 16.56 16.56 0 0 0 32.52-6.14 43.12 43.12 0 0 1-4.2-6.24Z"/><path d="M1280.1 550.02a46.1 46.1 0 0 1 48.58 25.69l.55-.13 1-.7a47.7 47.7 0 0 0-50.41-26.6c-.2-.6-.43-1.18-.7-1.75-.16-.35-.35-.68-.54-1.02a41.2 41.2 0 0 0 1.42 4.53Zm-.61.1a41.6 41.6 0 0 1-1.74-5.94c-.22-.32-.44-.63-.68-.94.44 2.37 1.08 4.7 1.92 6.96Z"/><path d="M1280 550.04a41.2 41.2 0 0 1-1.42-4.53c-.25-.45-.53-.9-.83-1.33.43 2.02 1.01 4 1.74 5.94Zm49.23 25.55-.55.13.1.2c.14-.12.3-.23.45-.33Zm-.04 1.25a46.12 46.12 0 0 1-11.7 53.06l-.11.1c.84 1.52 1.77 3 2.79 4.41a16.2 16.2 0 0 0-1.52-3.17 47.7 47.7 0 0 0 12.17-55.07l-1.14.33-.5.35Z"/><path d="m1330.82 576.17-.16-.37c-.34.22-.66.46-.99.7.4-.1.77-.22 1.15-.33Zm-14.2 54.5c1.2 2.2 2.62 4.29 4.2 6.24-.06-.35-.14-.7-.22-1.06a41.85 41.85 0 0 1-3.62-5.51Zm13.8-55.42-.04-.08-.14-.3-1 .72c.39-.1.78-.23 1.17-.34Zm-1.03.82-.5.11.08.18.42-.3Z"/><path d="M1328.77 575.91v.01l.12.26.5-.11c.35-.26.7-.51 1.06-.75l-.04-.07-1.18.34-.46.32Zm.9.59-.57.14.09.2.48-.34Zm-12.69 53.84a42.02 42.02 0 0 0 3.62 5.51c-.12-.48-.27-.97-.43-1.44a41.43 41.43 0 0 1-2.8-4.41Z"/><path d="m1328.97 576.36.13.28.57-.14c.33-.24.65-.48.99-.7l-.04-.09-1.23.36-.42.3Z"/><path d="m1330.62 575.72-.17-.4c-.36.24-.71.5-1.06.75l1.23-.36Zm-65.4-33.27a1.78 1.78 0 0 0-2.32.97l-5.7 13.88a1.77 1.77 0 1 0 3.29 1.34l5.69-13.88c.37-.9-.06-1.94-.97-2.3Zm30.03 96.35a1.77 1.77 0 0 0 1.15 2.22l14.3 4.52a1.77 1.77 0 0 0 1.07-3.38l-14.3-4.52a1.76 1.76 0 0 0-2.22 1.16Zm-18.94-54.75a6.29 6.29 0 1 1-5.33-11.4 6.29 6.29 0 0 1 5.33 11.4Z"/><path fill="#231f20" d="M1273.65 585.14a6.81 6.81 0 0 1-6.39-9.1 6.74 6.74 0 0 1 6.38-4.48 6.81 6.81 0 0 1 6.39 9.1 6.76 6.76 0 0 1-6.38 4.48Zm0-12.58a5.74 5.74 0 0 0-5.44 3.82 5.81 5.81 0 0 0 7.9 7.22 5.75 5.75 0 0 0 2.78-7.7 5.8 5.8 0 0 0-5.25-3.34Z"/><path d="M1278.01 591.91a1.77 1.77 0 0 1-1.52-2.67 13.47 13.47 0 0 0-9.41-20.1 1.77 1.77 0 1 1 .58-3.5 17 17 0 0 1 11.88 25.4c-.33.56-.92.87-1.53.87Zm19.33 23.62a6.3 6.3 0 1 1-12.58 0 6.3 6.3 0 0 1 12.58 0Z"/><path fill="#231f20" d="M1291.05 622.32a6.8 6.8 0 1 1 .02-13.6 6.8 6.8 0 0 1-.02 13.6Zm0-12.58a5.8 5.8 0 1 0 .01 11.6 5.8 5.8 0 0 0 0-11.6Z"/><path d="M1295.42 629.1a1.77 1.77 0 0 1-1.53-2.68 13.47 13.47 0 0 0-9.41-20.1 1.77 1.77 0 0 1 .58-3.5 17.01 17.01 0 0 1 11.89 25.4c-.32.54-.9.87-1.53.87Zm-21.27-26.2a1.77 1.77 0 0 1-.75-3.37l8.29-3.89a1.77 1.77 0 1 1 1.5 3.21l-8.3 3.88a1.6 1.6 0 0 1-.74.17Z"/><path fill="#fff" d="M1273.02 611a8.3 8.3 0 0 1-7.03-15.02"/><path fill="#231f20" d="m1203.34 579.62 4.12 8.7-9.28 4.4c-.75.35-1.55.6-2.37.75a4.8 4.8 0 0 1-3.66-.92 6.48 6.48 0 0 1-2.06-2.6 9.54 9.54 0 0 1-.7-2.04 7.15 7.15 0 0 1-.1-2.25l2.77-.06c-.05.67-.04 1.22.04 1.65.09.42.25.89.48 1.39.15.3.36.6.65.9.29.3.63.52 1.03.65.76.23 1.6.13 2.55-.32l6.76-3.2-2.77-5.85Zm-4 15.73a7.12 7.12 0 0 1 2.5-.7 5.29 5.29 0 0 1 4.16 1.53 7.35 7.35 0 0 1 1.44 2.08c.41.88.65 1.72.71 2.53a5.23 5.23 0 0 1-1.52 4.16 7.4 7.4 0 0 1-2.07 1.43c-.87.41-1.71.65-2.52.71a5.27 5.27 0 0 1-4.15-1.54 7.3 7.3 0 0 1-1.44-2.08 7.22 7.22 0 0 1-.71-2.53 5.18 5.18 0 0 1 1.52-4.16 7.26 7.26 0 0 1 2.07-1.43Zm1.31 2.79c-.43.2-.83.47-1.18.79-.32.29-.58.64-.76 1.02a2.7 2.7 0 0 0 .03 2.43 2.9 2.9 0 0 0 1.7 1.6c.75.27 1.68.14 2.8-.39a3.98 3.98 0 0 0 1.98-1.8 2.7 2.7 0 0 0-.07-2.44c-.18-.37-.4-.71-.7-1a2.39 2.39 0 0 0-.97-.6 3.13 3.13 0 0 0-1.27-.1c-.47.06-.99.22-1.56.49Zm13.61 4.53 2 4.2-5.33 2.53.04.08c.6.12 1.16.4 1.69.83a5 5 0 0 1 1.32 1.77c.25.52.41 1.04.48 1.55a3.08 3.08 0 0 1-1.09 2.84c-.46.44-1.1.85-1.9 1.23l-6.47 3.06-1.28-2.7 5.9-2.8c.86-.4 1.38-.87 1.58-1.41.2-.54.17-1.1-.1-1.68a2.83 2.83 0 0 0-2.77-1.54l-6.64 3.14-1.28-2.7 12.27-5.82-.7-1.5Zm1.88 14.7 1.72 3.65-1.22.96.03.08a4.8 4.8 0 0 1 3.33 2.73c.25.51.4 1.03.48 1.54.08.5.03 1-.14 1.48-.17.47-.48.93-.94 1.38a7.1 7.1 0 0 1-1.9 1.24l-6.46 3.07-1.28-2.7 5.9-2.8c.85-.4 1.37-.89 1.56-1.45a2.2 2.2 0 0 0-.12-1.71 2.68 2.68 0 0 0-2.63-1.53l-6.74 3.2-1.28-2.71 8.11-3.84-.71-1.5Zm16.36 23.79a37.47 37.47 0 0 1 1.58 2.85c.22.42.4.8.56 1.13a8.8 8.8 0 0 1 .96 3.47 5.47 5.47 0 0 1-.6 2.74 6.6 6.6 0 0 1-1.84 2.13 15.44 15.44 0 0 1-5.74 2.72 7.2 7.2 0 0 1-2.94.1 6.02 6.02 0 0 1-2.72-1.27 8.7 8.7 0 0 1-2.29-3.14 34.8 34.8 0 0 1-.83-1.95l-.43-1.07c-.14-.34-.24-.6-.3-.8Zm-.35 5.29a9.36 9.36 0 0 0-.71-1.3l-9.76 4.63c.01.06.04.14.09.26l.14.36.14.35.12.27a4 4 0 0 0 1.36 1.72c.5.33 1.08.5 1.68.51.63 0 1.26-.1 1.86-.32 1.22-.41 2.39-.96 3.48-1.64.52-.3.97-.7 1.35-1.17.37-.45.6-.98.68-1.58a3.7 3.7 0 0 0-.43-2.1Zm-3.25 11.32a7.13 7.13 0 0 1 2.52-.71 5.25 5.25 0 0 1 4.16 1.53 7.3 7.3 0 0 1 1.43 2.09c.41.87.65 1.72.72 2.53a5.23 5.23 0 0 1-1.52 4.16 7.36 7.36 0 0 1-2.08 1.43c-.87.41-1.71.65-2.52.7a5.3 5.3 0 0 1-4.15-1.53 7.33 7.33 0 0 1-1.43-2.08 7.25 7.25 0 0 1-.72-2.53 5.18 5.18 0 0 1 1.52-4.16 7.32 7.32 0 0 1 2.07-1.43Zm1.33 2.78c-.46.22-.86.49-1.18.8-.33.3-.59.64-.77 1.02-.18.37-.27.76-.27 1.17 0 .41.1.83.3 1.26.38.8.95 1.34 1.7 1.6.76.26 1.69.13 2.8-.4a3.99 3.99 0 0 0 1.98-1.8 2.7 2.7 0 0 0-.07-2.44c-.17-.37-.4-.7-.69-1a2.37 2.37 0 0 0-.98-.6 3.12 3.12 0 0 0-1.27-.09c-.47.05-.99.22-1.55.48Zm5.41 22.02a4.25 4.25 0 0 1-.82-.46 8.72 8.72 0 0 1-2.66-3.28 7.81 7.81 0 0 1-.76-2.57 5.27 5.27 0 0 1 1.45-4.23 7.16 7.16 0 0 1 2.12-1.47 6.75 6.75 0 0 1 2.6-.7 5.31 5.31 0 0 1 4.16 1.67 7.6 7.6 0 0 1 1.96 3.77c.12.63.13 1.26.01 1.9a4.27 4.27 0 0 1-.81 1.8 5.13 5.13 0 0 1-1.95 1.47c-.6.28-1.28.52-2.04.7l-3.55-7.48a2.5 2.5 0 0 0-1.41 1.85c-.06.38-.05.78.04 1.18a6.69 6.69 0 0 0 1.69 3.15c.44.45.88.77 1.31.97Zm5.3-8a3.78 3.78 0 0 0-.63-.96 3.1 3.1 0 0 0-.85-.65 2.65 2.65 0 0 0-1.01-.3c-.37-.03-.75.02-1.1.16l2.43 5.11a2.5 2.5 0 0 0 1.38-1.35c.22-.57.15-1.24-.22-2.02ZM1094.41 845.6c-6.2 0-11.9-3.64-14.51-9.26l-21.1-45.33 104.87-48.8 21.1 45.33c3.72 8 .24 17.54-7.76 21.26l-75.86 35.3c-2.1.99-4.4 1.5-6.74 1.5Zm-30.3-52.65 19.41 41.7a12.04 12.04 0 0 0 15.95 5.82l75.85-35.3c6-2.79 8.6-9.94 5.82-15.94l-19.4-41.7-11.04 5.13 18.7 40.2-75.25 35-18.7-40.19Zm15.11-6.66 16.87 36.26 68-31.63-16.87-36.27Z"/><path fill="#231f20" d="m1121.65 815.1-20.15-43.3 18.6-8.65 20.14 43.3Zm-15.05-41.44 16.9 36.34 11.64-5.41-16.9-36.34Z"/><path fill="#fff" d="M987.36 770.57c-7.4 0-13.43-6.02-13.43-13.42s6.03-13.42 13.43-13.42a13.43 13.43 0 0 1 0 26.84Zm0-23a9.6 9.6 0 0 0 0 19.16 9.6 9.6 0 0 0 0-19.16Zm70.72-9.9c-7.4 0-13.42-6.02-13.42-13.42s6.02-13.42 13.41-13.42c7.4 0 13.42 6.02 13.42 13.42s-6.02 13.42-13.41 13.42Zm0-23a9.6 9.6 0 0 0 0 19.16 9.6 9.6 0 0 0 0-19.16Zm70.72-9.9c-7.4 0-13.42-6.02-13.42-13.42s6.02-13.42 13.42-13.42 13.42 6.02 13.42 13.42-6.03 13.42-13.42 13.42Zm0-23a9.6 9.6 0 0 0 0 19.16 9.6 9.6 0 0 0 0-19.16Z"/></svg>