<svg xmlns="http://www.w3.org/2000/svg" xmlns:xlink="http://www.w3.org/1999/xlink" width="1920" height="1080"><path d="M654.722 250.46c-5.032 0-9.126 4.094-9.126 9.126 0 5.032 4.094 9.126 9.126 9.126s9.126-4.094 9.126-9.126-4.094-9.126-9.126-9.126z"/><path fill="#231F20" d="M654.722 269.212c-5.308 0-9.626-4.318-9.626-9.626s4.318-9.626 9.626-9.626c5.309 0 9.626 4.318 9.626 9.626s-4.319 9.626-9.626 9.626zm0-18.252c-4.756 0-8.626 3.87-8.626 8.626s3.87 8.626 8.626 8.626c4.757 0 8.626-3.87 8.626-8.626s-3.869-8.626-8.626-8.626z"/><path d="M1320.318 216.694h-748.34c-16.13 0-29.203 13.075-29.203 29.204v182.178l141.752 285.077h635.789c16.13 0 29.2-13.074 29.2-29.203V245.897c.005-16.128-13.069-29.203-29.198-29.203zm-665.596 55.669c-7.045 0-12.773-5.731-12.773-12.776s5.729-12.776 12.773-12.776c7.046 0 12.776 5.731 12.776 12.776.001 7.044-5.73 12.776-12.776 12.776z"/><path fill="#231F20" d="M1320.316 713.653H684.218l-.138-.277-141.805-285.182V245.898c0-16.379 13.324-29.704 29.703-29.704h748.34c7.935 0 15.394 3.09 21.003 8.7 5.608 5.61 8.698 13.069 8.696 21.003V683.95c.001 16.378-13.324 29.703-29.701 29.703zm-635.479-1h635.479c15.825 0 28.7-12.876 28.7-28.703V245.897c.002-7.667-2.981-14.875-8.402-20.296s-12.629-8.407-20.296-8.407h-748.34c-15.828 0-28.703 12.876-28.703 28.704v182.061l141.562 284.694zm-30.115-439.79c-7.318 0-13.273-5.956-13.273-13.276 0-7.32 5.955-13.276 13.273-13.276 7.321 0 13.276 5.956 13.276 13.276 0 3.541-1.382 6.873-3.893 9.383a13.184 13.184 0 01-9.383 3.893zm0-25.552c-6.768 0-12.273 5.507-12.273 12.276s5.506 12.276 12.273 12.276c3.274 0 6.355-1.278 8.677-3.6a12.192 12.192 0 003.6-8.676c-.001-6.769-5.508-12.276-12.277-12.276z"/><circle fill="#FFF" cx="722.571" cy="411.532" r="95.142"/><path d="M722.571 508.674c-53.564 0-97.144-43.578-97.144-97.142 0-53.564 43.578-97.144 97.144-97.144 53.563 0 97.142 43.578 97.142 97.144 0 53.564-43.578 97.142-97.142 97.142zm0-190.284c-51.359 0-93.144 41.784-93.144 93.144 0 51.357 41.784 93.142 93.144 93.142 51.357 0 93.142-41.783 93.142-93.142 0-51.361-41.783-93.144-93.142-93.144z"/><path fill="#2E9AFF" d="M803.881 388.7c-1.083 0-2.148.063-3.202.186-9.809-33.885-41.062-58.662-78.104-58.662-37.048 0-68.306 24.776-78.111 58.662a28.371 28.371 0 00-3.198-.186c-15.593 0-28.229 12.638-28.229 28.229 0 15.595 12.641 28.23 28.229 28.23 2.376 0 4.685-.298 6.887-.852 12.604 28.578 41.184 48.526 74.426 48.526 33.236 0 61.813-19.948 74.423-48.528 2.205.556 4.51.854 6.886.854 15.591 0 28.23-12.638 28.23-28.23-.005-15.591-12.645-28.229-28.237-28.229z"/><path fill="none" d="M803.881 388.7c-1.083 0-2.148.063-3.202.186-9.674-33.418-40.209-57.96-76.582-58.63-5.301 34.601-35.269 61.189-71.33 61.189-5.99 0-11.807-.746-17.376-2.128-12.772 2.703-22.355 14.036-22.355 27.613 0 15.595 12.641 28.23 28.229 28.23 2.376 0 4.685-.298 6.887-.852 12.604 28.578 41.184 48.526 74.426 48.526 33.236 0 61.813-19.948 74.423-48.528 2.205.556 4.51.854 6.886.854 15.591 0 28.23-12.638 28.23-28.23-.004-15.592-12.644-28.23-28.236-28.23z"/><path d="M723.085 330.234c-.171-.001-.339-.011-.51-.011-37.048 0-68.306 24.776-78.111 58.662a28.371 28.371 0 00-3.198-.186c-1.104 0-2.192.07-3.264.194a71.149 71.149 0 0014.766 1.55c35.515.001 65.034-26.151 70.317-60.209z"/><path fill="#231F20" d="M724.097 330.255c-.167-.003-.334-.008-.501-.01-5.276 34.375-34.978 60.699-70.829 60.699a71.766 71.766 0 01-16.166-1.854c-.406.067-.809.141-1.209.226a72.048 72.048 0 0017.376 2.128c36.061 0 66.028-26.588 71.329-61.189z"/><path fill="#231F20" d="M723.596 330.245c-.17-.002-.34-.01-.51-.011-5.283 34.058-34.803 60.21-70.318 60.21-5.062 0-10-.541-14.766-1.55-.471.054-.938.12-1.401.197a71.824 71.824 0 0016.166 1.854c35.851-.001 65.552-26.325 70.829-60.7z"/><g><defs><path id="a" d="M803.881 388.7c-1.083 0-2.148.063-3.202.186-9.809-33.885-41.062-58.662-78.104-58.662-37.048 0-68.306 24.776-78.111 58.662a28.371 28.371 0 00-3.198-.186c-15.593 0-28.229 12.638-28.229 28.229 0 15.595 12.641 28.23 28.229 28.23 2.376 0 4.685-.298 6.887-.852 12.604 28.578 41.184 48.526 74.426 48.526 33.236 0 61.813-19.948 74.423-48.528 2.205.556 4.51.854 6.886.854 15.591 0 28.23-12.638 28.23-28.23-.005-15.591-12.645-28.229-28.237-28.229z"/></defs><clipPath id="b"><use xlink:href="#a" overflow="visible"/></clipPath><g clip-path="url(#b)"><path d="M865.332 319.284c0 39.578-32.083 71.66-71.662 71.66-39.577 0-71.663-32.083-71.663-71.66 0-39.58 32.086-71.665 71.663-71.665 39.579 0 71.662 32.085 71.662 71.665z"/><path fill="#231F20" d="M793.67 391.444c-39.791 0-72.163-32.371-72.163-72.16 0-39.792 32.372-72.165 72.163-72.165s72.162 32.373 72.162 72.165c0 39.789-32.372 72.16-72.162 72.16zm0-143.325c-39.239 0-71.163 31.924-71.163 71.165 0 39.238 31.924 71.16 71.163 71.16s71.162-31.922 71.162-71.16c0-39.241-31.923-71.165-71.162-71.165z"/></g></g><g><path d="M722.576 494.837c-32.456 0-61.94-18.873-75.578-48.223a30.31 30.31 0 01-5.733.547c-16.669 0-30.229-13.562-30.229-30.23s13.562-30.229 30.229-30.229c.575 0 1.16.018 1.75.053 10.75-34.546 43.229-58.53 79.56-58.53 36.325 0 68.799 23.983 79.552 58.529a29.576 29.576 0 011.754-.053c16.669 0 30.232 13.561 30.234 30.229 0 16.669-13.562 30.23-30.23 30.23-1.924 0-3.846-.185-5.733-.549-13.643 29.353-43.127 48.226-75.576 48.226zM649.3 441.96l.681 1.543c12.682 28.754 41.177 47.333 72.597 47.333 31.413 0 59.907-18.581 72.593-47.335l.682-1.544 1.637.412c2.09.524 4.242.792 6.397.792 14.464 0 26.23-11.768 26.23-26.23-.002-14.463-11.771-26.229-26.234-26.229-.978 0-1.978.058-2.974.172l-1.68.193-.471-1.624c-9.752-33.689-41.08-57.219-76.184-57.219-35.11 0-66.44 23.529-76.19 57.219l-.47 1.622-1.677-.19a26.37 26.37 0 00-2.974-.173c-14.463 0-26.229 11.767-26.229 26.229s11.767 26.23 26.229 26.23c2.156 0 4.31-.267 6.399-.791l1.638-.41z"/></g><g><path d="M644.271 430.286a1.999 1.999 0 01-1.473-.646l-17.312-18.823a2 2 0 012.943-2.708l17.313 18.823a2 2 0 01-1.471 3.354z"/></g><g><path d="M797.494 430.286a2 2 0 01-1.472-3.354l17.313-18.823a2 2 0 012.944 2.708l-17.313 18.823a1.992 1.992 0 01-1.472.646z"/></g><g><path d="M697.183 420.166c0 5.925-4.806 10.728-10.728 10.728-5.925 0-10.729-4.803-10.729-10.728 0-5.926 4.808-10.729 10.729-10.729 5.921.001 10.728 4.803 10.728 10.729z"/><path fill="#231F20" d="M686.455 431.394c-6.192 0-11.229-5.036-11.229-11.228s5.037-11.229 11.229-11.229c6.191.001 11.229 5.038 11.229 11.229s-5.038 11.228-11.229 11.228zm0-21.456c-5.641 0-10.229 4.589-10.229 10.229s4.588 10.228 10.229 10.228c5.64 0 10.229-4.588 10.229-10.228s-4.589-10.229-10.229-10.229z"/><g><path d="M707.828 423.942a1.999 1.999 0 01-1.651-.868c-4.48-6.53-11.874-10.429-19.775-10.429s-15.294 3.898-19.776 10.429a2 2 0 11-3.298-2.264 27.987 27.987 0 0123.073-12.164 27.982 27.982 0 0123.074 12.164 2 2 0 01-1.647 3.132z"/></g></g><g><circle cx="756.47" cy="420.166" r="10.729"/><path fill="#231F20" d="M756.47 431.395c-6.19 0-11.229-5.036-11.229-11.229s5.037-11.229 11.229-11.229c6.192 0 11.229 5.038 11.229 11.229s-5.037 11.229-11.229 11.229zm0-21.457c-5.64 0-10.229 4.589-10.229 10.229s4.588 10.229 10.229 10.229c5.642 0 10.229-4.588 10.229-10.229s-4.589-10.229-10.229-10.229z"/><g><path d="M734.99 423.942a2 2 0 01-1.648-3.133 27.99 27.99 0 0123.075-12.164 27.98 27.98 0 0123.075 12.165 2 2 0 11-3.299 2.263 23.982 23.982 0 00-19.776-10.428 23.987 23.987 0 00-19.777 10.429 1.995 1.995 0 01-1.65.868z"/></g></g><g><path d="M722.006 437.867a2 2 0 01-2-2v-15.622a2 2 0 014 0v15.622a2 2 0 01-2 2z"/></g><g><path fill="#FFF" d="M736.42 444.739c0 7.804-6.327 14.131-14.131 14.131-7.805 0-14.134-6.327-14.134-14.131"/></g><g><path fill="#FFF" d="M1310.49 693.697H676.333v-4h634.157c8.961 0 16.252-7.291 16.252-16.252V256.403c0-8.961-7.291-16.252-16.252-16.252H581.809c-8.961 0-16.252 7.291-16.252 16.252v210.598h-4V256.403c0-11.167 9.086-20.252 20.252-20.252h728.683c11.167 0 20.252 9.085 20.252 20.252v417.042c-.002 11.167-9.087 20.252-20.254 20.252z"/></g><g><path fill="#FFF" d="M564.848 278.183h763.816v4H564.848z"/></g><g><path fill="#FFF" d="M1236.354 396.665H871.225a2 2 0 010-4h365.129a2 2 0 010 4zM1124.002 429.23H871.225a2 2 0 010-4h252.777a2 2 0 010 4zM1198.902 461.797H871.225a2 2 0 010-4h327.679a2 2 0 11-.002 4zM1049.1 494.362H871.225a2 2 0 010-4H1049.1a2 2 0 010 4z"/><g fill="#FFF"><path d="M874.146 335.466h13.272v14.161c0 1.206-.154 2.339-.46 3.397a6.65 6.65 0 01-1.667 2.824 6.454 6.454 0 01-1.635 1.207c-.583.298-1.148.52-1.699.667s-1.069.242-1.556.285c-.487.042-.89.063-1.207.063-1.017 0-2-.111-2.953-.333-.953-.224-1.905-.619-2.857-1.19l1.557-3.493c.804.467 1.498.773 2.08.921.582.148 1.254.224 2.017.224.465 0 .968-.09 1.508-.271a3.41 3.41 0 001.413-.903c.741-.806 1.111-1.928 1.111-3.366V339.34h-8.922v-3.873h-.002zM891.388 349.754c0-1.334.201-2.52.604-3.557.401-1.037.974-1.915 1.715-2.636a7.316 7.316 0 012.651-1.636c1.025-.37 2.175-.556 3.444-.556 1.333 0 2.524.201 3.572.604 1.047.402 1.931.97 2.651 1.698.72.73 1.265 1.614 1.635 2.651s.556 2.181.556 3.43c0 1.333-.2 2.52-.603 3.556-.402 1.037-.975 1.916-1.715 2.637-.741.72-1.625 1.265-2.651 1.635s-2.175.556-3.445.556c-1.333 0-2.523-.201-3.571-.604-1.049-.401-1.933-.968-2.651-1.698-.72-.73-1.265-1.614-1.635-2.651-.372-1.037-.557-2.18-.557-3.429zm4.255 0c0 .698.096 1.344.286 1.938.191.593.466 1.11.825 1.556.36.445.794.789 1.302 1.032.509.243 1.091.364 1.746.364 1.229 0 2.229-.392 3-1.175.772-.783 1.159-2.021 1.159-3.715 0-1.461-.359-2.641-1.08-3.541-.72-.898-1.747-1.349-3.08-1.349-.593 0-1.143.09-1.65.27a3.261 3.261 0 00-1.318.873c-.371.402-.662.91-.873 1.524-.211.615-.317 1.355-.317 2.223zM909.327 335.466h6.414v8.128h.127c.508-.677 1.185-1.217 2.032-1.619.847-.401 1.842-.604 2.984-.604.805 0 1.545.105 2.224.316a4.209 4.209 0 011.745 1.049c.487.486.868 1.147 1.144 1.983.274.837.413 1.868.413 3.097v9.875h-4.127v-9.019c0-1.291-.275-2.223-.826-2.794s-1.27-.856-2.159-.856c-.783 0-1.503.237-2.159.715a3.875 3.875 0 00-1.396 1.825v10.129h-4.127v-18.733h-2.286v-3.492h-.003zM928.759 341.815h5.558l.476 2.096h.127c.486-.677 1.185-1.271 2.095-1.778s2-.762 3.271-.762a7.49 7.49 0 012.207.316c.688.213 1.274.562 1.762 1.049s.874 1.147 1.159 1.983c.286.837.429 1.868.429 3.097v9.875h-4.128v-9.019c0-1.291-.291-2.223-.873-2.794-.583-.571-1.317-.856-2.207-.856a3.64 3.64 0 00-2.144.683c-.646.456-1.085 1.021-1.317 1.699v10.287h-4.128v-12.384h-2.286v-3.492zM968.066 335.466a47.23 47.23 0 012.619-.207 100.3 100.3 0 011.873-.079 53.732 53.732 0 011.73-.031c1.968 0 3.599.285 4.89.856 1.291.572 2.312 1.36 3.064 2.366.75 1.005 1.274 2.189 1.571 3.556.296 1.365.443 2.854.443 4.461 0 1.461-.147 2.891-.443 4.287-.297 1.396-.831 2.642-1.604 3.73-.772 1.089-1.842 1.969-3.207 2.635-1.365.667-3.117 1.001-5.255 1.001-.339 0-.773-.012-1.302-.032a152.53 152.53 0 01-3.207-.175 13.91 13.91 0 01-1.175-.11v-22.258h.003zm6.383 3.555c-.402 0-.795.016-1.176.048-.382.03-.666.059-.857.079v14.892c.085.021.212.037.381.048l.524.031.523.032c.169.011.308.016.412.016 1.228 0 2.207-.228 2.938-.683a4.313 4.313 0 001.635-1.794c.359-.741.593-1.577.699-2.51.104-.931.157-1.861.157-2.794 0-.804-.047-1.64-.143-2.508s-.318-1.662-.667-2.382a4.46 4.46 0 00-1.571-1.778c-.697-.463-1.649-.697-2.855-.697zM986.641 349.754c0-1.334.201-2.52.604-3.557.401-1.037.973-1.915 1.715-2.636a7.303 7.303 0 012.65-1.636c1.026-.37 2.176-.556 3.444-.556 1.334 0 2.524.201 3.572.604 1.047.402 1.932.97 2.65 1.698.721.73 1.266 1.614 1.636 2.651s.556 2.181.556 3.43c0 1.333-.201 2.52-.604 3.556-.403 1.037-.975 1.916-1.715 2.637a7.296 7.296 0 01-2.65 1.635c-1.027.37-2.176.556-3.445.556-1.334 0-2.523-.201-3.571-.604-1.048-.401-1.933-.968-2.65-1.698-.721-.73-1.266-1.614-1.636-2.651-.37-1.037-.556-2.18-.556-3.429zm4.255 0c0 .698.095 1.344.285 1.938.189.593.465 1.11.824 1.556.36.444.795.789 1.303 1.032s1.09.364 1.746.364c1.229 0 2.229-.392 3-1.175.773-.783 1.16-2.021 1.16-3.715 0-1.461-.361-2.641-1.08-3.541-.721-.898-1.746-1.349-3.08-1.349-.593 0-1.143.09-1.65.27a3.258 3.258 0 00-1.317.873c-.371.402-.662.91-.873 1.524-.213.615-.318 1.355-.318 2.223zM1021.535 356.009c-.275.254-.63.503-1.063.746-.435.243-.941.471-1.523.684-.582.212-1.224.381-1.92.508-.699.127-1.44.189-2.224.189-1.354 0-2.566-.189-3.637-.57-1.068-.382-1.974-.938-2.715-1.667a7.286 7.286 0 01-1.698-2.637c-.392-1.025-.587-2.194-.587-3.508 0-1.396.223-2.62.666-3.668.445-1.048 1.053-1.921 1.826-2.619a7.598 7.598 0 012.715-1.57c1.037-.351 2.159-.524 3.365-.524.805 0 1.635.106 2.492.317a6.783 6.783 0 012.365 1.096c.721.519 1.308 1.212 1.764 2.08.453.868.682 1.968.682 3.302 0 .91-.105 1.896-.316 2.953h-11.432c.021.678.164 1.249.43 1.714.265.466.613.848 1.047 1.145.435.297.933.514 1.492.649a7.449 7.449 0 001.795.207c1.271 0 2.312-.147 3.127-.444s1.478-.655 1.984-1.08l1.365 2.697zm-6.857-11.336c-.551 0-1.07.076-1.557.229a4.294 4.294 0 00-1.317.663 3.64 3.64 0 00-.969 1.083 3.343 3.343 0 00-.444 1.455h7.812c0-1.057-.291-1.893-.873-2.507-.584-.616-1.468-.923-2.652-.923z"/></g></g><g><path fill="#FFF" d="M587.798 272.537c-7.141 0-12.951-5.81-12.951-12.951s5.811-12.951 12.951-12.951c7.142 0 12.951 5.81 12.951 12.951s-5.81 12.951-12.951 12.951zm0-21.902c-4.936 0-8.951 4.016-8.951 8.951s4.017 8.951 8.951 8.951 8.951-4.016 8.951-8.951-4.017-8.951-8.951-8.951z"/></g><g><path fill="#2E9AFF" d="M621.26 272.537c-7.141 0-12.951-5.81-12.951-12.951s5.811-12.951 12.951-12.951c7.142 0 12.951 5.81 12.951 12.951s-5.81 12.951-12.951 12.951zm0-21.902c-4.936 0-8.951 4.016-8.951 8.951s4.017 8.951 8.951 8.951c4.936 0 8.951-4.016 8.951-8.951s-4.016-8.951-8.951-8.951z"/></g><g><path fill="#FFF" d="M962.078 596.854H634.4a2 2 0 010-4h327.678a2 2 0 010 4zM812.273 629.42H634.4a2 2 0 010-4h177.873a2 2 0 010 4z"/></g><g><circle fill="#2E9AFF" cx="1539.205" cy="158.705" r="35.22"/><path fill="#FFF" d="M1539.205 195.925c-20.523 0-37.221-16.697-37.221-37.22s16.697-37.22 37.221-37.22 37.22 16.697 37.22 37.22-16.696 37.22-37.22 37.22zm0-70.44c-18.318 0-33.221 14.902-33.221 33.22 0 18.317 14.901 33.22 33.221 33.22 18.316 0 33.22-14.902 33.22-33.22 0-18.318-14.904-33.22-33.22-33.22z"/><path fill="#2E9AFF" d="M1524.568 171.873c10.094-20.211 7.914-43.333-3.688-60.928-21.037 1.294-40.832 13.44-50.925 33.652"/><path fill="#FFF" d="M1526.357 172.767l-3.578-1.787c9.208-18.438 8.061-40.535-2.938-57.956-20.536 1.673-38.891 14.029-48.098 32.467l-3.578-1.787c10.016-20.058 30.167-33.375 52.591-34.755l1.155-.071.638.966c12.367 18.754 13.826 42.864 3.808 62.923z"/><path fill="#FFF" d="M1498.788 159.652l-3.578-1.787 23.866-47.786 3.579 1.787z"/><path fill="#2E9AFF" d="M1525.391 172.694c20.211-10.094 43.332-7.914 60.928 3.689-1.293 21.036-13.438 40.832-33.648 50.925"/><path fill="#FFF" d="M1553.562 229.097l-1.787-3.578c18.438-9.207 30.793-27.562 32.464-48.098-17.423-10.999-39.52-12.146-57.955-2.938l-1.787-3.578c20.056-10.018 44.168-8.559 62.922 3.808l.968.637-.072 1.155c-1.377 22.424-14.695 42.576-34.753 52.592z"/><path fill="#FFF" d="M1539.397 202.053l-1.787-3.578 47.786-23.867 1.787 3.579z"/><circle fill="#2E9AFF" cx="1166.169" cy="256.133" r="49.308"/><path fill="#FFF" d="M1166.169 307.441c-28.291 0-51.308-23.018-51.308-51.309s23.017-51.308 51.308-51.308 51.308 23.017 51.308 51.308-23.017 51.309-51.308 51.309zm0-98.616c-26.086 0-47.308 21.222-47.308 47.308s21.222 47.308 47.308 47.308 47.308-21.222 47.308-47.308-21.222-47.308-47.308-47.308z"/><circle fill="#2E9AFF" cx="1440.117" cy="530.08" r="49.308"/><path fill="#FFF" d="M1440.117 581.388c-28.292 0-51.31-23.017-51.31-51.308s23.018-51.308 51.31-51.308c28.291 0 51.308 23.017 51.308 51.308s-23.017 51.308-51.308 51.308zm0-98.616c-26.086 0-47.31 21.222-47.31 47.308s21.224 47.308 47.31 47.308 47.308-21.222 47.308-47.308c0-26.085-21.222-47.308-47.308-47.308z"/><ellipse transform="rotate(45.001 1303.662 393.601)" fill="#2E9AFF" cx="1303.651" cy="393.614" rx="219.677" ry="313.038"/><path fill="#FFF" d="M1211.45 666.062c-52.929 0-98.081-17.178-130.578-49.676-41.966-41.966-58.147-104.624-45.562-176.432 12.539-71.548 52.165-143.673 111.579-203.086 72.442-72.443 165.504-115.692 248.94-115.692 52.928 0 98.081 17.177 130.577 49.675 41.967 41.966 58.147 104.624 45.562 176.432-12.539 71.549-52.166 143.673-111.58 203.087-72.441 72.442-165.502 115.692-248.938 115.692zm184.379-540.884c-82.398 0-174.403 42.812-246.112 114.521-121.273 121.274-150.89 288.989-66.017 373.861 31.73 31.731 75.906 48.503 127.75 48.503 82.397 0 174.401-42.811 246.11-114.52 58.838-58.838 98.069-130.203 110.47-200.949 12.353-70.487-3.435-131.895-44.451-172.913-31.731-31.731-75.906-48.503-127.75-48.503z"/><g><ellipse transform="rotate(45.001 1303.664 393.599)" fill="#FFF" cx="1303.653" cy="393.612" rx="177.409" ry="263.85"/></g><g><path fill="#2E9AFF" d="M856.648 928.693c82.021-96.016 208.212-229.744 261.979-292.688l-.008-.007c13.928-16.271 13.204-40.777-2.195-56.178-15.397-15.399-39.905-16.125-56.18-2.194l-.007-.01C997.3 631.39 863.567 757.576 767.556 839.6a62.392 62.392 0 00-3.81 3.514c-24.686 24.685-24.686 64.708 0 89.395 24.685 24.688 64.708 24.688 89.394 0a64.874 64.874 0 003.508-3.816z"/><path fill="#FFF" d="M808.442 953.023c-17.418 0-33.794-6.784-46.111-19.104-25.426-25.427-25.426-66.798 0-92.223a65.3 65.3 0 013.929-3.623c53.046-45.317 118.061-104.53 175.42-156.772 45.813-41.727 89.087-81.139 117.258-105.207l1.677-1.432.038.054a43.423 43.423 0 0126.504-9.021c11.59 0 22.486 4.514 30.682 12.709 15.456 15.456 16.863 40.276 3.555 57.356l.032.028-1.276 1.512c-24.084 28.195-63.535 71.513-105.303 117.372C962.636 812 903.46 876.975 858.169 929.992a66.612 66.612 0 01-3.614 3.928c-12.318 12.319-28.694 19.103-46.113 19.103zm251.42-372.453c-28.148 24.143-70.6 62.805-115.488 103.688-57.382 52.264-122.421 111.498-175.519 156.86a61.612 61.612 0 00-3.693 3.404c-23.868 23.866-23.868 62.7-.002 86.567 11.561 11.562 26.932 17.931 43.282 17.931 16.35 0 31.722-6.367 43.282-17.931a62.066 62.066 0 003.398-3.692c45.337-53.071 104.535-118.07 156.764-175.418 41.01-45.026 79.783-87.602 103.933-115.771v-.001l1.28-1.512c13.284-15.521 12.366-39.005-2.091-53.463-7.438-7.439-17.332-11.537-27.854-11.537a39.399 39.399 0 00-25.611 9.447l-1.676 1.436-.005-.008z"/><path fill="#2E9AFF" d="M839.071 915.681l.002.005c.036-.041.071-.077.104-.114.012-.018.021-.022.03-.034 55.907-61.43 234.07-257.188 264.858-291.021h-.001c8.188-8.98 7.939-22.903-.742-31.593-8.687-8.683-22.606-8.93-31.591-.742h-.002C1037.9 622.97 842.143 801.132 780.71 857.038l-.032.031a2.518 2.518 0 00-.115.104l.002.004c-.479.438-.95.88-1.411 1.343-16.175 16.178-16.175 42.398 0 58.571 16.174 16.177 42.396 16.177 58.573 0 .464-.46.91-.933 1.344-1.41z"/><path fill="#FFF" d="M808.439 931.222c-11.597 0-22.5-4.517-30.699-12.718-16.928-16.926-16.928-44.47 0-61.4.125-.125.25-.249.376-.37l-.005-.012 1.257-1.163v.001c51.891-47.228 198.862-180.986 264.122-240.382l26.896-24.478a24.82 24.82 0 0116.755-6.481c6.646 0 12.896 2.589 17.599 7.289 9.421 9.427 9.773 24.518.807 34.354-23.377 25.688-131.726 144.738-207.002 227.45l-57.898 63.617-2.148 2.438-.071-.163c-8.112 7.756-18.722 12.018-29.989 12.018zm-25.519-73.491l-1.008.923c-.456.415-.903.837-1.342 1.275-15.37 15.372-15.37 40.379-.001 55.745 7.444 7.445 17.343 11.546 27.872 11.546 10.528 0 20.427-4.101 27.874-11.546.445-.44.866-.89 1.278-1.341l2.154-2.367.002.005 64.924-71.337c74.635-82.006 175.464-192.794 197.916-217.467 7.526-8.258 7.229-20.922-.679-28.833a20.753 20.753 0 00-14.769-6.117 20.838 20.838 0 00-14.062 5.439L782.92 857.731z"/><path fill="#2E9AFF" d="M897.89 849.396c-14.093-14.099-14.093-36.942 0-51.036-14.093 14.094-36.939 14.094-51.036 0"/><path fill="#FFF" d="M897.89 851.396a1.993 1.993 0 01-1.415-.587c-11.835-11.839-14.235-29.594-7.203-43.831-14.238 7.033-31.994 4.632-43.832-7.204a2 2 0 112.828-2.828c13.293 13.29 34.918 13.291 48.209 0a1.998 1.998 0 013.414 1.414 1.99 1.99 0 01-.587 1.414c-13.288 13.288-13.288 34.915 0 48.208a1.998 1.998 0 01-1.414 3.414z"/><path fill="#2E9AFF" d="M996.171 661.596c10.628 10.625 10.628 27.855 0 38.482 10.628-10.627 27.856-10.627 38.483 0"/><path fill="#FFF" d="M996.171 702.078a1.994 1.994 0 01-1.414-.586c-.391-.392-.586-.902-.586-1.414s.195-1.023.586-1.414c4.763-4.762 7.386-11.094 7.386-17.828s-2.623-13.064-7.386-17.826a2.001 2.001 0 010-2.828 2.001 2.001 0 012.828 0c5.519 5.518 8.558 12.853 8.558 20.654 0 4.102-.841 8.073-2.438 11.721 10.691-4.664 23.628-2.628 32.363 6.107a2 2 0 11-2.828 2.828c-9.829-9.83-25.824-9.828-35.655 0a1.992 1.992 0 01-1.414.586z"/><path fill="#2E9AFF" d="M800.656 842.712c14.604 14.604 14.604 38.279 0 52.881 14.604-14.602 38.279-14.604 52.883 0"/><path fill="#FFF" d="M853.539 897.593a1.986 1.986 0 01-1.414-.586c-13.799-13.798-36.253-13.8-50.055 0a2 2 0 01-2.828-2.828c6.685-6.685 10.367-15.571 10.367-25.024s-3.683-18.342-10.367-25.027a2 2 0 112.828-2.828c7.44 7.441 11.539 17.334 11.539 27.855 0 6.232-1.438 12.245-4.157 17.656 14.755-7.377 33.212-4.922 45.501 7.368a2 2 0 01-1.414 3.414z"/><g><circle fill="#2E9AFF" cx="895.372" cy="800.877" r="9.832"/><path fill="#FFF" d="M895.372 812.709c-6.524 0-11.832-5.308-11.832-11.832 0-6.523 5.308-11.832 11.832-11.832s11.832 5.309 11.832 11.832c0 6.524-5.308 11.832-11.832 11.832zm0-19.664c-4.318 0-7.832 3.514-7.832 7.832s3.514 7.832 7.832 7.832c4.317 0 7.832-3.514 7.832-7.832s-3.515-7.832-7.832-7.832z"/></g><g><circle fill="#2E9AFF" cx="995.923" cy="700.326" r="9.832"/><path fill="#FFF" d="M995.923 712.158c-6.524 0-11.832-5.309-11.832-11.832 0-6.524 5.308-11.832 11.832-11.832s11.832 5.308 11.832 11.832c0 6.524-5.308 11.832-11.832 11.832zm0-19.664c-4.317 0-7.832 3.514-7.832 7.832 0 4.317 3.515 7.832 7.832 7.832 4.318 0 7.832-3.515 7.832-7.832 0-4.318-3.514-7.832-7.832-7.832z"/></g><g><circle fill="#2E9AFF" cx="801.082" cy="895.276" r="9.832"/><path fill="#FFF" d="M801.082 907.108c-6.524 0-11.832-5.309-11.832-11.832 0-6.524 5.308-11.832 11.832-11.832 6.523 0 11.832 5.308 11.832 11.832 0 6.524-5.309 11.832-11.832 11.832zm0-19.664c-4.318 0-7.832 3.514-7.832 7.832 0 4.317 3.514 7.831 7.832 7.831s7.832-3.514 7.832-7.831c0-4.318-3.514-7.832-7.832-7.832z"/></g><g><path fill="#FFF" d="M902.696 795.553a2 2 0 01-1.414-3.414l85.282-85.28a1.998 1.998 0 112.827 2.827l-85.281 85.281c-.39.39-.902.586-1.414.586z"/></g></g><g><circle fill="#FFF" cx="1399.314" cy="297.967" r="55.472"/><path fill="#231F20" d="M1399.314 355.439c-31.69 0-57.474-25.782-57.474-57.474 0-31.69 25.782-57.472 57.474-57.472 31.69 0 57.472 25.782 57.472 57.472 0 31.692-25.781 57.474-57.472 57.474zm0-110.944c-29.485 0-53.474 23.987-53.474 53.472 0 29.485 23.987 53.474 53.474 53.474 29.483 0 53.472-23.988 53.472-53.474 0-29.485-23.987-53.472-53.472-53.472z"/><path fill="#2E9AFF" d="M1424.377 289.247c0-8.049 2.263-15.58 6.183-21.991a42.021 42.021 0 01-21.99 6.183c-12.812 0-24.301-5.734-32.062-14.762l-.565.312-1.054-1.309a14.79 14.79 0 00-1.097-1.233 14.364 14.364 0 00-10.226-4.236 14.373 14.373 0 00-10.227 4.235 14.37 14.37 0 00-4.235 10.226 14.375 14.375 0 004.235 10.225c.838.836 1.78 1.572 2.805 2.186l1.443.867-.608 1.571c-6.505 16.777-2.49 35.835 10.229 48.553 8.574 8.574 19.976 13.296 32.104 13.296 5.66 0 11.193-1.033 16.447-3.07l1.571-.608.867 1.445a14.518 14.518 0 002.185 2.803 14.369 14.369 0 0010.227 4.236c3.862 0 7.492-1.505 10.223-4.236 2.734-2.732 4.239-6.363 4.24-10.226s-1.503-7.493-4.234-10.223a14.278 14.278 0 00-1.229-1.094l-1.318-1.052.287-.522c-8.705-7.751-14.201-19.031-14.201-31.576z"/><path fill="#2E9AFF" d="M1408.569 273.439c8.05 0 15.579-2.263 21.99-6.183.202-.33.415-.651.626-.975a41.561 41.561 0 01-22.616 6.658c-12.644 0-23.955-5.633-31.615-14.508l-.446.246c7.761 9.028 19.25 14.762 32.061 14.762z"/><path d="M1408.569 272.439c8.354 0 16.13-2.501 22.635-6.784-8.551-8.442-19.86-13.093-31.889-13.093a45.5 45.5 0 00-21.902 5.616l-.01.005c7.576 8.724 18.734 14.256 31.166 14.256z"/><path d="M1408.569 272.939c8.337 0 16.097-2.45 22.616-6.658.086-.132.168-.267.256-.398a.213.213 0 01-.021-.022c-.07-.071-.146-.136-.216-.206a41.026 41.026 0 01-22.635 6.784c-12.433 0-23.591-5.532-31.166-14.255l-.449.248c7.66 8.874 18.972 14.507 31.615 14.507zM1439.071 319.926l.032-.059c9.52-17.277 6.63-39.008-6.951-53.243a41.033 41.033 0 00-6.775 22.623c0 12.166 5.293 23.117 13.694 30.679z"/><path fill="#231F20" d="M1424.877 289.247a41.563 41.563 0 016.657-22.616c-.323.21-.645.424-.975.625a42.03 42.03 0 00-6.183 21.991c0 12.545 5.496 23.825 14.201 31.575l.248-.451c-8.55-7.648-13.948-18.747-13.948-31.124z"/><path fill="#231F20" d="M1431.575 266.023c-.13.086-.259.173-.39.258-.211.324-.424.645-.626.975.33-.201.651-.415.975-.625.083-.129.17-.257.255-.386-.072-.073-.141-.149-.214-.222z"/><path fill="#231F20" d="M1431.441 265.883c-.088.131-.17.266-.256.398.131-.085.26-.172.39-.258-.046-.046-.089-.094-.134-.14zM1431.534 266.631a41.563 41.563 0 00-6.657 22.616c0 12.376 5.398 23.476 13.949 31.124l.245-.445c-8.401-7.562-13.694-18.513-13.694-30.679 0-8.348 2.498-16.12 6.775-22.623l-.231-.242c-.128.086-.259.165-.387.249z"/><path fill="#231F20" d="M1431.789 266.245c-.085.129-.172.256-.255.386.128-.083.259-.163.387-.248l-.132-.138z"/><path d="M1354.379 253.017c.182-.122.369-.231.555-.346-.186.115-.373.224-.555.346zM1353.117 253.956c.141-.116.289-.218.433-.329-.144.11-.292.212-.433.329zM1357.065 251.558zM1355.699 252.218c.21-.114.423-.218.636-.322-.213.105-.426.208-.636.322zM1445.039 325.805zM1358.46 251.035zM1359.864 250.647zM1445.7 327.161zM1361.24 250.394zM1446.897 331.454c.041.296.083.591.108.888-.024-.297-.067-.592-.108-.888z"/><path d="M1443.667 320.662a14.1 14.1 0 00-.304-.295c9.609-18.898 5.968-42.256-9.115-57.335-9.33-9.331-21.737-14.47-34.935-14.47a49.542 49.542 0 00-22.401 5.355c-.099-.102-.194-.202-.293-.3a18.338 18.338 0 00-13.053-5.407 18.343 18.343 0 00-13.055 5.407 18.345 18.345 0 00-5.408 13.054 18.353 18.353 0 005.408 13.054 18.461 18.461 0 002.18 1.863c-6.272 17.877-1.771 37.857 11.688 51.314 9.329 9.33 21.735 14.468 34.932 14.468 5.615 0 11.118-.936 16.381-2.782a18.398 18.398 0 001.861 2.178c3.488 3.488 8.124 5.409 13.056 5.409s9.566-1.922 13.052-5.41a18.335 18.335 0 005.41-13.052 18.333 18.333 0 00-5.404-13.051zm3.332 14.544c-.021.231-.061.46-.091.69-.036.266-.067.533-.115.797-.042.225-.098.447-.148.671-.061.267-.121.534-.195.799-.061.218-.132.432-.201.648-.088.267-.179.533-.279.796a17.29 17.29 0 01-.918 1.987c-.148.271-.31.537-.474.801-.108.173-.212.348-.327.518-.194.287-.405.565-.619.842-.106.137-.205.279-.316.414a16.67 16.67 0 01-1.069 1.182c-6.425 6.432-16.847 6.432-23.278 0a16.52 16.52 0 01-2.484-3.188c-16.979 6.584-36.986 3.026-50.688-10.677-13.706-13.705-17.263-33.711-10.679-50.69a16.58 16.58 0 01-3.188-2.487c-6.429-6.428-6.43-16.85 0-23.279a16.65 16.65 0 011.19-1.076c.141-.116.289-.218.433-.329.273-.21.547-.419.829-.61.182-.122.369-.231.555-.346.253-.157.507-.312.766-.453.21-.114.423-.217.636-.322.241-.118.484-.233.73-.339.234-.101.47-.193.707-.282a17.49 17.49 0 011.471-.476c.206-.056.413-.104.621-.152.291-.067.582-.131.875-.182.167-.029.334-.049.501-.072.336-.048.673-.094 1.012-.121.078-.006.158-.006.236-.011a16.434 16.434 0 019.419 2.237l.007.004c.091.054.182.105.271.16.327.201.646.417.96.643.347.249.689.505 1.02.785.085.072.165.151.249.225.267.234.537.461.792.716.446.446.855.914 1.242 1.395 17.924-9.875 40.883-7.274 56.156 7.798.076.075.154.146.23.222.016.015.029.032.045.047l.071.075c.1.1.193.203.291.303l.074.077c.089.091.176.183.263.274a47.146 47.146 0 0112.127 22.988l.001.003a47.176 47.176 0 01.619 3.66l.012.093c.073.583.139 1.167.19 1.752l.011.138c.049.57.09 1.141.119 1.713l.007.189c.025.555.044 1.11.051 1.665.001.082-.002.164-.001.246.003.536.001 1.072-.014 1.608-.003.106-.011.213-.014.319a49.322 49.322 0 01-.073 1.536c-.009.128-.022.257-.032.385-.036.489-.075.978-.127 1.466-.016.151-.038.301-.056.453-.054.465-.108.93-.176 1.394-.025.17-.057.34-.083.511-.07.443-.14.887-.222 1.329-.035.19-.078.38-.116.57-.083.421-.166.841-.261 1.26-.047.206-.103.411-.151.617-.097.401-.191.802-.299 1.201-.062.229-.132.455-.197.683-.105.373-.209.747-.324 1.118-.081.26-.173.517-.258.775-.112.337-.219.676-.339 1.011-.101.285-.214.566-.32.849-.116.306-.226.614-.349.918-.123.308-.259.611-.39.917-.118.276-.229.554-.353.829-.156.348-.326.691-.491 1.036-.108.229-.212.459-.325.686-.284.57-.58 1.135-.889 1.695.482.385.949.796 1.396 1.243.38.38.733.776 1.069 1.182l.042.047c.313.383.601.781.875 1.185l.009.012v.001c.207.305.392.62.575.935l.003.005c.07.121.147.24.215.362.161.295.307.596.449.898.071.152.145.304.212.458.128.294.243.592.353.892a15.22 15.22 0 01.578 1.943c.068.296.134.592.186.89.033.189.057.379.082.569.041.296.084.591.108.888.017.195.019.392.027.587.024.508.025 1.017.002 1.525-.016.25-.019.501-.041.751zM1446.63 329.995zM1446.23 328.56z"/><path d="M1446.999 335.206c-.021.231-.061.46-.091.69.03-.23.071-.459.091-.69zM1445.347 341.02zM1446.449 338.164c-.061.217-.132.433-.201.648.069-.216.141-.431.201-.648zM1445.969 339.608zM1446.793 336.693c-.042.225-.098.448-.148.671.05-.223.106-.446.148-.671zM1372.185 252.663c-.089-.055-.18-.106-.271-.16.098.058.189.127.286.187l-.015-.027zM1444.577 342.396c-.108.173-.212.348-.327.518.115-.17.219-.345.327-.518zM1447.033 332.93zM1443.631 343.756c-.106.137-.205.279-.316.414.111-.135.209-.277.316-.414zM1371.907 252.499a16.468 16.468 0 010 0zM1373.146 253.307c0-.001 0-.001 0 0a16.257 16.257 0 00-.961-.644.382.382 0 01.016.027c.319.197.637.395.945.617z"/><path d="M1447.033 332.93c-.009-.196-.011-.392-.027-.587-.025-.297-.067-.592-.108-.888-.025-.19-.049-.38-.082-.569a15.974 15.974 0 00-.186-.89 14.857 14.857 0 00-.578-1.943c-.109-.3-.225-.598-.353-.892-.067-.154-.141-.305-.212-.458a17.08 17.08 0 00-.449-.898c-.067-.123-.145-.241-.215-.362a42.63 42.63 0 01-6.246-4.62l-.287.522 1.318 1.052c.451.359.853.717 1.229 1.094 2.731 2.729 4.235 6.36 4.234 10.223s-1.506 7.493-4.24 10.226a14.36 14.36 0 01-10.223 4.236 14.372 14.372 0 01-10.227-4.236 14.527 14.527 0 01-2.185-2.803l-.867-1.445-1.571.608a45.316 45.316 0 01-16.447 3.07c-12.129 0-23.53-4.722-32.104-13.296-12.719-12.718-16.733-31.776-10.229-48.553l.608-1.571-1.443-.867a14.619 14.619 0 01-2.805-2.186 14.375 14.375 0 01-4.235-10.225c0-3.863 1.505-7.495 4.235-10.226a14.37 14.37 0 0110.227-4.235c3.862 0 7.494 1.504 10.226 4.236.362.361.72.764 1.097 1.233l1.054 1.309.565-.312a42.466 42.466 0 01-4.308-5.987c-.097-.06-.188-.129-.286-.187l-.007-.004a16.468 16.468 0 00-9.419-2.237c-.078.005-.158.005-.236.011-.339.026-.676.073-1.012.121-.167.023-.334.043-.501.072-.293.05-.584.115-.875.182-.208.048-.415.096-.621.152a16.735 16.735 0 00-1.471.476 16.51 16.51 0 00-.707.282c-.246.105-.489.221-.73.339-.213.104-.426.208-.636.322-.259.142-.513.296-.766.453-.186.114-.373.224-.555.346-.282.191-.556.4-.829.61-.144.11-.292.212-.433.329-.409.337-.808.693-1.19 1.076-6.43 6.429-6.429 16.851 0 23.279a16.611 16.611 0 003.188 2.487c-6.584 16.979-3.027 36.985 10.679 50.69 13.702 13.703 33.71 17.261 50.688 10.677a16.599 16.599 0 002.484 3.188c6.432 6.432 16.854 6.432 23.278 0 .38-.38.734-.776 1.069-1.182.111-.135.21-.276.316-.414.214-.277.425-.555.619-.842.115-.17.219-.345.327-.518.164-.264.325-.53.474-.801.104-.19.2-.382.296-.575a15.46 15.46 0 00.622-1.412c.101-.263.191-.529.279-.796.069-.215.141-.431.201-.648.074-.265.135-.532.195-.799.051-.224.106-.446.148-.671.048-.265.079-.531.115-.797.03-.23.07-.459.091-.69.022-.25.025-.5.036-.75.029-.513.029-1.021.003-1.529z"/><path d="M1373.146 253.307a16.805 16.805 0 00-.945-.617 42.466 42.466 0 004.308 5.987l.446-.246a41.797 41.797 0 01-3.809-5.124zM1374.164 254.09zM1377.413 258.178a45.5 45.5 0 0121.902-5.616c12.028 0 23.338 4.651 31.889 13.093.244-.161.487-.323.729-.489.22-.316.442-.632.671-.942-15.273-15.072-38.232-17.673-56.156-7.798a17.28 17.28 0 00-1.242-1.395c-.255-.254-.525-.481-.792-.716a41.556 41.556 0 002.99 3.868l.009-.005z"/><path d="M1431.441 265.883c.16-.241.326-.479.491-.717-.241.166-.484.328-.729.489.07.07.146.135.216.206a.228.228 0 01.022.022zM1376.954 258.431l.449-.248a41.689 41.689 0 01-2.99-3.868c-.084-.074-.164-.153-.249-.225a19.031 19.031 0 00-1.019-.784 41.937 41.937 0 003.809 5.125zM1446.397 303.435c-.054.465-.108.93-.176 1.394.068-.464.123-.93.176-1.394zM1446.139 305.339c-.07.443-.14.887-.222 1.329.082-.442.151-.885.222-1.329zM1445.389 309.115c-.097.401-.191.802-.299 1.201.107-.399.202-.8.299-1.201zM1446.58 301.516zM1445.801 307.238zM1446.663 295.758zM1446.537 293.856zM1446.336 291.966zM1446.686 299.595zM1446.713 297.668zM1446.059 290.086zM1445.706 288.212zM1443.362 323.305c-.013-.017-.029-.031-.042-.047l.026.036.016.011zM1445.705 288.209a47.15 47.15 0 00-12.127-22.988l-.005.004c6.327 6.615 10.376 14.606 12.132 22.984zM1442.069 318.452c-.109.229-.212.459-.325.686.113-.227.217-.458.325-.686zM1444.311 312.892c-.112.337-.219.676-.339 1.011.12-.335.226-.674.339-1.011zM1443.651 314.752c-.116.306-.226.614-.349.918.124-.304.233-.612.349-.918zM1442.913 316.587c-.118.276-.229.554-.353.829.124-.274.235-.553.353-.829zM1444.893 310.999c-.105.373-.209.747-.324 1.118.115-.371.218-.745.324-1.118z"/><path d="M1433.573 265.226l.005-.004c-.087-.091-.174-.183-.263-.274l-.001.001c.088.091.172.185.259.277z"/><path d="M1432.649 265.883c-.169.245-.333.493-.497.741 13.581 14.234 16.471 35.965 6.951 53.243l-.032.059a41.522 41.522 0 004.275 3.367c-.01-.011-.018-.024-.026-.036a16.917 16.917 0 00-1.069-1.182 16.437 16.437 0 00-1.396-1.243c.309-.56.604-1.125.889-1.695.113-.227.216-.457.325-.686.165-.344.335-.688.491-1.036.123-.274.234-.553.353-.829.131-.306.267-.61.39-.917.123-.304.232-.612.349-.918.106-.283.22-.564.32-.849.12-.335.227-.673.339-1.011.085-.258.177-.516.258-.775.115-.371.219-.745.324-1.118.065-.228.136-.455.197-.683.107-.399.202-.8.299-1.201.049-.206.104-.411.151-.617.095-.419.178-.839.261-1.26.038-.19.081-.379.116-.57.082-.442.151-.885.222-1.329.026-.17.058-.34.083-.511.067-.464.122-.929.176-1.394.018-.151.04-.302.056-.453.052-.488.091-.977.127-1.466.01-.128.023-.257.032-.385.034-.512.056-1.023.073-1.536.003-.106.011-.212.014-.319.015-.536.017-1.072.014-1.608-.001-.082.002-.164.001-.246a48.708 48.708 0 00-.051-1.665l-.007-.189a48.925 48.925 0 00-.119-1.713l-.011-.138a51.509 51.509 0 00-.19-1.752l-.012-.093a44.953 44.953 0 00-.274-1.837 47.54 47.54 0 00-.345-1.823l-.001-.003a47.172 47.172 0 00-12.132-22.984c-.303.227-.613.444-.924.66z"/><path d="M1433.573 265.226c-.087-.092-.171-.186-.259-.277-.226.309-.448.62-.665.935.311-.217.621-.434.924-.658zM1444.246 324.502zM1438.578 320.822a42.63 42.63 0 006.246 4.62l-.003-.005a16.18 16.18 0 00-.575-.935v-.001a41.936 41.936 0 01-5.42-4.13l-.248.451zM1432.216 265.6c-.211.145-.427.282-.641.423.073.073.142.149.214.222.143-.215.28-.433.427-.645zM1432.879 264.493c-.016-.015-.029-.032-.045-.047.016.015.03.031.045.047zM1432.95 264.567l-.071-.075c.023.026.047.051.071.075z"/><path d="M1432.879 264.493l-.045-.047c-.076-.076-.154-.146-.23-.222-.229.31-.451.625-.671.942.319-.22.633-.445.946-.673z"/><path d="M1431.575 266.023c.214-.141.43-.278.641-.423.239-.348.485-.692.734-1.032a2.515 2.515 0 01-.071-.075 36.81 36.81 0 01-.946.673c-.165.238-.331.476-.491.717.044.046.087.094.133.14zM1444.237 324.49a16.503 16.503 0 00-.875-1.185l-.016-.012c.317.389.614.788.891 1.197zM1433.314 264.949l.001-.001-.074-.077c.026.025.048.052.073.078z"/><path d="M1439.071 319.926l-.245.445a41.847 41.847 0 005.42 4.13l-.009-.012a16.866 16.866 0 00-.891-1.197 41.484 41.484 0 01-4.275-3.366zM1432.152 266.625c.164-.249.328-.497.497-.741-.242.168-.483.336-.729.5.078.079.155.16.232.241z"/><path d="M1431.789 266.245l.132.138c.245-.163.486-.332.729-.5.217-.315.439-.626.665-.935l-.073-.078c-.338.248-.68.491-1.025.729-.148.213-.285.431-.428.646z"/><path d="M1433.241 264.871c-.098-.101-.191-.204-.291-.303.1.099.194.202.291.303z"/><path d="M1433.241 264.871c-.098-.101-.191-.204-.291-.303-.249.34-.495.684-.734 1.032.346-.238.687-.481 1.025-.729z"/><g><path d="M1360.129 274.593c-.027 0-.056 0-.085-.002a2 2 0 01-1.914-2.082l.623-14.899a2.002 2.002 0 012.082-1.915 2 2 0 011.914 2.082l-.623 14.899a2 2 0 01-1.997 1.917z"/></g><g><path d="M1423.296 337.762a2 2 0 01-.082-3.999l14.899-.622c1.129-.07 2.035.812 2.081 1.915a2 2 0 01-1.915 2.082l-14.899.622a2.411 2.411 0 01-.084.002z"/></g><g><circle cx="1380.867" cy="286.636" r="6.255"/><path fill="#231F20" d="M1380.867 293.391a6.762 6.762 0 01-6.755-6.755 6.762 6.762 0 016.755-6.755 6.762 6.762 0 016.755 6.755 6.762 6.762 0 01-6.755 6.755zm0-12.51a5.762 5.762 0 00-5.755 5.755c0 3.173 2.582 5.755 5.755 5.755s5.755-2.582 5.755-5.755a5.762 5.762 0 00-5.755-5.755z"/><g><path d="M1388.948 298.179a2.003 2.003 0 01-1.97-2.366 13.141 13.141 0 00-15.334-15.334 2.004 2.004 0 01-2.332-1.601 2.003 2.003 0 011.603-2.332 17.146 17.146 0 0119.998 19.997 2.001 2.001 0 01-1.965 1.636z"/></g></g><g><circle cx="1409.733" cy="315.502" r="6.255"/><path fill="#231F20" d="M1409.733 322.257c-3.726 0-6.755-3.03-6.755-6.755s3.029-6.755 6.755-6.755c3.725 0 6.755 3.03 6.755 6.755s-3.03 6.755-6.755 6.755zm0-12.51c-3.173 0-5.755 2.582-5.755 5.755s2.582 5.755 5.755 5.755 5.755-2.582 5.755-5.755-2.582-5.755-5.755-5.755z"/><g><path d="M1417.814 327.045a2 2 0 01-1.969-2.367 13.149 13.149 0 00-3.628-11.709 13.148 13.148 0 00-11.707-3.625 2.004 2.004 0 01-2.332-1.601 2.002 2.002 0 011.603-2.332 17.14 17.14 0 0119.996 20 1.997 1.997 0 01-1.963 1.634z"/></g></g><g><path d="M1389.051 309.766a2.001 2.001 0 01-1.414-3.414l6.439-6.438a2 2 0 112.828 2.828l-6.439 6.438c-.391.39-.903.586-1.414.586z"/></g><g><path fill="#FFF" d="M1391.336 317.366a8.24 8.24 0 01-11.652-11.653"/></g><g><path fill="#2E9AFF" d="M1280.259 520.377c-9.017 9.015-23.636 9.015-32.648 0l-71.946-71.948c-9.02-9.016-9.02-23.635 0-32.648 9.017-9.02 23.637-9.02 32.648 0l71.946 71.942c9.016 9.018 9.016 23.636 0 32.654z"/><path fill="#FFF" d="M1263.933 529.138c-6.7 0-13-2.608-17.736-7.347l-71.946-71.948a24.92 24.92 0 01-7.35-17.739c0-6.7 2.609-13.001 7.35-17.738 4.738-4.739 11.039-7.35 17.74-7.35 6.702 0 13.001 2.61 17.738 7.351l71.944 71.942c9.781 9.783 9.781 25.7 0 35.482-4.737 4.738-11.039 7.347-17.74 7.347zm-71.944-118.122a20.943 20.943 0 00-14.912 6.179 20.94 20.94 0 00-6.178 14.909 20.934 20.934 0 006.178 14.911l71.946 71.949a20.94 20.94 0 0014.908 6.175c5.634 0 10.93-2.192 14.912-6.175 8.223-8.222 8.223-21.602 0-29.826l-71.945-71.942a20.927 20.927 0 00-14.909-6.18z"/><g fill="#FFF"><path d="M1191.343 434.99l.056.055 7.093-4.086 1.547 1.548-9.914 5.338-1.7-1.698 5.273-9.98 1.667 1.667-4.022 7.156zM1194.35 439.675l1.918 1.918 3.052-3.051-1.918-1.918 1.198-1.198 3.334 3.335-4.249 4.249 2.017 2.017-1.198 1.197-5.351-5.35 1.197-1.199zm7.388-4.074c.225-.226.5-.334.828-.325.326.006.639.157.936.457.307.305.469.629.491.97.021.341-.079.624-.306.85a1.002 1.002 0 01-.845.3c-.331-.031-.647-.201-.953-.508-.299-.297-.457-.604-.475-.92a1.04 1.04 0 01.324-.824zM1205.441 452.011a2.887 2.887 0 01-.621-.108 4.94 4.94 0 01-.757-.289 5.983 5.983 0 01-1.661-1.181c-.465-.465-.815-.946-1.053-1.443a3.542 3.542 0 01-.358-1.504c-.005-.506.104-1 .321-1.487.218-.486.553-.955 1.003-1.405.479-.479.976-.823 1.487-1.03a3.556 3.556 0 011.524-.271c.504.025.995.155 1.471.393a5.03 5.03 0 011.337.976c.274.274.522.598.744.964.223.368.366.763.437 1.188.069.425.032.863-.108 1.317-.143.454-.44.911-.897 1.368a7.464 7.464 0 01-1.123.904l-3.922-3.923a1.736 1.736 0 00-.441.734c-.07.25-.081.502-.033.752.047.25.145.496.289.735.146.24.326.469.544.687.438.438.845.742 1.228.921.381.179.73.281 1.052.311l-.463 1.391zm1.538-6.244a2.595 2.595 0 00-.61-.457 2.145 2.145 0 00-.681-.223 1.777 1.777 0 00-.703.038 1.65 1.65 0 00-.653.347l2.682 2.683c.361-.363.55-.75.562-1.16.007-.413-.191-.821-.597-1.228zM1213.549 452.99l-1.57 3.204.056.055 1.035-.84 3.205-2.312 1.272 1.275-6.548 4.348-1.428-1.428 1.548-2.768-.055-.056-2.845 1.472-1.471-1.472 4.304-6.592 1.417 1.416-2.483 3.553-.59.765.055.054 3.193-1.58.905.906zM1226.057 468.659l1.199 1.197-2.18 2.18c-.4-.064-.826-.23-1.281-.496a6.18 6.18 0 01-1.246-.963c-.479-.48-.865-1.008-1.155-1.581s-.441-1.184-.452-1.825c-.012-.643.14-1.313.447-2.016.309-.702.822-1.41 1.541-2.131.748-.747 1.485-1.264 2.213-1.548.728-.282 1.418-.403 2.074-.364a4.49 4.49 0 011.83.502 5.937 5.937 0 011.467 1.062c.437.437.769.84.997 1.215s.395.707.495.996l-2.266 2.268-1.199-1.198 1.242-1.242a6.001 6.001 0 00-.644-.751 2.78 2.78 0 00-.946-.633 2.415 2.415 0 00-1.123-.151c-.399.035-.814.168-1.248.396-.433.229-.873.567-1.322 1.02a5.437 5.437 0 00-.935 1.215c-.229.417-.368.833-.419 1.247s-.009.815.125 1.204c.136.39.369.75.703 1.084.239.24.495.451.764.633l1.319-1.32zM1232.822 465.292l2.201 2.201-2.789 2.789.044.043c.407-.06.823-.011 1.253.142.428.153.84.425 1.232.817.274.274.492.565.651.871s.24.625.24.959-.097.691-.289 1.072c-.193.383-.5.783-.922 1.204l-3.388 3.39-1.416-1.416 3.095-3.095c.442-.442.668-.857.675-1.242.007-.387-.142-.729-.446-1.035a1.73 1.73 0 00-.985-.496 1.887 1.887 0 00-1.105.146l-3.477 3.478-1.416-1.417 6.429-6.429-.784-.785 1.197-1.197zM1237.791 475.358c.422.159.87.385 1.346.671.478.287.977.691 1.498 1.215.378.378.654.744.828 1.101.175.355.261.699.257 1.029a2.078 2.078 0 01-.245.953c-.16.307-.385.604-.676.895-.37.37-.699.675-.986.909-.286.235-.53.456-.734.66a9.542 9.542 0 00-.49.533 6.802 6.802 0 01-.261.327l.708.708-1.198 1.197-1.83-1.829.599-.884-.055-.054c-.369.081-.77.069-1.199-.035-.432-.104-.873-.383-1.328-.837-.541-.543-.826-1.117-.854-1.725-.024-.609.199-1.152.681-1.634.305-.305.624-.512.957-.62.334-.109.678-.13 1.03-.058.355.07.718.221 1.087.452a6.417 6.417 0 011.494 1.331c.13.161.293.35.486.574.088-.06.168-.124.24-.197l.207-.207c.274-.275.395-.553.354-.832-.039-.277-.213-.572-.522-.883a4.655 4.655 0 00-1.138-.854 9.67 9.67 0 00-1.028-.463l.772-1.443zm-2.145 5.855c.346.345.668.54.967.585.3.045.562.035.785-.032l.653-.652a6.801 6.801 0 00-.272-.373 5.285 5.285 0 00-.438-.49c-.136-.136-.284-.26-.446-.371s-.324-.193-.486-.246a1.036 1.036 0 00-.471-.046.719.719 0 00-.412.219c-.204.204-.304.421-.298.651.006.23.146.481.418.755zM1243.85 480.677l1.907 1.906-.556.883.043.044c.399-.064.843-.028 1.33.108.485.139.946.424 1.384.859.269.27.485.559.646.866.163.311.246.631.245.965.001.334-.095.693-.281 1.078-.189.387-.495.789-.916 1.211l-3.39 3.389-1.416-1.416 3.094-3.096c.443-.442.664-.862.66-1.258s-.157-.747-.464-1.053a1.748 1.748 0 00-.97-.501 1.655 1.655 0 00-1.035.132l-3.529 3.529-1.418-1.416 4.25-4.25-.784-.784 1.2-1.196zM1250.388 487.214l1.907 1.906-.557.884.043.044c.399-.065.844-.029 1.33.107.485.139.947.425 1.385.86.269.27.483.558.646.866.163.31.245.63.245.964s-.095.694-.283 1.079c-.188.386-.493.788-.916 1.21l-3.389 3.39-1.416-1.416 3.095-3.096c.443-.442.663-.863.659-1.259s-.158-.747-.463-1.053a1.753 1.753 0 00-.971-.5 1.663 1.663 0 00-1.035.131l-3.529 3.53-1.417-1.417 4.249-4.25-.783-.783 1.2-1.197zM1257.742 504.31a2.704 2.704 0 01-.621-.108 4.873 4.873 0 01-.758-.288 5.955 5.955 0 01-1.662-1.181c-.465-.466-.814-.945-1.051-1.443a3.544 3.544 0 01-.359-1.504c-.004-.504.104-1 .322-1.486.217-.487.551-.955 1.002-1.406.479-.479.975-.821 1.485-1.028s1.021-.299 1.525-.273a3.65 3.65 0 011.472.395c.477.234.921.56 1.335.974.276.276.525.598.746.965s.367.765.437 1.188c.068.424.032.863-.107 1.316-.143.455-.443.91-.9 1.367a7.276 7.276 0 01-1.121.905l-3.924-3.923c-.225.238-.373.483-.44.735-.068.25-.08.501-.032.751.048.251.145.496.289.735.145.24.326.469.544.688.437.437.846.742 1.227.921.382.178.731.28 1.052.311l-.461 1.389zm1.535-6.243a2.5 2.5 0 00-.611-.457 2.18 2.18 0 00-.68-.226 1.777 1.777 0 00-.703.039 1.624 1.624 0 00-.652.348l2.68 2.681c.363-.361.551-.749.562-1.159.01-.411-.187-.819-.596-1.226zM1266.459 498.927l2.32 2.321-5.034 5.034c-.561.559-.878 1.016-.959 1.372-.08.355.032.687.339.99.225.227.434.388.625.486.193.097.406.176.638.233l-.446 1.515a10.31 10.31 0 01-.594-.146 3.259 3.259 0 01-.566-.219 3.836 3.836 0 01-.562-.343 5.288 5.288 0 01-.589-.513c-.684-.684-1.021-1.369-1.014-2.06.008-.689.332-1.354.971-1.993l4.576-4.576-.904-.904 1.199-1.197z"/></g><path fill="#231F20" d="M1373.512 449.247a1.994 1.994 0 01-1.414-.586l-121.402-121.402a2 2 0 112.828-2.828l121.402 121.402a2 2 0 01-1.414 3.414zM1338.229 447.171a1.99 1.99 0 01-1.413-.586l-84.046-84.046a2 2 0 012.827-2.828l84.046 84.046a2 2 0 01-1.414 3.414zM1334.078 476.226a1.988 1.988 0 01-1.414-.586l-108.95-108.948a2 2 0 112.828-2.828l108.95 108.949a1.998 1.998 0 01-1.414 3.413zM1292.572 467.924a1.992 1.992 0 01-1.414-.586l-59.143-59.141a2 2 0 112.828-2.828l59.143 59.141a2 2 0 01-1.414 3.414z"/><g><path fill="#231F20" d="M1225.745 534.752a1.992 1.992 0 01-1.414-.586l-59.142-59.143a2 2 0 112.828-2.828l59.142 59.143a2 2 0 01-1.414 3.414z"/></g><g><path fill="#231F20" d="M1196.896 538.695a1.99 1.99 0 01-1.414-.586l-34.236-34.238a2 2 0 112.828-2.828l34.236 34.238a2.001 2.001 0 01-1.414 3.414z"/></g></g><g fill="#231F20"><path d="M1304.224 321.332l6.768 6.767-7.222 7.221a8.8 8.8 0 01-1.967 1.497 4.792 4.792 0 01-2.29.591 4.669 4.669 0 01-1.448-.218 6.428 6.428 0 01-2.145-1.173 10.161 10.161 0 01-.648-.584 9.361 9.361 0 01-1.336-1.674 7.316 7.316 0 01-.85-2.063l2.574-.988c.172.647.369 1.158.591 1.53s.526.753.915 1.142c.236.236.539.447.906.631.367.185.76.271 1.182.26.787-.032 1.549-.415 2.283-1.149l5.26-5.26-4.549-4.55 1.976-1.98zM1305.729 337.405c.681-.68 1.388-1.182 2.121-1.504a5.298 5.298 0 012.218-.472c.743.013 1.474.185 2.186.52s1.394.825 2.039 1.474c.681.68 1.187 1.39 1.514 2.129a5.29 5.29 0 01.486 2.217 5.17 5.17 0 01-.519 2.187c-.341.718-.827 1.395-1.465 2.031-.68.68-1.387 1.182-2.121 1.506a5.267 5.267 0 01-2.219.469c-.744-.01-1.473-.183-2.185-.518s-1.393-.826-2.04-1.474c-.681-.68-1.185-1.391-1.515-2.129a5.348 5.348 0 01-.484-2.218 5.177 5.177 0 01.519-2.186c.34-.718.828-1.393 1.465-2.032zm2.169 2.17a4.491 4.491 0 00-.843 1.133c-.205.4-.33.805-.373 1.215-.043.409.003.808.138 1.189.135.383.369.741.704 1.075.625.628 1.335.938 2.13.933.793-.006 1.62-.439 2.483-1.305.744-.744 1.163-1.528 1.254-2.354.093-.826-.201-1.579-.881-2.26-.303-.302-.629-.535-.979-.703s-.724-.243-1.116-.227a3.06 3.06 0 00-1.222.331c-.422.208-.853.532-1.295.973zM1322.159 339.268l3.271 3.271-4.145 4.145.063.064c.604-.086 1.226-.017 1.861.21s1.246.632 1.829 1.214c.41.41.732.842.972 1.295.237.453.355.928.355 1.426 0 .495-.144 1.027-.429 1.595-.286.566-.741 1.162-1.367 1.788l-5.034 5.033-2.105-2.104 4.599-4.598c.658-.658.992-1.273 1.004-1.847.011-.571-.211-1.084-.664-1.537a2.57 2.57 0 00-1.465-.735 2.773 2.773 0 00-1.643.219l-5.164 5.163-2.104-2.104 9.551-9.551-1.165-1.166 1.78-1.781zM1328.828 352.412l2.832 2.833-.824 1.311.064.064c.593-.097 1.252-.043 1.975.162s1.408.631 2.056 1.278c.399.398.721.828.964 1.287.242.458.363.937.363 1.434 0 .496-.141 1.029-.421 1.603s-.733 1.171-1.358 1.797l-5.034 5.034-2.104-2.104 4.598-4.599c.657-.657.984-1.28.979-1.869-.006-.589-.234-1.108-.688-1.562a2.635 2.635 0 00-1.439-.745c-.562-.097-1.074-.032-1.539.194l-5.244 5.245-2.104-2.104 6.312-6.312-1.165-1.165 1.777-1.782zM1352.105 369.214c.106.088.295.24.559.462.264.223.559.479.882.77.324.291.655.596.995.914.341.318.641.606.898.866 1.004 1.005 1.688 1.979 2.057 2.931.367.949.484 1.872.355 2.768-.13.896-.468 1.769-1.013 2.615s-1.227 1.681-2.047 2.5c-.744.746-1.549 1.398-2.412 1.959s-1.771.923-2.72 1.085c-.95.162-1.942.064-2.979-.292-1.036-.355-2.099-1.078-3.188-2.168-.174-.174-.39-.4-.648-.682-.259-.279-.52-.568-.784-.865s-.519-.583-.761-.858a9.575 9.575 0 01-.543-.654l11.349-11.351zm1.441 5.067a10.652 10.652 0 00-.623-.575 17.07 17.07 0 00-.478-.396l-7.593 7.593c.031.055.089.127.171.219l.25.283.252.282c.079.093.147.164.201.22.626.626 1.241 1.01 1.847 1.148.604.14 1.187.114 1.748-.081.56-.192 1.105-.502 1.636-.922a18.304 18.304 0 001.505-1.345c.409-.409.812-.859 1.206-1.352.393-.491.686-1.01.874-1.555s.224-1.113.104-1.707c-.12-.593-.485-1.197-1.1-1.812zM1354.291 385.968c.68-.679 1.387-1.181 2.121-1.504a5.292 5.292 0 012.217-.471c.744.012 1.475.184 2.187.519s1.393.825 2.038 1.475c.682.68 1.187 1.389 1.515 2.129.33.737.491 1.478.485 2.217a5.165 5.165 0 01-.519 2.186c-.34.719-.827 1.396-1.464 2.031-.682.68-1.388 1.183-2.121 1.506a5.287 5.287 0 01-2.219.47c-.744-.012-1.474-.184-2.186-.519s-1.392-.826-2.04-1.473c-.68-.682-1.184-1.392-1.514-2.129a5.338 5.338 0 01-.485-2.219c.007-.738.18-1.468.52-2.186s.828-1.394 1.465-2.032zm2.17 2.17a4.444 4.444 0 00-.842 1.134c-.206.398-.33.805-.373 1.215a2.67 2.67 0 00.138 1.188c.134.383.369.742.704 1.076.625.627 1.335.937 2.129.932.793-.006 1.621-.438 2.484-1.305.744-.744 1.162-1.529 1.254-2.354.092-.826-.201-1.579-.881-2.261a3.566 3.566 0 00-.98-.703 2.34 2.34 0 00-1.117-.227 3.074 3.074 0 00-1.222.331c-.421.208-.853.531-1.294.974zM1368.892 406.948a4.187 4.187 0 01-.922-.163 7.295 7.295 0 01-1.126-.429 8.807 8.807 0 01-2.467-1.757c-.69-.69-1.211-1.405-1.562-2.146a5.232 5.232 0 01-.534-2.233c-.007-.751.152-1.485.477-2.209s.82-1.42 1.49-2.09c.713-.711 1.449-1.223 2.209-1.529a5.308 5.308 0 012.267-.403 5.49 5.49 0 012.187.582 7.6 7.6 0 013.091 2.883 4.91 4.91 0 01.646 1.764c.103.631.049 1.284-.161 1.959-.212.674-.655 1.353-1.335 2.031a11.04 11.04 0 01-1.667 1.344l-5.828-5.828c-.335.356-.554.722-.655 1.094-.104.372-.12.745-.049 1.116.068.372.213.736.429 1.094.216.356.486.694.811 1.02.646.647 1.255 1.104 1.82 1.368.566.264 1.087.419 1.562.462l-.683 2.07zm2.282-9.276a3.806 3.806 0 00-.908-.678 3.118 3.118 0 00-1.01-.333 2.577 2.577 0 00-1.047.059c-.349.09-.672.263-.968.516l3.981 3.981c.538-.538.815-1.111.832-1.723.018-.611-.276-1.218-.88-1.822z"/></g></g><g><path fill="#2E9AFF" d="M1495.604 149.611c14.097 14.093 14.097 36.942 0 51.036 14.097-14.093 36.942-14.093 51.035 0"/><path fill="#FFF" d="M1546.639 202.647a1.994 1.994 0 01-1.414-.586c-13.282-13.285-34.901-13.289-48.194-.011a2 2 0 11-2.84-2.817c6.438-6.439 9.985-15 9.985-24.104s-3.547-17.665-9.985-24.103a2 2 0 012.827-2.829c7.195 7.194 11.158 16.759 11.158 26.932 0 5.956-1.357 11.703-3.928 16.888 14.234-7.021 31.977-4.614 43.805 7.216a2 2 0 01-1.414 3.414z"/></g><g><path fill="#2E9AFF" d="M1120.422 268.892c16.157-16.157 42.354-16.157 58.508 0-16.152-16.157-16.152-42.351 0-58.508"/><path fill="#FFF" d="M1120.422 270.892a2 2 0 01-1.414-3.414c8.192-8.192 19.084-12.704 30.669-12.704 7.089 0 13.917 1.688 20.025 4.875-8.48-16.339-5.877-36.987 7.812-50.68a2 2 0 112.828 2.829c-15.347 15.351-15.347 40.329 0 55.68.392.391.586.902.586 1.414a2 2 0 01-3.414 1.415c-7.435-7.437-17.32-11.532-27.839-11.532-10.517 0-20.404 4.095-27.841 11.532-.389.39-.9.585-1.412.585z"/></g><g><path fill="#2E9AFF" d="M1427.98 576.451c16.153-16.157 16.153-42.354 0-58.507 16.153 16.152 42.352 16.152 58.509 0"/><path fill="#FFF" d="M1427.98 578.451a2 2 0 01-1.414-3.414c15.35-15.354 15.35-40.33 0-55.679a1.988 1.988 0 01-.586-1.414 2 2 0 013.414-1.414c15.35 15.349 40.328 15.349 55.681 0a2 2 0 012.828 2.829c-13.701 13.696-34.365 16.299-50.708 7.8 8.499 16.342 5.898 37.004-7.801 50.706a1.99 1.99 0 01-1.414.586z"/></g><g><circle fill="#2E9AFF" cx="1471.653" cy="136.187" r="9.831"/><path fill="#FFF" d="M1471.653 148.018c-6.523 0-11.831-5.308-11.831-11.831s5.308-11.831 11.831-11.831c6.522 0 11.831 5.308 11.831 11.831s-5.307 11.831-11.831 11.831zm0-19.662c-4.318 0-7.831 3.513-7.831 7.831s3.513 7.831 7.831 7.831c4.317 0 7.831-3.513 7.831-7.831s-3.512-7.831-7.831-7.831z"/></g><g><circle fill="#2E9AFF" cx="1559.439" cy="223.975" r="9.832"/><path fill="#FFF" d="M1559.439 235.807c-6.524 0-11.832-5.308-11.832-11.832s5.308-11.832 11.832-11.832c6.523 0 11.832 5.308 11.832 11.832s-5.307 11.832-11.832 11.832zm0-19.664c-4.318 0-7.832 3.514-7.832 7.832s3.514 7.832 7.832 7.832c4.317 0 7.832-3.514 7.832-7.832s-3.513-7.832-7.832-7.832z"/></g></g><g><path fill="#FFF" d="M496.417 875.718c-12.219 0-23.188-6.794-28.627-17.729L271.141 462.512c-3.799-7.641-4.396-16.304-1.679-24.395 2.716-8.09 8.42-14.639 16.062-18.438l182.23-90.611a31.626 31.626 0 0114.208-3.348c12.218 0 23.188 6.793 28.625 17.729l196.647 395.478c3.801 7.642 4.397 16.306 1.681 24.396-2.717 8.09-8.421 14.638-16.062 18.438l-182.23 90.612a31.663 31.663 0 01-14.206 3.345zM481.961 343.43a14.08 14.08 0 00-6.323 1.495l-182.229 90.612a14.148 14.148 0 00-7.158 8.217 14.144 14.144 0 00.749 10.873l196.647 395.477c2.426 4.875 7.318 7.904 12.771 7.904 2.2 0 4.327-.502 6.32-1.493l182.229-90.611a14.144 14.144 0 007.159-8.219 14.137 14.137 0 00-.75-10.872L494.729 351.334c-2.425-4.875-7.317-7.904-12.768-7.904z"/><path fill="#FFF" d="M443.355 342.244l5.373 24.095c1.356 6.104-2.107 13.375-7.707 16.159l-91.358 45.427c-5.599 2.785-13.49 1.161-17.535-3.604l-15.971-18.825"/><circle fill="#FFF" cx="434.392" cy="488.533" r="55.785"/><path fill="#2E9AFF" d="M415.111 448.882a42.465 42.465 0 011.069 9.441c0 17.881-11.101 33.209-26.769 39.481l.07.383-1.402.512a14.685 14.685 0 00-8.978 9.188 14.684 14.684 0 00.777 11.287c2.516 5.062 7.593 8.205 13.249 8.205 2.291 0 4.502-.521 6.57-1.55a14.793 14.793 0 003.028-2.003l1.134-.974 1.147.956a46.104 46.104 0 0029.425 10.636c7.115 0 13.978-1.619 20.396-4.812 16.281-8.096 26.261-25.066 25.426-43.236l-.067-1.49 1.457-.32a14.808 14.808 0 003.425-1.209c7.3-3.629 10.284-12.52 6.657-19.819-2.517-5.06-7.594-8.203-13.25-8.203-2.291 0-4.5.521-6.567 1.55a14.08 14.08 0 00-1.46.835l-1.254.811-.231-.252a42.248 42.248 0 01-21.327 5.759c-13.038 0-24.719-5.905-32.525-15.176z"/><path d="M415.181 458.324c0-3.73-.502-7.343-1.429-10.784-18.065 9.098-28.151 29.283-24.537 49.179l.015.084c15.2-6.172 25.951-21.09 25.951-38.479z"/><path fill="#231F20" d="M416.181 458.323c0-3.245-.377-6.402-1.069-9.441a42.74 42.74 0 01-.71-.871 42.077 42.077 0 011.279 10.312c0 17.668-10.911 32.78-26.357 38.99l.089.491c15.667-6.272 26.768-21.6 26.768-39.481z"/><path fill="#231F20" d="M415.681 458.323c0-3.558-.446-7.012-1.279-10.312a42.33 42.33 0 01-.452-.575c-.066.033-.131.07-.197.104a41.438 41.438 0 011.429 10.784c0 17.389-10.75 32.307-25.951 38.479l.093.511c15.446-6.211 26.357-21.322 26.357-38.991z"/><path d="M447.637 463.058a41.25 41.25 0 0020.634-5.513l-.086-.094c-8.661-9.424-20.992-14.829-33.831-14.829-6.775 0-13.319 1.485-19.472 4.383 7.603 9.758 19.454 16.053 32.755 16.053z"/><path fill="#231F20" d="M447.637 463.558c-13.255 0-25.069-6.144-32.77-15.732.089.349.164.704.245 1.057 7.806 9.271 19.487 15.175 32.525 15.175 7.77 0 15.053-2.104 21.327-5.759l-.336-.366a41.81 41.81 0 01-20.991 5.625z"/><path fill="#231F20" d="M415.111 448.882c-.081-.353-.155-.708-.245-1.057a45.61 45.61 0 01-.469-.597c-.061.03-.123.056-.184.085.063.232.129.464.188.698.234.294.469.585.71.871z"/><path fill="#231F20" d="M414.213 447.314c-.085.042-.171.077-.256.119l-.008.004c.149.193.3.385.452.575-.058-.234-.125-.466-.188-.698zM447.637 463.558a41.81 41.81 0 0020.991-5.625l-.357-.388a41.248 41.248 0 01-20.634 5.513c-13.301 0-25.152-6.294-32.755-16.053-.071.034-.143.065-.214.099.066.241.138.479.199.722 7.7 9.588 19.514 15.732 32.77 15.732z"/><path fill="#231F20" d="M414.667 447.104c-.089.042-.18.082-.27.125.155.2.311.4.469.597-.061-.243-.133-.481-.199-.722z"/><path d="M494.898 461.98c-3.118-6.272-9.411-10.169-16.421-10.169-2.843 0-5.583.646-8.139 1.917-.179.088-.358.18-.538.276-9.267-9.504-22.104-14.928-35.448-14.928-7.667 0-15.06 1.743-21.974 5.181-19.166 9.53-30.07 30.622-26.886 51.67a18.215 18.215 0 00-9.75 10.83 18.206 18.206 0 00.963 13.992c3.119 6.273 9.411 10.17 16.42 10.17 2.843 0 5.585-.646 8.148-1.921a18.557 18.557 0 002.587-1.565 49.655 49.655 0 0030.572 10.553c7.667 0 15.061-1.743 21.975-5.183 17.106-8.506 27.756-26.11 27.432-45.136a18.364 18.364 0 002.811-1.122c9.045-4.497 12.746-15.517 8.248-24.565zm-9.038 22.981a16.49 16.49 0 01-3.836 1.354c.841 18.295-8.954 36.226-26.406 44.903-17.452 8.682-37.663 5.663-51.742-6.048a16.579 16.579 0 01-3.392 2.243c-8.187 4.069-18.122.735-22.193-7.452-3.476-6.989-1.536-15.246 4.199-20.047a16.53 16.53 0 012.255-1.586c.329-.192.653-.389.999-.561a17.495 17.495 0 011.727-.734c-3.678-20.251 6.152-41.306 25.415-51.042.095-.048.186-.1.281-.147.027-.014.055-.025.082-.039l.072-.034c.129-.063.26-.121.39-.184l.086-.041c.12-.058.241-.114.362-.171 19.23-9.025 41.57-4.096 55.329 10.874a15.997 15.997 0 011.633-.934 16.735 16.735 0 011.533-.668c.469-.178.944-.325 1.42-.457.345-.096.692-.169 1.04-.241 7.195-1.505 14.773 1.929 18.2 8.818 4.067 8.189.732 18.124-7.454 22.194z"/><path d="M493.312 462.77c-3.426-6.889-11.005-10.323-18.2-8.818a42.684 42.684 0 01-6.149 4.348l.231.252 1.254-.811a14.08 14.08 0 011.46-.835 14.61 14.61 0 016.567-1.55c5.656 0 10.733 3.144 13.25 8.203 3.627 7.3.643 16.19-6.657 19.819-1.082.54-2.234.947-3.425 1.209l-1.457.32.067 1.49c.835 18.17-9.145 35.141-25.426 43.236-6.419 3.192-13.281 4.812-20.396 4.812a46.1 46.1 0 01-29.425-10.636l-1.147-.956-1.134.974a14.793 14.793 0 01-3.028 2.003 14.626 14.626 0 01-6.57 1.55c-5.656 0-10.733-3.144-13.249-8.205a14.684 14.684 0 01-.777-11.287 14.685 14.685 0 018.978-9.188l1.402-.512-.07-.383a42.092 42.092 0 01-6.922 2.109c-5.735 4.801-7.675 13.058-4.199 20.047 4.071 8.188 14.007 11.521 22.193 7.452a16.579 16.579 0 003.392-2.243c14.079 11.711 34.29 14.729 51.742 6.048 17.452-8.678 27.247-26.608 26.406-44.903a16.398 16.398 0 003.836-1.354c8.187-4.07 11.522-14.005 7.453-22.191z"/><path d="M389.215 496.719c-3.614-19.896 6.472-40.081 24.537-49.179-.05-.187-.105-.371-.158-.556-.244-.325-.474-.66-.708-.993-19.262 9.735-29.093 30.791-25.415 51.042-.581.212-1.16.455-1.727.734-.346.172-.67.369-.999.561a41.223 41.223 0 004.485-1.526l-.015-.083zM389.323 497.313a41.658 41.658 0 01-5.898 1.876c-.322.232-.634.473-.935.725a42.092 42.092 0 006.922-2.109l-.089-.492z"/><path d="M389.23 496.803a41.223 41.223 0 01-4.485 1.526 16.53 16.53 0 00-1.32.861 41.658 41.658 0 005.898-1.876l-.093-.511zM413.594 446.984c.053.185.108.369.158.556l.197-.104c-.117-.151-.24-.298-.355-.452zM414.881 447.005c6.153-2.897 12.697-4.383 19.472-4.383 12.839 0 25.17 5.405 33.831 14.829l.086.094a41.495 41.495 0 004.382-2.896c-.516.195-1.028.417-1.533.668-.569.279-1.111.597-1.633.934-13.758-14.97-36.099-19.899-55.329-10.874.122.379.232.762.343 1.146.125.163.256.321.381.482z"/><path d="M414.159 445.377c-.121.057-.242.113-.362.171.232.327.463.655.705.975a43.31 43.31 0 00-.343-1.146zM468.964 458.299a42.684 42.684 0 006.149-4.348c-.348.072-.695.145-1.04.241a42.136 42.136 0 01-5.445 3.741l.336.366zM413.249 445.806c-.027.014-.055.025-.082.039-.095.047-.187.099-.281.147.234.333.464.667.708.993-.113-.395-.222-.79-.345-1.179zM414.071 446.813c.048.167.097.333.142.5.061-.03.123-.056.184-.085-.107-.139-.219-.274-.326-.415z"/><path d="M413.949 447.437a.03.03 0 00.008-.004c.085-.042.171-.077.256-.119-.045-.167-.094-.333-.142-.5-.257-.341-.503-.692-.75-1.042l-.072.034c.124.389.233.784.345 1.178.115.154.238.301.355.453zM414.502 446.522c.056.193.112.387.166.582.071-.034.143-.065.214-.099-.126-.161-.257-.319-.38-.483zM468.627 457.933a42.136 42.136 0 005.445-3.741c-.476.132-.951.279-1.42.457a41.755 41.755 0 01-4.382 2.896l.357.388z"/><path d="M414.397 447.229c.09-.043.181-.082.27-.125a29.629 29.629 0 00-.166-.582c-.242-.32-.473-.647-.705-.975l-.086.041c.129.405.245.815.361 1.225.107.141.219.276.326.416z"/><path d="M413.71 445.588c-.129.062-.26.12-.39.184.248.35.493.7.75 1.042-.115-.41-.231-.821-.36-1.226z"/><g><path d="M397.658 519.54c-.21 0-.424-.038-.633-.118l-14.004-5.362a1.77 1.77 0 111.266-3.307l14.004 5.362a1.771 1.771 0 01-.633 3.425z"/></g><g><path d="M478.104 479.541a1.77 1.77 0 01-1.702-2.264l4.176-14.403a1.771 1.771 0 113.401.986l-4.176 14.402a1.773 1.773 0 01-1.699 1.279z"/></g><g><circle cx="417.685" cy="502.493" r="6.29"/><path fill="#231F20" d="M417.685 509.283c-3.743 0-6.79-3.046-6.79-6.79s3.047-6.79 6.79-6.79c3.744 0 6.79 3.046 6.79 6.79s-3.046 6.79-6.79 6.79zm0-12.58a5.797 5.797 0 00-5.79 5.79 5.797 5.797 0 005.79 5.79 5.797 5.797 0 005.79-5.79 5.797 5.797 0 00-5.79-5.79z"/><g><path d="M406.875 510.803a1.77 1.77 0 01-1.756-2.018 17 17 0 019.264-12.861 17.027 17.027 0 0115.846.374 1.771 1.771 0 01-1.72 3.096 13.486 13.486 0 00-12.549-.298 13.465 13.465 0 00-7.333 10.185 1.773 1.773 0 01-1.752 1.522z"/></g></g><g><circle cx="454.443" cy="484.215" r="6.291"/><path fill="#231F20" d="M454.443 491.006c-3.745 0-6.791-3.046-6.791-6.791s3.046-6.791 6.791-6.791c3.744 0 6.791 3.046 6.791 6.791s-3.046 6.791-6.791 6.791zm0-12.582a5.798 5.798 0 00-5.791 5.791 5.798 5.798 0 005.791 5.791 5.798 5.798 0 005.791-5.791 5.797 5.797 0 00-5.791-5.791z"/><g><path d="M443.632 492.523a1.77 1.77 0 01-1.755-2.02 16.997 16.997 0 019.267-12.857 17.009 17.009 0 0115.847.375 1.77 1.77 0 11-1.723 3.095 13.464 13.464 0 00-12.547-.297 13.462 13.462 0 00-7.336 10.183 1.775 1.775 0 01-1.753 1.521z"/></g></g><g><path d="M440.45 503.227a1.769 1.769 0 01-1.587-.982l-4.078-8.201a1.772 1.772 0 013.172-1.578l4.078 8.201a1.773 1.773 0 01-1.585 2.56z"/></g><g><path fill="#FFF" d="M450.332 502.35a8.285 8.285 0 01-14.835 7.378"/></g><g><path fill="#2E9AFF" d="M608.311 673.23c5.709 11.479 1.029 25.419-10.453 31.128l-91.616 45.557c-11.482 5.711-25.418 1.03-31.128-10.452-5.709-11.482-1.03-25.42 10.449-31.129l91.62-45.557c11.481-5.709 25.419-1.029 31.128 10.453z"/><path fill="#FFF" d="M495.919 753.924c-9.483 0-17.996-5.271-22.217-13.76-6.086-12.242-1.081-27.153 11.159-33.239l91.619-45.557a24.524 24.524 0 0111.021-2.6c9.485 0 17.999 5.272 22.218 13.761 2.948 5.93 3.411 12.651 1.303 18.931-2.107 6.278-6.534 11.359-12.465 14.308l-91.617 45.558a24.552 24.552 0 01-11.021 2.598zm91.583-92.006a21.42 21.42 0 00-9.619 2.27l-91.62 45.557c-10.685 5.312-15.055 18.331-9.741 29.019 3.686 7.41 11.118 12.015 19.397 12.015 3.355 0 6.592-.765 9.62-2.271l91.618-45.557a21.507 21.507 0 0010.882-12.491c1.84-5.481 1.438-11.352-1.138-16.526-3.684-7.413-11.117-12.016-19.399-12.016z"/><g fill="#FFF"><path d="M498.443 730.666l.069-.034-1.625-8.069 1.971-.979 1.915 11.162-2.164 1.076-7.826-8.224 2.123-1.056 5.537 6.124zM503.872 729.299l2.442-1.214-1.933-3.886-2.442 1.215-.759-1.525 4.247-2.11 2.69 5.409 2.565-1.274.76 1.526-6.813 3.388-.757-1.529zm-1.518-8.346a1.104 1.104 0 01-.047-.896c.111-.31.357-.559.736-.747.389-.191.749-.244 1.082-.156.332.089.569.275.712.562.147.296.151.596.017.9-.139.305-.4.554-.789.747-.379.188-.723.239-1.029.157a1.026 1.026 0 01-.682-.567zM519.182 722.674a2.7 2.7 0 01-.303.559 5.61 5.61 0 01-1.247 1.269 6.06 6.06 0 01-.931.566c-.592.294-1.163.475-1.712.541a3.562 3.562 0 01-1.55-.142c-.482-.156-.92-.418-1.314-.781s-.733-.831-1.02-1.405c-.304-.609-.473-1.192-.506-1.747a3.601 3.601 0 01.229-1.542c.186-.474.468-.898.846-1.275a5.085 5.085 0 011.356-.961 5.083 5.083 0 011.158-.403 3.315 3.315 0 011.271-.033c.426.069.835.246 1.222.524.389.28.728.712 1.018 1.295.197.398.363.852.503 1.359l-4.996 2.483c.156.291.344.511.562.655.217.146.45.236.705.271.254.036.52.021.795-.039.273-.062.551-.162.827-.3.556-.276.979-.567 1.271-.874s.503-.607.633-.903l1.183.883zm-5.46-3.463c-.241.119-.45.266-.63.438a2.116 2.116 0 00-.433.576c-.108.211-.17.44-.188.685-.018.244.024.488.122.731l3.413-1.696c-.229-.461-.538-.765-.926-.906-.387-.143-.84-.086-1.358.172zM522.712 715.26l2.552 2.521.068-.035-.468-1.254-1.177-3.794 1.623-.808 2.049 7.635-1.817.903-2.144-2.36-.069.033.491 3.184-1.873.931-4.906-6.213 1.805-.896 2.59 3.505.539.805.07-.035-.484-3.549 1.151-.573zM541.652 708.352l1.526-.759 1.379 2.775c-.188.358-.482.714-.882 1.062a6.14 6.14 0 01-1.318.881 6.202 6.202 0 01-1.877.597 4.19 4.19 0 01-1.884-.154c-.615-.195-1.21-.553-1.778-1.071s-1.082-1.234-1.537-2.15c-.473-.952-.729-1.82-.766-2.604-.039-.782.066-1.481.314-2.096a4.541 4.541 0 011.064-1.585c.46-.442.953-.795 1.48-1.057.555-.276 1.047-.464 1.479-.562a5.35 5.35 0 011.108-.153l1.436 2.887-1.526.759-.786-1.582c-.31.097-.617.221-.923.372-.361.18-.663.414-.905.701a2.46 2.46 0 00-.506 1.021c-.093.395-.1.832-.02 1.316.08.485.262 1.015.547 1.589.248.499.535.926.86 1.275.324.354.677.619 1.055.801.379.182.774.271 1.188.267s.832-.112 1.258-.324c.307-.15.588-.326.848-.523l-.834-1.683zM540.609 700.823l2.803-1.395 1.766 3.554.058-.027c.073-.407.252-.79.534-1.15.283-.358.675-.663 1.175-.911a3.673 3.673 0 011.04-.345c.341-.055.672-.027.989.078.319.107.63.313.933.619.301.306.586.728.853 1.264l2.146 4.315-1.805.896-1.96-3.939c-.279-.564-.603-.911-.968-1.042-.364-.131-.74-.1-1.129.095-.343.17-.604.431-.789.781a1.892 1.892 0 00-.213 1.102l2.2 4.426-1.805.897-4.069-8.188-.999.496-.76-1.526zM551.797 699.31a8.62 8.62 0 011.07-1.067c.426-.361.972-.708 1.638-1.039.481-.239.919-.385 1.314-.438a2.318 2.318 0 011.062.085c.313.109.59.289.83.54.24.249.451.56.636.931.234.472.42.882.553 1.23.133.35.264.653.393.911.097.194.214.407.354.639.082.121.157.238.228.354l.901-.448.759 1.526-2.328 1.158-.651-.854-.068.034a2.693 2.693 0 01-.417 1.133c-.237.378-.646.71-1.225.998-.688.343-1.329.43-1.917.261-.589-.168-1.035-.559-1.339-1.169-.191-.389-.288-.759-.284-1.111 0-.354.094-.688.273-1.002.182-.315.441-.611.779-.891a6.45 6.45 0 011.747-.998c.192-.073.428-.166.702-.28a1.532 1.532 0 00-.109-.292l-.131-.263c-.176-.352-.401-.554-.68-.604-.277-.055-.614.02-1.01.216a4.602 4.602 0 00-1.178.811 9.288 9.288 0 00-.771.833l-1.131-1.204zm4.894 3.919c.438-.219.728-.463.865-.733.141-.271.213-.523.223-.76l-.413-.832c-.103.026-.249.073-.443.143s-.396.153-.606.258c-.175.087-.34.189-.497.31a2.02 2.02 0 00-.392.385 1.002 1.002 0 00-.193.434.738.738 0 00.076.465c.129.259.304.423.525.49.223.066.508.011.855-.16zM558.806 695.237l2.429-1.207.662.812.058-.026c.063-.401.241-.812.529-1.232.286-.42.709-.768 1.264-1.043.342-.17.686-.283 1.032-.342.347-.058.68-.031.998.075.318.107.632.312.938.615.307.304.593.724.859 1.261l2.146 4.313-1.804.897-1.959-3.94c-.281-.563-.61-.908-.988-1.031-.38-.124-.763-.088-1.149.104a1.769 1.769 0 00-.789.765 1.643 1.643 0 00-.206 1.028l2.234 4.495-1.805.896-2.689-5.411-1 .496-.76-1.525zM567.131 691.098l2.428-1.207.664.812.056-.027c.065-.401.241-.812.528-1.231.288-.42.709-.769 1.265-1.044.344-.17.688-.283 1.034-.342.347-.057.679-.03.996.074.319.108.633.312.938.616s.593.724.858 1.26l2.146 4.315-1.804.896-1.96-3.939c-.28-.564-.609-.907-.988-1.031s-.762-.088-1.15.104a1.781 1.781 0 00-.788.765 1.656 1.656 0 00-.206 1.028l2.234 4.496-1.804.896-2.69-5.412-.999.496-.758-1.525zM585.783 689.56a2.823 2.823 0 01-.303.559c-.138.201-.311.41-.519.629a5.907 5.907 0 01-1.66 1.205c-.593.295-1.163.475-1.713.541-.55.064-1.065.02-1.549-.14a3.543 3.543 0 01-1.314-.782c-.396-.363-.733-.832-1.02-1.405-.304-.61-.472-1.193-.505-1.747a3.586 3.586 0 01.229-1.542 3.73 3.73 0 01.846-1.276 5.138 5.138 0 012.513-1.362 3.296 3.296 0 011.271-.035c.429.07.836.246 1.224.525.387.28.727.713 1.016 1.296.198.396.365.851.503 1.357l-4.994 2.483c.155.292.343.511.56.656.217.146.452.236.706.271.255.035.519.021.795-.039.273-.062.55-.162.828-.301.555-.275.978-.566 1.27-.873s.504-.607.633-.903l1.183.883zm-5.461-3.464a2.61 2.61 0 00-.63.438 2.086 2.086 0 00-.433.576 1.774 1.774 0 00-.188.684c-.018.244.023.489.123.733l3.413-1.697c-.229-.462-.538-.764-.928-.906-.385-.143-.838-.085-1.357.172zM583.441 679.527l2.955-1.471 3.188 6.41c.354.712.688 1.163 1.002 1.354.314.189.665.188 1.054-.005.286-.144.509-.289.663-.441s.299-.33.428-.533l1.302.911c-.107.18-.217.354-.331.519a3.212 3.212 0 01-.391.472 3.849 3.849 0 01-.506.426 4.865 4.865 0 01-.677.396c-.87.433-1.633.534-2.288.308-.654-.227-1.186-.75-1.59-1.563l-2.898-5.826-1.149.571-.762-1.528z"/></g><path fill="#231F20" d="M413.846 639.565a1.772 1.772 0 01-.79-3.357l154.602-76.873a1.771 1.771 0 011.578 3.172L414.633 639.38a1.76 1.76 0 01-.787.185zM448.146 648.88a1.772 1.772 0 01-.791-3.356l107.027-53.219a1.771 1.771 0 011.578 3.172l-107.027 53.219a1.786 1.786 0 01-.787.184zM442.8 677.909a1.77 1.77 0 01-.79-3.357l138.744-68.989a1.77 1.77 0 011.578 3.173l-138.744 68.988a1.768 1.768 0 01-.788.185zM485.029 683.282a1.771 1.771 0 01-.79-3.357l75.312-37.448a1.772 1.772 0 011.578 3.173l-75.312 37.447a1.774 1.774 0 01-.788.185z"/><g><path fill="#231F20" d="M527.343 768.383a1.77 1.77 0 01-.79-3.356l75.315-37.449a1.771 1.771 0 011.578 3.172l-75.315 37.449a1.797 1.797 0 01-.788.184z"/></g><g><path fill="#231F20" d="M553.583 781.375a1.771 1.771 0 01-.79-3.357l43.6-21.68a1.771 1.771 0 011.578 3.172l-43.6 21.681a1.8 1.8 0 01-.788.184z"/></g></g><g fill="#231F20"><path d="M426.229 586.668l8.615-4.285 4.571 9.193c.39.784.655 1.568.798 2.354a4.811 4.811 0 01-.17 2.373c-.166.493-.39.932-.672 1.312a6.216 6.216 0 01-.888.98 6.749 6.749 0 01-.918.688 10.9 10.9 0 01-.764.431c-.66.328-1.335.573-2.024.736s-1.437.213-2.239.148l-.117-2.77c.673.043 1.222.019 1.647-.073a5.99 5.99 0 001.381-.507c.302-.149.6-.371.892-.662.293-.291.501-.639.626-1.043.221-.762.101-1.609-.365-2.544l-3.33-6.7-5.793 2.88-1.25-2.511zM442.032 590.378c-.432-.865-.684-1.7-.756-2.503a5.304 5.304 0 01.263-2.266 5.294 5.294 0 011.193-1.917c.547-.571 1.231-1.062 2.057-1.473.866-.431 1.704-.686 2.515-.762a5.353 5.353 0 012.271.247 5.176 5.176 0 011.917 1.192c.575.555 1.063 1.236 1.468 2.048.431.864.683 1.699.757 2.503a5.294 5.294 0 01-.264 2.265 5.277 5.277 0 01-1.193 1.917c-.547.572-1.231 1.063-2.057 1.474-.865.432-1.704.685-2.515.762a5.35 5.35 0 01-2.27-.246 5.199 5.199 0 01-1.918-1.194c-.574-.553-1.064-1.236-1.468-2.047zm2.763-1.373c.227.453.496.843.812 1.165.314.324.66.57 1.038.744.378.172.771.256 1.179.25s.825-.115 1.252-.327c.797-.396 1.319-.974 1.567-1.729.249-.76.101-1.688-.446-2.787-.472-.948-1.086-1.599-1.845-1.949-.757-.354-1.567-.313-2.435.117a3.572 3.572 0 00-.985.708c-.271.28-.463.611-.572.992-.11.381-.137.805-.075 1.271.059.467.23.981.51 1.545zM449.067 575.312l4.163-2.07 2.625 5.275.082-.041c.11-.604.377-1.172.797-1.705.42-.535 1-.986 1.741-1.355a5.41 5.41 0 011.546-.513c.509-.08 1-.041 1.473.116.474.159.935.467 1.383.921.449.453.871 1.079 1.268 1.877l3.188 6.409-2.68 1.333-2.91-5.854c-.418-.839-.896-1.354-1.438-1.548s-1.102-.146-1.679.141a2.614 2.614 0 00-1.171 1.161 2.808 2.808 0 00-.317 1.636l3.271 6.576-2.68 1.332-6.049-12.162-1.483.738-1.13-2.267zM463.733 573.162l3.606-1.794.985 1.206.083-.041c.097-.598.358-1.207.786-1.831.427-.624 1.053-1.141 1.877-1.55a5.464 5.464 0 011.534-.508 3.054 3.054 0 011.482.111c.473.159.938.464 1.395.915.455.45.881 1.074 1.275 1.871l3.188 6.411-2.681 1.333-2.91-5.855c-.416-.838-.905-1.348-1.469-1.531-.562-.184-1.133-.132-1.709.155-.51.253-.898.633-1.171 1.137s-.375 1.013-.308 1.526l3.32 6.681-2.681 1.331-3.997-8.04-1.483.738-1.122-2.265zM487.202 556.35a35.952 35.952 0 011.634-.98 58.808 58.808 0 012.303-1.235c1.278-.636 2.43-.977 3.451-1.021 1.022-.045 1.94.137 2.753.548.812.41 1.534 1.01 2.169 1.801.634.791 1.209 1.708 1.729 2.753a15.01 15.01 0 011.095 2.927 7.207 7.207 0 01.163 2.939c-.148.958-.561 1.873-1.23 2.746-.672.874-1.701 1.655-3.09 2.346-.22.109-.506.242-.854.399-.349.156-.709.313-1.077.472-.367.156-.721.308-1.061.45-.341.144-.606.245-.8.308l-7.185-14.453zm5.292.249c-.262.13-.51.268-.748.409l-.531.328 4.809 9.669c.062-.013.148-.044.263-.093.113-.047.229-.097.351-.147.121-.05.237-.101.352-.148.113-.047.204-.088.272-.123.798-.396 1.359-.859 1.687-1.392a3.09 3.09 0 00.481-1.692 5.636 5.636 0 00-.354-1.854 17.862 17.862 0 00-.799-1.864 17.366 17.366 0 00-.902-1.582 5.217 5.217 0 00-1.201-1.331 3.234 3.234 0 00-1.595-.646c-.608-.08-1.302.076-2.085.466zM503.874 559.63c-.431-.865-.683-1.7-.756-2.503a5.302 5.302 0 01.263-2.266c.248-.705.646-1.346 1.193-1.917s1.231-1.062 2.057-1.473c.866-.431 1.704-.686 2.514-.762a5.35 5.35 0 012.271.247 5.172 5.172 0 011.918 1.192c.575.553 1.063 1.235 1.467 2.047.431.866.685 1.701.758 2.504a5.303 5.303 0 01-.264 2.264 5.284 5.284 0 01-1.192 1.918c-.548.572-1.232 1.063-2.058 1.475-.865.431-1.704.684-2.514.761a5.337 5.337 0 01-2.271-.247 5.162 5.162 0 01-1.918-1.193c-.575-.553-1.065-1.236-1.468-2.047zm2.763-1.373c.226.453.496.843.812 1.165.314.324.66.57 1.039.744.377.172.769.256 1.178.25a2.901 2.901 0 001.252-.327c.796-.396 1.319-.974 1.568-1.73.249-.758.1-1.687-.447-2.786-.471-.948-1.086-1.599-1.844-1.949-.757-.354-1.568-.313-2.436.117-.386.19-.713.428-.984.708s-.464.611-.574.992a3.12 3.12 0 00-.074 1.271c.059.467.228.981.51 1.545zM528.549 552.428c-.098.253-.248.529-.45.827s-.46.609-.77.936c-.31.325-.671.643-1.083.95a9.009 9.009 0 01-1.381.842c-.881.438-1.729.705-2.545.802a5.298 5.298 0 01-2.301-.205 5.302 5.302 0 01-1.955-1.163c-.584-.54-1.091-1.235-1.515-2.089-.45-.906-.701-1.771-.75-2.597-.05-.823.063-1.587.34-2.288a5.506 5.506 0 011.255-1.897 7.63 7.63 0 012.018-1.426 7.569 7.569 0 011.72-.601 4.967 4.967 0 011.89-.052c.636.104 1.24.365 1.815.781s1.079 1.058 1.509 1.924c.295.591.543 1.264.748 2.021l-7.422 3.688c.232.434.51.759.832.976s.672.352 1.05.403c.376.053.771.032 1.179-.06s.818-.24 1.23-.445c.825-.409 1.454-.842 1.888-1.298.434-.455.747-.902.939-1.342l1.759 1.313zm-8.111-5.147c-.357.178-.67.395-.938.649s-.48.54-.643.855c-.16.313-.252.654-.278 1.017a2.41 2.41 0 00.181 1.088l5.071-2.521c-.341-.687-.799-1.134-1.376-1.346-.576-.211-1.249-.125-2.017.258z"/></g></g><g><path fill="#231F20" d="M1218.206 946.891c-25.052.001-49.167-14.343-60.461-38.614-15.15-32.562-1.763-71.275 29.819-87.301l-.015-.034 1.815-.852 241.16-112.203 1.787 3.842-240.422 111.858-.729.346c-30.762 14.457-44.029 51.491-29.575 82.557 14.452 31.062 51.323 44.768 82.199 30.548l1.538-.708 239.616-111.486 1.787 3.842-243.025 113.07-.021-.041a65.24 65.24 0 01-25.473 5.176zM1424.626 925.827l-.926-1.544 1.714-1.032-.843-1.811 142.72-66.4-.006.043 129.64-60.318c14.256-6.703 20.403-23.867 13.701-38.262-6.694-14.397-23.786-20.753-38.092-14.162l-8.804 4.093-1.688-3.627 10.364-4.821.031.046c15.963-6.358 34.437.919 41.813 16.786 7.228 15.521 1.313 33.882-13.142 42.266l.1.1-2.59 1.208-136.289 63.41.006-.043-137.709 64.068z"/><path fill="#231F20" d="M1710.409 756.094L1656.24 639.62c-6.693-14.398-23.776-20.75-38.09-14.165l-9.654 4.489-1.688-3.627 10.928-5.084.029.027c16.024-6.559 34.68.709 42.102 16.672l54.169 116.474-3.627 1.688z"/><path fill="#2E9AFF" d="M1640.127 774.826l-118.766 55.258c-16.023 7.455-35.061.509-42.516-15.515l12.655 27.195c7.455 16.023 26.487 22.974 42.512 15.519l118.769-55.258c16.021-7.454 22.971-26.488 15.515-42.516l-12.654-27.195c7.456 16.024.506 35.058-15.515 42.512z"/><path fill="#FFF" d="M1520.538 862.276c-13.183 0-25.291-7.721-30.851-19.667l-12.647-27.184-.007-.014 3.627-1.688c4.904 10.541 15.59 17.354 27.223 17.354 4.381 0 8.631-.944 12.635-2.808l118.767-55.259c7.265-3.38 12.778-9.387 15.526-16.915 2.744-7.519 2.399-15.654-.971-22.914l-.012-.024 3.627-1.688 12.654 27.196c7.908 16.999.514 37.263-16.484 45.172l-118.768 55.258a33.684 33.684 0 01-14.319 3.181zm-33.145-34.082l5.924 12.728c4.904 10.543 15.59 17.354 27.223 17.354a29.72 29.72 0 0012.632-2.808l118.769-55.258c14.998-6.979 21.522-24.857 14.545-39.857l-5.892-12.658a34.104 34.104 0 01-2.024 9.773c-3.113 8.531-9.362 15.339-17.597 19.17l-118.766 55.258a33.724 33.724 0 01-14.322 3.182c-7.52 0-14.689-2.51-20.492-6.884z"/><path fill="#FFF" d="M1507.887 835.077h-.003c-13.183-.001-25.292-7.72-30.851-19.664l-55.257-118.766c-3.831-8.234-4.227-17.468-1.111-25.998 3.115-8.531 9.364-15.341 17.599-19.171l118.766-55.258a33.732 33.732 0 0114.322-3.181c13.182 0 25.289 7.719 30.848 19.664l55.258 118.766c3.831 8.233 4.227 17.467 1.111 25.999-3.114 8.531-9.363 15.339-17.598 19.17l-118.765 55.258a33.69 33.69 0 01-14.319 3.181zm63.465-238.036a29.73 29.73 0 00-12.636 2.808l-118.765 55.258c-7.267 3.38-12.781 9.388-15.528 16.915-2.748 7.526-2.399 15.675.98 22.938l55.257 118.766c4.904 10.54 15.591 17.352 27.224 17.353h.003c4.379 0 8.629-.944 12.633-2.807l118.765-55.259c7.265-3.38 12.778-9.387 15.526-16.915 2.748-7.526 2.398-15.675-.98-22.938l-55.258-118.767c-4.906-10.541-15.591-17.352-27.221-17.352z"/><circle fill="#FFF" cx="1554.207" cy="703.381" r="55.785"/><path fill="#2E9AFF" d="M1594.287 685.057c-2.73.552-5.555.845-8.445.845-18.234 0-33.822-11.542-39.851-27.703l-.379.06-.476-1.421a14.851 14.851 0 00-.621-1.552c-2.422-5.18-7.683-8.523-13.4-8.523-2.169 0-4.273.471-6.255 1.397-7.384 3.457-10.579 12.275-7.124 19.659a14.935 14.935 0 001.931 3.072l.944 1.157-.982 1.126c-11.959 13.707-14.706 33.204-6.998 49.67 7.668 16.376 24.469 26.839 42.627 26.439l1.49-.034.287 1.463a14.854 14.854 0 001.129 3.457c2.424 5.175 7.684 8.521 13.398 8.521h.002c2.168 0 4.272-.472 6.255-1.398 7.383-3.456 10.577-12.273 7.123-19.656a14.664 14.664 0 00-.798-1.468l-.791-1.275.258-.226a42.252 42.252 0 01-5.26-20.461c.001-13.394 6.229-25.351 15.936-33.149zm-61.109-32.293l-5.69 13.876a1.772 1.772 0 11-3.279-1.344l5.691-13.876a1.771 1.771 0 113.278 1.344zm45.593 97.395a1.771 1.771 0 01-1.067 3.377l-14.302-4.515a1.77 1.77 0 01-1.155-2.223 1.764 1.764 0 012.222-1.155l14.302 4.516z"/><path d="M1585.842 684.902c3.389 0 6.68-.417 9.835-1.187-7.566-15.948-23.828-26.244-41.503-26.244a45.74 45.74 0 00-7.082.554l-.089.014c5.937 15.682 21.103 26.863 38.839 26.863z"/><path fill="#231F20" d="M1585.842 685.901c2.891 0 5.715-.293 8.445-.845.299-.241.6-.48.905-.713a42.064 42.064 0 01-9.351 1.058c-18.02 0-33.384-11.346-39.354-27.281l-.496.078c6.029 16.161 21.616 27.703 39.851 27.703z"/><path fill="#231F20" d="M1585.842 685.401c3.216 0 6.342-.373 9.351-1.058.192-.146.386-.289.581-.432-.031-.066-.065-.131-.097-.196a41.422 41.422 0 01-9.835 1.187c-17.735 0-32.901-11.182-38.839-26.863l-.516.081c5.971 15.936 21.335 27.281 39.355 27.281z"/><path d="M1579.352 718.206c0 7.16 1.822 13.902 5.027 19.788l.104-.092c15.011-13.158 19.742-34.841 11.703-53.058-10.206 7.572-16.834 19.707-16.834 33.362z"/><path fill="#231F20" d="M1578.852 718.205c0-13.619 6.484-25.718 16.528-33.396-.364.083-.726.173-1.093.247-9.707 7.799-15.936 19.756-15.936 33.148a42.252 42.252 0 005.26 20.461l.373-.326a41.82 41.82 0 01-5.132-20.134z"/><path fill="#231F20" d="M1594.287 685.057c.367-.074.729-.164 1.093-.247.196-.15.394-.301.593-.448l-.079-.179c-.232.057-.467.108-.701.161-.306.232-.607.471-.906.713z"/><path fill="#231F20" d="M1595.894 684.183c-.04-.087-.075-.174-.115-.26l-.005-.011c-.195.143-.389.286-.581.432.234-.053.468-.105.701-.161zM1578.852 718.205a41.815 41.815 0 005.133 20.135l.395-.346a41.258 41.258 0 01-5.027-19.788c0-13.655 6.629-25.79 16.835-33.361l-.089-.201c-.238.059-.479.11-.718.166-10.045 7.677-16.529 19.776-16.529 33.395z"/><path fill="#231F20" d="M1596.098 684.644c-.042-.094-.082-.188-.125-.282-.199.147-.396.298-.593.448.239-.056.479-.108.718-.166z"/><path d="M1588.146 740.127a19.975 19.975 0 00-.261-.53c15.587-14.499 20.173-37.794 11.099-57.179-8.103-17.307-25.692-28.491-44.812-28.491-2.069 0-4.152.132-6.208.395a16.636 16.636 0 00-.242-.54c-3.002-6.417-9.521-10.563-16.609-10.563-2.691 0-5.302.583-7.756 1.732-9.151 4.284-13.112 15.216-8.83 24.372a18.8 18.8 0 001.504 2.618c-12.092 14.693-14.709 35.101-6.608 52.403 8.056 17.206 25.488 28.359 44.479 28.489.272.972.625 1.922 1.055 2.837 3.003 6.414 9.521 10.559 16.607 10.561a18.17 18.17 0 007.756-1.733c9.151-4.285 13.111-15.216 8.826-24.371zm-9.576 22.769c-8.281 3.875-18.133.305-22.01-7.975a16.6 16.6 0 01-1.265-3.867c-18.309.408-36.005-9.808-44.271-27.459-8.262-17.648-4.771-37.787 7.269-51.585a16.698 16.698 0 01-2.163-3.44c-3.875-8.283-.302-18.138 7.979-22.015 7.078-3.312 15.295-1.171 19.955 4.689.239.302.468.614.688.936.294.428.569.872.826 1.334.186.335.376.667.541 1.02.269.572.501 1.158.696 1.742 20.325-3.199 41.141 7.124 50.42 26.604.047.099.099.193.145.292.012.025.022.052.034.078.011.022.021.046.031.069.062.132.116.265.176.396l.036.083c.057.124.111.249.166.373 8.57 19.438 3.118 41.657-12.174 55.062.326.524.625 1.075.896 1.649a16.371 16.371 0 011.053 2.97c.089.352.155.705.22 1.059 1.332 7.229-2.28 14.722-9.248 17.985z"/><path d="M1583.611 738.666l-.258.226.791 1.275c.289.466.559.961.798 1.468 3.454 7.383.26 16.2-7.123 19.656a14.663 14.663 0 01-6.255 1.398h-.002c-5.715 0-10.975-3.346-13.398-8.521a14.901 14.901 0 01-1.129-3.457l-.287-1.463-1.49.034c-18.158.399-34.959-10.063-42.627-26.439-7.708-16.466-4.961-35.963 6.998-49.67l.982-1.126-.944-1.157a15.004 15.004 0 01-1.931-3.072c-3.455-7.384-.26-16.202 7.124-19.659a14.656 14.656 0 016.255-1.397c5.718 0 10.979 3.344 13.4 8.523.233.498.442 1.02.621 1.552l.476 1.421.379-.06a42.18 42.18 0 01-1.927-6.954c-4.66-5.86-12.877-8.002-19.955-4.689-8.28 3.877-11.854 13.731-7.979 22.015a16.671 16.671 0 002.163 3.44c-12.039 13.798-15.53 33.937-7.269 51.585 8.266 17.651 25.962 27.867 44.271 27.459a16.585 16.585 0 001.265 3.867c3.877 8.279 13.729 11.85 22.01 7.975 6.968-3.263 10.58-10.756 9.248-17.983a42.898 42.898 0 01-4.207-6.247z"/><path d="M1547.092 658.025a45.74 45.74 0 017.082-.554c17.675 0 33.937 10.296 41.503 26.244.185-.045.372-.083.556-.13.333-.238.664-.479 1.004-.707-9.279-19.479-30.095-29.803-50.42-26.604a16.25 16.25 0 00-.696-1.742c-.165-.353-.355-.685-.541-1.02a41.076 41.076 0 001.424 4.525l.088-.012zM1546.487 658.12a41.566 41.566 0 01-1.734-5.94 17.469 17.469 0 00-.688-.936 42.153 42.153 0 001.927 6.954l.495-.078z"/><path d="M1547.003 658.039a41.144 41.144 0 01-1.424-4.525 16.635 16.635 0 00-.826-1.334 41.826 41.826 0 001.734 5.94l.516-.081zM1596.232 683.586c-.184.047-.371.085-.556.13.031.065.065.13.097.196.151-.111.306-.218.459-.326zM1596.187 684.845c8.039 18.217 3.308 39.899-11.703 53.058l-.104.092a41.423 41.423 0 002.79 4.416 16.078 16.078 0 00-1.519-3.176c15.292-13.405 20.744-35.624 12.174-55.062-.382.112-.764.226-1.15.327-.162.115-.328.227-.488.345z"/><path d="M1597.824 684.171c-.055-.124-.109-.249-.166-.373-.333.226-.657.465-.984.7.387-.102.768-.215 1.15-.327zM1583.611 738.666a42.835 42.835 0 004.207 6.246 15.676 15.676 0 00-.22-1.059 41.868 41.868 0 01-3.614-5.514l-.373.327zM1597.415 683.249c-.012-.026-.022-.053-.034-.078-.046-.099-.098-.193-.145-.292-.34.229-.671.469-1.004.707.398-.104.789-.223 1.183-.337zM1596.389 684.065c-.164.042-.33.076-.495.117l.079.179c.136-.1.278-.196.416-.296z"/><path d="M1595.773 683.912l.005.011c.04.086.075.173.115.26.165-.041.331-.075.495-.117.351-.252.699-.506 1.058-.747l-.031-.069c-.394.114-.785.233-1.183.337-.153.107-.308.214-.459.325zM1596.674 684.498c-.191.051-.384.098-.576.146l.089.201c.16-.118.326-.23.487-.347zM1583.984 738.34a42.035 42.035 0 003.614 5.514 16.27 16.27 0 00-.43-1.443 41.423 41.423 0 01-2.79-4.416l-.394.345z"/><path d="M1595.973 684.361c.043.094.083.188.125.282.192-.048.385-.095.576-.146.327-.235.651-.475.984-.7l-.036-.083c-.41.12-.818.243-1.233.351-.138.1-.28.196-.416.296z"/><path d="M1597.622 683.715c-.06-.132-.114-.265-.176-.396-.358.241-.707.495-1.058.747.416-.108.824-.231 1.234-.351zM1532.211 650.453a1.772 1.772 0 00-2.311.967l-5.691 13.876a1.773 1.773 0 001.639 2.445c.696 0 1.357-.414 1.64-1.101l5.69-13.876a1.772 1.772 0 00-.967-2.311zM1562.247 746.799a1.77 1.77 0 001.155 2.223l14.302 4.515a1.77 1.77 0 001.067-3.377l-14.303-4.516a1.763 1.763 0 00-2.221 1.155z"/><g><path d="M1543.312 692.047a6.29 6.29 0 01-8.362-3.031 6.282 6.282 0 013.03-8.359 6.28 6.28 0 018.358 3.027 6.287 6.287 0 01-3.026 8.363z"/><path fill="#231F20" d="M1540.65 693.141a6.812 6.812 0 01-6.153-3.913 6.73 6.73 0 01-.234-5.191 6.739 6.739 0 013.507-3.833 6.714 6.714 0 012.875-.645 6.81 6.81 0 016.148 3.913 6.734 6.734 0 01.236 5.189 6.757 6.757 0 01-3.506 3.839 6.73 6.73 0 01-2.873.641zm-.005-12.582c-.851 0-1.676.186-2.45.55-1.401.654-2.464 1.814-2.99 3.269s-.456 3.026.2 4.428a5.81 5.81 0 005.248 3.337c.85 0 1.674-.184 2.449-.547a5.749 5.749 0 002.987-3.271 5.75 5.75 0 00-.202-4.427 5.805 5.805 0 00-5.242-3.339z"/><g><path d="M1545.014 699.911a1.769 1.769 0 01-1.525-2.669 13.466 13.466 0 00.595-12.536 13.463 13.463 0 00-10.006-7.574 1.77 1.77 0 11.578-3.494 17.007 17.007 0 0112.636 9.566 17.004 17.004 0 01-.75 15.833c-.33.562-.921.874-1.528.874z"/></g></g><g><circle cx="1558.051" cy="723.529" r="6.291"/><path fill="#231F20" d="M1558.051 730.32c-3.744 0-6.791-3.047-6.791-6.791s3.047-6.791 6.791-6.791 6.791 3.047 6.791 6.791-3.047 6.791-6.791 6.791zm0-12.582a5.798 5.798 0 00-5.791 5.791c0 3.192 2.598 5.791 5.791 5.791s5.791-2.599 5.791-5.791a5.798 5.798 0 00-5.791-5.791z"/><g><path d="M1562.418 737.092a1.77 1.77 0 01-1.525-2.669 13.469 13.469 0 00.596-12.54 13.468 13.468 0 00-10.01-7.57 1.77 1.77 0 11.577-3.494 17.012 17.012 0 0112.64 9.562 17.007 17.007 0 01-.75 15.837 1.77 1.77 0 01-1.528.874z"/></g></g><g><path d="M1541.146 710.902a1.77 1.77 0 01-.75-3.375l8.293-3.885c.885-.417 1.938-.032 2.354.854s.033 1.939-.854 2.354l-8.293 3.885a1.756 1.756 0 01-.75.167z"/></g><g><path fill="#FFF" d="M1540.018 718.991A8.293 8.293 0 011529 715a8.29 8.29 0 013.991-11.02"/></g><g fill="#231F20"><path d="M1470.34 687.619l4.121 8.696-9.279 4.396a8.826 8.826 0 01-2.369.754 4.81 4.81 0 01-2.369-.215c-.49-.176-.924-.408-1.299-.697s-.695-.591-.964-.904a6.654 6.654 0 01-.671-.933 10.718 10.718 0 01-.415-.771 9.494 9.494 0 01-.698-2.039 7.154 7.154 0 01-.106-2.242l2.771-.064c-.056.672-.041 1.222.042 1.648s.244.892.48 1.391c.145.306.359.606.646.904s.629.513 1.031.646c.758.234 1.605.131 2.55-.316l6.763-3.204-2.771-5.846 2.537-1.204zM1466.331 703.352c.873-.414 1.713-.648 2.517-.708a5.286 5.286 0 012.261.306 5.33 5.33 0 011.895 1.229c.562.558 1.039 1.252 1.435 2.084.412.874.65 1.717.713 2.528a5.36 5.36 0 01-.289 2.265 5.23 5.23 0 01-1.229 1.896c-.563.563-1.257 1.041-2.073 1.429-.875.413-1.715.65-2.519.709a5.262 5.262 0 01-2.259-.306c-.703-.263-1.334-.672-1.896-1.229s-1.04-1.253-1.434-2.085c-.414-.873-.652-1.717-.715-2.526a5.336 5.336 0 01.291-2.266 5.174 5.174 0 011.229-1.896c.562-.566 1.254-1.043 2.073-1.43zm1.321 2.788a4.56 4.56 0 00-1.182.789 3.47 3.47 0 00-.764 1.023c-.18.375-.271.766-.272 1.174s.101.828.304 1.258c.381.806.948 1.338 1.701 1.603.754.263 1.685.131 2.795-.396.957-.453 1.617-1.055 1.983-1.807.365-.751.343-1.563-.071-2.438a3.59 3.59 0 00-.689-.999 2.377 2.377 0 00-.98-.592 3.128 3.128 0 00-1.27-.099c-.469.054-.986.214-1.555.484zM1481.262 710.671l1.992 4.202-5.326 2.524.039.083c.602.121 1.166.397 1.691.827.526.431.968 1.021 1.321 1.77.25.526.411 1.045.483 1.555.07.51.021 1-.146 1.47-.168.472-.481.927-.944 1.365-.463.44-1.096.852-1.9 1.231l-6.471 3.065-1.281-2.705 5.909-2.799c.846-.4 1.37-.871 1.574-1.409.203-.538.167-1.099-.108-1.681a2.602 2.602 0 00-1.139-1.193 2.838 2.838 0 00-1.63-.348l-6.637 3.145-1.282-2.704 12.274-5.816-.71-1.498 2.291-1.084zM1483.135 725.375l1.725 3.642-1.225.964.039.082c.596.108 1.2.383 1.816.821.615.438 1.119 1.074 1.514 1.906.243.513.402 1.027.479 1.543a3.045 3.045 0 01-.141 1.48c-.168.471-.479.93-.939 1.377-.459.445-1.092.858-1.896 1.239l-6.471 3.066-1.281-2.704 5.909-2.8c.846-.4 1.365-.881 1.56-1.439.193-.56.152-1.13-.123-1.713a2.625 2.625 0 00-1.112-1.19c-.499-.282-1.006-.396-1.522-.336l-6.739 3.192-1.282-2.705 8.114-3.844-.71-1.498 2.285-1.083zM1499.5 749.159a37.096 37.096 0 01.948 1.651c.208.387.42.787.634 1.203.214.417.4.791.559 1.124.61 1.29.931 2.446.957 3.471.025 1.023-.174 1.938-.6 2.742s-1.04 1.517-1.842 2.135a15.427 15.427 0 01-2.785 1.676c-.957.454-1.939.801-2.947 1.04s-1.988.274-2.941.106c-.955-.167-1.862-.595-2.725-1.282-.859-.688-1.622-1.731-2.285-3.133a35.6 35.6 0 01-.384-.862 65.284 65.284 0 01-.451-1.086l-.431-1.07c-.137-.342-.234-.61-.292-.804l14.585-6.911zm-.35 5.287a9.407 9.407 0 00-.396-.756c-.14-.24-.246-.419-.317-.537l-9.759 4.624c.013.062.04.148.087.265.047.113.094.231.143.354l.143.353c.044.114.084.206.117.275.381.804.835 1.375 1.359 1.712a3.104 3.104 0 001.684.515 5.55 5.55 0 001.859-.321 16.94 16.94 0 003.48-1.636 5.221 5.221 0 001.354-1.176c.362-.452.588-.979.677-1.582.088-.603-.056-1.3-.431-2.09zM1495.904 765.767c.874-.413 1.713-.649 2.518-.708.805-.06 1.559.043 2.26.306s1.334.672 1.896 1.229c.562.558 1.039 1.253 1.433 2.086.414.873.652 1.716.715 2.527a5.365 5.365 0 01-.289 2.265 5.23 5.23 0 01-1.229 1.895c-.563.564-1.257 1.042-2.074 1.43-.874.414-1.714.649-2.519.709a5.283 5.283 0 01-2.258-.306 5.304 5.304 0 01-1.896-1.229c-.562-.558-1.04-1.253-1.435-2.085-.414-.874-.651-1.717-.715-2.526a5.334 5.334 0 01.291-2.266 5.174 5.174 0 011.229-1.896c.564-.566 1.255-1.043 2.073-1.431zm1.323 2.788c-.459.219-.854.48-1.181.789-.33.31-.584.649-.765 1.024-.181.373-.271.764-.271 1.173s.1.827.303 1.258c.381.804.949 1.338 1.701 1.602.754.264 1.686.132 2.795-.395.957-.454 1.618-1.056 1.984-1.807.365-.751.342-1.563-.072-2.438a3.567 3.567 0 00-.688-.998 2.37 2.37 0 00-.98-.594 3.116 3.116 0 00-1.271-.098c-.47.054-.988.215-1.555.484zM1502.641 790.574a4.244 4.244 0 01-.819-.466 7.762 7.762 0 01-.921-.787 8.706 8.706 0 01-1.743-2.498c-.421-.889-.673-1.74-.755-2.56s0-1.585.25-2.297a5.27 5.27 0 011.199-1.932c.551-.575 1.256-1.066 2.115-1.476.916-.434 1.786-.667 2.61-.7.825-.034 1.586.094 2.282.383.697.289 1.321.72 1.873 1.291a7.586 7.586 0 011.389 2.043c.25.527.438 1.104.566 1.729.127.63.133 1.26.016 1.893-.115.632-.389 1.23-.815 1.8-.427.567-1.077 1.059-1.952 1.473-.596.282-1.272.52-2.033.709l-3.549-7.489c-.438.224-.768.495-.989.812a2.488 2.488 0 00-.425 1.042c-.06.376-.047.771.037 1.18.084.411.226.823.422 1.239.396.833.814 1.471 1.264 1.912.445.441.888.764 1.322.965l-1.344 1.734zm5.297-8.013a3.774 3.774 0 00-.633-.948c-.249-.272-.529-.491-.843-.657s-.649-.266-1.012-.299a2.422 2.422 0 00-1.091.161l2.425 5.117c.692-.327 1.147-.777 1.371-1.351.223-.573.152-1.247-.217-2.023z"/></g><g><path fill="#231F20" d="M1361.414 953.594c-.001 0-.001 0 0 0-6.204 0-11.901-3.632-14.518-9.253l-21.093-45.335 104.871-48.794 21.093 45.333c3.72 7.999.239 17.535-7.757 21.26l-75.856 35.293a15.865 15.865 0 01-6.74 1.496zm-30.295-52.649l19.405 41.708a12.044 12.044 0 0010.889 6.939c1.751 0 3.451-.378 5.054-1.123l75.856-35.293c5.997-2.793 8.606-9.945 5.817-15.945l-19.404-41.705-11.031 5.132 18.703 40.195-75.254 35.015-18.702-40.196-11.333 5.273zm15.101-6.658l16.874 36.267 68-31.639-16.874-36.266-68 31.638z"/></g><g><path fill="#231F20" d="M1388.646 923.101l-20.146-43.304 18.593-8.648 20.146 43.304-18.593 8.648zm-15.042-41.443l16.904 36.341 11.63-5.409-16.904-36.341-11.63 5.409z"/></g><g><path fill="#FFF" d="M1254.355 878.573c-7.399 0-13.421-6.021-13.421-13.42s6.021-13.42 13.421-13.42c7.398 0 13.42 6.021 13.42 13.42s-6.02 13.42-13.42 13.42zm0-23c-5.282 0-9.58 4.298-9.58 9.58s4.298 9.58 9.58 9.58c5.281 0 9.579-4.298 9.579-9.58s-4.296-9.58-9.579-9.58z"/></g><g><path fill="#FFF" d="M1325.075 845.67c-7.399 0-13.42-6.021-13.42-13.42s6.021-13.42 13.42-13.42c7.398 0 13.42 6.021 13.42 13.42s-6.02 13.42-13.42 13.42zm0-23c-5.282 0-9.58 4.298-9.58 9.58s4.298 9.58 9.58 9.58 9.58-4.298 9.58-9.58-4.298-9.58-9.58-9.58z"/></g><g><path fill="#FFF" d="M1395.796 812.766c-7.399 0-13.42-6.021-13.42-13.42 0-7.398 6.021-13.42 13.42-13.42s13.42 6.021 13.42 13.42-6.021 13.42-13.42 13.42zm0-23c-5.282 0-9.58 4.299-9.58 9.58 0 5.282 4.298 9.58 9.58 9.58s9.58-4.298 9.58-9.58-4.298-9.58-9.58-9.58z"/></g></g></svg>