<svg xmlns="http://www.w3.org/2000/svg" width="883.13" height="785.51" viewBox="99.24 170.99 883.13 785.51" xml:space="preserve"><path d="M396.99 194.88a6.46 6.46 0 1 0 0 12.92 6.46 6.46 0 0 0 0-12.93z"/><path d="M867.77 171H338.46a20.66 20.66 0 0 0-20.66 20.65V320.5l100.27 201.64h449.7c11.4 0 20.65-9.24 20.65-20.65V191.65a20.65 20.65 0 0 0-20.65-20.66zM397 210.36a9.05 9.05 0 0 1 0-18.08 9.05 9.05 0 0 1 0 18.08z"/><circle fill="#FFF" cx="444.98" cy="308.8" r="67.3"/><path fill="#231F20" d="M444.98 378a69.28 69.28 0 0 1-69.2-69.2 69.28 69.28 0 0 1 69.2-69.2 69.28 69.28 0 0 1 69.2 69.2 69.28 69.28 0 0 1-69.2 69.2zm0-134.59a65.46 65.46 0 0 0-65.4 65.4 65.46 65.46 0 0 0 65.4 65.39 65.46 65.46 0 0 0 65.39-65.4 65.47 65.47 0 0 0-65.4-65.39z"/><path fill="#2E9AFF" d="M502.49 292.65c-.77 0-1.52.05-2.27.14a57.54 57.54 0 0 0-110.5 0 19.97 19.97 0 1 0 2.6 39.2 57.52 57.52 0 0 0 105.3 0 19.98 19.98 0 0 0 24.84-19.37 19.97 19.97 0 0 0-19.97-19.97z"/><path fill="none" d="M502.49 292.65c-.77 0-1.52.05-2.27.14a57.53 57.53 0 0 0-54.52-41.48 50.7 50.7 0 0 1-61.5 41.63 19.96 19.96 0 1 0 8.13 39.05 57.52 57.52 0 0 0 105.29 0 19.98 19.98 0 0 0 24.84-19.37 19.97 19.97 0 0 0-19.97-19.97z"/><path d="M502.49 290.75c-.3 0-.6 0-.9.02a59.7 59.7 0 0 0-56.62-41.38 59.7 59.7 0 0 0-56.63 41.38c-.3-.02-.59-.02-.88-.02a21.9 21.9 0 0 0-21.87 21.87 21.9 21.9 0 0 0 25.64 21.55 59.47 59.47 0 0 0 53.74 34.05 59.47 59.47 0 0 0 53.74-34.05 21.9 21.9 0 0 0 25.65-21.55 21.9 21.9 0 0 0-21.87-21.87zm0 39.93c-1.5 0-2.97-.18-4.41-.54l-1.56-.39-.65 1.47a55.66 55.66 0 0 1-50.9 33.19c-22.02 0-42-13.03-50.9-33.19l-.64-1.47-1.57.4a18.08 18.08 0 0 1-22.47-17.52c0-9.95 8.08-18.04 18.01-18.07 2.67.44 5.4.68 8.2.68 24.7 0 45.26-18.6 49.76-42.03h.21c4.51 23.43 25.07 42.03 49.76 42.03 2.7 0 5.35-.23 7.94-.64 9.6.42 17.28 8.33 17.28 18.02 0 9.96-8.1 18.06-18.06 18.06z"/><path d="M389.6 322.56a1.9 1.9 0 0 1-1.41-.61l-12.25-13.32a1.9 1.9 0 0 1 2.81-2.58L391 319.37a1.9 1.9 0 0 1-1.4 3.2zm108.37 0a1.9 1.9 0 0 1-1.4-3.2l12.24-13.3a1.9 1.9 0 0 1 2.81 2.57l-12.25 13.32c-.37.4-.89.61-1.4.61zm-78.57-16.29c-6.7 0-12.94 3.3-16.73 8.82a1.9 1.9 0 1 0 3.15 2.16 16.48 16.48 0 0 1 6.82-5.71 7.59 7.59 0 1 0 13.6.04 16.49 16.49 0 0 1 6.74 5.67 1.9 1.9 0 1 0 3.14-2.16 20.3 20.3 0 0 0-16.73-8.82zm66.25 8.82a20.3 20.3 0 0 0-33.46 0 1.9 1.9 0 1 0 3.14 2.16 16.5 16.5 0 0 1 6.83-5.72 7.59 7.59 0 1 0 13.6.04 16.5 16.5 0 0 1 6.74 5.67 1.9 1.9 0 0 0 3.15-2.15zm-41.07 12.83a1.9 1.9 0 0 1-1.91-1.9v-11.05a1.9 1.9 0 0 1 3.81 0v11.05a1.9 1.9 0 0 1-1.9 1.9z"/><path fill="#FFF" d="M454.77 332.3a10 10 0 1 1-19.98 0"/><path fill="#FFF" d="M860.82 508.38H412.27v-2.83h448.55a11.5 11.5 0 0 0 11.5-11.5V199.09a11.5 11.5 0 0 0-11.5-11.5h-515.4a11.5 11.5 0 0 0-11.5 11.5v148.96h-2.83V199.08c0-7.9 6.43-14.33 14.32-14.33h515.4c7.9 0 14.33 6.43 14.33 14.33v294.98c0 7.9-6.42 14.32-14.32 14.32z"/><path fill="#FFF" d="M333.42 214.48h540.26v2.83H333.42zm474.96 83.81H550.12a1.41 1.41 0 1 1 0-2.83h258.26a1.41 1.41 0 0 1 0 2.83zm-79.47 23.03H550.12a1.42 1.42 0 0 1 0-2.83h178.8a1.41 1.41 0 0 1 0 2.83zm52.99 23.04H550.11a1.42 1.42 0 0 1 0-2.83h231.77a1.41 1.41 0 0 1 0 2.83zM675.93 367.4H550.12a1.41 1.41 0 0 1 0-2.84h125.81a1.42 1.42 0 0 1 0 2.83zM552.19 255h9.4v10.02c0 .85-.12 1.65-.33 2.4a4.7 4.7 0 0 1-2.34 2.85 6.18 6.18 0 0 1-2.3.68 9.18 9.18 0 0 1-2.94-.2 7.02 7.02 0 0 1-2.03-.84l1.1-2.47a6 6 0 0 0 1.48.65 6 6 0 0 0 1.43.16 3 3 0 0 0 1.06-.2 2.3 2.3 0 0 0 1-.63 3.4 3.4 0 0 0 .79-2.38v-7.3h-6.32V255zm12.19 10.1c0-.94.15-1.77.43-2.5a5.07 5.07 0 0 1 3.1-3.03c.72-.26 1.53-.4 2.43-.4.94 0 1.79.15 2.52.44a4.97 4.97 0 0 1 3.03 3.08c.27.73.4 1.53.4 2.42a7 7 0 0 1-.43 2.51 5.14 5.14 0 0 1-3.09 3.02c-.72.27-1.53.4-2.43.4-.94 0-1.79-.15-2.53-.43a4.98 4.98 0 0 1-3.03-3.08 7 7 0 0 1-.4-2.42zm3.01 0c0 .5.07.96.2 1.38.14.42.33.78.59 1.1a2.64 2.64 0 0 0 2.15.99c.87 0 1.58-.28 2.13-.84.54-.55.82-1.43.82-2.62 0-1.04-.26-1.87-.77-2.5a2.63 2.63 0 0 0-2.18-.96c-.42 0-.81.06-1.17.19-.36.13-.67.33-.94.62-.26.28-.47.64-.61 1.08-.14.43-.22.95-.22 1.57zm9.68-10.1h4.54v5.75h.09c.35-.48.84-.86 1.43-1.15.6-.28 1.31-.42 2.12-.42.56 0 1.09.07 1.57.22a2.97 2.97 0 0 1 2.03 2.14 7 7 0 0 1 .3 2.2v6.98h-2.92v-6.38c0-.91-.2-1.57-.58-1.97-.4-.4-.9-.61-1.53-.61a2.69 2.69 0 0 0-2.51 1.8v7.16h-2.92v-13.25h-1.62V255zm13.74 4.5h3.94l.33 1.47h.1a4.5 4.5 0 0 1 3.79-1.8c.55 0 1.07.08 1.56.23.48.15.9.4 1.25.74.34.35.6.82.8 1.4.21.6.32 1.33.32 2.2v6.98h-2.92v-6.38c0-.91-.2-1.57-.62-1.97-.41-.4-.94-.61-1.56-.61-.56 0-1.06.16-1.52.48-.46.33-.77.73-.94 1.2v7.28h-2.91v-8.76h-1.62v-2.47zm27.81-4.5a39.83 39.83 0 0 1 4.4-.22c1.4 0 2.54.2 3.46.6.91.4 1.64.96 2.16 1.67.54.72.9 1.55 1.12 2.52a14.92 14.92 0 0 1 0 6.19 7.03 7.03 0 0 1-1.14 2.64 5.78 5.78 0 0 1-2.27 1.86c-.97.47-2.2.7-3.72.7a25.65 25.65 0 0 1-2.06-.07l-1.12-.07a9.5 9.5 0 0 1-.83-.07V255zm4.51 2.52a9.77 9.77 0 0 0-1.43.09v10.53c.06.01.14.03.27.03l.37.02.37.03h.3a3.9 3.9 0 0 0 2.07-.47c.51-.33.9-.75 1.15-1.27a5.5 5.5 0 0 0 .5-1.78 18.18 18.18 0 0 0 0-3.75 5.1 5.1 0 0 0-.47-1.68 3.25 3.25 0 0 0-1.1-1.26 3.6 3.6 0 0 0-2.03-.5zm8.63 7.58a7 7 0 0 1 .42-2.5 5.14 5.14 0 0 1 3.1-3.03c.72-.26 1.53-.4 2.43-.4.94 0 1.78.15 2.53.44a5.04 5.04 0 0 1 3.03 3.08c.26.73.4 1.53.4 2.42 0 .94-.15 1.78-.44 2.51a5.1 5.1 0 0 1-3.09 3.02c-.73.27-1.53.4-2.43.4a7 7 0 0 1-2.53-.43 4.95 4.95 0 0 1-3.03-3.08 7.11 7.11 0 0 1-.4-2.42zm3 0c0 .5.07.96.2 1.38.14.42.34.78.6 1.1a2.63 2.63 0 0 0 2.15.99c.87 0 1.57-.28 2.12-.84.55-.55.82-1.43.82-2.62 0-1.04-.26-1.87-.77-2.5a2.62 2.62 0 0 0-2.18-.96c-.42 0-.81.06-1.16.19a2.3 2.3 0 0 0-.94.62 2.9 2.9 0 0 0-.62 1.08 5.1 5.1 0 0 0-.21 1.57zm21.68 4.43c-.2.18-.44.36-.75.53a7.31 7.31 0 0 1-2.44.84 8.77 8.77 0 0 1-4.13-.27 5.12 5.12 0 0 1-3.12-3.04 6.92 6.92 0 0 1-.42-2.48c0-1 .16-1.86.47-2.6a5.17 5.17 0 0 1 3.21-2.96 7.43 7.43 0 0 1 4.15-.15c.6.15 1.16.41 1.68.78.5.36.92.85 1.24 1.47.32.61.48 1.4.48 2.33 0 .65-.07 1.34-.22 2.1h-8.09c.02.47.12.88.3 1.2.2.34.44.6.75.81.3.21.65.37 1.05.46a6.55 6.55 0 0 0 3.48-.17 4.3 4.3 0 0 0 1.4-.76l.96 1.91zm-4.85-8.02a3.31 3.31 0 0 0-2.04.63c-.27.2-.5.46-.69.77-.18.3-.28.65-.31 1.03h5.52c0-.75-.2-1.34-.61-1.77-.4-.44-1.04-.66-1.87-.66zm-301.94-50.53a9.66 9.66 0 0 1 0-19.3 9.66 9.66 0 0 1 0 19.3zm0-15.5a5.85 5.85 0 1 0 .01 11.7 5.85 5.85 0 0 0-.01-11.7z"/><path fill="#2E9AFF" d="M373.32 210.98a9.66 9.66 0 0 1 0-19.3 9.66 9.66 0 0 1 0 19.3zm0-15.49a5.85 5.85 0 1 0 .01 11.7 5.85 5.85 0 0 0-.01-11.7z"/><path fill="#FFF" d="M614.38 439.88H382.61a1.41 1.41 0 1 1 0-2.82h231.77a1.41 1.41 0 1 1 0 2.82zm-105.96 23.04h-125.8a1.41 1.41 0 1 1 0-2.83h125.8a1.41 1.41 0 0 1 0 2.83z"/><path fill="#2E9AFF" d="M962.7 328.3a28.1 28.1 0 1 1-37.12-42.17 28.1 28.1 0 0 1 37.13 42.18z"/><path fill="#FFF" d="M944.16 336.83a29.63 29.63 0 0 1-.02-59.23 29.63 29.63 0 0 1 .02 59.23zm-.02-56.19a26.55 26.55 0 0 0-26.51 24.89 26.58 26.58 0 0 0 44.08 21.64 26.59 26.59 0 0 0-17.57-46.52z"/><path fill="#2E9AFF" d="M931.83 316.95a48.67 48.67 0 0 0 .15-48.69 48.67 48.67 0 0 0-42.25 24.21"/><path fill="#FFF" d="m933.14 317.72-2.62-1.53a47.36 47.36 0 0 0 .58-46.4 47.35 47.35 0 0 0-40.05 23.45l-2.63-1.53a50.4 50.4 0 0 1 43.46-24.96h.99l.43.76a50.4 50.4 0 0 1-.16 50.2z"/><path fill="#FFF" d="m911.85 305.88-2.63-1.53 21.44-36.84 2.63 1.53z"/><path fill="#2E9AFF" d="M932.44 317.65c16.6-7 34.9-4.1 48.32 6.03a48.65 48.65 0 0 1-29.38 38.83"/><path fill="#FFF" d="m951.97 363.91-1.18-2.8a47.35 47.35 0 0 0 28.34-36.75 47.37 47.37 0 0 0-46.1-5.31l-1.19-2.8a50.4 50.4 0 0 1 49.83 6.21l.7.53-.11.88a50.38 50.38 0 0 1-30.29 40.04z"/><path fill="#FFF" d="m942.07 341.66-1.18-2.8 39.25-16.57 1.19 2.8z"/><circle fill="#2E9AFF" cx="642.23" cy="365.85" r="39.33"/><path fill="#FFF" d="M642.23 406.7a40.9 40.9 0 0 1-40.85-40.86A40.9 40.9 0 0 1 642.23 325a40.9 40.9 0 0 1 40.85 40.85 40.9 40.9 0 0 1-40.85 40.86zm0-78.67a37.85 37.85 0 0 0-37.81 37.81 37.85 37.85 0 0 0 37.81 37.82 37.86 37.86 0 0 0 37.81-37.82 37.85 37.85 0 0 0-37.81-37.8z"/><circle fill="#2E9AFF" cx="846.42" cy="597.84" r="39.33"/><path fill="#FFF" d="M846.42 638.69c-22.53 0-40.86-18.33-40.86-40.86s18.33-40.85 40.86-40.85 40.85 18.32 40.85 40.85-18.33 40.86-40.85 40.86zm0-78.67c-20.85 0-37.82 16.97-37.82 37.82s16.97 37.8 37.82 37.8 37.81-16.96 37.81-37.8-16.96-37.82-37.81-37.82z"/><path fill="#2E9AFF" d="M860.48 613.82c-103.53 91.12-239.3 106.1-303.23 33.44-63.95-72.65-31.86-205.42 71.67-296.54 103.53-91.13 239.3-106.1 303.24-33.44C996.1 389.93 964 522.7 860.48 613.82z"/><path fill="#FFF" d="M670.17 694.81c-47.82 0-87.26-16.1-114.06-46.55-31.27-35.52-40.96-86.2-27.3-142.7 13.6-56.31 48.8-111.7 99.1-155.98 57.66-50.75 127.4-79.85 191.32-79.85 47.82 0 87.27 16.1 114.07 46.54 31.26 35.52 40.96 86.2 27.3 142.7-13.6 56.32-48.8 111.71-99.1 155.99-57.67 50.75-127.4 79.85-191.33 79.85zm149.06-422.04c-63.2 0-132.2 28.83-189.3 79.09-102.74 90.42-134.83 222.48-71.54 294.4 26.2 29.77 64.86 45.51 111.78 45.51 63.2 0 132.2-28.82 189.31-79.1 49.84-43.86 84.7-98.7 98.17-154.4 13.42-55.52 3.96-105.23-26.63-139.98-26.21-29.78-64.87-45.52-111.8-45.52z"/><ellipse transform="rotate(-41.35 744.66 482.29)" fill="#FFF" cx="744.69" cy="482.31" rx="210.52" ry="141.55"/><path fill="#2E9AFF" d="M361.7 885.56c70.16-72.27 177.4-172.33 223.41-219.72a33.04 33.04 0 0 0-43.52-49.43v-.01c-52.84 39.6-165.7 133.28-246.3 193.7a50.42 50.42 0 1 0 66.4 75.46z"/><path fill="#FFF" d="M325.41 902.5a51.98 51.98 0 0 1-51.86-55.24 51.6 51.6 0 0 1 20.83-38.37c44.52-33.38 99.26-77.2 147.56-115.86 38.61-30.91 75.08-60.1 98.74-77.85l1.21-.9.03.03a34.56 34.56 0 0 1 45.43 5.7 34.72 34.72 0 0 1 .07 45.55l.04.03-1.27 1.31c-20.6 21.22-54.2 53.7-89.77 88.08-44.48 43-94.89 91.72-133.64 131.64a51.85 51.85 0 0 1-37.37 15.9zm215.87-283.97c-23.64 17.79-59.5 46.5-97.44 76.87-48.32 38.68-103.08 82.52-147.64 115.93a48.87 48.87 0 0 0-19.61 36.12 48.94 48.94 0 0 0 48.82 52.02 48.85 48.85 0 0 0 35.19-14.96c38.79-39.95 89.22-88.7 133.7-131.7 34.84-33.67 67.78-65.51 88.44-86.71l1.27-1.32a31.65 31.65 0 0 0 1.05-42.77 31.53 31.53 0 0 0-42.55-4.38l-1.22.9z"/><path fill="#2E9AFF" d="M348.36 874.3v.02l.1-.1.02-.02L574.1 655.97a18.26 18.26 0 0 0-24.1-27.38L304.88 824.67l-.03.02-.1.07v.01a33.04 33.04 0 1 0 43.6 49.54z"/><path fill="#FFF" d="M325.4 885.13a34.57 34.57 0 0 1-22.66-60.66l-.08-.1 1.27-.89 75-59.99L549.04 627.4a19.77 19.77 0 0 1 26.1 29.66l-225.58 218.2-1.8 1.8-.05-.12a34.54 34.54 0 0 1-22.32 8.18zm-19.6-59.26-.1.09c-.38.3-.76.62-1.14.94a31.53 31.53 0 1 0 42.74 46.31l1.67-1.62v.02l224.07-216.74a16.75 16.75 0 0 0-22.09-25.1l-174.9 139.9-70.24 56.2z"/><path fill="#2E9AFF" d="M398.55 824.52a28.79 28.79 0 0 1 2.59-40.62 28.78 28.78 0 0 1-40.63-2.6"/><path fill="#FFF" d="M398.55 826.04c-.43 0-.85-.17-1.15-.51a30.37 30.37 0 0 1-3.4-35.35 30.2 30.2 0 0 1-13.81 2.35 30.11 30.11 0 0 1-20.82-10.23 1.52 1.52 0 0 1 2.28-2 27.08 27.08 0 0 0 18.73 9.2 27.06 27.06 0 0 0 19.75-6.75 1.52 1.52 0 0 1 2.01 2.29 27.3 27.3 0 0 0-2.45 38.48 1.52 1.52 0 0 1-1.14 2.52z"/><path fill="#2E9AFF" d="M486.32 680a21.7 21.7 0 0 1-1.95 30.64A21.7 21.7 0 0 1 515 712.6"/><path fill="#FFF" d="M515 714.12c-.42 0-.84-.18-1.14-.52a20.2 20.2 0 0 0-28.49-1.82 1.52 1.52 0 1 1-2-2.28c4.04-3.56 6.46-8.49 6.8-13.87s-1.43-10.58-4.99-14.62a1.52 1.52 0 1 1 2.28-2.01 23.05 23.05 0 0 1 5.75 16.82 23.16 23.16 0 0 1-2.62 9.35 23.26 23.26 0 0 1 25.56 6.42 1.52 1.52 0 0 1-1.15 2.52z"/><path fill="#2E9AFF" d="M321.48 814.27a29.83 29.83 0 0 1-2.69 42.1 29.83 29.83 0 0 1 42.1 2.68"/><path fill="#FFF" d="M360.9 860.57c-.42 0-.84-.17-1.14-.52a28.2 28.2 0 0 0-19.46-9.55c-7.54-.48-14.82 2-20.5 7a1.52 1.52 0 1 1-2.01-2.28 28.1 28.1 0 0 0 9.55-19.44c.48-7.55-2-14.83-7-20.5a1.52 1.52 0 0 1 2.28-2.02 31.14 31.14 0 0 1 7.75 22.7 31.2 31.2 0 0 1-4.3 14 31.12 31.12 0 0 1 14.43-2.49c8.35.53 16 4.29 21.54 10.58a1.52 1.52 0 0 1-1.14 2.52z"/><path fill="#2E9AFF" d="M404.19 791.66a7.84 7.84 0 1 1-10.36-11.77 7.84 7.84 0 0 1 10.36 11.77z"/><path fill="#FFF" d="M399 795.13a9.37 9.37 0 1 1 0-18.73 9.37 9.37 0 0 1 0 18.74zm0-15.68a6.33 6.33 0 1 0 0 12.66 6.33 6.33 0 0 0 0-12.66z"/><path fill="#2E9AFF" d="M489.34 716.72a7.84 7.84 0 1 1-10.37-11.78 7.84 7.84 0 0 1 10.37 11.77z"/><path fill="#FFF" d="M484.16 720.2a9.36 9.36 0 1 1 0-18.73 9.36 9.36 0 0 1 0 18.72zm0-15.7a6.32 6.32 0 1 0 0 12.65 6.32 6.32 0 0 0 0-12.64z"/><path fill="#2E9AFF" d="M324.33 862.03a7.85 7.85 0 1 1-10.35-11.79 7.85 7.85 0 0 1 10.35 11.79z"/><path fill="#FFF" d="M319.15 865.5a9.36 9.36 0 1 1 0-18.73 9.36 9.36 0 0 1 0 18.73zm0-15.68a6.32 6.32 0 1 0 0 12.64 6.32 6.32 0 0 0 0-12.64zm86.05-67.99a1.52 1.52 0 0 1-1-2.66l72.22-63.56a1.52 1.52 0 1 1 2.01 2.28l-72.22 63.57c-.29.25-.64.37-1 .37z"/><circle fill="#FFF" cx="825.71" cy="410.98" r="44.25"/><path fill="#231F20" d="M825.71 456.75a45.82 45.82 0 0 1-45.77-45.77c0-25.24 20.53-45.77 45.77-45.77s45.78 20.53 45.78 45.77a45.82 45.82 0 0 1-45.78 45.77zm0-88.5A42.78 42.78 0 0 0 783 410.98a42.78 42.78 0 0 0 42.72 42.73 42.78 42.78 0 0 0 42.73-42.73 42.78 42.78 0 0 0-42.73-42.73z"/><path d="M859.55 431.06a39.53 39.53 0 0 0-4.31-46.07 39.35 39.35 0 0 0-45.14-10.12l-.26-.3a14.66 14.66 0 1 0-20.32 20.98 39.37 39.37 0 0 0 46.9 53.29 14.65 14.65 0 1 0 23.4-17.49l-.27-.3z"/><path fill="#2E9AFF" d="M854.24 430.03c-10.67-12.12-10.46-30.4-1.05-42.78-.04-.05.04 0 0-.05-13.47 7.77-31.46 6.02-42.13-6.1-.56-.64-1.09-1.3-1.6-1.96l-.35-.47-.74-1.06a11.63 11.63 0 0 0-21.12 5.9 11.53 11.53 0 0 0 5.01 10.3l1.05.74-.53 1.16a36.33 36.33 0 0 0 43.9 49.88l1.23-.39.58 1.14a11.61 11.61 0 0 0 10.33 6.3 11.58 11.58 0 0 0 11.58-10.88 11.54 11.54 0 0 0-3.8-9.35l-.95-.86-.09-.11c-.45-.46-.9-.92-1.32-1.41zm-55.67-52.9-1.26 11.82a1.52 1.52 0 0 1-3.02-.32l1.26-11.83a1.52 1.52 0 0 1 3.03.32zm57.73 65.45c-.02.83-.7 1.49-1.52 1.49h-.03l-11.9-.27a1.52 1.52 0 0 1-1.48-1.55 1.5 1.5 0 0 1 1.55-1.48l11.9.26c.83.02 1.5.71 1.48 1.55z"/><path d="m854.4 386.36-.22-.27-.63.79.86-.52zm-57.18-10.91a1.53 1.53 0 0 0-1.67 1.35l-1.26 11.83a1.52 1.52 0 0 0 3.03.33l1.25-11.83a1.52 1.52 0 0 0-1.35-1.68zm45.7 65.32a1.5 1.5 0 0 0-1.55 1.49c-.02.83.65 1.53 1.49 1.55l11.89.26h.03a1.52 1.52 0 0 0 .04-3.04l-11.9-.26zm-28.02-36a4.99 4.99 0 1 1-6.6-7.49 4.99 4.99 0 0 1 6.6 7.49z"/><path d="M817.55 410.55a1.52 1.52 0 0 1-1.47-1.9 10.57 10.57 0 0 0-11.51-13.07c-.85.1-1.6-.5-1.7-1.33-.1-.83.5-1.59 1.33-1.68a13.58 13.58 0 0 1 14.83 16.84c-.18.68-.8 1.14-1.48 1.14zm18.86 18.67a5 5 0 1 1-6.59-7.5 5 5 0 0 1 6.6 7.5z"/><path d="M839.07 435a1.52 1.52 0 0 1-1.48-1.9 10.55 10.55 0 0 0-11.51-13.07 1.52 1.52 0 1 1-.37-3.02 13.6 13.6 0 0 1 14.83 16.84c-.17.69-.8 1.15-1.47 1.15zm-22.02-15.22a1.52 1.52 0 0 1-1-2.66l5.44-4.8a1.52 1.52 0 1 1 2.01 2.28l-5.45 4.8a1.5 1.5 0 0 1-1 .38z"/><path fill="#FFF" d="M818.38 426.02a6.57 6.57 0 1 1-8.68-9.87"/><path fill="#2E9AFF" d="M719.65 582a18.42 18.42 0 0 1-26-1.66l-53.62-60.92a18.41 18.41 0 1 1 27.65-24.34L721.3 556a18.41 18.41 0 0 1-1.65 26z"/><path fill="#FFF" d="M707.48 588.11a19.95 19.95 0 0 1-14.97-6.77l-53.63-60.92a19.97 19.97 0 0 1 14.96-33.12c5.73 0 11.19 2.47 14.98 6.77L722.44 555c3.52 4 5.27 9.13 4.94 14.44a19.9 19.9 0 0 1-19.9 18.67zm-53.63-97.76a16.9 16.9 0 0 0-12.68 28.06l53.62 60.93a16.9 16.9 0 1 0 25.37-22.33l-53.63-60.93a16.89 16.89 0 0 0-12.68-5.73z"/><path fill="#FFF" d="m653.2 509.51.04.05 5.85-2.9 1.15 1.31-8.16 3.75-1.27-1.44 4.7-7.68 1.24 1.41-3.56 5.5zm2.15 3.89 1.43 1.62 2.59-2.27-1.43-1.63 1.02-.9 2.47 2.83-3.6 3.17 1.5 1.7-1 .9-4-4.53 1.02-.9zm6.09-2.88a.87.87 0 0 1 .68-.22c.26.02.5.16.72.41.23.26.34.53.34.8s-.1.5-.28.66a.8.8 0 0 1-.69.2c-.26-.05-.5-.2-.73-.46-.22-.25-.33-.5-.33-.75s.1-.47.29-.64zm2.11 13.25a2.77 2.77 0 0 1-1.07-.38 4.17 4.17 0 0 1-1.26-1.03c-.35-.4-.6-.8-.77-1.2a2.85 2.85 0 0 1 .12-2.38c.2-.38.49-.74.87-1.07.4-.36.81-.6 1.23-.75a2.87 2.87 0 0 1 2.38.25 4.15 4.15 0 0 1 1.56 1.65 2.33 2.33 0 0 1 .13 2.01c-.13.36-.4.7-.78 1.05a5.8 5.8 0 0 1-.94.66l-2.93-3.32a1.6 1.6 0 0 0-.38.56c-.07.2-.1.4-.07.6.03.2.1.4.2.6a3.55 3.55 0 0 0 1.33 1.37c.29.16.56.27.81.3l-.43 1.08zm1.55-4.89a2 2 0 0 0-.47-.4c-.17-.1-.34-.17-.53-.2a1.38 1.38 0 0 0-1.1.23l2 2.27c.31-.27.48-.57.5-.9.03-.32-.1-.65-.4-1zm4.86 6.09-1.41 2.47.04.05.86-.62 2.67-1.67.95 1.08-5.44 3.12-1.06-1.2 1.38-2.13-.05-.05-2.34 1.03-1.1-1.25 3.77-5.02 1.05 1.2-2.15 2.7-.51.57.04.05 2.62-1.1.68.77zm9.16 13.11.9 1.01-1.85 1.63a3.06 3.06 0 0 1-1-.46 4.9 4.9 0 0 1-1.78-2.15 3.3 3.3 0 0 1-.26-1.48 3.8 3.8 0 0 1 .45-1.58c.28-.54.73-1.08 1.34-1.62a5.26 5.26 0 0 1 1.84-1.11c.6-.2 1.15-.25 1.67-.2.52.07 1 .24 1.43.5a5.35 5.35 0 0 1 2.19 2.76l-1.92 1.69-.9-1.02 1.06-.93a4.9 4.9 0 0 0-.48-.63c-.2-.24-.45-.42-.72-.55a1.96 1.96 0 0 0-.9-.18c-.3 0-.65.1-1 .25-.36.16-.73.4-1.11.74-.33.3-.6.6-.8.92-.2.33-.34.65-.4.98-.06.33-.05.65.04.96.09.32.25.62.5.9.18.2.37.39.58.54l1.12-.97zm5.56-2.34 1.64 1.86-2.35 2.08.02.03c.33-.02.66.04 1 .18.33.15.64.39.93.72.2.23.36.48.48.73a1.7 1.7 0 0 1-.14 1.61c-.17.3-.44.6-.8.91l-2.87 2.52-1.05-1.2 2.62-2.3c.37-.33.58-.65.6-.96a1.1 1.1 0 0 0-.3-.84c-.2-.23-.46-.38-.76-.45-.31-.06-.6-.05-.9.06l-2.93 2.6-1.07-1.2 5.45-4.8-.59-.66 1.02-.9zm3.44 8.26a6.55 6.55 0 0 1 2.17 1.65c.28.32.48.63.6.92a1.67 1.67 0 0 1-.1 1.58 3.1 3.1 0 0 1-.57.68c-.31.27-.6.5-.83.67l-.62.49c-.13.1-.27.25-.42.4-.07.08-.14.17-.22.24l.53.6-1.02.9-1.37-1.55.53-.67-.05-.05c-.3.05-.61.02-.95-.1a2.3 2.3 0 0 1-1.02-.72c-.4-.46-.6-.93-.59-1.42.01-.48.22-.9.62-1.26.27-.23.52-.38.8-.45.27-.07.55-.07.82.01.28.07.56.21.84.42.29.2.57.45.84.77.1.1.19.23.29.36l.35.48c.07-.04.14-.1.2-.15l.18-.14c.23-.2.34-.42.32-.65a1.31 1.31 0 0 0-.37-.73 3.48 3.48 0 0 0-.86-.73 6.5 6.5 0 0 0-.8-.43l.7-1.12zm-2 4.56c.26.29.5.47.74.52.23.05.44.05.63.01l.55-.49c-.04-.06-.1-.17-.2-.3-.1-.14-.2-.28-.32-.42a2.23 2.23 0 0 0-.71-.54.86.86 0 0 0-.38-.06.62.62 0 0 0-.33.15.7.7 0 0 0-.28.5c0 .19.1.4.3.63zm6.56-.01 1.42 1.61-.48.68.03.03a2.5 2.5 0 0 1 2.1.91c.21.23.37.47.49.73.1.25.16.51.14.77-.01.27-.1.55-.28.85-.17.3-.43.6-.78.92l-2.87 2.52-1.06-1.2 2.62-2.3c.38-.34.57-.66.59-.98.02-.31-.09-.6-.31-.85-.2-.23-.45-.38-.75-.45s-.57-.06-.83.05l-2.99 2.63-1.05-1.2 3.6-3.16-.59-.67 1-.9zm4.87 5.53 1.42 1.62-.48.67.03.04c.32-.03.67.02 1.06.15a3.01 3.01 0 0 1 1.53 1.48c.11.26.16.52.15.78-.02.27-.11.55-.28.84-.18.3-.44.6-.8.92l-2.86 2.53-1.06-1.2 2.62-2.32c.37-.33.57-.64.59-.96.02-.32-.09-.6-.32-.86-.2-.23-.44-.38-.74-.45s-.57-.05-.83.05l-2.99 2.64-1.06-1.2 3.6-3.17-.58-.66 1-.9zm4.99 13.99a2.95 2.95 0 0 1-1.08-.4 4.25 4.25 0 0 1-1.26-1.02c-.36-.4-.6-.8-.77-1.2a2.75 2.75 0 0 1 .12-2.39c.2-.38.49-.73.87-1.06.4-.36.82-.61 1.23-.75.42-.14.83-.18 1.23-.14.4.05.79.18 1.15.39a4.15 4.15 0 0 1 1.56 1.66 2.37 2.37 0 0 1 .14 2.01c-.14.35-.4.7-.78 1.04a6.4 6.4 0 0 1-.94.66l-2.93-3.32c-.19.19-.32.37-.39.56-.06.2-.09.4-.06.6.02.2.09.4.2.6a3.47 3.47 0 0 0 1.33 1.37c.29.16.55.26.8.3l-.42 1.09zm1.54-4.9a2.5 2.5 0 0 0-.47-.4 1.55 1.55 0 0 0-1.09-.22c-.19.04-.36.12-.53.25l2 2.27c.3-.27.47-.57.5-.9.03-.32-.11-.65-.41-1zm5.67 1.05 1.73 1.97-4.27 3.75c-.47.42-.75.77-.83 1.05-.08.27-.01.55.22.8.17.2.32.33.48.42.14.1.3.16.49.22l-.44 1.19-.46-.15a2.56 2.56 0 0 1-.87-.5c-.14-.12-.3-.27-.44-.44-.51-.58-.74-1.14-.7-1.69.04-.55.33-1.06.87-1.54l3.87-3.4-.67-.77 1.02-.9z"/><path fill="#231F20" d="M797.6 530.03a1.5 1.5 0 0 1-1.15-.52l-90.48-102.8a1.52 1.52 0 1 1 2.28-2.01l90.49 102.8a1.52 1.52 0 0 1-1.14 2.53zm-27.98-3.43a1.5 1.5 0 0 1-1.15-.53l-62.65-71.17a1.52 1.52 0 1 1 2.29-2l62.64 71.17a1.52 1.52 0 0 1-1.13 2.52zm-4.78 22.91a1.5 1.5 0 0 1-1.15-.52l-81.2-92.26a1.52 1.52 0 1 1 2.28-2l81.2 92.26a1.52 1.52 0 0 1-1.13 2.52zm-32.62-8.71c-.43 0-.85-.18-1.15-.52L687 490.2a1.52 1.52 0 1 1 2.28-2.01l44.09 50.08a1.52 1.52 0 0 1-1.14 2.52zm-56.6 49.8c-.42 0-.84-.17-1.14-.51L630.4 540a1.52 1.52 0 1 1 2.28-2l44.08 50.08a1.52 1.52 0 0 1-1.14 2.52zm-23.16 1.68c-.43 0-.84-.18-1.15-.52l-25.52-29a1.52 1.52 0 1 1 2.29-2l25.51 29a1.52 1.52 0 0 1-1.13 2.52z"/><path d="m748.83 424.76 5.04 5.73-6.11 5.38a6.8 6.8 0 0 1-1.65 1.09 3.81 3.81 0 0 1-3 .1 5.75 5.75 0 0 1-1.65-1.04 7.57 7.57 0 0 1-1.46-1.9 5.63 5.63 0 0 1-.56-1.68l2.1-.65c.1.52.23.93.39 1.24.16.31.38.63.67.96.18.2.4.38.7.55.27.16.58.25.92.26.63.02 1.25-.25 1.88-.8l4.45-3.92-3.39-3.85 1.67-1.47zm.38 12.87a5.7 5.7 0 0 1 1.77-1.09 4.2 4.2 0 0 1 3.5.26c.55.3 1.06.73 1.55 1.28.51.57.87 1.16 1.1 1.77a4.18 4.18 0 0 1-.25 3.5c-.3.56-.73 1.07-1.27 1.54a5.6 5.6 0 0 1-1.77 1.1 4.18 4.18 0 0 1-3.5-.26 5.99 5.99 0 0 1-1.55-1.27 5.74 5.74 0 0 1-1.1-1.78 4.16 4.16 0 0 1 .25-3.5 5.7 5.7 0 0 1 1.27-1.55zm1.62 1.84c-.3.27-.55.55-.73.86a2.33 2.33 0 0 0-.31 1.89 2.56 2.56 0 0 0 2.16 1.75c.63.03 1.3-.27 2.04-.91a3.2 3.2 0 0 0 1.12-1.82c.1-.65-.09-1.27-.6-1.84a2.93 2.93 0 0 0-.74-.6 1.87 1.87 0 0 0-.88-.24c-.3-.01-.64.06-.98.2-.35.14-.71.38-1.08.7zm11.37.47 2.43 2.77-3.5 3.1.04.05c.49-.04.98.05 1.47.27a4.37 4.37 0 0 1 2.1 2.14 2.45 2.45 0 0 1-.2 2.4c-.26.43-.65.88-1.19 1.35l-4.26 3.75-1.57-1.78 3.9-3.43c.55-.49.85-.96.9-1.42.03-.45-.12-.87-.46-1.25a2.22 2.22 0 0 0-2.45-.57l-4.37 3.85-1.56-1.78 8.08-7.12-.86-.98 1.5-1.35zm4.64 10.81 2.1 2.4-.72 1 .06.06c.47-.05 1 .02 1.56.22s1.08.58 1.57 1.13c.3.33.53.7.7 1.07.17.38.23.76.22 1.16-.03.4-.17.81-.42 1.25s-.65.9-1.17 1.36l-4.27 3.76-1.57-1.79 3.9-3.42c.56-.5.85-.98.87-1.44s-.13-.9-.46-1.28a2.1 2.1 0 0 0-1.11-.67 2 2 0 0 0-1.23.08l-4.45 3.9-1.56-1.77 5.35-4.7-.87-1 1.5-1.32zm17.68 14.55.42.4.66.66.75.77.67.74a6.97 6.97 0 0 1 1.49 2.43c.24.78.29 1.52.14 2.23-.15.7-.46 1.38-.94 2.03a12.5 12.5 0 0 1-3.77 3.32 5.8 5.8 0 0 1-2.22.73 4.73 4.73 0 0 1-2.36-.38 7 7 0 0 1-2.43-1.9 21.61 21.61 0 0 1-1.06-1.3c-.2-.24-.39-.48-.56-.72a6.6 6.6 0 0 1-.4-.55l9.6-8.45zm.88 4.11a8.73 8.73 0 0 0-.82-.83l-6.43 5.66.12.19.19.23c.06.09.12.17.19.24l.14.19c.47.53.94.86 1.41 1 .48.15.94.16 1.4.03s.9-.34 1.35-.65a12.4 12.4 0 0 0 2.3-2c.34-.38.6-.78.77-1.2.18-.43.24-.88.17-1.36a2.92 2.92 0 0 0-.79-1.5zm0 9.34c.58-.5 1.17-.87 1.77-1.09a4.22 4.22 0 0 1 3.5.26c.55.3 1.07.73 1.55 1.28.5.57.87 1.17 1.1 1.77.23.6.32 1.2.27 1.79a4.2 4.2 0 0 1-.52 1.71 5.83 5.83 0 0 1-1.27 1.55 5.9 5.9 0 0 1-1.76 1.1 4.2 4.2 0 0 1-3.5-.27 5.91 5.91 0 0 1-1.55-1.27 5.78 5.78 0 0 1-1.1-1.77 4.09 4.09 0 0 1 .25-3.5c.3-.57.73-1.08 1.26-1.56zm1.62 1.84c-.3.27-.54.55-.73.86-.18.3-.3.62-.35.95-.06.32-.04.64.05.95.09.3.26.6.5.9.47.52 1.02.8 1.65.84.64.04 1.32-.27 2.05-.91.63-.56 1-1.15 1.12-1.81a2.15 2.15 0 0 0-.6-1.84 2.86 2.86 0 0 0-.74-.61 1.88 1.88 0 0 0-.87-.24c-.32 0-.65.06-.99.2a4.2 4.2 0 0 0-1.09.71zm8.95 15.61a3.3 3.3 0 0 1-.73-.18 6.63 6.63 0 0 1-2.75-1.93 6.02 6.02 0 0 1-1.14-1.78 4.11 4.11 0 0 1 .18-3.54c.3-.56.73-1.1 1.3-1.6a5.5 5.5 0 0 1 1.83-1.1 4.21 4.21 0 0 1 3.53.37 5.87 5.87 0 0 1 2.32 2.45 4 4 0 0 1 .43 1.44c.05.5-.02 1.02-.23 1.55a4.2 4.2 0 0 1-1.17 1.55c-.4.35-.86.67-1.4.98l-4.34-4.94a2.1 2.1 0 0 0-.58.84 2 2 0 0 0-.1.89c.04.3.14.6.29.9a5.37 5.37 0 0 0 1.98 2.03c.43.24.84.39 1.22.44l-.64 1.63zm2.28-7.27a2.59 2.59 0 0 0-1.48-.9 2 2 0 0 0-1.63.35l2.97 3.37a2 2 0 0 0 .75-1.33c.05-.48-.16-.98-.6-1.5z"/><path fill="#2E9AFF" d="M909.9 297.76a28.78 28.78 0 0 1-2.6 40.63 28.8 28.8 0 0 1 40.64 2.6"/><path fill="#FFF" d="M947.94 342.5c-.42 0-.84-.17-1.14-.51a27.3 27.3 0 0 0-38.48-2.47l-.01.01a1.52 1.52 0 1 1-2.01-2.28l.01-.02a27.08 27.08 0 0 0 9.2-18.72 27.09 27.09 0 0 0-6.75-19.75 1.52 1.52 0 1 1 2.28-2 30.1 30.1 0 0 1 7.5 21.94 30.2 30.2 0 0 1-4.1 13.41 30.37 30.37 0 0 1 34.64 7.86c.56.63.5 1.6-.14 2.15a1.5 1.5 0 0 1-1 .38z"/><path fill="#2E9AFF" d="M605.16 373.68a33 33 0 0 1 46.58 2.98 33 33 0 0 1 2.97-46.58"/><path fill="#FFF" d="M651.74 378.17c-.42 0-.84-.17-1.14-.51a31.27 31.27 0 0 0-21.63-10.62 31.27 31.27 0 0 0-22.8 7.78 1.52 1.52 0 1 1-2.01-2.28 34.27 34.27 0 0 1 25-8.54c5.72.36 11.13 2.1 15.87 5.01a34.59 34.59 0 0 1 8.67-40.08 1.52 1.52 0 0 1 2.01 2.28 31.53 31.53 0 0 0-2.83 44.44 1.51 1.51 0 0 1-1.14 2.52z"/><path fill="#2E9AFF" d="M834.4 634.14a33 33 0 0 0 2.97-46.58 33 33 0 0 0 46.58 2.97"/><path fill="#FFF" d="M834.4 635.66a1.52 1.52 0 0 1-1-2.67 31.52 31.52 0 0 0 2.83-44.43 1.52 1.52 0 1 1 2.28-2.01 31.29 31.29 0 0 0 21.63 10.62c8.4.53 16.5-2.23 22.81-7.79a1.52 1.52 0 1 1 2 2.29 34.28 34.28 0 0 1-25 8.54 34.33 34.33 0 0 1-15.87-5.02 34.58 34.58 0 0 1-8.67 40.08c-.3.26-.65.39-1 .39z"/><path fill="#2E9AFF" d="M896.7 291.75a7.84 7.84 0 1 1-10.37-11.77 7.84 7.84 0 0 1 10.36 11.77z"/><path fill="#FFF" d="M891.51 295.22a9.36 9.36 0 1 1 0-18.72 9.36 9.36 0 0 1 0 18.72zm0-15.68a6.32 6.32 0 1 0 0 12.64 6.32 6.32 0 0 0 0-12.64z"/><circle fill="#2E9AFF" cx="956.94" cy="360.2" r="7.84"/><path fill="#FFF" d="M956.94 369.56a9.37 9.37 0 0 1 0-18.72 9.37 9.37 0 0 1 0 18.73zm0-15.68a6.33 6.33 0 1 0 .02 12.66 6.33 6.33 0 0 0-.02-12.66zM281.79 690.1a25.37 25.37 0 0 1-22.86-14.16l-157-315.76a25.34 25.34 0 0 1-1.35-19.48 25.34 25.34 0 0 1 12.83-14.72l145.5-72.35a25.26 25.26 0 0 1 11.34-2.67c9.75 0 18.51 5.42 22.85 14.15l157.01 315.76a25.54 25.54 0 0 1-11.48 34.2l-145.5 72.35a25.23 25.23 0 0 1-11.34 2.67zm-11.54-425c-1.76 0-3.46.4-5.05 1.2l-145.5 72.34a11.32 11.32 0 0 0-5.71 6.56 11.3 11.3 0 0 0 .6 8.69l157 315.75a11.31 11.31 0 0 0 15.24 5.12l145.5-72.34a11.4 11.4 0 0 0 5.12-15.25l-157-315.75a11.31 11.31 0 0 0-10.2-6.32z"/><path fill="#FFF" d="m239.42 264.16 4.3 19.23c1.08 4.88-1.69 10.68-6.16 12.9l-72.94 36.28c-4.47 2.22-10.77.92-14-2.89l-12.75-15.03"/><circle fill="#FFF" cx="232.27" cy="380.96" r="44.54"/><path d="M280.58 359.76a14.57 14.57 0 0 0-19.62-6.59l-.42.22a39.62 39.62 0 0 0-28.3-11.92c-6.13 0-12.03 1.4-17.55 4.14a39.67 39.67 0 0 0-21.47 41.25l-.43.21a14.51 14.51 0 0 0-7.35 8.44c-1.24 3.7-.97 7.67.77 11.17a14.55 14.55 0 0 0 13.11 8.12 14.48 14.48 0 0 0 8.57-2.78 39.65 39.65 0 0 0 24.4 8.42h.01a39.52 39.52 0 0 0 39.45-40.18 14.65 14.65 0 0 0 8.83-20.5zm-65.13-12.94"/><path fill="#2E9AFF" d="m216.3 347.98-.14.07a33.54 33.54 0 0 1-19.88 39.92l.13.7-1.12.4a11.73 11.73 0 0 0-7.17 7.33c-1 3-.78 6.2.62 9.02a11.74 11.74 0 0 0 15.83 5.32c.87-.44 1.68-.98 2.42-1.6l.9-.78.92.76a36.8 36.8 0 0 0 23.49 8.5 36.69 36.69 0 0 0 36.58-38.36l-.05-1.2 1.17-.26a11.82 11.82 0 0 0-2.53-23.34 11.69 11.69 0 0 0-6.42 1.91l-1 .64-.22.16c-4.93 2.85-10.88 3.85-16.99 3.85-10.8 0-20.4-5.11-26.54-13.04zm-12.04 56.82a1.42 1.42 0 0 1-1.83.82l-11.18-4.28a1.41 1.41 0 1 1 1.01-2.64l11.18 4.28c.73.28 1.1 1.1.82 1.82zm61.55-32.83 3.33-11.5a1.41 1.41 0 0 1 2.72.79l-3.34 11.5a1.42 1.42 0 0 1-2.71-.79z"/><path d="M215.95 347.14c-14.52 7.23-22.65 24.4-19.75 40.36l.1 1.19c12.32-4.96 21.03-17.75 21.03-31.85 0-3.05-.41-7-1.17-9.8l-.2.1z"/><path d="m216.04 347.65.12.4.14-.07-.26-.33zm-.29-.98-.3.14m-12.01 56.17-11.18-4.28a1.41 1.41 0 1 0-1 2.64l11.17 4.28c.17.06.34.1.5.1a1.42 1.42 0 0 0 .51-2.74zm63.33-29.26a1.42 1.42 0 0 0 1.75-.96l3.34-11.5a1.41 1.41 0 1 0-2.72-.79l-3.33 11.5a1.4 1.4 0 0 0 .96 1.75z"/><circle cx="218.93" cy="392.1" r="5.02"/><path d="M210.3 398.74c-.07 0-.14 0-.2-.02a1.41 1.41 0 0 1-1.2-1.6 13.57 13.57 0 0 1 20.04-9.97 1.41 1.41 0 1 1-1.37 2.47 10.76 10.76 0 0 0-15.88 7.9c-.1.7-.7 1.22-1.4 1.22z"/><circle cx="248.28" cy="377.51" r="5.02"/><path d="M239.65 384.14h-.2a1.41 1.41 0 0 1-1.2-1.6 13.58 13.58 0 0 1 20.04-9.98 1.41 1.41 0 0 1-1.37 2.47 10.74 10.74 0 0 0-15.88 7.9c-.1.7-.7 1.21-1.4 1.21zm-2.55 8.55a1.4 1.4 0 0 1-1.26-.78l-3.26-6.56a1.42 1.42 0 0 1 2.53-1.26l3.26 6.55a1.41 1.41 0 0 1-1.27 2.05z"/><path fill="#FFF" d="M245 391.99a6.61 6.61 0 1 1-11.86 5.89"/><path fill="#2E9AFF" d="M371.13 528.42c4.56 9.17.82 20.3-8.35 24.86l-73.15 36.37a18.54 18.54 0 1 1-16.5-33.2l73.14-36.38a18.55 18.55 0 0 1 24.86 8.35z"/><path fill="#FFF" d="M281.4 592.85a19.7 19.7 0 0 1-17.75-10.98 19.66 19.66 0 0 1-1.04-15.12 19.66 19.66 0 0 1 9.95-11.42l73.15-36.38a19.6 19.6 0 0 1 8.8-2.07 19.7 19.7 0 0 1 17.74 10.99 19.65 19.65 0 0 1 1.04 15.1 19.67 19.67 0 0 1-9.95 11.43l-73.15 36.38a19.63 19.63 0 0 1-8.8 2.07zm73.11-73.46c-2.68 0-5.26.61-7.68 1.81l-73.15 36.38a17.16 17.16 0 0 0-8.69 9.97 17.16 17.16 0 0 0 .91 13.2 17.2 17.2 0 0 0 15.5 9.59 17 17 0 0 0 7.67-1.81l73.15-36.38a17.18 17.18 0 0 0 8.7-9.97 17.16 17.16 0 0 0-.92-13.2 17.2 17.2 0 0 0-15.49-9.59z"/><path fill="#FFF" d="m283.4 574.28.06-.03-1.3-6.44 1.58-.78 1.53 8.91-1.73.86-6.25-6.56 1.7-.85 4.42 4.9zm4.34-1.09 1.95-.97-1.54-3.1-1.95.97-.6-1.22 3.38-1.7 2.15 4.33 2.05-1.02.6 1.22-5.43 2.7-.6-1.21zm-1.21-6.67a.88.88 0 0 1-.04-.71c.1-.25.29-.44.59-.6.31-.16.6-.2.86-.13a.84.84 0 0 1 .58 1.17c-.1.24-.31.44-.62.6-.3.15-.58.2-.83.12a.8.8 0 0 1-.54-.45zm13.44 1.38a2.2 2.2 0 0 1-.25.44 4.15 4.15 0 0 1-1 1.01 4.66 4.66 0 0 1-2.1.89 2.82 2.82 0 0 1-2.29-.74 3.82 3.82 0 0 1-.81-1.12 3.62 3.62 0 0 1-.4-1.4 2.85 2.85 0 0 1 .85-2.24 4.02 4.02 0 0 1 2.01-1.1c.34-.06.68-.07 1.02-.02.34.06.66.2.97.42.31.23.58.57.82 1.03.15.32.29.68.4 1.09l-3.99 1.98c.13.23.27.4.45.52.17.12.36.19.56.22.2.03.41.02.63-.03a3.62 3.62 0 0 0 1.68-.94c.23-.24.4-.48.5-.71l.95.7zm-4.36-2.77c-.2.1-.36.22-.5.36a1.4 1.4 0 0 0-.35.46 1.34 1.34 0 0 0-.05 1.13l2.72-1.36a1.4 1.4 0 0 0-.74-.72c-.3-.12-.67-.07-1.08.13zm7.18-3.15 2.03 2.02.06-.03-.38-1-.94-3.03 1.3-.65 1.64 6.1-1.45.73-1.72-1.9-.05.03.4 2.55-1.5.74-3.92-4.96 1.44-.72 2.07 2.8.43.64.05-.02-.38-2.83.92-.47zm15.11-5.52 1.23-.6 1.1 2.22c-.15.28-.39.56-.7.84a4.93 4.93 0 0 1-2.55 1.18 3.4 3.4 0 0 1-2.93-.97 5.76 5.76 0 0 1-1.23-1.72 5.3 5.3 0 0 1-.61-2.08 3.68 3.68 0 0 1 1.1-2.94 5.38 5.38 0 0 1 3.25-1.41l1.15 2.3-1.22.6-.63-1.26c-.25.08-.5.18-.74.3a2.5 2.5 0 0 0-.72.56c-.2.23-.33.5-.4.82-.08.31-.08.66-.02 1.05a4.9 4.9 0 0 0 1.12 2.29c.26.28.55.5.85.64a2.11 2.11 0 0 0 1.95-.04c.24-.12.47-.27.68-.42l-.67-1.36zm-.83-6.01 2.24-1.11 1.41 2.83.05-.02a2 2 0 0 1 .43-.91 3.13 3.13 0 0 1 1.76-1.01c.28-.04.54-.02.8.07s.5.25.74.49.47.58.68 1l1.71 3.45-1.44.72-1.56-3.15c-.23-.44-.48-.72-.77-.83-.3-.1-.6-.07-.9.08-.28.14-.49.34-.64.62-.14.28-.2.57-.17.88l1.76 3.53-1.44.72-3.25-6.53-.8.4-.6-1.23zm8.93-1.21a6.65 6.65 0 0 1 2.16-1.68c.4-.19.74-.3 1.06-.35a1.68 1.68 0 0 1 1.51.5c.2.2.36.44.51.74.19.38.33.7.44.98a7.88 7.88 0 0 0 .78 1.52l.72-.36.6 1.23-1.86.92-.52-.69-.05.03c-.04.3-.15.6-.33.9-.2.3-.52.57-.98.8a2.1 2.1 0 0 1-1.53.21 1.69 1.69 0 0 1-1.07-.94c-.15-.3-.23-.6-.23-.88s.07-.55.22-.8c.15-.26.35-.5.62-.72.27-.22.6-.42.97-.6l.43-.2.56-.22a1.17 1.17 0 0 0-.09-.23l-.1-.21c-.14-.28-.32-.44-.55-.49a1.3 1.3 0 0 0-.8.18c-.38.19-.69.4-.94.64a8.6 8.6 0 0 0-.62.67l-.9-.95zm3.92 3.13c.35-.17.58-.37.69-.59s.17-.41.17-.6l-.33-.67-.35.12a4.3 4.3 0 0 0-.88.45c-.13.1-.23.2-.31.3a.82.82 0 0 0-.16.36c-.02.12 0 .24.06.36.1.21.25.35.42.4.18.05.4.01.69-.13zm1.68-6.38 1.94-.96.53.64.05-.02c.05-.32.19-.65.42-.98a2.6 2.6 0 0 1 1-.84c.28-.13.56-.22.83-.27.28-.05.54-.02.8.07a2 2 0 0 1 .75.49c.24.23.47.57.69 1l1.7 3.45-1.43.72-1.56-3.15c-.23-.45-.5-.73-.8-.82-.3-.1-.6-.07-.91.08a1.4 1.4 0 0 0-.63.6c-.15.28-.2.55-.17.83l1.79 3.59-1.44.72-2.15-4.32-.8.4-.6-1.23zm6.65-3.3 1.94-.97.53.65.04-.02a2.61 2.61 0 0 1 1.43-1.81c.28-.14.55-.23.83-.27.28-.05.54-.03.8.06a2 2 0 0 1 .74.48c.25.25.48.58.7 1.02l1.7 3.44-1.43.71-1.57-3.14c-.22-.45-.48-.73-.79-.82-.3-.1-.6-.07-.92.08a1.43 1.43 0 0 0-.8 1.43l1.8 3.59-1.45.72-2.14-4.32-.8.4-.61-1.23zm14.89-1.23c-.05.13-.13.28-.24.44a5.02 5.02 0 0 1-1 1.01 4.75 4.75 0 0 1-2.1.89 2.78 2.78 0 0 1-2.29-.74 3.73 3.73 0 0 1-.81-1.11 3.64 3.64 0 0 1-.4-1.4 2.87 2.87 0 0 1 .85-2.25 4.08 4.08 0 0 1 2.01-1.09c.34-.07.67-.08 1.02-.02.34.06.66.19.97.41.31.23.58.57.81 1.04.16.32.3.68.4 1.08l-3.98 1.99c.12.22.27.4.44.52a1.44 1.44 0 0 0 1.2.19 3.63 3.63 0 0 0 1.68-.94c.23-.24.4-.48.5-.72l.94.7zm-4.36-2.77c-.19.1-.36.21-.5.35-.15.14-.26.3-.34.46a1.4 1.4 0 0 0-.15.55c-.02.2.01.39.1.58l2.72-1.35a1.4 1.4 0 0 0-.74-.73c-.31-.11-.67-.06-1.09.14zm2.49-5.24 2.36-1.18 2.55 5.12c.28.56.55.93.8 1.08.25.15.53.15.84 0a1.98 1.98 0 0 0 .87-.79l1.04.73-.27.41a2.82 2.82 0 0 1-.71.72c-.15.1-.34.21-.54.31-.7.35-1.3.43-1.83.25-.52-.19-.94-.6-1.27-1.25l-2.31-4.65-.92.46-.6-1.21z"/><path fill="#231F20" d="M215.86 501.54a1.41 1.41 0 0 1-.63-2.68l123.44-61.38a1.41 1.41 0 1 1 1.26 2.54l-123.44 61.37c-.2.1-.42.15-.63.15zm27.39 7.44a1.41 1.41 0 0 1-.63-2.68l85.45-42.49a1.41 1.41 0 1 1 1.26 2.54l-85.45 42.49c-.2.1-.42.14-.63.14zm-4.27 23.18a1.41 1.41 0 0 1-.63-2.68l110.78-55.08a1.41 1.41 0 1 1 1.26 2.53L239.6 532c-.2.1-.42.15-.63.15zm33.72 4.29a1.41 1.41 0 0 1-.63-2.68l60.13-29.9a1.42 1.42 0 0 1 1.26 2.53l-60.13 29.9c-.2.1-.42.15-.63.15zm33.78 67.95a1.41 1.41 0 0 1-.63-2.68l60.13-29.9a1.41 1.41 0 1 1 1.26 2.53l-60.13 29.9c-.2.1-.42.14-.63.14zm20.95 10.37a1.41 1.41 0 0 1-.63-2.68l34.81-17.31a1.41 1.41 0 1 1 1.26 2.53l-34.8 17.31c-.21.1-.43.15-.64.15z"/><path d="m225.75 459.3 6.88-3.41 3.65 7.34c.3.62.52 1.25.63 1.88a3.87 3.87 0 0 1-.67 2.94 4.99 4.99 0 0 1-1.44 1.34 7.3 7.3 0 0 1-2.22.93c-.56.13-1.15.18-1.8.12l-.09-2.21c.54.03.98.02 1.32-.06.34-.08.7-.2 1.1-.4.24-.13.48-.3.71-.53.24-.23.4-.52.5-.83.18-.6.08-1.29-.29-2.03l-2.66-5.36-4.62 2.3-1-2.01zm12.62 2.97a5.65 5.65 0 0 1-.6-2 4 4 0 0 1 1.16-3.33 5.7 5.7 0 0 1 1.64-1.18 5.36 5.36 0 0 1 2-.6 4.13 4.13 0 0 1 3.35 1.14c.46.44.85.99 1.17 1.63.35.7.55 1.36.6 2a4.02 4.02 0 0 1-1.16 3.34 5.7 5.7 0 0 1-1.64 1.18c-.69.35-1.36.55-2 .6-.65.07-1.26 0-1.82-.19a4.19 4.19 0 0 1-1.53-.95c-.46-.45-.85-1-1.17-1.64zm2.2-1.1c.18.36.4.68.65.93.25.27.53.46.83.6a2.18 2.18 0 0 0 1.94-.06 2.3 2.3 0 0 0 1.25-1.39c.2-.6.08-1.34-.35-2.22a3.22 3.22 0 0 0-1.48-1.56 2.15 2.15 0 0 0-1.94.1c-.3.14-.57.34-.79.56a1.9 1.9 0 0 0-.45.79c-.1.3-.11.65-.06 1.02.04.37.18.78.4 1.23zm3.42-10.93 3.32-1.65 2.1 4.21.06-.03c.09-.48.3-.94.63-1.36a4 4 0 0 1 1.4-1.08c.41-.2.82-.35 1.23-.4s.8-.04 1.18.08c.37.13.74.37 1.1.74.36.36.7.86 1.01 1.5l2.55 5.11-2.14 1.07-2.33-4.68c-.33-.67-.71-1.08-1.15-1.23a1.7 1.7 0 0 0-1.34.1 2.25 2.25 0 0 0-1.19 2.24l2.61 5.26-2.13 1.06-4.83-9.71-1.19.59-.9-1.82zm11.71-1.72 2.87-1.43.8.96.06-.03a3.82 3.82 0 0 1 2.12-2.7c.4-.2.82-.33 1.23-.4.41-.07.8-.04 1.19.09.37.12.74.37 1.1.73.37.35.71.85 1.03 1.5l2.54 5.1-2.14 1.07-2.32-4.68c-.33-.67-.72-1.07-1.17-1.22-.45-.15-.9-.1-1.37.12-.4.2-.72.5-.93.9-.22.4-.3.82-.25 1.23l2.65 5.33-2.14 1.06-3.19-6.42-1.19.6-.9-1.8zm18.73-13.42.5-.3a25.37 25.37 0 0 1 1.76-1c.33-.19.63-.34.89-.47a7 7 0 0 1 2.76-.81c.81-.04 1.55.1 2.2.43a5.3 5.3 0 0 1 1.72 1.44 12.32 12.32 0 0 1 2.26 4.53c.2.8.25 1.59.13 2.36a4.88 4.88 0 0 1-.98 2.19 6.98 6.98 0 0 1-2.47 1.87 20.1 20.1 0 0 1-1.54.7 52.42 52.42 0 0 1-1.49.6l-5.74-11.54zm4.23.2a8.88 8.88 0 0 0-1.02.59l3.84 7.72.2-.07.29-.12.27-.12c.1-.04.17-.06.22-.1a3.2 3.2 0 0 0 1.35-1.1c.26-.43.39-.88.39-1.36-.01-.48-.1-.97-.29-1.48a14.01 14.01 0 0 0-1.36-2.75 4.1 4.1 0 0 0-.96-1.06 2.48 2.48 0 0 0-1.27-.52 2.95 2.95 0 0 0-1.66.37zm9.09 2.42a5.62 5.62 0 0 1-.6-2 4.2 4.2 0 0 1 1.15-3.34 5.9 5.9 0 0 1 1.65-1.18 5.76 5.76 0 0 1 2-.6 4.14 4.14 0 0 1 3.34 1.15c.47.44.86.98 1.18 1.63.35.7.55 1.36.6 2 .06.65 0 1.24-.2 1.81-.2.56-.52 1.07-.96 1.53s-.98.85-1.64 1.17c-.7.35-1.36.55-2 .6a4.08 4.08 0 0 1-3.34-1.15 5.8 5.8 0 0 1-1.19-1.62zm2.2-1.1c.18.36.4.67.65.93.25.27.52.46.83.6a2.18 2.18 0 0 0 1.94-.06 2.33 2.33 0 0 0 1.25-1.39c.2-.6.08-1.34-.36-2.22a3.2 3.2 0 0 0-1.47-1.56 2.15 2.15 0 0 0-1.94.1c-.31.14-.57.34-.8.56-.2.22-.36.48-.45.79s-.1.64-.06 1.01a4 4 0 0 0 .41 1.24zm17.49-4.65c-.07.2-.2.42-.36.66a5.85 5.85 0 0 1-1.47 1.5 7.04 7.04 0 0 1-3.14 1.32c-.65.08-1.26.02-1.83-.16-.58-.2-1.1-.5-1.57-.93a5.7 5.7 0 0 1-1.2-1.67 5.42 5.42 0 0 1-.6-2.07 4.26 4.26 0 0 1 1.27-3.35 6.3 6.3 0 0 1 2.98-1.62c.5-.1 1-.12 1.51-.04a3.5 3.5 0 0 1 2.65 2.15c.24.48.44 1.02.6 1.62l-5.92 2.94a1.9 1.9 0 0 0 1.5 1.1c.3.04.61.02.94-.05a5.47 5.47 0 0 0 2.49-1.39c.35-.36.6-.72.75-1.07l1.4 1.06zm-6.47-4.11a2.71 2.71 0 0 0-1.26 1.21 2.03 2.03 0 0 0-.08 1.68l4.05-2.02c-.27-.55-.64-.9-1.1-1.07s-1-.1-1.61.2z"/><path fill="#231F20" d="M572.04 941.94a44.01 44.01 0 0 1-40.74-27.6c-8.8-21.9 1.28-46.84 22.52-56.33l-.02-.03 1.4-.56 162.66-65.4 1.04 2.6L556.25 860c-20.75 8.44-30.78 32.34-22.36 53.3 8.43 20.95 32.21 31.26 53.03 22.98l.52-.2 162.13-65.19 1.05 2.6-163.18 65.6-.01-.01a42.99 42.99 0 0 1-15.4 2.85zm134.26-6.67-.54-1.09 1.18-.6-.49-1.21 96.42-38.77v.03l87.28-35.1a19 19 0 0 0 10.35-24.7 19.01 19.01 0 0 0-24.57-10.65l-5.94 2.38-.98-2.44 6.75-2.71.02.01a21.66 21.66 0 0 1 27.17 12.44 21.66 21.66 0 0 1-11.81 28.12l-92.08 37.03v-.03l-92.75 37.29z"/><path fill="#231F20" d="M900.37 833.56 868.81 755a19.02 19.02 0 0 0-24.57-10.66l-6.52 2.62-.98-2.45 6.52-2.61a21.66 21.66 0 0 1 28 12.12l31.56 78.56-2.45.98z"/><path fill="#2E9AFF" d="m853.46 843.43-80.1 32.2a21.09 21.09 0 0 1-27.44-11.7l7.38 18.35a21.08 21.08 0 0 0 27.43 11.7l80.1-32.2a21.1 21.1 0 0 0 11.7-27.44l-7.37-18.35a21.1 21.1 0 0 1-11.7 27.44z"/><path fill="#FFF" d="M772.87 896.82c-9.2 0-17.36-5.52-20.8-14.06l-7.37-18.34 2.44-.98.01.02a19.68 19.68 0 0 0 25.72 10.94l80.1-32.2a19.8 19.8 0 0 0 10.98-25.7v-.02l2.43-.98 7.38 18.34A22.44 22.44 0 0 1 861.33 863l-80.1 32.2a22.26 22.26 0 0 1-8.36 1.62zm-21.78-23.56 3.43 8.52a19.69 19.69 0 0 0 25.73 10.97l80.1-32.2a19.8 19.8 0 0 0 10.97-25.73l-3.44-8.56a22.44 22.44 0 0 1-13.92 18.39l-80.1 32.2a22.31 22.31 0 0 1-8.36 1.62c-5.41 0-10.47-1.9-14.4-5.2z"/><path fill="#FFF" d="M765.5 878.48c-9.2 0-17.37-5.52-20.8-14.06l-32.2-80.1a22.44 22.44 0 0 1 12.43-29.15l80.1-32.2a22.32 22.32 0 0 1 29.15 12.43l32.2 80.1a22.43 22.43 0 0 1-12.43 29.16l-80.1 32.2a22.35 22.35 0 0 1-8.35 1.62zm47.88-154.5c-2.52 0-5 .48-7.37 1.43l-80.1 32.2a19.8 19.8 0 0 0-10.97 25.73l32.2 80.1a19.7 19.7 0 0 0 18.35 12.4c2.53 0 5.01-.48 7.37-1.43l80.1-32.2a19.8 19.8 0 0 0 10.98-25.73l-32.2-80.1a19.7 19.7 0 0 0-18.36-12.4z"/><circle fill="#FFF" cx="799.42" cy="793.39" r="36.77"/><path d="M829.63 781.16a32.47 32.47 0 0 0-32.6-20.28l-.14-.36a12.03 12.03 0 0 0-15.72-6.67 12.1 12.1 0 0 0-5.77 17.51 32.62 32.62 0 0 0 22.09 54.57 12.04 12.04 0 0 0 16.32 8.57 12 12 0 0 0 6.58-6.49 11.99 11.99 0 0 0 .08-9.25l-.15-.35a32.75 32.75 0 0 0 9.3-37.25z"/><path fill="#2E9AFF" d="m827.57 782.34-.05-.12a27.7 27.7 0 0 1-31.6-18.89l-.59.06-.26-.95a9.7 9.7 0 0 0-13.03-6.42 9.76 9.76 0 0 0-4.21 14.78l.58.8-.7.7a30.28 30.28 0 0 0 20.79 51.34l.98.03.14.97a9.71 9.71 0 0 0 13.3 7.69 9.68 9.68 0 0 0 5.32-5.23 9.68 9.68 0 0 0-.42-8.46l-.47-.86.43-.33a27.7 27.7 0 0 1 9.79-35.1zm-40.22-23-4.23 8.94a1.17 1.17 0 0 1-2.11-1l4.23-8.94a1.17 1.17 0 0 1 2.11 1zm27.28 67.2a1.17 1.17 0 0 1-1.5.69l-9.26-3.48c-.6-.23-.91-.9-.69-1.5.23-.6.9-.91 1.5-.69l9.26 3.48c.6.23.91.9.69 1.5z"/><path d="M822.34 782.7c1.77 0 3.5-.17 5.18-.48l-.06-.18a30.14 30.14 0 0 0-31.14-18.75l-1 .09c3.54 11.23 14.62 19.33 27.02 19.33zm5.23-.36a27.66 27.66 0 0 0-12.5 23.15c0 4.28.57 8.7 2.3 12.32l.76-.64a30.39 30.39 0 0 0 9.44-34.83zm.28-.18-.33.06.05.12.28-.18zm.83-.19-.1-.27-.73.46.83-.2zm-41.88-24.18a1.17 1.17 0 0 0-1.56.55l-4.23 8.94a1.17 1.17 0 0 0 1.05 1.66c.44 0 .86-.24 1.06-.66l4.23-8.94c.28-.58.03-1.28-.55-1.55zm27.14 67.25-9.25-3.48a1.17 1.17 0 1 0-.82 2.2l9.25 3.47a1.17 1.17 0 0 0 .82-2.19zm-21.3-39.49a4.15 4.15 0 1 1-3.1-7.7 4.15 4.15 0 0 1 3.1 7.7z"/><path d="M793.55 790.78a1.17 1.17 0 0 1-.97-1.8 8.86 8.86 0 0 0-5.5-13.58 1.17 1.17 0 0 1 .5-2.28 11.22 11.22 0 0 1 6.94 17.14c-.22.34-.6.52-.97.52zm9.25 19.85a4.14 4.14 0 1 1-3.12-7.68 4.14 4.14 0 0 1 3.12 7.68z"/><path d="M803.7 815.87a1.2 1.2 0 0 1-.65-.2 1.16 1.16 0 0 1-.32-1.61 8.87 8.87 0 0 0-5.5-13.57 1.18 1.18 0 0 1-.88-1.4c.14-.62.76-1.02 1.4-.88a11.2 11.2 0 0 1 6.92 17.13c-.22.34-.6.53-.97.53zm-13.08-17.99c-.46 0-.9-.27-1.08-.72-.24-.6.04-1.28.64-1.53l5.6-2.26a1.17 1.17 0 1 1 .88 2.16l-5.6 2.27c-.15.06-.3.09-.44.09z"/><path fill="#FFF" d="M789.53 803.17a5.46 5.46 0 1 1-4.1-10.13"/><path d="m744.77 780.08 2.4 5.87-6.26 2.56a5.6 5.6 0 0 1-1.59.42 3.13 3.13 0 0 1-2.38-.74 4.2 4.2 0 0 1-1.25-1.79 4.93 4.93 0 0 1-.38-2.84l1.82.06c-.06.43-.07.8-.03 1.08.04.28.13.6.27.93.09.21.22.41.4.62.18.2.4.36.65.46.5.19 1.06.15 1.7-.12l4.55-1.87-1.61-3.94 1.71-.7zm-3.19 10.22a4.71 4.71 0 0 1 1.68-.39 3.41 3.41 0 0 1 2.68 1.15c.35.4.65.86.87 1.43.24.59.37 1.15.39 1.69a3.46 3.46 0 0 1-1.15 2.69c-.4.35-.86.64-1.42.86-.59.24-1.14.36-1.68.38a3.46 3.46 0 0 1-2.68-1.15 4.64 4.64 0 0 1-.87-1.43 4.76 4.76 0 0 1-.38-1.69 3.4 3.4 0 0 1 1.15-2.68c.39-.35.86-.64 1.41-.87zm.77 1.87c-.3.13-.57.29-.8.48-.23.2-.4.4-.54.65a1.8 1.8 0 0 0-.07 1.6c.23.55.58.92 1.07 1.12.48.2 1.1.14 1.85-.16a2.7 2.7 0 0 0 1.37-1.12c.27-.48.27-1.02.04-1.6-.11-.27-.25-.5-.42-.69a1.8 1.8 0 0 0-1.46-.53c-.3 0-.65.1-1.04.25zm8.8 3.46 1.16 2.84-3.6 1.48.03.05c.39.1.75.3 1.08.6.33.31.6.7.81 1.22.15.35.23.7.27 1.04.02.34-.02.65-.15.96-.13.3-.35.6-.67.86-.32.28-.75.52-1.3.75l-4.36 1.79-.75-1.83 3.99-1.63c.57-.24.93-.52 1.08-.88.16-.34.15-.71-.01-1.1a1.86 1.86 0 0 0-1.77-1.12l-4.48 1.84-.75-1.82 8.28-3.4-.41-1 1.55-.65zm.72 9.75 1 2.45-.83.6.02.05a3.09 3.09 0 0 1 2.1 1.91c.14.35.22.7.26 1.03.03.35-.02.67-.15.98-.13.3-.35.6-.67.87-.3.27-.74.52-1.28.75l-4.37 1.79-.74-1.82 3.98-1.64c.57-.23.93-.53 1.07-.9a1.4 1.4 0 0 0-.02-1.13 1.74 1.74 0 0 0-.69-.82c-.31-.2-.64-.3-.99-.28l-4.54 1.87-.75-1.83 5.47-2.23-.41-1.02 1.54-.63zm9.93 16.22.24.43.34.7.37.8.33.77c.35.87.52 1.64.5 2.31a3.6 3.6 0 0 1-.48 1.79c-.3.51-.73.96-1.28 1.34a10.4 10.4 0 0 1-3.88 1.58c-.67.13-1.31.11-1.94-.03a3.96 3.96 0 0 1-1.74-.94 5.6 5.6 0 0 1-1.4-2.14l-.23-.58-.25-.73-.25-.72-.17-.54 9.85-4.04zm-.4 3.47a4.72 4.72 0 0 0-.24-.52l-.19-.36-6.58 2.7c0 .04.02.1.05.18l.07.23.09.24.06.19c.23.54.5.93.84 1.17.33.24.7.38 1.09.4.4.02.81-.02 1.23-.15a12.57 12.57 0 0 0 2.35-.95c.37-.2.68-.44.93-.73.27-.29.43-.63.51-1.02.07-.38 0-.85-.22-1.38zm-2.54 7.33a4.74 4.74 0 0 1 1.68-.37 3.45 3.45 0 0 1 2.68 1.15c.35.39.65.86.87 1.42.24.6.37 1.15.38 1.7a3.43 3.43 0 0 1-1.14 2.67c-.4.35-.87.65-1.42.87-.59.24-1.15.37-1.68.38a3.49 3.49 0 0 1-2.68-1.15 4.96 4.96 0 0 1-1.25-3.11 3.24 3.24 0 0 1 1.15-2.68c.38-.36.86-.65 1.4-.87zm.77 1.89c-.31.12-.58.28-.8.47-.23.2-.41.41-.54.65a1.83 1.83 0 0 0-.07 1.6c.23.55.57.92 1.06 1.12.48.2 1.1.14 1.85-.16a2.6 2.6 0 0 0 1.37-1.12c.27-.48.28-1.02.04-1.6-.1-.27-.25-.5-.42-.7a1.59 1.59 0 0 0-.62-.42 1.87 1.87 0 0 0-.83-.1c-.31.01-.66.1-1.04.26zm2.79 14.68a4.46 4.46 0 0 1-1.1-.88 5.16 5.16 0 0 1-1.06-1.71 4.93 4.93 0 0 1-.4-1.71 3.7 3.7 0 0 1 .24-1.5c.2-.46.48-.87.86-1.23s.86-.66 1.44-.9a4.4 4.4 0 0 1 1.74-.37 3.5 3.5 0 0 1 2.68 1.25 4.87 4.87 0 0 1 1.15 2.55c.07.42.05.84-.05 1.24-.1.42-.3.8-.6 1.16-.3.36-.75.66-1.34.9-.4.16-.85.3-1.36.4l-2.07-5.06c-.3.13-.52.3-.68.5-.16.2-.27.43-.32.67-.05.25-.06.5-.02.78a4.37 4.37 0 0 0 1 2.13c.28.31.56.54.84.69l-.95 1.09zm3.77-5.09a2.53 2.53 0 0 0-.92-1.11 1.9 1.9 0 0 0-.65-.23 1.6 1.6 0 0 0-.73.06l1.42 3.45c.47-.19.78-.47.95-.84.17-.36.14-.8-.07-1.33z"/><path fill="#231F20" d="M664.31 951.33a10.5 10.5 0 0 1-9.78-6.62l-12.3-30.57 70.73-28.44 12.3 30.57A10.56 10.56 0 0 1 719.4 930l-51.17 20.56c-1.25.51-2.58.77-3.93.77zm-18.64-35.73 11.3 28.13a7.88 7.88 0 0 0 10.3 4.4l51.16-20.58a7.92 7.92 0 0 0 4.39-10.29l-11.32-28.13-7.43 3 10.9 27.1-50.76 20.4-10.9-27.1-7.64 3.07zm10.17-3.86 9.83 24.47 45.87-18.44-9.84-24.46-45.86 18.44z"/><path fill="#231F20" d="m682.79 932.01-11.74-29.2 12.54-5.04 11.74 29.2-12.54 5.04zm-8.45-27.8 9.86 24.51 7.84-3.15-9.85-24.51-7.85 3.15z"/><path fill="#FFF" d="M596.4 898.2a8.8 8.8 0 0 1-8.2-5.55 8.79 8.79 0 0 1 4.9-11.5 8.8 8.8 0 0 1 11.5 4.9 8.8 8.8 0 0 1-4.9 11.5 8.76 8.76 0 0 1-3.3.65zm0-15.16a6.28 6.28 0 0 0-5.81 3.83 6.27 6.27 0 0 0-.05 4.83 6.28 6.28 0 0 0 8.21 3.5 6.26 6.26 0 0 0 3.45-3.37 6.29 6.29 0 0 0-5.8-8.79zm47.7-4.02a8.8 8.8 0 0 1-8.21-5.55 8.83 8.83 0 0 1 .07-6.77 8.77 8.77 0 0 1 8.13-5.38 8.8 8.8 0 0 1 8.21 5.55 8.8 8.8 0 0 1-4.9 11.5 8.7 8.7 0 0 1-3.3.65zm0-15.16a6.27 6.27 0 0 0-5.86 8.67 6.29 6.29 0 0 0 8.2 3.5 6.27 6.27 0 0 0 3.5-8.21 6.28 6.28 0 0 0-5.84-3.96zm47.7-4.01a8.8 8.8 0 0 1-8.21-5.55 8.8 8.8 0 0 1 4.9-11.5 8.8 8.8 0 0 1 11.5 4.9 8.8 8.8 0 0 1-4.9 11.5 8.8 8.8 0 0 1-3.3.65zm0-15.17a6.26 6.26 0 0 0-5.8 3.84 6.3 6.3 0 1 0 11.61 4.96 6.3 6.3 0 0 0-5.82-8.8z"/></svg>