<svg xmlns="http://www.w3.org/2000/svg" viewBox="0 0 884 741"><path d="M297.99 24.88a6.46 6.46 0 1 0 0 12.92 6.46 6.46 0 0 0 0-12.92Z"/><path d="M768.77 1H239.46a20.66 20.66 0 0 0-20.66 20.65V150.5l100.27 201.64h449.7c11.4 0 20.65-9.24 20.65-20.65V21.65A20.65 20.65 0 0 0 768.77.99ZM298 40.36a9.05 9.05 0 0 1 0-18.08 9.05 9.05 0 0 1 0 18.08Z"/><path fill="#fff" d="M413.27 138.8a67.3 67.3 0 1 1-134.59 0 67.3 67.3 0 0 1 134.6 0Z"/><path fill="#231f20" d="M345.98 208a69.28 69.28 0 0 1-69.2-69.2 69.28 69.28 0 0 1 69.2-69.2 69.28 69.28 0 0 1 69.2 69.2 69.28 69.28 0 0 1-69.2 69.2Zm0-134.58a65.46 65.46 0 0 0-65.4 65.38 65.46 65.46 0 0 0 65.4 65.4 65.46 65.46 0 0 0 65.39-65.4 65.47 65.47 0 0 0-65.4-65.39Z"/><path fill="#2e9aff" d="M403.49 122.65c-.77 0-1.52.05-2.27.14a57.54 57.54 0 0 0-110.5 0 19.97 19.97 0 1 0 2.6 39.2 57.52 57.52 0 0 0 105.3 0 19.98 19.98 0 0 0 24.84-19.37 19.97 19.97 0 0 0-19.97-19.97Z"/><path fill="none" d="M403.49 122.65c-.77 0-1.52.05-2.27.14A57.53 57.53 0 0 0 346.7 81.3a50.7 50.7 0 0 1-61.5 41.63 19.96 19.96 0 1 0 8.13 39.05 57.52 57.52 0 0 0 105.29 0 19.98 19.98 0 0 0 24.84-19.37 19.97 19.97 0 0 0-19.97-19.97Z"/><path d="M346.7 81.3h-.73a57.54 57.54 0 0 0-55.25 41.49 19.9 19.9 0 0 0-5.51.15 50.7 50.7 0 0 0 61.5-41.63Z"/><path d="M446.95 73.56a50.69 50.69 0 1 1-101.37 0 50.69 50.69 0 0 1 101.37 0Z"/><path d="M345.97 198.22a59.47 59.47 0 0 1-53.74-34.05 21.9 21.9 0 0 1-25.65-21.55 21.9 21.9 0 0 1 22.77-21.85 59.7 59.7 0 0 1 56.62-41.38 59.7 59.7 0 0 1 56.63 41.38c.3-.02.6-.02.89-.02a21.9 21.9 0 0 1 21.87 21.87 21.9 21.9 0 0 1-25.65 21.55 59.47 59.47 0 0 1-53.74 34.05Zm-51.54-38.47.65 1.47a55.66 55.66 0 0 0 50.9 33.19c22.02 0 42-13.03 50.9-33.19l.64-1.47 1.56.4a18.08 18.08 0 0 0 22.47-17.52 18.08 18.08 0 0 0-20.12-17.95l-1.6.18-.44-1.54a55.86 55.86 0 0 0-53.42-40.12 55.86 55.86 0 0 0-53.42 40.12l-.44 1.54-1.6-.18a18.08 18.08 0 0 0-20.11 17.94 18.08 18.08 0 0 0 22.47 17.52Z"/><path d="M290.6 152.56a1.9 1.9 0 0 1-1.41-.61l-12.25-13.32a1.9 1.9 0 1 1 2.81-2.58L292 149.36a1.9 1.9 0 0 1-1.4 3.2Zm108.37 0a1.9 1.9 0 0 1-1.4-3.2l12.24-13.31a1.9 1.9 0 1 1 2.81 2.58l-12.25 13.32a1.9 1.9 0 0 1-1.4.61Zm-70.95-7.65a7.59 7.59 0 1 1-15.18 0 7.59 7.59 0 0 1 15.18 0Z"/><path d="M305.24 148.07a1.9 1.9 0 0 1-1.57-2.98 20.28 20.28 0 0 1 33.45 0 1.9 1.9 0 0 1-3.14 2.16 16.47 16.47 0 0 0-27.17 0 1.9 1.9 0 0 1-1.57.82Zm72.3-3.16a7.59 7.59 0 1 1-15.18 0 7.59 7.59 0 0 1 15.18 0Z"/><path d="M385.07 148.07c-.6 0-1.2-.29-1.57-.82a16.48 16.48 0 0 0-27.17 0 1.9 1.9 0 1 1-3.14-2.16 20.28 20.28 0 0 1 33.46 0 1.9 1.9 0 0 1-1.58 2.98Zm-39.49 9.85a1.9 1.9 0 0 1-1.91-1.9v-11.05a1.9 1.9 0 1 1 3.81 0v11.05a1.91 1.91 0 0 1-1.9 1.9Z"/><path fill="#fff" d="M355.77 162.3a10 10 0 1 1-19.99 0"/><path fill="#fff" d="M761.82 338.38H313.27v-2.83h448.55a11.5 11.5 0 0 0 11.5-11.5V29.09a11.5 11.5 0 0 0-11.5-11.5h-515.4a11.5 11.5 0 0 0-11.5 11.5v148.96h-2.83V29.08c0-7.9 6.42-14.32 14.32-14.32h515.4c7.9 0 14.33 6.42 14.33 14.32v294.98c0 7.9-6.42 14.32-14.32 14.32Z"/><path fill="#fff" d="M234.41 44.48h540.26v2.83H234.42Zm474.97 83.81H451.12a1.41 1.41 0 0 1 0-2.83h258.26a1.42 1.42 0 0 1 0 2.83Zm-79.47 23.03H451.12a1.42 1.42 0 0 1 0-2.83h178.8a1.41 1.41 0 0 1 0 2.83Zm52.98 23.04H451.12a1.41 1.41 0 0 1 0-2.83h231.77a1.42 1.42 0 0 1 0 2.83Zm-105.96 23.03H451.12a1.42 1.42 0 0 1 0-2.83h125.81a1.42 1.42 0 0 1 0 2.83ZM453.19 85h9.39v10.02c0 .85-.11 1.65-.33 2.4a4.7 4.7 0 0 1-2.33 2.85 6.18 6.18 0 0 1-2.3.67 9.18 9.18 0 0 1-2.94-.2 7 7 0 0 1-2.03-.83l1.1-2.47c.57.33 1.06.55 1.48.65.4.1.89.16 1.42.16a3.05 3.05 0 0 0 2.07-.83 3.4 3.4 0 0 0 .78-2.38v-7.3h-6.3V85Zm12.2 10.1c0-.94.14-1.77.42-2.5a5.1 5.1 0 0 1 3.1-3.03c.72-.26 1.53-.4 2.43-.4.94 0 1.78.15 2.52.44a5 5 0 0 1 3.03 3.08c.27.73.4 1.53.4 2.42 0 .94-.15 1.78-.43 2.51a5.15 5.15 0 0 1-3.09 3.02c-.72.27-1.53.4-2.43.4a7 7 0 0 1-2.53-.43 5 5 0 0 1-3.03-3.08 7.06 7.06 0 0 1-.4-2.42Zm3 0c0 .5.07.96.2 1.38.14.42.33.78.59 1.1a2.66 2.66 0 0 0 2.15.98c.87 0 1.58-.27 2.13-.83.54-.55.81-1.43.81-2.62 0-1.04-.25-1.87-.76-2.5a2.63 2.63 0 0 0-2.18-.96c-.42 0-.81.06-1.17.19a2.3 2.3 0 0 0-.93.62c-.28.3-.5.68-.62 1.08-.14.43-.22.95-.22 1.57Zm9.68-10.1h4.54v5.75h.09c.35-.48.84-.86 1.44-1.15a4.9 4.9 0 0 1 2.1-.42c.57 0 1.1.07 1.58.22s.89.4 1.23.74c.35.35.61.81.81 1.4a7 7 0 0 1 .3 2.2v6.98h-2.93v-6.38c0-.91-.2-1.57-.58-1.98-.4-.4-.9-.6-1.53-.6a2.7 2.7 0 0 0-2.51 1.8v7.16h-2.92V87.47h-1.62Zm13.74 4.5h3.94l.33 1.47h.1a4.5 4.5 0 0 1 3.78-1.8c.56 0 1.08.08 1.57.23a3.02 3.02 0 0 1 2.06 2.15c.2.59.3 1.32.3 2.19v6.98h-2.91v-6.38c0-.91-.2-1.57-.62-1.97-.41-.4-.94-.61-1.56-.61-.56 0-1.06.16-1.52.48-.46.33-.77.73-.93 1.2v7.28h-2.92v-8.76h-1.62V89.5Zm27.8-4.5a32.8 32.8 0 0 1 3.18-.2c.46-.02.87-.02 1.23-.02 1.4 0 2.55.2 3.46.6.91.4 1.64.96 2.16 1.68.54.7.9 1.55 1.12 2.51a14.92 14.92 0 0 1 0 6.19c-.2.95-.58 1.84-1.14 2.64a5.78 5.78 0 0 1-2.27 1.86c-.97.47-2.2.7-3.72.7a25.65 25.65 0 0 1-2.06-.07l-1.13-.06a9.58 9.58 0 0 1-.82-.08V85Zm4.52 2.52a9.77 9.77 0 0 0-1.43.09v10.53c.06.01.14.03.27.03l.37.02.37.03h.3a3.9 3.9 0 0 0 2.07-.47 3 3 0 0 0 1.15-1.27c.27-.56.44-1.16.5-1.78a17.64 17.64 0 0 0 0-3.75 5.1 5.1 0 0 0-.47-1.68 3.14 3.14 0 0 0-1.1-1.26 3.6 3.6 0 0 0-2.03-.5Zm8.63 7.59c0-.95.14-1.78.42-2.52a5.15 5.15 0 0 1 3.1-3.02c.72-.26 1.53-.4 2.43-.4.94 0 1.78.15 2.53.44a5.02 5.02 0 0 1 3.03 3.08c.26.73.4 1.53.4 2.42 0 .94-.15 1.78-.44 2.51a5.1 5.1 0 0 1-3.09 3.02c-.72.27-1.53.4-2.43.4a7 7 0 0 1-2.53-.43 4.98 4.98 0 0 1-3.03-3.08 7.16 7.16 0 0 1-.4-2.42Zm3 0c0 .5.07.95.2 1.37.14.42.34.78.6 1.1a2.65 2.65 0 0 0 2.15.98c.87 0 1.57-.27 2.12-.83.55-.55.82-1.43.82-2.62 0-1.04-.26-1.87-.77-2.5a2.62 2.62 0 0 0-2.18-.96c-.42 0-.8.06-1.16.19-.36.13-.67.33-.94.62-.28.3-.49.68-.61 1.08a5 5 0 0 0-.22 1.57Zm21.68 4.42c-.2.18-.44.36-.75.53a7.33 7.33 0 0 1-2.44.84 8.76 8.76 0 0 1-4.14-.27A5.14 5.14 0 0 1 547 97.6a6.92 6.92 0 0 1-.41-2.48c0-1 .15-1.86.47-2.6a5.17 5.17 0 0 1 3.2-2.96 7.45 7.45 0 0 1 4.16-.15c.6.15 1.16.41 1.67.78.5.36.92.85 1.25 1.47.31.61.48 1.4.48 2.33 0 .65-.08 1.34-.23 2.1h-8.08a2.4 2.4 0 0 0 1.05 2.02c.3.2.65.36 1.05.45a6.55 6.55 0 0 0 3.48-.17c.57-.2 1.04-.46 1.4-.76Zm-4.85-8.02c-.38 0-.75.05-1.1.16-.34.1-.66.27-.94.47a2.5 2.5 0 0 0-1 1.8h5.53c0-.75-.21-1.34-.62-1.77-.4-.44-1.04-.66-1.87-.66ZM250.65 40.98a9.66 9.66 0 0 1 0-19.3 9.66 9.66 0 0 1 0 19.3Zm0-15.5a5.85 5.85 0 1 0 0 11.7 5.85 5.85 0 0 0 0-11.7Z"/><path fill="#2e9aff" d="M274.32 40.98a9.66 9.66 0 0 1 0-19.3 9.66 9.66 0 0 1 0 19.3Zm0-15.49a5.85 5.85 0 1 0 .01 11.7 5.85 5.85 0 0 0-.01-11.7Z"/><path fill="#fff" d="M515.38 269.88H283.61a1.41 1.41 0 1 1 0-2.82h231.77a1.41 1.41 0 1 1 0 2.82Zm-105.96 23.04h-125.8a1.41 1.41 0 1 1 0-2.83h125.8a1.41 1.41 0 0 1 0 2.83Z"/><path fill="#2e9aff" d="M863.7 148.3a28.1 28.1 0 1 1-37.11-42.17 28.1 28.1 0 0 1 37.12 42.18Z"/><path fill="#fff" d="M845.16 156.83a29.63 29.63 0 1 1 22.22-49.18 29.65 29.65 0 0 1-2.67 41.8 29.58 29.58 0 0 1-19.55 7.38Zm-.02-56.19a26.54 26.54 0 0 0-26.51 24.89 26.59 26.59 0 0 0 44.08 21.64 26.59 26.59 0 0 0-17.57-46.52Z"/><path fill="#2e9aff" d="M832.83 136.96a48.67 48.67 0 0 0 .15-48.7 48.67 48.67 0 0 0-42.25 24.21"/><path fill="#fff" d="m834.14 137.72-2.63-1.53a47.36 47.36 0 0 0 .59-46.4 47.35 47.35 0 0 0-40.05 23.44l-2.63-1.52a50.4 50.4 0 0 1 43.46-24.96h.98l.44.76a50.4 50.4 0 0 1-.16 50.2Z"/><path fill="#fff" d="m812.86 125.88-2.63-1.52 21.43-36.84 2.63 1.53Z"/><path fill="#2e9aff" d="M833.44 137.65c16.6-7 34.9-4.1 48.32 6.03a48.66 48.66 0 0 1-29.38 38.83"/><path fill="#fff" d="m852.97 183.91-1.18-2.8a47.35 47.35 0 0 0 28.34-36.75 47.37 47.37 0 0 0-46.1-5.31l-1.18-2.8a50.41 50.41 0 0 1 49.82 6.22l.7.53-.1.87a50.39 50.39 0 0 1-30.3 40.04Z"/><path fill="#fff" d="m843.07 161.66-1.18-2.8 39.25-16.57 1.19 2.8Z"/><path fill="#2e9aff" d="M582.56 185.85a39.33 39.33 0 1 1-78.66 0 39.33 39.33 0 0 1 78.66 0Z"/><path fill="#fff" d="M543.23 226.7a40.9 40.9 0 0 1-40.85-40.86A40.9 40.9 0 0 1 543.23 145a40.9 40.9 0 0 1 40.85 40.85 40.9 40.9 0 0 1-40.85 40.86Zm0-78.67a37.86 37.86 0 0 0-37.81 37.81 37.86 37.86 0 0 0 37.81 37.82 37.86 37.86 0 0 0 37.81-37.82 37.85 37.85 0 0 0-37.81-37.8Z"/><path fill="#2e9aff" d="M786.75 417.84a39.33 39.33 0 1 1-78.67 0 39.33 39.33 0 0 1 78.67 0Z"/><path fill="#fff" d="M747.42 458.69a40.9 40.9 0 0 1-40.86-40.86 40.9 40.9 0 0 1 40.86-40.85 40.9 40.9 0 0 1 40.85 40.85 40.9 40.9 0 0 1-40.85 40.86Zm0-78.67a37.86 37.86 0 0 0-37.82 37.81 37.86 37.86 0 0 0 37.82 37.82 37.86 37.86 0 0 0 37.81-37.81 37.86 37.86 0 0 0-37.81-37.82Z"/><path fill="#2e9aff" d="M761.48 433.82c-103.53 91.12-239.3 106.1-303.24 33.44-63.94-72.65-31.85-205.42 71.68-296.54 103.53-91.12 239.3-106.1 303.24-33.44C897.1 209.93 865 342.7 761.48 433.82Z"/><path fill="#fff" d="M571.17 514.81c-47.82 0-87.26-16.1-114.06-46.54-31.27-35.53-40.96-86.2-27.3-142.71 13.6-56.31 48.8-111.7 99.1-155.98 57.66-50.75 127.4-79.85 191.32-79.85 47.82 0 87.27 16.1 114.07 46.55 31.26 35.52 40.96 86.2 27.3 142.7-13.6 56.31-48.8 111.7-99.11 155.98-57.66 50.75-127.39 79.85-191.32 79.85ZM720.23 92.77c-63.2 0-132.2 28.83-189.3 79.09-102.74 90.42-134.83 222.49-71.54 294.4 26.2 29.77 64.86 45.51 111.78 45.51 63.2 0 132.2-28.83 189.31-79.1 49.84-43.86 84.7-98.7 98.17-154.4 13.42-55.52 3.96-105.23-26.63-139.99-26.21-29.77-64.87-45.51-111.8-45.51Z"/><path fill="#fff" d="M487.62 441.33C435.98 382.64 464.86 272.8 552.13 196c87.27-76.8 199.89-91.5 251.53-32.82 51.65 58.68 22.77 168.51-64.5 245.32-87.28 76.81-199.9 91.5-251.54 32.83Z"/><path fill="#2e9aff" d="M262.7 705.56c70.16-72.27 177.4-172.33 223.4-219.71a33.04 33.04 0 0 0-43.5-49.44l-.01-.01c-52.84 39.61-165.7 133.28-246.3 193.7a50.42 50.42 0 1 0 66.4 75.45Z"/><path fill="#fff" d="M226.41 722.5a51.98 51.98 0 0 1-51.86-55.24 51.6 51.6 0 0 1 20.83-38.37c44.52-33.37 99.26-77.2 147.56-115.86 38.61-30.91 75.08-60.1 98.74-77.84l1.21-.92.03.04a34.56 34.56 0 0 1 45.43 5.7 34.72 34.72 0 0 1 .07 45.56l.04.02-1.26 1.31c-20.6 21.23-54.2 53.7-89.78 88.09-44.47 42.99-94.89 91.72-133.64 131.63a51.88 51.88 0 0 1-37.37 15.89Zm215.87-283.97c-23.64 17.79-59.5 46.5-97.44 76.87-48.32 38.68-103.08 82.52-147.64 115.93a48.59 48.59 0 0 0-19.61 36.13 48.94 48.94 0 0 0 48.82 52.02v-.01a48.84 48.84 0 0 0 35.19-14.96c38.79-39.95 89.22-88.7 133.71-131.7 34.83-33.67 67.77-65.51 88.43-86.71l1.27-1.31a31.65 31.65 0 0 0 1.06-42.78 31.53 31.53 0 0 0-42.56-4.38l-1.22.91Z"/><path fill="#2e9aff" d="M249.36 694.3v.02l.1-.1.02-.02L475.1 475.97a18.26 18.26 0 0 0-24.1-27.38L205.88 644.67l-.03.02-.1.07v.01a33.04 33.04 0 1 0 43.6 49.54Z"/><path fill="#fff" d="M226.4 705.13a34.57 34.57 0 0 1-22.84-60.5l.18-.16-.08-.1 1.27-.9 75-59.98 170.12-136.1a19.78 19.78 0 0 1 26.1 29.66c-26.21 25.37-177.92 172.1-225.58 218.21l-1.8 1.8-.05-.12a34.53 34.53 0 0 1-22.31 8.18Zm-19.6-59.26-.1.09c-.38.3-.76.62-1.14.94a31.54 31.54 0 1 0 42.74 46.31l1.67-1.61 224.07-216.73a16.75 16.75 0 0 0-22.1-25.1l-174.89 139.9Z"/><path fill="#2e9aff" d="M299.55 644.52a28.79 28.79 0 0 1 2.59-40.62 28.78 28.78 0 0 1-40.63-2.6"/><path fill="#fff" d="M299.55 646.04c-.43 0-.85-.17-1.15-.51a30.36 30.36 0 0 1-3.4-35.35c-4.3 1.84-9 2.66-13.81 2.35a30.11 30.11 0 0 1-20.82-10.22 1.52 1.52 0 0 1 2.28-2.01 27.08 27.08 0 0 0 18.73 9.2 27.06 27.06 0 0 0 19.75-6.75 1.52 1.52 0 0 1 2.53 1.14c0 .43-.18.85-.52 1.15a27.3 27.3 0 0 0-2.45 38.48 1.52 1.52 0 0 1-1.14 2.52Z"/><path fill="#2e9aff" d="M387.32 500a21.7 21.7 0 0 1-1.95 30.64A21.7 21.7 0 0 1 416 532.6"/><path fill="#fff" d="M416 534.12c-.42 0-.84-.18-1.14-.52a20.21 20.21 0 0 0-28.49-1.82 1.52 1.52 0 0 1-2-2.28 20.05 20.05 0 0 0 6.8-13.87 20.05 20.05 0 0 0-5-14.62 1.52 1.52 0 1 1 2.3-2 23.06 23.06 0 0 1 5.74 16.81c-.2 3.27-1.1 6.46-2.62 9.35a23.26 23.26 0 0 1 25.55 6.42 1.52 1.52 0 0 1-1.14 2.52Z"/><path fill="#2e9aff" d="M222.48 634.27a29.83 29.83 0 0 1-2.69 42.1 29.83 29.83 0 0 1 42.1 2.68"/><path fill="#fff" d="M261.9 680.57c-.42 0-.84-.17-1.14-.52-5-5.67-11.9-9.06-19.46-9.54-7.54-.48-14.82 2-20.5 7a1.52 1.52 0 1 1-2.01-2.28v-.01a28.1 28.1 0 0 0 9.55-19.44c.48-7.55-2-14.83-7-20.5a1.52 1.52 0 0 1 2.28-2.02 31.14 31.14 0 0 1 7.75 22.7 31.2 31.2 0 0 1-4.3 14 31.14 31.14 0 0 1 14.43-2.49c8.35.53 16 4.29 21.54 10.57a1.52 1.52 0 0 1-1.14 2.53Z"/><path fill="#2e9aff" d="M305.19 611.66a7.84 7.84 0 1 1-10.37-11.77 7.84 7.84 0 0 1 10.37 11.77Z"/><path fill="#fff" d="M300 615.13a9.36 9.36 0 1 1 0-18.72 9.36 9.36 0 0 1 0 18.73Zm0-15.68a6.33 6.33 0 1 0 0 12.66 6.33 6.33 0 0 0 0-12.66Z"/><path fill="#2e9aff" d="M390.34 536.72a7.84 7.84 0 1 1-10.37-11.78 7.84 7.84 0 0 1 10.37 11.77Z"/><path fill="#fff" d="M385.16 540.2a9.36 9.36 0 1 1 0-18.74 9.36 9.36 0 0 1 0 18.73Zm0-15.7a6.32 6.32 0 1 0 0 12.66 6.32 6.32 0 0 0 0-12.65Z"/><path fill="#2e9aff" d="M225.33 682.03a7.85 7.85 0 1 1-10.35-11.79 7.85 7.85 0 0 1 10.35 11.79Z"/><path fill="#fff" d="M220.16 685.5a9.36 9.36 0 1 1 0-18.73 9.36 9.36 0 0 1 0 18.73Zm-.01-15.68a6.31 6.31 0 0 0-4.74 10.5 6.33 6.33 0 1 0 4.74-10.5Zm86.05-67.99a1.52 1.52 0 0 1-1-2.66l72.23-63.56a1.52 1.52 0 1 1 2 2.28l-72.22 63.57a1.5 1.5 0 0 1-1 .37Zm464.76-370.85a44.25 44.25 0 1 1-88.5 0 44.25 44.25 0 0 1 88.5 0Z"/><path fill="#231f20" d="M726.71 276.75a45.82 45.82 0 0 1-45.77-45.77 45.82 45.82 0 0 1 45.77-45.77 45.82 45.82 0 0 1 45.77 45.77 45.82 45.82 0 0 1-45.77 45.77Zm0-88.5a42.78 42.78 0 0 0-42.73 42.73 42.78 42.78 0 0 0 42.73 42.73 42.78 42.78 0 0 0 42.73-42.73 42.78 42.78 0 0 0-42.73-42.73Z"/><path fill="#2e9aff" d="M755.75 249.48a33.34 33.34 0 0 1-1.53-42.18l-.13-.14a33.35 33.35 0 0 1-43.23-8.84l-.75.35-.74-1.05a11.63 11.63 0 0 0-21.12 5.9 11.53 11.53 0 0 0 5.01 10.3l1.05.73-.53 1.16a36.33 36.33 0 0 0 43.9 49.88l1.23-.39.58 1.14a11.59 11.59 0 0 0 21.91-4.58 11.53 11.53 0 0 0-3.8-9.35l-.95-.86.43-.66c-.46-.46-.9-.93-1.33-1.41Zm-56.18-52.36-1.25 11.83a1.52 1.52 0 0 1-3.03-.32l1.26-11.83a1.53 1.53 0 0 1 2.7-.8c.25.32.37.72.32 1.12Zm57.73 65.46c-.02.83-.7 1.49-1.52 1.49h-.03l-11.9-.26a1.52 1.52 0 0 1-1.48-1.56 1.5 1.5 0 0 1 1.55-1.48l11.9.26c.83.02 1.5.71 1.48 1.55Z"/><path d="m754.1 207.16-.14-.16a36.32 36.32 0 0 0-42.7-8.88l-.4.2a33.35 33.35 0 0 0 43.24 8.84Zm.12.14a33.34 33.34 0 0 0 2.86 43.6l.26-.43a36.46 36.46 0 0 0-3.12-43.17Z"/><path d="m760.81 251.35-.26-.3a39.53 39.53 0 0 0-4.31-46.06 39.36 39.36 0 0 0-45.14-10.12 14.66 14.66 0 1 0-20.58 20.68 39.37 39.37 0 0 0 46.9 53.29 14.65 14.65 0 1 0 23.4-17.5Zm-2.32 19.53a13.13 13.13 0 0 1-20.35-3.84 37.82 37.82 0 0 1-45.74-51.97 13.13 13.13 0 1 1 18.22-18.32A37.83 37.83 0 0 1 755.1 206l.08.09.23.27a37.83 37.83 0 0 1 3.22 44.93 13.3 13.3 0 0 1 2.51 3.1 13.14 13.14 0 0 1-2.65 16.5Z"/><path d="m754.55 206.88-.46.28.13.14.33-.42Zm2.53 44.01-.43.67.95.86a11.53 11.53 0 0 1 3.8 9.34 11.6 11.6 0 0 1-11.58 10.88c-4.35 0-8.34-2.43-10.33-6.3l-.59-1.13-1.22.38a36.31 36.31 0 0 1-43.9-49.88l.53-1.16-1.05-.73a11.7 11.7 0 0 1-5-10.3 11.6 11.6 0 0 1 21.12-5.9l.73 1.05.75-.35a33.36 33.36 0 0 1-2.72-4.23 13.12 13.12 0 1 0-15.74 20.98 37.82 37.82 0 0 0 45.74 51.97 13.13 13.13 0 1 0 23-12.65 33.63 33.63 0 0 1-4.06-3.5Z"/><path d="M711.27 198.13a36.32 36.32 0 0 1 42.7 8.87l.13.16.45-.28.63-.79-.08-.1a37.83 37.83 0 0 0-44.48-9.24 12.8 12.8 0 0 0-2.48-2.66c.8 1.48 1.7 2.89 2.72 4.23Z"/><path d="M754.22 207.3a36.46 36.46 0 0 1 3.12 43.17l-.26.42a33.3 33.3 0 0 0 4.06 3.5 13.22 13.22 0 0 0-2.52-3.1 37.83 37.83 0 0 0-3.21-44.93l-.86.52-.33.42Zm1.18-.94-.22-.27-.63.79.86-.52Zm-57.18-10.9a1.53 1.53 0 0 0-1.67 1.34l-1.26 11.83a1.52 1.52 0 1 0 3.03.33l1.25-11.84a1.52 1.52 0 0 0-1.35-1.67Zm45.7 65.3a1.5 1.5 0 0 0-1.55 1.5 1.52 1.52 0 0 0 1.49 1.55l11.89.26h.03a1.52 1.52 0 0 0 .04-3.04Zm-28.02-35.99a4.99 4.99 0 1 1-6.6-7.5 4.99 4.99 0 0 1 6.6 7.5Z"/><path d="M718.55 230.55a1.52 1.52 0 0 1-1.47-1.89 10.57 10.57 0 0 0-11.51-13.08 1.5 1.5 0 0 1-1.7-1.33 1.52 1.52 0 0 1 1.33-1.69 13.59 13.59 0 0 1 14.82 16.85 1.52 1.52 0 0 1-1.47 1.14Zm18.86 18.67a5 5 0 0 1-6.59-7.5 5 5 0 0 1 6.6 7.5Z"/><path d="M740.07 255a1.52 1.52 0 0 1-1.48-1.9 10.56 10.56 0 0 0-11.51-13.07 1.52 1.52 0 0 1-1.38-2.45c.25-.32.62-.52 1.01-.57a13.6 13.6 0 0 1 14.83 16.84 1.52 1.52 0 0 1-1.47 1.15Zm-22.02-15.22a1.52 1.52 0 0 1-1-2.66l5.45-4.8a1.52 1.52 0 1 1 2 2.28l-5.45 4.8c-.28.25-.63.38-1 .38Z"/><path fill="#fff" d="M719.38 246.02a6.57 6.57 0 0 1-8.68-9.87"/><path fill="#2e9aff" d="M620.65 402a18.42 18.42 0 0 1-26-1.66l-53.62-60.92a18.42 18.42 0 0 1 27.64-24.34L622.3 376a18.41 18.41 0 0 1-1.65 26Z"/><path fill="#fff" d="M608.48 408.11a19.95 19.95 0 0 1-14.97-6.76l-53.62-60.93a19.97 19.97 0 0 1 14.95-33.11c5.73 0 11.2 2.46 14.98 6.76L623.44 375a19.81 19.81 0 0 1 4.94 14.44 19.92 19.92 0 0 1-19.9 18.67Zm-53.63-97.76a16.89 16.89 0 0 0-12.68 28.06l53.62 60.93a16.9 16.9 0 0 0 25.37-22.33l-53.63-60.93a16.9 16.9 0 0 0-12.68-5.73Z"/><path fill="#fff" d="m554.2 329.51.04.05 5.85-2.9 1.15 1.31-8.16 3.75-1.27-1.44 4.7-7.68 1.24 1.41Zm2.15 3.88 1.43 1.63 2.59-2.27-1.43-1.63 1.01-.9 2.48 2.83-3.6 3.16 1.5 1.71-1 .9-4-4.53Zm6.09-2.87a.87.87 0 0 1 .68-.22c.26.02.5.16.72.41.23.26.34.53.34.8a.84.84 0 0 1-.97.86c-.26-.05-.5-.2-.73-.45-.23-.26-.34-.51-.33-.76 0-.25.1-.48.29-.64Zm2.11 13.25a3.77 3.77 0 0 1-1.08-.39 4.7 4.7 0 0 1-2.02-2.22 2.85 2.85 0 0 1 .12-2.39c.2-.37.49-.73.87-1.06.4-.36.82-.6 1.23-.75a2.87 2.87 0 0 1 2.38.25 4.13 4.13 0 0 1 1.56 1.65c.16.3.26.63.29.97.03.36-.02.71-.15 1.04-.14.36-.4.7-.79 1.05-.29.25-.6.47-.94.66l-2.92-3.32c-.18.15-.3.35-.4.56-.06.2-.08.4-.05.6.02.2.09.4.19.6a3.56 3.56 0 0 0 1.33 1.37c.29.16.56.26.82.3Zm1.55-4.89a2 2 0 0 0-.47-.4 1.56 1.56 0 0 0-1.09-.2c-.2.03-.38.1-.53.23l2 2.27c.3-.27.47-.57.5-.9.02-.32-.11-.65-.41-1Zm4.86 6.09-1.41 2.47.04.05.86-.62 2.67-1.68.95 1.08-5.43 3.13-1.07-1.2 1.38-2.13-.05-.05-2.33 1.03-1.1-1.25 3.76-5.02 1.06 1.2-2.16 2.7-.5.57.03.05 2.62-1.1Zm9.16 13.1.9 1.02-1.85 1.63a3.06 3.06 0 0 1-1-.46 4.9 4.9 0 0 1-1.78-2.15 3.3 3.3 0 0 1-.26-1.48 3.8 3.8 0 0 1 .45-1.58c.28-.54.73-1.08 1.34-1.62a5.3 5.3 0 0 1 1.84-1.12c.6-.18 1.15-.25 1.67-.18.52.06 1 .23 1.43.49a5.35 5.35 0 0 1 2.19 2.76l-1.92 1.69-.9-1.02 1.06-.93c-.14-.22-.3-.43-.48-.63-.2-.23-.44-.42-.72-.55-.28-.13-.58-.2-.89-.18-.32 0-.65.1-1.01.25a4.61 4.61 0 0 0-1.9 1.67c-.2.3-.34.62-.41.97-.06.33-.05.65.04.96.09.32.25.62.5.9.19.2.38.39.58.54Zm5.56-2.33 1.64 1.86-2.36 2.08.03.03c.33-.02.66.04 1 .18.33.15.64.38.93.72.2.23.37.47.48.73.1.25.16.5.14.77-.02.27-.11.55-.28.84-.17.3-.44.6-.8.91l-2.87 2.52-1.05-1.2 2.62-2.3c.37-.33.58-.65.6-.95a1.1 1.1 0 0 0-.3-.85c-.2-.23-.47-.39-.76-.45-.3-.06-.61-.04-.9.06l-2.93 2.6-1.07-1.2 5.45-4.8-.59-.66Zm3.44 8.26a6.53 6.53 0 0 1 2.17 1.65c.28.32.48.63.6.92a1.66 1.66 0 0 1-.1 1.58c-.15.25-.34.48-.57.68-.31.27-.6.5-.83.67a9.33 9.33 0 0 0-1.27 1.13l.53.6-1.01.9-1.37-1.55.52-.67-.04-.05c-.32.05-.64.01-.95-.09-.34-.1-.68-.35-1.02-.73-.4-.46-.6-.93-.59-1.42.01-.48.22-.9.63-1.26.25-.23.52-.38.8-.45.26-.07.54-.07.81.01.28.07.56.21.84.41a4.84 4.84 0 0 1 1.13 1.14l.35.48.2-.14.18-.15c.23-.21.34-.42.32-.65a1.3 1.3 0 0 0-.37-.73 3.52 3.52 0 0 0-.86-.73c-.25-.16-.52-.3-.8-.43Zm-2 4.56c.26.29.5.46.74.51.23.06.44.06.63.02l.55-.49c-.04-.06-.1-.17-.2-.3-.1-.15-.2-.29-.32-.42a2.35 2.35 0 0 0-.71-.54.84.84 0 0 0-.38-.06.6.6 0 0 0-.33.15c-.18.15-.27.32-.27.5-.01.19.09.4.29.63Zm6.56-.01 1.42 1.61-.48.67.02.04a2.5 2.5 0 0 1 2.12.91c.2.23.36.47.47.73a1.68 1.68 0 0 1-.13 1.62c-.17.3-.43.6-.79.92l-2.86 2.52-1.07-1.2 2.62-2.3c.38-.34.58-.66.6-.98.01-.31-.1-.62-.32-.85-.2-.23-.45-.39-.74-.45a1.33 1.33 0 0 0-.84.05l-2.98 2.63-1.06-1.2 3.6-3.17-.59-.66Zm4.87 5.53 1.42 1.62-.48.67.03.04a2.52 2.52 0 0 1 2.11.9c.2.24.36.48.48.73.1.25.16.51.14.78-.03.3-.12.59-.28.84-.17.3-.43.6-.79.92l-2.87 2.53-1.05-1.2 2.62-2.31c.37-.33.57-.65.58-.97.02-.32-.1-.63-.31-.86a1.4 1.4 0 0 0-.74-.45 1.34 1.34 0 0 0-.84.06l-2.99 2.63-1.05-1.2 3.6-3.17-.59-.66Zm4.99 13.99a2.65 2.65 0 0 1-.5-.12 4.25 4.25 0 0 1-1.85-1.3 4.2 4.2 0 0 1-.76-1.2 2.89 2.89 0 0 1 .12-2.39c.22-.4.52-.76.87-1.06.4-.36.82-.6 1.24-.75a2.85 2.85 0 0 1 2.37.25 4.14 4.14 0 0 1 1.56 1.65c.16.3.26.63.29.97a2.34 2.34 0 0 1-.93 2.09c-.3.25-.61.47-.94.66l-2.93-3.32c-.17.15-.3.35-.39.56-.06.2-.09.4-.06.6.02.2.09.4.2.6a3.5 3.5 0 0 0 1.33 1.37c.28.16.55.26.8.3Zm1.54-4.9c-.14-.15-.3-.28-.47-.4a1.59 1.59 0 0 0-1.09-.21c-.2.04-.38.12-.53.24l2 2.27c.3-.27.47-.57.5-.9.03-.32-.11-.65-.41-1Zm5.67 1.05 1.73 1.97-4.27 3.75c-.47.42-.75.77-.83 1.05-.08.27-.01.55.22.8.17.2.32.33.48.42.14.1.3.16.49.22l-.44 1.19-.46-.15a2.51 2.51 0 0 1-.87-.5c-.16-.14-.3-.28-.44-.44-.5-.58-.74-1.15-.7-1.7.04-.54.33-1.05.87-1.53l3.88-3.41-.68-.77Z"/><path fill="#231f20" d="M698.6 350.03c-.43 0-.85-.17-1.15-.51L606.97 246.7a1.52 1.52 0 1 1 2.28-2.01l90.49 102.8a1.52 1.52 0 0 1-1.14 2.53Zm-27.99-3.44c-.42 0-.84-.17-1.14-.51l-62.64-71.18a1.52 1.52 0 0 1 2.28-2l62.64 71.17a1.52 1.52 0 0 1-1.13 2.52Zm-4.77 22.92a1.5 1.5 0 0 1-1.15-.52l-81.2-92.26a1.52 1.52 0 1 1 2.28-2l81.2 92.26a1.52 1.52 0 0 1-1.13 2.52Zm-32.63-8.71c-.42 0-.84-.18-1.14-.52L588 310.2a1.52 1.52 0 0 1 2.28-2.01l44.09 50.08a1.52 1.52 0 0 1-1.14 2.53Zm-56.59 49.8c-.42 0-.84-.17-1.14-.51L531.4 360a1.52 1.52 0 0 1 2.28-2l44.08 50.08a1.52 1.52 0 0 1-1.14 2.53Zm-23.16 1.68c-.43 0-.84-.18-1.15-.52l-25.51-29a1.52 1.52 0 1 1 2.28-2l25.52 29a1.52 1.52 0 0 1-1.14 2.52Z"/><path d="m649.83 244.76 5.04 5.73-6.11 5.38c-.5.44-1.05.8-1.65 1.09a3.8 3.8 0 0 1-3 .1 5.5 5.5 0 0 1-1.65-1.04 7.48 7.48 0 0 1-1.46-1.9 5.66 5.66 0 0 1-.57-1.68l2.1-.66c.1.53.24.94.4 1.25.15.31.38.63.67.96.18.2.4.38.69.55.28.16.59.25.92.26.63.02 1.26-.25 1.88-.8l4.46-3.92-3.4-3.85Zm.38 12.87a5.7 5.7 0 0 1 1.77-1.09 4.2 4.2 0 0 1 3.5.26 6.02 6.02 0 0 1 2.65 3.05 4.18 4.18 0 0 1-.25 3.5c-.33.58-.76 1.1-1.27 1.54a5.6 5.6 0 0 1-1.77 1.1 4.19 4.19 0 0 1-3.5-.26 5.94 5.94 0 0 1-1.55-1.28 5.74 5.74 0 0 1-1.1-1.77 4.11 4.11 0 0 1 .25-3.5 5.8 5.8 0 0 1 1.27-1.55Zm1.62 1.84a3.18 3.18 0 0 0-1.09 1.8 2.14 2.14 0 0 0 .56 1.85c.47.53 1.02.81 1.65.85.63.03 1.3-.27 2.04-.91.63-.56 1-1.16 1.12-1.81a2.14 2.14 0 0 0-.6-1.85 2.9 2.9 0 0 0-.74-.6 1.87 1.87 0 0 0-.88-.24c-.33 0-.67.06-.98.2-.35.14-.71.38-1.08.7Zm11.37.47 2.43 2.77-3.5 3.1.04.05c.49-.04.98.05 1.47.26a4.33 4.33 0 0 1 2.1 2.14 2.45 2.45 0 0 1-.2 2.4c-.26.44-.65.9-1.19 1.36l-4.26 3.75-1.57-1.78 3.9-3.43c.55-.49.85-.96.89-1.42.04-.45-.11-.87-.45-1.26a2.23 2.23 0 0 0-2.45-.57l-4.37 3.86-1.57-1.79 8.1-7.12-.88-.98Zm4.64 10.8 2.1 2.4-.72 1 .05.06a3.8 3.8 0 0 1 3.13 1.35c.3.34.54.7.7 1.08.18.38.25.76.23 1.16-.03.4-.17.81-.42 1.25-.25.44-.65.9-1.17 1.36l-4.27 3.76-1.57-1.79 3.9-3.42c.56-.5.85-.98.87-1.44.03-.47-.13-.9-.46-1.28a2.1 2.1 0 0 0-2.35-.59l-4.44 3.9-1.56-1.77 5.35-4.7-.87-1Zm17.68 14.57.42.4a30.18 30.18 0 0 1 2.08 2.16 6.97 6.97 0 0 1 1.49 2.44c.24.77.29 1.51.14 2.22-.14.7-.46 1.38-.94 2.03a12.4 12.4 0 0 1-3.78 3.32c-.68.4-1.43.65-2.21.73a4.73 4.73 0 0 1-2.36-.38 6.96 6.96 0 0 1-2.43-1.9 20.17 20.17 0 0 1-1.06-1.3l-.57-.71a6.93 6.93 0 0 1-.4-.56Zm.88 4.1a8.3 8.3 0 0 0-.82-.83l-6.43 5.66.12.19.19.23.19.24.14.19c.47.53.94.86 1.41 1 .48.15.94.16 1.4.03.49-.14.94-.36 1.35-.65a15.47 15.47 0 0 0 2.3-2.01c.34-.37.6-.77.77-1.2.18-.42.24-.89.17-1.35a2.91 2.91 0 0 0-.79-1.5Zm0 9.34c.58-.5 1.17-.87 1.77-1.09a4.22 4.22 0 0 1 3.5.26c.55.3 1.07.73 1.55 1.28.5.57.87 1.17 1.1 1.77.23.6.31 1.2.27 1.79a4.2 4.2 0 0 1-.52 1.71c-.33.59-.76 1.1-1.27 1.54-.57.51-1.16.88-1.76 1.1a4.21 4.21 0 0 1-3.5-.26 5.88 5.88 0 0 1-1.55-1.28 5.75 5.75 0 0 1-1.1-1.77 4.09 4.09 0 0 1 .25-3.5c.33-.59.75-1.1 1.26-1.55Zm1.62 1.84c-.28.25-.53.54-.73.86-.17.29-.3.61-.35.95-.06.32-.04.64.05.95a2.46 2.46 0 0 0 2.15 1.74c.63.04 1.31-.26 2.05-.9.63-.56 1-1.16 1.11-1.82a2.15 2.15 0 0 0-.58-1.84 2.85 2.85 0 0 0-.75-.61 1.87 1.87 0 0 0-.88-.24c-.34 0-.67.07-.98.2a4.2 4.2 0 0 0-1.09.71Zm8.95 15.6a3.3 3.3 0 0 1-.73-.17 6.37 6.37 0 0 1-2.75-1.92 6.1 6.1 0 0 1-1.14-1.79 4.14 4.14 0 0 1 .18-3.54c.3-.56.73-1.09 1.3-1.59.6-.53 1.21-.9 1.83-1.1a4.21 4.21 0 0 1 3.54.37 5.9 5.9 0 0 1 2.31 2.44 4 4 0 0 1 .43 1.44c.05.53-.03 1.06-.23 1.55-.2.53-.6 1.05-1.17 1.55-.43.38-.9.7-1.4.99l-4.34-4.94a2.1 2.1 0 0 0-.58.84 2 2 0 0 0-.1.88c.04.3.14.6.3.9a5.35 5.35 0 0 0 1.97 2.03c.44.24.84.4 1.22.45Zm2.28-7.26a3 3 0 0 0-.69-.59 2.52 2.52 0 0 0-.78-.3 2 2 0 0 0-1.64.34l2.97 3.38c.46-.4.7-.85.75-1.33.05-.5-.16-.99-.6-1.5Z"/><path fill="#2e9aff" d="M810.9 117.76a28.78 28.78 0 0 1-2.6 40.63 28.8 28.8 0 0 1 40.64 2.6"/><path fill="#fff" d="M848.94 162.5c-.42 0-.84-.17-1.14-.51a27.3 27.3 0 0 0-38.48-2.47l-.01.01a1.52 1.52 0 0 1-2.01-2.28l.01-.01a27.08 27.08 0 0 0 9.2-18.73 27.09 27.09 0 0 0-6.75-19.74 1.52 1.52 0 1 1 2.28-2.01 30.1 30.1 0 0 1 7.5 21.95 30.1 30.1 0 0 1-4.1 13.4 30.37 30.37 0 0 1 34.64 7.87 1.52 1.52 0 0 1-1.14 2.52Z"/><path fill="#2e9aff" d="M506.16 193.68a33 33 0 0 1 46.58 2.97 33 33 0 0 1 2.97-46.57"/><path fill="#fff" d="M552.74 198.17a1.5 1.5 0 0 1-1.14-.51 31.27 31.27 0 0 0-21.63-10.62 31.27 31.27 0 0 0-22.8 7.78 1.52 1.52 0 1 1-2.01-2.28 34.27 34.27 0 0 1 25-8.54c5.72.37 11.13 2.1 15.87 5.02a34.59 34.59 0 0 1 8.68-40.09 1.53 1.53 0 0 1 2.14.14c.56.63.5 1.59-.14 2.14a31.52 31.52 0 0 0-2.83 44.44 1.52 1.52 0 0 1-1.14 2.52Z"/><path fill="#2e9aff" d="M735.4 454.14a33 33 0 0 0 2.97-46.58 33 33 0 0 0 46.58 2.97"/><path fill="#fff" d="M735.4 455.66a1.52 1.52 0 0 1-1-2.67 31.52 31.52 0 0 0 2.83-44.43 1.52 1.52 0 0 1 2.28-2 31.28 31.28 0 0 0 21.63 10.61 31.28 31.28 0 0 0 22.8-7.79 1.52 1.52 0 0 1 2.02 2.29 34.28 34.28 0 0 1-25 8.54 34.34 34.34 0 0 1-15.88-5.02 34.58 34.58 0 0 1-8.67 40.08c-.28.25-.64.39-1 .39Z"/><path fill="#2e9aff" d="M797.7 111.75a7.84 7.84 0 0 1-11.07-.7 7.84 7.84 0 1 1 11.77-10.37 7.84 7.84 0 0 1-.7 11.07Z"/><path fill="#fff" d="M792.51 115.22a9.36 9.36 0 1 1 0-18.73 9.36 9.36 0 0 1 0 18.73Zm0-15.68a6.32 6.32 0 1 0 0 12.64 6.32 6.32 0 0 0 0-12.64Z"/><path fill="#2e9aff" d="M865.79 180.2a7.84 7.84 0 1 1-15.69 0 7.84 7.84 0 0 1 15.69 0Z"/><path fill="#fff" d="M857.94 189.56a9.37 9.37 0 0 1 0-18.72 9.37 9.37 0 0 1 0 18.72Zm0-15.68a6.33 6.33 0 1 0 .02 12.66 6.33 6.33 0 0 0-.02-12.66ZM182.79 520.1a25.37 25.37 0 0 1-22.86-14.16l-157-315.76a25.34 25.34 0 0 1-1.35-19.48 25.34 25.34 0 0 1 12.83-14.72l145.5-72.35a25.25 25.25 0 0 1 11.34-2.67c9.75 0 18.51 5.43 22.85 14.16l157.01 315.76a25.54 25.54 0 0 1-11.48 34.2l-145.5 72.34a25.27 25.27 0 0 1-11.34 2.67Zm-11.54-425c-1.76 0-3.46.4-5.05 1.2L20.7 168.64a11.31 11.31 0 0 0-5.71 6.57 11.3 11.3 0 0 0 .6 8.68l157 315.75a11.32 11.32 0 0 0 15.24 5.12l145.5-72.34a11.4 11.4 0 0 0 5.12-15.25l-157-315.75a11.32 11.32 0 0 0-10.2-6.32Z"/><path fill="#fff" d="m140.42 94.16 4.3 19.23c1.08 4.88-1.69 10.68-6.16 12.9l-72.94 36.28c-4.47 2.22-10.77.92-14-2.89l-12.75-15.03m138.93 66.31a44.54 44.54 0 1 1-89.07 0 44.54 44.54 0 0 1 89.08 0Z"/><path fill="#2e9aff" d="m117.3 177.98-.14.07a33.55 33.55 0 0 1-19.88 39.92l.13.7-1.12.4a11.73 11.73 0 0 0-7.17 7.34c-1 2.97-.78 6.21.62 9.01a11.74 11.74 0 0 0 15.83 5.32 11.9 11.9 0 0 0 2.42-1.6l.9-.78.92.76a36.8 36.8 0 0 0 23.49 8.5 36.69 36.69 0 0 0 36.59-38.36l-.06-1.2 1.17-.25a11.82 11.82 0 0 0-2.53-23.34 11.7 11.7 0 0 0-6.42 1.9l-1 .64-.45-.48a33.48 33.48 0 0 1-43.3-8.55Zm-12.04 56.83a1.41 1.41 0 0 1-1.83.8l-11.18-4.27a1.41 1.41 0 1 1 1.01-2.64l11.18 4.28a1.4 1.4 0 0 1 .82 1.83Zm61.55-32.84 3.33-11.5a1.41 1.41 0 0 1 2.72.79l-3.34 11.5a1.42 1.42 0 0 1-2.71-.79Z"/><path d="M118.33 186.84c0-2.97-.4-5.93-1.17-8.8l-.2.1A36.82 36.82 0 0 0 97.2 217.5l.08.48a33.55 33.55 0 0 0 21.05-31.13Zm14.9-12.54c-5.54 0-10.9 1.24-15.93 3.68a33.48 33.48 0 0 0 43.3 8.55l-.35-.39a36.77 36.77 0 0 0-27.01-11.84Z"/><path d="M181.58 189.76a14.57 14.57 0 0 0-20.04-6.37 39.62 39.62 0 0 0-28.3-11.92c-6.13 0-12.03 1.4-17.55 4.14a39.67 39.67 0 0 0-21.47 41.25 14.53 14.53 0 0 0-7.78 8.65 14.5 14.5 0 0 0 .77 11.17 14.55 14.55 0 0 0 13.11 8.12 14.48 14.48 0 0 0 8.57-2.78 39.64 39.64 0 0 0 24.4 8.42h.01a39.52 39.52 0 0 0 39.45-40.18 14.65 14.65 0 0 0 8.83-20.5Zm-7.22 18.35c-1 .5-2.02.85-3.06 1.07a38.07 38.07 0 0 1-62.4 31.03 13.22 13.22 0 1 1-13.1-22.47 38.08 38.08 0 0 1 20.52-40.87l.13-.05.3-.15a38.08 38.08 0 0 1 44.54 8.51 13.31 13.31 0 0 1 3.66-1.64 13.21 13.21 0 0 1 9.41 24.57Z"/><path d="M180.31 190.39a13.21 13.21 0 0 0-15.36-6.85 33.62 33.62 0 0 1-4.35 2.99l.45.48 1-.64a11.7 11.7 0 0 1 6.42-1.9A11.82 11.82 0 0 1 171 207.8l-1.17.25.05 1.2a36.68 36.68 0 0 1-36.58 38.35c-8.58 0-16.9-3-23.5-8.49l-.9-.76-.91.77a11.9 11.9 0 0 1-7.67 2.84c-4.51 0-8.57-2.5-10.58-6.55a11.73 11.73 0 0 1-.62-9.01 11.73 11.73 0 0 1 7.17-7.34l1.12-.4-.13-.7c-1.53.61-3.1 1.11-4.7 1.5a13.2 13.2 0 1 0 16.32 20.74 38.07 38.07 0 0 0 62.4-31.02 13.22 13.22 0 0 0 9.01-18.8Zm-63.27-12.74.12.4.14-.07-.26-.33Z"/><path d="M97.2 217.5a36.82 36.82 0 0 1 19.75-39.36l.2-.1-.1-.4c-.21-.27-.4-.55-.6-.82l-.13.05a38.08 38.08 0 0 0-20.52 40.87 12.98 12.98 0 0 0-3.22 1.72c1.6-.38 3.17-.88 4.7-1.5Zm20.1-39.52a36.24 36.24 0 0 1 15.94-3.68c10.25 0 20.1 4.32 27 11.84l.36.39a33.62 33.62 0 0 0 4.35-2.99 13.32 13.32 0 0 0-3.66 1.64 38.08 38.08 0 0 0-44.53-8.51l.28.98.26.33Z"/><path d="m116.75 176.67-.3.15.6.83-.3-.98Zm-12.3 56.3-11.19-4.27a1.41 1.41 0 0 0-1 2.64l11.17 4.28a1.42 1.42 0 0 0 1.8-1.9 1.4 1.4 0 0 0-.79-.74Zm63.32-29.25a1.42 1.42 0 0 0 1.75-.96l3.34-11.5a1.41 1.41 0 1 0-2.72-.79l-3.33 11.5a1.41 1.41 0 0 0 .96 1.75Zm-42.82 18.38a5.02 5.02 0 1 1-10.04 0 5.02 5.02 0 0 1 10.04 0Z"/><path d="M111.3 228.74a1.41 1.41 0 0 1-1.4-1.62 13.57 13.57 0 0 1 20.04-9.97 1.41 1.41 0 0 1-1.37 2.48 10.75 10.75 0 0 0-15.88 7.89c-.1.7-.69 1.22-1.4 1.22Zm43-21.24a5.02 5.02 0 1 1-10.05 0 5.02 5.02 0 0 1 10.05 0Z"/><path d="M140.65 214.15a1.41 1.41 0 0 1-1.4-1.62 13.58 13.58 0 0 1 20.04-9.97 1.42 1.42 0 0 1-1.37 2.47 10.75 10.75 0 0 0-15.88 7.9c-.1.7-.7 1.21-1.4 1.22Zm-2.55 8.54a1.4 1.4 0 0 1-1.26-.79l-3.26-6.55a1.41 1.41 0 0 1 2.53-1.25l3.26 6.54a1.41 1.41 0 0 1-1.27 2.05Z"/><path fill="#fff" d="M146 221.99a6.61 6.61 0 1 1-11.85 5.89"/><path fill="#2e9aff" d="M272.13 358.42c4.56 9.17.82 20.3-8.35 24.86l-73.15 36.37a18.54 18.54 0 0 1-16.5-33.2l73.14-36.38a18.55 18.55 0 0 1 24.86 8.35Z"/><path fill="#fff" d="M182.4 422.85a19.7 19.7 0 0 1-17.75-10.99 19.66 19.66 0 0 1-1.04-15.11 19.67 19.67 0 0 1 9.95-11.43l73.16-36.37a19.6 19.6 0 0 1 8.79-2.07 19.7 19.7 0 0 1 17.74 10.99 19.66 19.66 0 0 1 1.05 15.1 19.67 19.67 0 0 1-9.96 11.43l-73.15 36.38a19.61 19.61 0 0 1-8.8 2.07Zm73.11-73.46c-2.68 0-5.26.61-7.68 1.81l-73.15 36.38a17.16 17.16 0 0 0-8.69 9.97 17.16 17.16 0 0 0 .91 13.2 17.2 17.2 0 0 0 15.5 9.59c2.67 0 5.25-.61 7.67-1.81l73.15-36.38a17.17 17.17 0 0 0 8.7-9.97 17.16 17.16 0 0 0-.92-13.2 17.2 17.2 0 0 0-15.49-9.59Z"/><path fill="#fff" d="m184.4 404.28.06-.03-1.3-6.44 1.58-.78 1.53 8.91-1.73.86-6.25-6.56 1.7-.85Zm4.34-1.1 1.95-.96-1.54-3.1-1.95.97-.6-1.22 3.39-1.7 2.14 4.33 2.05-1.02.6 1.22-5.43 2.7Zm-1.21-6.66a.88.88 0 0 1-.04-.71c.1-.25.29-.44.59-.6.31-.15.6-.2.86-.13a.84.84 0 0 1 .58 1.17c-.1.25-.31.44-.63.6-.3.15-.57.2-.82.13a.81.81 0 0 1-.54-.46Zm13.44 1.38a4.15 4.15 0 0 1-1.24 1.46 4.7 4.7 0 0 1-2.11.88 2.81 2.81 0 0 1-2.29-.74c-.33-.32-.6-.7-.81-1.12a3.63 3.63 0 0 1-.4-1.4 2.85 2.85 0 0 1 .85-2.24 4.07 4.07 0 0 1 2.01-1.1c.34-.06.68-.07 1.02-.02.34.06.66.2.97.42.31.22.59.57.82 1.03.15.32.29.68.4 1.09l-3.99 1.98c.13.23.27.4.45.52.17.12.36.2.56.22.2.03.41.02.63-.03a3.6 3.6 0 0 0 1.68-.94c.23-.24.4-.48.5-.72Zm-4.36-2.77a2 2 0 0 0-.5.36c-.15.13-.27.28-.35.45-.19.36-.2.77-.05 1.14l2.72-1.36c-.18-.37-.43-.6-.74-.72-.3-.12-.67-.07-1.08.13Zm7.17-3.15 2.04 2.01.06-.02-.38-1-.94-3.03 1.3-.65 1.64 6.1-1.46.72-1.7-1.89-.06.03.4 2.54-1.5.75-3.92-4.97 1.44-.71 2.07 2.8.43.64.05-.02-.38-2.84Zm15.13-5.52 1.22-.6 1.1 2.22c-.15.28-.39.56-.7.84a4.85 4.85 0 0 1-2.56 1.18 3.38 3.38 0 0 1-2.92-.97 5.76 5.76 0 0 1-1.23-1.72 5.3 5.3 0 0 1-.61-2.08 3.65 3.65 0 0 1 1.1-2.94 5.34 5.34 0 0 1 3.25-1.41l1.15 2.3-1.22.6-.63-1.26c-.25.08-.5.18-.74.3-.27.14-.52.33-.72.56-.2.23-.33.5-.4.81-.08.32-.08.67-.02 1.06s.21.81.44 1.27c.2.4.43.73.69 1.02.25.28.54.5.84.64a2.11 2.11 0 0 0 1.95-.05c.24-.12.47-.26.68-.42Zm-.84-6 2.24-1.12 1.41 2.83.05-.02c.06-.32.2-.63.42-.91.23-.3.54-.53.94-.73.28-.14.56-.23.83-.27.28-.05.54-.03.8.06.25.08.5.25.74.49s.47.58.68 1l1.71 3.45-1.44.72-1.56-3.14c-.23-.45-.48-.73-.77-.84-.3-.1-.6-.07-.9.08-.28.14-.49.34-.64.62-.14.27-.2.58-.17.88l1.76 3.53-1.44.72-3.25-6.53-.8.4Zm8.94-1.22a6.65 6.65 0 0 1 2.16-1.68c.38-.19.73-.3 1.05-.35a1.68 1.68 0 0 1 1.51.5c.2.2.36.44.51.74.19.38.33.7.44.98a7.88 7.88 0 0 0 .78 1.52l.72-.36.6 1.23-1.86.92-.52-.69-.05.03a2.1 2.1 0 0 1-.34.9c-.18.3-.51.57-.97.8a2.1 2.1 0 0 1-1.53.21 1.69 1.69 0 0 1-1.07-.93c-.16-.31-.23-.6-.23-.9 0-.28.07-.54.22-.8.14-.25.35-.48.62-.7a5 5 0 0 1 1.4-.8l.56-.23a1.12 1.12 0 0 0-.09-.23l-.1-.2c-.14-.29-.32-.45-.55-.5-.22-.03-.49.03-.8.18-.38.19-.69.4-.94.65-.22.2-.43.43-.62.66Zm3.9 3.13c.36-.17.59-.37.7-.58.1-.22.17-.42.17-.61l-.33-.67-.35.12a4.23 4.23 0 0 0-.88.45c-.12.09-.22.19-.31.3a.81.81 0 0 0-.16.36c-.02.12 0 .25.06.36.1.21.25.34.42.4.18.05.4.01.69-.13Zm1.7-6.38 1.93-.97.53.65.05-.02c.05-.32.19-.65.42-.98a2.6 2.6 0 0 1 1-.84c.27-.13.55-.22.83-.27.28-.05.54-.02.8.06a2 2 0 0 1 .75.5c.24.23.47.57.69 1l1.7 3.45-1.43.71-1.56-3.14c-.23-.45-.5-.73-.8-.82-.3-.1-.6-.07-.91.08a1.44 1.44 0 0 0-.8 1.43l1.79 3.59-1.44.71-2.15-4.31-.8.4Zm6.64-3.3 1.94-.97.53.65.04-.02a2.57 2.57 0 0 1 1.43-1.81c.28-.15.55-.23.83-.28.28-.04.54-.02.8.07a2 2 0 0 1 .74.48c.25.25.48.58.7 1.01l1.7 3.44-1.44.72-1.56-3.15c-.22-.44-.49-.72-.79-.82-.3-.1-.6-.06-.92.09a1.43 1.43 0 0 0-.8 1.43l1.8 3.59-1.45.71-2.15-4.32-.8.4Zm14.9-1.23a4.65 4.65 0 0 1-3.35 2.34 2.78 2.78 0 0 1-2.29-.74c-.34-.32-.61-.7-.81-1.12a3.64 3.64 0 0 1-.4-1.4 2.87 2.87 0 0 1 .85-2.24 4.06 4.06 0 0 1 2.01-1.09 2.37 2.37 0 0 1 2.8 1.42 6 6 0 0 1 .4 1.1l-3.98 1.97c.12.23.27.41.44.53.18.11.36.18.56.21.2.03.42.02.64-.03a3.6 3.6 0 0 0 1.68-.94c.23-.23.4-.47.5-.71Zm-4.37-2.77c-.19.1-.36.21-.5.35-.15.14-.26.3-.34.46a1.4 1.4 0 0 0-.16.55c0 .2.02.39.1.58l2.73-1.35a1.4 1.4 0 0 0-.74-.73c-.31-.11-.67-.06-1.09.14Zm2.5-5.24 2.35-1.18 2.55 5.12c.28.57.55.93.8 1.08.25.15.53.15.84 0a1.98 1.98 0 0 0 .87-.79l1.04.73-.27.42c-.19.28-.43.52-.71.71-.17.12-.35.23-.54.32-.7.34-1.3.42-1.83.24-.52-.18-.94-.6-1.27-1.25l-2.31-4.65-.92.46Z"/><path fill="#231f20" d="M116.86 331.54a1.41 1.41 0 0 1-.63-2.68l123.44-61.38a1.41 1.41 0 0 1 1.26 2.54L117.49 331.4c-.2.1-.4.14-.63.14Zm27.39 7.44a1.42 1.42 0 0 1-.63-2.68l85.45-42.49a1.42 1.42 0 0 1 1.26 2.53l-85.45 42.5c-.2.1-.41.14-.63.14Zm-4.27 23.18a1.42 1.42 0 0 1-.63-2.68l110.78-55.08a1.41 1.41 0 0 1 1.26 2.53L140.6 362c-.2.1-.41.15-.63.15Zm33.72 4.29a1.41 1.41 0 0 1-.63-2.68l60.13-29.9a1.42 1.42 0 0 1 1.26 2.53l-60.13 29.9c-.2.1-.42.15-.63.15Zm33.78 67.95a1.41 1.41 0 0 1-.63-2.68l60.13-29.9a1.41 1.41 0 1 1 1.26 2.53l-60.13 29.9c-.2.1-.41.14-.63.14Zm20.95 10.37a1.41 1.41 0 0 1-.63-2.68l34.81-17.31a1.41 1.41 0 1 1 1.26 2.53l-34.8 17.31c-.2.1-.42.15-.64.15Z"/><path d="m126.75 289.3 6.88-3.41 3.65 7.34c.3.62.52 1.25.63 1.88a3.87 3.87 0 0 1-.67 2.94 5.06 5.06 0 0 1-1.44 1.33c-.68.44-1.44.75-2.22.94a5.6 5.6 0 0 1-1.8.12l-.09-2.21c.54.03.98.01 1.32-.06.38-.1.75-.23 1.1-.4.24-.13.48-.3.71-.53.24-.23.4-.52.5-.84.18-.6.08-1.28-.29-2.03l-2.66-5.35-4.62 2.3Zm12.62 2.97a5.65 5.65 0 0 1-.6-2 4.1 4.1 0 0 1 1.16-3.34c.43-.45.98-.85 1.64-1.17a5.36 5.36 0 0 1 2-.6 4 4 0 0 1 3.35 1.14c.46.44.85.99 1.17 1.63.34.7.55 1.36.6 2a4.22 4.22 0 0 1-1.16 3.34c-.47.49-1.03.89-1.64 1.18-.69.35-1.36.55-2 .6a4.3 4.3 0 0 1-1.82-.19 4.2 4.2 0 0 1-1.53-.95 5.92 5.92 0 0 1-1.17-1.64Zm2.2-1.1c.18.37.4.68.65.93.25.27.53.46.83.6a2.18 2.18 0 0 0 1.94-.06 2.31 2.31 0 0 0 1.25-1.39c.2-.6.08-1.34-.36-2.22a3.2 3.2 0 0 0-1.47-1.56 2.15 2.15 0 0 0-1.94.1c-.3.15-.57.34-.79.56-.22.23-.37.49-.46.79a2.5 2.5 0 0 0-.06 1.02c.05.37.2.78.41 1.23Zm3.42-10.93 3.32-1.65 2.1 4.21.06-.03c.09-.48.3-.94.63-1.36a4 4 0 0 1 1.4-1.08c.38-.2.8-.34 1.23-.41a2.46 2.46 0 0 1 2.28.82c.36.37.7.87 1.01 1.5l2.55 5.12-2.14 1.06-2.33-4.67c-.33-.67-.71-1.08-1.15-1.24a1.68 1.68 0 0 0-1.34.12 2.25 2.25 0 0 0-1.19 2.24l2.61 5.24-2.13 1.06-4.83-9.7-1.19.58Zm11.7-1.72 2.88-1.43.8.96.06-.03a3.81 3.81 0 0 1 2.13-2.7c.38-.2.8-.33 1.22-.4.4-.07.8-.04 1.19.09.37.12.74.37 1.1.73.37.36.71.85 1.03 1.5l2.54 5.1-2.14 1.07-2.32-4.68c-.33-.66-.72-1.07-1.17-1.22-.45-.15-.9-.1-1.37.12-.4.2-.73.52-.93.91-.22.37-.3.8-.25 1.22l2.65 5.33-2.14 1.07-3.19-6.42-1.19.59Zm18.74-13.42.5-.3a25.37 25.37 0 0 1 1.76-1c.33-.19.63-.34.89-.47a7 7 0 0 1 2.75-.81 4.3 4.3 0 0 1 2.2.43c.65.33 1.23.81 1.73 1.44a12.25 12.25 0 0 1 2.26 4.54c.2.8.25 1.58.13 2.34a4.8 4.8 0 0 1-.98 2.2 6.98 6.98 0 0 1-2.47 1.87 55.8 55.8 0 0 1-3.03 1.3Zm4.23.2a8.88 8.88 0 0 0-1.02.59l3.84 7.72.2-.07.28-.12.28-.12.22-.1a3.2 3.2 0 0 0 1.35-1.1c.26-.43.39-.88.38-1.36 0-.5-.1-1-.28-1.48a14.18 14.18 0 0 0-1.36-2.75 4.26 4.26 0 0 0-.96-1.07 2.63 2.63 0 0 0-1.27-.51 2.95 2.95 0 0 0-1.66.37Zm9.09 2.42a5.62 5.62 0 0 1-.6-2 4.2 4.2 0 0 1 1.15-3.34 5.9 5.9 0 0 1 1.65-1.18 5.76 5.76 0 0 1 2-.6 4.14 4.14 0 0 1 3.34 1.15c.47.44.86.98 1.18 1.63.34.7.55 1.36.6 2a4.22 4.22 0 0 1-1.16 3.34c-.43.45-.98.85-1.64 1.17-.7.35-1.36.55-2 .61a4.08 4.08 0 0 1-3.34-1.15 5.85 5.85 0 0 1-1.18-1.63Zm2.2-1.1c.18.36.4.67.65.93.23.25.52.45.83.6a2.18 2.18 0 0 0 1.94-.06 2.33 2.33 0 0 0 1.25-1.39c.2-.6.08-1.34-.36-2.22a3.19 3.19 0 0 0-1.47-1.56 2.15 2.15 0 0 0-1.94.1 3.1 3.1 0 0 0-.8.56c-.2.22-.36.49-.45.79-.09.3-.1.64-.06 1.01a4 4 0 0 0 .41 1.24Zm17.5-4.65c-.1.23-.22.45-.36.66a5.84 5.84 0 0 1-1.48 1.5 6.87 6.87 0 0 1-3.14 1.32c-.62.08-1.24.02-1.83-.16a4.25 4.25 0 0 1-1.56-.93 5.7 5.7 0 0 1-1.21-1.67 5.42 5.42 0 0 1-.6-2.07 4.26 4.26 0 0 1 1.27-3.35 6.2 6.2 0 0 1 2.98-1.62c.5-.1 1.01-.12 1.51-.04a3.5 3.5 0 0 1 2.65 2.16c.24.47.44 1 .6 1.6l-5.92 2.96a1.93 1.93 0 0 0 1.5 1.1c.3.03.61.02.94-.06a5.45 5.45 0 0 0 2.49-1.4c.35-.35.6-.7.75-1.06Zm-6.48-4.11a3 3 0 0 0-.75.52c-.2.2-.38.43-.51.69a2.03 2.03 0 0 0-.08 1.68l4.05-2.02a2 2 0 0 0-1.1-1.07c-.46-.17-1-.1-1.61.2Z"/><path fill="#231f20" d="M473.04 730.94a44.01 44.01 0 0 1-40.74-27.6c-8.8-21.9 1.28-46.83 22.51-56.33l-.01-.03 1.4-.56 162.66-65.4 1.04 2.6L457.25 649c-20.75 8.44-30.78 32.34-22.36 53.3 8.42 20.95 32.21 31.26 53.03 22.98l.52-.2 162.13-65.19 1.04 2.6-163.17 65.6-.01-.01a42.99 42.99 0 0 1-15.4 2.85Zm134.27-6.67-.55-1.09 1.18-.6-.49-1.21 96.42-38.77v.03l87.28-35.1a19.01 19.01 0 0 0 10.35-24.7 19.01 19.01 0 0 0-24.57-10.65l-5.94 2.38-.98-2.44 6.75-2.72.02.02a21.66 21.66 0 0 1 27.17 12.44 21.65 21.65 0 0 1-11.81 28.12L700.05 687l.01-.02Z"/><path fill="#231f20" d="M801.37 622.56 769.81 544a19.02 19.02 0 0 0-24.58-10.66l-6.5 2.62-.99-2.45 6.52-2.61a21.66 21.66 0 0 1 28 12.12l31.56 78.56Z"/><path fill="#2e9aff" d="m754.46 632.43-80.1 32.2a21.1 21.1 0 0 1-27.44-11.7l7.38 18.35a21.08 21.08 0 0 0 27.43 11.7l80.1-32.2a21.1 21.1 0 0 0 11.7-27.44l-7.37-18.35a21.1 21.1 0 0 1-11.7 27.44Z"/><path fill="#fff" d="M673.87 685.82c-9.2 0-17.36-5.52-20.8-14.05l-7.37-18.35 2.44-.98.01.02a19.69 19.69 0 0 0 25.72 10.94l80.1-32.2a19.8 19.8 0 0 0 10.98-25.7v-.02l2.44-.98 7.37 18.34A22.44 22.44 0 0 1 762.33 652l-80.1 32.2a22.3 22.3 0 0 1-8.36 1.62Zm-21.78-23.56 3.43 8.52a19.69 19.69 0 0 0 25.72 10.97l80.1-32.2a19.8 19.8 0 0 0 10.98-25.72l-3.45-8.57a22.43 22.43 0 0 1-13.91 18.39l-80.1 32.2a22.34 22.34 0 0 1-22.76-3.59Z"/><path fill="#fff" d="M666.5 667.48c-9.2 0-17.37-5.52-20.8-14.06l-32.2-80.1a22.44 22.44 0 0 1 12.42-29.15l80.11-32.2a22.32 22.32 0 0 1 29.15 12.43l32.2 80.1a22.43 22.43 0 0 1-12.43 29.15l-80.1 32.2a22.36 22.36 0 0 1-8.35 1.63Zm47.88-154.5c-2.52 0-5 .48-7.37 1.43l-80.1 32.2a19.8 19.8 0 0 0-10.97 25.73l32.2 80.1a19.7 19.7 0 0 0 18.36 12.4c2.52 0 5-.48 7.37-1.43l80.1-32.2a19.8 19.8 0 0 0 10.97-25.73l-32.2-80.1a19.7 19.7 0 0 0-18.36-12.4Z"/><path fill="#fff" d="M737.18 582.4a36.77 36.77 0 1 1-73.53 0 36.77 36.77 0 0 1 73.53 0Z"/><path fill="#2e9aff" d="m728.57 571.34-.05-.12a27.7 27.7 0 0 1-31.6-18.89l-.58.06-.27-.95a9.7 9.7 0 0 0-13.03-6.43 9.76 9.76 0 0 0-4.21 14.79l.58.8-.69.7a30.28 30.28 0 0 0 20.78 51.34l.99.03.13.97a9.71 9.71 0 0 0 13.3 7.69 9.67 9.67 0 0 0 5.32-5.23 9.68 9.68 0 0 0-.41-8.46l-.47-.86.42-.34a27.67 27.67 0 0 1 9.78-35.1Zm-40.22-23-4.23 8.93a1.17 1.17 0 0 1-2.11-1l4.23-8.93a1.17 1.17 0 0 1 2.11 1Zm27.28 67.2a1.17 1.17 0 0 1-1.5.69l-9.26-3.48a1.17 1.17 0 0 1 .82-2.18l9.25 3.47c.6.23.91.9.69 1.5Z"/><path d="M723.34 571.7c1.77 0 3.5-.17 5.18-.48l-.06-.18a30.14 30.14 0 0 0-31.14-18.75l-.4.04a27.7 27.7 0 0 0 26.42 19.38Zm5.23-.36a27.66 27.66 0 0 0-9.78 35.1l.34-.27a30.39 30.39 0 0 0 9.44-34.83Z"/><path d="m721.47 607.76-.15-.35a32.75 32.75 0 0 0 9.3-37.25 32.47 32.47 0 0 0-32.59-20.28 12.03 12.03 0 0 0-15.87-7.03 12.1 12.1 0 0 0-5.76 17.51 32.62 32.62 0 0 0 22.08 54.57 12.04 12.04 0 0 0 16.32 8.57 12 12 0 0 0 6.6-6.49 12 12 0 0 0 .07-9.25Zm-7.1 14.65a10.92 10.92 0 0 1-14.9-8.6 31.42 31.42 0 0 1-21.59-53.32 10.91 10.91 0 1 1 19.32-9.36 31.44 31.44 0 0 1 32.34 19.47l.04.1.1.27a31.43 31.43 0 0 1-9.82 36.12 11.5 11.5 0 0 1 1.12 3.12 10.9 10.9 0 0 1-6.61 12.2Z"/><path d="m728.85 571.16-.33.06.05.12.28-.18Zm-10.06 35.28-.43.34.47.86a9.67 9.67 0 0 1 .41 8.46 9.67 9.67 0 0 1-8.96 5.94 9.71 9.71 0 0 1-9.66-8.4l-.13-.98-.99-.02a30.28 30.28 0 0 1-20.78-51.34l.69-.7-.58-.8a9.76 9.76 0 0 1 7.86-15.5 9.7 9.7 0 0 1 9.39 7.13l.26.96.58-.06c-.4-1.3-.72-2.63-.93-3.98a10.9 10.9 0 1 0-18.1 12.13 31.43 31.43 0 0 0 21.58 53.32 10.91 10.91 0 1 0 21.51-3.6 27.46 27.46 0 0 1-2.2-3.76Z"/><path d="M697.32 552.29a30.14 30.14 0 0 1 31.14 18.75l.06.18.33-.06.73-.46-.04-.1a31.44 31.44 0 0 0-32.34-19.47 10.52 10.52 0 0 0-1.21-2.78c.21 1.36.52 2.7.93 3.98Zm31.25 19.05a30.39 30.39 0 0 1-9.44 34.83l-.34.27a27.65 27.65 0 0 0 2.19 3.77 10.8 10.8 0 0 0-1.13-3.12 31.43 31.43 0 0 0 9.83-36.12l-.83.19-.28.18Z"/><path d="m729.68 570.97-.1-.27-.73.46.83-.2Zm-41.88-24.18a1.17 1.17 0 0 0-1.56.55l-4.23 8.93a1.17 1.17 0 0 0 2.1 1l4.24-8.93c.28-.58.03-1.28-.55-1.55Zm27.14 67.25-9.25-3.47a1.17 1.17 0 1 0-.82 2.18l9.25 3.48a1.17 1.17 0 0 0 .82-2.19Zm-21.3-39.49a4.15 4.15 0 1 1-3.1-7.7 4.15 4.15 0 0 1 3.1 7.7Z"/><path d="M694.55 579.78a1.17 1.17 0 0 1-.97-1.8 8.86 8.86 0 0 0-5.5-13.58 1.17 1.17 0 0 1 .51-2.28 11.22 11.22 0 0 1 6.93 17.14c-.21.33-.58.52-.97.52Zm9.25 19.85a4.14 4.14 0 1 1-3.12-7.68 4.14 4.14 0 0 1 3.12 7.68Z"/><path d="M704.7 604.87a1.16 1.16 0 0 1-.97-1.82 8.87 8.87 0 0 0-5.5-13.56 1.17 1.17 0 1 1 .51-2.28 11.21 11.21 0 0 1 6.93 17.13c-.21.33-.58.53-.97.53Zm-13.08-17.99a1.17 1.17 0 0 1-.44-2.25l5.6-2.26a1.17 1.17 0 0 1 .87 2.16l-5.6 2.27c-.13.06-.28.08-.43.09Z"/><path fill="#fff" d="M690.53 592.17a5.46 5.46 0 1 1-4.1-10.13"/><path d="m645.77 569.08 2.4 5.87-6.26 2.56c-.5.21-1.04.35-1.58.41a3.14 3.14 0 0 1-2.38-.73 4.21 4.21 0 0 1-1.26-1.79 4.86 4.86 0 0 1-.38-2.84l1.82.06c-.06.43-.07.8-.03 1.08.04.29.13.6.27.93.09.21.22.42.4.62.18.2.4.36.65.46.5.19 1.06.15 1.7-.12l4.55-1.87-1.61-3.94Zm-3.19 10.21a4.71 4.71 0 0 1 1.68-.38 3.46 3.46 0 0 1 2.68 1.15c.36.4.65.87.87 1.43.24.59.37 1.15.39 1.69a3.46 3.46 0 0 1-1.15 2.69c-.4.35-.86.64-1.42.86-.59.24-1.14.37-1.68.38a3.45 3.45 0 0 1-2.68-1.15c-.37-.42-.67-.9-.87-1.43a4.76 4.76 0 0 1-.38-1.69 3.41 3.41 0 0 1 1.15-2.68c.39-.35.86-.64 1.41-.87Zm.77 1.88c-.3.13-.57.29-.8.48-.22.18-.4.4-.54.65a1.81 1.81 0 0 0-.06 1.6c.22.55.57.92 1.06 1.12.48.2 1.1.14 1.85-.16.65-.27 1.1-.64 1.37-1.12.27-.49.28-1.02.04-1.6-.1-.26-.24-.49-.42-.7a1.58 1.58 0 0 0-.63-.41c-.26-.1-.55-.14-.83-.12-.3.02-.65.1-1.04.26Zm8.8 3.46 1.16 2.84-3.6 1.48.03.05c.4.1.75.3 1.08.6.34.31.6.7.81 1.22.15.35.24.7.27 1.04.02.34-.02.65-.15.96-.13.3-.35.6-.67.86-.32.28-.75.52-1.3.75l-4.36 1.79-.75-1.83 3.99-1.63c.57-.24.93-.52 1.08-.88.16-.34.15-.71-.01-1.1a1.88 1.88 0 0 0-1.77-1.12l-4.47 1.84-.75-1.82 8.27-3.4-.4-1Zm.72 9.75 1 2.45-.83.6.02.05a3.18 3.18 0 0 1 2.1 1.91c.14.35.22.7.26 1.03a2 2 0 0 1-.15.98c-.13.3-.35.6-.67.87a4.5 4.5 0 0 1-1.28.75l-4.37 1.79-.75-1.82 3.99-1.64c.56-.23.93-.53 1.07-.9.15-.36.14-.73-.02-1.13a1.75 1.75 0 0 0-.69-.82c-.3-.2-.64-.3-1-.28l-4.54 1.87-.75-1.83 5.48-2.24-.41-1Zm9.94 16.22.22.43a24.05 24.05 0 0 1 1.05 2.26c.35.88.52 1.65.5 2.32a3.6 3.6 0 0 1-.48 1.79c-.33.53-.77.99-1.29 1.34a10.32 10.32 0 0 1-3.87 1.58 4.7 4.7 0 0 1-1.94-.03 3.96 3.96 0 0 1-1.75-.94c-.54-.48-1-1.19-1.4-2.14l-.22-.58-.25-.73c-.1-.25-.17-.49-.25-.72a6.32 6.32 0 0 1-.17-.54Zm-.42 3.47a5.34 5.34 0 0 0-.23-.52l-.19-.36-6.58 2.7a.8.8 0 0 0 .05.18l.07.23.09.24.06.2c.23.53.5.92.84 1.16.33.24.7.38 1.09.4.4.02.8-.02 1.23-.15a12.5 12.5 0 0 0 2.35-.95c.37-.2.68-.44.93-.73.26-.29.43-.63.5-1.02.08-.38.01-.85-.2-1.38Zm-2.53 7.34a4.75 4.75 0 0 1 1.68-.38 3.46 3.46 0 0 1 2.68 1.15c.35.39.64.86.87 1.43.24.59.37 1.15.38 1.68a3.37 3.37 0 0 1-1.15 2.68c-.41.37-.89.67-1.4.87a4.6 4.6 0 0 1-1.7.38 3.48 3.48 0 0 1-2.68-1.15c-.37-.42-.66-.9-.87-1.42a4.9 4.9 0 0 1-.38-1.7 3.27 3.27 0 0 1 1.15-2.68c.42-.36.9-.66 1.42-.86Zm.77 1.88a3 3 0 0 0-.8.47c-.22.18-.4.4-.54.65a1.83 1.83 0 0 0-.07 1.6c.23.54.57.92 1.06 1.12.49.2 1.1.14 1.86-.16.64-.27 1.1-.64 1.36-1.12.27-.48.28-1.02.04-1.6-.1-.26-.24-.49-.42-.7a1.58 1.58 0 0 0-.62-.41c-.27-.1-.55-.14-.83-.11-.31.01-.66.1-1.04.26Zm2.8 14.68a4.47 4.47 0 0 1-1.1-.89 5.2 5.2 0 0 1-1.07-1.7 4.98 4.98 0 0 1-.4-1.71c-.03-.51.05-1.03.24-1.5.2-.46.48-.88.86-1.23.38-.36.86-.66 1.44-.9a4.4 4.4 0 0 1 1.74-.37 3.51 3.51 0 0 1 2.68 1.25 4.87 4.87 0 0 1 1.16 2.55c.06.42.04.83-.06 1.24-.1.41-.3.8-.6 1.16-.3.36-.74.66-1.34.9-.44.18-.9.3-1.36.4l-2.07-5.06c-.27.11-.5.28-.68.5-.16.2-.27.43-.32.67-.05.26-.06.52-.01.78a4.39 4.39 0 0 0 1 2.13c.27.31.55.54.83.69Zm3.76-5.09c-.1-.23-.23-.45-.39-.64a1.83 1.83 0 0 0-1.18-.7c-.24-.04-.5-.01-.73.06l1.42 3.45c.47-.18.78-.47.95-.83.17-.37.14-.81-.07-1.34Z"/><path fill="#231f20" d="M565.31 740.33a10.5 10.5 0 0 1-9.78-6.62l-12.3-30.57 70.74-28.44 12.29 30.57A10.56 10.56 0 0 1 620.4 719l-51.17 20.56c-1.25.5-2.58.77-3.93.77Zm-18.64-35.73 11.3 28.13a7.88 7.88 0 0 0 10.3 4.39l51.16-20.57a7.92 7.92 0 0 0 4.39-10.29l-11.32-28.13-7.43 3 10.9 27.1-50.76 20.4-10.9-27.1Zm10.17-3.86 9.83 24.47 45.87-18.44-9.84-24.46Z"/><path fill="#231f20" d="m583.79 721.01-11.74-29.2 12.54-5.04 11.74 29.2Zm-8.45-27.8 9.86 24.51 7.84-3.15-9.85-24.51Z"/><path fill="#fff" d="M497.4 687.2a8.8 8.8 0 0 1-8.2-5.55 8.78 8.78 0 0 1 .06-6.77 8.77 8.77 0 0 1 8.13-5.38 8.8 8.8 0 0 1 8.21 5.55c.88 2.19.86 4.6-.07 6.77a8.77 8.77 0 0 1-8.13 5.38Zm0-15.16a6.28 6.28 0 0 0-5.81 3.83 6.27 6.27 0 0 0-.05 4.83 6.28 6.28 0 0 0 8.21 3.5 6.26 6.26 0 0 0 3.45-3.37 6.29 6.29 0 0 0-5.8-8.79Zm47.7-4.02a8.8 8.8 0 0 1-8.21-5.55 8.8 8.8 0 0 1 .07-6.77 8.78 8.78 0 0 1 8.13-5.37 8.8 8.8 0 0 1 8.21 5.54 8.8 8.8 0 0 1-.07 6.78 8.77 8.77 0 0 1-8.13 5.37Zm0-15.16a6.27 6.27 0 0 0-5.86 8.67 6.29 6.29 0 0 0 8.2 3.5 6.27 6.27 0 0 0 3.5-8.21 6.28 6.28 0 0 0-5.84-3.96Zm47.7-4.01a8.8 8.8 0 0 1-8.21-5.55 8.8 8.8 0 0 1 4.9-11.5 8.8 8.8 0 0 1 11.5 4.9 8.8 8.8 0 0 1-.06 6.77 8.78 8.78 0 0 1-8.13 5.38Zm0-15.17a6.26 6.26 0 0 0-5.8 3.84 6.29 6.29 0 0 0 8.16 8.34 6.29 6.29 0 0 0 3.5-8.22 6.29 6.29 0 0 0-5.87-3.96Z"/></svg>