<svg xmlns="http://www.w3.org/2000/svg" xmlns:xlink="http://www.w3.org/1999/xlink" width="1080" height="1080"><path d="M396.985 194.875c-3.562 0-6.455 2.896-6.455 6.455s2.895 6.455 6.455 6.455c3.558 0 6.454-2.896 6.454-6.455s-2.896-6.455-6.454-6.455z"/><path d="M867.771 170.991H338.459c-11.407 0-20.655 9.248-20.655 20.656v128.857l100.263 201.64h449.704c11.407 0 20.655-9.247 20.655-20.655V191.647c.001-11.408-9.247-20.656-20.655-20.656zm-470.786 39.376c-4.983 0-9.037-4.054-9.037-9.037s4.054-9.037 9.037-9.037c4.981 0 9.036 4.054 9.036 9.037s-4.053 9.037-9.036 9.037z"/><circle fill="#FFF" stroke="#231F20" stroke-width="3.813" stroke-miterlimit="10" cx="444.976" cy="308.804" r="67.295"/><path fill="#2E9AFF" d="M502.487 292.654c-.767 0-1.521.047-2.266.132-6.938-23.967-29.045-41.493-55.247-41.493-26.203 0-48.312 17.525-55.249 41.493a20.106 20.106 0 00-2.263-.132c-11.027 0-19.969 8.939-19.969 19.97 0 11.029 8.941 19.967 19.969 19.967 1.682 0 3.312-.21 4.87-.601 8.916 20.215 29.129 34.324 52.642 34.324 23.511 0 43.726-14.109 52.643-34.324 1.559.391 3.189.601 4.87.601 11.027 0 19.97-8.938 19.97-19.967 0-11.031-8.941-19.97-19.97-19.97z"/><defs><path id="a" d="M502.487 292.654c-.767 0-1.521.047-2.266.132-6.938-23.967-29.045-41.493-55.247-41.493-26.203 0-48.312 17.525-55.249 41.493a20.106 20.106 0 00-2.263-.132c-11.027 0-19.969 8.939-19.969 19.97 0 11.029 8.941 19.967 19.969 19.967 1.682 0 3.312-.21 4.87-.601 8.916 20.215 29.129 34.324 52.642 34.324 23.511 0 43.726-14.109 52.643-34.324 1.559.391 3.189.601 4.87.601 11.027 0 19.97-8.938 19.97-19.967 0-11.031-8.941-19.97-19.97-19.97z"/></defs><clipPath id="b"><use xlink:href="#a" overflow="visible"/></clipPath><circle clip-path="url(#b)" cx="395.602" cy="243.555" r="50.688"/><defs><path id="c" d="M502.487 292.654c-.767 0-1.521.047-2.266.132-6.938-23.967-29.045-41.493-55.247-41.493-26.203 0-48.312 17.525-55.249 41.493a20.106 20.106 0 00-2.263-.132c-11.027 0-19.969 8.939-19.969 19.97 0 11.029 8.941 19.967 19.969 19.967 1.682 0 3.312-.21 4.87-.601 8.916 20.215 29.129 34.324 52.642 34.324 23.511 0 43.726-14.109 52.643-34.324 1.559.391 3.189.601 4.87.601 11.027 0 19.97-8.938 19.97-19.967 0-11.031-8.941-19.97-19.97-19.97z"/></defs><clipPath id="d"><use xlink:href="#c" overflow="visible"/></clipPath><circle clip-path="url(#d)" cx="495.264" cy="243.555" r="50.688"/><g><path fill="none" stroke="#000" stroke-width="3.813" stroke-miterlimit="10" d="M502.487 292.654c-.767 0-1.521.047-2.266.132-6.938-23.967-29.045-41.493-55.247-41.493-26.203 0-48.312 17.525-55.249 41.493a20.106 20.106 0 00-2.263-.132c-11.027 0-19.969 8.939-19.969 19.97 0 11.029 8.941 19.967 19.969 19.967 1.682 0 3.312-.21 4.87-.601 8.916 20.215 29.129 34.324 52.642 34.324 23.511 0 43.726-14.109 52.643-34.324 1.559.391 3.189.601 4.87.601 11.027 0 19.97-8.938 19.97-19.967 0-11.031-8.941-19.97-19.97-19.97z"/></g><path fill="none" stroke="#000" stroke-width="3.813" stroke-linecap="round" stroke-linejoin="round" stroke-miterlimit="10" d="M377.347 307.339l12.246 13.315M510.217 307.339l-12.247 13.315"/><g><circle cx="419.429" cy="314.911" r="7.587"/><path fill="none" stroke="#000" stroke-width="3.813" stroke-linecap="round" stroke-linejoin="round" stroke-miterlimit="10" d="M434.546 316.167c-3.311-4.825-8.861-7.99-15.154-7.99-6.291 0-11.842 3.165-15.152 7.99"/></g><g><circle cx="468.953" cy="314.911" r="7.589"/><path fill="none" stroke="#000" stroke-width="3.813" stroke-linecap="round" stroke-linejoin="round" stroke-miterlimit="10" d="M484.071 316.167c-3.312-4.825-8.862-7.99-15.155-7.99s-11.843 3.165-15.154 7.99"/></g><path fill="none" stroke="#000" stroke-width="3.813" stroke-linecap="round" stroke-linejoin="round" stroke-miterlimit="10" d="M444.576 314.966v11.05"/><path fill="#FFF" d="M454.77 332.291c0 5.521-4.474 9.996-9.992 9.996-5.521 0-9.996-4.476-9.996-9.996"/><g><path fill="#FFF" d="M860.818 508.381H412.271v-2.828h448.547c6.339 0 11.494-5.158 11.494-11.494v-294.98c0-6.338-5.155-11.495-11.494-11.495H345.413c-6.34 0-11.496 5.156-11.496 11.495v148.96h-2.83v-148.96c0-7.898 6.428-14.324 14.326-14.324h515.405c7.897 0 14.323 6.426 14.323 14.324v294.98c.002 7.897-6.424 14.322-14.323 14.322z"/></g><g><path fill="#FFF" d="M333.415 214.483h540.259v2.829H333.415z"/></g><g><path fill="#FFF" d="M808.382 298.287H550.12a1.414 1.414 0 110-2.829h258.262a1.415 1.415 0 010 2.829zM728.914 321.322H550.12a1.415 1.415 0 010-2.83h178.794a1.415 1.415 0 010 2.83zM781.893 344.356H550.12a1.415 1.415 0 010-2.829h231.771a1.415 1.415 0 01.002 2.829zM675.934 367.391H550.12a1.414 1.414 0 010-2.83h125.812a1.415 1.415 0 01.002 2.83z"/><g fill="#FFF"><path d="M552.188 255h9.389v10.016c0 .854-.109 1.655-.325 2.403a4.703 4.703 0 01-1.18 1.999c-.358.359-.745.643-1.156.853a6.207 6.207 0 01-2.302.674c-.346.03-.629.045-.854.045a9.176 9.176 0 01-2.089-.236 7.02 7.02 0 01-2.021-.842l1.103-2.471c.568.33 1.058.547 1.471.651.411.105.888.158 1.427.158a3.36 3.36 0 001.066-.191c.381-.127.715-.34.998-.64.524-.568.787-1.362.787-2.38v-7.299h-6.312V255zM564.382 265.107c0-.943.144-1.782.429-2.516a5.115 5.115 0 011.213-1.863 5.14 5.14 0 011.875-1.157c.725-.262 1.537-.393 2.437-.393.942 0 1.786.143 2.525.427.741.285 1.366.685 1.876 1.202s.895 1.142 1.156 1.875c.263.733.393 1.542.393 2.426 0 .943-.143 1.782-.427 2.515a5.142 5.142 0 01-1.212 1.864 5.174 5.174 0 01-1.875 1.157c-.728.261-1.539.393-2.438.393-.943 0-1.785-.142-2.527-.427a5.249 5.249 0 01-1.875-1.201 5.044 5.044 0 01-1.156-1.875c-.263-.735-.394-1.544-.394-2.427zm3.011 0c0 .494.065.951.201 1.37.135.419.33.786.585 1.1s.562.558.919.73c.36.172.771.258 1.236.258.868 0 1.575-.277 2.121-.831.548-.554.82-1.43.82-2.627 0-1.034-.256-1.868-.764-2.504-.511-.636-1.235-.955-2.179-.955-.419 0-.81.064-1.168.191a2.288 2.288 0 00-.933.618 2.986 2.986 0 00-.617 1.078c-.147.434-.221.958-.221 1.572zM577.071 255h4.536v5.749h.091c.357-.479.838-.86 1.437-1.145.6-.284 1.305-.427 2.111-.427.568 0 1.093.075 1.572.225.479.15.89.396 1.233.741.345.344.614.812.811 1.403.192.592.291 1.321.291 2.189v6.985h-2.92v-6.378c0-.914-.194-1.572-.583-1.977-.391-.404-.898-.606-1.526-.606-.555 0-1.063.169-1.528.506a2.723 2.723 0 00-.986 1.292v7.164h-2.922v-13.25h-1.615l-.002-2.471zM590.814 259.493h3.932l.336 1.482h.09c.346-.479.839-.898 1.481-1.258.645-.359 1.416-.539 2.313-.539a5.28 5.28 0 011.562.225 3 3 0 011.248.741c.343.344.616.812.817 1.403.202.592.305 1.321.305 2.189v6.985h-2.92v-6.378c0-.914-.206-1.572-.618-1.977-.412-.404-.934-.606-1.562-.606-.555 0-1.061.162-1.516.483-.457.322-.768.723-.934 1.201v7.277h-2.918v-8.758h-1.617v-2.47h.001zM618.618 255a33.457 33.457 0 011.853-.146c.426-.022.867-.041 1.324-.056.456-.015.865-.022 1.225-.022 1.394 0 2.545.203 3.458.606.913.404 1.637.962 2.167 1.673.531.711.902 1.55 1.112 2.516.209.966.313 2.018.313 3.155a14.62 14.62 0 01-.313 3.032 7.03 7.03 0 01-1.135 2.639c-.546.771-1.302 1.393-2.27 1.865-.966.472-2.204.707-3.717.707-.239 0-.546-.007-.921-.021a70.648 70.648 0 01-1.146-.056c-.389-.023-.763-.044-1.122-.067a9.653 9.653 0 01-.83-.079V255h.002zm4.514 2.516c-.283 0-.561.011-.83.034-.271.022-.473.041-.605.056v10.533c.059.015.148.026.27.034l.37.022.37.023c.12.008.218.011.293.011.868 0 1.562-.161 2.077-.483.516-.322.9-.745 1.157-1.269a5.425 5.425 0 00.493-1.774 17.69 17.69 0 00.111-1.977c0-.569-.034-1.16-.102-1.774a5.104 5.104 0 00-.472-1.685 3.165 3.165 0 00-1.11-1.257c-.494-.329-1.169-.494-2.022-.494zM631.757 265.107c0-.943.143-1.782.427-2.516a5.14 5.14 0 011.213-1.863 5.174 5.174 0 011.875-1.157c.727-.262 1.539-.393 2.438-.393.943 0 1.785.143 2.526.427a5.216 5.216 0 011.875 1.202c.51.517.896 1.142 1.156 1.875.262.733.394 1.542.394 2.426 0 .943-.144 1.782-.428 2.515a5.119 5.119 0 01-1.213 1.864 5.15 5.15 0 01-1.875 1.157c-.726.261-1.537.393-2.437.393-.942 0-1.785-.142-2.526-.427a5.231 5.231 0 01-1.875-1.201 5.006 5.006 0 01-1.156-1.875c-.263-.735-.394-1.544-.394-2.427zm3.011 0c0 .494.065.951.201 1.37.135.419.328.786.583 1.1s.562.558.921.73c.359.172.771.258 1.235.258.867 0 1.576-.277 2.122-.831.548-.554.82-1.43.82-2.627 0-1.034-.256-1.868-.766-2.504-.509-.636-1.233-.955-2.178-.955-.419 0-.809.064-1.167.191-.36.127-.671.333-.933.618a2.987 2.987 0 00-.618 1.078c-.147.434-.22.958-.22 1.572zM656.438 269.531c-.194.18-.444.355-.752.528a7.314 7.314 0 01-1.078.483 8.743 8.743 0 01-2.929.494c-.959 0-1.815-.135-2.57-.404a5.18 5.18 0 01-1.922-1.179 5.17 5.17 0 01-1.2-1.865c-.277-.726-.415-1.553-.415-2.481 0-.988.156-1.853.471-2.594a5.17 5.17 0 011.293-1.854 5.4 5.4 0 011.918-1.112 7.424 7.424 0 012.382-.37 7.37 7.37 0 011.765.225c.604.15 1.162.408 1.673.775.509.367.924.857 1.247 1.471.32.614.48 1.393.48 2.335 0 .645-.074 1.34-.225 2.089h-8.085c.015.48.116.884.305 1.213.187.33.433.599.74.808.306.21.657.364 1.055.461.396.097.819.146 1.271.146.897 0 1.635-.104 2.213-.315.575-.209 1.043-.463 1.402-.763l.961 1.909zm-4.851-8.018a3.73 3.73 0 00-1.101.16 3.096 3.096 0 00-.934.47 2.585 2.585 0 00-.685.766 2.367 2.367 0 00-.313 1.029h5.524c0-.747-.207-1.338-.618-1.773-.409-.434-1.035-.652-1.873-.652z"/></g></g><circle fill="none" stroke="#FFF" stroke-width="3.813" stroke-miterlimit="10" cx="349.648" cy="201.33" r="7.747"/><circle fill="none" stroke="#2E9AFF" stroke-width="3.813" stroke-miterlimit="10" cx="373.316" cy="201.33" r="7.745"/><g><path fill="#FFF" d="M614.382 439.883H382.611a1.414 1.414 0 110-2.828h231.771a1.414 1.414 0 110 2.828zM508.424 462.918H382.611a1.414 1.414 0 110-2.828h125.812a1.414 1.414 0 01.001 2.828z"/></g><g><path fill="#2E9AFF" stroke="#FFF" stroke-width="3.039" stroke-miterlimit="10" d="M962.709 318.305c-11.646 10.252-29.4 9.12-39.648-2.526-10.255-11.648-9.121-29.401 2.526-39.652 11.646-10.252 29.401-9.12 39.65 2.527 10.252 11.647 9.118 29.399-2.528 39.651z"/><g stroke="#FFF" stroke-width="3.039" stroke-miterlimit="10"><path fill="#2E9AFF" d="M931.828 306.955c9.06-15.576 8.498-34.095.154-48.691-16.812-.037-33.188 8.627-42.25 24.206"/><path fill="none" d="M931.972 258.284l-21.428 36.834"/><g><path fill="#2E9AFF" d="M932.438 307.65c16.604-7.009 34.899-4.102 48.318 6.029-2.096 16.682-12.771 31.823-29.375 38.833"/><path fill="none" d="M980.735 313.689l-39.255 16.575"/></g></g><circle fill="#2E9AFF" stroke="#FFF" stroke-width="3.039" stroke-miterlimit="10" cx="642.23" cy="355.846" r="39.333"/><circle fill="#2E9AFF" stroke="#FFF" stroke-width="3.039" stroke-miterlimit="10" cx="846.417" cy="587.837" r="39.333"/><path fill="#2E9AFF" stroke="#FFF" stroke-width="3.039" stroke-miterlimit="10" d="M860.484 603.82c-103.53 91.121-239.295 106.092-303.239 33.442-63.943-72.655-31.856-205.42 71.676-296.542 103.529-91.122 239.292-106.093 303.237-33.439 63.946 72.651 31.855 205.417-71.674 296.539z"/><ellipse transform="rotate(-41.351 744.663 472.289)" fill="#FFF" cx="744.691" cy="472.307" rx="210.49" ry="141.532"/><g stroke="#FFF" stroke-width="3.039" stroke-miterlimit="10"><path fill="#2E9AFF" d="M361.693 875.564c70.17-72.273 177.413-172.334 223.415-219.716l-.006-.004c11.914-12.246 12.579-31.793 1.104-44.836-11.479-13.039-30.953-14.86-44.613-4.598l-.006-.008c-52.834 39.614-165.704 133.282-246.3 193.709a49 49 0 00-3.21 2.602c-20.904 18.398-22.936 50.262-4.537 71.164 18.398 20.906 50.262 22.939 71.166 4.537a50.167 50.167 0 002.987-2.85z"/><path fill="#2E9AFF" d="M348.36 864.309l.003.007.089-.091A11162614.471 11162614.471 0 00574.1 645.965h-.002c6.975-6.738 7.485-17.832 1.013-25.188-6.472-7.354-17.543-8.255-25.111-2.193h-.001c-28.495 22.789-193.379 154.691-245.119 196.08-.009.01-.02.016-.026.021-.035.027-.069.054-.103.078l.004.006c-.402.32-.802.652-1.192.994-13.698 12.06-15.027 32.937-2.972 46.631 12.055 13.699 32.934 15.029 46.63 2.972.39-.343.769-.698 1.139-1.057z"/><path fill="#2E9AFF" stroke-linecap="round" stroke-linejoin="round" d="M398.546 814.525c-10.504-11.935-9.343-30.123 2.591-40.629-11.934 10.506-30.124 9.346-40.629-2.591M486.319 670.008c7.922 8.996 7.048 22.715-1.953 30.635 9.001-7.92 22.717-7.045 30.636 1.953M321.481 804.271c10.883 12.364 9.682 31.215-2.686 42.098 12.367-10.883 31.216-9.687 42.101 2.684"/><path fill="#2E9AFF" stroke-linecap="round" stroke-linejoin="round" d="M404.188 781.66a7.845 7.845 0 01-11.069-.705 7.845 7.845 0 01.707-11.07c3.252-2.858 8.207-2.543 11.067.705 2.863 3.256 2.546 8.211-.705 11.07zM489.34 706.715a7.842 7.842 0 01-11.07-.705c-2.861-3.254-2.547-8.209.707-11.067a7.838 7.838 0 0111.067.705 7.842 7.842 0 01-.704 11.067zM324.334 852.029c-3.252 2.856-8.206 2.545-11.068-.709-2.861-3.252-2.546-8.209.706-11.066a7.838 7.838 0 0111.068.703 7.85 7.85 0 01-.706 11.072z"/><path fill="none" stroke-linecap="round" stroke-linejoin="round" d="M477.429 706.748l-72.22 63.566"/></g><circle fill="#FFF" stroke="#231F20" stroke-width="3.039" stroke-miterlimit="10" cx="825.714" cy="400.982" r="44.25"/><path fill="#2E9AFF" d="M858.673 422.353a13.308 13.308 0 00-1.049-1.061c8.815-13.836 7.858-32.363-3.523-45.296-11.382-12.934-29.637-16.232-44.48-9.245-.28-.403-.584-.796-.917-1.173-4.791-5.444-13.089-5.973-18.532-1.182-5.445 4.791-5.973 13.088-1.181 18.531.729.83 1.541 1.543 2.41 2.143-6.104 13.184-4.287 29.291 5.931 40.896 10.212 11.605 25.96 15.452 39.811 11.072a13.087 13.087 0 001.819 2.666c4.79 5.444 13.088 5.973 18.531 1.181 5.443-4.791 5.972-13.089 1.18-18.532z"/><defs><path id="e" d="M858.673 422.353a13.308 13.308 0 00-1.049-1.061c8.815-13.836 7.858-32.363-3.523-45.296-11.382-12.934-29.637-16.232-44.48-9.245-.28-.403-.584-.796-.917-1.173-4.791-5.444-13.089-5.973-18.532-1.182-5.445 4.791-5.973 13.088-1.181 18.531.729.83 1.541 1.543 2.41 2.143-6.104 13.184-4.287 29.291 5.931 40.896 10.212 11.605 25.96 15.452 39.811 11.072a13.087 13.087 0 001.819 2.666c4.79 5.444 13.088 5.973 18.531 1.181 5.443-4.791 5.972-13.089 1.18-18.532z"/></defs><clipPath id="f"><use xlink:href="#e" overflow="visible"/></clipPath><path clip-path="url(#f)" d="M858.492 373.284c-13.818 12.162-34.876 10.817-47.041-3-12.159-13.818-10.818-34.878 3-47.04 13.815-12.162 34.877-10.819 47.039 2.999 12.166 13.819 10.822 34.878-2.998 47.041z"/><defs><path id="g" d="M858.673 422.353a13.308 13.308 0 00-1.049-1.061c8.815-13.836 7.858-32.363-3.523-45.296-11.382-12.934-29.637-16.232-44.48-9.245-.28-.403-.584-.796-.917-1.173-4.791-5.444-13.089-5.973-18.532-1.182-5.445 4.791-5.973 13.088-1.181 18.531.729.83 1.541 1.543 2.41 2.143-6.104 13.184-4.287 29.291 5.931 40.896 10.212 11.605 25.96 15.452 39.811 11.072a13.087 13.087 0 001.819 2.666c4.79 5.444 13.088 5.973 18.531 1.181 5.443-4.791 5.972-13.089 1.18-18.532z"/></defs><clipPath id="h"><use xlink:href="#g" overflow="visible"/></clipPath><path clip-path="url(#h)" d="M901.791 422.478c-13.817 12.161-34.877 10.818-47.04-2.999-12.161-13.818-10.821-34.88 2.996-47.041 13.82-12.161 34.882-10.817 47.044 2.999 12.162 13.818 10.816 34.877-3 47.041z"/><g><path fill="none" stroke="#000" stroke-width="3.039" stroke-miterlimit="10" d="M858.673 422.353a13.308 13.308 0 00-1.049-1.061c8.815-13.836 7.858-32.363-3.523-45.296-11.382-12.934-29.637-16.232-44.48-9.245-.28-.403-.584-.796-.917-1.173-4.791-5.444-13.089-5.973-18.532-1.182-5.445 4.791-5.973 13.088-1.181 18.531.729.83 1.541 1.543 2.41 2.143-6.104 13.184-4.287 29.291 5.931 40.896 10.212 11.605 25.96 15.452 39.811 11.072a13.087 13.087 0 001.819 2.666c4.79 5.444 13.088 5.973 18.531 1.181 5.443-4.791 5.972-13.089 1.18-18.532z"/></g><path fill="none" stroke="#000" stroke-width="3.039" stroke-linecap="round" stroke-linejoin="round" stroke-miterlimit="10" d="M797.061 366.964l-1.257 11.83M854.78 432.548l-11.891-.26"/><g><path d="M814.896 394.77a4.987 4.987 0 01-7.039-.447 4.989 4.989 0 117.039.447z"/><path fill="none" stroke="#000" stroke-width="3.039" stroke-linecap="round" stroke-linejoin="round" stroke-miterlimit="10" d="M817.55 399.033c.943-3.73.095-7.846-2.64-10.952a12.068 12.068 0 00-10.526-4.009"/></g><g><path d="M836.415 419.216a4.994 4.994 0 01-7.045-.451 4.992 4.992 0 01.451-7.041 4.987 4.987 0 017.04.448 4.99 4.99 0 01-.446 7.044z"/><path fill="none" stroke="#000" stroke-width="3.039" stroke-linecap="round" stroke-linejoin="round" stroke-miterlimit="10" d="M839.066 423.478c.94-3.73.093-7.846-2.645-10.95a12.064 12.064 0 00-10.523-4.011"/></g><path fill="none" stroke="#000" stroke-width="3.039" stroke-linecap="round" stroke-linejoin="round" stroke-miterlimit="10" d="M822.499 403.462l-5.453 4.8"/><path fill="#FFF" d="M818.378 416.021a6.573 6.573 0 01-8.685-9.869"/><g><path fill="#2E9AFF" stroke="#FFF" stroke-width="3.039" stroke-miterlimit="10" d="M719.646 572c-7.636 6.719-19.272 5.979-25.993-1.656l-53.625-60.928c-6.72-7.637-5.979-19.273 1.657-25.996h0c7.636-6.718 19.271-5.977 25.992 1.657l53.626 60.927c6.723 7.637 5.981 19.275-1.657 25.996h0z"/><g fill="#FFF"><path d="M653.194 499.511l.042.045 5.854-2.893 1.152 1.311-8.164 3.746-1.269-1.438 4.705-7.681 1.242 1.413-3.562 5.497zM655.35 503.392l1.43 1.626 2.585-2.274-1.429-1.625 1.016-.895 2.481 2.823-3.598 3.167 1.502 1.707-1.015.895-3.985-4.53 1.013-.894zm6.088-2.87a.866.866 0 01.678-.218c.259.022.5.16.722.412.228.258.342.523.341.796a.837.837 0 01-.286.663.792.792 0 01-.688.194c-.26-.042-.506-.193-.732-.452-.223-.251-.334-.505-.33-.756 0-.25.098-.466.295-.639zM663.555 513.775a2.284 2.284 0 01-.486-.118 4.489 4.489 0 01-1.23-.698 4.704 4.704 0 01-.623-.598 4.223 4.223 0 01-.767-1.203 2.85 2.85 0 01-.206-1.214c.021-.402.133-.792.33-1.168.196-.377.487-.732.869-1.069.404-.358.817-.604 1.234-.745a2.874 2.874 0 011.231-.139 2.95 2.95 0 011.147.386 4.081 4.081 0 011.56 1.652c.158.303.253.626.287.968.033.342-.017.69-.155 1.044-.134.354-.396.702-.784 1.043a5.769 5.769 0 01-.939.662l-2.924-3.321a1.428 1.428 0 00-.388.563c-.067.194-.09.395-.063.597.023.203.09.402.192.601.104.199.234.391.396.573.325.369.637.635.931.795s.568.263.821.3l-.433 1.089zm1.54-4.893a2.005 2.005 0 00-.465-.395 1.608 1.608 0 00-.526-.212 1.386 1.386 0 00-.563-.004c-.19.035-.37.116-.537.242l1.999 2.271c.307-.271.477-.568.504-.896.027-.326-.109-.66-.412-1.006zM669.96 514.968l-1.413 2.47.042.046.865-.615 2.667-1.677.951 1.08-5.434 3.128-1.063-1.208 1.373-2.123-.042-.049-2.34 1.027-1.096-1.246 3.76-5.027 1.057 1.198-2.157 2.701-.507.578.04.045 2.622-1.095.675.767zM679.121 528.076l.894 1.015-1.844 1.625c-.315-.073-.646-.226-.996-.46a4.893 4.893 0 01-.942-.832 4.984 4.984 0 01-.841-1.313 3.308 3.308 0 01-.266-1.477c.022-.514.176-1.042.456-1.583.282-.542.727-1.082 1.336-1.618.635-.557 1.248-.93 1.84-1.12.594-.188 1.149-.25 1.671-.186.521.067.998.231 1.431.493.437.264.807.57 1.114.921.325.369.568.708.73 1.018.163.311.278.583.346.82l-1.919 1.688-.895-1.017 1.054-.926a4.91 4.91 0 00-.478-.63 2.18 2.18 0 00-.721-.551 1.942 1.942 0 00-.888-.18 2.696 2.696 0 00-1.013.254c-.355.159-.725.407-1.105.742a4.384 4.384 0 00-.801.921 2.756 2.756 0 00-.401.973c-.06.329-.048.647.042.964.087.316.253.617.505.898.179.205.368.385.573.542l1.118-.981zM684.68 525.738l1.64 1.863-2.358 2.079.029.037a2.09 2.09 0 01.99.177c.336.144.646.381.939.713.204.233.365.478.477.729.11.25.159.508.143.776a1.928 1.928 0 01-.284.839c-.173.293-.438.597-.795.912l-2.87 2.524-1.056-1.198 2.622-2.307c.373-.331.576-.647.6-.955.025-.307-.075-.589-.303-.848a1.386 1.386 0 00-.761-.444 1.517 1.517 0 00-.888.062l-2.942 2.59-1.059-1.2 5.445-4.791-.584-.666 1.015-.892zM688.123 534.005c.33.149.674.352 1.038.602a6.55 6.55 0 011.133 1.045c.279.317.479.625.604.919.119.291.17.566.148.831-.02.264-.102.512-.243.745a3.032 3.032 0 01-.583.679c-.312.274-.592.501-.832.674a8.679 8.679 0 00-.617.488 6.445 6.445 0 00-.418.399 3.18 3.18 0 01-.227.247l.53.599-1.015.895-1.365-1.55.521-.672-.042-.046a2.08 2.08 0 01-.953-.09c-.338-.104-.676-.349-1.017-.733-.402-.458-.6-.931-.591-1.417.012-.483.217-.907.624-1.264.259-.228.522-.376.795-.446.271-.07.545-.068.824.008.277.074.558.212.84.415.283.201.56.458.833.77.1.11.192.231.29.366.095.134.214.292.358.482.07-.045.139-.092.199-.146l.176-.152c.233-.206.343-.419.324-.645-.017-.225-.139-.467-.372-.729a3.549 3.549 0 00-.859-.736 7.369 7.369 0 00-.798-.422l.695-1.116zm-2.003 4.552c.257.292.504.465.739.515.234.052.444.057.626.016l.556-.488c-.042-.069-.107-.176-.2-.311a4.377 4.377 0 00-.321-.412 2.478 2.478 0 00-.338-.317 1.527 1.527 0 00-.374-.221.822.822 0 00-.374-.062.584.584 0 00-.339.153c-.172.152-.263.318-.27.502-.007.186.091.393.295.625zM692.677 538.547l1.423 1.613-.486.675.031.035c.32-.03.672.021 1.054.155.38.137.729.387 1.056.756.201.227.359.469.475.725.114.252.162.514.146.777a1.882 1.882 0 01-.28.844c-.171.297-.433.604-.79.918l-2.866 2.525-1.06-1.201 2.62-2.305c.377-.33.572-.652.591-.968a1.173 1.173 0 00-.315-.86 1.395 1.395 0 00-.746-.449 1.333 1.333 0 00-.832.051l-2.988 2.631-1.054-1.199 3.597-3.166-.584-.665 1.008-.892zM697.55 544.082l1.422 1.615-.486.674.031.037c.321-.031.673.02 1.054.153.379.136.731.386 1.057.755.2.229.357.471.473.725.116.254.164.514.146.779-.016.268-.109.549-.279.844-.172.297-.433.602-.789.918l-2.872 2.525-1.056-1.201 2.621-2.308c.375-.33.57-.651.588-.969a1.158 1.158 0 00-.315-.858 1.384 1.384 0 00-.745-.449 1.348 1.348 0 00-.832.053l-2.989 2.631-1.058-1.199 3.601-3.168-.585-.664 1.013-.893zM702.539 558.066a2.322 2.322 0 01-.49-.119 3.69 3.69 0 01-.588-.271 4.326 4.326 0 01-.639-.426 4.845 4.845 0 01-.624-.598 4.165 4.165 0 01-.765-1.203 2.807 2.807 0 01-.21-1.218 2.85 2.85 0 01.33-1.168c.198-.375.488-.729.87-1.065.406-.357.819-.607 1.235-.746.419-.139.827-.184 1.229-.139.398.045.782.176 1.149.387.366.213.704.494 1.014.844.205.234.389.502.545.808.158.303.256.625.287.967.033.344-.018.69-.152 1.047-.136.352-.397.699-.785 1.041a6.126 6.126 0 01-.939.664l-2.922-3.324a1.436 1.436 0 00-.391.564 1.316 1.316 0 00-.064.596c.025.203.09.404.193.602.104.199.235.39.399.574.322.369.634.635.929.795.295.162.567.26.821.301l-.432 1.087zm1.538-4.894a2.058 2.058 0 00-.464-.393 1.505 1.505 0 00-1.093-.22 1.264 1.264 0 00-.533.244l1.994 2.271c.311-.271.479-.568.508-.896s-.11-.66-.412-1.006zM709.749 554.221l1.729 1.967-4.264 3.753c-.473.416-.75.764-.834 1.045-.081.278-.008.549.219.805.17.19.326.33.476.418.148.09.314.162.495.219l-.433 1.185a6.641 6.641 0 01-.465-.148 2.547 2.547 0 01-.44-.201 3.165 3.165 0 01-.429-.303 3.745 3.745 0 01-.44-.436c-.51-.58-.745-1.144-.702-1.691.037-.549.331-1.062.873-1.539l3.873-3.41-.675-.766 1.017-.898z"/></g><g fill="none" stroke="#231F20" stroke-width="3.039" stroke-linecap="round" stroke-linejoin="round" stroke-miterlimit="10"><path d="M707.107 415.705l90.488 102.809M706.97 443.897l62.644 71.174M683.629 445.727l81.206 92.263M688.132 479.192l44.082 50.083"/></g><path fill="none" stroke="#231F20" stroke-width="3.039" stroke-linecap="round" stroke-linejoin="round" stroke-miterlimit="10" d="M631.54 529l44.082 50.086M626.938 551.766l25.518 28.994"/></g><g><path d="M748.827 414.757l5.042 5.73-6.113 5.38a6.878 6.878 0 01-1.644 1.093 3.813 3.813 0 01-1.853.355 3.73 3.73 0 01-1.143-.248 5.158 5.158 0 01-1.65-1.043 8.702 8.702 0 01-.484-.497 7.613 7.613 0 01-.979-1.401 5.716 5.716 0 01-.57-1.686l2.099-.655c.104.523.235.94.393 1.248.158.308.38.625.673.955.177.199.404.384.688.549.282.165.592.253.927.267.63.014 1.254-.252 1.877-.8l4.456-3.921-3.392-3.851 1.673-1.475zM749.21 427.63c.575-.507 1.166-.869 1.767-1.09s1.193-.308 1.786-.263a4.262 4.262 0 011.714.523c.551.302 1.066.729 1.551 1.277.508.575.871 1.166 1.096 1.771.227.604.314 1.201.273 1.79a4.118 4.118 0 01-.521 1.714 5.807 5.807 0 01-1.27 1.542c-.577.506-1.162.871-1.768 1.091a4.18 4.18 0 01-1.787.262 4.245 4.245 0 01-1.714-.522c-.549-.303-1.065-.729-1.549-1.276-.507-.576-.873-1.167-1.099-1.772a4.22 4.22 0 01-.272-1.789 4.102 4.102 0 01.522-1.714 5.815 5.815 0 011.271-1.544zm1.617 1.837a3.562 3.562 0 00-.729.859c-.185.308-.303.623-.357.947s-.038.643.05.954.256.608.506.893c.467.531 1.017.812 1.646.85.631.035 1.313-.27 2.047-.913.63-.555 1.002-1.156 1.118-1.811.111-.653-.084-1.269-.591-1.842a2.884 2.884 0 00-.743-.611 1.867 1.867 0 00-.879-.237 2.472 2.472 0 00-.986.202c-.348.144-.709.379-1.082.709zM762.195 429.945l2.438 2.77-3.508 3.089.046.056c.484-.039.978.048 1.472.262.497.213.963.565 1.396 1.059.306.349.54.708.706 1.08.166.374.236.757.212 1.153-.025.395-.166.811-.422 1.246-.257.437-.649.889-1.181 1.355l-4.263 3.752-1.567-1.781 3.892-3.428c.558-.49.854-.963.894-1.418.036-.455-.112-.875-.449-1.257a2.059 2.059 0 00-1.131-.661 2.221 2.221 0 00-1.317.091l-4.374 3.85-1.567-1.782 8.087-7.119-.869-.986 1.505-1.331zM766.836 440.749l2.112 2.399-.724 1.001.051.056c.476-.047.996.028 1.562.229.565.199 1.088.573 1.573 1.122.296.337.529.697.699 1.074.169.376.24.763.219 1.159-.027.396-.166.812-.418 1.254s-.645.896-1.173 1.361l-4.266 3.753-1.567-1.783 3.893-3.428c.559-.49.85-.97.875-1.438.025-.468-.129-.895-.467-1.277a2.101 2.101 0 00-1.11-.668 1.99 1.99 0 00-1.234.077l-4.441 3.909-1.567-1.783 5.349-4.705-.869-.986 1.503-1.326zM784.516 455.306a30.18 30.18 0 011.086 1.053c.243.249.491.509.746.779.254.271.479.516.67.734.75.85 1.244 1.663 1.489 2.437.243.775.289 1.515.144 2.222-.148.708-.463 1.383-.938 2.029a12.3 12.3 0 01-1.757 1.889 11.905 11.905 0 01-2.021 1.436 5.69 5.69 0 01-2.218.727c-.765.082-1.55-.046-2.357-.383-.806-.336-1.617-.967-2.431-1.89a21.615 21.615 0 01-.479-.573c-.19-.236-.385-.479-.583-.73-.192-.249-.382-.488-.562-.72a7.423 7.423 0 01-.396-.55l9.607-8.46zm.888 4.106a7.49 7.49 0 00-.467-.489 21.996 21.996 0 00-.359-.34l-6.43 5.659c.022.046.064.105.125.184l.186.238c.062.081.125.161.188.238.058.076.108.14.147.185.466.529.938.865 1.41 1.008.474.143.94.15 1.396.025a4.389 4.389 0 001.35-.652c.441-.308.863-.639 1.268-.993.348-.306.69-.644 1.028-1.015.339-.371.596-.769.774-1.193a2.56 2.56 0 00.17-1.354c-.062-.479-.326-.979-.786-1.501zM785.404 468.754c.576-.507 1.167-.87 1.766-1.09.6-.22 1.198-.308 1.788-.263a4.241 4.241 0 011.715.523c.549.303 1.066.729 1.549 1.276.507.575.872 1.167 1.098 1.771a4.26 4.26 0 01.275 1.791 4.178 4.178 0 01-.523 1.713 5.83 5.83 0 01-1.271 1.542c-.575.508-1.162.871-1.766 1.092a4.202 4.202 0 01-1.789.262 4.213 4.213 0 01-1.711-.523c-.551-.303-1.066-.729-1.55-1.276-.508-.575-.873-1.167-1.1-1.771a4.239 4.239 0 01-.271-1.79c.041-.59.214-1.16.521-1.714a5.853 5.853 0 011.269-1.543zm1.619 1.838a3.532 3.532 0 00-.729.858 2.673 2.673 0 00-.357.947c-.056.324-.039.644.049.954.087.312.256.61.508.894.466.53 1.015.812 1.646.849.632.035 1.312-.268 2.046-.912.627-.555 1.002-1.156 1.117-1.811.112-.653-.083-1.269-.589-1.843a2.855 2.855 0 00-.743-.61 1.853 1.853 0 00-.879-.238 2.457 2.457 0 00-.988.202c-.347.145-.708.38-1.081.71zM795.965 486.198a3.305 3.305 0 01-.728-.177 6.202 6.202 0 01-.873-.398 6.885 6.885 0 01-.95-.637 7.18 7.18 0 01-.927-.888c-.516-.585-.892-1.18-1.134-1.786a4.176 4.176 0 01-.312-1.807 4.181 4.181 0 01.492-1.732c.293-.561.725-1.09 1.293-1.589.603-.529 1.215-.897 1.834-1.104a4.211 4.211 0 011.826-.207 4.346 4.346 0 011.709.574 5.976 5.976 0 011.506 1.253c.307.349.575.747.811 1.196.233.451.376.931.427 1.438a3.399 3.399 0 01-.228 1.552c-.203.525-.595 1.042-1.169 1.549a8.732 8.732 0 01-1.395.986l-4.346-4.937c-.283.267-.477.545-.576.837a2.001 2.001 0 00-.096.886c.038.3.132.598.285.892.154.295.354.578.594.854.481.548.942.941 1.381 1.181.437.239.846.39 1.221.447l-.645 1.617zm2.287-7.269a3.045 3.045 0 00-.688-.586 2.506 2.506 0 00-.788-.314 2.024 2.024 0 00-.835-.007 1.97 1.97 0 00-.799.36l2.97 3.373c.456-.401.706-.845.752-1.329.042-.487-.162-.985-.612-1.497z"/></g><path fill="#2E9AFF" stroke="#FFF" stroke-width="3.039" stroke-linecap="round" stroke-linejoin="round" stroke-miterlimit="10" d="M909.896 287.763c10.505 11.934 9.346 30.125-2.591 40.627 11.937-10.503 30.124-9.344 40.632 2.592M605.163 363.682c13.684-12.043 34.537-10.713 46.579 2.971-12.042-13.684-10.713-34.536 2.969-46.579M834.403 624.137c13.682-12.043 15.01-32.895 2.968-46.576 12.042 13.683 32.896 15.013 46.579 2.968M896.694 281.748a7.842 7.842 0 01-11.068-.705 7.842 7.842 0 1111.772-10.363 7.84 7.84 0 01-.704 11.068z"/><circle fill="#2E9AFF" stroke="#FFF" stroke-width="3.039" stroke-linecap="round" stroke-linejoin="round" stroke-miterlimit="10" cx="956.944" cy="350.203" r="7.843"/></g><g><path fill="#FFF" d="M281.787 690.094c-9.756 0-18.514-5.426-22.854-14.156L101.925 360.181c-3.034-6.101-3.511-13.018-1.341-19.478 2.169-6.459 6.723-11.688 12.824-14.721l145.496-72.347a25.261 25.261 0 0111.344-2.672c9.756 0 18.514 5.424 22.854 14.156L450.11 580.877c6.262 12.594 1.109 27.936-11.483 34.197l-145.498 72.348a25.259 25.259 0 01-11.342 2.672zm-11.539-424.99c-1.758 0-3.456.401-5.049 1.193l-145.496 72.346a11.3 11.3 0 00-5.716 6.562 11.294 11.294 0 00.598 8.681l157.008 315.757a11.318 11.318 0 0010.194 6.312c1.757 0 3.455-.4 5.047-1.191l145.498-72.348c5.612-2.791 7.908-9.629 5.117-15.242L280.442 271.416a11.315 11.315 0 00-10.194-6.312z"/><path fill="#FFF" d="M239.424 264.156l4.29 19.238c1.086 4.873-1.684 10.679-6.153 12.901l-72.943 36.271c-4.47 2.223-10.771.926-14.001-2.882l-12.751-15.029"/><circle fill="#FFF" cx="232.268" cy="380.957" r="44.54"/><path fill="#2E9AFF" d="M261.592 354.438c-.454.226-.887.477-1.304.745-11.174-12.158-29.439-16.029-44.967-8.309-15.529 7.721-23.467 24.622-20.517 40.87a13.13 13.13 0 00-1.379.589c-6.537 3.25-9.2 11.183-5.95 17.719 3.25 6.537 11.184 9.2 17.719 5.95.997-.496 1.9-1.101 2.709-1.791 11.24 9.352 27.377 11.757 41.312 4.829 13.935-6.929 21.755-21.248 21.083-35.854a13.318 13.318 0 003.063-1.078c6.536-3.25 9.199-11.183 5.95-17.72-3.25-6.537-11.183-9.2-17.719-5.95z"/><defs><path id="i" d="M261.592 354.438c-.454.226-.887.477-1.304.745-11.174-12.158-29.439-16.029-44.967-8.309-15.529 7.721-23.467 24.622-20.517 40.87a13.13 13.13 0 00-1.379.589c-6.537 3.25-9.2 11.183-5.95 17.719 3.25 6.537 11.184 9.2 17.719 5.95.997-.496 1.9-1.101 2.709-1.791 11.24 9.352 27.377 11.757 41.312 4.829 13.935-6.929 21.755-21.248 21.083-35.854a13.318 13.318 0 003.063-1.078c6.536-3.25 9.199-11.183 5.95-17.72-3.25-6.537-11.183-9.2-17.719-5.95z"/></defs><clipPath id="j"><use xlink:href="#i" overflow="visible"/></clipPath><circle clip-path="url(#j)" cx="183.779" cy="356.837" r="33.549"/><defs><path id="k" d="M261.592 354.438c-.454.226-.887.477-1.304.745-11.174-12.158-29.439-16.029-44.967-8.309-15.529 7.721-23.467 24.622-20.517 40.87a13.13 13.13 0 00-1.379.589c-6.537 3.25-9.2 11.183-5.95 17.719 3.25 6.537 11.184 9.2 17.719 5.95.997-.496 1.9-1.101 2.709-1.791 11.24 9.352 27.377 11.757 41.312 4.829 13.935-6.929 21.755-21.248 21.083-35.854a13.318 13.318 0 003.063-1.078c6.536-3.25 9.199-11.183 5.95-17.72-3.25-6.537-11.183-9.2-17.719-5.95z"/></defs><clipPath id="l"><use xlink:href="#k" overflow="visible"/></clipPath><circle clip-path="url(#l)" cx="242.843" cy="327.468" r="33.548"/><g><path fill="none" stroke="#000" stroke-width="2.828" stroke-miterlimit="10" d="M261.592 354.438c-.454.226-.887.477-1.304.745-11.174-12.158-29.439-16.029-44.967-8.309-15.529 7.721-23.467 24.622-20.517 40.87a13.13 13.13 0 00-1.379.589c-6.537 3.25-9.2 11.183-5.95 17.719 3.25 6.537 11.184 9.2 17.719 5.95.997-.496 1.9-1.101 2.709-1.791 11.24 9.352 27.377 11.757 41.312 4.829 13.935-6.929 21.755-21.248 21.083-35.854a13.318 13.318 0 003.063-1.078c6.536-3.25 9.199-11.183 5.95-17.72-3.25-6.537-11.183-9.2-17.719-5.95z"/></g><path fill="none" stroke="#000" stroke-width="2.828" stroke-linecap="round" stroke-linejoin="round" stroke-miterlimit="10" d="M191.757 400.017l11.181 4.282M270.5 360.863l-3.334 11.5"/><g><circle cx="218.928" cy="392.103" r="5.022"/><path fill="none" stroke="#000" stroke-width="2.828" stroke-linecap="round" stroke-linejoin="round" stroke-miterlimit="10" d="M228.257 388.392a12.144 12.144 0 00-11.335-.268 12.14 12.14 0 00-6.627 9.199"/></g><g><circle cx="248.277" cy="377.509" r="5.023"/><path fill="none" stroke="#000" stroke-width="2.828" stroke-linecap="round" stroke-linejoin="round" stroke-miterlimit="10" d="M257.606 373.798a12.141 12.141 0 00-11.335-.268 12.142 12.142 0 00-6.628 9.2"/></g><path fill="none" stroke="#000" stroke-width="2.828" stroke-linecap="round" stroke-linejoin="round" stroke-miterlimit="10" d="M233.847 384.726l3.256 6.548"/><path fill="#FFF" d="M244.994 391.989a6.614 6.614 0 01-2.979 8.869 6.618 6.618 0 01-8.87-2.979"/><g><path fill="#2E9AFF" stroke="#FFF" stroke-width="2.514" stroke-miterlimit="10" d="M371.127 528.424c4.56 9.168.823 20.294-8.345 24.852L289.63 589.65c-9.166 4.559-20.295.821-24.853-8.347h0c-4.56-9.168-.823-20.297 8.345-24.854l73.152-36.375c9.167-4.554 20.295-.818 24.853 8.35h0z"/><g fill="#FFF"><path d="M283.408 574.281l.056-.027-1.297-6.445 1.572-.782 1.53 8.914-1.729.858-6.249-6.565 1.695-.845 4.422 4.892zM287.743 573.188l1.949-.969-1.541-3.102-1.951.969-.605-1.219 3.39-1.687 2.148 4.32 2.05-1.018.606 1.219-5.44 2.703-.606-1.216zm-1.214-6.665a.875.875 0 01-.037-.714c.089-.247.284-.444.588-.598.31-.154.598-.195.864-.125.265.07.454.221.568.449a.805.805 0 01.012.719c-.109.244-.318.443-.629.598-.303.15-.576.193-.822.125a.824.824 0 01-.544-.454zM299.966 567.898a2.22 2.22 0 01-.241.444 4.357 4.357 0 01-.996 1.013 4.748 4.748 0 01-.742.45c-.473.236-.929.38-1.368.433a2.823 2.823 0 01-1.236-.109 2.845 2.845 0 01-1.049-.625 3.825 3.825 0 01-.814-1.121c-.242-.487-.377-.955-.403-1.396a2.85 2.85 0 01.183-1.23c.149-.376.373-.719.675-1.02a4.099 4.099 0 012.009-1.088 2.646 2.646 0 011.015-.027c.341.055.666.195.976.418.31.225.58.568.812 1.033.157.317.292.68.401 1.086l-3.988 1.981c.125.234.273.408.447.525.172.115.36.188.563.217.202.027.413.019.634-.03.219-.052.439-.13.662-.24.442-.219.781-.451 1.014-.697.232-.244.401-.484.506-.721l.94.704zm-4.36-2.765a2.08 2.08 0 00-.504.351 1.654 1.654 0 00-.344.459c-.086.17-.137.352-.15.547-.013.194.02.389.098.586l2.725-1.355c-.184-.369-.43-.608-.739-.725-.31-.115-.671-.07-1.086.137zM302.785 561.979l2.036 2.013.057-.027-.375-1.002-.939-3.029 1.297-.645 1.636 6.098-1.452.722-1.711-1.888-.056.029.394 2.541-1.496.744-3.918-4.963 1.44-.717 2.069 2.801.43.643.056-.026-.386-2.834.918-.46zM317.908 556.463l1.219-.606 1.102 2.217c-.151.287-.387.569-.704.848-.318.277-.67.512-1.054.701a4.928 4.928 0 01-1.497.477 3.353 3.353 0 01-1.506-.12c-.491-.156-.965-.441-1.42-.857-.454-.412-.863-.986-1.227-1.717-.379-.76-.583-1.453-.613-2.08-.029-.623.055-1.183.253-1.672.198-.49.482-.912.85-1.267a4.774 4.774 0 011.183-.844 5.378 5.378 0 011.18-.447c.344-.08.639-.121.887-.123l1.145 2.306-1.219.604-.627-1.264a5.037 5.037 0 00-.736.297 2.28 2.28 0 00-.725.561c-.193.23-.328.503-.402.814-.074.314-.08.664-.016 1.053.062.388.209.81.437 1.269.198.397.428.737.687 1.02.26.281.541.494.842.639.303.144.619.216.949.212.33-.003.665-.089 1.005-.257.243-.12.469-.262.677-.42l-.67-1.344zM317.075 550.451l2.238-1.113 1.41 2.836.044-.021c.06-.326.202-.631.428-.918.226-.287.538-.529.937-.729.281-.139.557-.229.831-.272.272-.046.536-.023.791.062s.502.25.743.492c.24.244.468.582.681 1.01l1.714 3.445-1.44.717-1.564-3.146c-.224-.45-.481-.729-.772-.831-.291-.104-.592-.078-.902.075a1.426 1.426 0 00-.63.623 1.526 1.526 0 00-.171.879l1.758 3.535-1.44.717-3.251-6.536-.797.396-.608-1.221zM326.008 549.242a6.94 6.94 0 01.854-.854 6.604 6.604 0 011.308-.828c.385-.19.734-.309 1.051-.35.314-.041.598-.02.849.068.251.088.472.229.662.43.192.199.361.447.509.742.187.377.334.705.439.981.105.281.211.521.314.73.076.154.171.324.281.508.066.098.127.191.182.283l.72-.357.606 1.22-1.859.924-.521-.683-.056.027a2.147 2.147 0 01-.332.906c-.189.301-.516.565-.979.795-.551.274-1.061.344-1.529.211-.471-.135-.826-.447-1.068-.935-.154-.311-.23-.606-.229-.889s.074-.549.219-.801c.146-.252.354-.488.622-.711.271-.222.592-.424.966-.609.133-.065.275-.129.43-.188.154-.058.342-.131.562-.224a1.189 1.189 0 00-.089-.231l-.104-.211c-.14-.281-.319-.441-.542-.484-.222-.041-.49.019-.806.174-.374.187-.688.4-.94.646a7.603 7.603 0 00-.615.666l-.905-.956zm3.907 3.129c.352-.174.582-.369.692-.586s.17-.418.177-.605l-.33-.666c-.08.021-.199.062-.354.113a4.297 4.297 0 00-.485.207c-.139.07-.271.15-.397.246-.125.094-.229.197-.311.307s-.135.226-.156.349a.58.58 0 00.062.368c.103.207.243.339.42.394.177.054.405.012.682-.127zM331.603 545.99l1.939-.965.53.647.044-.021c.052-.32.193-.648.422-.984.23-.334.566-.611 1.01-.832a2.82 2.82 0 01.825-.271 1.6 1.6 0 01.797.059c.254.086.503.25.747.49.246.242.475.578.688 1.008l1.714 3.445-1.44.717-1.564-3.146c-.225-.45-.487-.727-.789-.823-.303-.099-.609-.07-.919.084-.274.137-.483.34-.63.608a1.326 1.326 0 00-.164.82l1.785 3.59-1.441.717-2.148-4.319-.797.396-.609-1.22zM338.25 542.686l1.938-.965.531.648.043-.021c.053-.319.193-.647.423-.983s.566-.613 1.009-.832c.273-.138.549-.228.826-.271.276-.047.541-.026.797.06.254.086.503.25.747.489.245.242.475.578.688 1.008l1.714 3.444-1.441.715-1.564-3.146c-.224-.449-.486-.725-.789-.822a1.187 1.187 0 00-.918.084 1.418 1.418 0 00-.631.609 1.326 1.326 0 00-.164.82l1.785 3.59-1.441.717-2.148-4.32-.797.396-.608-1.22zM353.144 541.457a2.336 2.336 0 01-.242.443 4.26 4.26 0 01-.996 1.014 4.751 4.751 0 01-.742.451 4.225 4.225 0 01-1.367.432 2.805 2.805 0 01-1.236-.109 2.845 2.845 0 01-1.051-.625 3.784 3.784 0 01-.812-1.12c-.242-.488-.377-.955-.403-1.396a2.86 2.86 0 01.182-1.229 2.98 2.98 0 01.676-1.021 4.076 4.076 0 011.084-.766 3.86 3.86 0 01.924-.322 2.612 2.612 0 011.016-.027c.341.056.666.193.975.418.311.226.58.568.812 1.033.157.318.291.681.4 1.086l-3.988 1.982c.125.233.274.408.447.524.174.115.361.188.563.218.203.026.414.018.633-.031.22-.051.44-.129.662-.24.443-.219.781-.453 1.014-.697.233-.243.402-.483.506-.72l.943.702zm-4.361-2.765c-.192.096-.36.213-.503.35-.146.137-.26.289-.345.459-.087.17-.136.352-.15.547-.014.195.019.389.098.584l2.726-1.354c-.184-.369-.431-.609-.74-.726-.311-.112-.673-.067-1.086.14zM351.274 533.446l2.359-1.175 2.545 5.119c.283.568.549.931.799 1.08.252.152.531.152.842-.004.229-.113.406-.229.529-.352.124-.121.238-.265.342-.426l1.038.729a8.37 8.37 0 01-.263.414 2.82 2.82 0 01-.717.715 4.172 4.172 0 01-.54.316c-.694.344-1.303.426-1.825.244-.524-.183-.947-.599-1.271-1.248l-2.312-4.652-.92.457-.606-1.217z"/></g><g fill="none" stroke="#231F20" stroke-width="2.828" stroke-linecap="round" stroke-linejoin="round" stroke-miterlimit="10"><path d="M215.862 500.129l123.437-61.377M243.247 507.567l85.454-42.49M238.979 530.745l110.777-55.082M272.696 535.034l60.133-29.899"/></g><path fill="none" stroke="#231F20" stroke-width="2.828" stroke-linecap="round" stroke-linejoin="round" stroke-miterlimit="10" d="M306.48 602.98l60.133-29.9M327.431 613.354l34.81-17.311"/></g><g><path d="M225.749 459.307l6.879-3.42 3.65 7.34c.311.627.523 1.254.637 1.882a3.87 3.87 0 01-.672 2.942 5.124 5.124 0 01-1.441 1.332 7.355 7.355 0 01-2.225.933 5.65 5.65 0 01-1.788.118l-.094-2.21c.536.034.975.016 1.314-.059a4.81 4.81 0 001.104-.405 2.83 2.83 0 00.712-.526 2 2 0 00.499-.834c.176-.607.08-1.285-.291-2.031l-2.66-5.351-4.625 2.302-.999-2.013zM238.368 462.27c-.343-.69-.545-1.356-.604-1.997a4.24 4.24 0 01.209-1.81 4.224 4.224 0 01.953-1.529c.437-.457.984-.85 1.643-1.178.691-.344 1.36-.545 2.008-.606a4.28 4.28 0 011.812.196 4.16 4.16 0 011.53.951c.459.443.851.988 1.172 1.636.344.691.545 1.358.604 1.999a4.224 4.224 0 01-.209 1.81 4.234 4.234 0 01-.953 1.528 5.81 5.81 0 01-1.642 1.179c-.691.344-1.361.545-2.008.606a4.276 4.276 0 01-1.812-.196c-.561-.193-1.072-.511-1.531-.953s-.85-.988-1.172-1.636zm2.205-1.096c.181.361.396.672.648.93.252.26.527.457.828.595.301.137.615.204.941.2a2.342 2.342 0 001-.263c.636-.315 1.053-.775 1.252-1.382.199-.605.08-1.346-.357-2.225-.375-.756-.867-1.275-1.471-1.558-.605-.28-1.254-.249-1.945.096a2.851 2.851 0 00-.786.564 1.86 1.86 0 00-.458.791 2.497 2.497 0 00-.06 1.017c.049.373.186.785.408 1.235zM243.985 450.24l3.324-1.653 2.096 4.215.064-.033c.089-.481.3-.938.636-1.362.336-.426.799-.788 1.392-1.082a4.286 4.286 0 011.234-.408 2.458 2.458 0 011.176.092c.378.127.745.372 1.104.734.358.363.695.863 1.012 1.5l2.546 5.117-2.141 1.063-2.324-4.676c-.332-.668-.715-1.08-1.148-1.234-.432-.153-.879-.116-1.34.113-.406.201-.718.51-.935.926a2.246 2.246 0 00-.254 1.308l2.61 5.25-2.139 1.063-4.829-9.711-1.185.59-.899-1.812zM255.694 448.524l2.881-1.433.786.963.065-.032c.078-.477.287-.966.629-1.462.34-.497.84-.911 1.498-1.237a4.284 4.284 0 011.228-.404 2.448 2.448 0 011.184.088c.377.127.748.371 1.112.73.362.36.704.858 1.021 1.494l2.545 5.118-2.141 1.063-2.324-4.675c-.332-.669-.723-1.076-1.172-1.224-.449-.146-.904-.104-1.365.125a2.107 2.107 0 00-.936.906 1.97 1.97 0 00-.244 1.219l2.651 5.334-2.14 1.063-3.192-6.419-1.186.59-.9-1.807zM274.434 435.1c.093-.06.258-.161.494-.307a38 38 0 011.762-1c.33-.178.625-.331.889-.463 1.021-.507 1.939-.779 2.756-.814.817-.037 1.55.107 2.198.437.649.328 1.226.807 1.731 1.438.506.632.966 1.363 1.381 2.197.376.758.667 1.535.873 2.336.207.801.251 1.584.131 2.348-.119.765-.447 1.494-.982 2.193-.536.695-1.358 1.321-2.467 1.873-.176.086-.402.193-.684.318a57.37 57.37 0 01-1.707.735 8.479 8.479 0 01-.637.244l-5.738-11.535zm4.224.197c-.208.104-.407.215-.597.329s-.33.2-.424.262l3.838 7.72c.05-.012.119-.036.211-.073l.279-.119.279-.118c.091-.038.163-.069.219-.097.636-.316 1.084-.688 1.346-1.112.262-.424.391-.874.386-1.351a4.447 4.447 0 00-.284-1.48 14.118 14.118 0 00-.639-1.49 13.26 13.26 0 00-.721-1.264 4.149 4.149 0 00-.959-1.062 2.611 2.611 0 00-1.273-.517c-.48-.062-1.035.062-1.661.372zM287.745 437.719c-.344-.69-.545-1.356-.604-2-.06-.641.01-1.242.209-1.808.198-.563.516-1.073.953-1.53s.984-.85 1.644-1.178c.691-.343 1.359-.545 2.007-.606a4.294 4.294 0 011.812.196c.562.193 1.072.512 1.531.953s.851.987 1.172 1.635c.344.691.545 1.357.604 1.998a4.227 4.227 0 01-.209 1.811c-.199.562-.516 1.072-.953 1.529s-.983.851-1.642 1.176c-.692.346-1.36.548-2.008.607a4.262 4.262 0 01-1.812-.197c-.562-.19-1.072-.51-1.531-.951s-.851-.988-1.173-1.635zm2.205-1.097c.18.361.396.672.647.932.252.259.528.455.829.595.301.137.615.202.941.198.325-.006.658-.092.999-.262.636-.316 1.054-.776 1.253-1.382.197-.605.078-1.347-.357-2.225-.377-.758-.867-1.276-1.473-1.558-.605-.281-1.252-.249-1.943.095-.308.152-.57.341-.787.564-.217.224-.369.488-.458.793s-.108.643-.06 1.014c.05.375.186.786.409 1.236zM307.445 431.967a3.13 3.13 0 01-.36.66 5.848 5.848 0 01-.613.747 7.019 7.019 0 01-1.967 1.431c-.703.351-1.381.563-2.033.642a4.259 4.259 0 01-1.836-.164 4.254 4.254 0 01-1.561-.929c-.467-.432-.87-.986-1.209-1.668-.359-.725-.56-1.415-.6-2.072a4.265 4.265 0 01.271-1.829 4.45 4.45 0 011.002-1.515 6.117 6.117 0 012.984-1.618 3.923 3.923 0 011.508-.041c.507.082.99.29 1.449.623.46.332.862.846 1.205 1.534.235.474.434 1.011.597 1.613l-5.925 2.947c.186.345.406.604.664.777.257.174.536.28.838.321.301.043.615.026.941-.047.326-.073.653-.191.982-.354.658-.328 1.161-.674 1.507-1.037.347-.363.597-.72.751-1.07l1.405 1.049zm-6.477-4.108a3.03 3.03 0 00-.748.519 2.536 2.536 0 00-.512.685 2.103 2.103 0 00-.223.812c-.02.289.027.579.145.87l4.049-2.014c-.271-.55-.639-.906-1.099-1.076-.46-.17-.997-.102-1.612.204z"/></g></g><g><path fill="none" stroke="#231F20" stroke-width="2.792" stroke-miterlimit="10" d="M718.379 752.316l-162.654 65.395.002.004c-21.512 8.744-31.867 33.381-23.13 55.111 8.735 21.729 33.264 32.34 54.839 23.764l.004.002 162.652-65.393"/><path fill="none" stroke="#231F20" stroke-width="2.636" stroke-miterlimit="10" d="M869.5 783.342l5.939-2.389.002.002c10.344-4.111 22.099.975 26.284 11.391 4.188 10.414-.773 22.222-11.086 26.414h.002l-89.685 36.058.007-.027-94.021 37.801-.003-.006"/><path fill="none" stroke="#231F20" stroke-width="2.636" stroke-miterlimit="10" d="M837.23 704.736l6.516-2.617h0c10.344-4.109 22.099.975 26.286 11.391l31.566 78.558"/><g stroke="#FFF" stroke-width="2.636" stroke-miterlimit="10"><path fill="#2E9AFF" d="M853.462 802.426l-80.103 32.203c-10.81 4.346-23.095-.895-27.438-11.699l7.375 18.345c4.347 10.809 16.629 16.047 27.438 11.698l80.104-32.2c10.806-4.347 16.046-16.632 11.7-27.438l-7.374-18.346c4.344 10.808-.896 23.093-11.702 27.437z"/><path fill="none" d="M805.521 683.186l-80.104 32.203c-10.808 4.347-16.046 16.631-11.701 27.437l7.375 18.348 24.829 61.758c4.344 10.806 16.629 16.045 27.438 11.699l80.103-32.203c10.806-4.344 16.046-16.629 11.701-27.438l-24.83-61.759-7.374-18.344c-4.345-10.809-16.629-16.047-27.437-11.701z"/></g><circle fill="#FFF" cx="799.417" cy="752.392" r="36.767"/><path fill="#2E9AFF" d="M819.387 778.207c-.158-.387-.337-.76-.531-1.119 10.716-8.428 15.06-23.215 9.688-36.486-5.371-13.268-18.778-20.873-32.341-19.475a10.665 10.665 0 00-.396-1.174c-2.26-5.584-8.621-8.279-14.205-6.021-5.588 2.263-8.28 8.623-6.021 14.209.346.851.787 1.636 1.303 2.343-8.406 8.659-11.41 21.788-6.591 33.694 4.819 11.908 16.108 19.254 28.173 19.625.121.871.352 1.738.694 2.59 2.263 5.584 8.62 8.279 14.207 6.021 5.584-2.26 8.281-8.623 6.02-14.207z"/><defs><path id="m" d="M819.387 778.207c-.158-.387-.337-.76-.531-1.119 10.716-8.428 15.06-23.215 9.688-36.486-5.371-13.268-18.778-20.873-32.341-19.475a10.665 10.665 0 00-.396-1.174c-2.26-5.584-8.621-8.279-14.205-6.021-5.588 2.263-8.28 8.623-6.021 14.209.346.851.787 1.636 1.303 2.343-8.406 8.659-11.41 21.788-6.591 33.694 4.819 11.908 16.108 19.254 28.173 19.625.121.871.352 1.738.694 2.59 2.263 5.584 8.62 8.279 14.207 6.021 5.584-2.26 8.281-8.623 6.02-14.207z"/></defs><clipPath id="n"><use xlink:href="#m" overflow="visible"/></clipPath><circle clip-path="url(#n)" cx="822.341" cy="714.012" r="27.695"/><defs><path id="o" d="M819.387 778.207c-.158-.387-.337-.76-.531-1.119 10.716-8.428 15.06-23.215 9.688-36.486-5.371-13.268-18.778-20.873-32.341-19.475a10.665 10.665 0 00-.396-1.174c-2.26-5.584-8.621-8.279-14.205-6.021-5.588 2.263-8.28 8.623-6.021 14.209.346.851.787 1.636 1.303 2.343-8.406 8.659-11.41 21.788-6.591 33.694 4.819 11.908 16.108 19.254 28.173 19.625.121.871.352 1.738.694 2.59 2.263 5.584 8.62 8.279 14.207 6.021 5.584-2.26 8.281-8.623 6.02-14.207z"/></defs><clipPath id="p"><use xlink:href="#o" overflow="visible"/></clipPath><circle clip-path="url(#p)" cx="842.771" cy="764.483" r="27.694"/><g><path fill="none" stroke="#000" stroke-width="2.334" stroke-miterlimit="10" d="M819.387 778.207c-.158-.387-.337-.76-.531-1.119 10.716-8.428 15.06-23.215 9.688-36.486-5.371-13.268-18.778-20.873-32.341-19.475a10.665 10.665 0 00-.396-1.174c-2.26-5.584-8.621-8.279-14.205-6.021-5.588 2.263-8.28 8.623-6.021 14.209.346.851.787 1.636 1.303 2.343-8.406 8.659-11.41 21.788-6.591 33.694 4.819 11.908 16.108 19.254 28.173 19.625.121.871.352 1.738.694 2.59 2.263 5.584 8.62 8.279 14.207 6.021 5.584-2.26 8.281-8.623 6.02-14.207z"/></g><path fill="none" stroke="#000" stroke-width="2.334" stroke-linecap="round" stroke-linejoin="round" stroke-miterlimit="10" d="M786.296 717.842l-4.234 8.931M813.533 785.133l-9.254-3.475"/><g><path d="M792.643 744.551a4.149 4.149 0 01-5.396-2.289 4.145 4.145 0 115.396 2.289z"/><path fill="none" stroke="#000" stroke-width="2.334" stroke-linecap="round" stroke-linejoin="round" stroke-miterlimit="10" d="M793.551 748.617a10.008 10.008 0 00.939-9.31 10.03 10.03 0 00-7.151-6.041"/></g><g><path d="M802.795 769.629a4.144 4.144 0 11-3.109-7.684 4.148 4.148 0 015.398 2.284 4.15 4.15 0 01-2.289 5.4z"/><path fill="none" stroke="#000" stroke-width="2.334" stroke-linecap="round" stroke-linejoin="round" stroke-miterlimit="10" d="M803.701 773.699a10.023 10.023 0 00.941-9.312 10.029 10.029 0 00-7.153-6.037"/></g><path fill="none" stroke="#000" stroke-width="2.334" stroke-linecap="round" stroke-linejoin="round" stroke-miterlimit="10" d="M796.214 753.451l-5.595 2.266"/><path fill="#FFF" d="M789.53 762.168a5.462 5.462 0 11-4.097-10.125"/><g><path d="M744.771 739.078l2.406 5.869-6.262 2.563a5.73 5.73 0 01-1.587.416 3.172 3.172 0 01-2.381-.731 4.204 4.204 0 01-.604-.627 4.381 4.381 0 01-.408-.64 6.873 6.873 0 01-.247-.522 6.238 6.238 0 01-.389-1.363 4.831 4.831 0 01.008-1.479l1.825.055c-.06.439-.067.801-.028 1.086.039.283.129.594.27.93.083.209.215.414.392.619s.396.359.658.461c.488.181 1.053.144 1.688-.119l4.562-1.872-1.618-3.943 1.715-.703zM741.58 749.293c.59-.242 1.15-.367 1.682-.379a3.504 3.504 0 011.478.279c.453.198.854.489 1.204.875.351.389.642.86.871 1.424.239.588.367 1.149.38 1.688a3.477 3.477 0 01-.27 1.48 3.406 3.406 0 01-.876 1.205c-.391.35-.863.643-1.415.867-.59.239-1.15.366-1.684.377a3.505 3.505 0 01-1.477-.279 3.47 3.47 0 01-1.202-.875 4.74 4.74 0 01-.871-1.422c-.242-.592-.368-1.152-.381-1.689a3.5 3.5 0 01.269-1.479c.194-.449.483-.854.877-1.205.392-.351.864-.64 1.415-.867zm.774 1.881a2.95 2.95 0 00-.806.478 2.304 2.304 0 00-.538.646 1.803 1.803 0 00-.22.762c-.015.271.035.552.155.843.223.543.574.911 1.062 1.112.485.199 1.104.146 1.854-.162.646-.264 1.102-.639 1.37-1.12.267-.482.277-1.017.038-1.604a2.467 2.467 0 00-.42-.684 1.559 1.559 0 00-.625-.422 1.918 1.918 0 00-.832-.111c-.309.016-.656.104-1.038.262zM751.15 754.631l1.164 2.838-3.593 1.474.021.057c.392.102.754.305 1.084.604.333.304.602.703.81 1.212.146.354.232.698.262 1.038.028.339-.019.656-.146.964-.127.303-.351.592-.671.864-.319.273-.751.521-1.292.742l-4.367 1.793-.748-1.828 3.986-1.633c.567-.236.933-.522 1.084-.873.153-.344.149-.717-.013-1.106a1.7 1.7 0 00-.706-.826 1.873 1.873 0 00-1.061-.289l-4.478 1.84-.75-1.826 8.281-3.397-.414-1.008 1.547-.64zM751.87 764.375l1.006 2.455-.84.592.023.057c.39.093.775.294 1.165.604.391.311.7.746.933 1.309.14.345.226.691.259 1.031.031.347-.018.668-.146.972-.127.305-.349.596-.667.87-.318.279-.746.529-1.289.75l-4.367 1.795-.747-1.827 3.986-1.636c.569-.233.93-.53 1.075-.893.148-.361.141-.736-.021-1.131a1.747 1.747 0 00-.69-.824 1.66 1.66 0 00-.992-.275l-4.544 1.867-.749-1.826 5.474-2.243-.415-1.011 1.546-.636zM761.806 780.602l.226.427a35.882 35.882 0 011.045 2.266c.356.871.527 1.646.508 2.318-.018.678-.183 1.271-.49 1.785s-.736.959-1.287 1.34c-.55.377-1.181.711-1.892 1.004a9.685 9.685 0 01-1.978.582 4.796 4.796 0 01-1.938-.031c-.622-.146-1.205-.457-1.746-.941-.545-.483-1.009-1.194-1.396-2.141a13.96 13.96 0 01-.222-.582c-.088-.236-.172-.481-.259-.729-.087-.25-.167-.49-.247-.72a7.19 7.19 0 01-.165-.539l9.841-4.039zm-.415 3.466a6.097 6.097 0 00-.231-.511c-.082-.161-.148-.282-.189-.366l-6.586 2.702a.837.837 0 00.049.177c.025.08.054.155.079.237.027.082.059.16.082.238.026.076.05.139.067.188.224.539.5.932.835 1.172.335.239.698.373 1.09.397.395.023.807-.024 1.235-.145a12.09 12.09 0 001.264-.439c.354-.145.717-.317 1.084-.518.366-.197.678-.439.931-.728.258-.285.424-.623.504-1.02.075-.386.006-.85-.214-1.384zM758.857 791.406c.59-.24 1.151-.367 1.684-.379a3.456 3.456 0 011.475.278c.453.197.854.488 1.205.875.351.39.642.861.87 1.425.242.59.368 1.153.381 1.688a3.487 3.487 0 01-.27 1.48 3.373 3.373 0 01-.876 1.202 4.724 4.724 0 01-1.415.869c-.591.244-1.151.369-1.685.381a3.502 3.502 0 01-1.476-.282 3.486 3.486 0 01-1.203-.873 4.803 4.803 0 01-.871-1.422c-.241-.593-.368-1.156-.381-1.689a3.53 3.53 0 01.271-1.482c.192-.45.482-.852.877-1.2a4.782 4.782 0 011.414-.871zm.773 1.881a2.96 2.96 0 00-.803.477 2.259 2.259 0 00-.54.648c-.131.24-.203.494-.221.762-.015.271.035.549.156.84.223.541.575.912 1.062 1.113.486.199 1.104.146 1.854-.16.646-.266 1.101-.639 1.367-1.121.268-.481.279-1.016.039-1.606a2.374 2.374 0 00-.419-.681 1.567 1.567 0 00-.625-.424 1.996 1.996 0 00-.831-.11c-.309.018-.655.106-1.039.262zM762.423 807.969a2.638 2.638 0 01-.522-.336 5.461 5.461 0 01-1.151-1.305 6.035 6.035 0 01-.487-.949c-.247-.6-.382-1.168-.404-1.711a3.524 3.524 0 01.241-1.504c.19-.459.476-.869.857-1.227.383-.361.862-.66 1.444-.898.618-.254 1.197-.377 1.742-.369.543.006 1.04.117 1.491.332.447.215.845.52 1.186.916.346.395.625.855.844 1.393.145.355.249.74.311 1.16.063.416.044.834-.055 1.242-.1.412-.3.797-.601 1.158-.302.359-.744.658-1.336.9a7.304 7.304 0 01-1.361.395l-2.074-5.055a1.756 1.756 0 00-.681.504 1.565 1.565 0 00-.314.668 2.13 2.13 0 00-.019.779c.041.27.119.549.233.83.229.559.483.993.764 1.301.279.307.561.535.839.682l-.947 1.094zm3.766-5.088a2.519 2.519 0 00-.383-.645 2.029 2.029 0 00-.533-.466 1.75 1.75 0 00-.653-.229 1.553 1.553 0 00-.726.066l1.418 3.452c.467-.19.784-.473.948-.84.169-.369.144-.813-.071-1.338z"/></g><path fill="none" stroke="#231F20" stroke-width="2.636" stroke-miterlimit="10" d="M643.951 873.869l11.8 29.352c1.899 4.729 7.275 7.021 12.003 5.119l51.164-20.567a9.227 9.227 0 005.118-12.005l-11.802-29.352-68.283 27.453zm69.3 3.629l-48.312 19.424-10.817-26.908 48.311-19.42 10.818 26.904z"/><path fill="none" stroke="#231F20" stroke-width="2.53107593" stroke-miterlimit="10" d="M693.686 885.271l-10.194 4.097-10.794-26.86 10.194-4.097z"/><path fill="none" stroke="#FFF" stroke-width="2.531" stroke-miterlimit="10" d="M603.428 845.523a7.576 7.576 0 01-4.203 9.858 7.57 7.57 0 01-9.858-4.205 7.572 7.572 0 014.203-9.856 7.58 7.58 0 019.858 4.203zM651.127 826.348a7.576 7.576 0 01-4.205 9.859 7.577 7.577 0 01-9.859-4.203 7.579 7.579 0 014.207-9.861 7.575 7.575 0 019.857 4.205zM698.824 807.17a7.578 7.578 0 11-14.062 5.654 7.574 7.574 0 014.204-9.857 7.573 7.573 0 019.858 4.203z"/></g></svg>