<svg xmlns="http://www.w3.org/2000/svg" xmlns:xlink="http://www.w3.org/1999/xlink" width="1080" height="1080"><path d="M396.985 194.875c-3.562 0-6.455 2.896-6.455 6.455s2.895 6.455 6.455 6.455c3.558 0 6.454-2.896 6.454-6.455s-2.896-6.455-6.454-6.455z"/><path d="M867.771 170.991H338.459c-11.407 0-20.655 9.248-20.655 20.656v128.857l100.263 201.64h449.704c11.405 0 20.653-9.247 20.653-20.653V191.647c.003-11.408-9.245-20.656-20.653-20.656zm-470.786 39.376c-4.983 0-9.037-4.054-9.037-9.037s4.054-9.037 9.037-9.037c4.979 0 9.036 4.054 9.036 9.037s-4.053 9.037-9.036 9.037z"/><circle fill="#FFF" cx="444.976" cy="308.804" r="67.295"/><path fill="#231F20" d="M444.976 378.005c-38.157 0-69.201-31.043-69.201-69.201 0-38.158 31.043-69.201 69.201-69.201 38.158 0 69.202 31.043 69.202 69.201 0 38.158-31.044 69.201-69.202 69.201zm0-134.59c-36.055 0-65.388 29.333-65.388 65.389 0 36.057 29.333 65.39 65.388 65.39 36.057 0 65.391-29.333 65.391-65.39-.001-36.056-29.336-65.389-65.391-65.389z"/><path fill="#2E9AFF" d="M502.487 292.654c-.769 0-1.521.047-2.268.132-6.938-23.967-29.045-41.493-55.247-41.493-26.201 0-48.312 17.525-55.249 41.493a20.106 20.106 0 00-2.263-.132c-11.027 0-19.969 8.939-19.969 19.97 0 11.029 8.941 19.967 19.969 19.967 1.682 0 3.312-.21 4.87-.601 8.916 20.215 29.129 34.324 52.642 34.324s43.728-14.109 52.645-34.324c1.559.391 3.188.601 4.87.601 11.025 0 19.97-8.938 19.97-19.967 0-11.031-8.941-19.97-19.97-19.97z"/><path fill="none" d="M502.487 292.654c-.769 0-1.521.047-2.268.132-6.873-23.744-28.638-41.156-54.52-41.478-3.732 24.314-24.741 42.935-50.098 42.935-3.919 0-7.729-.459-11.393-1.302-9.477 1.556-16.717 9.762-16.717 19.683 0 11.029 8.941 19.967 19.969 19.967 1.682 0 3.312-.21 4.87-.601 8.916 20.215 29.129 34.324 52.642 34.324s43.728-14.109 52.645-34.324c1.559.391 3.188.601 4.87.601 11.025 0 19.97-8.938 19.97-19.967 0-11.031-8.941-19.97-19.97-19.97z"/><path d="M445.7 251.308c-.243-.003-.484-.015-.728-.015-26.201 0-48.312 17.525-55.249 41.493a20.106 20.106 0 00-2.263-.132c-1.11 0-2.191.114-3.252.288a50.8 50.8 0 0011.393 1.302c25.358-.001 46.367-18.622 50.099-42.936z"/><defs><path id="a" d="M502.487 292.654c-.769 0-1.521.047-2.268.132-6.938-23.967-29.045-41.493-55.247-41.493-26.201 0-48.312 17.525-55.249 41.493a20.106 20.106 0 00-2.263-.132c-11.027 0-19.969 8.939-19.969 19.97 0 11.029 8.941 19.967 19.969 19.967 1.682 0 3.312-.21 4.87-.601 8.916 20.215 29.129 34.324 52.642 34.324s43.728-14.109 52.645-34.324c1.559.391 3.188.601 4.87.601 11.025 0 19.97-8.938 19.97-19.967 0-11.031-8.941-19.97-19.97-19.97z"/></defs><clipPath id="b"><use xlink:href="#a" overflow="visible"/></clipPath><g clip-path="url(#b)"><circle cx="495.264" cy="243.555" r="50.688"/></g><g><path d="M444.974 368.221c-23.018 0-43.942-13.313-53.741-34.05a21.947 21.947 0 01-3.771.326c-12.062 0-21.875-9.812-21.875-21.873 0-12.063 9.813-21.876 21.875-21.876.291 0 .586.006.884.019 7.783-24.443 30.845-41.38 56.626-41.38s48.843 16.937 56.625 41.38c.299-.013.597-.019.889-.019 12.062 0 21.876 9.813 21.876 21.876 0 12.062-9.813 21.873-21.876 21.873-1.265 0-2.527-.109-3.771-.326-9.797 20.736-30.723 34.05-53.741 34.05zm-51.546-38.471l.648 1.471c8.892 20.161 28.871 33.188 50.896 33.188 22.027 0 42.006-13.027 50.899-33.188l.647-1.471 1.56.391c1.438.36 2.921.543 4.407.543 9.96 0 18.062-8.102 18.062-18.061 0-9.96-8.104-18.064-18.062-18.064-.671 0-1.342.04-2.051.12l-1.601.183-.447-1.546c-6.837-23.621-28.803-40.117-53.416-40.117-24.614 0-46.581 16.497-53.417 40.117l-.447 1.545-1.599-.181a18.235 18.235 0 00-2.048-.121c-9.959 0-18.062 8.104-18.062 18.064 0 9.958 8.103 18.061 18.062 18.061a18.17 18.17 0 004.407-.543l1.562-.391z"/></g><g><path d="M389.593 322.561a1.903 1.903 0 01-1.404-.615l-12.246-13.315a1.907 1.907 0 112.807-2.581l12.246 13.315a1.905 1.905 0 01-1.403 3.196z"/></g><g><path d="M497.969 322.561a1.906 1.906 0 01-1.402-3.196l12.246-13.315a1.907 1.907 0 112.807 2.581l-12.247 13.315a1.903 1.903 0 01-1.404.615z"/></g><g><circle cx="419.429" cy="314.911" r="7.587"/><path d="M404.239 318.074a1.905 1.905 0 01-1.571-2.984 20.28 20.28 0 0116.724-8.818 20.288 20.288 0 0116.728 8.818 1.907 1.907 0 01-3.145 2.157 16.467 16.467 0 00-13.582-7.163 16.466 16.466 0 00-13.579 7.162 1.91 1.91 0 01-1.575.828z"/></g><g><circle cx="468.953" cy="314.911" r="7.589"/><path d="M484.073 318.074c-.607 0-1.204-.29-1.573-.828-3.079-4.485-8.157-7.163-13.583-7.163s-10.504 2.678-13.583 7.163a1.906 1.906 0 11-3.142-2.157 20.283 20.283 0 0116.726-8.817 20.292 20.292 0 0116.728 8.816 1.907 1.907 0 01-1.573 2.986z"/></g><g><path d="M444.576 327.922a1.906 1.906 0 01-1.906-1.906v-11.05a1.906 1.906 0 013.812 0v11.05a1.906 1.906 0 01-1.906 1.906z"/></g><g><path fill="#FFF" d="M454.77 332.291c0 5.521-4.474 9.996-9.99 9.996-5.521 0-9.996-4.478-9.996-9.996"/></g><g><path fill="#FFF" d="M860.818 508.381H412.271v-2.828h448.547c6.339 0 11.494-5.158 11.494-11.494v-294.98c0-6.338-5.155-11.495-11.494-11.495H345.413c-6.34 0-11.496 5.156-11.496 11.495v148.96h-2.83v-148.96c0-7.898 6.428-14.324 14.326-14.324h515.405c7.896 0 14.321 6.426 14.321 14.324v294.979c.004 7.898-6.422 14.323-14.321 14.323z"/></g><g><path fill="#FFF" d="M333.415 214.483h540.259v2.829H333.415z"/></g><g><path fill="#FFF" d="M808.382 298.287H550.12a1.414 1.414 0 110-2.829h258.262a1.415 1.415 0 010 2.829zM728.914 321.322H550.12a1.415 1.415 0 010-2.83h178.794a1.415 1.415 0 010 2.83zM781.893 344.356H550.12a1.414 1.414 0 110-2.829h231.771a1.415 1.415 0 01.002 2.829zM675.934 367.391H550.12a1.414 1.414 0 010-2.83h125.812c.782 0 1.415.636 1.415 1.415a1.412 1.412 0 01-1.413 1.415z"/><g><path fill="#FFF" d="M552.188 255h9.391v10.016c0 .854-.109 1.655-.325 2.403a4.703 4.703 0 01-1.18 1.999c-.358.359-.745.643-1.156.853s-.812.367-1.202.472a6.434 6.434 0 01-1.1.202c-.348.03-.63.045-.854.045a9.176 9.176 0 01-2.089-.236 7.02 7.02 0 01-2.021-.842l1.103-2.471c.568.33 1.059.547 1.471.651.411.105.89.158 1.429.158.327 0 .686-.063 1.064-.191a2.39 2.39 0 00.998-.64c.524-.568.787-1.362.787-2.38v-7.299h-6.312V255h-.004zM564.382 265.107c0-.943.146-1.782.429-2.516a5.094 5.094 0 011.215-1.863 5.124 5.124 0 011.875-1.157c.725-.262 1.535-.393 2.437-.393.942 0 1.786.143 2.525.427a5.264 5.264 0 011.876 1.202c.51.517.895 1.142 1.154 1.875.265.733.395 1.542.395 2.426 0 .943-.145 1.782-.427 2.515a5.142 5.142 0 01-1.212 1.864 5.174 5.174 0 01-1.875 1.157c-.729.261-1.539.393-2.438.393-.942 0-1.785-.142-2.526-.427a5.266 5.266 0 01-1.875-1.201 5.003 5.003 0 01-1.155-1.875c-.267-.735-.398-1.544-.398-2.427zm3.011 0c0 .494.065.951.201 1.37.135.419.33.786.585 1.1s.562.558.919.73c.36.172.771.258 1.236.258.868 0 1.575-.277 2.121-.831.548-.554.82-1.43.82-2.627 0-1.034-.256-1.868-.766-2.504-.511-.636-1.233-.955-2.179-.955-.419 0-.812.064-1.168.191a2.308 2.308 0 00-.935.618 2.954 2.954 0 00-.615 1.078c-.145.434-.219.958-.219 1.572zM577.071 255h4.536v5.749h.091c.355-.479.838-.86 1.437-1.145.602-.284 1.305-.427 2.111-.427.568 0 1.093.075 1.572.225.479.15.89.396 1.231.741.347.344.614.812.812 1.403.19.592.291 1.321.291 2.189v6.985h-2.92v-6.378c0-.914-.194-1.572-.583-1.977-.393-.404-.898-.606-1.526-.606-.555 0-1.063.169-1.528.506a2.706 2.706 0 00-.984 1.292v7.164h-2.923v-13.25h-1.614l-.003-2.471zM590.814 259.493h3.932l.336 1.482h.09c.346-.479.839-.898 1.481-1.258.645-.359 1.416-.539 2.312-.539.557 0 1.074.075 1.562.225.483.15.898.396 1.248.741.343.344.615.812.815 1.403.202.592.307 1.321.307 2.189v6.985h-2.921v-6.378c0-.914-.205-1.572-.617-1.977-.412-.404-.936-.606-1.562-.606-.555 0-1.061.162-1.516.483-.457.322-.77.723-.936 1.201v7.277h-2.918v-8.758h-1.617v-2.47h.004zM618.618 255a33.457 33.457 0 011.853-.146c.426-.022.867-.041 1.324-.056.456-.015.865-.022 1.225-.022 1.396 0 2.545.203 3.458.606.913.404 1.639.962 2.167 1.673.531.711.902 1.55 1.112 2.516.209.966.313 2.018.313 3.155a14.62 14.62 0 01-.313 3.032 7.03 7.03 0 01-1.135 2.639c-.546.771-1.302 1.393-2.271 1.865-.966.472-2.202.707-3.717.707-.239 0-.546-.007-.921-.021a70.648 70.648 0 01-1.146-.056c-.39-.023-.764-.044-1.123-.067a9.59 9.59 0 01-.828-.079V255h.002zm4.514 2.516c-.283 0-.561.011-.83.034-.271.022-.473.041-.604.056v10.533c.059.015.146.026.27.034l.37.022.37.023c.12.008.218.011.293.011.868 0 1.562-.161 2.077-.483a3.076 3.076 0 001.157-1.269 5.376 5.376 0 00.491-1.774 17.69 17.69 0 00.111-1.977c0-.569-.034-1.16-.102-1.774a5.105 5.105 0 00-.474-1.685 3.145 3.145 0 00-1.108-1.257c-.493-.329-1.168-.494-2.021-.494zM631.757 265.107c0-.943.145-1.782.427-2.516a5.14 5.14 0 011.213-1.863 5.174 5.174 0 011.875-1.157c.729-.262 1.539-.393 2.438-.393.943 0 1.785.143 2.526.427.74.285 1.365.685 1.875 1.202s.896 1.142 1.156 1.875c.262.733.394 1.542.394 2.426 0 .943-.144 1.782-.428 2.515a5.108 5.108 0 01-1.214 1.864 5.132 5.132 0 01-1.875 1.157c-.727.261-1.536.393-2.438.393-.942 0-1.785-.142-2.526-.427a5.266 5.266 0 01-1.875-1.201 4.976 4.976 0 01-1.154-1.875c-.263-.735-.394-1.544-.394-2.427zm3.011 0c0 .494.065.951.201 1.37.135.419.328.786.583 1.1s.562.558.921.73c.359.172.771.258 1.235.258.867 0 1.576-.277 2.122-.831.548-.554.82-1.43.82-2.627 0-1.034-.256-1.868-.768-2.504-.509-.636-1.231-.955-2.178-.955-.419 0-.811.064-1.167.191-.36.127-.671.333-.933.618a2.93 2.93 0 00-.618 1.078c-.145.434-.218.958-.218 1.572zM656.438 269.531c-.192.18-.442.354-.752.528a7.314 7.314 0 01-1.078.483 8.341 8.341 0 01-1.357.359c-.492.09-1.02.135-1.57.135-.959 0-1.813-.135-2.568-.404a5.163 5.163 0 01-1.922-1.179 5.143 5.143 0 01-1.2-1.865c-.277-.726-.415-1.553-.415-2.481 0-.988.156-1.853.471-2.594a5.17 5.17 0 011.293-1.854 5.409 5.409 0 011.918-1.112 7.425 7.425 0 012.383-.37c.567 0 1.155.075 1.766.225.604.15 1.161.408 1.673.775.509.367.924.857 1.247 1.471.318.614.479 1.393.479 2.335 0 .645-.073 1.34-.225 2.089h-8.085c.015.48.116.884.305 1.213.188.33.434.599.74.808.306.21.657.364 1.055.461.396.097.819.146 1.271.146.896 0 1.635-.104 2.213-.315.575-.209 1.043-.463 1.401-.763l.957 1.909zm-4.851-8.018a3.73 3.73 0 00-1.101.16 3.107 3.107 0 00-.936.47 2.612 2.612 0 00-.685.766 2.34 2.34 0 00-.313 1.029h5.524c0-.747-.207-1.338-.618-1.773-.407-.434-1.033-.652-1.871-.652z"/></g></g><g><path fill="#FFF" d="M349.648 210.983c-5.323 0-9.653-4.331-9.653-9.653s4.331-9.653 9.653-9.653 9.653 4.331 9.653 9.653-4.33 9.653-9.653 9.653zm0-15.494a5.847 5.847 0 00-5.841 5.841c0 3.221 2.62 5.841 5.841 5.841s5.841-2.62 5.841-5.841a5.847 5.847 0 00-5.841-5.841z"/></g><g><path fill="#2E9AFF" d="M373.316 210.981c-5.322 0-9.651-4.33-9.651-9.651s4.329-9.651 9.651-9.651 9.651 4.33 9.651 9.651-4.329 9.651-9.651 9.651zm0-15.49a5.846 5.846 0 00-5.838 5.839 5.846 5.846 0 005.838 5.839 5.846 5.846 0 005.839-5.839 5.846 5.846 0 00-5.839-5.839z"/></g><g><path fill="#FFF" d="M614.382 439.883H382.611a1.414 1.414 0 110-2.828h231.771a1.414 1.414 0 110 2.828zM508.424 462.918H382.611a1.414 1.414 0 110-2.828h125.812a1.414 1.414 0 01.001 2.828z"/></g><g><path fill="#2E9AFF" d="M962.709 318.305c-11.646 10.252-29.4 9.12-39.648-2.524-10.255-11.648-9.121-29.401 2.526-39.652 11.646-10.252 29.401-9.12 39.65 2.527 10.252 11.645 9.118 29.397-2.528 39.649z"/><path fill="#FFF" d="M944.157 326.83a29.627 29.627 0 01-22.237-10.047c-5.229-5.938-7.829-13.556-7.326-21.451.504-7.894 4.051-15.12 9.989-20.346a29.58 29.58 0 0119.555-7.385 29.63 29.63 0 0122.24 10.048c10.788 12.256 9.593 31.005-2.665 41.795a29.576 29.576 0 01-19.556 7.386zm-.019-56.189a26.548 26.548 0 00-17.547 6.627c-5.329 4.69-8.513 11.174-8.964 18.258-.452 7.084 1.883 13.921 6.574 19.25a26.588 26.588 0 0019.956 9.016 26.55 26.55 0 0017.548-6.627c11-9.683 12.072-26.508 2.392-37.506a26.587 26.587 0 00-19.959-9.018z"/><path fill="#2E9AFF" d="M931.828 306.955c9.06-15.576 8.498-34.095.154-48.691-16.812-.037-33.188 8.627-42.25 24.206"/><path fill="#FFF" d="M933.143 307.719l-2.628-1.527c8.287-14.248 8.486-31.944.58-46.401-16.479.273-31.762 9.196-40.049 23.444l-2.627-1.528c8.96-15.404 25.604-24.961 43.456-24.961h.11l.88.002.437.764c8.88 15.531 8.818 34.77-.159 50.207z"/><path fill="#FFF" d="M911.855 295.884l-2.627-1.528 21.431-36.836 2.627 1.528z"/><path fill="#2E9AFF" d="M932.438 307.65c16.604-7.009 34.899-4.104 48.318 6.027-2.096 16.684-12.771 31.823-29.375 38.833"/><path fill="#FFF" d="M951.972 353.912l-1.182-2.8c15.187-6.411 25.979-20.439 28.34-36.747-13.334-9.677-30.913-11.725-46.102-5.315l-1.183-2.8c16.456-6.946 35.547-4.562 49.824 6.215l.702.53-.109.873c-2.229 17.754-13.836 33.097-30.29 40.044z"/><path fill="#FFF" d="M942.071 331.66l-1.181-2.8 39.255-16.567 1.182 2.8z"/><circle fill="#2E9AFF" cx="642.23" cy="355.846" r="39.333"/><path fill="#FFF" d="M642.23 396.698c-22.526 0-40.854-18.327-40.854-40.854 0-22.525 18.327-40.853 40.854-40.853 22.524 0 40.852 18.327 40.852 40.853 0 22.527-18.326 40.854-40.852 40.854zm0-78.666c-20.852 0-37.814 16.963-37.814 37.812 0 20.851 16.964 37.813 37.814 37.813s37.812-16.963 37.812-37.813c0-20.849-16.962-37.812-37.812-37.812z"/><circle fill="#2E9AFF" cx="846.417" cy="587.837" r="39.333"/><path fill="#FFF" d="M846.417 628.689c-22.526 0-40.853-18.326-40.853-40.854s18.325-40.853 40.853-40.853 40.853 18.325 40.853 40.853-18.327 40.854-40.853 40.854zm0-78.666c-20.851 0-37.813 16.963-37.813 37.812s16.964 37.813 37.813 37.813 37.813-16.964 37.813-37.813-16.962-37.812-37.813-37.812z"/><path fill="#2E9AFF" d="M860.484 603.82c-103.53 91.121-239.295 106.092-303.239 33.44-63.943-72.653-31.856-205.42 71.676-296.542 103.529-91.122 239.292-106.093 303.237-33.438 63.946 72.652 31.855 205.418-71.674 296.54z"/><path fill="#FFF" d="M670.175 684.812c-47.823 0-87.269-16.096-114.069-46.547-31.264-35.521-40.959-86.201-27.303-142.707 13.61-56.311 48.811-111.705 99.114-155.979 57.656-50.747 127.386-79.851 191.31-79.851 47.824 0 87.271 16.097 114.072 46.549 31.264 35.52 40.959 86.198 27.303 142.703-13.61 56.311-48.81 111.705-99.112 155.98-57.659 50.747-127.39 79.852-191.315 79.852zm149.052-422.045c-63.193 0-132.191 28.829-189.302 79.093-102.735 90.421-134.828 222.486-71.539 294.396 26.208 29.776 64.864 45.515 111.789 45.515 63.196 0 132.195-28.827 189.306-79.093 49.84-43.866 84.701-98.705 98.168-154.413 13.416-55.514 3.959-105.228-26.631-139.981-26.209-29.777-64.866-45.517-111.791-45.517z"/><g><ellipse transform="scale(-1) rotate(-41.351 -1251.38 1973.3)" fill="#FFF" cx="744.719" cy="472.269" rx="210.505" ry="141.542"/></g><g><path fill="#2E9AFF" d="M361.693 875.564c70.17-72.273 177.413-172.334 223.415-219.718l-.006-.004c11.914-12.246 12.579-31.793 1.104-44.836-11.479-13.039-30.953-14.858-44.613-4.598l-.006-.008c-52.834 39.612-165.704 133.28-246.3 193.709a48.354 48.354 0 00-3.21 2.602c-20.904 18.398-22.936 50.262-4.537 71.164 18.398 20.906 50.262 22.939 71.166 4.537a49.505 49.505 0 002.987-2.848z"/><path fill="#FFF" d="M325.414 892.509h-.002a51.98 51.98 0 01-39.012-17.628c-9.167-10.414-13.729-23.773-12.846-37.621.883-13.847 7.104-26.521 17.521-35.688a50.908 50.908 0 013.308-2.682c44.513-33.374 99.258-77.198 147.56-115.864 38.609-30.908 75.078-60.104 98.735-77.841l1.216-.91.024.032c5.751-3.944 12.457-6.021 19.489-6.021 9.93 0 19.386 4.271 25.94 11.718 11.438 13.002 11.354 32.667.077 45.562l.04.024-1.267 1.314c-20.604 21.222-54.202 53.698-89.774 88.083-44.477 42.992-94.889 91.721-133.64 131.634a52.818 52.818 0 01-3.076 2.935 51.875 51.875 0 01-34.293 12.953zM541.283 608.53c-23.643 17.788-59.508 46.5-97.444 76.868-48.318 38.681-103.084 82.521-147.641 115.929a48.215 48.215 0 00-3.116 2.523c-9.807 8.633-15.665 20.564-16.496 33.603-.832 13.036 3.464 25.615 12.094 35.42a48.94 48.94 0 0036.731 16.597h.002a48.845 48.845 0 0032.288-12.195 48.73 48.73 0 002.899-2.767c38.787-39.95 89.217-88.695 133.71-131.703 34.829-33.667 67.768-65.505 88.433-86.707l1.269-1.312c11.392-11.708 11.854-30.496 1.053-42.772a31.532 31.532 0 00-23.659-10.687c-6.878 0-13.414 2.179-18.899 6.3l-1.216.913-.008-.01z"/><path fill="#2E9AFF" d="M348.36 864.309l.003.009.089-.093.024-.024L574.1 645.967h-.002c6.977-6.737 7.485-17.832 1.015-25.188-6.474-7.354-17.543-8.255-25.111-2.193H550c-28.495 22.789-193.379 154.691-245.119 196.08-.009.01-.02.016-.026.021-.035.027-.069.056-.103.078l.004.006c-.402.32-.802.652-1.192.994-13.698 12.062-15.027 32.938-2.972 46.631 12.055 13.699 32.934 15.029 46.63 2.974.389-.347.768-.702 1.138-1.061z"/><path fill="#FFF" d="M325.405 875.125a34.572 34.572 0 01-25.955-11.729c-12.589-14.301-11.195-36.182 3.109-48.774.059-.052.118-.104.177-.154l-.071-.106 1.266-.884 74.991-59.987c67.271-53.814 150.63-120.498 170.128-136.092a19.83 19.83 0 0112.353-4.334 19.781 19.781 0 0114.851 6.71c6.994 7.948 6.511 19.934-1.099 27.283-26.219 25.362-177.925 172.101-225.59 218.203l-1.796 1.8-.045-.119a34.527 34.527 0 01-22.319 8.183zm-19.598-59.253l-.105.085c-.384.306-.766.622-1.138.948-13.043 11.483-14.315 31.44-2.833 44.483a31.534 31.534 0 0023.673 10.696 31.48 31.48 0 0020.812-7.86c.371-.325.732-.664 1.083-1.007l1.667-1.62.003.009c49.284-47.667 198.124-191.635 224.072-216.733 6.439-6.222 6.847-16.365.928-23.092a16.748 16.748 0 00-12.568-5.68 16.783 16.783 0 00-10.451 3.668c-19.963 15.966-106.856 85.476-174.897 139.904l-70.246 56.199z"/><path fill="#2E9AFF" d="M398.546 814.525c-10.504-11.937-9.343-30.123 2.591-40.629-11.934 10.506-30.124 9.346-40.629-2.593"/><path fill="#FFF" d="M398.546 816.045c-.421 0-.841-.175-1.141-.516-8.847-10.054-9.818-24.373-3.398-35.349-4.304 1.839-9.007 2.656-13.817 2.353-8.079-.517-15.474-4.146-20.823-10.226a1.52 1.52 0 012.282-2.008c4.812 5.469 11.466 8.736 18.735 9.199 7.267.469 14.283-1.931 19.75-6.744a1.523 1.523 0 012.525 1.14c0 .422-.174.842-.517 1.143-11.285 9.935-12.386 27.199-2.454 38.484a1.52 1.52 0 01-1.142 2.524z"/><path fill="#2E9AFF" d="M486.319 670.008c7.922 8.996 7.048 22.715-1.953 30.635 9.001-7.92 22.717-7.045 30.636 1.953"/><path fill="#FFF" d="M515.002 704.115c-.421 0-.841-.175-1.141-.517-7.354-8.354-20.135-9.171-28.491-1.815a1.523 1.523 0 01-2.525-1.141c0-.422.174-.841.517-1.142 4.049-3.562 6.467-8.488 6.81-13.87s-1.43-10.573-4.993-14.62a1.52 1.52 0 112.282-2.008 23.058 23.058 0 015.746 16.821 23.14 23.14 0 01-2.618 9.352c8.764-3.261 19.022-1.01 25.555 6.415a1.52 1.52 0 01-1.142 2.525z"/><path fill="#2E9AFF" d="M321.481 804.271c10.883 12.362 9.682 31.215-2.686 42.098 12.367-10.883 31.216-9.688 42.101 2.684"/><path fill="#FFF" d="M360.896 850.572c-.421 0-.841-.175-1.141-.517-4.996-5.678-11.903-9.068-19.451-9.55-7.545-.479-14.822 2.005-20.498 6.996l-.008.007a1.52 1.52 0 11-2.008-2.283l.007-.006c5.673-4.995 9.062-11.899 9.543-19.443.481-7.547-2.005-14.828-7-20.503a1.522 1.522 0 01.137-2.146 1.521 1.521 0 012.145.137c5.532 6.284 8.285 14.349 7.752 22.705-.32 5.021-1.804 9.788-4.302 13.993a31.125 31.125 0 0114.426-2.491c8.357.531 16.007 4.287 21.539 10.574a1.52 1.52 0 01-1.141 2.527z"/><g><path fill="#2E9AFF" d="M404.188 781.66a7.842 7.842 0 11-10.362-11.774 7.842 7.842 0 0110.362 11.774z"/><path fill="#FFF" d="M399.009 785.135a9.364 9.364 0 01-7.03-3.176c-3.411-3.874-3.033-9.802.843-13.215a9.363 9.363 0 0113.211.842 9.305 9.305 0 012.315 6.784 9.288 9.288 0 01-3.158 6.431 9.351 9.351 0 01-6.181 2.334zm-.004-15.684c-1.537 0-3.02.56-4.176 1.575-2.617 2.304-2.873 6.309-.569 8.925a6.33 6.33 0 004.75 2.145c1.537 0 3.02-.56 4.174-1.576a6.267 6.267 0 002.134-4.343 6.295 6.295 0 00-1.565-4.583 6.328 6.328 0 00-4.748-2.143z"/></g><g><path fill="#2E9AFF" d="M489.34 706.715a7.842 7.842 0 01-11.07-.705c-2.859-3.254-2.547-8.209.707-11.065a7.836 7.836 0 0111.067.705 7.84 7.84 0 01-.704 11.065z"/><path fill="#FFF" d="M484.16 710.191a9.367 9.367 0 01-7.031-3.179 9.303 9.303 0 01-2.314-6.781 9.285 9.285 0 013.159-6.431 9.348 9.348 0 016.183-2.335 9.363 9.363 0 017.029 3.179c3.408 3.873 3.031 9.801-.842 13.211a9.354 9.354 0 01-6.184 2.336zm-.004-15.685a6.324 6.324 0 00-4.176 1.578 6.27 6.27 0 00-2.135 4.341 6.295 6.295 0 001.564 4.582 6.326 6.326 0 008.926.568 6.328 6.328 0 00.567-8.922 6.316 6.316 0 00-4.746-2.147z"/></g><g><path fill="#2E9AFF" d="M324.334 852.029c-3.252 2.854-8.206 2.545-11.068-.709-2.861-3.252-2.546-8.209.706-11.066a7.838 7.838 0 0111.068.703 7.85 7.85 0 01-.706 11.072z"/><path fill="#FFF" d="M319.155 855.501a9.364 9.364 0 01-7.03-3.177 9.303 9.303 0 01-2.314-6.781 9.291 9.291 0 013.159-6.431 9.337 9.337 0 016.181-2.336 9.363 9.363 0 017.03 3.177c3.408 3.874 3.03 9.803-.842 13.216a9.366 9.366 0 01-6.184 2.332zm-.005-15.686a6.313 6.313 0 00-4.173 1.577 6.271 6.271 0 00-2.134 4.343 6.289 6.289 0 001.563 4.581 6.328 6.328 0 008.925.572c2.614-2.305 2.87-6.311.568-8.927a6.33 6.33 0 00-4.749-2.146z"/></g><g><path fill="#FFF" d="M405.209 771.834a1.52 1.52 0 01-1.004-2.662l72.22-63.565a1.52 1.52 0 112.008 2.282l-72.22 63.566a1.516 1.516 0 01-1.004.379z"/></g></g><g><circle fill="#FFF" cx="825.714" cy="400.982" r="44.25"/><path fill="#231F20" d="M825.714 446.752c-25.237 0-45.77-20.532-45.77-45.77 0-25.238 20.531-45.771 45.77-45.771s45.771 20.532 45.771 45.771c-.001 25.238-20.534 45.77-45.771 45.77zm0-88.5c-23.562 0-42.729 19.169-42.729 42.73 0 23.561 19.169 42.729 42.729 42.729 23.562 0 42.73-19.169 42.73-42.729 0-23.561-19.169-42.73-42.73-42.73z"/><path fill="#2E9AFF" d="M854.751 419.479c-10.664-12.116-10.944-29.803-1.535-42.175l-.122-.145c-13.467 7.765-30.974 5.242-41.643-6.875a34.236 34.236 0 01-1.592-1.968l-.754.355-.733-1.055a11.255 11.255 0 00-.808-1.034 11.622 11.622 0 00-8.724-3.942 11.594 11.594 0 00-7.667 2.896c-2.329 2.048-3.72 4.881-3.917 7.977s.823 6.081 2.873 8.409a11.626 11.626 0 002.133 1.898l1.052.728-.536 1.16c-6.044 13.054-3.81 28.462 5.692 39.253a36.313 36.313 0 0027.258 12.314c3.729 0 7.414-.567 10.954-1.688l1.223-.385.587 1.137a11.614 11.614 0 0010.33 6.298h.001a11.59 11.59 0 007.666-2.896 11.537 11.537 0 003.915-7.979 11.532 11.532 0 00-3.804-9.349l-.946-.861.422-.662a32.375 32.375 0 01-1.325-1.411zm-56.179-52.355l-1.257 11.83a1.521 1.521 0 01-3.023-.322l1.257-11.83a1.528 1.528 0 011.671-1.35 1.52 1.52 0 011.352 1.672zm57.728 65.457a1.52 1.52 0 01-1.519 1.486h-.034l-11.892-.261a1.518 1.518 0 01-1.486-1.552c.019-.84.693-1.515 1.553-1.486l11.893.261a1.52 1.52 0 011.485 1.552z"/><path d="M853.094 377.159l-.135-.16a36.314 36.314 0 00-27.258-12.315 36.476 36.476 0 00-15.435 3.441l-.407.191a33.815 33.815 0 001.592 1.968c10.669 12.116 28.176 14.64 41.643 6.875zM853.216 377.304c-9.409 12.372-9.129 30.059 1.535 42.175.43.488.874.957 1.325 1.414l.266-.418c8.553-13.423 7.25-31.115-3.126-43.171z"/><path d="M859.814 421.349a14.16 14.16 0 00-.264-.291c8.624-14.532 6.921-33.304-4.31-46.065a39.353 39.353 0 00-29.539-13.346 39.551 39.551 0 00-15.604 3.223 14.66 14.66 0 00-11.255-5.267 14.647 14.647 0 00-9.675 3.653 14.541 14.541 0 00-4.941 10.064 14.55 14.55 0 003.623 10.608 14.767 14.767 0 001.674 1.624c-5.918 13.9-3.357 30.03 6.669 41.417a39.35 39.35 0 0029.538 13.347c3.629 0 7.22-.497 10.693-1.478a14.653 14.653 0 0022.074 3.186 14.549 14.549 0 004.939-10.065 14.533 14.533 0 00-3.622-10.61zm-2.32 19.536c-5.443 4.792-13.741 4.264-18.531-1.181a13.196 13.196 0 01-1.819-2.666c-13.851 4.38-29.599.533-39.811-11.072-10.218-11.604-12.036-27.712-5.933-40.896a13.206 13.206 0 01-2.408-2.145c-4.792-5.441-4.264-13.74 1.181-18.529 4.894-4.307 12.085-4.301 16.971-.305.549.45 1.077.936 1.562 1.486.333.377.637.77.917 1.173 14.842-6.987 33.097-3.688 44.479 9.245l.08.095c.078.089.151.181.228.27 11.085 12.915 11.949 31.223 3.216 44.931.365.332.716.682 1.049 1.061a13.234 13.234 0 011.47 2.04c3.121 5.317 2.148 12.268-2.651 16.493z"/><path d="M853.554 376.879c-.153.092-.306.19-.46.279l.122.145c.109-.143.226-.282.338-.424zM856.076 420.893l-.422.662.946.861a11.532 11.532 0 013.804 9.349 11.537 11.537 0 01-3.915 7.979 11.595 11.595 0 01-7.666 2.896h-.001a11.618 11.618 0 01-10.33-6.298l-.587-1.137-1.223.385a36.266 36.266 0 01-10.954 1.688 36.313 36.313 0 01-27.258-12.314c-9.502-10.791-11.736-26.199-5.692-39.253l.536-1.16-1.052-.728a11.7 11.7 0 01-2.133-1.898c-2.05-2.328-3.07-5.313-2.873-8.409s1.588-5.929 3.917-7.977a11.594 11.594 0 017.667-2.896c3.339 0 6.519 1.437 8.724 3.942.278.315.55.663.808 1.034l.733 1.055.754-.355a33.266 33.266 0 01-2.716-4.225c-4.886-3.997-12.077-4.002-16.971.305-5.444 4.789-5.973 13.088-1.181 18.529.729.83 1.541 1.543 2.408 2.145-6.104 13.184-4.285 29.291 5.933 40.896 10.212 11.605 25.96 15.452 39.811 11.072a13.168 13.168 0 001.819 2.666c4.79 5.444 13.088 5.973 18.531 1.181 4.799-4.225 5.771-11.176 2.648-16.493a33.706 33.706 0 01-4.065-3.502z"/><path d="M810.267 368.125a36.47 36.47 0 0115.435-3.441 36.314 36.314 0 0127.258 12.315c.046.052.089.107.135.16.154-.089.307-.187.46-.279.207-.264.411-.529.627-.788l-.08-.095c-11.382-12.934-29.637-16.232-44.479-9.245-.28-.403-.584-.796-.917-1.173a13.154 13.154 0 00-1.562-1.486 33.156 33.156 0 002.716 4.225l.407-.193z"/><path d="M853.216 377.304c10.376 12.057 11.679 29.748 3.126 43.171l-.266.418a33.28 33.28 0 004.066 3.5 13.167 13.167 0 00-1.47-2.04 13.308 13.308 0 00-1.049-1.061c8.733-13.708 7.869-32.016-3.216-44.931-.281.18-.568.347-.854.518-.111.142-.228.281-.337.425z"/><path d="M854.408 376.361c-.076-.089-.149-.181-.228-.27-.216.259-.42.524-.627.788.287-.171.574-.337.855-.518zM797.221 365.453a1.527 1.527 0 00-1.671 1.35l-1.257 11.83a1.52 1.52 0 003.023.322l1.257-11.83a1.52 1.52 0 00-1.352-1.672zM842.922 430.769a1.501 1.501 0 00-1.553 1.486 1.518 1.518 0 001.486 1.552l11.892.261h.034c.822 0 1.5-.658 1.519-1.486a1.518 1.518 0 00-1.485-1.552l-11.893-.261z"/><g><path d="M814.896 394.77a4.989 4.989 0 11.448-7.041 4.983 4.983 0 01-.448 7.041z"/><path d="M817.551 400.553a1.52 1.52 0 01-1.474-1.893 10.568 10.568 0 00-2.308-9.576 10.581 10.581 0 00-9.203-3.504 1.51 1.51 0 01-1.691-1.326 1.517 1.517 0 011.326-1.689 13.586 13.586 0 0111.85 4.513 13.606 13.606 0 012.973 12.329 1.523 1.523 0 01-1.473 1.146z"/></g><g><path d="M836.415 419.216a4.994 4.994 0 01-7.045-.451 4.992 4.992 0 01.451-7.041 4.991 4.991 0 016.594 7.492z"/><path d="M839.067 424.998a1.521 1.521 0 01-1.476-1.891 10.556 10.556 0 00-2.312-9.573 10.572 10.572 0 00-9.201-3.509 1.517 1.517 0 01-1.69-1.327 1.519 1.519 0 011.327-1.69 13.6 13.6 0 0111.845 4.518 13.596 13.596 0 012.979 12.323 1.52 1.52 0 01-1.472 1.149z"/></g><g><path d="M817.047 409.781a1.519 1.519 0 01-1.005-2.662l5.453-4.8a1.519 1.519 0 112.008 2.282l-5.453 4.801a1.515 1.515 0 01-1.003.379z"/></g><g><path fill="#FFF" d="M818.378 416.021a6.572 6.572 0 01-9.276-.594 6.571 6.571 0 01.593-9.275"/></g><g><path fill="#2E9AFF" d="M719.646 572c-7.638 6.719-19.272 5.979-25.993-1.656l-53.625-60.928c-6.72-7.637-5.979-19.273 1.657-25.996 7.636-6.718 19.271-5.977 25.99 1.657l53.626 60.927c6.725 7.637 5.983 19.275-1.655 25.996z"/><path fill="#FFF" d="M707.484 578.111a19.952 19.952 0 01-14.973-6.765l-53.625-60.928c-7.262-8.253-6.457-20.877 1.794-28.141a19.922 19.922 0 0113.164-4.971c5.73 0 11.188 2.466 14.973 6.765L722.443 545a19.814 19.814 0 014.934 14.442 19.807 19.807 0 01-6.727 13.697 19.916 19.916 0 01-13.166 4.972zm-53.638-97.762a16.886 16.886 0 00-11.156 4.212c-6.992 6.157-7.676 16.856-1.521 23.853l53.625 60.928a16.902 16.902 0 0023.848 1.519c3.39-2.982 5.413-7.105 5.7-11.61s-1.198-8.854-4.182-12.241l-53.626-60.927a16.898 16.898 0 00-12.688-5.734z"/><path fill="#FFF" d="M653.194 499.511l.042.045 5.854-2.893 1.152 1.311-8.164 3.746-1.271-1.438 4.705-7.683 1.242 1.413-3.56 5.499zM655.35 503.392l1.432 1.626 2.585-2.272-1.431-1.625 1.018-.896 2.48 2.823-3.599 3.167 1.502 1.707-1.015.896-3.985-4.53 1.013-.896zm6.088-2.87a.87.87 0 01.68-.22c.259.022.5.16.722.412.229.258.342.523.341.796a.84.84 0 01-.285.663.792.792 0 01-.688.194c-.26-.042-.506-.193-.732-.452-.223-.251-.334-.505-.329-.756a.804.804 0 01.291-.637zM663.555 513.775a2.504 2.504 0 01-.484-.118 3.81 3.81 0 01-.592-.271 4.704 4.704 0 01-1.263-1.026 4.236 4.236 0 01-.767-1.203 2.85 2.85 0 01-.206-1.214c.021-.402.133-.792.33-1.168.194-.377.485-.732.868-1.069.403-.358.816-.604 1.233-.745a2.874 2.874 0 011.231-.139c.396.045.777.174 1.146.386.367.213.705.494 1.016.845.204.234.39.501.546.809.156.303.253.626.286.968a2.29 2.29 0 01-.154 1.044c-.134.354-.396.702-.784 1.043a5.802 5.802 0 01-.938.662l-2.926-3.321a1.47 1.47 0 00-.388.563c-.067.192-.09.395-.062.597.021.203.09.402.19.601.104.199.234.393.396.573.323.369.637.635.931.795s.567.265.821.3l-.43 1.088zm1.54-4.893a2.005 2.005 0 00-.465-.395 1.586 1.586 0 00-.526-.212 1.382 1.382 0 00-.562-.004 1.24 1.24 0 00-.537.24l1.999 2.271c.309-.271.479-.568.504-.896.026-.324-.11-.658-.413-1.004zM669.96 514.968l-1.413 2.47.042.048.865-.615 2.667-1.677.951 1.08-5.436 3.128-1.062-1.208 1.373-2.123-.042-.051-2.34 1.027-1.098-1.246 3.762-5.025 1.057 1.196-2.157 2.701-.507.578.04.045 2.622-1.095.676.767zM679.121 528.076l.894 1.015-1.844 1.625c-.315-.073-.646-.226-.996-.46a4.893 4.893 0 01-.942-.832 5.046 5.046 0 01-.841-1.312 3.319 3.319 0 01-.266-1.479c.022-.514.176-1.042.456-1.583.282-.542.727-1.082 1.336-1.618.635-.557 1.248-.93 1.84-1.118.594-.188 1.149-.25 1.671-.188.521.067.998.231 1.433.493.437.264.807.569 1.113.921.324.369.567.708.729 1.018.163.312.278.584.346.82l-1.919 1.688-.895-1.019 1.054-.926a4.91 4.91 0 00-.478-.63 2.184 2.184 0 00-.723-.552 1.95 1.95 0 00-.888-.181c-.318.009-.655.096-1.015.254a4.469 4.469 0 00-1.104.742 4.435 4.435 0 00-.801.921 2.75 2.75 0 00-.401.975c-.06.328-.048.646.042.964.087.314.253.616.505.896.181.205.368.386.573.542l1.121-.976zM684.68 525.738l1.642 1.861-2.358 2.079.029.037c.328-.022.658.034.988.177.338.146.646.383.939.715.204.231.365.478.477.729.11.25.159.508.145.776-.02.265-.112.546-.284.839-.173.293-.438.597-.795.912l-2.87 2.522-1.056-1.198 2.622-2.307c.373-.331.576-.646.6-.955.025-.307-.075-.589-.303-.848a1.38 1.38 0 00-.761-.444 1.54 1.54 0 00-.89.062l-2.94 2.59-1.061-1.2 5.445-4.791-.584-.666 1.015-.89zM688.123 534.005c.33.149.674.354 1.038.604a6.55 6.55 0 011.133 1.045c.279.315.479.625.604.919.119.291.17.564.146.831-.02.264-.102.512-.243.744a3.058 3.058 0 01-.583.68c-.312.272-.592.501-.832.674a9.082 9.082 0 00-.615.488 5.7 5.7 0 00-.418.397c-.074.089-.148.17-.229.247l.53.601-1.017.895-1.363-1.55.521-.672-.042-.046a2.055 2.055 0 01-.953-.092c-.338-.104-.676-.349-1.017-.731-.402-.458-.601-.932-.591-1.417.012-.483.217-.907.623-1.264.26-.229.521-.376.796-.446.271-.07.545-.068.823.008.276.074.559.212.84.415.283.201.561.458.834.771.1.108.19.229.289.364.096.136.215.292.357.482.07-.045.139-.092.199-.146l.176-.15c.233-.206.344-.419.324-.646-.019-.225-.139-.467-.372-.729a3.505 3.505 0 00-.859-.736 7.187 7.187 0 00-.798-.422l.699-1.118zm-2.003 4.552c.257.292.504.467.739.517.232.052.442.057.626.016l.556-.488c-.042-.067-.107-.176-.2-.311a4.51 4.51 0 00-.321-.412 2.345 2.345 0 00-.338-.315 1.477 1.477 0 00-.374-.223.835.835 0 00-.374-.062.6.6 0 00-.339.151c-.172.152-.263.318-.27.502-.007.186.091.393.295.625zM692.677 538.547l1.423 1.613-.484.675.029.035c.32-.03.673.021 1.056.155.38.137.729.387 1.056.756.201.227.359.469.477.725.112.252.16.514.146.777a1.882 1.882 0 01-.28.844c-.171.297-.433.604-.789.918l-2.866 2.525-1.061-1.201 2.62-2.305c.377-.33.572-.652.591-.97a1.167 1.167 0 00-.314-.858 1.39 1.39 0 00-.745-.449 1.332 1.332 0 00-.832.051l-2.988 2.631-1.054-1.199 3.597-3.166-.584-.663 1.002-.894zM697.55 544.082l1.422 1.615-.484.674.03.037c.32-.031.672.02 1.055.151.379.138.729.388 1.057.757.2.229.357.471.475.725.114.254.162.514.146.779a1.944 1.944 0 01-.279.844c-.172.297-.433.602-.789.918l-2.872 2.525-1.056-1.201 2.621-2.31c.375-.33.569-.649.588-.969a1.151 1.151 0 00-.315-.857 1.358 1.358 0 00-.743-.448 1.34 1.34 0 00-.832.053l-2.989 2.631-1.059-1.199 3.602-3.168-.585-.664 1.007-.893zM702.539 558.066a2.599 2.599 0 01-.49-.119 3.69 3.69 0 01-.588-.271 4.249 4.249 0 01-.639-.426 4.845 4.845 0 01-.624-.598 4.201 4.201 0 01-.767-1.203 2.87 2.87 0 01-.21-1.22c.024-.4.134-.791.33-1.168a3.76 3.76 0 01.87-1.063c.406-.357.819-.607 1.235-.746.419-.139.827-.184 1.229-.139.398.045.782.176 1.149.387.366.213.704.494 1.014.844.205.234.391.502.545.81.158.303.256.625.287.967.033.344-.018.688-.15 1.047-.138.352-.397.699-.785 1.041a6.298 6.298 0 01-.939.664l-2.922-3.324a1.444 1.444 0 00-.391.564 1.313 1.313 0 00-.064.596c.025.203.09.404.193.602.104.199.233.392.397.574.322.369.634.635.931.795.295.162.565.261.819.302l-.43 1.084zm1.538-4.894a2.058 2.058 0 00-.464-.393 1.596 1.596 0 00-.529-.215 1.547 1.547 0 00-.564-.007 1.262 1.262 0 00-.531.244l1.992 2.271c.312-.271.479-.568.51-.896.027-.326-.112-.658-.414-1.004zM709.749 554.221l1.729 1.967-4.266 3.755c-.473.416-.75.764-.834 1.045-.081.276-.008.549.22.805.171.189.325.33.477.418.146.09.312.162.495.219l-.435 1.187c-.157-.043-.312-.097-.465-.148a2.529 2.529 0 01-.438-.201 3.243 3.243 0 01-.431-.303 3.59 3.59 0 01-.438-.436c-.511-.58-.745-1.146-.702-1.691.037-.549.331-1.062.873-1.539l3.873-3.41-.675-.766 1.017-.902z"/><g><path fill="#231F20" d="M797.596 520.033c-.422 0-.841-.174-1.142-.517l-90.487-102.809a1.52 1.52 0 112.283-2.008l90.487 102.809a1.52 1.52 0 01-1.141 2.525zM769.615 516.591c-.422 0-.842-.174-1.143-.516l-62.645-71.174a1.52 1.52 0 012.283-2.009l62.645 71.175a1.519 1.519 0 01-1.14 2.524zM764.836 539.51c-.422 0-.841-.174-1.142-.516l-81.206-92.264a1.52 1.52 0 112.282-2.009l81.207 92.265a1.52 1.52 0 01-1.141 2.524zM732.215 530.795c-.422 0-.841-.174-1.142-.516l-44.082-50.083a1.52 1.52 0 112.283-2.009l44.082 50.084a1.52 1.52 0 01-1.141 2.524z"/></g><g><path fill="#231F20" d="M675.623 580.605c-.422 0-.841-.176-1.143-.517l-44.082-50.086a1.52 1.52 0 012.283-2.008l44.082 50.086a1.519 1.519 0 01-1.14 2.525z"/></g><g><path fill="#231F20" d="M652.457 582.279c-.422 0-.841-.176-1.143-.517l-25.519-28.994a1.52 1.52 0 112.283-2.008l25.519 28.994a1.52 1.52 0 01-1.14 2.525z"/></g></g><g><path d="M748.827 414.757l5.042 5.73-6.113 5.38a6.838 6.838 0 01-1.644 1.093 3.814 3.814 0 01-1.854.355 3.743 3.743 0 01-1.143-.248 5.448 5.448 0 01-.938-.481 5.412 5.412 0 01-.714-.562 7.47 7.47 0 01-1.461-1.898 5.658 5.658 0 01-.568-1.686l2.099-.655c.104.521.235.938.393 1.248.158.308.38.625.673.955.179.197.404.384.688.549.282.165.592.253.927.267.63.016 1.254-.252 1.877-.8l4.456-3.921-3.392-3.851 1.672-1.475zM749.21 427.63c.575-.507 1.166-.869 1.767-1.09a4.198 4.198 0 011.786-.263 4.29 4.29 0 011.714.521c.553.302 1.066.729 1.553 1.277.508.575.871 1.166 1.096 1.771.229.604.314 1.201.273 1.79a4.132 4.132 0 01-.521 1.714 5.756 5.756 0 01-1.27 1.542c-.577.508-1.162.871-1.77 1.093a4.18 4.18 0 01-1.787.262 4.245 4.245 0 01-1.714-.522c-.549-.303-1.063-.729-1.549-1.274-.507-.576-.873-1.167-1.099-1.772a4.189 4.189 0 01-.272-1.789 4.102 4.102 0 01.522-1.714 5.791 5.791 0 011.271-1.546zm1.617 1.837a3.6 3.6 0 00-.729.859 2.643 2.643 0 00-.355.947c-.055.322-.038.643.05.952.088.312.256.608.506.895.467.531 1.019.812 1.646.85.631.035 1.312-.27 2.047-.913.63-.555 1.002-1.154 1.116-1.811.111-.653-.084-1.271-.591-1.842a2.884 2.884 0 00-.743-.611 1.87 1.87 0 00-.879-.237 2.456 2.456 0 00-.984.202c-.35.144-.711.379-1.084.709zM762.195 429.945l2.438 2.77-3.508 3.089.046.058c.484-.039.979.048 1.472.262.497.213.963.563 1.396 1.059.306.351.54.708.706 1.08.166.374.235.757.212 1.153-.025.395-.166.811-.422 1.246-.257.437-.649.889-1.182 1.354l-4.264 3.752-1.566-1.779 3.893-3.43c.558-.488.854-.963.894-1.418.036-.455-.11-.875-.447-1.257a2.069 2.069 0 00-1.132-.661 2.225 2.225 0 00-1.316.092l-4.374 3.851-1.567-1.782 8.087-7.119-.868-.984 1.502-1.336zM766.836 440.749l2.112 2.399-.726 1.001.053.056c.476-.047.996.028 1.562.229.565.199 1.088.573 1.573 1.122.296.337.529.697.699 1.074.169.376.238.763.219 1.159-.027.396-.166.812-.418 1.254s-.646.896-1.173 1.361l-4.268 3.753-1.565-1.783 3.893-3.428c.559-.49.85-.972.875-1.438s-.129-.895-.467-1.275a2.098 2.098 0 00-1.11-.67 1.999 1.999 0 00-1.232.077l-4.441 3.909-1.565-1.783 5.349-4.705-.869-.984 1.499-1.328zM784.516 455.306c.082.075.227.207.422.396.198.188.418.408.664.657.243.249.491.509.746.777.254.271.479.518.67.734.75.85 1.244 1.663 1.489 2.437.243.775.289 1.517.144 2.224-.146.708-.463 1.383-.938 2.027a12.402 12.402 0 01-3.778 3.327 5.721 5.721 0 01-2.218.729c-.765.082-1.55-.046-2.357-.384-.806-.337-1.615-.968-2.431-1.891a21.615 21.615 0 01-.479-.573c-.19-.234-.386-.479-.583-.729-.192-.249-.383-.488-.562-.72a6.982 6.982 0 01-.396-.552l9.607-8.459zm.888 4.106a8.063 8.063 0 00-.467-.489 21.996 21.996 0 00-.359-.34l-6.43 5.659c.021.046.062.104.125.184l.186.238c.062.081.125.161.188.238.06.074.108.14.147.185.466.529.938.865 1.41 1.008.474.145.938.15 1.396.025a4.42 4.42 0 001.352-.652c.439-.308.861-.639 1.268-.993.35-.306.69-.644 1.028-1.015.339-.371.596-.769.772-1.193a2.54 2.54 0 00.17-1.354c-.062-.479-.326-.979-.786-1.501zM785.404 468.754c.576-.507 1.167-.87 1.766-1.09.6-.22 1.198-.308 1.788-.263a4.27 4.27 0 011.715.521c.549.303 1.066.729 1.549 1.276.507.575.872 1.167 1.1 1.771.225.604.313 1.201.273 1.791a4.205 4.205 0 01-.521 1.713 5.838 5.838 0 01-1.271 1.542c-.573.51-1.161.871-1.766 1.094a4.206 4.206 0 01-1.789.262 4.213 4.213 0 01-1.711-.523c-.551-.303-1.066-.729-1.55-1.274-.51-.575-.873-1.167-1.102-1.771a4.239 4.239 0 01-.271-1.79c.041-.59.214-1.16.521-1.714a5.83 5.83 0 011.269-1.545zm1.619 1.838a3.525 3.525 0 00-.729.858 2.652 2.652 0 00-.356.947c-.057.322-.039.644.05.952.087.312.256.61.508.896.466.53 1.015.812 1.646.849.633.035 1.312-.268 2.047-.912.627-.555 1.002-1.154 1.116-1.811.112-.653-.083-1.271-.589-1.843a2.855 2.855 0 00-.743-.61 1.87 1.87 0 00-.879-.238 2.47 2.47 0 00-.987.202c-.35.145-.711.38-1.084.71zM795.965 486.198a3.305 3.305 0 01-.728-.177 6.383 6.383 0 01-1.823-1.035 7.2 7.2 0 01-.927-.89c-.518-.585-.894-1.18-1.134-1.786a4.142 4.142 0 01-.312-1.807 4.164 4.164 0 01.492-1.73c.293-.562.725-1.092 1.293-1.591.603-.527 1.215-.896 1.834-1.104a4.211 4.211 0 011.826-.207 4.33 4.33 0 011.709.574c.547.312 1.047.73 1.506 1.253.307.349.575.747.811 1.195.233.45.376.932.428 1.438a3.36 3.36 0 01-.229 1.552c-.203.525-.595 1.042-1.169 1.549a8.496 8.496 0 01-1.396.986l-4.347-4.937c-.283.267-.477.545-.576.837a2.001 2.001 0 00-.096.886c.038.3.132.598.285.892.153.295.354.578.594.854.481.548.942.939 1.381 1.181.438.239.847.392 1.222.447l-.644 1.62zm2.287-7.269a3.097 3.097 0 00-.688-.586 2.52 2.52 0 00-.788-.312 2.008 2.008 0 00-1.636.351l2.972 3.373c.456-.401.706-.845.752-1.329.042-.487-.162-.985-.612-1.497z"/></g></g><g><path fill="#2E9AFF" d="M909.896 287.763c10.505 11.934 9.346 30.125-2.593 40.625 11.938-10.503 30.124-9.344 40.634 2.594"/><path fill="#FFF" d="M947.938 332.502c-.422 0-.841-.174-1.142-.516-9.932-11.282-27.192-12.388-38.479-2.464l-.009.008a1.52 1.52 0 01-2.008-2.282l.013-.011c5.461-4.811 8.725-11.458 9.188-18.722.464-7.268-1.932-14.282-6.744-19.75a1.52 1.52 0 112.283-2.008c5.349 6.077 8.011 13.872 7.496 21.951-.308 4.807-1.717 9.372-4.089 13.407 11.703-4.976 25.783-2.19 34.634 7.861a1.52 1.52 0 01-1.143 2.526z"/></g><g><path fill="#2E9AFF" d="M605.163 363.682c13.684-12.043 34.537-10.713 46.579 2.973-12.042-13.686-10.713-34.536 2.969-46.579"/><path fill="#FFF" d="M651.743 368.173a1.52 1.52 0 01-1.143-.516c-5.556-6.314-13.236-10.086-21.63-10.621-8.382-.541-16.49 2.229-22.805 7.786a1.52 1.52 0 01-2.008-2.283c6.923-6.093 15.794-9.128 25.006-8.538 5.713.364 11.127 2.097 15.868 5.015-6.045-13.451-2.96-29.845 8.674-40.085a1.519 1.519 0 012.145.138c.556.63.493 1.59-.137 2.145-13.029 11.469-14.3 31.402-2.832 44.436a1.517 1.517 0 01-1.138 2.523z"/></g><g><path fill="#2E9AFF" d="M834.403 624.137c13.682-12.043 15.01-32.895 2.968-46.576 12.042 13.685 32.896 15.015 46.579 2.97"/><path fill="#FFF" d="M834.404 625.656a1.52 1.52 0 01-1.006-2.662c13.03-11.469 14.301-31.401 2.832-44.433a1.519 1.519 0 112.282-2.008c5.558 6.313 13.238 10.085 21.631 10.62 8.389.534 16.49-2.229 22.805-7.788a1.52 1.52 0 012.008 2.283c-6.923 6.093-15.802 9.13-25.005 8.54-5.714-.364-11.127-2.097-15.868-5.015 6.044 13.449 2.959 29.842-8.674 40.082a1.514 1.514 0 01-1.005.381z"/></g><g><path fill="#2E9AFF" d="M896.694 281.748a7.842 7.842 0 01-11.068-.705 7.842 7.842 0 1111.772-10.363 7.84 7.84 0 01-.704 11.068z"/><path fill="#FFF" d="M891.515 285.223a9.363 9.363 0 01-7.028-3.176 9.293 9.293 0 01-2.316-6.781 9.294 9.294 0 013.156-6.432 9.359 9.359 0 0113.214.842 9.292 9.292 0 012.315 6.779 9.296 9.296 0 01-3.156 6.433 9.363 9.363 0 01-6.185 2.335zm-.005-15.685a6.323 6.323 0 00-4.177 1.578 6.275 6.275 0 00-2.132 4.343 6.328 6.328 0 006.312 6.726 6.323 6.323 0 004.176-1.577 6.28 6.28 0 002.133-4.344 6.284 6.284 0 00-1.564-4.579 6.325 6.325 0 00-4.748-2.147z"/></g><g><circle fill="#2E9AFF" cx="956.944" cy="350.203" r="7.843"/><path fill="#FFF" d="M956.944 359.565c-5.163 0-9.363-4.2-9.363-9.362s4.2-9.362 9.363-9.362c5.161 0 9.361 4.2 9.361 9.362s-4.2 9.362-9.361 9.362zm0-15.685c-3.487 0-6.324 2.836-6.324 6.323s2.837 6.323 6.324 6.323c3.485 0 6.322-2.836 6.322-6.323s-2.835-6.323-6.322-6.323z"/></g></g><g><path fill="#FFF" d="M281.787 690.094c-9.756 0-18.514-5.426-22.854-14.156L101.925 360.181c-3.034-6.101-3.511-13.018-1.341-19.478 2.169-6.459 6.723-11.688 12.824-14.721l145.496-72.349a25.261 25.261 0 0111.344-2.672c9.756 0 18.514 5.424 22.854 14.156l157.008 315.76c6.262 12.594 1.107 27.936-11.483 34.197l-145.498 72.348a25.259 25.259 0 01-11.342 2.672zm-11.539-424.99c-1.758 0-3.456.401-5.049 1.193l-145.496 72.346a11.31 11.31 0 00-5.716 6.562 11.294 11.294 0 00.598 8.681l157.008 315.757a11.315 11.315 0 0010.194 6.312c1.757 0 3.455-.4 5.047-1.191l145.498-72.348c5.612-2.791 7.908-9.629 5.117-15.242L280.442 271.416a11.315 11.315 0 00-10.194-6.312z"/><path fill="#FFF" d="M239.424 264.156l4.29 19.238c1.086 4.873-1.684 10.679-6.153 12.901l-72.943 36.271c-4.47 2.223-10.771.926-14.001-2.884l-12.751-15.027"/><circle fill="#FFF" cx="232.268" cy="380.957" r="44.54"/><path fill="#2E9AFF" d="M216.304 347.978c-.049.023-.099.044-.147.068a33.54 33.54 0 011.172 8.791c0 14.107-8.711 26.172-21.045 31.131l.127.698-1.121.408a11.728 11.728 0 00-7.167 7.336 11.727 11.727 0 00.621 9.012 11.743 11.743 0 0010.579 6.551 11.69 11.69 0 005.244-1.236 11.932 11.932 0 002.421-1.602l.904-.773.916.762a36.8 36.8 0 0023.492 8.49h.001c5.68 0 11.159-1.292 16.285-3.84 13-6.464 20.968-20.016 20.3-34.523l-.055-1.191 1.165-.255c.945-.207 1.866-.53 2.738-.963 5.825-2.896 8.208-9.996 5.312-15.824a11.743 11.743 0 00-10.578-6.551 11.69 11.69 0 00-5.246 1.237c-.385.191-.768.411-1.169.669l-1 .642-.45-.49a33.38 33.38 0 01-16.759 4.491c-10.802 0-20.404-5.11-26.54-13.038zm-12.045 56.827a1.417 1.417 0 01-1.826.814l-11.181-4.282a1.413 1.413 0 111.012-2.639l11.181 4.282a1.412 1.412 0 01.814 1.825zm61.55-32.835l3.334-11.5a1.414 1.414 0 012.715.787l-3.334 11.5a1.415 1.415 0 01-1.357 1.021c-.13 0-.263-.02-.394-.058a1.41 1.41 0 01-.964-1.75z"/><path d="M217.328 356.837a33.54 33.54 0 00-1.172-8.791c-.067.033-.137.061-.204.095-14.527 7.224-22.651 23.404-19.755 39.353l.086.475c12.334-4.96 21.045-17.025 21.045-31.132zM232.237 344.301c-5.552 0-10.909 1.243-15.934 3.677 6.136 7.928 15.738 13.038 26.539 13.038a33.38 33.38 0 0016.759-4.491l-.354-.385c-6.915-7.524-16.76-11.839-27.01-11.839z"/><path d="M280.577 359.758c-2.49-5.009-7.513-8.12-13.11-8.12a14.496 14.496 0 00-6.928 1.753c-7.398-7.588-17.648-11.919-28.303-11.919-6.122 0-12.024 1.393-17.544 4.137-15.303 7.607-24.009 24.447-21.468 41.254a14.524 14.524 0 00-7.785 8.647 14.539 14.539 0 00.77 11.171c2.49 5.01 7.514 8.12 13.111 8.12 2.27 0 4.458-.515 6.504-1.533a14.574 14.574 0 002.066-1.25 39.646 39.646 0 0024.409 8.425h.001c6.121 0 12.024-1.392 17.544-4.137 13.659-6.792 22.162-20.849 21.902-36.04.769-.234 1.52-.533 2.244-.892 7.223-3.591 10.178-12.391 6.587-19.616zm-7.216 18.351c-.996.492-2.025.849-3.063 1.076.672 14.606-7.148 28.926-21.083 35.854-13.935 6.928-30.072 4.522-41.312-4.829a13.288 13.288 0 01-2.709 1.791c-6.535 3.25-14.469.587-17.719-5.95-2.922-5.877-1.053-12.871 4.104-16.587a13.144 13.144 0 011.846-1.131c.452-.226.915-.42 1.379-.589-2.95-16.248 4.988-33.149 20.517-40.87.041-.021.083-.038.124-.058.103-.051.207-.097.311-.146 15.433-7.435 33.462-3.53 44.533 8.513.417-.267.85-.518 1.304-.745a13.316 13.316 0 012.356-.898c5.983-1.665 12.496 1.08 15.363 6.848 3.248 6.537.585 14.471-5.951 17.721z"/><path d="M279.311 360.388c-2.868-5.768-9.38-8.513-15.363-6.848a33.574 33.574 0 01-4.346 2.985l.45.49 1-.642c.401-.258.784-.478 1.169-.669a11.69 11.69 0 015.246-1.237c4.516 0 8.569 2.51 10.578 6.551 2.896 5.828.513 12.929-5.312 15.824-.872.433-1.793.756-2.738.963l-1.165.255.055 1.191c.668 14.508-7.3 28.06-20.3 34.523-5.126 2.548-10.605 3.84-16.285 3.84h-.001a36.805 36.805 0 01-23.492-8.49l-.916-.762-.904.773a11.932 11.932 0 01-2.421 1.602 11.69 11.69 0 01-5.244 1.236c-4.517 0-8.57-2.51-10.579-6.551a11.726 11.726 0 01-.621-9.012 11.728 11.728 0 017.167-7.336l1.121-.408-.127-.698a33.338 33.338 0 01-4.705 1.497c-5.156 3.716-7.026 10.71-4.104 16.587 3.25 6.537 11.184 9.2 17.719 5.95.997-.496 1.9-1.101 2.709-1.791 11.24 9.352 27.377 11.757 41.312 4.829 13.935-6.929 21.755-21.248 21.083-35.854a13.406 13.406 0 003.063-1.076c6.537-3.251 9.2-11.185 5.951-17.722zM216.043 347.646c.038.133.077.266.113.4.049-.023.099-.044.147-.068-.085-.111-.175-.22-.26-.332z"/><path d="M196.197 387.493c-2.896-15.948 5.228-32.129 19.755-39.353.067-.034.137-.062.204-.095-.036-.134-.075-.267-.113-.4-.206-.272-.401-.552-.598-.83l-.124.058c-15.529 7.721-23.467 24.622-20.517 40.87a13.13 13.13 0 00-1.379.589c-.659.328-1.268.715-1.846 1.131a33.25 33.25 0 004.705-1.497l-.087-.473zM216.304 347.978c5.024-2.435 10.381-3.677 15.934-3.677 10.25 0 20.095 4.315 27.011 11.839l.354.385a33.643 33.643 0 004.346-2.985c-.797.222-1.587.516-2.356.898a14.65 14.65 0 00-1.304.745c-11.07-12.043-29.1-15.948-44.533-8.513.103.323.194.65.288.977.084.111.174.22.26.331z"/><path d="M215.755 346.669c-.104.05-.208.096-.311.146.197.278.393.558.598.83-.092-.326-.184-.653-.287-.976zM203.445 402.979l-11.181-4.282a1.413 1.413 0 10-1.012 2.639l11.181 4.282a1.417 1.417 0 001.826-.814 1.412 1.412 0 00-.814-1.825zM266.773 373.721c.131.038.264.058.394.058.613 0 1.178-.403 1.357-1.021l3.334-11.5a1.412 1.412 0 10-2.715-.787l-3.334 11.5a1.412 1.412 0 00.964 1.75z"/><g><circle cx="218.928" cy="392.103" r="5.022"/><path d="M210.297 398.737a1.413 1.413 0 01-1.402-1.612 13.572 13.572 0 0120.049-9.97 1.414 1.414 0 01-1.375 2.471 10.754 10.754 0 00-10.018-.237 10.747 10.747 0 00-5.856 8.13 1.413 1.413 0 01-1.398 1.218z"/></g><g><circle cx="248.277" cy="377.509" r="5.023"/><path d="M239.645 384.145a1.414 1.414 0 01-1.402-1.611 13.58 13.58 0 017.398-10.27 13.582 13.582 0 0112.652.298 1.415 1.415 0 01-1.375 2.472 10.748 10.748 0 00-15.876 7.894 1.413 1.413 0 01-1.397 1.217z"/></g><g><path d="M237.104 392.688c-.52 0-1.02-.287-1.267-.784l-3.256-6.55a1.415 1.415 0 012.533-1.259l3.256 6.549a1.414 1.414 0 01-1.266 2.044z"/></g><g><path fill="#FFF" d="M244.994 391.989a6.614 6.614 0 01-2.979 8.869 6.618 6.618 0 01-8.87-2.979"/></g><g><path fill="#2E9AFF" d="M371.127 528.424c4.56 9.168.823 20.294-8.345 24.854L289.63 589.65c-9.166 4.559-20.295.819-24.853-8.349-4.56-9.168-.823-20.297 8.345-24.854l73.152-36.375c9.167-4.552 20.295-.816 24.853 8.352z"/><path fill="#FFF" d="M281.393 592.85c-7.574 0-14.372-4.21-17.741-10.986a19.664 19.664 0 01-1.042-15.115 19.664 19.664 0 019.953-11.424l73.152-36.375a19.598 19.598 0 018.795-2.072c7.575 0 14.373 4.21 17.743 10.987a19.658 19.658 0 011.042 15.113 19.665 19.665 0 01-9.952 11.424l-73.152 36.374a19.606 19.606 0 01-8.798 2.074zm73.117-73.459c-2.678 0-5.26.609-7.677 1.81l-73.151 36.375a17.163 17.163 0 00-8.688 9.973 17.164 17.164 0 00.909 13.196c2.942 5.917 8.877 9.593 15.49 9.593 2.678 0 5.261-.608 7.678-1.811l73.152-36.374a17.174 17.174 0 008.688-9.974 17.163 17.163 0 00-.91-13.194c-2.941-5.919-8.877-9.594-15.491-9.594z"/><path fill="#FFF" d="M283.408 574.281l.056-.027-1.297-6.445 1.572-.78 1.53 8.914-1.729.856-6.249-6.563 1.695-.847 4.422 4.892zM287.743 573.188l1.949-.969-1.541-3.102-1.951.969-.605-1.219 3.39-1.688 2.148 4.32 2.05-1.018.606 1.219-5.44 2.703-.606-1.215zm-1.214-6.665a.88.88 0 01-.037-.716c.089-.245.284-.442.588-.598.31-.154.598-.195.864-.125.265.07.454.221.568.449a.805.805 0 01.012.719c-.109.244-.318.443-.629.598-.303.15-.576.193-.822.125a.816.816 0 01-.544-.452zM299.966 567.898a2.21 2.21 0 01-.241.442c-.109.16-.247.326-.413.502a4.229 4.229 0 01-.583.513 4.741 4.741 0 01-.742.448c-.473.236-.929.38-1.368.435a2.823 2.823 0 01-1.236-.109 2.845 2.845 0 01-1.049-.625 3.825 3.825 0 01-.814-1.121c-.242-.485-.377-.955-.403-1.396a2.85 2.85 0 01.183-1.23c.149-.376.373-.719.675-1.02a4.06 4.06 0 012.009-1.088 2.646 2.646 0 011.015-.027c.341.055.666.195.976.418.31.225.58.568.812 1.033.157.315.292.68.401 1.086l-3.988 1.979c.125.234.273.408.447.525.172.115.36.188.563.217.202.027.413.021.634-.029.219-.053.439-.131.662-.239.442-.22.781-.451 1.014-.697.232-.244.401-.484.506-.721l.94.704zm-4.36-2.765a2.033 2.033 0 00-.504.353 1.654 1.654 0 00-.344.459 1.339 1.339 0 00-.052 1.133l2.725-1.355c-.184-.369-.43-.606-.739-.725-.31-.117-.671-.072-1.086.135zM302.785 561.979l2.036 2.015.057-.027-.375-1.002-.939-3.029 1.297-.645 1.636 6.098-1.452.724-1.711-1.89-.056.029.394 2.541-1.496.744-3.918-4.963 1.44-.717 2.069 2.801.43.643.056-.024-.386-2.834.918-.464zM317.908 556.463l1.219-.604 1.102 2.217c-.151.287-.387.567-.704.848-.318.277-.67.513-1.054.701a4.928 4.928 0 01-1.497.477 3.38 3.38 0 01-1.506-.118c-.491-.156-.965-.441-1.42-.857-.454-.412-.863-.986-1.227-1.717-.379-.76-.583-1.453-.613-2.08-.029-.623.055-1.185.253-1.672.198-.49.482-.912.85-1.269a4.774 4.774 0 011.183-.844 5.378 5.378 0 011.18-.447c.344-.08.639-.121.887-.123l1.145 2.308-1.219.604-.627-1.264a5.037 5.037 0 00-.736.297 2.28 2.28 0 00-.725.561c-.193.23-.328.505-.402.814-.074.314-.08.664-.016 1.053.062.39.209.812.437 1.271.198.396.428.735.687 1.02.26.281.541.494.842.64.303.145.619.217.949.213s.665-.09 1.005-.258c.243-.119.469-.263.677-.42l-.67-1.351zM317.075 550.451l2.238-1.113 1.41 2.836.044-.021c.06-.326.202-.631.428-.918.226-.287.538-.529.937-.729.281-.139.557-.229.831-.271.272-.048.536-.023.791.062s.502.25.743.492c.24.244.468.582.681 1.01l1.714 3.445-1.44.717-1.564-3.146c-.224-.45-.481-.729-.772-.831-.291-.104-.592-.078-.902.073-.273.14-.483.347-.63.623a1.528 1.528 0 00-.171.88l1.758 3.534-1.44.718-3.251-6.535-.797.396-.608-1.222zM326.008 549.242a6.94 6.94 0 01.854-.854c.341-.287.776-.562 1.308-.828.385-.188.734-.309 1.051-.35.314-.041.598-.02.849.068.251.088.472.229.662.43.192.199.361.447.509.742.187.377.334.705.439.979.105.281.211.521.314.73.076.154.171.324.281.508.066.098.127.191.182.283l.72-.357.606 1.222-1.859.924-.521-.685-.056.027a2.151 2.151 0 01-.332.906c-.189.301-.516.563-.979.795-.551.272-1.061.344-1.529.211-.471-.135-.826-.447-1.068-.937-.154-.311-.23-.604-.229-.889s.074-.549.219-.801c.146-.252.354-.488.622-.711.271-.223.592-.424.966-.609a5.88 5.88 0 01.43-.188c.154-.06.342-.132.562-.226a1.17 1.17 0 00-.089-.229l-.104-.211c-.14-.281-.319-.441-.542-.484-.222-.041-.49.019-.806.174-.374.188-.688.4-.94.646a7.603 7.603 0 00-.615.666l-.905-.952zm3.907 3.129c.352-.174.582-.369.692-.586s.17-.418.177-.605l-.33-.666c-.08.021-.199.062-.354.113a4.297 4.297 0 00-.485.207c-.139.07-.271.15-.397.246a1.537 1.537 0 00-.311.307.817.817 0 00-.156.351.577.577 0 00.062.366c.103.207.243.341.42.396.177.052.405.01.682-.129zM331.603 545.99l1.939-.965.53.646.044-.021c.052-.32.193-.648.422-.984.23-.334.566-.611 1.01-.832a2.82 2.82 0 01.825-.271c.276-.049.542-.026.797.06.254.086.503.25.747.49.246.241.475.578.688 1.008l1.714 3.445-1.44.717-1.564-3.146c-.225-.45-.487-.727-.789-.821-.303-.101-.609-.07-.919.084-.274.137-.483.34-.63.606a1.326 1.326 0 00-.164.82l1.785 3.59-1.441.717-2.148-4.317-.797.396-.609-1.222zM338.25 542.686l1.938-.965.531.648.043-.021c.053-.317.193-.646.423-.981s.566-.613 1.009-.832c.273-.14.549-.229.826-.271.276-.047.541-.024.797.062.254.086.503.25.747.487.245.242.475.578.688 1.01l1.714 3.442-1.441.716-1.564-3.146c-.224-.449-.486-.725-.789-.822-.303-.097-.608-.067-.918.084a1.423 1.423 0 00-.631.609 1.326 1.326 0 00-.164.82l1.785 3.59-1.441.717-2.148-4.32-.797.396-.608-1.223zM353.144 541.457a2.336 2.336 0 01-.242.443 4.61 4.61 0 01-.413.504 4.751 4.751 0 01-1.325.961 4.274 4.274 0 01-1.367.432 2.776 2.776 0 01-1.236-.109 2.845 2.845 0 01-1.051-.625 3.766 3.766 0 01-.812-1.118c-.242-.488-.377-.955-.403-1.396-.026-.44.034-.854.182-1.229a2.96 2.96 0 01.676-1.021 4.076 4.076 0 011.084-.766c.279-.144.588-.248.924-.322a2.612 2.612 0 011.016-.027c.341.058.666.193.975.418.311.228.58.568.812 1.033.157.318.291.683.4 1.086l-3.988 1.982c.125.231.274.408.447.522.174.115.361.188.562.22.203.024.414.018.633-.031.22-.051.44-.129.662-.24.443-.219.781-.453 1.014-.697.233-.241.402-.481.506-.72l.944.7zm-4.361-2.765c-.192.096-.36.213-.503.35-.146.137-.26.289-.345.459-.087.17-.136.352-.15.547-.014.195.019.389.098.584l2.726-1.354c-.184-.369-.431-.609-.74-.728-.311-.11-.673-.065-1.086.142zM351.274 533.446l2.359-1.175 2.545 5.117c.283.568.549.933.799 1.08.252.152.531.152.842-.004.229-.112.406-.229.529-.352a2.47 2.47 0 00.342-.428l1.038.729a8.37 8.37 0 01-.263.414 2.82 2.82 0 01-.717.715 4.172 4.172 0 01-.54.316c-.694.344-1.303.426-1.825.243-.524-.184-.947-.6-1.271-1.247l-2.312-4.652-.92.457-.606-1.213z"/><g><path fill="#231F20" d="M215.863 501.543a1.415 1.415 0 01-.63-2.681l123.437-61.377a1.414 1.414 0 011.259 2.533l-123.437 61.377a1.408 1.408 0 01-.629.148zM243.248 508.981a1.414 1.414 0 01-.63-2.681l85.454-42.49a1.414 1.414 0 111.259 2.534l-85.454 42.49a1.42 1.42 0 01-.629.147zM238.98 532.159a1.414 1.414 0 01-.63-2.681l110.777-55.082a1.415 1.415 0 011.259 2.533l-110.777 55.082a1.408 1.408 0 01-.629.148zM272.697 536.448a1.415 1.415 0 01-.63-2.681l60.133-29.898a1.415 1.415 0 011.259 2.533L273.326 536.3a1.402 1.402 0 01-.629.148z"/></g><g><path fill="#231F20" d="M306.481 604.395a1.412 1.412 0 01-.63-2.679l60.133-29.899a1.414 1.414 0 111.259 2.532l-60.133 29.9a1.447 1.447 0 01-.629.146z"/></g><g><path fill="#231F20" d="M327.432 614.768a1.412 1.412 0 01-.63-2.679l34.81-17.311a1.413 1.413 0 111.259 2.532l-34.81 17.312a1.443 1.443 0 01-.629.146z"/></g></g><g><path d="M225.749 459.307l6.879-3.42 3.65 7.34c.311.627.523 1.256.637 1.884a3.87 3.87 0 01-.672 2.942 5.078 5.078 0 01-.709.783c-.248.219-.49.401-.732.549a7.362 7.362 0 01-2.225.935 5.593 5.593 0 01-1.788.116l-.094-2.21c.536.034.975.018 1.314-.059a4.81 4.81 0 001.104-.405c.24-.119.479-.297.712-.524.233-.232.399-.515.499-.834.176-.607.08-1.285-.291-2.031l-2.66-5.353-4.625 2.304-.999-2.017zM238.368 462.27c-.343-.688-.545-1.354-.604-1.995a4.249 4.249 0 01.209-1.812 4.232 4.232 0 01.953-1.529c.437-.457.984-.85 1.643-1.178.691-.344 1.36-.545 2.008-.604a4.312 4.312 0 011.812.194c.561.193 1.07.513 1.53.951.459.443.851.988 1.172 1.636.344.691.545 1.358.604 1.999a4.233 4.233 0 01-.209 1.812 4.21 4.21 0 01-.953 1.526 5.815 5.815 0 01-1.642 1.181c-.691.344-1.361.545-2.008.604a4.308 4.308 0 01-1.812-.194 4.16 4.16 0 01-1.531-.953 5.913 5.913 0 01-1.172-1.638zm2.205-1.096c.181.361.396.672.648.93.252.262.527.457.828.597.301.137.615.204.941.2a2.375 2.375 0 001-.265c.636-.313 1.053-.773 1.252-1.382.199-.604.08-1.346-.357-2.225-.375-.756-.867-1.275-1.471-1.56-.605-.278-1.254-.249-1.945.098-.307.15-.569.341-.786.562-.218.226-.37.488-.458.791a2.507 2.507 0 00-.06 1.019c.049.373.186.785.408 1.235zM243.985 450.24l3.324-1.653 2.096 4.215.062-.033c.089-.479.3-.938.636-1.36.336-.426.799-.788 1.392-1.082a4.286 4.286 0 011.234-.408 2.458 2.458 0 011.176.092c.378.127.745.372 1.104.734.358.363.695.863 1.012 1.5l2.546 5.117-2.141 1.062-2.324-4.676c-.332-.668-.715-1.08-1.148-1.234-.432-.151-.879-.114-1.34.113-.406.201-.718.51-.935.926a2.251 2.251 0 00-.254 1.31l2.61 5.25-2.139 1.062-4.829-9.711-1.185.59-.897-1.814zM255.694 448.524l2.881-1.435.786.963.065-.031c.078-.478.287-.967.629-1.463.34-.497.84-.909 1.498-1.235a4.28 4.28 0 011.229-.404 2.448 2.448 0 011.184.088c.377.127.748.371 1.112.73.362.358.704.856 1.021 1.494l2.545 5.116-2.141 1.063-2.324-4.675c-.332-.669-.723-1.076-1.172-1.226-.449-.146-.904-.104-1.365.125a2.107 2.107 0 00-.936.906 1.97 1.97 0 00-.244 1.219l2.651 5.334-2.14 1.063-3.192-6.419-1.188.59-.899-1.803zM274.434 435.1c.093-.06.258-.159.494-.307.236-.145.507-.304.812-.476.304-.176.621-.35.95-.524.33-.178.625-.331.889-.463 1.021-.507 1.939-.779 2.756-.814.817-.037 1.55.107 2.198.438.649.328 1.226.807 1.731 1.438.506.634.966 1.363 1.381 2.197.376.758.667 1.535.873 2.336.207.801.251 1.584.131 2.349-.119.766-.447 1.493-.982 2.192-.536.695-1.358 1.321-2.467 1.873-.176.086-.402.193-.684.318a57.37 57.37 0 01-1.707.733 8.479 8.479 0 01-.637.244l-5.738-11.534zm4.224.197c-.208.104-.407.215-.597.329s-.33.2-.424.262l3.838 7.722c.05-.014.119-.036.211-.073l.279-.119.279-.118c.091-.038.163-.068.219-.097.636-.316 1.084-.688 1.346-1.112.262-.424.391-.874.386-1.351a4.438 4.438 0 00-.284-1.48 14.118 14.118 0 00-.639-1.49 13.385 13.385 0 00-.721-1.264 4.149 4.149 0 00-.959-1.062 2.633 2.633 0 00-1.273-.519c-.48-.062-1.035.062-1.661.372zM287.745 437.719c-.344-.688-.545-1.354-.604-2-.06-.641.01-1.242.209-1.808a4.23 4.23 0 01.953-1.53c.438-.457.984-.85 1.646-1.178.691-.343 1.359-.545 2.007-.606a4.294 4.294 0 011.812.196c.562.193 1.072.512 1.531.953s.851.987 1.172 1.635c.344.691.545 1.357.604 1.998a4.23 4.23 0 01-.209 1.812c-.199.562-.516 1.07-.953 1.527s-.983.853-1.642 1.176c-.692.348-1.36.55-2.008.607a4.262 4.262 0 01-1.812-.197 4.08 4.08 0 01-1.531-.95 5.835 5.835 0 01-1.175-1.635zm2.205-1.097c.18.361.396.672.647.932a2.8 2.8 0 00.829.597c.301.137.615.2.941.196.325-.006.658-.092.999-.262.636-.316 1.054-.776 1.253-1.382.197-.605.078-1.347-.357-2.225-.377-.76-.867-1.276-1.473-1.56-.605-.281-1.252-.249-1.943.095-.308.152-.57.343-.787.564-.217.224-.369.488-.458.793s-.108.643-.06 1.014c.05.377.186.788.409 1.238zM307.445 431.967a3.13 3.13 0 01-.36.66 5.848 5.848 0 01-.613.747c-.247.261-.535.513-.864.759s-.697.474-1.103.672c-.703.353-1.381.563-2.033.644a4.259 4.259 0 01-1.836-.164 4.254 4.254 0 01-1.561-.929c-.467-.434-.87-.986-1.209-1.67-.359-.725-.56-1.413-.6-2.07a4.26 4.26 0 01.271-1.829 4.477 4.477 0 011.002-1.517 6.21 6.21 0 011.609-1.139 6.01 6.01 0 011.375-.479 3.923 3.923 0 011.508-.041c.507.082.99.29 1.449.623.46.332.862.846 1.205 1.532.235.476.434 1.013.597 1.613l-5.925 2.947c.186.345.406.604.664.776.257.175.536.279.838.32.301.043.615.026.941-.047a4.26 4.26 0 00.982-.354c.658-.328 1.161-.676 1.507-1.037.347-.363.597-.722.751-1.07l1.405 1.053zm-6.477-4.108a2.978 2.978 0 00-.748.519 2.514 2.514 0 00-.512.687 2.103 2.103 0 00-.223.812c-.02.289.027.579.145.87l4.049-2.014c-.271-.552-.639-.906-1.099-1.076s-.997-.104-1.612.202z"/></g></g><g><path fill="#231F20" d="M572.036 900.942c-17.342 0-33.849-10.469-40.735-27.597-8.806-21.903 1.282-46.838 22.514-56.334l-.015-.027 1.403-.568 162.654-65.395 1.041 2.59-162.647 65.396c-20.753 8.438-30.784 32.345-22.36 53.298 8.423 20.95 32.209 31.264 53.028 22.987l.519-.206.002.001 162.132-65.184 1.041 2.59-163.171 65.602-.014-.005a42.985 42.985 0 01-15.392 2.852zM706.307 894.269l-.543-1.087 1.178-.593-.49-1.22 96.418-38.766-.008.027 87.287-35.095c9.612-3.907 14.26-14.988 10.354-24.699-3.901-9.713-14.926-14.493-24.573-10.658l-5.937 2.386-.984-2.445 6.748-2.714.019.019c10.791-3.791 22.844 1.649 27.175 12.432 4.444 11.055-.854 23.673-11.813 28.127l-92.084 37.022.007-.026-92.754 37.29z"/><path fill="#231F20" d="M900.374 792.56l-31.565-78.559c-3.901-9.709-14.927-14.488-24.575-10.657l-6.512 2.616-.981-2.447 6.516-2.616c10.997-4.369 23.557 1.069 28 12.121l31.566 78.561-2.449.981z"/><path fill="#2E9AFF" d="M853.462 802.426l-80.103 32.203c-10.812 4.346-23.097-.895-27.438-11.699l7.375 18.347c4.347 10.809 16.629 16.047 27.438 11.696l80.104-32.198c10.807-4.349 16.046-16.634 11.7-27.438l-7.374-18.346c4.344 10.806-.896 23.091-11.702 27.435z"/><path fill="#FFF" d="M772.867 855.821c-9.198 0-17.361-5.518-20.794-14.055l-7.375-18.347 2.444-.982.01.021c3.031 7.521 10.229 12.38 18.345 12.38 2.524 0 5.005-.481 7.371-1.433l80.103-32.203c10.108-4.063 15.03-15.59 10.979-25.701l-.009-.021 2.445-.982 7.374 18.346c4.61 11.462-.966 24.54-12.431 29.152l-80.104 32.199a22.282 22.282 0 01-8.358 1.626zm-21.773-23.558l3.426 8.521c3.029 7.533 10.231 12.399 18.349 12.399a19.64 19.64 0 007.375-1.435l80.104-32.199c10.115-4.069 15.036-15.608 10.97-25.724l-3.444-8.567c-.871 7.958-5.985 15.2-13.918 18.39l-80.103 32.202a22.303 22.303 0 01-8.354 1.624c-5.412.002-10.464-1.906-14.405-5.211z"/><path fill="#FFF" d="M765.497 837.479h-.002c-9.203-.002-17.367-5.519-20.798-14.056l-32.204-80.104c-4.609-11.463.968-24.54 12.432-29.151l80.105-32.203a22.278 22.278 0 018.353-1.624c9.202 0 17.366 5.519 20.798 14.058l32.204 80.103c4.609 11.467-.968 24.544-12.433 29.152l-80.104 32.203a22.348 22.348 0 01-8.351 1.622zm47.886-154.503c-2.525 0-5.005.482-7.369 1.434l-80.104 32.203c-10.114 4.068-15.036 15.607-10.97 25.723l32.203 80.105c3.028 7.532 10.231 12.399 18.354 12.4h.002c2.523 0 5.003-.48 7.368-1.433l80.104-32.203c10.116-4.066 15.037-15.605 10.972-25.724l-32.204-80.104c-3.033-7.533-10.236-12.401-18.356-12.401z"/><circle fill="#FFF" cx="799.417" cy="752.392" r="36.767"/><path fill="#2E9AFF" d="M827.566 741.34c-.016-.041-.027-.083-.044-.124a27.81 27.81 0 01-5.182.491c-12.397 0-22.89-8.146-26.421-19.377l-.583.061-.262-.955a9.699 9.699 0 00-9.387-7.135c-1.25 0-2.479.239-3.647.713-4.978 2.018-7.39 7.709-5.376 12.689a9.851 9.851 0 001.164 2.094l.579.795-.686.706a30.284 30.284 0 00-6.347 32.442 30.284 30.284 0 0027.127 18.896l.984.03.136.977c.108.778.317 1.559.621 2.315a9.712 9.712 0 009.037 6.087 9.666 9.666 0 003.648-.713 9.673 9.673 0 005.314-5.23 9.674 9.674 0 00-.415-8.457l-.469-.865.428-.336a27.591 27.591 0 01-2.71-11.96c.002-9.679 4.97-18.193 12.491-23.144zm-40.215-22.999l-4.232 8.933a1.168 1.168 0 01-2.111-1l4.233-8.933a1.168 1.168 0 012.11 1zm27.275 67.202a1.167 1.167 0 01-1.503.683l-9.254-3.475a1.169 1.169 0 01-.684-1.503 1.17 1.17 0 011.504-.683l9.254 3.475c.604.227.909.899.683 1.503z"/><path d="M822.341 741.707c1.772 0 3.503-.173 5.182-.491-.022-.059-.039-.118-.062-.176-4.65-11.487-15.664-18.909-28.06-18.909-1.024 0-2.062.053-3.08.158l-.4.041c3.53 11.232 14.022 19.377 26.42 19.377zM827.566 741.34c-7.521 4.951-12.489 13.465-12.489 23.144 0 4.283.974 8.339 2.71 11.96l.345-.271c10.434-8.206 14.281-22.486 9.434-34.833z"/><path d="M820.467 777.764a17.118 17.118 0 00-.151-.355c10.77-8.995 14.605-24.167 9.312-37.245-5.009-12.373-16.872-20.368-30.223-20.368-.789 0-1.584.029-2.374.088a12.032 12.032 0 00-11.343-7.917 12.02 12.02 0 00-4.523.884c-6.171 2.5-9.16 9.556-6.663 15.73.251.618.55 1.214.897 1.779a32.62 32.62 0 00-6.188 34.256 32.617 32.617 0 0028.273 20.312 12.5 12.5 0 00.594 1.904 12.038 12.038 0 0011.202 7.549c1.552 0 3.073-.298 4.524-.885 2.99-1.21 5.33-3.512 6.59-6.483s1.286-6.255.073-9.249zm-7.1 14.65c-5.587 2.258-11.944-.438-14.207-6.021a11.062 11.062 0 01-.694-2.59c-12.065-.371-23.354-7.717-28.173-19.625-4.819-11.906-1.814-25.035 6.591-33.692a10.968 10.968 0 01-1.303-2.345c-2.258-5.586.433-11.944 6.021-14.209 5.018-2.029 10.653-.05 13.387 4.423.308.505.589 1.032.818 1.599.157.391.289.781.396 1.174 13.562-1.398 26.97 6.207 32.341 19.475.014.033.024.065.038.099.035.089.066.179.102.269 5.147 13.177.791 27.769-9.828 36.119.194.359.373.732.531 1.119.267.658.459 1.328.591 2 .989 5.026-1.685 10.212-6.611 12.205z"/><path d="M827.852 741.157c-.109.021-.22.038-.329.059.017.041.028.083.044.124.094-.063.19-.122.285-.183zM817.787 776.443l-.428.336.469.865a9.67 9.67 0 01.415 8.457 9.673 9.673 0 01-5.314 5.23 9.67 9.67 0 01-3.648.713 9.712 9.712 0 01-9.037-6.087 9.869 9.869 0 01-.621-2.315l-.136-.977-.984-.03a30.281 30.281 0 01-27.127-18.896 30.284 30.284 0 016.347-32.442l.686-.706-.579-.795a9.851 9.851 0 01-1.164-2.094c-2.014-4.98.398-10.672 5.376-12.689a9.665 9.665 0 013.647-.713 9.699 9.699 0 019.387 7.135l.262.955.583-.061a27.442 27.442 0 01-.932-3.976c-2.733-4.473-8.369-6.452-13.387-4.423-5.588 2.265-8.278 8.623-6.021 14.209.346.853.787 1.638 1.303 2.345-8.405 8.657-11.41 21.786-6.591 33.692 4.819 11.908 16.107 19.254 28.173 19.625.121.871.354 1.738.694 2.59 2.263 5.584 8.62 8.279 14.207 6.021 4.926-1.993 7.6-7.179 6.61-12.207a27.466 27.466 0 01-2.19-3.762z"/><path d="M796.32 722.289a30.18 30.18 0 013.08-.158c12.396 0 23.409 7.422 28.06 18.909.023.058.04.117.062.176.109-.021.22-.037.329-.059.241-.155.483-.31.73-.457-.014-.033-.024-.065-.038-.099-5.371-13.268-18.778-20.873-32.341-19.475a10.665 10.665 0 00-.396-1.174 11.078 11.078 0 00-.818-1.599c.214 1.36.526 2.688.932 3.976l.4-.04zM827.566 741.34c4.847 12.347 1 26.627-9.435 34.832l-.345.271a27.73 27.73 0 002.19 3.764 10.89 10.89 0 00-.591-2c-.158-.387-.337-.76-.531-1.119 10.619-8.351 14.976-22.942 9.828-36.119-.276.064-.553.132-.832.188-.093.061-.189.12-.284.183z"/><path d="M828.684 740.969c-.035-.09-.066-.18-.102-.269-.247.147-.489.302-.73.457.279-.056.555-.124.832-.188zM786.796 716.786a1.17 1.17 0 00-1.555.555l-4.233 8.933a1.17 1.17 0 002.111 1l4.232-8.933a1.168 1.168 0 00-.555-1.555zM813.943 784.04l-9.254-3.475a1.167 1.167 0 10-.82 2.186l9.254 3.475a1.167 1.167 0 10.82-2.186z"/><g><path d="M792.643 744.551a4.149 4.149 0 01-5.396-2.289 4.142 4.142 0 012.287-5.396 4.143 4.143 0 015.396 2.287 4.147 4.147 0 01-2.287 5.398z"/><path d="M793.55 749.784a1.166 1.166 0 01-.972-1.812 8.858 8.858 0 00.83-8.227 8.885 8.885 0 00-6.321-5.34 1.17 1.17 0 01-.888-1.393 1.17 1.17 0 011.392-.888 11.216 11.216 0 017.981 6.743 11.19 11.19 0 01-1.049 10.394 1.16 1.16 0 01-.973.523z"/></g><g><path d="M802.795 769.629a4.143 4.143 0 11-3.109-7.682 4.148 4.148 0 015.398 2.284 4.148 4.148 0 01-2.289 5.398z"/><path d="M803.7 774.866a1.163 1.163 0 01-.972-1.811 8.87 8.87 0 00.83-8.229 8.884 8.884 0 00-6.321-5.335 1.168 1.168 0 11.504-2.281 11.213 11.213 0 017.981 6.738 11.206 11.206 0 01-1.05 10.396 1.16 1.16 0 01-.972.522z"/></g><g><path d="M790.619 756.885a1.169 1.169 0 01-.438-2.25l5.596-2.266a1.169 1.169 0 01.877 2.165l-5.595 2.266a1.22 1.22 0 01-.44.085z"/></g><g><path fill="#FFF" d="M789.53 762.168a5.462 5.462 0 11-4.097-10.125"/></g><g><path d="M744.771 739.078l2.404 5.869-6.262 2.562a5.66 5.66 0 01-1.587.416 3.149 3.149 0 01-1.551-.225 3.076 3.076 0 01-.83-.506 4.204 4.204 0 01-.604-.627 4.504 4.504 0 01-.408-.642 7.912 7.912 0 01-.246-.521 6.241 6.241 0 01-.39-1.363 4.863 4.863 0 01.008-1.479l1.825.055c-.06.438-.066.801-.027 1.086.038.283.129.594.271.93.083.209.215.414.392.619.179.205.396.359.658.461.488.183 1.053.146 1.688-.119l4.562-1.872-1.618-3.941 1.715-.703zM741.58 749.293c.59-.242 1.15-.367 1.682-.379a3.511 3.511 0 011.479.279 3.46 3.46 0 011.204.875c.351.389.642.858.869 1.424.239.588.367 1.147.382 1.688.014.54-.077 1.029-.271 1.48s-.481.854-.876 1.205c-.391.35-.863.643-1.415.867-.59.237-1.148.364-1.684.377a3.52 3.52 0 01-1.479-.279 3.462 3.462 0 01-1.2-.875 4.68 4.68 0 01-.871-1.422c-.242-.592-.368-1.152-.381-1.689a3.444 3.444 0 01.269-1.479c.194-.449.483-.854.877-1.205.392-.351.864-.64 1.415-.867zm.774 1.881c-.31.125-.575.285-.806.479a2.25 2.25 0 00-.538.646 1.804 1.804 0 00-.22.764c-.015.271.035.552.155.843.223.543.574.911 1.062 1.11.485.199 1.104.146 1.854-.16.646-.266 1.102-.641 1.369-1.12.268-.482.276-1.019.039-1.604a2.467 2.467 0 00-.42-.684 1.587 1.587 0 00-.625-.422 1.862 1.862 0 00-.832-.111c-.309.013-.656.101-1.038.259zM751.15 754.631l1.164 2.838-3.595 1.476.021.057c.392.102.754.305 1.084.604.333.305.602.702.81 1.213.146.354.232.696.264 1.037.026.34-.021.655-.146.965-.127.303-.351.592-.671.862-.319.273-.751.521-1.292.742l-4.367 1.793-.748-1.828 3.986-1.633c.566-.235.933-.521 1.084-.873.152-.344.148-.717-.014-1.104-.142-.351-.377-.623-.705-.826s-.687-.301-1.062-.289l-4.478 1.84-.75-1.826 8.28-3.396-.414-1.008 1.549-.644zM751.87 764.375l1.006 2.455-.84.592.021.057c.392.095.775.296 1.165.604.393.311.7.746.935 1.309.14.347.226.691.259 1.031.031.347-.018.668-.146.972-.127.307-.349.598-.667.87-.316.279-.745.529-1.288.75l-4.366 1.795-.747-1.825 3.984-1.638c.569-.231.932-.528 1.075-.893.148-.361.142-.736-.021-1.131a1.749 1.749 0 00-.69-.824 1.657 1.657 0 00-.992-.275l-4.544 1.867-.749-1.826 5.476-2.241-.415-1.013 1.544-.636zM761.806 780.602c.044.082.118.226.228.429.104.203.22.434.342.692a40.417 40.417 0 01.703 1.572c.355.871.525 1.646.508 2.318-.018.678-.183 1.271-.49 1.785a4.331 4.331 0 01-1.285 1.34c-.552.377-1.183.711-1.894 1.004a9.676 9.676 0 01-1.979.582 4.833 4.833 0 01-1.938-.031c-.622-.146-1.205-.457-1.746-.941-.545-.481-1.009-1.192-1.396-2.141a13.6 13.6 0 01-.224-.582c-.088-.236-.172-.479-.259-.729-.087-.25-.167-.49-.247-.722a6.66 6.66 0 01-.165-.539l9.842-4.037zm-.415 3.466a5.313 5.313 0 00-.229-.513c-.082-.159-.148-.28-.189-.364l-6.586 2.7a.804.804 0 00.05.179c.024.08.055.153.078.235.027.082.061.16.082.238.026.076.051.139.067.188.224.537.5.932.835 1.172.335.237.698.373 1.09.396.396.023.809-.022 1.235-.145a12.57 12.57 0 001.264-.439c.354-.145.717-.317 1.084-.518.366-.197.678-.439.931-.729.26-.285.426-.623.506-1.02.071-.382.002-.846-.218-1.38zM758.857 791.406c.59-.24 1.149-.367 1.684-.379a3.455 3.455 0 011.475.276c.453.197.854.488 1.205.875.353.392.644.861.87 1.427.242.59.368 1.151.381 1.688a3.456 3.456 0 01-.27 1.48c-.193.45-.485.854-.876 1.2a4.724 4.724 0 01-1.415.869c-.591.244-1.151.369-1.685.381a3.516 3.516 0 01-1.478-.28 3.486 3.486 0 01-1.203-.873 4.829 4.829 0 01-.871-1.422c-.239-.595-.366-1.156-.381-1.689a3.53 3.53 0 01.271-1.482c.19-.448.48-.852.877-1.198a4.782 4.782 0 011.416-.873zm.773 1.881a2.96 2.96 0 00-.803.477 2.259 2.259 0 00-.54.648c-.131.24-.203.494-.221.762a1.89 1.89 0 00.154.84c.225.541.575.912 1.062 1.113.484.199 1.104.146 1.854-.16.646-.266 1.103-.639 1.367-1.121.27-.479.279-1.016.039-1.604a2.377 2.377 0 00-.419-.683 1.587 1.587 0 00-.625-.424 1.965 1.965 0 00-.831-.108c-.307.016-.653.104-1.037.26zM762.423 807.969a2.605 2.605 0 01-.521-.336 4.46 4.46 0 01-.577-.549 5.308 5.308 0 01-.574-.756 5.87 5.87 0 01-.487-.949c-.247-.6-.382-1.168-.402-1.711a3.554 3.554 0 01.239-1.504c.19-.459.478-.869.857-1.227.383-.361.862-.66 1.444-.898.617-.254 1.195-.377 1.74-.369.543.006 1.04.117 1.491.332.447.215.845.52 1.188.916.346.395.625.855.844 1.393.146.355.249.74.311 1.16.063.416.046.834-.055 1.242-.1.412-.3.797-.601 1.158-.304.359-.744.658-1.338.9a7.414 7.414 0 01-1.359.395l-2.074-5.055a1.756 1.756 0 00-.681.504 1.542 1.542 0 00-.314.668 2.13 2.13 0 00-.019.779c.041.27.119.549.231.83.229.559.483.991.766 1.301.278.307.561.535.839.682l-.948 1.094zm3.766-5.088a2.524 2.524 0 00-.385-.645 2.029 2.029 0 00-.531-.468 1.823 1.823 0 00-.653-.229 1.566 1.566 0 00-.726.065l1.418 3.451c.467-.188.782-.473.946-.84.171-.365.146-.809-.069-1.334z"/></g><g><path fill="#231F20" d="M664.312 910.327c-4.33 0-8.172-2.597-9.785-6.615l-12.291-30.574 70.729-28.437 12.293 30.574c2.169 5.396-.455 11.551-5.849 13.721l-51.165 20.566a10.462 10.462 0 01-3.932.765zm-18.646-35.726l11.308 28.13a7.876 7.876 0 007.341 4.961c1.01 0 2.002-.192 2.947-.573l51.165-20.566c4.045-1.628 6.013-6.244 4.388-10.292l-11.312-28.128-7.438 2.99 10.899 27.108-50.758 20.406-10.898-27.108-7.642 3.072zm10.171-3.856l9.834 24.462 45.865-18.44-9.835-24.458-45.864 18.436z"/></g><g><path fill="#231F20" d="M682.79 891.014l-11.738-29.208 12.542-5.04 11.737 29.208-12.541 5.04zm-8.447-27.804l9.853 24.513 7.846-3.152-9.852-24.514-7.847 3.153z"/></g><g><path fill="#FFF" d="M596.395 857.197a8.795 8.795 0 01-8.201-5.551c-.883-2.19-.857-4.596.069-6.769s2.646-3.854 4.837-4.731a8.774 8.774 0 013.295-.642 8.804 8.804 0 018.207 5.546c.883 2.19.857 4.596-.068 6.77s-2.646 3.854-4.836 4.733a8.797 8.797 0 01-3.303.644zm0-15.16c-.806 0-1.597.153-2.353.457-1.565.628-2.791 1.827-3.452 3.378s-.679 3.267-.049 4.831a6.278 6.278 0 005.854 3.963c.809 0 1.602-.154 2.357-.459a6.264 6.264 0 003.452-3.38 6.264 6.264 0 00.05-4.831 6.287 6.287 0 00-5.859-3.959z"/></g><g><path fill="#FFF" d="M644.096 838.021a8.804 8.804 0 01-8.207-5.547c-.882-2.192-.855-4.598.071-6.771s2.646-3.854 4.838-4.735a8.783 8.783 0 013.297-.641 8.804 8.804 0 018.206 5.548 8.792 8.792 0 01-.068 6.771 8.776 8.776 0 01-4.84 4.734 8.756 8.756 0 01-3.297.641zm-.001-15.163c-.806 0-1.598.153-2.353.458a6.275 6.275 0 00-3.455 3.381 6.278 6.278 0 00-.051 4.835 6.286 6.286 0 005.858 3.959c.806 0 1.599-.154 2.354-.458a6.267 6.267 0 003.453-3.379c.662-1.553.68-3.27.05-4.835a6.283 6.283 0 00-5.856-3.961z"/></g><g><path fill="#FFF" d="M691.797 818.846a8.808 8.808 0 01-8.209-5.55 8.796 8.796 0 01.069-6.769 8.784 8.784 0 014.837-4.734 8.796 8.796 0 013.3-.642 8.8 8.8 0 018.204 5.547 8.798 8.798 0 01-.069 6.77 8.78 8.78 0 01-4.836 4.737 8.798 8.798 0 01-3.296.641zm-.003-15.164c-.807 0-1.6.154-2.354.459a6.262 6.262 0 00-3.453 3.381 6.273 6.273 0 00-.051 4.831 6.29 6.29 0 005.861 3.962c.807 0 1.598-.152 2.354-.456a6.272 6.272 0 003.451-3.382c.66-1.553.679-3.27.05-4.835a6.287 6.287 0 00-5.858-3.96z"/></g></g></svg>