<svg xmlns="http://www.w3.org/2000/svg" width="1920" height="1080"><path d="M1412.123 380.589h70.85c0-81.718-66.243-147.961-147.96-147.961-.395 0-.787.012-1.18.015v-.006h-68.472v.006c81.164.646 146.762 66.629 146.762 147.946z"/><path fill="#F68635" d="M1412.123 382.531c0-81.316-65.598-147.301-146.762-147.946-.4-.003-.799-.015-1.198-.015-81.716 0-147.96 66.243-147.96 147.961"/><path d="M1414.123 382.531h-4c0-38.781-15.045-75.295-42.363-102.816-27.304-27.505-63.675-42.822-102.414-43.13l-.532-.007c-.217-.003-.434-.007-.65-.007-80.482 0-145.96 65.478-145.96 145.961h-4c0-82.689 67.271-149.961 149.96-149.961.239 0 .479.004.717.008l.496.007c39.803.316 77.171 16.054 105.222 44.312 28.067 28.275 43.524 65.79 43.524 105.633z"/><path fill="#FFF" d="M1269.182 380.711h70.85c0-81.718-66.245-147.961-147.963-147.961-.394 0-.785.012-1.18.015v-.007h-68.471v.007c81.165.645 146.764 66.63 146.764 147.946z"/><path fill="#F68635" d="M1269.182 382.652c0-81.315-65.599-147.3-146.764-147.945-.4-.003-.797-.016-1.199-.016-81.715 0-147.96 66.244-147.96 147.961"/><path d="M1271.182 382.652h-4c0-38.78-15.045-75.294-42.364-102.815-27.304-27.505-63.676-42.822-102.415-43.13l-.541-.008c-.214-.004-.427-.008-.643-.008-80.482 0-145.96 65.478-145.96 145.961h-4c0-82.689 67.271-149.961 149.96-149.961.239 0 .478.004.715.008l.499.007c39.803.316 77.172 16.054 105.224 44.312 28.067 28.276 43.525 65.791 43.525 105.634z"/><path d="M1085.608 381.612c-.009-.323-.024-.646-.024-.972 0-19.125 15.503-34.629 34.628-34.629 19.126 0 34.63 15.504 34.63 34.629 0 .326-.017.648-.024.972h55.104c.002-.324.012-.647.012-.972 0-49.552-40.169-89.721-89.722-89.721-49.551 0-89.721 40.169-89.721 89.721 0 .324.01.647.014.972h55.103z"/><path d="M1030.311 380.062h70.85c0-81.717-66.243-147.961-147.96-147.961-.395 0-.787.013-1.18.016v-.007H883.55v.007c81.162.646 146.761 66.63 146.761 147.945z"/><g fill="#FFF"><path d="M1030.311 382.005c0-81.315-65.599-147.3-146.762-147.945-.4-.003-.799-.016-1.199-.016-81.715 0-147.96 66.244-147.96 147.961"/><path d="M1032.311 382.005h-4c0-38.78-15.045-75.294-42.364-102.815-27.303-27.505-63.674-42.822-102.414-43.13l-.542-.008c-.214-.004-.427-.008-.641-.008-80.482 0-145.96 65.478-145.96 145.961h-4c0-82.689 67.272-149.961 149.96-149.961.238 0 .475.004.713.008l.5.007c39.802.316 77.17 16.054 105.222 44.312 28.068 28.276 43.526 65.791 43.526 105.634z"/></g><path fill="#F68635" d="M846.549 382.945l-.008-.245c-.009-.261-.018-.522-.018-.786 0-20.197 16.432-36.629 36.628-36.629 20.198 0 36.63 16.432 36.63 36.629 0 .234-.008.467-.016.699l-.01.32-3.999-.097.011-.36c.006-.187.013-.374.013-.562 0-17.992-14.638-32.629-32.63-32.629-17.991 0-32.628 14.637-32.628 32.629 0 .217.008.433.015.647l.009.263-3.997.121z"/><path fill="#F68635" d="M791.444 382.909l-.005-.344c-.004-.217-.008-.433-.008-.65 0-50.575 41.146-91.721 91.721-91.721s91.721 41.146 91.721 91.721l-.011.983-4-.024.011-.958c0-48.369-39.352-87.721-87.721-87.721s-87.721 39.352-87.721 87.721c0 .193.003.385.007.578l.006.369-4 .046z"/><path d="M859.629 380.629h70.85c0-81.717-66.244-147.961-147.961-147.961-.395 0-.786.013-1.18.016v-.007h-68.472v.007c81.165.645 146.763 66.628 146.763 147.945z"/><path fill="#F68635" d="M859.629 382.571c0-81.316-65.598-147.3-146.763-147.946-.4-.003-.798-.015-1.199-.015-81.715 0-147.96 66.243-147.96 147.961"/><path d="M861.629 382.571h-4c0-38.781-15.045-75.294-42.364-102.815-27.303-27.505-63.674-42.822-102.415-43.131l-.531-.007c-.217-.003-.434-.007-.651-.007-80.482 0-145.96 65.478-145.96 145.961h-4c0-82.689 67.272-149.961 149.96-149.961.24 0 .479.004.719.008l.495.007c39.803.317 77.171 16.054 105.223 44.313 28.066 28.274 43.524 65.789 43.524 105.632z"/><path fill="#FFF" d="M734.479 378.606c0 .324-.009.646-.012.971h70.85c.002-.324.012-.646.012-.971 0-81.718-66.244-147.961-147.96-147.961-.396 0-.787.012-1.181.015v-.006h-72.355l.971.006c81.164.646 149.675 66.63 149.675 147.946z"/><path fill="#F68635" d="M734.467 381.52c.003-.324.012-.646.012-.971 0-81.316-65.598-147.302-146.762-147.946-.399-.003-.797-.015-1.198-.015-81.716 0-147.961 66.243-147.961 147.961 0 .324.01.646.012.971"/><path fill="#FFF" d="M736.467 381.538l-4-.036.012-.953c0-38.781-15.045-75.295-42.364-102.816-27.303-27.505-63.675-42.823-102.414-43.13l-.531-.007c-.217-.003-.434-.007-.651-.007-80.483 0-145.961 65.478-145.961 145.961l.012.958-4 .024-.006-.412c-.003-.19-.006-.38-.006-.571 0-82.689 67.272-149.961 149.961-149.961.24 0 .479.004.719.008l.494.007c39.803.316 77.171 16.053 105.223 44.312 28.067 28.275 43.525 65.791 43.525 105.634 0 .204-.003.407-.007.61l-.006.379z"/><g><path fill="#FFF" d="M551.915 379.577c-.008-.323-.025-.645-.025-.971 0-19.125 15.504-34.629 34.629-34.629s34.628 15.504 34.628 34.629c0 .326-.015.647-.025.971h55.104c.004-.324.013-.646.013-.971 0-49.552-40.169-89.721-89.72-89.721-49.552 0-89.721 40.169-89.721 89.721 0 .324.008.646.012.971h55.105z"/></g><g><path fill="#FFF" d="M1333.095 530.993H586.68c-82.688 0-149.96-67.271-149.96-149.959v-2h1046.336v2c.001 82.688-67.272 149.959-149.961 149.959zM440.734 383.034c1.074 79.563 66.132 143.959 145.946 143.959h746.415c79.815 0 144.874-64.396 145.948-143.959H440.734z"/></g><g><path fill="#FFF" d="M1342.498 587.73v60.471h-.027l.02 4.02c.001.2.005.4.009.6.003.187.007.374.007.562 0 38.453-14.975 74.604-42.165 101.795s-63.343 42.165-101.797 42.165c-38.453 0-74.604-14.975-101.795-42.165s-42.165-63.342-42.165-101.795c0-.214.004-.426.008-.638l.008-.504.032-4.04h-.04V587.73h287.905m4-4h-295.906v68.471h.008c-.004.395-.016.785-.016 1.182 0 81.716 66.244 147.96 147.96 147.96 81.718 0 147.962-66.244 147.962-147.96 0-.396-.014-.787-.016-1.182h.008V583.73z"/><path d="M1198.544 728.491c-80.482 0-145.96-65.478-145.96-145.96s65.478-145.96 145.96-145.96c80.483 0 145.962 65.478 145.962 145.96s-65.479 145.96-145.962 145.96z"/><path d="M1198.544 438.571c38.454 0 74.605 14.975 101.797 42.166 27.19 27.19 42.165 63.341 42.165 101.794 0 38.454-14.975 74.605-42.165 101.796-27.19 27.189-63.343 42.164-101.797 42.164-38.453 0-74.604-14.975-101.795-42.164-27.19-27.19-42.165-63.342-42.165-101.796 0-38.453 14.975-74.604 42.165-101.794 27.19-27.191 63.342-42.166 101.795-42.166m0-4c-81.716 0-147.96 66.245-147.96 147.96 0 81.718 66.244 147.96 147.96 147.96 81.718 0 147.962-66.242 147.962-147.96 0-81.715-66.244-147.96-147.962-147.96z"/></g><g><circle fill="#F68635" cx="1198.544" cy="582.532" r="96.854"/></g><g><circle fill="#231F20" cx="1198.544" cy="582.531" r="42.475"/></g><g><path fill="#FFF" d="M431.944 382.251c0-.819-122.467-34.957-141.773-34.957s-34.957 15.651-34.957 34.957c0 19.307 15.651 34.956 34.957 34.956s141.773-34.561 141.773-34.956zM432.567 378.599c.429-.697-85.927-94.005-102.362-104.132-16.437-10.128-37.972-5.014-48.099 11.422-10.128 16.437-5.013 37.97 11.423 48.098s138.83 44.948 139.038 44.612zM432.567 385.472c.429.697-85.927 94.005-102.362 104.133-16.437 10.128-37.972 5.013-48.099-11.422-10.128-16.437-5.013-37.971 11.423-48.099s138.83-44.947 139.038-44.612z"/></g><g><path fill="#FFF" d="M1488.056 381.82c0 .819 122.468 34.956 141.773 34.956s34.956-15.65 34.956-34.956c0-19.307-15.65-34.956-34.956-34.956s-141.773 34.562-141.773 34.956zM1487.434 385.472c-.429.697 85.928 94.005 102.361 104.133 16.438 10.128 37.973 5.013 48.1-11.423 10.129-16.436 5.014-37.97-11.423-48.098-16.436-10.128-138.829-44.947-139.038-44.612zM1487.434 378.599c-.429-.697 85.928-94.004 102.361-104.132 16.438-10.128 37.973-5.014 48.1 11.421 10.129 16.438 5.014 37.971-11.423 48.099-16.436 10.127-138.829 44.948-139.038 44.612z"/></g><g><path d="M1200.552 854.542h-4l-.038-2c0-13.161-10.55-23.904-23.637-24.215l-.605.01-85.708-.248-.303.007c-15.562 0-28.222-12.66-28.222-28.221a2 2 0 014 0c0 13.263 10.716 24.069 23.944 24.219l.308-.006 85.238.247.764-.015c11.894 0 22.094 7.397 26.24 17.832 4.146-10.435 14.346-17.832 26.239-17.832l86.061.125c13.353 0 24.218-10.865 24.218-24.221a2 2 0 014 0c0 15.561-12.66 28.221-28.221 28.221l-86.061-.125c-13.353 0-24.218 10.866-24.218 24.222v2z"/></g><g fill="#FFF"><path d="M1138.354 895.104v-2.594l24.221-15.04 2.956 4.667-18.879 11.411 18.879 11.15-2.956 4.668-24.221-14.262zM1172.117 874.1h11.047v23.961c0 2.663.328 4.513.985 5.55.656 1.037 1.711 1.556 3.163 1.556 1.072 0 1.953-.112 2.646-.337a10.123 10.123 0 002.074-.96l2.542 4.668a31.51 31.51 0 01-1.764 1.063c-.588.329-1.211.605-1.867.83-.657.224-1.374.396-2.152.519-.778.12-1.651.182-2.619.182-3.25 0-5.688-.83-7.312-2.49-1.626-1.659-2.438-4.011-2.438-7.054v-21.782h-4.305V874.1zM1201.782 904.699h9.129v-14.522h-9.129v-5.705h15.871V904.7h9.595v5.705h-25.466v-5.706zm7.884-27.28c0-1.071.397-1.988 1.193-2.749.795-.761 1.9-1.142 3.319-1.142 1.452 0 2.609.381 3.475 1.142.863.761 1.297 1.678 1.297 2.749 0 1.106-.434 2.015-1.297 2.723-.865.709-2.022 1.063-3.475 1.063-1.419 0-2.524-.354-3.319-1.063-.796-.708-1.193-1.617-1.193-2.723zM1234.664 909.367l-2.956-4.668 18.879-11.15-18.879-11.411 2.956-4.667 24.221 15.04v2.594l-24.221 14.262z"/></g><g fill="#FFF"><path d="M899.631 476.788v-2.593l24.221-15.041 2.956 4.668-18.878 11.41 18.878 11.151-2.956 4.668-24.221-14.263zM945.998 466.155h9.647v20.227h3.941v5.705h-8.194l-1.193-3.838h-.208c-.796 1.314-1.989 2.403-3.579 3.268-1.591.864-3.354 1.296-5.29 1.296-1.314 0-2.516-.173-3.605-.519a6.47 6.47 0 01-2.774-1.711c-.761-.795-1.349-1.867-1.764-3.216-.415-1.349-.622-3.042-.622-5.083V471.86H929.4v-5.705h9.699v14.729c0 2.109.337 3.63 1.011 4.564s1.738 1.4 3.19 1.4c1.279 0 2.429-.38 3.449-1.141 1.02-.76 1.738-1.694 2.152-2.801V471.86h-2.904v-5.705zM964.514 455.782h11.047v23.961c0 2.663.328 4.512.984 5.549.656 1.038 1.711 1.556 3.164 1.556 1.072 0 1.953-.112 2.645-.337a10.123 10.123 0 002.074-.96l2.543 4.668c-.59.381-1.176.735-1.764 1.063s-1.211.605-1.867.83a12.77 12.77 0 01-2.152.519c-.779.121-1.652.182-2.619.182-3.25 0-5.688-.83-7.312-2.489-1.627-1.66-2.438-4.011-2.438-7.054v-21.783h-4.305v-5.705zM995.942 491.05l-2.956-4.668 18.879-11.151-18.879-11.41 2.956-4.668 24.221 15.041v2.593l-24.221 14.263z"/></g><g><path d="M961.705 437.15h-3.981l-.037-1.991c0-13.11-10.519-23.81-23.56-24.104l-.564.01-464.834.117-.315.008c-15.489 0-28.09-12.601-28.09-28.09h3.981c0 13.214 10.687 23.979 23.871 24.108l.264-.007 464.224-.117.913-.017c11.839 0 21.992 7.362 26.119 17.749 4.127-10.387 14.278-17.749 26.117-17.749l465.411.117.021.006c13.164-.153 23.827-10.909 23.827-24.107h3.981c0 15.489-12.603 28.09-28.092 28.09l-.315-.008-464.833-.117c-13.293 0-24.108 10.815-24.108 24.11v1.992z"/></g></svg>