<svg xmlns="http://www.w3.org/2000/svg" viewBox="0 0 1410 682"><path d="M1157.12 150.59h70.85c0-81.72-66.24-147.96-147.96-147.96l-1.18.01h-68.47c81.17.65 146.76 66.63 146.76 147.95Z"/><path fill="#FF8630" d="M1157.12 152.53c0-81.31-65.6-147.3-146.76-147.94l-1.2-.02c-81.71 0-147.96 66.24-147.96 147.96"/><path d="M1159.12 152.53h-4a145 145 0 0 0-42.36-102.81 145.05 145.05 0 0 0-102.41-43.13l-.54-.01h-.65c-80.48 0-145.96 65.47-145.96 145.95h-4c0-82.69 67.27-149.96 149.96-149.96h.72l.5.02c39.8.31 77.17 16.05 105.22 44.3a149.01 149.01 0 0 1 43.52 105.64Z"/><path fill="#fff" d="M1014.18 150.71h70.85c0-81.72-66.24-147.96-147.96-147.96l-1.18.02v-.01h-68.47c81.16.65 146.76 66.63 146.76 147.95Z"/><path fill="#FF8630" d="M1014.18 152.65c0-81.31-65.6-147.3-146.76-147.94l-1.2-.02c-81.72 0-147.96 66.25-147.96 147.96"/><path d="M1016.18 152.65h-4a145 145 0 0 0-42.36-102.81A145.05 145.05 0 0 0 867.4 6.7l-.54-.01h-.64c-80.48 0-145.96 65.47-145.96 145.95h-4c0-82.69 67.27-149.96 149.96-149.96h.71l.5.02c39.8.31 77.18 16.05 105.23 44.3a149.02 149.02 0 0 1 43.52 105.64Z"/><path d="m830.6 151.61-.02-.97a34.63 34.63 0 1 1 69.26 0l-.02.97h55.1l.01-.97a89.72 89.72 0 1 0-179.44 0l.01.97Z"/><path d="M775.31 150.06h70.85C846.16 68.34 779.92 2.1 698.2 2.1l-1.18.02V2.1h-68.47c81.16.65 146.76 66.64 146.76 147.95Z"/><g fill="#fff"><path d="M775.31 152c0-81.31-65.6-147.3-146.76-147.94l-1.2-.02C545.63 4.04 479.39 70.3 479.39 152"/><path d="M777.31 152h-4c0-38.78-15.04-75.29-42.36-102.81A145.05 145.05 0 0 0 628.53 6.06H628l-.64-.02C546.88 6.04 481.4 71.52 481.4 152h-4c0-82.68 67.27-149.96 149.96-149.96l.71.01h.5c39.8.33 77.17 16.06 105.23 44.32A149.02 149.02 0 0 1 777.3 152Z"/></g><path fill="#FF8630" d="M591.55 152.94v-.24a36.67 36.67 0 0 1 36.61-37.41 36.67 36.67 0 0 1 36.6 37.32v.32l-4-.1v-.35l.02-.57a32.67 32.67 0 0 0-32.63-32.63c-18 0-32.63 14.64-32.63 32.63l.02.65v.26Z"/><path fill="#FF8630" d="M536.44 152.9v-.99c0-50.57 41.14-91.72 91.71-91.72 50.58 0 91.72 41.15 91.72 91.72v.99l-4-.03v-.95c0-48.37-39.35-87.72-87.72-87.72s-87.72 39.35-87.72 87.72v.57l.01.37Z"/><path d="M604.63 150.63h70.85c0-81.72-66.25-147.96-147.96-147.96l-1.18.01h-68.47c81.16.65 146.76 66.63 146.76 147.95Z"/><path fill="#FF8630" d="M604.63 152.57c0-81.31-65.6-147.3-146.76-147.94l-1.2-.02c-81.72 0-147.96 66.24-147.96 147.96"/><path d="M606.63 152.57h-4a145 145 0 0 0-42.37-102.81 145.05 145.05 0 0 0-102.4-43.13l-.53-.01h-.65c-80.48 0-145.96 65.47-145.96 145.95h-4c0-82.69 67.27-149.96 149.96-149.96h.72l.5.02c39.8.31 77.16 16.05 105.22 44.3a149.01 149.01 0 0 1 43.52 105.64Z"/><path fill="#fff" d="m479.48 148.6-.01.98h70.85v-.97C550.33 66.89 484.09.64 402.38.64l-1.18.02h-72.36.97c81.17.65 149.68 66.63 149.68 147.95Z"/><path fill="#FF8630" d="M479.47 151.52v-.97c0-81.32-65.59-147.3-146.75-147.95l-1.2-.01c-81.72 0-147.96 66.24-147.96 147.96l.01.97"/><path fill="#fff" d="m481.47 151.54-4-.04v-.95c0-38.78-15.04-75.3-42.36-102.82A145.05 145.05 0 0 0 332.72 4.6h-.54l-.65-.01c-80.48 0-145.96 65.48-145.96 145.96l.01.96-4 .02v-.41l-.01-.57C181.56 67.86 248.83.59 331.52.59h.72l.5.01c39.8.32 77.16 16.06 105.21 44.31a149.02 149.02 0 0 1 43.52 106.25Z"/><path fill="#fff" d="m296.92 149.58-.03-.97a34.63 34.63 0 0 1 69.26 0l-.03.97h55.1l.02-.97a89.72 89.72 0 1 0-179.44 0l.01.97Z"/><path fill="#fff" d="M1078.1 301H331.68c-82.69 0-149.96-67.28-149.96-149.97v-2h1046.34v2c0 82.7-67.28 149.96-149.96 149.96ZM185.73 153.02C186.81 232.6 251.87 297 331.68 297h746.41c79.82 0 144.88-64.4 145.95-143.96Zm901.77 204.71v60.47h-.03l.02 4.02.01.6v.56c0 38.46-14.97 74.6-42.16 101.8a143.02 143.02 0 0 1-101.8 42.16 143 143 0 0 1-101.79-42.16 143.01 143.01 0 0 1-42.16-101.8v-.63l.01-.5.03-4.05h-.04v-60.47Zm4-4H795.6v68.47l-.02 1.18c0 81.72 66.25 147.96 147.96 147.96 81.72 0 147.97-66.24 147.97-147.96l-.02-1.18Z"/><path d="M943.54 498.5c-80.48 0-145.96-65.49-145.96-145.97s65.48-145.96 145.96-145.96c80.49 0 145.97 65.48 145.97 145.96S1024.03 498.5 943.54 498.5Z"/><path d="M943.54 208.57c38.46 0 74.6 14.98 101.8 42.17a143.02 143.02 0 0 1 42.17 101.8c0 38.44-14.98 74.6-42.17 101.79a143.02 143.02 0 0 1-101.8 42.16c-38.45 0-74.6-14.97-101.8-42.16a143.02 143.02 0 0 1-42.16-101.8c0-38.45 14.98-74.6 42.17-101.8a143.02 143.02 0 0 1 101.8-42.16m0-4c-81.72 0-147.97 66.25-147.97 147.96 0 81.72 66.25 147.96 147.96 147.96 81.72 0 147.97-66.24 147.97-147.96 0-81.71-66.25-147.96-147.97-147.96Z"/><path fill="#FF8630" d="M1040.4 352.53c0 53.5-43.37 96.86-96.86 96.86s-96.85-43.37-96.85-96.86 43.36-96.85 96.85-96.85c53.5 0 96.86 43.36 96.86 96.85Z"/><path fill="#231f20" d="M986.02 352.53a42.48 42.48 0 1 1-84.95 0 42.48 42.48 0 0 1 84.95 0Z"/><path fill="#fff" d="M176.94 152.25c0-.82-122.46-34.96-141.77-34.96a34.96 34.96 0 0 0 0 69.92c19.3 0 141.77-34.56 141.77-34.96Zm.63-3.65c.43-.7-85.93-94-102.36-104.13a34.96 34.96 0 1 0-36.68 59.52c16.44 10.13 138.83 44.95 139.04 44.6Zm0 6.87c.43.7-85.93 94-102.36 104.14a34.96 34.96 0 0 1-36.68-59.53c16.44-10.12 138.83-44.94 139.04-44.6Zm1055.49-3.65c0 .82 122.46 34.96 141.77 34.96a34.96 34.96 0 0 0 0-69.92c-19.3 0-141.77 34.57-141.77 34.96Zm-.63 3.65c-.42.7 85.93 94 102.37 104.14a34.96 34.96 0 0 0 36.67-59.53c-16.43-10.12-138.83-44.94-139.04-44.6Zm0-6.87c-.42-.7 85.93-94 102.37-104.13a34.96 34.96 0 0 1 36.67 59.52c-16.43 10.12-138.83 44.95-139.04 44.6Z"/><path d="M945.55 624.54h-4l-.04-2a24.25 24.25 0 0 0-23.63-24.21h-.6l-85.72-.24h-.3a28.25 28.25 0 0 1-28.22-28.22 2 2 0 1 1 4 0 24.25 24.25 0 0 0 23.94 24.22h.31l85.24.25.76-.02c11.9 0 22.1 7.4 26.24 17.83a28.27 28.27 0 0 1 26.24-17.83l86.06.13a24.25 24.25 0 0 0 24.22-24.23 2 2 0 1 1 4 0 28.25 28.25 0 0 1-28.22 28.23l-86.06-.13a24.25 24.25 0 0 0-24.22 24.22v2Z"/><path fill="#fff" d="M883.35 665.1v-2.59l24.23-15.04 2.95 4.67-18.88 11.4 18.88 11.16-2.95 4.67Zm33.77-21h11.04v23.96c0 2.66.33 4.51.99 5.55.65 1.04 1.71 1.56 3.16 1.56a8.9 8.9 0 0 0 2.65-.34 9.97 9.97 0 0 0 2.07-.96l2.54 4.67c-.57.37-1.16.73-1.76 1.06a11.37 11.37 0 0 1-4.02 1.35c-.78.12-1.65.18-2.62.18-3.25 0-5.69-.83-7.31-2.49-1.63-1.66-2.44-4-2.44-7.05V649.8h-4.3Zm29.66 30.6h9.13v-14.52h-9.13v-5.7h15.87v20.22h9.6v5.7h-25.47Zm7.89-27.28c0-1.07.4-1.99 1.19-2.75a4.6 4.6 0 0 1 3.32-1.14c1.45 0 2.6.38 3.47 1.14a3.54 3.54 0 0 1 0 5.47 5.31 5.31 0 0 1-3.47 1.07 4.81 4.81 0 0 1-3.32-1.07c-.8-.7-1.2-1.62-1.2-2.72Zm25 31.95-2.96-4.67 18.88-11.15-18.88-11.41 2.95-4.67 24.23 15.04v2.6ZM644.63 246.79v-2.6l24.22-15.04 2.96 4.67-18.88 11.41 18.88 11.15-2.96 4.67ZM691 236.16h9.64v20.22h3.95v5.7h-8.2l-1.2-3.83h-.2a9.18 9.18 0 0 1-3.58 3.27 10.9 10.9 0 0 1-5.29 1.3c-1.31 0-2.51-.18-3.6-.53a6.46 6.46 0 0 1-2.78-1.7 7.95 7.95 0 0 1-1.76-3.22 17.57 17.57 0 0 1-.62-5.09v-10.42h-2.96v-5.7h9.7v14.72c0 2.11.34 3.63 1.01 4.57.67.93 1.74 1.4 3.19 1.4a6.14 6.14 0 0 0 5.6-3.94v-11.05H691v-5.7Zm18.51-10.38h11.05v23.96c0 2.67.33 4.51.99 5.55.65 1.04 1.7 1.56 3.16 1.56a8.7 8.7 0 0 0 2.64-.34c.73-.24 1.42-.56 2.08-.96l2.54 4.67c-.59.38-1.18.73-1.76 1.06a11.45 11.45 0 0 1-4.02 1.35c-.78.12-1.65.18-2.62.18-3.25 0-5.69-.83-7.31-2.49-1.63-1.66-2.44-4-2.44-7.05v-21.78h-4.3Zm31.43 35.27-2.95-4.67 18.88-11.15-18.88-11.4 2.95-4.68 24.22 15.04v2.6Z"/><path d="M706.7 207.15h-3.98l-.03-2a24.14 24.14 0 0 0-23.56-24.1l-.57.01-464.83.12-.32.01a28.12 28.12 0 0 1-28.09-28.09h3.99a24.14 24.14 0 0 0 23.87 24.1h.26l464.22-.12.92-.01a28.14 28.14 0 0 1 26.12 17.75 28.13 28.13 0 0 1 26.11-17.75l465.41.11.02.01a24.14 24.14 0 0 0 23.83-24.1h3.98a28.12 28.12 0 0 1-28.09 28.08h-.31l-464.84-.12a24.14 24.14 0 0 0-24.1 24.1Z"/></svg>
