<svg xmlns="http://www.w3.org/2000/svg" width="1080" height="1080"><path d="M295.335 818.161c-5.241 0-10.48-1.994-14.47-5.984l2.805-2.805c6.378 6.376 16.725 6.432 23.169.158l.168-.174 232.118-232.233.691-.708c5.764-5.764 14.142-7.363 21.354-4.801-2.563-7.214-.964-15.59 4.8-21.353L799.131 317.22a16.386 16.386 0 004.614-11.442c0-4.407-1.716-8.549-4.831-11.664l2.805-2.806a20.328 20.328 0 015.993 14.47c0 5.466-2.13 10.605-5.995 14.47l-.243.235-232.7 232.584c-6.431 6.431-6.431 16.896 0 23.329l1.482 1.482-2.96 2.649-1.346-1.311c-6.324-6.322-16.55-6.429-23.005-.313l-.322.33L310.04 811.934l-.235.243c-3.99 3.989-9.231 5.984-14.47 5.984zM767.266 322.984l35.601-35.601c-41.061-41.062-107.633-41.062-148.693-.001-.197.198-.389.401-.584.6l-.004-.003-34.406 34.406.004.003c41.106-40.457 107.223-40.263 148.082.596z"/><path fill="#F68635" d="M768.242 323.96c-40.86-40.859-106.977-41.054-148.084-.595-.202.199-.408.394-.609.594-41.06 41.061-41.061 107.633.001 148.693"/><path d="M618.136 474.066c-41.775-41.774-41.775-109.746-.001-151.521l.619-.604c20.173-19.854 46.844-30.773 75.141-30.773l.405.001c28.465.104 55.227 11.248 75.356 31.377l-2.828 2.828c-19.378-19.377-45.141-30.105-72.543-30.206h-.39c-27.243 0-52.915 10.51-72.334 29.623l-.602.586c-40.212 40.212-40.211 105.647.004 145.862l-2.827 2.827z"/><path fill="#FFF" d="M695.503 394.869l35.6-35.601c-41.061-41.061-107.633-41.06-148.694.002-.198.197-.388.4-.585.601l-.004-.004-34.405 34.405.004.004c41.107-40.46 107.225-40.265 148.084.593z"/><path fill="#F68635" d="M696.479 395.846c-40.859-40.859-106.976-41.054-148.085-.594-.202.2-.407.392-.609.595-41.061 41.06-41.061 107.632 0 148.692"/><path d="M546.37 545.953c-20.236-20.236-31.382-47.142-31.382-75.761s11.146-55.524 31.382-75.76c.118-.119.241-.238.364-.357l.252-.245c20.273-19.953 47.096-30.913 75.551-30.777 28.465.104 55.227 11.248 75.355 31.377l-2.828 2.828c-19.378-19.377-45.141-30.105-72.542-30.206l-.39-.001c-27.243 0-52.916 10.511-72.336 29.624l-.595.58c-19.484 19.484-30.214 45.385-30.214 72.935 0 27.55 10.729 53.452 30.21 72.933l-2.827 2.83z"/><path d="M603.715 487.563c-.167-.157-.337-.312-.5-.476-9.61-9.61-9.61-25.19-.001-34.8 9.609-9.61 25.19-9.61 34.801 0 .164.163.317.334.476.5l27.688-27.689c-.162-.163-.319-.33-.482-.493-24.898-24.898-65.266-24.898-90.165 0-24.897 24.898-24.898 65.267.001 90.165.162.163.329.32.494.481l27.688-27.688z"/><path d="M575.15 514.57l35.6-35.6c-41.061-41.061-107.632-41.062-148.692 0-.198.198-.39.401-.585.6l-.003-.003-34.406 34.405.003.004c41.107-40.458 107.224-40.265 148.083.594z"/><path fill="#FFF" d="M576.126 515.547c-40.859-40.859-106.977-41.053-148.084-.595-.202.2-.408.394-.609.595-41.06 41.059-41.061 107.631 0 148.693"/><path fill="#FFF" d="M426.019 665.654c-41.774-41.776-41.774-109.748 0-151.521l.616-.602c20.176-19.857 46.848-30.776 75.145-30.776h.405c28.465.105 55.227 11.248 75.355 31.377l-2.828 2.828c-19.378-19.377-45.141-30.104-72.542-30.206h-.391c-27.242 0-52.915 10.51-72.334 29.623l-.599.583c-40.215 40.214-40.215 105.648 0 145.865l-2.827 2.829z"/><path fill="#F68635" d="M483.866 608.776l-.139-.13a14.73 14.73 0 01-.405-.387c-5.026-5.026-7.794-11.708-7.794-18.815 0-7.106 2.769-13.788 7.794-18.813 10.373-10.374 27.255-10.378 37.63-.002.131.131.256.265.381.399l.136.146-2.912 2.742-.155-.167c-.092-.098-.182-.196-.277-.292-8.817-8.814-23.16-8.812-31.974.002a22.455 22.455 0 00-6.622 15.985 22.462 22.462 0 006.622 15.987c.099.099.2.191.301.286l.157.146-2.743 2.913z"/><path fill="#F68635" d="M456.161 636.447l-.513-.497c-25.647-25.647-25.647-67.364-.009-93.003 25.639-25.638 67.355-25.638 92.994 0l.491.503-2.846 2.811-.478-.489c-24.076-24.075-63.256-24.073-87.334.004-11.664 11.664-18.088 27.173-18.088 43.669s6.424 32.005 18.088 43.669l.471.455-2.776 2.878z"/><g><path d="M489.672 600.619l35.601-35.602c-41.062-41.061-107.634-41.06-148.694 0-.199.199-.389.402-.586.602l-.003-.004-34.405 34.404.003.004c41.107-40.457 107.224-40.263 148.084.596z"/><path fill="#F68635" d="M490.647 601.594c-40.859-40.859-106.977-41.053-148.084-.594-.203.199-.409.393-.611.596-41.059 41.059-41.06 107.631.002 148.691"/><path d="M340.54 751.701c-20.237-20.236-31.382-47.142-31.382-75.761 0-28.618 11.144-55.523 31.38-75.759.129-.13.264-.26.398-.39l.227-.22c20.169-19.851 46.841-30.771 75.139-30.771l.404.001c28.465.104 55.227 11.248 75.355 31.377l-2.828 2.828c-19.378-19.378-45.141-30.104-72.542-30.205l-.39-.001c-27.243 0-52.916 10.511-72.335 29.624l-.597.581c-19.484 19.483-30.212 45.384-30.212 72.934 0 27.551 10.729 53.452 30.21 72.933l-2.827 2.829z"/></g><g><path fill="#FFF" d="M425.771 662.486c.163.164.32.33.481.494l35.601-35.6c-.162-.164-.318-.332-.481-.494-41.062-41.061-107.633-41.061-148.694 0-.198.197-.39.4-.585.6l-.003-.004-36.357 36.357.491-.484c41.106-40.459 108.687-41.728 149.547-.869z"/><path fill="#F68635" d="M427.228 663.957c-.162-.164-.318-.332-.481-.494-40.859-40.859-106.977-41.055-148.084-.594-.202.197-.408.393-.609.594-41.06 41.061-41.062 107.633 0 148.693.163.162.329.32.495.482"/><path fill="#FFF" d="M277.15 814.069l-.508-.494c-41.778-41.778-41.778-109.751-.004-151.526.139-.139.279-.275.42-.411l.207-.2c20.165-19.848 46.836-30.768 75.134-30.768l.405.001c28.464.104 55.227 11.248 75.355 31.378l.49.503-2.846 2.811-.469-.48c-19.382-19.383-45.145-30.11-72.546-30.211l-.391-.001c-27.243 0-52.915 10.511-72.334 29.625l-.599.582c-40.215 40.216-40.215 105.651 0 145.865l.479.466-2.793 2.86z"/><g><path fill="#FFF" d="M334.524 754.709c-.167-.158-.338-.311-.501-.475-9.61-9.609-9.61-25.191-.001-34.801 9.611-9.611 25.191-9.609 34.802 0 .163.164.317.334.475.5l27.688-27.689c-.161-.164-.318-.33-.481-.494-24.898-24.898-65.267-24.896-90.165.002-24.898 24.896-24.898 65.266 0 90.164.163.162.329.32.494.482l27.689-27.689z"/></g></g><g><path fill="#FFF" d="M352.725 845.113c-28.618 0-55.524-11.145-75.761-31.381l-1.414-1.414 526.578-526.577 1.414 1.415c20.236 20.236 31.381 47.142 31.381 75.76-.001 28.619-11.146 55.524-31.383 75.761L428.485 813.732c-20.236 20.237-47.141 31.381-75.76 31.381zm-71.505-32.808c19.31 18.595 44.622 28.809 71.505 28.809 27.55 0 53.451-10.729 72.933-30.209L800.712 435.85c19.481-19.481 30.21-45.383 30.211-72.934 0-26.882-10.214-52.195-28.809-71.504L281.22 812.305z"/></g><g><path fill="#FFF" d="M275.585 816.334c-.412-.41-79.102 43.973-88.803 53.674-9.7 9.699-9.7 25.428 0 35.129 9.701 9.701 25.43 9.701 35.13 0 9.701-9.701 53.871-88.604 53.673-88.803zM274.063 814.186c-.135-.564-90.412-4.059-103.76-.889s-21.599 16.561-18.428 29.908c3.168 13.348 16.56 21.598 29.907 18.428 13.35-3.17 92.345-47.174 92.281-47.447zM277.517 817.641c.566.135 4.059 90.41.89 103.758-3.17 13.348-16.562 21.6-29.907 18.43-13.35-3.17-21.6-16.561-18.43-29.908 3.17-13.349 47.173-92.345 47.447-92.28z"/></g><g><path fill="#FFF" d="M806.04 285.448c.411.411 79.102-43.973 88.802-53.673 9.7-9.701 9.7-25.429-.001-35.13-9.7-9.7-25.428-9.7-35.129 0-9.7 9.701-53.871 88.605-53.672 88.803zM807.562 287.596c.135.565 90.411 4.059 103.759.89 13.349-3.17 21.599-16.562 18.429-29.908-3.169-13.348-16.56-21.598-29.907-18.428s-92.345 47.172-92.281 47.446zM804.108 284.143c-.566-.136-4.059-90.412-.891-103.759 3.171-13.349 16.562-21.6 29.908-18.43 13.349 3.17 21.599 16.561 18.429 29.908s-47.172 92.344-47.446 92.281z"/></g><g><path fill="#FFF" d="M559.681 628.426l-1.303-1.303 4.612-19.728 3.831.86-3.753 15.219 15.089-3.883.86 3.831-19.336 5.004zM577.636 599.785l4.848-4.848 9.07 9.07 1.094 1.094 1.98-1.98 2.867 2.867-4.118 4.117-2.528-1.328-.104.104c.26 1.061.209 2.207-.156 3.44-.365 1.232-1.034 2.337-2.006 3.31-.662.66-1.353 1.177-2.072 1.551a4.608 4.608 0 01-2.254.533c-.783-.017-1.617-.26-2.504-.729-.885-.47-1.84-1.217-2.865-2.242l-5.238-5.238-1.486 1.486-2.867-2.867 4.875-4.873 7.4 7.4c1.061 1.061 1.994 1.656 2.803 1.785.807.131 1.576-.168 2.306-.898a4.007 4.007 0 001.159-2.306c.131-.895.022-1.725-.325-2.489l-5.552-5.551-1.459 1.459-2.868-2.867zM581.728 585.271l5.551-5.552 12.04 12.04c1.338 1.338 2.433 2.103 3.284 2.293.851.191 1.641-.078 2.371-.807.539-.539.925-1.038 1.16-1.5a7.25 7.25 0 00.56-1.523l3.622 1.068c-.104.486-.221.959-.352 1.42s-.304.912-.521 1.355c-.217.442-.49.89-.82 1.342-.33.451-.738.922-1.225 1.407-1.633 1.634-3.275 2.441-4.926 2.423-1.65-.017-3.24-.789-4.77-2.318l-10.945-10.945-2.163 2.163-2.866-2.866zM615.241 587.199l-3.83-.861 3.883-15.088-15.219 3.752-.861-3.83 19.729-4.613 1.303 1.303-5.005 19.337z"/></g><g><path fill="#FFF" d="M781.347 915.881v-1.844l17.211-10.688 2.101 3.316-13.415 8.109 13.415 7.924-2.101 3.316-17.211-10.133zM805.339 900.953h7.851v17.027c0 1.893.233 3.207.7 3.943.467.738 1.216 1.105 2.248 1.105.762 0 1.388-.078 1.88-.238.491-.16.982-.387 1.474-.682l1.807 3.316c-.418.271-.836.521-1.253.756-.419.232-.86.43-1.327.59-.467.158-.977.281-1.529.367s-1.174.129-1.861.129c-2.31 0-4.042-.588-5.196-1.768-1.155-1.18-1.732-2.852-1.732-5.014v-15.479h-3.06v-4.052zM826.42 922.699h6.486v-10.32h-6.486v-4.055h11.277v14.375h6.818v4.053H826.42v-4.053zm5.601-19.387c0-.762.282-1.412.848-1.953s1.352-.811 2.358-.811c1.032 0 1.855.27 2.47.811s.922 1.191.922 1.953c0 .787-.308 1.432-.922 1.936s-1.438.754-2.47.754c-1.007 0-1.793-.25-2.358-.754s-.848-1.148-.848-1.936zM849.786 926.016l-2.101-3.316 13.415-7.924-13.415-8.109 2.101-3.316 17.211 10.688v1.844l-17.211 10.133z"/><g><path fill="#FFF" d="M925.852 679.49v40.656h-.019l.014 4.014c.001.148.003.297.006.444.003.123.005.245.005.382 0 55.77-45.372 101.141-101.143 101.141-55.77 0-101.142-45.371-101.142-101.127.001-.169.004-.337.007-.504l.004-.294.051-4.056h-.056l-.001-40.656h202.274m4-4H719.578l.001 48.656h.006c-.004.279-.011.559-.012.84 0 58.068 47.073 105.141 105.142 105.141 58.069 0 105.143-47.072 105.143-105.141.001-.281-.01-.561-.011-.84h.005V675.49z"/><path d="M824.716 777.779c-27.551 0-53.452-10.729-72.933-30.209-19.481-19.48-30.209-45.382-30.209-72.932s10.728-53.451 30.209-72.933 45.383-30.21 72.933-30.21c56.872 0 103.142 46.27 103.143 103.143-.002 56.873-46.271 103.141-103.143 103.141z"/><path d="M824.716 573.496c55.77 0 101.142 45.372 101.143 101.143-.001 55.77-45.373 101.141-101.143 101.141-27.017 0-52.415-10.521-71.519-29.623s-29.623-44.502-29.623-71.518 10.52-52.415 29.623-71.519 44.502-29.624 71.519-29.624m0-4c-58.068 0-105.143 47.074-105.142 105.143-.001 58.068 47.073 105.141 105.142 105.141 58.069 0 105.142-47.072 105.143-105.141-.002-58.069-47.075-105.143-105.143-105.143z"/><circle fill="#F68635" cx="824.716" cy="674.638" r="68.825"/><g><circle fill="#231F20" cx="824.716" cy="674.638" r="30.183"/></g><g><path d="M826.72 881.301h-4l-.025-2c0-8.999-7.186-16.354-16.122-16.627l-.528.006-60.825-.177-.294.005c-11.376 0-20.632-9.256-20.633-20.633a2 2 0 014 0c.001 9.087 7.325 16.495 16.379 16.631l.277-.004 60.29.176.822-.012c8.22.002 15.331 4.832 18.646 11.803 3.314-6.971 10.427-11.801 18.646-11.801l61.156.088c9.168 0 16.63-7.462 16.63-16.633a2 2 0 014 0c0 11.377-9.256 20.633-20.633 20.633l-61.156-.088c-9.168 0-16.63 7.462-16.63 16.633v2z"/></g></g></g><g><path fill="#FFF" d="M212.294 159.949v-1.843l17.211-10.688 2.101 3.317-13.415 8.108 13.415 7.924-2.101 3.316-17.211-10.134zM236.286 145.022h7.851v17.027c0 1.893.233 3.206.7 3.943s1.216 1.105 2.248 1.105c.762 0 1.388-.079 1.88-.239a7.166 7.166 0 001.474-.682l1.807 3.316a22.91 22.91 0 01-1.253.756c-.419.233-.86.431-1.327.59s-.977.282-1.529.368-1.174.129-1.861.129c-2.31 0-4.042-.589-5.196-1.769-1.155-1.18-1.732-2.851-1.732-5.013v-15.479h-3.06v-4.052zM257.367 166.767h6.486v-10.32h-6.486v-4.054h11.277v14.374h6.818v4.054h-18.096v-4.054zm5.602-19.387c0-.761.282-1.412.848-1.953.565-.54 1.352-.811 2.358-.811 1.032 0 1.855.271 2.47.811.614.541.922 1.192.922 1.953 0 .787-.308 1.432-.922 1.936s-1.438.755-2.47.755c-1.007 0-1.793-.251-2.358-.755s-.848-1.149-.848-1.936zM280.733 170.083l-2.101-3.316 13.415-7.924-13.415-8.108 2.101-3.317 17.211 10.688v1.843l-17.211 10.134z"/><g><path d="M254.715 503.414c-56.872 0-103.142-46.269-103.142-103.141l.04-2.84h-.034l-.001-44.656h206.273v44.656h-.007l.002 2.007.011.826c0 56.88-46.269 103.148-103.142 103.148z"/><path d="M355.852 354.777v40.656h-.019l.014 4.014.006.445c.003.122.005.245.005.381 0 55.769-45.372 101.141-101.143 101.141-55.77 0-101.142-45.372-101.142-101.127.001-.168.004-.336.007-.504l.004-.293.051-4.056h-.056l-.001-40.656h202.274m4-4.001H149.578l.001 48.656h.006c-.004.279-.011.559-.012.84 0 58.068 47.073 105.141 105.142 105.141 58.069 0 105.143-47.072 105.143-105.141.001-.281-.01-.561-.011-.84h.005v-48.656z"/><path fill="#F68635" d="M254.716 453.066c-27.551 0-53.452-10.729-72.933-30.209-19.481-19.48-30.209-45.381-30.209-72.932s10.728-53.452 30.209-72.933c19.481-19.481 45.383-30.21 72.933-30.21 56.872 0 103.142 46.27 103.143 103.143-.002 56.873-46.271 103.141-103.143 103.141z"/><path fill="#FFF" d="M254.716 248.783c55.77 0 101.142 45.373 101.143 101.143-.001 55.769-45.373 101.141-101.143 101.141-27.017 0-52.415-10.521-71.519-29.623-19.104-19.103-29.623-44.502-29.623-71.518s10.52-52.415 29.623-71.519 44.502-29.624 71.519-29.624m0-4c-58.068 0-105.143 47.074-105.142 105.143-.001 58.068 47.073 105.141 105.142 105.141 58.069 0 105.142-47.072 105.143-105.141-.002-58.069-47.075-105.143-105.143-105.143z"/><g><path fill="#F68635" d="M254.716 416.75c-36.847 0-66.824-29.978-66.825-66.826 0-36.847 29.978-66.824 66.825-66.824s66.826 29.977 66.826 66.824c0 36.848-29.979 66.826-66.826 66.826z"/><path d="M254.716 285.1c35.745 0 64.826 29.08 64.826 64.824 0 35.745-29.081 64.826-64.826 64.826-35.744 0-64.824-29.081-64.825-64.826 0-35.744 29.08-64.824 64.825-64.824m0-4c-38.012 0-68.825 30.814-68.825 68.824.001 38.014 30.813 68.826 68.825 68.826 38.011 0 68.826-30.812 68.826-68.826 0-38.01-30.814-68.824-68.826-68.824z"/></g><g><circle fill="#231F20" cx="254.716" cy="349.925" r="30.183"/></g><g><path d="M353.14 235.035a2 2 0 01-2-2c-.001-9.087-7.325-16.495-16.379-16.631l-.277.004-60.29-.175-.822.011c-8.22-.001-15.331-4.832-18.646-11.803-3.314 6.971-10.427 11.801-18.646 11.801l-61.156-.088c-9.168 0-16.63 7.461-16.63 16.633a2 2 0 01-4 0c0-11.377 9.256-20.633 20.633-20.633l61.156.088c9.168 0 16.63-7.461 16.63-16.633v-2h4l.025 2c0 9 7.186 16.354 16.122 16.627l.528-.006 60.825.177.294-.005c11.376 0 20.632 9.256 20.633 20.633a2 2 0 01-2 2z"/></g></g></g></svg>