<svg xmlns="http://www.w3.org/2000/svg" viewBox="0 0 782 797"><path d="M146.34 674.16c-5.25 0-10.49-2-14.47-5.98l2.8-2.8a16.52 16.52 0 0 0 23.17.15l.17-.17 232.12-232.24.69-.7a20.5 20.5 0 0 1 21.35-4.8 20.5 20.5 0 0 1 4.8-21.36l233.16-233.04a16.39 16.39 0 0 0 4.62-11.44c0-4.4-1.72-8.55-4.84-11.67l2.8-2.8a20.28 20.28 0 0 1 6 14.47c0 5.46-2.13 10.6-6 14.47l-.24.23-232.7 232.59a16.52 16.52 0 0 0 0 23.33l1.49 1.48-2.96 2.65-1.35-1.31a16.52 16.52 0 0 0-23-.32l-.33.33-232.58 232.7-.23.25a20.4 20.4 0 0 1-14.47 5.98Zm471.93-495.18 35.6-35.6c-41.06-41.06-107.64-41.06-148.7 0l-.58.6-34.41 34.4c41.11-40.45 107.23-40.25 148.09.6Z"/><path fill="#FF8630" d="M619.24 179.96c-40.86-40.86-106.98-41.05-148.08-.6l-.61.6c-41.06 41.06-41.06 107.63 0 148.7"/><path d="M469.14 330.07c-41.78-41.78-41.78-109.75 0-151.53l.61-.6a106.47 106.47 0 0 1 75.14-30.77h.41c28.47.1 55.23 11.25 75.36 31.38l-2.83 2.82a102.5 102.5 0 0 0-72.55-30.2h-.38a102.48 102.48 0 0 0-72.34 29.62l-.6.59c-40.21 40.2-40.21 105.64 0 145.86Z"/><path fill="#fff" d="m546.5 250.87 35.6-35.6c-41.06-41.06-107.63-41.06-148.7 0l-.58.6-34.4 34.4c41.1-40.45 107.22-40.26 148.08.6Z"/><path fill="#FF8630" d="M547.48 251.85c-40.86-40.86-106.98-41.06-148.09-.6l-.6.6c-41.07 41.06-41.07 107.63 0 148.69"/><path d="M397.37 401.95a106.44 106.44 0 0 1-31.38-75.76c0-28.62 11.14-55.52 31.38-75.76l.36-.36.26-.24a106.34 106.34 0 0 1 75.55-30.78c28.46.1 55.22 11.25 75.35 31.38l-2.83 2.83a102.5 102.5 0 0 0-72.54-30.2h-.39a102.5 102.5 0 0 0-72.33 29.62l-.6.57A102.47 102.47 0 0 0 370 326.2a102.5 102.5 0 0 0 30.2 72.93Z"/><path d="m454.71 343.56-.5-.47a24.6 24.6 0 1 1 34.8-34.8c.17.16.32.33.48.5l27.69-27.7-.48-.48a63.76 63.76 0 0 0-90.17 90.16l.5.48Z"/><path d="m426.15 370.57 35.6-35.6c-41.06-41.06-107.63-41.06-148.7 0l-.58.6-34.4 34.4c41.1-40.45 107.22-40.26 148.08.6Z"/><path fill="#fff" d="M427.13 371.55c-40.86-40.86-106.98-41.06-148.09-.6l-.6.6c-41.07 41.06-41.07 107.63 0 148.69"/><path fill="#fff" d="M277.02 521.65c-41.77-41.77-41.77-109.74 0-151.52l.62-.6a106.48 106.48 0 0 1 75.14-30.77h.4c28.47.1 55.23 11.24 75.36 31.37l-2.83 2.83a102.5 102.5 0 0 0-72.54-30.2h-.4a102.49 102.49 0 0 0-72.32 29.62l-.6.58c-40.22 40.21-40.22 105.65 0 145.87Z"/><path fill="#FF8630" d="m334.87 464.78-.14-.13c-.14-.13-.28-.26-.4-.4a26.43 26.43 0 0 1-7.8-18.8 26.64 26.64 0 0 1 45.8-18.42l.14.14-2.91 2.75-.16-.17-.27-.3a22.64 22.64 0 0 0-31.98 0 22.45 22.45 0 0 0-6.62 16c-.02 6 2.37 11.75 6.62 15.98l.3.29.16.14Z"/><path fill="#FF8630" d="m307.16 492.45-.51-.5a65.83 65.83 0 0 1-.01-93 65.83 65.83 0 0 1 93 0l.48.5-2.84 2.81-.48-.49a61.83 61.83 0 0 0-87.33 0 61.35 61.35 0 0 0-18.1 43.68c0 16.5 6.43 32 18.1 43.66l.47.46Z"/><path d="m340.67 456.62 35.6-35.6c-41.06-41.06-107.63-41.06-148.7 0l-.58.6-34.4 34.4c41.1-40.45 107.22-40.26 148.08.6Z"/><path fill="#FF8630" d="M341.65 457.6c-40.86-40.87-106.98-41.06-148.09-.6l-.6.6c-41.07 41.05-41.07 107.63 0 148.69"/><path d="M191.54 607.7a106.44 106.44 0 0 1-31.38-75.76c0-28.62 11.14-55.52 31.38-75.76l.4-.39.22-.22a106.47 106.47 0 0 1 75.14-30.77h.4c28.47.1 55.23 11.25 75.36 31.38l-2.83 2.83a102.49 102.49 0 0 0-72.54-30.2l-.39-.01a102.49 102.49 0 0 0-72.33 29.62l-.6.58a102.46 102.46 0 0 0-30.21 72.94 102.5 102.5 0 0 0 30.2 72.93Z"/><path fill="#fff" d="m276.77 518.49.48.49 35.6-35.6-.48-.5c-41.06-41.06-107.63-41.06-148.7 0l-.58.6-36.36 36.36.5-.49c41.1-40.45 108.68-41.72 149.54-.86Z"/><path fill="#FF8630" d="m278.23 519.96-.48-.5c-40.86-40.86-106.98-41.05-148.09-.6l-.6.6c-41.07 41.06-41.07 107.64 0 148.7l.49.48"/><path fill="#fff" d="m128.15 670.07-.5-.5c-41.79-41.77-41.79-109.75-.01-151.52l.42-.41.2-.2a106.46 106.46 0 0 1 75.14-30.77h.4c28.47.1 55.23 11.25 75.36 31.38l.49.5-2.85 2.81-.47-.48a102.5 102.5 0 0 0-72.54-30.2h-.4a102.48 102.48 0 0 0-72.33 29.62l-.6.58c-40.21 40.21-40.21 105.65 0 145.86l.48.47Z"/><path fill="#fff" d="m185.52 610.7-.5-.47a24.6 24.6 0 0 1 34.8-34.8l.48.5 27.69-27.69-.48-.49a63.76 63.76 0 0 0-90.17 90.17l.5.48Z"/><path fill="#fff" d="M203.72 701.11a106.44 106.44 0 0 1-75.76-31.38l-1.41-1.41 526.58-526.58 1.41 1.42a106.44 106.44 0 0 1 31.38 75.76c0 28.62-11.14 55.52-31.38 75.76L279.49 669.73a106.43 106.43 0 0 1-75.77 31.38Zm-71.5-32.8a102.43 102.43 0 0 0 71.5 28.8 102.5 102.5 0 0 0 72.94-30.2L651.7 291.84a102.47 102.47 0 0 0 30.21-72.93 102.4 102.4 0 0 0-28.8-71.5Zm-5.64 4.02c-.4-.4-79.1 43.98-88.8 53.68a24.84 24.84 0 0 0 35.13 35.13c9.7-9.7 53.87-88.6 53.67-88.8Zm-1.52-2.14c-.13-.57-90.4-4.06-103.76-.9a24.84 24.84 0 1 0 11.48 48.34c13.35-3.17 92.35-47.17 92.28-47.44Zm3.46 3.45c.56.14 4.06 90.41.89 103.76a24.84 24.84 0 0 1-48.34-11.48c3.17-13.35 47.17-92.34 47.45-92.28Zm528.52-532.19c.41.4 79.1-43.97 88.8-53.67a24.84 24.84 0 0 0-35.13-35.13c-9.7 9.7-53.87 88.6-53.67 88.8Zm1.52 2.15c.14.56 90.41 4.06 103.76.89a24.84 24.84 0 0 0-11.48-48.34c-13.34 3.17-92.34 47.17-92.28 47.45Zm-3.45-3.46c-.57-.13-4.06-90.4-.9-103.76a24.84 24.84 0 0 1 48.34 11.48c-3.17 13.35-47.17 92.35-47.44 92.28Z"/><path fill="#fff" d="m410.68 484.43-1.3-1.3 4.61-19.74 3.83.87-3.75 15.21 15.09-3.88.86 3.83Zm17.96-28.64 4.84-4.85 9.07 9.07 1.1 1.1 1.98-1.99 2.87 2.87-4.12 4.12-2.53-1.33-.1.1c.25 1.06.2 2.2-.16 3.44a8.52 8.52 0 0 1-4.08 4.86 4.6 4.6 0 0 1-2.25.53 5.65 5.65 0 0 1-2.5-.72 12.53 12.53 0 0 1-2.87-2.25l-5.24-5.23-1.49 1.48-2.86-2.87 4.87-4.87 7.4 7.4c1.06 1.06 2 1.66 2.8 1.79.81.13 1.58-.17 2.31-.9a4.37 4.37 0 0 0 .83-4.8l-5.55-5.55-1.46 1.46Zm4.09-14.52 5.55-5.55 12.04 12.04c1.34 1.34 2.43 2.1 3.28 2.3.85.18 1.64-.09 2.37-.81.54-.54.93-1.04 1.16-1.5.25-.49.44-1 .56-1.53l3.63 1.07c-.1.49-.22.96-.36 1.42a8.12 8.12 0 0 1-1.34 2.7c-.33.45-.74.92-1.22 1.4-1.63 1.64-3.28 2.44-4.93 2.43-1.65-.02-3.24-.8-4.77-2.32l-10.94-10.95-2.17 2.17Zm33.51 1.93-3.83-.86 3.88-15.09-15.22 3.75-.86-3.83 19.73-4.61 1.3 1.3Zm166.11 328.68v-1.84l17.2-10.7 2.1 3.32-13.4 8.11 13.4 7.93-2.1 3.31Zm23.99-14.93h7.85v17.03c0 1.9.23 3.2.7 3.94.47.74 1.22 1.1 2.25 1.1a6.2 6.2 0 0 0 1.88-.23c.49-.16.98-.39 1.47-.68l1.8 3.31c-.4.28-.83.53-1.24.76a8.26 8.26 0 0 1-2.86.96c-.55.08-1.17.13-1.86.13-2.31 0-4.04-.6-5.2-1.77-1.15-1.18-1.73-2.85-1.73-5.02V761h-3.06v-4.05Zm21.08 21.75h6.49v-10.32h-6.49v-4.06h11.28v14.38h6.81v4.05h-18.09Zm5.6-19.39c0-.76.28-1.41.85-1.95a3.27 3.27 0 0 1 2.36-.81 3.6 3.6 0 0 1 2.47.8c.61.55.92 1.2.92 1.96 0 .79-.3 1.43-.92 1.94-.62.5-1.44.75-2.47.75-1.01 0-1.8-.25-2.36-.75a2.48 2.48 0 0 1-.85-1.94Zm17.77 22.7-2.1-3.31 13.41-7.92-13.42-8.11 2.1-3.32L718 770.04v1.84Zm76.06-246.52v40.66h-.02l.02 4.01a32.64 32.64 0 0 0 0 .83c0 55.77-45.36 101.14-101.13 101.14-55.77 0-101.15-45.37-101.15-101.13l.01-.5v-.3l.05-4.05h-.05v-40.66Zm4-4H570.58v49.5c0 58.06 47.07 105.14 105.13 105.14 58.07 0 105.15-47.08 105.15-105.14l-.01-.84Z"/><path d="M675.72 633.78a102.47 102.47 0 0 1-72.94-30.21 102.46 102.46 0 0 1-30.2-72.93 102.5 102.5 0 0 1 30.2-72.94 102.46 102.46 0 0 1 72.94-30.2c56.87 0 103.14 46.26 103.14 103.14 0 56.87-46.27 103.14-103.14 103.14Z"/><path d="M675.72 429.5c55.77 0 101.14 45.37 101.14 101.14s-45.37 101.14-101.14 101.14a100.49 100.49 0 0 1-71.52-29.62 100.47 100.47 0 0 1-29.63-71.52c0-27.02 10.52-52.42 29.63-71.52a100.48 100.48 0 0 1 71.52-29.62m0-4c-58.07 0-105.15 47.07-105.15 105.14s47.08 105.14 105.15 105.14c58.06 0 105.14-47.07 105.14-105.14S733.78 425.5 675.72 425.5Z"/><path fill="#FF8630" d="M744.54 530.64a68.82 68.82 0 1 1-137.65 0 68.82 68.82 0 0 1 137.65 0Z"/><path fill="#231f20" d="M705.9 530.64a30.18 30.18 0 1 1-60.37 0 30.18 30.18 0 0 1 60.37 0Z"/><path d="M677.72 737.3h-4l-.02-2c0-9-7.2-16.35-16.13-16.63l-.53.01-60.82-.18h-.3a20.66 20.66 0 0 1-20.63-20.63 2 2 0 1 1 4 0c0 9.1 7.33 16.5 16.38 16.64h.28l60.29.17.82-.01c8.22 0 15.33 4.83 18.65 11.8a20.66 20.66 0 0 1 18.64-11.8l61.16.09c9.17 0 16.63-7.47 16.63-16.64a2 2 0 1 1 4 0 20.66 20.66 0 0 1-20.63 20.64l-61.16-.1a16.65 16.65 0 0 0-16.63 16.64Z"/><path fill="#fff" d="M63.3 15.95V14.1L80.5 3.4l2.1 3.33-13.4 8.1 13.4 7.93-2.1 3.31ZM87.28 1.02h7.85v17.03c0 1.9.23 3.2.7 3.94.46.74 1.21 1.1 2.24 1.1.77 0 1.4-.07 1.89-.23a7.2 7.2 0 0 0 1.47-.68l1.8 3.31c-.4.27-.82.52-1.25.76a8.09 8.09 0 0 1-2.85.96c-.56.08-1.18.13-1.86.13-2.31 0-4.05-.6-5.2-1.77-1.16-1.18-1.73-2.86-1.73-5.02V5.07h-3.06V1.02Zm21.08 21.75h6.48V12.45h-6.48V8.39h11.27v14.38h6.82v4.05h-18.1v-4.05Zm5.6-19.39c0-.76.28-1.41.85-1.95a3.28 3.28 0 0 1 2.36-.81 3.6 3.6 0 0 1 2.46.8 2.52 2.52 0 0 1 0 3.9c-.6.5-1.43.75-2.47.75-1 0-1.79-.25-2.35-.75a2.48 2.48 0 0 1-.85-1.94Zm17.76 22.7-2.1-3.31 13.42-7.93-13.42-8.1 2.1-3.32 17.21 10.69v1.84Z"/><path d="M105.72 359.41c-56.88 0-103.15-46.27-103.15-103.14l.04-2.84h-.03v-44.65h206.27v47.49c0 56.88-46.26 103.14-103.13 103.14Z"/><path d="M206.85 210.78v40.65h-.02l.02 4.02v.82c0 55.77-45.36 101.14-101.13 101.14-55.77 0-101.15-45.37-101.15-101.12l.01-.5v-.3l.05-4.06h-.05v-40.65h202.27m4-4H.58v49.49c0 58.07 47.07 105.14 105.14 105.14 58.06 0 105.14-47.07 105.14-105.14l-.01-.84Z"/><path fill="#FF8630" d="M105.72 309.07a102.47 102.47 0 0 1-72.94-30.21 102.46 102.46 0 0 1-30.2-72.94c0-27.55 10.72-53.45 30.2-72.93a102.47 102.47 0 0 1 72.94-30.2c56.87 0 103.14 46.26 103.14 103.14 0 56.87-46.27 103.14-103.14 103.14Z"/><path fill="#fff" d="M105.72 104.78c55.77 0 101.14 45.38 101.14 101.15 0 55.76-45.37 101.14-101.14 101.14a100.49 100.49 0 0 1-71.52-29.63 100.48 100.48 0 0 1-29.63-71.51c0-27.02 10.52-52.42 29.63-71.52a100.48 100.48 0 0 1 71.52-29.63m0-4C47.65 100.78.57 147.86.57 205.93c0 58.06 47.08 105.14 105.15 105.14 58.06 0 105.14-47.07 105.14-105.14s-47.08-105.15-105.14-105.15Z"/><path fill="#FF8630" d="M105.72 272.75a66.9 66.9 0 0 1-66.83-66.83 66.9 66.9 0 0 1 66.83-66.82 66.9 66.9 0 0 1 66.82 66.82 66.9 66.9 0 0 1-66.82 66.83Z"/><path d="M105.72 141.1a64.9 64.9 0 0 1 64.82 64.82 64.9 64.9 0 0 1-64.82 64.83 64.9 64.9 0 0 1-64.83-64.83 64.9 64.9 0 0 1 64.83-64.82m0-4a68.82 68.82 0 1 0 0 137.65 68.82 68.82 0 0 0 0-137.65Z"/><path fill="#231f20" d="M135.9 205.93a30.18 30.18 0 1 1-60.37 0 30.18 30.18 0 0 1 60.37 0Z"/><path d="M204.14 91.03a2 2 0 0 1-2-2c0-9.08-7.32-16.49-16.38-16.63h-.28l-60.29-.17-.82.01a20.66 20.66 0 0 1-18.64-11.8 20.66 20.66 0 0 1-18.65 11.8l-61.16-.09A16.65 16.65 0 0 0 9.3 88.8a2 2 0 1 1-4 0 20.66 20.66 0 0 1 20.64-20.64l61.15.1c9.17 0 16.63-7.47 16.63-16.64v-2h4l.03 2c0 9 7.18 16.35 16.12 16.63l.53-.01 60.82.18h.3a20.66 20.66 0 0 1 20.63 20.63 2 2 0 0 1-2 2Z"/></svg>
