<svg xmlns="http://www.w3.org/2000/svg" xml:space="preserve" viewBox="0 0 1920 1080"><path fill="#C56FFF" d="M553.455 1001.306c-22.635-39.128-64.938-65.456-113.393-65.456s-90.758 26.327-113.393 65.456h226.786z"/><path d="M556.923 1003.306H323.201l1.737-3.002c23.712-40.989 67.825-66.453 115.124-66.453 47.298 0 91.412 25.464 115.125 66.453l1.736 3.002zm-226.732-4h219.742c-23.385-37.997-65.161-61.455-109.871-61.455-44.711 0-86.486 23.458-109.871 61.455zM301.902 1080H2a2 2 0 0 1 0-4h299.902a2 2 0 0 1 0 4zM1918 1080H980.047a2 2 0 0 1 0-4H1918a2 2 0 0 1 0 4z"/><path fill="#FFF" d="M1779.26 566.582a2 2 0 0 1-1.85-2.761c.05-.12.12-.239.189-.35.07-.11.15-.21.25-.3.46-.46 1.15-.681 1.8-.55.131.029.261.06.381.109.119.05.229.12.34.19.109.069.21.149.3.25.1.09.18.189.25.3.08.11.14.229.189.35.051.12.091.24.11.37a1.989 1.989 0 0 1-.55 1.811 1.973 1.973 0 0 1-1.409.581zM1771.689 553.411l.011.011a2.003 2.003 0 0 1 .689-2.75c.94-.561 2.17-.25 2.74.7.57.939.25 2.17-.69 2.739a2.007 2.007 0 0 1-2.75-.7zm-7.729-10.639c-.73-.83-.641-2.09.189-2.82a1.997 1.997 0 0 1 2.82.19c.73.83.64 2.09-.189 2.82-.381.33-.851.5-1.311.5-.559 0-1.119-.24-1.509-.69zm-9.521-9.08a2.002 2.002 0 0 1-.319-2.81 1.993 1.993 0 0 1 2.81-.32c.87.69 1.01 1.94.32 2.811-.391.489-.98.75-1.561.75a2.028 2.028 0 0 1-1.25-.431zm-10.989-7.23a2.005 2.005 0 0 1-.82-2.71 2.007 2.007 0 0 1 2.71-.82c.97.52 1.34 1.74.82 2.71a2.011 2.011 0 0 1-1.771 1.06 2.032 2.032 0 0 1-.939-.24zm-12.11-5.13a2.004 2.004 0 0 1-1.3-2.511 2.018 2.018 0 0 1 2.52-1.3c1.05.34 1.63 1.46 1.3 2.521a2.01 2.01 0 0 1-1.909 1.39c-.201 0-.411-.031-.611-.1zm-12.84-2.841a2.003 2.003 0 0 1-1.73-2.239 2.004 2.004 0 0 1 2.24-1.73 2.004 2.004 0 0 1-.25 3.99c-.09 0-.17-.01-.26-.021zm-15.25-2.38c-.061-1.1.79-2.04 1.89-2.109v.01c1.11-.061 2.05.78 2.11 1.89a2.009 2.009 0 0 1-1.9 2.101c-.03 0-.069.01-.1.01a2.008 2.008 0 0 1-2-1.902zM1691.84 519.951c-.13 0-.271-.02-.4-.04a2.522 2.522 0 0 1-.37-.119 2.313 2.313 0 0 1-.34-.181c-.109-.069-.21-.16-.31-.25-.38-.38-.58-.88-.58-1.41 0-.14.01-.27.04-.399.02-.12.06-.25.11-.37s.109-.24.18-.34c.08-.11.16-.22.25-.311.75-.75 2.08-.75 2.83 0 .09.091.18.2.25.311.069.1.14.22.189.34.04.12.08.25.11.37.03.13.04.26.04.399 0 .261-.05.521-.15.761-.1.239-.25.46-.439.649a1.762 1.762 0 0 1-.651.431c-.12.05-.24.09-.37.119-.129.021-.259.04-.389.04zM1684.67 505.502v.01a2.002 2.002 0 0 1 3.55-1.85c.51.98.13 2.19-.85 2.7a2.007 2.007 0 0 1-2.7-.86zm-7.65-11.75c-.689-.86-.54-2.12.32-2.811.86-.689 2.12-.55 2.81.32.69.86.54 2.12-.319 2.81-.37.29-.811.431-1.24.431-.591 0-1.171-.25-1.571-.75zm-9.76-10.08c-.84-.71-.94-1.98-.22-2.82.72-.84 1.979-.94 2.819-.22.841.71.94 1.979.221 2.819-.391.46-.95.7-1.521.7-.459 0-.919-.149-1.299-.479zm-11.49-8.021a2.007 2.007 0 0 1-.77-2.729c.55-.96 1.77-1.3 2.729-.761a2.011 2.011 0 0 1 .761 2.73 2.007 2.007 0 0 1-1.75 1.01c-.33 0-.66-.08-.97-.25zm-12.831-5.669a1.985 1.985 0 0 1-1.27-2.52 2.012 2.012 0 0 1 2.53-1.28 2.017 2.017 0 0 1 1.27 2.53c-.28.84-1.06 1.37-1.9 1.37-.21 0-.42-.03-.63-.1zm-43.979-2.63c-.28-1.06.35-2.16 1.42-2.44a1.984 1.984 0 0 1 2.439 1.421 1.99 1.99 0 0 1-1.409 2.439c-.17.05-.351.07-.521.07-.879 0-1.689-.59-1.929-1.49zm30.31-.451a1.993 1.993 0 0 1-1.739-2.229 2 2 0 0 1 2.229-1.74 2.004 2.004 0 0 1-.24 3.99c-.09 0-.17-.011-.25-.021zm-16.15-2.269a1.986 1.986 0 0 1 1.859-2.12 2 2 0 0 1 2.13 1.86 2.01 2.01 0 0 1-1.869 2.13h-.131c-1.049 0-1.92-.81-1.989-1.87zM1587.359 473.892c-.54 0-1.04-.2-1.42-.58a1.77 1.77 0 0 1-.25-.3 2.37 2.37 0 0 1-.3-.72 2.584 2.584 0 0 1 0-.781c.03-.13.07-.26.12-.38s.11-.24.18-.34c.07-.11.16-.221.25-.311.091-.09.2-.17.301-.25.109-.07.229-.13.35-.18s.25-.09.37-.11c.649-.14 1.34.08 1.81.54.09.09.17.2.25.311a1.894 1.894 0 0 1 .29.72c.03.12.04.26.04.39s-.01.26-.03.391a2.378 2.378 0 0 1-.3.72c-.069.11-.16.21-.25.3a1.987 1.987 0 0 1-1.411.58zM1471.39 479.102a1.99 1.99 0 0 1-1.29-2.51 1.985 1.985 0 0 1 2.51-1.29 1.984 1.984 0 0 1 1.29 2.51c-.27.85-1.05 1.39-1.899 1.39a1.885 1.885 0 0 1-.611-.1zm5.13-12.571a2.004 2.004 0 0 1-.71-2.739 2.001 2.001 0 0 1 3.45 2.029c-.37.63-1.04.98-1.729.98a1.944 1.944 0 0 1-1.011-.27zm102.549-5.309v.01a2.013 2.013 0 0 1 .461-2.8 1.998 1.998 0 1 1 2.329 3.25 1.985 1.985 0 0 1-2.79-.46zm-94.769-5.84a1.984 1.984 0 0 1-.1-2.82c.75-.81 2.02-.85 2.819-.1.811.75.851 2.02.101 2.83-.391.42-.931.63-1.46.63-.49 0-.98-.181-1.36-.54zm85.97-3.92h.011c-.83-.74-.9-2-.171-2.83.74-.82 2-.9 2.83-.16.82.729.891 2 .16 2.82a1.96 1.96 0 0 1-1.49.67c-.48 0-.95-.17-1.34-.5zm-75.96-5.261a1.996 1.996 0 0 1 .53-2.779c.91-.62 2.15-.391 2.77.52.631.91.391 2.16-.52 2.78-.34.24-.73.35-1.12.35-.64-.001-1.27-.3-1.66-.871zm65.25-2.359a2 2 0 0 1-.77-2.72 1.996 1.996 0 0 1 2.72-.771c.96.53 1.31 1.75.771 2.72a2.006 2.006 0 0 1-1.75 1.021c-.331 0-.661-.08-.971-.25zm-53.46-4.41c-.41-1.03.09-2.19 1.12-2.6 1.021-.41 2.19.1 2.59 1.119a2 2 0 0 1-1.12 2.601 2.09 2.09 0 0 1-.729.14 2 2 0 0 1-1.861-1.26zm41.339-.66a2.007 2.007 0 0 1-1.35-2.479 1.999 1.999 0 0 1 2.479-1.36 1.998 1.998 0 0 1 1.36 2.479c-.26.87-1.06 1.44-1.92 1.44a2.29 2.29 0 0 1-.569-.08zm-28.349-3.35c-.17-1.09.57-2.11 1.66-2.28v-.01c1.09-.17 2.12.58 2.29 1.67.17 1.09-.58 2.12-1.67 2.29-.101.02-.21.02-.311.02a1.99 1.99 0 0 1-1.969-1.69zm15.41 1.069a2 2 0 0 1-1.87-2.119 2.004 2.004 0 0 1 2.13-1.87c1.1.069 1.93 1.02 1.87 2.13a2.01 2.01 0 0 1-2 1.87c-.04 0-.09 0-.13-.011zM1469.319 492.592c-.529 0-1.029-.2-1.409-.58s-.591-.88-.591-1.42c0-.13.021-.26.04-.391a2.378 2.378 0 0 1 .301-.72c.069-.109.159-.21.25-.3.75-.75 2.09-.74 2.83 0 .369.37.579.88.579 1.41a2.012 2.012 0 0 1-.579 1.42 1.98 1.98 0 0 1-1.421.581zM1384.03 551.262h.01a1.98 1.98 0 0 1 1.899-2.09 1.985 1.985 0 0 1 2.091 1.89 2.003 2.003 0 0 1-1.9 2.1h-.1a2.007 2.007 0 0 1-2-1.9zm2.49-11.63a1.993 1.993 0 0 1-1.63-2.311 1.997 1.997 0 0 1 2.311-1.63 1.997 1.997 0 0 1 1.63 2.311 2.003 2.003 0 0 1-1.971 1.659c-.11 0-.23-.01-.34-.029zm3.33-13.11a2.004 2.004 0 0 1-1.08-2.62 1.997 1.997 0 0 1 3.69 1.53 2.005 2.005 0 0 1-1.851 1.24c-.25 0-.509-.05-.759-.15zm6.129-12.06a1.996 1.996 0 0 1-.489-2.79c.64-.9 1.88-1.12 2.79-.49.899.64 1.119 1.89.479 2.79-.39.55-1.01.85-1.64.85a2.04 2.04 0 0 1-1.14-.36zm8.611-10.44c-.75-.82-.69-2.08.13-2.83.82-.74 2.08-.68 2.83.141.74.81.68 2.079-.14 2.819h.01c-.39.351-.87.521-1.351.521a1.993 1.993 0 0 1-1.479-.651zm10.68-8.321c-.55-.96-.22-2.18.74-2.729.96-.55 2.18-.22 2.73.74.54.96.21 2.18-.75 2.729a1.973 1.973 0 0 1-2.72-.74zm12.23-5.79c-.33-1.05.27-2.17 1.319-2.489a1.986 1.986 0 0 1 2.5 1.319c.33 1.051-.27 2.17-1.319 2.5-.2.061-.4.091-.59.091-.86 0-1.65-.56-1.91-1.421zm28.439-.699a1.996 1.996 0 0 1-1.699-2.261 1.983 1.983 0 0 1 2.26-1.699 1.998 1.998 0 0 1 1.7 2.26c-.141.99-1 1.72-1.98 1.72-.09 0-.19-.01-.281-.02zm-15.239-2.25a1.997 1.997 0 0 1 1.84-2.15c1.1-.09 2.06.73 2.149 1.84a2.008 2.008 0 0 1-1.84 2.15h-.149c-1.04 0-1.92-.79-2-1.84zM1388.18 566.582c-.53 0-1.03-.21-1.41-.58-.189-.19-.33-.41-.43-.65-.11-.24-.16-.5-.16-.77 0-.131.021-.261.04-.391a2.362 2.362 0 0 1 .3-.72c.07-.11.16-.21.25-.3.09-.101.19-.181.3-.25.11-.07.23-.141.351-.19s.25-.08.37-.109a2.07 2.07 0 0 1 1.81.55c.09.09.17.189.25.3a2.364 2.364 0 0 1 .3.72 1.989 1.989 0 0 1-1.199 2.241 2.048 2.048 0 0 1-.772.149zM1763.29 564.582a2 2 0 1 1 4 0c0 1.109-.891 2-2 2-1.101 0-2-.89-2-2zm-13.96 0c0-1.101.89-2 2-2a2 2 0 0 1 0 4c-1.11 0-2-.89-2-2zm-13.971 0a2 2 0 0 1 2-2 2 2 0 1 1 0 4c-1.109 0-2-.89-2-2zm-13.969 0a1.999 1.999 0 1 1 4 0c0 1.109-.89 2-2 2a2 2 0 0 1-2-2zm-13.97 0a2.005 2.005 0 0 1 4.01 0 2 2 0 0 1-2 2c-1.111 0-2.01-.89-2.01-2zm-13.96 0c0-1.101.89-2 2-2a2 2 0 0 1 0 4c-1.11 0-2-.89-2-2zm-13.97 0a2 2 0 1 1 4 0c0 1.109-.891 2-2 2a2 2 0 0 1-2-2zm-13.97 0a1.999 1.999 0 1 1 4 0c0 1.109-.89 2-2 2a2 2 0 0 1-2-2zm-13.96 0a2 2 0 0 1 2-2 2 2 0 1 1 0 4c-1.11 0-2-.89-2-2zm-13.97 0a1.999 1.999 0 1 1 4 0c0 1.109-.89 2-2 2-1.111 0-2-.89-2-2zm-13.97 0a2 2 0 1 1 4 0c0 1.109-.891 2-2 2a2 2 0 0 1-2-2zm-13.96 0c0-1.101.89-2 2-2a2 2 0 0 1 0 4c-1.11 0-2-.89-2-2zm-13.971 0a2 2 0 0 1 2-2 2 2 0 1 1 0 4c-1.109 0-2-.89-2-2zm-13.969 0a1.999 1.999 0 1 1 4 0c0 1.109-.89 2-2 2a2 2 0 0 1-2-2zm-13.96 0c0-1.101.89-2 2-2a2 2 0 0 1 0 4c-1.111 0-2-.89-2-2zm-13.97 0c0-1.101.89-2 2-2a2 2 0 0 1 0 4c-1.11 0-2-.89-2-2zm-13.971 0a1.999 1.999 0 1 1 4 0c0 1.109-.89 2-2 2-1.109 0-2-.89-2-2zm-13.969 0a2.005 2.005 0 0 1 4.01 0 2 2 0 0 1-2 2c-1.11 0-2.01-.89-2.01-2zm-13.96 0a2 2 0 0 1 2-2 2 2 0 1 1 0 4c-1.11 0-2-.89-2-2zm-13.97 0c0-1.101.89-2 2-2a2 2 0 0 1 0 4c-1.11 0-2-.89-2-2zm-13.97 0a2 2 0 1 1 4 0c0 1.109-.891 2-2 2a2 2 0 0 1-2-2zm-13.96 0c0-1.101.89-2 2-2a2 2 0 0 1 0 4c-1.11 0-2-.89-2-2zm-13.97 0a2 2 0 0 1 2-2 2 2 0 1 1 0 4c-1.11 0-2-.89-2-2zm-13.97 0a1.999 1.999 0 1 1 4 0c0 1.109-.89 2-2 2a2 2 0 0 1-2-2zm-13.97 0a2.005 2.005 0 0 1 4.01 0 2 2 0 0 1-2 2c-1.111 0-2.01-.89-2.01-2zm-13.96 0c0-1.101.89-2 2-2a2 2 0 0 1 0 4c-1.11 0-2-.89-2-2zm-13.971 0a1.999 1.999 0 1 1 4 0c0 1.109-.89 2-2 2a2 2 0 0 1-2-2z"/><path fill="#C56FFF" d="M428.931 1000.306c-17.575-30.381-50.422-50.823-88.045-50.823s-70.47 20.442-88.045 50.823h176.09z"/><path d="M432.398 1002.306H249.374l1.736-3.002c18.491-31.965 52.892-51.821 89.776-51.821s71.285 19.856 89.776 51.821l1.736 3.002zm-176.018-4h169.012c-18.154-28.97-50.213-46.823-84.506-46.823s-66.351 17.853-84.506 46.823z"/><path fill="#C56FFF" d="M999.032 1001.306c-22.008-38.043-63.137-63.64-110.248-63.64s-88.24 25.597-110.248 63.64h220.496z"/><path d="M1002.5 1003.306H775.069l1.736-3.002c23.064-39.87 65.972-64.638 111.979-64.638 46.006 0 88.914 24.768 111.979 64.638l1.737 3.002zm-220.439-4h213.447c-22.736-36.874-63.308-59.64-106.724-59.64-43.416 0-83.987 22.766-106.723 59.64z"/><path fill="#FFF" d="M1571.1 576.661c-.53 0-1.04-.21-1.41-.59a1.94 1.94 0 0 1-.58-1.41c0-.13.011-.26.03-.39.03-.13.07-.25.12-.37s.11-.24.18-.35c.07-.11.16-.21.25-.3.091-.091.19-.181.301-.25.109-.07.229-.141.35-.19s.24-.08.37-.11a2.02 2.02 0 0 1 1.81.551c.37.37.58.89.58 1.409 0 .131-.01.271-.04.391-.02.13-.06.26-.109.38-.051.12-.11.229-.181.34-.08.11-.16.21-.25.3a1.996 1.996 0 0 1-1.421.589zM1432.21 697.571a2 2 0 0 1 2-2c1.109 0 2 .891 2 2a2 2 0 0 1-2 2c-1.101 0-2-.899-2-2zm-13.92 0a2 2 0 0 1 2-2c1.109 0 2 .891 2 2a2 2 0 0 1-2 2c-1.101 0-2-.899-2-2zm-13.92 0a2 2 0 0 1 2-2c1.109 0 2.01.891 2.01 2a2.005 2.005 0 0 1-4.01 0zm-13.91 0c0-1.109.89-2 2-2a2 2 0 0 1 2 2 1.999 1.999 0 1 1-4 0zm-13.92 0c0-1.109.89-2 2-2a2 2 0 0 1 2 2 1.999 1.999 0 1 1-4 0zm-13.92 0a2 2 0 0 1 2-2c1.109 0 2 .891 2 2a2 2 0 0 1-2 2c-1.1 0-2-.899-2-2zm-13.92 0a2 2 0 0 1 2-2c1.109 0 2 .891 2 2a2 2 0 0 1-2 2c-1.1 0-2-.899-2-2zm-13.92 0a2 2 0 0 1 2-2c1.109 0 2 .891 2 2a2 2 0 0 1-2 2c-1.1 0-2-.899-2-2zm-13.921 0a2 2 0 0 1 2-2c1.11 0 2 .891 2 2 0 1.101-.89 2-2 2-1.099 0-2-.899-2-2zm-13.909 0c0-1.109.89-2 1.989-2 1.11 0 2.011.891 2.011 2 0 1.101-.9 2-2.011 2a1.996 1.996 0 0 1-1.989-2zm-13.92 0c0-1.109.89-2 2-2a2 2 0 0 1 2 2 1.999 1.999 0 1 1-4 0zm-13.921 0c0-1.109.891-2 2-2a2 2 0 0 1 2 2 2 2 0 1 1-4 0zm-13.92 0c0-1.109.891-2 2-2a2 2 0 0 1 2 2 2 2 0 1 1-4 0zm-13.919 0a2 2 0 1 1 4 0c0 1.101-.899 2-2 2-1.1 0-2-.899-2-2zm-13.92 0a2 2 0 0 1 2-2c1.11 0 2 .891 2 2 0 1.101-.89 2-2 2-1.1 0-2-.899-2-2zm-13.92 0c0-1.109.9-2 2.01-2a2 2 0 0 1 2 2c0 1.101-.899 2-2 2-1.11 0-2.01-.899-2.01-2zm222.7.011a2.007 2.007 0 0 1 1.95-2.051 2.01 2.01 0 0 1 2.05 1.96 1.997 1.997 0 0 1-1.95 2.04h-.05a1.994 1.994 0 0 1-2-1.949zm13.88-.87c-.15-1.09.62-2.09 1.72-2.24h-.01c1.1-.15 2.1.62 2.25 1.72.15 1.09-.62 2.09-1.71 2.24h-.01c-.09.01-.17.02-.26.02a1.996 1.996 0 0 1-1.98-1.74zm13.7-2.38a2.005 2.005 0 0 1 1.46-2.431 2.008 2.008 0 0 1 2.42 1.46c.27 1.07-.38 2.16-1.45 2.42a2.005 2.005 0 0 1-2.43-1.449zm13.35-3.9c-.38-1.04.15-2.19 1.181-2.57a1.998 1.998 0 0 1 2.569 1.17 2.005 2.005 0 0 1-1.17 2.58c-.229.08-.47.12-.7.12-.81 0-1.581-.5-1.88-1.3zm12.83-5.361c-.5-.979-.1-2.189.891-2.68.989-.5 2.189-.1 2.68.88.5.99.1 2.19-.88 2.69-.29.149-.601.21-.9.21a1.995 1.995 0 0 1-1.791-1.1zm12.16-6.739c-.6-.921-.34-2.16.59-2.771.92-.6 2.16-.34 2.76.59.61.92.351 2.16-.58 2.76-.34.221-.72.33-1.09.33-.65 0-1.291-.319-1.68-.909zm11.349-8.04a2 2 0 1 1 3.091-2.54c.699.859.579 2.12-.271 2.819-.38.301-.83.45-1.27.45a2.009 2.009 0 0 1-1.55-.729zm10.401-9.24c-.79-.771-.8-2.04-.03-2.82.771-.79 2.04-.81 2.83-.04.78.78.8 2.04.03 2.83-.39.4-.91.601-1.43.601a1.993 1.993 0 0 1-1.4-.571zm9.33-10.32a1.99 1.99 0 0 1-.34-2.8 2.004 2.004 0 0 1 2.81-.35c.86.68 1.021 1.939.34 2.81-.399.5-.989.77-1.58.77-.43-.001-.86-.14-1.23-.43zm8.14-11.281a1.987 1.987 0 0 1-.64-2.75 1.997 1.997 0 0 1 2.75-.649c.939.58 1.229 1.82.64 2.76h.011a2.01 2.01 0 0 1-1.711.94c-.35 0-.72-.091-1.05-.301zm6.86-12.109c-1-.47-1.43-1.66-.95-2.66.47-1 1.67-1.43 2.67-.95.99.48 1.42 1.67.94 2.67a1.998 1.998 0 0 1-1.811 1.141 2.008 2.008 0 0 1-.849-.201zm5.47-12.79c-1.04-.36-1.6-1.5-1.24-2.54v-.01a1.997 1.997 0 0 1 2.54-1.23 1.993 1.993 0 0 1 1.24 2.54c-.28.83-1.06 1.35-1.89 1.35a2.137 2.137 0 0 1-.65-.11zm4.009-13.33a2.005 2.005 0 0 1-1.51-2.39 2.006 2.006 0 0 1 2.391-1.511 1.99 1.99 0 0 1 1.51 2.391c-.2.93-1.03 1.56-1.95 1.56-.14 0-.29-.01-.441-.05zm2.511-13.68a2.001 2.001 0 0 1-1.771-2.21l.01.01a1.997 1.997 0 0 1 2.2-1.771 1.992 1.992 0 0 1 1.771 2.2 2.002 2.002 0 0 1-1.99 1.79c-.07.001-.14-.009-.22-.019zM1437.35 654.571a2 2 0 0 1 2-2c1.11 0 2 .891 2 2 0 1.101-.89 2-2 2-1.1 0-2-.899-2-2zm-14.241 0c0-1.109.891-2 2-2a2 2 0 0 1 2 2 2 2 0 1 1-4 0zm-14.239 0c0-1.109.89-2 2-2a2 2 0 0 1 2 2 1.999 1.999 0 1 1-4 0zm-14.25 0a2 2 0 0 1 2-2c1.109 0 2 .891 2 2a2 2 0 0 1-2 2c-1.1 0-2-.899-2-2zm-14.24 0c0-1.109.89-2 2-2a2 2 0 0 1 2 2 1.999 1.999 0 1 1-4 0zm-14.25 0c0-1.109.9-2 2.01-2a2 2 0 0 1 2 2c0 1.101-.899 2-2 2-1.11 0-2.01-.899-2.01-2zm-14.24 0a2 2 0 1 1 4 0c0 1.101-.899 2-2 2-1.1 0-2-.899-2-2zm-14.241 0c0-1.109.891-2 2-2a2 2 0 0 1 2 2 2 2 0 1 1-4 0zm-14.25 0c0-1.109.9-2 2.011-2 1.1 0 1.989.891 1.989 2 0 1.101-.89 2-1.989 2a2.008 2.008 0 0 1-2.011-2zm-14.239 0a2 2 0 0 1 2-2c1.109 0 2 .891 2 2a2 2 0 0 1-2 2c-1.1 0-2-.899-2-2zm-14.24 0c0-1.109.89-2 2-2a2 2 0 0 1 2 2 1.999 1.999 0 1 1-4 0zm-14.24 0c0-1.109.89-2 1.99-2 1.11 0 2 .891 2 2 0 1.101-.89 2-2 2a1.996 1.996 0 0 1-1.99-2zm-14.25 0c0-1.109.89-2 2-2a2 2 0 0 1 2 2c0 1.101-.899 2-2 2-1.111 0-2-.899-2-2zm-14.241 0c0-1.109.891-2 2-2a2 2 0 0 1 2 2 2 2 0 1 1-4 0zm-14.25 0a2 2 0 0 1 2-2c1.11 0 2 .891 2 2 0 1.101-.89 2-2 2-1.099 0-2-.899-2-2zm-14.239 0a2 2 0 0 1 4 0c0 1.101-.9 2-2 2s-2-.899-2-2zm227.89-.239a1.998 1.998 0 0 1 1.77-2.2 2.007 2.007 0 0 1 2.21 1.77 2.015 2.015 0 0 1-1.779 2.21c-.07 0-.141.011-.21.011a2.005 2.005 0 0 1-1.991-1.791zm14.01-2.45a1.996 1.996 0 0 1 1.34-2.49c1.061-.31 2.17.29 2.49 1.34a2.006 2.006 0 0 1-1.34 2.5c-.19.05-.38.08-.57.08-.871 0-1.661-.56-1.92-1.43zm13.33-4.971a2.002 2.002 0 0 1 .86-2.699 2.02 2.02 0 0 1 2.7.87c.5.979.109 2.189-.87 2.689-.29.15-.601.22-.91.22a1.98 1.98 0 0 1-1.78-1.08zm12.2-7.329a1.984 1.984 0 0 1 .36-2.801c.869-.68 2.13-.51 2.8.36.68.88.51 2.13-.36 2.81-.36.28-.79.41-1.22.41-.601 0-1.19-.259-1.58-.779zm10.67-9.4c-.82-.74-.89-2.01-.15-2.83.73-.82 2-.89 2.82-.15.82.74.89 2 .15 2.83-.391.44-.94.66-1.49.66-.47 0-.95-.17-1.33-.51zm8.8-11.18a2 2 0 0 1 2.09-3.41 2 2 0 0 1 .66 2.75 2.02 2.02 0 0 1-1.71.95c-.35 0-.72-.091-1.04-.29zm6.629-12.591a1.99 1.99 0 0 1-1.149-2.579 1.99 1.99 0 0 1 2.58-1.15 1.99 1.99 0 0 1 1.149 2.58c-.3.8-1.06 1.29-1.87 1.29a1.94 1.94 0 0 1-.71-.141zm4.21-13.579c-1.08-.2-1.8-1.25-1.6-2.33a1.998 1.998 0 1 1 3.93.72 2 2 0 0 1-1.96 1.64c-.12-.001-.24-.01-.37-.03zM1523.109 576.661c-.27 0-.529-.05-.77-.149-.24-.101-.46-.25-.65-.44a1.95 1.95 0 0 1-.59-1.41c0-.13.021-.26.04-.39.03-.13.07-.25.12-.37s.11-.24.18-.35c.07-.11.16-.21.25-.3.091-.091.19-.181.301-.25.109-.07.229-.141.35-.19s.25-.08.37-.11a2.02 2.02 0 0 1 2.06.851c.07.109.13.229.181.35.05.12.09.24.109.37.03.13.04.26.04.39 0 .131-.01.271-.04.391-.02.13-.06.26-.109.38-.051.12-.11.229-.181.34-.08.11-.16.21-.25.3-.189.19-.41.34-.649.44a2.046 2.046 0 0 1-.762.147z"/><path d="M1035.966 253.472H802.223v-46h233.743c42.957 0 77.905-34.948 77.905-77.905h48c0 69.425-56.48 123.905-125.905 123.905zM777.961 349.934c44.085 1.242 69.493 25.335 72.739 72.444.251 3.641.354 71.337.354 71.337 0 47.48-30.121 67.276-67.276 67.276h-12.954c-22.623 0-40.963 18.34-40.963 40.963H550.067c-52.395 0-94.87 42.475-94.87 94.87s42.475 94.87 94.87 94.87H478.82c-35.086 0-63.529 28.443-63.529 63.529s28.443 63.529 63.529 63.529h-.389c0 47.249-38.303 85.553-85.553 85.553h486.517V949.008c0-30.253-24.719-54.237-54.972-54.305-40.974-.093-74.162-33.337-74.162-74.333 0-41.053 33.28-74.334 74.334-74.334h114.143c24.997 0 45.26-20.264 45.26-45.26h230.163v-48h-46.215c-9.565 0-17.154-7.831-17.128-17.396v-10.855c0-23.745 19.25-42.995 42.995-42.995h139.811c86.53 0 156.676-70.146 156.676-156.676v-31.278h-82.14v20.953c0 44.287-35.902 80.189-80.189 80.189h-300.566c-23.972 0-43.406 19.433-43.406 43.406 0 23.972 19.433 43.406 43.406 43.406H947.15c-24.691 0-44.707-20.016-44.707-44.707V429.508c0-66.203-38.965-124.872-119.872-124.872h-5.775l1.165 45.298z"/><path fill="#FFF" d="M705.619 279.662a71.976 71.976 0 0 1 6.267-29.43c-16.832-1.506-33.77-.3-50.197 3.68-31.64 7.665-59.628 25.369-80.938 51.2-16.126 19.547-22.661 41.785-28.426 61.405-10.08 34.304-18.042 61.399-74.03 80.062-48.548 16.182-77.16 13.089-110.291 9.509-32.429-3.505-69.186-7.478-123.543 8.225-49.309 14.245-88.201 47.659-112.47 96.631-17.809 35.936-21.512 68.158-21.661 69.513l41.549-50.927 14.115 57.05-.012.11c.029-.248 3.096-25.15 16.949-52.399 17.364-34.154 43.295-56.42 77.073-66.178 43.762-12.642 70.743-9.726 101.983-6.35 34.632 3.744 73.884 7.987 134.018-12.059 36.841-12.28 63.567-29.972 81.705-54.085 15.984-21.251 22.551-43.598 28.345-63.315 4.865-16.556 9.066-30.854 17.895-41.555 25.05-30.363 58.503-37.872 86.832-34.272a71.984 71.984 0 0 1-5.163-26.815z"/><path fill="#C56FFF" d="M1034.259 1001.306c-8.788-15.191-25.211-25.412-44.022-25.412s-35.235 10.221-44.022 25.412h88.044z"/><path d="M1037.727 1003.306h-94.98l1.737-3.002c9.423-16.29 26.956-26.409 45.753-26.409s36.329 10.119 45.754 26.409l1.736 3.002zm-87.896-4h80.811c-9.042-13.29-24.216-21.411-40.405-21.411s-31.364 8.121-40.406 21.411z"/><path fill="#C56FFF" d="M764.659 1000.786c-8.788-15.191-25.211-25.412-44.022-25.412s-35.235 10.221-44.023 25.412h88.045z"/><path d="M768.127 1002.785h-94.98l1.737-3.002c9.423-16.29 26.955-26.409 45.753-26.409s36.33 10.119 45.753 26.409l1.737 3.002zm-87.896-4h80.811c-9.042-13.29-24.216-21.411-40.405-21.411s-31.364 8.121-40.406 21.411z"/><path fill="#FFF" d="M991.948 1080H303.573c-41.738 0-75.694-33.956-75.694-75.694v-2h839.764v2c0 41.738-33.956 75.694-75.695 75.694zm-760.042-73.694c1.062 38.612 32.803 69.694 71.667 69.694h688.375c38.864 0 70.604-31.082 71.667-69.694H231.906z"/><path fill="#C56FFF" d="M1039.22 392.957c1.054-26.14 22.649-47.083 49.043-47.083a48.793 48.793 0 0 1 18.645 3.675l2.834 1.165-.074-3.062a94.769 94.769 0 0 1-.028-2.265c0-49.89 40.589-90.478 90.479-90.478 12.524 0 24.659 2.517 36.065 7.48l1.473.641.944-1.3c23.775-32.771 62.103-52.337 102.524-52.337 22.002 0 43.675 5.734 62.674 16.584l1.281.73 1.077-1.007c23.529-22.012 54.232-34.134 86.455-34.134a126.465 126.465 0 0 1 83.295 31.268c22.834 19.974 37.754 47.426 42.011 77.301l.248 1.737s2.771-.036 3.035-.036c56.279 0 105.884 37.338 121.543 91.12H1039.22z"/><path fill="#FFF" d="M1492.612 193.567a124.47 124.47 0 0 1 81.978 30.773c22.473 19.658 37.157 46.676 41.348 76.077l.495 3.469 3.504-.034.545-.008c.239-.004.478-.008.719-.008 54.494 0 102.629 35.565 118.848 87.12h-698.7c2.036-24.097 22.3-43.083 46.915-43.083a46.816 46.816 0 0 1 17.885 3.525l5.67 2.331-.151-6.129a90.545 90.545 0 0 1-.028-2.214c0-48.787 39.691-88.478 88.478-88.478 12.248 0 24.114 2.461 35.267 7.314l2.947 1.282 1.887-2.601c11.326-15.611 26.328-28.566 43.383-37.462 17.619-9.191 37.51-14.049 57.523-14.049 21.654 0 42.984 5.643 61.683 16.32l2.562 1.463 2.154-2.015c23.155-21.662 53.374-33.593 85.088-33.593m0-4c-33.959 0-64.836 13.17-87.822 34.673-18.772-10.718-40.502-16.846-63.666-16.846-42.837 0-80.775 20.952-104.144 53.162-11.295-4.915-23.759-7.646-36.863-7.646-51.074 0-92.478 41.404-92.478 92.478 0 .773.01 1.544.029 2.313a50.917 50.917 0 0 0-19.406-3.826c-28.212 0-51.083 22.871-51.083 51.083h708.2c-14.73-54.788-64.741-95.12-124.18-95.12-.435 0-.868.012-1.302.016-8.885-62.348-62.483-110.287-127.285-110.287zM1785.04 493.991a2.003 2.003 0 0 1-.04-2.83c.78-.789 2.04-.81 2.84-.029a2 2 0 0 1 .03 2.819c-.391.41-.91.61-1.431.61a1.982 1.982 0 0 1-1.399-.57zm9.56-10.259a2.005 2.005 0 0 1-.2-2.82c.721-.84 1.98-.93 2.82-.21.84.73.93 1.99.21 2.83-.399.45-.96.69-1.52.69-.46 0-.931-.16-1.31-.49zm8.96-10.781a1.993 1.993 0 0 1-.35-2.8c.68-.88 1.93-1.04 2.8-.359.88.68 1.04 1.93.36 2.81-.4.5-.99.771-1.58.771a2.033 2.033 0 0 1-1.23-.422zm8.379-11.229a2.004 2.004 0 0 1-.5-2.78 2.001 2.001 0 0 1 3.29 2.28 2 2 0 0 1-1.649.86c-.391 0-.79-.12-1.141-.36zm7.801-11.64a1.989 1.989 0 0 1-.641-2.75 1.987 1.987 0 0 1 2.75-.641c.94.58 1.22 1.811.641 2.75-.381.61-1.03.94-1.7.94-.36.001-.73-.089-1.05-.299zm7.18-12.02a2.005 2.005 0 0 1-.78-2.72c.53-.97 1.75-1.32 2.72-.78.96.53 1.32 1.75.78 2.71v.01c-.37.65-1.05 1.03-1.75 1.03a2 2 0 0 1-.97-.25zm6.55-12.39c-1-.48-1.41-1.67-.93-2.67.479-1 1.68-1.41 2.68-.92.99.479 1.4 1.67.92 2.67-.34.71-1.06 1.12-1.8 1.12-.29 0-.59-.06-.87-.2zm5.87-12.71a1.999 1.999 0 0 1-1.07-2.62 2.007 2.007 0 0 1 2.62-1.07 1.998 1.998 0 0 1 1.07 2.62 1.995 1.995 0 0 1-1.851 1.23c-.25 0-.519-.051-.769-.16zm5.16-13.011c-1.04-.38-1.59-1.52-1.21-2.56a1.997 1.997 0 1 1 3.76 1.34c-.29.82-1.06 1.33-1.88 1.33-.22.001-.45-.039-.67-.11zm4.41-13.29a2.007 2.007 0 0 1-1.36-2.479 2 2 0 1 1 3.839 1.12 1.997 1.997 0 0 1-1.92 1.439 2.18 2.18 0 0 1-.559-.08zm3.64-13.519a2.006 2.006 0 0 1-1.51-2.39v-.011a2.004 2.004 0 0 1 2.399-1.5c1.08.24 1.75 1.32 1.5 2.391-.21.93-1.04 1.56-1.949 1.56-.14 0-.29-.02-.44-.05zm2.82-13.71a1.99 1.99 0 0 1-1.641-2.3 2.003 2.003 0 0 1 2.301-1.65 2.004 2.004 0 0 1-.33 3.981 2.036 2.036 0 0 1-.33-.031zm1.989-13.85a2.005 2.005 0 0 1-1.779-2.2 2.005 2.005 0 0 1 2.2-1.78 2.001 2.001 0 0 1-.211 3.99c-.069 0-.139 0-.21-.01zm1.151-13.95c-1.1-.04-1.96-.98-1.91-2.08.05-1.101.98-1.96 2.08-1.91 1.11.05 1.96.98 1.92 2.08a2.01 2.01 0 0 1-2 1.92c-.031 0-.06 0-.09-.01zm-1.73-15.95a1.996 1.996 0 0 1 1.96-2.03 1.995 1.995 0 0 1 2.04 1.96 2.005 2.005 0 0 1-1.971 2.03h-.029c-1.091 0-1.99-.87-2-1.96zm-.66-13.861v-.01c-.08-1.1.739-2.06 1.84-2.14a2 2 0 0 1 2.149 1.84c.08 1.1-.739 2.06-1.84 2.14-.05.01-.109.01-.16.01-1.029 0-1.909-.8-1.989-1.84zm-1.471-13.809a2.003 2.003 0 0 1 1.71-2.25 2.002 2.002 0 0 1 2.25 1.71c.15 1.1-.619 2.11-1.71 2.26-.09.01-.18.01-.27.01a1.997 1.997 0 0 1-1.98-1.73zm-2.269-13.691c-.21-1.09.5-2.14 1.58-2.35 1.09-.21 2.14.5 2.35 1.58.21 1.09-.5 2.14-1.58 2.35-.13.021-.26.03-.38.03a2.007 2.007 0 0 1-1.97-1.61zm-3.021-13.559a2.004 2.004 0 0 1 1.45-2.43c1.07-.271 2.16.38 2.431 1.46a1.998 1.998 0 0 1-1.45 2.42 1.996 1.996 0 0 1-2.431-1.45zm-3.739-13.38a1.986 1.986 0 0 1 1.319-2.5c1.051-.32 2.181.27 2.5 1.319a1.994 1.994 0 0 1-1.319 2.5 1.99 1.99 0 0 1-2.5-1.319zm-4.431-13.181a2.008 2.008 0 0 1 1.2-2.56c1.04-.38 2.19.16 2.561 1.2.38 1.03-.15 2.18-1.19 2.56a2.004 2.004 0 0 1-2.571-1.2zm-5.049-12.949a1.99 1.99 0 0 1 1.08-2.61c1.01-.43 2.19.05 2.61 1.07a2.009 2.009 0 0 1-1.07 2.62c-.25.1-.52.149-.77.149a1.991 1.991 0 0 1-1.85-1.229zm-5.72-12.62c-.5-.98-.101-2.181.89-2.681.98-.5 2.19-.1 2.681.891.5.99.1 2.189-.891 2.68-.29.15-.59.22-.89.22a1.999 1.999 0 0 1-1.79-1.11zm-6.72-12.05a2 2 0 0 1 .659-2.75c.94-.58 2.171-.29 2.75.659.58.931.28 2.17-.659 2.74-.32.2-.69.3-1.04.3-.681 0-1.33-.339-1.71-.949zm-7.71-11.45a1.998 1.998 0 0 1 .42-2.8 2.01 2.01 0 0 1 2.8.43c.649.89.46 2.14-.43 2.79-.351.27-.771.39-1.181.39-.62 0-1.219-.281-1.609-.81zm-8.631-10.76c-.72-.841-.64-2.101.2-2.82a1.996 1.996 0 0 1 2.82.189 2 2 0 0 1-.2 2.83c-.37.32-.84.49-1.31.49a2.022 2.022 0 0 1-1.51-.689zm-9.469-10.08c-.79-.771-.8-2.04-.02-2.82.77-.79 2.04-.8 2.819-.021l.011-.01c.779.78.79 2.05.02 2.83-.39.4-.91.601-1.43.601-.5 0-1.01-.19-1.4-.58zm-10.22-9.36c-.84-.72-.94-1.98-.23-2.82a1.999 1.999 0 0 1 2.82-.22c.84.71.94 1.97.23 2.82-.4.46-.96.699-1.53.699-.46 0-.92-.159-1.29-.479zm-10.84-8.63a1.996 1.996 0 0 1-.41-2.8 1.997 1.997 0 1 1 3.2 2.39c-.391.53-.99.81-1.601.81a1.971 1.971 0 0 1-1.189-.4zm-11.391-7.92a2.013 2.013 0 0 1-.58-2.771 1.996 1.996 0 0 1 2.771-.58 1.983 1.983 0 0 1 .58 2.761c-.38.59-1.021.909-1.67.909a2.1 2.1 0 0 1-1.101-.319zm-11.83-7.26a2 2 0 0 1-.739-2.73 2.01 2.01 0 0 1 2.739-.74c.95.55 1.28 1.771.73 2.73-.37.649-1.04 1-1.73 1-.339 0-.689-.08-1-.26zm-12.219-6.62a2.008 2.008 0 0 1-.87-2.69 2 2 0 0 1 2.69-.88c.979.51 1.37 1.71.87 2.69a1.977 1.977 0 0 1-1.78 1.09c-.31 0-.611-.07-.91-.21zm-12.531-6.03a2.007 2.007 0 0 1-1-2.65 2.01 2.01 0 0 1 2.65-1 2.01 2.01 0 0 1 1 2.65c-.34.74-1.07 1.18-1.82 1.18a2.06 2.06 0 0 1-.83-.18zm-12.799-5.47a2.003 2.003 0 0 1-1.1-2.61 1.992 1.992 0 0 1 2.6-1.1 2.003 2.003 0 0 1 1.11 2.6 2.01 2.01 0 0 1-1.86 1.25c-.25 0-.5-.04-.75-.14zm-13.01-4.96a1.995 1.995 0 0 1-1.21-2.551 1.988 1.988 0 0 1 2.56-1.21 2.006 2.006 0 0 1 1.21 2.561c-.3.81-1.06 1.319-1.89 1.319-.22 0-.45-.039-.67-.119zm-13.2-4.471a2.004 2.004 0 0 1-1.29-2.52 1.99 1.99 0 0 1 2.51-1.29 2.003 2.003 0 0 1 1.301 2.51 2.018 2.018 0 0 1-1.91 1.39c-.201 0-.411-.029-.611-.09zm-13.34-4.029a1.998 1.998 0 0 1-1.38-2.471 1.998 1.998 0 0 1 2.47-1.38 2.003 2.003 0 0 1 1.38 2.47 2.006 2.006 0 0 1-1.93 1.45c-.18 0-.361-.019-.54-.069zm-13.5-3.631a1.982 1.982 0 0 1-1.45-2.42 2.003 2.003 0 0 1 2.431-1.46v.011a2.004 2.004 0 0 1 1.449 2.42 2.02 2.02 0 0 1-1.939 1.52c-.171 0-.331-.02-.491-.071zm-13.6-3.229a2.004 2.004 0 0 1 .88-3.911v.01a1.995 1.995 0 0 1 1.51 2.38 2.004 2.004 0 0 1-1.95 1.57c-.14.001-.29-.019-.44-.049zm-13.66-2.88a2.005 2.005 0 0 1-1.58-2.351 1.995 1.995 0 0 1 2.35-1.569c1.09.21 1.79 1.26 1.58 2.35a2.006 2.006 0 0 1-1.96 1.61c-.13 0-.26-.01-.39-.04zm-13.73-2.53a2.013 2.013 0 0 1-1.63-2.32 2.007 2.007 0 0 1 2.32-1.63c1.08.19 1.81 1.23 1.63 2.311a2.003 2.003 0 0 1-1.97 1.66c-.12-.001-.23-.012-.35-.021zm-13.76-2.23a2 2 0 0 1-1.69-2.271 2 2 0 0 1 2.28-1.68 2 2 0 0 1 1.681 2.27c-.15.99-1 1.71-1.98 1.71-.091 0-.192-.009-.291-.029zm-13.84-1.931a2.009 2.009 0 0 1-1.73-2.239 2.007 2.007 0 0 1 2.24-1.73h.01a2.003 2.003 0 0 1 1.721 2.24 2.004 2.004 0 0 1-1.98 1.75c-.091 0-.171-.01-.261-.021zM1383 79.932a2 2 0 0 1 1.74-2.23c1.1-.13 2.1.641 2.229 1.74.13 1.09-.64 2.09-1.74 2.23-.08.01-.16.02-.239.02-1 0-1.86-.741-1.99-1.76zm197.55 1.519a1.995 1.995 0 1 1 .429-3.97 1.992 1.992 0 0 1 1.771 2.2 1.991 1.991 0 0 1-1.98 1.78 1.35 1.35 0 0 1-.22-.01zm-183.611-3.009c-.1-1.1.71-2.069 1.811-2.17v-.01c1.1-.101 2.069.72 2.17 1.82.1 1.1-.71 2.069-1.811 2.17-.06 0-.119.01-.18.01a2 2 0 0 1-1.99-1.82zm169.701 1.62c-1.1-.1-1.91-1.08-1.81-2.18a2 2 0 0 1 2.18-1.811c1.1.101 1.91 1.08 1.8 2.181a1.991 1.991 0 0 1-1.99 1.819c-.06 0-.12-.009-.18-.009zm-155.741-2.79c-.09-1.11.74-2.06 1.851-2.149v.01c1.1-.08 2.05.74 2.14 1.85a1.993 1.993 0 0 1-1.85 2.13v.011h-.15a1.995 1.995 0 0 1-1.991-1.852zm141.811 1.639h.01a1.988 1.988 0 0 1-1.85-2.14 1.996 1.996 0 0 1 2.14-1.85c1.1.08 1.93 1.04 1.85 2.14a2.014 2.014 0 0 1-2 1.86c-.05.001-.1-.01-.15-.01zm-127.84-2.59a1.998 1.998 0 0 1 1.88-2.109c1.1-.07 2.05.779 2.109 1.88.07 1.1-.77 2.05-1.88 2.109h-.109a2.002 2.002 0 0 1-2-1.88zm113.89 1.681a2.002 2.002 0 0 1 .23-4 2.015 2.015 0 0 1 1.89 2.109 2.013 2.013 0 0 1-2 1.891h-.12zm-99.901-2.42a2.003 2.003 0 0 1 1.91-2.091 1.999 1.999 0 0 1 2.08 1.91 2 2 0 0 1-1.91 2.09h-.08c-1.069 0-1.96-.84-2-1.909zm84.021-.35a2.007 2.007 0 0 1 2.08-1.92 2.01 2.01 0 0 1 1.92 2.09 1.998 1.998 0 0 1-2.08 1.91 2 2 0 0 1-1.92-2.08zm-70.03-.201a2 2 0 0 1 1.94-2.06c1.1-.03 2.02.84 2.06 1.939a2.008 2.008 0 0 1-1.939 2.061h-.061a2 2 0 0 1-2-1.94zm57.969 1.811a2 2 0 0 1-1.939-2.061 1.99 1.99 0 0 1 2.05-1.939c1.101.03 1.97.939 1.95 2.05a2.002 2.002 0 0 1-2 1.95h-.061zm-43.969-2.16a2.001 2.001 0 0 1 1.97-2.04v.01a1.996 1.996 0 0 1 2.03 1.96 1.998 1.998 0 0 1-1.97 2.03h-.03c-1.09 0-1.98-.87-2-1.96zm29.99 1.889a2 2 0 0 1-1.98-2.02 2.01 2.01 0 0 1 2.03-1.98 2 2 0 0 1 1.97 2.03 1.993 1.993 0 0 1-2 1.97h-.02zm-15.99-2.049a1.999 1.999 0 1 1 4-.01c0 1.1-.89 2-1.99 2a2 2 0 0 1-2.01-1.99z"/><path fill="#FFF" d="M1306.398 273.736a2 2 0 0 1-1.729-3.002c6.874-11.882 19.663-19.263 33.375-19.263a38.514 38.514 0 0 1 31.948 16.987 1.999 1.999 0 1 1-3.314 2.238 34.521 34.521 0 0 0-28.634-15.226c-12.289 0-23.751 6.616-29.912 17.267a1.998 1.998 0 0 1-1.734.999zM1188.109 358.303a1.998 1.998 0 0 1-1.84-2.78 83.201 83.201 0 0 1 76.769-50.886c32.89 0 62.783 19.421 76.158 49.477a2 2 0 0 1-3.655 1.627c-12.733-28.614-41.192-47.104-72.504-47.104a79.21 79.21 0 0 0-73.085 48.444 2 2 0 0 1-1.843 1.222zM1605.321 347.271c-12.507-18.515-33.296-29.567-55.61-29.567-4.577 0-9.093.477-13.49 1.386a1.97 1.97 0 0 0-.149-.574c-13.375-30.056-43.269-49.477-76.158-49.477-33.561 0-63.694 19.974-76.769 50.886a1.999 1.999 0 1 0 3.683 1.558 79.209 79.209 0 0 1 73.085-48.444c31.262 0 59.678 18.432 72.441 46.969-16.936 4.565-31.744 15.683-40.736 31.228a1.999 1.999 0 1 0 3.462 2.002c11.251-19.45 32.185-31.533 54.63-31.533 20.983 0 40.533 10.395 52.296 27.806a2 2 0 0 0 3.315-2.24z"/><path fill="#C56FFF" d="M968.987 128.211a59.611 59.611 0 0 1-1.767-14.39c0-32.851 26.727-59.577 59.577-59.577a59.334 59.334 0 0 1 21.077 3.849 1.993 1.993 0 0 0 1.772-.177 2 2 0 0 0 .928-1.521c1.276-14.799 8.014-28.517 18.972-38.625C1080.57 7.601 1094.906 2 1109.914 2a59.508 59.508 0 0 1 54.86 36.309 2.004 2.004 0 0 0 2.719 1.015c9.99-4.883 20.724-7.358 31.902-7.358 32.042 0 60.737 21.455 69.783 52.176a2.003 2.003 0 0 0 2.382 1.38 73.147 73.147 0 0 1 16.888-1.991c29.273 0 55.89 17.837 67.132 44.682H968.987z"/><path fill="#FFF" d="M1109.914 4a57.512 57.512 0 0 1 53.019 35.09 4.003 4.003 0 0 0 5.439 2.031c9.714-4.748 20.152-7.156 31.024-7.156 15.585 0 30.363 4.969 42.737 14.371 11.978 9.1 20.901 22.016 25.128 36.369a4.002 4.002 0 0 0 4.762 2.762 71.077 71.077 0 0 1 16.426-1.938c14.72 0 28.829 4.477 40.801 12.946 10.107 7.15 18.065 16.661 23.259 27.736H970.573a57.587 57.587 0 0 1-1.352-12.39c0-31.748 25.829-57.577 57.577-57.577a57.348 57.348 0 0 1 20.37 3.719 4.004 4.004 0 0 0 3.546-.355 3.996 3.996 0 0 0 1.855-3.042c1.233-14.301 7.744-27.557 18.335-37.327C1081.556 9.412 1095.41 4 1109.914 4m0-4c-32.203 0-58.615 24.724-61.331 56.223a61.407 61.407 0 0 0-21.786-3.978c-34.008 0-61.577 27.569-61.577 61.577 0 5.678.784 11.17 2.223 16.39h391.077c-10.582-28.428-37.958-48.682-70.073-48.682a74.88 74.88 0 0 0-17.351 2.046c-9.124-30.985-37.762-53.61-71.702-53.61-11.76 0-22.882 2.723-32.781 7.562C1157.248 15.47 1135.388 0 1109.914 0z"/><path fill="#FFF" d="M1189.938 85.394c-8.904-20.009-28.806-32.938-50.701-32.938a55.388 55.388 0 0 0-50.977 33.581 38.484 38.484 0 0 0-14.692-2.925c-13.712 0-26.5 7.381-33.374 19.264a1.999 1.999 0 1 0 3.462 2.002c6.161-10.649 17.622-17.266 29.911-17.266a34.52 34.52 0 0 1 28.635 15.225 2 2 0 1 0 3.314-2.238 38.569 38.569 0 0 0-13.639-12.355 51.396 51.396 0 0 1 47.359-31.288c20.317 0 38.784 11.997 47.047 30.565a2.001 2.001 0 0 0 3.655-1.627z"/><path d="M219.967 514.69a19.153 19.153 0 0 1 3.41-2.468c5.391-3.083 9.934-2.934 11.788.309s-.321 7.233-5.712 10.316c-5.391 3.082-9.934 2.934-11.788-.309-1.072-1.875-.844-3.924.573-5.979-1.116-.139-2.082-.831-2.618-1.769-.604-1.055-.643-2.483.06-3.61-2.283-.095-4.292-1.07-5.41-3.023-1.988-3.477.143-7.909 4.322-10.3 1.172-.67 2.439-1.083 3.655-1.312 1.501-.911 5.341-3.262 6.552-3.954.859-.491 1.535-.308 1.892.317.379.664.196 1.34-.664 1.831-.625.357-2.171 1.189-3.739 1.982 1.435.424 2.613 1.306 3.372 2.634 1.988 3.477-.142 7.909-4.322 10.299a12.356 12.356 0 0 1-3.253 1.29c-.72.826-.764 1.837-.317 2.618.424.743 1.216 1.222 2.199 1.128zm3.349-13.995c-1.318-2.305-4.438-2.594-7.563-.807s-4.458 4.623-3.14 6.928c1.318 2.305 4.438 2.594 7.563.807s4.459-4.623 3.14-6.928zm9.505 13.175c-1.072-1.875-4.337-1.874-8.283.383-3.945 2.256-5.602 5.069-4.53 6.944s4.337 1.874 8.283-.382c3.945-2.256 5.602-5.07 4.53-6.945zM257.357 500.056c.232.729-.089 1.352-1.032 1.651l-15.222 4.849c-.943.3-1.565-.021-1.797-.75-.218-.687.103-1.309 1.046-1.609 1.158-.368 5.229-1.523 7.344-2.149l-4.425-13.893c-1.916.657-6.077 2.124-6.806 2.356-.943.301-1.565-.021-1.797-.75-.219-.686.103-1.308 1.046-1.607l8.018-2.555c.857-.273 1.536.078 1.809.936l4.685 14.707c1.144-.412 4.19-1.523 5.348-1.893.943-.301 1.565.021 1.783.707zm-18.345-20.084c-.464-1.458.364-2.714 1.907-3.205 1.543-.492 2.945.053 3.41 1.512.464 1.457-.364 2.713-1.908 3.205-1.544.491-2.945-.055-3.409-1.512zM279.418 478.388c.147.751-.243 1.332-1.215 1.523-1.325.26-6.782 1.193-8.734 1.53l1.629 8.302c.884 4.504 2.697 6.029 5.832 5.414 1.192-.234 2.368-.787 2.979-1.182.858-.535 1.212-.834 1.83-.955s1.191.225 1.321.887c.156.795-.252 1.288-1.26 1.99-.85.58-2.626 1.342-4.393 1.688-5.034.988-7.709-1.192-8.905-7.286l-1.638-8.347c-1.316.305-3.896.949-5.176 1.199-.972.191-1.553-.199-1.7-.949-.139-.707.252-1.288 1.223-1.479l5.211-1.023-1.3-6.623c-.173-.884.208-1.509 1.048-1.674.75-.146 1.384.279 1.558 1.162l1.3 6.624 8.699-1.708c.972-.19 1.553.201 1.691.907zM335.893 493.517c-.043.764-.564 1.23-1.553 1.176l-16.087-.896c-.989-.055-1.456-.576-1.413-1.341.04-.719.562-1.186 1.551-1.13 1.348.074 3.408.324 4.753.444l.811-14.56c-1.261-.025-3.47-.013-4.773-.086-.988-.055-1.455-.576-1.413-1.34.04-.72.562-1.187 1.55-1.131l5.977.332c.899.051 1.408.619 1.358 1.519l-.072 1.304c1.249-2.186 3.91-3.028 6.247-2.898 1.438.08 3.26.543 4.469 1.512.562.437.806.9.773 1.484-.042.765-.654 1.227-1.283 1.191-.674-.037-1.198-.338-1.72-.682-.869-.59-1.882-1.007-3.141-1.076-3.235-.181-5.462 2.58-5.685 6.58l-.446 7.998c2.025.068 7.021.211 8.683.304.987.055 1.454.577 1.414 1.296zM343.78 486.058c.643-5.949 5.562-9.582 11.244-8.968 5.503.595 9.436 4.822 8.846 10.28-.092.85-.557 1.389-1.631 1.272l-15.793-1.708c-.167 4.056 2.606 7.297 7.08 7.781 2.729.295 4.7-.352 6.625-1.411.526-.26.927-.624 1.599-.552.716.078 1.194.673 1.122 1.344-.073.672-.424.995-1.198 1.455-1.796 1.118-4.879 2.007-8.548 1.61-6.041-.652-9.985-5.197-9.346-11.103zm3.101-1.475 14.271 1.543c.064-3.523-2.905-6.198-6.395-6.575-3.489-.378-6.738 1.625-7.876 5.032zM374.869 496.194l-.115 1.706c-.061.897-.591 1.403-1.443 1.346-.763-.052-1.266-.626-1.206-1.524l1.834-27.248c.061-.898.591-1.404 1.443-1.347.763.052 1.266.626 1.206 1.524l-.789 11.717c1.533-2.017 4.072-2.883 6.631-2.711 5.477.369 8.877 4.791 8.481 10.672s-4.358 9.809-9.834 9.439c-2.559-.171-5.006-1.327-6.208-3.574zm13.304-6.048c.305-4.534-2.138-7.766-6.043-8.027-3.906-.264-6.76 2.611-7.065 7.145-.305 4.534 2.138 7.766 6.043 8.028 3.906.262 6.76-2.613 7.065-7.146zM399.365 494.417c-.132-3.822 3.564-6.291 8.151-6.449 2.518-.088 5.146.406 6.99 1.648l-.058-1.664c-.117-3.372-2.441-5.498-6.624-5.354-1.529.053-3.093.378-4.728 1.289-.53.289-1.234.764-1.819.783-.809.029-1.323-.494-1.349-1.258-.023-.675.501-1.143 1.34-1.623 1.147-.67 3.637-1.566 6.47-1.664 5.891-.204 9.132 2.385 9.315 7.691l.371 10.702c.031.899-.4 1.454-1.254 1.484-.764.026-1.323-.495-1.354-1.394l-.016-.45c-1.754 1.366-4.342 2.041-6.86 2.128-4.584.161-8.442-2.047-8.575-5.869zm15.469-.535c-.076-2.203-2.562-3.783-6.474-3.647s-6.283 1.884-6.207 4.087 2.562 3.783 6.474 3.647 6.283-1.884 6.207-4.087zM429.952 496.8c-1.009-.348-1.521-.725-1.636-1.482a1.23 1.23 0 0 1 1.057-1.434c.756-.115 1.409.287 2.277.61 1.641.616 3.922.953 6.37.582 4.093-.62 5.747-2.327 5.47-4.151-.317-2.092-2.376-2.463-6.919-2.411-4.996.075-8.693-.594-9.253-4.287-.586-3.871 3.106-5.933 7.245-6.56 2.581-.392 5.345-.174 7.355.479.67.217 1.08.519 1.181 1.186.101.668-.301 1.32-1.057 1.436-.489.074-1.012-.074-1.44-.191-1.997-.562-3.717-.803-5.764-.492-3.204.485-5.184 1.832-4.901 3.701.304 2.002 2.941 2.285 6.804 2.246 5.728-.049 8.782.58 9.349 4.318.58 3.826-2.676 6.368-7.704 7.131-3.294.497-6.219.122-8.434-.681zM453.965 484.513c-1.5-5.794 1.819-10.93 7.352-12.361 5.358-1.387 10.531 1.179 11.907 6.493.214.827-.031 1.495-1.077 1.767l-15.378 3.98c1.276 3.854 5.015 5.906 9.372 4.779 2.657-.688 4.272-1.99 5.699-3.66.4-.43.647-.912 1.301-1.08.697-.182 1.355.207 1.524.859.169.654-.045 1.082-.607 1.785-1.285 1.68-3.855 3.601-7.428 4.525-5.881 1.522-11.176-1.337-12.665-7.087zm2.381-2.476 13.896-3.597c-1.184-3.319-4.907-4.772-8.305-3.893-3.398.88-5.73 3.901-5.591 7.49zM508.853 463.107c-.394-.758-.062-1.488.656-1.861l8.909-4.625c.719-.373 1.546-.244 1.919.475s.002 1.47-.717 1.843l-8.908 4.624c-.719.372-1.485.263-1.859-.456zM533.093 449.071c-.529-.672-.341-1.449.296-1.951l7.884-6.21c.637-.501 1.473-.53 1.975.106.501.637.277 1.443-.359 1.944l-7.884 6.21c-.637.502-1.411.538-1.912-.099zM554.103 435.046c-4.586-3.63-5.138-9.748-1.536-14.299s9.683-5.418 14.269-1.788 5.138 9.747 1.536 14.298-9.683 5.419-14.269 1.789zm11.029-13.936c-3.492-2.764-8.084-2.037-10.625 1.173s-2.194 7.847 1.299 10.61c3.492 2.765 8.084 2.038 10.625-1.172 2.541-3.21 2.194-7.845-1.299-10.611zM586.103 401.567l-8.973-4.491c-4.024-2.014-6.6-.688-7.91 1.928-1.43 2.857-1.009 5.836 3.055 7.87l8.933 4.472c.805.402 1.066 1.086.684 1.852-.342.684-1.067.925-1.872.521l-15.451-7.734c-.805-.402-1.066-1.087-.684-1.852.342-.684 1.067-.925 1.872-.521l1.167.584c-1.166-2.094-.823-4.488.285-6.701 2.014-4.023 5.758-5.471 10.586-3.055l9.496 4.754c.805.402 1.066 1.088.683 1.852-.342.682-1.066.924-1.871.521zM580.949 365.509c.729.232 1.049.855.748 1.799-.412 1.285-2.228 6.516-2.874 8.389l8.058 2.578c4.372 1.4 6.582.548 7.556-2.496.37-1.156.454-2.453.403-3.178-.055-1.01-.146-1.465.046-2.064s.771-.935 1.415-.729c.771.246 1.006.842 1.135 2.064.098 1.023-.093 2.947-.642 4.661-1.563 4.886-4.765 6.177-10.68 4.284l-8.101-2.592c-.369 1.299-1.05 3.869-1.447 5.111-.302.943-.924 1.264-1.653 1.031-.686-.22-1.006-.842-.705-1.785l1.619-5.058-6.429-2.058c-.857-.274-1.221-.91-.96-1.725.233-.729.912-1.078 1.77-.805l6.429 2.059 2.703-8.444c.301-.941.923-1.262 1.609-1.042zM590.812 360.31c-5.526-1.919-8.062-7.514-6.158-12.998 1.904-5.484 7.36-8.306 12.887-6.388 5.526 1.919 8.062 7.515 6.158 12.998-1.904 5.483-7.36 8.306-12.887 6.388zm5.829-16.793c-4.208-1.46-8.306.738-9.648 4.606s.512 8.132 4.72 9.593 8.306-.737 9.648-4.605c1.343-3.87-.512-8.133-4.72-9.594zM628.17 309.224c1.415-1.113 3.29-.984 4.347.359s.739 3.196-.675 4.309c-1.415 1.113-3.29.985-4.347-.359-1.057-1.344-.739-3.197.675-4.309zM651.022 295.79c1.662-.69 3.434-.062 4.09 1.517s-.148 3.278-1.81 3.969c-1.662.69-3.434.063-4.09-1.517-.656-1.578.148-3.277 1.81-3.969zM676.645 289.022c1.786-.226 3.328.851 3.542 2.547s-1.012 3.121-2.798 3.347c-1.786.225-3.328-.851-3.542-2.547-.214-1.698 1.012-3.122 2.798-3.347z"/><path fill="#FFF" d="M776.796 306.637h-2.227a22.052 22.052 0 0 1-13.41-4.524l-30.072 32.534c12.617 10.775 28.981 17.287 46.875 17.287l-1.166-45.297zM705.739 281.673a72.01 72.01 0 0 0 5.112 24.804c3.886 9.715 9.824 18.384 17.269 25.486l30.087-32.55a22.069 22.069 0 0 1-5.786-14.927v-2.643l-46.682-.17zM802.49 253.472l-.266-46-24.262-.082a71.91 71.91 0 0 0-31.593 7.272l21.03 40.603c3.321-1.704 5.395-1.793 9.398-1.793h25.693zM763.818 257.123l-21.085-40.569a72.597 72.597 0 0 0-30.777 33.677c-3.759 8.417-5.945 17.682-6.213 27.431l46.676.182c.002-9.227 3.837-16.583 11.399-20.721z"/><path fill="#C56FFF" d="m746.278 214.705 21.089 40.575.031-.015-21.03-40.603-.09.043zM509.082 896.112h-18.537c-20.906 0-37.914-17.008-37.914-37.914s17.008-37.914 37.914-37.914h130.913c16.145 0 29.28-13.135 29.28-29.28s-13.135-29.28-29.28-29.28h-71.731c-35.279 0-63.981-28.701-63.981-63.98s28.702-63.98 63.981-63.98h177.091c13.271 0 24.067-10.796 24.067-24.066 0-15.477 12.59-28.067 28.066-28.067h22.571c39.288 0 71.25-31.963 71.25-71.25v-34.148a2 2 0 0 1 4 0v34.148c0 41.493-33.757 75.25-75.25 75.25h-22.571c-13.27 0-24.066 10.797-24.066 24.067 0 15.476-12.591 28.066-28.067 28.066H549.727c-33.074 0-59.981 26.907-59.981 59.98s26.907 59.98 59.981 59.98h71.731c18.351 0 33.28 14.93 33.28 33.28s-14.93 33.28-33.28 33.28H490.545c-18.7 0-33.914 15.214-33.914 33.914s15.214 33.914 33.914 33.914h18.537a2 2 0 0 1 0 4z"/><path fill="#C56FFF" d="M619.137 794.694h-44.788a2 2 0 0 1 0-4h44.788a2 2 0 0 1 0 4zM688.419 922.089H487.384a2 2 0 0 1 0-4h201.035a2 2 0 0 1 0 4zM874.772 227.502H820.56a2 2 0 0 1 0-4h54.212a2 2 0 0 1 0 4zM1034.866 227.502h-128.47a2 2 0 0 1 0-4h128.471c41.715 0 92.671-33.995 92.671-73.671a2 2 0 0 1 4 0c0 19.994-11.532 39.566-32.472 55.113-19.025 14.125-43.024 22.558-64.2 22.558zM914.428 241.902h-26.083a2 2 0 0 1 0-4h26.083a2 2 0 0 1 0 4zM1031.008 241.902h-65.787a2 2 0 0 1 0-4h65.787a2 2 0 0 1 0 4zM874.772 445.149a2 2 0 0 1-2-2v-24.794c0-45.604-37.102-82.706-82.706-82.706a2 2 0 0 1 0-4c47.81 0 86.706 38.896 86.706 86.706v24.794a2 2 0 0 1-2 2zM844.099 982.895a2 2 0 0 1-2-2v-25.464c0-14.323-11.653-25.976-25.976-25.976-54.195 0-98.286-44.091-98.286-98.286v-16.447c0-55.1 44.827-99.927 99.926-99.927h65.021a2 2 0 0 1 0 4h-65.021c-52.894 0-95.926 43.032-95.926 95.927v16.447c0 51.989 42.296 94.286 94.286 94.286 16.529 0 29.976 13.447 29.976 29.976v25.464a2 2 0 0 1-2 2zM707.75 718.79a2 2 0 0 1-1.494-3.33c18.271-20.521 44.496-32.289 71.951-32.289 16.023 0 29.059-13.035 29.059-29.059 0-18.229 14.83-33.059 33.059-33.059h2.93c20.694 0 37.529-16.836 37.529-37.529a2 2 0 0 1 4 0c0 22.899-18.63 41.529-41.529 41.529h-2.93c-16.023 0-29.059 13.035-29.059 29.059 0 18.229-14.83 33.059-33.059 33.059-26.314 0-51.451 11.28-68.963 30.949-.395.444-.943.67-1.494.67z"/><path fill="#C56FFF" d="M621.426 730.795h-52.274c-21.111 0-38.287-17.176-38.287-38.287v-7.337a2 2 0 0 1 4 0v7.337c0 18.906 15.381 34.287 34.287 34.287h52.274c15.929 0 29.125-12.957 29.417-28.883.331-18.093 15.322-32.812 33.417-32.812h57.653c22.399 0 40.623-18.224 40.623-40.623a2 2 0 0 1 4 0c0 24.605-20.018 44.623-44.623 44.623H684.26c-15.929 0-29.126 12.957-29.417 28.884-.332 18.092-15.322 32.811-33.417 32.811zM628.925 863.359h-86.199a2 2 0 0 1 0-4h86.199c31.703 0 57.495-25.792 57.495-57.495v-45.54a2 2 0 0 1 4 0v45.54c-.001 33.909-27.587 61.495-61.495 61.495z"/><path fill="#C56FFF" d="M595.599 701.571H583.74a2 2 0 0 1 0-4h11.859c14.777 0 26.8-12.022 26.8-26.8a2 2 0 0 1 4 0c0 16.984-13.817 30.8-30.8 30.8zM588.259 989.288a2 2 0 0 1-2-2v-3.543c0-17.797 14.479-32.275 32.276-32.275h73.398c16.888 0 30.627-13.739 30.627-30.628 0-16.888-13.739-30.627-30.627-30.627h-59.984a2 2 0 0 1 0-4h59.984c19.094 0 34.627 15.533 34.627 34.627s-15.534 34.628-34.627 34.628h-73.398c-15.591 0-28.276 12.685-28.276 28.275v3.543a2 2 0 0 1-2 2zM496.7 989.288a2.001 2.001 0 0 1-.233-3.987c.442-.053 44.257-5.691 49.075-42.893a1.996 1.996 0 0 1 2.24-1.727 2 2 0 0 1 1.727 2.24c-5.222 40.317-52.1 46.296-52.573 46.352a1.72 1.72 0 0 1-.236.015zM1048.137 619.407h-144a2 2 0 0 1 0-4h144c16.022 0 29.059-13.036 29.059-29.06s-13.036-29.059-29.059-29.059h-3.389c-10.133 0-18.376-8.243-18.376-18.376s8.243-18.377 18.376-18.377h108.988a2 2 0 0 1 0 4h-108.988c-7.927 0-14.376 6.449-14.376 14.377 0 7.927 6.449 14.376 14.376 14.376h3.389c18.229 0 33.059 14.83 33.059 33.059-.001 18.23-14.831 33.06-33.059 33.06zM1446.609 486.726a2 2 0 0 1-1.761-2.943c8.353-15.613 12.768-33.289 12.768-51.116v-19.683a2 2 0 0 1 4 0v19.683c0 18.483-4.578 36.812-13.24 53.003a2.003 2.003 0 0 1-1.767 1.056z"/><path fill="#C56FFF" d="M1349.087 545.194h-243.915a2 2 0 0 1 0-4h243.915c28.989 0 56.243-11.289 76.741-31.787a2 2 0 1 1 2.828 2.828c-21.254 21.254-49.511 32.959-79.569 32.959z"/><path fill="#C56FFF" d="M1348.844 520.019h-147.673a2 2 0 0 1 0-4h147.673c19.183 0 39.576-9.392 55.95-25.766 16.375-16.375 25.767-36.768 25.767-55.95a2 2 0 0 1 4 0c0 42.457-43.259 85.716-85.717 85.716zM1109.124 678.93a2 2 0 0 1 0-4l79.624-.001a2 2 0 0 1 0 4l-79.624.001zM926.283 718.79h-14.241a2 2 0 0 1 0-4h14.241c9.887 0 17.931-8.044 17.931-17.931 0-5.919 2.321-11.466 6.537-15.62 4.137-4.077 9.589-6.311 15.384-6.311l.329.002 107.084-.001a2 2 0 0 1 0 4l-107.113.001c-4.912-.085-9.43 1.762-12.876 5.157a17.8 17.8 0 0 0-5.345 12.771c0 12.094-9.838 21.932-21.931 21.932zM871.702 681.807h-34.2a2 2 0 0 1 0-4h34.2c8.316 0 15.083-6.766 15.083-15.082 0-10.522 8.56-19.083 19.082-19.083h93.166a2 2 0 0 1 0 4h-93.166c-8.316 0-15.082 6.767-15.082 15.083-.001 10.521-8.561 19.082-19.083 19.082zM1086.163 647.642h-57.227a2 2 0 0 1 0-4h57.227c17.157 0 31.116-13.959 31.116-31.116V597.44c0-19.161 15.589-34.914 34.75-35.115h11.021a2 2 0 0 1 0 4h-11c-16.957.178-30.771 14.137-30.771 31.115v15.086c0 19.363-15.753 35.116-35.116 35.116zM899.953 696.324h-4.518a2 2 0 0 1 0-4h4.518c11.56 0 20.964-9.405 20.964-20.965a2 2 0 0 1 4 0c0 13.766-11.199 24.965-24.964 24.965zM1273.453 566.324h-81.317a2 2 0 0 1 0-4h81.317a2 2 0 0 1 0 4zM1342.065 566.583h-39.812a2 2 0 0 1 0-4h39.812a2 2 0 0 1 0 4zM801.311 995.601a2 2 0 0 1-2-2v-17.475c0-12.67-10.308-22.979-22.979-22.979h-30.313a2 2 0 0 1 0-4h30.313c14.876 0 26.979 12.103 26.979 26.979v17.475a2 2 0 0 1-2 2zM581.488 682.83c-8.002 0-14.512-5.409-14.512-12.059s6.51-12.059 14.512-12.059S596 664.122 596 670.772s-6.51 12.058-14.512 12.058zm0-20.117c-5.796 0-10.512 3.615-10.512 8.059s4.715 8.059 10.512 8.059S592 675.215 592 670.772s-4.716-8.059-10.512-8.059z"/><path fill="#FFF" d="M1393.91 100.422c-.53 0-1.04-.21-1.41-.59a1.372 1.372 0 0 1-.25-.301 1.728 1.728 0 0 1-.299-.71c-.03-.13-.04-.27-.04-.399 0-.53.21-1.04.59-1.41.74-.75 2.09-.74 2.819 0 .381.37.591.88.591 1.41 0 .54-.21 1.04-.591 1.41-.37.38-.881.59-1.41.59zM1380.68 94.642c-1-.46-1.45-1.64-.99-2.65a1.994 1.994 0 0 1 2.641-1 1.998 1.998 0 0 1 1 2.65 1.996 1.996 0 0 1-1.82 1.18 2.05 2.05 0 0 1-.831-.18zm-12.4-5.611a1.994 1.994 0 0 1-1-2.64 1.994 1.994 0 0 1 2.649-1c1 .45 1.45 1.64 1 2.64a2.02 2.02 0 0 1-1.83 1.181c-.269 0-.549-.061-.819-.181zM1356.7 83.602a1.973 1.973 0 0 1-1.66-.89 1.418 1.418 0 0 1-.19-.34c-.05-.12-.09-.25-.109-.37a1.99 1.99 0 0 1 .55-1.811 1.77 1.77 0 0 1 .65-.43c.121-.05.24-.09.37-.12.26-.05.521-.05.78 0a2.211 2.211 0 0 1 .72.3c.11.08.21.16.3.25.101.09.181.2.25.3.08.11.141.23.19.351s.09.25.11.37c.029.13.04.26.04.399 0 .13-.011.261-.04.391-.021.12-.061.25-.11.37-.05.119-.11.239-.19.34-.069.109-.149.21-.25.31-.382.379-.882.58-1.411.58zM1366.14 75.962c-.57-.95-.26-2.181.69-2.75.95-.561 2.18-.261 2.739.689.57.95.261 2.181-.689 2.75-.32.19-.67.28-1.021.28a2.016 2.016 0 0 1-1.719-.969zm11.15-6.681a2 2 0 0 1 .689-2.739 2.003 2.003 0 0 1 2.75.689c.561.95.261 2.18-.689 2.74-.33.189-.681.29-1.03.29-.68.001-1.34-.35-1.72-.98zM1390.17 63.582a2.017 2.017 0 0 1-1.42-.58 1.98 1.98 0 0 1-.58-1.42c0-.521.21-1.04.58-1.41.09-.09.2-.181.31-.25.101-.07.221-.13.34-.181.12-.05.25-.09.37-.119.261-.051.53-.051.79 0a2.378 2.378 0 0 1 .721.3c.109.069.21.16.3.25.37.37.59.89.59 1.41 0 .14-.021.27-.04.399-.03.13-.07.25-.11.37-.05.12-.12.24-.189.34-.07.11-.16.22-.25.311-.382.38-.882.58-1.412.58z"/></svg>