<svg xmlns="http://www.w3.org/2000/svg" xml:space="preserve" viewBox="0 0 1080 1080"><path fill="#FFF" d="M538.065 658.347c-.13 0-.261-.021-.391-.04a2.412 2.412 0 0 1-.72-.3 1.81 1.81 0 0 1-.3-.25c-.19-.19-.34-.41-.44-.65-.1-.24-.149-.5-.149-.76 0-.53.22-1.05.59-1.42.74-.74 2.09-.74 2.82 0a1.989 1.989 0 0 1 0 2.83c-.37.38-.88.59-1.41.59zM542.965 645.276a2.013 2.013 0 0 1-.79-2.72h.011a1.988 1.988 0 0 1 2.71-.78c.97.53 1.319 1.74.79 2.71a2.004 2.004 0 0 1-1.75 1.04c-.331 0-.661-.08-.971-.25zm7.42-11.99a1.996 1.996 0 0 1-.39-2.8c.67-.88 1.92-1.06 2.8-.39.88.66 1.061 1.91.391 2.8-.391.52-.99.79-1.601.79-.42.001-.84-.129-1.2-.4zm9.06-10.8a2.002 2.002 0 0 1 .02-2.83c.78-.78 2.051-.77 2.83.021.771.779.771 2.05-.02 2.83v-.011c-.391.391-.9.58-1.41.58-.51 0-1.03-.2-1.42-.59zm10.52-9.389c-.66-.88-.47-2.141.42-2.79a2 2 0 0 1 2.801.42c.649.88.47 2.14-.42 2.79-.36.27-.78.399-1.19.399a1.98 1.98 0 0 1-1.611-.819zm11.76-7.771a1.997 1.997 0 1 1 3.519-1.89 2 2 0 0 1-.82 2.71c-.3.16-.62.24-.939.24-.71.001-1.4-.39-1.76-1.06zm12.75-5.989a2.01 2.01 0 0 1 1.199-2.561c1.051-.38 2.19.16 2.57 1.2.37 1.04-.17 2.18-1.21 2.56a2 2 0 0 1-2.559-1.199zm13.5-4.08a2.002 2.002 0 0 1 1.56-2.36c1.08-.22 2.14.479 2.36 1.56a1.997 1.997 0 0 1-1.57 2.36 1.992 1.992 0 0 1-2.35-1.56zm29.85.04a1.998 1.998 0 0 1-1.81-2.171 1.998 1.998 0 1 1 3.98.36 2 2 0 0 1-1.99 1.82.988.988 0 0 1-.18-.009zm-15.91-2.12a1.994 1.994 0 0 1 1.89-2.101 1.987 1.987 0 0 1 2.101 1.88 1.994 1.994 0 0 1-1.88 2.11h-.111c-1.06 0-1.94-.82-2-1.889zM651.965 597.587a1.99 1.99 0 0 1-1.42-.591 1.893 1.893 0 0 1-.43-.649 1.98 1.98 0 0 1-.11-1.151c.021-.13.061-.26.11-.38s.11-.229.18-.34c.08-.11.16-.21.25-.3.101-.101.2-.181.311-.25a1.708 1.708 0 0 1 .72-.3c.25-.06.52-.06.78 0 .13.021.25.061.37.11.119.05.239.11.35.19.11.069.21.149.3.25.37.37.59.88.59 1.41 0 .529-.21 1.039-.59 1.409a1.985 1.985 0 0 1-1.411.592zM656.085 584.206a1.996 1.996 0 0 1-.99-2.649c.471-1 1.66-1.44 2.66-.98 1 .46 1.44 1.65.98 2.65a1.997 1.997 0 0 1-1.82 1.17c-.28-.001-.56-.06-.83-.191zm6.55-12.47a1.999 1.999 0 0 1 2.181-3.35c.93.6 1.189 1.84.59 2.76a2 2 0 0 1-1.68.91c-.371.001-.751-.1-1.091-.32zm8.29-11.399a1.997 1.997 0 0 1-.18-2.82c.73-.83 1.99-.91 2.82-.18.83.729.91 1.989.18 2.819-.39.45-.95.681-1.5.681-.47 0-.94-.16-1.32-.5zm9.841-10.091c-.721-.84-.62-2.1.22-2.819.84-.71 2.1-.61 2.819.229.721.84.62 2.101-.22 2.82-.38.32-.84.479-1.3.479a1.952 1.952 0 0 1-1.519-.709zm11.179-8.569a2.008 2.008 0 0 1 .63-2.761c.93-.59 2.17-.3 2.76.631.59.939.3 2.17-.63 2.76a1.992 1.992 0 0 1-2.76-.63zm12.3-6.87c-.45-1.01.01-2.19 1.021-2.63 1.01-.45 2.189 0 2.64 1.02.45 1-.01 2.18-1.021 2.63-.26.12-.54.17-.81.17-.77-.001-1.5-.44-1.83-1.19zm70.1-2.571a2.004 2.004 0 0 1-1.29-2.52 2.005 2.005 0 0 1 2.511-1.301 2.02 2.02 0 0 1 1.3 2.521 2.003 2.003 0 0 1-1.91 1.39c-.201 0-.401-.029-.611-.09zm-56.93-2.439a1.997 1.997 0 0 1 1.4-2.46 1.99 1.99 0 0 1 2.46 1.39c.29 1.06-.33 2.17-1.4 2.46a2.007 2.007 0 0 1-2.46-1.39zm43.52-.79a1.998 1.998 0 0 1-1.65-2.29 2.009 2.009 0 0 1 2.3-1.66 2.01 2.01 0 0 1 1.65 2.3c-.17.98-1.01 1.68-1.97 1.68a2.045 2.045 0 0 1-.33-.03zm-29.76-2.261a2 2 0 0 1 1.74-2.229h-.01c1.1-.141 2.1.64 2.24 1.74a2.007 2.007 0 0 1-1.74 2.229c-.08.01-.17.021-.25.021-.99 0-1.86-.74-1.98-1.761zm16.01 1.011a2 2 0 1 1 .08-4 2 2 0 0 1 1.96 2.04 1.998 1.998 0 0 1-2 1.96h-.04zM788.085 537.597c-.27 0-.53-.05-.77-.15-.24-.1-.46-.25-.65-.439-.189-.19-.33-.4-.43-.65a2.021 2.021 0 0 1 .43-2.18c.09-.09.2-.17.3-.25.11-.07.23-.13.351-.181a2.044 2.044 0 0 1 2.18.431c.09.1.17.199.25.31a2.211 2.211 0 0 1 .3.72c.021.131.03.261.03.391 0 .26-.05.52-.15.76-.1.24-.25.46-.43.65-.1.1-.2.18-.31.25-.101.08-.221.14-.341.189-.119.04-.25.08-.369.11-.131.018-.261.039-.391.039zM937.445 546.456a2.004 2.004 0 0 1 1.41-2.46 2.013 2.013 0 0 1 2.449 1.41c.29 1.07-.34 2.17-1.409 2.46-.17.04-.351.07-.521.07a2.002 2.002 0 0 1-1.929-1.48zm-4.78-12.96c-.47-1-.05-2.189.96-2.659.99-.48 2.18-.051 2.66.949.47 1 .04 2.19-.96 2.66-.271.13-.56.19-.85.19a1.994 1.994 0 0 1-1.81-1.14zm-139-8.729a1.996 1.996 0 0 1-.58-2.771 1.998 1.998 0 0 1 2.76-.58 2.003 2.003 0 0 1 .591 2.771c-.391.59-1.03.91-1.681.91-.38 0-.76-.111-1.09-.33zm132.01-3.191a2.001 2.001 0 0 1 3.261-2.319c.64.899.43 2.149-.471 2.79-.35.25-.76.369-1.16.369-.62 0-1.24-.29-1.63-.84zm-123.53-8.16a2.002 2.002 0 0 1-.08-2.829 2 2 0 0 1 2.819-.091c.811.761.851 2.03.091 2.83a1.98 1.98 0 0 1-1.46.63c-.49 0-.98-.18-1.37-.54zm114.56-2.34c-.79-.779-.8-2.04-.03-2.83.771-.79 2.04-.8 2.83-.029.78.779.8 2.04.021 2.83-.391.399-.91.6-1.42.6a1.98 1.98 0 0 1-1.401-.571zm-104.21-7.349c-.66-.89-.479-2.14.41-2.8.89-.66 2.14-.48 2.8.41.66.88.48 2.14-.41 2.8-.359.27-.779.39-1.189.39a1.992 1.992 0 0 1-1.611-.8zm93.53-1.43v.01a1.998 1.998 0 0 1-.521-2.78c.62-.92 1.87-1.15 2.78-.52.91.619 1.14 1.859.52 2.77a1.997 1.997 0 0 1-2.779.52zm-81.65-6.301a2.002 2.002 0 0 1 .9-2.68 1.99 1.99 0 0 1 2.68.9c.5.989.09 2.189-.89 2.68a2.008 2.008 0 0 1-2.69-.9zm69.6-.449a2.006 2.006 0 0 1-1-2.65 1.992 1.992 0 0 1 2.64-1c1.01.45 1.46 1.63 1.01 2.64a2.02 2.02 0 0 1-1.83 1.181 2.045 2.045 0 0 1-.82-.171zm-56.54-5.051a2.005 2.005 0 0 1 1.359-2.489 2 2 0 1 1 1.12 3.839c-.189.06-.38.08-.56.08a1.996 1.996 0 0 1-1.919-1.43zm43.49.53a2.018 2.018 0 0 1-1.46-2.43 2.017 2.017 0 0 1 2.431-1.46 2.017 2.017 0 0 1 1.46 2.43 2.015 2.015 0 0 1-1.94 1.521c-.161 0-.331-.021-.491-.061zm-29.659-3.639a1.986 1.986 0 0 1 1.77-2.2c1.1-.13 2.09.67 2.2 1.77a1.991 1.991 0 0 1-1.771 2.2c-.069.01-.14.01-.21.01a2.002 2.002 0 0 1-1.989-1.78zm16.019 1.5a1.998 1.998 0 0 1-1.86-2.141 1.995 1.995 0 0 1 2.13-1.859 2.01 2.01 0 0 1 1.86 2.14 2 2 0 0 1-2 1.86h-.13zM941.845 561.946a1.973 1.973 0 0 1-1.659-.89 1.403 1.403 0 0 1-.181-.34c-.05-.12-.09-.24-.12-.37-.02-.13-.04-.26-.04-.391 0-.13.021-.27.04-.399.03-.12.07-.25.12-.37s.11-.24.181-.34c.069-.12.159-.221.25-.311.09-.09.199-.18.3-.25.109-.069.229-.13.35-.18s.25-.09.37-.12c.26-.05.53-.05.79 0 .12.03.25.07.37.12s.24.11.35.18c.101.07.21.16.301.25.369.37.579.891.579 1.42 0 .131-.01.261-.029.391a2.285 2.285 0 0 1-.3.71c-.07.109-.16.21-.25.31-.382.38-.882.58-1.422.58zM1049.855 644.937a1.998 1.998 0 0 1-1.79-2.19 1.999 1.999 0 1 1 3.979.4c-.1 1.03-.97 1.8-1.99 1.8-.059-.001-.129-.001-.199-.01zm-1.589-15.42a1.994 1.994 0 0 1 1.859-2.13c1.101-.08 2.05.75 2.13 1.85a1.997 1.997 0 0 1-1.859 2.14h-.141a1.99 1.99 0 0 1-1.989-1.86zm-2.021-13.071c-.26-1.08.4-2.16 1.47-2.42 1.07-.26 2.15.4 2.41 1.47a1.987 1.987 0 0 1-1.47 2.42c-.15.04-.311.061-.47.061-.9 0-1.72-.621-1.94-1.531zm-4.21-12.54a2.004 2.004 0 0 1 1.04-2.63 1.997 1.997 0 0 1 2.63 1.04c.44 1.01-.03 2.19-1.04 2.63-.26.11-.53.17-.79.17-.78 0-1.51-.46-1.84-1.21zm-6.269-11.639a2.008 2.008 0 0 1 .579-2.771c.931-.6 2.16-.35 2.771.58.61.92.35 2.16-.58 2.771-.34.22-.72.319-1.09.319-.661 0-1.301-.31-1.68-.899zm-8.141-10.43c-.76-.811-.71-2.08.101-2.83.819-.75 2.079-.7 2.829.109.75.811.7 2.08-.109 2.83-.38.351-.87.53-1.36.53a1.948 1.948 0 0 1-1.461-.639zm-9.78-8.91a2.007 2.007 0 0 1-.369-2.811c.67-.87 1.93-1.04 2.8-.359.88.67 1.05 1.92.37 2.8-.391.51-.98.78-1.591.78-.42 0-.85-.141-1.21-.41zm-11.14-7.151a2 2 0 0 1-.83-2.7 2 2 0 0 1 2.7-.84c.979.521 1.35 1.73.83 2.71a1.996 1.996 0 0 1-1.76 1.061c-.32 0-.64-.07-.94-.231zm-12.18-5.16a2.004 2.004 0 0 1-1.28-2.529 1.999 1.999 0 0 1 2.521-1.28 2.009 2.009 0 0 1 1.279 2.53c-.27.84-1.06 1.38-1.899 1.38a2.14 2.14 0 0 1-.621-.101zm-41.59-4c-.21-1.08.5-2.13 1.59-2.34a2 2 0 0 1 2.34 1.58c.21 1.08-.5 2.13-1.58 2.35-.13.021-.26.03-.38.03-.94 0-1.78-.66-1.97-1.62zm28.71.981a2.005 2.005 0 0 1-1.69-2.271 2.005 2.005 0 0 1 2.271-1.689c1.09.16 1.85 1.18 1.689 2.27-.14.99-1 1.71-1.97 1.71-.1-.001-.2-.011-.3-.02zm-15.25-2.76a2 2 0 1 1 4-.091 1.998 1.998 0 0 1-1.95 2.04h-.05c-1.09 0-1.98-.859-2-1.949zM1047.555 658.347c-.13 0-.26-.021-.39-.04-.13-.03-.25-.07-.37-.12s-.24-.11-.35-.18a1.81 1.81 0 0 1-.3-.25c-.19-.19-.341-.41-.44-.65a2 2 0 0 1 .441-2.18c.739-.74 2.09-.74 2.83 0a2.025 2.025 0 0 1 .43 2.18c-.101.24-.24.46-.43.65a2.01 2.01 0 0 1-1.421.59zM1031.405 656.347c0-1.11.899-2 2-2 1.11 0 2 .89 2 2a2 2 0 0 1-2 2c-1.1 0-2-.901-2-2zm-14.15 0c0-1.11.891-2 2-2 1.101 0 2 .89 2 2a2 2 0 0 1-4 0zm-14.15 0c0-1.11.89-2 2-2a2 2 0 0 1 2 2c0 1.1-.9 2-2 2a2 2 0 0 1-2-2zm-14.16 0c0-1.11.899-2 2-2 1.109 0 2 .89 2 2a2 2 0 0 1-2 2c-1.1 0-2-.901-2-2zm-14.15 0a2 2 0 0 1 2-2c1.11 0 2 .89 2 2a2 2 0 0 1-2 2c-1.1 0-2-.901-2-2zm-14.15 0c0-1.11.89-2 2-2a2 2 0 0 1 2 2c0 1.1-.9 2-2 2a2 2 0 0 1-2-2zm-14.15 0c0-1.11.89-2 2-2a2 2 0 0 1 2 2c0 1.1-.9 2-2 2a2 2 0 0 1-2-2zm-14.16 0a2 2 0 0 1 2-2c1.11 0 2 .89 2 2a2 2 0 0 1-2 2c-1.1 0-2-.901-2-2zm-14.15 0c0-1.11.899-2 2-2 1.109 0 2 .89 2 2a2 2 0 0 1-2 2c-1.1 0-2-.901-2-2zm-14.15 0c0-1.11.89-2 2-2a2 2 0 0 1 2 2c0 1.1-.9 2-2 2a2 2 0 0 1-2-2zm-14.15 0c0-1.11.891-2 2-2 1.101 0 2 .89 2 2a2 2 0 0 1-4 0zm-14.16 0c0-1.11.899-2 2-2 1.109 0 2 .89 2 2a2 2 0 0 1-2 2c-1.1 0-2-.901-2-2zm-14.15 0c0-1.11.89-2 2-2 1.11 0 2 .89 2 2a2 2 0 0 1-4 0zm-14.15 0c0-1.11.891-2 2-2 1.101 0 2 .89 2 2a2 2 0 0 1-4 0zm-14.159 0c0-1.11.899-2 2-2 1.109 0 2 .89 2 2a2 2 0 0 1-2 2c-1.101 0-2-.901-2-2zm-14.151 0a2 2 0 0 1 2-2c1.11 0 2 .89 2 2a2 2 0 0 1-2 2c-1.099 0-2-.901-2-2zm-14.15 0c0-1.11.891-2 2-2 1.101 0 2 .89 2 2a2 2 0 0 1-4 0zm-14.15 0c0-1.11.89-2 2-2a2 2 0 0 1 2 2c0 1.1-.9 2-2 2a2 2 0 0 1-2-2zm-14.16 0c0-1.11.899-2 2-2 1.11 0 2 .89 2 2a2 2 0 0 1-2 2c-1.1 0-2-.901-2-2zm-14.15 0a2 2 0 0 1 2-2c1.11 0 2 .89 2 2a2 2 0 0 1-2 2c-1.1 0-2-.901-2-2zm-14.15 0c0-1.11.89-2 2-2a2 2 0 0 1 2 2c0 1.1-.9 2-2 2a2 2 0 0 1-2-2zm-14.15 0c0-1.11.89-2 2-2a2 2 0 0 1 2 2c0 1.1-.9 2-2 2a2 2 0 0 1-2-2zm-14.16 0a2 2 0 0 1 2-2c1.11 0 2 .89 2 2a2 2 0 0 1-2 2c-1.1 0-2-.901-2-2zm-14.15 0c0-1.11.899-2 2-2 1.109 0 2 .89 2 2a2 2 0 0 1-2 2c-1.1 0-2-.901-2-2zm-14.15 0c0-1.11.89-2 2-2a2 2 0 0 1 2 2c0 1.1-.9 2-2 2a2 2 0 0 1-2-2zm-14.15 0c0-1.11.891-2 2-2 1.101 0 2 .89 2 2a2 2 0 0 1-4 0zm-14.15 0c0-1.11.89-2 2-2 1.1 0 1.99.89 1.99 2 0 1.1-.891 2-1.99 2a2 2 0 0 1-2-2zm-14.16 0a2 2 0 0 1 2-2c1.11 0 2 .89 2 2a2 2 0 0 1-2 2c-1.1 0-2-.901-2-2zm-14.15 0c0-1.11.891-2 2-2 1.101 0 2 .89 2 2a2 2 0 0 1-4 0zm-14.15 0c0-1.11.89-2 2-2a2 2 0 0 1 2 2c0 1.1-.9 2-2 2a2 2 0 0 1-2-2zm-14.15 0c0-1.11.891-2 2-2 1.101 0 1.99.89 1.99 2 0 1.1-.89 2-1.99 2a2 2 0 0 1-2-2zm-14.16 0a2 2 0 0 1 2-2c1.11 0 2 .89 2 2a2 2 0 0 1-2 2c-1.1 0-2-.901-2-2zm-14.15 0a2 2 0 1 1 4 0c0 1.1-.9 2-2 2s-2-.901-2-2zm-14.15 0c0-1.11.891-2 2-2 1.101 0 2 .89 2 2 0 1.1-.899 2-2 2a2 2 0 0 1-2-2zm-14.16 0a2 2 0 0 1 2-2c1.11 0 2.011.89 2.011 2a2.007 2.007 0 0 1-4.011 0z"/><path d="M430.429 703.629h113.106c21.686 0 39.265-17.58 39.265-39.265H641.383c31.005 0 56.14-25.135 56.14-56.14v-10.01c0-20.6 16.7-37.3 37.3-37.3h-1.388c75.068 0 135.923-60.855 135.923-135.923v-27.135h-71.26v18.177c0 38.421-31.147 69.568-69.568 69.568H590.457c-20.797 0-37.657 16.859-37.657 37.657 0 20.797 16.859 37.657 37.656 37.657h-39.625c-21.421 0-38.785-17.365-38.785-38.785v-93.101c0-57.434-33.803-108.332-103.994-108.332h-5.01l1.011 39.297c38.246 1.077 60.288 21.98 63.104 62.848.218 3.159.307 61.888.307 61.888 0 41.191-26.131 58.365-58.365 58.365h-11.238c-19.627 0-35.537 15.911-35.537 35.537h-155.98c-45.455 0-82.304 36.849-82.304 82.304 0 45.455 36.849 82.304 82.304 82.304h-61.809c-30.439 0-55.114 24.676-55.114 55.114 0 30.439 24.676 55.114 55.114 55.114h-.338c0 27.083-14.506 50.778-36.173 63.74-23.848 14.266-38.048 40.398-38.048 68.188v37.638h496.978l-.794-41.153c-.501-25.936-21.462-46.802-47.386-47.198-5.866-.09-11.634-1.917-16.1-5.722a30.217 30.217 0 0 1-10.624-23.007v-25.918c0-25.888-21.181-47.618-47.069-47.432-25.764.185-48.051-14.744-58.543-36.445-3.811-7.883 1.964-17.041 10.72-17.041h278.247V737.29H430.429c-9.207 0-16.706-7.399-16.828-16.606-.126-9.382 7.445-17.055 16.828-17.055zM1080 1080H570.276a2 2 0 0 1 0-4H1080a2 2 0 0 1 0 4zM54.967 1080H0a2 2 0 0 1 0-4h54.967a2 2 0 0 1 0 4z"/><path fill="#FFF" d="M872.375 671.887c-.54 0-1.04-.21-1.42-.59a1.94 1.94 0 0 1-.58-1.41 1.998 1.998 0 0 1 .88-1.66c.11-.07.23-.13.351-.18.12-.051.239-.091.37-.12.26-.051.529-.051.779 0a2.184 2.184 0 0 1 .721.3c.109.07.22.16.31.25s.17.189.25.3c.07.11.13.23.18.35.051.12.09.24.11.37.03.13.04.261.04.391 0 .54-.2 1.04-.58 1.41a1.99 1.99 0 0 1-1.411.589zM753.955 777.116c0-1.109.89-2 2-2a2 2 0 0 1 2 2 1.999 1.999 0 1 1-4 0zm-13.75 0c0-1.109.89-2 2-2a2 2 0 0 1 2 2 1.999 1.999 0 1 1-4 0zm-13.75 0c0-1.109.89-2 2-2a2 2 0 0 1 2 2 1.999 1.999 0 1 1-4 0zm-13.75 0c0-1.109.89-2 2-2a2 2 0 0 1 2 2 1.999 1.999 0 1 1-4 0zm-13.75 0c0-1.109.89-2 2-2 1.1 0 1.99.891 1.99 2 0 1.101-.891 2-1.99 2-1.11 0-2-.899-2-2zm-13.76 0a2 2 0 0 1 2-2c1.109 0 2 .891 2 2a2 2 0 0 1-2 2c-1.1 0-2-.899-2-2zm82.51-.08a2 2 0 0 1 1.88-2.109c1.101-.07 2.05.77 2.11 1.88.07 1.1-.771 2.04-1.88 2.109h-.12a1.994 1.994 0 0 1-1.99-1.88zm13.67-1.42c-.21-1.09.51-2.14 1.59-2.34 1.09-.2 2.13.51 2.34 1.6.2 1.08-.51 2.131-1.6 2.33-.12.03-.25.04-.37.04a2 2 0 0 1-1.96-1.63zm13.37-3.139c-.34-1.05.24-2.18 1.29-2.521 1.05-.34 2.18.24 2.52 1.29a1.989 1.989 0 0 1-1.289 2.511c-.2.069-.41.1-.61.1a2.017 2.017 0 0 1-1.911-1.38zm12.88-4.811a1.99 1.99 0 0 1 .96-2.659c.99-.471 2.19-.04 2.66.96a2 2 0 0 1-1.81 2.849c-.75 0-1.47-.429-1.81-1.15zm12.15-6.39c-.59-.93-.311-2.17.62-2.76.93-.59 2.17-.311 2.76.62.59.93.32 2.17-.62 2.76a2 2 0 0 1-2.76-.62zm11.27-7.86a1.998 1.998 0 0 1 .271-2.819c.85-.7 2.109-.58 2.81.27.71.851.59 2.11-.27 2.811-.37.31-.82.46-1.271.46a2.016 2.016 0 0 1-1.54-.722zm10.2-9.22c-.81-.75-.84-2.02-.09-2.82.76-.81 2.02-.84 2.83-.09.8.761.84 2.03.08 2.83-.391.42-.92.63-1.45.63-.5 0-.99-.18-1.37-.55zm8.97-10.399a2.002 2.002 0 0 1-.43-2.801c.64-.89 1.9-1.09 2.79-.43.89.65 1.09 1.9.43 2.79-.39.54-1 .82-1.609.82a2.038 2.038 0 0 1-1.181-.379zm7.61-11.45a1.995 1.995 0 0 1-.78-2.721 1.982 1.982 0 0 1 2.71-.779c.971.529 1.32 1.75.79 2.71-.37.66-1.05 1.04-1.76 1.04-.32 0-.65-.08-.96-.25zm6.11-12.321a1.994 1.994 0 0 1-1.12-2.6 2.002 2.002 0 0 1 3.72 1.48v.01a2.021 2.021 0 0 1-1.86 1.261c-.25 0-.5-.051-.74-.151zm4.5-12.99a1.984 1.984 0 0 1-1.431-2.43 1.99 1.99 0 0 1 2.431-1.44 1.997 1.997 0 0 1 1.439 2.431 2.006 2.006 0 0 1-1.939 1.5c-.16 0-.33-.021-.5-.061zm2.831-13.449a1.997 1.997 0 1 1 .5-3.96 1.99 1.99 0 0 1 1.729 2.23 2.003 2.003 0 0 1-1.979 1.75 2.298 2.298 0 0 1-.25-.02zM755.355 739.477c0-1.11.89-2 1.989-2 1.11 0 2.011.89 2.011 2 0 1.1-.9 2-2.011 2a1.998 1.998 0 0 1-1.989-2zm-14 0c0-1.11.899-2 2.01-2 1.1 0 1.99.89 1.99 2 0 1.1-.891 2-1.99 2-1.11 0-2.01-.901-2.01-2zm-13.98 0c0-1.11.891-2 1.99-2 1.11 0 2.01.89 2.01 2 0 1.1-.899 2-2.01 2a1.999 1.999 0 0 1-1.99-2zm-14 0a2 2 0 0 1 2-2c1.11 0 2 .89 2 2a2 2 0 0 1-2 2c-1.1 0-2-.901-2-2zm-13.99 0a2 2 0 0 1 2-2c1.11 0 2 .89 2 2a2 2 0 0 1-2 2c-1.1 0-2-.901-2-2zm-13.99 0c0-1.11.899-2 2-2 1.109 0 2 .89 2 2a2 2 0 0 1-2 2c-1.1 0-2-.901-2-2zm83.94-.25a2.002 2.002 0 0 1 1.74-2.23 1.999 1.999 0 1 1 .479 3.971h.011c-.09.01-.17.02-.25.02a2 2 0 0 1-1.98-1.761zm13.71-2.71a1.996 1.996 0 1 1 3.78-1.29c.36 1.04-.2 2.18-1.24 2.53-.22.08-.439.109-.649.109a1.993 1.993 0 0 1-1.891-1.349zm12.85-5.491c-.57-.95-.261-2.17.689-2.74.95-.56 2.181-.25 2.74.7.56.95.26 2.17-.69 2.74-.33.189-.68.28-1.029.28a1.978 1.978 0 0 1-1.71-.98zm11.44-8.009a1.994 1.994 0 0 1 .12-2.82c.811-.75 2.08-.7 2.83.12.74.81.69 2.08-.12 2.82-.39.359-.87.529-1.36.529-.539 0-1.08-.22-1.47-.649zm9.57-10.17a2 2 0 0 1-.46-2.79 2.012 2.012 0 0 1 2.8-.46c.89.64 1.09 1.89.45 2.79-.391.55-1 .83-1.62.83-.41 0-.82-.12-1.17-.37zm7.29-11.91a2.002 2.002 0 0 1-1.021-2.64 1.995 1.995 0 0 1 2.641-1.021c1.01.44 1.46 1.63 1.02 2.64a2.02 2.02 0 0 1-1.84 1.19c-.27 0-.54-.059-.8-.169zm4.68-13.17a1.982 1.982 0 0 1-1.55-2.36 2.004 2.004 0 0 1 2.37-1.55c1.08.23 1.77 1.29 1.55 2.37-.2.939-1.03 1.59-1.96 1.59a2.075 2.075 0 0 1-.41-.05zM830.725 673.887c-.53 0-1.03-.21-1.41-.59a1.95 1.95 0 0 1-.59-1.41c0-.13.01-.261.04-.391.029-.13.06-.25.109-.37.05-.119.12-.239.19-.35.069-.11.149-.21.25-.3a1.77 1.77 0 0 1 .65-.43c.12-.051.24-.091.37-.12.26-.051.521-.051.78 0a2.21 2.21 0 0 1 .72.3c.11.07.21.16.311.25.09.09.17.189.239.3.08.11.141.23.19.35.05.12.09.24.11.37a1.98 1.98 0 0 1-.54 1.801 2.02 2.02 0 0 1-1.419.59z"/><path d="M504.835 274.572h-79.733v-39.907h79.733c37.267 0 67.586-30.319 67.586-67.586h41.642c0 60.229-48.999 107.493-109.228 107.493z"/><path fill="#FFF" d="M971.875 513.297a1.994 1.994 0 0 1-.32-2.811c.69-.86 1.95-1.01 2.811-.32.86.69 1.01 1.95.32 2.811-.4.5-.98.76-1.57.76a2.028 2.028 0 0 1-1.241-.44zm8.391-11.221a2.006 2.006 0 0 1-.54-2.779 2.006 2.006 0 0 1 2.779-.54c.91.619 1.16 1.859.54 2.779-.39.57-1.02.88-1.66.88a2 2 0 0 1-1.119-.34zm7.559-11.8a1.987 1.987 0 0 1-.72-2.729 1.985 1.985 0 0 1 2.729-.721c.96.55 1.28 1.78.72 2.73-.369.64-1.039.99-1.729.99-.34.001-.69-.079-1-.27zm6.8-12.24c-.99-.5-1.38-1.71-.88-2.689.5-.99 1.7-1.38 2.69-.88.979.5 1.38 1.699.88 2.689a2.02 2.02 0 0 1-1.79 1.09c-.3 0-.61-.069-.9-.21zm6.07-12.62a1.998 1.998 0 0 1-1.03-2.63 1.996 1.996 0 0 1 2.63-1.04 2.006 2.006 0 0 1 1.04 2.641c-.33.75-1.069 1.2-1.84 1.2-.27 0-.54-.061-.8-.171zm5.35-12.939a2.004 2.004 0 0 1-1.18-2.57h.01a1.996 1.996 0 0 1 2.57-1.18c1.03.39 1.56 1.54 1.17 2.57-.3.81-1.061 1.31-1.87 1.31a2.194 2.194 0 0 1-.7-.13zm4.63-13.22a1.99 1.99 0 0 1-1.319-2.5c.319-1.061 1.449-1.641 2.5-1.32a2.001 2.001 0 0 1 1.319 2.51c-.27.851-1.06 1.4-1.909 1.4-.201 0-.401-.021-.591-.09zm3.89-13.441a2.002 2.002 0 0 1 .98-3.88 1.997 1.997 0 0 1 1.45 2.43c-.229.9-1.04 1.51-1.94 1.51-.16 0-.33-.02-.49-.06zm3.17-13.639a1.998 1.998 0 0 1-1.58-2.351 1.989 1.989 0 0 1 2.35-1.569 2 2 0 0 1 1.58 2.34 2.008 2.008 0 0 1-1.97 1.62c-.12 0-.25-.011-.38-.04zm2.44-13.781a2.01 2.01 0 0 1-1.699-2.26 1.999 1.999 0 0 1 2.27-1.7 1.99 1.99 0 0 1 1.69 2.26c-.141 1-1 1.72-1.98 1.72-.091 0-.19-.01-.281-.02zm1.72-13.889a2.004 2.004 0 0 1 .359-3.99c1.101.1 1.91 1.08 1.811 2.18a2 2 0 0 1-1.99 1.82c-.059 0-.12-.01-.18-.01zm1.01-13.96a2.014 2.014 0 0 1-1.92-2.08 2.006 2.006 0 0 1 2.08-1.92c1.1.05 1.96.979 1.92 2.079a2.007 2.007 0 0 1-2.01 1.921h-.07zm-1.71-15.971a2 2 0 0 1 1.979-2.02c1.11-.01 2.011.87 2.021 1.979a2 2 0 0 1-1.98 2.021h-.01c-1.1.001-2-.879-2.01-1.98zm-.46-13.899a2 2 0 0 1 1.89-2.11c1.101-.06 2.04.78 2.11 1.88.06 1.11-.78 2.05-1.891 2.11-.029 0-.069.01-.109.01a2.007 2.007 0 0 1-2-1.89zm-1.11-13.861a2 2 0 0 1 1.79-2.19 1.991 1.991 0 0 1 2.19 1.78 1.992 1.992 0 0 1-1.78 2.19c-.07.01-.14.01-.21.01-1.01 0-1.88-.759-1.99-1.79zm-1.74-13.799a2.015 2.015 0 0 1 1.69-2.28c1.09-.16 2.11.601 2.27 1.69a1.999 1.999 0 0 1-1.68 2.27c-.1.021-.2.03-.3.03-.98 0-1.83-.72-1.98-1.71zm-2.33-13.72c-.22-1.08.5-2.131 1.58-2.341a2 2 0 0 1 2.341 1.591 2 2 0 0 1-1.58 2.34c-.13.02-.261.04-.38.04a2 2 0 0 1-1.961-1.63zm-2.91-13.61h-.011c-.25-1.07.42-2.15 1.49-2.4 1.08-.26 2.16.41 2.41 1.49.25 1.07-.42 2.15-1.49 2.4-.149.04-.31.06-.46.06a1.997 1.997 0 0 1-1.939-1.55zm-3.46-13.481a2 2 0 0 1 1.39-2.46c1.07-.3 2.17.33 2.47 1.391a1.998 1.998 0 0 1-1.399 2.46c-.181.05-.36.08-.53.08-.881 0-1.681-.58-1.931-1.471zm-3.97-13.35a1.999 1.999 0 0 1 3.811-1.21 1.99 1.99 0 0 1-1.29 2.51c-.21.07-.41.101-.61.101a2.012 2.012 0 0 1-1.911-1.401zm-4.449-13.19a2.005 2.005 0 0 1 1.21-2.56c1.04-.37 2.18.17 2.56 1.21.37 1.04-.17 2.18-1.21 2.56a1.996 1.996 0 0 1-2.56-1.21zm-4.911-13.029a1.998 1.998 0 0 1 1.109-2.601c1.021-.41 2.19.09 2.601 1.11.41 1.02-.08 2.19-1.11 2.6a1.9 1.9 0 0 1-.74.15 2 2 0 0 1-1.86-1.259zm-5.69-12.601c-.5-.989-.1-2.189.88-2.68a2 2 0 0 1 2.69.89c.5.98.1 2.181-.891 2.681-.29.149-.59.21-.899.21-.73 0-1.429-.401-1.78-1.101zm-6.7-12.109c-.569-.94-.27-2.17.67-2.74a2 2 0 0 1 2.75.68 1.996 1.996 0 0 1-1.71 3.03 1.995 1.995 0 0 1-1.71-.97zm-7.61-11.561a2 2 0 1 1 3.26-2.319c.64.899.43 2.149-.47 2.79a2 2 0 0 1-1.16.369c-.62 0-1.24-.3-1.63-.84zm-8.43-11.01a1.99 1.99 0 0 1 .28-2.81 2 2 0 0 1 2.811.27 2.01 2.01 0 0 1-.271 2.82c-.38.31-.83.46-1.27.46a1.982 1.982 0 0 1-1.55-.74zm-9.159-10.41c-.761-.8-.721-2.07.09-2.82.81-.76 2.069-.72 2.83.091v-.011c.75.811.71 2.08-.091 2.83-.39.36-.88.54-1.369.54a1.99 1.99 0 0 1-1.46-.63zm-9.811-9.82a2.003 2.003 0 0 1 2.75-2.909c.8.76.84 2.02.08 2.83-.39.42-.92.63-1.46.63-.49 0-.98-.181-1.37-.551zm-10.38-9.22a2.007 2.007 0 0 1-.24-2.819 1.988 1.988 0 0 1 2.811-.25c.85.71.96 1.97.25 2.819-.391.47-.96.72-1.53.72-.461 0-.911-.159-1.291-.47zm-10.88-8.63v-.01a1.983 1.983 0 0 1-.4-2.79c.66-.89 1.91-1.07 2.8-.41.881.67 1.061 1.92.4 2.81-.39.521-1 .801-1.6.801-.42 0-.84-.13-1.2-.401zm-11.33-8.049a1.991 1.991 0 0 1-.55-2.771 1.988 1.988 0 0 1 2.77-.55c.92.61 1.17 1.86.55 2.771-.39.58-1.02.89-1.659.89a1.975 1.975 0 0 1-1.111-.34zm-11.73-7.46a1.994 1.994 0 0 1-.689-2.74c.57-.95 1.8-1.26 2.75-.689.939.579 1.25 1.8.68 2.75-.38.619-1.04.97-1.72.97a2.02 2.02 0 0 1-1.021-.291zm-12.09-6.88a2.008 2.008 0 0 1-.81-2.71 2.006 2.006 0 0 1 2.71-.811c.97.521 1.34 1.73.81 2.71a1.995 1.995 0 0 1-1.76 1.05c-.32 0-.65-.079-.95-.239zm-12.39-6.3a2.002 2.002 0 0 1 1.73-3.61c.99.479 1.41 1.67.94 2.67a2.02 2.02 0 0 1-1.81 1.14c-.29-.001-.58-.07-.86-.2zm-12.68-5.711a1.997 1.997 0 0 1-1.061-2.619 1.998 1.998 0 0 1 2.62-1.07c1.02.43 1.49 1.61 1.06 2.62a1.988 1.988 0 0 1-1.84 1.229c-.259 0-.529-.059-.779-.16zm-12.93-5.119a2.005 2.005 0 0 1-1.18-2.57 1.988 1.988 0 0 1 2.57-1.18 1.995 1.995 0 0 1 1.18 2.569c-.3.8-1.061 1.3-1.87 1.3a2.15 2.15 0 0 1-.7-.119z"/><path fill="#C56FFF" d="M1077.825 399.893c-4.898-58.547-50.902-73.695-97.169-73.378-.339.002-.676.014-1.014.02-7.25-48.483-49.226-85.513-99.668-85.166-26.433.181-50.398 10.598-68.175 27.458-14.669-8.243-31.617-12.897-49.648-12.773-33.344.229-62.763 16.741-80.781 41.938-8.818-3.766-18.535-5.825-28.735-5.755-39.756.273-71.763 32.723-71.491 72.479.004.602.016 1.202.035 1.8l.184 30.137 496.462 3.24z"/><path fill="#FFF" d="m1080 401.907-500.625-3.269-.196-32.112a67.137 67.137 0 0 1-.035-1.799c-.28-40.795 32.682-74.212 73.477-74.492 9.704-.067 19.135 1.717 28.059 5.304 19.06-25.787 49.39-41.266 81.458-41.486 17.253-.118 34.284 4.137 49.356 12.32 18.712-17.251 42.967-26.83 68.466-27.005a101.993 101.993 0 0 1 67.351 24.758c18.081 15.597 30.122 36.986 34.035 60.384 60.294-.213 94.336 25.786 98.472 75.215l.182 2.182zm-496.649-7.243 492.277 3.215c-2.595-25.035-13.328-43.548-31.925-55.048-15.654-9.679-36.861-14.495-63.032-14.316l-2.748.046-.259-1.731c-3.458-23.126-15.165-44.319-32.964-59.675a98.005 98.005 0 0 0-64.712-23.787c-24.97.171-48.698 9.728-66.812 26.909l-1.07 1.014-1.286-.723c-14.779-8.305-31.603-12.633-48.653-12.516-31.323.215-60.919 15.58-79.168 41.101l-.935 1.306-1.477-.63c-8.848-3.779-18.247-5.661-27.937-5.595-38.59.265-69.769 31.875-69.504 70.465.004.585.016 1.17.034 1.752l.171 28.213z"/><path fill="#FFF" d="M738.418 304.636a2.001 2.001 0 0 1-1.75-2.99c5.366-9.423 15.427-15.322 26.258-15.396a30.426 30.426 0 0 1 25.328 13.243 2 2 0 0 1-3.299 2.263 26.43 26.43 0 0 0-22.001-11.507c-9.408.065-18.148 5.19-22.809 13.377a2.004 2.004 0 0 1-1.727 1.01zM630.187 374.875a2 2 0 0 1-1.859-2.768 65.211 65.211 0 0 1 59.892-40.293c25.775-.177 49.307 14.883 59.952 38.367a2 2 0 0 1-3.644 1.652c-9.993-22.047-32.085-36.185-56.282-36.019a61.216 61.216 0 0 0-56.225 37.826 1.999 1.999 0 0 1-1.834 1.235zM970.246 362.986c-9.918-14.467-26.297-23.031-43.814-22.911a52.352 52.352 0 0 0-10.169 1.073c-.014-.036-.021-.073-.037-.109-10.644-23.483-34.177-38.543-59.952-38.366a65.207 65.207 0 0 0-59.891 40.293 1.999 1.999 0 0 0 1.86 2.768 2 2 0 0 0 1.834-1.234 61.214 61.214 0 0 1 56.224-37.826c23.988-.165 45.898 13.732 56.012 35.45-13.057 3.757-24.417 12.491-31.303 24.585a2.002 2.002 0 0 0 3.477 1.981c8.576-15.064 24.66-24.495 41.973-24.614a48.634 48.634 0 0 1 40.488 21.172 2 2 0 0 0 2.78.519 2.002 2.002 0 0 0 .518-2.781z"/><path fill="#C56FFF" d="M311.758 167.638c14.536-35.661 49.682-59.423 88.365-59.423 7.403 0 14.853.879 22.142 2.611a2.002 2.002 0 0 0 2.382-1.38c5.697-19.352 17.728-36.765 33.873-49.032 16.685-12.676 36.609-19.376 57.62-19.376 14.658 0 28.73 3.246 41.828 9.648a1.996 1.996 0 0 0 1.577.077 2 2 0 0 0 1.142-1.092A78.131 78.131 0 0 1 632.715 2c19.705 0 38.527 7.353 53 20.704 14.388 13.273 23.233 31.283 24.909 50.714a1.998 1.998 0 0 0 2.7 1.698 77.91 77.91 0 0 1 27.674-5.053c43.132 0 78.222 35.09 78.222 78.222 0 6.513-.818 13.016-2.435 19.353H311.758z"/><path fill="#FFF" d="M632.715 4c19.201 0 37.542 7.165 51.644 20.175 14.02 12.934 22.639 30.483 24.271 49.415a3.999 3.999 0 0 0 5.401 3.397 75.927 75.927 0 0 1 26.966-4.924c42.029 0 76.222 34.193 76.222 76.222 0 5.831-.674 11.654-2.005 17.353H314.782c6.826-15.357 17.624-28.528 31.486-38.334 15.803-11.179 34.426-17.089 53.854-17.089 7.25 0 14.543.86 21.679 2.557a4 4 0 0 0 4.762-2.762c5.578-18.945 17.357-35.993 33.165-48.004 16.333-12.409 35.84-18.969 56.41-18.969 14.35 0 28.128 3.178 40.949 9.445a4.003 4.003 0 0 0 5.439-2.031A76.14 76.14 0 0 1 632.715 4m0-4c-33.187 0-61.666 20.154-73.869 48.889-12.896-6.303-27.385-9.851-42.706-9.851-44.216 0-81.526 29.476-93.413 69.843a97.557 97.557 0 0 0-22.605-2.666c-41.838 0-77.504 26.387-91.29 63.423h509.491a80.255 80.255 0 0 0 2.896-21.353c0-44.305-35.917-80.222-80.222-80.222a80.014 80.014 0 0 0-28.382 5.183C709.078 32.21 674.668 0 632.715 0z"/><path fill="#FFF" d="M723.022 133.677c-8.847-15.294-25.306-24.795-42.955-24.795a49.514 49.514 0 0 0-18.985 3.797c-11.474-25.994-37.08-42.734-65.567-42.734-28.286 0-53.996 16.703-65.499 42.553a2 2 0 0 0 3.655 1.627c10.861-24.408 35.137-40.18 61.845-40.18 26.92 0 51.115 15.831 61.935 40.409a49.631 49.631 0 0 0-18.504 16.393 1.999 1.999 0 1 0 3.314 2.238 45.579 45.579 0 0 1 37.807-20.103c16.226 0 31.358 8.735 39.492 22.797a1.998 1.998 0 0 0 2.732.73 1.999 1.999 0 0 0 .73-2.732z"/><g fill="#FFF"><path d="m367.391 335.234 19.343-21.036c-3.001-3.39-4.839-7.835-4.839-12.719v-2.037l-26.999-.087-13.491-.279c-10.104 8.865-18.733 19.537-25.563 31.739-9.652 17.245-11.57 35.219-13.262 51.076-2.958 27.726-5.295 49.626-45.658 71.743-35 19.177-57.385 20.788-83.306 22.653-25.372 1.825-54.13 3.895-93.654 23.513-35.853 17.796-61.044 48.852-72.848 89.809-8.662 30.054-7.017 55.296-6.943 56.356l24.792-44.863 18.774 41.811.006.086c-.012-.194-1.126-19.73 5.709-42.568 8.568-28.625 25.366-49.322 49.926-61.512 31.82-15.794 52.929-17.313 77.372-19.073 27.096-1.949 57.806-4.158 101.158-27.914 26.56-14.553 44.604-31.85 55.164-52.878 9.307-18.532 11.234-36.595 12.934-52.531 1.428-13.382 2.661-24.938 7.945-34.379 2.533-4.526 4.361-7.013 6.702-9.635l.023.023 2.883-3.135c1.122-1.173 2.382-2.479 3.867-4.063l-.035-.1zM395.038 276.151a21.075 21.075 0 0 1 8.004-1.579h22.291l-.231-39.907-21.048-.071a62.385 62.385 0 0 0-27.206 6.207l18.19 35.35z"/><path d="M401.11 320.695c-4.287 0-8.232-1.421-11.428-3.794l-26.033 28.312c10.91 9.216 25.003 14.779 40.405 14.779l-1.011-39.297h-1.933zM381.909 295.443c.095-7.301 3.885-13.702 9.59-17.429L373.3 242.649a62.98 62.98 0 0 0-26.509 29.112c-3.229 7.231-5.121 15.185-5.384 23.552l40.502.13z"/></g><path fill="#C56FFF" d="M170.789 832.355h-16.081c-18.283 0-33.157-14.874-33.157-33.157s14.874-33.157 33.157-33.157H268.28c13.86 0 25.137-11.276 25.137-25.137s-11.276-25.137-25.137-25.137h-62.23c-30.752 0-55.771-25.019-55.771-55.771 0-30.753 25.019-55.771 55.771-55.771h153.635c11.366 0 20.613-9.247 20.613-20.613 0-13.572 11.042-24.614 24.614-24.614h19.581c33.938 0 61.548-27.61 61.548-61.548v-29.625a2 2 0 0 1 4 0v29.625c0 36.144-29.404 65.548-65.548 65.548h-19.581c-11.367 0-20.614 9.247-20.614 20.614 0 13.572-11.041 24.613-24.613 24.613H206.05c-28.546 0-51.771 23.225-51.771 51.771s23.225 51.771 51.771 51.771h62.23c16.066 0 29.137 13.07 29.137 29.137s-13.07 29.137-29.137 29.137H154.708c-16.077 0-29.157 13.08-29.157 29.157s13.08 29.157 29.157 29.157h16.081a2 2 0 0 1 0 4z"/><path fill="#C56FFF" d="M266.267 744.371h-38.855a2 2 0 0 1 0-4h38.855a2 2 0 0 1 0 4zM326.372 854.892H151.966a2 2 0 0 1 0-4h174.406a2 2 0 0 1 0 4zM462.203 252.307H441.01a2 2 0 0 1 0-4h21.193a2 2 0 0 1 0 4zM502.292 252.307h-19.106a2 2 0 0 1 0-4h19.106c36.07 0 80.131-29.37 80.131-63.647a2 2 0 0 1 4 0c0 17.431-10.042 34.487-28.277 48.025-16.549 12.287-37.429 19.622-55.854 19.622zM498.908 264.8H463.11a2 2 0 0 1 0-4h35.798a2 2 0 0 1 0 4zM488.041 441.124a2 2 0 0 1-2-2v-21.509c0-39.418-32.068-71.486-71.485-71.486a2 2 0 0 1 0-4c41.623 0 75.485 33.863 75.485 75.486v21.509a2 2 0 0 1-2 2zM461.431 923.643a2 2 0 0 1-2-2v-38.091c0-12.279-9.99-22.27-22.27-22.27-47.163 0-85.532-38.369-85.532-85.532v-14.27c0-47.947 39.008-86.955 86.955-86.955h56.408a2 2 0 0 1 0 4h-56.408c-45.741 0-82.955 37.214-82.955 82.955v14.27c0 44.957 36.575 81.532 81.532 81.532 14.485 0 26.27 11.784 26.27 26.27v38.091a2 2 0 0 1-2 2zM343.142 678.521a2 2 0 0 1-1.493-3.33c15.901-17.859 38.725-28.102 62.618-28.102 13.755 0 24.945-11.19 24.945-24.944 0-15.961 12.984-28.945 28.945-28.945h2.541c17.807 0 32.294-14.486 32.294-32.293a2 2 0 0 1 4 0c0 20.012-16.281 36.293-36.294 36.293h-2.541c-13.755 0-24.945 11.19-24.945 24.945 0 15.96-12.984 28.944-28.944 28.944-22.754 0-44.489 9.754-59.631 26.762-.396.444-.945.67-1.495.67z"/><path fill="#C56FFF" d="M268.253 688.936h-45.351c-18.461 0-33.48-15.02-33.48-33.48v-6.365a2 2 0 0 1 4 0v6.365c0 16.256 13.225 29.48 29.48 29.48h45.351c13.676 0 25.006-11.124 25.255-24.797.291-15.84 13.415-28.726 29.256-28.726h50.017c19.287 0 34.978-15.69 34.978-34.978a2 2 0 0 1 4 0c0 21.492-17.485 38.978-38.978 38.978h-50.017c-13.676 0-25.006 11.125-25.256 24.799-.29 15.838-13.413 28.724-29.255 28.724zM274.758 803.941H169.976a2 2 0 0 1 0-4h104.781c27.357 0 49.614-22.257 49.614-49.615v-39.508a2 2 0 0 1 4 0v39.508c.001 29.564-24.05 53.615-53.613 53.615z"/><path fill="#C56FFF" d="M245.847 663.583h-10.288a2 2 0 0 1 0-4h10.288c12.674 0 22.985-10.312 22.985-22.985a2 2 0 0 1 4 0c0 14.88-12.106 26.985-26.985 26.985zM239.478 913.19a2 2 0 0 1-2-2v-3.074c0-15.586 12.68-28.266 28.266-28.266h63.677c14.505 0 26.306-11.801 26.306-26.306s-11.801-26.306-26.306-26.306h-52.039a2 2 0 0 1 0-4h52.039c16.711 0 30.306 13.595 30.306 30.306s-13.595 30.306-30.306 30.306h-63.677c-13.38 0-24.266 10.886-24.266 24.266v3.074a2 2 0 0 1-2 2zM598.442 592.302h-84.926a2 2 0 0 1 0-4h84.926c13.754 0 24.944-11.19 24.944-24.945 0-13.754-11.19-24.944-24.944-24.944h-2.939c-8.937 0-16.207-7.271-16.207-16.208 0-8.937 7.271-16.207 16.207-16.207h94.552a2 2 0 0 1 0 4h-94.552c-6.731 0-12.207 5.476-12.207 12.207s5.476 12.208 12.207 12.208h2.939c15.96 0 28.944 12.984 28.944 28.944.001 15.96-12.984 28.945-28.944 28.945z"/><path fill="#C56FFF" d="M740.278 527.919h-92.091a2 2 0 0 1 0-4h92.091c25.078 0 48.655-9.766 66.389-27.499a2 2 0 1 1 2.828 2.828c-18.488 18.488-43.07 28.671-69.217 28.671z"/><path fill="#C56FFF" d="M744.028 506.078h-9.395a2 2 0 0 1 0-4h9.395c16.572 0 34.195-8.119 48.352-22.275 14.156-14.157 22.275-31.78 22.275-48.353a2 2 0 0 1 4 0c0 36.965-37.662 74.628-74.627 74.628zM532.729 678.521h-12.354a2 2 0 0 1 0-4h12.354c8.432 0 15.291-6.859 15.291-15.291a19.15 19.15 0 0 1 5.75-13.74c3.707-3.653 8.61-5.58 13.821-5.549l64.953-.001a2 2 0 0 1 0 4l-64.982.001c-4.117-.04-8.046 1.502-10.984 4.397a15.181 15.181 0 0 0-4.558 10.892c0 10.637-8.654 19.291-19.291 19.291zM485.378 646.437h-29.671a2 2 0 0 1 0-4h29.671c7.068 0 12.819-5.751 12.819-12.82 0-9.274 7.545-16.819 16.819-16.819h80.826a2 2 0 0 1 0 4h-80.826c-7.068 0-12.819 5.751-12.819 12.819 0 9.274-7.545 16.82-16.819 16.82zM641.432 616.797h-19.647a2 2 0 0 1 0-4h19.647c14.738 0 26.729-11.991 26.729-26.73v-13.088c0-16.768 13.642-30.553 30.409-30.729h43.886a2 2 0 0 1 0 4h-43.865c-14.564.152-26.43 12.144-26.43 26.729v13.088c.001 16.945-13.784 30.73-30.729 30.73z"/><path fill="#C56FFF" d="M509.887 659.031h-3.92a2 2 0 0 1 0-4h3.92c9.883 0 17.923-8.04 17.923-17.923a2 2 0 0 1 4 0c-.001 12.088-9.836 21.923-21.923 21.923zM537.441 1015.556a2 2 0 0 1-2-2v-10.711c0-24.458-19.898-44.356-44.357-44.356h-35.736c-18.217 0-33.037-14.82-33.037-33.037v-23.945c0-10.846-8.824-19.67-19.671-19.67h-26.297a2 2 0 0 1 0-4h26.297c13.052 0 23.671 10.618 23.671 23.67v23.945c0 16.011 13.026 29.037 29.037 29.037h35.736c26.664 0 48.357 21.692 48.357 48.356v10.711a2 2 0 0 1-2 2zM233.604 647.324c-7.088 0-12.854-4.812-12.854-10.727s5.767-10.727 12.854-10.727 12.854 4.812 12.854 10.727-5.766 10.727-12.854 10.727zm0-17.453c-4.883 0-8.854 3.018-8.854 6.727s3.972 6.727 8.854 6.727 8.854-3.018 8.854-6.727-3.971-6.727-8.854-6.727zM199.873 993.5h-25.105a2 2 0 0 1 0-4h25.105c20.565 0 37.296-16.73 37.296-37.295v-21.128a2 2 0 0 1 4 0v21.128c0 22.771-18.526 41.295-41.296 41.295zM271.897 982.206a2 2 0 0 1-2-2v-27.061c0-13.271 10.797-24.068 24.068-24.068h23.994c15.534 0 28.173-12.638 28.173-28.172v-2.581a2 2 0 0 1 4 0v2.581c0 17.739-14.433 32.172-32.173 32.172h-23.994c-11.065 0-20.068 9.003-20.068 20.068v27.061a2 2 0 0 1-2 2zM123.551 990.112a2 2 0 0 1-2-2v-7.663c0-17.23 14.018-31.248 31.248-31.248h30.134c13.281 0 24.087-10.806 24.087-24.087v-5.896a2 2 0 0 1 4 0v5.896c0 15.487-12.6 28.087-28.087 28.087h-30.134c-15.024 0-27.248 12.224-27.248 27.248v7.663a2 2 0 0 1-2 2zM166.285 927.994a2 2 0 0 1-2-2v-11.672c0-17.709 14.407-32.116 32.116-32.116h12.618a2 2 0 0 1 0 4h-12.618c-15.503 0-28.116 12.613-28.116 28.116v11.672a2 2 0 0 1-2 2zM95.327 1000.622a2 2 0 0 1-1.973-1.687c-4.397-27.689 4.362-45.154 12.484-54.929 8.837-10.634 18.646-14.623 19.06-14.788a2 2 0 0 1 1.483 3.716c-.146.059-9.432 3.887-17.591 13.78-10.949 13.276-14.813 30.635-11.484 51.594a2 2 0 0 1-1.979 2.314zM302.956 1013.265a2 2 0 0 1-2-2v-28.009a19.593 19.593 0 0 1 5.78-13.95 19.597 19.597 0 0 1 13.945-5.774h.008l25.43.01c13.917-.359 24.86-11.587 24.86-25.562 0-13.628 11.087-24.715 24.714-24.715h2.697a2 2 0 0 1 0 4h-2.697c-11.422 0-20.714 9.293-20.714 20.715 0 16.16-12.655 29.145-28.81 29.561l-25.482-.009h-.006a15.622 15.622 0 0 0-11.117 4.604 15.619 15.619 0 0 0-4.608 11.121v28.009a2 2 0 0 1-2 1.999zM462.203 996.112h-41.446c-13.436 0-24.366-10.931-24.366-24.365v-21.471a2 2 0 0 1 4 0v21.471c0 11.229 9.137 20.365 20.366 20.365h41.446a2 2 0 0 1 0 4zM824.474 477.195a2 2 0 0 1-1.62-3.172c.158-.22 15.853-22.402 15.707-58.515a2 2 0 0 1 1.992-2.008h.008a2 2 0 0 1 2 1.992c.151 37.491-15.787 59.938-16.466 60.875a1.997 1.997 0 0 1-1.621.828zM550.861 758.38H423.982c-18.95 0-34.368-15.418-34.368-34.368v-5.264a2 2 0 0 1 4 0v5.264c0 16.745 13.623 30.368 30.368 30.368h126.879a2 2 0 0 1 0 4zM391.615 770.442c-.167 0-.337-.021-.506-.065-14.117-3.683-16.646-20.701-16.747-21.424a2 2 0 0 1 1.704-2.257c1.085-.162 2.103.607 2.257 1.701.021.151 2.279 15.104 13.796 18.108a2.002 2.002 0 0 1-.504 3.937zM652.508 770.441h-82.231a2 2 0 0 1 0-4h82.231a2 2 0 0 1 0 4zM628.791 750.677h-38.4a2 2 0 0 1 0-4h38.4a2 2 0 0 1 0 4zM643.661 592.302a2 2 0 0 1-2-2v-25.346c0-12.521 10.186-22.706 22.706-22.706a2 2 0 0 1 0 4c-10.314 0-18.706 8.392-18.706 18.706v25.346a2 2 0 0 1-2 2zM649.148 642.63a2 2 0 0 1 0-4c10.981 0 21.982-7.161 28.709-18.689a2 2 0 0 1 3.455 2.015c-7.441 12.752-19.765 20.674-32.164 20.674zM310.015 696.748h-.023a2.002 2.002 0 0 1-1.977-2.023c.011-.898.443-22.218 16.927-39.091a2 2 0 0 1 2.861 2.795c-15.375 15.739-15.786 36.138-15.788 36.343a2.002 2.002 0 0 1-2 1.976zM311.689 907.101h-40.857a2 2 0 0 1 0-4h40.857a2 2 0 0 1 0 4zM336.554 1006.075a1.995 1.995 0 0 1-1.83-2.798c.331-.758 8.46-18.564 38.149-20.149a2 2 0 1 1 .213 3.995c-27.091 1.446-34.403 17.101-34.701 17.767a2.01 2.01 0 0 1-1.831 1.185zM245.169 829.355h-39.192a2 2 0 0 1 0-4h39.192a2 2 0 0 1 0 4z"/><path fill="#FFF" d="M861.266 129.876c-.271 0-.53-.05-.771-.149-.24-.101-.46-.25-.65-.44a1.77 1.77 0 0 1-.25-.3c-.069-.11-.13-.22-.18-.34s-.09-.25-.12-.38a2.694 2.694 0 0 1 0-.781c.03-.13.07-.25.12-.37s.11-.24.18-.35c.08-.11.16-.21.25-.3.74-.75 2.08-.75 2.83 0 .091.09.17.189.25.3a2.316 2.316 0 0 1 .301.72c.02.13.04.26.04.39 0 .131-.021.271-.04.391-.03.13-.07.26-.12.38-.051.12-.11.229-.181.34-.069.11-.159.21-.25.3-.38.379-.88.589-1.409.589zM850.835 118.896c-.72-.83-.63-2.1.21-2.82.83-.72 2.101-.63 2.82.2.72.84.63 2.1-.21 2.82-.37.33-.84.49-1.3.49-.56.001-1.12-.23-1.52-.69zm-8.91-10.29c-.72-.83-.63-2.1.21-2.82.83-.72 2.091-.63 2.82.2.72.84.63 2.101-.21 2.82-.37.33-.84.49-1.3.49-.56.001-1.12-.23-1.52-.69zM834.535 99.007c-.14 0-.27-.011-.4-.04a1.846 1.846 0 0 1-.369-.11 1.87 1.87 0 0 1-.341-.18c-.109-.08-.21-.16-.31-.261a1.976 1.976 0 0 1-.58-1.41c0-.131.01-.261.04-.391.02-.13.06-.25.11-.37a1.818 1.818 0 0 1 .43-.65c.09-.101.2-.181.31-.25.101-.07.221-.141.341-.19.119-.05.25-.08.369-.109a2.002 2.002 0 0 1 1.811.55 1.77 1.77 0 0 1 .43.65c.05.12.09.24.12.37.021.13.04.26.04.391 0 .27-.06.529-.16.77-.1.24-.24.46-.43.64-.381.38-.881.59-1.411.59zM845.465 95.837a2.013 2.013 0 0 1 1.78-2.2 2 2 0 0 1 2.2 1.779 1.999 1.999 0 0 1-1.78 2.2c-.07.01-.14.01-.21.01-1.01 0-1.88-.76-1.99-1.789zm12.93-1.381a1.99 1.99 0 0 1 1.77-2.199c1.101-.12 2.09.68 2.2 1.779.12 1.09-.67 2.08-1.771 2.2-.069.01-.14.01-.21.01a2.002 2.002 0 0 1-1.989-1.79zM873.305 94.866c-.26 0-.52-.05-.76-.149-.24-.101-.46-.25-.649-.44-.38-.37-.591-.88-.591-1.41 0-.13.021-.26.04-.39.03-.13.07-.26.12-.38.04-.12.11-.23.181-.34.069-.11.159-.21.25-.311.09-.09.189-.17.3-.24.109-.08.229-.14.35-.189s.24-.08.37-.11c.26-.05.53-.05.78 0 .13.03.26.061.38.11s.229.109.34.189a1.755 1.755 0 0 1 .55.551 1.708 1.708 0 0 1 .3.72 1.966 1.966 0 0 1-.551 1.8 1.4 1.4 0 0 1-.3.25c-.11.08-.22.14-.34.19-.12.05-.25.09-.37.109-.13.03-.27.04-.4.04z"/><path fill="#C56FFF" d="M244.49 1019.011c-16.883-29.185-48.436-48.822-84.578-48.822s-67.695 19.637-84.578 48.822H244.49z"/><path d="M247.957 1021.011H71.866l1.736-3.002c17.778-30.73 50.85-49.82 86.31-49.82s68.532 19.09 86.309 49.821l1.736 3.001zm-169.081-4h162.071c-17.438-27.735-48.168-44.822-81.035-44.822s-63.598 17.087-81.036 44.822z"/><path fill="#C56FFF" d="M161.61 1019.011c-13.109-22.661-37.609-37.908-65.671-37.908s-52.562 15.247-65.671 37.908H161.61z"/><path d="M165.077 1021.011H26.8l1.736-3.002c13.884-23.998 39.71-38.906 67.402-38.906 27.693 0 53.521 14.908 67.402 38.907l1.737 3.001zm-131.245-4h124.213c-13.53-21-37.012-33.908-62.106-33.908s-48.576 12.907-62.107 33.908z"/><path fill="#C56FFF" d="M576.837 1019.011c-16.415-28.376-47.093-47.468-82.232-47.468s-65.817 19.092-82.232 47.468h164.464z"/><path d="M580.305 1021.011h-171.4l1.736-3.002c17.294-29.895 49.467-48.466 83.964-48.466 34.496 0 66.669 18.571 83.963 48.466l1.737 3.002zm-164.388-4h157.376c-16.954-26.898-46.785-43.468-78.687-43.468-31.904 0-61.735 16.57-78.689 43.468z"/><path fill="#C56FFF" d="M593.112 1019.011c-6.555-11.33-18.804-18.954-32.836-18.954-14.031 0-26.281 7.624-32.836 18.954h65.672z"/><path d="M596.58 1021.011h-72.606l1.736-3.001c7.119-12.308 20.364-19.953 34.566-19.953s27.447 7.646 34.567 19.952l1.737 3.002zm-65.465-4h58.323c-6.707-9.303-17.581-14.954-29.162-14.954s-22.456 5.651-29.161 14.954z"/><path fill="#C56FFF" d="M416.94 1019.011c-6.555-11.33-18.804-18.954-32.836-18.954s-26.281 7.624-32.836 18.954h65.672z"/><path d="M420.408 1021.011h-72.606l1.736-3.002c7.12-12.307 20.365-19.952 34.567-19.952 14.201 0 27.446 7.646 34.566 19.952l1.737 3.002zm-65.465-4h58.323c-6.706-9.303-17.581-14.954-29.161-14.954-11.581 0-22.455 5.651-29.162 14.954z"/><path fill="#FFF" d="M570.413 1080H56.967C25.556 1080 0 1054.444 0 1023.033v-2h627.38v2c0 31.411-25.556 56.967-56.967 56.967zM4.037 1025.033C5.094 1053.315 28.431 1076 56.967 1076h513.446c28.536 0 51.873-22.685 52.93-50.967H4.037z"/><path d="M42.291 583.993c.147-.96.412-2.023.859-3.168 1.76-4.512 4.59-6.648 7.303-5.589 2.714 1.059 3.35 4.545 1.59 9.057-1.76 4.513-4.59 6.648-7.304 5.59-1.569-.612-2.435-1.967-2.581-3.907a2.776 2.776 0 0 1-2.456.209c-.882-.344-1.606-1.191-1.732-2.221-1.431 1.062-3.129 1.455-4.764.817-2.91-1.136-3.789-4.868-2.424-8.367.382-.981.948-1.852 1.574-2.588.465-1.287 1.642-4.596 2.037-5.608.28-.72.78-.94 1.304-.734.556.216.775.717.495 1.436a77.77 77.77 0 0 1-1.298 3.035c1.078-.445 2.226-.488 3.337-.055 2.909 1.135 3.789 4.869 2.425 8.366a9.734 9.734 0 0 1-1.342 2.378c-.033.854.436 1.487 1.09 1.743a1.736 1.736 0 0 0 1.887-.394zm-4.825-10.133c-1.929-.753-3.964.602-4.983 3.218-1.021 2.615-.44 4.988 1.489 5.74 1.929.754 3.964-.6 4.983-3.215 1.021-2.616.439-4.99-1.489-5.743zm12.221 3.336c-1.568-.61-3.55.989-4.838 4.292-1.288 3.301-.914 5.82.655 6.433s3.55-.988 4.838-4.29c1.289-3.303.915-5.821-.655-6.435zM36.355 553.78c-1.012-.633-1.153-1.798-.483-2.869s1.778-1.454 2.791-.821c1.011.633 1.152 1.797.482 2.869-.67 1.07-1.778 1.453-2.79.821zm21.043 2.687c.506.316.629.849.22 1.502l-6.606 10.563c-.408.654-.94.777-1.446.461-.477-.297-.599-.829-.19-1.484.503-.802 2.342-3.543 3.283-4.983l-9.641-6.028c-.808 1.356-2.542 4.328-2.858 4.835-.409.655-.941.777-1.447.461-.476-.298-.599-.829-.189-1.484l3.479-5.564c.373-.595.952-.729 1.548-.356l10.206 6.383c.473-.822 1.724-3.021 2.226-3.824.408-.658.939-.78 1.415-.482zM61.377 532.853c.428.417.435.963-.104 1.517-.735.754-3.822 3.773-4.924 4.854l4.727 4.604c2.565 2.497 4.404 2.672 6.143.887a7.362 7.362 0 0 0 1.387-2.08c.312-.724.407-1.072.751-1.424.343-.352.863-.384 1.24-.017.453.44.41.938.074 1.836-.288.748-1.09 2.024-2.069 3.03-2.791 2.866-5.474 2.654-8.944-.725l-4.752-4.627c-.71.778-2.079 2.335-2.789 3.064-.539.554-1.085.561-1.513.144-.401-.391-.409-.936.13-1.489l2.889-2.968-3.771-3.673c-.503-.489-.536-1.061-.07-1.538.416-.428 1.012-.436 1.515.055l3.771 3.673 4.823-4.955c.538-.553 1.084-.56 1.486-.168zM106.135 521.569c.244.543.05 1.054-.654 1.37l-11.457 5.149c-.703.316-1.215.123-1.459-.422-.23-.513-.036-1.021.668-1.339.96-.432 2.476-.997 3.45-1.396l-4.66-10.368c-.882.433-2.407 1.234-3.335 1.651-.704.316-1.215.123-1.459-.421-.23-.512-.036-1.022.668-1.339l4.256-1.913c.641-.287 1.197-.076 1.484.563l.418.929c.081-1.96 1.62-3.499 3.284-4.246 1.024-.461 2.451-.795 3.636-.557.545.101.881.335 1.068.751.244.544-.014 1.082-.461 1.283-.48.217-.951.197-1.436.146a4.725 4.725 0 0 0-2.561.381c-2.304 1.036-2.855 3.746-1.576 6.594l2.561 5.697c1.426-.679 4.936-2.372 6.119-2.903.705-.316 1.215-.122 1.446.39zM109.022 513.498c-1.407-4.451.964-8.586 5.213-9.93 4.114-1.302 8.249.482 9.54 4.563.201.635.037 1.165-.766 1.419l-11.81 3.735c1.154 2.948 4.15 4.393 7.495 3.333 2.041-.645 3.245-1.725 4.287-3.084.293-.353.466-.737.968-.896.535-.17 1.063.104 1.223.607.158.502.009.843-.399 1.414-.931 1.362-2.853 2.964-5.597 3.832-4.515 1.43-8.756-.578-10.154-4.993zm1.751-2.027 10.672-3.375c-1.06-2.536-4.019-3.513-6.628-2.688-2.609.824-4.3 3.275-4.044 6.063zM133.864 512.111l.232 1.312c.122.69-.185 1.173-.841 1.289-.588.104-1.076-.237-1.198-.929l-3.712-20.978c-.123-.69.185-1.172.841-1.288.587-.104 1.075.236 1.198.928l1.596 9.021c.784-1.813 2.544-2.945 4.514-3.294 4.216-.746 7.619 1.966 8.42 6.493.802 4.526-1.464 8.243-5.68 8.989-1.97.35-4.04-.069-5.37-1.543zm8.942-7.072c-.617-3.491-3.072-5.479-6.079-4.947-3.006.531-4.629 3.243-4.012 6.733s3.072 5.479 6.079 4.948c3.007-.534 4.63-3.243 4.012-6.734zM151.14 507.101c-.253-2.972 2.529-5.041 6.097-5.345 1.958-.167 4.025.115 5.511 1.01l-.11-1.295c-.223-2.621-2.118-4.187-5.37-3.91-1.189.102-2.396.416-3.633 1.191-.401.245-.931.643-1.386.682-.63.054-1.051-.334-1.101-.929-.046-.524.345-.909.979-1.315.867-.567 2.772-1.363 4.976-1.553 4.582-.389 7.208 1.501 7.56 5.627l.71 8.323c.06.699-.255 1.149-.919 1.206-.595.05-1.05-.333-1.109-1.033l-.03-.349c-1.312 1.133-3.302 1.76-5.26 1.927-3.569.305-6.662-1.264-6.915-4.237zm12.031-1.025c-.146-1.714-2.145-2.846-5.188-2.588-3.043.26-4.821 1.715-4.675 3.429.146 1.713 2.145 2.846 5.188 2.587s4.82-1.715 4.675-3.428zM173.586 508.685c-.767-.323-1.146-.644-1.194-1.237a.96.96 0 0 1 .897-1.061c.596-.049 1.082.298 1.74.595 1.244.566 3.001.948 4.925.789 3.217-.269 4.593-1.51 4.474-2.942-.137-1.644-1.719-2.041-5.256-2.24-3.891-.205-6.731-.921-6.973-3.822-.253-3.043 2.729-4.452 5.981-4.722 2.028-.169 4.167.146 5.697.76.509.203.812.459.856.984.043.524-.304 1.011-.898 1.061-.385.032-.784-.111-1.11-.225-1.523-.542-2.85-.819-4.458-.687-2.519.209-4.13 1.153-4.008 2.621.131 1.574 2.167 1.934 5.175 2.105 4.459.265 6.802.915 7.045 3.853.25 3.008-2.417 4.813-6.368 5.142-2.588.215-4.844-.232-6.525-.974zM192.813 500.61c-.757-4.606 2.182-8.363 6.581-9.088 4.26-.7 8.098 1.658 8.793 5.883.107.658-.13 1.16-.961 1.297L195 500.713c.721 3.083 3.48 4.94 6.944 4.37 2.112-.347 3.459-1.244 4.685-2.441.342-.306.567-.663 1.087-.748.555-.091 1.038.256 1.123.775.086.521-.11.837-.597 1.343-1.116 1.217-3.248 2.527-6.089 2.994-4.676.769-8.588-1.825-9.34-6.396zm2.024-1.756 11.048-1.816c-.686-2.662-3.476-4.053-6.178-3.608-2.701.443-4.726 2.626-4.87 5.424zM236.863 487.211c-.252-.617.057-1.16.641-1.399l7.243-2.963c.585-.24 1.219-.083 1.458.502s-.102 1.142-.687 1.381l-7.244 2.964c-.584.239-1.172.1-1.411-.485zM256.512 478.567c-.308-.591-.051-1.161.51-1.453l6.94-3.617c.561-.293 1.206-.194 1.498.366s.003 1.146-.557 1.438l-6.941 3.618c-.561.292-1.158.208-1.45-.352zM274.204 471.686c-2.542-3.788-1.495-8.464 2.264-10.986 3.76-2.522 8.482-1.72 11.024 2.069 2.543 3.788 1.496 8.464-2.264 10.986-3.758 2.522-8.482 1.72-11.024-2.069zm11.511-7.725c-1.936-2.886-5.52-3.438-8.171-1.659-2.652 1.78-3.499 5.307-1.562 8.19 1.937 2.886 5.52 3.439 8.172 1.66 2.651-1.779 3.497-5.305 1.561-8.191zM306.076 455.357l-5.365-5.701c-2.405-2.558-4.649-2.278-6.311-.714-1.814 1.707-2.307 4.002.123 6.585l5.34 5.674c.48.512.488 1.083.003 1.54-.435.409-1.03.392-1.512-.12l-9.237-9.817c-.48-.512-.487-1.082-.002-1.539.435-.409 1.03-.392 1.511.119l.698.742c-.292-1.847.604-3.508 2.009-4.83 2.557-2.407 5.688-2.459 8.574.606l5.677 6.034c.481.511.488 1.084.003 1.54-.435.41-1.03.392-1.511-.119zM311.404 427.026c.493.336.596.872.162 1.511-.593.87-3.107 4.38-4.005 5.636l5.455 3.71c2.96 2.014 4.8 1.865 6.202-.195.532-.784.882-1.733 1.004-2.288.182-.767.214-1.126.491-1.533.276-.406.783-.527 1.218-.231.522.355.566.852.393 1.794-.153.788-.721 2.184-1.511 3.345-2.249 3.308-4.929 3.564-8.932.841l-5.484-3.729c-.562.891-1.64 2.661-2.213 3.504-.434.638-.97.739-1.463.403-.465-.315-.566-.852-.132-1.49l2.328-3.423-4.353-2.961c-.58-.395-.711-.949-.336-1.501.335-.493.92-.604 1.501-.211l4.352 2.961 3.888-5.716c.435-.641.971-.742 1.435-.427zM320.377 423.921c-4.244-1.671-6.041-6.111-4.383-10.324 1.658-4.21 6-6.235 10.245-4.564 4.244 1.672 6.041 6.113 4.383 10.324-1.659 4.212-6 6.236-10.245 4.564zm5.078-12.897c-3.232-1.273-6.495.309-7.665 3.28-1.169 2.972.139 6.354 3.371 7.625 3.232 1.272 6.495-.31 7.665-3.28 1.17-2.969-.139-6.351-3.371-7.625zM332.543 395.577c.257-1.38 1.422-2.271 2.733-2.026 1.311.245 2.078 1.494 1.821 2.875-.257 1.38-1.422 2.27-2.733 2.025s-2.078-1.493-1.821-2.874zM335.378 374.021c.16-1.396 1.261-2.362 2.586-2.211 1.325.153 2.176 1.347 2.016 2.74-.161 1.396-1.262 2.363-2.587 2.211-1.325-.153-2.176-1.346-2.015-2.74zM338.908 353.518c.395-1.348 1.643-2.115 2.923-1.741 1.28.375 1.918 1.693 1.524 3.042-.395 1.347-1.643 2.114-2.923 1.74-1.28-.373-1.917-1.694-1.524-3.041z"/></svg>