<svg xmlns="http://www.w3.org/2000/svg" xml:space="preserve" viewBox="0 0 1920 1080"><path d="M1587.994 749.946h-12.424c-6.955 0-13.112 3.426-16.917 8.666v-2.578c0-9.188 7.475-16.664 16.663-16.664h12.207a2 2 0 0 0 0-4h-12.207c-11.394 0-20.663 9.27-20.663 20.664v14.829c0 9.328-7.59 16.918-16.918 16.918h-25.816a2 2 0 0 0 0 4h25.816c11.534 0 20.918-9.384 20.918-20.918 0-9.328 7.589-16.917 16.917-16.917h12.424a2 2 0 0 0 0-4z"/><path fill="#41E847" d="M650.889 411.231c-20.72 4.299-40.465 14.463-56.546 30.544a112.531 112.531 0 0 0-14.515 17.849 112.547 112.547 0 0 0 2.357-22.885c0-22.742-6.775-43.892-18.386-61.582-11.611 17.691-18.386 38.84-18.386 61.582 0 7.846.824 15.495 2.357 22.885a112.587 112.587 0 0 0-14.515-17.849c-16.081-16.081-35.827-26.245-56.546-30.544 4.299 20.72 14.463 40.465 30.544 56.546 15.562 15.562 34.559 25.566 54.546 30.093v110.752c-3.496-10.086-9.216-19.351-16.924-27.164-11.073-11.224-25.191-18.398-40.515-20.758-6.833-19.102-18.883-36.598-35.952-50.127-17.823-14.126-38.606-21.954-59.682-23.843 6.652 20.088 19.018 38.535 36.841 52.661a112.515 112.515 0 0 0 19.399 12.368 112.564 112.564 0 0 0-23.005.288c-22.591 2.614-42.822 11.775-59.061 25.342 18.908 9.501 40.696 13.801 63.287 11.187 21.804-2.523 41.398-11.157 57.338-23.953 14.565 2.196 27.987 8.985 38.503 19.644 12.75 12.925 19.771 30.041 19.771 48.196v19.655a2 2 0 0 0 4 0V497.87c19.987-4.527 38.984-14.531 54.546-30.093 16.081-16.081 26.245-35.826 30.544-56.546z"/><path fill="#41E847" d="M1322.503 662.258a31.977 31.977 0 0 0-24.686.299l-10.904 4.719a35.494 35.494 0 0 1-14.094 2.919h-21.954c-39.532 0-73.278-28.563-79.808-67.553l-3.303-15.72c-4.056-24.214-16.889-46.153-36.217-61.292-24.332-19.059-56.534-31.011-86.609-31.011h-97.527a13.339 13.339 0 0 1-9.264-3.73s-3.123-2.664-4.114-9.27c-2.855-25.499-16.318-47.79-35.879-62.354-14.886-11.083-33.3-17.692-53.253-17.832-50.05-.352-91.002 41.397-91.002 91.448v29.655l-.046 48.046c-1.512 52.481-43.999 94.841-96.831 95.849l-111.418 2.529a7.497 7.497 0 0 0-7.348 7.799c.161 4.073 3.724 7.193 7.8 7.193h155.42c49.706-.828 90.333-41.346 96.348-89.445.874-6.99 6.782-12.247 13.825-12.1l.63.013c7.456.155 13.419 6.244 13.419 13.701v87.83h76.268V637.8c0-6.057 4.91-10.967 10.967-10.967h141.621c6.057 0 10.967 4.91 10.967 10.967v46.153h76.268l-.221-57.12.058-14.983c.026-6.764 9.624-8.052 11.433-1.534l.397 1.43c11.844 42.673 50.693 72.208 94.978 72.208H1376.166l-53.663-21.696zM798.725 523.783c-7.693 0-13.929-6.236-13.929-13.929 0-7.693 6.236-13.929 13.929-13.929s13.929 6.236 13.929 13.929c0 7.693-6.236 13.929-13.929 13.929zm134.517 10.175c0 19.105-15.543 34.648-34.649 34.648h-10.39c-19.106 0-34.649-15.543-34.649-34.648v-72.847c0-7.871-6.403-14.274-14.274-14.274a2 2 0 0 1 0-4c10.076 0 18.274 8.198 18.274 18.274v72.847c0 16.899 13.75 30.648 30.649 30.648h10.39c16.9 0 30.649-13.749 30.649-30.648V519.95a2 2 0 0 1 4 0v14.008z"/><path fill="#41E847" d="M1412.26 510.155a112.564 112.564 0 0 0-23.005-.289 112.477 112.477 0 0 0 19.399-12.368c17.823-14.126 30.189-32.573 36.841-52.661-21.076 1.889-41.859 9.717-59.682 23.843-17.07 13.53-29.12 31.026-35.952 50.128-15.325 2.36-29.442 9.534-40.515 20.758-7.708 7.813-13.428 17.078-16.924 27.164v-49.526c12.8-15.942 21.438-35.54 23.961-57.348 2.614-22.591-1.686-44.379-11.187-63.288-13.568 16.239-22.728 36.47-25.342 59.061a112.555 112.555 0 0 0-.289 23.004 112.575 112.575 0 0 0-12.368-19.399c-14.126-17.823-32.573-30.189-52.661-36.841 1.889 21.076 9.717 41.859 23.843 59.682 13.509 17.044 30.974 29.084 50.042 35.922V637.727a2 2 0 0 0 4 0v-47.155c0-18.155 7.021-35.271 19.771-48.196 10.516-10.659 23.938-17.448 38.503-19.644 15.94 12.795 35.533 21.43 57.337 23.952 22.591 2.614 44.379-1.686 63.287-11.187-16.237-13.568-36.468-22.728-59.059-25.342z"/><path fill="#FFF" d="M1554.899 605.146a1.996 1.996 0 0 0-2.626 1.05l-8.507 19.851-10.471-19.991a2 2 0 1 0-3.543 1.855l12.195 23.282v16.105c0 12.255-9.971 22.226-22.226 22.226h-11.408a2 2 0 0 0 0 4h11.408c14.461 0 26.226-11.765 26.226-26.226V631.11l10.002-23.339a1.998 1.998 0 0 0-1.05-2.625zM1687.076 140.796h-39.784l28.131-28.131a2 2 0 1 0-2.828-2.828l-28.131 28.13V98.185a2 2 0 0 0-4 0v39.784l-28.132-28.131a2 2 0 1 0-2.828 2.828l28.131 28.131h-39.784a2 2 0 0 0 0 4h39.784l-28.131 28.131a2 2 0 1 0 2.828 2.828l28.132-28.131v39.784a2 2 0 0 0 4 0v-39.783l28.131 28.13c.391.391.902.586 1.414.586s1.023-.195 1.414-.586a2 2 0 0 0 0-2.828l-28.131-28.131h39.784a2 2 0 0 0 0-4.001zM321.667 140.796h-39.783l28.131-28.131a2 2 0 1 0-2.828-2.828l-28.131 28.131V98.185a2 2 0 0 0-4 0v39.783l-28.131-28.131a2 2 0 1 0-2.828 2.828l28.131 28.131h-39.783a2 2 0 0 0 0 4h39.783l-28.131 28.131a2 2 0 1 0 2.828 2.828l28.131-28.131v39.783a2 2 0 0 0 4 0v-39.783l28.131 28.131c.39.391.902.586 1.414.586s1.024-.195 1.414-.586a2 2 0 0 0 0-2.828l-28.131-28.131h39.783a2 2 0 0 0 0-4z"/><path d="M321.667 520.149h-39.783l28.131-28.131a2 2 0 1 0-2.828-2.828l-28.131 28.131v-39.783a2 2 0 0 0-4 0v39.784l-28.131-28.132a2 2 0 1 0-2.828 2.828l28.131 28.131h-39.783a2 2 0 0 0 0 4h39.784l-28.132 28.132a2 2 0 1 0 2.828 2.828l28.131-28.132v39.784a2 2 0 0 0 4 0v-39.783l28.131 28.131c.391.391.902.586 1.414.586s1.024-.195 1.414-.586a2 2 0 0 0 0-2.828l-28.132-28.132h39.784a2 2 0 0 0 0-4zM206.445 520.149h-39.783l28.131-28.131a2 2 0 1 0-2.828-2.828l-28.131 28.132v-39.784a2 2 0 0 0-4 0v39.783l-28.131-28.131a2 2 0 1 0-2.828 2.828l28.131 28.131h-39.783a2 2 0 0 0 0 4h39.784l-28.132 28.132a2 2 0 1 0 2.828 2.828l28.131-28.131v39.783a2 2 0 0 0 4 0v-39.784l28.131 28.132c.391.391.902.586 1.414.586s1.024-.195 1.414-.586a2 2 0 0 0 0-2.828l-28.132-28.132h39.784a2 2 0 0 0 0-4zM1802.298 520.149h-39.783l28.13-28.131a2 2 0 1 0-2.828-2.828l-28.131 28.131v-39.784a2 2 0 0 0-4 0v39.784l-28.131-28.131a2 2 0 1 0-2.828 2.828l28.13 28.131h-39.784a2 2 0 0 0 0 4h39.785l-28.131 28.132a2 2 0 1 0 2.828 2.828l28.131-28.131v39.784a2 2 0 0 0 4 0v-39.784l28.131 28.131c.391.391.902.586 1.414.586s1.023-.195 1.414-.586a2 2 0 0 0 0-2.828l-28.131-28.132h39.784a2 2 0 0 0 0-4zM1687.076 520.149h-39.783l28.131-28.131a2 2 0 1 0-2.828-2.828l-28.131 28.131v-39.783a2 2 0 0 0-4 0v39.784l-28.132-28.132a2 2 0 1 0-2.828 2.828l28.131 28.131h-39.783a2 2 0 0 0 0 4h39.784l-28.132 28.132a2 2 0 1 0 2.828 2.828l28.132-28.132v39.784a2 2 0 0 0 4 0v-39.783l28.131 28.131c.391.391.902.586 1.414.586s1.023-.195 1.414-.586a2 2 0 0 0 0-2.828l-28.132-28.132h39.784a2 2 0 0 0 0-4zM321.667 905.678h-39.783l28.131-28.131a2 2 0 1 0-2.828-2.828l-28.131 28.131v-39.783a2 2 0 0 0-4 0v39.784l-28.131-28.132a2 2 0 1 0-2.828 2.828l28.131 28.131h-39.783a2 2 0 0 0 0 4h39.784l-28.132 28.132a2 2 0 1 0 2.828 2.828l28.131-28.132v39.784a2 2 0 0 0 4 0v-39.783l28.131 28.131c.391.391.902.586 1.414.586s1.024-.195 1.414-.586a2 2 0 0 0 0-2.828l-28.132-28.132h39.784a2 2 0 0 0 0-4zM206.445 905.678h-39.783l28.131-28.131a2 2 0 1 0-2.828-2.828l-28.131 28.132v-39.784a2 2 0 0 0-4 0v39.783l-28.131-28.131a2 2 0 1 0-2.828 2.828l28.131 28.131h-39.783a2 2 0 0 0 0 4h39.784l-28.132 28.132a2 2 0 1 0 2.828 2.828l28.131-28.131v39.783a2 2 0 0 0 4 0v-39.784l28.131 28.132c.391.391.902.586 1.414.586s1.024-.195 1.414-.586a2 2 0 0 0 0-2.828l-28.132-28.132h39.784a2 2 0 0 0 0-4z"/><path fill="#FFF" d="M91.223 905.678H51.44l28.131-28.131a2 2 0 1 0-2.828-2.828L48.612 902.85v-39.783a2 2 0 0 0-4 0v39.784L16.48 874.719a2 2 0 1 0-2.828 2.828l28.131 28.131H2a2 2 0 0 0 0 4h39.784L13.652 937.81a2 2 0 1 0 2.828 2.828l28.131-28.132v39.784a2 2 0 0 0 4 0v-39.783l28.131 28.131c.391.391.902.586 1.414.586s1.024-.195 1.414-.586a2 2 0 0 0 0-2.828l-28.132-28.132h39.784a2 2 0 0 0 .001-4z"/><path d="M1642.465 954.29a2 2 0 0 1-2-2v-89.224a2 2 0 0 1 4 0v89.224a2 2 0 0 1-2 2z"/><path d="M1687.076 909.678h-89.224a2 2 0 0 1 0-4h89.224a2 2 0 0 1 0 4z"/><path d="M1610.919 941.224a2 2 0 0 1-1.414-3.414l63.091-63.091a2 2 0 1 1 2.828 2.828l-63.091 63.091a1.992 1.992 0 0 1-1.414.586z"/><path d="M1674.01 941.224a1.992 1.992 0 0 1-1.414-.586l-63.091-63.091a2 2 0 1 1 2.828-2.828l63.091 63.091a2 2 0 0 1-1.414 3.414z"/><path fill="#FFF" d="M1873.389 954.29a2 2 0 0 1-2-2v-89.224a2 2 0 0 1 4 0v89.224a2 2 0 0 1-2 2z"/><path fill="#FFF" d="M1918 909.678h-89.224a2 2 0 0 1 0-4H1918a2 2 0 0 1 0 4z"/><path fill="#FFF" d="M1841.843 941.224a2 2 0 0 1-1.414-3.414l63.091-63.091a2 2 0 1 1 2.828 2.828l-63.091 63.091a1.994 1.994 0 0 1-1.414.586z"/><path fill="#FFF" d="M1904.934 941.224a1.992 1.992 0 0 1-1.414-.586l-63.091-63.091a2 2 0 1 1 2.828-2.828l63.091 63.091a2 2 0 0 1-1.414 3.414z"/><path d="M1758.166 954.29a2 2 0 0 1-2-2v-89.224a2 2 0 0 1 4 0v89.224a2 2 0 0 1-2 2z"/><path d="M1802.778 909.678h-89.224a2 2 0 0 1 0-4h89.224a2 2 0 0 1 0 4z"/><path d="M1726.621 941.224a2 2 0 0 1-1.414-3.414l63.091-63.091a2 2 0 1 1 2.828 2.828l-63.091 63.091a1.99 1.99 0 0 1-1.414.586z"/><path d="M1789.712 941.224a1.992 1.992 0 0 1-1.414-.586l-63.091-63.091a2 2 0 1 1 2.828-2.828l63.091 63.091a2 2 0 0 1-1.414 3.414zM1494.709 685.953H419.042c-5.338 0-9.681-4.343-9.681-9.681 0-5.301 4.283-9.621 9.57-9.68l172.951-17.925c58.146-5.904 104.279-52.424 109.699-110.613l5.585-59.944c5.971-42.408 30.617-79.153 67.62-100.812 36.422-21.32 79.711-24.812 118.768-9.583 37.038 14.441 65.118 43.598 79.066 82.098 2.472 6.82 7.917 11.415 14.952 12.626l63.252 1.526c35.744.654 69.691 11.104 95.576 29.422 29.215 20.674 46.639 50.144 50.388 85.222 3.316 32.888 30.733 57.68 63.775 57.68h43.229l160.971.578c18.108.119 34.819 10.021 43.616 25.842 2.723 4.896 2.652 10.703-.188 15.533-2.839 4.829-7.88 7.711-13.482 7.711zM419.042 670.592c-3.132 0-5.681 2.548-5.681 5.681s2.548 5.681 5.681 5.681h1075.667c4.169 0 7.921-2.146 10.034-5.739 2.114-3.595 2.167-7.916.141-11.562-8.098-14.562-23.479-23.676-40.14-23.785l-160.958-.578h-43.223a67.896 67.896 0 0 1-67.754-61.267c-3.622-33.891-20.47-62.378-48.72-82.37-25.236-17.858-58.389-28.047-93.351-28.688l-63.547-1.533-.138-.023c-8.443-1.396-15.245-7.091-18.195-15.231-13.55-37.401-40.811-65.718-76.759-79.734-37.912-14.783-79.934-11.389-115.294 9.309-35.928 21.029-59.862 56.701-65.673 97.873l-5.57 59.802c-5.596 60.088-53.235 108.125-113.273 114.221l-173.146 17.945h-.101z"/><circle cx="1478.63" cy="662.63" r="8.894"/><g fill="#FFF"><path d="M1175.881 962.948c-11.181-2.346-23.012 1.44-30.751 9.846-3.856 4.188-4.918 10.021-8.49 13.949-4.02 4.419-10.727 5.807-15.285 9.627-5.277 4.422-8.73 10.747-9.632 17.57-1.883 14.242 7.756 27.756 21.83 30.637 10.615 2.173 20.98-2.039 27.225-9.937 3.18-4.021 7.69-6.732 12.771-7.42 14.078-1.907 25.877-12.942 27.941-27.926 2.316-16.827-8.984-32.857-25.609-36.346zM925.595 847.545c-8.109 0-14.682 6.573-14.682 14.682s6.573 14.682 14.682 14.682 14.682-6.573 14.682-14.682-6.573-14.682-14.682-14.682z"/><path d="M1474.604 749.959c-44.668 0-85.364 26.325-103.677 67.066l-31.039 69.055c-24.609-46.694-73.636-78.605-129.984-78.605-48.784 0-94.023 24.069-121.489 64.481-26.441-38.887-71.039-64.481-121.505-64.481-48.527 0-93.547 23.816-121.054 63.843-26.493-38.527-70.874-63.843-121.062-63.843-51.609 0-97.079 26.768-123.271 67.146-2.435-54.026-47.144-97.231-101.76-97.231-36.968 0-71.119 20.143-89.125 52.567-4.729 8.515-3.279 18.399 3.694 25.182 6.947 6.759 16.832 7.93 25.18 2.985 15.064-8.92 34.311-5.784 45.766 7.453a36.192 36.192 0 0 1 7.762 32.323l-6.82 18.178a206.556 206.556 0 0 0-12.025 50.937c-3.892 37.014 12.146 73.115 41.852 94.217 17.3 12.289 37.629 18.768 58.854 18.768.337 0 .675-.002 1.013-.005 44.601-.432 83.864-30.574 96.6-73.693 16.84 22.036 38.631 40.342 63.205 53.018 22.26 11.482 46.021 18.209 70.805 20.106.284.022.568.042.852.062 1.259.091 2.519.175 3.783.24.673.036 1.349.06 2.024.089.96.04 1.919.085 2.883.11 1.527.042 3.058.062 4.594.067.16 0 .32.007.48.007h.068c.16 0 .32-.007.48-.007 1.536-.004 3.067-.025 4.594-.067.963-.025 1.922-.07 2.882-.11.675-.029 1.351-.053 2.025-.089 1.264-.065 2.524-.15 3.783-.24.284-.021.568-.04.852-.062 24.784-1.897 48.545-8.624 70.805-20.106 24.591-12.685 46.396-31.007 63.24-53.064 16.844 22.057 38.65 40.379 63.24 53.064 26.604 13.723 55.344 20.681 85.421 20.681 52.947 0 100.82-22.129 134.866-57.62 7.38 15.577 18.556 28.97 32.466 38.852 17.301 12.289 37.63 18.768 58.854 18.768.337 0 .675-.002 1.013-.005 55.618-.539 100.866-46.808 100.866-103.161l-.438-38.686v-80.59c0-15.4 12.529-27.93 27.93-27.93 21.965 0 39.835-17.87 39.835-39.835v-.52c-.003-21.678-17.64-39.315-39.318-39.315zm35.315 39.835c0 19.76-16.075 35.835-35.835 35.835-17.606 0-31.93 14.323-31.93 31.93v80.612l.373 32.921-.084-.002c-16.438 0-30.547 9.958-36.631 24.169a51.533 51.533 0 0 0-14.928-2.203c-28.476 0-51.56 23.084-51.56 51.56 0 1.406.146 3.516.39 5.962 1.239 12.407 10.919 22.239 22.999 23.734a96.16 96.16 0 0 1-17.998 1.689c-20.389 0-39.92-6.225-56.538-18.029-13.778-9.786-24.758-23.168-31.831-38.741 30.492-33.278 49.128-77.589 49.128-126.175a2 2 0 0 0-4 0c0 100.876-82.069 182.945-182.946 182.945-29.434 0-57.556-6.809-83.587-20.236-24.419-12.595-46.035-30.869-62.619-52.883 22.477-30.856 35.761-68.816 35.761-109.826a2 2 0 0 0-4 0c0 96.044-74.396 175.036-168.587 182.384-.269.021-.538.04-.807.059-1.238.091-2.48.17-3.725.237-.65.034-1.303.058-1.954.085-.947.04-1.894.083-2.845.108a190.49 190.49 0 0 1-4.478.065c-.173 0-.344.007-.517.007-.173 0-.344-.006-.517-.007a190.49 190.49 0 0 1-4.478-.065c-.951-.026-1.898-.068-2.845-.109-.652-.027-1.303-.052-1.954-.085a183.437 183.437 0 0 1-3.726-.237l-.806-.059a182.249 182.249 0 0 1-25.115-3.738c16.64-9.012 27.85-26.77 27.426-47.12-.558-26.81-21.729-49.155-48.477-51.053-7.872-.559-15.406.627-22.256 3.209-10.428 3.931-21.561 5.546-32.64 4.341a33.938 33.938 0 0 0-3.669-.198c-13.019 0-24.303 7.398-29.898 18.216-21.367-29.933-33.958-66.542-33.958-106.04a2 2 0 0 0-4 0c0 40.707 13.086 78.41 35.262 109.142-11.278 43.027-49.787 73.374-93.649 73.799-20.707.218-40.627-6.031-57.511-18.024-11.64-8.268-21.092-18.938-27.952-31.088 16.188 14.414 46.141 4.634 46.404-20.89a58.457 58.457 0 0 0-2.355-17.096c-2.499-8.514-1.101-17.762 4.276-24.822a58.181 58.181 0 0 0 11.925-35.379c0-31.928-25.586-57.864-57.371-58.464a40.131 40.131 0 0 0-4.987-7.272c-12.723-14.701-34.099-18.184-50.828-8.276-8.202 4.856-16.089 1.735-20.353-2.411-4.283-4.166-7.635-12.001-2.986-20.373 17.302-31.155 50.113-50.509 85.628-50.509 53.966 0 97.871 43.905 97.871 97.871 0 .414.126.799.342 1.118-12.714 21.727-20.014 46.99-20.014 73.928a2 2 0 0 0 4 0c0-54.982 31.232-102.801 76.882-126.666 7.101 14.136 19.216 25.319 34.03 31.173 12.735 5.033 23.097 14.923 28.016 27.703 9.324 24.227 32.821 41.418 60.333 41.418 31.182 0 57.194-22.088 63.272-51.468 14.621 22.407 23.133 49.146 23.133 77.84a2 2 0 0 0 4 0c0-29.233-8.59-56.496-23.374-79.403 26.671-39.737 70.922-63.43 118.658-63.43 78.759 0 142.833 64.074 142.833 142.833a2 2 0 0 0 4 0c0-28.951-8.426-55.969-22.949-78.739a144.755 144.755 0 0 1 12.486-16.192c9.241 14.781 25.646 24.622 44.363 24.622h.145c7.508-.021 14.419 3.971 17.985 10.578 6.557 12.148 19.401 20.402 34.174 20.402 14.959 0 27.938-8.465 34.414-20.866 3.493-6.688 10.472-10.868 18.016-10.696.558.013 1.118.019 1.679.019 23.707 0 44.799-11.16 58.334-28.506 24.956 25.729 40.346 60.788 40.346 99.378a2 2 0 0 0 4 0c0-22.788-5.219-44.38-14.522-63.644l32.362-71.998c17.668-39.309 56.932-64.707 100.028-64.707 19.473 0 35.315 15.843 35.315 35.315v.518z"/></g><path d="M1572.747 43.667c-6.794 0-10.226-1.623-13.544-3.191-3.055-1.444-5.939-2.809-11.836-2.809-5.896 0-8.78 1.364-11.835 2.808-3.318 1.569-6.75 3.192-13.544 3.192-6.793 0-10.225-1.623-13.544-3.192-3.053-1.443-5.938-2.808-11.832-2.808a2 2 0 0 1 0-4c6.793 0 10.224 1.623 13.542 3.191 3.055 1.444 5.938 2.809 11.834 2.809s8.78-1.364 11.835-2.808c3.318-1.569 6.75-3.192 13.544-3.192s10.227 1.623 13.545 3.192c2.965 1.401 5.771 2.728 11.324 2.804l14.788-8.2a2 2 0 1 1 1.94 3.498l-15.247 8.455c-.297.165-.63.251-.97.251z"/><path d="M1587.992 53c-.355 0-.717-.095-1.042-.294l-15.247-9.333a2.001 2.001 0 0 1 2.088-3.412l15.247 9.333a2.001 2.001 0 0 1-1.046 3.706zM595.969 228.584c20.569 0 37.802-14.241 42.403-33.399-10.289-5.539-23.832-10.22-42.403-10.22-18.571 0-32.114 4.682-42.403 10.221 4.602 19.156 21.834 33.398 42.403 33.398zM746.964 228.584c20.568 0 37.8-14.24 42.403-33.397-10.29-5.54-23.834-10.223-42.409-10.223-18.568 0-32.109 4.68-42.398 10.217 4.6 19.159 21.834 33.403 42.404 33.403zM1199.948 228.584c20.568 0 37.8-14.24 42.402-33.395-10.29-5.54-23.835-10.224-42.412-10.224-18.566 0-32.107 4.679-42.395 10.215 4.6 19.16 21.834 33.404 42.405 33.404zM1048.953 228.584c20.568 0 37.8-14.24 42.402-33.396-10.29-5.54-23.834-10.224-42.409-10.224-18.568 0-32.109 4.679-42.397 10.216 4.6 19.16 21.834 33.404 42.404 33.404zM897.958 228.584c20.568 0 37.8-14.24 42.402-33.396-10.29-5.54-23.835-10.223-42.411-10.223-18.567 0-32.108 4.679-42.396 10.216 4.601 19.159 21.835 33.403 42.405 33.403zM1350.942 228.584c20.57 0 37.802-14.242 42.404-33.4-10.29-5.538-23.833-10.219-42.404-10.219s-32.114 4.681-42.404 10.219c4.602 19.158 21.835 33.4 42.404 33.4zM1373.523 78.894c7.051-19.361-.472-40.465-16.958-51.328-8.135 8.562-14.687 18.896-18.987 30.702l-.54 1.484c-5.79 15.897-6.745 32.374-3.62 47.825 17.481-.358 33.763-11.268 40.105-28.683zM1447.208 182.021c.135-24.09-19.529-43.619-43.619-43.619-16.811 0-31.39 9.515-38.673 23.449 15.093 11.911 34.15 19.02 54.869 19.02h1.695c10.197 0 18.497 8.28 18.529 18.47.024 7.615-6.429 13.689-14.043 13.622.001 0 21.068.125 21.242-30.942z"/><path fill="#FFF" d="M1421.481 108.87h-1.695c-9.179 0-16.646-7.467-16.646-16.646v-1.579c0-9.179 7.467-16.646 16.646-16.646h41.059c10.608 0 20.792-4.379 27.94-12.013 7.007-7.483 10.495-17.232 9.823-27.452C1497.333 15.17 1481.116 0 1461.688 0h-41.902c-49.982 0-90.646 40.663-90.646 90.646v1.579c0 49.982 40.663 90.646 90.646 90.646h1.695c9.084 0 16.499 7.39 16.529 16.474.01 3.036-1.196 5.913-3.396 8.102a12.14 12.14 0 0 1-8.634 3.518c-6.265-.056-7.812-1.203-15.246-6.718-11.427-8.474-28.694-21.28-59.792-21.28s-48.365 12.807-59.793 21.281c-7.675 5.693-9.058 6.719-15.711 6.719-6.651 0-8.034-1.025-15.708-6.718-11.426-8.475-28.692-21.282-59.792-21.282s-48.366 12.808-59.792 21.282c-7.673 5.692-9.056 6.718-15.706 6.718-6.647 0-8.03-1.025-15.704-6.717-11.425-8.476-28.691-21.283-59.79-21.283-31.1 0-48.366 12.808-59.792 21.282-7.673 5.692-9.056 6.718-15.706 6.718s-8.033-1.025-15.706-6.718c-11.425-8.475-28.691-21.282-59.792-21.282-31.099 0-48.365 12.808-59.792 21.284-7.672 5.69-9.054 6.716-15.703 6.716-6.65 0-8.033-1.025-15.706-6.718-11.425-8.475-28.691-21.282-59.792-21.282-31.1 0-48.366 12.808-59.791 21.282-7.673 5.692-9.055 6.718-15.705 6.718-6.647 0-8.03-1.025-15.703-6.717-11.425-8.476-28.691-21.283-59.789-21.283-25.229 0-40.81 9.681-52.186 16.749-2.611 1.622-5.078 3.154-7.357 4.378-6.557 3.521-11.532 5.382-16.633 6.224a46.7 46.7 0 0 1-6.725.591l-3.013.059c-19.104 0-35.333-14.809-36.946-33.712-.339-3.973-.915-5.481-1.048-5.792-3.224-7.024-10.305-11.173-18.053-10.568-7.734.604-13.837 5.588-15.926 13.007a88.016 88.016 0 0 0-2.42 11.565c-3.858 27.475 5.132 54.435 24.667 73.97 16.306 16.306 38.027 25.367 61.196 25.517 6.471-.062 12.737-.697 18.64-1.893l.459-.096c.695-.146 1.391-.29 2.092-.458l.125-.029c17.706-4.165 29.104-12.621 37.426-18.795 7.671-5.69 9.053-6.716 15.701-6.716 6.649 0 8.031 1.025 15.703 6.717 11.425 8.476 28.691 21.283 59.789 21.283s48.365-12.808 59.792-21.284c7.672-5.69 9.055-6.716 15.704-6.716 6.65 0 8.032 1.025 15.707 6.717 11.426 8.476 28.692 21.283 59.791 21.283 31.098 0 48.364-12.808 59.791-21.283 7.673-5.691 9.056-6.717 15.705-6.717 6.65 0 8.033 1.025 15.71 6.72 11.426 8.475 28.692 21.28 59.788 21.28 31.098 0 48.364-12.808 59.792-21.283 7.674-5.691 9.056-6.717 15.706-6.717 6.647 0 8.03 1.025 15.704 6.717 11.426 8.476 28.691 21.283 59.79 21.283 31.098 0 48.364-12.808 59.792-21.283 7.674-5.691 9.057-6.717 15.706-6.717 6.65 0 8.034 1.025 15.708 6.718 11.426 8.475 28.692 21.282 59.792 21.282 31.101 0 48.367-12.808 59.793-21.282 7.675-5.692 9.059-6.718 15.711-6.718s8.036 1.025 15.711 6.718c11.426 8.475 28.693 21.282 59.793 21.282 26.795 0 50.742-12.389 66.442-31.73.103-.103.191-.22.27-.344a85.494 85.494 0 0 0 14.38-26.249 1.97 1.97 0 0 0 .165-.487 85.183 85.183 0 0 0 4.307-26.756c.001-49.921-40.611-90.532-90.529-90.532zm82.805 114.909h-25.656a2 2 0 0 0 0 4h24.28a81.524 81.524 0 0 1-12.421 22.041h-22.023a2 2 0 0 0 0 4h18.672c-14.944 16.649-36.612 27.145-60.691 27.145-29.778 0-46.407-12.334-57.41-20.495-7.773-5.765-10.12-7.505-18.094-7.505s-10.32 1.74-18.094 7.505c-11.003 8.161-27.632 20.495-57.41 20.495-29.777 0-46.406-12.334-57.409-20.495-7.772-5.765-10.118-7.505-18.091-7.505-7.972 0-10.317 1.739-18.091 7.505-11.003 8.161-27.631 20.495-57.407 20.495s-46.404-12.334-57.41-20.498c-7.77-5.763-10.114-7.502-18.084-7.502-7.972 0-10.317 1.739-18.091 7.505-11.003 8.161-27.631 20.495-57.407 20.495-29.774 0-46.402-12.332-57.409-20.495-7.772-5.765-10.117-7.505-18.089-7.505-7.971 0-10.316 1.739-18.089 7.505-11.003 8.161-27.63 20.495-57.406 20.495s-46.404-12.334-57.41-20.497c-7.771-5.764-10.117-7.503-18.088-7.503-7.97 0-10.316 1.739-18.089 7.505-11.003 8.161-27.631 20.495-57.407 20.495s-46.403-12.334-57.407-20.496c-7.77-5.765-10.114-7.504-18.085-7.504-7.97 0-10.314 1.739-18.084 7.503-8.008 5.941-18.963 14.067-35.743 18.062l-.244.057c-.693.17-1.392.314-2.089.46l-.451.095c-5.64 1.142-11.652 1.751-17.838 1.81-22.078-.143-42.804-8.788-58.361-24.345-18.639-18.639-27.217-44.366-23.535-70.585a84.037 84.037 0 0 1 2.31-11.038c1.939-6.888 7.67-9.734 12.386-10.103 4.823-.375 11.052 1.594 14.068 8.161.005.012.451 1.217.736 4.551 1.789 20.956 19.768 37.372 40.97 37.372l3.05-.059a50.956 50.956 0 0 0 7.301-.644c5.56-.919 10.905-2.906 17.873-6.646 2.391-1.283 4.91-2.849 7.576-4.505 11.578-7.193 25.988-16.146 50.075-16.146 29.776 0 46.403 12.334 57.407 20.496 7.771 5.765 10.116 7.504 18.085 7.504 7.972 0 10.317-1.74 18.088-7.505 11.003-8.161 27.63-20.495 57.408-20.495 29.778 0 46.406 12.334 57.409 20.495 7.771 5.765 10.117 7.505 18.089 7.505 7.97 0 10.315-1.739 18.087-7.505 11.003-8.161 27.63-20.495 57.408-20.495 29.779 0 46.406 12.334 57.409 20.495 7.771 5.765 10.117 7.505 18.089 7.505s10.317-1.74 18.089-7.505c11.003-8.161 27.632-20.495 57.409-20.495 29.776 0 46.404 12.334 57.41 20.498 7.77 5.763 10.114 7.502 18.084 7.502 7.972 0 10.317-1.74 18.089-7.505 11.003-8.161 27.632-20.495 57.409-20.495s46.406 12.334 57.409 20.495c7.772 5.765 10.118 7.505 18.091 7.505 7.975 0 10.32-1.74 18.095-7.507 11.004-8.16 27.633-20.493 57.409-20.493s46.405 12.333 57.41 20.494c7.701 5.713 10.025 7.437 17.593 7.504l.139.001a16.2 16.2 0 0 0 11.351-4.682c2.965-2.948 4.59-6.838 4.576-10.952-.038-11.281-9.247-20.46-20.529-20.46h-1.695c-47.776 0-86.646-38.869-86.646-86.646v-1.579c0-47.776 38.869-86.646 86.646-86.646h41.902c17.327 0 31.791 13.528 32.928 30.798.6 9.104-2.509 17.789-8.751 24.456-6.396 6.83-15.516 10.747-25.022 10.747h-41.059c-11.384 0-20.646 9.262-20.646 20.646v1.579c0 11.384 9.262 20.646 20.646 20.646h1.695c26.306 0 49.903 11.802 65.786 30.386h-18.803a2 2 0 0 0 0 4h22.023a86.451 86.451 0 0 1 12.459 22.976h-24.317a2 2 0 0 0 0 4h25.644a86.197 86.197 0 0 1 3.712 23.168h-26.344a2 2 0 0 0 0 4h26.318c-.188 7.772-1.446 15.285-3.673 22.378z"/><circle cx="1447.209" cy="37.44" r="8.894"/><path fill="#FFF" d="M969.363 1003.984c18.844-24.784 27.354-50.155 31.157-66.641a58.3 58.3 0 0 0-22.547-4.509c-32.304 0-58.492 26.188-58.492 58.492 0 17.475 7.673 33.15 19.822 43.868a186.394 186.394 0 0 0 29.743-31.621c.103.139.213.272.317.411z"/><circle cx="1478.63" cy="789.78" r="8.894"/></svg>