<svg xmlns="http://www.w3.org/2000/svg" xml:space="preserve" viewBox="0 0 1080 1080"><path d="M849.602 850.26a2 2 0 0 1 0-4c7.141 0 12.949-5.809 12.949-12.948 0-9.346 7.603-16.949 16.948-16.949h9.817a2 2 0 0 1 0 4h-9.817c-7.14 0-12.948 5.809-12.948 12.949 0 9.345-7.604 16.948-16.949 16.948z"/><path d="M864.551 835.312a2 2 0 0 1-2-2v-11.719c0-9.234 7.513-16.747 16.747-16.747h9.646a2 2 0 0 1 0 4h-9.646c-7.028 0-12.747 5.719-12.747 12.747v11.719a2 2 0 0 1-2 2z"/><circle cx="444.286" cy="929.856" r="10.771" fill="#FFF"/><circle cx="821.276" cy="848.26" r="9"/><path d="m891.067 50.624-12.734-7.795 12.66-7.021a2 2 0 1 0-1.94-3.498l-15.202 8.431c-5.727-.077-8.615-1.443-11.669-2.887-3.403-1.609-6.923-3.273-13.889-3.273-6.964 0-10.482 1.663-13.886 3.271-.414.196-.828.392-1.249.584a2 2 0 0 0 1.662 3.638c.438-.2.867-.403 1.296-.606 3.143-1.484 6.111-2.888 12.177-2.888 6.068 0 9.036 1.403 12.18 2.89 3.306 1.563 6.732 3.174 13.312 3.265l15.194 9.301a2 2 0 0 0 2.088-3.412zM528.997 234.735c21.126 0 38.826-14.626 43.554-34.302-10.57-5.69-24.482-10.501-43.563-10.501-19.07 0-32.979 4.806-43.546 10.492 4.724 19.681 22.426 34.311 43.555 34.311zM373.903 234.735c21.126 0 38.826-14.626 43.554-34.302-10.569-5.69-24.481-10.501-43.561-10.501-19.072 0-32.981 4.806-43.548 10.493 4.724 19.68 22.426 34.31 43.555 34.31zM684.091 234.735c21.128 0 38.829-14.629 43.555-34.307-10.569-5.688-24.48-10.496-43.555-10.496s-32.986 4.808-43.555 10.496c4.726 19.679 22.427 34.307 43.555 34.307zM707.285 80.981c7.243-19.886-.485-41.564-17.418-52.722-8.356 8.795-15.086 19.409-19.502 31.535l-.555 1.524c-5.947 16.328-6.928 33.253-3.718 49.124 17.955-.367 34.679-11.573 41.193-29.461zM782.971 186.908c.139-24.744-20.059-44.803-44.803-44.803-17.267 0-32.243 9.774-39.723 24.085 15.503 12.234 35.078 19.537 56.359 19.537h1.741c10.474 0 18.999 8.505 19.032 18.972.025 7.822-6.603 14.06-14.425 13.992.001-.001 21.64.128 21.819-31.783z"/><path fill="#FFF" d="M756.545 111.826h-1.741c-9.457 0-17.151-7.694-17.151-17.151v-1.622c0-9.458 7.694-17.152 17.151-17.152h42.173c10.882 0 21.327-4.491 28.659-12.321 7.188-7.675 10.766-17.675 10.076-28.157C834.404 15.56 817.771 0 797.844 0h-43.04c-51.309 0-93.052 41.743-93.052 93.053v1.622c0 51.309 41.743 93.052 93.052 93.052h1.741c9.36 0 17.001 7.614 17.032 16.975.011 3.134-1.234 6.103-3.505 8.361a12.55 12.55 0 0 1-8.798 3.629l-.108-.001c-6.452-.058-8.043-1.237-15.691-6.91-11.73-8.7-29.458-21.849-61.384-21.849-31.925 0-49.652 13.148-61.384 21.85-7.896 5.856-9.318 6.911-16.17 6.911-6.849 0-8.271-1.055-16.167-6.911-11.587-8.595-29.031-21.522-60.226-21.837v-.012c-.136 0-.266.005-.401.005-.082 0-.16-.004-.242-.004l-.514-.001v.015c-31.193.316-48.639 13.241-60.228 21.838-7.892 5.854-9.313 6.908-16.161 6.908-6.847 0-8.269-1.055-16.164-6.912-11.729-8.7-29.455-21.849-61.378-21.849-25.896 0-41.893 9.938-53.572 17.194-2.684 1.668-5.219 3.242-7.562 4.501-6.741 3.618-11.855 5.532-17.101 6.397-2.163.358-4.489.562-6.916.608l-3.095.06c-19.65 0-36.344-15.231-38.003-34.677-.348-4.072-.937-5.615-1.073-5.932-3.301-7.193-10.562-11.447-18.487-10.823-7.922.618-14.172 5.723-16.311 13.32a90.214 90.214 0 0 0-2.484 11.872c-3.961 28.203 5.268 55.879 25.321 75.932 16.738 16.738 39.036 26.041 62.818 26.194 6.647-.063 13.081-.716 19.138-1.942l.523-.11a72.712 72.712 0 0 0 2.223-.489c18.174-4.275 29.877-12.957 38.425-19.297 7.891-5.854 9.312-6.908 16.156-6.908 6.846 0 8.268 1.055 16.162 6.91 11.729 8.701 29.455 21.851 61.38 21.851s49.651-13.148 61.385-21.852c7.658-5.681 9.24-6.839 15.583-6.903 6.346.064 7.927 1.221 15.59 6.906 11.73 8.701 29.457 21.849 61.381 21.849 31.925 0 49.652-13.148 61.384-21.849 7.896-5.856 9.319-6.912 16.17-6.912 6.853 0 8.274 1.056 16.173 6.914 11.73 8.7 29.458 21.847 61.381 21.847 48.432 0 87.834-39.402 87.834-87.834 0-51.244-41.69-92.934-92.934-92.934zm5.1 176.767c-30.602 0-47.69-12.673-59.001-21.062-7.973-5.914-10.379-7.699-18.553-7.699-8.173 0-10.579 1.785-18.553 7.699-11.309 8.387-28.397 21.062-59.001 21.062-30.603 0-47.69-12.674-59-21.062-7.579-5.622-10.138-7.509-17.393-7.681v-.017c-.201 0-.384.006-.579.009-.194-.002-.377-.009-.579-.009v.017c-7.252.173-9.81 2.059-17.39 7.681-11.308 8.388-28.396 21.062-58.999 21.062s-47.689-12.676-59-21.065c-7.969-5.911-10.374-7.695-18.542-7.695-8.166 0-10.571 1.784-18.542 7.697-8.266 6.131-19.585 14.527-36.982 18.62-.696.169-1.396.315-2.098.462l-.516.108c-5.792 1.173-11.971 1.799-18.333 1.859-22.691-.146-43.994-9.033-59.984-25.022-19.157-19.157-27.974-45.6-24.188-72.547a86.395 86.395 0 0 1 2.373-11.345c2-7.102 7.908-10.037 12.771-10.416 4.971-.396 11.395 1.644 14.505 8.417.004.012.466 1.253.759 4.689 1.835 21.497 20.278 38.337 42.027 38.337l3.133-.06c2.618-.05 5.14-.272 7.492-.661 5.704-.942 11.188-2.981 18.341-6.821 2.455-1.317 5.042-2.925 7.78-4.626 11.898-7.393 26.707-16.593 51.462-16.593 30.602 0 47.688 12.675 58.998 21.063 7.971 5.913 10.376 7.697 18.544 7.697 8.17 0 10.575-1.784 18.547-7.697 11.234-8.334 28.182-20.896 58.42-21.056 30.238.16 47.186 12.721 58.421 21.055 7.974 5.914 10.38 7.698 18.55 7.698 8.173 0 10.579-1.784 18.554-7.699 11.308-8.387 28.396-21.062 59-21.062s47.693 12.675 59.003 21.063c7.898 5.857 10.283 7.626 18.037 7.695 4.354.006 8.661-1.707 11.763-4.792 3.034-3.019 4.698-7 4.684-11.211-.039-11.558-9.474-20.961-21.032-20.961h-1.741c-49.104 0-89.052-39.948-89.052-89.052V93.05C665.752 43.949 705.7 4 754.804 4h43.04c17.826 0 32.707 13.918 33.876 31.685.616 9.366-2.581 18.302-9.004 25.16-6.578 7.026-15.96 11.056-25.739 11.056h-42.173c-11.663 0-21.151 9.489-21.151 21.152v1.622c0 11.663 9.488 21.151 21.151 21.151h1.741c27.078 0 51.364 12.168 67.689 31.319h-20.43a2 2 0 0 0 0 4h23.634l.012-.001a88.827 88.827 0 0 1 12.848 23.708h-25.054a2 2 0 0 0 0 4h26.38a88.555 88.555 0 0 1 3.828 23.906h-27.114a2 2 0 0 0 0 4h27.089c-.189 8.024-1.489 15.778-3.791 23.097h-26.392a2 2 0 0 0 0 4h25.019c-3.074 8.279-7.432 15.934-12.812 22.748h-22.647a2 2 0 0 0 0 4h19.298c-15.362 17.164-37.665 27.99-62.457 27.99z"/><circle cx="782.972" cy="38.402" r="9"/><path fill="#41E847" d="M341.295 357.893a75.514 75.514 0 0 0-38.178 20.623 75.92 75.92 0 0 0-9.8 12.051 75.982 75.982 0 0 0 1.592-15.451 75.509 75.509 0 0 0-12.414-41.578 75.52 75.52 0 0 0-12.414 41.578c0 5.297.556 10.462 1.591 15.451a76.021 76.021 0 0 0-9.8-12.051 75.522 75.522 0 0 0-38.178-20.623 75.514 75.514 0 0 0 20.623 38.178 75.493 75.493 0 0 0 36.178 20.171v71.59c-6.683-15.56-21.11-27.115-38.368-29.7a75.498 75.498 0 0 0-24.036-33.168 75.515 75.515 0 0 0-40.295-16.098 75.52 75.52 0 0 0 24.874 35.555 75.986 75.986 0 0 0 13.097 8.35 75.954 75.954 0 0 0-15.532.195 75.519 75.519 0 0 0-39.876 17.11 75.52 75.52 0 0 0 42.729 7.553 75.492 75.492 0 0 0 38.007-15.604c22.183 3.099 39.4 22.305 39.4 45.236V628h4V416.241a75.493 75.493 0 0 0 36.178-20.171 75.517 75.517 0 0 0 20.622-38.177zM817.868 483.059a75.954 75.954 0 0 0-15.532-.195 75.986 75.986 0 0 0 13.097-8.35 75.52 75.52 0 0 0 24.874-35.555 75.515 75.515 0 0 0-40.295 16.098 75.498 75.498 0 0 0-24.036 33.168c-17.258 2.585-31.686 14.14-38.369 29.7v-30.911a75.5 75.5 0 0 0 15.529-37.915 75.51 75.51 0 0 0-7.553-42.729 75.519 75.519 0 0 0-17.11 39.876 75.945 75.945 0 0 0-.195 15.531 75.986 75.986 0 0 0-8.35-13.097 75.526 75.526 0 0 0-35.555-24.874 75.523 75.523 0 0 0 16.098 40.295c8.968 11.314 20.514 19.37 33.136 24.025v142.869a2 2 0 0 0 4 0v-93.642c0-22.931 17.217-42.137 39.4-45.236a75.492 75.492 0 0 0 38.007 15.604 75.51 75.51 0 0 0 42.729-7.553 75.519 75.519 0 0 0-39.875-17.109z"/><path fill="#FFF" d="M890.104 603.731a2 2 0 0 0-2.626 1.05l-6.477 15.11-7.987-15.25a2 2 0 1 0-3.543 1.855l9.711 18.541v12.788c0 9.586-7.798 17.384-17.383 17.384h-9.128a2 2 0 0 0 0 4h9.128c11.79 0 21.383-9.593 21.383-21.384v-12.87l7.972-18.598a2 2 0 0 0-1.05-2.626z"/><path fill="#41E847" d="M772.133 649.795a25.586 25.586 0 0 0-19.752.24l-8.724 3.776a28.387 28.387 0 0 1-11.277 2.335h-2.099c-31.631 0-58.631-22.854-63.856-54.05l-2.643-12.578c-3.245-19.375-10.701-42.552-26.166-54.666-19.469-15.249-48.046-19.188-72.109-19.188h-49.912a10.671 10.671 0 0 1-7.412-2.984s-2.499-2.132-3.292-7.417c-2.285-20.402-13.056-38.238-28.708-49.89-11.911-8.868-26.644-14.156-42.608-14.268-40.046-.282-72.812 33.123-72.812 73.17v23.728l-.037 38.443c-1.21 41.991-35.204 75.884-77.476 76.69l-18.844 2.023a5.998 5.998 0 0 0-5.879 6.24c.129 3.259 2.979 5.756 6.241 5.756h54.051c39.771-.663 72.277-33.082 77.09-71.566.699-5.593 5.426-9.799 11.062-9.682l.504.01c5.966.124 10.737 4.996 10.737 10.963v70.275h61.024v-36.928a8.775 8.775 0 0 1 8.775-8.775h85.192a8.775 8.775 0 0 1 8.775 8.775v36.928H643l-.177-45.703.046-11.988c.021-5.412 7.7-6.443 9.148-1.228l.318 1.144c9.476 34.143 40.56 57.775 75.994 57.775h86.743l-42.939-17.36zM396.636 538.999c-6.155 0-11.145-4.99-11.145-11.145s4.99-11.145 11.145-11.145 11.145 4.99 11.145 11.145-4.989 11.145-11.145 11.145zm114.973 8.953c0 13.258-10.786 24.044-24.044 24.044h-7.015c-13.258 0-24.043-10.786-24.043-24.044v-49.184c0-4.956-4.032-8.987-8.988-8.987a2 2 0 0 1 0-4c7.162 0 12.988 5.826 12.988 12.987v49.184c0 11.053 8.991 20.044 20.043 20.044h7.015c11.053 0 20.044-8.991 20.044-20.044v-9.457a2 2 0 0 1 4 0v9.457z"/><path d="M839.614 669.154H225.701c-8.483 0-15.385-6.901-15.385-15.385 0-7.188 5.099-13.511 12.123-15.035l85.51-18.554c17.987-3.902 31.042-20.094 31.042-38.5v-86.605c0-49.023 39.883-88.906 88.905-88.906l.594-.001c51.266 0 77.485 16.122 90.453 55.559 7.442 21.762 14.478 32.837 32.248 32.914l46.197.202c23.546.104 45.705 9.306 62.396 25.913 16.67 16.585 25.983 38.659 26.229 62.17a50.735 50.735 0 0 0 50.619 45.692h34.59l44.446.463c14.621.096 28.124 8.097 35.232 20.882 2.248 4.043 2.189 8.837-.156 12.824-2.343 3.986-6.505 6.367-11.13 6.367zM428.512 410.168l-.61.001c-46.822 0-84.91 38.089-84.91 84.906v86.605c0 20.275-14.381 38.11-34.194 42.408l-85.51 18.554c-5.198 1.128-8.971 5.808-8.971 11.127 0 6.277 5.107 11.385 11.385 11.385h613.913c3.193 0 6.065-1.644 7.685-4.396s1.659-6.062.107-8.853c-6.408-11.525-18.582-18.739-31.77-18.825l-44.434-.463h-34.569a54.721 54.721 0 0 1-54.608-49.381l-.01-.182c-.213-22.486-9.11-43.604-25.052-59.465s-37.105-24.649-59.593-24.748l-46.197-.202c-20.064-.087-28.14-12.594-36.023-35.642-12.492-37.987-36.808-52.829-86.639-52.829z"/><circle cx="822.972" cy="650.162" r="9"/><g fill="#FFF"><path d="M165.72 128.104h-18.021l12.742-12.742a2 2 0 1 0-2.828-2.828l-12.742 12.742v-18.02a2 2 0 0 0-4 0v18.02l-12.742-12.742a2 2 0 1 0-2.828 2.828l12.742 12.742h-18.02a2 2 0 0 0 0 4h18.02l-12.742 12.742a2 2 0 1 0 2.828 2.828l12.742-12.742v18.021a2 2 0 0 0 4 0v-18.021l12.742 12.742c.391.391.902.586 1.414.586s1.023-.195 1.414-.586a2 2 0 0 0 0-2.828l-12.742-12.742h18.021a2 2 0 0 0 0-4zM959.731 128.104H941.71l12.742-12.742a2 2 0 1 0-2.828-2.828l-12.742 12.742v-18.02a2 2 0 0 0-4 0v18.02l-12.742-12.742a2 2 0 1 0-2.828 2.828l12.742 12.742h-18.02a2 2 0 0 0 0 4h18.02l-12.742 12.742a2 2 0 1 0 2.828 2.828l12.742-12.742v18.021a2 2 0 0 0 4 0v-18.021l12.742 12.742c.391.391.902.586 1.414.586s1.023-.195 1.414-.586a2 2 0 0 0 0-2.828l-12.742-12.742h18.021a2 2 0 0 0 0-4z"/></g><path d="M165.72 537h-18.021l12.742-12.742a2 2 0 1 0-2.828-2.828l-12.742 12.742v-18.02a2 2 0 0 0-4 0v18.02l-12.742-12.742a2 2 0 1 0-2.828 2.828L138.043 537h-18.02a2 2 0 0 0 0 4h18.02l-12.742 12.742a2 2 0 1 0 2.828 2.828l12.742-12.742v18.021a2 2 0 0 0 4 0v-18.021l12.742 12.742c.391.391.902.586 1.414.586s1.023-.195 1.414-.586a2 2 0 0 0 0-2.828L147.699 541h18.021a2 2 0 0 0 0-4zM106.708 537h-18.02l12.742-12.742a2 2 0 1 0-2.828-2.828L85.86 534.172v-18.02a2 2 0 0 0-4 0v18.02L69.117 521.43a2 2 0 1 0-2.828 2.828L79.031 537h-18.02a2 2 0 0 0 0 4h18.02l-12.742 12.742a2 2 0 1 0 2.828 2.828l12.742-12.742v18.021a2 2 0 0 0 4 0v-18.021l12.742 12.742c.391.391.902.586 1.414.586s1.023-.195 1.414-.586a2 2 0 0 0 0-2.828L88.688 541h18.021a2 2 0 0 0-.001-4zM1012.085 537h-18.02l12.742-12.742a2 2 0 1 0-2.828-2.828l-12.741 12.742v-18.019a2 2 0 0 0-4 0v18.02l-12.742-12.743a2 2 0 1 0-2.828 2.828L984.409 537h-18.02a2 2 0 0 0 0 4h18.02l-12.742 12.742a2 2 0 1 0 2.828 2.828l12.742-12.742v18.021a2 2 0 0 0 4 0v-18.02l12.741 12.741c.391.391.902.586 1.414.586s1.023-.195 1.414-.586a2 2 0 0 0 0-2.828L994.065 541h18.02a2 2 0 0 0 0-4zM953.073 537h-18.02l12.742-12.742a2 2 0 1 0-2.828-2.828l-12.742 12.742v-18.02a2 2 0 0 0-4 0v18.02l-12.742-12.742a2 2 0 1 0-2.828 2.828L925.397 537h-18.021a2 2 0 0 0 0 4h18.021l-12.742 12.742a2 2 0 1 0 2.828 2.828l12.742-12.742v18.021a2 2 0 0 0 4 0v-18.021l12.742 12.742c.391.391.902.586 1.414.586s1.023-.195 1.414-.586a2 2 0 0 0 0-2.828L935.054 541h18.02a2 2 0 0 0-.001-4zM165.72 943.382h-18.021l12.742-12.742a2 2 0 1 0-2.828-2.828l-12.742 12.742v-18.021a2 2 0 0 0-4 0v18.021l-12.742-12.742a2 2 0 1 0-2.828 2.828l12.742 12.742h-18.02a2 2 0 0 0 0 4h18.02l-12.742 12.742a2 2 0 1 0 2.828 2.828l12.742-12.742v18.02a2 2 0 0 0 4 0v-18.02l12.742 12.742c.391.391.902.586 1.414.586s1.023-.195 1.414-.586a2 2 0 0 0 0-2.828l-12.742-12.742h18.021a2 2 0 0 0 0-4zM106.708 943.382h-18.02l12.742-12.742a2 2 0 1 0-2.828-2.828L85.86 940.554v-18.021a2 2 0 0 0-4 0v18.021l-12.742-12.742a2 2 0 1 0-2.828 2.828l12.742 12.742h-18.02a2 2 0 0 0 0 4h18.02L66.29 960.124a2 2 0 1 0 2.828 2.828L81.86 950.21v18.02a2 2 0 0 0 4 0v-18.02l12.742 12.742c.391.391.902.586 1.414.586s1.023-.195 1.414-.586a2 2 0 0 0 0-2.828l-12.742-12.742h18.021a2 2 0 0 0-.001-4z"/><path fill="#FFF" d="M47.696 943.382h-18.02l12.742-12.742a2 2 0 1 0-2.828-2.828l-12.742 12.743v-18.021a2 2 0 0 0-4 0v18.02l-12.741-12.742a2 2 0 1 0-2.828 2.828l12.742 12.742H2a2 2 0 0 0 0 4h18.02L7.278 960.124a2 2 0 1 0 2.828 2.828l12.741-12.741v18.019a2 2 0 0 0 4 0v-18.02l12.742 12.742c.391.391.902.586 1.414.586s1.023-.195 1.414-.586a2 2 0 0 0 0-2.828l-12.742-12.742h18.02a2 2 0 0 0 .001-4z"/><path d="M959.731 943.382H941.71l12.742-12.742a2 2 0 1 0-2.828-2.828l-12.742 12.742v-18.021a2 2 0 0 0-4 0v18.021l-12.742-12.742a2 2 0 1 0-2.828 2.828l12.742 12.742h-18.02a2 2 0 0 0 0 4h18.02l-12.742 12.742a2 2 0 1 0 2.828 2.828l12.742-12.742v18.02a2 2 0 0 0 4 0v-18.02l12.742 12.742c.391.391.902.586 1.414.586s1.023-.195 1.414-.586a2 2 0 0 0 0-2.828l-12.742-12.742h18.021a2 2 0 0 0 0-4z"/><path fill="#FFF" d="M1078 943.382h-18.02l12.742-12.742a2 2 0 1 0-2.828-2.828l-12.741 12.742v-18.02a2 2 0 0 0-4 0v18.021l-12.742-12.743a2 2 0 1 0-2.828 2.828l12.742 12.742h-18.02a2 2 0 0 0 0 4h18.02l-12.742 12.742a2 2 0 1 0 2.828 2.828l12.742-12.742v18.02a2 2 0 0 0 4 0v-18.019l12.741 12.741c.391.391.902.586 1.414.586s1.023-.195 1.414-.586a2 2 0 0 0 0-2.828l-12.742-12.742H1078a2 2 0 0 0 0-4z"/><path d="M1018.988 943.382h-18.02l12.742-12.742a2 2 0 1 0-2.828-2.828l-12.742 12.742v-18.021a2 2 0 0 0-4 0v18.021l-12.742-12.742a2 2 0 1 0-2.828 2.828l12.742 12.742h-18.021a2 2 0 0 0 0 4h18.021l-12.742 12.742a2 2 0 1 0 2.828 2.828l12.742-12.742v18.02a2 2 0 0 0 4 0v-18.02l12.742 12.742c.391.391.902.586 1.414.586s1.023-.195 1.414-.586a2 2 0 0 0 0-2.828l-12.742-12.742h18.02a2 2 0 0 0 0-4z"/><g fill="#FFF"><path d="M584.238 978.139c-8.202-1.721-16.881 1.056-22.559 7.223-2.829 3.072-3.608 7.352-6.229 10.233-2.948 3.242-7.869 4.26-11.213 7.062-3.871 3.244-6.404 7.884-7.066 12.889-1.381 10.448 5.689 20.362 16.014 22.475 7.787 1.594 15.391-1.496 19.972-7.29 2.333-2.95 5.642-4.938 9.368-5.443 10.327-1.399 18.983-9.494 20.497-20.486 1.702-12.344-6.588-24.104-18.784-26.663z"/><path d="M818.095 818.362c-35.462 0-67.771 20.899-82.309 53.244l-24.174 53.783c-19.646-36.617-58.302-61.577-102.683-61.577-38.486 0-74.189 18.888-96.003 50.632-21.01-30.554-56.207-50.632-96.009-50.632a116.059 116.059 0 0 0-62.627 18.295c-14.268-26.004-41.249-42.067-70.958-42.067-29.364 0-56.49 15.999-70.793 41.754-3.832 6.898-2.657 14.907 2.993 20.403 5.629 5.475 13.639 6.424 20.404 2.419 11.727-6.943 26.714-4.504 35.632 5.803a28.181 28.181 0 0 1 6.05 25.144l-5.38 14.34a163.633 163.633 0 0 0-9.527 40.354c-3.09 29.398 9.648 58.074 33.245 74.837 13.743 9.762 29.889 14.907 46.747 14.907.268 0 .538-.001.807-.004 34.974-.339 65.82-23.673 76.337-57.221 13.216 16.94 30.151 31.018 49.187 40.837 20.785 10.722 44.192 16.389 67.691 16.389.102 0 .204-.004.306-.004.102 0 .204.004.306.004 23.835 0 46.609-5.514 67.691-16.389 14.169-7.309 27.17-16.984 38.347-28.435 5.863 11.969 14.566 22.268 25.333 29.917 13.743 9.762 29.889 14.907 46.747 14.907.268 0 .538-.001.807-.004 44.178-.428 80.119-37.177 80.119-81.942l-.347-30.563V903.81c0-11.938 9.712-21.65 21.65-21.65 17.588 0 31.897-14.31 31.897-31.897v-.41c0-17.366-14.125-31.491-31.486-31.491zm27.486 31.898c0 15.383-12.515 27.897-27.897 27.897-14.144 0-25.65 11.507-25.65 25.65v63.705l.347 30.563a78.67 78.67 0 0 1-.394 7.88l-.074-6.544c-.338-.012-.676-.026-1.018-.026-12.059 0-22.408 7.305-26.872 17.73a37.83 37.83 0 0 0-10.952-1.616c-20.89 0-37.824 16.934-37.824 37.824 0 1.031.107 2.579.286 4.373.82 8.206 6.677 14.867 14.315 16.905a75.497 75.497 0 0 1-13.626 1.394c-16.348.167-31.93-4.739-45.198-14.165-10.625-7.547-19.133-17.817-24.7-29.765 3.574-3.878 7.137-8.401 10.469-13.538 17.653-24.386 28.076-54.333 28.076-86.672a2 2 0 0 0-4 0c0 79.379-64.497 143.974-143.838 144.14-28.661-.06-55.382-8.531-77.828-23.065 14.431-2.551 27.212-12.421 32.715-27.24 7.636-20.566-1.753-43.933-21.533-53.419-5.822-2.792-11.91-4.155-17.898-4.25-9.116-.145-18.072-2.263-26.139-6.511a27.802 27.802 0 0 0-2.732-1.254c-9.301-3.675-19.396-1.924-26.811 3.723a144.076 144.076 0 0 1-3.612-32.124 2 2 0 0 0-4 0c0 32.186 10.323 62.003 27.824 86.326-8.928 33.716-39.14 57.48-73.546 57.813-16.31.167-31.929-4.739-45.198-14.165-13.092-9.3-22.658-22.47-27.773-37.385 8.809 19.46 38.674 13.5 39.008-8.336l.005-.449a42.883 42.883 0 0 0-1.669-12.1c-1.802-6.255-.742-13.034 3.228-18.193a42.683 42.683 0 0 0 8.878-25.91c.114-22.799-17.576-41.525-40.02-43.02a32.09 32.09 0 0 0-5.335-8.637c-10.188-11.771-27.302-14.56-40.695-6.627-6.279 3.716-12.314 1.328-15.577-1.846-3.278-3.188-5.845-9.186-2.286-15.594 13.599-24.484 39.385-39.695 67.297-39.695 28.353 0 54.09 15.395 67.613 40.29a117.126 117.126 0 0 0-31.363 32.07 2.001 2.001 0 0 0 3.342 2.2c8.436-12.815 19.18-23.545 31.482-31.794.026-.012.053-.018.078-.031.164-.084.304-.193.433-.312 18.118-12.006 39.571-18.65 62-18.65 62.003 0 112.446 50.443 112.446 112.446a2 2 0 0 0 4 0c0-22.861-6.626-44.201-18.052-62.209a113.346 113.346 0 0 1 22.412-24.766 107.053 107.053 0 0 0-7.537 7.558c6.607 11.574 19.056 19.382 33.337 19.382h.106c5.508-.015 10.578 2.913 13.194 7.76 4.81 8.912 14.233 14.967 25.07 14.967 10.974 0 20.495-6.21 25.246-15.307 2.562-4.907 7.682-7.973 13.216-7.847.409.01.82.014 1.231.014 17.905 0 33.778-8.678 43.66-22.053 22.204 20.554 36.129 49.93 36.129 82.501a2 2 0 0 0 4 0c0-18.002-4.108-35.063-11.433-50.296l25.493-56.716c13.894-30.911 44.77-50.885 78.66-50.885 15.156 0 27.486 12.331 27.486 27.487v.414z"/></g></svg>