<svg xmlns="http://www.w3.org/2000/svg" xml:space="preserve" viewBox="0 0 1920 1080"><path fill="#FFF" d="M1463.276 990.451a1.996 1.996 0 0 1-1.996-1.996c0-35.281 28.703-63.985 63.984-63.985 8.321 0 16.396 1.577 24.046 4.69 6.55-46.625 46.435-81.459 93.858-81.459 28.671 0 55.316 12.669 73.42 34.829a55.043 55.043 0 0 1 32.916-10.97 54.826 54.826 0 0 1 51.268 35.254 40.33 40.33 0 0 1 18.912-4.696c22.266 0 40.381 18.115 40.381 40.38a1.996 1.996 0 0 1-3.992 0c0-20.065-16.324-36.388-36.389-36.388a36.317 36.317 0 0 0-18.949 5.318 1.993 1.993 0 0 1-2.934-1.071 50.844 50.844 0 0 0-48.297-34.805 51.025 51.025 0 0 0-31.989 11.314 1.995 1.995 0 0 1-2.826-.32c-17.353-22.149-43.421-34.852-71.521-34.852-46.288 0-85.078 34.64-90.228 80.574a1.994 1.994 0 0 1-2.812 1.593 59.5 59.5 0 0 0-24.864-5.399c-33.08 0-59.992 26.913-59.992 59.993a1.996 1.996 0 0 1-1.996 1.996zM1918.004 805.185a1.996 1.996 0 0 1-1.996-1.996c0-47.2-38.401-85.601-85.601-85.601-15.368 0-30.445 4.125-43.602 11.928a1.996 1.996 0 0 1-2.552-.439c-16.331-19.606-40.314-30.85-65.798-30.85-2.131 0-4.299.081-6.442.24a1.999 1.999 0 0 1-2.145-2.013l.003-.222c0-47.201-38.4-85.601-85.6-85.601-30.218 0-57.614 15.453-73.283 41.339a1.994 1.994 0 0 1-2.839.61c-14.295-9.839-31.054-15.039-48.466-15.039-47.2 0-85.601 38.4-85.601 85.6a1.996 1.996 0 0 1-3.992 0c0-49.401 40.191-89.592 89.593-89.592 17.523 0 34.417 5.033 48.993 14.577 16.562-26.02 44.665-41.487 75.595-41.487 48.773 0 88.569 39.176 89.572 87.715a91.383 91.383 0 0 1 4.611-.118c26.11 0 50.715 11.278 67.774 31 13.422-7.62 28.659-11.64 44.178-11.64 49.402 0 89.593 40.191 89.593 89.593a1.995 1.995 0 0 1-1.995 1.996zM1559.448 20.646l-31.266 137.744a34.888 34.888 0 0 0 1.171 30.858 34.89 34.89 0 0 0-25.206-17.841l-132.45-49.071c-28.558-4.535-49.92 25.646-36.149 51.072l55.618 102.687c19.111 35.284 66 43.761 96.255 17.4a22.213 22.213 0 0 0-4.919 27.309l20.755 38.32c2.354 4.346 5.775 7.516 9.683 9.498 12.988 6.59 28.681-1.586 31.554-15.864l16.577-82.372c2.593-10.599 4.102-15.004.392-21.854 3.71 6.85 7.913 7.838 18.518 11.612l78.047 31.121c13.529 5.394 28.951-3.282 30.527-17.761.474-4.356-.311-8.954-2.665-13.3l-20.755-38.32a22.216 22.216 0 0 0-25.561-10.801c38.608-10.938 57.127-54.841 38.016-90.125l-55.618-102.687c-13.77-25.424-50.719-24.022-62.524 2.375zm-133.931 206.311-31.56-11.212c-11.278-4.007-17.173-16.398-13.167-27.676 4.007-11.278 16.397-17.173 27.676-13.166l31.56 11.212c11.278 4.007 17.173 16.398 13.167 27.676-4.006 11.278-16.397 17.172-27.676 13.166zm45.607 41.921c-8.566 4.64-19.272 1.457-23.912-7.11-4.64-8.566-1.457-19.272 7.11-23.912 8.566-4.64 19.272-1.457 23.912 7.11 4.639 8.567 1.456 19.273-7.11 23.912zm156.738-84.893c-8.566 4.64-19.272 1.457-23.912-7.11-4.64-8.566-1.456-19.272 7.11-23.912 8.566-4.64 19.272-1.457 23.912 7.11 4.64 8.566 1.457 19.272-7.11 23.912zm-2.341-93.661-7.853 32.559c-2.806 11.635-14.514 18.793-26.149 15.986-11.635-2.806-18.792-14.513-15.986-26.149l7.853-32.559c2.806-11.635 14.513-18.793 26.149-15.986 11.635 2.807 18.793 14.514 15.986 26.149z"/><path d="M1535.762 183.557c2.275-4.303 2.429-9.626-.063-14.227-3.963-7.316-13.106-10.035-20.422-6.072-7.316 3.963-10.035 13.106-6.072 20.422 2.492 4.601 7.034 7.38 11.882 7.826-1.714 3.798-1.712 8.318.426 12.264l27.794 51.316c3.633 6.707 12.015 9.2 18.723 5.567 6.707-3.633 9.2-12.015 5.567-18.722l-27.794-51.316c-2.14-3.947-5.924-6.419-10.041-7.058z"/><path d="M1528.9 176.719a1.994 1.994 0 0 1-1.757-1.046l-26.407-48.755c-2.912-5.376-4.442-11.14-4.425-16.668a35.156 35.156 0 0 1 4.39-16.857c7.6-13.747 24.97-18.748 38.718-11.146 11.191 6.187 15.26 20.326 9.073 31.516-5.057 9.145-16.612 12.47-25.756 7.414a15.457 15.457 0 0 1-7.424-9.312 15.46 15.46 0 0 1 1.336-11.835 12.764 12.764 0 0 1 7.689-6.13 12.773 12.773 0 0 1 9.771 1.103 1.994 1.994 0 0 1 .781 2.712 1.993 1.993 0 0 1-2.712.781 8.801 8.801 0 0 0-6.735-.76 8.805 8.805 0 0 0-5.301 4.226 11.493 11.493 0 0 0-.993 8.798 11.494 11.494 0 0 0 5.52 6.924c7.217 3.989 16.339 1.367 20.332-5.853 5.122-9.265 1.752-20.969-7.512-26.092-11.824-6.534-26.757-2.236-33.294 9.585a31.138 31.138 0 0 0-3.891 14.938c-.015 4.863 1.349 9.966 3.944 14.756l26.407 48.755a1.996 1.996 0 0 1-1.754 2.946zM1517.794 182.735a1.994 1.994 0 0 1-1.757-1.046l-26.407-48.755c-2.594-4.79-6.124-8.72-10.205-11.365a31.136 31.136 0 0 0-14.636-4.901c-6.529-.476-12.848 1.616-17.799 5.893-4.952 4.278-7.942 10.228-8.418 16.754a19.072 19.072 0 0 0 4.619 13.949 19.072 19.072 0 0 0 13.129 6.597c8.235.605 15.409-5.602 16.011-13.83a11.492 11.492 0 0 0-2.783-8.405 11.492 11.492 0 0 0-7.912-3.975c-4.844-.372-9.122 3.315-9.477 8.186-.081 1.099-1.04 1.901-2.136 1.846a1.998 1.998 0 0 1-1.846-2.136 12.758 12.758 0 0 1 4.416-8.786 12.772 12.772 0 0 1 9.334-3.091 15.46 15.46 0 0 1 10.642 5.347 15.46 15.46 0 0 1 3.745 11.306 18.827 18.827 0 0 1-6.514 12.961c-3.83 3.309-8.727 4.92-13.769 4.56-6.177-.451-11.81-3.282-15.859-7.97s-6.031-10.671-5.58-16.849c.555-7.59 4.032-14.51 9.79-19.484 5.76-4.975 13.115-7.4 20.699-6.855a35.168 35.168 0 0 1 16.517 5.532c4.641 3.008 8.632 7.44 11.544 12.814l26.407 48.756a1.996 1.996 0 0 1-1.755 2.947z"/><path fill="#FFF" d="m89.65 1028.046 2.76-2.885 54.318 51.943-2.759 2.885z"/><path d="M1053.555 869.878h436.173V1080h-436.173z"/><path fill="#FFF" d="M1449.45 911.156h-395.895V830.6h395.895c22.245 0 40.278 18.033 40.278 40.278 0 22.245-18.033 40.278-40.278 40.278z"/><path d="M1450.008 852.693h-396.453v-3.992h396.453a1.995 1.995 0 1 1 0 3.992zM1450.008 873.872h-396.453v-3.992h396.453a1.996 1.996 0 1 1 0 3.992zM1450.008 895.05h-396.453v-3.992h396.453a1.995 1.995 0 1 1 0 3.992z"/><path fill="#FFF" d="M856.718 920.704v-82.218c0-31.407-25.29-56.958-56.696-57.279h-89.951v-68.445h170.513v58.512c0 6.909 5.601 12.51 12.51 12.51H960l-103.282 136.92z"/><path fill="#71EFB4" d="M501.299 711.071v-92.419h208.772v164.551h39.07c-26.166 52.762-80.57 89.038-143.456 89.038-4.593 0-9.134-.216-13.629-.596V711.376l-90.757-.305z"/><path d="M605.685 874.236c-4.477 0-8.99-.197-13.796-.602l.335-3.978c4.694.397 9.097.589 13.461.589 30.007 0 59.202-8.445 84.43-24.424a158.561 158.561 0 0 0 55.771-60.623h-37.811v-164.55h-204.78v90.423h-3.992v-94.415h212.763v164.551h40.292l-1.429 2.883a162.567 162.567 0 0 1-58.678 65.105c-25.867 16.382-55.802 25.041-86.566 25.041z"/><path fill="#71EFB4" d="M880.245 322.721c-3.669.031-7.28.289-10.839.716-34.133-114.464-140.634-197.513-266.068-196.505-125.441 1.004-230.605 85.746-262.902 200.742a96.448 96.448 0 0 0-10.832-.539c-52.8.417-95.257 43.565-94.835 96.363.422 52.802 43.569 95.255 96.365 94.832a95.778 95.778 0 0 0 23.285-3.064c43.463 96.417 140.765 163.195 253.326 162.296 112.556-.905 208.779-69.229 250.693-166.334a95.927 95.927 0 0 0 23.337 2.689c52.794-.42 95.248-43.562 94.827-96.361-.424-52.799-43.564-95.258-96.357-94.835zM281.73 397.829l59.138 63.27"/><path d="M340.869 463.095a1.985 1.985 0 0 1-1.458-.633l-59.139-63.27a1.995 1.995 0 1 1 2.916-2.724l59.139 63.27a1.995 1.995 0 0 1-1.458 3.357z"/><path fill="#71EFB4" d="m917.808 392.731-58.12 64.214"/><path d="M859.687 458.94a1.995 1.995 0 0 1-1.479-3.335l58.12-64.214a1.995 1.995 0 1 1 2.959 2.678l-58.12 64.214a1.988 1.988 0 0 1-1.48.657z"/><path fill="#71EFB4" d="m605.473 418.024.424 68.996"/><path d="M605.897 489.016a1.995 1.995 0 0 1-1.995-1.983l-.424-71.995a1.997 1.997 0 0 1 1.984-2.009h.013c1.096 0 1.989.886 1.995 1.983l.424 71.995a1.997 1.997 0 0 1-1.984 2.009h-.013zM561.325 436.746c-16.864-24.156-44.402-38.515-73.783-38.515-.24 0-.483.001-.724.003-29.646.238-57.263 15.08-73.874 39.701a1.997 1.997 0 0 0 1.652 3.112c.641 0 1.271-.308 1.657-.88 15.875-23.53 42.266-37.714 70.597-37.941a85.933 85.933 0 0 1 12.258.788c-16.617 3.452-29.044 18.234-28.9 35.852.16 20.066 16.554 36.198 36.615 36.036 20.054-.162 36.195-16.555 36.037-36.617a36.14 36.14 0 0 0-7.066-21.221 86.115 86.115 0 0 1 22.257 21.967 1.995 1.995 0 0 0 2.779.494 1.995 1.995 0 0 0 .495-2.779zM798.408 434.847c-16.866-24.156-44.407-38.516-73.789-38.516l-.718.003c-29.641.237-57.261 15.078-73.882 39.7a1.996 1.996 0 0 0 3.308 2.234c15.885-23.531 42.28-37.715 70.606-37.941a86.406 86.406 0 0 1 12.21.794c-16.596 3.467-29.002 18.242-28.86 35.845.16 20.067 16.554 36.198 36.615 36.036 20.063-.161 36.203-16.551 36.043-36.617a36.146 36.146 0 0 0-7.058-21.211 86.029 86.029 0 0 1 22.251 21.959 1.996 1.996 0 0 0 3.274-2.286zM443.004 623.671s-22.619-14.628-48.077-44.091h.009l-.175-.191a302.556 302.556 0 0 1-5.881-7.032c-7.792-9.852-21.831-29.488-34.461-57.089l-39.909 66.185 70.859-1.65-19.884 65.375 77.519-21.507z"/><path d="M949.462 348.758c-18.389-18.098-42.661-28.035-68.429-28.035l-.804.003h-.001a97.59 97.59 0 0 0-9.392.543c-17.011-55.775-52.13-105.791-99.029-140.982a281.488 281.488 0 0 0-21.315-14.505l20.189-71.175-107.98 31.138 20.468-72.665-149.296 81.148c-35.361 9.398-68.556 25.805-98.138 48.75-46.332 35.937-80.647 86.508-96.763 142.549a97.292 97.292 0 0 0-9.383-.389c-26.069.206-50.496 10.553-68.782 29.135-18.286 18.581-28.241 43.172-28.033 69.241.429 53.551 44.127 96.819 97.585 96.816a98.126 98.126 0 0 0 22.932-2.723c45.177 98.641 143.825 161.966 252.245 161.96.737 0 1.488-.003 2.226-.009 109.288-.878 207.956-65.983 251.843-166.011a98.603 98.603 0 0 0 22.186 2.364c26.067-.207 50.492-10.553 68.777-29.135 18.284-18.579 28.239-43.169 28.03-69.238-.21-26.067-10.557-50.494-29.136-68.78zm-1.741 135.221c-17.537 17.82-40.963 27.743-65.963 27.942-7.681.043-15.373-.824-22.852-2.633l-1.635-.395-.667 1.544c-42.922 99.443-140.612 164.26-248.876 165.131-108.258.848-206.979-62.379-251.49-161.12l-.691-1.534-1.629.423a94.131 94.131 0 0 1-23.561 3.003c-51.266 0-93.182-41.499-93.593-92.855-.199-25.004 9.349-48.588 26.886-66.41 17.539-17.821 40.967-27.745 65.971-27.943a95.276 95.276 0 0 1 10.157.487l-.029.116 33.416 38.341L537.04 143.45l81.415 133.898 21.363-70.366 71.714 95.33 21.717-75.741 109.822 141.505 26.646-42.665a95.125 95.125 0 0 1 10.543-.694c24.972-.241 48.581 9.348 66.4 26.885 17.819 17.538 27.743 40.966 27.943 65.969.202 25.004-9.345 48.588-26.882 66.408z"/><path d="M607.696 562.267c19.551 0 36.113-12.762 41.833-30.406h-83.666c5.721 17.644 22.283 30.406 41.833 30.406z"/><path fill="#FFF" d="M563.719 518.29c0 4.737.758 9.295 2.144 13.571h83.666a43.92 43.92 0 0 0 2.144-13.571h-87.954z"/><path d="M775.9 372.325H660.57c-17.608 0-31.933 14.326-31.933 31.933v6.867h-45.903v-6.867c0-17.608-14.325-31.933-31.933-31.933h-115.33c-17.608 0-31.933 14.326-31.933 31.933v49.038c0 17.608 14.325 31.933 31.933 31.933H550.8c17.608 0 31.933-14.326 31.933-31.933v-38.18h45.903v38.18c0 17.608 14.325 31.933 31.933 31.933H775.9c17.608 0 31.933-14.326 31.933-31.933v-49.038c0-17.607-14.325-31.933-31.933-31.933zm-197.158 80.972c0 15.407-12.534 27.942-27.942 27.942H435.47c-15.407 0-27.942-12.534-27.942-27.942v-49.038c0-15.407 12.534-27.942 27.942-27.942H550.8c15.407 0 27.942 12.534 27.942 27.942v49.038zm225.099 0c0 15.407-12.534 27.942-27.942 27.942H660.57c-15.407 0-27.942-12.534-27.942-27.942v-49.038c0-15.407 12.534-27.942 27.942-27.942H775.9c15.407 0 27.942 12.534 27.942 27.942v49.038z"/><path fill="#71EFB4" d="m962.965 1079.156 134.29-137.352 23.38-21.68c14.464 5.635 33.481 5.667 33.481 5.667 16.362-.205 32.532-6.26 45.145-17.766l61.043-49.154 63.421-49.524 88.481-68.264-.098-.142c.005-.003.024-.003.032-.012 15.54-12.136 18.31-34.621 6.18-50.208-12.131-15.583-34.562-18.377-50.111-6.247a37.351 37.351 0 0 0-2.53 2.198l-85.889 66.246-.181-.245 90.285-69.671 19.083-14.855c14.011-12.402 16.161-33.748 4.497-48.729-12.131-15.597-34.565-18.387-50.117-6.238-.891.692-20.991 16.054-21.794 16.823l-85.887 66.238-.185-.236 88.492-68.274 36.825-28.187-1.157.873c15.54-12.14 19.494-35.51 7.371-51.1-12.123-15.59-34.564-18.383-50.107-6.25-.898.699-38.658 29.498-39.46 30.256l-85.893 66.24-.18-.241 92.08-71.074 16.663-13.258c12.5-12.581 14.011-32.799 2.82-47.185-11.189-14.359-31.138-17.828-46.365-8.759l-17.047 12.772 16.041-12.182c-.937.615-18.806 14.123-19.704 14.821a36.357 36.357 0 0 0-2.53 2.19l-109.759 84.895-30.045 20.692c-9.228 6.355-21.828 4.245-28.503-4.774a20.88 20.88 0 0 1-2.406-20.652l31.962-74.523-.162-.061a.18.18 0 0 1 .019-.046c7.778-18.147-.604-39.188-18.714-46.997-18.122-7.809-39.123.564-46.895 18.709a34.772 34.772 0 0 0-1.159 3.12l-70.692 164.861c-1.104 2.147-2.167 4.324-3.134 6.574-9.029 21.075-10.363 43.522-5.261 64.193 1.483 6.008 2.287 12.167 2.147 18.354a68.578 68.578 0 0 1-2.224 15.903c-3.109 11.899-9.582 22.651-18.251 31.373L801.846 927.467"/><ellipse cx="1258.23" cy="542.166" fill="#FFF" rx="7.288" ry="16.706" transform="rotate(-39.258 1258.276 542.194)"/><path d="M1270.608 557.162c-.88 0-1.764-.044-2.649-.132-6.714-.667-12.72-3.855-16.908-8.976-8.911-10.895-6.926-27.338 4.425-36.652 5.666-4.649 12.711-6.82 19.847-6.112 6.714.668 12.719 3.855 16.907 8.976 8.912 10.895 6.928 27.338-4.424 36.652-4.962 4.072-10.986 6.244-17.198 6.244zm2.073-48.012c-5.292 0-10.43 1.856-14.673 5.337-9.652 7.921-11.387 21.845-3.868 31.039 3.513 4.296 8.561 6.971 14.214 7.532 6.07.597 12.08-1.253 16.921-5.225 9.653-7.921 11.387-21.845 3.867-31.039-3.513-4.296-8.56-6.971-14.213-7.532a22.618 22.618 0 0 0-2.248-.112z"/><path fill="#FFF" d="M1021.937 515.611c5.958 2.679 10.2 7.643 12.237 13.493-5.741 2.352-12.278 2.47-18.236-.209"/><path d="M1025.201 532.876a24.52 24.52 0 0 1-10.081-2.161l1.637-3.641c10.834 4.87 23.826-.425 28.967-11.805 2.577-5.706 2.807-11.991.646-17.696-2.012-5.312-5.908-9.491-10.969-11.767l1.637-3.641c6.035 2.714 10.675 7.684 13.065 13.994 2.539 6.704 2.276 14.073-.742 20.753-4.507 9.983-14.199 15.964-24.16 15.964z"/><ellipse cx="1348.564" cy="654.83" fill="#FFF" rx="7.288" ry="16.706" transform="rotate(-39.258 1348.613 654.862)"/><path d="M1360.944 669.825c-.881 0-1.764-.044-2.65-.132-6.714-.668-12.719-3.855-16.908-8.976-8.912-10.895-6.927-27.338 4.424-36.653 5.664-4.65 12.716-6.817 19.846-6.112 6.714.668 12.72 3.855 16.909 8.976 8.911 10.895 6.926 27.338-4.424 36.653-4.962 4.073-10.985 6.244-17.197 6.244zm2.071-48.012c-5.292 0-10.43 1.855-14.673 5.336-9.652 7.922-11.386 21.846-3.867 31.04 3.514 4.296 8.561 6.971 14.214 7.532 6.067.601 12.08-1.253 16.921-5.225 9.652-7.922 11.386-21.846 3.867-31.04-3.514-4.296-8.562-6.971-14.214-7.532a22.922 22.922 0 0 0-2.248-.111z"/><ellipse cx="1373.476" cy="726.231" fill="#FFF" rx="7.288" ry="16.706" transform="rotate(-39.258 1373.525 726.266)"/><path d="M1385.855 741.227c-.88 0-1.764-.044-2.649-.132-6.714-.668-12.72-3.855-16.909-8.976-8.911-10.895-6.926-27.338 4.424-36.653 5.666-4.651 12.717-6.816 19.847-6.112 6.714.668 12.719 3.855 16.908 8.976 8.912 10.895 6.927 27.338-4.424 36.653-4.961 4.073-10.985 6.244-17.197 6.244zm2.072-48.012c-5.292 0-10.431 1.856-14.674 5.337-9.652 7.922-11.386 21.846-3.867 31.04 3.514 4.296 8.562 6.971 14.214 7.532 6.07.596 12.079-1.253 16.921-5.225 9.652-7.922 11.386-21.846 3.867-31.04-3.514-4.296-8.561-6.971-14.214-7.532a22.598 22.598 0 0 0-2.247-.112z"/><ellipse cx="1323.686" cy="583.421" fill="#FFF" rx="7.288" ry="16.706" transform="rotate(-39.258 1323.734 583.45)"/><path d="M1336.065 598.417c-.881 0-1.764-.044-2.65-.132-6.714-.668-12.719-3.855-16.908-8.976-8.911-10.895-6.926-27.338 4.424-36.653 5.665-4.648 12.719-6.82 19.846-6.112 6.715.668 12.72 3.855 16.909 8.976 8.911 10.895 6.926 27.338-4.424 36.653-4.962 4.072-10.985 6.244-17.197 6.244zm2.071-48.013c-5.292 0-10.43 1.856-14.672 5.337-9.652 7.922-11.386 21.846-3.867 31.04 3.514 4.296 8.561 6.971 14.214 7.532 6.068.6 12.08-1.253 16.921-5.225 9.652-7.922 11.386-21.846 3.867-31.04-3.514-4.296-8.562-6.971-14.214-7.532a22.638 22.638 0 0 0-2.249-.112z"/><circle cx="617.799" cy="998.342" r="15.779" fill="#FFF"/><path fill="#FFF" d="M651.525 1080V961.279a1.996 1.996 0 0 0-1.996-1.996h-55.477V713.317c.052-.178.088-.362.088-.556 0-.194-.036-.378-.088-.556v-1.135a1.996 1.996 0 0 0-1.996-1.996H378.757a1.996 1.996 0 0 0-1.996 1.996v1.128c-.023.079-.048.157-.062.24-.05.305-.021.604.062.885v68.465H178.802C80.21 781.787 0 861.997 0 960.589V1080h3.992V960.589c0-96.39 78.42-174.81 174.811-174.81s174.81 78.42 174.81 174.81V1080h3.992V960.589c0-85.694-60.602-157.489-141.197-174.81h161.629L590.78 962.813c.028.023.059.039.088.061.045.033.089.065.137.095.059.036.119.068.18.098.049.024.097.048.148.068.07.027.142.047.214.066.046.012.091.028.139.037.122.023.245.037.368.037h55.48V1080h3.991zM380.753 715.571l156.905 52.931a1.997 1.997 0 0 0 2.634-1.892c0-27.893 22.141-50.701 49.769-51.8v242.211L380.753 782.848v-67.277z"/><path fill="#FFF" d="m106.59 940.184 2.87-2.775 135.254 139.864-2.87 2.776z"/><path fill="#71EFB4" d="m1282.031 1080-23.984-61.615a34.682 34.682 0 0 0-1.053-3.158c-7.153-18.398-27.859-27.478-46.235-20.287-18.364 7.191-27.454 27.936-20.295 46.336.007.016.015.032.017.047l-.164.056 15.037 38.622"/><path fill="#FFF" d="M1263.154 1036.324c-6.045 2.476-10.453 7.293-12.687 13.071 5.658 2.546 12.188 2.885 18.233.409"/><path d="M1260.149 1053.484c-10.26 0-20.163-6.373-24.447-16.787-2.788-6.777-2.802-14.152-.038-20.765 2.602-6.226 7.407-11.036 13.531-13.544l1.513 3.693c-5.136 2.104-9.17 6.148-11.361 11.389-2.352 5.629-2.336 11.918.047 17.708 4.75 11.547 17.557 17.279 28.55 12.779l1.513 3.693a24.474 24.474 0 0 1-9.308 1.834z"/><path d="m1283.89 1080-23.951-61.527a35.755 35.755 0 0 0-1.085-3.241c-3.653-9.395-10.743-16.796-19.965-20.843-9.224-4.045-19.471-4.253-28.858-.579-19.115 7.485-28.727 28.97-21.707 48.178a1.97 1.97 0 0 0 .132.843l14.472 37.17h4.283l-14.736-37.851a1.99 1.99 0 0 0-.152-.869h.001c-6.749-17.346 1.848-36.973 19.162-43.753 8.393-3.282 17.554-3.099 25.799.517 8.245 3.617 14.583 10.236 17.852 18.643.338.86.653 1.806.991 2.978.017.059.036.116.058.173l23.418 60.163h4.286z"/><path fill="#FFF" d="M1801.892 1080a1.996 1.996 0 0 1-1.996-1.996c0-33.701-27.417-61.12-61.119-61.12-5.031 0-10.051.62-14.924 1.842a1.997 1.997 0 0 1-2.368-1.274c-8.586-24.443-31.76-40.865-57.668-40.865a1.996 1.996 0 0 1 0-3.992c26.998 0 51.212 16.742 60.815 41.845a65.422 65.422 0 0 1 14.145-1.549c35.902 0 65.11 29.209 65.11 65.111a1.996 1.996 0 0 1-1.995 1.998zM1681.925 812.445a1.996 1.996 0 0 1-1.996-1.996c0-20.796-16.918-37.713-37.713-37.713a38.05 38.05 0 0 0-7.144.685 1.997 1.997 0 0 1-2.372-1.992l.01-.334c.004-.118.008-.236.008-.355 0-20.796-16.918-37.713-37.713-37.713a37.677 37.677 0 0 0-34.719 22.962 1.996 1.996 0 0 1-2.915.897 37.574 37.574 0 0 0-20.372-5.983c-20.796 0-37.714 16.918-37.714 37.713a1.996 1.996 0 0 1-3.992 0c0-22.996 18.709-41.705 41.705-41.705a41.552 41.552 0 0 1 20.569 5.43 41.655 41.655 0 0 1 37.437-23.306c22.453 0 40.819 17.834 41.674 40.081 1.846-.247 3.7-.372 5.538-.372 22.996 0 41.705 18.709 41.705 41.705a1.996 1.996 0 0 1-1.996 1.996zM1769.836 830.987a1.996 1.996 0 0 1-1.605-3.18c5.121-6.953 12.645-11.496 21.182-12.791 7.95-1.208 15.897.537 22.569 4.921a32.573 32.573 0 0 1 2.063-3.179c10.572-14.355 30.849-17.432 45.207-6.858a1.996 1.996 0 0 1-2.368 3.214c-12.58-9.267-30.359-6.574-39.625 6.011a28.7 28.7 0 0 0-2.771 4.628 1.997 1.997 0 0 1-3.008.73l-.411-.32c-6.094-4.49-13.577-6.341-21.057-5.201-7.484 1.135-14.079 5.116-18.568 11.212-.39.532-.995.813-1.608.813z"/><path d="M1420.854 689.526c-6.212-7.98-15.152-13.06-25.175-14.303a37.787 37.787 0 0 0-12.263.471l7.684-5.981c.033-.025.065-.053.097-.08 14.906-13.193 16.997-35.841 4.761-51.557-6.212-7.986-15.153-13.069-25.177-14.312a37.728 37.728 0 0 0-12.153.452l4.232-3.24c.156-.119.289-.257.399-.408 15.433-13.379 18.372-37.072 6.19-52.738-6.208-7.982-15.147-13.064-25.172-14.309-10.006-1.242-19.899 1.491-27.846 7.693-.197.153-2.173 1.663-5.146 3.933l-2.297 1.755c6.612-12.811 5.506-28.774-3.752-40.675-11.677-14.984-32.77-18.971-49.062-9.267a2.077 2.077 0 0 0-.176.118l-.361.271a2.046 2.046 0 0 0-.545.251c-1.139.748-19.716 14.821-19.883 14.95a38.726 38.726 0 0 0-2.601 2.245l-109.866 84.979-30.062 20.704c-8.4 5.786-19.741 3.885-25.82-4.326a18.993 18.993 0 0 1-2.181-18.718l32.028-74.678c.115-.268.169-.554.161-.839 7.683-18.998-1.215-40.843-20.104-48.988-9.276-3.997-19.547-4.138-28.921-.398-9.373 3.739-16.726 10.912-20.697 20.187a36.192 36.192 0 0 0-1.201 3.218l-70.777 165.06c-1.292 2.516-2.299 4.631-3.168 6.651-8.95 20.893-10.809 43.574-5.375 65.594 1.519 6.15 2.223 12.162 2.094 17.867l-.011.449a66.87 66.87 0 0 1-2.153 15.025c-2.934 11.229-9.08 21.788-17.773 30.534L800.098 926.584l2.837 2.82 128.684-129.468c9.191-9.247 15.694-20.431 18.806-32.343a70.858 70.858 0 0 0 2.281-15.925l.012-.472c.137-6.058-.606-12.422-2.209-18.916-5.224-21.168-3.437-42.974 5.167-63.057.838-1.95 1.817-4.004 3.082-6.464a1.81 1.81 0 0 0 .059-.126l70.839-165.205c.024-.056.045-.111.063-.169a32.524 32.524 0 0 1 1.1-2.959c3.555-8.3 10.127-14.712 18.506-18.056 8.38-3.344 17.564-3.217 25.856.357 17.102 7.374 25.045 27.304 17.72 44.44a2.047 2.047 0 0 0-.194.895l-31.703 73.92c-3.2 7.46-2.188 16.148 2.642 22.673 7.368 9.955 21.117 12.256 31.305 5.242l30.107-20.735.089-.065 109.987-85.072c.052-.04.102-.083.149-.128.815-.771 1.6-1.449 2.389-2.068.26-.202 1.419-1.082 3.056-2.32.206-.065.404-.167.587-.304l16.997-12.735c14.552-8.604 33.353-5.028 43.771 8.34 10.413 13.388 9.296 32.524-2.586 44.564l-16.582 13.194-92.271 71.223a1.999 1.999 0 0 0-.385 2.774l.18.242a2 2 0 0 0 2.828.393l86.072-66.378c.028-.022.086-.072.113-.096 1.086-.934 25.189-19.345 34.264-26.275 2.986-2.281 4.972-3.798 5.174-3.955 7.107-5.547 15.951-7.991 24.896-6.88 8.962 1.112 16.955 5.656 22.506 12.794 11.25 14.468 8.026 36.633-7.039 48.402a1.803 1.803 0 0 0-.14.12l-35.592 27.244-88.676 68.416a2 2 0 0 0-.355 2.814l.185.236a2.002 2.002 0 0 0 2.798.353l86.065-66.376c.037-.029.104-.087.14-.119.895-.797 14.754-11.416 19.308-14.905 1.332-1.021 2.224-1.704 2.402-1.842 7.11-5.555 15.951-7.999 24.9-6.895 8.962 1.111 16.956 5.655 22.512 12.798 10.931 14.039 9.079 34.26-4.208 46.063l-19.064 14.843-90.473 69.815a2.001 2.001 0 0 0-.389 2.77l.181.245c.319.434.8.72 1.333.794a2.018 2.018 0 0 0 1.499-.396l86.068-66.385a1.72 1.72 0 0 0 .151-.13 35.196 35.196 0 0 1 2.393-2.079c7.109-5.546 15.95-7.991 24.896-6.879 8.961 1.111 16.955 5.653 22.511 12.79 11.427 14.683 8.854 35.91-5.713 47.403a1.999 1.999 0 0 0-.696.745l-88.036 67.92-63.576 49.646-61.17 49.256c-.032.025-.063.053-.094.08-11.992 10.939-27.589 17.076-43.888 17.28-.188 0-18.863-.101-32.827-5.542a2 2 0 0 0-2.087.396l-23.499 21.794-134.569 137.639 1.43 1.398h2.797l133.133-136.172 22.521-20.885c14.482 5.278 32.323 5.37 33.123 5.371 17.288-.217 33.806-6.709 46.516-18.283l61.099-49.199 63.544-49.62 88.666-68.405c.231-.179.413-.398.542-.641 15.891-12.927 18.597-36.372 5.94-52.636z"/><path fill="#FFF" d="M966.49 1079.476s-1.148-1.063-1.566-1.456L803.469 926.014a1.985 1.985 0 0 0-1.507-.534 1.979 1.979 0 0 0-1.515.562L648.13 1075.736a1.996 1.996 0 0 0 2.798 2.848L801.994 930.12l158.642 149.357h5.854z"/></svg>