<svg xmlns="http://www.w3.org/2000/svg" xml:space="preserve" viewBox="0 0 1080 1080"><path fill="#FFF" d="m928.834 20.65-31.273 137.776a34.899 34.899 0 0 0 1.171 30.866 34.898 34.898 0 0 0-25.212-17.845l-132.48-49.083c-28.565-4.536-49.932 25.651-36.157 51.084l55.631 102.711c19.115 35.292 66.015 43.771 96.277 17.404a22.217 22.217 0 0 0-4.92 27.315l20.76 38.328c2.354 4.347 5.777 7.517 9.685 9.501 12.991 6.592 28.688-1.586 31.561-15.868l16.58-82.391c2.594-10.602 4.103-15.008.392-21.859 3.711 6.851 7.915 7.84 18.522 11.614l78.065 31.128c13.532 5.396 28.957-3.283 30.534-17.765.475-4.357-.311-8.956-2.666-13.303l-20.76-38.328a22.22 22.22 0 0 0-25.567-10.803c38.617-10.94 57.14-54.854 38.025-90.146L991.374 18.277c-13.775-25.432-50.733-24.029-62.54 2.373zM794.872 227.009l-31.567-11.214c-11.281-4.008-17.177-16.401-13.17-27.682 4.008-11.281 16.401-17.177 27.682-13.169l31.567 11.214c11.281 4.008 17.177 16.401 13.17 27.682-4.007 11.281-16.401 17.177-27.682 13.169zm45.617 41.932c-8.568 4.641-19.277 1.457-23.917-7.111-4.641-8.568-1.457-19.277 7.112-23.917 8.568-4.641 19.276-1.457 23.917 7.111 4.64 8.568 1.456 19.276-7.112 23.917zm156.775-84.914c-8.568 4.641-19.277 1.457-23.917-7.111-4.641-8.568-1.457-19.277 7.112-23.917 8.568-4.641 19.277-1.457 23.917 7.111s1.456 19.277-7.112 23.917zm-2.342-93.682-7.855 32.566c-2.807 11.638-14.517 18.797-26.155 15.99-11.638-2.807-18.797-14.517-15.99-26.155l7.854-32.566c2.807-11.638 14.517-18.797 26.155-15.99 11.639 2.807 18.798 14.517 15.991 26.155z"/><path d="m942.984 241.987-27.801-51.328c-2.138-3.948-5.923-6.42-10.041-7.059 2.276-4.305 2.43-9.628-.063-14.23-2.458-4.539-6.911-7.304-11.683-7.807l-19.777-36.514c-2.596-4.793-3.959-9.897-3.945-14.761a31.17 31.17 0 0 1 3.893-14.94c6.539-11.824 21.477-16.124 33.301-9.588 9.266 5.125 12.637 16.832 7.513 26.098-3.994 7.22-13.115 9.844-20.336 5.855-5.583-3.088-7.614-10.142-4.527-15.727a8.799 8.799 0 0 1 5.301-4.226 8.81 8.81 0 0 1 6.738.759 1.996 1.996 0 1 0 1.932-3.494 12.757 12.757 0 0 0-9.774-1.102 12.76 12.76 0 0 0-7.69 6.13c-4.153 7.511-1.421 17 6.088 21.152 9.149 5.06 20.704 1.729 25.762-7.417 6.189-11.192 2.118-25.334-9.075-31.524-6.661-3.684-14.358-4.555-21.673-2.446-7.315 2.105-13.371 6.933-17.053 13.595a35.16 35.16 0 0 0-4.392 16.86c-.017 5.53 1.514 11.295 4.426 16.673l18.85 34.802c-1.469.286-2.92.794-4.306 1.545a15.057 15.057 0 0 0-3.343 2.475l-18.798-34.707c-2.912-5.377-6.905-9.809-11.547-12.818a35.167 35.167 0 0 0-16.521-5.534c-7.569-.549-14.943 1.88-20.704 6.856-5.76 4.976-9.238 11.897-9.792 19.488-.931 12.757 8.688 23.893 21.445 24.825 10.439.753 19.524-7.101 20.288-17.525a15.462 15.462 0 0 0-3.745-11.308 15.46 15.46 0 0 0-10.644-5.349c-7.063-.511-13.236 4.814-13.753 11.881a1.998 1.998 0 0 0 1.846 2.137c1.108.058 2.057-.747 2.137-1.846.356-4.873 4.631-8.55 9.48-8.189a11.495 11.495 0 0 1 7.913 3.976 11.495 11.495 0 0 1 2.784 8.408c-.6 8.228-7.779 14.449-16.014 13.833-10.561-.771-18.524-9.99-17.752-20.552.984-13.475 12.736-23.65 26.223-22.652a31.13 31.13 0 0 1 14.64 4.902c4.083 2.646 7.613 6.578 10.208 11.368l19.655 36.289c-2.4 4.346-2.616 9.779-.076 14.469 2.493 4.602 7.036 7.382 11.884 7.828-1.715 3.798-1.712 8.32.426 12.267l27.801 51.329c3.634 6.709 12.018 9.202 18.727 5.568 6.705-3.632 9.198-12.016 5.564-18.725zM1079 1080H692.577l55.568-88.258-52.572-89.565H1080z"/><path fill="#FFF" d="M1044.501 935.175H695.573v-67.616h348.928c19.606 0 35.499 15.136 35.499 33.808s-15.894 33.808-35.499 33.808z"/><path d="M1044.756 886.424H695.573v-3.993h349.182c1.103 0 1.996.894 1.996 1.996a1.995 1.995 0 0 1-1.995 1.997zM1044.756 904.202H695.573v-3.993h349.182c1.103 0 1.996.894 1.996 1.996a1.995 1.995 0 0 1-1.995 1.997zM1044.756 921.978H695.573v-3.993h349.182c1.103 0 1.996.894 1.996 1.996a1.995 1.995 0 0 1-1.995 1.997z"/><path fill="#FFF" d="M601.265 873.319v-69.011c0-26.362-21.228-47.809-47.589-48.079h-75.503v-57.451h143.124v49.113c0 5.799 4.701 10.5 10.5 10.5h56.159l-86.691 114.928z"/><path fill="#71EFB4" d="M302.936 697.359v-77.574h175.237v138.119h32.794c-21.963 44.287-67.628 74.736-120.413 74.736-3.855 0-7.667-.182-11.439-.5V697.615l-76.179-.256z"/><path d="M390.555 834.636c-3.715 0-7.621-.171-11.607-.506l.335-3.979c3.93.331 7.618.492 11.272.492 25.125 0 49.572-7.072 70.696-20.45a132.78 132.78 0 0 0 46.454-50.293h-31.529V621.781H304.932v75.578h-3.993v-79.57h179.23v138.119h34.017l-1.43 2.883a136.76 136.76 0 0 1-49.37 54.775c-21.762 13.784-46.947 21.07-72.831 21.07z"/><path fill="#71EFB4" d="M621.012 371.39c-3.08.026-6.111.243-9.098.601-28.65-96.077-118.044-165.787-223.33-164.941-105.292.842-193.564 71.973-220.672 168.497a80.818 80.818 0 0 0-9.092-.452c-44.319.35-79.956 36.567-79.602 80.885.355 44.321 36.571 79.954 80.886 79.6a80.383 80.383 0 0 0 19.545-2.572c36.482 80.93 118.154 136.981 212.635 136.227 94.477-.759 175.243-58.108 210.424-139.616a80.53 80.53 0 0 0 19.588 2.257c44.314-.352 79.949-36.565 79.595-80.882-.355-44.321-36.566-79.96-80.879-79.604zM118.636 434.433l49.639 53.107"/><path d="M168.275 489.536a1.985 1.985 0 0 1-1.458-.634l-49.64-53.107a1.995 1.995 0 1 1 2.917-2.725l49.64 53.107a1.994 1.994 0 0 1-1.459 3.359z"/><path fill="#71EFB4" d="m652.541 430.154-48.784 53.899"/><path d="M603.756 486.049a1.995 1.995 0 0 1-1.478-3.336l48.785-53.899c.739-.818 2-.881 2.819-.14.818.74.88 2.002.14 2.819l-48.785 53.899a1.989 1.989 0 0 1-1.481.657z"/><path fill="#71EFB4" d="m390.376 451.384.357 57.913"/><path d="M679.337 393.015c-15.656-15.409-36.38-23.815-58.34-23.621h-.002a81.878 81.878 0 0 0-7.651.43c-14.327-46.78-43.81-88.72-83.158-118.246a236.774 236.774 0 0 0-17.994-12.232l16.857-59.428-90.636 26.137 17.18-60.993-126.56 68.114c-29.287 7.948-56.785 21.63-81.326 40.665-38.875 30.152-67.682 72.56-81.259 119.563a81.55 81.55 0 0 0-7.643-.304c-21.967.174-42.552 8.893-57.961 24.55-15.408 15.657-23.797 36.379-23.622 58.346.176 21.968 8.896 42.552 24.554 57.96 15.657 15.408 36.381 23.841 58.345 23.62a82.689 82.689 0 0 0 18.075-2.158l-32.045 53.144 59.477-1.385-16.69 54.874 61.98-17.195c39.538 29.523 88.225 46.385 139.514 46.382.619 0 1.25-.003 1.869-.008 91.771-.738 174.634-55.358 211.575-139.295 6.055 1.334 12.221 2.002 18.438 1.935 21.965-.175 42.548-8.894 57.955-24.55 15.407-15.656 23.796-36.377 23.621-58.344-.178-21.968-8.898-42.552-24.553-57.961zm-1.916 113.504c-14.659 14.897-34.242 23.192-55.142 23.358-6.375.068-12.845-.688-19.103-2.201l-1.635-.395-.667 1.544c-35.977 83.353-117.86 137.683-208.607 138.412-.615.005-1.223.008-1.837.008-90.023 0-171.906-52.854-208.962-135.059l-.692-1.534-1.629.423a78.693 78.693 0 0 1-19.704 2.51c-20.66 0-40.125-7.968-54.868-22.476-14.898-14.66-23.194-34.245-23.362-55.146-.167-20.902 7.815-40.617 22.476-55.514s34.245-23.193 55.148-23.358c2.791-.029 5.713.12 8.709.427l27.837 31.94 137.552-188.545 68.338 112.39 17.931-59.063 60.195 80.017 18.229-63.575 92.181 118.775 22.148-35.462.193-.023a79.71 79.71 0 0 1 8.877-.587c20.902-.214 40.611 7.814 55.507 22.475 14.896 14.66 23.192 34.245 23.36 55.146.168 20.903-7.813 40.617-22.473 55.513z"/><path d="M392.243 572.458c16.41 0 30.312-10.712 35.113-25.522h-70.227c4.802 14.81 18.703 25.522 35.114 25.522z"/><path fill="#FFF" d="M355.329 535.545c0 3.976.636 7.802 1.8 11.391h70.227a36.884 36.884 0 0 0 1.8-11.391h-73.827z"/><path d="M528.612 412.704h-87.173c-17.612 0-31.941 14.329-31.941 31.941v2.624H371.61v-2.624c0-17.612-14.329-31.941-31.941-31.941h-87.173c-17.612 0-31.941 14.329-31.941 31.941v31.53c0 17.612 14.329 31.941 31.941 31.941h87.173c17.612 0 31.941-14.329 31.941-31.941v-24.914h16.782c-.003.046-.013.089-.013.135l.356 57.913a1.997 1.997 0 0 0 1.996 1.984h.013a1.998 1.998 0 0 0 1.984-2.009l-.356-57.913c0-.038-.01-.073-.012-.11h17.137v24.914c0 17.612 14.329 31.941 31.941 31.941h87.173c17.612 0 31.941-14.329 31.941-31.941v-31.53c.001-17.612-14.328-31.941-31.94-31.941zm-160.994 63.471c0 15.411-12.537 27.948-27.948 27.948h-87.173c-15.411 0-27.948-12.537-27.948-27.948v-31.53c0-15.411 12.537-27.948 27.948-27.948h87.173c15.411 0 27.948 12.537 27.948 27.948v31.53zm188.942 0c0 15.411-12.537 27.948-27.948 27.948h-87.173c-15.411 0-27.948-12.537-27.948-27.948v-31.53c0-15.411 12.537-27.948 27.948-27.948h87.173c15.411 0 27.948 12.537 27.948 27.948v31.53z"/><path fill="#71EFB4" d="m723.236 1027.774 87.776-135.251 15.652-21.71c12.835 2.244 28.489-.878 28.489-.878 13.431-2.876 25.734-10.535 34.209-22.09l42.097-50.551 43.992-51.249 61.514-70.817-.104-.101c.004-.004.019-.007.024-.015 10.779-12.559 9.338-31.52-3.223-42.339-12.562-10.816-31.482-9.402-42.27 3.152a31.157 31.157 0 0 0-1.718 2.228l-59.714 68.728-.189-.172 62.765-72.273 13.245-15.383c9.477-12.524 7.714-30.446-4.364-40.843-12.564-10.827-31.487-9.41-42.274 3.161-.619.717-14.616 16.685-15.15 17.451l-59.714 68.721-.191-.164 61.52-70.827 25.638-29.289-.808.91c10.779-12.562 10.165-32.447-2.391-43.27s-31.485-9.408-42.267 3.149c-.624.723-26.93 30.671-27.464 31.427l-59.719 68.723-.188-.169 64.01-73.725 11.518-13.668c8.204-12.421 6.102-29.309-5.488-39.295-11.584-9.964-28.574-9.517-39.603.465l-11.915 13.332 11.184-12.679c-.669.661-13.138 14.734-13.761 15.457a30.481 30.481 0 0 0-1.72 2.221l-76.27 88.024-21.299 22c-6.542 6.757-17.259 7.105-24.245.788a17.524 17.524 0 0 1-5.398-16.596l13.968-66.614-.144-.024c0-.012.004-.027.008-.041 3.398-16.22-6.983-32.148-23.177-35.576-16.205-3.427-32.101 6.939-35.494 23.157a29.168 29.168 0 0 0-.438 2.76l-30.889 147.362c-.553 1.95-1.068 3.917-1.491 5.928-3.942 18.837-1.325 37.529 6.294 53.694 2.215 4.699 3.895 9.633 4.804 14.748.022.126.045.253.066.38.749 4.341.984 8.725.735 13.075-.589 10.306-4.136 20.225-9.827 28.837l-84.292 127.569"/><path d="m724.911 1028.861-3.349-2.174 87.776-135.25 15.707-21.792a1.99 1.99 0 0 1 1.963-.798c12.303 2.149 27.6-.839 27.754-.87 13.269-2.841 24.996-10.412 32.99-21.312.023-.033.049-.065.075-.097l42.098-50.551 44.012-51.271 61.037-70.269a2.016 2.016 0 0 1 .489-.774c9.948-11.71 8.57-29.362-3.105-39.416-5.675-4.886-12.912-7.276-20.365-6.708-7.444.56-14.223 3.986-19.089 9.649a29.419 29.419 0 0 0-1.601 2.078c-.039.055-.08.107-.124.158l-59.715 68.727a1.99 1.99 0 0 1-1.389.683 1.97 1.97 0 0 1-1.459-.514l-.189-.172a1.997 1.997 0 0 1-.166-2.788l62.765-72.272 13.197-15.328c8.853-11.752 7.052-28.465-4.112-38.076-5.678-4.891-12.91-7.272-20.367-6.715-7.444.561-14.224 3.993-19.09 9.663l-1.648 1.886c-3.156 3.61-12.76 14.591-13.401 15.436-.026.035-.08.104-.109.137l-59.714 68.72a1.996 1.996 0 0 1-2.806.207l-.191-.164a1.995 1.995 0 0 1-.208-2.825l61.521-70.827 24.716-28.236c.033-.046.068-.091.106-.135 10.315-12.021 9.317-30.548-2.18-40.457-5.672-4.889-12.897-7.279-20.36-6.713-7.446.56-14.226 3.987-19.09 9.651-.142.165-1.556 1.776-3.675 4.192-6.271 7.149-22.928 26.138-23.708 27.133-.039.055-.045.06-.089.11l-59.719 68.723a1.993 1.993 0 0 1-1.385.683 1.934 1.934 0 0 1-1.458-.51l-.187-.169a1.997 1.997 0 0 1-.171-2.792L900.912 553l11.422-13.555c7.669-11.713 5.448-27.422-5.189-36.586-10.636-9.15-26.474-8.99-36.883.363l-11.843 13.252a1.975 1.975 0 0 1-.466.385 427.348 427.348 0 0 0-2.088 2.367 28.761 28.761 0 0 0-1.602 2.069 1.998 1.998 0 0 1-.121.154l-76.27 88.024a1.914 1.914 0 0 1-.075.082l-21.299 22c-7.326 7.566-19.194 7.954-27.018.879a19.586 19.586 0 0 1-6.011-18.486l13.812-65.873a2.083 2.083 0 0 1-.031-.355c0-.139.02-.304.051-.45 3.167-15.117-6.54-30.018-21.637-33.213-7.32-1.549-14.794-.152-21.051 3.931-6.256 4.082-10.545 10.362-12.075 17.68a26.9 26.9 0 0 0-.409 2.581c-.007.06-.017.12-.029.179l-30.89 147.364a1.9 1.9 0 0 1-.033.135c-.631 2.226-1.094 4.068-1.457 5.794-3.734 17.845-1.609 35.976 6.147 52.432 2.4 5.093 4.071 10.224 4.964 15.249l.067.385a59.694 59.694 0 0 1 .762 13.534c-.592 10.352-4.103 20.665-10.154 29.824l-84.292 127.569-3.332-2.201 84.292-127.569c5.663-8.571 8.948-18.202 9.499-27.851a55.634 55.634 0 0 0-.709-12.621l-.065-.371c-.831-4.677-2.394-9.471-4.645-14.245-8.128-17.247-10.356-36.25-6.442-54.953.379-1.804.858-3.711 1.505-5.998l30.857-147.207c.129-1.092.274-2.002.458-2.857 1.747-8.355 6.649-15.531 13.8-20.196 7.154-4.667 15.696-6.263 24.059-4.495 17.007 3.601 28.025 20.198 24.86 37.216.05.258.049.525-.007.788l-13.968 66.613a15.58 15.58 0 0 0 4.783 14.706c6.218 5.623 15.651 5.319 21.472-.696l21.26-21.96 76.17-87.909a32.908 32.908 0 0 1 1.773-2.282c.116-.135 13.049-14.763 13.877-15.582.132-.13.277-.238.432-.324l.213-.24c.047-.053.096-.102.149-.149 11.896-10.768 30.058-10.982 42.245-.499 9.302 8.015 12.968 20.413 10.245 31.79l.622-.71c2.107-2.402 3.512-4.003 3.651-4.164 5.557-6.47 13.306-10.389 21.817-11.027 8.524-.643 16.784 2.084 23.266 7.67 12.71 10.955 14.234 31.074 3.693 44.74a1.971 1.971 0 0 1-.295.446l-2.066 2.36a32.057 32.057 0 0 1 8.764-1.911c8.53-.634 16.787 2.083 23.272 7.671 12.772 10.994 14.816 30.129 4.653 43.56a1.855 1.855 0 0 1-.079.097l-4.465 5.186a32.034 32.034 0 0 1 8.867-1.947c8.502-.646 16.785 2.082 23.269 7.664 13.196 11.367 14.874 31.233 3.891 44.609-.081.24-.209.467-.384.669l-61.513 70.817-43.985 51.24-42.039 50.481c-8.573 11.663-21.129 19.763-35.364 22.812-.661.131-15.234 2.987-28.008 1.092l-14.931 20.712-87.72 135.172z"/><ellipse cx="877.339" cy="537.023" fill="#FFF" rx="6.117" ry="14.022" transform="rotate(-50.632 877.292 537.006)"/><path d="M885.628 548.074c-4.928 0-9.628-1.657-13.424-4.77-9.273-7.602-10.381-21.664-2.471-31.345 3.947-4.83 9.466-7.824 15.539-8.43 5.721-.577 11.273 1.083 15.634 4.659 9.273 7.603 10.381 21.664 2.47 31.345-3.947 4.83-9.465 7.823-15.538 8.43-.741.074-1.478.111-2.21.111zm1.845-40.663c-.599 0-1.201.03-1.806.091-5.01.499-9.571 2.98-12.842 6.983-6.52 7.979-5.662 19.522 1.91 25.731 3.536 2.899 8.048 4.241 12.708 3.774 5.009-.5 9.57-2.98 12.841-6.983 6.52-7.979 5.663-19.521-1.91-25.731-3.077-2.522-6.893-3.865-10.901-3.865z"/><path fill="#FFF" d="M678.865 553.78c5.361 1.152 9.715 4.481 12.415 8.924-4.299 2.94-9.643 4.185-15.004 3.033"/><path d="M679.969 568.671c-1.538 0-4.092-.17-5.649-.524l.887-3.893c9.548 2.178 20.19-4.225 22.496-14.267 1.157-5.039.321-10.163-2.356-14.427-2.489-3.965-6.315-6.709-10.772-7.725l.887-3.893c5.499 1.254 10.211 4.625 13.266 9.495 3.245 5.169 4.263 11.365 2.866 17.443-2.424 10.563-11.607 17.791-21.625 17.791z"/><ellipse cx="970.32" cy="614.783" fill="#FFF" rx="6.117" ry="14.022" transform="rotate(-50.632 970.268 614.763)"/><path d="M978.608 625.835c-4.927 0-9.627-1.657-13.424-4.77-9.272-7.602-10.38-21.664-2.47-31.345 3.947-4.83 9.466-7.824 15.539-8.43 5.717-.574 11.272 1.084 15.634 4.659 9.273 7.603 10.381 21.664 2.47 31.345-3.947 4.83-9.466 7.824-15.539 8.43-.74.073-1.478.111-2.21.111zm1.846-40.663c-.599 0-1.201.03-1.806.091-5.01.499-9.571 2.98-12.842 6.983-6.52 7.979-5.662 19.522 1.91 25.731 3.535 2.899 8.043 4.237 12.707 3.774 5.01-.499 9.571-2.98 12.842-6.983 6.52-7.979 5.663-19.521-1.91-25.731-3.077-2.523-6.893-3.865-10.901-3.865z"/><ellipse cx="1002.636" cy="669.417" fill="#FFF" rx="6.117" ry="14.022" transform="rotate(-50.632 1002.582 669.394)"/><path d="M1010.924 680.468c-4.927 0-9.628-1.657-13.424-4.77-9.272-7.603-10.38-21.664-2.47-31.345 3.947-4.83 9.465-7.823 15.538-8.43 5.721-.57 11.274 1.084 15.634 4.659 9.274 7.603 10.382 21.664 2.471 31.345-3.947 4.83-9.465 7.823-15.538 8.43-.741.074-1.478.111-2.211.111zm1.846-40.663c-.599 0-1.202.03-1.807.091-5.009.5-9.57 2.98-12.841 6.983-6.519 7.979-5.663 19.522 1.91 25.731 3.535 2.899 8.049 4.239 12.707 3.774 5.01-.5 9.571-2.98 12.842-6.983 6.52-7.979 5.663-19.521-1.91-25.731-3.077-2.523-6.894-3.865-10.901-3.865z"/><ellipse cx="938.03" cy="560.138" fill="#FFF" rx="6.117" ry="14.022" transform="rotate(-50.632 937.98 560.12)"/><path d="M946.318 571.19c-4.928 0-9.628-1.657-13.424-4.77-9.273-7.602-10.381-21.664-2.471-31.345 3.948-4.83 9.466-7.824 15.539-8.43 5.726-.573 11.273 1.084 15.634 4.659 9.273 7.603 10.381 21.664 2.47 31.345-3.947 4.83-9.465 7.823-15.538 8.43-.74.074-1.478.111-2.21.111zm1.846-40.663c-.599 0-1.201.03-1.806.091-5.01.499-9.572 2.98-12.843 6.983-6.52 7.979-5.662 19.522 1.91 25.731 3.535 2.9 8.05 4.244 12.708 3.774 5.009-.5 9.57-2.98 12.841-6.983 6.52-7.979 5.664-19.522-1.909-25.731-3.078-2.523-6.894-3.865-10.901-3.865z"/><circle cx="400.723" cy="938.487" r="13.244" fill="#FFF"/><path fill="#FFF" d="M0 760.388h32.241c80.73 0 146.41 65.679 146.41 146.41V1080h3.993V906.798c0-71.073-49.555-130.784-115.927-146.41h132.64l178.482 148.523c.028.023.059.039.088.061a1.863 1.863 0 0 0 .317.193c.048.024.096.048.146.068.071.028.143.048.217.067.046.012.089.027.136.036.123.023.247.038.372.038h46.244V1080h3.993V907.377a1.996 1.996 0 0 0-1.996-1.996h-46.244V699.289c.043-.164.074-.333.074-.51s-.031-.347-.074-.51v-.909a1.996 1.996 0 0 0-1.996-1.996H200.078a1.996 1.996 0 0 0-1.996 1.996v.91c-.016.062-.037.121-.048.185-.047.287-.023.569.048.835v57.105H0v3.993zm202.074-58.804 131.277 44.285a2.006 2.006 0 0 0 1.802-.27c.522-.375.832-.979.832-1.622 0-23.128 18.269-42.065 41.133-43.15v202.29L202.074 757.456v-55.872zM692.577 1080l32.349-51.163a1.998 1.998 0 0 0-.635-2.759l-157.688-98.16a1.996 1.996 0 0 0-2.707.575l-102.728 151.505h4.894l100.061-147.676 154.355 96.085L687.853 1080h4.724z"/><path d="M290.779 436.358c-24.991.201-48.27 12.711-62.272 33.466a1.997 1.997 0 0 0 3.31 2.232c12.021-17.819 31.258-29.223 52.378-31.347a30.347 30.347 0 0 0-7.355 20.094c.134 16.843 13.894 30.383 30.734 30.247 16.833-.136 30.381-13.896 30.248-30.735a30.745 30.745 0 0 0-.179-3.068 72.034 72.034 0 0 1 12.666 13.86 1.993 1.993 0 0 0 2.779.494 1.994 1.994 0 0 0 .494-2.779c-14.331-20.528-37.776-32.631-62.803-32.464zM552.584 467.227c-14.218-20.362-37.431-32.465-62.198-32.465-.201 0-.405 0-.606.002-24.986.2-48.268 12.71-62.278 33.464a1.996 1.996 0 0 0 3.308 2.234c12.028-17.817 31.265-29.22 52.378-31.347a30.348 30.348 0 0 0-7.354 20.092c.134 16.843 13.895 30.384 30.733 30.248 16.841-.135 30.388-13.893 30.254-30.735a30.765 30.765 0 0 0-.179-3.069 72.025 72.025 0 0 1 12.669 13.861 1.995 1.995 0 1 0 3.273-2.285z"/><path fill="#71EFB4" d="M942.998 1011.829c-6.826-2.996-14.592-3.078-21.86-.233-14.396 5.637-21.544 21.956-15.932 36.377h-.001c.059.15.105.314.128.462.018.11.024.22.023.329L917.517 1080h60.192l-20.657-53.387c-2.604-6.698-7.595-11.95-14.054-14.784z"/><path d="M905.356 1048.763a2.03 2.03 0 0 0-.151-.791h.001c-5.612-14.421 1.535-30.74 15.932-36.377 7.269-2.845 15.034-2.763 21.86.233 6.459 2.834 11.45 8.086 14.055 14.784L977.71 1080h2.144l-20.936-54.109c-6.015-15.471-23.057-22.205-38.51-16.158-15.442 6.047-23.087 23.492-17.067 38.965.006.013.013.027.015.04l-.138.047L915.371 1080h2.146l-12.161-31.237z"/><path fill="#FFF" d="M964.64 1046.35c-5.084 2.082-8.79 6.133-10.669 10.991 4.758 2.141 10.249 2.426 15.332.344"/><path d="M963.217 1061.751c-8.767 0-17.205-5.433-20.855-14.307-2.378-5.778-2.39-12.067-.032-17.709 2.222-5.314 6.325-9.421 11.555-11.563l1.516 3.701c-4.239 1.736-7.57 5.076-9.379 9.404-1.945 4.653-1.931 9.854.04 14.645 3.927 9.546 14.509 14.284 23.589 10.571l.982-.434 1.611 3.662-1.03.453a21.023 21.023 0 0 1-7.997 1.577z"/></svg>