<?xml version="1.0" encoding="utf-8"?>
<!-- Generator: Adobe Illustrator 16.0.0, SVG Export Plug-In . SVG Version: 6.00 Build 0)  -->
<!DOCTYPE svg PUBLIC "-//W3C//DTD SVG 1.1//EN" "http://www.w3.org/Graphics/SVG/1.1/DTD/svg11.dtd">
<svg version="1.1" id="Layer_1" xmlns="http://www.w3.org/2000/svg" xmlns:xlink="http://www.w3.org/1999/xlink" x="0px" y="0px"
	 width="1920px" height="1080px" viewBox="0 0 1920 1080" enable-background="new 0 0 1920 1080" xml:space="preserve">
<g>
	<g>
		<g>
			<g>
				<rect x="1345.335" y="823.807" width="362.666" height="140.396"/>
			</g>
			<g>
				<rect x="1317.257" y="817.535" fill="#FFFFFF" width="362.666" height="118.336"/>
				<path d="M1681.923,937.871h-366.666V815.535h366.666V937.871z M1319.257,933.871h358.666V819.535h-358.666V933.871z"/>
			</g>
		</g>
		<g>
			<g>
				<path d="M1353.811,860.639h4.511v4.06c0.082,0.026,0.164,0.055,0.246,0.082c0.628,0.272,1.317,0.498,2.069,0.676
					s1.551,0.268,2.398,0.268c1.529,0,2.719-0.309,3.565-0.924c0.848-0.615,1.271-1.44,1.271-2.479c0-0.929-0.349-1.681-1.045-2.254
					c-0.697-0.574-1.56-1.08-2.584-1.519c-1.024-0.438-2.146-0.875-3.361-1.312c-1.217-0.437-2.338-0.99-3.362-1.66
					c-1.023-0.67-1.886-1.51-2.583-2.521c-0.696-1.011-1.045-2.321-1.045-3.936c0-1.23,0.238-2.357,0.718-3.383
					c0.479-1.026,1.147-1.906,2.01-2.646c0.859-0.737,1.892-1.312,3.095-1.723c1.202-0.41,2.542-0.615,4.019-0.615
					c1.666,0,3.308,0.152,4.921,0.451c1.611,0.303,2.896,0.711,3.854,1.229v8.324h-4.51v-4.553c-0.082,0-0.164-0.012-0.246-0.041
					c-0.603-0.164-1.25-0.293-1.947-0.389c-0.696-0.097-1.388-0.144-2.069-0.144c-1.312,0-2.345,0.26-3.097,0.777
					c-0.752,0.52-1.128,1.217-1.128,2.092c0,0.902,0.35,1.641,1.046,2.215c0.697,0.572,1.559,1.092,2.583,1.558
					c1.024,0.465,2.146,0.93,3.362,1.395c1.215,0.465,2.336,1.031,3.361,1.701c1.024,0.67,1.887,1.512,2.583,2.521
					c0.697,1.013,1.046,2.283,1.046,3.812c0,1.477-0.273,2.768-0.82,3.875c-0.547,1.106-1.312,2.037-2.296,2.789
					s-2.146,1.311-3.484,1.68c-1.34,0.369-2.787,0.555-4.347,0.555c-1.039,0-2.002-0.082-2.891-0.245
					c-0.89-0.164-1.709-0.369-2.46-0.615c-0.752-0.246-1.415-0.506-1.988-0.779c-0.574-0.273-1.039-0.506-1.394-0.697
					L1353.811,860.639L1353.811,860.639z"/>
				<path d="M1398.131,868.059c-1.121,0.849-2.434,1.482-3.936,1.906c-1.504,0.424-3.076,0.637-4.717,0.637
					c-1.775,0-3.354-0.262-4.734-0.778c-1.381-0.521-2.542-1.25-3.484-2.193c-0.942-0.942-1.661-2.084-2.152-3.424
					s-0.737-2.814-0.737-4.428c0-1.724,0.287-3.254,0.86-4.592c0.573-1.341,1.373-2.476,2.397-3.404
					c1.025-0.928,2.235-1.633,3.629-2.111c1.395-0.477,2.911-0.717,4.551-0.717c1.53,0,2.966,0.178,4.307,0.533
					c1.338,0.354,2.362,0.697,3.073,1.024v7.216h-4.51v-3.771c-0.848-0.19-1.694-0.287-2.542-0.287
					c-0.766,0-1.523,0.117-2.274,0.349c-0.754,0.231-1.422,0.602-2.01,1.106c-0.588,0.506-1.065,1.144-1.436,1.906
					c-0.369,0.766-0.553,1.682-0.553,2.748c0,0.875,0.148,1.68,0.449,2.418s0.725,1.381,1.271,1.928s1.224,0.978,2.03,1.291
					c0.806,0.314,1.7,0.474,2.686,0.474c1.558,0,2.835-0.22,3.833-0.656c0.998-0.438,1.742-0.82,2.234-1.148L1398.131,868.059z"/>
				<path d="M1401.779,859.777c0-1.724,0.26-3.254,0.779-4.593c0.519-1.34,1.256-2.475,2.214-3.403
					c0.956-0.928,2.097-1.633,3.423-2.111c1.326-0.477,2.809-0.717,4.449-0.717c1.722,0,3.26,0.26,4.611,0.779
					c1.353,0.519,2.493,1.25,3.423,2.192c0.931,0.943,1.634,2.084,2.111,3.424c0.479,1.339,0.719,2.814,0.719,4.429
					c0,1.721-0.261,3.252-0.778,4.592c-0.521,1.34-1.259,2.475-2.216,3.401c-0.957,0.931-2.098,1.636-3.423,2.111
					c-1.326,0.479-2.809,0.719-4.447,0.719c-1.724,0-3.261-0.262-4.613-0.778c-1.354-0.521-2.494-1.25-3.423-2.193
					c-0.931-0.943-1.635-2.084-2.112-3.424C1402.018,862.865,1401.779,861.391,1401.779,859.777z M1407.273,859.777
					c0,0.901,0.123,1.735,0.368,2.5c0.246,0.766,0.602,1.436,1.065,2.01s1.025,1.018,1.681,1.332
					c0.656,0.313,1.408,0.473,2.256,0.473c1.584,0,2.876-0.506,3.874-1.518c0.997-1.013,1.497-2.609,1.497-4.797
					c0-1.888-0.465-3.41-1.395-4.572c-0.931-1.162-2.255-1.742-3.978-1.742c-0.766,0-1.477,0.117-2.133,0.348
					c-0.655,0.232-1.223,0.609-1.701,1.13c-0.478,0.52-0.854,1.176-1.127,1.967C1407.41,857.699,1407.273,858.656,1407.273,859.777z
					"/>
				<path d="M1426.543,865.518h5.084v-11.479h-5.084v-4.51h9.225l0.615,2.705h0.164c0.765-0.902,1.641-1.652,2.624-2.255
					c0.983-0.602,2.132-0.901,3.444-0.901c1.64,0,2.932,0.602,3.874,1.803c0.941,1.203,1.415,3.213,1.415,6.027h-4.797
					c0-0.982-0.146-1.701-0.433-2.152s-0.744-0.676-1.373-0.676c-1.094,0-1.975,0.272-2.645,0.82
					c-0.671,0.547-1.236,1.176-1.701,1.885v8.733h8.896v4.511h-19.311v-4.511H1426.543z"/>
				<path d="M1471.438,867.854c-0.354,0.328-0.812,0.65-1.373,0.964c-0.561,0.315-1.217,0.608-1.969,0.883
					c-0.752,0.273-1.578,0.492-2.479,0.656c-0.902,0.163-1.859,0.245-2.869,0.245c-1.75,0-3.315-0.245-4.695-0.737
					c-1.381-0.492-2.549-1.209-3.506-2.152c-0.957-0.942-1.688-2.078-2.192-3.404c-0.507-1.323-0.759-2.834-0.759-4.528
					c0-1.806,0.287-3.383,0.861-4.736c0.573-1.354,1.358-2.479,2.356-3.383c0.997-0.9,2.166-1.578,3.506-2.029
					c1.339-0.451,2.787-0.676,4.347-0.676c1.038,0,2.111,0.137,3.218,0.41c1.107,0.272,2.125,0.744,3.056,1.414
					c0.929,0.67,1.688,1.563,2.274,2.686c0.587,1.121,0.882,2.541,0.882,4.264c0,1.177-0.137,2.447-0.409,3.812h-14.761
					c0.026,0.875,0.211,1.613,0.554,2.215c0.342,0.603,0.793,1.094,1.354,1.478c0.561,0.383,1.202,0.661,1.927,0.84
					c0.725,0.178,1.497,0.266,2.316,0.266c1.64,0,2.985-0.188,4.038-0.572c1.053-0.383,1.906-0.848,2.562-1.395L1471.438,867.854z
					 M1462.582,853.217c-0.711,0-1.381,0.099-2.01,0.293c-0.629,0.195-1.195,0.48-1.701,0.855c-0.506,0.377-0.923,0.844-1.25,1.399
					c-0.328,0.558-0.521,1.185-0.574,1.88h10.086c0-1.363-0.377-2.443-1.128-3.236
					C1465.253,853.613,1464.111,853.217,1462.582,853.217z"/>
			</g>
			<g>
				<path d="M1352.703,896.301c0-2.485,0.26-4.666,0.781-6.539c0.521-1.873,1.256-3.424,2.201-4.653
					c0.946-1.23,2.079-2.152,3.396-2.769c1.317-0.615,2.785-0.922,4.404-0.922c3.457,0,6.118,1.209,7.983,3.629
					c1.865,2.418,2.8,6.17,2.8,11.254c0,2.517-0.263,4.709-0.783,6.58c-0.521,1.873-1.254,3.433-2.201,4.674
					c-0.947,1.244-2.086,2.175-3.416,2.789c-1.331,0.615-2.807,0.922-4.424,0.922c-3.485,0-6.146-1.276-7.984-3.834
					C1353.621,904.877,1352.703,901.166,1352.703,896.301z M1358.033,896.301c0,0.41,0.006,0.799,0.02,1.168
					c0.015,0.369,0.034,0.746,0.062,1.129l9.923-9.145c-0.813-2.35-2.346-3.525-4.596-3.525c-1.734,0-3.07,0.84-4.007,2.521
					C1358.5,890.13,1358.033,892.748,1358.033,896.301z M1368.939,896.301c0-0.438-0.009-0.854-0.021-1.25
					c-0.013-0.396-0.033-0.785-0.061-1.168l-9.964,9.144c0.841,2.485,2.371,3.729,4.596,3.729c1.734,0,3.077-0.834,4.025-2.5
					C1368.465,902.588,1368.939,899.936,1368.939,896.301z"/>
				<path d="M1398.131,901.795c0,1.34-0.254,2.582-0.759,3.73c-0.506,1.147-1.196,2.146-2.07,2.993
					c-0.875,0.849-1.921,1.517-3.137,2.009c-1.216,0.491-2.521,0.737-3.915,0.737c-1.422,0-2.754-0.225-3.998-0.676
					s-2.33-1.129-3.26-2.029c-0.931-0.901-1.667-2.036-2.213-3.403c-0.549-1.365-0.82-2.951-0.82-4.756
					c0-2.705,0.471-5.166,1.414-7.38c0.943-2.215,2.152-4.135,3.629-5.762c1.476-1.625,3.129-2.938,4.961-3.936
					c1.83-0.998,3.648-1.634,5.453-1.906l1.188,4.223c-1.447,0.273-2.802,0.718-4.06,1.332c-1.257,0.615-2.377,1.361-3.361,2.234
					c-0.983,0.875-1.811,1.846-2.479,2.912c-0.669,1.065-1.127,2.172-1.373,3.319c0.546-0.682,1.366-1.264,2.459-1.741
					c1.094-0.479,2.297-0.718,3.607-0.718c1.229,0,2.379,0.197,3.444,0.595c1.066,0.396,1.988,0.971,2.769,1.723
					c0.779,0.752,1.394,1.674,1.845,2.769C1397.904,899.158,1398.131,900.4,1398.131,901.795z M1392.965,902
					c0-1.477-0.445-2.596-1.332-3.361c-0.889-0.766-2.086-1.147-3.588-1.147c-1.094,0-2.078,0.246-2.952,0.737
					c-0.875,0.492-1.517,1.064-1.927,1.722c-0.057,0.303-0.09,0.637-0.104,1.006c-0.014,0.369-0.02,0.662-0.02,0.881
					c0,0.656,0.108,1.285,0.328,1.887c0.218,0.603,0.539,1.127,0.963,1.578s0.936,0.808,1.537,1.066
					c0.601,0.259,1.299,0.389,2.092,0.389c0.629,0,1.243-0.115,1.845-0.348s1.135-0.556,1.6-0.966
					c0.465-0.409,0.841-0.907,1.128-1.495S1392.965,902.711,1392.965,902z"/>
				<path d="M1402.559,890.971c0-1.395,0.238-2.678,0.718-3.854c0.479-1.176,1.147-2.18,2.01-3.014
					c0.86-0.834,1.897-1.49,3.115-1.97c1.217-0.477,2.575-0.717,4.079-0.717c1.53,0,2.925,0.232,4.183,0.697
					c1.257,0.465,2.337,1.153,3.239,2.069c0.9,0.916,1.599,2.052,2.091,3.402c0.491,1.354,0.737,2.904,0.737,4.654
					c0,3.17-0.409,5.904-1.229,8.199c-0.82,2.297-1.92,4.211-3.301,5.739c-1.38,1.531-2.986,2.707-4.816,3.525
					c-1.832,0.82-3.746,1.34-5.74,1.559l-1.147-4.182c1.503-0.191,2.863-0.561,4.08-1.107c1.215-0.547,2.274-1.223,3.178-2.028
					c0.901-0.808,1.639-1.724,2.213-2.746c0.574-1.025,0.943-2.125,1.107-3.301c-0.574,0.573-1.312,1.03-2.214,1.373
					c-0.902,0.342-1.982,0.512-3.239,0.512h-0.082c-1.039,0-2.091-0.176-3.156-0.533c-1.066-0.354-2.03-0.9-2.891-1.639
					c-0.861-0.738-1.565-1.66-2.111-2.769C1402.831,893.738,1402.559,892.447,1402.559,890.971z M1407.725,890.684
					c0,0.767,0.144,1.441,0.431,2.029s0.663,1.08,1.128,1.478c0.464,0.396,1.005,0.696,1.62,0.901
					c0.614,0.205,1.25,0.308,1.905,0.308c1.12,0,2.092-0.179,2.91-0.533c0.82-0.354,1.422-0.791,1.806-1.312
					c0.082-0.573,0.123-1.121,0.123-1.641c0-0.766-0.109-1.518-0.328-2.256s-0.547-1.394-0.984-1.967
					c-0.437-0.574-0.983-1.031-1.64-1.373s-1.408-0.515-2.255-0.515c-1.34,0-2.461,0.433-3.362,1.291
					C1408.176,887.957,1407.725,889.154,1407.725,890.684z"/>
				<path d="M1448.602,902.697h-4.921v7.994h-4.961v-7.994h-12.423v-3.648l12.997-17.262h4.387v16.646h4.921V902.697
					L1448.602,902.697z M1438.72,889.33l-7.134,9.104h7.134V889.33z"/>
				<path d="M1451.102,896.301c0-2.485,0.261-4.666,0.781-6.539c0.521-1.873,1.256-3.424,2.202-4.653
					c0.946-1.23,2.079-2.152,3.396-2.769c1.316-0.615,2.784-0.922,4.403-0.922c3.457,0,6.118,1.209,7.984,3.629
					c1.865,2.418,2.799,6.17,2.799,11.254c0,2.517-0.262,4.709-0.783,6.58c-0.521,1.873-1.254,3.433-2.201,4.674
					c-0.946,1.244-2.086,2.175-3.416,2.789c-1.33,0.615-2.806,0.922-4.424,0.922c-3.484,0-6.146-1.276-7.983-3.834
					C1452.02,904.877,1451.102,901.166,1451.102,896.301z M1456.432,896.301c0,0.41,0.006,0.799,0.021,1.168
					c0.014,0.369,0.034,0.746,0.062,1.129l9.924-9.145c-0.813-2.35-2.347-3.525-4.597-3.525c-1.733,0-3.069,0.84-4.006,2.521
					C1456.899,890.13,1456.432,892.748,1456.432,896.301z M1467.338,896.301c0-0.438-0.008-0.854-0.021-1.25
					c-0.014-0.396-0.033-0.785-0.062-1.168l-9.963,9.144c0.84,2.485,2.371,3.729,4.595,3.729c1.735,0,3.077-0.834,4.026-2.5
					C1466.863,902.588,1467.338,899.936,1467.338,896.301z"/>
				<path d="M1478.489,906.182h6.271v-17.916l-5.412,4.142l-2.459-3.281l9.349-7.133h3.606v24.188h6.15v4.511h-17.507
					L1478.489,906.182L1478.489,906.182z"/>
			</g>
		</g>
		<g>
			<polygon points="1642.13,913.193 1616.663,900.73 1591.96,914.643 1595.942,886.57 1575.077,867.375 1603.005,862.49 
				1614.812,836.713 1628.091,861.766 1656.255,865.029 1636.532,885.398 			"/>
		</g>
	</g>
	<g>
		<g>
			<g>
				<rect x="1345.335" y="605.229" width="362.666" height="140.396"/>
			</g>
			<g>
				<rect x="1317.257" y="597.957" fill="#FFFFFF" width="362.666" height="118.336"/>
				<path d="M1681.923,718.293h-366.666V595.957h366.666V718.293z M1319.257,714.293h358.666V599.957h-358.666V714.293z"/>
			</g>
		</g>
		<g>
			<g>
				<path d="M1368.119,634.854h5.084v11.685h-18.859v-28.699h5.616v23.697h8.159V634.854z"/>
				<path d="M1397.639,644.365c-0.354,0.328-0.812,0.647-1.373,0.963c-0.561,0.313-1.217,0.609-1.969,0.881
					c-0.752,0.273-1.578,0.492-2.479,0.656c-0.902,0.164-1.859,0.246-2.869,0.246c-1.75,0-3.315-0.246-4.695-0.738
					c-1.381-0.492-2.549-1.209-3.506-2.152c-0.957-0.942-1.688-2.076-2.193-3.401c-0.505-1.326-0.758-2.836-0.758-4.531
					c0-1.803,0.287-3.383,0.861-4.734c0.573-1.354,1.358-2.479,2.356-3.383c0.997-0.901,2.166-1.578,3.506-2.029
					c1.339-0.45,2.787-0.678,4.347-0.678c1.038,0,2.11,0.14,3.218,0.41c1.106,0.273,2.125,0.746,3.055,1.416
					s1.688,1.564,2.275,2.684c0.587,1.121,0.882,2.544,0.882,4.267c0,1.176-0.137,2.445-0.41,3.812h-14.76
					c0.026,0.875,0.211,1.613,0.553,2.213c0.343,0.603,0.793,1.095,1.354,1.478c0.56,0.383,1.202,0.664,1.927,0.842
					c0.724,0.178,1.497,0.266,2.316,0.266c1.64,0,2.985-0.19,4.038-0.573c1.053-0.384,1.906-0.849,2.562-1.396L1397.639,644.365z
					 M1388.783,629.729c-0.711,0-1.381,0.099-2.01,0.291c-0.63,0.195-1.195,0.48-1.701,0.857c-0.506,0.375-0.924,0.842-1.25,1.398
					c-0.328,0.559-0.521,1.184-0.574,1.881h10.086c0-1.365-0.377-2.443-1.128-3.238
					C1391.454,630.125,1390.312,629.729,1388.783,629.729z"/>
				<path d="M1413.178,640.346h0.287l4.592-14.309h5.74l-7.832,20.5h-5.699l-8.813-20.5h6.19L1413.178,640.346z"/>
				<path d="M1446.838,644.365c-0.354,0.328-0.812,0.647-1.373,0.963c-0.561,0.313-1.217,0.609-1.969,0.881
					c-0.752,0.273-1.578,0.492-2.48,0.656c-0.901,0.164-1.858,0.246-2.869,0.246c-1.75,0-3.314-0.246-4.694-0.738
					c-1.381-0.492-2.549-1.209-3.506-2.152c-0.957-0.942-1.688-2.076-2.193-3.401c-0.505-1.326-0.758-2.836-0.758-4.531
					c0-1.803,0.287-3.383,0.86-4.734c0.573-1.354,1.359-2.479,2.357-3.383c0.997-0.901,2.166-1.578,3.505-2.029
					c1.339-0.45,2.788-0.678,4.348-0.678c1.038,0,2.11,0.14,3.218,0.41c1.105,0.273,2.125,0.746,3.055,1.416
					s1.688,1.564,2.275,2.684c0.587,1.121,0.882,2.544,0.882,4.267c0,1.176-0.137,2.445-0.41,3.812h-14.76
					c0.026,0.875,0.211,1.613,0.553,2.213c0.342,0.603,0.793,1.095,1.354,1.478c0.56,0.383,1.201,0.664,1.927,0.842
					c0.724,0.178,1.497,0.266,2.315,0.266c1.641,0,2.986-0.19,4.038-0.573c1.054-0.384,1.907-0.849,2.562-1.396L1446.838,644.365z
					 M1437.982,629.729c-0.711,0-1.381,0.099-2.011,0.291c-0.629,0.195-1.194,0.48-1.7,0.857c-0.507,0.375-0.924,0.842-1.25,1.398
					c-0.328,0.559-0.521,1.184-0.574,1.881h10.086c0-1.365-0.377-2.443-1.128-3.238
					C1440.653,630.125,1439.512,629.729,1437.982,629.729z"/>
				<path d="M1453.11,617.838h8.732v18.941c0,2.104,0.261,3.565,0.779,4.387c0.519,0.82,1.353,1.23,2.5,1.23
					c0.848,0,1.545-0.089,2.092-0.267c0.546-0.178,1.093-0.432,1.641-0.76l2.009,3.69c-0.465,0.302-0.93,0.58-1.396,0.841
					c-0.465,0.26-0.957,0.479-1.475,0.655c-0.521,0.179-1.088,0.312-1.702,0.41c-0.615,0.096-1.306,0.144-2.07,0.144
					c-2.568,0-4.496-0.656-5.78-1.968c-1.285-1.312-1.927-3.172-1.927-5.575v-17.222h-3.403V617.838L1453.11,617.838z"/>
			</g>
			<g>
				<path d="M1352.703,672.812c0-2.488,0.26-4.669,0.781-6.541c0.521-1.871,1.256-3.423,2.201-4.652
					c0.946-1.23,2.079-2.152,3.396-2.769c1.317-0.614,2.785-0.924,4.404-0.924c3.457,0,6.118,1.211,7.983,3.629
					c1.865,2.42,2.8,6.173,2.8,11.257c0,2.514-0.263,4.706-0.783,6.579c-0.521,1.873-1.254,3.431-2.201,4.675
					s-2.086,2.172-3.416,2.787c-1.331,0.614-2.807,0.924-4.424,0.924c-3.485,0-6.146-1.277-7.984-3.834
					C1353.621,681.387,1352.703,677.678,1352.703,672.812z M1358.033,672.812c0,0.407,0.006,0.799,0.02,1.168
					c0.015,0.368,0.034,0.743,0.062,1.127l9.923-9.144c-0.813-2.352-2.346-3.524-4.596-3.524c-1.734,0-3.07,0.84-4.007,2.521
					C1358.5,666.641,1358.033,669.258,1358.033,672.812z M1368.939,672.812c0-0.438-0.009-0.855-0.021-1.253
					c-0.013-0.395-0.033-0.784-0.061-1.168l-9.964,9.144c0.841,2.488,2.371,3.731,4.596,3.731c1.734,0,3.077-0.834,4.025-2.502
					C1368.465,679.1,1368.939,676.447,1368.939,672.812z"/>
				<path d="M1380.091,682.693h6.272v-17.918l-5.412,4.141l-2.459-3.279l9.348-7.135h3.607v24.191h6.149v4.51h-17.507
					L1380.091,682.693L1380.091,682.693z"/>
				<path d="M1410.512,683.268c0.902,0,1.729-0.116,2.48-0.348c0.751-0.23,1.395-0.559,1.928-0.979
					c0.533-0.423,0.949-0.912,1.25-1.472c0.301-0.557,0.451-1.162,0.451-1.815c0-0.816-0.171-1.502-0.512-2.062
					c-0.344-0.557-0.814-1-1.415-1.326c-0.603-0.325-1.326-0.559-2.173-0.692c-0.849-0.137-1.765-0.205-2.747-0.205h-2.296v-2.941
					l6.888-8.416h-10.373v-4.51h16.728v3.732l-7.215,8.239h0.942c0.956,0,1.886,0.164,2.788,0.492
					c0.901,0.328,1.701,0.82,2.397,1.478c0.697,0.656,1.257,1.475,1.683,2.459c0.423,0.983,0.635,2.119,0.635,3.401
					c0,1.56-0.321,2.927-0.963,4.103c-0.644,1.176-1.49,2.166-2.543,2.973c-1.054,0.807-2.263,1.408-3.629,1.803
					c-1.366,0.396-2.773,0.597-4.224,0.597c-1.229,0-2.459-0.109-3.688-0.328c-1.23-0.22-2.419-0.562-3.566-1.025l1.436-4.428
					c0.244,0.137,0.579,0.272,1.005,0.41c0.423,0.137,0.9,0.272,1.435,0.409c0.532,0.138,1.079,0.246,1.641,0.328
					C1409.414,683.227,1409.965,683.268,1410.512,683.268z"/>
			</g>
		</g>
		<g>
			<polygon points="1664.771,655.15 1627.595,617.975 1627.491,635.32 1590.98,635.32 1590.98,675.426 1627.251,675.426 
				1627.146,692.773 			"/>
		</g>
	</g>
	<g>
		<g>
			<g>
				<rect x="1345.335" y="130.804" width="362.666" height="258.323"/>
			</g>
			<g>
				<rect x="1317.257" y="115.797" fill="#FFFFFF" width="362.666" height="244.212"/>
				<path d="M1681.923,362.009h-366.666V113.797h366.666V362.009z M1319.257,358.009h358.666V117.797h-358.666V358.009z"/>
			</g>
		</g>
		<g>
			<g>
				<rect x="1384.812" y="202.871" fill="#2E9AFF" width="54.666" height="54.666"/>
				<path fill="#FFFFFF" d="M1441.479,259.537h-58.666v-58.666h58.666V259.537z M1386.812,255.537h50.666v-50.666h-50.666V255.537z"
					/>
			</g>
			<g>
				<rect x="1439.479" y="202.871" fill="#2E9AFF" width="54.666" height="54.666"/>
				<path fill="#FFFFFF" d="M1496.145,259.537h-58.666v-58.666h58.666V259.537z M1441.479,255.537h50.666v-50.666h-50.666V255.537z"
					/>
			</g>
			<g>
				<rect x="1494.145" y="202.871" fill="#2E9AFF" width="54.668" height="54.666"/>
				<path fill="#FFFFFF" d="M1550.812,259.537h-58.668v-58.666h58.668V259.537z M1496.145,255.537h50.668v-50.666h-50.668V255.537z"
					/>
			</g>
			<g>
				<rect x="1548.812" y="202.871" fill="#2E9AFF" width="54.666" height="54.666"/>
				<path fill="#FFFFFF" d="M1605.479,259.537h-58.666v-58.666h58.666V259.537z M1550.812,255.537h50.666v-50.666h-50.666V255.537z"
					/>
			</g>
		</g>
		<g>
			<g>
				<rect x="1603.479" y="287.901" width="23.983" height="23.984"/>
				<path fill="#FFFFFF" d="M1629.462,313.885h-27.983v-27.984h27.983V313.885z M1605.479,309.885h19.983v-19.984h-19.983V309.885z"
					/>
			</g>
			<g>
				<g>
					<rect x="1627.462" y="287.901" width="23.984" height="23.984"/>
					<path fill="#FFFFFF" d="M1653.446,313.885h-27.984v-27.984h27.984V313.885z M1629.462,309.885h19.984v-19.984h-19.984V309.885z
						"/>
				</g>
				<g>
					<rect x="1603.479" y="311.885" width="23.983" height="23.984"/>
					<path fill="#FFFFFF" d="M1629.462,337.87h-27.983v-27.984h27.983V337.87z M1605.479,333.87h19.983v-19.984h-19.983V333.87z"/>
				</g>
				<g>
					<rect x="1627.462" y="311.885" width="23.984" height="23.984"/>
					<path fill="#FFFFFF" d="M1653.446,337.87h-27.984v-27.984h27.984V337.87z M1629.462,333.87h19.984v-19.984h-19.984V333.87z"/>
				</g>
			</g>
		</g>
		<g>
			<path d="M1357.73,153.588h-0.205l0.246,3.402v13.571h-5.33v-28.7h4.92l9.922,17.548h0.205l-0.369-3.443v-14.104h5.33v28.7h-4.92
				L1357.73,153.588z"/>
			<path d="M1396.639,168.389c-0.354,0.328-0.812,0.649-1.373,0.963c-0.561,0.315-1.217,0.609-1.969,0.882s-1.578,0.492-2.479,0.656
				c-0.902,0.164-1.859,0.246-2.869,0.246c-1.75,0-3.315-0.246-4.695-0.738c-1.381-0.492-2.549-1.209-3.506-2.152
				s-1.688-2.077-2.193-3.403c-0.506-1.325-0.758-2.835-0.758-4.53c0-1.804,0.287-3.383,0.861-4.735
				c0.573-1.354,1.358-2.48,2.356-3.383c0.997-0.901,2.166-1.578,3.506-2.029c1.339-0.451,2.787-0.677,4.347-0.677
				c1.038,0,2.11,0.138,3.218,0.41c1.106,0.273,2.125,0.745,3.055,1.415s1.688,1.564,2.275,2.685s0.882,2.542,0.882,4.265
				c0,1.176-0.137,2.446-0.41,3.812h-14.76c0.026,0.875,0.211,1.613,0.553,2.214c0.343,0.602,0.793,1.094,1.354,1.477
				c0.56,0.383,1.202,0.663,1.927,0.841c0.724,0.178,1.497,0.266,2.316,0.266c1.64,0,2.985-0.19,4.038-0.573
				c1.053-0.383,1.906-0.848,2.562-1.395L1396.639,168.389z M1387.783,153.752c-0.711,0-1.381,0.098-2.01,0.292
				c-0.63,0.195-1.195,0.48-1.701,0.856c-0.507,0.376-0.924,0.843-1.25,1.399c-0.328,0.558-0.521,1.184-0.574,1.88h10.086
				c0-1.364-0.377-2.443-1.128-3.237C1390.454,154.149,1389.312,153.752,1387.783,153.752z"/>
			<path d="M1407.995,159.984l-7.134-9.922h6.354l4.633,6.847l4.839-6.847h5.78l-7.012,9.84l7.422,10.66h-6.19l-5.207-7.544
				l-5.289,7.544h-5.822L1407.995,159.984z"/>
			<path d="M1428.699,154.572h-4.06v-4.51h4.06v-4.674l5.33-1.518v6.191h10.741v4.51h-10.741v5.863c0,2.105,0.396,3.629,1.188,4.571
				c0.793,0.943,1.899,1.415,3.321,1.415c0.737,0,1.407-0.089,2.009-0.267c0.603-0.178,1.142-0.403,1.619-0.677
				c0.479-0.272,0.916-0.574,1.312-0.902c0.396-0.328,0.759-0.628,1.087-0.901l2.461,3.689c-0.466,0.547-1.046,1.046-1.743,1.497
				c-0.696,0.45-1.448,0.848-2.255,1.188c-0.808,0.343-1.646,0.608-2.521,0.8c-0.875,0.19-1.735,0.287-2.583,0.287
				c-3.062,0-5.363-0.854-6.909-2.562c-1.544-1.708-2.315-4.421-2.315-8.139V154.572z"/>
		</g>
		<g>
			<path d="M1362.969,318.398c-0.317-0.131-0.67-0.229-1.053-0.294c-0.385-0.065-0.848-0.099-1.391-0.099
				c-0.77,0-1.522,0.141-2.263,0.42c-0.739,0.28-1.395,0.738-1.967,1.372c-0.571,0.635-1.029,1.466-1.376,2.492
				c-0.347,1.027-0.521,2.287-0.521,3.78c0,1.344,0.154,2.52,0.464,3.527c0.31,1.009,0.738,1.849,1.292,2.521
				c0.553,0.672,1.218,1.176,1.994,1.512s1.643,0.504,2.599,0.504c0.487,0,0.939-0.042,1.362-0.126c0.421-0.084,0.81-0.2,1.166-0.35
				v-2.8h2.071v3.779l0.027,0.057c-0.561,0.43-1.27,0.789-2.128,1.078s-1.903,0.434-3.136,0.434c-1.176,0-2.265-0.201-3.262-0.602
				c-1-0.401-1.862-1.013-2.591-1.834s-1.293-1.871-1.694-3.15c-0.4-1.278-0.603-2.795-0.603-4.55c0-1.829,0.226-3.384,0.672-4.662
				c0.448-1.278,1.056-2.324,1.82-3.136c0.766-0.812,1.656-1.404,2.674-1.778c1.019-0.373,2.104-0.56,3.262-0.56
				c0.636,0,1.187,0.023,1.652,0.069c0.467,0.047,0.877,0.112,1.232,0.196c0.354,0.084,0.667,0.191,0.938,0.322
				c0.271,0.131,0.537,0.279,0.799,0.447h0.027v4.425h-2.072v-2.994H1362.969z"/>
			<path d="M1377.081,321.87h4.004v9.548c0,0.915,0.056,1.792,0.168,2.632h1.876v1.82h-3.752l-0.084-2.38h-0.111
				c-0.483,0.803-1.127,1.456-1.928,1.96c-0.8,0.504-1.768,0.756-2.902,0.756c-0.856,0-1.588-0.098-2.191-0.294
				c-0.604-0.196-1.104-0.536-1.493-1.022c-0.392-0.484-0.68-1.134-0.866-1.945c-0.187-0.812-0.277-1.824-0.277-3.038v-6.16h-1.877
				v-1.876h4.088v7.588c0,0.766,0.033,1.452,0.098,2.059c0.065,0.607,0.199,1.119,0.402,1.539c0.204,0.421,0.506,0.738,0.902,0.952
				c0.398,0.215,0.932,0.322,1.599,0.322c0.963,0,1.801-0.317,2.515-0.952c0.713-0.634,1.254-1.428,1.625-2.38v-7.252h-1.792v-1.877
				H1377.081z"/>
			<path d="M1385.593,335.87v-1.876h3.78v-10.248h-3.78v-1.876h5.235l0.449,1.82h0.139c0.635-0.579,1.345-1.073,2.129-1.484
				c0.783-0.41,1.717-0.616,2.8-0.616c0.635,0,1.145,0.122,1.526,0.364c0.382,0.243,0.681,0.598,0.896,1.064
				c0.214,0.467,0.358,1.031,0.435,1.693c0.074,0.663,0.111,1.414,0.111,2.254l-1.96,0.028c0-1.185-0.116-2.055-0.352-2.61
				c-0.231-0.556-0.656-0.834-1.272-0.834c-0.578,0-1.103,0.084-1.568,0.252s-0.873,0.372-1.217,0.614
				c-0.346,0.242-0.642,0.483-0.883,0.726c-0.242,0.243-0.421,0.447-0.531,0.614v8.238h5.375v1.876L1385.593,335.87L1385.593,335.87
				z"/>
			<path d="M1402.393,335.87v-1.876h3.779v-10.248h-3.779v-1.876h5.236l0.447,1.82h0.141c0.634-0.579,1.344-1.073,2.127-1.484
				c0.785-0.41,1.718-0.616,2.801-0.616c0.636,0,1.144,0.122,1.525,0.364c0.383,0.243,0.682,0.598,0.896,1.064
				c0.214,0.466,0.358,1.031,0.434,1.693c0.074,0.663,0.112,1.414,0.112,2.254l-1.96,0.028c0-1.185-0.117-2.055-0.351-2.61
				c-0.233-0.556-0.657-0.834-1.273-0.834c-0.579,0-1.103,0.084-1.567,0.252c-0.467,0.168-0.873,0.372-1.219,0.614
				s-0.64,0.483-0.882,0.726c-0.243,0.243-0.421,0.447-0.532,0.614v8.238h5.377v1.876L1402.393,335.87L1402.393,335.87z"/>
			<path d="M1432.156,334.106c-0.336,0.299-0.732,0.578-1.189,0.84c-0.458,0.262-0.957,0.485-1.498,0.672
				c-0.542,0.187-1.105,0.331-1.693,0.434c-0.59,0.103-1.182,0.154-1.778,0.154c-1.119,0-2.109-0.173-2.968-0.518
				c-0.858-0.346-1.577-0.841-2.156-1.484c-0.579-0.643-1.018-1.414-1.314-2.31c-0.3-0.896-0.448-1.904-0.448-3.024
				c0-1.176,0.163-2.221,0.489-3.136s0.799-1.681,1.413-2.296c0.617-0.616,1.363-1.088,2.24-1.414c0.877-0.327,1.857-0.49,2.94-0.49
				c0.783,0,1.558,0.103,2.322,0.308c0.767,0.206,1.442,0.593,2.031,1.162c0.588,0.57,1.039,1.354,1.357,2.353
				c0.315,0.998,0.43,2.291,0.336,3.878h-10.809c0,1.68,0.451,2.936,1.354,3.766c0.902,0.831,2.107,1.246,3.616,1.246
				c0.503,0,1.001-0.061,1.493-0.182c0.493-0.121,0.964-0.267,1.411-0.435c0.445-0.168,0.843-0.354,1.187-0.56
				c0.345-0.205,0.609-0.393,0.797-0.561L1432.156,334.106z M1426.261,323.381c-0.614,0-1.194,0.065-1.744,0.196
				c-0.549,0.131-1.031,0.35-1.452,0.658c-0.418,0.308-0.763,0.709-1.03,1.204c-0.271,0.494-0.442,1.105-0.519,1.834h8.682
				c-0.094-1.232-0.489-2.188-1.188-2.87C1428.312,323.721,1427.396,323.381,1426.261,323.381z"/>
			<path d="M1436.748,326.77c0-0.168-0.006-0.388-0.015-0.658c-0.01-0.27-0.023-0.551-0.042-0.84
				c-0.02-0.289-0.042-0.574-0.07-0.854c-0.027-0.28-0.061-0.522-0.098-0.728h-1.876v-1.82h3.752l0.252,2.268h0.14
				c0.188-0.316,0.436-0.63,0.742-0.938c0.309-0.308,0.668-0.588,1.078-0.84s0.867-0.452,1.371-0.603
				c0.506-0.148,1.036-0.224,1.598-0.224c0.857,0,1.619,0.094,2.281,0.28s1.213,0.518,1.651,0.994s0.771,1.119,0.994,1.932
				c0.224,0.812,0.336,1.844,0.336,3.094v8.036h-2.213v-7.599c0-1.546-0.25-2.71-0.752-3.492c-0.503-0.782-1.414-1.173-2.733-1.173
				c-0.484,0-0.953,0.098-1.41,0.293c-0.455,0.196-0.869,0.452-1.24,0.769c-0.373,0.316-0.698,0.685-0.978,1.104
				c-0.278,0.419-0.483,0.861-0.613,1.327v8.771h-2.155V326.77L1436.748,326.77z"/>
			<path d="M1451.812,321.87h3.332v-2.772l2.212-0.615v3.388h7.477v1.876h-7.477v6.608c0,1.362,0.329,2.37,0.989,3.023
				c0.66,0.654,1.605,0.98,2.833,0.98c0.837,0,1.567-0.158,2.19-0.477c0.623-0.317,1.186-0.662,1.688-1.036l0.726,1.652
				c-0.653,0.522-1.434,0.943-2.338,1.26c-0.906,0.317-1.834,0.477-2.786,0.477c-0.747,0-1.452-0.107-2.114-0.322
				s-1.246-0.546-1.75-0.994c-0.504-0.448-0.905-1.021-1.203-1.722c-0.299-0.7-0.448-1.535-0.448-2.506v-6.944h-3.332
				L1451.812,321.87L1451.812,321.87z"/>
		</g>
	</g>
	<g>
		<g>
			<g>
				<rect x="239.302" y="462.203" width="329.256" height="502"/>
			</g>
			<g>
				<rect x="213.812" y="435.203" fill="#FFFFFF" width="329.256" height="502"/>
				<path d="M545.067,939.203H211.812v-506h333.256L545.067,939.203L545.067,939.203z M215.812,935.203h325.256v-498H215.812
					V935.203z"/>
			</g>
		</g>
		<g>
			<g>
				<path d="M249.071,493.156h4.51v4.059c0.082,0.027,0.164,0.055,0.246,0.082c0.628,0.273,1.318,0.499,2.071,0.677
					c0.751,0.179,1.551,0.268,2.398,0.268c1.53,0,2.719-0.309,3.567-0.923c0.847-0.615,1.271-1.441,1.271-2.48
					c0-0.929-0.349-1.681-1.045-2.255c-0.697-0.574-1.558-1.079-2.583-1.518c-1.025-0.438-2.146-0.874-3.362-1.312
					c-1.216-0.437-2.337-0.99-3.362-1.66c-1.025-0.67-1.886-1.511-2.583-2.521c-0.697-1.013-1.045-2.323-1.045-3.938
					c0-1.229,0.239-2.356,0.717-3.383c0.478-1.024,1.148-1.906,2.009-2.644c0.861-0.738,1.892-1.312,3.095-1.724
					c1.203-0.41,2.542-0.615,4.018-0.615c1.667,0,3.307,0.151,4.92,0.451c1.613,0.303,2.897,0.711,3.854,1.23v8.323h-4.51v-4.553
					c-0.082,0-0.164-0.013-0.246-0.041c-0.602-0.164-1.25-0.293-1.947-0.39c-0.697-0.095-1.388-0.143-2.071-0.143
					c-1.312,0-2.344,0.26-3.095,0.777c-0.752,0.521-1.128,1.217-1.128,2.091c0,0.902,0.349,1.642,1.046,2.216
					c0.697,0.572,1.558,1.093,2.583,1.558s2.146,0.93,3.362,1.394c1.216,0.467,2.337,1.032,3.362,1.702s1.886,1.511,2.583,2.521
					c0.697,1.012,1.046,2.282,1.046,3.812c0,1.478-0.274,2.769-0.82,3.875c-0.547,1.106-1.312,2.036-2.296,2.788
					c-0.984,0.752-2.146,1.312-3.485,1.681c-1.34,0.369-2.788,0.555-4.346,0.555c-1.039,0-2.002-0.082-2.891-0.246
					c-0.889-0.164-1.708-0.369-2.46-0.615s-1.415-0.505-1.988-0.779c-0.574-0.271-1.039-0.505-1.394-0.695L249.071,493.156
					L249.071,493.156z"/>
				<path d="M274.831,486.554h-4.059v-4.51h4.059v-4.674l5.33-1.519v6.191h10.742v4.51h-10.742v5.863
					c0,2.105,0.396,3.629,1.189,4.571c0.792,0.942,1.899,1.415,3.321,1.415c0.738,0,1.407-0.089,2.009-0.268
					c0.601-0.178,1.141-0.402,1.62-0.677c0.478-0.272,0.916-0.574,1.312-0.902s0.758-0.628,1.086-0.9l2.46,3.688
					c-0.465,0.547-1.045,1.046-1.743,1.497c-0.697,0.45-1.449,0.849-2.255,1.188c-0.807,0.343-1.647,0.607-2.521,0.8
					c-0.875,0.189-1.736,0.287-2.583,0.287c-3.062,0-5.365-0.854-6.909-2.562s-2.316-4.421-2.316-8.139V486.554L274.831,486.554z"/>
				<path d="M297.372,483.438c1.093-0.49,2.357-0.914,3.792-1.271c1.435-0.354,3.137-0.533,5.104-0.533
					c1.422,0,2.631,0.171,3.629,0.514c0.997,0.342,1.804,0.826,2.419,1.454c0.614,0.631,1.059,1.382,1.333,2.257
					c0.272,0.875,0.409,1.857,0.409,2.95c0,1.396-0.048,2.583-0.144,3.567s-0.145,1.859-0.145,2.624
					c0,0.574,0.027,1.217,0.082,1.927c0.056,0.383,0.097,0.752,0.123,1.107h2.665v4.51h-6.882l-0.539-2.788h-0.204
					c-0.543,0.848-1.317,1.578-2.322,2.193c-1.005,0.615-2.363,0.923-4.074,0.923c-2.038,0-3.654-0.547-4.85-1.64
					c-1.195-1.095-1.792-2.542-1.792-4.348c0-1.146,0.21-2.139,0.631-2.973c0.421-0.833,1.032-1.518,1.833-2.05
					c0.801-0.533,1.765-0.93,2.893-1.188c1.127-0.26,2.383-0.39,3.768-0.39c0.489,0,1.005,0.026,1.548,0.082
					c0.543,0.055,1.208,0.108,1.997,0.164c0.054-0.273,0.08-0.547,0.08-0.82v-0.779c0-1.038-0.298-1.782-0.896-2.233
					s-1.479-0.678-2.646-0.678c-1.385,0-2.633,0.18-3.745,0.533c-1.113,0.355-2.049,0.711-2.809,1.066L297.372,483.438z
					 M304.351,498.486c1.296,0,2.27-0.239,2.918-0.719c0.647-0.479,1.121-0.989,1.418-1.537v-2.461
					c-0.27-0.054-0.676-0.114-1.216-0.185c-0.541-0.067-1.122-0.102-1.743-0.102c-0.514,0-1.027,0.048-1.541,0.143
					c-0.514,0.097-0.973,0.246-1.378,0.451s-0.729,0.472-0.973,0.8c-0.243,0.328-0.364,0.725-0.364,1.189
					c0,0.765,0.223,1.358,0.669,1.782C302.587,498.274,303.323,498.486,304.351,498.486z"/>
				<path d="M321.529,486.554h-4.06v-4.51h4.06v-4.674l5.33-1.519v6.191h10.741v4.51h-10.741v5.863c0,2.105,0.396,3.629,1.188,4.571
					c0.792,0.942,1.899,1.415,3.321,1.415c0.738,0,1.407-0.089,2.009-0.268c0.601-0.178,1.141-0.402,1.62-0.677
					c0.478-0.272,0.916-0.574,1.312-0.902c0.396-0.328,0.759-0.628,1.087-0.9l2.459,3.688c-0.465,0.547-1.045,1.046-1.742,1.497
					c-0.697,0.45-1.449,0.849-2.255,1.188c-0.808,0.343-1.647,0.607-2.521,0.8c-0.875,0.189-1.736,0.287-2.583,0.287
					c-3.062,0-5.365-0.854-6.909-2.562s-2.315-4.421-2.315-8.139V486.554L321.529,486.554z"/>
				<path d="M342.844,498.035h7.216v-11.48h-7.216v-4.51h12.546v15.99h7.585v4.51h-20.131V498.035z M349.076,476.468
					c0-0.847,0.313-1.571,0.942-2.173c0.628-0.601,1.503-0.902,2.624-0.902c1.148,0,2.063,0.303,2.747,0.902
					c0.684,0.602,1.025,1.326,1.025,2.173c0,0.875-0.342,1.593-1.025,2.152c-0.684,0.561-1.599,0.841-2.747,0.841
					c-1.121,0-1.994-0.28-2.624-0.841C349.39,478.061,349.076,477.343,349.076,476.468z"/>
				<path d="M380.191,496.886c0-0.546-0.335-0.982-1.004-1.312c-0.671-0.328-1.497-0.629-2.48-0.902
					c-0.984-0.271-2.064-0.554-3.239-0.841c-1.175-0.286-2.255-0.683-3.239-1.188c-0.983-0.505-1.811-1.147-2.479-1.927
					c-0.67-0.779-1.004-1.784-1.004-3.014c0-1.011,0.225-1.899,0.676-2.665s1.066-1.415,1.845-1.947
					c0.779-0.533,1.708-0.937,2.788-1.21c1.08-0.271,2.248-0.41,3.506-0.41c1.339,0,2.515,0.098,3.526,0.287
					c1.011,0.191,1.893,0.424,2.645,0.697c0.752,0.272,1.395,0.581,1.928,0.922c0.533,0.343,0.99,0.65,1.374,0.923l-2.255,3.649
					c-0.41-0.246-0.882-0.499-1.415-0.76c-0.533-0.26-1.094-0.497-1.682-0.718c-0.588-0.218-1.203-0.396-1.845-0.533
					c-0.643-0.136-1.278-0.203-1.907-0.203c-1.147,0-2.077,0.149-2.788,0.449c-0.711,0.303-1.065,0.767-1.065,1.396
					c0,0.492,0.334,0.889,1.005,1.188c0.669,0.303,1.497,0.581,2.479,0.842c0.983,0.26,2.063,0.54,3.239,0.841
					c1.175,0.301,2.255,0.689,3.239,1.168c0.983,0.479,1.81,1.101,2.479,1.866c0.67,0.765,1.004,1.749,1.004,2.95
					c0,2.078-0.758,3.711-2.274,4.899s-3.767,1.784-6.745,1.784c-2.351,0-4.38-0.35-6.088-1.046
					c-1.708-0.697-3.082-1.511-4.121-2.439l2.46-3.854c0.355,0.301,0.827,0.635,1.415,1.004c0.587,0.369,1.25,0.704,1.988,1.005
					c0.737,0.301,1.522,0.554,2.357,0.759c0.833,0.204,1.66,0.307,2.48,0.307c0.875,0,1.625-0.148,2.255-0.449
					C379.876,498.103,380.191,497.597,380.191,496.886z"/>
				<path d="M408.846,500.577c-1.121,0.848-2.433,1.481-3.936,1.906c-1.504,0.424-3.075,0.636-4.715,0.636
					c-1.777,0-3.355-0.261-4.735-0.779s-2.542-1.25-3.485-2.192c-0.942-0.943-1.66-2.085-2.152-3.425
					c-0.492-1.339-0.738-2.813-0.738-4.428c0-1.722,0.287-3.253,0.861-4.592s1.374-2.475,2.397-3.403
					c1.025-0.929,2.235-1.633,3.629-2.11c1.395-0.479,2.911-0.719,4.552-0.719c1.529,0,2.965,0.18,4.305,0.533
					c1.339,0.355,2.364,0.697,3.075,1.025v7.216h-4.511v-3.772c-0.848-0.189-1.694-0.287-2.542-0.287
					c-0.766,0-1.523,0.117-2.274,0.35c-0.752,0.231-1.422,0.602-2.009,1.106c-0.589,0.507-1.066,1.143-1.436,1.906
					c-0.369,0.767-0.553,1.681-0.553,2.747c0,0.875,0.149,1.681,0.451,2.419c0.301,0.738,0.724,1.381,1.271,1.927
					c0.546,0.549,1.224,0.979,2.03,1.292c0.806,0.314,1.701,0.473,2.686,0.473c1.559,0,2.835-0.22,3.833-0.656
					c0.997-0.438,1.742-0.82,2.234-1.148L408.846,500.577z"/>
				<path d="M414.909,486.554h-4.06v-4.51h4.06v-4.674l5.33-1.519v6.191h10.741v4.51h-10.741v5.863c0,2.105,0.396,3.629,1.188,4.571
					c0.792,0.942,1.899,1.415,3.321,1.415c0.738,0,1.407-0.089,2.009-0.268c0.602-0.178,1.142-0.402,1.62-0.677
					c0.478-0.272,0.916-0.574,1.312-0.902c0.396-0.328,0.758-0.628,1.086-0.9l2.46,3.688c-0.465,0.547-1.045,1.046-1.743,1.497
					c-0.697,0.45-1.449,0.849-2.255,1.188c-0.808,0.343-1.647,0.607-2.521,0.8c-0.875,0.189-1.736,0.287-2.583,0.287
					c-3.062,0-5.365-0.854-6.909-2.562s-2.315-4.421-2.315-8.139V486.554L414.909,486.554z"/>
				<path d="M436.225,498.035h7.217v-11.48h-7.217v-4.51h12.547v15.99h7.584v4.51h-20.131V498.035z M442.457,476.468
					c0-0.847,0.314-1.571,0.943-2.173c0.628-0.601,1.502-0.902,2.624-0.902c1.147,0,2.062,0.303,2.747,0.902
					c0.683,0.602,1.024,1.326,1.024,2.173c0,0.875-0.342,1.593-1.024,2.152c-0.685,0.561-1.6,0.841-2.747,0.841
					c-1.121,0-1.995-0.28-2.624-0.841C442.771,478.061,442.457,477.343,442.457,476.468z"/>
				<path d="M478.873,500.577c-1.121,0.848-2.434,1.481-3.936,1.906c-1.505,0.424-3.075,0.636-4.716,0.636
					c-1.776,0-3.354-0.261-4.734-0.779s-2.542-1.25-3.485-2.192c-0.943-0.943-1.661-2.085-2.153-3.425
					c-0.491-1.339-0.737-2.813-0.737-4.428c0-1.722,0.287-3.253,0.86-4.592c0.574-1.339,1.374-2.475,2.398-3.403
					s2.235-1.633,3.629-2.11c1.394-0.479,2.911-0.719,4.551-0.719c1.53,0,2.965,0.18,4.306,0.533
					c1.339,0.355,2.363,0.697,3.074,1.025v7.216h-4.51v-3.772c-0.848-0.189-1.695-0.287-2.542-0.287
					c-0.766,0-1.524,0.117-2.274,0.35c-0.753,0.231-1.423,0.602-2.01,1.106c-0.588,0.507-1.065,1.143-1.435,1.906
					c-0.369,0.767-0.554,1.681-0.554,2.747c0,0.875,0.15,1.681,0.451,2.419c0.302,0.738,0.725,1.381,1.271,1.927
					c0.546,0.549,1.223,0.979,2.03,1.292c0.806,0.314,1.7,0.473,2.686,0.473c1.558,0,2.835-0.22,3.833-0.656
					c0.997-0.438,1.742-0.82,2.234-1.148L478.873,500.577z"/>
				<path d="M496.149,496.886c0-0.546-0.335-0.982-1.005-1.312c-0.67-0.328-1.496-0.629-2.479-0.902
					c-0.984-0.271-2.064-0.554-3.239-0.841c-1.175-0.286-2.255-0.683-3.239-1.188c-0.983-0.505-1.811-1.147-2.479-1.927
					c-0.67-0.779-1.004-1.784-1.004-3.014c0-1.011,0.225-1.899,0.676-2.665s1.066-1.415,1.845-1.947
					c0.779-0.533,1.708-0.937,2.788-1.21c1.08-0.271,2.248-0.41,3.506-0.41c1.34,0,2.515,0.098,3.526,0.287
					c1.011,0.191,1.893,0.424,2.646,0.697c0.75,0.272,1.394,0.581,1.927,0.922c0.532,0.343,0.991,0.65,1.374,0.923l-2.255,3.649
					c-0.41-0.246-0.882-0.499-1.415-0.76c-0.533-0.26-1.094-0.497-1.682-0.718c-0.588-0.218-1.203-0.396-1.845-0.533
					c-0.644-0.136-1.278-0.203-1.907-0.203c-1.147,0-2.077,0.149-2.788,0.449c-0.711,0.303-1.065,0.767-1.065,1.396
					c0,0.492,0.334,0.889,1.005,1.188c0.669,0.303,1.497,0.581,2.479,0.842c0.983,0.26,2.063,0.54,3.239,0.841
					c1.175,0.301,2.255,0.689,3.239,1.168s1.81,1.101,2.479,1.866c0.669,0.765,1.005,1.749,1.005,2.95
					c0,2.078-0.759,3.711-2.275,4.899c-1.518,1.188-3.766,1.784-6.745,1.784c-2.351,0-4.38-0.35-6.088-1.046
					c-1.708-0.697-3.082-1.511-4.121-2.439l2.46-3.854c0.355,0.301,0.827,0.635,1.415,1.004c0.587,0.369,1.25,0.704,1.988,1.005
					c0.737,0.301,1.522,0.554,2.357,0.759c0.833,0.204,1.66,0.307,2.48,0.307c0.875,0,1.625-0.148,2.255-0.449
					C495.835,498.103,496.149,497.597,496.149,496.886z"/>
			</g>
		</g>
		<g>
			<path d="M400.273,554.322c0-2.488,0.26-4.668,0.78-6.541c0.521-1.871,1.255-3.422,2.202-4.652
				c0.947-1.229,2.079-2.153,3.396-2.768c1.316-0.615,2.785-0.923,4.402-0.923c3.457,0,6.119,1.21,7.984,3.628
				c1.865,2.42,2.799,6.172,2.799,11.256c0,2.514-0.261,4.707-0.782,6.58c-0.521,1.873-1.255,3.43-2.202,4.674
				c-0.946,1.244-2.084,2.172-3.416,2.787c-1.33,0.615-2.806,0.924-4.424,0.924c-3.484,0-6.146-1.277-7.983-3.834
				S400.273,559.188,400.273,554.322z M405.604,554.322c0,0.408,0.007,0.799,0.021,1.168s0.034,0.744,0.062,1.127l9.924-9.144
				c-0.813-2.352-2.346-3.524-4.596-3.524c-1.734,0-3.07,0.84-4.006,2.521C406.071,548.15,405.604,550.768,405.604,554.322z
				 M416.509,554.322c0-0.438-0.007-0.855-0.021-1.252c-0.014-0.396-0.034-0.785-0.062-1.168l-9.963,9.143
				c0.84,2.488,2.372,3.732,4.595,3.732c1.735,0,3.077-0.834,4.026-2.502C416.035,560.609,416.509,557.957,416.509,554.322z"/>
			<path d="M446.972,560.717h-4.92v7.996h-4.961v-7.996h-12.423v-3.647l12.997-17.262h4.387v16.646h4.92V560.717z M437.091,547.352
				l-7.134,9.103h7.134V547.352z"/>
			<path d="M450.128,548.992c0-1.396,0.239-2.68,0.718-3.855c0.479-1.174,1.148-2.18,2.01-3.014c0.86-0.832,1.898-1.489,3.115-1.967
				c1.217-0.479,2.576-0.718,4.08-0.718c1.53,0,2.924,0.232,4.183,0.696c1.257,0.465,2.337,1.156,3.238,2.07
				c0.902,0.916,1.6,2.051,2.091,3.404c0.492,1.352,0.738,2.903,0.738,4.651c0,3.172-0.41,5.904-1.229,8.201
				c-0.82,2.295-1.92,4.209-3.3,5.74c-1.381,1.531-2.986,2.705-4.817,3.524c-1.832,0.82-3.745,1.339-5.74,1.56l-1.147-4.185
				c1.503-0.188,2.862-0.559,4.08-1.104c1.216-0.547,2.274-1.223,3.178-2.029c0.901-0.807,1.64-1.723,2.214-2.748
				c0.574-1.024,0.942-2.125,1.106-3.301c-0.573,0.574-1.312,1.033-2.214,1.373c-0.901,0.344-1.981,0.514-3.238,0.514h-0.082
				c-1.039,0-2.092-0.178-3.157-0.532c-1.066-0.355-2.03-0.902-2.891-1.642c-0.861-0.739-1.565-1.66-2.111-2.768
				C450.401,551.76,450.128,550.467,450.128,548.992z M455.294,548.705c0,0.766,0.144,1.441,0.431,2.029s0.663,1.08,1.127,1.475
				c0.465,0.398,1.005,0.697,1.62,0.902s1.25,0.309,1.906,0.309c1.121,0,2.091-0.178,2.911-0.533
				c0.82-0.354,1.421-0.793,1.804-1.312c0.082-0.574,0.123-1.121,0.123-1.642c0-0.764-0.108-1.516-0.328-2.254
				c-0.219-0.737-0.547-1.395-0.983-1.969c-0.438-0.574-0.984-1.031-1.641-1.373c-0.655-0.342-1.408-0.512-2.255-0.512
				c-1.34,0-2.46,0.43-3.362,1.291C455.745,545.978,455.294,547.174,455.294,548.705z"/>
		</g>
		<g>
			<path d="M400.273,620.93c0-2.487,0.26-4.668,0.78-6.541c0.521-1.871,1.255-3.422,2.202-4.651c0.947-1.23,2.079-2.152,3.396-2.769
				c1.316-0.615,2.785-0.924,4.402-0.924c3.457,0,6.119,1.211,7.984,3.629c1.865,2.42,2.799,6.172,2.799,11.256
				c0,2.515-0.261,4.707-0.782,6.58c-0.521,1.873-1.255,3.431-2.202,4.674c-0.946,1.244-2.084,2.173-3.416,2.787
				c-1.33,0.615-2.806,0.924-4.424,0.924c-3.484,0-6.146-1.276-7.983-3.834C401.192,629.504,400.273,625.795,400.273,620.93z
				 M405.604,620.93c0,0.408,0.007,0.799,0.021,1.168s0.034,0.744,0.062,1.127l9.924-9.143c-0.813-2.352-2.346-3.525-4.596-3.525
				c-1.734,0-3.07,0.841-4.006,2.521C406.071,614.758,405.604,617.375,405.604,620.93z M416.509,620.93
				c0-0.438-0.007-0.854-0.021-1.252c-0.014-0.395-0.034-0.785-0.062-1.168l-9.963,9.144c0.84,2.487,2.372,3.731,4.595,3.731
				c1.735,0,3.077-0.834,4.026-2.502C416.035,627.217,416.509,624.564,416.509,620.93z"/>
			<path d="M433.483,631.385c0.901,0,1.729-0.117,2.479-0.348s1.395-0.56,1.927-0.979c0.533-0.422,0.949-0.911,1.25-1.471
				c0.301-0.557,0.451-1.162,0.451-1.815c0-0.816-0.171-1.503-0.512-2.062c-0.342-0.557-0.814-1-1.415-1.326
				c-0.602-0.326-1.326-0.559-2.173-0.692c-0.847-0.138-1.763-0.205-2.747-0.205h-2.296v-2.941l6.888-8.416h-10.373v-4.51h16.729
				v3.731l-7.217,8.24h0.943c0.957,0,1.886,0.164,2.788,0.492s1.701,0.82,2.397,1.477c0.697,0.656,1.258,1.476,1.682,2.459
				c0.423,0.984,0.635,2.119,0.635,3.402c0,1.56-0.321,2.926-0.963,4.103c-0.643,1.176-1.49,2.166-2.542,2.973
				c-1.053,0.807-2.262,1.408-3.628,1.803c-1.367,0.396-2.775,0.596-4.223,0.596c-1.23,0-2.461-0.108-3.69-0.327
				c-1.229-0.22-2.419-0.562-3.567-1.025l1.436-4.428c0.246,0.137,0.58,0.272,1.004,0.409c0.423,0.138,0.902,0.273,1.435,0.41
				c0.533,0.138,1.079,0.246,1.641,0.328C432.382,631.344,432.936,631.385,433.483,631.385z"/>
			<path d="M457.631,631.18c0.902,0,1.736-0.108,2.501-0.328c0.766-0.219,1.429-0.532,1.989-0.942
				c0.56-0.41,0.998-0.916,1.312-1.519c0.314-0.602,0.473-1.284,0.473-2.049c0-1.504-0.595-2.686-1.784-3.547
				s-2.973-1.293-5.352-1.293c-0.301,0-0.648,0.008-1.045,0.021c-0.396,0.014-0.771,0.034-1.127,0.061
				c-0.41,0.029-0.834,0.041-1.271,0.041v-15.006h14.842v5.002h-10.25v5.535c0.219,0,0.438-0.015,0.656-0.041
				c0.19,0,0.375-0.006,0.553-0.021c0.178-0.014,0.334-0.021,0.472-0.021c1.366,0,2.638,0.198,3.813,0.596
				c1.175,0.396,2.2,0.99,3.075,1.783c0.874,0.793,1.551,1.756,2.028,2.891c0.479,1.135,0.718,2.385,0.718,3.752
				c0,1.611-0.302,3.027-0.902,4.242c-0.602,1.217-1.421,2.234-2.46,3.055s-2.242,1.441-3.608,1.865
				c-1.367,0.424-2.829,0.637-4.387,0.637c-0.602,0-1.244-0.062-1.927-0.186c-0.685-0.123-1.354-0.273-2.009-0.451
				c-0.656-0.178-1.266-0.375-1.824-0.594c-0.562-0.219-1.032-0.424-1.415-0.615l1.722-4.264c0.465,0.272,1.182,0.574,2.153,0.902
				C455.547,631.016,456.565,631.18,457.631,631.18z"/>
		</g>
		<g>
			<path d="M400.273,703.596c0-2.485,0.26-4.666,0.78-6.539c0.521-1.873,1.255-3.424,2.202-4.653
				c0.947-1.23,2.079-2.152,3.396-2.769c1.316-0.615,2.785-0.922,4.402-0.922c3.457,0,6.119,1.209,7.984,3.629
				c1.865,2.418,2.799,6.17,2.799,11.254c0,2.517-0.261,4.709-0.782,6.58c-0.521,1.873-1.255,3.433-2.202,4.674
				c-0.946,1.244-2.084,2.175-3.416,2.789c-1.33,0.615-2.806,0.923-4.424,0.923c-3.484,0-6.146-1.277-7.983-3.834
				C401.192,712.172,400.273,708.461,400.273,703.596z M405.604,703.596c0,0.41,0.007,0.799,0.021,1.168s0.034,0.746,0.062,1.129
				l9.924-9.145c-0.813-2.35-2.346-3.525-4.596-3.525c-1.734,0-3.07,0.841-4.006,2.521
				C406.071,697.426,405.604,700.043,405.604,703.596z M416.509,703.596c0-0.438-0.007-0.854-0.021-1.25
				c-0.014-0.396-0.034-0.785-0.062-1.168l-9.963,9.144c0.84,2.485,2.372,3.729,4.595,3.729c1.735,0,3.077-0.834,4.026-2.5
				C416.035,709.883,416.509,707.23,416.509,703.596z"/>
			<path d="M427.497,717.986l11.808-23.861h-13.365v-4.838h18.695v4.018l-11.931,24.683L427.497,717.986L427.497,717.986z"/>
			<path d="M471.572,709.992h-4.92v7.994h-4.961v-7.994h-12.424v-3.648l12.997-17.262h4.388v16.646h4.92V709.992z M461.69,696.625
				l-7.135,9.104h7.135V696.625z"/>
		</g>
		<g>
			<path d="M400.273,787.418c0-2.486,0.26-4.666,0.78-6.539c0.521-1.873,1.255-3.424,2.202-4.654
				c0.947-1.229,2.079-2.151,3.396-2.768c1.316-0.615,2.785-0.922,4.402-0.922c3.457,0,6.119,1.209,7.984,3.629
				c1.865,2.418,2.799,6.17,2.799,11.254c0,2.516-0.261,4.709-0.782,6.58c-0.521,1.873-1.255,3.432-2.202,4.674
				c-0.946,1.244-2.084,2.174-3.416,2.789c-1.33,0.615-2.806,0.922-4.424,0.922c-3.484,0-6.146-1.276-7.983-3.834
				C401.192,795.994,400.273,792.283,400.273,787.418z M405.604,787.418c0,0.41,0.007,0.799,0.021,1.168s0.034,0.746,0.062,1.129
				l9.924-9.145c-0.813-2.351-2.346-3.525-4.596-3.525c-1.734,0-3.07,0.84-4.006,2.521
				C406.071,781.248,405.604,783.865,405.604,787.418z M416.509,787.418c0-0.438-0.007-0.854-0.021-1.25
				c-0.014-0.396-0.034-0.785-0.062-1.168l-9.963,9.143c0.84,2.486,2.372,3.73,4.595,3.73c1.735,0,3.077-0.834,4.026-2.5
				C416.035,793.705,416.509,791.053,416.509,787.418z"/>
			<path d="M444.758,801.809h-18.286v-3.977c0.328-0.273,0.738-0.635,1.23-1.086s1.045-0.965,1.66-1.537
				c0.614-0.574,1.264-1.203,1.947-1.887c0.684-0.685,1.354-1.396,2.01-2.133c0.929-1.037,1.743-1.98,2.438-2.828
				c0.697-0.849,1.271-1.646,1.723-2.398c0.45-0.752,0.784-1.49,1.004-2.215c0.219-0.723,0.328-1.469,0.328-2.234
				c0-0.547-0.123-1.078-0.369-1.598c-0.246-0.521-0.588-0.979-1.025-1.375s-0.963-0.709-1.579-0.943
				c-0.615-0.229-1.292-0.348-2.029-0.348c-0.983,0-1.88,0.15-2.686,0.451c-0.807,0.301-1.647,0.807-2.521,1.518l-2.133-3.772
				c1.148-0.818,2.426-1.511,3.833-2.07s3.027-0.84,4.858-0.84c1.175,0,2.302,0.164,3.382,0.492c1.08,0.327,2.036,0.812,2.87,1.454
				c0.833,0.644,1.497,1.441,1.988,2.398c0.492,0.957,0.737,2.064,0.737,3.32c0,0.877-0.075,1.688-0.226,2.438
				c-0.15,0.754-0.383,1.504-0.697,2.256c-0.313,0.753-0.724,1.523-1.229,2.316c-0.507,0.793-1.114,1.654-1.824,2.584
				c-0.547,0.711-1.142,1.428-1.784,2.152s-1.278,1.414-1.906,2.069c-0.629,0.656-1.25,1.271-1.865,1.845s-1.168,1.053-1.661,1.436
				h11.808v4.511H444.758z"/>
			<path d="M450.375,794.799c0-0.957,0.157-1.832,0.472-2.625s0.725-1.502,1.23-2.131c0.505-0.629,1.086-1.197,1.742-1.703
				c0.655-0.504,1.325-0.949,2.009-1.332c-1.367-0.793-2.501-1.729-3.403-2.809c-0.901-1.078-1.353-2.439-1.353-4.08
				c0-1.064,0.23-2.062,0.696-2.992c0.465-0.93,1.113-1.734,1.947-2.418c0.833-0.684,1.825-1.217,2.974-1.6
				c1.147-0.384,2.392-0.574,3.73-0.574c1.23,0,2.385,0.164,3.465,0.492c1.079,0.328,2.029,0.793,2.85,1.395
				c0.819,0.603,1.462,1.332,1.927,2.193c0.464,0.858,0.696,1.811,0.696,2.85c0,1.613-0.416,3.021-1.25,4.224
				c-0.834,1.202-1.975,2.239-3.423,3.114c1.641,0.849,2.945,1.847,3.916,2.994c0.971,1.146,1.456,2.623,1.456,4.428
				c0,1.229-0.267,2.345-0.8,3.343s-1.25,1.852-2.152,2.562c-0.901,0.71-1.961,1.264-3.177,1.66
				c-1.217,0.395-2.508,0.594-3.875,0.594s-2.638-0.184-3.812-0.553c-1.176-0.369-2.201-0.883-3.075-1.537
				c-0.875-0.656-1.558-1.449-2.05-2.379C450.621,796.984,450.375,795.945,450.375,794.799z M464.971,794.102
				c0-0.684-0.178-1.271-0.533-1.764c-0.354-0.492-0.799-0.93-1.332-1.312s-1.121-0.73-1.764-1.045s-1.265-0.636-1.866-0.964
				c-1.366,0.603-2.419,1.373-3.156,2.316c-0.738,0.943-1.107,1.838-1.107,2.686c0,1.23,0.438,2.181,1.312,2.851
				s2.091,1.004,3.648,1.004c1.395,0,2.542-0.32,3.444-0.963C464.52,796.268,464.971,795.332,464.971,794.102z M456.156,780.365
				c0,0.656,0.143,1.211,0.43,1.662c0.287,0.45,0.656,0.848,1.107,1.188c0.45,0.344,0.964,0.65,1.537,0.924
				c0.574,0.273,1.148,0.547,1.723,0.82c0.437-0.219,0.867-0.492,1.292-0.82c0.423-0.328,0.799-0.69,1.127-1.088
				c0.328-0.395,0.594-0.805,0.799-1.229s0.308-0.855,0.308-1.293c0-0.572-0.122-1.072-0.368-1.496s-0.567-0.785-0.964-1.086
				c-0.396-0.302-0.84-0.525-1.332-0.677c-0.492-0.149-0.998-0.227-1.518-0.227c-0.602,0-1.155,0.096-1.66,0.287
				c-0.506,0.19-0.942,0.438-1.312,0.738s-0.656,0.655-0.861,1.065S456.156,779.957,456.156,780.365z"/>
		</g>
		<g>
			<path d="M400.273,868.244c0-2.488,0.26-4.668,0.78-6.541c0.521-1.871,1.255-3.422,2.202-4.652
				c0.947-1.229,2.079-2.151,3.396-2.768c1.316-0.615,2.785-0.924,4.402-0.924c3.457,0,6.119,1.211,7.984,3.629
				c1.865,2.42,2.799,6.172,2.799,11.256c0,2.514-0.261,4.707-0.782,6.58c-0.521,1.873-1.255,3.43-2.202,4.674
				c-0.946,1.244-2.084,2.172-3.416,2.787c-1.33,0.615-2.806,0.924-4.424,0.924c-3.484,0-6.146-1.277-7.983-3.834
				S400.273,873.109,400.273,868.244z M405.604,868.244c0,0.408,0.007,0.799,0.021,1.168s0.034,0.744,0.062,1.127l9.924-9.143
				c-0.813-2.353-2.346-3.525-4.596-3.525c-1.734,0-3.07,0.84-4.006,2.521C406.071,862.072,405.604,864.689,405.604,868.244z
				 M416.509,868.244c0-0.438-0.007-0.855-0.021-1.252c-0.014-0.396-0.034-0.785-0.062-1.168l-9.963,9.143
				c0.84,2.488,2.372,3.732,4.595,3.732c1.735,0,3.077-0.834,4.026-2.502C416.035,874.531,416.509,871.879,416.509,868.244z"/>
			<path d="M433.483,878.699c0.901,0,1.729-0.117,2.479-0.349c0.751-0.229,1.395-0.559,1.927-0.979
				c0.533-0.422,0.949-0.912,1.25-1.471c0.301-0.558,0.451-1.162,0.451-1.816c0-0.816-0.171-1.502-0.512-2.061
				c-0.342-0.558-0.814-1-1.415-1.326c-0.602-0.326-1.326-0.56-2.173-0.693c-0.847-0.137-1.763-0.205-2.747-0.205h-2.296v-2.94
				l6.888-8.416h-10.373v-4.511h16.729v3.732l-7.217,8.24h0.943c0.957,0,1.886,0.164,2.788,0.491
				c0.902,0.328,1.701,0.82,2.397,1.478c0.697,0.656,1.258,1.475,1.682,2.459c0.423,0.984,0.635,2.119,0.635,3.402
				c0,1.559-0.321,2.926-0.963,4.102c-0.643,1.176-1.49,2.166-2.542,2.973c-1.053,0.808-2.262,1.408-3.628,1.804
				c-1.367,0.396-2.775,0.596-4.223,0.596c-1.23,0-2.461-0.109-3.69-0.328s-2.419-0.561-3.567-1.025l1.436-4.428
				c0.246,0.137,0.58,0.273,1.004,0.41c0.423,0.137,0.902,0.273,1.435,0.41c0.533,0.137,1.079,0.246,1.641,0.328
				C432.382,878.658,432.936,878.699,433.483,878.699z"/>
			<path d="M458.083,878.699c0.902,0,1.729-0.117,2.479-0.349c0.752-0.229,1.395-0.559,1.928-0.979
				c0.533-0.422,0.949-0.912,1.25-1.471c0.3-0.558,0.451-1.162,0.451-1.816c0-0.816-0.172-1.502-0.513-2.061
				c-0.342-0.558-0.813-1-1.415-1.326s-1.326-0.56-2.173-0.693c-0.847-0.137-1.763-0.205-2.747-0.205h-2.296v-2.94l6.888-8.416
				h-10.373v-4.511h16.729v3.732l-7.216,8.24h0.942c0.957,0,1.887,0.164,2.788,0.491c0.902,0.328,1.701,0.82,2.398,1.478
				c0.697,0.656,1.257,1.475,1.681,2.459c0.423,0.984,0.635,2.119,0.635,3.402c0,1.559-0.32,2.926-0.963,4.102
				s-1.489,2.166-2.542,2.973c-1.053,0.808-2.262,1.408-3.628,1.804c-1.367,0.396-2.774,0.596-4.223,0.596
				c-1.23,0-2.46-0.109-3.69-0.328c-1.229-0.219-2.419-0.561-3.566-1.025l1.435-4.428c0.246,0.137,0.58,0.273,1.004,0.41
				s0.902,0.273,1.436,0.41s1.079,0.246,1.64,0.328C456.982,878.658,457.536,878.699,458.083,878.699z"/>
		</g>
		<g>
			<g>
				<g>
					<rect x="273.739" y="595.379" fill="#2E9AFF" width="27.333" height="27.334"/>
					<path fill="#FFFFFF" d="M303.072,624.713h-31.333v-31.334h31.333V624.713z M275.739,620.713h23.333v-23.334h-23.333V620.713z"
						/>
				</g>
				<g>
					<rect x="301.072" y="595.379" fill="#2E9AFF" width="27.333" height="27.334"/>
					<path fill="#FFFFFF" d="M330.405,624.713h-31.333v-31.334h31.333V624.713z M303.072,620.713h23.333v-23.334h-23.333V620.713z"
						/>
				</g>
			</g>
			<g>
				<g>
					<rect x="273.739" y="622.713" fill="#2E9AFF" width="27.333" height="27.332"/>
					<path fill="#FFFFFF" d="M303.072,652.045h-31.333v-31.332h31.333V652.045z M275.739,648.045h23.333v-23.332h-23.333V648.045z"
						/>
				</g>
				<g>
					<rect x="301.072" y="622.713" fill="#2E9AFF" width="27.333" height="27.332"/>
					<path fill="#FFFFFF" d="M330.405,652.045h-31.333v-31.332h31.333V652.045z M303.072,648.045h23.333v-23.332h-23.333V648.045z"
						/>
				</g>
			</g>
		</g>
		<g>
			<g>
				<rect x="260.073" y="705.379" fill="#2E9AFF" width="27.332" height="27.334"/>
				<path fill="#FFFFFF" d="M289.405,734.713h-31.332v-31.334h31.332V734.713z M262.073,730.713h23.332v-23.334h-23.332V730.713z"/>
			</g>
			<g>
				<rect x="287.405" y="705.379" fill="#2E9AFF" width="27.334" height="27.334"/>
				<path fill="#FFFFFF" d="M316.739,734.713h-31.334v-31.334h31.334V734.713z M289.405,730.713h23.334v-23.334h-23.334
					L289.405,730.713L289.405,730.713z"/>
			</g>
			<g>
				<rect x="287.405" y="678.047" fill="#2E9AFF" width="27.334" height="27.332"/>
				<path fill="#FFFFFF" d="M316.739,707.379h-31.334v-31.332h31.334V707.379z M289.405,703.379h23.334v-23.332h-23.334
					L289.405,703.379L289.405,703.379z"/>
			</g>
			<g>
				<rect x="314.739" y="705.379" fill="#2E9AFF" width="27.332" height="27.334"/>
				<path fill="#FFFFFF" d="M344.071,734.713h-31.332v-31.334h31.332V734.713z M316.739,730.713h23.332v-23.334h-23.332V730.713z"/>
			</g>
		</g>
		<g>
			<g>
				<g>
					<rect x="246.406" y="541.379" fill="#2E9AFF" width="27.333" height="27.334"/>
					<path fill="#FFFFFF" d="M275.739,570.713h-31.333v-31.334h31.333V570.713z M248.406,566.713h23.333v-23.334h-23.333V566.713z"
						/>
				</g>
				<g>
					<rect x="273.739" y="541.379" fill="#2E9AFF" width="27.333" height="27.334"/>
					<path fill="#FFFFFF" d="M303.072,570.713h-31.333v-31.334h31.333V570.713z M275.739,566.713h23.333v-23.334h-23.333V566.713z"
						/>
				</g>
			</g>
			<g>
				<g>
					<rect x="301.072" y="541.379" fill="#2E9AFF" width="27.333" height="27.334"/>
					<path fill="#FFFFFF" d="M330.405,570.713h-31.333v-31.334h31.333V570.713z M303.072,566.713h23.333v-23.334h-23.333V566.713z"
						/>
				</g>
				<g>
					<rect x="328.405" y="541.379" fill="#2E9AFF" width="27.333" height="27.334"/>
					<path fill="#FFFFFF" d="M357.738,570.713h-31.333v-31.334h31.333V570.713z M330.405,566.713h23.333v-23.334h-23.333V566.713z"
						/>
				</g>
			</g>
		</g>
		<g>
			<g>
				<rect x="260.073" y="761.869" fill="#2E9AFF" width="27.332" height="27.332"/>
				<path fill="#FFFFFF" d="M289.405,791.201h-31.332v-31.332h31.332V791.201z M262.073,787.201h23.332v-23.332h-23.332V787.201z"/>
			</g>
			<g>
				<rect x="287.405" y="761.869" fill="#2E9AFF" width="27.334" height="27.332"/>
				<path fill="#FFFFFF" d="M316.739,791.201h-31.334v-31.332h31.334V791.201z M289.405,787.201h23.334v-23.332h-23.334
					L289.405,787.201L289.405,787.201z"/>
			</g>
			<g>
				<rect x="314.739" y="761.869" fill="#2E9AFF" width="27.332" height="27.332"/>
				<path fill="#FFFFFF" d="M344.071,791.201h-31.332v-31.332h31.332V791.201z M316.739,787.201h23.332v-23.332h-23.332V787.201z"/>
			</g>
			<g>
				<rect x="314.739" y="789.201" fill="#2E9AFF" width="27.332" height="27.334"/>
				<path fill="#FFFFFF" d="M344.071,818.535h-31.332v-31.334h31.332V818.535z M316.739,814.535h23.332v-23.334h-23.332V814.535z"/>
			</g>
		</g>
		<g>
			<g>
				<g>
					<rect x="260.073" y="842.693" fill="#2E9AFF" width="27.332" height="27.334"/>
					<path fill="#FFFFFF" d="M289.405,872.027h-31.332v-31.334h31.332V872.027z M262.073,868.027h23.332v-23.334h-23.332V868.027z"
						/>
				</g>
				<g>
					<rect x="287.405" y="842.693" fill="#2E9AFF" width="27.334" height="27.334"/>
					<path fill="#FFFFFF" d="M316.739,872.027h-31.334v-31.334h31.334V872.027z M289.405,868.027h23.334v-23.334h-23.334
						L289.405,868.027L289.405,868.027z"/>
				</g>
			</g>
			<g>
				<g>
					<rect x="287.405" y="870.027" fill="#2E9AFF" width="27.334" height="27.332"/>
					<path fill="#FFFFFF" d="M316.739,899.359h-31.334v-31.332h31.334V899.359z M289.405,895.359h23.334v-23.332h-23.334
						L289.405,895.359L289.405,895.359z"/>
				</g>
				<g>
					<rect x="314.739" y="870.027" fill="#2E9AFF" width="27.332" height="27.332"/>
					<path fill="#FFFFFF" d="M344.071,899.359h-31.332v-31.332h31.332V899.359z M316.739,895.359h23.332v-23.332h-23.332V895.359z"
						/>
				</g>
			</g>
		</g>
	</g>
	<g>
		<g>
			<g>
				<rect x="683.239" y="143.564" width="547.703" height="820.639"/>
			</g>
			<g>
				<rect x="655.905" y="116.127" fill="#FFFFFF" width="546.666" height="821.076"/>
				<path d="M1204.571,939.203H653.905V114.127h550.666V939.203z M657.905,935.203h542.666V118.127H657.905V935.203z"/>
			</g>
		</g>
		<g>
			<g>
				<g>
					<g>
						<rect x="655.905" y="117.127" fill="#FFFFFF" width="54.667" height="54.666"/>
						<path d="M712.572,173.793h-58.667v-58.666h58.667V173.793z M657.905,169.793h50.667v-50.666h-50.667V169.793z"/>
					</g>
					<g>
						<rect x="710.572" y="117.127" fill="#FFFFFF" width="54.667" height="54.666"/>
						<path d="M767.239,173.793h-58.667v-58.666h58.667V173.793z M712.572,169.793h50.667v-50.666h-50.667V169.793z"/>
					</g>
					<g>
						<rect x="765.239" y="117.127" fill="#FFFFFF" width="54.666" height="54.666"/>
						<path d="M821.905,173.793h-58.666v-58.666h58.666V173.793z M767.239,169.793h50.666v-50.666h-50.666V169.793z"/>
					</g>
					<g>
						<rect x="819.905" y="117.127" fill="#FFFFFF" width="54.666" height="54.666"/>
						<path d="M876.571,173.793h-58.666v-58.666h58.666V173.793z M821.905,169.793h50.666v-50.666h-50.666V169.793z"/>
					</g>
				</g>
				<g>
					<g>
						<rect x="874.571" y="117.127" fill="#FFFFFF" width="54.667" height="54.666"/>
						<path d="M931.238,173.793h-58.667v-58.666h58.667V173.793z M876.571,169.793h50.667v-50.666h-50.667V169.793z"/>
					</g>
					<g>
						<rect x="929.238" y="117.127" fill="#FFFFFF" width="54.667" height="54.666"/>
						<path d="M985.905,173.793h-58.667v-58.666h58.667V173.793z M931.238,169.793h50.667v-50.666h-50.667V169.793z"/>
					</g>
					<g>
						<rect x="983.905" y="117.127" fill="#FFFFFF" width="54.666" height="54.666"/>
						<path d="M1040.571,173.793h-58.666v-58.666h58.666V173.793z M985.905,169.793h50.666v-50.666h-50.666V169.793z"/>
					</g>
					<g>
						<rect x="1038.571" y="117.127" fill="#FFFFFF" width="54.666" height="54.666"/>
						<path d="M1095.237,173.793h-58.666v-58.666h58.666V173.793z M1040.571,169.793h50.666v-50.666h-50.666V169.793z"/>
					</g>
					<g>
						<rect x="1093.237" y="117.127" fill="#FFFFFF" width="54.666" height="54.666"/>
						<path d="M1149.903,173.793h-58.666v-58.666h58.666V173.793z M1095.237,169.793h50.666v-50.666h-50.666V169.793z"/>
					</g>
					<g>
						<rect x="1147.903" y="117.127" fill="#FFFFFF" width="54.668" height="54.666"/>
						<path d="M1204.571,173.793h-58.668v-58.666h58.668V173.793z M1149.903,169.793h50.668v-50.666h-50.668V169.793z"/>
					</g>
				</g>
			</g>
			<g>
				<g>
					<g>
						<rect x="655.905" y="171.793" fill="#FFFFFF" width="54.667" height="54.666"/>
						<path d="M712.572,228.459h-58.667v-58.666h58.667V228.459z M657.905,224.459h50.667v-50.666h-50.667V224.459z"/>
					</g>
					<g>
						<rect x="710.572" y="171.793" fill="#FFFFFF" width="54.667" height="54.666"/>
						<path d="M767.239,228.459h-58.667v-58.666h58.667V228.459z M712.572,224.459h50.667v-50.666h-50.667V224.459z"/>
					</g>
					<g>
						<rect x="765.239" y="171.793" fill="#FFFFFF" width="54.666" height="54.666"/>
						<path d="M821.905,228.459h-58.666v-58.666h58.666V228.459z M767.239,224.459h50.666v-50.666h-50.666V224.459z"/>
					</g>
					<g>
						<rect x="819.905" y="171.793" fill="#FFFFFF" width="54.666" height="54.666"/>
						<path d="M876.571,228.459h-58.666v-58.666h58.666V228.459z M821.905,224.459h50.666v-50.666h-50.666V224.459z"/>
					</g>
				</g>
				<g>
					<g>
						<rect x="874.571" y="171.793" fill="#FFFFFF" width="54.667" height="54.666"/>
						<path d="M931.238,228.459h-58.667v-58.666h58.667V228.459z M876.571,224.459h50.667v-50.666h-50.667V224.459z"/>
					</g>
					<g>
						<rect x="929.238" y="171.793" fill="#FFFFFF" width="54.667" height="54.666"/>
						<path d="M985.905,228.459h-58.667v-58.666h58.667V228.459z M931.238,224.459h50.667v-50.666h-50.667V224.459z"/>
					</g>
					<g>
						<rect x="983.905" y="171.793" fill="#FFFFFF" width="54.666" height="54.666"/>
						<path d="M1040.571,228.459h-58.666v-58.666h58.666V228.459z M985.905,224.459h50.666v-50.666h-50.666V224.459z"/>
					</g>
					<g>
						<rect x="1038.571" y="171.793" fill="#FFFFFF" width="54.666" height="54.666"/>
						<path d="M1095.237,228.459h-58.666v-58.666h58.666V228.459z M1040.571,224.459h50.666v-50.666h-50.666V224.459z"/>
					</g>
					<g>
						<rect x="1093.237" y="171.793" fill="#FFFFFF" width="54.666" height="54.666"/>
						<path d="M1149.903,228.459h-58.666v-58.666h58.666V228.459z M1095.237,224.459h50.666v-50.666h-50.666V224.459z"/>
					</g>
					<g>
						<rect x="1147.903" y="171.793" fill="#FFFFFF" width="54.668" height="54.666"/>
						<path d="M1204.571,228.459h-58.668v-58.666h58.668V228.459z M1149.903,224.459h50.668v-50.666h-50.668V224.459z"/>
					</g>
				</g>
			</g>
			<g>
				<g>
					<g>
						<rect x="655.905" y="226.459" fill="#FFFFFF" width="54.667" height="54.666"/>
						<path d="M712.572,283.125h-58.667v-58.666h58.667V283.125z M657.905,279.125h50.667v-50.666h-50.667V279.125z"/>
					</g>
					<g>
						<rect x="710.572" y="226.459" fill="#FFFFFF" width="54.667" height="54.666"/>
						<path d="M767.239,283.125h-58.667v-58.666h58.667V283.125z M712.572,279.125h50.667v-50.666h-50.667V279.125z"/>
					</g>
					<g>
						<rect x="765.239" y="226.459" fill="#FFFFFF" width="54.666" height="54.666"/>
						<path d="M821.905,283.125h-58.666v-58.666h58.666V283.125z M767.239,279.125h50.666v-50.666h-50.666V279.125z"/>
					</g>
					<g>
						<rect x="819.905" y="226.459" fill="#FFFFFF" width="54.666" height="54.666"/>
						<path d="M876.571,283.125h-58.666v-58.666h58.666V283.125z M821.905,279.125h50.666v-50.666h-50.666V279.125z"/>
					</g>
				</g>
				<g>
					<g>
						<rect x="874.571" y="226.459" fill="#FFFFFF" width="54.667" height="54.666"/>
						<path d="M931.238,283.125h-58.667v-58.666h58.667V283.125z M876.571,279.125h50.667v-50.666h-50.667V279.125z"/>
					</g>
					<g>
						<rect x="929.238" y="226.459" fill="#FFFFFF" width="54.667" height="54.666"/>
						<path d="M985.905,283.125h-58.667v-58.666h58.667V283.125z M931.238,279.125h50.667v-50.666h-50.667V279.125z"/>
					</g>
					<g>
						<rect x="983.905" y="226.459" fill="#FFFFFF" width="54.666" height="54.666"/>
						<path d="M1040.571,283.125h-58.666v-58.666h58.666V283.125z M985.905,279.125h50.666v-50.666h-50.666V279.125z"/>
					</g>
					<g>
						<rect x="1038.571" y="226.459" fill="#FFFFFF" width="54.666" height="54.666"/>
						<path d="M1095.237,283.125h-58.666v-58.666h58.666V283.125z M1040.571,279.125h50.666v-50.666h-50.666V279.125z"/>
					</g>
					<g>
						<rect x="1093.237" y="226.459" fill="#FFFFFF" width="54.666" height="54.666"/>
						<path d="M1149.903,283.125h-58.666v-58.666h58.666V283.125z M1095.237,279.125h50.666v-50.666h-50.666V279.125z"/>
					</g>
					<g>
						<rect x="1147.903" y="226.459" fill="#FFFFFF" width="54.668" height="54.666"/>
						<path d="M1204.571,283.125h-58.668v-58.666h58.668V283.125z M1149.903,279.125h50.668v-50.666h-50.668V279.125z"/>
					</g>
				</g>
			</g>
			<g>
				<g>
					<g>
						<rect x="655.905" y="281.125" fill="#FFFFFF" width="54.667" height="54.666"/>
						<path d="M712.572,337.792h-58.667v-58.666h58.667V337.792z M657.905,333.792h50.667v-50.666h-50.667V333.792z"/>
					</g>
					<g>
						<rect x="710.572" y="281.125" fill="#FFFFFF" width="54.667" height="54.666"/>
						<path d="M767.239,337.792h-58.667v-58.666h58.667V337.792z M712.572,333.792h50.667v-50.666h-50.667V333.792z"/>
					</g>
					<g>
						<rect x="765.239" y="281.125" fill="#FFFFFF" width="54.666" height="54.666"/>
						<path d="M821.905,337.792h-58.666v-58.666h58.666V337.792z M767.239,333.792h50.666v-50.666h-50.666V333.792z"/>
					</g>
					<g>
						<rect x="819.905" y="281.125" fill="#FFFFFF" width="54.666" height="54.666"/>
						<path d="M876.571,337.792h-58.666v-58.666h58.666V337.792z M821.905,333.792h50.666v-50.666h-50.666V333.792z"/>
					</g>
				</g>
				<g>
					<g>
						<rect x="874.571" y="281.125" fill="#FFFFFF" width="54.667" height="54.666"/>
						<path d="M931.238,337.792h-58.667v-58.666h58.667V337.792z M876.571,333.792h50.667v-50.666h-50.667V333.792z"/>
					</g>
					<g>
						<rect x="929.238" y="281.125" fill="#FFFFFF" width="54.667" height="54.666"/>
						<path d="M985.905,337.792h-58.667v-58.666h58.667V337.792z M931.238,333.792h50.667v-50.666h-50.667V333.792z"/>
					</g>
					<g>
						<rect x="983.905" y="281.125" fill="#FFFFFF" width="54.666" height="54.666"/>
						<path d="M1040.571,337.792h-58.666v-58.666h58.666V337.792z M985.905,333.792h50.666v-50.666h-50.666V333.792z"/>
					</g>
					<g>
						<rect x="1038.571" y="281.125" fill="#FFFFFF" width="54.666" height="54.666"/>
						<path d="M1095.237,337.792h-58.666v-58.666h58.666V337.792z M1040.571,333.792h50.666v-50.666h-50.666V333.792z"/>
					</g>
					<g>
						<rect x="1093.237" y="281.125" fill="#FFFFFF" width="54.666" height="54.666"/>
						<path d="M1149.903,337.792h-58.666v-58.666h58.666V337.792z M1095.237,333.792h50.666v-50.666h-50.666V333.792z"/>
					</g>
					<g>
						<rect x="1147.903" y="281.125" fill="#FFFFFF" width="54.668" height="54.666"/>
						<path d="M1204.571,337.792h-58.668v-58.666h58.668V337.792z M1149.903,333.792h50.668v-50.666h-50.668V333.792z"/>
					</g>
				</g>
			</g>
			<g>
				<g>
					<g>
						<rect x="655.905" y="335.792" fill="#FFFFFF" width="54.667" height="54.666"/>
						<path d="M712.572,392.458h-58.667v-58.666h58.667V392.458z M657.905,388.458h50.667v-50.666h-50.667V388.458z"/>
					</g>
					<g>
						<rect x="710.572" y="335.792" fill="#FFFFFF" width="54.667" height="54.666"/>
						<path d="M767.239,392.458h-58.667v-58.666h58.667V392.458z M712.572,388.458h50.667v-50.666h-50.667V388.458z"/>
					</g>
					<g>
						<rect x="765.239" y="335.792" fill="#FFFFFF" width="54.666" height="54.666"/>
						<path d="M821.905,392.458h-58.666v-58.666h58.666V392.458z M767.239,388.458h50.666v-50.666h-50.666V388.458z"/>
					</g>
					<g>
						<rect x="819.905" y="335.792" fill="#FFFFFF" width="54.666" height="54.666"/>
						<path d="M876.571,392.458h-58.666v-58.666h58.666V392.458z M821.905,388.458h50.666v-50.666h-50.666V388.458z"/>
					</g>
				</g>
				<g>
					<g>
						<rect x="874.571" y="335.792" fill="#FFFFFF" width="54.667" height="54.666"/>
						<path d="M931.238,392.458h-58.667v-58.666h58.667V392.458z M876.571,388.458h50.667v-50.666h-50.667V388.458z"/>
					</g>
					<g>
						<rect x="929.238" y="335.792" fill="#FFFFFF" width="54.667" height="54.666"/>
						<path d="M985.905,392.458h-58.667v-58.666h58.667V392.458z M931.238,388.458h50.667v-50.666h-50.667V388.458z"/>
					</g>
					<g>
						<rect x="983.905" y="335.792" fill="#FFFFFF" width="54.666" height="54.666"/>
						<path d="M1040.571,392.458h-58.666v-58.666h58.666V392.458z M985.905,388.458h50.666v-50.666h-50.666V388.458z"/>
					</g>
					<g>
						<rect x="1038.571" y="335.792" fill="#FFFFFF" width="54.666" height="54.666"/>
						<path d="M1095.237,392.458h-58.666v-58.666h58.666V392.458z M1040.571,388.458h50.666v-50.666h-50.666V388.458z"/>
					</g>
					<g>
						<rect x="1093.237" y="335.792" fill="#FFFFFF" width="54.666" height="54.666"/>
						<path d="M1149.903,392.458h-58.666v-58.666h58.666V392.458z M1095.237,388.458h50.666v-50.666h-50.666V388.458z"/>
					</g>
					<g>
						<rect x="1147.903" y="335.792" fill="#FFFFFF" width="54.668" height="54.666"/>
						<path d="M1204.571,392.458h-58.668v-58.666h58.668V392.458z M1149.903,388.458h50.668v-50.666h-50.668V388.458z"/>
					</g>
				</g>
			</g>
			<g>
				<g>
					<g>
						<rect x="655.905" y="390.458" fill="#FFFFFF" width="54.667" height="54.666"/>
						<path d="M712.572,447.124h-58.667v-58.666h58.667V447.124z M657.905,443.124h50.667v-50.666h-50.667V443.124z"/>
					</g>
					<g>
						<rect x="710.572" y="390.458" fill="#FFFFFF" width="54.667" height="54.666"/>
						<path d="M767.239,447.124h-58.667v-58.666h58.667V447.124z M712.572,443.124h50.667v-50.666h-50.667V443.124z"/>
					</g>
					<g>
						<rect x="765.239" y="390.458" fill="#FFFFFF" width="54.666" height="54.666"/>
						<path d="M821.905,447.124h-58.666v-58.666h58.666V447.124z M767.239,443.124h50.666v-50.666h-50.666V443.124z"/>
					</g>
					<g>
						<rect x="819.905" y="390.458" fill="#FFFFFF" width="54.666" height="54.666"/>
						<path d="M876.571,447.124h-58.666v-58.666h58.666V447.124z M821.905,443.124h50.666v-50.666h-50.666V443.124z"/>
					</g>
				</g>
				<g>
					<g>
						<rect x="874.571" y="390.458" fill="#FFFFFF" width="54.667" height="54.666"/>
						<path d="M931.238,447.124h-58.667v-58.666h58.667V447.124z M876.571,443.124h50.667v-50.666h-50.667V443.124z"/>
					</g>
					<g>
						<rect x="929.238" y="390.458" fill="#FFFFFF" width="54.667" height="54.666"/>
						<path d="M985.905,447.124h-58.667v-58.666h58.667V447.124z M931.238,443.124h50.667v-50.666h-50.667V443.124z"/>
					</g>
					<g>
						<rect x="983.905" y="390.458" fill="#FFFFFF" width="54.666" height="54.666"/>
						<path d="M1040.571,447.124h-58.666v-58.666h58.666V447.124z M985.905,443.124h50.666v-50.666h-50.666V443.124z"/>
					</g>
					<g>
						<rect x="1038.571" y="390.458" fill="#FFFFFF" width="54.666" height="54.666"/>
						<path d="M1095.237,447.124h-58.666v-58.666h58.666V447.124z M1040.571,443.124h50.666v-50.666h-50.666V443.124z"/>
					</g>
					<g>
						<rect x="1093.237" y="390.458" fill="#FFFFFF" width="54.666" height="54.666"/>
						<path d="M1149.903,447.124h-58.666v-58.666h58.666V447.124z M1095.237,443.124h50.666v-50.666h-50.666V443.124z"/>
					</g>
					<g>
						<rect x="1147.903" y="390.458" fill="#FFFFFF" width="54.668" height="54.666"/>
						<path d="M1204.571,447.124h-58.668v-58.666h58.668V447.124z M1149.903,443.124h50.668v-50.666h-50.668V443.124z"/>
					</g>
				</g>
			</g>
			<g>
				<g>
					<g>
						<rect x="655.905" y="445.124" fill="#FFFFFF" width="54.667" height="54.666"/>
						<path d="M712.572,501.79h-58.667v-58.666h58.667V501.79z M657.905,497.79h50.667v-50.666h-50.667V497.79z"/>
					</g>
					<g>
						<rect x="710.572" y="445.124" fill="#FFFFFF" width="54.667" height="54.666"/>
						<path d="M767.239,501.79h-58.667v-58.666h58.667V501.79z M712.572,497.79h50.667v-50.666h-50.667V497.79z"/>
					</g>
					<g>
						<rect x="765.239" y="445.124" fill="#FFFFFF" width="54.666" height="54.666"/>
						<path d="M821.905,501.79h-58.666v-58.666h58.666V501.79z M767.239,497.79h50.666v-50.666h-50.666V497.79z"/>
					</g>
					<g>
						<rect x="819.905" y="445.124" fill="#FFFFFF" width="54.666" height="54.666"/>
						<path d="M876.571,501.79h-58.666v-58.666h58.666V501.79z M821.905,497.79h50.666v-50.666h-50.666V497.79z"/>
					</g>
				</g>
				<g>
					<g>
						<rect x="874.571" y="445.124" fill="#FFFFFF" width="54.667" height="54.666"/>
						<path d="M931.238,501.79h-58.667v-58.666h58.667V501.79z M876.571,497.79h50.667v-50.666h-50.667V497.79z"/>
					</g>
					<g>
						<rect x="929.238" y="445.124" fill="#FFFFFF" width="54.667" height="54.666"/>
						<path d="M985.905,501.79h-58.667v-58.666h58.667V501.79z M931.238,497.79h50.667v-50.666h-50.667V497.79z"/>
					</g>
					<g>
						<rect x="983.905" y="445.124" fill="#FFFFFF" width="54.666" height="54.666"/>
						<path d="M1040.571,501.79h-58.666v-58.666h58.666V501.79z M985.905,497.79h50.666v-50.666h-50.666V497.79z"/>
					</g>
					<g>
						<rect x="1038.571" y="445.124" fill="#FFFFFF" width="54.666" height="54.666"/>
						<path d="M1095.237,501.79h-58.666v-58.666h58.666V501.79z M1040.571,497.79h50.666v-50.666h-50.666V497.79z"/>
					</g>
					<g>
						<rect x="1093.237" y="445.124" fill="#FFFFFF" width="54.666" height="54.666"/>
						<path d="M1149.903,501.79h-58.666v-58.666h58.666V501.79z M1095.237,497.79h50.666v-50.666h-50.666V497.79z"/>
					</g>
					<g>
						<rect x="1147.903" y="445.124" fill="#FFFFFF" width="54.668" height="54.666"/>
						<path d="M1204.571,501.79h-58.668v-58.666h58.668V501.79z M1149.903,497.79h50.668v-50.666h-50.668V497.79z"/>
					</g>
				</g>
			</g>
			<g>
				<g>
					<g>
						<rect x="655.905" y="499.79" fill="#FFFFFF" width="54.667" height="54.666"/>
						<path d="M712.572,556.455h-58.667V497.79h58.667V556.455z M657.905,552.455h50.667V501.79h-50.667V552.455z"/>
					</g>
					<g>
						<rect x="710.572" y="499.79" fill="#FFFFFF" width="54.667" height="54.666"/>
						<path d="M767.239,556.455h-58.667V497.79h58.667V556.455z M712.572,552.455h50.667V501.79h-50.667V552.455z"/>
					</g>
					<g>
						<rect x="765.239" y="499.79" fill="#FFFFFF" width="54.666" height="54.666"/>
						<path d="M821.905,556.455h-58.666V497.79h58.666V556.455z M767.239,552.455h50.666V501.79h-50.666V552.455z"/>
					</g>
					<g>
						<rect x="819.905" y="499.79" fill="#FFFFFF" width="54.666" height="54.666"/>
						<path d="M876.571,556.455h-58.666V497.79h58.666V556.455z M821.905,552.455h50.666V501.79h-50.666V552.455z"/>
					</g>
				</g>
				<g>
					<g>
						<rect x="874.571" y="499.79" fill="#FFFFFF" width="54.667" height="54.666"/>
						<path d="M931.238,556.455h-58.667V497.79h58.667V556.455z M876.571,552.455h50.667V501.79h-50.667V552.455z"/>
					</g>
					<g>
						<rect x="929.238" y="499.79" fill="#FFFFFF" width="54.667" height="54.666"/>
						<path d="M985.905,556.455h-58.667V497.79h58.667V556.455z M931.238,552.455h50.667V501.79h-50.667V552.455z"/>
					</g>
					<g>
						<rect x="983.905" y="499.79" fill="#FFFFFF" width="54.666" height="54.666"/>
						<path d="M1040.571,556.455h-58.666V497.79h58.666V556.455z M985.905,552.455h50.666V501.79h-50.666V552.455z"/>
					</g>
					<g>
						<rect x="1038.571" y="499.79" fill="#FFFFFF" width="54.666" height="54.666"/>
						<path d="M1095.237,556.455h-58.666V497.79h58.666V556.455z M1040.571,552.455h50.666V501.79h-50.666V552.455z"/>
					</g>
					<g>
						<rect x="1093.237" y="499.79" fill="#FFFFFF" width="54.666" height="54.666"/>
						<path d="M1149.903,556.455h-58.666V497.79h58.666V556.455z M1095.237,552.455h50.666V501.79h-50.666V552.455z"/>
					</g>
					<g>
						<rect x="1147.903" y="499.79" fill="#FFFFFF" width="54.668" height="54.666"/>
						<path d="M1204.571,556.455h-58.668V497.79h58.668V556.455z M1149.903,552.455h50.668V501.79h-50.668V552.455z"/>
					</g>
				</g>
			</g>
			<g>
				<g>
					<g>
						<rect x="655.905" y="554.455" fill="#FFFFFF" width="54.667" height="54.666"/>
						<path d="M712.572,611.121h-58.667v-58.666h58.667V611.121z M657.905,607.121h50.667v-50.666h-50.667V607.121z"/>
					</g>
					<g>
						<rect x="710.572" y="554.455" fill="#FFFFFF" width="54.667" height="54.666"/>
						<path d="M767.239,611.121h-58.667v-58.666h58.667V611.121z M712.572,607.121h50.667v-50.666h-50.667V607.121z"/>
					</g>
					<g>
						<rect x="765.239" y="554.455" fill="#FFFFFF" width="54.666" height="54.666"/>
						<path d="M821.905,611.121h-58.666v-58.666h58.666V611.121z M767.239,607.121h50.666v-50.666h-50.666V607.121z"/>
					</g>
					<g>
						<rect x="819.905" y="554.455" fill="#FFFFFF" width="54.666" height="54.666"/>
						<path d="M876.571,611.121h-58.666v-58.666h58.666V611.121z M821.905,607.121h50.666v-50.666h-50.666V607.121z"/>
					</g>
				</g>
				<g>
					<g>
						<rect x="874.571" y="554.455" fill="#FFFFFF" width="54.667" height="54.666"/>
						<path d="M931.238,611.121h-58.667v-58.666h58.667V611.121z M876.571,607.121h50.667v-50.666h-50.667V607.121z"/>
					</g>
					<g>
						<rect x="929.238" y="554.455" fill="#FFFFFF" width="54.667" height="54.666"/>
						<path d="M985.905,611.121h-58.667v-58.666h58.667V611.121z M931.238,607.121h50.667v-50.666h-50.667V607.121z"/>
					</g>
					<g>
						<rect x="983.905" y="554.455" fill="#FFFFFF" width="54.666" height="54.666"/>
						<path d="M1040.571,611.121h-58.666v-58.666h58.666V611.121z M985.905,607.121h50.666v-50.666h-50.666V607.121z"/>
					</g>
					<g>
						<rect x="1038.571" y="554.455" fill="#2E9AFF" width="54.666" height="54.666"/>
						<path d="M1095.237,611.121h-58.666v-58.666h58.666V611.121z M1040.571,607.121h50.666v-50.666h-50.666V607.121z"/>
					</g>
					<g>
						<rect x="1093.237" y="554.455" fill="#2E9AFF" width="54.666" height="54.666"/>
						<path d="M1149.903,611.121h-58.666v-58.666h58.666V611.121z M1095.237,607.121h50.666v-50.666h-50.666V607.121z"/>
					</g>
					<g>
						<rect x="1147.903" y="554.455" fill="#FFFFFF" width="54.668" height="54.666"/>
						<path d="M1204.571,611.121h-58.668v-58.666h58.668V611.121z M1149.903,607.121h50.668v-50.666h-50.668V607.121z"/>
					</g>
				</g>
			</g>
			<g>
				<g>
					<g>
						<rect x="655.905" y="609.121" fill="#FFFFFF" width="54.667" height="54.666"/>
						<path d="M712.572,665.787h-58.667v-58.666h58.667V665.787z M657.905,661.787h50.667v-50.666h-50.667V661.787z"/>
					</g>
					<g>
						<rect x="710.572" y="609.121" fill="#2E9AFF" width="54.667" height="54.666"/>
						<path d="M767.239,665.787h-58.667v-58.666h58.667V665.787z M712.572,661.787h50.667v-50.666h-50.667V661.787z"/>
					</g>
					<g>
						<rect x="765.239" y="609.121" fill="#2E9AFF" width="54.666" height="54.666"/>
						<path d="M821.905,665.787h-58.666v-58.666h58.666V665.787z M767.239,661.787h50.666v-50.666h-50.666V661.787z"/>
					</g>
					<g>
						<rect x="819.905" y="609.121" fill="#FFFFFF" width="54.666" height="54.666"/>
						<path d="M876.571,665.787h-58.666v-58.666h58.666V665.787z M821.905,661.787h50.666v-50.666h-50.666V661.787z"/>
					</g>
				</g>
				<g>
					<g>
						<rect x="874.571" y="609.121" fill="#FFFFFF" width="54.667" height="54.666"/>
						<path d="M931.238,665.787h-58.667v-58.666h58.667V665.787z M876.571,661.787h50.667v-50.666h-50.667V661.787z"/>
					</g>
					<g>
						<rect x="929.238" y="609.121" fill="#FFFFFF" width="54.667" height="54.666"/>
						<path d="M985.905,665.787h-58.667v-58.666h58.667V665.787z M931.238,661.787h50.667v-50.666h-50.667V661.787z"/>
					</g>
					<g>
						<rect x="983.905" y="609.121" fill="#FFFFFF" width="54.666" height="54.666"/>
						<path d="M1040.571,665.787h-58.666v-58.666h58.666V665.787z M985.905,661.787h50.666v-50.666h-50.666V661.787z"/>
					</g>
					<g>
						<rect x="1038.571" y="609.121" fill="#FFFFFF" width="54.666" height="54.666"/>
						<path d="M1095.237,665.787h-58.666v-58.666h58.666V665.787z M1040.571,661.787h50.666v-50.666h-50.666V661.787z"/>
					</g>
					<g>
						<rect x="1093.237" y="609.121" fill="#2E9AFF" width="54.666" height="54.666"/>
						<path d="M1149.903,665.787h-58.666v-58.666h58.666V665.787z M1095.237,661.787h50.666v-50.666h-50.666V661.787z"/>
					</g>
					<g>
						<rect x="1147.903" y="609.121" fill="#2E9AFF" width="54.668" height="54.666"/>
						<path d="M1204.571,665.787h-58.668v-58.666h58.668V665.787z M1149.903,661.787h50.668v-50.666h-50.668V661.787z"/>
					</g>
				</g>
			</g>
			<g>
				<g>
					<g>
						<rect x="655.905" y="663.787" fill="#FFFFFF" width="54.667" height="54.666"/>
						<path d="M712.572,720.453h-58.667v-58.666h58.667V720.453z M657.905,716.453h50.667v-50.666h-50.667V716.453z"/>
					</g>
					<g>
						<rect x="710.572" y="663.787" fill="#FFFFFF" width="54.667" height="54.666"/>
						<path d="M767.239,720.453h-58.667v-58.666h58.667V720.453z M712.572,716.453h50.667v-50.666h-50.667V716.453z"/>
					</g>
					<g>
						<rect x="765.239" y="663.787" fill="#2E9AFF" width="54.666" height="54.666"/>
						<path d="M821.905,720.453h-58.666v-58.666h58.666V720.453z M767.239,716.453h50.666v-50.666h-50.666V716.453z"/>
					</g>
					<g>
						<rect x="819.905" y="663.787" fill="#FFFFFF" width="54.666" height="54.666"/>
						<path d="M876.571,720.453h-58.666v-58.666h58.666V720.453z M821.905,716.453h50.666v-50.666h-50.666V716.453z"/>
					</g>
				</g>
				<g>
					<g>
						<rect x="874.571" y="663.787" fill="#FFFFFF" width="54.667" height="54.666"/>
						<path d="M931.238,720.453h-58.667v-58.666h58.667V720.453z M876.571,716.453h50.667v-50.666h-50.667V716.453z"/>
					</g>
					<g>
						<rect x="929.238" y="663.787" fill="#FFFFFF" width="54.667" height="54.666"/>
						<path d="M985.905,720.453h-58.667v-58.666h58.667V720.453z M931.238,716.453h50.667v-50.666h-50.667V716.453z"/>
					</g>
					<g>
						<rect x="983.905" y="663.787" fill="#FFFFFF" width="54.666" height="54.666"/>
						<path d="M1040.571,720.453h-58.666v-58.666h58.666V720.453z M985.905,716.453h50.666v-50.666h-50.666V716.453z"/>
					</g>
					<g>
						<rect x="1038.571" y="663.787" fill="#FFFFFF" width="54.666" height="54.666"/>
						<path d="M1095.237,720.453h-58.666v-58.666h58.666V720.453z M1040.571,716.453h50.666v-50.666h-50.666V716.453z"/>
					</g>
					<g>
						<rect x="1093.237" y="663.787" fill="#FFFFFF" width="54.666" height="54.666"/>
						<path d="M1149.903,720.453h-58.666v-58.666h58.666V720.453z M1095.237,716.453h50.666v-50.666h-50.666V716.453z"/>
					</g>
					<g>
						<rect x="1147.903" y="663.787" fill="#FFFFFF" width="54.668" height="54.666"/>
						<path d="M1204.571,720.453h-58.668v-58.666h58.668V720.453z M1149.903,716.453h50.668v-50.666h-50.668V716.453z"/>
					</g>
				</g>
			</g>
			<g>
				<g>
					<g>
						<rect x="655.905" y="718.453" fill="#FFFFFF" width="54.667" height="54.666"/>
						<path d="M712.572,775.119h-58.667v-58.666h58.667V775.119z M657.905,771.119h50.667v-50.666h-50.667V771.119z"/>
					</g>
					<g>
						<rect x="710.572" y="718.453" fill="#FFFFFF" width="54.667" height="54.666"/>
						<path d="M767.239,775.119h-58.667v-58.666h58.667V775.119z M712.572,771.119h50.667v-50.666h-50.667V771.119z"/>
					</g>
					<g>
						<rect x="765.239" y="718.453" fill="#2E9AFF" width="54.666" height="54.666"/>
						<path d="M821.905,775.119h-58.666v-58.666h58.666V775.119z M767.239,771.119h50.666v-50.666h-50.666V771.119z"/>
					</g>
					<g>
						<rect x="819.905" y="718.453" fill="#FFFFFF" width="54.666" height="54.666"/>
						<path d="M876.571,775.119h-58.666v-58.666h58.666V775.119z M821.905,771.119h50.666v-50.666h-50.666V771.119z"/>
					</g>
				</g>
				<g>
					<g>
						<rect x="874.571" y="718.453" fill="#FFFFFF" width="54.667" height="54.666"/>
						<path d="M931.238,775.119h-58.667v-58.666h58.667V775.119z M876.571,771.119h50.667v-50.666h-50.667V771.119z"/>
					</g>
					<g>
						<rect x="929.238" y="718.453" fill="#FFFFFF" width="54.667" height="54.666"/>
						<path d="M985.905,775.119h-58.667v-58.666h58.667V775.119z M931.238,771.119h50.667v-50.666h-50.667V771.119z"/>
					</g>
					<g>
						<rect x="983.905" y="718.453" fill="#2E9AFF" width="54.666" height="54.666"/>
						<path d="M1040.571,775.119h-58.666v-58.666h58.666V775.119z M985.905,771.119h50.666v-50.666h-50.666V771.119z"/>
					</g>
					<g>
						<rect x="1038.571" y="718.453" fill="#2E9AFF" width="54.666" height="54.666"/>
						<path d="M1095.237,775.119h-58.666v-58.666h58.666V775.119z M1040.571,771.119h50.666v-50.666h-50.666V771.119z"/>
					</g>
					<g>
						<rect x="1093.237" y="718.453" fill="#2E9AFF" width="54.666" height="54.666"/>
						<path d="M1149.903,775.119h-58.666v-58.666h58.666V775.119z M1095.237,771.119h50.666v-50.666h-50.666V771.119z"/>
					</g>
					<g>
						<rect x="1147.903" y="718.453" fill="#2E9AFF" width="54.668" height="54.666"/>
						<path d="M1204.571,775.119h-58.668v-58.666h58.668V775.119z M1149.903,771.119h50.668v-50.666h-50.668V771.119z"/>
					</g>
				</g>
			</g>
			<g>
				<g>
					<g>
						<rect x="655.905" y="773.119" fill="#2E9AFF" width="54.667" height="54.666"/>
						<path d="M712.572,829.785h-58.667v-58.666h58.667V829.785z M657.905,825.785h50.667v-50.666h-50.667V825.785z"/>
					</g>
					<g>
						<rect x="710.572" y="773.119" fill="#FFFFFF" width="54.667" height="54.666"/>
						<path d="M767.239,829.785h-58.667v-58.666h58.667V829.785z M712.572,825.785h50.667v-50.666h-50.667V825.785z"/>
					</g>
					<g>
						<rect x="765.239" y="773.119" fill="#2E9AFF" width="54.666" height="54.666"/>
						<path d="M821.905,829.785h-58.666v-58.666h58.666V829.785z M767.239,825.785h50.666v-50.666h-50.666V825.785z"/>
					</g>
					<g>
						<rect x="819.905" y="773.119" fill="#FFFFFF" width="54.666" height="54.666"/>
						<path d="M876.571,829.785h-58.666v-58.666h58.666V829.785z M821.905,825.785h50.666v-50.666h-50.666V825.785z"/>
					</g>
				</g>
				<g>
					<g>
						<rect x="874.571" y="773.119" fill="#2E9AFF" width="54.667" height="54.666"/>
						<path d="M931.238,829.785h-58.667v-58.666h58.667V829.785z M876.571,825.785h50.667v-50.666h-50.667V825.785z"/>
					</g>
					<g>
						<rect x="929.238" y="773.119" fill="#2E9AFF" width="54.667" height="54.666"/>
						<path d="M985.905,829.785h-58.667v-58.666h58.667V829.785z M931.238,825.785h50.667v-50.666h-50.667V825.785z"/>
					</g>
					<g>
						<rect x="983.905" y="773.119" fill="#2E9AFF" width="54.666" height="54.666"/>
						<path d="M1040.571,829.785h-58.666v-58.666h58.666V829.785z M985.905,825.785h50.666v-50.666h-50.666V825.785z"/>
					</g>
					<g>
						<rect x="1038.571" y="773.119" fill="#2E9AFF" width="54.666" height="54.666"/>
						<path d="M1095.237,829.785h-58.666v-58.666h58.666V829.785z M1040.571,825.785h50.666v-50.666h-50.666V825.785z"/>
					</g>
					<g>
						<rect x="1093.237" y="773.119" fill="#2E9AFF" width="54.666" height="54.666"/>
						<path d="M1149.903,829.785h-58.666v-58.666h58.666V829.785z M1095.237,825.785h50.666v-50.666h-50.666V825.785z"/>
					</g>
					<g>
						<rect x="1147.903" y="773.119" fill="#2E9AFF" width="54.668" height="54.666"/>
						<path d="M1204.571,829.785h-58.668v-58.666h58.668V829.785z M1149.903,825.785h50.668v-50.666h-50.668V825.785z"/>
					</g>
				</g>
			</g>
			<g>
				<g>
					<g>
						<rect x="655.905" y="827.785" fill="#2E9AFF" width="54.667" height="54.666"/>
						<path d="M712.572,884.451h-58.667v-58.666h58.667V884.451z M657.905,880.451h50.667v-50.666h-50.667V880.451z"/>
					</g>
					<g>
						<rect x="710.572" y="827.785" fill="#2E9AFF" width="54.667" height="54.666"/>
						<path d="M767.239,884.451h-58.667v-58.666h58.667V884.451z M712.572,880.451h50.667v-50.666h-50.667V880.451z"/>
					</g>
					<g>
						<rect x="765.239" y="827.785" fill="#2E9AFF" width="54.666" height="54.666"/>
						<path d="M821.905,884.451h-58.666v-58.666h58.666V884.451z M767.239,880.451h50.666v-50.666h-50.666V880.451z"/>
					</g>
					<g>
						<rect x="819.905" y="827.785" fill="#2E9AFF" width="54.666" height="54.666"/>
						<path d="M876.571,884.451h-58.666v-58.666h58.666V884.451z M821.905,880.451h50.666v-50.666h-50.666V880.451z"/>
					</g>
				</g>
				<g>
					<g>
						<rect x="874.571" y="827.785" fill="#2E9AFF" width="54.667" height="54.666"/>
						<path d="M931.238,884.451h-58.667v-58.666h58.667V884.451z M876.571,880.451h50.667v-50.666h-50.667V880.451z"/>
					</g>
					<g>
						<rect x="929.238" y="827.785" fill="#2E9AFF" width="54.667" height="54.666"/>
						<path d="M985.905,884.451h-58.667v-58.666h58.667V884.451z M931.238,880.451h50.667v-50.666h-50.667V880.451z"/>
					</g>
					<g>
						<rect x="983.905" y="827.785" fill="#2E9AFF" width="54.666" height="54.666"/>
						<path d="M1040.571,884.451h-58.666v-58.666h58.666V884.451z M985.905,880.451h50.666v-50.666h-50.666V880.451z"/>
					</g>
					<g>
						<rect x="1038.571" y="827.785" fill="#2E9AFF" width="54.666" height="54.666"/>
						<path d="M1095.237,884.451h-58.666v-58.666h58.666V884.451z M1040.571,880.451h50.666v-50.666h-50.666V880.451z"/>
					</g>
					<g>
						<rect x="1093.237" y="827.785" fill="#2E9AFF" width="54.666" height="54.666"/>
						<path d="M1149.903,884.451h-58.666v-58.666h58.666V884.451z M1095.237,880.451h50.666v-50.666h-50.666V880.451z"/>
					</g>
					<g>
						<rect x="1147.903" y="827.785" fill="#FFFFFF" width="54.668" height="54.666"/>
						<path d="M1204.571,884.451h-58.668v-58.666h58.668V884.451z M1149.903,880.451h50.668v-50.666h-50.668V880.451z"/>
					</g>
				</g>
			</g>
			<g>
				<g>
					<g>
						<rect x="655.905" y="882.451" fill="#2E9AFF" width="54.667" height="54.666"/>
						<path d="M712.572,939.117h-58.667v-58.666h58.667V939.117z M657.905,935.117h50.667v-50.666h-50.667V935.117z"/>
					</g>
					<g>
						<rect x="710.572" y="882.451" fill="#FFFFFF" width="54.667" height="54.666"/>
						<path d="M767.239,939.117h-58.667v-58.666h58.667V939.117z M712.572,935.117h50.667v-50.666h-50.667V935.117z"/>
					</g>
					<g>
						<rect x="765.239" y="882.451" fill="#2E9AFF" width="54.666" height="54.666"/>
						<path d="M821.905,939.117h-58.666v-58.666h58.666V939.117z M767.239,935.117h50.666v-50.666h-50.666V935.117z"/>
					</g>
					<g>
						<rect x="819.905" y="882.451" fill="#2E9AFF" width="54.666" height="54.666"/>
						<path d="M876.571,939.117h-58.666v-58.666h58.666V939.117z M821.905,935.117h50.666v-50.666h-50.666V935.117z"/>
					</g>
				</g>
				<g>
					<g>
						<rect x="874.571" y="882.451" fill="#2E9AFF" width="54.667" height="54.666"/>
						<path d="M931.238,939.117h-58.667v-58.666h58.667V939.117z M876.571,935.117h50.667v-50.666h-50.667V935.117z"/>
					</g>
					<g>
						<rect x="929.238" y="882.451" fill="#2E9AFF" width="54.667" height="54.666"/>
						<path d="M985.905,939.117h-58.667v-58.666h58.667V939.117z M931.238,935.117h50.667v-50.666h-50.667V935.117z"/>
					</g>
					<g>
						<rect x="983.905" y="882.451" fill="#2E9AFF" width="54.666" height="54.666"/>
						<path d="M1040.571,939.117h-58.666v-58.666h58.666V939.117z M985.905,935.117h50.666v-50.666h-50.666V935.117z"/>
					</g>
					<g>
						<rect x="1038.571" y="882.451" fill="#2E9AFF" width="54.666" height="54.666"/>
						<path d="M1095.237,939.117h-58.666v-58.666h58.666V939.117z M1040.571,935.117h50.666v-50.666h-50.666V935.117z"/>
					</g>
					<g>
						<rect x="1093.237" y="882.451" fill="#2E9AFF" width="54.666" height="54.666"/>
						<path d="M1149.903,939.117h-58.666v-58.666h58.666V939.117z M1095.237,935.117h50.666v-50.666h-50.666V935.117z"/>
					</g>
					<g>
						<rect x="1147.903" y="882.451" fill="#2E9AFF" width="54.668" height="54.666"/>
						<path d="M1204.571,939.117h-58.668v-58.666h58.668V939.117z M1149.903,935.117h50.668v-50.666h-50.668V935.117z"/>
					</g>
				</g>
			</g>
			<g>
				<rect x="874.571" y="226.459" fill="#2E9AFF" width="54.667" height="54.666"/>
				<path d="M931.238,283.125h-58.667v-58.666h58.667V283.125z M876.571,279.125h50.667v-50.666h-50.667V279.125z"/>
			</g>
			<g>
				<rect x="929.238" y="226.459" fill="#2E9AFF" width="54.667" height="54.666"/>
				<path d="M985.905,283.125h-58.667v-58.666h58.667V283.125z M931.238,279.125h50.667v-50.666h-50.667V279.125z"/>
			</g>
			<g>
				<rect x="874.571" y="281.125" fill="#2E9AFF" width="54.667" height="54.666"/>
				<path d="M931.238,337.792h-58.667v-58.666h58.667V337.792z M876.571,333.792h50.667v-50.666h-50.667V333.792z"/>
			</g>
			<g>
				<rect x="929.238" y="281.125" fill="#2E9AFF" width="54.667" height="54.666"/>
				<path d="M985.905,337.792h-58.667v-58.666h58.667V337.792z M931.238,333.792h50.667v-50.666h-50.667V333.792z"/>
			</g>
		</g>
	</g>
	<g>
		<g>
			<g>
				<circle cx="348.273" cy="240.904" r="110.74"/>
			</g>
			<g>
				<circle fill="#2E9AFF" cx="322.739" cy="228.129" r="110.74"/>
				<path d="M322.739,340.87c-62.165,0-112.74-50.575-112.74-112.74s50.575-112.74,112.74-112.74s112.739,50.575,112.739,112.74
					S384.904,340.87,322.739,340.87z M322.739,119.389c-59.959,0-108.74,48.781-108.74,108.74s48.781,108.74,108.74,108.74
					s108.739-48.781,108.739-108.74S382.699,119.389,322.739,119.389z"/>
			</g>
		</g>
		<g>
			<g>
				<g>
					<g>
						<g>
							<path id="SVGID_1_" fill="#FFFFFF" d="M387.495,213.464c-0.896,0-1.773,0.055-2.642,0.152
								c-8.097-27.972-33.897-48.424-64.479-48.424s-56.381,20.452-64.479,48.424c-0.867-0.098-1.747-0.152-2.641-0.152
								c-12.871,0-23.307,10.434-23.307,23.307c0,12.869,10.436,23.305,23.307,23.305c1.959,0,3.863-0.246,5.684-0.702
								c10.404,23.592,33.996,40.06,61.436,40.06c27.441,0,51.029-16.468,61.438-40.06c1.818,0.456,3.722,0.702,5.683,0.702
								c12.873,0,23.307-10.436,23.307-23.305C410.802,223.898,400.368,213.464,387.495,213.464z"/>
						</g>
						<g>
							<path id="SVGID_2_" d="M320.376,301.433c-26.836,0-51.224-15.553-62.589-39.766c-1.495,0.271-3.013,0.408-4.53,0.408
								c-13.954,0-25.307-11.352-25.307-25.305c0-13.954,11.353-25.307,25.307-25.307c0.392,0,0.791,0.01,1.193,0.03
								c9.004-28.522,35.878-48.301,65.926-48.301c30.049,0,56.923,19.779,65.925,48.301c0.403-0.02,0.803-0.03,1.194-0.03
								c13.954,0,25.307,11.353,25.307,25.307c0,13.953-11.353,25.305-25.307,25.305c-1.519,0-3.035-0.137-4.529-0.408
								C371.598,285.88,347.209,301.433,320.376,301.433z M260.09,257.024l0.681,1.542c10.413,23.611,33.809,38.867,59.605,38.867
								c25.794,0,49.191-15.256,59.606-38.867l0.681-1.543l1.636,0.41c1.7,0.426,3.448,0.642,5.196,0.642
								c11.749,0,21.307-9.557,21.307-21.305c0-11.749-9.558-21.307-21.307-21.307c-0.791,0-1.582,0.046-2.418,0.14l-1.676,0.188
								l-0.47-1.62c-8.005-27.661-33.729-46.98-62.556-46.98c-28.825,0-54.55,19.319-62.558,46.98l-0.469,1.62l-1.676-0.189
								c-0.824-0.093-1.637-0.14-2.417-0.14c-11.749,0-21.307,9.558-21.307,21.307c0,11.748,9.558,21.305,21.307,21.305
								c1.748,0,3.497-0.216,5.198-0.642L260.09,257.024z"/>
						</g>
						<g>
							<defs>
								<path id="SVGID_3_" d="M387.495,213.464c-0.896,0-1.773,0.055-2.642,0.152c-8.097-27.972-33.897-48.424-64.479-48.424
									s-56.381,20.452-64.479,48.424c-0.867-0.098-1.747-0.152-2.641-0.152c-12.871,0-23.307,10.434-23.307,23.307
									c0,12.869,10.436,23.305,23.307,23.305c1.959,0,3.863-0.246,5.684-0.702c10.404,23.592,33.996,40.06,61.436,40.06
									c27.441,0,51.029-16.468,61.438-40.06c1.818,0.456,3.722,0.702,5.683,0.702c12.873,0,23.307-10.436,23.307-23.305
									C410.802,223.898,400.368,213.464,387.495,213.464z"/>
							</defs>
							<clipPath id="SVGID_4_">
								<use xlink:href="#SVGID_3_"  overflow="visible"/>
							</clipPath>
						</g>
					</g>
					<g>
						<line fill="none" x1="241.447" y1="230.605" x2="255.741" y2="246.141"/>
						<path d="M255.742,248.141c-0.54,0-1.078-0.217-1.472-0.646l-14.294-15.536c-0.748-0.812-0.695-2.078,0.118-2.826
							c0.813-0.748,2.079-0.694,2.826,0.118l14.294,15.536c0.748,0.812,0.695,2.078-0.118,2.826
							C256.711,247.966,256.226,248.141,255.742,248.141z"/>
					</g>
					<g>
						<line fill="none" x1="396.518" y1="230.605" x2="382.224" y2="246.141"/>
						<path d="M382.223,248.141c-0.483,0-0.969-0.175-1.354-0.528c-0.813-0.748-0.866-2.013-0.118-2.826l14.294-15.536
							c0.748-0.812,2.013-0.865,2.826-0.118c0.812,0.748,0.866,2.013,0.118,2.826l-14.294,15.536
							C383.301,247.924,382.763,248.141,382.223,248.141z"/>
					</g>
				</g>
				<g>
					<line fill="none" x1="319.91" y1="239.504" x2="319.91" y2="252.4"/>
					<path d="M319.91,254.4c-1.104,0-2-0.896-2-2v-12.896c0-1.104,0.896-2,2-2c1.104,0,2,0.896,2,2V252.4
						C321.91,253.504,321.015,254.4,319.91,254.4z"/>
				</g>
				<g>
					<path fill="#2E9AFF" d="M342.595,259.814c0,12.526-10.155,22.684-22.685,22.684s-22.685-10.157-22.685-22.684H342.595z"/>
				</g>
			</g>
			<g>
				<path d="M279.843,254.4c-0.738,0-1.447-0.41-1.795-1.116c-0.488-0.991-0.081-2.189,0.91-2.678l19.882-9.803l-19.966-11.037
					c-0.966-0.535-1.317-1.751-0.783-2.718c0.534-0.966,1.751-1.316,2.718-0.783l23.315,12.889c0.651,0.36,1.049,1.053,1.032,1.797
					c-0.017,0.744-0.447,1.417-1.115,1.747l-23.315,11.496C280.442,254.334,280.14,254.4,279.843,254.4z"/>
			</g>
			<g>
				<path d="M359.929,254.4c-0.297,0-0.599-0.066-0.883-0.207l-23.313-11.496c-0.668-0.33-1.099-1.002-1.115-1.747
					c-0.018-0.745,0.38-1.437,1.032-1.797l23.313-12.889c0.966-0.535,2.184-0.184,2.718,0.783c0.534,0.967,0.185,2.184-0.782,2.718
					l-19.966,11.037l19.883,9.803c0.99,0.489,1.397,1.688,0.909,2.678C361.376,253.991,360.667,254.4,359.929,254.4z"/>
			</g>
		</g>
	</g>
</g>
<g>
	<g>
		<path d="M320.91,167.102c-0.117-0.635-0.238-1.268-0.335-1.909c-31.275,0.152-57.533,21.508-65.139,50.433
			c2.192,0.244,4.416,0.38,6.673,0.38C291.414,216.005,315.78,194.924,320.91,167.102z"/>
	</g>
	<g>
		<path d="M321.245,165.193c-0.097,0.641-0.218,1.274-0.335,1.909c5.13,27.822,29.497,48.903,58.803,48.903
			c2.256,0,4.48-0.136,6.672-0.38C378.779,186.701,352.521,165.345,321.245,165.193z"/>
	</g>
	<g>
		<path d="M320.578,165.063c0.096,0.634,0.216,1.26,0.332,1.888c0.116-0.628,0.236-1.254,0.332-1.888
			c-0.111,0-0.221-0.008-0.331-0.008C320.8,165.055,320.689,165.062,320.578,165.063z"/>
	</g>
</g>
</svg>
