<svg xmlns="http://www.w3.org/2000/svg" viewBox="0 0 1498 852"><path d="M1135.34 710.8H1498v140.4h-362.66Z"/><path fill="#fff" d="M1107.26 704.53h362.66v118.34h-362.66Z"/><path d="M1471.92 824.87h-366.66V702.53h366.66Zm-362.66-4h358.66V706.53h-358.66Z"/><path d="M1143.81 747.64h4.51v4.06l.25.08a10.83 10.83 0 0 0 4.47.94c1.52 0 2.71-.3 3.56-.92a2.9 2.9 0 0 0 1.27-2.48c0-.93-.35-1.68-1.04-2.25-.7-.58-1.56-1.08-2.59-1.52a61.58 61.58 0 0 0-3.36-1.31 15.97 15.97 0 0 1-3.36-1.66 9.3 9.3 0 0 1-2.58-2.52 6.8 6.8 0 0 1-1.05-3.94 7.88 7.88 0 0 1 2.73-6.03 9.33 9.33 0 0 1 3.1-1.72 12.4 12.4 0 0 1 4.01-.62c1.67 0 3.31.15 4.92.45 1.62.3 2.9.71 3.86 1.23v8.33H1158v-4.56a.73.73 0 0 1-.25-.04 15.44 15.44 0 0 0-4.01-.53 5.4 5.4 0 0 0-3.1.78 2.42 2.42 0 0 0-1.13 2.09c0 .9.35 1.64 1.05 2.21.7.58 1.56 1.1 2.58 1.56 1.02.47 2.15.93 3.36 1.4 1.22.46 2.34 1.03 3.36 1.7a9.3 9.3 0 0 1 2.59 2.52 6.57 6.57 0 0 1 1.04 3.81c0 1.48-.27 2.77-.82 3.88a7.84 7.84 0 0 1-2.3 2.78 9.72 9.72 0 0 1-3.48 1.68 16.3 16.3 0 0 1-4.35.56 16.04 16.04 0 0 1-5.35-.86 22.56 22.56 0 0 1-3.38-1.48Zm44.32 7.42a11.72 11.72 0 0 1-3.94 1.9 17 17 0 0 1-4.71.64c-1.78 0-3.36-.26-4.74-.78a9.66 9.66 0 0 1-3.48-2.19 9.3 9.3 0 0 1-2.15-3.42 12.6 12.6 0 0 1-.74-4.43c0-1.73.29-3.25.86-4.6a9.64 9.64 0 0 1 2.4-3.4 10.33 10.33 0 0 1 3.63-2.1c1.4-.48 2.9-.72 4.55-.72 1.53 0 2.96.17 4.3.53 1.34.35 2.37.7 3.08 1.02v7.22h-4.51v-3.77c-.85-.2-1.7-.29-2.54-.29-.77 0-1.53.12-2.28.35a5.56 5.56 0 0 0-3.44 3.01 6.28 6.28 0 0 0-.56 2.75c0 .87.15 1.68.45 2.42a5.78 5.78 0 0 0 3.3 3.22c.8.31 1.7.47 2.69.47 1.56 0 2.83-.22 3.83-.66 1-.43 1.74-.82 2.24-1.14Zm3.65-8.28c0-1.73.26-3.26.78-4.6a9.38 9.38 0 0 1 2.21-3.4 9.45 9.45 0 0 1 3.42-2.11c1.33-.48 2.81-.72 4.45-.72 1.73 0 3.26.26 4.62.78a9.18 9.18 0 0 1 5.53 5.62c.48 1.34.72 2.81.72 4.43 0 1.72-.26 3.25-.78 4.59a9.4 9.4 0 0 1-2.22 3.4 9.38 9.38 0 0 1-3.42 2.11c-1.32.48-2.8.72-4.45.72-1.72 0-3.26-.26-4.6-.78a9.18 9.18 0 0 1-5.53-5.62 13.09 13.09 0 0 1-.73-4.42Zm5.5 0c0 .9.12 1.73.36 2.5.25.76.6 1.43 1.07 2a4.8 4.8 0 0 0 3.93 1.81 5.2 5.2 0 0 0 3.88-1.52c1-1 1.5-2.6 1.5-4.8a7.1 7.1 0 0 0-1.4-4.56 4.8 4.8 0 0 0-3.98-1.75c-.77 0-1.48.12-2.13.35-.66.23-1.22.61-1.7 1.13a5.53 5.53 0 0 0-1.13 1.97c-.27.79-.4 1.75-.4 2.87Zm19.26 5.74h5.09v-11.48h-5.09v-4.51h9.23l.61 2.7h.17c.76-.9 1.64-1.65 2.62-2.25.98-.6 2.13-.9 3.44-.9 1.65 0 2.94.6 3.88 1.8.94 1.2 1.41 3.21 1.41 6.03h-4.8c0-.98-.14-1.7-.43-2.15-.28-.46-.74-.68-1.37-.68a4 4 0 0 0-2.64.82 8.27 8.27 0 0 0-1.7 1.88v8.74h8.9v4.5h-19.32v-4.5Zm44.9 2.33c-.36.33-.81.65-1.38.97a15.29 15.29 0 0 1-7.32 1.78c-1.74 0-3.3-.24-4.69-.74a9.41 9.41 0 0 1-3.5-2.15 9.39 9.39 0 0 1-2.2-3.4 12.6 12.6 0 0 1-.75-4.53 12 12 0 0 1 .86-4.74 9.46 9.46 0 0 1 5.86-5.4 13.53 13.53 0 0 1 7.56-.27 8.7 8.7 0 0 1 3.06 1.41 7.54 7.54 0 0 1 2.27 2.69c.6 1.12.89 2.54.89 4.26 0 1.18-.14 2.45-.41 3.81h-14.76a4.39 4.39 0 0 0 1.9 3.7c.57.38 1.2.66 1.93.84.73.17 1.5.26 2.32.26 1.64 0 2.98-.19 4.04-.57a8.52 8.52 0 0 0 2.56-1.4Zm-8.86-14.63c-.7 0-1.38.1-2 .29-.64.2-1.2.48-1.7.86-.52.37-.93.84-1.26 1.4a4.3 4.3 0 0 0-.57 1.87h10.08c0-1.36-.37-2.44-1.13-3.23-.75-.8-1.89-1.2-3.42-1.2ZM1142.7 783.3c0-2.48.26-4.66.78-6.54a13.49 13.49 0 0 1 2.2-4.65 9.15 9.15 0 0 1 3.4-2.77c1.32-.62 2.79-.92 4.4-.92 3.46 0 6.12 1.2 7.99 3.63 1.86 2.42 2.8 6.17 2.8 11.25 0 2.52-.26 4.71-.79 6.58a13.67 13.67 0 0 1-2.2 4.67 9.01 9.01 0 0 1-3.41 2.8c-1.33.6-2.8.92-4.43.92-3.48 0-6.14-1.28-7.98-3.84-1.84-2.55-2.76-6.26-2.76-11.13Zm5.33 0a30.93 30.93 0 0 0 .09 2.3l9.92-9.15c-.82-2.35-2.35-3.52-4.6-3.52-1.73 0-3.07.84-4 2.52-.94 1.68-1.4 4.3-1.4 7.85Zm10.9 0a40.99 40.99 0 0 0-.07-2.42l-9.97 9.15c.84 2.48 2.37 3.73 4.6 3.73 1.73 0 3.08-.84 4.02-2.5.95-1.67 1.43-4.32 1.43-7.96Zm29.2 5.5a9.16 9.16 0 0 1-2.83 6.72 9.63 9.63 0 0 1-3.13 2c-1.22.5-2.53.74-3.92.74a11.7 11.7 0 0 1-4-.67 9.09 9.09 0 0 1-5.47-5.43 12.69 12.69 0 0 1-.82-4.76c0-2.7.47-5.17 1.41-7.38a20.33 20.33 0 0 1 3.63-5.76 18.9 18.9 0 0 1 4.96-3.94c1.83-1 3.65-1.63 5.46-1.9l1.18 4.22c-1.44.27-2.8.72-4.06 1.33a14.9 14.9 0 0 0-3.36 2.24c-.98.87-1.8 1.84-2.48 2.9a10.26 10.26 0 0 0-1.37 3.33 6.31 6.31 0 0 1 2.46-1.75 9.77 9.77 0 0 1 7.05-.12 7.91 7.91 0 0 1 4.61 4.5c.45 1.09.68 2.33.68 3.72Zm-5.17.2c0-1.48-.44-2.6-1.33-3.36a5.31 5.31 0 0 0-3.59-1.15 5.92 5.92 0 0 0-4.87 2.46c-.06.3-.1.64-.1 1l-.03.89c0 .65.11 1.28.33 1.88a4.51 4.51 0 0 0 2.5 2.65 5.25 5.25 0 0 0 3.94.04c.6-.23 1.13-.56 1.6-.97a4.41 4.41 0 0 0 1.55-3.44Zm9.6-11.03c0-1.4.24-2.68.72-3.85a8.68 8.68 0 0 1 5.12-4.99c1.22-.47 2.58-.71 4.08-.71 1.53 0 2.93.23 4.18.7a8.73 8.73 0 0 1 5.33 5.46c.5 1.36.74 2.9.74 4.66 0 3.17-.4 5.9-1.23 8.2a16.93 16.93 0 0 1-3.3 5.74 14.27 14.27 0 0 1-4.82 3.52 19.06 19.06 0 0 1-5.74 1.56l-1.14-4.18c1.5-.2 2.86-.56 4.08-1.1a12.38 12.38 0 0 0 3.18-2.04c.9-.8 1.63-1.72 2.2-2.74a9.33 9.33 0 0 0 1.12-3.3 6.2 6.2 0 0 1-2.22 1.37c-.9.34-1.98.51-3.24.51h-.08a9.73 9.73 0 0 1-3.15-.53 8.52 8.52 0 0 1-5-4.41 8.54 8.54 0 0 1-.83-3.87Zm5.16-.29a4.56 4.56 0 0 0 1.56 3.51c.47.4 1 .7 1.62.9a7.3 7.3 0 0 0 4.82-.23 4.2 4.2 0 0 0 1.8-1.3c.09-.58.13-1.13.13-1.65 0-.76-.11-1.51-.33-2.25a6.05 6.05 0 0 0-.98-1.97 4.84 4.84 0 0 0-3.9-1.89c-1.34 0-2.46.44-3.36 1.3a4.73 4.73 0 0 0-1.36 3.58Zm40.88 12.02h-4.92v8h-4.96v-8h-12.42v-3.65l13-17.26h4.38v16.64h4.92Zm-9.88-13.37-7.13 9.1h7.13Zm12.38 6.97c0-2.48.26-4.66.78-6.54a13.47 13.47 0 0 1 2.2-4.65 9.15 9.15 0 0 1 3.4-2.77c1.32-.62 2.79-.92 4.4-.92 3.46 0 6.12 1.2 7.99 3.63 1.86 2.42 2.8 6.17 2.8 11.25 0 2.52-.27 4.71-.79 6.58a13.67 13.67 0 0 1-2.2 4.67 9 9 0 0 1-3.41 2.8c-1.33.6-2.8.92-4.43.92-3.48 0-6.14-1.28-7.98-3.84-1.84-2.55-2.76-6.26-2.76-11.13Zm5.33 0a28.9 28.9 0 0 0 .09 2.3l9.92-9.15c-.81-2.35-2.35-3.52-4.6-3.52-1.73 0-3.07.84-4 2.52-.94 1.68-1.4 4.3-1.4 7.85Zm10.9 0a38 38 0 0 0-.07-2.42l-9.97 9.15c.84 2.48 2.37 3.73 4.6 3.73 1.73 0 3.07-.84 4.02-2.5.95-1.67 1.43-4.32 1.43-7.96Zm11.16 9.88h6.27v-17.91l-5.41 4.14-2.46-3.28 9.35-7.14h3.6v24.2h6.15v4.5h-17.5Zm163.64 7.02-25.47-12.47-24.7 13.91 3.98-28.07-20.86-19.2 27.93-4.88 11.8-25.78 13.28 25.06 28.17 3.26-19.73 20.37Zm-296.79-307.97H1498v140.4h-362.66Z"/><path fill="#fff" d="M1107.26 484.96h362.66v118.33h-362.66Z"/><path d="M1471.92 605.3h-366.66V482.95h366.66Zm-362.66-4h358.66V486.95h-358.66Z"/><path d="M1158.12 521.85h5.08v11.69h-18.86v-28.7h5.62v23.7h8.16Zm29.52 9.52a8.1 8.1 0 0 1-1.37.96 15.29 15.29 0 0 1-7.32 1.78 14 14 0 0 1-4.7-.74 9.41 9.41 0 0 1-3.5-2.15 9.4 9.4 0 0 1-2.2-3.4 12.8 12.8 0 0 1-.75-4.53 12 12 0 0 1 .86-4.74 9.46 9.46 0 0 1 5.86-5.4 13.56 13.56 0 0 1 7.57-.27c1.1.27 2.12.74 3.05 1.41a7.57 7.57 0 0 1 2.27 2.69c.6 1.12.89 2.54.89 4.26 0 1.18-.14 2.45-.41 3.81h-14.76a4.39 4.39 0 0 0 1.9 3.7c.56.38 1.2.66 1.93.84.72.17 1.5.26 2.32.26 1.64 0 2.98-.19 4.04-.57a8.54 8.54 0 0 0 2.56-1.4Zm-8.86-14.64c-.7 0-1.38.1-2 .29-.64.2-1.2.48-1.7.86-.51.37-.93.84-1.26 1.4a4.3 4.3 0 0 0-.57 1.88h10.08c0-1.37-.37-2.45-1.12-3.24-.76-.8-1.9-1.2-3.43-1.2Zm24.4 10.62h.28l4.6-14.31h5.74l-7.84 20.5h-5.7l-8.8-20.5h6.18Zm33.66 4.02c-.36.32-.81.64-1.38.96a15.27 15.27 0 0 1-7.32 1.78c-1.74 0-3.3-.25-4.69-.74a9.41 9.41 0 0 1-3.5-2.15 9.4 9.4 0 0 1-2.2-3.4 12.8 12.8 0 0 1-.75-4.53 12 12 0 0 1 .86-4.74 9.46 9.46 0 0 1 5.86-5.4 13.57 13.57 0 0 1 7.56-.27 8.8 8.8 0 0 1 3.06 1.41 7.57 7.57 0 0 1 2.27 2.69c.6 1.12.89 2.54.89 4.26 0 1.18-.14 2.45-.41 3.81h-14.76a4.38 4.38 0 0 0 1.9 3.7c.56.38 1.2.66 1.93.84.72.17 1.5.26 2.31.26 1.65 0 3-.19 4.04-.57a8.52 8.52 0 0 0 2.57-1.4Zm-8.86-14.64c-.7 0-1.38.1-2 .29-.64.2-1.2.48-1.7.86-.52.37-.93.84-1.26 1.4a4.3 4.3 0 0 0-.57 1.88h10.08c0-1.37-.37-2.45-1.13-3.24-.75-.8-1.89-1.2-3.42-1.2Zm15.13-11.89h8.73v18.94c0 2.1.26 3.56.78 4.39.52.82 1.35 1.23 2.5 1.23.85 0 1.55-.1 2.1-.27a7.95 7.95 0 0 0 1.63-.76l2.01 3.69c-.46.3-.93.58-1.4.84a8.85 8.85 0 0 1-3.17 1.07c-.62.1-1.3.14-2.07.14-2.57 0-4.5-.66-5.78-1.97-1.29-1.31-1.93-3.17-1.93-5.57v-17.23h-3.4Zm-100.41 54.97c0-2.49.26-4.67.78-6.54a13.5 13.5 0 0 1 2.2-4.65 9.15 9.15 0 0 1 3.4-2.77 10.3 10.3 0 0 1 4.4-.92c3.46 0 6.12 1.2 7.99 3.63 1.86 2.42 2.8 6.17 2.8 11.25 0 2.52-.26 4.7-.79 6.58a13.7 13.7 0 0 1-2.2 4.68 9.02 9.02 0 0 1-3.41 2.78c-1.33.62-2.8.93-4.43.93-3.48 0-6.14-1.28-7.98-3.84-1.84-2.55-2.76-6.26-2.76-11.13Zm5.33 0a31.04 31.04 0 0 0 .09 2.3l9.92-9.15c-.82-2.35-2.35-3.52-4.6-3.52-1.73 0-3.07.84-4 2.52-.94 1.68-1.4 4.3-1.4 7.85Zm10.9 0a41.3 41.3 0 0 0-.07-2.42l-9.97 9.14c.84 2.5 2.37 3.74 4.6 3.74 1.73 0 3.08-.84 4.02-2.5.95-1.67 1.43-4.32 1.43-7.96Zm11.17 9.89h6.26v-17.93l-5.4 4.15-2.47-3.28 9.35-7.14h3.6v24.2h6.16v4.5h-17.51Zm30.41.57c.9 0 1.73-.12 2.48-.35.75-.23 1.4-.56 1.93-.98.53-.42.95-.91 1.25-1.47.3-.56.45-1.16.45-1.82 0-.81-.17-1.5-.51-2.06a3.7 3.7 0 0 0-1.42-1.32 6.77 6.77 0 0 0-2.17-.7c-.85-.13-1.76-.2-2.75-.2h-2.3v-2.94l6.9-8.42h-10.38v-4.5h16.73v3.72l-7.21 8.24h.94c.95 0 1.88.17 2.79.5a6.88 6.88 0 0 1 4.08 3.93c.42.99.63 2.12.63 3.4 0 1.56-.32 2.93-.96 4.1a9.37 9.37 0 0 1-2.55 2.98c-1.05.8-2.26 1.4-3.62 1.8-1.37.4-2.78.6-4.23.6-1.23 0-2.46-.11-3.69-.33a17.94 17.94 0 0 1-3.56-1.02l1.43-4.43c.25.13.58.27 1 .4a24.11 24.11 0 0 0 3.09.75c.55.08 1.1.12 1.65.12Zm254.26-28.12-37.17-37.17-.1 17.34h-36.52v40.1h36.27l-.1 17.35ZM1135.34 17.8H1498v258.33h-362.66Z"/><path fill="#fff" d="M1107.26 2.8h362.66V247h-362.66Z"/><path d="M1471.92 249h-366.66V.8h366.66Zm-362.66-4h358.66V4.8h-358.66Z"/><path fill="#2e9aff" d="M1174.81 89.87h54.67v54.67h-54.67Z"/><path fill="#fff" d="M1231.48 146.54h-58.67V87.87h58.67Zm-54.67-4h50.67V91.87h-50.67Z"/><path fill="#2e9aff" d="M1229.48 89.87h54.66v54.67h-54.66Z"/><path fill="#fff" d="M1286.14 146.54h-58.66V87.87h58.66Zm-54.66-4h50.66V91.87h-50.66Z"/><path fill="#2e9aff" d="M1284.14 89.87h54.67v54.67h-54.66Z"/><path fill="#fff" d="M1340.81 146.54h-58.67V87.87h58.67Zm-54.66-4h50.66V91.87h-50.66Z"/><path fill="#2e9aff" d="M1338.81 89.87h54.67v54.67h-54.67Z"/><path fill="#fff" d="M1395.48 146.54h-58.67V87.87h58.67Zm-54.67-4h50.67V91.87h-50.67Z"/><path d="M1393.48 174.9h23.98v23.98h-23.98Z"/><path fill="#fff" d="M1419.46 200.88h-27.98V172.9h27.98Zm-23.98-4h19.98V176.9h-19.98Z"/><path d="M1417.46 174.9h23.99v23.98h-23.99Z"/><path fill="#fff" d="M1443.45 200.88h-27.99V172.9h27.99Zm-23.99-4h19.99V176.9h-19.99Z"/><path d="M1393.48 198.88h23.98v23.99h-23.98Z"/><path fill="#fff" d="M1419.46 224.87h-27.98v-27.98h27.98Zm-23.98-4h19.98v-19.98h-19.98Z"/><path d="M1417.46 198.88h23.99v23.99h-23.99Z"/><path fill="#fff" d="M1443.45 224.87h-27.99v-27.98h27.99Zm-23.99-4h19.99v-19.98h-19.99Z"/><path d="M1147.73 40.59h-.2l.24 3.4v13.57h-5.33v-28.7h4.92l9.92 17.55h.2l-.36-3.44v-14.1h5.33v28.7h-4.92Zm38.91 14.8a7.1 7.1 0 0 1-1.37.96 15.29 15.29 0 0 1-7.32 1.78c-1.75 0-3.32-.24-4.7-.73a9.41 9.41 0 0 1-3.5-2.15 9.4 9.4 0 0 1-2.2-3.4c-.5-1.33-.75-2.84-.75-4.54 0-1.8.28-3.38.86-4.73a9.45 9.45 0 0 1 5.86-5.41 13.53 13.53 0 0 1 7.57-.27c1.1.27 2.12.74 3.05 1.41a7.56 7.56 0 0 1 2.27 2.69c.6 1.12.89 2.54.89 4.26 0 1.18-.14 2.45-.41 3.82h-14.76a4.4 4.4 0 0 0 1.9 3.7c.56.37 1.2.65 1.93.83.72.18 1.5.26 2.32.26 1.64 0 2.98-.19 4.04-.57a8.52 8.52 0 0 0 2.56-1.4Zm-8.86-14.64c-.7 0-1.38.1-2 .3a5.22 5.22 0 0 0-2.96 2.25 4.3 4.3 0 0 0-.57 1.88h10.08c0-1.37-.37-2.44-1.12-3.24-.76-.8-1.9-1.19-3.43-1.19Zm20.22 6.23-7.14-9.92h6.36l4.63 6.85 4.84-6.85h5.78l-7.02 9.84 7.43 10.66h-6.2l-5.2-7.54-5.29 7.54h-5.82Zm20.7-5.41h-4.06v-4.5h4.06v-4.68l5.33-1.52v6.2h10.74v4.5h-10.74v5.86c0 2.1.4 3.63 1.19 4.58a4.1 4.1 0 0 0 3.32 1.41 7.07 7.07 0 0 0 3.63-.94c.47-.28.91-.58 1.3-.9l1.1-.9 2.46 3.68a7.91 7.91 0 0 1-1.75 1.5 14.55 14.55 0 0 1-4.77 1.99c-.88.19-1.74.28-2.59.28-3.06 0-5.36-.85-6.9-2.56-1.55-1.7-2.32-4.42-2.32-8.14v-5.86Zm-65.73 163.83a4.91 4.91 0 0 0-1.05-.3c-.39-.06-.85-.1-1.4-.1-.76 0-1.52.15-2.26.43-.74.28-1.4.73-1.96 1.37a7.06 7.06 0 0 0-1.38 2.49 11.91 11.91 0 0 0-.52 3.78c0 1.34.15 2.52.46 3.53.31 1 .74 1.84 1.3 2.52a5.26 5.26 0 0 0 1.99 1.5 6.98 6.98 0 0 0 5.13.03v-2.8h2.07v3.79l.02.05c-.56.43-1.27.8-2.13 1.08a9.9 9.9 0 0 1-3.13.44c-1.18 0-2.27-.2-3.26-.6-1-.4-1.87-1.02-2.6-1.84a8.5 8.5 0 0 1-1.69-3.15c-.4-1.28-.6-2.8-.6-4.55 0-1.83.22-3.38.67-4.66a8.71 8.71 0 0 1 1.82-3.14 6.91 6.91 0 0 1 2.67-1.78 9.4 9.4 0 0 1 3.27-.56c.63 0 1.18.03 1.65.07.47.05.88.11 1.23.2.36.08.67.19.94.32.27.13.54.28.8.45h.03v4.42h-2.08v-3Zm14.11 3.47h4v9.55c0 .91.06 1.79.17 2.63h1.88v1.82h-3.75l-.09-2.38h-.1a5.34 5.34 0 0 1-4.83 2.72c-.86 0-1.6-.1-2.2-.3a3.1 3.1 0 0 1-1.5-1.02 4.74 4.74 0 0 1-.86-1.94c-.18-.82-.27-1.83-.27-3.04v-6.16h-1.88v-1.88h4.09v7.59c0 .76.03 1.45.1 2.06.06.6.2 1.12.4 1.54.2.42.5.73.9.95.4.21.93.32 1.6.32.96 0 1.8-.32 2.51-.95a6.08 6.08 0 0 0 1.63-2.38v-7.25h-1.8v-1.88Zm8.52 14v-1.88h3.77v-10.24h-3.78v-1.88h5.24l.45 1.82h.14a10.1 10.1 0 0 1 2.13-1.48 5.96 5.96 0 0 1 2.8-.62c.63 0 1.14.12 1.52.36.38.25.68.6.9 1.07.21.47.36 1.03.43 1.7.08.65.11 1.4.11 2.25l-1.96.02c0-1.18-.11-2.05-.35-2.6a1.27 1.27 0 0 0-1.27-.84 4.6 4.6 0 0 0-2.79.86 6.45 6.45 0 0 0-1.41 1.34V221h5.38v1.88Zm16.8 0v-1.88h3.77v-10.24h-3.78v-1.88h5.24l.45 1.82h.14a10.1 10.1 0 0 1 2.12-1.48 5.97 5.97 0 0 1 2.8-.62c.64 0 1.15.12 1.53.36.38.25.68.6.9 1.07.21.46.35 1.03.43 1.7.07.65.11 1.4.11 2.25l-1.96.02a7.2 7.2 0 0 0-.35-2.6 1.27 1.27 0 0 0-1.27-.84 4.59 4.59 0 0 0-2.79.86 6.5 6.5 0 0 0-1.41 1.34V221h5.38v1.88Zm29.76-1.77c-.34.3-.74.58-1.2.85a10.99 10.99 0 0 1-4.97 1.26c-1.11 0-2.1-.18-2.96-.52a5.74 5.74 0 0 1-2.16-1.49 6.41 6.41 0 0 1-1.31-2.3 9.5 9.5 0 0 1-.45-3.03c0-1.18.17-2.22.5-3.14.32-.91.79-1.68 1.4-2.3a6.16 6.16 0 0 1 2.24-1.4 8.93 8.93 0 0 1 5.26-.18c.77.2 1.45.59 2.04 1.15a5.55 5.55 0 0 1 1.35 2.36c.32 1 .43 2.29.34 3.88h-10.8c0 1.67.44 2.93 1.35 3.76.9.83 2.1 1.25 3.61 1.25.5 0 1-.06 1.5-.19.49-.12.96-.26 1.4-.43a7.41 7.41 0 0 0 1.99-1.12Zm-5.9-10.72c-.61 0-1.2.07-1.74.2a3.58 3.58 0 0 0-2.48 1.86c-.28.5-.45 1.1-.52 1.83h8.68a4.3 4.3 0 0 0-1.19-2.87 3.76 3.76 0 0 0-2.75-1.02Zm10.49 3.39a21.35 21.35 0 0 0-.13-2.35 9.05 9.05 0 0 0-.1-.73h-1.87v-1.82h3.75l.25 2.27h.14c.19-.32.44-.63.74-.94a5.88 5.88 0 0 1 4.05-1.67c.86 0 1.62.1 2.28.28a3.5 3.5 0 0 1 1.65 1 4.6 4.6 0 0 1 1 1.93c.22.81.33 1.84.33 3.1v8.03h-2.21v-7.6c0-1.55-.25-2.71-.75-3.5-.5-.77-1.42-1.17-2.74-1.17-.48 0-.95.1-1.4.3a4.85 4.85 0 0 0-2.22 1.87 4.6 4.6 0 0 0-.62 1.33v8.77h-2.15Zm15.06-4.9h3.33v-2.77l2.22-.62v3.4h7.47v1.87h-7.47v6.6c0 1.37.33 2.38.99 3.03.66.65 1.6.98 2.83.98.84 0 1.56-.16 2.19-.48a11.7 11.7 0 0 0 1.69-1.03l.72 1.65a8.38 8.38 0 0 1-5.12 1.74 6.8 6.8 0 0 1-2.12-.33 4.74 4.74 0 0 1-2.95-2.72 6.3 6.3 0 0 1-.45-2.5v-6.94h-3.33ZM29.3 349.2h329.26v502H29.3Z"/><path fill="#fff" d="M3.81 322.2h329.26v502H3.8Z"/><path d="M335.07 826.2H1.8v-506h333.26Zm-329.26-4h325.26v-498H5.8Z"/><path d="M39.07 380.16h4.51v4.05l.25.09a11.96 11.96 0 0 0 4.47.94 6 6 0 0 0 3.56-.92 2.91 2.91 0 0 0 1.27-2.48c0-.93-.35-1.68-1.04-2.26a10.9 10.9 0 0 0-2.58-1.51 62.45 62.45 0 0 0-3.37-1.32 16.02 16.02 0 0 1-3.36-1.66 9.28 9.28 0 0 1-2.58-2.52 6.8 6.8 0 0 1-1.05-3.94 7.78 7.78 0 0 1 2.73-6.03 9.35 9.35 0 0 1 3.1-1.72 12.4 12.4 0 0 1 4.01-.61c1.67 0 3.31.15 4.92.45 1.62.3 2.9.71 3.86 1.23v8.32h-4.51v-4.55a.76.76 0 0 1-.25-.04 15.58 15.58 0 0 0-4.02-.53c-1.3 0-2.34.26-3.1.77a2.42 2.42 0 0 0-1.12 2.1c0 .9.35 1.64 1.05 2.21.7.57 1.55 1.1 2.58 1.56 1.02.46 2.15.93 3.36 1.4 1.22.46 2.34 1.02 3.36 1.7a9.28 9.28 0 0 1 2.59 2.51 6.57 6.57 0 0 1 1.04 3.82c0 1.47-.27 2.77-.82 3.87a7.84 7.84 0 0 1-2.3 2.79c-.98.75-2.14 1.31-3.48 1.68-1.34.37-2.79.56-4.34.56-1.04 0-2-.09-2.9-.25a19 19 0 0 1-5.84-2.09Zm25.76-6.61h-4.06v-4.5h4.06v-4.68l5.33-1.52v6.2H80.9v4.5H70.16v5.87c0 2.1.4 3.62 1.19 4.57a4.1 4.1 0 0 0 3.32 1.41 7.03 7.03 0 0 0 3.63-.94c.48-.28.92-.58 1.31-.9l1.09-.9 2.46 3.68a7.86 7.86 0 0 1-1.74 1.5 14.56 14.56 0 0 1-4.78 1.99c-.88.19-1.74.28-2.58.28-3.07 0-5.37-.85-6.91-2.56-1.55-1.7-2.32-4.42-2.32-8.14Zm22.54-3.11a21.52 21.52 0 0 1 8.9-1.8c1.42 0 2.63.16 3.63.5a5.57 5.57 0 0 1 3.75 3.71c.27.88.4 1.87.4 2.96 0 1.4-.04 2.58-.14 3.57a25.16 25.16 0 0 0 .06 5.66h2.67v4.5h-6.88l-.54-2.78h-.2a7.07 7.07 0 0 1-2.33 2.19c-1 .61-2.36.92-4.07.92-2.04 0-3.66-.55-4.85-1.64a5.61 5.61 0 0 1-1.8-4.35c0-1.14.22-2.13.64-2.97a5.3 5.3 0 0 1 1.83-2.05c.8-.53 1.77-.93 2.9-1.19a16.8 16.8 0 0 1 5.3-.3l2 .16c.06-.27.09-.55.09-.82v-.78c0-1.04-.3-1.78-.9-2.23a4.35 4.35 0 0 0-2.65-.68c-1.38 0-2.63.18-3.74.53-1.11.36-2.05.71-2.81 1.07Zm6.98 15.05c1.3 0 2.27-.24 2.92-.72a4.83 4.83 0 0 0 1.42-1.54v-2.46a14.2 14.2 0 0 0-2.96-.29c-.52 0-1.03.05-1.54.15-.52.1-.98.24-1.38.45-.4.2-.73.47-.97.8-.25.32-.37.72-.37 1.19 0 .76.22 1.35.67 1.78.45.42 1.18.64 2.21.64Zm17.18-11.94h-4.06v-4.5h4.06v-4.68l5.33-1.52v6.2h10.74v4.5h-10.74v5.87c0 2.1.4 3.62 1.19 4.57a4.1 4.1 0 0 0 3.32 1.41 7.03 7.03 0 0 0 3.63-.94c.47-.28.91-.58 1.3-.9l1.1-.9 2.45 3.68a7.88 7.88 0 0 1-1.74 1.5 14.56 14.56 0 0 1-4.77 1.99c-.88.19-1.74.28-2.59.28-3.06 0-5.36-.85-6.9-2.56-1.55-1.7-2.32-4.42-2.32-8.14v-5.86Zm21.31 11.49h7.22v-11.49h-7.22v-4.5h12.55v15.99h7.59v4.5h-20.14Zm6.24-21.57c0-.85.3-1.57.94-2.18.63-.6 1.5-.9 2.62-.9 1.15 0 2.07.3 2.75.9a2.8 2.8 0 0 1 1.02 2.18c0 .87-.34 1.6-1.02 2.15a4.2 4.2 0 0 1-2.75.84c-1.12 0-2-.28-2.62-.84a2.75 2.75 0 0 1-.94-2.15Zm31.12 20.42c0-.55-.34-.99-1.01-1.32a14.6 14.6 0 0 0-2.48-.9c-.99-.27-2.07-.55-3.24-.84a14.66 14.66 0 0 1-3.24-1.19 8.08 8.08 0 0 1-2.48-1.92c-.67-.78-1-1.79-1-3.02 0-1 .22-1.9.67-2.66a6.08 6.08 0 0 1 1.85-1.95 8.6 8.6 0 0 1 2.78-1.21c1.08-.27 2.25-.41 3.51-.41 1.34 0 2.52.1 3.53.29 1 .19 1.89.42 2.64.7.75.27 1.4.58 1.93.92.53.34.99.65 1.37.92l-2.25 3.65a19.07 19.07 0 0 0-3.1-1.48c-.59-.22-1.2-.4-1.84-.53a9.19 9.19 0 0 0-4.7.24c-.7.3-1.06.77-1.06 1.4 0 .5.33.89 1 1.19.67.3 1.5.58 2.48.84l3.24.84c1.17.3 2.25.69 3.24 1.17a8 8 0 0 1 2.48 1.86c.67.77 1 1.75 1 2.95a5.9 5.9 0 0 1-2.27 4.9c-1.52 1.2-3.77 1.79-6.75 1.79-2.35 0-4.38-.35-6.09-1.05a14.2 14.2 0 0 1-4.12-2.44l2.46-3.85a12.53 12.53 0 0 0 3.4 2c.74.3 1.53.56 2.36.77.84.2 1.66.3 2.48.3a5.2 5.2 0 0 0 2.26-.45c.63-.3.94-.8.94-1.51Zm28.65 3.69a11.74 11.74 0 0 1-3.94 1.9c-1.5.43-3.07.64-4.72.64-1.77 0-3.35-.26-4.73-.78a9.66 9.66 0 0 1-3.49-2.2 9.32 9.32 0 0 1-2.15-3.42 12.79 12.79 0 0 1-.73-4.43c0-1.72.28-3.25.86-4.59a9.68 9.68 0 0 1 6.02-5.51c1.4-.48 2.91-.72 4.55-.72 1.53 0 2.97.18 4.3.53 1.35.36 2.37.7 3.08 1.03v7.22h-4.5v-3.78c-.86-.19-1.7-.28-2.55-.28-.76 0-1.52.11-2.27.35a5.56 5.56 0 0 0-3.45 3 6.28 6.28 0 0 0-.55 2.75c0 .88.15 1.69.45 2.42a5.77 5.77 0 0 0 3.3 3.22c.8.32 1.7.48 2.69.48 1.56 0 2.83-.22 3.83-.66 1-.44 1.74-.82 2.23-1.15Zm6.05-14.03h-4.05v-4.5h4.06v-4.68l5.33-1.52v6.2h10.74v4.5h-10.74v5.87c0 2.1.4 3.62 1.19 4.57a4.1 4.1 0 0 0 3.32 1.41 7.03 7.03 0 0 0 3.63-.94c.47-.28.91-.58 1.3-.9l1.1-.9 2.46 3.68a7.86 7.86 0 0 1-1.75 1.5 14.56 14.56 0 0 1-4.77 1.99c-.88.19-1.74.28-2.59.28-3.06 0-5.36-.85-6.9-2.56-1.55-1.7-2.32-4.42-2.32-8.14Zm21.32 11.49h7.22v-11.49h-7.22v-4.5h12.55v15.99h7.59v4.5h-20.14Zm6.24-21.57c0-.85.31-1.57.94-2.18.63-.6 1.5-.9 2.62-.9 1.15 0 2.07.3 2.75.9a2.8 2.8 0 0 1 1.02 2.18c0 .87-.34 1.6-1.02 2.15a4.2 4.2 0 0 1-2.75.84c-1.12 0-2-.28-2.62-.84a2.75 2.75 0 0 1-.94-2.15Zm36.41 24.11a11.75 11.75 0 0 1-3.93 1.9c-1.5.43-3.08.64-4.72.64-1.78 0-3.35-.26-4.73-.78a9.66 9.66 0 0 1-3.49-2.2 9.3 9.3 0 0 1-2.15-3.42c-.5-1.34-.74-2.81-.74-4.43 0-1.72.29-3.25.86-4.59a9.67 9.67 0 0 1 6.03-5.51c1.4-.48 2.91-.72 4.55-.72 1.53 0 2.96.18 4.3.53 1.34.36 2.37.7 3.08 1.03v7.22h-4.51v-3.78c-.85-.19-1.7-.28-2.54-.28-.77 0-1.53.11-2.28.35a5.56 5.56 0 0 0-3.44 3 6.28 6.28 0 0 0-.56 2.75c0 .88.16 1.69.46 2.42a5.75 5.75 0 0 0 3.3 3.22c.8.32 1.7.48 2.68.48a9.6 9.6 0 0 0 3.84-.66c1-.44 1.74-.82 2.23-1.15Zm17.28-3.69c0-.55-.34-.99-1-1.32-.68-.32-1.5-.63-2.48-.9-.99-.27-2.07-.55-3.24-.84a14.66 14.66 0 0 1-3.24-1.19 8.08 8.08 0 0 1-2.48-1.92c-.67-.78-1-1.79-1-3.02 0-1 .22-1.9.67-2.66a6.08 6.08 0 0 1 1.85-1.95c.77-.53 1.7-.94 2.78-1.21 1.08-.27 2.25-.41 3.5-.41 1.35 0 2.52.1 3.54.29 1 .19 1.89.42 2.64.7.75.27 1.4.58 1.93.92.53.34.99.65 1.37.92l-2.25 3.65a19.07 19.07 0 0 0-3.1-1.48c-.59-.22-1.2-.4-1.84-.53a9.2 9.2 0 0 0-4.7.24c-.71.3-1.06.77-1.06 1.4 0 .5.33.89 1 1.19.67.3 1.5.58 2.48.84l3.24.84c1.17.3 2.25.69 3.24 1.17a8 8 0 0 1 2.48 1.86c.66.77 1 1.75 1 2.95a5.9 5.9 0 0 1-2.27 4.9c-1.52 1.2-3.77 1.79-6.75 1.79-2.35 0-4.38-.35-6.09-1.05a14.2 14.2 0 0 1-4.12-2.44l2.46-3.85a12.53 12.53 0 0 0 3.4 2c.74.3 1.53.56 2.36.77.83.2 1.66.3 2.48.3a5.2 5.2 0 0 0 2.26-.45c.63-.3.94-.8.94-1.51Zm-95.88 57.43c0-2.49.26-4.67.78-6.54a13.47 13.47 0 0 1 2.2-4.65 9.15 9.15 0 0 1 3.4-2.77c1.32-.61 2.79-.92 4.4-.92 3.46 0 6.12 1.2 7.99 3.63 1.86 2.42 2.8 6.17 2.8 11.25 0 2.52-.27 4.7-.79 6.58a13.7 13.7 0 0 1-2.2 4.68 9 9 0 0 1-3.41 2.78c-1.33.62-2.81.93-4.43.93-3.48 0-6.14-1.28-7.98-3.84-1.84-2.55-2.76-6.26-2.76-11.13Zm5.33 0a30.93 30.93 0 0 0 .09 2.3l9.92-9.15c-.81-2.35-2.35-3.52-4.6-3.52-1.73 0-3.06.84-4 2.52-.94 1.68-1.4 4.3-1.4 7.85Zm10.9 0a35.57 35.57 0 0 0-.07-2.42l-9.97 9.15c.84 2.48 2.38 3.73 4.6 3.73 1.73 0 3.07-.84 4.02-2.5.95-1.67 1.43-4.32 1.43-7.96Zm30.47 6.4h-4.92v8h-4.96v-8h-12.42v-3.65l13-17.26h4.38v16.64h4.92Zm-9.88-13.37-7.13 9.1h7.13Zm13.04 1.65c0-1.4.24-2.69.72-3.86a8.72 8.72 0 0 1 5.12-4.98c1.22-.48 2.58-.72 4.08-.72 1.53 0 2.92.23 4.18.7a8.74 8.74 0 0 1 5.33 5.47c.5 1.35.74 2.9.74 4.65 0 3.17-.4 5.9-1.23 8.2a17 17 0 0 1-3.3 5.74 14.29 14.29 0 0 1-4.81 3.52 19.11 19.11 0 0 1-5.75 1.56l-1.14-4.18c1.5-.19 2.86-.56 4.08-1.1a12.34 12.34 0 0 0 3.18-2.03c.9-.81 1.64-1.73 2.21-2.75a9.33 9.33 0 0 0 1.1-3.3 6.14 6.14 0 0 1-2.2 1.37 9.1 9.1 0 0 1-3.25.51h-.08a9.84 9.84 0 0 1-3.16-.53 8.53 8.53 0 0 1-5.82-8.28Zm5.16-.3a4.57 4.57 0 0 0 1.56 3.5c.47.4 1 .7 1.62.91a7.29 7.29 0 0 0 4.82-.22 4.3 4.3 0 0 0 1.8-1.32c.09-.57.13-1.12.13-1.64 0-.76-.11-1.51-.33-2.25a6.1 6.1 0 0 0-.98-1.97 4.85 4.85 0 0 0-3.9-1.88c-1.34 0-2.46.43-3.36 1.29a4.73 4.73 0 0 0-1.36 3.58Zm-55.02 72.23c0-2.49.26-4.67.78-6.54a13.46 13.46 0 0 1 2.2-4.65 9.16 9.16 0 0 1 3.4-2.77c1.32-.62 2.79-.93 4.4-.93 3.46 0 6.12 1.22 7.99 3.63 1.86 2.42 2.8 6.18 2.8 11.26 0 2.51-.27 4.7-.79 6.58a13.69 13.69 0 0 1-2.2 4.67 8.98 8.98 0 0 1-3.41 2.8c-1.33.6-2.81.91-4.43.91-3.48 0-6.14-1.27-7.98-3.83-1.84-2.56-2.76-6.26-2.76-11.13Zm5.33 0a30.93 30.93 0 0 0 .09 2.3l9.92-9.15c-.81-2.35-2.35-3.52-4.6-3.52-1.73 0-3.06.84-4 2.52-.94 1.68-1.4 4.3-1.4 7.85Zm10.9 0a35.61 35.61 0 0 0-.07-2.42l-9.97 9.14c.84 2.5 2.38 3.74 4.6 3.74 1.73 0 3.07-.84 4.02-2.5.95-1.67 1.43-4.33 1.43-7.96Zm16.98 10.45c.9 0 1.73-.11 2.48-.34.75-.23 1.4-.56 1.93-.98.53-.42.95-.91 1.25-1.47.3-.56.45-1.17.45-1.82 0-.81-.17-1.5-.51-2.06a3.7 3.7 0 0 0-1.42-1.33 6.74 6.74 0 0 0-2.17-.69c-.85-.14-1.76-.2-2.75-.2h-2.3v-2.94l6.9-8.42h-10.38v-4.51h16.73v3.73l-7.22 8.24h.95c.95 0 1.88.17 2.79.5a6.88 6.88 0 0 1 4.07 3.93c.43.98.64 2.12.64 3.4 0 1.56-.32 2.93-.96 4.1a9.37 9.37 0 0 1-2.55 2.98c-1.05.8-2.26 1.4-3.62 1.8-1.37.4-2.78.6-4.23.6a21 21 0 0 1-3.69-.33 17.99 17.99 0 0 1-3.56-1.03l1.43-4.42c.25.13.58.27 1 .4a23.75 23.75 0 0 0 3.08.74c.56.08 1.12.13 1.66.13Zm24.15-.2c.9 0 1.74-.1 2.5-.33a6.23 6.23 0 0 0 2-.94 4.36 4.36 0 0 0 1.78-3.57c0-1.5-.6-2.68-1.79-3.55-1.19-.86-2.97-1.29-5.35-1.29a32.75 32.75 0 0 0-2.17.08c-.41.03-.84.05-1.27.05v-15.01h14.84v5h-10.25v5.54c.22 0 .44-.02.66-.05.18 0 .37 0 .55-.02l.47-.02c1.37 0 2.64.2 3.81.6a8.21 8.21 0 0 1 5.11 4.68 9.5 9.5 0 0 1 .71 3.75 8.82 8.82 0 0 1-3.36 7.3 11.03 11.03 0 0 1-3.6 1.86c-1.37.42-2.84.63-4.4.63-.6 0-1.24-.06-1.92-.18a23.47 23.47 0 0 1-3.83-1.05c-.56-.22-1.03-.42-1.42-.61l1.72-4.27c.47.28 1.19.58 2.16.9.97.34 1.98.5 3.05.5Zm-57.36 72.42c0-2.49.26-4.67.78-6.54a13.45 13.45 0 0 1 2.2-4.66 9.16 9.16 0 0 1 3.4-2.76c1.32-.62 2.79-.93 4.4-.93 3.46 0 6.12 1.21 7.99 3.63 1.86 2.42 2.8 6.17 2.8 11.26 0 2.51-.27 4.7-.79 6.58a13.67 13.67 0 0 1-2.2 4.67 8.99 8.99 0 0 1-3.41 2.79c-1.33.61-2.81.92-4.43.92-3.48 0-6.14-1.27-7.98-3.83-1.84-2.56-2.76-6.27-2.76-11.13Zm5.33 0a30.85 30.85 0 0 0 .09 2.3l9.92-9.15c-.81-2.35-2.35-3.53-4.6-3.53-1.73 0-3.06.84-4 2.52-.94 1.69-1.4 4.3-1.4 7.86Zm10.9 0a35.41 35.41 0 0 0-.07-2.42l-9.97 9.14c.84 2.49 2.38 3.73 4.6 3.73 1.73 0 3.07-.83 4.02-2.5.95-1.67 1.43-4.32 1.43-7.95Zm11 14.39 11.8-23.87h-13.36v-4.83h18.7v4.01L222.7 605Zm44.07-7.99h-4.92v7.99h-4.96v-8h-12.42v-3.65l13-17.26h4.38v16.65h4.92Zm-9.88-13.38-7.13 9.1h7.13Zm-61.42 90.8c0-2.49.26-4.67.78-6.54a13.47 13.47 0 0 1 2.2-4.65 9.17 9.17 0 0 1 3.4-2.77c1.32-.62 2.79-.93 4.4-.93 3.46 0 6.12 1.21 7.99 3.63 1.86 2.42 2.8 6.17 2.8 11.26 0 2.51-.27 4.7-.79 6.58a13.68 13.68 0 0 1-2.2 4.67 9 9 0 0 1-3.41 2.8c-1.33.6-2.81.91-4.43.91-3.48 0-6.14-1.27-7.98-3.83-1.84-2.56-2.76-6.27-2.76-11.13Zm5.33 0a30.85 30.85 0 0 0 .09 2.3l9.92-9.15c-.81-2.35-2.35-3.53-4.6-3.53-1.73 0-3.06.85-4 2.53-.94 1.68-1.4 4.3-1.4 7.85Zm10.9 0a35.41 35.41 0 0 0-.07-2.42l-9.97 9.14c.84 2.49 2.38 3.73 4.6 3.73 1.73 0 3.07-.83 4.02-2.5.95-1.66 1.43-4.32 1.43-7.95Zm28.26 14.38h-18.29v-3.97c.33-.27.74-.63 1.23-1.08l1.66-1.54c.62-.58 1.27-1.2 1.95-1.89a86.04 86.04 0 0 0 4.45-4.96c.7-.85 1.27-1.64 1.72-2.4.45-.75.78-1.49 1-2.21.22-.73.33-1.47.33-2.24a3.7 3.7 0 0 0-.37-1.6 4.35 4.35 0 0 0-1.02-1.37c-.44-.4-.96-.7-1.58-.94a5.78 5.78 0 0 0-2.03-.35 7.7 7.7 0 0 0-2.69.45c-.8.3-1.64.8-2.52 1.52l-2.13-3.77a18.08 18.08 0 0 1 3.83-2.07 13.09 13.09 0 0 1 8.24-.35c1.08.33 2.04.81 2.87 1.45.84.65 1.5 1.44 2 2.4.48.96.73 2.07.73 3.32a11.84 11.84 0 0 1-.92 4.7 15.2 15.2 0 0 1-1.23 2.31 38.3 38.3 0 0 1-3.61 4.74 72.35 72.35 0 0 1-3.77 3.91c-.62.57-1.17 1.05-1.66 1.44h11.8v4.5Zm5.62-7a7 7 0 0 1 .47-2.63c.31-.79.72-1.5 1.23-2.13.5-.63 1.08-1.2 1.74-1.7.65-.5 1.32-.95 2-1.33-1.36-.8-2.5-1.73-3.4-2.81a6.15 6.15 0 0 1-1.35-4.08c0-1.07.23-2.06.7-3a7.36 7.36 0 0 1 1.94-2.41 9.23 9.23 0 0 1 2.98-1.6c1.15-.38 2.4-.58 3.73-.58 1.23 0 2.38.17 3.46.5a9.4 9.4 0 0 1 2.85 1.4 6.6 6.6 0 0 1 1.93 2.19c.46.85.7 1.8.7 2.85 0 1.6-.42 3.02-1.25 4.22a11 11 0 0 1-3.43 3.11c1.64.85 2.95 1.85 3.92 3a6.61 6.61 0 0 1 1.46 4.43c0 1.22-.27 2.34-.8 3.34a8.06 8.06 0 0 1-2.16 2.56c-.9.71-1.96 1.26-3.17 1.66-1.22.4-2.51.6-3.88.6s-2.64-.19-3.81-.56a10.1 10.1 0 0 1-3.08-1.54 7.1 7.1 0 0 1-2.04-2.38 6.54 6.54 0 0 1-.75-3.11Zm14.6-.7c0-.68-.19-1.27-.54-1.76-.36-.5-.8-.93-1.33-1.31-.54-.39-1.13-.73-1.77-1.05a47.7 47.7 0 0 1-1.86-.96 8 8 0 0 0-3.16 2.31 4.44 4.44 0 0 0-1.1 2.69c0 1.23.43 2.18 1.3 2.85.88.67 2.1 1 3.65 1 1.4 0 2.55-.32 3.45-.96a3.23 3.23 0 0 0 1.35-2.8Zm-8.82-13.74c0 .66.14 1.22.43 1.67.28.45.65.85 1.1 1.19.45.34.97.64 1.54.92l1.72.82a7.94 7.94 0 0 0 2.42-1.9c.33-.4.6-.81.8-1.24.2-.42.3-.85.3-1.3 0-.56-.11-1.06-.36-1.49a3.65 3.65 0 0 0-.96-1.08c-.4-.3-.84-.53-1.34-.68a5.21 5.21 0 0 0-3.17.06c-.5.19-.94.44-1.31.74-.38.3-.66.65-.87 1.06-.2.41-.3.83-.3 1.24Zm-55.89 87.88c0-2.48.26-4.66.78-6.54a13.47 13.47 0 0 1 2.2-4.65 9.17 9.17 0 0 1 3.4-2.77c1.32-.61 2.79-.92 4.4-.92 3.46 0 6.12 1.21 7.99 3.63 1.86 2.42 2.8 6.17 2.8 11.25 0 2.52-.27 4.71-.79 6.58a13.7 13.7 0 0 1-2.2 4.68 9 9 0 0 1-3.41 2.78c-1.33.62-2.81.93-4.43.93-3.48 0-6.14-1.28-7.98-3.84-1.84-2.55-2.76-6.26-2.76-11.13Zm5.33 0a30.93 30.93 0 0 0 .09 2.3l9.92-9.14c-.81-2.36-2.35-3.53-4.6-3.53-1.73 0-3.06.84-4 2.52-.94 1.68-1.4 4.3-1.4 7.85Zm10.9 0a35.57 35.57 0 0 0-.07-2.42l-9.97 9.15c.84 2.49 2.38 3.73 4.6 3.73 1.73 0 3.07-.84 4.02-2.5.95-1.67 1.43-4.32 1.43-7.96Zm16.98 10.46c.9 0 1.73-.12 2.48-.35.75-.23 1.4-.56 1.93-.98.53-.42.95-.91 1.25-1.47.3-.56.45-1.16.45-1.82 0-.81-.17-1.5-.51-2.06a3.7 3.7 0 0 0-1.42-1.32 6.74 6.74 0 0 0-2.17-.7c-.85-.13-1.76-.2-2.75-.2h-2.3v-2.94l6.9-8.42h-10.38v-4.5h16.73v3.72l-7.22 8.24h.95c.95 0 1.88.17 2.79.5a6.87 6.87 0 0 1 4.07 3.93c.43.99.64 2.12.64 3.4 0 1.56-.32 2.93-.96 4.1a9.37 9.37 0 0 1-2.55 2.98c-1.05.8-2.26 1.4-3.62 1.8-1.37.4-2.78.6-4.23.6a21 21 0 0 1-3.69-.33 17.86 17.86 0 0 1-3.56-1.02l1.43-4.43c.25.14.58.27 1 .4a15.67 15.67 0 0 0 3.08.74c.56.09 1.12.13 1.66.13Zm24.6 0c.9 0 1.73-.12 2.48-.35.75-.23 1.4-.56 1.93-.98.53-.42.95-.91 1.25-1.47.3-.56.45-1.16.45-1.82 0-.81-.17-1.5-.51-2.06-.34-.55-.81-1-1.42-1.32a6.74 6.74 0 0 0-2.17-.7c-.85-.13-1.76-.2-2.75-.2h-2.3v-2.94l6.9-8.42h-10.38v-4.5h16.73v3.72l-7.22 8.24h.95c.95 0 1.88.17 2.78.5a6.88 6.88 0 0 1 4.08 3.93c.43.99.64 2.12.64 3.4 0 1.56-.32 2.93-.96 4.1a9.35 9.35 0 0 1-2.55 2.98c-1.05.8-2.26 1.4-3.62 1.8-1.37.4-2.78.6-4.23.6-1.23 0-2.46-.11-3.69-.33a17.83 17.83 0 0 1-3.56-1.02l1.43-4.43c.25.14.58.27 1 .4a15.75 15.75 0 0 0 3.08.74c.56.09 1.12.13 1.66.13Z"/><path fill="#2e9aff" d="M63.74 482.38h27.33v27.33H63.74Z"/><path fill="#fff" d="M93.07 511.71H61.74v-31.33h31.33Zm-27.33-4h23.33v-23.33H65.74Z"/><path fill="#2e9aff" d="M91.07 482.38h27.34v27.33H91.06Z"/><path fill="#fff" d="M120.4 511.71H89.08v-31.33h31.34Zm-27.33-4h23.34v-23.33H93.06Z"/><path fill="#2e9aff" d="M63.74 509.71h27.33v27.33H63.74Z"/><path fill="#fff" d="M93.07 539.04H61.74v-31.33h31.33Zm-27.33-4h23.33v-23.33H65.74Z"/><path fill="#2e9aff" d="M91.07 509.71h27.34v27.33H91.06Z"/><path fill="#fff" d="M120.4 539.04H89.08v-31.33h31.34Zm-27.33-4h23.34v-23.33H93.06Z"/><path fill="#2e9aff" d="M50.07 592.38h27.34v27.33H50.06Z"/><path fill="#fff" d="M79.4 621.71H48.08v-31.33h31.34Zm-27.33-4h23.34v-23.33H52.06Z"/><path fill="#2e9aff" d="M77.4 592.38h27.34v27.33H77.4Z"/><path fill="#fff" d="M106.74 621.71H75.4v-31.33h31.33Zm-27.33-4h23.33v-23.33H79.4Z"/><path fill="#2e9aff" d="M77.4 565.05h27.34v27.33H77.4Z"/><path fill="#fff" d="M106.74 594.38H75.4v-31.33h31.33Zm-27.33-4h23.33v-23.33H79.4Z"/><path fill="#2e9aff" d="M104.74 592.38h27.33v27.33h-27.33Z"/><path fill="#fff" d="M134.07 621.71h-31.33v-31.33h31.33Zm-27.33-4h23.33v-23.33h-23.33Z"/><path fill="#2e9aff" d="M36.4 428.38h27.34v27.33H36.4Z"/><path fill="#fff" d="M65.74 457.71H34.4v-31.33h31.33Zm-27.33-4h23.33v-23.33H38.4Z"/><path fill="#2e9aff" d="M63.74 428.38h27.33v27.33H63.74Z"/><path fill="#fff" d="M93.07 457.71H61.74v-31.33h31.33Zm-27.33-4h23.33v-23.33H65.74Z"/><path fill="#2e9aff" d="M91.07 428.38h27.34v27.33H91.06Z"/><path fill="#fff" d="M120.4 457.71H89.08v-31.33h31.34Zm-27.33-4h23.34v-23.33H93.06Z"/><path fill="#2e9aff" d="M118.4 428.38h27.34v27.33H118.4Z"/><path fill="#fff" d="M147.74 457.71H116.4v-31.33h31.34Zm-27.34-4h23.34v-23.33H120.4Z"/><path fill="#2e9aff" d="M50.07 648.87h27.34v27.33H50.06Z"/><path fill="#fff" d="M79.4 678.2H48.08v-31.33h31.34Zm-27.33-4h23.34v-23.33H52.06Z"/><path fill="#2e9aff" d="M77.4 648.87h27.34v27.33H77.4Z"/><path fill="#fff" d="M106.74 678.2H75.4v-31.33h31.33Zm-27.33-4h23.33v-23.33H79.4Z"/><path fill="#2e9aff" d="M104.74 648.87h27.33v27.33h-27.33Z"/><path fill="#fff" d="M134.07 678.2h-31.33v-31.33h31.33Zm-27.33-4h23.33v-23.33h-23.33Z"/><path fill="#2e9aff" d="M104.74 676.2h27.33v27.33h-27.33Z"/><path fill="#fff" d="M134.07 705.53h-31.33V674.2h31.33Zm-27.33-4h23.33V678.2h-23.33Z"/><path fill="#2e9aff" d="M50.07 729.7h27.34v27.33H50.06Z"/><path fill="#fff" d="M79.4 759.03H48.08v-31.34h31.34Zm-27.33-4h23.34v-23.34H52.06Z"/><path fill="#2e9aff" d="M77.4 729.7h27.34v27.33H77.4Z"/><path fill="#fff" d="M106.74 759.03H75.4v-31.34h31.33Zm-27.33-4h23.33v-23.34H79.4Z"/><path fill="#2e9aff" d="M77.4 757.03h27.34v27.33H77.4Z"/><path fill="#fff" d="M106.74 786.36H75.4v-31.33h31.33Zm-27.33-4h23.33v-23.33H79.4Z"/><path fill="#2e9aff" d="M104.74 757.03h27.33v27.33h-27.33Z"/><path fill="#fff" d="M134.07 786.36h-31.33v-31.33h31.33Zm-27.33-4h23.33v-23.33h-23.33Z"/><path d="M473.24 30.56h547.7V851.2h-547.7Z"/><path fill="#fff" d="M445.9 3.13h546.67V824.2H445.9Z"/><path d="M994.57 826.2H443.9V1.13h550.67Zm-546.67-4h542.67V5.13H447.9Z"/><path fill="#fff" d="M445.9 4.13h54.67v54.66H445.9Z"/><path d="M502.57 60.8H443.9V2.12h58.67Zm-54.67-4h50.67V6.12H447.9Z"/><path fill="#fff" d="M500.57 4.13h54.67v54.66h-54.67Z"/><path d="M557.24 60.8h-58.67V2.12h58.67Zm-54.67-4h50.67V6.12h-50.67Z"/><path fill="#fff" d="M555.24 4.13h54.66v54.66h-54.66Z"/><path d="M611.9 60.8h-58.66V2.12h58.66Zm-54.66-4h50.66V6.12h-50.66Z"/><path fill="#fff" d="M609.9 4.13h54.67v54.66H609.9Z"/><path d="M666.57 60.8H607.9V2.12h58.67Zm-54.67-4h50.67V6.12H611.9Z"/><path fill="#fff" d="M664.57 4.13h54.67v54.66h-54.67Z"/><path d="M721.24 60.8h-58.67V2.12h58.67Zm-54.67-4h50.67V6.12h-50.67Z"/><path fill="#fff" d="M719.24 4.13h54.66v54.66h-54.66Z"/><path d="M775.9 60.8h-58.66V2.12h58.66Zm-54.66-4h50.66V6.12h-50.66Z"/><path fill="#fff" d="M773.9 4.13h54.67v54.66H773.9Z"/><path d="M830.57 60.8H771.9V2.12h58.67Zm-54.67-4h50.67V6.12H775.9Z"/><path fill="#fff" d="M828.57 4.13h54.67v54.66h-54.67Z"/><path d="M885.24 60.8h-58.67V2.12h58.67Zm-54.67-4h50.67V6.12h-50.67Z"/><path fill="#fff" d="M883.24 4.13h54.66v54.66h-54.66Z"/><path d="M939.9 60.8h-58.66V2.12h58.66Zm-54.66-4h50.66V6.12h-50.66Z"/><path fill="#fff" d="M937.9 4.13h54.67v54.66H937.9Z"/><path d="M994.57 60.8H935.9V2.12h58.67Zm-54.67-4h50.67V6.12H939.9Z"/><path fill="#fff" d="M445.9 58.8h54.67v54.66H445.9Z"/><path d="M502.57 115.46H443.9V56.79h58.67Zm-54.67-4h50.67V60.79H447.9Z"/><path fill="#fff" d="M500.57 58.8h54.67v54.66h-54.67Z"/><path d="M557.24 115.46h-58.67V56.79h58.67Zm-54.67-4h50.67V60.79h-50.67Z"/><path fill="#fff" d="M555.24 58.8h54.66v54.66h-54.66Z"/><path d="M611.9 115.46h-58.66V56.79h58.66Zm-54.66-4h50.66V60.79h-50.66Z"/><path fill="#fff" d="M609.9 58.8h54.67v54.66H609.9Z"/><path d="M666.57 115.46H607.9V56.79h58.67Zm-54.67-4h50.67V60.79H611.9Z"/><path fill="#fff" d="M664.57 58.8h54.67v54.66h-54.67Z"/><path d="M721.24 115.46h-58.67V56.79h58.67Zm-54.67-4h50.67V60.79h-50.67Z"/><path fill="#fff" d="M719.24 58.8h54.66v54.66h-54.66Z"/><path d="M775.9 115.46h-58.66V56.79h58.66Zm-54.66-4h50.66V60.79h-50.66Z"/><path fill="#fff" d="M773.9 58.8h54.67v54.66H773.9Z"/><path d="M830.57 115.46H771.9V56.79h58.67Zm-54.67-4h50.67V60.79H775.9Z"/><path fill="#fff" d="M828.57 58.8h54.67v54.66h-54.67Z"/><path d="M885.24 115.46h-58.67V56.79h58.67Zm-54.67-4h50.67V60.79h-50.67Z"/><path fill="#fff" d="M883.24 58.8h54.66v54.66h-54.66Z"/><path d="M939.9 115.46h-58.66V56.79h58.66Zm-54.66-4h50.66V60.79h-50.66Z"/><path fill="#fff" d="M937.9 58.8h54.67v54.66H937.9Z"/><path d="M994.57 115.46H935.9V56.79h58.67Zm-54.67-4h50.67V60.79H939.9Z"/><path fill="#fff" d="M445.9 113.46h54.67v54.67H445.9Z"/><path d="M502.57 170.13H443.9v-58.67h58.67Zm-54.67-4h50.67v-50.67H447.9Z"/><path fill="#fff" d="M500.57 113.46h54.67v54.67h-54.67Z"/><path d="M557.24 170.13h-58.67v-58.67h58.67Zm-54.67-4h50.67v-50.67h-50.67Z"/><path fill="#fff" d="M555.24 113.46h54.66v54.67h-54.66Z"/><path d="M611.9 170.13h-58.66v-58.67h58.66Zm-54.66-4h50.66v-50.67h-50.66Z"/><path fill="#fff" d="M609.9 113.46h54.67v54.67H609.9Z"/><path d="M666.57 170.13H607.9v-58.67h58.67Zm-54.67-4h50.67v-50.67H611.9Z"/><path fill="#fff" d="M664.57 113.46h54.67v54.67h-54.67Z"/><path d="M721.24 170.13h-58.67v-58.67h58.67Zm-54.67-4h50.67v-50.67h-50.67Z"/><path fill="#fff" d="M719.24 113.46h54.66v54.67h-54.66Z"/><path d="M775.9 170.13h-58.66v-58.67h58.66Zm-54.66-4h50.66v-50.67h-50.66Z"/><path fill="#fff" d="M773.9 113.46h54.67v54.67H773.9Z"/><path d="M830.57 170.13H771.9v-58.67h58.67Zm-54.67-4h50.67v-50.67H775.9Z"/><path fill="#fff" d="M828.57 113.46h54.67v54.67h-54.67Z"/><path d="M885.24 170.13h-58.67v-58.67h58.67Zm-54.67-4h50.67v-50.67h-50.67Z"/><path fill="#fff" d="M883.24 113.46h54.66v54.67h-54.66Z"/><path d="M939.9 170.13h-58.66v-58.67h58.66Zm-54.66-4h50.66v-50.67h-50.66Z"/><path fill="#fff" d="M937.9 113.46h54.67v54.67H937.9Z"/><path d="M994.57 170.13H935.9v-58.67h58.67Zm-54.67-4h50.67v-50.67H939.9Z"/><path fill="#fff" d="M445.9 168.13h54.67v54.66H445.9Z"/><path d="M502.57 224.8H443.9v-58.67h58.67Zm-54.67-4h50.67v-50.67H447.9Z"/><path fill="#fff" d="M500.57 168.13h54.67v54.66h-54.67Z"/><path d="M557.24 224.8h-58.67v-58.67h58.67Zm-54.67-4h50.67v-50.67h-50.67Z"/><path fill="#fff" d="M555.24 168.13h54.66v54.66h-54.66Z"/><path d="M611.9 224.8h-58.66v-58.67h58.66Zm-54.66-4h50.66v-50.67h-50.66Z"/><path fill="#fff" d="M609.9 168.13h54.67v54.66H609.9Z"/><path d="M666.57 224.8H607.9v-58.67h58.67Zm-54.67-4h50.67v-50.67H611.9Z"/><path fill="#fff" d="M664.57 168.13h54.67v54.66h-54.67Z"/><path d="M721.24 224.8h-58.67v-58.67h58.67Zm-54.67-4h50.67v-50.67h-50.67Z"/><path fill="#fff" d="M719.24 168.13h54.66v54.66h-54.66Z"/><path d="M775.9 224.8h-58.66v-58.67h58.66Zm-54.66-4h50.66v-50.67h-50.66Z"/><path fill="#fff" d="M773.9 168.13h54.67v54.66H773.9Z"/><path d="M830.57 224.8H771.9v-58.67h58.67Zm-54.67-4h50.67v-50.67H775.9Z"/><path fill="#fff" d="M828.57 168.13h54.67v54.66h-54.67Z"/><path d="M885.24 224.8h-58.67v-58.67h58.67Zm-54.67-4h50.67v-50.67h-50.67Z"/><path fill="#fff" d="M883.24 168.13h54.66v54.66h-54.66Z"/><path d="M939.9 224.8h-58.66v-58.67h58.66Zm-54.66-4h50.66v-50.67h-50.66Z"/><path fill="#fff" d="M937.9 168.13h54.67v54.66H937.9Z"/><path d="M994.57 224.8H935.9v-58.67h58.67Zm-54.67-4h50.67v-50.67H939.9Z"/><path fill="#fff" d="M445.9 222.8h54.67v54.66H445.9Z"/><path d="M502.57 279.46H443.9v-58.67h58.67Zm-54.67-4h50.67v-50.67H447.9Z"/><path fill="#fff" d="M500.57 222.8h54.67v54.66h-54.67Z"/><path d="M557.24 279.46h-58.67v-58.67h58.67Zm-54.67-4h50.67v-50.67h-50.67Z"/><path fill="#fff" d="M555.24 222.8h54.66v54.66h-54.66Z"/><path d="M611.9 279.46h-58.66v-58.67h58.66Zm-54.66-4h50.66v-50.67h-50.66Z"/><path fill="#fff" d="M609.9 222.8h54.67v54.66H609.9Z"/><path d="M666.57 279.46H607.9v-58.67h58.67Zm-54.67-4h50.67v-50.67H611.9Z"/><path fill="#fff" d="M664.57 222.8h54.67v54.66h-54.67Z"/><path d="M721.24 279.46h-58.67v-58.67h58.67Zm-54.67-4h50.67v-50.67h-50.67Z"/><path fill="#fff" d="M719.24 222.8h54.66v54.66h-54.66Z"/><path d="M775.9 279.46h-58.66v-58.67h58.66Zm-54.66-4h50.66v-50.67h-50.66Z"/><path fill="#fff" d="M773.9 222.8h54.67v54.66H773.9Z"/><path d="M830.57 279.46H771.9v-58.67h58.67Zm-54.67-4h50.67v-50.67H775.9Z"/><path fill="#fff" d="M828.57 222.8h54.67v54.66h-54.67Z"/><path d="M885.24 279.46h-58.67v-58.67h58.67Zm-54.67-4h50.67v-50.67h-50.67Z"/><path fill="#fff" d="M883.24 222.8h54.66v54.66h-54.66Z"/><path d="M939.9 279.46h-58.66v-58.67h58.66Zm-54.66-4h50.66v-50.67h-50.66Z"/><path fill="#fff" d="M937.9 222.8h54.67v54.66H937.9Z"/><path d="M994.57 279.46H935.9v-58.67h58.67Zm-54.67-4h50.67v-50.67H939.9Z"/><path fill="#fff" d="M445.9 277.46h54.67v54.66H445.9Z"/><path d="M502.57 334.12H443.9v-58.66h58.67Zm-54.67-4h50.67v-50.66H447.9Z"/><path fill="#fff" d="M500.57 277.46h54.67v54.66h-54.67Z"/><path d="M557.24 334.12h-58.67v-58.66h58.67Zm-54.67-4h50.67v-50.66h-50.67Z"/><path fill="#fff" d="M555.24 277.46h54.66v54.66h-54.66Z"/><path d="M611.9 334.12h-58.66v-58.66h58.66Zm-54.66-4h50.66v-50.66h-50.66Z"/><path fill="#fff" d="M609.9 277.46h54.67v54.66H609.9Z"/><path d="M666.57 334.12H607.9v-58.66h58.67Zm-54.67-4h50.67v-50.66H611.9Z"/><path fill="#fff" d="M664.57 277.46h54.67v54.66h-54.67Z"/><path d="M721.24 334.12h-58.67v-58.66h58.67Zm-54.67-4h50.67v-50.66h-50.67Z"/><path fill="#fff" d="M719.24 277.46h54.66v54.66h-54.66Z"/><path d="M775.9 334.12h-58.66v-58.66h58.66Zm-54.66-4h50.66v-50.66h-50.66Z"/><path fill="#fff" d="M773.9 277.46h54.67v54.66H773.9Z"/><path d="M830.57 334.12H771.9v-58.66h58.67Zm-54.67-4h50.67v-50.66H775.9Z"/><path fill="#fff" d="M828.57 277.46h54.67v54.66h-54.67Z"/><path d="M885.24 334.12h-58.67v-58.66h58.67Zm-54.67-4h50.67v-50.66h-50.67Z"/><path fill="#fff" d="M883.24 277.46h54.66v54.66h-54.66Z"/><path d="M939.9 334.12h-58.66v-58.66h58.66Zm-54.66-4h50.66v-50.66h-50.66Z"/><path fill="#fff" d="M937.9 277.46h54.67v54.66H937.9Z"/><path d="M994.57 334.12H935.9v-58.66h58.67Zm-54.67-4h50.67v-50.66H939.9Z"/><path fill="#fff" d="M445.9 332.12h54.67v54.67H445.9Z"/><path d="M502.57 388.79H443.9v-58.67h58.67Zm-54.67-4h50.67v-50.67H447.9Z"/><path fill="#fff" d="M500.57 332.12h54.67v54.67h-54.67Z"/><path d="M557.24 388.79h-58.67v-58.67h58.67Zm-54.67-4h50.67v-50.67h-50.67Z"/><path fill="#fff" d="M555.24 332.12h54.66v54.67h-54.66Z"/><path d="M611.9 388.79h-58.66v-58.67h58.66Zm-54.66-4h50.66v-50.67h-50.66Z"/><path fill="#fff" d="M609.9 332.12h54.67v54.67H609.9Z"/><path d="M666.57 388.79H607.9v-58.67h58.67Zm-54.67-4h50.67v-50.67H611.9Z"/><path fill="#fff" d="M664.57 332.12h54.67v54.67h-54.67Z"/><path d="M721.24 388.79h-58.67v-58.67h58.67Zm-54.67-4h50.67v-50.67h-50.67Z"/><path fill="#fff" d="M719.24 332.12h54.66v54.67h-54.66Z"/><path d="M775.9 388.79h-58.66v-58.67h58.66Zm-54.66-4h50.66v-50.67h-50.66Z"/><path fill="#fff" d="M773.9 332.12h54.67v54.67H773.9Z"/><path d="M830.57 388.79H771.9v-58.67h58.67Zm-54.67-4h50.67v-50.67H775.9Z"/><path fill="#fff" d="M828.57 332.12h54.67v54.67h-54.67Z"/><path d="M885.24 388.79h-58.67v-58.67h58.67Zm-54.67-4h50.67v-50.67h-50.67Z"/><path fill="#fff" d="M883.24 332.12h54.66v54.67h-54.66Z"/><path d="M939.9 388.79h-58.66v-58.67h58.66Zm-54.66-4h50.66v-50.67h-50.66Z"/><path fill="#fff" d="M937.9 332.12h54.67v54.67H937.9Z"/><path d="M994.57 388.79H935.9v-58.67h58.67Zm-54.67-4h50.67v-50.67H939.9Z"/><path fill="#fff" d="M445.9 386.79h54.67v54.67H445.9Z"/><path d="M502.57 443.45H443.9V384.8h58.67Zm-54.67-4h50.67V388.8H447.9Z"/><path fill="#fff" d="M500.57 386.79h54.67v54.67h-54.67Z"/><path d="M557.24 443.45h-58.67V384.8h58.67Zm-54.67-4h50.67V388.8h-50.67Z"/><path fill="#fff" d="M555.24 386.79h54.66v54.67h-54.66Z"/><path d="M611.9 443.45h-58.66V384.8h58.66Zm-54.66-4h50.66V388.8h-50.66Z"/><path fill="#fff" d="M609.9 386.79h54.67v54.67H609.9Z"/><path d="M666.57 443.45H607.9V384.8h58.67Zm-54.67-4h50.67V388.8H611.9Z"/><path fill="#fff" d="M664.57 386.79h54.67v54.67h-54.67Z"/><path d="M721.24 443.45h-58.67V384.8h58.67Zm-54.67-4h50.67V388.8h-50.67Z"/><path fill="#fff" d="M719.24 386.79h54.66v54.67h-54.66Z"/><path d="M775.9 443.45h-58.66V384.8h58.66Zm-54.66-4h50.66V388.8h-50.66Z"/><path fill="#fff" d="M773.9 386.79h54.67v54.67H773.9Z"/><path d="M830.57 443.45H771.9V384.8h58.67Zm-54.67-4h50.67V388.8H775.9Z"/><path fill="#fff" d="M828.57 386.79h54.67v54.67h-54.67Z"/><path d="M885.24 443.45h-58.67V384.8h58.67Zm-54.67-4h50.67V388.8h-50.67Z"/><path fill="#fff" d="M883.24 386.79h54.66v54.67h-54.66Z"/><path d="M939.9 443.45h-58.66V384.8h58.66Zm-54.66-4h50.66V388.8h-50.66Z"/><path fill="#fff" d="M937.9 386.79h54.67v54.67H937.9Z"/><path d="M994.57 443.45H935.9V384.8h58.67Zm-54.67-4h50.67V388.8H939.9Z"/><path fill="#fff" d="M445.9 441.45h54.67v54.67H445.9Z"/><path d="M502.57 498.12H443.9v-58.67h58.67Zm-54.67-4h50.67v-50.67H447.9Z"/><path fill="#fff" d="M500.57 441.45h54.67v54.67h-54.67Z"/><path d="M557.24 498.12h-58.67v-58.67h58.67Zm-54.67-4h50.67v-50.67h-50.67Z"/><path fill="#fff" d="M555.24 441.45h54.66v54.67h-54.66Z"/><path d="M611.9 498.12h-58.66v-58.67h58.66Zm-54.66-4h50.66v-50.67h-50.66Z"/><path fill="#fff" d="M609.9 441.45h54.67v54.67H609.9Z"/><path d="M666.57 498.12H607.9v-58.67h58.67Zm-54.67-4h50.67v-50.67H611.9Z"/><path fill="#fff" d="M664.57 441.45h54.67v54.67h-54.67Z"/><path d="M721.24 498.12h-58.67v-58.67h58.67Zm-54.67-4h50.67v-50.67h-50.67Z"/><path fill="#fff" d="M719.24 441.45h54.66v54.67h-54.66Z"/><path d="M775.9 498.12h-58.66v-58.67h58.66Zm-54.66-4h50.66v-50.67h-50.66Z"/><path fill="#fff" d="M773.9 441.45h54.67v54.67H773.9Z"/><path d="M830.57 498.12H771.9v-58.67h58.67Zm-54.67-4h50.67v-50.67H775.9Z"/><path fill="#2e9aff" d="M828.57 441.45h54.67v54.67h-54.67Z"/><path d="M885.24 498.12h-58.67v-58.67h58.67Zm-54.67-4h50.67v-50.67h-50.67Z"/><path fill="#2e9aff" d="M883.24 441.45h54.66v54.67h-54.66Z"/><path d="M939.9 498.12h-58.66v-58.67h58.66Zm-54.66-4h50.66v-50.67h-50.66Z"/><path fill="#fff" d="M937.9 441.45h54.67v54.67H937.9Z"/><path d="M994.57 498.12H935.9v-58.67h58.67Zm-54.67-4h50.67v-50.67H939.9Z"/><path fill="#fff" d="M445.9 496.12h54.67v54.67H445.9Z"/><path d="M502.57 552.79H443.9v-58.67h58.67Zm-54.67-4h50.67v-50.67H447.9Z"/><path fill="#2e9aff" d="M500.57 496.12h54.67v54.67h-54.67Z"/><path d="M557.24 552.79h-58.67v-58.67h58.67Zm-54.67-4h50.67v-50.67h-50.67Z"/><path fill="#2e9aff" d="M555.24 496.12h54.66v54.67h-54.66Z"/><path d="M611.9 552.79h-58.66v-58.67h58.66Zm-54.66-4h50.66v-50.67h-50.66Z"/><path fill="#fff" d="M609.9 496.12h54.67v54.67H609.9Z"/><path d="M666.57 552.79H607.9v-58.67h58.67Zm-54.67-4h50.67v-50.67H611.9Z"/><path fill="#fff" d="M664.57 496.12h54.67v54.67h-54.67Z"/><path d="M721.24 552.79h-58.67v-58.67h58.67Zm-54.67-4h50.67v-50.67h-50.67Z"/><path fill="#fff" d="M719.24 496.12h54.66v54.67h-54.66Z"/><path d="M775.9 552.79h-58.66v-58.67h58.66Zm-54.66-4h50.66v-50.67h-50.66Z"/><path fill="#fff" d="M773.9 496.12h54.67v54.67H773.9Z"/><path d="M830.57 552.79H771.9v-58.67h58.67Zm-54.67-4h50.67v-50.67H775.9Z"/><path fill="#fff" d="M828.57 496.12h54.67v54.67h-54.67Z"/><path d="M885.24 552.79h-58.67v-58.67h58.67Zm-54.67-4h50.67v-50.67h-50.67Z"/><path fill="#2e9aff" d="M883.24 496.12h54.66v54.67h-54.66Z"/><path d="M939.9 552.79h-58.66v-58.67h58.66Zm-54.66-4h50.66v-50.67h-50.66Z"/><path fill="#2e9aff" d="M937.9 496.12h54.67v54.67H937.9Z"/><path d="M994.57 552.79H935.9v-58.67h58.67Zm-54.67-4h50.67v-50.67H939.9Z"/><g><path fill="#fff" d="M445.9 550.79h54.67v54.66H445.9Z"/><path d="M502.57 607.45H443.9V548.8h58.67Zm-54.67-4h50.67V552.8H447.9Z"/><path fill="#fff" d="M500.57 550.79h54.67v54.66h-54.67Z"/><path d="M557.24 607.45h-58.67V548.8h58.67Zm-54.67-4h50.67V552.8h-50.67Z"/><path fill="#2e9aff" d="M555.24 550.79h54.66v54.66h-54.66Z"/><path d="M611.9 607.45h-58.66V548.8h58.66Zm-54.66-4h50.66V552.8h-50.66Z"/><path fill="#fff" d="M609.9 550.79h54.67v54.66H609.9Z"/><path d="M666.57 607.45H607.9V548.8h58.67Zm-54.67-4h50.67V552.8H611.9Z"/><path fill="#fff" d="M664.57 550.79h54.67v54.66h-54.67Z"/><path d="M721.24 607.45h-58.67V548.8h58.67Zm-54.67-4h50.67V552.8h-50.67Z"/><path fill="#fff" d="M719.24 550.79h54.66v54.66h-54.66Z"/><path d="M775.9 607.45h-58.66V548.8h58.66Zm-54.66-4h50.66V552.8h-50.66Z"/><path fill="#fff" d="M773.9 550.79h54.67v54.66H773.9Z"/><path d="M830.57 607.45H771.9V548.8h58.67Zm-54.67-4h50.67V552.8H775.9Z"/><path fill="#fff" d="M828.57 550.79h54.67v54.66h-54.67Z"/><path d="M885.24 607.45h-58.67V548.8h58.67Zm-54.67-4h50.67V552.8h-50.67Z"/><path fill="#fff" d="M883.24 550.79h54.66v54.66h-54.66Z"/><path d="M939.9 607.45h-58.66V548.8h58.66Zm-54.66-4h50.66V552.8h-50.66Z"/><path fill="#fff" d="M937.9 550.79h54.67v54.66H937.9Z"/><path d="M994.57 607.45H935.9V548.8h58.67Zm-54.67-4h50.67V552.8H939.9Z"/></g><g><path fill="#fff" d="M445.9 605.45h54.67v54.67H445.9Z"/><path d="M502.57 662.12H443.9v-58.67h58.67Zm-54.67-4h50.67v-50.67H447.9Z"/><path fill="#fff" d="M500.57 605.45h54.67v54.67h-54.67Z"/><path d="M557.24 662.12h-58.67v-58.67h58.67Zm-54.67-4h50.67v-50.67h-50.67Z"/><path fill="#2e9aff" d="M555.24 605.45h54.66v54.67h-54.66Z"/><path d="M611.9 662.12h-58.66v-58.67h58.66Zm-54.66-4h50.66v-50.67h-50.66Z"/><path fill="#fff" d="M609.9 605.45h54.67v54.67H609.9Z"/><path d="M666.57 662.12H607.9v-58.67h58.67Zm-54.67-4h50.67v-50.67H611.9Z"/><path fill="#fff" d="M664.57 605.45h54.67v54.67h-54.67Z"/><path d="M721.24 662.12h-58.67v-58.67h58.67Zm-54.67-4h50.67v-50.67h-50.67Z"/><path fill="#fff" d="M719.24 605.45h54.66v54.67h-54.66Z"/><path d="M775.9 662.12h-58.66v-58.67h58.66Zm-54.66-4h50.66v-50.67h-50.66Z"/><path fill="#2e9aff" d="M773.9 605.45h54.67v54.67H773.9Z"/><path d="M830.57 662.12H771.9v-58.67h58.67Zm-54.67-4h50.67v-50.67H775.9Z"/><path fill="#2e9aff" d="M828.57 605.45h54.67v54.67h-54.67Z"/><path d="M885.24 662.12h-58.67v-58.67h58.67Zm-54.67-4h50.67v-50.67h-50.67Z"/><path fill="#2e9aff" d="M883.24 605.45h54.66v54.67h-54.66Z"/><path d="M939.9 662.12h-58.66v-58.67h58.66Zm-54.66-4h50.66v-50.67h-50.66Z"/><path fill="#2e9aff" d="M937.9 605.45h54.67v54.67H937.9Z"/><path d="M994.57 662.12H935.9v-58.67h58.67Zm-54.67-4h50.67v-50.67H939.9Z"/></g><g><path fill="#2e9aff" d="M445.9 660.12h54.67v54.66H445.9Z"/><path d="M502.57 716.78H443.9v-58.66h58.67Zm-54.67-4h50.67v-50.66H447.9Z"/><path fill="#fff" d="M500.57 660.12h54.67v54.66h-54.67Z"/><path d="M557.24 716.78h-58.67v-58.66h58.67Zm-54.67-4h50.67v-50.66h-50.67Z"/><path fill="#2e9aff" d="M555.24 660.12h54.66v54.66h-54.66Z"/><path d="M611.9 716.78h-58.66v-58.66h58.66Zm-54.66-4h50.66v-50.66h-50.66Z"/><path fill="#fff" d="M609.9 660.12h54.67v54.66H609.9Z"/><path d="M666.57 716.78H607.9v-58.66h58.67Zm-54.67-4h50.67v-50.66H611.9Z"/><path fill="#2e9aff" d="M664.57 660.12h54.67v54.66h-54.67Z"/><path d="M721.24 716.78h-58.67v-58.66h58.67Zm-54.67-4h50.67v-50.66h-50.67Z"/><path fill="#2e9aff" d="M719.24 660.12h54.66v54.66h-54.66Z"/><path d="M775.9 716.78h-58.66v-58.66h58.66Zm-54.66-4h50.66v-50.66h-50.66Z"/><path fill="#2e9aff" d="M773.9 660.12h54.67v54.66H773.9Z"/><path d="M830.57 716.78H771.9v-58.66h58.67Zm-54.67-4h50.67v-50.66H775.9Z"/><path fill="#2e9aff" d="M828.57 660.12h54.67v54.66h-54.67Z"/><path d="M885.24 716.78h-58.67v-58.66h58.67Zm-54.67-4h50.67v-50.66h-50.67Z"/><path fill="#2e9aff" d="M883.24 660.12h54.66v54.66h-54.66Z"/><path d="M939.9 716.78h-58.66v-58.66h58.66Zm-54.66-4h50.66v-50.66h-50.66Z"/><path fill="#2e9aff" d="M937.9 660.12h54.67v54.66H937.9Z"/><path d="M994.57 716.78H935.9v-58.66h58.67Zm-54.67-4h50.67v-50.66H939.9Z"/></g><g><path fill="#2e9aff" d="M445.9 714.78h54.67v54.67H445.9Z"/><path d="M502.57 771.45H443.9v-58.67h58.67Zm-54.67-4h50.67v-50.67H447.9Z"/><path fill="#2e9aff" d="M500.57 714.78h54.67v54.67h-54.67Z"/><path d="M557.24 771.45h-58.67v-58.67h58.67Zm-54.67-4h50.67v-50.67h-50.67Z"/><path fill="#2e9aff" d="M555.24 714.78h54.66v54.67h-54.66Z"/><path d="M611.9 771.45h-58.66v-58.67h58.66Zm-54.66-4h50.66v-50.67h-50.66Z"/><path fill="#2e9aff" d="M609.9 714.78h54.67v54.67H609.9Z"/><path d="M666.57 771.45H607.9v-58.67h58.67Zm-54.67-4h50.67v-50.67H611.9Z"/><path fill="#2e9aff" d="M664.57 714.78h54.67v54.67h-54.67Z"/><path d="M721.24 771.45h-58.67v-58.67h58.67Zm-54.67-4h50.67v-50.67h-50.67Z"/><path fill="#2e9aff" d="M719.24 714.78h54.66v54.67h-54.66Z"/><path d="M775.9 771.45h-58.66v-58.67h58.66Zm-54.66-4h50.66v-50.67h-50.66Z"/><path fill="#2e9aff" d="M773.9 714.78h54.67v54.67H773.9Z"/><path d="M830.57 771.45H771.9v-58.67h58.67Zm-54.67-4h50.67v-50.67H775.9Z"/><path fill="#2e9aff" d="M828.57 714.78h54.67v54.67h-54.67Z"/><path d="M885.24 771.45h-58.67v-58.67h58.67Zm-54.67-4h50.67v-50.67h-50.67Z"/><path fill="#2e9aff" d="M883.24 714.78h54.66v54.67h-54.66Z"/><path d="M939.9 771.45h-58.66v-58.67h58.66Zm-54.66-4h50.66v-50.67h-50.66Z"/><path fill="#fff" d="M937.9 714.78h54.67v54.67H937.9Z"/><path d="M994.57 771.45H935.9v-58.67h58.67Zm-54.67-4h50.67v-50.67H939.9Z"/></g><g><path fill="#2e9aff" d="M445.9 769.45h54.67v54.67H445.9Z"/><path d="M502.57 826.12H443.9v-58.67h58.67Zm-54.67-4h50.67v-50.67H447.9Z"/><path fill="#fff" d="M500.57 769.45h54.67v54.67h-54.67Z"/><path d="M557.24 826.12h-58.67v-58.67h58.67Zm-54.67-4h50.67v-50.67h-50.67Z"/><path fill="#2e9aff" d="M555.24 769.45h54.66v54.67h-54.66Z"/><path d="M611.9 826.12h-58.66v-58.67h58.66Zm-54.66-4h50.66v-50.67h-50.66Z"/><path fill="#2e9aff" d="M609.9 769.45h54.67v54.67H609.9Z"/><path d="M666.57 826.12H607.9v-58.67h58.67Zm-54.67-4h50.67v-50.67H611.9Z"/><path fill="#2e9aff" d="M664.57 769.45h54.67v54.67h-54.67Z"/><path d="M721.24 826.12h-58.67v-58.67h58.67Zm-54.67-4h50.67v-50.67h-50.67Z"/><path fill="#2e9aff" d="M719.24 769.45h54.66v54.67h-54.66Z"/><path d="M775.9 826.12h-58.66v-58.67h58.66Zm-54.66-4h50.66v-50.67h-50.66Z"/><path fill="#2e9aff" d="M773.9 769.45h54.67v54.67H773.9Z"/><path d="M830.57 826.12H771.9v-58.67h58.67Zm-54.67-4h50.67v-50.67H775.9Z"/><path fill="#2e9aff" d="M828.57 769.45h54.67v54.67h-54.67Z"/><path d="M885.24 826.12h-58.67v-58.67h58.67Zm-54.67-4h50.67v-50.67h-50.67Z"/><path fill="#2e9aff" d="M883.24 769.45h54.66v54.67h-54.66Z"/><path d="M939.9 826.12h-58.66v-58.67h58.66Zm-54.66-4h50.66v-50.67h-50.66Z"/><path fill="#2e9aff" d="M937.9 769.45h54.67v54.67H937.9Z"/><path d="M994.57 826.12H935.9v-58.67h58.67Zm-54.67-4h50.67v-50.67H939.9Z"/></g><g><path fill="#2e9aff" d="M664.57 113.46h54.67v54.67h-54.67Z"/><path d="M721.24 170.13h-58.67v-58.67h58.67Zm-54.67-4h50.67v-50.67h-50.67Z"/></g><g><path fill="#2e9aff" d="M719.24 113.46h54.66v54.67h-54.66Z"/><path d="M775.9 170.13h-58.66v-58.67h58.66Zm-54.66-4h50.66v-50.67h-50.66Z"/></g><g><path fill="#2e9aff" d="M664.57 168.13h54.67v54.66h-54.67Z"/><path d="M721.24 224.8h-58.67v-58.67h58.67Zm-54.67-4h50.67v-50.67h-50.67Z"/></g><g><path fill="#2e9aff" d="M719.24 168.13h54.66v54.66h-54.66Z"/><path d="M775.9 224.8h-58.66v-58.67h58.66Zm-54.66-4h50.66v-50.67h-50.66Z"/></g><g><path d="M249.01 127.9c0 61.16-49.58 110.74-110.74 110.74S27.53 189.06 27.53 127.9 77.11 17.16 138.27 17.16 249.01 66.74 249.01 127.9Z"/><path fill="#2e9aff" d="M223.48 115.13c0 61.16-49.58 110.74-110.74 110.74S2 176.29 2 115.13 51.58 4.39 112.74 4.39s110.74 49.58 110.74 110.74Z"/><path d="M112.74 227.87C50.57 227.87 0 177.29 0 115.13S50.57 2.39 112.74 2.39c62.16 0 112.74 50.58 112.74 112.74S174.9 227.87 112.74 227.87Zm0-221.48C52.78 6.39 4 55.17 4 115.13c0 59.96 48.78 108.74 108.74 108.74 59.96 0 108.74-48.78 108.74-108.74 0-59.96-48.78-108.74-108.74-108.74Z"/><path fill="#fff" d="M177.5 100.46c-.9 0-1.78.06-2.65.16a67.15 67.15 0 0 0-128.95 0 23.3 23.3 0 1 0 3.04 45.76 67.13 67.13 0 0 0 122.87 0 23.3 23.3 0 1 0 5.68-45.91Z"/><path d="M110.38 188.43a69.18 69.18 0 0 1-62.6-39.76 25.34 25.34 0 0 1-29.84-24.9 25.34 25.34 0 0 1 26.51-25.28 69.46 69.46 0 0 1 65.93-48.3 69.46 69.46 0 0 1 65.92 48.3l1.2-.03a25.34 25.34 0 0 1 25.3 25.31 25.34 25.34 0 0 1-29.83 24.9 69.19 69.19 0 0 1-62.6 39.76Zm-60.29-44.4.68 1.54a65.18 65.18 0 0 0 59.6 38.86c25.8 0 49.2-15.25 59.61-38.86l.68-1.55 1.64.41a21.33 21.33 0 0 0 26.5-20.66 21.33 21.33 0 0 0-23.72-21.17l-1.68.2-.47-1.63a65.42 65.42 0 0 0-62.56-46.98 65.42 65.42 0 0 0-62.55 46.98l-.47 1.62-1.68-.19a21.33 21.33 0 0 0-23.72 21.17 21.33 21.33 0 0 0 26.5 20.66Z"/><path fill="none" d="m31.45 117.6 14.3 15.54"/><path d="M45.74 135.14a2 2 0 0 1-1.47-.64l-14.3-15.54a2 2 0 1 1 2.95-2.7l14.3 15.53a2 2 0 0 1-1.48 3.35Z"/><path fill="none" d="m186.52 117.6-14.3 15.54"/><path d="M172.22 135.14a2 2 0 0 1-1.47-3.35l14.3-15.54a2 2 0 0 1 2.94 2.7l-14.3 15.55a2 2 0 0 1-1.47.64Z"/><path fill="none" d="M109.91 126.5v12.9"/><path d="M109.91 141.4a2 2 0 0 1-2-2v-12.9a2 2 0 0 1 4 0v12.9a2 2 0 0 1-2 2Z"/><path fill="#2e9aff" d="M132.6 146.81a22.68 22.68 0 0 1-45.38 0Z"/><path d="M69.84 141.4a2 2 0 0 1-.88-3.8l19.88-9.8-19.97-11.03a2 2 0 0 1 1.94-3.5l23.31 12.88a2 2 0 0 1-.08 3.55l-23.31 11.5a2 2 0 0 1-.89.2Zm80.09 0c-.3 0-.6-.07-.88-.2l-23.32-11.5a2 2 0 0 1-.08-3.55l23.31-12.89a2 2 0 1 1 1.94 3.5l-19.97 11.04 19.89 9.8a2 2 0 0 1-.9 3.8Z"/></g><g><path d="M110.91 54.1c-.12-.63-.24-1.27-.33-1.9a67.72 67.72 0 0 0-65.14 50.43A59.82 59.82 0 0 0 110.9 54.1Zm.34-1.9c-.1.63-.22 1.27-.34 1.9a59.82 59.82 0 0 0 65.47 48.52 67.72 67.72 0 0 0-65.13-50.43Zm-.67-.14c.1.64.21 1.26.33 1.9.12-.64.24-1.26.33-1.9h-.66Z"/></g></svg>