<svg xmlns="http://www.w3.org/2000/svg" viewBox="0 0 1498 850" xml:space="preserve"><path d="M1135.34 709.67h362.67V850h-362.67z"/><path fill="#FFF" d="M1107.26 703.4h362.67v118.28h-362.67z"/><path d="M1471.92 823.68h-366.66V701.4h366.66v122.28zm-362.66-4h358.66V705.4h-358.66v114.28z"/><path d="M1143.81 746.49h4.51v4.05l.25.09a11.96 11.96 0 0 0 4.47.94c1.52 0 2.71-.31 3.56-.92a2.9 2.9 0 0 0 1.27-2.48c0-.93-.35-1.68-1.04-2.26a10.6 10.6 0 0 0-2.59-1.51 60.8 60.8 0 0 0-3.36-1.31 16.02 16.02 0 0 1-3.36-1.66 9.29 9.29 0 0 1-2.58-2.52 6.8 6.8 0 0 1-1.05-3.94 7.87 7.87 0 0 1 2.73-6.02 9.32 9.32 0 0 1 3.1-1.73 12.4 12.4 0 0 1 4.01-.61c1.67 0 3.31.15 4.92.45 1.62.3 2.9.71 3.86 1.23v8.32H1158v-4.55a.73.73 0 0 1-.25-.04 15.44 15.44 0 0 0-4.01-.54 5.4 5.4 0 0 0-3.1.78 2.42 2.42 0 0 0-1.13 2.1c0 .9.35 1.63 1.05 2.2.7.58 1.56 1.1 2.58 1.56 1.02.47 2.15.93 3.36 1.4a17.7 17.7 0 0 1 3.36 1.7 9.3 9.3 0 0 1 2.59 2.52 6.57 6.57 0 0 1 1.04 3.8c0 1.48-.27 2.77-.82 3.88-.54 1.1-1.3 2.04-2.3 2.79s-2.14 1.3-3.48 1.68c-1.34.37-2.78.55-4.34.55a16.04 16.04 0 0 1-5.35-.86c-.76-.24-1.42-.5-2-.78a25 25 0 0 1-1.39-.7v-7.62zm44.32 7.41a11.71 11.71 0 0 1-3.94 1.9 17 17 0 0 1-4.71.64c-1.78 0-3.36-.26-4.74-.77a9.66 9.66 0 0 1-3.48-2.2 9.3 9.3 0 0 1-2.15-3.42c-.5-1.34-.74-2.81-.74-4.42 0-1.73.29-3.26.86-4.6a9.63 9.63 0 0 1 2.4-3.4 10.34 10.34 0 0 1 3.63-2.1c1.4-.48 2.9-.72 4.55-.72 1.53 0 2.96.17 4.3.53 1.34.35 2.37.7 3.08 1.02v7.22h-4.51v-3.77c-.85-.2-1.7-.29-2.54-.29-.77 0-1.53.12-2.28.35a5.57 5.57 0 0 0-3.44 3 6.28 6.28 0 0 0-.56 2.76c0 .87.15 1.67.45 2.41a5.76 5.76 0 0 0 3.3 3.22c.8.31 1.7.47 2.69.47 1.56 0 2.83-.22 3.83-.65 1-.44 1.74-.82 2.24-1.15l1.76 3.97zm3.65-8.28c0-1.72.26-3.25.78-4.59a9.37 9.37 0 0 1 2.21-3.4 9.46 9.46 0 0 1 3.42-2.1c1.33-.48 2.81-.72 4.45-.72 1.73 0 3.26.26 4.61.77a9.18 9.18 0 0 1 5.53 5.61c.49 1.35.73 2.82.73 4.43 0 1.72-.26 3.25-.78 4.6a9.39 9.39 0 0 1-2.22 3.4 9.38 9.38 0 0 1-3.42 2.1c-1.32.48-2.8.72-4.45.72-1.72 0-3.26-.26-4.6-.78a9.18 9.18 0 0 1-5.54-5.61 13.08 13.08 0 0 1-.72-4.43zm5.5 0c0 .9.12 1.74.36 2.5.25.77.6 1.44 1.07 2.01a4.78 4.78 0 0 0 3.93 1.8 5.2 5.2 0 0 0 3.88-1.51c1-1.01 1.5-2.6 1.5-4.8 0-1.88-.47-3.4-1.4-4.57a4.8 4.8 0 0 0-3.98-1.74c-.77 0-1.48.12-2.13.35-.66.23-1.22.61-1.7 1.13a5.52 5.52 0 0 0-1.13 1.97c-.27.79-.4 1.74-.4 2.86zm19.26 5.74h5.09V739.9h-5.09v-4.51h9.23l.61 2.7h.17c.76-.9 1.64-1.65 2.62-2.25.98-.6 2.13-.9 3.44-.9 1.64 0 2.94.6 3.88 1.8.94 1.2 1.41 3.21 1.41 6.02h-4.8c0-.98-.14-1.7-.43-2.15-.28-.45-.74-.67-1.37-.67a4 4 0 0 0-2.64.82 8.26 8.26 0 0 0-1.7 1.88v8.73h8.9v4.51h-19.32v-4.5zm44.9 2.34c-.36.32-.81.65-1.37.96a15.29 15.29 0 0 1-7.32 1.78c-1.75 0-3.32-.24-4.7-.73a9.41 9.41 0 0 1-3.5-2.15 9.39 9.39 0 0 1-2.2-3.4 12.8 12.8 0 0 1-.75-4.53c0-1.8.28-3.38.86-4.73a9.45 9.45 0 0 1 5.86-5.41 13.53 13.53 0 0 1 7.56-.27 8.7 8.7 0 0 1 3.06 1.41 7.54 7.54 0 0 1 2.27 2.69c.6 1.12.89 2.54.89 4.26 0 1.18-.14 2.45-.41 3.81h-14.76a4.38 4.38 0 0 0 1.9 3.7c.57.37 1.2.65 1.93.83.73.18 1.5.27 2.32.27 1.64 0 2.98-.2 4.04-.58a8.54 8.54 0 0 0 2.56-1.39l1.76 3.48zm-8.86-14.63c-.7 0-1.38.1-2 .29-.64.2-1.2.48-1.7.85-.52.38-.93.85-1.26 1.4a4.3 4.3 0 0 0-.57 1.88h10.08c0-1.36-.37-2.44-1.13-3.23-.75-.8-1.89-1.2-3.42-1.2zm-109.88 43.06c0-2.48.26-4.66.78-6.54a13.49 13.49 0 0 1 2.2-4.65 9.16 9.16 0 0 1 3.4-2.76c1.32-.62 2.79-.93 4.4-.93 3.46 0 6.12 1.21 7.99 3.63 1.86 2.42 2.8 6.17 2.8 11.25 0 2.52-.27 4.7-.79 6.58a13.67 13.67 0 0 1-2.2 4.67 9.02 9.02 0 0 1-3.41 2.79c-1.33.61-2.8.92-4.43.92-3.48 0-6.14-1.28-7.98-3.83-1.84-2.56-2.76-6.27-2.76-11.13zm5.33 0a30.83 30.83 0 0 0 .08 2.3l9.93-9.15c-.82-2.34-2.35-3.52-4.6-3.52-1.73 0-3.07.84-4 2.52-.94 1.68-1.4 4.3-1.4 7.85zm10.9 0a40.86 40.86 0 0 0-.07-2.42l-9.97 9.14c.84 2.49 2.37 3.73 4.6 3.73 1.73 0 3.08-.83 4.02-2.5.95-1.67 1.43-4.32 1.43-7.95zm29.2 5.49a9.15 9.15 0 0 1-2.83 6.72 9.63 9.63 0 0 1-3.13 2.01c-1.22.5-2.53.74-3.92.74a11.7 11.7 0 0 1-4-.68 9.08 9.08 0 0 1-5.47-5.43 12.68 12.68 0 0 1-.82-4.75c0-2.7.47-5.17 1.41-7.38a20.32 20.32 0 0 1 3.63-5.76 18.89 18.89 0 0 1 4.96-3.93c1.83-1 3.65-1.63 5.46-1.9l1.18 4.21a16 16 0 0 0-4.06 1.34 14.9 14.9 0 0 0-3.36 2.23c-.98.87-1.8 1.84-2.48 2.91a10.26 10.26 0 0 0-1.37 3.32 6.3 6.3 0 0 1 2.46-1.74 9.77 9.77 0 0 1 7.05-.12c1.07.39 1.99.96 2.77 1.72.78.75 1.4 1.67 1.85 2.76.44 1.1.67 2.34.67 3.73zm-5.17.2c0-1.47-.44-2.59-1.33-3.35a5.31 5.31 0 0 0-3.59-1.15 5.92 5.92 0 0 0-4.87 2.46c-.06.3-.1.64-.1 1l-.03.89c0 .65.11 1.28.33 1.88a4.51 4.51 0 0 0 2.5 2.64 5.25 5.25 0 0 0 3.94.04c.6-.23 1.13-.55 1.6-.96a4.58 4.58 0 0 0 1.55-3.44zm9.6-11.02c0-1.4.24-2.67.72-3.85a8.69 8.69 0 0 1 5.12-4.98c1.22-.48 2.58-.72 4.08-.72 1.53 0 2.93.23 4.18.7a8.72 8.72 0 0 1 5.33 5.47c.5 1.35.74 2.9.74 4.65 0 3.17-.4 5.9-1.23 8.2a16.99 16.99 0 0 1-3.3 5.73 14.27 14.27 0 0 1-4.82 3.52 19.06 19.06 0 0 1-5.74 1.56l-1.14-4.18c1.5-.19 2.86-.56 4.08-1.1a12.37 12.37 0 0 0 3.18-2.03 10.5 10.5 0 0 0 2.2-2.75 9.33 9.33 0 0 0 1.12-3.3 6.18 6.18 0 0 1-2.22 1.38c-.9.34-1.98.5-3.24.5h-.08a9.84 9.84 0 0 1-3.16-.53 8.54 8.54 0 0 1-5-4.4 8.52 8.52 0 0 1-.82-3.87zm5.16-.28a4.56 4.56 0 0 0 1.56 3.5c.47.4 1 .7 1.62.9a7.3 7.3 0 0 0 4.82-.23 4.3 4.3 0 0 0 1.8-1.3c.09-.58.13-1.12.13-1.64 0-.77-.11-1.52-.33-2.26s-.55-1.4-.98-1.97a4.84 4.84 0 0 0-3.9-1.88 4.7 4.7 0 0 0-3.36 1.29 4.73 4.73 0 0 0-1.36 3.59zm40.88 12h-4.92v8h-4.96v-8h-12.42v-3.64l13-17.26h4.38v16.64h4.92v4.26zm-9.88-13.36-7.13 9.1h7.13v-9.1zm12.38 6.97c0-2.48.26-4.66.78-6.54a13.47 13.47 0 0 1 2.2-4.65 9.16 9.16 0 0 1 3.4-2.76 10.2 10.2 0 0 1 4.4-.93c3.46 0 6.12 1.21 7.99 3.63 1.86 2.42 2.8 6.17 2.8 11.25 0 2.52-.27 4.7-.79 6.58a13.67 13.67 0 0 1-2.2 4.67 9.01 9.01 0 0 1-3.41 2.79c-1.33.61-2.8.92-4.43.92-3.48 0-6.14-1.28-7.98-3.83-1.84-2.56-2.76-6.27-2.76-11.13zm5.33 0a28.8 28.8 0 0 0 .08 2.3l9.93-9.15c-.81-2.34-2.35-3.52-4.6-3.52-1.73 0-3.07.84-4 2.52-.94 1.68-1.4 4.3-1.4 7.85zm10.9 0a37.89 37.89 0 0 0-.07-2.42l-9.97 9.14c.84 2.49 2.37 3.73 4.6 3.73 1.73 0 3.07-.83 4.02-2.5.95-1.67 1.43-4.32 1.43-7.95zm11.16 9.87h6.27v-17.9l-5.41 4.14-2.46-3.28 9.35-7.13h3.6v24.18h6.15v4.5h-17.5v-4.5zm163.64 7.01-25.47-12.45-24.7 13.9 3.98-28.06-20.86-19.18 27.93-4.88 11.8-25.77 13.28 25.04 28.17 3.26-19.73 20.36zM1135.34 491.2h362.67v140.33h-362.67z"/><path fill="#FFF" d="M1107.26 483.93h362.67v118.28h-362.67z"/><path d="M1471.92 604.2h-366.66V481.94h366.66v122.28zm-362.66-4h358.66V485.94h-358.66V600.2z"/><path d="M1158.12 520.8h5.08v11.69h-18.86V503.8h5.62v23.69h8.16v-6.68zm29.52 9.52a8.1 8.1 0 0 1-1.37.96 15.29 15.29 0 0 1-7.32 1.78 14 14 0 0 1-4.7-.74 9.41 9.41 0 0 1-3.5-2.15 9.4 9.4 0 0 1-2.2-3.4c-.5-1.32-.75-2.83-.75-4.53 0-1.8.28-3.38.86-4.73a9.45 9.45 0 0 1 5.86-5.4 13.56 13.56 0 0 1 7.57-.28 8.8 8.8 0 0 1 3.05 1.42 7.56 7.56 0 0 1 2.27 2.68c.6 1.12.89 2.55.89 4.27 0 1.17-.14 2.44-.41 3.8h-14.76a4.38 4.38 0 0 0 1.9 3.69c.56.39 1.2.67 1.93.85.73.18 1.5.26 2.32.26 1.64 0 2.98-.19 4.04-.57a8.56 8.56 0 0 0 2.56-1.4l1.76 3.49zm-8.86-14.63c-.7 0-1.38.1-2 .29-.64.2-1.2.48-1.7.85-.51.38-.93.85-1.26 1.4a4.3 4.3 0 0 0-.57 1.88h10.08a4.5 4.5 0 0 0-1.12-3.23c-.76-.8-1.9-1.2-3.43-1.2zm24.4 10.61h.29l4.59-14.3h5.74l-7.83 20.49h-5.7l-8.82-20.5h6.2l5.53 14.3zm33.66 4.02a8.1 8.1 0 0 1-1.37.96 15.27 15.27 0 0 1-7.32 1.78 14 14 0 0 1-4.7-.74 9.41 9.41 0 0 1-3.5-2.15 9.4 9.4 0 0 1-2.2-3.4c-.5-1.32-.75-2.83-.75-4.53 0-1.8.28-3.38.86-4.73a9.45 9.45 0 0 1 5.86-5.4 13.57 13.57 0 0 1 7.56-.28 9 9 0 0 1 3.06 1.42 7.56 7.56 0 0 1 2.27 2.68c.6 1.12.89 2.55.89 4.27 0 1.17-.14 2.44-.41 3.8h-14.76a4.37 4.37 0 0 0 1.9 3.69c.56.39 1.2.67 1.93.85.72.18 1.5.26 2.31.26 1.65 0 3-.19 4.04-.57a8.54 8.54 0 0 0 2.57-1.4l1.76 3.49zm-8.86-14.63c-.7 0-1.38.1-2 .29-.64.2-1.2.48-1.7.85-.52.38-.93.85-1.26 1.4a4.3 4.3 0 0 0-.57 1.88h10.08c0-1.36-.37-2.44-1.13-3.23-.75-.8-1.89-1.2-3.42-1.2zm15.13-11.89h8.73v18.93c0 2.1.26 3.56.78 4.39.52.82 1.35 1.23 2.5 1.23.85 0 1.55-.1 2.1-.27a7.95 7.95 0 0 0 1.63-.76l2.01 3.69c-.46.3-.93.58-1.4.84a8.85 8.85 0 0 1-3.17 1.06c-.61.1-1.3.15-2.07.15-2.57 0-4.5-.66-5.78-1.97-1.28-1.31-1.93-3.17-1.93-5.57V508.3h-3.4v-4.5zm-100.41 54.95c0-2.49.26-4.67.78-6.54a13.5 13.5 0 0 1 2.2-4.65 9.16 9.16 0 0 1 3.4-2.77 10.3 10.3 0 0 1 4.4-.92c3.46 0 6.12 1.2 7.99 3.63 1.86 2.41 2.8 6.17 2.8 11.25 0 2.51-.27 4.7-.79 6.57a13.7 13.7 0 0 1-2.2 4.68 9.02 9.02 0 0 1-3.41 2.78c-1.33.62-2.8.93-4.43.93-3.48 0-6.14-1.28-7.98-3.84-1.84-2.55-2.76-6.26-2.76-11.12zm5.33 0a30.95 30.95 0 0 0 .08 2.3l9.93-9.15c-.82-2.35-2.35-3.52-4.6-3.52-1.73 0-3.07.84-4 2.52-.94 1.68-1.4 4.3-1.4 7.85zm10.9 0a41.18 41.18 0 0 0-.07-2.42l-9.97 9.14c.84 2.49 2.37 3.73 4.6 3.73 1.73 0 3.08-.84 4.02-2.5.95-1.67 1.43-4.32 1.43-7.95zm11.17 9.87h6.26v-17.9l-5.4 4.13-2.47-3.27 9.35-7.14h3.6v24.18h6.16v4.51h-17.51v-4.5zm30.41.58c.9 0 1.73-.12 2.48-.35.75-.23 1.4-.56 1.93-.98.53-.42.95-.91 1.25-1.47.3-.56.45-1.16.45-1.81 0-.82-.17-1.5-.51-2.06a3.7 3.7 0 0 0-1.42-1.33 6.77 6.77 0 0 0-2.17-.7c-.85-.13-1.76-.2-2.75-.2h-2.3v-2.94l6.9-8.4h-10.38v-4.52h16.73v3.73l-7.21 8.24h.94c.95 0 1.88.16 2.79.5a6.89 6.89 0 0 1 4.08 3.93c.42.98.63 2.11.63 3.4 0 1.55-.32 2.92-.96 4.1a9.38 9.38 0 0 1-2.54 2.97c-1.06.8-2.27 1.4-3.63 1.8-1.37.4-2.78.6-4.23.6-1.23 0-2.46-.11-3.69-.33a17.94 17.94 0 0 1-3.56-1.03l1.43-4.42c.25.13.58.27 1 .4a24.11 24.11 0 0 0 3.09.74c.55.09 1.1.13 1.65.13zm254.26-28.1-37.17-37.16-.11 17.33h-36.51v40.09h36.27l-.1 17.34zM1135.34 17h362.67v258.2h-362.67z"/><path fill="#FFF" d="M1107.26 2h362.67v244.09h-362.67z"/><path d="M1471.92 248.1h-366.66V0h366.66v248.1zm-362.66-4h358.66V4h-358.66v240.1z"/><path fill="#2E9AFF" d="M1174.81 89.03h54.67v54.64h-54.67z"/><path fill="#FFF" d="M1231.48 145.67h-58.67V87.03h58.67v58.64zm-54.67-4h50.67V91.03h-50.67v50.64z"/><path fill="#2E9AFF" d="M1229.48 89.03h54.67v54.64h-54.67z"/><path fill="#FFF" d="M1286.14 145.67h-58.66V87.03h58.67v58.64zm-54.66-4h50.67V91.03h-50.67v50.64z"/><path fill="#2E9AFF" d="M1284.14 89.03h54.67v54.64h-54.67z"/><path fill="#FFF" d="M1340.81 145.67h-58.67V87.03h58.67v58.64zm-54.66-4h50.66V91.03h-50.67v50.64z"/><path fill="#2E9AFF" d="M1338.81 89.03h54.67v54.64h-54.67z"/><path fill="#FFF" d="M1395.48 145.67h-58.67V87.03h58.67v58.64zm-54.67-4h50.67V91.03h-50.67v50.64z"/><path d="M1393.48 174.02h23.98v23.97h-23.98z"/><path fill="#FFF" d="M1419.46 200h-27.98v-27.98h27.98V200zm-23.98-4h19.98v-19.98h-19.98v19.97z"/><path d="M1417.46 174.02h23.98v23.97h-23.98z"/><path fill="#FFF" d="M1443.45 200h-27.99v-27.98h27.99V200zm-23.99-4h19.99v-19.98h-19.99v19.97z"/><path d="M1393.48 197.99h23.98v23.97h-23.98z"/><path fill="#FFF" d="M1419.46 223.97h-27.98V196h27.98v27.97zm-23.98-4h19.98v-19.98h-19.98v19.98z"/><path d="M1417.46 197.99h23.98v23.97h-23.98z"/><path fill="#FFF" d="M1443.45 223.97h-27.99V196h27.99v27.97zm-23.99-4h19.99v-19.98h-19.99v19.98z"/><path d="M1147.73 39.77h-.2l.24 3.4v13.57h-5.33V28.05h4.92l9.92 17.54h.2l-.36-3.44v-14.1h5.33v28.69h-4.92l-9.8-16.97zm38.91 14.8c-.36.32-.81.65-1.37.96a15.29 15.29 0 0 1-7.32 1.78c-1.75 0-3.32-.24-4.7-.73a9.41 9.41 0 0 1-3.5-2.16 9.4 9.4 0 0 1-2.2-3.4c-.5-1.32-.75-2.83-.75-4.52 0-1.8.28-3.39.86-4.74a9.44 9.44 0 0 1 5.86-5.4 13.53 13.53 0 0 1 7.57-.27 8.8 8.8 0 0 1 3.05 1.41 7.56 7.56 0 0 1 2.27 2.68c.6 1.12.89 2.55.89 4.27 0 1.17-.14 2.44-.41 3.8h-14.76a4.39 4.39 0 0 0 1.9 3.69c.56.39 1.2.67 1.93.85.73.18 1.5.26 2.32.26 1.64 0 2.98-.19 4.04-.57s1.9-.85 2.56-1.4l1.76 3.49zm-8.86-14.63c-.7 0-1.38.1-2 .29-.64.2-1.2.48-1.7.85-.52.38-.93.85-1.26 1.4a4.3 4.3 0 0 0-.57 1.88h10.08a4.5 4.5 0 0 0-1.12-3.23c-.76-.8-1.9-1.2-3.43-1.2zm20.22 6.22-7.14-9.91h6.35l4.64 6.84 4.84-6.84h5.78l-7.02 9.83 7.43 10.66h-6.2l-5.2-7.54-5.29 7.54h-5.82l7.63-10.58zm20.7-5.4h-4.06v-4.51h4.06v-4.67l5.33-1.52v6.19h10.74v4.5h-10.74v5.87c0 2.1.4 3.62 1.19 4.56a4.1 4.1 0 0 0 3.32 1.42 7.07 7.07 0 0 0 3.63-.95 8.8 8.8 0 0 0 1.3-.9l1.1-.9 2.46 3.69a7.88 7.88 0 0 1-1.75 1.5 14.46 14.46 0 0 1-4.77 1.98c-.88.2-1.74.29-2.59.29-3.06 0-5.36-.86-6.9-2.56-1.55-1.71-2.32-4.42-2.32-8.14v-5.86zm-65.73 163.74a4.91 4.91 0 0 0-1.05-.3 9.3 9.3 0 0 0-1.4-.09c-.77 0-1.52.14-2.26.42-.74.28-1.4.74-1.97 1.37a7.06 7.06 0 0 0-1.37 2.5 11.9 11.9 0 0 0-.52 3.77c0 1.34.15 2.52.46 3.52a7.14 7.14 0 0 0 1.3 2.52 5.26 5.26 0 0 0 1.99 1.52 6.98 6.98 0 0 0 5.13.03v-2.8h2.07v3.77l.02.06c-.56.43-1.27.79-2.13 1.08s-1.9.43-3.13.43c-1.18 0-2.27-.2-3.26-.6-1-.4-1.87-1.02-2.6-1.84a8.5 8.5 0 0 1-1.69-3.14c-.4-1.28-.6-2.8-.6-4.55 0-1.83.22-3.38.67-4.66a8.7 8.7 0 0 1 1.82-3.14 6.9 6.9 0 0 1 2.67-1.77 9.4 9.4 0 0 1 3.27-.56c.63 0 1.18.02 1.65.07a6.58 6.58 0 0 1 2.97.96h.02v4.42h-2.07v-2.99zm14.11 3.47h4v9.55c0 .91.06 1.79.17 2.63h1.88v1.82h-3.75l-.09-2.38h-.1a5.34 5.34 0 0 1-4.83 2.72c-.86 0-1.6-.1-2.2-.3a3.1 3.1 0 0 1-1.5-1.02 4.73 4.73 0 0 1-.86-1.95 14.2 14.2 0 0 1-.27-3.03v-6.16h-1.88v-1.88h4.09v7.59c0 .76.03 1.45.1 2.06.06.6.2 1.11.4 1.53.2.42.5.74.9.96.4.21.93.32 1.6.32.96 0 1.8-.32 2.51-.95a6.08 6.08 0 0 0 1.63-2.38v-7.25h-1.8v-1.88zm8.52 14v-1.88h3.77v-10.24h-3.78v-1.88h5.24l.45 1.82h.14a10.1 10.1 0 0 1 2.12-1.48 5.96 5.96 0 0 1 2.8-.62c.64 0 1.15.13 1.53.37.38.24.68.6.9 1.06.21.47.35 1.03.43 1.7.08.66.11 1.4.11 2.25l-1.96.02c0-1.18-.11-2.05-.35-2.6a1.27 1.27 0 0 0-1.27-.84 4.6 4.6 0 0 0-2.79.87 6.45 6.45 0 0 0-1.41 1.34v8.23h5.37v1.88h-11.3zm16.8 0v-1.88h3.77v-10.24h-3.78v-1.88h5.24l.45 1.82h.14a9.93 9.93 0 0 1 2.12-1.48 5.97 5.97 0 0 1 2.8-.62c.64 0 1.15.13 1.53.37.38.24.68.6.9 1.06.21.47.35 1.03.43 1.7.07.66.11 1.4.11 2.25l-1.96.02a7.2 7.2 0 0 0-.35-2.6 1.27 1.27 0 0 0-1.27-.84 4.59 4.59 0 0 0-2.79.87 6.5 6.5 0 0 0-1.41 1.34v8.23h5.38v1.88h-11.32zm29.76-1.77a8.79 8.79 0 0 1-2.69 1.51 10.99 10.99 0 0 1-3.47.6 8.03 8.03 0 0 1-2.97-.52c-.86-.35-1.58-.84-2.16-1.49s-1.01-1.41-1.31-2.3a9.5 9.5 0 0 1-.45-3.03c0-1.17.16-2.22.5-3.13.32-.92.79-1.68 1.4-2.3a6.16 6.16 0 0 1 2.24-1.41 8.93 8.93 0 0 1 5.26-.18c.77.2 1.45.59 2.04 1.16a5.54 5.54 0 0 1 1.35 2.35c.32 1 .43 2.29.34 3.88h-10.8c0 1.68.44 2.93 1.34 3.76.9.83 2.11 1.25 3.62 1.25.5 0 1-.07 1.5-.19.49-.12.96-.26 1.4-.43a7.41 7.41 0 0 0 1.99-1.12l.87 1.6zm-5.9-10.72c-.61 0-1.2.07-1.74.2a3.59 3.59 0 0 0-2.48 1.86c-.28.5-.45 1.1-.52 1.83h8.68a4.3 4.3 0 0 0-1.19-2.87 3.77 3.77 0 0 0-2.75-1.02zm10.49 3.39a21.35 21.35 0 0 0-.13-2.35 9.05 9.05 0 0 0-.1-.73h-1.87v-1.82h3.75l.25 2.27h.14c.19-.32.44-.63.74-.94a5.88 5.88 0 0 1 4.05-1.67c.86 0 1.62.1 2.28.28.66.19 1.21.52 1.65 1s.77 1.12 1 1.93c.22.81.33 1.84.33 3.1v8.02h-2.21v-7.6c0-1.54-.25-2.7-.75-3.48-.5-.78-1.42-1.17-2.74-1.17-.48 0-.95.1-1.4.29a4.85 4.85 0 0 0-2.22 1.87 4.6 4.6 0 0 0-.62 1.33v8.77h-2.15v-9.1zm15.06-4.9h3.33v-2.77l2.22-.61v3.38h7.47v1.88h-7.47v6.6c0 1.36.33 2.37.99 3.03.66.65 1.6.98 2.83.98.84 0 1.57-.16 2.19-.48a11.7 11.7 0 0 0 1.69-1.04l.72 1.65a8.38 8.38 0 0 1-5.12 1.74 6.8 6.8 0 0 1-2.12-.32 4.7 4.7 0 0 1-2.95-2.72 6.3 6.3 0 0 1-.45-2.5v-6.94h-3.33v-1.88zM29.3 348.24h329.26V850H29.3z"/><path fill="#FFF" d="M3.81 321.25h329.26v501.76H3.81z"/><path d="M335.07 825.01H1.8V319.25h333.26v505.76zm-329.26-4h325.26V323.25H5.81v497.76z"/><path d="M39.07 379.18h4.51v4.05l.25.09a11.96 11.96 0 0 0 4.47.94 6 6 0 0 0 3.57-.92 2.9 2.9 0 0 0 1.27-2.48c0-.93-.35-1.68-1.05-2.25-.7-.58-1.56-1.08-2.58-1.52a61.65 61.65 0 0 0-3.36-1.31 16.07 16.07 0 0 1-3.37-1.66 9.28 9.28 0 0 1-2.58-2.52 6.8 6.8 0 0 1-1.04-3.94 7.79 7.79 0 0 1 2.73-6.02 9.35 9.35 0 0 1 3.09-1.72 12.4 12.4 0 0 1 4.01-.62c1.67 0 3.31.15 4.92.45 1.62.3 2.9.71 3.86 1.23v8.32h-4.51v-4.55a.76.76 0 0 1-.25-.04 15.58 15.58 0 0 0-4.02-.53c-1.3 0-2.34.26-3.09.77a2.42 2.42 0 0 0-1.13 2.1c0 .9.35 1.63 1.05 2.2.7.58 1.56 1.1 2.58 1.56 1.03.47 2.15.93 3.36 1.4a17.8 17.8 0 0 1 3.37 1.7 9.28 9.28 0 0 1 2.58 2.52 6.56 6.56 0 0 1 1.04 3.8c0 1.49-.27 2.78-.82 3.88a7.84 7.84 0 0 1-2.3 2.79c-.98.75-2.14 1.3-3.48 1.68-1.34.37-2.78.55-4.34.55-1.04 0-2-.08-2.9-.24a19 19 0 0 1-5.84-2.1v-7.61zm25.76-6.6h-4.06v-4.5h4.06v-4.68l5.33-1.52v6.19h10.75v4.5H70.16v5.87c0 2.1.4 3.62 1.2 4.57a4.1 4.1 0 0 0 3.31 1.41 7.03 7.03 0 0 0 3.63-.94c.48-.28.92-.58 1.31-.9l1.09-.9 2.46 3.68a7.84 7.84 0 0 1-1.74 1.5 14.47 14.47 0 0 1-4.78 1.98c-.87.2-1.73.29-2.58.29-3.06 0-5.37-.85-6.91-2.56-1.55-1.7-2.32-4.42-2.32-8.14v-5.85zm22.54-3.12a22.6 22.6 0 0 1 3.8-1.27c1.43-.35 3.13-.53 5.1-.53 1.42 0 2.63.17 3.63.52 1 .34 1.8.82 2.42 1.45a5.57 5.57 0 0 1 1.33 2.25c.27.88.41 1.86.41 2.95 0 1.4-.05 2.59-.14 3.57a25.13 25.13 0 0 0 .06 5.65h2.66v4.51h-6.88l-.54-2.79h-.2a7.06 7.06 0 0 1-2.33 2.2c-1 .61-2.36.92-4.07.92-2.04 0-3.65-.55-4.85-1.64a5.6 5.6 0 0 1-1.8-4.35c0-1.14.22-2.13.64-2.97a5.3 5.3 0 0 1 1.83-2.05c.8-.53 1.77-.93 2.9-1.18a16.8 16.8 0 0 1 5.31-.31l2 .16c.05-.27.08-.54.08-.82v-.78c0-1.03-.3-1.78-.9-2.23s-1.48-.68-2.64-.68c-1.39 0-2.64.18-3.75.54-1.11.35-2.05.7-2.8 1.06l-1.27-4.18zm6.98 15.05c1.3 0 2.27-.24 2.92-.72a4.84 4.84 0 0 0 1.42-1.54v-2.46a14.2 14.2 0 0 0-2.96-.29c-.51 0-1.03.05-1.54.15-.51.1-.97.24-1.38.45s-.73.47-.97.8c-.24.33-.37.72-.37 1.19 0 .76.23 1.35.67 1.78.45.42 1.19.63 2.21.63zm17.18-11.93h-4.06v-4.5h4.06v-4.68l5.33-1.52v6.19h10.74v4.5h-10.74v5.87c0 2.1.4 3.62 1.19 4.57s1.9 1.41 3.32 1.41a7.03 7.03 0 0 0 3.63-.94c.48-.28.92-.58 1.31-.9l1.09-.9 2.46 3.68a7.85 7.85 0 0 1-1.75 1.5 14.47 14.47 0 0 1-4.77 1.98c-.88.2-1.74.29-2.58.29-3.07 0-5.37-.85-6.91-2.56-1.55-1.7-2.32-4.42-2.32-8.14v-5.85zm21.32 11.48h7.21v-11.48h-7.21v-4.5h12.54v15.97h7.59v4.51h-20.13v-4.5zm6.23-21.56c0-.85.31-1.57.94-2.17.63-.6 1.5-.9 2.62-.9 1.15 0 2.07.3 2.75.9a2.8 2.8 0 0 1 1.03 2.17c0 .87-.35 1.59-1.03 2.15a4.2 4.2 0 0 1-2.75.84 3.8 3.8 0 0 1-2.62-.84 2.75 2.75 0 0 1-.94-2.15zm31.12 20.4c0-.54-.34-.98-1.01-1.3a14.6 14.6 0 0 0-2.48-.9c-.98-.28-2.06-.56-3.24-.85a14.71 14.71 0 0 1-3.24-1.18 8.08 8.08 0 0 1-2.48-1.93c-.67-.78-1-1.78-1-3.01 0-1.01.22-1.9.67-2.67s1.07-1.41 1.85-1.94c.78-.54 1.7-.94 2.79-1.21 1.08-.27 2.25-.41 3.5-.41a17.12 17.12 0 0 1 6.17.98c.76.27 1.4.58 1.93.92.54.35 1 .65 1.38.93l-2.26 3.64a19.07 19.07 0 0 0-3.1-1.48c-.58-.21-1.2-.4-1.84-.53a9.19 9.19 0 0 0-4.7.25c-.7.3-1.06.77-1.06 1.4 0 .48.33.88 1 1.18.67.3 1.5.58 2.48.84l3.24.84c1.18.3 2.26.7 3.24 1.17.98.48 1.81 1.1 2.48 1.86.67.77 1 1.75 1 2.95 0 2.08-.75 3.71-2.27 4.9-1.52 1.19-3.77 1.78-6.74 1.78-2.36 0-4.38-.35-6.1-1.04a14.2 14.2 0 0 1-4.11-2.44l2.46-3.85a12.53 12.53 0 0 0 3.4 2c.74.3 1.52.56 2.36.77.83.2 1.66.3 2.48.3a5.2 5.2 0 0 0 2.25-.44c.63-.3.94-.81.94-1.52zm13.71-10.32h-4.06v-4.5h4.06v-4.68l5.33-1.52v6.19h10.74v4.5h-10.74v5.87c0 2.1.4 3.62 1.19 4.57s1.9 1.41 3.32 1.41a7.03 7.03 0 0 0 3.63-.94c.48-.28.92-.58 1.31-.9l1.09-.9 2.46 3.68a7.84 7.84 0 0 1-1.75 1.5 14.47 14.47 0 0 1-4.77 1.98c-.88.2-1.74.29-2.58.29-3.07 0-5.37-.85-6.91-2.56-1.55-1.7-2.32-4.42-2.32-8.14v-5.85zm21.32 11.48h7.21v-11.48h-7.21v-4.5h12.54v15.97h7.59v4.51h-20.13v-4.5zm6.23-21.56c0-.85.31-1.57.94-2.17.63-.6 1.5-.9 2.63-.9a4 4 0 0 1 2.74.9 2.8 2.8 0 0 1 1.03 2.17c0 .87-.34 1.59-1.03 2.15a4.2 4.2 0 0 1-2.74.84c-1.12 0-2-.28-2.63-.84a2.75 2.75 0 0 1-.94-2.15zm36.42 24.1a11.75 11.75 0 0 1-3.94 1.9c-1.5.42-3.08.64-4.72.64-1.77 0-3.35-.26-4.73-.78a9.65 9.65 0 0 1-3.49-2.2 9.3 9.3 0 0 1-2.15-3.42c-.49-1.33-.74-2.8-.74-4.42 0-1.72.3-3.25.86-4.6a9.66 9.66 0 0 1 6.03-5.5c1.4-.48 2.91-.72 4.55-.72 1.53 0 2.97.18 4.3.53 1.35.36 2.37.7 3.08 1.03v7.2h-4.5v-3.76c-.86-.19-1.7-.29-2.55-.29-.77 0-1.52.12-2.27.35a5.57 5.57 0 0 0-3.45 3.01 6.27 6.27 0 0 0-.55 2.75c0 .87.15 1.68.45 2.42a5.73 5.73 0 0 0 3.3 3.22c.8.3 1.7.47 2.68.47a9.6 9.6 0 0 0 3.84-.66c1-.44 1.74-.82 2.23-1.15l1.76 3.98zm17.27-3.7c0-.54-.33-.98-1-1.3-.67-.33-1.5-.63-2.48-.9-.99-.28-2.07-.56-3.24-.85a14.71 14.71 0 0 1-3.24-1.18 8.08 8.08 0 0 1-2.48-1.93c-.67-.78-1-1.78-1-3.01 0-1.01.22-1.9.67-2.67s1.07-1.41 1.85-1.94c.78-.54 1.7-.94 2.79-1.21 1.08-.27 2.24-.41 3.5-.41a17.17 17.17 0 0 1 6.17.98c.75.27 1.4.58 1.93.92.53.35 1 .65 1.37.93l-2.25 3.64a19.07 19.07 0 0 0-3.1-1.48c-.59-.21-1.2-.4-1.84-.53a9.2 9.2 0 0 0-4.7.25c-.7.3-1.06.77-1.06 1.4 0 .48.33.88 1 1.18.67.3 1.5.58 2.48.84l3.24.84c1.18.3 2.25.7 3.24 1.17a8 8 0 0 1 2.48 1.86c.67.77 1 1.75 1 2.95a5.9 5.9 0 0 1-2.27 4.9c-1.52 1.19-3.77 1.78-6.75 1.78-2.35 0-4.38-.35-6.09-1.04a14.2 14.2 0 0 1-4.12-2.44l2.46-3.85a12.53 12.53 0 0 0 3.4 2c.74.3 1.53.56 2.36.77.84.2 1.66.3 2.48.3a5.2 5.2 0 0 0 2.26-.44c.63-.3.94-.81.94-1.52zm-74.87 57.41c0-2.48.26-4.66.78-6.53a13.47 13.47 0 0 1 2.2-4.65 9.15 9.15 0 0 1 3.4-2.77c1.3-.61 2.78-.92 4.4-.92 3.45 0 6.11 1.2 7.98 3.62 1.86 2.42 2.8 6.17 2.8 11.25 0 2.52-.26 4.7-.78 6.58a13.7 13.7 0 0 1-2.2 4.67 9 9 0 0 1-3.42 2.79c-1.33.61-2.8.92-4.43.92-3.48 0-6.14-1.27-7.98-3.83-1.84-2.56-2.75-6.26-2.75-11.13zm5.33 0c0 .41 0 .8.02 1.17l.06 1.13 9.92-9.14c-.81-2.35-2.34-3.52-4.6-3.52-1.73 0-3.06.84-4 2.52-.94 1.68-1.4 4.3-1.4 7.84zm10.9 0a35.47 35.47 0 0 0-.08-2.41l-9.97 9.14c.84 2.48 2.38 3.73 4.6 3.73 1.74 0 3.08-.84 4.03-2.5.95-1.67 1.42-4.32 1.42-7.95zm30.46 6.39h-4.92v8h-4.96v-8h-12.42v-3.64l13-17.25h4.38v16.64h4.92v4.26zm-9.88-13.35-7.13 9.1h7.13v-9.1zm13.04 1.64c0-1.4.24-2.68.72-3.86a8.72 8.72 0 0 1 5.12-4.97c1.22-.48 2.58-.72 4.08-.72 1.53 0 2.93.23 4.19.7a8.74 8.74 0 0 1 5.32 5.46c.5 1.36.74 2.9.74 4.65 0 3.17-.4 5.9-1.23 8.2-.82 2.3-1.92 4.2-3.3 5.74a14.28 14.28 0 0 1-4.81 3.52 19.11 19.11 0 0 1-5.74 1.56l-1.15-4.18a14.3 14.3 0 0 0 4.08-1.1 12.33 12.33 0 0 0 3.18-2.04c.9-.8 1.64-1.72 2.21-2.74a9.32 9.32 0 0 0 1.1-3.3 6.12 6.12 0 0 1-2.2 1.37 9.1 9.1 0 0 1-3.24.51h-.09a9.73 9.73 0 0 1-3.15-.53 8.55 8.55 0 0 1-5-4.4 8.53 8.53 0 0 1-.83-3.87zm5.17-.29a4.56 4.56 0 0 0 1.55 3.5c.47.4 1 .7 1.62.9s1.25.31 1.91.31c1.12 0 2.1-.18 2.91-.53a4.3 4.3 0 0 0 1.8-1.31c.09-.57.13-1.12.13-1.64 0-.77-.11-1.52-.33-2.26a6.1 6.1 0 0 0-.98-1.96 4.84 4.84 0 0 0-3.9-1.89c-1.34 0-2.46.43-3.36 1.3a4.72 4.72 0 0 0-1.35 3.58zm-55.02 72.2c0-2.5.26-4.67.78-6.55a13.46 13.46 0 0 1 2.2-4.65 9.17 9.17 0 0 1 3.4-2.76c1.3-.62 2.78-.93 4.4-.93 3.45 0 6.11 1.21 7.98 3.63 1.86 2.42 2.8 6.17 2.8 11.25 0 2.51-.26 4.7-.78 6.58a13.69 13.69 0 0 1-2.2 4.67 8.99 8.99 0 0 1-3.42 2.79c-1.33.61-2.8.92-4.43.92-3.48 0-6.14-1.28-7.98-3.83-1.84-2.56-2.75-6.27-2.75-11.13zm5.33 0c0 .4 0 .79.02 1.16l.06 1.12 9.92-9.14c-.81-2.35-2.34-3.52-4.6-3.52-1.73 0-3.06.84-4 2.52-.94 1.68-1.4 4.3-1.4 7.85zm10.9 0a35.51 35.51 0 0 0-.08-2.43l-9.97 9.14c.84 2.49 2.38 3.73 4.6 3.73 1.74 0 3.08-.83 4.03-2.5.95-1.67 1.42-4.32 1.42-7.95zm16.98 10.44c.9 0 1.72-.12 2.47-.35s1.4-.56 1.93-.98c.53-.42.95-.9 1.25-1.47.3-.55.45-1.16.45-1.81 0-.82-.17-1.5-.51-2.06-.34-.56-.81-1-1.42-1.33a6.74 6.74 0 0 0-2.17-.69 16.8 16.8 0 0 0-2.74-.2h-2.3v-2.94l6.89-8.41h-10.38v-4.51h16.73v3.73l-7.21 8.23h.94c.96 0 1.89.17 2.79.5a6.94 6.94 0 0 1 4.08 3.93c.42.98.63 2.12.63 3.4 0 1.56-.32 2.92-.96 4.1a9.37 9.37 0 0 1-2.54 2.97c-1.06.8-2.27 1.4-3.63 1.8a15 15 0 0 1-4.22.6 21 21 0 0 1-3.7-.33 17.99 17.99 0 0 1-3.56-1.02l1.43-4.43c.25.14.58.27 1 .41a23.75 23.75 0 0 0 3.08.74c.56.08 1.12.12 1.67.12zm24.14-.2a9 9 0 0 0 2.5-.33 6.23 6.23 0 0 0 2-.94 4.36 4.36 0 0 0 1.78-3.57c0-1.5-.6-2.69-1.79-3.54-1.18-.87-2.97-1.3-5.35-1.3a32.75 32.75 0 0 0-2.17.08c-.41.03-.83.05-1.27.05v-15h14.84v5h-10.25v5.53c.22 0 .44-.02.66-.04.19 0 .37 0 .55-.02.18-.02.33-.02.47-.02 1.37 0 2.64.2 3.82.6a8.07 8.07 0 0 1 5.1 4.67c.48 1.13.72 2.38.72 3.74a8.83 8.83 0 0 1-3.36 7.3 11.02 11.02 0 0 1-3.61 1.86c-1.37.43-2.83.64-4.4.64-.6 0-1.23-.06-1.92-.19a23.47 23.47 0 0 1-3.83-1.04c-.56-.22-1.03-.43-1.42-.62l1.73-4.26c.46.27 1.18.57 2.15.9.97.33 1.99.5 3.05.5zm-57.35 72.38c0-2.49.26-4.67.78-6.54a13.45 13.45 0 0 1 2.2-4.65 9.17 9.17 0 0 1 3.4-2.77c1.3-.61 2.78-.92 4.4-.92 3.45 0 6.11 1.2 7.98 3.63 1.86 2.41 2.8 6.16 2.8 11.25 0 2.51-.26 4.7-.78 6.57a13.67 13.67 0 0 1-2.2 4.68 9 9 0 0 1-3.42 2.78c-1.33.62-2.8.93-4.43.93-3.48 0-6.14-1.28-7.98-3.84-1.84-2.55-2.75-6.26-2.75-11.12zm5.33 0a30.76 30.76 0 0 0 .08 2.3l9.92-9.15c-.81-2.35-2.34-3.52-4.6-3.52-1.73 0-3.06.84-4 2.52-.94 1.68-1.4 4.3-1.4 7.85zm10.9 0a35.31 35.31 0 0 0-.08-2.42l-9.97 9.14c.84 2.48 2.38 3.73 4.6 3.73 1.74 0 3.08-.84 4.03-2.5.95-1.67 1.42-4.32 1.42-7.95zm10.99 14.38 11.8-23.85h-13.36v-4.84h18.7v4.02L222.7 603.9h-5.21zm44.07-7.99h-4.92v7.99h-4.96v-7.99h-12.42v-3.65l13-17.25h4.38v16.64h4.92v4.26zm-9.88-13.36-7.13 9.1h7.13v-9.1zm-61.41 90.75c0-2.49.26-4.66.78-6.54a13.46 13.46 0 0 1 2.2-4.65 9.17 9.17 0 0 1 3.4-2.77c1.3-.61 2.78-.92 4.4-.92 3.45 0 6.11 1.21 7.98 3.63 1.86 2.42 2.8 6.17 2.8 11.25 0 2.51-.26 4.7-.78 6.57a13.68 13.68 0 0 1-2.2 4.68 9 9 0 0 1-3.42 2.78c-1.33.62-2.8.93-4.43.93-3.48 0-6.14-1.28-7.98-3.84-1.84-2.55-2.75-6.26-2.75-11.12zm5.33 0a30.76 30.76 0 0 0 .08 2.3l9.92-9.15c-.81-2.35-2.34-3.52-4.6-3.52-1.73 0-3.06.84-4 2.52-.94 1.68-1.4 4.3-1.4 7.85zm10.9 0a35.31 35.31 0 0 0-.08-2.42l-9.97 9.14c.84 2.49 2.38 3.73 4.6 3.73 1.74 0 3.08-.83 4.03-2.5.95-1.67 1.42-4.32 1.42-7.95zm28.25 14.38h-18.29v-3.97c.33-.27.74-.64 1.23-1.09l1.66-1.53c.62-.58 1.27-1.2 1.95-1.89a85.06 85.06 0 0 0 4.45-4.96c.7-.85 1.27-1.64 1.72-2.4.45-.75.79-1.48 1-2.2.22-.73.33-1.48.33-2.24a4.13 4.13 0 0 0-1.39-2.97 4.95 4.95 0 0 0-1.58-.94 5.78 5.78 0 0 0-2.03-.35 7.61 7.61 0 0 0-5.21 1.97l-2.13-3.77a18.08 18.08 0 0 1 3.83-2.07 13.09 13.09 0 0 1 8.24-.35c1.08.33 2.04.81 2.87 1.45.84.65 1.5 1.44 2 2.4.48.96.73 2.06.73 3.32a11.83 11.83 0 0 1-.92 4.7 15.2 15.2 0 0 1-1.23 2.3 38.3 38.3 0 0 1-3.61 4.74 72.28 72.28 0 0 1-3.77 3.9 24.3 24.3 0 0 1-1.66 1.44h11.8v4.51h.01zm5.62-7a7 7 0 0 1 .47-2.63c.31-.79.72-1.5 1.23-2.13.5-.63 1.08-1.2 1.74-1.7.66-.5 1.33-.95 2.01-1.33-1.37-.8-2.5-1.73-3.4-2.8a6.14 6.14 0 0 1-1.36-4.09c0-1.06.23-2.06.7-2.99a7.35 7.35 0 0 1 1.95-2.41 9.23 9.23 0 0 1 2.97-1.6c1.15-.39 2.4-.58 3.73-.58 1.23 0 2.39.17 3.47.5 1.07.32 2.02.79 2.85 1.39.81.6 1.46 1.33 1.92 2.2.47.85.7 1.8.7 2.84 0 1.61-.42 3.02-1.25 4.22a11.01 11.01 0 0 1-3.42 3.11c1.64.85 2.94 1.85 3.91 3a6.6 6.6 0 0 1 1.46 4.42c0 1.23-.27 2.35-.8 3.35a8.06 8.06 0 0 1-2.15 2.56c-.9.7-1.96 1.26-3.18 1.66-1.22.39-2.5.59-3.88.59s-2.63-.18-3.8-.55c-1.18-.37-2.2-.89-3.08-1.54a7.1 7.1 0 0 1-2.05-2.38 6.54 6.54 0 0 1-.74-3.11zm14.6-.7a2.9 2.9 0 0 0-.54-1.76c-.35-.5-.8-.93-1.33-1.31s-1.12-.73-1.77-1.05a47.7 47.7 0 0 1-1.86-.96 8 8 0 0 0-3.16 2.31 4.44 4.44 0 0 0-1.1 2.69c0 1.23.43 2.18 1.3 2.85s2.1 1 3.66 1a5.8 5.8 0 0 0 3.44-.96 3.23 3.23 0 0 0 1.35-2.81zm-8.82-13.73a3 3 0 0 0 .43 1.66c.28.45.65.85 1.1 1.19.45.34.97.65 1.54.92l1.73.82a7.94 7.94 0 0 0 2.41-1.9 6 6 0 0 0 .8-1.23 3.06 3.06 0 0 0-.06-2.79 3.63 3.63 0 0 0-.96-1.08 4.3 4.3 0 0 0-1.33-.68 5.21 5.21 0 0 0-3.18.06c-.5.19-.94.44-1.31.74a3.12 3.12 0 0 0-1.17 2.29zm-55.88 87.84c0-2.49.26-4.67.78-6.54a13.47 13.47 0 0 1 2.2-4.65 9.17 9.17 0 0 1 3.4-2.77c1.3-.61 2.78-.92 4.4-.92 3.45 0 6.11 1.2 7.98 3.62 1.86 2.42 2.8 6.17 2.8 11.26 0 2.5-.26 4.7-.78 6.57a13.7 13.7 0 0 1-2.2 4.67 9 9 0 0 1-3.42 2.8c-1.33.6-2.8.91-4.43.91-3.48 0-6.14-1.27-7.98-3.83-1.84-2.55-2.75-6.26-2.75-11.12zm5.33 0a30.84 30.84 0 0 0 .08 2.3l9.92-9.15c-.81-2.35-2.34-3.52-4.6-3.52-1.73 0-3.06.84-4 2.52-.94 1.68-1.4 4.3-1.4 7.85zm10.9 0a35.47 35.47 0 0 0-.08-2.42l-9.97 9.14c.84 2.49 2.38 3.73 4.6 3.73 1.74 0 3.08-.84 4.03-2.5.95-1.67 1.42-4.32 1.42-7.95zm16.98 10.45c.9 0 1.72-.12 2.47-.35.76-.23 1.4-.56 1.93-.98.53-.42.95-.91 1.25-1.47.3-.56.45-1.16.45-1.82 0-.81-.17-1.5-.51-2.06-.34-.55-.81-1-1.42-1.32a6.74 6.74 0 0 0-2.17-.7 18 18 0 0 0-2.74-.2h-2.3v-2.94l6.89-8.41h-10.38v-4.5h16.73v3.72l-7.21 8.24h.94c.96 0 1.89.16 2.79.49a6.88 6.88 0 0 1 4.08 3.93c.42.99.63 2.12.63 3.4 0 1.56-.32 2.93-.96 4.1a9.37 9.37 0 0 1-2.54 2.97 10.83 10.83 0 0 1-3.63 1.8 15 15 0 0 1-4.22.6c-1.23 0-2.47-.1-3.7-.32s-2.41-.57-3.56-1.03l1.43-4.43c.25.14.58.28 1 .41a20.16 20.16 0 0 0 3.08.74c.56.09 1.12.13 1.67.13zm24.6 0c.9 0 1.72-.12 2.47-.35.76-.23 1.4-.56 1.93-.98.54-.42.95-.91 1.25-1.47.3-.56.45-1.16.45-1.82 0-.81-.17-1.5-.51-2.06-.34-.55-.81-1-1.42-1.32a6.74 6.74 0 0 0-2.17-.7 18 18 0 0 0-2.74-.2h-2.3v-2.94l6.89-8.41h-10.38v-4.5h16.73v3.72l-7.21 8.24h.94c.96 0 1.89.16 2.79.49a6.9 6.9 0 0 1 4.08 3.93c.42.99.63 2.12.63 3.4a8.4 8.4 0 0 1-.96 4.1 9.36 9.36 0 0 1-2.54 2.97 10.83 10.83 0 0 1-3.63 1.8 15 15 0 0 1-4.22.6c-1.23 0-2.46-.1-3.7-.32a17.83 17.83 0 0 1-3.56-1.03l1.43-4.43c.25.14.58.28 1 .41a17.55 17.55 0 0 0 3.08.74c.56.09 1.12.13 1.67.13z"/><path fill="#2E9AFF" d="M63.74 481.35h27.33v27.32H63.74z"/><path fill="#FFF" d="M93.07 510.67H61.74v-31.32h31.33v31.32zm-27.33-4h23.33v-23.32H65.74v23.32z"/><path fill="#2E9AFF" d="M91.07 481.35h27.33v27.32H91.07z"/><path fill="#FFF" d="M120.4 510.67H89.08v-31.32h31.34v31.32zm-27.33-4h23.34v-23.32H93.07v23.32z"/><path fill="#2E9AFF" d="M63.74 508.67h27.33v27.32H63.74z"/><path fill="#FFF" d="M93.07 538H61.74v-31.33h31.33V538zm-27.33-4h23.33v-23.33H65.74V534z"/><path fill="#2E9AFF" d="M91.07 508.67h27.33v27.32H91.07z"/><path fill="#FFF" d="M120.4 538H89.08v-31.33h31.34V538zm-27.33-4h23.34v-23.33H93.07V534z"/><path fill="#2E9AFF" d="M50.08 591.3h27.33v27.32H50.08z"/><path fill="#FFF" d="M79.4 620.62H48.08V589.3h31.34v31.32zm-27.33-4h23.34V593.3H52.08v23.32z"/><path fill="#2E9AFF" d="M77.41 591.3h27.33v27.32H77.41z"/><path fill="#FFF" d="M106.74 620.62H75.41V589.3h31.33v31.32zm-27.33-4h23.33V593.3H79.41v23.32z"/><path fill="#2E9AFF" d="M77.41 563.98h27.33v27.32H77.41z"/><path fill="#FFF" d="M106.74 593.3H75.41v-31.32h31.33v31.32zm-27.33-4h23.33v-23.32H79.41v23.32z"/><path fill="#2E9AFF" d="M104.74 591.3h27.33v27.32h-27.33z"/><path fill="#FFF" d="M134.07 620.62h-31.33V589.3h31.33v31.32zm-27.33-4h23.33V593.3h-23.33v23.32z"/><path fill="#2E9AFF" d="M36.41 427.38h27.33v27.32H36.41z"/><path fill="#FFF" d="M65.74 456.7H34.41v-31.32h31.33v31.32zm-27.33-4h23.33v-23.32H38.41v23.32z"/><path fill="#2E9AFF" d="M63.74 427.38h27.33v27.32H63.74z"/><path fill="#FFF" d="M93.07 456.7H61.74v-31.32h31.33v31.32zm-27.33-4h23.33v-23.32H65.74v23.32z"/><path fill="#2E9AFF" d="M91.07 427.38h27.33v27.32H91.07z"/><path fill="#FFF" d="M120.4 456.7H89.08v-31.32h31.34v31.32zm-27.33-4h23.34v-23.32H93.07v23.32z"/><path fill="#2E9AFF" d="M118.41 427.38h27.33v27.32h-27.33z"/><path fill="#FFF" d="M147.74 456.7h-31.33v-31.32h31.33v31.32zm-27.33-4h23.33v-23.32h-23.33v23.32z"/><path fill="#2E9AFF" d="M50.08 647.76h27.33v27.32H50.08z"/><path fill="#FFF" d="M79.4 677.08H48.08v-31.32h31.34v31.32zm-27.33-4h23.34v-23.32H52.08v23.32z"/><path fill="#2E9AFF" d="M77.41 647.76h27.33v27.32H77.41z"/><path fill="#FFF" d="M106.74 677.08H75.41v-31.32h31.33v31.32zm-27.33-4h23.33v-23.32H79.41v23.32z"/><path fill="#2E9AFF" d="M104.74 647.76h27.33v27.32h-27.33z"/><path fill="#FFF" d="M134.07 677.08h-31.33v-31.32h31.33v31.32zm-27.33-4h23.33v-23.32h-23.33v23.32z"/><path fill="#2E9AFF" d="M104.74 675.08h27.33v27.32h-27.33z"/><path fill="#FFF" d="M134.07 704.4h-31.33v-31.32h31.33v31.32zm-27.33-4h23.33v-23.32h-23.33v23.32z"/><path fill="#2E9AFF" d="M50.08 728.55h27.33v27.32H50.08z"/><path fill="#FFF" d="M79.4 757.87H48.08v-31.32h31.34v31.32zm-27.33-4h23.34v-23.32H52.08v23.32z"/><path fill="#2E9AFF" d="M77.41 728.55h27.33v27.32H77.41z"/><path fill="#FFF" d="M106.74 757.87H75.41v-31.32h31.33v31.32zm-27.33-4h23.33v-23.32H79.41v23.32z"/><path fill="#2E9AFF" d="M77.41 755.87h27.33v27.32H77.41z"/><path fill="#FFF" d="M106.74 785.19H75.41v-31.32h31.33v31.32zm-27.33-4h23.33v-23.32H79.41v23.32z"/><path fill="#2E9AFF" d="M104.74 755.87h27.33v27.32h-27.33z"/><path fill="#FFF" d="M134.07 785.19h-31.33v-31.32h31.33v31.32zm-27.33-4h23.33v-23.32h-23.33v23.32z"/><path d="M473.24 29.75h547.7V850h-547.7z"/><path fill="#FFF" d="M445.91 2.33h546.66v820.68H445.91z"/><path d="M994.57 825.01H443.91V.33h550.66v824.68zm-546.66-4h542.66V4.33H447.91V821z"/><path fill="#FFF" d="M445.91 3.33h54.67v54.64h-54.67z"/><path d="M502.57 59.97h-58.66V1.33h58.66v58.64zm-54.66-4h50.66V5.33h-50.66v50.64z"/><path fill="#FFF" d="M500.57 3.33h54.67v54.64h-54.67z"/><path d="M557.24 59.97h-58.67V1.33h58.67v58.64zm-54.67-4h50.67V5.33h-50.67v50.64z"/><path fill="#FFF" d="M555.24 3.33h54.67v54.64h-54.67z"/><path d="M611.9 59.97h-58.66V1.33h58.67v58.64zm-54.66-4h50.67V5.33h-50.67v50.64z"/><path fill="#FFF" d="M609.91 3.33h54.67v54.64h-54.67z"/><path d="M666.57 59.97h-58.66V1.33h58.66v58.64zm-54.66-4h50.66V5.33h-50.66v50.64z"/><path fill="#FFF" d="M664.57 3.33h54.67v54.64h-54.67z"/><path d="M721.24 59.97h-58.67V1.33h58.67v58.64zm-54.67-4h50.67V5.33h-50.67v50.64z"/><path fill="#FFF" d="M719.24 3.33h54.67v54.64h-54.67z"/><path d="M775.9 59.97h-58.66V1.33h58.67v58.64zm-54.66-4h50.67V5.33h-50.67v50.64z"/><path fill="#FFF" d="M773.91 3.33h54.67v54.64h-54.67z"/><path d="M830.57 59.97h-58.66V1.33h58.66v58.64zm-54.66-4h50.66V5.33h-50.66v50.64z"/><path fill="#FFF" d="M828.57 3.33h54.67v54.64h-54.67z"/><path d="M885.24 59.97h-58.67V1.33h58.67v58.64zm-54.67-4h50.67V5.33h-50.67v50.64z"/><path fill="#FFF" d="M883.24 3.33h54.67v54.64h-54.67z"/><path d="M939.9 59.97h-58.66V1.33h58.66v58.64zm-54.66-4h50.66V5.33h-50.66v50.64z"/><path fill="#FFF" d="M937.9 3.33h54.67v54.64H937.9z"/><path d="M994.57 59.97H935.9V1.33h58.67v58.64zm-54.67-4h50.67V5.33H939.9v50.64z"/><path fill="#FFF" d="M445.91 57.97h54.67v54.64h-54.67z"/><path d="M502.57 114.6h-58.66V55.98h58.66v58.64zm-54.66-4h50.66V59.98h-50.66v50.64z"/><path fill="#FFF" d="M500.57 57.97h54.67v54.64h-54.67z"/><path d="M557.24 114.6h-58.67V55.98h58.67v58.64zm-54.67-4h50.67V59.98h-50.67v50.64z"/><path fill="#FFF" d="M555.24 57.97h54.67v54.64h-54.67z"/><path d="M611.9 114.6h-58.66V55.98h58.67v58.64zm-54.66-4h50.67V59.98h-50.67v50.64z"/><path fill="#FFF" d="M609.91 57.97h54.67v54.64h-54.67z"/><path d="M666.57 114.6h-58.66V55.98h58.66v58.64zm-54.66-4h50.66V59.98h-50.66v50.64z"/><path fill="#FFF" d="M664.57 57.97h54.67v54.64h-54.67z"/><path d="M721.24 114.6h-58.67V55.98h58.67v58.64zm-54.67-4h50.67V59.98h-50.67v50.64z"/><path fill="#FFF" d="M719.24 57.97h54.67v54.64h-54.67z"/><path d="M775.9 114.6h-58.66V55.98h58.67v58.64zm-54.66-4h50.67V59.98h-50.67v50.64z"/><path fill="#FFF" d="M773.91 57.97h54.67v54.64h-54.67z"/><path d="M830.57 114.6h-58.66V55.98h58.66v58.64zm-54.66-4h50.66V59.98h-50.66v50.64z"/><path fill="#FFF" d="M828.57 57.97h54.67v54.64h-54.67z"/><path d="M885.24 114.6h-58.67V55.98h58.67v58.64zm-54.67-4h50.67V59.98h-50.67v50.64z"/><path fill="#FFF" d="M883.24 57.97h54.67v54.64h-54.67z"/><path d="M939.9 114.6h-58.66V55.98h58.66v58.64zm-54.66-4h50.66V59.98h-50.66v50.64z"/><path fill="#FFF" d="M937.9 57.97h54.67v54.64H937.9z"/><path d="M994.57 114.6H935.9V55.98h58.67v58.64zm-54.67-4h50.67V59.98H939.9v50.64z"/><path fill="#FFF" d="M445.91 112.61h54.67v54.64h-54.67z"/><path d="M502.57 169.25h-58.66V110.6h58.66v58.64zm-54.66-4h50.66V114.6h-50.66v50.64z"/><path fill="#FFF" d="M500.57 112.61h54.67v54.64h-54.67z"/><path d="M557.24 169.25h-58.67V110.6h58.67v58.64zm-54.67-4h50.67V114.6h-50.67v50.64z"/><path fill="#FFF" d="M555.24 112.61h54.67v54.64h-54.67z"/><path d="M611.9 169.25h-58.66V110.6h58.67v58.64zm-54.66-4h50.67V114.6h-50.67v50.64z"/><path fill="#FFF" d="M609.91 112.61h54.67v54.64h-54.67z"/><path d="M666.57 169.25h-58.66V110.6h58.66v58.64zm-54.66-4h50.66V114.6h-50.66v50.64z"/><path fill="#FFF" d="M664.57 112.61h54.67v54.64h-54.67z"/><path d="M721.24 169.25h-58.67V110.6h58.67v58.64zm-54.67-4h50.67V114.6h-50.67v50.64z"/><path fill="#FFF" d="M719.24 112.61h54.67v54.64h-54.67z"/><path d="M775.9 169.25h-58.66V110.6h58.67v58.64zm-54.66-4h50.67V114.6h-50.67v50.64z"/><path fill="#FFF" d="M773.91 112.61h54.67v54.64h-54.67z"/><path d="M830.57 169.25h-58.66V110.6h58.66v58.64zm-54.66-4h50.66V114.6h-50.66v50.64z"/><path fill="#FFF" d="M828.57 112.61h54.67v54.64h-54.67z"/><path d="M885.24 169.25h-58.67V110.6h58.67v58.64zm-54.67-4h50.67V114.6h-50.67v50.64z"/><path fill="#FFF" d="M883.24 112.61h54.67v54.64h-54.67z"/><path d="M939.9 169.25h-58.66V110.6h58.66v58.64zm-54.66-4h50.66V114.6h-50.66v50.64z"/><path fill="#FFF" d="M937.9 112.61h54.67v54.64H937.9z"/><path d="M994.57 169.25H935.9V110.6h58.67v58.64zm-54.67-4h50.67V114.6H939.9v50.64z"/><path fill="#FFF" d="M445.91 167.25h54.67v54.64h-54.67z"/><path d="M502.57 223.89h-58.66v-58.64h58.66v58.64zm-54.66-4h50.66v-50.64h-50.66v50.64z"/><path fill="#FFF" d="M500.57 167.25h54.67v54.64h-54.67z"/><path d="M557.24 223.89h-58.67v-58.64h58.67v58.64zm-54.67-4h50.67v-50.64h-50.67v50.64z"/><path fill="#FFF" d="M555.24 167.25h54.67v54.64h-54.67z"/><path d="M611.9 223.89h-58.66v-58.64h58.67v58.64zm-54.66-4h50.67v-50.64h-50.67v50.64z"/><path fill="#FFF" d="M609.91 167.25h54.67v54.64h-54.67z"/><path d="M666.57 223.89h-58.66v-58.64h58.66v58.64zm-54.66-4h50.66v-50.64h-50.66v50.64z"/><path fill="#FFF" d="M664.57 167.25h54.67v54.64h-54.67z"/><path d="M721.24 223.89h-58.67v-58.64h58.67v58.64zm-54.67-4h50.67v-50.64h-50.67v50.64z"/><path fill="#FFF" d="M719.24 167.25h54.67v54.64h-54.67z"/><path d="M775.9 223.89h-58.66v-58.64h58.67v58.64zm-54.66-4h50.67v-50.64h-50.67v50.64z"/><path fill="#FFF" d="M773.91 167.25h54.67v54.64h-54.67z"/><path d="M830.57 223.89h-58.66v-58.64h58.66v58.64zm-54.66-4h50.66v-50.64h-50.66v50.64z"/><path fill="#FFF" d="M828.57 167.25h54.67v54.64h-54.67z"/><path d="M885.24 223.89h-58.67v-58.64h58.67v58.64zm-54.67-4h50.67v-50.64h-50.67v50.64z"/><path fill="#FFF" d="M883.24 167.25h54.67v54.64h-54.67z"/><path d="M939.9 223.89h-58.66v-58.64h58.66v58.64zm-54.66-4h50.66v-50.64h-50.66v50.64z"/><path fill="#FFF" d="M937.9 167.25h54.67v54.64H937.9z"/><path d="M994.57 223.89H935.9v-58.64h58.67v58.64zm-54.67-4h50.67v-50.64H939.9v50.64z"/><path fill="#FFF" d="M445.91 221.89h54.67v54.64h-54.67z"/><path d="M502.57 278.53h-58.66v-58.64h58.66v58.64zm-54.66-4h50.66v-50.64h-50.66v50.64z"/><path fill="#FFF" d="M500.57 221.89h54.67v54.64h-54.67z"/><path d="M557.24 278.53h-58.67v-58.64h58.67v58.64zm-54.67-4h50.67v-50.64h-50.67v50.64z"/><path fill="#FFF" d="M555.24 221.89h54.67v54.64h-54.67z"/><path d="M611.9 278.53h-58.66v-58.64h58.67v58.64zm-54.66-4h50.67v-50.64h-50.67v50.64z"/><path fill="#FFF" d="M609.91 221.89h54.67v54.64h-54.67z"/><path d="M666.57 278.53h-58.66v-58.64h58.66v58.64zm-54.66-4h50.66v-50.64h-50.66v50.64z"/><path fill="#FFF" d="M664.57 221.89h54.67v54.64h-54.67z"/><path d="M721.24 278.53h-58.67v-58.64h58.67v58.64zm-54.67-4h50.67v-50.64h-50.67v50.64z"/><path fill="#FFF" d="M719.24 221.89h54.67v54.64h-54.67z"/><path d="M775.9 278.53h-58.66v-58.64h58.67v58.64zm-54.66-4h50.67v-50.64h-50.67v50.64z"/><path fill="#FFF" d="M773.91 221.89h54.67v54.64h-54.67z"/><path d="M830.57 278.53h-58.66v-58.64h58.66v58.64zm-54.66-4h50.66v-50.64h-50.66v50.64z"/><path fill="#FFF" d="M828.57 221.89h54.67v54.64h-54.67z"/><path d="M885.24 278.53h-58.67v-58.64h58.67v58.64zm-54.67-4h50.67v-50.64h-50.67v50.64z"/><path fill="#FFF" d="M883.24 221.89h54.67v54.64h-54.67z"/><path d="M939.9 278.53h-58.66v-58.64h58.66v58.64zm-54.66-4h50.66v-50.64h-50.66v50.64z"/><path fill="#FFF" d="M937.9 221.89h54.67v54.64H937.9z"/><path d="M994.57 278.53H935.9v-58.64h58.67v58.64zm-54.67-4h50.67v-50.64H939.9v50.64z"/><path fill="#FFF" d="M445.91 276.53h54.67v54.64h-54.67z"/><path d="M502.57 333.17h-58.66v-58.64h58.66v58.64zm-54.66-4h50.66v-50.64h-50.66v50.64z"/><path fill="#FFF" d="M500.57 276.53h54.67v54.64h-54.67z"/><path d="M557.24 333.17h-58.67v-58.64h58.67v58.64zm-54.67-4h50.67v-50.64h-50.67v50.64z"/><path fill="#FFF" d="M555.24 276.53h54.67v54.64h-54.67z"/><path d="M611.9 333.17h-58.66v-58.64h58.67v58.64zm-54.66-4h50.67v-50.64h-50.67v50.64z"/><path fill="#FFF" d="M609.91 276.53h54.67v54.64h-54.67z"/><path d="M666.57 333.17h-58.66v-58.64h58.66v58.64zm-54.66-4h50.66v-50.64h-50.66v50.64z"/><path fill="#FFF" d="M664.57 276.53h54.67v54.64h-54.67z"/><path d="M721.24 333.17h-58.67v-58.64h58.67v58.64zm-54.67-4h50.67v-50.64h-50.67v50.64z"/><path fill="#FFF" d="M719.24 276.53h54.67v54.64h-54.67z"/><path d="M775.9 333.17h-58.66v-58.64h58.67v58.64zm-54.66-4h50.67v-50.64h-50.67v50.64z"/><path fill="#FFF" d="M773.91 276.53h54.67v54.64h-54.67z"/><path d="M830.57 333.17h-58.66v-58.64h58.66v58.64zm-54.66-4h50.66v-50.64h-50.66v50.64z"/><path fill="#FFF" d="M828.57 276.53h54.67v54.64h-54.67z"/><path d="M885.24 333.17h-58.67v-58.64h58.67v58.64zm-54.67-4h50.67v-50.64h-50.67v50.64z"/><path fill="#FFF" d="M883.24 276.53h54.67v54.64h-54.67z"/><path d="M939.9 333.17h-58.66v-58.64h58.66v58.64zm-54.66-4h50.66v-50.64h-50.66v50.64z"/><path fill="#FFF" d="M937.9 276.53h54.67v54.64H937.9z"/><path d="M994.57 333.17H935.9v-58.64h58.67v58.64zm-54.67-4h50.67v-50.64H939.9v50.64z"/><path fill="#FFF" d="M445.91 331.17h54.67v54.64h-54.67z"/><path d="M502.57 387.8h-58.66v-58.63h58.66v58.64zm-54.66-3.99h50.66v-50.64h-50.66v50.64z"/><path fill="#FFF" d="M500.57 331.17h54.67v54.64h-54.67z"/><path d="M557.24 387.8h-58.67v-58.63h58.67v58.64zm-54.67-3.99h50.67v-50.64h-50.67v50.64z"/><path fill="#FFF" d="M555.24 331.17h54.67v54.64h-54.67z"/><path d="M611.9 387.8h-58.66v-58.63h58.67v58.64zm-54.66-3.99h50.67v-50.64h-50.67v50.64z"/><path fill="#FFF" d="M609.91 331.17h54.67v54.64h-54.67z"/><path d="M666.57 387.8h-58.66v-58.63h58.66v58.64zm-54.66-3.99h50.66v-50.64h-50.66v50.64z"/><path fill="#FFF" d="M664.57 331.17h54.67v54.64h-54.67z"/><path d="M721.24 387.8h-58.67v-58.63h58.67v58.64zm-54.67-3.99h50.67v-50.64h-50.67v50.64z"/><path fill="#FFF" d="M719.24 331.17h54.67v54.64h-54.67z"/><path d="M775.9 387.8h-58.66v-58.63h58.67v58.64zm-54.66-3.99h50.67v-50.64h-50.67v50.64z"/><path fill="#FFF" d="M773.91 331.17h54.67v54.64h-54.67z"/><path d="M830.57 387.8h-58.66v-58.63h58.66v58.64zm-54.66-3.99h50.66v-50.64h-50.66v50.64z"/><path fill="#FFF" d="M828.57 331.17h54.67v54.64h-54.67z"/><path d="M885.24 387.8h-58.67v-58.63h58.67v58.64zm-54.67-3.99h50.67v-50.64h-50.67v50.64z"/><path fill="#FFF" d="M883.24 331.17h54.67v54.64h-54.67z"/><path d="M939.9 387.8h-58.66v-58.63h58.66v58.64zm-54.66-3.99h50.66v-50.64h-50.66v50.64z"/><path fill="#FFF" d="M937.9 331.17h54.67v54.64H937.9z"/><path d="M994.57 387.8H935.9v-58.63h58.67v58.64zm-54.67-3.99h50.67v-50.64H939.9v50.64z"/><path fill="#FFF" d="M445.91 385.81h54.67v54.64h-54.67z"/><path d="M502.57 442.45h-58.66V383.8h58.66v58.64zm-54.66-4h50.66V387.8h-50.66v50.64z"/><path fill="#FFF" d="M500.57 385.81h54.67v54.64h-54.67z"/><path d="M557.24 442.45h-58.67V383.8h58.67v58.64zm-54.67-4h50.67V387.8h-50.67v50.64z"/><path fill="#FFF" d="M555.24 385.81h54.67v54.64h-54.67z"/><path d="M611.9 442.45h-58.66V383.8h58.67v58.64zm-54.66-4h50.67V387.8h-50.67v50.64z"/><path fill="#FFF" d="M609.91 385.81h54.67v54.64h-54.67z"/><path d="M666.57 442.45h-58.66V383.8h58.66v58.64zm-54.66-4h50.66V387.8h-50.66v50.64z"/><path fill="#FFF" d="M664.57 385.81h54.67v54.64h-54.67z"/><path d="M721.24 442.45h-58.67V383.8h58.67v58.64zm-54.67-4h50.67V387.8h-50.67v50.64z"/><path fill="#FFF" d="M719.24 385.81h54.67v54.64h-54.67z"/><path d="M775.9 442.45h-58.66V383.8h58.67v58.64zm-54.66-4h50.67V387.8h-50.67v50.64z"/><path fill="#FFF" d="M773.91 385.81h54.67v54.64h-54.67z"/><path d="M830.57 442.45h-58.66V383.8h58.66v58.64zm-54.66-4h50.66V387.8h-50.66v50.64z"/><path fill="#FFF" d="M828.57 385.81h54.67v54.64h-54.67z"/><path d="M885.24 442.45h-58.67V383.8h58.67v58.64zm-54.67-4h50.67V387.8h-50.67v50.64z"/><path fill="#FFF" d="M883.24 385.81h54.67v54.64h-54.67z"/><path d="M939.9 442.45h-58.66V383.8h58.66v58.64zm-54.66-4h50.66V387.8h-50.66v50.64z"/><path fill="#FFF" d="M937.9 385.81h54.67v54.64H937.9z"/><path d="M994.57 442.45H935.9V383.8h58.67v58.64zm-54.67-4h50.67V387.8H939.9v50.64z"/><path fill="#FFF" d="M445.91 440.45h54.67v54.64h-54.67z"/><path d="M502.57 497.09h-58.66v-58.64h58.66v58.64zm-54.66-4h50.66v-50.64h-50.66v50.64z"/><path fill="#FFF" d="M500.57 440.45h54.67v54.64h-54.67z"/><path d="M557.24 497.09h-58.67v-58.64h58.67v58.64zm-54.67-4h50.67v-50.64h-50.67v50.64z"/><path fill="#FFF" d="M555.24 440.45h54.67v54.64h-54.67z"/><path d="M611.9 497.09h-58.66v-58.64h58.67v58.64zm-54.66-4h50.67v-50.64h-50.67v50.64z"/><path fill="#FFF" d="M609.91 440.45h54.67v54.64h-54.67z"/><path d="M666.57 497.09h-58.66v-58.64h58.66v58.64zm-54.66-4h50.66v-50.64h-50.66v50.64z"/><path fill="#FFF" d="M664.57 440.45h54.67v54.64h-54.67z"/><path d="M721.24 497.09h-58.67v-58.64h58.67v58.64zm-54.67-4h50.67v-50.64h-50.67v50.64z"/><path fill="#FFF" d="M719.24 440.45h54.67v54.64h-54.67z"/><path d="M775.9 497.09h-58.66v-58.64h58.67v58.64zm-54.66-4h50.67v-50.64h-50.67v50.64z"/><path fill="#FFF" d="M773.91 440.45h54.67v54.64h-54.67z"/><path d="M830.57 497.09h-58.66v-58.64h58.66v58.64zm-54.66-4h50.66v-50.64h-50.66v50.64z"/><path fill="#2E9AFF" d="M828.57 440.45h54.67v54.64h-54.67z"/><path d="M885.24 497.09h-58.67v-58.64h58.67v58.64zm-54.67-4h50.67v-50.64h-50.67v50.64z"/><path fill="#2E9AFF" d="M883.24 440.45h54.67v54.64h-54.67z"/><path d="M939.9 497.09h-58.66v-58.64h58.66v58.64zm-54.66-4h50.66v-50.64h-50.66v50.64z"/><path fill="#FFF" d="M937.9 440.45h54.67v54.64H937.9z"/><path d="M994.57 497.09H935.9v-58.64h58.67v58.64zm-54.67-4h50.67v-50.64H939.9v50.64z"/><path fill="#FFF" d="M445.91 495.09h54.67v54.64h-54.67z"/><path d="M502.57 551.73h-58.66v-58.64h58.66v58.64zm-54.66-4h50.66v-50.64h-50.66v50.64z"/><path fill="#2E9AFF" d="M500.57 495.09h54.67v54.64h-54.67z"/><path d="M557.24 551.73h-58.67v-58.64h58.67v58.64zm-54.67-4h50.67v-50.64h-50.67v50.64z"/><path fill="#2E9AFF" d="M555.24 495.09h54.67v54.64h-54.67z"/><path d="M611.9 551.73h-58.66v-58.64h58.67v58.64zm-54.66-4h50.67v-50.64h-50.67v50.64z"/><path fill="#FFF" d="M609.91 495.09h54.67v54.64h-54.67z"/><path d="M666.57 551.73h-58.66v-58.64h58.66v58.64zm-54.66-4h50.66v-50.64h-50.66v50.64z"/><path fill="#FFF" d="M664.57 495.09h54.67v54.64h-54.67z"/><path d="M721.24 551.73h-58.67v-58.64h58.67v58.64zm-54.67-4h50.67v-50.64h-50.67v50.64z"/><path fill="#FFF" d="M719.24 495.09h54.67v54.64h-54.67z"/><path d="M775.9 551.73h-58.66v-58.64h58.67v58.64zm-54.66-4h50.67v-50.64h-50.67v50.64z"/><path fill="#FFF" d="M773.91 495.09h54.67v54.64h-54.67z"/><path d="M830.57 551.73h-58.66v-58.64h58.66v58.64zm-54.66-4h50.66v-50.64h-50.66v50.64z"/><path fill="#FFF" d="M828.57 495.09h54.67v54.64h-54.67z"/><path d="M885.24 551.73h-58.67v-58.64h58.67v58.64zm-54.67-4h50.67v-50.64h-50.67v50.64z"/><path fill="#2E9AFF" d="M883.24 495.09h54.67v54.64h-54.67z"/><path d="M939.9 551.73h-58.66v-58.64h58.66v58.64zm-54.66-4h50.66v-50.64h-50.66v50.64z"/><path fill="#2E9AFF" d="M937.9 495.09h54.67v54.64H937.9z"/><path d="M994.57 551.73H935.9v-58.64h58.67v58.64zm-54.67-4h50.67v-50.64H939.9v50.64z"/><g><path fill="#FFF" d="M445.91 549.73h54.67v54.64h-54.67z"/><path d="M502.57 606.37h-58.66v-58.64h58.66v58.64zm-54.66-4h50.66v-50.64h-50.66v50.64z"/><path fill="#FFF" d="M500.57 549.73h54.67v54.64h-54.67z"/><path d="M557.24 606.37h-58.67v-58.64h58.67v58.64zm-54.67-4h50.67v-50.64h-50.67v50.64z"/><path fill="#2E9AFF" d="M555.24 549.73h54.67v54.64h-54.67z"/><path d="M611.9 606.37h-58.66v-58.64h58.67v58.64zm-54.66-4h50.67v-50.64h-50.67v50.64z"/><path fill="#FFF" d="M609.91 549.73h54.67v54.64h-54.67z"/><path d="M666.57 606.37h-58.66v-58.64h58.66v58.64zm-54.66-4h50.66v-50.64h-50.66v50.64z"/><path fill="#FFF" d="M664.57 549.73h54.67v54.64h-54.67z"/><path d="M721.24 606.37h-58.67v-58.64h58.67v58.64zm-54.67-4h50.67v-50.64h-50.67v50.64z"/><path fill="#FFF" d="M719.24 549.73h54.67v54.64h-54.67z"/><path d="M775.9 606.37h-58.66v-58.64h58.67v58.64zm-54.66-4h50.67v-50.64h-50.67v50.64z"/><path fill="#FFF" d="M773.91 549.73h54.67v54.64h-54.67z"/><path d="M830.57 606.37h-58.66v-58.64h58.66v58.64zm-54.66-4h50.66v-50.64h-50.66v50.64z"/><path fill="#FFF" d="M828.57 549.73h54.67v54.64h-54.67z"/><path d="M885.24 606.37h-58.67v-58.64h58.67v58.64zm-54.67-4h50.67v-50.64h-50.67v50.64z"/><path fill="#FFF" d="M883.24 549.73h54.67v54.64h-54.67z"/><path d="M939.9 606.37h-58.66v-58.64h58.66v58.64zm-54.66-4h50.66v-50.64h-50.66v50.64z"/><path fill="#FFF" d="M937.9 549.73h54.67v54.64H937.9z"/><path d="M994.57 606.37H935.9v-58.64h58.67v58.64zm-54.67-4h50.67v-50.64H939.9v50.64z"/></g><g><path fill="#FFF" d="M445.91 604.37h54.67v54.64h-54.67z"/><path d="M502.57 661h-58.66v-58.63h58.66V661zm-54.66-4h50.66v-50.63h-50.66V657z"/><path fill="#FFF" d="M500.57 604.37h54.67v54.64h-54.67z"/><path d="M557.24 661h-58.67v-58.63h58.67V661zm-54.67-4h50.67v-50.63h-50.67V657z"/><path fill="#2E9AFF" d="M555.24 604.37h54.67v54.64h-54.67z"/><path d="M611.9 661h-58.66v-58.63h58.67V661zm-54.66-4h50.67v-50.63h-50.67V657z"/><path fill="#FFF" d="M609.91 604.37h54.67v54.64h-54.67z"/><path d="M666.57 661h-58.66v-58.63h58.66V661zm-54.66-4h50.66v-50.63h-50.66V657z"/><path fill="#FFF" d="M664.57 604.37h54.67v54.64h-54.67z"/><path d="M721.24 661h-58.67v-58.63h58.67V661zm-54.67-4h50.67v-50.63h-50.67V657z"/><path fill="#FFF" d="M719.24 604.37h54.67v54.64h-54.67z"/><path d="M775.9 661h-58.66v-58.63h58.67V661zm-54.66-4h50.67v-50.63h-50.67V657z"/><path fill="#2E9AFF" d="M773.91 604.37h54.67v54.64h-54.67z"/><path d="M830.57 661h-58.66v-58.63h58.66V661zm-54.66-4h50.66v-50.63h-50.66V657z"/><path fill="#2E9AFF" d="M828.57 604.37h54.67v54.64h-54.67z"/><path d="M885.24 661h-58.67v-58.63h58.67V661zm-54.67-4h50.67v-50.63h-50.67V657z"/><path fill="#2E9AFF" d="M883.24 604.37h54.67v54.64h-54.67z"/><path d="M939.9 661h-58.66v-58.63h58.66V661zm-54.66-4h50.66v-50.63h-50.66V657z"/><path fill="#2E9AFF" d="M937.9 604.37h54.67v54.64H937.9z"/><path d="M994.57 661H935.9v-58.63h58.67V661zm-54.67-4h50.67v-50.63H939.9V657z"/></g><g><path fill="#2E9AFF" d="M445.91 659.01h54.67v54.64h-54.67z"/><path d="M502.57 715.65h-58.66V657h58.66v58.64zm-54.66-4h50.66V661h-50.66v50.64z"/><path fill="#FFF" d="M500.57 659.01h54.67v54.64h-54.67z"/><path d="M557.24 715.65h-58.67V657h58.67v58.64zm-54.67-4h50.67V661h-50.67v50.64z"/><path fill="#2E9AFF" d="M555.24 659.01h54.67v54.64h-54.67z"/><path d="M611.9 715.65h-58.66V657h58.67v58.64zm-54.66-4h50.67V661h-50.67v50.64z"/><path fill="#FFF" d="M609.91 659.01h54.67v54.64h-54.67z"/><path d="M666.57 715.65h-58.66V657h58.66v58.64zm-54.66-4h50.66V661h-50.66v50.64z"/><path fill="#2E9AFF" d="M664.57 659.01h54.67v54.64h-54.67z"/><path d="M721.24 715.65h-58.67V657h58.67v58.64zm-54.67-4h50.67V661h-50.67v50.64z"/><path fill="#2E9AFF" d="M719.24 659.01h54.67v54.64h-54.67z"/><path d="M775.9 715.65h-58.66V657h58.67v58.64zm-54.66-4h50.67V661h-50.67v50.64z"/><path fill="#2E9AFF" d="M773.91 659.01h54.67v54.64h-54.67z"/><path d="M830.57 715.65h-58.66V657h58.66v58.64zm-54.66-4h50.66V661h-50.66v50.64z"/><path fill="#2E9AFF" d="M828.57 659.01h54.67v54.64h-54.67z"/><path d="M885.24 715.65h-58.67V657h58.67v58.64zm-54.67-4h50.67V661h-50.67v50.64z"/><path fill="#2E9AFF" d="M883.24 659.01h54.67v54.64h-54.67z"/><path d="M939.9 715.65h-58.66V657h58.66v58.64zm-54.66-4h50.66V661h-50.66v50.64z"/><path fill="#2E9AFF" d="M937.9 659.01h54.67v54.64H937.9z"/><path d="M994.57 715.65H935.9V657h58.67v58.64zm-54.67-4h50.67V661H939.9v50.64z"/></g><g><path fill="#2E9AFF" d="M445.91 713.65h54.67v54.64h-54.67z"/><path d="M502.57 770.29h-58.66v-58.64h58.66v58.64zm-54.66-4h50.66v-50.64h-50.66v50.64z"/><path fill="#2E9AFF" d="M500.57 713.65h54.67v54.64h-54.67z"/><path d="M557.24 770.29h-58.67v-58.64h58.67v58.64zm-54.67-4h50.67v-50.64h-50.67v50.64z"/><path fill="#2E9AFF" d="M555.24 713.65h54.67v54.64h-54.67z"/><path d="M611.9 770.29h-58.66v-58.64h58.67v58.64zm-54.66-4h50.67v-50.64h-50.67v50.64z"/><path fill="#2E9AFF" d="M609.91 713.65h54.67v54.64h-54.67z"/><path d="M666.57 770.29h-58.66v-58.64h58.66v58.64zm-54.66-4h50.66v-50.64h-50.66v50.64z"/><path fill="#2E9AFF" d="M664.57 713.65h54.67v54.64h-54.67z"/><path d="M721.24 770.29h-58.67v-58.64h58.67v58.64zm-54.67-4h50.67v-50.64h-50.67v50.64z"/><path fill="#2E9AFF" d="M719.24 713.65h54.67v54.64h-54.67z"/><path d="M775.9 770.29h-58.66v-58.64h58.67v58.64zm-54.66-4h50.67v-50.64h-50.67v50.64z"/><path fill="#2E9AFF" d="M773.91 713.65h54.67v54.64h-54.67z"/><path d="M830.57 770.29h-58.66v-58.64h58.66v58.64zm-54.66-4h50.66v-50.64h-50.66v50.64z"/><path fill="#2E9AFF" d="M828.57 713.65h54.67v54.64h-54.67z"/><path d="M885.24 770.29h-58.67v-58.64h58.67v58.64zm-54.67-4h50.67v-50.64h-50.67v50.64z"/><path fill="#2E9AFF" d="M883.24 713.65h54.67v54.64h-54.67z"/><path d="M939.9 770.29h-58.66v-58.64h58.66v58.64zm-54.66-4h50.66v-50.64h-50.66v50.64z"/><path fill="#FFF" d="M937.9 713.65h54.67v54.64H937.9z"/><path d="M994.57 770.29H935.9v-58.64h58.67v58.64zm-54.67-4h50.67v-50.64H939.9v50.64z"/></g><g><path fill="#2E9AFF" d="M445.91 768.29h54.67v54.64h-54.67z"/><path d="M502.57 824.93h-58.66v-58.64h58.66v58.64zm-54.66-4h50.66v-50.64h-50.66v50.64z"/><path fill="#FFF" d="M500.57 768.29h54.67v54.64h-54.67z"/><path d="M557.24 824.93h-58.67v-58.64h58.67v58.64zm-54.67-4h50.67v-50.64h-50.67v50.64z"/><path fill="#2E9AFF" d="M555.24 768.29h54.67v54.64h-54.67z"/><path d="M611.9 824.93h-58.66v-58.64h58.67v58.64zm-54.66-4h50.67v-50.64h-50.67v50.64z"/><path fill="#2E9AFF" d="M609.91 768.29h54.67v54.64h-54.67z"/><path d="M666.57 824.93h-58.66v-58.64h58.66v58.64zm-54.66-4h50.66v-50.64h-50.66v50.64z"/><path fill="#2E9AFF" d="M664.57 768.29h54.67v54.64h-54.67z"/><path d="M721.24 824.93h-58.67v-58.64h58.67v58.64zm-54.67-4h50.67v-50.64h-50.67v50.64z"/><path fill="#2E9AFF" d="M719.24 768.29h54.67v54.64h-54.67z"/><path d="M775.9 824.93h-58.66v-58.64h58.67v58.64zm-54.66-4h50.67v-50.64h-50.67v50.64z"/><path fill="#2E9AFF" d="M773.91 768.29h54.67v54.64h-54.67z"/><path d="M830.57 824.93h-58.66v-58.64h58.66v58.64zm-54.66-4h50.66v-50.64h-50.66v50.64z"/><path fill="#2E9AFF" d="M828.57 768.29h54.67v54.64h-54.67z"/><path d="M885.24 824.93h-58.67v-58.64h58.67v58.64zm-54.67-4h50.67v-50.64h-50.67v50.64z"/><path fill="#2E9AFF" d="M883.24 768.29h54.67v54.64h-54.67z"/><path d="M939.9 824.93h-58.66v-58.64h58.66v58.64zm-54.66-4h50.66v-50.64h-50.66v50.64z"/><path fill="#2E9AFF" d="M937.9 768.29h54.67v54.64H937.9z"/><path d="M994.57 824.93H935.9v-58.64h58.67v58.64zm-54.67-4h50.67v-50.64H939.9v50.64z"/></g><g><path fill="#2E9AFF" d="M664.57 112.61h54.67v54.64h-54.67z"/><path d="M721.24 169.25h-58.67V110.6h58.67v58.64zm-54.67-4h50.67V114.6h-50.67v50.64z"/></g><g><path fill="#2E9AFF" d="M719.24 112.61h54.67v54.64h-54.67z"/><path d="M775.9 169.25h-58.66V110.6h58.67v58.64zm-54.66-4h50.67V114.6h-50.67v50.64z"/></g><g><path fill="#2E9AFF" d="M664.57 167.25h54.67v54.64h-54.67z"/><path d="M721.24 223.89h-58.67v-58.64h58.67v58.64zm-54.67-4h50.67v-50.64h-50.67v50.64z"/></g><g><path fill="#2E9AFF" d="M719.24 167.25h54.67v54.64h-54.67z"/><path d="M775.9 223.89h-58.66v-58.64h58.67v58.64zm-54.66-4h50.67v-50.64h-50.67v50.64z"/></g><g><ellipse cx="138.28" cy="127.05" rx="110.74" ry="110.69"/><ellipse fill="#2E9AFF" cx="112.74" cy="114.28" rx="110.74" ry="110.69"/><path d="M112.74 226.97C50.58 226.97 0 176.4 0 114.27S50.58 1.6 112.74 1.6s112.74 50.55 112.74 112.69-50.57 112.69-112.74 112.69zm0-221.38C52.78 5.59 4 54.35 4 114.28s48.78 108.69 108.74 108.69 108.74-48.76 108.74-108.7S172.7 5.6 112.74 5.6z"/><path fill="#FFF" d="M177.5 99.62c-.9 0-1.78.05-2.64.15a67.14 67.14 0 0 0-128.96 0 23.3 23.3 0 1 0 3.04 45.74 67.13 67.13 0 0 0 122.87 0 23.3 23.3 0 1 0 5.68-45.89z"/><path d="M110.38 187.55a69.18 69.18 0 0 1-62.6-39.75 25.33 25.33 0 0 1-29.84-24.89 25.33 25.33 0 0 1 26.51-25.26 69.46 69.46 0 0 1 65.93-48.28 69.45 69.45 0 0 1 65.92 48.28l1.2-.03a25.33 25.33 0 0 1 25.3 25.3 25.33 25.33 0 0 1-29.83 24.88 69.19 69.19 0 0 1-62.6 39.75zm-60.29-44.4.68 1.55a65.18 65.18 0 0 0 59.6 38.85c25.8 0 49.2-15.25 59.61-38.85l.68-1.54 1.64.4a21.32 21.32 0 0 0 26.5-20.65 21.33 21.33 0 0 0-23.72-21.15l-1.68.19-.47-1.62c-8-27.65-33.73-46.96-62.55-46.96a65.42 65.42 0 0 0-62.56 46.96l-.47 1.62-1.68-.2a21.33 21.33 0 0 0-23.72 21.16 21.33 21.33 0 0 0 26.5 20.66l1.64-.41z"/><path fill="none" d="m31.45 116.75 14.29 15.53"/><path d="M45.74 134.28a2 2 0 0 1-1.47-.65l-14.3-15.52a2 2 0 1 1 2.95-2.71l14.3 15.53a2 2 0 0 1-1.48 3.35z"/><path fill="none" d="m186.52 116.75-14.29 15.53"/><path d="M172.22 134.28a2 2 0 0 1-1.47-3.35l14.3-15.53a2 2 0 0 1 2.94 2.7l-14.3 15.53a2 2 0 0 1-1.47.65z"/><path fill="none" d="M109.91 125.65v12.89"/><path d="M109.91 140.54a2 2 0 0 1-2-2v-12.9a2 2 0 0 1 4 0v12.9a2 2 0 0 1-2 2z"/><path fill="#2E9AFF" d="M132.6 145.95a22.68 22.68 0 0 1-45.37 0h45.37z"/><path d="M69.84 140.54a2 2 0 0 1-.88-3.8l19.88-9.8-19.96-11.03a2 2 0 0 1 1.93-3.5l23.32 12.89a2 2 0 0 1-.09 3.54l-23.31 11.49a2 2 0 0 1-.89.2zm80.09 0c-.3 0-.6-.07-.88-.21l-23.32-11.5a2 2 0 0 1-.08-3.53l23.31-12.89a2 2 0 0 1 1.94 3.5l-19.97 11.04 19.89 9.8a2 2 0 0 1-.89 3.79z"/></g><g><path d="M110.91 53.1c-.12-.63-.24-1.27-.33-1.9a67.72 67.72 0 0 0-65.14 50.43A59.82 59.82 0 0 0 110.9 53.1zm.34-1.9c-.1.63-.22 1.27-.34 1.9a59.82 59.82 0 0 0 65.48 48.52 67.72 67.72 0 0 0-65.14-50.43zm-.67-.14c.1.64.21 1.26.33 1.9.12-.64.24-1.26.33-1.9h-.66z"/></g></svg>