<svg xmlns="http://www.w3.org/2000/svg" viewBox="0 0 800 919.88" xml:space="preserve"><path d="M363.98 728.67h288.4v111.64h-288.4z"/><path fill="#FFF" d="M341.65 722.89h288.4v94.1h-288.4z"/><path d="M631.63 818.58H340.06V721.3h291.57v97.28zm-288.4-3.18h285.22v-90.92H343.24v90.92z"/><path d="M382.1 752.23h4.04v9.29h-15V738.7h4.47v18.84h6.48v-5.31zm23.47 7.57c-.28.25-.65.5-1.1.76a11.86 11.86 0 0 1-5.82 1.42c-1.39 0-2.63-.2-3.73-.6a7.51 7.51 0 0 1-2.79-1.7 7.47 7.47 0 0 1-1.74-2.7 10.2 10.2 0 0 1-.6-3.61c0-1.44.23-2.7.68-3.77a7.51 7.51 0 0 1 4.66-4.3 10.75 10.75 0 0 1 6.02-.21c.88.22 1.69.59 2.43 1.12a6.02 6.02 0 0 1 1.81 2.14c.47.89.7 2.02.7 3.39 0 .94-.1 1.95-.32 3.03h-11.74a3.48 3.48 0 0 0 1.51 2.93c.45.31.96.53 1.54.67a9.52 9.52 0 0 0 5.05-.24c.84-.3 1.52-.67 2.04-1.1l1.4 2.76zm-7.05-11.65c-.56 0-1.1.08-1.6.24s-.95.38-1.35.68-.73.67-1 1.1-.4.95-.45 1.5h8.02a3.6 3.6 0 0 0-.9-2.57c-.6-.63-1.5-.95-2.72-.95zm19.41 8.45h.22l3.65-11.38h4.57l-6.23 16.3h-4.53l-7.01-16.3h4.92l4.4 11.38zm26.77 3.2c-.3.25-.66.5-1.1.76a11.84 11.84 0 0 1-5.82 1.42c-1.4 0-2.64-.2-3.73-.6a7.5 7.5 0 0 1-2.8-1.7 7.47 7.47 0 0 1-1.74-2.7 10.2 10.2 0 0 1-.6-3.61c0-1.44.23-2.7.69-3.77a7.51 7.51 0 0 1 4.66-4.3 10.75 10.75 0 0 1 6.01-.21c.89.22 1.7.59 2.43 1.12a6.02 6.02 0 0 1 1.81 2.14c.47.89.7 2.02.7 3.39 0 .94-.1 1.95-.32 3.03h-11.74a3.48 3.48 0 0 0 1.51 2.93c.45.31.96.53 1.54.67a9.52 9.52 0 0 0 5.05-.24c.84-.3 1.52-.67 2.04-1.1l1.4 2.76zm-7.05-11.65a5.2 5.2 0 0 0-2.95.92c-.4.3-.74.67-1 1.1a3.4 3.4 0 0 0-.45 1.5h8.02a3.6 3.6 0 0 0-.9-2.57c-.6-.63-1.5-.95-2.72-.95zm12.03-9.45h6.94v15.06c0 1.68.21 2.84.62 3.49.42.65 1.08.98 2 .98a5.1 5.1 0 0 0 2.96-.82l1.6 2.94c-.37.23-.74.46-1.1.66a7.13 7.13 0 0 1-2.54.85c-.49.08-1.04.11-1.64.11-2.05 0-3.58-.52-4.6-1.56-1.02-1.04-1.53-2.52-1.53-4.43v-13.7h-2.7v-3.58zm-79.85 43.71c0-1.97.21-3.7.63-5.2s1-2.72 1.75-3.7a7.25 7.25 0 0 1 2.7-2.2 8.17 8.17 0 0 1 3.5-.73c2.75 0 4.86.96 6.35 2.89 1.48 1.92 2.23 4.9 2.23 8.95 0 2-.21 3.74-.63 5.23a10.9 10.9 0 0 1-1.75 3.71 7.15 7.15 0 0 1-2.72 2.22 8.28 8.28 0 0 1-3.51.74c-2.77 0-4.9-1.02-6.35-3.05s-2.2-4.99-2.2-8.86zm4.24 0c0 .33 0 .64.02.93l.05.9 7.89-7.27c-.65-1.87-1.86-2.8-3.65-2.8-1.38 0-2.45.66-3.19 2s-1.12 3.42-1.12 6.24zm8.68 0a26.1 26.1 0 0 0-.07-1.92l-7.92 7.27c.66 1.98 1.88 2.97 3.65 2.97 1.38 0 2.45-.67 3.2-2 .76-1.32 1.14-3.43 1.14-6.32zm8.86 7.86h4.99v-14.25l-4.3 3.3-1.96-2.61 7.44-5.68h2.86v19.24h4.9v3.59H391.6v-3.59zm24.19.46c.72 0 1.38-.1 1.98-.28.6-.18 1.1-.44 1.53-.78.43-.33.76-.72 1-1.16a3 3 0 0 0 .35-1.45c0-.65-.13-1.2-.4-1.64s-.65-.8-1.13-1.05a5.45 5.45 0 0 0-1.73-.56c-.67-.1-1.4-.16-2.18-.16h-1.83v-2.34l5.48-6.69h-8.25v-3.59h13.3V774l-5.73 6.56h.75c.76 0 1.5.13 2.21.39a5.47 5.47 0 0 1 3.25 3.13c.34.78.5 1.68.5 2.7a6.7 6.7 0 0 1-.76 3.27 7.41 7.41 0 0 1-2.02 2.36 8.66 8.66 0 0 1-2.9 1.43c-1.08.32-2.2.48-3.35.48-.98 0-1.95-.09-2.93-.26s-1.93-.45-2.84-.82l1.14-3.52c.2.1.46.22.8.33a19.41 19.41 0 0 0 2.45.58c.44.07.88.1 1.32.1zM618 768.37l-29.57-29.56-.08 13.79h-29.03v31.89h28.84l-.08 13.8zM22.9 733.71h261.37v186.17H22.9z"/><path fill="#FFF" d="M2.67 722.89h261.37v176H2.67z"/><path d="M265.47 900.33H1.22V721.45h264.25v178.88zM4.11 897.45h258.48V724.33H4.11v173.12z"/><path fill="#2E9AFF" d="M51.35 785.64h39.4v39.4h-39.4z"/><path fill="#FFF" d="M92.19 826.48H49.91V784.2h42.28v42.28zm-39.4-2.88h36.52v-36.52H52.79v36.52z"/><path fill="#2E9AFF" d="M90.75 785.64h39.4v39.4h-39.4z"/><path fill="#FFF" d="M131.59 826.48H89.3V784.2h42.28v42.28zm-39.4-2.88h36.51v-36.52H92.2v36.52z"/><path fill="#2E9AFF" d="M130.15 785.64h39.4v39.4h-39.4z"/><path fill="#FFF" d="M170.98 826.48H128.7V784.2h42.28v42.28zm-39.4-2.88h36.52v-36.52h-36.5v36.52z"/><path fill="#2E9AFF" d="M169.54 785.64h39.4v39.4h-39.4z"/><path fill="#FFF" d="M210.38 826.48H168.1V784.2h42.28v42.28zm-39.4-2.88h36.52v-36.52h-36.52v36.52z"/><path d="M208.94 846.92h17.29v17.29h-17.29z"/><path fill="#FFF" d="M227.67 865.65H207.5v-20.17h20.17v20.17zm-17.29-2.88h14.4v-14.4h-14.4v14.4z"/><path d="M226.23 846.92h17.28v17.29h-17.28z"/><path fill="#FFF" d="M244.95 865.65h-20.17v-20.17h20.17v20.17zm-17.28-2.88h14.4v-14.4h-14.4v14.4z"/><path d="M208.94 864.21h17.29v17.28h-17.29z"/><path fill="#FFF" d="M227.67 882.93H207.5v-20.16h20.17v20.16zm-17.29-2.88h14.4v-14.4h-14.4v14.4z"/><path d="M226.23 864.21h17.28v17.28h-17.28z"/><path fill="#FFF" d="M244.95 882.93h-20.17v-20.16h20.17v20.16zm-17.28-2.88h14.4v-14.4h-14.4v14.4z"/><path d="M31.83 750.12h-.14l.17 2.46v9.78h-3.84v-20.69h3.55l7.15 12.65h.14l-.26-2.48v-10.17h3.84v20.69h-3.55l-7.06-12.24zm28.04 10.67a5.2 5.2 0 0 1-.99.7 11.2 11.2 0 0 1-5.27 1.29c-1.26 0-2.39-.19-3.38-.54-1-.36-1.84-.87-2.53-1.55a6.78 6.78 0 0 1-1.58-2.46 9.1 9.1 0 0 1-.55-3.26c0-1.3.21-2.44.62-3.41a6.8 6.8 0 0 1 4.23-3.9 9.76 9.76 0 0 1 5.45-.2c.8.2 1.53.54 2.2 1.02a5.47 5.47 0 0 1 1.64 1.94c.42.81.64 1.83.64 3.07 0 .85-.1 1.77-.3 2.75H49.41a3.14 3.14 0 0 0 1.37 2.66c.41.28.87.48 1.4.6a8.63 8.63 0 0 0 4.58-.22 6.1 6.1 0 0 0 1.84-1l1.27 2.51zm-6.38-10.55a4.59 4.59 0 0 0-2.67.83c-.37.27-.67.6-.9 1.01-.24.4-.38.85-.42 1.35h7.27c0-.98-.27-1.76-.81-2.33-.54-.57-1.37-.86-2.47-.86zm14.57 4.49-5.14-7.15h4.58l3.34 4.94 3.48-4.94h4.17l-5.05 7.1 5.34 7.68h-4.46l-3.75-5.44-3.81 5.44h-4.2l5.5-7.63zm14.92-3.9h-2.93v-3.25h2.93v-3.37l3.84-1.09v4.46h7.74v3.25h-7.74v4.23c0 1.52.29 2.61.86 3.3a2.95 2.95 0 0 0 2.4 1.01 5.06 5.06 0 0 0 2.6-.68c.35-.2.67-.4.95-.64l.78-.65 1.78 2.66c-.34.4-.76.75-1.26 1.07a10.74 10.74 0 0 1-3.44 1.44 8.7 8.7 0 0 1-1.86.2c-2.2 0-3.87-.61-4.98-1.84-1.11-1.24-1.67-3.2-1.67-5.87v-4.23zM35.6 868.9c-.22-.1-.47-.17-.75-.21a6.09 6.09 0 0 0-1-.07c-.56 0-1.1.1-1.63.3-.54.2-1 .53-1.42.99a5.1 5.1 0 0 0-1 1.8 8.62 8.62 0 0 0-.37 2.72c0 .97.11 1.82.34 2.54s.53 1.33.93 1.82c.4.48.88.85 1.44 1.09a4.7 4.7 0 0 0 1.87.36 4.9 4.9 0 0 0 1.82-.34v-2.02h1.5v2.72l.01.04c-.4.31-.91.57-1.53.78a7.38 7.38 0 0 1-4.61-.12 5 5 0 0 1-1.87-1.32c-.52-.6-.93-1.35-1.22-2.27s-.43-2.02-.43-3.28c0-1.32.16-2.44.48-3.36.32-.92.76-1.68 1.31-2.26s1.2-1.01 1.93-1.28 1.52-.4 2.35-.4a7.9 7.9 0 0 1 2.08.2c.26.05.48.13.68.22.2.1.38.2.57.32h.02v3.19h-1.49v-2.16zm10.18 2.5h2.89v6.88c0 .66.04 1.3.12 1.9h1.35v1.31h-2.7l-.07-1.71h-.08a3.99 3.99 0 0 1-3.48 1.95c-.62 0-1.14-.07-1.58-.2s-.8-.4-1.07-.74a3.42 3.42 0 0 1-.63-1.4 9.96 9.96 0 0 1-.2-2.2v-4.43h-1.35v-1.36h2.94v5.47c0 .56.03 1.05.07 1.49.05.43.15.8.3 1.1.14.3.36.54.64.7.3.15.68.22 1.16.22.69 0 1.3-.22 1.8-.68.52-.46.91-1.03 1.18-1.72v-5.23h-1.3v-1.35zm6.13 10.1v-1.36h2.73v-7.39H51.9v-1.35h3.78l.32 1.31h.1a7.9 7.9 0 0 1 1.53-1.07 4.3 4.3 0 0 1 2.02-.44c.46 0 .83.09 1.1.26.28.18.5.43.65.77a4 4 0 0 1 .31 1.22c.05.48.08 1.02.08 1.63l-1.41.02c0-.86-.09-1.48-.25-1.88s-.48-.6-.92-.6a3.32 3.32 0 0 0-2.01.62 5.05 5.05 0 0 0-1.02.96v5.94h3.88v1.35H51.9zm12.11 0v-1.36h2.73v-7.39h-2.73v-1.35h3.77l.33 1.31h.1a7.9 7.9 0 0 1 1.53-1.07 4.3 4.3 0 0 1 2.02-.44c.46 0 .82.09 1.1.26.28.18.49.43.65.77a4 4 0 0 1 .3 1.22c.06.48.09 1.02.09 1.63l-1.41.02c0-.86-.09-1.48-.26-1.88s-.47-.6-.91-.6a3.32 3.32 0 0 0-2.01.62 5.05 5.05 0 0 0-1.02.96v5.94h3.87v1.35h-8.15zm21.45-1.28a6.23 6.23 0 0 1-1.94 1.09 7.85 7.85 0 0 1-2.5.42c-.8 0-1.52-.12-2.14-.37a4.11 4.11 0 0 1-1.55-1.07 4.7 4.7 0 0 1-.95-1.66 6.88 6.88 0 0 1-.32-2.19c0-.84.11-1.6.35-2.26a4.4 4.4 0 0 1 2.63-2.67 6.36 6.36 0 0 1 3.8-.13 3.3 3.3 0 0 1 1.46.84c.42.4.75.97.98 1.7s.31 1.64.24 2.79h-7.79c0 1.2.33 2.11.98 2.71.65.6 1.52.9 2.6.9.37 0 .73-.05 1.08-.13.36-.1.7-.2 1.02-.32a5.59 5.59 0 0 0 1.43-.8l.62 1.15zm-4.25-7.73c-.44 0-.86.05-1.26.14a2.76 2.76 0 0 0-1.79 1.35c-.2.36-.31.8-.37 1.32h6.26a3.1 3.1 0 0 0-.86-2.07c-.5-.5-1.16-.74-1.98-.74zm7.56 2.44a14.05 14.05 0 0 0-.1-1.7c-.01-.2-.03-.37-.06-.52h-1.35v-1.3h2.7l.18 1.63h.1a4.11 4.11 0 0 1 3.45-1.88c.62 0 1.17.07 1.65.2.48.14.87.38 1.19.72.31.34.55.8.71 1.4.17.58.25 1.32.25 2.22v5.8h-1.6v-5.48c0-1.12-.18-1.96-.54-2.52-.36-.56-1.02-.85-1.97-.85-.35 0-.69.07-1.02.21a3.51 3.51 0 0 0-1.6 1.35c-.2.3-.34.62-.44.96v6.32h-1.55v-6.56zm10.86-3.53h2.4v-2l1.6-.44v2.44h5.38v1.36h-5.39v4.76c0 .98.24 1.7.71 2.18.48.47 1.16.7 2.05.7.6 0 1.13-.1 1.57-.34a8.6 8.6 0 0 0 1.22-.75l.52 1.2a5.98 5.98 0 0 1-3.7 1.25c-.53 0-1.04-.08-1.51-.24s-.9-.39-1.26-.71a3.42 3.42 0 0 1-.87-1.24c-.22-.5-.32-1.1-.32-1.81v-5h-2.4v-1.36zm-76.7-594.61h261.83v399.2H22.94z"/><path fill="#FFF" d="M2.67 255.32H264.5v399.2H2.67z"/><path d="M266.08 656.11h-265V253.73h265v402.38zM4.26 652.93H262.9V256.9H4.26v396.02z"/><path d="M30.7 301.4h3.59v3.24l.2.06a8.23 8.23 0 0 0 3.55.75c1.21 0 2.16-.24 2.83-.73a2.32 2.32 0 0 0 1.02-1.98 2.2 2.2 0 0 0-.84-1.79 8.4 8.4 0 0 0-2.05-1.2c-.82-.35-1.7-.7-2.67-1.05a12.8 12.8 0 0 1-2.68-1.32 7.39 7.39 0 0 1-2.05-2 5.4 5.4 0 0 1-.83-3.13 6.27 6.27 0 0 1 2.17-4.8 7.42 7.42 0 0 1 2.46-1.37 9.86 9.86 0 0 1 3.2-.49c1.32 0 2.62.12 3.9.36 1.29.24 2.3.57 3.07.98v6.62h-3.59v-3.62a4.27 4.27 0 0 0-5.85.16c-.6.42-.9.97-.9 1.67 0 .71.28 1.3.84 1.76a9.2 9.2 0 0 0 2.05 1.24c.81.37 1.7.73 2.67 1.1.97.37 1.86.82 2.68 1.36.81.53 1.5 1.2 2.05 2 .56.8.83 1.82.83 3.03a6.24 6.24 0 0 1-2.48 5.3 8 8 0 0 1-2.77 1.34c-1.06.3-2.21.44-3.45.44a12.61 12.61 0 0 1-4.26-.69 13.74 13.74 0 0 1-2.68-1.17v-6.06zm20.58-5.24h-3.23v-3.59h3.23v-3.71l4.24-1.21v4.92h8.54v3.59h-8.54v4.66c0 1.67.3 2.89.94 3.63a3.26 3.26 0 0 0 2.64 1.13 5.6 5.6 0 0 0 2.89-.75c.38-.22.73-.46 1.04-.72l.86-.71 1.96 2.93c-.37.44-.83.83-1.39 1.19a11.68 11.68 0 0 1-3.8 1.58c-.69.15-1.38.23-2.05.23-2.43 0-4.27-.68-5.5-2.04-1.22-1.36-1.83-3.51-1.83-6.47v-4.66zm18.01-2.48a17.08 17.08 0 0 1 7.08-1.44c1.13 0 2.09.14 2.88.41a4.41 4.41 0 0 1 2.98 2.95c.22.7.33 1.48.33 2.35 0 1.1-.04 2.05-.11 2.84a21.87 21.87 0 0 0-.05 3.61l.1.88h2.11v3.6h-5.47l-.43-2.23h-.16a5.64 5.64 0 0 1-1.85 1.75c-.8.49-1.88.73-3.24.73a5.5 5.5 0 0 1-3.85-1.3 4.46 4.46 0 0 1-1.43-3.46c0-.91.17-1.7.5-2.36a4.3 4.3 0 0 1 1.46-1.63c.64-.43 1.4-.74 2.3-.95a13.4 13.4 0 0 1 4.23-.24l1.59.13c.04-.22.06-.44.06-.65v-.62c0-.83-.24-1.42-.71-1.78a3.46 3.46 0 0 0-2.1-.54c-1.1 0-2.1.14-2.98.42-.89.29-1.63.57-2.24.85l-1-3.32zm5.55 11.97a3.9 3.9 0 0 0 2.32-.57c.51-.38.9-.8 1.13-1.23v-1.95a15.18 15.18 0 0 0-2.36-.23c-.4 0-.81.04-1.22.11-.41.08-.78.2-1.1.36-.32.16-.58.37-.77.64-.2.26-.3.57-.3.94 0 .61.19 1.08.54 1.42s.94.5 1.76.5zm13.76-9.49h-3.23v-3.59h3.22v-3.71l4.24-1.21v4.92h8.54v3.59h-8.54v4.66c0 1.67.32 2.89.95 3.63a3.26 3.26 0 0 0 2.64 1.13 5.6 5.6 0 0 0 2.88-.75c.38-.22.73-.46 1.05-.72l.86-.71 1.96 2.93c-.37.44-.83.83-1.39 1.19a11.68 11.68 0 0 1-3.8 1.58c-.7.15-1.38.23-2.05.23-2.44 0-4.27-.68-5.5-2.04-1.22-1.36-1.84-3.51-1.84-6.47v-4.66zm17.03 9.13h5.74v-9.13h-5.74v-3.59h9.98v12.72h6.03v3.58h-16.01v-3.58zm4.95-17.15c0-.68.25-1.25.75-1.73a2.9 2.9 0 0 1 2.1-.72c.9 0 1.63.24 2.18.72a2.23 2.23 0 0 1 0 3.44c-.55.44-1.27.67-2.19.67-.9 0-1.59-.23-2.09-.67s-.75-1.02-.75-1.71zm24.84 16.23c0-.43-.27-.78-.8-1.04s-1.19-.5-1.97-.72c-.79-.21-1.65-.44-2.58-.66-.93-.23-1.8-.55-2.57-.95a6.47 6.47 0 0 1-1.98-1.53 3.54 3.54 0 0 1-.8-2.4c0-.8.18-1.5.54-2.12.36-.6.85-1.12 1.47-1.55a6.86 6.86 0 0 1 2.22-.96c.86-.21 1.78-.32 2.78-.32a13.52 13.52 0 0 1 4.9.78c.6.22 1.12.46 1.54.73l1.1.74-1.8 2.9a14.8 14.8 0 0 0-3.93-1.6 7.33 7.33 0 0 0-3.73.2c-.56.23-.85.6-.85 1.1 0 .4.27.71.8.95s1.19.46 1.97.67l2.58.66c.93.24 1.8.55 2.58.93s1.43.88 1.97 1.49c.53.6.8 1.39.8 2.34 0 1.66-.6 2.96-1.81 3.9-1.21.95-3 1.42-5.37 1.42-1.87 0-3.48-.28-4.84-.83a11.25 11.25 0 0 1-3.27-1.94l1.95-3.07a9.87 9.87 0 0 0 2.7 1.6c.6.24 1.22.44 1.88.6.67.17 1.32.25 1.98.25.69 0 1.29-.12 1.79-.36s.75-.64.75-1.2zm10.78-8.21h-3.22v-3.59h3.23v-3.71l4.24-1.21v4.92h8.54v3.59h-8.54v4.66c0 1.67.31 2.89.94 3.63a3.26 3.26 0 0 0 2.64 1.13 5.6 5.6 0 0 0 2.89-.75c.38-.22.73-.46 1.04-.72l.87-.71 1.95 2.93c-.37.44-.83.83-1.38 1.19a11.68 11.68 0 0 1-3.8 1.58c-.7.15-1.38.23-2.06.23-2.43 0-4.26-.68-5.5-2.04-1.22-1.36-1.83-3.51-1.83-6.47v-4.66zm17.04 9.13h5.74v-9.13h-5.74v-3.59h9.98v12.72h6.03v3.58h-16v-3.58zm4.96-17.15c0-.68.25-1.25.75-1.73a2.9 2.9 0 0 1 2.09-.72c.9 0 1.64.24 2.18.72a2.23 2.23 0 0 1 0 3.44c-.54.44-1.27.67-2.18.67-.9 0-1.6-.23-2.1-.67s-.74-1.02-.74-1.71zm29.06 19.16a9.35 9.35 0 0 1-3.13 1.53c-1.2.33-2.45.5-3.75.5-1.42 0-2.67-.2-3.77-.62-1.1-.41-2.02-1-2.77-1.74a7.4 7.4 0 0 1-1.71-2.73 10.1 10.1 0 0 1-.59-3.52c0-1.37.23-2.58.69-3.65a7.7 7.7 0 0 1 4.79-4.38c1.1-.38 2.31-.58 3.62-.58a15.88 15.88 0 0 1 5.87 1.24v5.74h-3.6v-3a9.17 9.17 0 0 0-2.01-.23c-.61 0-1.21.1-1.81.28a4.43 4.43 0 0 0-2.74 2.4 5 5 0 0 0-.44 2.18c0 .7.12 1.34.36 1.92a4.56 4.56 0 0 0 2.62 2.56 7.85 7.85 0 0 0 5.19-.14c.79-.35 1.38-.65 1.77-.92l1.4 3.17zm13.83-2.93c0-.43-.27-.78-.8-1.04s-1.2-.5-1.98-.72c-.78-.21-1.64-.44-2.57-.66-.94-.23-1.8-.55-2.58-.95a6.49 6.49 0 0 1-1.97-1.53 3.55 3.55 0 0 1-.8-2.4c0-.8.18-1.5.54-2.12.36-.6.85-1.12 1.47-1.55a6.86 6.86 0 0 1 2.21-.96c.86-.21 1.8-.32 2.8-.32a13.52 13.52 0 0 1 4.9.78c.6.22 1.1.46 1.53.73s.79.52 1.1.74l-1.8 2.9a14.8 14.8 0 0 0-3.93-1.6 7.35 7.35 0 0 0-3.73.2c-.57.23-.85.6-.85 1.1 0 .4.27.71.8.95s1.19.46 1.97.67c.78.2 1.64.43 2.58.66.93.24 1.79.55 2.57.93.78.38 1.44.88 1.97 1.49.54.6.8 1.39.8 2.34 0 1.66-.6 2.96-1.8 3.9-1.21.95-3 1.42-5.37 1.42-1.87 0-3.48-.28-4.84-.83a11.24 11.24 0 0 1-3.28-1.94l1.96-3.07a9.87 9.87 0 0 0 2.7 1.6c.6.24 1.22.44 1.88.6.66.17 1.32.25 1.97.25.7 0 1.3-.12 1.8-.36s.75-.64.75-1.2zm-60.15 45.68c0-1.98.21-3.72.62-5.2s1-2.73 1.76-3.7a7.27 7.27 0 0 1 2.7-2.2 8.18 8.18 0 0 1 3.5-.74c2.75 0 4.86.96 6.35 2.89 1.48 1.92 2.22 4.9 2.22 8.95 0 2-.2 3.74-.62 5.23-.41 1.49-1 2.73-1.75 3.72-.75.98-1.66 1.72-2.72 2.21s-2.23.74-3.51.74c-2.78 0-4.9-1.02-6.35-3.05-1.47-2.03-2.2-4.98-2.2-8.85zm4.24 0a24.86 24.86 0 0 0 .07 1.82l7.89-7.27c-.65-1.87-1.87-2.8-3.66-2.8-1.38 0-2.44.66-3.18 2-.75 1.34-1.12 3.42-1.12 6.25zm8.67 0a28.5 28.5 0 0 0-.06-1.93l-7.92 7.27c.66 1.98 1.88 2.97 3.65 2.97 1.38 0 2.45-.66 3.2-1.99.76-1.32 1.13-3.43 1.13-6.32zm24.23 5.08h-3.92v6.36h-3.94v-6.36h-9.88v-2.9l10.34-13.73h3.49v13.24h3.9v3.4zm-7.86-10.63-5.67 7.24h5.67v-7.24zm10.37 1.3c0-1.1.19-2.12.57-3.06a6.92 6.92 0 0 1 4.08-3.96 8.81 8.81 0 0 1 3.24-.57c1.22 0 2.33.19 3.33.56a6.95 6.95 0 0 1 4.23 4.35c.4 1.07.59 2.31.59 3.7 0 2.52-.33 4.7-.98 6.52a13.43 13.43 0 0 1-2.62 4.56 11.39 11.39 0 0 1-3.83 2.8 15.19 15.19 0 0 1-4.57 1.25l-.91-3.33c1.2-.15 2.28-.44 3.24-.88a9.75 9.75 0 0 0 2.53-1.61 8.41 8.41 0 0 0 1.76-2.19 7.4 7.4 0 0 0 .88-2.62 4.9 4.9 0 0 1-1.76 1.09 7.3 7.3 0 0 1-2.57.4h-.07a7.9 7.9 0 0 1-2.51-.42 6.8 6.8 0 0 1-3.98-3.5 6.85 6.85 0 0 1-.65-3.08zm4.1-.22a3.6 3.6 0 0 0 2.53 3.5 5.78 5.78 0 0 0 3.83-.18 3.42 3.42 0 0 0 1.44-1.04 6.58 6.58 0 0 0-.16-3.1 4.91 4.91 0 0 0-.78-1.56 3.83 3.83 0 0 0-3.1-1.5c-1.07 0-1.96.34-2.68 1.03a3.75 3.75 0 0 0-1.07 2.85zm-43.75 57.43c0-1.97.21-3.7.62-5.2s1-2.72 1.76-3.7a7.27 7.27 0 0 1 2.7-2.2 8.2 8.2 0 0 1 3.5-.73c2.75 0 4.86.96 6.35 2.88 1.48 1.93 2.22 4.91 2.22 8.95 0 2-.2 3.75-.62 5.24-.41 1.49-1 2.73-1.75 3.71-.75 1-1.66 1.73-2.72 2.22s-2.23.74-3.51.74c-2.78 0-4.9-1.02-6.35-3.05-1.47-2.04-2.2-4.99-2.2-8.86zm4.24 0a24.86 24.86 0 0 0 .07 1.83l7.89-7.27c-.65-1.87-1.87-2.8-3.66-2.8-1.38 0-2.44.66-3.18 2-.75 1.34-1.12 3.42-1.12 6.24zm8.67 0a28.58 28.58 0 0 0-.06-1.92l-7.92 7.27c.66 1.98 1.88 2.97 3.65 2.97 1.38 0 2.45-.66 3.2-1.99.76-1.33 1.13-3.44 1.13-6.33zm13.5 8.32c.72 0 1.38-.1 1.98-.28.6-.18 1.1-.44 1.53-.78.42-.33.75-.72 1-1.16s.35-.93.35-1.45c0-.65-.14-1.2-.4-1.64a3 3 0 0 0-1.13-1.05 5.4 5.4 0 0 0-1.73-.55c-.68-.11-1.4-.17-2.19-.17h-1.82v-2.34l5.48-6.69h-8.25v-3.58h13.3v2.96l-5.74 6.56h.75c.76 0 1.5.13 2.22.39a5.44 5.44 0 0 1 3.24 3.13c.34.78.51 1.68.51 2.7 0 1.24-.26 2.33-.77 3.26s-1.18 1.73-2.02 2.37-1.8 1.12-2.89 1.43-2.2.48-3.35.48c-.98 0-1.96-.09-2.94-.26a14.1 14.1 0 0 1-2.83-.82l1.14-3.52c.2.11.46.22.8.33a19.36 19.36 0 0 0 2.44.58c.45.06.89.1 1.32.1zm19.21-.17c.71 0 1.38-.08 1.98-.26a4.87 4.87 0 0 0 1.59-.75c.44-.32.79-.73 1.04-1.2a3.5 3.5 0 0 0 .37-1.63c0-1.2-.47-2.14-1.41-2.82s-2.37-1.03-4.26-1.03a23.95 23.95 0 0 0-1.73.06c-.32.03-.66.04-1 .04v-11.94h11.8v3.98h-8.15v4.4c.17 0 .34 0 .52-.03a5.67 5.67 0 0 0 .81-.03c1.09 0 2.1.16 3.03.47a6.44 6.44 0 0 1 4.06 3.72c.38.9.57 1.9.57 2.98a7.02 7.02 0 0 1-2.67 5.8 8.75 8.75 0 0 1-2.87 1.49c-1.09.33-2.25.5-3.49.5-.48 0-.99-.05-1.53-.14a19.12 19.12 0 0 1-3.05-.83c-.45-.18-.82-.34-1.13-.5l1.37-3.38c.37.21.94.45 1.72.71.77.26 1.58.4 2.43.4zm-45.62 57.59c0-1.98.21-3.7.62-5.2.42-1.49 1-2.72 1.76-3.7a7.27 7.27 0 0 1 2.7-2.2 8.18 8.18 0 0 1 3.5-.73c2.75 0 4.86.96 6.35 2.88s2.22 4.91 2.22 8.95c0 2-.2 3.75-.62 5.23a10.9 10.9 0 0 1-1.75 3.72 7.17 7.17 0 0 1-2.72 2.22 8.3 8.3 0 0 1-3.51.73c-2.78 0-4.9-1.01-6.35-3.05s-2.2-4.98-2.2-8.85zm4.24 0a25 25 0 0 0 .07 1.83l7.89-7.27c-.65-1.87-1.87-2.8-3.66-2.8-1.38 0-2.44.66-3.18 2-.75 1.34-1.12 3.42-1.12 6.24zm8.67 0-.01-1-.05-.92-7.92 7.27c.66 1.98 1.88 2.97 3.65 2.97 1.38 0 2.45-.67 3.2-2 .76-1.32 1.13-3.43 1.13-6.32zm8.75 11.45 9.38-18.98h-10.63v-3.85h14.87v3.2l-9.49 19.63h-4.14zm35.04-6.36h-3.91v6.36h-3.95v-6.36h-9.88v-2.9l10.34-13.73h3.49v13.24h3.91v3.39zm-7.86-10.63-5.67 7.24h5.67v-7.24zm-48.84 72.19c0-1.97.21-3.7.62-5.2s1-2.71 1.76-3.7a7.26 7.26 0 0 1 2.7-2.2 8.2 8.2 0 0 1 3.5-.72c2.75 0 4.86.96 6.35 2.88 1.48 1.93 2.22 4.9 2.22 8.95 0 2-.2 3.75-.62 5.23-.41 1.5-1 2.73-1.75 3.72s-1.66 1.73-2.72 2.22a8.29 8.29 0 0 1-3.51.73c-2.78 0-4.9-1.02-6.35-3.05-1.47-2.03-2.2-4.98-2.2-8.85zm4.24 0a25.01 25.01 0 0 0 .07 1.84l7.89-7.28c-.65-1.86-1.87-2.8-3.66-2.8-1.38 0-2.44.67-3.18 2-.75 1.34-1.12 3.42-1.12 6.25zm8.67 0a28.52 28.52 0 0 0-.06-1.91l-7.92 7.27c.66 1.97 1.88 2.96 3.65 2.96 1.38 0 2.45-.66 3.2-1.99.76-1.32 1.13-3.43 1.13-6.32zm22.47 11.45h-14.54v-3.16l.98-.86a145.87 145.87 0 0 0 2.86-2.73 71.77 71.77 0 0 0 3.54-3.95c.56-.67 1.01-1.3 1.37-1.9.36-.6.62-1.18.8-1.76a6.1 6.1 0 0 0 .26-1.77c0-.44-.1-.86-.3-1.28a3.5 3.5 0 0 0-.8-1.09 3.95 3.95 0 0 0-1.26-.75 4.51 4.51 0 0 0-1.62-.27c-.78 0-1.49.11-2.13.35s-1.31.65-2 1.2l-1.7-2.99c.91-.65 1.93-1.2 3.05-1.65a10.42 10.42 0 0 1 6.55-.27 7.1 7.1 0 0 1 2.28 1.15 5.63 5.63 0 0 1 1.58 1.91c.4.76.59 1.64.59 2.64a9.48 9.48 0 0 1-.74 3.73c-.25.6-.57 1.22-.97 1.85a30.4 30.4 0 0 1-2.87 3.77 60.13 60.13 0 0 1-3 3.1c-.5.46-.93.85-1.32 1.15h9.39v3.58zm4.46-5.57c0-.76.13-1.46.38-2.09.25-.63.57-1.2.98-1.7.4-.5.86-.94 1.38-1.35.52-.4 1.06-.75 1.6-1.06-1.09-.63-1.99-1.37-2.7-2.23s-1.08-1.94-1.08-3.24c0-.85.19-1.65.56-2.38.37-.74.88-1.39 1.54-1.93s1.46-.97 2.37-1.27a9.3 9.3 0 0 1 2.97-.46c.97 0 1.9.14 2.75.4s1.61.63 2.27 1.1a5.24 5.24 0 0 1 1.53 1.75 5.73 5.73 0 0 1-.44 5.62 8.75 8.75 0 0 1-2.72 2.48 9.88 9.88 0 0 1 3.1 2.38 5.27 5.27 0 0 1 1.17 3.52 5.5 5.5 0 0 1-.64 2.66c-.42.8-1 1.47-1.71 2.04a8.1 8.1 0 0 1-2.53 1.32 10.34 10.34 0 0 1-6.11.03 7.98 7.98 0 0 1-2.44-1.22 5.65 5.65 0 0 1-1.63-1.9c-.4-.73-.6-1.56-.6-2.47zm11.61-.56c0-.54-.14-1-.42-1.4-.29-.4-.64-.74-1.06-1.04-.43-.3-.9-.58-1.4-.83s-1.01-.5-1.49-.77c-1.08.48-1.92 1.1-2.5 1.84s-.89 1.46-.89 2.14c0 .98.35 1.73 1.05 2.27.69.53 1.66.8 2.9.8a4.6 4.6 0 0 0 2.73-.77 2.57 2.57 0 0 0 1.08-2.24zm-7-10.92c0 .52.1.96.33 1.32.23.36.53.67.89.94.35.28.76.52 1.22.74l1.37.65a6.33 6.33 0 0 0 1.92-1.52c.26-.31.47-.64.64-.97s.24-.69.24-1.03c0-.46-.1-.85-.3-1.2a2.9 2.9 0 0 0-.76-.85 3.38 3.38 0 0 0-1.06-.54 4.13 4.13 0 0 0-2.53.05c-.4.15-.75.35-1.04.58-.3.24-.52.52-.69.85a2.2 2.2 0 0 0-.24.98zm-44.45 69.88c0-1.98.21-3.71.62-5.2.42-1.49 1-2.72 1.76-3.7a7.27 7.27 0 0 1 2.7-2.2 8.21 8.21 0 0 1 3.5-.73c2.75 0 4.86.96 6.35 2.88s2.22 4.91 2.22 8.95c0 2-.2 3.75-.62 5.24-.41 1.48-1 2.72-1.75 3.71-.75 1-1.66 1.73-2.72 2.22s-2.23.73-3.51.73c-2.78 0-4.9-1.01-6.35-3.05-1.47-2.03-2.2-4.98-2.2-8.85zm4.24 0a24.96 24.96 0 0 0 .07 1.83l7.89-7.27c-.65-1.87-1.87-2.8-3.66-2.8-1.38 0-2.44.66-3.18 2-.75 1.33-1.12 3.42-1.12 6.24zm8.67 0a28.52 28.52 0 0 0-.06-1.92l-7.92 7.27c.66 1.98 1.88 2.97 3.65 2.97 1.38 0 2.45-.67 3.2-2 .76-1.32 1.13-3.43 1.13-6.32zm13.5 8.32c.72 0 1.38-.1 1.98-.28.6-.18 1.1-.44 1.53-.78.42-.33.75-.72 1-1.17.23-.44.35-.92.35-1.44 0-.65-.14-1.2-.4-1.64a3 3 0 0 0-1.13-1.05 5.4 5.4 0 0 0-1.73-.55c-.68-.11-1.4-.17-2.19-.17h-1.82v-2.34l5.48-6.69h-8.25v-3.59h13.3v2.97l-5.74 6.55h.75c.76 0 1.5.14 2.22.4a5.44 5.44 0 0 1 3.24 3.13c.34.78.51 1.68.51 2.7a6.75 6.75 0 0 1-2.79 5.63c-.84.64-1.8 1.12-2.89 1.43s-2.2.48-3.35.48c-.98 0-1.96-.1-2.94-.27s-1.92-.44-2.83-.8l1.14-3.53c.2.11.46.22.8.33a19.36 19.36 0 0 0 2.44.58c.45.06.89.1 1.32.1zm19.56 0c.72 0 1.38-.1 1.98-.28.6-.18 1.1-.44 1.53-.78s.75-.72 1-1.17a3 3 0 0 0 .35-1.44c0-.65-.14-1.2-.4-1.64-.28-.44-.65-.8-1.13-1.05a5.4 5.4 0 0 0-1.73-.55c-.67-.11-1.4-.17-2.19-.17h-1.82v-2.34l5.48-6.69h-8.25v-3.59h13.3v2.97l-5.74 6.55h.75c.77 0 1.5.14 2.22.4a5.46 5.46 0 0 1 3.25 3.13c.33.78.5 1.68.5 2.7a6.7 6.7 0 0 1-.77 3.27 7.45 7.45 0 0 1-2.02 2.36 8.64 8.64 0 0 1-2.88 1.43 12 12 0 0 1-3.36.48c-.98 0-1.96-.1-2.93-.27-.98-.17-1.93-.44-2.84-.8l1.14-3.53c.2.11.46.22.8.33a19.41 19.41 0 0 0 2.45.58c.44.06.88.1 1.31.1z"/><path fill="#2E9AFF" d="M50.32 382.7h21.74v21.74H50.32z"/><path fill="#FFF" d="M73.65 406.02H48.73v-24.91h24.92v24.91zm-21.74-3.18h18.56V384.3H51.9v18.55z"/><path fill="#2E9AFF" d="M72.06 382.7h21.73v21.74H72.06z"/><path fill="#FFF" d="M95.38 406.02H70.47v-24.91h24.91v24.91zm-21.73-3.18H92.2V384.3H73.65v18.55z"/><path fill="#2E9AFF" d="M50.32 404.43h21.74v21.73H50.32z"/><path fill="#FFF" d="M73.65 427.76H48.73v-24.92h24.92v24.92zm-21.74-3.18h18.56v-18.56H51.9v18.56z"/><path fill="#2E9AFF" d="M72.06 404.43h21.73v21.73H72.06z"/><path fill="#FFF" d="M95.38 427.76H70.47v-24.92h24.91v24.92zm-21.73-3.18H92.2v-18.56H73.65v18.56z"/><path fill="#2E9AFF" d="M39.45 470.17h21.74v21.73H39.45z"/><path fill="#FFF" d="M62.78 493.5H37.86v-24.92h24.92v24.92zm-21.73-3.18H59.6v-18.56H41.05v18.56z"/><path fill="#2E9AFF" d="M61.19 470.17h21.73v21.73H61.19z"/><path fill="#FFF" d="M84.52 493.5H59.6v-24.92h24.92v24.92zm-21.74-3.18h18.55v-18.56H62.78v18.56z"/><path fill="#2E9AFF" d="M61.19 448.44h21.73v21.73H61.19z"/><path fill="#FFF" d="M84.52 471.76H59.6v-24.91h24.92v24.91zm-21.74-3.18h18.55v-18.55H62.78v18.55z"/><path fill="#2E9AFF" d="M82.92 470.17h21.73v21.73H82.92z"/><path fill="#FFF" d="M106.25 493.5H81.33v-24.92h24.92v24.92zm-21.73-3.18h18.55v-18.56H84.52v18.56z"/><path fill="#2E9AFF" d="M28.59 339.75h21.74v21.73H28.59z"/><path fill="#FFF" d="M51.91 363.08H27v-24.91h24.92v24.91zm-21.73-3.18h18.55v-18.55H30.18v18.55z"/><path fill="#2E9AFF" d="M50.32 339.75h21.74v21.73H50.32z"/><path fill="#FFF" d="M73.65 363.08H48.73v-24.91h24.92v24.91zM51.9 359.9h18.56v-18.55H51.9v18.55z"/><path fill="#2E9AFF" d="M72.06 339.75h21.73v21.73H72.06z"/><path fill="#FFF" d="M95.38 363.08H70.47v-24.91h24.91v24.91zm-21.73-3.18H92.2v-18.55H73.65v18.55z"/><path fill="#2E9AFF" d="M93.79 339.75h21.74v21.73H93.79z"/><path fill="#FFF" d="M117.12 363.08H92.2v-24.91h24.92v24.91zm-21.74-3.18h18.56v-18.55H95.38v18.55z"/><path fill="#2E9AFF" d="M39.45 515.09h21.74v21.73H39.45z"/><path fill="#FFF" d="M62.78 538.42H37.86V513.5h24.92v24.92zm-21.73-3.18H59.6v-18.56H41.05v18.56z"/><path fill="#2E9AFF" d="M61.19 515.09h21.73v21.73H61.19z"/><path fill="#FFF" d="M84.52 538.42H59.6V513.5h24.92v24.92zm-21.74-3.18h18.55v-18.56H62.78v18.56z"/><path fill="#2E9AFF" d="M82.92 515.09h21.73v21.73H82.92z"/><path fill="#FFF" d="M106.25 538.42H81.33V513.5h24.92v24.92zm-21.73-3.18h18.55v-18.56H84.52v18.56z"/><path fill="#2E9AFF" d="M82.92 536.83h21.73v21.74H82.92z"/><path fill="#FFF" d="M106.25 560.15H81.33v-24.91h24.92v24.91zm-21.73-3.18h18.55v-18.55H84.52v18.55z"/><path fill="#2E9AFF" d="M39.45 579.37h21.74v21.74H39.45z"/><path fill="#FFF" d="M62.78 602.7H37.86v-24.93h24.92v24.92zm-21.73-3.19H59.6v-18.56H41.05v18.56z"/><path fill="#2E9AFF" d="M61.19 579.37h21.73v21.74H61.19z"/><path fill="#FFF" d="M84.52 602.7H59.6v-24.93h24.92v24.92zm-21.74-3.19h18.55v-18.56H62.78v18.56z"/><path fill="#2E9AFF" d="M61.19 601.1h21.73v21.73H61.19z"/><path fill="#FFF" d="M84.52 624.43H59.6V599.5h24.92v24.92zm-21.74-3.18h18.55v-18.56H62.78v18.55z"/><path fill="#2E9AFF" d="M82.92 601.1h21.73v21.73H82.92z"/><path fill="#FFF" d="M106.25 624.43H81.33V599.5h24.92v24.92zm-21.73-3.18h18.55v-18.56H84.52v18.55z"/><path d="M363.38 23.41h435.54v652.58H363.38z"/><path fill="#FFF" d="M341.65 1.59h434.71v652.93H341.65z"/><path d="M777.95 656.11h-437.9V0h437.9v656.11zm-434.71-3.18h431.53V3.18H343.24v649.75z"/><path fill="#FFF" d="M341.65 2.39h43.47v43.47h-43.47z"/><path d="M386.71 47.45h-46.65V.79h46.65v46.66zm-43.47-3.18h40.29V3.97h-40.3v40.3z"/><path fill="#FFF" d="M385.12 2.39h43.47v43.47h-43.47z"/><path d="M430.18 47.45h-46.65V.79h46.65v46.66zm-43.47-3.18h40.3V3.97h-40.3v40.3z"/><path fill="#FFF" d="M428.59 2.39h43.47v43.47h-43.47z"/><path d="M473.65 47.45H427V.79h46.65v46.66zm-43.47-3.18h40.3V3.97h-40.3v40.3z"/><path fill="#FFF" d="M472.06 2.39h43.47v43.47h-43.47z"/><path d="M517.13 47.45h-46.66V.79h46.65v46.66zm-43.48-3.18h40.3V3.97h-40.3v40.3z"/><path fill="#FFF" d="M515.53 2.39H559v43.47h-43.47z"/><path d="M560.6 47.45h-46.66V.79h46.66v46.66zm-43.48-3.18h40.3V3.97h-40.3v40.3z"/><path fill="#FFF" d="M559.01 2.39h43.47v43.47h-43.47z"/><path d="M604.07 47.45h-46.65V.79h46.65v46.66zm-43.47-3.18h40.29V3.97h-40.3v40.3z"/><path fill="#FFF" d="M602.48 2.39h43.47v43.47h-43.47z"/><path d="M647.54 47.45h-46.65V.79h46.65v46.66zm-43.47-3.18h40.29V3.97h-40.3v40.3z"/><path fill="#FFF" d="M645.95 2.39h43.47v43.47h-43.47z"/><path d="M691.01 47.45h-46.65V.79H691v46.66zm-43.47-3.18h40.29V3.97h-40.3v40.3z"/><path fill="#FFF" d="M689.42 2.39h43.47v43.47h-43.47z"/><path d="M734.48 47.45h-46.65V.79h46.65v46.66zm-43.47-3.18h40.3V3.97H691v40.3z"/><path fill="#FFF" d="M732.89 2.39h43.47v43.47h-43.47z"/><path d="M777.95 47.45H731.3V.79h46.65v46.66zm-43.47-3.18h40.3V3.97h-40.3v40.3z"/><path fill="#FFF" d="M341.65 45.86h43.47v43.47h-43.47z"/><path d="M386.71 90.92h-46.65V44.27h46.65v46.65zm-43.47-3.18h40.29v-40.3h-40.3v40.3z"/><path fill="#FFF" d="M385.12 45.86h43.47v43.47h-43.47z"/><path d="M430.18 90.92h-46.65V44.27h46.65v46.65zm-43.47-3.18h40.3v-40.3h-40.3v40.3z"/><path fill="#FFF" d="M428.59 45.86h43.47v43.47h-43.47z"/><path d="M473.65 90.92H427V44.27h46.65v46.65zm-43.47-3.18h40.3v-40.3h-40.3v40.3z"/><path fill="#FFF" d="M472.06 45.86h43.47v43.47h-43.47z"/><path d="M517.13 90.92h-46.66V44.27h46.65v46.65zm-43.48-3.18h40.3v-40.3h-40.3v40.3z"/><path fill="#FFF" d="M515.53 45.86H559v43.47h-43.47z"/><path d="M560.6 90.92h-46.66V44.27h46.66v46.65zm-43.48-3.18h40.3v-40.3h-40.3v40.3z"/><path fill="#FFF" d="M559.01 45.86h43.47v43.47h-43.47z"/><path d="M604.07 90.92h-46.65V44.27h46.65v46.65zm-43.47-3.18h40.29v-40.3h-40.3v40.3z"/><path fill="#FFF" d="M602.48 45.86h43.47v43.47h-43.47z"/><path d="M647.54 90.92h-46.65V44.27h46.65v46.65zm-43.47-3.18h40.29v-40.3h-40.3v40.3z"/><path fill="#FFF" d="M645.95 45.86h43.47v43.47h-43.47z"/><path d="M691.01 90.92h-46.65V44.27H691v46.65zm-43.47-3.18h40.29v-40.3h-40.3v40.3z"/><path fill="#FFF" d="M689.42 45.86h43.47v43.47h-43.47z"/><path d="M734.48 90.92h-46.65V44.27h46.65v46.65zm-43.47-3.18h40.3v-40.3H691v40.3z"/><path fill="#FFF" d="M732.89 45.86h43.47v43.47h-43.47z"/><path d="M777.95 90.92H731.3V44.27h46.65v46.65zm-43.47-3.18h40.3v-40.3h-40.3v40.3z"/><path fill="#FFF" d="M341.65 89.33h43.47v43.47h-43.47z"/><path d="M386.71 134.39h-46.65V87.74h46.65v46.65zm-43.47-3.18h40.29V90.9h-40.3v40.3z"/><path fill="#FFF" d="M385.12 89.33h43.47v43.47h-43.47z"/><path d="M430.18 134.39h-46.65V87.74h46.65v46.65zm-43.47-3.18h40.3V90.9h-40.3v40.3z"/><path fill="#FFF" d="M428.59 89.33h43.47v43.47h-43.47z"/><path d="M473.65 134.39H427V87.74h46.65v46.65zm-43.47-3.18h40.3V90.9h-40.3v40.3z"/><path fill="#FFF" d="M472.06 89.33h43.47v43.47h-43.47z"/><path d="M517.13 134.39h-46.66V87.74h46.65v46.65zm-43.48-3.18h40.3V90.9h-40.3v40.3z"/><path fill="#FFF" d="M515.53 89.33H559v43.47h-43.47z"/><path d="M560.6 134.39h-46.66V87.74h46.66v46.65zm-43.48-3.18h40.3V90.9h-40.3v40.3z"/><path fill="#FFF" d="M559.01 89.33h43.47v43.47h-43.47z"/><path d="M604.07 134.39h-46.65V87.74h46.65v46.65zm-43.47-3.18h40.29V90.9h-40.3v40.3z"/><path fill="#FFF" d="M602.48 89.33h43.47v43.47h-43.47z"/><path d="M647.54 134.39h-46.65V87.74h46.65v46.65zm-43.47-3.18h40.29V90.9h-40.3v40.3z"/><path fill="#FFF" d="M645.95 89.33h43.47v43.47h-43.47z"/><path d="M691.01 134.39h-46.65V87.74H691v46.65zm-43.47-3.18h40.29V90.9h-40.3v40.3z"/><path fill="#FFF" d="M689.42 89.33h43.47v43.47h-43.47z"/><path d="M734.48 134.39h-46.65V87.74h46.65v46.65zm-43.47-3.18h40.3V90.9H691v40.3z"/><path fill="#FFF" d="M732.89 89.33h43.47v43.47h-43.47z"/><path d="M777.95 134.39H731.3V87.74h46.65v46.65zm-43.47-3.18h40.3V90.9h-40.3v40.3z"/><path fill="#FFF" d="M341.65 132.8h43.47v43.47h-43.47z"/><path d="M386.71 177.86h-46.65v-46.65h46.65v46.65zm-43.47-3.18h40.29v-40.3h-40.3v40.3z"/><path fill="#FFF" d="M385.12 132.8h43.47v43.47h-43.47z"/><path d="M430.18 177.86h-46.65v-46.65h46.65v46.65zm-43.47-3.18h40.3v-40.3h-40.3v40.3z"/><path fill="#FFF" d="M428.59 132.8h43.47v43.47h-43.47z"/><path d="M473.65 177.86H427v-46.65h46.65v46.65zm-43.47-3.18h40.3v-40.3h-40.3v40.3z"/><path fill="#FFF" d="M472.06 132.8h43.47v43.47h-43.47z"/><path d="M517.13 177.86h-46.66v-46.65h46.65v46.65zm-43.48-3.18h40.3v-40.3h-40.3v40.3z"/><path fill="#FFF" d="M515.53 132.8H559v43.47h-43.47z"/><path d="M560.6 177.86h-46.66v-46.65h46.66v46.65zm-43.48-3.18h40.3v-40.3h-40.3v40.3z"/><path fill="#FFF" d="M559.01 132.8h43.47v43.47h-43.47z"/><path d="M604.07 177.86h-46.65v-46.65h46.65v46.65zm-43.47-3.18h40.29v-40.3h-40.3v40.3z"/><path fill="#FFF" d="M602.48 132.8h43.47v43.47h-43.47z"/><path d="M647.54 177.86h-46.65v-46.65h46.65v46.65zm-43.47-3.18h40.29v-40.3h-40.3v40.3z"/><path fill="#FFF" d="M645.95 132.8h43.47v43.47h-43.47z"/><path d="M691.01 177.86h-46.65v-46.65H691v46.65zm-43.47-3.18h40.29v-40.3h-40.3v40.3z"/><path fill="#FFF" d="M689.42 132.8h43.47v43.47h-43.47z"/><path d="M734.48 177.86h-46.65v-46.65h46.65v46.65zm-43.47-3.18h40.3v-40.3H691v40.3z"/><path fill="#FFF" d="M732.89 132.8h43.47v43.47h-43.47z"/><path d="M777.95 177.86H731.3v-46.65h46.65v46.65zm-43.47-3.18h40.3v-40.3h-40.3v40.3z"/><path fill="#FFF" d="M341.65 176.27h43.47v43.47h-43.47z"/><path d="M386.71 221.33h-46.65v-46.65h46.65v46.65zm-43.47-3.18h40.29v-40.29h-40.3v40.3z"/><path fill="#FFF" d="M385.12 176.27h43.47v43.47h-43.47z"/><path d="M430.18 221.33h-46.65v-46.65h46.65v46.65zm-43.47-3.18h40.3v-40.29h-40.3v40.3z"/><path fill="#FFF" d="M428.59 176.27h43.47v43.47h-43.47z"/><path d="M473.65 221.33H427v-46.65h46.65v46.65zm-43.47-3.18h40.3v-40.29h-40.3v40.3z"/><path fill="#FFF" d="M472.06 176.27h43.47v43.47h-43.47z"/><path d="M517.13 221.33h-46.66v-46.65h46.65v46.65zm-43.48-3.18h40.3v-40.29h-40.3v40.3z"/><path fill="#FFF" d="M515.53 176.27H559v43.47h-43.47z"/><path d="M560.6 221.33h-46.66v-46.65h46.66v46.65zm-43.48-3.18h40.3v-40.29h-40.3v40.3z"/><path fill="#FFF" d="M559.01 176.27h43.47v43.47h-43.47z"/><path d="M604.07 221.33h-46.65v-46.65h46.65v46.65zm-43.47-3.18h40.29v-40.29h-40.3v40.3z"/><path fill="#FFF" d="M602.48 176.27h43.47v43.47h-43.47z"/><path d="M647.54 221.33h-46.65v-46.65h46.65v46.65zm-43.47-3.18h40.29v-40.29h-40.3v40.3z"/><path fill="#FFF" d="M645.95 176.27h43.47v43.47h-43.47z"/><path d="M691.01 221.33h-46.65v-46.65H691v46.65zm-43.47-3.18h40.29v-40.29h-40.3v40.3z"/><path fill="#FFF" d="M689.42 176.27h43.47v43.47h-43.47z"/><path d="M734.48 221.33h-46.65v-46.65h46.65v46.65zm-43.47-3.18h40.3v-40.29H691v40.3z"/><path fill="#FFF" d="M732.89 176.27h43.47v43.47h-43.47z"/><path d="M777.95 221.33H731.3v-46.65h46.65v46.65zm-43.47-3.18h40.3v-40.29h-40.3v40.3z"/><path fill="#FFF" d="M341.65 219.74h43.47v43.47h-43.47z"/><path d="M386.71 264.8h-46.65v-46.65h46.65v46.65zm-43.47-3.18h40.29v-40.29h-40.3v40.3z"/><path fill="#FFF" d="M385.12 219.74h43.47v43.47h-43.47z"/><path d="M430.18 264.8h-46.65v-46.65h46.65v46.65zm-43.47-3.18h40.3v-40.29h-40.3v40.3z"/><path fill="#FFF" d="M428.59 219.74h43.47v43.47h-43.47z"/><path d="M473.65 264.8H427v-46.65h46.65v46.65zm-43.47-3.18h40.3v-40.29h-40.3v40.3z"/><path fill="#FFF" d="M472.06 219.74h43.47v43.47h-43.47z"/><path d="M517.13 264.8h-46.66v-46.65h46.65v46.65zm-43.48-3.18h40.3v-40.29h-40.3v40.3z"/><path fill="#FFF" d="M515.53 219.74H559v43.47h-43.47z"/><path d="M560.6 264.8h-46.66v-46.65h46.66v46.65zm-43.48-3.18h40.3v-40.29h-40.3v40.3z"/><path fill="#FFF" d="M559.01 219.74h43.47v43.47h-43.47z"/><path d="M604.07 264.8h-46.65v-46.65h46.65v46.65zm-43.47-3.18h40.29v-40.29h-40.3v40.3z"/><path fill="#FFF" d="M602.48 219.74h43.47v43.47h-43.47z"/><path d="M647.54 264.8h-46.65v-46.65h46.65v46.65zm-43.47-3.18h40.29v-40.29h-40.3v40.3z"/><path fill="#FFF" d="M645.95 219.74h43.47v43.47h-43.47z"/><path d="M691.01 264.8h-46.65v-46.65H691v46.65zm-43.47-3.18h40.29v-40.29h-40.3v40.3z"/><path fill="#FFF" d="M689.42 219.74h43.47v43.47h-43.47z"/><path d="M734.48 264.8h-46.65v-46.65h46.65v46.65zm-43.47-3.18h40.3v-40.29H691v40.3z"/><path fill="#FFF" d="M732.89 219.74h43.47v43.47h-43.47z"/><path d="M777.95 264.8H731.3v-46.65h46.65v46.65zm-43.47-3.18h40.3v-40.29h-40.3v40.3z"/><path fill="#FFF" d="M341.65 263.21h43.47v43.47h-43.47z"/><path d="M386.71 308.27h-46.65v-46.65h46.65v46.65zm-43.47-3.18h40.29V264.8h-40.3v40.3z"/><path fill="#FFF" d="M385.12 263.21h43.47v43.47h-43.47z"/><path d="M430.18 308.27h-46.65v-46.65h46.65v46.65zm-43.47-3.18h40.3V264.8h-40.3v40.3z"/><path fill="#FFF" d="M428.59 263.21h43.47v43.47h-43.47z"/><path d="M473.65 308.27H427v-46.65h46.65v46.65zm-43.47-3.18h40.3V264.8h-40.3v40.3z"/><path fill="#FFF" d="M472.06 263.21h43.47v43.47h-43.47z"/><path d="M517.13 308.27h-46.66v-46.65h46.65v46.65zm-43.48-3.18h40.3V264.8h-40.3v40.3z"/><path fill="#FFF" d="M515.53 263.21H559v43.47h-43.47z"/><path d="M560.6 308.27h-46.66v-46.65h46.66v46.65zm-43.48-3.18h40.3V264.8h-40.3v40.3z"/><path fill="#FFF" d="M559.01 263.21h43.47v43.47h-43.47z"/><path d="M604.07 308.27h-46.65v-46.65h46.65v46.65zm-43.47-3.18h40.29V264.8h-40.3v40.3z"/><path fill="#FFF" d="M602.48 263.21h43.47v43.47h-43.47z"/><path d="M647.54 308.27h-46.65v-46.65h46.65v46.65zm-43.47-3.18h40.29V264.8h-40.3v40.3z"/><path fill="#FFF" d="M645.95 263.21h43.47v43.47h-43.47z"/><path d="M691.01 308.27h-46.65v-46.65H691v46.65zm-43.47-3.18h40.29V264.8h-40.3v40.3z"/><path fill="#FFF" d="M689.42 263.21h43.47v43.47h-43.47z"/><path d="M734.48 308.27h-46.65v-46.65h46.65v46.65zm-43.47-3.18h40.3V264.8H691v40.3z"/><path fill="#FFF" d="M732.89 263.21h43.47v43.47h-43.47z"/><path d="M777.95 308.27H731.3v-46.65h46.65v46.65zm-43.47-3.18h40.3V264.8h-40.3v40.3z"/><path fill="#FFF" d="M341.65 306.68h43.47v43.47h-43.47z"/><path d="M386.71 351.75h-46.65v-46.66h46.65v46.66zm-43.47-3.19h40.29v-40.29h-40.3v40.3z"/><path fill="#FFF" d="M385.12 306.68h43.47v43.47h-43.47z"/><path d="M430.18 351.75h-46.65v-46.66h46.65v46.66zm-43.47-3.19h40.3v-40.29h-40.3v40.3z"/><path fill="#FFF" d="M428.59 306.68h43.47v43.47h-43.47z"/><path d="M473.65 351.75H427v-46.66h46.65v46.66zm-43.47-3.19h40.3v-40.29h-40.3v40.3z"/><path fill="#FFF" d="M472.06 306.68h43.47v43.47h-43.47z"/><path d="M517.13 351.75h-46.66v-46.66h46.65v46.66zm-43.48-3.19h40.3v-40.29h-40.3v40.3z"/><path fill="#FFF" d="M515.53 306.68H559v43.47h-43.47z"/><path d="M560.6 351.75h-46.66v-46.66h46.66v46.66zm-43.48-3.19h40.3v-40.29h-40.3v40.3z"/><path fill="#FFF" d="M559.01 306.68h43.47v43.47h-43.47z"/><path d="M604.07 351.75h-46.65v-46.66h46.65v46.66zm-43.47-3.19h40.29v-40.29h-40.3v40.3z"/><path fill="#FFF" d="M602.48 306.68h43.47v43.47h-43.47z"/><path d="M647.54 351.75h-46.65v-46.66h46.65v46.66zm-43.47-3.19h40.29v-40.29h-40.3v40.3z"/><path fill="#FFF" d="M645.95 306.68h43.47v43.47h-43.47z"/><path d="M691.01 351.75h-46.65v-46.66H691v46.66zm-43.47-3.19h40.29v-40.29h-40.3v40.3z"/><path fill="#FFF" d="M689.42 306.68h43.47v43.47h-43.47z"/><path d="M734.48 351.75h-46.65v-46.66h46.65v46.66zm-43.47-3.19h40.3v-40.29H691v40.3z"/><path fill="#FFF" d="M732.89 306.68h43.47v43.47h-43.47z"/><path d="M777.95 351.75H731.3v-46.66h46.65v46.66zm-43.47-3.19h40.3v-40.29h-40.3v40.3z"/><path fill="#FFF" d="M341.65 350.15h43.47v43.47h-43.47z"/><path d="M386.71 395.22h-46.65v-46.66h46.65v46.66zm-43.47-3.19h40.29v-40.29h-40.3v40.3z"/><path fill="#FFF" d="M385.12 350.15h43.47v43.47h-43.47z"/><path d="M430.18 395.22h-46.65v-46.66h46.65v46.66zm-43.47-3.19h40.3v-40.29h-40.3v40.3z"/><path fill="#FFF" d="M428.59 350.15h43.47v43.47h-43.47z"/><path d="M473.65 395.22H427v-46.66h46.65v46.66zm-43.47-3.19h40.3v-40.29h-40.3v40.3z"/><path fill="#FFF" d="M472.06 350.15h43.47v43.47h-43.47z"/><path d="M517.13 395.22h-46.66v-46.66h46.65v46.66zm-43.48-3.19h40.3v-40.29h-40.3v40.3z"/><path fill="#FFF" d="M515.53 350.15H559v43.47h-43.47z"/><path d="M560.6 395.22h-46.66v-46.66h46.66v46.66zm-43.48-3.19h40.3v-40.29h-40.3v40.3z"/><path fill="#FFF" d="M559.01 350.15h43.47v43.47h-43.47z"/><path d="M604.07 395.22h-46.65v-46.66h46.65v46.66zm-43.47-3.19h40.29v-40.29h-40.3v40.3z"/><path fill="#FFF" d="M602.48 350.15h43.47v43.47h-43.47z"/><path d="M647.54 395.22h-46.65v-46.66h46.65v46.66zm-43.47-3.19h40.29v-40.29h-40.3v40.3z"/><path fill="#2E9AFF" d="M645.95 350.15h43.47v43.47h-43.47z"/><path d="M691.01 395.22h-46.65v-46.66H691v46.66zm-43.47-3.19h40.29v-40.29h-40.3v40.3z"/><path fill="#2E9AFF" d="M689.42 350.15h43.47v43.47h-43.47z"/><path d="M734.48 395.22h-46.65v-46.66h46.65v46.66zm-43.47-3.19h40.3v-40.29H691v40.3z"/><path fill="#FFF" d="M732.89 350.15h43.47v43.47h-43.47z"/><path d="M777.95 395.22H731.3v-46.66h46.65v46.66zm-43.47-3.19h40.3v-40.29h-40.3v40.3z"/><path fill="#FFF" d="M341.65 393.63h43.47v43.47h-43.47z"/><path d="M386.71 438.69h-46.65v-46.66h46.65v46.66zm-43.47-3.18h40.29v-40.3h-40.3v40.3z"/><path fill="#2E9AFF" d="M385.12 393.63h43.47v43.47h-43.47z"/><path d="M430.18 438.69h-46.65v-46.66h46.65v46.66zm-43.47-3.18h40.3v-40.3h-40.3v40.3z"/><path fill="#2E9AFF" d="M428.59 393.63h43.47v43.47h-43.47z"/><path d="M473.65 438.69H427v-46.66h46.65v46.66zm-43.47-3.18h40.3v-40.3h-40.3v40.3z"/><path fill="#FFF" d="M472.06 393.63h43.47v43.47h-43.47z"/><path d="M517.13 438.69h-46.66v-46.66h46.65v46.66zm-43.48-3.18h40.3v-40.3h-40.3v40.3z"/><path fill="#FFF" d="M515.53 393.63H559v43.47h-43.47z"/><path d="M560.6 438.69h-46.66v-46.66h46.66v46.66zm-43.48-3.18h40.3v-40.3h-40.3v40.3z"/><path fill="#FFF" d="M559.01 393.63h43.47v43.47h-43.47z"/><path d="M604.07 438.69h-46.65v-46.66h46.65v46.66zm-43.47-3.18h40.29v-40.3h-40.3v40.3z"/><path fill="#FFF" d="M602.48 393.63h43.47v43.47h-43.47z"/><path d="M647.54 438.69h-46.65v-46.66h46.65v46.66zm-43.47-3.18h40.29v-40.3h-40.3v40.3z"/><path fill="#FFF" d="M645.95 393.63h43.47v43.47h-43.47z"/><path d="M691.01 438.69h-46.65v-46.66H691v46.66zm-43.47-3.18h40.29v-40.3h-40.3v40.3z"/><path fill="#2E9AFF" d="M689.42 393.63h43.47v43.47h-43.47z"/><path d="M734.48 438.69h-46.65v-46.66h46.65v46.66zm-43.47-3.18h40.3v-40.3H691v40.3z"/><path fill="#2E9AFF" d="M732.89 393.63h43.47v43.47h-43.47z"/><path d="M777.95 438.69H731.3v-46.66h46.65v46.66zm-43.47-3.18h40.3v-40.3h-40.3v40.3z"/><g><path fill="#FFF" d="M341.65 437.1h43.47v43.47h-43.47z"/><path d="M386.71 482.16h-46.65V435.5h46.65v46.65zm-43.47-3.18h40.29v-40.3h-40.3v40.3z"/><path fill="#FFF" d="M385.12 437.1h43.47v43.47h-43.47z"/><path d="M430.18 482.16h-46.65V435.5h46.65v46.65zm-43.47-3.18h40.3v-40.3h-40.3v40.3z"/><path fill="#2E9AFF" d="M428.59 437.1h43.47v43.47h-43.47z"/><path d="M473.65 482.16H427V435.5h46.65v46.65zm-43.47-3.18h40.3v-40.3h-40.3v40.3z"/><path fill="#FFF" d="M472.06 437.1h43.47v43.47h-43.47z"/><path d="M517.13 482.16h-46.66V435.5h46.65v46.65zm-43.48-3.18h40.3v-40.3h-40.3v40.3z"/><path fill="#FFF" d="M515.53 437.1H559v43.47h-43.47z"/><path d="M560.6 482.16h-46.66V435.5h46.66v46.65zm-43.48-3.18h40.3v-40.3h-40.3v40.3z"/><path fill="#FFF" d="M559.01 437.1h43.47v43.47h-43.47z"/><path d="M604.07 482.16h-46.65V435.5h46.65v46.65zm-43.47-3.18h40.29v-40.3h-40.3v40.3z"/><path fill="#FFF" d="M602.48 437.1h43.47v43.47h-43.47z"/><path d="M647.54 482.16h-46.65V435.5h46.65v46.65zm-43.47-3.18h40.29v-40.3h-40.3v40.3z"/><path fill="#FFF" d="M645.95 437.1h43.47v43.47h-43.47z"/><path d="M691.01 482.16h-46.65V435.5H691v46.65zm-43.47-3.18h40.29v-40.3h-40.3v40.3z"/><path fill="#FFF" d="M689.42 437.1h43.47v43.47h-43.47z"/><path d="M734.48 482.16h-46.65V435.5h46.65v46.65zm-43.47-3.18h40.3v-40.3H691v40.3z"/><path fill="#FFF" d="M732.89 437.1h43.47v43.47h-43.47z"/><path d="M777.95 482.16H731.3V435.5h46.65v46.65zm-43.47-3.18h40.3v-40.3h-40.3v40.3z"/></g><g><path fill="#FFF" d="M341.65 480.57h43.47v43.47h-43.47z"/><path d="M386.71 525.63h-46.65v-46.65h46.65v46.65zm-43.47-3.18h40.29v-40.3h-40.3v40.3z"/><path fill="#FFF" d="M385.12 480.57h43.47v43.47h-43.47z"/><path d="M430.18 525.63h-46.65v-46.65h46.65v46.65zm-43.47-3.18h40.3v-40.3h-40.3v40.3z"/><path fill="#2E9AFF" d="M428.59 480.57h43.47v43.47h-43.47z"/><path d="M473.65 525.63H427v-46.65h46.65v46.65zm-43.47-3.18h40.3v-40.3h-40.3v40.3z"/><path fill="#FFF" d="M472.06 480.57h43.47v43.47h-43.47z"/><path d="M517.13 525.63h-46.66v-46.65h46.65v46.65zm-43.48-3.18h40.3v-40.3h-40.3v40.3z"/><path fill="#FFF" d="M515.53 480.57H559v43.47h-43.47z"/><path d="M560.6 525.63h-46.66v-46.65h46.66v46.65zm-43.48-3.18h40.3v-40.3h-40.3v40.3z"/><path fill="#FFF" d="M559.01 480.57h43.47v43.47h-43.47z"/><path d="M604.07 525.63h-46.65v-46.65h46.65v46.65zm-43.47-3.18h40.29v-40.3h-40.3v40.3z"/><path fill="#2E9AFF" d="M602.48 480.57h43.47v43.47h-43.47z"/><path d="M647.54 525.63h-46.65v-46.65h46.65v46.65zm-43.47-3.18h40.29v-40.3h-40.3v40.3z"/><path fill="#FFF" d="M645.95 480.57h43.47v43.47h-43.47z"/><path d="M691.01 525.63h-46.65v-46.65H691v46.65zm-43.47-3.18h40.29v-40.3h-40.3v40.3z"/><path fill="#FFF" d="M689.42 480.57h43.47v43.47h-43.47z"/><path d="M734.48 525.63h-46.65v-46.65h46.65v46.65zm-43.47-3.18h40.3v-40.3H691v40.3z"/><path fill="#FFF" d="M732.89 480.57h43.47v43.47h-43.47z"/><path d="M777.95 525.63H731.3v-46.65h46.65v46.65zm-43.47-3.18h40.3v-40.3h-40.3v40.3z"/></g><g><path fill="#2E9AFF" d="M341.65 524.04h43.47v43.47h-43.47z"/><path d="M386.71 569.1h-46.65v-46.65h46.65v46.65zm-43.47-3.18h40.29v-40.3h-40.3v40.3z"/><path fill="#FFF" d="M385.12 524.04h43.47v43.47h-43.47z"/><path d="M430.18 569.1h-46.65v-46.65h46.65v46.65zm-43.47-3.18h40.3v-40.3h-40.3v40.3z"/><path fill="#2E9AFF" d="M428.59 524.04h43.47v43.47h-43.47z"/><path d="M473.65 569.1H427v-46.65h46.65v46.65zm-43.47-3.18h40.3v-40.3h-40.3v40.3z"/><path fill="#2E9AFF" d="M472.06 524.04h43.47v43.47h-43.47z"/><path d="M517.13 569.1h-46.66v-46.65h46.65v46.65zm-43.48-3.18h40.3v-40.3h-40.3v40.3z"/><path fill="#2E9AFF" d="M515.53 524.04H559v43.47h-43.47z"/><path d="M560.6 569.1h-46.66v-46.65h46.66v46.65zm-43.48-3.18h40.3v-40.3h-40.3v40.3z"/><path fill="#2E9AFF" d="M559.01 524.04h43.47v43.47h-43.47z"/><path d="M604.07 569.1h-46.65v-46.65h46.65v46.65zm-43.47-3.18h40.29v-40.3h-40.3v40.3z"/><path fill="#2E9AFF" d="M602.48 524.04h43.47v43.47h-43.47z"/><path d="M647.54 569.1h-46.65v-46.65h46.65v46.65zm-43.47-3.18h40.29v-40.3h-40.3v40.3z"/><path fill="#2E9AFF" d="M645.95 524.04h43.47v43.47h-43.47z"/><path d="M691.01 569.1h-46.65v-46.65H691v46.65zm-43.47-3.18h40.29v-40.3h-40.3v40.3z"/><path fill="#2E9AFF" d="M689.42 524.04h43.47v43.47h-43.47z"/><path d="M734.48 569.1h-46.65v-46.65h46.65v46.65zm-43.47-3.18h40.3v-40.3H691v40.3z"/><path fill="#2E9AFF" d="M732.89 524.04h43.47v43.47h-43.47z"/><path d="M777.95 569.1H731.3v-46.65h46.65v46.65zm-43.47-3.18h40.3v-40.3h-40.3v40.3z"/></g><g><path fill="#2E9AFF" d="M341.65 567.51h43.47v43.47h-43.47z"/><path d="M386.71 612.57h-46.65v-46.65h46.65v46.65zm-43.47-3.18h40.29V569.1h-40.3v40.29z"/><path fill="#2E9AFF" d="M385.12 567.51h43.47v43.47h-43.47z"/><path d="M430.18 612.57h-46.65v-46.65h46.65v46.65zm-43.47-3.18h40.3V569.1h-40.3v40.29z"/><path fill="#2E9AFF" d="M428.59 567.51h43.47v43.47h-43.47z"/><path d="M473.65 612.57H427v-46.65h46.65v46.65zm-43.47-3.18h40.3V569.1h-40.3v40.29z"/><path fill="#2E9AFF" d="M472.06 567.51h43.47v43.47h-43.47z"/><path d="M517.13 612.57h-46.66v-46.65h46.65v46.65zm-43.48-3.18h40.3V569.1h-40.3v40.29z"/><path fill="#2E9AFF" d="M515.53 567.51H559v43.47h-43.47z"/><path d="M560.6 612.57h-46.66v-46.65h46.66v46.65zm-43.48-3.18h40.3V569.1h-40.3v40.29z"/><path fill="#2E9AFF" d="M559.01 567.51h43.47v43.47h-43.47z"/><path d="M604.07 612.57h-46.65v-46.65h46.65v46.65zm-43.47-3.18h40.29V569.1h-40.3v40.29z"/><path fill="#2E9AFF" d="M602.48 567.51h43.47v43.47h-43.47z"/><path d="M647.54 612.57h-46.65v-46.65h46.65v46.65zm-43.47-3.18h40.29V569.1h-40.3v40.29z"/><path fill="#2E9AFF" d="M645.95 567.51h43.47v43.47h-43.47z"/><path d="M691.01 612.57h-46.65v-46.65H691v46.65zm-43.47-3.18h40.29V569.1h-40.3v40.29z"/><path fill="#2E9AFF" d="M689.42 567.51h43.47v43.47h-43.47z"/><path d="M734.48 612.57h-46.65v-46.65h46.65v46.65zm-43.47-3.18h40.3V569.1H691v40.29z"/><path fill="#FFF" d="M732.89 567.51h43.47v43.47h-43.47z"/><path d="M777.95 612.57H731.3v-46.65h46.65v46.65zm-43.47-3.18h40.3V569.1h-40.3v40.29z"/></g><g><path fill="#2E9AFF" d="M341.65 610.98h43.47v43.47h-43.47z"/><path d="M386.71 656.04h-46.65V609.4h46.65v46.65zm-43.47-3.18h40.29v-40.29h-40.3v40.3z"/><path fill="#FFF" d="M385.12 610.98h43.47v43.47h-43.47z"/><path d="M430.18 656.04h-46.65V609.4h46.65v46.65zm-43.47-3.18h40.3v-40.29h-40.3v40.3z"/><path fill="#2E9AFF" d="M428.59 610.98h43.47v43.47h-43.47z"/><path d="M473.65 656.04H427V609.4h46.65v46.65zm-43.47-3.18h40.3v-40.29h-40.3v40.3z"/><path fill="#2E9AFF" d="M472.06 610.98h43.47v43.47h-43.47z"/><path d="M517.13 656.04h-46.66V609.4h46.65v46.65zm-43.48-3.18h40.3v-40.29h-40.3v40.3z"/><path fill="#2E9AFF" d="M515.53 610.98H559v43.47h-43.47z"/><path d="M560.6 656.04h-46.66V609.4h46.66v46.65zm-43.48-3.18h40.3v-40.29h-40.3v40.3z"/><path fill="#2E9AFF" d="M559.01 610.98h43.47v43.47h-43.47z"/><path d="M604.07 656.04h-46.65V609.4h46.65v46.65zm-43.47-3.18h40.29v-40.29h-40.3v40.3z"/><path fill="#2E9AFF" d="M602.48 610.98h43.47v43.47h-43.47z"/><path d="M647.54 656.04h-46.65V609.4h46.65v46.65zm-43.47-3.18h40.29v-40.29h-40.3v40.3z"/><path fill="#2E9AFF" d="M645.95 610.98h43.47v43.47h-43.47z"/><path d="M691.01 656.04h-46.65V609.4H691v46.65zm-43.47-3.18h40.29v-40.29h-40.3v40.3z"/><path fill="#2E9AFF" d="M689.42 610.98h43.47v43.47h-43.47z"/><path d="M734.48 656.04h-46.65V609.4h46.65v46.65zm-43.47-3.18h40.3v-40.29H691v40.3z"/><path fill="#2E9AFF" d="M732.89 610.98h43.47v43.47h-43.47z"/><path d="M777.95 656.04H731.3V609.4h46.65v46.65zm-43.47-3.18h40.3v-40.29h-40.3v40.3z"/></g><g><path fill="#2E9AFF" d="M515.53 89.33H559v43.47h-43.47z"/><path d="M560.6 134.39h-46.66V87.74h46.66v46.65zm-43.48-3.18h40.3V90.9h-40.3v40.3z"/></g><g><path fill="#2E9AFF" d="M559.01 89.33h43.47v43.47h-43.47z"/><path d="M604.07 134.39h-46.65V87.74h46.65v46.65zm-43.47-3.18h40.29V90.9h-40.3v40.3z"/></g><g><path fill="#2E9AFF" d="M515.53 132.8H559v43.47h-43.47z"/><path d="M560.6 177.86h-46.66v-46.65h46.66v46.65zm-43.48-3.18h40.3v-40.3h-40.3v40.3z"/></g><g><path fill="#2E9AFF" d="M559.01 132.8h43.47v43.47h-43.47z"/><path d="M604.07 177.86h-46.65v-46.65h46.65v46.65zm-43.47-3.18h40.29v-40.3h-40.3v40.3z"/></g><g><circle cx="147.91" cy="118.18" r="103.44"/><circle fill="#2E9AFF" cx="124.06" cy="106.25" r="103.44"/><path d="M124.06 211.56c-58.07 0-105.3-47.24-105.3-105.3S65.98.94 124.05.94s105.3 47.24 105.3 105.3-47.24 105.3-105.3 105.3zm0-206.88c-56 0-101.57 45.57-101.57 101.57s45.56 101.57 101.57 101.57 101.56-45.56 101.56-101.57c0-56-45.56-101.57-101.56-101.57z"/><path fill="#FFF" d="M184.54 92.55c-.84 0-1.66.06-2.47.15a62.72 62.72 0 0 0-120.45 0 21.77 21.77 0 1 0 2.84 42.74 62.7 62.7 0 0 0 114.77 0 21.77 21.77 0 1 0 5.3-42.88z"/><path d="M121.85 174.72a64.62 64.62 0 0 1-58.46-37.14 23.66 23.66 0 0 1-27.87-23.25A23.66 23.66 0 0 1 60.27 90.7a64.88 64.88 0 0 1 61.58-45.11 64.87 64.87 0 0 1 61.57 45.11 23.63 23.63 0 1 1-3.11 46.87 64.62 64.62 0 0 1-58.46 37.14zm-56.31-41.48.63 1.44a60.88 60.88 0 0 0 55.68 36.3 60.89 60.89 0 0 0 55.67-36.3l.64-1.44 1.53.38a19.92 19.92 0 0 0 24.75-19.3 19.92 19.92 0 0 0-22.16-19.77l-1.56.18-.44-1.51a61.1 61.1 0 0 0-58.43-43.89 61.1 61.1 0 0 0-58.43 43.89l-.44 1.5-1.56-.17a19.92 19.92 0 0 0-22.16 19.77A19.92 19.92 0 0 0 64 133.62l1.53-.38z"/><path fill="none" d="m48.13 108.56 13.35 14.52"/><path d="M61.48 124.94c-.5 0-1.01-.2-1.38-.6l-13.35-14.51a1.87 1.87 0 0 1 2.75-2.53l13.35 14.51a1.87 1.87 0 0 1-1.37 3.13z"/><path fill="none" d="m192.97 108.56-13.35 14.52"/><path d="M179.62 124.94a1.86 1.86 0 0 1-1.38-3.13l13.35-14.51a1.87 1.87 0 1 1 2.75 2.53L181 124.33c-.37.41-.87.61-1.37.61z"/><path fill="none" d="M121.41 116.88v12.04"/><path d="M121.41 130.79a1.87 1.87 0 0 1-1.86-1.87v-12.04a1.87 1.87 0 0 1 3.73 0v12.04c0 1.03-.84 1.87-1.87 1.87z"/><path fill="#2E9AFF" d="M142.6 135.85a21.19 21.19 0 0 1-42.37 0h42.37z"/><path d="M83.99 130.79a1.87 1.87 0 0 1-.83-3.54l18.57-9.16-18.65-10.31a1.87 1.87 0 0 1 1.81-3.27l21.78 12.04a1.87 1.87 0 0 1-.08 3.3L84.81 130.6c-.26.13-.54.19-.82.19zm74.81 0c-.28 0-.57-.06-.83-.2l-21.78-10.73a1.87 1.87 0 0 1-.08-3.31l21.78-12.04a1.87 1.87 0 1 1 1.81 3.27l-18.65 10.31 18.57 9.16a1.87 1.87 0 0 1-.83 3.54z"/></g><g><path d="M510.53 808.23h288.4v111.65h-288.4z"/><path fill="#FFF" d="M488.2 803.24h288.4v94.1H488.2z"/><path d="M778.19 898.93H486.6v-97.28h291.57v97.28zm-288.4-3.18H775v-90.92H489.8v90.92z"/><path d="M517.27 837.52h3.58v3.22l.2.07a8.33 8.33 0 0 0 3.55.74c1.22 0 2.16-.24 2.84-.72a2.32 2.32 0 0 0 1.01-1.98c0-.74-.28-1.33-.83-1.8a8.4 8.4 0 0 0-2.06-1.2c-.81-.34-1.7-.7-2.67-1.04-.97-.35-1.86-.79-2.67-1.32a7.37 7.37 0 0 1-2.06-2 5.4 5.4 0 0 1-.83-3.14 6.25 6.25 0 0 1 2.17-4.79 7.4 7.4 0 0 1 2.46-1.37 9.86 9.86 0 0 1 3.2-.49c1.32 0 2.62.12 3.9.36 1.29.24 2.31.57 3.07.98v6.62h-3.59v-3.62a4.27 4.27 0 0 0-5.85.16c-.6.42-.9.97-.9 1.66 0 .72.28 1.31.84 1.77.55.45 1.24.87 2.05 1.23.82.37 1.7.74 2.68 1.11.96.37 1.85.82 2.67 1.36a7.4 7.4 0 0 1 2.05 2c.56.8.84 1.82.84 3.03a6.27 6.27 0 0 1-2.48 5.3 8 8 0 0 1-2.77 1.34c-1.06.3-2.22.44-3.46.44a12.61 12.61 0 0 1-4.25-.69 13.01 13.01 0 0 1-2.7-1.17v-6.06zm35.24 5.9a9.32 9.32 0 0 1-3.13 1.51c-1.2.34-2.44.5-3.75.5-1.41 0-2.67-.2-3.77-.61s-2.02-1-2.77-1.74a7.4 7.4 0 0 1-1.7-2.73 9.93 9.93 0 0 1-.6-3.52c0-1.37.24-2.59.7-3.65a7.7 7.7 0 0 1 4.78-4.38c1.11-.38 2.32-.57 3.62-.57a15.62 15.62 0 0 1 5.87 1.23v5.74h-3.59v-3a9.23 9.23 0 0 0-2.02-.23c-.6 0-1.2.1-1.8.28a4.44 4.44 0 0 0-2.75 2.4 5 5 0 0 0-.44 2.18c0 .7.12 1.34.36 1.92a4.62 4.62 0 0 0 2.62 2.56 7.67 7.67 0 0 0 5.19-.15c.8-.34 1.39-.65 1.78-.9l1.4 3.16zm2.9-6.59c0-1.37.2-2.59.62-3.65a7.47 7.47 0 0 1 4.49-4.38 10.1 10.1 0 0 1 3.53-.57c1.37 0 2.6.2 3.67.61s1.98 1 2.72 1.75c.74.75 1.3 1.65 1.68 2.72.38 1.07.57 2.24.57 3.52 0 1.37-.2 2.59-.61 3.65a7.5 7.5 0 0 1-1.77 2.7 7.5 7.5 0 0 1-2.72 1.69c-1.05.38-2.23.57-3.54.57-1.37 0-2.59-.2-3.66-.62a7.3 7.3 0 0 1-4.4-4.47 10.43 10.43 0 0 1-.58-3.52zm4.37 0c0 .72.1 1.38.3 1.99.19.6.47 1.14.84 1.6a3.82 3.82 0 0 0 3.13 1.43c1.26 0 2.29-.4 3.08-1.2.8-.8 1.2-2.08 1.2-3.82 0-1.5-.38-2.7-1.12-3.63a3.81 3.81 0 0 0-3.16-1.39c-.6 0-1.17.1-1.7.28-.51.18-.97.48-1.35.9s-.68.93-.9 1.56a7 7 0 0 0-.32 2.28zm15.32 4.57h4.05v-9.13h-4.05v-3.59h7.34l.49 2.15h.13c.6-.72 1.3-1.31 2.09-1.8.78-.47 1.7-.71 2.73-.71a3.7 3.7 0 0 1 3.09 1.44c.75.95 1.12 2.55 1.12 4.79h-3.81c0-.78-.12-1.36-.35-1.71-.22-.36-.59-.54-1.09-.54-.87 0-1.57.22-2.1.65a6.9 6.9 0 0 0-1.36 1.5v6.94h7.08v3.59H575.1v-3.58zm35.7 1.85c-.27.27-.64.52-1.09.77a10.89 10.89 0 0 1-3.53 1.22 12.7 12.7 0 0 1-6.02-.39c-1.1-.4-2.02-.96-2.78-1.71s-1.35-1.65-1.75-2.7c-.4-1.06-.6-2.26-.6-3.61 0-1.44.23-2.69.68-3.77a7.5 7.5 0 0 1 4.66-4.3 10.78 10.78 0 0 1 6.02-.21c.88.22 1.69.6 2.43 1.12a6.06 6.06 0 0 1 1.81 2.14c.47.9.7 2.02.7 3.39 0 .94-.1 1.94-.32 3.03h-11.74a3.5 3.5 0 0 0 1.51 2.94 5 5 0 0 0 1.54.67c.57.14 1.18.2 1.84.2 1.3 0 2.37-.14 3.21-.45.84-.3 1.52-.67 2.04-1.1l1.4 2.76zm-7.04-11.63c-.56 0-1.1.07-1.6.23s-.94.38-1.35.68c-.4.3-.73.67-1 1.11a3.4 3.4 0 0 0-.45 1.5h8.02a3.6 3.6 0 0 0-.9-2.58c-.6-.63-1.5-.94-2.72-.94zm-87.37 34.26c0-1.98.2-3.72.62-5.2s1-2.73 1.75-3.7a7.26 7.26 0 0 1 2.7-2.2 8.2 8.2 0 0 1 3.5-.74c2.75 0 4.87.96 6.35 2.89 1.48 1.92 2.23 4.9 2.23 8.95 0 2-.21 3.74-.62 5.23a10.9 10.9 0 0 1-1.76 3.72 7.15 7.15 0 0 1-2.71 2.21 8.29 8.29 0 0 1-3.52.74c-2.77 0-4.89-1.02-6.35-3.05s-2.2-4.99-2.2-8.86zm4.24 0a25 25 0 0 0 .06 1.82l7.9-7.27c-.65-1.87-1.87-2.8-3.66-2.8-1.38 0-2.44.66-3.19 2-.74 1.34-1.12 3.42-1.12 6.25zm8.67 0a28.43 28.43 0 0 0-.07-1.93l-7.92 7.27c.67 1.98 1.89 2.97 3.65 2.97 1.38 0 2.45-.66 3.2-1.99.76-1.33 1.14-3.43 1.14-6.33zm23.21 4.37a7.27 7.27 0 0 1-2.25 5.34 8.2 8.2 0 0 1-5.6 2.18 9.28 9.28 0 0 1-3.18-.53 7.2 7.2 0 0 1-4.36-4.32 10.1 10.1 0 0 1-.65-3.78c0-2.15.38-4.1 1.13-5.87a16.15 16.15 0 0 1 2.88-4.58 15 15 0 0 1 3.94-3.13c1.46-.8 2.9-1.3 4.34-1.52l.95 3.36a12.6 12.6 0 0 0-5.9 2.84c-.79.7-1.44 1.46-1.98 2.31s-.9 1.73-1.1 2.64c.44-.54 1.1-1 1.97-1.38a7.79 7.79 0 0 1 5.6-.1 6.28 6.28 0 0 1 3.67 3.57c.36.87.54 1.86.54 2.97zm-4.1.16c0-1.18-.36-2.06-1.07-2.68-.7-.6-1.66-.9-2.85-.9a4.7 4.7 0 0 0-3.88 1.95c-.05.24-.07.5-.08.8-.02.3-.02.52-.02.7 0 .52.09 1.02.26 1.5a3.64 3.64 0 0 0 3.65 2.41 4.05 4.05 0 0 0 2.74-1.04c.37-.33.67-.72.9-1.19.23-.47.34-.99.34-1.55zm7.62-8.77c0-1.11.19-2.13.57-3.07a6.86 6.86 0 0 1 4.08-3.96 8.79 8.79 0 0 1 3.24-.57c1.22 0 2.33.19 3.33.56a6.95 6.95 0 0 1 4.24 4.35c.39 1.08.58 2.31.58 3.7 0 2.52-.32 4.7-.98 6.52-.65 1.83-1.52 3.35-2.62 4.56s-2.38 2.16-3.83 2.8a15.19 15.19 0 0 1-4.56 1.25l-.92-3.33c1.2-.15 2.28-.44 3.25-.88a9.75 9.75 0 0 0 2.52-1.61 8.41 8.41 0 0 0 1.76-2.19c.46-.81.75-1.69.88-2.62-.45.45-1.04.82-1.76 1.1s-1.57.4-2.57.4h-.07a7.9 7.9 0 0 1-2.5-.43 6.79 6.79 0 0 1-4.64-6.58zm4.11-.23a3.6 3.6 0 0 0 2.53 3.5 5.8 5.8 0 0 0 3.83-.18 3.42 3.42 0 0 0 1.43-1.04c.07-.45.1-.89.1-1.3 0-.61-.08-1.2-.26-1.8s-.44-1.1-.78-1.56a3.83 3.83 0 0 0-3.1-1.5c-1.06 0-1.96.34-2.67 1.03a3.76 3.76 0 0 0-1.08 2.85zm32.51 9.55h-3.92v6.36h-3.94v-6.36h-9.88v-2.9l10.34-13.73h3.48v13.24h3.92v3.4zm-7.86-10.63-5.67 7.24h5.67v-7.24zm9.84 5.55c0-1.98.21-3.72.63-5.2s1-2.73 1.75-3.7a7.26 7.26 0 0 1 2.7-2.2 8.2 8.2 0 0 1 3.5-.74c2.75 0 4.86.96 6.35 2.89 1.48 1.92 2.23 4.9 2.23 8.95 0 2-.21 3.74-.63 5.23a10.9 10.9 0 0 1-1.75 3.72 7.15 7.15 0 0 1-2.71 2.21 8.29 8.29 0 0 1-3.52.74c-2.77 0-4.9-1.02-6.35-3.05s-2.2-4.99-2.2-8.86zm4.24 0a25 25 0 0 0 .07 1.82l7.89-7.27c-.65-1.87-1.86-2.8-3.65-2.8-1.38 0-2.44.66-3.19 2-.75 1.34-1.12 3.42-1.12 6.25zm8.68 0a28.43 28.43 0 0 0-.07-1.93l-7.92 7.27c.66 1.98 1.88 2.97 3.65 2.97 1.38 0 2.45-.66 3.2-1.99.76-1.33 1.14-3.43 1.14-6.33zm8.86 7.85h5V859.5l-4.31 3.29-1.96-2.6 7.44-5.68h2.86v19.23h4.9v3.59H616.4v-3.59zm130.13 5.58-20.25-9.91-19.64 11.06 3.16-22.32-16.59-15.27 22.21-3.88 9.39-20.5 10.56 19.92 22.4 2.6-15.69 16.2z"/></g><g><path d="M121.85 49.51c-.11-.59-.22-1.17-.31-1.77a62.76 62.76 0 0 0-60.37 46.74 55.44 55.44 0 0 0 60.68-44.97zm.31-1.77-.31 1.77a55.44 55.44 0 0 0 60.68 44.97 62.76 62.76 0 0 0-60.37-46.74zm-.62-.12c.09.59.2 1.17.3 1.75.12-.58.23-1.16.32-1.75h-.62z"/></g></svg>