<?xml version="1.0" encoding="utf-8"?>
<!-- Generator: Adobe Illustrator 16.0.0, SVG Export Plug-In . SVG Version: 6.00 Build 0)  -->
<!DOCTYPE svg PUBLIC "-//W3C//DTD SVG 1.1//EN" "http://www.w3.org/Graphics/SVG/1.1/DTD/svg11.dtd">
<svg version="1.1" id="Layer_1" xmlns="http://www.w3.org/2000/svg" xmlns:xlink="http://www.w3.org/1999/xlink" x="0px" y="0px"
	 width="1080px" height="1080px" viewBox="0 0 1080 1080" enable-background="new 0 0 1080 1080" xml:space="preserve">
<g>
	<g>
		<g>
			<rect x="510.477" y="810.445" width="288.396" height="111.645"/>
		</g>
		<g>
			<rect x="488.148" y="804.663" fill="#FFFFFF" width="288.396" height="94.103"/>
			<path d="M778.135,900.356H486.558v-97.284h291.577V900.356z M489.739,897.175h285.214v-90.921H489.739V897.175z"/>
		</g>
	</g>
	<g>
		<g>
			<path d="M528.594,834.002h4.043v9.292h-14.998v-22.823h4.468v18.847h6.487V834.002z"/>
			<path d="M552.067,841.566c-0.282,0.26-0.646,0.516-1.093,0.766c-0.445,0.25-0.968,0.484-1.564,0.701s-1.255,0.391-1.973,0.521
				c-0.718,0.131-1.479,0.195-2.282,0.195c-1.392,0-2.636-0.195-3.732-0.586c-1.099-0.393-2.026-0.963-2.788-1.713
				c-0.761-0.749-1.342-1.65-1.744-2.705c-0.401-1.056-0.604-2.255-0.604-3.604c0-1.434,0.229-2.688,0.685-3.766
				c0.457-1.076,1.081-1.973,1.875-2.689c0.793-0.717,1.724-1.256,2.788-1.612c1.064-0.359,2.217-0.539,3.456-0.539
				c0.825,0,1.679,0.108,2.56,0.326s1.689,0.593,2.43,1.125c0.738,0.532,1.342,1.243,1.81,2.136c0.468,0.892,0.7,2.021,0.7,3.391
				c0,0.936-0.107,1.946-0.325,3.032h-11.736c0.021,0.695,0.168,1.283,0.438,1.761c0.271,0.479,0.631,0.87,1.076,1.174
				c0.445,0.306,0.956,0.526,1.532,0.668c0.576,0.143,1.189,0.213,1.842,0.213c1.305,0,2.375-0.151,3.212-0.456
				s1.516-0.675,2.038-1.108L552.067,841.566z M545.025,829.926c-0.565,0-1.099,0.078-1.599,0.233s-0.951,0.382-1.354,0.681
				c-0.403,0.299-0.733,0.67-0.994,1.113s-0.413,0.94-0.456,1.494h8.021c0-1.085-0.3-1.942-0.896-2.574
				C547.149,830.242,546.242,829.926,545.025,829.926z"/>
			<path d="M564.425,838.371h0.229l3.65-11.379h4.564l-6.229,16.302h-4.531l-7.011-16.302h4.925L564.425,838.371z"/>
			<path d="M591.191,841.566c-0.282,0.26-0.646,0.516-1.093,0.766c-0.445,0.25-0.968,0.484-1.564,0.701s-1.255,0.391-1.974,0.521
				c-0.717,0.131-1.478,0.195-2.281,0.195c-1.392,0-2.637-0.195-3.732-0.586c-1.099-0.393-2.027-0.963-2.788-1.713
				c-0.761-0.749-1.342-1.65-1.744-2.705c-0.401-1.056-0.604-2.255-0.604-3.604c0-1.434,0.229-2.688,0.685-3.766
				c0.457-1.076,1.081-1.973,1.875-2.689c0.793-0.717,1.724-1.256,2.788-1.612c1.064-0.359,2.217-0.539,3.456-0.539
				c0.825,0,1.679,0.108,2.56,0.326s1.689,0.593,2.43,1.125c0.738,0.532,1.342,1.243,1.81,2.136c0.467,0.892,0.7,2.021,0.7,3.391
				c0,0.936-0.107,1.946-0.325,3.032H579.65c0.021,0.695,0.168,1.283,0.438,1.761c0.271,0.479,0.631,0.87,1.076,1.174
				c0.445,0.306,0.956,0.526,1.532,0.668c0.576,0.143,1.189,0.213,1.842,0.213c1.305,0,2.375-0.151,3.212-0.456
				s1.516-0.675,2.038-1.108L591.191,841.566z M584.149,829.926c-0.565,0-1.099,0.078-1.599,0.233s-0.951,0.382-1.354,0.681
				c-0.403,0.299-0.733,0.67-0.994,1.113c-0.262,0.443-0.413,0.94-0.456,1.494h8.021c0-1.085-0.3-1.942-0.896-2.574
				C586.273,830.242,585.366,829.926,584.149,829.926z"/>
			<path d="M596.181,820.471h6.944v15.063c0,1.675,0.206,2.837,0.619,3.489c0.413,0.65,1.076,0.978,1.989,0.978
				c0.673,0,1.228-0.07,1.661-0.212c0.436-0.141,0.869-0.342,1.306-0.604l1.598,2.935c-0.37,0.239-0.739,0.462-1.107,0.669
				c-0.37,0.207-0.763,0.38-1.175,0.521c-0.412,0.141-0.863,0.25-1.354,0.325c-0.49,0.076-1.038,0.113-1.646,0.113
				c-2.043,0-3.574-0.521-4.597-1.564c-1.021-1.043-1.532-2.521-1.532-4.434v-13.694h-2.706V820.471L596.181,820.471z"/>
		</g>
		<g>
			<path d="M516.335,864.188c0-1.979,0.206-3.712,0.621-5.2s0.998-2.724,1.751-3.7c0.753-0.978,1.653-1.712,2.7-2.2
				c1.048-0.49,2.215-0.734,3.502-0.734c2.749,0,4.866,0.962,6.35,2.887c1.483,1.923,2.227,4.906,2.227,8.95
				c0,2-0.208,3.743-0.622,5.231c-0.415,1.488-0.998,2.729-1.751,3.717c-0.753,0.989-1.658,1.729-2.718,2.217
				c-1.059,0.489-2.229,0.734-3.518,0.734c-2.771,0-4.888-1.017-6.35-3.049S516.335,868.057,516.335,864.188z M520.573,864.188
				c0,0.326,0.005,0.636,0.016,0.93s0.027,0.593,0.049,0.896l7.892-7.271c-0.646-1.869-1.865-2.805-3.654-2.805
				c-1.38,0-2.441,0.669-3.186,2.006S520.573,861.361,520.573,864.188z M529.246,864.188c0-0.348-0.006-0.68-0.018-0.994
				c-0.011-0.314-0.026-0.624-0.049-0.93l-7.923,7.271c0.668,1.978,1.887,2.967,3.654,2.967c1.38,0,2.446-0.663,3.201-1.989
				C528.868,869.188,529.246,867.078,529.246,864.188z"/>
			<path d="M538.113,872.045h4.987v-14.248l-4.304,3.293l-1.956-2.607l7.435-5.674h2.868v19.236h4.892v3.586h-13.922V872.045z"/>
			<path d="M562.306,872.501c0.718,0,1.374-0.092,1.974-0.276c0.598-0.184,1.107-0.442,1.531-0.777
				c0.425-0.335,0.756-0.726,0.994-1.169c0.239-0.443,0.358-0.925,0.358-1.443c0-0.649-0.136-1.195-0.407-1.639
				s-0.646-0.795-1.125-1.056c-0.479-0.26-1.055-0.443-1.728-0.553c-0.675-0.106-1.402-0.162-2.186-0.162h-1.826v-2.34l5.479-6.691
				h-8.249v-3.586h13.303v2.968l-5.738,6.553h0.75c0.762,0,1.5,0.131,2.218,0.392c0.718,0.262,1.354,0.652,1.906,1.174
				c0.556,0.521,1,1.175,1.337,1.956c0.338,0.783,0.507,1.687,0.507,2.706c0,1.239-0.257,2.326-0.768,3.262
				c-0.511,0.935-1.185,1.723-2.021,2.362c-0.837,0.643-1.799,1.12-2.887,1.437c-1.087,0.313-2.205,0.473-3.356,0.473
				c-0.979,0-1.957-0.088-2.936-0.262s-1.924-0.445-2.837-0.814l1.143-3.521c0.195,0.108,0.461,0.217,0.799,0.326
				c0.336,0.108,0.717,0.217,1.141,0.325c0.425,0.109,0.858,0.195,1.306,0.262C561.431,872.469,561.87,872.501,562.306,872.501z"/>
		</g>
	</g>
	<g>
		<polygon points="764.495,850.145 734.934,820.581 734.85,834.374 705.817,834.374 705.817,866.267 734.66,866.267 
			734.577,880.062 		"/>
	</g>
</g>
<g>
	<g>
		<g>
			<rect x="153.392" y="815.479" width="261.367" height="186.17"/>
		</g>
		<g>
			<rect x="133.156" y="804.663" fill="#FFFFFF" width="261.365" height="175.999"/>
			<path d="M395.964,982.104H131.715V803.222h264.249V982.104z M134.598,979.221h258.483V806.104H134.598V979.221z"/>
		</g>
	</g>
	<g>
		<g>
			<rect x="181.84" y="867.416" fill="#2E9AFF" width="39.398" height="39.396"/>
			<path fill="#FFFFFF" d="M222.68,908.254h-42.281v-42.279h42.281V908.254z M183.281,905.371h36.516v-36.514h-36.516V905.371z"/>
		</g>
		<g>
			<rect x="221.238" y="867.416" fill="#2E9AFF" width="39.396" height="39.396"/>
			<path fill="#FFFFFF" d="M262.076,908.254h-42.279v-42.279h42.279V908.254z M222.68,905.371h36.514v-36.514H222.68V905.371z"/>
		</g>
		<g>
			<rect x="260.635" y="867.416" fill="#2E9AFF" width="39.397" height="39.396"/>
			<path fill="#FFFFFF" d="M301.474,908.254h-42.28v-42.279h42.28V908.254z M262.076,905.371h36.515v-36.514h-36.515V905.371z"/>
		</g>
		<g>
			<rect x="300.032" y="867.416" fill="#2E9AFF" width="39.396" height="39.396"/>
			<path fill="#FFFFFF" d="M340.871,908.254h-42.28v-42.279h42.28V908.254z M301.474,905.371h36.515v-36.514h-36.515V905.371z"/>
		</g>
	</g>
	<g>
		<g>
			<rect x="339.43" y="928.695" width="17.286" height="17.285"/>
			<path fill="#FFFFFF" d="M358.157,947.422h-20.169v-20.168h20.169V947.422z M340.871,944.539h14.403v-14.402h-14.403V944.539z"/>
		</g>
		<g>
			<g>
				<rect x="356.716" y="928.695" width="17.284" height="17.285"/>
				<path fill="#FFFFFF" d="M375.441,947.422h-20.167v-20.168h20.167V947.422z M358.157,944.539h14.4v-14.402h-14.4V944.539z"/>
			</g>
			<g>
				<rect x="339.43" y="945.98" width="17.286" height="17.284"/>
				<path fill="#FFFFFF" d="M358.157,964.707h-20.169v-20.168h20.169V964.707z M340.871,961.824h14.403v-14.402h-14.403V961.824z"/>
			</g>
			<g>
				<rect x="356.716" y="945.98" width="17.284" height="17.284"/>
				<path fill="#FFFFFF" d="M375.441,964.707h-20.167v-20.168h20.167V964.707z M358.157,961.824h14.4v-14.402h-14.4V961.824z"/>
			</g>
		</g>
	</g>
	<g>
		<path d="M162.323,831.898h-0.148l0.178,2.451v9.78h-3.842v-20.684h3.546l7.15,12.646h0.148l-0.267-2.481v-10.164h3.842v20.684
			h-3.546L162.323,831.898z"/>
		<path d="M190.363,842.564c-0.256,0.235-0.586,0.469-0.989,0.693c-0.404,0.229-0.877,0.439-1.419,0.636
			c-0.542,0.197-1.138,0.354-1.787,0.474c-0.65,0.118-1.34,0.178-2.068,0.178c-1.261,0-2.389-0.178-3.384-0.532
			c-0.994-0.354-1.837-0.872-2.526-1.552c-0.689-0.679-1.216-1.496-1.58-2.452c-0.365-0.955-0.547-2.043-0.547-3.265
			c0-1.301,0.207-2.438,0.62-3.413c0.414-0.976,0.979-1.788,1.699-2.438c0.719-0.649,1.561-1.138,2.526-1.463
			c0.965-0.325,2.01-0.486,3.132-0.486c0.749,0,1.522,0.099,2.319,0.295c0.798,0.196,1.532,0.537,2.202,1.02
			c0.669,0.483,1.216,1.128,1.64,1.937c0.423,0.808,0.635,1.831,0.635,3.072c0,0.848-0.099,1.764-0.295,2.748h-10.638
			c0.02,0.631,0.152,1.162,0.399,1.597c0.246,0.434,0.571,0.787,0.975,1.062c0.403,0.276,0.867,0.479,1.389,0.605
			c0.522,0.129,1.079,0.191,1.67,0.191c1.182,0,2.151-0.138,2.91-0.414c0.758-0.274,1.374-0.609,1.847-1.004L190.363,842.564z
			 M183.981,832.017c-0.513,0-0.995,0.07-1.448,0.212c-0.453,0.14-0.861,0.346-1.226,0.616c-0.365,0.271-0.665,0.606-0.901,1.009
			c-0.236,0.401-0.375,0.854-0.414,1.354h7.269c0-0.983-0.271-1.761-0.812-2.333C185.906,832.303,185.084,832.017,183.981,832.017z"
			/>
		<path d="M198.548,836.508l-5.141-7.15h4.579l3.339,4.935l3.487-4.935h4.166l-5.053,7.092l5.349,7.683h-4.462l-3.753-5.437
			l-3.812,5.437h-4.196L198.548,836.508z"/>
		<path d="M213.47,832.607h-2.926v-3.251h2.926v-3.368l3.841-1.094v4.462h7.742v3.251h-7.742v4.225c0,1.518,0.285,2.615,0.857,3.295
			c0.571,0.68,1.368,1.02,2.394,1.02c0.531,0,1.014-0.062,1.447-0.191c0.434-0.128,0.822-0.29,1.167-0.487
			c0.345-0.196,0.66-0.413,0.946-0.649c0.285-0.236,0.546-0.452,0.782-0.649l1.773,2.659c-0.335,0.395-0.754,0.753-1.256,1.078
			c-0.503,0.324-1.045,0.61-1.625,0.856c-0.582,0.246-1.188,0.438-1.817,0.576c-0.631,0.138-1.251,0.207-1.861,0.207
			c-2.207,0-3.866-0.616-4.979-1.847c-1.112-1.231-1.669-3.188-1.669-5.866V832.607z"/>
	</g>
	<g>
		<path d="M166.099,950.674c-0.229-0.094-0.482-0.165-0.76-0.212c-0.276-0.047-0.61-0.07-1.002-0.07
			c-0.554,0-1.097,0.102-1.63,0.304c-0.533,0.201-1.005,0.53-1.417,0.987c-0.412,0.458-0.742,1.058-0.992,1.796
			c-0.249,0.74-0.374,1.648-0.374,2.726c0,0.969,0.111,1.815,0.334,2.542c0.223,0.727,0.533,1.332,0.932,1.815
			c0.397,0.484,0.877,0.849,1.437,1.091c0.561,0.241,1.184,0.362,1.873,0.362c0.351,0,0.678-0.029,0.981-0.091
			c0.303-0.061,0.583-0.145,0.84-0.252v-2.019h1.493v2.725l0.021,0.04c-0.403,0.31-0.915,0.568-1.534,0.777
			c-0.618,0.208-1.372,0.312-2.26,0.312c-0.848,0-1.631-0.145-2.351-0.434c-0.72-0.289-1.342-0.729-1.866-1.322
			c-0.525-0.592-0.933-1.349-1.222-2.271s-0.434-2.015-0.434-3.278c0-1.318,0.161-2.438,0.484-3.36
			c0.323-0.921,0.76-1.675,1.312-2.26c0.552-0.585,1.194-1.012,1.928-1.281c0.732-0.269,1.517-0.403,2.351-0.403
			c0.457,0,0.854,0.018,1.19,0.051s0.632,0.081,0.888,0.142c0.256,0.061,0.481,0.138,0.676,0.232c0.195,0.094,0.387,0.2,0.575,0.321
			h0.021v3.188H166.1L166.099,950.674L166.099,950.674z"/>
		<path d="M176.269,953.176h2.886v6.882c0,0.659,0.04,1.291,0.121,1.896h1.352v1.312h-2.703l-0.061-1.715h-0.081
			c-0.349,0.578-0.812,1.049-1.389,1.412s-1.274,0.545-2.093,0.545c-0.616,0-1.144-0.07-1.579-0.212s-0.795-0.387-1.076-0.736
			c-0.282-0.35-0.49-0.816-0.624-1.401c-0.135-0.586-0.201-1.315-0.201-2.189v-4.438h-1.352v-1.354h2.945v5.469
			c0,0.553,0.023,1.047,0.07,1.483c0.047,0.437,0.144,0.807,0.29,1.109c0.147,0.303,0.364,0.531,0.651,0.687
			c0.287,0.155,0.671,0.232,1.151,0.232c0.693,0,1.298-0.229,1.812-0.688c0.514-0.458,0.904-1.028,1.172-1.715v-5.227h-1.292
			L176.269,953.176L176.269,953.176z"/>
		<path d="M182.403,963.266v-1.352h2.724v-7.386h-2.724v-1.354h3.773l0.322,1.312h0.102c0.457-0.416,0.969-0.773,1.533-1.069
			c0.565-0.296,1.237-0.443,2.019-0.443c0.457,0,0.823,0.088,1.1,0.263c0.275,0.175,0.49,0.431,0.646,0.767
			c0.154,0.337,0.259,0.744,0.312,1.223c0.053,0.478,0.081,1.019,0.081,1.623l-1.413,0.021c0-0.854-0.084-1.481-0.252-1.882
			c-0.168-0.401-0.474-0.602-0.918-0.602c-0.417,0-0.794,0.062-1.13,0.183c-0.337,0.12-0.629,0.269-0.878,0.441
			c-0.249,0.176-0.461,0.35-0.636,0.523c-0.175,0.174-0.303,0.322-0.384,0.442v5.938h3.875v1.353h-8.152V963.266z"/>
		<path d="M194.511,963.266v-1.352h2.724v-7.386h-2.724v-1.354h3.773l0.322,1.312h0.102c0.457-0.416,0.969-0.773,1.533-1.069
			c0.565-0.296,1.237-0.443,2.019-0.443c0.457,0,0.823,0.088,1.1,0.263c0.275,0.175,0.49,0.431,0.646,0.767
			c0.154,0.337,0.259,0.744,0.312,1.223c0.053,0.478,0.081,1.019,0.081,1.623l-1.413,0.021c0-0.854-0.084-1.481-0.252-1.882
			c-0.168-0.401-0.474-0.602-0.918-0.602c-0.417,0-0.794,0.062-1.13,0.183c-0.337,0.12-0.629,0.269-0.878,0.441
			c-0.249,0.176-0.461,0.35-0.636,0.523c-0.175,0.174-0.303,0.322-0.384,0.442v5.938h3.875v1.353h-8.152V963.266z"/>
		<path d="M215.96,961.994c-0.242,0.216-0.528,0.417-0.857,0.604c-0.33,0.188-0.689,0.351-1.08,0.484
			c-0.39,0.135-0.797,0.238-1.221,0.312c-0.424,0.074-0.851,0.111-1.281,0.111c-0.808,0-1.521-0.125-2.139-0.373
			c-0.619-0.249-1.138-0.604-1.554-1.068c-0.418-0.466-0.733-1.021-0.949-1.665c-0.215-0.646-0.322-1.372-0.322-2.181
			c0-0.848,0.117-1.601,0.353-2.26c0.236-0.659,0.575-1.211,1.02-1.655c0.444-0.442,0.981-0.782,1.614-1.019
			c0.632-0.235,1.339-0.354,2.119-0.354c0.564,0,1.123,0.074,1.675,0.224c0.551,0.146,1.039,0.427,1.463,0.837
			c0.424,0.411,0.75,0.976,0.979,1.695c0.229,0.719,0.31,1.65,0.242,2.795h-7.789c0,1.211,0.325,2.114,0.976,2.714
			c0.651,0.599,1.52,0.897,2.606,0.897c0.362,0,0.722-0.044,1.077-0.132c0.355-0.087,0.694-0.19,1.017-0.312
			c0.321-0.121,0.606-0.257,0.855-0.403c0.248-0.148,0.438-0.283,0.573-0.404L215.96,961.994z M211.711,954.266
			c-0.442,0-0.861,0.049-1.257,0.143s-0.744,0.252-1.046,0.474c-0.302,0.224-0.55,0.513-0.744,0.868
			c-0.194,0.355-0.318,0.797-0.372,1.321h6.256c-0.067-0.889-0.353-1.577-0.855-2.068
			C213.189,954.512,212.529,954.266,211.711,954.266z"/>
		<path d="M219.27,956.707c0-0.121-0.004-0.278-0.011-0.474c-0.007-0.196-0.017-0.396-0.03-0.605s-0.03-0.414-0.05-0.615
			c-0.021-0.202-0.044-0.377-0.071-0.524h-1.352v-1.312h2.704l0.182,1.635h0.101c0.135-0.229,0.312-0.453,0.535-0.676
			c0.222-0.222,0.48-0.424,0.776-0.604c0.296-0.182,0.626-0.326,0.989-0.435c0.363-0.107,0.746-0.162,1.15-0.162
			c0.618,0,1.166,0.067,1.645,0.202c0.477,0.136,0.874,0.373,1.19,0.717c0.315,0.344,0.555,0.808,0.716,1.393
			c0.162,0.586,0.242,1.329,0.242,2.229v5.791h-1.594v-5.477c0-1.113-0.181-1.952-0.543-2.518c-0.362-0.562-1.019-0.846-1.971-0.846
			c-0.349,0-0.687,0.071-1.016,0.212c-0.328,0.142-0.626,0.325-0.895,0.555c-0.268,0.229-0.503,0.492-0.704,0.795
			c-0.201,0.303-0.348,0.62-0.441,0.957v6.32h-1.554v-6.558H219.27z"/>
		<path d="M230.126,953.176h2.401v-1.997l1.594-0.443v2.44h5.388v1.354h-5.388v4.762c0,0.982,0.237,1.709,0.714,2.18
			c0.476,0.472,1.156,0.706,2.041,0.706c0.604,0,1.13-0.113,1.579-0.343c0.449-0.229,0.854-0.478,1.217-0.747l0.523,1.19
			c-0.472,0.377-1.033,0.68-1.686,0.908c-0.653,0.228-1.321,0.344-2.008,0.344c-0.538,0-1.046-0.078-1.523-0.232
			s-0.897-0.394-1.261-0.717c-0.363-0.322-0.653-0.736-0.868-1.24c-0.215-0.505-0.322-1.105-0.322-1.807v-5.004h-2.401V953.176
			L230.126,953.176z"/>
	</g>
</g>
<g>
	<g>
		<g>
			<rect x="153.426" y="358.568" width="261.829" height="399.198"/>
		</g>
		<g>
			<rect x="133.156" y="337.097" fill="#FFFFFF" width="261.828" height="399.196"/>
			<path d="M396.575,737.884h-265.01V335.507h265.01V737.884z M134.747,734.702h258.646V338.688H134.747V734.702z"/>
		</g>
	</g>
	<g>
		<g>
			<path d="M161.193,383.181h3.587v3.228c0.064,0.021,0.13,0.043,0.195,0.065c0.5,0.218,1.048,0.397,1.646,0.538
				c0.598,0.142,1.233,0.212,1.907,0.212c1.217,0,2.162-0.245,2.837-0.733c0.673-0.489,1.011-1.146,1.011-1.973
				c0-0.739-0.277-1.337-0.832-1.793c-0.554-0.456-1.238-0.858-2.054-1.206c-0.816-0.348-1.707-0.695-2.674-1.043
				c-0.967-0.348-1.858-0.788-2.673-1.32c-0.815-0.533-1.5-1.201-2.055-2.005c-0.554-0.804-0.831-1.847-0.831-3.13
				c0-0.978,0.189-1.875,0.57-2.69c0.38-0.815,0.913-1.516,1.598-2.103c0.685-0.587,1.505-1.043,2.462-1.37
				c0.956-0.326,2.021-0.489,3.195-0.489c1.325,0,2.629,0.12,3.912,0.358c1.282,0.239,2.304,0.565,3.064,0.978v6.619h-3.586v-3.619
				c-0.065,0-0.131-0.011-0.196-0.033c-0.478-0.13-0.994-0.233-1.548-0.31c-0.555-0.076-1.104-0.114-1.646-0.114
				c-1.044,0-1.864,0.207-2.462,0.62c-0.599,0.413-0.896,0.967-0.896,1.663c0,0.717,0.277,1.304,0.831,1.76
				c0.555,0.457,1.239,0.87,2.054,1.239c0.815,0.37,1.706,0.739,2.674,1.108c0.967,0.37,1.858,0.821,2.674,1.353
				c0.814,0.533,1.5,1.201,2.054,2.005c0.555,0.805,0.831,1.815,0.831,3.032c0,1.174-0.217,2.201-0.651,3.081
				c-0.436,0.88-1.044,1.62-1.826,2.217c-0.782,0.598-1.706,1.043-2.771,1.336c-1.064,0.293-2.217,0.44-3.456,0.44
				c-0.826,0-1.592-0.065-2.298-0.196c-0.707-0.13-1.359-0.293-1.957-0.489c-0.598-0.196-1.124-0.402-1.581-0.62
				c-0.456-0.217-0.826-0.402-1.108-0.554L161.193,383.181L161.193,383.181z"/>
			<path d="M181.767,377.932h-3.228v-3.586h3.228v-3.717l4.238-1.207v4.923h8.542v3.586h-8.542v4.662
				c0,1.674,0.314,2.886,0.945,3.635c0.63,0.75,1.511,1.125,2.641,1.125c0.587,0,1.12-0.07,1.598-0.212
				c0.479-0.141,0.907-0.32,1.288-0.538c0.38-0.217,0.729-0.457,1.044-0.717c0.314-0.261,0.603-0.5,0.863-0.717l1.956,2.935
				c-0.369,0.435-0.831,0.831-1.385,1.19c-0.555,0.358-1.152,0.674-1.794,0.945c-0.641,0.271-1.31,0.483-2.005,0.636
				c-0.696,0.152-1.381,0.229-2.054,0.229c-2.435,0-4.267-0.679-5.494-2.038c-1.229-1.358-1.842-3.516-1.842-6.472L181.767,377.932
				L181.767,377.932z"/>
			<path d="M199.779,375.454c0.869-0.391,1.874-0.728,3.016-1.011c1.141-0.282,2.494-0.424,4.06-0.424
				c1.13,0,2.091,0.136,2.885,0.408c0.793,0.272,1.435,0.658,1.924,1.157c0.489,0.5,0.842,1.098,1.06,1.793
				c0.217,0.696,0.326,1.478,0.326,2.347c0,1.109-0.038,2.054-0.114,2.836c-0.076,0.783-0.114,1.479-0.114,2.087
				c0,0.457,0.021,0.967,0.065,1.532c0.043,0.305,0.076,0.598,0.098,0.88h2.119v3.586h-5.473l-0.429-2.217h-0.162
				c-0.432,0.674-1.048,1.255-1.847,1.745c-0.8,0.489-1.879,0.733-3.24,0.733c-1.62,0-2.905-0.435-3.856-1.304
				c-0.95-0.869-1.425-2.021-1.425-3.456c0-0.913,0.167-1.7,0.501-2.364c0.335-0.663,0.821-1.206,1.458-1.63
				c0.638-0.424,1.404-0.739,2.301-0.946c0.896-0.206,1.895-0.31,2.996-0.31c0.389,0,0.8,0.022,1.231,0.065
				c0.431,0.043,0.961,0.087,1.587,0.13c0.043-0.217,0.065-0.435,0.065-0.652v-0.619c0-0.826-0.237-1.418-0.713-1.777
				c-0.475-0.358-1.176-0.538-2.104-0.538c-1.101,0-2.094,0.142-2.979,0.424c-0.885,0.283-1.629,0.565-2.233,0.848L199.779,375.454z
				 M205.328,387.42c1.031,0,1.805-0.19,2.321-0.571c0.516-0.38,0.892-0.788,1.128-1.223v-1.956
				c-0.215-0.043-0.537-0.092-0.967-0.147c-0.431-0.054-0.893-0.082-1.387-0.082c-0.408,0-0.816,0.039-1.225,0.114
				c-0.409,0.077-0.774,0.196-1.096,0.359c-0.323,0.163-0.581,0.375-0.774,0.636c-0.193,0.261-0.29,0.576-0.29,0.945
				c0,0.609,0.178,1.082,0.532,1.418S204.511,387.42,205.328,387.42z"/>
			<path d="M219.084,377.932h-3.228v-3.586h3.228v-3.717l4.238-1.207v4.923h8.542v3.586h-8.542v4.662
				c0,1.674,0.314,2.886,0.945,3.635c0.63,0.75,1.511,1.125,2.641,1.125c0.587,0,1.12-0.07,1.598-0.212
				c0.479-0.141,0.907-0.32,1.288-0.538c0.38-0.217,0.729-0.457,1.044-0.717c0.314-0.261,0.603-0.5,0.863-0.717l1.956,2.935
				c-0.369,0.435-0.831,0.831-1.385,1.19c-0.555,0.358-1.152,0.674-1.794,0.945c-0.641,0.271-1.31,0.483-2.005,0.636
				c-0.696,0.152-1.381,0.229-2.054,0.229c-2.435,0-4.267-0.679-5.494-2.038c-1.229-1.358-1.842-3.516-1.842-6.472L219.084,377.932
				L219.084,377.932z"/>
			<path d="M236.119,387.061h5.738v-9.129h-5.738v-3.586h9.977v12.715h6.031v3.586h-16.008V387.061z M241.074,369.912
				c0-0.673,0.25-1.25,0.75-1.728s1.195-0.717,2.087-0.717c0.913,0,1.641,0.239,2.185,0.717c0.543,0.479,0.815,1.055,0.815,1.728
				c0,0.696-0.272,1.266-0.815,1.711c-0.544,0.446-1.271,0.668-2.185,0.668c-0.892,0-1.587-0.223-2.087-0.668
				C241.324,371.178,241.074,370.607,241.074,369.912z"/>
			<path d="M265.908,386.148c0-0.435-0.267-0.782-0.799-1.043c-0.532-0.261-1.189-0.5-1.973-0.717
				c-0.782-0.217-1.641-0.44-2.575-0.668c-0.935-0.229-1.793-0.543-2.576-0.946c-0.782-0.402-1.439-0.913-1.972-1.532
				c-0.533-0.62-0.799-1.418-0.799-2.396c0-0.804,0.179-1.51,0.537-2.119c0.359-0.608,0.848-1.125,1.468-1.548
				c0.619-0.424,1.358-0.745,2.217-0.962c0.859-0.217,1.788-0.326,2.788-0.326c1.064,0,1.999,0.076,2.804,0.228
				c0.804,0.152,1.505,0.337,2.103,0.555c0.598,0.218,1.108,0.462,1.532,0.733c0.424,0.271,0.788,0.517,1.093,0.733l-1.793,2.902
				c-0.326-0.196-0.701-0.396-1.125-0.603c-0.424-0.207-0.87-0.396-1.337-0.571c-0.468-0.174-0.957-0.315-1.467-0.424
				c-0.512-0.108-1.017-0.163-1.517-0.163c-0.913,0-1.652,0.12-2.217,0.359c-0.565,0.239-0.848,0.609-0.848,1.108
				c0,0.391,0.266,0.707,0.799,0.945c0.532,0.24,1.189,0.462,1.973,0.668c0.782,0.207,1.641,0.43,2.575,0.668
				c0.935,0.24,1.793,0.549,2.576,0.929c0.782,0.381,1.439,0.875,1.972,1.483c0.533,0.609,0.799,1.392,0.799,2.348
				c0,1.652-0.603,2.951-1.809,3.896c-1.207,0.946-2.995,1.418-5.364,1.418c-1.869,0-3.483-0.277-4.841-0.832
				c-1.359-0.554-2.451-1.201-3.277-1.94l1.957-3.064c0.282,0.239,0.656,0.505,1.124,0.798c0.468,0.293,0.995,0.56,1.582,0.799
				c0.587,0.24,1.211,0.439,1.874,0.604c0.663,0.164,1.32,0.244,1.973,0.244c0.695,0,1.293-0.119,1.793-0.358
				C265.658,387.116,265.908,386.713,265.908,386.148z"/>
			<path d="M288.79,389.083c-0.892,0.674-1.935,1.179-3.13,1.516c-1.196,0.336-2.445,0.505-3.75,0.505
				c-1.413,0-2.668-0.207-3.766-0.62c-1.098-0.413-2.021-0.994-2.771-1.744c-0.749-0.75-1.32-1.657-1.711-2.723
				c-0.392-1.064-0.587-2.238-0.587-3.521c0-1.37,0.228-2.586,0.685-3.652c0.456-1.063,1.092-1.967,1.907-2.706
				c0.815-0.739,1.776-1.298,2.886-1.679c1.108-0.38,2.314-0.571,3.618-0.571c1.218,0,2.358,0.142,3.424,0.424
				c1.064,0.283,1.88,0.554,2.445,0.815v5.738h-3.587v-3c-0.674-0.152-1.348-0.228-2.021-0.228c-0.609,0-1.212,0.093-1.81,0.277
				c-0.599,0.185-1.131,0.479-1.598,0.88c-0.468,0.402-0.848,0.908-1.142,1.516c-0.293,0.609-0.44,1.337-0.44,2.185
				c0,0.696,0.12,1.337,0.359,1.923c0.238,0.587,0.575,1.098,1.011,1.533c0.435,0.435,0.973,0.777,1.613,1.027
				c0.642,0.25,1.354,0.375,2.136,0.375c1.239,0,2.255-0.174,3.049-0.521c0.793-0.348,1.386-0.652,1.776-0.913L288.79,389.083z"/>
			<path d="M293.699,377.932h-3.228v-3.586h3.228v-3.717l4.238-1.207v4.923h8.542v3.586h-8.542v4.662
				c0,1.674,0.314,2.886,0.945,3.635c0.63,0.75,1.511,1.125,2.641,1.125c0.587,0,1.12-0.07,1.598-0.212
				c0.479-0.141,0.907-0.32,1.288-0.538c0.38-0.217,0.729-0.457,1.044-0.717c0.314-0.261,0.603-0.5,0.863-0.717l1.955,2.935
				c-0.368,0.435-0.83,0.831-1.385,1.19c-0.555,0.358-1.152,0.674-1.794,0.945c-0.641,0.271-1.31,0.483-2.005,0.636
				c-0.696,0.152-1.381,0.229-2.054,0.229c-2.435,0-4.267-0.679-5.494-2.038c-1.229-1.358-1.842-3.516-1.842-6.472L293.699,377.932
				L293.699,377.932z"/>
			<path d="M310.734,387.061h5.737v-9.129h-5.737v-3.586h9.977v12.715h6.031v3.586h-16.008V387.061z M315.689,369.912
				c0-0.673,0.25-1.25,0.75-1.728s1.194-0.717,2.087-0.717c0.913,0,1.641,0.239,2.185,0.717c0.543,0.479,0.815,1.055,0.815,1.728
				c0,0.696-0.272,1.266-0.815,1.711c-0.544,0.446-1.271,0.668-2.185,0.668c-0.893,0-1.587-0.223-2.087-0.668
				C315.939,371.178,315.689,370.607,315.689,369.912z"/>
			<path d="M344.746,389.083c-0.893,0.674-1.936,1.179-3.13,1.516c-1.196,0.336-2.445,0.505-3.75,0.505
				c-1.413,0-2.668-0.207-3.767-0.62c-1.098-0.413-2.021-0.994-2.771-1.744c-0.749-0.75-1.32-1.657-1.711-2.723
				c-0.393-1.064-0.587-2.238-0.587-3.521c0-1.37,0.228-2.586,0.685-3.652c0.456-1.063,1.092-1.967,1.907-2.706
				c0.814-0.739,1.776-1.298,2.886-1.679c1.108-0.38,2.314-0.571,3.618-0.571c1.218,0,2.358,0.142,3.424,0.424
				c1.064,0.283,1.88,0.554,2.445,0.815v5.738h-3.587v-3c-0.674-0.152-1.349-0.228-2.021-0.228c-0.608,0-1.212,0.093-1.81,0.277
				c-0.6,0.185-1.131,0.479-1.598,0.88c-0.469,0.402-0.849,0.908-1.143,1.516c-0.293,0.609-0.439,1.337-0.439,2.185
				c0,0.696,0.119,1.337,0.358,1.923c0.238,0.587,0.575,1.098,1.011,1.533s0.974,0.777,1.613,1.027
				c0.643,0.25,1.354,0.375,2.136,0.375c1.239,0,2.256-0.174,3.05-0.521c0.793-0.348,1.386-0.652,1.775-0.913L344.746,389.083z"/>
			<path d="M358.576,386.148c0-0.435-0.268-0.782-0.799-1.043c-0.532-0.261-1.189-0.5-1.974-0.717
				c-0.782-0.217-1.641-0.44-2.575-0.668s-1.793-0.543-2.575-0.946c-0.782-0.402-1.439-0.913-1.973-1.532
				c-0.532-0.62-0.799-1.418-0.799-2.396c0-0.804,0.179-1.51,0.537-2.119c0.359-0.608,0.848-1.125,1.468-1.548
				c0.619-0.424,1.358-0.745,2.217-0.962c0.859-0.217,1.788-0.326,2.788-0.326c1.064,0,1.999,0.076,2.805,0.228
				c0.804,0.152,1.505,0.337,2.103,0.555c0.598,0.218,1.108,0.462,1.532,0.733s0.788,0.517,1.093,0.733l-1.793,2.902
				c-0.326-0.196-0.701-0.396-1.125-0.603s-0.87-0.396-1.337-0.571c-0.468-0.174-0.957-0.315-1.467-0.424
				c-0.513-0.108-1.018-0.163-1.518-0.163c-0.913,0-1.651,0.12-2.217,0.359c-0.564,0.239-0.848,0.609-0.848,1.108
				c0,0.391,0.266,0.707,0.799,0.945c0.532,0.24,1.188,0.462,1.973,0.668c0.782,0.207,1.642,0.43,2.575,0.668
				c0.936,0.24,1.793,0.549,2.576,0.929c0.782,0.381,1.439,0.875,1.972,1.483c0.533,0.609,0.8,1.392,0.8,2.348
				c0,1.652-0.604,2.951-1.81,3.896c-1.207,0.946-2.995,1.418-5.364,1.418c-1.869,0-3.482-0.277-4.841-0.832
				c-1.358-0.554-2.451-1.201-3.276-1.94l1.956-3.064c0.282,0.239,0.656,0.505,1.124,0.798c0.469,0.293,0.995,0.56,1.582,0.799
				c0.588,0.24,1.211,0.439,1.874,0.604s1.32,0.244,1.974,0.244c0.694,0,1.293-0.119,1.793-0.358
				C358.326,387.116,358.576,386.713,358.576,386.148z"/>
		</g>
	</g>
	<g>
		<path d="M281.434,431.82c0-1.979,0.206-3.711,0.621-5.2s0.998-2.724,1.751-3.701c0.753-0.978,1.653-1.712,2.7-2.201
			c1.048-0.489,2.215-0.732,3.502-0.732c2.749,0,4.866,0.961,6.35,2.885c1.483,1.923,2.226,4.907,2.226,8.95
			c0,2-0.208,3.744-0.622,5.232c-0.415,1.489-0.998,2.729-1.751,3.718c-0.753,0.988-1.658,1.728-2.717,2.217
			s-2.23,0.733-3.518,0.733c-2.771,0-4.888-1.016-6.35-3.048S281.434,435.689,281.434,431.82z M285.672,431.82
			c0,0.326,0.005,0.636,0.016,0.929s0.027,0.592,0.049,0.896l7.891-7.271c-0.646-1.869-1.865-2.804-3.654-2.804
			c-1.38,0-2.441,0.668-3.186,2.005C286.044,426.914,285.672,428.995,285.672,431.82z M294.345,431.82
			c0-0.349-0.006-0.68-0.017-0.995c-0.011-0.314-0.027-0.625-0.049-0.929l-7.923,7.271c0.668,1.978,1.887,2.967,3.654,2.967
			c1.38,0,2.446-0.663,3.201-1.989C293.966,436.819,294.345,434.711,294.345,431.82z"/>
		<path d="M318.568,436.906h-3.913v6.357h-3.944v-6.357h-9.879v-2.901l10.335-13.727h3.488v13.236h3.913V436.906z M310.711,426.278
			l-5.673,7.237h5.673V426.278z"/>
		<path d="M321.079,427.582c0-1.108,0.188-2.13,0.57-3.064c0.38-0.935,0.913-1.732,1.598-2.396s1.511-1.185,2.478-1.565
			c0.968-0.38,2.05-0.569,3.244-0.569c1.219,0,2.326,0.185,3.326,0.554c0.999,0.37,1.858,0.918,2.575,1.646
			c0.718,0.729,1.271,1.63,1.663,2.705c0.392,1.076,0.587,2.311,0.587,3.7c0,2.522-0.326,4.695-0.979,6.521
			c-0.65,1.826-1.526,3.348-2.624,4.563c-1.098,1.218-2.375,2.152-3.831,2.805c-1.457,0.651-2.979,1.064-4.563,1.238l-0.913-3.326
			c1.195-0.151,2.276-0.444,3.244-0.88c0.967-0.435,1.81-0.973,2.525-1.613c0.719-0.642,1.306-1.369,1.762-2.186
			c0.457-0.814,0.75-1.688,0.881-2.625c-0.457,0.457-1.044,0.821-1.761,1.092c-0.719,0.272-1.576,0.408-2.576,0.408h-0.065
			c-0.826,0-1.662-0.141-2.51-0.424c-0.848-0.282-1.614-0.717-2.299-1.304c-0.686-0.587-1.244-1.321-1.679-2.201
			C321.296,429.783,321.079,428.755,321.079,427.582z M325.188,427.354c0,0.609,0.113,1.147,0.343,1.614
			c0.229,0.468,0.525,0.859,0.896,1.174c0.369,0.315,0.799,0.555,1.288,0.718s0.994,0.245,1.517,0.245
			c0.892,0,1.662-0.142,2.314-0.425c0.652-0.281,1.13-0.63,1.436-1.043c0.064-0.457,0.098-0.891,0.098-1.304
			c0-0.608-0.087-1.206-0.261-1.793c-0.176-0.587-0.437-1.108-0.782-1.565c-0.35-0.457-0.783-0.819-1.305-1.092
			c-0.521-0.271-1.119-0.408-1.793-0.408c-1.065,0-1.957,0.343-2.675,1.027C325.546,425.186,325.188,426.137,325.188,427.354z"/>
	</g>
	<g>
		<path d="M281.434,484.788c0-1.979,0.206-3.711,0.621-5.2s0.998-2.723,1.751-3.701c0.753-0.978,1.653-1.712,2.7-2.201
			c1.048-0.488,2.215-0.732,3.502-0.732c2.749,0,4.866,0.961,6.35,2.885c1.483,1.923,2.226,4.907,2.226,8.95
			c0,2-0.208,3.744-0.622,5.233c-0.415,1.488-0.998,2.728-1.751,3.717c-0.753,0.988-1.658,1.728-2.717,2.217
			s-2.23,0.734-3.518,0.734c-2.771,0-4.888-1.017-6.35-3.049C282.164,491.609,281.434,488.657,281.434,484.788z M285.672,484.788
			c0,0.326,0.005,0.636,0.016,0.929s0.027,0.592,0.049,0.896l7.891-7.271c-0.646-1.869-1.865-2.804-3.654-2.804
			c-1.38,0-2.441,0.668-3.186,2.005C286.044,479.881,285.672,481.962,285.672,484.788z M294.345,484.788
			c0-0.348-0.006-0.679-0.017-0.995c-0.011-0.314-0.027-0.625-0.049-0.929l-7.923,7.271c0.668,1.979,1.887,2.967,3.654,2.967
			c1.38,0,2.446-0.662,3.201-1.988S294.345,487.679,294.345,484.788z"/>
		<path d="M307.842,493.102c0.717,0,1.374-0.092,1.974-0.275c0.598-0.185,1.107-0.443,1.531-0.779
			c0.425-0.335,0.755-0.725,0.994-1.168s0.358-0.925,0.358-1.444c0-0.648-0.137-1.194-0.407-1.639
			c-0.272-0.443-0.647-0.795-1.125-1.055c-0.479-0.26-1.055-0.444-1.728-0.552c-0.675-0.108-1.402-0.163-2.186-0.163h-1.826v-2.339
			l5.479-6.692h-8.249v-3.586h13.303v2.967l-5.738,6.553h0.75c0.762,0,1.5,0.13,2.218,0.392c0.718,0.261,1.354,0.651,1.906,1.174
			c0.556,0.521,1,1.174,1.337,1.956c0.337,0.783,0.507,1.685,0.507,2.706c0,1.239-0.257,2.326-0.768,3.261s-1.185,1.723-2.021,2.364
			c-0.836,0.641-1.8,1.12-2.887,1.435s-2.206,0.474-3.356,0.474c-0.979,0-1.957-0.088-2.935-0.262
			c-0.979-0.174-1.924-0.444-2.837-0.814l1.142-3.521c0.195,0.109,0.461,0.217,0.799,0.326c0.336,0.109,0.717,0.217,1.141,0.326
			c0.424,0.109,0.858,0.196,1.305,0.261C306.967,493.069,307.406,493.102,307.842,493.102z"/>
		<path d="M327.046,492.938c0.717,0,1.38-0.086,1.988-0.261c0.607-0.174,1.136-0.424,1.581-0.75
			c0.444-0.326,0.794-0.728,1.044-1.207c0.249-0.478,0.375-1.021,0.375-1.63c0-1.195-0.474-2.136-1.419-2.82
			s-2.363-1.026-4.255-1.026c-0.239,0-0.518,0.005-0.831,0.016c-0.315,0.011-0.614,0.027-0.896,0.049
			c-0.326,0.022-0.663,0.033-1.011,0.033v-11.933h11.803v3.978h-8.15v4.401c0.174,0,0.348-0.011,0.521-0.033
			c0.152,0,0.299-0.005,0.44-0.016c0.142-0.012,0.266-0.018,0.375-0.018c1.087,0,2.098,0.158,3.031,0.474
			c0.936,0.314,1.749,0.789,2.445,1.418c0.695,0.631,1.233,1.396,1.614,2.299c0.38,0.901,0.57,1.896,0.57,2.982
			c0,1.283-0.239,2.408-0.719,3.375c-0.479,0.968-1.13,1.777-1.956,2.43c-0.825,0.651-1.781,1.146-2.868,1.482
			c-1.088,0.336-2.249,0.505-3.488,0.505c-0.479,0-0.989-0.049-1.532-0.146c-0.544-0.098-1.076-0.217-1.598-0.358
			c-0.522-0.141-1.006-0.299-1.451-0.473s-0.82-0.337-1.125-0.489l1.369-3.391c0.37,0.217,0.939,0.457,1.712,0.717
			C325.387,492.805,326.197,492.938,327.046,492.938z"/>
	</g>
	<g>
		<path d="M281.434,550.526c0-1.979,0.206-3.711,0.621-5.2c0.415-1.488,0.998-2.723,1.751-3.7c0.753-0.978,1.653-1.712,2.7-2.201
			c1.048-0.489,2.215-0.732,3.502-0.732c2.749,0,4.866,0.961,6.35,2.885s2.226,4.907,2.226,8.949c0,2-0.208,3.745-0.622,5.232
			c-0.415,1.489-0.998,2.729-1.751,3.717c-0.753,0.989-1.658,1.729-2.717,2.218c-1.059,0.488-2.23,0.732-3.518,0.732
			c-2.771,0-4.888-1.016-6.35-3.048S281.434,554.396,281.434,550.526z M285.672,550.526c0,0.325,0.005,0.636,0.016,0.93
			c0.011,0.293,0.027,0.593,0.049,0.896l7.891-7.271c-0.646-1.869-1.865-2.804-3.654-2.804c-1.38,0-2.441,0.668-3.186,2.005
			C286.044,545.62,285.672,547.701,285.672,550.526z M294.345,550.526c0-0.348-0.006-0.68-0.017-0.994
			c-0.011-0.314-0.027-0.624-0.049-0.93l-7.923,7.271c0.668,1.978,1.887,2.967,3.654,2.967c1.38,0,2.446-0.663,3.201-1.989
			C293.967,555.526,294.345,553.418,294.345,550.526z"/>
		<path d="M303.081,561.971l9.391-18.976h-10.629v-3.847h14.867v3.195l-9.488,19.627H303.081z"/>
		<path d="M338.131,555.613h-3.913v6.356h-3.943v-6.356h-9.88v-2.902l10.336-13.726h3.487v13.237h3.913V555.613z M330.273,544.984
			l-5.674,7.237h5.674V544.984z"/>
	</g>
	<g>
		<path d="M281.434,617.182c0-1.978,0.206-3.711,0.621-5.199s0.998-2.723,1.751-3.7c0.753-0.979,1.653-1.712,2.7-2.201
			c1.048-0.488,2.215-0.733,3.502-0.733c2.749,0,4.866,0.962,6.35,2.887c1.484,1.924,2.226,4.906,2.226,8.948
			c0,2-0.208,3.745-0.622,5.233c-0.415,1.489-0.998,2.728-1.751,3.717s-1.658,1.729-2.717,2.217
			c-1.059,0.489-2.23,0.733-3.518,0.733c-2.771,0-4.888-1.017-6.35-3.048C282.164,624.003,281.434,621.051,281.434,617.182z
			 M285.672,617.182c0,0.326,0.005,0.637,0.016,0.931c0.011,0.293,0.027,0.593,0.049,0.896l7.891-7.271
			c-0.646-1.869-1.865-2.805-3.654-2.805c-1.38,0-2.441,0.668-3.186,2.005C286.044,612.275,285.672,614.356,285.672,617.182z
			 M294.345,617.182c0-0.347-0.006-0.679-0.017-0.994c-0.011-0.313-0.027-0.623-0.049-0.929l-7.923,7.271
			c0.668,1.978,1.887,2.967,3.654,2.967c1.38,0,2.446-0.663,3.201-1.989C293.967,622.182,294.345,620.073,294.345,617.182z"/>
		<path d="M316.808,628.626h-14.541v-3.162c0.261-0.218,0.587-0.506,0.978-0.864c0.392-0.357,0.832-0.767,1.32-1.223
			c0.489-0.457,1.006-0.956,1.549-1.5c0.543-0.543,1.076-1.108,1.598-1.695c0.739-0.826,1.386-1.576,1.94-2.25
			c0.554-0.673,1.011-1.309,1.369-1.906c0.357-0.599,0.623-1.186,0.799-1.762c0.174-0.574,0.261-1.168,0.261-1.775
			c0-0.436-0.098-0.858-0.293-1.271c-0.196-0.413-0.468-0.776-0.815-1.093c-0.348-0.314-0.767-0.564-1.256-0.75
			c-0.488-0.185-1.025-0.276-1.613-0.276c-0.781,0-1.494,0.119-2.136,0.358s-1.31,0.642-2.005,1.206l-1.695-2.999
			c0.913-0.652,1.929-1.201,3.048-1.646c1.12-0.444,2.407-0.669,3.864-0.669c0.935,0,1.83,0.131,2.689,0.393
			c0.857,0.261,1.619,0.646,2.282,1.156c0.663,0.512,1.189,1.146,1.581,1.907c0.392,0.763,0.587,1.643,0.587,2.642
			c0,0.695-0.061,1.343-0.18,1.939c-0.12,0.598-0.305,1.195-0.555,1.793c-0.25,0.6-0.576,1.212-0.979,1.843s-0.887,1.314-1.45,2.055
			c-0.437,0.564-0.908,1.136-1.419,1.712c-0.512,0.576-1.017,1.124-1.517,1.646s-0.994,1.012-1.482,1.468
			c-0.489,0.455-0.931,0.837-1.32,1.142h9.39V628.626L316.808,628.626z"/>
		<path d="M321.274,623.051c0-0.761,0.125-1.456,0.375-2.087c0.25-0.63,0.575-1.194,0.979-1.694c0.401-0.5,0.863-0.95,1.386-1.354
			c0.521-0.402,1.055-0.755,1.599-1.06c-1.089-0.632-1.989-1.375-2.707-2.233s-1.075-1.94-1.075-3.244
			c0-0.848,0.185-1.642,0.554-2.38c0.37-0.739,0.886-1.381,1.549-1.924s1.451-0.967,2.364-1.271
			c0.912-0.305,1.901-0.457,2.967-0.457c0.979,0,1.896,0.132,2.755,0.393s1.614,0.631,2.267,1.107
			c0.652,0.479,1.163,1.061,1.532,1.744c0.37,0.686,0.555,1.44,0.555,2.268c0,1.281-0.332,2.4-0.994,3.356
			c-0.664,0.957-1.571,1.783-2.723,2.479c1.304,0.674,2.342,1.467,3.112,2.38c0.771,0.913,1.158,2.087,1.158,3.521
			c0,0.979-0.212,1.863-0.636,2.657c-0.425,0.793-0.995,1.473-1.712,2.037c-0.718,0.565-1.562,1.006-2.527,1.32
			c-0.967,0.314-1.994,0.473-3.081,0.473s-2.098-0.146-3.032-0.439s-1.75-0.7-2.444-1.223c-0.695-0.521-1.238-1.152-1.63-1.892
			C321.47,624.79,321.274,623.964,321.274,623.051z M332.882,622.496c0-0.543-0.142-1.011-0.424-1.401
			c-0.283-0.392-0.636-0.739-1.06-1.044c-0.425-0.304-0.893-0.581-1.402-0.831s-1.006-0.505-1.483-0.766
			c-1.087,0.478-1.924,1.092-2.511,1.842s-0.88,1.462-0.88,2.136c0,0.979,0.348,1.733,1.043,2.267
			c0.695,0.532,1.663,0.799,2.901,0.799c1.108,0,2.021-0.255,2.738-0.768C332.521,624.22,332.882,623.475,332.882,622.496z
			 M325.872,611.574c0,0.521,0.113,0.962,0.342,1.319c0.229,0.358,0.521,0.675,0.881,0.945c0.358,0.272,0.767,0.518,1.224,0.734
			c0.456,0.217,0.912,0.435,1.369,0.65c0.348-0.174,0.688-0.391,1.025-0.65c0.337-0.263,0.637-0.549,0.897-0.864
			c0.26-0.315,0.473-0.641,0.636-0.979s0.244-0.68,0.244-1.026c0-0.457-0.099-0.854-0.293-1.19
			c-0.196-0.337-0.452-0.625-0.768-0.863c-0.314-0.238-0.668-0.418-1.06-0.538c-0.392-0.119-0.794-0.18-1.206-0.18
			c-0.479,0-0.919,0.076-1.321,0.229c-0.401,0.151-0.749,0.349-1.043,0.587c-0.293,0.24-0.521,0.521-0.685,0.848
			C325.953,610.922,325.872,611.248,325.872,611.574z"/>
	</g>
	<g>
		<path d="M281.434,681.455c0-1.979,0.206-3.711,0.621-5.2c0.415-1.488,0.998-2.722,1.751-3.7c0.753-0.978,1.653-1.712,2.7-2.201
			c1.048-0.487,2.215-0.732,3.502-0.732c2.749,0,4.866,0.962,6.35,2.886s2.226,4.907,2.226,8.949c0,2-0.208,3.745-0.622,5.233
			c-0.415,1.488-0.998,2.728-1.751,3.717c-0.753,0.988-1.658,1.728-2.717,2.217s-2.23,0.732-3.518,0.732
			c-2.771,0-4.888-1.016-6.35-3.048C282.164,688.276,281.434,685.324,281.434,681.455z M285.672,681.455
			c0,0.326,0.005,0.636,0.016,0.93c0.011,0.293,0.027,0.594,0.049,0.896l7.891-7.271c-0.646-1.869-1.865-2.804-3.654-2.804
			c-1.38,0-2.441,0.668-3.186,2.005C286.044,676.549,285.672,678.63,285.672,681.455z M294.345,681.455
			c0-0.347-0.006-0.679-0.017-0.994c-0.011-0.314-0.027-0.624-0.049-0.929l-7.923,7.271c0.668,1.979,1.887,2.967,3.654,2.967
			c1.38,0,2.446-0.662,3.201-1.988C293.967,686.455,294.345,684.347,294.345,681.455z"/>
		<path d="M307.842,689.77c0.717,0,1.374-0.092,1.974-0.274c0.598-0.186,1.107-0.444,1.531-0.779
			c0.425-0.335,0.755-0.725,0.994-1.169c0.239-0.441,0.358-0.924,0.358-1.443c0-0.648-0.137-1.194-0.407-1.64
			c-0.272-0.442-0.647-0.794-1.125-1.055c-0.479-0.26-1.055-0.443-1.728-0.551c-0.675-0.108-1.402-0.163-2.186-0.163h-1.826v-2.34
			l5.479-6.691h-8.249v-3.586h13.303v2.967l-5.738,6.553h0.75c0.762,0,1.5,0.131,2.218,0.393c0.718,0.261,1.354,0.651,1.906,1.174
			c0.556,0.521,1,1.174,1.337,1.956s0.507,1.685,0.507,2.706c0,1.238-0.257,2.326-0.768,3.261s-1.185,1.723-2.021,2.363
			c-0.837,0.642-1.8,1.12-2.887,1.435c-1.087,0.315-2.206,0.473-3.356,0.473c-0.979,0-1.957-0.087-2.935-0.261
			c-0.979-0.174-1.924-0.444-2.837-0.813l1.142-3.521c0.195,0.109,0.461,0.218,0.799,0.326c0.336,0.108,0.717,0.218,1.141,0.326
			c0.424,0.107,0.858,0.195,1.305,0.261C306.967,689.737,307.406,689.77,307.842,689.77z"/>
		<path d="M327.404,689.77c0.717,0,1.374-0.092,1.973-0.274c0.598-0.186,1.108-0.444,1.532-0.779s0.755-0.725,0.994-1.169
			c0.238-0.441,0.357-0.924,0.357-1.443c0-0.648-0.136-1.194-0.407-1.64c-0.271-0.442-0.646-0.794-1.125-1.055
			c-0.479-0.26-1.055-0.443-1.728-0.551c-0.674-0.108-1.402-0.163-2.185-0.163h-1.826v-2.34l5.478-6.691h-8.249v-3.586h13.303v2.967
			l-5.737,6.553h0.75c0.761,0,1.5,0.131,2.217,0.393c0.718,0.261,1.354,0.651,1.907,1.174c0.555,0.521,1,1.174,1.337,1.956
			s0.506,1.685,0.506,2.706c0,1.238-0.256,2.326-0.767,3.261c-0.512,0.935-1.186,1.723-2.021,2.363
			c-0.837,0.642-1.799,1.12-2.886,1.435c-1.087,0.315-2.206,0.473-3.357,0.473c-0.979,0-1.957-0.087-2.935-0.261
			c-0.979-0.174-1.924-0.444-2.837-0.813l1.142-3.521c0.195,0.109,0.461,0.218,0.799,0.326c0.336,0.108,0.718,0.218,1.142,0.326
			c0.424,0.107,0.857,0.195,1.305,0.261C326.529,689.737,326.969,689.77,327.404,689.77z"/>
	</g>
	<g>
		<g>
			<g>
				<rect x="180.812" y="464.471" fill="#2E9AFF" width="21.736" height="21.737"/>
				<path fill="#FFFFFF" d="M204.139,487.798h-24.918V462.88h24.918V487.798z M182.402,484.617h18.555v-18.557h-18.555V484.617
					L182.402,484.617z"/>
			</g>
			<g>
				<rect x="202.548" y="464.471" fill="#2E9AFF" width="21.735" height="21.737"/>
				<path fill="#FFFFFF" d="M225.874,487.798h-24.917V462.88h24.917V487.798z M204.139,484.617h18.554v-18.557h-18.554V484.617z"/>
			</g>
		</g>
		<g>
			<g>
				<rect x="180.812" y="486.208" fill="#2E9AFF" width="21.736" height="21.735"/>
				<path fill="#FFFFFF" d="M204.139,509.533h-24.918v-24.916h24.918V509.533z M182.402,506.353h18.555v-18.555h-18.555V506.353
					L182.402,506.353z"/>
			</g>
			<g>
				<rect x="202.548" y="486.208" fill="#2E9AFF" width="21.735" height="21.735"/>
				<path fill="#FFFFFF" d="M225.874,509.533h-24.917v-24.916h24.917V509.533z M204.139,506.353h18.554v-18.555h-18.554V506.353z"/>
			</g>
		</g>
	</g>
	<g>
		<g>
			<rect x="169.944" y="551.944" fill="#2E9AFF" width="21.736" height="21.735"/>
			<path fill="#FFFFFF" d="M193.271,575.271h-24.918v-24.918h24.918V575.271z M171.535,572.09h18.555v-18.555h-18.555V572.09z"/>
		</g>
		<g>
			<rect x="191.681" y="551.944" fill="#2E9AFF" width="21.734" height="21.735"/>
			<path fill="#FFFFFF" d="M215.006,575.271H190.09v-24.918h24.916V575.271z M193.271,572.09h18.553v-18.555h-18.553V572.09z"/>
		</g>
		<g>
			<rect x="191.681" y="530.209" fill="#2E9AFF" width="21.734" height="21.735"/>
			<path fill="#FFFFFF" d="M215.006,553.535H190.09v-24.916h24.916V553.535z M193.271,550.354h18.553V531.8h-18.553V550.354z"/>
		</g>
		<g>
			<rect x="213.415" y="551.944" fill="#2E9AFF" width="21.735" height="21.735"/>
			<path fill="#FFFFFF" d="M236.741,575.271h-24.917v-24.918h24.917V575.271z M215.006,572.09h18.554v-18.555h-18.554V572.09z"/>
		</g>
	</g>
	<g>
		<g>
			<g>
				<rect x="159.075" y="421.529" fill="#2E9AFF" width="21.736" height="21.735"/>
				<path fill="#FFFFFF" d="M182.402,444.856h-24.918v-24.917h24.918V444.856z M160.666,441.675h18.555V423.12h-18.555V441.675z"/>
			</g>
			<g>
				<rect x="180.812" y="421.529" fill="#2E9AFF" width="21.736" height="21.735"/>
				<path fill="#FFFFFF" d="M204.139,444.856h-24.918v-24.917h24.918V444.856z M182.402,441.675h18.555V423.12h-18.555V441.675
					L182.402,441.675z"/>
			</g>
		</g>
		<g>
			<g>
				<rect x="202.548" y="421.529" fill="#2E9AFF" width="21.735" height="21.735"/>
				<path fill="#FFFFFF" d="M225.874,444.856h-24.917v-24.917h24.917V444.856z M204.139,441.675h18.554V423.12h-18.554V441.675z"/>
			</g>
			<g>
				<rect x="224.283" y="421.529" fill="#2E9AFF" width="21.736" height="21.735"/>
				<path fill="#FFFFFF" d="M247.61,444.856h-24.918v-24.917h24.918V444.856z M225.874,441.675h18.555V423.12h-18.555V441.675z"/>
			</g>
		</g>
	</g>
	<g>
		<g>
			<rect x="169.944" y="596.866" fill="#2E9AFF" width="21.736" height="21.734"/>
			<path fill="#FFFFFF" d="M193.271,620.192h-24.918v-24.917h24.918V620.192z M171.535,617.011h18.555v-18.554h-18.555V617.011z"/>
		</g>
		<g>
			<rect x="191.681" y="596.866" fill="#2E9AFF" width="21.734" height="21.734"/>
			<path fill="#FFFFFF" d="M215.006,620.192H190.09v-24.917h24.916V620.192z M193.271,617.011h18.553v-18.554h-18.553V617.011z"/>
		</g>
		<g>
			<rect x="213.415" y="596.866" fill="#2E9AFF" width="21.735" height="21.734"/>
			<path fill="#FFFFFF" d="M236.741,620.192h-24.917v-24.917h24.917V620.192z M215.006,617.011h18.554v-18.554h-18.554V617.011z"/>
		</g>
		<g>
			<rect x="213.415" y="618.602" fill="#2E9AFF" width="21.735" height="21.736"/>
			<path fill="#FFFFFF" d="M236.741,641.929h-24.917v-24.918h24.917V641.929z M215.006,638.747h18.554v-18.555h-18.554V638.747z"/>
		</g>
	</g>
	<g>
		<g>
			<g>
				<rect x="169.944" y="661.139" fill="#2E9AFF" width="21.736" height="21.736"/>
				<path fill="#FFFFFF" d="M193.271,684.466h-24.918v-24.918h24.918V684.466z M171.535,681.284h18.555v-18.556h-18.555V681.284z"/>
			</g>
			<g>
				<rect x="191.681" y="661.139" fill="#2E9AFF" width="21.734" height="21.736"/>
				<path fill="#FFFFFF" d="M215.006,684.466H190.09v-24.918h24.916V684.466z M193.271,681.284h18.553v-18.556h-18.553V681.284z"/>
			</g>
		</g>
		<g>
			<g>
				<rect x="191.681" y="682.875" fill="#2E9AFF" width="21.734" height="21.734"/>
				<path fill="#FFFFFF" d="M215.006,706.2H190.09v-24.916h24.916V706.2z M193.271,703.019h18.553v-18.553h-18.553V703.019z"/>
			</g>
			<g>
				<rect x="213.415" y="682.875" fill="#2E9AFF" width="21.735" height="21.734"/>
				<path fill="#FFFFFF" d="M236.741,706.2h-24.917v-24.916h24.917V706.2z M215.006,703.019h18.554v-18.553h-18.554V703.019z"/>
			</g>
		</g>
	</g>
</g>
<g>
	<g>
		<g>
			<rect x="509.885" y="105.183" width="435.54" height="652.583"/>
		</g>
		<g>
			<rect x="488.148" y="83.365" fill="#FFFFFF" width="434.715" height="652.928"/>
			<path d="M924.454,737.884H486.558V81.774h437.896V737.884z M489.739,734.702h431.532V84.955H489.739V734.702z"/>
		</g>
	</g>
	<g>
		<g>
			<g>
				<g>
					<rect x="488.148" y="84.16" fill="#FFFFFF" width="43.473" height="43.471"/>
					<path d="M533.212,129.221h-46.654V82.569h46.654V129.221z M489.739,126.041h40.291V85.75h-40.291V126.041z"/>
				</g>
				<g>
					<rect x="531.621" y="84.16" fill="#FFFFFF" width="43.471" height="43.471"/>
					<path d="M576.683,129.221H530.03V82.569h46.651L576.683,129.221L576.683,129.221z M533.212,126.041h40.289V85.75h-40.289
						V126.041z"/>
				</g>
				<g>
					<rect x="575.092" y="84.16" fill="#FFFFFF" width="43.473" height="43.471"/>
					<path d="M620.154,129.221h-46.653V82.569h46.653V129.221z M576.683,126.041h40.29V85.75h-40.29V126.041z"/>
				</g>
				<g>
					<rect x="618.562" y="84.16" fill="#FFFFFF" width="43.472" height="43.471"/>
					<path d="M663.625,129.221h-46.652V82.569h46.652V129.221z M620.154,126.041h40.289V85.75h-40.289V126.041z"/>
				</g>
			</g>
			<g>
				<g>
					<rect x="662.034" y="84.16" fill="#FFFFFF" width="43.473" height="43.471"/>
					<path d="M707.098,129.221h-46.653V82.569h46.653V129.221z M663.625,126.041h40.291V85.75h-40.291V126.041z"/>
				</g>
				<g>
					<rect x="705.507" y="84.16" fill="#FFFFFF" width="43.472" height="43.471"/>
					<path d="M750.568,129.221h-46.652V82.569h46.652V129.221z M707.098,126.041h40.289V85.75h-40.289V126.041z"/>
				</g>
				<g>
					<rect x="748.979" y="84.16" fill="#FFFFFF" width="43.471" height="43.471"/>
					<path d="M794.039,129.221h-46.652V82.569h46.652V129.221z M750.568,126.041h40.289V85.75h-40.289V126.041z"/>
				</g>
				<g>
					<rect x="792.448" y="84.16" fill="#FFFFFF" width="43.472" height="43.471"/>
					<path d="M837.511,129.221h-46.652V82.569h46.652V129.221z M794.039,126.041h40.29V85.75h-40.29V126.041z"/>
				</g>
				<g>
					<rect x="835.92" y="84.16" fill="#FFFFFF" width="43.473" height="43.471"/>
					<path d="M880.982,129.221h-46.653V82.569h46.653V129.221z M837.511,126.041h40.291V85.75h-40.291V126.041z"/>
				</g>
				<g>
					<rect x="879.393" y="84.16" fill="#FFFFFF" width="43.472" height="43.471"/>
					<path d="M924.454,129.221h-46.652V82.569h46.652V129.221z M880.982,126.041h40.289V85.75h-40.289V126.041z"/>
				</g>
			</g>
		</g>
		<g>
			<g>
				<g>
					<rect x="488.148" y="127.631" fill="#FFFFFF" width="43.473" height="43.471"/>
					<path d="M533.212,172.692h-46.654V126.04h46.654V172.692z M489.739,169.512h40.291v-40.291h-40.291V169.512z"/>
				</g>
				<g>
					<rect x="531.621" y="127.631" fill="#FFFFFF" width="43.471" height="43.471"/>
					<path d="M576.683,172.692H530.03V126.04h46.651L576.683,172.692L576.683,172.692z M533.212,169.512h40.289v-40.291h-40.289
						V169.512z"/>
				</g>
				<g>
					<rect x="575.092" y="127.631" fill="#FFFFFF" width="43.473" height="43.471"/>
					<path d="M620.154,172.692h-46.653V126.04h46.653V172.692z M576.683,169.512h40.29v-40.291h-40.29V169.512z"/>
				</g>
				<g>
					<rect x="618.562" y="127.631" fill="#FFFFFF" width="43.472" height="43.471"/>
					<path d="M663.625,172.692h-46.652V126.04h46.652V172.692z M620.154,169.512h40.289v-40.291h-40.289V169.512z"/>
				</g>
			</g>
			<g>
				<g>
					<rect x="662.034" y="127.631" fill="#FFFFFF" width="43.473" height="43.471"/>
					<path d="M707.098,172.692h-46.653V126.04h46.653V172.692z M663.625,169.512h40.291v-40.291h-40.291V169.512z"/>
				</g>
				<g>
					<rect x="705.507" y="127.631" fill="#FFFFFF" width="43.472" height="43.471"/>
					<path d="M750.568,172.692h-46.652V126.04h46.652V172.692z M707.098,169.512h40.289v-40.291h-40.289V169.512z"/>
				</g>
				<g>
					<rect x="748.979" y="127.631" fill="#FFFFFF" width="43.471" height="43.471"/>
					<path d="M794.039,172.692h-46.652V126.04h46.652V172.692z M750.568,169.512h40.289v-40.291h-40.289V169.512z"/>
				</g>
				<g>
					<rect x="792.448" y="127.631" fill="#FFFFFF" width="43.472" height="43.471"/>
					<path d="M837.511,172.692h-46.652V126.04h46.652V172.692z M794.039,169.512h40.29v-40.291h-40.29V169.512z"/>
				</g>
				<g>
					<rect x="835.92" y="127.631" fill="#FFFFFF" width="43.473" height="43.471"/>
					<path d="M880.982,172.692h-46.653V126.04h46.653V172.692z M837.511,169.512h40.291v-40.291h-40.291V169.512z"/>
				</g>
				<g>
					<rect x="879.393" y="127.631" fill="#FFFFFF" width="43.472" height="43.471"/>
					<path d="M924.454,172.692h-46.652V126.04h46.652V172.692z M880.982,169.512h40.289v-40.291h-40.289V169.512z"/>
				</g>
			</g>
		</g>
		<g>
			<g>
				<g>
					<rect x="488.148" y="171.102" fill="#FFFFFF" width="43.473" height="43.471"/>
					<path d="M533.212,216.164h-46.654v-46.652h46.654V216.164z M489.739,212.983h40.291v-40.291h-40.291V212.983z"/>
				</g>
				<g>
					<rect x="531.621" y="171.102" fill="#FFFFFF" width="43.471" height="43.471"/>
					<path d="M576.683,216.164H530.03v-46.652h46.651L576.683,216.164L576.683,216.164z M533.212,212.983h40.289v-40.291h-40.289
						V212.983z"/>
				</g>
				<g>
					<rect x="575.092" y="171.102" fill="#FFFFFF" width="43.473" height="43.471"/>
					<path d="M620.154,216.164h-46.653v-46.652h46.653V216.164z M576.683,212.983h40.29v-40.291h-40.29V212.983z"/>
				</g>
				<g>
					<rect x="618.562" y="171.102" fill="#FFFFFF" width="43.472" height="43.471"/>
					<path d="M663.625,216.164h-46.652v-46.652h46.652V216.164z M620.154,212.983h40.289v-40.291h-40.289V212.983z"/>
				</g>
			</g>
			<g>
				<g>
					<rect x="662.034" y="171.102" fill="#FFFFFF" width="43.473" height="43.471"/>
					<path d="M707.098,216.164h-46.653v-46.652h46.653V216.164z M663.625,212.983h40.291v-40.291h-40.291V212.983z"/>
				</g>
				<g>
					<rect x="705.507" y="171.102" fill="#FFFFFF" width="43.472" height="43.471"/>
					<path d="M750.568,216.164h-46.652v-46.652h46.652V216.164z M707.098,212.983h40.289v-40.291h-40.289V212.983z"/>
				</g>
				<g>
					<rect x="748.979" y="171.102" fill="#FFFFFF" width="43.471" height="43.471"/>
					<path d="M794.039,216.164h-46.652v-46.652h46.652V216.164z M750.568,212.983h40.289v-40.291h-40.289V212.983z"/>
				</g>
				<g>
					<rect x="792.448" y="171.102" fill="#FFFFFF" width="43.472" height="43.471"/>
					<path d="M837.511,216.164h-46.652v-46.652h46.652V216.164z M794.039,212.983h40.29v-40.291h-40.29V212.983z"/>
				</g>
				<g>
					<rect x="835.92" y="171.102" fill="#FFFFFF" width="43.473" height="43.471"/>
					<path d="M880.982,216.164h-46.653v-46.652h46.653V216.164z M837.511,212.983h40.291v-40.291h-40.291V212.983z"/>
				</g>
				<g>
					<rect x="879.393" y="171.102" fill="#FFFFFF" width="43.472" height="43.471"/>
					<path d="M924.454,216.164h-46.652v-46.652h46.652V216.164z M880.982,212.983h40.289v-40.291h-40.289V212.983z"/>
				</g>
			</g>
		</g>
		<g>
			<g>
				<g>
					<rect x="488.148" y="214.573" fill="#FFFFFF" width="43.473" height="43.471"/>
					<path d="M533.212,259.635h-46.654v-46.652h46.654V259.635z M489.739,256.454h40.291v-40.291h-40.291V256.454z"/>
				</g>
				<g>
					<rect x="531.621" y="214.573" fill="#FFFFFF" width="43.471" height="43.471"/>
					<path d="M576.683,259.635H530.03v-46.652h46.651L576.683,259.635L576.683,259.635z M533.212,256.454h40.289v-40.291h-40.289
						V256.454z"/>
				</g>
				<g>
					<rect x="575.092" y="214.573" fill="#FFFFFF" width="43.473" height="43.471"/>
					<path d="M620.154,259.635h-46.653v-46.652h46.653V259.635z M576.683,256.454h40.29v-40.291h-40.29V256.454z"/>
				</g>
				<g>
					<rect x="618.562" y="214.573" fill="#FFFFFF" width="43.472" height="43.471"/>
					<path d="M663.625,259.635h-46.652v-46.652h46.652V259.635z M620.154,256.454h40.289v-40.291h-40.289V256.454z"/>
				</g>
			</g>
			<g>
				<g>
					<rect x="662.034" y="214.573" fill="#FFFFFF" width="43.473" height="43.471"/>
					<path d="M707.098,259.635h-46.653v-46.652h46.653V259.635z M663.625,256.454h40.291v-40.291h-40.291V256.454z"/>
				</g>
				<g>
					<rect x="705.507" y="214.573" fill="#FFFFFF" width="43.472" height="43.471"/>
					<path d="M750.568,259.635h-46.652v-46.652h46.652V259.635z M707.098,256.454h40.289v-40.291h-40.289V256.454z"/>
				</g>
				<g>
					<rect x="748.979" y="214.573" fill="#FFFFFF" width="43.471" height="43.471"/>
					<path d="M794.039,259.635h-46.652v-46.652h46.652V259.635z M750.568,256.454h40.289v-40.291h-40.289V256.454z"/>
				</g>
				<g>
					<rect x="792.448" y="214.573" fill="#FFFFFF" width="43.472" height="43.471"/>
					<path d="M837.511,259.635h-46.652v-46.652h46.652V259.635z M794.039,256.454h40.29v-40.291h-40.29V256.454z"/>
				</g>
				<g>
					<rect x="835.92" y="214.573" fill="#FFFFFF" width="43.473" height="43.471"/>
					<path d="M880.982,259.635h-46.653v-46.652h46.653V259.635z M837.511,256.454h40.291v-40.291h-40.291V256.454z"/>
				</g>
				<g>
					<rect x="879.393" y="214.573" fill="#FFFFFF" width="43.472" height="43.471"/>
					<path d="M924.454,259.635h-46.652v-46.652h46.652V259.635z M880.982,256.454h40.289v-40.291h-40.289V256.454z"/>
				</g>
			</g>
		</g>
		<g>
			<g>
				<g>
					<rect x="488.148" y="258.044" fill="#FFFFFF" width="43.473" height="43.471"/>
					<path d="M533.212,303.106h-46.654v-46.652h46.654V303.106z M489.739,299.925h40.291v-40.291h-40.291V299.925z"/>
				</g>
				<g>
					<rect x="531.621" y="258.044" fill="#FFFFFF" width="43.471" height="43.471"/>
					<path d="M576.683,303.106H530.03v-46.652h46.651L576.683,303.106L576.683,303.106z M533.212,299.925h40.289v-40.291h-40.289
						V299.925z"/>
				</g>
				<g>
					<rect x="575.092" y="258.044" fill="#FFFFFF" width="43.473" height="43.471"/>
					<path d="M620.154,303.106h-46.653v-46.652h46.653V303.106z M576.683,299.925h40.29v-40.291h-40.29V299.925z"/>
				</g>
				<g>
					<rect x="618.562" y="258.044" fill="#FFFFFF" width="43.472" height="43.471"/>
					<path d="M663.625,303.106h-46.652v-46.652h46.652V303.106z M620.154,299.925h40.289v-40.291h-40.289V299.925z"/>
				</g>
			</g>
			<g>
				<g>
					<rect x="662.034" y="258.044" fill="#FFFFFF" width="43.473" height="43.471"/>
					<path d="M707.098,303.106h-46.653v-46.652h46.653V303.106z M663.625,299.925h40.291v-40.291h-40.291V299.925z"/>
				</g>
				<g>
					<rect x="705.507" y="258.044" fill="#FFFFFF" width="43.472" height="43.471"/>
					<path d="M750.568,303.106h-46.652v-46.652h46.652V303.106z M707.098,299.925h40.289v-40.291h-40.289V299.925z"/>
				</g>
				<g>
					<rect x="748.979" y="258.044" fill="#FFFFFF" width="43.471" height="43.471"/>
					<path d="M794.039,303.106h-46.652v-46.652h46.652V303.106z M750.568,299.925h40.289v-40.291h-40.289V299.925z"/>
				</g>
				<g>
					<rect x="792.448" y="258.044" fill="#FFFFFF" width="43.472" height="43.471"/>
					<path d="M837.511,303.106h-46.652v-46.652h46.652V303.106z M794.039,299.925h40.29v-40.291h-40.29V299.925z"/>
				</g>
				<g>
					<rect x="835.92" y="258.044" fill="#FFFFFF" width="43.473" height="43.471"/>
					<path d="M880.982,303.106h-46.653v-46.652h46.653V303.106z M837.511,299.925h40.291v-40.291h-40.291V299.925z"/>
				</g>
				<g>
					<rect x="879.393" y="258.044" fill="#FFFFFF" width="43.472" height="43.471"/>
					<path d="M924.454,303.106h-46.652v-46.652h46.652V303.106z M880.982,299.925h40.289v-40.291h-40.289V299.925z"/>
				</g>
			</g>
		</g>
		<g>
			<g>
				<g>
					<rect x="488.148" y="301.516" fill="#FFFFFF" width="43.473" height="43.471"/>
					<path d="M533.212,346.577h-46.654v-46.651h46.654V346.577z M489.739,343.396h40.291v-40.29h-40.291V343.396z"/>
				</g>
				<g>
					<rect x="531.621" y="301.516" fill="#FFFFFF" width="43.471" height="43.471"/>
					<path d="M576.683,346.577H530.03v-46.651h46.651L576.683,346.577L576.683,346.577z M533.212,343.396h40.289v-40.29h-40.289
						V343.396z"/>
				</g>
				<g>
					<rect x="575.092" y="301.516" fill="#FFFFFF" width="43.473" height="43.471"/>
					<path d="M620.154,346.577h-46.653v-46.651h46.653V346.577z M576.683,343.396h40.29v-40.29h-40.29V343.396z"/>
				</g>
				<g>
					<rect x="618.562" y="301.516" fill="#FFFFFF" width="43.472" height="43.471"/>
					<path d="M663.625,346.577h-46.652v-46.651h46.652V346.577z M620.154,343.396h40.289v-40.29h-40.289V343.396z"/>
				</g>
			</g>
			<g>
				<g>
					<rect x="662.034" y="301.516" fill="#FFFFFF" width="43.473" height="43.471"/>
					<path d="M707.098,346.577h-46.653v-46.651h46.653V346.577z M663.625,343.396h40.291v-40.29h-40.291V343.396z"/>
				</g>
				<g>
					<rect x="705.507" y="301.516" fill="#FFFFFF" width="43.472" height="43.471"/>
					<path d="M750.568,346.577h-46.652v-46.651h46.652V346.577z M707.098,343.396h40.289v-40.29h-40.289V343.396z"/>
				</g>
				<g>
					<rect x="748.979" y="301.516" fill="#FFFFFF" width="43.471" height="43.471"/>
					<path d="M794.039,346.577h-46.652v-46.651h46.652V346.577z M750.568,343.396h40.289v-40.29h-40.289V343.396z"/>
				</g>
				<g>
					<rect x="792.448" y="301.516" fill="#FFFFFF" width="43.472" height="43.471"/>
					<path d="M837.511,346.577h-46.652v-46.651h46.652V346.577z M794.039,343.396h40.29v-40.29h-40.29V343.396z"/>
				</g>
				<g>
					<rect x="835.92" y="301.516" fill="#FFFFFF" width="43.473" height="43.471"/>
					<path d="M880.982,346.577h-46.653v-46.651h46.653V346.577z M837.511,343.396h40.291v-40.29h-40.291V343.396z"/>
				</g>
				<g>
					<rect x="879.393" y="301.516" fill="#FFFFFF" width="43.472" height="43.471"/>
					<path d="M924.454,346.577h-46.652v-46.651h46.652V346.577z M880.982,343.396h40.289v-40.29h-40.289V343.396z"/>
				</g>
			</g>
		</g>
		<g>
			<g>
				<g>
					<rect x="488.148" y="344.986" fill="#FFFFFF" width="43.473" height="43.471"/>
					<path d="M533.212,390.047h-46.654v-46.651h46.654V390.047z M489.739,386.867h40.291v-40.29h-40.291V386.867z"/>
				</g>
				<g>
					<rect x="531.621" y="344.986" fill="#FFFFFF" width="43.471" height="43.471"/>
					<path d="M576.683,390.047H530.03v-46.651h46.651L576.683,390.047L576.683,390.047z M533.212,386.867h40.289v-40.29h-40.289
						V386.867z"/>
				</g>
				<g>
					<rect x="575.092" y="344.986" fill="#FFFFFF" width="43.473" height="43.471"/>
					<path d="M620.154,390.047h-46.653v-46.651h46.653V390.047z M576.683,386.867h40.29v-40.29h-40.29V386.867z"/>
				</g>
				<g>
					<rect x="618.562" y="344.986" fill="#FFFFFF" width="43.472" height="43.471"/>
					<path d="M663.625,390.047h-46.652v-46.651h46.652V390.047z M620.154,386.867h40.289v-40.29h-40.289V386.867z"/>
				</g>
			</g>
			<g>
				<g>
					<rect x="662.034" y="344.986" fill="#FFFFFF" width="43.473" height="43.471"/>
					<path d="M707.098,390.047h-46.653v-46.651h46.653V390.047z M663.625,386.867h40.291v-40.29h-40.291V386.867z"/>
				</g>
				<g>
					<rect x="705.507" y="344.986" fill="#FFFFFF" width="43.472" height="43.471"/>
					<path d="M750.568,390.047h-46.652v-46.651h46.652V390.047z M707.098,386.867h40.289v-40.29h-40.289V386.867z"/>
				</g>
				<g>
					<rect x="748.979" y="344.986" fill="#FFFFFF" width="43.471" height="43.471"/>
					<path d="M794.039,390.047h-46.652v-46.651h46.652V390.047z M750.568,386.867h40.289v-40.29h-40.289V386.867z"/>
				</g>
				<g>
					<rect x="792.448" y="344.986" fill="#FFFFFF" width="43.472" height="43.471"/>
					<path d="M837.511,390.047h-46.652v-46.651h46.652V390.047z M794.039,386.867h40.29v-40.29h-40.29V386.867z"/>
				</g>
				<g>
					<rect x="835.92" y="344.986" fill="#FFFFFF" width="43.473" height="43.471"/>
					<path d="M880.982,390.047h-46.653v-46.651h46.653V390.047z M837.511,386.867h40.291v-40.29h-40.291V386.867z"/>
				</g>
				<g>
					<rect x="879.393" y="344.986" fill="#FFFFFF" width="43.472" height="43.471"/>
					<path d="M924.454,390.047h-46.652v-46.651h46.652V390.047z M880.982,386.867h40.289v-40.29h-40.289V386.867z"/>
				</g>
			</g>
		</g>
		<g>
			<g>
				<g>
					<rect x="488.148" y="388.457" fill="#FFFFFF" width="43.473" height="43.471"/>
					<path d="M533.212,433.519h-46.654v-46.651h46.654V433.519z M489.739,430.338h40.291v-40.291h-40.291V430.338z"/>
				</g>
				<g>
					<rect x="531.621" y="388.457" fill="#FFFFFF" width="43.471" height="43.471"/>
					<path d="M576.683,433.519H530.03v-46.651h46.651L576.683,433.519L576.683,433.519z M533.212,430.338h40.289v-40.291h-40.289
						V430.338z"/>
				</g>
				<g>
					<rect x="575.092" y="388.457" fill="#FFFFFF" width="43.473" height="43.471"/>
					<path d="M620.154,433.519h-46.653v-46.651h46.653V433.519z M576.683,430.338h40.29v-40.291h-40.29V430.338z"/>
				</g>
				<g>
					<rect x="618.562" y="388.457" fill="#FFFFFF" width="43.472" height="43.471"/>
					<path d="M663.625,433.519h-46.652v-46.651h46.652V433.519z M620.154,430.338h40.289v-40.291h-40.289V430.338z"/>
				</g>
			</g>
			<g>
				<g>
					<rect x="662.034" y="388.457" fill="#FFFFFF" width="43.473" height="43.471"/>
					<path d="M707.098,433.519h-46.653v-46.651h46.653V433.519z M663.625,430.338h40.291v-40.291h-40.291V430.338z"/>
				</g>
				<g>
					<rect x="705.507" y="388.457" fill="#FFFFFF" width="43.472" height="43.471"/>
					<path d="M750.568,433.519h-46.652v-46.651h46.652V433.519z M707.098,430.338h40.289v-40.291h-40.289V430.338z"/>
				</g>
				<g>
					<rect x="748.979" y="388.457" fill="#FFFFFF" width="43.471" height="43.471"/>
					<path d="M794.039,433.519h-46.652v-46.651h46.652V433.519z M750.568,430.338h40.289v-40.291h-40.289V430.338z"/>
				</g>
				<g>
					<rect x="792.448" y="388.457" fill="#FFFFFF" width="43.472" height="43.471"/>
					<path d="M837.511,433.519h-46.652v-46.651h46.652V433.519z M794.039,430.338h40.29v-40.291h-40.29V430.338z"/>
				</g>
				<g>
					<rect x="835.92" y="388.457" fill="#FFFFFF" width="43.473" height="43.471"/>
					<path d="M880.982,433.519h-46.653v-46.651h46.653V433.519z M837.511,430.338h40.291v-40.291h-40.291V430.338z"/>
				</g>
				<g>
					<rect x="879.393" y="388.457" fill="#FFFFFF" width="43.472" height="43.471"/>
					<path d="M924.454,433.519h-46.652v-46.651h46.652V433.519z M880.982,430.338h40.289v-40.291h-40.289V430.338z"/>
				</g>
			</g>
		</g>
		<g>
			<g>
				<g>
					<rect x="488.148" y="431.928" fill="#FFFFFF" width="43.473" height="43.472"/>
					<path d="M533.212,476.99h-46.654v-46.652h46.654V476.99z M489.739,473.809h40.291v-40.291h-40.291V473.809z"/>
				</g>
				<g>
					<rect x="531.621" y="431.928" fill="#FFFFFF" width="43.471" height="43.472"/>
					<path d="M576.683,476.99H530.03v-46.652h46.651L576.683,476.99L576.683,476.99z M533.212,473.809h40.289v-40.291h-40.289
						V473.809z"/>
				</g>
				<g>
					<rect x="575.092" y="431.928" fill="#FFFFFF" width="43.473" height="43.472"/>
					<path d="M620.154,476.99h-46.653v-46.652h46.653V476.99z M576.683,473.809h40.29v-40.291h-40.29V473.809z"/>
				</g>
				<g>
					<rect x="618.562" y="431.928" fill="#FFFFFF" width="43.472" height="43.472"/>
					<path d="M663.625,476.99h-46.652v-46.652h46.652V476.99z M620.154,473.809h40.289v-40.291h-40.289V473.809z"/>
				</g>
			</g>
			<g>
				<g>
					<rect x="662.034" y="431.928" fill="#FFFFFF" width="43.473" height="43.472"/>
					<path d="M707.098,476.99h-46.653v-46.652h46.653V476.99z M663.625,473.809h40.291v-40.291h-40.291V473.809z"/>
				</g>
				<g>
					<rect x="705.507" y="431.928" fill="#FFFFFF" width="43.472" height="43.472"/>
					<path d="M750.568,476.99h-46.652v-46.652h46.652V476.99z M707.098,473.809h40.289v-40.291h-40.289V473.809z"/>
				</g>
				<g>
					<rect x="748.979" y="431.928" fill="#FFFFFF" width="43.471" height="43.472"/>
					<path d="M794.039,476.99h-46.652v-46.652h46.652V476.99z M750.568,473.809h40.289v-40.291h-40.289V473.809z"/>
				</g>
				<g>
					<rect x="792.448" y="431.928" fill="#2E9AFF" width="43.472" height="43.472"/>
					<path d="M837.511,476.99h-46.652v-46.652h46.652V476.99z M794.039,473.809h40.29v-40.291h-40.29V473.809z"/>
				</g>
				<g>
					<rect x="835.92" y="431.928" fill="#2E9AFF" width="43.473" height="43.472"/>
					<path d="M880.982,476.99h-46.653v-46.652h46.653V476.99z M837.511,473.809h40.291v-40.291h-40.291V473.809z"/>
				</g>
				<g>
					<rect x="879.393" y="431.928" fill="#FFFFFF" width="43.472" height="43.472"/>
					<path d="M924.454,476.99h-46.652v-46.652h46.652V476.99z M880.982,473.809h40.289v-40.291h-40.289V473.809z"/>
				</g>
			</g>
		</g>
		<g>
			<g>
				<g>
					<rect x="488.148" y="475.399" fill="#FFFFFF" width="43.473" height="43.471"/>
					<path d="M533.212,520.46h-46.654v-46.651h46.654V520.46z M489.739,517.28h40.291v-40.29h-40.291V517.28z"/>
				</g>
				<g>
					<rect x="531.621" y="475.399" fill="#2E9AFF" width="43.471" height="43.471"/>
					<path d="M576.683,520.46H530.03v-46.651h46.651L576.683,520.46L576.683,520.46z M533.212,517.28h40.289v-40.29h-40.289V517.28z
						"/>
				</g>
				<g>
					<rect x="575.092" y="475.399" fill="#2E9AFF" width="43.473" height="43.471"/>
					<path d="M620.154,520.46h-46.653v-46.651h46.653V520.46z M576.683,517.28h40.29v-40.29h-40.29V517.28z"/>
				</g>
				<g>
					<rect x="618.562" y="475.399" fill="#FFFFFF" width="43.472" height="43.471"/>
					<path d="M663.625,520.46h-46.652v-46.651h46.652V520.46z M620.154,517.28h40.289v-40.29h-40.289V517.28z"/>
				</g>
			</g>
			<g>
				<g>
					<rect x="662.034" y="475.399" fill="#FFFFFF" width="43.473" height="43.471"/>
					<path d="M707.098,520.46h-46.653v-46.651h46.653V520.46z M663.625,517.28h40.291v-40.29h-40.291V517.28z"/>
				</g>
				<g>
					<rect x="705.507" y="475.399" fill="#FFFFFF" width="43.472" height="43.471"/>
					<path d="M750.568,520.46h-46.652v-46.651h46.652V520.46z M707.098,517.28h40.289v-40.29h-40.289V517.28z"/>
				</g>
				<g>
					<rect x="748.979" y="475.399" fill="#FFFFFF" width="43.471" height="43.471"/>
					<path d="M794.039,520.46h-46.652v-46.651h46.652V520.46z M750.568,517.28h40.289v-40.29h-40.289V517.28z"/>
				</g>
				<g>
					<rect x="792.448" y="475.399" fill="#FFFFFF" width="43.472" height="43.471"/>
					<path d="M837.511,520.46h-46.652v-46.651h46.652V520.46z M794.039,517.28h40.29v-40.29h-40.29V517.28z"/>
				</g>
				<g>
					<rect x="835.92" y="475.399" fill="#2E9AFF" width="43.473" height="43.471"/>
					<path d="M880.982,520.46h-46.653v-46.651h46.653V520.46z M837.511,517.28h40.291v-40.29h-40.291V517.28z"/>
				</g>
				<g>
					<rect x="879.393" y="475.399" fill="#2E9AFF" width="43.472" height="43.471"/>
					<path d="M924.454,520.46h-46.652v-46.651h46.652V520.46z M880.982,517.28h40.289v-40.29h-40.289V517.28z"/>
				</g>
			</g>
		</g>
		<g>
			<g>
				<g>
					<rect x="488.148" y="518.87" fill="#FFFFFF" width="43.473" height="43.472"/>
					<path d="M533.212,563.933h-46.654V517.28h46.654V563.933z M489.739,560.751h40.291V520.46h-40.291V560.751z"/>
				</g>
				<g>
					<rect x="531.621" y="518.87" fill="#FFFFFF" width="43.471" height="43.472"/>
					<path d="M576.683,563.933H530.03V517.28h46.651L576.683,563.933L576.683,563.933z M533.212,560.751h40.289V520.46h-40.289
						V560.751z"/>
				</g>
				<g>
					<rect x="575.092" y="518.87" fill="#2E9AFF" width="43.473" height="43.472"/>
					<path d="M620.154,563.933h-46.653V517.28h46.653V563.933z M576.683,560.751h40.29V520.46h-40.29V560.751z"/>
				</g>
				<g>
					<rect x="618.562" y="518.87" fill="#FFFFFF" width="43.472" height="43.472"/>
					<path d="M663.625,563.933h-46.652V517.28h46.652V563.933z M620.154,560.751h40.289V520.46h-40.289V560.751z"/>
				</g>
			</g>
			<g>
				<g>
					<rect x="662.034" y="518.87" fill="#FFFFFF" width="43.473" height="43.472"/>
					<path d="M707.098,563.933h-46.653V517.28h46.653V563.933z M663.625,560.751h40.291V520.46h-40.291V560.751z"/>
				</g>
				<g>
					<rect x="705.507" y="518.87" fill="#FFFFFF" width="43.472" height="43.472"/>
					<path d="M750.568,563.933h-46.652V517.28h46.652V563.933z M707.098,560.751h40.289V520.46h-40.289V560.751z"/>
				</g>
				<g>
					<rect x="748.979" y="518.87" fill="#FFFFFF" width="43.471" height="43.472"/>
					<path d="M794.039,563.933h-46.652V517.28h46.652V563.933z M750.568,560.751h40.289V520.46h-40.289V560.751z"/>
				</g>
				<g>
					<rect x="792.448" y="518.87" fill="#FFFFFF" width="43.472" height="43.472"/>
					<path d="M837.511,563.933h-46.652V517.28h46.652V563.933z M794.039,560.751h40.29V520.46h-40.29V560.751z"/>
				</g>
				<g>
					<rect x="835.92" y="518.87" fill="#FFFFFF" width="43.473" height="43.472"/>
					<path d="M880.982,563.933h-46.653V517.28h46.653V563.933z M837.511,560.751h40.291V520.46h-40.291V560.751z"/>
				</g>
				<g>
					<rect x="879.393" y="518.87" fill="#FFFFFF" width="43.472" height="43.472"/>
					<path d="M924.454,563.933h-46.652V517.28h46.652V563.933z M880.982,560.751h40.289V520.46h-40.289V560.751z"/>
				</g>
			</g>
		</g>
		<g>
			<g>
				<g>
					<rect x="488.148" y="562.342" fill="#FFFFFF" width="43.473" height="43.471"/>
					<path d="M533.212,607.403h-46.654v-46.652h46.654V607.403z M489.739,604.222h40.291v-40.289h-40.291V604.222z"/>
				</g>
				<g>
					<rect x="531.621" y="562.342" fill="#FFFFFF" width="43.471" height="43.471"/>
					<path d="M576.683,607.403H530.03v-46.652h46.651L576.683,607.403L576.683,607.403z M533.212,604.222h40.289v-40.289h-40.289
						V604.222z"/>
				</g>
				<g>
					<rect x="575.092" y="562.342" fill="#2E9AFF" width="43.473" height="43.471"/>
					<path d="M620.154,607.403h-46.653v-46.652h46.653V607.403z M576.683,604.222h40.29v-40.289h-40.29V604.222z"/>
				</g>
				<g>
					<rect x="618.562" y="562.342" fill="#FFFFFF" width="43.472" height="43.471"/>
					<path d="M663.625,607.403h-46.652v-46.652h46.652V607.403z M620.154,604.222h40.289v-40.289h-40.289V604.222z"/>
				</g>
			</g>
			<g>
				<g>
					<rect x="662.034" y="562.342" fill="#FFFFFF" width="43.473" height="43.471"/>
					<path d="M707.098,607.403h-46.653v-46.652h46.653V607.403z M663.625,604.222h40.291v-40.289h-40.291V604.222z"/>
				</g>
				<g>
					<rect x="705.507" y="562.342" fill="#FFFFFF" width="43.472" height="43.471"/>
					<path d="M750.568,607.403h-46.652v-46.652h46.652V607.403z M707.098,604.222h40.289v-40.289h-40.289V604.222z"/>
				</g>
				<g>
					<rect x="748.979" y="562.342" fill="#2E9AFF" width="43.471" height="43.471"/>
					<path d="M794.039,607.403h-46.652v-46.652h46.652V607.403z M750.568,604.222h40.289v-40.289h-40.289V604.222z"/>
				</g>
				<g>
					<rect x="792.448" y="562.342" fill="#FFFFFF" width="43.472" height="43.471"/>
					<path d="M837.511,607.403h-46.652v-46.652h46.652V607.403z M794.039,604.222h40.29v-40.289h-40.29V604.222z"/>
				</g>
				<g>
					<rect x="835.92" y="562.342" fill="#FFFFFF" width="43.473" height="43.471"/>
					<path d="M880.982,607.403h-46.653v-46.652h46.653V607.403z M837.511,604.222h40.291v-40.289h-40.291V604.222z"/>
				</g>
				<g>
					<rect x="879.393" y="562.342" fill="#FFFFFF" width="43.472" height="43.471"/>
					<path d="M924.454,607.403h-46.652v-46.652h46.652V607.403z M880.982,604.222h40.289v-40.289h-40.289V604.222z"/>
				</g>
			</g>
		</g>
		<g>
			<g>
				<g>
					<rect x="488.148" y="605.812" fill="#2E9AFF" width="43.473" height="43.471"/>
					<path d="M533.212,650.874h-46.654v-46.652h46.654V650.874z M489.739,647.692h40.291v-40.289h-40.291V647.692z"/>
				</g>
				<g>
					<rect x="531.621" y="605.812" fill="#FFFFFF" width="43.471" height="43.471"/>
					<path d="M576.683,650.874H530.03v-46.652h46.651L576.683,650.874L576.683,650.874z M533.212,647.692h40.289v-40.289h-40.289
						V647.692z"/>
				</g>
				<g>
					<rect x="575.092" y="605.812" fill="#2E9AFF" width="43.473" height="43.471"/>
					<path d="M620.154,650.874h-46.653v-46.652h46.653V650.874z M576.683,647.692h40.29v-40.289h-40.29V647.692z"/>
				</g>
				<g>
					<rect x="618.562" y="605.812" fill="#2E9AFF" width="43.472" height="43.471"/>
					<path d="M663.625,650.874h-46.652v-46.652h46.652V650.874z M620.154,647.692h40.289v-40.289h-40.289V647.692z"/>
				</g>
			</g>
			<g>
				<g>
					<rect x="662.034" y="605.812" fill="#2E9AFF" width="43.473" height="43.471"/>
					<path d="M707.098,650.874h-46.653v-46.652h46.653V650.874z M663.625,647.692h40.291v-40.289h-40.291V647.692z"/>
				</g>
				<g>
					<rect x="705.507" y="605.812" fill="#2E9AFF" width="43.472" height="43.471"/>
					<path d="M750.568,650.874h-46.652v-46.652h46.652V650.874z M707.098,647.692h40.289v-40.289h-40.289V647.692z"/>
				</g>
				<g>
					<rect x="748.979" y="605.812" fill="#2E9AFF" width="43.471" height="43.471"/>
					<path d="M794.039,650.874h-46.652v-46.652h46.652V650.874z M750.568,647.692h40.289v-40.289h-40.289V647.692z"/>
				</g>
				<g>
					<rect x="792.448" y="605.812" fill="#2E9AFF" width="43.472" height="43.471"/>
					<path d="M837.511,650.874h-46.652v-46.652h46.652V650.874z M794.039,647.692h40.29v-40.289h-40.29V647.692z"/>
				</g>
				<g>
					<rect x="835.92" y="605.812" fill="#2E9AFF" width="43.473" height="43.471"/>
					<path d="M880.982,650.874h-46.653v-46.652h46.653V650.874z M837.511,647.692h40.291v-40.289h-40.291V647.692z"/>
				</g>
				<g>
					<rect x="879.393" y="605.812" fill="#2E9AFF" width="43.472" height="43.471"/>
					<path d="M924.454,650.874h-46.652v-46.652h46.652V650.874z M880.982,647.692h40.289v-40.289h-40.289V647.692z"/>
				</g>
			</g>
		</g>
		<g>
			<g>
				<g>
					<rect x="488.148" y="649.283" fill="#2E9AFF" width="43.473" height="43.471"/>
					<path d="M533.212,694.345h-46.654v-46.651h46.654V694.345z M489.739,691.163h40.291v-40.289h-40.291V691.163z"/>
				</g>
				<g>
					<rect x="531.621" y="649.283" fill="#2E9AFF" width="43.471" height="43.471"/>
					<path d="M576.683,694.345H530.03v-46.651h46.651L576.683,694.345L576.683,694.345z M533.212,691.163h40.289v-40.289h-40.289
						V691.163z"/>
				</g>
				<g>
					<rect x="575.092" y="649.283" fill="#2E9AFF" width="43.473" height="43.471"/>
					<path d="M620.154,694.345h-46.653v-46.651h46.653V694.345z M576.683,691.163h40.29v-40.289h-40.29V691.163z"/>
				</g>
				<g>
					<rect x="618.562" y="649.283" fill="#2E9AFF" width="43.472" height="43.471"/>
					<path d="M663.625,694.345h-46.652v-46.651h46.652V694.345z M620.154,691.163h40.289v-40.289h-40.289V691.163z"/>
				</g>
			</g>
			<g>
				<g>
					<rect x="662.034" y="649.283" fill="#2E9AFF" width="43.473" height="43.471"/>
					<path d="M707.098,694.345h-46.653v-46.651h46.653V694.345z M663.625,691.163h40.291v-40.289h-40.291V691.163z"/>
				</g>
				<g>
					<rect x="705.507" y="649.283" fill="#2E9AFF" width="43.472" height="43.471"/>
					<path d="M750.568,694.345h-46.652v-46.651h46.652V694.345z M707.098,691.163h40.289v-40.289h-40.289V691.163z"/>
				</g>
				<g>
					<rect x="748.979" y="649.283" fill="#2E9AFF" width="43.471" height="43.471"/>
					<path d="M794.039,694.345h-46.652v-46.651h46.652V694.345z M750.568,691.163h40.289v-40.289h-40.289V691.163z"/>
				</g>
				<g>
					<rect x="792.448" y="649.283" fill="#2E9AFF" width="43.472" height="43.471"/>
					<path d="M837.511,694.345h-46.652v-46.651h46.652V694.345z M794.039,691.163h40.29v-40.289h-40.29V691.163z"/>
				</g>
				<g>
					<rect x="835.92" y="649.283" fill="#2E9AFF" width="43.473" height="43.471"/>
					<path d="M880.982,694.345h-46.653v-46.651h46.653V694.345z M837.511,691.163h40.291v-40.289h-40.291V691.163z"/>
				</g>
				<g>
					<rect x="879.393" y="649.283" fill="#FFFFFF" width="43.472" height="43.471"/>
					<path d="M924.454,694.345h-46.652v-46.651h46.652V694.345z M880.982,691.163h40.289v-40.289h-40.289V691.163z"/>
				</g>
			</g>
		</g>
		<g>
			<g>
				<g>
					<rect x="488.148" y="692.754" fill="#2E9AFF" width="43.473" height="43.472"/>
					<path d="M533.212,737.816h-46.654v-46.653h46.654V737.816z M489.739,734.635h40.291v-40.29h-40.291V734.635z"/>
				</g>
				<g>
					<rect x="531.621" y="692.754" fill="#FFFFFF" width="43.471" height="43.472"/>
					<path d="M576.683,737.816H530.03v-46.653h46.651L576.683,737.816L576.683,737.816z M533.212,734.635h40.289v-40.29h-40.289
						V734.635z"/>
				</g>
				<g>
					<rect x="575.092" y="692.754" fill="#2E9AFF" width="43.473" height="43.472"/>
					<path d="M620.154,737.816h-46.653v-46.653h46.653V737.816z M576.683,734.635h40.29v-40.29h-40.29V734.635z"/>
				</g>
				<g>
					<rect x="618.562" y="692.754" fill="#2E9AFF" width="43.472" height="43.472"/>
					<path d="M663.625,737.816h-46.652v-46.653h46.652V737.816z M620.154,734.635h40.289v-40.29h-40.289V734.635z"/>
				</g>
			</g>
			<g>
				<g>
					<rect x="662.034" y="692.754" fill="#2E9AFF" width="43.473" height="43.472"/>
					<path d="M707.098,737.816h-46.653v-46.653h46.653V737.816z M663.625,734.635h40.291v-40.29h-40.291V734.635z"/>
				</g>
				<g>
					<rect x="705.507" y="692.754" fill="#2E9AFF" width="43.472" height="43.472"/>
					<path d="M750.568,737.816h-46.652v-46.653h46.652V737.816z M707.098,734.635h40.289v-40.29h-40.289V734.635z"/>
				</g>
				<g>
					<rect x="748.979" y="692.754" fill="#2E9AFF" width="43.471" height="43.472"/>
					<path d="M794.039,737.816h-46.652v-46.653h46.652V737.816z M750.568,734.635h40.289v-40.29h-40.289V734.635z"/>
				</g>
				<g>
					<rect x="792.448" y="692.754" fill="#2E9AFF" width="43.472" height="43.472"/>
					<path d="M837.511,737.816h-46.652v-46.653h46.652V737.816z M794.039,734.635h40.29v-40.29h-40.29V734.635z"/>
				</g>
				<g>
					<rect x="835.92" y="692.754" fill="#2E9AFF" width="43.473" height="43.472"/>
					<path d="M880.982,737.816h-46.653v-46.653h46.653V737.816z M837.511,734.635h40.291v-40.29h-40.291V734.635z"/>
				</g>
				<g>
					<rect x="879.393" y="692.754" fill="#2E9AFF" width="43.472" height="43.472"/>
					<path d="M924.454,737.816h-46.652v-46.653h46.652V737.816z M880.982,734.635h40.289v-40.29h-40.289V734.635z"/>
				</g>
			</g>
		</g>
		<g>
			<rect x="662.034" y="171.102" fill="#2E9AFF" width="43.473" height="43.471"/>
			<path d="M707.098,216.164h-46.653v-46.652h46.653V216.164z M663.625,212.983h40.291v-40.291h-40.291V212.983z"/>
		</g>
		<g>
			<rect x="705.507" y="171.102" fill="#2E9AFF" width="43.472" height="43.471"/>
			<path d="M750.568,216.164h-46.652v-46.652h46.652V216.164z M707.098,212.983h40.289v-40.291h-40.289V212.983z"/>
		</g>
		<g>
			<rect x="662.034" y="214.573" fill="#2E9AFF" width="43.473" height="43.471"/>
			<path d="M707.098,259.635h-46.653v-46.652h46.653V259.635z M663.625,256.454h40.291v-40.291h-40.291V256.454z"/>
		</g>
		<g>
			<rect x="705.507" y="214.573" fill="#2E9AFF" width="43.472" height="43.471"/>
			<path d="M750.568,259.635h-46.652v-46.652h46.652V259.635z M707.098,256.454h40.289v-40.291h-40.289V256.454z"/>
		</g>
	</g>
</g>
<g>
	<g>
		<g>
			<circle cx="278.396" cy="199.958" r="103.437"/>
		</g>
		<g>
			<circle fill="#2E9AFF" cx="254.546" cy="188.026" r="103.437"/>
			<path d="M254.546,293.331c-58.065,0-105.305-47.24-105.305-105.305S196.48,82.721,254.546,82.721
				c58.066,0,105.305,47.24,105.305,105.305S312.611,293.331,254.546,293.331z M254.546,86.458
				c-56.005,0-101.568,45.563-101.568,101.568c0,56.005,45.563,101.568,101.568,101.568s101.568-45.562,101.568-101.568
				C356.114,132.021,310.551,86.458,254.546,86.458z"/>
		</g>
	</g>
	<g>
		<g>
			<g>
				<g>
					<g>
						<path id="SVGID_5_" fill="#FFFFFF" d="M315.03,174.328c-0.836,0-1.655,0.052-2.468,0.142
							c-7.562-26.127-31.661-45.229-60.225-45.229s-52.663,19.103-60.227,45.229c-0.81-0.09-1.633-0.142-2.466-0.142
							c-12.022,0-21.771,9.746-21.771,21.769c0,12.021,9.749,21.768,21.771,21.768c1.83,0,3.607-0.229,5.308-0.656
							c9.719,22.036,31.755,37.417,57.385,37.417c25.632,0,47.663-15.382,57.384-37.417c1.7,0.426,3.478,0.656,5.309,0.656
							c12.023,0,21.77-9.747,21.77-21.768C336.8,184.074,327.055,174.328,315.03,174.328z"/>
					</g>
					<g>
						<path id="SVGID_6_" d="M252.339,256.495c-25.065,0-47.846-14.527-58.462-37.143c-1.396,0.253-2.812,0.381-4.23,0.381
							c-13.035,0-23.64-10.603-23.64-23.636c0-13.034,10.604-23.637,23.64-23.637c0.365,0,0.737,0.009,1.114,0.028
							c8.409-26.64,33.512-45.115,61.578-45.115c28.067,0,53.169,18.475,61.576,45.115c13.573-0.647,24.753,10.206,24.753,23.61
							c0,13.033-10.604,23.636-23.638,23.636c-1.418,0-2.835-0.128-4.23-0.381C300.182,241.967,277.402,256.495,252.339,256.495z
							 M196.027,215.014l0.636,1.441c9.727,22.053,31.581,36.303,55.676,36.303c24.093,0,45.946-14.25,55.675-36.303l0.637-1.441
							l1.526,0.383c1.587,0.398,3.222,0.6,4.854,0.6c10.974,0,19.9-8.927,19.9-19.9c0-10.974-8.928-19.901-19.9-19.901
							c-0.731,0-1.472,0.042-2.26,0.13l-1.564,0.174l-0.438-1.511c-7.477-25.836-31.503-43.881-58.43-43.881
							c-26.925,0-50.953,18.044-58.432,43.881l-0.438,1.512l-1.563-0.175c-0.776-0.086-1.536-0.13-2.259-0.13
							c-10.975,0-19.903,8.927-19.903,19.901c0,10.973,8.929,19.9,19.903,19.9c1.633,0,3.267-0.202,4.854-0.6L196.027,215.014z"/>
					</g>
					<g>
						<defs>
							<path id="SVGID_1_" d="M315.03,174.328c-0.836,0-1.655,0.052-2.468,0.142c-7.562-26.127-31.661-45.229-60.225-45.229
								s-52.663,19.103-60.227,45.229c-0.81-0.09-1.633-0.142-2.466-0.142c-12.022,0-21.771,9.746-21.771,21.769
								c0,12.021,9.749,21.768,21.771,21.768c1.83,0,3.607-0.229,5.308-0.656c9.719,22.036,31.755,37.417,57.385,37.417
								c25.632,0,47.663-15.382,57.384-37.417c1.7,0.426,3.478,0.656,5.309,0.656c12.023,0,21.77-9.747,21.77-21.768
								C336.8,184.074,327.055,174.328,315.03,174.328z"/>
						</defs>
						<clipPath id="SVGID_2_">
							<use xlink:href="#SVGID_1_"  overflow="visible"/>
						</clipPath>
					</g>
				</g>
				<g>
					<line fill="none" x1="178.615" y1="190.338" x2="191.967" y2="204.849"/>
					<path d="M191.967,206.717c-0.504,0-1.007-0.203-1.375-0.604l-13.352-14.511c-0.698-0.759-0.649-1.941,0.11-2.639
						c0.758-0.699,1.94-0.65,2.64,0.11l13.352,14.511c0.698,0.759,0.649,1.941-0.11,2.639
						C192.873,206.554,192.419,206.717,191.967,206.717z"/>
				</g>
				<g>
					<line fill="none" x1="323.459" y1="190.338" x2="310.107" y2="204.849"/>
					<path d="M310.107,206.717c-0.452,0-0.906-0.163-1.266-0.494c-0.76-0.698-0.809-1.88-0.109-2.639l13.352-14.511
						c0.699-0.76,1.882-0.809,2.64-0.11c0.761,0.698,0.81,1.88,0.11,2.639l-13.352,14.511
						C311.114,206.514,310.611,206.717,310.107,206.717z"/>
				</g>
			</g>
			<g>
				<line fill="none" x1="251.903" y1="198.65" x2="251.903" y2="210.695"/>
				<path d="M251.903,212.563c-1.031,0-1.868-0.836-1.868-1.868V198.65c0-1.032,0.837-1.868,1.868-1.868
					c1.031,0,1.868,0.836,1.868,1.868v12.045C253.771,211.727,252.935,212.563,251.903,212.563z"/>
			</g>
			<g>
				<path fill="#2E9AFF" d="M273.092,217.62c0,11.701-9.487,21.188-21.188,21.188c-11.702,0-21.188-9.487-21.188-21.188H273.092z"/>
			</g>
		</g>
		<g>
			<path d="M214.479,212.564c-0.688,0-1.352-0.383-1.677-1.042c-0.456-0.925-0.076-2.045,0.85-2.501l18.571-9.157l-18.649-10.311
				c-0.902-0.499-1.229-1.636-0.73-2.539c0.5-0.903,1.634-1.231,2.539-0.731l21.777,12.039c0.608,0.336,0.979,0.983,0.963,1.679
				c-0.016,0.695-0.417,1.324-1.041,1.631l-21.777,10.737C215.038,212.502,214.756,212.564,214.479,212.564z"/>
		</g>
		<g>
			<path d="M289.284,212.564c-0.278,0-0.56-0.062-0.825-0.193l-21.777-10.737c-0.624-0.307-1.025-0.936-1.041-1.631
				c-0.017-0.695,0.354-1.342,0.963-1.679l21.777-12.039c0.905-0.5,2.04-0.172,2.539,0.731s0.172,2.04-0.73,2.539l-18.649,10.31
				l18.571,9.157c0.926,0.456,1.306,1.576,0.85,2.501C290.636,212.181,289.973,212.564,289.284,212.564z"/>
		</g>
	</g>
</g>
<g>
	<g>
		<g>
			<rect x="657.028" y="890.001" width="288.396" height="111.646"/>
		</g>
		<g>
			<rect x="634.7" y="885.015" fill="#FFFFFF" width="288.396" height="94.104"/>
			<path d="M924.688,980.708H633.109v-97.284h291.576v97.284H924.688z M636.291,977.526h285.214v-90.921H636.291V977.526z"/>
		</g>
	</g>
	<g>
		<g>
			<path d="M663.767,919.29h3.587v3.228c0.064,0.021,0.131,0.045,0.195,0.065c0.5,0.217,1.048,0.396,1.646,0.537
				c0.598,0.142,1.232,0.212,1.906,0.212c1.218,0,2.162-0.244,2.838-0.733c0.673-0.488,1.011-1.146,1.011-1.973
				c0-0.738-0.277-1.336-0.832-1.793c-0.554-0.456-1.238-0.858-2.054-1.206c-0.816-0.348-1.707-0.695-2.675-1.043
				c-0.967-0.348-1.857-0.788-2.673-1.321c-0.814-0.532-1.5-1.2-2.055-2.005c-0.554-0.804-0.831-1.847-0.831-3.13
				c0-0.979,0.188-1.875,0.57-2.689c0.38-0.814,0.913-1.517,1.598-2.104s1.505-1.043,2.462-1.369
				c0.956-0.326,2.021-0.489,3.195-0.489c1.325,0,2.629,0.12,3.912,0.359c1.281,0.239,2.304,0.564,3.063,0.978v6.618h-3.586v-3.618
				c-0.064,0-0.131-0.011-0.196-0.032c-0.478-0.131-0.993-0.233-1.548-0.311c-0.555-0.076-1.104-0.114-1.646-0.114
				c-1.044,0-1.864,0.207-2.462,0.62c-0.6,0.413-0.896,0.967-0.896,1.662c0,0.718,0.277,1.305,0.831,1.761
				c0.555,0.457,1.239,0.87,2.055,1.239c0.814,0.37,1.705,0.739,2.674,1.108c0.967,0.37,1.857,0.819,2.674,1.353
				c0.813,0.533,1.5,1.202,2.054,2.006c0.556,0.805,0.831,1.814,0.831,3.032c0,1.174-0.217,2.2-0.65,3.081
				c-0.437,0.88-1.045,1.619-1.826,2.217c-0.782,0.599-1.706,1.043-2.771,1.337c-1.063,0.293-2.217,0.439-3.456,0.439
				c-0.826,0-1.592-0.064-2.298-0.195c-0.707-0.13-1.359-0.293-1.957-0.489c-0.598-0.194-1.124-0.4-1.581-0.618
				c-0.456-0.218-0.826-0.402-1.107-0.556v-6.063H663.767z"/>
			<path d="M699.011,925.19c-0.892,0.675-1.935,1.18-3.13,1.517c-1.196,0.337-2.445,0.505-3.75,0.505
				c-1.413,0-2.668-0.206-3.766-0.619c-1.099-0.412-2.021-0.994-2.771-1.744c-0.749-0.75-1.319-1.656-1.711-2.723
				c-0.392-1.064-0.587-2.238-0.587-3.521c0-1.369,0.229-2.587,0.686-3.651c0.456-1.064,1.092-1.967,1.906-2.706
				c0.815-0.738,1.776-1.299,2.887-1.679c1.107-0.38,2.313-0.57,3.617-0.57c1.219,0,2.358,0.142,3.425,0.424
				c1.063,0.282,1.88,0.554,2.444,0.814v5.737h-3.587v-2.999c-0.674-0.151-1.348-0.229-2.021-0.229
				c-0.609,0-1.212,0.093-1.811,0.276c-0.599,0.186-1.131,0.479-1.598,0.881c-0.468,0.401-0.849,0.907-1.143,1.517
				c-0.293,0.608-0.439,1.336-0.439,2.185c0,0.695,0.12,1.337,0.358,1.924s0.575,1.098,1.012,1.531
				c0.435,0.437,0.973,0.777,1.612,1.027c0.643,0.25,1.354,0.375,2.137,0.375c1.238,0,2.255-0.174,3.049-0.521
				c0.793-0.349,1.386-0.652,1.776-0.913L699.011,925.19z"/>
			<path d="M701.913,918.604c0-1.368,0.206-2.586,0.619-3.65c0.412-1.064,0.999-1.967,1.761-2.706
				c0.761-0.738,1.668-1.299,2.722-1.679c1.056-0.381,2.233-0.57,3.538-0.57c1.369,0,2.592,0.206,3.668,0.619
				s1.983,0.994,2.724,1.744c0.737,0.75,1.298,1.656,1.679,2.723c0.38,1.065,0.57,2.238,0.57,3.521c0,1.369-0.207,2.587-0.619,3.651
				c-0.413,1.064-1,1.967-1.761,2.706c-0.762,0.739-1.668,1.299-2.724,1.679c-1.055,0.381-2.232,0.57-3.537,0.57
				c-1.369,0-2.592-0.206-3.668-0.619c-1.076-0.412-1.982-0.994-2.723-1.744s-1.299-1.656-1.679-2.723
				C702.104,921.062,701.913,919.888,701.913,918.604z M706.281,918.604c0,0.719,0.098,1.382,0.294,1.989
				c0.194,0.608,0.478,1.143,0.848,1.599c0.369,0.456,0.814,0.81,1.337,1.06c0.521,0.25,1.119,0.375,1.793,0.375
				c1.261,0,2.287-0.402,3.081-1.206c0.793-0.805,1.189-2.076,1.189-3.814c0-1.499-0.369-2.711-1.108-3.636
				c-0.738-0.924-1.793-1.386-3.162-1.386c-0.608,0-1.174,0.093-1.694,0.277c-0.521,0.184-0.975,0.482-1.354,0.896
				s-0.68,0.936-0.896,1.564C706.39,916.953,706.281,917.714,706.281,918.604z"/>
			<path d="M721.604,923.17h4.044v-9.13h-4.044v-3.586h7.337l0.488,2.151h0.13c0.608-0.718,1.306-1.314,2.088-1.794
				c0.781-0.478,1.694-0.717,2.737-0.717c1.306,0,2.332,0.479,3.081,1.436c0.75,0.956,1.125,2.554,1.125,4.792h-3.813
				c0-0.782-0.114-1.354-0.343-1.711c-0.229-0.359-0.593-0.538-1.093-0.538c-0.869,0-1.57,0.218-2.103,0.65
				c-0.533,0.437-0.984,0.937-1.354,1.5v6.945h7.075v3.586h-15.356L721.604,923.17L721.604,923.17z"/>
			<path d="M757.306,925.028c-0.281,0.261-0.646,0.516-1.092,0.766s-0.968,0.484-1.564,0.701c-0.599,0.218-1.255,0.392-1.974,0.521
				c-0.717,0.131-1.478,0.195-2.281,0.195c-1.392,0-2.637-0.195-3.732-0.587c-1.099-0.391-2.027-0.961-2.788-1.711
				s-1.342-1.652-1.744-2.706c-0.401-1.055-0.604-2.255-0.604-3.604c0-1.436,0.229-2.689,0.685-3.767
				c0.457-1.075,1.081-1.973,1.875-2.688c0.793-0.719,1.723-1.256,2.788-1.614c1.064-0.358,2.217-0.537,3.456-0.537
				c0.825,0,1.679,0.108,2.559,0.325c0.881,0.218,1.69,0.593,2.431,1.125c0.737,0.533,1.342,1.245,1.81,2.136
				c0.467,0.892,0.7,2.021,0.7,3.391c0,0.936-0.108,1.945-0.325,3.032h-11.737c0.021,0.696,0.169,1.283,0.439,1.761
				c0.271,0.479,0.631,0.869,1.076,1.175c0.444,0.305,0.956,0.526,1.532,0.668c0.575,0.142,1.189,0.212,1.842,0.212
				c1.305,0,2.375-0.151,3.212-0.456c0.837-0.306,1.516-0.674,2.038-1.108L757.306,925.028z M750.264,913.389
				c-0.564,0-1.098,0.077-1.598,0.232s-0.951,0.382-1.354,0.682c-0.401,0.299-0.732,0.67-0.993,1.112
				c-0.262,0.443-0.413,0.94-0.456,1.494h8.021c0-1.085-0.3-1.942-0.896-2.574C752.388,913.704,751.48,913.389,750.264,913.389z"/>
		</g>
		<g>
			<path d="M662.887,947.649c0-1.979,0.206-3.712,0.621-5.2s0.998-2.723,1.751-3.7c0.753-0.979,1.653-1.712,2.7-2.201
				c1.048-0.488,2.215-0.732,3.502-0.732c2.749,0,4.866,0.962,6.35,2.886c1.484,1.924,2.227,4.907,2.227,8.949
				c0,2-0.208,3.744-0.622,5.232c-0.415,1.489-0.998,2.729-1.751,3.717c-0.753,0.989-1.658,1.729-2.717,2.217
				c-1.06,0.489-2.23,0.733-3.519,0.733c-2.771,0-4.888-1.016-6.35-3.048S662.887,951.519,662.887,947.649z M667.125,947.649
				c0,0.325,0.005,0.636,0.016,0.93c0.012,0.293,0.027,0.593,0.05,0.896l7.891-7.271c-0.646-1.869-1.865-2.804-3.654-2.804
				c-1.38,0-2.44,0.668-3.186,2.005C667.497,942.743,667.125,944.824,667.125,947.649z M675.798,947.649
				c0-0.348-0.006-0.68-0.017-0.994c-0.012-0.314-0.027-0.624-0.049-0.93l-7.924,7.271c0.668,1.978,1.888,2.967,3.654,2.967
				c1.38,0,2.446-0.663,3.201-1.989C675.42,952.649,675.798,950.541,675.798,947.649z"/>
			<path d="M699.011,952.019c0,1.065-0.201,2.056-0.604,2.968c-0.402,0.913-0.951,1.707-1.646,2.381
				c-0.694,0.674-1.526,1.206-2.494,1.597c-0.967,0.392-2.005,0.587-3.112,0.587c-1.131,0-2.19-0.179-3.18-0.537
				c-0.988-0.358-1.854-0.896-2.593-1.613c-0.738-0.719-1.325-1.619-1.76-2.706c-0.437-1.087-0.652-2.349-0.652-3.782
				c0-2.151,0.375-4.108,1.125-5.868c0.75-1.761,1.711-3.288,2.886-4.581c1.174-1.293,2.488-2.337,3.944-3.13
				c1.456-0.794,2.901-1.299,4.336-1.517l0.946,3.357c-1.152,0.218-2.229,0.57-3.229,1.061c-1,0.489-1.891,1.081-2.673,1.776
				c-0.783,0.695-1.439,1.467-1.973,2.314s-0.896,1.729-1.093,2.641c0.435-0.543,1.087-1.005,1.957-1.386
				c0.868-0.38,1.824-0.57,2.868-0.57c0.979,0,1.892,0.158,2.738,0.473c0.849,0.315,1.581,0.772,2.201,1.369
				c0.619,0.6,1.108,1.332,1.467,2.201C698.831,949.922,699.011,950.91,699.011,952.019z M694.902,952.182
				c0-1.174-0.354-2.063-1.061-2.674c-0.706-0.606-1.657-0.912-2.853-0.912c-0.87,0-1.652,0.195-2.349,0.587
				c-0.695,0.392-1.206,0.849-1.531,1.369c-0.045,0.239-0.071,0.505-0.082,0.799c-0.012,0.294-0.017,0.527-0.017,0.701
				c0,0.521,0.086,1.021,0.261,1.499c0.175,0.479,0.43,0.896,0.767,1.256c0.337,0.358,0.745,0.642,1.223,0.849
				c0.479,0.207,1.032,0.31,1.663,0.31c0.5,0,0.989-0.092,1.467-0.276c0.479-0.186,0.902-0.44,1.272-0.767
				c0.369-0.326,0.668-0.723,0.896-1.189C694.788,953.264,694.902,952.747,694.902,952.182z"/>
			<path d="M702.532,943.411c0-1.108,0.188-2.13,0.569-3.064s0.913-1.732,1.599-2.396c0.685-0.663,1.511-1.186,2.478-1.564
				c0.967-0.381,2.049-0.57,3.244-0.57c1.218,0,2.326,0.186,3.326,0.555c0.999,0.37,1.858,0.918,2.575,1.646
				c0.718,0.729,1.271,1.63,1.663,2.706c0.392,1.076,0.587,2.311,0.587,3.7c0,2.521-0.326,4.695-0.979,6.521
				c-0.65,1.825-1.526,3.348-2.624,4.564s-2.375,2.151-3.831,2.804c-1.457,0.651-2.979,1.064-4.563,1.238l-0.913-3.325
				c1.195-0.15,2.275-0.444,3.244-0.88c0.967-0.435,1.81-0.973,2.525-1.613c0.719-0.642,1.306-1.369,1.762-2.186
				c0.457-0.814,0.75-1.689,0.881-2.624c-0.457,0.456-1.044,0.82-1.762,1.092c-0.718,0.272-1.575,0.407-2.575,0.407h-0.065
				c-0.826,0-1.662-0.141-2.51-0.424c-0.848-0.282-1.614-0.717-2.299-1.305c-0.686-0.587-1.244-1.319-1.68-2.2
				C702.749,945.612,702.532,944.585,702.532,943.411z M706.641,943.184c0,0.608,0.113,1.146,0.343,1.613
				c0.229,0.468,0.525,0.859,0.896,1.174c0.369,0.315,0.799,0.556,1.288,0.719c0.489,0.161,0.994,0.243,1.516,0.243
				c0.893,0,1.663-0.142,2.315-0.424s1.13-0.63,1.435-1.043c0.065-0.457,0.099-0.892,0.099-1.305c0-0.608-0.087-1.206-0.262-1.793
				s-0.436-1.108-0.781-1.565c-0.35-0.456-0.783-0.819-1.306-1.092c-0.521-0.271-1.118-0.407-1.793-0.407
				c-1.064,0-1.956,0.343-2.674,1.026C706.999,941.015,706.641,941.966,706.641,943.184z"/>
			<path d="M739.146,952.736h-3.913v6.356h-3.944v-6.356h-9.879v-2.902l10.335-13.726h3.488v13.236h3.913V952.736z M731.288,942.107
				l-5.673,7.237h5.673V942.107z"/>
			<path d="M741.135,947.649c0-1.979,0.206-3.712,0.621-5.2s0.998-2.723,1.751-3.7c0.753-0.979,1.653-1.712,2.7-2.201
				c1.048-0.488,2.215-0.732,3.502-0.732c2.749,0,4.866,0.962,6.35,2.886c1.484,1.924,2.227,4.907,2.227,8.949
				c0,2-0.208,3.744-0.622,5.232c-0.415,1.489-0.998,2.729-1.751,3.717c-0.753,0.989-1.658,1.729-2.717,2.217
				c-1.06,0.489-2.23,0.733-3.519,0.733c-2.771,0-4.888-1.016-6.35-3.048S741.135,951.519,741.135,947.649z M745.373,947.649
				c0,0.325,0.005,0.636,0.016,0.93c0.012,0.293,0.027,0.593,0.049,0.896l7.892-7.271c-0.646-1.869-1.865-2.804-3.654-2.804
				c-1.38,0-2.44,0.668-3.186,2.005C745.745,942.743,745.373,944.824,745.373,947.649z M754.046,947.649
				c0-0.348-0.006-0.68-0.017-0.994c-0.012-0.314-0.027-0.624-0.049-0.93l-7.924,7.271c0.668,1.978,1.888,2.967,3.654,2.967
				c1.38,0,2.446-0.663,3.201-1.989C753.668,952.649,754.046,950.541,754.046,947.649z"/>
			<path d="M762.913,955.508h4.988V941.26l-4.305,3.293l-1.956-2.607l7.435-5.673h2.869v19.235h4.891v3.586h-13.922V955.508z"/>
		</g>
	</g>
	<g>
		<polygon points="893.044,961.084 872.792,951.172 853.146,962.235 856.314,939.912 839.722,924.646 861.931,920.763 
			871.321,900.265 881.88,920.188 904.276,922.783 888.591,938.979 		"/>
	</g>
</g>
<g>
	<g>
		<path d="M252.338,131.286c-0.108-0.588-0.221-1.175-0.312-1.77c-28.984,0.141-53.319,19.933-60.367,46.739
			c2.031,0.226,4.093,0.352,6.185,0.352C225.002,176.607,247.584,157.07,252.338,131.286z"/>
	</g>
	<g>
		<path d="M252.648,129.517c-0.09,0.594-0.202,1.181-0.311,1.77c4.754,25.784,27.336,45.321,54.496,45.321
			c2.09,0,4.152-0.126,6.183-0.352C305.969,149.449,281.634,129.658,252.648,129.517z"/>
	</g>
	<g>
		<path d="M252.03,129.396c0.089,0.588,0.2,1.168,0.308,1.75c0.107-0.582,0.219-1.162,0.307-1.75c-0.102,0-0.203-0.008-0.307-0.008
			S252.134,129.396,252.03,129.396z"/>
	</g>
</g>
</svg>
