<svg xmlns="http://www.w3.org/2000/svg" viewBox="0 0 815 921"><path d="M379.48 729.45h288.4v111.64h-288.4Z"/><path fill="#fff" d="M357.15 723.66h288.4v94.1h-288.4Z"/><path d="M647.13 819.36H355.56v-97.29h291.57Zm-288.4-3.19h285.22v-90.92H358.74Z"/><path d="M397.6 753h4.04v9.3h-15v-22.83h4.47v18.85h6.48Zm23.47 7.57c-.28.26-.65.51-1.1.76a12.05 12.05 0 0 1-5.82 1.42c-1.39 0-2.63-.2-3.73-.59a7.51 7.51 0 0 1-2.79-1.71 7.47 7.47 0 0 1-1.74-2.7c-.4-1.06-.6-2.26-.6-3.6 0-1.44.23-2.7.68-3.77a7.51 7.51 0 0 1 4.66-4.3 10.75 10.75 0 0 1 6.02-.22c.88.22 1.69.6 2.43 1.13a6.02 6.02 0 0 1 1.81 2.13c.47.9.7 2.02.7 3.4 0 .93-.1 1.94-.32 3.02h-11.74a3.48 3.48 0 0 0 1.51 2.94c.45.3.96.53 1.54.67.57.14 1.19.21 1.84.21a9.4 9.4 0 0 0 3.21-.46c.84-.3 1.52-.67 2.04-1.1Zm-7.05-11.64c-.56 0-1.1.07-1.6.23a3.95 3.95 0 0 0-2.35 1.79c-.25.45-.4.94-.45 1.5h8.02a3.6 3.6 0 0 0-.9-2.58c-.6-.63-1.5-.94-2.72-.94Zm19.41 8.44h.22L437.3 746h4.57l-6.23 16.3h-4.53L424.1 746h4.92Zm26.77 3.2c-.3.26-.65.51-1.1.76a12.03 12.03 0 0 1-5.82 1.42c-1.4 0-2.64-.2-3.73-.59a7.5 7.5 0 0 1-2.8-1.71 7.47 7.47 0 0 1-1.74-2.7c-.4-1.06-.6-2.26-.6-3.6 0-1.44.23-2.7.69-3.77a7.51 7.51 0 0 1 4.66-4.3 10.75 10.75 0 0 1 6.01-.22c.89.22 1.7.6 2.44 1.13a6.02 6.02 0 0 1 1.8 2.13c.47.9.7 2.02.7 3.4 0 .93-.1 1.94-.32 3.02h-11.74a3.48 3.48 0 0 0 1.51 2.94c.45.3.96.53 1.54.67.57.14 1.19.21 1.84.21a9.4 9.4 0 0 0 3.21-.46c.84-.3 1.52-.67 2.04-1.1Zm-7.05-11.64c-.57 0-1.1.07-1.6.23-.5.15-.95.38-1.35.68-.4.3-.74.67-1 1.11a3.4 3.4 0 0 0-.45 1.5h8.02a3.6 3.6 0 0 0-.9-2.58c-.6-.63-1.5-.94-2.72-.94Zm12.03-9.46h6.94v15.06c0 1.68.21 2.84.62 3.5.42.64 1.08.97 2 .97a5.43 5.43 0 0 0 2.96-.81l1.6 2.93c-.37.24-.74.46-1.1.67a7.13 7.13 0 0 1-2.54.85c-.49.07-1.04.1-1.64.1-2.05 0-3.58-.51-4.6-1.56-1.02-1.04-1.53-2.52-1.53-4.43v-13.7h-2.7Zm-79.85 43.72c0-1.98.21-3.71.63-5.2.41-1.49 1-2.73 1.75-3.7a7.25 7.25 0 0 1 2.7-2.2 8.17 8.17 0 0 1 3.5-.74c2.75 0 4.86.97 6.35 2.9 1.48 1.91 2.23 4.9 2.23 8.94 0 2-.21 3.74-.63 5.23a10.9 10.9 0 0 1-1.75 3.72 7.15 7.15 0 0 1-2.72 2.22 8.28 8.28 0 0 1-3.51.73c-2.77 0-4.9-1.02-6.35-3.05-1.46-2.03-2.2-4.98-2.2-8.85Zm4.24 0a24.96 24.96 0 0 0 .07 1.82l7.89-7.27c-.65-1.87-1.86-2.8-3.65-2.8-1.38 0-2.44.67-3.19 2-.75 1.34-1.12 3.42-1.12 6.25Zm8.68 0a26.1 26.1 0 0 0-.07-1.93l-7.92 7.27c.66 1.98 1.88 2.97 3.65 2.97 1.38 0 2.45-.66 3.2-1.99.76-1.32 1.14-3.43 1.14-6.32Zm8.86 7.85h4.99V776.8l-4.3 3.29-1.96-2.6 7.44-5.68h2.86v19.24h4.9v3.58H407.1Zm24.19.46c.72 0 1.38-.1 1.98-.27a4.9 4.9 0 0 0 1.53-.78 3.8 3.8 0 0 0 1-1.17 3 3 0 0 0 .35-1.44c0-.65-.13-1.2-.4-1.64-.27-.45-.65-.8-1.13-1.06a5.45 5.45 0 0 0-1.73-.55c-.67-.1-1.4-.16-2.18-.16h-1.83v-2.34l5.48-6.7h-8.25v-3.58h13.3v2.97l-5.73 6.55h.75c.76 0 1.5.13 2.21.4a5.47 5.47 0 0 1 3.25 3.12c.34.78.5 1.69.5 2.7a6.7 6.7 0 0 1-.76 3.27 7.41 7.41 0 0 1-2.02 2.36 8.66 8.66 0 0 1-2.9 1.44c-1.08.31-2.2.47-3.35.47-.98 0-1.95-.09-2.93-.26-.98-.17-1.93-.45-2.84-.81l1.14-3.52c.2.1.46.21.8.32a19.41 19.41 0 0 0 2.45.59c.44.06.88.1 1.32.1Zm202.2-22.36-29.57-29.56-.08 13.8h-29.03v31.89h28.84l-.08 13.8ZM22.4 734.48h261.36v186.17H22.39Z"/><path fill="#fff" d="M2.16 723.66h261.36v176H2.16Z"/><path d="M264.96 901.1H.71V722.22h264.25ZM3.6 898.22h258.48V725.1H3.6Z"/><path fill="#2e9aff" d="M50.84 786.42h39.4v39.4h-39.4Z"/><path fill="#fff" d="M91.68 827.25H49.4v-42.27h42.28Zm-39.4-2.88H88.8v-36.51H52.28Z"/><path fill="#2e9aff" d="M90.24 786.42h39.4v39.4h-39.4Z"/><path fill="#fff" d="M131.08 827.25H88.8v-42.27h42.28Zm-39.4-2.88h36.51v-36.51H91.68Z"/><path fill="#2e9aff" d="M129.63 786.42h39.4v39.4h-39.4Z"/><path fill="#fff" d="M170.47 827.25H128.2v-42.27h42.28Zm-39.4-2.88h36.52v-36.51h-36.51Z"/><path fill="#2e9aff" d="M169.03 786.42h39.4v39.4h-39.4Z"/><path fill="#fff" d="M209.87 827.25H167.6v-42.27h42.28Zm-39.4-2.88H207v-36.51h-36.52Z"/><path d="M208.43 847.7h17.29v17.28h-17.29Z"/><path fill="#fff" d="M227.16 866.42h-20.17v-20.17h20.17Zm-17.29-2.88h14.4v-14.4h-14.4Z"/><path d="M225.72 847.7H243v17.28h-17.28Z"/><path fill="#fff" d="M244.44 866.42h-20.17v-20.17h20.17Zm-17.28-2.88h14.4v-14.4h-14.4Z"/><path d="M208.43 864.98h17.29v17.28h-17.29Z"/><path fill="#fff" d="M227.16 883.7h-20.17v-20.16h20.17Zm-17.29-2.88h14.4v-14.4h-14.4Z"/><path d="M225.72 864.98H243v17.28h-17.28Z"/><path fill="#fff" d="M244.44 883.7h-20.17v-20.16h20.17Zm-17.28-2.88h14.4v-14.4h-14.4Z"/><path d="M31.32 750.9h-.14l.17 2.45v9.78h-3.84v-20.68h3.55l7.15 12.64h.14l-.26-2.48v-10.16h3.84v20.68h-3.55Zm28.04 10.66a5.2 5.2 0 0 1-.99.7 11.2 11.2 0 0 1-5.27 1.29 9.86 9.86 0 0 1-3.38-.54 6.7 6.7 0 0 1-2.53-1.55 6.78 6.78 0 0 1-1.58-2.45 9.1 9.1 0 0 1-.55-3.27c0-1.3.21-2.43.62-3.4a6.8 6.8 0 0 1 4.23-3.91 9.76 9.76 0 0 1 5.45-.2c.8.2 1.53.55 2.2 1.03a5.47 5.47 0 0 1 1.64 1.94c.42.8.64 1.83.64 3.07 0 .85-.1 1.76-.3 2.75H48.9a3.14 3.14 0 0 0 1.37 2.66c.41.27.87.47 1.4.6a8.63 8.63 0 0 0 4.58-.22 6.1 6.1 0 0 0 1.84-1Zm-6.38-10.54a4.28 4.28 0 0 0-2.67.83 3.11 3.11 0 0 0-1.32 2.36h7.27c0-.99-.27-1.76-.81-2.34-.54-.57-1.37-.85-2.47-.85Zm14.57 4.48-5.14-7.14h4.58l3.34 4.93 3.48-4.93h4.17l-5.06 7.09 5.35 7.68h-4.46l-3.75-5.43-3.81 5.43h-4.2Zm14.92-3.9h-2.93v-3.24h2.93v-3.37l3.84-1.1v4.47h7.74v3.25h-7.74v4.22c0 1.52.29 2.62.86 3.3a2.95 2.95 0 0 0 2.4 1.02 5.06 5.06 0 0 0 2.6-.68c.35-.2.67-.41.95-.65l.78-.65 1.78 2.66c-.34.4-.76.75-1.26 1.08a10.74 10.74 0 0 1-3.44 1.43 8.7 8.7 0 0 1-1.86.2c-2.2 0-3.87-.6-4.98-1.84-1.11-1.23-1.67-3.19-1.67-5.87ZM35.1 869.67a3.38 3.38 0 0 0-.76-.2 6.09 6.09 0 0 0-1-.08c-.56 0-1.1.1-1.63.3-.54.2-1 .54-1.42 1a5.1 5.1 0 0 0-1 1.79 8.62 8.62 0 0 0-.37 2.73c0 .96.11 1.81.34 2.54.22.72.53 1.33.93 1.81.4.49.88.85 1.44 1.1a4.7 4.7 0 0 0 1.87.36 4.9 4.9 0 0 0 1.82-.35v-2.02h1.5v2.73l.02.04c-.4.3-.92.57-1.54.78a7.4 7.4 0 0 1-4.61-.13 4.9 4.9 0 0 1-1.87-1.32 6.14 6.14 0 0 1-1.22-2.27c-.29-.92-.43-2.01-.43-3.28 0-1.32.16-2.44.48-3.36.33-.92.76-1.67 1.31-2.26a4.98 4.98 0 0 1 1.93-1.28c.73-.27 1.52-.4 2.35-.4.46 0 .86.02 1.2.05.33.03.63.08.88.14a3.6 3.6 0 0 1 1.25.55h.02v3.2H35.1Zm10.17 2.51h2.88v6.88c0 .66.05 1.29.13 1.9h1.35v1.3h-2.7l-.07-1.7h-.08a3.85 3.85 0 0 1-3.48 1.96 5.57 5.57 0 0 1-1.58-.22c-.43-.15-.8-.4-1.07-.74a3.42 3.42 0 0 1-.63-1.4 9.96 9.96 0 0 1-.2-2.19v-4.44h-1.35v-1.35h2.94v5.47c0 .55.03 1.04.07 1.48.05.44.15.8.3 1.1.14.31.36.54.64.7.3.15.68.23 1.16.23.69 0 1.3-.23 1.8-.69.52-.46.91-1.03 1.18-1.72v-5.22h-1.3Zm6.13 10.09v-1.36h2.73v-7.38H51.4v-1.36h3.78l.32 1.32h.1c.46-.42.97-.78 1.53-1.07a4.3 4.3 0 0 1 2.02-.45c.46 0 .83.1 1.1.27.28.17.5.43.65.76a4 4 0 0 1 .31 1.23c.05.48.08 1.02.08 1.62l-1.41.02a5.2 5.2 0 0 0-.25-1.88.92.92 0 0 0-.92-.6 3.32 3.32 0 0 0-2.01.62 5.05 5.05 0 0 0-1.02.97v5.93h3.88v1.36H51.4Zm12.11 0v-1.36h2.73v-7.38H63.5v-1.36h3.77l.33 1.32h.1c.46-.42.97-.78 1.53-1.07a4.3 4.3 0 0 1 2.02-.45c.46 0 .82.1 1.1.27.28.17.49.43.65.76a4 4 0 0 1 .3 1.23c.06.48.09 1.02.09 1.62l-1.41.02a5.2 5.2 0 0 0-.26-1.88.92.92 0 0 0-.91-.6 3.32 3.32 0 0 0-2.01.62 5.05 5.05 0 0 0-1.02.97v5.93h3.87v1.36H63.5ZM84.96 881a6.23 6.23 0 0 1-1.94 1.09 7.85 7.85 0 0 1-2.5.41c-.8 0-1.52-.12-2.14-.37a4.11 4.11 0 0 1-1.55-1.07 4.7 4.7 0 0 1-.95-1.66 6.88 6.88 0 0 1-.32-2.18c0-.85.11-1.6.35-2.26.24-.66.58-1.21 1.02-1.66.44-.44.98-.78 1.61-1.02a6.36 6.36 0 0 1 3.8-.13 3.3 3.3 0 0 1 1.46.84 4 4 0 0 1 .98 1.7c.23.71.31 1.65.24 2.8h-7.79c0 1.2.33 2.1.98 2.7.65.6 1.52.9 2.6.9.37 0 .73-.04 1.08-.13.36-.09.7-.19 1.02-.31a5.59 5.59 0 0 0 1.43-.8Zm-4.25-7.73c-.44 0-.86.05-1.26.14a2.64 2.64 0 0 0-1.79 1.34c-.19.36-.31.8-.37 1.32h6.26a3.1 3.1 0 0 0-.86-2.07 2.7 2.7 0 0 0-1.98-.73Zm7.56 2.43a14.05 14.05 0 0 0-.1-1.69c-.01-.2-.03-.37-.06-.52h-1.35v-1.31h2.7l.18 1.63h.1a4.11 4.11 0 0 1 3.45-1.88c.62 0 1.17.07 1.65.2.47.14.87.38 1.19.72.31.35.55.81.71 1.4.17.58.25 1.33.25 2.23v5.79h-1.6v-5.48c0-1.11-.18-1.95-.54-2.52-.36-.56-1.02-.84-1.97-.84-.35 0-.69.07-1.02.2a3.51 3.51 0 0 0-1.6 1.36c-.2.3-.34.62-.44.96v6.31h-1.55v-6.55Zm10.86-3.52h2.4v-2l1.6-.44v2.44h5.38v1.35h-5.39v4.76c0 .98.24 1.71.71 2.18.48.47 1.16.7 2.05.7.6 0 1.13-.1 1.58-.33a8.6 8.6 0 0 0 1.21-.75l.52 1.19a6.05 6.05 0 0 1-3.7 1.25c-.53 0-1.04-.08-1.51-.23a3.42 3.42 0 0 1-2.13-1.96c-.22-.5-.32-1.1-.32-1.8v-5.01h-2.4Zm-76.7-594.61h261.82v399.2H22.44Z"/><path fill="#fff" d="M2.16 256.1h261.82v399.2H2.16Z"/><path d="M265.57 656.88H.57V254.51h265ZM3.75 653.7h258.64v-396H3.75Z"/><path d="M30.2 302.18h3.58v3.23l.2.06a8.23 8.23 0 0 0 3.55.75c1.22 0 2.16-.24 2.84-.73a2.32 2.32 0 0 0 1-1.97 2.2 2.2 0 0 0-.83-1.8 8.4 8.4 0 0 0-2.05-1.2c-.82-.35-1.7-.7-2.67-1.04a12.8 12.8 0 0 1-2.68-1.32 7.39 7.39 0 0 1-2.05-2 5.4 5.4 0 0 1-.83-3.14 6.27 6.27 0 0 1 2.16-4.8 7.42 7.42 0 0 1 2.47-1.36 9.86 9.86 0 0 1 3.2-.5c1.32 0 2.62.13 3.9.37 1.29.24 2.3.56 3.07.97v6.62h-3.59v-3.62a4.27 4.27 0 0 0-5.85.16c-.6.42-.9.97-.9 1.67 0 .72.28 1.3.84 1.76.55.46 1.23.87 2.05 1.24.81.37 1.7.74 2.67 1.1.97.38 1.86.83 2.68 1.36.81.53 1.5 1.2 2.05 2 .56.81.83 1.82.83 3.04a6.24 6.24 0 0 1-2.48 5.3 8 8 0 0 1-2.77 1.33c-1.06.3-2.21.44-3.45.44a12.61 12.61 0 0 1-4.26-.68c-.6-.2-1.12-.4-1.58-.62-.45-.22-.82-.4-1.1-.56Zm20.57-5.25h-3.23v-3.58h3.23v-3.72l4.23-1.2v4.92h8.55v3.58H55v4.66c0 1.68.3 2.89.94 3.64a3.26 3.26 0 0 0 2.64 1.12 5.6 5.6 0 0 0 2.89-.75c.38-.21.73-.45 1.04-.71l.86-.72 1.96 2.93c-.37.44-.83.83-1.39 1.2a11.68 11.68 0 0 1-3.8 1.57c-.69.16-1.38.23-2.05.23-2.43 0-4.27-.68-5.5-2.03-1.22-1.36-1.83-3.52-1.83-6.48Zm18.01-2.48a17.08 17.08 0 0 1 7.08-1.44c1.13 0 2.09.14 2.88.42a4.41 4.41 0 0 1 2.98 2.95c.22.7.33 1.48.33 2.34 0 1.11-.04 2.06-.11 2.84a21.87 21.87 0 0 0-.05 3.62l.1.88h2.11v3.58h-5.47l-.43-2.21h-.16a5.64 5.64 0 0 1-1.85 1.74c-.8.5-1.88.74-3.24.74a5.5 5.5 0 0 1-3.85-1.3 4.46 4.46 0 0 1-1.43-3.46c0-.92.17-1.7.5-2.37a4.3 4.3 0 0 1 1.46-1.63c.64-.42 1.4-.74 2.3-.94a13.4 13.4 0 0 1 4.23-.25c.43.04.96.09 1.59.13.04-.22.06-.43.06-.65v-.62c0-.83-.24-1.42-.71-1.78a3.46 3.46 0 0 0-2.1-.54c-1.1 0-2.1.15-2.98.43-.89.28-1.63.56-2.24.85Zm5.55 11.97a3.9 3.9 0 0 0 2.32-.57c.52-.38.9-.79 1.13-1.22v-1.96a15.18 15.18 0 0 0-2.36-.23c-.4 0-.81.04-1.22.12-.41.07-.78.2-1.1.35-.32.17-.58.38-.77.64-.2.26-.3.58-.3.94 0 .61.19 1.09.54 1.42.35.34.94.51 1.76.51Zm13.75-9.49h-3.22v-3.58h3.22v-3.72l4.24-1.2v4.92h8.54v3.58h-8.54v4.66c0 1.68.32 2.89.95 3.64a3.26 3.26 0 0 0 2.64 1.12 5.6 5.6 0 0 0 2.88-.75c.38-.21.73-.45 1.05-.71l.86-.72 1.96 2.93c-.37.44-.83.83-1.39 1.2a11.68 11.68 0 0 1-3.8 1.57c-.7.16-1.38.23-2.05.23-2.44 0-4.27-.68-5.5-2.03-1.22-1.36-1.84-3.52-1.84-6.48Zm17.04 9.13h5.74v-9.13h-5.74v-3.58h9.98v12.71h6.03v3.59h-16.01Zm4.95-17.15c0-.67.25-1.25.75-1.73a2.9 2.9 0 0 1 2.1-.71c.9 0 1.63.24 2.18.71a2.23 2.23 0 0 1 0 3.44c-.55.45-1.27.67-2.19.67a3 3 0 0 1-2.09-.67 2.19 2.19 0 0 1-.75-1.7Zm24.83 16.24c0-.44-.26-.78-.8-1.04a10.6 10.6 0 0 0-1.96-.72c-.79-.22-1.64-.44-2.58-.67-.93-.23-1.8-.54-2.58-.95a6.47 6.47 0 0 1-1.97-1.53 3.54 3.54 0 0 1-.8-2.4c0-.8.18-1.5.54-2.11.36-.61.85-1.13 1.47-1.55a6.86 6.86 0 0 1 2.22-.96 11.1 11.1 0 0 1 2.78-.33 13.52 13.52 0 0 1 4.9.78c.6.22 1.12.47 1.54.74.43.27.8.51 1.1.73l-1.8 2.9a14.8 14.8 0 0 0-3.93-1.6 7.33 7.33 0 0 0-3.73.2c-.56.24-.85.6-.85 1.1 0 .4.27.71.8.95s1.19.46 1.97.67l2.58.67c.93.24 1.8.55 2.57.93.79.38 1.44.87 1.98 1.48.53.61.8 1.4.8 2.35 0 1.65-.6 2.95-1.81 3.9-1.21.94-3 1.41-5.37 1.41-1.87 0-3.48-.27-4.84-.83a11.25 11.25 0 0 1-3.27-1.94l1.95-3.06a9.87 9.87 0 0 0 2.7 1.6c.6.23 1.22.43 1.88.6.67.16 1.32.24 1.98.24.69 0 1.29-.12 1.79-.36.5-.23.75-.64.75-1.2Zm22.89 2.93a9.34 9.34 0 0 1-3.13 1.52c-1.2.33-2.44.5-3.75.5-1.41 0-2.67-.2-3.77-.62a7.4 7.4 0 0 1-4.48-4.47 10.1 10.1 0 0 1-.59-3.51c0-1.37.23-2.59.69-3.66a7.7 7.7 0 0 1 4.8-4.38c1.1-.38 2.3-.57 3.61-.57 1.22 0 2.36.14 3.43.42 1.06.29 1.88.56 2.44.82v5.74h-3.59v-3a9.16 9.16 0 0 0-2.02-.23c-.6 0-1.21.09-1.8.27a4.43 4.43 0 0 0-2.75 2.4 5 5 0 0 0-.44 2.19c0 .7.12 1.33.36 1.92a4.56 4.56 0 0 0 2.63 2.56 5.8 5.8 0 0 0 2.13.37 7.6 7.6 0 0 0 3.05-.52c.8-.35 1.39-.65 1.78-.91Zm4.91-11.15h-3.23v-3.58h3.23v-3.72l4.24-1.2v4.92h8.54v3.58h-8.54v4.66c0 1.68.31 2.89.94 3.64a3.26 3.26 0 0 0 2.64 1.12 5.6 5.6 0 0 0 2.89-.75c.38-.21.73-.45 1.04-.71l.87-.72 1.95 2.93c-.37.44-.83.83-1.38 1.2a11.68 11.68 0 0 1-3.8 1.57c-.7.16-1.38.23-2.06.23-2.43 0-4.26-.68-5.5-2.03-1.22-1.36-1.83-3.52-1.83-6.48Zm17.03 9.13h5.74v-9.13h-5.74v-3.58h9.98v12.71h6.03v3.59h-16Zm4.96-17.15c0-.67.25-1.25.75-1.73a2.9 2.9 0 0 1 2.09-.71c.9 0 1.64.24 2.18.71a2.23 2.23 0 0 1 0 3.44 3.3 3.3 0 0 1-2.18.67c-.9 0-1.6-.22-2.1-.67a2.19 2.19 0 0 1-.74-1.7Zm29.06 19.17a9.35 9.35 0 0 1-3.13 1.52c-1.2.33-2.45.5-3.75.5-1.42 0-2.67-.2-3.77-.62a7.4 7.4 0 0 1-4.48-4.47 10.1 10.1 0 0 1-.59-3.51c0-1.37.23-2.59.69-3.66a7.7 7.7 0 0 1 4.79-4.38c1.1-.38 2.31-.57 3.62-.57 1.21 0 2.35.14 3.42.42 1.06.29 1.88.56 2.44.82v5.74h-3.58v-3a9.17 9.17 0 0 0-2.02-.23c-.61 0-1.21.09-1.81.27a4.43 4.43 0 0 0-2.74 2.4 5 5 0 0 0-.44 2.19c0 .7.12 1.33.35 1.92a4.56 4.56 0 0 0 2.63 2.56 5.8 5.8 0 0 0 2.13.37c1.24 0 2.26-.17 3.06-.52.79-.35 1.38-.65 1.77-.91Zm13.83-2.93c0-.44-.27-.78-.8-1.04-.53-.27-1.2-.5-1.98-.72-.78-.22-1.64-.44-2.57-.67-.94-.23-1.8-.54-2.58-.95a6.49 6.49 0 0 1-1.97-1.53 3.55 3.55 0 0 1-.8-2.4c0-.8.18-1.5.54-2.11.36-.61.85-1.13 1.47-1.55a6.86 6.86 0 0 1 2.21-.96c.86-.22 1.8-.33 2.8-.33a13.52 13.52 0 0 1 4.9.78c.6.22 1.1.47 1.53.74.42.27.79.51 1.1.73l-1.8 2.9a14.8 14.8 0 0 0-3.93-1.6 7.35 7.35 0 0 0-3.73.2c-.57.24-.85.6-.85 1.1 0 .4.26.71.8.95.53.24 1.19.46 1.97.67l2.58.67c.93.24 1.79.55 2.57.93.78.38 1.44.87 1.97 1.48.54.61.8 1.4.8 2.35a4.7 4.7 0 0 1-1.8 3.9c-1.21.94-3 1.41-5.37 1.41-1.87 0-3.48-.27-4.84-.83a11.24 11.24 0 0 1-3.28-1.94l1.96-3.06a9.87 9.87 0 0 0 2.7 1.6c.6.23 1.22.43 1.88.6.66.16 1.32.24 1.97.24.7 0 1.3-.12 1.8-.36.5-.23.75-.64.75-1.2Zm-77.15 45.67c0-1.98.21-3.71.63-5.2.41-1.49 1-2.72 1.75-3.7a7.27 7.27 0 0 1 2.7-2.2 8.18 8.18 0 0 1 3.5-.73c2.75 0 4.86.96 6.35 2.88 1.48 1.92 2.22 4.9 2.22 8.95 0 2-.2 3.75-.62 5.23-.41 1.5-1 2.73-1.75 3.72a7.17 7.17 0 0 1-2.72 2.22 8.29 8.29 0 0 1-3.51.73c-2.77 0-4.9-1.02-6.35-3.05-1.47-2.03-2.2-4.98-2.2-8.85Zm4.24 0a24.86 24.86 0 0 0 .07 1.82l7.89-7.27c-.65-1.87-1.87-2.8-3.66-2.8-1.38 0-2.44.67-3.18 2-.75 1.34-1.12 3.43-1.12 6.25Zm8.68 0a28.5 28.5 0 0 0-.07-1.92l-7.92 7.27c.66 1.97 1.88 2.96 3.65 2.96 1.38 0 2.45-.66 3.2-1.99.76-1.32 1.13-3.43 1.13-6.32Zm24.22 5.08h-3.91v6.36h-3.95v-6.35h-9.88V353l10.34-13.73h3.49v13.23h3.9Zm-7.86-10.62-5.67 7.24h5.67Zm10.37 1.3c0-1.1.19-2.13.57-3.06a6.92 6.92 0 0 1 4.07-3.96 8.81 8.81 0 0 1 3.25-.57c1.22 0 2.32.18 3.32.55a6.95 6.95 0 0 1 4.24 4.35c.4 1.08.59 2.31.59 3.7 0 2.53-.33 4.7-.98 6.52a13.43 13.43 0 0 1-2.62 4.57 11.39 11.39 0 0 1-3.83 2.8 15.19 15.19 0 0 1-4.57 1.24l-.91-3.33c1.2-.15 2.28-.44 3.24-.88a9.75 9.75 0 0 0 2.53-1.6 8.41 8.41 0 0 0 1.76-2.2 7.4 7.4 0 0 0 .88-2.62 4.9 4.9 0 0 1-1.76 1.1 7.6 7.6 0 0 1-2.58.4h-.06a7.9 7.9 0 0 1-2.51-.42 6.8 6.8 0 0 1-3.98-3.5 6.85 6.85 0 0 1-.65-3.09Zm4.1-.23a3.6 3.6 0 0 0 2.53 3.51 5.78 5.78 0 0 0 3.83-.18 3.42 3.42 0 0 0 1.44-1.04c.07-.46.1-.9.1-1.3 0-.61-.09-1.21-.26-1.8a4.91 4.91 0 0 0-.78-1.56 3.83 3.83 0 0 0-3.1-1.5c-1.07 0-1.96.34-2.68 1.02a3.75 3.75 0 0 0-1.07 2.85Zm-43.75 57.44c0-1.98.21-3.71.63-5.2.41-1.5 1-2.72 1.75-3.7a7.27 7.27 0 0 1 2.7-2.2 8.2 8.2 0 0 1 3.5-.74c2.75 0 4.86.97 6.35 2.89 1.48 1.92 2.22 4.9 2.22 8.95 0 2-.2 3.74-.62 5.23-.41 1.49-1 2.73-1.75 3.72a7.17 7.17 0 0 1-2.72 2.22 8.29 8.29 0 0 1-3.51.73c-2.77 0-4.9-1.02-6.35-3.05-1.47-2.03-2.2-4.98-2.2-8.85Zm4.24 0a24.86 24.86 0 0 0 .07 1.82l7.89-7.27c-.65-1.87-1.87-2.8-3.66-2.8-1.38 0-2.44.67-3.18 2-.75 1.34-1.12 3.42-1.12 6.25Zm8.68 0a28.58 28.58 0 0 0-.07-1.93l-7.92 7.27c.66 1.98 1.88 2.97 3.65 2.97 1.38 0 2.45-.66 3.2-1.99.76-1.32 1.13-3.43 1.13-6.32Zm13.49 8.31c.72 0 1.38-.09 1.98-.27a4.1 4.1 0 0 0 2.53-1.95 3 3 0 0 0 .35-1.44c0-.65-.14-1.2-.4-1.64-.28-.45-.66-.8-1.13-1.06a5.4 5.4 0 0 0-1.73-.55c-.68-.1-1.4-.16-2.19-.16h-1.82v-2.34l5.48-6.7h-8.25v-3.58h13.3v2.97l-5.74 6.55h.75c.76 0 1.5.13 2.22.4a5.44 5.44 0 0 1 3.24 3.12c.34.79.51 1.69.51 2.7a6.7 6.7 0 0 1-.77 3.27 7.44 7.44 0 0 1-2.02 2.36 8.66 8.66 0 0 1-2.89 1.44 12 12 0 0 1-3.35.47c-.98 0-1.96-.09-2.94-.26a14.1 14.1 0 0 1-2.83-.81l1.14-3.52c.2.1.46.21.8.32a19.36 19.36 0 0 0 2.44.59c.45.06.89.1 1.32.1Zm19.21-.16a7.3 7.3 0 0 0 1.98-.26 5.32 5.32 0 0 0 1.59-.75 3.48 3.48 0 0 0 1.42-2.84 3.3 3.3 0 0 0-1.42-2.82c-.95-.68-2.37-1.03-4.26-1.03a23.95 23.95 0 0 0-1.73.07c-.32.02-.66.03-1 .03v-11.93h11.8v3.98h-8.16v4.4c.18 0 .35-.01.53-.04a5.67 5.67 0 0 0 .81-.03c1.09 0 2.1.16 3.03.47a6.44 6.44 0 0 1 4.06 3.72c.38.9.57 1.9.57 2.98a7.02 7.02 0 0 1-2.67 5.8 8.75 8.75 0 0 1-2.87 1.5c-1.09.33-2.25.5-3.49.5-.48 0-.99-.05-1.53-.15a19.12 19.12 0 0 1-3.05-.83c-.45-.17-.82-.34-1.13-.49l1.37-3.4c.37.23.94.47 1.72.73.77.25 1.58.39 2.43.39Zm-45.62 57.59c0-1.98.21-3.71.63-5.2.41-1.5 1-2.73 1.75-3.7a7.27 7.27 0 0 1 2.7-2.2 8.18 8.18 0 0 1 3.5-.74c2.75 0 4.86.96 6.35 2.89 1.48 1.92 2.22 4.9 2.22 8.95 0 2-.2 3.74-.62 5.23a10.9 10.9 0 0 1-1.75 3.72 7.17 7.17 0 0 1-2.72 2.21 8.3 8.3 0 0 1-3.51.74c-2.77 0-4.9-1.02-6.35-3.05-1.47-2.03-2.2-4.98-2.2-8.85Zm4.24 0a25 25 0 0 0 .07 1.82l7.89-7.27c-.65-1.87-1.87-2.8-3.66-2.8-1.38 0-2.44.67-3.18 2-.75 1.34-1.12 3.42-1.12 6.25Zm8.68 0a28.43 28.43 0 0 0-.07-1.93l-7.92 7.27c.66 1.98 1.88 2.97 3.65 2.97 1.38 0 2.45-.66 3.2-1.99.76-1.32 1.13-3.43 1.13-6.32Zm8.73 11.44 9.4-18.98h-10.64v-3.84h14.87v3.2l-9.49 19.62h-4.14Zm35.05-6.36h-3.91v6.36h-3.94v-6.36h-9.88v-2.9L199.73 458h3.49v13.23h3.91Zm-7.86-10.63-5.67 7.24h5.67Zm-48.84 72.2c0-1.98.21-3.7.63-5.2.41-1.49 1-2.72 1.75-3.7a7.26 7.26 0 0 1 2.7-2.2 8.2 8.2 0 0 1 3.5-.73c2.75 0 4.86.96 6.35 2.89 1.48 1.92 2.22 4.9 2.22 8.94 0 2-.2 3.75-.62 5.24a10.9 10.9 0 0 1-1.75 3.71 7.15 7.15 0 0 1-2.72 2.22 8.29 8.29 0 0 1-3.51.73c-2.77 0-4.9-1.01-6.35-3.04-1.47-2.04-2.2-4.99-2.2-8.86Zm4.24 0a25.01 25.01 0 0 0 .07 1.83l7.89-7.27c-.65-1.87-1.87-2.8-3.66-2.8-1.38 0-2.44.66-3.18 2-.75 1.33-1.12 3.42-1.12 6.24Zm8.68 0a28.52 28.52 0 0 0-.07-1.92l-7.92 7.27c.66 1.98 1.88 2.97 3.65 2.97 1.38 0 2.45-.67 3.2-2 .76-1.32 1.13-3.43 1.13-6.32Zm22.45 11.45h-14.53v-3.17a145.87 145.87 0 0 0 3.85-3.59 71.77 71.77 0 0 0 3.54-3.94c.55-.67 1-1.3 1.36-1.9.36-.6.62-1.19.8-1.77a6.1 6.1 0 0 0 .26-1.77c0-.44-.1-.86-.3-1.27a3.5 3.5 0 0 0-.8-1.1 3.95 3.95 0 0 0-1.26-.75 4.51 4.51 0 0 0-1.62-.27 6.03 6.03 0 0 0-4.13 1.56l-1.7-3a14.1 14.1 0 0 1 3.05-1.64 10.42 10.42 0 0 1 6.55-.28 7.1 7.1 0 0 1 2.28 1.16 5.63 5.63 0 0 1 1.58 1.9c.4.77.59 1.65.59 2.65a9.48 9.48 0 0 1-.73 3.73c-.26.6-.58 1.21-.98 1.84a31.24 31.24 0 0 1-2.87 3.77 60.13 60.13 0 0 1-3 3.11c-.5.46-.93.84-1.32 1.14h9.39v3.59Zm4.47-5.58c0-.76.13-1.45.38-2.09.25-.63.57-1.19.98-1.69.4-.5.86-.95 1.38-1.35.53-.4 1.06-.76 1.6-1.06a10.07 10.07 0 0 1-2.7-2.24 4.88 4.88 0 0 1-1.08-3.24 5.37 5.37 0 0 1 2.1-4.3 7.36 7.36 0 0 1 2.37-1.28 9.3 9.3 0 0 1 2.96-.45c.98 0 1.9.13 2.76.39.86.26 1.61.63 2.27 1.1a5.24 5.24 0 0 1 1.53 1.75c.37.69.55 1.44.55 2.27 0 1.28-.33 2.4-.99 3.36a8.75 8.75 0 0 1-2.72 2.47c1.3.68 2.34 1.47 3.1 2.38a5.27 5.27 0 0 1 1.17 3.52 5.6 5.6 0 0 1-.64 2.66c-.42.8-1 1.48-1.71 2.04a8.1 8.1 0 0 1-2.53 1.32c-.97.31-2 .47-3.08.47-1.09 0-2.1-.14-3.03-.44a8 8 0 0 1-2.44-1.22 5.65 5.65 0 0 1-1.63-1.9c-.4-.73-.6-1.56-.6-2.47Zm11.61-.55c0-.55-.14-1.01-.42-1.4a4.6 4.6 0 0 0-1.06-1.05c-.43-.3-.9-.58-1.4-.83-.51-.25-1.01-.5-1.49-.77a6.35 6.35 0 0 0-2.5 1.85 3.53 3.53 0 0 0-.89 2.13c0 .98.35 1.74 1.04 2.27.7.53 1.67.8 2.9.8a4.6 4.6 0 0 0 2.74-.77 2.57 2.57 0 0 0 1.08-2.23Zm-7-10.93c0 .52.1.97.33 1.32.23.36.53.68.88.95.36.27.77.52 1.23.73l1.37.65a6.33 6.33 0 0 0 1.92-1.51c.26-.32.47-.64.64-.98a2.39 2.39 0 0 0-.06-2.22 2.9 2.9 0 0 0-.76-.86 3.38 3.38 0 0 0-1.06-.54 4.13 4.13 0 0 0-2.53.05c-.4.15-.75.35-1.04.59-.3.24-.52.52-.69.85a2.2 2.2 0 0 0-.24.97Zm-44.45 69.89c0-1.98.21-3.72.63-5.2.41-1.5 1-2.73 1.75-3.7a7.27 7.27 0 0 1 2.7-2.2 8.21 8.21 0 0 1 3.5-.74c2.75 0 4.86.96 6.35 2.89 1.48 1.92 2.22 4.9 2.22 8.95 0 2-.2 3.74-.62 5.23-.41 1.49-1 2.73-1.75 3.72a7.17 7.17 0 0 1-2.72 2.21 8.29 8.29 0 0 1-3.51.74c-2.77 0-4.9-1.02-6.35-3.05-1.47-2.03-2.2-4.99-2.2-8.85Zm4.24 0a24.96 24.96 0 0 0 .07 1.82l7.89-7.27c-.65-1.87-1.87-2.8-3.66-2.8-1.38 0-2.44.66-3.18 2-.75 1.34-1.12 3.42-1.12 6.25Zm8.68 0a28.52 28.52 0 0 0-.07-1.93l-7.92 7.27c.66 1.98 1.88 2.97 3.65 2.97 1.38 0 2.45-.66 3.2-1.99.76-1.32 1.13-3.43 1.13-6.32Zm13.49 8.31c.72 0 1.38-.1 1.98-.27a4.1 4.1 0 0 0 2.53-1.95c.23-.44.35-.93.35-1.44 0-.65-.14-1.2-.4-1.64-.28-.45-.66-.8-1.13-1.06a5.4 5.4 0 0 0-1.73-.55c-.68-.1-1.4-.16-2.19-.16h-1.82v-2.34l5.48-6.7h-8.25v-3.58h13.3v2.97l-5.74 6.55h.75c.76 0 1.5.13 2.22.4a5.44 5.44 0 0 1 3.24 3.12c.34.78.51 1.69.51 2.7a6.7 6.7 0 0 1-.77 3.27 7.43 7.43 0 0 1-2.02 2.36 8.65 8.65 0 0 1-2.89 1.44 12 12 0 0 1-3.35.47 15.05 15.05 0 0 1-5.77-1.07l1.14-3.52c.2.1.46.21.8.32a19.36 19.36 0 0 0 2.44.59c.45.06.89.09 1.32.09Zm19.56 0c.72 0 1.38-.1 1.98-.27a4.1 4.1 0 0 0 2.53-1.95 3 3 0 0 0 .35-1.44c0-.65-.14-1.2-.4-1.64-.28-.45-.65-.8-1.13-1.06a5.4 5.4 0 0 0-1.73-.55c-.67-.1-1.4-.16-2.19-.16H194v-2.34l5.48-6.7h-8.25v-3.58h13.3v2.97l-5.74 6.55h.75c.76 0 1.5.13 2.22.4a5.46 5.46 0 0 1 3.25 3.12c.33.78.5 1.69.5 2.7a6.7 6.7 0 0 1-.77 3.27 7.45 7.45 0 0 1-2.02 2.36 8.64 8.64 0 0 1-2.88 1.44 12 12 0 0 1-3.36.47 15.27 15.27 0 0 1-5.77-1.07l1.14-3.52c.2.1.46.21.8.32a19.41 19.41 0 0 0 2.45.59c.44.06.88.09 1.31.09Z"/><path fill="#2e9aff" d="M49.81 383.47h21.74v21.74H49.8Z"/><path fill="#fff" d="M73.14 406.8H48.22v-24.92h24.92Zm-21.74-3.18h18.56v-18.56H51.4Z"/><path fill="#2e9aff" d="M71.55 383.47h21.73v21.74H71.55Z"/><path fill="#fff" d="M94.87 406.8H69.96v-24.92h24.91Zm-21.73-3.18h18.55v-18.56H73.14Z"/><path fill="#2e9aff" d="M49.81 405.2h21.74v21.74H49.8Z"/><path fill="#fff" d="M73.14 428.53H48.22v-24.91h24.92Zm-21.74-3.18h18.56V406.8H51.4Z"/><path fill="#2e9aff" d="M71.55 405.2h21.73v21.74H71.55Z"/><path fill="#fff" d="M94.87 428.53H69.96v-24.91h24.91Zm-21.73-3.18h18.55V406.8H73.14Z"/><path fill="#2e9aff" d="M38.94 470.94h21.74v21.74H38.94Z"/><path fill="#fff" d="M62.27 494.27H37.35v-24.92h24.92Zm-21.74-3.18H59.1v-18.55H40.53Z"/><path fill="#2e9aff" d="M60.68 470.94h21.74v21.74H60.68Z"/><path fill="#fff" d="M84 494.27H59.1v-24.92h24.92Zm-21.73-3.18h18.55v-18.55H62.27Z"/><path fill="#2e9aff" d="M60.68 449.2h21.74v21.74H60.68Z"/><path fill="#fff" d="M84 472.54H59.1v-24.92h24.92Zm-21.73-3.19h18.55V450.8H62.27Z"/><path fill="#2e9aff" d="M82.42 470.94h21.73v21.74H82.42Z"/><path fill="#fff" d="M105.74 494.27H80.82v-24.92h24.92Zm-21.73-3.18h18.55v-18.55H84.01Z"/><path fill="#2e9aff" d="M28.07 340.53h21.74v21.73H28.07Z"/><path fill="#fff" d="M51.4 363.86H26.48v-24.92H51.4Zm-21.73-3.19h18.55v-18.55H29.67Z"/><path fill="#2e9aff" d="M49.81 340.53h21.74v21.73H49.8Z"/><path fill="#fff" d="M73.14 363.86H48.22v-24.92h24.92Zm-21.74-3.19h18.56v-18.55H51.4Z"/><path fill="#2e9aff" d="M71.55 340.53h21.73v21.73H71.55Z"/><path fill="#fff" d="M94.87 363.86H69.96v-24.92h24.91Zm-21.73-3.19h18.55v-18.55H73.14Z"/><path fill="#2e9aff" d="M93.28 340.53h21.74v21.73H93.28Z"/><path fill="#fff" d="M116.61 363.86H91.69v-24.92h24.92Zm-21.74-3.19h18.56v-18.55H94.87Z"/><path fill="#2e9aff" d="M38.94 515.87h21.74v21.73H38.94Z"/><path fill="#fff" d="M62.27 539.2H37.35v-24.93h24.92ZM40.53 536H59.1v-18.55H40.53Z"/><path fill="#2e9aff" d="M60.68 515.87h21.74v21.73H60.68Z"/><path fill="#fff" d="M84 539.2H59.1v-24.93h24.92ZM62.28 536h18.55v-18.55H62.27Z"/><path fill="#2e9aff" d="M82.42 515.87h21.73v21.73H82.42Z"/><path fill="#fff" d="M105.74 539.2H80.82v-24.93h24.92ZM84.01 536h18.55v-18.55H84.01Z"/><path fill="#2e9aff" d="M82.42 537.6h21.73v21.74H82.42Z"/><path fill="#fff" d="M105.74 560.93H80.82V536h24.92Zm-21.73-3.18h18.55v-18.56H84.01Z"/><path fill="#2e9aff" d="M38.94 580.14h21.74v21.74H38.94Z"/><path fill="#fff" d="M62.27 603.47H37.35v-24.92h24.92Zm-21.74-3.19H59.1v-18.55H40.53Z"/><path fill="#2e9aff" d="M60.68 580.14h21.74v21.74H60.68Z"/><path fill="#fff" d="M84 603.47H59.1v-24.92h24.92Zm-21.73-3.19h18.55v-18.55H62.27Z"/><path fill="#2e9aff" d="M60.68 601.88h21.74v21.73H60.68Z"/><path fill="#fff" d="M84 625.2H59.1v-24.92h24.92Zm-21.73-3.18h18.55v-18.55H62.27Z"/><path fill="#2e9aff" d="M82.42 601.88h21.73v21.73H82.42Z"/><path fill="#fff" d="M105.74 625.2H80.82v-24.92h24.92Zm-21.73-3.18h18.55v-18.55H84.01Z"/><path d="M378.88 24.18h435.54v652.59H378.9Z"/><path fill="#fff" d="M357.15 2.37h434.71v652.92H357.15Z"/><path d="M793.45 656.88h-437.9V.78h437.9Zm-434.71-3.18h431.53V3.95H358.74Z"/><path fill="#fff" d="M357.15 3.16h43.47v43.47h-43.47Z"/><path d="M402.21 48.22h-46.65V1.57h46.65Zm-43.47-3.18h40.29V4.75h-40.3Z"/><path fill="#fff" d="M400.62 3.16h43.47v43.47h-43.47Z"/><path d="M445.68 48.22h-46.65V1.57h46.65Zm-43.47-3.18h40.3V4.75h-40.3Z"/><path fill="#fff" d="M444.1 3.16h43.46v43.47H444.1Z"/><path d="M489.15 48.22H442.5V1.57h46.65Zm-43.47-3.18h40.3V4.75h-40.3Z"/><path fill="#fff" d="M487.56 3.16h43.47v43.47h-43.47Z"/><path d="M532.63 48.22h-46.66V1.57h46.65Zm-43.48-3.18h40.3V4.75h-40.3Z"/><path fill="#fff" d="M531.03 3.16h43.48v43.47h-43.48Z"/><path d="M576.1 48.22h-46.65V1.57h46.65Zm-43.48-3.18h40.3V4.75h-40.3Z"/><path fill="#fff" d="M574.5 3.16h43.48v43.47H574.5Z"/><path d="M619.57 48.22h-46.65V1.57h46.65Zm-43.47-3.18h40.29V4.75h-40.3Z"/><path fill="#fff" d="M617.98 3.16h43.47v43.47h-43.47Z"/><path d="M663.04 48.22h-46.65V1.57h46.65Zm-43.47-3.18h40.29V4.75h-40.3Z"/><path fill="#fff" d="M661.45 3.16h43.47v43.47h-43.47Z"/><path d="M706.51 48.22h-46.65V1.57h46.65Zm-43.47-3.18h40.29V4.75h-40.3Z"/><path fill="#fff" d="M704.92 3.16h43.47v43.47h-43.47Z"/><path d="M749.98 48.22h-46.65V1.57h46.65Zm-43.47-3.18h40.3V4.75h-40.3Z"/><path fill="#fff" d="M748.4 3.16h43.47v43.47h-43.48Z"/><path d="M793.45 48.22H746.8V1.57h46.65Zm-43.47-3.18h40.3V4.75h-40.3Z"/><path fill="#fff" d="M357.15 46.63h43.47V90.1h-43.47Z"/><path d="M402.21 91.7h-46.65V45.03h46.65Zm-43.47-3.19h40.29V48.22h-40.3Z"/><path fill="#fff" d="M400.62 46.63h43.47V90.1h-43.47Z"/><path d="M445.68 91.7h-46.65V45.03h46.65Zm-43.47-3.19h40.3V48.22h-40.3Z"/><path fill="#fff" d="M444.1 46.63h43.46V90.1H444.1Z"/><path d="M489.15 91.7H442.5V45.03h46.65Zm-43.47-3.19h40.3V48.22h-40.3Z"/><path fill="#fff" d="M487.56 46.63h43.47V90.1h-43.47Z"/><path d="M532.63 91.7h-46.66V45.03h46.65Zm-43.48-3.19h40.3V48.22h-40.3Z"/><path fill="#fff" d="M531.03 46.63h43.48V90.1h-43.48Z"/><path d="M576.1 91.7h-46.65V45.03h46.65Zm-43.48-3.19h40.3V48.22h-40.3Z"/><path fill="#fff" d="M574.5 46.63h43.48V90.1H574.5Z"/><path d="M619.57 91.7h-46.65V45.03h46.65Zm-43.47-3.2h40.29V48.22h-40.3Z"/><path fill="#fff" d="M617.98 46.63h43.47V90.1h-43.47Z"/><path d="M663.04 91.7h-46.65V45.03h46.65Zm-43.47-3.19h40.29V48.22h-40.3Z"/><path fill="#fff" d="M661.45 46.63h43.47V90.1h-43.47Z"/><path d="M706.51 91.7h-46.65V45.03h46.65Zm-43.47-3.19h40.29V48.22h-40.3Z"/><path fill="#fff" d="M704.92 46.63h43.47V90.1h-43.47Z"/><path d="M749.98 91.7h-46.65V45.03h46.65Zm-43.47-3.19h40.3V48.22h-40.3Z"/><path fill="#fff" d="M748.4 46.63h43.47V90.1h-43.48Z"/><path d="M793.45 91.7H746.8V45.03h46.65Zm-43.47-3.19h40.3V48.22h-40.3Z"/><path fill="#fff" d="M357.15 90.1h43.47v43.47h-43.47Z"/><path d="M402.21 135.16h-46.65V88.51h46.65Zm-43.47-3.18h40.29V91.7h-40.3Z"/><path fill="#fff" d="M400.62 90.1h43.47v43.47h-43.47Z"/><path d="M445.68 135.16h-46.65V88.51h46.65Zm-43.47-3.18h40.3V91.7h-40.3Z"/><path fill="#fff" d="M444.1 90.1h43.46v43.47H444.1Z"/><path d="M489.15 135.16H442.5V88.51h46.65Zm-43.47-3.18h40.3V91.7h-40.3Z"/><path fill="#fff" d="M487.56 90.1h43.47v43.47h-43.47Z"/><path d="M532.63 135.16h-46.66V88.51h46.65Zm-43.48-3.18h40.3V91.7h-40.3Z"/><path fill="#fff" d="M531.03 90.1h43.48v43.47h-43.48Z"/><path d="M576.1 135.16h-46.65V88.51h46.65Zm-43.48-3.18h40.3V91.7h-40.3Z"/><path fill="#fff" d="M574.5 90.1h43.48v43.47H574.5Z"/><path d="M619.57 135.16h-46.65V88.51h46.65Zm-43.47-3.18h40.29V91.7h-40.3Z"/><path fill="#fff" d="M617.98 90.1h43.47v43.47h-43.47Z"/><path d="M663.04 135.16h-46.65V88.51h46.65Zm-43.47-3.18h40.29V91.7h-40.3Z"/><path fill="#fff" d="M661.45 90.1h43.47v43.47h-43.47Z"/><path d="M706.51 135.16h-46.65V88.51h46.65Zm-43.47-3.18h40.29V91.7h-40.3Z"/><path fill="#fff" d="M704.92 90.1h43.47v43.47h-43.47Z"/><path d="M749.98 135.16h-46.65V88.51h46.65Zm-43.47-3.18h40.3V91.7h-40.3Z"/><path fill="#fff" d="M748.4 90.1h43.47v43.47h-43.48Z"/><path d="M793.45 135.16H746.8V88.51h46.65Zm-43.47-3.18h40.3V91.7h-40.3Z"/><path fill="#fff" d="M357.15 133.57h43.47v43.47h-43.47Z"/><path d="M402.21 178.63h-46.65v-46.65h46.65Zm-43.47-3.18h40.29v-40.29h-40.3Z"/><path fill="#fff" d="M400.62 133.57h43.47v43.47h-43.47Z"/><path d="M445.68 178.63h-46.65v-46.65h46.65Zm-43.47-3.18h40.3v-40.29h-40.3Z"/><path fill="#fff" d="M444.1 133.57h43.46v43.47H444.1Z"/><path d="M489.15 178.63H442.5v-46.65h46.65Zm-43.47-3.18h40.3v-40.29h-40.3Z"/><path fill="#fff" d="M487.56 133.57h43.47v43.47h-43.47Z"/><path d="M532.63 178.63h-46.66v-46.65h46.65Zm-43.48-3.18h40.3v-40.29h-40.3Z"/><path fill="#fff" d="M531.03 133.57h43.48v43.47h-43.48Z"/><path d="M576.1 178.63h-46.65v-46.65h46.65Zm-43.48-3.18h40.3v-40.29h-40.3Z"/><path fill="#fff" d="M574.5 133.57h43.48v43.47H574.5Z"/><path d="M619.57 178.63h-46.65v-46.65h46.65Zm-43.47-3.18h40.29v-40.29h-40.3Z"/><path fill="#fff" d="M617.98 133.57h43.47v43.47h-43.47Z"/><path d="M663.04 178.63h-46.65v-46.65h46.65Zm-43.47-3.18h40.29v-40.29h-40.3Z"/><path fill="#fff" d="M661.45 133.57h43.47v43.47h-43.47Z"/><path d="M706.51 178.63h-46.65v-46.65h46.65Zm-43.47-3.18h40.29v-40.29h-40.3Z"/><path fill="#fff" d="M704.92 133.57h43.47v43.47h-43.47Z"/><path d="M749.98 178.63h-46.65v-46.65h46.65Zm-43.47-3.18h40.3v-40.29h-40.3Z"/><path fill="#fff" d="M748.4 133.57h43.47v43.47h-43.48Z"/><path d="M793.45 178.63H746.8v-46.65h46.65Zm-43.47-3.18h40.3v-40.29h-40.3Z"/><path fill="#fff" d="M357.15 177.04h43.47v43.47h-43.47Z"/><path d="M402.21 222.1h-46.65v-46.65h46.65Zm-43.47-3.17h40.29v-40.3h-40.3Z"/><path fill="#fff" d="M400.62 177.04h43.47v43.47h-43.47Z"/><path d="M445.68 222.1h-46.65v-46.65h46.65Zm-43.47-3.17h40.3v-40.3h-40.3Z"/><path fill="#fff" d="M444.1 177.04h43.46v43.47H444.1Z"/><path d="M489.15 222.1H442.5v-46.65h46.65Zm-43.47-3.17h40.3v-40.3h-40.3Z"/><path fill="#fff" d="M487.56 177.04h43.47v43.47h-43.47Z"/><path d="M532.63 222.1h-46.66v-46.65h46.65Zm-43.48-3.17h40.3v-40.3h-40.3Z"/><path fill="#fff" d="M531.03 177.04h43.48v43.47h-43.48Z"/><path d="M576.1 222.1h-46.65v-46.65h46.65Zm-43.48-3.17h40.3v-40.3h-40.3Z"/><path fill="#fff" d="M574.5 177.04h43.48v43.47H574.5Z"/><path d="M619.57 222.1h-46.65v-46.65h46.65Zm-43.47-3.17h40.29v-40.3h-40.3Z"/><path fill="#fff" d="M617.98 177.04h43.47v43.47h-43.47Z"/><path d="M663.04 222.1h-46.65v-46.65h46.65Zm-43.47-3.17h40.29v-40.3h-40.3Z"/><path fill="#fff" d="M661.45 177.04h43.47v43.47h-43.47Z"/><path d="M706.51 222.1h-46.65v-46.65h46.65Zm-43.47-3.17h40.29v-40.3h-40.3Z"/><path fill="#fff" d="M704.92 177.04h43.47v43.47h-43.47Z"/><path d="M749.98 222.1h-46.65v-46.65h46.65Zm-43.47-3.17h40.3v-40.3h-40.3Z"/><path fill="#fff" d="M748.4 177.04h43.47v43.47h-43.48Z"/><path d="M793.45 222.1H746.8v-46.65h46.65Zm-43.47-3.17h40.3v-40.3h-40.3Z"/><path fill="#fff" d="M357.15 220.52h43.47v43.47h-43.47Z"/><path d="M402.21 265.58h-46.65v-46.65h46.65Zm-43.47-3.18h40.29v-40.3h-40.3Z"/><path fill="#fff" d="M400.62 220.52h43.47v43.47h-43.47Z"/><path d="M445.68 265.58h-46.65v-46.65h46.65Zm-43.47-3.18h40.3v-40.3h-40.3Z"/><path fill="#fff" d="M444.1 220.52h43.46v43.47H444.1Z"/><path d="M489.15 265.58H442.5v-46.65h46.65Zm-43.47-3.18h40.3v-40.3h-40.3Z"/><path fill="#fff" d="M487.56 220.52h43.47v43.47h-43.47Z"/><path d="M532.63 265.58h-46.66v-46.65h46.65Zm-43.48-3.18h40.3v-40.3h-40.3Z"/><path fill="#fff" d="M531.03 220.52h43.48v43.47h-43.48Z"/><path d="M576.1 265.58h-46.65v-46.65h46.65Zm-43.48-3.18h40.3v-40.3h-40.3Z"/><path fill="#fff" d="M574.5 220.52h43.48v43.47H574.5Z"/><path d="M619.57 265.58h-46.65v-46.65h46.65Zm-43.47-3.18h40.29v-40.3h-40.3Z"/><path fill="#fff" d="M617.98 220.52h43.47v43.47h-43.47Z"/><path d="M663.04 265.58h-46.65v-46.65h46.65Zm-43.47-3.18h40.29v-40.3h-40.3Z"/><path fill="#fff" d="M661.45 220.52h43.47v43.47h-43.47Z"/><path d="M706.51 265.58h-46.65v-46.65h46.65Zm-43.47-3.18h40.29v-40.3h-40.3Z"/><path fill="#fff" d="M704.92 220.52h43.47v43.47h-43.47Z"/><path d="M749.98 265.58h-46.65v-46.65h46.65Zm-43.47-3.18h40.3v-40.3h-40.3Z"/><path fill="#fff" d="M748.4 220.52h43.47v43.47h-43.48Z"/><path d="M793.45 265.58H746.8v-46.65h46.65Zm-43.47-3.18h40.3v-40.3h-40.3Z"/><path fill="#fff" d="M357.15 263.99h43.47v43.47h-43.47Z"/><path d="M402.21 309.05h-46.65V262.4h46.65Zm-43.47-3.18h40.29v-40.3h-40.3Z"/><path fill="#fff" d="M400.62 263.99h43.47v43.47h-43.47Z"/><path d="M445.68 309.05h-46.65V262.4h46.65Zm-43.47-3.18h40.3v-40.3h-40.3Z"/><path fill="#fff" d="M444.1 263.99h43.46v43.47H444.1Z"/><path d="M489.15 309.05H442.5V262.4h46.65Zm-43.47-3.18h40.3v-40.3h-40.3Z"/><path fill="#fff" d="M487.56 263.99h43.47v43.47h-43.47Z"/><path d="M532.63 309.05h-46.66V262.4h46.65Zm-43.48-3.18h40.3v-40.3h-40.3Z"/><path fill="#fff" d="M531.03 263.99h43.48v43.47h-43.48Z"/><path d="M576.1 309.05h-46.65V262.4h46.65Zm-43.48-3.18h40.3v-40.3h-40.3Z"/><path fill="#fff" d="M574.5 263.99h43.48v43.47H574.5Z"/><path d="M619.57 309.05h-46.65V262.4h46.65Zm-43.47-3.18h40.29v-40.3h-40.3Z"/><path fill="#fff" d="M617.98 263.99h43.47v43.47h-43.47Z"/><path d="M663.04 309.05h-46.65V262.4h46.65Zm-43.47-3.18h40.29v-40.3h-40.3Z"/><path fill="#fff" d="M661.45 263.99h43.47v43.47h-43.47Z"/><path d="M706.51 309.05h-46.65V262.4h46.65Zm-43.47-3.18h40.29v-40.3h-40.3Z"/><path fill="#fff" d="M704.92 263.99h43.47v43.47h-43.47Z"/><path d="M749.98 309.05h-46.65V262.4h46.65Zm-43.47-3.18h40.3v-40.3h-40.3Z"/><path fill="#fff" d="M748.4 263.99h43.47v43.47h-43.48Z"/><path d="M793.45 309.05H746.8V262.4h46.65Zm-43.47-3.18h40.3v-40.3h-40.3Z"/><path fill="#fff" d="M357.15 307.46h43.47v43.47h-43.47Z"/><path d="M402.21 352.52h-46.65v-46.65h46.65Zm-43.47-3.18h40.29v-40.3h-40.3Z"/><path fill="#fff" d="M400.62 307.46h43.47v43.47h-43.47Z"/><path d="M445.68 352.52h-46.65v-46.65h46.65Zm-43.47-3.18h40.3v-40.3h-40.3Z"/><path fill="#fff" d="M444.1 307.46h43.46v43.47H444.1Z"/><path d="M489.15 352.52H442.5v-46.65h46.65Zm-43.47-3.18h40.3v-40.3h-40.3Z"/><path fill="#fff" d="M487.56 307.46h43.47v43.47h-43.47Z"/><path d="M532.63 352.52h-46.66v-46.65h46.65Zm-43.48-3.18h40.3v-40.3h-40.3Z"/><path fill="#fff" d="M531.03 307.46h43.48v43.47h-43.48Z"/><path d="M576.1 352.52h-46.65v-46.65h46.65Zm-43.48-3.18h40.3v-40.3h-40.3Z"/><path fill="#fff" d="M574.5 307.46h43.48v43.47H574.5Z"/><path d="M619.57 352.52h-46.65v-46.65h46.65Zm-43.47-3.18h40.29v-40.3h-40.3Z"/><path fill="#fff" d="M617.98 307.46h43.47v43.47h-43.47Z"/><path d="M663.04 352.52h-46.65v-46.65h46.65Zm-43.47-3.18h40.29v-40.3h-40.3Z"/><path fill="#fff" d="M661.45 307.46h43.47v43.47h-43.47Z"/><path d="M706.51 352.52h-46.65v-46.65h46.65Zm-43.47-3.18h40.29v-40.3h-40.3Z"/><path fill="#fff" d="M704.92 307.46h43.47v43.47h-43.47Z"/><path d="M749.98 352.52h-46.65v-46.65h46.65Zm-43.47-3.18h40.3v-40.3h-40.3Z"/><path fill="#fff" d="M748.4 307.46h43.47v43.47h-43.48Z"/><path d="M793.45 352.52H746.8v-46.65h46.65Zm-43.47-3.18h40.3v-40.3h-40.3Z"/><path fill="#fff" d="M357.15 350.93h43.47v43.47h-43.47Z"/><path d="M402.21 395.99h-46.65v-46.65h46.65Zm-43.47-3.18h40.29v-40.3h-40.3Z"/><path fill="#fff" d="M400.62 350.93h43.47v43.47h-43.47Z"/><path d="M445.68 395.99h-46.65v-46.65h46.65Zm-43.47-3.18h40.3v-40.3h-40.3Z"/><path fill="#fff" d="M444.1 350.93h43.46v43.47H444.1Z"/><path d="M489.15 395.99H442.5v-46.65h46.65Zm-43.47-3.18h40.3v-40.3h-40.3Z"/><path fill="#fff" d="M487.56 350.93h43.47v43.47h-43.47Z"/><path d="M532.63 395.99h-46.66v-46.65h46.65Zm-43.48-3.18h40.3v-40.3h-40.3Z"/><path fill="#fff" d="M531.03 350.93h43.48v43.47h-43.48Z"/><path d="M576.1 395.99h-46.65v-46.65h46.65Zm-43.48-3.18h40.3v-40.3h-40.3Z"/><path fill="#fff" d="M574.5 350.93h43.48v43.47H574.5Z"/><path d="M619.57 395.99h-46.65v-46.65h46.65Zm-43.47-3.18h40.29v-40.3h-40.3Z"/><path fill="#fff" d="M617.98 350.93h43.47v43.47h-43.47Z"/><path d="M663.04 395.99h-46.65v-46.65h46.65Zm-43.47-3.18h40.29v-40.3h-40.3Z"/><path fill="#2e9aff" d="M661.45 350.93h43.47v43.47h-43.47Z"/><path d="M706.51 395.99h-46.65v-46.65h46.65Zm-43.47-3.18h40.29v-40.3h-40.3Z"/><path fill="#2e9aff" d="M704.92 350.93h43.47v43.47h-43.47Z"/><path d="M749.98 395.99h-46.65v-46.65h46.65Zm-43.47-3.18h40.3v-40.3h-40.3Z"/><path fill="#fff" d="M748.4 350.93h43.47v43.47h-43.48Z"/><path d="M793.45 395.99H746.8v-46.65h46.65Zm-43.47-3.18h40.3v-40.3h-40.3Z"/><path fill="#fff" d="M357.15 394.4h43.47v43.47h-43.47Z"/><path d="M402.21 439.46h-46.65v-46.65h46.65Zm-43.47-3.18h40.29v-40.29h-40.3Z"/><path fill="#2e9aff" d="M400.62 394.4h43.47v43.47h-43.47Z"/><path d="M445.68 439.46h-46.65v-46.65h46.65Zm-43.47-3.18h40.3v-40.29h-40.3Z"/><path fill="#2e9aff" d="M444.1 394.4h43.46v43.47H444.1Z"/><path d="M489.15 439.46H442.5v-46.65h46.65Zm-43.47-3.18h40.3v-40.29h-40.3Z"/><path fill="#fff" d="M487.56 394.4h43.47v43.47h-43.47Z"/><path d="M532.63 439.46h-46.66v-46.65h46.65Zm-43.48-3.18h40.3v-40.29h-40.3Z"/><path fill="#fff" d="M531.03 394.4h43.48v43.47h-43.48Z"/><path d="M576.1 439.46h-46.65v-46.65h46.65Zm-43.48-3.18h40.3v-40.29h-40.3Z"/><path fill="#fff" d="M574.5 394.4h43.48v43.47H574.5Z"/><path d="M619.57 439.46h-46.65v-46.65h46.65Zm-43.47-3.18h40.29v-40.29h-40.3Z"/><path fill="#fff" d="M617.98 394.4h43.47v43.47h-43.47Z"/><path d="M663.04 439.46h-46.65v-46.65h46.65Zm-43.47-3.18h40.29v-40.29h-40.3Z"/><path fill="#fff" d="M661.45 394.4h43.47v43.47h-43.47Z"/><path d="M706.51 439.46h-46.65v-46.65h46.65Zm-43.47-3.18h40.29v-40.29h-40.3Z"/><path fill="#2e9aff" d="M704.92 394.4h43.47v43.47h-43.47Z"/><path d="M749.98 439.46h-46.65v-46.65h46.65Zm-43.47-3.18h40.3v-40.29h-40.3Z"/><path fill="#2e9aff" d="M748.4 394.4h43.47v43.47h-43.48Z"/><path d="M793.45 439.46H746.8v-46.65h46.65Zm-43.47-3.18h40.3v-40.29h-40.3Z"/><g><path fill="#fff" d="M357.15 437.87h43.47v43.47h-43.47Z"/><path d="M402.21 482.93h-46.65v-46.65h46.65Zm-43.47-3.18h40.29v-40.29h-40.3Z"/><path fill="#fff" d="M400.62 437.87h43.47v43.47h-43.47Z"/><path d="M445.68 482.93h-46.65v-46.65h46.65Zm-43.47-3.18h40.3v-40.29h-40.3Z"/><path fill="#2e9aff" d="M444.1 437.87h43.46v43.47H444.1Z"/><path d="M489.15 482.93H442.5v-46.65h46.65Zm-43.47-3.18h40.3v-40.29h-40.3Z"/><path fill="#fff" d="M487.56 437.87h43.47v43.47h-43.47Z"/><path d="M532.63 482.93h-46.66v-46.65h46.65Zm-43.48-3.18h40.3v-40.29h-40.3Z"/><path fill="#fff" d="M531.03 437.87h43.48v43.47h-43.48Z"/><path d="M576.1 482.93h-46.65v-46.65h46.65Zm-43.48-3.18h40.3v-40.29h-40.3Z"/><path fill="#fff" d="M574.5 437.87h43.48v43.47H574.5Z"/><path d="M619.57 482.93h-46.65v-46.65h46.65Zm-43.47-3.18h40.29v-40.29h-40.3Z"/><path fill="#fff" d="M617.98 437.87h43.47v43.47h-43.47Z"/><path d="M663.04 482.93h-46.65v-46.65h46.65Zm-43.47-3.18h40.29v-40.29h-40.3Z"/><path fill="#fff" d="M661.45 437.87h43.47v43.47h-43.47Z"/><path d="M706.51 482.93h-46.65v-46.65h46.65Zm-43.47-3.18h40.29v-40.29h-40.3Z"/><path fill="#fff" d="M704.92 437.87h43.47v43.47h-43.47Z"/><path d="M749.98 482.93h-46.65v-46.65h46.65Zm-43.47-3.18h40.3v-40.29h-40.3Z"/><path fill="#fff" d="M748.4 437.87h43.47v43.47h-43.48Z"/><path d="M793.45 482.93H746.8v-46.65h46.65Zm-43.47-3.18h40.3v-40.29h-40.3Z"/></g><g><path fill="#fff" d="M357.15 481.34h43.47v43.47h-43.47Z"/><path d="M402.21 526.4h-46.65v-46.65h46.65Zm-43.47-3.18h40.29v-40.29h-40.3Z"/><path fill="#fff" d="M400.62 481.34h43.47v43.47h-43.47Z"/><path d="M445.68 526.4h-46.65v-46.65h46.65Zm-43.47-3.18h40.3v-40.29h-40.3Z"/><path fill="#2e9aff" d="M444.1 481.34h43.46v43.47H444.1Z"/><path d="M489.15 526.4H442.5v-46.65h46.65Zm-43.47-3.18h40.3v-40.29h-40.3Z"/><path fill="#fff" d="M487.56 481.34h43.47v43.47h-43.47Z"/><path d="M532.63 526.4h-46.66v-46.65h46.65Zm-43.48-3.18h40.3v-40.29h-40.3Z"/><path fill="#fff" d="M531.03 481.34h43.48v43.47h-43.48Z"/><path d="M576.1 526.4h-46.65v-46.65h46.65Zm-43.48-3.18h40.3v-40.29h-40.3Z"/><path fill="#fff" d="M574.5 481.34h43.48v43.47H574.5Z"/><path d="M619.57 526.4h-46.65v-46.65h46.65Zm-43.47-3.18h40.29v-40.29h-40.3Z"/><path fill="#2e9aff" d="M617.98 481.34h43.47v43.47h-43.47Z"/><path d="M663.04 526.4h-46.65v-46.65h46.65Zm-43.47-3.18h40.29v-40.29h-40.3Z"/><path fill="#fff" d="M661.45 481.34h43.47v43.47h-43.47Z"/><path d="M706.51 526.4h-46.65v-46.65h46.65Zm-43.47-3.18h40.29v-40.29h-40.3Z"/><path fill="#fff" d="M704.92 481.34h43.47v43.47h-43.47Z"/><path d="M749.98 526.4h-46.65v-46.65h46.65Zm-43.47-3.18h40.3v-40.29h-40.3Z"/><path fill="#fff" d="M748.4 481.34h43.47v43.47h-43.48Z"/><path d="M793.45 526.4H746.8v-46.65h46.65Zm-43.47-3.18h40.3v-40.29h-40.3Z"/></g><g><path fill="#2e9aff" d="M357.15 524.81h43.47v43.47h-43.47Z"/><path d="M402.21 569.87h-46.65v-46.65h46.65Zm-43.47-3.18h40.29V526.4h-40.3Z"/><path fill="#fff" d="M400.62 524.81h43.47v43.47h-43.47Z"/><path d="M445.68 569.87h-46.65v-46.65h46.65Zm-43.47-3.18h40.3V526.4h-40.3Z"/><path fill="#2e9aff" d="M444.1 524.81h43.46v43.47H444.1Z"/><path d="M489.15 569.87H442.5v-46.65h46.65Zm-43.47-3.18h40.3V526.4h-40.3Z"/><path fill="#2e9aff" d="M487.56 524.81h43.47v43.47h-43.47Z"/><path d="M532.63 569.87h-46.66v-46.65h46.65Zm-43.48-3.18h40.3V526.4h-40.3Z"/><path fill="#2e9aff" d="M531.03 524.81h43.48v43.47h-43.48Z"/><path d="M576.1 569.87h-46.65v-46.65h46.65Zm-43.48-3.18h40.3V526.4h-40.3Z"/><path fill="#2e9aff" d="M574.5 524.81h43.48v43.47H574.5Z"/><path d="M619.57 569.87h-46.65v-46.65h46.65Zm-43.47-3.18h40.29V526.4h-40.3Z"/><path fill="#2e9aff" d="M617.98 524.81h43.47v43.47h-43.47Z"/><path d="M663.04 569.87h-46.65v-46.65h46.65Zm-43.47-3.18h40.29V526.4h-40.3Z"/><path fill="#2e9aff" d="M661.45 524.81h43.47v43.47h-43.47Z"/><path d="M706.51 569.87h-46.65v-46.65h46.65Zm-43.47-3.18h40.29V526.4h-40.3Z"/><path fill="#2e9aff" d="M704.92 524.81h43.47v43.47h-43.47Z"/><path d="M749.98 569.87h-46.65v-46.65h46.65Zm-43.47-3.18h40.3V526.4h-40.3Z"/><path fill="#2e9aff" d="M748.4 524.81h43.47v43.47h-43.48Z"/><path d="M793.45 569.87H746.8v-46.65h46.65Zm-43.47-3.18h40.3V526.4h-40.3Z"/></g><g><path fill="#2e9aff" d="M357.15 568.28h43.47v43.47h-43.47Z"/><path d="M402.21 613.35h-46.65v-46.66h46.65Zm-43.47-3.19h40.29v-40.29h-40.3Z"/><path fill="#2e9aff" d="M400.62 568.28h43.47v43.47h-43.47Z"/><path d="M445.68 613.35h-46.65v-46.66h46.65Zm-43.47-3.19h40.3v-40.29h-40.3Z"/><path fill="#2e9aff" d="M444.1 568.28h43.46v43.47H444.1Z"/><path d="M489.15 613.35H442.5v-46.66h46.65Zm-43.47-3.19h40.3v-40.29h-40.3Z"/><path fill="#2e9aff" d="M487.56 568.28h43.47v43.47h-43.47Z"/><path d="M532.63 613.35h-46.66v-46.66h46.65Zm-43.48-3.19h40.3v-40.29h-40.3Z"/><path fill="#2e9aff" d="M531.03 568.28h43.48v43.47h-43.48Z"/><path d="M576.1 613.35h-46.65v-46.66h46.65Zm-43.48-3.19h40.3v-40.29h-40.3Z"/><path fill="#2e9aff" d="M574.5 568.28h43.48v43.47H574.5Z"/><path d="M619.57 613.35h-46.65v-46.66h46.65Zm-43.47-3.19h40.29v-40.29h-40.3Z"/><path fill="#2e9aff" d="M617.98 568.28h43.47v43.47h-43.47Z"/><path d="M663.04 613.35h-46.65v-46.66h46.65Zm-43.47-3.19h40.29v-40.29h-40.3Z"/><path fill="#2e9aff" d="M661.45 568.28h43.47v43.47h-43.47Z"/><path d="M706.51 613.35h-46.65v-46.66h46.65Zm-43.47-3.19h40.29v-40.29h-40.3Z"/><path fill="#2e9aff" d="M704.92 568.28h43.47v43.47h-43.47Z"/><path d="M749.98 613.35h-46.65v-46.66h46.65Zm-43.47-3.19h40.3v-40.29h-40.3Z"/><path fill="#fff" d="M748.4 568.28h43.47v43.47h-43.48Z"/><path d="M793.45 613.35H746.8v-46.66h46.65Zm-43.47-3.19h40.3v-40.29h-40.3Z"/></g><g><path fill="#2e9aff" d="M357.15 611.75h43.47v43.48h-43.47Z"/><path d="M402.21 656.82h-46.65v-46.66h46.65Zm-43.47-3.19h40.29v-40.28h-40.3Z"/><path fill="#fff" d="M400.62 611.75h43.47v43.48h-43.47Z"/><path d="M445.68 656.82h-46.65v-46.66h46.65Zm-43.47-3.19h40.3v-40.28h-40.3Z"/><path fill="#2e9aff" d="M444.1 611.75h43.46v43.48H444.1Z"/><path d="M489.15 656.82H442.5v-46.66h46.65Zm-43.47-3.19h40.3v-40.28h-40.3Z"/><path fill="#2e9aff" d="M487.56 611.75h43.47v43.48h-43.47Z"/><path d="M532.63 656.82h-46.66v-46.66h46.65Zm-43.48-3.19h40.3v-40.28h-40.3Z"/><path fill="#2e9aff" d="M531.03 611.75h43.48v43.48h-43.48Z"/><path d="M576.1 656.82h-46.65v-46.66h46.65Zm-43.48-3.19h40.3v-40.28h-40.3Z"/><path fill="#2e9aff" d="M574.5 611.75h43.48v43.48H574.5Z"/><path d="M619.57 656.82h-46.65v-46.66h46.65Zm-43.47-3.19h40.29v-40.28h-40.3Z"/><path fill="#2e9aff" d="M617.98 611.75h43.47v43.48h-43.47Z"/><path d="M663.04 656.82h-46.65v-46.66h46.65Zm-43.47-3.19h40.29v-40.28h-40.3Z"/><path fill="#2e9aff" d="M661.45 611.75h43.47v43.48h-43.47Z"/><path d="M706.51 656.82h-46.65v-46.66h46.65Zm-43.47-3.19h40.29v-40.28h-40.3Z"/><path fill="#2e9aff" d="M704.92 611.75h43.47v43.48h-43.47Z"/><path d="M749.98 656.82h-46.65v-46.66h46.65Zm-43.47-3.19h40.3v-40.28h-40.3Z"/><path fill="#2e9aff" d="M748.4 611.75h43.47v43.48h-43.48Z"/><path d="M793.45 656.82H746.8v-46.66h46.65Zm-43.47-3.19h40.3v-40.28h-40.3Z"/></g><g><path fill="#2e9aff" d="M531.03 90.1h43.48v43.47h-43.48Z"/><path d="M576.1 135.16h-46.65V88.51h46.65Zm-43.48-3.18h40.3V91.7h-40.3Z"/></g><g><path fill="#2e9aff" d="M574.5 90.1h43.48v43.47H574.5Z"/><path d="M619.57 135.16h-46.65V88.51h46.65Zm-43.47-3.18h40.29V91.7h-40.3Z"/></g><g><path fill="#2e9aff" d="M531.03 133.57h43.48v43.47h-43.48Z"/><path d="M576.1 178.63h-46.65v-46.65h46.65Zm-43.48-3.18h40.3v-40.29h-40.3Z"/></g><g><path fill="#2e9aff" d="M574.5 133.57h43.48v43.47H574.5Z"/><path d="M619.57 178.63h-46.65v-46.65h46.65Zm-43.47-3.18h40.29v-40.29h-40.3Z"/></g><g><path d="M250.83 118.96c0 57.13-46.3 103.44-103.43 103.44-57.13 0-103.44-46.31-103.44-103.44 0-57.13 46.3-103.44 103.44-103.44 57.12 0 103.43 46.31 103.43 103.44Z"/><path fill="#2e9aff" d="M226.98 107.03c0 57.12-46.3 103.43-103.43 103.43-57.13 0-103.44-46.3-103.44-103.43C20.1 49.9 66.4 3.59 123.55 3.59c57.12 0 103.43 46.3 103.43 103.44Z"/><path d="M123.55 212.33c-58.07 0-105.3-47.24-105.3-105.3 0-58.07 47.23-105.3 105.3-105.3 58.06 0 105.3 47.23 105.3 105.3 0 58.06-47.24 105.3-105.3 105.3Zm0-206.87c-56 0-101.57 45.56-101.57 101.57 0 56 45.56 101.56 101.57 101.56 56 0 101.56-45.56 101.56-101.56S179.55 5.46 123.55 5.46Z"/><path fill="#fff" d="M184.03 93.33c-.84 0-1.66.05-2.47.14a62.72 62.72 0 0 0-120.45 0 21.77 21.77 0 1 0 2.84 42.74 62.7 62.7 0 0 0 114.77 0 21.77 21.77 0 1 0 5.3-42.88Z"/><path d="M121.34 175.5a64.62 64.62 0 0 1-58.46-37.15A23.66 23.66 0 0 1 35 115.1a23.66 23.66 0 0 1 24.75-23.6 64.88 64.88 0 0 1 61.58-45.12A64.87 64.87 0 0 1 182.9 91.5a23.63 23.63 0 1 1-3.11 46.86 64.62 64.62 0 0 1-58.46 37.15ZM65.03 134l.63 1.45a60.88 60.88 0 0 0 55.68 36.3 60.89 60.89 0 0 0 55.67-36.3l.64-1.45 1.53.39a19.92 19.92 0 0 0 24.75-19.3 19.92 19.92 0 0 0-22.16-19.77l-1.56.17-.44-1.51a61.1 61.1 0 0 0-58.43-43.88A61.1 61.1 0 0 0 62.9 93.99l-.44 1.51-1.56-.17a19.92 19.92 0 0 0-22.16 19.77 19.92 19.92 0 0 0 24.75 19.3Z"/><path fill="none" d="m47.62 109.34 13.35 14.5"/><path d="M60.97 125.72c-.5 0-1.01-.2-1.38-.6L46.24 110.6a1.87 1.87 0 0 1 2.75-2.53l13.35 14.51a1.87 1.87 0 0 1-1.37 3.14Z"/><path fill="none" d="m192.46 109.34-13.35 14.5"/><path d="M179.1 125.72a1.86 1.86 0 0 1-1.37-3.14l13.35-14.5a1.87 1.87 0 1 1 2.75 2.52l-13.35 14.51c-.37.4-.87.6-1.37.6Z"/><path fill="none" d="M120.9 117.65v12.04"/><path d="M120.9 131.56a1.87 1.87 0 0 1-1.87-1.87v-12.04a1.87 1.87 0 0 1 3.74 0v12.04c0 1.04-.83 1.87-1.87 1.87Z"/><path fill="#2e9aff" d="M142.1 136.62a21.19 21.19 0 0 1-42.38 0Z"/><path d="M83.48 131.56a1.87 1.87 0 0 1-.83-3.54l18.57-9.16-18.65-10.3a1.87 1.87 0 0 1 1.81-3.28l21.78 12.04a1.87 1.87 0 0 1-.08 3.31l-21.77 10.74c-.27.13-.55.2-.83.2Zm74.8 0c-.27 0-.56-.06-.82-.19l-21.78-10.74a1.87 1.87 0 0 1-.08-3.3l21.78-12.05a1.87 1.87 0 1 1 1.81 3.28l-18.65 10.3 18.57 9.16a1.87 1.87 0 0 1-.83 3.54Z"/></g><g><path d="M526.03 809h288.4v111.65h-288.4Z"/><path fill="#fff" d="M503.7 804.01h288.4v94.1H503.7Z"/><path d="M793.69 899.7H502.1v-97.28h291.57v97.29Zm-288.4-3.17H790.5V805.6H505.3Z"/><path d="M532.77 838.29h3.58v3.23l.2.06a9.39 9.39 0 0 0 3.55.75c1.22 0 2.16-.24 2.84-.73a2.32 2.32 0 0 0 1.01-1.97c0-.74-.28-1.34-.83-1.8a8.4 8.4 0 0 0-2.06-1.2c-.81-.35-1.7-.7-2.67-1.05-.97-.34-1.86-.78-2.67-1.32a7.37 7.37 0 0 1-2.06-2 5.4 5.4 0 0 1-.83-3.13 6.25 6.25 0 0 1 2.17-4.8 7.4 7.4 0 0 1 2.46-1.36 9.86 9.86 0 0 1 3.2-.5c1.32 0 2.62.13 3.9.37 1.29.24 2.31.56 3.07.97v6.62h-3.59v-3.62a4.27 4.27 0 0 0-5.85.16c-.6.42-.9.97-.9 1.67 0 .72.28 1.3.84 1.76.55.46 1.24.87 2.05 1.24.82.37 1.7.74 2.68 1.1.96.38 1.85.83 2.67 1.36a7.4 7.4 0 0 1 2.05 2c.56.81.83 1.82.83 3.04a6.27 6.27 0 0 1-2.48 5.3 8 8 0 0 1-2.76 1.33c-1.06.3-2.22.44-3.46.44a12.61 12.61 0 0 1-4.25-.68 13.01 13.01 0 0 1-2.7-1.18v-6.06Zm35.24 5.9a9.32 9.32 0 0 1-3.13 1.52c-1.2.33-2.44.5-3.75.5-1.41 0-2.67-.2-3.76-.62-1.1-.4-2.03-1-2.78-1.74a7.4 7.4 0 0 1-1.7-2.72 9.97 9.97 0 0 1-.6-3.52c0-1.37.24-2.6.7-3.66a7.7 7.7 0 0 1 4.78-4.38c1.11-.38 2.32-.57 3.62-.57 1.22 0 2.36.14 3.43.42 1.06.29 1.88.56 2.44.82v5.73h-3.59v-3a9.23 9.23 0 0 0-2.02-.22c-.6 0-1.2.09-1.8.27a4.44 4.44 0 0 0-2.75 2.4 5 5 0 0 0-.44 2.19c0 .69.12 1.33.36 1.92a4.52 4.52 0 0 0 2.62 2.56 5.9 5.9 0 0 0 2.14.37 7.6 7.6 0 0 0 3.05-.52c.8-.35 1.39-.65 1.78-.91Zm2.9-6.59c0-1.36.2-2.58.62-3.65a7.47 7.47 0 0 1 4.49-4.38c1.05-.38 2.23-.57 3.53-.57 1.37 0 2.6.2 3.67.62a7.6 7.6 0 0 1 2.73 1.74c.73.75 1.3 1.66 1.67 2.73.38 1.06.57 2.23.57 3.52a9.9 9.9 0 0 1-.62 3.65 7.5 7.5 0 0 1-1.76 2.7 7.5 7.5 0 0 1-2.72 1.68 10.4 10.4 0 0 1-3.54.57c-1.37 0-2.59-.2-3.66-.62a7.29 7.29 0 0 1-4.4-4.47 10.43 10.43 0 0 1-.58-3.52Zm4.37 0c0 .72.1 1.39.3 2 .19.6.47 1.14.84 1.6a3.82 3.82 0 0 0 3.13 1.43c1.26 0 2.29-.4 3.08-1.2.8-.81 1.2-2.08 1.2-3.82 0-1.5-.38-2.71-1.12-3.64a3.81 3.81 0 0 0-3.16-1.38c-.6 0-1.17.09-1.7.27a3.3 3.3 0 0 0-1.35.9 4.4 4.4 0 0 0-.9 1.56 7 7 0 0 0-.32 2.28Zm15.32 4.57h4.05v-9.13h-4.05v-3.59h7.34l.49 2.15h.13c.6-.71 1.3-1.3 2.09-1.79.78-.48 1.7-.72 2.73-.72 1.31 0 2.34.48 3.09 1.44s1.12 2.55 1.12 4.8h-3.81c0-.79-.12-1.36-.35-1.72-.22-.36-.59-.54-1.09-.54-.87 0-1.57.22-2.1.65a6.9 6.9 0 0 0-1.36 1.5v6.95h7.08v3.58H590.6Zm35.7 1.86a5.7 5.7 0 0 1-1.09.76 11.92 11.92 0 0 1-5.82 1.42c-1.39 0-2.63-.2-3.73-.59a7.47 7.47 0 0 1-2.78-1.7 7.5 7.5 0 0 1-1.75-2.71c-.4-1.06-.6-2.26-.6-3.6 0-1.44.23-2.7.68-3.77a7.5 7.5 0 0 1 4.66-4.3 10.78 10.78 0 0 1 6.02-.22c.88.22 1.69.6 2.43 1.13a6.06 6.06 0 0 1 1.81 2.13c.47.9.7 2.02.7 3.4 0 .93-.1 1.94-.32 3.03h-11.74a3.5 3.5 0 0 0 1.51 2.94c.45.3.96.52 1.54.66.57.14 1.18.21 1.84.21 1.3 0 2.37-.15 3.21-.45a6.97 6.97 0 0 0 2.04-1.11Zm-7.04-11.64c-.56 0-1.1.08-1.6.23-.5.16-.94.38-1.35.68-.4.3-.73.67-1 1.12a3.4 3.4 0 0 0-.45 1.49h8.02a3.6 3.6 0 0 0-.9-2.57c-.6-.64-1.5-.95-2.72-.95Zm-87.37 34.26c0-1.98.2-3.71.62-5.2.41-1.49 1-2.72 1.75-3.7a7.26 7.26 0 0 1 2.7-2.2 8.2 8.2 0 0 1 3.5-.73c2.75 0 4.87.96 6.35 2.88 1.49 1.93 2.23 4.9 2.23 8.95 0 2-.21 3.75-.62 5.23a10.9 10.9 0 0 1-1.75 3.72 7.15 7.15 0 0 1-2.72 2.22 8.29 8.29 0 0 1-3.52.73c-2.77 0-4.89-1.02-6.35-3.05s-2.2-4.98-2.2-8.85Zm4.24 0a25 25 0 0 0 .06 1.83l7.9-7.28c-.65-1.87-1.87-2.8-3.66-2.8-1.38 0-2.44.67-3.19 2-.74 1.34-1.12 3.42-1.12 6.25Zm8.67 0a28.43 28.43 0 0 0-.07-1.92l-7.92 7.27c.67 1.97 1.89 2.96 3.65 2.96 1.38 0 2.45-.66 3.2-1.99.76-1.32 1.14-3.43 1.14-6.32Zm23.21 4.37a7.27 7.27 0 0 1-2.25 5.35 8.2 8.2 0 0 1-5.6 2.18 9.28 9.28 0 0 1-3.18-.54 7.2 7.2 0 0 1-4.36-4.31 10.1 10.1 0 0 1-.65-3.79c0-2.15.38-4.1 1.13-5.86a16.15 16.15 0 0 1 2.88-4.58 15 15 0 0 1 3.94-3.13c1.46-.8 2.9-1.3 4.34-1.52l.95 3.35a12.6 12.6 0 0 0-5.9 2.84c-.79.7-1.44 1.47-1.98 2.32a8.2 8.2 0 0 0-1.1 2.64c.44-.55 1.1-1 1.97-1.39a7.79 7.79 0 0 1 5.6-.1 6.28 6.28 0 0 1 3.67 3.57c.36.87.54 1.86.54 2.97Zm-4.1.16c0-1.17-.36-2.06-1.07-2.67-.7-.6-1.66-.91-2.85-.91a4.7 4.7 0 0 0-3.88 1.95c-.05.24-.07.5-.08.8-.02.3-.02.53-.02.7 0 .52.09 1.02.26 1.5a3.64 3.64 0 0 0 3.65 2.42 4.05 4.05 0 0 0 2.74-1.05c.37-.32.67-.72.9-1.19.23-.47.34-.98.34-1.55Zm7.62-8.77c0-1.1.19-2.13.57-3.06a6.93 6.93 0 0 1 4.08-3.96 8.79 8.79 0 0 1 3.24-.57c1.22 0 2.33.18 3.33.55a6.95 6.95 0 0 1 4.24 4.35c.39 1.08.58 2.31.58 3.7 0 2.53-.32 4.7-.98 6.53a13.46 13.46 0 0 1-2.62 4.56 11.4 11.4 0 0 1-3.83 2.8 15.19 15.19 0 0 1-4.56 1.24l-.92-3.32c1.2-.15 2.28-.45 3.25-.88a9.75 9.75 0 0 0 2.52-1.62 8.41 8.41 0 0 0 1.76-2.18c.46-.82.75-1.7.88-2.63a4.9 4.9 0 0 1-1.76 1.1c-.71.27-1.57.4-2.57.4h-.07a7.9 7.9 0 0 1-2.5-.42 6.79 6.79 0 0 1-4.64-6.59Zm4.11-.23a3.6 3.6 0 0 0 2.53 3.51 5.8 5.8 0 0 0 3.83-.18 3.42 3.42 0 0 0 1.43-1.04c.07-.46.1-.9.1-1.3 0-.62-.08-1.21-.26-1.8a4.89 4.89 0 0 0-.78-1.57 3.83 3.83 0 0 0-3.1-1.5c-1.06 0-1.96.35-2.67 1.03a3.76 3.76 0 0 0-1.08 2.85Zm32.51 9.56h-3.92v6.35h-3.94v-6.35h-9.88v-2.9l10.34-13.73h3.48v13.23h3.92Zm-7.86-10.63-5.67 7.23h5.67Zm9.84 5.54c0-1.98.21-3.71.63-5.2.41-1.49 1-2.72 1.75-3.7a7.26 7.26 0 0 1 2.7-2.2 8.2 8.2 0 0 1 3.5-.73c2.75 0 4.87.96 6.35 2.88 1.48 1.93 2.23 4.9 2.23 8.95 0 2-.21 3.75-.63 5.23a10.9 10.9 0 0 1-1.75 3.72 7.15 7.15 0 0 1-2.71 2.22 8.29 8.29 0 0 1-3.52.73c-2.77 0-4.9-1.02-6.35-3.05-1.47-2.03-2.2-4.98-2.2-8.85Zm4.24 0a25 25 0 0 0 .07 1.83l7.89-7.28c-.65-1.87-1.87-2.8-3.65-2.8-1.38 0-2.44.67-3.19 2-.75 1.34-1.12 3.42-1.12 6.25Zm8.68 0a28.43 28.43 0 0 0-.07-1.92l-7.92 7.27c.66 1.97 1.88 2.96 3.65 2.96 1.38 0 2.45-.66 3.2-1.99.76-1.32 1.14-3.43 1.14-6.32Zm8.86 7.85h5v-14.24l-4.31 3.3-1.96-2.61 7.44-5.68h2.86v19.24h4.9v3.58H631.9Zm130.13 5.58-20.25-9.9-19.64 11.06 3.16-22.33-16.59-15.26 22.21-3.89 9.4-20.5 10.55 19.93 22.4 2.6-15.69 16.19Z"/></g><g><path d="M121.34 50.29c-.11-.6-.22-1.18-.31-1.77a62.76 62.76 0 0 0-60.37 46.73 55.44 55.44 0 0 0 60.68-44.97Zm.31-1.77-.31 1.77a55.44 55.44 0 0 0 60.68 44.97 62.76 62.76 0 0 0-60.37-46.74Zm-.62-.12.3 1.75c.11-.59.23-1.17.31-1.75l-.3-.01h-.31Z"/></g></svg>