<?xml version="1.0" encoding="utf-8"?>
<!-- Generator: Adobe Illustrator 16.0.0, SVG Export Plug-In . SVG Version: 6.00 Build 0)  -->
<!DOCTYPE svg PUBLIC "-//W3C//DTD SVG 1.1//EN" "http://www.w3.org/Graphics/SVG/1.1/DTD/svg11.dtd">
<svg version="1.1" id="Layer_1" xmlns="http://www.w3.org/2000/svg" xmlns:xlink="http://www.w3.org/1999/xlink" x="0px" y="0px"
	 width="1920px" height="1080px" viewBox="0 0 1920 1080" enable-background="new 0 0 1920 1080" xml:space="preserve">
<g>
	<path fill="#58595B" d="M1949.388,1116.436H-29.388V-28.436h1978.775L1949.388,1116.436L1949.388,1116.436z M-28.388,1115.436
		h1976.775V-27.436H-28.388V1115.436z"/>
</g>
<g>
	<g>
		<path fill="#FFFFFF" d="M350.617,940.404l-29.577-79.917l-63.841,56.441l23.044-82.038l-84.824,8.143l66.864-52.827
			l-73.407-43.273l85.145-3.438l-33.954-78.154l70.902,47.269l18.473-83.188l29.576,79.915l63.842-56.442l-23.043,82.038
			l84.821-8.137l-66.861,52.824l73.407,43.271l-85.145,3.438l33.954,78.156l-70.902-47.269L350.617,940.404z M322.765,853.624
			l26.892,72.657l16.794-75.632l64.463,42.975l-30.87-71.06l77.412-3.125l-66.741-39.342l60.79-48.026l-77.118,7.397l20.951-74.587
			l-58.043,51.315l-26.891-72.655l-16.794,75.632L249.146,676.2l30.87,71.057l-77.412,3.125l66.741,39.344l-60.791,48.028l77.12-7.4
			l-20.951,74.587L322.765,853.624z"/>
	</g>
	<g>
		<g>
			<path fill="#FFFFFF" d="M1680.793,229.176h-986.91c-17.105,0-30.974,13.868-30.974,30.973v606.896
				c0,17.104,13.868,30.971,30.974,30.971h986.91c17.105,0,30.974-13.866,30.974-30.971V260.149
				C1711.767,243.044,1697.899,229.176,1680.793,229.176z M1682.055,872.143H689.688V252.684h992.367V872.143L1682.055,872.143z"/>
		</g>
		<g>
			<path fill="#FFD829" d="M1122.836,231.05h-38.916H923.396h-0.795v490.056h0.547c0,44.243,35.867,80.11,80.111,80.11
				s80.111-35.867,80.111-80.11h0.548V389.091h38.916L1122.836,231.05L1122.836,231.05z"/>
		</g>
		<g>
			<g>
				<path fill="#FFD829" d="M1002.416,801.225c-41.145,0-75.046-30.907-79.814-70.768V230.633H346.029v570.591h576.572v-0.12
					L1002.416,801.225z"/>
				<path d="M1002.416,803.225h-0.254l-77.561-0.117v0.117H344.029V228.633h580.572v501.704
					c4.742,39.163,38.07,68.769,77.572,68.888h0.244L1002.416,803.225z M348.029,799.225h572.572v-0.124l56.318,0.085
					c-29.781-9.708-52.416-35.976-56.305-68.49l-0.014-0.237V232.633H348.029V799.225z"/>
			</g>
			<g>
				<path fill="#FFD829" d="M1083.92,721.105c0,44.409-37.18,80.11-81.59,80.11"/>
				<path d="M1002.33,803.217v-4c43.886,0,79.59-35.041,79.59-78.111h4C1085.92,766.382,1048.422,803.217,1002.33,803.217z"/>
			</g>
			<g>
				<g>
					<ellipse fill="#FFD829" cx="1121.543" cy="310.116" rx="38.877" ry="78.922"/>
					<path d="M1121.543,391.038c-11.188,0-21.586-8.605-29.284-24.232c-7.476-15.176-11.593-35.309-11.593-56.69
						c0-21.381,4.117-41.514,11.593-56.69c7.698-15.626,18.099-24.232,29.284-24.232s21.587,8.605,29.284,24.232
						c7.477,15.176,11.594,35.309,11.594,56.69c0,21.381-4.117,41.514-11.594,56.69
						C1143.13,382.433,1132.729,391.038,1121.543,391.038z M1121.543,233.194c-20.334,0-36.877,34.507-36.877,76.922
						s16.543,76.922,36.877,76.922c20.335,0,36.878-34.507,36.878-76.922S1141.878,233.194,1121.543,233.194z"/>
				</g>
				<g>
					<ellipse cx="1121.542" cy="310.116" rx="25.053" ry="50.86"/>
				</g>
			</g>
			<g>
				<rect x="423.461" y="315.63" fill="#FFFFFF" width="304.964" height="51.223"/>
			</g>
			<g>
				<rect x="423.461" y="388.892" fill="#FFFFFF" width="250.166" height="51.226"/>
			</g>
			<g>
				<rect x="611.681" y="524.697" fill="#FFFFFF" width="263.271" height="51.223"/>
			</g>
			<g>
				<rect x="611.681" y="771.107" fill="#FFFFFF" width="263.271" height="27.608"/>
			</g>
			<g>
				<rect x="611.681" y="594.385" fill="#FFFFFF" width="166.778" height="51.226"/>
			</g>
			<g>
				<rect x="611.681" y="664.074" fill="#FFFFFF" width="166.778" height="51.225"/>
			</g>
			<g>
				<rect x="804.667" y="594.385" fill="#FFFFFF" width="70.285" height="51.226"/>
			</g>
			<g>
				<rect x="1081.92" y="329.924" width="4" height="391.183"/>
			</g>
			<g>
				<rect x="1082.63" y="387.091" width="40.503" height="4"/>
			</g>
			<g>
				<rect x="924.29" y="229.249" width="199.188" height="4"/>
			</g>
			<g>
				<rect x="818.152" y="307.291" width="4" height="164.395"/>
			</g>
			<g>
				<path fill="#FFFFFF" d="M862.618,307.291c0-6.075-2.972-11.442-7.525-14.771c0.865-5.574-0.828-11.47-5.124-15.764
					c-4.295-4.295-10.19-5.989-15.765-5.123c-3.329-4.553-8.695-7.525-14.771-7.525c-6.072,0-11.44,2.972-14.769,7.525
					c-5.575-0.866-11.472,0.828-15.767,5.123c-4.294,4.294-5.987,10.19-5.121,15.765c-4.556,3.329-7.526,8.695-7.526,14.771
					c0,6.075,2.971,11.44,7.526,14.77c-0.866,5.575,0.827,11.469,5.121,15.765c4.296,4.295,10.191,5.989,15.767,5.125
					c3.328,4.553,8.696,7.523,14.769,7.523c6.074,0,11.441-2.97,14.771-7.523c5.573,0.865,11.47-0.83,15.765-5.125
					c4.296-4.295,5.989-10.19,5.124-15.765C859.646,318.731,862.618,313.365,862.618,307.291z"/>
			</g>
			<g>
				<g>
					<path d="M786.045,384.96c10.187,7.422,22.654,9.442,33.993,6.606c-0.776-11.663-6.523-22.911-16.708-30.329
						c-10.185-7.417-22.65-9.439-33.99-6.604C770.117,366.296,775.864,377.543,786.045,384.96z"/>
				</g>
				<g>
					<path d="M854.26,384.96c-10.186,7.422-22.654,9.442-33.993,6.606c0.776-11.663,6.524-22.911,16.71-30.329
						c10.185-7.417,22.649-9.439,33.988-6.604C870.188,366.296,864.441,377.543,854.26,384.96z"/>
				</g>
			</g>
			<g>
				<g>
					<path d="M786.045,431.816c10.187,7.421,22.654,9.441,33.993,6.604c-0.776-11.661-6.523-22.911-16.708-30.329
						c-10.185-7.417-22.65-9.439-33.99-6.604C770.117,413.152,775.864,424.399,786.045,431.816z"/>
				</g>
				<g>
					<path d="M854.26,431.816c-10.186,7.421-22.654,9.441-33.993,6.604c0.776-11.661,6.524-22.911,16.71-30.329
						c10.185-7.417,22.649-9.439,33.988-6.604C870.188,413.152,864.441,424.399,854.26,431.816z"/>
				</g>
			</g>
			<g>
				<circle fill="#FFD829" cx="820.126" cy="307.61" r="19.06"/>
			</g>
			<g>
				<path d="M550.805,621.166h0.01c-6.995-8.367-9.875-19.426-7.848-30.141h-0.005c0.435-2.302,0.668-4.675,0.668-7.101
					c0-21.104-17.107-38.211-38.21-38.211c-21.102,0-38.21,17.105-38.21,38.211c0,2.427,0.236,4.799,0.669,7.101h-0.006
					c2.028,10.715-0.852,21.772-7.846,30.141h0.009c-8.599,10.273-13.781,23.502-13.781,37.947
					c0,32.676,26.489,59.162,59.165,59.162c32.675,0,59.165-26.486,59.165-59.162C564.585,644.668,559.402,631.439,550.805,621.166z
					"/>
			</g>
			<g>
				<rect x="343.646" y="164.338" width="581.337" height="69.293"/>
			</g>
			<g>
				<g>
					<circle fill="#FFFFFF" cx="384.15" cy="198.885" r="20.251"/>
				</g>
				<g>
					<circle fill="#FFD829" cx="434.183" cy="198.885" r="20.251"/>
				</g>
				<g>
					<circle fill="#FFFFFF" cx="484.216" cy="198.885" r="20.251"/>
				</g>
			</g>
			<g>
				<g>
					<path fill="#FFFFFF" d="M485.197,538.879c6.524,4.754,14.515,6.049,21.778,4.23c-0.495-7.472-4.178-14.681-10.704-19.433
						c-6.527-4.754-14.513-6.048-21.778-4.229C474.99,526.918,478.673,534.124,485.197,538.879z"/>
				</g>
				<g>
					<path fill="#FFFFFF" d="M528.905,538.879c-6.529,4.754-14.519,6.049-21.783,4.23c0.499-7.472,4.18-14.681,10.706-19.433
						c6.527-4.754,14.514-6.048,21.779-4.229C539.108,526.918,535.426,534.124,528.905,538.879z"/>
				</g>
			</g>
			<g>
				<circle fill="#FFFFFF" cx="505.419" cy="694.451" r="7.147"/>
			</g>
			<g>
				<circle fill="#FFFFFF" cx="517.333" cy="672.213" r="7.147"/>
			</g>
			<g>
				<circle fill="#FFFFFF" cx="493.507" cy="672.213" r="7.148"/>
			</g>
		</g>
		<g>
			<g>
				<g>
					<g>
						<rect x="1198.658" y="254.685" fill="#FFD829" width="483.49" height="615.256"/>
					</g>
					<g>
						<path d="M1680.149,256.685v611.256h-479.491V256.685H1680.149 M1684.149,252.685h-487.491v619.256h487.491V252.685
							L1684.149,252.685z"/>
					</g>
				</g>
			</g>
			<g>
				<rect x="1200.15" y="255.069" width="481.274" height="69.292"/>
			</g>
		</g>
		<g>
			<g>
				<g>
					<g>
						<polygon fill="#FFD829" points="1198.658,254.489 1648.17,208.146 1648.17,823.381 1198.658,869.725 						"/>
					</g>
					<g>
						<path d="M1646.17,210.363v611.214l-445.512,45.931V256.294L1646.17,210.363 M1650.17,205.929l-453.512,46.756v619.256
							l453.512-46.757V205.929L1650.17,205.929z"/>
					</g>
				</g>
			</g>
			<g>
				<polygon points="1647.446,277.605 1200.15,324.361 1200.15,255.069 1647.446,208.313 				"/>
			</g>
		</g>
		<g>
			<g>
				<g>
					<g>
						<polygon fill="#FFD829" points="1198.908,254.311 1612.657,167.912 1612.657,783.084 1198.908,869.48 						"/>
					</g>
					<g>
						<path d="M1610.657,170.373v611.085l-409.749,85.562V255.936L1610.657,170.373 M1614.657,165.451l-417.749,87.234v619.256
							l417.749-87.232V165.451L1614.657,165.451z"/>
					</g>
				</g>
			</g>
			<g>
				<polygon points="1611.934,237.127 1200.4,324.361 1200.4,255.069 1611.934,167.835 				"/>
			</g>
		</g>
		<g>
			<g>
				<polygon fill="#FFFFFF" points="1472.191,367.646 1326.062,398.62 1326.062,359.098 1472.191,328.125 				"/>
			</g>
			<g>
				<polygon fill="#FFFFFF" points="1516.489,426.628 1281.765,476.383 1281.765,436.861 1516.489,387.105 				"/>
			</g>
			<g>
				<polygon fill="#FFFFFF" points="1455.118,509.805 1343.139,533.631 1343.139,494.108 1455.118,470.283 				"/>
			</g>
			<g>
				<polygon fill="#FFFFFF" points="1455.118,759.969 1343.139,783.795 1343.139,744.273 1455.118,720.447 				"/>
			</g>
		</g>
		<g>
			<path d="M1344.78,679.67c2.731-6.275,1.832-14.639-4.449-18.736c-3.12-2.032-6.604-2.057-9.9-4.477
				c-5.896-4.326-13.637-10.965-10.805-19.215c5.767-16.799,25.324,4.043,33.479,4.092c7.035,0.043,8.306-6.072,12.235-10.281
				c3.601-3.854,9.562-6.543,14.912-6.037c5.096,0.482,7.967,5.908,13.521,5.154c4.825-0.656,7.763-8.143,12.123-10.328
				c4.987-2.494,9.827-2.139,14.068,0.383c5.177,3.072,5.545,8.148,12.794,5.691c7.731-2.633,13.248-16.728,19.437-22.008
				c13.886-11.857,16.561,9.182,10.733,18.434c-7.102,11.283-21.799,26.369-11.007,39.693c5.944,7.338,16.607,14.836,14.27,25.649
				c-1.91,8.824-10.169,9.373-17.241,6.906c-9.537-3.328-18.923-7.861-28.939-9.549c-9.842-1.656-17.572,4.865-27.104,5.373
				c-7.838,0.418-17.166,0.307-23.952,4.893c-9.735,6.578-17.528,31.556-31.79,27.275
				C1319.338,717.23,1340.944,688.473,1344.78,679.67z"/>
		</g>
	</g>
	<g>
		<path d="M506.531,526.697c-1.104,0-2-0.896-2-2c0-15.569-12.667-28.236-28.236-28.236c-1.104,0-2-0.896-2-2c0-1.104,0.896-2,2-2
			c17.775,0,32.236,14.461,32.236,32.236C508.531,525.802,507.635,526.697,506.531,526.697z"/>
	</g>
	<g>
		<g>
			<ellipse fill="#FFD829" cx="1383.698" cy="647.557" rx="3.532" ry="7.982"/>
		</g>
		<g>
			<ellipse fill="#FFD829" cx="1401.846" cy="644.547" rx="3.533" ry="7.982"/>
		</g>
	</g>
	<g>
		<path fill="#FFD829" d="M1392.852,664.763c-2.604,0-4.879-0.816-6.222-1.62c-0.948-0.565-1.258-1.794-0.69-2.741
			c0.563-0.944,1.786-1.257,2.733-0.696c0.246,0.142,5.379,3.023,9.853-1.346c0.79-0.771,2.058-0.758,2.828,0.032
			s0.757,2.057-0.033,2.828C1398.588,663.889,1395.543,664.763,1392.852,664.763z"/>
	</g>
	<g>
		<g>
			<path fill="#FFFFFF" d="M1255.059,278.546c0,10.702-8.489,21.085-18.961,23.188c-10.471,2.104-18.961-4.681-18.961-15.152
				c0-10.47,8.49-20.853,18.961-23.187S1255.059,267.845,1255.059,278.546z"/>
		</g>
		<g>
			<path fill="#FFD829" d="M1301.902,268.619c0,10.986-8.489,21.601-18.963,23.705c-10.47,2.103-18.959-4.913-18.959-15.668
				c0-10.755,8.489-21.368,18.959-23.702C1293.413,250.618,1301.902,257.633,1301.902,268.619z"/>
		</g>
		<g>
			<path fill="#FFFFFF" d="M1348.746,258.692c0,11.271-8.489,22.116-18.962,24.22c-10.47,2.104-18.96-5.143-18.96-16.184
				c0-11.04,8.49-21.884,18.96-24.218C1340.257,240.176,1348.746,247.422,1348.746,258.692z"/>
		</g>
	</g>
</g>
</svg>
