<?xml version="1.0" encoding="utf-8"?>
<!-- Generator: Adobe Illustrator 16.0.0, SVG Export Plug-In . SVG Version: 6.00 Build 0)  -->
<!DOCTYPE svg PUBLIC "-//W3C//DTD SVG 1.1//EN" "http://www.w3.org/Graphics/SVG/1.1/DTD/svg11.dtd">
<svg version="1.1" id="Layer_1" xmlns="http://www.w3.org/2000/svg" xmlns:xlink="http://www.w3.org/1999/xlink" x="0px" y="0px"
	 width="1080px" height="1080px" viewBox="0 0 1080 1080" enable-background="new 0 0 1080 1080" xml:space="preserve">
<g>
	<path fill="#58595B" d="M1115.047,1117.747H-37.723V-35.022h1152.77V1117.747z M-36.723,1116.747h1150.77V-34.022H-36.723V1116.747
		z"/>
</g>
<g>
	<g>
		<g>
			<path fill="#FFFFFF" d="M958.739,189.245H307.675c-15.285,0-24.432,9.148-24.432,20.434v402.349
				c0,11.284,9.146,20.434,20.432,20.434h651.064c11.284,0,20.434-9.147,20.434-20.434V209.678
				C975.173,198.393,966.023,189.245,958.739,189.245z M955.571,615.412H304.866V206.754h650.705V615.412z"/>
		</g>
		<g>
			<g>
				<g>
					<g>
						<rect x="639.335" y="208.754" fill="#FFD829" width="317.598" height="404.525"/>
					</g>
					<g>
						<path d="M954.933,210.754v400.525H641.335V210.754H954.933 M958.933,206.754H637.335v408.525h321.598V206.754L958.933,206.754
							z"/>
					</g>
				</g>
			</g>
			<g>
				<rect x="639.64" y="208.327" width="317.496" height="45.713"/>
			</g>
		</g>
		<g>
			<g>
				<g>
					<g>
						<polygon fill="#FFD829" points="639.335,208.559 934.518,178.127 934.518,582.631 639.335,613.062 						"/>
					</g>
					<g>
						<path d="M932.518,180.344v400.483l-291.183,30.019V210.363L932.518,180.344 M936.518,175.911l-299.183,30.844V615.28
							l299.183-30.845V175.911L936.518,175.911z"/>
					</g>
				</g>
			</g>
			<g>
				<polygon points="934.72,223.194 639.64,254.04 639.64,208.327 934.72,177.483 				"/>
			</g>
		</g>
		<g>
			<g>
				<g>
					<g>
						<polygon fill="#FFD829" points="639.335,208.38 910.923,151.667 910.923,556.107 639.335,612.818 						"/>
					</g>
					<g>
						<path d="M908.923,154.127v400.354l-267.588,55.876V210.005L908.923,154.127 M912.923,149.206l-275.588,57.549V615.28
							l275.588-57.547V149.206L912.923,149.206z"/>
					</g>
				</g>
			</g>
			<g>
				<polygon points="911.126,196.491 639.64,254.04 639.64,208.327 911.126,150.78 				"/>
			</g>
		</g>
		<g>
			<g>
				<polygon fill="#FFFFFF" points="819.104,281.934 722.704,302.368 722.704,276.295 819.104,255.862 				"/>
			</g>
			<g>
				<polygon fill="#FFFFFF" points="848.327,320.844 693.479,353.668 693.479,327.596 848.327,294.772 				"/>
			</g>
			<g>
				<polygon fill="#FFFFFF" points="807.841,375.715 733.968,391.434 733.968,365.362 807.841,349.643 				"/>
			</g>
			<g>
				<polygon fill="#FFFFFF" points="807.841,540.751 733.968,556.471 733.968,530.395 807.841,514.678 				"/>
			</g>
		</g>
		<g>
			<g>
				<path d="M735.052,487.778c1.804-4.142,1.207-9.658-2.936-12.361c-2.06-1.342-4.357-1.354-6.531-2.953
					c-3.889-2.854-8.996-7.231-7.129-12.676c3.805-11.082,16.707,2.666,22.086,2.699c4.643,0.028,5.479-4.006,8.072-6.781
					c2.377-2.541,6.309-4.318,9.838-3.984c3.361,0.32,5.256,3.898,8.92,3.4c3.184-0.432,5.121-5.371,7.998-6.812
					c3.289-1.646,6.481-1.411,9.279,0.253c3.416,2.026,3.659,5.377,8.44,3.756c5.1-1.738,8.74-11.035,12.82-14.521
					c9.16-7.822,10.926,6.058,7.084,12.16c-4.687,7.443-14.383,17.396-7.262,26.187c3.92,4.842,10.955,9.788,9.411,16.922
					c-1.26,5.821-6.709,6.184-11.375,4.557c-6.291-2.195-12.481-5.186-19.092-6.301c-6.49-1.092-11.592,3.211-17.879,3.545
					c-5.17,0.274-11.324,0.203-15.801,3.229c-6.422,4.341-11.564,20.818-20.974,17.994
					C718.267,512.557,732.521,493.586,735.052,487.778z"/>
			</g>
			<g>
				<g>
					<g>
						<ellipse fill="#FFD829" cx="760.726" cy="466.592" rx="2.33" ry="5.266"/>
					</g>
					<g>
						<ellipse fill="#FFD829" cx="772.697" cy="464.606" rx="2.331" ry="5.266"/>
					</g>
				</g>
				<g>
					<path fill="#FFD829" d="M766.774,478.623c-1.868,0-3.501-0.587-4.466-1.163c-0.947-0.566-1.258-1.794-0.69-2.743
						c0.562-0.943,1.782-1.256,2.729-0.7c0.327,0.187,3.157,1.683,5.686-0.786c0.79-0.771,2.058-0.756,2.828,0.033
						c0.771,0.79,0.757,2.058-0.033,2.829C770.876,477.999,768.7,478.623,766.774,478.623z"/>
				</g>
			</g>
		</g>
		<g>
			<g>
				<path fill="#FFFFFF" d="M675.862,223.156c0,7.059-5.603,13.909-12.511,15.296c-6.905,1.388-12.508-3.088-12.508-9.995
					c0-6.908,5.603-13.758,12.508-15.298C670.261,211.62,675.862,216.096,675.862,223.156z"/>
			</g>
			<g>
				<path fill="#FFD829" d="M706.765,216.607c0,7.246-5.6,14.249-12.508,15.636c-6.908,1.388-12.51-3.24-12.51-10.334
					c0-7.096,5.602-14.099,12.51-15.639S706.765,209.359,706.765,216.607z"/>
			</g>
			<g>
				<path fill="#FFFFFF" d="M737.667,210.058c0,7.434-5.6,14.589-12.508,15.977c-6.906,1.388-12.51-3.393-12.51-10.675
					c0-7.284,5.604-14.439,12.51-15.979C732.067,197.841,737.667,202.622,737.667,210.058z"/>
			</g>
		</g>
	</g>
	<g>
		<path fill="#FFFFFF" d="M455.792,488.673l0.384-60.776l-56.813,21.591l36.034-48.944l-58.653-15.926l57.922-18.419l-38.092-47.361
			l57.685,19.146l-2.979-60.705l35.413,49.395l33.271-50.861l-0.382,60.775l56.812-21.591l-36.031,48.946l58.654,15.926
			l-57.923,18.417l38.092,47.361L521.501,426.5l2.979,60.707l-35.413-49.397L455.792,488.673z M460.213,422.082l-0.335,53.039
			l29.038-44.387l30.903,43.106l-2.601-52.977l50.339,16.709l-33.239-41.331l50.546-16.071l-51.186-13.898l31.444-42.714
			l-49.579,18.842l0.333-53.037l-29.036,44.385l-30.902-43.105l2.6,52.975l-50.339-16.708l33.24,41.33l-50.547,16.073l51.187,13.898
			l-31.446,42.712L460.213,422.082z"/>
	</g>
	<g>
		<g>
			<g>
				<path fill="#FFD829" d="M539.417,930.795c-27.143,0-49.508-20.389-52.654-46.686V434.374H106.397v496.421h380.365v-0.078
					L539.417,930.795z"/>
				<path d="M539.417,932.795h-0.166l-50.562-0.075l-1.928,0.075H104.397V432.374h384.365v451.615
					c3.106,25.467,24.777,44.715,50.466,44.807h0.191L539.417,932.795z M108.397,928.795h376.365v-0.081l33.979,0.051
					c-18.075-7.345-31.525-24.045-33.964-44.418l-0.015-0.236V436.374H108.397V928.795z"/>
			</g>
			<g>
				<path d="M539.36,932.791v-4c28.146,0,51.047-22.899,51.047-51.047h4C594.407,908.097,569.713,932.791,539.36,932.791z"/>
			</g>
			<g>
				<g>
					<ellipse fill="#FFD829" cx="618.006" cy="726.811" rx="25.647" ry="52.064"/>
					<path d="M618.005,780.875c-15.503,0-27.646-23.748-27.646-54.064c0-30.315,12.144-54.063,27.646-54.063
						c15.504,0,27.648,23.748,27.648,54.063C645.653,757.127,633.509,780.875,618.005,780.875z M618.005,676.746
						c-12.817,0-23.646,22.927-23.646,50.063c0,27.138,10.828,50.064,23.646,50.064c12.818,0,23.648-22.927,23.648-50.064
						C641.653,699.673,630.823,676.746,618.005,676.746z"/>
				</g>
				<g>
					<ellipse cx="618.005" cy="726.811" rx="16.527" ry="33.553"/>
				</g>
			</g>
			<g>
				<rect x="157.479" y="490.448" fill="#FFFFFF" width="201.186" height="33.791"/>
			</g>
			<g>
				<rect x="157.479" y="538.778" fill="#FFFFFF" width="165.037" height="33.794"/>
			</g>
			<g>
				<rect x="281.649" y="638.369" fill="#FFFFFF" width="173.68" height="33.793"/>
			</g>
			<g>
				<rect x="157.479" y="866.066" fill="#FFFFFF" width="297.85" height="33.793"/>
			</g>
			<g>
				<rect x="157.479" y="913.895" fill="#FFFFFF" width="297.85" height="14.605"/>
			</g>
			<g>
				<rect x="281.649" y="684.982" fill="#FFFFFF" width="110.023" height="33.791"/>
			</g>
			<g>
				<rect x="281.649" y="778.205" fill="#FFFFFF" width="156.482" height="33.791"/>
			</g>
			<g>
				<rect x="281.649" y="731.592" fill="#FFFFFF" width="110.023" height="33.793"/>
			</g>
			<g>
				<rect x="408.962" y="684.344" fill="#FFFFFF" width="46.367" height="33.791"/>
			</g>
			<g>
				<rect x="590.407" y="730.521" width="4" height="148.168"/>
			</g>
			<g>
				<rect x="592.335" y="776.91" width="26.719" height="4"/>
			</g>
			<g>
				<rect x="487.878" y="672.781" width="131.404" height="4"/>
			</g>
			<g>
				<rect x="417.179" y="484.946" width="4" height="108.453"/>
			</g>
			<g>
				<path fill="#FFFFFF" d="M447.192,484.946c0-4.008-1.962-7.549-4.966-9.746c0.572-3.678-0.547-7.566-3.379-10.398
					c-2.834-2.834-6.723-3.951-10.399-3.381c-2.197-3.002-5.736-4.963-9.742-4.963c-4.01,0-7.551,1.961-9.744,4.963
					c-3.68-0.57-7.567,0.547-10.402,3.381c-2.831,2.832-3.948,6.722-3.379,10.4c-3.004,2.195-4.965,5.735-4.965,9.744
					c0,4.006,1.961,7.547,4.965,9.744c-0.569,3.678,0.548,7.565,3.379,10.397c2.835,2.834,6.724,3.953,10.402,3.381
					c2.193,3.004,5.734,4.965,9.744,4.965c4.006,0,7.545-1.961,9.742-4.965c3.678,0.572,7.565-0.547,10.399-3.381
					c2.832-2.832,3.951-6.721,3.379-10.397C445.23,492.493,447.192,488.952,447.192,484.946z"/>
			</g>
			<g>
				<g>
					<path d="M395.676,536.184c6.723,4.898,14.947,6.23,22.428,4.358c-0.514-7.694-4.305-15.114-11.022-20.009
						c-6.722-4.894-14.943-6.228-22.422-4.355C385.17,523.872,388.961,531.292,395.676,536.184z"/>
				</g>
				<g>
					<path d="M442.68,536.184c-6.721,4.898-14.945,6.23-22.426,4.358c0.514-7.694,4.303-15.114,11.021-20.009
						c6.72-4.894,14.943-6.228,22.424-4.355C453.186,523.872,449.396,531.292,442.68,536.184z"/>
				</g>
			</g>
			<g>
				<g>
					<path d="M395.676,567.096c6.723,4.896,14.947,6.229,22.428,4.357c-0.514-7.691-4.305-15.113-11.022-20.006
						c-6.722-4.896-14.943-6.229-22.422-4.357C385.17,554.783,388.961,562.203,395.676,567.096z"/>
				</g>
				<g>
					<path d="M442.68,567.096c-6.721,4.896-14.945,6.229-22.426,4.357c0.514-7.691,4.303-15.113,11.021-20.006
						c6.72-4.896,14.943-6.229,22.424-4.357C453.186,554.783,449.396,562.203,442.68,567.096z"/>
				</g>
			</g>
			<g>
				<circle fill="#FFD829" cx="419.16" cy="485.157" r="12.573"/>
			</g>
			<g>
				<rect x="104.827" y="390.639" width="383.508" height="45.712"/>
			</g>
			<g>
				<g>
					<circle fill="#FFD829" cx="164.553" cy="413.43" r="13.36"/>
				</g>
				<g>
					<circle fill="#FFD829" cx="197.561" cy="413.43" r="13.36"/>
				</g>
				<g>
					<circle fill="#FFFFFF" cx="131.547" cy="413.43" r="13.36"/>
				</g>
			</g>
			<g>
				<g>
					<path d="M243.835,736.326h0.008c-5.561-6.648-7.848-15.441-6.238-23.957h-0.004c0.344-1.828,0.533-3.715,0.533-5.644
						c0-16.772-13.598-30.368-30.371-30.368s-30.371,13.596-30.371,30.368c0,1.929,0.188,3.814,0.533,5.644h-0.006
						c1.611,8.516-0.676,17.309-6.236,23.957h0.006c-6.832,8.168-10.951,18.682-10.951,30.162c0,25.971,21.053,47.022,47.025,47.022
						c25.971,0,47.023-21.053,47.023-47.022C254.786,755.008,250.669,744.494,243.835,736.326z"/>
				</g>
				<g>
					<g>
						<path fill="#FFFFFF" d="M191.688,670.924c5.186,3.777,11.535,4.808,17.311,3.361c-0.396-5.938-3.322-11.668-8.51-15.443
							c-5.188-3.778-11.535-4.807-17.309-3.365C183.577,661.416,186.503,667.145,191.688,670.924z"/>
					</g>
					<g>
						<path fill="#FFFFFF" d="M226.429,670.924c-5.189,3.777-11.539,4.808-17.314,3.361c0.395-5.938,3.322-11.668,8.512-15.443
							c5.186-3.778,11.533-4.807,17.309-3.365C234.538,661.416,231.61,667.145,226.429,670.924z"/>
					</g>
				</g>
				<g>
					<circle fill="#FFFFFF" cx="207.762" cy="794.574" r="5.681"/>
				</g>
				<g>
					<circle fill="#FFFFFF" cx="217.23" cy="776.9" r="5.681"/>
				</g>
				<g>
					<circle fill="#FFFFFF" cx="198.294" cy="776.9" r="5.682"/>
				</g>
				<g>
					<path d="M208.646,661.65c-1.104,0-2-0.896-2-2c0-12.148-9.884-22.031-22.033-22.031c-1.104,0-2-0.896-2-2c0-1.104,0.896-2,2-2
						c14.354,0,26.033,11.678,26.033,26.031C210.646,660.755,209.75,661.65,208.646,661.65z"/>
				</g>
			</g>
		</g>
	</g>
</g>
</svg>
