<svg xmlns="http://www.w3.org/2000/svg" viewBox="0 0 1920 1080" xml:space="preserve"><circle fill="#FFF" cx="802.49" cy="115.25" r="90.26"/><path d="M541.45 69.7v-4.02h7.14V43.74h-7.14v-4.02h7.14v-1.68c0-3.75.97-6.47 2.93-8.15 1.96-1.68 4.76-2.51 8.4-2.51 1.31 0 2.5.08 3.53.24 1.04.16 2.16.47 3.36.95l-1.08 3.9a12.15 12.15 0 0 0-2.98-.87c-.96-.14-1.83-.2-2.63-.2-2.62 0-4.41.64-5.37 1.94-.95 1.3-1.43 3.43-1.43 6.38h12.4v4.02h-12.4v21.93h12.4v4.02h-24.27zm36.98 0v-4.02h10.43V43.74h-10.43v-4.02h15.17v25.96h10.19v4.01h-25.36zm8.75-38.49c0-1.08.36-2 1.08-2.78a3.59 3.59 0 0 1 2.76-1.17c1.16 0 2.13.39 2.9 1.17a3.8 3.8 0 0 1 1.18 2.78c0 1.04-.4 1.92-1.17 2.64a4.13 4.13 0 0 1-2.9 1.08 3.73 3.73 0 0 1-2.77-1.08 3.59 3.59 0 0 1-1.08-2.64zm36.09 23.14L611.7 39.72h6L626.31 51l8.88-11.27h5.39l-11.57 14.39L641.3 69.7h-5.76l-9.53-12.29-9.7 12.3h-5.46l12.4-15.35zm52.5 11.57a15.7 15.7 0 0 1-2.55 1.8 18.7 18.7 0 0 1-3.2 1.43 23.51 23.51 0 0 1-7.43 1.26c-2.4 0-4.52-.37-6.36-1.1a12.22 12.22 0 0 1-4.61-3.18 13.83 13.83 0 0 1-2.82-4.95 20.39 20.39 0 0 1-.96-6.47c0-2.52.35-4.76 1.05-6.72.7-1.95 1.7-3.6 3.03-4.91a13.18 13.18 0 0 1 4.8-3.03c1.87-.7 3.97-1.05 6.29-1.05 1.67 0 3.33.22 4.97.66a9.84 9.84 0 0 1 4.35 2.5 11.87 11.87 0 0 1 2.9 5.03c.68 2.13.92 4.9.72 8.3h-23.13c0 3.6.96 6.28 2.9 8.06 1.93 1.78 4.5 2.67 7.74 2.67 1.07 0 2.14-.13 3.2-.4 1.05-.25 2.06-.56 3.01-.92.96-.36 1.8-.76 2.55-1.2.73-.44 1.3-.84 1.7-1.2l1.85 3.42zm-12.62-22.96c-1.31 0-2.56.14-3.73.42a7.73 7.73 0 0 0-5.32 3.98 10.35 10.35 0 0 0-1.1 3.93h18.58c-.2-2.64-1.05-4.68-2.54-6.14a8.08 8.08 0 0 0-5.89-2.19zm37.73-15.22h9.77v31.7c0 .36.02.81.06 1.35a62.5 62.5 0 0 0 .36 3.48c.08.58.16 1.09.24 1.53h4.02v3.9h-8.03l-.6-4.62h-.24a10.58 10.58 0 0 1-3.92 3.8 11.63 11.63 0 0 1-6 1.53c-4.5 0-7.83-1.27-9.96-3.8-2.13-2.54-3.2-6.49-3.2-11.84 0-2.52.36-4.75 1.08-6.68a12.9 12.9 0 0 1 3.08-4.86 13.34 13.34 0 0 1 4.81-2.97 18.32 18.32 0 0 1 6.28-1.02c.83 0 1.58.02 2.24.06.66.05 1.26.1 1.82.19.56.08 1.09.18 1.59.32s1.04.3 1.64.45v-8.5h-5.04v-4.02zm-3.56 38.66c2.43 0 4.34-.63 5.73-1.9 1.4-1.25 2.35-3.14 2.87-5.66v-13.9a9.27 9.27 0 0 0-2.96-1.32 18.1 18.1 0 0 0-4.33-.42c-3.18 0-5.7.93-7.52 2.79-1.84 1.85-2.75 4.78-2.75 8.78 0 1.64.15 3.17.45 4.58.3 1.42.8 2.65 1.49 3.69a7.35 7.35 0 0 0 2.78 2.46c1.15.6 2.56.9 4.24.9z"/><path d="M712.81 102.15H537.87a51.13 51.13 0 0 1-51.08-51.08A51.13 51.13 0 0 1 537.87 0h174.94a51.13 51.13 0 0 1 51.08 51.08 51.13 51.13 0 0 1-51.08 51.07zM537.87 4c-25.96 0-47.08 21.12-47.08 47.08s21.12 47.08 47.08 47.08h174.94c25.96 0 47.08-21.12 47.08-47.08S738.77 4 712.81 4H537.87z"/><path fill="#FFF" d="M163.47 306.17h39.2v500.11h-39.2z"/><path d="M67.69 694.29a65.69 65.69 0 0 0-65.7 65.69v228.48a58.27 58.27 0 0 0 58.28 58.27h7.12l.53-115.86-.23-236.58z"/><path d="M69.38 1048.73h-9.11A60.34 60.34 0 0 1 0 988.46V759.97a67.76 67.76 0 0 1 67.69-67.68h2l.22 238.58-.53 117.86zm-3.7-352.41A63.77 63.77 0 0 0 4 759.97v228.5a56.34 56.34 0 0 0 56.27 56.27h5.13l.52-113.88-.23-234.54z"/><path d="M354.89 1048.73H65.9l.53-117.87-.52-536.08a91.08 91.08 0 0 1 24.7-62.61c16.07-17.14 37.66-27.06 60.82-27.93a80.8 80.8 0 0 1 3.48-.07H358.2a50.32 50.32 0 0 1 50.26 50.26v640.72a53.64 53.64 0 0 1-53.58 53.58zm-284.97-4H354.9a49.64 49.64 0 0 0 49.58-49.58V354.43a46.32 46.32 0 0 0-46.26-46.26H154.93c-1.12 0-2.23.02-3.34.06-22.1.83-42.71 10.3-58.05 26.67a87.1 87.1 0 0 0-23.63 59.87l.53 536.1-.52 113.87z"/><path d="M250.16 1048.73H115.98V814.61c0-5.7 4.63-10.33 10.33-10.33h113.53c5.7 0 10.33 4.64 10.33 10.33v234.12zm-130.19-4h126.2V814.62c0-3.5-2.84-6.33-6.33-6.33H126.3a6.34 6.34 0 0 0-6.34 6.33v230.13zm154.76-855.92h-37.54l-30.25 117.36h37.54z"/><path d="M246.03 308.17h-41.66l31.28-121.35h41.66l-31.28 121.35zm-36.5-4h33.4l29.22-113.36h-33.4l-29.23 113.36z"/><path d="M280.37 308.17h-41.53V186.82h41.53v121.35zm-37.53-4h33.54V190.81h-33.54v113.36z"/><path fill="#2E9AFF" d="M404.46 605.78H587.3v92.78H404.46z"/><path d="M587.3 700.56H404.47a2 2 0 0 1-2-2v-92.78c0-1.1.9-2 2-2H587.3a2 2 0 0 1 2 2v92.78a2 2 0 0 1-2 2zm-180.84-4H585.3v-88.78H406.46v88.79z"/><path fill="#2E9AFF" d="M700.25 459.82h-.04c0-.98 0-1.95-.04-2.94-2.86-108.97-93.53-194.98-202.5-192.11-90.16 2.37-164.6 64.85-185.99 148.07a67.75 67.75 0 1 0 12.4 132.94c32.29 68.87 103.08 115.73 183.98 113.6 91.69-2.41 167.11-66.98 187.03-152.3a24 24 0 1 0 5.16-47.25z"/><path d="M502.84 661.45a199.45 199.45 0 0 1-179.86-113.33 70 70 0 0 1-16.66 2.01 69.83 69.83 0 0 1-69.7-67.91 69.83 69.83 0 0 1 73.55-71.48 200.85 200.85 0 0 1 67.46-103.8c34.3-27.73 75.79-43 119.99-44.17a197.96 197.96 0 0 1 142.47 54.67 198.07 198.07 0 0 1 62.1 140.4 26.03 26.03 0 0 1 24.68 25.28 26.02 26.02 0 0 1-30.3 26.3c-21.24 87.21-98.46 149.6-188.46 151.96-1.76.05-3.52.07-5.27.07zM325.18 543.41l.7 1.52a195.48 195.48 0 0 0 182.13 112.46c88.83-2.34 164.96-64.34 185.13-150.77l.46-1.98 1.97.5a22.02 22.02 0 0 0 27.3-21.9 22 22 0 0 0-22.48-21.42h-2.15l-.03-2.79-.03-2.1a194.1 194.1 0 0 0-60.84-136.6 194.23 194.23 0 0 0-139.61-53.56 193.57 193.57 0 0 0-117.59 43.27 196.77 196.77 0 0 0-66.52 103.3l-.42 1.62-1.67-.13c-2.31-.18-4.63-.24-6.91-.18a65.83 65.83 0 0 0-64 67.46c.95 36.25 31.2 64.92 67.46 64 5.2-.13 10.4-.9 15.48-2.26l1.62-.44z"/><path d="M626.96 308.59c-38.6-29.1-80.42-45.1-129.29-43.82-90.16 2.37-165.88 68.64-187.27 151.86 0 0 263.2 81.3 316.56-108.04zm28.24 248.89c-24 0-39.63-15.9-39.83-16.1a2 2 0 0 1 2.88-2.77c1.04 1.07 25.49 25.78 60.63 9.34a2 2 0 1 1 1.69 3.62c-9.15 4.29-17.69 5.91-25.36 5.91zm-79.44-57.51a64.88 64.88 0 0 1-52.7-27.09 2 2 0 0 1 3.24-2.33 60.8 60.8 0 0 0 100.34-2.07 2 2 0 0 1 3.34 2.2 64.86 64.86 0 0 1-54.22 29.29z"/><path fill="#FFD829" d="m285.05 462.16 42.82 44.66"/><path d="M327.87 508.82a2 2 0 0 1-1.45-.62l-42.81-44.65a2 2 0 1 1 2.88-2.77l42.82 44.66a2 2 0 0 1-1.44 3.38z"/><path fill="#FFF" d="M402.12 689.87v143.45c.7 122.27 101.22 220.37 223.49 219.66l594.51-3.46-2.13-364.4-815.87 4.75z"/><path d="m1116.42 685.74 101.6-.6 2.11 364.42-101.6.59z"/><path fill="#FFF" d="M1471.33 535.68c1.6 0 2.9 1.3 2.9 2.9l1.34 359.03 243.01-18.5-1.24-402.13c-.35-116.62-95.05-210.95-211.67-210.84l-67.96.08c-123.14.17-222.74 100.3-222.25 223.44l.12 560.45c138.03 0 249.74-112.28 249.05-250.31l-1.28-261.17a2.9 2.9 0 0 1 2.89-2.92l5.09-.03z"/><path d="M1729.95 882.93v-11.62a20.17 20.17 0 0 0-20.09-20.13l-52.97-.04a20.17 20.17 0 0 0-20.13 20.1v5.55l-161.14-.12-22.5 130.12 456.66.34-179.83-124.2zm59.14 99.3-15.02-26.13-29.52-6.08-15-26.12-29.52-6.08-6.33-11-9.13-15.9 3.46-2 10.28 17.9 4.28 7.45 29.52 6.07 15.01 26.13 29.52 6.08 15.02 26.13 28.64 5.9-.81 3.91-30.4-6.26z"/><path fill="#FFF" d="m1700.03 917.82 29.51 6.08 15.01 26.12 29.52 6.08 15.02 26.13 30.4 6.26.8-3.91-28.63-5.9-15.02-26.13-29.52-6.08-15.01-26.13-29.52-6.07-4.28-7.45h-4.61zm-15.46-26.91 9.13 15.91h4.61l-10.28-17.9z"/><path fill="#2E9AFF" d="m862.48 1075.55-286.22-98.07-19.47-193.83 298.39 109.67 58.07-101.52h-.04c1.3-11.14-5.58-23.67-9.7-30.03a69.22 69.22 0 0 1-14.83-49.65l-5.22-72.37a21.1 21.1 0 0 1 1.91-10.8c4.06-9.2 12.93-15.73 23-15.55a24.55 24.55 0 0 1 24.1 25.02c0 .04.12.04.12.04l-.74 42.28 1.12.15 17.07-63.46c.64-3.8 2.11-7.5 5.23-11.22a25.18 25.18 0 0 1 15.68-8.88c18.48-2.59 31.62 15.6 27.26 31.67 0 .03.11.07.11.07l-12.66 44.98.2.05 12.46-45.03a24.55 24.55 0 0 1 47.4 12.81c-.02.03.1.06.1.06l-12.57 44.98.2.05 12.36-45.03c3.54-13.08 16.6-22.1 29.69-18.57 13.08 3.55 21.31 16.07 17.78 29.15-1.53 5.83-8.03 30.95-8.03 30.95l-4.42 16.32.2.05 8.86-33.86c.14-.74-.2.76 0 0 3.55-13.08 15.8-22.47 28.9-18.93a24.67 24.67 0 0 1 17.38 30.16c-.01.03 0 0 0 0l-15.07 59.23c-3.06 11.31-6.37 22.03-10.73 32.2-5.26 12.24-12.05 23.68-21.81 34.41-8.05 8.84-14.63 19.15-19.95 29.85l.17.04-97.6 191.7a97.67 97.67 0 0 1-108.7 50.91z"/><path d="M884.23 1080a100.02 100.02 0 0 1-22.4-2.56l-286.22-98.07a2 2 0 0 1-1.34-1.69L554.8 783.85a2 2 0 0 1 2.68-2.07l296.8 109.08 56.98-99.6c1.05-10.36-5.38-22.13-9.38-28.32a71.6 71.6 0 0 1-15.2-50.84l-5.21-72.2a22.9 22.9 0 0 1 2.07-11.75c4.5-10.22 14.05-16.75 24.42-16.75h.44c7.1.13 13.72 3.01 18.65 8.13a26.36 26.36 0 0 1 7.43 18.28c.07.22.1.45.1.68l-.53 30.7L948.09 617a24.72 24.72 0 0 1 5.64-12.08 27.02 27.02 0 0 1 16.94-9.57 25.8 25.8 0 0 1 23.27 8.66 28.54 28.54 0 0 1 6.91 15.44 26.6 26.6 0 0 1 28.1-9.6 26.6 26.6 0 0 1 19.38 22.15c6.34-8.85 17.21-13.4 27.69-10.56 14.16 3.84 22.54 17.19 19.42 30.67 6.26-6.45 15.12-9.37 23.87-7a26.51 26.51 0 0 1 16.13 12.43 26.33 26.33 0 0 1 2.66 20.17l-15.06 59.21c-3.67 13.56-7 23.58-10.83 32.5-5.8 13.52-13.06 24.96-22.17 34.97-7.18 7.89-13.66 17.53-19.27 28.66a2 2 0 0 1-.21.8l-97.6 191.68a99.57 99.57 0 0 1-88.73 54.46zm-21.2-6.37a95.56 95.56 0 0 0 106.37-49.9l97.22-190.95c.02-.27.08-.53.2-.77 5.86-11.77 12.68-21.97 20.26-30.3 8.8-9.68 15.83-20.75 21.46-33.86 3.74-8.74 7.03-18.59 10.64-31.94l15.03-59.1.05-.19a22.37 22.37 0 0 0-2.28-17.07c-3.03-5.25-7.9-9-13.72-10.57-9.94-2.7-22.53 3.13-26.43 17.51l-8.86 33.86a2 2 0 0 1-2.43 1.43l-.2-.06a2 2 0 0 1-1.43-2.45l4.41-16.33 8.02-30.93c3.15-11.64-4.04-23.37-16.37-26.7-11.6-3.15-23.82 4.56-27.23 17.15l-12.36 45.04a2 2 0 0 1-2.4 1.41l-.2-.05a2 2 0 0 1-1.46-2.48l12.4-44.36c-.02-.22 0-.44.06-.66 3.25-12-3.88-24.4-15.88-27.65a22.58 22.58 0 0 0-27.65 15.87v.03l-12.46 45.02a1.99 1.99 0 0 1-2.4 1.4l-.2-.04a2 2 0 0 1-1.45-2.48l12.48-44.36a1.87 1.87 0 0 1 .06-.67c2.02-7.44-.03-15.8-5.34-21.82a21.87 21.87 0 0 0-19.72-7.35 23.03 23.03 0 0 0-14.42 8.18 20.92 20.92 0 0 0-4.84 10.46l-17.07 63.46a2 2 0 0 1-2.2 1.46l-1.12-.16a2 2 0 0 1-1.72-2.01l.72-41.66c-.07-.24-.1-.5-.1-.76a22.34 22.34 0 0 0-6.3-15.98 22.4 22.4 0 0 0-15.85-6.9c-8.92-.17-17.21 5.47-21.12 14.35a19 19 0 0 0-1.75 9.86l5.22 72.37v.32a67.6 67.6 0 0 0 14.52 48.38c4.27 6.61 11.22 19.37 10.04 31 .03.38-.05.77-.25 1.11l-58.07 101.52a2 2 0 0 1-2.42.88l-295.4-108.56L578.13 976l284.9 97.62z"/><path d="M451.82 796.67c-29.56 69.13 1.93 148.88 70.32 178.12l138.24 59.1 107.03-250.35-138.23-59.1c-68.4-29.25-147.8 3.1-177.36 72.23zM1088.3 93.23c1.72-1 3.66-1.72 5.82-2.16 2.16-.43 4.27-.66 6.36-.66 2.03 0 3.7.33 5 .97a8.13 8.13 0 0 1 4.56 5.96 20 20 0 0 1 .4 3.93c0 1.53-.05 3.15-.12 4.86-.08 1.73-.14 3.44-.18 5.16 0 2 .11 3.9.35 5.7h4.03v3.9h-7.93l-.53-4.5h-.3c-.25.36-.6.82-1.09 1.38a9.86 9.86 0 0 1-1.9 1.65 11.85 11.85 0 0 1-6.83 2.01c-2.96 0-5.31-.76-7.04-2.28-1.72-1.52-2.58-3.6-2.58-6.24 0-2.04.45-3.74 1.35-5.1.9-1.36 2.2-2.4 3.88-3.12s3.73-1.14 6.11-1.26 5.07.04 8.04.48c.2-1.84.23-3.37.09-4.59a6.32 6.32 0 0 0-.97-2.9 4.03 4.03 0 0 0-2.1-1.54c-.9-.3-2.02-.45-3.34-.45-1.81 0-3.54.25-5.18.75a53.1 53.1 0 0 0-4.4 1.53l-1.5-3.48zm8.88 24.18a8.8 8.8 0 0 0 3.11-.54 9.5 9.5 0 0 0 4.33-3.2c.47-.67.84-1.3 1.08-1.9v-4.2c-2.08-.36-4-.54-5.76-.54-1.77 0-3.28.2-4.57.57-1.28.38-2.28.97-3 1.77s-1.08 1.84-1.08 3.12a4.9 4.9 0 0 0 1.36 3.45c.9.98 2.4 1.47 4.52 1.47zm20.75-38.51h9.6v15.4h.3a10.27 10.27 0 0 1 4.03-3.06 13.15 13.15 0 0 1 5.34-1.08c8.8 0 13.2 5.08 13.2 15.24 0 5.16-1.42 9.11-4.26 11.85-2.85 2.74-6.89 4.11-12.12 4.11-2.48 0-4.72-.24-6.72-.72s-3.46-1.04-4.38-1.68V82.91h-4.98V78.9zm18.66 15.3c-2.4 0-4.34.67-5.81 2.03a11.86 11.86 0 0 0-3.24 5.76v13.8c.92.48 2.02.87 3.3 1.15 1.28.28 2.62.42 4.02.42 1.6 0 3.05-.23 4.35-.7a8.28 8.28 0 0 0 3.33-2.15 9.92 9.92 0 0 0 2.13-3.75c.5-1.52.75-3.32.75-5.4 0-1.52-.16-2.96-.48-4.32a10.49 10.49 0 0 0-1.53-3.57 7.36 7.36 0 0 0-2.73-2.4 8.78 8.78 0 0 0-4.09-.88zm43.44 18.6c0-1.29-.5-2.28-1.5-2.98-.99-.7-2.22-1.26-3.7-1.68s-3.08-.8-4.81-1.17a27.7 27.7 0 0 1-4.82-1.44c-1.48-.6-2.71-1.4-3.71-2.43s-1.5-2.45-1.5-4.29c0-1.52.34-2.82 1-3.9s1.53-1.97 2.6-2.67c1.08-.7 2.35-1.22 3.78-1.56 1.44-.34 2.94-.5 4.5-.5a22.18 22.18 0 0 1 12.06 3.23l-1.91 3.78a50.34 50.34 0 0 0-4.28-2.07 14.67 14.67 0 0 0-5.77-.99c-.88 0-1.74.1-2.6.27-.86.18-1.64.45-2.33.81-.7.36-1.26.83-1.68 1.41a3.54 3.54 0 0 0-.63 2.13c0 1.04.5 1.84 1.5 2.4 1 .56 2.23 1.03 3.7 1.41 1.48.38 3.09.74 4.82 1.08 1.74.34 3.34.83 4.82 1.47a10.7 10.7 0 0 1 3.7 2.58 6.2 6.2 0 0 1 1.5 4.38 8.5 8.5 0 0 1-3.27 6.84c-2.18 1.8-5.45 2.7-9.8 2.7a23.54 23.54 0 0 1-10.56-2.67c-.93-.5-1.69-1-2.29-1.53l2.4-3.9c.47.48 1.11.97 1.91 1.47a17.74 17.74 0 0 0 9.03 2.67c1.08 0 2.09-.09 3.02-.27s1.77-.46 2.49-.84a4.62 4.62 0 0 0 1.7-1.5c.42-.62.63-1.37.63-2.25zm13.2-6.9c0-4.85 1.26-8.68 3.78-11.5 2.52-2.82 6.12-4.23 10.8-4.23 2.52 0 4.7.42 6.51 1.23a12.79 12.79 0 0 1 7.2 8.31c.58 1.92.87 3.98.87 6.18 0 2.4-.32 4.57-.96 6.51a13.52 13.52 0 0 1-2.82 4.95 12.45 12.45 0 0 1-4.59 3.15 16.36 16.36 0 0 1-6.2 1.11c-2.49 0-4.65-.4-6.49-1.23a12.72 12.72 0 0 1-7.23-8.3 21.27 21.27 0 0 1-.87-6.19zm4.98 0c0 1.4.17 2.8.51 4.2.34 1.4.89 2.66 1.65 3.77s1.74 2.02 2.96 2.7a8.98 8.98 0 0 0 4.46 1.02c3.18 0 5.59-.99 7.2-2.97 1.62-1.98 2.42-4.89 2.42-8.73 0-1.43-.17-2.85-.5-4.23a11.2 11.2 0 0 0-1.68-3.75c-.78-1.11-1.77-2.02-2.99-2.7s-2.7-1.02-4.46-1.02c-3.18 0-5.58.99-7.17 2.94-1.6 1.96-2.4 4.89-2.4 8.76zm34.74-27h10.02v31.91c0 2.44.41 4.16 1.23 5.16.82 1 2.03 1.5 3.63 1.5a8.7 8.7 0 0 0 3.21-.6c1.02-.4 2.15-1.08 3.4-2.04l2.15 3.3a13.3 13.3 0 0 1-2.1 1.5 15.63 15.63 0 0 1-4.76 1.8 12.8 12.8 0 0 1-6.2-.33 6.78 6.78 0 0 1-2.92-1.83c-.78-.84-1.37-1.95-1.77-3.33s-.6-3.09-.6-5.13v-27.9h-5.29V78.9zm50.58 12h8.58v20.45c0 1.96.12 3.84.36 5.64h4.02v3.9h-8.04l-.18-5.1h-.24a12.59 12.59 0 0 1-4.13 4.2 11.44 11.44 0 0 1-6.22 1.62c-1.83 0-3.4-.2-4.7-.63a6.65 6.65 0 0 1-3.2-2.19 10.17 10.17 0 0 1-1.85-4.17c-.4-1.74-.6-3.9-.6-6.5v-13.2h-4.02v-4.03h8.76v16.26c0 1.64.07 3.11.21 4.41.14 1.3.43 2.4.86 3.3.44.9 1.08 1.58 1.94 2.04.85.46 2 .7 3.42.7 2.06 0 3.86-.69 5.39-2.05a13.03 13.03 0 0 0 3.48-5.1V94.91h-3.84V90.9zm16.14 0h7.14v-5.95l4.74-1.31v7.26h16.02v4.02h-16.02v14.16c0 2.92.7 5.08 2.12 6.48 1.42 1.4 3.44 2.1 6.07 2.1 1.8 0 3.36-.34 4.7-1.02a25.27 25.27 0 0 0 3.62-2.23l1.55 3.55a16.88 16.88 0 0 1-5 2.7 17.92 17.92 0 0 1-5.98 1.01c-1.6 0-3.1-.23-4.53-.68s-2.67-1.17-3.75-2.13-1.94-2.2-2.58-3.7-.96-3.28-.96-5.36V94.9h-7.14v-4zm65.88 26.21a17.59 17.59 0 0 1-5.75 3.24 23.65 23.65 0 0 1-7.45 1.27c-2.4 0-4.52-.38-6.36-1.12a12.22 12.22 0 0 1-4.62-3.18 13.82 13.82 0 0 1-2.82-4.95 20.4 20.4 0 0 1-.96-6.48c0-2.52.35-4.76 1.05-6.72.7-1.96 1.71-3.6 3.03-4.92a13.2 13.2 0 0 1 4.8-3.03c1.88-.7 3.98-1.05 6.3-1.05 1.68 0 3.34.22 4.98.66a9.86 9.86 0 0 1 4.35 2.5 11.88 11.88 0 0 1 2.91 5.03c.68 2.14.92 4.91.72 8.31h-23.16c0 3.6.97 6.3 2.9 8.07 1.94 1.78 4.52 2.67 7.75 2.67 1.08 0 2.15-.13 3.2-.39 1.06-.26 2.07-.57 3.03-.93.95-.36 1.8-.76 2.54-1.2a11 11 0 0 0 1.7-1.2l1.86 3.42zm-12.63-22.98c-1.32 0-2.56.15-3.74.42a7.75 7.75 0 0 0-5.32 3.99 10.39 10.39 0 0 0-1.1 3.93h18.6c-.2-2.64-1.05-4.68-2.55-6.15a8.08 8.08 0 0 0-5.9-2.19z"/><path d="M1370.77 153.39H1085.5a51.19 51.19 0 0 1-51.13-51.13 51.19 51.19 0 0 1 51.13-51.13h285.26a51.19 51.19 0 0 1 51.13 51.13 51.19 51.19 0 0 1-51.13 51.13zM1085.5 55.13c-25.99 0-47.13 21.14-47.13 47.13s21.14 47.13 47.13 47.13h285.26c25.99 0 47.13-21.14 47.13-47.13s-21.14-47.13-47.13-47.13H1085.5z"/><path fill="#FFF" d="M1849.69 253.4a14.48 14.48 0 0 1-4.07-.6l-81-32.28a2 2 0 1 1 1.48-3.72l80.9 32.24c3.21.85 6.75.12 9.5-1.96a10 10 0 0 0 4.06-7.98V138.02a9.52 9.52 0 0 0-4.02-7.82 9.52 9.52 0 0 0-8.69-1.3l-.11.03-160.3 43.31a2 2 0 1 1-1.04-3.86l160.24-43.3c4.19-1.38 8.65-.7 12.24 1.88a13.49 13.49 0 0 1 5.68 11.06V239.1c0 4.37-2.06 8.43-5.64 11.16a15.3 15.3 0 0 1-9.23 3.13zM1682.12 179h-69.68a11.16 11.16 0 1 0 0 17.44h69.68a8.72 8.72 0 1 0 0-17.43z"/><path d="M1710.3 212.89a8.72 8.72 0 0 1-7.71 8.65h76.33l-77.09-32.28-42.88-10.15v15.39a27 27 0 0 0 1.79 9.67h40.84c4.81 0 8.71 3.9 8.71 8.72z"/><path fill="#FFF" d="M1701.58 204.17h-69.69a11.16 11.16 0 1 0 0 17.44h69.69a8.72 8.72 0 0 0 0-17.44z"/><path d="M1913.57 184.16h-51.01V162h40.86l13.58 14.1a4.75 4.75 0 0 1-3.43 8.05zm2.91 33.64h-53.92v-22.16h40.86l15.6 16.22a3.52 3.52 0 0 1-2.54 5.95z"/><path fill="#FFF" d="M1709.66 166.68c-.43 0-.85.04-1.26.1a22.8 22.8 0 0 0-43.08 0 7.53 7.53 0 0 0-8.82 7.45 7.55 7.55 0 0 0 8.82 7.44 22.8 22.8 0 0 0 43.08 0 7.53 7.53 0 0 0 8.82-7.44 7.55 7.55 0 0 0-7.56-7.55z"/><path fill="#FFD829" d="m1686.92 170.31.03 8"/><path d="M1686.95 180.31a2 2 0 0 1-2-1.99l-.03-8a2 2 0 1 1 4-.01l.03 8a2 2 0 0 1-2 2z"/><circle cx="1675.2" cy="173.21" r="3.64"/><circle cx="1698.19" cy="173.34" r="3.64"/><path fill="#2E9AFF" d="M1679.44 185.55a8.54 8.54 0 0 0 7.42 4.35c3.2 0 5.94-1.76 7.42-4.35h-14.84z"/><path d="M1708.4 166.79c-5.06-16.44-21.54-15.37-21.54-15.37s-16.48-1.07-21.54 15.37c0 0 14.53-.68 21.54-15.37 7 14.69 21.54 15.37 21.54 15.37zm-150.83 9.71c-.3 0-.62-.07-.9-.22l-28.9-14.77a2 2 0 0 1-.08-3.52l28.08-16.03a2 2 0 0 1 1.99 3.48l-24.88 14.2 25.6 13.08a2 2 0 0 1-.9 3.78zm-75.73-42.91c-.3 0-.61-.07-.9-.22l-28.9-14.77a2 2 0 0 1-.08-3.52l28.08-16.03a2 2 0 0 1 1.99 3.47l-24.88 14.2 25.6 13.09a2 2 0 0 1-.9 3.78zm71.81-41.77c-.3 0-.62-.07-.9-.22l-28.9-14.77a2 2 0 0 1-.08-3.52l28.08-16.03a2 2 0 0 1 1.99 3.48l-24.88 14.2 25.6 13.08a2 2 0 0 1-.9 3.78zm70.55-25.36c-.3 0-.61-.07-.9-.22l-28.9-14.77a2 2 0 0 1-.08-3.52l28.09-16.03a2 2 0 0 1 1.98 3.48l-24.87 14.2 25.6 13.08a2 2 0 0 1-.91 3.78zm82.67-33.09c-.31 0-.62-.07-.91-.22l-28.9-14.77a2 2 0 0 1-.08-3.52l28.09-16.03a2 2 0 0 1 1.98 3.48l-24.87 14.2 25.6 13.08a2 2 0 0 1-.91 3.78z"/><path fill="none" d="m1913.03 1009.38-3.25-2.25-456.66-.34-2.47 19.05a23.95 23.95 0 0 0 23.93 23.96l83.83.06 198.54.15 139.15.1a23.89 23.89 0 0 0 16.93-40.73z"/></svg>