<svg xmlns="http://www.w3.org/2000/svg" viewBox="0 0 1080 1080" xml:space="preserve"><circle fill="#FFF" cx="316.02" cy="115.37" r="90.35"/><path d="M54.72 69.77v-4.03h7.14V43.8h-7.14v-4.03h7.14v-1.68c0-3.76.98-6.48 2.94-8.16 1.96-1.68 4.76-2.52 8.4-2.52 1.32 0 2.5.08 3.54.24 1.04.16 2.16.48 3.36.96l-1.08 3.9a12.22 12.22 0 0 0-2.99-.87c-.95-.14-1.83-.2-2.62-.2-2.63 0-4.43.64-5.38 1.94-.96 1.3-1.43 3.43-1.43 6.4h12.42v4.01H66.6v21.96h12.42v4.02h-24.3zm37.01 0v-4.03h10.44V43.8H91.73v-4.03h15.18v25.98h10.2v4.02H91.73zm8.77-38.53c0-1.08.36-2 1.08-2.78a3.59 3.59 0 0 1 2.76-1.18c1.16 0 2.13.4 2.9 1.17a3.8 3.8 0 0 1 1.18 2.8c0 1.03-.4 1.91-1.17 2.63a4.13 4.13 0 0 1-2.91 1.08 3.74 3.74 0 0 1-2.76-1.08 3.6 3.6 0 0 1-1.08-2.64zm36.12 23.16-11.58-14.64h6l8.64 11.28 8.88-11.28h5.4l-11.58 14.4 12.3 15.6h-5.76l-9.54-12.3-9.72 12.3h-5.47l12.43-15.36zm52.56 11.58c-.73.64-1.57 1.24-2.56 1.8s-2.05 1.04-3.2 1.44a23.53 23.53 0 0 1-7.45 1.26c-2.4 0-4.52-.37-6.36-1.1A12.25 12.25 0 0 1 165 66.2a13.84 13.84 0 0 1-2.82-4.96 20.4 20.4 0 0 1-.96-6.48c0-2.52.35-4.76 1.05-6.72.7-1.95 1.71-3.6 3.03-4.92a13.2 13.2 0 0 1 4.8-3.03c1.88-.7 3.98-1.05 6.3-1.05 1.68 0 3.34.23 4.98.66a9.84 9.84 0 0 1 4.35 2.5 11.88 11.88 0 0 1 2.91 5.03c.68 2.14.92 4.91.72 8.31H166.2c0 3.6.97 6.3 2.9 8.07 1.94 1.78 4.52 2.67 7.76 2.67 1.07 0 2.14-.13 3.2-.39s2.06-.57 3.02-.93c.96-.36 1.8-.76 2.54-1.2a11 11 0 0 0 1.7-1.2l1.87 3.42zM176.54 43c-1.31 0-2.56.15-3.74.43a7.75 7.75 0 0 0-5.32 3.99 10.4 10.4 0 0 0-1.1 3.92h18.6c-.2-2.64-1.05-4.68-2.55-6.14a8.05 8.05 0 0 0-5.89-2.2zm37.77-15.23h9.78V59.5c0 .36.02.81.06 1.35a62.61 62.61 0 0 0 .6 5.02h4.02v3.9h-8.03l-.6-4.62h-.25a10.6 10.6 0 0 1-3.92 3.8 11.64 11.64 0 0 1-6.01 1.53c-4.51 0-7.83-1.27-9.97-3.8-2.13-2.55-3.2-6.5-3.2-11.86 0-2.52.36-4.75 1.08-6.69a12.93 12.93 0 0 1 3.08-4.86 13.34 13.34 0 0 1 4.82-2.97 18.33 18.33 0 0 1 6.28-1.02c.84 0 1.59.02 2.24.06s1.27.1 1.83.18c.56.09 1.09.2 1.59.33.5.15 1.04.3 1.64.45v-8.52h-5.04v-4.02zm-3.57 38.7c2.43 0 4.35-.64 5.74-1.9 1.4-1.26 2.36-3.14 2.87-5.67V44.98a9.28 9.28 0 0 0-2.96-1.32 18.1 18.1 0 0 0-4.33-.42c-3.2 0-5.7.93-7.54 2.8-1.83 1.85-2.75 4.78-2.75 8.78 0 1.64.15 3.17.45 4.6.3 1.41.8 2.64 1.5 3.68a7.36 7.36 0 0 0 2.78 2.46c1.15.6 2.57.9 4.24.9z"/><path d="M226.25 102.26H51.13A51.19 51.19 0 0 1 0 51.13 51.19 51.19 0 0 1 51.13 0h175.13a51.19 51.19 0 0 1 51.13 51.13 51.19 51.19 0 0 1-51.13 51.13zM51.13 4C25.14 4 4 25.14 4 51.13s21.14 47.13 47.13 47.13h175.13c25.98 0 47.13-21.14 47.13-47.13S252.23 4 226.25 4H51.13z"/><path fill="#FFF" d="M92.78 643.68h22.04v281.16H92.78z"/><path d="M38.93 861.88A36.93 36.93 0 0 0 2 898.81v128.46a32.76 32.76 0 0 0 32.76 32.76h4l.3-65.14-.13-133z"/><path d="M40.75 1062.03h-6A34.8 34.8 0 0 1 0 1027.27V898.8a38.97 38.97 0 0 1 38.93-38.92h2l.12 135-.3 67.14zm-3.82-198.1A34.98 34.98 0 0 0 4 898.81v128.46a30.8 30.8 0 0 0 30.77 30.76h2.01l.29-63.15-.13-130.95z"/><path d="M200.4 1062.03H37.04l.3-67.15-.3-301.38a52.08 52.08 0 0 1 14.13-35.8 50.05 50.05 0 0 1 36.8-16.02h114.28a29.16 29.16 0 0 1 29.13 29.14v360.2c0 17.1-13.9 31-31 31zm-159.34-4H200.4c14.9 0 27-12.11 27-27V670.82a25.16 25.16 0 0 0-25.13-25.14H87.97a46.08 46.08 0 0 0-33.88 14.75 48.1 48.1 0 0 0-13.04 33.06l.3 301.4-.29 63.14z"/><path d="M142.4 1062.03H65.2V933.17c0-5.7 4.63-10.32 10.33-10.32h56.54c5.69 0 10.32 4.63 10.32 10.32v128.86zm-73.2-4h69.2V933.17a6.34 6.34 0 0 0-6.33-6.33H75.53a6.34 6.34 0 0 0-6.33 6.33v124.86zm86.13-480.33h-21.1l-17.01 65.98h21.1z"/><path d="M139.87 645.68h-25.23l18.04-69.97h25.22l-18.03 69.97zm-20.08-4h16.98l15.98-61.98h-16.98l-15.98 61.98z"/><path d="M159.37 645.68h-25.1V575.7h25.1v69.97zm-21.1-4h17.11V579.7h-17.11v61.98z"/><path fill="#2E9AFF" d="M229.47 812.13h102.79v52.16H229.47z"/><path d="M332.26 866.28h-102.8a2 2 0 0 1-1.99-2v-52.15c0-1.1.9-2 2-2h102.79a2 2 0 0 1 2 2v52.16a2 2 0 0 1-2 2zm-100.8-3.99h98.8v-48.17h-98.8v48.17z"/><path fill="#2E9AFF" d="M395.76 730.06h-.02c0-.55 0-1.1-.02-1.65-1.62-61.26-52.59-109.62-113.85-108-50.69 1.33-92.54 36.45-104.57 83.24a38.1 38.1 0 1 0 6.97 74.74 110.98 110.98 0 0 0 103.44 63.87c51.54-1.36 93.95-37.66 105.14-85.63a13.44 13.44 0 0 0 16.75-13.44 13.49 13.49 0 0 0-13.84-13.13z"/><path d="M284.77 844.3a113 113 0 0 1-101.6-63.58c-2.57.58-5.19.9-7.8.98a39.75 39.75 0 0 1-28.65-11 39.82 39.82 0 0 1-12.49-28.02 40.14 40.14 0 0 1 41.56-41.12 113.81 113.81 0 0 1 38.04-58.13 111.92 111.92 0 0 1 67.99-25.02c62.24-1.63 114.14 47.57 115.89 109.73a15.5 15.5 0 0 1 13.89 15 15.5 15.5 0 0 1-17.25 15.8 112.97 112.97 0 0 1-109.58 85.35zm-99.4-68.28.71 1.52a109.07 109.07 0 0 0 101.58 62.72c49.54-1.3 92-35.88 103.25-84.08l.46-1.98 1.97.5a11.5 11.5 0 0 0 14.27-11.44 11.5 11.5 0 0 0-11.7-11.2l-2.14.3-.03-2.77c0-.38 0-.75-.02-1.13-1.58-60.06-51.75-107.62-111.8-106.06-48.41 1.28-90.64 34.9-102.68 81.75l-.42 1.62-1.67-.13c-1.27-.1-2.54-.13-3.79-.1a36.14 36.14 0 0 0-35.13 37.03 35.86 35.86 0 0 0 11.24 25.24 35.9 35.9 0 0 0 34.28 8.65l1.62-.44z"/><path d="M354.56 645.04c-21.7-16.36-45.22-25.36-72.69-24.64-50.69 1.34-93.26 38.6-105.28 85.38 0 0 147.97 45.7 177.97-60.74zm15.89 140.8c-13.87 0-22.92-9.2-23.04-9.32a2 2 0 0 1 2.88-2.77c.56.58 13.91 14.04 33.08 5.07a2 2 0 0 1 1.7 3.62 34.22 34.22 0 0 1-14.62 3.4zm-44.68-32.34c-12 0-23.3-5.78-30.34-15.58a2 2 0 0 1 3.25-2.33 33.34 33.34 0 0 0 54.97-1.13 2 2 0 0 1 3.33 2.18 37.33 37.33 0 0 1-31.2 16.87z"/><path fill="#FFD829" d="m162.33 731.38 24.08 25.11"/><path d="M186.4 758.49c-.52 0-1.04-.21-1.44-.62l-24.07-25.1a2 2 0 0 1 2.88-2.77l24.08 25.1a2 2 0 0 1-1.44 3.39z"/><path fill="#FFF" d="M231.32 859.4v80.65c.4 68.74 56.9 123.89 125.64 123.49l334.24-1.94-1.2-204.87-458.68 2.67z"/><path d="m632.9 857.08 57.12-.34 1.19 204.87-57.12.34z"/><path fill="#FFF" d="M830.9 772.42a2.85 2.85 0 0 1 2.86 2.84l.75 200.62 136.62-10.4-.7-226.07c-.2-65.57-53.43-118.6-119-118.54l-38.2.05C743.98 621 688 677.3 688.26 746.54l.07 315.09c77.6-.01 140.4-63.13 140.02-140.73l-.7-145.2a3.26 3.26 0 0 1 3.24-3.28zm249.55 266.3-1.83-1.26-256.73-.19-1.39 10.7c0 7.44 6.02 13.47 13.45 13.48l47.13.03 111.63.09 78.22.06a13.43 13.43 0 0 0 9.52-22.9z"/><path d="M977.52 967.63v-6.53a11.34 11.34 0 0 0-11.3-11.32l-29.77-.02a11.34 11.34 0 0 0-11.32 11.3v3.12l-90.66-.06-12.58 73.15 256.73.19-101.1-69.83zm25.6 40.01-19.75.98-5.28-19.08-19.76.97-2.6-9.45-3.09-11.16 3.85-1.07 3.38 12.23 1.46 5.3 19.76-.97 5.27 19.08 19.77-.97 5.27 19.08 18.18-.89.2 4-21.38 1.03-5.27-19.08z"/><path fill="#FFF" d="m958.33 990.51 19.77-.97 5.27 19.08 19.76-.97 5.27 19.07 21.37-1.04-.19-3.99-18.18.89-5.27-19.08-19.77.97-5.27-19.07-19.76.97-1.46-5.3-4.15-.01zm-5.69-20.61 3.08 11.16 4.15.01-3.38-12.23z"/><path fill="#2E9AFF" d="m490.13 1076.23-160.91-55.13-10.95-108.98 167.76 61.66 32.65-57.07h-.03c.73-6.27-3.13-13.31-5.45-16.89a38.92 38.92 0 0 1-8.34-27.91l-2.93-40.69a11.9 11.9 0 0 1 1.07-6.07c2.28-5.18 7.27-8.84 12.93-8.74a13.8 13.8 0 0 1 13.55 14.06c0 .02.06.02.06.02l-.41 23.77.63.1 9.6-35.68a12.86 12.86 0 0 1 2.94-6.31 14.15 14.15 0 0 1 8.81-5c10.4-1.45 17.78 8.77 15.33 17.81 0 .02.06.04.06.04l-7.11 25.29.11.02 7-25.31a13.8 13.8 0 0 1 26.65 7.2c-.01.02.05.03.05.03l-7.06 25.3.11.02 6.96-25.32c1.98-7.35 9.33-12.42 16.68-10.44 7.36 2 11.99 9.03 10 16.39-.86 3.27-4.51 17.4-4.51 17.4l-2.49 9.17.12.03 4.98-19.03c.07-.42-.12.42 0 0 1.99-7.36 8.88-12.64 16.24-10.65a13.87 13.87 0 0 1 9.78 16.96c-.01.02 0 0 0 0l-8.48 33.3a135.5 135.5 0 0 1-6.03 18.1 67.88 67.88 0 0 1-12.26 19.35 73.63 73.63 0 0 0-11.22 16.78l.1.02-54.87 107.77a54.9 54.9 0 0 1-61.12 28.63z"/><path d="M502.36 1079.6a57.1 57.1 0 0 1-12.87-1.48l-160.92-55.14a2 2 0 0 1-1.34-1.69l-10.95-108.97a2 2 0 0 1 2.68-2.07l166.17 61.07 31.57-55.19c.47-5.5-2.96-11.79-5.13-15.14a41.13 41.13 0 0 1-8.72-29.1l-2.91-40.52c-.13-1.8-.08-4.04 1.23-7.02 2.67-6.06 8.35-9.94 14.53-9.94h.26a15.7 15.7 0 0 1 11.1 4.84 15.68 15.68 0 0 1 4.42 10.76 2 2 0 0 1 .06.52l-.18 10.17 6.05-22.45a14.95 14.95 0 0 1 3.35-7.16 16.06 16.06 0 0 1 10.08-5.7 15.38 15.38 0 0 1 13.86 5.17 16.94 16.94 0 0 1 3.76 7.29 15.8 15.8 0 0 1 26.65 7.01c3.86-4.25 9.67-6.3 15.3-4.77 7.58 2.05 12.36 8.69 11.9 15.85a14.23 14.23 0 0 1 12.44-2.54 15.77 15.77 0 0 1 9.6 7.4 15.67 15.67 0 0 1 1.58 11.99l-8.46 33.28c-2.08 7.68-3.97 13.35-6.14 18.4a70.14 70.14 0 0 1-12.62 19.9 70.98 70.98 0 0 0-10.64 15.82c-.03.19-.09.38-.18.55l-54.87 107.77a56.84 56.84 0 0 1-50.66 31.1zm-11.68-5.3a52.86 52.86 0 0 0 58.78-27.6l54.6-107.25c.04-.18.09-.36.17-.53a75.15 75.15 0 0 1 11.53-17.23 65.33 65.33 0 0 0 11.9-18.8c2.1-4.87 3.93-10.37 5.95-17.83l8.44-33.2.04-.15c.8-3.02.38-6.19-1.2-8.92a11.8 11.8 0 0 0-7.18-5.54c-6.58-1.78-12.18 3.3-13.8 9.24l-4.97 19.02a2 2 0 0 1-2.41 1.43l-.12-.03a2 2 0 0 1-1.44-2.46l2.48-9.17 4.5-17.39c1.65-6.08-2.12-12.2-8.58-13.95-6.06-1.64-12.45 2.42-14.24 9.04l-6.95 25.32a1.99 1.99 0 0 1-2.4 1.4l-.12-.02a2 2 0 0 1-1.44-2.48l6.93-24.81a2 2 0 0 1 .07-.49 11.81 11.81 0 0 0-22.79-6.16v.02l-7 25.3a2 2 0 0 1-2.42 1.41l-.1-.03a2 2 0 0 1-1.44-2.47l6.98-24.81a2.9 2.9 0 0 1 .07-.5c1.06-3.9-.02-8.3-2.82-11.46-2.63-3-6.4-4.4-10.3-3.85a12.1 12.1 0 0 0-7.57 4.3 10.91 10.91 0 0 0-2.54 5.55l-9.6 35.67a2 2 0 0 1-2.2 1.46l-.63-.09a2 2 0 0 1-1.72-2.01l.4-23.3a2.06 2.06 0 0 1-.05-.5 11.72 11.72 0 0 0-3.3-8.41 11.72 11.72 0 0 0-8.3-3.61c-4.63-.05-9 2.88-11.06 7.55a9.89 9.89 0 0 0-.9 5.12l2.92 40.69v.32a37.12 37.12 0 0 0 8.03 26.65c2.46 3.8 6.45 11.14 5.79 17.92 0 .36-.07.72-.26 1.04l-32.65 57.07a2 2 0 0 1-2.42.89L320.58 915.1l10.5 104.52 159.6 54.69z"/><path d="M259.26 919.44c-16.62 38.87 1.08 83.7 39.53 100.14l77.72 33.23 60.18-140.75-77.72-33.23c-38.45-16.44-83.1 1.74-99.71 40.61zm269-274.94a3.4 3.4 0 0 0-1.5-2.96c-.99-.7-2.22-1.26-3.7-1.68s-3.08-.81-4.82-1.17a27.7 27.7 0 0 1-4.81-1.44 10.77 10.77 0 0 1-3.71-2.43c-1-1.02-1.5-2.45-1.5-4.3 0-1.51.33-2.81 1-3.9s1.52-1.96 2.6-2.66c1.08-.7 2.34-1.22 3.78-1.56 1.44-.34 2.94-.51 4.5-.51a22.18 22.18 0 0 1 12.06 3.24l-1.91 3.78a50.52 50.52 0 0 0-4.28-2.07 14.66 14.66 0 0 0-5.77-1c-.88 0-1.75.1-2.6.28-.86.18-1.64.45-2.34.8s-1.25.84-1.67 1.42a3.54 3.54 0 0 0-.63 2.13c0 1.04.5 1.84 1.5 2.4 1 .56 2.23 1.03 3.7 1.4 1.48.39 3.09.75 4.82 1.09 1.74.34 3.34.83 4.82 1.47s2.7 1.5 3.7 2.58a6.2 6.2 0 0 1 1.5 4.38 8.5 8.5 0 0 1-3.27 6.84c-2.18 1.8-5.45 2.7-9.81 2.7a21.1 21.1 0 0 1-3.9-.36 23.67 23.67 0 0 1-6.66-2.31c-.92-.5-1.68-1.01-2.28-1.53l2.4-3.9c.47.48 1.1.97 1.9 1.47a17.99 17.99 0 0 0 5.72 2.31 16.03 16.03 0 0 0 6.34.09 8.83 8.83 0 0 0 2.49-.84 4.62 4.62 0 0 0 1.7-1.5c.42-.62.63-1.37.63-2.25zm11.64-21.9h7.14v-5.93l4.74-1.32v7.26h16.02v4.02h-16.02v14.16c0 2.92.7 5.08 2.12 6.48s3.44 2.1 6.07 2.1c1.8 0 3.36-.34 4.7-1.02a25.26 25.26 0 0 0 3.62-2.22l1.55 3.54a16.86 16.86 0 0 1-5 2.7 17.93 17.93 0 0 1-5.98 1.02c-1.6 0-3.11-.23-4.53-.69a10.36 10.36 0 0 1-3.75-2.13 10.19 10.19 0 0 1-2.58-3.69c-.64-1.5-.96-3.29-.96-5.37v-14.88h-7.14v-4.02zm40.62 2.35c1.72-1 3.66-1.72 5.82-2.16 2.16-.44 4.28-.66 6.36-.66 2.04 0 3.71.32 5.01.96a8.13 8.13 0 0 1 4.56 5.97 20 20 0 0 1 .4 3.93c0 1.52-.05 3.14-.13 4.86a222.3 222.3 0 0 0-.18 5.16c0 2 .12 3.9.36 5.7h4.02v3.9h-7.92l-.54-4.5h-.3c-.24.36-.6.82-1.08 1.38a9.8 9.8 0 0 1-1.9 1.65 11.88 11.88 0 0 1-6.83 2.01c-2.97 0-5.32-.76-7.04-2.28-1.73-1.52-2.59-3.6-2.59-6.24 0-2.04.45-3.74 1.35-5.1.9-1.36 2.2-2.4 3.89-3.12a17.89 17.89 0 0 1 6.1-1.26c2.4-.12 5.07.04 8.04.48.2-1.84.23-3.37.1-4.6a6.33 6.33 0 0 0-.97-2.9 4.03 4.03 0 0 0-2.1-1.53c-.91-.3-2.03-.45-3.35-.45-1.8 0-3.53.25-5.18.75-1.64.5-3.1 1-4.4 1.53l-1.5-3.48zm8.88 24.18c1.12 0 2.16-.18 3.12-.54a9.48 9.48 0 0 0 4.32-3.21 8.9 8.9 0 0 0 1.08-1.9v-4.2c-2.08-.35-4-.53-5.76-.53-1.76 0-3.28.19-4.56.57a6.36 6.36 0 0 0-3 1.77 4.48 4.48 0 0 0-1.08 3.12c0 1.32.45 2.47 1.35 3.45.9.98 2.41 1.47 4.53 1.47zm22.5-26.53h7.14v-5.93l4.74-1.32v7.26h16.02v4.02h-16.02v14.16c0 2.92.7 5.08 2.12 6.48s3.44 2.1 6.07 2.1c1.8 0 3.36-.34 4.7-1.02a25.26 25.26 0 0 0 3.61-2.22l1.56 3.54a16.86 16.86 0 0 1-5.01 2.7 17.93 17.93 0 0 1-5.97 1.02c-1.6 0-3.11-.23-4.53-.69a10.36 10.36 0 0 1-3.75-2.13 10.19 10.19 0 0 1-2.58-3.69c-.64-1.5-.96-3.29-.96-5.37v-14.88h-7.14v-4.02zm40.44 30v-4.01h10.44v-21.96h-10.44v-4.02h15.18v25.98h10.2v4.02h-25.38zm8.76-38.51c0-1.08.36-2.01 1.08-2.8a3.6 3.6 0 0 1 2.76-1.16c1.16 0 2.13.39 2.91 1.17a3.8 3.8 0 0 1 1.17 2.79c0 1.04-.39 1.92-1.17 2.64a4.12 4.12 0 0 1-2.91 1.08 3.73 3.73 0 0 1-2.76-1.08 3.6 3.6 0 0 1-1.08-2.64zm47.28 13.14a22.1 22.1 0 0 0-2.97-.81 15.47 15.47 0 0 0-3.15-.33c-3.92 0-6.84.92-8.76 2.77s-2.88 4.77-2.88 8.78c0 1.76.28 3.34.84 4.72a9.63 9.63 0 0 0 2.4 3.52c1.04.96 2.29 1.7 3.75 2.23a15.86 15.86 0 0 0 14.79-2.76l2.1 3.48c-.56.48-1.26.98-2.1 1.5a20.57 20.57 0 0 1-10.92 3c-2.6 0-4.9-.37-6.87-1.11a13.05 13.05 0 0 1-4.95-3.18 13.61 13.61 0 0 1-3-4.98 19.36 19.36 0 0 1-1.02-6.45c0-2.52.35-4.76 1.05-6.72.7-1.96 1.7-3.6 3.03-4.92a13.16 13.16 0 0 1 4.8-3.03c1.88-.7 3.98-1.05 6.3-1.05 2.96 0 5.37.26 7.23.78a27 27 0 0 1 4.7 1.74l-.05.18v8.34h-4.32v-5.7z"/><path d="M722.86 685.1H498.74c-28.2 0-51.13-22.94-51.13-51.13s22.93-51.13 51.13-51.13h224.12c28.2 0 51.13 22.94 51.13 51.13s-22.94 51.13-51.13 51.13zm-224.12-98.25c-26 0-47.13 21.14-47.13 47.12s21.14 47.13 47.13 47.13h224.12c25.99 0 47.13-21.14 47.13-47.13s-21.14-47.12-47.13-47.12H498.74z"/><path fill="#FFF" d="M235.4 381.3c-4.95 0-9.59 1.3-13.6 3.58a40.1 40.1 0 0 0-76.78-.1 27.6 27.6 0 1 0-13.43 51.7h103.8a27.6 27.6 0 0 0 0-55.19zm697-298.75c-4.94 0-9.58 1.3-13.6 3.59a40.1 40.1 0 0 0-76.77-.1 27.6 27.6 0 1 0-13.43 51.7h103.8a27.6 27.6 0 0 0 0-55.2z"/><path d="M745.4 268.26c1.72-1 3.66-1.72 5.82-2.16 2.16-.44 4.28-.66 6.36-.66 2.04 0 3.7.32 5 .96a8.16 8.16 0 0 1 4.57 5.97c.26 1.3.39 2.6.39 3.93 0 1.52-.04 3.14-.12 4.86s-.14 3.44-.18 5.16c0 2 .12 3.9.36 5.7h4.02v3.9h-7.93l-.53-4.5h-.3c-.24.36-.6.82-1.09 1.38a9.83 9.83 0 0 1-1.9 1.65 11.84 11.84 0 0 1-6.83 2.01c-2.96 0-5.3-.76-7.03-2.28-1.73-1.52-2.6-3.6-2.6-6.24 0-2.04.46-3.74 1.36-5.1.9-1.36 2.2-2.4 3.89-3.12s3.72-1.14 6.1-1.26 5.07.04 8.04.48c.2-1.84.23-3.37.09-4.6a6.33 6.33 0 0 0-.96-2.9 4.04 4.04 0 0 0-2.11-1.53c-.9-.3-2.02-.45-3.34-.45-1.81 0-3.54.25-5.18.75-1.65.5-3.11 1-4.4 1.53l-1.5-3.48zm8.88 24.18c1.12 0 2.16-.18 3.12-.54a9.49 9.49 0 0 0 4.32-3.21 8.8 8.8 0 0 0 1.08-1.9v-4.2c-2.08-.35-4-.53-5.76-.53-1.76 0-3.28.19-4.56.57a6.36 6.36 0 0 0-3 1.77 4.48 4.48 0 0 0-1.08 3.12c0 1.32.45 2.47 1.35 3.45.9.98 2.4 1.47 4.53 1.47zm20.76-38.52h9.6v15.42h.3a10.27 10.27 0 0 1 4.02-3.06 13.14 13.14 0 0 1 5.34-1.08c8.8 0 13.2 5.08 13.2 15.24 0 5.16-1.42 9.1-4.26 11.85-2.84 2.74-6.88 4.1-12.12 4.1-2.48 0-4.72-.23-6.72-.71s-3.46-1.04-4.38-1.68v-36.06h-4.98v-4.02zm18.66 15.3c-2.4 0-4.34.68-5.82 2.04a11.86 11.86 0 0 0-3.24 5.76v13.8c.92.48 2.02.86 3.3 1.14 1.28.28 2.62.42 4.02.42 1.6 0 3.05-.23 4.35-.7a8.27 8.27 0 0 0 3.33-2.15 9.9 9.9 0 0 0 2.13-3.75c.5-1.52.75-3.32.75-5.4 0-1.52-.16-2.96-.48-4.32a10.51 10.51 0 0 0-1.53-3.57 7.37 7.37 0 0 0-2.73-2.4 8.78 8.78 0 0 0-4.08-.87zm43.44 18.6c0-1.28-.5-2.27-1.5-2.97-1-.7-2.23-1.26-3.7-1.68a68.2 68.2 0 0 0-4.82-1.17 27.73 27.73 0 0 1-4.82-1.44 10.78 10.78 0 0 1-3.7-2.43c-1-1.02-1.5-2.45-1.5-4.3a7.39 7.39 0 0 1 3.59-6.56c1.09-.7 2.35-1.22 3.79-1.56 1.44-.34 2.94-.51 4.5-.51a22.18 22.18 0 0 1 12.06 3.24l-1.92 3.78c-1.31-.72-2.74-1.41-4.27-2.07s-3.46-1-5.78-1c-.87 0-1.74.1-2.6.28-.85.18-1.63.45-2.33.8-.7.37-1.26.84-1.67 1.42a3.54 3.54 0 0 0-.63 2.13c0 1.04.5 1.84 1.5 2.4a15 15 0 0 0 3.7 1.4c1.48.39 3.08.75 4.82 1.09 1.73.34 3.34.83 4.81 1.47 1.48.64 2.71 1.5 3.71 2.58s1.5 2.54 1.5 4.38a8.5 8.5 0 0 1-3.27 6.84c-2.19 1.8-5.45 2.7-9.81 2.7a23.54 23.54 0 0 1-10.56-2.67c-.93-.5-1.69-1.01-2.28-1.53l2.39-3.9c.48.48 1.12.97 1.91 1.47a17.89 17.89 0 0 0 9.04 2.67c1.07 0 2.08-.1 3.02-.27a8.83 8.83 0 0 0 2.48-.84 4.6 4.6 0 0 0 1.7-1.5 3.9 3.9 0 0 0 .64-2.25zm13.2-6.9c0-4.84 1.26-8.67 3.78-11.5 2.52-2.81 6.12-4.22 10.8-4.22 2.52 0 4.68.4 6.5 1.23a12.8 12.8 0 0 1 7.2 8.3c.59 1.93.88 3.99.88 6.19 0 2.4-.32 4.57-.96 6.5a12.45 12.45 0 0 1-7.41 8.1c-1.82.75-3.9 1.12-6.21 1.12-2.48 0-4.65-.41-6.48-1.23a12.7 12.7 0 0 1-7.23-8.31 21.24 21.24 0 0 1-.87-6.18zm4.98 0c0 1.4.16 2.8.5 4.2.34 1.4.9 2.66 1.65 3.78a8.55 8.55 0 0 0 2.96 2.7 9 9 0 0 0 4.46 1.02c3.19 0 5.59-1 7.2-2.97 1.62-1.98 2.43-4.9 2.43-8.73 0-1.44-.17-2.85-.51-4.23a11.2 11.2 0 0 0-1.68-3.75 8.84 8.84 0 0 0-2.99-2.7 9.01 9.01 0 0 0-4.45-1.02c-3.2 0-5.59.98-7.18 2.94-1.6 1.96-2.4 4.88-2.4 8.76zm34.74-27h10.02v31.92c0 2.44.4 4.16 1.23 5.16.82 1 2.03 1.5 3.63 1.5a8.7 8.7 0 0 0 3.2-.6c1.03-.4 2.16-1.08 3.4-2.04l2.16 3.3a15.45 15.45 0 0 1-6.86 3.3 12.79 12.79 0 0 1-6.2-.33 6.79 6.79 0 0 1-2.93-1.83c-.78-.84-1.37-1.95-1.77-3.33s-.6-3.1-.6-5.13v-27.9h-5.28v-4.02zm50.57 12h8.58v20.46c0 1.96.12 3.84.36 5.64h4.03v3.9h-8.04l-.18-5.1h-.24a12.59 12.59 0 0 1-4.13 4.2 11.45 11.45 0 0 1-6.23 1.62c-1.83 0-3.4-.21-4.7-.63s-2.35-1.15-3.2-2.2a10.17 10.17 0 0 1-1.85-4.16c-.4-1.74-.6-3.91-.6-6.51v-13.2h-4.02v-4.02h8.76v16.26c0 1.64.07 3.1.21 4.4s.43 2.4.87 3.3c.43.9 1.08 1.59 1.93 2.05.86.46 2 .69 3.43.69 2.06 0 3.85-.68 5.38-2.04a13.01 13.01 0 0 0 3.49-5.1v-15.54h-3.84v-4.02zm16.14 0h7.14v-5.94l4.74-1.32v7.26h16.02v4.02h-16.02v14.16c0 2.92.71 5.08 2.13 6.48s3.44 2.1 6.07 2.1c1.79 0 3.35-.34 4.69-1.02s2.54-1.42 3.62-2.22l1.55 3.54a16.86 16.86 0 0 1-5 2.7 17.93 17.93 0 0 1-5.98 1.02c-1.6 0-3.1-.23-4.53-.7-1.42-.45-2.67-1.16-3.75-2.12s-1.94-2.2-2.58-3.7c-.64-1.5-.96-3.28-.96-5.36v-14.88h-7.14v-4.02zm65.88 26.22a15.1 15.1 0 0 1-2.55 1.8c-.98.56-2.05 1.04-3.2 1.44a23.58 23.58 0 0 1-7.45 1.26c-2.4 0-4.52-.37-6.36-1.11a12.22 12.22 0 0 1-4.62-3.18 13.83 13.83 0 0 1-2.82-4.95 20.4 20.4 0 0 1-.96-6.48c0-2.52.35-4.76 1.05-6.72.7-1.96 1.71-3.6 3.03-4.92a13.2 13.2 0 0 1 4.8-3.03c1.88-.7 3.98-1.05 6.3-1.05 1.69 0 3.34.22 4.98.66a9.86 9.86 0 0 1 4.35 2.49 11.88 11.88 0 0 1 2.91 5.04c.68 2.14.92 4.9.72 8.3h-23.16c0 3.6.97 6.3 2.9 8.08 1.94 1.78 4.52 2.67 7.76 2.67 1.07 0 2.14-.13 3.2-.4 1.06-.25 2.06-.56 3.02-.92s1.8-.76 2.54-1.2c.74-.44 1.3-.84 1.7-1.2l1.86 3.42zm-12.63-22.98c-1.32 0-2.56.14-3.74.42a7.74 7.74 0 0 0-5.32 3.99 10.37 10.37 0 0 0-1.1 3.93h18.6c-.2-2.64-1.05-4.7-2.55-6.15a8.09 8.09 0 0 0-5.89-2.2z"/><path d="M1027.87 328.41H742.61a51.19 51.19 0 0 1-51.13-51.13 51.19 51.19 0 0 1 51.13-51.13h285.26a51.19 51.19 0 0 1 51.13 51.13 51.19 51.19 0 0 1-51.13 51.13zm-285.26-98.26c-25.99 0-47.13 21.14-47.13 47.13s21.14 47.13 47.13 47.13h285.26c25.99 0 47.13-21.14 47.13-47.13s-21.14-47.13-47.13-47.13H742.61z"/><path fill="#FFF" d="M754.94 469.1a12.77 12.77 0 0 1-3.62-.53l-70.1-27.94a2 2 0 1 1 1.49-3.71l69.99 27.9c2.7.7 5.67.08 7.97-1.67a8.29 8.29 0 0 0 3.4-6.7V369a7.98 7.98 0 0 0-3.35-6.54 7.97 7.97 0 0 0-7.28-1.1l-.12.04-138.7 37.47a2 2 0 0 1-1.05-3.86l138.65-37.46a11.93 11.93 0 0 1 10.83 1.66c3.2 2.3 5.03 5.86 5.03 9.8v87.46c0 3.86-1.82 7.46-4.98 9.87a13.53 13.53 0 0 1-8.16 2.77zm-145-64.64h-60.3a9.66 9.66 0 1 0 0 15.09h60.3a7.54 7.54 0 0 0 0-15.09z"/><path d="M634.32 433.78a7.54 7.54 0 0 1-6.67 7.49h66.05l-66.71-27.94-37.1-8.78v13.31c0 2.95.54 5.77 1.54 8.37h35.34a7.54 7.54 0 0 1 7.55 7.55z"/><path fill="#FFF" d="M626.77 426.23h-60.3a9.66 9.66 0 1 0 0 15.09h60.3a7.54 7.54 0 1 0 0-15.09z"/><path d="M810.22 408.92h-44.14v-19.18h35.36l11.74 12.21a4.11 4.11 0 0 1-2.96 6.97zm2.52 29.12h-46.67v-19.19h35.37l13.49 14.03a3.04 3.04 0 0 1-2.2 5.16z"/><path fill="#FFF" d="M633.77 393.79c-.37 0-.74.04-1.1.1a19.73 19.73 0 0 0-37.27 0 6.54 6.54 0 1 0 0 12.87 19.73 19.73 0 0 0 37.27 0 6.54 6.54 0 1 0 1.1-12.97z"/><path fill="#FFD829" d="m614.09 396.93.02 6.93"/><path d="M614.11 405.86a2 2 0 0 1-2-2l-.02-6.92a2 2 0 1 1 4-.01l.02 6.92a2 2 0 0 1-1.99 2z"/><circle cx="603.95" cy="399.44" r="3.15"/><circle cx="623.84" cy="399.56" r="3.15"/><path fill="#2E9AFF" d="M607.61 410.12a7.38 7.38 0 0 0 12.85 0h-12.85z"/><path d="M632.67 393.89c-4.37-14.23-18.63-13.3-18.63-13.3s-14.26-.93-18.64 13.3c0 0 12.57-.6 18.64-13.3a23.18 23.18 0 0 0 18.63 13.3zm-130.51 8.67c-.31 0-.62-.07-.91-.22l-25-12.78a2 2 0 0 1-.09-3.52l24.3-13.87a2 2 0 0 1 1.99 3.47l-21.1 12.04 21.72 11.1a2 2 0 0 1-.91 3.78zm-65.54-37.14c-.3 0-.61-.07-.9-.22l-25.01-12.78a2 2 0 0 1-.08-3.52l24.3-13.87a2 2 0 0 1 1.98 3.48l-21.09 12.03 21.71 11.1a2 2 0 0 1-.9 3.78zm62.14-36.14c-.3 0-.61-.07-.9-.22l-25.01-12.78a2 2 0 0 1-.08-3.52l24.3-13.87a2 2 0 0 1 1.99 3.48l-21.1 12.03 21.72 11.1a2 2 0 0 1-.92 3.78zm61.06-21.94a2 2 0 0 1-.91-.22l-25-12.79a2 2 0 0 1-.09-3.51l24.3-13.88a2 2 0 0 1 1.99 3.48l-21.1 12.04 21.72 11.1a2 2 0 0 1-.91 3.78zm71.53-28.64a2 2 0 0 1-.91-.22l-25-12.78a2 2 0 0 1-.09-3.52l24.3-13.87a2 2 0 0 1 2 3.47l-21.1 12.04 21.71 11.1a2 2 0 0 1-.91 3.78z"/></svg>