<svg xmlns="http://www.w3.org/2000/svg" viewBox="0 0 1080 1080" xml:space="preserve"><path fill="none" d="M597.96 520.85h-53.34l2.48 1.26-100.31 195.91h56.19l-4.73-2.42zm-56.45 0h-53.34l2.47 1.26-100.3 195.91h56.19l-4.74-2.42zm112.9 0h-53.33l2.47 1.26-100.31 195.91h56.19l-4.73-2.42zm56.46 0h-53.34l2.47 1.26-100.3 195.91h56.19l-4.74-2.42zm-225.82 0h-53.33l2.47 1.26-58.92 115.09v80.82h14.8l-4.73-2.42zm-109.78 0 2.47 1.26-2.47 4.83v98.07l53.33-104.16zm452.95 0h-1.33l1.33.68zm-4.45 0h-53.33l2.47 1.26L672.6 718.02h56.19l-4.73-2.42zm-38.26 197.17h42.71v-83.41zm42.71-95.59v-98.08l-99.16 193.67h56.19l-4.74-2.42zm-60.9-101.58h-53.34l2.48 1.26-100.31 195.91h56.19l-4.73-2.42z"/><path fill="#FFF" d="M375.27 520.85v6.09l2.47-4.83zm56.45 0h-3.12l-53.33 104.16v12.19l58.92-115.09zm56.45 0h-3.12L385.34 715.6l4.73 2.42h.27l100.3-195.91zm225.81 0h-3.11L611.15 715.6l4.74 2.42h.26l100.31-195.91zm-169.36 0h-3.11L441.79 715.6l4.74 2.42h.26L547.1 522.11zm225.82 0h-3.12L667.61 715.6l4.73 2.42h.26l100.31-195.91zm-169.36 0h-3.12L498.25 715.6l4.73 2.42h.26l100.31-195.91zm227.14.68-1.33-.68h-3.12L724.06 715.6l4.73 2.42h.27l99.16-193.67zm-170.69-.68h-3.12L554.7 715.6l4.73 2.42h.27L660 522.11zm170.69 101.58-47.71 93.17 4.74 2.42h.26l42.71-83.41z"/><path d="M326.4 216.42c-.04-.17-.1-.33-.15-.5h-.02a60.72 60.72 0 0 0-112.08-7.41 60.72 60.72 0 0 0-86.83 71.27h-.02l.16.5.07.24h.01c17.93 54.47 76.47 84.36 131.16 66.8 54.7-17.55 84.9-75.93 67.78-130.65h.01l-.08-.25z"/><path fill="#FFF" d="M830.22 521.67H374.11v-4h452.11V326.62H374.11v-4h456.11z"/><path fill="#FFF" d="M830.22 720.02H374.11v-4h452.11V521.67H374.11v-4h456.11z"/><path fill="#FFF" d="M830.22 914.67H374.11v-4h452.11V719.62H374.11v-4h456.11z"/><path fill="#FFD829" d="M68.44 324.62h305.67v588.04H68.44z"/><path d="M376.1 914.67H66.45V322.62H376.1v592.05zm-305.66-4H372.1V326.62H70.44v584.05z"/><path fill="#FFF" d="m186.64 492.58-31.79 18.32-31.79-18.32v-88.4l31.79-18.32 31.79 18.32zm0 174.73-31.79 18.32-31.79-18.32v-88.4l31.79-18.32 31.79 18.32zm0 170.64-31.79 18.32-31.79-18.32v-88.39l31.79-18.32 31.79 18.32zm126.17-345.37-31.79 18.32-31.79-18.32v-88.4l31.79-18.32 31.79 18.32zm0 174.73-31.79 18.32-31.79-18.32v-88.4l31.79-18.32 31.79 18.32zm0 170.64-31.79 18.32-31.79-18.32v-88.39l31.79-18.32 31.79 18.32z"/><path d="M825.22 992H68.66a58.45 58.45 0 0 1-58.45-58.44v-24.67h873.46v24.67A58.45 58.45 0 0 1 825.22 992z"/><path fill="#FFF" d="M834.03 992V849.36c0-4.74-10.3-8.58-23.02-8.58s-23.02 3.84-23.02 8.58V992h46.04z"/><circle cx="811.01" cy="779.64" r="88.53"/><circle cx="811.01" cy="698.05" r="79.14"/><circle cx="811.01" cy="611.26" r="67.55"/><path fill="#FFF" d="M1018.88 992V849.36c0-4.74-10.3-8.58-23.02-8.58-12.71 0-23.02 3.84-23.02 8.58V992h46.04z"/><circle cx="995.86" cy="786.72" r="79.14"/><circle cx="995.86" cy="699.93" r="67.55"/><path d="M212.3 209.28c-14.74-35.07-34.25-65.75-57.98-91.19a264.2 264.2 0 0 0-64.56-50.68C49.1 44.76 15.9 40.85 15.58 40.81l.44-3.98c.34.04 34.2 4 75.51 26.99a268.2 268.2 0 0 1 65.62 51.45c24.1 25.8 43.9 56.9 58.84 92.46l-3.69 1.55z"/><ellipse transform="rotate(-16.31 80.6 143.58)" fill="#FFF" cx="80.61" cy="143.57" rx="78.78" ry="32.66"/><path fill="#FFF" d="M1009.34 193.03c.02-.61.05-1.22.05-1.84a51.64 51.64 0 0 0-68.05-48.97 68.34 68.34 0 0 0-124.43-2.66 51.64 51.64 0 0 0-50.99 51.63c0 .62.03 1.23.05 1.84h243.37z"/></svg>