<svg xmlns="http://www.w3.org/2000/svg" xml:space="preserve" viewBox="0 0 1920 1080"><path d="M1739.402 1017.83V1076H180.598v-58.17h1558.804m4-4H176.598V1080h1566.804v-66.17z"/><path fill="#2E9AFF" fill-rule="evenodd" d="m1123.621 803.501-78.005 108.661v103.667h156.011V912.162z" clip-rule="evenodd"/><path d="M1201.626 1017.829h-156.011a2 2 0 0 1-2-2V912.162c0-.419.131-.826.375-1.166l78.006-108.662a2.001 2.001 0 0 1 3.25 0l78.005 108.662c.244.34.375.747.375 1.166v103.667a2 2 0 0 1-2 2zm-154.01-4h152.011V912.806l-76.005-105.876-76.006 105.876v101.023z"/><path fill="#FFF" fill-rule="evenodd" d="M1123.621 912.162c-10.042 0-18.182 8.141-18.182 18.183v30.494h36.365v-30.494c0-10.042-8.141-18.183-18.183-18.183z" clip-rule="evenodd"/><path d="M1352.644 914.162h-151.018a2.001 2.001 0 0 1-1.625-.834l-78.005-108.661a2 2 0 0 1 1.625-3.166h151.018c.645 0 1.249.311 1.625.834l78.005 108.661a2 2 0 0 1-1.625 3.166zm-149.991-4h146.094l-75.134-104.661h-146.094l75.134 104.661z"/><path fill="#2E9AFF" fill-rule="evenodd" d="M1201.627 912.162h151.018v103.668h-151.018z" clip-rule="evenodd"/><path d="M1352.644 1017.829h-151.018a2 2 0 0 1-2-2V912.162a2 2 0 0 1 2-2h151.018a2 2 0 0 1 2 2v103.667a2 2 0 0 1-2 2zm-149.018-4h147.018v-99.667h-147.018v99.667zM409.44 652.241a2.5 2.5 0 0 1 5 0 2.5 2.5 0 0 1-5 0zm-17.91 1.071a2.493 2.493 0 0 1-2.12-2.82 2.502 2.502 0 0 1 2.82-2.13 2.51 2.51 0 0 1 2.13 2.83 2.506 2.506 0 0 1-2.48 2.15c-.11 0-.23-.01-.35-.03zm37.99-2.14c-.2-1.37.75-2.63 2.12-2.83 1.37-.2 2.63.75 2.83 2.12a2.51 2.51 0 0 1-2.12 2.83c-.12.02-.24.029-.36.029-1.22 0-2.29-.899-2.47-2.149zm-57.99-2.181a2.489 2.489 0 0 1-1.7-3.1 2.5 2.5 0 0 1 3.1-1.69 2.492 2.492 0 0 1 1.7 3.091c-.32 1.1-1.32 1.8-2.4 1.8-.23 0-.47-.03-.7-.101zm77.71-1.739c-.38-1.32.37-2.71 1.7-3.101a2.5 2.5 0 0 1 3.1 1.69c.39 1.33-.37 2.72-1.69 3.109a2.506 2.506 0 0 1-3.11-1.698zm-96.91-5.4a2.506 2.506 0 0 1-1.23-3.32 2.494 2.494 0 0 1 3.31-1.229 2.5 2.5 0 0 1 1.24 3.31 2.513 2.513 0 0 1-2.28 1.471c-.35-.002-.7-.082-1.04-.232zm115.88-1.3a2.488 2.488 0 0 1 1.23-3.311 2.504 2.504 0 0 1 3.31 1.23c.58 1.26.02 2.74-1.23 3.32-.34.149-.69.22-1.04.22a2.475 2.475 0 0 1-2.27-1.459zm-133.84-8.521a2.49 2.49 0 0 1-.75-3.449c.74-1.16 2.29-1.5 3.45-.75a2.49 2.49 0 0 1 .75 3.449c-.47.75-1.28 1.15-2.1 1.15-.46.001-.93-.129-1.35-.4zm151.63-.809c-.74-1.16-.41-2.71.75-3.46s2.71-.41 3.46.75c.74 1.16.41 2.71-.75 3.46-.42.26-.89.39-1.35.39-.82-.001-1.63-.4-2.11-1.14zm-168.02-11.45a2.512 2.512 0 0 1-.25-3.53 2.494 2.494 0 0 1 3.53-.25c1.04.9 1.16 2.48.25 3.521-.49.57-1.19.87-1.89.87a2.519 2.519 0 0 1-1.64-.611zm184.32-.33c-.91-1.04-.79-2.62.25-3.53a2.5 2.5 0 0 1 3.52.25 2.5 2.5 0 0 1-.24 3.53c-.48.41-1.06.61-1.64.61-.7 0-1.4-.29-1.89-.86zm-198.79-14.13a2.5 2.5 0 0 1 .24-3.53 2.503 2.503 0 0 1 3.53.25c.91 1.04.79 2.62-.25 3.521-.47.41-1.05.62-1.64.62a2.47 2.47 0 0 1-1.88-.861zm213.26.16a2.503 2.503 0 0 1-.26-3.53 2.512 2.512 0 0 1 3.53-.25c1.04.91 1.16 2.48.25 3.53-.49.57-1.19.86-1.89.86-.58 0-1.16-.2-1.63-.61zm-225.55-16.521a2.505 2.505 0 0 1 .75-3.46 2.492 2.492 0 0 1 3.45.75 2.495 2.495 0 0 1-2.1 3.85 2.49 2.49 0 0 1-2.1-1.14zm237.89.641a2.493 2.493 0 0 1-.74-3.45c.74-1.17 2.29-1.5 3.45-.75 1.16.74 1.5 2.29.75 3.45a2.502 2.502 0 0 1-3.46.75zm-247.72-18.58a2.488 2.488 0 0 1 1.23-3.311 2.485 2.485 0 0 1 3.31 1.23c.58 1.25.03 2.74-1.23 3.31-.33.16-.69.23-1.04.23a2.486 2.486 0 0 1-2.27-1.459zm257.69 1.099a2.492 2.492 0 0 1-1.23-3.31 2.483 2.483 0 0 1 3.31-1.23 2.488 2.488 0 0 1 1.23 3.311c-.42.92-1.32 1.46-2.27 1.46-.35 0-.7-.07-1.04-.231zm-264.86-20.269c-.39-1.32.36-2.71 1.69-3.101a2.502 2.502 0 0 1 1.41 4.8 2.497 2.497 0 0 1-3.1-1.699zm272.23 1.55a2.498 2.498 0 0 1-1.7-3.1 2.497 2.497 0 0 1 3.1-1.7c1.33.39 2.09 1.78 1.7 3.1a2.508 2.508 0 0 1-2.4 1.8c-.23-.001-.47-.03-.7-.1zm-276.59-21.54a2.51 2.51 0 0 1 2.12-2.83c1.37-.2 2.64.75 2.83 2.12.2 1.36-.75 2.63-2.12 2.83-.12.01-.24.02-.35.02-1.23-.001-2.3-.9-2.48-2.14zm281.19 1.96a2.5 2.5 0 0 1-2.12-2.82 2.506 2.506 0 0 1 2.83-2.13 2.51 2.51 0 0 1 2.12 2.83 2.503 2.503 0 0 1-2.47 2.15c-.12 0-.24-.01-.36-.03zm-282.65-22.37a2.5 2.5 0 0 1 2.5-2.5c1.38 0 2.5 1.11 2.5 2.49 0 1.39-1.11 2.51-2.5 2.51-1.38 0-2.5-1.121-2.5-2.5zm281.92-.161c0-.05 0-.1.01-.149-.01-.05-.01-.101-.01-.15 0-1.38 1.11-2.51 2.49-2.51 1.39 0 2.51 1.11 2.51 2.49v.319a2.5 2.5 0 0 1-5 0zm0-.299zm-278.38-17.121a2.51 2.51 0 0 1-2.12-2.83 2.491 2.491 0 0 1 2.83-2.12c1.36.19 2.31 1.45 2.12 2.82a2.488 2.488 0 0 1-2.47 2.15c-.12.001-.24-.009-.36-.02zm276.95-2.58c-.2-1.37.75-2.64 2.11-2.84 1.37-.189 2.64.75 2.84 2.12.19 1.37-.75 2.63-2.12 2.83-.12.02-.24.03-.36.03a2.494 2.494 0 0 1-2.47-2.14zm-273.06-17.149a2.499 2.499 0 0 1-1.7-3.101v-.01a2.51 2.51 0 0 1 3.1-1.7 2.512 2.512 0 0 1 1.7 3.11 2.508 2.508 0 0 1-2.4 1.8 2.77 2.77 0 0 1-.7-.099zm268.84-2.141c-.39-1.33.36-2.72 1.68-3.109 1.33-.391 2.72.37 3.11 1.689.39 1.32-.36 2.71-1.69 3.11a2.499 2.499 0 0 1-3.1-1.69zM282.5 455.142a2.5 2.5 0 0 1-1.24-3.31 2.509 2.509 0 0 1 3.32-1.24 2.495 2.495 0 0 1 1.23 3.31 2.499 2.499 0 0 1-2.27 1.471 2.59 2.59 0 0 1-1.04-.231zm255.22-1.64a2.515 2.515 0 0 1 1.23-3.32c1.26-.57 2.74-.03 3.32 1.229.57 1.25.02 2.74-1.23 3.32-.34.15-.69.22-1.04.22-.95 0-1.86-.529-2.28-1.449zm-245.9-16.19a2.491 2.491 0 0 1-.75-3.45c.74-1.16 2.29-1.5 3.45-.76 1.16.75 1.5 2.3.76 3.46a2.52 2.52 0 0 1-2.11 1.15c-.46 0-.93-.13-1.35-.4zm236.4-1.111a2.494 2.494 0 1 1 4.19-2.71c.75 1.15.42 2.7-.74 3.45-.42.271-.89.4-1.35.4a2.477 2.477 0 0 1-2.1-1.14zm-224.64-15.21a2.49 2.49 0 0 1-.25-3.52 2.49 2.49 0 0 1 3.52-.26c1.05.91 1.16 2.479.26 3.529a2.5 2.5 0 0 1-1.89.86 2.482 2.482 0 0 1-1.64-.609zm212.76-.569c-.91-1.04-.8-2.62.24-3.53a2.51 2.51 0 0 1 3.53.25c.91 1.04.8 2.62-.24 3.53-.47.41-1.06.609-1.64.609-.7 0-1.4-.29-1.89-.859zm-198.81-13.92a2.5 2.5 0 0 1 .25-3.521 2.5 2.5 0 0 1 3.28 3.771c-.48.409-1.06.609-1.64.609-.7 0-1.39-.29-1.89-.859zm184.82-.02a2.502 2.502 0 0 1-.26-3.53 2.503 2.503 0 0 1 3.53-.25 2.5 2.5 0 0 1 .26 3.521c-.5.57-1.2.87-1.9.87a2.474 2.474 0 0 1-1.63-.611zm-168.96-12.34a2.49 2.49 0 0 1 .74-3.45c1.16-.75 2.71-.42 3.46.74s.41 2.71-.75 3.46a2.491 2.491 0 0 1-3.45-.75zm153.13.519c-1.16-.75-1.5-2.3-.76-3.46.75-1.159 2.3-1.5 3.46-.75 1.16.74 1.5 2.29.75 3.45-.47.75-1.28 1.15-2.1 1.15-.46.001-.93-.129-1.35-.39zm-135.69-10.5a2.5 2.5 0 0 1 1.23-3.319c1.25-.58 2.74-.021 3.32 1.229.57 1.261.02 2.74-1.23 3.32a2.495 2.495 0 0 1-3.32-1.23zm118.34 1.04a2.496 2.496 0 0 1-1.24-3.31 2.5 2.5 0 0 1 4.55 2.071c-.42.92-1.33 1.47-2.27 1.47-.35 0-.7-.08-1.04-.231zm-99.64-8.439c-.39-1.32.37-2.71 1.69-3.101 1.33-.39 2.72.37 3.11 1.69.39 1.33-.37 2.72-1.69 3.11a2.506 2.506 0 0 1-3.11-1.699zm81.11 1.57h.01a2.512 2.512 0 0 1-1.71-3.101 2.498 2.498 0 0 1 3.1-1.7 2.504 2.504 0 0 1 1.71 3.101 2.51 2.51 0 0 1-2.41 1.8c-.23 0-.46-.031-.7-.1zm-61.54-6.2a2.49 2.49 0 0 1 2.12-2.83c1.36-.2 2.63.75 2.83 2.12.2 1.359-.75 2.63-2.12 2.83-.12.01-.24.02-.36.02-1.22 0-2.29-.9-2.47-2.14zm42.24 2.05a2.5 2.5 0 0 1-2.13-2.82 2.505 2.505 0 0 1 2.83-2.13c1.36.19 2.31 1.46 2.12 2.83a2.505 2.505 0 0 1-2.47 2.15c-.12 0-.23-.011-.35-.03zm-22.21-3.85a2.495 2.495 0 0 1 2.49-2.511c1.38 0 2.5 1.12 2.51 2.5a2.5 2.5 0 0 1-2.5 2.5c-1.38 0-2.5-1.109-2.5-2.489zM738.84 346.272a2.5 2.5 0 0 1 5 0c0 1.38-1.11 2.5-2.49 2.5a2.504 2.504 0 0 1-2.51-2.5zm-17.9 1.07a2.505 2.505 0 0 1-2.13-2.83 2.51 2.51 0 0 1 2.83-2.12 2.49 2.49 0 0 1 2.12 2.83 2.496 2.496 0 0 1-2.47 2.15c-.12 0-.23-.011-.35-.03zm37.98-2.141a2.504 2.504 0 0 1 2.13-2.829c1.36-.2 2.63.75 2.82 2.119.2 1.37-.75 2.631-2.12 2.83-.12.021-.23.021-.35.021-1.23 0-2.3-.9-2.48-2.141zm-57.99-2.179c-1.32-.38-2.08-1.78-1.7-3.1a2.506 2.506 0 0 1 3.1-1.7c1.33.39 2.09 1.78 1.7 3.1a2.478 2.478 0 0 1-2.4 1.801 2.505 2.505 0 0 1-.7-.101zm77.72-1.741a2.5 2.5 0 0 1 1.69-3.1c1.33-.39 2.72.37 3.11 1.7a2.506 2.506 0 0 1-1.7 3.1c-.23.07-.47.101-.7.101-1.08 0-2.08-.71-2.4-1.801zm-96.91-5.399a2.51 2.51 0 0 1-1.24-3.32 2.505 2.505 0 0 1 3.32-1.229 2.492 2.492 0 0 1 1.23 3.31c-.42.92-1.32 1.46-2.27 1.46-.35-.001-.7-.072-1.04-.221zm115.87-1.3a2.505 2.505 0 0 1 1.23-3.311c1.26-.58 2.74-.02 3.31 1.23a2.5 2.5 0 0 1-1.23 3.319c-.34.15-.69.221-1.04.221a2.496 2.496 0 0 1-2.27-1.459zm-133.84-8.52a2.502 2.502 0 0 1-.75-3.45c.75-1.17 2.3-1.5 3.46-.75 1.16.74 1.49 2.29.75 3.45a2.52 2.52 0 0 1-2.11 1.15c-.46 0-.93-.13-1.35-.4zm151.64-.81a2.51 2.51 0 0 1 .74-3.46c1.17-.75 2.71-.41 3.46.75a2.49 2.49 0 0 1-.75 3.449 2.493 2.493 0 0 1-3.45-.739zm-168.02-11.46a2.49 2.49 0 0 1-.25-3.521 2.49 2.49 0 0 1 3.52-.26c1.05.91 1.16 2.49.26 3.53-.5.569-1.19.859-1.89.859a2.491 2.491 0 0 1-1.64-.608zm184.31-.32a2.51 2.51 0 0 1 .25-3.53 2.512 2.512 0 0 1 3.53.25c.9 1.04.79 2.62-.25 3.53-.47.41-1.06.61-1.64.61a2.5 2.5 0 0 1-1.89-.86zm-198.79-14.13v-.01c-.91-1.04-.79-2.62.25-3.521a2.5 2.5 0 0 1 3.28 3.771c-.48.409-1.06.619-1.64.619-.7 0-1.4-.3-1.89-.859zm213.26.16a2.512 2.512 0 0 1-.25-3.53c.9-1.04 2.48-1.16 3.53-.25a2.51 2.51 0 0 1 .25 3.53c-.5.569-1.19.859-1.89.859-.58 0-1.17-.2-1.64-.609zm-225.54-16.52c-.75-1.16-.42-2.71.74-3.46s2.71-.42 3.46.75c.75 1.15.41 2.7-.75 3.45-.42.27-.89.4-1.35.4-.82 0-1.63-.4-2.1-1.14zm237.89.64a2.497 2.497 0 0 1-.75-3.461c.74-1.159 2.29-1.489 3.45-.75a2.505 2.505 0 0 1-1.35 4.61c-.47.001-.93-.129-1.35-.399zm-247.73-18.58a2.505 2.505 0 0 1 1.23-3.311c1.26-.58 2.74-.03 3.32 1.23.57 1.25.02 2.739-1.23 3.31-.34.16-.69.23-1.04.23a2.51 2.51 0 0 1-2.28-1.459zm257.69 1.1a2.504 2.504 0 0 1-1.23-3.31 2.488 2.488 0 0 1 3.31-1.23c1.26.57 1.81 2.05 1.24 3.31a2.502 2.502 0 0 1-2.28 1.461 2.59 2.59 0 0 1-1.04-.231zm-264.86-20.27a2.5 2.5 0 0 1 1.69-3.101c1.33-.39 2.72.37 3.11 1.69.39 1.33-.37 2.72-1.7 3.109-.23.061-.47.101-.7.101a2.506 2.506 0 0 1-2.4-1.799zm272.23 1.55a2.506 2.506 0 0 1-1.69-3.11v.01a2.488 2.488 0 0 1 3.1-1.699c1.32.39 2.08 1.77 1.69 3.1a2.496 2.496 0 0 1-2.39 1.8 2.946 2.946 0 0 1-.71-.101zm-276.58-21.54a2.49 2.49 0 0 1 2.12-2.83c1.36-.2 2.63.75 2.83 2.12a2.509 2.509 0 0 1-2.12 2.83c-.12.01-.24.02-.36.02-1.22 0-2.29-.9-2.47-2.14zm281.19 1.96a2.51 2.51 0 0 1-2.13-2.83 2.51 2.51 0 0 1 2.83-2.12 2.49 2.49 0 0 1 2.12 2.83 2.488 2.488 0 0 1-2.47 2.15c-.12 0-.23-.011-.35-.03zm-282.65-22.37a2.486 2.486 0 0 1 2.49-2.5c1.38-.01 2.5 1.11 2.5 2.49a2.495 2.495 0 0 1-2.49 2.51 2.5 2.5 0 0 1-2.5-2.5zm281.91-.16c0-.05.01-.1.01-.15 0-.05-.01-.109-.01-.159a2.5 2.5 0 0 1 2.5-2.5 2.5 2.5 0 0 1 2.51 2.489c0 .061-.01.11-.01.16 0 .061.01.11.01.16a2.5 2.5 0 0 1-2.5 2.5c-1.39 0-2.51-1.12-2.51-2.5zm-278.37-17.42a2.51 2.51 0 0 1-2.13-2.83c.2-1.37 1.46-2.32 2.83-2.12a2.48 2.48 0 0 1 2.12 2.82 2.488 2.488 0 0 1-2.47 2.149c-.12 0-.23-.01-.35-.019zm276.94-2.59a2.501 2.501 0 0 1 4.95-.71c.2 1.37-.75 2.63-2.12 2.83-.12.02-.24.02-.36.02-1.22 0-2.29-.89-2.47-2.14zm-273.06-17.151a2.489 2.489 0 0 1-1.7-3.1 2.514 2.514 0 0 1 3.1-1.7c1.33.39 2.09 1.78 1.7 3.1a2.487 2.487 0 0 1-2.4 1.801c-.23 0-.47-.03-.7-.101zm268.84-2.139c-.39-1.32.36-2.71 1.69-3.101 1.32-.399 2.71.36 3.1 1.69h.01c.39 1.32-.37 2.71-1.7 3.1-.23.07-.47.11-.71.11a2.494 2.494 0 0 1-2.39-1.799zm-262.17-16.84a2.496 2.496 0 0 1-1.23-3.311 2.495 2.495 0 0 1 3.31-1.239 2.492 2.492 0 0 1 1.23 3.31h.01c-.42.92-1.33 1.47-2.28 1.47-.35-.001-.7-.07-1.04-.23zm255.23-1.641a2.501 2.501 0 0 1 1.22-3.319 2.498 2.498 0 1 1 2.09 4.54 2.43 2.43 0 0 1-1.04.229 2.503 2.503 0 0 1-2.27-1.45zm-245.91-16.189c-1.16-.74-1.49-2.29-.75-3.45.75-1.17 2.29-1.5 3.46-.76 1.16.75 1.49 2.3.75 3.46a2.502 2.502 0 0 1-3.46.75zm236.4-1.11a2.502 2.502 0 0 1 4.2-2.72c.75 1.16.42 2.71-.74 3.46-.42.27-.89.4-1.36.4-.82 0-1.62-.4-2.1-1.14zm-224.64-15.21c-1.04-.899-1.15-2.479-.25-3.53a2.5 2.5 0 0 1 3.52-.25c1.05.9 1.16 2.48.26 3.53-.49.57-1.19.86-1.89.86-.58 0-1.16-.2-1.64-.61zm212.76-.571a2.51 2.51 0 0 1 .25-3.529c1.04-.9 2.62-.79 3.53.25.9 1.04.79 2.62-.25 3.52-.47.42-1.06.62-1.64.62-.7 0-1.39-.29-1.89-.861zm-198.81-13.92c-.9-1.04-.79-2.62.25-3.52a2.499 2.499 0 1 1 3.28 3.77c-.47.41-1.06.62-1.64.62-.7 0-1.39-.299-1.89-.87zm184.82-.019a2.512 2.512 0 0 1-.26-3.53 2.503 2.503 0 0 1 3.53-.26v.01a2.5 2.5 0 0 1 .26 3.521c-.5.569-1.2.859-1.9.859a2.54 2.54 0 0 1-1.63-.6zm-168.96-12.34c-.75-1.16-.42-2.71.74-3.45v-.01c1.16-.75 2.71-.41 3.46.75s.41 2.699-.74 3.46v-.011c-.42.271-.89.4-1.36.4-.82.001-1.62-.4-2.1-1.139zm153.13.51a2.491 2.491 0 0 1-.75-3.45c.75-1.16 2.29-1.5 3.45-.76v.01c1.17.74 1.5 2.29.76 3.45a2.52 2.52 0 0 1-2.11 1.15c-.46 0-.93-.131-1.35-.4zm-135.69-10.49a2.513 2.513 0 0 1 1.23-3.319 2.515 2.515 0 0 1 3.32 1.229c.57 1.26.02 2.74-1.23 3.32-.34.149-.69.229-1.04.229-.95 0-1.86-.54-2.28-1.459zm118.34 1.04a2.496 2.496 0 0 1-1.24-3.31 2.509 2.509 0 0 1 3.32-1.24c1.25.57 1.81 2.05 1.23 3.31a2.499 2.499 0 0 1-2.27 1.471 2.59 2.59 0 0 1-1.04-.231zm-99.63-8.44c-.4-1.32.36-2.71 1.69-3.101a2.5 2.5 0 0 1 3.1 1.69 2.5 2.5 0 0 1-1.69 3.1v.01c-.23.07-.47.101-.7.101-1.08 0-2.08-.71-2.4-1.8zm81.11 1.569a2.497 2.497 0 0 1-1.7-3.1 2.489 2.489 0 0 1 3.1-1.7 2.499 2.499 0 0 1 1.7 3.09 2.505 2.505 0 0 1-2.4 1.811c-.23 0-.47-.04-.7-.101zm-61.55-6.2c-.19-1.369.75-2.64 2.12-2.829 1.37-.2 2.63.75 2.83 2.109a2.49 2.49 0 0 1-2.12 2.83c-.12.021-.24.03-.35.03-1.23.001-2.3-.9-2.48-2.14zm42.24 2.051a2.5 2.5 0 0 1-2.13-2.82 2.505 2.505 0 0 1 2.83-2.13 2.495 2.495 0 0 1 2.12 2.82 2.488 2.488 0 0 1-2.47 2.149c-.11.001-.23.001-.35-.019zm-22.21-3.851c0-1.39 1.12-2.5 2.5-2.51a2.5 2.5 0 0 1 2.5 2.5c0 1.38-1.11 2.5-2.49 2.5a2.5 2.5 0 0 1-2.51-2.49zM1174.52 348.772h.011-.011zm-2.5-2.5a2.5 2.5 0 0 1 5 0 2.5 2.5 0 0 1-2.5 2.5c-1.38 0-2.5-1.121-2.5-2.5zm-17.9 1.07a2.505 2.505 0 0 1-2.13-2.83c.189-1.37 1.46-2.311 2.829-2.12 1.36.19 2.32 1.46 2.12 2.83a2.505 2.505 0 0 1-2.47 2.15 2.07 2.07 0 0 1-.349-.03zm37.98-2.141c-.189-1.369.76-2.64 2.12-2.829h.01c1.36-.2 2.63.75 2.82 2.119.2 1.37-.75 2.631-2.12 2.83-.12.011-.24.021-.35.021-1.23 0-2.3-.9-2.48-2.141zm-57.991-2.179a2.501 2.501 0 0 1-1.699-3.1 2.51 2.51 0 0 1 3.109-1.7 2.5 2.5 0 0 1 1.69 3.1 2.5 2.5 0 0 1-2.4 1.801 2.515 2.515 0 0 1-.7-.101zm77.721-1.741a2.5 2.5 0 0 1 1.689-3.1 2.51 2.51 0 0 1 3.11 1.69 2.503 2.503 0 0 1-1.7 3.109 2.503 2.503 0 0 1-3.099-1.699zm-96.91-5.399a2.51 2.51 0 0 1-1.24-3.32 2.505 2.505 0 0 1 3.32-1.229 2.482 2.482 0 0 1 1.229 3.31 2.487 2.487 0 0 1-2.27 1.46 2.588 2.588 0 0 1-1.039-.221zm115.87-1.3a2.496 2.496 0 0 1 1.229-3.311c1.25-.58 2.74-.02 3.32 1.23.57 1.26.02 2.739-1.24 3.31-.33.16-.689.23-1.03.23a2.5 2.5 0 0 1-2.279-1.459zm-133.84-8.52a2.502 2.502 0 0 1-.75-3.45c.75-1.17 2.3-1.5 3.46-.75 1.159.74 1.489 2.29.75 3.45a2.52 2.52 0 0 1-2.11 1.15c-.46 0-.93-.13-1.35-.4zm151.64-.81c-.75-1.17-.42-2.71.75-3.46 1.16-.75 2.7-.41 3.45.75a2.492 2.492 0 0 1-.75 3.449 2.491 2.491 0 0 1-3.45-.739zm-168.021-11.46a2.483 2.483 0 0 1-.25-3.521c.9-1.05 2.48-1.16 3.521-.26 1.05.91 1.16 2.49.26 3.53-.5.569-1.2.869-1.899.869a2.482 2.482 0 0 1-1.632-.618zm184.311-.32a2.51 2.51 0 0 1 .25-3.53c1.05-.899 2.63-.79 3.53.25.899 1.04.79 2.62-.25 3.53-.471.41-1.061.61-1.641.61-.7 0-1.389-.29-1.889-.86zm-198.79-14.14a2.5 2.5 0 0 1 .25-3.521c1.04-.91 2.62-.8 3.53.25.899 1.04.79 2.62-.25 3.521a2.53 2.53 0 0 1-1.641.619c-.699 0-1.389-.3-1.889-.869zm213.26.17c-1.04-.91-1.16-2.49-.25-3.53a2.51 2.51 0 0 1 3.53-.25 2.51 2.51 0 0 1 .25 3.53c-.5.569-1.19.859-1.89.859-.58 0-1.171-.2-1.64-.609zm-225.54-16.52c-.75-1.16-.42-2.71.74-3.46s2.71-.42 3.46.75c.75 1.15.41 2.7-.75 3.45-.42.27-.89.4-1.35.4-.82 0-1.63-.4-2.1-1.14zm237.89.64a2.506 2.506 0 0 1-.75-3.461 2.503 2.503 0 0 1 3.449-.75c1.16.75 1.5 2.301.75 3.461a2.503 2.503 0 0 1-2.1 1.149 2.485 2.485 0 0 1-1.349-.399zm-247.73-18.58a2.505 2.505 0 0 1 1.23-3.311 2.497 2.497 0 0 1 3.319 1.23 2.495 2.495 0 0 1-1.229 3.31 2.5 2.5 0 0 1-3.32-1.229zm257.7 1.1a2.49 2.49 0 0 1-1.24-3.31 2.506 2.506 0 0 1 3.32-1.24c1.25.58 1.8 2.06 1.229 3.319a2.501 2.501 0 0 1-2.279 1.461c-.35 0-.7-.08-1.03-.23zm-264.87-20.27v.01a2.506 2.506 0 0 1 1.69-3.11c1.329-.39 2.72.37 3.109 1.69a2.504 2.504 0 0 1-1.689 3.109 2.508 2.508 0 0 1-3.11-1.699zm272.23 1.55a2.506 2.506 0 0 1-1.69-3.11 2.49 2.49 0 0 1 3.1-1.689c1.32.38 2.08 1.779 1.7 3.1a2.52 2.52 0 0 1-2.41 1.8 2.936 2.936 0 0 1-.7-.101zm-276.58-21.54a2.49 2.49 0 0 1 2.119-2.83 2.5 2.5 0 0 1 2.83 2.12 2.509 2.509 0 0 1-2.119 2.83c-.12.01-.24.02-.36.02-1.22 0-2.29-.9-2.47-2.14zm281.19 1.96a2.505 2.505 0 0 1-2.13-2.83 2.515 2.515 0 0 1 2.83-2.12c1.37.2 2.32 1.46 2.12 2.83a2.488 2.488 0 0 1-2.47 2.15c-.12 0-.23-.011-.35-.03zm-282.65-22.37a2.485 2.485 0 0 1 2.489-2.5c1.38-.01 2.5 1.11 2.511 2.49 0 1.38-1.12 2.5-2.5 2.51a2.5 2.5 0 0 1-2.5-2.5zm281.92-.16v-.309a2.49 2.49 0 0 1 2.489-2.5 2.49 2.49 0 0 1 2.5 2.489v.32h.011c0 1.38-1.13 2.5-2.511 2.5a2.492 2.492 0 0 1-2.489-2.5zm-276.92.15zm-1.46-17.58a2.497 2.497 0 0 1-2.131-2.82 2.51 2.51 0 0 1 2.83-2.13c1.37.2 2.32 1.46 2.12 2.83a2.488 2.488 0 0 1-2.47 2.149c-.109 0-.23-.01-.349-.029zm276.94-2.58a2.501 2.501 0 0 1 4.95-.71c.2 1.359-.75 2.63-2.12 2.83-.12.02-.24.029-.36.029a2.502 2.502 0 0 1-2.47-2.149zm-273.06-17.151a2.49 2.49 0 0 1-1.7-3.09 2.493 2.493 0 0 1 3.1-1.7 2.483 2.483 0 0 1 1.7 3.09 2.507 2.507 0 0 1-2.4 1.801c-.23 0-.461-.03-.7-.101zm268.84-2.139v.01a2.497 2.497 0 0 1 1.689-3.11c1.32-.39 2.71.36 3.101 1.69a2.485 2.485 0 0 1-1.69 3.1c-.229.07-.47.11-.7.11a2.506 2.506 0 0 1-2.4-1.8zm-262.17-16.84a2.495 2.495 0 0 1-1.23-3.311 2.496 2.496 0 0 1 3.311-1.239 2.506 2.506 0 0 1 1.239 3.31c-.42.92-1.33 1.47-2.279 1.47a2.606 2.606 0 0 1-1.041-.23zm255.23-1.641a2.501 2.501 0 0 1 1.221-3.319 2.497 2.497 0 0 1 3.319 1.229c.58 1.25.03 2.74-1.229 3.311-.33.159-.69.229-1.04.229a2.491 2.491 0 0 1-2.271-1.45zm-245.9-16.189a2.497 2.497 0 0 1-.761-3.46v.01c.75-1.16 2.29-1.5 3.46-.76 1.16.75 1.49 2.3.75 3.46a2.518 2.518 0 0 1-2.109 1.149c-.46 0-.931-.13-1.34-.399zm236.39-1.11a2.502 2.502 0 0 1 4.2-2.72c.75 1.16.42 2.71-.74 3.46-.42.27-.89.4-1.36.4-.82 0-1.62-.4-2.1-1.14zm-224.64-15.21a2.499 2.499 0 0 1-.25-3.52 2.5 2.5 0 0 1 3.529-.261c1.04.9 1.16 2.48.25 3.53-.489.57-1.189.86-1.89.86a2.505 2.505 0 0 1-1.639-.609zm212.77-.571a2.5 2.5 0 0 1 .24-3.529c1.04-.9 2.62-.79 3.53.25a2.5 2.5 0 0 1-.25 3.52 2.44 2.44 0 0 1-1.641.62c-.7 0-1.389-.29-1.879-.861zm-198.81-13.909a2.5 2.5 0 0 1 .239-3.53 2.5 2.5 0 0 1 3.28 3.77c-.47.41-1.06.61-1.64.61-.699 0-1.39-.29-1.879-.85zm184.81-.03a2.501 2.501 0 0 1-.25-3.53 2.5 2.5 0 0 1 3.521-.26c1.05.9 1.159 2.479.26 3.53-.5.569-1.19.859-1.9.859a2.51 2.51 0 0 1-1.631-.599zm-168.96-12.34c-.75-1.16-.42-2.7.74-3.46 1.16-.75 2.71-.41 3.46.75s.42 2.71-.74 3.449c-.42.28-.89.41-1.36.41-.82 0-1.62-.41-2.1-1.149zm153.13.51a2.491 2.491 0 0 1-.75-3.45c.74-1.16 2.29-1.5 3.45-.75 1.16.74 1.5 2.29.76 3.45a2.505 2.505 0 0 1-2.109 1.15c-.461 0-.931-.131-1.351-.4zm-135.68-10.49a2.5 2.5 0 1 1 4.54-2.09c.57 1.26.02 2.74-1.23 3.32v-.011a2.493 2.493 0 0 1-3.31-1.219zm118.34 1.04a2.49 2.49 0 0 1-1.24-3.31 2.495 2.495 0 0 1 3.311-1.24c1.25.57 1.81 2.06 1.229 3.31a2.487 2.487 0 0 1-2.27 1.471 2.504 2.504 0 0 1-1.03-.231zm-99.651-8.43c-.38-1.33.37-2.72 1.7-3.11 1.32-.39 2.71.37 3.101 1.69a2.506 2.506 0 0 1-1.69 3.109 2.78 2.78 0 0 1-.71.101c-1.08 0-2.071-.71-2.401-1.79zm81.12 1.559a2.496 2.496 0 0 1-1.699-3.1 2.503 2.503 0 0 1 3.1-1.71h-.01a2.505 2.505 0 0 1-.69 4.911c-.23 0-.47-.04-.701-.101zm-61.549-6.2a2.514 2.514 0 0 1 2.12-2.84c1.37-.189 2.64.75 2.83 2.12.2 1.37-.75 2.641-2.12 2.84-.12.011-.24.021-.35.021a2.506 2.506 0 0 1-2.48-2.141zm42.24 2.051a2.5 2.5 0 0 1-2.13-2.82 2.51 2.51 0 0 1 2.83-2.13 2.486 2.486 0 0 1 2.12 2.82 2.497 2.497 0 0 1-2.471 2.159c-.109 0-.229-.009-.349-.029zm-22.21-3.851a2.51 2.51 0 0 1 2.5-2.51 2.5 2.5 0 0 1 2.5 2.5c0 1.38-1.11 2.5-2.49 2.5a2.507 2.507 0 0 1-2.51-2.49zM1507.109 652.241a2.5 2.5 0 0 1 5 0 2.5 2.5 0 0 1-5 0zm-17.899 1.071a2.5 2.5 0 0 1-2.13-2.82 2.512 2.512 0 0 1 2.83-2.13c1.37.2 2.319 1.46 2.12 2.83a2.504 2.504 0 0 1-2.471 2.15c-.12 0-.229-.01-.349-.03zm37.979-2.14c-.189-1.37.761-2.641 2.12-2.83 1.37-.2 2.641.75 2.84 2.12a2.51 2.51 0 0 1-2.13 2.83c-.12.02-.229.029-.35.029a2.506 2.506 0 0 1-2.48-2.149zm-57.989-2.181a2.491 2.491 0 0 1-1.69-3.1 2.485 2.485 0 0 1 3.09-1.69h.01a2.493 2.493 0 0 1 1.69 3.101 2.49 2.49 0 0 1-2.4 1.79c-.23 0-.461-.03-.7-.101zm77.72-1.739c-.39-1.32.37-2.71 1.689-3.101 1.33-.39 2.721.37 3.11 1.7.39 1.32-.37 2.71-1.7 3.1-.229.07-.47.101-.7.101a2.508 2.508 0 0 1-2.399-1.8zm-96.91-5.4a2.497 2.497 0 0 1-1.229-3.32 2.49 2.49 0 0 1 3.31-1.229c1.25.57 1.81 2.06 1.229 3.31a2.508 2.508 0 0 1-2.27 1.471c-.35-.002-.7-.082-1.04-.232zm115.87-1.3a2.505 2.505 0 0 1 1.229-3.311 2.515 2.515 0 0 1 3.32 1.23c.57 1.26.021 2.74-1.229 3.32-.341.149-.7.22-1.04.22a2.5 2.5 0 0 1-2.28-1.459zm-133.84-8.521a2.49 2.49 0 0 1-.75-3.449c.75-1.16 2.29-1.5 3.46-.75 1.16.739 1.49 2.29.75 3.449a2.48 2.48 0 0 1-2.101 1.15 2.486 2.486 0 0 1-1.359-.4zm151.64-.809c-.75-1.16-.41-2.71.75-3.46s2.7-.41 3.45.75.41 2.71-.75 3.46c-.41.27-.88.39-1.35.39-.82-.001-1.62-.4-2.1-1.14zm-168.02-11.45c-1.04-.91-1.16-2.49-.25-3.53a2.482 2.482 0 0 1 3.52-.25c1.05.9 1.16 2.48.26 3.521-.5.57-1.189.87-1.89.87a2.5 2.5 0 0 1-1.64-.611zm184.31-.33c-.9-1.04-.79-2.62.25-3.53a2.512 2.512 0 0 1 3.53.25 2.512 2.512 0 0 1-.25 3.53c-.47.41-1.061.61-1.641.61a2.5 2.5 0 0 1-1.889-.86zm-198.79-14.13c-.899-1.05-.79-2.63.25-3.53a2.503 2.503 0 0 1 3.53.25c.899 1.04.79 2.62-.25 3.521a2.49 2.49 0 0 1-3.53-.241zm213.259.16a2.503 2.503 0 0 1-.25-3.53c.9-1.04 2.48-1.149 3.53-.25 1.04.91 1.15 2.49.25 3.53a2.5 2.5 0 0 1-1.89.86c-.579 0-1.169-.2-1.64-.61zm-225.54-16.521a2.496 2.496 0 0 1 .75-3.46c1.15-.75 2.7-.409 3.45.75.75 1.16.41 2.7-.75 3.45a2.492 2.492 0 0 1-3.45-.74zm237.891.641a2.493 2.493 0 0 1-.75-3.45c.74-1.16 2.29-1.5 3.45-.75 1.159.74 1.5 2.29.75 3.45a2.492 2.492 0 0 1-2.101 1.149c-.459 0-.929-.13-1.349-.399zm-247.73-18.58a2.506 2.506 0 0 1 1.23-3.311 2.498 2.498 0 0 1 3.319 1.23c.58 1.25.021 2.74-1.229 3.31a2.499 2.499 0 0 1-3.32-1.229zm257.7 1.099a2.497 2.497 0 1 1 2.08-4.54 2.5 2.5 0 0 1-1.05 4.771c-.34 0-.7-.07-1.03-.231zm-264.87-20.269c-.39-1.32.37-2.71 1.69-3.101 1.33-.39 2.72.37 3.109 1.69a2.51 2.51 0 0 1-1.689 3.11 2.506 2.506 0 0 1-3.11-1.699zm272.23 1.55a2.5 2.5 0 0 1-1.69-3.1 2.49 2.49 0 0 1 3.101-1.7 2.514 2.514 0 0 1 1.699 3.1 2.506 2.506 0 0 1-2.399 1.8 2.517 2.517 0 0 1-.711-.1zm-276.58-21.54c-.2-1.37.75-2.63 2.12-2.83 1.37-.2 2.63.75 2.83 2.12a2.502 2.502 0 0 1-2.12 2.83c-.12.01-.24.02-.36.02a2.504 2.504 0 0 1-2.47-2.14zm281.189 1.96a2.486 2.486 0 0 1-2.12-2.82 2.502 2.502 0 0 1 2.82-2.13 2.51 2.51 0 0 1 2.13 2.83 2.506 2.506 0 0 1-2.479 2.15c-.11 0-.23-.01-.351-.03zm-282.649-22.37c0-1.38 1.109-2.5 2.489-2.5 1.381 0 2.511 1.11 2.511 2.49 0 1.39-1.12 2.51-2.5 2.51s-2.5-1.121-2.5-2.5zm281.92-.161v-.13c0-.06-.01-.109-.01-.17a2.5 2.5 0 1 1 5-.01v.309h.01a2.5 2.5 0 0 1-2.5 2.5 2.492 2.492 0 0 1-2.5-2.499zm4.99-.309v-.01.01zm-283.37-17.111a2.51 2.51 0 0 1-2.13-2.83 2.495 2.495 0 0 1 2.829-2.12c1.37.19 2.32 1.45 2.131 2.82a2.507 2.507 0 0 1-2.48 2.15 3.573 3.573 0 0 1-.35-.02zm276.94-2.58c-.2-1.37.75-2.64 2.12-2.84a2.51 2.51 0 0 1 2.83 2.12c.2 1.37-.75 2.63-2.12 2.83-.12.02-.24.03-.359.03a2.502 2.502 0 0 1-2.471-2.14zm-273.06-17.149a2.515 2.515 0 0 1-1.7-3.101 2.496 2.496 0 0 1 3.1-1.699 2.488 2.488 0 0 1 1.7 3.1 2.498 2.498 0 0 1-2.399 1.8c-.231 0-.461-.04-.701-.1zm268.84-2.141c-.39-1.33.37-2.72 1.69-3.109a2.513 2.513 0 0 1 3.109 1.689 2.514 2.514 0 0 1-1.689 3.11c-.24.07-.48.1-.71.1-1.08 0-2.08-.699-2.4-1.79zm-262.16-16.849a2.49 2.49 0 0 1-1.24-3.31 2.496 2.496 0 0 1 3.311-1.24 2.507 2.507 0 0 1 1.24 3.31v.01a2.521 2.521 0 0 1-2.28 1.461 2.505 2.505 0 0 1-1.031-.231zm255.219-1.64a2.499 2.499 0 1 1 4.54-2.091c.58 1.25.03 2.74-1.229 3.32-.33.15-.69.22-1.04.22a2.489 2.489 0 0 1-2.271-1.449zm-245.899-16.19a2.494 2.494 0 0 1-.76-3.45c.75-1.17 2.3-1.5 3.46-.76 1.159.75 1.5 2.3.75 3.46-.48.74-1.28 1.15-2.11 1.15-.46 0-.93-.13-1.34-.4zm236.39-1.111a2.503 2.503 0 0 1 .74-3.46 2.506 2.506 0 0 1 3.46.75c.75 1.15.42 2.7-.74 3.45-.42.271-.89.4-1.359.4a2.49 2.49 0 0 1-2.101-1.14zm-224.63-15.21a2.49 2.49 0 0 1-.26-3.52 2.502 2.502 0 0 1 3.53-.26 2.502 2.502 0 0 1 .25 3.529c-.49.57-1.19.86-1.891.86a2.454 2.454 0 0 1-1.629-.609zm212.76-.569c-.91-1.04-.8-2.62.24-3.53 1.04-.9 2.62-.79 3.53.25.899 1.04.79 2.62-.25 3.53a2.497 2.497 0 0 1-1.641.609c-.699 0-1.389-.29-1.879-.859zm-198.81-13.92a2.49 2.49 0 0 1 .24-3.521c1.04-.91 2.619-.8 3.529.25.91 1.04.79 2.62-.25 3.521a2.51 2.51 0 0 1-1.64.62c-.69 0-1.389-.301-1.879-.87zm184.81-.02a2.501 2.501 0 0 1-.25-3.53 2.492 2.492 0 0 1 3.521-.25c1.05.9 1.16 2.48.26 3.521-.5.57-1.19.87-1.89.87a2.52 2.52 0 0 1-1.641-.611zm-168.96-12.34c-.75-1.16-.41-2.7.75-3.45 1.15-.75 2.7-.42 3.45.74s.42 2.71-.74 3.46a2.504 2.504 0 0 1-3.46-.75zm153.129.519v-.01c-1.159-.74-1.489-2.29-.75-3.45a2.504 2.504 0 0 1 3.46-.75c1.16.74 1.5 2.29.75 3.45a2.482 2.482 0 0 1-2.109 1.15 2.556 2.556 0 0 1-1.351-.39zm-135.679-10.5a2.5 2.5 0 0 1 1.23-3.319 2.503 2.503 0 0 1 3.31 1.229c.58 1.261.03 2.74-1.23 3.32a2.485 2.485 0 0 1-3.31-1.23zm118.34 1.04a2.488 2.488 0 0 1-1.24-3.31 2.5 2.5 0 0 1 4.551 2.071c-.42.92-1.33 1.47-2.28 1.47-.351 0-.701-.08-1.031-.231zm-99.64-8.439a2.492 2.492 0 0 1 1.689-3.101c1.32-.39 2.71.37 3.101 1.69a2.491 2.491 0 0 1-1.69 3.11 2.494 2.494 0 0 1-3.1-1.699zm81.109 1.57a2.498 2.498 0 0 1-1.699-3.101 2.489 2.489 0 0 1 3.1-1.7 2.498 2.498 0 0 1 1.7 3.101 2.508 2.508 0 0 1-2.4 1.8c-.23 0-.47-.031-.701-.1zm-61.549-6.2c-.189-1.37.75-2.641 2.12-2.83 1.37-.2 2.641.75 2.84 2.109a2.52 2.52 0 0 1-2.13 2.841c-.12.01-.24.02-.35.02-1.23 0-2.3-.9-2.48-2.14zm42.24 2.05a2.486 2.486 0 0 1-2.12-2.82 2.496 2.496 0 0 1 2.82-2.13c1.37.19 2.32 1.46 2.13 2.83a2.515 2.515 0 0 1-2.48 2.15c-.11 0-.23-.011-.35-.03zm-22.21-3.85a2.51 2.51 0 0 1 2.5-2.511 2.5 2.5 0 0 1 2.5 2.5c.01 1.38-1.11 2.5-2.49 2.5-1.38 0-2.5-1.109-2.51-2.489z"/><path fill="#FFF" fill-rule="evenodd" d="M1631.028 607.948c36.675 0 69.959 14.505 94.44 38.086-24.131-43.034-70.178-72.122-123.026-72.122-77.85 0-140.96 63.11-140.96 140.96 0 51.719 27.86 96.925 69.385 121.45-22.344-24.255-35.995-56.641-35.995-92.219.001-75.196 60.96-136.155 136.156-136.155z" clip-rule="evenodd"/><path fill-rule="evenodd" d="M1743.402 714.872c0-25.002-6.518-48.478-17.934-68.837-24.481-23.581-57.765-38.086-94.44-38.086-75.196 0-136.155 60.959-136.155 136.155 0 35.578 13.652 67.964 35.995 92.219 20.98 12.391 45.444 19.51 71.574 19.51 77.85-.002 140.96-63.112 140.96-140.961z" clip-rule="evenodd"/><circle cx="960" cy="140.96" r="140.96" fill="#FFF" fill-rule="evenodd" clip-rule="evenodd"/><path fill="#FFF" fill-rule="evenodd" d="M458.27 714.872c0-77.85-63.11-140.96-140.96-140.96-54.951 0-102.554 31.447-125.805 77.324 24.86-32.824 64.251-54.034 108.602-54.034 75.196 0 136.155 60.959 136.155 136.155 0 40.829-17.976 77.455-46.44 102.411 41.008-24.649 68.448-69.566 68.448-120.896z" clip-rule="evenodd"/><path fill-rule="evenodd" d="M436.262 733.357c0-75.196-60.959-136.155-136.155-136.155-44.35 0-83.742 21.21-108.602 54.034-9.689 19.117-15.154 40.737-15.154 63.635 0 77.85 63.11 140.96 140.96 140.96 26.519 0 51.325-7.329 72.511-20.063 28.464-24.956 46.44-61.582 46.44-102.411z" clip-rule="evenodd"/><path fill="#FFF" fill-rule="evenodd" d="M681.171 321c0-75.196-60.959-136.155-136.155-136.155-30.793 0-59.194 10.227-82.004 27.463a141.809 141.809 0 0 1 24.004-2.044c77.85 0 140.96 63.11 140.96 140.96 0 38.742-15.634 73.831-40.932 99.31 54.626-17.712 94.127-69.006 94.127-129.534z" clip-rule="evenodd"/><path fill-rule="evenodd" d="M487.016 210.264c-8.184 0-16.202.706-24.004 2.044-32.891 24.854-54.151 64.288-54.151 108.692 0 75.196 60.959 136.155 136.155 136.155 14.668 0 28.79-2.329 42.028-6.621 25.298-25.48 40.932-60.568 40.932-99.31-.001-77.85-63.111-140.96-140.96-140.96z" clip-rule="evenodd"/><path fill="#FFF" fill-rule="evenodd" d="M1345.085 254.937c30.781-30.781 72.633-43.741 112.739-38.884-55.343-49.706-140.545-47.95-193.772 5.278-55.048 55.048-55.048 144.299 0 199.347 27.115 27.115 62.529 40.864 98.066 41.267a137.054 137.054 0 0 1-17.032-14.455c-53.173-53.173-53.173-139.381-.001-192.553z" clip-rule="evenodd"/><path fill-rule="evenodd" d="M1463.398 420.677c55.048-55.048 55.048-144.299 0-199.347a143.801 143.801 0 0 0-5.575-5.278c-40.105-4.857-81.958 8.103-112.739 38.884-53.172 53.172-53.172 139.38 0 192.552a137.127 137.127 0 0 0 17.032 14.455c36.61.416 73.349-13.333 101.282-41.266z" clip-rule="evenodd"/><circle cx="13" cy="318.705" r="10.344" fill="#FFF" fill-rule="evenodd" clip-rule="evenodd"/><circle cx="59.159" cy="241.314" r="10.344" fill="#FFF" fill-rule="evenodd" clip-rule="evenodd"/><circle cx="717.784" cy="525.27" r="5.172" fill="#FFF" fill-rule="evenodd" clip-rule="evenodd"/><circle cx="1820.329" cy="880.98" r="5.172" fill="#FFF" fill-rule="evenodd" clip-rule="evenodd"/><circle cx="1237.625" cy="540" r="5.172" fill="#FFF" fill-rule="evenodd" clip-rule="evenodd"/><circle cx="1618.476" cy="115.474" r="5.172" fill="#FFF" fill-rule="evenodd" clip-rule="evenodd"/><circle cx="1286.849" cy="574.887" r="5.172" fill="#FFF" fill-rule="evenodd" clip-rule="evenodd"/><circle cx="346.857" cy="35.182" r="5.172" fill="#FFF" fill-rule="evenodd" clip-rule="evenodd"/><circle cx="1907.093" cy="97.395" r="12.907" fill="#FFF" fill-rule="evenodd" clip-rule="evenodd"/><circle cx="975.935" cy="792.482" r="12.907" fill="#FFF" fill-rule="evenodd" clip-rule="evenodd"/><path d="M1599.205 952.576c-8.063 0-16.016.477-23.83 1.403-36.335 4.308-53.277-3.154-84.194-22.722-19.519-12.355-42.657-19.507-67.466-19.507-26.517 0-51.12 8.177-71.438 22.138v79.941h391.125c-36.443-37.761-87.574-61.253-144.197-61.253zM911.915 867.831c-7.014 0-13.93.423-20.722 1.246-36.275 4.394-72.986-6.294-100.285-30.584-22.692-20.191-52.589-32.457-85.353-32.457-29.59 0-56.841 10.005-78.557 26.817-28.251 21.871-64.414 31.348-99.575 25.016a129.168 129.168 0 0 0-22.911-2.038c-36.972 0-70.292 15.62-93.728 40.62-24.381 26.009-58.202 41.021-93.851 40.726-.472-.004-.945-.006-1.418-.006-59.144 0-109.154 30.517-139.164 76.658h868.897V910.917c-30.137-26.799-89.829-43.086-133.333-43.086z"/><path d="M411.861 1013.829h4V1080h-4zM679.171 1013.829h4V1080h-4zM820.486 1013.829h4V1080h-4zM1199.622 1013.829h4V1080h-4zM1087.796 1013.829h4V1080h-4zM1459.483 1013.829h4V1080h-4z"/><circle cx="306.306" cy="1046.915" r="12.5"/><circle cx="550.321" cy="1046.915" r="12.5"/><circle cx="753.765" cy="1046.915" r="12.5" fill="#2E9AFF"/><circle cx="1145.295" cy="1046.915" r="12.5" fill="#2E9AFF"/><circle cx="1605.976" cy="1046.915" r="12.5"/><circle cx="1330.052" cy="1046.915" r="12.5"/><circle cx="956.141" cy="1046.915" r="12.5"/><path d="M1222.765 787.383h28.665v68.448h-28.665z"/><path fill="#2E9AFF" d="M1188.132 591.987c-4.191-5.527-9.399-10.294-15.967-13.885-7.026-3.843-13.639-8.113-21.427-10.052-9.601-2.39-19.82-3.556-29.716-2.934-6.91.434-16.281 1.837-22.586 4.697-5.545 2.516-10.667 5.874-15.775 9.159-11.529 7.414-26.937 8.364-39.289 2.421-3.762-1.81-7.215-4.19-10.646-6.568-7.366-5.107-12.788-9.939-21.677-11.681-8.727-1.71-17.777-2.091-26.491-.089-28.858 6.628-56.678 32.574-55.331 63.471.525 12.055 6.915 23.403 15.898 31.461 5.557 4.985 11.844 9.266 18.706 12.242 6.421 2.786 13.294 2.113 20.121 3.742 6.331 1.511 14.366 3.789 18.195 9.333 4.04 5.849 6.039 13.428 7.791 20.229 5.211 20.228 20.445 32.374 41.62 30.794 8.004-.597 15.219-3.433 21.753-7.987 4.557-3.175 8.989-7.985 14.49-9.951 6.253-2.235 13.123.099 18.997 2.358 11.118 4.275 23.541 5.722 35.049 2.647 12.606-3.368 18.667-10.993 26.22-20.674 11.019-14.123 32.792-13.752 46.341-4.061 16.757 11.986 18.74 33.626 22.256 52.243.437 2.314.943 4.673 2.186 6.672.553.89 1.409 1.769 2.455 1.708.566-.033 1.08-.344 1.507-.716 1.846-1.606 2.339-4.229 2.722-6.646 4.461-28.125 7.031-62.049-12.783-84.844-5.999-6.901-13.813-11.581-20.016-18.1-7.017-7.374-9.456-18.384-12.466-27.849-3.014-9.481-6.18-19.285-12.137-27.14z"/></svg>