<svg xmlns="http://www.w3.org/2000/svg" xml:space="preserve" viewBox="0 0 1080 1080"><path d="M122.335 582.276a2.5 2.5 0 0 1-2.229-2.74 2.5 2.5 0 0 1 2.739-2.239 2.502 2.502 0 0 1 2.23 2.75 2.492 2.492 0 0 1-2.48 2.239c-.09 0-.17 0-.26-.01zm17.981-2.24c-.15-1.37.85-2.6 2.229-2.739 1.37-.15 2.601.85 2.74 2.22a2.51 2.51 0 0 1-2.23 2.75c-.08.01-.17.01-.26.01a2.492 2.492 0 0 1-2.479-2.241zm-38.271-2.04a2.503 2.503 0 0 1-1.609-3.149 2.499 2.499 0 0 1 3.149-1.61 2.508 2.508 0 0 1 1.61 3.15 2.501 2.501 0 0 1-2.38 1.729c-.26 0-.51-.04-.77-.12zm58.15-1.64a2.499 2.499 0 0 1 4.75-1.549 2.49 2.49 0 0 1-1.601 3.149c-.26.091-.52.131-.779.131-1.05 0-2.03-.671-2.37-1.731zm-77.1-6.79a2.508 2.508 0 0 1-.909-3.42 2.48 2.48 0 0 1 3.409-.91v-.01c1.2.7 1.61 2.229.92 3.42a2.52 2.52 0 0 1-2.17 1.25c-.42 0-.85-.11-1.25-.33zm95.77-.969c-.7-1.19-.29-2.721.91-3.41a2.49 2.49 0 0 1 3.41.91 2.506 2.506 0 0 1-.91 3.42c-.391.22-.82.33-1.25.33-.86 0-1.7-.441-2.16-1.25zm-112.54-11.221a2.5 2.5 0 0 1 3.34-3.719 2.5 2.5 0 0 1 .19 3.53c-.5.55-1.181.83-1.86.83a2.48 2.48 0 0 1-1.67-.641zm129.18-.25a2.506 2.506 0 0 1 .181-3.529 2.496 2.496 0 0 1 3.529.18 2.488 2.488 0 0 1-.18 3.53 2.51 2.51 0 0 1-1.67.649c-.69 0-1.37-.279-1.86-.83zm-143.069-15.14a2.508 2.508 0 0 1 .55-3.5 2.504 2.504 0 0 1 3.489.55 2.507 2.507 0 0 1-.55 3.5c-.439.32-.96.471-1.47.471-.769 0-1.53-.351-2.019-1.021zm156.979.47a2.498 2.498 0 1 1 2.94-4.04 2.497 2.497 0 0 1 .55 3.49h.01a2.52 2.52 0 0 1-2.03 1.03c-.51.001-1.02-.16-1.47-.48zm-167.38-18.409a2.503 2.503 0 0 1 4.571-2.04c.56 1.26 0 2.739-1.261 3.31-.33.14-.68.21-1.02.21a2.51 2.51 0 0 1-2.29-1.48zm177.951 1.17a2.5 2.5 0 0 1-1.261-3.301 2.492 2.492 0 0 1 3.301-1.26 2.49 2.49 0 0 1 1.26 3.3 2.482 2.482 0 0 1-2.28 1.48c-.341.001-.69-.07-1.02-.219zm-184.371-20.88a2.508 2.508 0 0 1 1.93-2.971c1.351-.29 2.68.58 2.96 1.931a2.485 2.485 0 0 1-1.92 2.96c-.18.04-.35.06-.53.06a2.508 2.508 0 0 1-2.44-1.98zm191.11 1.819a2.505 2.505 0 0 1-1.93-2.96 2.5 2.5 0 0 1 2.97-1.93 2.5 2.5 0 0 1 1.931 2.96 2.499 2.499 0 0 1-2.45 1.979 2.29 2.29 0 0 1-.521-.049zm-193.27-22.439a2.486 2.486 0 0 1 2.49-2.5 2.5 2.5 0 0 1 2.5 2.5c0 1.38-1.11 2.5-2.49 2.5a2.5 2.5 0 0 1-2.5-2.5zm193.38-.111c0-.03 0-.06.01-.1-.01-.03-.01-.07-.01-.101 0-1.39 1.11-2.51 2.49-2.51 1.39 0 2.51 1.11 2.51 2.49v.22c0 1.39-1.12 2.51-2.5 2.51a2.502 2.502 0 0 1-2.5-2.509zm-193.38.111zm4.05-17.651a2.498 2.498 0 0 1-1.93-2.96 2.5 2.5 0 0 1 2.96-1.94c1.35.29 2.21 1.61 1.93 2.96a2.505 2.505 0 0 1-2.439 1.99c-.17 0-.351-.019-.521-.05zm187.25-2.24a2.502 2.502 0 0 1 4.891-1.05c.29 1.35-.57 2.68-1.921 2.97-.18.04-.35.061-.52.061a2.51 2.51 0 0 1-2.45-1.981zm-181.53-17.16a2.495 2.495 0 0 1-1.27-3.3 2.5 2.5 0 0 1 3.3-1.27c1.26.56 1.83 2.04 1.271 3.3-.42.93-1.33 1.49-2.29 1.49-.34.001-.681-.07-1.011-.22zm175.41-1.55c-.56-1.26 0-2.74 1.261-3.31 1.26-.561 2.739 0 3.31 1.26.56 1.26 0 2.74-1.26 3.31a2.507 2.507 0 0 1-3.311-1.26zm-165.77-16.22a2.504 2.504 0 0 1-.55-3.49 2.5 2.5 0 1 1 4.04 2.94 2.501 2.501 0 0 1-2.021 1.029 2.515 2.515 0 0 1-1.469-.479zm155.88-.799a2.496 2.496 0 0 1 .55-3.49c1.11-.82 2.67-.57 3.49.54.81 1.11.57 2.68-.54 3.49-.45.33-.96.489-1.48.489-.77 0-1.529-.359-2.02-1.029zm-142.75-14.58c-.93-1.03-.85-2.61.17-3.53a2.49 2.49 0 0 1 3.53.18 2.49 2.49 0 0 1-.181 3.53c-.47.43-1.069.641-1.67.641a2.504 2.504 0 0 1-1.849-.821zm129.55-.021c-1.03-.93-1.12-2.51-.189-3.529.92-1.03 2.5-1.12 3.529-.2a2.52 2.52 0 0 1 .19 3.54c-.5.55-1.18.83-1.87.83-.59 0-1.19-.21-1.66-.641zm-113.54-12.319a2.491 2.491 0 0 1 .91-3.41c1.19-.7 2.72-.29 3.41.899.7 1.2.29 2.73-.9 3.421a2.496 2.496 0 0 1-3.42-.91zm97.59.76a2.512 2.512 0 0 1-.92-3.41 2.503 2.503 0 0 1 3.42-.92c1.2.68 1.601 2.21.92 3.41a2.52 2.52 0 0 1-2.17 1.25c-.43 0-.85-.101-1.25-.33zm-79.359-9.491a2.491 2.491 0 0 1 1.609-3.149 2.49 2.49 0 0 1 3.15 1.6c.42 1.31-.29 2.72-1.6 3.15a2.682 2.682 0 0 1-.78.119 2.5 2.5 0 0 1-2.379-1.72zm61.359 1.51h.011a2.496 2.496 0 0 1-1.61-3.149 2.482 2.482 0 0 1 3.14-1.61c1.32.42 2.04 1.83 1.62 3.141a2.523 2.523 0 0 1-2.39 1.739 2.667 2.667 0 0 1-.771-.121zm-41.699-6.239a2.501 2.501 0 0 1 2.22-2.75 2.503 2.503 0 0 1 2.75 2.229 2.487 2.487 0 0 1-2.22 2.74c-.091.01-.181.02-.271.02a2.49 2.49 0 0 1-2.479-2.239zm22.439 2.189a2.509 2.509 0 0 1-2.24-2.74 2.51 2.51 0 0 1 2.75-2.229c1.37.14 2.37 1.36 2.23 2.74a2.501 2.501 0 0 1-2.48 2.25c-.09 0-.17-.011-.26-.021zM360.745 358.977a2.501 2.501 0 0 1-2.23-2.74 2.486 2.486 0 0 1 2.74-2.229 2.5 2.5 0 0 1 2.24 2.739 2.51 2.51 0 0 1-2.49 2.24c-.09-.001-.17-.001-.26-.01zm17.98-2.241a2.489 2.489 0 0 1 2.23-2.74c1.37-.149 2.6.851 2.74 2.221a2.497 2.497 0 0 1-2.221 2.75c-.09.01-.18.01-.27.01a2.494 2.494 0 0 1-2.479-2.241zm-38.27-2.04a2.504 2.504 0 0 1-1.61-3.149 2.513 2.513 0 0 1 3.15-1.61c1.31.43 2.03 1.84 1.61 3.15a2.503 2.503 0 0 1-2.381 1.729c-.259 0-.509-.04-.769-.12zm58.151-1.639a2.498 2.498 0 0 1 1.6-3.15c1.31-.42 2.72.29 3.15 1.61.43 1.31-.29 2.72-1.601 3.149-.26.08-.52.12-.77.12-1.06 0-2.04-.67-2.379-1.729zm-77.101-6.79a2.51 2.51 0 0 1-.91-3.42 2.508 2.508 0 0 1 3.42-.91 2.499 2.499 0 0 1-1.26 4.66 2.5 2.5 0 0 1-1.25-.33zm95.771-.96a2.5 2.5 0 0 1 .909-3.42 2.499 2.499 0 0 1 3.41.91c.69 1.199.29 2.72-.91 3.42-.39.229-.819.33-1.25.33-.86 0-1.699-.441-2.159-1.24zm-112.54-11.231a2.5 2.5 0 0 1 3.34-3.719 2.5 2.5 0 0 1 .189 3.53c-.489.55-1.18.83-1.859.83-.601 0-1.191-.21-1.67-.641zm129.179-.25c-.92-1.02-.84-2.6.18-3.529a2.502 2.502 0 1 1 3.35 3.72 2.498 2.498 0 0 1-3.53-.191zm-143.07-15.139a2.495 2.495 0 0 1 .551-3.49 2.501 2.501 0 0 1 3.489.54c.82 1.12.57 2.69-.54 3.5-.449.32-.96.48-1.47.48a2.51 2.51 0 0 1-2.03-1.03zm156.98.469a2.497 2.497 0 1 1 2.939-4.04c1.12.811 1.37 2.37.551 3.49-.48.67-1.25 1.03-2.021 1.03a2.516 2.516 0 0 1-1.469-.48zm-167.37-18.399v-.011c-.57-1.25 0-2.729 1.26-3.3 1.26-.56 2.74.01 3.3 1.271v-.011c.57 1.261 0 2.74-1.26 3.311-.33.149-.68.22-1.02.22a2.512 2.512 0 0 1-2.28-1.48zm177.941 1.159a2.49 2.49 0 0 1-1.261-3.3 2.5 2.5 0 0 1 3.3-1.26 2.49 2.49 0 0 1 1.261 3.3 2.482 2.482 0 0 1-2.28 1.48c-.341.001-.68-.07-1.02-.22zm-184.37-20.88c-.28-1.35.58-2.68 1.93-2.97a2.5 2.5 0 0 1 2.96 1.93 2.502 2.502 0 0 1-1.92 2.971c-.18.029-.35.05-.521.05a2.5 2.5 0 0 1-2.449-1.981zm191.109 1.82a2.494 2.494 0 0 1-1.92-2.96 2.493 2.493 0 0 1 2.96-1.93 2.505 2.505 0 0 1 1.931 2.96 2.508 2.508 0 0 1-2.45 1.989c-.17.001-.34-.019-.521-.059zm-193.279-22.429a2.51 2.51 0 0 1 2.5-2.511c1.38 0 2.5 1.12 2.51 2.5a2.5 2.5 0 0 1-2.5 2.5 2.512 2.512 0 0 1-2.51-2.489zm193.389-.111h.01v-.08c-.01-.04-.01-.09-.01-.13 0-1.38 1.12-2.5 2.5-2.51a2.5 2.5 0 0 1 2.5 2.5v.219a2.5 2.5 0 1 1-5 .001zm-189.33-17.549a2.498 2.498 0 0 1-1.93-2.96 2.486 2.486 0 0 1 2.96-1.931 2.498 2.498 0 0 1-.509 4.94 3.15 3.15 0 0 1-.521-.049zm187.25-2.241c-.29-1.35.57-2.68 1.92-2.97 1.35-.29 2.68.58 2.97 1.93a2.49 2.49 0 0 1-1.92 2.96c-.18.04-.35.061-.52.061a2.51 2.51 0 0 1-2.45-1.981zm-181.53-17.16a2.5 2.5 0 0 1-1.27-3.3 2.503 2.503 0 0 1 3.3-1.27 2.507 2.507 0 0 1 1.271 3.3 2.504 2.504 0 0 1-2.29 1.49 2.393 2.393 0 0 1-1.011-.22zm175.42-1.55a2.487 2.487 0 0 1 1.25-3.3c1.261-.57 2.74 0 3.311 1.26.56 1.26 0 2.74-1.26 3.3a2.485 2.485 0 0 1-3.301-1.26zm-165.779-16.219a2.496 2.496 0 0 1-.551-3.49 2.486 2.486 0 0 1 3.49-.55c1.12.81 1.37 2.37.561 3.49a2.52 2.52 0 0 1-2.03 1.029c-.51 0-1.021-.16-1.47-.479zm155.889-.8a2.495 2.495 0 0 1 .54-3.49 2.496 2.496 0 0 1 3.49.55c.819 1.11.569 2.67-.54 3.49-.45.319-.96.479-1.471.479a2.5 2.5 0 0 1-2.019-1.029zm-142.76-14.58a2.488 2.488 0 0 1 .18-3.53 2.49 2.49 0 0 1 3.53.18 2.508 2.508 0 0 1-.181 3.53c-.479.43-1.079.65-1.68.65-.679 0-1.358-.28-1.849-.83zm129.55-.021a2.5 2.5 0 0 1-.19-3.53 2.49 2.49 0 0 1 3.53-.189 2.5 2.5 0 0 1 .19 3.53c-.49.55-1.181.83-1.86.83-.599 0-1.2-.211-1.67-.641zm-113.53-12.309c-.7-1.2-.29-2.73.9-3.42a2.503 2.503 0 0 1 3.42.909 2.503 2.503 0 0 1-2.16 3.75c-.86 0-1.7-.449-2.16-1.239zm97.59.75a2.495 2.495 0 0 1-.92-3.41 2.492 2.492 0 0 1 3.41-.92c1.2.689 1.61 2.22.92 3.41-.46.81-1.31 1.25-2.17 1.25-.42 0-.85-.101-1.24-.33zm-79.36-9.491a2.499 2.499 0 0 1 4.75-1.549c.43 1.31-.29 2.72-1.601 3.149-.26.091-.52.12-.779.12a2.48 2.48 0 0 1-2.37-1.72zm61.36 1.51c-1.31-.43-2.04-1.84-1.609-3.149a2.495 2.495 0 0 1 3.149-1.61 2.504 2.504 0 0 1 1.61 3.15 2.524 2.524 0 0 1-2.38 1.729c-.259 0-.52-.04-.77-.12zm-41.71-6.24c-.149-1.369.851-2.6 2.23-2.75h-.01a2.503 2.503 0 0 1 .529 4.98c-.09.01-.18.01-.27.01a2.5 2.5 0 0 1-2.479-2.24zm22.44 2.19a2.496 2.496 0 0 1-2.23-2.74 2.495 2.495 0 0 1 2.74-2.229 2.502 2.502 0 0 1-.25 4.989c-.09 0-.17-.01-.26-.02zM694.896 358.977a2.501 2.501 0 0 1-2.23-2.74 2.493 2.493 0 0 1 2.74-2.229 2.492 2.492 0 0 1 2.229 2.739 2.492 2.492 0 0 1-2.479 2.24c-.09-.001-.17-.001-.26-.01zm17.979-2.241c-.15-1.37.85-2.6 2.23-2.74a2.487 2.487 0 0 1 2.739 2.221c.141 1.38-.85 2.6-2.22 2.75-.09.01-.18.01-.27.01a2.493 2.493 0 0 1-2.479-2.241zm-38.269-2.04a2.488 2.488 0 0 1-1.61-3.149 2.512 2.512 0 0 1 3.15-1.61 2.513 2.513 0 0 1 1.609 3.15 2.51 2.51 0 0 1-2.38 1.729c-.26 0-.519-.04-.769-.12zm58.149-1.639a2.499 2.499 0 0 1 1.601-3.15c1.31-.42 2.72.29 3.149 1.61.43 1.31-.29 2.72-1.6 3.149-.26.08-.521.12-.771.12a2.493 2.493 0 0 1-2.379-1.729zm-77.1-6.79a2.508 2.508 0 0 1-.91-3.42 2.498 2.498 0 0 1 3.41-.91c1.2.689 1.609 2.22.92 3.41a2.5 2.5 0 0 1-2.17 1.25c-.419 0-.85-.101-1.25-.33zm95.76-.96c-.69-1.2-.28-2.73.92-3.42a2.5 2.5 0 0 1 3.41.91c.7 1.199.29 2.72-.91 3.42-.39.229-.82.33-1.25.33-.86 0-1.7-.441-2.17-1.24zm-112.53-11.231a2.5 2.5 0 0 1-.189-3.529 2.5 2.5 0 0 1 3.719 3.34c-.49.55-1.18.83-1.86.83-.6 0-1.19-.21-1.67-.641zm129.181-.25c-.931-1.02-.841-2.6.18-3.529a2.498 2.498 0 0 1 3.53.189 2.49 2.49 0 0 1-.181 3.53c-.479.43-1.08.64-1.67.64-.689 0-1.37-.28-1.859-.83zm-143.071-15.139a2.494 2.494 0 0 1 .55-3.49c1.11-.81 2.68-.57 3.49.54.81 1.12.57 2.69-.55 3.5-.44.32-.96.48-1.471.48a2.506 2.506 0 0 1-2.019-1.03zm156.98.469a2.506 2.506 0 0 1-.55-3.49 2.498 2.498 0 0 1 3.49-.55c1.12.811 1.37 2.37.55 3.49a2.487 2.487 0 0 1-2.02 1.03 2.515 2.515 0 0 1-1.47-.48zm-167.369-18.399v-.011c-.57-1.25 0-2.729 1.26-3.3 1.26-.56 2.74.01 3.3 1.271v-.011c.56 1.261 0 2.74-1.26 3.311-.33.149-.681.22-1.021.22a2.5 2.5 0 0 1-2.279-1.48zm177.939 1.159a2.49 2.49 0 0 1-1.26-3.3 2.5 2.5 0 0 1 3.3-1.26c1.26.56 1.83 2.04 1.271 3.3a2.507 2.507 0 0 1-2.29 1.48 2.486 2.486 0 0 1-1.021-.22zm-184.37-20.88a2.516 2.516 0 0 1 1.931-2.97c1.35-.28 2.68.58 2.97 1.93a2.516 2.516 0 0 1-1.93 2.971c-.181.029-.351.05-.521.05a2.5 2.5 0 0 1-2.45-1.981zm191.11 1.82a2.5 2.5 0 0 1-1.93-2.96 2.507 2.507 0 0 1 2.97-1.93 2.505 2.505 0 0 1 1.93 2.96 2.508 2.508 0 0 1-2.45 1.989c-.17.001-.34-.019-.52-.059zm-193.28-22.429a2.51 2.51 0 0 1 2.5-2.511c1.38 0 2.5 1.12 2.51 2.5a2.5 2.5 0 0 1-2.5 2.5c-1.38 0-2.5-1.119-2.51-2.489zm193.391-.111c0-.03.01-.05.01-.08-.01-.04-.01-.09-.01-.13 0-1.38 1.119-2.5 2.489-2.51a2.51 2.51 0 0 1 2.511 2.5v.219a2.499 2.499 0 1 1-5 .001zm-189.33-17.549a2.497 2.497 0 0 1-1.931-2.96 2.487 2.487 0 0 1 2.96-1.931 2.497 2.497 0 0 1 1.931 2.961 2.498 2.498 0 0 1-2.44 1.979 3.04 3.04 0 0 1-.52-.049zm187.25-2.241a2.5 2.5 0 0 1 1.92-2.97c1.35-.29 2.68.58 2.97 1.93a2.49 2.49 0 0 1-1.92 2.96c-.18.04-.351.061-.521.061a2.51 2.51 0 0 1-2.449-1.981zm-181.531-17.16a2.5 2.5 0 0 1-1.271-3.3 2.504 2.504 0 0 1 3.301-1.27 2.503 2.503 0 0 1-1.02 4.79c-.34.001-.68-.069-1.01-.22zm175.41-1.55c-.561-1.26 0-2.74 1.26-3.3 1.26-.57 2.74 0 3.31 1.26.561 1.26 0 2.74-1.26 3.3-.33.15-.68.221-1.02.221a2.51 2.51 0 0 1-2.29-1.481zm-165.77-16.219a2.506 2.506 0 0 1-.55-3.49 2.486 2.486 0 0 1 3.49-.55c1.12.81 1.37 2.37.56 3.49a2.519 2.519 0 0 1-2.029 1.029c-.511 0-1.021-.16-1.471-.479zm155.891-.8a2.486 2.486 0 0 1 .54-3.49 2.494 2.494 0 0 1 3.489.55c.82 1.11.57 2.67-.54 3.49-.449.319-.96.479-1.47.479a2.5 2.5 0 0 1-2.019-1.029zm-142.761-14.58c-.93-1.03-.85-2.61.181-3.53a2.49 2.49 0 0 1 3.529.18 2.507 2.507 0 0 1-.18 3.53c-.479.43-1.08.65-1.68.65-.68 0-1.36-.28-1.85-.83zm129.551-.021a2.49 2.49 0 0 1-.19-3.53 2.49 2.49 0 0 1 3.53-.189 2.5 2.5 0 0 1 .189 3.53c-.5.55-1.18.83-1.859.83a2.46 2.46 0 0 1-1.67-.641zm-113.54-12.309c-.69-1.2-.28-2.73.909-3.42a2.506 2.506 0 0 1 3.421.909 2.503 2.503 0 0 1-2.16 3.75 2.529 2.529 0 0 1-2.17-1.239zm97.589.75a2.508 2.508 0 0 1-.91-3.42 2.496 2.496 0 0 1 3.41-.91c1.189.689 1.609 2.22.92 3.41a2.5 2.5 0 0 1-2.17 1.25c-.43 0-.85-.101-1.25-.33zm-79.35-9.491a2.498 2.498 0 1 1 4.75-1.549 2.497 2.497 0 0 1-1.6 3.149c-.26.091-.521.13-.78.13-1.05 0-2.029-.67-2.37-1.73zm61.36 1.51c-1.31-.43-2.04-1.84-1.61-3.149a2.49 2.49 0 0 1 3.141-1.61 2.503 2.503 0 0 1 1.62 3.15 2.525 2.525 0 0 1-2.381 1.729c-.26 0-.52-.04-.77-.12zm-41.71-6.24c-.15-1.369.85-2.6 2.22-2.75 1.38-.14 2.61.86 2.75 2.23.15 1.37-.85 2.6-2.22 2.75-.09.01-.18.01-.271.01a2.5 2.5 0 0 1-2.479-2.24zm22.441 2.19a2.496 2.496 0 0 1-2.23-2.74 2.494 2.494 0 0 1 2.74-2.229 2.501 2.501 0 0 1-.25 4.989c-.09 0-.17-.01-.26-.02zM936.875 582.276a2.502 2.502 0 0 1-2.24-2.74 2.505 2.505 0 0 1 2.75-2.239 2.51 2.51 0 0 1 2.23 2.75 2.502 2.502 0 0 1-2.49 2.239c-.08 0-.17 0-.25-.01zm17.97-2.24a2.5 2.5 0 0 1 2.23-2.739c1.37-.15 2.6.85 2.75 2.22.14 1.37-.86 2.6-2.23 2.75-.09.01-.18.01-.26.01a2.505 2.505 0 0 1-2.49-2.241zm-38.27-2.04a2.5 2.5 0 0 1-1.601-3.149 2.49 2.49 0 0 1 3.141-1.61 2.492 2.492 0 0 1 1.609 3.15 2.488 2.488 0 0 1-2.369 1.729c-.26 0-.52-.04-.78-.12zm58.15-1.64a2.5 2.5 0 0 1 1.601-3.15 2.49 2.49 0 0 1 3.149 1.601 2.49 2.49 0 0 1-1.6 3.149v.011c-.26.08-.52.12-.77.12a2.495 2.495 0 0 1-2.38-1.731zm-77.09-6.79a2.504 2.504 0 0 1-.92-3.42c.69-1.2 2.22-1.61 3.42-.92 1.19.7 1.601 2.229.91 3.42-.46.8-1.3 1.25-2.16 1.25-.43 0-.859-.11-1.25-.33zm95.761-.969a2.5 2.5 0 0 1 .909-3.41 2.504 2.504 0 0 1 3.42.91c.69 1.189.28 2.72-.909 3.42-.4.22-.83.33-1.25.33-.871 0-1.71-.441-2.17-1.25zm-112.54-11.221c-1.021-.93-1.11-2.51-.181-3.529a2.5 2.5 0 0 1 3.53-.19c1.02.931 1.11 2.5.18 3.53-.489.55-1.17.83-1.859.83-.591 0-1.191-.21-1.67-.641zm129.179-.25a2.499 2.499 0 0 1 .189-3.529c1.021-.931 2.601-.84 3.53.18.92 1.03.84 2.61-.18 3.53h-.01c-.471.43-1.07.649-1.67.649a2.505 2.505 0 0 1-1.859-.83zm-143.07-15.14c-.81-1.12-.56-2.68.55-3.49a2.508 2.508 0 0 1 3.5.54 2.516 2.516 0 0 1-.55 3.5c-.45.32-.96.471-1.47.471-.78 0-1.54-.351-2.03-1.021zm156.99.47a2.495 2.495 0 0 1-.55-3.489 2.496 2.496 0 0 1 3.49-.551 2.497 2.497 0 0 1 .55 3.49c-.49.67-1.25 1.03-2.021 1.03a2.5 2.5 0 0 1-1.469-.48zm-167.38-18.409a2.499 2.499 0 0 1 1.26-3.301c1.26-.56 2.74 0 3.311 1.261a2.518 2.518 0 0 1-1.271 3.31c-.33.14-.67.21-1.01.21a2.51 2.51 0 0 1-2.29-1.48zm177.951 1.17a2.504 2.504 0 0 1-1.271-3.301 2.491 2.491 0 0 1 3.3-1.26 2.504 2.504 0 0 1 1.271 3.3 2.506 2.506 0 0 1-2.29 1.48c-.34.001-.68-.07-1.01-.219zm-184.371-20.88a2.5 2.5 0 0 1 1.92-2.971c1.35-.29 2.68.58 2.97 1.931.29 1.35-.58 2.68-1.93 2.96-.17.04-.351.06-.521.06a2.508 2.508 0 0 1-2.439-1.98zm191.11 1.819a2.505 2.505 0 0 1-1.93-2.96 2.486 2.486 0 0 1 2.96-1.93 2.491 2.491 0 0 1 1.93 2.96 2.498 2.498 0 0 1-2.449 1.979 2.16 2.16 0 0 1-.511-.049zm-193.279-22.439a2.5 2.5 0 0 1 5 0 2.5 2.5 0 0 1-5 0zm193.389-.111v-.2a2.495 2.495 0 0 1 2.49-2.51c1.38 0 2.5 1.11 2.51 2.49v.01c0 .03-.01.07-.01.11 0 .029.01.069.01.1 0 1.39-1.12 2.51-2.5 2.51s-2.5-1.12-2.5-2.51zm-189.33-17.54a2.504 2.504 0 0 1 1.021-4.9 2.51 2.51 0 0 1 1.939 2.96 2.507 2.507 0 0 1-2.45 1.99c-.17 0-.34-.019-.51-.05zm187.25-2.24a2.5 2.5 0 1 1 4.89-1.05 2.515 2.515 0 0 1-1.93 2.97c-.17.04-.35.061-.52.061-1.15 0-2.19-.811-2.44-1.981zm-181.54-17.16a2.503 2.503 0 0 1-1.27-3.3 2.506 2.506 0 0 1 3.3-1.27c1.27.56 1.83 2.04 1.27 3.3a2.49 2.49 0 0 1-2.29 1.49 2.44 2.44 0 0 1-1.01-.22zm175.42-1.55c-.569-1.26 0-2.74 1.26-3.3a2.487 2.487 0 0 1 3.301 1.25c.569 1.26 0 2.74-1.261 3.31a2.493 2.493 0 0 1-3.3-1.26zm-165.77-16.22a2.498 2.498 0 0 1-.561-3.49 2.51 2.51 0 0 1 3.5-.56c1.11.81 1.36 2.38.551 3.5a2.506 2.506 0 0 1-2.03 1.029 2.464 2.464 0 0 1-1.46-.479zm155.88-.799a2.503 2.503 0 0 1 .54-3.49c1.12-.82 2.68-.57 3.5.54.81 1.11.57 2.68-.55 3.49-.44.33-.96.489-1.471.489a2.502 2.502 0 0 1-2.019-1.029zm-142.759-14.58c-.92-1.03-.851-2.61.18-3.53a2.49 2.49 0 0 1 3.53.18 2.49 2.49 0 0 1-.181 3.53 2.505 2.505 0 0 1-3.529-.18zm129.549-.021a2.499 2.499 0 0 1-.19-3.529 2.5 2.5 0 0 1 3.53-.2c1.03.93 1.11 2.51.19 3.54a2.496 2.496 0 0 1-3.53.189zm-113.53-12.319c-.7-1.19-.29-2.721.9-3.41 1.2-.7 2.729-.29 3.42.899.689 1.2.29 2.73-.91 3.421-.39.229-.82.34-1.25.34-.86 0-1.7-.45-2.16-1.25zm97.59.76a2.494 2.494 0 0 1-.92-3.41c.69-1.2 2.22-1.61 3.42-.92 1.19.68 1.601 2.21.91 3.41-.46.8-1.3 1.25-2.17 1.25-.42 0-.849-.101-1.24-.33zm-79.359-9.491a2.494 2.494 0 0 1 1.6-3.149 2.5 2.5 0 0 1 3.16 1.6c.42 1.31-.3 2.72-1.61 3.15-.26.079-.52.119-.77.119a2.495 2.495 0 0 1-2.38-1.72zm61.359 1.51a2.512 2.512 0 0 1-1.609-3.149 2.492 2.492 0 0 1 3.149-1.61 2.501 2.501 0 0 1-.77 4.88 2.666 2.666 0 0 1-.77-.121zm-41.71-6.239a2.516 2.516 0 0 1 2.23-2.75c1.37-.141 2.6.85 2.75 2.229a2.494 2.494 0 0 1-2.23 2.74c-.09.01-.18.02-.26.02a2.503 2.503 0 0 1-2.49-2.239zm22.45 2.189a2.502 2.502 0 0 1-2.24-2.74 2.502 2.502 0 0 1 2.74-2.229c1.38.14 2.38 1.36 2.24 2.74a2.512 2.512 0 0 1-2.49 2.25c-.08 0-.17-.011-.25-.021z"/><path fill="#FFF" fill-rule="evenodd" d="M1002.545 566.712c25.158 0 47.99 9.95 64.783 26.126-16.553-29.52-48.14-49.474-84.392-49.474-53.403 0-96.694 43.292-96.694 96.694 0 35.478 19.111 66.488 47.596 83.311-15.327-16.638-24.692-38.854-24.692-63.259 0-51.582 41.816-93.398 93.399-93.398z" clip-rule="evenodd"/><path fill-rule="evenodd" d="M1079.63 640.059c0-17.151-4.471-33.255-12.302-47.22-16.793-16.176-39.625-26.126-64.783-26.126-51.582 0-93.398 41.816-93.398 93.398 0 24.406 9.365 46.621 24.692 63.259 14.392 8.5 31.173 13.383 49.098 13.383 53.402 0 96.693-43.292 96.693-96.694z" clip-rule="evenodd"/><circle cx="539.63" cy="229.745" r="96.694" fill="#FFF" fill-rule="evenodd" clip-rule="evenodd"/><path fill="#FFF" fill-rule="evenodd" d="M193.018 640.059c0-53.403-43.291-96.694-96.694-96.694-37.695 0-70.349 21.572-86.299 53.042 17.053-22.516 44.075-37.066 74.498-37.066 51.582 0 93.398 41.816 93.398 93.398 0 28.008-12.331 53.132-31.857 70.251 28.131-16.909 46.954-47.72 46.954-82.931z" clip-rule="evenodd"/><path fill-rule="evenodd" d="M177.921 652.739c0-51.582-41.816-93.398-93.398-93.398-30.423 0-57.445 14.549-74.498 37.066C3.379 609.52-.37 624.351-.37 640.059c0 53.403 43.291 96.694 96.694 96.694 18.192 0 35.207-5.027 49.741-13.763 19.525-17.119 31.856-42.243 31.856-70.251z" clip-rule="evenodd"/><path fill="#FFF" fill-rule="evenodd" d="M336.507 357.248c0-51.582-41.816-93.398-93.398-93.398-21.123 0-40.606 7.016-56.252 18.839a97.33 97.33 0 0 1 16.466-1.402c53.403 0 96.694 43.292 96.694 96.694 0 26.576-10.724 50.646-28.078 68.124 37.472-12.15 64.568-47.337 64.568-88.857z" clip-rule="evenodd"/><path fill-rule="evenodd" d="M203.322 281.286a97.33 97.33 0 0 0-16.466 1.402c-22.562 17.049-37.146 44.1-37.146 74.559 0 51.582 41.816 93.398 93.398 93.398a93.322 93.322 0 0 0 28.83-4.542c17.354-17.478 28.078-41.548 28.078-68.124 0-53.402-43.291-96.693-96.694-96.693z" clip-rule="evenodd"/><path fill="#FFF" fill-rule="evenodd" d="M826.985 311.93c21.115-21.115 49.824-30.005 77.336-26.673-37.964-34.097-96.41-32.892-132.922 3.62-37.761 37.761-37.761 98.985 0 136.746 18.6 18.6 42.893 28.032 67.271 28.308a94.056 94.056 0 0 1-11.684-9.916c-36.475-36.474-36.475-95.61-.001-132.085z" clip-rule="evenodd"/><path fill-rule="evenodd" d="M908.144 425.623c37.761-37.761 37.761-98.985 0-136.746a97.667 97.667 0 0 0-3.824-3.62c-27.511-3.332-56.221 5.558-77.336 26.673-36.474 36.474-36.474 95.611 0 132.085a94.07 94.07 0 0 0 11.684 9.916c25.113.285 50.315-9.146 69.476-28.308z" clip-rule="evenodd"/><circle cx="479.903" cy="457.665" r="3.727" fill="#FFF" fill-rule="evenodd" clip-rule="evenodd"/><circle cx="908.757" cy="6.603" r="6.603" fill="#FFF" fill-rule="evenodd" clip-rule="evenodd"/><circle cx="971.602" cy="51.143" r="6.603" fill="#FFF" fill-rule="evenodd" clip-rule="evenodd"/><circle cx="101.522" cy="115.474" r="6.603" fill="#FFF" fill-rule="evenodd" clip-rule="evenodd"/><circle cx="571.386" cy="775.002" r="6.603" fill="#FFF" fill-rule="evenodd" clip-rule="evenodd"/><circle cx="45.484" cy="1006.158" r="9.008"/><path d="M1076 1036.348v39.62H4v-39.62h1072m4-4H0v47.62h1080v-47.62z"/><circle cx="1011.817" cy="848.321" r="6.603" fill="#FFF" fill-rule="evenodd" clip-rule="evenodd"/><circle cx="224.863" cy="819.828" r="9.301" fill="#FFF" fill-rule="evenodd" clip-rule="evenodd"/><circle cx="545.264" cy="412.153" r="9.301" fill="#FFF" fill-rule="evenodd" clip-rule="evenodd"/><circle cx="947.291" cy="900.596" r="9.301" fill="#FFF" fill-rule="evenodd" clip-rule="evenodd"/><path d="M996.384 996.638c-4.697 0-9.328.278-13.879.817-21.163 2.509-31.031-1.837-49.038-13.234-11.368-7.196-24.845-11.361-39.295-11.361-15.445 0-29.774 4.762-41.609 12.894v46.561h227.807c-21.226-21.994-51.007-35.677-83.986-35.677zM468.04 938.867c-4.49 0-8.916.271-13.263.798-23.218 2.812-46.716-4.029-64.189-19.576-14.524-12.923-33.661-20.775-54.632-20.775-18.939 0-36.382 6.404-50.282 17.164-18.083 13.999-41.229 20.065-63.734 16.012a82.675 82.675 0 0 0-14.664-1.304c-23.664 0-44.992 9.998-59.992 25.999-15.606 16.647-37.253 26.256-60.07 26.067a91.476 91.476 0 0 0-.908-.004c-37.856 0-66.728 19.533-85.936 49.066h553.011v-65.87c-19.29-17.152-57.496-27.577-85.341-27.577zM191.019 1032.315h4V1080h-4z"/><path fill="#2E9AFF" fill-rule="evenodd" d="m637.901 803.397-84.629 117.889v112.47h169.259v-112.47z" clip-rule="evenodd"/><path d="M722.53 1035.756H553.272a2 2 0 0 1-2-2v-112.47c0-.419.131-.826.375-1.166l84.63-117.889a2.001 2.001 0 0 1 3.25 0l84.629 117.889a2 2 0 0 1 .375 1.166v112.47a2.002 2.002 0 0 1-2.001 2zm-167.258-4H720.53V921.93l-82.629-115.103-82.63 115.103v109.826z"/><path fill="#FFF" fill-rule="evenodd" d="M637.901 921.286c-10.895 0-19.727 8.832-19.727 19.727v33.083h39.453v-33.083c.001-10.895-8.831-19.727-19.726-19.727z" clip-rule="evenodd"/><path d="M886.372 923.286H722.53a2.001 2.001 0 0 1-1.625-.834l-84.629-117.889a2 2 0 0 1 1.625-3.166h163.841c.645 0 1.249.311 1.625.834l84.63 117.889a2 2 0 0 1-1.625 3.166zm-162.815-4h158.918l-81.759-113.889H641.799l81.758 113.889z"/><path fill="#2E9AFF" fill-rule="evenodd" d="M722.531 921.286h163.842v112.471H722.531z" clip-rule="evenodd"/><path d="M886.372 1035.757H722.53a2 2 0 0 1-2-2V921.286a2 2 0 0 1 2-2h163.842a2 2 0 0 1 2 2v112.471a2 2 0 0 1-2 2zm-161.842-4h159.842V923.286H724.53v108.471zM396.503 1032.315h4V1080h-4zM440.936 1032.315h4V1080h-4zM688.682 1032.315h4V1080h-4zM639.083 1032.315h4V1080h-4z"/><path d="M884.242 1032.315h4V1080h-4z"/><circle cx="300.016" cy="1056.158" r="9.008"/><circle cx="99.522" cy="1056.158" r="9.008"/><circle cx="419.915" cy="1056.158" r="9.008" fill="#2E9AFF"/><circle cx="666.256" cy="1056.158" r="9.008" fill="#2E9AFF"/><circle cx="982.075" cy="1056.158" r="9.008"/><circle cx="783.234" cy="1056.158" r="9.008"/><circle cx="545.264" cy="1056.158" r="9.008"/><path d="M729.71 775.002h28.01v66.885h-28.01z"/><path fill="#2E9AFF" d="M670.255 548.251c-5.069-6.685-11.368-12.451-19.312-16.795-8.499-4.648-16.497-9.813-25.917-12.158-11.613-2.891-23.973-4.301-35.942-3.549-8.358.526-19.693 2.222-27.318 5.681-6.707 3.043-12.902 7.104-19.081 11.078-13.945 8.968-32.581 10.116-47.522 2.928-4.55-2.189-8.727-5.068-12.877-7.945-8.91-6.178-15.468-12.022-26.219-14.129-10.556-2.068-21.502-2.529-32.042-.108-34.905 8.017-68.555 39.4-66.926 76.771.636 14.581 8.364 28.307 19.229 38.053 6.722 6.029 14.326 11.207 22.626 14.808 7.767 3.369 16.08 2.556 24.338 4.526 7.658 1.827 17.376 4.583 22.008 11.288 4.887 7.075 7.304 16.242 9.423 24.468 6.303 24.466 24.729 39.157 50.341 37.247 9.681-.722 18.408-4.153 26.311-9.66 5.512-3.841 10.872-9.658 17.526-12.036 7.563-2.703 15.873.12 22.978 2.852 13.448 5.171 28.474 6.921 42.393 3.201 15.248-4.074 22.578-13.297 31.714-25.006 13.328-17.083 39.664-16.634 56.052-4.912 20.268 14.497 22.667 40.672 26.919 63.19.528 2.798 1.14 5.652 2.643 8.07.669 1.077 1.704 2.139 2.97 2.065.684-.04 1.306-.416 1.823-.866 2.232-1.942 2.829-5.116 3.293-8.038 5.396-34.018 8.505-75.051-15.461-102.623-7.256-8.347-16.707-14.008-24.211-21.893-8.488-8.919-11.437-22.236-15.078-33.685-3.647-11.465-7.476-23.323-14.681-32.823z"/></svg>