<svg xmlns="http://www.w3.org/2000/svg" xml:space="preserve" viewBox="0 0 1920 1080"><path d="M-.415 1077.594h288.57v4H-.415zM1919.585 1081.594h-288.569a2 2 0 0 1 0-4h288.569a2 2 0 0 1 0 4z"/><ellipse cx="1337.679" cy="188.476" rx="22.726" ry="22.681"/><ellipse cx="1491.969" cy="188.476" rx="22.726" ry="22.681"/><path fill="#2E9AFF" d="M1593.265 331.966c-.444-83.371-5.5-142.322-10.415-180.326-3.946-30.513-11.937-60.36-23.689-88.802l-18.633-45.094c-9.776-23.659-43.352-23.659-53.128 0l-32.747 79.25h-79.247l-32.747-79.25c-9.776-23.659-43.352-23.659-53.128 0l-11.223 27.161a479.159 479.159 0 0 0-30.136 106.271 30229.367 30229.367 0 0 1-6.476 39.734c-14.134 86.396-26.5 140.174-98.051 179.845-71.55 39.672-77.734 157.294-77.734 157.294h527.353c.001.001.885-30.344.001-196.083zM1337.679 212.31c-18.739 0-35.263-9.451-45.057-23.835 9.794-14.384 26.318-23.835 45.057-23.835s35.263 9.451 45.057 23.835c-9.794 14.385-26.318 23.835-45.057 23.835zm154.29 0c-18.739 0-35.263-9.451-45.057-23.835 9.794-14.384 26.318-23.835 45.057-23.835s35.263 9.451 45.057 23.835c-9.794 14.385-26.318 23.835-45.057 23.835z"/><path fill="#FFF" d="M1595.208 530.049h-531.403l.11-2.105c.016-.296 1.68-30.045 12.12-64.248 9.678-31.707 29.096-73.872 66.641-94.689 71.022-39.378 83.146-93.452 97.047-178.419 2.57-15.709 4.704-28.81 6.476-39.731a481.83 481.83 0 0 1 30.262-106.714l11.224-27.161C1292.521 5.273 1303.408-2 1316.097-2c12.688 0 23.574 7.272 28.412 18.98l32.236 78.013h76.57l32.236-78.013C1490.39 5.274 1501.275-2 1513.964-2c12.688 0 23.575 7.272 28.413 18.98l18.633 45.093c11.854 28.687 19.869 58.734 23.823 89.309 4.506 34.834 9.974 94.437 10.433 180.572.873 163.879.008 195.85-.001 196.153l-.057 1.942zm-527.15-4h523.25c.162-8.898.717-51.622-.042-194.073-.458-85.932-5.908-145.358-10.399-180.08-3.909-30.227-11.834-59.934-23.554-88.295l-18.633-45.093C1534.473 8.326 1525.001 2 1513.964 2c-11.038 0-20.508 6.325-24.715 16.508l-33.258 80.485h-81.922l-33.258-80.485C1336.604 8.326 1327.134 2 1316.097 2c-11.038 0-20.509 6.325-24.716 16.508l-11.224 27.161a477.834 477.834 0 0 0-30.01 105.827 30826.626 30826.626 0 0 1-6.478 39.737c-14.094 86.151-26.419 140.998-99.055 181.271-36.352 20.156-55.264 61.304-64.729 92.273-8.727 28.56-11.248 53.96-11.827 61.272zm423.911-311.739a56.466 56.466 0 0 1-46.71-24.708l-.767-1.126.767-1.126a56.465 56.465 0 0 1 46.71-24.709 56.466 56.466 0 0 1 46.711 24.709l.767 1.126-.767 1.126a56.468 56.468 0 0 1-46.711 24.708zm-42.615-25.834c9.857 13.698 25.685 21.834 42.615 21.834s32.759-8.136 42.616-21.834c-9.857-13.699-25.686-21.835-42.616-21.835s-32.758 8.136-42.615 21.835zM1337.68 214.31a56.468 56.468 0 0 1-46.711-24.708l-.767-1.126.767-1.126a56.466 56.466 0 0 1 46.711-24.709 56.465 56.465 0 0 1 46.71 24.709l.767 1.126-.767 1.126a56.467 56.467 0 0 1-46.71 24.708zm-42.617-25.834c9.857 13.698 25.686 21.834 42.616 21.834s32.758-8.136 42.615-21.834a52.466 52.466 0 0 0-42.615-21.835 52.468 52.468 0 0 0-42.616 21.835z"/><path fill="#FFF" d="m1193.91 436.211-70.772-50.533c-10.697 9.874-19.411 21.665-26.507 34.181-7.488 13.208-13.179 27.214-17.489 40.62l64.407 45.988a43.132 43.132 0 0 0 25.144 8.067c13.491 0 26.786-6.278 35.234-18.063 13.907-19.401 9.422-46.381-10.017-60.26zM1281.421 348.475l-67.633-49.263c-6.286 13.113-14.048 25.045-23.979 36.005-9.326 10.292-20.57 19.729-34.304 28.485l74.891 54.549a43.132 43.132 0 0 0 25.477 8.307c13.35 0 26.521-6.146 34.993-17.733 14.09-19.268 9.862-46.289-9.445-60.35z"/><path d="M1352.468 96.994h-72.744l20.082-53.803c5.995-14.509 26.585-14.509 32.58 0l20.082 53.803zM1550.336 96.994h-72.744l20.082-53.803c5.995-14.509 26.585-14.509 32.58 0l20.082 53.803z"/><path fill="#FFF" d="M1780.297 215.053a62.834 62.834 0 0 0-14.067 1.211c-27.955 5.634-49.336 29.925-50.11 59.588-.663 25.384-6.587 41.643-14.294 53.151 25.53.678 61.652-8.055 93.41-51.52 0 0 10.304 22.482 43.84 29.438a271.375 271.375 0 0 0 2.141-27.816c.899-34.478-26.374-63.154-60.92-64.052z"/><path d="M1451.048 275.392c-15.782 0-29.235-10.145-34.156-24.244-4.921 14.1-18.373 24.244-34.155 24.244-19.937 0-36.156-16.189-36.156-36.089a2 2 0 0 1 4 0c0 17.694 14.425 32.089 32.156 32.089 17.73 0 32.155-14.395 32.155-32.089a2 2 0 0 1 4 0c0 17.694 14.425 32.089 32.156 32.089 17.73 0 32.155-14.395 32.155-32.089a2 2 0 0 1 4 0c0 19.9-16.219 36.089-36.155 36.089z"/><path d="M1416.892 215.031h8.719c4.898 0 7.96 5.292 5.511 9.526l-4.359 7.536-7.234 12.504c-1.172 2.026-4.101 2.026-5.273 0l-7.234-12.504-4.36-7.536c-2.449-4.234.612-9.526 5.511-9.526h8.719zM1795.236 277.483c-31.758 43.465-67.88 52.199-93.41 51.521-4.36 6.511-9.289 11.507-14.163 15.76-20.682 18.049-52.116 30.707-85.395 44.109-36.618 14.746-74.484 29.995-107.04 55.647-30.27 23.851-52.277 52.189-65.181 83.529h165.79c15.656-8.204 34.106-15.645 53.256-23.357 39.529-15.919 84.331-33.962 120.941-65.909 38.954-33.994 62.097-78.267 69.041-131.864-33.535-6.954-43.839-29.436-43.839-29.436z"/><ellipse cx="536.09" cy="422.81" rx="22.726" ry="22.681"/><ellipse cx="381.8" cy="422.81" rx="22.726" ry="22.681"/><path fill="#FFF" d="M657.461 528.049c-12.387-28.259-18.691-61.868-25.388-102.804-2.57-15.71-4.704-28.811-6.476-39.734a479.213 479.213 0 0 0-30.136-106.271l-11.223-27.161c-9.776-23.659-43.352-23.659-53.128 0l-32.747 79.25h-79.247l-32.747-79.25c-9.776-23.659-43.352-23.659-53.128 0l-18.633 45.094c-11.753 28.442-19.743 58.289-23.689 88.802-4.127 31.906-8.351 78.585-9.863 142.075h376.405zM541.383 277.525c5.995-14.509 26.585-14.509 32.58 0l20.082 53.803h-72.744l20.082-53.803zm-5.293 121.451c18.738 0 35.263 9.451 45.057 23.835-9.794 14.384-26.318 23.835-45.057 23.835s-35.263-9.451-45.057-23.835c9.794-14.385 26.319-23.835 45.057-23.835zM426.857 422.81c-9.794 14.384-26.318 23.835-45.057 23.835-18.738 0-35.263-9.451-45.057-23.835 9.794-14.384 26.318-23.835 45.057-23.835 18.739.001 35.264 9.451 45.057 23.835zm-83.03-145.285c5.995-14.509 26.585-14.509 32.58 0l20.082 53.803h-72.744l20.082-53.803z"/><path d="M493.44 499.85c-15.782 0-29.234-10.145-34.156-24.244-4.921 14.1-18.374 24.244-34.156 24.244a2 2 0 0 1 0-4c17.731 0 32.156-14.395 32.156-32.088a2 2 0 0 1 4 0c0 17.693 14.425 32.088 32.156 32.088a2 2 0 0 1 0 4z"/><path d="M459.284 439.49h8.719c4.898 0 7.96 5.292 5.511 9.526l-4.359 7.536-7.234 12.504c-1.172 2.026-4.101 2.026-5.273 0l-7.234-12.504-4.359-7.536c-2.449-4.234.612-9.526 5.511-9.526h8.718z"/><path fill="#2E9AFF" d="M994.113 466.464c0-1.134-.029-2.267-.089-3.399-.01-.191-.661-20.513 4.855-42.42 5.537-21.995 14.304-35.496 26.06-40.131 68.214-26.894 96.3-70.559 107.848-102.453 14.018-38.715 12.804-82.682-3.608-130.68-11.619-33.985-48.644-52.134-82.692-40.534-34.05 11.597-52.234 48.546-40.614 82.529 6.418 18.769 7.973 34.571 4.381 44.493-3.539 9.773-14.703 18.422-33.183 25.708-14.319 5.645-27.444 13.161-39.331 22.443 32.649 27.53 53.477 68.606 53.668 114.46"/><path fill="#FFF" d="M991.408 396.479c-.191-45.854-21.02-86.93-53.668-114.46-26.295-22.172-60.254-35.561-97.293-35.561-14.239 0-25.823-11.561-25.823-25.772 0-14.211 11.584-25.772 25.823-25.772 34.557 0 62.57-27.959 62.57-62.446s-28.013-62.446-62.57-62.446c-83.241 0-150.963 67.588-150.963 150.665s67.722 150.665 150.963 150.665c14.239 0 25.823 11.561 25.823 25.772v.57l.394 21.541 1.99 108.815 125.12-.197-2.366-131.374z"/><path d="M837.978 528.049H719.356l32.747-79.25c9.776-23.659 43.352-23.659 53.128 0l32.747 79.25z"/><path fill="#FFF" d="M812.056 528.049h-66.778l18.435-49.391c5.503-13.319 24.405-13.319 29.908 0l18.435 49.391z"/><path d="M1035.845 528.049H917.223l32.747-79.25c9.776-23.659 43.352-23.659 53.128 0l32.747 79.25z"/><path fill="#FFF" d="M1009.924 528.049h-66.778l18.435-49.391c5.503-13.319 24.405-13.319 29.908 0l18.435 49.391z"/><path d="M1638.498 1082H281.504V733.089h4V1078h1348.994V733.089h4z"/><path fill="#2E9AFF" d="M1423.68 968.075h29.338v-90.344h20.374l-17.522-30.5-17.521-30.501-17.521 30.501-17.522 30.5h20.374zM1403.306 986.534h173.172v29.28h-173.172zM1526.766 968.075h29.339v-90.344h20.373l-17.521-30.5-17.522-30.501-17.521 30.501-17.521 30.5h20.373z"/><path fill="#FFF" d="M1804.564 735.089H115.438l167.104-209.04H1637.46l.601.751 166.503 208.289zm-1680.808-4h1672.49l-160.71-201.04H284.466l-160.71 201.04z"/><ellipse cx="557.673" cy="957.101" fill="#2E9AFF" rx="132.137" ry="61.845" transform="rotate(-23.07 557.702 957)"/><path fill="#2E9AFF" d="M358.685 870.575h185.583v107.282H358.685z"/><path fill="#FFF" d="M546.268 979.857H356.685V868.575h189.583v111.282zm-185.583-4h181.583V872.575H360.685v103.282z"/><path fill="#FFF" d="M384.465 898.257h132.606v4H384.465zM384.465 917.745h106.966v4H384.465zM384.465 937.231h124.791v4H384.465z"/></svg>