<svg xmlns="http://www.w3.org/2000/svg" xml:space="preserve" viewBox="0 0 1080 1080"><path fill="#2E9AFF" d="M518.062 362.838c-1.813-44.19 6.951-80.645 26.047-108.351 20.195-29.302 50.955-47.144 88.955-51.598 9.325-1.093 18.293-5.537 25.522-11.503 26.298-21.704 20.107-73.115-11.625-86.356-12.178-5.082-26.032-5.388-38.897-3.236-9.667 1.618-18.233 4.414-24.777 8.089-24.076 13.522-54.555 4.967-68.079-19.112-13.522-24.077-4.965-54.556 19.111-68.079 16.747-9.405 36.007-15.975 57.245-19.528 20.218-3.384 40.425-3.391 60.071-.019 57.924 9.942 98.626 44.172 114.609 96.384 6.981 22.804 9.032 47.605 5.934 71.724-3.225 25.109-11.99 48.989-25.347 69.058-22.905 34.413-60.128 56.974-102.126 61.898-27.696 3.246-27.611 35.031-26.729 56.531l1.213 173.466-99.164 1.129-1.963-170.497z"/><path fill="#FFF" d="M574.906 379.597c-.148-35.659-16.314-67.603-41.654-89.012-20.408-17.243-46.766-27.655-75.513-27.655-11.052 0-20.042-8.991-20.042-20.042 0-11.051 8.991-20.042 20.042-20.042 26.821 0 48.563-21.743 48.563-48.563s-21.742-48.563-48.563-48.563c-64.607 0-117.168 52.562-117.168 117.168 0 64.607 52.562 117.168 117.168 117.168 11.052 0 20.042 8.991 20.042 20.042v.443l.306 16.751 1.544 136.87 97.11-.153-1.835-154.412z"/><circle cx="775.614" cy="268.933" r="17.639"/><circle cx="895.364" cy="268.933" r="17.639"/><path fill="#2E9AFF" d="M973.983 380.521c-.345-64.835-4.269-110.68-8.084-140.234-3.063-23.729-9.264-46.94-18.386-69.059l-14.462-35.068c-7.588-18.399-33.647-18.399-41.234 0l-25.416 61.63h-61.506l-25.416-61.63c-7.588-18.399-33.647-18.399-41.234 0l-8.711 21.122a373.214 373.214 0 0 0-23.39 82.644 24133.12 24133.12 0 0 1-5.026 30.9c-10.97 67.188-20.568 109.009-76.101 139.861-55.533 30.851-60.332 122.323-60.332 122.323h409.298s.686-23.598 0-152.489zm-198.369-93.053c-14.544 0-27.369-7.349-34.97-18.535 7.601-11.186 20.427-18.536 34.97-18.536 14.544 0 27.369 7.35 34.97 18.536-7.601 11.186-20.427 18.535-34.97 18.535zm119.75 0c-14.544 0-27.369-7.349-34.97-18.535 7.601-11.186 20.427-18.536 34.97-18.536s27.369 7.35 34.97 18.536c-7.601 11.186-20.427 18.535-34.97 18.535z"/><path fill="#FFF" d="M975.926 535.01H562.578l.11-2.104c.012-.231 1.307-23.421 9.425-50.07 7.536-24.736 22.662-57.636 51.933-73.896 54.944-30.524 64.332-72.491 75.099-138.435a24604.78 24604.78 0 0 0 5.025-30.897 375.68 375.68 0 0 1 23.516-83.088l8.711-21.122c3.825-9.274 12.434-15.036 22.466-15.036s18.641 5.762 22.466 15.036l24.906 60.394h58.828l24.906-60.394c3.824-9.274 12.434-15.036 22.466-15.036h.001c10.032 0 18.641 5.762 22.465 15.036l14.462 35.068c9.216 22.345 15.447 45.75 18.521 69.565 3.499 27.101 7.744 73.471 8.101 140.479.678 127.451.006 152.321-.001 152.558l-.058 1.942zm-409.09-4h405.188c.135-7.803.538-41.858-.04-150.479-.355-66.805-4.583-113-8.067-139.989-3.029-23.467-9.17-46.531-18.251-68.552l-14.462-35.068c-3.195-7.748-10.387-12.562-18.768-12.562-8.382 0-15.573 4.813-18.77 12.562L867.74 199.79h-64.184l-25.926-62.868c-3.195-7.748-10.388-12.562-18.769-12.562s-15.573 4.813-18.769 12.562l-8.711 21.122a371.707 371.707 0 0 0-23.264 82.201c-1.375 8.495-3.033 18.685-5.027 30.903-10.96 67.129-20.548 109.866-77.103 141.286-28.104 15.613-42.729 47.535-50.05 71.565-6.571 21.58-8.588 40.791-9.101 47.011zm328.528-241.542a44.253 44.253 0 0 1-36.625-19.411l-.764-1.124.764-1.124a44.25 44.25 0 0 1 36.625-19.412 44.25 44.25 0 0 1 36.624 19.412l.764 1.124-.764 1.124a44.25 44.25 0 0 1-36.624 19.411zm-32.524-20.535a40.248 40.248 0 0 0 32.524 16.535 40.244 40.244 0 0 0 32.523-16.535 40.247 40.247 0 0 0-32.523-16.536 40.247 40.247 0 0 0-32.524 16.536zm-87.226 20.535a44.253 44.253 0 0 1-36.625-19.411l-.764-1.124.764-1.124a44.25 44.25 0 0 1 36.625-19.412 44.25 44.25 0 0 1 36.624 19.412l.764 1.124-.764 1.124a44.25 44.25 0 0 1-36.624 19.411zm-32.524-20.535a40.248 40.248 0 0 0 32.524 16.535 40.244 40.244 0 0 0 32.523-16.535 40.247 40.247 0 0 0-32.523-16.536 40.247 40.247 0 0 0-32.524 16.536z"/><path fill="#FFF" d="M664.029 461.589 609.1 422.291c-8.302 7.678-15.066 16.848-20.573 26.582-5.812 10.272-10.229 21.164-13.574 31.589l49.989 35.763a33.428 33.428 0 0 0 19.515 6.273c10.471 0 20.789-4.882 27.347-14.047 10.794-15.086 7.313-36.068-7.775-46.862zM731.95 393.359l-52.493-38.31c-4.879 10.198-10.903 19.477-18.611 28-7.238 8.004-15.965 15.343-26.624 22.152l58.125 42.421a33.428 33.428 0 0 0 19.774 6.46c10.362 0 20.584-4.78 27.159-13.79 10.936-14.984 7.655-35.997-7.33-46.933z"/><path d="M787.092 197.79h-56.46l15.586-41.841c4.653-11.283 20.634-11.283 25.287 0l15.587 41.841zM940.664 197.79h-56.46l15.586-41.841c4.653-11.283 20.634-11.283 25.287 0l15.587 41.841zM863.604 336.969c-12.018 0-22.322-7.474-26.51-18.017-4.188 10.543-14.492 18.017-26.51 18.017-15.721 0-28.51-12.789-28.51-28.509a2 2 0 0 1 4 0c0 13.515 10.995 24.509 24.51 24.509s24.51-10.994 24.51-24.509a2 2 0 0 1 4 0c0 13.515 10.995 24.509 24.51 24.509s24.509-10.994 24.509-24.509a2 2 0 0 1 4 0c-.001 15.72-12.79 28.509-28.509 28.509z"/><path d="M837.094 289.584h6.767c3.802 0 6.178 4.116 4.277 7.408l-3.384 5.861-5.614 9.724c-.909 1.575-3.183 1.575-4.093 0l-5.614-9.724-3.384-5.861c-1.901-3.293.475-7.408 4.277-7.408h6.768z"/><path fill="#FFF" d="M983.053 319.909a48.7 48.7 0 0 0-10.379 3.518c-20.026 9.429-31.637 31.732-26.72 54.277 4.208 19.294 2.757 32.669-.918 42.787 19.369-4.213 44.976-17.494 60.854-56.198 0 0 11.935 15.072 38.503 14.119a211.38 211.38 0 0 0-3.544-21.404c-5.715-26.204-31.591-42.814-57.796-37.099z"/><circle cx="174.743" cy="452.168" r="18.741"/><circle cx="294.077" cy="452.168" r="18.741"/><path fill="#FFF" d="M388.694 534.01c-9.614-21.976-14.507-48.113-19.704-79.948a22733.595 22733.595 0 0 1-5.026-30.9 373.214 373.214 0 0 0-23.39-82.644l-8.711-21.122c-7.588-18.399-33.647-18.399-41.234 0l-25.416 61.63h-61.506l-25.416-61.63c-7.588-18.399-33.647-18.399-41.234 0l-14.462 35.068c-9.122 22.119-15.323 45.33-18.386 69.059-3.203 24.812-6.481 61.113-7.655 110.488h292.14zm-90.093-194.826c4.653-11.283 20.634-11.283 25.287 0l15.586 41.841h-56.46l15.587-41.841zm-4.108 94.449c14.544 0 27.369 7.349 34.97 18.536-7.601 11.186-20.427 18.536-34.97 18.536-14.544 0-27.369-7.35-34.97-18.536 7.601-11.187 20.427-18.536 34.97-18.536zm-84.779 18.535c-7.601 11.186-20.427 18.536-34.97 18.536-14.544 0-27.369-7.35-34.97-18.536 7.601-11.186 20.427-18.536 34.97-18.536 14.543.001 27.368 7.35 34.97 18.536zm-64.443-112.984c4.653-11.283 20.634-11.283 25.287 0l15.586 41.841h-56.46l15.587-41.841z"/><path fill="none" stroke="#000" stroke-linecap="round" stroke-linejoin="round" stroke-miterlimit="10" stroke-width="4" d="M267.391 510.525c-14.641 0-26.51-11.869-26.51-26.51 0 14.641-11.869 26.51-26.51 26.51"/><path d="M240.881 465.139h6.767c3.802 0 6.178 4.116 4.277 7.408l-3.384 5.861-5.614 9.724c-.909 1.575-3.183 1.575-4.093 0l-5.614-9.724-3.384-5.861c-1.901-3.293.475-7.408 4.277-7.408h6.768zM454.799 534.01h-92.066l25.416-61.63c7.588-18.399 33.647-18.399 41.234 0l25.416 61.63z"/><path fill="#FFF" d="M434.68 534.01h-51.828l14.308-38.41c4.271-10.358 18.941-10.358 23.213 0l14.307 38.41z"/><path d="M608.372 534.01h-92.066l25.416-61.63c7.588-18.399 33.647-18.399 41.234 0l25.416 61.63z"/><path fill="#FFF" d="M588.253 534.01h-51.828l14.308-38.41c4.271-10.358 18.941-10.358 23.213 0l14.307 38.41z"/><path fill="none" stroke="#000" stroke-miterlimit="10" stroke-width="4" d="M974.682 666.018V1080.2H105.318V666.018"/><g fill="#2E9AFF"><path d="M761 963.872h28.072v-86.617h19.495l-16.766-29.242-16.765-29.242-16.766 29.242-16.765 29.242H761zM741.505 981.569h165.7v28.072h-165.7zM859.638 963.872h28.072v-86.617h19.495l-16.765-29.242-16.766-29.242-16.765 29.242-16.766 29.242h19.495z"/></g><ellipse cx="371.316" cy="923.82" fill="#2E9AFF" rx="129.054" ry="60.485" transform="rotate(-23.142 371.298 923.806)"/><g stroke="#FFF" stroke-miterlimit="10" stroke-width="4"><path fill="#2E9AFF" d="M177.029 839.171h181.198v104.954H177.029z"/><path fill="none" d="M202.2 868.209h129.473M202.2 887.273h104.439M202.2 906.338h121.842"/></g><path d="M976.738 533.336c14.591-12.298 28.566-26.154 40.069-42.557 23.058-32.883 32.292-70.602 27.587-112.366-26.567.953-38.503-14.119-38.503-14.119-15.878 38.704-41.485 51.985-60.854 56.198-2.079 5.724-4.868 10.41-7.753 14.524-12.242 17.459-33.588 32.837-56.186 49.117-20.547 14.802-41.663 30.033-59.542 49.203h155.182z"/><path fill="#FFF" d="m980.848 535.322 91.292 125.384H7.86l91.292-125.384h881.696m2.036-4H97.116L0 664.706h1080l-97.116-133.384z"/></svg>