<svg xmlns="http://www.w3.org/2000/svg" width="1550" height="750" xml:space="preserve"><circle cx="651.78" cy="197.34" r="124.3"/><path fill="#FFF" d="M825.8 343.24c-.08 0-.15 0-.23-.02l-58.43-6.36a2 2 0 1 1 .44-3.98l58.42 6.37a2 2 0 0 1-.2 3.99z"/><path d="m1303.49 433.44-1.51-.02-251.38-1.87.03-4 249.88 1.86 18.33-62.34 3.84 1.13z"/><path fill="#FFF" d="M693.06 348.98a43.92 43.92 0 0 1-60.49 63.7l60.49-63.7zM852.73 84.35a21 21 0 1 1-27.3 31.9 21 21 0 0 1 27.3-31.9z"/><path fill="#FFF" d="M813.43 134.97a2 2 0 0 1-1.93-1.49 52.84 52.84 0 0 1 56.66-66.2 2 2 0 1 1-.42 3.97 48.84 48.84 0 0 0-52.38 61.2 2 2 0 0 1-1.93 2.52zm261.92 342.54L729.92 212.19l430.6-7.87z"/><path d="m1337.95 313.96-124.29-82.85-160.31 76.43-1.72-3.62 162.36-77.4 123.36 82.23 26.98-28.78 2.91 2.74z"/><path fill="#FFF" d="M1413.64 532.98H421.8V46.78h991.84v486.2zm-987.84-4h983.84V50.78H425.8v478.2z"/><path d="M423.8 0h987.84v48.84H423.8z"/><path d="M1413.64 50.84H421.8V-2h991.84v52.84zm-987.84-4h983.84V2H425.8v44.84z"/><path fill="#FF8630" d="M468.54 24.15a13.76 13.76 0 1 1-27.52 0 13.76 13.76 0 0 1 27.52 0z"/><path d="M454.78 38.4c-7.86 0-14.26-6.4-14.26-14.25 0-7.87 6.4-14.26 14.26-14.26 7.86 0 14.26 6.4 14.26 14.26 0 7.86-6.4 14.25-14.26 14.25zm0-27.51a13.27 13.27 0 0 0-13.26 13.26 13.27 13.27 0 0 0 26.52 0c0-7.31-5.95-13.26-13.26-13.26z"/><path fill="#FFF" d="M506.68 24.15a13.76 13.76 0 1 1-27.51 0 13.76 13.76 0 0 1 27.51 0z"/><path fill="#FF8630" d="M544.83 24.15a13.76 13.76 0 1 1-27.51 0 13.76 13.76 0 0 1 27.5 0z"/><path d="M531.07 38.4c-7.86 0-14.26-6.4-14.26-14.25 0-7.87 6.4-14.26 14.26-14.26s14.26 6.4 14.26 14.26c0 7.86-6.4 14.25-14.26 14.25zm0-27.51a13.27 13.27 0 0 0-13.26 13.26 13.27 13.27 0 0 0 26.52 0c0-7.31-5.95-13.26-13.26-13.26z"/><path fill="#FF8630" d="m1226.34 645.52 6.38 53.06-237.79-28.5 134.62-94.33z"/><path d="m1235.01 700.87-2.53-.3-242.98-29.13 140.06-98.14 98.66 71.1 6.8 56.47zm-234.65-32.15 230.07 27.57-5.98-49.66-94.92-68.43-129.17 90.52z"/><path fill="#FF8630" d="m1287.3 581.33 1.7-23.08s1.94-6.2 10.82-3.1"/><path d="M1287.3 583.33h-.16a2 2 0 0 1-1.84-2.15l1.71-23.07c.01-.15.04-.3.09-.45a7.9 7.9 0 0 1 3.94-4.43c2.54-1.28 5.72-1.27 9.44.03a2 2 0 0 1-1.32 3.78c-2.62-.92-4.81-1-6.32-.24a4.1 4.1 0 0 0-1.86 1.9l-1.7 22.77a2 2 0 0 1-1.99 1.86z"/><path fill="#FF8630" d="M1308.72 747c5.58-.8 35-1.27 31.2-27.93l-13.62-98.47-8.57-58.8a10.2 10.2 0 0 0-18.26-4.62l-43.7 88.44"/><path d="m1308.79 747.5-.15-.99a49.6 49.6 0 0 1 1.96-.22c5.6-.57 18.68-1.92 25.21-10.27 3.38-4.31 4.59-10 3.6-16.88l-13.6-98.47-8.58-58.8a9.7 9.7 0 0 0-17.36-4.4l-43.64 88.37-.9-.44 43.69-88.44a10.7 10.7 0 0 1 19.2 4.78l8.58 58.79 13.6 98.47c1.03 7.16-.25 13.1-3.8 17.64-6.8 8.68-20.18 10.06-25.9 10.64a53 53 0 0 0-1.91.22z"/><path fill="#FF8630" d="M1059.33 645.52c-.49.49 183.3-.12 196.45.1l43.68-88.44a10.2 10.2 0 0 1 18.26 4.63l8.58 58.79 13.6 98.47c3.8 26.66-25.6 27.12-31.18 27.94l-247.82-.04"/><path d="m1308.86 749-247.95-.03v-4l247.67.04c.48-.07 1.12-.14 1.87-.21 5.4-.56 18.05-1.85 24.18-9.7 3.11-3.98 4.23-9.28 3.3-15.75l-13.6-98.48-8.58-58.77a8.2 8.2 0 0 0-14.57-3.86l-44.17 89.4-1.26-.02c-5.43-.1-39.47-.04-78.87.01-27.34.04-56.74.1-79.23.08-11.27 0-20.84-.01-27.6-.04a982.1 982.1 0 0 1-7.9-.06c-3.58-.05-4.14-.06-4.66-1.33l-.51-1.23.94-.95 1.42 1.42.28-1.97c2.69.25 66.2.16 117.25.08 37.09-.05 69.42-.1 77.67-.02l43.22-87.48.1-.15a12.22 12.22 0 0 1 21.84 5.54l8.59 58.8 13.6 98.47c1.08 7.58-.3 13.9-4.1 18.77-7.2 9.2-21.02 10.61-26.93 11.22-.76.08-1.4.14-1.85.2l-.15.03zm-249.53-103.48 1.42 1.41-1.42-1.41z"/><path fill="#FF8630" d="M721.82 179.34a11.33 11.33 0 1 0-17-14.92l-24.02 24.62-.07-.07 25.25-25.89 5.33-5.5a11.31 11.31 0 0 0-16.77-15.2c-.25.27-5.87 5.98-6.1 6.26l-24.01 24.61-.07-.06 24.74-25.37 10.31-10.48-.32.32c4.34-4.5 4.54-12 .04-16.35a11.32 11.32 0 0 0-16 .29c-.26.26-10.83 10.98-11.05 11.25l-24.02 24.62-.07-.07 25.75-26.4 4.65-4.91a11.32 11.32 0 0 0-16.16-15.58l-4.79 4.77 4.5-4.54c-.27.23-5.28 5.27-5.53 5.53-.25.26-.48.52-.7.8l-30.53 31.38-.53-.14 14.72-25.54-.05-.03.01-.01a11.33 11.33 0 1 0-20.1-10.37l-28.37 49.24a31.92 31.92 0 0 0-5.04 23.36c.25 3.45-.74 9.92-3.67 14.13l-177.4 183.39c-13.37 11.92-10.87 9.92-24.62 22.32l-.75.9-43.95-37.62-39.05 45.63 44.05 37.7-1.9 2.21c-51.14 59.76-7.37 97.23 12.61 114.32l218.8-103.47L495 399.09l-1.47-1.25 143.45-147.2a48.9 48.9 0 0 1 13.47-5.08 21.67 21.67 0 0 0 14.79-7.76l14.16-14.68 17.7-18.37 24.75-25.36-.04-.04z"/><path d="M351.14 569.94a2 2 0 0 1-1.3-.48c-9.84-8.42-26.32-22.52-33.55-41.98-8.75-23.58-1.78-48.86 20.73-75.16l.58-.68-42.53-36.41a2 2 0 0 1-.22-2.82l39.06-45.63a2 2 0 0 1 2.82-.22l42.5 36.37c5.74-5.19 8.53-7.75 11-10.02 3.17-2.92 5.68-5.23 13.14-11.87L580.6 197.83c2.56-3.8 3.43-9.6 3.23-12.63a34.1 34.1 0 0 1 5.34-24.66l28.28-49.1a13.35 13.35 0 0 1 18.72-5.91 13.34 13.34 0 0 1 5.12 17.8c-.04.15-.1.3-.18.44l-7.69 13.34 20.8-21.37c.24-.3.48-.58.75-.86.06-.06 5.28-5.32 5.66-5.65l.21-.16.14-.12a13.36 13.36 0 0 1 17.59.79 13.32 13.32 0 0 1 4.06 9.59 13.2 13.2 0 0 1 8.65-3.19 13.3 13.3 0 0 1 9.25 3.73c4.56 4.4 5.12 11.7 1.68 17.06a13.31 13.31 0 0 1 11.2 21.24 13.34 13.34 0 0 1 10.17 22.23 1.9 1.9 0 0 1-.3.39l-24.73 25.36-31.81 32.99a23.81 23.81 0 0 1-16 8.41 47.24 47.24 0 0 0-12.52 4.69L496.45 397.7l74.81 65.26a2 2 0 0 1-.46 3.32L352 569.75a2 2 0 0 1-.86.2zM299.2 413.5l42.54 36.4a2 2 0 0 1 .21 2.82l-1.89 2.21c-21.49 25.11-28.22 49.05-20.01 71.16 6.65 17.9 21.27 30.8 31.42 39.5l214.87-101.62-72.64-63.36-1.46-1.23a2 2 0 0 1-.14-2.93l143.46-147.2c.13-.13.27-.25.43-.34a50.69 50.69 0 0 1 14.29-5.33 19.78 19.78 0 0 0 13.53-7.16l31.86-33.05 24.52-25.13.22-.27h-.02A9.34 9.34 0 0 0 706.96 165a9.49 9.49 0 0 0-.7.8l-24.03 24.62a2 2 0 0 1-2.8.06c-.4-.37-.65-.9-.67-1.45s.16-1.08.54-1.47l25.25-25.88 5.27-5.46a9.32 9.32 0 0 0-13.84-12.45l-.57.58a513.29 513.29 0 0 0-5.45 5.58l-.08.1-24.02 24.61a2 2 0 0 1-2.82.05 2.1 2.1 0 0 1-.65-1.45c0-.53.16-1.08.54-1.46l24.74-25.37 9.9-10.07.08-.08c3.68-3.82 3.72-10.01.09-13.52a9.26 9.26 0 0 0-6.47-2.61 9.25 9.25 0 0 0-6.71 2.85l-1.38 1.4a1941.9 1941.9 0 0 0-9.6 9.77l-.07.09-24.02 24.61a2 2 0 0 1-2.84.03c-.78-.77-.86-2.1-.1-2.89l25.75-26.4 4.54-4.8a9.33 9.33 0 0 0-7.52-14.79 9.3 9.3 0 0 0-5.77 2l-4.7 4.68c-.1.1-.2.17-.3.24l-.72.74a9.3 9.3 0 0 0-.7.79l-30.53 31.38a2 2 0 0 1-1.92.54l-.5-.12a2 2 0 0 1-1.26-2.95l14.5-25.19c.05-.13.1-.26.18-.39a9.33 9.33 0 0 0-16.16-9.3 8.75 8.75 0 0 0-.48.93l-28.37 49.24-.07.12a29.9 29.9 0 0 0-4.71 22.1c.3 4.22-1 11.06-4.02 15.41-.06.1-.13.18-.2.26l-177.4 183.38a2.6 2.6 0 0 1-.1.1 923.67 923.67 0 0 0-13.16 11.89c-2.52 2.31-5.37 4.94-11.36 10.34l-.67.79a2 2 0 0 1-2.82.22l-42.43-36.31-36.46 42.59z"/><circle cx="144.03" cy="316.62" r="42.97"/><circle cx="168.97" cy="258.11" r="42.97"/><circle cx="225.54" cy="234.24" r="42.97"/><circle cx="295.23" cy="240.15" r="42.97"/><circle cx="159.45" cy="386.66" r="42.97"/><circle fill="#FFF" cx="254.03" cy="335.01" r="86.47"/><path fill="#FF8630" d="M307.81 266.19c-.77.9-1.47 1.83-2.12 2.78a88.9 88.9 0 0 0-111.02 129.7A30.86 30.86 0 1 0 243.31 435 88.87 88.87 0 0 0 349.1 311.44a30.85 30.85 0 1 0-41.28-45.24z"/><path d="M215.67 454.12a32.86 32.86 0 0 1-23.56-55.73c-21.08-33.43-17.95-77.42 7.85-107.55a90.79 90.79 0 0 1 69.06-31.78c12.5 0 24.6 2.5 36 7.43a32.83 32.83 0 0 1 47.6-5.2A32.65 32.65 0 0 1 364 283.71a32.64 32.64 0 0 1-7.8 23.9 33.11 33.11 0 0 1-4.61 4.44A90.95 90.95 0 0 1 338 409.01a90.8 90.8 0 0 1-69.05 31.77 90.91 90.91 0 0 1-24.64-3.4 32.83 32.83 0 0 1-28.65 16.74zm53.35-191.06A86.79 86.79 0 0 0 203 293.44c-25 29.2-27.74 72.03-6.65 104.14l.92 1.41-1.23 1.15a28.66 28.66 0 0 0-9.12 23.36 28.85 28.85 0 0 0 54.6 10.62l.76-1.52 1.61.49a86.87 86.87 0 0 0 25.07 3.69 86.78 86.78 0 0 0 66.02-30.37 86.95 86.95 0 0 0 12.31-94.12l-.73-1.52 1.38-.98a28.93 28.93 0 0 0 12.08-25.77 28.85 28.85 0 0 0-52.67-13.92l-.95 1.39-1.53-.7a86.17 86.17 0 0 0-35.85-7.73z"/><path d="M199.31 429.83a2 2 0 0 1-.06-4l27.93-1a2 2 0 1 1 .14 4l-27.93 1h-.07zm136.83-128.21a2 2 0 0 1-1.99-1.76l-3.32-27.75a2 2 0 1 1 3.98-.48l3.32 27.76a2 2 0 0 1-2 2.23zM196.39 399.2s64.52-44.54 46.84-123.15c0 0 42.14 20.7 63.19-4.65 0 0-52.39-27.77-96.6 12.51 0 0-55.69 47.17-13.43 115.3z"/><circle cx="250.38" cy="386.17" r="11.72"/><path d="M237.63 406.94a2 2 0 0 1-1.93-1.49 30.4 30.4 0 0 1 32.6-38.08 2 2 0 1 1-.43 3.97 26.38 26.38 0 0 0-28.31 33.08 2 2 0 0 1-1.93 2.51zm70.13-87.81a11.73 11.73 0 1 1-15.25 17.81 11.73 11.73 0 0 1 15.25-17.81z"/><path d="M287.38 348.8a2 2 0 0 1-1.93-1.48 30.39 30.39 0 0 1 32.6-38.08 2 2 0 1 1-.42 3.97 26.4 26.4 0 0 0-28.3 33.07 2 2 0 0 1-1.94 2.52zm1.41 20.89a2 2 0 0 1-1.3-.48l-12.97-11.1a2 2 0 1 1 2.6-3.04l12.97 11.1a2 2 0 0 1-1.3 3.51z"/><path fill="#FFF" d="M315.77 351.25a30.03 30.03 0 0 1-39.05 45.63l39.05-45.63zm29.32 98.4-7.84 1.75c-53.51 59.33-8.06 98.46 11.93 115.56l108.9 92.53 22.72 19.44 21.9 18.74 21.77-25.44 15.84-18.5.19.15 7.78-9.16 26.84-31.66 27-31.53 7.81-9.14-.19-.16 15.75-18.57 21.66-25.55-21.98-18.64-22.8-19.34-85.49-73.07"/><path fill="#FFF" d="m643.15 524.65 182.77-81.23s61.58-37.34 106.78-7.2l197.83 131.01s24.56 46.19-24.56 92.37c-49.14 46.18-31.45 89.42-31.45 89.42l-522.75.98s-63.54-1.97-71.73-63.87c-11.27-85.21 87.45-140.51 87.45-140.51l75.66-20.97z"/><path fill="#FF8630" d="m615.1 702.59-14.7-.07h-35.43v.09l34.39.01c.35-.03 8.37 0 8.73 0a11.32 11.32 0 0 1 .83 22.61l-7.67.03H565.1v.09l34.4.02a11.33 11.33 0 1 1 1.18 22.59h-.01v.05l-35.44-.01-25.51.14-20.4.11a21.68 21.68 0 0 1-15.88-5.17 48.95 48.95 0 0 0-13.03-6.1l-131.08.05a37.62 37.62 0 0 1-37.56-39.97l-.8-164.85 77.67 72.7-1.64 56.86 92.03-.03c5.06-.86 10.38-4.65 12.68-7.24a31.93 31.93 0 0 1 20.25-12.7L577 627.74a11.32 11.32 0 1 1 6.61 21.63h-.01l.02.05-28.57 7.3c.1.15.18.31.27.47l43.79-.04c.35-.04.7-.06 1.06-.06.36 0 7.46.07 7.81.1l-6.38-.06 6.75.1a11.32 11.32 0 0 1 .12 22.45l-6.75.1h-36.88v.1l34.4.01c.34-.03 15.4.06 15.76.06 6.25-.04 11.35 5 11.38 11.26.04 6.25-5.48 11.34-11.73 11.38"/><path d="M517.59 750.32c-5.59 0-11.1-2.02-15.38-5.66a46.8 46.8 0 0 0-12.1-5.68l-130.8.05A39.67 39.67 0 0 1 319.76 697l-.8-164.78a2 2 0 0 1 3.36-1.47l77.68 72.7a2 2 0 0 1 .63 1.51l-1.58 54.8 89.8-.02c4.5-.82 9.26-4.25 11.3-6.5a34.1 34.1 0 0 1 21.37-13.4l54.9-14.02c.36-.12.72-.24 1.1-.33 3.44-.89 7.03-.37 10.09 1.45a13.34 13.34 0 0 1-3.06 24.25 1.8 1.8 0 0 1-.44.17l-14.92 3.81 29.82-.03c.37-.03.75-.05 1.13-.06.1 0 7.5.07 8 .11.1 0 .18.02.27.04l.18.01a13.32 13.32 0 0 1 7.69 22.75c3.06.28 5.92 1.6 8.15 3.8a13.23 13.23 0 0 1 3.95 9.4c.03 6.33-4.8 11.83-11.04 13.1l.18.19a13.33 13.33 0 0 1-7.58 22.66 13.28 13.28 0 0 1 3.99 9.42 13.35 13.35 0 0 1-12.8 13.39c-.15.04-.31.06-.48.06l-35.43-.01-45.82.25c-.6.04-1.2.07-1.81.07zm-27.2-15.35c.2 0 .37.03.55.08a51.28 51.28 0 0 1 13.8 6.51 19.8 19.8 0 0 0 14.56 4.69l45.9-.26 35.01.01c.17-.04.34-.06.52-.05a9.33 9.33 0 0 0-.13-18.64h-.04a9.87 9.87 0 0 0-1.07.06l-34.4-.02a2 2 0 0 1-2-2 2.08 2.08 0 0 1 2-2.1l36.16.01 7.6-.03a9.32 9.32 0 0 0-.75-18.6h-.73a441.4 441.4 0 0 0-7.89-.01h-.13l-34.39-.01a2 2 0 0 1-2-2.01c0-1.1.9-2.09 2-2.09l35.44.01 14.1.06h.14c5.3-.03 9.77-4.32 9.74-9.37a9.25 9.25 0 0 0-2.77-6.58 9.26 9.26 0 0 0-6.55-2.7h-1.63c-3.32-.02-13.43-.07-14.1-.05h-.1l-34.4-.01a2 2 0 0 1-2-2c0-.53.22-1.09.6-1.46s.88-.64 1.4-.64h36.89l6.6-.1c4.58-.65 8-4.62 7.98-9.26a9.34 9.34 0 0 0-8.1-9.19l-6.64-.1c-.12 0-.25 0-.37-.03l-1.03-.01a9.84 9.84 0 0 0-1.05.06l-43.8.04a2 2 0 0 1-1.72-1l-.1-.18a6.72 6.72 0 0 0-.14-.23 2 2 0 0 1 1.2-3l28.17-7.18a2 2 0 0 1 .4-.16 9.34 9.34 0 0 0-4.61-18.07 8.42 8.42 0 0 0-1.01.31l-55.05 14.07c-.05 0-.1.02-.14.03a30.1 30.1 0 0 0-19.11 12.06c-2.82 3.16-8.62 7-13.85 7.87-.1.02-.22.03-.33.03l-92.02.04a2 2 0 0 1-2-2.06l1.6-55.97-73.62-68.9.78 160.2v.15a35.67 35.67 0 0 0 35.55 37.84l131.09-.05z"/><circle fill="#FFF" cx="520.92" cy="468.66" r="51.59"/><path fill="#FFF" d="M413.32 611.62s-15.8 27.46-51.85 40.45c-43.19 15.55-43.24 33.4-55.73 59.77 0 0-20.26-170 11.67-230.26l95.91 130.04z"/><path fill="#FF8630" d="M620.92 161.3s23.83 28.24-2.85 49.15"/><path d="M618.07 212.45a2 2 0 0 1-1.23-3.57c7.03-5.51 10.98-12.05 11.74-19.42 1.45-14.08-9.08-26.75-9.19-26.88a2 2 0 1 1 3.06-2.57c.48.56 11.73 14.1 10.1 29.86-.87 8.5-5.33 15.95-13.25 22.16-.36.28-.8.42-1.23.42z"/><path fill="#FF8630" d="M708.99 672.08a2 2 0 0 1-.81-3.83c68.6-30.27 112.76-79.12 137.72-114.77 27.03-38.63 37.95-70.42 38.06-70.74a2 2 0 1 1 3.8 1.29c-.12.32-11.23 32.65-38.59 71.74-25.25 36.07-69.92 85.5-139.38 116.14-.26.12-.53.17-.8.17zm155.25-47.17a2 2 0 0 1-1.5-3.32c39-44.2 46.6-114.13 46.68-114.83a2 2 0 0 1 3.98.41c-.08.72-7.82 71.92-47.66 117.07a2 2 0 0 1-1.5.67zm-154.67-23.08a2 2 0 0 1-.39-3.96c50.24-10.05 85.44-53.38 85.79-53.82a2 2 0 0 1 3.12 2.5c-.36.45-36.42 44.9-88.12 55.24a2.1 2.1 0 0 1-.4.04z"/><path fill="#FFF" d="M459.2 210.6c-14.36-31.84-28.28-60.6-53.3-90.1-19.46-22.94-42.67-39.73-67.11-48.56-29.12-10.5-61.09-14.38-90.02-10.9-19.74 2.36-37.72 8.08-53.27 16.83 11.85 15.96 22.34 38.42 19.66 55.72-1.64 10.56-7.73 18.26-18.13 22.89-17.6 7.84-36.74 2.07-44.52-13.43-7.35-14.65-2.98-30.5 13-47.08a120.75 120.75 0 0 1 24.07-19.26 81.96 81.96 0 0 0-8.94-9.5c-21.26-18.9-51-25.32-83.75-18.06-40.23 8.92-76.82 37.06-91.05 70.01l-3.67-1.58C16.88 83.5 54.6 54.43 96.02 45.25c34.04-7.55 65.03-.81 87.28 18.96a85.66 85.66 0 0 1 9.73 10.46c16.12-9.17 34.78-15.15 55.26-17.6 29.54-3.56 62.17.4 91.86 11.11 25.1 9.06 48.89 26.26 68.8 49.74 25.36 29.88 39.41 58.91 53.9 91.04l-3.65 1.64zM192.06 79.88a116.79 116.79 0 0 0-23.67 18.86c-14.88 15.45-18.9 29.36-12.3 42.52 6.8 13.55 23.7 18.53 39.31 11.57 9.07-4.05 14.4-10.73 15.8-19.85 2.55-16.39-7.69-37.88-19.14-53.1zm1122.99 35.55h57.28v57.28h-57.28z"/><path fill="#FF8630" d="M1431.95 117.43h53.29v53.28h-53.29z"/><path fill="#FFF" d="M1483.23 119.43v49.28h-49.28v-49.28h49.28m4-4h-57.28v57.28h57.28v-57.28z"/><path d="M1487.23 115.43h57.28v57.28h-57.28zm-114.58 0h57.28v57.28h-57.28zm-38.13 341.42 54.06 28.45-24.44 24.99-29.62-53.44m-10-9.78 38.72 69.85 31.96-32.66-70.68-37.19z"/><path d="m1359.62 465.55-35.1-18.47 19.23 34.69zm141 121.88-31.96 32.67-105.47-103.2 31.96-32.67z"/></svg>