<svg xmlns="http://www.w3.org/2000/svg" width="850" height="850" xml:space="preserve"><path fill="#FFF" d="M768.35 553.65H90.11V101.84h678.24v451.81zM95.47 548.3H763V107.2H95.47v441.1z"/><circle cx="236.08" cy="250.71" r="98.17"/><path fill="#FFF" d="M252.4 261.22c-.35 0-.72-.09-1.06-.27l-35.4-18.72a2.3 2.3 0 0 1 2.15-4.06l35.4 18.72a2.3 2.3 0 0 1-1.08 4.33z"/><path d="m680.71 427.47-172.97-1.29.03-4.59 169.51 1.26 12.29-41.79 4.4 1.3z"/><path fill="#FFF" d="M264.2 369a29.92 29.92 0 0 1-41.2 43.4l41.2-43.4z"/><circle fill="#FFF" cx="286.95" cy="168.22" r="14.3"/><path fill="#FFF" d="M269.47 192.76a2.3 2.3 0 0 1-2.22-1.7 36.92 36.92 0 0 1 39.6-46.27 2.3 2.3 0 1 1-.48 4.57 32.34 32.34 0 0 0-34.68 40.51 2.3 2.3 0 0 1-2.22 2.9zm255.14 263.79-235.3-180.72 293.31-5.36z"/><path d="m703.61 346.37-84.87-56.59-108.72 51.84-1.98-4.15 111.08-52.95 83.81 55.87 17.83-19.03 3.35 3.14zM92.79 71.29h672.88v33.26H92.79z"/><path d="M767.97 106.85H90.5V69h677.47v37.85zm-672.88-4.6h668.28V73.6H95.1v28.67z"/><path fill="#FF8630" d="M123.28 87.74a9.37 9.37 0 1 1-18.73 0 9.37 9.37 0 0 1 18.73 0z"/><path fill="#FFF" d="M149.26 87.74a9.37 9.37 0 1 1-18.73 0 9.37 9.37 0 0 1 18.73 0z"/><path fill="#FF8630" d="M175.25 87.74a9.37 9.37 0 1 1-18.74 0 9.37 9.37 0 0 1 18.74 0zm594.2 689.25 4.35 36.15-161.98-19.41 91.7-64.26z"/><path d="M776.43 815.76 605.6 795.3l97.95-68.64 68.07 49.06 4.82 40.05zm-158.37-23.6 153.11 18.35-3.88-32.24-63.79-45.98-85.44 59.87z"/><path fill="#FF8630" d="m810.97 733.27 1.17-15.72s1.31-4.23 7.37-2.11"/><path d="m810.97 735.57-.17-.01a2.3 2.3 0 0 1-2.12-2.46l1.17-15.72c.01-.17.04-.34.1-.51.07-.24.8-2.4 3.15-3.58 1.97-1 4.38-1 7.16-.02a2.3 2.3 0 0 1-1.51 4.34c-1.55-.55-2.78-.62-3.58-.22a2 2 0 0 0-.77.72l-1.14 15.33a2.3 2.3 0 0 1-2.29 2.13z"/><path fill="#FF8630" d="M825.57 846.12c3.8-.55 23.83-.87 21.24-19.03l-9.27-67.07-5.84-40.05a6.94 6.94 0 0 0-12.44-3.15l-29.76 60.25"/><path d="m825.9 848.4-.67-4.55a32 32 0 0 1 1.43-.16c3.56-.37 11.9-1.23 15.82-6.26 1.98-2.54 2.66-5.81 2.06-10.02l-9.27-67.08-5.84-40.03a4.63 4.63 0 0 0-8.2-2.26l-29.67 60.04-4.12-2.04 29.86-60.43.12-.17a9.14 9.14 0 0 1 6.07-3.61 9.18 9.18 0 0 1 6.86 1.73 9.18 9.18 0 0 1 3.62 6.08l5.84 40.04 9.28 67.1c.77 5.41-.24 9.95-3 13.48-5.13 6.57-14.83 7.57-18.97 8l-1.22.14z"/><path fill="#FF8630" d="M655.7 777c-.34.33 124.85-.09 133.8.06l29.77-60.24a6.94 6.94 0 0 1 12.44 3.15l5.84 40.05 9.27 67.07c2.59 18.16-17.44 18.48-21.25 19.03l-168.8-.02"/><path d="m825.73 848.42-168.97-.02v-4.6l168.65.03c.33-.05.75-.09 1.24-.14 3.57-.37 11.9-1.23 15.83-6.26 1.98-2.54 2.66-5.81 2.06-10.02l-9.27-67.08-5.84-40.03a4.64 4.64 0 0 0-8.2-2.26l-30.31 61.34-1.46-.02c-3.68-.06-26.77-.03-53.52 0-18.64.04-38.7.06-54.08.06-7.7 0-14.23 0-18.85-.03-8.83-.04-8.83-.04-9.44-1.52l2.12-.88 2.16-.8-2.16.8.28-2.27c2.15.17 45.3.1 79.97.06 24.36-.04 45.7-.07 52.14-.02l29.22-59.14.12-.17a9.2 9.2 0 0 1 16.55 4.2l5.84 40.04 9.28 67.09c.77 5.42-.24 9.96-2.99 13.48-5.14 6.58-14.84 7.57-18.98 8l-1.23.14-.16.02z"/><path fill="#FF8630" d="M425.79 459.45a7.71 7.71 0 1 0-11.58-10.16l-16.36 16.76-.04-.04 17.2-17.63 3.63-3.76a7.7 7.7 0 0 0-11.43-10.34c-.17.18-4 4.07-4.15 4.26L386.7 455.3l-.05-.04 16.86-17.28 7.02-7.14-.22.22c2.95-3.06 3.1-8.18.03-11.14a7.71 7.71 0 0 0-10.9.2c-.18.18-7.38 7.48-7.53 7.67l-16.36 16.76-.05-.05 17.54-17.98 3.17-3.34a7.71 7.71 0 0 0-11.02-10.61l-3.25 3.25 3.06-3.1c-.18.16-3.6 3.6-3.77 3.77-.17.18-.32.36-.47.55l-20.8 21.37-.36-.09 10.02-17.4-.03-.02v-.01a7.71 7.71 0 1 0-13.68-7.06l-19.33 33.54a21.76 21.76 0 0 0-3.44 15.92c.18 2.35-.5 6.75-2.5 9.62L209.83 597.83c-9.25 8.51-9.37 8.51-16.77 15.2l-.52.6-29.93-25.62L136 619.1l30 25.68-1.29 1.5c-34.83 40.7-5.02 66.23 8.6 77.87l149.03-70.48-51.04-44.53-1.01-.86L368 508.01c.21-.12 4.42-2.52 9.18-3.45a14.77 14.77 0 0 0 10.07-5.29l9.64-10 12.06-12.51 16.86-17.28-.03-.02z"/><path d="M173.3 726.45a2.3 2.3 0 0 1-1.49-.55c-6.77-5.8-18.11-15.5-23.12-28.99-6.06-16.32-1.33-33.78 14.07-51.88l-28.26-24.19a2.3 2.3 0 0 1-.25-3.24l26.6-31.08a2.3 2.3 0 0 1 3.24-.26l28.32 24.25 4.61-4.15c2.92-2.61 5.03-4.5 11.2-10.18l120.64-124.73c1.56-2.36 2.1-6.04 2-7.9a24.2 24.2 0 0 1 3.77-17.4l19.23-33.37a10.03 10.03 0 0 1 14.06-4.42 10.03 10.03 0 0 1 3.88 13.29c-.04.14-.1.28-.18.41l-1.51 2.62 8.93-9.18.53-.6c.06-.06 3.07-3.1 3.8-3.79l.13-.13.16-.13a10.04 10.04 0 0 1 13.3.51 9.97 9.97 0 0 1 2.92 5.5 9.95 9.95 0 0 1 12.05 1.41c3.05 2.94 3.72 7.6 2.02 11.42a10.03 10.03 0 0 1 7.72 14.5 10 10 0 0 1 6.07 16.54 2.4 2.4 0 0 1-.29.35l-16.85 17.28-21.64 22.44a17.17 17.17 0 0 1-11.45 6.03c-3.72.74-7.15 2.5-8.1 3.02l-95.77 98.27 50.21 43.81a2.3 2.3 0 0 1-.53 3.8l-149.02 70.5c-.32.16-.65.23-.98.23zm-34.07-107.6 28.27 24.19a2.3 2.3 0 0 1 .25 3.23l-1.3 1.5c-14.4 16.83-18.92 32.82-13.45 47.54 4.35 11.71 13.85 20.27 20.67 26.13l144.52-68.35-49.38-43.05a2.3 2.3 0 0 1-.17-3.36l97.72-100.27c.15-.15.31-.28.5-.39.18-.1 4.73-2.72 9.88-3.72l.23-.04a12.54 12.54 0 0 0 8.63-4.6l21.7-22.5 16.6-17.01.24-.3a5.38 5.38 0 0 0-.14-7.66 5.38 5.38 0 0 0-8 .52l-.14.17-16.36 16.77c-.43.44-1.01.69-1.62.69a2.45 2.45 0 0 1-1.63-.65 2.35 2.35 0 0 1-.08-3.3l20.77-21.32a5.42 5.42 0 0 0-8.07-7.2l-.75.76c-.9.92-3 3.07-3.3 3.4a1.3 1.3 0 0 1-.11.1l-16.36 16.77a2.3 2.3 0 0 1-3.18.1 2.36 2.36 0 0 1-.16-3.35l23.58-24.12.07-.07c2.12-2.2 2.16-5.89.09-7.89a5.38 5.38 0 0 0-7.66.14l-1.1 1.11c-1.63 1.66-5.94 6.04-6.35 6.48l-.08.08-16.36 16.77a2.28 2.28 0 0 1-3.25.03 2.36 2.36 0 0 1-.09-3.29l17.54-17.98 3.04-3.21a5.43 5.43 0 0 0-4.4-8.54c-1.2 0-2.37.4-3.31 1.12l-3.16 3.16-.26.22-.43.43c-.1.1-.21.24-.32.37l-.15.17-20.8 21.37a2.3 2.3 0 0 1-2.2.63l-.3-.08a2.3 2.3 0 0 1-1.5-3.38l9.85-17.08c.04-.12.1-.23.16-.35a5.42 5.42 0 1 0-9.71-4.77l-19.32 33.54-.09.14a19.54 19.54 0 0 0-3.05 14.47c.18 2.5-.44 7.54-2.9 11.1-.07.1-.15.2-.24.28L211.47 599.42l-.1.1c-6.22 5.73-8.35 7.63-11.28 10.26l-5.39 4.85-.41.49a2.3 2.3 0 0 1-3.25.26l-28.19-24.13-23.62 27.6z"/><circle cx="32.23" cy="552.96" r="29.27"/><circle cx="49.22" cy="513.11" r="29.27"/><path d="M116.91 494.42a29.27 29.27 0 1 1-58.33 4.86 29.27 29.27 0 0 1 58.33-4.86z"/><path d="M164.39 498.44a29.28 29.28 0 1 1-58.35 4.85 29.28 29.28 0 0 1 58.35-4.85z"/><circle cx="42.73" cy="600.67" r="29.27"/><circle fill="#FFF" cx="107.15" cy="565.49" r="58.9"/><path fill="#FF8630" d="M143.79 518.6c-.53.62-1 1.25-1.45 1.9a60.56 60.56 0 0 0-75.62 88.35 21.02 21.02 0 1 0 33.14 24.75 60.54 60.54 0 0 0 72.05-84.18 21 21 0 0 0 1.51-33.12 21.03 21.03 0 0 0-29.63 2.3z"/><path d="M81.02 647.55a23.34 23.34 0 0 1-17.22-39.01 63.14 63.14 0 0 1 5.81-73.75 62.78 62.78 0 0 1 47.76-21.97 62.3 62.3 0 0 1 24.21 4.85l.46-.56a23.3 23.3 0 0 1 32.88-2.54 23.11 23.11 0 0 1 8.08 15.9 23.18 23.18 0 0 1-8.24 19.65 62.88 62.88 0 0 1-9.69 66.38 62.77 62.77 0 0 1-47.75 21.97 63 63 0 0 1-16.34-2.15 23.32 23.32 0 0 1-19.96 11.24zm36.35-130.14a58.2 58.2 0 0 0-44.27 20.37 58.5 58.5 0 0 0-4.46 69.81l1.06 1.62-1.42 1.32a18.74 18.74 0 0 0 12.74 32.43 18.71 18.71 0 0 0 16.77-10.39l.87-1.73 1.85.56a58.19 58.19 0 0 0 61.07-17.89 58.3 58.3 0 0 0 8.25-63.1l-.83-1.74 1.57-1.12a18.75 18.75 0 0 0 1.35-29.5 18.72 18.72 0 0 0-27.68 3.75l-1.09 1.6-1.76-.8a57.7 57.7 0 0 0-24.02-5.19z"/><path d="M69.88 631.01a2.3 2.3 0 0 1-.08-4.59l19.03-.68h.08a2.3 2.3 0 0 1 .08 4.59l-19.02.68h-.09zm93.2-87.33a2.3 2.3 0 0 1-2.28-2.02l-2.26-18.9a2.3 2.3 0 0 1 4.56-.55l2.26 18.9a2.3 2.3 0 0 1-2.28 2.57zM69.45 609.4s42.27-30.6 30.22-84.14c0 0 29.31 15.16 43.65-2.1 0 0-36.3-19.99-66.4 7.46 0 0-36.25 32.38-7.47 78.78zm40.41-15.13a7.99 7.99 0 1 1-10.38 12.13 7.99 7.99 0 0 1 10.38-12.13z"/><path d="M95.98 615.41a2.3 2.3 0 0 1-2.22-1.7 21.64 21.64 0 0 1 23.2-27.11 2.3 2.3 0 0 1-.48 4.57 17.07 17.07 0 0 0-18.28 21.35 2.3 2.3 0 0 1-2.22 2.9zm47.78-60.74a8 8 0 1 1-10.4 12.13 8 8 0 0 1 10.4-12.13z"/><path d="M129.87 575.82a2.3 2.3 0 0 1-2.22-1.7 21.64 21.64 0 0 1 23.2-27.12 2.3 2.3 0 1 1-.48 4.57 17.04 17.04 0 0 0-18.28 21.35 2.3 2.3 0 0 1-2.22 2.9zm.96 14.22a2.3 2.3 0 0 1-1.5-.55l-8.83-7.56a2.3 2.3 0 1 1 2.99-3.5l8.83 7.57a2.3 2.3 0 0 1-1.5 4.04z"/><path fill="#FFF" d="M149.2 576.55a20.45 20.45 0 1 1-26.6 31.08l26.6-31.08zm19.98 67.02-6.96 1.15c-36.45 40.4-3.87 67.12 9.74 78.77l74.2 63.02 15.46 13.24 14.92 12.77 14.83-17.33 10.79-12.6.13.1 5.3-6.24 18.28-21.56 18.39-21.48 5.32-6.23-.13-.1 10.73-12.66 14.76-17.4-14.98-12.7-15.53-13.16-58.23-49.78"/><path fill="#FFF" d="m372.2 694.67 124.5-55.34s41.94-25.43 72.73-4.9l134.76 89.24s16.73 31.46-16.73 62.92c-33.47 31.45-21.02 62.35-21.02 62.35H329.69s-63.01-2.12-68.59-44.28c-7.68-58.05 59.57-95.72 59.57-95.72l51.54-14.27z"/><path fill="#FF8630" d="m353.1 815.87-10.01-.05h-24.14v.06h29.37a7.72 7.72 0 0 1 .57 15.41l-5.22.02h-24.63v.06l23.42.01a7.72 7.72 0 1 1 .8 15.39v.03h-24.14l-17.38.1-13.89.07c-4 .33-7.89-1-10.82-3.52a33.28 33.28 0 0 0-8.87-4.16l-89.3.03a25.63 25.63 0 0 1-25.57-27.22l-.55-112.29 52.9 49.52-1.1 38.73 62.68-.02c3.45-.58 7.07-3.17 8.64-4.93a21.72 21.72 0 0 1 13.79-8.65l37.5-9.58a7.71 7.71 0 1 1 4.5 14.73v.04l-19.45 4.97.18.32 29.83-.03c.24-.02.48-.04.72-.04.25 0 5.08.05 5.32.07l-4.35-.03 4.6.06a7.72 7.72 0 0 1 .09 15.29l-4.6.07h-25.12v.06l23.42.01c.24-.02 10.5.04 10.74.04a7.72 7.72 0 0 1 7.76 7.67c.02 4.26-3.74 7.72-8 7.75"/><path d="M286.68 849.31c-4 0-7.96-1.44-11.04-4.04a31.05 31.05 0 0 0-7.82-3.69l-88.95.04a27.96 27.96 0 0 1-27.88-29.59l-.55-112.21a2.3 2.3 0 0 1 3.87-1.69l52.9 49.52c.48.45.75 1.08.73 1.74l-1.04 36.37 60.11-.02c2.77-.54 5.8-2.7 7.06-4.08a24.17 24.17 0 0 1 15.1-9.45l37.32-9.54.78-.23a10.02 10.02 0 0 1 4.95 19.43l-2.93.75h12.8c.27-.03.54-.05.82-.05.06 0 4.38.04 5.35.07a2.22 2.22 0 0 1 .38.03l.13.01a10.03 10.03 0 0 1 6.91 15.8 9.94 9.94 0 0 1 4.43 2.55 9.95 9.95 0 0 1 2.97 7.06c.02 4.24-2.84 7.98-6.77 9.43a10.03 10.03 0 0 1-5 15.64 10.03 10.03 0 0 1-7.6 15.9c-.14.02-.3.04-.45.04l-24.13-.01-31.18.17c-.42.04-.85.05-1.27.05zM268.16 837c.2 0 .42.03.62.09a35.28 35.28 0 0 1 9.75 4.62 12.53 12.53 0 0 0 9.31 2.97l31.27-.17h23.75c.15-.02.32-.03.47-.03a5.43 5.43 0 1 0-.86-10.8h-23.43a2.3 2.3 0 0 1-2.3-2.3 2.36 2.36 0 0 1 2.3-2.36h24.63l5.13-.02a5.42 5.42 0 0 0-.44-10.8h-.54c-3.96-.02-5.08-.02-5.3 0h-.14l-23.44-.01a2.3 2.3 0 0 1-2.29-2.37 2.36 2.36 0 0 1 2.3-2.3l33.71.06h.12c3.06-.03 5.72-2.57 5.7-5.45a5.37 5.37 0 0 0-5.4-5.38h-.04l-1.1-.01c-2.22-.01-8.93-.05-9.54-.03h-.1l-23.43-.01a2.3 2.3 0 0 1-2.3-2.3 2.36 2.36 0 0 1 2.3-2.36H344l4.42-.06a5.42 5.42 0 0 0-.07-10.7l-4.47-.06-.33-.03h-.6a5.81 5.81 0 0 0-.73.03l-29.82.03a2.3 2.3 0 0 1-2-1.17l-.14-.24a2.3 2.3 0 0 1 1.38-3.43l19.1-4.87c.11-.06.23-.1.36-.13a5.43 5.43 0 0 0-2.68-10.5c-.18.04-.34.1-.5.15l-.2.06-37.5 9.58-.16.04a19.58 19.58 0 0 0-12.48 7.91c-1.67 1.88-5.71 4.95-9.97 5.67l-.38.03-62.69.02a2.3 2.3 0 0 1-2.3-2.36l1.1-37.7-48.27-45.16.52 106.95v.16a23.36 23.36 0 0 0 23.28 24.78l89.3-.04z"/><circle fill="#FFF" cx="288.95" cy="656.52" r="35.14"/><path fill="#FFF" d="M215.66 753.9s-10.77 18.7-35.32 27.56c-29.42 10.59-29.45 22.75-37.97 40.71 0 0-13.8-115.8 7.96-156.84l65.33 88.57z"/><path fill="#FF8630" d="M358.86 450s16.23 19.25-1.94 33.5"/><path d="M356.92 485.79a2.3 2.3 0 0 1-1.42-4.1c4.57-3.59 7.14-7.82 7.64-12.57.96-9.16-5.97-17.55-6.04-17.64a2.3 2.3 0 0 1 3.51-2.95c.34.4 8.25 9.91 7.1 21.04-.62 6.05-3.78 11.34-9.38 15.73-.42.33-.92.49-1.41.49z"/><path fill="#FF8630" d="M417.05 796.02a2.3 2.3 0 0 1-.93-4.4c46.54-20.53 76.5-53.67 93.43-77.86 18.34-26.2 25.73-47.73 25.8-47.94a2.3 2.3 0 1 1 4.36 1.47c-.3.9-7.69 22.37-26.4 49.1-17.27 24.68-47.82 58.48-95.33 79.44-.3.13-.62.2-.93.2zM522.8 763.9a2.3 2.3 0 0 1-1.72-3.82c26.37-29.89 31.52-77.22 31.57-77.7a2.3 2.3 0 1 1 4.57.47c-.2 2-5.36 49.3-32.7 80.27a2.3 2.3 0 0 1-1.72.77zm-105.35-15.73a2.3 2.3 0 0 1-.45-4.55c33.88-6.77 57.65-36.03 57.9-36.33a2.3 2.3 0 0 1 3.58 2.87c-1 1.26-25.03 30.86-60.58 37.97-.15.02-.3.04-.45.04z"/><path fill="#FFF" d="M583.77 203.5a2.3 2.3 0 0 1-2.3-2.22c-.79-23.71-2.1-45.37-10.19-70.31-6.27-19.35-16.44-35.8-29.43-47.58-15.52-14.06-34.52-24.71-53.5-29.98-12.56-3.48-24.89-4.57-36.52-3.29.98 4.06 1.7 8.34 2.07 12.48.7 7.95.5 19.15-4.48 27.4-3.94 6.51-10.04 9.93-18.12 10.17-13.66.4-24.6-8.57-25.53-20.86-.87-11.57 6.18-20.73 20.94-27.22a83.03 83.03 0 0 1 19.3-5.78 52.01 52.01 0 0 0-2.78-7.15c-8.36-17.14-25.2-28.7-47.4-32.56-27.37-4.75-57.39 3.4-74.69 20.27a2.3 2.3 0 1 1-3.2-3.3c18.3-17.85 49.92-26.49 78.68-21.5 23.7 4.12 41.72 16.57 50.74 35.07 1.2 2.46 2.3 5.36 3.25 8.5 12.43-1.48 25.58-.37 38.96 3.34 19.67 5.46 39.33 16.47 55.36 31.01 13.58 12.32 24.2 29.46 30.72 49.56 8.27 25.51 9.61 47.51 10.42 71.58a2.3 2.3 0 0 1-2.22 2.37h-.08zM447.26 50.75a78.45 78.45 0 0 0-18.7 5.55c-12.97 5.7-18.93 13.11-18.22 22.66.74 9.8 9.7 16.9 20.82 16.62 6.52-.2 11.2-2.8 14.32-7.96 5.41-8.94 4.82-24.48 1.78-36.87zM649.44 170.7h39.02v39.02h-39.02z"/><path fill="#FF8630" d="M730 173h34.43v34.43H730z"/><path fill="#FFF" d="M762.13 175.3v29.83H732.3V175.3h29.83m4.6-4.6H727.7v39.03h39.03V170.7z"/><path d="M766.73 170.7h39.02v39.02h-39.02zm-78.05 0h39.02v39.02h-39.02zm-97.7 310.69 55 28.94-24.87 25.42-30.13-54.36m-10-9.78 39.23 70.77 32.38-33.1-71.61-37.67z"/><path d="m616.55 490.32-35.57-18.71 19.48 35.15zm3.66 52.05 32.39-33.1 106.87 104.57-32.39 33.1z"/></svg>