<svg xmlns="http://www.w3.org/2000/svg" viewBox="0 0 1925 1050" xml:space="preserve"><path fill="#FFF" d="M346.07 641.3a60.67 60.67 0 0 1-31.69-8.84c-14.98-9.1-25.18-24.04-28.7-42.04-5.44-27.75 6.15-54.9 32.62-76.44 13.97-11.36 30.58-16.49 46.64-21.45 13.87-4.28 28.22-8.71 40.52-17.16 52.03-35.75 71.52-79.34 67.27-150.46-2.34-39.1-22.67-76.62-53.06-97.9-18.28-12.8-48.53-25.54-88.75-13.56a2.5 2.5 0 0 1-1.43-4.8c42.14-12.54 73.86.84 93.05 14.27 31.6 22.13 52.75 61.1 55.18 101.7 2.13 35.6-1.48 63.29-11.37 87.13-10.87 26.21-29.86 48.37-58.05 67.74-12.93 8.88-27.65 13.43-41.88 17.82-16.33 5.04-31.75 9.8-44.96 20.55-33.7 27.42-33.81 56.63-30.88 71.6 3.26 16.6 12.63 30.36 26.4 38.73 13.72 8.34 30.18 10.32 46.34 5.58 36.53-10.7 60.74-34.31 86.38-59.31 4.65-4.54 9.46-9.23 14.4-13.9 25.8-24.39 54.25-43.84 84.58-57.82 32.9-15.17 66.42-23.07 99.62-23.47l2.4-.01c71.79 0 139.3 38.66 168.55 96.75a2.5 2.5 0 1 1-4.46 2.25c-28.75-57.07-95.62-94.86-166.43-93.99-32.49.4-65.32 8.13-97.59 23-29.83 13.76-57.83 32.91-83.24 56.93-4.9 4.64-9.7 9.32-14.34 13.84-26.1 25.44-50.74 49.47-88.46 60.53a66.27 66.27 0 0 1-18.66 2.73zm1009.88 249c-6 0-12.07-.11-18.2-.32-77.72-2.64-136.04-23.6-173.34-62.29a2.5 2.5 0 0 1 3.6-3.47c36.37 37.72 93.53 58.17 169.9 60.76 75.16 2.57 139.9-10.7 192.38-39.39 62.14-33.97 105.38-90.85 115.66-152.15 3.02-18.02 1.89-37.64-3.98-54.29-16.36 5.36-31.8 6.9-45.5 4.46-14.76-2.64-25-10.07-28.09-20.39a21.14 21.14 0 0 1 5.89-21.47c3.92-3.71 15.28-11.53 36.08-4.04 16.39 5.9 27.7 18.94 34.47 35.09 27.55-10.14 54.64-30.01 73.54-50.22 30.43-32.53 54.61-73.7 69.93-119.04 17.33-51.3 24.12-109.5 18.63-159.68-4.33-39.56-14.22-77.57-28.6-109.93-17.18-38.66-40.27-68.72-68.64-89.35a2.5 2.5 0 0 1 2.94-4.04c29.09 21.15 52.73 51.89 70.27 91.35 14.59 32.83 24.62 71.36 29 111.43 5.56 50.87-1.31 109.85-18.87 161.82-15.54 46.01-40.1 87.8-71.01 120.86-15.84 16.93-36.51 32.68-56.7 43.2a160.67 160.67 0 0 1-18.67 8.32c6.17 17.5 7.4 37.97 4.24 56.74-10.53 62.8-54.72 121.01-118.2 155.72-48.98 26.78-108.36 40.31-176.73 40.31zm237.96-290.7c-6.55 0-12.15 1.94-16.2 5.78a15.96 15.96 0 0 0-4.54 16.41c2.53 8.44 11.34 14.6 24.19 16.9 13.49 2.4 28.14.52 42.78-4.27-6.27-14.78-16.6-26.66-31.48-32.01a43.97 43.97 0 0 0-14.75-2.82zm-428.39-477.29c-85.62 0-155.95 65.39-163.82 148.94a122.76 122.76 0 0 0-34.3-4.86c-67.77 0-122.71 54.94-122.71 122.7 0 67.77 54.94 122.71 122.7 122.71 53.63 0 99.21-34.4 115.9-82.34a163.8 163.8 0 0 0 82.23 21.98c90.88 0 164.56-73.67 164.56-164.56S1256.4 122.3 1165.52 122.3zm225.33 30.64a130.7 130.7 0 0 0-6.27-12.8c1.8 4.18 3.33 8.5 4.56 12.94.56-.06 1.13-.1 1.7-.14z"/><path fill="#FFF" d="M1392.93 223.24c-3.07 0-6.04-.4-8.88-1.13a102.5 102.5 0 0 1-93.68 60.89 102.5 102.5 0 0 1-93.6-60.7 35.18 35.18 0 1 1-5.14-69.28c12-43.25 51.66-75 98.74-75 6.39 0 26.13.25 32.2 1.37-11.57-3.42-31.28-6.89-43.96-6.89-70.84 0-134.28 59.4-134.28 130.25 0 70.84 57.43 128.27 128.27 128.27 64.07 0 117.17-46.98 126.73-108.37-2.07.38-4.21.6-6.4.6z"/><path fill="#FFD829" d="M1265.31 312.29h-43.37c-45.16.6-58.31 14.07-74.47 31.29-.15.16-26.15 29.63-26.25 29.82L942.14 577.1l79.63 70.33 203.85-230.79-33.71-29.78 73.4-74.57z"/><path d="M1021.76 649.93a2.5 2.5 0 0 1-1.65-.62l-79.62-70.33a2.5 2.5 0 0 1-.22-3.53l179.07-203.7.03.02a3881.3 3881.3 0 0 1 26.28-29.9c15.83-16.88 29.5-31.46 76.26-32.09h43.4a2.5 2.5 0 0 1 1.78 4.26l-71.55 72.7 31.73 28.03a2.5 2.5 0 0 1 .22 3.53l-203.85 230.79a2.5 2.5 0 0 1-1.88.84zm-76.1-73.05 75.89 67.02 200.54-227.04-31.84-28.12a2.5 2.5 0 0 1-.13-3.63l69.22-70.32h-37.4c-44.6.6-56.97 13.8-72.65 30.5a11675.96 11675.96 0 0 0-26.2 29.75L945.68 576.88z"/><path fill="#FFD829" d="m1163.26 408.27-.38 203.54h255.5l-.35-209.81 162.44-16.73a72.56 72.56 0 0 0 54.03-53.35l40.52-164.87c2.63-7.86 6.47-12.66 10.8-17.73a68.85 68.85 0 0 0 11.62-19.63 138.2 138.2 0 0 0 5.6-18.28l7.45-30.25 3.64-14.1c1.83-7.42-2.5-14.93-9.69-16.78-7.18-1.86-14.48 2.65-16.3 10.06l-2.36 8.82 3.47-14.2c1.83-7.41-2.51-14.92-9.7-16.78-7.17-1.85-14.47 2.66-16.3 10.07-.1.43-.18.85-.25 1.28l-4.61 18.18-.11-.03 5.1-20.74s-.07-.02-.06-.03c1.82-7.41-2.52-14.93-9.7-16.78-7.18-1.86-14.47 2.65-16.3 10.07-.1.42-.18.84-.25 1.27l-4.79 19.5-.11-.03 9.98-40.54s-.06-.01-.06-.03c1.83-7.41-2.51-14.93-9.69-16.78-7.18-1.86-14.48 2.65-16.3 10.07-.1.42-.19.85-.25 1.27l-12.42 50.44c-.17.44-.39.44-.61.18l.05-24.1s-.06 0-.06-.02c.03-7.65-5.94-13.84-13.35-13.85-7.4 0-13.44 6.2-13.47 13.84 0 .44.02.86.06 1.29l-.2 57.5a39.66 39.66 0 0 0 8.51 27.83c2.3 3.55 7.58 8.27 5.55 16.83l-37.65 148.1-224.8 19.14h-2.6l.17-69.12-68.98-.16-.16 69.29"/><path d="M1418.38 616.3h-255.5a2.5 2.5 0 0 1-2.5-2.5l.38-205.53a2.5 2.5 0 1 1 5 .01l-.37 201.03h250.49l-.35-207.3a2.5 2.5 0 0 1 2.25-2.5l162.27-16.7a69.73 69.73 0 0 0 52.02-51.49l40.52-164.87.06-.2c2.72-8.13 6.7-13.21 11.26-18.55a65.78 65.78 0 0 0 11.21-18.94c1.96-4.92 3.66-10.46 5.5-17.94l7.44-30.25 3.65-14.14c1.5-6.05-2.04-12.22-7.9-13.73a10.5 10.5 0 0 0-8.07 1.18 11.29 11.29 0 0 0-5.18 7.06l-2.36 8.87a2.5 2.5 0 0 1-4.84-1.24l3.46-14.2c1.5-6.08-2.04-12.26-7.89-13.77-2.75-.7-5.62-.29-8.08 1.19a11.28 11.28 0 0 0-5.37 8.11l-.05.24-4.62 18.18a2.5 2.5 0 0 1-3 1.82l-.1-.03a2.5 2.5 0 0 1-1.86-3.03l4.97-20.22c0-.18.03-.37.08-.55 1.5-6.08-2.05-12.25-7.9-13.76a10.52 10.52 0 0 0-8.08 1.18 11.28 11.28 0 0 0-5.42 8.33l-4.79 19.5a2.5 2.5 0 0 1-2.98 1.84l-.11-.02a2.5 2.5 0 0 1-1.88-3.04l9.85-40a2.3 2.3 0 0 1 .08-.57c1.5-6.08-2.04-12.25-7.89-13.76-2.75-.71-5.62-.3-8.08 1.18a11.28 11.28 0 0 0-5.42 8.34l-12.42 50.43c-.02.1-.05.2-.1.3a2.88 2.88 0 0 1-2.2 1.92c-.98.17-1.95-.2-2.64-1.02a2.5 2.5 0 0 1-.6-1.62l.06-23.58a2.56 2.56 0 0 1-.06-.54 11.42 11.42 0 0 0-3.31-8.17 10.6 10.6 0 0 0-7.55-3.17c-6.02 0-10.94 5.1-10.97 11.35a13.25 13.25 0 0 0 .06 1.28l-.2 57.52v.18a37.39 37.39 0 0 0 8.11 26.28c.35.52.8 1.13 1.29 1.78 2.6 3.47 6.55 8.73 4.6 16.97l-37.66 148.15a2.5 2.5 0 0 1-2.21 1.87l-224.8 19.14h-.21l-2.59.02a2.5 2.5 0 0 1-2.5-2.51l.15-66.63-63.98-.14-.15 66.78a2.5 2.5 0 0 1-2.5 2.5h-.01a2.5 2.5 0 0 1-2.5-2.51l.17-69.28a2.5 2.5 0 0 1 2.5-2.5l68.98.16a2.5 2.5 0 0 1 2.5 2.5l-.16 66.62 222.9-18.98 37.2-146.38c1.42-5.92-1.32-9.57-3.73-12.78-.5-.68-1-1.32-1.41-1.96a42.4 42.4 0 0 1-8.99-29.39l.2-57.31c-.03-.46-.06-.92-.06-1.38.04-9.02 7.2-16.35 15.97-16.35a15.6 15.6 0 0 1 11.1 4.64 16.36 16.36 0 0 1 4.75 11.15c.05.2.07.39.07.58l-.01 5.62 8.03-32.63a16.24 16.24 0 0 1 7.74-11.54 15.5 15.5 0 0 1 11.9-1.73c8.3 2.14 13.4 10.68 11.61 19.22 0 .2-.02.4-.07.61l-2.05 8.34a15.49 15.49 0 0 1 11.73-1.64 16.08 16.08 0 0 1 11.46 11.69c.78-.7 1.64-1.34 2.57-1.9a15.5 15.5 0 0 1 11.9-1.73 16.2 16.2 0 0 1 11.93 14.51 15.5 15.5 0 0 1 12.95-2.41c8.49 2.19 13.65 11.07 11.5 19.8l-3.65 14.13-7.45 30.22c-1.9 7.72-3.65 13.46-5.7 18.6a71.6 71.6 0 0 1-12.05 20.34c-4.34 5.08-7.86 9.55-10.3 16.8l-40.49 164.77a74.7 74.7 0 0 1-56.2 55.25l-160.2 16.49.35 209.55a2.5 2.5 0 0 1-2.5 2.5z"/><circle fill="#FFF" cx="1232.58" cy="450.62" r="53.63"/><circle fill="#FFF" cx="1348.68" cy="450.62" r="53.63"/><path fill="#FFD829" d="M1392.93 152.88c-1.28 0-2.54.08-3.79.2-12-43.28-51.67-75.06-98.77-75.06-47.08 0-86.73 31.75-98.75 75a35.18 35.18 0 1 0 5.14 69.28 102.5 102.5 0 0 0 93.61 60.7 102.5 102.5 0 0 0 93.69-60.89 35.18 35.18 0 1 0 8.88-69.23z"/><path d="M1290.37 285.5c-40.7 0-77.78-23.62-95.05-60.36a37.72 37.72 0 0 1-44.34-37.08 37.72 37.72 0 0 1 38.8-37.66c13.2-44.19 54.27-74.88 100.59-74.88 46.34 0 87.41 30.7 100.6 74.91a37.72 37.72 0 0 1 39.63 37.63 37.72 37.72 0 0 1-45.1 36.94 105.13 105.13 0 0 1-95.11 60.5zm-92.17-66.12.85 1.9a100.16 100.16 0 0 0 91.32 59.22c39.48 0 75.35-23.32 91.4-59.4l.86-1.94 2.05.53a32.72 32.72 0 0 0 40.93-31.63 32.72 32.72 0 0 0-36.2-32.49l-2.11.23-.57-2.04c-11.94-43.12-51.57-73.24-96.36-73.24-44.76 0-84.37 30.09-96.34 73.16l-.56 2-2.06-.17a32.72 32.72 0 0 0-35.43 32.56 32.72 32.72 0 0 0 40.21 31.79l2.01-.48z"/><path fill="#FFD829" d="m1410.44 178.16-21.68 23.67"/><path d="M1388.76 204.33a2.5 2.5 0 0 1-1.84-4.19l21.68-23.67a2.5 2.5 0 0 1 3.68 3.38l-21.67 23.67a2.5 2.5 0 0 1-1.85.81z"/><path fill="#FFD829" d="m1171.83 178.7 21.78 23.58"/><path d="M1193.61 204.78a2.5 2.5 0 0 1-1.83-.8l-21.8-23.58a2.5 2.5 0 1 1 3.68-3.4l21.79 23.58a2.5 2.5 0 0 1-1.84 4.2zm122.38-9.65a13.47 13.47 0 1 0 26.84-2.12 13.47 13.47 0 0 0-26.84 2.12z"/><path d="M1308.58 199.4a2.5 2.5 0 0 1-2.16-3.75 35.1 35.1 0 0 1 57.72-4.54 2.5 2.5 0 0 1-3.89 3.14 30.1 30.1 0 0 0-49.5 3.9 2.5 2.5 0 0 1-2.17 1.24z"/><path d="M1345.85 184a2.5 2.5 0 0 1-1.87-4.16l9.48-10.67a2.5 2.5 0 0 1 3.74 3.32l-9.48 10.67a2.5 2.5 0 0 1-1.87.84zm12.1 4.85a2.5 2.5 0 0 1-1.79-4.25l7.06-7.22a2.5 2.5 0 0 1 3.57 3.5l-7.06 7.22a2.5 2.5 0 0 1-1.78.75zm-130.43 3.6a13.46 13.46 0 1 0 26.87 1.78 13.46 13.46 0 0 0-26.87-1.78z"/><path d="M1273.6 199.2a2.5 2.5 0 0 1-2.15-1.23 30.11 30.11 0 0 0-49.55-3.3 2.5 2.5 0 0 1-3.92-3.1 35.11 35.11 0 0 1 57.77 3.84 2.5 2.5 0 0 1-2.15 3.79z"/><path d="M1240.46 187.21c-.7 0-1.4-.29-1.89-.85l-11.91-13.68a2.5 2.5 0 1 1 3.76-3.29l11.92 13.68a2.5 2.5 0 0 1-1.88 4.14zm-14.42 1.87a2.5 2.5 0 0 1-1.77-.74l-7.12-7.17a2.5 2.5 0 0 1 3.55-3.53l7.12 7.18a2.5 2.5 0 0 1-1.78 4.26z"/><path fill="#FFD829" d="m1291.18 191.97.05 19.6"/><path d="M1291.23 214.07a2.5 2.5 0 0 1-2.5-2.5l-.05-19.6a2.5 2.5 0 1 1 5-.01l.05 19.6a2.5 2.5 0 0 1-2.5 2.51z"/><path fill="#FFF" d="M1160.13 440.6h260.69v32.16h-260.69zm42.95-29.32a2.5 2.5 0 0 1-2.36-3.34l36.1-101.31a2.5 2.5 0 1 1 4.71 1.68l-36.1 101.3a2.5 2.5 0 0 1-2.35 1.67zm175.52 0a2.5 2.5 0 0 1-2.35-1.64l-38.21-104.16a2.5 2.5 0 1 1 4.69-1.72l38.21 104.16a2.5 2.5 0 0 1-2.35 3.36z"/><path d="M1539.93 80c-.22 0-.45-.02-.67-.08a12.9 12.9 0 0 1-1.1-24.46 12.95 12.95 0 0 1-2.28-11.42 12.8 12.8 0 0 1 6.09-7.77c3-1.69 6.47-2.1 9.79-1.19a2.5 2.5 0 1 1-1.35 4.82 7.82 7.82 0 0 0-5.99.73 7.9 7.9 0 0 0 1.76 14.46 2.5 2.5 0 1 1-1.35 4.82 7.9 7.9 0 0 0-4.23 15.19 2.5 2.5 0 0 1-.67 4.9z"/><path d="M1591.67 72.87c-.22 0-.45-.03-.67-.1l-46.17-12.86a2.5 2.5 0 1 1 1.35-4.82l46.16 12.87a2.5 2.5 0 0 1-.67 4.9z"/><path fill="#FFF" d="M1692.96 121.26 1573.32 87.9a17.35 17.35 0 0 1-12.02-21.3l2.43-8.74a17.35 17.35 0 0 1 21.3-12.01l119.65 33.34a17.35 17.35 0 0 1 12.02 21.3l-2.43 8.74a17.35 17.35 0 0 1-21.31 12.02z"/><path fill="#FFD829" d="m1713.13 70.72-4.84 18.78c-1.83 7.41-9.12 11.92-16.3 10.07-7.19-1.85-11.52-9.37-9.7-16.78l5.23-20.1"/><path d="M1695.26 102.49c-1.3 0-2.61-.17-3.9-.5-8.49-2.2-13.65-11.07-11.5-19.8l5.24-20.13a2.5 2.5 0 0 1 4.84 1.25l-5.23 20.1c-1.49 6.06 2.05 12.23 7.9 13.74 2.75.7 5.62.29 8.08-1.18a11.29 11.29 0 0 0 5.17-7.07l4.86-18.8a2.5 2.5 0 0 1 4.84 1.24l-4.85 18.78a16.24 16.24 0 0 1-7.46 10.14 15.55 15.55 0 0 1-7.99 2.23z"/><path fill="#FFD829" d="m1689.25 54.96-9 33.76c-1.83 7.4-9.13 11.92-16.3 10.06-7.19-1.85-11.53-9.36-9.7-16.78l9.4-35.08"/><path d="M1667.22 101.7c-1.3 0-2.61-.16-3.9-.5-8.49-2.19-13.65-11.07-11.5-19.8l9.41-35.13a2.5 2.5 0 0 1 4.83 1.3l-9.4 35.08c-1.48 6.03 2.06 12.2 7.9 13.71 2.76.71 5.63.3 8.1-1.18a11.29 11.29 0 0 0 5.16-7.06l9.02-33.8a2.5 2.5 0 0 1 4.83 1.29l-9 33.75a16.22 16.22 0 0 1-7.46 10.12 15.57 15.57 0 0 1-7.99 2.22z"/><path fill="#FFD829" d="m1661.4 54.96-8.07 27.91c-1.82 7.41-9.12 11.92-16.3 10.07-7.18-1.85-11.52-9.37-9.7-16.78l8.47-29.24"/><path d="M1640.3 95.86c-1.3 0-2.6-.17-3.9-.5-8.49-2.2-13.64-11.07-11.5-19.8l.04-.1 8.46-29.23a2.5 2.5 0 0 1 4.8 1.39l-8.45 29.18c-1.47 6.07 2.07 12.21 7.9 13.72 2.75.71 5.62.3 8.08-1.18a11.29 11.29 0 0 0 5.18-7.07l8.1-28a2.5 2.5 0 1 1 4.8 1.39l-8.07 27.9a16.18 16.18 0 0 1-7.44 10.07 15.57 15.57 0 0 1-8 2.23zM1243.9 314.8a2.5 2.5 0 0 1 0-5l11.99-.02a2.5 2.5 0 0 1 0 5l-11.98.02z"/><path fill="#FFF" d="M1271.96 227.88s18.53 11.88 38.01.47m81.13-78.64c-13.2-44.21-54.5-75.78-100.84-75.78-46.33 0-90.05 33.26-100.5 76.45 0 0-.17-.2-1.07 5.04 14.6 5.75 29.74 9.89 45.6 9.89 35.18 0 68.57-14.71 92.32-40.51a52.83 52.83 0 0 0 49.85 35.24c5.48 0 12.4-1.49 15.5-4.65-.26-2.5-.86-5.68-.86-5.68z"/><path d="M1160.55 615.83a46.54 46.54 0 0 1-16.44 34.62c-13.06 11.02-32.97 12.36-48.59 6.59-7.77-2.87-13.34-7.36-19.73-12.39-13.05-10.26-25.4-21.21-38.22-31.78-13.51-11.13-26.48-19.22-47.7-30.6-35.31-18.94-66.05-26.8-106.31-26.8a296.7 296.7 0 0 0-116.29 23.52 297.48 297.48 0 0 0-94.89 63.94 297.49 297.49 0 0 0-63.95 94.9c-11.99 28.34-14.85 75.51-6.84 119.25-12.17 16.32-34.83 28-67.6 34.82-31.8 6.6-63.85 6.52-76.21 6.17a75.12 75.12 0 0 0-5.4-.21c-41.84 0-75.88 34.03-75.88 75.87s34.04 75.87 75.82 75.87c57.43 1.24 100.71-20.91 128.6-65.7 17.52-28.12 25.95-60.44 29.92-87.6 3.97 27.16 12.4 59.48 29.92 87.6 27.18 43.64 68.96 65.75 124.18 65.75 1.44 0 2.9-.02 4.37-.05 41.84 0 75.87-34.03 75.87-75.87s-34.03-75.87-75.87-75.87c-1.63 0-3.35.06-5.4.21-12.36.35-44.41.44-76.21-6.17-33.3-6.92-56.17-18.88-68.2-35.61 25.67-94.29 90.95-112.32 140.57-112.32 53.86 0 94.6 28.4 148.47 81.06a40 40 0 0 1 2.13 1.97 297.48 297.48 0 0 0 94.88 63.95c36.9 15.61 76.03 23.53 116.3 23.53s79.38-7.92 116.28-23.53a297.52 297.52 0 0 0 94.89-63.95 297.5 297.5 0 0 0 63.95-94.89 296.87 296.87 0 0 0 23.52-116.28h-259.94zM452.38 902.86c1.52 0 3.14.06 5.1.2h.1c12.5.36 45.06.46 77.43-6.27 31.71-6.59 54.44-17.75 67.84-33.28l.14.71c-12.63 25.42-31.72 46.08-56.8 61.4-20.67 12.65-45.44 21.73-73.62 27.01-42.93 8.05-80.91 4.7-88.93 3.84 7.73-30.76 35.6-53.61 68.74-53.61zm-69.78 58.52c3.56.4 15.01 1.51 31.1 1.51a328.7 328.7 0 0 0 59.66-5.32c28.8-5.38 54.16-14.68 75.38-27.64 24.15-14.75 42.93-34.3 55.96-58.17-9.4 33.45-25.83 62-48.87 84.85-18.84 18.68-42.1 33.65-69.18 44.5-44.07 17.66-84.12 18.55-88.15 18.59a70.54 70.54 0 0 1-15.9-58.32zm194.08 19.87c-26.9 43.2-68.7 64.5-124.3 63.35a70.62 70.62 0 0 1-49.33-20.05c12.55-.6 47.48-3.6 85.3-18.73 27.73-11.1 51.59-26.43 70.92-45.59 21.9-21.69 37.96-48.35 47.9-79.33l.38 1.28c-2.94 28.89-10.81 66.88-30.87 99.07zm192.58 63.36c-55.55 1.17-97.36-20.17-124.26-63.36-20.3-32.6-28.12-71.14-30.98-100.16l.12-.63c9.92 31.17 26.04 57.98 48.03 79.77 19.34 19.16 43.2 34.5 70.93 45.59 38.03 15.2 73.16 18.17 85.52 18.74a70.7 70.7 0 0 1-49.36 20.05zm53.92-24.9c-2.34-.02-43.26-.52-88.38-18.6-27.07-10.85-50.35-25.82-69.18-44.5-23.05-22.86-39.47-51.4-48.87-84.85 13.02 23.86 31.8 43.42 55.96 58.17 21.22 12.96 46.58 22.26 75.38 27.64a328.55 328.55 0 0 0 59.65 5.32c16.45 0 28.07-1.16 31.34-1.53a70.52 70.52 0 0 1-15.9 58.34zm-136.5-122.92c32.36 6.73 64.93 6.63 77.42 6.28h.11a70.5 70.5 0 0 1 5.1-.21c33.12 0 61 22.83 68.73 53.58-7.48.82-45.79 4.32-89.16-3.8-28.18-5.29-52.95-14.37-73.63-27.01-25.5-15.6-44.82-36.7-57.45-62.71l.12-.5c13.27 16.1 36.3 27.63 68.76 34.38z"/><path fill="#FFD829" d="m1293.91 639.9-7.6-15.35-11.14-16.58 37.51-.17-11.58 17.19z"/><path fill="#FFF" d="M1444.68 593.13c-.4-15.04-13.25-26.68-28.29-26.62-94.76.41-118.91 62.08-122.49 73.17-3.5-10.8-27.88-73.38-123.02-73.8-15.05-.06-27.9 11.59-28.3 26.63a27.35 27.35 0 0 0 29.31 28c34.28 0 91.02-35.27 121.88 19.66.04.11.2.15.28.02 30.87-54.78 87.06-19.06 121.32-19.06a27.35 27.35 0 0 0 29.3-28zM255.72 300.87a10.9 10.9 0 0 0-13.63 7.18l-12.4 9.68-8.92-27.99c-2.62-3.89-5.7-6.8-10-5.76 7.44 2.25 12 8.64 14.25 20.15l9.64 39.8a10.9 10.9 0 0 0 7.26 1.5 12.3 12.3 0 0 0 9.45-7.86l11.53-23.07a10.9 10.9 0 0 0-7.18-13.63z"/><circle cx="247.37" cy="322.19" r="13.12"/><path d="m236.02 360.18-13.46-55.57c-2.6-13.37-8.18-19.07-18.64-19.07H172.7a18.61 18.61 0 0 0-18.58 18.3L167.47 359l-4.86 1.18-13.5-55.75v-.3c0-13 10.58-23.59 23.58-23.59h31.23c12.98 0 20.46 7.33 23.54 23.06l13.42 55.4-4.86 1.18zM158.31 252.1l-1.56-22.51a8.38 8.38 0 0 1 4.85-8.06l34.56-16a8.38 8.38 0 0 1 11.88 6.92l3.1 37.82a8.38 8.38 0 0 1-8.2 9.06l-36.1.7a8.38 8.38 0 0 1-8.53-7.93z"/><path fill="#FFF" d="M210.92 243.38a8.15 8.15 0 0 0-2.79.44 24.73 24.73 0 0 0-24.23-15.75c-.16 0-.3 0-.46.02h-.38a24.72 24.72 0 0 0-22.43 21.04l-.53-.04a8.17 8.17 0 1 0 3.34 15.55 24.84 24.84 0 0 0 11.11 10.43l.78 6.52a11.8 11.8 0 0 0 23.52-1.93l-.73-5.94a24.8 24.8 0 0 0 10.7-14.24 8.17 8.17 0 1 0 2.09-16.1z"/><path fill="#FFD829" d="m184.76 247.75.7 8.59"/><path d="M185.46 258.84a2.5 2.5 0 0 1-2.5-2.3l-.7-8.58a2.5 2.5 0 1 1 4.99-.41l.7 8.58a2.5 2.5 0 0 1-2.5 2.7z"/><circle cx="172.43" cy="251.85" r="3.92"/><circle cx="197.1" cy="250.06" r="3.92"/><path fill="#FFD829" d="M191.4 263.9a7.77 7.77 0 0 1-10.1 1.56"/><path d="M185.43 269.16c-1.93 0-3.8-.54-5.46-1.59a2.5 2.5 0 1 1 2.67-4.22 5.26 5.26 0 0 0 6.85-1.06 2.5 2.5 0 0 1 3.81 3.24 10.23 10.23 0 0 1-7.87 3.63z"/><path fill="#FFF" d="M344.56 357.95a77.66 77.66 0 0 1-77.66 77.66h-84.64a77.6 77.6 0 0 1-77.6-77.6l239.9-.06z"/><path d="M211.7 351.62a2.5 2.5 0 0 1-1.9-4.13l118.51-138.07a2.5 2.5 0 0 1 3.8 3.26L213.6 350.75c-.5.57-1.2.87-1.9.87z"/><path fill="#FFF" d="M199.25 346c-2.65 0-5.28-.97-7.35-2.85l-35.68-32.6a10.9 10.9 0 0 1 14.7-16.09l29.4 26.87 31.13-16.97a10.9 10.9 0 1 1 12.03 18.16l-38.21 21.67a10.87 10.87 0 0 1-6.02 1.8z"/><path d="M175.26 292.65a14.86 14.86 0 1 0-20.53 21.5l10.13 8.87 19.79-21.2-9.39-9.17z"/><path fill="#FFD829" d="M273.51 191.16a11 11 0 0 0-11 11 11 11 0 1 0-22 0c0 12.16 14.5 21.43 22 29.6 7.5-8.17 22-17.44 22-29.6a11 11 0 0 0-11-11z"/><path d="M527.97 770.6c-6.95 4.91-13.52 9.55-26.9 9.55-13.38 0-19.95-4.64-26.9-9.55-7.3-5.14-14.83-10.45-29.8-10.45-14.96 0-22.5 5.31-29.79 10.45-6.95 4.91-13.52 9.55-26.9 9.55-13.38 0-19.95-4.64-26.9-9.55-7.3-5.14-14.83-10.45-29.8-10.45s-22.5 5.31-29.79 10.45c-6.95 4.91-13.52 9.55-26.9 9.55-13.38 0-19.95-4.64-26.9-9.55-7.3-5.14-14.83-10.45-29.8-10.45a2.5 2.5 0 1 0 0 5c13.38 0 19.95 4.63 26.9 9.54 7.3 5.14 14.83 10.46 29.8 10.46 14.96 0 22.5-5.32 29.79-10.46 6.95-4.9 13.52-9.54 26.9-9.54s19.95 4.63 26.9 9.54c7.3 5.14 14.83 10.46 29.8 10.46 14.96 0 22.5-5.32 29.79-10.46 6.95-4.9 13.52-9.54 26.9-9.54 13.38 0 19.95 4.63 26.9 9.54 7.3 5.14 14.83 10.46 29.8 10.46 14.96 0 22.5-5.32 29.79-10.46 6.6-4.66 12.85-9.06 24.9-9.5v-5c-13.64.46-20.84 5.51-27.79 10.41zM125.7 841.38c7.3 5.14 14.83 10.46 29.8 10.46 14.96 0 22.5-5.32 29.78-10.46 6.96-4.9 13.53-9.54 26.9-9.54 13.4 0 19.96 4.63 26.92 9.54 7.29 5.14 14.82 10.46 29.8 10.46 14.96 0 22.5-5.32 29.78-10.46 6.96-4.9 13.53-9.54 26.91-9.54a2.5 2.5 0 1 0 0-5c-14.97 0-22.5 5.31-29.79 10.46-6.96 4.9-13.53 9.54-26.91 9.54s-19.95-4.64-26.91-9.54c-7.29-5.15-14.82-10.46-29.8-10.46-14.96 0-22.5 5.31-29.78 10.46-6.96 4.9-13.53 9.54-26.9 9.54-13.39 0-19.96-4.64-26.91-9.54-7.3-5.15-14.83-10.46-29.8-10.46-.68 0-1.34.02-2 .04v5a54.3 54.3 0 0 1 2-.04c13.39 0 19.96 4.63 26.91 9.54zM1925 386.88c-14.94 0-22.47 5.32-29.75 10.45-6.96 4.91-13.53 9.55-26.92 9.55-13.38 0-19.95-4.64-26.9-9.55-7.3-5.14-14.83-10.45-29.8-10.45s-22.5 5.31-29.79 10.45c-6.95 4.91-13.52 9.55-26.9 9.55-13.38 0-19.96-4.64-26.91-9.55-7.29-5.14-14.82-10.45-29.79-10.45-.69 0-1.35.02-2 .04v5a54.3 54.3 0 0 1 2-.04c13.38 0 19.95 4.63 26.9 9.54 7.3 5.14 14.83 10.46 29.8 10.46 14.96 0 22.5-5.32 29.79-10.46 6.95-4.9 13.52-9.54 26.9-9.54 13.38 0 19.95 4.63 26.91 9.54 7.29 5.14 14.82 10.46 29.8 10.46s22.5-5.32 29.79-10.46c6.95-4.9 13.51-9.53 26.87-9.54v-5zm-141.86 529.04c-13.42.53-20.55 5.55-27.44 10.4-6.96 4.92-13.53 9.55-26.9 9.55-13.39 0-19.96-4.63-26.91-9.54-7.3-5.14-14.83-10.46-29.8-10.46-.68 0-1.34.02-2 .05v5a54.3 54.3 0 0 1 2-.05c13.39 0 19.96 4.64 26.91 9.54 7.29 5.15 14.83 10.46 29.8 10.46 14.96 0 22.5-5.31 29.78-10.46 6.54-4.6 12.73-8.98 24.56-9.49v-5zM682.13 387.63c-.69 0-1.34.02-2 .04v.01c-13.41.54-20.54 5.55-27.43 10.4-6.96 4.92-13.52 9.55-26.9 9.55-13.39 0-19.96-4.63-26.91-9.54-7.29-5.14-14.82-10.46-29.8-10.46-.68 0-1.34.02-2 .05v.03c-14.93.02-22.45 5.32-29.73 10.46-6.96 4.9-13.53 9.54-26.91 9.54s-19.95-4.64-26.91-9.54c-7.29-5.14-14.82-10.46-29.8-10.46-14.96 0-22.5 5.32-29.78 10.46-6.96 4.9-13.53 9.54-26.9 9.54-13.39 0-19.96-4.64-26.92-9.54-7.28-5.14-14.82-10.46-29.78-10.46-14.97 0-22.5 5.32-29.8 10.46-6.95 4.9-13.52 9.54-26.9 9.54-13.38 0-19.95-4.64-26.9-9.54-7.29-5.14-14.82-10.46-29.8-10.46-14.96 0-22.5 5.32-29.78 10.46-6.96 4.9-13.53 9.54-26.9 9.54-13.39 0-19.96-4.64-26.91-9.54-7.29-5.14-14.83-10.46-29.8-10.46s-22.5 5.32-29.78 10.46c-6.96 4.9-13.53 9.54-26.9 9.54-13.39 0-19.96-4.64-26.91-9.54-7.3-5.14-14.83-10.46-29.8-10.46v5c13.39 0 19.96 4.64 26.91 9.54 7.29 5.14 14.82 10.46 29.8 10.46 14.96 0 22.5-5.32 29.78-10.46 6.96-4.9 13.53-9.54 26.9-9.54s19.96 4.64 26.91 9.54c7.3 5.14 14.83 10.46 29.8 10.46 14.96 0 22.5-5.32 29.78-10.46 6.96-4.9 13.53-9.54 26.9-9.54 13.39 0 19.96 4.64 26.91 9.54 7.3 5.14 14.82 10.46 29.8 10.46 14.96 0 22.5-5.32 29.78-10.46 6.96-4.9 13.53-9.54 26.9-9.54 13.39 0 19.96 4.64 26.91 9.54 7.29 5.14 14.83 10.46 29.8 10.46 14.96 0 22.5-5.32 29.78-10.46 6.96-4.9 13.53-9.54 26.9-9.54 13.39 0 19.96 4.64 26.92 9.54 7.29 5.14 14.82 10.46 29.79 10.46s22.5-5.32 29.8-10.46c6.95-4.9 13.52-9.54 26.9-9.54v-.04c.64-.02 1.28-.04 1.95-.04 13.38 0 19.95 4.64 26.9 9.55 7.3 5.14 14.83 10.45 29.8 10.45 14.96 0 22.5-5.31 29.78-10.45 6.54-4.62 12.74-8.98 24.56-9.5.65-.03 1.3-.05 2-.05v-5z"/></svg>