<svg xmlns="http://www.w3.org/2000/svg" viewBox="0 0 1080 1080" xml:space="preserve"><path fill="#FFF" d="M741.06 965.57c-68.28 0-128.4-28.66-165.25-78.9-12.36-16.84-24.2-35.53-35.65-53.6-31.38-49.55-63.83-100.78-114.68-129.12-13.34-7.43-28.33-12.54-42.83-17.48-5.56-1.9-11.3-3.85-16.84-5.9a2 2 0 0 1 1.38-3.76c5.5 2.04 11.22 3.99 16.75 5.87 14.67 5 29.83 10.17 43.49 17.78 51.73 28.83 84.46 80.5 116.1 130.47 11.95 18.85 23.22 36.65 35.5 53.38 36.1 49.19 95.05 77.26 162.03 77.26l2.48-.01c34.47-.36 68.82-8.34 99.32-23.1 31.86-15.4 58.85-37.99 78.04-65.3 16.27-23.17 40.1-85.42 28.95-123.76a87.99 87.99 0 0 1-34.84 1.08c-11.16-1.89-18.88-7.22-21.2-14.63-1.66-5.33-.18-10.92 3.96-14.97 6.1-5.94 16.43-7.2 27.66-3.38 13.05 4.44 22.15 13.55 27.06 27.09 19.14-5.37 36.66-17.48 50.1-35.28 18.8-24.93 25.54-51.6 20.59-81.56-4.45-26.9-17.65-53.88-30.42-79.99-7.73-15.8-15.72-32.12-21.66-48.22-10.34-28.06-14.83-78.07-4.05-109.93 6.73-19.92 17.9-38.27 28.72-56.02 8.18-13.45 16.65-27.35 23.03-41.72 13.98-31.5 30.58-73.04 34.89-115.06 6.16-60.13-28.28-99.23-65.48-106.78a2 2 0 1 1 .8-3.91c51.47 10.44 73.5 63.79 68.65 111.1-4.36 42.58-21.1 84.5-35.2 116.27-6.5 14.6-15.03 28.63-23.28 42.18-10.7 17.56-21.75 35.72-28.35 55.22-10.5 31.04-6.08 79.84 4.03 107.27 5.86 15.9 13.8 32.14 21.49 47.85 26 53.15 52.9 108.1 9.43 165.71-13.94 18.48-32.15 31.07-52.05 36.69 11.4 39.59-12.91 103.36-29.56 127.04-19.58 27.88-47.1 50.91-79.57 66.62a239.17 239.17 0 0 1-101.02 23.49l-2.52.01zm172.08-246.26c-5.16 0-9.56 1.5-12.57 4.44a10.62 10.62 0 0 0-2.94 10.9c1.86 5.93 8.43 10.26 18.04 11.88a84.06 84.06 0 0 0 32.92-.95c-4.5-12.14-12.73-20.31-24.45-24.3a34.5 34.5 0 0 0-11-1.97z"/><path fill="#FFF" d="M319.13 658.59c-9.9 0-19.82-.37-29.73-1.11-40.91-3.07-70.06-12.65-91.71-30.15-15.02-12.14-26.31-28.77-32.67-48.1-6.34-19.26-7.18-39.38-2.42-58.16 8.94-35.37 35.31-62.41 60.82-88.57 3.81-3.9 7.76-7.95 11.5-11.89 26.84-28.24 57.27-60.26 69.1-100.37 5.9-20 7.03-41.06 3.18-59.3-4.38-20.72-15.06-37.57-30.9-48.75-8.28-5.84-19.01-7.78-28.48-9.5a2 2 0 1 1 .71-3.93c9.88 1.79 21.07 3.82 30.07 10.17 16.68 11.76 27.93 29.46 32.51 51.18 4 18.88 2.84 40.64-3.25 61.27-12.1 41.03-42.89 73.42-70.05 102-3.75 3.94-7.7 8-11.53 11.92-25.14 25.77-51.13 52.42-59.8 86.75-4.57 18.05-3.76 37.39 2.34 55.93 6.11 18.6 16.97 34.59 31.38 46.24 21 16.97 49.43 26.27 89.5 29.27 39.45 2.95 79-.04 117.56-8.91a2 2 0 0 1 .9 3.9 397.13 397.13 0 0 1-89.03 10.1zM192.31 268.6a8.17 8.17 0 0 0-10.22 5.38l-9.3 7.26-6.7-21c-1.96-2.91-4.26-5.1-7.5-4.31 5.59 1.68 9 6.48 10.7 15.11l7.22 29.86a8.2 8.2 0 0 0 5.45 1.12 9.22 9.22 0 0 0 7.08-5.9l8.66-17.3a8.17 8.17 0 0 0-5.39-10.23z"/><circle cx="186.05" cy="284.08" r="9.84"/><path d="m177.41 313.1-10.07-41.59c-1.96-10.04-6.1-14.29-13.88-14.29h-23.42c-7.54 0-13.7 6.07-13.82 13.59l10.02 41.35-3.89.94-10.13-41.82v-.24c0-9.83 8-17.82 17.82-17.82h23.42c9.81 0 15.46 5.54 17.78 17.44l10.06 41.5-3.89.95zm-58.16-81.09-1.17-16.88a6.28 6.28 0 0 1 3.64-6.04l25.92-12a6.29 6.29 0 0 1 8.9 5.19l2.33 28.36a6.28 6.28 0 0 1-6.14 6.8l-27.08.52a6.28 6.28 0 0 1-6.4-5.95z"/><path fill="#FFF" d="M158.7 225.47c-.73-.01-1.43.1-2.08.33a18.54 18.54 0 0 0-18.18-11.8h-.34l-.29.01a18.54 18.54 0 0 0-16.83 15.78l-.39-.03a6.13 6.13 0 1 0 2.5 11.66 18.63 18.63 0 0 0 8.34 7.83l.59 4.89a8.85 8.85 0 0 0 17.64-1.44l-.55-4.47a18.6 18.6 0 0 0 8.03-10.68 6.14 6.14 0 0 0 7.57-5.83 6.13 6.13 0 0 0-6-6.25z"/><path fill="#FFD829" d="m139.09 228.75.52 6.44"/><path d="M139.61 237.2a2 2 0 0 1-2-1.84l-.52-6.44a2 2 0 1 1 3.99-.33l.53 6.44a2 2 0 0 1-2 2.16z"/><circle cx="129.84" cy="231.83" r="2.94"/><circle cx="148.34" cy="230.48" r="2.94"/><path fill="#FFD829" d="M144.06 240.87a5.83 5.83 0 0 1-7.57 1.17"/><path d="M139.6 244.93a7.7 7.7 0 0 1-4.17-1.2 2 2 0 1 1 2.13-3.39 3.82 3.82 0 0 0 4.98-.76 2 2 0 1 1 3.05 2.58 7.79 7.79 0 0 1-6 2.77z"/><path fill="#FFF" d="M258.94 310.9a58.24 58.24 0 0 1-58.24 58.25h-63.5a58.2 58.2 0 0 1-58.2-58.2l179.93-.04z"/><path d="M159.3 306.28a2 2 0 0 1-1.52-3.3l88.88-103.55a2 2 0 1 1 3.03 2.6l-88.87 103.55a2 2 0 0 1-1.52.7z"/><path fill="#FFF" d="M149.96 301.94a8.16 8.16 0 0 1-5.52-2.14l-26.76-24.45a8.17 8.17 0 0 1 11.03-12.06l22.05 20.15 23.35-12.73a8.17 8.17 0 0 1 9.02 13.62l-28.66 16.25a8.16 8.16 0 0 1-4.51 1.36z"/><path d="M131.96 261.93a11.15 11.15 0 1 0-15.4 16.12l7.6 6.66L139 268.8l-7.04-6.88z"/><path fill="#FFD829" d="M205.65 185.81a8.25 8.25 0 0 0-8.25 8.25 8.25 8.25 0 0 0-16.5 0c0 9.12 10.87 16.07 16.5 22.2 5.63-6.13 16.5-13.08 16.5-22.2a8.25 8.25 0 0 0-8.25-8.25z"/><path fill="#FFF" d="M575.06 164.21c-64.24 13.32-106.85 73.31-99.76 137.23a94.03 94.03 0 1 0 85.83 106.02 125.53 125.53 0 0 0 65.11 3.71c68.2-14.13 112.03-80.87 97.9-149.07-14.14-68.2-80.88-112.02-149.08-97.89zm173.84-12.05a97.81 97.81 0 0 0-6.7-8.62c2 2.85 3.83 5.85 5.44 8.99.41-.13.84-.26 1.26-.37z"/><path fill="#FFF" d="M761.4 204.58c-2.3.47-4.6.64-6.84.53a78.55 78.55 0 0 1-140.5 29.26 26.96 26.96 0 1 1-14.63-51.18 78.57 78.57 0 0 1 62.43-71.62c4.8-1 19.64-3.88 24.37-3.98-9.21-.78-17.35-2.32-34.05 1.66-52.81 12.58-91.52 65.46-80.5 118.61 11 53.16 63.03 87.32 116.19 76.3 48.08-9.96 80.61-53.47 78.24-101.02a27 27 0 0 1-4.71 1.44z"/><path fill="#FFD829" d="m679.48 291.24-32.54 6.74c-33.8 7.48-41.57 19.63-51 35.06-.1.15-15.02 26.3-15.07 26.46L478.18 540.2l70.68 40.39L665.93 375.7 636 358.61l43.48-67.37z"/><path d="M548.86 582.59c-.34 0-.68-.09-1-.27l-70.67-40.39a2 2 0 0 1-.75-2.72l102.69-180.7.02.02c1.78-3.31 14.94-26.3 15.07-26.52 9.27-15.15 17.27-28.23 52.29-35.98l32.57-6.75a2 2 0 0 1 2.08 3.04l-42.33 65.6 28.1 16.06a2 2 0 0 1 .74 2.73L550.6 581.58a2 2 0 0 1-1.74 1zm-67.96-43.14 67.22 38.4 115.08-201.4-28.19-16.1a2 2 0 0 1-.69-2.82l40.9-63.36-27.87 5.77c-33.34 7.38-40.56 19.2-49.71 34.15a9466.43 9466.43 0 0 0-15.03 26.4L480.9 539.45z"/><path fill="#FFD829" d="m617.84 379.13 31.37 152.78 191.7-39.73-32.88-157.38L927.3 297a55.6 55.6 0 0 0 32.24-48.45l4.77-130c.75-6.31 2.88-10.51 5.34-14.99a52.75 52.75 0 0 0 5.67-16.54c.83-4.7 1.18-9.52 1.36-14.58l.89-23.86.54-11.15c.22-5.84-4.21-10.8-9.88-11.08-5.68-.28-10.46 4.24-10.67 10.09l-.4 6.98.4-11.19c.21-5.85-4.21-10.8-9.89-11.09-5.67-.27-10.45 4.25-10.67 10.1-.01.33 0 .66.02 1l-.64 14.35h-.09l.6-16.36s-.05 0-.04-.01c.21-5.85-4.21-10.81-9.89-11.09-5.67-.27-10.45 4.25-10.67 10.1-.01.33 0 .66.02.99l-.57 15.37h-.08l1.18-31.97-.05-.01c.22-5.85-4.2-10.82-9.88-11.09-5.68-.27-10.45 4.24-10.67 10.1a11 11 0 0 0 .01.99l-1.47 39.77c-.06.36-.22.4-.43.23l-3.7-18.1s-.06.02-.06 0c-1.16-5.74-6.61-9.46-12.17-8.3-5.56 1.14-9.12 6.73-7.96 12.47.07.33.15.64.25.96l8.8 43.18a30.4 30.4 0 0 0 10.71 19.56c2.28 2.3 6.97 5.02 6.77 11.76l-5.21 116.98-165.7 49.32-1.94.4-10.63-51.89-51.78 10.61 10.65 52.01"/><path d="M649.2 533.9a2 2 0 0 1-1.95-1.59l-31.37-152.78a2 2 0 1 1 3.92-.8l30.96 150.81 187.8-38.92-32.49-155.4a2 2 0 0 1 1.36-2.32l119.15-37.77a53.36 53.36 0 0 0 30.98-46.65l4.76-130 .01-.17c.78-6.55 2.99-10.99 5.58-15.7a50.33 50.33 0 0 0 5.46-15.94c.7-4 1.11-8.4 1.32-14.3l.9-23.86.53-11.17c.18-4.73-3.4-8.77-7.98-9a7.92 7.92 0 0 0-5.82 2.13 8.56 8.56 0 0 0-2.75 6.05l-.4 7.02a2 2 0 0 1-4-.18l.4-11.2c.18-4.75-3.4-8.8-7.98-9.02a7.93 7.93 0 0 0-5.82 2.13 8.55 8.55 0 0 0-2.74 7.05l-.64 14.36a2 2 0 0 1-2 1.91h-.04a2.08 2.08 0 0 1-2.04-2.07l.59-15.94a2 2 0 0 1-.03-.43c.17-4.75-3.41-8.8-7.99-9.02a7.97 7.97 0 0 0-5.82 2.12 8.56 8.56 0 0 0-2.74 7.04l-.56 15.38a2 2 0 0 1-2.05 1.92 2.1 2.1 0 0 1-1.45-.63c-.37-.39-.6-.9-.59-1.44l1.17-31.54a1.97 1.97 0 0 1-.03-.45c.18-4.75-3.4-8.79-7.98-9a7.97 7.97 0 0 0-5.82 2.11 8.56 8.56 0 0 0-2.74 7.04l-1.47 39.78-.03.25a2.3 2.3 0 0 1-1.41 1.85 2.3 2.3 0 0 1-2.23-.37 2 2 0 0 1-.72-1.18l-3.63-17.69c-.06-.13-.1-.27-.13-.4a8.66 8.66 0 0 0-3.72-5.57 8.02 8.02 0 0 0-6.09-1.19c-4.47.93-7.34 5.47-6.4 10.12a10.4 10.4 0 0 0 .24.96l8.8 43.18.02.15a28.54 28.54 0 0 0 10.15 18.4c.36.36.79.74 1.24 1.14 2.52 2.21 6.31 5.56 6.12 12.09l-5.21 117a2 2 0 0 1-1.43 1.83l-165.7 49.32-.16.04-1.94.4a2 2 0 0 1-2.37-1.56l-10.23-49.93-47.86 9.8 10.25 50.06a2 2 0 1 1-3.92.8l-10.65-52a2 2 0 0 1 1.56-2.37l51.78-10.6a2 2 0 0 1 2.36 1.55l10.22 49.92 164.16-48.86L895 115.05c.13-4.63-2.47-6.92-4.76-8.94-.5-.44-.97-.85-1.37-1.25a32.57 32.57 0 0 1-11.34-20.71l-8.76-43.03c-.1-.34-.19-.68-.26-1.03-1.38-6.82 2.88-13.47 9.5-14.85a12 12 0 0 1 9.11 1.77 12.6 12.6 0 0 1 5.34 7.67c.06.14.11.29.14.44l.73 3.53.93-25.03a12.54 12.54 0 0 1 4.04-9.93c2.39-2.2 5.48-3.3 8.71-3.17 6.6.32 11.8 5.97 11.8 12.7.02.15.04.31.03.48l-.23 6.37a11.96 11.96 0 0 1 8.45-2.94c4.57.23 8.47 3 10.44 6.91a12 12 0 0 1 10.28-4.9 12.5 12.5 0 0 1 11.24 8.96 11.97 11.97 0 0 1 9.31-3.75c6.75.33 12.04 6.23 11.78 13.16l-.54 11.17-.88 23.83c-.23 6.1-.65 10.67-1.4 14.86a54.98 54.98 0 0 1-5.88 17.15c-2.46 4.49-4.4 8.38-5.1 14.18l-4.76 129.93a57.34 57.34 0 0 1-33.64 50.27l-117.56 37.27 32.52 155.6a2 2 0 0 1-1.55 2.36l-191.71 39.74c-.14.02-.27.04-.41.04zM916.8 13.6h.01z"/><circle fill="#FFF" cx="676.44" cy="400.13" r="41.1"/><circle fill="#FFF" cx="763.55" cy="382.07" r="41.1"/><path fill="#FFD829" d="M750.45 151.78a25 25 0 0 0-2.8.75 78.57 78.57 0 0 0-148.23 30.66c-.74.1-1.5.2-2.24.36a26.96 26.96 0 1 0 16.88 50.82 78.55 78.55 0 0 0 140.5-29.26 26.96 26.96 0 1 0-4.1-53.33z"/><path d="M677.83 269a80.7 80.7 0 0 1-64.44-32.16 28.76 28.76 0 0 1-26.63-2.69 28.76 28.76 0 0 1-12.46-18.32 28.73 28.73 0 0 1 4.15-21.77 28.8 28.8 0 0 1 19.1-12.61 80.77 80.77 0 0 1 63.9-71.84 80.76 80.76 0 0 1 87.2 40.55c.47-.13.94-.23 1.4-.33 7.57-1.57 15.3-.1 21.77 4.15s10.89 10.75 12.46 18.33c1.57 7.57.1 15.3-4.15 21.77a28.76 28.76 0 0 1-23.98 13.06A80.65 80.65 0 0 1 677.83 269zm-63.12-37.14.97 1.34a76.67 76.67 0 0 0 77.64 30.2 76.64 76.64 0 0 0 59.28-58.72l.36-1.65 1.7.08a25 25 0 0 0 25.7-30 24.8 24.8 0 0 0-10.74-15.8 24.8 24.8 0 0 0-18.76-3.57c-.86.18-1.74.41-2.6.7l-1.62.51-.78-1.5a76.73 76.73 0 0 0-83.6-39.93 76.75 76.75 0 0 0-60.85 69.8l-.1 1.66-1.65.2a24.8 24.8 0 0 0-17.88 11.07 24.8 24.8 0 0 0-3.57 18.76 24.8 24.8 0 0 0 10.74 15.8 24.8 24.8 0 0 0 24.26 1.75l1.5-.7z"/><path fill="#FFD829" d="m767.52 168.03-12.58 21.13"/><path d="M754.94 191.16a2 2 0 0 1-1.72-3.02L765.81 167a2 2 0 0 1 3.43 2.05l-12.58 21.14a2 2 0 0 1-1.72.97z"/><path fill="#FFD829" d="m588.56 205.54 20.02 14.3"/><path d="M608.58 221.84c-.4 0-.81-.12-1.17-.37l-20-14.3a2 2 0 0 1 2.32-3.25l20.01 14.3a2 2 0 0 1-1.16 3.62zm90.71-26.39a10.32 10.32 0 1 0 19.81-5.76 10.32 10.32 0 0 0-19.81 5.76z"/><path d="M694 199.93a2 2 0 0 1-1.9-2.63 26.99 26.99 0 0 1 42.74-12.42 2 2 0 0 1-2.53 3.09 22.99 22.99 0 0 0-36.4 10.58 2 2 0 0 1-1.9 1.38z"/><path d="M719.58 182.58a2 2 0 0 1-1.73-3l5.45-9.48a2 2 0 0 1 3.46 2l-5.45 9.48a2 2 0 0 1-1.73 1zm9.82 1.76a2 2 0 0 1-1.68-3.08l4.18-6.52a2 2 0 1 1 3.37 2.16l-4.18 6.52a2 2 0 0 1-1.68.92zm-96.9 22.86a10.32 10.32 0 1 0 20.43-2.84 10.32 10.32 0 0 0-20.44 2.83z"/><path d="M626.9 210.88c-.3 0-.6-.06-.89-.2a2 2 0 0 1-.9-2.7 27 27 0 0 1 44.1-6.11 2 2 0 1 1-2.96 2.7 23 23 0 0 0-37.55 5.2 2 2 0 0 1-1.8 1.11z"/><path d="M641 201.38a2 2 0 0 1-1.21-.4l-11.07-8.42a2 2 0 0 1 2.42-3.18l11.07 8.4a2 2 0 0 1-1.22 3.6zm-10.53 3.64c-.38 0-.77-.1-1.1-.33l-6.46-4.28a2 2 0 1 1 2.21-3.33l6.45 4.27a2 2 0 0 1-1.1 3.67z"/><path fill="#FFD829" d="m680.18 196.94 3.09 14.7"/><path d="M683.27 213.64a2 2 0 0 1-1.96-1.6l-3.08-14.7a2 2 0 1 1 3.91-.81l3.08 14.7a2 2 0 0 1-1.95 2.4z"/><path fill="#FFF" d="m620.5 403.9 195.6-40.52 5 24.12-195.6 40.54zm27.3-28.58a2 2 0 0 1-1.99-2.28l11.33-81.63a2 2 0 0 1 3.96.55l-11.33 81.63a2 2 0 0 1-1.98 1.73zm131.7-27.3a2 2 0 0 1-1.7-.94l-44.88-72.22a2 2 0 0 1 3.4-2.1l44.87 72.2a2 2 0 0 1-1.7 3.06z"/><path d="M853.12 80.98h-.04a9.97 9.97 0 0 1-5.63-18.03 9.95 9.95 0 0 1 6.32-17.8 2 2 0 0 1-.03 4h-.16a5.96 5.96 0 0 0-.11 11.92 2 2 0 0 1-.04 4h-.12a5.96 5.96 0 0 0-.15 11.91 2 2 0 0 1-.04 4z"/><path d="M890.14 65.76h-.03l-36.72-.7a2 2 0 0 1-1.96-2.03c.02-1.1.92-1.96 2.03-1.97l36.72.7a2 2 0 0 1-.04 4z"/><path fill="#FFF" d="m972 82.06-89.07-1.7a16.34 16.34 0 0 1-15.98-16.6l.01-.87a16.34 16.34 0 0 1 16.6-15.98l89.08 1.7a16.34 16.34 0 0 1 15.98 16.6l-.01.86A16.34 16.34 0 0 1 972 82.06z"/><path fill="#FFD829" d="m977.94 40.34-.72 14.84c-.21 5.85-4.99 10.37-10.67 10.1-5.67-.28-10.1-5.24-9.88-11.1l.8-15.89"/><path d="M967.05 67.28h-.6c-6.75-.34-12.03-6.24-11.78-13.17l.8-15.92a2 2 0 1 1 4 .2l-.8 15.9c-.18 4.72 3.4 8.77 7.98 8.99a7.91 7.91 0 0 0 5.82-2.12 8.57 8.57 0 0 0 2.75-6.05l.72-14.87a2 2 0 0 1 4 .2l-.72 14.84a12.52 12.52 0 0 1-4.05 8.83 11.95 11.95 0 0 1-8.12 3.17z"/><path fill="#FFD829" d="m957.57 32.23-1.5 26.73c-.23 5.84-5 10.36-10.68 10.08-5.67-.27-10.1-5.23-9.88-11.08l1.6-27.78"/><path d="M945.89 71.06c-.2 0-.4 0-.6-.02-6.75-.32-12.04-6.23-11.78-13.15l1.6-27.83a2.03 2.03 0 0 1 2.1-1.88 2 2 0 0 1 1.9 2.11l-1.6 27.79c-.18 4.7 3.4 8.75 7.98 8.97a7.94 7.94 0 0 0 5.82-2.12 8.56 8.56 0 0 0 2.75-6.05l1.5-26.76a2 2 0 0 1 4 .22l-1.5 26.73a12.5 12.5 0 0 1-4.05 8.8 11.94 11.94 0 0 1-8.12 3.19z"/><path fill="#FFD829" d="m936.67 36.56-1.71 22.2c-.22 5.84-5 10.36-10.67 10.09-5.68-.28-10.1-5.24-9.89-11.09l1.81-23.25"/><path d="M924.78 70.86c-.2 0-.4 0-.6-.02-6.75-.32-12.03-6.23-11.77-13.15l1.8-23.34a2 2 0 1 1 4 .31l-1.81 23.26a8.58 8.58 0 0 0 7.98 8.93 8 8 0 0 0 5.82-2.12 8.56 8.56 0 0 0 2.76-6.05l1.72-22.27a2 2 0 1 1 3.99.3l-1.72 22.2a12.48 12.48 0 0 1-4.04 8.77 11.94 11.94 0 0 1-8.13 3.18zM663.42 296.57a2 2 0 0 1-.4-3.95l8.99-1.88a2 2 0 0 1 .81 3.92l-8.99 1.87c-.13.03-.27.05-.4.05z"/><path fill="#FFF" d="M671.35 226.87s15.75 6.03 28.6-5.55m48.67-71.09c-14.23-32.54-53.72-49.77-88.49-42.56-34.76 7.2-64.66 38.26-62.52 73.83 0 0-.15-.12-.01 3.95 11.85 2.04 23.85 2.8 35.75.33a96.05 96.05 0 0 0 62.97-44.75 40.48 40.48 0 0 0 42.88 18.69c4.12-.86 9.07-3.05 10.92-5.9-.59-1.83-1.5-3.59-1.5-3.59z"/><path d="M842.82 493.36 647.77 533.8a35.66 35.66 0 0 1-6.95 28.54c-8.08 10.3-22.82 14.4-35.43 12.5-6.28-.95-11.16-3.45-16.73-6.23-11.4-5.67-22.36-11.97-33.63-17.9-11.86-6.26-22.86-10.3-40.55-15.55-29.44-8.72-53.73-9.84-83.94-3.58a227.5 227.5 0 0 0-83.6 35.74 227.94 227.94 0 0 0-61.25 62.74 227.96 227.96 0 0 0-33.22 81.14c-4.59 23.1.58 58.87 13.36 90.42-16.98 36.33-86.77 50.54-101.45 53.16a57.85 57.85 0 0 0-40.99 25.74 57.85 57.85 0 0 0-8.35 43.78 58.32 58.32 0 0 0 56.99 46.42c3.9 0 7.84-.4 11.8-1.22 43.32-8.05 72.37-31.38 86.35-69.36 8.69-23.61 10.05-48.94 8.86-69.84 7.21 19.65 18.52 42.35 35.89 60.57 20.94 21.97 46.4 33.02 75.91 33.01 9.84 0 20.13-1.22 30.84-3.68a57.85 57.85 0 0 0 36.86-25.05 57.85 57.85 0 0 0 8.34-43.78 58.3 58.3 0 0 0-72.8-44.2c-14.7 3.48-85.16 18.34-114.87-8.93 4.64-74.64 50.78-98.3 87.99-106.01 40.42-8.38 75.4 6.6 124.01 37.73.68.38 1.32.77 1.9 1.15a227.98 227.98 0 0 0 81.15 33.23 227.51 227.51 0 0 0 90.91-.43 227.5 227.5 0 0 0 83.6-35.74 227.98 227.98 0 0 0 61.25-62.74 227.98 227.98 0 0 0 33.23-81.14 227.55 227.55 0 0 0-.43-90.92zM126.73 882.71a53.87 53.87 0 0 1 38.26-24c20.6-3.65 83.53-17.51 102.87-52.25l.13.3c-5.52 21.06-16.63 39.55-33.07 54.96-13.54 12.7-30.7 23.36-51.02 31.7-30.86 12.68-59.77 16.08-66.04 16.7.4-9.68 3.42-19.1 8.87-27.41zm-7.77 40.76c-.64-3.1-1-6.23-1.1-9.34 5.68-.54 35.55-3.89 67.46-16.97 44.22-18.14 73.47-47.13 85.03-84.13-1.95 26.24-9.8 49.93-23.4 70.45-11.22 16.94-26.34 31.78-44.96 44.13-30.35 20.12-60.28 27-63.22 27.65a53.8 53.8 0 0 1-19.81-31.79zm147.46-24.72c-13.45 36.56-41.49 59.04-83.36 66.81a53.86 53.86 0 0 1-39.93-7.25 211.06 211.06 0 0 0 60.96-27.3c19.09-12.63 34.61-27.86 46.15-45.25 13.04-19.65 20.95-42.13 23.6-66.89l.31.58c2.3 22.14 2.34 51.96-7.73 79.3zm154.41 17.54c-41.47 9.5-76.13 0-103-28.2-20.4-21.38-32.26-49.22-38.9-70.58 12.3 21.8 28.54 39.36 48.4 52.27 17.5 11.38 37.8 19.18 60.34 23.19a205.79 205.79 0 0 0 35.88 3.08c14.4 0 25.6-1.42 31.08-2.29a53.88 53.88 0 0 1-33.8 22.53zm36.59-27.07c-1.57.31-32.4 6.36-69.18-.21-21.99-3.93-41.77-11.54-58.8-22.62-20.62-13.43-37.24-32.04-49.46-55.33 24.57 28.48 61.42 43.42 107.26 43.42 1.39 0 2.79-.01 4.2-.04 34.88-.68 63.88-9.68 68.81-11.3a54.83 54.83 0 0 1 2.71 9.04 53.81 53.81 0 0 1-5.54 37.04zm-62.35-78.2a53.88 53.88 0 0 1 44.56 6.83 53.88 53.88 0 0 1 19.02 21.61c-5.63 1.82-33.72 10.34-67.4 10.99-21.95.42-41.94-2.55-59.41-8.82-21.58-7.73-39.36-20.58-52.88-38.16v-.16c31.26 25.09 95.5 12.6 116.11 7.72z"/><path fill="#FFD829" d="m751.89 532.61-8.09-10.34-10.93-10.7 28.11-5.96-6.02 14.7z"/><path fill="#FFF" d="M857.75 474.07c-2.64-11.22-14.1-17.96-25.37-15.57-71.04 15.04-79.57 65.07-80.53 73.95-4.3-7.56-32.33-50.72-103.79-36.24-11.3 2.3-19.13 13.03-17.08 24.38a20.96 20.96 0 0 0 26.34 16.45c25.72-5.33 62.81-40.62 94.51-4.2.05.08.18.08.21-.03 14.65-45.9 62.37-27.84 88.07-33.17a20.96 20.96 0 0 0 17.63-25.57z"/><path d="M52.6 512.93c14.8 0 22.27-5.27 29.5-10.36 7.02-4.96 13.65-9.64 27.19-9.64 13.54 0 20.17 4.68 27.2 9.64 7.22 5.1 14.68 10.36 29.5 10.36 14.8 0 22.27-5.27 29.5-10.36 7.02-4.96 13.65-9.64 27.19-9.64 13.54 0 20.17 4.68 27.2 9.64 7.22 5.1 14.68 10.36 29.5 10.36v-4c-13.55 0-20.18-4.68-27.2-9.63-7.23-5.1-14.7-10.37-29.5-10.37-14.81 0-22.28 5.27-29.5 10.37-7.03 4.95-13.66 9.63-27.2 9.63s-20.17-4.68-27.19-9.63c-7.22-5.1-14.7-10.37-29.5-10.37s-22.28 5.27-29.5 10.37c-7.02 4.95-13.66 9.63-27.2 9.63h-.22v4h.22zm539.15 489.73c-14.81 0-22.28 5.27-29.5 10.36-7.03 4.96-13.66 9.64-27.2 9.64s-20.17-4.68-27.2-9.64c-7.22-5.1-14.69-10.36-29.5-10.36-14.8 0-22.27 5.27-29.5 10.36-7.02 4.96-13.65 9.64-27.19 9.64-13.54 0-20.17-4.68-27.2-9.64-7.22-5.1-14.68-10.36-29.5-10.36v4c13.55 0 20.18 4.68 27.2 9.63 7.23 5.1 14.7 10.37 29.5 10.37 14.81 0 22.28-5.27 29.5-10.37 7.03-4.95 13.66-9.63 27.2-9.63s20.17 4.68 27.19 9.63c7.22 5.1 14.7 10.37 29.5 10.37s22.28-5.27 29.5-10.37c7.02-4.95 13.66-9.63 27.2-9.63h.22v-4h-.22zm172.37-122.11c14.81 0 22.28-5.27 29.5-10.36 7.02-4.96 13.66-9.64 27.2-9.64s20.17 4.68 27.2 9.64c7.21 5.1 14.68 10.36 29.5 10.36 14.8 0 22.27-5.27 29.5-10.36 7.01-4.96 13.65-9.64 27.19-9.64 13.54 0 20.17 4.68 27.19 9.64 7.22 5.1 14.7 10.36 29.5 10.36v-4c-13.54 0-20.17-4.68-27.2-9.63-7.22-5.1-14.69-10.37-29.5-10.37-14.8 0-22.27 5.27-29.5 10.37-7.02 4.95-13.65 9.63-27.19 9.63s-20.17-4.68-27.2-9.63c-7.22-5.1-14.68-10.37-29.5-10.37-14.8 0-22.27 5.27-29.5 10.37-7.02 4.95-13.65 9.63-27.19 9.63h-.22v4h.22zm-229.63 198.06c14.8 0 22.27-5.27 29.5-10.36 6.79-4.8 13.23-9.32 25.9-9.61v-4c-13.95.3-21.2 5.4-28.21 10.34-7.02 4.95-13.66 9.63-27.2 9.63s-20.17-4.68-27.19-9.63c-7.18-5.07-14.62-10.31-29.27-10.36v4c13.38.05 19.98 4.7 26.97 9.63 7.22 5.1 14.69 10.36 29.5 10.36zm516.35-735.65c-7.02 4.96-13.65 9.64-27.2 9.64s-20.17-4.68-27.2-9.64c-7.22-5.1-14.69-10.36-29.5-10.36-1.97 0-3.8.1-5.54.27v4.03c1.72-.2 3.55-.3 5.54-.3 13.54 0 20.18 4.68 27.2 9.63 7.23 5.1 14.7 10.37 29.5 10.37 14.82 0 22.28-5.27 29.5-10.37 7.03-4.95 13.67-9.63 27.2-9.63v-4c-14.8 0-22.27 5.27-29.5 10.36zm-711.88-10.33c-13.94.3-21.2 5.39-28.2 10.33-7.02 4.96-13.66 9.64-27.2 9.64s-20.17-4.68-27.19-9.64c-7.22-5.1-14.69-10.36-29.5-10.36-14.8 0-22.27 5.27-29.5 10.36-7.02 4.96-13.65 9.64-27.2 9.64-13.53 0-20.17-4.68-27.19-9.64-7.22-5.1-14.69-10.36-29.5-10.36-14.8 0-22.27 5.27-29.5 10.36-7.02 4.96-13.65 9.64-27.2 9.64-13.53 0-20.17-4.68-27.19-9.64-7.22-5.1-14.69-10.36-29.5-10.36v4c13.54 0 20.18 4.68 27.2 9.63 7.22 5.1 14.69 10.37 29.5 10.37 14.8 0 22.27-5.27 29.5-10.37 7.02-4.95 13.65-9.63 27.2-9.63s20.16 4.68 27.19 9.63c7.22 5.1 14.69 10.37 29.5 10.37 14.8 0 22.27-5.27 29.5-10.37 7.02-4.95 13.65-9.63 27.2-9.63s20.16 4.68 27.18 9.63c7.23 5.1 14.7 10.37 29.5 10.37s22.28-5.27 29.5-10.37c6.8-4.8 13.24-9.31 25.9-9.6v-4z"/></svg>