<svg xmlns="http://www.w3.org/2000/svg" width="1499.109" height="725.001" viewBox="210.442 150.604 1499.109 725.001" xml:space="preserve"><path fill="#FFD829" d="m1333.653 313.275-15.875-17.386s-3.252-5.77 5.258-10.172"/><path fill="#231F20" d="M1333.654 315.275c-.543 0-1.083-.22-1.479-.651l-15.875-17.386a2.045 2.045 0 0 1-.266-.367c-.155-.274-1.484-2.775-.525-5.988.825-2.766 3.048-5.102 6.606-6.942a2 2 0 0 1 1.838 3.552c-2.521 1.304-4.116 2.872-4.611 4.534a4.203 4.203 0 0 0 .11 2.731l15.676 17.168a2 2 0 0 1-1.474 3.349z"/><path fill="#FFD829" d="M1239.168 630.234c5.645 26.03 11.287 52.062 16.933 78.096 1.212 5.592 2.423 11.181 3.637 16.771 5.673-4.933 9.913-11.233 20.745-11.233 17.796 0 17.796 17.012 35.592 17.012 17.792 0 17.792-17.012 35.587-17.012 4.896 0 8.442 1.292 11.385 3.16L1336.9 607.067l113.19-162.99-.185-.128 21.322-30.784c3.299-4.701 23.502-26.79 1.117-42.604l-82.376-58.72-49.498-34.722c-4.692-3.292-11.162-2.158-14.455 2.533a10.343 10.343 0 0 0-1.728 7.743l34.932 94.119s-117.225 168.789-117.484 169.165c-4.952 7.131-9.205 13.504-10.748 22.352-1.512 8.666-.42 17.539 1.429 26.062 2.252 10.381 4.5 20.761 6.752 31.141zM1031.021 730.409c16.929 0 17.767-15.382 33.123-16.885v-68.271h-70.711v68.228c.643-.05 1.3-.082 1.994-.082 17.798-.003 17.798 17.01 35.594 17.01zM511.958 645.253v73.88"/><path d="M511.958 721.133a2 2 0 0 1-2-2v-73.88a2 2 0 0 1 4 0v73.88a2 2 0 0 1-2 2z"/><path fill="#FFD829" d="M582.673 718.737v-73.484"/><path d="M582.673 720.737a2 2 0 0 1-2-2v-73.484a2 2 0 0 1 4 0v73.484a2 2 0 0 1-2 2z"/><path fill="#FFD829" d="M993.433 645.253v68.228"/><path d="M993.433 715.48a2 2 0 0 1-2-2v-68.229a2 2 0 0 1 4 0v68.229a2 2 0 0 1-2 2z"/><path fill="#FFD829" d="M1064.145 713.524v-68.271"/><path d="M1064.145 715.524a2 2 0 0 1-2-2v-68.271a2 2 0 0 1 4 0v68.271a2 2 0 0 1-2 2z"/><path fill="#231F20" d="m1257.782 725.526-27.32-126.011c-1.457-6.719-3.19-16.81-1.444-26.828 1.557-8.925 5.571-15.225 11.075-23.147l116.891-168.308-34.632-93.312-.031-.179a12.286 12.286 0 0 1 2.06-9.236c3.921-5.587 11.656-6.944 17.241-3.023l49.498 34.722 82.389 58.729c6.355 4.49 10.061 9.919 11.004 16.13 1.778 11.721-6.826 22.939-10.502 27.729-.478.621-.87 1.133-1.144 1.521l-20.178 29.13.187.129-113.822 163.899 25.938 109.092-3.891.926-26.354-110.831.511-.733 112.05-161.346-.184-.126 22.462-32.428c.304-.434.73-.991 1.25-1.668 3.364-4.387 11.245-14.658 9.721-24.696-.773-5.094-3.924-9.625-9.363-13.468l-82.383-58.726-49.485-34.713c-3.781-2.651-9.015-1.735-11.67 2.045a8.321 8.321 0 0 0-1.423 6.078l35.229 94.918-.597.857c-1.172 1.688-117.228 168.793-117.483 169.164-5.209 7.501-9.006 13.438-10.422 21.555-1.627 9.328.027 18.903 1.412 25.294l27.32 126.01-3.91.851z"/><path fill="#FFD829" d="m1407.639 554.972-.199.105 84.438 158.889a25.085 25.085 0 0 1 2.134-.098c17.793 0 17.793 17.012 35.587 17.012 17.796 0 17.796-17.012 35.59-17.012 17.796 0 17.796 17.012 35.593 17.012 2.25 0 4.214-.272 5.965-.748 2.053-6.845 3.397-13.937 3.012-21.099-.483-8.967-3.954-15.799-8.03-23.465-.146-.278-59.465-110.437-87.944-164.024l56.97-49.231-.078-.151c3.074-1.957 5.117-5.385 5.117-9.298 0-5.489-4.015-10.028-9.265-10.872a10.971 10.971 0 0 0 2.335-6.771c0-5.66-4.269-10.318-9.762-10.947a10.984 10.984 0 0 0 2.517-7.01c0-6.083-4.927-11.014-11.005-11.024a10.99 10.99 0 0 0 .923-4.411c0-6.089-4.937-11.026-11.025-11.026-3.053 0-3.78 1.103-7.81 3.244l-49.922 26.833-88.743 48.567c-24.099 13.056-6.647 37.378-3.931 42.437l17.533 33.088z"/><path fill="#231F20" d="M1606.745 732.133a2 2 0 0 1-1.917-2.575c2.3-7.668 3.259-14.347 2.931-20.417-.443-8.229-3.513-14.571-7.799-22.634l-.974-1.808c-18.224-33.858-63.178-117.443-86.973-162.216a2 2 0 0 1 .458-2.452l56.396-48.735c.157-.327.403-.614.729-.822a8.986 8.986 0 0 0 4.191-7.61 8.973 8.973 0 0 0-7.582-8.897 1.999 1.999 0 0 1-1.26-3.204 8.935 8.935 0 0 0 1.912-5.541 9.016 9.016 0 0 0-7.988-8.961 2 2 0 0 1-1.315-3.258 9.04 9.04 0 0 0 2.06-5.737c0-4.967-4.041-9.016-9.009-9.024a2 2 0 0 1-1.829-2.802 8.945 8.945 0 0 0 .756-3.61c0-4.978-4.049-9.026-9.025-9.026-1.68 0-2.298.367-4.136 1.457-.715.424-1.605.952-2.735 1.554l-49.913 26.827-88.729 48.561c-5.862 3.176-9.526 7.303-10.896 12.269-2.701 9.784 3.905 20.916 6.729 25.669.438.735.795 1.343 1.04 1.799l17.542 33.099c.151.286.229.603.232.92l83.398 156.933c.332-.013.653-.02.974-.02a2 2 0 0 1 0 4c-.606 0-1.231.029-1.966.091a2.01 2.01 0 0 1-1.936-1.055l-84.438-158.89a1.99 1.99 0 0 1-.234-.925l-17.104-32.271c-.219-.409-.55-.964-.95-1.641-3.082-5.19-10.299-17.349-7.145-28.774 1.671-6.056 5.99-11.006 12.839-14.717l88.736-48.563 49.935-26.84c1.057-.562 1.866-1.042 2.581-1.466 2.047-1.214 3.399-2.018 6.177-2.018 7.183 0 13.024 5.843 13.024 13.026 0 .91-.094 1.807-.279 2.686 5.907 1.235 10.361 6.487 10.361 12.751 0 1.991-.46 3.948-1.323 5.719a13.016 13.016 0 0 1 8.568 12.238c0 1.95-.426 3.832-1.246 5.557a12.952 12.952 0 0 1 8.176 12.086 12.95 12.95 0 0 1-5.34 10.505 1.93 1.93 0 0 1-.392.458l-55.763 48.188c23.974 45.088 68.182 127.284 86.214 160.788l.983 1.829c4.527 8.516 7.771 15.244 8.26 24.294.354 6.538-.657 13.663-3.093 21.78a2 2 0 0 1-1.913 1.425z"/><path fill="#FFD829" d="m982.523 677.092-199.05-152.678c-.6-.404-1.19-.825-1.766-1.274-15.138-11.764-17.87-33.57-6.109-48.711l74.222-95.497c.121-.304 2.572-6.396 2.926-12.949-.253-5.228 1.54-10.486 5.222-14.5l11.625-14.8 14.541-18.512 20.044-25.828.042.029c.001-.001.001-.007.003-.009 3.563-4.536 10.135-5.326 14.672-1.762s5.326 10.131 1.766 14.669c-.206.26-.422.503-.646.738l-19.452 25.071.071.053 20.458-26.354 4.362-5.57c3.639-4.088 9.876-4.698 14.237-1.271 4.541 3.564 5.33 10.132 1.763 14.671-.203.26-4.714 6.127-4.94 6.361l-19.449 25.071.068.054 20.047-25.831 8.277-10.75-.256.338c3.563-4.536 10.395-5.671 14.934-2.109 4.539 3.562 5.328 10.131 1.766 14.668-.204.262-8.661 11.285-8.884 11.519l-19.45 25.073.07.053 20.87-26.878 3.894-4.863c3.688-3.646 9.597-4.069 13.784-.781 4.182 3.288 5.171 9.128 2.503 13.576l-3.75 4.977 3.576-4.683c-.181.272-4.146 5.489-4.353 5.752-.205.26-.419.503-.644.737l-24.808 31.886c.062.154.128.307.187.46l21.482-16.688.029.042a.047.047 0 0 0 .012-.009c4.559-3.539 11.121-2.713 14.659 1.841 3.539 4.559 2.716 11.123-1.842 14.66a9.973 9.973 0 0 1-.798.558l-41.402 32.159a30.47 30.47 0 0 1-1.628 1.372 29.476 29.476 0 0 1-19.085 6.202c-3.187.21-8.965 1.937-12.452 5.144l-49.693 64.528 86.912 66.507 1.062.814 33.624-44.203 44.106 33.554-33.704 44.307 38.666 29.546-42.321 59.52z"/><path d="M982.523 679.092c-.438 0-.866-.144-1.218-.413l-199-152.641a33.192 33.192 0 0 1-1.826-1.321c-15.979-12.417-18.878-35.526-6.459-51.515l74.043-95.268c.502-1.312 2.367-6.5 2.682-11.963-.252-5.783 1.82-11.525 5.698-15.784l26.12-33.253 20.036-25.818c.103-.131.218-.246.341-.345a12.383 12.383 0 0 1 9.509-4.403c2.812 0 5.468.919 7.683 2.659a12.402 12.402 0 0 1 4.627 8.033 12.468 12.468 0 0 1 8.502-3.35c2.807 0 5.457.918 7.667 2.654a12.353 12.353 0 0 1 4.665 8.253 13.23 13.23 0 0 1 8.329-2.977c2.764 0 5.34.875 7.448 2.529a12.357 12.357 0 0 1 4.672 8.303 12.351 12.351 0 0 1-1.691 7.907c.461-.051.927-.077 1.396-.077 2.808 0 5.461.919 7.675 2.656 4.914 3.865 6.196 10.819 2.982 16.178-.026.045-.057.089-.086.131-.039.081-.084.16-.135.236-.262.396-4.41 5.835-4.445 5.882-.228.287-.457.552-.697.81l-16.131 20.732 10.245-7.958c.13-.101.271-.185.419-.25a12.331 12.331 0 0 1 7.25-2.334c3.877 0 7.462 1.754 9.837 4.812a12.37 12.37 0 0 1 2.521 9.188 12.357 12.357 0 0 1-5.581 8.889l-41.278 32.062a31.9 31.9 0 0 1-1.682 1.413c-5.84 4.533-12.908 6.849-20.273 6.625-2.766.208-7.903 1.723-11.017 4.503l-48.359 62.797 84.788 64.882 32.408-42.604a2 2 0 0 1 2.802-.38l44.106 33.554a2 2 0 0 1 .381 2.803l-32.495 42.718 37.079 28.334a2 2 0 0 1 .416 2.748l-42.32 59.521a2.001 2.001 0 0 1-1.634.842zm-77.037-385.173-19.772 25.479-26.173 33.319c-.031.04-.064.079-.099.117-3.218 3.508-4.931 8.265-4.698 13.052.003.068.003.137 0 .205-.352 6.491-2.611 12.445-3.061 13.573-.07.174-.168.348-.283.497l-74.222 95.497c-11.065 14.245-8.482 34.838 5.757 45.904.494.385 1.037.774 1.657 1.194.034.023.067.046.1.071l197.402 151.416 40-56.256-37.13-28.373a2 2 0 0 1-.378-2.8l32.493-42.714-40.924-31.133-32.413 42.611a1.998 1.998 0 0 1-2.809.375l-1.062-.814-86.91-66.506a2.002 2.002 0 0 1-.371-2.808l49.693-64.528a2.02 2.02 0 0 1 .229-.252c3.624-3.333 9.75-5.408 13.675-5.667a1.82 1.82 0 0 1 .196-.003c6.461.21 12.671-1.806 17.794-5.783.459-.356.942-.765 1.521-1.281.035-.031.069-.062.106-.09l41.404-32.158a2.32 2.32 0 0 1 .147-.104 8.39 8.39 0 0 0 3.849-6.071 8.393 8.393 0 0 0-1.711-6.236 8.398 8.398 0 0 0-6.678-3.266c-1.89 0-3.68.614-5.176 1.776a2.044 2.044 0 0 1-.396.244l-21.127 16.412a1.998 1.998 0 0 1-3.098-.87l-.173-.425a2 2 0 0 1 .277-1.973l24.81-31.885c.04-.052.083-.102.128-.15.183-.19.355-.388.521-.6.062-.079.27-.349.561-.73a2.14 2.14 0 0 1 .188-.303l3.685-4.888c2.114-3.624 1.231-8.288-2.075-10.889a8.348 8.348 0 0 0-5.203-1.803 8.398 8.398 0 0 0-5.861 2.356l-3.815 4.768-20.853 26.855a2 2 0 0 1-2.78.374 2.1 2.1 0 0 1-.816-1.36c-.072-.531.038-1.095.367-1.519l19.449-25.073c.041-.052.084-.103.131-.151.316-.388 5.56-7.21 7.533-9.778l1.226-1.595a8.387 8.387 0 0 0 1.745-6.229 8.394 8.394 0 0 0-3.17-5.634c-1.397-1.096-3.119-1.676-4.979-1.676-2.778 0-5.451 1.289-7.146 3.448-.02.024-.038.047-.059.07l-7.95 10.326-20.053 25.837a2 2 0 0 1-2.815.345c-.864-.68-1.086-1.982-.412-2.852l19.45-25.071c.043-.056.09-.11.139-.161.265-.315 3.271-4.218 4.26-5.5l.544-.706a8.39 8.39 0 0 0 1.75-6.232 8.392 8.392 0 0 0-3.171-5.635 8.333 8.333 0 0 0-5.195-1.8 8.451 8.451 0 0 0-6.273 2.783l-4.321 5.518-20.452 26.348a2.001 2.001 0 0 1-2.776.376 2.1 2.1 0 0 1-.821-1.36c-.072-.532.037-1.097.366-1.521l19.452-25.071c.041-.053.084-.103.13-.152.183-.192.358-.391.528-.604 2.868-3.655 2.229-8.977-1.434-11.854a8.367 8.367 0 0 0-5.212-1.805 8.408 8.408 0 0 0-6.595 3.157c-.1.15-.224.282-.362.395z"/><path fill="#FFF" d="m1067.896 645.432 17.519 13.392 3.909 2.987c-4.522 5.918-12.983 7.05-18.903 2.525a13.575 13.575 0 0 1-1.593-1.455l-.543.133c.932 6.741-3.354 13.239-10.106 14.917-6.786 1.688-13.647-2.094-15.947-8.541l-.072.02c.938 6.777-3.396 13.298-10.188 14.941-6.773 1.641-13.585-2.146-15.871-8.567l-.133.031c.964 6.795-3.372 13.338-10.178 14.983-6.787 1.645-13.613-2.163-15.888-8.604l-9.414 2.304-21.901-16.74 51.084-66.83 58.225 44.504z"/><path fill="#FFD829" d="M982.335 411.262a28.887 28.887 0 0 1 2.455 2.104c28.56-21.208 68.769-22.008 98.499.606 29.73 22.617 39.688 61.582 26.872 94.765a28.623 28.623 0 0 1 2.684 1.805c12.515 9.518 14.938 27.38 5.422 39.894-9.52 12.515-27.38 14.939-39.894 5.423a28.637 28.637 0 0 1-5.01-4.887c-27.562 15.24-62.677 13.806-89.354-6.488s-37.431-53.75-30.103-84.384a28.477 28.477 0 0 1-6.045-3.522c-12.514-9.52-14.938-27.379-5.42-39.895 9.519-12.511 27.381-14.939 39.894-5.421z"/><path d="M1095.588 563.67c-6.704 0-13.075-2.15-18.426-6.22a30.883 30.883 0 0 1-4.275-3.947 84.458 84.458 0 0 1-39.308 9.717c-18.478 0-36.036-5.929-50.78-17.145-26.04-19.81-38.177-52.957-31.203-84.84a30.67 30.67 0 0 1-4.943-3.066c-13.37-10.169-15.974-29.323-5.803-42.696 5.812-7.641 14.659-12.021 24.271-12.021 6.705 0 13.076 2.149 18.425 6.219.462.352.924.727 1.383 1.123 14.112-10.043 31.369-15.556 48.786-15.556 18.479 0 36.039 5.929 50.785 17.146 29.15 22.175 40.568 61.25 28.105 95.534.507.339.988.683 1.452 1.038 13.367 10.167 15.972 29.32 5.801 42.693-5.812 7.639-14.658 12.021-24.27 12.021zm-21.718-15.264 1.055 1.315a26.63 26.63 0 0 0 4.66 4.545c4.646 3.534 10.181 5.402 16.003 5.402 8.353 0 16.038-3.807 21.087-10.444 8.835-11.617 6.574-28.256-5.041-37.091a26.007 26.007 0 0 0-2.498-1.68l-1.447-.865.607-1.573c12.743-32.998 1.963-71.015-26.218-92.451-14.043-10.684-30.767-16.329-48.363-16.329-17.115 0-34.066 5.588-47.731 15.734l-1.354 1.005-1.22-1.164a27.304 27.304 0 0 0-2.286-1.96c-4.646-3.533-10.18-5.401-16.002-5.401-8.352 0-16.039 3.807-21.088 10.443-8.836 11.617-6.575 28.257 5.041 37.092a26.642 26.642 0 0 0 5.622 3.276l1.549.665-.392 1.64c-7.375 30.828 4.151 63.144 29.367 82.325 14.042 10.683 30.765 16.328 48.358 16.328 13.566 0 26.989-3.457 38.816-9.997l1.475-.815z"/><path fill="none" d="m1111.648 535.94-25.387 4.534"/><path d="M1086.259 542.474a2 2 0 0 1-.35-3.967l25.388-4.533a2 2 0 0 1 .703 3.937l-25.389 4.533a2.11 2.11 0 0 1-.352.03z"/><path fill="none" d="m960.889 421.254 2.406 25.678"/><path d="M963.293 448.932a1.998 1.998 0 0 1-1.989-1.812l-2.405-25.678a2 2 0 1 1 3.983-.373l2.405 25.678a2 2 0 0 1-1.994 2.185zM1048.874 501.745c-3.62 4.754-2.693 11.543 2.06 15.158 4.756 3.618 11.543 2.695 15.158-2.058 3.616-4.757 2.693-11.544-2.062-15.161-4.753-3.615-11.54-2.694-15.156 2.061z"/><path d="m1072.64 524.74-.1-.002a2 2 0 0 1-1.9-2.096 24.189 24.189 0 0 0-31.765-24.166 2 2 0 1 1-1.252-3.798 28.214 28.214 0 0 1 25.926 4.328 28.2 28.2 0 0 1 11.087 23.833 2 2 0 0 1-1.996 1.901z"/><circle cx="1001.292" cy="465.549" r="10.818"/><path d="m1016.451 481.995-.1-.002a1.999 1.999 0 0 1-1.9-2.095 24.198 24.198 0 0 0-9.516-20.455 24.202 24.202 0 0 0-22.25-3.709 2 2 0 1 1-1.255-3.797 28.198 28.198 0 0 1 25.927 4.324 28.207 28.207 0 0 1 11.09 23.834 2 2 0 0 1-1.996 1.9z"/><path fill="none" d="m1029.523 486.497-10.276 12.605"/><path d="M1019.246 501.102a2 2 0 0 1-1.549-3.263l10.275-12.604a2.002 2.002 0 0 1 2.813-.287 2 2 0 0 1 .286 2.813l-10.276 12.605a1.988 1.988 0 0 1-1.549.736z"/><path fill="#FFF" d="M991.711 489.533c-9.265 12.179-6.902 29.562 5.278 38.828 12.176 9.265 29.562 6.904 38.827-5.275l-44.105-33.553z"/><g><path d="m983.064 414.376.678-.891c13.794-10.344 30.937-16.462 49.504-16.442 45.538.054 82.412 37.013 82.357 82.55a82.388 82.388 0 0 1-3.793 24.694l-3.866 5.085-124.88-94.996z"/></g><g><path fill="#FFF" d="M781.877 713.396c17.795 0 17.795 17.013 35.591 17.013 17.795 0 17.795-17.013 35.591-17.013 17.797 0 17.797 17.013 35.594 17.013s17.797-17.013 35.593-17.013c16.347 0 17.688 14.344 31.59 16.682l36.415-47.643-134.855-103.08-114.052 149.21 2.391 1.826c.187.005.363.018.555.018 17.793 0 17.793-17.013 35.587-17.013z"/></g><g><path fill="#FFF" d="M939.116 546.923c-11.455 14.983-8.592 36.417 6.393 47.871 14.984 11.453 36.417 8.591 47.87-6.396l33.376 25.512-51.572 67.469-122.454-93.599 51.57-67.47 34.817 26.613z"/></g><path fill="#FFF" d="m930.43 550.222-32.281-65.797-9.713-19.794-2.166-4.419c-6.688 3.28-9.449 11.362-6.169 18.047.324.659.707 1.269 1.116 1.85l-.236.505c-6.429-2.229-13.638.705-16.602 7-2.979 6.327-.613 13.793 5.263 17.31l-.03.066c-6.467-2.247-13.707.731-16.646 7.072-2.93 6.322-.547 13.743 5.303 17.239l-.056.122c-6.475-2.271-13.738.705-16.683 7.062-2.937 6.333-.536 13.771 5.339 17.26-.454.973-.926 1.893-1.379 2.79a16.674 16.674 0 0 0-3.192 9.815c0 9.264 7.509 16.772 16.772 16.772 6.035 0 11.309-3.198 14.264-7.981 18.471-8.272 35.484-14.314 55.037-23.908l2.059-1.011z"/><g><path fill="#FFF" d="M1113.93 499.88a7.934 7.934 0 0 1-7.934-7.934V432.85a7.934 7.934 0 0 1 7.934-7.934 7.933 7.933 0 0 1 7.935 7.934v59.097a7.936 7.936 0 0 1-7.935 7.933z"/><path fill="#FFF" d="M1093.042 491.227a7.904 7.904 0 0 1-5.609-2.323 7.932 7.932 0 0 1 0-11.221l41.785-41.788a7.936 7.936 0 0 1 11.223 11.221l-41.786 41.788a7.924 7.924 0 0 1-5.613 2.323z"/><path fill="#FFF" d="M1143.482 470.329h-59.099a7.935 7.935 0 0 1 0-15.869h59.099c4.383 0 7.934 3.552 7.934 7.934s-3.551 7.935-7.934 7.935z"/><path fill="#FFF" d="M1134.831 491.227a7.9 7.9 0 0 1-5.609-2.323l-41.788-41.79a7.93 7.93 0 0 1 0-11.221 7.935 7.935 0 0 1 11.221 0l41.789 41.79a7.936 7.936 0 0 1-5.613 13.544z"/></g><g><path fill="#FFD829" d="M568.338 713.396c6.641 0 10.802 2.37 14.335 5.341v-73.484h-70.714v73.88c5.696 4.939 9.93 11.276 20.792 11.276 17.793 0 17.793-17.013 35.587-17.013zM511.958 645.253v73.88"/><path d="M511.958 721.133a2 2 0 0 1-2-2v-73.88a2 2 0 0 1 4 0v73.88a2 2 0 0 1-2 2z"/><path fill="#FFD829" d="M582.673 718.737v-73.484"/><path d="M582.673 720.737a2 2 0 0 1-2-2v-73.484a2 2 0 0 1 4 0v73.484a2 2 0 0 1-2 2z"/><path fill="#FFD829" d="m501.051 677.092-199.05-152.678c-.6-.404-1.19-.825-1.766-1.274-15.139-11.764-17.87-33.57-6.109-48.711l74.221-95.497c.122-.304 2.572-6.396 2.927-12.949-.255-5.228 1.538-10.486 5.221-14.5l11.624-14.8 14.541-18.512 20.046-25.828.041.029c.001-.001.001-.007.004-.009 3.563-4.536 10.133-5.326 14.672-1.762 4.537 3.564 5.326 10.131 1.764 14.669-.204.26-.422.503-.644.738L419.09 331.08l.071.053 20.457-26.354 4.363-5.57c3.639-4.088 9.876-4.698 14.238-1.271 4.541 3.564 5.328 10.132 1.763 14.671-.204.26-4.717 6.127-4.939 6.361l-19.452 25.071.07.054 20.048-25.831 8.276-10.75-.257.338c3.563-4.536 10.396-5.671 14.936-2.109 4.539 3.562 5.327 10.131 1.764 14.668-.205.262-8.66 11.285-8.884 11.519l-19.45 25.073.069.053 20.869-26.878 3.895-4.863c3.688-3.646 9.596-4.069 13.784-.781 4.184 3.288 5.17 9.128 2.503 13.576l-3.75 4.977 3.575-4.683c-.178.272-4.146 5.489-4.352 5.752-.204.26-.42.503-.641.737l-24.81 31.886c.062.154.128.307.187.46l21.482-16.688.029.042a.034.034 0 0 0 .012-.009c4.556-3.539 11.122-2.713 14.659 1.841 3.538 4.559 2.716 11.123-1.844 14.66-.26.204-.526.385-.797.558l-41.403 32.159a28.57 28.57 0 0 1-1.629 1.372 29.47 29.47 0 0 1-19.085 6.202c-3.186.21-8.964 1.938-12.449 5.144l-49.693 64.528 86.912 66.507 1.061.814 33.624-44.203 44.107 33.554-33.703 44.307 38.664 29.546-42.319 59.519z"/><path d="M501.051 679.092a2 2 0 0 1-1.217-.413L300.832 526.038a33.979 33.979 0 0 1-1.826-1.319c-15.981-12.418-18.879-35.527-6.459-51.516l74.043-95.268c.5-1.306 2.365-6.481 2.681-11.962-.253-5.783 1.819-11.525 5.697-15.784l26.119-33.252 20.039-25.819c.102-.131.217-.246.341-.345a12.384 12.384 0 0 1 9.508-4.403c2.812 0 5.469.919 7.684 2.659a12.408 12.408 0 0 1 4.627 8.033 12.464 12.464 0 0 1 8.503-3.351 12.3 12.3 0 0 1 7.667 2.654 12.362 12.362 0 0 1 4.665 8.252 13.229 13.229 0 0 1 8.328-2.976c2.765 0 5.341.875 7.448 2.529a12.362 12.362 0 0 1 4.673 8.303 12.362 12.362 0 0 1-1.693 7.906c.46-.051.926-.077 1.396-.077 2.807 0 5.459.919 7.674 2.656 4.916 3.863 6.197 10.818 2.982 16.178a2.003 2.003 0 0 1-.089.137 2.598 2.598 0 0 1-.125.222c-.261.399-4.41 5.84-4.448 5.888-.229.29-.459.554-.695.81l-16.136 20.735 10.244-7.958c.131-.101.272-.185.421-.25a12.326 12.326 0 0 1 7.249-2.334c3.877 0 7.464 1.754 9.839 4.812a12.379 12.379 0 0 1 2.52 9.188 12.358 12.358 0 0 1-5.581 8.889l-41.279 32.062a30.713 30.713 0 0 1-1.684 1.415c-5.837 4.532-12.905 6.854-20.272 6.625-2.764.208-7.901 1.723-11.014 4.503l-48.36 62.798 84.788 64.882 32.408-42.604a1.998 1.998 0 0 1 2.801-.38l44.107 33.554a2 2 0 0 1 .381 2.803l-32.495 42.719 37.078 28.334a2 2 0 0 1 .416 2.747l-42.319 59.521a1.993 1.993 0 0 1-1.633.838zm-77.037-385.174-19.773 25.479-26.172 33.319c-.031.04-.064.079-.099.117-3.218 3.508-4.931 8.265-4.697 13.051.003.069.003.138 0 .206-.353 6.513-2.615 12.454-3.064 13.579a2.059 2.059 0 0 1-.28.491l-74.221 95.497c-11.067 14.246-8.484 34.838 5.757 45.904.5.39 1.042.779 1.657 1.194.034.023.067.046.099.071l197.404 151.416 39.998-56.256-37.128-28.373a2 2 0 0 1-.377-2.8l32.492-42.714-40.925-31.133-32.413 42.611c-.321.424-.8.701-1.326.771a1.993 1.993 0 0 1-1.483-.396l-1.061-.814-86.909-66.505a2.002 2.002 0 0 1-.37-2.808l49.693-64.528c.068-.09.146-.174.229-.251 3.624-3.334 9.749-5.408 13.672-5.667.065-.004.13-.006.196-.003a27.394 27.394 0 0 0 19.314-7.062c.034-.032.071-.062.108-.092l41.404-32.158c.047-.037.096-.071.146-.104a8.386 8.386 0 0 0 3.852-6.071 8.401 8.401 0 0 0-1.71-6.236 8.4 8.4 0 0 0-6.68-3.266 8.362 8.362 0 0 0-5.174 1.776 2.09 2.09 0 0 1-.345.219c-.018.008-.035.018-.052.025l-21.127 16.412a2.003 2.003 0 0 1-3.099-.87l-.171-.42a2.001 2.001 0 0 1 .276-1.978l24.81-31.885c.039-.049.079-.097.122-.142.182-.194.359-.395.528-.608l.562-.737c.053-.102.114-.201.187-.296l3.683-4.888a8.455 8.455 0 0 0-2.075-10.889 8.35 8.35 0 0 0-5.203-1.803 8.393 8.393 0 0 0-5.859 2.356l-3.818 4.768-20.851 26.855a2 2 0 0 1-2.791.365 2.11 2.11 0 0 1-.808-1.358c-.068-.529.041-1.09.368-1.512l19.45-25.073c.023-.03.048-.06.074-.089.458-.56 5.723-7.412 7.713-10.003l1.1-1.432a8.386 8.386 0 0 0 1.747-6.23 8.389 8.389 0 0 0-3.169-5.634c-1.396-1.096-3.119-1.676-4.979-1.676-2.779 0-5.452 1.289-7.148 3.448l-.053.064-7.954 10.332-20.053 25.837a2.005 2.005 0 0 1-2.807.354c-.873-.677-1.101-1.987-.424-2.859l19.452-25.071c.041-.053.085-.104.132-.153.251-.301 3.069-3.956 4.13-5.332l.685-.886a8.395 8.395 0 0 0 1.747-6.229 8.396 8.396 0 0 0-3.17-5.635 8.336 8.336 0 0 0-5.197-1.8 8.455 8.455 0 0 0-6.273 2.783l-4.321 5.519-20.452 26.348a2.002 2.002 0 0 1-2.777.376c-.43-.321-.749-.829-.821-1.36-.071-.532.037-1.097.366-1.521l19.453-25.071c.039-.05.081-.099.124-.145.182-.193.361-.393.53-.606 2.872-3.659 2.23-8.98-1.431-11.857a8.365 8.365 0 0 0-5.212-1.805 8.41 8.41 0 0 0-6.599 3.163 1.982 1.982 0 0 1-.359.384z"/><path fill="#FFF" d="m586.425 645.432 17.518 13.392 3.911 2.987c-4.522 5.918-12.986 7.05-18.904 2.525a13.605 13.605 0 0 1-1.596-1.455l-.541.133c.932 6.741-3.354 13.239-10.107 14.917-6.786 1.688-13.647-2.094-15.948-8.541l-.073.02c.941 6.777-3.393 13.298-10.188 14.941-6.771 1.641-13.584-2.146-15.871-8.567l-.131.031c.963 6.795-3.373 13.338-10.18 14.983-6.786 1.645-13.613-2.163-15.887-8.604l-9.415 2.304-21.899-16.74 51.083-66.83 58.228 44.504z"/><path fill="#FFD829" d="M500.862 411.262a28.887 28.887 0 0 1 2.455 2.104c28.559-21.208 68.769-22.008 98.499.606 29.73 22.617 39.688 61.582 26.873 94.765a28.623 28.623 0 0 1 2.684 1.805c12.514 9.518 14.939 27.38 5.422 39.894-9.52 12.515-27.381 14.939-39.895 5.423a28.672 28.672 0 0 1-5.01-4.887c-27.561 15.24-62.675 13.806-89.354-6.488-26.677-20.294-37.432-53.75-30.104-84.384a28.495 28.495 0 0 1-6.044-3.522c-12.514-9.52-14.94-27.379-5.421-39.895 9.521-12.511 27.382-14.939 39.895-5.421z"/><path d="M614.115 563.67c-6.705 0-13.076-2.15-18.426-6.22a30.756 30.756 0 0 1-4.275-3.947 84.457 84.457 0 0 1-39.307 9.717c-18.478 0-36.037-5.929-50.781-17.145-26.041-19.81-38.178-52.958-31.203-84.84a30.626 30.626 0 0 1-4.944-3.066c-6.477-4.926-10.647-12.081-11.744-20.146-1.096-8.064 1.016-16.073 5.942-22.551 5.812-7.641 14.659-12.021 24.271-12.021 6.703 0 13.074 2.149 18.425 6.219.462.352.925.727 1.384 1.123 14.111-10.043 31.368-15.556 48.785-15.556 18.479 0 36.039 5.929 50.785 17.146 29.15 22.176 40.568 61.25 28.104 95.534.503.336.985.68 1.453 1.037 13.369 10.168 15.973 29.322 5.801 42.694-5.811 7.64-14.658 12.022-24.27 12.022zm-21.717-15.263 1.054 1.313a26.67 26.67 0 0 0 4.66 4.546c4.646 3.534 10.181 5.402 16.003 5.402 8.352 0 16.038-3.807 21.087-10.444 8.836-11.616 6.573-28.256-5.042-37.091a26.336 26.336 0 0 0-2.497-1.679l-1.45-.864.608-1.574c12.745-32.997 1.964-71.014-26.219-92.451-14.043-10.684-30.767-16.329-48.362-16.329-17.116 0-34.067 5.588-47.732 15.734l-1.354 1.006-1.221-1.166a27.095 27.095 0 0 0-2.285-1.959c-4.646-3.533-10.18-5.401-16.002-5.401-8.352 0-16.037 3.807-21.087 10.443-4.28 5.627-6.113 12.584-5.163 19.591.952 7.005 4.575 13.221 10.203 17.501a26.674 26.674 0 0 0 5.622 3.276l1.549.664-.392 1.64c-7.376 30.828 4.151 63.144 29.368 82.325 14.042 10.683 30.765 16.328 48.358 16.328 13.566 0 26.988-3.457 38.815-9.997l1.479-.814z"/><path fill="none" d="m630.176 535.94-25.387 4.534"/><path d="M604.786 542.474a2 2 0 0 1-.349-3.967l25.387-4.533a1.999 1.999 0 1 1 .703 3.937l-25.388 4.533c-.118.02-.236.03-.353.03z"/><path fill="none" d="m479.416 421.254 2.406 25.678"/><path d="M481.82 448.932a1.998 1.998 0 0 1-1.989-1.812l-2.406-25.678a2.001 2.001 0 1 1 3.984-.373l2.406 25.678a2 2 0 0 1-1.995 2.185z"/><g><path d="M567.4 501.745c-3.617 4.754-2.693 11.543 2.06 15.158 4.755 3.618 11.543 2.695 15.16-2.058 3.617-4.757 2.692-11.544-2.062-15.161-4.754-3.615-11.54-2.694-15.158 2.061z"/><path d="m591.167 524.74-.099-.002a2 2 0 0 1-1.9-2.096 24.202 24.202 0 0 0-9.513-20.453 24.213 24.213 0 0 0-22.251-3.713c-1.052.347-2.181-.224-2.526-1.272s.224-2.18 1.273-2.526a28.214 28.214 0 0 1 25.926 4.328 28.2 28.2 0 0 1 11.086 23.833 1.998 1.998 0 0 1-1.996 1.901z"/></g><g><circle cx="519.819" cy="465.549" r="10.818"/><path d="m534.976 481.995-.099-.002a2 2 0 0 1-1.9-2.095 24.198 24.198 0 0 0-9.513-20.455 24.2 24.2 0 0 0-22.25-3.709 2 2 0 1 1-1.255-3.797 28.2 28.2 0 0 1 25.926 4.324 28.2 28.2 0 0 1 11.087 23.834 2 2 0 0 1-1.996 1.9z"/></g><g><path fill="none" d="m547.312 486.566-9.537 12.536"/><path d="M537.773 501.102a2 2 0 0 1-1.591-3.211l9.537-12.535a2 2 0 1 1 3.185 2.422l-9.537 12.535c-.394.517-.99.789-1.594.789z"/></g><g><path fill="#FFF" d="M510.238 489.533c-9.266 12.179-6.902 29.562 5.276 38.828 12.18 9.265 29.564 6.904 38.829-5.275l-44.105-33.553z"/></g><g><path d="m501.592 414.376.678-.891c13.795-10.344 30.937-16.462 49.504-16.442 45.539.054 82.412 37.013 82.358 82.55a82.388 82.388 0 0 1-3.793 24.694l-3.867 5.085-124.88-94.996z"/></g><g><path fill="#FFF" d="M457.643 546.923c-11.455 14.983-8.592 36.417 6.394 47.871 14.985 11.453 36.417 8.591 47.871-6.396l33.374 25.512-51.571 67.469-122.454-93.599 51.571-67.47 34.815 26.613z"/></g><path fill="#FFF" d="m448.958 550.222-32.282-65.797-9.712-19.794-2.168-4.419c-6.686 3.28-9.448 11.362-6.167 18.047.324.659.706 1.269 1.116 1.85l-.236.505c-6.43-2.229-13.638.705-16.603 7-2.979 6.327-.613 13.793 5.263 17.31l-.032.066c-6.465-2.247-13.707.731-16.645 7.072-2.93 6.322-.546 13.743 5.305 17.239l-.058.122c-6.474-2.271-13.738.705-16.683 7.062-2.843 6.131-.673 13.287 4.8 16.903a17.296 17.296 0 0 0-5.199 12.378c0 9.586 7.771 17.357 17.357 17.357 6.064 0 11.395-3.115 14.499-7.828 18.606-8.353 35.708-14.409 55.385-24.062l2.06-1.011z"/><g><path fill="#FFF" d="M634.72 499.88a7.935 7.935 0 0 1-7.934-7.934V432.85a7.934 7.934 0 0 1 15.869 0v59.097a7.936 7.936 0 0 1-7.935 7.933z"/><path fill="#FFF" d="M613.833 491.227a7.906 7.906 0 0 1-5.61-2.322 7.936 7.936 0 0 1 0-11.222l41.786-41.788a7.933 7.933 0 0 1 11.22 0c3.1 3.1 3.1 8.122 0 11.222l-41.785 41.788a7.92 7.92 0 0 1-5.611 2.322z"/><path fill="#FFF" d="M664.271 470.329h-59.098a7.935 7.935 0 0 1 0-15.869h59.098a7.935 7.935 0 1 1 0 15.869z"/><path fill="#FFF" d="M655.621 491.227a7.903 7.903 0 0 1-5.61-2.323l-41.788-41.79a7.935 7.935 0 0 1 11.221-11.221l41.787 41.79a7.932 7.932 0 0 1-5.61 13.544z"/></g><g><path fill="#FFF" d="M319.219 730.409c17.795 0 17.795-17.013 35.59-17.013s17.795 17.013 35.591 17.013c17.793 0 17.793-17.013 35.587-17.013 17.795 0 17.795 17.013 35.59 17.013 11.487 0 15.562-7.087 21.792-12.112l27.411-35.859-134.858-103.083-106.391 139.189c3.484-2.878 7.604-5.146 14.1-5.146 17.794-.002 17.794 17.011 35.588 17.011z"/></g></g><g><path fill="#FFF" d="M1173.402 732.88c-9.702 0-14.738-4.812-19.183-9.06-4.277-4.09-8.319-7.952-16.418-7.952-8.096 0-12.136 3.862-16.414 7.951-4.441 4.247-9.479 9.061-19.18 9.061s-14.737-4.812-19.18-9.061c-4.278-4.089-8.318-7.951-16.415-7.951-8.098 0-12.139 3.862-16.416 7.952-4.442 4.246-9.479 9.06-19.179 9.06-9.699 0-14.734-4.812-19.178-9.06-4.278-4.09-8.317-7.952-16.415-7.952-8.095 0-12.135 3.862-16.412 7.951-4.441 4.247-9.477 9.061-19.177 9.061-9.701 0-14.736-4.812-19.179-9.061-4.278-4.089-8.318-7.951-16.415-7.951s-12.138 3.862-16.415 7.951c-4.442 4.247-9.479 9.061-19.18 9.061-9.7 0-14.735-4.812-19.179-9.061-4.278-4.089-8.317-7.951-16.415-7.951-8.096 0-12.136 3.862-16.414 7.951-4.441 4.247-9.478 9.061-19.177 9.061s-14.735-4.812-19.177-9.061c-4.278-4.089-8.318-7.951-16.414-7.951-8.095 0-12.135 3.862-16.413 7.951-4.442 4.247-9.478 9.061-19.177 9.061-9.7 0-14.735-4.812-19.178-9.061-4.277-4.089-8.317-7.951-16.414-7.951-8.096 0-12.135 3.862-16.412 7.951-4.442 4.247-9.479 9.061-19.178 9.061s-14.734-4.812-19.178-9.061c-4.277-4.089-8.318-7.951-16.415-7.951-8.095 0-12.135 3.862-16.412 7.951-4.441 4.247-9.478 9.061-19.177 9.061s-14.732-4.812-19.176-9.061c-4.277-4.089-8.317-7.951-16.411-7.951s-12.134 3.862-16.411 7.951c-4.442 4.247-9.477 9.061-19.176 9.061s-14.733-4.812-19.176-9.061c-4.277-4.089-8.316-7.951-16.411-7.951-8.096 0-12.136 3.862-16.412 7.951-4.442 4.247-9.478 9.061-19.176 9.061-9.7 0-14.734-4.812-19.178-9.061-4.277-4.089-8.317-7.951-16.414-7.951-8.094 0-12.134 3.862-16.411 7.951-4.441 4.247-9.477 9.061-19.175 9.061-9.7 0-14.735-4.812-19.177-9.061-4.278-4.089-8.318-7.951-16.414-7.951-8.095 0-12.135 3.862-16.413 7.951-4.442 4.247-9.477 9.061-19.177 9.061-9.699 0-14.734-4.812-19.177-9.061-4.277-4.089-8.317-7.951-16.412-7.951-8.096 0-12.136 3.862-16.414 7.951-4.442 4.247-9.477 9.061-19.177 9.061-9.699 0-14.734-4.812-19.176-9.06-4.278-4.091-8.318-7.952-16.414-7.952a2 2 0 0 1 0-4c9.7 0 14.735 4.812 19.178 9.061 4.277 4.089 8.317 7.951 16.412 7.951 8.095 0 12.135-3.862 16.413-7.951 4.442-4.247 9.478-9.061 19.177-9.061s14.734 4.812 19.176 9.061c4.277 4.089 8.317 7.951 16.413 7.951s12.135-3.862 16.413-7.951c4.442-4.247 9.477-9.061 19.177-9.061s14.735 4.812 19.177 9.061c4.278 4.089 8.318 7.951 16.414 7.951 8.095 0 12.134-3.862 16.411-7.951 4.442-4.247 9.478-9.061 19.176-9.061 9.7 0 14.735 4.812 19.179 9.061 4.276 4.089 8.316 7.951 16.413 7.951 8.094 0 12.134-3.862 16.41-7.951 4.442-4.247 9.478-9.061 19.177-9.061 9.698 0 14.732 4.812 19.175 9.061 4.277 4.089 8.316 7.951 16.412 7.951 8.095 0 12.134-3.862 16.411-7.951 4.441-4.247 9.477-9.061 19.176-9.061s14.732 4.812 19.176 9.061c4.277 4.089 8.317 7.951 16.411 7.951 8.095 0 12.136-3.862 16.413-7.951 4.442-4.247 9.477-9.061 19.176-9.061 9.7 0 14.736 4.812 19.179 9.061 4.277 4.089 8.317 7.951 16.413 7.951s12.137-3.862 16.413-7.951c4.442-4.247 9.478-9.061 19.178-9.061 9.699 0 14.733 4.812 19.177 9.06 4.278 4.09 8.317 7.952 16.414 7.952 8.095 0 12.135-3.862 16.413-7.951 4.441-4.247 9.477-9.061 19.177-9.061s14.735 4.812 19.177 9.061c4.278 4.089 8.318 7.951 16.414 7.951 8.095 0 12.136-3.862 16.413-7.951 4.443-4.247 9.478-9.061 19.178-9.061s14.736 4.812 19.179 9.06c4.277 4.09 8.318 7.952 16.414 7.952 8.097 0 12.138-3.862 16.416-7.952 4.441-4.246 9.478-9.06 19.178-9.06 9.699 0 14.735 4.812 19.178 9.06 4.278 4.09 8.319 7.952 16.415 7.952s12.136-3.862 16.413-7.952c4.44-4.246 9.477-9.06 19.176-9.06 9.701 0 14.736 4.812 19.179 9.061 4.278 4.089 8.318 7.951 16.414 7.951 8.097 0 12.136-3.862 16.414-7.951 4.442-4.247 9.479-9.061 19.181-9.061 9.699 0 14.735 4.812 19.179 9.06 4.277 4.09 8.318 7.952 16.416 7.952 8.097 0 12.138-3.862 16.416-7.952 4.441-4.246 9.478-9.06 19.178-9.06 9.702 0 14.738 4.812 19.182 9.06 4.278 4.09 8.32 7.952 16.418 7.952 8.099 0 12.14-3.862 16.417-7.951 4.443-4.247 9.479-9.061 19.183-9.061a2 2 0 0 1 0 4c-8.099 0-12.141 3.862-16.418 7.952-4.438 4.246-9.474 9.06-19.176 9.06z"/></g><g><path fill="#FFF" d="M1173.402 803.77c-9.702 0-14.738-4.812-19.183-9.06-4.277-4.09-8.319-7.952-16.418-7.952-8.096 0-12.136 3.862-16.414 7.951-4.441 4.247-9.479 9.061-19.18 9.061-9.699 0-14.735-4.812-19.178-9.06-4.278-4.09-8.319-7.952-16.417-7.952s-12.139 3.862-16.416 7.952c-4.442 4.246-9.479 9.06-19.178 9.06-9.7 0-14.735-4.812-19.179-9.06-4.278-4.09-8.317-7.952-16.415-7.952-8.095 0-12.135 3.862-16.412 7.951-4.441 4.247-9.477 9.061-19.177 9.061s-14.735-4.812-19.178-9.06c-4.278-4.09-8.319-7.952-16.416-7.952-8.096 0-12.137 3.862-16.415 7.952-4.442 4.246-9.479 9.06-19.178 9.06-9.701 0-14.736-4.812-19.18-9.061-4.277-4.089-8.317-7.951-16.414-7.951s-12.137 3.862-16.414 7.951c-4.442 4.247-9.479 9.061-19.178 9.061s-14.734-4.812-19.178-9.061c-4.278-4.089-8.318-7.951-16.414-7.951-8.095 0-12.135 3.862-16.413 7.951-4.442 4.247-9.477 9.061-19.177 9.061s-14.735-4.812-19.178-9.061c-4.278-4.089-8.318-7.951-16.414-7.951s-12.135 3.862-16.412 7.951c-4.442 4.247-9.479 9.061-19.177 9.061-9.7 0-14.736-4.812-19.179-9.061-4.277-4.089-8.317-7.951-16.414-7.951-8.096 0-12.136 3.862-16.412 7.951-4.442 4.247-9.479 9.061-19.178 9.061-9.698 0-14.732-4.812-19.175-9.061-4.276-4.089-8.317-7.951-16.412-7.951-8.094 0-12.134 3.862-16.411 7.951-4.441 4.247-9.477 9.061-19.176 9.061s-14.732-4.812-19.176-9.061c-4.277-4.089-8.316-7.951-16.411-7.951s-12.135 3.862-16.412 7.951c-4.442 4.247-9.477 9.061-19.176 9.061-9.7 0-14.735-4.812-19.177-9.061-4.278-4.089-8.318-7.951-16.413-7.951s-12.136 3.862-16.412 7.951c-4.442 4.247-9.478 9.061-19.176 9.061-9.7 0-14.735-4.812-19.177-9.061-4.278-4.089-8.318-7.951-16.414-7.951-8.095 0-12.135 3.862-16.413 7.951-4.442 4.247-9.477 9.061-19.177 9.061-9.699 0-14.734-4.812-19.177-9.061-4.277-4.089-8.317-7.951-16.412-7.951-8.095 0-12.135 3.862-16.413 7.951-4.442 4.247-9.477 9.061-19.177 9.061s-14.734-4.812-19.177-9.061c-4.278-4.089-8.318-7.951-16.414-7.951a2 2 0 0 1 0-4c9.7 0 14.735 4.813 19.178 9.062 4.277 4.089 8.317 7.95 16.413 7.95s12.135-3.861 16.413-7.95c4.442-4.247 9.477-9.062 19.177-9.062s14.734 4.813 19.176 9.062c4.277 4.089 8.317 7.95 16.413 7.95s12.135-3.861 16.413-7.95c4.442-4.247 9.477-9.062 19.177-9.062s14.735 4.813 19.177 9.062c4.278 4.089 8.318 7.95 16.414 7.95 8.094 0 12.134-3.861 16.412-7.95 4.441-4.247 9.477-9.062 19.176-9.062 9.7 0 14.734 4.813 19.177 9.062 4.278 4.089 8.318 7.95 16.413 7.95 8.094 0 12.134-3.861 16.411-7.95 4.441-4.247 9.477-9.062 19.176-9.062s14.733 4.813 19.175 9.062c4.277 4.089 8.317 7.95 16.412 7.95s12.134-3.861 16.411-7.95c4.442-4.247 9.477-9.062 19.176-9.062s14.734 4.813 19.176 9.062c4.277 4.089 8.317 7.95 16.411 7.95 8.096 0 12.136-3.861 16.413-7.95 4.442-4.247 9.478-9.062 19.177-9.062s14.735 4.813 19.178 9.062c4.277 4.089 8.317 7.95 16.415 7.95 8.095 0 12.136-3.861 16.413-7.95 4.441-4.247 9.477-9.062 19.176-9.062 9.7 0 14.734 4.813 19.177 9.062 4.278 4.089 8.318 7.95 16.414 7.95 8.095 0 12.135-3.861 16.413-7.95 4.442-4.247 9.477-9.062 19.176-9.062 9.7 0 14.735 4.813 19.178 9.062 4.277 4.089 8.317 7.95 16.414 7.95 8.096 0 12.136-3.861 16.413-7.95 4.442-4.247 9.479-9.062 19.178-9.062 9.7 0 14.735 4.813 19.178 9.061 4.278 4.09 8.319 7.951 16.415 7.951s12.137-3.861 16.415-7.95c4.441-4.247 9.478-9.062 19.179-9.062s14.737 4.813 19.18 9.062c4.277 4.089 8.318 7.95 16.414 7.95 8.097 0 12.137-3.861 16.413-7.951 4.441-4.246 9.478-9.061 19.177-9.061 9.7 0 14.735 4.813 19.179 9.062 4.278 4.089 8.317 7.95 16.414 7.95 8.096 0 12.136-3.861 16.414-7.95 4.441-4.247 9.479-9.062 19.18-9.062 9.702 0 14.738 4.813 19.181 9.062 4.278 4.089 8.318 7.95 16.414 7.95 8.098 0 12.139-3.861 16.416-7.951 4.442-4.246 9.479-9.061 19.178-9.061 9.702 0 14.738 4.813 19.183 9.061 4.278 4.09 8.319 7.951 16.418 7.951s12.141-3.861 16.419-7.951c4.443-4.247 9.479-9.061 19.18-9.061a2 2 0 0 1 0 4c-8.097 0-12.138 3.862-16.416 7.951-4.439 4.247-9.476 9.061-19.179 9.061z"/></g><g><path fill="#FFF" d="M1173.402 875.605c-9.702 0-14.738-4.813-19.183-9.061-4.277-4.09-8.319-7.952-16.418-7.952-8.096 0-12.136 3.862-16.414 7.951-4.441 4.247-9.479 9.061-19.18 9.061-9.699 0-14.735-4.812-19.178-9.06-4.278-4.09-8.319-7.952-16.417-7.952s-12.139 3.862-16.416 7.952c-4.442 4.246-9.479 9.06-19.178 9.06-9.7 0-14.735-4.812-19.179-9.06-4.278-4.09-8.317-7.952-16.415-7.952-8.095 0-12.135 3.862-16.412 7.951-4.441 4.247-9.477 9.061-19.177 9.061s-14.735-4.812-19.178-9.06c-4.278-4.09-8.319-7.952-16.416-7.952-8.096 0-12.137 3.862-16.415 7.952-4.442 4.246-9.479 9.06-19.178 9.06-9.701 0-14.736-4.812-19.18-9.061-4.277-4.089-8.317-7.951-16.414-7.951s-12.137 3.862-16.414 7.951c-4.442 4.247-9.479 9.061-19.178 9.061s-14.734-4.812-19.178-9.061c-4.278-4.089-8.318-7.951-16.414-7.951-8.095 0-12.135 3.862-16.413 7.951-4.442 4.247-9.477 9.061-19.177 9.061s-14.735-4.812-19.178-9.061c-4.278-4.089-8.318-7.951-16.414-7.951s-12.135 3.862-16.412 7.951c-4.442 4.247-9.479 9.061-19.177 9.061-9.7 0-14.736-4.812-19.179-9.061-4.277-4.089-8.317-7.951-16.414-7.951-8.096 0-12.136 3.862-16.412 7.951-4.442 4.247-9.479 9.061-19.178 9.061-9.698 0-14.732-4.812-19.175-9.061-4.276-4.089-8.317-7.951-16.412-7.951-8.094 0-12.134 3.862-16.411 7.951-4.441 4.247-9.477 9.061-19.176 9.061s-14.732-4.812-19.176-9.061c-4.277-4.089-8.316-7.951-16.411-7.951s-12.135 3.862-16.412 7.951c-4.442 4.247-9.477 9.061-19.176 9.061-9.7 0-14.735-4.812-19.177-9.061-4.278-4.089-8.318-7.951-16.413-7.951s-12.136 3.862-16.412 7.951c-4.442 4.247-9.478 9.061-19.176 9.061-9.7 0-14.735-4.812-19.177-9.061-4.278-4.089-8.318-7.951-16.414-7.951-8.095 0-12.135 3.862-16.413 7.951-4.442 4.247-9.477 9.061-19.177 9.061-9.699 0-14.734-4.812-19.177-9.061-4.277-4.089-8.317-7.951-16.412-7.951-8.095 0-12.135 3.862-16.413 7.951-4.442 4.247-9.477 9.061-19.177 9.061s-14.734-4.812-19.177-9.061c-4.278-4.089-8.318-7.951-16.414-7.951a2 2 0 0 1 0-4c9.7 0 14.735 4.813 19.178 9.062 4.277 4.089 8.317 7.95 16.413 7.95s12.135-3.861 16.413-7.95c4.442-4.247 9.477-9.062 19.177-9.062s14.734 4.813 19.176 9.062c4.277 4.089 8.317 7.95 16.413 7.95s12.135-3.861 16.413-7.95c4.442-4.247 9.477-9.062 19.177-9.062s14.735 4.813 19.177 9.062c4.278 4.089 8.318 7.95 16.414 7.95 8.094 0 12.134-3.861 16.412-7.95 4.441-4.247 9.477-9.062 19.176-9.062 9.7 0 14.734 4.813 19.177 9.062 4.278 4.089 8.318 7.95 16.413 7.95 8.094 0 12.134-3.861 16.411-7.95 4.441-4.247 9.477-9.062 19.176-9.062s14.733 4.813 19.175 9.062c4.277 4.089 8.317 7.95 16.412 7.95s12.134-3.861 16.411-7.95c4.442-4.247 9.477-9.062 19.176-9.062s14.734 4.813 19.176 9.062c4.277 4.089 8.317 7.95 16.411 7.95 8.096 0 12.136-3.861 16.413-7.95 4.442-4.247 9.478-9.062 19.177-9.062s14.735 4.813 19.178 9.062c4.277 4.089 8.317 7.95 16.415 7.95 8.095 0 12.136-3.861 16.413-7.95 4.441-4.247 9.477-9.062 19.176-9.062 9.7 0 14.734 4.813 19.177 9.062 4.278 4.089 8.318 7.95 16.414 7.95 8.095 0 12.135-3.861 16.413-7.95 4.442-4.247 9.477-9.062 19.176-9.062 9.7 0 14.735 4.813 19.178 9.062 4.277 4.089 8.317 7.95 16.414 7.95 8.096 0 12.136-3.861 16.413-7.95 4.442-4.247 9.479-9.062 19.178-9.062 9.7 0 14.735 4.813 19.178 9.061 4.278 4.09 8.319 7.951 16.415 7.951s12.137-3.861 16.415-7.95c4.441-4.247 9.478-9.062 19.179-9.062s14.737 4.813 19.18 9.062c4.277 4.089 8.318 7.95 16.414 7.95 8.097 0 12.137-3.861 16.413-7.951 4.441-4.246 9.478-9.061 19.177-9.061 9.7 0 14.735 4.813 19.179 9.062 4.278 4.089 8.317 7.95 16.414 7.95 8.096 0 12.136-3.861 16.414-7.95 4.441-4.247 9.479-9.062 19.18-9.062 9.702 0 14.738 4.813 19.181 9.062 4.278 4.089 8.318 7.95 16.414 7.95 8.098 0 12.139-3.861 16.416-7.952 4.442-4.245 9.479-9.06 19.178-9.06 9.702 0 14.738 4.813 19.183 9.06 4.278 4.091 8.319 7.952 16.418 7.952s12.141-3.861 16.419-7.952c4.443-4.246 9.479-9.06 19.18-9.06a2 2 0 0 1 0 4c-8.097 0-12.138 3.862-16.416 7.951-4.439 4.249-9.476 9.062-19.179 9.062z"/></g><g><path fill="none" d="m1534.678 426.633 15.931-10.395"/><path fill="#231F20" d="M1534.68 428.633a2 2 0 0 1-1.095-3.675l15.933-10.396a2 2 0 0 1 2.186 3.351l-15.932 10.395c-.338.22-.717.325-1.092.325z"/></g><g><path fill="none" d="m1543.499 444.432 15.932-10.394"/><path fill="#231F20" d="M1543.501 446.432a2 2 0 0 1-1.095-3.675l15.932-10.395a2 2 0 1 1 2.186 3.35l-15.932 10.396a1.997 1.997 0 0 1-1.091.324z"/></g><g><path fill="none" d="m1550.273 462.231 15.93-10.394"/><path fill="#231F20" d="M1550.275 464.231a2.002 2.002 0 0 1-1.096-3.676l15.931-10.395a2 2 0 1 1 2.186 3.35l-15.93 10.396a1.99 1.99 0 0 1-1.091.325z"/></g><g><path fill="none" d="m1254.797 578.865 1.294-18.757"/><path fill="#231F20" d="M1254.799 580.865a1.998 1.998 0 0 1-1.997-2.139l1.294-18.757a1.997 1.997 0 0 1 2.133-1.856 1.997 1.997 0 0 1 1.857 2.133l-1.294 18.757a1.999 1.999 0 0 1-1.993 1.862z"/></g><g><path fill="#FFF" d="m1428.834 451.167-77.908-54.477 2.295-3.276 77.908 54.476z"/></g><g><path fill="#FFF" d="M1430.828 494.47a7.892 7.892 0 0 1-4.572-1.455 7.932 7.932 0 0 1-1.9-11.058l34.098-48.267a7.933 7.933 0 0 1 11.059-1.902 7.932 7.932 0 0 1 1.901 11.058l-34.099 48.268a7.928 7.928 0 0 1-6.487 3.356z"/><path fill="#FFF" d="M1418.75 475.344a7.934 7.934 0 0 1-1.336-15.755l58.239-10.02a7.935 7.935 0 0 1 2.69 15.639l-58.238 10.021a8.128 8.128 0 0 1-1.355.115z"/><path fill="#FFF" d="M1472.006 487.387a7.897 7.897 0 0 1-4.572-1.455l-48.268-34.099a7.932 7.932 0 0 1-1.901-11.058 7.932 7.932 0 0 1 11.058-1.902l48.269 34.099a7.932 7.932 0 0 1 1.902 11.059 7.935 7.935 0 0 1-6.488 3.356z"/><path fill="#FFF" d="M1452.877 499.456a7.94 7.94 0 0 1-7.811-6.59l-10.018-58.244a7.935 7.935 0 0 1 6.475-9.165c4.316-.748 8.421 2.156 9.163 6.474l10.019 58.244a7.934 7.934 0 0 1-7.828 9.281z"/></g><g><path fill="none" d="m1588.701 703.492-8.777-16.629"/><path fill="#231F20" d="M1588.703 705.492a2.003 2.003 0 0 1-1.771-1.066l-8.776-16.629a1.997 1.997 0 0 1 .835-2.702 1.998 1.998 0 0 1 2.702.835l8.776 16.629a1.997 1.997 0 0 1-1.766 2.933z"/></g><g><path fill="#FFF" d="M1671.96 732.88c-9.7 0-14.735-4.812-19.178-9.061-4.277-4.089-8.318-7.951-16.413-7.951s-12.135 3.862-16.412 7.951c-4.442 4.247-9.479 9.061-19.178 9.061-9.7 0-14.736-4.812-19.18-9.061-4.277-4.089-8.317-7.951-16.413-7.951s-12.136 3.862-16.412 7.951c-4.442 4.247-9.478 9.061-19.177 9.061s-14.734-4.812-19.177-9.061c-4.276-4.089-8.316-7.951-16.411-7.951s-12.135 3.862-16.412 7.951c-4.44 4.247-9.477 9.061-19.175 9.061s-14.733-4.812-19.176-9.061c-4.277-4.089-8.317-7.951-16.411-7.951-8.095 0-12.135 3.862-16.412 7.951-4.44 4.247-9.477 9.061-19.175 9.061-9.7 0-14.735-4.812-19.178-9.061-4.277-4.089-8.317-7.951-16.412-7.951-8.096 0-12.136 3.862-16.413 7.952-4.441 4.246-9.476 9.06-19.174 9.06-9.7 0-14.735-4.812-19.178-9.061-4.277-4.089-8.318-7.951-16.413-7.951-8.097 0-12.138 3.862-16.414 7.952-4.442 4.246-9.478 9.06-19.176 9.06-9.7 0-14.734-4.812-19.178-9.061-4.276-4.089-8.316-7.951-16.411-7.951-8.098 0-12.139 3.862-16.416 7.952-4.441 4.246-9.477 9.06-19.176 9.06s-14.732-4.812-19.176-9.06c-4.278-4.09-8.318-7.952-16.415-7.952a2 2 0 0 1 0-4c9.701 0 14.736 4.813 19.179 9.061 4.277 4.09 8.317 7.951 16.412 7.951s12.135-3.861 16.412-7.951c4.442-4.247 9.479-9.061 19.179-9.061 9.699 0 14.733 4.813 19.177 9.06 4.276 4.091 8.316 7.952 16.412 7.952s12.136-3.861 16.412-7.95c4.442-4.247 9.479-9.062 19.178-9.062s14.734 4.813 19.178 9.06c4.276 4.091 8.317 7.952 16.414 7.952 8.094 0 12.133-3.861 16.41-7.95 4.44-4.247 9.477-9.062 19.177-9.062 9.698 0 14.732 4.813 19.176 9.061 4.277 4.09 8.318 7.951 16.414 7.951 8.094 0 12.134-3.861 16.411-7.95 4.44-4.247 9.477-9.062 19.176-9.062 9.698 0 14.733 4.813 19.175 9.062 4.277 4.089 8.317 7.95 16.412 7.95 8.094 0 12.134-3.861 16.411-7.95 4.441-4.247 9.477-9.062 19.176-9.062 9.698 0 14.733 4.813 19.176 9.062 4.276 4.089 8.316 7.95 16.411 7.95 8.097 0 12.137-3.861 16.413-7.951 4.442-4.246 9.478-9.061 19.176-9.061 9.7 0 14.735 4.813 19.179 9.061 4.277 4.09 8.317 7.951 16.415 7.951 8.096 0 12.137-3.861 16.414-7.951 4.441-4.246 9.477-9.061 19.176-9.061s14.734 4.813 19.177 9.061c4.277 4.09 8.318 7.951 16.414 7.951 8.095 0 12.135-3.861 16.412-7.95 4.442-4.247 9.478-9.062 19.179-9.062a2 2 0 0 1 0 4c-8.097 0-12.138 3.862-16.415 7.952-4.443 4.246-9.477 9.06-19.176 9.06z"/></g><g><path fill="#FFF" d="M1671.96 803.758c-9.7 0-14.735-4.812-19.178-9.061-4.277-4.089-8.318-7.951-16.413-7.951s-12.135 3.862-16.412 7.951c-4.442 4.247-9.479 9.061-19.178 9.061-9.7 0-14.736-4.812-19.18-9.061-4.277-4.089-8.317-7.951-16.413-7.951s-12.136 3.862-16.412 7.951c-4.442 4.247-9.478 9.061-19.177 9.061s-14.734-4.812-19.177-9.061c-4.276-4.089-8.316-7.951-16.411-7.951s-12.135 3.862-16.412 7.951c-4.44 4.247-9.477 9.061-19.175 9.061s-14.733-4.812-19.176-9.061c-4.277-4.089-8.317-7.951-16.411-7.951-8.095 0-12.135 3.862-16.412 7.951-4.44 4.247-9.477 9.061-19.175 9.061-9.7 0-14.735-4.812-19.178-9.061-4.277-4.089-8.317-7.951-16.412-7.951-8.096 0-12.136 3.862-16.413 7.952-4.441 4.246-9.476 9.06-19.174 9.06-9.7 0-14.735-4.812-19.178-9.061-4.277-4.089-8.318-7.951-16.413-7.951-8.097 0-12.138 3.862-16.414 7.952-4.442 4.246-9.478 9.06-19.176 9.06-9.7 0-14.734-4.812-19.178-9.061-4.276-4.089-8.316-7.951-16.411-7.951-8.098 0-12.139 3.862-16.416 7.952-4.441 4.246-9.477 9.06-19.176 9.06s-14.732-4.812-19.176-9.06c-4.278-4.09-8.318-7.952-16.415-7.952a2 2 0 0 1 0-4c9.701 0 14.736 4.813 19.179 9.061 4.277 4.09 8.317 7.951 16.412 7.951s12.135-3.861 16.412-7.951c4.442-4.246 9.479-9.061 19.179-9.061 9.699 0 14.733 4.813 19.177 9.061 4.276 4.09 8.316 7.951 16.412 7.951s12.136-3.861 16.412-7.95c4.442-4.247 9.479-9.062 19.178-9.062s14.734 4.813 19.178 9.061c4.276 4.09 8.317 7.951 16.414 7.951 8.094 0 12.133-3.861 16.41-7.95 4.44-4.247 9.477-9.062 19.177-9.062 9.698 0 14.732 4.813 19.176 9.061 4.277 4.09 8.318 7.951 16.414 7.951 8.094 0 12.134-3.861 16.411-7.95 4.44-4.247 9.477-9.062 19.176-9.062 9.698 0 14.733 4.813 19.175 9.062 4.277 4.089 8.317 7.95 16.412 7.95 8.094 0 12.134-3.861 16.411-7.95 4.441-4.247 9.477-9.062 19.176-9.062 9.698 0 14.733 4.813 19.176 9.062 4.276 4.089 8.316 7.95 16.411 7.95 8.097 0 12.137-3.861 16.413-7.951 4.442-4.246 9.478-9.061 19.176-9.061 9.7 0 14.735 4.813 19.179 9.061 4.277 4.09 8.317 7.951 16.415 7.951 8.096 0 12.137-3.861 16.414-7.951 4.441-4.246 9.477-9.061 19.176-9.061s14.734 4.813 19.177 9.061c4.277 4.09 8.318 7.951 16.414 7.951 8.095 0 12.135-3.861 16.412-7.95 4.442-4.247 9.478-9.062 19.179-9.062a2 2 0 0 1 0 4c-8.097 0-12.138 3.862-16.415 7.952-4.443 4.246-9.477 9.06-19.176 9.06z"/></g><g><path fill="#FFF" d="M1671.96 875.581c-9.7 0-14.735-4.813-19.178-9.06-4.277-4.09-8.318-7.951-16.413-7.951s-12.135 3.861-16.412 7.951c-4.442 4.245-9.479 9.06-19.178 9.06-9.7 0-14.736-4.813-19.18-9.06-4.277-4.09-8.317-7.951-16.413-7.951s-12.136 3.861-16.412 7.951c-4.442 4.245-9.478 9.06-19.177 9.06s-14.734-4.813-19.177-9.06c-4.276-4.09-8.316-7.951-16.411-7.951s-12.135 3.861-16.412 7.951c-4.44 4.245-9.477 9.06-19.175 9.06s-14.733-4.813-19.176-9.06c-4.277-4.09-8.317-7.951-16.411-7.951-8.095 0-12.135 3.861-16.412 7.951-4.44 4.245-9.477 9.06-19.175 9.06-9.7 0-14.735-4.813-19.178-9.06-4.277-4.09-8.317-7.951-16.412-7.951-8.096 0-12.136 3.861-16.413 7.951-4.441 4.246-9.476 9.06-19.174 9.06-9.7 0-14.735-4.813-19.178-9.06-4.277-4.09-8.318-7.951-16.413-7.951-8.097 0-12.138 3.861-16.414 7.951-4.442 4.246-9.478 9.06-19.176 9.06-9.7 0-14.734-4.813-19.178-9.06-4.276-4.09-8.316-7.951-16.411-7.951-8.098 0-12.139 3.861-16.416 7.951-4.441 4.246-9.477 9.06-19.176 9.06-9.697 0-14.732-4.812-19.176-9.06-4.277-4.09-8.318-7.951-16.415-7.951a2 2 0 0 1 0-4c9.701 0 14.736 4.812 19.179 9.061 4.277 4.088 8.317 7.95 16.412 7.95s12.135-3.862 16.412-7.95c4.442-4.247 9.479-9.061 19.179-9.061 9.699 0 14.733 4.812 19.177 9.06 4.276 4.089 8.316 7.951 16.412 7.951s12.136-3.862 16.412-7.951c4.442-4.246 9.479-9.06 19.178-9.06s14.734 4.812 19.178 9.06c4.276 4.089 8.317 7.951 16.414 7.951 8.094 0 12.133-3.862 16.41-7.95 4.44-4.247 9.477-9.061 19.177-9.061 9.698 0 14.732 4.812 19.176 9.06 4.277 4.089 8.318 7.951 16.414 7.951 8.094 0 12.134-3.862 16.411-7.951 4.44-4.246 9.477-9.06 19.176-9.06 9.698 0 14.733 4.812 19.175 9.06 4.277 4.089 8.317 7.951 16.412 7.951 8.094 0 12.134-3.862 16.411-7.951 4.441-4.246 9.477-9.06 19.176-9.06 9.698 0 14.733 4.812 19.176 9.06 4.276 4.089 8.316 7.951 16.411 7.951 8.097 0 12.137-3.862 16.413-7.951 4.442-4.246 9.478-9.06 19.176-9.06 9.7 0 14.735 4.812 19.179 9.06 4.277 4.089 8.317 7.951 16.415 7.951 8.096 0 12.137-3.862 16.414-7.951 4.441-4.247 9.477-9.06 19.176-9.06s14.734 4.812 19.177 9.06c4.277 4.089 8.318 7.951 16.414 7.951 8.095 0 12.135-3.862 16.412-7.95 4.442-4.247 9.478-9.061 19.179-9.061a2 2 0 0 1 0 4c-8.097 0-12.138 3.861-16.415 7.951-4.443 4.248-9.477 9.06-19.176 9.06z"/></g><g><circle fill="#FFF" cx="507.64" cy="207.256" r="7.726"/><circle fill="#FFF" cx="458.715" cy="158.331" r="7.727"/></g><g><path fill="#FFF" d="M1529.776 227.292a2 2 0 0 1-2-2v-35.975a2 2 0 0 1 4 0v35.975a2 2 0 0 1-2 2zM1529.776 276.589a2 2 0 0 1-2-2v-35.975a2 2 0 0 1 4 0v35.975a2 2 0 0 1-2 2z"/><g><path fill="#FFF" d="M1572.413 233.953h-35.976a2 2 0 0 1 0-4h35.976a2 2 0 0 1 0 4zM1523.115 233.953h-35.976a2 2 0 0 1 0-4h35.976a2 2 0 0 1 0 4z"/></g></g><g><path fill="#FFF" d="M720.133 300.601a2 2 0 0 1-2-2V275.14a2 2 0 0 1 4 0v23.461a2 2 0 0 1-2 2zM720.133 332.751a2 2 0 0 1-2-2V307.29a2 2 0 0 1 4 0v23.461a2 2 0 0 1-2 2z"/><g><path fill="#FFF" d="M747.939 304.945h-23.463a2 2 0 0 1 0-4h23.463a2 2 0 0 1 0 4zM715.788 304.945h-23.461a2 2 0 0 1 0-4h23.461a2 2 0 0 1 0 4z"/></g></g><g><path fill="#FFF" d="M1647.362 360.147a2 2 0 0 1-2-2v-23.462a2 2 0 0 1 4 0v23.462a2 2 0 0 1-2 2zM1647.362 392.298a2 2 0 0 1-2-2v-23.461a2 2 0 0 1 4 0v23.461a2 2 0 0 1-2 2z"/><g><path fill="#FFF" d="M1675.169 364.492h-23.462a2 2 0 0 1 0-4h23.462a2 2 0 0 1 0 4zM1643.018 364.492h-23.462a2 2 0 0 1 0-4h23.462a2 2 0 0 1 0 4z"/></g></g><g><circle fill="#FFF" cx="1138.469" cy="245.452" r="7.727"/></g><g><circle fill="#FFF" cx="259.445" cy="289.547" r="7.727"/></g></svg>