<?xml version="1.0" encoding="utf-8"?>
<!-- Generator: Adobe Illustrator 16.0.0, SVG Export Plug-In . SVG Version: 6.00 Build 0)  -->
<!DOCTYPE svg PUBLIC "-//W3C//DTD SVG 1.1//EN" "http://www.w3.org/Graphics/SVG/1.1/DTD/svg11.dtd">
<svg version="1.1" id="Layer_1" xmlns="http://www.w3.org/2000/svg" xmlns:xlink="http://www.w3.org/1999/xlink" x="0px" y="0px"
	 width="1920px" height="1080px" viewBox="0 0 1920 1080" enable-background="new 0 0 1920 1080" xml:space="preserve">
<g>
	<g>
		<path fill="#FFD829" d="M1333.653,313.275l-15.875-17.386c0,0-3.252-5.77,5.258-10.172"/>
		<path fill="#231F20" d="M1333.654,315.275c-0.543,0-1.083-0.219-1.478-0.651l-15.875-17.386c-0.103-0.112-0.191-0.235-0.266-0.367
			c-0.155-0.274-1.484-2.775-0.525-5.988c0.825-2.766,3.048-5.102,6.606-6.942c0.982-0.507,2.188-0.124,2.695,0.857
			s0.124,2.188-0.857,2.695c-2.521,1.304-4.116,2.872-4.611,4.534c-0.384,1.286-0.044,2.352,0.11,2.731l15.676,17.168
			c0.745,0.816,0.688,2.081-0.128,2.826C1334.618,315.102,1334.136,315.275,1333.654,315.275z"/>
	</g>
	<g>
		<path fill="#FFD829" d="M1239.168,630.234c5.645,26.031,11.287,52.063,16.933,78.096c1.211,5.592,2.423,11.181,3.636,16.772
			c5.673-4.933,9.913-11.234,20.746-11.234c17.795,0,17.795,17.012,35.591,17.012c17.792,0,17.792-17.012,35.587-17.012
			c4.896,0,8.443,1.292,11.385,3.16l-26.146-109.961l113.191-162.99l-0.185-0.128l21.323-30.784
			c3.299-4.701,23.502-26.79,1.117-42.604l-82.376-58.72l-49.498-34.722c-4.692-3.292-11.162-2.158-14.455,2.533
			c-1.643,2.345-2.186,5.133-1.728,7.743l34.932,94.119c0,0-117.225,168.789-117.485,169.165
			c-4.952,7.131-9.205,13.504-10.748,22.351c-1.511,8.666-0.419,17.539,1.429,26.062
			C1234.668,609.474,1236.916,619.854,1239.168,630.234z"/>
	</g>
	<g>
		<path fill="#FFD829" d="M1031.021,730.409c16.929,0,17.767-15.382,33.124-16.885v-68.271h-70.712v68.228
			c0.643-0.05,1.3-0.083,1.995-0.083C1013.225,713.397,1013.225,730.409,1031.021,730.409z"/>
	</g>
	<g>
		<path fill="#FFD829" d="M511.958,645.253v73.88"/>
		<path d="M511.958,721.133c-1.104,0-2-0.896-2-2v-73.88c0-1.104,0.896-2,2-2s2,0.896,2,2v73.88
			C513.958,720.237,513.063,721.133,511.958,721.133z"/>
	</g>
	<g>
		<path fill="#FFD829" d="M582.673,718.737v-73.484"/>
		<path d="M582.673,720.737c-1.104,0-2-0.896-2-2v-73.484c0-1.104,0.896-2,2-2s2,0.896,2,2v73.484
			C584.673,719.842,583.777,720.737,582.673,720.737z"/>
	</g>
	<g>
		<path fill="#FFD829" d="M993.433,645.253v68.228"/>
		<path d="M993.433,715.48c-1.104,0-2-0.896-2-2v-68.228c0-1.104,0.896-2,2-2s2,0.896,2,2v68.228
			C995.433,714.585,994.537,715.48,993.433,715.48z"/>
	</g>
	<g>
		<path fill="#FFD829" d="M1064.145,713.524v-68.271"/>
		<path d="M1064.145,715.524c-1.104,0-2-0.896-2-2v-68.271c0-1.104,0.896-2,2-2s2,0.896,2,2v68.271
			C1066.145,714.629,1065.249,715.524,1064.145,715.524z"/>
	</g>
	<g>
		<path fill="#231F20" d="M1257.782,725.526l-27.32-126.01c-1.457-6.719-3.191-16.81-1.445-26.829
			c1.557-8.924,5.572-15.224,11.076-23.147c0.248-0.357,107.845-155.284,116.89-168.308l-34.632-93.311l-0.031-0.179
			c-0.57-3.247,0.161-6.527,2.06-9.236c3.92-5.587,11.656-6.944,17.241-3.023l49.498,34.722l82.389,58.729
			c6.355,4.49,10.06,9.918,11.003,16.129c1.779,11.721-6.826,22.94-10.502,27.73c-0.477,0.621-0.87,1.133-1.143,1.521l-20.178,29.13
			l0.187,0.129l-113.823,163.9l25.939,109.091l-3.891,0.926l-26.354-110.831l0.51-0.733l112.05-161.346l-0.183-0.126l22.461-32.428
			c0.304-0.433,0.731-0.991,1.25-1.668c3.365-4.386,11.245-14.658,9.721-24.696c-0.773-5.094-3.924-9.625-9.363-13.468
			l-82.383-58.725l-49.485-34.713c-3.781-2.651-9.015-1.735-11.67,2.045c-1.251,1.786-1.753,3.938-1.423,6.078l35.229,94.918
			l-0.596,0.857c-1.172,1.688-117.228,168.793-117.484,169.164c-5.209,7.501-9.006,13.438-10.421,21.555
			c-1.627,9.328,0.027,18.903,1.412,25.294l27.32,126.01L1257.782,725.526z"/>
	</g>
	<g>
		<path fill="#FFD829" d="M1407.639,554.972l-0.2,0.105l84.438,158.889c0.685-0.058,1.389-0.098,2.134-0.098
			c17.793,0,17.793,17.012,35.587,17.012c17.795,0,17.795-17.012,35.589-17.012c17.796,0,17.796,17.012,35.593,17.012
			c2.25,0,4.214-0.273,5.965-0.748c2.053-6.845,3.398-13.937,3.012-21.099c-0.484-8.967-3.954-15.799-8.03-23.465
			c-0.147-0.278-59.465-110.436-87.945-164.024l56.97-49.231l-0.078-0.152c3.074-1.957,5.117-5.385,5.117-9.298
			c0-5.489-4.015-10.028-9.265-10.872c1.458-1.87,2.335-4.215,2.335-6.77c0-5.66-4.268-10.319-9.761-10.948
			c1.571-1.905,2.516-4.347,2.516-7.009c0-6.083-4.927-11.014-11.005-11.025c0.591-1.352,0.923-2.842,0.923-4.411
			c0-6.089-4.936-11.026-11.025-11.026c-3.053,0-3.78,1.102-7.81,3.244l-49.922,26.833l-88.743,48.567
			c-24.098,13.056-6.647,37.378-3.93,42.437L1407.639,554.972z"/>
	</g>
	<g>
		<path fill="#231F20" d="M1606.745,732.133c-0.19,0-0.384-0.027-0.575-0.085c-1.059-0.317-1.659-1.433-1.342-2.49
			c2.3-7.668,3.259-14.347,2.931-20.417c-0.444-8.23-3.513-14.572-7.799-22.634l-0.974-1.808
			c-18.223-33.858-63.177-117.443-86.972-162.216c-0.438-0.824-0.248-1.841,0.458-2.452l56.396-48.735
			c0.157-0.327,0.403-0.614,0.729-0.822c2.625-1.671,4.191-4.516,4.191-7.611c0-4.449-3.188-8.191-7.582-8.897
			c-0.698-0.112-1.285-0.585-1.544-1.243c-0.259-0.658-0.15-1.404,0.284-1.961c1.251-1.605,1.912-3.521,1.912-5.541
			c0-4.587-3.435-8.439-7.988-8.961c-0.729-0.083-1.353-0.559-1.627-1.238s-0.155-1.456,0.312-2.021
			c1.327-1.61,2.059-3.647,2.059-5.737c0-4.967-4.041-9.016-9.009-9.025c-0.674-0.001-1.303-0.342-1.671-0.907
			s-0.428-1.276-0.158-1.895c0.502-1.146,0.756-2.361,0.756-3.61c0-4.977-4.049-9.026-9.025-9.026c-1.68,0-2.298,0.367-4.136,1.457
			c-0.715,0.424-1.605,0.952-2.735,1.553l-49.913,26.828l-88.73,48.56c-5.862,3.176-9.526,7.303-10.896,12.269
			c-2.701,9.784,3.906,20.916,6.729,25.669c0.437,0.735,0.795,1.342,1.04,1.798l17.542,33.099c0.151,0.286,0.229,0.603,0.232,0.92
			l83.399,156.933c0.332-0.013,0.653-0.02,0.973-0.02c1.104,0,2,0.896,2,2s-0.896,2-2,2c-0.606,0-1.231,0.029-1.966,0.091
			c-0.795,0.063-1.559-0.347-1.935-1.055l-84.438-158.889c-0.153-0.287-0.232-0.604-0.234-0.925l-17.104-32.272
			c-0.219-0.409-0.55-0.964-0.951-1.64c-3.081-5.191-10.298-17.349-7.144-28.775c1.671-6.055,5.99-11.006,12.839-14.717
			l88.736-48.563l49.935-26.84c1.056-0.561,1.866-1.042,2.581-1.466c2.047-1.214,3.399-2.017,6.176-2.017
			c7.183,0,13.025,5.843,13.025,13.026c0,0.91-0.094,1.807-0.279,2.686c5.907,1.235,10.361,6.487,10.361,12.751
			c0,1.991-0.46,3.948-1.323,5.718c5.045,1.83,8.568,6.658,8.568,12.239c0,1.95-0.426,3.832-1.246,5.556
			c4.869,1.932,8.176,6.642,8.176,12.086c0,4.186-1.98,8.052-5.34,10.505c-0.104,0.168-0.235,0.324-0.392,0.458l-55.763,48.188
			c23.974,45.088,68.182,127.284,86.214,160.788c0.633,1.176,0.973,1.809,0.984,1.829c4.527,8.516,7.771,15.244,8.26,24.294
			c0.354,6.538-0.658,13.663-3.093,21.78C1608.4,731.572,1607.605,732.133,1606.745,732.133z"/>
	</g>
	<g>
		<path fill="#FFD829" d="M983.523,675.092L784.474,522.414c-0.6-0.404-1.191-0.825-1.766-1.274
			c-15.138-11.764-17.87-33.571-6.109-48.711l74.221-95.497c0.121-0.304,2.572-6.397,2.926-12.95
			c-0.253-5.227,1.54-10.486,5.222-14.5l11.625-14.799l14.541-18.512l20.044-25.828l0.042,0.029
			c0.001-0.001,0.001-0.007,0.003-0.009c3.563-4.536,10.134-5.326,14.672-1.762c4.537,3.564,5.326,10.131,1.765,14.669
			c-0.206,0.26-0.422,0.503-0.645,0.738l-19.452,25.071l0.071,0.053l20.458-26.354l4.362-5.57c3.639-4.088,9.876-4.698,14.238-1.271
			c4.541,3.564,5.329,10.132,1.762,14.671c-0.203,0.26-4.714,6.127-4.94,6.362l-19.45,25.071l0.069,0.054l20.047-25.831l8.277-10.75
			l-0.256,0.338c3.564-4.536,10.395-5.671,14.934-2.109s5.328,10.131,1.766,14.668c-0.205,0.262-8.662,11.285-8.884,11.519
			l-19.45,25.073l0.07,0.053l20.87-26.878l3.893-4.864c3.689-3.646,9.597-4.069,13.785-0.781c4.181,3.288,5.17,9.128,2.503,13.576
			l-3.751,4.977l3.577-4.683c-0.181,0.273-4.147,5.49-4.353,5.752c-0.205,0.26-0.419,0.503-0.643,0.738l-24.808,31.885
			c0.062,0.155,0.128,0.307,0.187,0.46l21.482-16.688l0.029,0.042c0.004-0.002,0.008-0.005,0.012-0.009
			c4.558-3.539,11.121-2.713,14.659,1.841c3.539,4.558,2.716,11.123-1.842,14.66c-0.26,0.204-0.526,0.385-0.797,0.558
			l-41.403,32.159c-0.526,0.471-1.063,0.932-1.628,1.372c-5.67,4.401-12.435,6.417-19.085,6.202
			c-3.186,0.21-8.965,1.937-12.452,5.144l-49.693,64.528l86.912,66.507l1.062,0.814l33.624-44.203l44.107,33.554l-33.704,44.306
			l38.666,29.546L983.523,675.092z"/>
		<path d="M983.523,677.092c-0.438,0-0.866-0.144-1.217-0.413L783.305,524.038c-0.678-0.459-1.276-0.891-1.827-1.321
			c-15.979-12.417-18.877-35.527-6.458-51.515l74.043-95.267c0.502-1.312,2.367-6.5,2.681-11.963
			c-0.252-5.784,1.821-11.526,5.698-15.785l26.12-33.252l20.037-25.819c0.102-0.131,0.217-0.246,0.341-0.345
			c2.371-2.804,5.811-4.403,9.508-4.403c2.812,0,5.468,0.919,7.683,2.659c2.621,2.059,4.191,4.967,4.627,8.033
			c2.293-2.141,5.333-3.35,8.502-3.35c2.806,0,5.457,0.918,7.667,2.654c2.602,2.043,4.258,4.972,4.665,8.253
			c2.32-1.895,5.281-2.977,8.329-2.977c2.764,0,5.34,0.875,7.448,2.529c2.616,2.052,4.275,5.001,4.672,8.303
			c0.336,2.787-0.262,5.543-1.691,7.907c0.46-0.051,0.926-0.077,1.395-0.077c2.808,0,5.461,0.919,7.675,2.656
			c4.914,3.865,6.196,10.819,2.982,16.178c-0.026,0.045-0.056,0.089-0.086,0.131c-0.039,0.081-0.083,0.16-0.134,0.236
			c-0.262,0.395-4.41,5.835-4.446,5.882c-0.227,0.287-0.457,0.552-0.697,0.809l-16.131,20.733l10.245-7.958
			c0.13-0.101,0.271-0.185,0.419-0.25c2.126-1.528,4.622-2.334,7.25-2.334c3.877,0,7.462,1.754,9.837,4.811
			c2.04,2.627,2.935,5.89,2.521,9.189c-0.414,3.3-2.089,6.24-4.715,8.278c-0.278,0.218-0.569,0.419-0.866,0.611l-41.279,32.062
			c-0.625,0.558-1.161,1.008-1.681,1.413c-5.84,4.533-12.909,6.849-20.274,6.625c-2.765,0.208-7.903,1.723-11.016,4.503
			l-48.36,62.797l84.788,64.882l32.409-42.605c0.321-0.422,0.797-0.699,1.322-0.771c0.525-0.071,1.059,0.069,1.48,0.39
			l44.107,33.554c0.879,0.669,1.05,1.924,0.381,2.803l-32.496,42.718l37.08,28.334c0.856,0.654,1.041,1.869,0.416,2.748
			l-42.321,59.521c-0.314,0.442-0.796,0.738-1.333,0.818C983.722,677.085,983.622,677.092,983.523,677.092z M906.486,291.919
			l-19.772,25.478l-26.173,33.32c-0.031,0.04-0.064,0.079-0.099,0.117c-3.218,3.508-4.93,8.265-4.698,13.052
			c0.003,0.068,0.003,0.136,0,0.205c-0.351,6.491-2.611,12.445-3.061,13.573c-0.07,0.174-0.167,0.348-0.283,0.497l-74.221,95.497
			c-11.066,14.245-8.483,34.838,5.757,45.904c0.494,0.385,1.036,0.775,1.657,1.195c0.034,0.023,0.067,0.046,0.099,0.071
			l197.403,151.416l40-56.256l-37.13-28.373c-0.877-0.669-1.046-1.922-0.378-2.8l32.493-42.714l-40.924-31.132l-32.413,42.611
			c-0.322,0.423-0.799,0.701-1.327,0.771c-0.529,0.072-1.061-0.071-1.482-0.396l-1.062-0.814l-86.91-66.506
			c-0.422-0.323-0.698-0.801-0.768-1.328s0.074-1.06,0.398-1.481l49.693-64.528c0.069-0.09,0.146-0.174,0.23-0.252
			c3.624-3.333,9.75-5.408,13.674-5.667c0.065-0.004,0.129-0.006,0.197-0.003c6.461,0.21,12.671-1.806,17.794-5.783
			c0.459-0.357,0.942-0.765,1.52-1.282c0.035-0.031,0.07-0.061,0.107-0.089l41.404-32.159c0.048-0.037,0.097-0.072,0.147-0.104
			c0.218-0.139,0.433-0.284,0.642-0.448c1.79-1.389,2.926-3.384,3.207-5.623c0.281-2.239-0.326-4.455-1.711-6.237
			c-1.611-2.075-4.045-3.265-6.678-3.265c-1.889,0-3.679,0.614-5.175,1.776c-0.11,0.085-0.232,0.163-0.354,0.223
			c-0.014,0.007-0.028,0.014-0.042,0.021l-21.127,16.412c-0.501,0.389-1.157,0.519-1.769,0.346
			c-0.611-0.172-1.104-0.623-1.329-1.216l-0.173-0.425c-0.265-0.66-0.159-1.411,0.278-1.972l24.809-31.885
			c0.04-0.052,0.083-0.102,0.128-0.15c0.183-0.191,0.356-0.388,0.522-0.6c0.062-0.079,0.269-0.349,0.56-0.731
			c0.054-0.104,0.116-0.206,0.189-0.302l3.684-4.888c2.115-3.624,1.232-8.288-2.075-10.889c-1.501-1.178-3.3-1.802-5.203-1.802
			c-2.206,0-4.282,0.836-5.861,2.356l-3.816,4.768l-20.852,26.855c-0.669,0.863-1.905,1.029-2.78,0.374
			c-0.429-0.322-0.746-0.829-0.817-1.36c-0.072-0.531,0.038-1.095,0.367-1.519l19.45-25.073c0.041-0.052,0.084-0.103,0.13-0.151
			c0.317-0.388,5.56-7.21,7.533-9.779c0.707-0.919,1.179-1.534,1.226-1.594c1.396-1.777,2.015-3.988,1.745-6.229
			c-0.27-2.241-1.396-4.242-3.17-5.634c-1.397-1.096-3.119-1.676-4.979-1.676c-2.779,0-5.451,1.289-7.147,3.448
			c-0.019,0.024-0.038,0.047-0.058,0.07l-7.951,10.326l-20.052,25.837c-0.327,0.421-0.808,0.694-1.336,0.759
			c-0.53,0.063-1.062-0.084-1.48-0.414c-0.864-0.68-1.086-1.983-0.412-2.852l19.45-25.071c0.043-0.056,0.09-0.11,0.139-0.161
			c0.265-0.316,3.271-4.218,4.26-5.5l0.544-0.706c1.399-1.781,2.02-3.992,1.75-6.232s-1.395-4.241-3.171-5.635
			c-1.499-1.178-3.296-1.8-5.196-1.8c-2.393,0-4.675,1.013-6.273,2.783l-4.321,5.518l-20.452,26.348
			c-0.668,0.86-1.902,1.029-2.777,0.376c-0.43-0.321-0.749-0.829-0.821-1.36c-0.072-0.532,0.037-1.097,0.366-1.521l19.452-25.071
			c0.041-0.053,0.084-0.103,0.13-0.152c0.183-0.192,0.359-0.391,0.528-0.604c2.869-3.655,2.229-8.977-1.433-11.854
			c-1.503-1.18-3.306-1.805-5.212-1.805c-2.585,0-4.983,1.15-6.595,3.157C906.748,291.674,906.624,291.806,906.486,291.919z"/>
	</g>
	<g>
		<path fill="#FFFFFF" d="M1067.897,645.432l17.518,13.391l3.909,2.988c-4.522,5.918-12.983,7.049-18.903,2.525
			c-0.581-0.445-1.104-0.939-1.593-1.455l-0.543,0.133c0.932,6.741-3.354,13.239-10.106,14.917
			c-6.787,1.687-13.648-2.094-15.948-8.541l-0.072,0.019c0.939,6.778-3.396,13.298-10.188,14.942
			c-6.774,1.64-13.585-2.146-15.872-8.568l-0.132,0.031c0.964,6.795-3.372,13.338-10.178,14.984
			c-6.787,1.644-13.613-2.163-15.888-8.605l-9.414,2.304l-21.901-16.74l51.084-66.83L1067.897,645.432z"/>
	</g>
	<g>
		<path fill="#FFFFFF" d="M899.149,481.425l-9.713-19.794l-2.167-4.419c-6.687,3.28-9.449,11.362-6.168,18.047
			c0.324,0.659,0.707,1.268,1.116,1.849l-0.236,0.505c-6.429-2.229-13.638,0.705-16.602,7c-2.978,6.327-0.613,13.793,5.263,17.31
			l-0.031,0.066c-6.466-2.247-13.707,0.732-16.645,7.073c-2.93,6.322-0.547,13.743,5.303,17.239l-0.056,0.122
			c-6.475-2.271-13.738,0.705-16.683,7.061c-2.936,6.333-0.536,13.771,5.339,17.26c-2.235,4.788-4.931,8.338-3.477,13.863
			c1.335,5.076,5.142,5.309,7.713,9.459c1.528,2.467,6.57,2.23,7.926,4.841c24.367-12.229,44.86-18.664,69.34-30.675
			c0.103-0.05,2.059-1.01,2.059-1.01C931.425,547.212,899.149,481.425,899.149,481.425z"/>
	</g>
	<g>
		<g>
			<g id="XMLID_3_">
				<path fill="#FFD829" d="M982.335,411.262c0.868,0.661,1.684,1.368,2.455,2.104c28.56-21.208,68.769-22.008,98.499,0.607
					c29.731,22.617,39.688,61.582,26.872,94.764c0.915,0.546,1.816,1.143,2.684,1.805c12.514,9.518,14.938,27.38,5.422,39.894
					c-9.52,12.514-27.38,14.939-39.894,5.422c-1.907-1.452-3.576-3.096-5.01-4.886c-27.561,15.24-62.676,13.805-89.354-6.489
					c-26.677-20.293-37.431-53.75-30.103-84.383c-2.106-0.904-4.138-2.071-6.044-3.523c-12.514-9.519-14.939-27.379-5.421-39.894
					C951.96,404.172,969.822,401.744,982.335,411.262z"/>
				<path d="M1095.588,563.67c-6.704,0-13.075-2.15-18.426-6.22c-1.549-1.18-2.981-2.503-4.275-3.947
					c-12.062,6.361-25.615,9.717-39.308,9.717c-18.477,0-36.036-5.929-50.78-17.145c-26.04-19.809-38.177-52.957-31.203-84.84
					c-1.744-0.864-3.401-1.892-4.944-3.066c-13.37-10.169-15.973-29.323-5.802-42.696c5.812-7.641,14.659-12.022,24.271-12.022
					c6.705,0,13.076,2.15,18.425,6.219c0.462,0.352,0.924,0.727,1.383,1.123c14.112-10.043,31.369-15.556,48.786-15.556
					c18.479,0,36.039,5.929,50.785,17.146c29.15,22.175,40.568,61.25,28.105,95.534c0.507,0.339,0.989,0.683,1.453,1.038
					c13.367,10.167,15.971,29.32,5.8,42.694C1114.046,559.288,1105.2,563.67,1095.588,563.67z M1073.87,548.406l1.055,1.316
					c1.356,1.694,2.925,3.224,4.66,4.545c4.646,3.534,10.181,5.402,16.003,5.402c8.352,0,16.038-3.807,21.087-10.444
					c8.835-11.618,6.574-28.256-5.041-37.091c-0.759-0.58-1.575-1.129-2.498-1.68l-1.448-0.865l0.608-1.573
					c12.743-32.998,1.963-71.015-26.218-92.452c-14.043-10.683-30.767-16.329-48.363-16.329c-17.115,0-34.067,5.588-47.732,15.735
					l-1.354,1.005l-1.22-1.164c-0.755-0.72-1.523-1.379-2.286-1.96c-4.646-3.534-10.18-5.402-16.002-5.402
					c-8.352,0-16.039,3.807-21.088,10.444c-8.836,11.617-6.575,28.256,5.041,37.091c1.727,1.314,3.618,2.417,5.622,3.277
					l1.549,0.665l-0.392,1.639c-7.375,30.829,4.152,63.144,29.368,82.326c14.042,10.682,30.764,16.328,48.358,16.328
					c13.566,0,26.989-3.457,38.816-9.997L1073.87,548.406z"/>
			</g>
			<g>
				<line fill="#FFD829" x1="1111.648" y1="535.94" x2="1086.261" y2="540.474"/>
				<path d="M1086.259,542.474c-0.951,0-1.794-0.68-1.967-1.648c-0.194-1.087,0.53-2.126,1.617-2.32l25.388-4.533
					c1.094-0.195,2.126,0.531,2.32,1.617c0.194,1.087-0.53,2.126-1.617,2.32l-25.388,4.533
					C1086.493,542.464,1086.375,542.474,1086.259,542.474z"/>
			</g>
			<g>
				<line fill="#FFD829" x1="960.889" y1="421.254" x2="963.295" y2="446.932"/>
				<path d="M963.293,448.932c-1.021,0-1.893-0.777-1.989-1.813l-2.406-25.678c-0.103-1.1,0.705-2.075,1.805-2.178
					c1.099-0.103,2.075,0.704,2.178,1.805l2.405,25.678c0.104,1.1-0.705,2.075-1.805,2.178
					C963.418,448.929,963.354,448.932,963.293,448.932z"/>
			</g>
		</g>
		<g>
			<g>
				<path d="M1048.874,501.745c-3.62,4.754-2.693,11.543,2.06,15.158c4.755,3.618,11.543,2.696,15.158-2.057
					c3.616-4.757,2.693-11.544-2.062-15.161C1059.277,496.069,1052.49,496.99,1048.874,501.745z"/>
			</g>
			<g>
				<path d="M1072.64,524.74c-0.033,0-0.066-0.001-0.1-0.002c-1.104-0.054-1.954-0.992-1.9-2.095
					c0.392-7.979-3.165-15.625-9.513-20.454c-6.344-4.827-14.662-6.216-22.252-3.712c-1.052,0.344-2.18-0.225-2.525-1.273
					c-0.346-1.049,0.224-2.18,1.273-2.526c8.841-2.914,18.534-1.297,25.926,4.328c7.397,5.628,11.542,14.537,11.087,23.833
					C1074.583,523.908,1073.699,524.74,1072.64,524.74z"/>
			</g>
		</g>
		<g>
			<g>
				<circle cx="1001.292" cy="465.549" r="10.818"/>
			</g>
			<g>
				<path d="M1016.451,481.995c-0.033,0-0.066-0.001-0.1-0.002c-1.104-0.054-1.954-0.992-1.9-2.095
					c0.39-7.98-3.167-15.627-9.515-20.455c-6.347-4.828-14.663-6.213-22.251-3.709c-1.048,0.348-2.179-0.223-2.526-1.271
					c-0.346-1.049,0.224-2.18,1.272-2.526c8.835-2.92,18.528-1.303,25.927,4.324c7.396,5.626,11.542,14.536,11.089,23.834
					C1018.395,481.162,1017.511,481.995,1016.451,481.995z"/>
			</g>
		</g>
		<g>
			<line fill="#FFD829" x1="1029.523" y1="486.497" x2="1019.247" y2="499.102"/>
			<path d="M1019.246,501.102c-0.444,0-0.892-0.147-1.263-0.45c-0.856-0.698-0.984-1.958-0.286-2.814l10.276-12.605
				c0.697-0.856,1.959-0.982,2.813-0.287c0.856,0.698,0.984,1.958,0.286,2.814l-10.276,12.605
				C1020.402,500.851,1019.826,501.102,1019.246,501.102z"/>
		</g>
		<g>
			<path fill="#FFFFFF" d="M991.711,489.533c-9.265,12.179-6.902,29.562,5.278,38.828c12.176,9.265,29.562,6.905,38.827-5.275
				L991.711,489.533z"/>
		</g>
		<g>
			<path d="M983.064,414.376l0.678-0.891c13.794-10.343,30.937-16.462,49.504-16.442c45.538,0.054,82.412,37.013,82.358,82.55
				c-0.009,8.605-1.339,16.899-3.793,24.694l-3.867,5.085L983.064,414.376z"/>
		</g>
	</g>
	<g>
		<path fill="#FFFFFF" d="M781.877,713.397c17.795,0,17.795,17.012,35.591,17.012c17.795,0,17.795-17.012,35.591-17.012
			s17.796,17.012,35.593,17.012s17.797-17.012,35.593-17.012c16.347,0,17.689,14.343,31.59,16.681l36.415-47.642L857.395,579.355
			l-114.052,149.21l2.39,1.827c0.187,0.004,0.364,0.017,0.555,0.017C764.083,730.409,764.083,713.397,781.877,713.397z"/>
	</g>
	<g>
		<path fill="#FFFFFF" d="M939.116,546.923c-11.455,14.983-8.592,36.417,6.393,47.871c14.984,11.453,36.417,8.591,47.87-6.395
			l33.376,25.511l-51.572,67.469L852.729,587.78l51.57-67.469L939.116,546.923z"/>
	</g>
	<g>
		<circle fill="#FFFFFF" cx="860.07" cy="563.35" r="16.772"/>
	</g>
	<g>
		<g>
			<g>
				<g>
					<path fill="#FFFFFF" d="M1113.93,499.88c-4.382,0-7.934-3.553-7.934-7.934V432.85c0-4.382,3.552-7.934,7.934-7.934
						c4.383,0,7.934,3.552,7.934,7.934v59.096C1121.863,496.327,1118.312,499.88,1113.93,499.88z"/>
				</g>
			</g>
			<g>
				<g>
					<path fill="#FFFFFF" d="M1093.042,491.227c-2.03,0-4.061-0.775-5.609-2.324c-3.1-3.099-3.1-8.122,0-11.22l41.785-41.788
						c3.1-3.099,8.124-3.099,11.222,0c3.099,3.098,3.099,8.122,0,11.22l-41.786,41.788
						C1097.104,490.452,1095.072,491.227,1093.042,491.227z"/>
				</g>
			</g>
			<g>
				<g>
					<path fill="#FFFFFF" d="M1143.482,470.329h-59.098c-4.382,0-7.934-3.553-7.934-7.934c0-4.382,3.552-7.934,7.934-7.934h59.098
						c4.383,0,7.934,3.552,7.934,7.934C1151.416,466.776,1147.865,470.329,1143.482,470.329z"/>
				</g>
			</g>
			<g>
				<g>
					<path fill="#FFFFFF" d="M1134.831,491.227c-2.03,0-4.061-0.774-5.609-2.324l-41.789-41.79c-3.1-3.099-3.1-8.122,0-11.22
						c3.099-3.098,8.122-3.099,11.221,0l41.789,41.79c3.098,3.098,3.098,8.122,0,11.22
						C1138.893,490.452,1136.861,491.227,1134.831,491.227z"/>
				</g>
			</g>
		</g>
	</g>
	<g>
		<g>
			<path fill="#FFD829" d="M568.338,713.397c6.64,0,10.802,2.37,14.335,5.34v-73.484h-70.714v73.88
				c5.696,4.939,9.93,11.276,20.792,11.276C550.544,730.409,550.544,713.397,568.338,713.397z"/>
		</g>
		<g>
			<path fill="#FFD829" d="M511.958,645.253v73.88"/>
			<path d="M511.958,721.133c-1.104,0-2-0.896-2-2v-73.88c0-1.104,0.896-2,2-2s2,0.896,2,2v73.88
				C513.958,720.237,513.063,721.133,511.958,721.133z"/>
		</g>
		<g>
			<path fill="#FFD829" d="M582.673,718.737v-73.484"/>
			<path d="M582.673,720.737c-1.104,0-2-0.896-2-2v-73.484c0-1.104,0.896-2,2-2s2,0.896,2,2v73.484
				C584.673,719.842,583.777,720.737,582.673,720.737z"/>
		</g>
		<g>
			<path fill="#FFD829" d="M502.051,675.092l-199.05-152.678c-0.6-0.404-1.19-0.825-1.766-1.274
				c-15.139-11.764-17.87-33.571-6.109-48.711l74.221-95.497c0.122-0.304,2.572-6.397,2.927-12.95
				c-0.255-5.227,1.538-10.486,5.221-14.5l11.624-14.799l14.541-18.512l20.046-25.828l0.041,0.029
				c0.001-0.001,0.001-0.007,0.004-0.009c3.564-4.536,10.133-5.326,14.672-1.762c4.537,3.564,5.326,10.131,1.764,14.669
				c-0.205,0.26-0.422,0.503-0.644,0.738L420.09,329.08l0.071,0.053l20.457-26.354l4.363-5.57c3.639-4.088,9.876-4.698,14.239-1.271
				c4.541,3.564,5.328,10.132,1.762,14.671c-0.204,0.26-4.716,6.127-4.939,6.362l-19.452,25.071l0.07,0.054l20.048-25.831
				l8.276-10.75l-0.257,0.338c3.564-4.536,10.396-5.671,14.936-2.109c4.539,3.562,5.327,10.131,1.764,14.668
				c-0.205,0.262-8.661,11.285-8.884,11.519l-19.45,25.073l0.069,0.053l20.869-26.878l3.895-4.864
				c3.688-3.646,9.595-4.069,13.784-0.781c4.183,3.288,5.17,9.128,2.503,13.576l-3.75,4.977l3.575-4.683
				c-0.178,0.273-4.146,5.49-4.351,5.752c-0.205,0.26-0.42,0.503-0.641,0.738l-24.81,31.885c0.062,0.155,0.128,0.307,0.187,0.46
				l21.482-16.688l0.029,0.042c0.004-0.002,0.009-0.005,0.012-0.009c4.556-3.539,11.122-2.713,14.659,1.841
				c3.539,4.558,2.716,11.123-1.843,14.66c-0.26,0.204-0.527,0.385-0.797,0.558l-41.404,32.159
				c-0.524,0.471-1.062,0.932-1.628,1.372c-5.669,4.401-12.434,6.417-19.085,6.202c-3.186,0.21-8.964,1.937-12.45,5.144
				l-49.693,64.528l86.912,66.507l1.061,0.814l33.624-44.203l44.107,33.554l-33.703,44.306l38.664,29.546L502.051,675.092z"/>
			<path d="M502.051,677.092c-0.438,0-0.866-0.144-1.217-0.413L301.832,524.038c-0.671-0.454-1.269-0.886-1.826-1.319
				c-15.981-12.418-18.879-35.528-6.459-51.516l74.043-95.268c0.5-1.305,2.365-6.481,2.681-11.961
				c-0.253-5.784,1.819-11.526,5.697-15.785l26.119-33.252l20.039-25.819c0.102-0.131,0.217-0.246,0.341-0.345
				c2.372-2.804,5.811-4.403,9.508-4.403c2.812,0,5.468,0.919,7.683,2.659c2.621,2.059,4.191,4.968,4.627,8.033
				c2.293-2.142,5.333-3.351,8.503-3.351c2.805,0,5.457,0.918,7.667,2.654c2.602,2.042,4.257,4.972,4.665,8.252
				c2.32-1.895,5.281-2.976,8.328-2.976c2.765,0,5.341,0.875,7.449,2.529c2.616,2.052,4.275,5.001,4.672,8.303
				c0.334,2.787-0.263,5.542-1.693,7.906c0.46-0.051,0.926-0.077,1.395-0.077c2.807,0,5.46,0.919,7.674,2.656
				c4.916,3.863,6.198,10.818,2.983,16.178c-0.028,0.046-0.058,0.092-0.089,0.136c-0.037,0.076-0.079,0.149-0.125,0.222
				c-0.261,0.4-4.41,5.84-4.448,5.888c-0.229,0.29-0.459,0.554-0.696,0.809l-16.135,20.736l10.244-7.958
				c0.131-0.101,0.272-0.185,0.421-0.25c2.125-1.528,4.621-2.334,7.249-2.334c3.877,0,7.463,1.754,9.838,4.812
				c2.039,2.627,2.934,5.89,2.52,9.188c-0.415,3.3-2.089,6.24-4.716,8.278c-0.279,0.219-0.57,0.419-0.865,0.611l-41.279,32.062
				c-0.617,0.552-1.153,1.002-1.684,1.415c-5.837,4.532-12.905,6.854-20.272,6.625c-2.764,0.208-7.902,1.723-11.014,4.503
				l-48.36,62.798l84.788,64.882l32.408-42.605c0.321-0.422,0.797-0.699,1.322-0.771c0.529-0.071,1.059,0.07,1.48,0.39
				l44.107,33.554c0.879,0.669,1.05,1.924,0.381,2.803l-32.495,42.718l37.078,28.334c0.856,0.654,1.04,1.869,0.416,2.748
				l-42.319,59.521c-0.314,0.442-0.795,0.738-1.333,0.818C502.25,677.085,502.15,677.092,502.051,677.092z M425.014,291.918
				l-19.774,25.479l-26.172,33.32c-0.031,0.04-0.064,0.079-0.099,0.117c-3.218,3.508-4.931,8.265-4.697,13.051
				c0.003,0.069,0.003,0.137,0,0.206c-0.353,6.513-2.615,12.454-3.064,13.579c-0.069,0.174-0.166,0.343-0.28,0.491l-74.221,95.497
				c-11.067,14.246-8.484,34.838,5.757,45.904c0.5,0.39,1.042,0.78,1.657,1.195c0.034,0.023,0.067,0.046,0.099,0.071
				l197.404,151.416l39.998-56.256l-37.128-28.373c-0.876-0.669-1.045-1.922-0.377-2.8l32.492-42.714l-40.924-31.132l-32.413,42.611
				c-0.322,0.424-0.8,0.701-1.327,0.771c-0.527,0.072-1.061-0.071-1.483-0.396l-1.061-0.814l-86.909-66.505
				c-0.422-0.323-0.698-0.801-0.768-1.328s0.074-1.06,0.398-1.481l49.693-64.528c0.069-0.09,0.146-0.174,0.23-0.251
				c3.624-3.334,9.749-5.408,13.672-5.667c0.065-0.004,0.13-0.006,0.196-0.003c6.457,0.207,12.672-1.806,17.794-5.783
				c0.469-0.365,0.952-0.771,1.519-1.28c0.035-0.032,0.072-0.062,0.109-0.091l41.404-32.159c0.047-0.037,0.096-0.071,0.146-0.104
				c0.218-0.14,0.435-0.286,0.645-0.45c1.789-1.388,2.925-3.382,3.206-5.621c0.281-2.239-0.326-4.455-1.71-6.237
				c-1.611-2.075-4.046-3.265-6.679-3.265c-1.889,0-3.678,0.614-5.174,1.776v0c-0.108,0.084-0.226,0.159-0.345,0.219
				c-0.018,0.008-0.035,0.017-0.052,0.025l-21.127,16.412c-0.5,0.39-1.158,0.52-1.769,0.346c-0.611-0.172-1.104-0.623-1.329-1.216
				l-0.171-0.42c-0.267-0.661-0.162-1.415,0.276-1.977l24.81-31.885c0.039-0.049,0.079-0.097,0.122-0.142
				c0.182-0.194,0.359-0.394,0.528-0.608c0.046-0.06,0.257-0.336,0.563-0.737c0.052-0.102,0.114-0.202,0.186-0.296l3.683-4.888
				c2.116-3.624,1.233-8.289-2.075-10.889c-1.501-1.178-3.301-1.802-5.203-1.802c-2.206,0-4.282,0.836-5.86,2.356l-3.818,4.768
				l-20.851,26.855c-0.673,0.867-1.917,1.029-2.791,0.365c-0.425-0.323-0.737-0.829-0.807-1.358
				c-0.069-0.529,0.041-1.09,0.368-1.512l19.45-25.073c0.023-0.03,0.048-0.06,0.074-0.089c0.458-0.559,5.723-7.412,7.713-10.003
				c0.636-0.828,1.056-1.375,1.1-1.431c1.397-1.779,2.017-3.99,1.747-6.231c-0.269-2.24-1.395-4.241-3.169-5.634
				c-1.397-1.096-3.119-1.676-4.98-1.676c-2.779,0-5.452,1.289-7.148,3.448c-0.018,0.021-0.035,0.043-0.053,0.064l-7.954,10.332
				l-20.053,25.837c-0.325,0.419-0.804,0.692-1.33,0.758c-0.528,0.066-1.057-0.08-1.476-0.404c-0.873-0.677-1.101-1.988-0.424-2.86
				l19.452-25.071c0.041-0.053,0.085-0.104,0.132-0.153c0.251-0.301,3.069-3.956,4.13-5.332l0.684-0.886
				c1.396-1.777,2.016-3.988,1.747-6.229c-0.269-2.24-1.395-4.242-3.17-5.635c-1.5-1.178-3.296-1.8-5.197-1.8
				c-2.393,0-4.676,1.014-6.273,2.783l-4.322,5.519l-20.452,26.348c-0.668,0.86-1.902,1.029-2.777,0.376
				c-0.43-0.321-0.749-0.829-0.821-1.36c-0.072-0.532,0.037-1.097,0.366-1.521l19.453-25.071c0.039-0.05,0.081-0.099,0.124-0.145
				c0.182-0.193,0.361-0.393,0.53-0.606c2.872-3.659,2.231-8.98-1.43-11.857c-1.503-1.18-3.305-1.805-5.212-1.805
				c-2.586,0-4.986,1.152-6.599,3.163C425.272,291.677,425.15,291.807,425.014,291.918z"/>
		</g>
		<g>
			<path fill="#FFFFFF" d="M586.425,645.432l17.517,13.391l3.912,2.988c-4.523,5.918-12.987,7.049-18.905,2.525
				c-0.583-0.445-1.105-0.939-1.595-1.455l-0.542,0.133c0.932,6.741-3.353,13.239-10.107,14.917
				c-6.786,1.687-13.647-2.094-15.948-8.541l-0.073,0.019c0.941,6.778-3.393,13.298-10.188,14.942
				c-6.771,1.64-13.584-2.146-15.871-8.568l-0.131,0.031c0.963,6.795-3.373,13.338-10.18,14.984
				c-6.786,1.644-13.613-2.163-15.886-8.605l-9.415,2.304l-21.9-16.74l51.083-66.83L586.425,645.432z"/>
		</g>
		<g>
			<path fill="#FFFFFF" d="M417.676,481.425l-9.712-19.794l-2.168-4.419c-6.686,3.28-9.448,11.362-6.167,18.047
				c0.324,0.659,0.706,1.268,1.116,1.849l-0.236,0.505c-6.43-2.229-13.638,0.705-16.603,7c-2.979,6.327-0.613,13.793,5.263,17.31
				l-0.032,0.066c-6.465-2.247-13.707,0.732-16.645,7.073c-2.93,6.322-0.546,13.743,5.305,17.239l-0.058,0.122
				c-6.474-2.271-13.738,0.705-16.683,7.061c-2.936,6.333-0.536,13.771,5.34,17.26c-2.234,4.788-4.931,8.338-3.477,13.863
				c1.336,5.076,5.141,5.309,7.712,9.459c1.528,2.467,6.569,2.23,7.926,4.841c24.368-12.229,44.86-18.664,69.341-30.675
				c0.103-0.05,2.06-1.01,2.06-1.01C449.953,547.212,417.676,481.425,417.676,481.425z"/>
		</g>
		<g>
			<g>
				<g id="XMLID_2_">
					<path fill="#FFD829" d="M500.862,411.262c0.869,0.661,1.685,1.368,2.455,2.104c28.559-21.208,68.769-22.008,98.499,0.607
						c29.731,22.617,39.689,61.582,26.873,94.764c0.917,0.546,1.815,1.143,2.684,1.805c12.514,9.518,14.94,27.38,5.422,39.894
						c-9.52,12.514-27.381,14.939-39.895,5.422c-1.907-1.452-3.575-3.096-5.009-4.886c-27.561,15.24-62.675,13.805-89.354-6.489
						c-26.677-20.293-37.432-53.75-30.103-84.383c-2.107-0.904-4.137-2.071-6.044-3.523c-12.514-9.519-14.941-27.379-5.421-39.894
						C470.488,404.172,488.349,401.744,500.862,411.262z"/>
					<path d="M614.115,563.67c-6.705,0-13.076-2.15-18.426-6.22c-1.548-1.179-2.98-2.502-4.275-3.947
						c-12.061,6.361-25.615,9.717-39.307,9.717c-18.477,0-36.037-5.929-50.781-17.145c-26.041-19.809-38.178-52.958-31.203-84.84
						c-1.743-0.863-3.4-1.891-4.944-3.066c-6.477-4.926-10.648-12.081-11.744-20.146c-1.096-8.064,1.015-16.073,5.942-22.55
						c5.812-7.641,14.659-12.022,24.271-12.022c6.704,0,13.075,2.15,18.425,6.219c0.462,0.352,0.925,0.727,1.384,1.123
						c14.111-10.043,31.368-15.556,48.785-15.556c18.479,0,36.039,5.929,50.785,17.146c29.151,22.176,40.569,61.25,28.105,95.534
						c0.503,0.336,0.985,0.68,1.453,1.037c13.369,10.168,15.973,29.322,5.801,42.695C632.574,559.288,623.727,563.67,614.115,563.67
						z M592.398,548.407l1.054,1.314c1.358,1.695,2.926,3.225,4.66,4.546c4.646,3.534,10.181,5.402,16.003,5.402
						c8.352,0,16.038-3.807,21.087-10.444c8.836-11.617,6.574-28.256-5.042-37.091c-0.77-0.587-1.586-1.136-2.497-1.679l-1.45-0.864
						l0.608-1.574c12.745-32.997,1.964-71.014-26.218-92.452c-14.043-10.683-30.767-16.329-48.363-16.329
						c-17.116,0-34.067,5.588-47.732,15.735l-1.354,1.006l-1.22-1.166c-0.75-0.717-1.52-1.376-2.285-1.959
						c-4.646-3.534-10.18-5.402-16.002-5.402c-8.352,0-16.038,3.807-21.087,10.444c-4.281,5.627-6.114,12.584-5.163,19.59
						c0.952,7.005,4.575,13.221,10.203,17.501c1.728,1.315,3.619,2.417,5.622,3.277l1.549,0.664l-0.392,1.639
						c-7.376,30.829,4.151,63.144,29.368,82.326c14.042,10.682,30.765,16.328,48.359,16.328c13.566,0,26.988-3.457,38.815-9.997
						L592.398,548.407z"/>
				</g>
				<g>
					<line fill="#FFD829" x1="630.176" y1="535.94" x2="604.789" y2="540.474"/>
					<path d="M604.786,542.474c-0.951,0-1.793-0.68-1.966-1.648c-0.194-1.087,0.53-2.126,1.617-2.32l25.387-4.533
						c1.089-0.195,2.126,0.53,2.32,1.617c0.194,1.087-0.53,2.126-1.617,2.32l-25.387,4.533
						C605.021,542.464,604.903,542.474,604.786,542.474z"/>
				</g>
				<g>
					<line fill="#FFD829" x1="479.416" y1="421.254" x2="481.822" y2="446.932"/>
					<path d="M481.82,448.932c-1.021,0-1.892-0.777-1.989-1.813l-2.406-25.678c-0.103-1.1,0.705-2.075,1.805-2.178
						c1.099-0.103,2.074,0.704,2.178,1.805l2.406,25.678c0.103,1.1-0.705,2.075-1.805,2.178
						C481.945,448.929,481.882,448.932,481.82,448.932z"/>
				</g>
			</g>
			<g>
				<g>
					<path d="M567.4,501.745c-3.617,4.754-2.693,11.543,2.06,15.158c4.755,3.618,11.543,2.696,15.16-2.057
						c3.617-4.757,2.692-11.544-2.062-15.161C577.804,496.069,571.018,496.99,567.4,501.745z"/>
				</g>
				<g>
					<path d="M591.167,524.74c-0.033,0-0.066-0.001-0.099-0.002c-1.103-0.054-1.954-0.992-1.9-2.095
						c0.39-7.979-3.167-15.625-9.513-20.454c-6.344-4.827-14.663-6.214-22.251-3.712c-1.051,0.346-2.18-0.224-2.526-1.273
						c-0.346-1.049,0.224-2.18,1.273-2.526c8.842-2.914,18.534-1.297,25.926,4.328c7.396,5.627,11.541,14.537,11.086,23.833
						C593.111,523.908,592.228,524.74,591.167,524.74z"/>
				</g>
			</g>
			<g>
				<g>
					<circle cx="519.819" cy="465.549" r="10.818"/>
				</g>
				<g>
					<path d="M534.976,481.995c-0.033,0-0.066-0.001-0.099-0.002c-1.103-0.054-1.954-0.992-1.9-2.095
						c0.39-7.98-3.166-15.627-9.513-20.455c-6.348-4.828-14.667-6.214-22.25-3.709c-1.047,0.349-2.18-0.223-2.526-1.271
						c-0.347-1.049,0.223-2.18,1.271-2.526c8.838-2.919,18.529-1.302,25.926,4.324c7.397,5.627,11.542,14.537,11.087,23.834
						C536.92,481.162,536.036,481.995,534.976,481.995z"/>
				</g>
			</g>
			<g>
				<line fill="#FFD829" x1="547.312" y1="486.566" x2="537.775" y2="499.102"/>
				<path d="M537.773,501.102c-0.422,0-0.848-0.133-1.209-0.408c-0.879-0.669-1.05-1.924-0.381-2.803l9.537-12.536
					c0.669-0.878,1.923-1.051,2.803-0.381c0.879,0.669,1.05,1.924,0.381,2.803l-9.537,12.536
					C538.973,500.83,538.377,501.102,537.773,501.102z"/>
			</g>
			<g>
				<path fill="#FFFFFF" d="M510.238,489.533c-9.265,12.179-6.902,29.562,5.277,38.828c12.179,9.265,29.564,6.905,38.829-5.275
					L510.238,489.533z"/>
			</g>
			<g>
				<path d="M501.592,414.376l0.678-0.891c13.794-10.343,30.936-16.462,49.503-16.442c45.539,0.054,82.412,37.013,82.359,82.55
					c-0.009,8.605-1.339,16.899-3.793,24.694l-3.867,5.085L501.592,414.376z"/>
			</g>
		</g>
		<g>
			<path fill="#FFFFFF" d="M457.643,546.923c-11.455,14.983-8.592,36.417,6.393,47.871c14.985,11.453,36.417,8.591,47.871-6.395
				l33.374,25.511l-51.571,67.469L371.257,587.78l51.571-67.469L457.643,546.923z"/>
		</g>
		<g>
			<circle fill="#FFFFFF" cx="378.598" cy="563.35" r="16.773"/>
		</g>
		<g>
			<g>
				<g>
					<g>
						<path fill="#FFFFFF" d="M634.72,499.88c-4.381,0-7.934-3.553-7.934-7.934V432.85c0-4.382,3.553-7.934,7.934-7.934
							c4.382,0,7.934,3.552,7.934,7.934v59.096C642.654,496.327,639.102,499.88,634.72,499.88z"/>
					</g>
				</g>
				<g>
					<g>
						<path fill="#FFFFFF" d="M613.833,491.227c-2.031,0-4.061-0.774-5.61-2.323c-3.098-3.099-3.099-8.122,0-11.221l41.786-41.788
							c3.098-3.099,8.122-3.099,11.22,0c3.099,3.099,3.099,8.122,0,11.221l-41.786,41.788
							C617.894,490.452,615.863,491.227,613.833,491.227z"/>
					</g>
				</g>
				<g>
					<g>
						<path fill="#FFFFFF" d="M664.272,470.329h-59.098c-4.382,0-7.934-3.553-7.934-7.934c0-4.382,3.552-7.934,7.934-7.934h59.098
							c4.382,0,7.934,3.552,7.934,7.934C672.206,466.776,668.654,470.329,664.272,470.329z"/>
					</g>
				</g>
				<g>
					<g>
						<path fill="#FFFFFF" d="M655.621,491.227c-2.031,0-4.061-0.774-5.61-2.324l-41.788-41.79c-3.099-3.099-3.098-8.122,0-11.22
							c3.098-3.099,8.122-3.099,11.22,0l41.788,41.79c3.099,3.098,3.099,8.122,0,11.22
							C659.682,490.452,657.65,491.227,655.621,491.227z"/>
					</g>
				</g>
			</g>
		</g>
		<g>
			<g>
				<path fill="#FFFFFF" d="M319.219,730.409c17.795,0,17.795-17.012,35.59-17.012c17.795,0,17.795,17.012,35.591,17.012
					c17.793,0,17.793-17.012,35.587-17.012c17.795,0,17.795,17.012,35.59,17.012c11.487,0,15.562-7.087,21.792-12.112l27.411-35.86
					L375.922,579.355L269.531,718.544c3.484-2.878,7.605-5.146,14.1-5.146C301.425,713.397,301.425,730.409,319.219,730.409z"/>
			</g>
		</g>
	</g>
	<g>
		<path fill="#FFFFFF" d="M1173.402,732.88c-9.702,0-14.738-4.813-19.182-9.06c-4.278-4.09-8.32-7.952-16.418-7.952
			c-8.096,0-12.136,3.862-16.414,7.951c-4.442,4.247-9.479,9.061-19.18,9.061s-14.737-4.813-19.18-9.061
			c-4.278-4.089-8.318-7.951-16.415-7.951s-12.138,3.862-16.416,7.952c-4.442,4.246-9.478,9.06-19.178,9.06
			s-14.735-4.813-19.178-9.06c-4.278-4.09-8.318-7.952-16.415-7.952c-8.095,0-12.135,3.862-16.412,7.951
			c-4.442,4.247-9.477,9.061-19.177,9.061c-9.701,0-14.736-4.813-19.179-9.061c-4.278-4.089-8.318-7.951-16.415-7.951
			s-12.137,3.862-16.415,7.951c-4.442,4.247-9.478,9.061-19.179,9.061s-14.736-4.813-19.179-9.061
			c-4.278-4.089-8.318-7.951-16.415-7.951c-8.096,0-12.136,3.862-16.414,7.951c-4.442,4.247-9.478,9.061-19.177,9.061
			s-14.735-4.813-19.177-9.061c-4.278-4.089-8.318-7.951-16.414-7.951c-8.095,0-12.135,3.862-16.413,7.951
			c-4.442,4.247-9.477,9.061-19.177,9.061c-9.7,0-14.735-4.813-19.178-9.061c-4.277-4.089-8.317-7.951-16.413-7.951
			s-12.135,3.862-16.413,7.951c-4.442,4.247-9.478,9.061-19.177,9.061c-9.7,0-14.735-4.813-19.178-9.061
			c-4.278-4.089-8.318-7.951-16.415-7.951c-8.095,0-12.135,3.862-16.412,7.951c-4.442,4.247-9.478,9.061-19.177,9.061
			c-9.699,0-14.733-4.813-19.176-9.061c-4.277-4.089-8.317-7.951-16.411-7.951s-12.134,3.862-16.411,7.951
			c-4.442,4.247-9.477,9.061-19.176,9.061s-14.733-4.813-19.176-9.061c-4.277-4.089-8.316-7.951-16.411-7.951
			c-8.095,0-12.135,3.862-16.412,7.951c-4.442,4.247-9.477,9.061-19.176,9.061c-9.7,0-14.734-4.813-19.177-9.061
			c-4.278-4.089-8.318-7.951-16.414-7.951c-8.094,0-12.134,3.862-16.411,7.951c-4.442,4.247-9.477,9.061-19.176,9.061
			c-9.7,0-14.735-4.813-19.177-9.061c-4.278-4.089-8.318-7.951-16.414-7.951c-8.095,0-12.135,3.862-16.413,7.951
			c-4.442,4.247-9.477,9.061-19.177,9.061c-9.699,0-14.734-4.813-19.177-9.061c-4.277-4.089-8.317-7.951-16.412-7.951
			c-8.096,0-12.136,3.862-16.414,7.951c-4.442,4.247-9.477,9.061-19.177,9.061c-9.699,0-14.734-4.813-19.176-9.06
			c-4.278-4.09-8.318-7.952-16.414-7.952c-1.104,0-2-0.896-2-2s0.896-2,2-2c9.7,0,14.735,4.813,19.178,9.061
			c4.277,4.089,8.317,7.951,16.412,7.951c8.095,0,12.135-3.862,16.413-7.951c4.442-4.247,9.478-9.061,19.177-9.061
			s14.734,4.813,19.176,9.061c4.277,4.089,8.317,7.951,16.413,7.951s12.135-3.862,16.413-7.951
			c4.442-4.247,9.477-9.061,19.177-9.061s14.735,4.813,19.177,9.061c4.278,4.089,8.318,7.951,16.414,7.951
			c8.094,0,12.134-3.862,16.411-7.951c4.442-4.247,9.477-9.061,19.176-9.061c9.7,0,14.735,4.813,19.178,9.061
			c4.277,4.089,8.317,7.951,16.413,7.951c8.094,0,12.134-3.862,16.411-7.951c4.442-4.247,9.477-9.061,19.176-9.061
			c9.699,0,14.733,4.813,19.175,9.061c4.277,4.089,8.317,7.951,16.412,7.951s12.134-3.862,16.411-7.951
			c4.442-4.247,9.477-9.061,19.176-9.061s14.733,4.813,19.176,9.061c4.277,4.089,8.317,7.951,16.411,7.951
			c8.095,0,12.136-3.862,16.413-7.951c4.442-4.247,9.477-9.061,19.176-9.061c9.7,0,14.736,4.813,19.178,9.061
			c4.278,4.089,8.318,7.951,16.414,7.951c8.095,0,12.136-3.862,16.413-7.951c4.442-4.247,9.477-9.061,19.177-9.061
			s14.734,4.813,19.177,9.06c4.278,4.09,8.318,7.952,16.414,7.952c8.095,0,12.135-3.862,16.413-7.951
			c4.442-4.247,9.477-9.061,19.177-9.061s14.735,4.813,19.177,9.061c4.278,4.089,8.318,7.951,16.414,7.951
			c8.095,0,12.136-3.862,16.413-7.951c4.443-4.247,9.478-9.061,19.178-9.061s14.736,4.813,19.178,9.06
			c4.278,4.09,8.319,7.952,16.415,7.952s12.137-3.862,16.415-7.952c4.442-4.246,9.478-9.06,19.178-9.06s14.736,4.813,19.178,9.06
			c4.278,4.09,8.319,7.952,16.415,7.952c8.096,0,12.136-3.862,16.413-7.952c4.441-4.246,9.477-9.06,19.176-9.06
			c9.701,0,14.736,4.813,19.179,9.061c4.278,4.089,8.318,7.951,16.414,7.951s12.136-3.862,16.414-7.951
			c4.442-4.247,9.479-9.061,19.18-9.061c9.7,0,14.736,4.813,19.179,9.06c4.278,4.09,8.319,7.952,16.416,7.952
			s12.138-3.862,16.416-7.952c4.442-4.246,9.478-9.06,19.178-9.06c9.702,0,14.738,4.813,19.182,9.06
			c4.278,4.09,8.32,7.952,16.418,7.952s12.139-3.862,16.417-7.951c4.443-4.247,9.479-9.061,19.182-9.061c1.104,0,2,0.896,2,2
			s-0.896,2-2,2c-8.098,0-12.14,3.862-16.418,7.952C1188.14,728.066,1183.104,732.88,1173.402,732.88z"/>
	</g>
	<g>
		<path fill="#FFFFFF" d="M1173.402,803.77c-9.702,0-14.738-4.813-19.182-9.06c-4.278-4.09-8.32-7.952-16.418-7.952
			c-8.096,0-12.136,3.862-16.414,7.951c-4.442,4.247-9.479,9.061-19.18,9.061c-9.699,0-14.735-4.813-19.178-9.06
			c-4.278-4.09-8.319-7.952-16.417-7.952c-8.097,0-12.138,3.862-16.416,7.952c-4.442,4.246-9.478,9.06-19.178,9.06
			s-14.735-4.813-19.178-9.06c-4.278-4.09-8.318-7.952-16.415-7.952c-8.095,0-12.135,3.862-16.412,7.951
			c-4.442,4.247-9.477,9.061-19.177,9.061c-9.7,0-14.735-4.813-19.178-9.06c-4.278-4.09-8.319-7.952-16.416-7.952
			c-8.096,0-12.137,3.862-16.415,7.952c-4.442,4.246-9.478,9.06-19.178,9.06c-9.701,0-14.736-4.813-19.179-9.061
			c-4.278-4.089-8.318-7.951-16.415-7.951c-8.096,0-12.136,3.862-16.414,7.951c-4.442,4.247-9.478,9.061-19.177,9.061
			c-9.7,0-14.735-4.813-19.178-9.061c-4.278-4.089-8.318-7.951-16.414-7.951c-8.095,0-12.135,3.862-16.413,7.951
			c-4.442,4.247-9.477,9.061-19.177,9.061c-9.7,0-14.735-4.813-19.178-9.061c-4.278-4.089-8.318-7.951-16.414-7.951
			c-8.095,0-12.135,3.862-16.412,7.951c-4.442,4.247-9.478,9.061-19.177,9.061c-9.7,0-14.736-4.813-19.178-9.061
			c-4.278-4.089-8.318-7.951-16.415-7.951c-8.095,0-12.135,3.862-16.412,7.951c-4.442,4.247-9.478,9.061-19.177,9.061
			c-9.699,0-14.733-4.813-19.175-9.061c-4.277-4.089-8.317-7.951-16.412-7.951c-8.094,0-12.134,3.862-16.411,7.951
			c-4.442,4.247-9.477,9.061-19.176,9.061s-14.733-4.813-19.176-9.061c-4.277-4.089-8.316-7.951-16.411-7.951
			c-8.095,0-12.135,3.862-16.412,7.951c-4.442,4.247-9.477,9.061-19.176,9.061c-9.7,0-14.735-4.813-19.177-9.061
			c-4.278-4.089-8.318-7.951-16.413-7.951c-8.095,0-12.135,3.862-16.412,7.951c-4.442,4.247-9.477,9.061-19.176,9.061
			c-9.7,0-14.735-4.813-19.177-9.061c-4.278-4.089-8.318-7.951-16.414-7.951c-8.095,0-12.135,3.862-16.413,7.951
			c-4.442,4.247-9.477,9.061-19.177,9.061c-9.699,0-14.734-4.813-19.177-9.061c-4.277-4.089-8.317-7.951-16.412-7.951
			c-8.095,0-12.135,3.862-16.413,7.951c-4.442,4.247-9.477,9.061-19.177,9.061s-14.734-4.813-19.177-9.061
			c-4.278-4.089-8.318-7.951-16.414-7.951c-1.104,0-2-0.896-2-2s0.896-2,2-2c9.7,0,14.735,4.813,19.178,9.061
			c4.277,4.089,8.317,7.951,16.413,7.951s12.135-3.862,16.413-7.951c4.442-4.247,9.477-9.061,19.177-9.061
			s14.734,4.813,19.176,9.061c4.277,4.089,8.317,7.951,16.413,7.951s12.135-3.862,16.413-7.951
			c4.442-4.247,9.477-9.061,19.177-9.061s14.735,4.813,19.177,9.061c4.278,4.089,8.318,7.951,16.414,7.951
			c8.094,0,12.134-3.862,16.411-7.951c4.442-4.247,9.477-9.061,19.176-9.061c9.7,0,14.735,4.813,19.177,9.061
			c4.278,4.089,8.318,7.951,16.413,7.951c8.094,0,12.134-3.862,16.411-7.951c4.442-4.247,9.477-9.061,19.176-9.061
			c9.699,0,14.733,4.813,19.175,9.061c4.277,4.089,8.317,7.951,16.412,7.951s12.134-3.862,16.411-7.951
			c4.442-4.247,9.477-9.061,19.176-9.061c9.699,0,14.734,4.813,19.176,9.061c4.277,4.089,8.317,7.951,16.411,7.951
			c8.095,0,12.135-3.862,16.413-7.951c4.442-4.247,9.477-9.061,19.176-9.061c9.7,0,14.736,4.813,19.178,9.061
			c4.278,4.089,8.318,7.951,16.415,7.951c8.095,0,12.136-3.862,16.413-7.951c4.442-4.247,9.477-9.061,19.176-9.061
			c9.7,0,14.735,4.813,19.177,9.061c4.278,4.089,8.318,7.951,16.414,7.951c8.095,0,12.135-3.862,16.413-7.951
			c4.442-4.247,9.477-9.061,19.176-9.061c9.7,0,14.735,4.813,19.177,9.061c4.278,4.089,8.318,7.951,16.414,7.951
			s12.136-3.862,16.414-7.951c4.442-4.247,9.478-9.061,19.177-9.061c9.7,0,14.736,4.813,19.178,9.06
			c4.278,4.09,8.319,7.952,16.415,7.952s12.137-3.862,16.415-7.951c4.442-4.247,9.478-9.061,19.179-9.061
			c9.701,0,14.737,4.813,19.18,9.061c4.277,4.089,8.318,7.951,16.414,7.951s12.136-3.862,16.413-7.952
			c4.441-4.246,9.477-9.06,19.176-9.06c9.701,0,14.736,4.813,19.179,9.061c4.278,4.089,8.318,7.951,16.414,7.951
			s12.136-3.862,16.414-7.951c4.442-4.247,9.479-9.061,19.18-9.061c9.702,0,14.738,4.813,19.181,9.061
			c4.278,4.089,8.318,7.951,16.414,7.951c8.097,0,12.138-3.862,16.416-7.952c4.442-4.246,9.478-9.06,19.178-9.06
			c9.702,0,14.738,4.813,19.182,9.06c4.278,4.09,8.32,7.952,16.418,7.952c8.099,0,12.141-3.862,16.419-7.952
			c4.443-4.247,9.479-9.06,19.18-9.06c1.104,0,2,0.896,2,2s-0.896,2-2,2c-8.097,0-12.138,3.862-16.416,7.951
			C1188.142,798.956,1183.105,803.77,1173.402,803.77z"/>
	</g>
	<g>
		<path fill="#FFFFFF" d="M1173.402,875.605c-9.702,0-14.738-4.813-19.182-9.06c-4.278-4.09-8.32-7.952-16.418-7.952
			c-8.096,0-12.136,3.862-16.414,7.951c-4.442,4.247-9.479,9.061-19.18,9.061c-9.699,0-14.735-4.813-19.178-9.06
			c-4.278-4.09-8.319-7.952-16.417-7.952c-8.097,0-12.138,3.862-16.416,7.952c-4.442,4.246-9.478,9.06-19.178,9.06
			s-14.735-4.813-19.178-9.06c-4.278-4.09-8.318-7.952-16.415-7.952c-8.095,0-12.135,3.862-16.412,7.951
			c-4.442,4.247-9.477,9.061-19.177,9.061c-9.7,0-14.735-4.813-19.178-9.06c-4.278-4.09-8.319-7.952-16.416-7.952
			c-8.096,0-12.137,3.862-16.415,7.952c-4.442,4.246-9.478,9.06-19.178,9.06c-9.701,0-14.736-4.813-19.179-9.061
			c-4.278-4.089-8.318-7.951-16.415-7.951c-8.096,0-12.136,3.862-16.414,7.951c-4.442,4.247-9.478,9.061-19.177,9.061
			c-9.7,0-14.735-4.813-19.178-9.061c-4.278-4.089-8.318-7.951-16.414-7.951c-8.095,0-12.135,3.862-16.413,7.951
			c-4.442,4.247-9.477,9.061-19.177,9.061c-9.7,0-14.735-4.813-19.178-9.061c-4.278-4.089-8.318-7.951-16.414-7.951
			c-8.095,0-12.135,3.862-16.412,7.951c-4.442,4.247-9.478,9.061-19.177,9.061c-9.7,0-14.736-4.813-19.178-9.061
			c-4.278-4.089-8.318-7.951-16.415-7.951c-8.095,0-12.135,3.862-16.412,7.951c-4.442,4.247-9.478,9.061-19.177,9.061
			c-9.699,0-14.733-4.813-19.175-9.061c-4.277-4.089-8.317-7.951-16.412-7.951c-8.094,0-12.134,3.862-16.411,7.951
			c-4.442,4.247-9.477,9.061-19.176,9.061s-14.733-4.813-19.176-9.061c-4.277-4.089-8.316-7.951-16.411-7.951
			c-8.095,0-12.135,3.862-16.412,7.951c-4.442,4.247-9.477,9.061-19.176,9.061c-9.7,0-14.735-4.813-19.177-9.061
			c-4.278-4.089-8.318-7.951-16.413-7.951c-8.095,0-12.135,3.862-16.412,7.951c-4.442,4.247-9.477,9.061-19.176,9.061
			c-9.7,0-14.735-4.813-19.177-9.061c-4.278-4.089-8.318-7.951-16.414-7.951c-8.095,0-12.135,3.862-16.413,7.951
			c-4.442,4.247-9.477,9.061-19.177,9.061c-9.699,0-14.734-4.813-19.177-9.061c-4.277-4.089-8.317-7.951-16.412-7.951
			c-8.095,0-12.135,3.862-16.413,7.951c-4.442,4.247-9.477,9.061-19.177,9.061s-14.734-4.813-19.177-9.061
			c-4.278-4.089-8.318-7.951-16.414-7.951c-1.104,0-2-0.896-2-2s0.896-2,2-2c9.7,0,14.735,4.813,19.178,9.061
			c4.277,4.089,8.317,7.951,16.413,7.951s12.135-3.862,16.413-7.951c4.442-4.247,9.477-9.061,19.177-9.061
			s14.734,4.813,19.176,9.061c4.277,4.089,8.317,7.951,16.413,7.951s12.135-3.862,16.413-7.951
			c4.442-4.247,9.477-9.061,19.177-9.061s14.735,4.813,19.177,9.061c4.278,4.089,8.318,7.951,16.414,7.951
			c8.094,0,12.134-3.862,16.411-7.951c4.442-4.247,9.477-9.061,19.176-9.061c9.7,0,14.735,4.813,19.177,9.061
			c4.278,4.089,8.318,7.951,16.413,7.951c8.094,0,12.134-3.862,16.411-7.951c4.442-4.247,9.477-9.061,19.176-9.061
			c9.699,0,14.733,4.813,19.175,9.061c4.277,4.089,8.317,7.951,16.412,7.951s12.134-3.862,16.411-7.951
			c4.442-4.247,9.477-9.061,19.176-9.061c9.699,0,14.734,4.813,19.176,9.061c4.277,4.089,8.317,7.951,16.411,7.951
			c8.095,0,12.135-3.862,16.413-7.951c4.442-4.247,9.477-9.061,19.176-9.061c9.7,0,14.736,4.813,19.178,9.061
			c4.278,4.089,8.318,7.951,16.415,7.951c8.095,0,12.136-3.862,16.413-7.951c4.442-4.247,9.477-9.061,19.176-9.061
			c9.7,0,14.735,4.813,19.177,9.061c4.278,4.089,8.318,7.951,16.414,7.951c8.095,0,12.135-3.862,16.413-7.951
			c4.442-4.247,9.477-9.061,19.176-9.061c9.7,0,14.735,4.813,19.177,9.061c4.278,4.089,8.318,7.951,16.414,7.951
			s12.136-3.862,16.414-7.951c4.442-4.247,9.478-9.061,19.177-9.061c9.7,0,14.736,4.813,19.178,9.06
			c4.278,4.09,8.319,7.952,16.415,7.952s12.137-3.862,16.415-7.951c4.442-4.247,9.478-9.061,19.179-9.061
			c9.701,0,14.737,4.813,19.18,9.061c4.277,4.089,8.318,7.951,16.414,7.951s12.136-3.862,16.413-7.952
			c4.441-4.246,9.477-9.06,19.176-9.06c9.701,0,14.736,4.813,19.179,9.061c4.278,4.089,8.318,7.951,16.414,7.951
			s12.136-3.862,16.414-7.951c4.442-4.247,9.479-9.061,19.18-9.061c9.702,0,14.738,4.813,19.181,9.061
			c4.278,4.089,8.318,7.951,16.414,7.951c8.097,0,12.138-3.862,16.416-7.952c4.442-4.246,9.478-9.06,19.178-9.06
			c9.702,0,14.738,4.813,19.182,9.06c4.278,4.09,8.32,7.952,16.418,7.952c8.099,0,12.141-3.862,16.419-7.952
			c4.443-4.247,9.479-9.06,19.18-9.06c1.104,0,2,0.896,2,2s-0.896,2-2,2c-8.097,0-12.138,3.862-16.416,7.951
			C1188.142,870.792,1183.105,875.605,1173.402,875.605z"/>
	</g>
	<g>
		<line fill="#FFD829" x1="1534.678" y1="426.633" x2="1550.609" y2="416.238"/>
		<path fill="#231F20" d="M1534.68,428.633c-0.653,0-1.293-0.319-1.677-0.907c-0.604-0.925-0.343-2.164,0.582-2.768l15.932-10.395
			c0.924-0.604,2.163-0.343,2.768,0.582c0.604,0.925,0.343,2.164-0.582,2.768l-15.932,10.395
			C1535.434,428.528,1535.055,428.633,1534.68,428.633z"/>
	</g>
	<g>
		<line fill="#FFD829" x1="1543.499" y1="444.432" x2="1559.431" y2="434.038"/>
		<path fill="#231F20" d="M1543.501,446.432c-0.653,0-1.293-0.319-1.677-0.907c-0.604-0.925-0.343-2.164,0.582-2.768l15.932-10.395
			c0.924-0.604,2.164-0.343,2.768,0.582c0.604,0.925,0.343,2.164-0.582,2.768l-15.932,10.395
			C1544.255,446.327,1543.876,446.432,1543.501,446.432z"/>
	</g>
	<g>
		<line fill="#FFD829" x1="1550.273" y1="462.231" x2="1566.203" y2="451.837"/>
		<path fill="#231F20" d="M1550.275,464.231c-0.653,0-1.293-0.319-1.677-0.907c-0.604-0.925-0.343-2.164,0.582-2.768l15.93-10.395
			c0.924-0.604,2.164-0.344,2.768,0.582c0.604,0.925,0.343,2.164-0.582,2.768l-15.93,10.395
			C1551.029,464.126,1550.65,464.231,1550.275,464.231z"/>
	</g>
	<g>
		<line fill="#FFD829" x1="1254.797" y1="578.865" x2="1256.091" y2="560.108"/>
		<path fill="#231F20" d="M1254.799,580.865c-0.046,0-0.093-0.002-0.14-0.005c-1.102-0.076-1.934-1.031-1.857-2.133l1.294-18.757
			c0.075-1.101,1.018-1.923,2.133-1.857c1.102,0.076,1.934,1.031,1.857,2.133l-1.294,18.757
			C1256.72,580.058,1255.841,580.865,1254.799,580.865z"/>
	</g>
	<g>
		<polygon fill="#FFFFFF" points="1428.834,451.167 1350.926,396.69 1353.221,393.414 1431.129,447.89 		"/>
	</g>
	<g>
		<g>
			<g>
				<g>
					<path fill="#FFFFFF" d="M1430.828,494.47c-1.584,0-3.181-0.472-4.572-1.455c-3.579-2.528-4.43-7.479-1.901-11.058
						l34.098-48.267c2.528-3.58,7.479-4.43,11.059-1.902c3.579,2.528,4.43,7.479,1.901,11.058l-34.098,48.267
						C1435.768,493.302,1433.316,494.47,1430.828,494.47z"/>
				</g>
			</g>
			<g>
				<g>
					<path fill="#FFFFFF" d="M1418.75,475.344c-3.791,0-7.145-2.727-7.81-6.59c-0.744-4.318,2.154-8.421,6.474-9.165l58.239-10.02
						c4.314-0.744,8.423,2.155,9.165,6.474c0.744,4.318-2.154,8.421-6.474,9.165l-58.239,10.021
						C1419.649,475.306,1419.197,475.344,1418.75,475.344z"/>
				</g>
			</g>
			<g>
				<g>
					<path fill="#FFFFFF" d="M1472.006,487.387c-1.584,0-3.18-0.472-4.572-1.455l-48.268-34.099
						c-3.579-2.528-4.431-7.479-1.901-11.058c2.528-3.58,7.478-4.43,11.057-1.902l48.269,34.099
						c3.579,2.528,4.432,7.479,1.902,11.058C1476.945,486.218,1474.494,487.387,1472.006,487.387z"/>
				</g>
			</g>
			<g>
				<g>
					<path fill="#FFFFFF" d="M1452.877,499.456c-3.791,0-7.146-2.727-7.81-6.59l-10.018-58.244
						c-0.744-4.318,2.156-8.421,6.474-9.165c4.317-0.748,8.421,2.156,9.164,6.474l10.018,58.244
						c0.744,4.318-2.155,8.421-6.473,9.165C1453.776,499.418,1453.324,499.456,1452.877,499.456z"/>
				</g>
			</g>
		</g>
	</g>
	<g>
		<line fill="#FFD829" x1="1588.701" y1="703.492" x2="1579.924" y2="686.863"/>
		<path fill="#231F20" d="M1588.703,705.492c-0.719,0-1.412-0.388-1.771-1.066l-8.777-16.629c-0.516-0.977-0.142-2.187,0.835-2.702
			c0.979-0.517,2.188-0.141,2.702,0.835l8.777,16.629c0.516,0.977,0.142,2.187-0.835,2.702
			C1589.337,705.418,1589.018,705.492,1588.703,705.492z"/>
	</g>
	<g>
		<path fill="#FFFFFF" d="M1671.96,732.88c-9.7,0-14.735-4.813-19.178-9.061c-4.277-4.089-8.318-7.951-16.413-7.951
			s-12.135,3.862-16.412,7.951c-4.442,4.247-9.478,9.061-19.178,9.061s-14.736-4.813-19.179-9.061
			c-4.278-4.089-8.318-7.951-16.414-7.951c-8.095,0-12.135,3.862-16.412,7.951c-4.442,4.247-9.477,9.061-19.177,9.061
			c-9.699,0-14.734-4.813-19.176-9.061c-4.277-4.089-8.317-7.951-16.411-7.951c-8.095,0-12.135,3.862-16.412,7.951
			c-4.441,4.247-9.477,9.061-19.175,9.061c-9.699,0-14.734-4.813-19.176-9.061c-4.277-4.089-8.317-7.951-16.411-7.951
			c-8.095,0-12.135,3.862-16.412,7.951c-4.441,4.247-9.477,9.061-19.175,9.061c-9.7,0-14.735-4.813-19.178-9.061
			c-4.277-4.089-8.317-7.951-16.412-7.951c-8.096,0-12.136,3.862-16.413,7.952c-4.441,4.246-9.476,9.06-19.174,9.06
			c-9.7,0-14.735-4.813-19.178-9.061c-4.277-4.089-8.318-7.951-16.413-7.951c-8.096,0-12.137,3.862-16.414,7.952
			c-4.442,4.246-9.477,9.06-19.176,9.06c-9.7,0-14.734-4.813-19.177-9.061c-4.277-4.089-8.317-7.951-16.412-7.951
			c-8.097,0-12.138,3.862-16.415,7.952c-4.442,4.246-9.477,9.06-19.176,9.06s-14.733-4.813-19.176-9.06
			c-4.278-4.09-8.318-7.952-16.415-7.952c-1.104,0-2-0.896-2-2s0.896-2,2-2c9.701,0,14.736,4.813,19.179,9.061
			c4.277,4.089,8.317,7.951,16.412,7.951s12.135-3.862,16.412-7.951c4.442-4.247,9.478-9.061,19.179-9.061
			c9.699,0,14.733,4.813,19.176,9.06c4.277,4.09,8.317,7.952,16.413,7.952c8.095,0,12.135-3.862,16.412-7.951
			c4.442-4.247,9.478-9.061,19.178-9.061c9.699,0,14.734,4.813,19.177,9.06c4.277,4.09,8.318,7.952,16.414,7.952
			c8.094,0,12.133-3.862,16.41-7.951c4.441-4.247,9.477-9.061,19.177-9.061c9.699,0,14.733,4.813,19.176,9.06
			c4.277,4.09,8.318,7.952,16.414,7.952c8.094,0,12.134-3.862,16.411-7.951c4.441-4.247,9.477-9.061,19.176-9.061
			c9.698,0,14.733,4.813,19.175,9.061c4.277,4.089,8.317,7.951,16.412,7.951c8.094,0,12.134-3.862,16.411-7.951
			c4.441-4.247,9.477-9.061,19.176-9.061c9.698,0,14.733,4.813,19.175,9.061c4.277,4.089,8.317,7.951,16.412,7.951
			c8.096,0,12.136-3.862,16.413-7.952c4.442-4.246,9.477-9.06,19.176-9.06c9.7,0,14.735,4.813,19.178,9.06
			c4.278,4.09,8.318,7.952,16.415,7.952c8.096,0,12.137-3.862,16.414-7.952c4.442-4.246,9.477-9.06,19.176-9.06
			s14.734,4.813,19.177,9.06c4.277,4.09,8.318,7.952,16.414,7.952c8.095,0,12.135-3.862,16.412-7.951
			c4.442-4.247,9.478-9.061,19.179-9.061c1.104,0,2,0.896,2,2s-0.896,2-2,2c-8.097,0-12.138,3.862-16.415,7.952
			C1686.693,728.066,1681.659,732.88,1671.96,732.88z"/>
	</g>
	<g>
		<path fill="#FFFFFF" d="M1671.96,803.758c-9.7,0-14.735-4.813-19.178-9.061c-4.277-4.089-8.318-7.951-16.413-7.951
			s-12.135,3.862-16.412,7.951c-4.442,4.247-9.478,9.061-19.178,9.061s-14.736-4.813-19.179-9.061
			c-4.278-4.089-8.318-7.951-16.414-7.951c-8.095,0-12.135,3.862-16.412,7.951c-4.442,4.247-9.477,9.061-19.177,9.061
			c-9.699,0-14.734-4.813-19.176-9.061c-4.277-4.089-8.317-7.951-16.411-7.951c-8.095,0-12.135,3.862-16.412,7.951
			c-4.441,4.247-9.477,9.061-19.175,9.061c-9.699,0-14.734-4.813-19.176-9.061c-4.277-4.089-8.317-7.951-16.411-7.951
			c-8.095,0-12.135,3.862-16.412,7.951c-4.441,4.247-9.477,9.061-19.175,9.061c-9.7,0-14.735-4.813-19.178-9.061
			c-4.277-4.089-8.317-7.951-16.412-7.951c-8.096,0-12.136,3.862-16.413,7.952c-4.441,4.246-9.476,9.06-19.174,9.06
			c-9.7,0-14.735-4.813-19.178-9.061c-4.277-4.089-8.318-7.951-16.413-7.951c-8.096,0-12.137,3.862-16.414,7.952
			c-4.442,4.246-9.477,9.06-19.176,9.06c-9.7,0-14.734-4.813-19.177-9.061c-4.277-4.089-8.317-7.951-16.412-7.951
			c-8.097,0-12.138,3.862-16.415,7.952c-4.442,4.246-9.477,9.06-19.176,9.06s-14.733-4.813-19.176-9.06
			c-4.278-4.09-8.318-7.952-16.415-7.952c-1.104,0-2-0.896-2-2s0.896-2,2-2c9.701,0,14.736,4.813,19.179,9.061
			c4.277,4.089,8.317,7.951,16.412,7.951s12.135-3.862,16.412-7.951c4.442-4.247,9.478-9.061,19.179-9.061
			c9.699,0,14.733,4.813,19.176,9.06c4.277,4.09,8.317,7.952,16.413,7.952c8.095,0,12.135-3.862,16.412-7.951
			c4.442-4.247,9.478-9.061,19.178-9.061c9.699,0,14.734,4.813,19.177,9.06c4.277,4.09,8.318,7.952,16.414,7.952
			c8.094,0,12.133-3.862,16.41-7.951c4.441-4.247,9.477-9.061,19.177-9.061c9.699,0,14.733,4.813,19.176,9.06
			c4.277,4.09,8.318,7.952,16.414,7.952c8.094,0,12.134-3.862,16.411-7.951c4.441-4.247,9.477-9.061,19.176-9.061
			c9.698,0,14.733,4.813,19.175,9.061c4.277,4.089,8.317,7.951,16.412,7.951c8.094,0,12.134-3.862,16.411-7.951
			c4.441-4.247,9.477-9.061,19.176-9.061c9.698,0,14.733,4.813,19.175,9.061c4.277,4.089,8.317,7.951,16.412,7.951
			c8.096,0,12.136-3.862,16.413-7.952c4.442-4.246,9.477-9.06,19.176-9.06c9.7,0,14.735,4.813,19.178,9.06
			c4.278,4.09,8.318,7.952,16.415,7.952c8.096,0,12.137-3.862,16.414-7.952c4.442-4.246,9.477-9.06,19.176-9.06
			s14.734,4.813,19.177,9.06c4.277,4.09,8.318,7.952,16.414,7.952c8.095,0,12.135-3.862,16.412-7.951
			c4.442-4.247,9.478-9.061,19.179-9.061c1.104,0,2,0.896,2,2s-0.896,2-2,2c-8.097,0-12.138,3.862-16.415,7.952
			C1686.693,798.944,1681.659,803.758,1671.96,803.758z"/>
	</g>
	<g>
		<path fill="#FFFFFF" d="M1671.96,875.581c-9.7,0-14.735-4.813-19.178-9.06c-4.277-4.089-8.318-7.951-16.413-7.951
			s-12.135,3.862-16.412,7.951c-4.442,4.246-9.478,9.06-19.178,9.06s-14.736-4.813-19.179-9.06
			c-4.278-4.089-8.318-7.951-16.414-7.951c-8.095,0-12.135,3.862-16.412,7.951c-4.442,4.246-9.477,9.06-19.177,9.06
			c-9.699,0-14.734-4.813-19.176-9.06c-4.277-4.089-8.317-7.951-16.411-7.951c-8.095,0-12.135,3.862-16.412,7.951
			c-4.441,4.246-9.477,9.06-19.175,9.06c-9.699,0-14.734-4.813-19.176-9.06c-4.277-4.089-8.317-7.951-16.411-7.951
			c-8.095,0-12.135,3.862-16.412,7.951c-4.441,4.246-9.477,9.06-19.175,9.06c-9.7,0-14.735-4.813-19.178-9.06
			c-4.277-4.089-8.317-7.951-16.412-7.951c-8.096,0-12.136,3.862-16.413,7.951c-4.441,4.247-9.476,9.06-19.174,9.06
			c-9.7,0-14.735-4.813-19.178-9.06c-4.277-4.089-8.318-7.951-16.413-7.951c-8.096,0-12.137,3.862-16.414,7.951
			c-4.442,4.247-9.477,9.06-19.176,9.06c-9.7,0-14.734-4.813-19.177-9.06c-4.277-4.089-8.317-7.951-16.412-7.951
			c-8.097,0-12.138,3.862-16.415,7.951c-4.442,4.247-9.477,9.06-19.176,9.06c-9.698,0-14.733-4.812-19.176-9.06
			c-4.277-4.089-8.318-7.951-16.415-7.951c-1.104,0-2-0.896-2-2s0.896-2,2-2c9.701,0,14.736,4.813,19.179,9.061
			c4.277,4.088,8.317,7.95,16.412,7.95s12.135-3.862,16.412-7.95c4.442-4.247,9.478-9.061,19.179-9.061
			c9.699,0,14.733,4.813,19.176,9.06c4.277,4.089,8.317,7.951,16.413,7.951c8.095,0,12.135-3.862,16.412-7.951
			c4.442-4.246,9.478-9.06,19.178-9.06c9.699,0,14.734,4.813,19.177,9.06c4.277,4.089,8.318,7.951,16.414,7.951
			c8.094,0,12.133-3.862,16.41-7.95c4.441-4.247,9.477-9.061,19.177-9.061c9.699,0,14.733,4.812,19.176,9.06
			c4.277,4.089,8.318,7.951,16.414,7.951c8.094,0,12.134-3.862,16.411-7.951c4.441-4.246,9.477-9.06,19.176-9.06
			c9.698,0,14.733,4.813,19.175,9.06c4.277,4.089,8.317,7.951,16.412,7.951c8.094,0,12.134-3.862,16.411-7.951
			c4.441-4.246,9.477-9.06,19.176-9.06c9.698,0,14.733,4.813,19.175,9.06c4.277,4.089,8.317,7.951,16.412,7.951
			c8.096,0,12.136-3.862,16.413-7.951c4.442-4.246,9.477-9.06,19.176-9.06c9.7,0,14.735,4.813,19.178,9.06
			c4.278,4.089,8.318,7.951,16.415,7.951c8.096,0,12.137-3.862,16.414-7.951c4.442-4.247,9.477-9.06,19.176-9.06
			s14.734,4.813,19.177,9.06c4.277,4.089,8.318,7.951,16.414,7.951c8.095,0,12.135-3.862,16.412-7.95
			c4.442-4.247,9.478-9.061,19.179-9.061c1.104,0,2,0.896,2,2s-0.896,2-2,2c-8.097,0-12.138,3.862-16.415,7.951
			C1686.693,870.769,1681.659,875.581,1671.96,875.581z"/>
	</g>
</g>
<g>
	<g>
		<circle fill="#FFFFFF" cx="507.64" cy="207.256" r="7.726"/>
	</g>
	<g>
		<circle fill="#FFFFFF" cx="458.715" cy="158.331" r="7.727"/>
	</g>
</g>
<g>
	<g>
		<g>
			<path fill="#FFFFFF" d="M1529.776,227.292c-1.104,0-2-0.896-2-2v-35.975c0-1.104,0.896-2,2-2s2,0.896,2,2v35.975
				C1531.776,226.396,1530.881,227.292,1529.776,227.292z"/>
		</g>
		<g>
			<path fill="#FFFFFF" d="M1529.776,276.589c-1.104,0-2-0.896-2-2v-35.975c0-1.104,0.896-2,2-2s2,0.896,2,2v35.975
				C1531.776,275.694,1530.881,276.589,1529.776,276.589z"/>
		</g>
	</g>
	<g>
		<g>
			<path fill="#FFFFFF" d="M1572.413,233.953h-35.975c-1.104,0-2-0.896-2-2s0.896-2,2-2h35.975c1.104,0,2,0.896,2,2
				S1573.518,233.953,1572.413,233.953z"/>
		</g>
		<g>
			<path fill="#FFFFFF" d="M1523.115,233.953h-35.975c-1.104,0-2-0.896-2-2s0.896-2,2-2h35.975c1.104,0,2,0.896,2,2
				S1524.22,233.953,1523.115,233.953z"/>
		</g>
	</g>
</g>
<g>
	<g>
		<g>
			<path fill="#FFFFFF" d="M720.133,300.601c-1.104,0-2-0.896-2-2V275.14c0-1.104,0.896-2,2-2s2,0.896,2,2v23.461
				C722.133,299.705,721.238,300.601,720.133,300.601z"/>
		</g>
		<g>
			<path fill="#FFFFFF" d="M720.133,332.751c-1.104,0-2-0.896-2-2V307.29c0-1.104,0.896-2,2-2s2,0.896,2,2v23.461
				C722.133,331.856,721.238,332.751,720.133,332.751z"/>
		</g>
	</g>
	<g>
		<g>
			<path fill="#FFFFFF" d="M747.939,304.945h-23.462c-1.104,0-2-0.896-2-2s0.896-2,2-2h23.462c1.104,0,2,0.896,2,2
				S749.044,304.945,747.939,304.945z"/>
		</g>
		<g>
			<path fill="#FFFFFF" d="M715.788,304.945h-23.461c-1.104,0-2-0.896-2-2s0.896-2,2-2h23.461c1.104,0,2,0.896,2,2
				S716.893,304.945,715.788,304.945z"/>
		</g>
	</g>
</g>
<g>
	<g>
		<g>
			<path fill="#FFFFFF" d="M1647.362,360.147c-1.104,0-2-0.896-2-2v-23.461c0-1.104,0.896-2,2-2s2,0.896,2,2v23.461
				C1649.362,359.252,1648.467,360.147,1647.362,360.147z"/>
		</g>
		<g>
			<path fill="#FFFFFF" d="M1647.362,392.298c-1.104,0-2-0.896-2-2v-23.461c0-1.104,0.896-2,2-2s2,0.896,2,2v23.461
				C1649.362,391.403,1648.467,392.298,1647.362,392.298z"/>
		</g>
	</g>
	<g>
		<g>
			<path fill="#FFFFFF" d="M1675.169,364.492h-23.462c-1.104,0-2-0.896-2-2s0.896-2,2-2h23.462c1.104,0,2,0.896,2,2
				S1676.273,364.492,1675.169,364.492z"/>
		</g>
		<g>
			<path fill="#FFFFFF" d="M1643.018,364.492h-23.462c-1.104,0-2-0.896-2-2s0.896-2,2-2h23.462c1.104,0,2,0.896,2,2
				S1644.122,364.492,1643.018,364.492z"/>
		</g>
	</g>
</g>
<g>
	<circle fill="#FFFFFF" cx="1138.469" cy="245.452" r="7.727"/>
</g>
<g>
	<circle fill="#FFFFFF" cx="259.445" cy="289.547" r="7.727"/>
</g>
</svg>
