<svg xmlns="http://www.w3.org/2000/svg" viewBox="0 0 1500 726"><path fill="#ffd829" d="m1123.65 163.28-15.87-17.4s-3.25-5.76 5.26-10.16"/><path fill="#231f20" d="M1123.65 165.28a2 2 0 0 1-1.47-.66l-15.88-17.38a2 2 0 0 1-.26-.37 8.04 8.04 0 0 1-.53-5.99c.83-2.76 3.05-5.1 6.6-6.94a2 2 0 1 1 1.84 3.55c-2.52 1.3-4.11 2.88-4.6 4.54a4.2 4.2 0 0 0 .1 2.73l15.68 17.17a2 2 0 0 1-1.48 3.34Z"/><path fill="#ffd829" d="m1029.17 480.23 16.93 78.1 3.64 16.77c5.67-4.93 9.91-11.23 20.74-11.23 17.8 0 17.8 17.01 35.6 17.01 17.79 0 17.79-17.01 35.58-17.01 4.9 0 8.44 1.29 11.39 3.16l-26.15-109.96 113.2-163-.2-.12 21.33-30.78c3.3-4.7 23.5-26.8 1.12-42.6l-82.38-58.73-49.5-34.72a10.38 10.38 0 0 0-16.18 10.28l34.93 94.11-117.48 169.17c-4.96 7.13-9.2 13.5-10.75 22.35-1.51 8.67-.42 17.54 1.43 26.06l6.75 31.14ZM821.02 580.4c16.93 0 17.77-15.37 33.13-16.88v-68.27h-70.72v68.23c.65-.05 1.3-.08 2-.08 17.8 0 17.8 17 35.6 17Zm-519.06-85.15v73.88"/><path d="M301.96 571.13a2 2 0 0 1-2-2v-73.88a2 2 0 0 1 4 0v73.88a2 2 0 0 1-2 2Z"/><path fill="#ffd829" d="M372.67 568.74v-73.49"/><path d="M372.67 570.74a2 2 0 0 1-2-2v-73.49a2 2 0 0 1 4 0v73.49a2 2 0 0 1-2 2Z"/><path fill="#ffd829" d="M783.43 495.25v68.23"/><path d="M783.43 565.48a2 2 0 0 1-2-2v-68.23a2 2 0 0 1 4 0v68.23a2 2 0 0 1-2 2Z"/><path fill="#ffd829" d="M854.14 563.52v-68.27"/><path d="M854.14 565.52a2 2 0 0 1-2-2v-68.27a2 2 0 0 1 4 0v68.27a2 2 0 0 1-2 2Z"/><path fill="#231f20" d="m1047.78 575.53-27.32-126.01c-1.46-6.72-3.19-16.81-1.44-26.83 1.55-8.93 5.57-15.23 11.07-23.15l116.9-168.3-34.64-93.32-.03-.18a12.39 12.39 0 0 1 19.3-12.26l49.5 34.73 82.39 58.72c6.35 4.5 10.06 9.92 11 16.13 1.78 11.72-6.83 22.94-10.5 27.73-.48.62-.87 1.14-1.14 1.52l-20.18 29.13.18.13-113.82 163.9 25.94 109.1-3.89.92-26.35-110.83.5-.73 112.06-161.35-.19-.13 22.46-32.42c.3-.44.74-1 1.25-1.67 3.37-4.39 11.25-14.66 9.73-24.7-.78-5.1-3.93-9.62-9.37-13.47l-82.38-58.72-49.49-34.71a8.4 8.4 0 0 0-13.09 8.12l35.23 94.92-.6.85-117.48 169.17c-5.2 7.5-9 13.44-10.42 21.55-1.63 9.33.03 18.9 1.41 25.3l27.32 126Z"/><path fill="#ffd829" d="m1197.64 404.97-.2.1 84.44 158.9c.68-.06 1.39-.1 2.13-.1 17.8 0 17.8 17.01 35.59 17.01 17.8 0 17.8-17.01 35.59-17.01 17.8 0 17.8 17.01 35.59 17.01 2.25 0 4.21-.27 5.96-.75 2.06-6.84 3.4-13.93 3.02-21.1-.49-8.96-3.96-15.8-8.03-23.46-.15-.28-59.47-110.44-87.95-164.03l56.97-49.23-.08-.15a11 11 0 0 0-4.14-20.17 11.02 11.02 0 0 0-7.43-17.72 11.03 11.03 0 0 0-8.49-18.03 11.03 11.03 0 0 0-10.1-15.44c-3.05 0-3.78 1.1-7.81 3.25l-49.92 26.83-88.75 48.57c-24.1 13.05-6.64 37.37-3.93 42.43Z"/><path fill="#231f20" d="M1396.74 582.13a2 2 0 0 1-1.92-2.58c2.3-7.66 3.27-14.34 2.94-20.4-.44-8.24-3.51-14.58-7.8-22.64l-.97-1.81A45636.76 45636.76 0 0 1 1302 372.48a2 2 0 0 1 .46-2.45l56.4-48.73a2 2 0 0 1 .73-.83 8.99 8.99 0 0 0 4.19-7.6c0-4.46-3.19-8.2-7.58-8.9a2 2 0 0 1-1.26-3.2 9.01 9.01 0 0 0-6.08-14.5 2 2 0 0 1-1.31-3.27 9.04 9.04 0 0 0-6.95-14.76 2 2 0 0 1-1.83-2.8 9.04 9.04 0 0 0-8.27-12.64c-1.68 0-2.3.37-4.14 1.46-.71.42-1.6.95-2.73 1.55l-49.92 26.83L1185 331.2c-5.86 3.18-9.52 7.3-10.9 12.27-2.7 9.78 3.91 20.91 6.74 25.67.43.73.8 1.34 1.04 1.8l17.54 33.1c.15.28.23.6.23.91l83.4 156.94c.33-.02.65-.02.97-.02a2 2 0 0 1 0 4c-.6 0-1.23.03-1.96.09-.8.06-1.56-.35-1.94-1.06l-84.44-158.89c-.15-.28-.23-.6-.23-.92l-17.1-32.27c-.22-.41-.55-.97-.96-1.64-3.08-5.2-10.3-17.35-7.14-28.78 1.67-6.05 5.99-11 12.84-14.71l88.74-48.57 49.93-26.84c1.06-.56 1.87-1.04 2.58-1.46 2.05-1.22 3.4-2.02 6.18-2.02a13.04 13.04 0 0 1 12.74 15.71 13.06 13.06 0 0 1 9.04 18.47 13.02 13.02 0 0 1 7.32 17.8 12.95 12.95 0 0 1 8.18 12.08c0 4.19-1.98 8.05-5.34 10.5-.1.17-.24.33-.4.46l-55.76 48.2a46614.86 46614.86 0 0 0 86.22 160.78l.98 1.83c4.53 8.51 7.77 15.24 8.26 24.3.36 6.53-.66 13.66-3.1 21.77a2 2 0 0 1-1.9 1.43Z"/><path fill="#ffd829" d="M773.52 525.1 574.47 372.4a34.72 34.72 0 0 1-7.88-49.99l74.23-95.49c.12-.3 2.57-6.4 2.93-12.95a20.02 20.02 0 0 1 5.22-14.5l11.62-14.8 14.54-18.5 20.05-25.84.04.03a10.45 10.45 0 1 1 15.8 13.64l-19.46 25.07.07.05 20.46-26.35 4.36-5.57a10.44 10.44 0 0 1 16 13.4c-.2.26-4.71 6.13-4.94 6.36l-19.45 25.07.07.06 20.05-25.84 8.28-10.75-.26.34c3.56-4.53 10.4-5.67 14.93-2.1a10.45 10.45 0 0 1 1.77 14.66c-.2.26-8.66 11.29-8.88 11.52L724.57 205l.07.06 20.87-26.88 3.89-4.87a10.44 10.44 0 0 1 16.29 12.8l-3.75 4.98 3.57-4.69c-.18.28-4.14 5.5-4.35 5.75-.2.26-.42.5-.64.74l-24.81 31.89.19.46 21.48-16.69.03.04h.01a10.45 10.45 0 1 1 12.02 17.05l-41.4 32.16a29.47 29.47 0 0 1-20.71 7.57c-3.2.21-8.97 1.94-12.46 5.15l-49.7 64.53 86.92 66.5 1.06.82 33.63-44.2 44.1 33.55-33.7 44.3 38.67 29.55Z"/><path d="M773.52 527.1a2 2 0 0 1-1.21-.42l-199-152.64a36.76 36.76 0 0 1-8.28-52.84l74.03-95.27c.5-1.3 2.37-6.5 2.68-11.96a22.15 22.15 0 0 1 5.7-15.78l26.12-33.25 20.04-25.82c.1-.13.22-.25.34-.35 2.37-2.8 5.81-4.4 9.5-4.4a12.4 12.4 0 0 1 12.31 10.7 12.47 12.47 0 0 1 16.18-.7 12.36 12.36 0 0 1 4.66 8.25 13.23 13.23 0 0 1 8.33-2.98c2.76 0 5.34.88 7.45 2.53 2.62 2.05 4.27 5 4.67 8.3.34 2.79-.26 5.54-1.69 7.9a12.32 12.32 0 0 1 9.07 2.58 12.46 12.46 0 0 1 2.76 16.55c-.26.4-4.4 5.84-4.44 5.88-.23.3-.46.56-.7.81l-16.13 20.74 10.24-7.96c.13-.1.27-.19.42-.25a12.32 12.32 0 0 1 7.25-2.34c3.88 0 7.46 1.76 9.84 4.82a12.37 12.37 0 0 1 2.52 9.19 12.36 12.36 0 0 1-5.58 8.88l-41.28 32.07a31.3 31.3 0 0 1-21.96 8.04c-2.76.2-7.9 1.72-11.01 4.5l-48.36 62.8 84.79 64.88 32.4-42.6a2 2 0 0 1 2.8-.39l44.12 33.55a2 2 0 0 1 .38 2.8l-32.5 42.72 37.08 28.34a2 2 0 0 1 .42 2.75l-42.33 59.52a2 2 0 0 1-1.63.84ZM696.5 141.91l-19.8 25.49-26.17 33.32a18.12 18.12 0 0 0-4.8 13.37 46.85 46.85 0 0 1-3.06 13.57 2.1 2.1 0 0 1-.28.5l-74.22 95.5a32.75 32.75 0 0 0 7.51 47.17l197.4 151.41 40-56.25-37.13-28.38a2 2 0 0 1-.37-2.8l32.49-42.7-40.92-31.14-32.42 42.61a2 2 0 0 1-2.8.38l-1.07-.82-86.9-66.5a2 2 0 0 1-.38-2.81l49.7-64.53c.06-.1.14-.18.23-.25 3.62-3.34 9.75-5.41 13.67-5.67h.2a27.37 27.37 0 0 0 19.42-7.16l41.4-32.16.15-.1a8.39 8.39 0 0 0 3.85-6.07 8.4 8.4 0 0 0-1.71-6.24 8.4 8.4 0 0 0-6.68-3.26c-1.9 0-3.68.61-5.18 1.77-.1.09-.23.16-.35.22l-.04.03-21.13 16.4a2 2 0 0 1-3.1-.86l-.17-.43a2 2 0 0 1 .28-1.97l24.8-31.88.13-.15.53-.6.56-.73c.05-.1.11-.21.19-.3l3.68-4.9a8.46 8.46 0 0 0-7.28-12.69 8.4 8.4 0 0 0-5.86 2.36l-3.82 4.77-20.85 26.85a2 2 0 0 1-2.78.38 2.1 2.1 0 0 1-.81-1.36 2 2 0 0 1 .36-1.52l19.45-25.07.13-.16c.32-.38 5.56-7.2 7.54-9.78l1.22-1.59a8.39 8.39 0 0 0 1.75-6.23 8.39 8.39 0 0 0-3.17-5.63 7.98 7.98 0 0 0-4.98-1.68 9.14 9.14 0 0 0-7.2 3.52l-7.96 10.33-20.05 25.83a2 2 0 0 1-2.82.35c-.86-.68-1.08-1.98-.4-2.85l19.44-25.07.14-.17c.26-.31 3.27-4.21 4.26-5.5l.54-.7a8.4 8.4 0 0 0 1.75-6.23 8.4 8.4 0 0 0-8.36-7.44 8.45 8.45 0 0 0-6.28 2.78l-4.32 5.52-20.45 26.35a2 2 0 0 1-2.78.38 2.1 2.1 0 0 1-.82-1.36c-.07-.54.04-1.1.37-1.53l19.45-25.07.13-.15a8.46 8.46 0 1 0-12.71-11.1c-.1.14-.23.28-.36.39Z"/><path fill="#fff" d="m857.9 495.43 17.51 13.4 3.91 2.98a13.48 13.48 0 0 1-20.5 1.07l-.54.13a13.49 13.49 0 0 1-26.05 6.38l-.07.02a13.49 13.49 0 0 1-26.06 6.37l-.13.03a13.48 13.48 0 0 1-26.07 6.38l-9.41 2.3-21.9-16.73 51.08-66.83Zm-168.75-164-9.71-19.8-2.17-4.42a13.49 13.49 0 0 0-5.05 19.9l-.24.5a13.49 13.49 0 0 0-11.34 24.31l-.03.07a13.48 13.48 0 0 0-11.34 24.31l-.06.12a13.48 13.48 0 0 0-11.34 24.32c-2.24 4.8-4.93 8.34-3.48 13.87 1.34 5.07 5.14 5.3 7.72 9.46 1.52 2.46 6.56 2.23 7.92 4.84 24.37-12.23 44.86-18.67 69.34-30.68l2.06-1-32.28-65.8Z"/><path fill="#ffd829" d="M772.34 261.26c.86.66 1.68 1.37 2.45 2.1a82.02 82.02 0 0 1 125.37 95.38 28.47 28.47 0 1 1-36.8 42.23 82 82 0 0 1-119.45-90.87 28.47 28.47 0 1 1 28.43-48.84Z"/><path d="M885.59 413.67a30.2 30.2 0 0 1-18.43-6.22 30.82 30.82 0 0 1-4.27-3.95 84.46 84.46 0 0 1-39.31 9.72 83.22 83.22 0 0 1-50.78-17.15 84.08 84.08 0 0 1-31.2-84.83 30.5 30.5 0 0 1-10.75-45.76 30.26 30.26 0 0 1 24.27-12.03 30.2 30.2 0 0 1 19.8 7.34 84.65 84.65 0 0 1 48.8-15.55 83.23 83.23 0 0 1 50.78 17.14c29.15 22.18 40.57 61.25 28.1 95.54a30.5 30.5 0 0 1 7.25 43.73 30.26 30.26 0 0 1-24.26 12.02Zm-21.72-15.26 1.05 1.31a26.67 26.67 0 0 0 4.67 4.55 26.23 26.23 0 0 0 16 5.4c8.35 0 16.04-3.8 21.08-10.44a26.5 26.5 0 0 0-7.53-38.78l-1.45-.86.6-1.57c12.75-33 1.97-71.02-26.21-92.46a79.26 79.26 0 0 0-48.37-16.32 80.57 80.57 0 0 0-47.73 15.73l-1.35 1-1.22-1.16a26.23 26.23 0 0 0-18.29-7.36c-8.35 0-16.04 3.8-21.09 10.44a26.5 26.5 0 0 0 10.67 40.37l1.54.67-.39 1.63a80.07 80.07 0 0 0 29.37 82.33 79.25 79.25 0 0 0 48.36 16.33 80.4 80.4 0 0 0 38.81-10Z"/><path fill="#ffd829" d="m901.65 385.94-25.39 4.53"/><path d="M876.26 392.47a2 2 0 0 1-.35-3.96l25.39-4.54a2 2 0 1 1 .7 3.94l-25.39 4.53-.35.03Z"/><path fill="#ffd829" d="m750.89 271.25 2.4 25.68"/><path d="M753.3 298.93a2 2 0 0 1-2-1.81l-2.4-25.68a2 2 0 1 1 3.98-.37l2.4 25.68a2 2 0 0 1-1.99 2.18Zm85.57 52.82a10.82 10.82 0 1 0 17.22 13.1 10.82 10.82 0 0 0-17.22-13.1Z"/><path d="M862.64 374.74h-.1a2 2 0 0 1-1.9-2.1 24.2 24.2 0 0 0-31.76-24.16 2 2 0 0 1-1.26-3.8 28.21 28.21 0 0 1 37.02 28.16 2 2 0 0 1-2 1.9Zm-60.53-59.19a10.82 10.82 0 1 1-21.64 0 10.82 10.82 0 0 1 21.64 0Z"/><path d="M806.45 332h-.1a2 2 0 0 1-1.9-2.1 24.2 24.2 0 0 0-31.77-24.17 2 2 0 1 1-1.25-3.8 28.2 28.2 0 0 1 37.02 28.17 2 2 0 0 1-2 1.9Z"/><path fill="#ffd829" d="m819.52 336.5-10.27 12.6"/><path d="M809.25 351.1a2 2 0 0 1-1.55-3.26l10.27-12.6a2 2 0 0 1 3.1 2.52l-10.27 12.6c-.4.5-.97.74-1.55.74Z"/><path fill="#fff" d="M781.71 339.53a27.7 27.7 0 0 0 44.1 33.56Z"/><path d="m773.06 264.38.68-.9a82.45 82.45 0 0 1 128.07 90.8l-3.87 5.1Z"/><path fill="#fff" d="M571.88 563.4c17.8 0 17.8 17 35.59 17 17.8 0 17.8-17 35.59-17 17.8 0 17.8 17 35.6 17 17.79 0 17.79-17 35.59-17 16.34 0 17.68 14.34 31.59 16.68l36.41-47.64-134.86-103.09-114.05 149.22 2.4 1.82.55.02c17.8 0 17.8-17.01 35.59-17.01Z"/><path fill="#fff" d="M729.12 396.92a34.15 34.15 0 1 0 54.26 41.48l33.38 25.51-51.58 67.47-122.45-93.6 51.57-67.47Z"/><path fill="#fff" d="M666.84 413.35a16.77 16.77 0 1 1-33.54 0 16.77 16.77 0 0 1 33.54 0Z"/><g fill="#fff"><path d="M903.93 349.88a7.93 7.93 0 0 1-7.93-7.93v-59.1a7.93 7.93 0 1 1 15.86 0v59.1a7.94 7.94 0 0 1-7.93 7.93Z"/><path d="M883.04 341.23a7.93 7.93 0 0 1-5.6-13.54l41.78-41.8a7.93 7.93 0 0 1 11.22 11.23l-41.79 41.78a7.92 7.92 0 0 1-5.6 2.33Z"/><path d="M933.48 320.33h-59.1a7.93 7.93 0 0 1 0-15.87h59.1a7.93 7.93 0 1 1 0 15.87Z"/><path d="M924.83 341.23a7.9 7.9 0 0 1-5.6-2.33l-41.8-41.79a7.93 7.93 0 1 1 11.22-11.22l41.8 41.8a7.93 7.93 0 0 1-5.62 13.54Z"/></g><path fill="#ffd829" d="M358.34 563.4c6.64 0 10.8 2.37 14.33 5.34v-73.49h-70.71v73.88c5.7 4.94 9.93 11.28 20.8 11.28 17.78 0 17.78-17.01 35.58-17.01Zm-56.38-68.15v73.88"/><path d="M301.96 571.13a2 2 0 0 1-2-2v-73.88a2 2 0 0 1 4 0v73.88a2 2 0 0 1-2 2Z"/><path fill="#ffd829" d="M372.67 568.74v-73.49"/><path d="M372.67 570.74a2 2 0 0 1-2-2v-73.49a2 2 0 0 1 4 0v73.49a2 2 0 0 1-2 2Z"/><path fill="#ffd829" d="M292.05 525.1 93 372.4a34.72 34.72 0 0 1-7.88-49.99l74.23-95.49c.12-.3 2.57-6.4 2.92-12.95a20 20 0 0 1 5.22-14.5l11.63-14.8 14.54-18.5 20.05-25.84.04.03a10.45 10.45 0 1 1 15.8 13.64l-19.46 25.07.07.05 20.46-26.35 4.36-5.57a10.44 10.44 0 0 1 16 13.4c-.2.26-4.71 6.13-4.94 6.36l-19.45 25.07.07.06 20.05-25.84 8.28-10.75-.26.34c3.56-4.53 10.4-5.67 14.93-2.1a10.45 10.45 0 0 1 1.77 14.66c-.2.26-8.66 11.29-8.89 11.52L243.1 205l.07.06 20.87-26.88 3.9-4.87a10.44 10.44 0 0 1 16.28 12.8l-3.75 4.98 3.58-4.69c-.18.28-4.15 5.5-4.35 5.76-.2.26-.42.5-.64.73l-24.81 31.89c.06.15.13.3.18.46l21.49-16.69.02.04h.02a10.45 10.45 0 1 1 12.02 17.05l-41.4 32.16a29.47 29.47 0 0 1-20.71 7.57c-3.2.22-8.98 1.94-12.46 5.15l-49.7 64.53 86.92 66.5 1.06.82 33.62-44.2 44.11 33.55-33.7 44.3 38.66 29.55Z"/><path d="M292.05 527.1a2 2 0 0 1-1.22-.42l-199-152.64a36.76 36.76 0 0 1-8.28-52.84l74.04-95.27a43 43 0 0 0 2.68-11.96 22.14 22.14 0 0 1 5.7-15.78l26.12-33.25 20.04-25.82c.1-.13.21-.25.34-.35 2.37-2.8 5.8-4.4 9.5-4.4a12.4 12.4 0 0 1 12.31 10.7 12.46 12.46 0 0 1 16.18-.7 12.36 12.36 0 0 1 4.66 8.25 13.23 13.23 0 0 1 8.33-2.98c2.76 0 5.34.88 7.45 2.53a12.38 12.38 0 0 1 2.97 16.2 12.32 12.32 0 0 1 9.07 2.58 12.46 12.46 0 0 1 2.77 16.54c-.26.4-4.4 5.84-4.44 5.9-.23.28-.46.55-.7.8l-16.13 20.74 10.24-7.96a2 2 0 0 1 .42-.25 12.32 12.32 0 0 1 7.25-2.34c3.88 0 7.46 1.76 9.84 4.82a12.37 12.37 0 0 1 2.52 9.19 12.36 12.36 0 0 1-5.58 8.88l-41.28 32.07a31.26 31.26 0 0 1-21.96 8.04c-2.76.2-7.9 1.72-11.01 4.5l-48.36 62.8 84.78 64.88 32.41-42.6a2 2 0 0 1 2.8-.39l44.11 33.56a2 2 0 0 1 .38 2.8l-32.5 42.72 37.09 28.33a2 2 0 0 1 .41 2.75l-42.32 59.52a2 2 0 0 1-1.63.84Zm-77.04-385.18-19.77 25.48-26.17 33.32a18.11 18.11 0 0 0-4.8 13.37 46.74 46.74 0 0 1-3.06 13.58c-.07.17-.17.34-.28.5L86.7 323.65a32.75 32.75 0 0 0 7.51 47.17l197.4 151.41 40-56.25-37.13-28.38a2 2 0 0 1-.37-2.8l32.49-42.7-40.93-31.14-32.4 42.61a2 2 0 0 1-2.82.38l-1.06-.82-86.9-66.5a2 2 0 0 1-.38-2.81l49.7-64.53c.06-.1.14-.18.22-.25 3.63-3.34 9.75-5.41 13.68-5.67h.2a27.4 27.4 0 0 0 19.42-7.16l41.4-32.16.14-.1a8.39 8.39 0 0 0 3.85-6.07 8.4 8.4 0 0 0-1.7-6.24 8.4 8.4 0 0 0-6.68-3.26c-1.9 0-3.68.61-5.18 1.77-.1.09-.22.16-.34.22l-.05.03-21.13 16.41a2 2 0 0 1-3.1-.87l-.17-.42a2 2 0 0 1 .28-1.98l24.8-31.88.13-.14.53-.61.56-.74c.05-.1.11-.2.19-.3l3.68-4.88a8.46 8.46 0 0 0-7.28-12.7 8.4 8.4 0 0 0-5.86 2.36l-3.82 4.77-20.85 26.85a2 2 0 0 1-2.79.37 2.1 2.1 0 0 1-.8-1.36c-.08-.53.03-1.09.36-1.51l19.45-25.07.08-.1c.45-.55 5.72-7.4 7.7-10l1.1-1.43a8.4 8.4 0 0 0 1.76-6.23 8.39 8.39 0 0 0-3.17-5.63 7.98 7.98 0 0 0-4.98-1.68 9.15 9.15 0 0 0-7.15 3.45l-.06.06-7.95 10.34-20.05 25.83a2 2 0 0 1-2.8.36 2.08 2.08 0 0 1-.43-2.86l19.45-25.07.13-.16c.25-.3 3.07-3.95 4.13-5.33l.69-.88a8.4 8.4 0 0 0 1.74-6.23 8.39 8.39 0 0 0-8.36-7.44 8.46 8.46 0 0 0-6.28 2.78l-4.32 5.52-20.45 26.35a2 2 0 0 1-2.78.38 2.1 2.1 0 0 1-.82-1.36c-.07-.53.04-1.1.37-1.52l19.45-25.07.12-.15.53-.6a8.46 8.46 0 0 0-13.24-10.5 2 2 0 0 1-.36.38Z"/><path fill="#fff" d="m376.43 495.43 17.51 13.4 3.91 2.98a13.49 13.49 0 0 1-20.5 1.07l-.54.13a13.48 13.48 0 0 1-26.05 6.38l-.08.02a13.48 13.48 0 0 1-26.06 6.37l-.13.03a13.48 13.48 0 0 1-26.06 6.38l-9.42 2.3-21.9-16.73 51.09-66.83Zm-168.75-164-9.72-19.8-2.16-4.42a13.49 13.49 0 0 0-5.06 19.9l-.23.5a13.49 13.49 0 0 0-11.34 24.31l-.03.07a13.48 13.48 0 0 0-11.34 24.31l-.06.12a13.48 13.48 0 0 0-11.34 24.32c-2.24 4.8-4.94 8.34-3.48 13.87 1.34 5.07 5.14 5.3 7.71 9.46 1.53 2.46 6.57 2.23 7.93 4.84 24.37-12.23 44.86-18.67 69.34-30.68l2.06-1-32.28-65.8Z"/><path fill="#ffd829" d="M290.86 261.26c.87.66 1.69 1.37 2.46 2.1a82.02 82.02 0 0 1 125.37 95.38 28.47 28.47 0 1 1-36.8 42.23 82 82 0 0 1-119.46-90.87 28.47 28.47 0 1 1 28.43-48.84Z"/><path d="M404.12 413.67a30.2 30.2 0 0 1-18.43-6.22 30.81 30.81 0 0 1-4.28-3.95 84.45 84.45 0 0 1-39.3 9.72 83.22 83.22 0 0 1-50.78-17.15 84.07 84.07 0 0 1-31.2-84.83 30.56 30.56 0 0 1-16.7-23.22 30.27 30.27 0 0 1 5.95-22.55 30.26 30.26 0 0 1 24.27-12.02 30.2 30.2 0 0 1 19.8 7.34 84.65 84.65 0 0 1 48.8-15.55 83.23 83.23 0 0 1 50.78 17.14c29.15 22.18 40.57 61.25 28.1 95.54a30.5 30.5 0 0 1 7.25 43.73 30.26 30.26 0 0 1-24.26 12.02Zm-21.72-15.26 1.05 1.31a26.74 26.74 0 0 0 4.66 4.55 26.23 26.23 0 0 0 16 5.4 26.3 26.3 0 0 0 21.1-10.44 26.5 26.5 0 0 0-7.55-38.78l-1.45-.86.61-1.57c12.75-33 1.97-71.02-26.22-92.45a79.26 79.26 0 0 0-48.36-16.33 80.57 80.57 0 0 0-47.73 15.73l-1.36 1-1.22-1.16a26.23 26.23 0 0 0-18.29-7.36c-8.34 0-16.03 3.8-21.08 10.44a26.3 26.3 0 0 0-5.16 19.6 26.3 26.3 0 0 0 10.2 17.5 26.65 26.65 0 0 0 5.62 3.27l1.55.67-.4 1.63a80.07 80.07 0 0 0 29.38 82.33 79.25 79.25 0 0 0 48.36 16.33 80.4 80.4 0 0 0 38.81-10Z"/><path fill="#ffd829" d="m420.18 385.94-25.4 4.53"/><path d="M394.79 392.47a2 2 0 0 1-.35-3.96l25.38-4.54a2 2 0 1 1 .7 3.94l-25.38 4.53-.35.03Z"/><path fill="#ffd829" d="m269.42 271.25 2.4 25.68"/><path d="M271.82 298.93a2 2 0 0 1-1.99-1.81l-2.4-25.68a2 2 0 1 1 3.98-.37l2.4 25.68a2 2 0 0 1-1.99 2.18Zm85.58 52.82a10.82 10.82 0 1 0 17.22 13.1 10.82 10.82 0 0 0-17.22-13.1Z"/><path d="M381.17 374.74h-.1a2 2 0 0 1-1.9-2.1 24.2 24.2 0 0 0-31.77-24.16 2 2 0 1 1-1.25-3.8 28.21 28.21 0 0 1 37.01 28.16 2 2 0 0 1-2 1.9Zm-60.53-59.19a10.82 10.82 0 1 1-21.64 0 10.82 10.82 0 0 1 21.64 0Z"/><path d="M324.98 332h-.1a2 2 0 0 1-1.9-2.1 24.2 24.2 0 0 0-31.77-24.17 2 2 0 1 1-1.25-3.8 28.2 28.2 0 0 1 37.01 28.17 2 2 0 0 1-2 1.9Z"/><path fill="#ffd829" d="m337.31 336.57-9.54 12.53"/><path d="M327.77 351.1a2 2 0 0 1-1.59-3.21l9.54-12.53a2 2 0 1 1 3.18 2.42l-9.53 12.53a2 2 0 0 1-1.6.8Z"/><path fill="#fff" d="M300.24 339.53a27.7 27.7 0 0 0 44.1 33.56Z"/><path d="m291.6 264.38.67-.9a82.46 82.46 0 0 1 128.07 90.8l-3.87 5.1Z"/><path fill="#fff" d="M247.64 396.92a34.15 34.15 0 1 0 54.27 41.48l33.37 25.51-51.57 67.47-122.45-93.6 51.57-67.47Z"/><path fill="#fff" d="M185.37 413.35a16.77 16.77 0 1 1-33.55 0 16.77 16.77 0 0 1 33.55 0Z"/><g fill="#fff"><path d="M424.72 349.88a7.94 7.94 0 0 1-7.93-7.93v-59.1a7.93 7.93 0 0 1 15.86 0v59.1a7.93 7.93 0 0 1-7.93 7.93Z"/><path d="M403.83 341.23a7.93 7.93 0 0 1-5.61-13.54l41.79-41.8a7.93 7.93 0 1 1 11.22 11.23l-41.79 41.78a7.91 7.91 0 0 1-5.6 2.33Z"/><path d="M454.27 320.33h-59.1a7.93 7.93 0 0 1 0-15.87h59.1a7.93 7.93 0 1 1 0 15.87Z"/><path d="M445.62 341.23a7.9 7.9 0 0 1-5.6-2.33l-41.8-41.79a7.93 7.93 0 1 1 11.22-11.22l41.8 41.8a7.93 7.93 0 0 1-5.62 13.54Z"/></g><path fill="#fff" d="M109.22 580.4c17.8 0 17.8-17 35.59-17 17.8 0 17.8 17 35.59 17 17.8 0 17.8-17 35.59-17 17.8 0 17.8 17 35.59 17 11.48 0 15.56-7.08 21.79-12.1l27.41-35.86-134.86-103.09-106.39 139.2c3.48-2.88 7.6-5.15 14.1-5.15 17.8 0 17.8 17 35.59 17Z"/><path fill="#fff" d="M963.4 582.88c-9.7 0-14.74-4.81-19.18-9.06-4.28-4.09-8.32-7.95-16.42-7.95-8.1 0-12.13 3.86-16.41 7.95-4.44 4.25-9.48 9.06-19.18 9.06s-14.74-4.81-19.18-9.06c-4.28-4.09-8.32-7.95-16.42-7.95-8.1 0-12.13 3.86-16.41 7.95-4.45 4.25-9.48 9.06-19.18 9.06s-14.74-4.81-19.18-9.06c-4.28-4.09-8.32-7.95-16.41-7.95-8.1 0-12.14 3.86-16.42 7.95-4.44 4.25-9.47 9.06-19.17 9.06-9.7 0-14.74-4.81-19.18-9.06-4.28-4.09-8.32-7.95-16.42-7.95-8.1 0-12.13 3.86-16.41 7.95-4.44 4.25-9.48 9.06-19.18 9.06s-14.74-4.81-19.18-9.06c-4.28-4.09-8.32-7.95-16.42-7.95-8.1 0-12.13 3.86-16.4 7.95-4.45 4.25-9.49 9.06-19.19 9.06-9.7 0-14.73-4.81-19.17-9.06-4.28-4.09-8.32-7.95-16.42-7.95-8.1 0-12.13 3.86-16.41 7.95-4.44 4.25-9.48 9.06-19.18 9.06s-14.73-4.81-19.17-9.06c-4.28-4.09-8.32-7.95-16.42-7.95-8.1 0-12.13 3.86-16.41 7.95-4.44 4.25-9.48 9.06-19.18 9.06s-14.73-4.81-19.18-9.06c-4.27-4.09-8.31-7.95-16.41-7.95s-12.14 3.86-16.41 7.95c-4.45 4.25-9.48 9.06-19.18 9.06s-14.73-4.81-19.18-9.06c-4.27-4.09-8.31-7.95-16.4-7.95-8.1 0-12.14 3.86-16.42 7.95-4.44 4.25-9.48 9.06-19.17 9.06-9.7 0-14.74-4.81-19.18-9.06-4.28-4.09-8.32-7.95-16.41-7.95-8.1 0-12.14 3.86-16.41 7.95-4.44 4.25-9.48 9.06-19.18 9.06s-14.73-4.81-19.18-9.06c-4.27-4.09-8.31-7.95-16.41-7.95s-12.13 3.86-16.41 7.95c-4.44 4.25-9.48 9.06-19.18 9.06s-14.73-4.81-19.17-9.06c-4.28-4.09-8.32-7.95-16.42-7.95-8.1 0-12.13 3.86-16.41 7.95-4.44 4.25-9.48 9.06-19.18 9.06s-14.73-4.81-19.17-9.06c-4.28-4.09-8.32-7.95-16.42-7.95-8.1 0-12.13 3.86-16.41 7.95-4.44 4.25-9.48 9.06-19.18 9.06s-14.73-4.81-19.17-9.06c-4.28-4.09-8.32-7.95-16.42-7.95a2 2 0 0 1 0-4c9.7 0 14.74 4.81 19.18 9.06 4.28 4.09 8.32 7.95 16.41 7.95 8.1 0 12.14-3.86 16.41-7.95 4.45-4.25 9.48-9.06 19.18-9.06s14.74 4.81 19.18 9.06c4.28 4.09 8.31 7.95 16.41 7.95s12.14-3.86 16.41-7.95c4.45-4.25 9.48-9.06 19.18-9.06s14.74 4.81 19.18 9.06c4.28 4.09 8.32 7.95 16.41 7.95 8.1 0 12.14-3.86 16.41-7.95 4.44-4.25 9.48-9.06 19.18-9.06s14.73 4.81 19.18 9.06c4.27 4.09 8.31 7.95 16.41 7.95s12.13-3.86 16.41-7.95c4.44-4.25 9.48-9.06 19.18-9.06s14.73 4.81 19.17 9.06c4.28 4.09 8.32 7.95 16.41 7.95 8.1 0 12.14-3.86 16.41-7.95 4.45-4.25 9.48-9.06 19.18-9.06s14.73 4.81 19.18 9.06c4.27 4.09 8.31 7.95 16.4 7.95 8.1 0 12.14-3.86 16.42-7.95 4.44-4.25 9.48-9.06 19.18-9.06s14.73 4.81 19.18 9.06c4.27 4.09 8.31 7.95 16.4 7.95 8.1 0 12.15-3.86 16.42-7.95 4.44-4.25 9.48-9.06 19.18-9.06s14.73 4.81 19.18 9.06c4.27 4.09 8.31 7.95 16.41 7.95s12.13-3.86 16.41-7.95c4.44-4.25 9.48-9.06 19.18-9.06s14.74 4.81 19.18 9.06c4.28 4.09 8.32 7.95 16.41 7.95 8.1 0 12.14-3.86 16.41-7.95 4.45-4.25 9.48-9.06 19.18-9.06s14.74 4.81 19.18 9.06c4.28 4.09 8.32 7.95 16.41 7.95 8.1 0 12.14-3.86 16.42-7.95 4.44-4.25 9.48-9.06 19.18-9.06s14.73 4.81 19.18 9.06c4.27 4.09 8.32 7.95 16.41 7.95 8.1 0 12.14-3.86 16.41-7.95 4.44-4.25 9.48-9.06 19.18-9.06s14.74 4.81 19.18 9.06c4.28 4.09 8.32 7.95 16.41 7.95 8.1 0 12.14-3.86 16.42-7.95 4.44-4.25 9.48-9.06 19.18-9.06s14.73 4.81 19.18 9.06c4.27 4.09 8.32 7.95 16.41 7.95 8.1 0 12.14-3.86 16.42-7.95 4.44-4.25 9.48-9.06 19.18-9.06s14.73 4.81 19.18 9.06c4.28 4.09 8.32 7.95 16.42 7.95 8.1 0 12.13-3.86 16.41-7.95 4.45-4.25 9.48-9.06 19.19-9.06a2 2 0 0 1 0 4c-8.1 0-12.14 3.86-16.42 7.95-4.44 4.25-9.48 9.06-19.18 9.06Zm0 70.89c-9.7 0-14.74-4.81-19.18-9.06-4.28-4.09-8.32-7.95-16.42-7.95-8.1 0-12.13 3.86-16.41 7.95-4.44 4.25-9.48 9.06-19.18 9.06s-14.74-4.81-19.18-9.06c-4.28-4.09-8.32-7.95-16.42-7.95-8.1 0-12.13 3.86-16.41 7.95-4.45 4.25-9.48 9.06-19.18 9.06s-14.74-4.81-19.18-9.06c-4.28-4.09-8.32-7.95-16.41-7.95-8.1 0-12.14 3.86-16.42 7.95-4.44 4.25-9.47 9.06-19.17 9.06-9.7 0-14.74-4.81-19.18-9.06-4.28-4.09-8.32-7.95-16.42-7.95-8.1 0-12.13 3.86-16.41 7.95-4.44 4.25-9.48 9.06-19.18 9.06s-14.74-4.81-19.18-9.06c-4.28-4.09-8.32-7.95-16.41-7.95-8.1 0-12.14 3.86-16.42 7.95-4.44 4.25-9.48 9.06-19.17 9.06-9.7 0-14.74-4.81-19.18-9.06-4.28-4.09-8.32-7.95-16.42-7.95-8.1 0-12.13 3.86-16.41 7.95-4.44 4.25-9.48 9.06-19.18 9.06s-14.73-4.81-19.17-9.06c-4.28-4.09-8.32-7.95-16.42-7.95-8.1 0-12.13 3.86-16.41 7.95-4.44 4.25-9.48 9.06-19.18 9.06s-14.73-4.81-19.18-9.06c-4.27-4.09-8.31-7.95-16.41-7.95s-12.14 3.86-16.41 7.95c-4.45 4.25-9.48 9.06-19.18 9.06s-14.73-4.81-19.18-9.06c-4.27-4.09-8.31-7.95-16.4-7.95-8.1 0-12.14 3.86-16.42 7.95-4.44 4.25-9.48 9.06-19.17 9.06-9.7 0-14.74-4.81-19.18-9.06-4.28-4.09-8.32-7.95-16.41-7.95-8.1 0-12.14 3.86-16.41 7.95-4.44 4.25-9.48 9.06-19.18 9.06s-14.73-4.81-19.18-9.06c-4.27-4.09-8.31-7.95-16.4-7.95-8.1 0-12.14 3.86-16.42 7.95-4.44 4.25-9.48 9.06-19.18 9.06s-14.73-4.81-19.17-9.06c-4.28-4.09-8.32-7.95-16.42-7.95-8.1 0-12.13 3.86-16.41 7.95-4.44 4.25-9.48 9.06-19.18 9.06s-14.73-4.81-19.17-9.06c-4.28-4.09-8.32-7.95-16.42-7.95-8.1 0-12.13 3.86-16.41 7.95-4.44 4.25-9.48 9.06-19.18 9.06s-14.73-4.81-19.17-9.06c-4.28-4.09-8.32-7.95-16.42-7.95a2 2 0 0 1 0-4c9.7 0 14.74 4.81 19.18 9.06 4.28 4.09 8.32 7.95 16.41 7.95 8.1 0 12.14-3.86 16.42-7.95 4.44-4.25 9.47-9.06 19.17-9.06 9.7 0 14.74 4.81 19.18 9.06 4.28 4.09 8.32 7.95 16.41 7.95 8.1 0 12.14-3.86 16.42-7.95 4.44-4.25 9.47-9.06 19.17-9.06 9.7 0 14.74 4.81 19.18 9.06 4.28 4.09 8.32 7.95 16.41 7.95 8.1 0 12.14-3.86 16.41-7.95 4.45-4.25 9.48-9.06 19.18-9.06s14.74 4.81 19.18 9.06c4.28 4.09 8.31 7.95 16.41 7.95s12.13-3.86 16.41-7.95c4.44-4.25 9.48-9.06 19.18-9.06s14.73 4.81 19.17 9.06c4.28 4.09 8.32 7.95 16.41 7.95 8.1 0 12.14-3.86 16.41-7.95 4.45-4.25 9.48-9.06 19.18-9.06s14.74 4.81 19.18 9.06c4.27 4.09 8.31 7.95 16.4 7.95 8.1 0 12.14-3.86 16.42-7.95 4.44-4.25 9.48-9.06 19.18-9.06s14.73 4.81 19.18 9.06c4.27 4.09 8.31 7.95 16.41 7.95s12.14-3.86 16.41-7.95c4.44-4.25 9.48-9.06 19.18-9.06s14.73 4.81 19.18 9.06c4.27 4.09 8.31 7.95 16.41 7.95s12.13-3.86 16.41-7.95c4.44-4.25 9.48-9.06 19.18-9.06s14.73 4.81 19.18 9.06c4.27 4.09 8.31 7.95 16.41 7.95s12.14-3.86 16.41-7.95c4.45-4.25 9.48-9.06 19.18-9.06s14.74 4.81 19.18 9.06c4.28 4.09 8.32 7.95 16.41 7.95 8.1 0 12.14-3.86 16.42-7.95 4.44-4.25 9.48-9.06 19.18-9.06s14.74 4.81 19.18 9.06c4.28 4.09 8.32 7.95 16.41 7.95 8.1 0 12.14-3.86 16.41-7.95 4.45-4.25 9.48-9.06 19.18-9.06s14.74 4.81 19.18 9.06c4.28 4.09 8.32 7.95 16.41 7.95 8.1 0 12.14-3.86 16.42-7.95 4.44-4.25 9.48-9.06 19.18-9.06s14.74 4.81 19.18 9.06c4.28 4.09 8.32 7.95 16.41 7.95 8.1 0 12.14-3.86 16.42-7.95 4.44-4.25 9.48-9.06 19.18-9.06s14.74 4.81 19.18 9.06c4.28 4.09 8.32 7.95 16.42 7.95 8.1 0 12.14-3.86 16.42-7.95 4.44-4.25 9.47-9.06 19.18-9.06a2 2 0 0 1 0 4c-8.1 0-12.14 3.86-16.42 7.95-4.44 4.25-9.48 9.06-19.18 9.06Zm0 71.83c-9.7 0-14.74-4.8-19.18-9.06-4.28-4.08-8.32-7.95-16.42-7.95-8.1 0-12.13 3.87-16.41 7.95-4.44 4.25-9.48 9.07-19.18 9.07s-14.74-4.82-19.18-9.07c-4.28-4.08-8.32-7.95-16.42-7.95-8.1 0-12.13 3.87-16.41 7.95-4.45 4.25-9.48 9.07-19.18 9.07s-14.74-4.82-19.18-9.07c-4.28-4.08-8.32-7.95-16.41-7.95-8.1 0-12.14 3.87-16.42 7.95-4.44 4.25-9.47 9.07-19.17 9.07-9.7 0-14.74-4.82-19.18-9.07-4.28-4.08-8.32-7.95-16.42-7.95-8.1 0-12.13 3.87-16.41 7.95-4.44 4.25-9.48 9.07-19.18 9.07s-14.74-4.82-19.18-9.07c-4.28-4.08-8.32-7.95-16.41-7.95-8.1 0-12.14 3.87-16.42 7.95-4.44 4.25-9.48 9.07-19.17 9.07-9.7 0-14.74-4.82-19.18-9.07-4.28-4.08-8.32-7.95-16.42-7.95-8.1 0-12.13 3.87-16.41 7.95-4.44 4.25-9.48 9.07-19.18 9.07s-14.73-4.82-19.17-9.07c-4.28-4.08-8.32-7.95-16.42-7.95-8.1 0-12.13 3.87-16.41 7.95-4.44 4.25-9.48 9.07-19.18 9.07s-14.73-4.82-19.18-9.07c-4.27-4.08-8.31-7.95-16.41-7.95s-12.14 3.87-16.41 7.95c-4.45 4.25-9.48 9.07-19.18 9.07s-14.73-4.82-19.18-9.07c-4.27-4.08-8.31-7.95-16.4-7.95-8.1 0-12.14 3.87-16.42 7.95-4.44 4.25-9.48 9.07-19.17 9.07-9.7 0-14.74-4.82-19.18-9.07-4.28-4.08-8.32-7.95-16.41-7.95-8.1 0-12.14 3.87-16.41 7.95-4.44 4.25-9.48 9.07-19.18 9.07s-14.73-4.82-19.18-9.07c-4.27-4.08-8.31-7.95-16.4-7.95-8.1 0-12.14 3.87-16.42 7.95-4.44 4.25-9.48 9.07-19.18 9.07s-14.73-4.82-19.17-9.07c-4.28-4.08-8.32-7.95-16.42-7.95-8.1 0-12.13 3.87-16.41 7.95-4.44 4.25-9.48 9.07-19.18 9.07s-14.73-4.82-19.17-9.07c-4.28-4.08-8.32-7.95-16.42-7.95-8.1 0-12.13 3.87-16.41 7.95-4.44 4.25-9.48 9.07-19.18 9.07s-14.73-4.82-19.17-9.07c-4.28-4.08-8.32-7.95-16.42-7.95a2 2 0 0 1 0-4c9.7 0 14.74 4.82 19.18 9.06 4.28 4.1 8.32 7.96 16.41 7.96 8.1 0 12.14-3.87 16.42-7.96 4.44-4.24 9.47-9.06 19.17-9.06 9.7 0 14.74 4.82 19.18 9.06 4.28 4.1 8.32 7.96 16.41 7.96 8.1 0 12.14-3.87 16.42-7.96 4.44-4.24 9.47-9.06 19.17-9.06 9.7 0 14.74 4.82 19.18 9.06 4.28 4.1 8.32 7.96 16.41 7.96 8.1 0 12.14-3.87 16.41-7.96 4.45-4.24 9.48-9.06 19.18-9.06s14.74 4.82 19.18 9.06c4.28 4.1 8.31 7.96 16.41 7.96s12.13-3.87 16.41-7.96c4.44-4.24 9.48-9.06 19.18-9.06s14.73 4.82 19.17 9.06c4.28 4.1 8.32 7.96 16.41 7.96 8.1 0 12.14-3.87 16.41-7.96 4.45-4.24 9.48-9.06 19.18-9.06s14.74 4.82 19.18 9.06c4.27 4.1 8.31 7.96 16.4 7.96 8.1 0 12.14-3.87 16.42-7.96 4.44-4.24 9.48-9.06 19.18-9.06s14.73 4.82 19.18 9.06c4.27 4.1 8.31 7.96 16.41 7.96s12.14-3.87 16.41-7.96c4.44-4.24 9.48-9.06 19.18-9.06s14.73 4.82 19.18 9.06c4.27 4.1 8.31 7.96 16.41 7.96s12.13-3.87 16.41-7.96c4.44-4.24 9.48-9.06 19.18-9.06s14.73 4.82 19.18 9.06c4.27 4.1 8.31 7.96 16.41 7.96s12.14-3.87 16.41-7.96c4.45-4.24 9.48-9.06 19.18-9.06s14.74 4.82 19.18 9.06c4.28 4.1 8.32 7.96 16.41 7.96 8.1 0 12.14-3.87 16.42-7.96 4.44-4.24 9.48-9.06 19.18-9.06s14.74 4.82 19.18 9.06c4.28 4.1 8.32 7.96 16.41 7.96 8.1 0 12.14-3.87 16.41-7.96 4.45-4.24 9.48-9.06 19.18-9.06s14.74 4.82 19.18 9.06c4.28 4.1 8.32 7.96 16.41 7.96 8.1 0 12.14-3.87 16.42-7.96 4.44-4.24 9.48-9.06 19.18-9.06s14.74 4.82 19.18 9.06c4.28 4.1 8.32 7.96 16.41 7.96 8.1 0 12.14-3.87 16.42-7.96 4.44-4.24 9.48-9.06 19.18-9.06s14.74 4.82 19.18 9.06c4.28 4.1 8.32 7.96 16.42 7.96 8.1 0 12.14-3.87 16.42-7.96 4.44-4.24 9.47-9.06 19.18-9.06a2 2 0 0 1 0 4c-8.1 0-12.14 3.87-16.42 7.95-4.44 4.25-9.48 9.07-19.18 9.07Z"/><path fill="#ffd829" d="m1324.68 276.63 15.93-10.4"/><path fill="#231f20" d="M1324.68 278.63a2 2 0 0 1-1.1-3.67l15.94-10.4a2 2 0 0 1 2.18 3.35l-15.93 10.4c-.34.22-.71.32-1.09.32Z"/><path fill="#ffd829" d="m1333.5 294.43 15.93-10.4"/><path fill="#231f20" d="M1333.5 296.43a2 2 0 0 1-1.1-3.67l15.94-10.4a2 2 0 0 1 2.18 3.35l-15.93 10.4c-.33.22-.71.32-1.09.32Z"/><path fill="#ffd829" d="m1340.27 312.23 15.93-10.4"/><path fill="#231f20" d="M1340.28 314.23a2 2 0 0 1-1.1-3.67l15.93-10.4a2 2 0 1 1 2.19 3.35l-15.93 10.4a2 2 0 0 1-1.1.32Z"/><path fill="#ffd829" d="m1044.8 428.87 1.3-18.76"/><path fill="#231f20" d="m1044.8 430.87-.14-.01a2 2 0 0 1-1.86-2.13l1.3-18.76a2 2 0 1 1 3.99.28l-1.3 18.75a2 2 0 0 1-2 1.87Z"/><path fill="#fff" d="m1218.83 301.17-77.9-54.48 2.3-3.28 77.9 54.48Z"/><g fill="#fff"><path d="M1220.83 344.47a7.93 7.93 0 0 1-6.47-12.51l34.1-48.27a7.93 7.93 0 1 1 12.95 9.16l-34.1 48.26a7.93 7.93 0 0 1-6.48 3.36Z"/><path d="M1208.75 325.34a7.94 7.94 0 0 1-1.34-15.75l58.24-10.02a7.94 7.94 0 0 1 2.7 15.64l-58.24 10.02c-.46.08-.91.11-1.36.11Z"/><path d="M1262 337.39a7.9 7.9 0 0 1-4.57-1.46l-48.26-34.1a7.93 7.93 0 1 1 9.15-12.96l48.27 34.1a7.93 7.93 0 0 1-4.58 14.42Z"/><path d="M1242.88 349.46a7.94 7.94 0 0 1-7.81-6.6l-10.02-58.24a7.93 7.93 0 0 1 15.64-2.69l10.01 58.25a7.93 7.93 0 0 1-7.82 9.28Z"/></g><path fill="#ffd829" d="m1378.7 553.5-8.78-16.64"/><path fill="#231f20" d="M1378.7 555.5a2 2 0 0 1-1.77-1.07l-8.78-16.63a2 2 0 1 1 3.54-1.87l8.78 16.63a2 2 0 0 1-1.77 2.93Z"/><path fill="#fff" d="M1461.96 582.88c-9.7 0-14.74-4.81-19.18-9.06-4.27-4.09-8.32-7.95-16.41-7.95-8.1 0-12.14 3.86-16.41 7.95-4.44 4.25-9.48 9.06-19.18 9.06s-14.74-4.81-19.18-9.06c-4.28-4.09-8.32-7.95-16.41-7.95-8.1 0-12.14 3.86-16.42 7.95-4.44 4.25-9.47 9.06-19.17 9.06-9.7 0-14.74-4.81-19.18-9.06-4.28-4.09-8.32-7.95-16.41-7.95-8.1 0-12.13 3.86-16.41 7.95-4.44 4.25-9.48 9.06-19.18 9.06s-14.73-4.81-19.17-9.06c-4.28-4.09-8.32-7.95-16.41-7.95-8.1 0-12.14 3.86-16.42 7.95-4.44 4.25-9.47 9.06-19.17 9.06-9.7 0-14.74-4.81-19.18-9.06-4.28-4.09-8.32-7.95-16.41-7.95-8.1 0-12.14 3.86-16.41 7.95-4.44 4.25-9.48 9.06-19.18 9.06s-14.73-4.81-19.18-9.06c-4.27-4.09-8.31-7.95-16.4-7.95-8.1 0-12.15 3.86-16.42 7.95-4.44 4.25-9.48 9.06-19.18 9.06s-14.73-4.81-19.18-9.06c-4.27-4.09-8.31-7.95-16.4-7.95-8.1 0-12.15 3.86-16.42 7.95-4.44 4.25-9.48 9.06-19.18 9.06s-14.73-4.81-19.18-9.06c-4.27-4.09-8.31-7.95-16.41-7.95a2 2 0 0 1 0-4c9.7 0 14.74 4.81 19.18 9.06 4.28 4.09 8.32 7.95 16.41 7.95 8.1 0 12.14-3.86 16.41-7.95 4.45-4.25 9.48-9.06 19.18-9.06s14.74 4.81 19.18 9.06c4.27 4.09 8.32 7.95 16.41 7.95 8.1 0 12.14-3.86 16.41-7.95 4.44-4.25 9.48-9.06 19.18-9.06s14.73 4.81 19.18 9.06c4.27 4.09 8.32 7.95 16.41 7.95 8.1 0 12.13-3.86 16.41-7.95 4.44-4.25 9.48-9.06 19.18-9.06s14.73 4.81 19.17 9.06c4.28 4.09 8.32 7.95 16.42 7.95 8.1 0 12.13-3.86 16.41-7.95 4.44-4.25 9.48-9.06 19.18-9.06s14.73 4.81 19.17 9.06c4.28 4.09 8.32 7.95 16.41 7.95 8.1 0 12.14-3.86 16.41-7.95 4.45-4.25 9.48-9.06 19.18-9.06s14.73 4.81 19.17 9.06c4.28 4.09 8.32 7.95 16.42 7.95 8.1 0 12.13-3.86 16.41-7.95 4.44-4.25 9.48-9.06 19.18-9.06s14.73 4.81 19.17 9.06c4.28 4.09 8.32 7.95 16.42 7.95 8.1 0 12.14-3.86 16.41-7.95 4.44-4.25 9.48-9.06 19.18-9.06s14.73 4.81 19.18 9.06c4.27 4.09 8.31 7.95 16.41 7.95s12.13-3.86 16.41-7.95c4.44-4.25 9.48-9.06 19.18-9.06a2 2 0 0 1 0 4c-8.1 0-12.14 3.86-16.41 7.95-4.45 4.25-9.48 9.06-19.18 9.06Zm0 70.88c-9.7 0-14.74-4.81-19.18-9.06-4.27-4.1-8.32-7.95-16.41-7.95-8.1 0-12.14 3.86-16.41 7.95-4.44 4.24-9.48 9.06-19.18 9.06s-14.74-4.81-19.18-9.06c-4.28-4.1-8.32-7.95-16.41-7.95-8.1 0-12.14 3.86-16.42 7.95-4.44 4.24-9.47 9.06-19.17 9.06-9.7 0-14.74-4.81-19.18-9.06-4.28-4.1-8.32-7.95-16.41-7.95-8.1 0-12.13 3.86-16.41 7.95-4.44 4.24-9.48 9.06-19.18 9.06s-14.73-4.81-19.17-9.06c-4.28-4.1-8.32-7.95-16.41-7.95-8.1 0-12.14 3.86-16.42 7.95-4.44 4.24-9.47 9.06-19.17 9.06-9.7 0-14.74-4.81-19.18-9.06-4.28-4.1-8.32-7.95-16.41-7.95-8.1 0-12.14 3.86-16.41 7.95-4.44 4.24-9.48 9.06-19.18 9.06s-14.73-4.81-19.18-9.06c-4.27-4.1-8.31-7.95-16.4-7.95-8.1 0-12.15 3.86-16.42 7.95-4.44 4.24-9.48 9.06-19.18 9.06s-14.73-4.81-19.18-9.06c-4.27-4.1-8.31-7.95-16.4-7.95-8.1 0-12.15 3.86-16.42 7.95-4.44 4.24-9.48 9.06-19.18 9.06s-14.73-4.81-19.18-9.06c-4.27-4.1-8.31-7.95-16.41-7.95a2 2 0 0 1 0-4c9.7 0 14.74 4.8 19.18 9.06 4.28 4.09 8.32 7.95 16.41 7.95 8.1 0 12.14-3.86 16.41-7.95 4.45-4.25 9.48-9.06 19.18-9.06s14.74 4.8 19.18 9.06c4.27 4.09 8.32 7.95 16.41 7.95 8.1 0 12.14-3.86 16.41-7.95 4.44-4.25 9.48-9.06 19.18-9.06s14.73 4.8 19.18 9.06c4.27 4.09 8.32 7.95 16.41 7.95 8.1 0 12.13-3.86 16.41-7.95 4.44-4.25 9.48-9.06 19.18-9.06s14.73 4.8 19.17 9.06c4.28 4.09 8.32 7.95 16.42 7.95 8.1 0 12.13-3.86 16.41-7.95 4.44-4.25 9.48-9.06 19.18-9.06s14.73 4.8 19.17 9.06c4.28 4.09 8.32 7.95 16.41 7.95 8.1 0 12.14-3.86 16.41-7.95 4.45-4.25 9.48-9.06 19.18-9.06s14.73 4.8 19.17 9.06c4.28 4.09 8.32 7.95 16.42 7.95 8.1 0 12.13-3.86 16.41-7.95 4.44-4.25 9.48-9.06 19.18-9.06s14.73 4.8 19.17 9.06c4.28 4.09 8.32 7.95 16.42 7.95 8.1 0 12.14-3.86 16.41-7.95 4.44-4.25 9.48-9.06 19.18-9.06s14.73 4.8 19.18 9.06c4.27 4.09 8.31 7.95 16.41 7.95s12.13-3.86 16.41-7.95c4.44-4.25 9.48-9.06 19.18-9.06a2 2 0 0 1 0 4c-8.1 0-12.14 3.86-16.41 7.95-4.45 4.24-9.48 9.06-19.18 9.06Zm0 71.82c-9.7 0-14.74-4.81-19.18-9.06-4.27-4.09-8.32-7.95-16.41-7.95-8.1 0-12.14 3.86-16.41 7.95-4.44 4.25-9.48 9.06-19.18 9.06s-14.74-4.81-19.18-9.06c-4.28-4.09-8.32-7.95-16.41-7.95-8.1 0-12.14 3.86-16.42 7.95-4.44 4.25-9.47 9.06-19.17 9.06-9.7 0-14.74-4.81-19.18-9.06-4.28-4.09-8.32-7.95-16.41-7.95-8.1 0-12.13 3.86-16.41 7.95-4.44 4.25-9.48 9.06-19.18 9.06s-14.73-4.81-19.17-9.06c-4.28-4.09-8.32-7.95-16.41-7.95-8.1 0-12.14 3.86-16.42 7.95-4.44 4.25-9.47 9.06-19.17 9.06-9.7 0-14.74-4.81-19.18-9.06-4.28-4.09-8.32-7.95-16.41-7.95-8.1 0-12.14 3.86-16.41 7.95-4.44 4.25-9.48 9.06-19.18 9.06s-14.73-4.81-19.18-9.06c-4.27-4.09-8.31-7.95-16.4-7.95-8.1 0-12.15 3.86-16.42 7.95-4.44 4.25-9.48 9.06-19.18 9.06s-14.73-4.81-19.18-9.06c-4.27-4.09-8.31-7.95-16.4-7.95-8.1 0-12.15 3.86-16.42 7.95-4.44 4.25-9.48 9.06-19.18 9.06s-14.73-4.81-19.18-9.06c-4.27-4.09-8.31-7.95-16.41-7.95a2 2 0 0 1 0-4c9.7 0 14.74 4.81 19.18 9.06 4.28 4.09 8.32 7.95 16.41 7.95 8.1 0 12.14-3.86 16.41-7.95 4.45-4.25 9.48-9.06 19.18-9.06s14.74 4.81 19.18 9.06c4.27 4.09 8.32 7.95 16.41 7.95 8.1 0 12.14-3.86 16.41-7.95 4.44-4.25 9.48-9.06 19.18-9.06s14.73 4.81 19.18 9.06c4.27 4.09 8.32 7.95 16.41 7.95 8.1 0 12.13-3.86 16.41-7.95 4.44-4.25 9.48-9.06 19.18-9.06s14.73 4.81 19.17 9.06c4.28 4.09 8.32 7.95 16.42 7.95 8.1 0 12.13-3.86 16.41-7.95 4.44-4.25 9.48-9.06 19.18-9.06s14.73 4.81 19.17 9.06c4.28 4.09 8.32 7.95 16.41 7.95 8.1 0 12.14-3.86 16.41-7.95 4.45-4.25 9.48-9.06 19.18-9.06s14.73 4.81 19.17 9.06c4.28 4.09 8.32 7.95 16.42 7.95 8.1 0 12.13-3.86 16.41-7.95 4.44-4.25 9.48-9.06 19.18-9.06s14.73 4.81 19.17 9.06c4.28 4.09 8.32 7.95 16.42 7.95 8.1 0 12.14-3.86 16.41-7.95 4.44-4.25 9.48-9.06 19.18-9.06s14.73 4.81 19.18 9.06c4.27 4.09 8.31 7.95 16.41 7.95s12.13-3.86 16.41-7.95c4.44-4.25 9.48-9.06 19.18-9.06a2 2 0 0 1 0 4c-8.1 0-12.14 3.86-16.41 7.95-4.45 4.25-9.48 9.06-19.18 9.06ZM305.37 57.26a7.73 7.73 0 1 1-15.46 0 7.73 7.73 0 0 1 15.46 0ZM256.44 8.33a7.73 7.73 0 1 1-15.45 0 7.73 7.73 0 0 1 15.45 0ZM1319.78 77.3a2 2 0 0 1-2-2V39.31a2 2 0 0 1 4 0v35.97a2 2 0 0 1-2 2Zm0 49.29a2 2 0 0 1-2-2V88.6a2 2 0 0 1 4 0v35.98a2 2 0 0 1-2 2Zm42.63-42.64h-35.97a2 2 0 0 1 0-4h35.97a2 2 0 0 1 0 4Zm-49.29 0h-35.98a2 2 0 0 1 0-4h35.97a2 2 0 0 1 0 4ZM510.13 150.6a2 2 0 0 1-2-2v-23.46a2 2 0 0 1 4 0v23.46a2 2 0 0 1-2 2Zm0 32.15a2 2 0 0 1-2-2V157.3a2 2 0 0 1 4 0v23.46a2 2 0 0 1-2 2Zm27.81-27.81h-23.46a2 2 0 0 1 0-4h23.46a2 2 0 0 1 0 4Zm-32.15 0h-23.46a2 2 0 0 1 0-4h23.46a2 2 0 0 1 0 4Zm931.57 55.21a2 2 0 0 1-2-2v-23.46a2 2 0 0 1 4 0v23.46a2 2 0 0 1-2 2Zm0 32.15a2 2 0 0 1-2-2v-23.46a2 2 0 0 1 4 0v23.46a2 2 0 0 1-2 2Zm27.81-27.8h-23.46a2 2 0 0 1 0-4h23.46a2 2 0 0 1 0 4Zm-32.15 0h-23.46a2 2 0 0 1 0-4h23.46a2 2 0 0 1 0 4ZM936.2 95.45a7.73 7.73 0 1 1-15.46 0 7.73 7.73 0 0 1 15.46 0Zm-879.03 44.1a7.73 7.73 0 1 1-15.45 0 7.73 7.73 0 0 1 15.45 0Z"/></svg>