<svg xmlns="http://www.w3.org/2000/svg" viewBox="210.44 150.6 1499.11 725"><path fill="#FFD829" d="m1333.65 313.27-15.87-17.38s-3.25-5.77 5.26-10.17"/><path fill="#231F20" d="M1333.65 315.27a2 2 0 0 1-1.48-.65l-15.87-17.38a2.04 2.04 0 0 1-.27-.37 8.04 8.04 0 0 1-.52-5.99c.82-2.76 3.05-5.1 6.6-6.94a2 2 0 0 1 1.84 3.55c-2.52 1.3-4.11 2.87-4.6 4.54a4.2 4.2 0 0 0 .1 2.73l15.68 17.17a2 2 0 0 1-1.48 3.34z"/><path fill="#FFD829" d="m1239.17 630.23 16.93 78.1 3.64 16.77c5.67-4.93 9.91-11.23 20.74-11.23 17.8 0 17.8 17.01 35.6 17.01 17.79 0 17.79-17.01 35.58-17.01 4.9 0 8.44 1.29 11.39 3.16l-26.15-109.96 113.19-163-.18-.12 21.32-30.78c3.3-4.7 23.5-26.8 1.11-42.6l-82.37-58.73-49.5-34.72a10.38 10.38 0 0 0-14.46 2.53 10.34 10.34 0 0 0-1.72 7.75l34.93 94.11-117.48 169.17c-4.96 7.13-9.21 13.5-10.75 22.35-1.51 8.67-.42 17.54 1.43 26.06l6.75 31.14zm-208.15 100.18c16.93 0 17.77-15.38 33.12-16.89v-68.27h-70.7v68.23c.64-.05 1.3-.08 1.99-.08 17.8 0 17.8 17 35.6 17zm-519.06-85.16v73.88"/><path d="M511.96 721.13a2 2 0 0 1-2-2v-73.88a2 2 0 0 1 4 0v73.88a2 2 0 0 1-2 2z"/><path fill="#FFD829" d="M582.67 718.74v-73.49"/><path d="M582.67 720.74a2 2 0 0 1-2-2v-73.49a2 2 0 0 1 4 0v73.49a2 2 0 0 1-2 2z"/><path fill="#FFD829" d="M993.43 645.25v68.23"/><path d="M993.43 715.48a2 2 0 0 1-2-2v-68.23a2 2 0 0 1 4 0v68.23a2 2 0 0 1-2 2z"/><path fill="#FFD829" d="M1064.14 713.52v-68.27"/><path d="M1064.14 715.52a2 2 0 0 1-2-2v-68.27a2 2 0 0 1 4 0v68.27a2 2 0 0 1-2 2z"/><path fill="#231F20" d="m1257.78 725.53-27.32-126.02c-1.46-6.71-3.19-16.8-1.44-26.82 1.56-8.93 5.57-15.23 11.07-23.15l116.9-168.3-34.64-93.32-.03-.18a12.29 12.29 0 0 1 2.06-9.24 12.4 12.4 0 0 1 17.24-3.02l49.5 34.72 82.39 58.73c6.35 4.5 10.06 9.92 11 16.13 1.78 11.72-6.82 22.94-10.5 27.73-.48.62-.87 1.13-1.14 1.52l-20.18 29.13.19.13-113.83 163.9 25.94 109.1-3.89.92-26.35-110.83.5-.73 112.06-161.35-.19-.13 22.47-32.42c.3-.44.73-1 1.25-1.67 3.36-4.39 11.24-14.66 9.72-24.7-.78-5.1-3.93-9.62-9.37-13.47l-82.38-58.72-49.48-34.72a8.4 8.4 0 0 0-11.67 2.05 8.32 8.32 0 0 0-1.43 6.08l35.23 94.92-.6.85-117.48 169.17c-5.2 7.5-9 13.43-10.42 21.55-1.63 9.33.03 18.9 1.41 25.3l27.32 126-3.9.86z"/><path fill="#FFD829" d="m1407.64 554.97-.2.1 84.44 158.9a25.09 25.09 0 0 1 2.13-.1c17.8 0 17.8 17.01 35.59 17.01 17.8 0 17.8-17.01 35.59-17.01 17.8 0 17.8 17.01 35.6 17.01 2.24 0 4.2-.27 5.96-.75 2.05-6.84 3.4-13.93 3-21.1-.47-8.96-3.95-15.8-8.02-23.46-.15-.28-59.47-110.44-87.95-164.03l56.97-49.23-.07-.15a11 11 0 0 0-4.15-20.17 10.97 10.97 0 0 0 2.33-6.77c0-5.66-4.27-10.32-9.76-10.95a10.98 10.98 0 0 0 2.52-7c0-6.09-4.93-11.02-11-11.03a10.99 10.99 0 0 0 .92-4.41c0-6.09-4.94-11.03-11.03-11.03-3.05 0-3.78 1.1-7.8 3.25l-49.93 26.83-88.74 48.57c-24.1 13.05-6.65 37.38-3.93 42.43l17.53 33.1z"/><path fill="#231F20" d="M1606.74 732.13a2 2 0 0 1-1.91-2.57c2.3-7.67 3.26-14.35 2.93-20.42-.44-8.23-3.51-14.57-7.8-22.63l-.97-1.81A45463.87 45463.87 0 0 1 1512 522.48a2 2 0 0 1 .46-2.45l56.4-48.73a2 2 0 0 1 .73-.83 8.99 8.99 0 0 0 4.19-7.6 8.97 8.97 0 0 0-7.58-8.9 2 2 0 0 1-1.26-3.2 8.94 8.94 0 0 0 1.9-5.55 9.02 9.02 0 0 0-7.98-8.96 2 2 0 0 1-1.32-3.26 9.04 9.04 0 0 0 2.06-5.73 9.04 9.04 0 0 0-9-9.03 2 2 0 0 1-1.83-2.8 8.95 8.95 0 0 0 .75-3.61 9.04 9.04 0 0 0-9.02-9.03c-1.68 0-2.3.37-4.14 1.46-.71.42-1.6.95-2.73 1.55l-49.92 26.83L1395 481.2c-5.86 3.18-9.52 7.3-10.9 12.27-2.7 9.79 3.91 20.92 6.74 25.67.44.74.8 1.34 1.04 1.8l17.54 33.1c.15.28.23.6.23.92l83.4 156.93.97-.02a2 2 0 0 1 0 4c-.6 0-1.23.03-1.96.1a2.01 2.01 0 0 1-1.94-1.06L1405.67 556a1.99 1.99 0 0 1-.23-.92l-17.1-32.27c-.22-.4-.55-.96-.95-1.64-3.09-5.19-10.3-17.35-7.15-28.77 1.67-6.06 5.99-11 12.84-14.72l88.74-48.56 49.93-26.84a48.32 48.32 0 0 0 2.58-1.47c2.05-1.21 3.4-2.02 6.18-2.02a13.04 13.04 0 0 1 12.74 15.72 13.06 13.06 0 0 1 9.04 18.47 13.02 13.02 0 0 1 8.57 12.23c0 1.95-.43 3.84-1.25 5.56a12.95 12.95 0 0 1 8.18 12.09 12.95 12.95 0 0 1-5.34 10.5 1.93 1.93 0 0 1-.4.46l-55.76 48.19a46614.86 46614.86 0 0 0 86.22 160.79l.98 1.82c4.53 8.52 7.77 15.25 8.26 24.3.35 6.54-.66 13.66-3.1 21.78a2 2 0 0 1-1.9 1.42z"/><path fill="#FFD829" d="M982.52 677.1 783.47 524.4a34.72 34.72 0 0 1-7.88-49.99l74.23-95.49c.12-.3 2.57-6.4 2.93-12.95a20.02 20.02 0 0 1 5.22-14.5l11.62-14.8 14.54-18.5 20.05-25.84.04.03a10.45 10.45 0 1 1 15.8 13.64l-19.46 25.07.07.05 20.46-26.35 4.36-5.57a10.44 10.44 0 0 1 16 13.4c-.2.26-4.71 6.12-4.94 6.36l-19.44 25.07.06.05 20.05-25.83 8.28-10.75-.26.34c3.56-4.54 10.4-5.67 14.94-2.1a10.45 10.45 0 0 1 1.76 14.66c-.2.26-8.66 11.28-8.88 11.52L933.57 357l.07.05 20.87-26.87 3.9-4.87a10.44 10.44 0 0 1 16.28 12.8l-3.75 4.98 3.57-4.69c-.18.27-4.14 5.5-4.35 5.75-.2.26-.42.5-.64.74l-24.81 31.89.19.46 21.48-16.69.03.04a10.45 10.45 0 0 1 12.83 16.5 9.97 9.97 0 0 1-.8.55l-41.4 32.16a30.47 30.47 0 0 1-1.63 1.37 29.48 29.48 0 0 1-19.09 6.2c-3.18.21-8.96 1.94-12.45 5.15l-49.7 64.53 86.92 66.5 1.06.82 33.63-44.2 44.1 33.55-33.7 44.3 38.66 29.55-42.32 59.52z"/><path d="M982.52 679.1a2 2 0 0 1-1.21-.42l-199-152.64a33.2 33.2 0 0 1-1.83-1.32 36.76 36.76 0 0 1-6.46-51.52l74.04-95.27a43.4 43.4 0 0 0 2.69-11.96 22.15 22.15 0 0 1 5.7-15.78l26.11-33.26 20.04-25.81c.1-.14.22-.25.34-.35a12.38 12.38 0 0 1 9.5-4.4c2.82 0 5.48.92 7.7 2.66a12.4 12.4 0 0 1 4.62 8.03 12.47 12.47 0 0 1 8.5-3.35c2.8 0 5.46.92 7.67 2.65a12.35 12.35 0 0 1 4.66 8.26 13.23 13.23 0 0 1 8.33-2.98c2.77 0 5.34.87 7.45 2.53a12.36 12.36 0 0 1 4.67 8.3 12.35 12.35 0 0 1-1.69 7.9 12.32 12.32 0 0 1 9.07 2.58 12.46 12.46 0 0 1 2.98 16.19l-.08.13-.14.23c-.26.4-4.4 5.84-4.44 5.88-.23.3-.46.56-.7.81l-16.13 20.74 10.24-7.96c.13-.1.28-.19.42-.25a12.33 12.33 0 0 1 7.25-2.34c3.88 0 7.47 1.76 9.84 4.82a12.37 12.37 0 0 1 2.52 9.18 12.36 12.36 0 0 1-5.58 8.9l-41.28 32.06a31.9 31.9 0 0 1-1.68 1.4 31.29 31.29 0 0 1-20.27 6.63c-2.77.21-7.9 1.73-11.02 4.5L857 486.68l84.79 64.89 32.4-42.6a2 2 0 0 1 2.81-.39l44.1 33.56a2 2 0 0 1 .39 2.8l-32.5 42.72 37.08 28.33a2 2 0 0 1 .42 2.75l-42.32 59.52a2 2 0 0 1-1.64.84zM905.5 293.91l-19.8 25.49-26.17 33.32a18.12 18.12 0 0 0-4.8 13.37 46.89 46.89 0 0 1-3.06 13.57c-.07.18-.17.35-.28.5l-74.22 95.5a32.76 32.76 0 0 0 7.51 47.17l197.4 151.41 40-56.25-37.13-28.38a2 2 0 0 1-.37-2.8l32.49-42.71-40.93-31.13-32.4 42.6a2 2 0 0 1-2.82.38l-1.06-.81-86.9-66.5a2 2 0 0 1-.38-2.82l49.7-64.52a2.02 2.02 0 0 1 .22-.26c3.63-3.33 9.75-5.4 13.68-5.66a1.82 1.82 0 0 1 .2 0 27.37 27.37 0 0 0 19.3-7.07l.11-.09 41.4-32.16a2.32 2.32 0 0 1 .15-.1 8.39 8.39 0 0 0 3.85-6.07 8.4 8.4 0 0 0-1.7-6.24 8.4 8.4 0 0 0-6.69-3.26c-1.89 0-3.68.61-5.17 1.77a2.04 2.04 0 0 1-.4.25l-21.12 16.4a2 2 0 0 1-3.1-.86l-.17-.43a2 2 0 0 1 .27-1.97l24.81-31.89.13-.15c.18-.19.36-.38.52-.6l.56-.73a2.14 2.14 0 0 1 .19-.3l3.69-4.89a8.46 8.46 0 0 0-2.08-10.89 8.35 8.35 0 0 0-5.2-1.8 8.4 8.4 0 0 0-5.86 2.36l-3.82 4.77-20.85 26.85a2 2 0 0 1-2.78.37 2.1 2.1 0 0 1-.82-1.36c-.07-.53.04-1.09.37-1.51l19.45-25.08.13-.15c.31-.39 5.56-7.2 7.53-9.78l1.23-1.6a8.39 8.39 0 0 0 1.74-6.22 8.4 8.4 0 0 0-3.17-5.63 7.98 7.98 0 0 0-4.98-1.68 9.14 9.14 0 0 0-7.14 3.45l-.06.07-7.95 10.32-20.05 25.84a2 2 0 0 1-2.82.35c-.86-.68-1.09-1.99-.41-2.86l19.45-25.07.14-.16c.26-.31 3.27-4.22 4.26-5.5l.54-.7a8.39 8.39 0 0 0 1.75-6.24 8.4 8.4 0 0 0-3.17-5.63 8.33 8.33 0 0 0-5.2-1.8 8.45 8.45 0 0 0-6.27 2.78l-4.32 5.52-20.45 26.35a2 2 0 0 1-2.78.37 2.1 2.1 0 0 1-.82-1.36c-.07-.53.04-1.1.37-1.52l19.45-25.07.13-.15.53-.6a8.46 8.46 0 0 0-1.44-11.86 8.37 8.37 0 0 0-5.2-1.8 8.4 8.4 0 0 0-6.6 3.15c-.1.15-.23.29-.36.4z"/><path fill="#FFF" d="m1067.9 645.43 17.51 13.4 3.91 2.98a13.48 13.48 0 0 1-18.9 2.53 13.57 13.57 0 0 1-1.6-1.46l-.53.13a13.49 13.49 0 0 1-26.06 6.38l-.07.02a13.49 13.49 0 0 1-26.06 6.37l-.13.04a13.48 13.48 0 0 1-26.07 6.37l-9.41 2.3-21.9-16.73 51.08-66.83 58.23 44.5z"/><path fill="#FFD829" d="M982.34 411.26a28.89 28.89 0 0 1 2.45 2.1 82.02 82.02 0 0 1 125.37 95.38 28.62 28.62 0 0 1 2.68 1.8 28.47 28.47 0 0 1-34.47 45.32 28.64 28.64 0 0 1-5-4.89A82 82 0 0 1 953.9 460.1a28.48 28.48 0 0 1-6.05-3.52 28.47 28.47 0 0 1 34.48-45.32z"/><path d="M1095.59 563.67a30.2 30.2 0 0 1-18.43-6.22 30.88 30.88 0 0 1-4.27-3.95 84.46 84.46 0 0 1-39.31 9.72 83.22 83.22 0 0 1-50.78-17.15 84.08 84.08 0 0 1-31.2-84.84 30.67 30.67 0 0 1-4.95-3.06 30.5 30.5 0 0 1-5.8-42.7 30.25 30.25 0 0 1 24.27-12.02 30.19 30.19 0 0 1 19.8 7.34 84.65 84.65 0 0 1 48.8-15.55 83.23 83.23 0 0 1 50.78 17.14c29.15 22.18 40.57 61.25 28.1 95.54a30.5 30.5 0 0 1 7.25 43.73 30.26 30.26 0 0 1-24.26 12.02zm-21.72-15.26 1.05 1.31a26.63 26.63 0 0 0 4.66 4.55 26.23 26.23 0 0 0 16 5.4c8.36 0 16.05-3.8 21.1-10.45a26.5 26.5 0 0 0-5.05-37.09 26 26 0 0 0-2.5-1.68l-1.44-.86.6-1.57c12.75-33 1.97-71.02-26.21-92.46a79.25 79.25 0 0 0-48.36-16.32 80.58 80.58 0 0 0-47.74 15.73l-1.35 1-1.22-1.16a27.3 27.3 0 0 0-2.29-1.96 26.23 26.23 0 0 0-16-5.4 26.3 26.3 0 0 0-21.09 10.44 26.5 26.5 0 0 0 5.05 37.1 26.64 26.64 0 0 0 5.62 3.27l1.55.67-.4 1.64a80.07 80.07 0 0 0 29.37 82.32 79.25 79.25 0 0 0 48.36 16.33 80.4 80.4 0 0 0 38.82-10l1.47-.81z"/><path fill="none" d="m1111.65 535.94-25.39 4.53"/><path d="M1086.26 542.47a2 2 0 0 1-.35-3.96l25.39-4.54a2 2 0 0 1 .7 3.94l-25.39 4.53a2.11 2.11 0 0 1-.35.03z"/><path fill="none" d="m960.89 421.25 2.4 25.68"/><path d="M963.3 448.93a2 2 0 0 1-2-1.81l-2.4-25.68a2 2 0 1 1 3.98-.37l2.4 25.68a2 2 0 0 1-1.99 2.18zm85.57 52.81a10.82 10.82 0 1 0 17.22 13.1 10.82 10.82 0 0 0-17.22-13.1z"/><path d="M1072.64 524.74h-.1a2 2 0 0 1-1.9-2.1 24.19 24.19 0 0 0-31.77-24.16 2 2 0 1 1-1.25-3.8 28.21 28.21 0 0 1 25.93 4.33 28.2 28.2 0 0 1 11.09 23.83 2 2 0 0 1-2 1.9z"/><circle cx="1001.29" cy="465.55" r="10.82"/><path d="M1016.45 482h-.1a2 2 0 0 1-1.9-2.1 24.2 24.2 0 0 0-9.52-20.46 24.2 24.2 0 0 0-22.24-3.7 2 2 0 1 1-1.26-3.8 28.2 28.2 0 0 1 25.93 4.32 28.2 28.2 0 0 1 11.09 23.83 2 2 0 0 1-2 1.9z"/><path fill="none" d="m1029.52 486.5-10.27 12.6"/><path d="M1019.25 501.1a2 2 0 0 1-1.55-3.26l10.27-12.6a2 2 0 0 1 2.81-.3 2 2 0 0 1 .3 2.82l-10.28 12.6a1.99 1.99 0 0 1-1.55.74z"/><path fill="#FFF" d="M991.71 489.53a27.7 27.7 0 0 0 44.1 33.56l-44.1-33.56z"/><path d="m983.06 414.38.68-.9a82.45 82.45 0 0 1 131.86 66.1 82.39 82.39 0 0 1-3.79 24.7l-3.87 5.1-124.88-95z"/><path fill="#FFF" d="M781.88 713.4c17.8 0 17.8 17 35.59 17 17.8 0 17.8-17 35.59-17 17.8 0 17.8 17 35.6 17s17.79-17 35.59-17c16.34 0 17.68 14.34 31.59 16.68l36.41-47.65L857.4 579.35 743.34 728.56l2.4 1.83.55.02c17.8 0 17.8-17.01 35.59-17.01z"/><path fill="#FFF" d="M939.12 546.92a34.15 34.15 0 1 0 54.26 41.48l33.38 25.51-51.58 67.47-122.45-93.6 51.57-67.47 34.82 26.61z"/><path fill="#FFF" d="m930.43 550.22-32.28-65.8-9.71-19.79-2.17-4.42a13.49 13.49 0 0 0-5.05 19.9l-.24.5a13.49 13.49 0 0 0-11.34 24.31l-.03.07a13.49 13.49 0 0 0-11.34 24.31l-.06.12a13.48 13.48 0 0 0-11.34 24.33c-.45.97-.93 1.89-1.38 2.79a16.67 16.67 0 0 0-3.2 9.81 16.77 16.77 0 0 0 31.04 8.8c18.48-8.28 35.49-14.32 55.04-23.92l2.06-1z"/><g fill="#FFF"><path d="M1113.93 499.88a7.93 7.93 0 0 1-7.93-7.93v-59.1a7.93 7.93 0 0 1 7.93-7.93 7.93 7.93 0 0 1 7.93 7.93v59.1a7.94 7.94 0 0 1-7.93 7.93z"/><path d="M1093.04 491.23a7.9 7.9 0 0 1-5.6-2.33 7.93 7.93 0 0 1 0-11.22l41.78-41.79a7.94 7.94 0 0 1 11.22 11.23l-41.79 41.78a7.92 7.92 0 0 1-5.6 2.33z"/><path d="M1143.48 470.33h-59.1a7.93 7.93 0 0 1 0-15.87h59.1a7.93 7.93 0 1 1 0 15.87z"/><path d="M1134.83 491.23a7.9 7.9 0 0 1-5.6-2.33l-41.8-41.79a7.93 7.93 0 0 1 0-11.22 7.93 7.93 0 0 1 11.22 0l41.8 41.8a7.94 7.94 0 0 1-5.62 13.54z"/></g><path fill="#FFD829" d="M568.34 713.4c6.64 0 10.8 2.37 14.33 5.34v-73.49h-70.71v73.88c5.7 4.94 9.93 11.28 20.8 11.28 17.78 0 17.78-17.01 35.58-17.01zm-56.38-68.15v73.88"/><path d="M511.96 721.13a2 2 0 0 1-2-2v-73.88a2 2 0 0 1 4 0v73.88a2 2 0 0 1-2 2z"/><path fill="#FFD829" d="M582.67 718.74v-73.49"/><path d="M582.67 720.74a2 2 0 0 1-2-2v-73.49a2 2 0 0 1 4 0v73.49a2 2 0 0 1-2 2z"/><path fill="#FFD829" d="M501.05 677.1 302 524.4a34.72 34.72 0 0 1-7.88-49.99l74.23-95.49c.12-.3 2.57-6.4 2.92-12.95a20 20 0 0 1 5.23-14.5l11.62-14.8 14.54-18.5 20.05-25.84.04.03a10.45 10.45 0 1 1 15.8 13.64l-19.46 25.07.07.05 20.46-26.35 4.36-5.57a10.44 10.44 0 0 1 16 13.4c-.2.26-4.72 6.13-4.94 6.36l-19.45 25.07.07.05 20.05-25.83 8.27-10.75-.25.34c3.56-4.53 10.4-5.67 14.93-2.1a10.45 10.45 0 0 1 1.77 14.66c-.2.26-8.66 11.29-8.89 11.52L452.1 357l.07.06 20.87-26.88 3.9-4.87a10.44 10.44 0 0 1 16.28 12.8l-3.75 4.98 3.58-4.69c-.18.28-4.15 5.5-4.35 5.76-.2.26-.42.5-.64.73l-24.81 31.89.18.46 21.48-16.69.03.04a.03.03 0 0 0 .02 0 10.45 10.45 0 1 1 12.01 17.05l-41.4 32.16a28.57 28.57 0 0 1-1.63 1.37 29.47 29.47 0 0 1-19.08 6.2c-3.19.22-8.97 1.94-12.45 5.15l-49.7 64.53 86.92 66.5 1.06.82 33.62-44.2 44.1 33.55-33.7 44.3 38.67 29.55-42.32 59.52z"/><path d="M501.05 679.1a2 2 0 0 1-1.22-.42l-199-152.64a33.98 33.98 0 0 1-1.82-1.32 36.76 36.76 0 0 1-6.46-51.52l74.04-95.26a43.2 43.2 0 0 0 2.68-11.97 22.14 22.14 0 0 1 5.7-15.78l26.12-33.25 20.04-25.82c.1-.13.21-.25.34-.35a12.38 12.38 0 0 1 9.5-4.4c2.82 0 5.47.92 7.69 2.66a12.4 12.4 0 0 1 4.63 8.03 12.46 12.46 0 0 1 8.5-3.35 12.3 12.3 0 0 1 7.67 2.66 12.36 12.36 0 0 1 4.66 8.25 13.23 13.23 0 0 1 8.33-2.98c2.76 0 5.34.88 7.45 2.53a12.36 12.36 0 0 1 4.67 8.3 12.36 12.36 0 0 1-1.7 7.9 12.32 12.32 0 0 1 9.07 2.58 12.46 12.46 0 0 1 2.99 16.19 2 2 0 0 1-.09.13 2.6 2.6 0 0 1-.13.23c-.26.4-4.4 5.84-4.44 5.88-.23.3-.46.56-.7.81l-16.13 20.74 10.24-7.96a2 2 0 0 1 .42-.25 12.33 12.33 0 0 1 7.25-2.33 12.4 12.4 0 0 1 9.84 4.8 12.38 12.38 0 0 1 2.52 9.2 12.36 12.36 0 0 1-5.58 8.88l-41.28 32.07a30.71 30.71 0 0 1-1.69 1.41 31.26 31.26 0 0 1-20.27 6.63c-2.76.2-7.9 1.72-11.01 4.5l-48.36 62.8 84.79 64.88 32.4-42.6a2 2 0 0 1 2.8-.38l44.11 33.55a2 2 0 0 1 .38 2.8l-32.5 42.72L544.6 616a2 2 0 0 1 .41 2.74l-42.32 59.52a2 2 0 0 1-1.63.84zm-77.04-385.18-19.77 25.48-26.17 33.32a18.11 18.11 0 0 0-4.8 13.37 46.74 46.74 0 0 1-3.06 13.58 2.06 2.06 0 0 1-.28.49l-74.22 95.5a32.75 32.75 0 0 0 7.51 47.17l197.4 151.41 40-56.25-37.13-28.38a2 2 0 0 1-.37-2.8l32.49-42.71-40.93-31.13-32.4 42.6a2 2 0 0 1-1.33.78 2 2 0 0 1-1.49-.4l-1.06-.81-86.9-66.5a2 2 0 0 1-.38-2.82l49.7-64.52c.06-.1.14-.18.22-.25 3.63-3.34 9.75-5.41 13.68-5.67h.2a27.4 27.4 0 0 0 19.3-7.07l.11-.09 41.4-32.16.15-.1a8.39 8.39 0 0 0 3.86-6.07 8.4 8.4 0 0 0-1.71-6.24 8.4 8.4 0 0 0-6.68-3.26 8.36 8.36 0 0 0-5.18 1.77 2.09 2.09 0 0 1-.34.22l-.05.03-21.13 16.4a2 2 0 0 1-3.1-.86l-.17-.42a2 2 0 0 1 .27-1.98l24.81-31.88.13-.15c.18-.19.36-.4.52-.6l.57-.74.18-.3 3.69-4.89a8.46 8.46 0 0 0-2.08-10.88 8.35 8.35 0 0 0-5.2-1.8 8.4 8.4 0 0 0-5.86 2.35l-3.82 4.77-20.85 26.85a2 2 0 0 1-2.79.37 2.11 2.11 0 0 1-.8-1.36c-.08-.53.03-1.1.36-1.51l19.45-25.08.07-.09c.46-.56 5.73-7.4 7.72-10l1.1-1.43a8.39 8.39 0 0 0 1.74-6.23 8.39 8.39 0 0 0-3.16-5.63 7.97 7.97 0 0 0-4.98-1.68 9.15 9.15 0 0 0-7.15 3.45l-.05.06-7.96 10.33-20.05 25.84a2 2 0 0 1-2.8.35c-.88-.67-1.11-1.98-.43-2.85l19.45-25.08.13-.15c.25-.3 3.07-3.95 4.13-5.33l.69-.89a8.4 8.4 0 0 0 1.74-6.23 8.4 8.4 0 0 0-3.17-5.63 8.34 8.34 0 0 0-5.2-1.8 8.46 8.46 0 0 0-6.27 2.78l-4.32 5.52-20.45 26.35a2 2 0 0 1-2.78.38 2.1 2.1 0 0 1-.82-1.36c-.07-.54.04-1.1.37-1.53l19.45-25.07.13-.14.53-.6a8.46 8.46 0 0 0-1.44-11.86 8.37 8.37 0 0 0-5.2-1.8 8.41 8.41 0 0 0-6.6 3.15 1.98 1.98 0 0 1-.37.39z"/><path fill="#FFF" d="m586.42 645.43 17.52 13.4 3.91 2.98a13.48 13.48 0 0 1-18.9 2.53 13.6 13.6 0 0 1-1.6-1.46l-.54.13a13.49 13.49 0 0 1-26.05 6.38l-.08.02a13.48 13.48 0 0 1-26.05 6.37l-.14.04a13.48 13.48 0 0 1-26.06 6.37l-9.42 2.3-21.9-16.73 51.09-66.83 58.22 44.5z"/><path fill="#FFD829" d="M500.86 411.26a28.89 28.89 0 0 1 2.46 2.1 82.02 82.02 0 0 1 125.37 95.38 28.62 28.62 0 0 1 2.68 1.8 28.47 28.47 0 0 1-34.47 45.32 28.67 28.67 0 0 1-5.01-4.89 82 82 0 0 1-119.46-90.87 28.5 28.5 0 0 1-6.04-3.52 28.47 28.47 0 0 1 34.47-45.32z"/><path d="M614.12 563.67a30.2 30.2 0 0 1-18.43-6.22 30.76 30.76 0 0 1-4.28-3.95 84.46 84.46 0 0 1-39.3 9.72 83.22 83.22 0 0 1-50.78-17.15 84.07 84.07 0 0 1-31.2-84.84 30.63 30.63 0 0 1-4.95-3.06 30.27 30.27 0 0 1-11.75-20.15 30.28 30.28 0 0 1 5.95-22.55 30.25 30.25 0 0 1 24.27-12.02 30.2 30.2 0 0 1 19.8 7.34 84.65 84.65 0 0 1 48.8-15.55 83.23 83.23 0 0 1 50.78 17.14 84.4 84.4 0 0 1 28.1 95.54 30.5 30.5 0 0 1 7.25 43.73 30.25 30.25 0 0 1-24.27 12.02zm-21.72-15.26 1.05 1.31a26.67 26.67 0 0 0 4.66 4.55 26.23 26.23 0 0 0 16 5.4c8.36 0 16.04-3.8 21.1-10.45a26.5 26.5 0 0 0-5.05-37.09 26.34 26.34 0 0 0-2.5-1.68l-1.45-.86.61-1.57c12.75-33 1.96-71.02-26.22-92.45a79.25 79.25 0 0 0-48.36-16.33 80.58 80.58 0 0 0-47.73 15.73l-1.36 1-1.22-1.16a27.1 27.1 0 0 0-2.28-1.96 26.23 26.23 0 0 0-16-5.4 26.3 26.3 0 0 0-21.1 10.44 26.3 26.3 0 0 0-5.15 19.6 26.3 26.3 0 0 0 10.2 17.5 26.67 26.67 0 0 0 5.62 3.27l1.55.66-.4 1.64a80.07 80.07 0 0 0 29.38 82.33 79.25 79.25 0 0 0 48.35 16.33 80.4 80.4 0 0 0 38.82-10l1.48-.81z"/><path fill="none" d="m630.18 535.94-25.4 4.53"/><path d="M604.79 542.47a2 2 0 0 1-.35-3.96l25.38-4.54a2 2 0 1 1 .7 3.94l-25.38 4.53-.35.03z"/><path fill="none" d="m479.42 421.25 2.4 25.68"/><path d="M481.82 448.93a2 2 0 0 1-1.99-1.81l-2.4-25.68a2 2 0 1 1 3.98-.37l2.4 25.68a2 2 0 0 1-1.99 2.18zm85.58 52.82a10.82 10.82 0 1 0 17.22 13.1 10.82 10.82 0 0 0-17.22-13.1z"/><path d="M591.17 524.74h-.1a2 2 0 0 1-1.9-2.1 24.2 24.2 0 0 0-9.51-20.45 24.21 24.21 0 0 0-22.26-3.71 2 2 0 1 1-1.25-3.8 28.21 28.21 0 0 1 25.93 4.33 28.2 28.2 0 0 1 11.08 23.83 2 2 0 0 1-2 1.9z"/><circle cx="519.82" cy="465.55" r="10.82"/><path d="M534.98 482h-.1a2 2 0 0 1-1.9-2.1 24.2 24.2 0 0 0-9.52-20.46 24.2 24.2 0 0 0-22.25-3.7 2 2 0 1 1-1.25-3.8 28.2 28.2 0 0 1 25.92 4.32 28.2 28.2 0 0 1 11.1 23.83 2 2 0 0 1-2 1.9z"/><path fill="none" d="m547.31 486.57-9.53 12.53"/><path d="M537.77 501.1a2 2 0 0 1-1.59-3.2l9.54-12.54a2 2 0 1 1 3.18 2.42l-9.53 12.53a2 2 0 0 1-1.6.8z"/><path fill="#FFF" d="M510.24 489.53a27.7 27.7 0 0 0 44.1 33.56l-44.1-33.56z"/><path d="m501.6 414.38.67-.9a82.45 82.45 0 0 1 131.86 66.1 82.39 82.39 0 0 1-3.8 24.7l-3.86 5.1-124.88-95z"/><path fill="#FFF" d="M457.64 546.92a34.15 34.15 0 1 0 54.27 41.48l33.37 25.51-51.57 67.47-122.45-93.6 51.57-67.47 34.81 26.61z"/><path fill="#FFF" d="m448.96 550.22-32.28-65.8-9.72-19.79-2.16-4.42a13.49 13.49 0 0 0-5.05 19.9l-.24.5a13.49 13.49 0 0 0-11.34 24.31l-.03.07a13.48 13.48 0 0 0-11.34 24.31l-.06.12a13.48 13.48 0 0 0-11.88 23.97 17.3 17.3 0 0 0-5.2 12.38 17.36 17.36 0 0 0 31.85 9.53c18.6-8.36 35.71-14.41 55.39-24.07l2.06-1z"/><g fill="#FFF"><path d="M634.72 499.88a7.93 7.93 0 0 1-7.93-7.93v-59.1a7.93 7.93 0 0 1 15.87 0v59.1a7.94 7.94 0 0 1-7.94 7.93z"/><path d="M613.83 491.23a7.9 7.9 0 0 1-5.6-2.33 7.94 7.94 0 0 1 0-11.22L650 435.9a7.93 7.93 0 0 1 11.22 0 7.93 7.93 0 0 1 0 11.23l-41.79 41.78a7.92 7.92 0 0 1-5.6 2.33z"/><path d="M664.27 470.33h-59.1a7.93 7.93 0 0 1 0-15.87h59.1a7.93 7.93 0 1 1 0 15.87z"/><path d="M655.62 491.23a7.9 7.9 0 0 1-5.6-2.33l-41.8-41.79a7.93 7.93 0 0 1 11.22-11.22l41.8 41.8a7.93 7.93 0 0 1-5.62 13.54z"/></g><path fill="#FFF" d="M319.22 730.4c17.8 0 17.8-17 35.59-17s17.8 17 35.59 17c17.8 0 17.8-17 35.59-17 17.8 0 17.8 17 35.59 17 11.48 0 15.56-7.08 21.79-12.1l27.41-35.86-134.86-103.09-106.39 139.2c3.49-2.88 7.6-5.15 14.1-5.15 17.8 0 17.8 17 35.59 17z"/><path fill="#FFF" d="M1173.4 732.88c-9.7 0-14.74-4.81-19.18-9.06-4.28-4.09-8.32-7.95-16.42-7.95-8.1 0-12.13 3.86-16.41 7.95-4.44 4.25-9.48 9.06-19.18 9.06s-14.74-4.81-19.18-9.06c-4.28-4.09-8.32-7.95-16.42-7.95-8.1 0-12.14 3.86-16.41 7.95-4.45 4.25-9.48 9.06-19.18 9.06s-14.74-4.81-19.18-9.06c-4.28-4.09-8.32-7.95-16.42-7.95-8.1 0-12.13 3.86-16.4 7.95-4.45 4.25-9.48 9.06-19.18 9.06s-14.74-4.81-19.18-9.06c-4.28-4.09-8.32-7.95-16.42-7.95s-12.14 3.86-16.41 7.95c-4.45 4.25-9.48 9.06-19.18 9.06s-14.74-4.81-19.18-9.06c-4.28-4.09-8.32-7.95-16.42-7.95-8.1 0-12.13 3.86-16.41 7.95-4.44 4.25-9.48 9.06-19.18 9.06s-14.73-4.81-19.18-9.06c-4.27-4.09-8.31-7.95-16.41-7.95s-12.13 3.86-16.41 7.95c-4.44 4.25-9.48 9.06-19.18 9.06s-14.73-4.81-19.18-9.06c-4.27-4.09-8.31-7.95-16.41-7.95s-12.14 3.86-16.41 7.95c-4.45 4.25-9.48 9.06-19.18 9.06s-14.74-4.81-19.18-9.06c-4.28-4.09-8.32-7.95-16.41-7.95-8.1 0-12.14 3.86-16.42 7.95-4.44 4.25-9.47 9.06-19.17 9.06s-14.74-4.81-19.18-9.06c-4.28-4.09-8.32-7.95-16.41-7.95s-12.13 3.86-16.41 7.95c-4.44 4.25-9.48 9.06-19.18 9.06s-14.73-4.81-19.17-9.06c-4.28-4.09-8.32-7.95-16.42-7.95-8.1 0-12.13 3.86-16.4 7.95-4.45 4.25-9.48 9.06-19.18 9.06s-14.74-4.81-19.18-9.06c-4.28-4.09-8.32-7.95-16.41-7.95-8.1 0-12.14 3.86-16.42 7.95-4.44 4.25-9.47 9.06-19.17 9.06-9.7 0-14.74-4.81-19.18-9.06-4.28-4.09-8.32-7.95-16.41-7.95-8.1 0-12.14 3.86-16.41 7.95-4.45 4.25-9.48 9.06-19.18 9.06s-14.74-4.81-19.18-9.06c-4.28-4.09-8.32-7.95-16.41-7.95-8.1 0-12.14 3.86-16.41 7.95-4.45 4.25-9.48 9.06-19.18 9.06s-14.74-4.81-19.18-9.06c-4.28-4.1-8.32-7.95-16.41-7.95a2 2 0 0 1 0-4c9.7 0 14.73 4.81 19.18 9.06 4.27 4.09 8.31 7.95 16.4 7.95 8.1 0 12.14-3.86 16.42-7.95 4.44-4.25 9.48-9.06 19.18-9.06s14.73 4.81 19.17 9.06c4.28 4.09 8.32 7.95 16.42 7.95s12.13-3.86 16.41-7.95c4.44-4.25 9.48-9.06 19.18-9.06s14.73 4.81 19.17 9.06c4.28 4.09 8.32 7.95 16.42 7.95 8.1 0 12.13-3.86 16.4-7.95 4.45-4.25 9.49-9.06 19.19-9.06 9.7 0 14.73 4.81 19.17 9.06 4.28 4.09 8.32 7.95 16.42 7.95 8.1 0 12.13-3.86 16.4-7.95 4.45-4.25 9.49-9.06 19.18-9.06 9.7 0 14.74 4.81 19.18 9.06 4.28 4.09 8.32 7.95 16.41 7.95 8.1 0 12.14-3.86 16.41-7.95 4.44-4.25 9.48-9.06 19.18-9.06s14.73 4.81 19.17 9.06c4.28 4.09 8.32 7.95 16.42 7.95 8.09 0 12.13-3.86 16.4-7.95 4.45-4.25 9.49-9.06 19.18-9.06 9.7 0 14.74 4.81 19.18 9.06 4.28 4.09 8.32 7.95 16.42 7.95s12.13-3.86 16.4-7.95c4.45-4.25 9.49-9.06 19.19-9.06 9.7 0 14.73 4.81 19.17 9.06 4.28 4.09 8.32 7.95 16.42 7.95 8.1 0 12.13-3.86 16.41-7.95 4.44-4.25 9.48-9.06 19.18-9.06s14.73 4.81 19.18 9.06c4.27 4.09 8.31 7.95 16.4 7.95 8.1 0 12.15-3.86 16.42-7.95 4.45-4.25 9.48-9.06 19.18-9.06s14.74 4.81 19.18 9.06c4.28 4.09 8.32 7.95 16.41 7.95 8.1 0 12.14-3.86 16.42-7.95 4.44-4.25 9.48-9.06 19.18-9.06s14.73 4.81 19.18 9.06c4.27 4.09 8.31 7.95 16.41 7.95s12.14-3.86 16.41-7.95c4.44-4.25 9.48-9.06 19.18-9.06s14.74 4.81 19.18 9.06c4.28 4.09 8.32 7.95 16.41 7.95 8.1 0 12.14-3.86 16.42-7.95 4.44-4.25 9.48-9.06 19.18-9.06s14.73 4.81 19.18 9.06c4.27 4.09 8.31 7.95 16.41 7.95s12.14-3.86 16.42-7.95c4.44-4.25 9.48-9.06 19.18-9.06s14.73 4.81 19.18 9.06c4.28 4.09 8.32 7.95 16.42 7.95 8.1 0 12.14-3.86 16.41-7.95 4.45-4.25 9.48-9.06 19.19-9.06a2 2 0 0 1 0 4c-8.1 0-12.14 3.86-16.42 7.95-4.44 4.25-9.48 9.06-19.18 9.06zm0 70.89c-9.7 0-14.74-4.81-19.18-9.06-4.28-4.09-8.32-7.95-16.42-7.95-8.1 0-12.13 3.86-16.41 7.95-4.44 4.25-9.48 9.06-19.18 9.06s-14.74-4.81-19.18-9.06c-4.28-4.09-8.32-7.95-16.42-7.95s-12.14 3.86-16.41 7.95c-4.45 4.25-9.48 9.06-19.18 9.06s-14.74-4.81-19.18-9.06c-4.28-4.09-8.32-7.95-16.42-7.95-8.1 0-12.13 3.86-16.4 7.95-4.45 4.25-9.48 9.06-19.18 9.06s-14.74-4.81-19.18-9.06c-4.28-4.09-8.32-7.95-16.42-7.95-8.1 0-12.14 3.86-16.41 7.95-4.45 4.25-9.48 9.06-19.18 9.06s-14.74-4.81-19.18-9.06c-4.28-4.09-8.32-7.95-16.42-7.95s-12.13 3.86-16.41 7.95c-4.44 4.25-9.48 9.06-19.18 9.06s-14.73-4.81-19.18-9.06c-4.27-4.09-8.31-7.95-16.41-7.95s-12.13 3.86-16.41 7.95c-4.44 4.25-9.48 9.06-19.18 9.06s-14.73-4.81-19.18-9.06c-4.28-4.09-8.32-7.95-16.41-7.95s-12.14 3.86-16.41 7.95c-4.45 4.25-9.48 9.06-19.18 9.06s-14.74-4.81-19.18-9.06c-4.28-4.09-8.32-7.95-16.41-7.95-8.1 0-12.14 3.86-16.42 7.95-4.44 4.25-9.47 9.06-19.17 9.06-9.7 0-14.74-4.81-19.18-9.06-4.27-4.09-8.32-7.95-16.41-7.95-8.1 0-12.13 3.86-16.41 7.95-4.44 4.25-9.48 9.06-19.18 9.06s-14.73-4.81-19.17-9.06c-4.28-4.09-8.32-7.95-16.42-7.95s-12.13 3.86-16.4 7.95c-4.45 4.25-9.48 9.06-19.18 9.06s-14.74-4.81-19.18-9.06c-4.28-4.09-8.32-7.95-16.41-7.95s-12.14 3.86-16.41 7.95c-4.45 4.25-9.48 9.06-19.18 9.06s-14.74-4.81-19.18-9.06c-4.28-4.09-8.32-7.95-16.41-7.95-8.1 0-12.14 3.86-16.41 7.95-4.45 4.25-9.48 9.06-19.18 9.06s-14.74-4.81-19.18-9.06c-4.28-4.09-8.32-7.95-16.41-7.95-8.1 0-12.14 3.86-16.41 7.95-4.45 4.25-9.48 9.06-19.18 9.06s-14.73-4.81-19.18-9.06c-4.28-4.09-8.32-7.95-16.41-7.95a2 2 0 0 1 0-4c9.7 0 14.73 4.81 19.18 9.06 4.27 4.09 8.31 7.95 16.4 7.95s12.14-3.86 16.42-7.95c4.44-4.25 9.48-9.06 19.18-9.06s14.73 4.81 19.18 9.06c4.27 4.09 8.31 7.95 16.4 7.95s12.14-3.86 16.42-7.95c4.44-4.25 9.48-9.06 19.18-9.06s14.73 4.81 19.18 9.06c4.27 4.09 8.31 7.95 16.4 7.95 8.1 0 12.14-3.86 16.42-7.95 4.44-4.25 9.48-9.06 19.18-9.06s14.73 4.81 19.17 9.06c4.28 4.09 8.32 7.95 16.42 7.95 8.1 0 12.13-3.86 16.4-7.95 4.45-4.25 9.49-9.06 19.18-9.06s14.74 4.81 19.18 9.06c4.28 4.09 8.32 7.95 16.41 7.95s12.14-3.86 16.41-7.95c4.44-4.25 9.48-9.06 19.18-9.06s14.73 4.81 19.17 9.06c4.28 4.09 8.32 7.95 16.42 7.95 8.1 0 12.13-3.86 16.4-7.95 4.45-4.25 9.49-9.06 19.19-9.06s14.73 4.81 19.17 9.06c4.28 4.09 8.32 7.95 16.42 7.95 8.1 0 12.13-3.86 16.41-7.95 4.44-4.25 9.48-9.06 19.18-9.06s14.73 4.81 19.17 9.06c4.28 4.09 8.32 7.95 16.42 7.95 8.1 0 12.13-3.86 16.41-7.95 4.44-4.25 9.48-9.06 19.18-9.06s14.73 4.81 19.18 9.06c4.27 4.09 8.31 7.95 16.4 7.95 8.1 0 12.15-3.86 16.42-7.95 4.44-4.25 9.48-9.06 19.18-9.06s14.74 4.81 19.18 9.06c4.28 4.09 8.32 7.95 16.41 7.95s12.14-3.86 16.42-7.95c4.44-4.25 9.48-9.06 19.18-9.06s14.73 4.81 19.18 9.06c4.27 4.09 8.32 7.95 16.41 7.95 8.1 0 12.14-3.86 16.41-7.95 4.45-4.25 9.48-9.06 19.18-9.06s14.74 4.81 19.18 9.06c4.28 4.09 8.32 7.95 16.41 7.95 8.1 0 12.14-3.86 16.42-7.95 4.44-4.25 9.48-9.06 19.18-9.06s14.74 4.81 19.18 9.06c4.28 4.09 8.32 7.95 16.41 7.95 8.1 0 12.14-3.86 16.42-7.95 4.44-4.25 9.48-9.06 19.18-9.06s14.74 4.81 19.18 9.06c4.28 4.09 8.32 7.95 16.42 7.95s12.14-3.86 16.42-7.95c4.44-4.25 9.48-9.06 19.18-9.06a2 2 0 0 1 0 4c-8.1 0-12.14 3.86-16.42 7.95-4.44 4.25-9.47 9.06-19.18 9.06zm0 71.83c-9.7 0-14.74-4.8-19.18-9.06-4.28-4.09-8.32-7.95-16.42-7.95-8.1 0-12.13 3.86-16.41 7.95-4.44 4.25-9.48 9.06-19.18 9.06s-14.74-4.8-19.18-9.06c-4.28-4.09-8.32-7.95-16.42-7.95s-12.14 3.86-16.41 7.95c-4.45 4.25-9.48 9.06-19.18 9.06s-14.74-4.8-19.18-9.06c-4.28-4.09-8.32-7.95-16.42-7.95-8.1 0-12.13 3.86-16.4 7.95-4.45 4.25-9.48 9.06-19.18 9.06s-14.74-4.8-19.18-9.06c-4.28-4.09-8.32-7.95-16.42-7.95-8.1 0-12.14 3.86-16.41 7.95-4.45 4.25-9.48 9.06-19.18 9.06s-14.74-4.8-19.18-9.06c-4.28-4.09-8.32-7.95-16.42-7.95s-12.13 3.86-16.41 7.95c-4.44 4.25-9.48 9.06-19.18 9.06s-14.73-4.8-19.18-9.06c-4.27-4.09-8.31-7.95-16.41-7.95s-12.13 3.86-16.41 7.95c-4.44 4.25-9.48 9.06-19.18 9.06s-14.73-4.8-19.18-9.06c-4.28-4.09-8.32-7.95-16.41-7.95s-12.14 3.86-16.41 7.95c-4.45 4.25-9.48 9.06-19.18 9.06s-14.74-4.8-19.18-9.06c-4.28-4.09-8.32-7.95-16.41-7.95-8.1 0-12.14 3.86-16.42 7.95-4.44 4.25-9.47 9.06-19.17 9.06-9.7 0-14.74-4.8-19.18-9.06-4.27-4.09-8.32-7.95-16.41-7.95-8.1 0-12.13 3.86-16.41 7.95-4.44 4.25-9.48 9.06-19.18 9.06s-14.73-4.8-19.17-9.06c-4.28-4.09-8.32-7.95-16.42-7.95s-12.13 3.86-16.4 7.95c-4.45 4.25-9.48 9.06-19.18 9.06s-14.74-4.8-19.18-9.06c-4.28-4.09-8.32-7.95-16.41-7.95s-12.14 3.86-16.41 7.95c-4.45 4.25-9.48 9.06-19.18 9.06s-14.74-4.8-19.18-9.06c-4.28-4.09-8.32-7.95-16.41-7.95-8.1 0-12.14 3.86-16.41 7.95-4.45 4.25-9.48 9.06-19.18 9.06s-14.74-4.8-19.18-9.06c-4.28-4.09-8.32-7.95-16.41-7.95-8.1 0-12.14 3.86-16.41 7.95-4.45 4.25-9.48 9.06-19.18 9.06s-14.73-4.8-19.18-9.06c-4.28-4.09-8.32-7.95-16.41-7.95a2 2 0 0 1 0-4c9.7 0 14.73 4.82 19.18 9.06 4.27 4.1 8.31 7.95 16.4 7.95s12.14-3.86 16.42-7.95c4.44-4.24 9.48-9.06 19.18-9.06s14.73 4.82 19.18 9.06c4.27 4.1 8.31 7.95 16.4 7.95s12.14-3.86 16.42-7.95c4.44-4.24 9.48-9.06 19.18-9.06s14.73 4.82 19.18 9.06c4.27 4.1 8.31 7.95 16.4 7.95 8.1 0 12.14-3.86 16.42-7.95 4.44-4.24 9.48-9.06 19.18-9.06s14.73 4.82 19.17 9.06c4.28 4.1 8.32 7.95 16.42 7.95 8.1 0 12.13-3.86 16.4-7.95 4.45-4.24 9.49-9.06 19.18-9.06s14.74 4.82 19.18 9.06c4.28 4.1 8.32 7.95 16.41 7.95s12.14-3.86 16.41-7.95c4.44-4.24 9.48-9.06 19.18-9.06s14.73 4.82 19.17 9.06c4.28 4.1 8.32 7.95 16.42 7.95 8.1 0 12.13-3.86 16.4-7.95 4.45-4.24 9.49-9.06 19.19-9.06s14.73 4.82 19.17 9.06c4.28 4.1 8.32 7.95 16.42 7.95 8.1 0 12.13-3.86 16.41-7.95 4.44-4.24 9.48-9.06 19.18-9.06s14.73 4.82 19.17 9.06c4.28 4.1 8.32 7.95 16.42 7.95 8.1 0 12.13-3.86 16.41-7.95 4.44-4.24 9.48-9.06 19.18-9.06s14.73 4.82 19.18 9.06c4.27 4.1 8.31 7.95 16.4 7.95 8.1 0 12.15-3.86 16.42-7.95 4.44-4.24 9.48-9.06 19.18-9.06s14.74 4.82 19.18 9.06c4.28 4.1 8.32 7.95 16.41 7.95s12.14-3.86 16.42-7.95c4.44-4.24 9.48-9.06 19.18-9.06s14.73 4.82 19.18 9.06c4.27 4.1 8.32 7.95 16.41 7.95 8.1 0 12.14-3.86 16.41-7.95 4.45-4.24 9.48-9.06 19.18-9.06s14.74 4.82 19.18 9.06c4.28 4.1 8.32 7.95 16.41 7.95 8.1 0 12.14-3.86 16.42-7.95 4.44-4.24 9.48-9.06 19.18-9.06s14.74 4.82 19.18 9.06c4.28 4.1 8.32 7.95 16.41 7.95 8.1 0 12.14-3.86 16.42-7.95 4.44-4.24 9.48-9.06 19.18-9.06s14.74 4.82 19.18 9.06c4.28 4.1 8.32 7.95 16.42 7.95s12.14-3.86 16.42-7.95c4.44-4.24 9.48-9.06 19.18-9.06a2 2 0 0 1 0 4c-8.1 0-12.14 3.86-16.42 7.95-4.44 4.25-9.47 9.07-19.18 9.07z"/><path fill="none" d="m1534.68 426.63 15.93-10.4"/><path fill="#231F20" d="M1534.68 428.63a2 2 0 0 1-1.1-3.67l15.94-10.4a2 2 0 0 1 2.18 3.35l-15.93 10.4a2 2 0 0 1-1.09.32z"/><path fill="none" d="m1543.5 444.43 15.93-10.4"/><path fill="#231F20" d="M1543.5 446.43a2 2 0 0 1-1.1-3.67l15.94-10.4a2 2 0 1 1 2.18 3.35l-15.93 10.4a2 2 0 0 1-1.09.32z"/><path fill="none" d="m1550.27 462.23 15.93-10.4"/><path fill="#231F20" d="M1550.28 464.23a2 2 0 0 1-1.1-3.68l15.93-10.39a2 2 0 1 1 2.19 3.35l-15.93 10.4a1.99 1.99 0 0 1-1.1.32z"/><path fill="none" d="m1254.8 578.87 1.3-18.76"/><path fill="#231F20" d="M1254.8 580.87a2 2 0 0 1-2-2.14l1.3-18.76a2 2 0 0 1 2.13-1.86 2 2 0 0 1 1.86 2.14l-1.3 18.75a2 2 0 0 1-2 1.87z"/><path fill="#FFF" d="m1428.83 451.17-77.9-54.48 2.3-3.28 77.9 54.48z"/><g fill="#FFF"><path d="M1430.83 494.47a7.9 7.9 0 0 1-4.57-1.46 7.93 7.93 0 0 1-1.9-11.05l34.1-48.27a7.93 7.93 0 0 1 11.05-1.9 7.93 7.93 0 0 1 1.9 11.06l-34.1 48.26a7.93 7.93 0 0 1-6.48 3.36z"/><path d="M1418.75 475.34a7.93 7.93 0 0 1-1.34-15.75l58.24-10.02a7.93 7.93 0 0 1 2.7 15.64l-58.24 10.02a8.13 8.13 0 0 1-1.36.11z"/><path d="M1472 487.39a7.9 7.9 0 0 1-4.57-1.46l-48.26-34.1a7.93 7.93 0 0 1-1.9-11.05 7.93 7.93 0 0 1 11.05-1.9l48.27 34.1a7.93 7.93 0 0 1 1.9 11.05 7.93 7.93 0 0 1-6.48 3.36z"/><path d="M1452.88 499.46a7.94 7.94 0 0 1-7.81-6.6l-10.02-58.24a7.93 7.93 0 0 1 6.47-9.16 7.93 7.93 0 0 1 9.17 6.47l10.01 58.25a7.93 7.93 0 0 1-7.82 9.28z"/></g><path fill="none" d="m1588.7 703.5-8.78-16.64"/><path fill="#231F20" d="M1588.7 705.5a2 2 0 0 1-1.77-1.07l-8.77-16.63a2 2 0 0 1 .83-2.7 2 2 0 0 1 2.7.83l8.78 16.63a2 2 0 0 1-1.77 2.93z"/><path fill="#FFF" d="M1671.96 732.88c-9.7 0-14.73-4.81-19.18-9.06-4.28-4.09-8.32-7.95-16.41-7.95s-12.14 3.86-16.41 7.95c-4.45 4.25-9.48 9.06-19.18 9.06s-14.74-4.81-19.18-9.06c-4.28-4.09-8.32-7.95-16.41-7.95s-12.14 3.86-16.42 7.95c-4.44 4.25-9.47 9.06-19.17 9.06s-14.74-4.81-19.18-9.06c-4.28-4.09-8.32-7.95-16.41-7.95s-12.14 3.86-16.41 7.95c-4.44 4.25-9.48 9.06-19.18 9.06s-14.73-4.81-19.17-9.06c-4.28-4.09-8.32-7.95-16.42-7.95-8.09 0-12.13 3.86-16.4 7.95-4.45 4.25-9.48 9.06-19.18 9.06s-14.74-4.81-19.18-9.06c-4.28-4.09-8.32-7.95-16.41-7.95-8.1 0-12.14 3.86-16.42 7.95-4.44 4.25-9.47 9.06-19.17 9.06-9.7 0-14.73-4.81-19.18-9.06-4.27-4.09-8.32-7.95-16.41-7.95-8.1 0-12.14 3.86-16.41 7.95-4.45 4.25-9.48 9.06-19.18 9.06s-14.73-4.81-19.18-9.06c-4.27-4.09-8.31-7.95-16.4-7.95-8.1 0-12.15 3.86-16.43 7.95-4.44 4.25-9.47 9.06-19.17 9.06s-14.73-4.81-19.18-9.06c-4.28-4.09-8.32-7.95-16.41-7.95a2 2 0 0 1 0-4c9.7 0 14.73 4.81 19.18 9.06 4.27 4.09 8.31 7.95 16.4 7.95s12.14-3.86 16.42-7.95c4.44-4.25 9.48-9.06 19.18-9.06s14.73 4.81 19.18 9.06c4.27 4.09 8.31 7.95 16.4 7.95s12.14-3.86 16.42-7.95c4.44-4.25 9.48-9.06 19.18-9.06s14.73 4.81 19.18 9.06c4.27 4.09 8.31 7.95 16.41 7.95s12.13-3.86 16.41-7.95c4.44-4.25 9.48-9.06 19.18-9.06s14.73 4.81 19.17 9.06c4.28 4.09 8.32 7.95 16.42 7.95 8.1 0 12.13-3.86 16.4-7.95 4.45-4.25 9.49-9.06 19.19-9.06 9.7 0 14.73 4.81 19.17 9.06 4.28 4.09 8.32 7.95 16.41 7.95 8.1 0 12.14-3.86 16.41-7.95 4.44-4.25 9.48-9.06 19.18-9.06s14.73 4.81 19.18 9.06c4.27 4.09 8.31 7.95 16.4 7.95 8.1 0 12.14-3.86 16.42-7.95 4.44-4.25 9.48-9.06 19.18-9.06s14.73 4.81 19.17 9.06c4.28 4.09 8.32 7.95 16.42 7.95 8.1 0 12.14-3.86 16.41-7.95 4.44-4.25 9.48-9.06 19.18-9.06s14.73 4.81 19.18 9.06c4.27 4.09 8.31 7.95 16.41 7.95s12.13-3.86 16.41-7.95c4.44-4.25 9.48-9.06 19.18-9.06a2 2 0 0 1 0 4c-8.1 0-12.14 3.86-16.41 7.95-4.45 4.25-9.48 9.06-19.18 9.06zm0 70.88c-9.7 0-14.73-4.81-19.18-9.06-4.28-4.1-8.32-7.95-16.41-7.95s-12.14 3.86-16.41 7.95c-4.45 4.24-9.48 9.06-19.18 9.06s-14.74-4.81-19.18-9.06c-4.28-4.1-8.32-7.95-16.41-7.95s-12.14 3.86-16.42 7.95c-4.44 4.24-9.47 9.06-19.17 9.06s-14.74-4.81-19.18-9.06c-4.28-4.1-8.32-7.95-16.41-7.95s-12.14 3.86-16.41 7.95c-4.44 4.24-9.48 9.06-19.18 9.06s-14.73-4.81-19.17-9.06c-4.28-4.1-8.32-7.95-16.42-7.95-8.09 0-12.13 3.86-16.4 7.95-4.45 4.24-9.48 9.06-19.18 9.06s-14.74-4.81-19.18-9.06c-4.28-4.1-8.32-7.95-16.41-7.95-8.1 0-12.14 3.86-16.42 7.95-4.44 4.24-9.47 9.06-19.17 9.06-9.7 0-14.73-4.81-19.18-9.06-4.27-4.1-8.32-7.95-16.41-7.95-8.1 0-12.14 3.86-16.41 7.95-4.45 4.24-9.48 9.06-19.18 9.06s-14.73-4.81-19.18-9.06c-4.27-4.1-8.31-7.95-16.4-7.95-8.1 0-12.15 3.86-16.43 7.95-4.44 4.24-9.47 9.06-19.17 9.06s-14.73-4.81-19.18-9.06c-4.28-4.1-8.32-7.95-16.41-7.95a2 2 0 0 1 0-4c9.7 0 14.73 4.8 19.18 9.06 4.27 4.09 8.31 7.95 16.4 7.95s12.14-3.86 16.42-7.95c4.44-4.25 9.48-9.06 19.18-9.06s14.73 4.8 19.18 9.06c4.27 4.09 8.31 7.95 16.4 7.95s12.14-3.86 16.42-7.95c4.44-4.25 9.48-9.06 19.18-9.06s14.73 4.8 19.18 9.06c4.27 4.09 8.31 7.95 16.41 7.95s12.13-3.86 16.41-7.95c4.44-4.25 9.48-9.06 19.18-9.06s14.73 4.8 19.17 9.06c4.28 4.09 8.32 7.95 16.42 7.95 8.1 0 12.13-3.86 16.4-7.95 4.45-4.25 9.49-9.06 19.19-9.06 9.7 0 14.73 4.8 19.17 9.06 4.28 4.09 8.32 7.95 16.41 7.95 8.1 0 12.14-3.86 16.41-7.95 4.44-4.25 9.48-9.06 19.18-9.06s14.73 4.8 19.18 9.06c4.27 4.09 8.31 7.95 16.4 7.95 8.1 0 12.14-3.86 16.42-7.95 4.44-4.25 9.48-9.06 19.18-9.06s14.73 4.8 19.17 9.06c4.28 4.09 8.32 7.95 16.42 7.95 8.1 0 12.14-3.86 16.41-7.95 4.44-4.25 9.48-9.06 19.18-9.06s14.73 4.8 19.18 9.06c4.27 4.09 8.31 7.95 16.41 7.95s12.13-3.86 16.41-7.95c4.44-4.25 9.48-9.06 19.18-9.06a2 2 0 0 1 0 4c-8.1 0-12.14 3.86-16.41 7.95-4.45 4.24-9.48 9.06-19.18 9.06zm0 71.82c-9.7 0-14.73-4.81-19.18-9.06-4.28-4.09-8.32-7.95-16.41-7.95s-12.14 3.86-16.41 7.95c-4.45 4.25-9.48 9.06-19.18 9.06s-14.74-4.81-19.18-9.06c-4.28-4.09-8.32-7.95-16.41-7.95s-12.14 3.86-16.42 7.95c-4.44 4.25-9.47 9.06-19.17 9.06s-14.74-4.81-19.18-9.06c-4.28-4.09-8.32-7.95-16.41-7.95s-12.14 3.86-16.41 7.95c-4.44 4.25-9.48 9.06-19.18 9.06s-14.73-4.81-19.17-9.06c-4.28-4.09-8.32-7.95-16.42-7.95-8.09 0-12.13 3.86-16.4 7.95-4.45 4.25-9.48 9.06-19.18 9.06s-14.74-4.81-19.18-9.06c-4.28-4.09-8.32-7.95-16.41-7.95-8.1 0-12.14 3.86-16.42 7.95-4.44 4.25-9.47 9.06-19.17 9.06-9.7 0-14.73-4.81-19.18-9.06-4.27-4.09-8.32-7.95-16.41-7.95-8.1 0-12.14 3.86-16.41 7.95-4.45 4.25-9.48 9.06-19.18 9.06s-14.73-4.81-19.18-9.06c-4.27-4.09-8.31-7.95-16.4-7.95-8.1 0-12.15 3.86-16.43 7.95-4.44 4.25-9.47 9.06-19.17 9.06-9.7 0-14.73-4.81-19.18-9.06-4.27-4.09-8.32-7.95-16.41-7.95a2 2 0 0 1 0-4c9.7 0 14.73 4.81 19.18 9.06 4.27 4.09 8.31 7.95 16.4 7.95s12.14-3.86 16.42-7.95c4.44-4.25 9.48-9.06 19.18-9.06s14.73 4.81 19.18 9.06c4.27 4.09 8.31 7.95 16.4 7.95s12.14-3.86 16.42-7.95c4.44-4.25 9.48-9.06 19.18-9.06s14.73 4.81 19.18 9.06c4.27 4.09 8.31 7.95 16.41 7.95s12.13-3.86 16.41-7.95c4.44-4.25 9.48-9.06 19.18-9.06s14.73 4.81 19.17 9.06c4.28 4.09 8.32 7.95 16.42 7.95 8.1 0 12.13-3.86 16.4-7.95 4.45-4.25 9.49-9.06 19.19-9.06 9.7 0 14.73 4.81 19.17 9.06 4.28 4.09 8.32 7.95 16.41 7.95 8.1 0 12.14-3.86 16.41-7.95 4.44-4.25 9.48-9.06 19.18-9.06s14.73 4.81 19.18 9.06c4.27 4.09 8.31 7.95 16.4 7.95 8.1 0 12.14-3.86 16.42-7.95 4.44-4.25 9.48-9.06 19.18-9.06s14.73 4.81 19.17 9.06c4.28 4.09 8.32 7.95 16.42 7.95 8.1 0 12.14-3.86 16.41-7.95 4.44-4.25 9.48-9.06 19.18-9.06s14.73 4.81 19.18 9.06c4.27 4.09 8.31 7.95 16.41 7.95s12.13-3.86 16.41-7.95c4.44-4.25 9.48-9.06 19.18-9.06a2 2 0 0 1 0 4c-8.1 0-12.14 3.86-16.41 7.95-4.45 4.25-9.48 9.06-19.18 9.06z"/><g fill="#FFF"><circle cx="507.64" cy="207.26" r="7.73"/><circle cx="458.71" cy="158.33" r="7.73"/></g><path fill="#FFF" d="M1529.78 227.3a2 2 0 0 1-2-2v-35.98a2 2 0 0 1 4 0v35.97a2 2 0 0 1-2 2zm0 49.29a2 2 0 0 1-2-2V238.6a2 2 0 0 1 4 0v35.98a2 2 0 0 1-2 2zm42.63-42.64h-35.97a2 2 0 0 1 0-4h35.97a2 2 0 0 1 0 4zm-49.3 0h-35.97a2 2 0 0 1 0-4h35.98a2 2 0 0 1 0 4zM720.13 300.6a2 2 0 0 1-2-2v-23.46a2 2 0 0 1 4 0v23.46a2 2 0 0 1-2 2zm0 32.15a2 2 0 0 1-2-2V307.3a2 2 0 0 1 4 0v23.46a2 2 0 0 1-2 2zm27.81-27.81h-23.46a2 2 0 0 1 0-4h23.46a2 2 0 0 1 0 4zm-32.15 0h-23.46a2 2 0 0 1 0-4h23.46a2 2 0 0 1 0 4zm931.57 55.21a2 2 0 0 1-2-2v-23.46a2 2 0 0 1 4 0v23.46a2 2 0 0 1-2 2zm0 32.15a2 2 0 0 1-2-2v-23.46a2 2 0 0 1 4 0v23.46a2 2 0 0 1-2 2zm27.81-27.8h-23.46a2 2 0 0 1 0-4h23.46a2 2 0 0 1 0 4zm-32.15 0h-23.46a2 2 0 0 1 0-4h23.46a2 2 0 0 1 0 4z"/><circle fill="#FFF" cx="1138.47" cy="245.45" r="7.73"/><circle fill="#FFF" cx="259.44" cy="289.55" r="7.73"/></svg>
