<svg xmlns="http://www.w3.org/2000/svg" viewBox="0 0 822.59 722.33"><path fill="#FED828" d="m517.63 160-15.88-17.38s-3.25-5.77 5.26-10.18"/><path fill="#231F20" d="M517.63 162a2 2 0 0 1-1.48-.65l-15.88-17.38a2.1 2.1 0 0 1-.26-.37 8.04 8.04 0 0 1-.53-5.99c.83-2.77 3.05-5.1 6.6-6.94a2 2 0 0 1 1.85 3.55c-2.53 1.3-4.12 2.87-4.61 4.53a4.2 4.2 0 0 0 .1 2.73l15.68 17.17a2 2 0 0 1-1.47 3.35z"/><path fill="#FED828" d="m423.14 476.96 16.94 78.1a35033.15 35033.15 0 0 0 3.63 16.77c5.68-4.94 9.91-11.23 20.75-11.23 17.8 0 17.8 17 35.59 17 17.8 0 17.8-17 35.59-17 4.9 0 8.44 1.29 11.38 3.16l-26.15-109.97 113.2-162.99-.2-.12 21.33-30.79c3.3-4.7 23.5-26.79 1.11-42.6l-82.37-58.72-49.5-34.72a10.38 10.38 0 0 0-14.45 2.53 10.33 10.33 0 0 0-1.73 7.74l34.93 94.12L425.71 397.4c-4.95 7.14-9.2 13.5-10.75 22.36-1.51 8.66-.42 17.54 1.43 26.06l6.75 31.14z"/><path fill="#231F20" d="m441.75 572.25-27.32-126c-1.45-6.73-3.18-16.82-1.44-26.84 1.56-8.93 5.57-15.22 11.08-23.14l116.89-168.31-34.64-93.31-.03-.18a12.29 12.29 0 0 1 2.07-9.24 12.4 12.4 0 0 1 17.24-3.02l49.5 34.72 82.38 58.73c6.36 4.5 10.07 9.92 11 16.13 1.78 11.72-6.82 22.94-10.5 27.73a55.28 55.28 0 0 0-1.14 1.52l-20.18 29.14.19.13-113.83 163.9 25.94 109.08-3.89.93-26.35-110.83.5-.73L631.29 291.3l-.18-.13 22.45-32.42a56.43 56.43 0 0 1 1.25-1.67c3.37-4.39 11.25-14.66 9.73-24.7-.78-5.1-3.93-9.62-9.37-13.46l-82.38-58.73-49.48-34.71a8.4 8.4 0 0 0-11.67 2.04 8.33 8.33 0 0 0-1.43 6.08l35.23 94.92-.6.85c-1.16 1.69-117.1 168.62-117.48 169.17-5.2 7.5-9 13.43-10.42 21.55-1.63 9.33.03 18.9 1.41 25.3l27.32 126-3.9.85z"/><path fill="#FED828" d="m591.61 401.7-.2.1 84.44 158.9a24.75 24.75 0 0 1 2.14-.1c17.79 0 17.79 17 35.58 17 17.8 0 17.8-17 35.6-17s17.79 17 35.59 17c2.25 0 4.21-.27 5.96-.74 2.05-6.85 3.4-13.94 3.01-21.1-.48-8.97-3.95-15.8-8.02-23.47-.15-.28-59.47-110.44-87.95-164.02l56.97-49.23-.08-.15a11 11 0 0 0-4.14-20.17 10.98 10.98 0 0 0 2.33-6.77c0-5.66-4.27-10.32-9.76-10.95a11 11 0 0 0 2.52-7c0-6.1-4.93-11.02-11.01-11.03a11.03 11.03 0 0 0-10.1-15.44c-3.05 0-3.78 1.1-7.81 3.24l-49.92 26.84L578 326.17c-24.1 13.06-6.64 37.38-3.93 42.44l17.53 33.09z"/><path fill="#231F20" d="M788.8 576.28c2.3-7.66 3.26-14.34 2.93-20.41-.44-8.23-3.51-14.57-7.8-22.64l-.6-1.1A46819.5 46819.5 0 0 1 696 369.2a2 2 0 0 1 .45-2.45l56.4-48.73c.15-.33.4-.62.73-.83a8.98 8.98 0 0 0 4.19-7.6 8.97 8.97 0 0 0-7.58-8.9 2 2 0 0 1-1.27-3.2 8.94 8.94 0 0 0 1.92-5.55 9.02 9.02 0 0 0-7.99-8.96 2 2 0 0 1-1.31-3.25 9.05 9.05 0 0 0 2.06-5.74 9.04 9.04 0 0 0-9.02-9.02 2 2 0 0 1-1.82-2.8 8.94 8.94 0 0 0 .75-3.62 9.04 9.04 0 0 0-9.02-9.02c-1.68 0-2.3.37-4.14 1.46-.72.42-1.6.95-2.73 1.55l-49.92 26.83-88.73 48.56c-5.86 3.18-9.52 7.3-10.9 12.27-2.69 9.79 3.92 20.92 6.74 25.67.44.73.8 1.34 1.04 1.8l17.54 33.1c.15.28.23.6.23.92l83.4 156.93c.33-.02.65-.02.97-.02a2 2 0 0 1 2 2l-5.9 1.03-84.44-158.89a2.02 2.02 0 0 1-.23-.92l-17.1-32.27c-.22-.41-.55-.97-.95-1.64-3.08-5.2-10.3-17.35-7.15-28.78 1.67-6.05 6-11 12.84-14.71l88.74-48.57 49.93-26.84c1.06-.56 1.87-1.04 2.58-1.46 2.05-1.22 3.4-2.02 6.18-2.02a13.04 13.04 0 0 1 12.75 15.71 13.05 13.05 0 0 1 9.03 18.47 13.02 13.02 0 0 1 8.57 12.24 12.9 12.9 0 0 1-1.24 5.56 12.95 12.95 0 0 1 8.17 12.08c0 4.19-1.98 8.05-5.34 10.5a1.9 1.9 0 0 1-.4.46l-55.76 48.2c25.1 47.2 72.54 135.37 86.6 161.48l.6 1.12c4.53 8.52 7.77 15.25 8.26 24.3.35 6.54-.66 13.67-3.1 21.78l-3.82-1.16z"/><path fill="none" d="m718.65 273.36 15.93-10.4"/><path fill="#231F20" d="M718.65 275.36a2 2 0 0 1-1.1-3.68l15.94-10.4a2 2 0 0 1 2.19 3.36l-15.94 10.4a2 2 0 0 1-1.09.32z"/><path fill="none" d="m727.47 291.16 15.93-10.4"/><path fill="#231F20" d="M727.47 293.16a2 2 0 0 1-1.1-3.68l15.94-10.4a2 2 0 1 1 2.19 3.36l-15.93 10.4a2 2 0 0 1-1.1.32z"/><path fill="none" d="m734.25 308.96 15.92-10.4"/><path fill="#231F20" d="M734.25 310.96a2 2 0 0 1-1.1-3.68l15.93-10.4a2 2 0 0 1 2.19 3.36l-15.93 10.4a1.98 1.98 0 0 1-1.1.32z"/><path fill="none" d="m438.77 425.6 1.3-18.77"/><path fill="#231F20" d="M438.77 427.6a2 2 0 0 1-2-2.15l1.3-18.75a2 2 0 0 1 2.14-1.86 2 2 0 0 1 1.85 2.13l-1.3 18.76a2 2 0 0 1-1.99 1.86z"/><path fill="#FFF" d="m624.5 308.75-90.94-63.25 2.3-3.28 90.94 63.26z"/><g fill="#FFF"><path d="M610.8 341.3a7.93 7.93 0 0 1-6.47-12.52l34.1-48.27a7.94 7.94 0 0 1 11.06-1.9 7.93 7.93 0 0 1 1.9 11.06l-34.1 48.27a7.94 7.94 0 0 1-6.5 3.35z"/><path d="M598.72 322.17a7.94 7.94 0 0 1-7.8-6.6 7.93 7.93 0 0 1 6.47-9.16l58.24-10.02a7.93 7.93 0 0 1 2.69 15.64l-58.24 10.02a7.89 7.89 0 0 1-1.36.12z"/><path d="M651.98 334.2a7.9 7.9 0 0 1-4.57-1.45l-48.27-34.1a7.93 7.93 0 0 1-1.9-11.05 7.93 7.93 0 0 1 11.06-1.9l48.27 34.1a7.93 7.93 0 0 1 1.9 11.05 7.94 7.94 0 0 1-6.5 3.36z"/><path d="M632.85 346.28a7.94 7.94 0 0 1-7.81-6.6l-10.02-58.24a7.94 7.94 0 0 1 6.47-9.16 7.93 7.93 0 0 1 9.17 6.47L640.68 337a7.93 7.93 0 0 1-7.83 9.28z"/></g><path fill="none" d="m772.67 550.22-8.77-16.63"/><path fill="#231F20" d="M772.67 552.22a2 2 0 0 1-1.77-1.07l-8.77-16.62a2 2 0 0 1 .83-2.7 2 2 0 0 1 2.7.83l8.78 16.63a2 2 0 0 1-1.77 2.93z"/><path fill="#FED828" d="M265.93 491.98v73.88"/><path fill="#010101" d="M265.93 567.86a2 2 0 0 1-2-2v-73.88a2 2 0 0 1 4 0v73.88a2 2 0 0 1-2 2z"/><path fill="#FED828" d="M336.65 565.46v-73.48"/><path fill="#010101" d="M336.65 567.46a2 2 0 0 1-2-2v-73.48a2 2 0 0 1 4 0v73.48a2 2 0 0 1-2 2z"/><path fill="#FED828" d="M322.31 560.12c6.64 0 10.8 2.37 14.34 5.34v-73.48h-70.72v73.88c5.7 4.94 9.93 11.28 20.8 11.28 17.79 0 17.79-17.02 35.58-17.02zm-56.38-68.14v73.88"/><path fill="#010101" d="M265.93 567.86a2 2 0 0 1-2-2v-73.88a2 2 0 0 1 4 0v73.88a2 2 0 0 1-2 2z"/><path fill="#FED828" d="M336.65 565.46v-73.48"/><path fill="#010101" d="M336.65 567.46a2 2 0 0 1-2-2v-73.48a2 2 0 0 1 4 0v73.48a2 2 0 0 1-2 2z"/><path fill="#FED828" d="M255.02 522.82 55.97 370.14a31.51 31.51 0 0 1-1.76-1.27 34.71 34.71 0 0 1-6.11-48.71l74.22-95.5c.12-.3 2.57-6.4 2.93-12.95a20 20 0 0 1 5.22-14.5l11.62-14.8 14.54-18.51 20.05-25.83.04.03a10.45 10.45 0 1 1 15.8 13.63l-19.46 25.08.08.05 20.45-26.36 4.36-5.57a10.44 10.44 0 0 1 16 13.4c-.2.26-4.71 6.13-4.93 6.36l-19.45 25.08.06.05 20.05-25.83 8.28-10.75-.26.34c3.56-4.54 10.4-5.67 14.94-2.11a10.45 10.45 0 0 1 1.76 14.67c-.2.26-8.66 11.28-8.88 11.52l-19.45 25.07.07.05L227 175.9l3.9-4.86a10.44 10.44 0 0 1 16.28 12.8l-3.75 4.97 3.57-4.68c-.18.27-4.14 5.49-4.35 5.75-.2.26-.42.5-.64.74l-24.81 31.89.19.46 21.48-16.7.02.05a.03.03 0 0 0 .02 0 10.45 10.45 0 0 1 12.81 16.5 9.61 9.61 0 0 1-.8.55l-41.4 32.16a27.83 27.83 0 0 1-1.63 1.37 29.48 29.48 0 0 1-19.08 6.2c-3.19.21-8.97 1.94-12.45 5.15l-49.7 64.53 86.92 66.5 1.06.82 33.62-44.2 44.1 33.55-33.7 44.3 38.67 29.55-42.32 59.52z"/><path fill="#010101" d="M255.02 524.82a2.01 2.01 0 0 1-1.21-.42l-199-152.63a32.19 32.19 0 0 1-1.83-1.32 36.76 36.76 0 0 1-6.46-51.52l74.04-95.27a43.4 43.4 0 0 0 2.69-11.96 22.13 22.13 0 0 1 5.7-15.78l26.1-33.26 20.05-25.81c.1-.14.22-.25.34-.35a12.38 12.38 0 0 1 9.5-4.4c2.82 0 5.48.92 7.7 2.66a12.42 12.42 0 0 1 4.62 8.03 12.46 12.46 0 0 1 8.5-3.35c2.8 0 5.46.92 7.67 2.65a12.35 12.35 0 0 1 4.67 8.25 13.22 13.22 0 0 1 8.32-2.97c2.77 0 5.34.87 7.45 2.53a12.38 12.38 0 0 1 4.67 8.3 12.36 12.36 0 0 1-1.69 7.9 12.31 12.31 0 0 1 9.07 2.58 12.46 12.46 0 0 1 2.98 16.18l-.08.14a2.1 2.1 0 0 1-.13.22c-.26.4-4.41 5.85-4.45 5.9-.23.28-.46.55-.7.8l-16.13 20.74 10.25-7.96a2 2 0 0 1 .42-.25 12.33 12.33 0 0 1 7.24-2.34c3.88 0 7.47 1.76 9.84 4.82a12.37 12.37 0 0 1 2.52 9.18 12.35 12.35 0 0 1-5.58 8.9l-41.28 32.06a30.36 30.36 0 0 1-1.68 1.4 31.28 31.28 0 0 1-20.27 6.63c-2.77.21-7.9 1.73-11.02 4.5l-48.35 62.8 84.78 64.89 32.4-42.6a2 2 0 0 1 1.33-.78 2 2 0 0 1 1.48.4l44.1 33.55a2 2 0 0 1 .39 2.8l-32.5 42.72 37.08 28.33a2 2 0 0 1 .42 2.75l-42.32 59.52a2 2 0 0 1-1.33.82 2.4 2.4 0 0 1-.3.02zM178 139.65l-19.78 25.47-26.17 33.32c-.03.04.07-4.07-.03.04-3.22 3.51-5 8.34-4.77 13.13a1.77 1.77 0 0 1 0 .2 46.88 46.88 0 0 1-3.06 13.58 2.09 2.09 0 0 1-.28.5l-74.22 95.5a32.75 32.75 0 0 0 7.41 47.1c.04.01.07.04.1.06l197.4 151.42 40-56.26-37.12-28.37a2 2 0 0 1-.38-2.8l32.49-42.72-40.92-31.13-32.42 42.61a2 2 0 0 1-2.8.37l-1.07-.8-86.9-66.51a2.01 2.01 0 0 1-.78-1.33 2.01 2.01 0 0 1 .4-1.48l49.7-64.53c.06-.09.14-.17.22-.25 3.62-3.33 9.75-5.4 13.68-5.67a1.8 1.8 0 0 1 .2 0 27.36 27.36 0 0 0 19.41-7.15l41.4-32.16.15-.1a8.4 8.4 0 0 0 3.85-6.07 8.4 8.4 0 0 0-1.7-6.24 8.4 8.4 0 0 0-6.69-3.27 8.36 8.36 0 0 0-5.17 1.78 1.97 1.97 0 0 1-.35.22l-.05.02-21.13 16.42a2 2 0 0 1-3.09-.87l-.18-.43a2 2 0 0 1 .28-1.97l24.81-31.89a1.76 1.76 0 0 1 .12-.14l.53-.6.56-.74c.05-.1.11-.2.19-.3l3.68-4.9a8.46 8.46 0 0 0-2.07-10.88 8.34 8.34 0 0 0-5.2-1.8 8.4 8.4 0 0 0-5.86 2.35l-3.82 4.77L207.71 204a2 2 0 0 1-2.8.37 2.1 2.1 0 0 1-.8-1.36c-.07-.53.04-1.09.37-1.51l19.45-25.07.07-.1c.44-.54 5.64-7.3 7.6-9.85a415.23 415.23 0 0 1 1.22-1.58 8.38 8.38 0 0 0 1.74-6.23 8.4 8.4 0 0 0-3.17-5.63 7.97 7.97 0 0 0-4.98-1.68 9.15 9.15 0 0 0-7.14 3.45l-.06.06-7.95 10.34-20.05 25.83a2 2 0 0 1-1.34.76 2.01 2.01 0 0 1-1.48-.4c-.87-.68-1.1-1.99-.41-2.86l19.45-25.07.13-.15c.25-.3 3.06-3.96 4.13-5.33l.68-.9a8.4 8.4 0 0 0-1.42-11.87 8.33 8.33 0 0 0-5.2-1.79 8.45 8.45 0 0 0-6.27 2.79l-4.32 5.52-20.45 26.34a2 2 0 0 1-2.77.39 2.09 2.09 0 0 1-.83-1.36c-.07-.54.04-1.1.37-1.53l19.45-25.07.12-.15a8.46 8.46 0 0 0-.9-12.46 8.36 8.36 0 0 0-5.2-1.8 8.42 8.42 0 0 0-6.61 3.16c-.1.15-.22.28-.35.39z"/><path fill="#FFF" d="m340.52 492.08 17.52 13.39 3.91 2.99a13.48 13.48 0 0 1-18.9 2.52 13.6 13.6 0 0 1-1.6-1.46l-.54.14a13.48 13.48 0 0 1-26.05 6.37l-.07.03a13.48 13.48 0 0 1-26.06 6.37l-.13.03a13.48 13.48 0 0 1-26.07 6.38l-9.41 2.3-21.9-16.74 69.14-53.34 40.17 31.02zM169.65 332.15l-9.71-19.8-2.17-4.41a13.48 13.48 0 0 0-5.05 19.9l-.24.5a13.49 13.49 0 0 0-11.34 24.31l-.03.07a13.49 13.49 0 0 0-11.34 24.3l-.06.13a13.49 13.49 0 0 0-11.34 24.32c-2.23 4.79-4.93 8.34-3.48 13.86 1.34 5.08 5.14 5.31 7.71 9.46 1.53 2.47 6.57 2.23 7.93 4.84 24.37-12.22 44.86-18.66 69.34-30.67l2.06-1.01-32.28-65.8z"/><path fill="#FED828" d="M254.84 257.99a29.2 29.2 0 0 1 2.45 2.1 82.02 82.02 0 0 1 125.37 95.37 29.09 29.09 0 0 1 2.69 1.8 28.47 28.47 0 0 1-34.48 45.33 28.71 28.71 0 0 1-5-4.9 82 82 0 0 1-119.46-90.86 28.43 28.43 0 0 1-6.05-3.52 28.47 28.47 0 0 1 34.48-45.32z"/><path fill="#010101" d="M368.09 410.4a30.2 30.2 0 0 1-18.43-6.22 31.05 31.05 0 0 1-4.27-3.95 84.47 84.47 0 0 1-39.31 9.72 83.22 83.22 0 0 1-50.78-17.15 84.07 84.07 0 0 1-31.2-84.84 30.64 30.64 0 0 1-4.95-3.07 30.26 30.26 0 0 1-11.74-20.14 30.29 30.29 0 0 1 5.94-22.55 30.25 30.25 0 0 1 24.27-12.03 30.2 30.2 0 0 1 19.81 7.35 84.65 84.65 0 0 1 48.79-15.56A83.22 83.22 0 0 1 357 259.11c29.15 22.17 40.57 61.25 28.1 95.53a30.5 30.5 0 0 1 7.25 43.73 30.25 30.25 0 0 1-24.26 12.03zm-21.72-15.27 1.05 1.32a26.67 26.67 0 0 0 4.66 4.54 26.23 26.23 0 0 0 16 5.4c8.36 0 16.05-3.8 21.1-10.44a26.5 26.5 0 0 0-5.05-37.1 26.34 26.34 0 0 0-2.5-1.67l-1.44-.86.6-1.58c12.75-33 1.97-71.01-26.21-92.45a79.25 79.25 0 0 0-48.36-16.33 80.59 80.59 0 0 0-47.74 15.74l-1.35 1-1.22-1.16a27.14 27.14 0 0 0-2.29-1.96 26.24 26.24 0 0 0-16-5.4 26.3 26.3 0 0 0-21.09 10.44 26.3 26.3 0 0 0-5.16 19.6c.95 7 4.58 13.21 10.2 17.5a26.66 26.66 0 0 0 5.63 3.27l1.54.66-.39 1.64a80.06 80.06 0 0 0 29.37 82.33 79.25 79.25 0 0 0 48.36 16.32 80.4 80.4 0 0 0 38.8-10l1.49-.8z"/><path fill="none" d="m384.15 382.67-25.39 4.53"/><path fill="#010101" d="M358.76 389.2a2 2 0 0 1-.35-3.96l25.38-4.54a2 2 0 1 1 .7 3.94l-25.38 4.53a2.22 2.22 0 0 1-.35.03z"/><path fill="none" d="m233.39 267.98 2.4 25.68"/><path fill="#010101" d="M235.8 295.66a2 2 0 0 1-2-1.81l-2.4-25.68a2 2 0 1 1 3.98-.38l2.4 25.68a2 2 0 0 1-1.99 2.19z"/><g fill="#010101"><path d="M321.37 348.47a10.82 10.82 0 1 0 17.23 13.1 10.82 10.82 0 0 0-17.23-13.1z"/><path d="M345.14 371.47h-.1a2 2 0 0 1-1.9-2.1 24.19 24.19 0 0 0-9.51-20.45 24.21 24.21 0 0 0-22.25-3.72 2 2 0 1 1-1.26-3.8 28.22 28.22 0 0 1 25.93 4.33 28.2 28.2 0 0 1 11.09 23.84 2 2 0 0 1-2 1.9z"/></g><g fill="#010101"><circle cx="273.79" cy="312.28" r="10.82"/><path d="M288.95 328.72h-.1a2 2 0 0 1-1.9-2.1 24.19 24.19 0 0 0-9.52-20.45 24.2 24.2 0 0 0-22.25-3.7 2 2 0 0 1-2.52-1.28 2 2 0 0 1 1.27-2.53 28.2 28.2 0 0 1 25.93 4.33 28.2 28.2 0 0 1 11.08 23.83 2 2 0 0 1-2 1.9z"/></g><path fill="none" d="m301.28 333.3-9.53 12.53"/><path fill="#010101" d="M291.75 347.83a2 2 0 0 1-1.21-.4 2 2 0 0 1-.39-2.81l9.54-12.54a2 2 0 1 1 3.19 2.42l-9.54 12.54a2 2 0 0 1-1.6.79z"/><path fill="#FFF" d="M264.21 336.26a27.7 27.7 0 0 0 44.1 33.55l-44.1-33.55z"/><path fill="#010101" d="m255.56 261.1.68-.89a82.45 82.45 0 0 1 131.86 66.1 82.45 82.45 0 0 1-3.79 24.7l-3.86 5.09-124.88-95z"/><path fill="#FFF" d="M211.72 393.46c-11.45 14.98-8.7 36.6 6.29 48.06 14.98 11.45 36.52 8.36 47.98-6.63l34.37 26.17-52.68 67.05-122.45-93.6 51.73-67.78 34.76 26.73z"/><circle fill="#FFF" cx="130.57" cy="414.08" r="16.77"/><g fill="#FFF"><path d="M388.7 346.6a7.94 7.94 0 0 1-7.94-7.93v-59.1a7.93 7.93 0 0 1 15.87 0v59.1a7.93 7.93 0 0 1-7.94 7.94z"/><path d="M367.8 337.95a7.9 7.9 0 0 1-5.6-2.32 7.94 7.94 0 0 1 0-11.22l41.78-41.79a7.94 7.94 0 0 1 11.22 11.22l-41.78 41.8a7.93 7.93 0 0 1-5.62 2.31z"/><path d="M418.24 317.06h-59.1a7.94 7.94 0 0 1 0-15.87h59.1a7.93 7.93 0 1 1 0 15.87z"/><path d="M409.6 337.95a7.9 7.9 0 0 1-5.62-2.32l-41.79-41.79a7.93 7.93 0 0 1 0-11.22 7.93 7.93 0 0 1 11.23 0l41.78 41.79a7.93 7.93 0 0 1-5.6 13.54z"/></g><path fill="#FFF" d="M73.2 577.14c17.79 0 17.79-17.02 35.58-17.02 17.8 0 17.8 17.02 35.6 17.02 17.79 0 17.79-17.02 35.58-17.02s17.8 17.02 35.6 17.02c11.48 0 15.55-7.1 21.78-12.12l27.41-35.85L129.9 426.08 23.5 565.28c3.49-2.89 7.6-5.16 14.1-5.16 17.8 0 17.8 17.02 35.6 17.02z"/><path fill="#FFF" d="M785 579.6c-9.7 0-14.74-4.8-19.19-9.06-4.27-4.08-8.31-7.95-16.41-7.95s-12.14 3.86-16.41 7.95c-4.44 4.25-9.48 9.07-19.18 9.07s-14.73-4.82-19.18-9.07c-4.28-4.08-8.32-7.95-16.41-7.95s-12.14 3.86-16.42 7.95c-4.44 4.25-9.48 9.07-19.18 9.07s-14.73-4.82-19.18-9.07c-4.28-4.08-8.32-7.95-16.41-7.95-8.1 0-12.14 3.86-16.42 7.95-4.44 4.25-9.48 9.07-19.18 9.07s-14.73-4.82-19.17-9.07c-4.28-4.08-8.32-7.95-16.42-7.95-8.1 0-12.13 3.86-16.41 7.95-4.44 4.25-9.48 9.07-19.18 9.07s-14.73-4.82-19.18-9.07c-4.27-4.08-8.31-7.95-16.4-7.95s-12.15 3.86-16.42 7.95c-4.44 4.25-9.48 9.07-19.18 9.07s-14.73-4.82-19.18-9.07c-4.28-4.08-8.32-7.95-16.41-7.95-8.1 0-12.14 3.86-16.42 7.95-4.44 4.25-9.47 9.07-19.17 9.07s-14.74-4.82-19.18-9.07c-4.28-4.08-8.32-7.95-16.41-7.95-8.1 0-12.14 3.86-16.41 7.95-4.44 4.25-9.48 9.07-19.18 9.07s-14.73-4.82-19.17-9.07c-4.28-4.08-8.32-7.95-16.41-7.95-8.1 0-12.14 3.86-16.42 7.95-4.44 4.25-9.47 9.07-19.17 9.07-9.7 0-14.73-4.82-19.18-9.07-4.28-4.09-8.32-7.95-16.41-7.95-8.1 0-12.14 3.86-16.41 7.95-4.45 4.25-9.48 9.07-19.18 9.07s-14.73-4.82-19.18-9.07c-4.27-4.09-8.31-7.95-16.41-7.95s-12.14 3.86-16.41 7.95c-4.45 4.25-9.48 9.07-19.18 9.07s-14.73-4.82-19.18-9.07c-4.28-4.08-8.31-7.95-16.41-7.95s-12.14 3.86-16.41 7.95c-4.45 4.25-9.48 9.07-19.18 9.07a2 2 0 0 1 0-4c8.1 0 12.13-3.87 16.41-7.96 4.44-4.24 9.48-9.06 19.18-9.06s14.73 4.81 19.18 9.06c4.27 4.1 8.31 7.96 16.4 7.96 8.1 0 12.14-3.87 16.42-7.96 4.44-4.24 9.48-9.06 19.18-9.06s14.73 4.81 19.18 9.06c4.27 4.1 8.31 7.96 16.41 7.96s12.13-3.87 16.4-7.96c4.45-4.24 9.49-9.06 19.19-9.06 9.7 0 14.73 4.81 19.18 9.06 4.27 4.1 8.31 7.96 16.4 7.96 8.1 0 12.14-3.87 16.42-7.96 4.44-4.24 9.48-9.06 19.18-9.06s14.73 4.81 19.17 9.06c4.28 4.1 8.32 7.96 16.41 7.96 8.1 0 12.14-3.87 16.41-7.96 4.44-4.24 9.48-9.06 19.18-9.06s14.73 4.81 19.18 9.06c4.27 4.1 8.31 7.96 16.4 7.96 8.1 0 12.14-3.87 16.42-7.96 4.44-4.24 9.48-9.06 19.18-9.06s14.73 4.81 19.18 9.06c4.27 4.1 8.31 7.96 16.41 7.96s12.14-3.87 16.41-7.96c4.44-4.24 9.48-9.06 19.18-9.06s14.73 4.81 19.18 9.06c4.27 4.1 8.31 7.96 16.41 7.96s12.14-3.87 16.41-7.96c4.45-4.24 9.48-9.06 19.18-9.06s14.74 4.81 19.18 9.06c4.28 4.1 8.32 7.96 16.41 7.96 8.1 0 12.14-3.87 16.42-7.96 4.44-4.24 9.48-9.06 19.18-9.06s14.73 4.81 19.17 9.06c4.28 4.1 8.32 7.96 16.42 7.96 8.1 0 12.14-3.87 16.41-7.96 4.44-4.24 9.48-9.06 19.18-9.06s14.74 4.81 19.18 9.06c4.28 4.1 8.32 7.96 16.42 7.96 8.1 0 12.14-3.87 16.41-7.96 4.44-4.24 9.48-9.06 19.18-9.06s14.73 4.81 19.18 9.06c4.27 4.1 8.31 7.96 16.41 7.96s12.14-3.87 16.42-7.96c4.44-4.24 9.47-9.06 19.18-9.06a2 2 0 0 1 0 4c-8.1 0-12.14 3.86-16.42 7.95-4.44 4.25-9.48 9.07-19.18 9.07zm0 70.9c-9.7 0-14.74-4.82-19.19-9.07-4.27-4.08-8.31-7.95-16.41-7.95s-12.14 3.86-16.41 7.95c-4.44 4.25-9.48 9.07-19.18 9.07s-14.73-4.82-19.18-9.07c-4.28-4.08-8.32-7.95-16.41-7.95s-12.14 3.86-16.42 7.95c-4.44 4.25-9.48 9.07-19.18 9.07s-14.73-4.82-19.18-9.07c-4.28-4.08-8.32-7.95-16.41-7.95-8.1 0-12.14 3.86-16.42 7.96-4.44 4.24-9.48 9.06-19.18 9.06s-14.73-4.81-19.17-9.06c-4.28-4.1-8.32-7.96-16.42-7.96-8.1 0-12.13 3.87-16.41 7.96-4.44 4.24-9.48 9.06-19.18 9.06s-14.73-4.81-19.18-9.06c-4.27-4.1-8.31-7.96-16.4-7.96-8.1 0-12.14 3.87-16.42 7.96-4.44 4.24-9.48 9.06-19.18 9.06s-14.73-4.81-19.18-9.06c-4.28-4.1-8.32-7.96-16.41-7.96-8.1 0-12.14 3.87-16.42 7.96-4.44 4.24-9.47 9.06-19.17 9.06-9.7 0-14.73-4.81-19.18-9.06-4.28-4.1-8.31-7.96-16.41-7.96s-12.14 3.86-16.41 7.95c-4.44 4.25-9.48 9.07-19.18 9.07s-14.73-4.82-19.17-9.07c-4.28-4.08-8.32-7.95-16.41-7.95-8.1 0-12.14 3.86-16.42 7.95-4.44 4.25-9.47 9.07-19.17 9.07-9.7 0-14.73-4.82-19.18-9.07-4.28-4.08-8.32-7.95-16.41-7.95-8.1 0-12.14 3.86-16.41 7.96-4.45 4.24-9.48 9.06-19.18 9.06s-14.73-4.81-19.18-9.06c-4.27-4.1-8.31-7.96-16.41-7.96s-12.14 3.86-16.41 7.95c-4.45 4.25-9.48 9.07-19.18 9.07s-14.73-4.82-19.18-9.07c-4.28-4.08-8.31-7.95-16.41-7.95s-12.14 3.86-16.41 7.95c-4.45 4.25-9.48 9.07-19.18 9.07a2 2 0 0 1 0-4c8.1 0 12.13-3.86 16.41-7.95 4.44-4.25 9.48-9.06 19.18-9.06s14.73 4.8 19.18 9.06c4.27 4.09 8.31 7.95 16.4 7.95 8.1 0 12.14-3.86 16.42-7.95 4.44-4.25 9.48-9.06 19.18-9.06s14.73 4.8 19.18 9.06c4.27 4.09 8.31 7.95 16.4 7.95 8.1 0 12.14-3.86 16.42-7.95 4.44-4.25 9.48-9.06 19.18-9.06s14.73 4.8 19.18 9.06c4.27 4.09 8.31 7.95 16.4 7.95 8.1 0 12.14-3.86 16.42-7.95 4.44-4.25 9.48-9.06 19.18-9.06s14.73 4.8 19.17 9.06c4.28 4.09 8.32 7.95 16.41 7.95 8.1 0 12.14-3.86 16.41-7.95 4.44-4.25 9.48-9.06 19.18-9.06s14.73 4.8 19.18 9.06c4.27 4.09 8.31 7.95 16.4 7.95 8.1 0 12.14-3.86 16.42-7.95 4.44-4.25 9.48-9.06 19.18-9.06s14.73 4.8 19.18 9.06c4.27 4.09 8.31 7.95 16.4 7.95 8.1 0 12.15-3.86 16.42-7.95 4.44-4.25 9.48-9.06 19.18-9.06s14.73 4.8 19.18 9.06c4.27 4.09 8.32 7.95 16.41 7.95s12.14-3.86 16.41-7.95c4.44-4.25 9.48-9.06 19.18-9.06s14.74 4.8 19.18 9.06c4.28 4.09 8.32 7.95 16.41 7.95 8.1 0 12.14-3.86 16.42-7.95 4.44-4.25 9.47-9.06 19.18-9.06 9.7 0 14.73 4.8 19.17 9.06 4.28 4.09 8.32 7.95 16.42 7.95s12.14-3.86 16.41-7.95c4.44-4.25 9.48-9.06 19.18-9.06s14.74 4.81 19.18 9.06c4.28 4.09 8.32 7.95 16.42 7.95s12.14-3.86 16.41-7.95c4.44-4.25 9.48-9.06 19.18-9.06s14.73 4.8 19.18 9.06c4.27 4.09 8.31 7.95 16.41 7.95s12.14-3.86 16.41-7.95c4.45-4.25 9.48-9.06 19.19-9.06a2 2 0 0 1 0 4c-8.1 0-12.14 3.86-16.42 7.95-4.44 4.24-9.48 9.06-19.18 9.06zm0 71.83c-9.7 0-14.74-4.81-19.19-9.06-4.27-4.09-8.31-7.95-16.41-7.95s-12.14 3.86-16.41 7.95c-4.44 4.25-9.48 9.06-19.18 9.06s-14.73-4.81-19.18-9.06c-4.28-4.09-8.32-7.95-16.41-7.95s-12.14 3.86-16.42 7.95c-4.44 4.25-9.48 9.06-19.18 9.06s-14.73-4.81-19.18-9.06c-4.28-4.09-8.32-7.95-16.41-7.95-8.1 0-12.14 3.86-16.42 7.95-4.44 4.25-9.48 9.06-19.18 9.06s-14.73-4.8-19.17-9.06c-4.28-4.09-8.32-7.95-16.42-7.95-8.1 0-12.13 3.86-16.41 7.95-4.44 4.25-9.48 9.06-19.18 9.06s-14.73-4.8-19.18-9.06c-4.27-4.09-8.31-7.95-16.4-7.95-8.1 0-12.14 3.86-16.42 7.95-4.44 4.25-9.48 9.06-19.18 9.06s-14.73-4.8-19.18-9.06c-4.28-4.09-8.32-7.95-16.41-7.95-8.1 0-12.14 3.86-16.42 7.95-4.44 4.25-9.47 9.06-19.17 9.06-9.7 0-14.73-4.8-19.18-9.06-4.28-4.09-8.31-7.95-16.41-7.95s-12.14 3.86-16.41 7.95c-4.44 4.25-9.48 9.06-19.18 9.06s-14.73-4.81-19.17-9.06c-4.28-4.09-8.32-7.95-16.41-7.95-8.1 0-12.14 3.86-16.42 7.95-4.44 4.25-9.47 9.06-19.17 9.06-9.7 0-14.73-4.81-19.18-9.06-4.28-4.09-8.32-7.95-16.41-7.95-8.1 0-12.14 3.86-16.41 7.95-4.45 4.25-9.48 9.06-19.18 9.06s-14.73-4.8-19.18-9.06c-4.27-4.09-8.31-7.95-16.41-7.95s-12.14 3.86-16.41 7.95c-4.45 4.25-9.48 9.06-19.18 9.06s-14.73-4.81-19.18-9.06c-4.28-4.09-8.31-7.95-16.41-7.95s-12.14 3.86-16.41 7.95c-4.45 4.25-9.48 9.06-19.18 9.06a2 2 0 0 1 0-4c8.1 0 12.13-3.86 16.41-7.95 4.44-4.25 9.48-9.06 19.18-9.06s14.73 4.81 19.18 9.06c4.27 4.09 8.31 7.95 16.4 7.95 8.1 0 12.14-3.86 16.42-7.95 4.44-4.25 9.48-9.06 19.18-9.06s14.73 4.81 19.18 9.06c4.27 4.09 8.31 7.95 16.4 7.95 8.1 0 12.14-3.86 16.42-7.95 4.44-4.25 9.48-9.06 19.18-9.06s14.73 4.81 19.18 9.06c4.27 4.09 8.31 7.95 16.4 7.95 8.1 0 12.14-3.86 16.42-7.95 4.44-4.25 9.48-9.06 19.18-9.06s14.73 4.81 19.17 9.06c4.28 4.09 8.32 7.95 16.41 7.95 8.1 0 12.14-3.86 16.41-7.95 4.44-4.25 9.48-9.06 19.18-9.06s14.73 4.81 19.18 9.06c4.27 4.09 8.31 7.95 16.4 7.95 8.1 0 12.14-3.86 16.42-7.95 4.44-4.25 9.48-9.06 19.18-9.06s14.73 4.81 19.18 9.06c4.27 4.1 8.31 7.95 16.4 7.95 8.1 0 12.15-3.86 16.42-7.95 4.44-4.25 9.48-9.06 19.18-9.06s14.73 4.81 19.18 9.06c4.27 4.1 8.32 7.95 16.41 7.95s12.14-3.86 16.41-7.95c4.44-4.24 9.48-9.06 19.18-9.06s14.74 4.81 19.18 9.06c4.28 4.1 8.32 7.95 16.41 7.95 8.1 0 12.14-3.86 16.42-7.95 4.44-4.24 9.47-9.06 19.18-9.06 9.7 0 14.73 4.81 19.17 9.06 4.28 4.1 8.32 7.95 16.42 7.95s12.14-3.86 16.41-7.95c4.44-4.24 9.48-9.06 19.18-9.06s14.74 4.81 19.18 9.06c4.28 4.1 8.32 7.95 16.42 7.95s12.14-3.86 16.41-7.95c4.44-4.24 9.48-9.06 19.18-9.06s14.73 4.81 19.18 9.06c4.27 4.1 8.31 7.95 16.41 7.95s12.14-3.86 16.41-7.95c4.45-4.24 9.48-9.06 19.19-9.06a2 2 0 0 1 0 4c-8.1 0-12.14 3.86-16.42 7.95-4.44 4.25-9.48 9.06-19.18 9.06z"/><g fill="#FFF"><circle cx="140" cy="62.04" r="7.73"/><circle cx="91.07" cy="13.11" r="7.73"/></g><path fill="#FFF" d="M694.14 88.07a2 2 0 0 1-2-2V50.1a2 2 0 0 1 4 0v35.97a2 2 0 0 1-2 2zm0 49.3a2 2 0 0 1-2-2V99.4a2 2 0 0 1 4 0v35.97a2 2 0 0 1-2 2zm42.63-42.64H700.8a2 2 0 0 1 0-4h35.97a2 2 0 0 1 0 4zm-49.3 0H651.5a2 2 0 0 1 0-4h35.98a2 2 0 0 1 0 4zM352.5 155.38a2 2 0 0 1-2-2v-23.46a2 2 0 0 1 4 0v23.46a2 2 0 0 1-2 2zm0 32.15a2 2 0 0 1-2-2v-23.46a2 2 0 0 1 4 0v23.46a2 2 0 0 1-2 2zm27.8-27.8h-23.46a2 2 0 0 1 0-4h23.46a2 2 0 0 1 0 4zm-32.15 0h-23.46a2 2 0 0 1 0-4h23.46a2 2 0 0 1 0 4zm417.81 17.65a2 2 0 0 1-2-2v-23.46a2 2 0 0 1 4 0v23.46a2 2 0 0 1-2 2zm0 32.15a2 2 0 0 1-2-2v-23.46a2 2 0 0 1 4 0v23.46a2 2 0 0 1-2 2zm27.8-27.8H770.3a2 2 0 0 1 0-4h23.46a2 2 0 0 1 0 4zm-32.15 0h-23.46a2 2 0 0 1 0-4h23.46a2 2 0 0 1 0 4z"/><circle fill="#FFF" cx="794.03" cy="375.73" r="7.73"/><circle fill="#FFF" cx="498.57" cy="7.73" r="7.73"/></svg>
