<svg xmlns="http://www.w3.org/2000/svg" viewBox="0 0 824 723"><path fill="#ffd829" d="m518.33 160.28-15.88-17.4s-3.25-5.76 5.26-10.16"/><path fill="#231f20" d="M518.33 162.28a2 2 0 0 1-1.48-.66l-15.88-17.38a2 2 0 0 1-.26-.37 8.04 8.04 0 0 1-.53-5.99c.83-2.76 3.05-5.1 6.6-6.94a2 2 0 1 1 1.85 3.55c-2.52 1.3-4.12 2.88-4.61 4.54a4.2 4.2 0 0 0 .1 2.73l15.68 17.17a2 2 0 0 1-1.47 3.34Z"/><path fill="#ffd829" d="m423.84 477.23 16.93 78.1 3.64 16.77c5.67-4.93 9.91-11.23 20.74-11.23 17.8 0 17.8 17.01 35.6 17.01 17.79 0 17.79-17.01 35.58-17.01 4.9 0 8.45 1.29 11.39 3.16l-26.15-109.96 113.2-163-.2-.12 21.33-30.78c3.3-4.7 23.5-26.8 1.12-42.6l-82.38-58.73-49.5-34.72a10.38 10.38 0 0 0-16.18 10.28l34.93 94.11-117.48 169.17c-4.96 7.13-9.2 13.5-10.75 22.35-1.51 8.67-.42 17.54 1.43 26.06l6.75 31.14Z"/><path fill="#231f20" d="m442.45 572.53-27.32-126.01c-1.45-6.72-3.19-16.81-1.44-26.83 1.56-8.93 5.57-15.23 11.08-23.15l116.88-168.3-34.63-93.32-.03-.18a12.4 12.4 0 0 1 19.3-12.26l49.5 34.73 82.39 58.72c6.36 4.5 10.06 9.92 11 16.13 1.78 11.72-6.82 22.94-10.5 27.73-.48.62-.87 1.14-1.14 1.52l-20.18 29.14.18.13-113.82 163.9 25.94 109.09-3.89.92-26.35-110.83.5-.73 112.06-161.35-.18-.13 22.46-32.42c.3-.44.73-1 1.25-1.67 3.36-4.39 11.24-14.66 9.72-24.7-.78-5.1-3.93-9.62-9.37-13.47l-82.38-58.72L524 125.76a8.39 8.39 0 0 0-13.1 8.12l35.23 94.92-.6.86-117.47 169.16c-5.22 7.5-9.01 13.44-10.43 21.56-1.63 9.32.03 18.9 1.41 25.29l27.32 126Z"/><path fill="#ffd829" d="m592.31 401.97-.2.1 84.44 158.9c.69-.06 1.39-.1 2.13-.1 17.8 0 17.8 17.01 35.6 17.01 17.79 0 17.79-17.01 35.58-17.01 17.8 0 17.8 17.01 35.6 17.01 2.24 0 4.2-.27 5.96-.75 2.05-6.84 3.4-13.93 3.01-21.1-.48-8.96-3.95-15.8-8.03-23.46-.15-.28-59.46-110.44-87.94-164.03l56.96-49.23-.07-.15A11 11 0 0 0 751.2 299a11.02 11.02 0 0 0-7.43-17.72 11.03 11.03 0 0 0-8.49-18.03 11.03 11.03 0 0 0-10.1-15.44c-3.05 0-3.78 1.1-7.8 3.25l-49.93 26.83-88.74 48.57c-24.1 13.05-6.65 37.37-3.93 42.43Z"/><path fill="#231f20" d="M791.42 579.13a2 2 0 0 1-1.92-2.58c2.3-7.66 3.26-14.34 2.93-20.4-.44-8.24-3.51-14.58-7.8-22.64l-.6-1.11a46670.04 46670.04 0 0 1-87.34-162.92 2 2 0 0 1 .45-2.45l56.4-48.73a2 2 0 0 1 .73-.83 8.99 8.99 0 0 0 4.19-7.6c0-4.46-3.19-8.2-7.58-8.9a2 2 0 0 1-1.26-3.2 9.01 9.01 0 0 0-6.08-14.5 2 2 0 0 1-1.31-3.27 9.04 9.04 0 0 0-6.95-14.76 2 2 0 0 1-1.83-2.8 9.04 9.04 0 0 0-8.27-12.64c-1.68 0-2.3.37-4.14 1.46-.71.42-1.6.95-2.73 1.55l-49.91 26.83-88.73 48.56c-5.87 3.18-9.53 7.3-10.9 12.27-2.7 9.79 3.9 20.92 6.73 25.67.44.74.8 1.34 1.04 1.8l17.54 33.1a2 2 0 0 1 .23.91l83.4 156.94.97-.02a2 2 0 0 1 0 4c-.6 0-1.23.03-1.96.09a2 2 0 0 1-1.94-1.06l-84.43-158.88c-.16-.3-.24-.6-.24-.93l-17.1-32.27c-.22-.4-.55-.96-.95-1.64-3.08-5.19-10.3-17.35-7.15-28.78 1.67-6.05 6-11 12.84-14.71l88.74-48.57 49.93-26.84c1.06-.56 1.87-1.04 2.58-1.46 2.05-1.22 3.4-2.02 6.18-2.02a13.04 13.04 0 0 1 12.75 15.71 13.05 13.05 0 0 1 9.03 18.47 13.02 13.02 0 0 1 7.33 17.8 12.95 12.95 0 0 1 8.17 12.08c0 4.19-1.98 8.06-5.34 10.5-.1.18-.23.33-.4.47l-55.75 48.19c25.1 47.2 72.53 135.37 86.59 161.48l.6 1.13c4.53 8.52 7.77 15.24 8.26 24.3.36 6.53-.65 13.66-3.09 21.78a2 2 0 0 1-1.91 1.42Z"/><path fill="#ffd829" d="m719.35 273.63 15.93-10.4"/><path fill="#231f20" d="M719.35 275.63a2 2 0 0 1-1.1-3.67l15.94-10.4a2 2 0 0 1 2.18 3.35l-15.93 10.4a2 2 0 0 1-1.09.32Z"/><path fill="#ffd829" d="m728.17 291.43 15.93-10.4"/><path fill="#231f20" d="M728.17 293.43a2 2 0 0 1-1.1-3.67l15.94-10.4a2 2 0 0 1 2.19 3.35l-15.94 10.4c-.33.22-.71.32-1.09.32Z"/><path fill="#ffd829" d="m734.95 309.23 15.92-10.4"/><path fill="#231f20" d="M734.95 311.23a2 2 0 0 1-1.1-3.67l15.93-10.4a2 2 0 1 1 2.19 3.35l-15.93 10.4a2 2 0 0 1-1.1.32Z"/><path fill="#ffd829" d="m439.47 425.87 1.3-18.76"/><path fill="#231f20" d="m439.47 427.87-.14-.01a2 2 0 0 1-1.86-2.13l1.3-18.76a2 2 0 1 1 3.99.28l-1.3 18.75a2 2 0 0 1-1.99 1.87Z"/><path fill="#fff" d="m625.2 309.03-90.94-63.26 2.3-3.27 90.94 63.25Z"/><g fill="#fff"><path d="M611.5 341.57a7.93 7.93 0 0 1-6.47-12.51l34.1-48.27a7.93 7.93 0 1 1 12.96 9.15l-34.1 48.27a7.93 7.93 0 0 1-6.49 3.36Z"/><path d="M599.42 322.44a7.94 7.94 0 0 1-1.33-15.75l58.24-10.02a7.93 7.93 0 0 1 2.69 15.63l-58.24 10.02a7.9 7.9 0 0 1-1.36.12Z"/><path d="M652.68 334.48a7.9 7.9 0 0 1-4.57-1.45l-48.27-34.1a7.93 7.93 0 1 1 9.15-12.96l48.27 34.1a7.93 7.93 0 0 1-4.58 14.41Z"/><path d="M633.55 346.55a7.94 7.94 0 0 1-7.81-6.59l-10.02-58.24a7.94 7.94 0 0 1 15.64-2.7l10.02 58.25a7.93 7.93 0 0 1-7.83 9.28Z"/></g><path fill="#ffd829" d="m773.37 550.5-8.77-16.64"/><path fill="#231f20" d="M773.38 552.5a2 2 0 0 1-1.78-1.07l-8.77-16.63a2 2 0 1 1 3.53-1.87l8.78 16.63a2 2 0 0 1-1.76 2.93Z"/><path fill="#ffd829" d="M266.63 492.25v73.88"/><path d="M266.63 568.13a2 2 0 0 1-2-2v-73.88a2 2 0 0 1 4 0v73.88a2 2 0 0 1-2 2Z"/><path fill="#ffd829" d="M337.35 565.74v-73.49"/><path d="M337.35 567.74a2 2 0 0 1-2-2v-73.49a2 2 0 0 1 4 0v73.49a2 2 0 0 1-2 2Z"/><path fill="#ffd829" d="M323.01 560.4c6.64 0 10.8 2.37 14.34 5.34v-73.49h-70.72v73.88c5.7 4.94 9.93 11.28 20.8 11.28 17.79 0 17.79-17.01 35.58-17.01Zm-56.38-68.15v73.88"/><path d="M266.63 568.13a2 2 0 0 1-2-2v-73.88a2 2 0 0 1 4 0v73.88a2 2 0 0 1-2 2Z"/><path fill="#ffd829" d="M337.35 565.74v-73.49"/><path d="M337.35 567.74a2 2 0 0 1-2-2v-73.49a2 2 0 0 1 4 0v73.49a2 2 0 0 1-2 2Z"/><path fill="#ffd829" d="M256.72 522.1 57.67 369.4a34.71 34.71 0 0 1-7.88-49.99l74.23-95.49c.12-.3 2.57-6.4 2.93-12.95a20 20 0 0 1 5.22-14.5l11.62-14.8 14.54-18.5 20.05-25.84.04.03a10.45 10.45 0 1 1 15.8 13.64l-19.46 25.07.08.05 20.45-26.35 4.36-5.57a10.44 10.44 0 0 1 16 13.4c-.2.26-4.71 6.13-4.93 6.36l-19.46 25.07.07.06 20.05-25.84 8.28-10.75-.26.34c3.56-4.53 10.4-5.67 14.94-2.1a10.45 10.45 0 0 1 1.76 14.66c-.2.26-8.66 11.29-8.88 11.52L207.77 202l.07.06 20.87-26.88 3.89-4.87a10.44 10.44 0 0 1 16.29 12.8l-3.75 4.98 3.57-4.69c-.18.28-4.14 5.5-4.35 5.75-.2.26-.42.5-.64.74l-24.81 31.89.19.46 21.48-16.69.03.04a10.45 10.45 0 1 1 12.03 17.05l-41.4 32.16a29.48 29.48 0 0 1-20.71 7.57c-3.2.21-8.97 1.94-12.46 5.15l-49.7 64.53 86.92 66.5 1.06.82 33.63-44.2 44.1 33.55-33.7 44.3 38.66 29.55Z"/><path d="M256.72 524.1a2 2 0 0 1-1.21-.42l-199-152.64a36.76 36.76 0 0 1-8.28-52.84l74.03-95.26a43.4 43.4 0 0 0 2.68-11.97 22.14 22.14 0 0 1 5.7-15.78l26.12-33.25 20.04-25.82c.1-.13.21-.25.34-.35 2.37-2.8 5.81-4.4 9.5-4.4a12.41 12.41 0 0 1 12.31 10.7 12.47 12.47 0 0 1 16.18-.7 12.36 12.36 0 0 1 4.66 8.25 13.22 13.22 0 0 1 8.33-2.98c2.77 0 5.34.88 7.45 2.53 2.62 2.05 4.27 5 4.67 8.3a12.3 12.3 0 0 1-1.69 7.91 12.31 12.31 0 0 1 9.07 2.58 12.46 12.46 0 0 1 2.77 16.54c-.26.4-4.42 5.84-4.45 5.89-.23.28-.46.55-.7.8l-16.13 20.74 10.24-7.96c.13-.1.27-.18.42-.25a12.32 12.32 0 0 1 7.25-2.33c3.88 0 7.47 1.75 9.84 4.8a12.37 12.37 0 0 1 2.52 9.2 12.36 12.36 0 0 1-5.58 8.89l-41.28 32.06a31.28 31.28 0 0 1-21.96 8.04c-2.76.2-7.9 1.72-11.01 4.5l-48.36 62.8 84.79 64.88 32.4-42.6a2 2 0 0 1 2.8-.39l44.11 33.56a2 2 0 0 1 .38 2.8l-32.49 42.72 37.08 28.33a2 2 0 0 1 .41 2.75l-42.31 59.52a2 2 0 0 1-1.64.84ZM179.7 138.91l-19.8 25.49-26.17 33.32a18.1 18.1 0 0 0-4.8 13.37 46.88 46.88 0 0 1-3.06 13.57c-.07.18-.16.35-.28.5l-74.22 95.5a32.75 32.75 0 0 0 7.51 47.17l197.4 151.41 40-56.25-37.13-28.38a2 2 0 0 1-.37-2.8l32.49-42.7-40.92-31.14-32.42 42.61a2 2 0 0 1-2.8.38l-1.07-.82-86.9-66.5a2 2 0 0 1-.38-2.81l49.7-64.53c.07-.1.14-.18.23-.25 3.62-3.34 9.75-5.41 13.67-5.67h.2a27.37 27.37 0 0 0 19.42-7.16l41.4-32.16.15-.1a8.44 8.44 0 0 0 3.85-6.07 8.4 8.4 0 0 0-1.71-6.24 8.4 8.4 0 0 0-6.68-3.26c-1.89 0-3.68.61-5.18 1.78-.1.08-.22.15-.34.21l-.05.03-21.13 16.41a2 2 0 0 1-3.1-.86l-.17-.43a2 2 0 0 1 .28-1.98l24.8-31.88.13-.14.53-.61.56-.74c.05-.1.11-.2.19-.3l3.68-4.88a8.46 8.46 0 0 0-7.28-12.7 8.4 8.4 0 0 0-5.86 2.36l-3.82 4.77-20.85 26.85a2 2 0 0 1-2.79.37 2.1 2.1 0 0 1-.8-1.36c-.07-.53.04-1.09.36-1.51l19.45-25.07.08-.1c.44-.54 5.63-7.3 7.6-9.85l1.21-1.58a8.39 8.39 0 0 0 1.75-6.23 8.4 8.4 0 0 0-3.17-5.63 7.98 7.98 0 0 0-4.98-1.68 9.15 9.15 0 0 0-7.2 3.52l-7.96 10.33-20.05 25.83a2 2 0 0 1-2.81.35c-.87-.67-1.1-1.98-.42-2.85l19.45-25.07.13-.15c.25-.3 3.07-3.96 4.13-5.33l.69-.9a8.4 8.4 0 0 0 1.74-6.22 8.39 8.39 0 0 0-8.36-7.44 8.45 8.45 0 0 0-6.27 2.79l-4.33 5.51-20.45 26.35a2 2 0 0 1-2.76.39 2.1 2.1 0 0 1-.84-1.37c-.07-.53.04-1.1.37-1.52l19.45-25.08.13-.14.53-.6a8.46 8.46 0 0 0-13.25-10.5 2 2 0 0 1-.35.38Z"/><path fill="#fff" d="m341.1 492.43 17.51 13.4 3.92 2.98a13.48 13.48 0 0 1-20.5 1.07l-.54.13a13.48 13.48 0 0 1-26.06 6.38l-.07.02a13.48 13.48 0 0 1-26.06 6.37l-.13.03a13.48 13.48 0 0 1-26.07 6.38l-9.41 2.3-21.9-16.73 51.08-66.83Zm-168.75-164-9.71-19.8-2.17-4.42a13.49 13.49 0 0 0-5.05 19.9l-.24.5a13.49 13.49 0 0 0-11.34 24.31l-.03.07a13.49 13.49 0 0 0-11.34 24.31l-.06.12a13.49 13.49 0 0 0-11.34 24.32c-2.24 4.8-4.93 8.34-3.48 13.87 1.34 5.07 5.14 5.3 7.71 9.46 1.53 2.46 6.57 2.23 7.93 4.84 24.37-12.23 44.86-18.67 69.34-30.68l2.06-1-32.28-65.8Z"/><path fill="#ffd829" d="M255.53 258.26c.87.66 1.69 1.37 2.46 2.1a82.02 82.02 0 0 1 125.37 95.38 28.47 28.47 0 1 1-36.8 42.23 82 82 0 0 1-119.45-90.87 28.47 28.47 0 1 1 28.43-48.84Z"/><path d="M368.79 410.67a30.2 30.2 0 0 1-18.43-6.22 30.94 30.94 0 0 1-4.27-3.95 84.45 84.45 0 0 1-39.31 9.72A83.22 83.22 0 0 1 256 393.07a84.07 84.07 0 0 1-31.2-84.83 30.56 30.56 0 0 1-16.7-23.22 30.27 30.27 0 0 1 5.95-22.55 30.25 30.25 0 0 1 24.27-12.02 30.2 30.2 0 0 1 19.81 7.34 84.65 84.65 0 0 1 48.79-15.55 83.23 83.23 0 0 1 50.78 17.14c29.15 22.18 40.57 61.25 28.1 95.54a30.5 30.5 0 0 1 7.25 43.73 30.26 30.26 0 0 1-24.26 12.02Zm-21.72-15.26 1.05 1.31a26.75 26.75 0 0 0 4.66 4.55 26.23 26.23 0 0 0 16 5.4c8.36 0 16.05-3.8 21.1-10.44a26.5 26.5 0 0 0-7.54-38.78l-1.45-.86.6-1.57c12.75-33 1.97-71.02-26.21-92.45a79.26 79.26 0 0 0-48.36-16.33 80.57 80.57 0 0 0-47.74 15.73l-1.35 1-1.22-1.16a26.23 26.23 0 0 0-18.29-7.36c-8.35 0-16.04 3.8-21.09 10.44a26.3 26.3 0 0 0-5.16 19.6 26.3 26.3 0 0 0 10.2 17.5 26.66 26.66 0 0 0 5.63 3.27l1.54.67-.39 1.63a80.07 80.07 0 0 0 29.37 82.33 79.26 79.26 0 0 0 48.36 16.33 80.4 80.4 0 0 0 38.81-10Z"/><path fill="#ffd829" d="m384.85 382.94-25.39 4.53"/><path d="M359.46 389.47a2 2 0 0 1-.35-3.96l25.39-4.54a2 2 0 1 1 .7 3.94l-25.39 4.53-.35.03Z"/><path fill="#ffd829" d="m234.09 268.25 2.4 25.68"/><path d="M236.5 295.93a2 2 0 0 1-2-1.81l-2.4-25.68a2 2 0 1 1 3.98-.37l2.4 25.68a2 2 0 0 1-1.99 2.18Zm85.57 52.82a10.82 10.82 0 1 0 17.22 13.1 10.82 10.82 0 0 0-17.22-13.1Z"/><path d="M345.84 371.74h-.1a2 2 0 0 1-1.9-2.1 24.2 24.2 0 0 0-31.76-24.16 2 2 0 0 1-1.26-3.8 28.22 28.22 0 0 1 37.02 28.16 2 2 0 0 1-2 1.9Zm-60.53-59.19a10.82 10.82 0 1 1-21.64 0 10.82 10.82 0 0 1 21.64 0Z"/><path d="M289.65 329h-.1a2 2 0 0 1-1.9-2.1 24.2 24.2 0 0 0-31.76-24.17 2 2 0 1 1-1.26-3.8 28.2 28.2 0 0 1 37.01 28.17 2 2 0 0 1-2 1.9Z"/><path fill="#ffd829" d="m301.98 333.57-9.53 12.53"/><path d="M292.44 348.1a2 2 0 0 1-1.59-3.21l9.54-12.53a2 2 0 1 1 3.19 2.42l-9.54 12.53a2 2 0 0 1-1.6.8Z"/><path fill="#fff" d="M264.91 336.53a27.71 27.71 0 0 0 44.1 33.56Z"/><path d="m256.26 261.38.68-.9a82.46 82.46 0 0 1 128.07 90.8l-3.87 5.1Z"/><path fill="#fff" d="M212.31 393.92a34.15 34.15 0 1 0 54.27 41.48l33.37 25.51-51.57 67.47-122.45-93.6 51.57-67.47Z"/><path fill="#fff" d="M150.04 410.35a16.77 16.77 0 1 1-33.54 0 16.77 16.77 0 0 1 33.54 0Z"/><g fill="#fff"><path d="M389.4 346.88a7.94 7.94 0 0 1-7.94-7.93v-59.1a7.93 7.93 0 0 1 15.87 0v59.1a7.94 7.94 0 0 1-7.94 7.93Z"/><path d="M368.5 338.23a7.93 7.93 0 0 1-5.61-13.54l41.79-41.8a7.93 7.93 0 1 1 11.22 11.23l-41.78 41.78a7.92 7.92 0 0 1-5.62 2.33Z"/><path d="M418.94 317.33h-59.1a7.94 7.94 0 0 1 0-15.87h59.1a7.93 7.93 0 1 1 0 15.87Z"/><path d="M410.3 338.23a7.9 7.9 0 0 1-5.62-2.33l-41.79-41.79a7.93 7.93 0 1 1 11.23-11.22l41.78 41.8a7.93 7.93 0 0 1-5.6 13.54Z"/></g><path fill="#fff" d="M73.9 577.4c17.79 0 17.79-17 35.58-17 17.8 0 17.8 17 35.6 17 17.79 0 17.79-17 35.58-17 17.8 0 17.8 17 35.6 17 11.48 0 15.55-7.08 21.78-12.1l27.41-35.86L130.6 426.35 24.2 565.56c3.49-2.88 7.6-5.15 14.1-5.15 17.8 0 17.8 17 35.6 17Z"/><path fill="#fff" d="M785.7 579.88c-9.7 0-14.74-4.81-19.19-9.06-4.27-4.09-8.31-7.95-16.41-7.95s-12.13 3.86-16.41 7.95c-4.44 4.25-9.48 9.06-19.18 9.06s-14.74-4.81-19.18-9.06c-4.28-4.09-8.32-7.95-16.41-7.95-8.1 0-12.14 3.86-16.42 7.95-4.44 4.25-9.48 9.06-19.18 9.06s-14.73-4.81-19.18-9.06c-4.27-4.09-8.31-7.95-16.41-7.95s-12.14 3.86-16.41 7.95c-4.45 4.25-9.48 9.06-19.18 9.06s-14.74-4.81-19.18-9.06c-4.28-4.09-8.32-7.95-16.41-7.95-8.1 0-12.14 3.86-16.42 7.95-4.44 4.25-9.47 9.06-19.17 9.06-9.7 0-14.74-4.81-19.18-9.06-4.28-4.09-8.32-7.95-16.41-7.95-8.1 0-12.14 3.86-16.42 7.95-4.44 4.25-9.47 9.06-19.17 9.06-9.7 0-14.74-4.81-19.18-9.06-4.28-4.09-8.32-7.95-16.42-7.95-8.1 0-12.13 3.86-16.4 7.95-4.45 4.25-9.48 9.06-19.18 9.06s-14.74-4.81-19.18-9.06c-4.28-4.09-8.32-7.95-16.41-7.95-8.1 0-12.14 3.86-16.41 7.95-4.45 4.25-9.48 9.06-19.18 9.06s-14.73-4.81-19.18-9.06c-4.27-4.09-8.31-7.95-16.4-7.95-8.1 0-12.14 3.86-16.42 7.95-4.44 4.25-9.47 9.06-19.17 9.06-9.7 0-14.74-4.81-19.18-9.06-4.28-4.09-8.32-7.95-16.41-7.95-8.1 0-12.14 3.86-16.42 7.95-4.44 4.25-9.47 9.06-19.17 9.06-9.7 0-14.73-4.81-19.18-9.06-4.28-4.09-8.32-7.95-16.41-7.95-8.1 0-12.14 3.86-16.42 7.95-4.44 4.25-9.47 9.06-19.17 9.06-9.7 0-14.73-4.81-19.18-9.06-4.27-4.09-8.31-7.95-16.41-7.95s-12.14 3.86-16.41 7.95c-4.45 4.25-9.48 9.06-19.18 9.06a2 2 0 0 1 0-4c8.1 0 12.14-3.86 16.41-7.95 4.44-4.25 9.48-9.06 19.18-9.06s14.73 4.81 19.18 9.06c4.27 4.09 8.31 7.95 16.4 7.95 8.1 0 12.14-3.86 16.42-7.95 4.44-4.25 9.48-9.06 19.18-9.06s14.73 4.81 19.18 9.06c4.27 4.09 8.31 7.95 16.4 7.95 8.1 0 12.14-3.86 16.42-7.95 4.44-4.25 9.48-9.06 19.18-9.06s14.73 4.81 19.17 9.06c4.28 4.09 8.32 7.95 16.42 7.95 8.1 0 12.13-3.86 16.4-7.95 4.45-4.25 9.48-9.06 19.18-9.06s14.74 4.81 19.18 9.06c4.28 4.09 8.32 7.95 16.41 7.95 8.1 0 12.13-3.86 16.41-7.95 4.44-4.25 9.48-9.06 19.18-9.06s14.73 4.81 19.17 9.06c4.28 4.09 8.32 7.95 16.42 7.95 8.1 0 12.13-3.86 16.4-7.95 4.45-4.25 9.49-9.06 19.18-9.06 9.7 0 14.74 4.81 19.18 9.06 4.28 4.09 8.32 7.95 16.42 7.95 8.1 0 12.13-3.86 16.41-7.95 4.44-4.25 9.48-9.06 19.18-9.06s14.73 4.81 19.17 9.06c4.28 4.09 8.32 7.95 16.42 7.95 8.1 0 12.13-3.86 16.41-7.95 4.44-4.25 9.48-9.06 19.18-9.06s14.73 4.81 19.18 9.06c4.27 4.09 8.31 7.95 16.4 7.95 8.1 0 12.14-3.86 16.42-7.95 4.44-4.25 9.48-9.06 19.18-9.06s14.74 4.81 19.18 9.06c4.28 4.09 8.32 7.95 16.41 7.95 8.1 0 12.14-3.86 16.42-7.95 4.44-4.25 9.48-9.06 19.18-9.06s14.73 4.81 19.18 9.06c4.27 4.09 8.31 7.95 16.41 7.95s12.14-3.86 16.41-7.95c4.45-4.25 9.48-9.06 19.18-9.06s14.74 4.81 19.18 9.06c4.28 4.09 8.32 7.95 16.41 7.95 8.1 0 12.14-3.86 16.42-7.95 4.44-4.25 9.48-9.06 19.18-9.06a2 2 0 0 1 0 4c-8.1 0-12.14 3.86-16.42 7.95-4.44 4.25-9.48 9.06-19.18 9.06Zm0 70.89c-9.7 0-14.74-4.81-19.19-9.06-4.27-4.09-8.31-7.95-16.41-7.95s-12.13 3.86-16.41 7.95c-4.44 4.25-9.48 9.06-19.18 9.06s-14.74-4.81-19.18-9.06c-4.28-4.09-8.32-7.95-16.41-7.95-8.1 0-12.14 3.86-16.42 7.95-4.44 4.25-9.48 9.06-19.18 9.06s-14.73-4.81-19.18-9.06c-4.27-4.09-8.31-7.95-16.41-7.95s-12.14 3.86-16.41 7.95c-4.45 4.25-9.48 9.06-19.18 9.06s-14.74-4.81-19.18-9.06c-4.28-4.09-8.32-7.95-16.41-7.95-8.1 0-12.14 3.86-16.41 7.95-4.45 4.25-9.48 9.06-19.18 9.06s-14.74-4.81-19.18-9.06c-4.28-4.09-8.32-7.95-16.41-7.95-8.1 0-12.14 3.86-16.42 7.95-4.44 4.25-9.47 9.06-19.17 9.06-9.7 0-14.74-4.81-19.18-9.06-4.28-4.09-8.32-7.95-16.42-7.95-8.1 0-12.13 3.86-16.4 7.95-4.45 4.25-9.48 9.06-19.18 9.06s-14.74-4.81-19.18-9.06c-4.28-4.09-8.32-7.95-16.41-7.95-8.1 0-12.14 3.86-16.41 7.95-4.45 4.25-9.48 9.06-19.18 9.06s-14.73-4.81-19.18-9.06c-4.27-4.09-8.31-7.95-16.4-7.95-8.1 0-12.14 3.86-16.42 7.95-4.44 4.25-9.47 9.06-19.17 9.06-9.7 0-14.74-4.81-19.18-9.06-4.28-4.09-8.32-7.95-16.41-7.95-8.1 0-12.14 3.86-16.42 7.95-4.44 4.25-9.47 9.06-19.17 9.06-9.7 0-14.73-4.81-19.18-9.06-4.28-4.09-8.32-7.95-16.41-7.95-8.1 0-12.14 3.86-16.42 7.95-4.44 4.25-9.47 9.06-19.17 9.06-9.7 0-14.73-4.81-19.18-9.06-4.27-4.09-8.31-7.95-16.41-7.95s-12.14 3.86-16.41 7.95c-4.45 4.25-9.48 9.06-19.18 9.06a2 2 0 0 1 0-4c8.1 0 12.14-3.86 16.41-7.95 4.44-4.25 9.48-9.06 19.18-9.06s14.73 4.81 19.18 9.06c4.27 4.09 8.31 7.95 16.4 7.95 8.1 0 12.14-3.86 16.42-7.95 4.44-4.25 9.48-9.06 19.18-9.06s14.73 4.81 19.18 9.06c4.27 4.09 8.31 7.95 16.4 7.95 8.1 0 12.14-3.86 16.42-7.95 4.44-4.25 9.48-9.06 19.18-9.06s14.73 4.81 19.17 9.06c4.28 4.09 8.32 7.95 16.42 7.95 8.1 0 12.13-3.86 16.4-7.95 4.45-4.25 9.48-9.06 19.18-9.06s14.74 4.81 19.18 9.06c4.28 4.09 8.32 7.95 16.41 7.95 8.1 0 12.13-3.86 16.41-7.95 4.44-4.25 9.48-9.06 19.18-9.06s14.73 4.81 19.17 9.06c4.28 4.09 8.32 7.95 16.42 7.95 8.1 0 12.13-3.86 16.4-7.95 4.45-4.25 9.49-9.06 19.18-9.06 9.7 0 14.74 4.81 19.18 9.06 4.28 4.09 8.32 7.95 16.42 7.95 8.1 0 12.13-3.86 16.41-7.95 4.44-4.25 9.48-9.06 19.18-9.06s14.73 4.81 19.17 9.06c4.28 4.09 8.32 7.95 16.42 7.95 8.1 0 12.13-3.86 16.41-7.95 4.44-4.25 9.48-9.06 19.18-9.06s14.73 4.81 19.18 9.06c4.27 4.09 8.31 7.95 16.4 7.95 8.1 0 12.14-3.86 16.42-7.95 4.44-4.25 9.48-9.06 19.18-9.06s14.74 4.81 19.18 9.06c4.28 4.09 8.32 7.95 16.41 7.95 8.1 0 12.14-3.86 16.42-7.95 4.44-4.25 9.48-9.06 19.18-9.06s14.73 4.81 19.18 9.06c4.27 4.09 8.31 7.95 16.41 7.95s12.14-3.86 16.41-7.95c4.45-4.25 9.48-9.06 19.18-9.06s14.74 4.81 19.18 9.06c4.28 4.09 8.32 7.95 16.41 7.95 8.1 0 12.14-3.86 16.42-7.95 4.44-4.25 9.48-9.06 19.18-9.06a2 2 0 0 1 0 4c-8.1 0-12.14 3.86-16.42 7.95-4.44 4.25-9.48 9.06-19.18 9.06Zm0 71.83c-9.7 0-14.74-4.8-19.19-9.06-4.27-4.08-8.31-7.95-16.41-7.95s-12.13 3.87-16.41 7.95c-4.44 4.25-9.48 9.07-19.18 9.07s-14.74-4.82-19.18-9.07c-4.28-4.08-8.32-7.95-16.41-7.95-8.1 0-12.14 3.87-16.42 7.95-4.44 4.25-9.48 9.07-19.18 9.07s-14.73-4.82-19.18-9.07c-4.27-4.08-8.31-7.95-16.41-7.95s-12.14 3.87-16.41 7.95c-4.45 4.25-9.48 9.07-19.18 9.07s-14.74-4.82-19.18-9.07c-4.28-4.08-8.32-7.95-16.41-7.95-8.1 0-12.14 3.87-16.41 7.95-4.45 4.25-9.48 9.07-19.18 9.07s-14.74-4.82-19.18-9.07c-4.28-4.08-8.32-7.95-16.41-7.95-8.1 0-12.14 3.87-16.42 7.95-4.44 4.25-9.47 9.07-19.17 9.07-9.7 0-14.74-4.82-19.18-9.07-4.28-4.08-8.32-7.95-16.42-7.95-8.1 0-12.13 3.87-16.4 7.95-4.45 4.25-9.48 9.07-19.18 9.07s-14.74-4.82-19.18-9.07c-4.28-4.08-8.32-7.95-16.41-7.95-8.1 0-12.14 3.87-16.41 7.95-4.45 4.25-9.48 9.07-19.18 9.07s-14.73-4.82-19.18-9.07c-4.27-4.08-8.31-7.95-16.4-7.95-8.1 0-12.14 3.87-16.42 7.95-4.44 4.25-9.47 9.07-19.17 9.07-9.7 0-14.74-4.82-19.18-9.07-4.28-4.08-8.32-7.95-16.41-7.95-8.1 0-12.14 3.87-16.42 7.95-4.44 4.25-9.47 9.07-19.17 9.07-9.7 0-14.73-4.82-19.18-9.07-4.28-4.08-8.32-7.95-16.41-7.95-8.1 0-12.14 3.87-16.42 7.95-4.44 4.25-9.47 9.07-19.17 9.07-9.7 0-14.73-4.82-19.18-9.07-4.27-4.08-8.31-7.95-16.41-7.95s-12.14 3.87-16.41 7.95c-4.45 4.25-9.48 9.07-19.18 9.07a2 2 0 0 1 0-4c8.1 0 12.14-3.87 16.41-7.96 4.44-4.24 9.48-9.06 19.18-9.06s14.73 4.82 19.18 9.06c4.27 4.1 8.31 7.96 16.4 7.96 8.1 0 12.14-3.87 16.42-7.96 4.44-4.24 9.48-9.06 19.18-9.06s14.73 4.82 19.18 9.06c4.27 4.1 8.31 7.96 16.4 7.96 8.1 0 12.14-3.87 16.42-7.96 4.44-4.24 9.48-9.06 19.18-9.06s14.73 4.82 19.17 9.06c4.28 4.1 8.32 7.96 16.42 7.96 8.1 0 12.13-3.87 16.4-7.96 4.45-4.24 9.48-9.06 19.18-9.06s14.74 4.82 19.18 9.06c4.28 4.1 8.32 7.96 16.41 7.96 8.1 0 12.13-3.87 16.41-7.96 4.44-4.24 9.48-9.06 19.18-9.06s14.73 4.82 19.17 9.06c4.28 4.1 8.32 7.96 16.42 7.96 8.1 0 12.13-3.87 16.4-7.96 4.45-4.24 9.49-9.06 19.18-9.06 9.7 0 14.74 4.82 19.18 9.06 4.28 4.1 8.32 7.96 16.42 7.96 8.1 0 12.13-3.87 16.41-7.96 4.44-4.24 9.48-9.06 19.18-9.06s14.73 4.82 19.17 9.06c4.28 4.1 8.32 7.96 16.42 7.96 8.1 0 12.13-3.87 16.41-7.96 4.44-4.24 9.48-9.06 19.18-9.06s14.73 4.82 19.18 9.06c4.27 4.1 8.31 7.96 16.4 7.96 8.1 0 12.14-3.87 16.42-7.96 4.44-4.24 9.48-9.06 19.18-9.06s14.74 4.82 19.18 9.06c4.28 4.1 8.32 7.96 16.41 7.96 8.1 0 12.14-3.87 16.42-7.96 4.44-4.24 9.48-9.06 19.18-9.06s14.73 4.82 19.18 9.06c4.27 4.1 8.31 7.96 16.41 7.96s12.14-3.87 16.41-7.96c4.45-4.24 9.48-9.06 19.18-9.06s14.74 4.82 19.18 9.06c4.28 4.1 8.32 7.96 16.41 7.96 8.1 0 12.14-3.87 16.42-7.96 4.44-4.24 9.48-9.06 19.18-9.06a2 2 0 0 1 0 4c-8.1 0-12.14 3.87-16.42 7.95-4.44 4.25-9.48 9.07-19.18 9.07ZM148.43 62.31a7.73 7.73 0 1 1-15.45 0 7.73 7.73 0 0 1 15.45 0ZM99.5 13.39a7.73 7.73 0 1 1-15.45 0 7.73 7.73 0 0 1 15.45 0Zm595.34 74.96a2 2 0 0 1-2-2V50.37a2 2 0 0 1 4 0v35.98a2 2 0 0 1-2 2Zm0 49.3a2 2 0 0 1-2-2V99.67a2 2 0 0 1 4 0v35.98a2 2 0 0 1-2 2ZM737.47 95H701.5a2 2 0 0 1 0-4h35.97a2 2 0 0 1 0 4Zm-49.29 0H652.2a2 2 0 0 1 0-4h35.98a2 2 0 0 1 0 4ZM353.2 155.66a2 2 0 0 1-2-2v-23.47a2 2 0 0 1 4 0v23.47a2 2 0 0 1-2 2Zm0 32.14a2 2 0 0 1-2-2v-23.46a2 2 0 0 1 4 0v23.47a2 2 0 0 1-2 2ZM381 160h-23.46a2 2 0 0 1 0-4H381a2 2 0 0 1 0 4Zm-32.15 0h-23.46a2 2 0 0 1 0-4h23.46a2 2 0 0 1 0 4Zm417.8 17.66a2 2 0 0 1-2-2v-23.47a2 2 0 0 1 4 0v23.47a2 2 0 0 1-2 2Zm0 32.14a2 2 0 0 1-2-2v-23.46a2 2 0 0 1 4 0v23.47a2 2 0 0 1-2 2Zm27.81-27.8H771a2 2 0 0 1 0-4h23.46a2 2 0 0 1 0 4Zm-32.15 0h-23.46a2 2 0 0 1 0-4h23.46a2 2 0 0 1 0 4Zm40.14 194a7.73 7.73 0 1 1-15.45 0 7.73 7.73 0 0 1 15.45 0ZM507 8a7.73 7.73 0 1 1-15.45 0A7.73 7.73 0 0 1 507 8Z"/></svg>