<svg xmlns="http://www.w3.org/2000/svg" width="822.588" height="722.333" xml:space="preserve"><path fill="#FED828" d="m517.627 160.002-15.875-17.386s-3.252-5.771 5.258-10.173"/><path fill="#231F20" d="M517.627 162.002a2.008 2.008 0 0 1-1.479-.651l-15.875-17.386a2.095 2.095 0 0 1-.266-.367c-.155-.273-1.484-2.774-.525-5.988.825-2.766 3.049-5.102 6.605-6.941a2 2 0 0 1 1.839 3.551c-2.521 1.304-4.116 2.872-4.61 4.534a4.194 4.194 0 0 0 .109 2.73l15.676 17.168a2 2 0 0 1-1.474 3.35z"/><path fill="#FED828" d="M423.14 476.961c5.646 26.029 11.287 52.062 16.936 78.096a35033.15 35033.15 0 0 0 3.635 16.771c5.675-4.933 9.914-11.232 20.746-11.232 17.795 0 17.795 17.013 35.593 17.013 17.791 0 17.791-17.013 35.586-17.013 4.896 0 8.442 1.292 11.385 3.16l-26.148-109.962 113.189-162.99-.185-.128 21.321-30.784c3.3-4.701 23.503-26.79 1.116-42.604l-82.375-58.72-49.498-34.722c-4.691-3.292-11.161-2.158-14.454 2.533a10.33 10.33 0 0 0-1.729 7.743l34.934 94.118S425.965 397.029 425.709 397.405c-4.953 7.131-9.205 13.504-10.748 22.353-1.513 8.666-.42 17.539 1.428 26.062 2.251 10.38 4.499 20.76 6.751 31.141z"/><path fill="#231F20" d="m441.754 572.253-27.32-126.012c-1.457-6.719-3.189-16.812-1.442-26.827 1.559-8.93 5.571-15.228 11.074-23.147.25-.359 106.873-153.886 116.891-168.308l-34.632-93.312-.031-.18a12.288 12.288 0 0 1 2.062-9.235c3.921-5.585 11.652-6.941 17.24-3.022l49.498 34.722 82.389 58.729c6.354 4.49 10.062 9.919 11.002 16.131 1.779 11.721-6.823 22.938-10.502 27.729a55.278 55.278 0 0 0-1.143 1.521l-20.181 29.135.187.129-113.821 163.896 25.938 109.092-3.893.926-26.354-110.831.51-.732 112.054-161.35-.183-.126 22.457-32.424a56.43 56.43 0 0 1 1.25-1.668c3.365-4.388 11.245-14.658 9.722-24.696-.771-5.094-3.925-9.625-9.361-13.468l-82.383-58.727-49.484-34.713c-3.782-2.651-9.016-1.734-11.67 2.045a8.328 8.328 0 0 0-1.424 6.079l35.229 94.918-.596.857C543.666 231.07 427.732 398 427.355 398.545c-5.211 7.501-9.007 13.438-10.423 21.558-1.628 9.327.025 18.902 1.411 25.294l27.319 126.01-3.908.846z"/><path fill="#FED828" d="m591.61 401.698-.198.104 84.438 158.89a24.754 24.754 0 0 1 2.136-.099c17.794 0 17.794 17.013 35.587 17.013 17.795 0 17.795-17.013 35.59-17.013s17.795 17.013 35.592 17.013c2.25 0 4.216-.271 5.966-.748 2.053-6.846 3.397-13.938 3.012-21.1-.482-8.967-3.952-15.799-8.027-23.465-.147-.278-59.466-110.438-87.945-164.023l56.97-49.231-.077-.15c3.073-1.957 5.116-5.385 5.116-9.298 0-5.489-4.015-10.028-9.265-10.872a10.976 10.976 0 0 0 2.334-6.771c0-5.66-4.27-10.317-9.76-10.946a11.003 11.003 0 0 0 2.517-7.011c0-6.083-4.929-11.014-11.007-11.023.593-1.354.925-2.844.925-4.411 0-6.089-4.937-11.026-11.024-11.026-3.054 0-3.78 1.104-7.812 3.244l-49.923 26.833-88.741 48.567c-24.099 13.057-6.646 37.378-3.931 42.438l17.527 33.085z"/><path fill="#231F20" d="M788.799 576.284c2.301-7.668 3.26-14.348 2.933-20.417-.443-8.23-3.515-14.571-7.8-22.634l-.598-1.107c-14.195-26.373-62.447-116.062-87.349-162.915a2.001 2.001 0 0 1 .457-2.452l56.396-48.734c.156-.327.402-.615.729-.822a8.984 8.984 0 0 0 4.189-7.609 8.972 8.972 0 0 0-7.58-8.896 1.998 1.998 0 0 1-1.262-3.204 8.935 8.935 0 0 0 1.912-5.541 9.016 9.016 0 0 0-7.986-8.961 1.997 1.997 0 0 1-1.315-3.257 9.05 9.05 0 0 0 2.06-5.736c0-4.968-4.043-9.017-9.011-9.024a2 2 0 0 1-1.828-2.802 8.941 8.941 0 0 0 .757-3.609c0-4.978-4.05-9.026-9.025-9.026-1.68 0-2.299.367-4.137 1.458-.717.425-1.604.952-2.735 1.555l-49.912 26.827-88.729 48.562c-5.862 3.176-9.526 7.303-10.896 12.269-2.699 9.786 3.907 20.918 6.729 25.671.438.734.795 1.342 1.041 1.797l17.541 33.101c.148.286.229.601.23.918l83.397 156.932c.334-.016.654-.021.976-.021a2 2 0 0 1 2 2l-5.903 1.036-84.438-158.89a2.02 2.02 0 0 1-.231-.923l-17.104-32.273c-.219-.407-.551-.963-.95-1.638-3.081-5.191-10.299-17.351-7.146-28.776 1.67-6.056 5.99-11.007 12.84-14.718l88.734-48.563 49.936-26.84c1.057-.561 1.865-1.041 2.58-1.465 2.048-1.214 3.4-2.018 6.178-2.018 7.186 0 13.025 5.844 13.025 13.025 0 .91-.094 1.809-.279 2.688 5.908 1.233 10.361 6.485 10.361 12.751 0 1.988-.46 3.946-1.324 5.718a13.017 13.017 0 0 1 8.568 12.239 12.9 12.9 0 0 1-1.245 5.556 12.95 12.95 0 0 1 8.175 12.085c0 4.188-1.979 8.053-5.34 10.505a1.903 1.903 0 0 1-.395.459l-55.762 48.188c25.104 47.211 72.536 135.379 86.59 161.485l.605 1.125c4.527 8.521 7.771 15.247 8.262 24.3.354 6.538-.658 13.663-3.093 21.779l-3.828-1.158z"/><path fill="none" d="m718.649 273.359 15.932-10.394"/><path fill="#231F20" d="M718.651 275.359a1.999 1.999 0 0 1-1.096-3.675l15.934-10.396a2.002 2.002 0 0 1 2.187 3.352l-15.932 10.395a2 2 0 0 1-1.093.324z"/><path fill="none" d="m727.472 291.158 15.931-10.393"/><path fill="#231F20" d="M727.474 293.158a2 2 0 0 1-1.095-3.675l15.932-10.395a2 2 0 1 1 2.188 3.35l-15.933 10.396c-.338.22-.717.324-1.092.324z"/><path fill="none" d="m734.245 308.958 15.929-10.395"/><path fill="#231F20" d="M734.247 310.958a2.002 2.002 0 0 1-1.096-3.677l15.931-10.395a2 2 0 0 1 2.187 3.35l-15.931 10.396a1.98 1.98 0 0 1-1.091.326z"/><g><path fill="none" d="m438.769 425.592 1.294-18.757"/><path fill="#231F20" d="M438.771 427.592a1.995 1.995 0 0 1-1.996-2.14l1.295-18.757c.075-1.102 1.012-1.923 2.135-1.855a1.993 1.993 0 0 1 1.854 2.133l-1.295 18.757a2 2 0 0 1-1.993 1.862z"/></g><g><path fill="#FFF" d="m624.504 308.753-90.94-63.253 2.296-3.276 90.939 63.253z"/></g><g><path fill="#FFF" d="M610.799 341.293a7.932 7.932 0 0 1-6.469-12.515l34.098-48.267c2.527-3.58 7.479-4.43 11.062-1.902a7.932 7.932 0 0 1 1.897 11.06l-34.098 48.268a7.939 7.939 0 0 1-6.49 3.356z"/><path fill="#FFF" d="M598.722 322.167a7.938 7.938 0 0 1-7.81-6.592 7.934 7.934 0 0 1 6.473-9.165l58.24-10.02a7.935 7.935 0 0 1 2.69 15.639l-58.239 10.021a7.888 7.888 0 0 1-1.354.117z"/><path fill="#FFF" d="M651.978 334.209a7.904 7.904 0 0 1-4.571-1.455l-48.27-34.101a7.931 7.931 0 0 1-1.898-11.058c2.526-3.58 7.478-4.43 11.058-1.902l48.27 34.101a7.93 7.93 0 0 1 1.901 11.058 7.937 7.937 0 0 1-6.49 3.357z"/><path fill="#FFF" d="M632.849 346.278a7.937 7.937 0 0 1-7.81-6.59l-10.02-58.245a7.937 7.937 0 0 1 6.475-9.165c4.316-.748 8.422 2.156 9.164 6.476l10.019 58.244a7.932 7.932 0 0 1-7.828 9.28z"/></g><g><path fill="none" d="m772.672 550.219-8.776-16.629"/><path fill="#231F20" d="M772.674 552.219a2.004 2.004 0 0 1-1.771-1.065l-8.776-16.629a1.997 1.997 0 0 1 .836-2.702 1.995 1.995 0 0 1 2.701.835l8.776 16.629a1.996 1.996 0 0 1-1.766 2.932z"/></g><g><path fill="#FED828" d="M265.931 491.979v73.88"/><path fill="#010101" d="M265.931 567.859a2 2 0 0 1-2-2v-73.88a2 2 0 0 1 4 0v73.88a2 2 0 0 1-2 2z"/></g><g><path fill="#FED828" d="M336.646 565.464V491.98"/><path fill="#010101" d="M336.646 567.464a2 2 0 0 1-2-2V491.98a2 2 0 0 1 4 0v73.483a2 2 0 0 1-2 2.001z"/></g><g><path fill="#FED828" d="M322.31 560.123c6.642 0 10.803 2.369 14.336 5.341V491.98H265.93v73.88c5.695 4.938 9.931 11.275 20.793 11.275 17.794.001 17.794-17.012 35.587-17.012zM265.931 491.979v73.88"/><path fill="#010101" d="M265.931 567.859a2 2 0 0 1-2-2v-73.88a2 2 0 0 1 4 0v73.88a2 2 0 0 1-2 2z"/><path fill="#FED828" d="M336.646 565.464V491.98"/><path fill="#010101" d="M336.646 567.464a2 2 0 0 1-2-2V491.98a2 2 0 0 1 4 0v73.483a2 2 0 0 1-2 2.001z"/><path fill="#FED828" d="M255.024 522.818 55.974 370.141a31.513 31.513 0 0 1-1.767-1.273c-15.14-11.765-17.871-33.569-6.108-48.711l74.222-95.497c.121-.304 2.571-6.396 2.927-12.948-.255-5.229 1.538-10.486 5.222-14.5l11.623-14.801 14.541-18.512 20.047-25.828.041.029c0-.001 0-.007.004-.009 3.562-4.536 10.134-5.326 14.672-1.762 4.535 3.563 5.324 10.131 1.765 14.669-.204.26-.422.503-.646.737l-19.452 25.071.071.053 20.457-26.354 4.361-5.57c3.642-4.088 9.877-4.697 14.24-1.271 4.539 3.563 5.328 10.132 1.762 14.671-.204.26-4.717 6.127-4.938 6.36l-19.451 25.071.068.054 20.049-25.831 8.274-10.75-.258.338c3.564-4.535 10.396-5.67 14.938-2.108 4.539 3.562 5.326 10.131 1.765 14.668-.205.262-8.662 11.285-8.885 11.519l-19.449 25.073.069.053 20.869-26.878 3.896-4.862c3.688-3.646 9.594-4.069 13.783-.781 4.184 3.288 5.17 9.128 2.502 13.576l-3.748 4.977 3.573-4.683c-.179.271-4.146 5.488-4.352 5.752-.205.26-.42.503-.641.736l-24.812 31.887c.062.153.128.307.188.46l21.48-16.688.028.042a.03.03 0 0 0 .013-.009c4.557-3.539 11.122-2.713 14.66 1.841 3.538 4.56 2.715 11.123-1.846 14.66a9.61 9.61 0 0 1-.797.558l-41.402 32.159a27.83 27.83 0 0 1-1.629 1.372 29.475 29.475 0 0 1-19.086 6.202c-3.186.21-8.965 1.938-12.448 5.145l-49.692 64.527 86.912 66.507 1.062.813 33.623-44.203 44.105 33.555-33.703 44.308L297.34 463.3l-42.316 59.518z"/><path fill="#010101" d="M255.024 524.818a2.01 2.01 0 0 1-1.217-.413L54.805 371.765a32.185 32.185 0 0 1-1.824-1.318c-15.982-12.418-18.882-35.527-6.461-51.517l74.042-95.268c.503-1.312 2.367-6.501 2.683-11.963-.254-5.782 1.818-11.525 5.697-15.783l26.117-33.252 20.039-25.819c.102-.131.217-.246.342-.345a12.382 12.382 0 0 1 9.508-4.403c2.812 0 5.47.919 7.685 2.659a12.42 12.42 0 0 1 4.627 8.034 12.463 12.463 0 0 1 8.504-3.352c2.805 0 5.456.918 7.667 2.654a12.354 12.354 0 0 1 4.665 8.252 13.224 13.224 0 0 1 8.327-2.976c2.765 0 5.341.875 7.449 2.528a12.377 12.377 0 0 1 4.672 8.304 12.363 12.363 0 0 1-1.692 7.906c.46-.051.927-.077 1.396-.077 2.807 0 5.46.918 7.674 2.656 4.916 3.864 6.198 10.818 2.981 16.178-.025.045-.057.089-.086.132-.037.077-.08.153-.129.229-.261.396-4.412 5.843-4.449 5.89-.228.286-.457.552-.692.807l-16.136 20.735 10.244-7.958c.131-.101.271-.185.42-.25a12.327 12.327 0 0 1 7.25-2.334c3.877 0 7.463 1.754 9.838 4.812a12.371 12.371 0 0 1 2.52 9.188 12.353 12.353 0 0 1-5.582 8.889l-41.277 32.062a30.365 30.365 0 0 1-1.684 1.414c-5.838 4.533-12.919 6.854-20.273 6.625-2.765.208-7.901 1.724-11.015 4.503l-48.357 62.797 84.787 64.881 32.407-42.604c.32-.422.798-.698 1.321-.771a2.001 2.001 0 0 1 1.479.392l44.106 33.555a2.001 2.001 0 0 1 .382 2.803l-32.494 42.72 37.078 28.334a2 2 0 0 1 .414 2.747l-42.318 59.521a1.995 1.995 0 0 1-1.332.817 2.397 2.397 0 0 1-.301.019zm-77.038-385.172-19.773 25.479-26.17 33.318c-.032.04.07-4.077-.032.04-3.219 3.508-5.001 8.342-4.767 13.128a1.77 1.77 0 0 1 0 .206c-.353 6.49-2.611 12.445-3.062 13.573a2.086 2.086 0 0 1-.281.497l-74.222 95.497c-11.067 14.245-8.483 34.838 5.758 45.904.503.391 1.044.779 1.656 1.193.033.022.064.046.099.07l197.404 151.416 39.998-56.256-37.129-28.373a2 2 0 0 1-.377-2.8l32.492-42.715-40.925-31.133-32.412 42.61a1.996 1.996 0 0 1-2.808.375l-1.061-.813-86.91-66.505a2.013 2.013 0 0 1-.77-1.328 2.01 2.01 0 0 1 .398-1.479l49.691-64.528c.069-.09.146-.174.229-.251 3.623-3.334 9.749-5.408 13.674-5.667a1.8 1.8 0 0 1 .195-.003c6.476.207 12.672-1.806 17.795-5.783.469-.362.952-.771 1.521-1.278.034-.032.069-.062.107-.093l41.403-32.157c.048-.037.097-.072.146-.104a8.391 8.391 0 0 0 3.852-6.07 8.405 8.405 0 0 0-1.71-6.235 8.402 8.402 0 0 0-6.681-3.267 8.36 8.36 0 0 0-5.174 1.776 1.967 1.967 0 0 1-.345.218c-.019.008-.035.019-.052.025l-21.128 16.412a2 2 0 0 1-3.095-.865l-.175-.426a2.004 2.004 0 0 1 .276-1.979l24.81-31.885a1.76 1.76 0 0 1 .119-.14c.185-.194.36-.396.529-.609l.562-.734c.053-.104.113-.202.188-.3l3.683-4.888a8.456 8.456 0 0 0-2.073-10.889 8.344 8.344 0 0 0-5.202-1.804 8.394 8.394 0 0 0-5.86 2.356l-3.816 4.768-20.852 26.855a2.003 2.003 0 0 1-2.79.366 2.105 2.105 0 0 1-.808-1.358c-.071-.529.041-1.091.366-1.513l19.449-25.073c.022-.03.049-.061.073-.088.445-.544 5.638-7.301 7.601-9.855a415.23 415.23 0 0 1 1.218-1.581 8.375 8.375 0 0 0 1.743-6.229 8.395 8.395 0 0 0-3.168-5.634c-1.396-1.097-3.121-1.676-4.979-1.676-2.779 0-5.451 1.289-7.148 3.447-.017.022-.033.043-.053.064l-7.953 10.332-20.054 25.837c-.326.42-.806.691-1.333.759a2.013 2.013 0 0 1-1.479-.409c-.869-.678-1.096-1.984-.418-2.854l19.45-25.071c.041-.053.084-.104.132-.151.25-.3 3.066-3.954 4.129-5.329l.687-.89c1.396-1.777 2.017-3.988 1.747-6.229s-1.395-4.242-3.17-5.636a8.333 8.333 0 0 0-5.196-1.8 8.447 8.447 0 0 0-6.271 2.783l-4.322 5.519-20.451 26.349a2.005 2.005 0 0 1-2.766.384 2.088 2.088 0 0 1-.832-1.362c-.074-.534.034-1.102.364-1.528l19.452-25.069c.039-.051.081-.1.126-.147.182-.191.36-.392.529-.604 2.87-3.659 2.23-8.979-1.432-11.857a8.362 8.362 0 0 0-5.211-1.805 8.417 8.417 0 0 0-6.602 3.163c-.097.147-.22.277-.353.386z"/><path fill="#FFF" d="m340.525 492.076 17.518 13.393 3.911 2.986c-4.522 5.919-12.985 7.051-18.903 2.525a13.598 13.598 0 0 1-1.596-1.455l-.542.133c.933 6.741-3.353 13.239-10.105 14.917-6.786 1.688-13.646-2.094-15.948-8.541l-.071.021c.94 6.777-3.395 13.298-10.188 14.94-6.771 1.642-13.584-2.146-15.871-8.566l-.132.031c.963 6.795-3.373 13.338-10.18 14.982-6.787 1.646-13.613-2.163-15.888-8.604l-9.414 2.304-21.899-16.739 69.145-53.341 40.163 31.014zM169.649 332.151l-9.712-19.794-2.169-4.419c-6.688 3.279-9.447 11.361-6.167 18.047.324.658.706 1.27 1.116 1.851l-.234.505c-6.432-2.229-13.64.705-16.604 7-2.979 6.327-.613 13.793 5.264 17.311l-.032.065c-6.466-2.247-13.705.73-16.646 7.072-2.932 6.321-.545 13.742 5.305 17.238l-.057.122c-6.477-2.271-13.738.705-16.686 7.062-2.936 6.333-.535 13.771 5.34 17.26-2.232 4.788-4.931 8.339-3.477 13.863 1.336 5.074 5.141 5.31 7.713 9.459 1.527 2.467 6.568 2.229 7.926 4.841 24.367-12.229 44.859-18.664 69.34-30.675l2.062-1.012c-.007-.009-32.282-65.796-32.282-65.796z"/><path fill="#FED828" d="M254.836 257.988a29.201 29.201 0 0 1 2.455 2.104c28.559-21.208 68.768-22.008 98.498.605 29.729 22.617 39.688 61.582 26.873 94.766a29.086 29.086 0 0 1 2.684 1.805c12.515 9.519 14.939 27.381 5.422 39.895-9.52 12.516-27.381 14.938-39.895 5.424a28.712 28.712 0 0 1-5.01-4.888c-27.562 15.24-62.676 13.807-89.354-6.487-26.677-20.295-37.432-53.75-30.103-84.385a28.43 28.43 0 0 1-6.045-3.521c-12.515-9.521-14.939-27.379-5.42-39.896 9.52-12.512 27.379-14.939 39.895-5.422z"/><path fill="#010101" d="M368.088 410.396c-6.705 0-13.076-2.15-18.428-6.221a31.05 31.05 0 0 1-4.274-3.946 84.467 84.467 0 0 1-39.308 9.717c-18.479 0-36.035-5.93-50.78-17.146-26.041-19.812-38.179-52.958-31.202-84.84a30.644 30.644 0 0 1-4.943-3.066c-6.479-4.927-10.647-12.081-11.744-20.146-1.096-8.065 1.017-16.073 5.942-22.552 5.812-7.641 14.658-12.021 24.271-12.021 6.705 0 13.076 2.148 18.427 6.219.462.352.924.727 1.383 1.123 14.111-10.043 31.368-15.556 48.786-15.556 18.478 0 36.038 5.929 50.783 17.146 29.15 22.175 40.568 61.251 28.105 95.534.503.336.984.681 1.452 1.037 13.368 10.168 15.974 29.322 5.801 42.694-5.814 7.643-14.659 12.024-24.271 12.024zm-21.719-15.262 1.055 1.312a26.67 26.67 0 0 0 4.66 4.546c4.646 3.534 10.182 5.401 16.004 5.401 8.353 0 16.038-3.807 21.087-10.443 8.836-11.615 6.574-28.256-5.041-37.091a26.34 26.34 0 0 0-2.497-1.68l-1.449-.863.608-1.574c12.744-32.997 1.963-71.014-26.219-92.45-14.043-10.685-30.77-16.329-48.362-16.329-17.116 0-34.066 5.588-47.732 15.733l-1.354 1.005-1.221-1.164a27.136 27.136 0 0 0-2.285-1.96c-4.646-3.532-10.18-5.4-16.002-5.4-8.354 0-16.038 3.807-21.088 10.442-4.28 5.627-6.113 12.584-5.162 19.592.951 7.005 4.574 13.221 10.201 17.501a26.659 26.659 0 0 0 5.623 3.275l1.549.664-.393 1.641c-7.377 30.827 4.149 63.143 29.366 82.324 14.043 10.684 30.767 16.328 48.359 16.328 13.563 0 26.987-3.457 38.812-9.997l1.481-.813z"/><path fill="none" d="m384.148 382.667-25.387 4.533"/><path fill="#010101" d="M358.758 389.2a1.998 1.998 0 0 1-.35-3.965l25.387-4.533a2 2 0 1 1 .703 3.936l-25.387 4.533a2.221 2.221 0 0 1-.353.029z"/><path fill="none" d="m233.388 267.98 2.407 25.678"/><path fill="#010101" d="M235.793 295.658a1.996 1.996 0 0 1-1.989-1.812l-2.406-25.678a2.001 2.001 0 1 1 3.984-.373l2.405 25.678a1.999 1.999 0 0 1-1.994 2.185z"/><g><path fill="#010101" d="M321.372 348.472c-3.616 4.754-2.692 11.543 2.062 15.158 4.754 3.618 11.543 2.694 15.16-2.059 3.616-4.757 2.69-11.544-2.062-15.161-4.756-3.614-11.543-2.693-15.16 2.062z"/><path fill="#010101" d="m345.14 371.467-.101-.002a2 2 0 0 1-1.899-2.097 24.186 24.186 0 0 0-9.513-20.452 24.21 24.21 0 0 0-22.252-3.714 1.999 1.999 0 1 1-1.252-3.796 28.216 28.216 0 0 1 25.927 4.328 28.203 28.203 0 0 1 11.086 23.833 2 2 0 0 1-1.996 1.9z"/></g><g><circle fill="#010101" cx="273.793" cy="312.276" r="10.818"/><path fill="#010101" d="m288.948 328.722-.101-.002a1.998 1.998 0 0 1-1.899-2.095 24.187 24.187 0 0 0-9.513-20.455 24.205 24.205 0 0 0-22.251-3.709 2.002 2.002 0 0 1-2.526-1.271 2.002 2.002 0 0 1 1.272-2.526 28.198 28.198 0 0 1 25.927 4.324 28.203 28.203 0 0 1 11.087 23.834 1.999 1.999 0 0 1-1.996 1.9z"/></g><g><path fill="none" d="m301.284 333.293-9.537 12.535"/><path fill="#010101" d="M291.745 347.828a2 2 0 0 1-1.209-.406 2.002 2.002 0 0 1-.381-2.805l9.536-12.534a2 2 0 1 1 3.185 2.422l-9.537 12.534c-.393.518-.99.789-1.594.789z"/></g><g><path fill="#FFF" d="M264.211 336.26c-9.266 12.18-6.901 29.562 5.276 38.828 12.181 9.265 29.563 6.903 38.829-5.274l-44.105-33.554z"/></g><g><path fill="#010101" d="m255.565 261.103.678-.891c13.795-10.345 30.938-16.462 49.504-16.442 45.539.054 82.412 37.013 82.358 82.55a82.45 82.45 0 0 1-3.793 24.693l-3.867 5.085-124.88-94.995z"/></g><g><path fill="#FFF" d="M211.722 393.461c-11.454 14.982-8.698 36.604 6.287 48.061 14.982 11.452 36.524 8.355 47.979-6.631l34.371 26.171-52.678 67.045-122.451-93.6 51.727-67.78 34.765 26.734z"/></g><g><circle fill="#FFF" cx="130.57" cy="414.077" r="16.773"/></g><g><path fill="#FFF" d="M388.692 346.606a7.936 7.936 0 0 1-7.935-7.935v-59.097c0-4.382 3.553-7.934 7.935-7.934s7.935 3.552 7.935 7.934v59.098a7.935 7.935 0 0 1-7.935 7.934z"/><path fill="#FFF" d="M367.805 337.953a7.905 7.905 0 0 1-5.61-2.321 7.937 7.937 0 0 1 0-11.223l41.785-41.788a7.936 7.936 0 0 1 11.223 11.223l-41.785 41.788a7.926 7.926 0 0 1-5.613 2.321z"/><path fill="#FFF" d="M418.244 317.056h-59.098a7.936 7.936 0 0 1 0-15.87h59.099a7.935 7.935 0 1 1-.001 15.87z"/><path fill="#FFF" d="M409.592 337.953a7.896 7.896 0 0 1-5.608-2.322l-41.789-41.79a7.934 7.934 0 0 1 0-11.222 7.935 7.935 0 0 1 11.222 0l41.787 41.79a7.933 7.933 0 0 1-5.612 13.544z"/></g><g><path fill="#FFF" d="M73.192 577.136c17.795 0 17.795-17.013 35.59-17.013 17.797 0 17.797 17.013 35.592 17.013 17.793 0 17.793-17.013 35.588-17.013s17.795 17.013 35.591 17.013c11.485 0 15.562-7.087 21.791-12.111l27.411-35.859-134.86-103.083L23.504 565.271c3.482-2.879 7.604-5.146 14.1-5.146 17.795-.002 17.795 17.011 35.588 17.011z"/></g></g><g><path fill="#FFF" d="M784.993 579.606c-9.7 0-14.735-4.812-19.18-9.062-4.277-4.089-8.317-7.951-16.416-7.951-8.094 0-12.134 3.862-16.41 7.951-4.44 4.247-9.478 9.062-19.178 9.062-9.699 0-14.734-4.812-19.179-9.062-4.278-4.089-8.317-7.951-16.415-7.951s-12.137 3.862-16.415 7.951c-4.44 4.247-9.479 9.062-19.179 9.062s-14.736-4.812-19.18-9.062c-4.277-4.089-8.318-7.951-16.414-7.951-8.098 0-12.139 3.862-16.414 7.952-4.441 4.246-9.479 9.061-19.179 9.061-9.698 0-14.733-4.812-19.178-9.062-4.278-4.089-8.317-7.951-16.414-7.951-8.096 0-12.137 3.862-16.413 7.951-4.441 4.247-9.479 9.062-19.177 9.062-9.699 0-14.734-4.812-19.178-9.062-4.277-4.089-8.316-7.951-16.413-7.951s-12.137 3.862-16.413 7.951c-4.441 4.247-9.479 9.062-19.177 9.062-9.701 0-14.736-4.812-19.181-9.062-4.276-4.089-8.316-7.951-16.414-7.951-8.095 0-12.136 3.862-16.412 7.951-4.441 4.247-9.478 9.062-19.177 9.062s-14.733-4.812-19.177-9.062c-4.276-4.089-8.316-7.951-16.412-7.951-8.094 0-12.134 3.862-16.411 7.951-4.439 4.247-9.477 9.062-19.175 9.062s-14.733-4.812-19.176-9.062c-4.277-4.089-8.317-7.951-16.411-7.951-8.095 0-12.136 3.862-16.412 7.951-4.439 4.247-9.478 9.062-19.175 9.062-9.699 0-14.733-4.812-19.178-9.061-4.276-4.09-8.317-7.952-16.414-7.952-8.095 0-12.136 3.862-16.411 7.951-4.441 4.247-9.479 9.062-19.175 9.062-9.699 0-14.734-4.812-19.179-9.061-4.275-4.09-8.316-7.952-16.414-7.952-8.096 0-12.136 3.862-16.412 7.951-4.441 4.247-9.479 9.062-19.178 9.062-9.699 0-14.731-4.812-19.176-9.062-4.277-4.089-8.316-7.951-16.413-7.951-8.096 0-12.136 3.862-16.413 7.951-4.441 4.247-9.479 9.062-19.177 9.062a2 2 0 0 1 0-4c8.097 0 12.136-3.862 16.413-7.951 4.44-4.247 9.479-9.062 19.177-9.062 9.7 0 14.733 4.812 19.177 9.062 4.277 4.089 8.317 7.951 16.412 7.951 8.096 0 12.137-3.862 16.413-7.951 4.442-4.247 9.479-9.062 19.177-9.062 9.7 0 14.735 4.812 19.18 9.062 4.275 4.089 8.316 7.951 16.413 7.951 8.094 0 12.134-3.862 16.409-7.951 4.441-4.247 9.479-9.062 19.178-9.062 9.699 0 14.734 4.812 19.178 9.062 4.275 4.089 8.316 7.951 16.413 7.951 8.094 0 12.134-3.862 16.411-7.951 4.439-4.247 9.477-9.062 19.176-9.062 9.698 0 14.732 4.812 19.175 9.062 4.277 4.089 8.317 7.951 16.412 7.951 8.096 0 12.134-3.862 16.411-7.951 4.441-4.247 9.477-9.062 19.175-9.062 9.699 0 14.734 4.812 19.177 9.062 4.276 4.089 8.316 7.951 16.412 7.951 8.097 0 12.136-3.862 16.412-7.951 4.442-4.247 9.479-9.062 19.177-9.062 9.7 0 14.735 4.812 19.179 9.061 4.276 4.09 8.315 7.952 16.415 7.952 8.096 0 12.136-3.862 16.412-7.951 4.441-4.247 9.479-9.062 19.178-9.062s14.732 4.812 19.177 9.062c4.277 4.089 8.317 7.951 16.414 7.951 8.096 0 12.136-3.862 16.412-7.951 4.442-4.247 9.479-9.062 19.178-9.062s14.734 4.812 19.178 9.062c4.278 4.089 8.318 7.951 16.414 7.951 8.097 0 12.138-3.862 16.413-7.951 4.442-4.247 9.479-9.062 19.18-9.062 9.699 0 14.733 4.812 19.178 9.061 4.277 4.09 8.316 7.952 16.416 7.952 8.097 0 12.137-3.862 16.414-7.951 4.44-4.247 9.479-9.062 19.18-9.062 9.699 0 14.736 4.812 19.18 9.062 4.277 4.089 8.317 7.951 16.414 7.951 8.098 0 12.137-3.862 16.413-7.952 4.44-4.246 9.479-9.061 19.175-9.061 9.7 0 14.736 4.812 19.181 9.062 4.276 4.089 8.317 7.951 16.416 7.951 8.095 0 12.135-3.862 16.412-7.951 4.44-4.247 9.479-9.062 19.182-9.062a2 2 0 0 1 0 4c-8.098 0-12.139 3.862-16.417 7.952-4.442 4.249-9.478 9.061-19.177 9.061z"/></g><g><path fill="#FFF" d="M784.993 650.496c-9.7 0-14.735-4.812-19.18-9.062-4.277-4.089-8.317-7.95-16.416-7.95-8.094 0-12.134 3.861-16.41 7.95-4.44 4.247-9.478 9.062-19.178 9.062-9.699 0-14.734-4.812-19.179-9.062-4.278-4.089-8.317-7.95-16.415-7.95s-12.137 3.861-16.415 7.95c-4.44 4.247-9.479 9.062-19.179 9.062s-14.736-4.812-19.18-9.062c-4.277-4.089-8.318-7.95-16.414-7.95-8.098 0-12.139 3.861-16.414 7.952-4.441 4.245-9.479 9.062-19.179 9.062-9.698 0-14.733-4.812-19.178-9.062-4.278-4.09-8.317-7.951-16.414-7.951-8.096 0-12.135 3.861-16.412 7.951-4.44 4.246-9.478 9.062-19.178 9.062-9.699 0-14.733-4.812-19.178-9.062-4.277-4.09-8.318-7.951-16.413-7.951-8.096 0-12.136 3.861-16.413 7.951-4.441 4.246-9.479 9.062-19.177 9.062-9.701 0-14.736-4.812-19.181-9.062-4.276-4.09-8.316-7.951-16.414-7.951-8.095 0-12.136 3.861-16.412 7.951-4.441 4.246-9.478 9.062-19.177 9.062-9.698 0-14.732-4.812-19.176-9.062-4.277-4.091-8.315-7.952-16.413-7.952-8.094 0-12.134 3.861-16.411 7.95-4.439 4.247-9.477 9.062-19.175 9.062s-14.732-4.812-19.176-9.062c-4.277-4.089-8.317-7.95-16.411-7.95-8.095 0-12.135 3.861-16.412 7.95-4.439 4.247-9.478 9.062-19.175 9.062-9.699 0-14.733-4.812-19.178-9.062-4.276-4.089-8.316-7.95-16.412-7.95-8.097 0-12.138 3.861-16.413 7.952-4.441 4.245-9.479 9.062-19.176 9.062-9.698 0-14.733-4.812-19.178-9.062-4.275-4.091-8.316-7.952-16.414-7.952-8.096 0-12.136 3.861-16.412 7.95-4.441 4.247-9.479 9.062-19.178 9.062-9.699 0-14.732-4.812-19.176-9.062-4.277-4.089-8.316-7.95-16.413-7.95s-12.136 3.861-16.413 7.95c-4.441 4.247-9.479 9.062-19.178 9.062a2 2 0 0 1 0-4c8.098 0 12.137-3.86 16.414-7.949 4.44-4.247 9.479-9.062 19.177-9.062 9.7 0 14.733 4.812 19.177 9.062 4.277 4.089 8.316 7.949 16.412 7.949 8.096 0 12.137-3.86 16.413-7.949 4.442-4.247 9.479-9.062 19.177-9.062 9.701 0 14.735 4.812 19.18 9.062 4.275 4.089 8.316 7.949 16.412 7.949 8.095 0 12.135-3.86 16.41-7.949 4.442-4.247 9.479-9.062 19.178-9.062 9.699 0 14.734 4.812 19.178 9.062 4.277 4.089 8.316 7.949 16.413 7.949 8.094 0 12.134-3.86 16.411-7.949 4.439-4.247 9.477-9.062 19.176-9.062 9.697 0 14.732 4.812 19.175 9.062 4.277 4.089 8.317 7.949 16.412 7.949 8.095 0 12.134-3.86 16.411-7.949 4.44-4.247 9.476-9.062 19.175-9.062 9.7 0 14.735 4.812 19.177 9.062 4.277 4.089 8.317 7.949 16.411 7.949 8.097 0 12.137-3.86 16.413-7.949 4.441-4.247 9.479-9.062 19.176-9.062 9.7 0 14.735 4.812 19.18 9.062 4.275 4.09 8.315 7.952 16.414 7.952 8.097 0 12.137-3.862 16.414-7.951 4.439-4.247 9.478-9.062 19.177-9.062 9.698 0 14.732 4.812 19.177 9.062 4.277 4.09 8.318 7.952 16.414 7.952s12.136-3.862 16.413-7.951c4.44-4.247 9.479-9.062 19.176-9.062 9.7 0 14.735 4.812 19.18 9.062 4.276 4.089 8.316 7.951 16.414 7.951 8.096 0 12.137-3.862 16.411-7.951 4.442-4.247 9.479-9.062 19.181-9.062 9.698 0 14.732 4.812 19.178 9.062 4.277 4.091 8.318 7.952 16.415 7.952s12.137-3.861 16.415-7.951c4.44-4.247 9.479-9.062 19.179-9.062s14.736 4.812 19.179 9.062c4.278 4.09 8.318 7.951 16.416 7.951s12.137-3.861 16.412-7.952c4.441-4.246 9.479-9.062 19.176-9.062 9.699 0 14.736 4.812 19.181 9.062 4.276 4.089 8.315 7.951 16.415 7.951 8.095 0 12.135-3.862 16.412-7.951 4.441-4.247 9.479-9.062 19.182-9.062a2 2 0 0 1 0 4c-8.098 0-12.139 3.861-16.417 7.952-4.441 4.245-9.477 9.057-19.176 9.057z"/></g><g><path fill="#FFF" d="M784.993 722.332c-9.7 0-14.735-4.813-19.18-9.062-4.277-4.09-8.317-7.951-16.416-7.951-8.094 0-12.134 3.861-16.41 7.951-4.44 4.246-9.478 9.062-19.178 9.062-9.699 0-14.734-4.813-19.179-9.062-4.278-4.09-8.317-7.951-16.415-7.951s-12.137 3.861-16.415 7.951c-4.44 4.246-9.479 9.062-19.179 9.062s-14.736-4.813-19.18-9.062c-4.277-4.09-8.318-7.951-16.414-7.951-8.098 0-12.139 3.861-16.414 7.952-4.441 4.245-9.479 9.062-19.179 9.062-9.698 0-14.733-4.812-19.178-9.062-4.278-4.09-8.317-7.951-16.414-7.951-8.096 0-12.135 3.861-16.412 7.951-4.44 4.247-9.478 9.062-19.178 9.062-9.699 0-14.733-4.812-19.178-9.062-4.277-4.09-8.318-7.951-16.413-7.951-8.096 0-12.136 3.861-16.413 7.951-4.441 4.247-9.479 9.062-19.177 9.062-9.701 0-14.736-4.812-19.181-9.062-4.276-4.09-8.316-7.951-16.414-7.951-8.095 0-12.136 3.861-16.412 7.951-4.441 4.247-9.478 9.062-19.177 9.062-9.698 0-14.732-4.812-19.176-9.062-4.277-4.091-8.315-7.952-16.413-7.952-8.094 0-12.134 3.861-16.411 7.951-4.439 4.246-9.477 9.062-19.175 9.062s-14.732-4.813-19.176-9.062c-4.277-4.09-8.317-7.951-16.411-7.951-8.095 0-12.135 3.861-16.412 7.951-4.439 4.246-9.478 9.062-19.175 9.062-9.699 0-14.733-4.813-19.178-9.062-4.276-4.09-8.316-7.951-16.412-7.951-8.097 0-12.138 3.861-16.413 7.952-4.441 4.245-9.479 9.062-19.176 9.062-9.698 0-14.733-4.812-19.178-9.062-4.275-4.091-8.316-7.952-16.414-7.952-8.096 0-12.136 3.861-16.412 7.951-4.441 4.246-9.479 9.062-19.178 9.062-9.699 0-14.732-4.813-19.176-9.062-4.277-4.09-8.316-7.951-16.413-7.951s-12.136 3.861-16.413 7.951c-4.441 4.246-9.479 9.062-19.178 9.062a2 2 0 0 1 0-4c8.098 0 12.137-3.862 16.414-7.951 4.44-4.247 9.479-9.062 19.177-9.062 9.7 0 14.733 4.812 19.177 9.062 4.277 4.089 8.316 7.951 16.412 7.951 8.096 0 12.137-3.862 16.413-7.951 4.442-4.247 9.479-9.062 19.177-9.062 9.701 0 14.735 4.812 19.18 9.062 4.275 4.089 8.316 7.951 16.412 7.951 8.095 0 12.135-3.862 16.41-7.951 4.442-4.247 9.479-9.062 19.178-9.062 9.699 0 14.734 4.812 19.178 9.062 4.277 4.089 8.316 7.951 16.413 7.951 8.094 0 12.134-3.862 16.411-7.951 4.439-4.247 9.477-9.062 19.176-9.062 9.697 0 14.732 4.812 19.175 9.062 4.277 4.089 8.317 7.951 16.412 7.951 8.095 0 12.134-3.862 16.411-7.951 4.44-4.247 9.476-9.062 19.175-9.062 9.7 0 14.735 4.812 19.177 9.062 4.277 4.089 8.317 7.951 16.411 7.951 8.097 0 12.137-3.862 16.413-7.951 4.441-4.247 9.479-9.062 19.176-9.062 9.7 0 14.735 4.812 19.18 9.062 4.275 4.09 8.315 7.952 16.414 7.952 8.097 0 12.137-3.862 16.414-7.951 4.439-4.247 9.478-9.062 19.177-9.062 9.698 0 14.732 4.812 19.177 9.062 4.277 4.09 8.318 7.952 16.414 7.952s12.136-3.862 16.413-7.951c4.44-4.247 9.479-9.062 19.176-9.062 9.7 0 14.735 4.812 19.18 9.062 4.276 4.089 8.316 7.951 16.414 7.951 8.096 0 12.137-3.862 16.411-7.951 4.442-4.247 9.479-9.062 19.181-9.062 9.698 0 14.732 4.812 19.178 9.062 4.277 4.091 8.318 7.952 16.415 7.952s12.137-3.861 16.415-7.951c4.44-4.247 9.479-9.062 19.179-9.062s14.736 4.812 19.179 9.062c4.278 4.09 8.318 7.951 16.416 7.951s12.137-3.861 16.412-7.952c4.441-4.246 9.479-9.062 19.176-9.062 9.699 0 14.736 4.812 19.181 9.062 4.276 4.089 8.315 7.951 16.415 7.951 8.095 0 12.135-3.862 16.412-7.951 4.441-4.247 9.479-9.062 19.182-9.062a2 2 0 0 1 0 4c-8.098 0-12.139 3.861-16.417 7.952-4.441 4.248-9.477 9.059-19.176 9.059z"/></g><g><circle fill="#FFF" cx="140.002" cy="62.038" r="7.726"/><circle fill="#FFF" cx="91.074" cy="13.113" r="7.727"/></g><g><path fill="#FFF" d="M694.137 88.073a2 2 0 0 1-2-2V50.098a2 2 0 0 1 4 0v35.976a2 2 0 0 1-2 1.999zM694.137 137.372a2 2 0 0 1-2-2V99.396a2 2 0 0 1 4 0v35.976a2 2 0 0 1-2 2z"/><g><path fill="#FFF" d="M736.774 94.734h-35.976a2 2 0 0 1 0-4h35.976a2 2 0 0 1 0 4zM687.476 94.734H651.5a2 2 0 0 1 0-4h35.976a2 2 0 0 1 0 4z"/></g></g><g><path fill="#FFF" d="M352.493 155.382a2 2 0 0 1-2-2v-23.461a2 2 0 0 1 4 0v23.461a2 2 0 0 1-2 2zM352.493 187.533a2 2 0 0 1-2-2v-23.462a2 2 0 0 1 4 0v23.462a2 2 0 0 1-2 2z"/><g><path fill="#FFF" d="M380.299 159.727h-23.461a2 2 0 0 1 0-4h23.461a2 2 0 0 1 0 4zM348.149 159.727h-23.462a2 2 0 0 1 0-4h23.462a2 2 0 0 1 0 4z"/></g></g><g><path fill="#FFF" d="M765.955 177.382a2 2 0 0 1-2-2v-23.461a2 2 0 0 1 4 0v23.461a2 2 0 0 1-2 2zM765.955 209.533a2 2 0 0 1-2-2v-23.462a2 2 0 0 1 4 0v23.462a2 2 0 0 1-2 2z"/><g><path fill="#FFF" d="M793.762 181.727H770.3a2 2 0 0 1 0-4h23.462a2 2 0 0 1 0 4zM761.61 181.727h-23.463a2 2 0 0 1 0-4h23.463a2 2 0 0 1 0 4z"/></g></g><g><circle fill="#FFF" cx="794.026" cy="375.727" r="7.727"/></g><g><circle fill="#FFF" cx="498.573" cy="7.727" r="7.727"/></g></svg>