<?xml version="1.0" encoding="utf-8"?>
<!-- Generator: Adobe Illustrator 16.0.0, SVG Export Plug-In . SVG Version: 6.00 Build 0)  -->
<!DOCTYPE svg PUBLIC "-//W3C//DTD SVG 1.1//EN" "http://www.w3.org/Graphics/SVG/1.1/DTD/svg11.dtd">
<svg version="1.1" id="Layer_1" xmlns="http://www.w3.org/2000/svg" xmlns:xlink="http://www.w3.org/1999/xlink" x="0px" y="0px"
	 width="1080px" height="1080px" viewBox="0 0 1080 1080" enable-background="new 0 0 1080 1080" xml:space="preserve">
<g>
	<g>
		<g>
			<path fill="#FFD829" d="M646.326,313.275l-15.875-17.386c0,0-3.252-5.77,5.258-10.172"/>
			<path fill="#231F20" d="M646.327,315.275c-0.543,0-1.083-0.219-1.478-0.651l-15.875-17.386c-0.103-0.112-0.191-0.235-0.266-0.367
				c-0.155-0.274-1.484-2.775-0.525-5.988c0.825-2.766,3.048-5.102,6.606-6.942c0.982-0.507,2.188-0.124,2.695,0.857
				s0.124,2.188-0.857,2.695c-2.521,1.304-4.116,2.872-4.611,4.534c-0.384,1.286-0.044,2.352,0.11,2.731l15.676,17.168
				c0.745,0.816,0.688,2.081-0.128,2.826C647.291,315.102,646.809,315.275,646.327,315.275z"/>
		</g>
		<g>
			<path fill="#FFD829" d="M551.84,630.234c5.645,26.031,11.287,52.063,16.934,78.096c1.211,5.592,2.422,11.181,3.635,16.772
				c5.674-4.933,9.914-11.234,20.746-11.234c17.795,0,17.795,17.012,35.592,17.012c17.791,0,17.791-17.012,35.586-17.012
				c4.896,0,8.443,1.292,11.385,3.16L649.57,607.067l113.191-162.99l-0.184-0.128l21.322-30.784
				c3.299-4.701,23.502-26.79,1.117-42.604l-82.375-58.72l-49.498-34.722c-4.693-3.292-11.162-2.158-14.455,2.533
				c-1.643,2.345-2.186,5.133-1.729,7.743l34.932,94.119c0,0-117.225,168.789-117.484,169.165
				c-4.953,7.131-9.205,13.504-10.748,22.351c-1.512,8.666-0.42,17.539,1.428,26.062C547.34,609.474,549.588,619.854,551.84,630.234
				z"/>
		</g>
		<g>
			<path fill="#231F20" d="M570.454,725.526l-27.32-126.01c-1.457-6.719-3.191-16.811-1.444-26.829
				c1.558-8.928,5.573-15.226,11.076-23.147c0.249-0.36,106.873-153.886,116.889-168.308l-34.632-93.311l-0.031-0.18
				c-0.569-3.247,0.163-6.527,2.061-9.235c3.92-5.585,11.653-6.942,17.241-3.023l49.498,34.722l82.388,58.729
				c6.355,4.49,10.06,9.918,11.003,16.129c1.779,11.721-6.826,22.94-10.502,27.73c-0.477,0.621-0.87,1.133-1.143,1.521
				l-20.18,29.135l0.186,0.129l-113.82,163.896l25.939,109.091l-3.891,0.926L647.418,606.66l0.51-0.733l112.052-161.35l-0.181-0.126
				l22.457-32.424c0.304-0.433,0.731-0.991,1.25-1.668c3.365-4.386,11.245-14.658,9.721-24.696
				c-0.773-5.094-3.924-9.625-9.363-13.468l-82.382-58.725l-49.485-34.713c-3.782-2.652-9.015-1.735-11.67,2.045
				c-1.25,1.786-1.754,3.938-1.424,6.079l35.229,94.918l-0.596,0.857c-1.171,1.687-117.104,168.617-117.481,169.162
				c-5.211,7.501-9.007,13.437-10.423,21.557c-1.628,9.328,0.026,18.903,1.411,25.294l27.32,126.01L570.454,725.526z"/>
		</g>
		<g>
			<path fill="#FFD829" d="M720.311,554.972l-0.199,0.105l84.438,158.889c0.686-0.058,1.389-0.098,2.135-0.098
				c17.793,0,17.793,17.012,35.586,17.012c17.795,0,17.795-17.012,35.59-17.012s17.795,17.012,35.592,17.012
				c2.25,0,4.215-0.273,5.965-0.748c2.053-6.845,3.398-13.937,3.012-21.099c-0.484-8.967-3.953-15.799-8.029-23.465
				c-0.148-0.278-59.465-110.436-87.945-164.024l56.969-49.231l-0.078-0.152c3.074-1.957,5.117-5.385,5.117-9.298
				c0-5.489-4.014-10.028-9.264-10.872c1.457-1.87,2.334-4.215,2.334-6.77c0-5.66-4.268-10.319-9.76-10.948
				c1.57-1.905,2.516-4.347,2.516-7.009c0-6.083-4.928-11.014-11.006-11.025c0.592-1.352,0.924-2.842,0.924-4.411
				c0-6.089-4.936-11.026-11.025-11.026c-3.053,0-3.781,1.102-7.811,3.244l-49.922,26.833l-88.742,48.567
				c-24.098,13.056-6.648,37.378-3.93,42.437L720.311,554.972z"/>
		</g>
		<g>
			<path fill="#231F20" d="M919.417,732.133c-0.19,0-0.384-0.027-0.575-0.085c-1.059-0.317-1.659-1.433-1.342-2.49
				c2.3-7.668,3.259-14.347,2.931-20.417c-0.444-8.232-3.513-14.573-7.798-22.634l-0.598-1.109
				c-14.195-26.373-62.447-116.062-87.348-162.915c-0.438-0.824-0.248-1.841,0.458-2.452l56.395-48.735
				c0.157-0.327,0.403-0.615,0.729-0.822c2.625-1.671,4.191-4.516,4.191-7.611c0-4.449-3.188-8.191-7.581-8.897
				c-0.698-0.112-1.285-0.584-1.544-1.243c-0.259-0.658-0.15-1.403,0.283-1.961c1.251-1.605,1.912-3.521,1.912-5.541
				c0-4.587-3.434-8.439-7.987-8.961c-0.729-0.083-1.353-0.558-1.627-1.238c-0.274-0.68-0.155-1.455,0.312-2.021
				c1.327-1.611,2.059-3.648,2.059-5.737c0-4.967-4.042-9.016-9.01-9.025c-0.674-0.001-1.303-0.342-1.671-0.907
				c-0.369-0.565-0.428-1.277-0.157-1.895c0.502-1.146,0.756-2.36,0.756-3.609c0-4.977-4.049-9.026-9.025-9.026
				c-1.68,0-2.299,0.367-4.137,1.458c-0.716,0.424-1.605,0.952-2.735,1.553l-49.913,26.828l-88.729,48.56
				c-5.862,3.176-9.526,7.303-10.896,12.269c-2.701,9.786,3.907,20.917,6.729,25.67c0.437,0.735,0.795,1.341,1.04,1.796l17.541,33.1
				c0.151,0.286,0.229,0.601,0.232,0.918l83.399,156.936c0.333-0.014,0.654-0.021,0.974-0.021c1.104,0,2,0.896,2,2s-0.896,2-2,2
				c-0.606,0-1.231,0.029-1.967,0.091c-0.798,0.063-1.559-0.347-1.935-1.055l-84.438-158.889c-0.152-0.287-0.23-0.604-0.233-0.923
				l-17.104-32.274c-0.219-0.408-0.55-0.963-0.95-1.638c-3.082-5.191-10.299-17.349-7.146-28.776
				c1.671-6.056,5.991-11.007,12.84-14.718l88.735-48.563l49.935-26.84c1.056-0.561,1.865-1.041,2.58-1.465
				c2.048-1.214,3.401-2.017,6.178-2.017c7.183,0,13.025,5.843,13.025,13.026c0,0.91-0.094,1.808-0.279,2.686
				c5.908,1.235,10.361,6.487,10.361,12.751c0,1.99-0.46,3.948-1.324,5.718c5.045,1.83,8.568,6.658,8.568,12.239
				c0,1.95-0.426,3.832-1.245,5.556c4.869,1.931,8.175,6.642,8.175,12.086c0,4.186-1.98,8.052-5.34,10.505
				c-0.104,0.168-0.235,0.324-0.392,0.458l-55.762,48.188c25.103,47.211,72.536,135.379,86.59,161.487l0.605,1.125
				c4.529,8.519,7.772,15.247,8.262,24.299c0.354,6.538-0.658,13.663-3.093,21.78C921.072,731.572,920.277,732.133,919.417,732.133z
				"/>
		</g>
		<g>
			<line fill="#FFD829" x1="847.35" y1="426.633" x2="863.281" y2="416.238"/>
			<path fill="#231F20" d="M847.352,428.633c-0.653,0-1.293-0.319-1.677-0.907c-0.604-0.925-0.343-2.164,0.582-2.768l15.932-10.395
				c0.924-0.604,2.163-0.343,2.768,0.582c0.604,0.925,0.343,2.164-0.582,2.768l-15.932,10.395
				C848.105,428.528,847.727,428.633,847.352,428.633z"/>
		</g>
		<g>
			<line fill="#FFD829" x1="856.172" y1="444.432" x2="872.104" y2="434.038"/>
			<path fill="#231F20" d="M856.174,446.432c-0.653,0-1.293-0.319-1.677-0.907c-0.604-0.925-0.343-2.164,0.582-2.768l15.932-10.395
				c0.924-0.604,2.164-0.343,2.768,0.582c0.604,0.925,0.343,2.164-0.582,2.768l-15.932,10.395
				C856.928,446.327,856.549,446.432,856.174,446.432z"/>
		</g>
		<g>
			<line fill="#FFD829" x1="862.945" y1="462.231" x2="878.875" y2="451.837"/>
			<path fill="#231F20" d="M862.947,464.231c-0.653,0-1.293-0.319-1.677-0.907c-0.604-0.925-0.343-2.164,0.582-2.768l15.93-10.395
				c0.924-0.604,2.163-0.344,2.768,0.582c0.604,0.925,0.343,2.164-0.582,2.768l-15.93,10.395
				C863.701,464.126,863.322,464.231,862.947,464.231z"/>
		</g>
		<g>
			<line fill="#FFD829" x1="567.469" y1="578.865" x2="568.764" y2="560.108"/>
			<path fill="#231F20" d="M567.471,580.865c-0.046,0-0.093-0.002-0.14-0.005c-1.102-0.076-1.934-1.031-1.857-2.133l1.295-18.757
				c0.076-1.101,1.011-1.923,2.133-1.857c1.102,0.076,1.934,1.031,1.857,2.133l-1.295,18.757
				C569.392,580.058,568.513,580.865,567.471,580.865z"/>
		</g>
		<g>
			<polygon fill="#FFFFFF" points="753.205,462.026 662.265,398.773 664.56,395.497 755.5,458.75 			"/>
		</g>
		<g>
			<g>
				<g>
					<g>
						<path fill="#FFFFFF" d="M739.5,494.566c-1.584,0-3.18-0.472-4.572-1.455c-3.578-2.528-4.43-7.479-1.9-11.058l34.098-48.267
							c2.527-3.58,7.479-4.43,11.059-1.902c3.578,2.528,4.43,7.479,1.9,11.058l-34.098,48.267
							C744.439,493.397,741.988,494.566,739.5,494.566z"/>
					</g>
				</g>
				<g>
					<g>
						<path fill="#FFFFFF" d="M727.422,475.44c-3.791,0-7.145-2.727-7.809-6.59c-0.744-4.318,2.154-8.421,6.473-9.165l58.24-10.02
							c4.314-0.744,8.422,2.155,9.164,6.474c0.744,4.318-2.154,8.421-6.473,9.165l-58.24,10.021
							C728.322,475.402,727.869,475.44,727.422,475.44z"/>
					</g>
				</g>
				<g>
					<g>
						<path fill="#FFFFFF" d="M780.678,487.482c-1.584,0-3.18-0.472-4.572-1.455l-48.268-34.099c-3.578-2.528-4.43-7.479-1.9-11.058
							c2.527-3.58,7.477-4.43,11.057-1.902l48.268,34.099c3.58,2.528,4.432,7.479,1.902,11.058
							C785.617,486.314,783.166,487.482,780.678,487.482z"/>
					</g>
				</g>
				<g>
					<g>
						<path fill="#FFFFFF" d="M761.549,499.552c-3.791,0-7.145-2.727-7.809-6.59l-10.018-58.244
							c-0.744-4.318,2.156-8.421,6.473-9.165c4.318-0.748,8.422,2.156,9.164,6.474l10.018,58.244
							c0.744,4.318-2.154,8.421-6.473,9.165C762.449,499.514,761.996,499.552,761.549,499.552z"/>
					</g>
				</g>
			</g>
		</g>
		<g>
			<line fill="#FFD829" x1="901.373" y1="703.492" x2="892.596" y2="686.863"/>
			<path fill="#231F20" d="M901.375,705.492c-0.719,0-1.412-0.388-1.771-1.066l-8.777-16.629c-0.516-0.977-0.142-2.187,0.835-2.702
				c0.979-0.517,2.188-0.141,2.702,0.835l8.777,16.629c0.516,0.977,0.142,2.187-0.835,2.702
				C902.009,705.418,901.689,705.492,901.375,705.492z"/>
		</g>
	</g>
	<g>
		<path fill="#FFD829" d="M394.631,645.253v73.88"/>
		<path d="M394.631,721.133c-1.104,0-2-0.896-2-2v-73.88c0-1.104,0.896-2,2-2s2,0.896,2,2v73.88
			C396.631,720.237,395.735,721.133,394.631,721.133z"/>
	</g>
	<g>
		<path fill="#FFD829" d="M465.346,718.737v-73.484"/>
		<path d="M465.346,720.737c-1.104,0-2-0.896-2-2v-73.484c0-1.104,0.896-2,2-2s2,0.896,2,2v73.484
			C467.346,719.842,466.45,720.737,465.346,720.737z"/>
	</g>
	<g>
		<g>
			<path fill="#FFD829" d="M451.01,713.397c6.641,0,10.803,2.37,14.336,5.34v-73.484h-70.715v73.88
				c5.695,4.939,9.93,11.276,20.793,11.276C433.217,730.409,433.217,713.397,451.01,713.397z"/>
		</g>
		<g>
			<path fill="#FFD829" d="M394.631,645.253v73.88"/>
			<path d="M394.631,721.133c-1.104,0-2-0.896-2-2v-73.88c0-1.104,0.896-2,2-2s2,0.896,2,2v73.88
				C396.631,720.237,395.735,721.133,394.631,721.133z"/>
		</g>
		<g>
			<path fill="#FFD829" d="M465.346,718.737v-73.484"/>
			<path d="M465.346,720.737c-1.104,0-2-0.896-2-2v-73.484c0-1.104,0.896-2,2-2s2,0.896,2,2v73.484
				C467.346,719.842,466.45,720.737,465.346,720.737z"/>
		</g>
		<g>
			<path fill="#FFD829" d="M384.724,675.092l-199.05-152.678c-0.6-0.404-1.189-0.825-1.766-1.274
				c-15.14-11.764-17.871-33.571-6.109-48.711l74.221-95.497c0.121-0.304,2.572-6.397,2.927-12.95
				c-0.255-5.227,1.538-10.486,5.222-14.5l11.623-14.799l14.541-18.512l20.046-25.828l0.041,0.029
				c0.001-0.001,0.001-0.007,0.004-0.009c3.564-4.536,10.134-5.326,14.672-1.762c4.536,3.564,5.325,10.131,1.765,14.669
				c-0.205,0.26-0.423,0.503-0.645,0.738l-19.453,25.071l0.072,0.053l20.457-26.354l4.362-5.57c3.64-4.088,9.876-4.698,14.239-1.271
				c4.54,3.564,5.328,10.132,1.762,14.671c-0.204,0.26-4.717,6.127-4.939,6.362l-19.452,25.071l0.069,0.054l20.049-25.831
				l8.275-10.75l-0.257,0.338c3.564-4.536,10.396-5.671,14.936-2.109c4.539,3.562,5.327,10.131,1.765,14.668
				c-0.205,0.262-8.662,11.285-8.885,11.519l-19.449,25.073l0.069,0.053l20.869-26.878l3.895-4.864
				c3.688-3.646,9.595-4.069,13.784-0.781c4.183,3.288,5.17,9.128,2.502,13.576l-3.749,4.977l3.575-4.683
				c-0.179,0.273-4.146,5.49-4.352,5.752c-0.205,0.26-0.42,0.503-0.641,0.738l-24.81,31.885c0.062,0.155,0.128,0.307,0.187,0.46
				l21.482-16.688l0.029,0.042c0.004-0.002,0.009-0.005,0.012-0.009c4.557-3.539,11.122-2.713,14.66,1.841
				c3.538,4.558,2.715,11.123-1.844,14.66c-0.26,0.204-0.526,0.385-0.797,0.558l-41.403,32.159
				c-0.524,0.471-1.062,0.932-1.628,1.372c-5.67,4.401-12.435,6.417-19.086,6.202c-3.186,0.21-8.965,1.937-12.45,5.144
				l-49.692,64.528l86.912,66.507l1.061,0.814l33.623-44.203l44.107,33.554l-33.703,44.306l38.664,29.546L384.724,675.092z"/>
			<path d="M384.724,677.092c-0.438,0-0.866-0.144-1.217-0.413L184.505,524.038c-0.669-0.452-1.267-0.884-1.825-1.319
				c-15.982-12.418-18.881-35.529-6.46-51.516l74.042-95.267c0.503-1.313,2.367-6.501,2.682-11.962
				c-0.253-5.784,1.819-11.527,5.698-15.785l26.117-33.252l20.039-25.819c0.102-0.131,0.217-0.246,0.342-0.345
				c2.371-2.804,5.811-4.403,9.508-4.403c2.812,0,5.468,0.919,7.683,2.659c2.62,2.059,4.19,4.968,4.627,8.034
				c2.293-2.142,5.334-3.351,8.504-3.351c2.805,0,5.456,0.918,7.667,2.654c2.602,2.042,4.257,4.972,4.665,8.252
				c2.319-1.895,5.28-2.976,8.327-2.976c2.765,0,5.341,0.875,7.449,2.529c2.616,2.053,4.274,5.001,4.672,8.304
				c0.335,2.786-0.263,5.542-1.692,7.906c0.46-0.051,0.926-0.077,1.395-0.077c2.807,0,5.46,0.918,7.674,2.656
				c4.916,3.864,6.198,10.818,2.982,16.178c-0.026,0.045-0.056,0.089-0.086,0.131c-0.037,0.078-0.08,0.154-0.129,0.228
				c-0.26,0.397-4.413,5.843-4.45,5.89c-0.226,0.286-0.456,0.55-0.692,0.805l-16.135,20.737l10.244-7.958
				c0.13-0.101,0.271-0.185,0.419-0.25c2.125-1.529,4.622-2.334,7.25-2.334c3.877,0,7.463,1.754,9.838,4.811
				c2.04,2.627,2.935,5.891,2.52,9.189c-0.414,3.3-2.09,6.24-4.717,8.278c-0.277,0.218-0.568,0.419-0.865,0.611l-41.278,32.062
				c-0.616,0.551-1.152,1.001-1.683,1.414c-5.838,4.533-12.919,6.853-20.273,6.625c-2.765,0.208-7.903,1.724-11.015,4.503
				l-48.359,62.797l84.788,64.881l32.407-42.604c0.321-0.422,0.797-0.699,1.322-0.771c0.521-0.071,1.059,0.069,1.48,0.39
				l44.107,33.554c0.879,0.669,1.05,1.924,0.381,2.803l-32.495,42.718l37.079,28.334c0.855,0.654,1.04,1.869,0.415,2.748
				l-42.319,59.521c-0.314,0.442-0.796,0.738-1.333,0.818C384.922,677.085,384.822,677.092,384.724,677.092z M307.686,291.92
				l-19.773,25.477l-26.171,33.32c-0.032,0.04-0.065,0.079-0.1,0.117c-3.219,3.508-4.931,8.265-4.697,13.051
				c0.003,0.069,0.003,0.137-0.001,0.206c-0.352,6.49-2.612,12.445-3.062,13.573c-0.069,0.174-0.167,0.348-0.282,0.497
				l-74.221,95.497c-11.067,14.245-8.484,34.838,5.758,45.904c0.502,0.391,1.043,0.781,1.656,1.195
				c0.034,0.023,0.066,0.046,0.099,0.071l197.404,151.416l39.998-56.256l-37.129-28.373c-0.876-0.669-1.045-1.922-0.377-2.8
				l32.492-42.714l-40.924-31.132l-32.412,42.611c-0.322,0.424-0.8,0.701-1.327,0.771c-0.528,0.067-1.062-0.072-1.482-0.396
				l-1.061-0.814l-86.91-66.505c-0.422-0.323-0.698-0.801-0.768-1.328c-0.068-0.527,0.074-1.06,0.398-1.481l49.692-64.528
				c0.07-0.09,0.146-0.174,0.23-0.251c3.623-3.334,9.749-5.408,13.673-5.667c0.064-0.004,0.13-0.006,0.196-0.003
				c6.474,0.207,12.672-1.806,17.795-5.783c0.469-0.364,0.952-0.771,1.519-1.28c0.035-0.032,0.071-0.062,0.109-0.091l41.403-32.159
				c0.048-0.037,0.097-0.072,0.147-0.104c0.218-0.14,0.433-0.284,0.643-0.448c1.789-1.389,2.926-3.383,3.207-5.622
				c0.281-2.239-0.326-4.455-1.71-6.237c-1.611-2.075-4.046-3.265-6.679-3.265c-1.889,0-3.679,0.614-5.175,1.776l0,0
				c-0.107,0.084-0.224,0.158-0.344,0.218c-0.018,0.008-0.035,0.017-0.052,0.025l-21.128,16.412c-0.5,0.388-1.155,0.516-1.765,0.347
				c-0.61-0.171-1.104-0.62-1.33-1.212l-0.173-0.426c-0.267-0.661-0.162-1.414,0.276-1.977l24.81-31.885
				c0.037-0.049,0.077-0.095,0.119-0.14c0.183-0.194,0.36-0.395,0.529-0.609c0.065-0.083,0.272-0.354,0.562-0.734
				c0.053-0.104,0.114-0.204,0.187-0.3l3.683-4.888c2.116-3.624,1.234-8.289-2.074-10.889c-1.501-1.178-3.301-1.802-5.203-1.802
				c-2.206,0-4.282,0.836-5.86,2.356l-3.817,4.768l-20.851,26.855c-0.675,0.866-1.919,1.028-2.79,0.366
				c-0.426-0.323-0.738-0.829-0.808-1.358s0.041-1.091,0.368-1.513l19.449-25.073c0.023-0.03,0.048-0.06,0.073-0.088
				c0.446-0.544,5.638-7.301,7.601-9.855c0.7-0.912,1.169-1.521,1.216-1.581c1.396-1.777,2.015-3.988,1.745-6.229
				c-0.27-2.24-1.395-4.241-3.169-5.634c-1.397-1.096-3.12-1.676-4.98-1.676c-2.779,0-5.451,1.289-7.148,3.448
				c-0.017,0.022-0.034,0.043-0.053,0.064l-7.953,10.332l-20.054,25.837c-0.326,0.42-0.806,0.693-1.333,0.759
				c-0.532,0.064-1.06-0.082-1.479-0.409c-0.868-0.678-1.094-1.985-0.418-2.856l19.452-25.071c0.041-0.053,0.084-0.103,0.13-0.151
				c0.251-0.3,3.068-3.954,4.129-5.329l0.687-0.89c1.396-1.777,2.017-3.988,1.747-6.229c-0.269-2.24-1.395-4.242-3.17-5.635
				c-1.499-1.178-3.296-1.8-5.196-1.8c-2.393,0-4.676,1.013-6.273,2.783l-4.322,5.518l-20.451,26.348
				c-0.666,0.858-1.894,1.026-2.766,0.384c-0.435-0.319-0.757-0.828-0.832-1.362c-0.074-0.534,0.035-1.102,0.365-1.528
				l19.453-25.071c0.039-0.051,0.081-0.1,0.126-0.147c0.182-0.192,0.36-0.392,0.529-0.604c2.87-3.659,2.23-8.98-1.431-11.857
				c-1.503-1.18-3.306-1.805-5.212-1.805c-2.587,0-4.986,1.152-6.6,3.163C307.942,291.68,307.82,291.81,307.686,291.92z"/>
		</g>
		<g>
			<path fill="#FFFFFF" d="M469.098,645.432l17.517,13.391l3.911,2.988c-4.523,5.918-12.986,7.049-18.904,2.525
				c-0.582-0.445-1.105-0.939-1.595-1.455l-0.542,0.133c0.932,6.741-3.352,13.239-10.106,14.917
				c-6.786,1.687-13.647-2.094-15.948-8.541l-0.072,0.019c0.941,6.778-3.394,13.298-10.188,14.942
				c-6.771,1.64-13.584-2.146-15.871-8.568l-0.131,0.031c0.963,6.795-3.373,13.338-10.18,14.984
				c-6.787,1.644-13.613-2.163-15.887-8.605l-9.414,2.304l-21.9-16.74l51.084-66.83L469.098,645.432z"/>
		</g>
		<g>
			<path fill="#FFFFFF" d="M300.348,481.425l-9.711-19.794l-2.169-4.419c-6.687,3.28-9.448,11.362-6.167,18.047
				c0.324,0.659,0.706,1.268,1.116,1.849l-0.235,0.505c-6.431-2.229-13.639,0.705-16.604,7c-2.979,6.327-0.613,13.793,5.264,17.31
				l-0.032,0.066c-6.466-2.247-13.706,0.732-16.646,7.073c-2.93,6.322-0.545,13.743,5.305,17.239l-0.057,0.122
				c-6.475-2.271-13.738,0.705-16.684,7.061c-2.936,6.333-0.535,13.771,5.34,17.26c-2.234,4.788-4.931,8.338-3.477,13.863
				c1.336,5.076,5.141,5.309,7.713,9.459c1.527,2.467,6.568,2.23,7.926,4.841c24.367-12.229,44.859-18.664,69.34-30.675
				c0.104-0.05,2.061-1.01,2.061-1.01C332.625,547.212,300.348,481.425,300.348,481.425z"/>
		</g>
		<g>
			<g>
				<g id="XMLID_4_">
					<path fill="#FFD829" d="M383.535,411.262c0.868,0.661,1.684,1.368,2.455,2.104c28.559-21.208,68.768-22.008,98.498,0.607
						c29.731,22.617,39.689,61.582,26.873,94.764c0.916,0.546,1.814,1.143,2.684,1.805c12.514,9.518,14.939,27.38,5.422,39.894
						c-9.52,12.514-27.381,14.939-39.895,5.422c-1.906-1.452-3.575-3.096-5.01-4.886c-27.561,15.24-62.674,13.805-89.354-6.489
						c-26.677-20.293-37.432-53.75-30.102-84.383c-2.107-0.904-4.138-2.071-6.045-3.523c-12.514-9.519-14.94-27.379-5.42-39.894
						C353.16,404.172,371.021,401.744,383.535,411.262z"/>
					<path d="M496.788,563.67c-6.705,0-13.076-2.15-18.427-6.22c-1.548-1.18-2.98-2.503-4.275-3.947
						c-12.061,6.361-25.614,9.717-39.307,9.717c-18.477,0-36.036-5.929-50.781-17.145c-26.041-19.81-38.178-52.958-31.202-84.84
						c-1.743-0.863-3.4-1.891-4.944-3.066c-6.478-4.927-10.648-12.081-11.743-20.146c-1.096-8.064,1.015-16.073,5.942-22.55
						c5.812-7.641,14.658-12.022,24.271-12.022c6.704,0,13.075,2.15,18.425,6.219c0.462,0.352,0.924,0.727,1.383,1.123
						c14.111-10.043,31.368-15.556,48.786-15.556c18.478,0,36.038,5.929,50.784,17.146c29.151,22.175,40.569,61.251,28.106,95.534
						c0.503,0.336,0.984,0.68,1.452,1.037c13.369,10.168,15.972,29.322,5.801,42.695C515.246,559.288,506.4,563.67,496.788,563.67z
						 M475.069,548.407l1.054,1.314c1.358,1.695,2.927,3.225,4.661,4.546c4.646,3.534,10.181,5.402,16.004,5.402
						c8.352,0,16.038-3.807,21.087-10.444c8.836-11.617,6.574-28.256-5.041-37.091c-0.771-0.587-1.586-1.136-2.497-1.679
						l-1.449-0.864l0.608-1.574c12.744-32.997,1.963-71.014-26.219-92.452c-14.043-10.683-30.767-16.329-48.362-16.329
						c-17.116,0-34.067,5.588-47.732,15.735l-1.354,1.005l-1.22-1.164c-0.755-0.72-1.523-1.379-2.286-1.96
						c-4.646-3.534-10.18-5.402-16.002-5.402c-8.353,0-16.038,3.807-21.087,10.444c-4.281,5.627-6.114,12.584-5.163,19.59
						c0.952,7.005,4.575,13.221,10.202,17.501c1.729,1.315,3.62,2.418,5.622,3.277l1.549,0.664l-0.392,1.639
						c-7.377,30.829,4.15,63.143,29.367,82.326c14.043,10.682,30.766,16.328,48.359,16.328c13.566,0,26.988-3.457,38.815-9.997
						L475.069,548.407z"/>
				</g>
				<g>
					<line fill="#FFD829" x1="512.848" y1="535.94" x2="487.461" y2="540.474"/>
					<path d="M487.459,542.474c-0.951,0-1.794-0.68-1.967-1.648c-0.194-1.087,0.53-2.126,1.617-2.32l25.387-4.533
						c1.093-0.195,2.127,0.53,2.32,1.617c0.194,1.087-0.53,2.126-1.617,2.32l-25.387,4.533
						C487.693,542.464,487.575,542.474,487.459,542.474z"/>
				</g>
				<g>
					<line fill="#FFD829" x1="362.088" y1="421.254" x2="364.494" y2="446.932"/>
					<path d="M364.492,448.932c-1.021,0-1.893-0.777-1.989-1.813l-2.406-25.678c-0.104-1.1,0.705-2.075,1.805-2.178
						c1.105-0.103,2.075,0.704,2.178,1.805l2.406,25.678c0.104,1.1-0.705,2.075-1.805,2.178
						C364.617,448.929,364.555,448.932,364.492,448.932z"/>
				</g>
			</g>
			<g>
				<g>
					<path d="M450.072,501.745c-3.617,4.754-2.693,11.543,2.061,15.158c4.754,3.618,11.543,2.696,15.16-2.057
						c3.617-4.757,2.691-11.544-2.062-15.161C460.477,496.069,453.689,496.99,450.072,501.745z"/>
				</g>
				<g>
					<path d="M473.84,524.74c-0.033,0-0.066-0.001-0.1-0.002c-1.104-0.054-1.954-0.992-1.9-2.095
						c0.392-7.978-3.165-15.625-9.512-20.454c-6.343-4.827-14.66-6.215-22.253-3.712c-1.051,0.344-2.181-0.225-2.525-1.273
						c-0.346-1.049,0.225-2.18,1.273-2.526c8.842-2.914,18.535-1.297,25.927,4.328c7.396,5.628,11.541,14.538,11.086,23.833
						C475.783,523.908,474.899,524.74,473.84,524.74z"/>
				</g>
			</g>
			<g>
				<g>
					<circle cx="402.492" cy="465.549" r="10.818"/>
				</g>
				<g>
					<path d="M417.648,481.995c-0.033,0-0.066-0.001-0.1-0.002c-1.104-0.054-1.954-0.992-1.9-2.095
						c0.392-7.98-3.164-15.626-9.512-20.455c-6.348-4.828-14.664-6.213-22.251-3.709c-1.046,0.348-2.179-0.223-2.526-1.271
						c-0.346-1.049,0.224-2.18,1.272-2.526c8.835-2.92,18.528-1.303,25.927,4.324c7.397,5.627,11.541,14.537,11.086,23.834
						C419.592,481.163,418.708,481.995,417.648,481.995z"/>
				</g>
			</g>
			<g>
				<line fill="#FFD829" x1="429.984" y1="486.566" x2="420.447" y2="499.102"/>
				<path d="M420.445,501.102c-0.422,0-0.847-0.133-1.209-0.408c-0.879-0.669-1.05-1.924-0.381-2.803l9.537-12.536
					c0.669-0.878,1.923-1.051,2.803-0.381c0.879,0.669,1.05,1.924,0.381,2.803l-9.537,12.536
					C421.646,500.83,421.049,501.102,420.445,501.102z"/>
			</g>
			<g>
				<path fill="#FFFFFF" d="M392.91,489.533c-9.264,12.179-6.901,29.562,5.277,38.828c12.18,9.265,29.564,6.905,38.83-5.275
					L392.91,489.533z"/>
			</g>
			<g>
				<path d="M384.265,414.376l0.678-0.891c13.794-10.343,30.936-16.462,49.503-16.442c45.539,0.054,82.412,37.013,82.359,82.55
					c-0.01,8.605-1.339,16.899-3.793,24.694l-3.867,5.085L384.265,414.376z"/>
			</g>
		</g>
		<g>
			<path fill="#FFFFFF" d="M340.315,546.923c-11.454,14.983-8.592,36.417,6.394,47.871c14.984,11.453,36.416,8.591,47.87-6.395
				l33.374,25.511l-51.571,67.469L253.93,587.78l51.57-67.469L340.315,546.923z"/>
		</g>
		<g>
			<circle fill="#FFFFFF" cx="261.27" cy="563.35" r="16.773"/>
		</g>
		<g>
			<g>
				<g>
					<g>
						<path fill="#FFFFFF" d="M517.393,499.88c-4.382,0-7.935-3.553-7.935-7.934V432.85c0-4.382,3.553-7.934,7.935-7.934
							c4.381,0,7.934,3.552,7.934,7.934v59.096C525.326,496.327,521.773,499.88,517.393,499.88z"/>
					</g>
				</g>
				<g>
					<g>
						<path fill="#FFFFFF" d="M496.505,491.227c-2.03,0-4.062-0.774-5.61-2.323c-3.098-3.099-3.099-8.122,0-11.221l41.785-41.788
							c3.099-3.099,8.123-3.099,11.221,0c3.099,3.099,3.1,8.122,0,11.221l-41.785,41.788
							C500.566,490.452,498.535,491.227,496.505,491.227z"/>
					</g>
				</g>
				<g>
					<g>
						<path fill="#FFFFFF" d="M546.944,470.329h-59.098c-4.382,0-7.935-3.553-7.935-7.934c0-4.382,3.553-7.934,7.935-7.934h59.098
							c4.382,0,7.935,3.552,7.935,7.934C554.879,466.776,551.326,470.329,546.944,470.329z"/>
					</g>
				</g>
				<g>
					<g>
						<path fill="#FFFFFF" d="M538.293,491.227c-2.031,0-4.061-0.774-5.61-2.324l-41.788-41.79c-3.099-3.099-3.098-8.122,0-11.22
							c3.098-3.099,8.122-3.099,11.221,0l41.787,41.79c3.1,3.098,3.1,8.122,0,11.22
							C542.354,490.452,540.322,491.227,538.293,491.227z"/>
					</g>
				</g>
			</g>
		</g>
		<g>
			<g>
				<path fill="#FFFFFF" d="M201.892,730.409c17.795,0,17.795-17.012,35.59-17.012c17.796,0,17.796,17.012,35.591,17.012
					c17.793,0,17.793-17.012,35.587-17.012c17.796,0,17.796,17.012,35.591,17.012c11.486,0,15.562-7.087,21.791-12.112l27.411-35.86
					L258.594,579.355L152.203,718.544c3.484-2.878,7.605-5.146,14.1-5.146C184.098,713.397,184.098,730.409,201.892,730.409z"/>
			</g>
		</g>
	</g>
	<g>
		<path fill="#FFFFFF" d="M913.693,732.88c-9.7,0-14.736-4.813-19.179-9.061c-4.278-4.089-8.318-7.951-16.415-7.951
			c-8.094,0-12.134,3.862-16.411,7.951c-4.442,4.247-9.477,9.061-19.177,9.061s-14.736-4.813-19.179-9.061
			c-4.278-4.089-8.318-7.951-16.415-7.951s-12.137,3.862-16.415,7.951c-4.442,4.247-9.479,9.061-19.179,9.061
			s-14.736-4.813-19.179-9.061c-4.278-4.089-8.318-7.951-16.414-7.951s-12.137,3.862-16.414,7.952
			c-4.442,4.246-9.478,9.06-19.177,9.06c-9.7,0-14.735-4.813-19.178-9.061c-4.278-4.089-8.318-7.951-16.414-7.951
			s-12.136,3.862-16.413,7.951c-4.442,4.247-9.478,9.061-19.177,9.061s-14.734-4.813-19.177-9.061
			c-4.277-4.089-8.317-7.951-16.413-7.951s-12.136,3.862-16.413,7.951c-4.442,4.247-9.478,9.061-19.177,9.061
			c-9.701,0-14.736-4.813-19.179-9.061c-4.278-4.089-8.318-7.951-16.414-7.951c-8.095,0-12.135,3.862-16.412,7.951
			c-4.442,4.247-9.477,9.061-19.177,9.061c-9.699,0-14.734-4.813-19.176-9.061c-4.277-4.089-8.317-7.951-16.412-7.951
			c-8.094,0-12.134,3.862-16.411,7.951c-4.441,4.247-9.477,9.061-19.175,9.061c-9.699,0-14.734-4.813-19.176-9.061
			c-4.277-4.089-8.317-7.951-16.411-7.951c-8.095,0-12.135,3.862-16.412,7.951c-4.441,4.247-9.477,9.061-19.175,9.061
			c-9.699,0-14.734-4.813-19.177-9.06c-4.277-4.09-8.318-7.952-16.414-7.952c-8.095,0-12.135,3.862-16.412,7.951
			c-4.441,4.247-9.477,9.061-19.175,9.061c-9.699,0-14.734-4.813-19.177-9.06c-4.277-4.09-8.318-7.952-16.414-7.952
			s-12.136,3.862-16.413,7.951c-4.442,4.247-9.478,9.061-19.177,9.061s-14.733-4.813-19.176-9.061
			c-4.277-4.089-8.317-7.951-16.413-7.951s-12.136,3.862-16.413,7.951c-4.442,4.247-9.478,9.061-19.177,9.061c-1.104,0-2-0.896-2-2
			s0.896-2,2-2c8.096,0,12.136-3.862,16.413-7.951c4.442-4.247,9.478-9.061,19.177-9.061c9.7,0,14.734,4.813,19.177,9.061
			c4.277,4.089,8.317,7.951,16.412,7.951c8.096,0,12.136-3.862,16.413-7.951c4.442-4.247,9.478-9.061,19.177-9.061
			c9.7,0,14.735,4.813,19.178,9.061c4.277,4.089,8.318,7.951,16.413,7.951c8.094,0,12.134-3.862,16.411-7.951
			c4.441-4.247,9.477-9.061,19.176-9.061c9.7,0,14.735,4.813,19.178,9.061c4.277,4.089,8.318,7.951,16.413,7.951
			c8.094,0,12.134-3.862,16.411-7.951c4.441-4.247,9.477-9.061,19.176-9.061c9.698,0,14.733,4.813,19.175,9.061
			c4.277,4.089,8.317,7.951,16.412,7.951s12.134-3.862,16.411-7.951c4.441-4.247,9.476-9.061,19.175-9.061
			s14.734,4.813,19.176,9.061c4.277,4.089,8.317,7.951,16.412,7.951c8.096,0,12.136-3.862,16.413-7.951
			c4.442-4.247,9.477-9.061,19.176-9.061c9.7,0,14.735,4.813,19.178,9.06c4.278,4.09,8.318,7.952,16.415,7.952
			c8.096,0,12.136-3.862,16.413-7.951c4.442-4.247,9.478-9.061,19.177-9.061s14.734,4.813,19.177,9.061
			c4.277,4.089,8.317,7.951,16.413,7.951s12.136-3.862,16.413-7.951c4.442-4.247,9.478-9.061,19.177-9.061
			c9.7,0,14.735,4.813,19.178,9.061c4.278,4.089,8.318,7.951,16.414,7.951c8.095,0,12.136-3.862,16.413-7.951
			c4.442-4.247,9.478-9.061,19.178-9.061s14.735,4.813,19.178,9.06c4.278,4.09,8.318,7.952,16.415,7.952s12.137-3.862,16.415-7.951
			c4.442-4.247,9.479-9.061,19.179-9.061s14.736,4.813,19.179,9.061c4.278,4.089,8.318,7.951,16.415,7.951
			c8.096,0,12.136-3.862,16.413-7.952c4.441-4.246,9.477-9.06,19.175-9.06c9.7,0,14.736,4.813,19.179,9.061
			c4.278,4.089,8.318,7.951,16.415,7.951c8.095,0,12.135-3.862,16.413-7.951c4.442-4.247,9.479-9.061,19.181-9.061
			c1.104,0,2,0.896,2,2s-0.896,2-2,2c-8.098,0-12.139,3.862-16.417,7.952C928.428,728.067,923.393,732.88,913.693,732.88z"/>
	</g>
	<g>
		<path fill="#FFFFFF" d="M913.693,803.77c-9.7,0-14.736-4.813-19.179-9.061c-4.278-4.089-8.318-7.951-16.415-7.951
			c-8.094,0-12.134,3.862-16.411,7.951c-4.442,4.247-9.477,9.061-19.177,9.061s-14.736-4.813-19.179-9.061
			c-4.278-4.089-8.318-7.951-16.415-7.951s-12.137,3.862-16.415,7.951c-4.442,4.247-9.479,9.061-19.179,9.061
			s-14.736-4.813-19.179-9.061c-4.278-4.089-8.318-7.951-16.414-7.951s-12.137,3.862-16.414,7.952
			c-4.442,4.246-9.478,9.06-19.177,9.06c-9.7,0-14.735-4.813-19.178-9.061c-4.278-4.089-8.318-7.951-16.414-7.951
			c-8.095,0-12.135,3.862-16.412,7.951c-4.442,4.247-9.477,9.061-19.177,9.061s-14.735-4.813-19.178-9.061
			c-4.277-4.089-8.318-7.951-16.413-7.951c-8.096,0-12.136,3.862-16.413,7.951c-4.442,4.247-9.478,9.061-19.177,9.061
			c-9.701,0-14.736-4.813-19.179-9.061c-4.278-4.089-8.318-7.951-16.414-7.951c-8.095,0-12.135,3.862-16.412,7.951
			c-4.442,4.247-9.477,9.061-19.177,9.061c-9.698,0-14.733-4.813-19.175-9.06c-4.277-4.09-8.317-7.952-16.413-7.952
			c-8.094,0-12.134,3.862-16.411,7.951c-4.441,4.247-9.477,9.061-19.175,9.061c-9.699,0-14.734-4.813-19.176-9.061
			c-4.277-4.089-8.317-7.951-16.411-7.951c-8.095,0-12.135,3.862-16.412,7.951c-4.441,4.247-9.477,9.061-19.175,9.061
			c-9.699,0-14.734-4.813-19.177-9.061c-4.277-4.089-8.317-7.951-16.413-7.951s-12.136,3.862-16.413,7.952
			c-4.441,4.246-9.477,9.06-19.175,9.06c-9.699,0-14.734-4.813-19.177-9.06c-4.277-4.09-8.318-7.952-16.414-7.952
			s-12.136,3.862-16.413,7.951c-4.442,4.247-9.478,9.061-19.177,9.061s-14.733-4.813-19.176-9.061
			c-4.277-4.089-8.317-7.951-16.413-7.951s-12.136,3.862-16.413,7.951c-4.442,4.247-9.478,9.061-19.177,9.061c-1.104,0-2-0.896-2-2
			s0.896-2,2-2c8.096,0,12.136-3.862,16.413-7.951c4.442-4.247,9.478-9.061,19.177-9.061c9.7,0,14.734,4.813,19.177,9.061
			c4.277,4.089,8.317,7.951,16.412,7.951c8.096,0,12.136-3.862,16.413-7.951c4.442-4.247,9.478-9.061,19.177-9.061
			c9.7,0,14.735,4.813,19.178,9.061c4.277,4.089,8.318,7.951,16.413,7.951c8.094,0,12.134-3.862,16.411-7.951
			c4.442-4.247,9.477-9.061,19.177-9.061c9.699,0,14.734,4.813,19.177,9.061c4.277,4.089,8.317,7.951,16.413,7.951
			c8.094,0,12.134-3.862,16.411-7.951c4.441-4.247,9.477-9.061,19.176-9.061c9.698,0,14.733,4.813,19.175,9.061
			c4.277,4.089,8.317,7.951,16.412,7.951s12.134-3.862,16.411-7.951c4.441-4.247,9.476-9.061,19.175-9.061
			c9.7,0,14.735,4.813,19.177,9.061c4.277,4.089,8.317,7.951,16.411,7.951c8.096,0,12.136-3.862,16.413-7.951
			c4.442-4.247,9.477-9.061,19.176-9.061c9.7,0,14.735,4.813,19.178,9.06c4.278,4.09,8.318,7.952,16.415,7.952
			c8.096,0,12.136-3.862,16.413-7.951c4.442-4.247,9.478-9.061,19.177-9.061s14.734,4.813,19.177,9.06
			c4.277,4.09,8.318,7.952,16.414,7.952s12.136-3.862,16.413-7.951c4.442-4.247,9.477-9.061,19.176-9.061
			c9.7,0,14.735,4.813,19.178,9.061c4.278,4.089,8.318,7.951,16.414,7.951c8.095,0,12.136-3.862,16.413-7.951
			c4.442-4.247,9.478-9.061,19.178-9.061s14.735,4.813,19.178,9.06c4.278,4.09,8.318,7.952,16.415,7.952s12.137-3.862,16.415-7.951
			c4.442-4.247,9.479-9.061,19.179-9.061s14.736,4.813,19.179,9.061c4.278,4.089,8.318,7.951,16.415,7.951
			c8.096,0,12.136-3.862,16.413-7.952c4.441-4.246,9.477-9.06,19.175-9.06c9.7,0,14.736,4.813,19.179,9.061
			c4.278,4.089,8.318,7.951,16.415,7.951c8.095,0,12.135-3.862,16.413-7.951c4.442-4.247,9.479-9.061,19.181-9.061
			c1.104,0,2,0.896,2,2s-0.896,2-2,2c-8.098,0-12.139,3.862-16.417,7.952C928.428,798.957,923.393,803.77,913.693,803.77z"/>
	</g>
	<g>
		<path fill="#FFFFFF" d="M913.693,875.605c-9.7,0-14.736-4.813-19.179-9.061c-4.278-4.089-8.318-7.951-16.415-7.951
			c-8.094,0-12.134,3.862-16.411,7.951c-4.442,4.247-9.477,9.061-19.177,9.061s-14.736-4.813-19.179-9.061
			c-4.278-4.089-8.318-7.951-16.415-7.951s-12.137,3.862-16.415,7.951c-4.442,4.247-9.479,9.061-19.179,9.061
			s-14.736-4.813-19.179-9.061c-4.278-4.089-8.318-7.951-16.414-7.951s-12.137,3.862-16.414,7.952
			c-4.442,4.246-9.478,9.06-19.177,9.06c-9.7,0-14.735-4.813-19.178-9.061c-4.278-4.089-8.318-7.951-16.414-7.951
			c-8.095,0-12.135,3.862-16.412,7.951c-4.442,4.247-9.477,9.061-19.177,9.061s-14.735-4.813-19.178-9.061
			c-4.277-4.089-8.318-7.951-16.413-7.951c-8.096,0-12.136,3.862-16.413,7.951c-4.442,4.247-9.478,9.061-19.177,9.061
			c-9.701,0-14.736-4.813-19.179-9.061c-4.278-4.089-8.318-7.951-16.414-7.951c-8.095,0-12.135,3.862-16.412,7.951
			c-4.442,4.247-9.477,9.061-19.177,9.061c-9.698,0-14.733-4.813-19.175-9.06c-4.277-4.09-8.317-7.952-16.413-7.952
			c-8.094,0-12.134,3.862-16.411,7.951c-4.441,4.247-9.477,9.061-19.175,9.061c-9.699,0-14.734-4.813-19.176-9.061
			c-4.277-4.089-8.317-7.951-16.411-7.951c-8.095,0-12.135,3.862-16.412,7.951c-4.441,4.247-9.477,9.061-19.175,9.061
			c-9.699,0-14.734-4.813-19.177-9.061c-4.277-4.089-8.317-7.951-16.413-7.951s-12.136,3.862-16.413,7.952
			c-4.441,4.246-9.477,9.06-19.175,9.06c-9.699,0-14.734-4.813-19.177-9.06c-4.277-4.09-8.318-7.952-16.414-7.952
			s-12.136,3.862-16.413,7.951c-4.442,4.247-9.478,9.061-19.177,9.061s-14.733-4.813-19.176-9.061
			c-4.277-4.089-8.317-7.951-16.413-7.951s-12.136,3.862-16.413,7.951c-4.442,4.247-9.478,9.061-19.177,9.061c-1.104,0-2-0.896-2-2
			s0.896-2,2-2c8.096,0,12.136-3.862,16.413-7.951c4.442-4.247,9.478-9.061,19.177-9.061c9.7,0,14.734,4.813,19.177,9.061
			c4.277,4.089,8.317,7.951,16.412,7.951c8.096,0,12.136-3.862,16.413-7.951c4.442-4.247,9.478-9.061,19.177-9.061
			c9.7,0,14.735,4.813,19.178,9.061c4.277,4.089,8.318,7.951,16.413,7.951c8.094,0,12.134-3.862,16.411-7.951
			c4.442-4.247,9.477-9.061,19.177-9.061c9.699,0,14.734,4.813,19.177,9.061c4.277,4.089,8.317,7.951,16.413,7.951
			c8.094,0,12.134-3.862,16.411-7.951c4.441-4.247,9.477-9.061,19.176-9.061c9.698,0,14.733,4.813,19.175,9.061
			c4.277,4.089,8.317,7.951,16.412,7.951s12.134-3.862,16.411-7.951c4.441-4.247,9.476-9.061,19.175-9.061
			c9.7,0,14.735,4.813,19.177,9.061c4.277,4.089,8.317,7.951,16.411,7.951c8.096,0,12.136-3.862,16.413-7.951
			c4.442-4.247,9.477-9.061,19.176-9.061c9.7,0,14.735,4.813,19.178,9.06c4.278,4.09,8.318,7.952,16.415,7.952
			c8.096,0,12.136-3.862,16.413-7.951c4.442-4.247,9.478-9.061,19.177-9.061s14.734,4.813,19.177,9.06
			c4.277,4.09,8.318,7.952,16.414,7.952s12.136-3.862,16.413-7.951c4.442-4.247,9.477-9.061,19.176-9.061
			c9.7,0,14.735,4.813,19.178,9.061c4.278,4.089,8.318,7.951,16.414,7.951c8.095,0,12.136-3.862,16.413-7.951
			c4.442-4.247,9.478-9.061,19.178-9.061s14.735,4.813,19.178,9.06c4.278,4.09,8.318,7.952,16.415,7.952s12.137-3.862,16.415-7.951
			c4.442-4.247,9.479-9.061,19.179-9.061s14.736,4.813,19.179,9.061c4.278,4.089,8.318,7.951,16.415,7.951
			c8.096,0,12.136-3.862,16.413-7.952c4.441-4.246,9.477-9.06,19.175-9.06c9.7,0,14.736,4.813,19.179,9.061
			c4.278,4.089,8.318,7.951,16.415,7.951c8.095,0,12.135-3.862,16.413-7.951c4.442-4.247,9.479-9.061,19.181-9.061
			c1.104,0,2,0.896,2,2s-0.896,2-2,2c-8.098,0-12.139,3.862-16.417,7.952C928.428,870.793,923.393,875.605,913.693,875.605z"/>
	</g>
</g>
<g>
	<g>
		<circle fill="#FFFFFF" cx="268.701" cy="215.311" r="7.726"/>
	</g>
	<g>
		<circle fill="#FFFFFF" cx="219.775" cy="166.386" r="7.727"/>
	</g>
</g>
<g>
	<g>
		<g>
			<path fill="#FFFFFF" d="M822.837,241.346c-1.104,0-2-0.896-2-2v-35.975c0-1.104,0.896-2,2-2s2,0.896,2,2v35.975
				C824.837,240.451,823.941,241.346,822.837,241.346z"/>
		</g>
		<g>
			<path fill="#FFFFFF" d="M822.837,290.645c-1.104,0-2-0.896-2-2V252.67c0-1.104,0.896-2,2-2s2,0.896,2,2v35.975
				C824.837,289.749,823.941,290.645,822.837,290.645z"/>
		</g>
	</g>
	<g>
		<g>
			<path fill="#FFFFFF" d="M865.474,248.008h-35.975c-1.104,0-2-0.896-2-2s0.896-2,2-2h35.975c1.104,0,2,0.896,2,2
				S866.578,248.008,865.474,248.008z"/>
		</g>
		<g>
			<path fill="#FFFFFF" d="M816.176,248.008h-35.975c-1.104,0-2-0.896-2-2s0.896-2,2-2h35.975c1.104,0,2,0.896,2,2
				S817.28,248.008,816.176,248.008z"/>
		</g>
	</g>
</g>
<g>
	<g>
		<g>
			<path fill="#FFFFFF" d="M481.193,308.655c-1.104,0-2-0.896-2-2v-23.461c0-1.104,0.896-2,2-2s2,0.896,2,2v23.461
				C483.193,307.76,482.298,308.655,481.193,308.655z"/>
		</g>
		<g>
			<path fill="#FFFFFF" d="M481.193,340.807c-1.104,0-2-0.896-2-2v-23.462c0-1.104,0.896-2,2-2s2,0.896,2,2v23.462
				C483.193,339.911,482.298,340.807,481.193,340.807z"/>
		</g>
	</g>
	<g>
		<g>
			<path fill="#FFFFFF" d="M509,313h-23.462c-1.104,0-2-0.896-2-2s0.896-2,2-2H509c1.104,0,2,0.896,2,2S510.104,313,509,313z"/>
		</g>
		<g>
			<path fill="#FFFFFF" d="M476.849,313h-23.462c-1.104,0-2-0.896-2-2s0.896-2,2-2h23.462c1.104,0,2,0.896,2,2
				S477.953,313,476.849,313z"/>
		</g>
	</g>
</g>
<g>
	<g>
		<g>
			<path fill="#FFFFFF" d="M894.655,330.655c-1.104,0-2-0.896-2-2v-23.461c0-1.104,0.896-2,2-2s2,0.896,2,2v23.461
				C896.655,329.76,895.76,330.655,894.655,330.655z"/>
		</g>
		<g>
			<path fill="#FFFFFF" d="M894.655,362.807c-1.104,0-2-0.896-2-2v-23.462c0-1.104,0.896-2,2-2s2,0.896,2,2v23.462
				C896.655,361.911,895.76,362.807,894.655,362.807z"/>
		</g>
	</g>
	<g>
		<g>
			<path fill="#FFFFFF" d="M922.462,335H899c-1.104,0-2-0.896-2-2s0.896-2,2-2h23.462c1.104,0,2,0.896,2,2S923.566,335,922.462,335z
				"/>
		</g>
		<g>
			<path fill="#FFFFFF" d="M890.311,335h-23.462c-1.104,0-2-0.896-2-2s0.896-2,2-2h23.462c1.104,0,2,0.896,2,2
				S891.415,335,890.311,335z"/>
		</g>
	</g>
</g>
<g>
	<circle fill="#FFFFFF" cx="922.727" cy="529" r="7.727"/>
</g>
<g>
	<circle fill="#FFFFFF" cx="627.273" cy="161" r="7.727"/>
</g>
</svg>
