<?xml version="1.0" encoding="utf-8"?>
<!-- Generator: Adobe Illustrator 16.0.0, SVG Export Plug-In . SVG Version: 6.00 Build 0)  -->
<!DOCTYPE svg PUBLIC "-//W3C//DTD SVG 1.1//EN" "http://www.w3.org/Graphics/SVG/1.1/DTD/svg11.dtd">
<svg version="1.1" id="Layer_1" xmlns="http://www.w3.org/2000/svg" xmlns:xlink="http://www.w3.org/1999/xlink" x="0px" y="0px"
	 width="1920px" height="1080px" viewBox="0 0 1920 1080" enable-background="new 0 0 1920 1080" xml:space="preserve">
<g>
	<circle fill="#FFD829" cx="1277.124" cy="470.149" r="38.762"/>
</g>
<g>
	<circle fill="#FFD829" cx="1427.762" cy="470.149" r="38.762"/>
</g>
<g>
	<g id="strelki">
		<g>
			<path d="M959.026,464.562c-31.704,0-57.497-25.793-57.497-57.497s25.793-57.497,57.497-57.497s57.498,25.793,57.498,57.497
				S990.73,464.562,959.026,464.562z M959.026,353.568c-29.499,0-53.497,23.999-53.497,53.497s23.999,53.497,53.497,53.497
				c29.499,0,53.498-23.999,53.498-53.497S988.525,353.568,959.026,353.568z"/>
		</g>
		<g>
			<g>
				<path d="M957.179,438.771c-0.512,0-1.023-0.195-1.414-0.586l-29.706-29.705c-0.375-0.375-0.586-0.884-0.586-1.414
					s0.211-1.039,0.586-1.414l29.706-29.705c0.78-0.781,2.047-0.781,2.828,0c0.781,0.781,0.781,2.047,0,2.828l-28.292,28.291
					l28.292,28.291c0.781,0.781,0.781,2.047,0,2.828C958.203,438.575,957.69,438.771,957.179,438.771z"/>
			</g>
			<g>
				<path d="M990.58,409.065h-63.107c-1.104,0-2-0.896-2-2s0.896-2,2-2h63.107c1.104,0,2,0.896,2,2S991.685,409.065,990.58,409.065z
					"/>
			</g>
		</g>
		<g>
			<path d="M959.026,748.112c-31.704,0-57.497-25.793-57.497-57.496c0-31.704,25.793-57.498,57.497-57.498
				s57.498,25.794,57.498,57.498C1016.524,722.319,990.73,748.112,959.026,748.112z M959.026,637.118
				c-29.499,0-53.497,23.999-53.497,53.498c0,29.498,23.999,53.496,53.497,53.496c29.499,0,53.498-23.998,53.498-53.496
				C1012.524,661.117,988.525,637.118,959.026,637.118z"/>
		</g>
		<g>
			<g>
				<path d="M960.874,722.321c-0.512,0-1.023-0.195-1.414-0.586c-0.781-0.781-0.781-2.047,0-2.828l28.292-28.291l-28.292-28.291
					c-0.781-0.781-0.781-2.047,0-2.828c0.78-0.781,2.047-0.781,2.828,0l29.706,29.705c0.375,0.375,0.586,0.884,0.586,1.414
					s-0.211,1.039-0.586,1.414l-29.706,29.705C961.897,722.126,961.386,722.321,960.874,722.321z"/>
			</g>
			<g>
				<path d="M990.58,692.616h-63.107c-1.104,0-2-0.896-2-2s0.896-2,2-2h63.107c1.104,0,2,0.896,2,2S991.685,692.616,990.58,692.616z
					"/>
			</g>
		</g>
	</g>
	<g>
		<g id="robo2">
			<g>
				<path fill="#FFFFFF" d="M1486.122,708.224v-4c24.434,0,44.312-19.879,44.312-44.312s-19.879-44.312-44.312-44.312v-4
					c26.64,0,48.312,21.673,48.312,48.312S1512.762,708.224,1486.122,708.224z"/>
			</g>
			<g>
				<path fill="#FFFFFF" d="M1214.787,708.224c-26.64,0-48.312-21.673-48.312-48.312s21.673-48.312,48.312-48.312v4
					c-24.434,0-44.312,19.879-44.312,44.312s19.879,44.312,44.312,44.312V708.224z"/>
			</g>
			<g>
				<polygon fill="#FFFFFF" points="1216.787,849.202 1167.496,849.202 1167.496,669.615 1171.496,669.615 1171.496,845.202 
					1212.787,845.202 1212.787,659.911 1216.787,659.911 				"/>
			</g>
			<g>
				<rect x="1214.787" y="609.339" fill="#FFD829" width="271.335" height="237.863"/>
				<path d="M1488.122,849.202h-275.335V607.339h275.335V849.202z M1216.787,845.202h267.335V611.339h-267.335V845.202z"/>
			</g>
			<g>
				<path fill="#FFFFFF" d="M1218.787,576.722c-0.462,0-0.921-0.16-1.288-0.47l-98.581-83.001c-0.643-0.541-0.879-1.426-0.591-2.215
					c0.288-0.79,1.039-1.314,1.879-1.314h98.581c1.104,0,2,0.896,2,2v83.001c0,0.778-0.451,1.485-1.156,1.813
					C1219.361,576.66,1219.073,576.722,1218.787,576.722z M1125.687,493.721l91.101,76.702v-76.702H1125.687z"/>
			</g>
			<g>
				<path fill="#FFFFFF" d="M1482.469,577.067c-0.286,0-0.574-0.062-0.844-0.187c-0.705-0.328-1.156-1.035-1.156-1.813v-83.001
					c0-1.104,0.896-2,2-2h98.581c0.84,0,1.591,0.525,1.879,1.314c0.288,0.789,0.052,1.674-0.591,2.215l-98.581,83.001
					C1483.39,576.907,1482.931,577.067,1482.469,577.067z M1484.469,494.066v76.702l91.101-76.702H1484.469z"/>
			</g>
			<g>
				<path d="M1277.124,508.911c-21.408,0-38.763-17.354-38.763-38.763s17.354-38.762,38.763-38.762V508.911z"/>
			</g>
			<g>
				<path d="M1427.762,508.911c-21.408,0-38.763-17.354-38.763-38.763s17.354-38.762,38.763-38.762V508.911z"/>
			</g>
			<g>
				<path fill="#FFFFFF" d="M1486.122,427.414c0-74.927-60.739-135.668-135.667-135.668s-135.668,60.741-135.668,135.668
					c0,1.328,0.024,2.652,0.062,3.973h-0.062V573.81h271.335V431.387h-0.062C1486.099,430.066,1486.122,428.742,1486.122,427.414z
					 M1277.124,508.911c-21.408,0-38.763-17.354-38.763-38.763s17.354-38.762,38.763-38.762s38.763,17.354,38.763,38.762
					S1298.532,508.911,1277.124,508.911z M1366.229,476.903c0,10.38-8.415,18.794-18.794,18.794s-18.794-8.414-18.794-18.794
					v-54.032c0-10.379,8.415-18.793,18.794-18.793s18.794,8.414,18.794,18.793V476.903z M1427.762,508.911
					c-21.408,0-38.763-17.354-38.763-38.763s17.354-38.762,38.763-38.762c21.407,0,38.762,17.354,38.762,38.762
					S1449.169,508.911,1427.762,508.911z"/>
			</g>
			<g>
				<path d="M1515.405,592.604c0-10.379-8.414-18.795-18.794-18.795h-292.312c-10.381,0-18.795,8.416-18.795,18.795
					s8.414,18.793,18.795,18.793h292.312C1506.991,611.397,1515.405,602.983,1515.405,592.604z"/>
			</g>
			<g>
				<polygon fill="#FFFFFF" points="1120.206,491.719 1218.787,491.719 1218.787,408.72 				"/>
				<path fill="#FFFFFF" d="M1218.787,493.719h-98.581c-0.84,0-1.591-0.525-1.879-1.314c-0.288-0.789-0.052-1.674,0.591-2.215
					l98.581-82.999c0.595-0.501,1.429-0.609,2.132-0.284c0.705,0.328,1.156,1.036,1.156,1.813v82.999
					C1220.787,492.823,1219.892,493.719,1218.787,493.719z M1125.687,489.719h91.101v-76.701L1125.687,489.719z"/>
			</g>
			<g>
				<polygon fill="#FFFFFF" points="1581.05,492.065 1482.469,492.065 1482.469,409.065 				"/>
				<path fill="#FFFFFF" d="M1581.069,494.065c-0.005,0-0.012,0.001-0.02,0h-98.581c-1.104,0-2-0.896-2-2v-83
					c0-0.778,0.451-1.485,1.156-1.813c0.706-0.327,1.536-0.217,2.132,0.284l98.418,82.862c0.539,0.358,0.895,0.972,0.895,1.667
					C1583.069,493.17,1582.175,494.065,1581.069,494.065z M1484.469,490.065h91.101l-91.101-76.702V490.065z"/>
			</g>
			<g>
				
					<rect x="1488.274" y="704.222" transform="matrix(0.389 0.9212 -0.9212 0.389 1601.1582 -1001.7479)" fill="#FFFFFF" width="135.024" height="4.001"/>
			</g>
			<g>
				<g>
					<g>
						<rect x="1320.855" y="695.876" width="99.121" height="124.881"/>
					</g>
					<g>
						<rect x="1400.596" y="656.394" width="42.18" height="164.363"/>
					</g>
					<g>
						<circle cx="1421.686" cy="656.394" r="21.09"/>
					</g>
					<g>
						<path d="M1341.82,716.761c0-11.535-9.351-20.885-20.883-20.885c-11.533,0-20.883,9.35-20.883,20.885
							c0,11.531,9.35,20.881,20.883,20.881C1332.47,737.642,1341.82,728.292,1341.82,716.761z"/>
					</g>
					<g>
						<circle cx="1320.938" cy="758.524" r="20.883"/>
					</g>
					<g>
						<circle cx="1320.938" cy="799.864" r="20.883"/>
					</g>
				</g>
				<g>
					<rect x="1426.836" y="728.271" width="112.405" height="92.486"/>
				</g>
				<g>
					<circle cx="1539.241" cy="774.515" r="46.243"/>
				</g>
			</g>
			<g>
				<path fill="#FFD829" d="M1350.253,522.486c-10.767,0-21.42-2.718-30.808-7.861c-0.969-0.531-1.324-1.746-0.793-2.715
					c0.529-0.968,1.746-1.324,2.715-0.793c8.8,4.821,18.788,7.369,28.886,7.369c10.743,0,21.286-2.864,30.49-8.282
					c0.952-0.56,2.178-0.242,2.738,0.709c0.561,0.952,0.243,2.178-0.709,2.738C1372.954,519.431,1361.709,522.486,1350.253,522.486z
					"/>
			</g>
		</g>
		<g id="border">
			<path d="M1597.109,849.202H1103.8c-23.934,0-43.405-19.472-43.405-43.406V284.387c0-23.933,19.472-43.404,43.405-43.404h493.31
				c23.935,0,43.406,19.471,43.406,43.404v521.409C1640.516,829.73,1621.044,849.202,1597.109,849.202z M1103.8,244.982
				c-21.729,0-39.405,17.677-39.405,39.404v521.409c0,21.729,17.677,39.406,39.405,39.406h493.31
				c21.729,0,39.406-17.678,39.406-39.406V284.387c0-21.728-17.678-39.404-39.406-39.404H1103.8z"/>
		</g>
		<g id="lokator">
			<g>
				<path d="M1350.455,291.746c-1.104,0-2-0.896-2-2v-92.327c0-1.104,0.896-2,2-2s2,0.896,2,2v92.327
					C1352.455,290.851,1351.56,291.746,1350.455,291.746z"/>
			</g>
			<g>
				<ellipse cx="1350.455" cy="197.419" rx="29.947" ry="16.234"/>
			</g>
			<g>
				<ellipse cx="1350.455" cy="242.98" rx="39.803" ry="16.236"/>
			</g>
		</g>
	</g>
	<g>
		<g>
			<path d="M816.199,849.202H322.89c-23.934,0-43.405-19.472-43.405-43.406V284.387c0-23.933,19.472-43.404,43.405-43.404h493.31
				c23.934,0,43.405,19.471,43.405,43.404v521.409C859.604,829.73,840.133,849.202,816.199,849.202z M322.89,244.982
				c-21.728,0-39.405,17.677-39.405,39.404v521.409c0,21.729,17.677,39.406,39.405,39.406h493.31
				c21.728,0,39.405-17.678,39.405-39.406V284.387c0-21.728-17.677-39.404-39.405-39.404H322.89z"/>
		</g>
		<g id="robo1">
			<g>
				<g>
					<rect x="321.225" y="636.12" fill="#FFFFFF" width="47" height="209.082"/>
				</g>
			</g>
			<g>
				<g>
					<path fill="#FFFFFF" d="M388.947,490.942c-26.039,0-47.223-21.184-47.223-47.222c0-26.039,21.184-47.223,47.223-47.223
						c26.038,0,47.222,21.184,47.222,47.223C436.169,469.759,414.985,490.942,388.947,490.942z M388.947,400.498
						c-23.833,0-43.223,19.39-43.223,43.223c0,23.833,19.39,43.222,43.223,43.222c23.833,0,43.222-19.389,43.222-43.222
						C432.169,419.888,412.78,400.498,388.947,400.498z"/>
				</g>
				<g>
					<path fill="#FFFFFF" d="M388.947,468.332c-26.48,0-47.223-10.811-47.223-24.611c0-13.801,20.743-24.612,47.223-24.612
						c26.479,0,47.222,10.811,47.222,24.612C436.169,457.521,415.427,468.332,388.947,468.332z M388.947,423.108
						c-23.429,0-43.223,9.439-43.223,20.612c0,11.172,19.793,20.611,43.223,20.611c23.429,0,43.222-9.439,43.222-20.611
						C432.169,432.548,412.376,423.108,388.947,423.108z"/>
				</g>
				<g>
					<rect x="343.725" y="441.721" fill="#FFFFFF" width="90.444" height="4"/>
				</g>
			</g>
			<g>
				<g>
					<path fill="#FFFFFF" d="M750.142,490.942c-26.039,0-47.223-21.184-47.223-47.222c0-26.039,21.184-47.223,47.223-47.223
						s47.223,21.184,47.223,47.223C797.364,469.759,776.18,490.942,750.142,490.942z M750.142,400.498
						c-23.833,0-43.223,19.39-43.223,43.223c0,23.833,19.39,43.222,43.223,43.222s43.223-19.389,43.223-43.222
						C793.364,419.888,773.975,400.498,750.142,400.498z"/>
				</g>
				<g>
					<path fill="#FFFFFF" d="M750.142,468.332c-26.48,0-47.223-10.811-47.223-24.611c0-13.801,20.743-24.612,47.223-24.612
						s47.223,10.811,47.223,24.612C797.364,457.521,776.622,468.332,750.142,468.332z M750.142,423.108
						c-23.429,0-43.223,9.439-43.223,20.612c0,11.172,19.793,20.611,43.223,20.611s43.223-9.439,43.223-20.611
						C793.364,432.548,773.571,423.108,750.142,423.108z"/>
				</g>
				<g>
					<rect x="704.919" y="441.721" fill="#FFFFFF" width="90.445" height="4"/>
				</g>
			</g>
			<g>
				<rect x="486.733" y="529.175" width="159.455" height="65.191"/>
			</g>
			<g id="eye_3_">
				<path d="M388.947,845.202V617.86c0-24.166,18.537-43.758,41.405-43.758h278.384c22.868,0,41.405,19.592,41.405,43.758v227.342
					H388.947z"/>
			</g>
			<g>
				<g>
					<polygon fill="#FFFFFF" points="405.492,845.202 325.645,845.202 415.692,779.845 443.221,817.938 					"/>
				</g>
			</g>
			<g>
				<path fill="#FFD829" d="M494.662,392.625c21.408,0,38.763,17.354,38.763,38.762s-17.354,38.762-38.763,38.762V392.625z"/>
			</g>
			<g>
				<path fill="#FFFFFF" d="M494.662,470.148c-21.408,0-38.763-17.354-38.763-38.762s17.354-38.762,38.763-38.762V470.148z"/>
			</g>
			<g>
				<path fill="#FFFFFF" d="M646.188,470.148c-21.408,0-38.763-17.354-38.763-38.762s17.354-38.762,38.763-38.762V470.148z"/>
			</g>
			<g>
				<path fill="#FFD829" d="M646.188,392.625c21.408,0,38.762,17.354,38.762,38.762s-17.354,38.762-38.762,38.762V392.625z"/>
			</g>
			<g>
				<path d="M388.947,338.885v209.671h361.194V338.885H388.947z M551.044,398.498h37.001v63.721h-37.001V398.498z M455.9,431.387
					c0-21.408,17.354-38.762,38.762-38.762c21.408,0,38.763,17.354,38.763,38.762s-17.354,38.762-38.763,38.762
					C473.255,470.148,455.9,452.795,455.9,431.387z M569.544,509.492c-21.168,0-39.856-10.574-51.104-26.719h102.21
					C609.401,498.918,590.713,509.492,569.544,509.492z M646.188,470.148c-21.408,0-38.763-17.354-38.763-38.762
					s17.354-38.762,38.763-38.762s38.762,17.354,38.762,38.762S667.597,470.148,646.188,470.148z"/>
			</g>
			<g>
				<rect x="368.391" y="614.921" width="20.557" height="106.303"/>
			</g>
			<g>
				<rect x="750.142" y="614.921" width="20.557" height="106.303"/>
			</g>
			<g>
				<circle fill="#FFFFFF" cx="489.376" cy="203.805" r="19.381"/>
			</g>
			<g>
				<circle fill="#FFFFFF" cx="646.188" cy="203.805" r="19.381"/>
			</g>
			<g>
				<rect x="644.188" y="223.186" fill="#FFFFFF" width="4" height="115.699"/>
			</g>
			<g>
				<rect x="487.377" y="223.186" fill="#FFFFFF" width="4" height="115.699"/>
			</g>
			<g>
				<path fill="#FFFFFF" d="M467.625,831.606c-19.778,0-39.361-8.744-52.484-25.477c-22.666-28.9-17.594-70.855,11.306-93.521
					l29.813-23.383l29.005,36.982l-29.812,23.383c-8.509,6.674-10.002,19.025-3.329,27.535c6.672,8.508,19.025,10,27.535,3.326
					l29.812-23.381l29.005,36.982l-29.812,23.383C496.494,826.979,482.007,831.604,467.625,831.606z"/>
			</g>
			<g>
				<rect x="770.589" y="636.12" fill="#FFFFFF" width="47" height="209.082"/>
			</g>
			<g id="flash">
				<g>
					<polygon points="528,203.805 567.333,178.472 567.333,203.805 					"/>
				</g>
				<g>
					<polygon points="606.667,203.805 567.333,229.138 567.333,203.805 					"/>
				</g>
			</g>
		</g>
		<g id="diamond">
			<g>
				<path fill="#FFFFFF" d="M605.916,867.409c-15.142,0-26.584-4.268-34.012-12.686c-11.097-12.576-9.05-29.666-8.958-30.388
					c0.141-1.096,1.144-1.881,2.238-1.729c1.095,0.14,1.869,1.141,1.729,2.235c-0.022,0.179-1.882,16.075,8.014,27.262
					c6.636,7.502,17.062,11.305,30.988,11.305c0.072,0,0.169,0.004,0.215,0c1.102,0,1.997,0.892,2,1.994
					c0.003,1.104-0.89,2.003-1.995,2.006C606.063,867.409,605.989,867.409,605.916,867.409z"/>
			</g>
			<g>
				<path fill="#FFD829" d="M564.93,826.591L564.93,826.591c-0.614,0-1.195-0.282-1.574-0.766L439.407,667.749
					c-0.682-0.869-0.53-2.127,0.34-2.809c0.869-0.682,2.126-0.528,2.808,0.34L564.93,821.35L687.308,665.28
					c0.682-0.868,1.94-1.021,2.808-0.34c0.87,0.682,1.021,1.939,0.34,2.809L566.503,825.825
					C566.125,826.309,565.544,826.591,564.93,826.591z"/>
			</g>
			<g>
				<g>
					<path fill="#FFD829" d="M523.497,668.517c-0.714,0-1.375-0.381-1.732-1l-41.317-71.562c-0.357-0.619-0.357-1.381,0-2
						c0.357-0.619,1.018-1,1.732-1h82.635c0.714,0,1.375,0.381,1.732,1c0.357,0.619,0.357,1.381,0,2l-41.317,71.562
						C524.872,668.136,524.211,668.517,523.497,668.517z M485.644,596.954l37.853,65.562l37.853-65.562H485.644z"/>
				</g>
				<g>
					<path fill="#FFD829" d="M606.131,668.517c-0.714,0-1.375-0.381-1.732-1l-41.316-71.562c-0.357-0.619-0.357-1.381,0-2
						c0.357-0.619,1.018-1,1.732-1h82.634c0.714,0,1.375,0.381,1.732,1c0.357,0.619,0.357,1.381,0,2l-41.317,71.562
						C607.506,668.136,606.845,668.517,606.131,668.517z M568.278,596.954l37.853,65.562l37.853-65.562H568.278z"/>
				</g>
				<g>
					<path fill="#FFD829" d="M606.151,668.515c-0.007,0-0.013,0-0.02,0h-82.634c-0.714,0-1.375-0.381-1.732-1
						c-0.357-0.619-0.357-1.381,0-2l41.317-71.562c0.357-0.619,1.018-1,1.732-1s1.375,0.381,1.732,1l41.19,71.343
						c0.26,0.338,0.415,0.761,0.415,1.22C608.151,667.619,607.255,668.515,606.151,668.515z M526.961,664.515h75.706l-37.853-65.562
						L526.961,664.515z"/>
				</g>
				<g>
					<path fill="#FFD829" d="M523.517,668.515c-0.007,0-0.013,0-0.02,0h-82.634c-0.714,0-1.375-0.381-1.732-1
						c-0.357-0.619-0.357-1.381,0-2l41.317-71.562c0.357-0.619,1.018-1,1.732-1s1.375,0.381,1.732,1l41.19,71.343
						c0.26,0.338,0.415,0.761,0.415,1.22C525.517,667.619,524.622,668.515,523.517,668.515z M444.328,664.515h75.706l-37.853-65.562
						L444.328,664.515z"/>
				</g>
				<g>
					<path fill="#FFD829" d="M688.785,668.515c-0.007,0-0.013,0-0.02,0h-82.634c-0.714,0-1.375-0.381-1.732-1
						c-0.357-0.619-0.357-1.381,0-2l41.317-71.562c0.357-0.619,1.018-1,1.732-1s1.375,0.381,1.732,1l41.19,71.343
						c0.26,0.338,0.415,0.761,0.415,1.22C690.785,667.619,689.889,668.515,688.785,668.515z M609.595,664.515h75.706l-37.853-65.562
						L609.595,664.515z"/>
				</g>
			</g>
			<g>
				<path fill="#FFD829" d="M564.928,826.592c-0.887,0-1.698-0.596-1.933-1.494l-41.433-158.074
					c-0.28-1.068,0.359-2.161,1.427-2.441c1.071-0.281,2.162,0.359,2.442,1.428l41.433,158.074c0.28,1.068-0.359,2.161-1.427,2.441
					C565.267,826.57,565.096,826.592,564.928,826.592z"/>
			</g>
			<g>
				
					<path fill="none" stroke="#FFD829" stroke-width="4" stroke-linecap="round" stroke-linejoin="round" stroke-miterlimit="10" d="
					M606.131,865.409"/>
			</g>
			<g>
				<path fill="#FFD829" d="M564.931,826.592c-0.167,0-0.337-0.021-0.506-0.065c-1.069-0.278-1.709-1.371-1.431-2.44l41.201-158.074
					c0.279-1.069,1.373-1.708,2.44-1.431c1.069,0.278,1.709,1.371,1.431,2.44l-41.201,158.074
					C566.63,825.995,565.819,826.592,564.931,826.592z"/>
			</g>
			<g>
				<g>
					<polygon fill="#FFFFFF" points="729.969,901.528 637.884,901.528 606.131,865.409 637.884,829.29 729.969,829.29 					"/>
				</g>
				<g>
					<circle fill="#FFFFFF" cx="627.982" cy="865.409" r="5.286"/>
				</g>
				<g>
					<g>
						<path fill="#FFD829" d="M655.046,873.071h-12.852l-3.05,9.291h-3.975l11.208-33.525h4.693l11.303,33.525h-4.167
							L655.046,873.071z M643.433,869.622h10.511l-4.933-15.756h-0.574L643.433,869.622z"/>
					</g>
					<g>
						<path fill="#FFD829" d="M667.929,849.171c1.213-0.287,2.522-0.479,3.927-0.574c1.405-0.096,2.793-0.143,4.167-0.143
							c1.468,0,2.961,0.143,4.478,0.43c1.516,0.287,2.897,0.814,4.143,1.582c1.246,0.766,2.259,1.818,3.042,3.16
							c0.782,1.342,1.173,3.051,1.173,5.125c0,2.043-0.367,3.768-1.102,5.172c-0.735,1.406-1.708,2.547-2.921,3.426
							c-1.214,0.879-2.603,1.508-4.167,1.891s-3.177,0.576-4.837,0.576c-0.161,0-0.424,0-0.791,0c-0.368,0-0.75-0.008-1.149-0.023
							c-0.399-0.018-0.79-0.041-1.174-0.074c-0.383-0.031-0.654-0.062-0.814-0.096v12.74h-3.975V849.171z M676.135,851.901
							c-0.833,0-1.634,0.018-2.403,0.049c-0.77,0.031-1.379,0.113-1.827,0.24v13.889c0.16,0.064,0.416,0.104,0.769,0.119
							c0.353,0.018,0.722,0.031,1.106,0.049c0.385,0.016,0.753,0.023,1.106,0.023c0.352,0,0.609,0,0.77,0
							c1.089,0,2.17-0.104,3.245-0.311c1.073-0.209,2.042-0.582,2.908-1.125s1.563-1.311,2.092-2.301
							c0.528-0.99,0.793-2.25,0.793-3.783c0-1.309-0.249-2.402-0.746-3.281c-0.497-0.877-1.154-1.58-1.971-2.107
							c-0.817-0.527-1.739-0.902-2.764-1.125C678.186,852.015,677.16,851.901,676.135,851.901z"/>
					</g>
					<g>
						<path fill="#FFD829" d="M694.75,848.837h22.989v3.545h-9.531v26.438h9.531v3.543H694.75v-3.543h9.483v-26.438h-9.483V848.837z
							"/>
					</g>
				</g>
			</g>
		</g>
	</g>
</g>
<g>
	<rect x="1167.589" y="755.5" width="49" height="91.702"/>
</g>
<g>
	<path fill="#FFD829" d="M569.544,509.492c-21.168,0-39.856-10.574-51.104-26.719h102.21
		C609.401,498.918,590.713,509.492,569.544,509.492z"/>
</g>
<g>
	<rect x="551.044" y="398.498" fill="#FFD829" width="37.001" height="63.721"/>
</g>
</svg>
