<?xml version="1.0" encoding="utf-8"?>
<!-- Generator: Adobe Illustrator 16.0.0, SVG Export Plug-In . SVG Version: 6.00 Build 0)  -->
<!DOCTYPE svg PUBLIC "-//W3C//DTD SVG 1.1//EN" "http://www.w3.org/Graphics/SVG/1.1/DTD/svg11.dtd">
<svg version="1.1" id="Layer_1" xmlns="http://www.w3.org/2000/svg" xmlns:xlink="http://www.w3.org/1999/xlink" x="0px" y="0px"
	 width="1080px" height="1080px" viewBox="0 0 1080 1080" enable-background="new 0 0 1080 1080" xml:space="preserve">
<g>
	<rect x="294.957" y="253.612" fill="#FFD829" width="25.555" height="44.011"/>
</g>
<g>
	<circle fill="#FFFFFF" cx="256.015" cy="276.328" r="26.772"/>
</g>
<g>
	<path fill="#FFD829" d="M307.734,330.273c-14.621,0-27.527-7.304-35.299-18.453h70.596
		C335.262,322.971,322.355,330.273,307.734,330.273z"/>
</g>
<g>
	<circle fill="#FFFFFF" cx="360.67" cy="276.328" r="26.772"/>
</g>
<g>
	<g>
		<g>
			<path d="M661.886,464.59c-16.427,0-31.871-6.396-43.487-18.014c-23.979-23.979-23.978-62.994,0.003-86.974
				c11.613-11.614,27.058-18.012,43.484-18.012s31.87,6.397,43.485,18.012c23.979,23.979,23.979,62.995,0.002,86.974
				C693.758,458.192,678.312,464.59,661.886,464.59z M661.886,345.591c-15.358,0-29.798,5.981-40.657,16.84
				c-22.418,22.419-22.42,58.898-0.002,81.316c10.86,10.86,25.302,16.842,40.659,16.842c15.359,0,29.8-5.98,40.659-16.842
				c22.418-22.418,22.417-58.896-0.002-81.316C691.684,351.572,677.244,345.591,661.886,345.591z"/>
		</g>
		<g>
			<g>
				<path d="M637.967,426.209c-1.104,0-2-0.896-2-2V379.17c0-0.53,0.211-1.039,0.586-1.414s0.885-0.586,1.414-0.586l0,0
					l45.037,0.001c1.104,0,2,0.896,2,2c0,1.104-0.896,2-2,2l0,0l-43.037-0.001v43.039
					C639.967,425.312,639.071,426.209,637.967,426.209z"/>
			</g>
			<g>
				<path d="M685.807,429.012c-0.512,0-1.022-0.194-1.414-0.586l-47.84-47.842c-0.781-0.781-0.781-2.047,0-2.828
					s2.047-0.781,2.828,0l47.84,47.842c0.781,0.781,0.781,2.047,0,2.828C686.83,428.816,686.318,429.012,685.807,429.012z"/>
			</g>
		</g>
	</g>
	<g>
		<g>
			<path d="M425.474,779.432c-16.427,0-31.871-6.396-43.487-18.014c-23.979-23.978-23.979-62.994,0-86.973
				c11.615-11.615,27.06-18.013,43.486-18.013c16.429,0,31.871,6.396,43.486,18.013c11.616,11.614,18.014,27.06,18.014,43.486
				c0,16.428-6.396,31.871-18.014,43.486C457.344,773.035,441.9,779.432,425.474,779.432z M425.473,660.434
				c-15.357,0-29.798,5.98-40.658,16.841c-22.418,22.42-22.418,58.896,0,81.315c10.861,10.86,25.301,16.842,40.659,16.842
				c15.358,0,29.798-5.979,40.657-16.841c10.86-10.86,16.842-25.3,16.842-40.658s-5.98-29.799-16.842-40.658
				C455.271,666.414,440.832,660.434,425.473,660.434z"/>
		</g>
		<g>
			<g>
				<path d="M449.395,743.854L449.395,743.854l-45.041-0.002c-1.104,0-2-0.896-2-2c0-1.104,0.896-2,2-2l0,0l43.041,0.002
					l-0.002-43.039c0-1.104,0.896-2,2-2c1.104,0,2,0.896,2,2l0.002,45.039c0,0.53-0.211,1.039-0.586,1.414
					S449.925,743.854,449.395,743.854z"/>
			</g>
			<g>
				<path d="M449.395,743.854c-0.512,0-1.022-0.194-1.414-0.586l-47.842-47.842c-0.78-0.781-0.78-2.047,0-2.828
					c0.781-0.78,2.047-0.78,2.828,0l47.842,47.843c0.781,0.78,0.781,2.047,0,2.827C450.418,743.658,449.906,743.854,449.395,743.854
					z"/>
			</g>
		</g>
	</g>
	<g>
		<g>
			<rect x="645.211" y="914.216" width="33.352" height="64.141"/>
		</g>
		<g id="robo2_1_">
			<g>
				<path fill="#FFFFFF" d="M865.969,882.985v-4c16.534,0,29.986-13.453,29.986-29.988c0-16.534-13.452-29.986-29.986-29.986v-4
					c18.74,0,33.986,15.246,33.986,33.986C899.955,867.738,884.709,882.985,865.969,882.985z"/>
			</g>
			<g>
				<path fill="#FFFFFF" d="M678.562,882.985c-18.741,0-33.988-15.247-33.988-33.988c0-18.74,15.247-33.986,33.988-33.986v4
					c-16.535,0-29.988,13.452-29.988,29.986c0,16.535,13.453,29.988,29.988,29.988V882.985z"/>
			</g>
			<g>
				<rect x="678.562" y="814.068" fill="#FFD829" width="187.405" height="164.287"/>
				<path d="M867.969,980.355H676.562V812.068h191.405L867.969,980.355L867.969,980.355z M680.562,976.355h183.405V816.068H680.562
					V976.355z"/>
			</g>
			<g>
				<path fill="#FFFFFF" d="M681.324,792.158c-0.462,0-0.92-0.16-1.288-0.47l-68.088-57.325c-0.644-0.541-0.88-1.428-0.591-2.216
					c0.287-0.789,1.039-1.314,1.879-1.314h68.088c1.104,0,2,0.896,2,2v57.325c0,0.777-0.451,1.484-1.156,1.812
					C681.898,792.097,681.61,792.158,681.324,792.158z M618.717,734.833l60.607,51.027v-51.027H618.717z"/>
			</g>
			<g>
				<path fill="#FFFFFF" d="M863.445,792.396c-0.286,0-0.574-0.062-0.844-0.187c-0.705-0.328-1.156-1.035-1.156-1.813v-57.325
					c0-1.104,0.896-2,2-2h68.088c0.84,0,1.591,0.524,1.879,1.313s0.052,1.675-0.591,2.216l-68.088,57.326
					C864.366,792.237,863.907,792.396,863.445,792.396z M865.445,735.071v51.026l60.606-51.026H865.445z"/>
			</g>
			<g>
				<path d="M721.617,744.704c-14.787,0-26.773-11.985-26.773-26.771s11.986-26.771,26.773-26.771V744.704z"/>
			</g>
			<g>
				<path d="M825.658,744.704c-14.785,0-26.771-11.985-26.771-26.771s11.986-26.771,26.771-26.771V744.704z"/>
			</g>
			<g>
				<path fill="#FFFFFF" d="M865.969,688.417c0-51.75-41.953-93.703-93.703-93.703c-51.752,0-93.703,41.953-93.703,93.703
					c0,0.916,0.019,1.832,0.043,2.744h-0.043v98.367h187.406v-98.367h-0.043C865.951,690.249,865.969,689.333,865.969,688.417z
					 M721.617,744.704c-14.787,0-26.773-11.985-26.773-26.771s11.986-26.771,26.773-26.771c14.785,0,26.771,11.984,26.771,26.771
					C748.389,732.719,736.402,744.704,721.617,744.704z M783.16,722.599c0,7.168-5.812,12.98-12.98,12.98
					c-7.17,0-12.981-5.812-12.981-12.98v-37.319c0-7.168,5.812-12.979,12.981-12.979c7.168,0,12.98,5.812,12.98,12.979V722.599z
					 M825.658,744.704c-14.785,0-26.771-11.985-26.771-26.771s11.986-26.771,26.771-26.771c14.787,0,26.771,11.984,26.771,26.771
					C852.43,732.719,840.445,744.704,825.658,744.704z"/>
			</g>
			<g>
				<path d="M886.193,802.511c0-7.169-5.812-12.981-12.98-12.981H671.318c-7.17,0-12.982,5.812-12.982,12.981
					c0,7.168,5.812,12.979,12.982,12.979h201.895C880.381,815.489,886.193,809.679,886.193,802.511z"/>
			</g>
			<g>
				<polygon fill="#FFFFFF" points="613.236,732.831 681.324,732.831 681.324,675.505 				"/>
				<path fill="#FFFFFF" d="M681.324,734.831h-68.088c-0.84,0-1.592-0.525-1.879-1.314c-0.289-0.789-0.053-1.675,0.591-2.216
					l68.088-57.326c0.595-0.502,1.429-0.608,2.132-0.282c0.705,0.327,1.156,1.034,1.156,1.812v57.326
					C683.324,733.936,682.429,734.831,681.324,734.831z M618.717,730.831h60.607v-51.027L618.717,730.831z"/>
			</g>
			<g>
				<polygon fill="#FFFFFF" points="931.533,733.069 863.445,733.069 863.445,675.744 				"/>
				<path fill="#FFFFFF" d="M931.553,735.069c-0.005,0-0.013,0-0.02,0h-68.088c-1.104,0-2-0.896-2-2v-57.325
					c0-0.778,0.451-1.485,1.155-1.813c0.706-0.325,1.536-0.217,2.132,0.283l67.926,57.188c0.539,0.357,0.895,0.971,0.895,1.667
					C933.553,734.174,932.658,735.069,931.553,735.069z M865.445,731.069h60.606l-60.606-51.027V731.069z"/>
			</g>
			<g>
				
					<rect x="867.472" y="878.942" transform="matrix(-0.389 -0.9212 0.9212 -0.389 458.1471 2065.74)" fill="#FFFFFF" width="93.257" height="4"/>
			</g>
			<g>
				<g>
					<g>
						<rect x="751.822" y="873.837" width="68.459" height="86.254"/>
					</g>
					<g>
						<rect x="806.896" y="846.568" width="29.133" height="113.521"/>
					</g>
					<g>
						<circle cx="821.463" cy="846.568" r="14.566"/>
					</g>
					<g>
						<circle cx="751.878" cy="888.263" r="14.423"/>
					</g>
					<g>
						<circle cx="751.878" cy="917.108" r="14.423"/>
					</g>
					<g>
						<circle cx="751.878" cy="945.661" r="14.423"/>
					</g>
				</g>
				<g>
					<rect x="825.02" y="896.212" width="77.638" height="63.879"/>
				</g>
				<g>
					<circle cx="902.655" cy="928.151" r="31.938"/>
				</g>
			</g>
			<g>
				<path fill="#FFD829" d="M772.125,754.7c-7.538,0-14.998-1.904-21.574-5.506c-0.969-0.53-1.324-1.746-0.793-2.716
					c0.53-0.969,1.745-1.323,2.715-0.793c5.988,3.28,12.784,5.015,19.652,5.015c7.311,0,14.482-1.949,20.745-5.636
					c0.953-0.561,2.178-0.241,2.737,0.709c0.562,0.951,0.243,2.178-0.709,2.737C788.021,752.561,780.146,754.7,772.125,754.7z"/>
			</g>
		</g>
		<g>
			<path d="M942.625,980.355H601.904c-16.872,0-30.599-13.728-30.599-30.599V589.63c0-16.871,13.727-30.597,30.599-30.597h340.721
				c16.872,0,30.598,13.726,30.598,30.597v360.128C973.223,966.629,959.497,980.355,942.625,980.355z M601.904,563.033
				c-14.666,0-26.599,11.932-26.599,26.597v360.128c0,14.666,11.933,26.599,26.599,26.599h340.721
				c14.666,0,26.598-11.933,26.598-26.599V589.63c0-14.665-11.932-26.597-26.598-26.597H601.904z"/>
		</g>
		<g>
			<g>
				<path d="M772.266,595.333c-1.104,0-2-0.896-2-2v-63.771c0-1.104,0.896-2,2-2c1.104,0,2,0.896,2,2v63.771
					C774.266,594.438,773.37,595.333,772.266,595.333z"/>
			</g>
			<g>
				<ellipse cx="772.266" cy="529.563" rx="20.685" ry="11.213"/>
			</g>
			<g>
				<ellipse cx="772.265" cy="561.032" rx="27.491" ry="11.214"/>
			</g>
		</g>
		<g>
			<rect x="644.574" y="852.401" fill="#FFFFFF" width="4" height="61.813"/>
		</g>
	</g>
	<g>
		<g>
			<path d="M478.094,565.523H137.375c-16.872,0-30.598-13.728-30.598-30.6V174.798c0-16.871,13.726-30.597,30.598-30.597h340.719
				c16.872,0,30.599,13.726,30.599,30.597v360.127C508.691,551.797,494.966,565.523,478.094,565.523z M137.375,148.201
				c-14.666,0-26.598,11.931-26.598,26.597v360.127c0,14.666,11.932,26.6,26.598,26.6h340.719c14.666,0,26.599-11.934,26.599-26.6
				V174.798c0-14.666-11.933-26.597-26.599-26.597H137.375z"/>
		</g>
		<g id="robo1_1_">
			<g>
				<g>
					<path fill="#FFFFFF" d="M183,318.08c-18.325,0-33.234-14.908-33.234-33.233c0-18.326,14.909-33.234,33.234-33.234
						s33.234,14.909,33.234,33.234C216.234,303.172,201.325,318.08,183,318.08z M183,255.612c-16.12,0-29.234,13.114-29.234,29.234
						c0,16.119,13.114,29.233,29.234,29.233s29.234-13.114,29.234-29.233C212.234,268.727,199.12,255.612,183,255.612z"/>
				</g>
				<g>
					<path fill="#FFFFFF" d="M183,302.464c-18.636,0-33.234-7.738-33.234-17.617c0-9.879,14.599-17.618,33.234-17.618
						s33.234,7.739,33.234,17.618C216.234,294.726,201.636,302.464,183,302.464z M183,271.229c-17.487,0-29.234,7.042-29.234,13.618
						c0,6.576,11.747,13.617,29.234,13.617s29.234-7.041,29.234-13.617C212.234,278.27,200.487,271.229,183,271.229z"/>
				</g>
				<g>
					<rect x="151.766" y="282.847" fill="#FFFFFF" width="62.469" height="4"/>
				</g>
			</g>
			<g>
				<g>
					<path fill="#FFFFFF" d="M432.469,318.08c-18.325,0-33.233-14.908-33.233-33.233c0-18.326,14.908-33.234,33.233-33.234
						s33.234,14.909,33.234,33.234C465.703,303.172,450.794,318.08,432.469,318.08z M432.469,255.612
						c-16.12,0-29.233,13.114-29.233,29.234c0,16.119,13.113,29.233,29.233,29.233s29.234-13.114,29.234-29.233
						C461.703,268.727,448.589,255.612,432.469,255.612z"/>
				</g>
				<g>
					<path fill="#FFFFFF" d="M432.469,302.464c-18.636,0-33.233-7.738-33.233-17.617c0-9.879,14.599-17.618,33.233-17.618
						s33.234,7.739,33.234,17.618C465.703,294.726,451.104,302.464,432.469,302.464z M432.469,271.229
						c-17.486,0-29.233,7.042-29.233,13.618c0,6.576,11.747,13.617,29.233,13.617c17.487,0,29.234-7.041,29.234-13.617
						C461.703,278.27,449.956,271.229,432.469,271.229z"/>
				</g>
				<g>
					<rect x="401.234" y="282.847" fill="#FFFFFF" width="62.469" height="4"/>
				</g>
			</g>
			<g>
				<rect x="250.539" y="343.867" width="110.131" height="45.026"/>
			</g>
			<g>
				<path d="M183,562.142V405.121c0-16.691,12.803-30.222,28.598-30.222h192.273c15.795,0,28.598,13.529,28.598,30.222v157.021H183
					L183,562.142z"/>
			</g>
			<g>
				<path fill="#FFD829" d="M256.014,249.556c14.787,0,26.773,11.985,26.773,26.772S270.801,303.1,256.014,303.1V249.556z"/>
			</g>
			<g>
				<path fill="#FFD829" d="M360.67,249.556c14.787,0,26.773,11.985,26.773,26.772S375.457,303.1,360.67,303.1V249.556z"/>
			</g>
			<g>
				<rect x="168.801" y="403.091" width="14.199" height="73.421"/>
			</g>
			<g>
				<rect x="432.469" y="403.091" width="14.199" height="73.421"/>
			</g>
			<g>
				<path d="M183,212.438v144.816h249.469V212.438H183z M294.957,253.612h25.555v44.011h-25.555V253.612z M229.242,276.328
					c0-14.787,11.986-26.772,26.771-26.772c14.787,0,26.773,11.985,26.773,26.772S270.801,303.1,256.014,303.1
					C241.229,303.1,229.242,291.115,229.242,276.328z M307.734,330.273c-14.621,0-27.527-7.304-35.299-18.453h70.596
					C335.262,322.971,322.355,330.273,307.734,330.273z M360.67,303.1c-14.785,0-26.771-11.984-26.771-26.771
					s11.986-26.772,26.771-26.772c14.787,0,26.773,11.985,26.773,26.772S375.457,303.1,360.67,303.1z"/>
			</g>
			<g>
				<circle fill="#FFFFFF" cx="252.364" cy="119.141" r="13.386"/>
			</g>
			<g>
				<circle fill="#FFFFFF" cx="360.67" cy="119.141" r="13.387"/>
			</g>
			<g>
				<rect x="358.67" y="132.527" fill="#FFFFFF" width="4" height="79.91"/>
			</g>
			<g>
				<rect x="250.365" y="132.527" fill="#FFFFFF" width="4" height="79.91"/>
			</g>
		</g>
		<g>
			<g>
				<polygon fill="#FFFFFF" points="418.535,601.046 354.936,601.046 333.004,576.098 354.936,551.151 418.535,551.151 				"/>
			</g>
			<g>
				<circle fill="#FFFFFF" cx="348.096" cy="576.098" r="3.65"/>
			</g>
		</g>
		<g id="diamond_1_">
			<g>
				<path fill="#FFD829" d="M304.547,549.906c-0.614,0-1.194-0.282-1.574-0.767l-85.609-109.182
					c-0.682-0.869-0.529-2.126,0.34-2.808c0.87-0.682,2.127-0.53,2.809,0.34l84.035,107.174l84.037-107.174
					c0.682-0.871,1.939-1.021,2.809-0.34c0.869,0.682,1.021,1.938,0.34,2.808L306.123,549.14
					C305.741,549.624,305.161,549.906,304.547,549.906z"/>
			</g>
			<g>
				<g>
					<path fill="#FFD829" d="M275.93,440.727L275.93,440.727c-0.715,0-1.375-0.381-1.732-1l-28.535-49.426
						c-0.356-0.619-0.356-1.381,0-2c0.357-0.619,1.018-1,1.732-1h57.072c0.715,0,1.375,0.381,1.732,1c0.355,0.619,0.355,1.381,0,2
						l-28.537,49.426C277.305,440.345,276.645,440.727,275.93,440.727z M250.858,391.301l25.071,43.426l25.073-43.426H250.858z"/>
				</g>
				<g>
					<path fill="#FFD829" d="M333.004,440.727c-0.715,0-1.375-0.381-1.732-1l-28.537-49.426c-0.356-0.619-0.356-1.381,0-2
						c0.357-0.619,1.018-1,1.732-1h57.074c0.715,0,1.375,0.381,1.732,1c0.356,0.619,0.356,1.381,0,2l-28.537,49.426
						C334.379,440.345,333.719,440.727,333.004,440.727z M307.931,391.301l25.073,43.426l25.073-43.426H307.931z"/>
				</g>
				<g>
					<path fill="#FFD829" d="M333.023,440.725c-0.005,0-0.012,0.001-0.02,0H275.93c-0.715,0-1.375-0.381-1.732-1
						c-0.356-0.618-0.356-1.381,0-2l28.537-49.426c0.357-0.619,1.018-1,1.732-1c0.714,0,1.375,0.381,1.732,1l28.41,49.207
						c0.26,0.337,0.414,0.76,0.414,1.219C335.023,439.829,334.129,440.725,333.023,440.725z M279.394,436.725h50.146l-25.073-43.426
						L279.394,436.725z"/>
				</g>
				<g>
					<path fill="#FFD829" d="M275.949,440.725c-0.004,0-0.012,0.001-0.02,0h-57.072c-0.715,0-1.375-0.381-1.732-1
						c-0.356-0.618-0.356-1.381,0-2l28.537-49.426c0.357-0.619,1.018-1,1.732-1l0,0c0.715,0,1.375,0.381,1.732,1l28.408,49.207
						c0.26,0.337,0.414,0.76,0.414,1.219C277.949,439.829,277.055,440.725,275.949,440.725z M222.321,436.725h50.145l-25.071-43.426
						L222.321,436.725z"/>
				</g>
				<g>
					<path fill="#FFD829" d="M390.098,440.725c-0.005,0-0.012,0.001-0.02,0h-57.074c-0.715,0-1.375-0.381-1.732-1
						c-0.356-0.618-0.356-1.381,0-2l28.537-49.426c0.357-0.619,1.018-1,1.732-1s1.375,0.381,1.732,1l28.41,49.207
						c0.26,0.337,0.414,0.76,0.414,1.219C392.098,439.829,391.203,440.725,390.098,440.725z M336.468,436.725h50.146l-25.073-43.426
						L336.468,436.725z"/>
				</g>
			</g>
			<g>
				<path fill="#FFD829" d="M304.546,549.907c-0.888,0-1.698-0.597-1.934-1.494l-28.617-109.179
					c-0.28-1.069,0.359-2.162,1.428-2.442c1.072-0.278,2.162,0.36,2.441,1.427l28.617,109.181c0.28,1.067-0.359,2.16-1.428,2.44
					C304.884,549.886,304.713,549.907,304.546,549.907z"/>
			</g>
			<g>
				
					<path fill="none" stroke="#FFD829" stroke-width="4" stroke-linecap="round" stroke-linejoin="round" stroke-miterlimit="10" d="
					M333.004,576.098"/>
			</g>
			<g>
				<path fill="#FFFFFF" d="M332.854,578.098c-10.644,0.001-18.701-3.018-23.954-8.971c-7.848-8.894-6.402-20.966-6.337-21.476
					c0.14-1.096,1.139-1.877,2.238-1.729c1.094,0.141,1.868,1.141,1.729,2.234l0,0c-0.014,0.106-1.261,10.838,5.392,18.35
					c4.462,5.037,11.504,7.591,20.932,7.591c0.051,0,0.095-0.003,0.149,0c1.103,0,1.997,0.893,2,1.994
					c0.003,1.104-0.89,2.003-1.994,2.006C332.958,578.098,332.905,578.098,332.854,578.098z"/>
			</g>
			<g>
				<path fill="#FFD829" d="M304.548,549.906c-0.167,0-0.336-0.021-0.506-0.064c-1.068-0.277-1.709-1.371-1.431-2.439l28.457-109.18
					c0.278-1.068,1.366-1.709,2.44-1.431c1.068,0.279,1.709,1.371,1.431,2.44l-28.457,109.18
					C306.248,549.311,305.437,549.906,304.548,549.906z"/>
			</g>
		</g>
		<g>
			<g>
				<path fill="#FFD829" d="M366.789,581.391h-8.877l-2.105,6.417h-2.746l7.74-23.153h3.242l7.807,23.153h-2.879L366.789,581.391z
					 M358.768,579.008h7.26l-3.406-10.883h-0.396L358.768,579.008z"/>
			</g>
			<g>
				<path fill="#FFD829" d="M375.688,564.884c0.838-0.198,1.742-0.331,2.711-0.396c0.973-0.065,1.932-0.101,2.879-0.101
					c1.016,0,2.045,0.101,3.094,0.299c1.047,0.198,2,0.562,2.861,1.093c0.859,0.528,1.559,1.256,2.1,2.183s0.811,2.106,0.811,3.539
					c0,1.412-0.254,2.604-0.76,3.573c-0.51,0.971-1.182,1.758-2.02,2.364c-0.838,0.608-1.797,1.043-2.877,1.308
					c-1.08,0.264-2.193,0.396-3.342,0.396c-0.109,0-0.291,0-0.545,0c-0.254,0-0.518-0.005-0.795-0.016
					c-0.275-0.011-0.547-0.028-0.811-0.051c-0.264-0.021-0.451-0.043-0.562-0.066v8.8h-2.744V564.884L375.688,564.884z
					 M381.354,566.77c-0.576,0-1.129,0.013-1.658,0.033c-0.533,0.021-0.953,0.077-1.264,0.165v9.593
					c0.111,0.046,0.287,0.072,0.531,0.084c0.244,0.011,0.498,0.021,0.764,0.031c0.266,0.014,0.521,0.018,0.764,0.018
					c0.244,0,0.42,0,0.533,0c0.752,0,1.498-0.07,2.24-0.214c0.742-0.146,1.41-0.401,2.008-0.777s1.08-0.904,1.445-1.589
					c0.365-0.685,0.549-1.555,0.549-2.613c0-0.903-0.172-1.657-0.516-2.265c-0.344-0.608-0.797-1.092-1.361-1.456
					s-1.201-0.624-1.91-0.778C382.771,566.848,382.062,566.77,381.354,566.77z"/>
			</g>
			<g>
				<path fill="#FFD829" d="M394.211,564.653h15.877v2.445h-6.58v18.261h6.58v2.447h-15.877v-2.447h6.549V567.1h-6.549V564.653z"/>
			</g>
		</g>
		<g>
			<g>
				<path fill="#FFFFFF" d="M237.385,552.776c-1.863,0-3.736-0.112-5.613-0.339c-12.201-1.477-23.096-7.613-30.68-17.283
					c-15.656-19.959-12.154-48.937,7.807-64.594l20.592-16.148l20.033,25.543l-20.59,16.148c-5.877,4.609-6.908,13.142-2.299,19.018
					c2.232,2.848,5.439,4.654,9.031,5.089c3.594,0.431,7.139-0.557,9.984-2.789l20.592-16.149l20.033,25.543l-20.592,16.149
					C257.504,549.38,247.621,552.776,237.385,552.776z"/>
			</g>
		</g>
		<g>
			<g>
				<rect x="136.225" y="417.732" fill="#FFFFFF" width="32.463" height="143.853"/>
			</g>
		</g>
		<g>
			<g>
				<polygon fill="#FFFFFF" points="195.199,561.585 141.004,561.585 201.471,517 220.486,543.311 				"/>
			</g>
		</g>
		<g>
			<g>
				<rect x="446.592" y="417.732" fill="#FFFFFF" width="32.463" height="143.769"/>
			</g>
		</g>
		<g>
			<g>
				<polygon points="279.041,119.141 306.209,101.645 306.209,119.141 				"/>
			</g>
			<g>
				<polygon points="333.375,119.141 306.209,136.639 306.209,119.141 				"/>
			</g>
		</g>
	</g>
</g>
</svg>
