<svg xmlns="http://www.w3.org/2000/svg" viewBox="0 0 1920 1080" xml:space="preserve"><path fill="#2E9AFF" d="m685.32 336.02 78.6-127.84c19.76-32.37 9.06-73.83-22.8-94.39-32.65-21.07-49.45-38.25-69.22-5.9l-91.82 139.73-6.53 9.55-86.58 141.69"/><path d="M486.97 401.36a2.5 2.5 0 0 1-2.13-3.8l86.58-141.7.07-.1 6.53-9.55 44.3-67.43 47.49-72.26c6.72-11 13.43-16.93 21.06-18.6 11.99-2.64 24.14 5.48 40.94 16.72 3.4 2.28 6.92 4.63 10.67 7.05 33.5 21.61 43.86 64.57 23.58 97.79l-78.61 127.85-4.26-2.62 78.6-127.84c18.85-30.88 9.18-70.85-22.02-90.98-3.8-2.44-7.32-4.8-10.74-7.1-15.78-10.55-27.18-18.17-37.09-16-6.21 1.37-11.9 6.58-17.9 16.4l-47.53 72.33L582.18 249l-6.53 9.54-86.54 141.63a2.5 2.5 0 0 1-2.14 1.2z"/><path fill="#2E9AFF" d="M677.96 102.88c24.36 16.77 28.74 46.2 12.99 69.47-15.83 23.4-46.2 30.94-68.78 16.25"/><path d="M647.75 198.7a49.14 49.14 0 0 1-26.94-8 2.5 2.5 0 1 1 2.72-4.2c21.35 13.9 50.05 7.06 65.35-15.55 15.39-22.74 10.2-50.5-12.34-66.01a2.5 2.5 0 0 1 2.83-4.12c24.9 17.13 30.65 47.8 13.65 72.93-10.92 16.14-28.1 24.95-45.27 24.95z"/><path fill="#FFF" d="m639.13 162.38-15.8 24.07c9.34 6.01 22.9 9.4 35.46 5.76-.56-10.2-9.33-23.87-19.65-29.83zm231.82 146.96a22.34 22.34 0 0 0-21.92 22.77 22.35 22.35 0 1 0-44.68.85c.48 25.18 42.34 54.08 45.73 54.01 3.33-.06 44.12-30.54 43.64-55.72a22.35 22.35 0 0 0-22.77-21.91z"/><path fill="#2E9AFF" d="m702.27 332.38 91.31-119.1c22.98-30.17 16.6-72.51-13-96.23-30.3-24.3-45.25-43.12-68.24-12.97L606.67 233.65l-7.48 8.83-100.66 132.05"/><path d="M498.53 377.03a2.5 2.5 0 0 1-1.99-4.01L597.2 240.96l.08-.1 7.48-8.83 57.87-70.96 47.77-58.57c7.81-10.25 15.09-15.46 22.86-16.35 12.2-1.38 23.44 7.94 39 20.84 3.15 2.62 6.4 5.32 9.9 8.1 31.1 24.95 37 68.74 13.41 99.7l-91.31 119.1a2.5 2.5 0 0 1-3.97-3.03l91.3-119.1c21.93-28.79 16.4-69.53-12.57-92.76a803.17 803.17 0 0 1-9.95-8.16c-14.6-12.11-25.16-20.87-35.25-19.72-6.32.72-12.52 5.32-19.5 14.47l-47.82 58.64-57.9 71-7.47 8.81-100.61 132a2.5 2.5 0 0 1-2 1z"/><path fill="#2E9AFF" d="M719.1 99.96c22.53 19.18 23.86 48.9 5.8 70.44-18.14 21.64-49.12 26.04-70.08 9.1"/><path d="M684.43 192.44a49.27 49.27 0 0 1-31.18-11 2.5 2.5 0 1 1 3.14-3.88c19.8 16 49.06 12.16 66.6-8.77 17.64-21.04 15.32-49.19-5.5-66.93a2.5 2.5 0 0 1 3.24-3.8c23.02 19.6 25.58 50.7 6.1 73.94-11.26 13.43-26.94 20.44-42.4 20.44z"/><path fill="#FFF" d="m674.16 154.98-18.2 22.32c8.68 6.94 21.65 11.84 34.56 9.72.5-10.2-6.7-25.05-16.36-32.04z"/><path fill="#2E9AFF" d="m262.12 636.59 40.7-45.45 189.07-230.16c97.6-132.24 195.9-152.28 195.9-152.28l128.98-42.57c37.72-12.92 47.5 15.53 59.13 51.62a68.68 68.68 0 0 1-44.3 86.42c-2.06.66-124.3 44.86-124.3 44.86-76.61 30.07-68.06 85.35-68.06 85.35 1.89 16.7 22.9 37.9 42.87 50.85l111.03-74.43 14.52-9.33.08-.05c31.52-21.07 73.86-12.37 95.23 18.93 25.98 38.02 45.72 50.8 14.18 71.86-1.8 1.21-36.75 25.65-38.6 26.66L615.33 695.01a195.3 195.3 0 0 1-11.32 8.23c-39.22 26.2-72.2 47.21-115.7 42.69l-44 48.44"/><path d="M444.31 796.87a2.5 2.5 0 0 1-1.85-4.18l44-48.44a2.5 2.5 0 0 1 2.12-.8c43.91 4.56 77.98-18.2 114.05-42.29 3.44-2.3 6.99-4.88 11.17-8.12l.15-.1 263.2-176.15.2-.11c1.48-.85 21.2-14.58 30.67-21.17l7.74-5.38c9.23-6.16 13.97-11.6 14.93-17.12 1.48-8.56-5.73-18.29-16.65-33.01-3.97-5.35-8.46-11.4-13.13-18.24a66.9 66.9 0 0 0-42.24-28.06 65.37 65.37 0 0 0-49.54 9.8l-.14.08-14.5 9.33-110.99 74.4a2.5 2.5 0 0 1-2.75.02c-19.76-12.82-41.94-34.75-44-52.62-.16-1.14-1.98-15.06 5.48-32.7 6.98-16.48 23.77-39.45 64.15-55.3 5.05-1.84 122.38-44.26 124.47-44.92a66.26 66.26 0 0 0 42.67-83.27c-7.18-22.27-13.96-43.32-28.1-50.4-7.3-3.66-16.41-3.54-27.84.38l-65.8 21.72-63.2 20.85-.29.08c-.24.05-24.78 5.24-60.83 26.4-33.29 19.54-83.48 57.07-133.56 124.92a1.9 1.9 0 0 1-.08.1L304.75 592.73l-.07.08-40.7 45.44a2.5 2.5 0 1 1-3.73-3.33l40.67-45.4 189-230.07c50.66-68.62 101.52-106.59 135.26-126.35 35.68-20.9 59.7-26.34 61.97-26.82l63.06-20.81 65.77-21.7c12.74-4.37 23.12-4.41 31.69-.12 16 8.02 23.1 30.04 30.6 53.34 12.03 37.34-8.56 77.52-45.9 89.56a60583 60583 0 0 0-124.23 44.83c-30.48 11.97-51.66 30.07-61.18 52.3-7.18 16.77-5.27 30.2-5.25 30.33 1.73 15.27 21.39 35.54 40.39 48.22l109.65-73.5 14.56-9.36.07-.05a70.33 70.33 0 0 1 53.28-10.52 71.86 71.86 0 0 1 45.38 30.14c4.61 6.76 9.08 12.77 13.01 18.08 11.7 15.76 19.42 26.18 17.56 36.85-1.22 7.06-6.49 13.36-17.07 20.42l-7.66 5.32c-18.24 12.7-29.25 20.33-31 21.38L616.8 697.04a194.3 194.3 0 0 1-11.4 8.28c-36.5 24.38-70.98 47.42-116.07 43.22l-43.17 47.52c-.5.53-1.17.81-1.85.81z"/><path fill="#2E9AFF" d="M919.07 487.27c-17.08-24.15-46.57-28.14-69.63-12.1-23.19 16.13-30.35 46.6-15.36 69"/><path d="M834.08 546.66c-.8 0-1.6-.39-2.08-1.1-15.7-23.46-8.66-55.27 16-72.44 24.9-17.32 55.65-11.98 73.11 12.7a2.5 2.5 0 1 1-4.08 2.89c-15.8-22.33-43.63-27.16-66.17-11.48-22.41 15.59-28.87 44.38-14.7 65.54a2.5 2.5 0 0 1-2.08 3.9z"/><path fill="#FFF" d="m860.57 527.27-23.86 16.12c-6.13-9.26-9.68-22.77-6.22-35.38 10.2.43 24 9.02 30.08 19.26z"/><path fill="#2E9AFF" d="M828.32 166.16c8.36 28.38-6.8 53.98-33.68 62.14-27.03 8.19-55.38-5.08-63.65-30.72"/><path d="M778.29 233.25c-22.55 0-42.74-13.4-49.68-34.9a2.5 2.5 0 1 1 4.76-1.54c7.82 24.23 34.41 37.01 60.54 29.1 26.28-7.97 39.74-32.8 32.01-59.04a2.5 2.5 0 1 1 4.8-1.41c8.54 29-6.33 56.43-35.36 65.23a58.89 58.89 0 0 1-17.07 2.56z"/><path fill="#FFF" d="m760.17 187.5-27.44 8.72c3.46 10.56 11.77 21.94 23.82 27.03 5.99-8.26 7.88-24.63 3.62-35.76zM512.43 758.45 304.56 573.23c-4.33-3.85-10.85-3.6-14.56.56l-85.39 73.3 125.93 112.2 49.57-13.8-6.69 52 74.15 66.07 65.99-90.59c3.7-4.16 3.2-10.66-1.13-14.52z"/><path fill="#FFF" d="M47.37 772.31a2.5 2.5 0 0 1-1.51-4.49l162.58-123.63a2.5 2.5 0 1 1 3.03 3.98L48.88 771.8a2.5 2.5 0 0 1-1.5.51zm284.53 259.18a2.5 2.5 0 0 1-2.06-3.9l141.66-208.6a2.5 2.5 0 0 1 4.13 2.81l-141.67 208.6a2.5 2.5 0 0 1-2.07 1.1z"/><path fill="#808184" d="m5.08 7.3 406.21 297.98"/><path fill="#2E9AFF" d="M411.3 307.78a2.5 2.5 0 0 1-1.49-.49L3.61 9.32a2.5 2.5 0 1 1 2.95-4.03l406.21 297.97a2.5 2.5 0 0 1-1.48 4.52z"/><path fill="#808184" d="m378 346.03-215.5-72.25"/><path fill="#2E9AFF" d="M378 348.53c-.26 0-.53-.04-.8-.13l-215.5-72.25a2.5 2.5 0 1 1 1.59-4.74l215.5 72.25a2.5 2.5 0 0 1-.79 4.87z"/><path fill="#808184" d="m338.91 393.88-122.67-5.53"/><path fill="#2E9AFF" d="M338.92 396.38h-.12l-122.67-5.54a2.5 2.5 0 1 1 .23-4.99l122.67 5.53a2.5 2.5 0 0 1-.11 5z"/><path fill="#808184" d="M445.56 263.33 278.01 30.52"/><path fill="#2E9AFF" d="M445.57 265.83a2.5 2.5 0 0 1-2.04-1.04L275.98 31.98a2.5 2.5 0 1 1 4.06-2.92l167.55 232.8a2.5 2.5 0 0 1-2.02 3.97z"/><path fill="#808184" d="M485.01 215.04 444.63 95.86"/><path fill="#2E9AFF" d="M485 217.54a2.5 2.5 0 0 1-2.36-1.7L442.27 96.66a2.5 2.5 0 1 1 4.73-1.6l40.38 119.18a2.5 2.5 0 0 1-2.37 3.3z"/><path d="M1100.31 1037.29a42.12 42.12 0 0 1-42.07-42.07V129.7h5v865.52a37.11 37.11 0 0 0 37.07 37.07v5z"/><path fill="#2E9AFF" d="M1133.09 390.1a24.53 24.53 0 0 1-24.5-24.5v-92.85c0-13.51 11-24.5 24.5-24.5h672.25c13.5 0 24.5 10.99 24.5 24.5v92.84c0 13.52-11 24.5-24.5 24.5h-672.25z"/><path d="M1805.34 250.75c12.13 0 22 9.87 22 22v92.85c0 12.13-9.87 22-22 22h-672.25c-12.13 0-22-9.87-22-22v-92.85c0-12.13 9.87-22 22-22h672.25m0-5h-672.25c-14.85 0-27 12.15-27 27v92.85c0 14.85 12.15 27 27 27h672.25c14.85 0 27-12.15 27-27v-92.85c0-14.85-12.15-27-27-27z"/><path d="M1201.76 284.21a20.23 20.23 0 0 0-20.24 20.23 20.23 20.23 0 1 0-40.47 0c0 22.8 37.4 49.7 40.47 49.7 3.02 0 40.47-26.9 40.47-49.7a20.23 20.23 0 0 0-20.23-20.23zm534.89 21.27H1269.8a2.5 2.5 0 1 1 0-5h466.84a2.5 2.5 0 1 1 0 5zm-143.82 32.39h-323.02a2.5 2.5 0 1 1 0-5h323.02a2.5 2.5 0 1 1 0 5z"/><path fill="#2E9AFF" d="M1133.09 571.52a24.53 24.53 0 0 1-24.5-24.5v-92.85c0-13.5 11-24.5 24.5-24.5h672.25c13.5 0 24.5 11 24.5 24.5v92.85c0 13.5-11 24.5-24.5 24.5h-672.25z"/><path d="M1805.34 432.17c12.13 0 22 9.87 22 22v92.85c0 12.13-9.87 22-22 22h-672.25c-12.13 0-22-9.87-22-22v-92.85c0-12.13 9.87-22 22-22h672.25m0-5h-672.25c-14.85 0-27 12.15-27 27v92.85c0 14.85 12.15 27 27 27h672.25c14.85 0 27-12.15 27-27v-92.85c0-14.85-12.15-27-27-27z"/><path d="M1477.79 486.9H1269.8a2.5 2.5 0 1 1 0-5h207.98a2.5 2.5 0 1 1 0 5zm258.86 0h-207.98a2.5 2.5 0 1 1 0-5h207.98a2.5 2.5 0 1 1 0 5zm-35.41 32.39h-431.43a2.5 2.5 0 1 1 0-5h431.43a2.5 2.5 0 1 1 0 5z"/><path fill="#2E9AFF" d="M1133.09 752.94a24.53 24.53 0 0 1-24.5-24.5V635.6c0-13.51 11-24.5 24.5-24.5h672.25c13.5 0 24.5 10.99 24.5 24.5v92.84c0 13.51-11 24.5-24.5 24.5h-672.25z"/><path d="M1805.34 613.6c12.13 0 22 9.87 22 22v92.84c0 12.13-9.87 22-22 22h-672.25c-12.13 0-22-9.87-22-22V635.6c0-12.13 9.87-22 22-22h672.25m0-5h-672.25c-14.85 0-27 12.15-27 27v92.84c0 14.85 12.15 27 27 27h672.25c14.85 0 27-12.15 27-27V635.6c0-14.85-12.15-27-27-27z"/><path d="M1201.76 647.06a20.23 20.23 0 0 0-20.24 20.23 20.23 20.23 0 1 0-40.47 0c0 22.8 37.4 49.7 40.47 49.7 3.02 0 40.47-26.9 40.47-49.7a20.23 20.23 0 0 0-20.23-20.23zm534.89 21.27H1269.8a2.5 2.5 0 1 1 0-5h466.84a2.5 2.5 0 1 1 0 5zm-66.38 32.38h-400.46a2.5 2.5 0 1 1 0-5h400.46a2.5 2.5 0 1 1 0 5z"/><path fill="#2E9AFF" d="M1133.09 934.36a24.53 24.53 0 0 1-24.5-24.5v-92.84c0-13.51 11-24.5 24.5-24.5h672.25c13.5 0 24.5 10.99 24.5 24.5v92.84c0 13.51-11 24.5-24.5 24.5h-672.25z"/><path d="M1805.34 795.02c12.13 0 22 9.87 22 22v92.84c0 12.13-9.87 22-22 22h-672.25c-12.13 0-22-9.87-22-22v-92.84c0-12.13 9.87-22 22-22h672.25m0-5h-672.25c-14.85 0-27 12.15-27 27v92.84c0 14.85 12.15 27 27 27h672.25c14.85 0 27-12.15 27-27v-92.84c0-14.85-12.15-27-27-27z"/><path d="M1201.76 828.48a20.23 20.23 0 0 0-20.24 20.23 20.23 20.23 0 1 0-40.47 0c0 22.8 37.4 49.7 40.47 49.7 3.02 0 40.47-26.9 40.47-49.7a20.23 20.23 0 0 0-20.23-20.23zm534.89 21.27H1269.8a2.5 2.5 0 1 1 0-5h466.84a2.5 2.5 0 1 1 0 5zm-143.82 32.38h-323.02a2.5 2.5 0 1 1 0-5h323.02a2.5 2.5 0 1 1 0 5z"/><path d="M1879.18 129.83v862.45a39.57 39.57 0 0 1-39.57 39.58l-739.64.48v7.62a39.57 39.57 0 0 0 39.57 39.57h740.8a39.57 39.57 0 0 0 39.57-39.57V197.37h.09v-22.94c0-23.4-17.94-42.6-40.82-44.6z"/><path fill="#FFF" d="M1469.95 1003.54h-1.48a2.5 2.5 0 0 1-1.31-.38l-54.58-33.92a2.5 2.5 0 1 1 2.64-4.25l53.97 33.55h.05l53.97-33.55a2.5 2.5 0 1 1 2.63 4.25l-54.57 33.92c-.4.25-.85.38-1.32.38zm364.53-941.85H1102.9a44.79 44.79 0 0 0-44.79 44.78v23.17h821.16v-23.17a44.79 44.79 0 0 0-44.79-44.78zm-639.07 55a19.18 19.18 0 1 1 0-38.36 19.18 19.18 0 0 1 0 38.35zm-74.61 65.81a45.11 45.11 0 0 1 5.63-.58c.6-.03 1.17-.04 1.68-.04 1.2 0 2.37.12 3.53.35 1.16.23 2.2.63 3.1 1.19s1.65 1.31 2.2 2.26c.55.95.82 2.14.82 3.55 0 1.05-.1 1.96-.3 2.73-.22.76-.5 1.44-.87 2.02-.36.59-.8 1.1-1.33 1.52-.52.43-1.1.81-1.7 1.15l6.18 11.2h-5.78l-5.15-10.03h-3v10.02h-5.01V182.5zm7.68 3.84c-.51 0-1.02.01-1.52.04-.5.02-.88.07-1.15.14v7.43h1.97c1.4 0 2.52-.32 3.4-.95.88-.64 1.32-1.69 1.32-3.15 0-1.1-.34-1.95-1.02-2.58-.69-.62-1.69-.93-3-.93zM1160 205.9c-.32.3-.73.58-1.23.86s-1.08.55-1.75.79a13.65 13.65 0 0 1-4.78.8c-1.56 0-2.95-.21-4.18-.65a8.39 8.39 0 0 1-3.13-1.92 8.39 8.39 0 0 1-1.96-3.04 11.27 11.27 0 0 1-.67-4.04c0-1.6.25-3.02.77-4.22a8.42 8.42 0 0 1 5.23-4.83 12.05 12.05 0 0 1 6.74-.24c.99.25 1.9.67 2.73 1.26.83.6 1.5 1.4 2.03 2.4.52 1 .78 2.27.78 3.8 0 1.05-.12 2.18-.36 3.4h-13.17a3.89 3.89 0 0 0 1.7 3.3c.5.34 1.07.58 1.72.74.65.16 1.34.24 2.07.24 1.46 0 2.66-.17 3.6-.51s1.7-.76 2.28-1.24l1.58 3.1zm-7.9-13.05c-.64 0-1.23.09-1.8.26a5 5 0 0 0-1.51.76c-.45.34-.82.76-1.11 1.25a3.8 3.8 0 0 0-.52 1.68h9c0-1.22-.34-2.18-1-2.89-.68-.7-1.7-1.06-3.06-1.06zm13.6-2.05a19.17 19.17 0 0 1 7.94-1.61 9.9 9.9 0 0 1 3.23.46 4.95 4.95 0 0 1 3.35 3.31c.24.78.36 1.66.36 2.63 0 1.25-.04 2.3-.12 3.18a24.25 24.25 0 0 0-.06 4.06c.05.34.09.67.1.99h2.39v4.02h-6.14l-.48-2.48h-.18c-.49.75-1.18 1.4-2.08 1.95s-2.1.82-3.63.82c-1.82 0-3.26-.48-4.32-1.46s-1.6-2.27-1.6-3.87c0-1.03.18-1.91.56-2.66.37-.74.92-1.35 1.63-1.82a7.73 7.73 0 0 1 2.58-1.06 15.06 15.06 0 0 1 4.75-.28l1.78.15c.04-.25.07-.49.07-.73v-.7c0-.93-.27-1.59-.8-2a3.9 3.9 0 0 0-2.36-.6c-1.23 0-2.35.16-3.34.48-1 .32-1.83.63-2.5.95l-1.13-3.73zm6.22 13.42c1.16 0 2.03-.21 2.6-.64.59-.42 1-.88 1.28-1.37v-2.2a16.04 16.04 0 0 0-2.64-.25c-.46 0-.92.04-1.38.13-.46.08-.87.22-1.23.4-.36.18-.65.42-.87.71-.21.3-.32.65-.32 1.06 0 .69.2 1.22.6 1.6.4.37 1.05.56 1.96.56zm27.13-1.42c0-.49-.3-.88-.9-1.17-.6-.3-1.33-.56-2.2-.8-.89-.25-1.85-.5-2.9-.76-1.04-.25-2-.6-2.88-1.06a7.23 7.23 0 0 1-2.22-1.72c-.6-.7-.9-1.59-.9-2.69 0-.9.2-1.69.61-2.37s.95-1.26 1.65-1.74c.69-.47 1.52-.83 2.48-1.08s2-.36 3.13-.36a15.39 15.39 0 0 1 5.5.88 8.1 8.1 0 0 1 1.72.82c.48.3.89.58 1.23.82l-2.01 3.25a16.46 16.46 0 0 0-4.41-1.79 8.15 8.15 0 0 0-4.19.22c-.63.27-.95.68-.95 1.24 0 .44.3.8.9 1.06.6.27 1.33.52 2.21.75.88.24 1.84.48 2.89.75s2.01.62 2.89 1.05 1.61.98 2.21 1.66.9 1.56.9 2.63c0 1.86-.68 3.31-2.03 4.37-1.36 1.06-3.36 1.6-6.02 1.6-2.1 0-3.9-.32-5.43-.94a12.61 12.61 0 0 1-3.68-2.18l2.2-3.43a11.02 11.02 0 0 0 3.03 1.79 15 15 0 0 0 2.1.68c.75.18 1.49.27 2.22.27a4.6 4.6 0 0 0 2.01-.4c.56-.27.84-.72.84-1.35zm8.52-4.1c0-1.53.23-2.9.7-4.1s1.12-2.2 1.97-3.03a8.44 8.44 0 0 1 3.05-1.88c1.19-.43 2.5-.64 3.97-.64 1.54 0 2.9.23 4.11.7s2.23 1.1 3.06 1.95c.83.84 1.46 1.86 1.88 3.05s.64 2.51.64 3.95c0 1.53-.23 2.9-.7 4.1a8.42 8.42 0 0 1-1.97 3.03 8.44 8.44 0 0 1-3.05 1.88c-1.18.43-2.5.64-3.97.64-1.53 0-2.9-.23-4.11-.69s-2.23-1.11-3.06-1.96a8.2 8.2 0 0 1-1.88-3.05 11.6 11.6 0 0 1-.64-3.95zm4.9 0c0 .8.11 1.55.33 2.23.22.68.54 1.28.95 1.8a4.29 4.29 0 0 0 3.51 1.6c1.41 0 2.57-.45 3.46-1.35.89-.9 1.33-2.33 1.33-4.28 0-1.68-.41-3.04-1.24-4.08a4.28 4.28 0 0 0-3.55-1.55c-.68 0-1.32.1-1.9.31s-1.1.54-1.52 1a4.91 4.91 0 0 0-1 1.76 7.7 7.7 0 0 0-.37 2.56zm16.2-9.14h6.4l.55 2.41h.14a7.25 7.25 0 0 1 2.42-2.05 7.62 7.62 0 0 1 3.76-.87c.9 0 1.75.12 2.54.36s1.47.65 2.03 1.2c.56.57 1 1.33 1.34 2.3s.5 2.15.5 3.56v11.37h-4.76v-10.38c0-1.5-.34-2.56-1-3.22a3.48 3.48 0 0 0-2.55-.99c-.9 0-1.73.26-2.47.79a3.94 3.94 0 0 0-1.52 1.95v11.85h-4.75v-14.26h-2.63v-4.02zm36.2 13.24c0-.49-.3-.88-.9-1.17-.6-.3-1.33-.56-2.2-.8-.88-.25-1.85-.5-2.9-.76-1.04-.25-2-.6-2.88-1.06a7.23 7.23 0 0 1-2.22-1.72c-.6-.7-.9-1.59-.9-2.69 0-.9.2-1.69.61-2.37s.95-1.26 1.65-1.74c.69-.47 1.52-.83 2.48-1.08s2-.36 3.13-.36a15.39 15.39 0 0 1 5.5.88 8.1 8.1 0 0 1 1.72.82c.48.3.89.58 1.23.82l-2.01 3.25a16.46 16.46 0 0 0-4.41-1.79 8.15 8.15 0 0 0-4.19.22c-.63.27-.95.68-.95 1.24 0 .44.3.8.9 1.06.6.27 1.33.52 2.21.75.88.24 1.84.48 2.89.75s2.01.62 2.89 1.05 1.61.98 2.21 1.66.9 1.56.9 2.63c0 1.86-.68 3.31-2.03 4.37-1.36 1.06-3.36 1.6-6.02 1.6-2.1 0-3.9-.32-5.43-.94a12.61 12.61 0 0 1-3.68-2.18l2.2-3.43a11.02 11.02 0 0 0 3.03 1.79 15 15 0 0 0 2.1.68c.75.18 1.49.27 2.22.27a4.6 4.6 0 0 0 2.01-.4c.56-.27.84-.72.84-1.35zm42.02-8.85 2.74 8h.18l.33-3.14 1.5-9.25h4.28l-3.7 18.28h-4.79l-2.04-7.24h-.19l-2.3 7.24h-4.94l-3.84-18.28h4.76l1.79 10.13.3 2.26h.17l2.71-8h3.04zm9.11-11.7h7.38v9.36h.14a6.17 6.17 0 0 1 2.34-1.87 8 8 0 0 1 3.44-.7c.93 0 1.78.13 2.56.37a4.9 4.9 0 0 1 3.33 3.5c.32.96.47 2.15.47 3.56v11.37h-4.75v-10.38c0-1.49-.32-2.56-.95-3.22s-1.46-.99-2.49-.99a4.47 4.47 0 0 0-4.1 2.93v11.66h-4.74v-21.57h-2.64v-4.02zm32.94 20.44h1.39l3.55-13.13h4.9l-5.2 16.49a93.45 93.45 0 0 1-1.35 3.75 13.56 13.56 0 0 1-1.54 2.94 6.42 6.42 0 0 1-2.06 1.92 5.8 5.8 0 0 1-2.9.68c-.57 0-1.1-.08-1.6-.22a8.29 8.29 0 0 1-2.47-1.19 6.73 6.73 0 0 1-.77-.64l2.45-3.25c.32.26.7.51 1.14.75.44.23.85.34 1.24.34.73 0 1.31-.25 1.74-.76.42-.52.83-1.36 1.22-2.53h-2.6l-7.6-18.28h5.16l5.3 13.13zm35.03 1.13h6.44v-10.24h-6.44v-4.02h11.19v14.26h6.76v4.02h-17.95v-4.02zm5.56-19.23c0-.76.28-1.4.84-1.94.56-.54 1.34-.8 2.34-.8 1.02 0 1.84.26 2.45.8a2.5 2.5 0 0 1 0 3.86c-.61.5-1.43.75-2.45.75-1 0-1.78-.25-2.34-.75s-.84-1.14-.84-1.92zm39.34-2.34h7.8v16.89c0 1.88.22 3.18.69 3.91.46.73 1.2 1.1 2.23 1.1a6.09 6.09 0 0 0 3.32-.91l1.8 3.29c-.42.27-.83.52-1.25.75a8.07 8.07 0 0 1-2.83.95c-.55.08-1.17.13-1.85.13-2.29 0-4-.59-5.15-1.76-1.15-1.17-1.72-2.83-1.72-4.97v-15.36h-3.04v-4.02zm20.04 16.45c0-1.53.23-2.9.7-4.1s1.12-2.2 1.97-3.03a8.44 8.44 0 0 1 3.05-1.88 11.6 11.6 0 0 1 3.97-.64c1.54 0 2.9.23 4.12.7s2.22 1.1 3.05 1.95c.83.84 1.46 1.86 1.88 3.05s.64 2.51.64 3.95c0 1.53-.23 2.9-.7 4.1a8.42 8.42 0 0 1-1.97 3.03 8.44 8.44 0 0 1-3.05 1.88c-1.18.43-2.5.64-3.97.64-1.53 0-2.9-.23-4.11-.69s-2.23-1.11-3.05-1.96a8.2 8.2 0 0 1-1.89-3.05c-.42-1.2-.64-2.51-.64-3.95zm4.9 0c0 .8.11 1.55.33 2.23.22.68.54 1.28.95 1.8a4.29 4.29 0 0 0 3.51 1.6c1.42 0 2.57-.45 3.46-1.35.89-.9 1.33-2.33 1.33-4.28 0-1.68-.41-3.04-1.24-4.08a4.28 4.28 0 0 0-3.55-1.55c-.68 0-1.31.1-1.9.31s-1.09.54-1.52 1a4.91 4.91 0 0 0-1 1.76 7.7 7.7 0 0 0-.37 2.56zm27.21 3.62h.25l4.1-12.76h5.12l-6.98 18.28h-5.09l-7.86-18.28h5.52l4.94 12.76zm30.02 3.58c-.32.3-.73.58-1.23.86s-1.08.55-1.75.79a13.65 13.65 0 0 1-4.78.8c-1.56 0-2.95-.21-4.18-.65a8.39 8.39 0 0 1-3.13-1.92 8.39 8.39 0 0 1-1.96-3.04 11.27 11.27 0 0 1-.67-4.04c0-1.6.25-3.02.77-4.22a8.42 8.42 0 0 1 5.23-4.83 12.05 12.05 0 0 1 6.74-.24c.99.25 1.9.67 2.73 1.26.83.6 1.5 1.4 2.03 2.4.52 1 .78 2.27.78 3.8 0 1.05-.12 2.18-.36 3.4h-13.17a3.89 3.89 0 0 0 1.7 3.3c.5.34 1.08.58 1.72.74.65.16 1.34.24 2.07.24 1.46 0 2.66-.17 3.6-.51s1.7-.76 2.29-1.24l1.57 3.1zm-7.9-13.05c-.63 0-1.23.09-1.8.26a5 5 0 0 0-1.5.76c-.46.34-.83.76-1.12 1.25a3.8 3.8 0 0 0-.52 1.68h9c0-1.22-.34-2.18-1-2.89-.68-.7-1.7-1.06-3.06-1.06zm43.44-10.6h7.64v15.8a49.65 49.65 0 0 0 .33 5.77h2.34v4.02h-5.88l-.48-2.34h-.15c-.24.44-.57.83-.98 1.17a7.28 7.28 0 0 1-3.08 1.48 9.46 9.46 0 0 1-5.06-.35 7.02 7.02 0 0 1-2.65-1.7 8.13 8.13 0 0 1-1.8-2.92 12.05 12.05 0 0 1-.65-4.19c0-1.56.24-2.95.71-4.17a8.65 8.65 0 0 1 4.95-5.03c1.15-.45 2.4-.67 3.77-.67.76 0 1.47.04 2.14.13.67.08 1.25.22 1.74.42v-3.4h-2.89v-4.02zm-.99 22.08c.93 0 1.75-.22 2.47-.67a3.14 3.14 0 0 0 1.41-1.96v-7.75a3.53 3.53 0 0 0-1.4-.6c-.6-.14-1.23-.2-1.9-.2s-1.29.1-1.91.32a4.48 4.48 0 0 0-2.78 2.89 8.02 8.02 0 0 0-.42 2.78c0 1.56.39 2.81 1.17 3.77a4.1 4.1 0 0 0 3.36 1.42zm13.02-5.63c0-1.53.23-2.9.7-4.1s1.12-2.2 1.97-3.03a8.44 8.44 0 0 1 3.05-1.88 11.6 11.6 0 0 1 3.97-.64c1.54 0 2.9.23 4.12.7s2.22 1.1 3.05 1.95c.83.84 1.46 1.86 1.88 3.05s.64 2.51.64 3.95c0 1.53-.23 2.9-.7 4.1a8.42 8.42 0 0 1-1.97 3.03 8.44 8.44 0 0 1-3.05 1.88c-1.18.43-2.5.64-3.97.64-1.53 0-2.9-.23-4.11-.69s-2.23-1.11-3.05-1.96a8.2 8.2 0 0 1-1.89-3.05c-.42-1.2-.64-2.51-.64-3.95zm4.9 0c0 .8.11 1.55.33 2.23.22.68.54 1.28.95 1.8a4.29 4.29 0 0 0 3.51 1.6c1.42 0 2.57-.45 3.46-1.35.89-.9 1.33-2.33 1.33-4.28 0-1.68-.41-3.04-1.24-4.08a4.28 4.28 0 0 0-3.55-1.55c-.68 0-1.31.1-1.9.31s-1.09.54-1.52 1a4.91 4.91 0 0 0-1 1.76 7.7 7.7 0 0 0-.37 2.56zm15.76-16.45h7.75v14.59h1.1l6-7.28h5.6l-7.4 8.34 4.8 5.92h3.4v4.02h-5.93l-6.29-7.57h-1.28v7.57h-4.75v-21.57h-3v-4.02zm25.23 8.55a19.17 19.17 0 0 1 7.94-1.61c1.27 0 2.35.15 3.23.46a4.95 4.95 0 0 1 3.35 3.31c.24.78.36 1.66.36 2.63 0 1.25-.04 2.3-.12 3.18a24.25 24.25 0 0 0-.06 4.06c.05.34.09.67.11.99h2.38v4.02h-6.14l-.48-2.48h-.18c-.49.75-1.18 1.4-2.07 1.95s-2.11.82-3.64.82c-1.81 0-3.26-.48-4.32-1.46s-1.6-2.27-1.6-3.87c0-1.03.19-1.91.56-2.66a4.7 4.7 0 0 1 1.64-1.82 7.56 7.56 0 0 1 2.58-1.06 15.12 15.12 0 0 1 4.74-.28l1.78.15c.05-.25.07-.49.07-.73v-.7c0-.93-.27-1.59-.8-2a3.9 3.9 0 0 0-2.36-.6c-1.23 0-2.35.16-3.34.48-1 .32-1.83.63-2.5.95l-1.13-3.73zm6.23 13.42c1.15 0 2.02-.21 2.6-.64.58-.42 1-.88 1.27-1.37v-2.2a16.04 16.04 0 0 0-2.64-.25c-.46 0-.92.04-1.38.13-.46.08-.86.22-1.23.4-.36.18-.65.42-.86.71-.22.3-.33.65-.33 1.06 0 .69.2 1.22.6 1.6.4.37 1.05.56 1.97.56zm20.43 1.21c0-.86.27-1.53.8-2.03.54-.5 1.25-.75 2.13-.75.92 0 1.65.25 2.19.75s.8 1.18.8 2.03-.26 1.53-.8 2.05c-.54.5-1.27.77-2.2.77-.87 0-1.58-.26-2.11-.77a2.7 2.7 0 0 1-.81-2.05zm33.31 2.41c0 1.32-.22 2.46-.67 3.44a6.75 6.75 0 0 1-1.87 2.43c-.8.65-1.73 1.12-2.81 1.43s-2.28.45-3.57.45a14.37 14.37 0 0 1-4.59-.73c-.64-.22-1.21-.45-1.7-.7a6.8 6.8 0 0 1-1.17-.76l1.83-3.36c.58.39 1.28.76 2.1 1.11.82.36 1.85.53 3.1.53 1.53 0 2.7-.35 3.5-1.06.8-.7 1.21-1.72 1.21-3.03v-1.17h-.15a3.83 3.83 0 0 1-1.93 1.3 9.5 9.5 0 0 1-2.97.42 9.26 9.26 0 0 1-3.23-.55 6.96 6.96 0 0 1-4.28-4.5c-.4-1.15-.6-2.49-.6-4.02 0-1.61.23-3.04.7-4.28a8.54 8.54 0 0 1 2.02-3.13 8.4 8.4 0 0 1 3.1-1.9c1.21-.42 2.56-.64 4.05-.64a30.03 30.03 0 0 1 4.55.33 20.83 20.83 0 0 1 3.38.77v17.62zm-8.77-3.5a5.1 5.1 0 0 0 2.5-.63 3.18 3.18 0 0 0 1.52-1.86v-8.23a5.87 5.87 0 0 0-1.44-.35c-.63-.09-1.22-.13-1.78-.13-.68 0-1.32.11-1.92.33-.6.22-1.12.57-1.57 1.04a5 5 0 0 0-1.06 1.8 7.71 7.71 0 0 0-.38 2.57c0 .88.1 1.66.32 2.34.22.69.53 1.26.92 1.72a3.62 3.62 0 0 0 2.89 1.39zm23.4-14.78h6.8v14.26h2.78v4.02h-5.78l-.84-2.7h-.14c-.57.92-1.4 1.69-2.53 2.3s-2.36.91-3.73.91c-.92 0-1.77-.12-2.54-.36a4.56 4.56 0 0 1-1.95-1.2 5.61 5.61 0 0 1-1.25-2.28c-.29-.95-.44-2.14-.44-3.58v-7.35h-2.08v-4.02h6.84v10.38c0 1.5.24 2.56.71 3.22s1.23.99 2.25.99a4.34 4.34 0 0 0 3.95-2.78v-7.79h-2.05v-4.02zm12.03 14.26h6.44v-10.24h-6.44v-4.02h11.19v14.26h6.76v4.02h-17.95v-4.02zm5.56-19.23c0-.76.28-1.4.84-1.94.56-.54 1.34-.8 2.34-.8 1.02 0 1.84.26 2.45.8a2.5 2.5 0 0 1 0 3.86c-.61.5-1.43.75-2.45.75-1 0-1.78-.25-2.34-.75s-.84-1.14-.84-1.92zm25.41-2.34h7.65v15.8a49.65 49.65 0 0 0 .32 5.77h2.35v4.02h-5.9l-.47-2.34h-.15c-.24.44-.57.83-.98 1.17a7.28 7.28 0 0 1-3.07 1.48 9.46 9.46 0 0 1-5.06-.35 7.02 7.02 0 0 1-2.66-1.7 8.13 8.13 0 0 1-1.8-2.92 12.05 12.05 0 0 1-.65-4.19c0-1.56.24-2.95.71-4.17a8.65 8.65 0 0 1 4.95-5.03c1.15-.45 2.41-.67 3.78-.67.75 0 1.47.04 2.14.13.67.08 1.25.22 1.73.42v-3.4h-2.89v-4.02zm-.99 22.08c.93 0 1.75-.22 2.47-.67a3.14 3.14 0 0 0 1.41-1.96v-7.75a3.53 3.53 0 0 0-1.4-.6c-.6-.14-1.23-.2-1.9-.2s-1.29.1-1.91.32a4.48 4.48 0 0 0-2.78 2.89 8.02 8.02 0 0 0-.42 2.78c0 1.56.39 2.81 1.17 3.77a4.1 4.1 0 0 0 3.36 1.42zm31.27 1.57c-.32.3-.73.58-1.23.86s-1.08.55-1.75.79a13.65 13.65 0 0 1-4.77.8c-1.57 0-2.96-.21-4.2-.65a8.39 8.39 0 0 1-3.12-1.92 8.39 8.39 0 0 1-1.95-3.04 11.27 11.27 0 0 1-.68-4.04c0-1.6.26-3.02.77-4.22a8.42 8.42 0 0 1 5.23-4.83 12.05 12.05 0 0 1 6.74-.24 8 8 0 0 1 2.73 1.26c.83.6 1.5 1.4 2.03 2.4.52 1 .78 2.27.78 3.8 0 1.05-.12 2.18-.36 3.4h-13.17a3.89 3.89 0 0 0 1.7 3.3c.5.34 1.08.58 1.72.74.65.16 1.34.24 2.07.24 1.46 0 2.66-.17 3.6-.51s1.7-.76 2.29-1.24l1.57 3.1zm-7.9-13.05c-.63 0-1.23.09-1.8.26a5 5 0 0 0-1.5.76c-.46.34-.83.76-1.12 1.25a3.8 3.8 0 0 0-.52 1.68h9c0-1.22-.34-2.18-1-2.89-.68-.7-1.7-1.06-3.06-1.06zm18.32-.65c0-.86.27-1.54.8-2.04.54-.5 1.25-.75 2.13-.75.92 0 1.65.25 2.19.75s.8 1.18.8 2.03-.26 1.54-.8 2.05c-.54.51-1.27.77-2.2.77-.87 0-1.58-.26-2.11-.77a2.7 2.7 0 0 1-.81-2.05zm0 13.23c0-.86.27-1.53.8-2.03.54-.5 1.25-.75 2.13-.75.92 0 1.65.25 2.19.75s.8 1.18.8 2.03-.26 1.53-.8 2.05c-.54.5-1.27.77-2.2.77-.87 0-1.58-.26-2.11-.77a2.7 2.7 0 0 1-.81-2.05z"/><circle cx="1098.27" cy="97.51" r="19.18"/><circle fill="#2E9AFF" cx="1146.84" cy="97.51" r="19.18"/></svg>