<svg xmlns="http://www.w3.org/2000/svg" viewBox="0 0 1073.56 1080" xml:space="preserve"><path fill="#2E9AFF" d="m166.96 439.5-21.7-124.79c-5.59-31.5-35.52-51.76-67.16-46.96-32.43 4.91-52.65 3.43-47.09 34.94l20 139.69 1.2 9.7 24.4 137.99"/><path d="M76.6 592.07a2 2 0 0 1-1.96-1.65l-24.4-138-.02-.1-1.2-9.7-9.55-66.74-10.43-72.9c-1.89-10.74-.96-18.18 2.9-23.46 6.09-8.33 18.29-9.98 35.17-12.25 3.42-.46 6.96-.94 10.69-1.5 33.21-5.04 63.7 16.31 69.43 48.6l21.7 124.79a2 2 0 0 1-3.94.68l-21.7-124.79c-5.34-30.12-33.84-50.03-64.9-45.33-3.75.57-7.3 1.05-10.74 1.52-15.9 2.14-27.4 3.68-32.48 10.64-3.19 4.36-3.88 10.86-2.19 20.46a233957.03 233957.03 0 0 1 20 139.75l1.2 9.69 24.4 137.94a2 2 0 0 1-1.97 2.35z"/><path fill="#2E9AFF" d="M32.95 295.81c24.79-3 44 13.17 47.04 36.69 3.05 23.64-11.94 45.39-34.43 48.7"/><path d="M45.55 383.2a2 2 0 0 1-.28-3.97c21.32-3.15 35.7-23.56 32.73-46.48-2.98-23.04-21.83-37.75-44.8-34.95a2 2 0 1 1-.48-3.97c25.26-3.07 45.97 13.08 49.25 38.4 3.25 25.1-12.62 47.48-36.12 50.95l-.3.03z"/><path fill="#FFF" d="m41.1 355.07 3.45 24.05c9.27-1.41 19.72-6.85 25.64-16.16-6.04-6.14-19.24-9.9-29.1-7.9zm228.38-36.17a18.86 18.86 0 0 0-1.14 26.65 18.86 18.86 0 0 0-27.79 25.51c14.37 15.66 57 10.55 59.11 8.62 2.07-1.9 10.84-43.97-3.53-59.63a18.86 18.86 0 0 0-26.65-1.14z"/><path fill="#2E9AFF" d="m175.66 427.73-8.79-126.36c-2.32-31.92-30.02-55.14-61.98-53.61-32.76 1.56-52.73-2-50.42 29.92l5.55 141 .2 9.77 10.1 139.78"/><path d="M70.32 570.23a2 2 0 0 1-1.99-1.86L58.23 428.6l-.01-.1-.2-9.77a374420.74 374420.74 0 0 1-5.55-140.96c-.78-10.83.9-18.17 5.3-23.04 6.9-7.66 19.21-8.05 36.24-8.57 3.45-.11 7.02-.22 10.78-.4 33.56-1.6 61.7 22.76 64.08 55.46l8.78 126.37a2 2 0 0 1-3.99.28l-8.78-126.36c-2.22-30.52-28.55-53.24-59.9-51.75-3.8.18-7.38.29-10.85.4-16.04.5-27.63.85-33.4 7.25-3.61 4.01-4.97 10.4-4.27 20.13l3.7 93.81L62 418.62l.2 9.75 10.11 139.72a2 2 0 0 1-1.85 2.14h-.15z"/><path fill="#2E9AFF" d="M57.1 271.04c24.96-.45 42.4 17.6 43.02 41.32.61 23.83-16.53 43.92-39.25 44.92"/><path d="M60.87 359.28a2 2 0 0 1-.09-4c21.54-.94 37.94-19.77 37.34-42.87-.6-23.23-17.82-39.82-40.99-39.37-1.08-.01-2.01-.86-2.03-1.96s.86-2.02 1.96-2.04H58c24.98 0 43.47 18.05 44.12 43.27.65 25.3-17.43 45.93-41.16 46.97h-.09z"/><path fill="#FFF" d="m59.12 330.82.96 24.28c9.37-.46 20.33-4.79 27.17-13.45-5.38-6.72-18.12-11.8-28.13-10.83z"/><path fill="#2E9AFF" d="m67.2 866.09.35-51.49-9-251.24C46.42 425.19 97.4 357.59 97.4 357.59s57.8-98.97 57.8-98.99c16.65-29.25 38.73-16.71 66.25-.38a57.97 57.97 0 0 1 20.27 79.4c-.94 1.58-53.58 97.84-53.58 97.84-31.65 61.83 4.64 92.02 4.64 92.02 10.53 9.51 35.67 11.17 55.53 8.21l28.66-109.12 3.96-14.01.03-.08c8.17-30.94 39.81-49.09 70.82-41.23 37.67 9.54 57.3 6.6 49.11 37.53-.46 1.77-8.91 36.77-9.52 38.44L323.29 705.7a164.5 164.5 0 0 1-2.57 11.53c-10.17 38.49-19.3 70.2-49.34 91.65l-.77 55.23"/><path d="M67.2 868.09h-.02a2 2 0 0 1-1.99-2.02l.36-51.48-9-251.1c-6.28-71.7 4.67-124.11 14.97-155.46 10.89-33.13 23.04-49.99 24.2-51.56l47.9-82.02 9.85-16.87c5.6-9.85 12.12-15.65 19.91-17.72 14.57-3.85 31.34 6.1 49.08 16.63a60.04 60.04 0 0 1 20.97 82.15c-.86 1.45-35.4 64.6-53.54 97.77-12.62 24.64-15.9 47.96-9.49 67.37 4.84 14.65 13.57 22.08 13.65 22.15 7.15 6.46 26.56 11.58 52.65 7.96l28.32-107.83L279 412l.02-.06a59.26 59.26 0 0 1 27.77-36.36 60.53 60.53 0 0 1 45.47-6.28c6.69 1.7 12.88 3 18.33 4.16 16.18 3.44 26.86 5.7 31.63 13.45 3.15 5.12 3.33 12.02.6 22.37-.13.48-.86 3.5-1.87 7.64-4.45 18.25-7.15 29.23-7.67 30.85l-68.05 258.36c-.85 4.46-1.67 8.15-2.59 11.6-9.46 35.81-18.41 69.66-49.28 92.17l-.76 54.23a2 2 0 0 1-4-.06l.77-55.23a2 2 0 0 1 .84-1.6c30.36-21.67 39.2-55.12 48.57-90.53a161.28 161.28 0 0 0 2.56-11.53l68.08-258.48.06-.17c.46-1.35 5.27-21.08 7.58-30.56l1.89-7.7c2.4-9.09 2.36-15.2-.14-19.26-3.87-6.29-13.88-8.42-29.05-11.63a471.54 471.54 0 0 1-18.49-4.2 56.56 56.56 0 0 0-42.48 5.86 55.3 55.3 0 0 0-25.91 33.94 3.6 3.6 0 0 1-.04.13l-3.96 14-28.64 109.08a2 2 0 0 1-1.64 1.47c-19.66 2.93-45.93 1.45-57.17-8.7-.33-.28-9.51-8.04-14.75-23.68-8.68-25.9.47-52.77 9.67-70.74 2.18-3.98 52.69-96.36 53.64-97.95a56.04 56.04 0 0 0-19.57-76.66c-17-10.1-33.07-19.63-46.01-16.2-6.7 1.77-12.42 6.96-17.48 15.85l-9.86 16.89-48 82.18a2 2 0 0 1-.08.13c-.13.17-12.75 17.17-23.74 50.72-10.15 30.97-20.93 82.77-14.7 153.7v.1l9 251.23-.36 51.57a2 2 0 0 1-2 1.99z"/><path fill="#2E9AFF" d="M399.34 404.57c-24.3-5.73-45.18 8.22-50.8 31.26-5.66 23.16 6.83 46.43 28.82 52.22"/><path d="M377.36 490.05a2 2 0 0 1-.5-.07c-22.98-6.04-36.28-30.04-30.27-54.62 6.06-24.81 28.43-38.58 53.2-32.73a2 2 0 1 1-.91 3.89c-22.53-5.3-42.9 7.21-48.4 29.79-5.49 22.44 6.55 44.32 27.4 49.8a2 2 0 0 1-.52 3.94z"/><path fill="#FFF" d="m384.69 462.56-6.1 23.53c-9.05-2.43-18.84-8.99-23.7-18.9 6.7-5.43 20.22-7.7 29.8-4.63z"/><path fill="#2E9AFF" d="M162.52 252.16c21.14 13.28 25.87 37.94 13.41 58.12-12.52 20.28-37.87 27.73-57.43 16.13"/><path d="M138.66 333.95a41.33 41.33 0 0 1-21.18-5.82 2 2 0 0 1 2.04-3.44c18.55 11 42.57 4.2 54.7-15.46 12.21-19.77 6.84-43.06-12.76-55.38a2 2 0 1 1 2.12-3.39c21.56 13.54 27.46 39.14 14.05 60.87-8.97 14.53-23.92 22.62-38.97 22.62z"/><path fill="#FFF" d="m132.22 303.3-12.48 20.86c8.1 4.74 19.64 7.1 30.1 3.6-.82-8.57-8.7-19.8-17.62-24.45zm161.4 500.02L58.64 802.3c-4.9-.02-8.88 3.78-8.9 8.48l-13.06 94.07 142.35.62 23.65-36.42 24.82 36.63 83.82.36-8.87-94.16c.02-4.71-3.93-8.54-8.83-8.56z"/><path fill="#FFF" d="M5.79 1072.34c-.13 0-.27 0-.4-.03a2 2 0 0 1-1.57-2.36L37.6 900.9a2 2 0 0 1 3.93.79L7.74 1070.74a2 2 0 0 1-1.96 1.6zm324.78 4.98a2 2 0 0 1-1.98-1.75l-26.93-211.1a2 2 0 0 1 3.97-.5l26.93 211.1a2 2 0 0 1-1.99 2.25z"/><path d="M1032.29 717.32H470.4a31.1 31.1 0 0 1-31.08-31.08V50.7h4v635.54a27.1 27.1 0 0 0 27.08 27.07h561.88v4z"/><path fill="#2E9AFF" d="M502.76 241.81c-13.79 0-25-11.21-25-25v-53.9c0-13.78 11.21-25 25-25h479.6c13.79 0 25 11.22 25 25v53.9c0 13.79-11.21 25-25 25h-479.6z"/><path d="M982.37 139.92c12.68 0 23 10.32 23 23v53.9c0 12.68-10.32 23-23 23H502.75c-12.69 0-23-10.32-23-23v-53.9c0-12.68 10.31-23 23-23h479.6m0-4h-479.6c-14.85 0-27 12.15-27 27v53.9c0 14.84 12.15 27 27 27h479.6c14.85 0 27-12.16 27-27v-53.9c0-14.85-12.14-27-27-27z"/><path d="M546.05 164.18a14.87 14.87 0 0 0-14.87 14.86 14.87 14.87 0 1 0-29.73 0c0 16.76 27.47 36.51 29.73 36.51 2.22 0 29.73-19.75 29.73-36.5 0-8.22-6.65-14.87-14.86-14.87zm393.01 15.79h-343a2 2 0 0 1 0-4h343a2 2 0 0 1 0 4zM833.4 203.76H596.04a2 2 0 0 1 0-4H833.4a2 2 0 0 1 0 4z"/><path fill="#2E9AFF" d="M502.76 375.11c-13.79 0-25-11.21-25-25v-53.9c0-13.78 11.21-25 25-25h479.6c13.79 0 25 11.22 25 25v53.9c0 13.79-11.21 25-25 25h-479.6z"/><path d="M982.37 273.22c12.68 0 23 10.32 23 23v53.9c0 12.67-10.32 23-23 23H502.75c-12.69 0-23-10.33-23-23v-53.9c0-12.68 10.31-23 23-23h479.6m0-4h-479.6c-14.85 0-27 12.15-27 27v53.9c0 14.84 12.15 27 27 27h479.6c14.85 0 27-12.16 27-27v-53.9c0-14.85-12.14-27-27-27z"/><path d="M748.86 313.27h-152.8a2 2 0 0 1 0-4h152.8a2 2 0 0 1 0 4zm190.2 0H786.25a2 2 0 0 1 0-4h152.8a2 2 0 0 1 0 4zm-26.01 23.79h-317a2 2 0 0 1 0-4h317a2 2 0 0 1 0 4z"/><path fill="#2E9AFF" d="M502.76 508.41c-13.79 0-25-11.21-25-25v-53.89c0-13.79 11.21-25 25-25h479.6c13.79 0 25 11.21 25 25v53.9c0 13.78-11.21 25-25 25h-479.6z"/><path d="M982.37 406.52c12.68 0 23 10.32 23 23v53.9c0 12.68-10.32 23-23 23H502.75c-12.69 0-23-10.32-23-23v-53.9c0-12.68 10.31-23 23-23h479.6m0-4h-479.6c-14.85 0-27 12.15-27 27v53.9c0 14.84 12.15 27 27 27h479.6c14.85 0 27-12.16 27-27v-53.9c0-14.85-12.14-27-27-27z"/><path d="M546.05 430.78a14.87 14.87 0 0 0-14.87 14.87 14.87 14.87 0 1 0-29.73 0c0 16.75 27.47 36.5 29.73 36.5 2.22 0 29.73-19.75 29.73-36.5 0-8.22-6.65-14.87-14.86-14.87zm393.01 15.79h-343a2 2 0 0 1 0-4h343a2 2 0 0 1 0 4zm-48.77 23.79H596.05a2 2 0 0 1 0-4H890.3a2 2 0 0 1 0 4z"/><path fill="#2E9AFF" d="M502.76 641.71c-13.79 0-25-11.21-25-25v-53.89c0-13.79 11.21-25 25-25h479.6c13.79 0 25 11.21 25 25v53.9c0 13.78-11.21 25-25 25h-479.6z"/><path d="M982.37 539.82c12.68 0 23 10.32 23 23v53.9c0 12.68-10.32 23-23 23H502.75c-12.69 0-23-10.32-23-23v-53.9c0-12.68 10.31-23 23-23h479.6m0-4h-479.6c-14.85 0-27 12.15-27 27v53.9c0 14.84 12.15 27 27 27h479.6c14.85 0 27-12.16 27-27v-53.9c0-14.85-12.14-27-27-27z"/><path d="M546.05 564.08a14.87 14.87 0 0 0-14.87 14.86 14.87 14.87 0 1 0-29.73 0c0 16.76 27.47 36.52 29.73 36.52 2.22 0 29.73-19.76 29.73-36.52 0-8.2-6.65-14.86-14.86-14.86zm393.01 15.79h-343a2 2 0 0 1 0-4h343a2 2 0 0 1 0 4zM833.4 603.66H596.04a2 2 0 0 1 0-4H833.4a2 2 0 0 1 0 4z"/><path d="M1043.79 50.74v633.7a29.07 29.07 0 0 1-29.08 29.07H471.26v5.96a29.07 29.07 0 0 0 29.08 29.07h544.3a29.07 29.07 0 0 0 29.07-29.07v-619.1h.07V83.51a32.9 32.9 0 0 0-30-32.77z"/><path fill="#FFF" d="M743.1 692.87h-1.08a2 2 0 0 1-1.06-.3l-40.1-24.93a2 2 0 0 1 2.11-3.4l39.59 24.6 39.58-24.6a2 2 0 1 1 2.12 3.4l-40.1 24.92c-.32.2-.68.3-1.06.3zM1010.94.68H472.26a32.9 32.9 0 0 0-32.9 32.9v17.03h604.49V33.59a32.91 32.91 0 0 0-32.9-32.91zm-469.56 40.4a14.09 14.09 0 1 1 0-28.17 14.09 14.09 0 0 1 0 28.18zm-54.82 48.37a34.4 34.4 0 0 1 2.75-.35 41.56 41.56 0 0 1 2.62-.1c.88 0 1.74.08 2.6.25.85.17 1.6.46 2.28.87a4.6 4.6 0 0 1 2.21 4.27c0 .77-.07 1.44-.22 2a5.49 5.49 0 0 1-.63 1.5c-.27.42-.6.8-.98 1.1-.4.32-.8.6-1.25.86l4.54 8.22h-4.25l-3.79-7.36h-2.2v7.36h-3.68V89.45zm5.64 2.82c-.37 0-.75 0-1.11.03-.37.01-.65.05-.85.1v5.46h1.45a4.2 4.2 0 0 0 2.5-.7c.65-.47.97-1.24.97-2.31 0-.81-.25-1.44-.76-1.9-.5-.45-1.23-.68-2.2-.68zm23.16 14.37c-.23.22-.53.43-.9.63a8.73 8.73 0 0 1-2.91 1.01 10.56 10.56 0 0 1-4.96-.32c-.9-.32-1.67-.8-2.3-1.41a6.17 6.17 0 0 1-1.44-2.23 8.27 8.27 0 0 1-.5-2.97c0-1.18.2-2.22.57-3.1a6.23 6.23 0 0 1 3.84-3.55 8.88 8.88 0 0 1 4.96-.17 5.18 5.18 0 0 1 3.5 2.68c.38.74.57 1.67.57 2.8 0 .77-.09 1.6-.27 2.5h-9.67c.02.57.14 1.05.36 1.45.22.4.52.71.89.97.36.25.79.43 1.26.55a7.86 7.86 0 0 0 4.17-.2 5.61 5.61 0 0 0 1.68-.92l1.15 2.28zm-5.8-9.59a4.4 4.4 0 0 0-2.43.75c-.33.25-.6.56-.82.92s-.34.78-.38 1.23h6.61c0-.9-.24-1.6-.74-2.12s-1.24-.78-2.24-.78zm9.99-1.5a14.1 14.1 0 0 1 5.83-1.18c.94 0 1.73.1 2.38.33a3.65 3.65 0 0 1 2.46 2.43c.18.57.27 1.22.27 1.94 0 .91-.03 1.69-.1 2.33a17.92 17.92 0 0 0-.04 2.99l.09.72h1.74v2.96h-4.5l-.36-1.83h-.14a4.65 4.65 0 0 1-1.52 1.44c-.66.4-1.55.6-2.67.6-1.33 0-2.4-.36-3.18-1.07a3.67 3.67 0 0 1-1.17-2.85c0-.75.14-1.4.41-1.95.28-.54.68-1 1.2-1.34a5.7 5.7 0 0 1 1.9-.78 11.04 11.04 0 0 1 3.48-.2l1.31.1c.04-.17.06-.35.06-.53v-.51c0-.68-.2-1.17-.6-1.47-.38-.3-.96-.44-1.72-.44-.91 0-1.73.12-2.46.35-.73.23-1.34.47-1.84.7l-.83-2.74zm4.58 9.86c.85 0 1.48-.16 1.9-.47s.74-.65.94-1.01v-1.61a12.7 12.7 0 0 0-1.94-.19c-.34 0-.67.03-1.01.1a3.3 3.3 0 0 0-.9.29c-.27.13-.48.3-.64.52s-.24.48-.24.78c0 .5.14.9.44 1.17s.77.42 1.45.42zm19.93-1.05c0-.36-.22-.65-.66-.86a9.52 9.52 0 0 0-1.63-.6l-2.12-.54a9.6 9.6 0 0 1-2.12-.78 5.3 5.3 0 0 1-1.63-1.26 2.92 2.92 0 0 1-.66-1.98c0-.66.15-1.24.45-1.75a4 4 0 0 1 1.2-1.27 5.67 5.67 0 0 1 1.83-.8 9.3 9.3 0 0 1 2.3-.26 12.6 12.6 0 0 1 4.04.64c.5.18.92.38 1.27.6s.65.43.9.6l-1.48 2.4a12.49 12.49 0 0 0-2.03-.97 8.54 8.54 0 0 0-1.21-.35 6.03 6.03 0 0 0-3.08.16c-.46.2-.7.5-.7.92 0 .32.22.58.66.78.44.2.98.38 1.63.55l2.12.55c.77.2 1.48.45 2.12.77s1.2.72 1.63 1.22c.44.5.66 1.14.66 1.93 0 1.36-.5 2.44-1.5 3.21-.99.78-2.46 1.17-4.41 1.17-1.54 0-2.87-.23-4-.68a9.28 9.28 0 0 1-2.7-1.6l1.62-2.53a8.1 8.1 0 0 0 2.23 1.32c.48.2 1 .36 1.54.5.55.13 1.1.2 1.63.2.57 0 1.06-.1 1.48-.3.41-.2.62-.52.62-1zm6.26-3.01c0-1.13.17-2.13.5-3.01a6.17 6.17 0 0 1 3.7-3.61 8.55 8.55 0 0 1 2.92-.47 8.4 8.4 0 0 1 3.02.5 6.05 6.05 0 0 1 3.63 3.68 9.01 9.01 0 0 1-.05 5.91 6.18 6.18 0 0 1-3.69 3.62c-.87.31-1.84.47-2.91.47a8.37 8.37 0 0 1-3.03-.5 6.06 6.06 0 0 1-3.63-3.68 8.58 8.58 0 0 1-.46-2.91zm3.6 0c0 .6.08 1.14.24 1.64.16.5.4.94.7 1.31a3.13 3.13 0 0 0 2.58 1.19c1.03 0 1.88-.33 2.53-1 .66-.66.98-1.7.98-3.14 0-1.24-.3-2.23-.9-3a3.15 3.15 0 0 0-2.61-1.14c-.5 0-.97.08-1.4.23s-.8.4-1.12.74c-.3.34-.56.77-.73 1.29a5.75 5.75 0 0 0-.27 1.88zm11.9-6.72h4.7l.4 1.78h.11a5.6 5.6 0 0 1 4.54-2.15c.66 0 1.29.09 1.87.27.58.17 1.08.47 1.49.88s.74.97.98 1.68c.24.7.36 1.58.36 2.62v8.36h-3.5v-7.63c0-1.1-.24-1.88-.73-2.37a2.56 2.56 0 0 0-1.87-.72c-.66 0-1.27.19-1.81.57-.55.39-.92.87-1.12 1.44v8.7h-3.49V97.6h-1.93v-2.96zm26.6 9.73c0-.36-.22-.65-.66-.86a9.52 9.52 0 0 0-1.63-.6l-2.12-.54a9.6 9.6 0 0 1-2.12-.78 5.3 5.3 0 0 1-1.63-1.26 2.92 2.92 0 0 1-.65-1.98c0-.66.14-1.24.44-1.75a4 4 0 0 1 1.2-1.27 5.67 5.67 0 0 1 1.83-.8 9.3 9.3 0 0 1 2.3-.26 12.6 12.6 0 0 1 4.04.64c.5.18.92.38 1.27.6s.65.43.9.6l-1.48 2.4a12.49 12.49 0 0 0-2.03-.97 8.54 8.54 0 0 0-1.2-.35 6.03 6.03 0 0 0-3.09.16c-.46.2-.7.5-.7.92 0 .32.23.58.66.78.44.2.98.38 1.63.55l2.12.55c.77.2 1.48.45 2.13.77s1.18.72 1.62 1.22c.44.5.66 1.14.66 1.93 0 1.36-.5 2.44-1.5 3.21-.99.78-2.46 1.17-4.41 1.17-1.54 0-2.87-.23-4-.68a9.28 9.28 0 0 1-2.7-1.6l1.62-2.53a8.1 8.1 0 0 0 2.23 1.32c.48.2 1 .36 1.55.5.54.13 1.08.2 1.62.2.57 0 1.07-.1 1.48-.3.41-.2.62-.52.62-1zm30.87-6.5 2.01 5.88h.14l.24-2.31 1.1-6.8h3.15l-2.72 13.44h-3.52l-1.5-5.32h-.14l-1.69 5.32h-3.63l-2.82-13.44h3.5l1.31 7.45.22 1.66h.13l1.99-5.88h2.23zm6.69-8.6h5.43v6.88h.1c.43-.58 1-1.03 1.72-1.37a5.84 5.84 0 0 1 2.53-.51c.68 0 1.3.09 1.88.27.57.17 1.06.47 1.48.88.4.42.73.98.96 1.68.24.71.35 1.58.35 2.62v8.36h-3.49v-7.63c0-1.1-.23-1.88-.7-2.37a2.43 2.43 0 0 0-1.82-.72 3.3 3.3 0 0 0-3 2.15v8.57h-3.5V92.22h-1.94v-2.96zm24.21 15.02h1.02l2.6-9.65h3.6l-3.81 12.12c-.34 1-.67 1.92-1 2.75-.32.84-.7 1.56-1.12 2.17-.43.6-.94 1.08-1.52 1.4s-1.3.5-2.14.5c-.41 0-.8-.05-1.17-.16a6.09 6.09 0 0 1-2.38-1.34l1.8-2.4c.24.2.52.39.84.56.32.17.62.25.91.25.54 0 .96-.18 1.28-.56.31-.38.61-1 .9-1.85h-1.91l-5.59-13.44h3.79l3.9 9.65zm25.73.83h4.73V97.6h-4.73v-2.96h8.23v10.48h4.97v2.96h-13.2v-2.96zm4.09-14.13c0-.56.2-1.03.62-1.43s.98-.59 1.72-.59c.75 0 1.35.2 1.8.6a1.84 1.84 0 0 1 0 2.83c-.45.37-1.05.55-1.8.55a2.5 2.5 0 0 1-1.72-.55 1.8 1.8 0 0 1-.62-1.41zm28.91-1.72h5.72v12.41c0 1.38.17 2.34.51 2.88.34.53.89.8 1.64.8a4.5 4.5 0 0 0 1.37-.17c.36-.12.72-.28 1.07-.5l1.32 2.42c-.3.2-.6.38-.91.55a5.97 5.97 0 0 1-2.08.7c-.4.06-.86.1-1.36.1-1.69 0-2.95-.44-3.79-1.3-.84-.86-1.26-2.07-1.26-3.65V92.22h-2.23v-2.96zm14.72 12.09c0-1.13.17-2.13.51-3.01a6.17 6.17 0 0 1 3.7-3.61 8.55 8.55 0 0 1 2.91-.47 8.4 8.4 0 0 1 3.02.5 6.05 6.05 0 0 1 3.63 3.68c.31.89.47 1.85.47 2.91a8.2 8.2 0 0 1-.51 3 6.18 6.18 0 0 1-3.7 3.62c-.86.31-1.83.47-2.9.47a8.37 8.37 0 0 1-3.03-.5 6.06 6.06 0 0 1-3.63-3.68 8.55 8.55 0 0 1-.47-2.91zm3.6 0c0 .6.08 1.14.24 1.64.16.5.4.94.7 1.31a3.13 3.13 0 0 0 2.58 1.19c1.04 0 1.89-.33 2.54-1 .65-.66.98-1.7.98-3.14 0-1.24-.3-2.23-.91-3a3.15 3.15 0 0 0-2.6-1.14c-.51 0-.98.08-1.4.23s-.8.4-1.12.74c-.31.34-.56.77-.74 1.29a5.75 5.75 0 0 0-.27 1.88zm19.99 2.66h.19l3-9.38h3.77l-5.13 13.44h-3.74l-5.77-13.44h4.06l3.62 9.38zm22.06 2.63c-.23.22-.53.43-.9.63a8.73 8.73 0 0 1-2.92 1.01 10.47 10.47 0 0 1-4.95-.32c-.9-.32-1.67-.8-2.3-1.41a6.17 6.17 0 0 1-1.44-2.23 8.27 8.27 0 0 1-.5-2.97c0-1.18.2-2.22.57-3.1a6.23 6.23 0 0 1 3.84-3.55 8.88 8.88 0 0 1 4.96-.17 5.16 5.16 0 0 1 4.07 5.48c0 .77-.1 1.6-.27 2.5h-9.67a2.87 2.87 0 0 0 1.25 2.42c.36.25.78.43 1.26.55a7.85 7.85 0 0 0 4.16-.2 5.61 5.61 0 0 0 1.68-.92l1.16 2.28zm-5.8-9.59a4.4 4.4 0 0 0-2.44.75 3 3 0 0 0-1.2 2.15h6.62c0-.9-.25-1.6-.74-2.12-.5-.52-1.24-.78-2.25-.78zm31.91-7.79h5.62v11.6a36.3 36.3 0 0 0 .24 4.25h1.72v2.96h-4.32l-.35-1.72h-.11c-.18.32-.42.6-.73.86a5.13 5.13 0 0 1-2.25 1.09 6.93 6.93 0 0 1-3.72-.26 5.15 5.15 0 0 1-1.95-1.25c-.56-.56-1-1.28-1.32-2.15a8.85 8.85 0 0 1-.48-3.07c0-1.15.17-2.17.52-3.07a6.36 6.36 0 0 1 3.64-3.7 7.5 7.5 0 0 1 2.77-.49c.55 0 1.08.03 1.57.1.5.06.92.16 1.28.3v-2.5h-2.13v-2.95zm-.72 16.23c.68 0 1.28-.17 1.81-.5s.87-.81 1.04-1.44v-5.7c-.26-.19-.6-.34-1.04-.44-.44-.1-.9-.14-1.38-.14s-.96.08-1.41.24c-.46.16-.86.41-1.21.76-.35.35-.63.8-.83 1.36a5.9 5.9 0 0 0-.31 2.04c0 1.15.28 2.07.86 2.77.57.7 1.4 1.05 2.47 1.05zm9.56-4.14c0-1.13.17-2.13.51-3.01a6.17 6.17 0 0 1 3.7-3.61 8.55 8.55 0 0 1 2.91-.47 8.4 8.4 0 0 1 3.03.5 6.05 6.05 0 0 1 3.63 3.68c.3.89.46 1.85.46 2.91 0 1.13-.17 2.13-.5 3a6.18 6.18 0 0 1-3.7 3.62c-.87.31-1.84.47-2.92.47a8.37 8.37 0 0 1-3.02-.5 6.06 6.06 0 0 1-3.63-3.68 8.55 8.55 0 0 1-.47-2.91zm3.6 0c0 .6.08 1.14.25 1.64.16.5.39.94.7 1.31a3.13 3.13 0 0 0 2.57 1.19c1.04 0 1.89-.33 2.54-1 .66-.66.98-1.7.98-3.14 0-1.24-.3-2.23-.91-3a3.15 3.15 0 0 0-2.6-1.14c-.5 0-.97.08-1.4.23s-.8.4-1.12.74c-.31.34-.56.77-.74 1.29a5.75 5.75 0 0 0-.27 1.88zm11.58-12.09h5.7v10.72h.8l4.41-5.35h4.11l-5.43 6.13 3.52 4.35h2.5v2.96h-4.35l-4.62-5.56h-.94v5.56h-3.5V92.22h-2.2v-2.96zm18.54 6.29a14.1 14.1 0 0 1 5.83-1.18c.93 0 1.73.1 2.38.33a3.61 3.61 0 0 1 2.46 2.43c.18.57.27 1.22.27 1.94 0 .91-.03 1.69-.1 2.33a17.92 17.92 0 0 0-.04 2.99c.04.25.07.49.08.72h1.75v2.96h-4.51l-.35-1.83h-.14a4.65 4.65 0 0 1-1.52 1.44c-.66.4-1.55.6-2.67.6-1.34 0-2.4-.36-3.18-1.07a3.67 3.67 0 0 1-1.17-2.85c0-.75.14-1.4.41-1.95.28-.54.68-1 1.2-1.34a5.7 5.7 0 0 1 1.9-.78 11.04 11.04 0 0 1 3.48-.2l1.31.1c.04-.17.05-.35.05-.53v-.51c0-.68-.19-1.17-.58-1.47-.4-.3-.97-.44-1.74-.44-.9 0-1.72.12-2.45.35-.73.23-1.34.47-1.84.7l-.83-2.74zm4.57 9.86c.85 0 1.5-.16 1.92-.47s.73-.65.93-1.01v-1.61a12.7 12.7 0 0 0-1.94-.19c-.34 0-.68.03-1.01.1a3.3 3.3 0 0 0-.9.29c-.27.13-.48.3-.64.52s-.24.48-.24.78c0 .5.14.9.44 1.17s.77.42 1.44.42zm15.02.89c0-.63.2-1.13.59-1.5.4-.36.91-.55 1.56-.55.68 0 1.22.19 1.61.55.4.37.6.87.6 1.5s-.2 1.12-.6 1.5c-.4.37-.93.56-1.61.56-.65 0-1.17-.19-1.56-.56-.4-.38-.6-.88-.6-1.5zm24.47 1.77c0 .96-.16 1.8-.5 2.52a4.96 4.96 0 0 1-1.36 1.79c-.58.47-1.27.82-2.07 1.05a10.57 10.57 0 0 1-7.24-.72 4.92 4.92 0 0 1-.86-.56l1.34-2.47c.43.29.95.56 1.55.82.6.26 1.35.39 2.27.39 1.13 0 1.99-.26 2.58-.78.59-.52.89-1.26.89-2.23v-.86h-.11c-.32.43-.8.75-1.43.95a7 7 0 0 1-2.17.31 6.8 6.8 0 0 1-2.38-.4 5.13 5.13 0 0 1-3.14-3.3 8.91 8.91 0 0 1-.45-2.96c0-1.18.18-2.23.53-3.14a6.2 6.2 0 0 1 1.47-2.3c.64-.62 1.4-1.08 2.29-1.4s1.87-.47 2.97-.47a22.49 22.49 0 0 1 4.75.5c.43.1.79.2 1.08.3v12.96zm-6.44-2.58c.68 0 1.3-.15 1.84-.46.54-.3.92-.76 1.11-1.37v-6.04c-.25-.11-.6-.2-1.06-.26a9.7 9.7 0 0 0-1.3-.1c-.5 0-.97.09-1.41.25a3 3 0 0 0-1.16.76c-.33.35-.59.8-.78 1.32a5.67 5.67 0 0 0-.28 1.9c0 .64.08 1.21.24 1.71.16.5.39.93.67 1.27a2.77 2.77 0 0 0 2.13 1.02zm17.19-10.86h5v10.48h2.04v2.96h-4.24l-.62-2h-.1a4.74 4.74 0 0 1-1.86 1.7 6.15 6.15 0 0 1-4.6.4 3.36 3.36 0 0 1-1.45-.88 4.1 4.1 0 0 1-.91-1.67 9.05 9.05 0 0 1-.32-2.63v-5.4h-1.53v-2.96h5.02v7.63c0 1.1.18 1.88.52 2.37.35.48.9.72 1.66.72a3.19 3.19 0 0 0 2.9-2.04V97.6h-1.5v-2.96zm8.84 10.48h4.73V97.6h-4.73v-2.96h8.22v10.48h4.97v2.96h-13.19v-2.96zm4.09-14.13c0-.56.2-1.03.61-1.43s.99-.59 1.72-.59c.76 0 1.36.2 1.8.6a1.84 1.84 0 0 1 0 2.83 2.7 2.7 0 0 1-1.8.55 2.5 2.5 0 0 1-1.72-.55 1.8 1.8 0 0 1-.61-1.41zm18.67-1.72h5.61v11.6a36.3 36.3 0 0 0 .25 4.25h1.71v2.96h-4.32l-.35-1.72h-.1c-.19.32-.43.6-.73.86s-.65.47-1.02.65a6.26 6.26 0 0 1-2.58.58c-.85 0-1.64-.13-2.38-.4a5.15 5.15 0 0 1-1.95-1.25c-.56-.56-1-1.28-1.32-2.15a8.85 8.85 0 0 1-.48-3.07c0-1.15.18-2.17.52-3.07a6.36 6.36 0 0 1 3.64-3.7 7.5 7.5 0 0 1 2.77-.49c.56 0 1.08.03 1.57.1.5.06.92.16 1.28.3v-2.5h-2.12v-2.95zm-.73 16.23c.68 0 1.29-.17 1.82-.5s.87-.81 1.03-1.44v-5.7c-.25-.19-.6-.34-1.03-.44-.44-.1-.9-.14-1.39-.14s-.95.08-1.4.24c-.46.16-.87.41-1.22.76-.35.35-.62.8-.83 1.36a5.9 5.9 0 0 0-.31 2.04c0 1.15.29 2.07.86 2.77.57.7 1.4 1.05 2.47 1.05zm22.97 1.15c-.23.22-.53.43-.9.63a8.73 8.73 0 0 1-2.91 1.01 10.47 10.47 0 0 1-4.96-.32c-.9-.32-1.67-.8-2.3-1.41a6.17 6.17 0 0 1-1.43-2.23 8.27 8.27 0 0 1-.5-2.97c0-1.18.19-2.22.56-3.1a6.23 6.23 0 0 1 3.85-3.55 8.88 8.88 0 0 1 4.95-.17c.73.18 1.4.49 2 .92a5.08 5.08 0 0 1 1.5 1.76c.38.74.57 1.67.57 2.8 0 .77-.09 1.6-.27 2.5h-9.67c.02.57.14 1.05.36 1.45.23.4.52.71.9.97.36.25.78.43 1.25.55a7.85 7.85 0 0 0 4.16-.2 5.61 5.61 0 0 0 1.69-.92l1.15 2.28zm-5.8-9.59c-.46 0-.9.07-1.31.2a3.13 3.13 0 0 0-1.93 1.48c-.22.36-.35.77-.39 1.22h6.61c0-.9-.24-1.6-.73-2.12-.5-.52-1.25-.78-2.25-.78zm13.46-.48c0-.63.2-1.13.6-1.5.39-.36.9-.54 1.55-.54.68 0 1.22.18 1.61.55.4.36.6.86.6 1.49s-.2 1.13-.6 1.5c-.4.38-.93.57-1.6.57-.65 0-1.17-.2-1.57-.57-.4-.37-.59-.88-.59-1.5zm0 9.72c0-.62.2-1.12.6-1.49.39-.36.9-.55 1.55-.55.68 0 1.22.19 1.61.55.4.37.6.87.6 1.5s-.2 1.12-.6 1.5c-.4.37-.93.56-1.6.56-.65 0-1.17-.19-1.57-.56-.4-.38-.59-.88-.59-1.5z"/><circle cx="470.01" cy="27" r="14.09"/><circle fill="#2E9AFF" cx="505.69" cy="27" r="14.09"/><path fill="#2E9AFF" d="M301.35 294.28a2 2 0 0 1-1.77-2.92l75.21-145.15a2 2 0 0 1 3.55 1.84L303.13 293.2a2 2 0 0 1-1.77 1.08zm-27.3-5.51a2 2 0 0 1-1.94-1.55l-19.62-85.52a2 2 0 0 1 3.9-.9L276 286.33a2 2 0 0 1-1.95 2.45zm48 23.96a2 2 0 0 1-.74-3.86l74.75-29.5a2 2 0 0 1 1.47 3.73l-74.75 29.5a2 2 0 0 1-.73.13zm51.11 29.87c-.08 0-.15 0-.23-.02l-45.77-5.03a2 2 0 0 1 .44-3.97l45.77 5.03a2 2 0 0 1-.21 3.99z"/></svg>