<svg xmlns="http://www.w3.org/2000/svg" viewBox="0 0 1920 1080" xml:space="preserve"><path fill="#41E847" d="M396.448 854.407c0-4.145-.503-8.171-1.429-12.032a133.785 133.785 0 0 1-19.084-9.208 132.65 132.65 0 0 1-35.317-29.996c-26.348 2.232-47.041 24.31-47.041 51.236 0 1.317.066 2.617.163 3.909 10.851 16.297 25.479 30.442 43.518 40.991a134.544 134.544 0 0 0 12.22 6.331c26.314-2.265 46.97-24.329 46.97-51.231zM312.812 745.077c-3.875-18.892-3.68-38.662.971-57.894A132.961 132.961 0 0 0 289.6 717.42a133.34 133.34 0 0 0-12.365 28.132 51.326 51.326 0 0 0 17.147 2.939 51.292 51.292 0 0 0 18.43-3.414zM405.177 917.499c28.805-.202 57.073-9.765 80.163-27.474a51.2 51.2 0 0 0-30.628-10.114c-23.608-.001-43.487 15.909-49.535 37.588zM533.638 815.747c-11.089 10.326-23.742 18.51-37.304 24.432 3.74 8.104 11.824 13.772 21.277 14.02a132.958 132.958 0 0 0 16.027-38.452zM301.464 790.279c0-13.336-10.811-24.146-24.146-24.146-1.614 0-3.188.165-4.713.467a133.083 133.083 0 0 0 2.193 47.694c.829.086 1.669.132 2.52.132 13.335-.001 24.146-10.811 24.146-24.147zM456.068 869.328c9.29 0 16.821-7.531 16.821-16.821 0-1.124-.115-2.221-.325-3.283a92.707 92.707 0 0 0-33.225 1.528c-.06.577-.092 1.162-.092 1.755 0 9.29 7.531 16.821 16.821 16.821zM1288.623 482.194c7.219-9.591 6.193-24.358-5.006-32.277l-33.851-23.939a22.701 22.701 0 0 1-9.292-14.871l-.071-21.942.3-23.47c.24-18.816-21.199-29.74-36.28-18.486l-33.228 24.797a22.704 22.704 0 0 1-20.87 3.305l-39.265-13.315c-17.821-6.043-34.835 10.971-28.792 28.792l16.328 41.695-6.49-17.778 4.977 15.656a20.02 20.02 0 0 1-2.016 16.525c-1.464 2.387-2.789 4.036-2.789 4.036l-24.797 33.228c-5.989 8.025-5.69 17.846-1.269 25.246a23.51 23.51 0 0 0 1.391 2.069"/><path d="M960 896.415a1.99 1.99 0 0 1-1.406-.583l-446.23-446.231a1.988 1.988 0 0 1 0-2.812L958.594.559c.746-.746 2.067-.746 2.813 0l446.23 446.23a1.988 1.988 0 0 1 0 2.812l-446.23 446.231a1.986 1.986 0 0 1-1.407.583zM516.583 448.196 960 891.614l443.418-443.418L960 4.778 516.583 448.196z"/><path d="M960 1080a1.99 1.99 0 0 1-1.406-.583l-446.23-446.231a1.99 1.99 0 0 1-.583-1.406V448.196a1.99 1.99 0 0 1 3.978 0v182.761L960 1075.199l444.241-444.242V448.196a1.99 1.99 0 0 1 3.978 0v183.585a1.99 1.99 0 0 1-.583 1.406l-446.23 446.231A1.99 1.99 0 0 1 960 1080z"/><path d="M960 1080a1.99 1.99 0 0 1-1.989-1.989V894.427a1.99 1.99 0 0 1 3.978 0v183.585A1.988 1.988 0 0 1 960 1080zM719.909 701.495l-180.32-181.248a1.995 1.995 0 0 0-3.413 1.408v100.132c0 .049.011.096.014.144.005.072.008.143.021.214.011.058.029.113.045.169.019.068.035.137.062.203.023.058.054.112.082.168.03.06.057.12.094.177.04.062.089.119.136.177.031.038.055.08.09.116l.019.016.019.023 180.32 181.248a1.996 1.996 0 0 0 3.414-1.408V702.903a2.005 2.005 0 0 0-.583-1.408zM554.817 541.217v62.146l-14.647 13.798v-90.667l14.647 14.723zm161.679 256.979-175.46-176.363 14.958-14.09 160.501 160.501.001 29.952zM1382.405 516.986a2 2 0 0 0-2.178.437L987.41 912.043a1.997 1.997 0 0 0-.582 1.409v100.132a1.997 1.997 0 0 0 3.413 1.409l392.817-394.62c.374-.375.582-.881.582-1.409V518.833a2 2 0 0 0-1.235-1.847zm-2.76 6.684v90.615l-14.647-13.767v-62.134l14.647-14.714zM990.822 978.789l373.014-373.881 14.971 14.072-387.985 389.767v-29.958zM936.152 956.41a39.058 39.058 0 0 0 0 0c-2.718-30.415-46.528-92.071-99.679-139.777-33.526-30.091-62.951-47.614-80.495-49.778.085.95.21 1.931.374 2.942.411 2.525 1.066 5.232 1.951 8.1-.885-2.868-1.54-5.575-1.951-8.1a41.382 41.382 0 0 1-.374-2.941 28.635 28.635 0 0 0-3.509-.228c-8.803 0-13.77 4.801-13.557 14.894.622 29.528 45.311 93.123 99.814 142.042 35.871 32.196 67.054 50.012 84.005 50.012 8.805 0 13.769-4.806 13.556-14.901a34.048 34.048 0 0 0-.135-2.265zm-6.26 10.857c-1.504 1.536-3.913 2.315-7.161 2.315-16.503 0-47.669-18.772-81.337-48.991-26.142-23.464-50.829-51.029-69.513-77.617-18.135-25.807-28.696-48.236-28.976-61.537-.083-3.929.724-6.789 2.399-8.5 1.5-1.532 3.901-2.311 7.138-2.315 2.575 15.344 13.531 37.139 31.209 61.955 18.844 26.453 43.468 53.809 69.338 77.029 31.42 28.201 60.016 46.266 79.304 50.213-.073 3.391-.879 5.893-2.401 7.448z"/><path fill="#41E847" d="M1076.757 252.375c-13.777-52.137-61.541-89.829-116.716-89.829-55.174 0-102.938 37.691-116.716 89.828l-.002-.674c0-64.359 52.359-116.718 116.718-116.718s116.718 52.359 116.718 116.718l-.002.675z"/><path d="M960.041 164.543c64.987 0 117.669 46.086 117.669 102.936s-52.682 102.936-117.669 102.936-114.669-64.753-114.669-102.936c0-56.85 49.682-102.936 114.669-102.936zM1240.474 411.106l.229-17.934a23.535 23.535 0 0 0-.3-4.008l-.23 17.987a22.7 22.7 0 0 0 .301 3.955z"/><path d="m1094.372 474.943-26.769 36.522c4.066 5.397 10.526 9.065 18.364 8.965l41.457-.53a22.703 22.703 0 0 1 18.827 9.593l23.939 33.851c10.865 15.364 34.631 11.6 40.217-6.37l12.307-39.592a22.702 22.702 0 0 1 14.941-14.941l39.592-12.307c4.872-1.514 8.69-4.372 11.375-7.94a23.038 23.038 0 0 0-5.006-4.799l-33.851-23.939a22.706 22.706 0 0 1-9.593-18.827l.301-23.523a22.7 22.7 0 0 1-.301-3.955l.23-17.987c-2.589-16.287-22.007-24.905-35.98-14.478l-33.228 24.797a22.704 22.704 0 0 1-20.87 3.305l-39.265-13.315c-10.566-3.583-20.848.94-26.209 8.931l10.732 31.647c1.133 3.34 3.016 6.292 2.57 9.688l.725 25.194c.1 3.394-2.498 7.272-4.505 10.01z"/><path fill="#41E847" d="M959.877 709.645c-62.987 0-117.042-44.792-128.672-106.562a130.755 130.755 0 0 1 4.223-16.458c9.792 23.341 25.85 43.331 46.693 58.055 22.825 16.123 49.713 24.646 77.756 24.646s54.931-8.523 77.756-24.646c20.843-14.722 36.901-34.714 46.693-58.054a131.349 131.349 0 0 1 4.224 16.457c-11.632 61.77-65.687 106.562-128.673 106.562z"/><path d="M1090.58 603.083a132.149 132.149 0 0 0-6.139-22.168c-18.862 50.472-67.513 86.413-124.565 86.413s-105.703-35.941-124.565-86.413a132.08 132.08 0 0 0-6.139 22.168 133.475 133.475 0 0 0-2.239 24.362c0 73.422 59.521 132.943 132.943 132.943s132.943-59.521 132.943-132.943a133.395 133.395 0 0 0-2.239-24.362m-257.343 0c.692-3.615 1.54-7.204 2.537-10.741 10.062 21.566 25.53 40.08 45.194 53.969 23.164 16.363 50.45 25.011 78.908 25.011s55.744-8.649 78.908-25.011c19.663-13.889 35.131-32.402 45.194-53.969a129.145 129.145 0 0 1 2.537 10.741c-11.598 60.636-64.738 104.564-126.639 104.564-61.901.001-115.041-43.927-126.639-104.564z"/><path fill="#41E847" d="m727.769 359.995-104.814 103.96-14.957-15.094 120.393-119.414 210.559 124.55-27.85 14.44z"/><path d="M728.08 326.943 605.174 448.849l17.769 17.932 100.363 101.282 187.73-97.342 32.031-16.609L728.08 326.943zm2.034 32.117-2.656-1.571-2.191 2.173-102.3 101.468-12.146-12.257 117.881-116.921 206.131 121.93-23.669 12.273-181.05-107.095z"/><path fill="#FFF" d="M791.652 400.769s-58.357 38.801-112.486-74.686c-93.719-176.378-195.271-171.756-207.599-170.489a78.82 78.82 0 0 1-3.222.253c-47.635 2.91-84.44 43.381-82.571 91.309 1.831 46.939 40.086 83.858 86.488 84.602 5.364.086 10.715.408 16.026 1.164 24.993 3.557 87.209 16.974 134.955 65.379 61.159 62.003 137.272 101.96 219.27 32.114M880.215 335.72s38.333-22.721 26.662-64.241c-6.489-23.085 6.947-58.417 26.471-76.078 3.435-3.107 8.61.963 6.38 5.023-9.011 16.402-18.056 44.4-6.845 76.474 17.202 49.21-24.083 79.522-24.083 79.522"/><path d="M960.041 132.985c-65.565 0-118.715 53.151-118.715 118.715 0 5.351.36 10.616 1.046 15.779 7.718 58.104 57.455 102.937 117.669 102.937s109.952-44.832 117.669-102.937a119.73 119.73 0 0 0 1.046-15.779c0-65.565-53.15-118.715-118.715-118.715zm-81.12 37.595c21.668-21.668 50.477-33.601 81.12-33.601s59.452 11.933 81.12 33.601c18.265 18.265 29.613 41.605 32.727 66.84a122.92 122.92 0 0 0-32.682-46.194 122.56 122.56 0 0 0-81.164-30.679c-29.927 0-58.752 10.895-81.164 30.679a122.902 122.902 0 0 0-32.682 46.194c3.112-25.234 14.46-48.575 32.725-66.84zm156.997 167.162c-20.952 18.494-47.899 28.679-75.877 28.679s-54.925-10.185-75.877-28.679c-20.635-18.214-34.031-43.149-37.761-70.263 3.73-27.114 17.126-52.048 37.761-70.262 20.952-18.494 47.899-28.679 75.877-28.679s54.925 10.185 75.877 28.679c20.635 18.214 34.031 43.148 37.761 70.262-3.729 27.114-17.126 52.049-37.761 70.263zM1358.995 874.2l558.451-296.131-.556-1.053-39.697-74.855-558.455 296.13zM1356.059 877.198l-39.745-74.946-18.397 59.93 40.869 77.064zM1918.999 581.773l-559.08 296.462-17.361 62.367 557.516-295.632 19.377-63.125.134-.389z"/><circle cx="415.576" cy="246.459" r="8.278"/><circle cx="474.86" cy="246.459" r="8.278"/><circle fill="#41E847" cx="444.76" cy="255.913" r="10.159"/><path d="M444.473 279.027c-7.055 0-13.53-3.242-17.765-8.893a1.997 1.997 0 0 1 3.197-2.395c3.473 4.635 8.784 7.294 14.568 7.294a18.188 18.188 0 0 0 15.086-8.021 1.997 1.997 0 1 1 3.31 2.236 22.18 22.18 0 0 1-18.396 9.779z"/><ellipse transform="rotate(-7.579 324.967 859.38)" cx="324.98" cy="859.411" rx="5.596" ry="4.692"/><ellipse transform="rotate(-7.579 358.153 839.3)" cx="358.166" cy="839.331" rx="5.596" ry="4.692"/><ellipse transform="rotate(-7.579 344.857 853.816)" fill="#FFF" cx="344.87" cy="853.848" rx="6.868" ry="5.759"/><path d="M337.882 872.441h-.099a1.999 1.999 0 0 1-1.971-2.024 1.98 1.98 0 0 1 2.022-1.971c.258-.03 20.164-.003 26.332-15.938a1.999 1.999 0 0 1 3.726 1.441c-2.989 7.722-9.168 13.372-17.868 16.337-6.071 2.072-11.337 2.155-12.142 2.155z"/><path d="M534.088 814.088a2.002 2.002 0 0 0-2.178 1.515 131.283 131.283 0 0 1-14.303 35.428c-36.518 62.449-117.034 83.545-179.482 47.028-40.726-23.815-65.622-67.952-64.971-115.185.013-1.016-.824-1.892-1.832-2.02a1.996 1.996 0 0 0-2.248 2.008l1.076 78.73c.053 4.673.49 9.238 1.299 13.567 7.26 38.847 31.032 72.471 65.219 92.248 20.699 11.974 43.784 18.099 67.231 18.099 11.362 0 22.812-1.439 34.115-4.346 34.625-8.91 63.785-30.562 82.11-60.967a135.345 135.345 0 0 0 15.669-38.077c.037-.153.056-.311.056-.469v-65.575a1.998 1.998 0 0 0-1.761-1.984z"/><ellipse transform="rotate(-4.997 1567.585 692.767)" fill="#FFF" cx="1567.52" cy="692.935" rx="11.886" ry="9.967"/><ellipse transform="rotate(-4.997 1639.914 653.32)" fill="#FFF" cx="1639.853" cy="653.495" rx="11.886" ry="9.967"/><ellipse transform="rotate(-4.997 1610.32 682.858)" fill="#41E847" cx="1610.256" cy="683.03" rx="14.588" ry="12.232"/><path fill="#FFF" d="M1593.627 717.69s45.481 2.649 61.525-33.828l-61.525 33.828zM404.125 919.053c-23.681 0-47.033-6.276-68.017-18.546-64.349-37.63-86.088-120.597-48.458-184.947a135.312 135.312 0 0 1 24.589-30.745 1.997 1.997 0 0 1 3.302 1.931c-6.491 26.841-4.186 55.736 6.491 81.362 11.035 26.488 29.998 48.167 54.838 62.692 24.84 14.525 53.029 20.424 81.527 17.05 27.57-3.261 53.884-15.421 74.092-34.24a1.997 1.997 0 0 1 3.302 1.931 135.259 135.259 0 0 1-14.737 36.507c-18.229 31.173-47.506 53.38-82.437 62.533-11.417 2.991-22.995 4.471-34.492 4.472zm-93.874-226.702a131.504 131.504 0 0 0-19.154 25.225c-36.518 62.448-15.422 142.964 47.027 179.482 30.25 17.69 65.58 22.543 99.48 13.658 33.9-8.882 62.312-30.434 80.002-60.686a131.46 131.46 0 0 0 12.591-29.061c-20.072 16.866-45.152 27.752-71.331 30.848-29.362 3.477-58.416-2.601-84.013-17.569-25.596-14.968-45.136-37.308-56.509-64.603-10.138-24.335-12.95-51.53-8.093-77.294z"/><path fill="#41E847" d="m235.68 259.232-120.3-46.202L2.581 506.734l120.3 46.202m-10.849-156.162c-6.107-3.529-8.714-12.26-5.822-19.501s10.187-10.25 16.294-6.72c6.107 3.529 8.714 12.261 5.822 19.501-2.892 7.241-10.187 10.249-16.294 6.72z"/><path fill="#FFF" d="M122.164 554.801 0 507.882 114.231 210.45l122.165 46.917-1.433 3.729-118.435-45.486L5.161 505.585l118.436 45.487-1.433 3.729zm-4.766-154.55c-2.184 0-4.359-.588-6.365-1.748-6.922-4-9.917-13.857-6.677-21.972 1.693-4.236 4.874-7.432 8.728-8.767 3.464-1.199 7.164-.823 10.42 1.059 6.923 4 9.918 13.857 6.678 21.972-1.692 4.237-4.873 7.432-8.727 8.767a12.37 12.37 0 0 1-4.057.689zm-.27-29.177c-.921 0-1.842.154-2.738.464-2.758.955-5.063 3.315-6.325 6.475-2.534 6.344-.306 13.985 4.966 17.032 2.237 1.294 4.764 1.556 7.115.742 2.758-.955 5.063-3.315 6.325-6.474 2.534-6.345.306-13.986-4.966-17.033-1.385-.799-2.881-1.206-4.377-1.206z"/><ellipse transform="rotate(-1.812 122.113 340.02)" cx="122.017" cy="340.058" rx="9.967" ry="11.886"/><ellipse transform="rotate(-1.812 91.578 416.542)" cx="91.46" cy="416.569" rx="9.967" ry="11.886"/><path fill="#FFF" d="M233.333 260.512c-.243 0-.486-.044-.716-.133l-118.032-45.331a1.998 1.998 0 0 1-.096-3.689l45.545-20.269a1.995 1.995 0 0 1 1.543-.034l120.471 47.38a1.997 1.997 0 0 1-.022 3.727l-47.985 18.22a2.002 2.002 0 0 1-.708.129zm-112.814-47.463 112.817 43.328 42.44-16.115-114.883-45.181-40.374 17.968z"/><path fill="#FFF" d="M122.881 554.933a1.997 1.997 0 0 1-1.867-2.706l111.428-293.282a2 2 0 0 1 1.106-1.138l47.009-19.359a1.998 1.998 0 0 1 2.626 2.563L229.82 379.956c14.99 4.659 43.219 17.511 76.798 52.585 11.134 11.63 49.157 49.156 71.064 43.853 3.327-.807 6.709-.199 9.281 1.667 2.03 1.473 3.857 4.356 3.362 7.478-.361 2.275-2.083 5.406-8.235 7.397-12.57 4.069-28.689 2.501-46.615-4.531-15.519-6.089-32.473-16.361-47.739-28.923-25.644-21.101-59.094-26.646-77.69-28.037l-38.61 100.532a1.994 1.994 0 0 1-1.024 1.096l-46.69 21.675c-.27.125-.556.185-.841.185zm112.988-293.762L126.49 549.058l41.506-19.268 38.85-101.158a1.99 1.99 0 0 1 1.997-1.278c18.737 1.241 54.233 6.663 81.431 29.044 39.905 32.837 72.958 38.441 90.585 32.737 3.297-1.067 5.257-2.567 5.519-4.223.218-1.378-.721-2.863-1.762-3.618-1.623-1.178-3.81-1.548-5.994-1.019-7.766 1.885-30.617 1.275-74.89-44.973-34.559-36.099-63.138-48.155-77.097-52.128a2 2 0 0 1-1.318-2.637l52.474-136.631-41.922 17.265z"/><path d="M118.184 421.706a1.997 1.997 0 0 1-.677-3.877c.173-.062 17.379-6.381 23.15-18.187 6.053-12.38 3.507-27.594.872-32.623a1.997 1.997 0 1 1 3.538-1.853c3.664 6.993 5.416 23.473-.821 36.232-6.489 13.273-24.618 19.915-25.387 20.191a2.02 2.02 0 0 1-.675.117zM1294.911 464.499c-1.024-6.555-4.626-12.312-10.141-16.212l-33.851-23.939c-4.463-3.157-7.533-8.053-8.449-13.445l-.064-22.115.294-23.068c.121-9.471-5.046-18.025-13.485-22.324-8.438-4.299-18.396-3.451-25.986 2.213L1170 370.404a20.705 20.705 0 0 1-19.033 3.013l-39.265-13.315c-8.969-3.04-18.702-.769-25.399 5.927-6.697 6.697-8.967 16.43-5.894 25.486l11.849 30.255 2.922 9.194a18 18 0 0 1-1.815 14.876c-1.372 2.238-2.631 3.813-2.687 3.885l-24.797 33.229c-6.095 8.168-6.626 18.692-1.384 27.466.455.761.952 1.499 1.476 2.198l.002.003c.011.015.021.031.033.046l.002-.001c4.011 5.624 10.899 7.29 16.692 7.574 1.059.133 2.146.204 3.264.19l41.457-.53a22.706 22.706 0 0 1 18.827 9.593l23.939 33.851c10.865 15.364 34.631 11.6 40.217-6.37l12.307-39.592a22.702 22.702 0 0 1 14.941-14.941l27.951-8.688c19.758-4.575 24.167-9.768 24.611-10.355l-.119-.092.12.09c4.025-5.347 5.736-12.235 4.694-18.897zm-227.343 46.99.034-.025.001.001-.035.024zm26.804-36.546-25.515 34.811c-.321-.452-.644-.903-.93-1.382-4.396-7.358-3.953-16.182 1.156-23.028l24.753-33.172c.057-.071 1.423-1.775 2.936-4.242a22.08 22.08 0 0 0 1.533-3l.576 20.004c.096 3.393-2.502 7.271-4.509 10.009zm144.114-91.917c-5.818-12.121-21.974-17.361-34.063-8.34l-33.228 24.797a22.704 22.704 0 0 1-20.87 3.305l-39.264-13.315c-9.553-3.239-18.86.159-24.522 6.744l-2.378-6.072c-2.588-7.632-.731-15.592 4.968-21.291 5.698-5.7 13.654-7.559 21.291-4.968l39.265 13.314a24.688 24.688 0 0 0 22.706-3.596l33.229-24.797c6.459-4.821 14.604-5.512 21.783-1.855 7.182 3.659 11.408 10.656 11.304 18.715l-.221 17.359zm48.794 97.592a23.275 23.275 0 0 0-3.663-3.223l-33.851-23.939a22.706 22.706 0 0 1-9.593-18.827l.217-17.009c1.803 3.968 4.634 7.45 8.221 9.988l33.852 23.939c4.626 3.271 7.644 8.09 8.5 13.568a21.106 21.106 0 0 1-3.683 15.503z"/><path fill="none" d="M1450.554 230.998c10.494 0 19.001-8.507 19.001-19.001h-38.002c0 10.494 8.507 19.001 19.001 19.001z"/><path fill="#41E847" d="M1579.82 166.343c15.255-14.384 7.394-40.016-13.302-43.375l-51.229-8.314a25.3 25.3 0 0 1-18.815-14.152l-22.194-46.915c-8.966-18.953-35.773-19.398-45.363-.753l-23.738 46.153a25.296 25.296 0 0 1-19.274 13.52l-51.477 6.61c-20.796 2.67-29.503 28.028-14.734 42.91l36.558 36.838a25.298 25.298 0 0 1 6.903 22.509l-9.621 51c-3.887 20.603 17.539 36.72 36.257 27.273l24.427-12.329 21.905-11.056a25.296 25.296 0 0 1 23.54.391l19.854 10.862 25.677 14.048c18.394 10.063 40.343-5.334 37.141-26.055l-7.924-51.291a25.297 25.297 0 0 1 7.646-22.267l37.763-35.607z"/><path fill="#FFF" d="M1581.191 167.796c7.614-7.18 10.438-17.856 7.369-27.861-3.068-10.005-11.392-17.263-21.722-18.939l-51.229-8.314a23.29 23.29 0 0 1-17.329-13.035l-22.194-46.914c-4.475-9.46-13.756-15.445-24.22-15.619-10.497-.135-19.938 5.5-24.724 14.806l-23.739 46.153a23.298 23.298 0 0 1-17.753 12.454l-51.477 6.609c-10.38 1.333-18.94 8.31-22.338 18.209-3.398 9.898-.93 20.661 6.442 28.089l36.558 36.838a23.297 23.297 0 0 1 6.359 20.731l-9.622 51c-1.939 10.284 2.05 20.582 10.414 26.872 8.364 6.291 19.363 7.271 28.706 2.554l23.224-11.722c-8.906 64.511-92.455 82.662-149.362 103.286-52.714 19.105-74.486 44.839-83.475 62.552-1.325 2.612 2.188 4.991 4.123 2.793 13.753-15.624 45.104-37.558 115.611-48.098 16.435-2.457 32.697-6.028 48.523-11.096 99.35-31.813 123.739-84.751 129.72-109.608l25.181 13.777c4.131 2.259 8.635 3.379 13.121 3.379 5.484 0 10.941-1.673 15.655-4.98 8.566-6.009 12.897-16.168 11.299-26.511l-7.924-51.291a23.295 23.295 0 0 1 7.042-20.509l37.761-35.605zm-48.75 56.725 7.924 51.291c1.385 8.963-2.221 17.423-9.646 22.631-7.425 5.207-16.607 5.719-24.564 1.365l-45.531-24.91a27.295 27.295 0 0 0-25.4-.42l-46.333 23.386c-8.097 4.087-17.256 3.271-24.504-2.181-7.247-5.452-10.57-14.027-8.888-22.939l9.621-51a27.297 27.297 0 0 0-7.448-24.287l-36.558-36.838c-6.389-6.436-8.444-15.4-5.499-23.977 2.945-8.579 10.073-14.389 19.069-15.545l51.477-6.609a27.29 27.29 0 0 0 20.795-14.588l23.74-46.151c4.148-8.065 12.076-12.816 21.105-12.639 9.068.151 16.797 5.135 20.676 13.333l22.194 46.914a27.286 27.286 0 0 0 20.3 15.27l51.229 8.314c8.951 1.452 15.884 7.496 18.542 16.167 2.66 8.671.309 17.561-6.29 23.783l-37.761 35.605a27.29 27.29 0 0 0-8.25 24.025z"/><path d="M1450.347 199.16a1.997 1.997 0 0 1-1.997-1.997v-20.217a1.997 1.997 0 1 1 3.994 0v20.217a1.996 1.996 0 0 1-1.997 1.997z"/><circle cx="1406.559" cy="187.728" r="11.126"/><circle cx="1493.553" cy="187.728" r="11.126"/><path fill="#FFF" d="M1469.555 211.997c0 10.494-8.507 19.001-19.001 19.001s-19.001-8.507-19.001-19.001h38.002z"/><path fill="#41E847" d="M160.841 702.932c-3.072 0-6.195-.487-9.28-1.489-8.489-2.761-14.355-8.643-16.966-17.007-4.353-13.945.809-33.255 8.792-46.046-9.21-.336-19.277.861-29.388 3.736-14.333 4.076-26.747 11.003-35.9 20.033-10.396 10.257-16.005 22.539-16.67 36.504-.052 1.102-.969 1.932-2.09 1.901a1.998 1.998 0 0 1-1.9-2.09c.704-14.789 6.878-28.329 17.854-39.158 9.63-9.5 22.636-16.772 37.612-21.031 11.389-3.238 22.769-4.405 33.087-3.701l.159-.21c10.129-13.291 25.377-22.755 42.935-26.65 10.077-2.236 21.13-2.759 32.855-1.551 13.49 1.389 26.946 4.864 39.957 8.225 12.968 3.349 26.377 6.813 39.842 8.22 30.598 3.2 54.917-3.274 72.281-19.243 5.113-4.701 9.544-10.289 13.168-16.608a1.997 1.997 0 1 1 3.465 1.988c-3.828 6.675-8.515 12.583-13.93 17.561-18.243 16.776-43.611 23.598-75.4 20.274-13.761-1.438-27.316-4.941-40.426-8.327-12.869-3.324-26.176-6.76-39.367-8.119-11.297-1.162-21.922-.666-31.581 1.477-15.855 3.518-29.701 11.8-39.24 23.423 14.403 1.852 26.253 7.553 32.401 16.509 10.781 15.703 7.558 30.752.946 39.598-5.679 7.601-14.217 11.78-23.216 11.781zm-12.878-64.243c-7.982 11.699-13.715 31.229-9.555 44.556 2.24 7.178 7.081 12.022 14.389 14.399 10.47 3.408 21.484-.081 28.062-8.884 5.784-7.739 8.548-20.982-1.039-34.946-5.853-8.526-17.585-13.765-31.857-15.125zM1538.962 518.493a1.996 1.996 0 0 1-1.91-2.583l21.966-71.756a2 2 0 0 1 2.287-1.377l74.177 14.265 12.81-68.318a1.999 1.999 0 0 1 2.434-1.574l88.856 21.497 15.635-63.962a1.996 1.996 0 1 1 3.88.948l-16.108 65.898a1.998 1.998 0 0 1-2.41 1.468l-88.748-21.471-12.791 68.223a1.996 1.996 0 0 1-2.341 1.593l-74.386-14.305-21.441 70.04a2 2 0 0 1-1.91 1.414z"/><path fill="none" d="m679.361 144.538-98.114-70.291"/><path fill="#41E847" d="M679.36 146.536c-.403 0-.809-.121-1.161-.374l-98.115-70.291a1.998 1.998 0 1 1 2.326-3.247l98.115 70.291a1.998 1.998 0 0 1-1.165 3.621z"/><path fill="none" d="m714.507 116.714-36.61-68.826"/><path fill="#41E847" d="M714.509 118.712a1.996 1.996 0 0 1-1.765-1.059l-36.61-68.826a1.996 1.996 0 1 1 3.526-1.876l36.61 68.826a1.996 1.996 0 0 1-1.761 2.935z"/></svg>