<svg xmlns="http://www.w3.org/2000/svg" viewBox="0 0 1080 1080" xml:space="preserve"><path fill="#41E847" d="M775.581 506.543c5.465-7.261 4.688-18.441-3.79-24.436l-25.628-18.124a17.19 17.19 0 0 1-7.035-11.259l-.054-16.612.227-17.769c.182-14.245-16.049-22.515-27.467-13.995l-25.156 18.773a17.189 17.189 0 0 1-15.8 2.502l-29.726-10.08c-13.492-4.575-26.373 8.306-21.798 21.798l12.362 31.566-4.914-13.459 3.768 11.853a15.155 15.155 0 0 1-1.526 12.511c-1.108 1.807-2.112 3.056-2.112 3.056l-18.773 25.156c-4.534 6.076-4.308 13.511-.961 19.113.323.54.674 1.063 1.053 1.566"/><path d="M526.789 823.982a1.992 1.992 0 0 1-1.414-.586L186.111 484.133a2 2 0 0 1 0-2.828l339.264-339.264a2 2 0 0 1 2.828 0l339.264 339.264a2 2 0 0 1 0 2.828L528.203 823.396a1.992 1.992 0 0 1-1.414.586zM190.354 482.719 526.79 819.155l336.436-336.436-336.437-336.436-336.435 336.436z"/><path d="M526.789 963.559a1.992 1.992 0 0 1-1.414-.586L186.111 623.71a2 2 0 0 1-.586-1.414V482.719a2 2 0 0 1 4 0v138.749l337.264 337.264 337.264-337.264V482.719a2 2 0 0 1 4 0v139.577a2 2 0 0 1-.586 1.414L528.203 962.973a1.992 1.992 0 0 1-1.414.586z"/><path d="M526.789 963.559a2 2 0 0 1-2-2V821.982a2 2 0 0 1 4 0v139.577a2 2 0 0 1-2 2zM345.369 672.225 208.854 535.007a2 2 0 0 0-3.418 1.411v75.808c0 .049.011.097.014.146.005.071.008.142.021.212.011.059.03.115.045.172.019.067.035.135.061.2.023.059.054.113.083.169.03.06.057.12.094.177.038.06.085.113.129.169.033.041.059.086.096.125.006.007.014.011.021.018.007.006.011.014.017.021l136.516 137.219a1.995 1.995 0 0 0 2.181.439 2 2 0 0 0 1.237-1.849v-75.808c0-.529-.209-1.037-.582-1.411zM220.037 551.919v45.689l-10.601 9.986v-66.331l10.601 10.656zm-9.734 60.352 10.97-10.333 120.678 120.678v21.982L210.303 612.271zM846.768 532.432a2 2 0 0 0-2.181.438L547.195 831.626a1.997 1.997 0 0 0-.583 1.411v75.808a2 2 0 0 0 3.417 1.411l297.392-298.757c.374-.375.583-.882.583-1.411v-75.807a2 2 0 0 0-1.236-1.849zm-2.764 6.693v66.293l-10.522-9.891c-.025-.023-.053-.039-.079-.06v-45.692l10.601-10.65zM550.612 882.012l281.566-282.22 10.979 10.32-292.545 293.889v-21.989zM508.735 865.559c-2.058-23.026-35.225-69.704-75.465-105.822-25.382-22.781-47.658-36.047-60.94-37.686a21.687 21.687 0 0 0-2.656-.173c-6.664 0-10.425 3.635-10.264 11.276.471 22.355 34.303 70.501 75.567 107.537 27.157 24.375 50.765 37.863 63.598 37.863 6.666 0 10.424-3.638 10.263-11.281a26.599 26.599 0 0 0-.103-1.714M387.833 758.258zm5.422 8.242zm110.043 106.596c-.948.968-2.538 1.459-4.724 1.459-9.611 0-30.664-9.678-60.926-36.84-19.738-17.716-38.376-38.526-52.48-58.597-13.62-19.383-21.552-36.167-21.76-46.047-.039-1.858.196-4.361 1.539-5.732.823-.841 2.13-1.322 3.892-1.434 2.94 15.597 15.842 35.512 23.647 46.469 14.307 20.084 33 40.851 52.636 58.476 23.461 21.058 44.911 34.7 59.675 38.066-.118 1.534-.506 3.166-1.499 4.18z"/><path fill="#41E847" d="M439 328.884c1.667-47 40.422-84.718 87.821-84.718 47.396 0 86.149 37.722 87.82 84.718-11.661-37.837-47.087-64.826-87.82-64.826-40.734-.001-76.16 26.989-87.821 64.826z"/><ellipse cx="526.821" cy="343.988" rx="89.084" ry="77.93"/><path d="m739.129 452.724.174-13.578a17.89 17.89 0 0 0-.227-3.034l-.174 13.617a17.224 17.224 0 0 0 .227 2.995z"/><path d="m628.519 501.053-20.266 27.65c3.079 4.086 7.969 6.863 13.903 6.787l31.386-.401a17.187 17.187 0 0 1 14.253 7.262l18.124 25.628c8.226 11.631 26.218 8.782 30.447-4.822l9.317-29.974a17.19 17.19 0 0 1 11.312-11.312l29.974-9.317c3.688-1.147 6.579-3.31 8.612-6.011a17.448 17.448 0 0 0-3.79-3.633l-25.628-18.124a17.186 17.186 0 0 1-7.262-14.253l.228-17.809a17.224 17.224 0 0 1-.228-2.995l.174-13.617c-1.96-12.331-16.661-18.855-27.24-10.961l-25.156 18.773a17.189 17.189 0 0 1-15.8 2.502l-29.726-10.08c-7.999-2.713-15.783.712-19.842 6.761l8.125 23.959c.858 2.529 2.284 4.763 1.946 7.335l.549 19.074c.074 2.569-1.892 5.506-3.412 7.578z"/><path d="M621.18 535.869c-4.759 0-11.059-1.062-14.56-6.011l3.266-2.311c4.492 6.351 16.592 3.843 16.713 3.815l.838 3.912c-.251.055-2.863.595-6.257.595zM737.097 433.206l4-.012.059 19.495-4 .012z"/><path fill="#41E847" d="M526.696 678.252c-47.419 0-88.118-33.702-96.917-80.187a98.658 98.658 0 0 1 2.767-11.069c16.178 37.124 53.348 61.707 94.15 61.707s77.973-24.583 94.15-61.707a98.658 98.658 0 0 1 2.767 11.069c-8.798 46.486-49.497 80.187-96.917 80.187z"/><path d="M625.649 598.065a99.94 99.94 0 0 0-4.648-16.783c-14.28 38.211-51.112 65.421-94.305 65.421s-80.025-27.21-94.305-65.421a100.13 100.13 0 0 0-4.648 16.783 101.06 101.06 0 0 0-1.696 18.444c0 55.586 45.062 100.648 100.648 100.648s100.648-45.062 100.648-100.648a100.964 100.964 0 0 0-1.694-18.444m-193.834 0a97.22 97.22 0 0 1 1.19-5.339c7.696 15.465 19.091 28.762 33.389 38.862 17.703 12.505 38.555 19.114 60.302 19.114s42.6-6.61 60.302-19.114c14.298-10.1 25.693-23.397 33.389-38.862a96.305 96.305 0 0 1 1.19 5.339c-8.764 45.351-48.548 78.187-94.881 78.187s-86.117-32.835-94.881-78.187z"/><path fill="#41E847" d="m350.897 413.417-79.272 78.628-10.637-10.735 90.533-89.796 158.327 93.653-20.064 10.403z"/><path d="m271.613 494.874 75.982 76.678 142.125-73.695m0 0 24.25-12.574-162.761-96.276-93.049 92.292 13.452 13.575m78.974-83.965-2.194 2.176-76.755 76.131-7.821-7.893 88.016-87.301 153.892 91.03-15.876 8.232-136.603-80.803-2.659-1.572z"/><path fill="#FFF" d="M466.387 395.651s29.021-17.201 20.185-48.635c-4.913-17.477 5.26-44.226 20.041-57.597 2.601-2.353 6.519.729 4.83 3.803-6.822 12.418-13.67 33.614-5.182 57.896 13.023 37.256-18.233 60.204-18.233 60.204"/><path d="M526.821 242.166c-49.637 0-89.876 40.239-89.876 89.876 0 4.051.273 8.037.792 11.946 5.843 43.989 43.498 77.93 89.084 77.93 45.587 0 83.242-33.941 89.084-77.93.519-3.909.792-7.895.792-11.946 0-49.637-40.239-89.876-89.876-89.876zm0 4c41.127 0 75.594 29.059 83.946 67.724a94.09 94.09 0 0 0-21.853-28.362c-17.146-15.135-39.198-23.47-62.093-23.47s-44.947 8.335-62.093 23.47a94.107 94.107 0 0 0-21.853 28.362c8.352-38.665 42.819-67.724 83.946-67.724zM583.62 396.45c-15.684 13.844-35.855 21.468-56.799 21.468s-41.115-7.624-56.799-21.468c-15.413-13.605-25.431-32.219-28.249-52.462 2.818-20.244 12.836-38.857 28.249-52.462a85.764 85.764 0 0 1 56.799-21.468 85.764 85.764 0 0 1 56.799 21.468c15.413 13.605 25.431 32.219 28.249 52.462-2.818 20.244-12.836 38.858-28.249 52.462z"/><path fill="#FFF" d="M394.842 441.278s-49.141 54.153-119.982-33.401C156.405 273.804 68.912 299.03 58.438 302.706c-.91.32-1.831.611-2.754.893-40.886 12.479-64.497 55.415-52.864 96.773 11.393 40.504 52.423 64.678 92.997 55.639 4.69-1.045 9.418-1.882 14.202-2.332 22.513-2.119 79.508-3.42 131.202 28.777 66.216 41.242 142.387 64.072 199.232-13.885"/><circle cx="28.636" cy="393.544" r="7.414"/><circle cx="80.275" cy="381.168" r="7.414"/><circle fill="#41E847" cx="56.03" cy="395.686" r="9.1"/><path d="M58.339 422.463c-4.307 0-8.487-1.493-11.909-4.332a1.998 1.998 0 1 1 2.552-3.078c3.61 2.993 8.291 4.088 12.848 2.993a14.723 14.723 0 0 0 10.364-9.162 2 2 0 0 1 3.744 1.406 18.718 18.718 0 0 1-13.177 11.646 18.943 18.943 0 0 1-4.422.527zM653.514 1031.998l-30.09-56.739-13.927 45.371 30.941 58.343zM657.402 1032.277l-13.143 47.216 419.542-222.84 14.67-47.79zM656.229 1028.091l421.876-223.352-.421-.798-29.633-55.873-421.879 223.351z"/><ellipse transform="rotate(-4.997 813.699 892.418)" fill="#FFF" cx="813.609" cy="892.507" rx="8.999" ry="7.546"/><ellipse transform="rotate(-4.997 868.458 862.553)" fill="#FFF" cx="868.371" cy="862.648" rx="8.999" ry="7.546"/><ellipse transform="rotate(-4.997 846.052 884.916)" fill="#41E847" cx="845.964" cy="885.008" rx="11.044" ry="9.261"/><path fill="#FFF" d="M833.371 911.239s34.433 2.006 46.579-25.611l-46.579 25.611z"/><path fill="#41E847" d="M210.113 932.584c0-3.144-.382-6.197-1.084-9.125a101.448 101.448 0 0 1-14.474-6.984 100.553 100.553 0 0 1-26.785-22.75c-19.983 1.693-35.677 18.438-35.677 38.859 0 .999.05 1.985.124 2.965 8.229 12.36 19.324 23.089 33.005 31.089a101.992 101.992 0 0 0 9.268 4.801c19.957-1.717 35.623-18.451 35.623-38.855zM146.68 849.665c-2.939-14.328-2.791-29.323.737-43.909a100.835 100.835 0 0 0-18.341 22.933 101.126 101.126 0 0 0-9.378 21.336 38.926 38.926 0 0 0 13.005 2.229c4.927 0 9.637-.922 13.977-2.589zM216.734 980.436c21.847-.153 43.286-7.406 60.798-20.838a38.835 38.835 0 0 0-23.229-7.671c-17.906 0-32.982 12.067-37.569 28.509zM314.163 903.263c-8.41 7.832-18.007 14.039-28.293 18.53 2.837 6.147 8.968 10.446 16.137 10.633a100.807 100.807 0 0 0 12.156-29.163zM138.074 883.948c0-10.114-8.199-18.313-18.313-18.313a18.37 18.37 0 0 0-3.574.354 100.95 100.95 0 0 0 1.663 36.173c.628.065 1.266.1 1.911.1 10.114-.001 18.313-8.2 18.313-18.314zM255.332 943.901c7.046 0 12.758-5.712 12.758-12.758 0-.853-.087-1.684-.247-2.49a70.318 70.318 0 0 0-25.199 1.159c-.045.438-.07.882-.07 1.331 0 7.046 5.712 12.758 12.758 12.758z"/><ellipse transform="rotate(-7.579 156.015 936.807)" cx="156.02" cy="936.841" rx="4.237" ry="3.552"/><ellipse transform="rotate(-7.579 181.137 921.604)" cx="181.144" cy="921.638" rx="4.237" ry="3.552"/><ellipse transform="rotate(-7.579 171.072 932.595)" fill="#FFF" cx="171.079" cy="932.629" rx="5.199" ry="4.36"/><path d="M165.797 947.183h-.077a2 2 0 0 1 .025-4h.039c.268 0 3.993-.028 8.188-1.48 5.59-1.936 9.383-5.392 11.272-10.273a2.001 2.001 0 0 1 3.731 1.443c-2.317 5.985-7.098 10.361-13.825 12.654-4.669 1.592-8.73 1.656-9.353 1.656z"/><path d="M314.399 902.277a2.004 2.004 0 0 0-2.181 1.516 98.917 98.917 0 0 1-10.774 26.69c-27.513 47.047-88.169 62.94-135.214 35.429-30.681-17.941-49.436-51.191-48.946-86.775.014-1.009-.79-1.879-1.789-2.018a2.003 2.003 0 0 0-1.599.482c-.437.386-.684.943-.676 2.526l.814 59.604c.041 2.566.374 6.05.991 9.355 5.523 29.551 23.606 55.127 49.611 70.171 16.029 9.273 33.648 13.681 51.087 13.68 35.006 0 69.278-17.764 88.463-49.596a102.956 102.956 0 0 0 11.92-28.963c.037-.154.056-.312.056-.471v-49.645a2 2 0 0 0-1.763-1.985z"/><path fill="#FFF" d="M215.95 982.408c-17.62 0-35.462-4.525-51.739-14.043-48.949-28.625-65.485-91.736-36.861-140.687a103.009 103.009 0 0 1 18.704-23.387 2 2 0 0 1 3.308 1.933c-4.891 20.22-3.153 41.988 4.891 61.295 8.313 19.954 22.6 36.285 41.312 47.229 18.712 10.944 39.954 15.384 61.418 12.846 20.771-2.457 40.594-11.618 55.817-25.795a2.002 2.002 0 0 1 3.308 1.934 102.97 102.97 0 0 1-11.21 27.769c-19.107 32.674-53.579 50.905-88.948 50.906zm-71.836-170.542a99.137 99.137 0 0 0-13.312 17.832c-27.511 47.046-11.617 107.702 35.428 135.214s107.701 11.618 135.214-35.429a99.239 99.239 0 0 0 9.014-20.345c-15.053 12.238-33.634 20.137-53.006 22.428-22.334 2.642-44.438-1.979-63.907-13.364-19.47-11.386-34.334-28.379-42.985-49.144-7.502-18.005-9.731-38.072-6.446-57.192z"/><path fill="#41E847" d="M418.986 92.027 364.203 2.751l-217.96 133.748 54.783 89.276m70.191-106.123c-2.196-5.296.438-12.218 5.883-15.461 5.445-3.243 11.639-1.578 13.835 3.718 2.196 5.296-.438 12.218-5.883 15.461s-11.639 1.578-13.835-3.718z"/><ellipse transform="rotate(-54.373 305.697 88.007)" cx="305.696" cy="87.999" rx="9.661" ry="8.101"/><ellipse transform="rotate(-54.373 248.159 122.267)" cx="248.159" cy="122.26" rx="9.661" ry="8.101"/><path fill="#41E847" d="m417.826 90.404 39.967 11.964-54.311-90.12-39.405-9.436zM406.872 308.464c-.628-2.106-2.254-3.754-4.264-4.642-5.911-2.61-19.602-14.597-25.133-64.729-4.44-40.241-16.714-62.357-24.288-72.535l104.606-64.19-39.9-10.747-216.868 134.153 40.84 9.094 75.63-46.409c11.596 10.166 31.32 30.822 37.674 58.138 6.861 29.497 22.21 59.583 43.304 67.062 7.916 2.807 9.217-2.451 8.399-5.195z"/><g fill="#FFF"><path d="M269.37 120.419c1.214 2.926 3.497 5.073 6.43 6.047 1.125.373 2.31.557 3.513.557 2.274 0 4.618-.656 6.764-1.934 6.257-3.726 9.266-11.775 6.707-17.944-1.213-2.927-3.497-5.074-6.43-6.048-3.25-1.078-6.996-.576-10.276 1.377-6.258 3.725-9.266 11.775-6.708 17.945zm8.754-14.508c1.521-.906 3.155-1.373 4.713-1.373.779 0 1.54.117 2.257.355 1.814.602 3.232 1.945 3.994 3.783 1.827 4.405-.441 10.227-5.059 12.975-2.281 1.36-4.82 1.731-6.97 1.018-1.814-.602-3.232-1.945-3.994-3.782v-.001c-1.827-4.406.442-10.227 5.059-12.975z"/><path d="M459.745 101.99c-.018-.092-.049-.179-.08-.269a1.995 1.995 0 0 0-.121-.294c-.016-.03-.02-.063-.038-.092l-54.311-90.12a2 2 0 0 0-1.247-.913L365.54 1.106 364.861 0l-1.917 1.177c-.027.018-.056.031-.082.051L145.197 134.794l-1.705 1.047 55.828 90.979.015-.009c.278.452.717.796 1.255.916l40.84 9.094a2.002 2.002 0 0 0 1.48-.247l74.367-45.635c11.297 10.12 29.888 30.082 35.942 56.112 6.457 27.759 21.561 60.33 44.585 68.493 1.844.654 3.385.913 4.669.913 2.291 0 3.767-.824 4.686-1.696 1.979-1.88 2.243-4.804 1.629-6.868-.77-2.582-2.729-4.732-5.374-5.899-4.189-1.851-18.298-11.87-23.952-63.12-4.292-38.901-15.987-61.153-23.394-71.737l102.77-63.062c.028-.018.048-.044.075-.063.102-.07.196-.15.285-.239.041-.042.084-.079.121-.124.016-.019.037-.033.052-.053.041-.052.06-.115.095-.17.059-.094.118-.187.161-.289.035-.085.055-.172.079-.26.027-.1.052-.197.063-.301.01-.096.005-.19.001-.287-.003-.069.011-.136.001-.206-.003-.033-.02-.061-.026-.093zM363.426 5.575l52.213 85.088L201.68 223.017l-52.686-85.86L363.426 5.575zm-11.285 159.278a1.999 1.999 0 0 0-.559 2.899c7.02 9.434 19.46 31.274 23.904 71.561 5.729 51.917 20.31 63.688 26.313 66.34 1.571.693 2.722 1.927 3.155 3.383.26.87.154 2.155-.551 2.825-.865.824-2.784.792-5.263-.086-13.453-4.771-32.532-24.821-42.024-65.63-6.51-27.986-26.792-49.097-38.304-59.189a1.998 1.998 0 0 0-2.364-.201L241.51 232.74l-35.253-7.85L418.208 93.777l34.582 9.314-100.649 61.762zm67.191-76.086L368.499 5.928l33.703 8.07 51.207 84.97-34.077-10.201z"/></g><path d="M277.285 141.493c-7.336 0-13.636-1.968-14.043-2.098a2 2 0 0 1-1.298-2.512 1.999 1.999 0 0 1 2.512-1.3c.141.045 14.224 4.426 23.646-.269 9.903-4.937 15.709-15.862 16.484-20.346a2.007 2.007 0 0 1 2.312-1.63 2 2 0 0 1 1.63 2.312c-1.107 6.401-8.202 18.04-18.642 23.244-3.941 1.965-8.438 2.599-12.601 2.599zM780.824 493.073c-.795-5.095-3.593-9.569-7.878-12.6l-25.627-18.123a15.283 15.283 0 0 1-6.217-9.949l-1.973.323a17.22 17.22 0 0 1-.228-2.994l.174-13.618 2 .025.228-17.769c.094-7.357-3.921-14.002-10.477-17.343-6.556-3.34-14.291-2.681-20.187 1.72l-25.156 18.772a15.187 15.187 0 0 1-13.961 2.211l-29.726-10.08c-6.973-2.363-14.529-.598-19.731 4.604-5.202 5.203-6.966 12.764-4.571 19.818l8.962 22.884 2.21 6.951c1.157 3.642.674 7.6-1.325 10.859-1.021 1.665-1.957 2.838-2.01 2.905l-18.772 25.156c-4.734 6.345-5.146 14.52-1.076 21.334.359.602.754 1.188 1.173 1.745l1.598-1.204c3.079 4.086 7.969 6.863 13.903 6.787l31.386-.401a17.19 17.19 0 0 1 14.253 7.262l18.124 25.628c8.226 11.632 26.218 8.782 30.447-4.822l9.317-29.974a17.19 17.19 0 0 1 11.312-11.312l18.2-5.657-.005.017c15.855-3.548 21.634-8.016 21.987-8.483l-.093-.073.094.071c3.125-4.148 4.454-9.497 3.645-14.67zm-152.304 7.98-19.011 25.937c-.201-.291-.41-.576-.591-.879-3.225-5.398-2.899-11.871.847-16.892l18.729-25.099c.044-.056 1.097-1.369 2.259-3.264.286-.466.538-.948.776-1.434l.405 14.052c.071 2.57-1.895 5.507-3.414 7.579zm108.626-70.507c-4.757-8.515-16.47-11.991-25.31-5.394l-25.156 18.773a17.189 17.189 0 0 1-15.8 2.502l-29.726-10.081c-7.029-2.384-13.891-.026-18.206 4.686l-1.697-4.333c-1.899-5.599-.537-11.438 3.644-15.617 4.181-4.181 10.021-5.543 15.617-3.644l29.726 10.08a19.193 19.193 0 0 0 17.639-2.795l25.156-18.772c4.737-3.535 10.71-4.043 15.979-1.36 5.268 2.684 8.367 7.815 8.292 13.728l-.158 12.227zm1.756 39.987.151-11.806c1.404 2.719 3.437 5.106 5.958 6.889l25.627 18.123c3.394 2.4 5.608 5.935 6.236 9.951a15.487 15.487 0 0 1-2.654 11.3 17.738 17.738 0 0 0-2.427-2.081l-25.627-18.124a17.178 17.178 0 0 1-7.264-14.252z"/><path fill="none" d="M898.175 316.369c7.945 0 14.385-6.44 14.385-14.385h-28.77c0 7.944 6.441 14.385 14.385 14.385z"/><path fill="#41E847" d="M996.039 267.421c11.549-10.89 5.598-30.295-10.071-32.838l-38.784-6.295a19.15 19.15 0 0 1-14.244-10.714l-16.802-35.518c-6.788-14.349-27.083-14.686-34.343-.57l-17.971 34.941a19.153 19.153 0 0 1-14.592 10.236l-38.972 5.004c-15.744 2.022-22.336 21.219-11.154 32.486l27.677 27.889a19.154 19.154 0 0 1 5.226 17.041l-7.284 38.611c-2.942 15.598 13.279 27.8 27.449 20.647l18.493-9.334 16.584-8.37a19.151 19.151 0 0 1 17.822.296l15.031 8.223 19.439 10.635c13.925 7.619 30.542-4.038 28.119-19.725l-5.999-38.831a19.15 19.15 0 0 1 5.789-16.858l28.587-26.956z"/><path fill="#FFF" d="M997.411 268.876c5.9-5.563 8.089-13.837 5.711-21.59-2.378-7.754-8.828-13.378-16.834-14.678l-38.783-6.295a17.149 17.149 0 0 1-12.757-9.595L917.945 181.2c-3.468-7.331-10.66-11.969-18.77-12.104-8.073-.13-15.45 4.262-19.159 11.475l-17.972 34.94a17.153 17.153 0 0 1-13.068 9.168l-38.972 5.004c-8.043 1.032-14.677 6.438-17.311 14.108-2.634 7.671-.722 16.013 4.991 21.771l27.678 27.889a17.146 17.146 0 0 1 4.681 15.261l-7.283 38.61c-1.504 7.97 1.588 15.949 8.069 20.824 6.48 4.875 15.004 5.636 22.245 1.979l17.286-8.725c-7.162 48.368-70.09 62.059-113.002 77.611-39.908 14.464-56.391 33.947-63.197 47.357-1.003 1.978 1.656 3.779 3.121 2.115 10.412-11.828 34.147-28.434 87.526-36.414 12.443-1.86 24.754-4.563 36.735-8.4 74.569-23.879 93.357-63.475 98.087-82.491l18.95 10.367a21.154 21.154 0 0 0 10.168 2.618c4.25 0 8.479-1.296 12.131-3.857 6.64-4.658 9.995-12.53 8.757-20.546l-5.999-38.831a17.152 17.152 0 0 1 5.184-15.098l28.59-26.955zm-37.724 42.664 5.999 38.831c1.02 6.598-1.636 12.826-7.102 16.659-5.465 3.834-12.224 4.209-18.081 1.005l-34.471-18.858a21.137 21.137 0 0 0-19.682-.326l-35.077 17.705c-5.96 3.009-12.704 2.408-18.038-1.605-5.335-4.014-7.781-10.326-6.543-16.886l7.282-38.61a21.145 21.145 0 0 0-5.771-18.821l-27.678-27.889c-4.703-4.739-6.216-11.338-4.048-17.652s7.416-10.591 14.037-11.441l38.972-5.004a21.144 21.144 0 0 0 16.115-11.305l17.972-34.94c3.006-5.846 8.683-9.308 15.228-9.308l.309.003c6.676.11 12.365 3.779 15.221 9.814l16.803 35.519a21.149 21.149 0 0 0 15.731 11.833l38.783 6.295c6.59 1.069 11.693 5.519 13.65 11.901 1.958 6.382.227 12.927-4.631 17.507l-28.588 26.955a21.146 21.146 0 0 0-6.392 18.618z"/><path d="M898.019 292.754a2 2 0 0 1-2-2v-15.307a2 2 0 0 1 4 0v15.307a2 2 0 0 1-2 2z"/><circle cx="864.868" cy="283.611" r="8.423"/><circle cx="930.729" cy="283.611" r="8.423"/><path fill="#FFF" d="M912.56 301.984c0 7.945-6.44 14.385-14.385 14.385s-14.385-6.44-14.385-14.385h28.77z"/><path fill="#41E847" d="M55.733 781.112a2 2 0 0 1-1.96-1.609c-4.909-24.661 12.094-44.213 29.644-54.288 7.645-4.388 15.65-7.295 23.253-8.677 5.007-11.568 14.442-21.267 26.576-27.314 6.963-3.471 14.949-5.866 23.737-7.118 10.086-1.438 20.507-1.347 30.587-1.258 10.004.083 20.353.176 30.35-1.231 22.653-3.19 39.027-12.217 48.669-26.83 2.834-4.297 5.02-9.109 6.495-14.305a2 2 0 0 1 3.848 1.094c-1.588 5.589-3.944 10.774-7.004 15.414-10.301 15.612-27.611 25.23-51.449 28.588-10.293 1.448-20.785 1.358-30.943 1.27-9.926-.084-20.196-.176-29.987 1.22-8.362 1.19-15.938 3.458-22.517 6.737-10.489 5.228-18.798 13.357-23.64 23.066 10.575-1.058 19.989 1.012 26.005 6.343 10.872 9.633 11.251 21.382 7.98 29.165-3.774 8.985-12.514 14.332-22.242 13.661-6.836-.482-12.298-3.776-15.797-9.526-5.614-9.227-5.52-23.84-2.251-34.625-6.444 1.455-13.182 4.066-19.679 7.797-21.17 12.152-31.529 30.858-27.711 50.037a2.002 2.002 0 0 1-1.571 2.353 2.298 2.298 0 0 1-.393.036zm53.845-61.06c-3.553 9.826-4.128 24.663 1.177 33.382 2.836 4.661 7.096 7.223 12.661 7.615 8.012.561 15.173-3.841 18.273-11.22 2.733-6.506 2.345-16.391-6.945-24.622-5.636-4.993-14.833-6.651-25.166-5.155zM919.479 551.998a2 2 0 0 1-1.584-3.22l33.956-44.14a1.993 1.993 0 0 1 1.48-.777 2.022 2.022 0 0 1 1.553.618l34.026 35.746 32.766-35.029a2 2 0 0 1 2.922 2.732l-34.214 36.577a1.998 1.998 0 0 1-1.452.634h-.009a2 2 0 0 1-1.448-.621l-33.878-35.59-32.532 42.289a1.997 1.997 0 0 1-1.586.781z"/><path fill="none" d="m659.688 177.501 74.28-53.216"/><path fill="#41E847" d="M659.69 179.501a1.999 1.999 0 0 1-1.167-3.626l74.279-53.216a2 2 0 1 1 2.33 3.252l-74.279 53.216a1.987 1.987 0 0 1-1.163.374z"/><path fill="none" d="m633.08 156.436 27.717-52.106"/><path fill="#41E847" d="M633.078 158.436a1.999 1.999 0 0 1-1.764-2.939l27.717-52.106a2 2 0 1 1 3.531 1.879l-27.717 52.106a1.997 1.997 0 0 1-1.767 1.06z"/></svg>