<svg xmlns="http://www.w3.org/2000/svg" xmlns:xlink="http://www.w3.org/1999/xlink" viewBox="0 0 1920 1075.66" xml:space="preserve"><defs><path id="a" d="M1591.2 909.03a91.6 91.6 0 0 1 58-58.93l7.89-177.7-165.26-7.33 37.6 167.25-274.8 61.77 336.56 14.94z"/></defs><use xlink:href="#a" overflow="visible" fill="#FFF"/><clipPath id="b"><use xlink:href="#a" overflow="visible"/></clipPath><g clip-path="url(#b)"><path d="M1622.14 756.1c-.65 26.68-76.56 46.47-169.57 44.21-93-2.26-167.87-25.71-167.22-52.39.65-26.67 76.57-46.47 169.57-44.2 93 2.25 167.87 25.71 167.22 52.38z"/><path fill="#FF8630" d="M1467.07 802.99c-4.81 0-9.67-.06-14.56-.18-45.2-1.1-87.61-7.19-119.41-17.15-32.75-10.26-50.59-23.69-50.25-37.8.35-14.12 18.82-26.66 52.02-35.31 32.25-8.41 74.9-12.44 120.11-11.33 45.2 1.1 87.62 7.19 119.42 17.15 32.74 10.26 50.58 23.68 50.24 37.8-.34 14.11-18.82 26.65-52.02 35.3-28.76 7.5-65.8 11.52-105.55 11.52zm-26.67-96.95c-39.32 0-75.9 3.95-104.27 11.35-30.4 7.92-48 19.07-48.28 30.6-.28 11.5 16.76 23.5 46.74 32.9 31.37 9.82 73.3 15.83 118.05 16.92 44.76 1.09 86.91-2.88 118.72-11.17 30.4-7.93 48-19.08 48.28-30.6.28-11.51-16.75-23.5-46.74-32.9-31.36-9.83-73.28-15.84-118.04-16.93-4.85-.11-9.68-.17-14.46-.17z"/><path fill="#FF8630" d="M1625.57 826.54c-.65 26.68-76.57 46.47-169.57 44.21-93-2.26-167.87-25.72-167.22-52.4.65-26.67 76.56-46.46 169.57-44.2s167.86 25.72 167.22 52.4z"/><path d="M1470.5 873.43c-4.82 0-9.68-.06-14.56-.18-45.21-1.1-87.62-7.2-119.42-17.15-32.74-10.26-50.59-23.69-50.24-37.8.34-14.12 18.81-26.66 52.02-35.31 32.24-8.41 74.9-12.44 120.1-11.34 84 2.05 170.44 23.16 169.66 54.96-.34 14.11-18.81 26.65-52.02 35.3-28.76 7.5-65.8 11.52-105.55 11.52zm-26.67-96.95c-39.32 0-75.91 3.95-104.27 11.34-30.4 7.93-48 19.08-48.28 30.6s16.75 23.51 46.73 32.9c31.37 9.83 73.3 15.84 118.05 16.93 44.75 1.08 86.91-2.88 118.72-11.17 30.4-7.93 48-19.08 48.29-30.6.27-11.52-16.76-23.5-46.74-32.9-31.37-9.83-73.3-15.84-118.05-16.93-4.85-.12-9.67-.17-14.45-.17z"/></g><path fill="#FFF" d="m1617.67 910.2 28.8 1.29 1.5-33.66a67.5 67.5 0 0 0-30.3 32.38z"/><path d="m1411.07 660.85 52.66 103.5a79.77 79.77 0 0 1-60.56 95.16l-131.43 29.21a79.77 79.77 0 0 1-95.17-60.56L1180 711.3"/><path fill="#FF8630" d="m1295.28 883.53-14.93-71.59 80.15-18.25 15.53 72"/><defs><path id="c" d="M1329.32 838.1c48.47-11.04 83.52-49.62 92.42-95.47a42.22 42.22 0 1 0-13.03-82.06c-25.56-46.16-79.35-71.9-133.38-59.6-54.01 12.29-91.37 58.8-94.42 111.46a42.22 42.22 0 1 0 23.77 79.6c27.87 37.5 76.17 57.1 124.64 46.07"/></defs><defs><path id="d" d="M1302.36 843.63a124.27 124.27 0 0 1-98.44-48.46 44.91 44.91 0 0 1-8.44 2.83 44.43 44.43 0 0 1-33.74-5.75 44.42 44.42 0 0 1-19.79-27.94 44.77 44.77 0 0 1 36.6-54.09 125.07 125.07 0 0 1 28.54-70.27 122.95 122.95 0 0 1 67.7-41.43 122.99 122.99 0 0 1 78.95 8.05 125.1 125.1 0 0 1 56.14 50.99 44.43 44.43 0 0 1 36.62 4.99 44.43 44.43 0 0 1 19.8 27.93 44.43 44.43 0 0 1-5.76 33.74 44.42 44.42 0 0 1-27.92 19.79 44.8 44.8 0 0 1-8.83 1.1 124.23 124.23 0 0 1-93.91 95.42 123.91 123.91 0 0 1-27.52 3.1zm-96.93-54.78 1.26 1.7a119.23 119.23 0 0 0 122.08 45.1 119.23 119.23 0 0 0 90.52-93.5l.4-2.07 2.1.04c3.28.07 6.54-.26 9.71-.98a39.46 39.46 0 0 0 24.81-17.58 39.46 39.46 0 0 0 5.11-29.97 39.47 39.47 0 0 0-17.58-24.8 39.47 39.47 0 0 0-34.3-3.86l-2 .7-1.02-1.85a120 120 0 0 0-54.86-50.66 118 118 0 0 0-75.77-7.72 118 118 0 0 0-64.96 39.76 119.96 119.96 0 0 0-27.52 69.41l-.12 2.1-2.1.24a39.77 39.77 0 0 0-34.37 48.3 39.47 39.47 0 0 0 17.58 24.8 39.46 39.46 0 0 0 29.97 5.11 39.94 39.94 0 0 0 9.19-3.31l1.87-.96z"/></defs><use xlink:href="#c" overflow="visible" fill="#FF8630"/><use xlink:href="#d" overflow="visible"/><path fill="#FF8630" d="m1162.22 748.25 31.49 21.7"/><path d="M1193.71 772.45c-.49 0-.98-.15-1.41-.44l-31.5-21.7a2.5 2.5 0 1 1 2.83-4.12l31.5 21.7a2.5 2.5 0 0 1-1.42 4.56z"/><path fill="#FF8630" d="m1436.15 685.89-19.01 33.19"/><path d="M1417.14 721.58a2.5 2.5 0 0 1-2.17-3.74l19-33.2a2.5 2.5 0 0 1 4.35 2.49l-19 33.2a2.5 2.5 0 0 1-2.18 1.25zm-149.18 19.01a16.04 16.04 0 1 1-31.28 7.13 16.04 16.04 0 0 1 31.28-7.13z"/><path d="M1222.99 756.86a2.5 2.5 0 0 1-2.33-3.42 41.36 41.36 0 0 1 66.51-15.15 2.5 2.5 0 1 1-3.39 3.68 36.36 36.36 0 0 0-58.47 13.31 2.5 2.5 0 0 1-2.32 1.58zm147.07-39.51a16.04 16.04 0 1 1-31.29 7.12 16.04 16.04 0 0 1 31.29-7.12z"/><path d="M1325.09 733.61a2.5 2.5 0 0 1-2.32-3.42 41.36 41.36 0 0 1 66.5-15.14 2.5 2.5 0 0 1-3.4 3.68 36.34 36.34 0 0 0-58.46 13.3 2.5 2.5 0 0 1-2.32 1.58z"/><path fill="#FF8630" d="m1304.4 732.42 5.19 22.77"/><path d="M1309.58 757.7a2.5 2.5 0 0 1-2.43-1.95l-5.19-22.77a2.5 2.5 0 1 1 4.88-1.11l5.18 22.77a2.5 2.5 0 0 1-2.44 3.06z"/><path fill="#FFF" d="M1357.48 758.23a45.5 45.5 0 1 1-88.72 20.32"/><path fill="#FFF" d="m1149.05 920.39-.55-2.44-63.41-282.11 1.37-.96a88.98 88.98 0 0 0 22.65-22.92l.56-.82 354.68-79.72.54 2.44 67.52 300.36-2.44.55-380.92 85.62zm-58.35-282.4 62.13 276.42 373.6-83.98-65.87-293.04-347.88 78.2a93.92 93.92 0 0 1-21.98 22.4zM282.5 938.05h-5a64.82 64.82 0 0 0-64.74-64.74v-5a69.82 69.82 0 0 1 69.75 69.74zm579.42-754.16a69.82 69.82 0 0 1-69.75-69.74h5a64.82 64.82 0 0 0 64.75 64.74v5z"/><circle cx="1422.82" cy="308.45" r="117.52"/><circle fill="#FF8630" cx="1422.82" cy="210.74" r="10.45"/><path fill="#FF8630" d="M1361.6 232.3a10.45 10.45 0 1 1-14.77 14.78 10.45 10.45 0 0 1 14.77-14.78zm-13.85 137.58a10.45 10.45 0 1 1 14.78 14.77 10.45 10.45 0 0 1-14.78-14.77zm65.92 35.42a10.44 10.44 0 1 1 20.9 0 10.44 10.44 0 0 1-20.9 0zm71.66-21.57a10.44 10.44 0 1 1 14.77-14.77 10.44 10.44 0 0 1-14.77 14.77zm13.85-137.58a10.44 10.44 0 1 1-14.77-14.76 10.44 10.44 0 0 1 14.77 14.76z"/><circle cx="1422.82" cy="308.45" r="77.48"/><path fill="#FF8630" d="M1422.82 388.43c-44.1 0-79.98-35.88-79.98-79.98s35.88-79.98 79.98-79.98 79.97 35.88 79.97 79.98-35.88 79.98-79.97 79.98zm0-154.96c-41.35 0-74.98 33.64-74.98 74.98s33.63 74.98 74.98 74.98 74.97-33.64 74.97-74.98-33.63-74.98-74.97-74.98z"/><path fill="#FFF" d="M536.2 464.6c-43.79 0-108.92-6.06-108.92-22.74s65.13-22.74 108.92-22.74 108.92 6.05 108.92 22.74-65.14 22.74-108.92 22.74zm0-40.48c-28.28 0-54.83 2.09-74.79 5.88-23 4.38-29.13 9.51-29.13 11.86s6.13 7.48 29.13 11.85c19.96 3.8 46.51 5.89 74.79 5.89 28.27 0 54.83-2.1 74.78-5.89 23-4.37 29.14-9.51 29.14-11.85s-6.14-7.48-29.14-11.86c-19.95-3.8-46.5-5.88-74.78-5.88z"/><path fill="#FF8630" d="m495.05 459.77-.44-69.28 82.28-.43.44 69.29"/><path d="M495.05 462.27a2.5 2.5 0 0 1-2.5-2.48l-.46-71.79 87.29-.45.45 71.79a2.5 2.5 0 0 1-2.48 2.51h-.02a2.5 2.5 0 0 1-2.5-2.48l-.42-66.8-77.28.4.42 66.79a2.5 2.5 0 0 1-2.49 2.51h-.01z"/><defs><path id="e" d="M657.71 270.13c-1.62.01-3.22.12-4.79.3-14.95-50.65-61.93-87.5-117.4-87.22-55.46.3-102.06 37.63-116.48 88.43A42.27 42.27 0 1 0 425 354.6c19.09 42.69 62.03 72.34 111.8 72.08 49.76-.26 92.39-30.35 111.04-73.23a42.27 42.27 0 1 0 9.88-83.32z"/></defs><defs><path id="f" d="M536.15 429.18a124.34 124.34 0 0 1-112.59-71.68c-2.91.6-5.89.9-8.86.93h-.24a44.82 44.82 0 0 1-44.76-44.54 44.48 44.48 0 0 1 12.95-31.73 44.47 44.47 0 0 1 34.57-13.18 125.23 125.23 0 0 1 43.15-62.48 123.1 123.1 0 0 1 75.81-25.79c27.22 0 53.05 8.64 74.74 25.01a125.24 125.24 0 0 1 43.8 62.03c1.02-.07 2.01-.11 2.98-.12h.24c11.87 0 23.04 4.6 31.48 12.95a44.47 44.47 0 0 1 13.28 31.59 44.82 44.82 0 0 1-53.41 44.16 124.36 124.36 0 0 1-112.5 72.85h-.63zm-109.74-77.52.86 1.92a119.35 119.35 0 0 0 108.88 70.6h.62a119.35 119.35 0 0 0 108.77-71.73l.84-1.93 2.05.5a39.81 39.81 0 0 0 49.27-38.83 39.5 39.5 0 0 0-11.8-28.06 39.5 39.5 0 0 0-27.97-11.5h-.2c-1.44 0-2.96.1-4.52.29l-2.09.24-.6-2.02a120.13 120.13 0 0 0-42.61-61.43 118.12 118.12 0 0 0-71.73-24h-.64a118.2 118.2 0 0 0-72.12 24.75 120.12 120.12 0 0 0-41.98 61.86l-.57 2.03-2.1-.23a39.5 39.5 0 0 0-32.57 11.55 39.51 39.51 0 0 0-11.5 28.2 39.82 39.82 0 0 0 39.76 39.55h.2c3.27-.01 6.54-.43 9.7-1.24l2.05-.52z"/></defs><use xlink:href="#e" overflow="visible" fill="#FF8630"/><use xlink:href="#f" overflow="visible"/><path fill="#FF8630" d="m392.99 302.59 26.07 28.04"/><path d="M419.06 333.13a2.5 2.5 0 0 1-1.83-.8l-26.07-28.04a2.5 2.5 0 0 1 3.66-3.4l26.07 28.04a2.5 2.5 0 0 1-1.83 4.2z"/><path fill="#FF8630" d="m674.24 301.13-25.78 28.32"/><path d="M648.46 331.95a2.5 2.5 0 0 1-1.85-4.19l25.78-28.31a2.5 2.5 0 1 1 3.7 3.37l-25.79 28.31a2.5 2.5 0 0 1-1.84.82zM498 319.07a16.06 16.06 0 1 1-32.13.16 16.06 16.06 0 0 1 32.12-.16z"/><path d="M451.05 324.26a2.5 2.5 0 0 1-2.07-3.9 41.4 41.4 0 0 1 34.05-18.18h.21A41.42 41.42 0 0 1 517.26 320a2.5 2.5 0 1 1-4.1 2.85 36.4 36.4 0 0 0-60.03.31 2.5 2.5 0 0 1-2.08 1.1zm151.77-5.73a16.06 16.06 0 1 1-32.12.16 16.06 16.06 0 0 1 32.12-.16z"/><path d="M555.88 323.71a2.5 2.5 0 0 1-2.07-3.9 41.4 41.4 0 0 1 34.05-18.17h.2a41.4 41.4 0 0 1 34.03 17.82 2.5 2.5 0 0 1-4.11 2.85 36.4 36.4 0 0 0-29.91-15.67h-.19a36.4 36.4 0 0 0-29.93 15.98 2.5 2.5 0 0 1-2.07 1.1z"/><path fill="#FF8630" d="m535.38 318 .12 23.38"/><path d="M535.5 343.88a2.5 2.5 0 0 1-2.5-2.48l-.12-23.4a2.5 2.5 0 1 1 5-.03l.12 23.4a2.5 2.5 0 0 1-2.49 2.51h-.01z"/><path fill="#FF8630" d="m562.73 363.94-54.58.08"/><path d="M508.15 366.52a2.5 2.5 0 0 1 0-5l54.57-.07a2.5 2.5 0 0 1 0 5l-54.56.07z"/><path fill="#FF8630" d="M545.65 375.26h-20.42"/><path d="M545.65 377.76h-20.42a2.5 2.5 0 1 1 0-5h20.42a2.5 2.5 0 1 1 0 5zM943.71 36.41h5v1002.83h-5z"/><path fill="none" d="M1761.01 217.13V37.72H131.41v471.22l.16-.08v328.23l-.16-.31v198.55h1629.6V613.78v.01z"/><path d="M131.41 37.72h1629.6v179.4l37.1 18.62V54.18c0-29.92-21.7-54.18-48.45-54.18H142.76C116 0 94.32 24.26 94.32 54.18v473.37l37.09-18.61V37.72zM1761 613.78v421.55H131.42V836.78l-37.1-73.93v258.63c0 29.92 21.7 54.18 48.45 54.18h1606.9c26.75 0 48.44-24.26 48.44-54.18V539.85l-37.1 73.93z"/><path fill="#FFF" d="m131.57 508.86-.16.08v327.84l.16.31zM1798.1 235.74l-37.09-18.61v396.65l37.09-73.93L1920 296.9zM0 574.87l94.32 187.98 37.09 73.93V508.94l-37.09 18.61z"/><g fill="#FFF"><path d="M1035.57 208.7v-5c49.02 0 88.9-39.88 88.9-88.9h5c0 51.78-42.12 93.9-93.9 93.9z"/><path d="M1034.7 183.89v-5a64.82 64.82 0 0 0 64.75-64.74h5a69.82 69.82 0 0 1-69.75 69.74zm643.83 24.92c-51.78 0-93.9-42.13-93.9-93.9h5c0 49.02 39.87 88.9 88.9 88.9v5z"/><path d="M1679.18 183.78a69.82 69.82 0 0 1-69.74-69.74h5a64.82 64.82 0 0 0 64.74 64.74v5zM1589.4 490.2h-5c0-51.79 42.13-93.91 93.9-93.91v5c-49.01 0-88.9 39.88-88.9 88.9z"/><path d="M1614.43 490.85h-5a69.82 69.82 0 0 1 69.75-69.75v5a64.82 64.82 0 0 0-64.75 64.75zm-485.17-.77h-5c0-49.02-39.88-88.9-88.9-88.9v-5c51.77 0 93.9 42.13 93.9 93.9z"/><path d="M1104.45 490.95h-5a64.82 64.82 0 0 0-64.75-64.74v-5a69.83 69.83 0 0 1 69.75 69.74z"/></g><g fill="#FFF"><path d="M1035.57 655.25v-5c49.02 0 88.9-39.88 88.9-88.9h5c0 51.78-42.12 93.9-93.9 93.9z"/><path d="M1034.7 630.44v-5a64.82 64.82 0 0 0 64.75-64.75h5a69.82 69.82 0 0 1-69.75 69.75zm554.7 306.3h-5c0-51.78 42.13-93.9 93.9-93.9v5c-49.01 0-88.9 39.88-88.9 88.9z"/><path d="M1614.43 937.4h-5a69.82 69.82 0 0 1 69.75-69.75v5a64.82 64.82 0 0 0-64.75 64.75z"/></g><g fill="#FFF"><path d="M213.63 208.7v-5c49.02 0 88.9-39.88 88.9-88.9h5c0 51.78-42.12 93.9-93.9 93.9z"/><path d="M212.76 183.89v-5a64.82 64.82 0 0 0 64.75-64.74h5a69.82 69.82 0 0 1-69.75 69.74z"/></g><path fill="#FFF" d="M861.05 208.7a94.4 94.4 0 0 1-20.39-2.22l1.08-4.88c6.3 1.4 12.8 2.1 19.3 2.1v5zM769 133.49a94.57 94.57 0 0 1-1.86-18.7h5c0 5.97.6 11.92 1.77 17.7l-4.9 1zm92.92 50.4a69.82 69.82 0 0 1-69.75-69.74h5a64.82 64.82 0 0 0 64.75 64.74v5zm-20.47 666.77-1.1-4.88a94.5 94.5 0 0 1 20.7-2.29v5c-6.61 0-13.2.73-19.6 2.17zm-69.31 86.74h-5c0-5.86.55-11.73 1.62-17.44l4.91.92a89.64 89.64 0 0 0-1.53 16.52zm70.2-61.08-1.51-4.77a69.73 69.73 0 0 1 21.09-3.25v5a64.78 64.78 0 0 0-19.58 3.02zm-45.17 61.73h-5c0-6.1.79-12.14 2.34-17.97l4.83 1.28a64.97 64.97 0 0 0-2.17 16.69z"/><path d="M335.76 599.85h-56.54l28.27-48.96 28.27-48.97 28.27 48.97 28.27 48.96z"/><path d="M311.82 696.26h-56.54l28.27-48.96 28.27-48.97 28.28 48.97 28.27 48.96zm426.72-96.08h56.54l-28.27-48.97-28.27-48.96-28.27 48.96L682 600.18z"/><path d="M762.48 696.59h56.54l-28.27-48.97-28.27-48.96-28.27 48.96-28.27 48.97z"/><path fill="#FFF" d="M231.03 850.2a89.57 89.57 0 0 0-17.4-1.7v-5c6.18 0 12.36.6 18.37 1.79l-.97 4.9zm76.5 87.2h-5c0-5.7-.54-11.4-1.6-16.95l4.9-.95a94.56 94.56 0 0 1 1.7 17.9z"/><path d="M276.9 917.8h561.58l-91.93-385.63c0-33.46-27.47-60.58-61.37-60.58l-42.56.14-107.95 104.32-104.9-104.49-40.97.03c-33.9 0-61.38 27.12-61.38 60.58L243.5 878.25a67.42 67.42 0 0 1 33.4 39.56z"/><path fill="#FFF" d="M534.66 576.05 429.77 471.56l-2.84-28.66 18.94 11.36 90.32 7.84 43.09-1.31 52.39-9.3 13.79-8.72-2.85 28.96"/><path fill="#FFF" d="M536.2 464.6c-43.79 0-108.92-6.06-108.92-22.74h5c0 2.34 6.13 7.48 29.13 11.85 19.96 3.8 46.51 5.89 74.79 5.89 28.27 0 54.83-2.1 74.78-5.89 23-4.37 29.14-9.5 29.14-11.85h5c0 16.68-65.14 22.74-108.92 22.74z"/><path fill="#FF8630" d="M535.2 489.77c-20.55 0-40.5-.76-59.3-2.26a2.5 2.5 0 1 1 .4-4.98 745.36 745.36 0 0 0 58.91 2.24c21.16 0 41.64-.8 60.88-2.4a2.5 2.5 0 1 1 .41 4.98c-19.37 1.6-40 2.42-61.3 2.42zm1.93 21.93c-10.48 0-20.93-.2-31.07-.6a2.5 2.5 0 0 1 .2-5c19.5.76 40.25.79 59.89.07a2.5 2.5 0 1 1 .18 5c-9.56.35-19.38.52-29.2.52zm-52.44 302.14v-.1a71.45 71.45 0 0 1 18.51 6.36c7.02 3.65 14 5.64 21.19 6.7 5.97.89 12.08 1.14 18.47 1.17l30.16.17 31.87.18s0-.06.02-.06a13.38 13.38 0 1 0-1.1-26.72l-30.64-.17v-.11l40.41.23s0-.07.02-.06a13.39 13.39 0 1 0-1.1-26.72l-39.18-.22v-.11l48.95.27.01-.06a13.4 13.4 0 1 0-1.1-26.71l-47.7-.27v-.11l40.4.22s0-.06.02-.06a13.38 13.38 0 1 0-1.1-26.71l-50.28-.29-.31-.55 22.63-5.56v-.06a13.39 13.39 0 1 0-7.53-25.66l-54.03 13.21a37.76 37.76 0 0 0-24.1 14.74c-2.79 3.06-8.43 8.43-14.48 9.3v.02"/><path d="M604.9 830.82h-.02l-62.03-.35c-7.7-.04-13.51-.4-18.83-1.2a68.58 68.58 0 0 1-21.97-6.95 68.45 68.45 0 0 0-17.4-6.03 2.46 2.46 0 0 1-2.46-2.41v-.1a2.5 2.5 0 0 1 3-2.48 73.79 73.79 0 0 1 19.17 6.58 62.8 62.8 0 0 0 20.4 6.45c5.07.75 10.66 1.1 18.12 1.14l61.49.35c.18-.04.37-.07.56-.06h.06c2.88 0 5.6-1.11 7.65-3.14a10.81 10.81 0 0 0 3.23-7.68c.02-2.91-1.1-5.65-3.14-7.72a10.81 10.81 0 0 0-8.7-3.18h-.24l-30.63-.17a2.5 2.5 0 0 1-2.49-2.47v-.12a2.5 2.5 0 0 1 2.5-2.52h.02l39.87.23c.18-.04.36-.06.55-.06h.07a10.9 10.9 0 0 0 10.88-10.83 10.9 10.9 0 0 0-11.84-10.9c-.08.01-.16.03-.24.02l-39.17-.23a2.5 2.5 0 0 1-2.48-2.45v-.12a2.5 2.5 0 0 1 2.5-2.54l48.42.27c.18-.04.35-.06.55-.05h.06a10.9 10.9 0 0 0 10.89-10.83 10.9 10.9 0 0 0-11.85-10.9l-.23.01-47.7-.27a2.5 2.5 0 0 1-2.49-2.46v-.1a2.5 2.5 0 0 1 2.5-2.55h.01l39.87.22a2.37 2.37 0 0 1 .56-.06h.07c2.88 0 5.6-1.11 7.65-3.14a10.81 10.81 0 0 0 3.23-7.68c.01-2.9-1.1-5.65-3.15-7.72a10.8 10.8 0 0 0-8.93-3.17l-50.28-.28a2.5 2.5 0 0 1-2.14-1.24l-.3-.54a2.5 2.5 0 0 1 1.55-3.7l22.12-5.44c.16-.08.34-.15.52-.19a10.9 10.9 0 0 0 8-13.15 10.9 10.9 0 0 0-14.35-7.65l-54.03 13.22-.18.03a35.46 35.46 0 0 0-22.67 13.95c-3 3.31-9 8.97-15.71 10.06a2.5 2.5 0 0 1-3.11-2.25 2.52 2.52 0 0 1 2.14-2.66c5.38-.77 10.76-6.07 12.9-8.42a40.47 40.47 0 0 1 25.53-15.6l53.83-13.16a15.91 15.91 0 0 1 20.5 11.29A15.9 15.9 0 0 1 586 716.77c-.18.1-.36.16-.56.21l-5.23 1.29 32.5.18a15.77 15.77 0 0 1 12.57 4.66 15.78 15.78 0 0 1 4.58 11.26 15.77 15.77 0 0 1-4.7 11.2 15.92 15.92 0 0 1 13.09 15.73 15.92 15.92 0 0 1-13.28 15.58 15.85 15.85 0 0 1 4.6 11.25 15.92 15.92 0 0 1-13.28 15.58 15.79 15.79 0 0 1 4.58 11.26 15.78 15.78 0 0 1-4.71 11.2 15.77 15.77 0 0 1-10.68 4.58c-.2.05-.39.07-.59.07z"/><path fill="#FFF" d="m484.72 812.04-50.06 24.24V706.8l50.06 21.24z"/><path d="M1249.08 331.13c0 8.59-6.96 15.55-15.55 15.55h-96.8a15.55 15.55 0 0 1-15.55-15.55V293.1c0-8.59 6.97-15.55 15.56-15.55h96.79c8.59 0 15.55 6.96 15.55 15.55v38.03z"/><path fill="#FF8630" d="M1570.52 343.92h-334.6v-63.98h334.6l46.15 32.52z"/><path fill="#FFF" d="M1571.3 346.42h-337.88v-68.98h337.9l49.74 35.05-49.77 33.93zm-332.88-5h331.33l42.53-29-42.55-29.98h-331.31v58.98z"/><path fill="#FFF" d="M1235.65 309.43h376.06v5h-376.06z"/><path d="M1210.84 249.91h37.87v124.05h-37.87z"/><g fill="#FFF"><path d="M1047.48 182.77v-50.92h54.78l-1.02 3.25a69.97 69.97 0 0 1-50.7 46.96l-3.06.71zm5-45.92v39.55a65 65 0 0 0 42.87-39.55h-42.87zm608.48 44.67-3.27-1.07a69.86 69.86 0 0 1-44.91-45.35l-1.03-3.25h49.22v49.67zm-42.3-44.67a64.88 64.88 0 0 0 37.3 37.69v-37.7h-37.3zm-515.28 341.48h-55.9v-56.1l3.06.71a70.07 70.07 0 0 1 52.14 52.33l.7 3.06zm-50.9-5h44.55a65.12 65.12 0 0 0-44.55-44.72v44.72zm608.48 5h-50.32l.7-3.06a70.03 70.03 0 0 1 46.35-50.72l3.27-1.07v54.85zm-43.97-5h38.98v-42.86a65.08 65.08 0 0 0-38.98 42.86z"/><path d="M1590.31 478.33h-466.6l-.34-2.11c-2.94-18.59-11.56-35.48-24.93-48.86s-30.27-22-48.85-24.95l-2.11-.33V202.93l2.1-.34c35.84-5.67 65.1-33.31 72.83-68.77l.43-1.97h468.33l.43 1.97a89.06 89.06 0 0 0 67.4 67.72l1.97.44v201.04l-1.96.44c-35.26 7.87-62.73 37.1-68.36 72.76l-.34 2.1zm-462.36-5h458.12c6.56-36.05 34.29-65.53 69.9-74.3V205.98a94.1 94.1 0 0 1-68.8-69.12h-460.32c-8.64 35.82-38.15 63.72-74.37 70.32v190.66c18.8 3.41 35.88 12.37 49.5 26s22.56 30.7 25.97 49.5z"/></g><path fill="#FFF" d="M229.45 181.95v-50.1h50.87l-1.02 3.25a69.62 69.62 0 0 1-46.63 45.9l-3.22.95zm5-45.1v38.3a64.62 64.62 0 0 0 38.96-38.3h-38.96zm608.49 786.07h-567.2l-.5-1.85a65.13 65.13 0 0 0-44-45.07l-1.79-.54V202.32l2-.4a88.81 88.81 0 0 0 69.02-68.1l.43-1.97h498.7l.55 1.75a64.93 64.93 0 0 0 41.1 41.9l1.7.57v746.85zm-563.4-5h558.4V179.64a69.97 69.97 0 0 1-41.98-42.8H304.9a93.82 93.82 0 0 1-70.46 69.54v665.38a70.22 70.22 0 0 1 45.09 46.16z"/><path d="m1411.48 661.79-1.27.28-.42-1.85-1.08.35c-25.56-46.16-79.35-71.9-133.38-59.6-51.74 11.77-88.16 54.93-93.83 104.83l1.52 6.66-2.47.54 23.05 33.58 5.75-37.81 97.61-22.23 5.93-39 21.95 32.53 3.6-23.7 13.66 19.9 31-7.06 22.32 32.52 6.06-39.94z"/><path fill="#FF8630" d="m1334.91 680.18-.09.02-.15.99.8-.18z"/><path fill="#FF8630" d="m1334.82 680.2.09-.02-.07-.11z"/><path d="M655.37 272.23h-1.3l-.02-1.9-1.13.1c-14.95-50.65-61.93-87.5-117.4-87.22-53.11.28-98.08 34.55-114.46 82.08l.04 6.84h-2.53l15.23 37.82 13.82-35.7 100.74-.53 13.75-35.52 13.87 35.26 9.18-23.7 9.55 23.72 31.3-.16 14.76 36.62 14.6-37.71z"/></svg>
