<svg xmlns="http://www.w3.org/2000/svg" xmlns:xlink="http://www.w3.org/1999/xlink" width="1920" height="1080"><defs><path id="a" d="M1453.95 824.279c6.747-21.229 23.344-38.053 44.422-45.132l6.041-136.083-126.562-5.618 28.792 128.088-210.442 47.303 257.749 11.442z"/></defs><use xlink:href="#a" overflow="visible" fill="#FFF"/><clipPath id="b"><use xlink:href="#a" overflow="visible"/></clipPath><g clip-path="url(#b)" stroke-width="4" stroke-miterlimit="10"><ellipse transform="rotate(1.403 1348.642 703.671)" fill="#231F20" stroke="#F68635" cx="1348.689" cy="704.028" rx="129" ry="37"/><ellipse transform="rotate(1.403 1351.486 757.727)" fill="#F68635" stroke="#231F20" cx="1351.311" cy="757.973" rx="129" ry="36.999"/></g><path fill="#FFF" d="M1474.229 825.179l22.056.979 1.145-25.771a51.69 51.69 0 00-23.201 24.792z"/><path fill="#231F20" d="M1316.006 634.213l40.332 79.257c7.319 32.933-13.447 65.565-46.379 72.885l-100.657 22.368c-32.935 7.317-65.568-13.449-72.886-46.381l2.625-89.483"/><path fill="#F68635" d="M1227.333 804.75l-11.435-54.825 61.377-13.976 11.892 55.135"/><defs><path id="c" d="M1317.726 632.978a32.25 32.25 0 00-3.526 1.021c-19.571-35.349-60.771-55.07-102.144-45.65-41.369 9.417-69.976 45.031-72.312 85.364a33.11 33.11 0 00-3.623.606c-17.413 3.964-28.313 21.294-24.351 38.704 3.964 17.419 21.293 28.318 38.706 24.354a32.436 32.436 0 007.473-2.698c21.343 28.709 58.327 43.722 95.451 35.274 37.12-8.453 63.963-37.998 70.775-73.115a32.407 32.407 0 007.904-.805c17.413-3.962 28.315-21.294 24.353-38.704-3.963-17.415-21.294-28.314-38.706-24.351z"/></defs><use xlink:href="#c" overflow="visible" fill="#F68635"/><clipPath id="d"><use xlink:href="#c" overflow="visible"/></clipPath><path transform="rotate(-12.826 1215.697 599.269)" clip-path="url(#d)" fill="#231F20" d="M1126.695 541.558h178.216v115.515h-178.216z"/><use xlink:href="#c" overflow="visible" fill="none" stroke="#231F20" stroke-width="5.109" stroke-miterlimit="10"/><path fill="#F68635" stroke="#231F20" stroke-width="5.109" stroke-linecap="round" stroke-linejoin="round" stroke-miterlimit="10" d="M1125.425 701.146l24.123 16.618M1335.21 653.388l-14.554 25.421"/><path fill="#231F20" d="M1161.768 669.279l-4.646 30.587-17.652-25.716z"/><path fill="#F68635" d="M1236.169 654.61l4.645-30.588 17.293 25.629z"/><path fill="#F68635" d="M1255.737 661.367l4.641-30.588 17.655 25.715z"/><path fill="#231F20" d="M1316.321 634.932l-4.643 30.59-17.654-25.717zM1206.405 695.28c1.509 6.616-2.636 13.2-9.252 14.706-6.618 1.51-13.202-2.635-14.707-9.252-1.509-6.614 2.638-13.201 9.255-14.704 6.612-1.506 13.198 2.635 14.704 9.25z"/><path fill="none" stroke="#231F20" stroke-width="5.109" stroke-linecap="round" stroke-linejoin="round" stroke-miterlimit="10" d="M1219.82 694.929c-6.964-6.42-16.865-9.424-26.798-7.161-9.937 2.262-17.563 9.252-21.056 18.057"/><path fill="#231F20" d="M1284.597 677.48c1.507 6.616-2.637 13.2-9.253 14.706-6.615 1.507-13.201-2.635-14.71-9.253-1.503-6.614 2.639-13.198 9.257-14.705 6.617-1.506 13.199 2.637 14.706 9.252z"/><path fill="none" stroke="#231F20" stroke-width="5.109" stroke-linecap="round" stroke-linejoin="round" stroke-miterlimit="10" d="M1298.01 677.13c-6.962-6.428-16.861-9.427-26.796-7.164-9.935 2.262-17.563 9.255-21.056 18.057"/><path fill="#F68635" stroke="#231F20" stroke-width="5.109" stroke-linecap="round" stroke-linejoin="round" stroke-miterlimit="10" d="M1234.313 689.023l3.972 17.442"/><path fill="#FFF" d="M1274.966 708.793c4.298 18.761-7.429 37.455-26.192 41.752-18.76 4.296-37.457-7.429-41.751-26.191"/><path fill="none" stroke="#FFF" stroke-width="4" stroke-miterlimit="10" d="M1355.357 537.377l-269.018 60.469a70.354 70.354 0 01-17.832 18.045l48.282 214.796 289.854-65.153-51.286-228.157zM449.8 846.501c0-28.441-23.057-51.498-51.5-51.498M843.947 215.528c0 28.441 23.057 51.498 51.5 51.498"/><g><circle fill="#231F20" cx="1325" cy="364.333" r="90"/><circle fill="#F68635" cx="1325" cy="289.5" r="8"/><circle fill="#F68635" cx="1272.466" cy="311.674" r="8"/><circle fill="#F68635" cx="1273.173" cy="417.034" r="8"/><circle fill="#F68635" cx="1326" cy="438.501" r="8"/><circle fill="#F68635" cx="1378.533" cy="416.327" r="8"/><circle fill="#F68635" cx="1377.826" cy="310.967" r="8"/><circle fill="#231F20" stroke="#F68635" stroke-width="4" stroke-miterlimit="10" cx="1325" cy="364.333" r="59.334"/></g><ellipse fill="none" stroke="#FFF" stroke-width="4" stroke-miterlimit="10" cx="646" cy="466.5" rx="81.5" ry="15.5"/><g><path fill="#F68635" stroke="#231F20" stroke-width="4" stroke-linecap="round" stroke-miterlimit="10" d="M614.487 480.22l-.337-53.059 63.016-.327.335 53.063"/><defs><path id="e" d="M739.06 334.988c-1.24.006-2.465.09-3.668.232-11.449-38.794-47.43-67.016-89.907-66.796-42.474.22-78.163 28.812-89.208 67.721a32.736 32.736 0 00-3.671-.194c-17.878.092-32.295 14.661-32.203 32.538.093 17.878 14.66 32.295 32.538 32.203a32.462 32.462 0 007.891-1.014c14.62 32.691 47.504 55.396 85.617 55.2 38.113-.197 70.76-23.241 85.045-56.082 2.533.619 5.176.947 7.9.932 17.877-.092 32.295-14.66 32.203-32.538-.092-17.877-14.658-32.294-32.537-32.202z"/></defs><use xlink:href="#e" overflow="visible" fill="#F68635"/><clipPath id="f"><use xlink:href="#e" overflow="visible"/></clipPath><path transform="translate(-1.44 3.35)" clip-path="url(#f)" fill="#231F20" d="M557.559 222.134h178.413v115.644H557.559z"/><use xlink:href="#e" overflow="visible" fill="none" stroke="#231F20" stroke-width="4" stroke-miterlimit="10"/><path fill="#F68635" stroke="#231F20" stroke-width="4" stroke-linecap="round" stroke-linejoin="round" stroke-miterlimit="10" d="M536.327 359.843l19.965 21.478M751.714 358.729l-19.744 21.685"/><g><path fill="#231F20" d="M578.763 336.593l-11.181 28.885-11.667-28.966z"/></g><g><path fill="#F68635" d="M654.661 339.418l11.18-28.885 11.334 28.8z"/></g><g><path fill="#F68635" d="M672.313 348.269l11.181-28.885 11.668 28.966z"/></g><g><path fill="#231F20" d="M737.263 336.593l-11.181 28.885-11.667-28.966z"/></g><g><circle fill="#231F20" cx="604.44" cy="371.763" r="12.301"/><path fill="none" stroke="#231F20" stroke-width="4" stroke-linecap="round" stroke-linejoin="round" stroke-miterlimit="10" d="M629.926 374.268c-5.41-7.788-14.434-12.873-24.634-12.82-10.201.054-19.172 5.229-24.497 13.075"/></g><g><circle fill="#231F20" cx="684.719" cy="371.347" r="12.301"/><path fill="none" stroke="#231F20" stroke-width="4" stroke-linecap="round" stroke-linejoin="round" stroke-miterlimit="10" d="M710.203 373.854c-5.406-7.792-14.43-12.874-24.631-12.821-10.199.053-19.173 5.229-24.5 13.075"/></g><path fill="#F68635" stroke="#231F20" stroke-width="4" stroke-linecap="round" stroke-linejoin="round" stroke-miterlimit="10" d="M645.373 371.644l.092 17.909M666.316 406.833l-41.794.061M653.24 415.5h-15.642"/></g><g><path fill="#010101" d="M1575.312 128.112H344.69c-20.488 0-37.096 18.576-37.096 41.494v740.789c0 22.915 16.608 41.492 37.096 41.492h1230.622c20.486 0 37.095-18.577 37.095-41.492V169.606c-.001-22.918-16.609-41.494-37.095-41.494zM1584 921H336V157h1248v764z"/><path fill="none" stroke="#010101" stroke-width="4" stroke-miterlimit="10" d="M960 156v768"/></g><path fill="#FFF" d="M336.122 517.811l-100.76 50.554 100.76 200.822zM1583.998 294.395l121.763 61.093-121.763 242.682z"/><g fill="none" stroke="#FFF" stroke-width="4" stroke-miterlimit="10"><path d="M1098.436 216.028c0 38.66-31.34 70-70 70M1079.27 215.528c0 28.441-23.058 51.498-51.5 51.498M1520.832 286.111c-38.66 0-70-31.34-70-70M1521.332 266.945c-28.441 0-51.498-23.058-51.498-51.5"/><g><path d="M1450.666 503.518c0-38.66 31.34-70 70-70M1469.832 504.018c0-28.441 23.058-51.498 51.5-51.498"/></g><g><path d="M1028.27 433.435c38.66 0 70 31.34 70 70M1027.77 452.601c28.441 0 51.498 23.058 51.498 51.5"/></g></g><g fill="none" stroke="#FFF" stroke-width="4" stroke-miterlimit="10"><path d="M1098.436 558.011c0 38.66-31.34 70-70 70M1079.27 557.511c0 28.441-23.058 51.498-51.5 51.498"/><g><path d="M1450.666 845.5c0-38.66 31.34-70 70-70M1469.832 846c0-28.441 23.058-51.498 51.5-51.498"/></g></g><g fill="none" stroke="#FFF" stroke-width="4" stroke-miterlimit="10"><path d="M468.967 216.028c0 38.66-31.34 70-70 70M449.8 215.528c0 28.441-23.057 51.498-51.5 51.498"/></g><g fill="none" stroke="#FFF" stroke-width="4" stroke-miterlimit="10"><path d="M879.581 284.374a70.275 70.275 0 0015.199 1.655M824.78 216.028c0 4.771.478 9.431 1.387 13.934M843.947 215.528c0 28.441 23.057 51.498 51.5 51.498"/></g><g fill="none" stroke="#FFF" stroke-width="4" stroke-miterlimit="10"><path d="M879.352 777.706a70.272 70.272 0 0115.429-1.705M824.78 846.001c0-4.442.414-8.788 1.206-13.001M879.875 797.398a51.457 51.457 0 0115.571-2.396M843.947 846.501c0-4.588.6-9.036 1.726-13.271"/></g><g><g fill="#231F20"><path d="M492.5 587.5h-43.302l21.651-37.5 21.651-37.5 21.65 37.5 21.651 37.5z"/><path d="M474.167 661.334h-43.302l21.651-37.5 21.651-37.5 21.65 37.5 21.651 37.5z"/><g><path d="M800.962 587.75h43.301l-21.65-37.5-21.651-37.5-21.651 37.5-21.65 37.5z"/><path d="M819.295 661.584h43.301l-21.65-37.5-21.651-37.5-21.651 37.5-21.65 37.5z"/></g></g><path fill="none" stroke="#FFF" stroke-width="4" stroke-miterlimit="10" d="M412.664 777.341a70.309 70.309 0 00-13.697-1.34M468.967 846.001c0-4.562-.436-9.021-1.269-13.34"/><path fill="#231F20" d="M447.422 831H877.5l-70.402-295.335c0-25.622-21.042-46.394-47-46.394l-32.598.104-82.667 79.896L564.5 489.25l-31.386.021c-25.958 0-47 20.771-47 46.394l-64.268 265.04c12.104 6.235 21.42 17.115 25.576 30.295z"/></g><g><path fill="#FFF" d="M644.825 569.271l-80.333-80.021-2.172-21.953 14.506 8.704L645.992 482l33-1 40.125-7.125 10.563-6.672-2.188 22.172"/><path fill="none" stroke="#FFF" stroke-width="4" stroke-miterlimit="10" d="M564.5 466.5c0 8.56 36.489 15.5 81.5 15.5s81.5-6.94 81.5-15.5"/><path fill="none" stroke="#F68635" stroke-width="4" stroke-linecap="round" stroke-linejoin="round" stroke-miterlimit="10" d="M692.022 499.433c-14.329 1.189-30.149 1.849-46.78 1.849-16.047 0-31.339-.613-45.265-1.724M669.005 517.666c-7.217.265-14.67.404-22.293.404-8.126 0-16.059-.157-23.718-.458"/></g><g><path fill="#F68635" stroke="#231F20" stroke-width="4" stroke-linecap="round" stroke-linejoin="round" stroke-miterlimit="10" d="M606.551 751.375l-.001-.071c4.889 1.008 9.753 2.562 14.182 4.867 5.374 2.798 10.718 4.316 16.221 5.134 4.572.676 9.253.869 14.15.895l23.094.133 24.412.137s0-.05.014-.048c5.66.033 10.275-4.53 10.307-10.19.034-5.664-4.531-10.278-10.191-10.312-.326-.002-.645.015-.961.043l-23.462-.131-.001-.088 30.947.176s0-.049.013-.048c5.66.033 10.275-4.529 10.31-10.191.029-5.661-4.533-10.278-10.194-10.309a9.887 9.887 0 00-.962.043l-29.997-.17-.001-.087 37.482.213s.001-.05.013-.047c5.661.03 10.276-4.534 10.31-10.194.03-5.662-4.533-10.277-10.193-10.309a9.811 9.811 0 00-.959.043l-36.535-.206-.001-.087 30.947.175s.002-.049.014-.05c5.662.034 10.277-4.53 10.308-10.189.033-5.663-4.531-10.278-10.193-10.31-.322-.002-.642.016-.961.043l-38.502-.218c-.082-.139-.159-.284-.24-.422l17.333-4.261s-.012-.046.003-.048c5.5-1.342 8.872-6.887 7.533-12.387-1.341-5.5-6.886-8.873-12.388-7.533-.312.078-.614.169-.915.272l-41.377 10.118c-.682.114-1.364.247-2.05.412a28.919 28.919 0 00-16.413 10.875c-2.129 2.344-6.452 6.456-11.086 7.121l.001.019"/><path fill="#FFF" d="M606.578 750l-38.34 18.562v-99.159l38.34 16.264z"/></g><g><path fill="#231F20" d="M1191.95 381.699c0 6.58-5.334 11.913-11.913 11.913h-74.124c-6.579 0-11.913-5.333-11.913-11.913v-29.12c0-6.579 5.334-11.913 11.913-11.913h74.124c6.579 0 11.913 5.333 11.913 11.913v29.12z"/><g stroke="#FFF" stroke-width="4" stroke-miterlimit="10"><path fill="#F68635" d="M1438.117 391.5h-256.246v-49h256.246l35.344 24.901z"/><path fill="none" d="M1469.666 367h-288"/></g><path fill="#231F20" d="M1162.666 319.5h29v95h-29z"/></g><g fill="none" stroke="#FFF" stroke-width="4" stroke-miterlimit="10"><path d="M1076.9 231h-37.432v34.675c17.768-4.129 32.011-17.442 37.432-34.675zM1505.469 264.49V231h-33.164c4.98 15.831 17.402 28.354 33.164 33.49zM1039.469 453.881v38.635h38.493c-4.371-19.131-19.388-34.195-38.493-38.635zM1471.243 492.517h34.226v-37.45c-17.053 5.557-30.186 19.767-34.226 37.45zM1505.469 435.226V284.331c-26.48-5.907-47.295-26.803-53.078-53.331h-355.576c-6.091 27.938-28.851 49.643-57.346 54.155v149.246c29.829 4.724 53.383 28.283 58.098 58.115h354.072c4.487-28.392 26.044-51.092 53.83-57.29z"/></g><g fill="none" stroke="#FFF" stroke-width="4" stroke-miterlimit="10"><path d="M447.432 231H413v33.886c16.361-4.865 29.318-17.634 34.432-33.886zM846.316 231h-378.97c-5.875 26.952-27.26 48.108-54.346 53.62v512.524c17.016 5.061 30.342 18.672 35 35.856h431V264.328c-15.532-5.233-27.754-17.659-32.684-33.328z"/></g></svg>