<svg xmlns="http://www.w3.org/2000/svg" viewBox="0 0 1471 824"><path fill="#fff" d="M1218.95 696.28a70.15 70.15 0 0 1 44.42-45.13l6.04-136.09-126.56-5.61 28.8 128.08-210.45 47.3Z"/><g stroke-linecap="round" stroke-linejoin="round" stroke-width="4"><path fill="#231f20" stroke="#f68635" d="M1242.64 579.19c-.5 20.43-58.64 35.57-129.87 33.83-71.22-1.75-128.55-19.72-128.05-40.15s58.64-35.57 129.87-33.83c71.22 1.75 128.55 19.72 128.05 40.15Z"/><path fill="#f68635" stroke="#231f20" d="M1245.27 633.13c-.5 20.42-58.65 35.57-129.87 33.83-71.22-1.75-128.56-19.72-128.06-40.15s58.65-35.57 129.87-33.83c71.22 1.75 128.56 19.72 128.06 40.15Z"/></g><path fill="#fff" d="m1239.23 697.18 22.06.98 1.14-25.77a51.69 51.69 0 0 0-23.2 24.79Z"/><path fill="#231f20" d="m1081 506.21 40.34 79.26a61.09 61.09 0 0 1-46.38 72.88L974.3 680.73a61.1 61.1 0 0 1-72.88-46.38l2.62-89.48"/><path fill="#f68635" d="m992.33 676.75-11.43-54.83 61.38-13.97 11.89 55.13"/><path fill="#f68635" d="M1082.73 504.98c-1.2.27-2.38.61-3.53 1.02a93.17 93.17 0 0 0-174.46 39.71 32.34 32.34 0 1 0 18.2 60.97 93.15 93.15 0 0 0 166.23-37.84 32.38 32.38 0 0 0 32.26-39.51 32.33 32.33 0 0 0-38.7-24.35Z"/><path fill="#231f20" d="m881.1 434.76 173.77-39.57 25.65 112.64-173.77 39.56Z"/><path fill="none" stroke="#231f20" stroke-linecap="round" stroke-linejoin="round" stroke-width="5.11" d="M1082.73 504.98c-1.2.27-2.38.61-3.53 1.02a93.17 93.17 0 0 0-174.46 39.71 32.34 32.34 0 1 0 18.2 60.97 93.15 93.15 0 0 0 166.23-37.84 32.38 32.38 0 0 0 32.26-39.51 32.33 32.33 0 0 0-38.7-24.35Z"/><path fill="#f68635" stroke="#231f20" stroke-linecap="round" stroke-linejoin="round" stroke-width="5.11" d="m890.42 573.15 24.13 16.61m185.66-64.37-14.55 25.42"/><path fill="#231f20" d="m926.77 541.28-4.65 30.59-17.65-25.72Z"/><path fill="#f68635" d="m1001.17 526.61 4.64-30.59 17.3 25.63Z"/><path fill="#f68635" d="m1020.74 533.37 4.64-30.6 17.65 25.72Z"/><path fill="#231f20" d="m1081.32 506.93-4.64 30.6-17.66-25.72Zm-109.91 60.35a12.28 12.28 0 1 1-23.96 5.46 12.28 12.28 0 0 1 23.95-5.46Z"/><path fill="none" stroke="#231f20" stroke-linecap="round" stroke-linejoin="round" stroke-width="5.11" d="M984.82 566.93a29.72 29.72 0 0 0-47.85 10.9"/><path fill="#231f20" d="M1049.6 549.48a12.29 12.29 0 1 1-23.96 5.45 12.29 12.29 0 0 1 23.96-5.45Z"/><path fill="none" stroke="#231f20" stroke-linecap="round" stroke-linejoin="round" stroke-width="5.11" d="M1063.01 549.13a29.7 29.7 0 0 0-26.8-7.16 29.71 29.71 0 0 0-21.05 18.05"/><path fill="#f68635" stroke="#231f20" stroke-linecap="round" stroke-linejoin="round" stroke-width="5.11" d="m999.31 561.02 3.98 17.45"/><path fill="#fff" d="M1039.97 580.8a34.85 34.85 0 1 1-67.95 15.55"/><path fill="none" stroke="#fff" stroke-linecap="round" stroke-linejoin="round" stroke-width="4" d="m1120.36 409.38-269.02 60.47a70.34 70.34 0 0 1-17.83 18.04l48.28 214.8 289.85-65.16ZM214.8 718.5a51.5 51.5 0 0 0-51.5-51.5M608.95 87.53a51.5 51.5 0 0 0 51.5 51.5"/><path fill="#231f20" d="M1180 236.33a90 90 0 1 1-180 0 90 90 0 0 1 180 0Z"/><path fill="#f68635" d="M1098 161.5a8 8 0 1 1-16 0 8 8 0 0 1 16 0Zm-52.53 22.17a8 8 0 1 1-16 0 8 8 0 0 1 16 0Zm.7 105.36a8 8 0 1 1-16 0 8 8 0 0 1 16 0ZM1099 310.5a8 8 0 1 1-16 0 8 8 0 0 1 16 0Zm52.53-22.17a8 8 0 1 1-16 0 8 8 0 0 1 16 0Zm-.7-105.36a8 8 0 1 1-16 0 8 8 0 0 1 16 0Z"/><path fill="#231f20" stroke="#f68635" stroke-linecap="round" stroke-linejoin="round" stroke-width="4" d="M1149.33 236.33a59.33 59.33 0 1 1-118.66 0 59.33 59.33 0 0 1 118.66 0Z"/><path fill="none" stroke="#fff" stroke-linecap="round" stroke-linejoin="round" stroke-width="4" d="M492.5 338.5c0 8.56-36.49 15.5-81.5 15.5s-81.5-6.94-81.5-15.5c0-8.56 36.49-15.5 81.5-15.5s81.5 6.94 81.5 15.5Z"/><path fill="#f68635" stroke="#231f20" stroke-linecap="round" stroke-linejoin="round" stroke-width="4" d="m379.49 352.22-.34-53.06 63.02-.33.33 53.07"/><path fill="#f68635" d="M504.06 206.99c-1.24 0-2.46.09-3.67.23-11.45-38.8-47.43-67.02-89.9-66.8-42.48.22-78.17 28.82-89.21 67.73a32.37 32.37 0 1 0 4.56 63.53 93.24 93.24 0 0 0 170.66-.88 32.37 32.37 0 1 0 7.57-63.8Z"/><path fill="#231f20" d="M321.12 97.48h178.41v115.65H321.12Z"/><path fill="none" stroke="#231f20" stroke-linecap="round" stroke-linejoin="round" stroke-width="4" d="M504.06 206.99c-1.24 0-2.46.09-3.67.23-11.45-38.8-47.43-67.02-89.9-66.8-42.48.22-78.17 28.82-89.21 67.73a32.37 32.37 0 1 0 4.56 63.53 93.24 93.24 0 0 0 170.66-.88 32.37 32.37 0 1 0 7.57-63.8Z"/><path fill="#f68635" stroke="#231f20" stroke-linecap="round" stroke-linejoin="round" stroke-width="4" d="m301.33 231.84 19.96 21.48m195.42-22.6-19.74 21.7"/><path fill="#231f20" d="m343.76 208.6-11.18 28.88-11.66-28.97Z"/><path fill="#f68635" d="m419.66 211.42 11.18-28.89 11.34 28.8Z"/><path fill="#f68635" d="m437.31 220.27 11.18-28.89 11.67 28.97Z"/><path fill="#231f20" d="m502.26 208.6-11.18 28.88-11.66-28.97Zm-120.52 35.16a12.3 12.3 0 1 1-24.6 0 12.3 12.3 0 0 1 24.6 0Z"/><path fill="none" stroke="#231f20" stroke-linecap="round" stroke-linejoin="round" stroke-width="4" d="M394.93 246.27a29.75 29.75 0 0 0-49.13.25"/><path fill="#231f20" d="M462.02 243.35a12.3 12.3 0 1 1-24.6 0 12.3 12.3 0 0 1 24.6 0Z"/><path fill="none" stroke="#231f20" stroke-linecap="round" stroke-linejoin="round" stroke-width="4" d="M475.2 245.85a29.73 29.73 0 0 0-24.63-12.82 29.75 29.75 0 0 0-24.5 13.08"/><path fill="#f68635" stroke="#231f20" stroke-linecap="round" stroke-linejoin="round" stroke-width="4" d="m410.37 243.64.1 17.91m20.85 17.28-41.8.06m28.72 8.61H402.6"/><path fill="#010101" d="M1340.31.11H109.7c-20.49 0-37.1 18.58-37.1 41.5v740.78c0 22.92 16.61 41.5 37.1 41.5h1230.62c20.49 0 37.1-18.58 37.1-41.5V41.62c0-22.92-16.61-41.5-37.1-41.5ZM1349 793H101V29h1248Z"/><path fill="none" stroke="#010101" stroke-linecap="round" stroke-linejoin="round" stroke-width="4" d="M725 28v768"/><path fill="#fff" d="M101.12 389.81.36 440.37l100.76 200.82ZM1349 166.4l121.76 61.09L1349 470.17Z"/><path fill="none" stroke="#fff" stroke-linecap="round" stroke-linejoin="round" stroke-width="4" d="M863.44 88.03a70 70 0 0 1-70 70m50.83-70.5a51.5 51.5 0 0 1-51.5 51.5m493.06 19.08a70 70 0 0 1-70-70m70.5 50.83a51.5 51.5 0 0 1-51.5-51.5m-19.16 288.08a70 70 0 0 1 70-70m-50.84 70.5a51.5 51.5 0 0 1 51.5-51.5m-493.06-19.08a70 70 0 0 1 70 70m-70.5-50.84a51.5 51.5 0 0 1 51.5 51.5m19.17 53.91a70 70 0 0 1-70 70m50.83-70.5a51.5 51.5 0 0 1-51.5 51.5m422.9 236.49a70 70 0 0 1 70-70m-50.84 70.5a51.5 51.5 0 0 1 51.5-51.5M233.97 88.03a70 70 0 0 1-70 70m50.83-70.5a51.5 51.5 0 0 1-51.5 51.5m481.28 17.34a70.7 70.7 0 0 0 15.2 1.66m-70-70c0 4.77.48 9.43 1.39 13.93m17.78-14.43a51.5 51.5 0 0 0 51.5 51.5m-16.1 510.67a70.3 70.3 0 0 1 15.43-1.7m-70 70c0-4.44.41-8.79 1.2-13m53.9-35.6a51.48 51.48 0 0 1 15.57-2.4m-51.5 51.5c0-4.59.6-9.03 1.72-13.27"/><g fill="#231f20"><path d="M257.5 459.5h-43.3l21.65-37.5 21.65-37.5 21.65 37.5 21.65 37.5Z"/><path d="M239.17 533.33h-43.3l21.65-37.5 21.65-37.5 21.65 37.5 21.65 37.5Zm326.79-73.58h43.3l-21.65-37.5-21.65-37.5-21.65 37.5-21.65 37.5Z"/><path d="M584.3 533.58h43.3l-21.65-37.5-21.66-37.5-21.65 37.5-21.65 37.5Z"/></g><path fill="none" stroke="#fff" stroke-linecap="round" stroke-linejoin="round" stroke-width="4" d="M177.66 649.34c-4.5-.9-9.1-1.34-13.7-1.34m70 70c0-4.56-.43-9.02-1.26-13.34"/><path fill="#231f20" d="M212.42 703H642.5l-70.4-295.33c0-25.63-21.04-46.4-47-46.4l-32.6.1-82.67 79.9-80.33-80.02-31.39.02c-25.95 0-47 20.77-47 46.4L186.85 672.7a51.63 51.63 0 0 1 25.57 30.3Z"/><path fill="#fff" d="m409.82 441.27-80.33-80.02-2.17-21.95 14.5 8.7 69.17 6 33-1 40.13-7.13 10.56-6.67-2.19 22.18"/><path fill="none" stroke="#fff" stroke-linecap="round" stroke-linejoin="round" stroke-width="4" d="M329.5 338.5c0 8.56 36.49 15.5 81.5 15.5s81.5-6.94 81.5-15.5"/><path fill="none" stroke="#f68635" stroke-linecap="round" stroke-linejoin="round" stroke-width="4" d="M457.02 371.43a570.73 570.73 0 0 1-46.78 1.85c-16.05 0-31.34-.61-45.26-1.72m69.02 18.1a608.48 608.48 0 0 1-46-.05"/><path fill="#f68635" stroke="#231f20" stroke-linecap="round" stroke-linejoin="round" stroke-width="4" d="M371.55 623.38v-.08a54.97 54.97 0 0 1 14.18 4.87 50.42 50.42 0 0 0 16.22 5.13c4.57.68 9.26.87 14.15.9l23.1.13 24.4.14s0-.05.02-.05a10.25 10.25 0 1 0-.84-20.46l-23.46-.13v-.09l30.94.18.01-.05a10.25 10.25 0 1 0-.84-20.46l-30-.16v-.1l37.48.22s0-.05.02-.05a10.26 10.26 0 1 0-.85-20.46l-36.53-.2v-.09l30.94.18s0-.05.02-.05a10.25 10.25 0 1 0-.85-20.46l-38.5-.22-.24-.42 17.33-4.26v-.05a10.25 10.25 0 1 0-5.76-19.65l-41.38 10.12a28.92 28.92 0 0 0-18.46 11.29c-2.13 2.34-6.45 6.45-11.09 7.12v.02"/><path fill="#fff" d="m371.58 622-38.34 18.56V541.4l38.34 16.27Z"/><path fill="#231f20" d="M956.95 253.7a11.9 11.9 0 0 1-11.91 11.91H870.9A11.91 11.91 0 0 1 859 253.7v-29.12a11.9 11.9 0 0 1 11.91-11.91h74.13a11.9 11.9 0 0 1 11.91 11.9Z"/><g stroke="#fff" stroke-linecap="round" stroke-linejoin="round" stroke-width="4"><path fill="#f68635" d="M1203.12 263.5H946.87v-49h256.25l35.34 24.9Z"/><path fill="none" d="M1234.67 239h-288"/></g><path fill="#231f20" d="M927.67 191.5h29v95h-29Z"/><path fill="none" stroke="#fff" stroke-linecap="round" stroke-linejoin="round" stroke-width="4" d="M841.9 103h-37.43v34.68A51.58 51.58 0 0 0 841.9 103Zm428.57 33.49V103h-33.16a51.6 51.6 0 0 0 33.16 33.49Zm-466 189.4v38.63h38.5a51.55 51.55 0 0 0-38.5-38.64Zm431.77 38.63h34.23v-37.45a51.57 51.57 0 0 0-34.23 37.45Zm34.23-57.3V156.34a70.07 70.07 0 0 1-53.08-53.33H861.81a70.06 70.06 0 0 1-57.34 54.16V306.4a70.04 70.04 0 0 1 58.1 58.12h354.07a70.05 70.05 0 0 1 53.83-57.3ZM212.43 103H178v33.89A51.6 51.6 0 0 0 212.43 103Zm398.89 0H232.35A70.08 70.08 0 0 1 178 156.62v512.52A51.59 51.59 0 0 1 213 705h431V136.33A51.61 51.61 0 0 1 611.32 103Z"/></svg>