<svg xmlns="http://www.w3.org/2000/svg" viewBox="0 0 832 627"><path fill="#fff" d="M731 487.68a44.68 44.68 0 0 1 28.28-28.74l3.85-86.67-80.6-3.58 18.33 81.58-134.03 30.13Z"/><g stroke-linecap="round" stroke-linejoin="round" stroke-width="2.55"><path fill="#231f20" stroke="#f68635" d="M746.08 413.1c-.32 13.02-37.35 22.67-82.71 21.56-45.37-1.12-81.88-12.56-81.57-25.58.32-13 37.36-22.65 82.72-21.54 45.36 1.1 81.88 12.56 81.56 25.57Z"/><path fill="#f68635" stroke="#231f20" d="M747.75 447.46c-.32 13.02-37.35 22.66-82.71 21.55-45.37-1.1-81.88-12.56-81.56-25.57.31-13 37.35-22.66 82.71-21.55 45.36 1.12 81.88 12.56 81.56 25.57Z"/></g><path fill="#fff" d="m743.9 488.26 14.06.62.72-16.41a32.9 32.9 0 0 0-14.77 15.79Z"/><path fill="#231f20" d="m643.13 366.63 25.7 50.48a38.9 38.9 0 0 1-29.55 46.42l-64.1 14.25a38.9 38.9 0 0 1-46.43-29.54l1.67-57"/><path fill="#f68635" d="m586.66 475.25-7.28-34.92 39.09-8.9 7.57 35.11"/><path fill="#f68635" d="M644.23 365.84c-.76.18-1.51.4-2.25.65a59.34 59.34 0 0 0-111.11 25.3 20.6 20.6 0 1 0 11.6 38.83 59.33 59.33 0 0 0 105.87-24.1 20.6 20.6 0 1 0-4.1-40.67Z"/><path fill="#231f20" d="m515.78 321.11 110.67-25.22 16.35 71.73-110.67 25.22Z"/><path fill="none" stroke="#231f20" stroke-linecap="round" stroke-linejoin="round" stroke-width="3.25" d="M644.23 365.84c-.76.18-1.51.4-2.25.65a59.34 59.34 0 0 0-111.11 25.3 20.6 20.6 0 1 0 11.6 38.83 59.33 59.33 0 0 0 105.87-24.1 20.6 20.6 0 1 0-4.1-40.67Z"/><path fill="#f68635" stroke="#231f20" stroke-linecap="round" stroke-linejoin="round" stroke-width="3.25" d="m521.75 409.26 15.37 10.58m118.25-41-9.27 16.2"/><path fill="#231f20" d="m544.9 388.96-2.96 19.49-11.24-16.38Z"/><path fill="#f68635" d="m592.28 379.62 2.96-19.48 11.02 16.32Z"/><path fill="#f68635" d="m604.75 383.93 2.96-19.49 11.24 16.38Z"/><path fill="#231f20" d="m643.34 367.09-2.96 19.48-11.25-16.38Zm-70.01 38.43a7.83 7.83 0 1 1-15.26 3.48 7.83 7.83 0 0 1 15.26-3.48Z"/><path fill="none" stroke="#231f20" stroke-linecap="round" stroke-linejoin="round" stroke-width="3.25" d="M581.87 405.3a18.93 18.93 0 0 0-30.48 6.94"/><path fill="#231f20" d="M623.32 395.92a7.83 7.83 0 1 1-15.65 0 7.83 7.83 0 0 1 15.65 0Z"/><path fill="none" stroke="#231f20" stroke-linecap="round" stroke-linejoin="round" stroke-width="3.25" d="M631.67 393.96a18.93 18.93 0 0 0-30.48 6.94"/><path fill="#f68635" stroke="#231f20" stroke-linecap="round" stroke-linejoin="round" stroke-width="3.25" d="m591.1 401.54 2.53 11.1"/><path fill="#fff" d="M617 414.13a22.2 22.2 0 1 1-43.28 9.91"/><path fill="none" stroke="#fff" stroke-linecap="round" stroke-linejoin="round" stroke-width="2.55" d="m668.2 304.95-171.34 38.52a44.78 44.78 0 0 1-11.36 11.49l30.75 136.8 184.61-41.49ZM91.44 501.84a32.8 32.8 0 0 0-32.8-32.8M342.48 99.97a32.8 32.8 0 0 0 32.8 32.8"/><path fill="#231f20" d="M706.18 194.74a57.32 57.32 0 1 1-114.64 0 57.32 57.32 0 0 1 114.64 0Z"/><path fill="#f68635" d="M653.96 147.08a5.1 5.1 0 1 1-10.2 0 5.1 5.1 0 0 1 10.2 0ZM620.5 161.2a5.1 5.1 0 1 1-10.2 0 5.1 5.1 0 0 1 10.2 0Zm.45 67.1a5.1 5.1 0 1 1-10.2 0 5.1 5.1 0 0 1 10.2 0Zm33.65 13.68a5.1 5.1 0 1 1-10.2 0 5.1 5.1 0 0 1 10.2 0Zm24.76-10.52a5.1 5.1 0 1 1 7.06-7.35 5.1 5.1 0 0 1-7.06 7.35Zm8.24-70.71a5.1 5.1 0 1 1-10.19 0 5.1 5.1 0 0 1 10.2 0Z"/><path fill="#231f20" stroke="#f68635" stroke-linecap="round" stroke-linejoin="round" stroke-width="2.55" d="M686.65 194.74a37.8 37.8 0 1 1-75.58 0 37.8 37.8 0 0 1 75.58 0Z"/><path fill="none" stroke="#fff" stroke-linecap="round" stroke-linejoin="round" stroke-width="2.55" d="M268.3 259.81c0 5.45-23.23 9.87-51.9 9.87-28.67 0-51.9-4.42-51.9-9.87 0-5.45 23.23-9.87 51.9-9.87 28.67 0 51.9 4.42 51.9 9.87Z"/><path fill="#f68635" stroke="#231f20" stroke-linecap="round" stroke-linejoin="round" stroke-width="2.55" d="m196.33 268.55-.22-33.8 40.14-.2.22 33.8"/><path fill="#f68635" d="M275.67 176.05c-.79 0-1.57.06-2.33.15a59.4 59.4 0 0 0-114.08.59 20.62 20.62 0 1 0 2.9 40.47 59.38 59.38 0 0 0 108.7-.57 20.62 20.62 0 1 0 4.82-40.64Z"/><path fill="#231f20" d="M158.15 105.92h113.63v73.65H158.15Z"/><path fill="none" stroke="#231f20" stroke-linecap="round" stroke-linejoin="round" stroke-width="2.55" d="M275.67 176.05c-.79 0-1.57.06-2.33.15a59.4 59.4 0 0 0-114.08.59 20.62 20.62 0 1 0 2.9 40.47 59.38 59.38 0 0 0 108.7-.57 20.62 20.62 0 1 0 4.82-40.64Z"/><path fill="#f68635" stroke="#231f20" stroke-linecap="round" stroke-linejoin="round" stroke-width="2.55" d="m146.55 191.88 12.72 13.68m124.46-14.39-12.57 13.81"/><path fill="#231f20" d="m173.58 177.07-7.12 18.4-7.44-18.45Z"/><path fill="#f68635" d="m221.92 178.87 7.12-18.4 7.22 18.35Z"/><path fill="#f68635" d="m233.16 184.5 7.12-18.39 7.43 18.45Z"/><path fill="#231f20" d="m274.53 177.07-7.12 18.4-7.44-18.45Zm-76.76 22.4a7.84 7.84 0 1 1-15.67 0 7.84 7.84 0 0 1 15.67 0Z"/><path fill="none" stroke="#231f20" stroke-linecap="round" stroke-linejoin="round" stroke-width="2.55" d="M206.16 201.07a18.95 18.95 0 0 0-31.29.16"/><path fill="#231f20" d="M248.9 199.2a7.83 7.83 0 1 1-15.67 0 7.83 7.83 0 0 1 15.67 0Z"/><path fill="none" stroke="#231f20" stroke-linecap="round" stroke-linejoin="round" stroke-width="2.55" d="M257.3 200.8a18.94 18.94 0 0 0-31.3.17"/><path fill="#f68635" stroke="#231f20" stroke-linecap="round" stroke-linejoin="round" stroke-width="2.55" d="m216 199.4.06 11.4m13.28 11-26.62.05m18.3 5.48h-9.97"/><path fill="#010101" d="M808.29 44.29H24.49C11.44 44.29.86 56.12.86 70.72v471.81c0 14.6 10.58 26.43 23.63 26.43h783.8c13.05 0 23.62-11.83 23.62-26.43V70.72c0-14.6-10.57-26.43-23.62-26.43Zm5.53 505H18.96V62.69h794.86Z"/><path fill="none" stroke="#010101" stroke-linecap="round" stroke-linejoin="round" stroke-width="2.55" d="M416.4 62.05V551.2"/><path fill="#fff" d="M735 64.63 702.8.46 574.9 64.63ZM327 549.16l-38.9 77.55-154.57-77.55Z"/><path fill="none" stroke="#fff" stroke-linecap="round" stroke-linejoin="round" stroke-width="2.55" d="M504.56 100.28a44.58 44.58 0 0 1-44.58 44.59m32.37-44.9a32.8 32.8 0 0 1-32.8 32.8m314.04 12.15a44.58 44.58 0 0 1-44.58-44.58m44.9 32.37a32.8 32.8 0 0 1-32.8-32.8M728.9 283.39a44.58 44.58 0 0 1 44.58-44.58m-32.37 44.9a32.8 32.8 0 0 1 32.8-32.8m-314.04-12.16a44.58 44.58 0 0 1 44.58 44.59m-44.9-32.38a32.8 32.8 0 0 1 32.8 32.8m12.21 34.34a44.58 44.58 0 0 1-44.58 44.58m32.37-44.9a32.8 32.8 0 0 1-32.8 32.8M728.9 501.2a44.58 44.58 0 0 1 44.58-44.58m-32.37 44.9a32.8 32.8 0 0 1 32.8-32.8M103.65 100.28a44.58 44.58 0 0 1-44.59 44.59m32.38-44.9a32.8 32.8 0 0 1-32.8 32.8m306.53 11.04c3.18.7 6.43 1.06 9.68 1.06m-44.58-44.59c0 3.04.3 6.01.88 8.88m11.33-9.2a32.8 32.8 0 0 0 32.8 32.8m-10.26 325.26a44.74 44.74 0 0 1 9.83-1.08m-44.58 44.58c0-2.83.26-5.6.77-8.28m34.32-22.68a32.75 32.75 0 0 1 9.91-1.52m-32.8 32.8c0-2.92.39-5.76 1.1-8.45"/><g fill="#231f20"><path d="M118.64 336.88H91.06l13.79-23.89 13.79-23.88 13.78 23.88 13.8 23.89Z"/><path d="M106.96 383.9H79.38l13.79-23.88 13.79-23.88 13.79 23.88 13.79 23.88Zm208.14-46.86h27.58l-13.8-23.89-13.78-23.88-13.8 23.88-13.78 23.89Z"/><path d="M326.77 384.06h27.58l-13.79-23.88-13.79-23.89-13.79 23.89-13.79 23.88Z"/></g><path fill="none" stroke="#fff" stroke-linecap="round" stroke-linejoin="round" stroke-width="2.55" d="M67.79 457.79c-2.88-.57-5.8-.86-8.73-.86m44.59 44.59c0-2.9-.28-5.75-.81-8.5"/><path fill="#231f20" d="M89.92 491.96h273.93L319 303.87c0-16.31-13.4-29.55-29.94-29.55l-20.76.07-52.65 50.89-51.17-50.97-19.99.01c-16.53 0-29.93 13.23-29.93 29.55l-40.92 168.8a32.88 32.88 0 0 1 16.28 19.3Z"/><path fill="#fff" d="M215.65 325.27 164.5 274.3l-1.39-13.98 9.24 5.54 44.06 3.82 21.01-.63 25.56-4.54 6.73-4.25-1.4 14.12"/><path fill="none" stroke="#fff" stroke-linecap="round" stroke-linejoin="round" stroke-width="2.55" d="M164.5 259.81c0 5.45 23.23 9.87 51.9 9.87 28.67 0 51.9-4.42 51.9-9.87"/><path fill="none" stroke="#f68635" stroke-linecap="round" stroke-linejoin="round" stroke-width="2.55" d="M245.71 280.79a364.1 364.1 0 0 1-29.8 1.17c-10.21 0-19.95-.39-28.82-1.1m43.96 11.54a389.4 389.4 0 0 1-29.3-.03"/><path fill="#f68635" stroke="#231f20" stroke-linecap="round" stroke-linejoin="round" stroke-width="2.55" d="M191.28 441.25v-.05a34.9 34.9 0 0 1 9.03 3.1 32.07 32.07 0 0 0 10.33 3.27c2.9.44 5.9.56 9.01.58l14.7.08 15.56.09v-.03a6.53 6.53 0 1 0-.53-13.03l-14.95-.09v-.05l19.72.1v-.02a6.53 6.53 0 1 0-.53-13.03l-19.1-.1-.01-.06 23.87.13.01-.03a6.53 6.53 0 1 0-.54-13.03l-23.27-.13v-.06l19.71.12.01-.04a6.53 6.53 0 1 0-.54-13.02l-24.52-.14-.15-.27 11.04-2.72v-.03a6.53 6.53 0 1 0-3.67-12.51l-26.36 6.44a18.4 18.4 0 0 0-11.76 7.19c-1.35 1.5-4.1 4.11-7.06 4.54v.01"/><path fill="#fff" d="m191.3 440.38-24.43 11.82v-63.16l24.42 10.36Z"/><path fill="#231f20" d="M564.12 205.8a7.59 7.59 0 0 1-7.59 7.59h-47.2a7.6 7.6 0 0 1-7.6-7.59v-18.55a7.59 7.59 0 0 1 7.6-7.58h47.2c4.2 0 7.6 3.4 7.6 7.58Z"/><g stroke="#fff" stroke-linecap="round" stroke-linejoin="round" stroke-width="2.55"><path fill="#f68635" d="M720.9 212.04H557.7v-31.2h163.2l22.52 15.85Z"/><path fill="none" d="M741 196.44H557.57"/></g><path fill="#231f20" d="M545.47 166.19h18.47v60.5h-18.47Z"/><path fill="none" stroke="#fff" stroke-linecap="round" stroke-linejoin="round" stroke-width="2.55" d="M490.85 109.82H467v22.08a32.85 32.85 0 0 0 23.85-22.08Zm272.95 21.33v-21.33h-21.12a32.87 32.87 0 0 0 21.13 21.33ZM467 251.78v24.6h24.52a32.84 32.84 0 0 0-24.52-24.6Zm275 24.6h21.8v-23.85a32.85 32.85 0 0 0-21.8 23.85Zm21.8-36.49v-96.1a44.62 44.62 0 0 1-33.8-33.97H503.53a44.62 44.62 0 0 1-36.53 34.5v95.05c19 3 34 18.01 37 37.01h225.52a44.62 44.62 0 0 1 34.28-36.49ZM89.93 109.82H68v21.58a32.87 32.87 0 0 0 21.93-21.58Zm254.05 0H102.61A44.63 44.63 0 0 1 68 143.97V470.4a32.86 32.86 0 0 1 22.3 22.84h274.5v-362.2a32.88 32.88 0 0 1-20.82-21.22Z"/></svg>