<svg xmlns="http://www.w3.org/2000/svg" xmlns:xlink="http://www.w3.org/1999/xlink" width="1080" height="1080"><defs><path id="a" d="M850.992 719.684c4.297-13.52 14.868-24.236 28.293-28.744l3.848-86.672-80.608-3.578 18.339 81.58-134.034 30.126 164.162 7.288z"/></defs><use xlink:href="#a" overflow="visible" fill="#FFF"/><clipPath id="b"><use xlink:href="#a" overflow="visible"/></clipPath><g clip-path="url(#b)" stroke-width="2.548" stroke-miterlimit="10"><ellipse transform="rotate(1.403 783.903 642.8)" fill="#231F20" stroke="#F68635" cx="783.95" cy="643.096" rx="82.162" ry="23.566"/><ellipse transform="rotate(1.403 785.586 677.157)" fill="#F68635" stroke="#231F20" cx="785.62" cy="677.453" rx="82.161" ry="23.566"/></g><path fill="#FFF" d="M863.908 720.258l14.048.623.729-16.412a32.904 32.904 0 00-14.777 15.789z"/><path fill="#231F20" d="M763.135 598.629l25.688 50.48c4.661 20.975-8.564 41.758-29.539 46.42l-64.109 14.246c-20.978 4.662-41.762-8.564-46.422-29.539l1.672-56.992"/><path fill="#F68635" d="M706.657 707.246l-7.282-34.918 39.092-8.902 7.574 35.115"/><defs><path id="c" d="M764.229 597.842a20.52 20.52 0 00-2.245.65c-12.466-22.514-38.707-35.074-65.058-29.074-26.349 5.998-44.567 28.682-46.056 54.369a21.09 21.09 0 00-2.308.387c-11.091 2.523-18.033 13.562-15.509 24.65 2.524 11.096 13.562 18.037 24.652 15.512a20.65 20.65 0 004.76-1.719c13.593 18.285 37.148 27.848 60.793 22.469 23.643-5.385 40.738-24.203 45.078-46.57a20.642 20.642 0 005.033-.512c11.092-2.523 18.035-13.562 15.512-24.65-2.523-11.094-13.562-18.036-24.652-15.512z"/></defs><use xlink:href="#c" overflow="visible" fill="#F68635"/><clipPath id="d"><use xlink:href="#c" overflow="visible"/></clipPath><path transform="rotate(-12.84 699.132 576.505)" clip-path="url(#d)" fill="#231F20" d="M642.56 539.617h113.508v73.572H642.56z"/><use xlink:href="#c" overflow="visible" fill="none" stroke="#231F20" stroke-width="3.254" stroke-miterlimit="10"/><path fill="#F68635" stroke="#231F20" stroke-width="3.254" stroke-linecap="round" stroke-linejoin="round" stroke-miterlimit="10" d="M641.752 641.26l15.363 10.584M775.365 610.842l-9.269 16.191"/><path fill="#231F20" d="M664.897 620.963l-2.958 19.482-11.243-16.379z"/><path fill="#F68635" d="M712.285 611.621l2.958-19.482 11.015 16.324z"/><path fill="#F68635" d="M724.749 615.926l2.956-19.483 11.244 16.377z"/><path fill="#231F20" d="M763.336 599.088l-2.958 19.482-11.243-16.379zM693.329 637.523a7.824 7.824 0 01-5.894 9.367 7.824 7.824 0 01-9.367-5.893 7.822 7.822 0 015.896-9.365 7.826 7.826 0 019.365 5.891z"/><path fill="none" stroke="#231F20" stroke-width="3.254" stroke-linecap="round" stroke-linejoin="round" stroke-miterlimit="10" d="M701.872 637.301c-4.435-4.09-10.741-6.002-17.067-4.561-6.328 1.439-11.186 5.891-13.41 11.5"/><circle fill="#231F20" cx="735.498" cy="627.924" r="7.826"/><path fill="none" stroke="#231F20" stroke-width="3.254" stroke-linecap="round" stroke-linejoin="round" stroke-miterlimit="10" d="M751.672 625.965c-4.434-4.094-10.739-6.006-17.066-4.564s-11.186 5.895-13.41 11.5"/><path fill="#F68635" stroke="#231F20" stroke-width="3.254" stroke-linecap="round" stroke-linejoin="round" stroke-miterlimit="10" d="M711.104 633.539l2.529 11.109"/><path fill="#FFF" d="M736.995 646.131c2.737 11.947-4.73 23.855-16.683 26.592-11.948 2.736-23.855-4.73-26.591-16.682"/><path fill="none" stroke="#FFF" stroke-width="2.548" stroke-miterlimit="10" d="M788.197 536.953l-171.34 38.516a44.8 44.8 0 01-11.357 11.49l30.752 136.807 184.611-41.496-32.666-145.317zM211.439 733.838c0-18.115-14.686-32.799-32.801-32.799M462.476 331.965c0 18.115 14.685 32.801 32.8 32.801"/><g><circle fill="#231F20" cx="768.862" cy="426.74" r="57.322"/><circle fill="#F68635" cx="768.863" cy="379.078" r="5.096"/><circle fill="#F68635" cx="735.403" cy="393.202" r="5.095"/><circle fill="#F68635" cx="735.854" cy="460.306" r="5.095"/><circle fill="#F68635" cx="769.5" cy="473.979" r="5.095"/><path fill="#F68635" d="M799.356 463.459a5.096 5.096 0 117.207-7.204 5.096 5.096 0 01-7.207 7.204z"/><circle fill="#F68635" cx="802.508" cy="392.751" r="5.095"/><circle fill="#231F20" stroke="#F68635" stroke-width="2.548" stroke-miterlimit="10" cx="768.863" cy="426.74" r="37.791"/></g><ellipse fill="none" stroke="#FFF" stroke-width="2.548" stroke-miterlimit="10" cx="336.4" cy="491.812" rx="51.908" ry="9.871"/><g><path fill="#F68635" stroke="#231F20" stroke-width="2.548" stroke-linecap="round" stroke-miterlimit="10" d="M316.33 500.551l-.215-33.795 40.136-.207.214 33.795"/><defs><path id="e" d="M395.672 408.051c-.79.004-1.57.057-2.336.146-7.293-24.707-30.209-42.682-57.264-42.543-27.052.141-49.782 18.352-56.816 43.133a20.555 20.555 0 00-2.339-.123c-11.386.059-20.569 9.336-20.511 20.723.061 11.387 9.338 20.57 20.723 20.512 1.736-.01 3.42-.236 5.026-.646 9.312 20.822 30.255 35.283 54.53 35.158 24.275-.127 45.069-14.803 54.167-35.719 1.613.393 3.296.602 5.032.592 11.386-.059 20.568-9.336 20.511-20.723-.058-11.387-9.335-20.569-20.723-20.51z"/></defs><use xlink:href="#e" overflow="visible" fill="#F68635"/><clipPath id="f"><use xlink:href="#e" overflow="visible"/></clipPath><path transform="translate(-1.925 1.748)" clip-path="url(#f)" fill="#231F20" d="M280.072 336.172h113.633v73.655H280.072z"/><use xlink:href="#e" overflow="visible" fill="none" stroke="#231F20" stroke-width="2.548" stroke-miterlimit="10"/><path fill="#F68635" stroke="#231F20" stroke-width="2.548" stroke-linecap="round" stroke-linejoin="round" stroke-miterlimit="10" d="M266.549 423.881l12.717 13.68M403.731 423.172l-12.575 13.81"/><g><path fill="#231F20" d="M293.576 409.072l-7.12 18.399-7.433-18.45z"/></g><g><path fill="#F68635" d="M341.916 410.873l7.121-18.398 7.22 18.343z"/></g><g><path fill="#F68635" d="M353.16 416.508l7.121-18.397 7.432 18.45z"/></g><g><path fill="#231F20" d="M394.527 409.072l-7.121 18.399-7.432-18.45z"/></g><g><circle fill="#231F20" cx="309.931" cy="431.473" r="7.835"/><path fill="none" stroke="#231F20" stroke-width="2.548" stroke-linecap="round" stroke-linejoin="round" stroke-miterlimit="10" d="M326.162 433.068c-3.445-4.961-9.192-8.199-15.689-8.166-6.496.035-12.21 3.332-15.603 8.328"/></g><g><circle fill="#231F20" cx="361.061" cy="431.208" r="7.834"/><path fill="none" stroke="#231F20" stroke-width="2.548" stroke-linecap="round" stroke-linejoin="round" stroke-miterlimit="10" d="M377.292 432.805c-3.443-4.963-9.19-8.199-15.687-8.166-6.497.033-12.213 3.33-15.605 8.328"/></g><path fill="#F68635" stroke="#231F20" stroke-width="2.548" stroke-linecap="round" stroke-linejoin="round" stroke-miterlimit="10" d="M336.002 431.396l.057 11.407M349.34 453.809l-26.619.039M341.012 459.328l-9.963.002"/></g><g><path fill="#010101" d="M928.289 276.289H144.492c-13.049 0-23.627 11.832-23.627 26.428v471.816c0 14.594 10.578 26.428 23.627 26.428h783.797c13.048 0 23.625-11.834 23.625-26.428V302.717c0-14.596-10.577-26.428-23.625-26.428zm5.534 504.998H138.959v-486.6h794.864v486.6z"/><path fill="none" stroke="#010101" stroke-width="2.548" stroke-miterlimit="10" d="M536.391 294.051v489.146"/></g><path fill="#FFF" d="M855 296.632l-32.197-64.176-127.907 64.176zM447.003 781.16l-38.91 77.551-154.567-77.551z"/><g fill="none" stroke="#FFF" stroke-width="2.548" stroke-miterlimit="10"><path d="M624.562 332.283c0 24.623-19.96 44.584-44.583 44.584M612.354 331.965c0 18.115-14.685 32.801-32.801 32.801M893.59 376.92c-24.623 0-44.583-19.961-44.583-44.584M893.908 364.713c-18.114 0-32.799-14.686-32.799-32.801"/><g><path d="M848.9 515.389c0-24.623 19.961-44.584 44.584-44.584M861.107 515.707c0-18.115 14.686-32.801 32.801-32.801"/></g><g><path d="M579.872 470.752c24.624 0 44.583 19.961 44.583 44.584M579.553 482.959c18.115 0 32.8 14.686 32.8 32.801"/></g></g><g fill="none" stroke="#FFF" stroke-width="2.548" stroke-miterlimit="10"><path d="M624.562 550.096c0 24.623-19.96 44.584-44.583 44.584M612.354 549.777c0 18.115-14.685 32.799-32.801 32.799"/><g><path d="M848.9 733.201c0-24.625 19.961-44.584 44.584-44.584M861.107 733.52c0-18.115 14.686-32.801 32.801-32.801"/></g></g><g fill="none" stroke="#FFF" stroke-width="2.548" stroke-miterlimit="10"><path d="M223.646 332.283c0 24.623-19.961 44.584-44.584 44.584M211.439 331.965c0 18.115-14.686 32.801-32.801 32.801"/></g><g fill="none" stroke="#FFF" stroke-width="2.548" stroke-miterlimit="10"><path d="M485.171 375.814a44.803 44.803 0 009.681 1.053M450.268 332.283c0 3.039.304 6.008.884 8.875M462.476 331.965c0 18.115 14.685 32.801 32.8 32.801"/></g><g fill="none" stroke="#FFF" stroke-width="2.548" stroke-miterlimit="10"><path d="M485.024 690.021a44.74 44.74 0 019.827-1.086M450.268 733.52c0-2.83.264-5.598.768-8.281M485.357 702.564a32.769 32.769 0 019.918-1.525M462.476 733.838c0-2.922.381-5.756 1.099-8.453"/></g><g><g fill="#231F20"><path d="M238.636 568.877h-27.581l13.791-23.883 13.79-23.885 13.788 23.885 13.79 23.883z"/><path d="M226.957 615.904h-27.578l13.789-23.884 13.789-23.885 13.791 23.885 13.789 23.884z"/><g><path d="M435.098 569.037h27.579l-13.789-23.885-13.79-23.882-13.79 23.882-13.79 23.885z"/><path d="M446.774 616.062h27.579l-13.79-23.884-13.789-23.885-13.79 23.885-13.789 23.884z"/></g></g><path fill="none" stroke="#FFF" stroke-width="2.548" stroke-miterlimit="10" d="M187.787 689.789a44.866 44.866 0 00-8.725-.854M223.646 733.52c0-2.906-.277-5.746-.809-8.496"/><path fill="#231F20" d="M209.924 723.965h273.921l-44.839-188.102c0-16.318-13.402-29.549-29.936-29.549l-20.762.066-52.651 50.887-51.165-50.967-19.99.014c-16.532 0-29.934 13.23-29.934 29.549L193.635 704.67c7.708 3.971 13.642 10.9 16.289 19.295z"/></g><g><path fill="#FFF" d="M335.652 557.268l-51.165-50.967-1.383-13.983 9.239 5.545 44.053 3.821 21.017-.637 25.557-4.537 6.727-4.25-1.392 14.121"/><path fill="none" stroke="#FFF" stroke-width="2.548" stroke-miterlimit="10" d="M284.492 491.812c0 5.451 23.24 9.871 51.908 9.871 28.669 0 51.908-4.42 51.908-9.871"/><path fill="none" stroke="#F68635" stroke-width="2.548" stroke-linecap="round" stroke-linejoin="round" stroke-miterlimit="10" d="M365.713 512.787c-9.127.756-19.203 1.178-29.795 1.178-10.22 0-19.959-.391-28.83-1.098M351.054 524.4c-4.597.168-9.344.256-14.199.256-5.175 0-10.228-.1-15.107-.291"/></g><g><path fill="#F68635" stroke="#231F20" stroke-width="2.548" stroke-linecap="round" stroke-linejoin="round" stroke-miterlimit="10" d="M311.275 673.252l-.002-.047c3.115.643 6.213 1.633 9.033 3.1 3.422 1.783 6.827 2.75 10.332 3.27 2.911.432 5.893.555 9.012.572l14.709.084 15.548.086s0-.031.008-.029a6.526 6.526 0 006.564-6.49 6.528 6.528 0 00-7.102-6.541l-14.943-.084v-.055l19.711.111s0-.031.008-.031a6.528 6.528 0 10.073-13.054 5.39 5.39 0 00-.611.027l-19.104-.109-.002-.055 23.873.135s.001-.031.008-.029a6.529 6.529 0 10-.537-13.031l-23.27-.131-.001-.057 19.71.111s.002-.029.011-.031a6.528 6.528 0 00.072-13.056 7.31 7.31 0 00-.612.029l-24.521-.141c-.053-.088-.102-.18-.153-.268l11.04-2.715s-.008-.029.002-.029a6.53 6.53 0 00-3.092-12.688 6.32 6.32 0 00-.583.174l-26.354 6.443c-.435.072-.869.158-1.306.264a18.41 18.41 0 00-10.454 6.926c-1.355 1.492-4.109 4.111-7.061 4.535l.001.012"/><path fill="#FFF" d="M311.292 672.375l-24.419 11.822v-63.154l24.419 10.357z"/></g><g><path fill="#231F20" d="M684.122 437.801a7.587 7.587 0 01-7.587 7.588h-47.211a7.588 7.588 0 01-7.588-7.588v-18.547a7.587 7.587 0 017.588-7.586h47.211a7.587 7.587 0 017.587 7.586v18.547z"/><g stroke="#FFF" stroke-width="2.548" stroke-miterlimit="10"><path fill="#F68635" d="M840.908 444.043H677.702v-31.209h163.206l22.511 15.861z"/><path fill="none" d="M861.002 428.439H677.571"/></g><path fill="#231F20" d="M665.471 398.186h18.471v60.506h-18.471z"/></g><g fill="none" stroke="#FFF" stroke-width="2.548" stroke-miterlimit="10"><path d="M610.845 341.82h-23.841v22.084c11.317-2.631 20.389-11.109 23.841-22.084zM883.805 363.15v-21.33h-21.122c3.172 10.082 11.084 18.059 21.122 21.33zM587.004 483.775v24.607h24.518c-2.785-12.185-12.349-21.778-24.518-24.607zM862.007 508.383h21.798v-23.854c-10.861 3.541-19.226 12.59-21.798 23.854zM883.805 471.893v-96.107c-16.866-3.762-30.123-17.07-33.805-33.965H623.529c-3.879 17.793-18.375 31.617-36.525 34.49v95.057c18.999 3.01 34.002 18.014 37.004 37.016H849.52c2.858-18.085 16.587-32.544 34.285-36.491z"/></g><g fill="none" stroke="#FFF" stroke-width="2.548" stroke-miterlimit="10"><path d="M209.93 341.82H188v21.582c10.421-3.099 18.674-11.232 21.93-21.582zM463.983 341.82H222.614c-3.742 17.164-17.362 30.639-34.614 34.15v326.432c10.838 3.223 19.325 11.893 22.292 22.836h274.509V363.047c-9.893-3.334-17.677-11.248-20.818-21.227z"/></g></svg>