<svg xmlns="http://www.w3.org/2000/svg" xmlns:xlink="http://www.w3.org/1999/xlink" viewBox="0 0 1080 813.86" xml:space="preserve"><path fill="#FFF" d="M280.1 351.88c-18.14 0-35.21-1.35-48.07-3.8-14.4-2.73-21.39-6.34-21.39-11.03 0-4.69 7-8.3 21.39-11.04 12.86-2.44 29.93-3.8 48.07-3.8s35.21 1.36 48.07 3.8c14.4 2.74 21.39 6.35 21.39 11.04 0 4.69-7 8.3-21.38 11.03-12.87 2.45-29.94 3.8-48.08 3.8zm0-25.66c-17.9 0-34.7 1.32-47.33 3.72-14.87 2.83-18.13 6.1-18.13 7.11s3.26 4.28 18.14 7.1c12.62 2.4 29.43 3.73 47.32 3.73 17.9 0 34.7-1.32 47.33-3.72 14.87-2.83 18.13-6.1 18.13-7.11s-3.26-4.28-18.13-7.1c-12.62-2.4-29.43-3.73-47.33-3.73z"/><path fill="#FF8630" d="m254.02 348.41-.28-43.92 52.16-.27.28 43.92"/><path d="M254.02 350.4a2 2 0 0 1-2-1.98l-.3-45.92 56.17-.3.29 45.92a2 2 0 0 1-2 2.02 2 2 0 0 1-2-1.99l-.27-41.92-48.16.25.27 41.91a2 2 0 0 1-1.99 2.02h-.01z"/><path fill="#FF8630" d="M357.13 228.2c-1.03 0-2.04.07-3.04.19a77.2 77.2 0 0 0-148.25.76 26.8 26.8 0 1 0 3.77 52.59 77.17 77.17 0 0 0 141.25-.73 26.8 26.8 0 1 0 6.27-52.81z"/><path d="M280.07 329.43a79.23 79.23 0 0 1-71.6-45.39 28.7 28.7 0 0 1-5.38.54h-.15a28.83 28.83 0 0 1-28.8-28.64 28.83 28.83 0 0 1 30.24-28.9 79.55 79.55 0 0 1 75.29-55.94h.4a79.56 79.56 0 0 1 75.46 55.15 28.7 28.7 0 0 1 1.59-.05h.15a28.82 28.82 0 0 1 28.8 28.64 28.83 28.83 0 0 1-28.65 28.94h-.17c-1.74 0-3.5-.16-5.22-.48a79.25 79.25 0 0 1-71.55 46.13h-.4zm-69.33-50.05.7 1.54a75.24 75.24 0 0 0 68.63 44.51h.4a75.24 75.24 0 0 0 68.56-45.22l.67-1.54 1.64.4a24.82 24.82 0 0 0 30.72-24.2 24.82 24.82 0 0 0-24.8-24.67h-.12c-.9 0-1.85.06-2.81.17l-1.68.2-.48-1.62c-9.37-31.75-38.99-53.85-72.1-53.85h-.38c-33.28.17-62.85 22.63-71.93 54.6l-.46 1.62-1.67-.18a24.82 24.82 0 0 0-27.48 24.77 24.82 24.82 0 0 0 24.78 24.67h.13c2.04-.01 4.07-.27 6.05-.78l1.63-.42z"/><defs><path id="a" d="M948.85 633.18a58.06 58.06 0 0 1 36.76-37.35l5-112.64-104.75-4.65 23.83 106.02-174.18 39.15 213.34 9.47z"/></defs><use xlink:href="#a" overflow="visible" fill="#FFF"/><clipPath id="b"><use xlink:href="#a" overflow="visible"/></clipPath><g clip-path="url(#b)"><path d="M968.46 536.25c-.4 16.9-48.53 29.45-107.48 28.02-58.95-1.44-106.41-16.3-106-33.21.41-16.91 48.53-29.46 107.49-28.02 58.95 1.43 106.4 16.3 106 33.2z"/><path fill="#FF8630" d="M870.17 566.38c-3.06 0-6.14-.04-9.24-.11-53.45-1.3-108.45-14.85-107.95-35.26.5-20.42 56.08-31.27 109.53-29.97 28.7.7 55.62 4.56 75.81 10.89 21.25 6.66 32.37 15.08 32.14 24.36-.22 9.29-11.73 17.16-33.28 22.78-18.26 4.76-41.78 7.31-67 7.31zm-17.2-61.46c-57.44 0-95.67 13.07-96 26.19-.33 13.81 41.4 29.63 104.06 31.16 28.33.68 55.01-1.82 75.14-7.07 19.08-4.98 30.12-11.9 30.3-19 .17-7.1-10.53-14.56-29.34-20.45-19.85-6.22-46.38-10.03-74.71-10.71-3.2-.08-6.36-.12-9.45-.12z"/><path fill="#FF8630" d="M970.63 580.9c-.4 16.9-48.53 29.45-107.48 28.02-58.95-1.43-106.41-16.3-106-33.21.41-16.91 48.53-29.46 107.48-28.03 58.96 1.44 106.41 16.3 106 33.22z"/><path d="M872.34 611.03c-3.06 0-6.14-.04-9.24-.11-28.7-.7-55.62-4.57-75.81-10.9-21.25-6.65-32.37-15.08-32.14-24.36.5-20.41 56.07-31.28 109.53-29.97 28.7.7 55.62 4.56 75.81 10.89 21.25 6.66 32.37 15.08 32.14 24.36-.22 9.29-11.73 17.16-33.28 22.78-18.26 4.76-41.78 7.3-67 7.3zm-17.19-61.46c-57.44 0-95.68 13.07-96 26.19-.17 7.1 10.52 14.55 29.34 20.45 19.84 6.22 46.38 10.02 74.7 10.7 28.34.69 55.02-1.81 75.15-7.06 19.08-4.97 30.12-11.9 30.3-19 .17-7.1-10.53-14.56-29.34-20.45-19.85-6.22-46.38-10.03-74.71-10.72-3.2-.07-6.35-.11-9.44-.11z"/></g><path fill="#FFF" d="m965.63 633.93 18.26.8.94-21.32a42.77 42.77 0 0 0-19.2 20.52z"/><path d="m834.67 475.86 33.38 65.6a50.56 50.56 0 0 1-38.38 60.33l-83.32 18.52a50.56 50.56 0 0 1-60.33-38.4l2.18-74.06"/><path fill="#FF8630" d="m761.27 617.02-9.46-45.38 50.8-11.57 9.85 45.64"/><defs><path id="c" d="M836.1 474.84c-1 .23-1.98.52-2.93.85a77.11 77.11 0 0 0-144.4 32.87 26.76 26.76 0 1 0 15.07 50.46 77.1 77.1 0 0 0 137.6-31.32 26.76 26.76 0 1 0-5.34-52.86z"/></defs><defs><path id="d" d="M765.76 592.14a79.18 79.18 0 0 1-62.53-30.62 28.57 28.57 0 0 1-26.83-2.01 28.58 28.58 0 0 1-12.73-17.97 28.6 28.6 0 0 1 3.7-21.7 28.58 28.58 0 0 1 19.52-13.04 79.45 79.45 0 0 1 61.3-70.85 79.46 79.46 0 0 1 85.92 37.34 28.6 28.6 0 0 1 23.24 3.3 28.57 28.57 0 0 1 12.73 17.97 28.6 28.6 0 0 1-3.7 21.7 28.58 28.58 0 0 1-23.32 13.43 79.17 79.17 0 0 1-77.3 62.45zm-61.31-35.66 1 1.35a75.15 75.15 0 0 0 76.96 28.44c29-6.6 51.4-29.74 57.06-58.95l.32-1.66 1.69.04c2.03.04 4.07-.16 6.05-.62A24.6 24.6 0 0 0 863 514.13a24.6 24.6 0 0 0 3.18-18.69 24.6 24.6 0 0 0-10.96-15.46 24.75 24.75 0 0 0-21.39-2.4l-1.59.55-.81-1.48c-16.09-29.04-49.95-44.18-82.36-36.8-32.4 7.38-56.38 35.68-58.3 68.82l-.1 1.68-1.67.2a24.6 24.6 0 0 0-18.25 11.42 24.6 24.6 0 0 0-3.18 18.68 24.6 24.6 0 0 0 10.96 15.47 24.6 24.6 0 0 0 18.69 3.18 24.89 24.89 0 0 0 5.72-2.06l1.5-.76z"/></defs><use xlink:href="#c" overflow="visible" fill="#FF8630"/><use xlink:href="#d" overflow="visible"/><path fill="#FF8630" d="m676.92 531.27 19.97 13.75"/><path d="M696.89 547.02c-.4 0-.79-.11-1.13-.35l-19.97-13.76a2 2 0 1 1 2.27-3.3l19.96 13.76a2 2 0 0 1-1.13 3.65z"/><path fill="#FF8630" d="m850.56 491.74-12.04 21.04"/><path d="M838.51 514.78a2 2 0 0 1-1.73-3l12.05-21.04a2 2 0 0 1 3.47 1.99l-12.05 21.04a2 2 0 0 1-1.74 1zm-94.56 11.63a10.17 10.17 0 1 1-19.82 4.52 10.17 10.17 0 0 1 19.82-4.52z"/><path d="M715.45 537.14a2 2 0 0 1-1.86-2.74 26.62 26.62 0 0 1 42.82-9.75 2 2 0 1 1-2.71 2.94 22.63 22.63 0 0 0-36.4 8.28 2 2 0 0 1-1.85 1.27zm93.22-25.46a10.17 10.17 0 1 1-19.83 4.51 10.17 10.17 0 0 1 19.83-4.51z"/><path d="M780.17 522.4a2 2 0 0 1-1.86-2.74 26.64 26.64 0 0 1 42.82-9.74 2 2 0 1 1-2.71 2.94 22.63 22.63 0 0 0-36.4 8.28 2 2 0 0 1-1.85 1.26z"/><path fill="#FF8630" d="m767.05 521.23 3.29 14.44"/><path d="M770.34 537.67a2 2 0 0 1-1.95-1.56l-3.29-14.43a2 2 0 0 1 3.9-.9l3.29 14.44a2 2 0 0 1-1.95 2.45z"/><path fill="#FFF" d="M800.7 537.6a28.85 28.85 0 1 1-56.24 12.88"/><path fill="#FFF" d="m668.26 640.88-40.7-181.05 1.1-.77a56 56 0 0 0 14.26-14.42l.44-.65.78-.18 224.61-50.49 43.33 192.75-243.82 54.8zm-36.2-179.33 39.23 174.55 236.01-53.05-41.57-184.95-219.96 49.45a59.92 59.92 0 0 1-13.72 14zM119.7 651.58h-4a40.67 40.67 0 0 0-40.62-40.63v-4a44.68 44.68 0 0 1 44.63 44.63zm366.87-477.64a44.68 44.68 0 0 1-44.63-44.62h4a40.67 40.67 0 0 0 40.63 40.62v4z"/><path d="M916.6 252.48a74.5 74.5 0 1 1-148.98 0 74.5 74.5 0 0 1 148.99 0z"/><path fill="#FF8630" d="M848.74 190.54a6.62 6.62 0 1 1-13.25 0 6.62 6.62 0 0 1 13.25 0zm-45.43 13.68a6.62 6.62 0 1 1-9.36 9.36 6.62 6.62 0 0 1 9.36-9.36zm-8.78 87.2a6.62 6.62 0 1 1 9.37 9.37 6.62 6.62 0 0 1-9.37-9.37zm41.79 22.45a6.62 6.62 0 1 1 13.24 0 6.62 6.62 0 0 1-13.24 0zm45.42-13.67a6.62 6.62 0 1 1 9.35-9.36 6.62 6.62 0 0 1-9.35 9.36zm8.78-87.2a6.62 6.62 0 1 1-9.36-9.37 6.62 6.62 0 0 1 9.36 9.37z"/><path d="M891.23 252.48a49.11 49.11 0 1 1-98.23 0 49.11 49.11 0 0 1 98.23 0z"/><path fill="#FF8630" d="M842.11 303.6a51.17 51.17 0 0 1-51.1-51.12c0-28.18 22.92-51.1 51.1-51.1s51.11 22.92 51.11 51.1a51.17 51.17 0 0 1-51.1 51.12zm0-98.23c-25.97 0-47.1 21.14-47.1 47.11s21.13 47.12 47.1 47.12c25.98 0 47.11-21.14 47.11-47.12s-21.13-47.1-47.1-47.1z"/><path d="M538 80.05h4v635.68h-4z"/><path fill="none" d="m745.99 83.4 5.04-2.53H23.51v632.37h149.22l-.33-.16h251.44l-.09.16h632.74V80.87h-103.7l1.26 2.53z"/><path d="M1080 157.04V91.31c0-18.97-13.75-34.35-30.7-34.35H940.8l11.99 23.91h103.7v632.37H423.75l-12.82 25.57h638.37c16.95 0 30.7-15.38 30.7-34.35V157.04M23.51 713.24V80.87h727.51l47.66-23.9H30.7C13.75 56.96 0 72.33 0 91.3v613.15c0 18.97 13.75 34.35 30.7 34.35h193l-50.96-25.57H23.51z"/><path fill="#FFF" d="M745.99 83.4h208.06l-1.26-2.53H751.03zM172.4 713.08l.33.16h251.02l.09-.16zM940.79 56.96 912.21 0 798.68 56.96l-47.65 23.91h201.76z"/><path fill="#FFF" d="m223.69 738.81 149.58 75.05 37.66-75.05 12.82-25.57H172.73z"/><g fill="#FFF"><path d="M596.65 189.67v-4a56 56 0 0 0 55.93-55.94h4a60 60 0 0 1-59.93 59.94z"/><path d="M596.1 173.94v-4a40.67 40.67 0 0 0 40.62-40.62h4a44.68 44.68 0 0 1-44.63 44.62zm408.1 15.8a60 60 0 0 1-59.93-59.94h4a56 56 0 0 0 55.93 55.94v4z"/><path d="M1004.62 173.88a44.68 44.68 0 0 1-44.63-44.63h4a40.67 40.67 0 0 0 40.63 40.63v4zm-56.49 193.81h-4a60 60 0 0 1 59.94-59.94v4a56 56 0 0 0-55.94 55.94z"/><path d="M964 368.1h-4a44.68 44.68 0 0 1 44.62-44.62v4a40.67 40.67 0 0 0-40.63 40.62zm-307.55-.48h-4a56 56 0 0 0-55.94-55.94v-4a60 60 0 0 1 59.94 59.94z"/><path d="M640.72 368.17h-4a40.67 40.67 0 0 0-40.63-40.63v-4a44.68 44.68 0 0 1 44.63 44.63z"/></g><g fill="#FFF"><path d="M596.65 472.73v-4a56 56 0 0 0 55.93-55.94h4a60 60 0 0 1-59.93 59.94z"/><path d="M596.1 457v-4a40.67 40.67 0 0 0 40.62-40.62h4A44.68 44.68 0 0 1 596.09 457zm352.03 193.75h-4a60 60 0 0 1 59.94-59.94v4a56 56 0 0 0-55.94 55.94z"/><path d="M964 651.16h-4a44.68 44.68 0 0 1 44.62-44.62v4a40.67 40.67 0 0 0-40.63 40.62z"/></g><g fill="#FFF"><path d="M75.63 189.67v-4a56 56 0 0 0 55.94-55.94h4a60 60 0 0 1-59.94 59.94z"/><path d="M75.08 173.94v-4a40.67 40.67 0 0 0 40.63-40.62h4a44.68 44.68 0 0 1-44.63 44.62z"/></g><path fill="#FFF" d="M486.02 189.67c-4.4 0-8.77-.48-13.01-1.41l.86-3.91c3.96.88 8.05 1.32 12.15 1.32v4zm-58.75-48.01a60.23 60.23 0 0 1-1.2-11.93h4c0 3.76.38 7.5 1.12 11.14l-3.92.8zm59.3 32.28a44.68 44.68 0 0 1-44.63-44.62h4a40.67 40.67 0 0 0 40.63 40.62v4zm-12.88 422.65-.88-3.9c4.3-.98 8.75-1.47 13.2-1.47v4c-4.15 0-8.3.46-12.32 1.37zm-43.61 54.57h-4c0-3.74.35-7.48 1.03-11.13l3.93.74c-.64 3.4-.96 6.9-.96 10.4zm44.21-38.32-1.21-3.81a44.55 44.55 0 0 1 13.49-2.08v4c-4.2 0-8.33.64-12.28 1.9zm-28.35 38.74h-4c0-3.9.5-7.77 1.5-11.5l3.86 1.03a40.8 40.8 0 0 0-1.36 10.47zM86.58 596.3a56.47 56.47 0 0 0-10.95-1.08v-4c3.94 0 7.89.39 11.73 1.15l-.78 3.92zm48.99 54.86h-4c0-3.59-.34-7.17-1.01-10.66l3.92-.76a60.38 60.38 0 0 1 1.1 11.42z"/><path d="M438.29 498.52h21.09l-17.92-31.04-17.36-30.07h20.1l-17.92-31.04L408.76 376l-.16-.27-.24-.41a38.97 38.97 0 0 0-33.82-19.44l-26.98.1-68.42 66.12-66.5-66.23-25.98.01a38.94 38.94 0 0 0-34.98 21.6l-16.55 28.67-17.92 31.04h20.1l-17.36 30.07-17.92 31.04h20.51L94.57 613.67a42.73 42.73 0 0 1 21.17 25.08H471.7l-33.4-140.23z"/><path fill="#FFF" d="m279.13 422.11-66.49-66.23-1.8-18.17 12.01 7.2 57.25 4.97 27.31-.83 33.21-5.9 8.74-5.52-1.81 18.35"/><path fill="#FFF" d="M280.1 351.88c-18.14 0-35.21-1.35-48.07-3.8-14.4-2.73-21.39-6.34-21.39-11.03h4c0 1.02 3.26 4.28 18.14 7.1 12.62 2.4 29.43 3.73 47.32 3.73 17.9 0 34.7-1.32 47.33-3.73 14.87-2.82 18.13-6.08 18.13-7.1h4c0 4.69-7 8.3-21.39 11.03-12.86 2.45-29.93 3.8-48.07 3.8z"/><path fill="#FF8630" d="M279.47 367.84c-13.03 0-25.69-.48-37.62-1.43a2 2 0 0 1 .32-4c11.82.95 24.38 1.43 37.3 1.43 13.38 0 26.35-.51 38.56-1.52a2 2 0 1 1 .33 3.98 474.16 474.16 0 0 1-38.89 1.54zm1.23 13.89c-6.65 0-13.28-.13-19.72-.38a2 2 0 0 1-1.92-2.07c.04-1.1.97-2 2.08-1.92a511 511 0 0 0 37.93.04c1.13-.04 2.03.82 2.07 1.93s-.82 2.03-1.92 2.07c-6.06.22-12.3.33-18.53.33zm-33.25 191.11v-.06c4.05.84 8.07 2.12 11.74 4.03a41.65 41.65 0 0 0 13.42 4.25c3.79.56 7.66.72 11.71.74l19.12.11 20.2.11s0-.04.01-.03a8.48 8.48 0 1 0-.7-16.94l-19.42-.1v-.08l25.62.15.01-.05a8.48 8.48 0 1 0-.7-16.93l-24.82-.14v-.07l31.02.18v-.04a8.49 8.49 0 1 0-.69-16.94l-30.24-.17v-.07l25.61.14s0-.03.02-.04a8.48 8.48 0 1 0-.7-16.93l-31.87-.18-.2-.35 14.35-3.53v-.03a8.49 8.49 0 1 0-4.78-16.27l-34.25 8.38c-.56.1-1.13.2-1.7.34a23.93 23.93 0 0 0-13.58 9c-1.76 1.94-5.34 5.34-9.18 5.9v.01"/><path d="m323.64 584.02-39.33-.22a86.17 86.17 0 0 1-11.99-.76 43.8 43.8 0 0 1-14.06-4.46 43.05 43.05 0 0 0-10.88-3.77 1.97 1.97 0 0 1-1.93-1.87v-.06a2 2 0 0 1 2.4-2.06c4.57.95 8.7 2.36 12.26 4.22 3.93 2.04 8 3.33 12.8 4.04 3.18.47 6.7.7 11.43.72l38.94.22c.13-.02.24-.03.39-.03h.03a6.49 6.49 0 1 0-.75-12.94l-19.42-.1a2 2 0 0 1-2-2c0-.54.22-1.09.6-1.46.37-.37.88-.62 1.4-.62h.02l25.23.14c.14-.02.28-.04.42-.03a6.5 6.5 0 0 0 4.62-11.05 6.44 6.44 0 0 0-5.16-1.9l-.2.02-24.84-.15a2 2 0 0 1-1.98-1.94 2.04 2.04 0 0 1 2-2.13l30.65.18c.13-.03.3-.04.39-.04h.04a6.5 6.5 0 0 0 .03-12.97 8.97 8.97 0 0 0-.79.03l-30.24-.17a2 2 0 0 1-1.99-1.97 2.08 2.08 0 0 1 2-2.1h.01l25.23.14.4-.04h.04a6.44 6.44 0 0 0 4.6-11.04 6.45 6.45 0 0 0-5.18-1.9l-.18.01-31.87-.18a2 2 0 0 1-1.7-.97l-.21-.36a2 2 0 0 1 1.24-2.96l14-3.44c.11-.05.23-.1.36-.12a6.5 6.5 0 1 0-3.83-12.38l-34.25 8.37-.15.03a22.06 22.06 0 0 0-14.13 8.71c-1.93 2.14-5.8 5.79-10.17 6.5a2 2 0 1 1-.76-3.93c3.27-.47 6.58-3.72 7.91-5.18a26.07 26.07 0 0 1 16.43-10.03l34.08-8.34a10.4 10.4 0 0 1 8.78.98 10.5 10.5 0 0 1-2.57 19.04c-.13.07-.26.11-.4.15l-.06.02 17.23.1a10.42 10.42 0 0 1 8.28 3.07 10.4 10.4 0 0 1 3.03 7.43 10.41 10.41 0 0 1-2.6 6.85 10.5 10.5 0 0 1 7.91 10.22 10.51 10.51 0 0 1-8.02 10.14 10.5 10.5 0 0 1-5.5 17 10.5 10.5 0 0 1-7.6 17.3c-.15.03-.3.04-.44.04z"/><path fill="#FFF" d="m247.47 571.7-31.73 15.37v-82.08l31.73 13.46z"/><path d="M731.99 266.86a9.86 9.86 0 0 1-9.86 9.86h-61.36a9.86 9.86 0 0 1-9.86-9.86v-24.1a9.86 9.86 0 0 1 9.86-9.86h61.36a9.86 9.86 0 0 1 9.86 9.85v24.1z"/><path fill="#FF8630" d="M935.74 274.97h-212.1v-40.56h212.1L965 255.03z"/><path fill="#FFF" d="M936.36 276.97H721.64v-44.56h214.73l32.14 22.64-32.15 21.92zm-210.72-4h209.48L961.48 255l-26.37-18.59H725.64v36.56z"/><path fill="#FFF" d="M723.47 252.69h238.38v4H723.47z"/><path d="M707.75 215.38h24v78.63h-24z"/><g fill="#FFF"><path d="M603.78 173.34v-33.22h35.7l-.81 2.6a44.77 44.77 0 0 1-32.44 30.05l-2.45.57zm4-29.22v24.1a40.8 40.8 0 0 0 26.15-24.1h-26.15zm385.71 28.48-2.62-.85a44.7 44.7 0 0 1-28.74-29.02l-.82-2.6h32.18v32.47zm-26.63-28.47a40.71 40.71 0 0 0 22.63 22.86v-22.87h-22.63zM640.15 360.58h-36.37v-36.5l2.45.58a44.83 44.83 0 0 1 33.36 33.48l.56 2.44zm-32.37-4h27.27a40.87 40.87 0 0 0-27.27-27.37v27.37zm385.71 4h-32.84l.56-2.44a44.8 44.8 0 0 1 29.66-32.46l2.62-.85v35.75zm-27.74-4h23.74v-26.14a40.85 40.85 0 0 0-23.74 26.14z"/><path d="M948.64 360.58H652.16l-.27-1.68a55.7 55.7 0 0 0-46.43-46.44l-1.69-.27V185.24l1.7-.27a56.22 56.22 0 0 0 45.82-43.27l.34-1.57h297.54l.34 1.57a56.02 56.02 0 0 0 42.41 42.61l1.57.35v128.1l-1.57.35a56.26 56.26 0 0 0-43.01 45.79l-.27 1.68zm-293.1-4h289.7a60.34 60.34 0 0 1 44.25-47V187.85a60.07 60.07 0 0 1-43.52-43.72H654.83a60.28 60.28 0 0 1-47.05 44.5V308.8a59.68 59.68 0 0 1 47.77 47.78z"/></g><path fill="#FFF" d="M85.25 172.85v-32.72h33.22l-.82 2.6a44.55 44.55 0 0 1-29.83 29.36l-2.57.76zm4-28.72v23.27a40.55 40.55 0 0 0 23.67-23.28H89.25zM474.96 642.4H114.69l-.4-1.48a40.86 40.86 0 0 0-27.61-28.28l-1.43-.42V184.87l1.6-.32a55.88 55.88 0 0 0 43.43-42.85l.34-1.57h316.75l.44 1.4a40.75 40.75 0 0 0 25.79 26.29l1.36.45V642.4zm-357.24-4h353.24V171.12a44.78 44.78 0 0 1-26.5-27H133.82a59.9 59.9 0 0 1-44.57 44v421.14a44.94 44.94 0 0 1 28.47 29.14z"/><path fill="none" d="M357.13 228.2c-.78 0-1.56.05-2.32.12v1.8l-147.66.77-.03-5.76c-.46 1.33-.9 2.66-1.28 4.02a26.8 26.8 0 1 0 3.77 52.59 77.17 77.17 0 0 0 141.25-.73 26.8 26.8 0 1 0 6.26-52.81z"/><path fill="#FF8630" d="m189.32 248.77 16.53 17.78"/><path d="M205.85 268.55a2 2 0 0 1-1.46-.64l-16.53-17.78a2 2 0 1 1 2.93-2.72l16.53 17.78a2 2 0 0 1-1.47 3.36z"/><path fill="#FF8630" d="m367.6 247.85-16.34 17.95"/><path d="M351.26 267.8a2 2 0 0 1-1.48-3.35l16.34-17.95a2 2 0 1 1 2.96 2.7l-16.34 17.94a2 2 0 0 1-1.48.66z"/><path fill="#FF8630" d="m287.81 230.47-.54 1.39 17.47-.06.55-1.42zm29.38-.15-11.84.06.56 1.41-1.17.01-2.86 7.39 18.91.07"/><path fill="#FF8630" d="M305.35 230.38h-.06l-.55 1.42 1.17-.01zm-.06 0h.06l-.03-.08z"/><path d="M355.64 229.52h-.82l-.01-1.2-.72.07a77.18 77.18 0 0 0-146.98-3.26l.03 4.33h-1.6l9.66 23.97 8.75-22.63 63.86-.33 8.71-22.52 8.8 22.35 5.82-15.02 6.05 15.04 19.84-.1 9.36 23.21 9.25-23.9z"/><path d="M255.88 259.58a10.18 10.18 0 1 1-20.36.1 10.18 10.18 0 0 1 20.36-.1z"/><path d="M226.13 262.92a2 2 0 0 1-1.65-3.12 26.67 26.67 0 0 1 21.92-11.7h.13c8.74 0 16.92 4.28 21.91 11.47a2 2 0 0 1-3.29 2.28 22.67 22.67 0 0 0-18.62-9.75h-.11a22.67 22.67 0 0 0-18.63 9.94 2 2 0 0 1-1.66.88zm96.2-3.68a10.18 10.18 0 1 1-20.35.11 10.18 10.18 0 0 1 20.35-.11z"/><path d="M292.57 262.58a2 2 0 0 1-1.65-3.12 26.66 26.66 0 0 1 21.93-11.7h.13a26.6 26.6 0 0 1 21.9 11.47 2 2 0 0 1-3.28 2.28 22.66 22.66 0 0 0-18.62-9.76h-.11a22.66 22.66 0 0 0-18.64 9.95 2 2 0 0 1-1.66.88z"/><path fill="#FF8630" d="m279.58 258.54.08 14.82"/><path d="M279.66 275.36a2 2 0 0 1-2-2l-.08-14.82a2 2 0 1 1 4-.02l.08 14.83a2 2 0 0 1-2 2z"/><path fill="#FF8630" d="m296.92 287.66-34.6.05"/><path d="M262.32 289.71a2 2 0 0 1 0-4l34.6-.05a2 2 0 0 1 0 4l-34.6.05z"/><path fill="#FF8630" d="m286.09 294.83-12.94.01"/><path d="M273.15 296.84a2 2 0 0 1 0-4h12.94a2 2 0 0 1 0 4h-12.94z"/><path fill="none" d="M868.13 495a26.77 26.77 0 0 0-34.27-19.53l.4 1.75-143.83 32.75-1.28-5.6a75.9 75.9 0 0 0-.37 4.19 26.76 26.76 0 1 0 15.07 50.46 77.1 77.1 0 0 0 137.58-31.32 26.77 26.77 0 0 0 26.7-32.7z"/><path d="m834.93 476.46-.8.18-.27-1.17-.68.22a77.1 77.1 0 0 0-144.02 28.67l.95 4.22-1.56.34 14.61 21.29 3.64-23.97 61.88-14.09 3.75-24.72 13.92 20.62 2.28-15.03 8.66 12.62 19.65-4.47 14.15 20.61 3.84-25.32z"/><path fill="#FF8630" d="m786.39 488.12-.06.01-.09.63.51-.12z"/><path fill="#FF8630" d="m786.33 488.13.06-.01-.04-.07z"/></svg>
