<?xml version="1.0" encoding="utf-8"?>
<!-- Generator: Adobe Illustrator 16.0.0, SVG Export Plug-In . SVG Version: 6.00 Build 0)  -->
<!DOCTYPE svg PUBLIC "-//W3C//DTD SVG 1.1//EN" "http://www.w3.org/Graphics/SVG/1.1/DTD/svg11.dtd">
<svg version="1.1" id="Layer_1" xmlns="http://www.w3.org/2000/svg" xmlns:xlink="http://www.w3.org/1999/xlink" x="0px" y="0px"
	 width="1920px" height="1080px" viewBox="0 0 1920 1080" enable-background="new 0 0 1920 1080" xml:space="preserve">
<g>
	<g>
		<path d="M1677.525,738.59c0-9.441,7.656-17.099,17.101-17.099c9.445,0,17.101,7.656,17.101,17.099H1677.525z"/>
	</g>
	<g>
		<circle fill="#FFFFFF" cx="1694.626" cy="483.905" r="8.175"/>
	</g>
	<g>
		<g>
			<g>
				<path fill="#FFFFFF" d="M1694.626,188.32c-1.104,0-2-0.896-2-2v-24.824c0-1.104,0.896-2,2-2s2,0.896,2,2v24.824
					C1696.626,187.425,1695.73,188.32,1694.626,188.32z"/>
			</g>
			<g>
				<path fill="#FFFFFF" d="M1694.626,222.339c-1.104,0-2-0.896-2-2v-24.824c0-1.104,0.896-2,2-2s2,0.896,2,2v24.824
					C1696.626,221.443,1695.73,222.339,1694.626,222.339z"/>
			</g>
		</g>
		<g>
			<g>
				<path fill="#FFFFFF" d="M1724.048,192.918h-24.825c-1.104,0-2-0.896-2-2s0.896-2,2-2h24.825c1.104,0,2,0.896,2,2
					S1725.152,192.918,1724.048,192.918z"/>
			</g>
			<g>
				<path fill="#FFFFFF" d="M1690.028,192.918h-24.824c-1.104,0-2-0.896-2-2s0.896-2,2-2h24.824c1.104,0,2,0.896,2,2
					S1691.133,192.918,1690.028,192.918z"/>
			</g>
		</g>
	</g>
	<g>
		<g>
			<path fill="#FFFFFF" d="M1360.146,207.111c0-8.943-7.252-16.193-16.193-16.193h-39.913c-8.943,0-16.193,7.25-16.193,16.193l0,0
				c0,8.943,7.25,16.193,16.193,16.193h39.913C1352.895,223.305,1360.146,216.055,1360.146,207.111L1360.146,207.111z"/>
		</g>
		<g>
			<path fill="#FFD829" d="M1602.77,427.714l-13.397-237.808h-83.738l-13.396,237.808h-0.002c0,0.002,0,0.003,0,0.004v0.002
				c0.002,21.069,11.796,39.381,29.142,48.702v130.045h52.25V476.422c17.346-9.322,29.14-27.633,29.142-48.702v-0.002
				C1602.77,427.717,1602.77,427.716,1602.77,427.714L1602.77,427.714z"/>
			<path fill="#FFFFFF" d="M1575.627,608.467h-56.25V477.604c-18.005-10.162-29.14-29.164-29.142-49.884l0.003-0.118l13.504-239.694
				h87.52l13.508,239.808c-0.002,20.723-11.138,39.727-29.143,49.891V608.467L1575.627,608.467z M1523.377,604.467h48.25V475.226
				l1.053-0.565c17.311-9.302,28.068-27.268,28.089-46.892l-13.288-235.862h-79.957l-13.287,235.896
				c0.032,19.612,10.79,37.562,28.088,46.857l1.054,0.565L1523.377,604.467L1523.377,604.467z"/>
		</g>
		<g>
			<g>
				<path fill="#FFFFFF" d="M1592.058,871.342c0,21.029-17.05,38.08-38.077,38.08h-12.957c-21.028,0-38.076-17.051-38.076-38.08
					v-280.17c0-21.031,17.048-38.077,38.076-38.077h12.957c21.027,0,38.077,17.046,38.077,38.077V871.342z"/>
			</g>
			<g>
				<circle cx="1547.501" cy="871.804" r="44.551"/>
			</g>
		</g>
		<g>
			<g>
				<polygon fill="#FFD829" points="1367.068,866.362 1360.146,223.305 1287.846,223.305 1277.956,866.362 				"/>
				<path d="M1367.068,868.362h-89.112c-0.536,0-1.049-0.216-1.425-0.598s-0.583-0.897-0.575-1.434l9.89-643.058
					c0.018-1.092,0.907-1.969,2-1.969h72.301c1.096,0,1.987,0.882,2,1.979l6.923,643.058c0.006,0.534-0.202,1.048-0.578,1.428
					C1368.115,868.149,1367.604,868.362,1367.068,868.362z M1279.987,864.362h85.06l-6.88-639.058h-68.352L1279.987,864.362z"/>
			</g>
			<g>
				<circle fill="#FFD829" cx="1322.511" cy="871.804" r="44.551"/>
				<path d="M1322.512,918.355c-25.669,0-46.552-20.884-46.552-46.553c0-25.668,20.883-46.55,46.552-46.55
					c25.668,0,46.551,20.882,46.551,46.55C1369.062,897.473,1348.18,918.355,1322.512,918.355z M1322.512,829.254
					c-23.463,0-42.552,19.088-42.552,42.55c0,23.463,19.089,42.553,42.552,42.553s42.551-19.09,42.551-42.553
					C1365.062,848.342,1345.975,829.254,1322.512,829.254z"/>
			</g>
		</g>
		<g>
			<path d="M1455.521,306.391c0,27.082-21.954,49.036-49.035,49.036h-167.95c-27.081,0-49.036-21.954-49.036-49.036v-47.894
				c0-27.082,21.955-49.037,49.036-49.037h167.95c27.081,0,49.035,21.955,49.035,49.037V306.391z"/>
		</g>
	</g>
	<g>
		<g>
			<g>
				<path fill="#FFFFFF" d="M1095.526,592.163H290.158v72.365h0.044c1.399,117.64,181.115,212.779,402.634,212.779
					c221.52,0,401.236-95.141,402.635-212.779h0.057L1095.526,592.163L1095.526,592.163z"/>
			</g>
			<g>
				<ellipse fill="#FFD829" cx="692.639" cy="591.591" rx="400.805" ry="213.169"/>
				<path fill="#FFFFFF" d="M692.639,806.76c-107.38,0-208.363-22.257-284.35-62.67c-76.386-40.626-118.454-94.785-118.454-152.499
					c0-57.713,42.068-111.871,118.454-152.497c75.986-40.414,176.97-62.67,284.35-62.67s208.364,22.256,284.351,62.67
					c76.387,40.626,118.454,94.784,118.454,152.497c0,57.714-42.067,111.873-118.454,152.499
					C901.003,784.503,800.019,806.76,692.639,806.76z M692.639,380.424c-219.9,0-398.804,94.729-398.804,211.167
					c0,116.439,178.903,211.169,398.804,211.169c219.901,0,398.805-94.729,398.805-211.169
					C1091.442,475.153,912.54,380.424,692.639,380.424z"/>
			</g>
		</g>
		<g>
			<path d="M255.274,746.202c-0.697,0-1.386,0.04-2.064,0.113c-4.808-4.772-11.428-7.725-18.737-7.725
				c-9.075,0-17.085,4.549-21.885,11.486c-0.479-0.046-0.962-0.071-1.453-0.071c-8.386,0-15.183,6.8-15.183,15.186h11.922h18.444
				h9.968h24.784h13.192C274.263,754.703,265.762,746.202,255.274,746.202z"/>
		</g>
		<g>
			<path d="M1016.945,656.479c2.152-60.997-13.225-138.423-62.635-178.172c-31.489-25.33-29.248-64.91-45.104-98.173
				c-16.101-33.773-55.692-53.716-91.74-55.091c-46.135-1.751-69.561-9.303-92.378-48.888
				c-61.978-107.521-227.905-128.703-311.344-29.016c-45.375,54.213-45.2,136.972-45.2,203.805l2.016,205.533L1016.945,656.479
				L1016.945,656.479z"/>
		</g>
		<g>
			<g>
				<path d="M320.739,873.39c-16.369,0-30.7,8.72-38.607,21.765c-2.782-1.068-5.8-1.659-8.958-1.659
					c-13.812,0-25.008,11.197-25.008,25.01h27.46h22.557h67.67C365.854,893.588,345.655,873.39,320.739,873.39z"/>
			</g>
			<g>
				<path d="M388.912,876.793c0-12.592,10.209-22.799,22.801-22.799c12.593,0,22.801,10.207,22.801,22.799H388.912z"/>
			</g>
		</g>
		<g>
			<path d="M1041.954,836.67c-1.787,0-3.551,0.093-5.293,0.259c-17.5-25.292-46.698-41.875-79.784-41.875
				c-25.341,0-48.396,9.741-65.672,25.661c-10.197-4.814-21.587-7.52-33.611-7.52c-43.533,0-78.827,35.292-78.827,78.823h33.052
				h48.094h76.511h13.843h36.34h67.24h43.461C1097.306,861.454,1072.525,836.67,1041.954,836.67z"/>
		</g>
		<g>
			<path d="M1136.921,803.604c0-9.44,7.657-17.098,17.101-17.098c9.446,0,17.102,7.656,17.102,17.098H1136.921z"/>
		</g>
		<g>
			<circle fill="#FFFFFF" cx="771.346" cy="182.743" r="8.175"/>
		</g>
		<g>
			<circle fill="#FFFFFF" cx="315.95" cy="264.209" r="8.175"/>
		</g>
		<g>
			<circle fill="#FFFFFF" cx="264.182" cy="212.441" r="8.175"/>
		</g>
		<g>
			<circle fill="#FFFFFF" cx="1073.767" cy="353.604" r="8.174"/>
		</g>
		<g>
			<g>
				<g>
					<path fill="#FFFFFF" d="M917.016,211.254c-1.104,0-2-0.896-2-2V171.19c0-1.104,0.896-2,2-2c1.104,0,2,0.896,2,2v38.064
						C919.016,210.358,918.12,211.254,917.016,211.254z"/>
				</g>
				<g>
					<path fill="#FFFFFF" d="M917.016,263.416c-1.104,0-2-0.896-2-2v-38.064c0-1.104,0.896-2,2-2c1.104,0,2,0.896,2,2v38.064
						C919.016,262.521,918.12,263.416,917.016,263.416z"/>
				</g>
			</g>
			<g>
				<g>
					<path fill="#FFFFFF" d="M962.128,218.303h-38.063c-1.104,0-2-0.896-2-2c0-1.104,0.896-2,2-2h38.063c1.104,0,2,0.896,2,2
						C964.128,217.407,963.232,218.303,962.128,218.303z"/>
				</g>
				<g>
					<path fill="#FFFFFF" d="M909.967,218.303h-38.063c-1.104,0-2-0.896-2-2c0-1.104,0.896-2,2-2h38.063c1.104,0,2,0.896,2,2
						C911.967,217.407,911.071,218.303,909.967,218.303z"/>
				</g>
			</g>
		</g>
		<g>
			<g>
				<g>
					<path fill="#FFFFFF" d="M235.107,400.043c-1.104,0-2-0.896-2-2v-24.824c0-1.104,0.896-2,2-2s2,0.896,2,2v24.824
						C237.107,399.146,236.212,400.043,235.107,400.043z"/>
				</g>
				<g>
					<path fill="#FFFFFF" d="M235.107,434.062c-1.104,0-2-0.896-2-2v-24.824c0-1.104,0.896-2,2-2s2,0.896,2,2v24.824
						C237.107,433.166,236.212,434.062,235.107,434.062z"/>
				</g>
			</g>
			<g>
				<g>
					<path fill="#FFFFFF" d="M264.529,404.64h-24.825c-1.104,0-2-0.896-2-2c0-1.104,0.896-2,2-2h24.825c1.104,0,2,0.896,2,2
						C266.529,403.744,265.634,404.64,264.529,404.64z"/>
				</g>
				<g>
					<path fill="#FFFFFF" d="M230.51,404.64h-24.824c-1.104,0-2-0.896-2-2c0-1.104,0.896-2,2-2h24.824c1.104,0,2,0.896,2,2
						C232.51,403.744,231.614,404.64,230.51,404.64z"/>
				</g>
			</g>
		</g>
		<g>
			<path fill="#FFFFFF" d="M833.5,616.054h-48.167v-46.636H833.5V616.054z M789.333,612.054H829.5v-38.636h-40.167V612.054z"/>
		</g>
		<g>
			<path fill="#FFD829" d="M440.164,305.663l0.24-5.229h-0.288l-5.374,8.78h-1.151l-5.612-8.78h-0.24l0.288,4.702v18.424h-6.237
				v-33.584h6.669l5.758,9.308h0.192l5.709-9.308h6.621v33.584h-6.573L440.164,305.663L440.164,305.663z"/>
			<path fill="#FFD829" d="M468.48,316.123h-10.027l-2.303,7.437h-6.573l10.843-33.584h6.573l10.795,33.584h-6.909L468.48,316.123z
				 M459.988,310.845h7.196l-3.406-11.227h-0.433L459.988,310.845z"/>
			<path fill="#FFD829" d="M481.151,290.31c0.734-0.127,1.526-0.247,2.375-0.36c0.847-0.111,1.694-0.199,2.543-0.264
				c0.847-0.064,1.671-0.112,2.471-0.144c0.799-0.031,1.535-0.048,2.207-0.048c1.567,0,3.11,0.152,4.63,0.456
				c1.52,0.305,2.879,0.824,4.078,1.56c1.199,0.736,2.159,1.727,2.879,2.975c0.719,1.248,1.079,2.799,1.079,4.654
				c0,1.375-0.136,2.567-0.408,3.574c-0.271,1.008-0.646,1.896-1.127,2.663c-0.479,0.767-1.063,1.432-1.751,1.991
				c-0.688,0.56-1.432,1.064-2.23,1.512l8.107,14.681h-7.581l-6.765-13.146h-3.935v13.146h-6.572V290.31z M491.227,295.348
				c-0.672,0-1.336,0.016-1.99,0.048c-0.656,0.032-1.16,0.096-1.512,0.192v9.739h2.592c1.822,0,3.31-0.415,4.462-1.247
				c1.15-0.832,1.727-2.207,1.727-4.126c0-1.439-0.448-2.566-1.343-3.382C494.265,295.756,492.954,295.348,491.227,295.348z"/>
			<path fill="#FFD829" d="M509.318,312.572h5.276v4.75c0.097,0.032,0.192,0.063,0.288,0.096c0.735,0.32,1.543,0.584,2.423,0.792
				c0.879,0.208,1.815,0.312,2.808,0.312c1.791,0,3.183-0.36,4.174-1.08c0.991-0.72,1.487-1.687,1.487-2.903
				c0-1.087-0.408-1.967-1.225-2.639c-0.814-0.672-1.823-1.263-3.021-1.775c-1.2-0.511-2.512-1.023-3.935-1.535
				c-1.424-0.511-2.734-1.159-3.935-1.943c-1.199-0.784-2.207-1.767-3.022-2.951c-0.814-1.183-1.224-2.718-1.224-4.606
				c0-1.439,0.28-2.759,0.84-3.958c0.56-1.199,1.343-2.231,2.351-3.094c1.008-0.864,2.215-1.536,3.622-2.015
				c1.407-0.48,2.976-0.72,4.702-0.72c1.95,0,3.87,0.176,5.758,0.528c1.887,0.352,3.39,0.832,4.51,1.439v9.739h-5.277v-5.326
				c-0.096,0-0.191-0.016-0.288-0.048c-0.704-0.192-1.463-0.343-2.278-0.456c-0.816-0.112-1.625-0.168-2.424-0.168
				c-1.535,0-2.742,0.304-3.623,0.912c-0.88,0.608-1.318,1.423-1.318,2.447c0,1.056,0.408,1.919,1.224,2.591s1.823,1.28,3.022,1.823
				c1.198,0.544,2.511,1.087,3.934,1.631s2.735,1.208,3.935,1.991c1.199,0.784,2.206,1.768,3.022,2.951
				c0.815,1.184,1.223,2.671,1.223,4.462c0,1.728-0.319,3.239-0.959,4.534s-1.534,2.383-2.687,3.262
				c-1.152,0.88-2.512,1.536-4.078,1.967c-1.567,0.432-3.263,0.648-5.086,0.648c-1.216,0-2.343-0.096-3.382-0.288
				c-1.04-0.192-2-0.432-2.879-0.72c-0.88-0.288-1.655-0.591-2.327-0.912c-0.672-0.319-1.216-0.591-1.631-0.815L509.318,312.572
				L509.318,312.572z"/>
			<path fill="#FFD829" d="M576.631,318.953c1.057,0,2.023-0.135,2.903-0.405c0.879-0.271,1.631-0.653,2.255-1.146
				c0.624-0.493,1.111-1.067,1.463-1.72c0.352-0.652,0.528-1.361,0.528-2.125c0-0.955-0.2-1.758-0.601-2.412
				c-0.399-0.652-0.951-1.169-1.654-1.552c-0.704-0.382-1.553-0.653-2.543-0.812c-0.992-0.159-2.063-0.239-3.215-0.239h-2.687V305.1
				l8.061-9.848h-12.139v-5.277h19.575v4.366l-8.444,9.644h1.104c1.119,0,2.207,0.192,3.263,0.576
				c1.056,0.384,1.991,0.96,2.807,1.728c0.816,0.768,1.472,1.727,1.968,2.878c0.494,1.151,0.744,2.479,0.744,3.982
				c0,1.823-0.377,3.423-1.128,4.798c-0.752,1.375-1.743,2.535-2.975,3.478c-1.231,0.944-2.646,1.648-4.246,2.111
				s-3.247,0.696-4.941,0.696c-1.439,0-2.88-0.128-4.318-0.384c-1.439-0.257-2.831-0.655-4.174-1.2l1.679-5.182
				c0.288,0.161,0.679,0.32,1.175,0.48c0.496,0.16,1.057,0.32,1.68,0.479c0.624,0.161,1.263,0.288,1.919,0.384
				C575.343,318.905,575.991,318.953,576.631,318.953z"/>
			<path fill="#FFD829" d="M594.2,306.719c0-2.91,0.304-5.461,0.915-7.652c0.61-2.191,1.469-4.006,2.577-5.446
				c1.107-1.44,2.433-2.519,3.974-3.238c1.542-0.72,3.259-1.08,5.153-1.08c4.045,0,7.159,1.416,9.343,4.246
				c2.183,2.831,3.275,7.221,3.275,13.17c0,2.943-0.306,5.51-0.915,7.701c-0.61,2.191-1.47,4.014-2.577,5.469
				c-1.108,1.456-2.44,2.543-3.997,3.263c-1.559,0.72-3.284,1.08-5.177,1.08c-4.078,0-7.192-1.495-9.345-4.486
				C595.275,316.754,594.2,312.413,594.2,306.719z M600.438,306.719c0,0.48,0.008,0.937,0.023,1.367
				c0.016,0.432,0.04,0.872,0.072,1.32l11.611-10.699c-0.952-2.75-2.745-4.126-5.378-4.126c-2.03,0-3.593,0.984-4.688,2.951
				C600.984,299.498,600.438,302.561,600.438,306.719z M613.2,306.719c0-0.511-0.008-1-0.024-1.463
				c-0.016-0.463-0.04-0.919-0.07-1.367l-11.66,10.699c0.982,2.911,2.775,4.366,5.377,4.366c2.03,0,3.601-0.975,4.711-2.927
				C612.644,314.076,613.2,310.973,613.2,306.719z"/>
			<path fill="#FFD829" d="M622.91,306.719c0-2.91,0.304-5.461,0.915-7.652c0.61-2.191,1.469-4.006,2.577-5.446
				c1.107-1.44,2.433-2.519,3.974-3.238c1.542-0.72,3.259-1.08,5.153-1.08c4.045,0,7.16,1.416,9.343,4.246
				c2.183,2.831,3.275,7.221,3.275,13.17c0,2.943-0.306,5.51-0.915,7.701c-0.61,2.191-1.47,4.014-2.577,5.469
				c-1.108,1.456-2.44,2.543-3.997,3.263c-1.559,0.72-3.284,1.08-5.177,1.08c-4.078,0-7.192-1.495-9.345-4.486
				C623.984,316.754,622.91,312.413,622.91,306.719z M629.146,306.719c0,0.48,0.008,0.937,0.023,1.367
				c0.016,0.432,0.04,0.872,0.072,1.32l11.611-10.699c-0.952-2.75-2.745-4.126-5.378-4.126c-2.03,0-3.593,0.984-4.688,2.951
				C629.694,299.498,629.146,302.561,629.146,306.719z M641.909,306.719c0-0.511-0.008-1-0.024-1.463
				c-0.016-0.463-0.04-0.919-0.07-1.367l-11.66,10.699c0.982,2.911,2.775,4.366,5.377,4.366c2.03,0,3.601-0.975,4.711-2.927
				C641.354,314.076,641.909,310.973,641.909,306.719z"/>
			<path fill="#FFD829" d="M651.619,306.719c0-2.91,0.304-5.461,0.915-7.652c0.61-2.191,1.469-4.006,2.577-5.446
				c1.107-1.44,2.433-2.519,3.974-3.238c1.542-0.72,3.259-1.08,5.153-1.08c4.045,0,7.16,1.416,9.343,4.246
				c2.183,2.831,3.275,7.221,3.275,13.17c0,2.943-0.306,5.51-0.915,7.701c-0.61,2.191-1.47,4.014-2.577,5.469
				c-1.108,1.456-2.44,2.543-3.997,3.263c-1.559,0.72-3.284,1.08-5.177,1.08c-4.078,0-7.192-1.495-9.345-4.486
				C652.694,316.754,651.619,312.413,651.619,306.719z M657.856,306.719c0,0.48,0.007,0.937,0.022,1.367
				c0.016,0.432,0.04,0.872,0.072,1.32l11.611-10.699c-0.952-2.75-2.745-4.126-5.377-4.126c-2.031,0-3.594,0.984-4.688,2.951
				C658.403,299.498,657.856,302.561,657.856,306.719z M670.619,306.719c0-0.511-0.008-1-0.024-1.463
				c-0.016-0.463-0.04-0.919-0.07-1.367l-11.66,10.699c0.982,2.911,2.775,4.366,5.377,4.366c2.03,0,3.601-0.975,4.711-2.927
				C670.062,314.076,670.619,310.973,670.619,306.719z"/>
		</g>
		<g>
			<path fill="#FFD829" d="M421.579,602.605h5.602v-14.432h-5.602v-3.861h15.57v3.861h-5.634v14.432h5.634v3.86h-15.57V602.605z"/>
			<path fill="#FFD829" d="M468.955,594.44l2.374,6.932h0.158l0.284-2.722l1.298-8.008h3.702l-3.195,15.823h-4.146l-1.771-6.267
				H467.5l-1.994,6.267h-4.271l-3.323-15.823h4.114l1.551,8.767l0.253,1.963h0.158l2.342-6.932H468.955z"/>
			<path fill="#FFD829" d="M477.941,598.555c0-1.329,0.2-2.51,0.602-3.544c0.4-1.034,0.97-1.909,1.709-2.627
				c0.738-0.717,1.619-1.261,2.643-1.63s2.168-0.554,3.435-0.554c1.329,0,2.516,0.2,3.561,0.602c1.044,0.4,1.926,0.965,2.644,1.692
				c0.717,0.729,1.26,1.608,1.629,2.643s0.554,2.174,0.554,3.418c0,1.329-0.201,2.513-0.602,3.545
				c-0.401,1.034-0.972,1.909-1.709,2.627c-0.739,0.718-1.619,1.262-2.644,1.631c-1.022,0.367-2.167,0.554-3.434,0.554
				c-1.329,0-2.516-0.201-3.561-0.603c-1.044-0.399-1.926-0.965-2.643-1.692c-0.718-0.729-1.261-1.608-1.63-2.644
				C478.126,600.939,477.941,599.8,477.941,598.555z M482.182,598.555c0,0.696,0.096,1.342,0.285,1.932
				c0.19,0.591,0.464,1.106,0.823,1.551c0.358,0.443,0.791,0.786,1.297,1.028s1.086,0.363,1.741,0.363
				c1.224,0,2.22-0.391,2.991-1.171c0.77-0.779,1.154-2.015,1.154-3.703c0-1.455-0.358-2.632-1.075-3.527
				c-0.718-0.896-1.741-1.346-3.07-1.346c-0.591,0-1.139,0.091-1.646,0.27c-0.506,0.18-0.944,0.47-1.312,0.87
				c-0.369,0.4-0.66,0.907-0.87,1.52C482.288,596.952,482.182,597.69,482.182,598.555z"/>
			<path fill="#FFD829" d="M497.057,602.985h3.925v-8.861h-3.925v-3.48h7.121l0.476,2.089h0.126c0.59-0.695,1.266-1.275,2.024-1.74
				c0.761-0.464,1.646-0.696,2.659-0.696c1.266,0,2.263,0.465,2.991,1.394c0.728,0.929,1.092,2.479,1.092,4.651h-3.703
				c0-0.76-0.109-1.312-0.332-1.662c-0.222-0.348-0.575-0.521-1.06-0.521c-0.844,0-1.525,0.211-2.042,0.633
				c-0.518,0.422-0.955,0.907-1.313,1.456v6.74h6.868v3.48h-14.906L497.057,602.985L497.057,602.985z"/>
			<path fill="#FFD829" d="M514.811,584.312h6.709v12.629h0.95l5.19-6.299h4.842l-6.393,7.216l4.146,5.127h2.943v3.48h-5.127
				l-5.443-6.551h-1.108v6.551h-4.113v-18.672h-2.596V584.312z"/>
			<path fill="#FFD829" d="M550.698,604.789c-0.274,0.254-0.628,0.502-1.061,0.744c-0.433,0.243-0.938,0.47-1.519,0.681
				c-0.581,0.211-1.218,0.38-1.915,0.506c-0.696,0.127-1.435,0.19-2.215,0.19c-1.352,0-2.56-0.19-3.624-0.57
				c-1.066-0.38-1.969-0.934-2.706-1.661c-0.739-0.728-1.303-1.604-1.693-2.627c-0.391-1.021-0.585-2.188-0.585-3.497
				c0-1.393,0.221-2.609,0.665-3.654c0.443-1.045,1.049-1.914,1.82-2.61c0.77-0.696,1.672-1.219,2.706-1.566
				c1.033-0.349,2.151-0.521,3.354-0.521c0.802,0,1.63,0.104,2.484,0.315c0.854,0.211,1.64,0.575,2.357,1.093
				s1.303,1.208,1.756,2.072c0.454,0.865,0.681,1.962,0.681,3.291c0,0.907-0.105,1.89-0.316,2.943h-11.393
				c0.021,0.675,0.164,1.245,0.427,1.709s0.612,0.844,1.044,1.139c0.433,0.296,0.928,0.513,1.488,0.649
				c0.559,0.138,1.155,0.205,1.788,0.205c1.266,0,2.305-0.147,3.118-0.442c0.812-0.296,1.471-0.653,1.978-1.076L550.698,604.789z
				 M543.862,593.491c-0.55,0-1.066,0.076-1.552,0.227s-0.923,0.37-1.312,0.661c-0.391,0.29-0.712,0.649-0.965,1.08
				c-0.253,0.43-0.401,0.913-0.443,1.45h7.785c0-1.053-0.29-1.886-0.87-2.498C545.924,593.798,545.043,593.491,543.862,593.491z"/>
			<path fill="#FFD829" d="M562.47,584.312h6.614v13.673c0,1.582,0.084,3.144,0.253,4.684c0,0.106,0.011,0.211,0.032,0.316h2.024
				v3.48h-5.095l-0.411-2.024h-0.126c-0.211,0.38-0.496,0.718-0.854,1.013c-0.359,0.296-0.76,0.554-1.203,0.774
				c-0.443,0.223-0.929,0.391-1.456,0.507c-0.527,0.115-1.055,0.175-1.582,0.175c-0.992,0-1.926-0.158-2.801-0.476
				c-0.876-0.315-1.642-0.808-2.294-1.472c-0.654-0.665-1.171-1.509-1.551-2.532c-0.381-1.022-0.57-2.23-0.57-3.623
				c0-1.351,0.206-2.553,0.617-3.607c0.412-1.055,0.98-1.946,1.709-2.674c0.728-0.729,1.587-1.287,2.578-1.679
				c0.992-0.39,2.078-0.585,3.261-0.585c0.653,0,1.271,0.037,1.852,0.11c0.58,0.074,1.081,0.195,1.503,0.364v-2.943h-2.5
				L562.47,584.312L562.47,584.312z M561.616,603.429c0.802,0,1.514-0.194,2.136-0.586c0.622-0.39,1.028-0.954,1.218-1.691v-6.71
				c-0.295-0.231-0.702-0.405-1.218-0.521c-0.517-0.116-1.06-0.175-1.63-0.175s-1.124,0.096-1.662,0.285s-1.013,0.489-1.424,0.901
				c-0.412,0.411-0.739,0.944-0.981,1.599c-0.242,0.653-0.363,1.456-0.363,2.404c0,1.352,0.337,2.438,1.013,3.261
				C559.379,603.018,560.35,603.429,561.616,603.429z"/>
			<path fill="#FFD829" d="M593.01,606.467v-3.48h3.734v-8.861h-3.766v-3.48h3.766v-0.887c0-0.991,0.174-1.846,0.521-2.562
				c0.349-0.718,0.808-1.309,1.377-1.772c0.569-0.463,1.229-0.807,1.979-1.028c0.749-0.221,1.523-0.332,2.326-0.332
				c1.456,0,2.652,0.122,3.592,0.364c0.938,0.242,1.714,0.543,2.326,0.901l-1.203,3.134c-0.485-0.231-1.007-0.443-1.566-0.634
				c-0.559-0.189-1.281-0.284-2.168-0.284c-1.139,0-1.936,0.259-2.389,0.775c-0.454,0.517-0.68,1.292-0.68,2.325h6.646v3.48h-6.646
				v8.861h6.677v3.48H593.01L593.01,606.467z"/>
			<path fill="#FFD829" d="M610.858,598.555c0-1.329,0.2-2.51,0.602-3.544c0.4-1.034,0.97-1.909,1.709-2.627
				c0.738-0.717,1.619-1.261,2.643-1.63s2.169-0.554,3.435-0.554c1.329,0,2.516,0.2,3.561,0.602c1.044,0.4,1.926,0.965,2.644,1.692
				c0.717,0.729,1.26,1.608,1.629,2.643s0.554,2.174,0.554,3.418c0,1.329-0.201,2.513-0.602,3.545
				c-0.401,1.034-0.972,1.909-1.709,2.627c-0.739,0.718-1.619,1.262-2.644,1.631c-1.022,0.367-2.167,0.554-3.434,0.554
				c-1.329,0-2.517-0.201-3.561-0.603c-1.044-0.399-1.926-0.965-2.643-1.692c-0.718-0.729-1.261-1.608-1.63-2.644
				C611.042,600.939,610.858,599.8,610.858,598.555z M615.099,598.555c0,0.696,0.096,1.342,0.285,1.932
				c0.19,0.591,0.464,1.106,0.823,1.551c0.357,0.443,0.791,0.786,1.297,1.028s1.086,0.363,1.741,0.363
				c1.224,0,2.22-0.391,2.991-1.171c0.77-0.779,1.154-2.015,1.154-3.703c0-1.455-0.358-2.632-1.075-3.527
				c-0.718-0.896-1.741-1.346-3.07-1.346c-0.591,0-1.139,0.091-1.646,0.27c-0.506,0.18-0.944,0.47-1.312,0.87
				c-0.369,0.4-0.66,0.907-0.87,1.52C615.204,596.952,615.099,597.69,615.099,598.555z"/>
			<path fill="#FFD829" d="M629.973,602.985h3.925v-8.861h-3.925v-3.48h7.121l0.476,2.089h0.126c0.59-0.695,1.266-1.275,2.024-1.74
				c0.761-0.464,1.646-0.696,2.659-0.696c1.266,0,2.263,0.465,2.991,1.394c0.728,0.929,1.092,2.479,1.092,4.651h-3.703
				c0-0.76-0.109-1.312-0.332-1.662c-0.222-0.348-0.575-0.521-1.06-0.521c-0.844,0-1.525,0.211-2.042,0.633
				c-0.518,0.422-0.955,0.907-1.313,1.456v6.74h6.868v3.48h-14.906L629.973,602.985L629.973,602.985z"/>
			<path fill="#FFD829" d="M672.57,593.365h-0.159l0.189,2.626v10.476h-4.113v-22.152h3.797l7.659,13.545h0.157l-0.284-2.658
				v-10.888h4.113v22.153h-3.798L672.57,593.365z"/>
			<path fill="#FFD829" d="M698.361,601.562h-6.614l-1.519,4.904h-4.336l7.152-22.152h4.335l7.121,22.152h-4.557L698.361,601.562z
				 M692.76,598.08h4.747l-2.247-7.405h-0.285L692.76,598.08z"/>
			<path fill="#FFD829" d="M706.748,599.22h3.48v3.133c0.063,0.021,0.128,0.044,0.19,0.063c0.485,0.211,1.019,0.385,1.598,0.521
				c0.58,0.138,1.197,0.205,1.853,0.205c1.181,0,2.099-0.236,2.753-0.712c0.654-0.475,0.981-1.111,0.981-1.914
				c0-0.718-0.27-1.298-0.808-1.74c-0.538-0.443-1.203-0.833-1.994-1.172c-0.791-0.337-1.657-0.675-2.595-1.013
				c-0.939-0.337-1.804-0.765-2.595-1.281c-0.792-0.518-1.456-1.166-1.994-1.945c-0.538-0.78-0.808-1.793-0.808-3.038
				c0-0.95,0.185-1.82,0.555-2.611c0.369-0.791,0.886-1.472,1.551-2.041c0.665-0.57,1.46-1.013,2.389-1.329
				c0.929-0.315,1.962-0.475,3.103-0.475c1.287,0,2.552,0.116,3.797,0.348c1.245,0.232,2.236,0.549,2.975,0.949v6.425h-3.48v-3.513
				c-0.063,0-0.126-0.011-0.19-0.032c-0.464-0.126-0.965-0.227-1.503-0.301c-0.538-0.073-1.071-0.11-1.598-0.11
				c-1.014,0-1.811,0.201-2.391,0.603c-0.581,0.399-0.87,0.938-0.87,1.612c0,0.696,0.27,1.268,0.808,1.709
				c0.538,0.443,1.203,0.846,1.994,1.203c0.791,0.358,1.655,0.718,2.595,1.076c0.938,0.358,1.804,0.796,2.595,1.312
				c0.792,0.518,1.456,1.166,1.994,1.946s0.808,1.763,0.808,2.942c0,1.14-0.212,2.137-0.634,2.991
				c-0.422,0.854-1.013,1.571-1.771,2.151c-0.76,0.58-1.657,1.014-2.69,1.297c-1.034,0.285-2.151,0.429-3.354,0.429
				c-0.803,0-1.546-0.063-2.231-0.19c-0.686-0.126-1.318-0.284-1.898-0.475c-0.581-0.189-1.093-0.391-1.535-0.603
				c-0.443-0.21-0.802-0.39-1.076-0.537L706.748,599.22L706.748,599.22z"/>
			<path fill="#FFD829" d="M736.337,601.562h-6.614l-1.519,4.904h-4.335l7.151-22.152h4.335l7.121,22.152h-4.557L736.337,601.562z
				 M730.736,598.08h4.747l-2.247-7.405h-0.285L730.736,598.08z"/>
		</g>
		<g>
			<g>
				<path fill="#FFFFFF" d="M808.669,485.905H531.23V439.27h277.438L808.669,485.905L808.669,485.905z M535.23,481.905h269.438
					V443.27H535.23V481.905z"/>
			</g>
			<g>
				<path fill="#FFFFFF" d="M562.303,551.056h-68.429v-46.635h68.429V551.056z M497.874,547.056h60.429v-38.635h-60.429V547.056
					L497.874,547.056z"/>
			</g>
			<g>
				<path fill="#FFFFFF" d="M666.597,420.755H514.088V374.12h152.509V420.755L666.597,420.755z M518.088,416.755h144.509V378.12
					H518.088V416.755z"/>
			</g>
			<g>
				<path fill="#FFFFFF" d="M922.064,551.055H735.062v-46.633h187.002V551.055L922.064,551.055z M739.062,547.055h179.002v-38.633
					H739.062V547.055z"/>
			</g>
			<g>
				<path fill="#FFD829" d="M425.725,395.5h-0.158l0.189,2.627v10.475h-4.114V386.45h3.798l7.658,13.545h0.158l-0.285-2.659V386.45
					h4.114v22.153h-3.798L425.725,395.5z"/>
				<path fill="#FFD829" d="M441.707,393.855c0.844-0.38,1.82-0.707,2.927-0.981c1.108-0.274,2.421-0.412,3.94-0.412
					c1.097,0,2.029,0.132,2.801,0.396c0.77,0.264,1.393,0.639,1.867,1.124c0.475,0.486,0.816,1.066,1.027,1.741
					c0.212,0.675,0.316,1.435,0.316,2.278c0,1.076-0.037,1.994-0.111,2.753c-0.073,0.76-0.109,1.436-0.109,2.025
					c0,0.442,0.021,0.938,0.062,1.487c0.042,0.296,0.074,0.58,0.096,0.854h2.057v3.48h-5.312l-0.416-2.151h-0.156
					c-0.419,0.653-1.018,1.218-1.793,1.692c-0.776,0.476-1.824,0.713-3.146,0.713c-1.573,0-2.819-0.423-3.743-1.267
					c-0.923-0.844-1.383-1.962-1.383-3.354c0-0.887,0.162-1.651,0.487-2.294c0.325-0.644,0.797-1.172,1.415-1.583
					c0.618-0.412,1.361-0.718,2.232-0.918c0.87-0.2,1.84-0.301,2.909-0.301c0.377,0,0.776,0.021,1.195,0.063
					s0.933,0.085,1.541,0.127c0.042-0.211,0.062-0.422,0.062-0.633v-0.602c0-0.802-0.229-1.376-0.69-1.725
					c-0.461-0.35-1.143-0.522-2.042-0.522c-1.068,0-2.032,0.138-2.892,0.412c-0.858,0.274-1.582,0.549-2.168,0.823L441.707,393.855z
					 M447.093,405.469c1,0,1.752-0.184,2.253-0.554c0.5-0.369,0.866-0.764,1.096-1.187v-1.899c-0.209-0.042-0.522-0.089-0.939-0.144
					c-0.417-0.052-0.866-0.078-1.346-0.078c-0.396,0-0.792,0.036-1.189,0.11c-0.396,0.074-0.751,0.19-1.062,0.349
					c-0.313,0.157-0.563,0.363-0.751,0.616c-0.188,0.253-0.281,0.56-0.281,0.917c0,0.592,0.172,1.051,0.516,1.377
					C445.732,405.304,446.3,405.469,447.093,405.469z"/>
				<path fill="#FFD829" d="M465.473,408.604v-9.685c0-0.633-0.042-1.144-0.126-1.535c-0.084-0.39-0.194-0.696-0.333-0.918
					c-0.138-0.222-0.306-0.369-0.506-0.442c-0.201-0.074-0.406-0.111-0.617-0.111c-0.358,0-0.69,0.116-0.997,0.348
					c-0.306,0.232-0.512,0.527-0.616,0.887v11.457h-3.799v-15.825h3.008l0.442,1.741h0.095c0.317-0.612,0.78-1.113,1.394-1.503
					c0.612-0.39,1.329-0.585,2.152-0.585c0.695,0,1.359,0.169,1.993,0.506c0.634,0.338,1.065,0.929,1.298,1.772
					c0.315-0.738,0.802-1.303,1.456-1.693c0.652-0.39,1.36-0.585,2.119-0.585c0.57,0,1.081,0.079,1.535,0.237
					c0.454,0.158,0.85,0.438,1.188,0.839c0.337,0.401,0.596,0.944,0.774,1.63c0.18,0.686,0.27,1.566,0.27,2.643v10.822h-3.798
					v-10.127c0-0.949-0.153-1.613-0.459-1.993c-0.307-0.38-0.681-0.569-1.123-0.569c-0.381,0-0.708,0.09-0.981,0.269
					c-0.273,0.18-0.464,0.471-0.569,0.87v11.551H465.473L465.473,408.604z"/>
				<path fill="#FFD829" d="M493.733,406.925c-0.274,0.253-0.628,0.501-1.061,0.744s-0.938,0.47-1.519,0.68
					c-0.581,0.211-1.219,0.38-1.915,0.507s-1.436,0.189-2.215,0.189c-1.352,0-2.56-0.189-3.624-0.569
					c-1.066-0.38-1.969-0.934-2.706-1.661c-0.739-0.729-1.304-1.604-1.693-2.627c-0.391-1.022-0.585-2.188-0.585-3.496
					c0-1.394,0.221-2.611,0.665-3.655c0.443-1.044,1.049-1.915,1.82-2.611c0.77-0.696,1.672-1.219,2.706-1.567
					c1.033-0.348,2.151-0.522,3.354-0.522c0.802,0,1.63,0.106,2.484,0.316c0.854,0.211,1.64,0.575,2.357,1.092
					c0.717,0.517,1.303,1.208,1.756,2.073c0.454,0.866,0.681,1.962,0.681,3.292c0,0.906-0.105,1.888-0.316,2.942H482.53
					c0.021,0.675,0.164,1.245,0.427,1.709s0.612,0.845,1.044,1.14s0.928,0.512,1.488,0.647c0.559,0.138,1.155,0.206,1.788,0.206
					c1.266,0,2.305-0.146,3.117-0.443c0.812-0.295,1.472-0.652,1.979-1.075L493.733,406.925z M486.898,395.627
					c-0.55,0-1.066,0.076-1.552,0.226s-0.923,0.371-1.312,0.661c-0.392,0.291-0.712,0.65-0.965,1.08
					c-0.253,0.431-0.401,0.914-0.443,1.451h7.785c0-1.053-0.29-1.886-0.87-2.499C488.96,395.934,488.079,395.627,486.898,395.627z"
					/>
			</g>
			<g>
				<path fill="#FFD829" d="M432.529,533.998h-6.614l-1.519,4.905h-4.336l7.152-22.153h4.335l7.121,22.153h-4.557L432.529,533.998z
					 M426.927,530.517h4.747l-2.247-7.404h-0.285L426.927,530.517z"/>
				<path fill="#FFD829" d="M455.631,538.903c0,1.139-0.195,2.131-0.585,2.975c-0.391,0.844-0.929,1.546-1.614,2.104
					s-1.499,0.971-2.437,1.233c-0.939,0.265-1.968,0.396-3.085,0.396c-0.76,0-1.473-0.06-2.136-0.175
					c-0.665-0.115-1.277-0.269-1.835-0.459c-0.561-0.188-1.051-0.396-1.473-0.616c-0.422-0.223-0.76-0.438-1.013-0.648l1.582-2.912
					c0.506,0.336,1.113,0.659,1.82,0.965c0.707,0.307,1.598,0.459,2.674,0.459c1.329,0,2.342-0.307,3.038-0.918
					c0.695-0.611,1.044-1.486,1.044-2.627v-1.013h-0.126c-0.38,0.506-0.939,0.881-1.679,1.124c-0.738,0.242-1.593,0.364-2.562,0.364
					c-1.013,0-1.946-0.159-2.801-0.476c-0.855-0.315-1.599-0.796-2.231-1.439s-1.124-1.46-1.472-2.453
					c-0.349-0.991-0.522-2.152-0.522-3.481c0-1.393,0.206-2.627,0.617-3.703c0.411-1.075,0.991-1.978,1.741-2.705
					c0.749-0.729,1.646-1.276,2.69-1.646c1.044-0.37,2.209-0.554,3.496-0.554c0.676,0,1.351,0.026,2.025,0.08
					c0.675,0.053,1.312,0.122,1.915,0.206c0.601,0.084,1.155,0.185,1.662,0.301c0.506,0.116,0.928,0.237,1.266,0.364
					L455.631,538.903L455.631,538.903z M448.036,535.865c0.802,0,1.523-0.18,2.168-0.538c0.643-0.358,1.081-0.896,1.312-1.614
					v-7.121c-0.295-0.127-0.712-0.227-1.25-0.301s-1.05-0.111-1.534-0.111c-0.592,0-1.146,0.096-1.662,0.285
					c-0.518,0.19-0.972,0.491-1.361,0.902c-0.391,0.412-0.696,0.929-0.917,1.551c-0.222,0.623-0.333,1.366-0.333,2.23
					c0,0.76,0.095,1.436,0.285,2.025c0.189,0.591,0.454,1.087,0.792,1.487c0.337,0.4,0.717,0.702,1.139,0.901
					C447.097,535.765,447.55,535.865,448.036,535.865z"/>
				<path fill="#FFD829" d="M474.746,537.226c-0.274,0.253-0.628,0.501-1.061,0.744s-0.938,0.471-1.519,0.681
					c-0.581,0.211-1.218,0.38-1.915,0.507c-0.696,0.126-1.435,0.188-2.215,0.188c-1.352,0-2.559-0.188-3.624-0.568
					c-1.066-0.38-1.968-0.935-2.706-1.662c-0.739-0.729-1.303-1.604-1.693-2.626c-0.391-1.023-0.585-2.189-0.585-3.497
					c0-1.393,0.222-2.611,0.665-3.655s1.049-1.915,1.82-2.61c0.77-0.696,1.672-1.22,2.706-1.567
					c1.034-0.349,2.152-0.522,3.354-0.522c0.803,0,1.63,0.106,2.484,0.316c0.854,0.211,1.64,0.575,2.358,1.092
					c0.717,0.518,1.302,1.208,1.756,2.073c0.454,0.866,0.68,1.962,0.68,3.292c0,0.907-0.104,1.888-0.316,2.943h-11.393
					c0.021,0.675,0.164,1.244,0.427,1.709c0.264,0.464,0.612,0.844,1.044,1.139c0.433,0.295,0.929,0.512,1.488,0.647
					c0.559,0.139,1.155,0.206,1.788,0.206c1.266,0,2.305-0.146,3.118-0.442c0.812-0.295,1.471-0.653,1.978-1.076L474.746,537.226z
					 M467.91,525.928c-0.549,0-1.066,0.076-1.551,0.227c-0.486,0.149-0.924,0.371-1.313,0.661c-0.391,0.291-0.712,0.649-0.965,1.079
					c-0.253,0.431-0.401,0.914-0.443,1.451h7.785c0-1.053-0.29-1.886-0.87-2.499C469.972,526.234,469.091,525.928,467.91,525.928z"
					/>
			</g>
			<g>
				<path fill="#FFD829" d="M587.537,533.819h3.48v3.133c0.063,0.021,0.127,0.042,0.19,0.062c0.485,0.211,1.018,0.386,1.598,0.522
					c0.58,0.138,1.197,0.206,1.853,0.206c1.181,0,2.099-0.238,2.753-0.712c0.654-0.476,0.98-1.112,0.98-1.915
					c0-0.717-0.269-1.297-0.807-1.741c-0.538-0.443-1.203-0.833-1.994-1.171c-0.791-0.337-1.657-0.675-2.595-1.013
					c-0.939-0.338-1.804-0.765-2.595-1.282c-0.792-0.518-1.456-1.166-1.994-1.946s-0.808-1.793-0.808-3.038
					c0-0.949,0.185-1.82,0.555-2.611c0.369-0.791,0.886-1.472,1.551-2.041s1.46-1.013,2.389-1.329s1.962-0.476,3.103-0.476
					c1.287,0,2.552,0.116,3.797,0.349c1.245,0.231,2.236,0.549,2.975,0.948v6.425h-3.48v-3.513c-0.063,0-0.126-0.01-0.19-0.031
					c-0.464-0.127-0.965-0.227-1.503-0.301s-1.071-0.111-1.598-0.111c-1.014,0-1.811,0.201-2.391,0.602
					c-0.581,0.401-0.87,0.938-0.87,1.614c0,0.695,0.27,1.266,0.808,1.709c0.538,0.442,1.203,0.844,1.994,1.203
					c0.791,0.358,1.655,0.717,2.595,1.075c0.938,0.359,1.804,0.797,2.595,1.313c0.792,0.517,1.456,1.166,1.994,1.945
					c0.538,0.781,0.807,1.763,0.807,2.943c0,1.139-0.211,2.136-0.633,2.991c-0.422,0.854-1.013,1.572-1.771,2.152
					c-0.761,0.581-1.657,1.013-2.69,1.297c-1.034,0.284-2.151,0.428-3.354,0.428c-0.803,0-1.546-0.063-2.231-0.189
					c-0.686-0.127-1.319-0.284-1.898-0.476c-0.581-0.19-1.093-0.39-1.535-0.602c-0.443-0.211-0.802-0.39-1.076-0.537
					L587.537,533.819L587.537,533.819z"/>
				<path fill="#FFD829" d="M604.468,525.243h5.38l0.476,1.898h0.126c1.097-1.561,2.869-2.342,5.315-2.342
					c0.971,0,1.862,0.153,2.675,0.459c0.812,0.307,1.508,0.786,2.089,1.44c0.58,0.653,1.027,1.477,1.345,2.468
					c0.316,0.992,0.475,2.184,0.475,3.576c0,1.351-0.18,2.568-0.538,3.655s-0.876,2.01-1.551,2.769
					c-0.675,0.76-1.499,1.34-2.468,1.741c-0.971,0.399-2.079,0.602-3.323,0.602c-0.654,0-1.297-0.048-1.931-0.143
					c-0.633-0.096-1.16-0.248-1.582-0.459v6.486h-4.114v-18.671h-2.374L604.468,525.243L604.468,525.243z M614.532,528.281
					c-0.802,0-1.535,0.201-2.2,0.602c-0.665,0.401-1.124,1.002-1.376,1.805v6.582c0.295,0.232,0.722,0.418,1.282,0.555
					c0.559,0.137,1.124,0.206,1.692,0.206c0.591,0,1.141-0.101,1.646-0.302c0.506-0.199,0.949-0.521,1.329-0.965
					c0.379-0.442,0.675-1.001,0.886-1.677c0.21-0.675,0.315-1.487,0.315-2.437c0-1.394-0.338-2.47-1.013-3.229
					C616.419,528.661,615.565,528.281,614.532,528.281z"/>
				<path fill="#FFD829" d="M640.355,539.389c-0.274,0.253-0.629,0.501-1.061,0.744c-0.433,0.243-0.939,0.47-1.519,0.68
					c-0.581,0.212-1.219,0.381-1.915,0.508c-0.696,0.126-1.436,0.188-2.215,0.188c-1.352,0-2.56-0.188-3.625-0.569
					s-1.968-0.935-2.705-1.662c-0.739-0.729-1.304-1.604-1.693-2.626c-0.391-1.023-0.585-2.189-0.585-3.497
					c0-1.394,0.221-2.611,0.665-3.655c0.442-1.044,1.049-1.915,1.82-2.611c0.77-0.695,1.672-1.219,2.705-1.566
					c1.034-0.349,2.152-0.522,3.354-0.522c0.802,0,1.63,0.106,2.484,0.316c0.854,0.211,1.64,0.575,2.357,1.092
					c0.717,0.517,1.302,1.208,1.756,2.073c0.454,0.866,0.681,1.962,0.681,3.292c0,0.906-0.105,1.888-0.316,2.942h-11.393
					c0.021,0.675,0.164,1.245,0.427,1.709s0.612,0.845,1.044,1.14s0.928,0.512,1.488,0.647c0.559,0.138,1.154,0.206,1.787,0.206
					c1.267,0,2.306-0.146,3.118-0.443c0.812-0.295,1.472-0.652,1.979-1.075L640.355,539.389z M633.52,528.091
					c-0.549,0-1.065,0.076-1.551,0.227c-0.485,0.149-0.923,0.37-1.312,0.661c-0.392,0.291-0.712,0.649-0.965,1.079
					c-0.254,0.431-0.401,0.914-0.443,1.451h7.785c0-1.053-0.29-1.886-0.87-2.499C635.582,528.396,634.701,528.091,633.52,528.091z"
					/>
				<path fill="#FFD829" d="M659.723,539.547c-0.864,0.654-1.878,1.146-3.038,1.472s-2.374,0.49-3.639,0.49
					c-1.372,0-2.59-0.201-3.655-0.602s-1.962-0.965-2.689-1.693c-0.729-0.728-1.282-1.607-1.661-2.643
					c-0.38-1.033-0.57-2.172-0.57-3.417c0-1.33,0.223-2.512,0.665-3.545c0.443-1.033,1.061-1.909,1.853-2.626
					c0.791-0.718,1.725-1.261,2.801-1.63s2.247-0.555,3.513-0.555c1.182,0,2.289,0.137,3.323,0.411s1.825,0.538,2.374,0.792v5.57
					h-3.481v-2.912c-0.653-0.147-1.309-0.222-1.962-0.222c-0.591,0-1.177,0.09-1.757,0.269c-0.581,0.18-1.097,0.464-1.55,0.854
					c-0.454,0.392-0.823,0.882-1.108,1.473c-0.284,0.591-0.427,1.297-0.427,2.121c0,0.675,0.116,1.297,0.348,1.867
					c0.232,0.568,0.56,1.064,0.981,1.486s0.944,0.754,1.567,0.997c0.622,0.243,1.312,0.364,2.072,0.364
					c1.203,0,2.188-0.169,2.959-0.506s1.346-0.633,1.726-0.887L659.723,539.547z"/>
				<path fill="#FFD829" d="M663.299,537.585h5.57v-8.861h-5.57v-3.48h9.685v12.343h5.854v3.481h-15.539L663.299,537.585
					L663.299,537.585z M668.109,520.939c0-0.654,0.241-1.214,0.728-1.679c0.485-0.463,1.16-0.695,2.025-0.695
					c0.886,0,1.593,0.231,2.121,0.695c0.526,0.464,0.791,1.024,0.791,1.679c0,0.675-0.265,1.229-0.791,1.66
					c-0.528,0.434-1.234,0.649-2.121,0.649c-0.865,0-1.54-0.216-2.025-0.649C668.352,522.168,668.109,521.614,668.109,520.939z"/>
				<path fill="#FFD829" d="M683.268,526.319c0.845-0.38,1.82-0.707,2.928-0.981c1.107-0.273,2.421-0.412,3.939-0.412
					c1.098,0,2.03,0.132,2.801,0.396c0.771,0.264,1.394,0.639,1.867,1.124c0.476,0.485,0.817,1.065,1.028,1.741
					c0.211,0.675,0.316,1.435,0.316,2.277c0,1.076-0.037,1.994-0.111,2.753c-0.074,0.761-0.11,1.436-0.11,2.025
					c0,0.442,0.021,0.938,0.063,1.488c0.042,0.295,0.073,0.579,0.095,0.854h2.057v3.481h-5.312l-0.416-2.152h-0.157
					c-0.419,0.654-1.017,1.218-1.793,1.693c-0.776,0.475-1.824,0.713-3.145,0.713c-1.573,0-2.82-0.422-3.743-1.268
					c-0.923-0.844-1.383-1.962-1.383-3.354c0-0.886,0.161-1.651,0.486-2.294c0.325-0.644,0.797-1.171,1.415-1.583
					s1.362-0.717,2.233-0.918c0.87-0.2,1.839-0.301,2.909-0.301c0.377,0,0.775,0.021,1.194,0.063s0.934,0.085,1.541,0.127
					c0.042-0.211,0.063-0.422,0.063-0.633v-0.602c0-0.802-0.23-1.376-0.691-1.725s-1.142-0.521-2.042-0.521
					c-1.067,0-2.032,0.138-2.891,0.411c-0.859,0.274-1.582,0.55-2.168,0.823L683.268,526.319z M688.655,537.933
					c1,0,1.752-0.184,2.253-0.554c0.5-0.369,0.866-0.764,1.095-1.187v-1.899c-0.209-0.042-0.521-0.089-0.938-0.143
					c-0.418-0.053-0.866-0.079-1.347-0.079c-0.396,0-0.792,0.037-1.188,0.11c-0.396,0.074-0.751,0.19-1.063,0.349
					s-0.562,0.364-0.751,0.617c-0.188,0.253-0.281,0.559-0.281,0.917c0,0.591,0.172,1.05,0.517,1.377
					C687.294,537.768,687.861,537.933,688.655,537.933z"/>
				<path fill="#FFD829" d="M702.161,518.914h6.741v14.621c0,1.625,0.199,2.753,0.602,3.386c0.4,0.633,1.044,0.95,1.93,0.95
					c0.654,0,1.192-0.068,1.614-0.206c0.421-0.137,0.843-0.333,1.267-0.586l1.551,2.849c-0.359,0.232-0.717,0.448-1.076,0.648
					c-0.359,0.201-0.739,0.37-1.139,0.506c-0.401,0.137-0.838,0.242-1.313,0.316c-0.475,0.073-1.008,0.11-1.598,0.11
					c-1.983,0-3.472-0.507-4.462-1.52c-0.992-1.014-1.488-2.447-1.488-4.305v-13.292h-2.626v-3.479H702.161z"/>
			</g>
			<g>
				<path fill="#FFD829" d="M422.085,452.213h14.526v3.861h-10.19v5.158h9.399v3.86h-9.399v5.412h10.349v3.861h-14.684
					L422.085,452.213L422.085,452.213z"/>
				<path fill="#FFD829" d="M446.485,474.366v-9.685c0-0.633-0.042-1.144-0.126-1.534s-0.195-0.696-0.333-0.919
					c-0.139-0.222-0.307-0.368-0.507-0.442s-0.405-0.111-0.616-0.111c-0.359,0-0.691,0.116-0.997,0.349
					c-0.307,0.231-0.513,0.526-0.617,0.886v11.457h-3.798v-15.824h3.007l0.443,1.741h0.095c0.316-0.612,0.78-1.113,1.393-1.503
					c0.612-0.391,1.329-0.585,2.152-0.585c0.696,0,1.36,0.169,1.994,0.506c0.633,0.338,1.064,0.929,1.297,1.771
					c0.315-0.737,0.802-1.303,1.456-1.692c0.652-0.391,1.36-0.585,2.12-0.585c0.569,0,1.081,0.079,1.534,0.236
					c0.454,0.158,0.85,0.438,1.188,0.84c0.337,0.4,0.596,0.943,0.775,1.63c0.179,0.686,0.269,1.565,0.269,2.643v10.823h-3.798
					V464.24c0-0.95-0.153-1.614-0.459-1.994c-0.307-0.379-0.68-0.569-1.123-0.569c-0.38,0-0.708,0.09-0.981,0.27
					c-0.273,0.179-0.464,0.47-0.568,0.87v11.551L446.485,474.366L446.485,474.366z"/>
				<path fill="#FFD829" d="M460.694,459.619c0.844-0.38,1.819-0.707,2.927-0.981c1.107-0.273,2.421-0.412,3.939-0.412
					c1.098,0,2.03,0.133,2.802,0.396c0.77,0.264,1.393,0.639,1.866,1.124c0.476,0.486,0.817,1.066,1.028,1.741
					s0.316,1.435,0.316,2.277c0,1.076-0.037,1.994-0.111,2.753c-0.074,0.761-0.11,1.436-0.11,2.025c0,0.443,0.021,0.939,0.063,1.488
					c0.042,0.295,0.074,0.58,0.095,0.854h2.058v3.481h-5.312l-0.416-2.152h-0.157c-0.419,0.654-1.017,1.218-1.793,1.693
					c-0.775,0.475-1.823,0.712-3.145,0.712c-1.573,0-2.82-0.422-3.743-1.267c-0.923-0.844-1.383-1.962-1.383-3.354
					c0-0.886,0.162-1.651,0.487-2.294c0.324-0.644,0.797-1.171,1.414-1.583c0.618-0.412,1.362-0.717,2.233-0.918
					c0.87-0.2,1.839-0.3,2.909-0.3c0.377,0,0.776,0.021,1.195,0.062s0.933,0.085,1.541,0.127c0.042-0.211,0.062-0.422,0.062-0.633
					v-0.601c0-0.803-0.229-1.376-0.691-1.726c-0.461-0.349-1.142-0.521-2.041-0.521c-1.068,0-2.032,0.138-2.892,0.412
					c-0.858,0.273-1.582,0.549-2.168,0.822L460.694,459.619z M466.081,471.233c1,0,1.752-0.185,2.253-0.555
					c0.5-0.369,0.866-0.764,1.095-1.187v-1.899c-0.209-0.042-0.521-0.089-0.938-0.143c-0.417-0.052-0.866-0.079-1.347-0.079
					c-0.396,0-0.792,0.037-1.188,0.111c-0.396,0.073-0.751,0.189-1.063,0.348s-0.562,0.364-0.751,0.617
					c-0.188,0.253-0.28,0.559-0.28,0.917c0,0.591,0.172,1.05,0.516,1.377S465.288,471.233,466.081,471.233z"/>
				<path fill="#FFD829" d="M478.701,470.885h5.57v-8.86h-5.57v-3.481h9.684v12.343h5.854v3.481H478.7L478.701,470.885
					L478.701,470.885z M483.512,454.239c0-0.654,0.242-1.213,0.729-1.679c0.484-0.463,1.16-0.695,2.024-0.695
					c0.887,0,1.594,0.231,2.121,0.695c0.527,0.465,0.791,1.024,0.791,1.679c0,0.675-0.264,1.229-0.791,1.661
					s-1.233,0.648-2.121,0.648c-0.864,0-1.54-0.216-2.024-0.648C483.754,455.468,483.512,454.914,483.512,454.239z"/>
				<path fill="#FFD829" d="M498.576,452.213h6.741v14.621c0,1.625,0.199,2.753,0.602,3.386c0.4,0.633,1.044,0.95,1.93,0.95
					c0.654,0,1.192-0.068,1.614-0.206c0.421-0.137,0.843-0.333,1.266-0.586l1.552,2.849c-0.359,0.232-0.718,0.448-1.076,0.648
					c-0.359,0.201-0.739,0.37-1.14,0.506c-0.4,0.137-0.838,0.243-1.312,0.317c-0.475,0.073-1.008,0.109-1.598,0.109
					c-1.983,0-3.472-0.506-4.462-1.519c-0.992-1.013-1.488-2.447-1.488-4.304v-13.292h-2.626v-3.48H498.576z"/>
			</g>
		</g>
		<g>
			<rect x="419.868" y="340.462" fill="#FFD829" width="256.729" height="4"/>
		</g>
	</g>
</g>
</svg>
