<svg xmlns="http://www.w3.org/2000/svg" viewBox="0 0 1532 760"><path d="M1482.53 579.59a17.1 17.1 0 0 1 34.2 0Z"/><path fill="#fff" d="M1507.8 324.9a8.17 8.17 0 1 1-16.35 0 8.17 8.17 0 0 1 16.35 0Zm-8.17-295.58a2 2 0 0 1-2-2V2.5a2 2 0 0 1 4 0v24.82a2 2 0 0 1-2 2Zm0 34.02a2 2 0 0 1-2-2V36.5a2 2 0 0 1 4 0v24.83a2 2 0 0 1-2 2Zm29.42-29.42h-24.83a2 2 0 0 1 0-4h24.83a2 2 0 0 1 0 4Zm-34.02 0h-24.83a2 2 0 0 1 0-4h24.83a2 2 0 0 1 0 4Zm-329.88 14.19a16.2 16.2 0 0 0-16.2-16.2h-39.91a16.2 16.2 0 0 0 0 32.4h39.91a16.2 16.2 0 0 0 16.2-16.2Z"/><path fill="#ffd829" d="m1407.77 268.71-13.4-237.8h-83.73l-13.4 237.8v.01a55.25 55.25 0 0 0 29.14 48.7v130.05h52.25V317.42a55.25 55.25 0 0 0 29.14-48.7Z"/><path fill="#fff" d="M1380.63 449.47h-56.25V318.6a57.22 57.22 0 0 1-29.15-49.88v-.12l13.51-239.7h87.52l13.51 239.82a57.23 57.23 0 0 1-29.14 49.89Zm-52.25-4h48.25V316.23l1.05-.57a53.24 53.24 0 0 0 28.09-46.9l-13.29-235.85h-79.96l-13.28 235.9a53.23 53.23 0 0 0 28.09 46.85l1.05.56Z"/><path fill="#fff" d="M1397.06 712.34a38.08 38.08 0 0 1-38.08 38.08h-12.96a38.08 38.08 0 0 1-38.07-38.08V432.17a38.08 38.08 0 0 1 38.07-38.07h12.96a38.08 38.08 0 0 1 38.08 38.07Z"/><path d="M1397.05 712.8a44.55 44.55 0 1 1-89.1 0 44.55 44.55 0 0 1 89.1 0Z"/><path fill="#ffd829" d="m1172.07 707.36-6.92-643.06h-72.3l-9.9 643.06Z"/><path d="M1172.07 709.36h-89.11a2 2 0 0 1-2-2.03l9.89-643.06a2 2 0 0 1 2-1.97h72.3a2 2 0 0 1 2 1.98l6.92 643.06a2 2 0 0 1-2 2.02Zm-87.08-4h85.06l-6.88-639.06h-68.36Z"/><path fill="#ffd829" d="M1172.06 712.8a44.55 44.55 0 1 1-89.1 0 44.55 44.55 0 0 1 89.1 0Z"/><path d="M1127.51 759.36a46.6 46.6 0 0 1-46.55-46.56 46.6 46.6 0 0 1 46.55-46.55 46.6 46.6 0 0 1 46.55 46.55 46.6 46.6 0 0 1-46.55 46.56Zm0-89.1a42.6 42.6 0 0 0-42.55 42.54 42.6 42.6 0 0 0 42.55 42.56 42.6 42.6 0 0 0 42.55-42.56 42.6 42.6 0 0 0-42.55-42.55Zm133.01-522.86a49.04 49.04 0 0 1-49.03 49.03h-167.95a49.04 49.04 0 0 1-49.04-49.04V99.5a49.04 49.04 0 0 1 49.04-49.03h167.95a49.04 49.04 0 0 1 49.03 49.04Z"/><path fill="#fff" d="M900.53 433.16H95.16v72.37h.04C96.6 623.17 276.32 718.3 497.84 718.3c221.52 0 401.23-95.14 402.63-212.78h.06Z"/><path fill="#ffd829" d="M898.44 432.6c0 117.72-179.44 213.16-400.8 213.16s-400.8-95.44-400.8-213.17c0-117.73 179.44-213.17 400.8-213.17s400.8 95.44 400.8 213.17Z"/><path fill="#fff" d="M497.64 647.76c-107.38 0-208.36-22.26-284.35-62.67-76.39-40.63-118.45-94.79-118.45-152.5 0-57.71 42.06-111.87 118.45-152.5 75.98-40.41 176.97-62.67 284.35-62.67 107.38 0 208.36 22.26 284.35 62.67 76.39 40.63 118.45 94.79 118.45 152.5 0 57.72-42.06 111.87-118.45 152.5-75.99 40.41-176.97 62.67-284.35 62.67Zm0-426.34c-219.9 0-398.8 94.73-398.8 211.17 0 116.44 178.9 211.17 398.8 211.17s398.8-94.73 398.8-211.17c0-116.44-178.9-211.17-398.8-211.17Z"/><path d="M60.27 587.2c-.7 0-1.38.04-2.06.12a26.57 26.57 0 0 0-40.62 3.76A15.17 15.17 0 0 0 .95 606.19h78.32c0-10.49-8.5-18.99-19-18.99Zm761.68-89.72c2.15-61-13.23-138.42-62.64-178.17-31.49-25.33-29.25-64.91-45.1-98.18-16.1-33.77-55.7-53.71-91.74-55.09-46.14-1.75-69.57-9.3-92.38-48.88C468.1 9.63 302.19-11.54 218.74 88.14c-45.37 54.21-45.2 136.97-45.2 203.8l2.02 205.54ZM125.74 714.39a45.09 45.09 0 0 0-38.6 21.76 25 25 0 0 0-33.97 23.35h117.68a45.11 45.11 0 0 0-45.11-45.11Zm68.17 3.41a22.8 22.8 0 0 1 45.6 0Zm653.04-40.13c-1.78 0-3.55.1-5.29.26a96.85 96.85 0 0 0-79.78-41.88 96.59 96.59 0 0 0-65.67 25.67 78.83 78.83 0 0 0-112.44 71.3H902.3a55.35 55.35 0 0 0-55.36-55.35Zm94.97-33.07a17.1 17.1 0 0 1 34.2 0Z"/><path fill="#fff" d="M584.52 23.74a8.17 8.17 0 1 1-16.35 0 8.17 8.17 0 0 1 16.35 0ZM129.13 105.2a8.17 8.17 0 1 1-16.35 0 8.17 8.17 0 0 1 16.34 0ZM77.36 53.44a8.17 8.17 0 1 1-16.35 0 8.17 8.17 0 0 1 16.35 0ZM886.94 194.6a8.17 8.17 0 1 1-16.35 0 8.17 8.17 0 0 1 16.35 0ZM722.02 52.25a2 2 0 0 1-2-2V12.2a2 2 0 0 1 4 0v38.06a2 2 0 0 1-2 2Zm0 52.17a2 2 0 0 1-2-2V64.35a2 2 0 0 1 4 0v38.07a2 2 0 0 1-2 2Zm45.11-45.12h-38.06a2 2 0 0 1 0-4h38.06a2 2 0 0 1 0 4Zm-52.16 0H676.9a2 2 0 0 1 0-4h38.07a2 2 0 0 1 0 4ZM40.1 241.04a2 2 0 0 1-2-2v-24.82a2 2 0 0 1 4 0v24.82a2 2 0 0 1-2 2Zm0 34.02a2 2 0 0 1-2-2v-24.82a2 2 0 0 1 4 0v24.82a2 2 0 0 1-2 2Zm29.43-29.42H44.7a2 2 0 0 1 0-4h24.83a2 2 0 0 1 0 4Zm-34.02 0H10.69a2 2 0 0 1 0-4H35.5a2 2 0 0 1 0 4ZM638.5 457.05h-48.17v-46.63h48.17Zm-44.17-4h40.17v-38.63h-40.17Z"/><path fill="#ffd829" d="m245.16 146.66.24-5.23h-.28l-5.38 8.78h-1.15l-5.61-8.78h-.24l.29 4.7v18.43h-6.24v-33.58h6.67l5.76 9.3h.19l5.7-9.3h6.63v33.58h-6.57Zm28.32 10.46h-10.03l-2.3 7.44h-6.57l10.84-33.58h6.57l10.8 33.58h-6.91Zm-8.5-5.28h7.2l-3.4-11.22h-.43Zm21.17-20.53a61.82 61.82 0 0 1 4.92-.62 69.9 69.9 0 0 1 4.68-.2 24 24 0 0 1 4.63.46c1.52.3 2.88.82 4.07 1.56a8.29 8.29 0 0 1 2.88 2.98 9.2 9.2 0 0 1 1.08 4.65c0 1.37-.13 2.57-.4 3.57-.28 1.01-.65 1.9-1.13 2.67a8.02 8.02 0 0 1-1.75 1.99 15.7 15.7 0 0 1-2.23 1.5l8.1 14.69h-7.58l-6.76-13.15h-3.94v13.15h-6.57Zm10.08 5.04c-.68 0-1.34.01-2 .05a7.7 7.7 0 0 0-1.5.19v9.74h2.59c1.82 0 3.3-.42 4.46-1.25 1.15-.83 1.73-2.2 1.73-4.13 0-1.44-.45-2.56-1.35-3.38-.9-.81-2.2-1.22-3.93-1.22Zm18.09 17.22h5.27v4.75l.3.1a12.51 12.51 0 0 0 5.22 1.1c1.8 0 3.19-.36 4.18-1.08a3.4 3.4 0 0 0 1.48-2.9c0-1.09-.4-1.97-1.22-2.64a12.34 12.34 0 0 0-3.02-1.78 74.15 74.15 0 0 0-3.94-1.53 18.75 18.75 0 0 1-3.93-1.94c-1.2-.79-2.2-1.77-3.02-2.95a7.96 7.96 0 0 1-1.23-4.61 9.1 9.1 0 0 1 3.2-7.05c1-.87 2.2-1.54 3.62-2.02a14.5 14.5 0 0 1 4.7-.72c1.95 0 3.87.18 5.75.53 1.9.35 3.4.83 4.51 1.44v9.74h-5.27v-5.33c-.1 0-.2-.01-.29-.05a18.13 18.13 0 0 0-4.7-.62 6.3 6.3 0 0 0-3.63.91 2.83 2.83 0 0 0-1.31 2.45c0 1.06.4 1.92 1.22 2.6.82.66 1.82 1.27 3.02 1.81 1.2.55 2.51 1.1 3.94 1.63a20.7 20.7 0 0 1 3.93 2c1.2.78 2.2 1.76 3.02 2.95a7.69 7.69 0 0 1 1.23 4.46c0 1.73-.32 3.24-.96 4.53a9.14 9.14 0 0 1-2.69 3.27 11.8 11.8 0 0 1-4.08 1.96 19.1 19.1 0 0 1-5.08.65c-1.22 0-2.35-.1-3.39-.29a22.2 22.2 0 0 1-6.83-2.44Zm67.31 6.38c1.06 0 2.02-.13 2.9-.4a6.85 6.85 0 0 0 2.26-1.15 5.52 5.52 0 0 0 1.46-1.72 4.4 4.4 0 0 0 .53-2.12c0-.96-.2-1.76-.6-2.41a4.32 4.32 0 0 0-1.66-1.56 7.96 7.96 0 0 0-2.54-.8 19 19 0 0 0-3.21-.25h-2.69v-3.44l8.06-9.85H374v-5.28h19.58v4.37l-8.45 9.65h1.1c1.13 0 2.21.19 3.27.57a8.08 8.08 0 0 1 4.77 4.6 10 10 0 0 1 .75 3.99 9.9 9.9 0 0 1-1.13 4.8 10.94 10.94 0 0 1-2.97 3.48 12.7 12.7 0 0 1-4.25 2.1c-1.6.47-3.25.7-4.94.7a24.6 24.6 0 0 1-4.32-.38 20.79 20.79 0 0 1-4.17-1.2l1.68-5.18c.28.16.68.32 1.17.48a19.75 19.75 0 0 0 3.6.86c.65.1 1.3.14 1.94.14Zm17.57-12.23c0-2.91.3-5.46.92-7.65.6-2.2 1.46-4 2.57-5.45a10.67 10.67 0 0 1 3.98-3.24 12.03 12.03 0 0 1 5.15-1.08c4.04 0 7.16 1.42 9.34 4.25 2.19 2.83 3.28 7.22 3.28 13.17 0 2.94-.3 5.5-.92 7.7a16.05 16.05 0 0 1-2.57 5.47 10.55 10.55 0 0 1-4 3.26 12.2 12.2 0 0 1-5.18 1.08c-4.08 0-7.2-1.5-9.34-4.48-2.16-3-3.23-7.34-3.23-13.03Zm6.24 0a39.31 39.31 0 0 0 .1 2.69l11.6-10.7c-.95-2.75-2.74-4.13-5.37-4.13-2.03 0-3.6.98-4.7 2.95-1.09 1.97-1.63 5.03-1.63 9.19Zm12.76 0a42.5 42.5 0 0 0-.1-2.83l-11.65 10.7c.98 2.9 2.77 4.36 5.37 4.36 2.03 0 3.6-.97 4.71-2.92 1.11-1.95 1.67-5.06 1.67-9.31Zm9.71 0c0-2.91.3-5.46.91-7.65.62-2.2 1.47-4 2.58-5.45a10.67 10.67 0 0 1 3.98-3.24 12.03 12.03 0 0 1 5.15-1.08c4.04 0 7.16 1.42 9.34 4.25 2.19 2.83 3.28 7.22 3.28 13.17 0 2.94-.3 5.5-.92 7.7a16.05 16.05 0 0 1-2.58 5.47 10.55 10.55 0 0 1-4 3.26 12.2 12.2 0 0 1-5.17 1.08c-4.08 0-7.2-1.5-9.34-4.48-2.16-3-3.23-7.34-3.23-13.03Zm6.24 0a39.31 39.31 0 0 0 .1 2.69l11.6-10.7c-.95-2.75-2.74-4.13-5.38-4.13-2.03 0-3.59.98-4.68 2.95-1.1 1.97-1.64 5.03-1.64 9.19Zm12.76 0a42.5 42.5 0 0 0-.1-2.83l-11.66 10.7c.99 2.9 2.78 4.36 5.38 4.36 2.03 0 3.6-.97 4.71-2.92 1.11-1.95 1.67-5.06 1.67-9.31Zm9.71 0c0-2.91.3-5.46.91-7.65.61-2.2 1.47-4 2.58-5.45a10.67 10.67 0 0 1 3.97-3.24 12.03 12.03 0 0 1 5.16-1.08c4.04 0 7.16 1.42 9.34 4.25 2.18 2.83 3.28 7.22 3.28 13.17 0 2.94-.31 5.5-.92 7.7a16.05 16.05 0 0 1-2.58 5.47 10.55 10.55 0 0 1-4 3.26 12.2 12.2 0 0 1-5.17 1.08c-4.08 0-7.2-1.5-9.34-4.48-2.16-3-3.23-7.34-3.23-13.03Zm6.24 0a39.4 39.4 0 0 0 .09 2.69l11.61-10.7c-.95-2.75-2.74-4.13-5.38-4.13-2.03 0-3.59.98-4.68 2.95-1.1 1.97-1.64 5.03-1.64 9.19Zm12.76 0a42.5 42.5 0 0 0-.1-2.83l-11.65 10.7c.98 2.9 2.77 4.36 5.37 4.36 2.03 0 3.6-.97 4.71-2.92 1.11-1.95 1.67-5.06 1.67-9.31ZM226.58 443.6h5.6v-14.43h-5.6v-3.86h15.57v3.86h-5.64v14.44h5.64v3.85h-15.57Zm47.37-8.16 2.38 6.93h.16l.28-2.72 1.3-8h3.7l-3.2 15.81h-4.14l-1.77-6.26h-.16l-2 6.26h-4.26l-3.33-15.82h4.12l1.55 8.77.25 1.96h.16l2.34-6.93Zm8.99 4.12c0-1.33.2-2.51.6-3.55a7.26 7.26 0 0 1 4.35-4.26 10.1 10.1 0 0 1 3.44-.55c1.33 0 2.52.2 3.56.6a7.12 7.12 0 0 1 4.27 4.33c.37 1.04.56 2.18.56 3.43 0 1.32-.2 2.5-.6 3.54a7.3 7.3 0 0 1-1.71 2.63 7.28 7.28 0 0 1-2.65 1.63 10.1 10.1 0 0 1-3.43.55c-1.33 0-2.52-.2-3.56-.6a7.1 7.1 0 0 1-4.27-4.34 10.1 10.1 0 0 1-.56-3.42Zm4.24 0c0 .7.1 1.34.29 1.93.19.59.46 1.1.82 1.55a3.7 3.7 0 0 0 3.04 1.39c1.22 0 2.22-.4 2.99-1.17.77-.78 1.15-2.02 1.15-3.7a5.5 5.5 0 0 0-1.07-3.53 3.7 3.7 0 0 0-3.07-1.35c-.6 0-1.14.1-1.65.27-.5.18-.94.47-1.31.87-.37.4-.66.9-.87 1.52a6.78 6.78 0 0 0-.32 2.22Zm14.88 4.43h3.92v-8.87h-3.92v-3.48h7.12l.47 2.1h.13a8.42 8.42 0 0 1 2.02-1.75 5 5 0 0 1 2.66-.7 3.6 3.6 0 0 1 3 1.4c.72.93 1.09 2.48 1.09 4.65h-3.7a3.2 3.2 0 0 0-.34-1.66c-.22-.35-.57-.52-1.06-.52-.84 0-1.52.21-2.04.63-.52.42-.96.9-1.31 1.46v6.74h6.86v3.48h-14.9Zm17.75-18.68h6.71v12.63h.95l5.19-6.3h4.84l-6.4 7.22 4.15 5.13h2.95v3.47h-5.13l-5.44-6.55h-1.11v6.55h-4.11V428.8h-2.6Zm35.89 20.48c-.28.25-.63.5-1.06.74a11.7 11.7 0 0 1-5.65 1.38 10.8 10.8 0 0 1-3.63-.57 7.27 7.27 0 0 1-2.7-1.66 7.27 7.27 0 0 1-1.7-2.63 9.73 9.73 0 0 1-.58-3.5c0-1.39.22-2.6.67-3.65a7.28 7.28 0 0 1 4.52-4.17 10.42 10.42 0 0 1 5.84-.21c.85.21 1.64.57 2.36 1.1a5.8 5.8 0 0 1 1.75 2.06c.46.87.68 1.97.68 3.3 0 .9-.1 1.88-.31 2.94h-11.4a3.38 3.38 0 0 0 1.47 2.85c.44.3.93.5 1.5.65a9.43 9.43 0 0 0 4.9-.24c.81-.3 1.47-.66 1.98-1.08Zm-6.84-11.3a5.2 5.2 0 0 0-1.55.23 4.3 4.3 0 0 0-1.31.66c-.4.29-.71.65-.97 1.08-.25.43-.4.91-.44 1.45h7.79a3.5 3.5 0 0 0-.88-2.5c-.58-.61-1.46-.92-2.64-.92Zm18.61-9.18h6.61V439a42.92 42.92 0 0 0 .29 5h2.02v3.47h-5.1l-.4-2.02h-.13c-.21.38-.5.72-.85 1.01a6.26 6.26 0 0 1-2.66 1.29 8.14 8.14 0 0 1-4.38-.3 6.05 6.05 0 0 1-2.3-1.48 7.05 7.05 0 0 1-1.55-2.53 10.37 10.37 0 0 1-.57-3.62c0-1.35.2-2.56.62-3.61a7.49 7.49 0 0 1 4.29-4.35 8.6 8.6 0 0 1 3.26-.59c.65 0 1.27.04 1.85.11.58.08 1.08.2 1.5.37v-2.95h-2.5Zm-.85 19.12c.8 0 1.51-.2 2.13-.59a2.72 2.72 0 0 0 1.22-1.69v-6.7a3 3 0 0 0-1.22-.53 7.42 7.42 0 0 0-1.63-.17c-.57 0-1.12.1-1.66.28-.54.19-1.01.49-1.42.9a4.4 4.4 0 0 0-.99 1.6 6.96 6.96 0 0 0-.36 2.4c0 1.36.34 2.44 1.01 3.27a3.57 3.57 0 0 0 2.92 1.23Zm31.39 3.04v-3.48h3.73v-8.86h-3.76v-3.48h3.76v-.9c0-.98.18-1.84.52-2.55a5.14 5.14 0 0 1 3.36-2.8 8.17 8.17 0 0 1 2.33-.33c1.45 0 2.65.12 3.59.36s1.71.54 2.32.9l-1.2 3.13c-.48-.23-1-.44-1.56-.63a6.9 6.9 0 0 0-2.17-.28c-1.14 0-1.94.25-2.4.77-.44.52-.67 1.3-.67 2.33h6.64v3.48h-6.64v8.86h6.68v3.48Zm17.85-7.91c0-1.33.2-2.51.6-3.55a7.26 7.26 0 0 1 4.35-4.26 10.1 10.1 0 0 1 3.44-.55c1.33 0 2.51.2 3.56.6a7.12 7.12 0 0 1 4.27 4.33c.37 1.04.56 2.18.56 3.43 0 1.32-.2 2.5-.6 3.54a7.3 7.3 0 0 1-1.72 2.63 7.28 7.28 0 0 1-2.64 1.63 10.1 10.1 0 0 1-3.43.55c-1.33 0-2.52-.2-3.56-.6a7.1 7.1 0 0 1-4.27-4.34 10.08 10.08 0 0 1-.56-3.42Zm4.24 0c0 .7.1 1.34.28 1.93.2.59.47 1.1.83 1.55a3.7 3.7 0 0 0 3.04 1.39c1.22 0 2.21-.4 2.99-1.17.77-.78 1.15-2.02 1.15-3.7a5.5 5.5 0 0 0-1.07-3.53 3.7 3.7 0 0 0-3.07-1.35c-.6 0-1.14.1-1.65.27-.5.18-.95.47-1.31.87-.37.4-.66.9-.87 1.52a6.75 6.75 0 0 0-.32 2.22Zm14.87 4.43h3.93v-8.87h-3.93v-3.48h7.12l.48 2.1h.13a8.42 8.42 0 0 1 2.02-1.75 5 5 0 0 1 2.66-.7 3.6 3.6 0 0 1 2.99 1.4c.73.93 1.1 2.48 1.1 4.65h-3.71a3.2 3.2 0 0 0-.33-1.66c-.23-.35-.58-.52-1.06-.52-.85 0-1.53.21-2.05.63-.51.42-.95.9-1.3 1.46v6.74h6.86v3.48h-14.9Zm42.6-9.62h-.16l.19 2.62v10.48h-4.11V425.3h3.8l7.65 13.55h.16l-.28-2.66V425.3h4.1v22.16h-3.79Zm25.79 8.19h-6.61l-1.52 4.9h-4.34l7.15-22.15h4.34l7.12 22.16h-4.56Zm-5.6-3.48h4.75l-2.25-7.4h-.28Zm13.99 1.14h3.48v3.13l.19.07a8.46 8.46 0 0 0 3.45.72c1.18 0 2.1-.23 2.75-.71.66-.48.98-1.11.98-1.91 0-.72-.27-1.3-.8-1.74a8.2 8.2 0 0 0-2-1.18 49.2 49.2 0 0 0-2.6-1 12.4 12.4 0 0 1-2.59-1.29 7.17 7.17 0 0 1-2-1.94c-.53-.79-.8-1.8-.8-3.04a6.08 6.08 0 0 1 2.1-4.65 7.17 7.17 0 0 1 2.4-1.33 9.61 9.61 0 0 1 3.1-.48c1.28 0 2.55.12 3.8.35 1.24.23 2.23.55 2.97.95v6.42h-3.48v-3.51a4.14 4.14 0 0 0-5.68.16c-.58.4-.87.94-.87 1.61 0 .7.27 1.27.8 1.71.54.44 1.2.85 2 1.2a43 43 0 0 0 2.6 1.08c.93.36 1.8.8 2.59 1.31.8.52 1.46 1.17 2 1.95.53.78.8 1.76.8 2.94a6.05 6.05 0 0 1-2.4 5.14 7.77 7.77 0 0 1-2.7 1.3 12.7 12.7 0 0 1-3.35.43 12.25 12.25 0 0 1-4.13-.67c-.58-.19-1.09-.39-1.53-.6-.45-.21-.8-.39-1.08-.54Zm29.59 2.34h-6.62l-1.52 4.9h-4.33l7.15-22.15h4.34l7.12 22.16h-4.56Zm-5.6-3.48h4.74l-2.24-7.4h-.29Z"/><path fill="#fff" d="M613.67 326.9H336.23v-46.63h277.44Zm-273.44-4h269.44v-38.63H340.23Zm27.07 69.16h-68.43v-46.64h68.43Zm-64.43-4h60.43v-38.64h-60.43ZM471.6 261.75H319.09v-46.63h152.5Zm-148.51-4h144.5v-38.63H323.1Zm403.97 134.31h-187v-46.64h187Zm-183-4h179v-38.64h-179Z"/><path fill="#ffd829" d="M230.72 236.5h-.15l.19 2.63v10.47h-4.12v-22.15h3.8L238.1 241h.16l-.29-2.66v-10.89h4.12v22.15h-3.8Zm15.98-1.65a16.57 16.57 0 0 1 6.87-1.4c1.1.01 2.03.14 2.8.4a4.27 4.27 0 0 1 2.9 2.87c.21.68.31 1.44.31 2.28 0 1.08-.03 2-.1 2.75a21.44 21.44 0 0 0-.05 3.52l.1.85h2.05v3.48h-5.31l-.42-2.15h-.15a5.47 5.47 0 0 1-1.8 1.7c-.77.47-1.82.7-3.14.7a5.33 5.33 0 0 1-3.75-1.26 4.33 4.33 0 0 1-1.38-3.36c0-.88.16-1.65.49-2.3a4.1 4.1 0 0 1 1.41-1.57 6.68 6.68 0 0 1 2.23-.92 13 13 0 0 1 4.1-.24c.43.04.94.09 1.55.13.04-.21.06-.43.06-.64v-.6c0-.8-.23-1.37-.69-1.72a3.35 3.35 0 0 0-2.04-.53 9.5 9.5 0 0 0-2.9.42c-.85.27-1.57.55-2.16.82Zm5.4 11.62c1 0 1.75-.19 2.25-.56.5-.36.86-.76 1.1-1.18v-1.9l-.95-.15a10.9 10.9 0 0 0-1.34-.07c-.4 0-.8.03-1.2.1-.39.08-.74.2-1.05.36a1.9 1.9 0 0 0-.75.61 1.5 1.5 0 0 0-.29.92c0 .6.18 1.05.52 1.38.34.32.91.49 1.7.49Zm18.37 3.13v-9.68c0-.63-.04-1.14-.12-1.54a2.9 2.9 0 0 0-.34-.91 1 1 0 0 0-.5-.45c-.2-.07-.4-.1-.62-.1-.36 0-.69.1-1 .34-.3.23-.5.53-.61.89v11.45h-3.8v-15.82h3l.45 1.74h.1a3.87 3.87 0 0 1 3.54-2.09c.7 0 1.36.17 2 .5a2.7 2.7 0 0 1 1.3 1.78c.3-.74.8-1.3 1.45-1.7a4.06 4.06 0 0 1 2.12-.58c.57 0 1.08.08 1.53.24.45.16.85.44 1.19.84.34.4.6.94.77 1.63.18.69.27 1.57.27 2.64v10.82h-3.8v-10.12c0-.95-.15-1.62-.45-2a1.4 1.4 0 0 0-1.13-.56c-.38 0-.7.09-.98.26-.27.18-.46.47-.57.87v11.55h-3.8Zm28.26-1.67c-.27.25-.63.5-1.06.74a11.83 11.83 0 0 1-5.65 1.38c-1.35 0-2.56-.2-3.62-.57a7.27 7.27 0 0 1-2.7-1.66 7.26 7.26 0 0 1-1.7-2.63 9.74 9.74 0 0 1-.58-3.5c0-1.4.22-2.6.66-3.65a7.3 7.3 0 0 1 4.53-4.18 10.44 10.44 0 0 1 5.83-.2c.86.2 1.64.57 2.36 1.09.72.51 1.3 1.2 1.76 2.07.45.86.68 1.96.68 3.29 0 .9-.1 1.89-.32 2.94h-11.39a3.38 3.38 0 0 0 1.47 2.85c.43.3.93.51 1.49.65.56.14 1.15.2 1.79.2 1.26 0 2.3-.14 3.11-.44.82-.3 1.48-.65 1.98-1.07Zm-6.83-11.3c-.55 0-1.07.07-1.55.22a4.3 4.3 0 0 0-1.32.66 3.41 3.41 0 0 0-1.4 2.53h7.78a3.5 3.5 0 0 0-.87-2.5c-.58-.6-1.46-.91-2.64-.91ZM237.53 375h-6.62l-1.51 4.9h-4.34l7.15-22.15h4.34l7.12 22.15h-4.56Zm-5.6-3.48h4.74l-2.24-7.4h-.29Zm28.7 8.38c0 1.14-.2 2.13-.58 2.98-.4.84-.93 1.54-1.62 2.1-.68.56-1.5.97-2.44 1.23a12.5 12.5 0 0 1-8.53-.85 5.98 5.98 0 0 1-1-.65l1.57-2.9c.51.33 1.12.65 1.82.96.71.3 1.6.46 2.68.46 1.33 0 2.34-.31 3.04-.92.7-.61 1.04-1.49 1.04-2.63v-1.01h-.13c-.38.5-.93.88-1.67 1.12-.74.24-1.6.36-2.57.36a8 8 0 0 1-2.8-.47 6 6 0 0 1-3.7-3.9c-.35-.98-.52-2.14-.52-3.47 0-1.4.2-2.63.62-3.7.4-1.08.99-1.99 1.74-2.71a7.29 7.29 0 0 1 2.69-1.65c1.04-.37 2.2-.55 3.5-.55a25.34 25.34 0 0 1 3.93.28c.6.09 1.16.19 1.66.3.51.12.93.24 1.27.37Zm-7.6-3.03c.8 0 1.53-.19 2.17-.54.65-.36 1.09-.9 1.32-1.62v-7.12c-.3-.13-.72-.22-1.25-.3a12 12 0 0 0-1.54-.11c-.59 0-1.14.1-1.66.28a3.76 3.76 0 0 0-2.28 2.46 6.66 6.66 0 0 0-.33 2.23c0 .76.1 1.43.28 2.02.2.6.46 1.09.8 1.49a3.25 3.25 0 0 0 2.5 1.2Zm26.72 1.36c-.28.25-.63.5-1.06.74a11.8 11.8 0 0 1-5.65 1.38c-1.36 0-2.56-.2-3.63-.57a7.28 7.28 0 0 1-2.7-1.66 7.28 7.28 0 0 1-1.7-2.63 9.75 9.75 0 0 1-.58-3.5c0-1.39.22-2.6.66-3.65a7.28 7.28 0 0 1 4.53-4.18 10.42 10.42 0 0 1 5.84-.2c.85.2 1.64.57 2.36 1.09.71.51 1.3 1.2 1.75 2.07.45.87.68 1.96.68 3.3 0 .9-.1 1.88-.31 2.94h-11.4a3.39 3.39 0 0 0 1.47 2.85c.44.29.93.5 1.5.64.55.14 1.15.2 1.78.2 1.26 0 2.3-.14 3.12-.44.8-.3 1.47-.65 1.97-1.07Zm-6.84-11.3c-.55 0-1.07.07-1.55.22-.49.15-.93.38-1.31.67a3.34 3.34 0 0 0-1.4 2.53h7.77c0-1.06-.29-1.89-.87-2.5-.58-.62-1.46-.92-2.64-.92Zm119.63 7.89h3.48v3.13l.19.06a7.98 7.98 0 0 0 3.45.73c1.18 0 2.1-.24 2.75-.71.65-.48.98-1.11.98-1.91 0-.72-.27-1.3-.8-1.75a8.17 8.17 0 0 0-2-1.17 49.2 49.2 0 0 0-2.6-1.01 12.4 12.4 0 0 1-2.59-1.28 7.16 7.16 0 0 1-2-1.95c-.53-.78-.8-1.8-.8-3.04a6.09 6.09 0 0 1 2.1-4.65 7.19 7.19 0 0 1 2.4-1.33 9.59 9.59 0 0 1 3.1-.47c1.28 0 2.55.11 3.8.35 1.24.23 2.23.55 2.97.94v6.43h-3.48v-3.51a4.15 4.15 0 0 0-5.68.16c-.58.4-.87.93-.87 1.6 0 .7.27 1.27.8 1.72.54.44 1.2.84 2 1.2a43 43 0 0 0 2.6 1.08c.93.36 1.8.8 2.59 1.3a7.73 7.73 0 0 1 2 1.95c.53.79.8 1.77.8 2.95a6.05 6.05 0 0 1-2.4 5.14 7.77 7.77 0 0 1-2.7 1.3c-1.03.28-2.15.43-3.35.43a12.34 12.34 0 0 1-4.13-.67 12.7 12.7 0 0 1-1.53-.6c-.45-.21-.8-.4-1.08-.54Zm16.93-8.58h5.38l.47 1.9h.13c1.1-1.56 2.87-2.34 5.31-2.34.98 0 1.87.15 2.68.46.81.3 1.5.78 2.09 1.44a6.78 6.78 0 0 1 1.34 2.47c.32.99.48 2.18.48 3.57 0 1.35-.18 2.57-.54 3.66a7.76 7.76 0 0 1-1.55 2.77 6.66 6.66 0 0 1-2.47 1.74c-.97.4-2.08.6-3.32.6a13 13 0 0 1-1.93-.14 5.34 5.34 0 0 1-1.58-.46v6.48h-4.12v-18.67h-2.37Zm10.06 3.04c-.8 0-1.53.2-2.2.6-.66.4-1.12 1-1.37 1.8v6.59c.3.23.72.42 1.28.56.56.13 1.12.2 1.69.2.6 0 1.14-.1 1.65-.3.5-.2.94-.52 1.32-.97.38-.44.68-1 .9-1.67.2-.68.3-1.49.3-2.44a4.7 4.7 0 0 0-1-3.23 3.27 3.27 0 0 0-2.57-1.14Zm25.83 11.11c-.28.25-.63.5-1.07.74a11.73 11.73 0 0 1-5.65 1.38 10.7 10.7 0 0 1-3.62-.57 7.29 7.29 0 0 1-2.7-1.66 7.27 7.27 0 0 1-1.7-2.63 9.75 9.75 0 0 1-.58-3.5c0-1.39.22-2.6.66-3.65a7.29 7.29 0 0 1 4.53-4.18 10.42 10.42 0 0 1 5.83-.2c.86.2 1.64.57 2.36 1.09.72.52 1.3 1.2 1.76 2.07.45.87.68 1.96.68 3.3 0 .9-.1 1.88-.32 2.94h-11.39a3.38 3.38 0 0 0 1.47 2.85c.43.29.93.5 1.49.64.56.14 1.15.2 1.79.2 1.26 0 2.3-.14 3.11-.44a6.35 6.35 0 0 0 1.98-1.07Zm-6.84-11.3a5.2 5.2 0 0 0-1.55.23c-.49.15-.92.37-1.31.66a3.46 3.46 0 0 0-1.41 2.53h7.78c0-1.05-.29-1.89-.87-2.5-.58-.61-1.46-.92-2.64-.92Zm26.2 11.46a9.03 9.03 0 0 1-3.04 1.47 13.4 13.4 0 0 1-3.63.49c-1.38 0-2.6-.2-3.66-.6a7.14 7.14 0 0 1-4.35-4.34 9.83 9.83 0 0 1-.57-3.42c0-1.33.22-2.5.67-3.54a7.45 7.45 0 0 1 4.65-4.26c1.08-.37 2.25-.55 3.51-.55 1.19 0 2.3.13 3.33.4 1.03.28 1.82.55 2.37.8v5.57h-3.48v-2.91a8.92 8.92 0 0 0-1.96-.22c-.6 0-1.18.09-1.76.27a4.3 4.3 0 0 0-2.66 2.32c-.28.6-.43 1.3-.43 2.12 0 .68.12 1.3.35 1.87a4.48 4.48 0 0 0 2.55 2.48 7.54 7.54 0 0 0 5.03-.13 12.4 12.4 0 0 0 1.73-.9Zm3.58-1.97h5.57v-8.86h-5.57v-3.48h9.68v12.35h5.86v3.48H468.3Zm4.8-16.64c0-.65.25-1.21.74-1.68.48-.46 1.16-.7 2.02-.7.89 0 1.6.24 2.12.7a2.16 2.16 0 0 1 0 3.34c-.53.43-1.23.65-2.12.65-.86 0-1.54-.22-2.02-.65a2.12 2.12 0 0 1-.73-1.66Zm15.17 5.38a16.61 16.61 0 0 1 6.87-1.4c1.1 0 2.03.14 2.8.4a4.25 4.25 0 0 1 2.9 2.87c.2.67.3 1.43.3 2.27 0 1.08-.03 2-.1 2.76a21.16 21.16 0 0 0-.05 3.51l.1.85h2.05v3.49h-5.31l-.42-2.16h-.15a5.46 5.46 0 0 1-1.8 1.7 6 6 0 0 1-3.14.7 5.32 5.32 0 0 1-3.75-1.26 4.33 4.33 0 0 1-1.38-3.35 5 5 0 0 1 .49-2.3 4.1 4.1 0 0 1 1.41-1.58 6.7 6.7 0 0 1 2.24-.92 13 13 0 0 1 4.1-.24c.42.05.93.09 1.54.13.04-.21.06-.42.06-.63v-.6c0-.8-.23-1.38-.69-1.73a3.35 3.35 0 0 0-2.04-.52c-1.07 0-2.03.14-2.9.41-.85.27-1.57.55-2.16.82Zm5.38 11.61c1 0 1.76-.18 2.26-.55.5-.37.86-.76 1.1-1.19v-1.9a15 15 0 0 0-2.3-.22c-.39 0-.78.04-1.18.11a4 4 0 0 0-1.06.35c-.32.16-.57.36-.75.62a1.5 1.5 0 0 0-.29.91c0 .6.18 1.05.52 1.38.34.33.91.5 1.7.5Zm13.51-19.02h6.74v14.63c0 1.62.2 2.75.6 3.38.4.63 1.05.95 1.93.95.66 0 1.2-.07 1.62-.2.42-.14.84-.34 1.27-.6l1.55 2.86c-.36.23-.72.45-1.08.65a6.82 6.82 0 0 1-2.45.82c-.48.07-1.01.1-1.6.1-1.98 0-3.47-.5-4.46-1.51-1-1.02-1.49-2.45-1.49-4.3v-13.3h-2.63v-3.48Zm-280.07-66.7h14.52v3.86h-10.19v5.16h9.4v3.86h-9.4v5.41h10.35v3.87h-14.68Zm24.4 22.16v-9.69c0-.63-.05-1.14-.13-1.53-.09-.4-.2-.7-.33-.92a1.02 1.02 0 0 0-.51-.44 1.61 1.61 0 0 0-1.61.24c-.31.22-.52.52-.62.88v11.46h-3.8v-15.83h3l.45 1.74h.1a3.86 3.86 0 0 1 3.54-2.08c.7 0 1.36.17 2 .5a2.7 2.7 0 0 1 1.3 1.77c.3-.73.8-1.3 1.45-1.69a4.56 4.56 0 0 1 3.65-.35c.46.16.85.44 1.19.84.34.4.6.94.77 1.63.18.69.27 1.57.27 2.65v10.82h-3.8v-10.13c0-.95-.15-1.61-.45-2a1.4 1.4 0 0 0-1.13-.56c-.38 0-.7.09-.98.27a1.4 1.4 0 0 0-.56.87v11.55Zm14.21-14.75a16.61 16.61 0 0 1 6.87-1.4c1.09 0 2.02.14 2.8.4a4.26 4.26 0 0 1 2.9 2.87c.2.67.3 1.43.3 2.27 0 1.08-.03 2-.1 2.76a21.16 21.16 0 0 0-.06 3.51c.05.3.08.58.1.85h2.06v3.49h-5.31l-.42-2.16h-.16a5.46 5.46 0 0 1-1.8 1.7c-.77.47-1.81.7-3.14.7a5.33 5.33 0 0 1-3.74-1.26 4.33 4.33 0 0 1-1.38-3.35 5 5 0 0 1 .49-2.3 4.1 4.1 0 0 1 1.4-1.58 6.7 6.7 0 0 1 2.24-.92 13 13 0 0 1 4.1-.24c.42.05.94.09 1.55.13.04-.21.06-.42.06-.63v-.6c0-.8-.23-1.38-.7-1.73a3.35 3.35 0 0 0-2.03-.52 9.5 9.5 0 0 0-2.9.41c-.85.28-1.58.55-2.16.82Zm5.38 11.61c1 0 1.75-.18 2.25-.55.5-.37.87-.77 1.1-1.19v-1.9a15 15 0 0 0-2.29-.22c-.4 0-.79.04-1.18.11-.4.07-.75.19-1.07.35-.3.16-.56.36-.75.62a1.5 1.5 0 0 0-.28.91c0 .6.17 1.05.52 1.38.34.33.9.5 1.7.5Zm12.62-.35h5.57v-8.86h-5.57v-3.48h9.69v12.35h5.85v3.48H283.7Zm4.81-16.64c0-.66.24-1.21.73-1.68.49-.46 1.16-.7 2.02-.7.9 0 1.6.24 2.13.7a2.16 2.16 0 0 1 0 3.34c-.53.43-1.24.65-2.13.65-.86 0-1.53-.22-2.02-.65a2.12 2.12 0 0 1-.73-1.66Zm15.07-2.03h6.74v14.62c0 1.63.2 2.76.6 3.39.4.63 1.04.95 1.93.95.65 0 1.2-.07 1.61-.2.42-.14.85-.34 1.27-.6l1.55 2.86c-.36.23-.72.44-1.07.64a6.8 6.8 0 0 1-2.46.83c-.47.07-1 .1-1.6.1-1.98 0-3.47-.5-4.46-1.51-.99-1.02-1.49-2.45-1.49-4.3v-13.3h-2.62v-3.48Zm-78.71-111.75H481.6v4H224.87Z"/></svg>