<?xml version="1.0" encoding="utf-8"?>
<!-- Generator: Adobe Illustrator 16.0.0, SVG Export Plug-In . SVG Version: 6.00 Build 0)  -->
<!DOCTYPE svg PUBLIC "-//W3C//DTD SVG 1.1//EN" "http://www.w3.org/Graphics/SVG/1.1/DTD/svg11.dtd">
<svg version="1.1" id="Layer_1" xmlns="http://www.w3.org/2000/svg" xmlns:xlink="http://www.w3.org/1999/xlink" x="0px" y="0px"
	 width="1080px" height="1080px" viewBox="0 0 1080 1080" enable-background="new 0 0 1080 1080" xml:space="preserve">
<g>
	<g>
		<g>
			<g>
				<path fill="#FFFFFF" d="M892.031,497.344H217.261v60.63h0.037c1.173,98.564,151.744,178.276,337.342,178.276
					c185.599,0,336.173-79.712,337.344-178.276h0.048V497.344z"/>
			</g>
			<g>
				<ellipse fill="#FFD829" cx="554.476" cy="496.864" rx="335.81" ry="178.601"/>
				<path fill="#FFFFFF" d="M554.475,677.465c-90.019,0-174.681-18.661-238.391-52.545c-64.11-34.098-99.417-79.575-99.417-128.056
					s35.307-93.957,99.417-128.054c63.71-33.884,148.372-52.545,238.391-52.545c90.021,0,174.684,18.661,238.394,52.545
					c64.11,34.097,99.417,79.574,99.417,128.054c0,48.479-35.307,93.958-99.417,128.056
					C729.157,658.804,644.494,677.465,554.475,677.465z M554.475,320.265c-184.062,0-333.808,79.222-333.808,176.6
					s149.745,176.601,333.808,176.601c184.063,0,333.811-79.223,333.811-176.601C888.284,399.487,738.538,320.265,554.475,320.265z"
					/>
			</g>
		</g>
		<g>
			<path d="M826.192,551.232c1.804-51.108-11.08-115.979-52.479-149.281c-26.384-21.223-24.506-54.384-37.789-82.253
				c-13.49-28.297-46.662-45.005-76.865-46.157c-38.651-1.468-58.279-7.794-77.396-40.96
				c-51.927-90.085-190.947-107.833-260.856-24.31c-38.017,45.421-37.869,114.76-37.869,170.755l1.688,172.207H826.192z"/>
		</g>
		<g>
			<g>
				<path d="M242.884,732.966c-13.715,0-25.722,7.307-32.347,18.235c-2.33-0.896-4.859-1.392-7.506-1.392
					c-11.571,0-20.951,9.382-20.951,20.955h23.006h18.898h56.697C280.682,749.891,263.759,732.966,242.884,732.966z"/>
			</g>
			<g>
				<path d="M300.002,735.817c0-10.551,8.555-19.102,19.104-19.102s19.102,8.551,19.102,19.102H300.002z"/>
			</g>
		</g>
		<g>
			<path d="M847.146,702.203c-1.498,0-2.976,0.076-4.436,0.215c-14.663-21.189-39.127-35.085-66.847-35.085
				c-21.231,0-40.548,8.162-55.022,21.501c-8.545-4.035-18.086-6.3-28.16-6.3c-36.475,0-66.045,29.569-66.045,66.041h27.691h40.294
				h64.104h11.598h30.447h56.337h36.413C893.521,722.968,872.759,702.203,847.146,702.203z"/>
		</g>
		<g>
			<path d="M926.712,674.496c0-7.91,6.415-14.322,14.328-14.322c7.915,0,14.326,6.412,14.326,14.322H926.712z"/>
		</g>
		<g>
			<circle fill="#FFFFFF" cx="620.419" cy="154.316" r="6.849"/>
		</g>
		<g>
			<circle fill="#FFFFFF" cx="131.483" cy="183.861" r="6.849"/>
		</g>
		<g>
			<circle fill="#FFFFFF" cx="300.002" cy="120.729" r="6.85"/>
		</g>
		<g>
			<circle fill="#FFFFFF" cx="873.799" cy="297.47" r="6.849"/>
		</g>
		<g>
			<g>
				<g>
					<path fill="#FFFFFF" d="M742.467,178.528c-1.104,0-2-0.896-2-2v-31.892c0-1.104,0.896-2,2-2c1.104,0,2,0.896,2,2v31.892
						C744.467,177.633,743.571,178.528,742.467,178.528z"/>
				</g>
				<g>
					<path fill="#FFFFFF" d="M742.467,222.231c-1.104,0-2-0.896-2-2v-31.892c0-1.104,0.896-2,2-2c1.104,0,2,0.896,2,2v31.892
						C744.467,221.336,743.571,222.231,742.467,222.231z"/>
				</g>
			</g>
			<g>
				<g>
					<path fill="#FFFFFF" d="M780.264,184.434h-31.891c-1.104,0-2-0.896-2-2s0.896-2,2-2h31.891c1.104,0,2,0.896,2,2
						S781.368,184.434,780.264,184.434z"/>
				</g>
				<g>
					<path fill="#FFFFFF" d="M736.562,184.434H704.67c-1.104,0-2-0.896-2-2s0.896-2,2-2h31.893c1.104,0,2,0.896,2,2
						S737.666,184.434,736.562,184.434z"/>
				</g>
			</g>
		</g>
		<g>
			<g>
				<g>
					<path fill="#FFFFFF" d="M218.667,312.053c-1.104,0-2-0.896-2-2v-20.799c0-1.104,0.896-2,2-2s2,0.896,2,2v20.799
						C220.667,311.157,219.771,312.053,218.667,312.053z"/>
				</g>
				<g>
					<path fill="#FFFFFF" d="M218.667,340.554c-1.104,0-2-0.896-2-2v-20.799c0-1.104,0.896-2,2-2s2,0.896,2,2v20.799
						C220.667,339.659,219.771,340.554,218.667,340.554z"/>
				</g>
			</g>
			<g>
				<g>
					<path fill="#FFFFFF" d="M243.317,315.903h-20.799c-1.104,0-2-0.896-2-2s0.896-2,2-2h20.799c1.104,0,2,0.896,2,2
						S244.422,315.903,243.317,315.903z"/>
				</g>
				<g>
					<path fill="#FFFFFF" d="M214.813,315.903h-20.797c-1.104,0-2-0.896-2-2s0.896-2,2-2h20.797c1.104,0,2,0.896,2,2
						S215.918,315.903,214.813,315.903z"/>
				</g>
			</g>
		</g>
		<g>
			<path fill="#FFFFFF" d="M672.818,517.685h-41.004v-39.721h41.004V517.685z M635.814,513.685h33.004v-31.721h-33.004V513.685z"/>
		</g>
		<g>
			<path fill="#FFD829" d="M342.944,257.304l0.2-4.382h-0.24l-4.503,7.356h-0.964l-4.704-7.356h-0.2l0.241,3.939v15.436h-5.227
				v-28.139h5.587l4.824,7.798h0.16l4.784-7.798h5.547v28.139h-5.507L342.944,257.304L342.944,257.304z"/>
			<path fill="#FFD829" d="M366.745,266.067h-8.401l-1.93,6.23h-5.507l9.085-28.139h5.507l9.045,28.139h-5.789L366.745,266.067z
				 M359.63,261.646h6.03l-2.854-9.406h-0.36L359.63,261.646z"/>
			<path fill="#FFD829" d="M377.441,244.441c0.615-0.107,1.278-0.208,1.989-0.302c0.709-0.094,1.42-0.167,2.13-0.221
				c0.711-0.053,1.4-0.093,2.07-0.121c0.67-0.026,1.286-0.04,1.851-0.04c1.312,0,2.604,0.127,3.879,0.382
				c1.271,0.255,2.411,0.69,3.417,1.307c1.005,0.617,1.809,1.447,2.41,2.492c0.604,1.045,0.905,2.345,0.905,3.899
				c0,1.153-0.114,2.151-0.342,2.995c-0.229,0.844-0.543,1.587-0.945,2.231c-0.4,0.643-0.891,1.2-1.467,1.668
				c-0.576,0.469-1.2,0.891-1.869,1.266l6.793,12.301h-6.351l-5.668-11.014h-3.297v11.014h-5.507L377.441,244.441L377.441,244.441z
				 M385.883,248.662c-0.562,0-1.119,0.014-1.668,0.04c-0.55,0.027-0.972,0.081-1.267,0.161v8.16h2.171
				c1.527,0,2.772-0.348,3.738-1.045c0.965-0.697,1.446-1.849,1.446-3.457c0-1.206-0.375-2.151-1.125-2.834
				C388.429,249.003,387.33,248.662,385.883,248.662z"/>
			<path fill="#FFD829" d="M401.13,263.092h4.421v3.98c0.081,0.027,0.161,0.054,0.241,0.08c0.616,0.269,1.293,0.489,2.03,0.664
				c0.736,0.175,1.521,0.261,2.352,0.261c1.501,0,2.666-0.302,3.497-0.904c0.831-0.603,1.246-1.414,1.246-2.432
				c0-0.911-0.342-1.648-1.024-2.211c-0.684-0.563-1.526-1.059-2.532-1.487c-1.005-0.428-2.104-0.857-3.296-1.287
				c-1.192-0.428-2.291-0.971-3.297-1.628c-1.005-0.656-1.85-1.48-2.531-2.472c-0.685-0.991-1.025-2.277-1.025-3.859
				c0-1.206,0.234-2.312,0.703-3.316s1.126-1.869,1.97-2.593c0.845-0.724,1.855-1.286,3.035-1.688
				c1.179-0.402,2.492-0.603,3.939-0.603c1.634,0,3.241,0.147,4.822,0.442s2.842,0.697,3.779,1.206v8.16h-4.422v-4.462
				c-0.08,0-0.161-0.013-0.241-0.04c-0.59-0.161-1.227-0.288-1.909-0.382c-0.684-0.094-1.359-0.141-2.029-0.141
				c-1.286,0-2.298,0.255-3.035,0.764c-0.737,0.509-1.105,1.192-1.105,2.05c0,0.884,0.343,1.608,1.025,2.171
				c0.684,0.562,1.526,1.072,2.532,1.527c1.005,0.456,2.104,0.912,3.296,1.367c1.191,0.456,2.292,1.012,3.297,1.668
				c1.005,0.656,1.849,1.481,2.532,2.472c0.684,0.992,1.024,2.238,1.024,3.738c0,1.447-0.269,2.713-0.805,3.799
				c-0.536,1.085-1.286,1.997-2.251,2.733c-0.965,0.737-2.104,1.286-3.417,1.648c-1.312,0.362-2.733,0.543-4.261,0.543
				c-1.02,0-1.963-0.081-2.834-0.241c-0.871-0.161-1.676-0.362-2.412-0.603c-0.737-0.241-1.388-0.496-1.949-0.764
				c-0.562-0.268-1.02-0.496-1.366-0.684V263.092z"/>
			<path fill="#FFD829" d="M457.526,268.439c0.885,0,1.694-0.113,2.433-0.34c0.736-0.227,1.366-0.547,1.889-0.96
				c0.523-0.413,0.933-0.894,1.228-1.441c0.294-0.546,0.441-1.14,0.441-1.781c0-0.8-0.168-1.473-0.503-2.021
				c-0.335-0.546-0.798-0.979-1.387-1.3c-0.59-0.32-1.3-0.547-2.131-0.681c-0.831-0.133-1.729-0.2-2.693-0.2h-2.251v-2.884
				l6.754-8.25h-10.171v-4.422h16.401v3.658l-7.075,8.08h0.925c0.938,0,1.85,0.161,2.733,0.482c0.885,0.322,1.668,0.804,2.352,1.447
				c0.685,0.643,1.232,1.447,1.648,2.412c0.415,0.965,0.623,2.077,0.623,3.336c0,1.528-0.315,2.868-0.945,4.02
				c-0.63,1.152-1.461,2.124-2.492,2.915s-2.218,1.38-3.558,1.769c-1.34,0.389-2.72,0.583-4.14,0.583
				c-1.206,0-2.412-0.107-3.618-0.322s-2.372-0.549-3.497-1.005l1.406-4.341c0.241,0.134,0.568,0.268,0.984,0.402
				c0.415,0.134,0.885,0.269,1.407,0.402c0.521,0.134,1.058,0.241,1.606,0.322C456.447,268.398,456.99,268.439,457.526,268.439z"/>
			<path fill="#FFD829" d="M472.339,258.188c0-2.438,0.255-4.576,0.767-6.412c0.512-1.835,1.23-3.356,2.158-4.562
				c0.93-1.206,2.038-2.11,3.33-2.713c1.291-0.603,2.73-0.904,4.317-0.904c3.39,0,5.999,1.186,7.828,3.557
				c1.829,2.372,2.743,6.05,2.743,11.035c0,2.466-0.256,4.616-0.768,6.452c-0.511,1.836-1.229,3.363-2.158,4.583
				c-0.929,1.22-2.045,2.13-3.349,2.733c-1.306,0.603-2.752,0.905-4.338,0.905c-3.417,0-6.026-1.252-7.829-3.759
				C473.239,266.597,472.339,262.958,472.339,258.188z M477.564,258.188c0,0.402,0.007,0.784,0.02,1.146
				c0.014,0.362,0.033,0.73,0.061,1.105l9.729-8.964c-0.798-2.304-2.3-3.457-4.505-3.457c-1.702,0-3.011,0.824-3.928,2.472
				C478.023,252.139,477.564,254.705,477.564,258.188z M488.258,258.188c0-0.428-0.007-0.837-0.021-1.226
				c-0.014-0.388-0.033-0.77-0.061-1.146l-9.769,8.964c0.824,2.439,2.325,3.658,4.505,3.658c1.701,0,3.017-0.817,3.947-2.452
				C487.792,264.353,488.258,261.753,488.258,258.188z"/>
			<path fill="#FFD829" d="M496.474,258.188c0-2.438,0.255-4.576,0.768-6.412c0.511-1.835,1.229-3.356,2.158-4.562
				s2.038-2.11,3.329-2.713s2.73-0.904,4.317-0.904c3.39,0,5.999,1.186,7.828,3.557c1.829,2.372,2.744,6.05,2.744,11.035
				c0,2.466-0.256,4.616-0.769,6.452c-0.511,1.836-1.229,3.363-2.157,4.583c-0.93,1.22-2.046,2.13-3.35,2.733
				c-1.306,0.603-2.752,0.905-4.338,0.905c-3.417,0-6.026-1.252-7.829-3.759C497.374,266.597,496.474,262.958,496.474,258.188z
				 M501.699,258.188c0,0.402,0.007,0.784,0.02,1.146c0.015,0.362,0.033,0.73,0.062,1.105l9.729-8.964
				c-0.798-2.304-2.3-3.457-4.505-3.457c-1.702,0-3.011,0.824-3.928,2.472C502.158,252.139,501.699,254.705,501.699,258.188z
				 M512.393,258.188c0-0.428-0.007-0.837-0.021-1.226c-0.013-0.388-0.033-0.77-0.06-1.146l-9.77,8.964
				c0.824,2.439,2.325,3.658,4.505,3.658c1.701,0,3.018-0.817,3.947-2.452C511.927,264.353,512.393,261.753,512.393,258.188z"/>
			<path fill="#FFD829" d="M520.607,258.188c0-2.438,0.255-4.576,0.767-6.412c0.511-1.835,1.229-3.356,2.158-4.562
				s2.038-2.11,3.33-2.713c1.291-0.603,2.729-0.904,4.316-0.904c3.391,0,5.999,1.186,7.828,3.557
				c1.829,2.372,2.744,6.05,2.744,11.035c0,2.466-0.256,4.616-0.768,6.452s-1.23,3.363-2.158,4.583
				c-0.929,1.22-2.045,2.13-3.349,2.733c-1.307,0.603-2.753,0.905-4.339,0.905c-3.417,0-6.025-1.252-7.829-3.759
				C521.508,266.597,520.607,262.958,520.607,258.188z M525.833,258.188c0,0.402,0.007,0.784,0.021,1.146s0.032,0.73,0.061,1.105
				l9.729-8.964c-0.798-2.304-2.3-3.457-4.505-3.457c-1.702,0-3.011,0.824-3.928,2.472
				C526.292,252.139,525.833,254.705,525.833,258.188z M536.526,258.188c0-0.428-0.008-0.837-0.021-1.226
				c-0.013-0.388-0.033-0.77-0.06-1.146l-9.77,8.964c0.824,2.439,2.325,3.658,4.505,3.658c1.701,0,3.018-0.817,3.947-2.452
				C536.061,264.353,536.526,261.753,536.526,258.188z"/>
		</g>
		<g>
			<path fill="#FFD829" d="M327.372,506.094h4.693v-12.091h-4.693v-3.235h13.046v3.235h-4.72v12.091h4.72v3.235h-13.046V506.094z"/>
			<path fill="#FFD829" d="M367.064,499.253l1.988,5.807h0.132l0.239-2.279l1.087-6.708h3.104l-2.679,13.258h-3.474l-1.485-5.25
				h-0.133l-1.67,5.25h-3.58l-2.783-13.258h3.446l1.299,7.345l0.214,1.644h0.132l1.963-5.807L367.064,499.253L367.064,499.253z"/>
			<path fill="#FFD829" d="M374.595,502.7c0-1.114,0.168-2.104,0.504-2.97c0.336-0.866,0.813-1.601,1.433-2.201
				c0.619-0.602,1.355-1.057,2.215-1.366c0.855-0.309,1.814-0.464,2.876-0.464c1.114,0,2.108,0.168,2.983,0.504
				s1.612,0.809,2.214,1.418c0.601,0.609,1.057,1.348,1.365,2.214c0.31,0.867,0.465,1.821,0.465,2.864
				c0,1.114-0.169,2.104-0.505,2.97s-0.812,1.601-1.432,2.201s-1.357,1.057-2.215,1.366c-0.858,0.309-1.815,0.464-2.877,0.464
				c-1.113,0-2.107-0.168-2.982-0.504c-0.875-0.335-1.612-0.81-2.214-1.418c-0.602-0.61-1.057-1.349-1.366-2.214
				C374.75,504.698,374.595,503.744,374.595,502.7z M378.148,502.7c0,0.583,0.078,1.123,0.237,1.618s0.39,0.928,0.689,1.299
				c0.301,0.371,0.663,0.659,1.087,0.861c0.425,0.203,0.91,0.305,1.458,0.305c1.024,0,1.86-0.327,2.506-0.981
				c0.646-0.653,0.968-1.688,0.968-3.103c0-1.22-0.301-2.205-0.9-2.957c-0.602-0.751-1.458-1.127-2.572-1.127
				c-0.494,0-0.954,0.076-1.378,0.226c-0.425,0.15-0.792,0.395-1.102,0.729c-0.31,0.336-0.553,0.76-0.729,1.272
				C378.237,501.356,378.148,501.976,378.148,502.7z"/>
			<path fill="#FFD829" d="M390.61,506.413h3.288v-7.424h-3.288v-2.917h5.966l0.396,1.75h0.106c0.494-0.583,1.061-1.069,1.697-1.458
				c0.636-0.39,1.379-0.583,2.227-0.583c1.062,0,1.896,0.389,2.506,1.167c0.61,0.777,0.915,2.078,0.915,3.897h-3.103
				c0-0.636-0.093-1.101-0.278-1.392s-0.48-0.438-0.888-0.438c-0.708,0-1.277,0.178-1.711,0.53c-0.435,0.354-0.801,0.76-1.102,1.22
				v5.648h5.754v2.917H390.61V506.413z"/>
			<path fill="#FFD829" d="M405.485,490.769h5.62v10.58h0.797l4.349-5.276h4.057l-5.355,6.046l3.474,4.295h2.466v2.917h-4.295
				l-4.562-5.489h-0.928v5.489h-3.447v-15.645h-2.174L405.485,490.769L405.485,490.769z"/>
			<path fill="#FFD829" d="M435.553,507.924c-0.229,0.212-0.525,0.42-0.889,0.623c-0.362,0.204-0.786,0.395-1.272,0.57
				c-0.485,0.176-1.021,0.317-1.604,0.424s-1.202,0.159-1.855,0.159c-1.132,0-2.144-0.159-3.036-0.478
				c-0.893-0.317-1.647-0.781-2.268-1.392c-0.618-0.61-1.091-1.343-1.418-2.201c-0.327-0.857-0.49-1.834-0.49-2.93
				c0-1.167,0.187-2.188,0.558-3.062s0.879-1.604,1.523-2.188c0.646-0.584,1.4-1.021,2.268-1.312
				c0.866-0.291,1.804-0.438,2.812-0.438c0.671,0,1.365,0.089,2.081,0.265c0.716,0.177,1.374,0.482,1.976,0.915
				c0.602,0.434,1.092,1.012,1.473,1.736c0.38,0.725,0.568,1.644,0.568,2.758c0,0.76-0.088,1.582-0.265,2.466h-9.546
				c0.018,0.566,0.137,1.043,0.358,1.433c0.221,0.389,0.513,0.707,0.875,0.954c0.361,0.248,0.776,0.43,1.245,0.544
				s0.969,0.172,1.498,0.172c1.062,0,1.932-0.124,2.611-0.372c0.681-0.247,1.233-0.547,1.657-0.901L435.553,507.924z
				 M429.825,498.458c-0.46,0-0.894,0.063-1.299,0.189c-0.407,0.126-0.773,0.311-1.102,0.554s-0.597,0.545-0.809,0.905
				c-0.212,0.359-0.336,0.766-0.371,1.215h6.521c0-0.882-0.242-1.58-0.729-2.094C431.552,498.715,430.815,498.458,429.825,498.458z"
				/>
			<path fill="#FFD829" d="M445.416,490.769h5.542v11.455c0,1.326,0.07,2.635,0.212,3.925c0,0.088,0.009,0.177,0.026,0.265h1.696
				v2.917h-4.269l-0.345-1.697h-0.106c-0.177,0.318-0.415,0.602-0.716,0.849s-0.637,0.464-1.008,0.649
				c-0.371,0.187-0.777,0.327-1.221,0.424c-0.44,0.098-0.884,0.146-1.324,0.146c-0.831,0-1.613-0.132-2.348-0.397
				c-0.733-0.265-1.375-0.676-1.923-1.232c-0.548-0.558-0.979-1.265-1.299-2.122c-0.318-0.857-0.478-1.869-0.478-3.036
				c0-1.131,0.173-2.139,0.518-3.023c0.345-0.884,0.821-1.631,1.432-2.24c0.609-0.61,1.33-1.078,2.161-1.405
				c0.83-0.327,1.74-0.49,2.73-0.49c0.548,0,1.064,0.031,1.552,0.093c0.485,0.062,0.905,0.164,1.259,0.306v-2.467h-2.095v-2.917
				H445.416z M444.7,506.784c0.672,0,1.269-0.163,1.79-0.491c0.521-0.327,0.86-0.799,1.021-1.418v-5.621
				c-0.247-0.194-0.588-0.34-1.021-0.438c-0.435-0.098-0.89-0.146-1.365-0.146c-0.478,0-0.941,0.08-1.393,0.239
				c-0.45,0.159-0.85,0.411-1.193,0.755c-0.345,0.345-0.618,0.792-0.821,1.339c-0.204,0.548-0.305,1.22-0.305,2.015
				c0,1.132,0.282,2.042,0.848,2.731C442.827,506.438,443.64,506.784,444.7,506.784z"/>
			<path fill="#FFD829" d="M471.004,509.329v-2.917h3.129v-7.424h-3.154v-2.917h3.154v-0.742c0-0.831,0.146-1.547,0.438-2.148
				c0.291-0.601,0.676-1.096,1.152-1.484c0.478-0.39,1.029-0.677,1.657-0.862c0.627-0.186,1.276-0.278,1.948-0.278
				c1.22,0,2.223,0.103,3.01,0.306c0.786,0.203,1.438,0.455,1.949,0.755l-1.008,2.625c-0.407-0.194-0.845-0.371-1.312-0.53
				c-0.469-0.159-1.073-0.238-1.815-0.238c-0.954,0-1.622,0.217-2.002,0.649c-0.381,0.434-0.57,1.083-0.57,1.949h5.568v2.917h-5.568
				v7.424h5.595v2.917H471.004L471.004,509.329z"/>
			<path fill="#FFD829" d="M485.957,502.7c0-1.114,0.168-2.104,0.504-2.97c0.336-0.866,0.813-1.601,1.432-2.201
				c0.619-0.602,1.356-1.057,2.216-1.366c0.855-0.309,1.814-0.464,2.876-0.464c1.113,0,2.107,0.168,2.982,0.504
				s1.613,0.809,2.214,1.418c0.602,0.609,1.058,1.348,1.366,2.214c0.309,0.867,0.464,1.821,0.464,2.864
				c0,1.114-0.169,2.104-0.504,2.97c-0.336,0.866-0.812,1.601-1.432,2.201s-1.357,1.057-2.215,1.366
				c-0.858,0.309-1.815,0.464-2.877,0.464c-1.113,0-2.107-0.168-2.982-0.504c-0.875-0.335-1.613-0.81-2.214-1.418
				c-0.603-0.61-1.057-1.349-1.366-2.214C486.112,504.698,485.957,503.744,485.957,502.7z M489.511,502.7
				c0,0.583,0.079,1.123,0.238,1.618s0.389,0.928,0.688,1.299c0.302,0.371,0.663,0.659,1.088,0.861
				c0.425,0.203,0.909,0.305,1.458,0.305c1.024,0,1.859-0.327,2.506-0.981c0.646-0.653,0.968-1.688,0.968-3.103
				c0-1.22-0.301-2.205-0.901-2.957c-0.601-0.751-1.458-1.127-2.571-1.127c-0.494,0-0.954,0.076-1.378,0.226
				c-0.426,0.15-0.792,0.395-1.102,0.729c-0.31,0.336-0.553,0.76-0.729,1.272C489.6,501.356,489.511,501.976,489.511,502.7z"/>
			<path fill="#FFD829" d="M501.973,506.413h3.288v-7.424h-3.288v-2.917h5.967l0.396,1.75h0.106
				c0.493-0.583,1.061-1.069,1.696-1.458c0.637-0.39,1.379-0.583,2.228-0.583c1.061,0,1.896,0.389,2.506,1.167
				c0.61,0.777,0.915,2.078,0.915,3.897h-3.104c0-0.636-0.093-1.101-0.277-1.392c-0.186-0.291-0.481-0.438-0.889-0.438
				c-0.708,0-1.276,0.178-1.711,0.53c-0.434,0.354-0.8,0.76-1.101,1.22v5.648h5.754v2.917h-12.488L501.973,506.413L501.973,506.413z
				"/>
			<path fill="#FFD829" d="M537.662,498.352h-0.133l0.158,2.201v8.776h-3.446v-18.562h3.183l6.416,11.35h0.133l-0.237-2.229v-9.121
				h3.445v18.562h-3.182L537.662,498.352z"/>
			<path fill="#FFD829" d="M559.271,505.219h-5.543l-1.271,4.11h-3.633l5.992-18.562h3.633l5.966,18.562h-3.818L559.271,505.219z
				 M554.578,502.303h3.978l-1.883-6.205h-0.239L554.578,502.303z"/>
			<path fill="#FFD829" d="M566.298,503.257h2.917v2.625c0.053,0.019,0.105,0.036,0.158,0.053c0.407,0.178,0.854,0.323,1.34,0.438
				c0.485,0.115,1.003,0.172,1.551,0.172c0.989,0,1.76-0.199,2.308-0.597s0.821-0.933,0.821-1.604c0-0.601-0.226-1.087-0.676-1.458
				c-0.451-0.371-1.008-0.698-1.671-0.98c-0.663-0.283-1.388-0.565-2.174-0.85c-0.787-0.281-1.512-0.64-2.175-1.073
				s-1.221-0.978-1.67-1.632c-0.451-0.652-0.678-1.502-0.678-2.545c0-0.795,0.154-1.523,0.465-2.188
				c0.31-0.663,0.742-1.233,1.3-1.71c0.557-0.479,1.224-0.85,2.002-1.114c0.776-0.265,1.644-0.398,2.599-0.398
				c1.077,0,2.139,0.099,3.183,0.292c1.043,0.195,1.872,0.461,2.491,0.796v5.382h-2.917v-2.943c-0.053,0-0.104-0.009-0.158-0.027
				c-0.39-0.105-0.81-0.188-1.26-0.251c-0.45-0.062-0.896-0.093-1.339-0.093c-0.849,0-1.517,0.168-2.002,0.503
				c-0.486,0.336-0.729,0.787-0.729,1.354c0,0.583,0.226,1.061,0.676,1.432c0.451,0.371,1.008,0.708,1.671,1.008
				c0.663,0.302,1.388,0.602,2.174,0.901c0.787,0.301,1.513,0.667,2.175,1.101c0.663,0.435,1.221,0.978,1.67,1.63
				c0.451,0.654,0.678,1.477,0.678,2.467c0,0.955-0.178,1.79-0.53,2.506c-0.354,0.716-0.849,1.316-1.485,1.803
				c-0.636,0.486-1.388,0.848-2.254,1.087s-1.803,0.358-2.811,0.358c-0.672,0-1.295-0.053-1.869-0.159s-1.104-0.238-1.591-0.397
				c-0.487-0.158-0.915-0.326-1.286-0.504c-0.371-0.176-0.672-0.326-0.901-0.45v-4.932H566.298z"/>
			<path fill="#FFD829" d="M591.09,505.219h-5.542l-1.271,4.11h-3.634l5.992-18.562h3.633l5.967,18.562h-3.818L591.09,505.219z
				 M586.396,502.303h3.978l-1.883-6.205h-0.239L586.396,502.303z"/>
		</g>
		<g>
			<g>
				<path fill="#FFFFFF" d="M653.068,408.641H419.971V368.92h233.099L653.068,408.641L653.068,408.641z M423.971,404.641h225.099
					V372.92H423.971V404.641z"/>
			</g>
			<g>
				<path fill="#FFFFFF" d="M445.6,463.227h-57.98v-39.72h57.98V463.227z M391.618,459.227H441.6v-31.72h-49.98L391.618,459.227
					L391.618,459.227z"/>
			</g>
			<g>
				<path fill="#FFFFFF" d="M534.035,354.056H405.608v-39.721h128.427V354.056L534.035,354.056z M409.608,350.056h120.427v-31.721
					H409.608V350.056z"/>
			</g>
			<g>
				<path fill="#FFFFFF" d="M748.373,463.227H591.046v-39.719h157.327V463.227L748.373,463.227z M595.046,459.227h149.327v-31.719
					H595.046V459.227z"/>
			</g>
			<g>
				<path fill="#FFD829" d="M330.846,332.574h-0.133l0.159,2.201v8.776h-3.447V324.99h3.184l6.416,11.349h0.133l-0.238-2.228v-9.121
					h3.446v18.561h-3.183L330.846,332.574z"/>
				<path fill="#FFD829" d="M344.236,331.196c0.706-0.318,1.523-0.592,2.451-0.822c0.929-0.229,2.028-0.345,3.303-0.345
					c0.919,0,1.701,0.111,2.346,0.332c0.646,0.221,1.167,0.535,1.564,0.941c0.397,0.407,0.686,0.894,0.861,1.458
					c0.176,0.565,0.266,1.202,0.266,1.909c0,0.902-0.03,1.671-0.094,2.307c-0.062,0.636-0.093,1.202-0.093,1.697
					c0,0.371,0.019,0.787,0.054,1.246c0.035,0.248,0.062,0.487,0.079,0.716h1.725v2.917h-4.451l-0.349-1.803h-0.132
					c-0.352,0.548-0.853,1.021-1.503,1.419c-0.648,0.397-1.527,0.596-2.635,0.596c-1.316,0-2.363-0.353-3.136-1.061
					c-0.773-0.707-1.16-1.644-1.16-2.811c0-0.742,0.137-1.383,0.408-1.922c0.271-0.539,0.668-0.981,1.187-1.326
					s1.142-0.601,1.87-0.769c0.729-0.167,1.541-0.252,2.438-0.252c0.315,0,0.649,0.018,1.002,0.053
					c0.352,0.036,0.78,0.071,1.291,0.106c0.034-0.176,0.053-0.354,0.053-0.53v-0.504c0-0.671-0.193-1.153-0.579-1.445
					c-0.387-0.292-0.957-0.438-1.712-0.438c-0.896,0-1.702,0.115-2.422,0.345s-1.324,0.46-1.816,0.689L344.236,331.196z
					 M348.749,340.927c0.839,0,1.468-0.155,1.888-0.464c0.419-0.309,0.727-0.641,0.918-0.995v-1.591
					c-0.176-0.035-0.438-0.075-0.787-0.119s-0.726-0.066-1.128-0.066c-0.332,0-0.664,0.031-0.995,0.093
					c-0.332,0.062-0.63,0.159-0.892,0.292c-0.263,0.133-0.473,0.305-0.63,0.517c-0.157,0.212-0.235,0.469-0.235,0.77
					c0,0.495,0.145,0.879,0.434,1.153C347.608,340.79,348.084,340.927,348.749,340.927z"/>
				<path fill="#FFD829" d="M364.148,343.552v-8.114c0-0.53-0.036-0.958-0.106-1.286c-0.071-0.327-0.164-0.583-0.278-0.769
					s-0.257-0.309-0.425-0.372c-0.168-0.062-0.34-0.093-0.517-0.093c-0.301,0-0.579,0.098-0.835,0.292
					c-0.257,0.195-0.43,0.442-0.519,0.742v9.599h-3.182v-13.258h2.519l0.372,1.458h0.079c0.267-0.513,0.653-0.932,1.167-1.259
					c0.512-0.327,1.113-0.491,1.803-0.491c0.584,0,1.142,0.142,1.672,0.424c0.529,0.282,0.892,0.778,1.087,1.485
					c0.265-0.619,0.671-1.091,1.22-1.418c0.548-0.327,1.14-0.491,1.776-0.491c0.478,0,0.904,0.066,1.286,0.199
					c0.38,0.133,0.711,0.367,0.993,0.703c0.282,0.336,0.499,0.792,0.649,1.366c0.15,0.575,0.226,1.312,0.226,2.214v9.068h-3.182
					v-8.485c0-0.795-0.129-1.353-0.385-1.67c-0.257-0.318-0.57-0.478-0.941-0.478c-0.317,0-0.592,0.076-0.822,0.226
					c-0.229,0.15-0.389,0.394-0.477,0.729v9.678L364.148,343.552L364.148,343.552z"/>
				<path fill="#FFD829" d="M387.826,342.146c-0.229,0.212-0.526,0.42-0.889,0.623c-0.362,0.204-0.786,0.394-1.272,0.57
					c-0.486,0.176-1.021,0.318-1.604,0.424s-1.201,0.159-1.854,0.159c-1.132,0-2.145-0.159-3.036-0.477
					c-0.893-0.318-1.648-0.782-2.268-1.392c-0.618-0.61-1.092-1.343-1.418-2.201c-0.327-0.858-0.49-1.834-0.49-2.93
					c0-1.167,0.186-2.188,0.557-3.062s0.879-1.604,1.524-2.188c0.645-0.584,1.399-1.021,2.267-1.312s1.804-0.438,2.812-0.438
					c0.671,0,1.364,0.089,2.081,0.265c0.716,0.177,1.374,0.482,1.976,0.915s1.091,1.012,1.472,1.736
					c0.38,0.725,0.569,1.644,0.569,2.758c0,0.76-0.088,1.582-0.265,2.466h-9.546c0.018,0.566,0.137,1.043,0.357,1.432
					c0.221,0.389,0.513,0.707,0.875,0.955s0.777,0.429,1.246,0.543c0.468,0.115,0.968,0.172,1.498,0.172
					c1.061,0,1.931-0.124,2.611-0.372c0.681-0.247,1.232-0.547,1.656-0.901L387.826,342.146z M382.099,332.681
					c-0.46,0-0.893,0.063-1.299,0.189c-0.407,0.126-0.772,0.311-1.101,0.554c-0.328,0.243-0.598,0.545-0.81,0.905
					c-0.212,0.36-0.336,0.766-0.371,1.215h6.522c0-0.882-0.243-1.58-0.729-2.093C383.826,332.938,383.089,332.681,382.099,332.681z"
					/>
			</g>
			<g>
				<path fill="#FFD829" d="M336.547,448.613h-5.542l-1.271,4.109H326.1l5.992-18.561h3.633l5.967,18.561h-3.818L336.547,448.613z
					 M331.854,445.696h3.979l-1.883-6.205h-0.239L331.854,445.696z"/>
				<path fill="#FFD829" d="M355.902,452.723c0,0.955-0.163,1.785-0.49,2.493c-0.327,0.707-0.778,1.294-1.354,1.763
					c-0.573,0.469-1.255,0.812-2.041,1.034s-1.647,0.331-2.586,0.331c-0.636,0-1.231-0.049-1.789-0.146
					c-0.558-0.099-1.069-0.227-1.537-0.386c-0.47-0.158-0.881-0.331-1.233-0.517c-0.353-0.185-0.636-0.367-0.849-0.543l1.325-2.438
					c0.425,0.282,0.934,0.552,1.524,0.809s1.339,0.385,2.241,0.385c1.112,0,1.962-0.256,2.545-0.769
					c0.583-0.514,0.875-1.246,0.875-2.201v-0.849h-0.105c-0.317,0.424-0.787,0.737-1.405,0.94s-1.334,0.305-2.147,0.305
					c-0.849,0-1.631-0.132-2.347-0.396s-1.339-0.667-1.869-1.207c-0.53-0.539-0.941-1.224-1.232-2.055
					c-0.292-0.831-0.438-1.804-0.438-2.917c0-1.167,0.172-2.201,0.517-3.103s0.831-1.657,1.458-2.267
					c0.628-0.61,1.379-1.069,2.254-1.379s1.853-0.464,2.931-0.464c0.565,0,1.132,0.021,1.696,0.065
					c0.565,0.044,1.102,0.103,1.604,0.172c0.504,0.071,0.968,0.155,1.392,0.252c0.425,0.099,0.778,0.199,1.062,0.306
					L355.902,452.723L355.902,452.723z M349.539,450.177c0.672,0,1.276-0.149,1.816-0.451c0.539-0.3,0.904-0.751,1.101-1.353v-5.966
					c-0.248-0.106-0.597-0.19-1.048-0.252c-0.45-0.062-0.88-0.093-1.286-0.093c-0.495,0-0.959,0.079-1.392,0.238
					c-0.435,0.159-0.813,0.411-1.142,0.755c-0.327,0.346-0.583,0.778-0.769,1.3c-0.187,0.521-0.278,1.145-0.278,1.869
					c0,0.637,0.079,1.202,0.238,1.697s0.38,0.911,0.663,1.246c0.281,0.336,0.601,0.588,0.953,0.756
					C348.75,450.092,349.132,450.177,349.539,450.177z"/>
				<path fill="#FFD829" d="M371.917,451.317c-0.229,0.212-0.526,0.42-0.889,0.623s-0.786,0.394-1.272,0.569
					s-1.021,0.318-1.604,0.424c-0.583,0.106-1.202,0.159-1.855,0.159c-1.132,0-2.144-0.159-3.036-0.477
					c-0.893-0.318-1.647-0.782-2.268-1.393c-0.618-0.609-1.091-1.343-1.418-2.2c-0.327-0.858-0.49-1.834-0.49-2.931
					c0-1.167,0.187-2.188,0.557-3.062c0.371-0.874,0.88-1.604,1.524-2.188s1.4-1.021,2.267-1.312
					c0.867-0.291,1.805-0.438,2.812-0.438c0.671,0,1.365,0.089,2.081,0.266s1.374,0.481,1.976,0.915
					c0.602,0.433,1.091,1.012,1.472,1.735c0.381,0.726,0.569,1.645,0.569,2.758c0,0.761-0.088,1.582-0.265,2.467h-9.546
					c0.018,0.565,0.137,1.043,0.357,1.432c0.222,0.389,0.514,0.707,0.875,0.955c0.362,0.248,0.777,0.429,1.246,0.543
					c0.468,0.115,0.968,0.172,1.498,0.172c1.062,0,1.931-0.124,2.611-0.372c0.681-0.247,1.232-0.547,1.657-0.9L371.917,451.317z
					 M366.189,441.852c-0.461,0-0.894,0.063-1.3,0.189s-0.772,0.311-1.101,0.554s-0.597,0.545-0.809,0.905
					c-0.213,0.36-0.337,0.766-0.371,1.215h6.521c0-0.882-0.243-1.58-0.729-2.093C367.916,442.109,367.18,441.852,366.189,441.852z"
					/>
			</g>
			<g>
				<path fill="#FFD829" d="M466.419,448.463h2.917v2.625c0.053,0.019,0.105,0.036,0.158,0.053c0.407,0.178,0.854,0.323,1.34,0.438
					c0.485,0.115,1.003,0.172,1.551,0.172c0.989,0,1.759-0.199,2.308-0.597c0.548-0.397,0.821-0.933,0.821-1.604
					c0-0.601-0.226-1.087-0.676-1.458c-0.451-0.371-1.008-0.698-1.671-0.98c-0.663-0.283-1.388-0.565-2.174-0.85
					c-0.787-0.281-1.513-0.64-2.175-1.073c-0.663-0.434-1.221-0.978-1.67-1.632c-0.451-0.652-0.678-1.502-0.678-2.545
					c0-0.795,0.154-1.523,0.464-2.188c0.311-0.663,0.743-1.233,1.301-1.71c0.557-0.479,1.224-0.85,2.002-1.114
					c0.776-0.265,1.644-0.398,2.599-0.398c1.077,0,2.139,0.099,3.182,0.292c1.043,0.195,1.873,0.46,2.492,0.796v5.382h-2.917v-2.943
					c-0.053,0-0.104-0.009-0.159-0.027c-0.389-0.105-0.809-0.188-1.259-0.251c-0.451-0.062-0.896-0.093-1.339-0.093
					c-0.849,0-1.517,0.168-2.002,0.503c-0.486,0.336-0.729,0.787-0.729,1.354c0,0.583,0.226,1.061,0.676,1.432
					c0.451,0.371,1.008,0.708,1.671,1.008c0.663,0.301,1.388,0.602,2.174,0.901c0.787,0.301,1.512,0.667,2.175,1.101
					c0.663,0.435,1.221,0.978,1.67,1.63c0.451,0.654,0.678,1.477,0.678,2.467c0,0.955-0.179,1.79-0.53,2.506
					c-0.354,0.716-0.85,1.316-1.485,1.803s-1.388,0.848-2.254,1.087s-1.803,0.358-2.811,0.358c-0.672,0-1.295-0.054-1.869-0.159
					c-0.574-0.106-1.104-0.238-1.591-0.397c-0.487-0.158-0.915-0.326-1.286-0.504c-0.371-0.176-0.672-0.327-0.901-0.45v-4.932
					H466.419z"/>
				<path fill="#FFD829" d="M480.604,441.277h4.509l0.396,1.591h0.106c0.919-1.309,2.402-1.962,4.454-1.962
					c0.812,0,1.56,0.128,2.239,0.385c0.681,0.257,1.265,0.659,1.75,1.206c0.486,0.548,0.862,1.238,1.127,2.068
					c0.267,0.831,0.398,1.829,0.398,2.995c0,1.132-0.15,2.152-0.451,3.062c-0.301,0.911-0.732,1.684-1.299,2.32
					c-0.566,0.636-1.256,1.123-2.068,1.458c-0.812,0.336-1.74,0.504-2.783,0.504c-0.549,0-1.088-0.04-1.617-0.119
					c-0.53-0.079-0.974-0.208-1.326-0.385v5.436h-3.447v-15.644h-1.988V441.277z M489.036,443.823c-0.672,0-1.286,0.168-1.843,0.504
					c-0.558,0.336-0.941,0.84-1.153,1.512v5.515c0.247,0.194,0.604,0.35,1.074,0.465c0.468,0.114,0.94,0.172,1.418,0.172
					c0.495,0,0.955-0.084,1.379-0.252c0.425-0.168,0.796-0.438,1.114-0.81c0.316-0.371,0.564-0.839,0.741-1.404
					c0.178-0.566,0.266-1.247,0.266-2.042c0-1.167-0.282-2.068-0.849-2.705C490.618,444.141,489.902,443.823,489.036,443.823z"/>
				<path fill="#FFD829" d="M510.672,453.13c-0.229,0.212-0.525,0.42-0.889,0.623c-0.362,0.204-0.786,0.395-1.272,0.57
					c-0.485,0.176-1.021,0.317-1.604,0.424c-0.583,0.105-1.202,0.159-1.855,0.159c-1.132,0-2.144-0.159-3.036-0.478
					c-0.893-0.317-1.647-0.781-2.268-1.392c-0.618-0.61-1.091-1.343-1.418-2.201c-0.327-0.857-0.49-1.834-0.49-2.93
					c0-1.167,0.187-2.188,0.557-3.062c0.371-0.874,0.88-1.604,1.524-2.188c0.646-0.584,1.4-1.021,2.267-1.312
					c0.867-0.291,1.805-0.438,2.812-0.438c0.671,0,1.365,0.089,2.081,0.265c0.716,0.177,1.374,0.482,1.976,0.915
					c0.602,0.434,1.092,1.012,1.473,1.736c0.38,0.725,0.568,1.644,0.568,2.758c0,0.76-0.088,1.582-0.265,2.466h-9.546
					c0.018,0.566,0.137,1.043,0.357,1.433c0.222,0.389,0.514,0.707,0.875,0.954c0.362,0.248,0.777,0.43,1.246,0.543
					c0.469,0.115,0.969,0.173,1.498,0.173c1.062,0,1.932-0.124,2.611-0.372c0.681-0.247,1.232-0.547,1.657-0.901L510.672,453.13z
					 M504.944,443.664c-0.46,0-0.894,0.062-1.3,0.188s-0.772,0.312-1.101,0.555s-0.597,0.545-0.809,0.904
					c-0.212,0.36-0.336,0.767-0.371,1.216h6.521c0-0.883-0.243-1.58-0.729-2.094C506.671,443.921,505.935,443.664,504.944,443.664z"
					/>
				<path fill="#FFD829" d="M526.899,453.262c-0.727,0.548-1.573,0.959-2.547,1.233c-0.972,0.272-1.987,0.411-3.049,0.411
					c-1.148,0-2.17-0.168-3.062-0.504c-0.894-0.335-1.646-0.81-2.254-1.418c-0.61-0.61-1.074-1.349-1.394-2.215
					c-0.316-0.865-0.477-1.819-0.477-2.863c0-1.114,0.186-2.104,0.557-2.971c0.371-0.865,0.888-1.6,1.551-2.2
					c0.663-0.602,1.445-1.057,2.348-1.366c0.9-0.31,1.883-0.464,2.942-0.464c0.99,0,1.918,0.114,2.784,0.345
					s1.528,0.451,1.988,0.663v4.667h-2.916v-2.439c-0.549-0.124-1.097-0.186-1.646-0.186c-0.495,0-0.984,0.075-1.472,0.226
					c-0.487,0.151-0.919,0.39-1.299,0.717c-0.381,0.326-0.689,0.737-0.928,1.232c-0.239,0.495-0.358,1.087-0.358,1.776
					c0,0.565,0.097,1.087,0.292,1.563c0.194,0.479,0.468,0.894,0.821,1.246c0.354,0.354,0.791,0.632,1.312,0.835
					c0.521,0.203,1.102,0.306,1.737,0.306c1.008,0,1.834-0.142,2.479-0.425c0.646-0.282,1.126-0.53,1.444-0.742L526.899,453.262z"/>
				<path fill="#FFD829" d="M529.896,451.619h4.666v-7.424h-4.666v-2.917h8.112v10.341h4.905v2.917h-13.02v-2.917H529.896z
					 M533.926,437.671c0-0.548,0.203-1.016,0.609-1.405c0.407-0.389,0.973-0.583,1.697-0.583c0.741,0,1.335,0.195,1.775,0.583
					c0.442,0.39,0.663,0.857,0.663,1.405c0,0.566-0.221,1.03-0.663,1.392c-0.44,0.362-1.034,0.544-1.775,0.544
					c-0.726,0-1.29-0.182-1.697-0.544C534.129,438.701,533.926,438.237,533.926,437.671z"/>
				<path fill="#FFD829" d="M546.627,442.179c0.706-0.317,1.524-0.592,2.452-0.821s2.028-0.346,3.302-0.346
					c0.919,0,1.701,0.111,2.346,0.332c0.646,0.222,1.168,0.535,1.564,0.941c0.398,0.407,0.686,0.893,0.862,1.458
					c0.176,0.564,0.265,1.202,0.265,1.909c0,0.901-0.03,1.671-0.093,2.307s-0.093,1.202-0.093,1.697
					c0,0.371,0.018,0.787,0.054,1.246c0.035,0.248,0.062,0.486,0.079,0.716h1.724v2.917h-4.451l-0.349-1.803h-0.131
					c-0.353,0.548-0.854,1.021-1.503,1.419c-0.649,0.396-1.528,0.596-2.635,0.596c-1.317,0-2.363-0.354-3.137-1.062
					c-0.772-0.707-1.159-1.644-1.159-2.811c0-0.742,0.137-1.383,0.407-1.922c0.272-0.539,0.668-0.981,1.188-1.326
					c0.518-0.345,1.141-0.601,1.87-0.769c0.729-0.167,1.541-0.252,2.437-0.252c0.316,0,0.65,0.018,1.002,0.053
					c0.353,0.036,0.781,0.071,1.291,0.105c0.034-0.176,0.054-0.354,0.054-0.529v-0.504c0-0.672-0.193-1.153-0.579-1.445
					c-0.388-0.292-0.957-0.438-1.712-0.438c-0.896,0-1.702,0.115-2.423,0.346c-0.72,0.229-1.323,0.46-1.815,0.688L546.627,442.179z
					 M551.14,451.91c0.839,0,1.469-0.155,1.889-0.464c0.419-0.31,0.726-0.642,0.918-0.995v-1.591
					c-0.177-0.035-0.438-0.075-0.787-0.119c-0.351-0.044-0.727-0.066-1.128-0.066c-0.332,0-0.664,0.031-0.996,0.093
					c-0.332,0.062-0.629,0.159-0.891,0.292c-0.264,0.134-0.474,0.306-0.631,0.518c-0.156,0.212-0.234,0.469-0.234,0.769
					c0,0.495,0.144,0.879,0.433,1.153C549.999,451.773,550.475,451.91,551.14,451.91z"/>
				<path fill="#FFD829" d="M562.455,435.975h5.646v12.25c0,1.361,0.168,2.308,0.505,2.838c0.336,0.529,0.875,0.795,1.617,0.795
					c0.548,0,0.998-0.058,1.353-0.173c0.354-0.114,0.707-0.277,1.061-0.489l1.3,2.386c-0.301,0.195-0.602,0.376-0.9,0.543
					c-0.301,0.168-0.619,0.31-0.955,0.424s-0.702,0.203-1.102,0.266c-0.396,0.062-0.844,0.093-1.339,0.093
					c-1.661,0-2.906-0.424-3.737-1.272s-1.246-2.05-1.246-3.605v-11.137h-2.201L562.455,435.975L562.455,435.975z"/>
			</g>
			<g>
				<path fill="#FFD829" d="M327.797,380.09h12.17v3.235h-8.538v4.322h7.875v3.235h-7.875v4.534h8.671v3.235h-12.303V380.09z"/>
				<path fill="#FFD829" d="M348.24,398.65v-8.114c0-0.53-0.036-0.958-0.106-1.286c-0.071-0.327-0.164-0.583-0.278-0.769
					s-0.257-0.309-0.425-0.372c-0.168-0.062-0.34-0.093-0.517-0.093c-0.301,0-0.579,0.098-0.835,0.292
					c-0.257,0.195-0.429,0.442-0.519,0.742v9.599h-3.182v-13.257h2.52l0.371,1.458h0.079c0.267-0.513,0.653-0.932,1.167-1.259
					c0.513-0.327,1.113-0.491,1.804-0.491c0.583,0,1.141,0.142,1.671,0.424c0.529,0.282,0.892,0.778,1.087,1.485
					c0.265-0.619,0.671-1.091,1.22-1.418c0.548-0.327,1.141-0.491,1.776-0.491c0.478,0,0.905,0.066,1.286,0.199
					c0.38,0.133,0.711,0.367,0.994,0.703c0.281,0.336,0.498,0.792,0.648,1.366c0.15,0.575,0.227,1.312,0.227,2.214v9.067h-3.183
					v-8.484c0-0.795-0.129-1.353-0.385-1.67c-0.257-0.318-0.57-0.478-0.941-0.478c-0.317,0-0.592,0.076-0.821,0.226
					c-0.229,0.15-0.39,0.394-0.478,0.729v9.679L348.24,398.65L348.24,398.65z"/>
				<path fill="#FFD829" d="M360.145,386.294c0.706-0.318,1.524-0.592,2.452-0.822c0.929-0.229,2.028-0.345,3.303-0.345
					c0.919,0,1.7,0.111,2.346,0.332c0.646,0.221,1.167,0.535,1.563,0.941c0.398,0.407,0.687,0.893,0.862,1.458
					s0.265,1.202,0.265,1.909c0,0.902-0.029,1.671-0.093,2.307c-0.062,0.636-0.093,1.202-0.093,1.697
					c0,0.371,0.018,0.787,0.054,1.246c0.035,0.248,0.062,0.487,0.079,0.716h1.725v2.917h-4.451l-0.35-1.804h-0.131
					c-0.352,0.548-0.853,1.021-1.503,1.419c-0.648,0.397-1.528,0.597-2.635,0.597c-1.317,0-2.363-0.354-3.136-1.062
					c-0.773-0.707-1.16-1.644-1.16-2.811c0-0.742,0.137-1.383,0.408-1.922c0.271-0.539,0.668-0.981,1.187-1.326
					c0.519-0.345,1.142-0.601,1.87-0.769c0.729-0.167,1.541-0.252,2.438-0.252c0.315,0,0.649,0.018,1.002,0.053
					c0.352,0.036,0.78,0.071,1.291,0.106c0.033-0.176,0.053-0.354,0.053-0.53v-0.504c0-0.671-0.193-1.153-0.579-1.445
					c-0.387-0.292-0.957-0.438-1.712-0.438c-0.896,0-1.702,0.115-2.422,0.345c-0.721,0.23-1.324,0.46-1.816,0.689L360.145,386.294z
					 M364.657,396.025c0.839,0,1.468-0.155,1.888-0.464c0.419-0.309,0.727-0.641,0.918-0.995v-1.591
					c-0.176-0.035-0.438-0.075-0.787-0.119s-0.726-0.066-1.128-0.066c-0.332,0-0.664,0.031-0.996,0.093
					c-0.332,0.062-0.629,0.159-0.891,0.292c-0.263,0.133-0.473,0.305-0.63,0.517s-0.235,0.469-0.235,0.769
					c0,0.495,0.145,0.879,0.434,1.153C363.517,395.889,363.992,396.025,364.657,396.025z"/>
				<path fill="#FFD829" d="M375.23,395.734h4.668v-7.424h-4.668v-2.917h8.113v10.341h4.905v2.917H375.23V395.734L375.23,395.734z
					 M379.262,381.787c0-0.548,0.203-1.016,0.609-1.405c0.407-0.389,0.973-0.583,1.697-0.583c0.741,0,1.335,0.195,1.775,0.583
					c0.442,0.389,0.663,0.857,0.663,1.405c0,0.566-0.221,1.03-0.663,1.392c-0.44,0.362-1.034,0.543-1.775,0.543
					c-0.726,0-1.29-0.181-1.697-0.543C379.465,382.816,379.262,382.353,379.262,381.787z"/>
				<path fill="#FFD829" d="M391.883,380.09h5.647v12.25c0,1.361,0.168,2.307,0.504,2.837c0.336,0.53,0.875,0.795,1.618,0.795
					c0.547,0,0.998-0.057,1.352-0.172c0.354-0.115,0.707-0.278,1.062-0.49l1.3,2.386c-0.301,0.194-0.603,0.376-0.901,0.543
					c-0.301,0.168-0.619,0.31-0.955,0.424s-0.702,0.203-1.101,0.265c-0.397,0.062-0.844,0.094-1.339,0.094
					c-1.661,0-2.907-0.425-3.738-1.272c-0.831-0.849-1.246-2.05-1.246-3.606v-11.136h-2.201L391.883,380.09L391.883,380.09z"/>
			</g>
		</g>
		<g>
			<rect x="325.938" y="286.134" fill="#FFD829" width="215.099" height="4"/>
		</g>
	</g>
	<g>
		<g>
			<path fill="#FFFFFF" d="M571.848,855.713c-4.737,0-8.578,3.841-8.578,8.579v21.146c0,4.738,3.841,8.579,8.578,8.579l0,0
				c4.738,0,8.578-3.841,8.578-8.579v-21.146C580.426,859.554,576.586,855.713,571.848,855.713L571.848,855.713z"/>
		</g>
		<g>
			<g>
				<path fill="#FFD829" d="M259.32,846.371l-125.988,7.098v44.364l125.988,7.096v0.002h0.002l0,0
					c11.164-0.002,20.863-6.251,25.803-15.439h68.896V861.81h-68.896c-4.939-9.188-14.639-15.438-25.803-15.438l0,0L259.32,846.371
					L259.32,846.371z"/>
				<path fill="#FFFFFF" d="M258.494,906.931l-0.048-0.048l-127.114-7.159v-48.146l127.988-7.207
					c11.132,0,21.358,5.885,26.974,15.438h69.728v31.682h-69.728c-5.614,9.553-15.84,15.438-26.972,15.439L258.494,906.931
					L258.494,906.931z M135.332,895.942l124.076,6.987c10.026-0.033,19.199-5.54,23.955-14.388l0.566-1.053h68.092v-23.68H283.93
					l-0.566-1.053c-4.761-8.856-13.947-14.365-23.985-14.386l-124.046,6.988L135.332,895.942L135.332,895.942z"/>
			</g>
			<g>
				<g>
					<path fill="#FFFFFF" d="M494.35,852.045c11.144,0,20.177,9.032,20.177,20.173v6.864c0,11.141-9.033,20.174-20.177,20.174
						H345.918c-11.141,0-20.172-9.033-20.172-20.174v-6.864c0-11.141,9.031-20.173,20.172-20.173H494.35z"/>
				</g>
				<g>
					<circle cx="494.596" cy="875.651" r="23.603"/>
				</g>
			</g>
		</g>
		<g>
			<g>
				<polygon fill="#FFD829" points="921.115,852.045 580.426,855.713 580.426,894.017 921.115,899.256 				"/>
				<path d="M921.115,901.256c-0.01,0-0.021,0-0.03,0l-340.69-5.239c-1.092-0.017-1.969-0.906-1.969-2v-38.304
					c0-1.096,0.883-1.988,1.979-2l340.688-3.668c0.008,0,0.016,0,0.021,0c0.525,0,1.031,0.208,1.406,0.578
					c0.38,0.376,0.594,0.888,0.594,1.422v47.211c0,0.536-0.215,1.049-0.598,1.425C922.145,901.05,921.64,901.256,921.115,901.256z
					 M582.426,892.047l336.689,5.178v-43.157l-336.689,3.625V892.047z"/>
			</g>
			<g>
				<circle fill="#FFD829" cx="923.998" cy="875.651" r="23.603"/>
				<path d="M923.998,901.254c-14.118,0-25.604-11.484-25.604-25.603s11.484-25.604,25.604-25.604
					c14.117,0,25.602,11.485,25.602,25.604C949.6,889.769,938.115,901.254,923.998,901.254z M923.998,854.048
					c-11.912,0-21.604,9.691-21.604,21.604s9.69,21.603,21.604,21.603c11.911,0,21.602-9.689,21.602-21.603
					S935.909,854.048,923.998,854.048z"/>
			</g>
		</g>
		<g>
			<path d="M624.445,805.183c14.348,0,25.979,11.632,25.979,25.979v88.979c0,14.349-11.631,25.979-25.979,25.979h-25.373
				c-14.349,0-25.98-11.631-25.98-25.979v-88.979c0-14.35,11.633-25.979,25.98-25.979H624.445z"/>
		</g>
	</g>
</g>
</svg>
