<svg xmlns="http://www.w3.org/2000/svg" viewBox="0 0 832 834"><path fill="#fff" d="M768.03 384.34H93.26v60.63h.04c1.17 98.57 151.74 178.28 337.34 178.28 185.6 0 336.17-79.71 337.34-178.28h.05v-60.63Z"/><path fill="#ffd829" d="M766.29 383.86c0 98.64-150.35 178.6-335.81 178.6-185.47 0-335.81-79.96-335.81-178.6 0-98.63 150.34-178.6 335.8-178.6 185.47 0 335.82 79.97 335.82 178.6Z"/><path fill="#fff" d="M430.48 564.47c-90.02 0-174.69-18.67-238.4-52.55-64.1-34.1-99.41-79.57-99.41-128.06 0-48.48 35.3-93.95 99.41-128.05 63.71-33.88 148.38-52.55 238.4-52.55 90.02 0 174.68 18.67 238.39 52.55 64.1 34.1 99.42 79.57 99.42 128.05 0 48.48-35.31 93.96-99.42 128.06-63.71 33.88-148.38 52.55-238.4 52.55Zm0-357.2c-184.07 0-333.81 79.22-333.81 176.6 0 97.37 149.74 176.6 333.8 176.6 184.07 0 333.82-79.23 333.82-176.6 0-97.38-149.75-176.6-333.81-176.6Z"/><path d="M702.2 438.23c1.8-51.1-11.09-115.98-52.49-149.28-26.38-21.22-24.5-54.38-37.79-82.25-13.49-28.3-46.66-45-76.86-46.16-38.65-1.47-58.28-7.8-77.4-40.96-51.92-90.08-190.94-107.83-260.85-24.3-38.02 45.41-37.87 114.75-37.87 170.75l1.69 172.2h541.56ZM118.88 619.97a37.78 37.78 0 0 0-32.34 18.23 20.95 20.95 0 0 0-28.46 19.56h98.6a37.8 37.8 0 0 0-37.8-37.8Zm57.12 2.85a19.1 19.1 0 0 1 38.2 0Zm547.15-33.62c-1.5 0-2.98.08-4.44.22a81.15 81.15 0 0 0-66.85-35.09 80.92 80.92 0 0 0-55.02 21.5 66.04 66.04 0 0 0-94.2 59.74h266.88a46.37 46.37 0 0 0-46.37-46.37Zm79.56-27.7a14.32 14.32 0 0 1 28.66 0Z"/><path fill="#fff" d="M503.27 41.32a6.85 6.85 0 1 1-13.7 0 6.85 6.85 0 0 1 13.7 0ZM14.33 70.86a6.85 6.85 0 1 1-13.7 0 6.85 6.85 0 0 1 13.7 0ZM182.85 7.73a6.85 6.85 0 1 1-13.7 0 6.85 6.85 0 0 1 13.7 0Zm573.8 176.74a6.85 6.85 0 1 1-13.7 0 6.85 6.85 0 0 1 13.7 0ZM618.47 65.53a2 2 0 0 1-2-2v-31.9a2 2 0 0 1 4 0v31.9a2 2 0 0 1-2 2Zm0 43.7a2 2 0 0 1-2-2v-31.9a2 2 0 0 1 4 0v31.9a2 2 0 0 1-2 2Zm37.79-37.8h-31.89a2 2 0 0 1 0-4h31.9a2 2 0 0 1 0 4Zm-43.7 0h-31.89a2 2 0 0 1 0-4h31.9a2 2 0 0 1 0 4ZM94.67 199.05a2 2 0 0 1-2-2v-20.8a2 2 0 0 1 4 0v20.8a2 2 0 0 1-2 2Zm0 28.5a2 2 0 0 1-2-2v-20.8a2 2 0 0 1 4 0v20.8a2 2 0 0 1-2 2Zm24.65-24.65h-20.8a2 2 0 0 1 0-4h20.8a2 2 0 0 1 0 4Zm-28.51 0h-20.8a2 2 0 0 1 0-4h20.8a2 2 0 0 1 0 4Zm458.01 201.79h-41v-39.73h41Zm-37-4h33v-31.73h-33Z"/><path fill="#ffd829" d="m218.94 144.3.2-4.38h-.24l-4.5 7.36h-.96l-4.7-7.36h-.2l.23 3.94v15.44h-5.22v-28.14h5.58l4.83 7.8h.16l4.78-7.8h5.55v28.14h-5.5Zm23.81 8.77h-8.4l-1.94 6.23h-5.5l9.08-28.14h5.5l9.05 28.14h-5.78Zm-7.12-4.42h6.03l-2.85-9.41h-.36Zm17.81-17.21a49.43 49.43 0 0 1 4.12-.52 63.5 63.5 0 0 1 3.92-.16c1.31 0 2.6.12 3.88.38 1.27.25 2.41.69 3.42 1.3a6.92 6.92 0 0 1 3.31 6.4c0 1.15-.11 2.15-.34 3a8.28 8.28 0 0 1-.94 2.22c-.4.65-.9 1.2-1.47 1.67-.58.47-1.2.9-1.87 1.27l6.8 12.3h-6.36l-5.67-11.02h-3.3v11.02h-5.5Zm8.44 4.22c-.56 0-1.12.02-1.67.04a6.3 6.3 0 0 0-1.26.16v8.16h2.17c1.53 0 2.77-.34 3.74-1.04.96-.7 1.44-1.85 1.44-3.46 0-1.2-.37-2.15-1.12-2.83-.75-.69-1.85-1.03-3.3-1.03Zm15.25 14.44h4.42v3.97l.24.08a10.45 10.45 0 0 0 4.38.93c1.5 0 2.67-.3 3.5-.9a2.85 2.85 0 0 0 1.25-2.44c0-.91-.35-1.65-1.03-2.21a10.3 10.3 0 0 0-2.53-1.49c-1-.42-2.1-.85-3.3-1.28a15.84 15.84 0 0 1-3.3-1.63 9.03 9.03 0 0 1-2.52-2.47 6.65 6.65 0 0 1-1.03-3.86 7.64 7.64 0 0 1 2.67-5.9 9.13 9.13 0 0 1 3.04-1.7c1.18-.4 2.5-.6 3.94-.6 1.63 0 3.24.14 4.82.44s2.84.7 3.78 1.2v8.16h-4.42v-4.46a.75.75 0 0 1-.24-.04 15.09 15.09 0 0 0-3.94-.52c-1.29 0-2.3.25-3.04.76a2.4 2.4 0 0 0-1.1 2.05c0 .89.34 1.61 1.02 2.18a11.3 11.3 0 0 0 2.54 1.52c1 .46 2.1.91 3.3 1.37 1.18.46 2.28 1.01 3.29 1.67 1 .65 1.85 1.48 2.53 2.47.69 1 1.03 2.24 1.03 3.74 0 1.44-.27 2.71-.81 3.8a7.66 7.66 0 0 1-2.25 2.73 9.9 9.9 0 0 1-3.42 1.65c-1.31.36-2.73.54-4.26.54a15.69 15.69 0 0 1-5.25-.84c-.73-.25-1.38-.5-1.94-.77-.57-.27-1.02-.5-1.37-.68Zm56.4 5.34c.88 0 1.69-.11 2.43-.34a5.75 5.75 0 0 0 1.89-.96c.52-.41.93-.9 1.23-1.44.29-.55.44-1.14.44-1.78 0-.8-.17-1.48-.5-2.02-.34-.55-.8-.98-1.4-1.3a6.68 6.68 0 0 0-2.12-.69c-.83-.13-1.73-.2-2.7-.2h-2.25v-2.88l6.76-8.25h-10.18v-4.42h16.4v3.66l-7.07 8.08h.93c.93 0 1.85.16 2.73.48a6.78 6.78 0 0 1 4 3.86c.41.96.62 2.07.62 3.33 0 1.53-.31 2.87-.94 4.02a9.19 9.19 0 0 1-2.5 2.92 10.66 10.66 0 0 1-3.55 1.77c-1.34.39-2.72.58-4.14.58-1.2 0-2.42-.1-3.62-.32-1.2-.22-2.37-.55-3.5-1l1.4-4.35c.25.14.58.27 1 .4a23.45 23.45 0 0 0 3 .73c.56.08 1.1.12 1.64.12Zm14.81-10.25c0-2.44.25-4.58.77-6.41a13.24 13.24 0 0 1 2.15-4.57 8.96 8.96 0 0 1 3.33-2.7c1.3-.61 2.73-.91 4.32-.91 3.4 0 6 1.18 7.83 3.55 1.83 2.38 2.74 6.05 2.74 11.04 0 2.47-.25 4.62-.77 6.45a13.43 13.43 0 0 1-2.15 4.58 8.84 8.84 0 0 1-3.35 2.74c-1.3.6-2.75.9-4.34.9-3.42 0-6.03-1.25-7.83-3.76-1.8-2.5-2.7-6.14-2.7-10.91Zm5.22 0a31.95 31.95 0 0 0 .08 2.25l9.73-8.97c-.8-2.3-2.3-3.45-4.5-3.45-1.7 0-3.01.82-3.93 2.47-.92 1.65-1.38 4.22-1.38 7.7Zm10.7 0a34.16 34.16 0 0 0-.08-2.37l-9.77 8.96c.82 2.44 2.32 3.66 4.5 3.66 1.7 0 3.02-.82 3.95-2.45.93-1.64 1.4-4.24 1.4-7.8Zm8.21 0a24 24 0 0 1 .77-6.41 13.2 13.2 0 0 1 2.16-4.57 8.96 8.96 0 0 1 3.33-2.7 9.98 9.98 0 0 1 4.32-.91c3.39 0 6 1.18 7.82 3.55 1.83 2.38 2.75 6.05 2.75 11.04 0 2.47-.26 4.62-.77 6.45a13.45 13.45 0 0 1-2.16 4.58 8.85 8.85 0 0 1-3.35 2.74c-1.3.6-2.75.9-4.34.9-3.41 0-6.02-1.25-7.82-3.76-1.8-2.5-2.7-6.14-2.7-10.91Zm5.23 0a31.95 31.95 0 0 0 .08 2.25l9.73-8.97c-.8-2.3-2.3-3.45-4.5-3.45-1.7 0-3.02.82-3.93 2.47-.92 1.65-1.38 4.22-1.38 7.7Zm10.7 0a34.16 34.16 0 0 0-.09-2.37l-9.77 8.96c.83 2.44 2.33 3.66 4.5 3.66 1.7 0 3.02-.82 3.95-2.45.94-1.64 1.4-4.24 1.4-7.8Zm8.2 0a24 24 0 0 1 .77-6.41 13.2 13.2 0 0 1 2.16-4.57 8.95 8.95 0 0 1 3.33-2.7c1.3-.61 2.73-.91 4.32-.91 3.39 0 6 1.18 7.83 3.55 1.82 2.38 2.74 6.05 2.74 11.04 0 2.47-.26 4.62-.77 6.45a13.47 13.47 0 0 1-2.16 4.58 8.84 8.84 0 0 1-3.34 2.74c-1.31.6-2.76.9-4.34.9-3.42 0-6.03-1.25-7.83-3.76-1.8-2.5-2.7-6.14-2.7-10.91Zm5.23 0a29.71 29.71 0 0 0 .09 2.25l9.72-8.97c-.8-2.3-2.3-3.45-4.5-3.45-1.7 0-3.01.82-3.93 2.47-.92 1.65-1.38 4.22-1.38 7.7Zm10.7 0a36.65 36.65 0 0 0-.08-2.37l-9.77 8.96c.82 2.44 2.32 3.66 4.5 3.66 1.7 0 3.02-.82 3.95-2.45.93-1.64 1.4-4.24 1.4-7.8ZM203.37 393.1h4.7V381h-4.7v-3.23h13.05V381h-4.72v12.1h4.72v3.23h-13.05Zm39.69-6.85 2 5.81h.12l.24-2.28 1.09-6.7h3.1l-2.68 13.25h-3.47l-1.48-5.25h-.14l-1.67 5.25h-3.58l-2.78-13.26h3.45l1.3 7.35.2 1.64h.14l1.96-5.8Zm7.54 3.45c0-1.11.16-2.1.5-2.97a6.07 6.07 0 0 1 3.65-3.57 8.6 8.6 0 0 1 2.87-.46c1.12 0 2.11.17 2.99.5a5.94 5.94 0 0 1 3.58 3.63c.3.87.46 1.83.46 2.87 0 1.11-.17 2.1-.5 2.97a6.07 6.07 0 0 1-3.65 3.57 8.7 8.7 0 0 1-2.88.46c-1.11 0-2.1-.17-2.98-.5a5.96 5.96 0 0 1-3.58-3.63 8.47 8.47 0 0 1-.47-2.87Zm3.55 0c0 .58.08 1.12.23 1.62a4 4 0 0 0 .7 1.3 3.1 3.1 0 0 0 2.54 1.16c1.02 0 1.86-.32 2.5-.98.65-.65.97-1.69.97-3.1 0-1.22-.3-2.2-.9-2.96a3.1 3.1 0 0 0-2.57-1.13c-.5 0-.95.08-1.38.23-.42.15-.79.4-1.1.73-.3.34-.55.76-.73 1.27a5.8 5.8 0 0 0-.26 1.86Zm12.46 3.71h3.29V386h-3.29v-2.92h5.97l.4 1.75h.1a7 7 0 0 1 1.7-1.46 4.17 4.17 0 0 1 2.22-.58 3 3 0 0 1 2.5 1.17c.62.78.92 2.08.92 3.9h-3.1c0-.64-.1-1.1-.28-1.4-.18-.29-.48-.44-.89-.44-.7 0-1.27.18-1.7.54-.44.35-.8.75-1.1 1.21v5.65h5.75v2.92h-12.5Zm14.88-15.64h5.62v10.58h.8l4.34-5.28h4.06l-5.36 6.05 3.48 4.3h2.46v2.91h-4.3l-4.55-5.49h-.93v5.5h-3.45v-15.65h-2.17Zm30.06 17.15c-.23.22-.52.42-.89.63a10 10 0 0 1-4.73 1.15 8.98 8.98 0 0 1-3.03-.48 6.08 6.08 0 0 1-2.27-1.39 6.1 6.1 0 0 1-1.42-2.2 8.18 8.18 0 0 1-.49-2.93c0-1.17.19-2.19.56-3.06a6.15 6.15 0 0 1 3.79-3.5 8.78 8.78 0 0 1 4.9-.18 5.7 5.7 0 0 1 1.97.92c.6.43 1.1 1.01 1.47 1.74.38.72.57 1.64.57 2.75 0 .76-.09 1.58-.27 2.47h-9.54a2.83 2.83 0 0 0 1.23 2.39c.36.24.78.43 1.25.54a7.72 7.72 0 0 0 4.1-.2 5.49 5.49 0 0 0 1.66-.9Zm-5.73-9.46c-.45 0-.89.06-1.3.19-.4.12-.77.3-1.1.55a3 3 0 0 0-.8.9c-.22.36-.34.77-.38 1.22h6.52c0-.88-.24-1.58-.72-2.1-.49-.5-1.23-.76-2.22-.76Zm15.6-7.69h5.54v11.45a35.86 35.86 0 0 0 .24 4.2h1.7v2.91h-4.28l-.34-1.7h-.1c-.19.32-.42.6-.72.85a5.34 5.34 0 0 1-3.56 1.22c-.83 0-1.61-.13-2.34-.4a5.1 5.1 0 0 1-1.93-1.23 5.94 5.94 0 0 1-1.3-2.12 8.72 8.72 0 0 1-.47-3.03c0-1.14.17-2.14.51-3.03a6.25 6.25 0 0 1 3.6-3.64 7.38 7.38 0 0 1 2.73-.5c.54 0 1.06.04 1.55.1.48.06.9.16 1.26.3v-2.46h-2.1v-2.92Zm-.72 16.01c.67 0 1.27-.16 1.79-.49.52-.32.86-.8 1.02-1.42v-5.62a2.53 2.53 0 0 0-1.02-.43 6.2 6.2 0 0 0-1.37-.15c-.47 0-.94.08-1.39.24-.45.16-.85.41-1.2.75-.34.35-.6.8-.81 1.34-.2.55-.3 1.22-.3 2.02 0 1.13.27 2.04.84 2.73a2.98 2.98 0 0 0 2.44 1.03Zm26.3 2.55v-2.92h3.13V386h-3.15v-2.92h3.15v-.74c0-.83.15-1.55.44-2.15a4.3 4.3 0 0 1 2.81-2.35 6.81 6.81 0 0 1 1.95-.27c1.22 0 2.22.1 3 .3.8.2 1.45.46 1.96.76l-1.01 2.62c-.4-.2-.85-.37-1.31-.53a5.76 5.76 0 0 0-1.82-.23c-.95 0-1.62.21-2 .64-.38.44-.57 1.09-.57 1.95h5.57V386h-5.57v7.42h5.6v2.92H347Zm14.96-6.63c0-1.11.17-2.1.5-2.97a6.08 6.08 0 0 1 3.65-3.57c.85-.3 1.81-.46 2.88-.46 1.1 0 2.1.17 2.98.5a5.93 5.93 0 0 1 3.58 3.63c.3.87.46 1.83.46 2.87 0 1.11-.17 2.1-.5 2.97a6.07 6.07 0 0 1-3.65 3.57c-.86.3-1.81.46-2.88.46-1.11 0-2.1-.17-2.98-.5a5.94 5.94 0 0 1-3.58-3.63 8.47 8.47 0 0 1-.46-2.87Zm3.55 0c0 .58.08 1.12.24 1.62a4 4 0 0 0 .69 1.3 3.11 3.11 0 0 0 2.54 1.16c1.03 0 1.86-.32 2.5-.98.65-.65.98-1.69.98-3.1 0-1.22-.3-2.2-.9-2.96a3.1 3.1 0 0 0-2.57-1.13c-.5 0-.96.08-1.38.23-.43.15-.8.4-1.1.73a3.5 3.5 0 0 0-.73 1.27 5.77 5.77 0 0 0-.27 1.86Zm12.46 3.71h3.3V386h-3.3v-2.92h5.97l.4 1.75h.1a7 7 0 0 1 1.7-1.46 4.18 4.18 0 0 1 2.23-.58c1.06 0 1.9.39 2.5 1.17.61.78.92 2.08.92 3.9h-3.1c0-.64-.1-1.1-.28-1.4-.19-.29-.49-.44-.9-.44-.7 0-1.27.18-1.7.54-.44.35-.8.75-1.1 1.21v5.65h5.75v2.92h-12.49Zm35.69-8.06h-.13l.16 2.2v8.78h-3.45v-18.56h3.18l6.42 11.35h.13l-.23-2.23v-9.12h3.44v18.56H420Zm21.61 6.87h-5.54l-1.27 4.1h-3.64l6-18.55h3.63l5.97 18.56h-3.82Zm-4.7-2.92h3.99l-1.89-6.2h-.24Zm11.73.96h2.91v2.62l.16.06c.41.17.86.32 1.34.43.49.12 1 .18 1.55.18 1 0 1.76-.2 2.31-.6.55-.4.82-.94.82-1.6 0-.6-.22-1.1-.67-1.46a6.51 6.51 0 0 0-1.67-.98 37 37 0 0 0-2.18-.85c-.79-.29-1.51-.64-2.17-1.08a5.97 5.97 0 0 1-1.67-1.63 4.39 4.39 0 0 1-.68-2.54 5.1 5.1 0 0 1 1.76-3.9 5.97 5.97 0 0 1 2-1.12 8.2 8.2 0 0 1 2.6-.4c1.08 0 2.14.1 3.19.3 1.04.2 1.87.46 2.49.8v5.38h-2.92v-2.95c-.05 0-.1 0-.16-.02a10.4 10.4 0 0 0-2.6-.35c-.84 0-1.51.17-2 .5-.48.34-.73.8-.73 1.36 0 .58.23 1.06.68 1.43.45.37 1 .7 1.67 1 .66.31 1.39.61 2.18.91.78.3 1.5.67 2.17 1.1.66.44 1.22.98 1.67 1.63.45.65.68 1.48.68 2.47a5.07 5.07 0 0 1-2.02 4.3c-.63.5-1.38.86-2.25 1.1a10.53 10.53 0 0 1-4.68.2 12.37 12.37 0 0 1-3.78-1.36v-4.93Zm24.79 1.96h-5.54l-1.27 4.1h-3.64l6-18.55h3.63l5.97 18.56h-3.82Zm-4.7-2.92h3.98l-1.88-6.2h-.24Z"/><path fill="#fff" d="M529.07 295.64h-233.1v-39.72h233.1Zm-229.1-4h225.1v-31.72h-225.1Zm21.63 58.59h-57.98V310.5h57.98Zm-53.98-4h49.98V314.5h-49.98Zm142.42-105.17H281.6v-39.72h128.43Zm-124.43-4h120.43v-31.72H285.6Zm338.76 113.17H467.05V310.5h157.32Zm-153.32-4h149.32V314.5H471.05Z"/><path fill="#ffd829" d="M206.85 219.57h-.14l.16 2.2v8.78h-3.44V212h3.18l6.41 11.35h.14l-.24-2.23V212h3.45v18.56h-3.19Zm13.39-1.37c.7-.32 1.52-.6 2.45-.83.93-.22 2.03-.34 3.3-.34.92 0 1.7.11 2.35.33a3.58 3.58 0 0 1 2.42 2.4c.18.56.27 1.2.27 1.9 0 .91-.03 1.68-.1 2.32a17.7 17.7 0 0 0-.04 2.94c.04.25.07.49.08.72h1.73v2.91h-4.45l-.35-1.8h-.13a4.6 4.6 0 0 1-1.5 1.42c-.66.4-1.53.6-2.64.6a4.47 4.47 0 0 1-3.14-1.07 3.63 3.63 0 0 1-1.16-2.8c0-.75.14-1.4.41-1.93.27-.54.67-.98 1.19-1.33.52-.34 1.14-.6 1.87-.76a10.93 10.93 0 0 1 3.44-.2l1.29.1c.03-.17.05-.35.05-.53v-.5c0-.67-.2-1.16-.58-1.45a2.82 2.82 0 0 0-1.71-.44c-.9 0-1.7.12-2.42.35-.72.23-1.33.46-1.82.69Zm4.5 9.73c.85 0 1.48-.16 1.9-.47.42-.3.72-.64.92-1v-1.58a12.12 12.12 0 0 0-1.92-.19c-.33 0-.66.03-1 .1a3.3 3.3 0 0 0-.89.29c-.26.13-.47.3-.63.51-.15.22-.23.47-.23.77 0 .5.14.88.43 1.16.29.27.76.4 1.43.4Zm15.41 2.62v-8.11c0-.53-.04-.96-.1-1.29a2.5 2.5 0 0 0-.29-.77.85.85 0 0 0-.42-.37 1.35 1.35 0 0 0-1.35.2c-.26.2-.43.44-.52.74v9.6h-3.18V217.3h2.52l.37 1.46h.08a3.25 3.25 0 0 1 2.97-1.75c.58 0 1.14.14 1.67.43.53.28.89.77 1.09 1.48.26-.62.67-1.1 1.22-1.42a3.4 3.4 0 0 1 1.77-.49c.48 0 .9.07 1.29.2.38.13.7.37.99.7.28.34.5.8.65 1.37.15.57.22 1.31.22 2.21v9.07h-3.18v-8.48c0-.8-.13-1.36-.38-1.67a1.17 1.17 0 0 0-.94-.48c-.32 0-.6.07-.82.22-.23.15-.4.4-.48.73v9.68Zm23.68-1.4a5 5 0 0 1-.9.62 9.93 9.93 0 0 1-4.73 1.15 9 9 0 0 1-3.03-.48 6.1 6.1 0 0 1-2.27-1.39 6.09 6.09 0 0 1-1.41-2.2 8.18 8.18 0 0 1-.5-2.93 8 8 0 0 1 .56-3.06 6.14 6.14 0 0 1 3.8-3.5 8.79 8.79 0 0 1 4.89-.17 5.7 5.7 0 0 1 1.97.91 4.9 4.9 0 0 1 1.47 1.74c.38.72.57 1.64.57 2.76 0 .76-.08 1.58-.26 2.46h-9.55a2.84 2.84 0 0 0 1.23 2.39c.37.25.78.43 1.25.54.47.12.97.17 1.5.17 1.06 0 1.93-.12 2.6-.37a5.48 5.48 0 0 0 1.67-.9Zm-5.73-9.47a4.21 4.21 0 0 0-2.4.74 2.85 2.85 0 0 0-1.18 2.12h6.52a2.9 2.9 0 0 0-.73-2.09c-.48-.51-1.22-.77-2.21-.77Zm-45.55 115.93H207l-1.27 4.11h-3.63l6-18.56h3.63l5.96 18.56h-3.82Zm-4.7-2.91h3.98l-1.88-6.2h-.24Zm24.05 7.02a5.9 5.9 0 0 1-.49 2.5c-.32.7-.78 1.29-1.35 1.76-.57.47-1.26.81-2.04 1.03a10.43 10.43 0 0 1-7.14-.72 4.96 4.96 0 0 1-.86-.54l1.33-2.44c.42.29.93.56 1.52.81.6.26 1.34.39 2.24.39 1.11 0 1.96-.26 2.55-.77.58-.51.87-1.25.87-2.2v-.85h-.1c-.32.42-.79.74-1.4.94-.63.2-1.34.3-2.15.3-.85 0-1.63-.13-2.35-.4a5.02 5.02 0 0 1-3.1-3.25 8.8 8.8 0 0 1-.44-2.92c0-1.17.17-2.2.52-3.1a6.2 6.2 0 0 1 1.46-2.27 6.12 6.12 0 0 1 2.25-1.38 8.74 8.74 0 0 1 2.93-.46 21.83 21.83 0 0 1 4.7.49c.42.1.77.2 1.05.3Zm-6.36-2.54c.67 0 1.28-.15 1.81-.45.54-.3.9-.75 1.1-1.36v-5.96c-.24-.1-.6-.2-1.04-.26a9.77 9.77 0 0 0-1.29-.09 4 4 0 0 0-1.39.24c-.44.16-.81.41-1.14.75-.33.35-.59.78-.77 1.3a5.55 5.55 0 0 0-.28 1.87c0 .64.08 1.2.24 1.7.16.5.38.91.66 1.25.28.33.6.58.96.75.35.17.73.26 1.14.26Zm22.38 1.14a5 5 0 0 1-.9.62 10.03 10.03 0 0 1-4.73 1.15 9 9 0 0 1-3.03-.47 6.1 6.1 0 0 1-2.27-1.4 6.1 6.1 0 0 1-1.42-2.2 8.18 8.18 0 0 1-.48-2.93c0-1.17.18-2.19.55-3.06a6.15 6.15 0 0 1 3.8-3.5 8.79 8.79 0 0 1 4.89-.17c.71.17 1.37.48 1.97.91a4.9 4.9 0 0 1 1.47 1.74c.38.72.57 1.64.57 2.75 0 .77-.09 1.59-.26 2.47h-9.55c.02.57.14 1.04.36 1.43.22.4.51.71.87.96.37.25.78.43 1.25.54.47.12.97.17 1.5.17 1.06 0 1.93-.12 2.6-.37a5.52 5.52 0 0 0 1.67-.9Zm-5.73-9.47a3.94 3.94 0 0 0-2.4.75 3 3 0 0 0-.81.9c-.21.36-.34.77-.37 1.21h6.52c0-.88-.24-1.57-.73-2.09-.48-.51-1.22-.77-2.21-.77Zm100.23 6.61h2.92v2.63l.15.05a6.71 6.71 0 0 0 2.9.61c.98 0 1.75-.2 2.3-.6.55-.4.82-.93.82-1.6 0-.6-.22-1.09-.67-1.46a6.81 6.81 0 0 0-1.67-.98 59.5 59.5 0 0 0-2.18-.85c-.78-.28-1.51-.64-2.17-1.07a5.98 5.98 0 0 1-1.67-1.63 4.39 4.39 0 0 1-.68-2.55 5.1 5.1 0 0 1 3.77-5.01 8.1 8.1 0 0 1 2.6-.4c1.07 0 2.14.1 3.18.3 1.04.19 1.87.45 2.49.79v5.38h-2.92v-2.94a3.48 3.48 0 0 0-4.76.13c-.48.34-.72.79-.72 1.35 0 .59.22 1.07.67 1.44.45.37 1 .7 1.67 1 .67.3 1.39.6 2.18.9.78.3 1.5.67 2.17 1.1a6.2 6.2 0 0 1 1.67 1.64c.45.65.68 1.47.68 2.46a5.09 5.09 0 0 1-2.01 4.3 6.5 6.5 0 0 1-2.26 1.1 10.53 10.53 0 0 1-4.68.2 12.37 12.37 0 0 1-3.78-1.35v-4.93Zm14.18-7.18h4.51l.4 1.59h.1c.92-1.31 2.4-1.96 4.46-1.96.81 0 1.56.12 2.24.38a4.5 4.5 0 0 1 1.75 1.2c.48.56.86 1.25 1.13 2.07.26.84.4 1.83.4 3 0 1.13-.16 2.15-.46 3.06a6.5 6.5 0 0 1-1.3 2.32 5.58 5.58 0 0 1-2.06 1.46c-.82.34-1.75.5-2.79.5-.55 0-1.09-.04-1.62-.11a4.3 4.3 0 0 1-1.32-.39v5.44h-3.45v-15.65h-1.99Zm8.44 2.54a3.5 3.5 0 0 0-1.85.5 2.6 2.6 0 0 0-1.15 1.52v5.51c.25.2.6.35 1.07.47.47.11.94.17 1.42.17.5 0 .96-.08 1.38-.25.43-.17.8-.44 1.11-.81.32-.37.57-.84.75-1.4a7.2 7.2 0 0 0 .26-2.05c0-1.16-.28-2.06-.85-2.7a2.75 2.75 0 0 0-2.14-.96Zm21.63 9.31c-.23.21-.52.42-.89.62a10 10 0 0 1-4.73 1.15 8.98 8.98 0 0 1-3.03-.47 6.08 6.08 0 0 1-2.27-1.4 6.1 6.1 0 0 1-1.42-2.2 8.18 8.18 0 0 1-.49-2.93c0-1.16.19-2.18.56-3.06a6.15 6.15 0 0 1 3.79-3.5 8.79 8.79 0 0 1 4.9-.17 5.7 5.7 0 0 1 1.97.91c.6.44 1.09 1.02 1.47 1.74.38.73.57 1.64.57 2.76 0 .76-.09 1.58-.27 2.47h-9.54a3 3 0 0 0 .35 1.43c.23.39.52.7.88.95s.78.43 1.25.55a7.72 7.72 0 0 0 4.1-.2 5.5 5.5 0 0 0 1.66-.9Zm-5.73-9.47a4.26 4.26 0 0 0-2.4.75c-.33.24-.6.54-.8.9a2.8 2.8 0 0 0-.38 1.22h6.52c0-.89-.24-1.58-.73-2.1-.48-.5-1.21-.77-2.2-.77Zm21.96 9.6a7.6 7.6 0 0 1-2.55 1.24c-.97.27-1.99.4-3.05.4a8.65 8.65 0 0 1-3.06-.5 6.05 6.05 0 0 1-3.65-3.63 8.29 8.29 0 0 1-.47-2.86c0-1.12.18-2.1.55-2.98a6.24 6.24 0 0 1 3.9-3.56c.9-.31 1.88-.47 2.94-.47a13.02 13.02 0 0 1 4.77 1v4.68h-2.91v-2.44a7.45 7.45 0 0 0-1.65-.19c-.5 0-.98.08-1.47.23a3.6 3.6 0 0 0-2.23 1.95c-.23.5-.35 1.09-.35 1.78 0 .56.1 1.08.29 1.56a3.7 3.7 0 0 0 2.13 2.08 6.2 6.2 0 0 0 4.22-.12 9.82 9.82 0 0 0 1.44-.74Zm3-1.64h4.66v-7.43h-4.66v-2.91h8.1v10.34h4.91v2.92H405.9v-2.92Zm4.03-13.95c0-.55.2-1.02.6-1.4.41-.4.98-.59 1.7-.59.74 0 1.34.2 1.78.59a1.8 1.8 0 0 1 0 2.8c-.44.36-1.04.54-1.78.54a2.5 2.5 0 0 1-1.7-.55c-.4-.36-.6-.82-.6-1.39Zm12.7 4.51a13.9 13.9 0 0 1 5.75-1.17c.92 0 1.7.11 2.35.33a3.57 3.57 0 0 1 2.43 2.4c.17.57.26 1.2.26 1.91 0 .9-.03 1.67-.1 2.3a17.39 17.39 0 0 0-.03 2.95c.03.25.06.49.07.72h1.73v2.92h-4.45l-.35-1.8h-.13a4.61 4.61 0 0 1-1.5 1.41c-.65.4-1.53.6-2.64.6a4.47 4.47 0 0 1-3.14-1.06 3.63 3.63 0 0 1-1.16-2.82c0-.74.14-1.38.41-1.92.27-.54.67-.98 1.19-1.32.52-.35 1.14-.6 1.87-.77a10.93 10.93 0 0 1 3.44-.2l1.29.1c.03-.17.05-.35.05-.53v-.5c0-.67-.19-1.15-.58-1.44-.38-.3-.95-.44-1.7-.44-.9 0-1.71.11-2.43.34-.72.23-1.32.46-1.82.7Zm4.51 9.73c.84 0 1.47-.16 1.89-.46.42-.31.73-.65.92-1v-1.59a12.23 12.23 0 0 0-1.92-.19c-.33 0-.66.04-1 .1a3.3 3.3 0 0 0-.88.29c-.27.13-.48.3-.64.52a1.3 1.3 0 0 0-.23.77c0 .5.14.88.43 1.15.29.27.77.41 1.43.41Zm11.31-15.93h5.65v12.25c0 1.36.17 2.3.5 2.83.34.53.88.8 1.62.8a4.35 4.35 0 0 0 2.42-.66l1.3 2.38c-.3.2-.6.38-.9.55a5.74 5.74 0 0 1-2.06.69c-.4.06-.84.09-1.34.09-1.66 0-2.9-.43-3.74-1.27-.83-.85-1.24-2.05-1.24-3.6v-11.15h-2.2ZM203.8 267.09h12.17v3.24h-8.54v4.32h7.87v3.23h-7.87v4.54h8.67v3.23h-12.3Zm20.44 18.56v-8.11c0-.53-.04-.96-.1-1.29a2.5 2.5 0 0 0-.28-.77.85.85 0 0 0-.43-.37 1.35 1.35 0 0 0-1.35.2c-.26.2-.43.44-.52.74v9.6h-3.18v-13.26h2.52l.37 1.46h.08a3.25 3.25 0 0 1 2.97-1.75c.58 0 1.14.14 1.67.42.53.29.9.78 1.09 1.49.26-.62.67-1.1 1.22-1.42a3.4 3.4 0 0 1 1.77-.49c.48 0 .9.07 1.29.2.38.13.71.37 1 .7.27.34.5.8.64 1.37.15.57.23 1.31.23 2.21v9.07h-3.19v-8.48c0-.8-.12-1.36-.38-1.68a1.17 1.17 0 0 0-.94-.47c-.32 0-.6.07-.82.22-.23.15-.4.4-.48.73v9.68Zm11.91-12.35c.7-.32 1.52-.6 2.45-.83a13.9 13.9 0 0 1 3.3-.34c.92 0 1.7.1 2.35.33a3.56 3.56 0 0 1 2.42 2.4c.18.56.27 1.2.27 1.9 0 .9-.03 1.68-.1 2.31a17.7 17.7 0 0 0-.04 2.95c.04.25.07.48.08.71h1.73v2.92h-4.45l-.35-1.8h-.13a4.6 4.6 0 0 1-1.5 1.41c-.66.4-1.53.6-2.64.6a4.47 4.47 0 0 1-3.14-1.06 3.63 3.63 0 0 1-1.16-2.81c0-.74.14-1.38.41-1.92.27-.54.67-.98 1.19-1.33.52-.34 1.14-.6 1.87-.77a10.93 10.93 0 0 1 3.44-.2c.35.04.78.07 1.29.1.03-.17.05-.35.05-.52v-.5c0-.68-.2-1.16-.58-1.45-.38-.3-.95-.44-1.71-.44-.9 0-1.7.12-2.42.35-.72.23-1.33.46-1.82.69Zm4.5 9.72a3.2 3.2 0 0 0 1.9-.46c.41-.3.72-.64.91-1v-1.58a12.12 12.12 0 0 0-1.91-.19c-.33 0-.67.03-1 .1a3.3 3.3 0 0 0-.89.29c-.26.13-.47.3-.63.51-.16.21-.23.47-.23.77 0 .5.14.88.43 1.15.29.28.76.41 1.43.41Zm10.58-.29h4.67v-7.42h-4.67v-2.92h8.11v10.34h4.9v2.92h-13.01Zm4.03-13.94c0-.55.2-1.02.61-1.4.4-.4.97-.6 1.7-.6.74 0 1.33.2 1.77.6.45.38.67.85.67 1.4a1.7 1.7 0 0 1-.67 1.39c-.44.36-1.03.54-1.77.54-.73 0-1.3-.18-1.7-.54a1.8 1.8 0 0 1-.6-1.4Zm12.62-1.7h5.65v12.25c0 1.36.17 2.3.5 2.84.34.53.88.8 1.62.8a4.24 4.24 0 0 0 2.42-.67l1.3 2.39-.9.54a5.74 5.74 0 0 1-2.06.69c-.4.06-.85.1-1.34.1-1.66 0-2.9-.43-3.74-1.28-.83-.85-1.24-2.05-1.24-3.6V270h-2.2Zm-65.94-93.96h215.1v4h-215.1Z"/><path fill="#fff" d="M447.85 742.71a8.58 8.58 0 0 0-8.58 8.58v21.15a8.58 8.58 0 1 0 17.16 0v-21.15a8.58 8.58 0 0 0-8.58-8.58Z"/><path fill="#ffd829" d="m135.32 733.37-125.99 7.1v44.36l125.99 7.1a29.28 29.28 0 0 0 25.8-15.44h68.9v-27.68h-68.9a29.27 29.27 0 0 0-25.8-15.44Z"/><path fill="#fff" d="m134.5 793.93-.05-.05-127.12-7.16v-48.14l127.99-7.2a31.26 31.26 0 0 1 26.97 15.43h69.73v31.68H162.3a31.25 31.25 0 0 1-26.97 15.44ZM11.32 782.94l124.08 6.99a27.27 27.27 0 0 0 23.95-14.39l.57-1.05h68.1V750.8h-68.1l-.57-1.05a27.27 27.27 0 0 0-23.98-14.4l-124.05 7Z"/><path fill="#fff" d="M370.35 739.04a20.17 20.17 0 0 1 20.18 20.18v6.86a20.18 20.18 0 0 1-20.18 20.18H221.92a20.17 20.17 0 0 1-20.17-20.18v-6.86a20.17 20.17 0 0 1 20.17-20.18Z"/><path d="M394.2 762.65a23.6 23.6 0 1 1-47.2 0 23.6 23.6 0 0 1 47.2 0Z"/><path fill="#ffd829" d="m797.12 739.04-340.7 3.67v38.3l340.7 5.25Z"/><path d="M797.12 788.26h-.03l-340.7-5.24a2 2 0 0 1-1.96-2v-38.3a2 2 0 0 1 1.97-2l340.7-3.68h.01a2 2 0 0 1 2 2v47.22a2 2 0 0 1-2 2Zm-338.7-9.21 336.7 5.18v-43.16l-336.7 3.62Z"/><path fill="#ffd829" d="M823.6 762.65a23.6 23.6 0 1 1-47.2 0 23.6 23.6 0 0 1 47.2 0Z"/><path d="M800 788.25a25.63 25.63 0 0 1-25.6-25.6 25.63 25.63 0 0 1 25.6-25.6 25.63 25.63 0 0 1 25.6 25.6 25.63 25.63 0 0 1-25.6 25.6Zm0-47.2a21.61 21.61 0 1 0 21.6 21.6c0-11.91-9.7-21.6-21.6-21.6Zm-299.56-48.87a25.98 25.98 0 0 1 25.98 25.98v88.98a25.98 25.98 0 0 1-25.97 25.98h-25.38a25.98 25.98 0 0 1-25.98-25.98v-88.98a25.98 25.98 0 0 1 25.98-25.98Z"/></svg>