<svg xmlns="http://www.w3.org/2000/svg" viewBox="0 0 1925 1050" xml:space="preserve"><path fill="#FFF" d="M1835.24 546.35c-20.58 0-30.98-6.82-41.04-13.41-9.88-6.48-19.21-12.6-38.3-12.6-19.1 0-28.43 6.12-38.3 12.6-10.07 6.59-20.47 13.4-41.05 13.4s-30.98-6.81-41.04-13.4c-9.88-6.48-19.21-12.6-38.3-12.6-19.1 0-28.42 6.12-38.3 12.6-10.06 6.59-20.46 13.4-41.04 13.4s-30.99-6.81-41.05-13.4c-9.88-6.48-19.2-12.6-38.3-12.6-19.09 0-28.42 6.12-38.3 12.6-10.06 6.59-20.46 13.4-41.04 13.4s-30.98-6.81-41.04-13.4c-9.88-6.48-19.21-12.6-38.3-12.6-19.1 0-28.42 6.12-38.3 12.6-10.06 6.59-20.46 13.4-41.04 13.4-20.59 0-30.99-6.81-41.04-13.4-9.88-6.48-19.22-12.6-38.3-12.6-19.1 0-28.42 6.12-38.3 12.6-10.06 6.59-20.46 13.4-41.04 13.4s-30.98-6.81-41.04-13.4c-9.88-6.48-19.21-12.6-38.3-12.6-19.09 0-28.42 6.12-38.3 12.6-10.06 6.59-20.46 13.4-41.04 13.4s-30.98-6.81-41.04-13.4c-9.88-6.48-19.21-12.6-38.3-12.6s-28.42 6.12-38.3 12.6c-10.06 6.59-20.46 13.4-41.04 13.4s-30.98-6.81-41.04-13.4c-9.88-6.48-19.21-12.6-38.3-12.6-19.09 0-28.42 6.12-38.3 12.6-10.06 6.59-20.46 13.4-41.04 13.4s-30.98-6.81-41.04-13.4c-9.88-6.48-19.21-12.6-38.3-12.6s-28.42 6.12-38.3 12.6c-10.06 6.59-20.46 13.4-41.04 13.4s-30.98-6.81-41.04-13.4c-9.88-6.48-19.21-12.6-38.3-12.6s-28.42 6.12-38.3 12.6c-10.06 6.59-20.46 13.4-41.04 13.4s-30.98-6.81-41.04-13.4c-9.88-6.48-19.21-12.6-38.3-12.6s-28.42 6.12-38.3 12.6c-10.05 6.59-20.45 13.4-41.04 13.4-20.58 0-30.98-6.81-41.04-13.4-9.88-6.48-19.2-12.6-38.3-12.6v-5c20.59 0 30.99 6.82 41.05 13.41 9.87 6.48 19.2 12.6 38.3 12.6 19.08 0 28.41-6.12 38.3-12.6 10.05-6.59 20.45-13.4 41.03-13.4s30.99 6.81 41.04 13.4c9.88 6.48 19.21 12.6 38.3 12.6 19.1 0 28.42-6.12 38.3-12.6 10.06-6.59 20.46-13.4 41.04-13.4s30.98 6.81 41.04 13.4c9.88 6.48 19.21 12.6 38.3 12.6 19.09 0 28.42-6.12 38.3-12.6 10.06-6.59 20.46-13.4 41.04-13.4s30.98 6.81 41.04 13.4c9.88 6.48 19.21 12.6 38.3 12.6 19.09 0 28.42-6.12 38.3-12.6 10.06-6.59 20.46-13.4 41.04-13.4s30.98 6.81 41.04 13.4c9.88 6.48 19.21 12.6 38.3 12.6s28.42-6.12 38.3-12.6c10.06-6.59 20.46-13.4 41.04-13.4s30.98 6.81 41.04 13.4c9.88 6.48 19.21 12.6 38.3 12.6s28.42-6.12 38.3-12.6c10.06-6.59 20.46-13.4 41.04-13.4s30.98 6.81 41.04 13.4c9.88 6.48 19.21 12.6 38.3 12.6 19.09 0 28.42-6.12 38.3-12.6 10.06-6.59 20.46-13.4 41.04-13.4s30.98 6.81 41.04 13.4c9.88 6.48 19.2 12.6 38.3 12.6s28.42-6.12 38.3-12.6c10.06-6.59 20.46-13.4 41.04-13.4s30.98 6.81 41.04 13.4c9.88 6.48 19.21 12.6 38.3 12.6 19.1 0 28.42-6.12 38.3-12.6 10.06-6.59 20.46-13.4 41.05-13.4s30.98 6.81 41.04 13.4c9.88 6.48 19.2 12.6 38.3 12.6 19.09 0 28.42-6.12 38.3-12.6 10.06-6.59 20.46-13.4 41.04-13.4s30.98 6.81 41.04 13.4c9.88 6.48 19.21 12.6 38.3 12.6 19.1 0 28.42-6.12 38.3-12.6 10.06-6.59 20.46-13.4 41.05-13.4s30.98 6.81 41.04 13.4c9.88 6.48 19.21 12.6 38.3 12.6s28.43-6.12 38.31-12.6c10.06-6.59 20.46-13.4 41.04-13.4v5c-19.09 0-28.42 6.11-38.3 12.59-10.06 6.59-20.46 13.4-41.05 13.4zm-967.61-156.5H482.19V192.8h385.44v197.06zm-380.44-5h375.44V197.8H487.19v187.06z"/><path fill="#FFF" d="M867.26 246.62H482.2V192.8h385.07v53.83zm-380.07-5h375.07V197.8H487.2v43.83zm380.07 147.99H482.2v-53.84h385.07v53.84zm-380.07-5h375.07v-43.84H487.2v43.84z"/><path fill="#FFF" d="M514.17 245.23h5v92.63h-5zm31.72 0h5v92.63h-5zm31.72 0h5v92.63h-5zm31.72 0h5v92.63h-5zm31.72 0h5v92.63h-5zm31.73 0h5v92.63h-5zm31.72 0h5v92.63h-5zm31.72 0h5v92.63h-5zm31.72 0h5v92.63h-5zm31.72 0h5v92.63h-5zm31.73 0h5v92.63h-5z"/><g fill="#FFF"><path d="M1248.22 389.85H862.78V192.8h385.44v197.06zm-380.44-5h375.44V197.8H867.78v187.06z"/><path d="M1247.86 246.62H862.78V192.8h385.08v53.83zm-380.08-5h375.08V197.8H867.78v43.83zm380.08 147.99H862.78v-53.84h385.08v53.84zm-380.08-5h375.08v-43.84H867.78v43.84z"/><path d="M894.76 245.23h5v92.63h-5zm31.72 0h5v92.63h-5zm31.72 0h5v92.63h-5zm31.73 0h5v92.63h-5zm31.72 0h5v92.63h-5zm31.72 0h5v92.63h-5zm31.72 0h5v92.63h-5zm31.72 0h5v92.63h-5zm31.73 0h5v92.63h-5zm31.72 0h5v92.63h-5zm31.72 0h5v92.63h-5z"/></g><g fill="#FFF"><path d="M1056.29 198.01H670.85V.95h385.44V198zm-380.44-5h375.44V5.95H675.85V193z"/><path d="M1055.92 54.78H670.85V.95h385.07v53.83zm-380.07-5h375.07V5.95H675.85v43.83zm380.07 147.99H670.85v-53.83h385.07v53.83zm-380.07-5h375.07v-43.83H675.85v43.83z"/><path d="M702.83 53.39h5v92.63h-5zm31.72 0h5v92.63h-5zm31.72 0h5v92.63h-5zm31.72 0h5v92.63h-5zm31.72 0h5v92.63h-5zm31.72 0h5v92.63h-5zm31.73 0h5v92.63h-5zm31.72 0h5v92.63h-5zm31.72 0h5v92.63h-5zm31.72 0h5v92.63h-5zm31.72 0h5v92.63h-5z"/></g><path d="M330.52 714.87h-49.57a75.18 75.18 0 0 1-75.18-75.18V451.72a68.16 68.16 0 0 1 68.16-68.17H405.7V639.7a75.18 75.18 0 0 1-75.18 75.18z"/><path fill="#41E847" d="M1520.94 231.04c37.7 16.04 82.98 8.72 113.74-22.04 40.42-40.42 40.42-105.97 0-146.4l-146.06 146.06-146.05-146.05c-40.43 40.43-40.43 105.97 0 146.4 30.55 30.54 75.44 37.98 113 22.35l1.33 50.76c0 61.7-46.04 103.57-103.04 104.08H289.03c-47.6 0-84.58 41.87-78.22 89.04 43.48 322.6 319.9 571.31 654.4 571.31 364.7 0 660.34-295.65 660.34-660.35l-4.61-155.16z"/><path d="M865.2 1049.05c-82.1 0-162.22-14.83-238.15-44.07a660.5 660.5 0 0 1-199.83-121.23C307.3 778.1 229.57 633.15 208.33 475.58a80.84 80.84 0 0 1 19.3-64 81.54 81.54 0 0 1 61.4-27.88h1064.83c27.43-.25 52.7-10.33 71.15-28.38 18.95-18.56 29.4-44.55 29.4-73.2l-1.25-47.12a105.67 105.67 0 0 1-112.36-24.23c-41.33-41.33-41.33-108.6 0-149.93a2.5 2.5 0 0 1 3.54 0l144.28 144.29 144.29-144.29c.94-.94 2.6-.94 3.54 0 20.02 20.02 31.05 46.65 31.05 74.97s-11.03 54.94-31.05 74.96a105.53 105.53 0 0 1-112.9 24.02l4.49 151.13.01.28c0 89.49-17.52 176.3-52.09 258.02a660.65 660.65 0 0 1-142.05 210.69 660.65 660.65 0 0 1-210.7 142.05c-81.71 34.57-168.52 52.1-258 52.1zM289.04 388.7a76.54 76.54 0 0 0-57.63 26.17 75.84 75.84 0 0 0-18.11 60.04c21.07 156.37 98.22 300.23 217.23 405.08a655.54 655.54 0 0 0 198.33 120.33c75.35 29.02 154.88 43.73 236.36 43.73 88.8 0 174.96-17.4 256.06-51.7a655.66 655.66 0 0 0 209.1-140.98 655.64 655.64 0 0 0 140.99-209.1c34.27-81.04 51.67-167.12 51.7-255.86l-.02-.13-4.6-155.17a2.5 2.5 0 0 1 3.47-2.37 100.58 100.58 0 0 0 111-21.5 100.36 100.36 0 0 0 29.59-71.44c0-26.14-9.87-50.77-27.84-69.64L1490.4 210.43c-.94.94-2.6.94-3.53 0L1342.59 66.17c-37.63 39.51-37.05 102.27 1.75 141.06a100.72 100.72 0 0 0 110.26 21.82 2.5 2.5 0 0 1 3.46 2.24l1.34 50.77c0 30.06-10.97 57.33-30.9 76.83-19.36 18.97-45.86 29.55-74.61 29.81H289.03z"/><ellipse cx="296.51" cy="490.37" rx="19.01" ry="19.02"/><ellipse cx="533.98" cy="490.37" rx="19.01" ry="19.02"/><path d="M446.97 506.44c0 19.37-22.62 53.43-35.07 53.43-11.15 0-35.08-34.06-35.08-53.43a35.08 35.08 0 1 1 70.15 0z"/><path d="M378.26 587.39c-4.11 0-6.8-.96-6.87-.99a2.5 2.5 0 0 1 1.74-4.68c.87.31 20.73 7.05 33.98-25.48a2.5 2.5 0 1 1 4.63 1.88c-10.24 25.14-24.94 29.27-33.48 29.27z"/><path d="M445.54 587.39c-8.55 0-23.24-4.13-33.49-29.27a2.5 2.5 0 0 1 4.64-1.88c13.26 32.55 33.14 25.78 33.98 25.48a2.5 2.5 0 0 1 3.2 1.48 2.5 2.5 0 0 1-1.46 3.2c-.08.03-2.77.99-6.87.99zm280.51 130.13h-49.58a75.18 75.18 0 0 1-75.17-75.18V386.2h199.93v256.14a75.18 75.18 0 0 1-75.18 75.18z"/><path fill="#41E847" d="m869.63 783.85.4 57a58.25 58.25 0 0 0 58.25 57.84h110.34c38 0 68.8-30.8 68.8-68.79v-5.43a68.8 68.8 0 0 0-68.8-68.79h-73.65s-53.48 2.07-53.48-51.66"/><path d="M1038.63 901.2H928.27c-33.27 0-60.52-27.07-60.75-60.33l-.4-57a2.5 2.5 0 0 1 2.49-2.52h.02a2.5 2.5 0 0 1 2.5 2.48l.39 57c.21 30.53 25.22 55.36 55.75 55.36h110.35a66.36 66.36 0 0 0 66.28-66.29v-5.43a66.36 66.36 0 0 0-66.28-66.29h-73.66c-.92.05-24.87.78-41.29-15.02-9.75-9.38-14.7-22.55-14.7-39.14a2.5 2.5 0 1 1 5 0c0 15.16 4.43 27.1 13.14 35.5 14.86 14.33 37.52 13.68 37.75 13.67h73.76c39.3 0 71.28 31.97 71.28 71.28v5.43c0 39.31-31.98 71.3-71.29 71.3z"/><path fill="#FFF" d="M414.82 651.99c-50.69 0-93.13 22.55-121 60.5 113.81 198.76 328.98 332.1 570.98 331.99 63.53-.03 128.62-10.05 184.95-26.63.08-.02-.18-.3-.48-.25-80.75 9.67-322.81 14.6-493.63-272.75C532.24 690.25 478 652 414.82 652z"/><path d="M1489.47 209.4c-40.43 40.42-105.97 40.42-146.4 0s-40.42-105.97 0-146.4l146.4 146.4z"/><path d="M1488.8 209.4c40.42 40.42 105.96 40.42 146.38 0s40.43-105.97 0-146.4L1488.8 209.4z"/><path fill="none" d="m1488.62 208.66-172.64-91.94"/><path d="M1488.62 211.16c-.4 0-.8-.1-1.17-.29l-172.64-91.94a2.5 2.5 0 1 1 2.35-4.42l172.64 91.95a2.5 2.5 0 0 1-1.18 4.7z"/><path d="M1455.56 233.86a2.5 2.5 0 0 1-1-4.79c17.6-7.75 25.97-14.88 29.54-18.7l-162.3-29.79a2.5 2.5 0 0 1 .9-4.92l166.37 30.54a2.5 2.5 0 0 1 1.76 3.64c-.25.46-6.38 11.54-34.26 23.8-.33.15-.67.22-1 .22z"/><path fill="none" d="m1488.86 208.66 172.64-91.94"/><path d="M1488.86 211.16a2.5 2.5 0 0 1-1.18-4.7l172.64-91.95a2.5 2.5 0 0 1 2.36 4.42l-172.65 91.94c-.37.2-.77.3-1.17.3z"/><path d="M1521.92 233.86a2.5 2.5 0 0 1-1-.21c-27.89-12.27-34.02-23.35-34.27-23.81a2.5 2.5 0 0 1 1.76-3.64l166.38-30.54a2.5 2.5 0 1 1 .9 4.92l-162.3 29.8c3.55 3.8 11.91 10.94 29.54 18.7a2.5 2.5 0 0 1-1.01 4.78z"/><g fill="#FFF"><ellipse cx="1561.4" cy="895.24" rx="47.69" ry="21.88"/><path d="M1629.6 878.76a63.18 63.18 0 0 0-22.2 16.48 63.2 63.2 0 0 0 22.2 16.47v-32.95z"/></g><g fill="#FFF"><ellipse cx="1645.92" cy="964.58" rx="47.69" ry="21.88"/><path d="M1714.13 948.1a63.18 63.18 0 0 0-22.2 16.48 63.2 63.2 0 0 0 22.2 16.48v-32.95z"/></g><g fill="#FFF"><ellipse cx="1747.78" cy="820.47" rx="47.69" ry="21.88"/><path d="M1815.98 804a63.18 63.18 0 0 0-22.2 16.47 63.2 63.2 0 0 0 22.2 16.48v-32.96z"/></g></svg>
