<svg xmlns="http://www.w3.org/2000/svg" viewBox="0 0 1080 1080" xml:space="preserve"><path fill="#FFF" d="M535.23 125.66a2 2 0 0 1-2-2v-99.6a2 2 0 0 1 4 0v99.6a2 2 0 0 1-2 2zm-112.36 16.05a2 2 0 0 1-1.93-1.48l-25.78-96.21a2 2 0 0 1 3.86-1.03l25.78 96.2a2 2 0 0 1-1.93 2.52zM318.5 186.3a2 2 0 0 1-1.74-1l-49.8-86.27a2 2 0 1 1 3.47-2l49.8 86.26a2 2 0 0 1-1.73 3zm-89.28 70.07a2 2 0 0 1-1.42-.59l-70.43-70.43a2 2 0 1 1 2.83-2.82l70.43 70.42a2 2 0 0 1-1.41 3.42zm-68.11 90.8c-.34 0-.68-.1-1-.27l-86.25-49.8a2 2 0 1 1 2-3.47l86.26 49.8a2 2 0 0 1-1 3.74zM118.84 452.5c-.18 0-.35-.03-.52-.07l-96.2-25.78a2 2 0 0 1 1.03-3.87l96.2 25.78a2 2 0 0 1-.51 3.94zm-13.58 112.68H5.66a2 2 0 0 1 0-4h99.6a2 2 0 0 1 0 4zm969.08-9.55h-99.6a2 2 0 0 1 0-4h99.6a2 2 0 0 1 0 4zM958.7 443.27a2 2 0 0 1-.52-3.93l96.2-25.78a2 2 0 1 1 1.04 3.87l-96.2 25.77c-.18.05-.36.07-.53.07zM914.11 338.9a2 2 0 0 1-1-3.73l86.26-49.8a2 2 0 1 1 2 3.46l-86.26 49.8a2 2 0 0 1-1 .27zm-70.08-89.28a2 2 0 0 1-1.41-3.41l70.43-70.43a2 2 0 1 1 2.83 2.82l-70.43 70.43a2 2 0 0 1-1.42.59zm-90.79-68.1a2 2 0 0 1-1.73-3l49.8-86.26a2 2 0 1 1 3.46 2l-49.8 86.26a2 2 0 0 1-1.73 1zm-105.33-42.28a2 2 0 0 1-1.93-2.52l25.77-96.2a2 2 0 1 1 3.87 1.03l-25.78 96.2a2 2 0 0 1-1.93 1.49zM196.5 706.45a368.25 368.25 0 0 1-29.23-144.27c0-204.03 165.4-369.43 369.44-369.43s369.43 165.4 369.43 369.43"/><path fill="#FFF" d="M1029.38 679.55c-11.99 0-17.91-6.97-23.64-13.7-5.38-6.33-10.46-12.3-20.6-12.3-10.12 0-15.2 5.97-20.58 12.3-5.73 6.73-11.65 13.7-23.63 13.7-11.98 0-17.9-6.97-23.64-13.7-5.37-6.33-10.45-12.3-20.58-12.3-10.13 0-15.21 5.97-20.59 12.3-5.73 6.73-11.65 13.7-23.63 13.7s-17.9-6.97-23.64-13.7c-5.37-6.33-10.45-12.3-20.58-12.3-10.13 0-15.21 5.97-20.59 12.3-5.73 6.73-11.65 13.7-23.63 13.7-11.98 0-17.9-6.97-23.63-13.7-5.38-6.33-10.46-12.3-20.59-12.3-10.13 0-15.2 5.97-20.58 12.3-5.73 6.73-11.66 13.7-23.64 13.7s-17.9-6.97-23.63-13.7c-5.38-6.33-10.46-12.3-20.59-12.3s-15.2 5.97-20.58 12.3c-5.73 6.73-11.65 13.7-23.63 13.7-11.98 0-17.9-6.97-23.64-13.7-5.37-6.33-10.45-12.3-20.58-12.3s-15.2 5.97-20.58 12.3c-5.73 6.73-11.65 13.7-23.63 13.7-11.98 0-17.9-6.97-23.64-13.7-5.37-6.33-10.45-12.3-20.58-12.3-10.13 0-15.2 5.97-20.59 12.3-5.72 6.73-11.65 13.7-23.63 13.7-11.97 0-17.9-6.97-23.63-13.7-5.38-6.33-10.45-12.3-20.58-12.3-10.13 0-15.21 5.97-20.59 12.3-5.73 6.73-11.65 13.7-23.63 13.7s-17.9-6.97-23.63-13.7c-5.38-6.33-10.45-12.3-20.58-12.3-10.13 0-15.2 5.97-20.58 12.3-5.73 6.73-11.65 13.7-23.63 13.7s-17.9-6.97-23.63-13.7c-5.38-6.33-10.46-12.3-20.58-12.3-10.13 0-15.21 5.97-20.59 12.3-5.73 6.73-11.65 13.7-23.63 13.7s-17.9-6.97-23.63-13.7c-5.38-6.33-10.46-12.3-20.59-12.3-10.13 0-15.2 5.97-20.58 12.3-5.73 6.73-11.65 13.7-23.63 13.7s-17.9-6.97-23.63-13.7c-5.38-6.33-10.46-12.3-20.59-12.3v-4c11.98 0 17.9 6.97 23.63 13.7 5.38 6.33 10.46 12.3 20.59 12.3s15.2-5.97 20.58-12.3c5.73-6.73 11.65-13.7 23.63-13.7s17.9 6.97 23.64 13.7c5.37 6.33 10.45 12.3 20.58 12.3 10.13 0 15.2-5.97 20.58-12.3 5.73-6.73 11.66-13.7 23.64-13.7 11.97 0 17.9 6.97 23.63 13.7 5.37 6.33 10.45 12.3 20.58 12.3s15.2-5.97 20.58-12.3c5.73-6.73 11.65-13.7 23.63-13.7s17.9 6.97 23.63 13.7c5.38 6.33 10.45 12.3 20.58 12.3s15.2-5.97 20.58-12.3c5.73-6.73 11.66-13.7 23.64-13.7 11.97 0 17.9 6.97 23.63 13.7 5.37 6.33 10.45 12.3 20.58 12.3 10.13 0 15.21-5.97 20.59-12.3 5.73-6.73 11.65-13.7 23.63-13.7s17.9 6.97 23.63 13.7c5.38 6.33 10.46 12.3 20.59 12.3s15.2-5.97 20.58-12.3c5.73-6.73 11.65-13.7 23.63-13.7s17.9 6.97 23.63 13.7c5.38 6.33 10.46 12.3 20.59 12.3s15.2-5.97 20.58-12.3c5.73-6.73 11.66-13.7 23.63-13.7 11.98 0 17.9 6.97 23.64 13.7 5.37 6.33 10.45 12.3 20.58 12.3 10.13 0 15.21-5.97 20.59-12.3 5.73-6.73 11.65-13.7 23.63-13.7s17.9 6.97 23.64 13.7c5.37 6.33 10.45 12.3 20.58 12.3 10.13 0 15.2-5.97 20.59-12.3 5.73-6.73 11.65-13.7 23.63-13.7 11.98 0 17.9 6.97 23.63 13.7 5.38 6.33 10.46 12.3 20.59 12.3 10.13 0 15.2-5.97 20.58-12.3 5.73-6.73 11.66-13.7 23.64-13.7s17.9 6.97 23.63 13.7c5.38 6.33 10.46 12.3 20.59 12.3 10.13 0 15.2-5.97 20.59-12.3 5.72-6.73 11.65-13.7 23.63-13.7 11.98 0 17.9 6.97 23.64 13.7 5.37 6.33 10.45 12.3 20.59 12.3s15.2-5.97 20.59-12.3c5.73-6.73 11.65-13.7 23.63-13.7v4c-10.13 0-15.2 5.97-20.59 12.3-5.73 6.73-11.65 13.7-23.63 13.7z"/><path fill="#41E847" d="M289.52 446.71h232.2v117.22h-232.2z"/><path fill="#FFF" d="M523.71 565.93h-236.2V444.71h236.2v121.22zm-232.2-4h228.2V448.71h-228.2v113.22z"/><path fill="#41E847" d="M289.52 446.71h231.97v29.81H289.52z"/><path fill="#FFF" d="M523.49 478.52H287.52V444.7h235.97v33.8zm-231.97-4h227.97V448.7H291.52v25.8z"/><path fill="#41E847" d="M289.52 533.98h231.97v29.81H289.52z"/><path fill="#FFF" d="M523.49 565.79H287.52v-33.81h235.97v33.8zm-231.97-4h227.97v-25.81H291.52v25.8z"/><path fill="#FFF" d="M307.04 477.19h4v56.53h-4zm19.36 0h4v56.53h-4zm19.36 0h4v56.53h-4zm19.36 0h4v56.53h-4zm19.36 0h4v56.53h-4zm19.36 0h4v56.53h-4zm19.36 0h4v56.53h-4zm19.36 0h4v56.53h-4zm19.36 0h4v56.53h-4zm19.36 0h4v56.53h-4zm19.36 0h4v56.53h-4z"/><path fill="#41E847" d="M521.81 446.71h232.2v117.22h-232.2z"/><path fill="#FFF" d="M756 565.93H519.8V444.71H756v121.22zm-232.2-4H752V448.71H523.8v113.22z"/><path fill="#41E847" d="M521.81 446.71h231.97v29.81H521.81z"/><path fill="#FFF" d="M755.78 478.52H519.8V444.7h235.97v33.8zm-231.97-4h227.97V448.7H523.8v25.8z"/><path fill="#41E847" d="M521.81 533.98h231.97v29.81H521.81z"/><path fill="#FFF" d="M755.78 565.79H519.8v-33.81h235.97v33.8zm-231.97-4h227.97v-25.81H523.8v25.8z"/><path fill="#FFF" d="M539.32 477.19h4v56.53h-4zm19.36 0h4v56.53h-4zm19.37 0h4v56.53h-4zm19.36 0h4v56.53h-4zm19.36 0h4v56.53h-4zm19.36 0h4v56.53h-4zm19.36 0h4v56.53h-4zm19.36 0h4v56.53h-4zm19.36 0h4v56.53h-4zm19.36 0h4v56.53h-4zm19.36 0h4v56.53h-4z"/><path fill="#41E847" d="M404.66 329.63h232.2v117.22h-232.2z"/><path fill="#FFF" d="M638.86 448.85h-236.2V327.62h236.2v121.23zm-232.2-4h228.2V331.62h-228.2v113.23z"/><path fill="#41E847" d="M404.66 329.63h231.97v29.81H404.66z"/><path fill="#FFF" d="M638.63 361.43H402.66v-33.8h235.97v33.8zm-231.97-4h227.97v-25.8H406.66v25.8z"/><path fill="#41E847" d="M404.66 416.89h231.97v29.81H404.66z"/><path fill="#FFF" d="M638.63 448.7H402.66v-33.8h235.97v33.8zm-231.97-4h227.97v-25.8H406.66v25.8z"/><path fill="#FFF" d="M422.18 360.11h4v56.53h-4zm19.36 0h4v56.53h-4zm19.36 0h4v56.53h-4zm19.36 0h4v56.53h-4zm19.36 0h4v56.53h-4zm19.37 0h4v56.53h-4zm19.36 0h4v56.53h-4zm19.36 0h4v56.53h-4zm19.36 0h4v56.53h-4zm19.36 0h4v56.53h-4zm19.36 0h4v56.53h-4z"/><path d="M234.04 747.66h-22.3a44.83 44.83 0 0 1-44.82-44.82V602.8a40.64 40.64 0 0 1 40.64-40.64h71.3v140.68a44.82 44.82 0 0 1-44.82 44.82z"/><path fill="#41E847" d="M903.5 476.41a57.96 57.96 0 0 0 63.69-94.3l-81.78 81.77-81.78-81.77a57.96 57.96 0 0 0 63.27 94.48l.75 28.43c0 34.54-25.78 57.98-57.7 58.27h-596.2c-26.65 0-47.36 23.44-43.8 49.85 24.34 180.63 179.11 319.89 366.4 319.89 204.2 0 369.74-165.54 369.74-369.74l-2.59-86.88z"/><path d="M536.35 935.03a371.33 371.33 0 0 1-245.63-92.7c-67.25-59.26-110.84-140.55-122.75-228.92a45.87 45.87 0 0 1 10.95-36.3 46.26 46.26 0 0 1 34.82-15.82h596.22c32.26-.3 55.7-23.96 55.7-56.27l-.68-25.53a59.77 59.77 0 0 1-62.76-14 60.03 60.03 0 0 1 0-84.8 2 2 0 0 1 2.83 0l80.36 80.37 80.36-80.37a2 2 0 0 1 2.83 0 60.03 60.03 0 0 1 0 84.8 59.68 59.68 0 0 1-63 13.9l2.48 83.7v.2a369.4 369.4 0 0 1-29.2 144.7 370.49 370.49 0 0 1-79.67 118.16 370.5 370.5 0 0 1-118.16 79.66 369.38 369.38 0 0 1-144.7 29.22zM866.9 474.59a2 2 0 0 1 2 1.95l.75 28.42c0 17.02-6.2 32.43-17.48 43.47-10.96 10.72-25.94 16.71-42.2 16.86H213.75a42.26 42.26 0 0 0-31.81 14.45 41.86 41.86 0 0 0-10 33.14c11.78 87.41 54.91 167.83 121.44 226.44a367.33 367.33 0 0 0 242.98 91.7 366.5 366.5 0 0 0 260.03-107.7 366.52 366.52 0 0 0 78.82-116.9 365.4 365.4 0 0 0 28.9-143l-.01-.07-2.58-86.88a2 2 0 0 1 2.78-1.9 55.72 55.72 0 0 0 61.49-11.91 55.6 55.6 0 0 0 16.39-39.57 55.57 55.57 0 0 0-15-38.13l-80.34 80.34a2 2 0 0 1-2.83 0l-80.34-80.34a56.02 56.02 0 0 0 1.4 77.7 55.79 55.79 0 0 0 61.07 12.08 2 2 0 0 1 .77-.15z"/><circle cx="217.94" cy="621.62" r="10.65"/><circle cx="350.9" cy="621.62" r="10.65"/><path d="M302.18 630.61c0 10.85-12.66 29.92-19.64 29.92-6.24 0-19.64-19.07-19.64-29.92a19.64 19.64 0 1 1 39.28 0z"/><path d="M263.8 676.58c-2.44 0-4.05-.6-4.15-.63a2 2 0 0 1 1.39-3.75c.48.16 11.09 3.69 18.27-13.93a2 2 0 1 1 3.7 1.5c-4.47 10.97-10.46 14.82-14.7 16.12-1.67.52-3.2.69-4.5.69z"/><path d="M301.38 676.53c-4.97 0-13.45-2.38-19.3-16.75a2 2 0 0 1 3.7-1.51c7.26 17.82 18.14 13.98 18.25 13.93a2 2 0 0 1 1.4 3.75c-.04.02-1.63.58-4.05.58zM455.7 748.8h-22.29a44.83 44.83 0 0 1-44.82-44.83V563.3h111.94v140.68a44.83 44.83 0 0 1-44.82 44.83z"/><path fill="#41E847" d="m538.83 785.94.22 31.91a32.61 32.61 0 0 0 32.62 32.39h61.78a38.52 38.52 0 0 0 38.52-38.52v-3.04a38.52 38.52 0 0 0-38.52-38.51h-41.24s-29.94 1.15-29.94-28.93"/><path d="M633.45 852.24h-61.78a34.7 34.7 0 0 1-34.61-34.38l-.23-31.9a2 2 0 0 1 1.99-2.02h.01a2 2 0 0 1 2 1.98l.23 31.92a30.7 30.7 0 0 0 30.6 30.4h61.8a36.56 36.56 0 0 0 36.5-36.52v-3.04a36.56 36.56 0 0 0-36.5-36.51H592.2c-.5.01-14.15.44-23.53-8.59-5.58-5.36-8.41-12.88-8.41-22.34a2 2 0 0 1 4 0c0 8.31 2.4 14.85 7.16 19.44 8.13 7.85 20.58 7.5 20.7 7.49h41.32a40.56 40.56 0 0 1 40.52 40.51v3.04a40.56 40.56 0 0 1-40.52 40.52z"/><path fill="#FFF" d="M284.42 711.71c-28.39 0-51.71 12.21-67.32 33.46 63.73 111.29 183.77 186.37 319.26 186.3 35.63-.02 71.13-6.25 103.73-15.68.03 0 .03-.05 0-.05-45.05 5.43-181.07 9.06-276.83-152.03a85.76 85.76 0 0 0-78.84-52z"/><path d="M885.89 464.3a57.96 57.96 0 1 1-81.97-81.97l81.97 81.97z"/><path d="M885.5 464.3a57.96 57.96 0 1 0 81.97-81.97l-81.96 81.97z"/><path fill="#41E847" d="m885.41 463.88-96.66-51.48"/><path d="M885.41 465.88a2 2 0 0 1-.94-.23l-96.66-51.48a2 2 0 0 1 1.88-3.53l96.66 51.48a2 2 0 0 1-.94 3.76z"/><path d="M866.9 478.6a2 2 0 0 1-.8-3.84c8.66-3.81 13.27-7.34 15.55-9.53l-89.76-16.48a2 2 0 1 1 .73-3.93l93.15 17.1a2 2 0 0 1 1.4 2.9c-.35.68-3.93 6.77-19.46 13.6-.26.12-.54.17-.8.17z"/><path fill="#41E847" d="m885.54 463.88 96.67-51.48"/><path d="M885.55 465.88a2 2 0 0 1-.95-3.76l96.67-51.48a2 2 0 0 1 1.88 3.53l-96.66 51.48a2 2 0 0 1-.94.23z"/><path d="M904.05 478.6a2 2 0 0 1-.8-.18c-15.53-6.83-19.11-12.93-19.47-13.6a2 2 0 0 1 1.4-2.9l93.16-17.1a2 2 0 1 1 .72 3.93l-89.76 16.47c2.28 2.2 6.9 5.72 15.56 9.54a2 2 0 0 1-.8 3.83z"/><g fill="#FFF"><ellipse cx="814.53" cy="960.01" rx="33.24" ry="15.25"/><path d="M862.07 948.53A44.05 44.05 0 0 0 846.59 960c4.22 4.9 9.5 8.83 15.48 11.49v-22.97z"/></g><g fill="#FFF"><ellipse cx="162.09" cy="1040.69" rx="33.24" ry="15.25"/><path d="M114.55 1029.2a44.05 44.05 0 0 1 15.48 11.49 44.05 44.05 0 0 1-15.48 11.48v-22.97z"/></g><g fill="#FFF"><ellipse cx="944.44" cy="907.9" rx="33.24" ry="15.25"/><path d="M991.98 896.41a44.05 44.05 0 0 0-15.48 11.49 44.01 44.01 0 0 0 15.48 11.48v-22.97z"/></g></svg>
