<svg xmlns="http://www.w3.org/2000/svg" xml:space="preserve" viewBox="0 0 1920 1080"><path d="M495.264 746.865h-4v-558.94H171.403v22.597c0 7.933-4.394 15.092-11.466 18.685-7.073 3.59-15.445 2.916-21.85-1.763L8.594 132.847C3.132 128.857 0 122.689 0 115.924c0-6.764 3.133-12.931 8.594-16.92L138.086 4.407c6.405-4.68 14.777-5.354 21.851-1.763 7.072 3.593 11.466 10.751 11.466 18.684v22.597h544.811c110.445 0 200.299 89.854 200.299 200.3v69.065c0 41.505 37.514 80.745 77.192 80.745 33.828 0 54.262-16.721 63.432-26.688 13.965-16.714 22.011-36.443 22.011-54.057V171.556h-22.729c-7.933 0-15.092-4.394-18.685-11.467-3.592-7.072-2.916-15.444 1.763-21.85l94.597-129.492c3.99-5.462 10.158-8.595 16.921-8.595 6.764 0 12.932 3.133 16.922 8.595l94.597 129.492c4.679 6.405 5.354 14.777 1.763 21.85-3.593 7.073-10.752 11.467-18.685 11.467h-22.464V313.29c0 22.916-2.107 40.183-6.834 55.984-4.196 13.021-13.003 30.33-16.596 37.17-13.782 26.244-32.937 49.859-56.931 70.19-41.103 34.826-92.521 56.521-144.783 61.085l-.174.008-20.087.002-.088-.008c-53.121-4.685-101.238-27.198-139.148-65.108-42.557-42.558-65.994-99.14-65.994-159.323v-69.065c0-31.044-25.256-56.3-56.299-56.3h-80.95v413.67h-4v-417.67h84.95c33.249 0 60.299 27.051 60.299 60.3v69.065c0 59.115 23.021 114.693 64.822 156.495 37.217 37.217 84.445 59.327 136.584 63.944l19.823-.002c51.416-4.51 102.003-25.867 142.458-60.146 23.6-19.996 42.433-43.211 55.976-68.997 3.544-6.748 12.229-23.812 16.317-36.497 4.598-15.374 6.653-32.286 6.653-54.798V167.556h26.464c6.516 0 12.167-3.468 15.118-9.277 2.95-5.81 2.417-12.419-1.427-17.68l-94.597-129.492c-3.229-4.419-8.219-6.954-13.691-6.954-5.472 0-10.462 2.535-13.69 6.954l-94.597 129.492c-3.844 5.261-4.377 11.87-1.427 17.68 2.951 5.81 8.603 9.277 15.118 9.277h26.729V313.29c0 18.536-8.385 39.2-23.004 56.693-9.677 10.521-31.083 28.052-66.438 28.052-41.734 0-81.192-41.185-81.192-84.745v-69.065c0-108.24-88.06-196.3-196.299-196.3h-548.81V21.328c0-6.516-3.468-12.166-9.277-15.117-5.81-2.951-12.418-2.418-17.68 1.427L10.954 102.234C6.535 105.462 4 110.452 4 115.925s2.535 10.463 6.954 13.691l129.492 94.597c5.261 3.843 11.87 4.377 17.68 1.427 5.809-2.951 9.277-8.603 9.277-15.118v-26.597h327.861v562.94z"/><path d="M631.264 678.807h4v68.059h-4zM635.264 1080.009h-144V887.865h4v188.144h136V887.865h4zM1325.43 890.865h140V1080h-140z"/><path fill="#FFF" d="M151.432 935.469a20.89 20.89 0 0 1-12.345-4.05L9.594 836.822C4.132 832.832 1 826.664 1 819.901s3.132-12.931 8.594-16.921l129.492-94.597c6.405-4.681 14.777-5.354 21.85-1.763 7.073 3.593 11.466 10.752 11.466 18.685v19.561H775.16v4H168.403v-23.561c0-6.516-3.468-12.167-9.278-15.118-5.809-2.951-12.418-2.418-17.679 1.427L11.954 806.21C7.535 809.439 5 814.429 5 819.901c0 5.473 2.535 10.463 6.954 13.691l129.492 94.597c5.261 3.843 11.87 4.376 17.679 1.427 5.81-2.951 9.278-8.603 9.278-15.118v-29.632H775.16v4H172.403v25.632c0 7.933-4.394 15.092-11.466 18.685a20.992 20.992 0 0 1-9.505 2.286zM1462.348 229.325h-4V4.339h-136v224.986h-4V.339h144zM1599.05 748.865H910.442v-4h688.607c33.916 0 61.509-27.593 61.509-61.509s-27.593-61.509-61.509-61.509h-53.53c-60.68 0-117.728-23.63-160.635-66.537s-66.537-99.955-66.537-160.635V366.7h4v27.975c0 59.611 23.214 115.655 65.365 157.807s98.195 65.365 157.807 65.365h53.53c36.122 0 65.509 29.387 65.509 65.509s-29.386 65.509-65.508 65.509z"/><path fill="#FFF" d="M1599.05 888.865H910.442v-4h688.607c111.112 0 201.509-90.396 201.509-201.509s-90.396-201.509-201.509-201.509h-53.53c-48.066 0-87.172-39.105-87.172-87.172V366.7h4v27.975c0 45.861 37.311 83.172 83.172 83.172h53.53c113.318 0 205.509 92.19 205.509 205.509s-92.19 205.509-205.508 205.509z"/><path d="m1797.631 286.205-129.492-94.597c-12.525-9.149-30.137-.204-30.137 15.306v21.752H914.427v83.167c0 21.225 9.837 41.852 24.721 56.833h381.199v.035h140v-.035h177.655v27.441c0 15.51 17.612 24.456 30.137 15.306l129.492-94.597c10.366-7.57 10.366-23.039 0-30.611z"/><path d="M1398.88 605.725c-43.126-43.126-100.465-66.877-161.454-66.877H347.807c-46.919 0-85.091-38.171-85.091-85.091 0-46.919 38.172-85.09 85.091-85.09h433.549c-4.5-17.887-6.821-36.453-6.821-55.376v-69.065c0-5.397-.779-10.613-2.204-15.558H347.807c-60.124 0-116.649 23.413-159.163 65.927s-65.928 99.039-65.928 159.164c0 60.124 23.414 116.649 65.928 159.164 42.514 42.514 99.039 65.927 159.163 65.927h426.75v233.749H749.96c-15.51 0-24.456 17.612-15.306 30.137l94.597 129.492c7.572 10.365 23.041 10.365 30.613 0l94.597-129.492c9.149-12.525.204-30.137-15.306-30.137h-24.596V678.848h322.869c40.276 0 74.341 27.097 84.926 64.018h142.119c-5.45-51.798-28.251-99.799-65.593-137.141zm-960.474 47.559c-12.282 0-22.239-9.957-22.239-22.239s9.957-22.239 22.239-22.239 22.239 9.957 22.239 22.239-9.956 22.239-22.239 22.239zm210.659 0c-12.282 0-22.239-9.957-22.239-22.239s9.957-22.239 22.239-22.239 22.239 9.957 22.239 22.239-9.957 22.239-22.239 22.239z"/><path fill="#FFF" d="M1919.995 84.568c0-.069.005-.136.005-.205C1920 37.771 1882.229 0 1835.637 0s-84.363 37.771-84.363 84.363c0 0-2.606 81.845 84.359 177.28 84.941-93.215 84.431-171.924 84.362-177.075zm-84.362 63.087c-33.995 0-61.553-27.558-61.553-61.553s27.558-61.553 61.553-61.553 61.553 27.558 61.553 61.553-27.558 61.553-61.553 61.553z"/><circle cx="1835.633" cy="86.102" r="21.725" fill="#FFF"/><path fill="#FFF" d="M666.464 573.767h-210.07l26.359-53.184a20.131 20.131 0 0 1 18.038-11.192h117.633c26.532 0 48.04 21.508 48.04 48.04v16.336z"/><path d="M577.805 509.39h16.376v64.376h-16.376z"/><path fill="#FFF" d="m410.024 561.719 13.927-93.776 4.946.734-13.927 93.776z"/><path fill="#FFF" d="m424.07 464.857 43.193 21.684-47.22 7.336z"/><path fill="#FF8630" d="M372.902 611.96h23.718v18.085h-23.718z"/><path fill="#FF8630" d="M701.61 559.837H391.064a9.465 9.465 0 0 0-9.465 9.465v51.276a9.465 9.465 0 0 0 9.465 9.465h19.211c0-15.356 12.449-27.805 27.805-27.805s27.805 12.449 27.805 27.805H620.53c0-15.356 12.449-27.805 27.805-27.805s27.805 12.449 27.805 27.805h25.471a9.465 9.465 0 0 0 9.465-9.465v-51.276c0-5.227-4.238-9.465-9.466-9.465z"/><path fill="#FFF" d="M402.697 594.941h-21.098v-17.146h21.42a5.726 5.726 0 0 1 5.726 5.726v5.373a6.048 6.048 0 0 1-6.048 6.047zM700.149 573.767h10.927v21.174h-10.927z"/><path d="M568.98 577.795h-23.314a4.077 4.077 0 1 1 0-8.154h23.314a4.077 4.077 0 1 1 0 8.154zM533.57 622.501l-23.108-16.765-23.108 16.765v-62.664h46.216z"/><circle cx="510.462" cy="584.354" r="14.712" fill="#FFF"/><path d="M515.784 590.44c-.684 0-2.142.052-3.152.087l-.195.007v-13.412c0-.9-.505-1.482-1.287-1.482-.532 0-1.042.253-1.428.444l-5.031 2.473c-.242.122-.977.491-.977 1.347 0 .761.541 1.313 1.287 1.313.343 0 .692-.104 1.222-.369l3.502-1.901v11.592l-.31-.009c-1.298-.035-3.26-.089-4.162-.089-.84 0-1.426.54-1.426 1.313 0 .774.586 1.314 1.426 1.314h10.531c.84 0 1.427-.54 1.427-1.314s-.587-1.314-1.427-1.314zM36.188 613.824h38.403v65.284H36.188z"/><circle cx="55.389" cy="570.894" r="55.389" fill="#FFF"/><circle cx="55.389" cy="489.572" r="45.814" fill="#FFF"/><path d="M1845.41 1014.716h38.403V1080h-38.403z"/><circle cx="1864.611" cy="971.785" r="55.389" fill="#FFF"/><circle cx="1864.611" cy="890.463" r="45.814" fill="#FFF"/><path d="M1701.189 1014.716h38.403V1080h-38.403z"/><circle cx="1720.39" cy="971.785" r="55.389" fill="#FFF"/><circle cx="1720.39" cy="890.888" r="55.389" fill="#FFF"/><circle cx="1720.39" cy="808.835" r="45.814" fill="#FFF"/></svg>