<svg xmlns="http://www.w3.org/2000/svg" xml:space="preserve" viewBox="0 0 1080 1080"><path d="m461.828 1073.874-73.044-99.989M202.162 778.25h-4V146.095H133.1v16.993a16.56 16.56 0 0 1-9.104 14.833 16.565 16.565 0 0 1-17.348-1.399L6.66 103.478C2.324 100.31-.163 95.414-.163 90.044c0-5.37 2.487-10.267 6.823-13.435l99.988-73.044a16.558 16.558 0 0 1 17.348-1.398A16.56 16.56 0 0 1 133.1 17v16.992h239.216c41.486 0 80.417 15.794 109.621 44.472 29.339 28.81 45.497 67.396 45.497 108.647v112.33c0 31.814 28.745 61.893 59.149 61.893 25.947 0 41.614-12.819 48.644-20.461 10.702-12.809 16.876-27.937 16.876-41.432V133.228h-17.095a16.56 16.56 0 0 1-14.833-9.104 16.561 16.561 0 0 1 1.398-17.347l73.044-99.989c3.168-4.336 8.064-6.822 13.435-6.822 5.369 0 10.266 2.486 13.434 6.822l73.044 99.989a16.56 16.56 0 0 1 1.399 17.347 16.56 16.56 0 0 1-14.833 9.104h-16.891v166.214c0 17.742-1.634 31.114-5.296 43.359-3.251 10.091-10.067 23.488-12.848 28.782-10.672 20.318-25.499 38.599-44.068 54.334-31.811 26.952-71.604 43.742-112.052 47.274l-.174.008-15.53.001-.088-.008c-40.539-3.575-78.797-21.477-107.727-50.406-32.947-32.947-51.092-76.752-51.092-123.345v-112.33c0-23-18.895-41.017-43.016-41.017h-62.051v356.814h-4V142.095h66.051c26.364 0 47.016 19.773 47.016 45.017v112.33c0 45.524 17.729 88.325 49.92 120.517 28.655 28.655 65.019 45.682 105.162 49.242l15.268-.001c39.6-3.478 78.564-19.932 109.727-46.335 18.176-15.4 32.682-33.279 43.113-53.141 2.731-5.202 9.426-18.354 12.569-28.109 3.534-11.817 5.115-24.836 5.115-42.173V129.228h20.891c4.856 0 9.068-2.585 11.267-6.914 2.199-4.33 1.802-9.256-1.063-13.177l-73.044-99.99c-2.405-3.293-6.125-5.182-10.203-5.182-4.079 0-7.799 1.889-10.204 5.182l-73.044 99.989c-2.864 3.921-3.262 8.847-1.062 13.177 2.199 4.329 6.411 6.914 11.267 6.914h21.095v170.214c0 14.418-6.514 30.48-17.87 44.068-7.535 8.195-24.175 21.824-51.649 21.824-32.46 0-63.149-32.022-63.149-65.893V187.11c0-40.17-15.732-77.742-44.299-105.794-28.452-27.938-66.388-43.325-106.819-43.325H129.1V17c0-4.855-2.585-9.067-6.915-11.267-4.33-2.2-9.256-1.802-13.177 1.062L9.019 79.84c-3.294 2.405-5.183 6.125-5.183 10.204 0 4.078 1.889 7.798 5.183 10.203l99.988 73.044c3.921 2.865 8.848 3.262 13.177 1.063 4.33-2.199 6.915-6.411 6.915-11.267v-20.993h73.062V778.25z"/><path d="M305.682 521.679h4V778.25h-4zM309.682 1081.337H197.579V890.226h4v187.111h104.103V890.226h4z"/><path fill="#FFF" d="M1079.563 71.687c0-.059.004-.117.004-.176 0-39.86-32.313-72.174-72.174-72.174-39.86 0-72.174 32.313-72.174 72.174 0 0-2.229 70.02 72.17 151.666 72.67-79.747 72.234-147.084 72.174-151.49zm-72.173 53.971c-29.083 0-52.66-23.576-52.66-52.659s23.577-52.659 52.66-52.659c29.083 0 52.659 23.576 52.659 52.659s-23.576 52.659-52.659 52.659z"/><circle cx="1007.39" cy="72.999" r="18.586" fill="#FFF"/><path fill="#FFF" d="M117.45 926.252a16.586 16.586 0 0 1-9.802-3.216L7.66 849.992c-4.336-3.168-6.823-8.064-6.823-13.435 0-5.369 2.487-10.266 6.823-13.434l99.988-73.044a16.56 16.56 0 0 1 17.348-1.398 16.56 16.56 0 0 1 9.104 14.833v14.648h785.04c25.938 0 47.039-21.102 47.039-47.039s-21.102-47.039-47.04-47.039h-30.672c-87.751 0-159.142-71.391-159.142-159.142S800.716 365.8 888.467 365.8h7.88l3.847-.23h179.202v113.165l-179.146-1.062-3.843.23h-7.94c-25.938 0-47.039 21.102-47.039 47.039s21.103 47.039 47.04 47.039h30.672c87.751 0 159.142 71.391 159.142 159.142s-71.391 159.142-159.142 159.142H134.1v19.337a16.56 16.56 0 0 1-9.104 14.833 16.65 16.65 0 0 1-7.546 1.817zm-.027-175.411c-2.602 0-5.172.831-7.415 2.47L10.02 826.355c-3.294 2.405-5.183 6.125-5.183 10.203 0 4.079 1.889 7.799 5.183 10.204l99.988 73.044c3.921 2.864 8.848 3.263 13.177 1.063 4.33-2.199 6.915-6.411 6.915-11.267v-23.337h789.04c85.545 0 155.142-69.596 155.142-155.142s-69.597-155.142-155.142-155.142h-30.672c-28.144 0-51.04-22.896-51.04-51.039s22.896-51.039 51.039-51.039h7.88l3.858-.23 175.19 1.039V369.571H900.254l-3.847.23h-7.94c-85.546 0-155.142 69.597-155.142 155.142s69.596 155.142 155.142 155.142h30.672c28.144 0 51.04 22.896 51.04 51.039s-22.896 51.039-51.039 51.039H130.1v-18.648c0-4.855-2.585-9.067-6.914-11.267-1.854-.941-3.817-1.407-5.763-1.407z"/><path d="M962.044 1031.746h28.774v48.917h-28.774z"/><circle cx="976.431" cy="999.579" r="41.502" fill="#FFF"/><circle cx="976.431" cy="938.646" r="34.328" fill="#FFF"/><path d="M853.981 1031.746h28.774v48.917h-28.774z"/><circle cx="868.368" cy="999.579" r="41.502" fill="#FFF"/><circle cx="868.368" cy="938.964" r="41.502" fill="#FFF"/><circle cx="868.368" cy="877.483" r="34.328" fill="#FFF"/><path d="m1001.93 245.627-99.989-73.044c-9.671-7.065-23.271-.158-23.271 11.819v18.979H524.96V267.6c0 16.389-.868 34.416 2.435 43.884l351.275.027v18.979c0 11.977 13.6 18.884 23.271 11.819l99.989-73.044c8.004-5.847 8.004-17.791 0-23.638zM707.109 552.14c-33.163-31.94-77.757-49.25-123.8-49.25H175.053c-35.481 0-65.187-37.814-66.474-73.271h-.007v-50h.007c-1.355-37.333 28.623-68.136 65.659-68.136h243.505c-1.765-14.736-.801-28.148-.801-42.76v-53.33c0-4.167 0 0 .298-12.013H174.238c-46.425 0-90.072 18.079-122.899 50.906C18.511 287.114.432 330.76.432 377.186c0 .807.018 1.621.029 2.432v50c.617 45.857 18.62 98.21 50.877 130.468 32.828 32.827 76.474 50.906 122.899 50.906h245.357l-.054 339.198h-18.938c-11.977 0-18.884 13.6-11.819 23.271l73.044 99.989c5.847 8.004 17.791 8.004 23.638 0l73.044-99.989c7.065-9.671.158-23.271-11.819-23.271h-18.992V610.993h57.179c26.576 0 49.65 15.279 60.9 37.515 3.158 6.241 4.676 13.183 4.676 20.178V778.25h109.739V660.425c-4.324-41.11-22.804-79.123-53.083-108.285z"/><path fill="#FFF" d="M407.09 523.68H277.714l16.234-32.755a12.398 12.398 0 0 1 11.109-6.893h72.447c16.34 0 29.586 13.246 29.586 29.586v10.062z"/><path d="M352.488 484.033h10.086v39.648h-10.086z"/><path fill="#FFF" d="m248.67 516.23 8.583-57.748 3.956.588-8.582 57.748z"/><path fill="#FFF" d="m257.807 456.606 26.601 13.355-29.081 4.518z"/><path fill="#FF8630" d="M226.294 547.203h14.607v11.138h-14.607z"/><path fill="#FF8630" d="M428.736 515.102H237.48a5.83 5.83 0 0 0-5.829 5.829v31.58a5.83 5.83 0 0 0 5.829 5.829h11.832c0-9.457 7.667-17.124 17.124-17.124 9.457 0 17.124 7.667 17.124 17.124h95.242c0-9.457 7.667-17.124 17.124-17.124s17.124 7.667 17.124 17.124h15.687a5.83 5.83 0 0 0 5.829-5.829v-31.58a5.83 5.83 0 0 0-5.83-5.829z"/><path fill="#FFF" d="M242.944 536.721H231.65v-10.56h11.583a5.135 5.135 0 0 1 5.135 5.135 5.424 5.424 0 0 1-5.424 5.425zM427.836 523.68h6.73v13.041h-6.73z"/><path d="m325.245 553.695-14.232-10.325-14.231 10.325v-38.593h28.463z"/><circle cx="311.013" cy="530.201" r="9.061" fill="#FFF"/><path d="M314.291 533.949c-.421 0-1.319.032-1.941.054l-.12.004v-8.26c0-.555-.311-.913-.792-.913-.328 0-.642.156-.879.274l-3.099 1.523c-.149.075-.602.302-.602.829 0 .469.333.809.792.809.211 0 .426-.064.752-.227l2.157-1.171v7.139l-.191-.005c-.8-.022-2.008-.055-2.563-.055-.517 0-.878.333-.878.809 0 .477.361.81.878.81h6.486c.518 0 .879-.333.879-.81 0-.477-.362-.81-.879-.81zM348.252 530.037H332.11a2.823 2.823 0 0 1 0-5.646h16.142a2.822 2.822 0 1 1 0 5.646zM66.11 674.294h29.266v49.751H66.11z"/><circle cx="80.743" cy="641.578" r="42.21" fill="#FFF"/><circle cx="80.743" cy="579.605" r="34.914" fill="#FFF"/><circle cx="265.966" cy="558.34" r="11.748" fill="#FFF"/><circle cx="395.342" cy="558.34" r="11.748" fill="#FFF"/><path d="M650.453 890.225h109.739v189.65H650.453z"/></svg>