<svg xmlns="http://www.w3.org/2000/svg" viewBox="0 0 1920 1080" xml:space="preserve"><path fill="#FF8630" d="M695.68 414.702c16.703-11.604 35.778-19.497 55.896-22.479.929-.138 1.86-.266 2.791-.383 18.081-2.283 33.899-7.68 48.909-15.082 12.465-6.159 24.372-13.696 36.526-22.019l57.341-39.219 60.607-41.466s-.085-.123-.048-.142c14.054-9.61 17.654-28.8 8.039-42.852-9.616-14.066-28.806-17.661-42.862-8.05-.81.554-1.57 1.141-2.303 1.752l-58.248 39.854-.153-.216 76.837-52.562s-.082-.122-.049-.141c14.054-9.61 17.655-28.797 8.044-42.859-9.622-14.051-28.812-17.657-42.864-8.038a29.295 29.295 0 0 0-2.305 1.754l-74.476 50.948-.153-.212 93.063-63.661s-.082-.126-.048-.139c14.051-9.619 17.65-28.811 8.039-42.867-9.623-14.054-28.81-17.655-42.863-8.039a29.295 29.295 0 0 0-2.298 1.749l-90.709 62.055-.153-.212 76.835-52.563s-.079-.124-.05-.147c14.061-9.611 17.658-28.803 8.043-42.851-9.617-14.062-28.808-17.66-42.863-8.042a31.361 31.361 0 0 0-2.303 1.752s-96.472 64.964-96.91 64.763l-150.965 123.63-26.535 14.961 104.839 174.189 33.349-23.166z"/><path d="M662.333 439.867a1.999 1.999 0 0 1-1.713-.969L555.78 264.71a2.001 2.001 0 0 1 .731-2.773l26.385-14.877 150.831-123.521c.149-.122.313-.22.485-.293 3.619-2.067 70.665-47.134 96.494-64.526a32.945 32.945 0 0 1 2.373-1.799c7.237-4.954 15.972-6.794 24.593-5.173 8.621 1.617 16.097 6.496 21.049 13.737 4.952 7.235 6.789 15.968 5.171 24.588a32.891 32.891 0 0 1-3.406 9.627l1.41-.965a31.456 31.456 0 0 1 2.381-1.806c14.931-10.218 35.406-6.378 45.638 8.563 10.082 14.746 6.477 34.878-7.971 45.233-.139.212-.32.4-.542.552l-3.41 2.333c11.642-1.254 23.596 3.772 30.666 14.097 10.08 14.75 6.475 34.876-7.97 45.224-.14.214-.322.404-.546.557l-3.38 2.312a32.886 32.886 0 0 1 9.582.39c8.621 1.618 16.096 6.498 21.048 13.74 4.952 7.236 6.789 15.969 5.172 24.589-1.573 8.382-6.228 15.68-13.138 20.626a2.003 2.003 0 0 1-.546.559l-117.95 80.685c-14.484 9.919-25.824 16.754-36.77 22.162-16.54 8.156-32.745 13.152-49.543 15.272-.916.116-1.833.242-2.749.378-19.271 2.855-38.307 10.513-55.048 22.143l-1.141-1.643 1.141 1.643-33.347 23.166a1.998 1.998 0 0 1-1.14.357zM560.268 264.41l102.677 170.597 31.593-21.948c17.244-11.979 36.866-19.868 56.744-22.814.943-.14 1.887-.27 2.832-.39 16.352-2.063 32.142-6.935 48.275-14.891 10.768-5.32 21.958-12.067 36.281-21.876l117.364-80.285a2.05 2.05 0 0 1 .537-.542v-.001c6.356-4.346 10.639-10.908 12.059-18.478s-.193-15.238-4.542-21.593c-4.349-6.361-10.914-10.646-18.484-12.068-7.571-1.417-15.24.191-21.598 4.54a27.953 27.953 0 0 0-2.15 1.636 2.09 2.09 0 0 1-.152.115l-58.249 39.854a2 2 0 0 1-2.759-.491l-.153-.215a2.001 2.001 0 0 1 .501-2.81l76.254-52.164c.142-.211.323-.396.534-.54 13.12-8.971 16.495-26.95 7.522-40.079-8.985-13.123-26.968-16.495-40.083-7.516a27.49 27.49 0 0 0-2.155 1.64c-.048.04-.099.078-.15.113l-74.476 50.948a2.001 2.001 0 0 1-2.756-.486l-.152-.213a1.998 1.998 0 0 1 .497-2.815l92.484-63.266c.142-.209.323-.391.532-.534 13.119-8.98 16.492-26.963 7.519-40.087-8.984-13.121-26.964-16.492-40.083-7.518-.684.465-1.384.999-2.146 1.635-.049.04-.1.079-.152.114l-90.709 62.056a2.002 2.002 0 0 1-2.756-.486l-.152-.213a1.998 1.998 0 0 1 .497-2.815l76.243-52.157a2.011 2.011 0 0 1 .542-.553c6.358-4.346 10.643-10.909 12.063-18.479 1.42-7.569-.193-15.237-4.542-21.591-4.35-6.36-10.915-10.645-18.486-12.065-7.572-1.418-15.241.193-21.598 4.544-.672.46-1.358.981-2.158 1.643a2.01 2.01 0 0 1-.157.118s-24.12 16.242-48.294 32.458a12125.404 12125.404 0 0 1-33.298 22.276 2048.014 2048.014 0 0 1-11.048 7.316c-2.143 1.405-3.393 2.225-4.199 2.666L585.296 250.264a1.968 1.968 0 0 1-.285.195l-24.743 13.951zm174.727-141.323z"/><path fill="#FF8630" d="m596.051 238.085-.034-.044"/><path d="M596.021 240.072a1.954 1.954 0 0 1-1.561-.775l-.034-.045a2 2 0 1 1 3.184-2.422c.669.879.516 2.156-.364 2.825-.369.281-.8.417-1.225.417z"/><path fill="#FF8630" d="M573.764 254.387c13.364-6.476 22.464-23.07 26.638-32.205 6.723-19.6 36.593-40.162 55.651-51.798a95.138 95.138 0 0 1 5.799-3.222l115.287-70.458a34.372 34.372 0 0 1 2.501-1.705c15.334-9.351 35.343-4.503 44.695 10.825 9.348 15.33 4.502 35.336-10.824 44.692-.044.021.036.148.036.148l-75.722 54.858s11.889 38.77-19.838 88.648"/><path d="M717.986 296.17a2 2 0 0 1-1.685-3.073c30.804-48.428 19.728-86.61 19.612-86.99a2 2 0 0 1 .739-2.203l75.168-54.458c.166-.256.388-.476.649-.636 14.36-8.766 18.917-27.582 10.159-41.944-8.763-14.36-27.582-18.921-41.946-10.158a32.46 32.46 0 0 0-2.348 1.601c-.049.036-.1.071-.152.103L662.895 168.87a1.63 1.63 0 0 1-.129.072 92.64 92.64 0 0 0-5.676 3.154c-21.574 13.172-48.599 32.669-54.796 50.735a1.788 1.788 0 0 1-.073.183c-4.341 9.501-13.698 26.443-27.585 33.174a2 2 0 1 1-1.744-3.6c12.718-6.164 21.516-22.122 25.651-31.149 6.643-19.165 34.363-39.265 56.468-52.761a96.253 96.253 0 0 1 5.86-3.26l115.146-70.372a36.372 36.372 0 0 1 2.569-1.746c16.258-9.915 37.543-4.761 47.455 11.483 9.782 16.04 4.881 36.99-10.878 47.06a1.993 1.993 0 0 1-.443.441l-74.606 54.051c1.852 7.522 8.446 43.5-20.439 88.909a1.998 1.998 0 0 1-1.689.926z"/><path d="M688.386 447.876 560.972 232.843c-5.537 3.281-137.143 82.019-270.751 227.015C211 545.832 146.554 638.082 98.672 734.047 43.168 845.287 9.976 961.497-.205 1080H251.03c9.317-78.437 32.606-155.851 69.499-230.74 36.593-74.277 86.633-146.553 148.731-214.817 109.088-119.921 218.324-186.084 219.415-186.739l-.289.172z"/><path fill="#FF8630" d="M1223.911 414.702c-16.703-11.604-35.778-19.497-55.896-22.479-.929-.138-1.86-.266-2.791-.383-18.081-2.283-33.899-7.68-48.909-15.082-12.465-6.159-24.372-13.696-36.526-22.019l-57.341-39.219-60.607-41.466s.085-.123.048-.142c-14.054-9.61-17.654-28.8-8.039-42.852 9.616-14.066 28.806-17.661 42.862-8.05.81.554 1.57 1.141 2.303 1.752l58.248 39.854.153-.216-76.837-52.562s.082-.122.049-.141c-14.054-9.61-17.655-28.797-8.044-42.859 9.622-14.051 28.812-17.657 42.864-8.038.807.548 1.569 1.14 2.305 1.754l74.476 50.948.153-.212-93.063-63.661s.082-.126.048-.139c-14.051-9.619-17.65-28.811-8.039-42.867 9.623-14.054 28.81-17.655 42.863-8.039a29.295 29.295 0 0 1 2.298 1.749l90.709 62.055.153-.212-76.835-52.563s.079-.124.05-.147c-14.061-9.611-17.658-28.803-8.043-42.851 9.617-14.062 28.808-17.66 42.863-8.042a31.361 31.361 0 0 1 2.303 1.752s96.472 64.964 96.91 64.763l150.965 123.63 26.535 14.961-104.839 174.189-33.349-23.166z"/><path d="M1257.258 439.867c-.404 0-.804-.123-1.141-.357l-33.347-23.166c-16.741-11.63-35.777-19.287-55.049-22.143-.915-.136-1.832-.262-2.75-.378-16.797-2.12-33.002-7.116-49.541-15.271-10.947-5.409-22.288-12.245-36.771-22.163l-117.948-80.685a2 2 0 0 1-.546-.558c-6.911-4.947-11.565-12.244-13.138-20.627-1.617-8.619.219-17.353 5.172-24.59 4.951-7.241 12.426-12.121 21.047-13.739a32.92 32.92 0 0 1 9.582-.39l-3.38-2.312a1.996 1.996 0 0 1-.546-.557c-14.445-10.348-18.051-30.474-7.972-45.223 7.069-10.324 19.033-15.341 30.669-14.097l-3.411-2.334a1.985 1.985 0 0 1-.542-.551c-14.449-10.355-18.055-30.487-7.973-45.233 10.231-14.943 30.707-18.781 45.644-8.561a31.009 31.009 0 0 1 2.376 1.802l1.41.965a32.891 32.891 0 0 1-3.406-9.627c-1.617-8.62.22-17.353 5.172-24.589 4.952-7.24 12.428-12.119 21.049-13.736 8.623-1.616 17.355.22 24.595 5.174a33.173 33.173 0 0 1 2.371 1.797c25.829 17.394 92.874 62.46 96.494 64.527.172.073.336.171.485.293l150.83 123.521 26.385 14.877a2.001 2.001 0 0 1 .731 2.773L1258.97 438.897a2 2 0 0 1-1.712.97zM963.554 272.803l117.364 80.285c14.323 9.808 25.513 16.555 36.283 21.877 16.132 7.955 31.923 12.826 48.273 14.89.946.12 1.891.25 2.833.39 19.879 2.946 39.5 10.835 56.744 22.814l31.594 21.948 102.677-170.597-24.743-13.951a2.05 2.05 0 0 1-.285-.195L1183.41 126.7c-.807-.441-2.056-1.26-4.2-2.666-2.683-1.759-6.49-4.282-11.048-7.316a11821.99 11821.99 0 0 1-33.298-22.276c-24.175-16.216-48.294-32.458-48.294-32.458a2.557 2.557 0 0 1-.157-.117 29.39 29.39 0 0 0-2.157-1.643c-6.358-4.352-14.034-5.962-21.599-4.545-7.571 1.421-14.137 5.705-18.486 12.064-4.349 6.355-5.961 14.023-4.541 21.592 1.42 7.57 5.704 14.134 12.063 18.479a2.037 2.037 0 0 1 .542.553l76.242 52.157a2 2 0 0 1 .497 2.815l-.152.213a1.994 1.994 0 0 1-2.755.486l-90.709-62.056a1.421 1.421 0 0 1-.151-.114 27.44 27.44 0 0 0-2.143-1.631c-13.123-8.98-31.104-5.606-40.088 7.515-8.973 13.123-5.601 31.105 7.519 40.086.208.144.389.325.531.534l92.483 63.266a2 2 0 0 1 .497 2.815l-.152.213a1.995 1.995 0 0 1-2.755.486l-74.476-50.948a1.695 1.695 0 0 1-.151-.113 27.607 27.607 0 0 0-2.149-1.636c-13.12-8.98-31.104-5.609-40.09 7.513-8.972 13.128-5.597 31.107 7.523 40.078.211.146.393.33.534.541l76.254 52.163a1.999 1.999 0 0 1 .499 2.813l-.153.215a1.998 1.998 0 0 1-2.757.488l-58.248-39.854a1.73 1.73 0 0 1-.152-.115 28.488 28.488 0 0 0-2.15-1.637c-6.358-4.346-14.027-5.956-21.598-4.539-7.571 1.421-14.136 5.707-18.484 12.067-4.349 6.355-5.962 14.024-4.542 21.594s5.703 14.132 12.059 18.478v.001c.211.144.393.33.536.542zm221.035-149.717z"/><path fill="#FF8630" d="m1323.539 238.085.034-.044"/><path d="M1323.54 240.056c-.419 0-.839-.13-1.195-.4-.879-.669-1.066-1.901-.397-2.78l.034-.045a2 2 0 1 1 3.184 2.422 2.05 2.05 0 0 1-1.626.803z"/><path fill="#FF8630" d="M1345.827 254.387c-13.364-6.476-22.464-23.07-26.638-32.205-6.723-19.6-36.593-40.162-55.651-51.798a95.138 95.138 0 0 0-5.799-3.222l-115.287-70.458a34.372 34.372 0 0 0-2.501-1.705c-15.334-9.351-35.343-4.503-44.696 10.825-9.348 15.33-4.501 35.336 10.824 44.692.044.021-.036.148-.036.148l75.722 54.858s-11.889 38.77 19.838 88.648"/><path d="M1201.604 296.17a1.995 1.995 0 0 1-1.689-.927c-28.885-45.409-22.29-81.387-20.438-88.909l-74.606-54.051a1.993 1.993 0 0 1-.443-.441c-15.759-10.069-20.659-31.02-10.879-47.059 9.913-16.245 31.194-21.399 47.444-11.492a36.88 36.88 0 0 1 2.581 1.754l115.146 70.372a96.657 96.657 0 0 1 5.854 3.256c22.111 13.5 49.832 33.599 56.475 52.765 4.135 9.028 12.934 24.985 25.651 31.149a2 2 0 0 1-1.744 3.6c-13.886-6.729-23.244-23.673-27.586-33.174a1.93 1.93 0 0 1-.072-.183c-6.197-18.066-33.222-37.564-54.802-50.739a92.505 92.505 0 0 0-5.67-3.15 1.63 1.63 0 0 1-.129-.072L1141.409 98.41a1.42 1.42 0 0 1-.153-.104 32.86 32.86 0 0 0-2.357-1.607c-14.354-8.751-33.172-4.196-41.936 10.167-8.758 14.361-4.201 33.178 10.159 41.943.261.16.483.38.649.636l75.168 54.458c.692.501.989 1.388.738 2.205-.114.378-11.191 38.561 19.612 86.988a2 2 0 0 1-1.685 3.074z"/><path d="m1231.204 447.876 127.414-215.032c5.537 3.281 137.143 82.019 270.751 227.015 79.221 85.973 143.668 178.223 191.55 274.188 55.504 111.241 88.696 227.451 98.877 345.953h-251.234c-9.317-78.437-32.606-155.851-69.499-230.74-36.593-74.277-86.633-146.553-148.731-214.817-109.088-119.921-218.324-186.084-219.415-186.739l.287.172z"/><path fill="#FF8630" d="M1187.13 580.898a80.14 80.14 0 0 0-7.118.334c-28.881-93.025-115.625-160.58-218.148-160.58-102.631 0-189.447 67.7-218.236 160.876-3.229-.4-6.51-.63-9.847-.63-43.801 0-79.31 35.508-79.31 79.31s35.508 79.31 79.31 79.31c6.014 0 11.864-.692 17.495-1.96a228.11 228.11 0 0 0 26.288 46.369h368.598a228.076 228.076 0 0 0 26.063-45.827 79.63 79.63 0 0 0 14.904 1.419c43.802 0 79.31-35.508 79.31-79.31s-35.507-79.311-79.309-79.311z"/><path d="M1147.177 785.926H776.551l-.599-.817a230.374 230.374 0 0 1-25.87-45.249 81.598 81.598 0 0 1-16.301 1.658c-44.834 0-81.31-36.476-81.31-81.31s36.475-81.31 81.31-81.31c2.763 0 5.536.149 8.432.455 14.395-45.385 43.338-86.103 81.643-114.805 40.071-30.025 87.793-45.896 138.008-45.896 50.159 0 97.841 15.839 137.888 45.805 38.293 28.652 67.256 69.321 81.69 114.653a78.495 78.495 0 0 1 5.688-.212c44.834 0 81.31 36.476 81.31 81.31s-36.476 81.31-81.31 81.31c-4.537 0-9.136-.393-13.692-1.168a230.445 230.445 0 0 1-25.661 44.759l-.6.817zm-368.595-4h366.565a226.388 226.388 0 0 0 25.237-44.606l.63-1.485 1.585.301a77.996 77.996 0 0 0 14.531 1.383c42.629 0 77.31-34.681 77.31-77.31s-34.681-77.31-77.31-77.31a77.42 77.42 0 0 0-6.939.326l-1.609.144-.479-1.543c-14.018-45.147-42.693-85.692-80.747-114.166-39.35-29.443-86.202-45.007-135.491-45.007-49.342 0-96.235 15.595-135.609 45.098-38.078 28.532-66.744 69.149-80.716 114.37l-.494 1.601-1.663-.207a77.354 77.354 0 0 0-9.601-.615c-42.628 0-77.31 34.681-77.31 77.31s34.681 77.31 77.31 77.31c5.688 0 11.426-.643 17.056-1.911l1.633-.368.649 1.544a226.361 226.361 0 0 0 25.462 45.141zM1173.221 920.532l.298 4.48c2.344 17.669-8.208 33.805-22.105 33.805H767.201c-14.648 0-25.364-17.817-21.722-36.118l.687-6.608C681.216 955.3 628.112 1012.146 593.494 1080h725.229c-33.334-65.338-83.815-120.463-145.502-159.468z"/><path fill="#DDF6C5" d="m692.958 642.324 47.748 53.677"/><path d="M740.706 698.001c-.551 0-1.1-.227-1.495-.671l-47.748-53.677a1.999 1.999 0 1 1 2.988-2.658l47.748 53.677a1.999 1.999 0 0 1-1.493 3.329z"/><path fill="#DDF6C5" d="m1229.76 643.14-49.52 52.045"/><path d="M1180.24 697.185a2.001 2.001 0 0 1-1.449-3.379l49.52-52.046a2.001 2.001 0 0 1 2.898 2.758l-49.52 52.046c-.393.413-.92.621-1.449.621z"/><path fill="#DDF6C5" d="m959.581 673.856-.736 43.869"/><path d="M958.846 719.725h-.034a2 2 0 0 1-1.966-2.033l.735-43.868a2 2 0 0 1 1.999-1.967h.034a2 2 0 0 1 1.966 2.033l-.735 43.868a2 2 0 0 1-1.999 1.967z"/><path fill="#FFF" d="M1061.272 611.172c-41.25 0-74.809 33.56-74.809 74.81 0 1.755.083 3.49.202 5.215a61.953 61.953 0 0 0-27.957-6.673 61.877 61.877 0 0 0-27.958 6.68c.12-1.728.203-3.465.203-5.222 0-41.25-33.559-74.81-74.809-74.81s-74.809 33.56-74.809 74.81 33.559 74.809 74.809 74.809c37.853 0 69.208-28.266 74.119-64.796 8.629-4.887 18.464-7.47 28.444-7.47 9.625 0 19.152 2.412 27.553 6.976.274.148.567.219.858.233 4.796 36.657 36.209 65.058 74.152 65.058 41.25 0 74.809-33.559 74.809-74.809s-33.557-74.811-74.807-74.811zM856.146 756.79c-39.044 0-70.809-31.765-70.809-70.809 0-39.045 31.765-70.81 70.809-70.81s70.809 31.765 70.809 70.81c-.001 39.044-31.766 70.809-70.809 70.809zm205.126 0c-39.044 0-70.809-31.765-70.809-70.809 0-39.045 31.765-70.81 70.809-70.81s70.809 31.765 70.809 70.81c0 39.044-31.765 70.809-70.809 70.809z"/><circle cx="856.145" cy="685.981" r="14.952"/><circle cx="1061.272" cy="685.981" r="14.952"/><path d="M984.062 737.387h-49.406a2 2 0 0 1 0-4h49.406a2 2 0 0 1 0 4z"/><circle cx="853.797" cy="497.974" r="6.982"/><circle cx="879.99" cy="480.179" r="6.982"/><circle cx="882.012" cy="509.301" r="6.982"/><path d="M1151.414 959.497H767.202c-6.364 0-12.374-3.053-16.924-8.598-6.292-7.668-8.886-19.085-6.779-29.817l12.583-121.097.018-.092c2.105-10.579 9.634-17.968 18.309-17.968h374.394c9.264 0 17.094 8.342 18.618 19.836l.014.13 8.075 121.604c1.373 10.48-1.521 20.975-7.749 28.082-4.475 5.108-10.281 7.92-16.347 7.92zM760.041 800.586l-12.583 121.093-.018.092c-1.913 9.614.359 19.804 5.93 26.592 3.775 4.601 8.688 7.135 13.832 7.135h384.212c4.897 0 9.634-2.328 13.338-6.556 5.492-6.269 8.028-15.609 6.784-24.986l-.014-.13-8.075-121.602c-1.276-9.448-7.428-16.298-14.645-16.298H774.409c-6.719 0-12.617 6.023-14.368 14.66z"/><path fill="#FF8630" d="m818.292 785.172-10.55 170.172"/><path d="M807.744 957.344a2 2 0 0 1-1.998-2.124l10.55-170.172a2 2 0 0 1 3.993.248l-10.55 170.172a2.002 2.002 0 0 1-1.995 1.876zM883.504 958.793l-.055-.001a2 2 0 0 1-1.946-2.053l4.605-171.621a2 2 0 0 1 4 .108l-4.605 171.621a2.001 2.001 0 0 1-1.999 1.946zM960.009 959.768a2 2 0 0 1-2-2V785.172a2 2 0 0 1 4 0v172.596a2 2 0 0 1-2 2z"/><path fill="#FF8630" d="m1101.577 785.172 10.55 170.172"/><path d="M1112.125 957.344a1.999 1.999 0 0 1-1.994-1.876l-10.55-170.172a2 2 0 0 1 1.872-2.12 2.007 2.007 0 0 1 2.12 1.872l10.55 170.172a2 2 0 0 1-1.998 2.124zM1036.365 958.793a2 2 0 0 1-1.998-1.946l-4.604-171.621a2 2 0 0 1 1.945-2.053 1.992 1.992 0 0 1 2.053 1.945l4.604 171.621a2 2 0 0 1-1.945 2.053l-.055.001zM1482.798 1074.832a2.001 2.001 0 0 1-1.939-1.515c-.043-.174-4.546-17.801-19.069-47.173-13.405-27.113-38.332-70.062-80.959-120.7-42.438-50.416-98.284-72.729-137.66-82.569-42.759-10.687-75.892-9.393-76.222-9.377-1.084.032-2.036-.808-2.085-1.911a2 2 0 0 1 1.91-2.085c.337-.015 33.945-1.34 77.239 9.461 39.988 9.976 96.717 32.631 139.878 83.905 42.945 51.018 68.06 94.321 81.564 121.665 14.676 29.712 19.103 47.089 19.284 47.813a2 2 0 0 1-1.941 2.486z"/><path fill="#FF8630" d="m1200.99 940.216 23.511-122.54"/><path d="M1200.992 942.216a2 2 0 0 1-1.966-2.377l23.511-122.54a2 2 0 1 1 3.928.754l-23.511 122.54a2 2 0 0 1-1.962 1.623z"/><path fill="#FF8630" d="m1239.236 973.261 77.576-123.081"/><path d="M1239.234 975.262a2 2 0 0 1-1.69-3.067l77.576-123.082a2.001 2.001 0 0 1 3.385 2.133l-77.576 123.082a2 2 0 0 1-1.695.934z"/><path fill="#FF8630" d="m1277.808 1018.334 113.98-100.979"/><path d="M1277.809 1020.334a2 2 0 0 1-1.327-3.497l113.98-100.979a2 2 0 0 1 2.652 2.994l-113.98 100.979a1.994 1.994 0 0 1-1.325.503z"/><path fill="#FF8630" d="m1309.445 1063.406 136.95-68.042"/><path d="M1309.447 1065.405a2 2 0 0 1-.892-3.791l136.949-68.041a2 2 0 1 1 1.78 3.582l-136.949 68.041a1.974 1.974 0 0 1-.888.209z"/><path fill="#FFF" d="M1134.125 242.33h-9.549l-22.263-78.589a69.96 69.96 0 0 0-10.458-20.773l-25.564-34.814c-1.104-1.503-2.249-2.977-3.489-4.37a53.417 53.417 0 0 1-11.85-22.267l-13.676-41.383C1031.24 16.594 1009.993 0 985.534 0h-15.517c-37.234 0-70.329 23.479-82.718 58.424-.485 1.369-.98 2.734-1.535 4.076l-30.703 74.329c-.507 1.229-.956 2.479-1.416 3.726a53.422 53.422 0 0 1-20.487 25.96l-10.488 6.992a53.418 53.418 0 0 0-22.434 32.497c-.265 1.156-.536 2.311-.868 3.449l-7.9 32.876h-5.594c-18.566 0-33.618 15.051-33.618 33.618v82.978c0 18.566 15.051 33.617 33.618 33.617h348.25c18.567 0 33.618-15.051 33.618-33.617v-82.978c.001-18.566-15.05-33.617-33.617-33.617z"/><path d="M1047.708 359.112H872.291c-17.309 0-31.341-14.032-31.341-31.341v-8.177c0-17.309 14.032-31.341 31.341-31.341h175.417c17.309 0 31.341 14.032 31.341 31.341v8.177c.001 17.309-14.031 31.341-31.341 31.341z"/><path fill="#FF8630" d="M885.882 334.568c0 .628-.406 1.034-1.218 1.034h-13.099c-.813 0-1.218-.406-1.218-1.034 0-.59.406-.996 1.218-.996.996 0 4.465.111 6.272.147v-11.956c-1.66.038-5.276.147-5.904.147-.811 0-1.217-.406-1.217-1.032 0-.59.406-.998 1.217-.998h6.9c.739 0 1.181.443 1.181 1.181v12.658c.998-.036 3.654-.147 4.65-.147.812 0 1.218.406 1.218.996zm-9.336-20.259c0-1.254.959-2.03 2.287-2.03 1.33 0 2.288.775 2.288 2.03 0 1.256-.958 2.03-2.288 2.03-1.329-.001-2.287-.774-2.287-2.03zM920.514 330.99c0 .59-.481 1.032-1.034 1.032-.185 0-.406-.074-.628-.147l-11.366-5.129c-.553-.258-.775-.553-.775-1.034 0-.479.296-.811.775-1.032l11.366-5.131c.222-.074.443-.147.628-.147.553 0 1.034.443 1.034 1.034 0 .406-.332.775-.813.996l-9.779 4.28 9.779 4.28c.481.222.813.592.813.998zM928.681 318.258c0-.407.185-.775.517-1.107 1.513-1.55 3.839-3.137 7.566-3.137 3.579 0 6.974 2.177 6.974 5.831 0 2.288-1.402 4.207-3.948 4.871 2.656.332 4.797 2.251 4.797 4.982 0 3.505-3.137 6.421-8.23 6.421-3.616 0-6.236-1.513-7.676-3.063-.406-.443-.664-.811-.664-1.291 0-.554.443-1.071 1.071-1.071.479 0 .811.258 1.291.775 1.588 1.771 3.765 2.547 5.978 2.547 3.137 0 5.904-1.662 5.904-4.28 0-2.62-2.62-3.727-5.756-3.765-.775 0-1.33-.332-1.33-1.07s.59-.996 1.292-1.07c2.879-.37 4.946-1.477 4.946-3.986 0-2.547-2.437-3.727-4.761-3.727-2.362 0-4.059.811-5.757 2.583-.443.407-.738.59-1.143.59-.628-.001-1.071-.406-1.071-1.033zM969.613 336.007c-.628 0-1.073-.443-1.073-1.181v-22.399c0-.738.409-1.181 1.109-1.181.628 0 1.07.443 1.07 1.181v9.298c1.106-1.623 2.99-2.251 5.018-2.251 3.69 0 6.127 2.215 6.127 6.642v8.709c0 .738-.406 1.181-1.106 1.181-.628 0-1.073-.443-1.073-1.181v-8.229c0-3.691-1.917-5.093-4.318-5.093-2.62 0-4.648 1.402-4.648 5.129v8.193c0 .739-.405 1.182-1.106 1.182zM1004.46 320.878c0 .626-.406 1.032-1.217 1.032-1.106 0-5.646-.11-7.269-.147v6.938c0 3.763 1.217 5.276 3.837 5.276.995 0 2.028-.258 2.584-.479.772-.296 1.106-.479 1.623-.479.517 0 .922.368.922.922 0 .664-.406.996-1.328 1.402-.775.332-2.326.664-3.801.664-4.207 0-6.016-2.177-6.016-7.27v-6.974c-1.106.038-3.284.147-4.354.147-.811 0-1.217-.406-1.217-1.032 0-.59.406-.998 1.217-.998h4.354v-5.535c0-.738.406-1.181 1.106-1.181.628 0 1.073.443 1.073 1.181v5.535h7.269c.811.001 1.217.408 1.217.998zM1015.358 321.505c-2.028 0-2.915 1.439-2.915 3.507v9.815c0 .738-.37 1.181-1.07 1.181-.628 0-1.034-.443-1.034-1.181v-14.17c0-.738.37-1.181 1.07-1.181.628 0 1.034.443 1.034 1.181v.59c.775-1.181 1.881-1.771 3.468-1.771 1.773 0 3.101.849 3.801 2.177.886-1.402 2.103-2.177 3.912-2.177 3.026 0 4.612 1.882 4.612 5.757v9.594c0 .738-.37 1.181-1.07 1.181-.628 0-1.034-.443-1.034-1.181v-9.483c0-2.473-.775-3.839-2.915-3.839-2.031 0-2.879 1.439-2.879 3.507v9.815c0 .738-.37 1.181-1.07 1.181-.628 0-1.034-.443-1.034-1.181v-9.815c.003-2.068-.845-3.507-2.876-3.507zM1034.892 313.645c-.811 0-1.217-.406-1.217-1.032 0-.59.406-.998 1.217-.998h6.604c.739 0 1.181.443 1.181 1.181v20.924c1.367-.036 5.021-.147 5.757-.147.811 0 1.22.406 1.22.996 0 .628-.409 1.034-1.22 1.034h-13.912c-.811 0-1.217-.406-1.217-1.034 0-.59.406-.996 1.217-.996.664 0 4.835.111 5.979.147v-20.222c-1.402.037-5.017.147-5.609.147z"/></svg>