<svg xmlns="http://www.w3.org/2000/svg" viewBox="0 0 1080 1080" xml:space="preserve"><path fill="#FF8630" d="M318.908 397.707c8.325-7.153 17.633-13.113 27.731-17.414 7.965-3.392 16.187-6.182 24.564-8.128 17.751-4.123 32.932-11.112 47.102-20.012 11.768-7.403 22.839-16.12 34.075-25.644l53.017-44.884 56.035-47.453s-.098-.114-.062-.136c12.994-10.998 14.61-30.455 3.606-43.447-11.006-13.005-30.462-14.616-43.458-3.616a30.41 30.41 0 0 0-2.111 1.978l-53.854 45.609-.174-.199 71.042-60.153s-.094-.112-.063-.135c12.994-10.998 14.61-30.452 3.611-43.455-11.01-12.99-30.467-14.61-43.459-3.603a29.447 29.447 0 0 0-2.113 1.98l-68.859 58.306-.173-.196 86.044-72.855s-.094-.117-.062-.133c12.991-11.007 14.604-30.466 3.605-43.461-11.011-12.993-30.465-14.609-43.457-3.604a29.543 29.543 0 0 0-2.107 1.975l-83.867 71.017-.173-.196 71.039-60.154s-.091-.115-.065-.141c13.001-11 14.613-30.458 3.61-43.446-11.006-13.001-30.463-14.614-43.458-3.608a31.39 31.39 0 0 0-2.111 1.979s-89.302 74.5-89.757 74.345L187.112 247.257l-24.861 17.6 122.125 162.518 34.532-29.668z"/><path d="M284.376 429.375a2.001 2.001 0 0 1-1.599-.799L160.652 266.059a1.998 1.998 0 0 1 .443-2.834l24.72-17.5 137.371-138.312c.136-.137.289-.252.453-.342 3.389-2.428 65.457-54.12 89.366-74.066a33.254 33.254 0 0 1 2.175-2.033c6.694-5.668 15.191-8.396 23.934-7.665 8.741.725 16.677 4.812 22.345 11.508 5.667 6.689 8.388 15.187 7.663 23.926a32.93 32.93 0 0 1-2.401 9.925l1.304-1.104a31.589 31.589 0 0 1 2.183-2.039c13.806-11.694 34.564-9.973 46.271 3.842 11.54 13.633 10.018 34.026-3.292 45.808a1.973 1.973 0 0 1-.484.606l-3.15 2.668c11.446-2.44 23.855 1.336 31.943 10.881 11.538 13.639 10.015 34.025-3.293 45.797a1.976 1.976 0 0 1-.487.612l-3.123 2.645a32.927 32.927 0 0 1 9.568-.594c8.741.727 16.677 4.814 22.344 11.511 5.667 6.69 8.389 15.188 7.663 23.928-.705 8.499-4.588 16.235-10.955 21.864-.119.23-.283.438-.484.609l-109.054 92.338c-13.391 11.35-23.97 19.31-34.302 25.81-15.614 9.807-31.222 16.437-47.716 20.268-7.891 1.834-16.044 4.533-24.231 8.021-9.632 4.103-18.787 9.853-27.212 17.091l-34.532 29.668c-.368.309-.83.479-1.306.479zm-119.29-164.074 119.606 159.166 32.912-28.276c8.736-7.507 18.242-13.475 28.252-17.737 8.4-3.579 16.776-6.35 24.894-8.237 16.055-3.729 31.262-10.191 46.492-19.757 10.165-6.396 20.604-14.253 33.846-25.476l108.514-91.882c.12-.225.282-.427.478-.593 5.877-4.975 9.464-11.94 10.101-19.615.638-7.675-1.753-15.138-6.729-21.013-4.978-5.882-11.945-9.472-19.622-10.109-7.677-.637-15.138 1.752-21.017 6.727a28.328 28.328 0 0 0-1.972 1.849 1.892 1.892 0 0 1-.139.13l-53.854 45.609a2 2 0 0 1-2.8-.212l-.174-.199a1.998 1.998 0 0 1 .215-2.841l70.502-59.695c.119-.225.281-.427.477-.593 12.131-10.268 13.645-28.497 3.375-40.636-10.28-12.132-28.511-13.645-40.638-3.369a27.033 27.033 0 0 0-1.974 1.85c-.045.046-.092.09-.141.131l-68.859 58.306a2.002 2.002 0 0 1-2.789-.2l-.174-.196a2.003 2.003 0 0 1 .205-2.853l85.508-72.4c.12-.223.281-.423.475-.587v-.001c12.129-10.276 13.642-28.509 3.371-40.643-10.279-12.132-28.512-13.643-40.638-3.37a27.434 27.434 0 0 0-1.968 1.845 1.723 1.723 0 0 1-.14.13l-83.867 71.018a2.002 2.002 0 0 1-2.789-.2l-.174-.196a2.003 2.003 0 0 1 .205-2.853l70.492-59.69a2.02 2.02 0 0 1 .482-.604c5.879-4.975 9.468-11.941 10.105-19.616.637-7.675-1.753-15.137-6.729-21.011-4.978-5.881-11.947-9.47-19.623-10.107-7.682-.635-15.139 1.755-21.017 6.732a29.371 29.371 0 0 0-1.977 1.854 2.651 2.651 0 0 1-.146.135s-22.326 18.626-44.71 37.232a12059.886 12059.886 0 0 1-30.838 25.567 2065.521 2065.521 0 0 1-10.24 8.41c-1.988 1.618-3.147 2.561-3.904 3.082l-137.42 138.361a2.029 2.029 0 0 1-.264.224l-23.181 16.409zm153.822 132.406h.01-.01zm5.697-290.886z"/><path fill="#FF8630" d="m197.981 235.451-.039-.041"/><path d="M197.952 237.441a1.946 1.946 0 0 1-1.402-.594l-.039-.04a2 2 0 1 1 2.863-2.793c.771.79.775 2.077-.016 2.848a2.012 2.012 0 0 1-1.406.579z"/><path fill="#FF8630" d="M177.483 253.948c12.629-7.811 19.981-25.249 23.197-34.762 4.679-20.184 32.283-43.697 50.047-57.222a94.515 94.515 0 0 1 5.438-3.798l107.453-81.893a34.596 34.596 0 0 1 2.313-1.952c14.294-10.872 34.692-8.1 45.566 6.188 10.869 14.29 8.098 34.687-6.188 45.562-.042.025.051.144.051.144l-69.697 62.323s15.798 37.345-10.65 90.207"/><path d="M325.011 280.744a2.001 2.001 0 0 1-1.788-2.895c25.679-51.326 10.749-88.17 10.596-88.535a2.003 2.003 0 0 1 .51-2.269l69.188-61.867c.139-.272.337-.514.581-.699l-.001-.001c13.386-10.189 15.991-29.372 5.808-42.76-10.189-13.389-29.371-15.993-42.763-5.807a32.185 32.185 0 0 0-2.171 1.832 1.626 1.626 0 0 1-.142.119l-107.453 81.893a2.586 2.586 0 0 1-.12.085 91.67 91.67 0 0 0-5.323 3.719c-20.109 15.312-44.992 37.473-49.305 56.077a1.77 1.77 0 0 1-.054.189c-3.346 9.895-10.918 27.706-24.04 35.823a2.001 2.001 0 0 1-2.104-3.402c12.018-7.434 19.135-24.207 22.323-33.61 4.644-19.744 30.156-42.576 50.761-58.264a96.518 96.518 0 0 1 5.496-3.844l107.321-81.792a35.756 35.756 0 0 1 2.379-2.002c15.156-11.529 36.853-8.582 48.377 6.562 11.372 14.952 8.645 36.292-5.999 47.923a2.002 2.002 0 0 1-.396.485l-68.67 61.404c2.612 7.293 12.856 42.402-11.221 90.529a1.997 1.997 0 0 1-1.79 1.107z"/><path fill="#FF8630" d="M764.829 400.917c-15.425-13.253-33.589-23.059-53.295-28.086-.91-.232-1.823-.455-2.737-.667-17.751-4.123-32.932-11.112-47.102-20.012-11.768-7.403-22.839-16.12-34.075-25.644l-53.017-44.884-56.035-47.453s.098-.114.062-.136c-12.994-10.998-14.61-30.455-3.606-43.447 11.006-13.005 30.462-14.616 43.458-3.616a30.41 30.41 0 0 1 2.111 1.978l53.854 45.609.174-.199-71.042-60.153s.094-.112.063-.135c-12.994-10.998-14.61-30.452-3.611-43.455 11.01-12.99 30.467-14.61 43.458-3.603a29.447 29.447 0 0 1 2.113 1.98l68.859 58.306.173-.196-86.044-72.855s.094-.117.062-.133c-12.991-11.007-14.604-30.466-3.605-43.461 11.011-12.993 30.465-14.609 43.457-3.604.746.628 1.44 1.292 2.107 1.975l83.867 71.017.173-.196-71.039-60.154s.091-.115.065-.141c-13.001-11-14.613-30.458-3.61-43.446 11.006-13.001 30.463-14.614 43.458-3.608a31.39 31.39 0 0 1 2.111 1.979s89.302 74.5 89.757 74.345l137.493 138.436 24.861 17.6-122.122 162.517-30.796-26.458z"/><path d="M795.624 429.375c-.476 0-.938-.17-1.304-.483l-30.795-26.458c-15.459-13.282-33.608-22.849-52.485-27.665a127.41 127.41 0 0 0-2.696-.656c-16.492-3.831-32.1-10.46-47.712-20.267-10.334-6.501-20.913-14.461-34.305-25.812l-109.053-92.337a2.018 2.018 0 0 1-.484-.609c-6.367-5.629-10.25-13.365-10.955-21.864-.726-8.739 1.996-17.237 7.663-23.929 5.667-6.695 13.603-10.783 22.344-11.51a32.993 32.993 0 0 1 9.568.594l-3.123-2.645a2 2 0 0 1-.487-.612c-13.308-11.772-14.831-32.158-3.295-45.796 8.089-9.542 20.493-13.314 31.947-10.88l-3.152-2.67a1.996 1.996 0 0 1-.484-.606c-13.31-11.781-14.832-32.175-3.293-45.807 11.706-13.815 32.464-15.536 46.276-3.839a31.624 31.624 0 0 1 2.178 2.035l1.304 1.104a32.9 32.9 0 0 1-2.401-9.925c-.725-8.739 1.996-17.236 7.663-23.927 5.668-6.695 13.604-10.782 22.345-11.507 8.735-.731 17.24 1.997 23.934 7.665a33.559 33.559 0 0 1 2.175 2.033c23.908 19.945 85.978 71.639 89.367 74.066.163.09.316.205.452.342l137.371 138.312 24.719 17.5a1.998 1.998 0 0 1 .443 2.834l-122.126 162.52a1.998 1.998 0 0 1-1.599.799zm-29.491-29.974 29.175 25.066 119.606-159.166-23.181-16.412a1.877 1.877 0 0 1-.264-.223L754.05 110.305c-.757-.521-1.915-1.464-3.904-3.082a2019.553 2019.553 0 0 1-10.24-8.41 12276.988 12276.988 0 0 1-30.838-25.567c-22.384-18.606-44.71-37.232-44.71-37.232a2.317 2.317 0 0 1-.146-.134 28.961 28.961 0 0 0-1.978-1.855c-5.877-4.979-13.353-7.367-21.017-6.732-7.676.638-14.646 4.227-19.623 10.106-4.977 5.875-7.366 13.337-6.729 21.012.638 7.675 4.227 14.642 10.105 19.616a2.025 2.025 0 0 1 .484.606l70.49 59.688a2.003 2.003 0 0 1 .205 2.853l-.174.196a2 2 0 0 1-2.789.2L609.32 70.552a1.723 1.723 0 0 1-.14-.13 27.48 27.48 0 0 0-1.963-1.841c-12.131-10.275-30.361-8.765-40.644 3.367-10.27 12.133-8.757 30.365 3.372 40.642v.001c.193.164.354.364.475.588l85.508 72.399a2.003 2.003 0 0 1 .205 2.853l-.174.196a2 2 0 0 1-2.789.2l-68.859-58.306a1.935 1.935 0 0 1-.141-.131 27.179 27.179 0 0 0-1.969-1.846c-12.129-10.278-30.36-8.766-40.645 3.366-10.268 12.138-8.754 30.367 3.377 40.635.195.166.357.368.477.593l70.502 59.695a1.998 1.998 0 0 1 .215 2.841l-.174.199a1.998 1.998 0 0 1-2.8.212L559.3 190.477a1.892 1.892 0 0 1-.139-.13 28.344 28.344 0 0 0-1.972-1.849c-5.878-4.975-13.347-7.359-21.017-6.727-7.677.638-14.645 4.228-19.622 10.108-4.977 5.876-7.367 13.339-6.729 21.014.637 7.675 4.224 14.641 10.101 19.615.195.166.357.368.478.593l108.513 91.881c13.243 11.224 23.682 19.081 33.849 25.478 15.44 9.697 30.213 15.976 46.489 19.756.93.217 1.855.441 2.779.678 19.469 4.967 38.178 14.824 54.103 28.507zM755.394 106.82z"/><path fill="#FF8630" d="m882.019 235.451.039-.041"/><path d="M882.028 237.421a1.974 1.974 0 0 1-1.386-.56c-.791-.771-.826-2.018-.055-2.808l.039-.04a1.999 1.999 0 1 1 2.863 2.793 2.03 2.03 0 0 1-1.461.615z"/><path fill="#FF8630" d="M902.518 253.948c-12.629-7.811-19.981-25.249-23.197-34.762-4.679-20.184-32.283-43.697-50.047-57.222a94.515 94.515 0 0 0-5.438-3.798L716.384 76.273a34.596 34.596 0 0 0-2.313-1.952c-14.294-10.872-34.692-8.1-45.566 6.188-10.869 14.29-8.098 34.687 6.188 45.562.042.025-.051.144-.051.144l69.697 62.323s-15.798 37.345 10.65 90.207"/><path d="M754.99 280.744a2 2 0 0 1-1.791-1.105c-24.077-48.127-13.833-83.236-11.221-90.529l-68.67-61.404a2.017 2.017 0 0 1-.396-.485c-14.644-11.631-17.371-32.971-5.999-47.923 11.523-15.143 33.221-18.09 48.368-6.568a36.1 36.1 0 0 1 2.388 2.009l107.321 81.792a95.704 95.704 0 0 1 5.49 3.839c20.61 15.692 46.123 38.524 50.767 58.269 3.188 9.403 10.306 26.177 22.323 33.61a2 2 0 0 1-2.104 3.402c-13.122-8.117-20.694-25.929-24.04-35.823a2.04 2.04 0 0 1-.054-.189c-4.312-18.604-29.195-40.766-49.311-56.082a92.209 92.209 0 0 0-5.317-3.714 2.586 2.586 0 0 1-.12-.085L715.172 77.863a1.626 1.626 0 0 1-.142-.119 32.023 32.023 0 0 0-2.18-1.839c-13.382-10.177-32.565-7.575-42.754 5.813-10.184 13.388-7.578 32.57 5.808 42.76l-.001.001c.244.186.442.427.581.699l69.188 61.867a2 2 0 0 1 .509 2.271c-.152.363-15.082 37.207 10.597 88.533a2.001 2.001 0 0 1-1.788 2.895zM311.352 435.009 162.588 234.178c-3.916 2.901-75.328 56.273-161.028 150.593v449.681C29.355 769.55 66.565 705.32 112.509 643.029c96.219-130.457 198.094-207.458 199.112-208.22l-.269.2z"/><path d="M1081.561 388.211c-87.082-96.468-160.184-151.097-164.148-154.033L768.649 435.009l-.269-.2c1.018.762 102.893 77.763 199.112 208.22 47.685 64.652 85.963 131.392 114.069 198.807V388.211z"/><path fill="#FF8630" d="M768.594 580.907c-2.401 0-4.772.125-7.119.334-28.888-93.044-115.649-160.614-218.195-160.614-102.653 0-189.487 67.714-218.283 160.911-3.229-.4-6.511-.63-9.849-.63-43.811 0-79.326 35.516-79.326 79.326 0 43.811 35.516 79.326 79.326 79.326a79.51 79.51 0 0 0 17.499-1.961 228.114 228.114 0 0 0 26.294 46.379h368.677a228.096 228.096 0 0 0 26.068-45.837 79.679 79.679 0 0 0 14.907 1.419c43.811 0 79.326-35.516 79.326-79.326.002-43.811-35.514-79.327-79.325-79.327z"/><path d="M728.632 785.978H357.928l-.6-.817a230.444 230.444 0 0 1-25.875-45.259 81.62 81.62 0 0 1-16.304 1.658c-44.844 0-81.327-36.482-81.327-81.326s36.483-81.326 81.327-81.326c2.724 0 5.554.153 8.434.455 14.397-45.395 43.348-86.122 81.66-114.829 40.08-30.032 87.812-45.906 138.037-45.906 50.17 0 97.861 15.842 137.917 45.813 38.302 28.659 67.271 69.337 81.707 114.679a78.542 78.542 0 0 1 5.689-.212c44.844 0 81.327 36.482 81.327 81.326s-36.483 81.326-81.327 81.326c-4.54 0-9.139-.393-13.695-1.168a230.454 230.454 0 0 1-25.667 44.769l-.599.817zm-368.674-4h366.644a226.318 226.318 0 0 0 25.243-44.617l.63-1.486 1.586.302a77.987 77.987 0 0 0 14.533 1.384c42.639 0 77.327-34.688 77.327-77.326s-34.688-77.326-77.327-77.326c-2.206 0-4.477.106-6.941.326l-1.609.144-.479-1.543c-14.02-45.157-42.702-85.711-80.764-114.19-39.358-29.45-86.221-45.017-135.521-45.017-49.354 0-96.256 15.598-135.639 45.107-38.087 28.538-66.758 69.164-80.732 114.394l-.495 1.6-1.662-.206a78.605 78.605 0 0 0-9.603-.614c-42.639 0-77.327 34.688-77.327 77.326s34.688 77.326 77.327 77.326c5.689 0 11.429-.643 17.059-1.911l1.633-.368.65 1.544a226.455 226.455 0 0 0 25.467 45.151zM754.683 920.498l.298 4.481c2.344 17.672-8.21 33.812-22.11 33.812H348.576c-14.651 0-25.369-17.821-21.727-36.125l.687-6.609c-64.963 39.216-118.079 96.075-152.704 163.943h725.383c-33.341-65.352-83.832-120.489-145.532-159.502z"/><path fill="#DDF6C5" d="m274.316 642.346 47.758 53.688"/><path d="M322.075 698.034a1.993 1.993 0 0 1-1.495-.671l-47.758-53.688a2 2 0 0 1 2.988-2.658l47.758 53.688a2 2 0 0 1-1.493 3.329z"/><path fill="#DDF6C5" d="m811.233 643.162-49.531 52.056"/><path d="M761.702 697.218a2.001 2.001 0 0 1-1.449-3.379l49.53-52.056a2.001 2.001 0 0 1 2.898 2.758l-49.53 52.056a1.995 1.995 0 0 1-1.449.621z"/><path fill="#DDF6C5" d="m540.996 673.884-.735 43.879"/><path d="M540.262 719.763h-.034a2.002 2.002 0 0 1-1.967-2.033l.735-43.878a2 2 0 0 1 1.999-1.967h.034a2.002 2.002 0 0 1 1.967 2.033l-.735 43.878a2 2 0 0 1-1.999 1.967z"/><path fill="#FFF" d="M642.709 611.188c-41.258 0-74.824 33.566-74.824 74.824 0 1.755.083 3.491.202 5.217a61.889 61.889 0 0 0-55.926.006c.12-1.728.203-3.466.203-5.223 0-41.258-33.566-74.824-74.824-74.824s-74.824 33.566-74.824 74.824 33.566 74.824 74.824 74.824c37.86 0 69.222-28.272 74.134-64.809 8.632-4.889 18.469-7.473 28.451-7.473 9.627 0 19.157 2.413 27.559 6.978.274.148.567.219.858.233 4.797 36.664 36.217 65.072 74.168 65.072 41.259 0 74.825-33.566 74.825-74.824s-33.567-74.825-74.826-74.825zm-205.17 145.648c-39.053 0-70.824-31.771-70.824-70.824s31.771-70.824 70.824-70.824 70.824 31.771 70.824 70.824-31.771 70.824-70.824 70.824zm205.17 0c-39.053 0-70.824-31.771-70.824-70.824s31.771-70.824 70.824-70.824 70.825 31.771 70.825 70.824-31.772 70.824-70.825 70.824z"/><circle cx="437.539" cy="686.012" r="14.955"/><circle cx="642.709" cy="686.012" r="14.955"/><path d="M565.482 737.429h-49.416a2 2 0 0 1 0-4h49.416a2 2 0 0 1 0 4z"/><circle cx="435.19" cy="497.965" r="6.984"/><circle cx="461.389" cy="480.166" r="6.984"/><circle cx="463.411" cy="509.294" r="6.984"/><path d="M732.87 959.586H348.576c-6.365 0-12.377-3.054-16.927-8.599-6.294-7.67-8.889-19.089-6.78-29.824l12.604-121.215c2.104-10.581 9.635-17.971 18.312-17.971h374.474c9.266 0 17.097 8.344 18.621 19.84l.013.13 8.079 121.63c1.372 10.482-1.523 20.979-7.752 28.087-4.476 5.109-10.282 7.922-16.35 7.922zM341.414 800.64 328.81 921.852c-1.914 9.616.359 19.809 5.931 26.599 3.776 4.602 8.69 7.136 13.835 7.136H732.87c4.898 0 9.637-2.329 13.342-6.558 5.493-6.27 8.03-15.612 6.786-24.992l-.014-.13-8.078-121.627c-1.276-9.449-7.429-16.302-14.647-16.302H355.785c-6.722 0-12.621 6.024-14.371 14.662z"/><path fill="#FF8630" d="m399.677 785.224-10.552 170.208"/><path d="M389.127 957.432a2 2 0 0 1-1.998-2.124L397.682 785.1a2 2 0 1 1 3.992.248l-10.553 170.208a2 2 0 0 1-1.994 1.876zM464.903 958.882l-.055-.001a1.998 1.998 0 0 1-1.945-2.053l4.605-171.658a2 2 0 1 1 3.998.108l-4.605 171.658a2 2 0 0 1-1.998 1.946zM541.425 959.857a2 2 0 0 1-2-2V785.224a2 2 0 0 1 4 0v172.633a2 2 0 0 1-2 2z"/><path fill="#FF8630" d="m683.023 785.224 10.552 170.208"/><path d="M693.573 957.432a1.999 1.999 0 0 1-1.994-1.876l-10.553-170.208a1.999 1.999 0 1 1 3.992-.248l10.553 170.208a2 2 0 0 1-1.998 2.124zM617.797 958.882a2 2 0 0 1-1.998-1.946l-4.605-171.658a2 2 0 0 1 1.945-2.053c1.142-.056 2.023.841 2.053 1.945l4.605 171.658a2 2 0 0 1-1.945 2.053l-.055.001zM1064.325 1074.945a2 2 0 0 1-1.939-1.515c-.044-.174-4.547-17.804-19.073-47.184-13.408-27.118-38.341-70.076-80.977-120.726-42.448-50.428-98.306-72.745-137.69-82.587-42.765-10.688-75.904-9.394-76.237-9.379a2.01 2.01 0 0 1-2.085-1.911 2 2 0 0 1 1.91-2.085c.333-.016 33.954-1.34 77.255 9.462 39.997 9.979 96.737 32.639 139.908 83.924 42.954 51.029 68.073 94.342 81.582 121.691 14.678 29.718 19.106 47.099 19.288 47.823a2 2 0 0 1-1.942 2.487z"/><path fill="#FF8630" d="m782.457 940.301 23.516-122.566"/><path d="M782.459 942.301a2 2 0 0 1-1.966-2.377l23.517-122.565a2 2 0 1 1 3.928.754l-23.517 122.565a2.001 2.001 0 0 1-1.962 1.623z"/><path fill="#FF8630" d="m820.712 973.354 77.592-123.108"/><path d="M820.71 975.354a2 2 0 0 1-1.69-3.067l77.592-123.107a2 2 0 0 1 3.385 2.133L822.404 974.42a1.998 1.998 0 0 1-1.694.934z"/><path fill="#FF8630" d="m859.291 1018.435 114.005-101"/><path d="M859.292 1020.436a2 2 0 0 1-1.327-3.497L971.97 915.938a2 2 0 1 1 2.652 2.994l-114.005 101.001a1.992 1.992 0 0 1-1.325.503z"/><path fill="#FF8630" d="m890.935 1063.517 136.979-68.056"/><path d="M890.938 1065.517a2 2 0 0 1-.892-3.791l136.979-68.056a2 2 0 1 1 1.78 3.582l-136.979 68.056c-.286.142-.59.209-.888.209z"/><path fill="#FFF" d="M714.169 242.382h-7.868l-23.957-78.606a69.992 69.992 0 0 0-10.46-20.778l-25.57-34.822c-1.104-1.503-2.25-2.978-3.49-4.37a53.438 53.438 0 0 1-11.853-22.271l-13.679-41.392C611.255 16.597 590.004 0 565.54 0h-15.52c-37.242 0-70.344 23.484-82.736 58.437-.485 1.369-.98 2.735-1.535 4.077l-30.709 74.344c-.508 1.229-.957 2.48-1.417 3.727a53.439 53.439 0 0 1-20.491 25.966l-10.49 6.993a53.43 53.43 0 0 0-22.439 32.504c-.265 1.156-.536 2.311-.869 3.45l-9.323 32.884h-4.181c-18.566 0-33.618 15.051-33.618 33.618v83.01c0 18.566 15.051 33.618 33.618 33.618h348.339c18.566 0 33.618-15.051 33.618-33.618V276c0-18.567-15.051-33.618-33.618-33.618z"/><path d="M627.734 359.189H452.266c-17.309 0-31.341-14.032-31.341-31.341v-8.192c0-17.309 14.032-31.341 31.341-31.341h175.468c17.309 0 31.341 14.032 31.341 31.341v8.192c0 17.309-14.032 31.341-31.341 31.341z"/><path fill="#FF8630" d="M465.866 334.64c0 .628-.406 1.034-1.219 1.034h-13.102c-.813 0-1.219-.406-1.219-1.034 0-.591.406-.996 1.219-.996.996 0 4.466.111 6.274.147v-11.958c-1.66.038-5.277.147-5.906.147-.811 0-1.217-.406-1.217-1.032 0-.591.406-.998 1.217-.998h6.902c.739 0 1.181.443 1.181 1.181v12.66c.998-.036 3.655-.147 4.651-.147.813-.001 1.219.405 1.219.996zm-9.338-20.264c0-1.255.959-2.03 2.287-2.03 1.33 0 2.289.775 2.289 2.03 0 1.256-.959 2.03-2.289 2.03-1.328 0-2.287-.774-2.287-2.03zM500.505 331.06c0 .591-.481 1.032-1.034 1.032-.185 0-.406-.074-.628-.147l-11.368-5.13c-.553-.258-.775-.553-.775-1.034 0-.479.296-.811.775-1.032l11.368-5.132c.222-.074.443-.147.628-.147.553 0 1.034.443 1.034 1.034 0 .406-.332.775-.813.996l-9.781 4.281 9.781 4.281c.481.223.813.592.813.998zM508.674 318.326c0-.407.185-.775.517-1.108 1.513-1.551 3.839-3.138 7.568-3.138 3.579 0 6.976 2.177 6.976 5.832 0 2.289-1.402 4.208-3.949 4.872 2.657.332 4.798 2.251 4.798 4.983 0 3.506-3.138 6.423-8.232 6.423-3.617 0-6.238-1.513-7.677-3.064-.406-.443-.664-.811-.664-1.291 0-.554.443-1.071 1.071-1.071.479 0 .811.258 1.291.775 1.588 1.772 3.766 2.547 5.979 2.547 3.138 0 5.906-1.662 5.906-4.281 0-2.621-2.621-3.728-5.757-3.766-.775 0-1.33-.332-1.33-1.07s.591-.996 1.292-1.07c2.879-.37 4.947-1.477 4.947-3.987 0-2.547-2.437-3.728-4.762-3.728-2.362 0-4.06.811-5.758 2.583-.443.407-.738.591-1.144.591-.629.001-1.072-.405-1.072-1.032zM549.615 336.079c-.628 0-1.073-.443-1.073-1.181v-22.404c0-.738.409-1.181 1.109-1.181.628 0 1.07.443 1.07 1.181v9.3c1.106-1.623 2.99-2.251 5.019-2.251 3.691 0 6.128 2.215 6.128 6.643v8.711c0 .738-.406 1.181-1.106 1.181-.628 0-1.073-.443-1.073-1.181v-8.23c0-3.692-1.917-5.094-4.319-5.094-2.621 0-4.649 1.402-4.649 5.13v8.194c0 .739-.405 1.182-1.106 1.182zM584.469 320.947c0 .627-.406 1.032-1.217 1.032-1.106 0-5.647-.11-7.27-.147v6.939c0 3.764 1.217 5.277 3.838 5.277a7.71 7.71 0 0 0 2.585-.479c.772-.296 1.106-.479 1.623-.479.517 0 .923.368.923.923 0 .664-.406.996-1.328 1.402-.775.332-2.326.664-3.802.664-4.208 0-6.017-2.177-6.017-7.272v-6.976c-1.106.038-3.285.147-4.355.147-.811 0-1.217-.406-1.217-1.032 0-.591.406-.998 1.217-.998h4.355v-5.536c0-.738.406-1.181 1.106-1.181.628 0 1.073.443 1.073 1.181v5.536h7.27c.81.001 1.216.408 1.216.999zM595.37 321.574c-2.029 0-2.915 1.44-2.915 3.507v9.817c0 .738-.37 1.181-1.07 1.181-.628 0-1.034-.443-1.034-1.181v-14.173c0-.738.37-1.181 1.07-1.181.628 0 1.034.443 1.034 1.181v.591c.775-1.181 1.881-1.772 3.468-1.772 1.773 0 3.102.849 3.802 2.177.887-1.402 2.104-2.177 3.913-2.177 3.026 0 4.613 1.883 4.613 5.758v9.596c0 .738-.37 1.181-1.07 1.181-.628 0-1.034-.443-1.034-1.181v-9.485c0-2.473-.775-3.839-2.915-3.839-2.032 0-2.879 1.44-2.879 3.507v9.817c0 .738-.37 1.181-1.07 1.181-.628 0-1.034-.443-1.034-1.181v-9.817c0-2.068-.848-3.507-2.879-3.507zM614.908 313.711c-.811 0-1.217-.406-1.217-1.032 0-.591.406-.998 1.217-.998h6.606c.739 0 1.181.443 1.181 1.181v20.928c1.367-.036 5.022-.147 5.758-.147.811 0 1.22.406 1.22.996 0 .628-.409 1.034-1.22 1.034h-13.915c-.811 0-1.217-.406-1.217-1.034 0-.591.406-.996 1.217-.996.664 0 4.836.111 5.981.147v-20.226c-1.404.038-5.019.147-5.611.147z"/></svg>