<svg width="791" height="275" viewBox="0 0 791 275" fill="none" xmlns="http://www.w3.org/2000/svg">
<rect width="791" height="275" fill="white"/>
<path d="M48.3828 170.18V161.42H49.4628V162.68H49.4748C49.5308 162.248 49.7188 161.912 50.0388 161.672C50.3668 161.424 50.7788 161.3 51.2748 161.3C51.9388 161.3 52.4668 161.52 52.8588 161.96C53.2588 162.392 53.4588 162.988 53.4588 163.748V165.68C53.4588 166.44 53.2588 167.04 52.8588 167.48C52.4668 167.92 51.9388 168.14 51.2748 168.14C50.7788 168.14 50.3708 168.016 50.0508 167.768C49.7308 167.52 49.5388 167.184 49.4748 166.76H49.4388L49.4628 168.26V170.18H48.3828ZM50.9148 167.204C51.3708 167.204 51.7268 167.068 51.9828 166.796C52.2468 166.524 52.3788 166.132 52.3788 165.62V163.82C52.3788 163.308 52.2468 162.916 51.9828 162.644C51.7268 162.372 51.3708 162.236 50.9148 162.236C50.4748 162.236 50.1228 162.376 49.8588 162.656C49.5948 162.936 49.4628 163.324 49.4628 163.82V165.62C49.4628 166.116 49.5948 166.504 49.8588 166.784C50.1228 167.064 50.4748 167.204 50.9148 167.204ZM55.8061 168.02V161.42H56.8621V162.596C57.0781 161.732 57.6581 161.3 58.6021 161.3C59.2981 161.3 59.8501 161.52 60.2581 161.96C60.6741 162.392 60.8821 162.98 60.8821 163.724V164.12H59.8021V163.82C59.8021 163.3 59.6741 162.904 59.4181 162.632C59.1701 162.352 58.8141 162.212 58.3501 162.212C57.8941 162.212 57.5341 162.352 57.2701 162.632C57.0141 162.912 56.8861 163.308 56.8861 163.82V168.02H55.8061ZM65.2694 168.116C64.4694 168.116 63.8374 167.892 63.3734 167.444C62.9174 166.988 62.6894 166.372 62.6894 165.596V163.844C62.6894 163.06 62.9174 162.444 63.3734 161.996C63.8374 161.548 64.4694 161.324 65.2694 161.324C66.0694 161.324 66.6974 161.548 67.1534 161.996C67.6174 162.444 67.8494 163.056 67.8494 163.832V165.596C67.8494 166.372 67.6174 166.988 67.1534 167.444C66.6974 167.892 66.0694 168.116 65.2694 168.116ZM65.2694 167.156C65.7414 167.156 66.1094 167.024 66.3734 166.76C66.6374 166.496 66.7694 166.108 66.7694 165.596V163.844C66.7694 163.332 66.6374 162.944 66.3734 162.68C66.1094 162.416 65.7414 162.284 65.2694 162.284C64.8054 162.284 64.4374 162.416 64.1654 162.68C63.9014 162.944 63.7694 163.332 63.7694 163.844V165.596C63.7694 166.108 63.9014 166.496 64.1654 166.76C64.4374 167.024 64.8054 167.156 65.2694 167.156ZM73.1847 168.02C72.6167 168.02 72.1727 167.868 71.8527 167.564C71.5407 167.26 71.3847 166.832 71.3847 166.28V162.404H69.5247V161.42H71.3847V159.56H72.4647V161.42H75.1047V162.404H72.4647V166.28C72.4647 166.784 72.7047 167.036 73.1847 167.036H74.9847V168.02H73.1847ZM79.6601 168.116C78.8601 168.116 78.2281 167.892 77.7641 167.444C77.3081 166.988 77.0801 166.372 77.0801 165.596V163.844C77.0801 163.06 77.3081 162.444 77.7641 161.996C78.2281 161.548 78.8601 161.324 79.6601 161.324C80.4601 161.324 81.0881 161.548 81.5441 161.996C82.0081 162.444 82.2401 163.056 82.2401 163.832V165.596C82.2401 166.372 82.0081 166.988 81.5441 167.444C81.0881 167.892 80.4601 168.116 79.6601 168.116ZM79.6601 167.156C80.1321 167.156 80.5001 167.024 80.7641 166.76C81.0281 166.496 81.1601 166.108 81.1601 165.596V163.844C81.1601 163.332 81.0281 162.944 80.7641 162.68C80.5001 162.416 80.1321 162.284 79.6601 162.284C79.1961 162.284 78.8281 162.416 78.5561 162.68C78.2921 162.944 78.1601 163.332 78.1601 163.844V165.596C78.1601 166.108 78.2921 166.496 78.5561 166.76C78.8281 167.024 79.1961 167.156 79.6601 167.156ZM86.9034 168.14C86.1034 168.14 85.4634 167.916 84.9834 167.468C84.5114 167.02 84.2754 166.404 84.2754 165.62V163.82C84.2754 163.036 84.5114 162.42 84.9834 161.972C85.4634 161.524 86.1034 161.3 86.9034 161.3C87.6634 161.3 88.2754 161.504 88.7394 161.912C89.2034 162.32 89.4474 162.876 89.4714 163.58H88.3914C88.3674 163.156 88.2234 162.832 87.9594 162.608C87.7034 162.376 87.3514 162.26 86.9034 162.26C86.4314 162.26 86.0554 162.396 85.7754 162.668C85.4954 162.932 85.3554 163.312 85.3554 163.808V165.62C85.3554 166.116 85.4954 166.5 85.7754 166.772C86.0554 167.044 86.4314 167.18 86.9034 167.18C87.3514 167.18 87.7034 167.064 87.9594 166.832C88.2234 166.6 88.3674 166.276 88.3914 165.86H89.4714C89.4474 166.564 89.2034 167.12 88.7394 167.528C88.2754 167.936 87.6634 168.14 86.9034 168.14ZM94.0507 168.116C93.2507 168.116 92.6187 167.892 92.1547 167.444C91.6987 166.988 91.4707 166.372 91.4707 165.596V163.844C91.4707 163.06 91.6987 162.444 92.1547 161.996C92.6187 161.548 93.2507 161.324 94.0507 161.324C94.8507 161.324 95.4787 161.548 95.9347 161.996C96.3987 162.444 96.6307 163.056 96.6307 163.832V165.596C96.6307 166.372 96.3987 166.988 95.9347 167.444C95.4787 167.892 94.8507 168.116 94.0507 168.116ZM94.0507 167.156C94.5227 167.156 94.8907 167.024 95.1547 166.76C95.4187 166.496 95.5507 166.108 95.5507 165.596V163.844C95.5507 163.332 95.4187 162.944 95.1547 162.68C94.8907 162.416 94.5227 162.284 94.0507 162.284C93.5867 162.284 93.2187 162.416 92.9467 162.68C92.6827 162.944 92.5507 163.332 92.5507 163.844V165.596C92.5507 166.108 92.6827 166.496 92.9467 166.76C93.2187 167.024 93.5867 167.156 94.0507 167.156ZM102.206 168.02C101.622 168.02 101.154 167.852 100.802 167.516C100.458 167.172 100.286 166.72 100.286 166.16V160.244H98.006V159.26H101.366V166.16C101.366 166.432 101.442 166.648 101.594 166.808C101.746 166.96 101.95 167.036 102.206 167.036H104.246V168.02H102.206Z" fill="black"/>
<path d="M178.207 169.686V160.926H179.287V164.346H179.299C179.355 163.906 179.535 163.566 179.839 163.326C180.143 163.086 180.547 162.966 181.051 162.966C181.715 162.966 182.243 163.17 182.635 163.578C183.027 163.986 183.223 164.542 183.223 165.246V169.686H182.143V165.366C182.143 164.894 182.015 164.53 181.759 164.274C181.511 164.01 181.171 163.878 180.739 163.878C180.291 163.878 179.935 164.018 179.671 164.298C179.415 164.578 179.287 164.974 179.287 165.486V169.686H178.207ZM187.898 169.782C187.098 169.782 186.466 169.558 186.002 169.11C185.546 168.654 185.318 168.038 185.318 167.262V165.51C185.318 164.726 185.546 164.11 186.002 163.662C186.466 163.214 187.098 162.99 187.898 162.99C188.698 162.99 189.326 163.214 189.782 163.662C190.246 164.11 190.478 164.722 190.478 165.498V167.262C190.478 168.038 190.246 168.654 189.782 169.11C189.326 169.558 188.698 169.782 187.898 169.782ZM187.898 168.822C188.37 168.822 188.738 168.69 189.002 168.426C189.266 168.162 189.398 167.774 189.398 167.262V165.51C189.398 164.998 189.266 164.61 189.002 164.346C188.738 164.082 188.37 163.95 187.898 163.95C187.434 163.95 187.066 164.082 186.794 164.346C186.53 164.61 186.398 164.998 186.398 165.51V167.262C186.398 167.774 186.53 168.162 186.794 168.426C187.066 168.69 187.434 168.822 187.898 168.822ZM194.89 169.782C194.209 169.782 193.669 169.63 193.269 169.326C192.869 169.014 192.637 168.594 192.573 168.066H193.653C193.701 168.298 193.829 168.482 194.037 168.618C194.253 168.754 194.537 168.822 194.89 168.822H195.393C195.817 168.822 196.133 168.738 196.341 168.57C196.549 168.394 196.653 168.162 196.653 167.874C196.653 167.33 196.281 166.998 195.537 166.878L194.649 166.734C194.001 166.622 193.517 166.422 193.197 166.134C192.885 165.838 192.729 165.41 192.729 164.85C192.729 164.258 192.917 163.802 193.293 163.482C193.669 163.154 194.233 162.99 194.985 162.99H195.442C196.074 162.99 196.582 163.138 196.966 163.434C197.349 163.73 197.581 164.13 197.661 164.634H196.582C196.533 164.426 196.413 164.262 196.222 164.142C196.029 164.014 195.769 163.95 195.442 163.95H194.985C194.577 163.95 194.277 164.026 194.085 164.178C193.901 164.33 193.809 164.558 193.809 164.862C193.809 165.134 193.889 165.334 194.049 165.462C194.209 165.59 194.461 165.682 194.806 165.738L195.694 165.882C196.405 165.994 196.921 166.202 197.242 166.506C197.57 166.81 197.734 167.25 197.734 167.826C197.734 168.434 197.538 168.914 197.145 169.266C196.761 169.61 196.177 169.782 195.393 169.782H194.89ZM203.009 169.686C202.441 169.686 201.997 169.534 201.677 169.23C201.365 168.926 201.209 168.498 201.209 167.946V164.07H199.349V163.086H201.209V161.226H202.289V163.086H204.929V164.07H202.289V167.946C202.289 168.45 202.529 168.702 203.009 168.702H204.809V169.686H203.009ZM206.988 169.686V163.086H208.068V164.346H208.08C208.136 163.906 208.316 163.566 208.62 163.326C208.924 163.086 209.328 162.966 209.832 162.966C210.496 162.966 211.024 163.17 211.416 163.578C211.808 163.986 212.004 164.542 212.004 165.246V169.686H210.924V165.366C210.924 164.894 210.796 164.534 210.54 164.286C210.292 164.03 209.952 163.902 209.52 163.902C209.072 163.902 208.716 164.038 208.452 164.31C208.196 164.582 208.068 164.974 208.068 165.486V169.686H206.988ZM216.103 169.806C215.407 169.806 214.859 169.63 214.459 169.278C214.059 168.918 213.859 168.434 213.859 167.826C213.859 167.21 214.059 166.726 214.459 166.374C214.859 166.022 215.399 165.846 216.079 165.846H218.119V165.186C218.119 164.786 217.995 164.474 217.747 164.25C217.507 164.026 217.163 163.914 216.715 163.914C216.323 163.914 215.999 163.998 215.743 164.166C215.487 164.326 215.331 164.546 215.275 164.826H214.195C214.267 164.258 214.535 163.806 214.999 163.47C215.463 163.134 216.043 162.966 216.739 162.966C217.499 162.966 218.099 163.162 218.539 163.554C218.979 163.946 219.199 164.478 219.199 165.15V169.686H218.143V168.426H218.131C218.083 168.85 217.875 169.186 217.507 169.434C217.147 169.682 216.679 169.806 216.103 169.806ZM216.367 168.954C216.879 168.954 217.299 168.826 217.627 168.57C217.955 168.314 218.119 167.986 218.119 167.586V166.65H216.103C215.743 166.65 215.459 166.75 215.251 166.95C215.043 167.15 214.939 167.422 214.939 167.766C214.939 168.134 215.063 168.426 215.311 168.642C215.567 168.85 215.919 168.954 216.367 168.954ZM221.067 169.686V163.086H222.015V163.878H222.087C222.135 163.598 222.251 163.378 222.435 163.218C222.627 163.05 222.867 162.966 223.155 162.966C223.723 162.966 224.083 163.27 224.235 163.878H224.283C224.331 163.598 224.451 163.378 224.643 163.218C224.843 163.05 225.087 162.966 225.375 162.966C225.791 162.966 226.111 163.122 226.335 163.434C226.567 163.746 226.683 164.158 226.683 164.67V169.686H225.687V164.658C225.687 164.386 225.627 164.174 225.507 164.022C225.395 163.87 225.227 163.794 225.003 163.794C224.787 163.794 224.615 163.87 224.487 164.022C224.367 164.166 224.307 164.374 224.307 164.646V169.686H223.443V164.658C223.443 164.378 223.379 164.166 223.251 164.022C223.131 163.87 222.959 163.794 222.735 163.794C222.511 163.794 222.343 163.87 222.231 164.022C222.119 164.166 222.063 164.374 222.063 164.646V169.686H221.067ZM231.07 169.806C230.55 169.806 230.094 169.702 229.702 169.494C229.318 169.286 229.018 168.994 228.802 168.618C228.594 168.234 228.49 167.79 228.49 167.286V165.486C228.49 164.974 228.594 164.53 228.802 164.154C229.018 163.778 229.318 163.486 229.702 163.278C230.094 163.07 230.55 162.966 231.07 162.966C231.59 162.966 232.042 163.07 232.426 163.278C232.818 163.486 233.118 163.778 233.326 164.154C233.542 164.53 233.65 164.974 233.65 165.486V166.65H229.546V167.286C229.546 167.806 229.678 168.206 229.942 168.486C230.206 168.758 230.582 168.894 231.07 168.894C231.486 168.894 231.822 168.822 232.078 168.678C232.334 168.526 232.49 168.302 232.546 168.006H233.626C233.554 168.558 233.282 168.998 232.81 169.326C232.346 169.646 231.766 169.806 231.07 169.806ZM229.546 165.834H232.594V165.486C232.594 164.966 232.462 164.566 232.198 164.286C231.942 164.006 231.566 163.866 231.07 163.866C230.582 163.866 230.206 164.006 229.942 164.286C229.678 164.566 229.546 164.966 229.546 165.486V165.834Z" fill="black"/>
<path d="M221.826 197.991V189.231H222.906V192.651H222.918C222.974 192.211 223.154 191.871 223.458 191.631C223.762 191.391 224.166 191.271 224.67 191.271C225.334 191.271 225.862 191.475 226.254 191.883C226.646 192.291 226.842 192.847 226.842 193.551V197.991H225.762V193.671C225.762 193.199 225.634 192.835 225.378 192.579C225.13 192.315 224.79 192.183 224.358 192.183C223.91 192.183 223.554 192.323 223.29 192.603C223.034 192.883 222.906 193.279 222.906 193.791V197.991H221.826ZM231.518 198.087C230.718 198.087 230.086 197.863 229.622 197.415C229.166 196.959 228.938 196.343 228.938 195.567V193.815C228.938 193.031 229.166 192.415 229.622 191.967C230.086 191.519 230.718 191.295 231.518 191.295C232.318 191.295 232.946 191.519 233.402 191.967C233.866 192.415 234.098 193.027 234.098 193.803V195.567C234.098 196.343 233.866 196.959 233.402 197.415C232.946 197.863 232.318 198.087 231.518 198.087ZM231.518 197.127C231.99 197.127 232.358 196.995 232.622 196.731C232.886 196.467 233.018 196.079 233.018 195.567V193.815C233.018 193.303 232.886 192.915 232.622 192.651C232.358 192.387 231.99 192.255 231.518 192.255C231.054 192.255 230.686 192.387 230.414 192.651C230.15 192.915 230.018 193.303 230.018 193.815V195.567C230.018 196.079 230.15 196.467 230.414 196.731C230.686 196.995 231.054 197.127 231.518 197.127ZM238.509 198.087C237.829 198.087 237.289 197.935 236.889 197.631C236.489 197.319 236.257 196.899 236.193 196.371H237.273C237.321 196.603 237.449 196.787 237.657 196.923C237.873 197.059 238.157 197.127 238.509 197.127H239.013C239.437 197.127 239.753 197.043 239.961 196.875C240.169 196.699 240.273 196.467 240.273 196.179C240.273 195.635 239.901 195.303 239.157 195.183L238.269 195.039C237.621 194.927 237.137 194.727 236.817 194.439C236.505 194.143 236.349 193.715 236.349 193.155C236.349 192.563 236.537 192.107 236.913 191.787C237.289 191.459 237.853 191.295 238.605 191.295H239.061C239.693 191.295 240.201 191.443 240.585 191.739C240.969 192.035 241.201 192.435 241.281 192.939H240.201C240.153 192.731 240.033 192.567 239.841 192.447C239.649 192.319 239.389 192.255 239.061 192.255H238.605C238.197 192.255 237.897 192.331 237.705 192.483C237.521 192.635 237.429 192.863 237.429 193.167C237.429 193.439 237.509 193.639 237.669 193.767C237.829 193.895 238.081 193.987 238.425 194.043L239.313 194.187C240.025 194.299 240.541 194.507 240.861 194.811C241.189 195.115 241.353 195.555 241.353 196.131C241.353 196.739 241.157 197.219 240.765 197.571C240.381 197.915 239.797 198.087 239.013 198.087H238.509ZM246.628 197.991C246.06 197.991 245.616 197.839 245.296 197.535C244.984 197.231 244.828 196.803 244.828 196.251V192.375H242.968V191.391H244.828V189.531H245.908V191.391H248.548V192.375H245.908V196.251C245.908 196.755 246.148 197.007 246.628 197.007H248.428V197.991H246.628Z" fill="black"/>
<path d="M167.453 233.45C166.653 233.45 166.021 233.226 165.557 232.778C165.101 232.322 164.873 231.706 164.873 230.93V229.178C164.873 228.394 165.101 227.778 165.557 227.33C166.021 226.882 166.653 226.658 167.453 226.658C168.253 226.658 168.881 226.882 169.337 227.33C169.801 227.778 170.033 228.39 170.033 229.166V230.93C170.033 231.706 169.801 232.322 169.337 232.778C168.881 233.226 168.253 233.45 167.453 233.45ZM167.453 232.49C167.925 232.49 168.293 232.358 168.557 232.094C168.821 231.83 168.953 231.442 168.953 230.93V229.178C168.953 228.666 168.821 228.278 168.557 228.014C168.293 227.75 167.925 227.618 167.453 227.618C166.989 227.618 166.621 227.75 166.349 228.014C166.085 228.278 165.953 228.666 165.953 229.178V230.93C165.953 231.442 166.085 231.83 166.349 232.094C166.621 232.358 166.989 232.49 167.453 232.49ZM172.38 233.354V226.754H173.436V227.93C173.652 227.066 174.232 226.634 175.176 226.634C175.872 226.634 176.424 226.854 176.832 227.294C177.248 227.726 177.456 228.314 177.456 229.058V229.454H176.376V229.154C176.376 228.634 176.248 228.238 175.992 227.966C175.744 227.686 175.388 227.546 174.924 227.546C174.468 227.546 174.108 227.686 173.844 227.966C173.588 228.246 173.46 228.642 173.46 229.154V233.354H172.38ZM179.263 233.354V232.37H181.603V227.738H179.563V226.754H182.683V232.37H184.903V233.354H179.263ZM182.023 225.566C181.759 225.566 181.551 225.498 181.399 225.362C181.247 225.226 181.171 225.042 181.171 224.81C181.171 224.57 181.247 224.382 181.399 224.246C181.551 224.102 181.759 224.03 182.023 224.03C182.287 224.03 182.495 224.102 182.647 224.246C182.799 224.382 182.875 224.57 182.875 224.81C182.875 225.042 182.799 225.226 182.647 225.362C182.495 225.498 182.287 225.566 182.023 225.566ZM187.371 235.514V234.53H189.471C190.119 234.53 190.443 234.218 190.443 233.594V232.754L190.467 231.554H190.443C190.403 231.978 190.223 232.314 189.903 232.562C189.591 232.81 189.187 232.934 188.691 232.934C188.011 232.934 187.475 232.714 187.083 232.274C186.691 231.826 186.495 231.226 186.495 230.474V229.082C186.495 228.33 186.691 227.734 187.083 227.294C187.475 226.854 188.011 226.634 188.691 226.634C189.187 226.634 189.591 226.758 189.903 227.006C190.223 227.254 190.403 227.59 190.443 228.014H190.455V226.754H191.523V233.594C191.523 234.186 191.339 234.654 190.971 234.998C190.611 235.342 190.107 235.514 189.459 235.514H187.371ZM189.015 231.998C189.463 231.998 189.815 231.858 190.071 231.578C190.327 231.298 190.455 230.91 190.455 230.414V229.154C190.455 228.658 190.327 228.27 190.071 227.99C189.815 227.71 189.463 227.57 189.015 227.57C188.559 227.57 188.203 227.706 187.947 227.978C187.699 228.25 187.575 228.642 187.575 229.154V230.414C187.575 230.926 187.699 231.318 187.947 231.59C188.203 231.862 188.559 231.998 189.015 231.998ZM193.654 233.354V232.37H195.994V227.738H193.954V226.754H197.074V232.37H199.294V233.354H193.654ZM196.414 225.566C196.15 225.566 195.942 225.498 195.79 225.362C195.638 225.226 195.562 225.042 195.562 224.81C195.562 224.57 195.638 224.382 195.79 224.246C195.942 224.102 196.15 224.03 196.414 224.03C196.678 224.03 196.886 224.102 197.038 224.246C197.19 224.382 197.266 224.57 197.266 224.81C197.266 225.042 197.19 225.226 197.038 225.362C196.886 225.498 196.678 225.566 196.414 225.566ZM200.933 233.354V226.754H202.013V228.014H202.025C202.081 227.574 202.261 227.234 202.565 226.994C202.869 226.754 203.273 226.634 203.777 226.634C204.441 226.634 204.969 226.838 205.361 227.246C205.753 227.654 205.949 228.21 205.949 228.914V233.354H204.869V229.034C204.869 228.562 204.741 228.202 204.485 227.954C204.237 227.698 203.897 227.57 203.465 227.57C203.017 227.57 202.661 227.706 202.397 227.978C202.141 228.25 202.013 228.642 202.013 229.154V233.354H200.933Z" fill="black"/>
<path d="M293.212 171.846V163.086H294.292V164.346H294.304C294.36 163.914 294.548 163.578 294.868 163.338C295.196 163.09 295.608 162.966 296.104 162.966C296.768 162.966 297.296 163.186 297.688 163.626C298.088 164.058 298.288 164.654 298.288 165.414V167.346C298.288 168.106 298.088 168.706 297.688 169.146C297.296 169.586 296.768 169.806 296.104 169.806C295.608 169.806 295.2 169.682 294.88 169.434C294.56 169.186 294.368 168.85 294.304 168.426H294.268L294.292 169.926V171.846H293.212ZM295.744 168.87C296.2 168.87 296.556 168.734 296.812 168.462C297.076 168.19 297.208 167.798 297.208 167.286V165.486C297.208 164.974 297.076 164.582 296.812 164.31C296.556 164.038 296.2 163.902 295.744 163.902C295.304 163.902 294.952 164.042 294.688 164.322C294.424 164.602 294.292 164.99 294.292 165.486V167.286C294.292 167.782 294.424 168.17 294.688 168.45C294.952 168.73 295.304 168.87 295.744 168.87ZM302.903 169.782C302.103 169.782 301.471 169.558 301.007 169.11C300.551 168.654 300.323 168.038 300.323 167.262V165.51C300.323 164.726 300.551 164.11 301.007 163.662C301.471 163.214 302.103 162.99 302.903 162.99C303.703 162.99 304.331 163.214 304.787 163.662C305.251 164.11 305.483 164.722 305.483 165.498V167.262C305.483 168.038 305.251 168.654 304.787 169.11C304.331 169.558 303.703 169.782 302.903 169.782ZM302.903 168.822C303.375 168.822 303.743 168.69 304.007 168.426C304.271 168.162 304.403 167.774 304.403 167.262V165.51C304.403 164.998 304.271 164.61 304.007 164.346C303.743 164.082 303.375 163.95 302.903 163.95C302.439 163.95 302.071 164.082 301.799 164.346C301.535 164.61 301.403 164.998 301.403 165.51V167.262C301.403 167.774 301.535 168.162 301.799 168.426C302.071 168.69 302.439 168.822 302.903 168.822ZM307.83 169.686V163.086H308.886V164.262C309.102 163.398 309.682 162.966 310.626 162.966C311.322 162.966 311.874 163.186 312.282 163.626C312.698 164.058 312.906 164.646 312.906 165.39V165.786H311.826V165.486C311.826 164.966 311.698 164.57 311.442 164.298C311.194 164.018 310.838 163.878 310.374 163.878C309.918 163.878 309.558 164.018 309.294 164.298C309.038 164.578 308.91 164.974 308.91 165.486V169.686H307.83ZM318.013 169.686C317.445 169.686 317.001 169.534 316.681 169.23C316.369 168.926 316.213 168.498 316.213 167.946V164.07H314.353V163.086H316.213V161.226H317.293V163.086H319.933V164.07H317.293V167.946C317.293 168.45 317.533 168.702 318.013 168.702H319.813V169.686H318.013Z" fill="black"/>
<path d="M381.428 171.846V163.086H382.508V164.346H382.52C382.576 163.914 382.764 163.578 383.084 163.338C383.412 163.09 383.824 162.966 384.32 162.966C384.984 162.966 385.512 163.186 385.904 163.626C386.304 164.058 386.504 164.654 386.504 165.414V167.346C386.504 168.106 386.304 168.706 385.904 169.146C385.512 169.586 384.984 169.806 384.32 169.806C383.824 169.806 383.416 169.682 383.096 169.434C382.776 169.186 382.584 168.85 382.52 168.426H382.484L382.508 169.926V171.846H381.428ZM383.96 168.87C384.416 168.87 384.772 168.734 385.028 168.462C385.292 168.19 385.424 167.798 385.424 167.286V165.486C385.424 164.974 385.292 164.582 385.028 164.31C384.772 164.038 384.416 163.902 383.96 163.902C383.52 163.902 383.168 164.042 382.904 164.322C382.64 164.602 382.508 164.99 382.508 165.486V167.286C382.508 167.782 382.64 168.17 382.904 168.45C383.168 168.73 383.52 168.87 383.96 168.87ZM390.543 169.806C389.847 169.806 389.299 169.63 388.899 169.278C388.499 168.918 388.299 168.434 388.299 167.826C388.299 167.21 388.499 166.726 388.899 166.374C389.299 166.022 389.839 165.846 390.519 165.846H392.559V165.186C392.559 164.786 392.435 164.474 392.187 164.25C391.947 164.026 391.603 163.914 391.155 163.914C390.763 163.914 390.439 163.998 390.183 164.166C389.927 164.326 389.771 164.546 389.715 164.826H388.635C388.707 164.258 388.975 163.806 389.439 163.47C389.903 163.134 390.483 162.966 391.179 162.966C391.939 162.966 392.539 163.162 392.979 163.554C393.419 163.946 393.639 164.478 393.639 165.15V169.686H392.583V168.426H392.571C392.523 168.85 392.315 169.186 391.947 169.434C391.587 169.682 391.119 169.806 390.543 169.806ZM390.807 168.954C391.319 168.954 391.739 168.826 392.067 168.57C392.395 168.314 392.559 167.986 392.559 167.586V166.65H390.543C390.183 166.65 389.899 166.75 389.691 166.95C389.483 167.15 389.379 167.422 389.379 167.766C389.379 168.134 389.503 168.426 389.751 168.642C390.007 168.85 390.359 168.954 390.807 168.954ZM399.034 169.686C398.466 169.686 398.022 169.534 397.702 169.23C397.39 168.926 397.234 168.498 397.234 167.946V164.07H395.374V163.086H397.234V161.226H398.314V163.086H400.954V164.07H398.314V167.946C398.314 168.45 398.554 168.702 399.034 168.702H400.834V169.686H399.034ZM403.014 169.686V160.926H404.094V164.346H404.106C404.162 163.906 404.342 163.566 404.646 163.326C404.95 163.086 405.354 162.966 405.858 162.966C406.522 162.966 407.05 163.17 407.442 163.578C407.834 163.986 408.03 164.542 408.03 165.246V169.686H406.95V165.366C406.95 164.894 406.822 164.53 406.566 164.274C406.318 164.01 405.978 163.878 405.546 163.878C405.098 163.878 404.742 164.018 404.478 164.298C404.222 164.578 404.094 164.974 404.094 165.486V169.686H403.014ZM410.209 169.686V163.086H411.289V164.346H411.301C411.357 163.906 411.537 163.566 411.841 163.326C412.145 163.086 412.549 162.966 413.053 162.966C413.717 162.966 414.245 163.17 414.637 163.578C415.029 163.986 415.225 164.542 415.225 165.246V169.686H414.145V165.366C414.145 164.894 414.017 164.534 413.761 164.286C413.513 164.03 413.173 163.902 412.741 163.902C412.293 163.902 411.937 164.038 411.673 164.31C411.417 164.582 411.289 164.974 411.289 165.486V169.686H410.209ZM419.324 169.806C418.628 169.806 418.08 169.63 417.68 169.278C417.28 168.918 417.08 168.434 417.08 167.826C417.08 167.21 417.28 166.726 417.68 166.374C418.08 166.022 418.62 165.846 419.3 165.846H421.34V165.186C421.34 164.786 421.216 164.474 420.968 164.25C420.728 164.026 420.384 163.914 419.936 163.914C419.544 163.914 419.22 163.998 418.964 164.166C418.708 164.326 418.552 164.546 418.496 164.826H417.416C417.488 164.258 417.756 163.806 418.22 163.47C418.684 163.134 419.264 162.966 419.96 162.966C420.72 162.966 421.32 163.162 421.76 163.554C422.2 163.946 422.42 164.478 422.42 165.15V169.686H421.364V168.426H421.352C421.304 168.85 421.096 169.186 420.728 169.434C420.368 169.682 419.9 169.806 419.324 169.806ZM419.588 168.954C420.1 168.954 420.52 168.826 420.848 168.57C421.176 168.314 421.34 167.986 421.34 167.586V166.65H419.324C418.964 166.65 418.68 166.75 418.472 166.95C418.264 167.15 418.16 167.422 418.16 167.766C418.16 168.134 418.284 168.426 418.532 168.642C418.788 168.85 419.14 168.954 419.588 168.954ZM424.288 169.686V163.086H425.236V163.878H425.308C425.356 163.598 425.472 163.378 425.656 163.218C425.848 163.05 426.088 162.966 426.376 162.966C426.944 162.966 427.304 163.27 427.456 163.878H427.504C427.552 163.598 427.672 163.378 427.864 163.218C428.064 163.05 428.308 162.966 428.596 162.966C429.012 162.966 429.332 163.122 429.556 163.434C429.788 163.746 429.904 164.158 429.904 164.67V169.686H428.908V164.658C428.908 164.386 428.848 164.174 428.728 164.022C428.616 163.87 428.448 163.794 428.224 163.794C428.008 163.794 427.836 163.87 427.708 164.022C427.588 164.166 427.528 164.374 427.528 164.646V169.686H426.664V164.658C426.664 164.378 426.6 164.166 426.472 164.022C426.352 163.87 426.18 163.794 425.956 163.794C425.732 163.794 425.564 163.87 425.452 164.022C425.34 164.166 425.284 164.374 425.284 164.646V169.686H424.288ZM434.291 169.806C433.771 169.806 433.315 169.702 432.923 169.494C432.539 169.286 432.239 168.994 432.023 168.618C431.815 168.234 431.711 167.79 431.711 167.286V165.486C431.711 164.974 431.815 164.53 432.023 164.154C432.239 163.778 432.539 163.486 432.923 163.278C433.315 163.07 433.771 162.966 434.291 162.966C434.811 162.966 435.263 163.07 435.647 163.278C436.039 163.486 436.339 163.778 436.547 164.154C436.763 164.53 436.871 164.974 436.871 165.486V166.65H432.767V167.286C432.767 167.806 432.899 168.206 433.163 168.486C433.427 168.758 433.803 168.894 434.291 168.894C434.707 168.894 435.043 168.822 435.299 168.678C435.555 168.526 435.711 168.302 435.767 168.006H436.847C436.775 168.558 436.503 168.998 436.031 169.326C435.567 169.646 434.987 169.806 434.291 169.806ZM432.767 165.834H435.815V165.486C435.815 164.966 435.683 164.566 435.419 164.286C435.163 164.006 434.787 163.866 434.291 163.866C433.803 163.866 433.427 164.006 433.163 164.286C432.899 164.566 432.767 164.966 432.767 165.486V165.834Z" fill="black"/>
<path d="M541.477 169.782C540.797 169.782 540.257 169.63 539.857 169.326C539.457 169.014 539.225 168.594 539.161 168.066H540.241C540.289 168.298 540.417 168.482 540.625 168.618C540.841 168.754 541.125 168.822 541.477 168.822H541.981C542.405 168.822 542.721 168.738 542.929 168.57C543.137 168.394 543.241 168.162 543.241 167.874C543.241 167.33 542.869 166.998 542.125 166.878L541.237 166.734C540.589 166.622 540.105 166.422 539.785 166.134C539.473 165.838 539.317 165.41 539.317 164.85C539.317 164.258 539.505 163.802 539.881 163.482C540.257 163.154 540.821 162.99 541.573 162.99H542.029C542.661 162.99 543.169 163.138 543.553 163.434C543.937 163.73 544.169 164.13 544.249 164.634H543.169C543.121 164.426 543.001 164.262 542.809 164.142C542.617 164.014 542.357 163.95 542.029 163.95H541.573C541.165 163.95 540.865 164.026 540.673 164.178C540.489 164.33 540.397 164.558 540.397 164.862C540.397 165.134 540.477 165.334 540.637 165.462C540.797 165.59 541.049 165.682 541.393 165.738L542.281 165.882C542.993 165.994 543.509 166.202 543.829 166.506C544.157 166.81 544.321 167.25 544.321 167.826C544.321 168.434 544.125 168.914 543.733 169.266C543.349 169.61 542.765 169.782 541.981 169.782H541.477ZM548.876 169.806C548.356 169.806 547.9 169.702 547.508 169.494C547.124 169.286 546.824 168.994 546.608 168.618C546.4 168.234 546.296 167.79 546.296 167.286V165.486C546.296 164.974 546.4 164.53 546.608 164.154C546.824 163.778 547.124 163.486 547.508 163.278C547.9 163.07 548.356 162.966 548.876 162.966C549.396 162.966 549.848 163.07 550.232 163.278C550.624 163.486 550.924 163.778 551.132 164.154C551.348 164.53 551.456 164.974 551.456 165.486V166.65H547.352V167.286C547.352 167.806 547.484 168.206 547.748 168.486C548.012 168.758 548.388 168.894 548.876 168.894C549.292 168.894 549.628 168.822 549.884 168.678C550.14 168.526 550.296 168.302 550.352 168.006H551.432C551.36 168.558 551.088 168.998 550.616 169.326C550.152 169.646 549.572 169.806 548.876 169.806ZM547.352 165.834H550.4V165.486C550.4 164.966 550.268 164.566 550.004 164.286C549.748 164.006 549.372 163.866 548.876 163.866C548.388 163.866 548.012 164.006 547.748 164.286C547.484 164.566 547.352 164.966 547.352 165.486V165.834ZM555.495 169.806C554.799 169.806 554.251 169.63 553.851 169.278C553.451 168.918 553.251 168.434 553.251 167.826C553.251 167.21 553.451 166.726 553.851 166.374C554.251 166.022 554.791 165.846 555.471 165.846H557.511V165.186C557.511 164.786 557.387 164.474 557.139 164.25C556.899 164.026 556.555 163.914 556.107 163.914C555.715 163.914 555.391 163.998 555.135 164.166C554.879 164.326 554.723 164.546 554.667 164.826H553.587C553.659 164.258 553.927 163.806 554.391 163.47C554.855 163.134 555.435 162.966 556.131 162.966C556.891 162.966 557.491 163.162 557.931 163.554C558.371 163.946 558.591 164.478 558.591 165.15V169.686H557.535V168.426H557.523C557.475 168.85 557.267 169.186 556.899 169.434C556.539 169.682 556.071 169.806 555.495 169.806ZM555.759 168.954C556.271 168.954 556.691 168.826 557.019 168.57C557.347 168.314 557.511 167.986 557.511 167.586V166.65H555.495C555.135 166.65 554.851 166.75 554.643 166.95C554.435 167.15 554.331 167.422 554.331 167.766C554.331 168.134 554.455 168.426 554.703 168.642C554.959 168.85 555.311 168.954 555.759 168.954ZM560.999 169.686V163.086H562.055V164.262C562.271 163.398 562.851 162.966 563.795 162.966C564.491 162.966 565.043 163.186 565.451 163.626C565.867 164.058 566.075 164.646 566.075 165.39V165.786H564.995V165.486C564.995 164.966 564.867 164.57 564.611 164.298C564.363 164.018 564.007 163.878 563.543 163.878C563.087 163.878 562.727 164.018 562.463 164.298C562.207 164.578 562.079 164.974 562.079 165.486V169.686H560.999ZM570.51 169.806C569.71 169.806 569.07 169.582 568.59 169.134C568.118 168.686 567.882 168.07 567.882 167.286V165.486C567.882 164.702 568.118 164.086 568.59 163.638C569.07 163.19 569.71 162.966 570.51 162.966C571.27 162.966 571.882 163.17 572.346 163.578C572.81 163.986 573.054 164.542 573.078 165.246H571.998C571.974 164.822 571.83 164.498 571.566 164.274C571.31 164.042 570.958 163.926 570.51 163.926C570.038 163.926 569.662 164.062 569.382 164.334C569.102 164.598 568.962 164.978 568.962 165.474V167.286C568.962 167.782 569.102 168.166 569.382 168.438C569.662 168.71 570.038 168.846 570.51 168.846C570.958 168.846 571.31 168.73 571.566 168.498C571.83 168.266 571.974 167.942 571.998 167.526H573.078C573.054 168.23 572.81 168.786 572.346 169.194C571.882 169.602 571.27 169.806 570.51 169.806ZM575.161 169.686V160.926H576.241V164.346H576.253C576.309 163.906 576.489 163.566 576.793 163.326C577.097 163.086 577.501 162.966 578.005 162.966C578.669 162.966 579.197 163.17 579.589 163.578C579.981 163.986 580.177 164.542 580.177 165.246V169.686H579.097V165.366C579.097 164.894 578.969 164.53 578.713 164.274C578.465 164.01 578.125 163.878 577.693 163.878C577.245 163.878 576.889 164.018 576.625 164.298C576.369 164.578 576.241 164.974 576.241 165.486V169.686H575.161Z" fill="black"/>
<path d="M676.8 169.686V160.926H677.88V164.346H677.892C677.948 163.906 678.128 163.566 678.432 163.326C678.736 163.086 679.14 162.966 679.644 162.966C680.308 162.966 680.836 163.17 681.228 163.578C681.62 163.986 681.816 164.542 681.816 165.246V169.686H680.736V165.366C680.736 164.894 680.608 164.53 680.352 164.274C680.104 164.01 679.764 163.878 679.332 163.878C678.884 163.878 678.528 164.018 678.264 164.298C678.008 164.578 677.88 164.974 677.88 165.486V169.686H676.8ZM685.915 169.806C685.219 169.806 684.671 169.63 684.271 169.278C683.871 168.918 683.671 168.434 683.671 167.826C683.671 167.21 683.871 166.726 684.271 166.374C684.671 166.022 685.211 165.846 685.891 165.846H687.931V165.186C687.931 164.786 687.807 164.474 687.559 164.25C687.319 164.026 686.975 163.914 686.527 163.914C686.135 163.914 685.811 163.998 685.555 164.166C685.299 164.326 685.143 164.546 685.087 164.826H684.007C684.079 164.258 684.347 163.806 684.811 163.47C685.275 163.134 685.855 162.966 686.551 162.966C687.311 162.966 687.911 163.162 688.351 163.554C688.791 163.946 689.011 164.478 689.011 165.15V169.686H687.955V168.426H687.943C687.895 168.85 687.687 169.186 687.319 169.434C686.959 169.682 686.491 169.806 685.915 169.806ZM686.179 168.954C686.691 168.954 687.111 168.826 687.439 168.57C687.767 168.314 687.931 167.986 687.931 167.586V166.65H685.915C685.555 166.65 685.271 166.75 685.063 166.95C684.855 167.15 684.751 167.422 684.751 167.766C684.751 168.134 684.875 168.426 685.123 168.642C685.379 168.85 685.731 168.954 686.179 168.954ZM693.483 169.782C692.803 169.782 692.263 169.63 691.863 169.326C691.463 169.014 691.231 168.594 691.167 168.066H692.247C692.295 168.298 692.423 168.482 692.631 168.618C692.847 168.754 693.131 168.822 693.483 168.822H693.987C694.411 168.822 694.727 168.738 694.935 168.57C695.143 168.394 695.247 168.162 695.247 167.874C695.247 167.33 694.875 166.998 694.131 166.878L693.243 166.734C692.595 166.622 692.111 166.422 691.791 166.134C691.479 165.838 691.323 165.41 691.323 164.85C691.323 164.258 691.511 163.802 691.887 163.482C692.263 163.154 692.827 162.99 693.579 162.99H694.035C694.667 162.99 695.175 163.138 695.559 163.434C695.943 163.73 696.175 164.13 696.255 164.634H695.175C695.127 164.426 695.007 164.262 694.815 164.142C694.623 164.014 694.363 163.95 694.035 163.95H693.579C693.171 163.95 692.871 164.026 692.679 164.178C692.495 164.33 692.403 164.558 692.403 164.862C692.403 165.134 692.483 165.334 692.643 165.462C692.803 165.59 693.055 165.682 693.399 165.738L694.287 165.882C694.999 165.994 695.515 166.202 695.835 166.506C696.163 166.81 696.327 167.25 696.327 167.826C696.327 168.434 696.131 168.914 695.739 169.266C695.355 169.61 694.771 169.782 693.987 169.782H693.483ZM698.386 169.686V160.926H699.466V164.346H699.478C699.534 163.906 699.714 163.566 700.018 163.326C700.322 163.086 700.726 162.966 701.23 162.966C701.894 162.966 702.422 163.17 702.814 163.578C703.206 163.986 703.402 164.542 703.402 165.246V169.686H702.322V165.366C702.322 164.894 702.194 164.53 701.938 164.274C701.69 164.01 701.35 163.878 700.918 163.878C700.47 163.878 700.114 164.018 699.85 164.298C699.594 164.578 699.466 164.974 699.466 165.486V169.686H698.386Z" fill="black"/>
<path d="M381.282 90.9473V80.7273H382.542V84.7173H382.556C382.621 84.2039 382.831 83.8073 383.186 83.5273C383.541 83.2473 384.012 83.1073 384.6 83.1073C385.375 83.1073 385.991 83.3453 386.448 83.8213C386.905 84.2973 387.134 84.9459 387.134 85.7673V90.9473H385.874V85.9073C385.874 85.3566 385.725 84.9319 385.426 84.6333C385.137 84.3253 384.74 84.1713 384.236 84.1713C383.713 84.1713 383.298 84.3346 382.99 84.6613C382.691 84.9879 382.542 85.4499 382.542 86.0473V90.9473H381.282ZM389.942 90.9473V83.2473H391.174V84.6193C391.426 83.6113 392.103 83.1073 393.204 83.1073C394.016 83.1073 394.66 83.3639 395.136 83.8773C395.622 84.3813 395.864 85.0673 395.864 85.9353V86.3973H394.604V86.0473C394.604 85.4406 394.455 84.9786 394.156 84.6613C393.867 84.3346 393.452 84.1713 392.91 84.1713C392.378 84.1713 391.958 84.3346 391.65 84.6613C391.352 84.9879 391.202 85.4499 391.202 86.0473V90.9473H389.942ZM400.983 91.0873C400.376 91.0873 399.844 90.9659 399.387 90.7233C398.939 90.4806 398.589 90.1399 398.337 89.7013C398.094 89.2533 397.973 88.7353 397.973 88.1473V86.0473C397.973 85.4499 398.094 84.9319 398.337 84.4933C398.589 84.0546 398.939 83.7139 399.387 83.4713C399.844 83.2286 400.376 83.1073 400.983 83.1073C401.59 83.1073 402.117 83.2286 402.565 83.4713C403.022 83.7139 403.372 84.0546 403.615 84.4933C403.867 84.9319 403.993 85.4499 403.993 86.0473V87.4053H399.205V88.1473C399.205 88.7539 399.359 89.2206 399.667 89.5473C399.975 89.8646 400.414 90.0233 400.983 90.0233C401.468 90.0233 401.86 89.9393 402.159 89.7713C402.458 89.5939 402.64 89.3326 402.705 88.9873H403.965C403.881 89.6313 403.564 90.1446 403.013 90.5273C402.472 90.9006 401.795 91.0873 400.983 91.0873ZM399.205 86.4533H402.761V86.0473C402.761 85.4406 402.607 84.9739 402.299 84.6473C402 84.3206 401.562 84.1573 400.983 84.1573C400.414 84.1573 399.975 84.3206 399.667 84.6473C399.359 84.9739 399.205 85.4406 399.205 86.0473V86.4533ZM408.258 90.9473V85.1653H406.018V84.0173H408.258V82.6873C408.258 82.0806 408.449 81.6046 408.832 81.2593C409.214 80.9046 409.742 80.7273 410.414 80.7273H412.668V81.8753H410.414C409.816 81.8753 409.518 82.1459 409.518 82.6873V84.0173H412.668V85.1653H409.518V90.9473H408.258Z" fill="black"/>
<path d="M45.294 135.194V120.594H47.094V126.294H47.114C47.2074 125.56 47.5074 124.994 48.014 124.594C48.5207 124.194 49.194 123.994 50.034 123.994C51.1407 123.994 52.0207 124.334 52.674 125.014C53.3274 125.694 53.654 126.62 53.654 127.794V135.194H51.854V127.994C51.854 127.207 51.6407 126.6 51.214 126.174C50.8007 125.734 50.234 125.514 49.514 125.514C48.7674 125.514 48.174 125.747 47.734 126.214C47.3074 126.68 47.094 127.34 47.094 128.194V135.194H45.294ZM62.6462 135.194C61.6996 135.194 60.9596 134.94 60.4262 134.434C59.9062 133.927 59.6462 133.214 59.6462 132.294V125.834H56.5462V124.194H59.6462V121.094H61.4462V124.194H65.8462V125.834H61.4462V132.294C61.4462 133.134 61.8462 133.554 62.6462 133.554H65.6462V135.194H62.6462ZM74.6384 135.194C73.6917 135.194 72.9517 134.94 72.4184 134.434C71.8984 133.927 71.6384 133.214 71.6384 132.294V125.834H68.5384V124.194H71.6384V121.094H73.4384V124.194H77.8384V125.834H73.4384V132.294C73.4384 133.134 73.8384 133.554 74.6384 133.554H77.6384V135.194H74.6384ZM81.2706 138.794V124.194H83.0706V126.294H83.0906C83.1839 125.574 83.4973 125.014 84.0306 124.614C84.5773 124.2 85.2639 123.994 86.0906 123.994C87.1973 123.994 88.0773 124.36 88.7306 125.094C89.3973 125.814 89.7306 126.807 89.7306 128.074V131.294C89.7306 132.56 89.3973 133.56 88.7306 134.294C88.0773 135.027 87.1973 135.394 86.0906 135.394C85.2639 135.394 84.5839 135.187 84.0506 134.774C83.5173 134.36 83.1973 133.8 83.0906 133.094H83.0306L83.0706 135.594V138.794H81.2706ZM85.4906 133.834C86.2506 133.834 86.8439 133.607 87.2706 133.154C87.7106 132.7 87.9306 132.047 87.9306 131.194V128.194C87.9306 127.34 87.7106 126.687 87.2706 126.234C86.8439 125.78 86.2506 125.554 85.4906 125.554C84.7573 125.554 84.1706 125.787 83.7306 126.254C83.2906 126.72 83.0706 127.367 83.0706 128.194V131.194C83.0706 132.02 83.2906 132.667 83.7306 133.134C84.1706 133.6 84.7573 133.834 85.4906 133.834ZM97.0828 135.354C95.9495 135.354 95.0495 135.1 94.3828 134.594C93.7161 134.074 93.3295 133.374 93.2228 132.494H95.0228C95.1028 132.88 95.3161 133.187 95.6628 133.414C96.0228 133.64 96.4961 133.754 97.0828 133.754H97.9228C98.6295 133.754 99.1561 133.614 99.5028 133.334C99.8495 133.04 100.023 132.654 100.023 132.174C100.023 131.267 99.4028 130.714 98.1628 130.514L96.6828 130.274C95.6028 130.087 94.7961 129.754 94.2628 129.274C93.7428 128.78 93.4828 128.067 93.4828 127.134C93.4828 126.147 93.7961 125.387 94.4228 124.854C95.0495 124.307 95.9895 124.034 97.2428 124.034H98.0028C99.0561 124.034 99.9028 124.28 100.543 124.774C101.183 125.267 101.569 125.934 101.703 126.774H99.9028C99.8228 126.427 99.6228 126.154 99.3028 125.954C98.9828 125.74 98.5495 125.634 98.0028 125.634H97.2428C96.5628 125.634 96.0628 125.76 95.7428 126.014C95.4361 126.267 95.2828 126.647 95.2828 127.154C95.2828 127.607 95.4161 127.94 95.6828 128.154C95.9495 128.367 96.3695 128.52 96.9428 128.614L98.4228 128.854C99.6095 129.04 100.469 129.387 101.003 129.894C101.549 130.4 101.823 131.134 101.823 132.094C101.823 133.107 101.496 133.907 100.843 134.494C100.203 135.067 99.2295 135.354 97.9228 135.354H97.0828ZM109.415 126.994C108.922 126.994 108.522 126.86 108.215 126.594C107.908 126.314 107.755 125.947 107.755 125.494C107.755 125.04 107.908 124.68 108.215 124.414C108.522 124.134 108.922 123.994 109.415 123.994C109.922 123.994 110.322 124.134 110.615 124.414C110.922 124.68 111.075 125.04 111.075 125.494C111.075 125.947 110.922 126.314 110.615 126.594C110.322 126.86 109.922 126.994 109.415 126.994ZM109.415 135.394C108.922 135.394 108.522 135.26 108.215 134.994C107.908 134.714 107.755 134.347 107.755 133.894C107.755 133.44 107.908 133.08 108.215 132.814C108.522 132.534 108.922 132.394 109.415 132.394C109.922 132.394 110.322 132.534 110.615 132.814C110.922 133.08 111.075 133.44 111.075 133.894C111.075 134.347 110.922 134.714 110.615 134.994C110.322 135.26 109.922 135.394 109.415 135.394ZM127.399 137.394L134.499 118.594H136.399L129.299 137.394H127.399ZM118.399 137.394L125.499 118.594H127.399L120.299 137.394H118.399ZM145.392 135.394C144.525 135.394 143.765 135.22 143.112 134.874C142.472 134.527 141.972 134.04 141.612 133.414C141.265 132.774 141.092 132.034 141.092 131.194V128.194C141.092 127.34 141.265 126.6 141.612 125.974C141.972 125.347 142.472 124.86 143.112 124.514C143.765 124.167 144.525 123.994 145.392 123.994C146.258 123.994 147.012 124.167 147.652 124.514C148.305 124.86 148.805 125.347 149.152 125.974C149.512 126.6 149.692 127.34 149.692 128.194V130.134H142.852V131.194C142.852 132.06 143.072 132.727 143.512 133.194C143.952 133.647 144.578 133.874 145.392 133.874C146.085 133.874 146.645 133.754 147.072 133.514C147.498 133.26 147.758 132.887 147.852 132.394H149.652C149.532 133.314 149.078 134.047 148.292 134.594C147.518 135.127 146.552 135.394 145.392 135.394ZM142.852 128.774H147.932V128.194C147.932 127.327 147.712 126.66 147.272 126.194C146.845 125.727 146.218 125.494 145.392 125.494C144.578 125.494 143.952 125.727 143.512 126.194C143.072 126.66 142.852 127.327 142.852 128.194V128.774ZM152.384 135.194L156.284 129.534L152.624 124.194H154.744L156.924 127.594C157.017 127.74 157.104 127.9 157.184 128.074C157.277 128.247 157.35 128.387 157.404 128.494C157.444 128.387 157.504 128.247 157.584 128.074C157.677 127.9 157.77 127.74 157.864 127.594L160.064 124.194H162.164L158.504 129.554L162.384 135.194H160.264L157.904 131.594C157.81 131.447 157.717 131.28 157.624 131.094C157.544 130.894 157.47 130.734 157.404 130.614C157.35 130.734 157.27 130.894 157.164 131.094C157.07 131.28 156.97 131.447 156.864 131.594L154.484 135.194H152.384ZM168.416 135.394C167.256 135.394 166.343 135.1 165.676 134.514C165.009 133.914 164.676 133.107 164.676 132.094C164.676 131.067 165.009 130.26 165.676 129.674C166.343 129.087 167.243 128.794 168.376 128.794H171.776V127.694C171.776 127.027 171.569 126.507 171.156 126.134C170.756 125.76 170.183 125.574 169.436 125.574C168.783 125.574 168.243 125.714 167.816 125.994C167.389 126.26 167.129 126.627 167.036 127.094H165.236C165.356 126.147 165.803 125.394 166.576 124.834C167.349 124.274 168.316 123.994 169.476 123.994C170.743 123.994 171.743 124.32 172.476 124.974C173.209 125.627 173.576 126.514 173.576 127.634V135.194H171.816V133.094H171.796C171.716 133.8 171.369 134.36 170.756 134.774C170.156 135.187 169.376 135.394 168.416 135.394ZM168.856 133.974C169.709 133.974 170.409 133.76 170.956 133.334C171.503 132.907 171.776 132.36 171.776 131.694V130.134H168.416C167.816 130.134 167.343 130.3 166.996 130.634C166.649 130.967 166.476 131.42 166.476 131.994C166.476 132.607 166.683 133.094 167.096 133.454C167.523 133.8 168.109 133.974 168.856 133.974ZM176.688 135.194V124.194H178.268V125.514H178.388C178.468 125.047 178.661 124.68 178.968 124.414C179.288 124.134 179.688 123.994 180.168 123.994C181.115 123.994 181.715 124.5 181.968 125.514H182.048C182.128 125.047 182.328 124.68 182.648 124.414C182.981 124.134 183.388 123.994 183.868 123.994C184.561 123.994 185.095 124.254 185.468 124.774C185.855 125.294 186.048 125.98 186.048 126.834V135.194H184.388V126.814C184.388 126.36 184.288 126.007 184.088 125.754C183.901 125.5 183.621 125.374 183.248 125.374C182.888 125.374 182.601 125.5 182.388 125.754C182.188 125.994 182.088 126.34 182.088 126.794V135.194H180.648V126.814C180.648 126.347 180.541 125.994 180.328 125.754C180.128 125.5 179.841 125.374 179.468 125.374C179.095 125.374 178.815 125.5 178.628 125.754C178.441 125.994 178.348 126.34 178.348 126.794V135.194H176.688ZM189.2 138.794V124.194H191V126.294H191.02C191.114 125.574 191.427 125.014 191.96 124.614C192.507 124.2 193.194 123.994 194.02 123.994C195.127 123.994 196.007 124.36 196.66 125.094C197.327 125.814 197.66 126.807 197.66 128.074V131.294C197.66 132.56 197.327 133.56 196.66 134.294C196.007 135.027 195.127 135.394 194.02 135.394C193.194 135.394 192.514 135.187 191.98 134.774C191.447 134.36 191.127 133.8 191.02 133.094H190.96L191 135.594V138.794H189.2ZM193.42 133.834C194.18 133.834 194.774 133.607 195.2 133.154C195.64 132.7 195.86 132.047 195.86 131.194V128.194C195.86 127.34 195.64 126.687 195.2 126.234C194.774 125.78 194.18 125.554 193.42 125.554C192.687 125.554 192.1 125.787 191.66 126.254C191.22 126.72 191 127.367 191 128.194V131.194C191 132.02 191.22 132.667 191.66 133.134C192.1 133.6 192.687 133.834 193.42 133.834ZM206.952 135.194C205.979 135.194 205.199 134.914 204.612 134.354C204.039 133.78 203.752 133.027 203.752 132.094V122.234H199.952V120.594H205.552V132.094C205.552 132.547 205.679 132.907 205.932 133.174C206.186 133.427 206.526 133.554 206.952 133.554H210.352V135.194H206.952ZM217.345 135.394C216.478 135.394 215.718 135.22 215.065 134.874C214.425 134.527 213.925 134.04 213.565 133.414C213.218 132.774 213.045 132.034 213.045 131.194V128.194C213.045 127.34 213.218 126.6 213.565 125.974C213.925 125.347 214.425 124.86 215.065 124.514C215.718 124.167 216.478 123.994 217.345 123.994C218.211 123.994 218.965 124.167 219.605 124.514C220.258 124.86 220.758 125.347 221.105 125.974C221.465 126.6 221.645 127.34 221.645 128.194V130.134H214.805V131.194C214.805 132.06 215.025 132.727 215.465 133.194C215.905 133.647 216.531 133.874 217.345 133.874C218.038 133.874 218.598 133.754 219.025 133.514C219.451 133.26 219.711 132.887 219.805 132.394H221.605C221.485 133.314 221.031 134.047 220.245 134.594C219.471 135.127 218.505 135.394 217.345 135.394ZM214.805 128.774H219.885V128.194C219.885 127.327 219.665 126.66 219.225 126.194C218.798 125.727 218.171 125.494 217.345 125.494C216.531 125.494 215.905 125.727 215.465 126.194C215.025 126.66 214.805 127.327 214.805 128.194V128.774ZM229.337 135.394C228.83 135.394 228.424 135.247 228.117 134.954C227.824 134.66 227.677 134.267 227.677 133.774C227.677 133.254 227.824 132.84 228.117 132.534C228.424 132.227 228.83 132.074 229.337 132.074C229.844 132.074 230.244 132.227 230.537 132.534C230.844 132.84 230.997 133.254 230.997 133.774C230.997 134.267 230.844 134.66 230.537 134.954C230.244 135.247 229.844 135.394 229.337 135.394ZM241.409 135.394C240.076 135.394 239.009 135.02 238.209 134.274C237.422 133.527 237.029 132.5 237.029 131.194V128.194C237.029 126.887 237.422 125.86 238.209 125.114C239.009 124.367 240.076 123.994 241.409 123.994C242.676 123.994 243.696 124.334 244.469 125.014C245.242 125.694 245.649 126.62 245.689 127.794H243.889C243.849 127.087 243.609 126.547 243.169 126.174C242.742 125.787 242.156 125.594 241.409 125.594C240.622 125.594 239.996 125.82 239.529 126.274C239.062 126.714 238.829 127.347 238.829 128.174V131.194C238.829 132.02 239.062 132.66 239.529 133.114C239.996 133.567 240.622 133.794 241.409 133.794C242.156 133.794 242.742 133.6 243.169 133.214C243.609 132.827 243.849 132.287 243.889 131.594H245.689C245.649 132.767 245.242 133.694 244.469 134.374C243.696 135.054 242.676 135.394 241.409 135.394ZM253.321 135.354C251.988 135.354 250.935 134.98 250.161 134.234C249.401 133.474 249.021 132.447 249.021 131.154V128.234C249.021 126.927 249.401 125.9 250.161 125.154C250.935 124.407 251.988 124.034 253.321 124.034C254.655 124.034 255.701 124.407 256.461 125.154C257.235 125.9 257.621 126.92 257.621 128.214V131.154C257.621 132.447 257.235 133.474 256.461 134.234C255.701 134.98 254.655 135.354 253.321 135.354ZM253.321 133.754C254.108 133.754 254.721 133.534 255.161 133.094C255.601 132.654 255.821 132.007 255.821 131.154V128.234C255.821 127.38 255.601 126.734 255.161 126.294C254.721 125.854 254.108 125.634 253.321 125.634C252.548 125.634 251.935 125.854 251.481 126.294C251.041 126.734 250.821 127.38 250.821 128.234V131.154C250.821 132.007 251.041 132.654 251.481 133.094C251.935 133.534 252.548 133.754 253.321 133.754ZM260.633 135.194V124.194H262.213V125.514H262.333C262.413 125.047 262.607 124.68 262.913 124.414C263.233 124.134 263.633 123.994 264.113 123.994C265.06 123.994 265.66 124.5 265.913 125.514H265.993C266.073 125.047 266.273 124.68 266.593 124.414C266.927 124.134 267.333 123.994 267.813 123.994C268.507 123.994 269.04 124.254 269.413 124.774C269.8 125.294 269.993 125.98 269.993 126.834V135.194H268.333V126.814C268.333 126.36 268.233 126.007 268.033 125.754C267.847 125.5 267.567 125.374 267.193 125.374C266.833 125.374 266.547 125.5 266.333 125.754C266.133 125.994 266.033 126.34 266.033 126.794V135.194H264.593V126.814C264.593 126.347 264.487 125.994 264.273 125.754C264.073 125.5 263.787 125.374 263.413 125.374C263.04 125.374 262.76 125.5 262.573 125.754C262.387 125.994 262.293 126.34 262.293 126.794V135.194H260.633ZM277.306 126.994C276.812 126.994 276.412 126.86 276.106 126.594C275.799 126.314 275.646 125.947 275.646 125.494C275.646 125.04 275.799 124.68 276.106 124.414C276.412 124.134 276.812 123.994 277.306 123.994C277.812 123.994 278.212 124.134 278.506 124.414C278.812 124.68 278.966 125.04 278.966 125.494C278.966 125.947 278.812 126.314 278.506 126.594C278.212 126.86 277.812 126.994 277.306 126.994ZM277.306 135.394C276.812 135.394 276.412 135.26 276.106 134.994C275.799 134.714 275.646 134.347 275.646 133.894C275.646 133.44 275.799 133.08 276.106 132.814C276.412 132.534 276.812 132.394 277.306 132.394C277.812 132.394 278.212 132.534 278.506 132.814C278.812 133.08 278.966 133.44 278.966 133.894C278.966 134.347 278.812 134.714 278.506 134.994C278.212 135.26 277.812 135.394 277.306 135.394ZM289.078 135.394C288.198 135.394 287.424 135.22 286.758 134.874C286.104 134.514 285.598 134.02 285.238 133.394C284.878 132.767 284.698 132.034 284.698 131.194H286.498C286.498 132.007 286.724 132.647 287.178 133.114C287.644 133.567 288.284 133.794 289.098 133.794C289.924 133.794 290.564 133.554 291.018 133.074C291.471 132.594 291.698 131.967 291.698 131.194V130.194C291.698 129.367 291.471 128.727 291.018 128.274C290.564 127.82 289.924 127.594 289.098 127.594H287.518V126.034L291.058 122.234H285.298V120.594H293.038V122.274L289.498 126.014C290.724 126.08 291.698 126.487 292.418 127.234C293.138 127.98 293.498 128.967 293.498 130.194V131.194C293.498 132.034 293.311 132.767 292.938 133.394C292.578 134.02 292.064 134.514 291.398 134.874C290.731 135.22 289.958 135.394 289.078 135.394ZM301.29 135.394C299.943 135.394 298.87 135.007 298.07 134.234C297.283 133.447 296.89 132.4 296.89 131.094V124.694C296.89 123.387 297.283 122.347 298.07 121.574C298.87 120.787 299.943 120.394 301.29 120.394C302.637 120.394 303.703 120.787 304.49 121.574C305.29 122.347 305.69 123.387 305.69 124.694V131.094C305.69 131.96 305.51 132.72 305.15 133.374C304.79 134.014 304.277 134.514 303.61 134.874C302.957 135.22 302.183 135.394 301.29 135.394ZM301.29 133.854C302.09 133.854 302.73 133.6 303.21 133.094C303.703 132.574 303.95 131.907 303.95 131.094V124.694C303.95 123.88 303.703 123.22 303.21 122.714C302.73 122.194 302.09 121.934 301.29 121.934C300.49 121.934 299.843 122.194 299.35 122.714C298.87 123.22 298.63 123.88 298.63 124.694V131.094C298.63 131.907 298.87 132.574 299.35 133.094C299.843 133.6 300.49 133.854 301.29 133.854ZM301.29 129.074C300.93 129.074 300.637 128.96 300.41 128.734C300.197 128.507 300.09 128.207 300.09 127.834C300.09 127.474 300.197 127.187 300.41 126.974C300.637 126.747 300.93 126.634 301.29 126.634C301.65 126.634 301.937 126.747 302.15 126.974C302.377 127.187 302.49 127.474 302.49 127.834C302.49 128.207 302.377 128.507 302.15 128.734C301.937 128.96 301.65 129.074 301.29 129.074ZM313.282 135.394C311.935 135.394 310.862 135.007 310.062 134.234C309.275 133.447 308.882 132.4 308.882 131.094V124.694C308.882 123.387 309.275 122.347 310.062 121.574C310.862 120.787 311.935 120.394 313.282 120.394C314.629 120.394 315.695 120.787 316.482 121.574C317.282 122.347 317.682 123.387 317.682 124.694V131.094C317.682 131.96 317.502 132.72 317.142 133.374C316.782 134.014 316.269 134.514 315.602 134.874C314.949 135.22 314.175 135.394 313.282 135.394ZM313.282 133.854C314.082 133.854 314.722 133.6 315.202 133.094C315.695 132.574 315.942 131.907 315.942 131.094V124.694C315.942 123.88 315.695 123.22 315.202 122.714C314.722 122.194 314.082 121.934 313.282 121.934C312.482 121.934 311.835 122.194 311.342 122.714C310.862 123.22 310.622 123.88 310.622 124.694V131.094C310.622 131.907 310.862 132.574 311.342 133.094C311.835 133.6 312.482 133.854 313.282 133.854ZM313.282 129.074C312.922 129.074 312.629 128.96 312.402 128.734C312.189 128.507 312.082 128.207 312.082 127.834C312.082 127.474 312.189 127.187 312.402 126.974C312.629 126.747 312.922 126.634 313.282 126.634C313.642 126.634 313.929 126.747 314.142 126.974C314.369 127.187 314.482 127.474 314.482 127.834C314.482 128.207 314.369 128.507 314.142 128.734C313.929 128.96 313.642 129.074 313.282 129.074ZM325.274 135.394C323.928 135.394 322.854 135.007 322.054 134.234C321.268 133.447 320.874 132.4 320.874 131.094V124.694C320.874 123.387 321.268 122.347 322.054 121.574C322.854 120.787 323.928 120.394 325.274 120.394C326.621 120.394 327.688 120.787 328.474 121.574C329.274 122.347 329.674 123.387 329.674 124.694V131.094C329.674 131.96 329.494 132.72 329.134 133.374C328.774 134.014 328.261 134.514 327.594 134.874C326.941 135.22 326.168 135.394 325.274 135.394ZM325.274 133.854C326.074 133.854 326.714 133.6 327.194 133.094C327.688 132.574 327.934 131.907 327.934 131.094V124.694C327.934 123.88 327.688 123.22 327.194 122.714C326.714 122.194 326.074 121.934 325.274 121.934C324.474 121.934 323.828 122.194 323.334 122.714C322.854 123.22 322.614 123.88 322.614 124.694V131.094C322.614 131.907 322.854 132.574 323.334 133.094C323.828 133.6 324.474 133.854 325.274 133.854ZM325.274 129.074C324.914 129.074 324.621 128.96 324.394 128.734C324.181 128.507 324.074 128.207 324.074 127.834C324.074 127.474 324.181 127.187 324.394 126.974C324.621 126.747 324.914 126.634 325.274 126.634C325.634 126.634 325.921 126.747 326.134 126.974C326.361 127.187 326.474 127.474 326.474 127.834C326.474 128.207 326.361 128.507 326.134 128.734C325.921 128.96 325.634 129.074 325.274 129.074ZM332.767 137.394L339.867 118.594H341.767L334.667 137.394H332.767ZM345.099 138.794V124.194H346.899V126.294H346.919C347.012 125.574 347.325 125.014 347.859 124.614C348.405 124.2 349.092 123.994 349.919 123.994C351.025 123.994 351.905 124.36 352.559 125.094C353.225 125.814 353.559 126.807 353.559 128.074V131.294C353.559 132.56 353.225 133.56 352.559 134.294C351.905 135.027 351.025 135.394 349.919 135.394C349.092 135.394 348.412 135.187 347.879 134.774C347.345 134.36 347.025 133.8 346.919 133.094H346.859L346.899 135.594V138.794H345.099ZM349.319 133.834C350.079 133.834 350.672 133.607 351.099 133.154C351.539 132.7 351.759 132.047 351.759 131.194V128.194C351.759 127.34 351.539 126.687 351.099 126.234C350.672 125.78 350.079 125.554 349.319 125.554C348.585 125.554 347.999 125.787 347.559 126.254C347.119 126.72 346.899 127.367 346.899 128.194V131.194C346.899 132.02 347.119 132.667 347.559 133.134C347.999 133.6 348.585 133.834 349.319 133.834ZM357.471 135.194V124.194H359.231V126.154C359.591 124.714 360.558 123.994 362.131 123.994C363.291 123.994 364.211 124.36 364.891 125.094C365.584 125.814 365.931 126.794 365.931 128.034V128.694H364.131V128.194C364.131 127.327 363.918 126.667 363.491 126.214C363.078 125.747 362.484 125.514 361.711 125.514C360.951 125.514 360.351 125.747 359.911 126.214C359.484 126.68 359.271 127.34 359.271 128.194V135.194H357.471ZM373.243 135.354C371.91 135.354 370.856 134.98 370.083 134.234C369.323 133.474 368.943 132.447 368.943 131.154V128.234C368.943 126.927 369.323 125.9 370.083 125.154C370.856 124.407 371.91 124.034 373.243 124.034C374.576 124.034 375.623 124.407 376.383 125.154C377.156 125.9 377.543 126.92 377.543 128.214V131.154C377.543 132.447 377.156 133.474 376.383 134.234C375.623 134.98 374.576 135.354 373.243 135.354ZM373.243 133.754C374.03 133.754 374.643 133.534 375.083 133.094C375.523 132.654 375.743 132.007 375.743 131.154V128.234C375.743 127.38 375.523 126.734 375.083 126.294C374.643 125.854 374.03 125.634 373.243 125.634C372.47 125.634 371.856 125.854 371.403 126.294C370.963 126.734 370.743 127.38 370.743 128.234V131.154C370.743 132.007 370.963 132.654 371.403 133.094C371.856 133.534 372.47 133.754 373.243 133.754ZM383.635 135.194V126.934H380.435V125.294H383.635V123.394C383.635 122.527 383.909 121.847 384.455 121.354C385.002 120.847 385.755 120.594 386.715 120.594H389.935V122.234H386.715C385.862 122.234 385.435 122.62 385.435 123.394V125.294H389.935V126.934H385.435V135.194H383.635ZM392.927 135.194V133.554H396.827V125.834H393.427V124.194H398.627V133.554H402.327V135.194H392.927ZM397.527 122.214C397.087 122.214 396.741 122.1 396.487 121.874C396.234 121.647 396.107 121.34 396.107 120.954C396.107 120.554 396.234 120.24 396.487 120.014C396.741 119.774 397.087 119.654 397.527 119.654C397.967 119.654 398.314 119.774 398.567 120.014C398.821 120.24 398.947 120.554 398.947 120.954C398.947 121.34 398.821 121.647 398.567 121.874C398.314 122.1 397.967 122.214 397.527 122.214ZM410.82 135.194C409.846 135.194 409.066 134.914 408.48 134.354C407.906 133.78 407.62 133.027 407.62 132.094V122.234H403.82V120.594H409.42V132.094C409.42 132.547 409.546 132.907 409.8 133.174C410.053 133.427 410.393 133.554 410.82 133.554H414.22V135.194H410.82ZM421.212 135.394C420.345 135.394 419.585 135.22 418.932 134.874C418.292 134.527 417.792 134.04 417.432 133.414C417.085 132.774 416.912 132.034 416.912 131.194V128.194C416.912 127.34 417.085 126.6 417.432 125.974C417.792 125.347 418.292 124.86 418.932 124.514C419.585 124.167 420.345 123.994 421.212 123.994C422.079 123.994 422.832 124.167 423.472 124.514C424.125 124.86 424.625 125.347 424.972 125.974C425.332 126.6 425.512 127.34 425.512 128.194V130.134H418.672V131.194C418.672 132.06 418.892 132.727 419.332 133.194C419.772 133.647 420.399 133.874 421.212 133.874C421.905 133.874 422.465 133.754 422.892 133.514C423.319 133.26 423.579 132.887 423.672 132.394H425.472C425.352 133.314 424.899 134.047 424.112 134.594C423.339 135.127 422.372 135.394 421.212 135.394ZM418.672 128.774H423.752V128.194C423.752 127.327 423.532 126.66 423.092 126.194C422.665 125.727 422.039 125.494 421.212 125.494C420.399 125.494 419.772 125.727 419.332 126.194C418.892 126.66 418.672 127.327 418.672 128.194V128.774ZM428.704 137.394L435.804 118.594H437.704L430.604 137.394H428.704ZM445.196 135.394C444.33 135.394 443.57 135.22 442.916 134.874C442.276 134.527 441.776 134.04 441.416 133.414C441.07 132.774 440.896 132.034 440.896 131.194V128.194C440.896 127.34 441.07 126.6 441.416 125.974C441.776 125.347 442.276 124.86 442.916 124.514C443.57 124.167 444.33 123.994 445.196 123.994C446.063 123.994 446.816 124.167 447.456 124.514C448.11 124.86 448.61 125.347 448.956 125.974C449.316 126.6 449.496 127.34 449.496 128.194V130.134H442.656V131.194C442.656 132.06 442.876 132.727 443.316 133.194C443.756 133.647 444.383 133.874 445.196 133.874C445.89 133.874 446.45 133.754 446.876 133.514C447.303 133.26 447.563 132.887 447.656 132.394H449.456C449.336 133.314 448.883 134.047 448.096 134.594C447.323 135.127 446.356 135.394 445.196 135.394ZM442.656 128.774H447.736V128.194C447.736 127.327 447.516 126.66 447.076 126.194C446.65 125.727 446.023 125.494 445.196 125.494C444.383 125.494 443.756 125.727 443.316 126.194C442.876 126.66 442.656 127.327 442.656 128.194V128.774ZM456.548 135.394C455.455 135.394 454.568 135.027 453.888 134.294C453.222 133.56 452.888 132.567 452.888 131.314V128.094C452.888 126.827 453.222 125.827 453.888 125.094C454.555 124.36 455.442 123.994 456.548 123.994C457.375 123.994 458.055 124.2 458.588 124.614C459.122 125.027 459.435 125.587 459.528 126.294H459.588L459.548 123.794V120.594H461.348V135.194H459.548V133.094H459.528C459.435 133.814 459.122 134.38 458.588 134.794C458.055 135.194 457.375 135.394 456.548 135.394ZM457.148 133.834C457.895 133.834 458.482 133.6 458.908 133.134C459.335 132.667 459.548 132.02 459.548 131.194V128.194C459.548 127.367 459.335 126.72 458.908 126.254C458.482 125.787 457.895 125.554 457.148 125.554C456.388 125.554 455.788 125.78 455.348 126.234C454.908 126.687 454.688 127.34 454.688 128.194V131.194C454.688 132.047 454.908 132.7 455.348 133.154C455.788 133.607 456.388 133.834 457.148 133.834ZM464.881 135.194V133.554H468.781V125.834H465.381V124.194H470.581V133.554H474.281V135.194H464.881ZM469.481 122.214C469.041 122.214 468.694 122.1 468.441 121.874C468.187 121.647 468.061 121.34 468.061 120.954C468.061 120.554 468.187 120.24 468.441 120.014C468.694 119.774 469.041 119.654 469.481 119.654C469.921 119.654 470.267 119.774 470.521 120.014C470.774 120.24 470.901 120.554 470.901 120.954C470.901 121.34 470.774 121.647 470.521 121.874C470.267 122.1 469.921 122.214 469.481 122.214ZM482.373 135.194C481.426 135.194 480.686 134.94 480.153 134.434C479.633 133.927 479.373 133.214 479.373 132.294V125.834H476.273V124.194H479.373V121.094H481.173V124.194H485.573V125.834H481.173V132.294C481.173 133.134 481.573 133.554 482.373 133.554H485.373V135.194H482.373ZM491.385 131.094V127.494H492.385C493.238 127.494 493.912 127.26 494.405 126.794C494.912 126.314 495.165 125.68 495.165 124.894C495.165 124.107 494.912 123.48 494.405 123.014C493.912 122.534 493.232 122.294 492.365 122.294H489.865V120.594H492.365C493.298 120.594 494.105 120.774 494.785 121.134C495.478 121.48 496.012 121.974 496.385 122.614C496.772 123.254 496.965 124.014 496.965 124.894C496.965 125.654 496.805 126.34 496.485 126.954C496.165 127.554 495.718 128.034 495.145 128.394C494.585 128.754 493.932 128.954 493.185 128.994V131.094H491.385ZM491.965 135.294C491.618 135.294 491.332 135.18 491.105 134.954C490.878 134.727 490.765 134.44 490.765 134.094C490.765 133.747 490.878 133.46 491.105 133.234C491.332 133.007 491.618 132.894 491.965 132.894H492.565C492.952 132.894 493.245 133.007 493.445 133.234C493.658 133.447 493.765 133.727 493.765 134.074C493.765 134.42 493.652 134.714 493.425 134.954C493.198 135.18 492.912 135.294 492.565 135.294H491.965ZM501.057 135.194V120.594H502.857V128.734H504.977L508.177 124.194H510.237L506.537 129.434L510.297 135.194H508.197L504.997 130.294H502.857V135.194H501.057ZM517.149 135.394C516.283 135.394 515.523 135.22 514.869 134.874C514.229 134.527 513.729 134.04 513.369 133.414C513.023 132.774 512.849 132.034 512.849 131.194V128.194C512.849 127.34 513.023 126.6 513.369 125.974C513.729 125.347 514.229 124.86 514.869 124.514C515.523 124.167 516.283 123.994 517.149 123.994C518.016 123.994 518.769 124.167 519.409 124.514C520.063 124.86 520.563 125.347 520.909 125.974C521.269 126.6 521.449 127.34 521.449 128.194V130.134H514.609V131.194C514.609 132.06 514.829 132.727 515.269 133.194C515.709 133.647 516.336 133.874 517.149 133.874C517.843 133.874 518.403 133.754 518.829 133.514C519.256 133.26 519.516 132.887 519.609 132.394H521.409C521.289 133.314 520.836 134.047 520.049 134.594C519.276 135.127 518.309 135.394 517.149 135.394ZM514.609 128.774H519.689V128.194C519.689 127.327 519.469 126.66 519.029 126.194C518.603 125.727 517.976 125.494 517.149 125.494C516.336 125.494 515.709 125.727 515.269 126.194C514.829 126.66 514.609 127.327 514.609 128.194V128.774ZM526.702 138.794L528.322 134.514L524.242 124.194H526.242L528.802 130.994C528.895 131.22 528.982 131.494 529.062 131.814C529.142 132.12 529.208 132.38 529.262 132.594C529.315 132.38 529.382 132.12 529.462 131.814C529.542 131.494 529.622 131.22 529.702 130.994L532.102 124.194H534.042L528.622 138.794H526.702ZM536.834 126.994V125.394H545.434V126.994H536.834ZM536.834 131.794V130.194H545.434V131.794H536.834ZM548.926 135.194V133.554H552.886V122.094L548.926 125.054V123.054L552.226 120.594H554.686V133.554H557.926V135.194H548.926ZM563.718 135.394C562.625 135.394 561.765 135.1 561.138 134.514C560.525 133.927 560.218 133.12 560.218 132.094V129.594C560.218 128.887 560.398 128.294 560.758 127.814C561.131 127.32 561.658 126.974 562.338 126.774L562.198 126.574C561.785 126.014 561.485 125.494 561.298 125.014C561.111 124.534 561.018 124.054 561.018 123.574C561.018 122.614 561.345 121.847 561.998 121.274C562.665 120.687 563.538 120.394 564.618 120.394C565.778 120.394 566.698 120.7 567.378 121.314C568.058 121.927 568.398 122.76 568.398 123.814H566.598C566.598 123.227 566.418 122.774 566.058 122.454C565.711 122.12 565.231 121.954 564.618 121.954C564.071 121.954 563.631 122.107 563.298 122.414C562.978 122.707 562.818 123.107 562.818 123.614C562.818 123.947 562.885 124.307 563.018 124.694C563.165 125.08 563.365 125.447 563.618 125.794L567.058 130.534L568.478 127.994H570.358L568.098 131.974L570.438 135.194H568.458L567.198 133.454C566.211 134.747 565.051 135.394 563.718 135.394ZM563.818 133.794C564.271 133.794 564.705 133.647 565.118 133.354C565.545 133.047 565.905 132.627 566.198 132.094L563.258 128.034C562.431 128.18 562.018 128.7 562.018 129.594V132.094C562.018 132.627 562.171 133.047 562.478 133.354C562.798 133.647 563.245 133.794 563.818 133.794ZM573.01 135.194V120.594H574.81V128.734H576.93L580.13 124.194H582.19L578.49 129.434L582.25 135.194H580.15L576.95 130.294H574.81V135.194H573.01ZM589.102 135.394C588.236 135.394 587.476 135.22 586.822 134.874C586.182 134.527 585.682 134.04 585.322 133.414C584.976 132.774 584.802 132.034 584.802 131.194V128.194C584.802 127.34 584.976 126.6 585.322 125.974C585.682 125.347 586.182 124.86 586.822 124.514C587.476 124.167 588.236 123.994 589.102 123.994C589.969 123.994 590.722 124.167 591.362 124.514C592.016 124.86 592.516 125.347 592.862 125.974C593.222 126.6 593.402 127.34 593.402 128.194V130.134H586.562V131.194C586.562 132.06 586.782 132.727 587.222 133.194C587.662 133.647 588.289 133.874 589.102 133.874C589.796 133.874 590.356 133.754 590.782 133.514C591.209 133.26 591.469 132.887 591.562 132.394H593.362C593.242 133.314 592.789 134.047 592.002 134.594C591.229 135.127 590.262 135.394 589.102 135.394ZM586.562 128.774H591.642V128.194C591.642 127.327 591.422 126.66 590.982 126.194C590.556 125.727 589.929 125.494 589.102 125.494C588.289 125.494 587.662 125.727 587.222 126.194C586.782 126.66 586.562 127.327 586.562 128.194V128.774ZM598.655 138.794L600.275 134.514L596.195 124.194H598.195L600.755 130.994C600.848 131.22 600.935 131.494 601.015 131.814C601.095 132.12 601.161 132.38 601.215 132.594C601.268 132.38 601.335 132.12 601.415 131.814C601.495 131.494 601.575 131.22 601.655 130.994L604.055 124.194H605.995L600.575 138.794H598.655ZM608.787 126.994V125.394H617.387V126.994H608.787ZM608.787 131.794V130.194H617.387V131.794H608.787ZM620.919 135.194V133.414L625.379 128.614C626.139 127.8 626.692 127.08 627.039 126.454C627.386 125.814 627.559 125.2 627.559 124.614C627.559 123.8 627.332 123.16 626.879 122.694C626.439 122.227 625.832 121.994 625.059 121.994C624.206 121.994 623.532 122.234 623.039 122.714C622.559 123.194 622.319 123.854 622.319 124.694H620.519C620.559 123.374 620.986 122.327 621.799 121.554C622.626 120.78 623.712 120.394 625.059 120.394C626.379 120.394 627.426 120.774 628.199 121.534C628.972 122.28 629.359 123.3 629.359 124.594C629.359 125.42 629.139 126.24 628.699 127.054C628.259 127.867 627.539 128.794 626.539 129.834L622.979 133.554H629.599V135.194H620.919ZM632.731 135.194L633.471 131.194H631.771V129.894H633.711L634.431 125.894H632.471V124.594H634.671L635.411 120.594H636.811L636.071 124.594H639.271L640.011 120.594H641.411L640.671 124.594H642.371V125.894H640.431L639.711 129.894H641.671V131.194H639.471L638.731 135.194H637.331L638.071 131.194H634.871L634.131 135.194H632.731ZM635.111 129.894H638.311L639.031 125.894H635.831L635.111 129.894ZM649.043 135.394C647.777 135.394 646.763 135.02 646.003 134.274C645.243 133.514 644.863 132.487 644.863 131.194V124.194H646.663V131.194C646.663 132.02 646.877 132.667 647.303 133.134C647.73 133.587 648.31 133.814 649.043 133.814C649.79 133.814 650.377 133.587 650.803 133.134C651.243 132.667 651.463 132.02 651.463 131.194V124.194H653.263V131.194C653.263 132.487 652.877 133.514 652.103 134.274C651.33 135.02 650.31 135.394 649.043 135.394ZM660.716 135.354C659.582 135.354 658.682 135.1 658.016 134.594C657.349 134.074 656.962 133.374 656.856 132.494H658.656C658.736 132.88 658.949 133.187 659.296 133.414C659.656 133.64 660.129 133.754 660.716 133.754H661.556C662.262 133.754 662.789 133.614 663.136 133.334C663.482 133.04 663.656 132.654 663.656 132.174C663.656 131.267 663.036 130.714 661.796 130.514L660.316 130.274C659.236 130.087 658.429 129.754 657.896 129.274C657.376 128.78 657.116 128.067 657.116 127.134C657.116 126.147 657.429 125.387 658.056 124.854C658.682 124.307 659.622 124.034 660.876 124.034H661.636C662.689 124.034 663.536 124.28 664.176 124.774C664.816 125.267 665.202 125.934 665.336 126.774H663.536C663.456 126.427 663.256 126.154 662.936 125.954C662.616 125.74 662.182 125.634 661.636 125.634H660.876C660.196 125.634 659.696 125.76 659.376 126.014C659.069 126.267 658.916 126.647 658.916 127.154C658.916 127.607 659.049 127.94 659.316 128.154C659.582 128.367 660.002 128.52 660.576 128.614L662.056 128.854C663.242 129.04 664.102 129.387 664.636 129.894C665.182 130.4 665.456 131.134 665.456 132.094C665.456 133.107 665.129 133.907 664.476 134.494C663.836 135.067 662.862 135.354 661.556 135.354H660.716ZM673.048 135.394C672.181 135.394 671.421 135.22 670.768 134.874C670.128 134.527 669.628 134.04 669.268 133.414C668.921 132.774 668.748 132.034 668.748 131.194V128.194C668.748 127.34 668.921 126.6 669.268 125.974C669.628 125.347 670.128 124.86 670.768 124.514C671.421 124.167 672.181 123.994 673.048 123.994C673.914 123.994 674.668 124.167 675.308 124.514C675.961 124.86 676.461 125.347 676.808 125.974C677.168 126.6 677.348 127.34 677.348 128.194V130.134H670.508V131.194C670.508 132.06 670.728 132.727 671.168 133.194C671.608 133.647 672.234 133.874 673.048 133.874C673.741 133.874 674.301 133.754 674.728 133.514C675.154 133.26 675.414 132.887 675.508 132.394H677.308C677.188 133.314 676.734 134.047 675.948 134.594C675.174 135.127 674.208 135.394 673.048 135.394ZM670.508 128.774H675.588V128.194C675.588 127.327 675.368 126.66 674.928 126.194C674.501 125.727 673.874 125.494 673.048 125.494C672.234 125.494 671.608 125.727 671.168 126.194C670.728 126.66 670.508 127.327 670.508 128.194V128.774ZM681.26 135.194V124.194H683.02V126.154C683.38 124.714 684.347 123.994 685.92 123.994C687.08 123.994 688 124.36 688.68 125.094C689.373 125.814 689.72 126.794 689.72 128.034V128.694H687.92V128.194C687.92 127.327 687.707 126.667 687.28 126.214C686.867 125.747 686.273 125.514 685.5 125.514C684.74 125.514 684.14 125.747 683.7 126.214C683.273 126.68 683.06 127.34 683.06 128.194V135.194H681.26ZM693.832 129.394V127.794H700.232V129.394H693.832ZM704.724 135.194V133.554H708.624V125.834H705.224V124.194H710.424V133.554H714.124V135.194H704.724ZM709.324 122.214C708.884 122.214 708.538 122.1 708.284 121.874C708.031 121.647 707.904 121.34 707.904 120.954C707.904 120.554 708.031 120.24 708.284 120.014C708.538 119.774 708.884 119.654 709.324 119.654C709.764 119.654 710.111 119.774 710.364 120.014C710.618 120.24 710.744 120.554 710.744 120.954C710.744 121.34 710.618 121.647 710.364 121.874C710.111 122.1 709.764 122.214 709.324 122.214ZM716.857 135.194V124.194H718.657V126.294H718.677C718.77 125.56 719.07 124.994 719.577 124.594C720.083 124.194 720.757 123.994 721.597 123.994C722.703 123.994 723.583 124.334 724.237 125.014C724.89 125.694 725.217 126.62 725.217 127.794V135.194H723.417V127.994C723.417 127.207 723.203 126.607 722.777 126.194C722.363 125.767 721.797 125.554 721.077 125.554C720.33 125.554 719.737 125.78 719.297 126.234C718.87 126.687 718.657 127.34 718.657 128.194V135.194H716.857ZM731.409 135.194V126.934H728.209V125.294H731.409V123.394C731.409 122.527 731.682 121.847 732.229 121.354C732.775 120.847 733.529 120.594 734.489 120.594H737.709V122.234H734.489C733.635 122.234 733.209 122.62 733.209 123.394V125.294H737.709V126.934H733.209V135.194H731.409ZM745.001 135.354C743.668 135.354 742.614 134.98 741.841 134.234C741.081 133.474 740.701 132.447 740.701 131.154V128.234C740.701 126.927 741.081 125.9 741.841 125.154C742.614 124.407 743.668 124.034 745.001 124.034C746.334 124.034 747.381 124.407 748.141 125.154C748.914 125.9 749.301 126.92 749.301 128.214V131.154C749.301 132.447 748.914 133.474 748.141 134.234C747.381 134.98 746.334 135.354 745.001 135.354ZM745.001 133.754C745.788 133.754 746.401 133.534 746.841 133.094C747.281 132.654 747.501 132.007 747.501 131.154V128.234C747.501 127.38 747.281 126.734 746.841 126.294C746.401 125.854 745.788 125.634 745.001 125.634C744.228 125.634 743.614 125.854 743.161 126.294C742.721 126.734 742.501 127.38 742.501 128.234V131.154C742.501 132.007 742.721 132.654 743.161 133.094C743.614 133.534 744.228 133.754 745.001 133.754Z" fill="black"/>
<path d="M43.454 143.716V150.383H109.104V143.716" stroke="black"/>
<path d="M142.193 145.382V152.049H270.013V145.382" stroke="black"/>
<path d="M142.193 173.686V180.354H328.251V173.686" stroke="black"/>
<path d="M43.454 206.179V212.847H328.251V206.179" stroke="black"/>
<path d="M45.5338 109.557V103.033H748.454V109.557" stroke="black"/>
<path d="M284.964 145.382V152.049H328.251V145.382" stroke="black"/>
<path d="M332.636 145.382V152.049H486.012V145.382" stroke="black"/>
<path d="M490.887 145.382V152.049H629.274V145.382" stroke="black"/>
<path d="M631.938 145.382V152.049H748.454V145.382" stroke="black"/>
<path d="M291.946 48.3103L289.834 35.1103H291.754L293.074 44.4703C293.122 44.8223 293.17 45.2063 293.218 45.6223C293.282 46.0223 293.33 46.3583 293.362 46.6303C293.394 46.3583 293.442 46.0223 293.506 45.6223C293.586 45.2063 293.65 44.8223 293.698 44.4703L295.162 35.1103H297.226L298.69 44.4703C298.738 44.8223 298.794 45.2063 298.858 45.6223C298.938 46.0223 298.994 46.3583 299.026 46.6303C299.058 46.3583 299.106 46.0223 299.17 45.6223C299.25 45.2063 299.314 44.8223 299.362 44.4703L300.73 35.1103H302.554L300.346 48.3103H297.97L296.554 39.1903C296.49 38.7423 296.418 38.2943 296.338 37.8463C296.258 37.3983 296.202 37.0463 296.17 36.7903C296.138 37.0463 296.09 37.3983 296.026 37.8463C295.962 38.2943 295.89 38.7423 295.81 39.1903L294.322 48.3103H291.946ZM305.425 48.3103V46.3423H310.105V37.0783H306.025V35.1103H312.265V46.3423H316.705V48.3103H305.425ZM310.945 32.7343C310.417 32.7343 310.001 32.5983 309.697 32.3263C309.393 32.0543 309.241 31.6863 309.241 31.2223C309.241 30.7423 309.393 30.3663 309.697 30.0943C310.001 29.8063 310.417 29.6623 310.945 29.6623C311.473 29.6623 311.889 29.8063 312.193 30.0943C312.497 30.3663 312.649 30.7423 312.649 31.2223C312.649 31.6863 312.497 32.0543 312.193 32.3263C311.889 32.5983 311.473 32.7343 310.945 32.7343ZM319.983 48.3103V35.1103H322.143V37.6303H322.167C322.279 36.7503 322.639 36.0703 323.247 35.5903C323.855 35.1103 324.663 34.8703 325.671 34.8703C326.999 34.8703 328.055 35.2783 328.839 36.0943C329.623 36.9103 330.015 38.0223 330.015 39.4303V48.3103H327.855V39.6703C327.855 38.7263 327.599 38.0063 327.087 37.5103C326.591 36.9983 325.911 36.7423 325.047 36.7423C324.151 36.7423 323.439 37.0143 322.911 37.5583C322.399 38.1023 322.143 38.8863 322.143 39.9103V48.3103H319.983ZM338.598 48.5503C337.286 48.5503 336.222 48.1103 335.406 47.2303C334.606 46.3503 334.206 45.1583 334.206 43.6543V39.7903C334.206 38.2703 334.606 37.0703 335.406 36.1903C336.206 35.3103 337.27 34.8703 338.598 34.8703C339.59 34.8703 340.406 35.1183 341.046 35.6143C341.686 36.1103 342.062 36.7823 342.174 37.6303H342.246L342.198 34.6303V30.7903H344.358V48.3103H342.198V45.7903H342.174C342.062 46.6543 341.686 47.3343 341.046 47.8303C340.406 48.3103 339.59 48.5503 338.598 48.5503ZM339.318 46.6783C340.214 46.6783 340.918 46.3983 341.43 45.8383C341.942 45.2783 342.198 44.5023 342.198 43.5103V39.9103C342.198 38.9183 341.942 38.1423 341.43 37.5823C340.918 37.0223 340.214 36.7423 339.318 36.7423C338.406 36.7423 337.686 37.0143 337.158 37.5583C336.63 38.1023 336.366 38.8863 336.366 39.9103V43.5103C336.366 44.5343 336.63 45.3183 337.158 45.8623C337.686 46.4063 338.406 46.6783 339.318 46.6783ZM353.756 48.5023C352.156 48.5023 350.892 48.0543 349.964 47.1583C349.052 46.2463 348.596 45.0143 348.596 43.4623V39.9583C348.596 38.3903 349.052 37.1583 349.964 36.2623C350.892 35.3663 352.156 34.9183 353.756 34.9183C355.356 34.9183 356.612 35.3663 357.524 36.2623C358.452 37.1583 358.916 38.3823 358.916 39.9343V43.4623C358.916 45.0143 358.452 46.2463 357.524 47.1583C356.612 48.0543 355.356 48.5023 353.756 48.5023ZM353.756 46.5823C354.7 46.5823 355.436 46.3183 355.964 45.7903C356.492 45.2623 356.756 44.4863 356.756 43.4623V39.9583C356.756 38.9343 356.492 38.1583 355.964 37.6303C355.436 37.1023 354.7 36.8383 353.756 36.8383C352.828 36.8383 352.092 37.1023 351.548 37.6303C351.02 38.1583 350.756 38.9343 350.756 39.9583V43.4623C350.756 44.4863 351.02 45.2623 351.548 45.7903C352.092 46.3183 352.828 46.5823 353.756 46.5823ZM363.899 48.3103L361.787 35.1103H363.707L365.027 44.4703C365.075 44.8223 365.123 45.2063 365.171 45.6223C365.235 46.0223 365.283 46.3583 365.315 46.6303C365.347 46.3583 365.395 46.0223 365.459 45.6223C365.539 45.2063 365.603 44.8223 365.651 44.4703L367.115 35.1103H369.179L370.643 44.4703C370.691 44.8223 370.747 45.2063 370.811 45.6223C370.891 46.0223 370.947 46.3583 370.979 46.6303C371.011 46.3583 371.059 46.0223 371.123 45.6223C371.203 45.2063 371.267 44.8223 371.315 44.4703L372.683 35.1103H374.507L372.299 48.3103H369.923L368.507 39.1903C368.443 38.7423 368.371 38.2943 368.291 37.8463C368.211 37.3983 368.155 37.0463 368.123 36.7903C368.091 37.0463 368.043 37.3983 367.979 37.8463C367.915 38.2943 367.843 38.7423 367.763 39.1903L366.275 48.3103H363.899ZM382.538 48.5503C381.93 48.5503 381.442 48.3743 381.074 48.0223C380.722 47.6703 380.546 47.1983 380.546 46.6063C380.546 45.9823 380.722 45.4863 381.074 45.1183C381.442 44.7503 381.93 44.5663 382.538 44.5663C383.146 44.5663 383.626 44.7503 383.978 45.1183C384.346 45.4863 384.53 45.9823 384.53 46.6063C384.53 47.1983 384.346 47.6703 383.978 48.0223C383.626 48.3743 383.146 48.5503 382.538 48.5503ZM398.848 48.3103C397.68 48.3103 396.744 47.9743 396.04 47.3023C395.352 46.6143 395.008 45.7103 395.008 44.5903V32.7583H390.448V30.7903H397.168V44.5903C397.168 45.1343 397.32 45.5663 397.624 45.8863C397.928 46.1903 398.336 46.3423 398.848 46.3423H402.928V48.3103H398.848ZM411.319 48.5023C409.719 48.5023 408.455 48.0543 407.527 47.1583C406.615 46.2463 406.159 45.0143 406.159 43.4623V39.9583C406.159 38.3903 406.615 37.1583 407.527 36.2623C408.455 35.3663 409.719 34.9183 411.319 34.9183C412.919 34.9183 414.175 35.3663 415.087 36.2623C416.015 37.1583 416.479 38.3823 416.479 39.9343V43.4623C416.479 45.0143 416.015 46.2463 415.087 47.1583C414.175 48.0543 412.919 48.5023 411.319 48.5023ZM411.319 46.5823C412.263 46.5823 412.999 46.3183 413.527 45.7903C414.055 45.2623 414.319 44.4863 414.319 43.4623V39.9583C414.319 38.9343 414.055 38.1583 413.527 37.6303C412.999 37.1023 412.263 36.8383 411.319 36.8383C410.391 36.8383 409.655 37.1023 409.111 37.6303C408.583 38.1583 408.319 38.9343 408.319 39.9583V43.4623C408.319 44.4863 408.583 45.2623 409.111 45.7903C409.655 46.3183 410.391 46.5823 411.319 46.5823ZM425.806 48.5503C424.206 48.5503 422.926 48.1023 421.966 47.2063C421.022 46.3103 420.55 45.0783 420.55 43.5103V39.9103C420.55 38.3423 421.022 37.1103 421.966 36.2143C422.926 35.3183 424.206 34.8703 425.806 34.8703C427.326 34.8703 428.55 35.2783 429.478 36.0943C430.406 36.9103 430.894 38.0223 430.942 39.4303H428.782C428.734 38.5823 428.446 37.9343 427.918 37.4863C427.406 37.0223 426.702 36.7903 425.806 36.7903C424.862 36.7903 424.11 37.0623 423.55 37.6063C422.99 38.1343 422.71 38.8943 422.71 39.8863V43.5103C422.71 44.5023 422.99 45.2703 423.55 45.8143C424.11 46.3583 424.862 46.6303 425.806 46.6303C426.702 46.6303 427.406 46.3983 427.918 45.9343C428.446 45.4703 428.734 44.8223 428.782 43.9903H430.942C430.894 45.3983 430.406 46.5103 429.478 47.3263C428.55 48.1423 427.326 48.5503 425.806 48.5503ZM438.948 48.5503C437.556 48.5503 436.46 48.1983 435.66 47.4943C434.86 46.7743 434.46 45.8063 434.46 44.5903C434.46 43.3583 434.86 42.3903 435.66 41.6863C436.46 40.9823 437.54 40.6303 438.9 40.6303H442.98V39.3103C442.98 38.5103 442.732 37.8863 442.236 37.4383C441.756 36.9903 441.068 36.7663 440.172 36.7663C439.388 36.7663 438.74 36.9343 438.228 37.2703C437.716 37.5903 437.404 38.0303 437.292 38.5903H435.132C435.276 37.4543 435.812 36.5503 436.74 35.8783C437.668 35.2063 438.828 34.8703 440.22 34.8703C441.74 34.8703 442.94 35.2623 443.82 36.0463C444.7 36.8303 445.14 37.8943 445.14 39.2383V48.3103H443.028V45.7903H443.004C442.908 46.6383 442.492 47.3103 441.756 47.8063C441.036 48.3023 440.1 48.5503 438.948 48.5503ZM439.476 46.8463C440.5 46.8463 441.34 46.5903 441.996 46.0783C442.652 45.5663 442.98 44.9103 442.98 44.1103V42.2383H438.948C438.228 42.2383 437.66 42.4383 437.244 42.8383C436.828 43.2383 436.62 43.7823 436.62 44.4703C436.62 45.2063 436.868 45.7903 437.364 46.2223C437.876 46.6383 438.58 46.8463 439.476 46.8463ZM455.931 48.3103C454.795 48.3103 453.907 48.0063 453.267 47.3983C452.643 46.7903 452.331 45.9343 452.331 44.8303V37.0783H448.611V35.1103H452.331V31.3903H454.491V35.1103H459.771V37.0783H454.491V44.8303C454.491 45.8383 454.971 46.3423 455.931 46.3423H459.531V48.3103H455.931ZM463.721 48.3103V46.3423H468.401V37.0783H464.321V35.1103H470.561V46.3423H475.001V48.3103H463.721ZM469.241 32.7343C468.713 32.7343 468.297 32.5983 467.993 32.3263C467.689 32.0543 467.537 31.6863 467.537 31.2223C467.537 30.7423 467.689 30.3663 467.993 30.0943C468.297 29.8063 468.713 29.6623 469.241 29.6623C469.769 29.6623 470.185 29.8063 470.489 30.0943C470.793 30.3663 470.945 30.7423 470.945 31.2223C470.945 31.6863 470.793 32.0543 470.489 32.3263C470.185 32.5983 469.769 32.7343 469.241 32.7343ZM483.272 48.5023C481.672 48.5023 480.408 48.0543 479.48 47.1583C478.568 46.2463 478.112 45.0143 478.112 43.4623V39.9583C478.112 38.3903 478.568 37.1583 479.48 36.2623C480.408 35.3663 481.672 34.9183 483.272 34.9183C484.872 34.9183 486.128 35.3663 487.04 36.2623C487.968 37.1583 488.432 38.3823 488.432 39.9343V43.4623C488.432 45.0143 487.968 46.2463 487.04 47.1583C486.128 48.0543 484.872 48.5023 483.272 48.5023ZM483.272 46.5823C484.216 46.5823 484.952 46.3183 485.48 45.7903C486.008 45.2623 486.272 44.4863 486.272 43.4623V39.9583C486.272 38.9343 486.008 38.1583 485.48 37.6303C484.952 37.1023 484.216 36.8383 483.272 36.8383C482.344 36.8383 481.608 37.1023 481.064 37.6303C480.536 38.1583 480.272 38.9343 480.272 39.9583V43.4623C480.272 44.4863 480.536 45.2623 481.064 45.7903C481.608 46.3183 482.344 46.5823 483.272 46.5823ZM492.671 48.3103V35.1103H494.831V37.6303H494.855C494.967 36.7503 495.327 36.0703 495.935 35.5903C496.543 35.1103 497.351 34.8703 498.359 34.8703C499.687 34.8703 500.743 35.2783 501.527 36.0943C502.311 36.9103 502.703 38.0223 502.703 39.4303V48.3103H500.543V39.6703C500.543 38.7263 500.287 38.0063 499.775 37.5103C499.279 36.9983 498.599 36.7423 497.735 36.7423C496.839 36.7423 496.127 37.0143 495.599 37.5583C495.087 38.1023 494.831 38.8863 494.831 39.9103V48.3103H492.671Z" fill="black"/>
</svg>
