<?xml version="1.0" encoding="utf-8"?>
<!-- Generator: Adobe Illustrator 24.0.2, SVG Export Plug-In . SVG Version: 6.00 Build 0)  -->
<svg version="1.1" id="Layer_1" xmlns="http://www.w3.org/2000/svg" xmlns:xlink="http://www.w3.org/1999/xlink" x="0px" y="0px"
	 viewBox="0 0 1920 1080" enable-background="new 0 0 1920 1080" xml:space="preserve">
<g>
	<g>
		<g>
			<circle fill="#2E9AFF" cx="281.095" cy="194.434" r="194.434"/>
		</g>
	</g>
	<g>
		<g>
			<path fill="#FFFFFF" d="M1784.851,819.899c-34.681,0-52.296-7.192-69.331-14.148c-17.446-7.123-33.924-13.852-67.818-13.852
				c-33.894,0-50.371,6.729-67.816,13.852c-17.034,6.956-34.649,14.148-69.327,14.148c-34.679,0-52.294-7.192-69.328-14.148
				c-17.445-7.123-33.923-13.852-67.816-13.852s-50.37,6.729-67.815,13.852c-17.034,6.956-34.648,14.148-69.327,14.148
				c-34.678,0-52.292-7.192-69.326-14.148c-17.445-7.123-33.922-13.852-67.815-13.852s-50.37,6.729-67.815,13.852
				c-17.034,6.956-34.648,14.148-69.327,14.148c-34.677,0-52.291-7.192-69.325-14.148c-17.444-7.123-33.921-13.852-67.812-13.852
				c-33.893,0-50.37,6.729-67.815,13.852c-17.034,6.956-34.649,14.148-69.327,14.148s-52.292-7.192-69.327-14.148
				c-17.445-7.123-33.922-13.852-67.815-13.852c-33.893,0-50.37,6.729-67.815,13.852c-17.034,6.956-34.648,14.148-69.327,14.148
				c-34.678,0-52.292-7.192-69.327-14.148c-17.444-7.123-33.922-13.852-67.815-13.852c-33.893,0-50.37,6.729-67.814,13.852
				c-17.035,6.956-34.649,14.148-69.328,14.148c-34.678,0-52.292-7.192-69.326-14.148C52.369,798.627,35.893,791.899,2,791.899
				c-1.104,0-2-0.896-2-2s0.896-2,2-2c34.678,0,52.292,7.192,69.326,14.148c17.444,7.123,33.921,13.852,67.813,13.852
				c33.893,0,50.37-6.729,67.815-13.852c17.034-6.956,34.649-14.148,69.327-14.148c34.678,0,52.293,7.192,69.327,14.148
				c17.445,7.123,33.922,13.852,67.815,13.852c33.893,0,50.37-6.729,67.815-13.852c17.034-6.956,34.648-14.148,69.327-14.148
				c34.678,0,52.292,7.192,69.327,14.148c17.444,7.123,33.922,13.852,67.814,13.852c33.893,0,50.37-6.729,67.815-13.852
				c17.035-6.956,34.649-14.148,69.328-14.148c34.677,0,52.291,7.192,69.324,14.148c17.444,7.123,33.921,13.852,67.813,13.852
				c33.893,0,50.37-6.729,67.815-13.852c17.034-6.956,34.649-14.148,69.327-14.148c34.679,0,52.293,7.192,69.327,14.148
				c17.445,7.123,33.922,13.852,67.814,13.852s50.37-6.729,67.815-13.852c17.034-6.956,34.648-14.148,69.327-14.148
				s52.294,7.192,69.328,14.148c17.445,7.123,33.923,13.852,67.816,13.852c33.893,0,50.37-6.729,67.815-13.852
				c17.034-6.956,34.649-14.148,69.328-14.148c34.68,0,52.295,7.192,69.33,14.148c17.446,7.123,33.924,13.852,67.819,13.852
				c33.895,0,50.372-6.729,67.818-13.852c17.035-6.956,30.65-14.148,65.331-14.148c1.104,0,2,0.896,2,2s-0.896,2-2,2
				c-33.896,0-46.373,6.729-63.819,13.852C1837.146,812.706,1819.53,819.899,1784.851,819.899z"/>
		</g>
	</g>
	<g>
		<g>
			<path fill="#FFFFFF" d="M1570.99,149.478c0,4.76-3.858,8.619-8.619,8.619c-4.759,0-8.62-3.858-8.62-8.619
				c0-4.76,3.86-8.617,8.62-8.617C1567.131,140.861,1570.99,144.718,1570.99,149.478z"/>
		</g>
	</g>
	<g>
		<g>
			<path fill="#FFFFFF" d="M1194.285,149.835c0,4.76-3.858,8.619-8.619,8.619c-4.759,0-8.62-3.858-8.62-8.619
				c0-4.76,3.86-8.617,8.62-8.617C1190.426,141.218,1194.285,145.075,1194.285,149.835z"/>
		</g>
	</g>
	<g>
		<g>
			<path fill="#FFFFFF" d="M1920,8.617c0,4.76-3.858,8.619-8.619,8.619c-4.759,0-8.62-3.858-8.62-8.619
				c0-4.76,3.86-8.617,8.62-8.617C1916.142,0,1920,3.857,1920,8.617z"/>
		</g>
	</g>
	<g>
		<g>
			<path fill="#FFFFFF" d="M1165.669,475.512c0,4.76-3.858,8.619-8.619,8.619c-4.759,0-8.62-3.858-8.62-8.619
				c0-4.76,3.861-8.617,8.62-8.617C1161.811,466.895,1165.669,470.752,1165.669,475.512z"/>
		</g>
	</g>
	<g>
		<g>
			<path fill="#FFFFFF" d="M1864.49,425.512c0,4.76-3.858,8.619-8.619,8.619c-4.759,0-8.62-3.858-8.62-8.619
				c0-4.76,3.86-8.617,8.62-8.617C1860.631,416.895,1864.49,420.752,1864.49,425.512z"/>
		</g>
	</g>
	<g>
		<g>
			<path fill="#FFFFFF" d="M1712.57,203.051c0,4.76-3.858,8.619-8.619,8.619c-4.759,0-8.62-3.858-8.62-8.619
				c0-4.76,3.86-8.617,8.62-8.617C1708.712,194.434,1712.57,198.29,1712.57,203.051z"/>
		</g>
	</g>
	<g>
		<g>
			<path fill="#FFFFFF" d="M1524.49,545.512c0,4.76-3.858,8.619-8.619,8.619c-4.759,0-8.62-3.858-8.62-8.619
				c0-4.76,3.86-8.617,8.62-8.617C1520.631,536.895,1524.49,540.752,1524.49,545.512z"/>
		</g>
	</g>
	<g>
		<g>
			<path fill="#FFFFFF" d="M123.456,475.269c0,4.76-3.858,8.619-8.619,8.619c-4.759,0-8.62-3.858-8.62-8.619
				c0-4.76,3.86-8.617,8.62-8.617C119.597,466.652,123.456,470.509,123.456,475.269z"/>
		</g>
	</g>
	<g>
		<g>
			<path fill="#FFFFFF" d="M185.419,537.232c0,4.76-3.858,8.619-8.619,8.619c-4.759,0-8.62-3.858-8.62-8.619
				c0-4.76,3.86-8.617,8.62-8.617C181.561,528.615,185.419,532.472,185.419,537.232z"/>
		</g>
	</g>
	<g>
		<g>
			<path fill="#FFFFFF" d="M19.238,90.186c0,4.76-3.858,8.619-8.619,8.619C5.86,98.804,2,94.946,2,90.186
				c0-4.76,3.86-8.617,8.62-8.617C15.38,81.569,19.238,85.425,19.238,90.186z"/>
		</g>
	</g>
	<g>
		<g>
			<path fill="#FFFFFF" d="M129.238,12.186c0,4.76-3.858,8.619-8.619,8.619c-4.759,0-8.62-3.858-8.62-8.619
				c0-4.76,3.86-8.617,8.62-8.617C125.38,3.569,129.238,7.425,129.238,12.186z"/>
		</g>
	</g>
	<g>
		<g>
			<path fill="#FFFFFF" d="M764.544,109.015c0,4.76-3.858,8.619-8.619,8.619c-4.759,0-8.62-3.858-8.62-8.619
				c0-4.76,3.86-8.617,8.62-8.617C760.686,100.398,764.544,104.254,764.544,109.015z"/>
		</g>
	</g>
	<g>
		<g>
			<path fill="#FFFFFF" d="M1097.41,544.486c0,4.76-3.858,8.619-8.619,8.619c-4.759,0-8.62-3.858-8.62-8.619
				c0-4.76,3.86-8.617,8.62-8.617C1093.552,535.869,1097.41,539.726,1097.41,544.486z"/>
		</g>
	</g>
	<g>
		<g>
			<path fill="#FFFFFF" d="M1784.851,947.176c-34.681,0-52.296-7.192-69.331-14.148c-17.446-7.123-33.924-13.852-67.818-13.852
				c-33.894,0-50.371,6.729-67.816,13.852c-17.034,6.956-34.649,14.148-69.327,14.148c-34.679,0-52.294-7.192-69.328-14.148
				c-17.445-7.123-33.923-13.852-67.816-13.852s-50.37,6.729-67.815,13.852c-17.034,6.956-34.648,14.148-69.327,14.148
				c-34.678,0-52.292-7.192-69.326-14.148c-17.445-7.123-33.922-13.852-67.815-13.852s-50.37,6.729-67.815,13.852
				c-17.034,6.956-34.648,14.148-69.327,14.148c-34.677,0-52.291-7.192-69.325-14.148c-17.444-7.123-33.921-13.852-67.812-13.852
				c-33.893,0-50.37,6.729-67.815,13.852c-17.034,6.956-34.649,14.148-69.327,14.148s-52.292-7.192-69.327-14.148
				c-17.445-7.123-33.922-13.852-67.815-13.852c-33.893,0-50.37,6.729-67.815,13.852c-17.034,6.956-34.648,14.148-69.327,14.148
				c-34.678,0-52.292-7.192-69.327-14.148c-17.444-7.123-33.922-13.852-67.815-13.852c-33.893,0-50.37,6.729-67.814,13.852
				c-17.035,6.956-34.649,14.148-69.328,14.148c-34.678,0-52.292-7.192-69.326-14.148C52.369,925.905,35.893,919.176,2,919.176
				c-1.104,0-2-0.896-2-2s0.896-2,2-2c34.678,0,52.292,7.192,69.326,14.148c17.444,7.123,33.921,13.852,67.813,13.852
				c33.893,0,50.37-6.729,67.815-13.852c17.034-6.956,34.649-14.148,69.327-14.148c34.678,0,52.293,7.192,69.327,14.148
				c17.445,7.123,33.922,13.852,67.815,13.852c33.893,0,50.37-6.729,67.815-13.852c17.034-6.956,34.648-14.148,69.327-14.148
				c34.678,0,52.292,7.192,69.327,14.148c17.444,7.123,33.922,13.852,67.814,13.852c33.893,0,50.37-6.729,67.815-13.852
				c17.035-6.956,34.649-14.148,69.328-14.148c34.677,0,52.291,7.192,69.324,14.148c17.444,7.123,33.921,13.852,67.813,13.852
				c33.893,0,50.37-6.729,67.815-13.852c17.034-6.956,34.649-14.148,69.327-14.148c34.679,0,52.293,7.192,69.327,14.148
				c17.445,7.123,33.922,13.852,67.814,13.852s50.37-6.729,67.815-13.852c17.034-6.956,34.648-14.148,69.327-14.148
				s52.294,7.192,69.328,14.148c17.445,7.123,33.923,13.852,67.816,13.852c33.893,0,50.37-6.729,67.815-13.852
				c17.034-6.956,34.649-14.148,69.328-14.148c34.68,0,52.295,7.192,69.33,14.148c17.446,7.123,33.924,13.852,67.819,13.852
				c33.895,0,50.372-6.729,67.818-13.852c17.035-6.956,30.65-14.148,65.331-14.148c1.104,0,2,0.896,2,2s-0.896,2-2,2
				c-33.896,0-46.373,6.729-63.819,13.852C1837.146,939.984,1819.53,947.176,1784.851,947.176z"/>
		</g>
	</g>
	<g>
		<g>
			<path fill="#FFFFFF" d="M1784.851,692.621c-34.681,0-52.296-7.192-69.331-14.148c-17.446-7.123-33.924-13.852-67.818-13.852
				c-33.894,0-50.371,6.729-67.816,13.852c-17.034,6.956-34.649,14.148-69.327,14.148c-34.679,0-52.294-7.192-69.328-14.148
				c-17.445-7.123-33.923-13.852-67.816-13.852s-50.37,6.729-67.815,13.852c-17.034,6.956-34.648,14.148-69.327,14.148
				c-34.678,0-52.292-7.192-69.326-14.148c-17.445-7.123-33.922-13.852-67.815-13.852s-50.37,6.729-67.815,13.852
				c-17.034,6.956-34.648,14.148-69.327,14.148c-34.677,0-52.291-7.192-69.325-14.148c-17.444-7.123-33.921-13.852-67.812-13.852
				c-33.893,0-50.37,6.729-67.815,13.852c-17.034,6.956-34.649,14.148-69.327,14.148s-52.292-7.192-69.327-14.148
				c-17.445-7.123-33.922-13.852-67.815-13.852c-33.893,0-50.37,6.729-67.815,13.852c-17.034,6.956-34.648,14.148-69.327,14.148
				c-34.678,0-52.292-7.192-69.327-14.148c-17.444-7.123-33.922-13.852-67.815-13.852c-33.893,0-50.37,6.729-67.814,13.852
				c-17.035,6.956-34.649,14.148-69.328,14.148c-34.678,0-52.292-7.192-69.326-14.148C52.369,671.35,35.893,664.621,2,664.621
				c-1.104,0-2-0.896-2-2s0.896-2,2-2c34.678,0,52.292,7.192,69.326,14.148c17.444,7.123,33.921,13.852,67.813,13.852
				c33.893,0,50.37-6.729,67.815-13.852c17.034-6.956,34.649-14.148,69.327-14.148c34.678,0,52.293,7.192,69.327,14.148
				c17.445,7.123,33.922,13.852,67.815,13.852c33.893,0,50.37-6.729,67.815-13.852c17.034-6.956,34.648-14.148,69.327-14.148
				c34.678,0,52.292,7.192,69.327,14.148c17.444,7.123,33.922,13.852,67.814,13.852c33.893,0,50.37-6.729,67.815-13.852
				c17.035-6.956,34.649-14.148,69.328-14.148c34.677,0,52.291,7.192,69.324,14.148c17.444,7.123,33.921,13.852,67.813,13.852
				c33.893,0,50.37-6.729,67.815-13.852c17.034-6.956,34.649-14.148,69.327-14.148c34.679,0,52.293,7.192,69.327,14.148
				c17.445,7.123,33.922,13.852,67.814,13.852s50.37-6.729,67.815-13.852c17.034-6.956,34.648-14.148,69.327-14.148
				s52.294,7.192,69.328,14.148c17.445,7.123,33.923,13.852,67.816,13.852c33.893,0,50.37-6.729,67.815-13.852
				c17.034-6.956,34.649-14.148,69.328-14.148c34.68,0,52.295,7.192,69.33,14.148c17.446,7.123,33.924,13.852,67.819,13.852
				c33.895,0,50.372-6.729,67.818-13.852c17.035-6.956,30.65-14.148,65.331-14.148c1.104,0,2,0.896,2,2s-0.896,2-2,2
				c-33.896,0-46.373,6.729-63.819,13.852C1837.146,685.429,1819.53,692.621,1784.851,692.621z"/>
		</g>
	</g>
	<g>
		<g>
			<g>
				<g>
					<g>
						<g>
							<path fill="#FFFFFF" d="M574.328,128.804c7.837,0,13.841,6.893,12.859,14.668c-7.209,57.072-55.929,101.208-114.957,101.208
								c-63.997,0-115.877-51.88-115.877-115.877H574.328z"/>
						</g>
					</g>
					<g>
						<g>
							<path fill="#FFFFFF" d="M356.353,128.804L287.68,254.133c-46.169,84.258-59.057,182.768-36.118,276.067l55.631,226.27h90.542
								V588.288c0-7.474-0.941-13.534,6.534-13.534h7c7.474,0,13.534,6.059,13.534,13.534v169.938l86.64-0.402l48.903-173.148
								c1.906-5.418,7.023-9.043,12.767-9.043h236.915c5.565,0,10.562,3.406,12.597,8.586l68.342,174.008l84.274,1.756V465.022
								l0.542-44.84c1.154-95.418-75.36-173.654-170.78-174.623l-345.94-3.512l0,0"/>
						</g>
					</g>
					<g>
						<g>
							<path fill="#231F20" d="M656.059,308.989l-248.6,62.781c-28.061,7.086-56.553-9.917-63.64-37.978l-7.598-30.085
								c-7.086-28.061,9.917-56.553,37.978-63.64l248.6-62.781c28.061-7.086,56.553,9.917,63.64,37.978l7.598,30.085
								C701.123,273.41,684.12,301.902,656.059,308.989z"/>
						</g>
					</g>
					<g>
						<g>
							<path fill="#FFFFFF" d="M918.058,245.559c21.105,0,31.866,25.426,17.107,40.513c-10.518,10.752-25.19,17.426-41.419,17.426
								c-31.998,0-100.222-25.94-100.222-57.938H918.058z"/>
						</g>
					</g>
					<g>
						<g>
							<path fill="#FFFFFF" d="M330.496,128.804c-10.007,0-15.109,12.056-8.111,19.209c4.987,5.098,11.944,8.262,19.639,8.262
								c15.172,0,47.52-12.299,47.52-27.471H330.496z"/>
						</g>
					</g>
					<g>
						<g>
							<circle fill="#231F20" cx="445.698" cy="159.836" r="10.357"/>
						</g>
					</g>
					<g>
						<g>
							<g>
								<path fill="#231F20" d="M574.328,128.804h-33.437c0,18.567,15.052,33.619,33.619,33.619c3.12,0,6.138-0.434,9.004-1.23
									c1.667-5.736,2.906-11.654,3.673-17.721C588.169,135.698,582.165,128.804,574.328,128.804z"/>
							</g>
						</g>
					</g>
				</g>
				<g>
					<g>
						<path fill="#FFFFFF" d="M583.514,161.194c-3.605,28.536-37.211,60.328-66.384,64.805
							c-19.077,2.928-38.787-1.779-48.938-10.539L583.514,161.194z"/>
					</g>
				</g>
			</g>
			<g>
				<g>
					<path fill="#2E9AFF" d="M399.01,271.589l12.062-3.055l4.907,19.373l0.377-0.096c0.886-1.988,2.245-3.697,4.077-5.123
						c1.831-1.426,3.953-2.445,6.365-3.057c11.056-2.801,18.201,2.182,21.434,14.945c1.642,6.484,1.116,11.9-1.581,16.244
						c-2.697,4.348-7.336,7.354-13.919,9.021c-3.117,0.789-6.007,1.201-8.672,1.234c-2.667,0.033-4.678-0.205-6.038-0.717
						l-11.476-45.305l-6.257,1.584L399.01,271.589z M427.323,284.874c-3.015,0.764-5.236,2.236-6.663,4.414
						c-1.427,2.18-2.172,4.938-2.237,8.268l4.392,17.34c1.309,0.309,2.812,0.439,4.509,0.381c1.697-0.055,3.425-0.305,5.185-0.752
						c2.01-0.508,3.759-1.26,5.246-2.25c1.486-0.992,2.652-2.25,3.496-3.775c0.844-1.521,1.338-3.318,1.483-5.389
						c0.144-2.068-0.114-4.408-0.776-7.021c-0.484-1.91-1.144-3.668-1.978-5.277c-0.835-1.604-1.855-2.938-3.059-3.998
						c-1.204-1.057-2.603-1.773-4.194-2.145C431.134,284.296,429.333,284.365,427.323,284.874z"/>
					<path fill="#2E9AFF" d="M423.588,321.33c-2.456,0-4.356-0.247-5.654-0.735l-0.123-0.047l-0.032-0.126l-11.415-45.062
						l-6.257,1.584l-1.402-5.535l12.546-3.178l4.907,19.373l0.018-0.005c0.901-1.973,2.281-3.69,4.102-5.107
						c1.851-1.441,4.023-2.485,6.457-3.102c5.577-1.413,10.237-0.849,13.855,1.673c3.606,2.515,6.259,7.041,7.883,13.453
						c1.652,6.524,1.11,12.055-1.61,16.438c-2.719,4.383-7.453,7.455-14.07,9.132c-3.124,0.791-6.062,1.209-8.731,1.242
						C423.903,321.329,423.744,321.33,423.588,321.33z M418.232,320.171c1.322,0.467,3.278,0.681,5.825,0.656
						c2.63-0.033,5.528-0.445,8.614-1.227c6.488-1.644,11.12-4.642,13.768-8.911c2.646-4.264,3.168-9.664,1.551-16.051
						c-1.594-6.292-4.18-10.722-7.685-13.166c-3.494-2.436-8.018-2.976-13.446-1.599c-2.367,0.6-4.477,1.613-6.273,3.012
						c-1.79,1.393-3.136,3.084-4.002,5.027l-0.049,0.111l-0.737,0.187l-4.907-19.373l-11.577,2.932l1.157,4.566l6.257-1.584
						l0.061,0.242L418.232,320.171z M426.553,315.54c-1.391,0-2.665-0.135-3.796-0.401l-0.147-0.034l-4.437-17.521l0-0.033
						c0.065-3.364,0.832-6.19,2.278-8.399c1.457-2.224,3.748-3.744,6.811-4.52l0,0c2.039-0.519,3.896-0.587,5.521-0.206
						c1.622,0.378,3.069,1.118,4.302,2.2c1.22,1.075,2.268,2.444,3.115,4.07c0.841,1.621,1.513,3.415,1.999,5.331
						c0.666,2.625,0.929,5.015,0.784,7.101c-0.147,2.099-0.656,3.946-1.514,5.492c-0.859,1.552-2.062,2.852-3.576,3.862
						c-1.509,1.005-3.3,1.773-5.324,2.284c-1.766,0.449-3.528,0.704-5.238,0.76C427.068,315.535,426.808,315.54,426.553,315.54z
						 M423.019,314.686c1.261,0.28,2.704,0.391,4.295,0.341c1.674-0.054,3.4-0.305,5.132-0.744c1.969-0.498,3.708-1.243,5.169-2.216
						c1.447-0.966,2.596-2.207,3.416-3.688c0.822-1.482,1.311-3.26,1.452-5.285c0.142-2.033-0.117-4.369-0.769-6.942
						c-0.476-1.879-1.135-3.637-1.958-5.224c-0.818-1.57-1.828-2.892-3.001-3.926c-1.17-1.026-2.544-1.729-4.085-2.089
						c-1.546-0.362-3.324-0.293-5.285,0.204l0,0c-2.938,0.744-5.13,2.194-6.516,4.309c-1.389,2.122-2.127,4.848-2.196,8.103
						L423.019,314.686z"/>
				</g>
				<g>
					<path fill="#2E9AFF" d="M453.059,257.898l12.589-3.187l10.159,40.104c0.776,3.066,1.839,5.096,3.188,6.09
						c1.348,0.998,3.027,1.24,5.038,0.73c1.406-0.357,2.688-0.949,3.842-1.775s2.357-2.041,3.609-3.643l3.765,3.459
						c-0.628,0.91-1.352,1.76-2.169,2.555c-0.819,0.799-1.685,1.512-2.598,2.143c-0.913,0.633-1.848,1.176-2.805,1.633
						c-0.958,0.455-1.865,0.793-2.722,1.012c-1.866,0.473-3.589,0.654-5.173,0.547c-1.584-0.105-3.001-0.562-4.25-1.369
						c-1.251-0.807-2.347-2.014-3.291-3.619c-0.943-1.605-1.739-3.689-2.389-6.254l-8.879-35.053l-6.634,1.68L453.059,257.898z"/>
					<path fill="#2E9AFF" d="M480.669,307.843c-0.307,0-0.608-0.01-0.904-0.03c-1.619-0.107-3.089-0.581-4.369-1.408
						c-1.276-0.823-2.41-2.068-3.371-3.702c-0.951-1.618-1.764-3.744-2.416-6.319l-8.818-34.811l-6.634,1.68l-1.402-5.535
						l13.074-3.311l0.061,0.242l10.159,40.104c0.758,2.994,1.799,4.996,3.094,5.95c1.276,0.946,2.9,1.179,4.828,0.689
						c1.372-0.349,2.636-0.933,3.758-1.736c1.128-0.808,2.325-2.017,3.558-3.594l0.167-0.213l4.124,3.789l-0.124,0.179
						c-0.629,0.912-1.37,1.784-2.201,2.593c-0.821,0.8-1.706,1.53-2.63,2.169c-0.914,0.633-1.87,1.189-2.839,1.652
						c-0.972,0.462-1.903,0.808-2.768,1.028C483.482,307.648,482.024,307.843,480.669,307.843z M461.153,260.965l0.061,0.242
						l8.879,35.053c0.641,2.529,1.436,4.611,2.362,6.188c0.921,1.566,2.001,2.756,3.211,3.536c1.208,0.78,2.599,1.228,4.132,1.33
						c1.555,0.1,3.266-0.077,5.095-0.54c0.833-0.213,1.734-0.548,2.676-0.995c0.945-0.451,1.877-0.994,2.77-1.612
						c0.902-0.623,1.765-1.335,2.565-2.116c0.754-0.733,1.43-1.52,2.014-2.34l-3.405-3.129c-1.204,1.512-2.378,2.682-3.493,3.479
						c-1.173,0.84-2.494,1.45-3.926,1.814c-2.079,0.528-3.845,0.268-5.249-0.771c-1.39-1.024-2.494-3.121-3.281-6.229
						l-10.098-39.861l-12.104,3.064l1.157,4.566L461.153,260.965z"/>
				</g>
				<g>
					<path fill="#2E9AFF" d="M502.207,281.548c-1.54-6.08-1.177-11.295,1.092-15.639c2.269-4.346,6.342-7.264,12.222-8.752
						c3.166-0.803,6.022-0.977,8.571-0.525c2.547,0.449,4.798,1.363,6.751,2.74s3.6,3.18,4.939,5.408
						c1.339,2.227,2.359,4.725,3.06,7.486c0.764,3.016,1.052,5.844,0.866,8.484c-0.187,2.643-0.843,5.016-1.967,7.117
						c-1.125,2.104-2.714,3.91-4.765,5.418c-2.052,1.51-4.535,2.633-7.448,3.371c-3.117,0.791-5.961,0.963-8.533,0.518
						c-2.573-0.443-4.835-1.355-6.789-2.732c-1.953-1.377-3.6-3.18-4.939-5.408C503.927,286.808,502.907,284.312,502.207,281.548z
						 M508.463,279.962c0.446,1.76,1.103,3.465,1.976,5.115c0.872,1.652,1.962,3.061,3.27,4.227c1.309,1.166,2.834,1.982,4.58,2.449
						c1.744,0.469,3.718,0.422,5.922-0.137c4.007-1.016,6.711-3.023,8.111-6.025c1.397-3,1.487-6.914,0.265-11.738
						c-0.458-1.811-1.121-3.527-1.986-5.152c-0.865-1.627-1.965-3.02-3.297-4.18c-1.334-1.158-2.873-1.971-4.617-2.439
						c-1.745-0.469-3.719-0.422-5.923,0.137c-4.008,1.016-6.702,3.008-8.082,5.977C507.301,271.165,507.229,275.089,508.463,279.962
						z"/>
					<path fill="#2E9AFF" d="M519.874,297.664c-1.012,0-1.986-0.081-2.921-0.243c-2.595-0.446-4.913-1.38-6.891-2.774
						c-1.974-1.391-3.659-3.236-5.01-5.483c-1.345-2.235-2.384-4.777-3.087-7.554l0,0c-1.549-6.115-1.175-11.437,1.113-15.816
						c2.293-4.392,6.459-7.379,12.382-8.878c3.183-0.808,6.103-0.984,8.676-0.529c2.571,0.453,4.876,1.39,6.852,2.782
						c1.973,1.391,3.658,3.235,5.01,5.483c1.345,2.237,2.384,4.778,3.087,7.554c0.767,3.026,1.06,5.907,0.873,8.563
						c-0.188,2.664-0.86,5.093-1.997,7.218c-1.138,2.128-2.766,3.979-4.837,5.501c-2.066,1.521-4.602,2.669-7.535,3.412
						C523.583,297.408,521.671,297.664,519.874,297.664z M502.449,281.487c0.691,2.729,1.711,5.226,3.032,7.419
						c1.314,2.188,2.953,3.981,4.869,5.333c1.917,1.351,4.167,2.256,6.688,2.69c2.527,0.436,5.363,0.265,8.429-0.514
						c2.871-0.728,5.347-1.848,7.362-3.33c2.01-1.479,3.589-3.273,4.692-5.335c1.103-2.062,1.755-4.423,1.938-7.017
						c0.184-2.604-0.105-5.432-0.858-8.405c-0.692-2.728-1.711-5.224-3.032-7.419c-1.315-2.188-2.954-3.982-4.869-5.333
						c-1.915-1.35-4.152-2.258-6.65-2.698c-2.504-0.443-5.353-0.268-8.466,0.521c-5.78,1.463-9.838,4.365-12.062,8.625
						C501.292,270.292,500.932,275.494,502.449,281.487L502.449,281.487z M520.812,292.322c-0.914,0-1.778-0.109-2.588-0.327
						c-1.773-0.474-3.348-1.316-4.681-2.504c-1.326-1.183-2.444-2.628-3.324-4.297c-0.875-1.655-1.547-3.395-1.997-5.17
						c-1.244-4.909-1.166-8.925,0.234-11.935c1.407-3.026,4.181-5.083,8.247-6.113c2.239-0.567,4.273-0.611,6.05-0.136
						c1.773,0.477,3.36,1.314,4.716,2.492c1.351,1.176,2.479,2.606,3.354,4.251c0.871,1.636,1.547,3.389,2.007,5.208
						c1.231,4.857,1.136,8.863-0.281,11.905c-1.426,3.059-4.21,5.132-8.276,6.162C523.056,292.167,521.899,292.322,520.812,292.322z
						 M520.162,262.013c-1.045,0-2.161,0.149-3.337,0.447c-3.913,0.991-6.576,2.956-7.917,5.84
						c-1.349,2.903-1.417,6.806-0.203,11.601l0,0c0.44,1.737,1.098,3.439,1.955,5.06c0.852,1.616,1.934,3.015,3.215,4.157
						c1.274,1.135,2.78,1.94,4.478,2.395c1.691,0.453,3.641,0.407,5.796-0.138c3.913-0.992,6.586-2.974,7.946-5.889
						c1.367-2.935,1.451-6.828,0.25-11.571c-0.451-1.781-1.112-3.495-1.964-5.097c-0.846-1.59-1.936-2.973-3.241-4.108
						c-1.298-1.127-2.818-1.93-4.518-2.387C521.853,262.116,521.032,262.013,520.162,262.013z"/>
				</g>
				<g>
					<path fill="#2E9AFF" d="M572.928,249.755c-1.258-0.109-2.587-0.133-3.989-0.072c-1.402,0.061-2.757,0.256-4.062,0.588
						c-4.926,1.246-8.3,3.336-10.125,6.264c-1.825,2.93-2.1,6.914-0.823,11.951c0.562,2.219,1.414,4.107,2.558,5.668
						c1.144,1.559,2.522,2.779,4.135,3.656c1.613,0.879,3.419,1.412,5.42,1.604c2,0.189,4.105,0.006,6.317-0.555
						c2.361-0.6,4.557-1.59,6.587-2.973c2.028-1.385,3.629-2.934,4.8-4.645l3.746,3.703c-0.551,0.781-1.271,1.633-2.161,2.553
						c-0.89,0.922-1.953,1.846-3.188,2.773c-1.236,0.928-2.651,1.781-4.245,2.559c-1.596,0.779-3.372,1.416-5.332,1.914
						c-3.268,0.826-6.261,1.09-8.984,0.791c-2.724-0.299-5.134-1.107-7.231-2.42c-2.098-1.314-3.883-3.08-5.354-5.301
						c-1.473-2.223-2.583-4.814-3.334-7.781c-0.802-3.166-1.075-6.09-0.819-8.775c0.255-2.686,1.003-5.068,2.241-7.146
						c1.239-2.08,2.926-3.857,5.067-5.334c2.139-1.477,4.665-2.586,7.58-3.324c3.719-0.943,6.83-1.383,9.332-1.32
						c2.503,0.061,4.659,0.289,6.472,0.686l-0.018,0.246l2.654,10.477l-5.428,1.375L572.928,249.755z"/>
					<path fill="#2E9AFF" d="M565.794,285.903c-0.768,0-1.515-0.04-2.24-0.12c-2.745-0.301-5.213-1.127-7.337-2.456
						c-2.121-1.329-3.947-3.137-5.43-5.375c-1.481-2.233-2.614-4.878-3.368-7.857c-0.805-3.18-1.083-6.161-0.826-8.86
						c0.257-2.709,1.022-5.148,2.275-7.251c1.252-2.103,2.981-3.923,5.14-5.412c2.156-1.488,4.734-2.619,7.661-3.36
						c3.721-0.943,6.887-1.385,9.4-1.328c2.506,0.061,4.699,0.293,6.519,0.691l0.212,0.046l-0.031,0.422l2.705,10.68l-5.913,1.498
						l-1.832-7.229c-1.185-0.096-2.455-0.113-3.779-0.057c-1.382,0.06-2.732,0.255-4.012,0.58c-4.835,1.224-8.191,3.294-9.975,6.153
						c-1.779,2.856-2.046,6.812-0.793,11.758c0.551,2.178,1.398,4.056,2.518,5.582c1.119,1.524,2.482,2.73,4.053,3.584
						c1.573,0.857,3.365,1.387,5.324,1.574c1.964,0.188,4.062,0.002,6.232-0.548c2.324-0.59,4.513-1.578,6.508-2.938
						c1.993-1.36,3.586-2.901,4.735-4.579l0.169-0.247l4.109,4.062l-0.122,0.174c-0.558,0.79-1.293,1.659-2.185,2.582
						c-0.894,0.926-1.977,1.867-3.218,2.8c-1.246,0.935-2.688,1.804-4.285,2.583c-1.599,0.781-3.409,1.431-5.38,1.932
						C570.215,285.596,567.926,285.903,565.794,285.903z M570.595,244.376c-2.394,0-5.352,0.443-8.803,1.318
						c-2.869,0.727-5.392,1.833-7.5,3.288c-2.099,1.447-3.779,3.216-4.994,5.256c-1.214,2.038-1.957,4.408-2.207,7.042
						c-0.252,2.643,0.021,5.566,0.812,8.69c0.741,2.926,1.851,5.518,3.301,7.705c1.442,2.178,3.218,3.936,5.278,5.227
						c2.059,1.289,4.457,2.091,7.126,2.384c2.681,0.293,5.673,0.03,8.896-0.785c1.938-0.492,3.715-1.131,5.284-1.896
						c1.569-0.766,2.983-1.618,4.205-2.534c1.22-0.916,2.283-1.84,3.159-2.747c0.81-0.838,1.486-1.628,2.013-2.352l-3.383-3.345
						c-1.169,1.635-2.747,3.136-4.694,4.465c-2.043,1.393-4.286,2.404-6.667,3.009c-2.226,0.564-4.379,0.752-6.402,0.562
						c-2.027-0.194-3.883-0.743-5.516-1.633c-1.636-0.89-3.055-2.144-4.217-3.729c-1.158-1.578-2.032-3.514-2.599-5.754
						c-1.288-5.083-1.001-9.169,0.853-12.145c1.854-2.974,5.311-5.118,10.276-6.374c1.313-0.334,2.697-0.534,4.113-0.596
						c1.409-0.062,2.763-0.036,4.021,0.073l0.177,0.016l1.796,7.09l4.943-1.252l-2.603-10.273l0.005-0.069
						c-1.747-0.364-3.835-0.577-6.212-0.635C570.905,244.378,570.751,244.376,570.595,244.376z"/>
				</g>
				<g>
					<path fill="#2E9AFF" d="M581.584,225.341l12.212-3.094l7.906,31.209l4.146-1.049l10.764-19.895l7.085-1.795l-12.133,22.086
						l17.462,11.299l4.9-1.24l1.279,5.049l-7.764,1.967l-20.447-12.949l-4.146,1.051l4.315,17.035l-5.804,1.471l-12.087-47.717
						l-6.408,1.623L581.584,225.341z"/>
					<path fill="#2E9AFF" d="M601.178,276.789l-0.061-0.242l-12.026-47.475l-6.408,1.623l-1.402-5.535l12.697-3.217l0.061,0.242
						l7.845,30.967l3.798-0.961l10.764-19.895l7.749-1.963l-12.298,22.386l17.175,11.113l5.037-1.274l1.402,5.533l-8.111,2.055
						l-20.447-12.949l-3.8,0.963l4.315,17.035L601.178,276.789z M589.453,228.465l0.061,0.242l12.026,47.475l5.319-1.348
						l-4.315-17.035l4.493-1.139l20.447,12.949l7.417-1.879l-1.157-4.564l-4.763,1.206l-0.091-0.06l-17.657-11.425l11.968-21.786
						l-6.422,1.627l-10.764,19.895l-4.495,1.137l-0.061-0.242l-7.845-30.967l-11.727,2.971l1.157,4.566L589.453,228.465z"/>
				</g>
			</g>
		</g>
		<g>
			<g>
				<g>
					<line fill="#2E9AFF" x1="339.054" y1="928.831" x2="324.187" y2="833.465"/>
				</g>
				<g>
					<path fill="#FFFFFF" d="M339.052,930.83c-0.969,0-1.82-0.705-1.974-1.692l-14.868-95.365c-0.17-1.091,0.577-2.113,1.668-2.284
						c1.091-0.168,2.114,0.577,2.284,1.669l14.868,95.365c0.17,1.091-0.577,2.113-1.668,2.284
						C339.258,930.823,339.155,930.83,339.052,930.83z"/>
				</g>
			</g>
			<g>
				<g>
					<line fill="#2E9AFF" x1="564.722" y1="917.615" x2="567.176" y2="873.056"/>
				</g>
				<g>
					<path fill="#FFFFFF" d="M564.724,919.615c-0.037,0-0.074-0.001-0.112-0.003c-1.103-0.061-1.948-1.004-1.887-2.107l2.454-44.559
						c0.061-1.104,1.007-1.944,2.107-1.887c1.103,0.061,1.948,1.004,1.887,2.107l-2.454,44.559
						C566.66,918.79,565.777,919.615,564.724,919.615z"/>
				</g>
			</g>
			<g>
				<g>
					<line fill="#2E9AFF" x1="687.845" y1="853.51" x2="673.676" y2="945.176"/>
				</g>
				<g>
					<path fill="#FFFFFF" d="M673.678,947.176c-0.102,0-0.205-0.008-0.308-0.023c-1.091-0.169-1.839-1.19-1.671-2.282l14.169-91.666
						c0.168-1.092,1.192-1.839,2.282-1.671c1.091,0.169,1.839,1.19,1.671,2.282l-14.169,91.666
						C675.5,946.47,674.648,947.176,673.678,947.176z"/>
				</g>
			</g>
			<g>
				<g>
					<line fill="#2E9AFF" x1="874.571" y1="851.031" x2="870.905" y2="922.979"/>
				</g>
				<g>
					<path fill="#FFFFFF" d="M870.906,924.98c-0.034,0-0.068-0.001-0.103-0.003c-1.104-0.056-1.952-0.996-1.896-2.099l3.666-71.949
						c0.057-1.103,0.984-1.946,2.099-1.896c1.104,0.056,1.952,0.996,1.896,2.099l-3.666,71.949
						C872.848,924.15,871.964,924.98,870.906,924.98z"/>
				</g>
			</g>
			<g>
				<g>
					<path fill="#FFFFFF" d="M1061.692,837.857c14.089,2.137,27.632-3.53,36.533-14.541c4.612-5.706,9.206-13.319,9.588-20.862
						c0.799-15.775-2.641-26.504-16.699-34.416c-11.994-6.75-26.375-8.341-39.913-8.341c-0.067,0-33.545,0-33.545,0l-173.459-2.592
						H549.976l-170.56-0.735c-1.475,0.067-2.953,0.067-4.428,0l-69.83-3.154c0,0-95.844,1.727-95.847,1.727
						c-25.034-0.413-43.545,15.108-53.402,37.025c-6.338,14.092-4.6,34.238,3.223,47.405c10.266,17.28,34.957,29.386,53.853,24.831
						l101.589-28.422c6.345-1.529,12.931-1.776,19.372-0.727l225.368,36.72c5.207,0.848,10.516,0.851,15.724,0.007l109.236-17.694
						c2.377-0.385,4.78-0.594,7.188-0.626l178.147-2.366c3.299-0.044,6.586-0.421,9.81-1.125l122.501-23.903
						c5.852-1.278,16.191,2.58,16.191,2.58S1061.692,837.857,1061.692,837.857z"/>
				</g>
			</g>
		</g>
		<g>
			<g>
				<path fill="#FFFFFF" d="M961.987,947.176c-34.677,0-52.291-7.192-69.325-14.148c-17.444-7.123-33.921-13.852-67.812-13.852
					c-33.893,0-50.371,6.729-67.815,13.852c-17.034,6.956-34.649,14.148-69.327,14.148s-52.292-7.192-69.327-14.148
					c-17.445-7.123-33.922-13.852-67.815-13.852s-50.37,6.729-67.815,13.852c-17.034,6.956-34.648,14.148-69.327,14.148
					c-34.678,0-52.292-7.192-69.327-14.148c-17.445-7.123-33.922-13.852-67.815-13.852c-15.239,0-28.419,1.417-40.294,4.332
					c-0.985,0.245-2.002-0.296-2.354-1.253l-22.525-61.298c-0.197-0.535-0.155-1.13,0.114-1.633s0.74-0.867,1.295-1.001
					l111.201-26.803c0.259-0.062,0.529-0.073,0.791-0.029l242.668,39.538l120.348-19.494c0.097-0.016,0.195-0.023,0.293-0.025
					l186.523-2.477l127.151-27.769c0.254-0.055,0.517-0.062,0.774-0.016l55.021,9.723c0.544,0.097,1.023,0.413,1.326,0.875
					c0.302,0.462,0.4,1.028,0.271,1.565l-23.485,97.054c-0.152,0.626-0.596,1.141-1.192,1.383l-2.896,1.18
					C1014.278,939.984,996.663,947.176,961.987,947.176z M824.85,915.176c34.677,0,52.291,7.192,69.324,14.148
					c17.444,7.123,33.921,13.852,67.813,13.852c33.892,0,51.136-7.041,67.813-13.851l1.953-0.796l22.744-93.989l-52.536-9.283
					l-126.963,27.728c-0.131,0.028-0.266,0.044-0.4,0.046l-186.578,2.478l-120.523,19.522c-0.213,0.032-0.429,0.033-0.642-0.001
					l-242.59-39.525l-108.626,26.182l21.138,57.522c11.733-2.712,24.679-4.032,39.506-4.032c34.678,0,52.293,7.192,69.327,14.148
					c17.445,7.123,33.922,13.852,67.815,13.852s50.37-6.729,67.815-13.852c17.034-6.956,34.648-14.148,69.327-14.148
					s52.292,7.192,69.327,14.148c17.445,7.123,33.922,13.852,67.815,13.852s50.371-6.729,67.815-13.852
					C772.557,922.368,790.171,915.176,824.85,915.176z"/>
			</g>
		</g>
		<g>
			<g>
				<polygon fill="#FFFFFF" points="762.55,759.981 821.834,581.929 705.591,488.18 680.76,759.974 				"/>
			</g>
		</g>
	</g>
	<g>
		<g>
			<path fill="#2E9AFF" d="M1419.733,1049.706l286.586-138.926l-52.105-101.424l-335.475,163.196l32.578,72.279
				C1378.582,1041.73,1401.828,1044.901,1419.733,1049.706z"/>
		</g>
	</g>
	<g>
		<g>
			<g>
				<path fill="#231F20" d="M1645.921,884.315c-2.15-3.616-4.805-5.934-7.965-6.956c-3.16-1.021-6.469-0.671-9.93,1.047
					c-1.873,0.93-3.547,2.01-5.023,3.238c-1.475,1.231-2.62,2.632-3.43,4.207c-0.81,1.572-1.252,3.319-1.325,5.235
					c-0.073,1.917,0.328,4.042,1.205,6.375L1645.921,884.315z"/>
			</g>
		</g>
		<g>
			<g>
				<path fill="#231F20" d="M1289.927,1064.227c23.74-8.261,39.515-19.774,83.486-19.774c0.507,0,0.997,0.007,1.497,0.01
					l9.667-4.801l-15.521-31.251l-14.857,7.379l-2.842-5.721l21.602-10.729l18.362,36.972l14.515-7.209l2.843,5.721l-20.37,10.117
					c39.224,2.698,52.61,15.947,81.1,23.028l211.694-105.14c40.247-19.989,56.669-68.82,36.68-109.067l-1.691-3.404
					c-19.989-40.247-68.82-56.669-109.067-36.68l-281.299,139.71c-40.247,19.989-56.669,68.82-36.68,109.067L1289.927,1064.227z
					 M1612.104,886.526c0.946-2.812,2.509-5.378,4.69-7.705c2.181-2.323,4.921-4.307,8.223-5.947
					c2.391-1.188,4.908-2.046,7.554-2.581c2.644-0.531,5.295-0.376,7.95,0.47c2.656,0.846,5.223,2.552,7.703,5.115
					c2.481,2.565,4.78,6.338,6.899,11.317l-32.959,16.369c2.544,5.123,5.823,8.268,9.835,9.433
					c4.012,1.166,8.316,0.605,12.915-1.678c1.532-0.762,2.959-1.699,4.28-2.818c1.322-1.117,2.535-2.271,3.644-3.459
					c1.108-1.19,2.031-2.357,2.771-3.506c0.739-1.148,1.264-2.117,1.579-2.913l5.057,3.556c-0.572,1.419-1.358,2.875-2.357,4.363
					c-0.999,1.491-2.182,2.93-3.551,4.319c-1.369,1.389-2.871,2.684-4.508,3.889c-1.638,1.203-3.367,2.258-5.188,3.163
					c-3.416,1.696-6.696,2.668-9.836,2.915c-3.142,0.249-6.083-0.171-8.822-1.26c-2.74-1.087-5.245-2.771-7.512-5.052
					c-2.268-2.279-4.25-5.127-5.946-8.542c-1.781-3.587-2.866-7.021-3.255-10.306
					C1610.88,892.387,1611.159,889.338,1612.104,886.526z M1560.293,906.299l4.203,6.533l0.427-0.211
					c0.088-1.249,0.37-2.579,0.843-3.984c0.473-1.406,1.143-2.804,2.015-4.194c0.87-1.39,1.961-2.695,3.272-3.915
					c1.311-1.219,2.821-2.252,4.528-3.1c2.617-1.3,5.08-2.167,7.384-2.601c2.302-0.434,4.484-0.259,6.543,0.528
					c2.057,0.788,4.043,2.25,5.957,4.387c1.913,2.137,3.817,5.113,5.71,8.926l12.171,24.506l-6.746,3.35l-11.508-23.172
					c-2.342-4.713-4.87-7.884-7.587-9.509c-2.716-1.624-6.087-1.436-10.114,0.564c-1.475,0.733-2.759,1.742-3.852,3.029
					c-1.094,1.285-1.969,2.694-2.623,4.223c-0.654,1.529-1.089,3.143-1.307,4.844c-0.216,1.702-0.169,3.359,0.14,4.975l13.285,26.75
					l-6.574,3.266l-13.783-27.751c-0.254-0.512-0.601-1.173-1.039-1.986c-0.438-0.809-0.906-1.641-1.4-2.498
					c-0.496-0.852-0.998-1.685-1.508-2.497c-0.51-0.812-0.976-1.502-1.402-2.072l-5.721,2.841l-2.755-5.55L1560.293,906.299z
					 M1511.058,910.686c0.472-1.619,1.506-2.824,3.1-3.616c1.651-0.819,3.307-0.95,4.969-0.391c1.662,0.559,2.873,1.607,3.637,3.143
					c0.735,1.481,0.802,3.009,0.2,4.584c-0.6,1.575-1.727,2.775-3.377,3.594c-1.595,0.792-3.158,0.93-4.692,0.414
					c-1.533-0.515-2.667-1.513-3.402-2.994C1510.73,913.883,1510.585,912.305,1511.058,910.686z M1526.651,923.007l18.362,36.972
					l14.516-7.209l2.842,5.721l-36.118,17.938l-2.842-5.721l14.857-7.379l-15.521-31.251l-14.857,7.379l-2.842-5.721
					L1526.651,923.007z M1460.791,934.427l22.561,45.426c1.724,3.473,3.523,5.631,5.398,6.473c1.873,0.845,3.948,0.7,6.226-0.431
					c1.593-0.791,2.974-1.831,4.142-3.122c1.17-1.29,2.297-3.056,3.384-5.3l5.405,3.169c-0.517,1.252-1.162,2.459-1.938,3.624
					c-0.774,1.167-1.627,2.245-2.556,3.239c-0.931,0.995-1.911,1.888-2.94,2.684c-1.029,0.793-2.028,1.433-3,1.916
					c-2.113,1.05-4.131,1.714-6.056,1.997c-1.926,0.282-3.742,0.102-5.448-0.542c-1.708-0.641-3.334-1.803-4.881-3.483
					c-1.545-1.681-3.04-3.972-4.482-6.875l-19.719-39.705l-7.515,3.732l-2.841-5.721L1460.791,934.427z M1406.601,982.631
					l4.204,6.533l0.427-0.211c0.088-1.249,0.37-2.579,0.843-3.984c0.472-1.406,1.143-2.804,2.015-4.194
					c0.87-1.39,1.961-2.695,3.271-3.915c1.31-1.219,2.82-2.252,4.528-3.1c2.617-1.299,5.08-2.167,7.384-2.601
					c2.302-0.434,4.483-0.259,6.542,0.528c2.058,0.788,4.044,2.25,5.958,4.387c1.913,2.137,3.817,5.112,5.71,8.925l12.171,24.506
					l-6.746,3.35l-11.508-23.171c-2.342-4.713-4.871-7.884-7.587-9.509c-2.716-1.624-6.087-1.437-10.114,0.563
					c-1.475,0.733-2.759,1.742-3.853,3.028c-1.093,1.287-1.968,2.695-2.622,4.224s-1.089,3.143-1.307,4.844
					c-0.216,1.7-0.169,3.359,0.14,4.975l13.285,26.75l-6.575,3.265l-13.782-27.75c-0.254-0.513-0.601-1.174-1.04-1.986
					c-0.438-0.809-0.905-1.642-1.4-2.498c-0.495-0.852-0.997-1.686-1.507-2.497c-0.509-0.812-0.976-1.502-1.401-2.073l-5.721,2.842
					l-2.755-5.55L1406.601,982.631z M1357.367,987.017c0.472-1.619,1.506-2.823,3.1-3.615c1.65-0.82,3.307-0.95,4.969-0.392
					c1.662,0.56,2.873,1.608,3.636,3.145c0.736,1.48,0.803,3.009,0.202,4.583c-0.6,1.576-1.728,2.776-3.378,3.595
					c-1.594,0.792-3.157,0.929-4.691,0.413c-1.533-0.514-2.667-1.512-3.403-2.992
					C1357.039,990.215,1356.893,988.638,1357.367,987.017z"/>
			</g>
		</g>
	</g>
	<g>
		<g>
			<path fill="#FFFFFF" d="M1784.851,1074.453c-34.681,0-52.296-7.192-69.331-14.148c-17.446-7.123-33.924-13.852-67.818-13.852
				c-33.894,0-50.371,6.729-67.816,13.852c-17.034,6.956-34.649,14.148-69.327,14.148c-34.679,0-52.294-7.192-69.328-14.148
				c-17.445-7.123-33.923-13.852-67.816-13.852s-50.37,6.729-67.815,13.852c-17.034,6.956-34.648,14.148-69.327,14.148
				c-34.678,0-52.292-7.192-69.326-14.148c-17.445-7.123-33.922-13.852-67.815-13.852s-50.37,6.729-67.815,13.852
				c-17.034,6.956-34.648,14.148-69.327,14.148c-34.677,0-52.291-7.192-69.325-14.148c-17.444-7.123-33.921-13.852-67.812-13.852
				c-33.893,0-50.37,6.729-67.815,13.852c-17.034,6.956-34.649,14.148-69.327,14.148s-52.292-7.192-69.327-14.148
				c-17.445-7.123-33.922-13.852-67.815-13.852c-33.893,0-50.37,6.729-67.815,13.852c-17.034,6.956-34.648,14.148-69.327,14.148
				c-34.678,0-52.292-7.192-69.327-14.148c-17.444-7.123-33.922-13.852-67.815-13.852c-33.893,0-50.37,6.729-67.814,13.852
				c-17.035,6.956-34.649,14.148-69.328,14.148c-34.678,0-52.292-7.192-69.326-14.148c-17.445-7.123-33.921-13.852-67.814-13.852
				c-1.104,0-2-0.896-2-2s0.896-2,2-2c34.678,0,52.292,7.192,69.326,14.148c17.444,7.123,33.921,13.852,67.813,13.852
				c33.893,0,50.37-6.729,67.815-13.852c17.034-6.956,34.649-14.148,69.327-14.148c34.678,0,52.293,7.192,69.327,14.148
				c17.445,7.123,33.922,13.852,67.815,13.852c33.893,0,50.37-6.729,67.815-13.852c17.034-6.956,34.648-14.148,69.327-14.148
				c34.678,0,52.292,7.192,69.327,14.148c17.444,7.123,33.922,13.852,67.814,13.852c33.893,0,50.37-6.729,67.815-13.852
				c17.035-6.956,34.649-14.148,69.328-14.148c34.677,0,52.291,7.192,69.324,14.148c17.444,7.123,33.921,13.852,67.813,13.852
				c33.893,0,50.37-6.729,67.815-13.852c17.034-6.956,34.649-14.148,69.327-14.148c34.679,0,52.293,7.192,69.327,14.148
				c17.445,7.123,33.922,13.852,67.814,13.852s50.37-6.729,67.815-13.852c17.034-6.956,34.648-14.148,69.327-14.148
				s52.294,7.192,69.328,14.148c17.445,7.123,33.923,13.852,67.816,13.852c33.893,0,50.37-6.729,67.815-13.852
				c17.034-6.956,34.649-14.148,69.328-14.148c34.68,0,52.295,7.192,69.33,14.148c17.446,7.123,33.924,13.852,67.819,13.852
				c33.895,0,50.372-6.729,67.818-13.852c17.035-6.956,30.65-14.148,65.331-14.148c1.104,0,2,0.896,2,2s-0.896,2-2,2
				c-33.896,0-46.373,6.729-63.819,13.852C1837.146,1067.261,1819.53,1074.453,1784.851,1074.453z"/>
		</g>
	</g>
	<g>
		<ellipse fill="#FFFFFF" cx="1276.155" cy="110.322" rx="39.519" ry="39.515"/>
		<path fill="#2E9AFF" d="M1917.001,232.867c-0.595,0-1.184-0.265-1.578-0.77c-0.284-0.365-29.146-36.695-88.97-58.644
			c-35.134-12.889-73.926-18.372-115.307-16.304c-51.792,2.593-107.806,17.097-166.484,43.111
			c-11.498,5.098-23.058,9.849-34.358,14.121c-1.03,0.39-2.188-0.13-2.578-1.164c-0.391-1.033,0.131-2.188,1.164-2.578
			c11.231-4.246,22.722-8.968,34.151-14.035c59.2-26.246,115.756-40.868,168.094-43.46c41.941-2.075,81.287,3.523,116.939,16.644
			c60.801,22.375,90.214,59.477,90.503,59.849c0.679,0.871,0.523,2.127-0.348,2.806
			C1917.864,232.729,1917.432,232.867,1917.001,232.867z"/>
		<path fill="#2E9AFF" d="M1328.011,249.387c-44.597,0-87.428-6.736-127.909-20.158c-48.193-15.978-84.942-40.069-125.295-71.327
			c-6.568-5.088-13.195-10.348-19.604-15.434c-30.639-24.315-62.32-49.459-99.098-65.023
			c-34.001-14.39-71.375-26.599-121.182-39.586C783.461,24.44,732.191,13.713,682.537,5.977c-1.091-0.17-1.838-1.193-1.668-2.284
			c0.17-1.092,1.193-1.835,2.284-1.669c49.786,7.758,101.188,18.512,152.779,31.964c50.001,13.039,87.544,25.306,121.73,39.773
			c37.28,15.776,69.178,41.092,100.026,65.573c6.4,5.079,13.018,10.332,19.567,15.405c40.027,31.007,76.45,54.894,124.104,70.692
			c57.481,19.058,119.781,24.501,185.171,16.174c1.088-0.134,2.097,0.635,2.237,1.731c0.139,1.096-0.636,2.098-1.731,2.237
			C1367.062,248.117,1347.369,249.387,1328.011,249.387z"/>
		<path fill="#2E9AFF" d="M1328.092,339.649c-40.946,0-84.194-5.712-127.991-20.232c-45.688-15.148-83.925-29.282-125.294-61.328
			c-6.568-5.088-13.195-10.348-19.604-15.434c-30.639-24.315-62.32-49.459-99.098-65.023c-1.018-0.431-1.493-1.604-1.062-2.621
			c0.431-1.018,1.603-1.491,2.621-1.062c37.28,15.776,69.178,41.092,100.026,65.573c6.4,5.079,13.018,10.332,19.567,15.405
			c40.868,31.657,78.783,45.667,124.104,60.693c118.179,39.182,232.465,13.583,307.529-14.792
			c11.231-4.246,22.722-8.968,34.151-14.035c59.2-26.246,115.756-40.868,168.094-43.46c41.941-2.072,81.287,3.522,116.939,16.644
			c48.649,17.903,80.473,46.977,90.503,59.849c0.679,0.871,0.523,2.127-0.348,2.806c-0.87,0.68-2.126,0.525-2.807-0.346
			c-9.841-12.604-41.101-41.081-88.97-58.644c-35.134-12.89-73.926-18.377-115.307-16.304
			c-51.792,2.592-107.806,17.097-166.484,43.111c-11.498,5.098-23.058,9.849-34.358,14.121
			C1462.416,322.671,1398.676,339.649,1328.092,339.649z"/>
		<path fill="#2E9AFF" d="M1400.816,161.836c-0.99,0-1.851-0.734-1.981-1.742c-0.143-1.095,0.63-2.099,1.726-2.241
			c47.154-6.138,89.078-25.929,129.622-45.067c29.154-13.763,59.302-27.994,91.448-37.271c28.419-8.2,66.419-11.839,104.265-9.984
			c40.692,1.995,77.176,10.116,102.731,22.867c0.988,0.493,1.391,1.694,0.897,2.683c-0.494,0.989-1.696,1.389-2.683,0.897
			c-54.32-27.104-149.391-28.408-204.102-12.619c-31.839,9.188-61.839,23.35-90.851,37.045
			c-40.822,19.271-83.035,39.197-130.813,45.417L1400.816,161.836z"/>
		<path fill="#2E9AFF" d="M1367.568,425.615c-16.362,0-32.842-1.072-49.093-3.225c-1.095-0.145-1.865-1.15-1.72-2.245
			c0.145-1.095,1.161-1.865,2.245-1.72c36.124,4.784,73.412,4.178,107.84-1.749c57.968-9.979,116.253-40.266,170.604-71.509
			c38.548-22.158,95.212-27.581,137.798-13.185c1.046,0.354,1.607,1.488,1.254,2.535c-0.354,1.046-1.484,1.609-2.535,1.254
			c-41.58-14.057-96.898-8.766-134.522,12.864c-54.672,31.426-113.338,61.897-171.921,71.981
			C1408.194,423.945,1387.975,425.615,1367.568,425.615z"/>
		<path fill="#2E9AFF" d="M1220.402,409.441c-0.14,0-0.281-0.015-0.423-0.045c-42.883-9.231-86.908-22.504-118.405-56.821
			c-0.747-0.813-0.692-2.079,0.121-2.826c0.814-0.748,2.08-0.691,2.826,0.121c30.74,33.493,74.062,46.524,116.3,55.616
			c1.08,0.232,1.767,1.296,1.534,2.376C1222.153,408.799,1221.324,409.441,1220.402,409.441z"/>
		<path fill="#2E9AFF" d="M1809.269,374.156c0-20.213,16.388-36.598,36.602-36.598c-20.214,0-36.602-16.386-36.602-36.599
			c0,20.213-16.387,36.599-36.602,36.599C1792.882,337.559,1809.269,353.944,1809.269,374.156z"/>
		<path fill="#2E9AFF" d="M1591.95,460.228c0-20.213,16.388-36.598,36.602-36.598c-20.214,0-36.602-16.386-36.602-36.599
			c0,20.213-16.387,36.599-36.602,36.599C1575.563,423.63,1591.95,440.015,1591.95,460.228z"/>
		<path fill="#2E9AFF" d="M885.752,177.459c0-20.213,16.388-36.598,36.602-36.598c-20.214,0-36.602-16.386-36.602-36.599
			c0,20.213-16.386,36.599-36.602,36.599C869.366,140.862,885.752,157.246,885.752,177.459z"/>
		<path fill="#2E9AFF" d="M1455.152,230.866c0,4.761-3.858,8.619-8.619,8.619c-4.759,0-8.62-3.858-8.62-8.619
			c0-4.76,3.861-8.616,8.62-8.616C1451.294,222.25,1455.152,226.107,1455.152,230.866z"/>
	</g>
	<g>
		<g>
			<path fill="#FFFFFF" d="M1369.437,374.424c0,4.76-3.858,8.619-8.619,8.619c-4.759,0-8.62-3.858-8.62-8.619
				c0-4.76,3.86-8.617,8.62-8.617C1365.579,365.807,1369.437,369.663,1369.437,374.424z"/>
		</g>
	</g>
	<g>
		<g>
			<path fill="#FFFFFF" d="M1267.209,654.517l10.21,31.62c31.822-7.91,44.8-23.515,95.994-23.515c68.572,0,68.572,28,137.145,28
				c68.572,0,68.572-28,137.143-28c68.575,0,68.575,28,137.15,28c68.575,0,66.575-28,135.15-28v-24.543h-640.825
				C1270.642,638.078,1264.587,646.396,1267.209,654.517z"/>
		</g>
	</g>
	<g>
		<g>
			<polygon fill="#231F20" points="1784.159,495.513 1718.287,512.707 1718.287,478.319 1784.159,495.513 			"/>
		</g>
	</g>
	<g>
		<g>
			<rect x="1713.299" y="478.319" fill="#231F20" width="4.989" height="90.523"/>
		</g>
	</g>
	<g>
		<g>
			<path fill="#FFFFFF" d="M1713.299,552.091c-27.529,0-52.026,12.94-67.772,33.059c26.154,4.007,46.27,26.283,46.27,52.967h-5
				c0-26.206-21.444-47.709-48.074-48.57h-31.775c-26.825,0-48.57,21.746-48.57,48.57h48.57h20.323h22.853h48.293h100.909
				C1799.326,590.607,1760.81,552.091,1713.299,552.091z"/>
		</g>
	</g>
	<g>
		<g>
			<path fill="#231F20" d="M1577.954,638.119c0-16.013,12.981-28.994,28.994-28.994s28.994,12.981,28.994,28.994H1577.954z"/>
		</g>
	</g>
</g>
</svg>
