<svg xmlns="http://www.w3.org/2000/svg" viewBox="0 0 1920 1080" xml:space="preserve">
  <circle fill="#2E9AFF" cx="281.095" cy="194.434" r="194.434"/>
  <path fill="#FFF" d="M1784.851 819.899c-34.681 0-52.296-7.192-69.331-14.148-17.446-7.123-33.924-13.852-67.818-13.852s-50.371 6.729-67.816 13.852c-17.034 6.956-34.649 14.148-69.327 14.148-34.679 0-52.294-7.192-69.328-14.148-17.445-7.123-33.923-13.852-67.816-13.852s-50.37 6.729-67.815 13.852c-17.034 6.956-34.648 14.148-69.327 14.148-34.678 0-52.292-7.192-69.326-14.148-17.445-7.123-33.922-13.852-67.815-13.852s-50.37 6.729-67.815 13.852c-17.034 6.956-34.648 14.148-69.327 14.148-34.677 0-52.291-7.192-69.325-14.148-17.444-7.123-33.921-13.852-67.812-13.852-33.893 0-50.37 6.729-67.815 13.852-17.034 6.956-34.649 14.148-69.327 14.148s-52.292-7.192-69.327-14.148c-17.445-7.123-33.922-13.852-67.815-13.852s-50.37 6.729-67.815 13.852c-17.034 6.956-34.648 14.148-69.327 14.148-34.678 0-52.292-7.192-69.327-14.148-17.444-7.123-33.922-13.852-67.815-13.852s-50.37 6.729-67.814 13.852c-17.035 6.956-34.649 14.148-69.328 14.148-34.678 0-52.292-7.192-69.326-14.148C52.369 798.627 35.893 791.899 2 791.899c-1.104 0-2-.896-2-2s.896-2 2-2c34.678 0 52.292 7.192 69.326 14.148 17.444 7.123 33.921 13.852 67.813 13.852 33.893 0 50.37-6.729 67.815-13.852 17.034-6.956 34.649-14.148 69.327-14.148s52.293 7.192 69.327 14.148c17.445 7.123 33.922 13.852 67.815 13.852s50.37-6.729 67.815-13.852c17.034-6.956 34.648-14.148 69.327-14.148 34.678 0 52.292 7.192 69.327 14.148 17.444 7.123 33.922 13.852 67.814 13.852 33.893 0 50.37-6.729 67.815-13.852 17.035-6.956 34.649-14.148 69.328-14.148 34.677 0 52.291 7.192 69.324 14.148 17.444 7.123 33.921 13.852 67.813 13.852 33.893 0 50.37-6.729 67.815-13.852 17.034-6.956 34.649-14.148 69.327-14.148 34.679 0 52.293 7.192 69.327 14.148 17.445 7.123 33.922 13.852 67.814 13.852s50.37-6.729 67.815-13.852c17.034-6.956 34.648-14.148 69.327-14.148s52.294 7.192 69.328 14.148c17.445 7.123 33.923 13.852 67.816 13.852s50.37-6.729 67.815-13.852c17.034-6.956 34.649-14.148 69.328-14.148 34.68 0 52.295 7.192 69.33 14.148 17.446 7.123 33.924 13.852 67.819 13.852s50.372-6.729 67.818-13.852c17.035-6.956 30.65-14.148 65.331-14.148 1.104 0 2 .896 2 2s-.896 2-2 2c-33.896 0-46.373 6.729-63.819 13.852-17.031 6.955-34.647 14.148-69.326 14.148zM1570.99 149.478c0 4.76-3.858 8.619-8.619 8.619-4.759 0-8.62-3.858-8.62-8.619 0-4.76 3.86-8.617 8.62-8.617s8.619 3.857 8.619 8.617zM1194.285 149.835c0 4.76-3.858 8.619-8.619 8.619-4.759 0-8.62-3.858-8.62-8.619 0-4.76 3.86-8.617 8.62-8.617s8.619 3.857 8.619 8.617zM1920 8.617c0 4.76-3.858 8.619-8.619 8.619-4.759 0-8.62-3.858-8.62-8.619 0-4.76 3.86-8.617 8.62-8.617 4.761 0 8.619 3.857 8.619 8.617zM1165.669 475.512c0 4.76-3.858 8.619-8.619 8.619-4.759 0-8.62-3.858-8.62-8.619 0-4.76 3.861-8.617 8.62-8.617 4.761 0 8.619 3.857 8.619 8.617zM1864.49 425.512c0 4.76-3.858 8.619-8.619 8.619-4.759 0-8.62-3.858-8.62-8.619 0-4.76 3.86-8.617 8.62-8.617s8.619 3.857 8.619 8.617zM1712.57 203.051c0 4.76-3.858 8.619-8.619 8.619-4.759 0-8.62-3.858-8.62-8.619 0-4.76 3.86-8.617 8.62-8.617 4.761 0 8.619 3.856 8.619 8.617zM1524.49 545.512c0 4.76-3.858 8.619-8.619 8.619-4.759 0-8.62-3.858-8.62-8.619 0-4.76 3.86-8.617 8.62-8.617s8.619 3.857 8.619 8.617zM123.456 475.269c0 4.76-3.858 8.619-8.619 8.619-4.759 0-8.62-3.858-8.62-8.619 0-4.76 3.86-8.617 8.62-8.617s8.619 3.857 8.619 8.617zM185.419 537.232c0 4.76-3.858 8.619-8.619 8.619-4.759 0-8.62-3.858-8.62-8.619 0-4.76 3.86-8.617 8.62-8.617 4.761 0 8.619 3.857 8.619 8.617zM19.238 90.186c0 4.76-3.858 8.619-8.619 8.619C5.86 98.804 2 94.946 2 90.186s3.86-8.617 8.62-8.617 8.618 3.856 8.618 8.617zM129.238 12.186c0 4.76-3.858 8.619-8.619 8.619-4.759 0-8.62-3.858-8.62-8.619 0-4.76 3.86-8.617 8.62-8.617 4.761 0 8.619 3.856 8.619 8.617zM764.544 109.015c0 4.76-3.858 8.619-8.619 8.619-4.759 0-8.62-3.858-8.62-8.619 0-4.76 3.86-8.617 8.62-8.617 4.761 0 8.619 3.856 8.619 8.617zM1097.41 544.486c0 4.76-3.858 8.619-8.619 8.619-4.759 0-8.62-3.858-8.62-8.619 0-4.76 3.86-8.617 8.62-8.617 4.761 0 8.619 3.857 8.619 8.617zM1784.851 947.176c-34.681 0-52.296-7.192-69.331-14.148-17.446-7.123-33.924-13.852-67.818-13.852s-50.371 6.729-67.816 13.852c-17.034 6.956-34.649 14.148-69.327 14.148-34.679 0-52.294-7.192-69.328-14.148-17.445-7.123-33.923-13.852-67.816-13.852s-50.37 6.729-67.815 13.852c-17.034 6.956-34.648 14.148-69.327 14.148-34.678 0-52.292-7.192-69.326-14.148-17.445-7.123-33.922-13.852-67.815-13.852s-50.37 6.729-67.815 13.852c-17.034 6.956-34.648 14.148-69.327 14.148-34.677 0-52.291-7.192-69.325-14.148-17.444-7.123-33.921-13.852-67.812-13.852-33.893 0-50.37 6.729-67.815 13.852-17.034 6.956-34.649 14.148-69.327 14.148s-52.292-7.192-69.327-14.148c-17.445-7.123-33.922-13.852-67.815-13.852s-50.37 6.729-67.815 13.852c-17.034 6.956-34.648 14.148-69.327 14.148-34.678 0-52.292-7.192-69.327-14.148-17.444-7.123-33.922-13.852-67.815-13.852s-50.37 6.729-67.814 13.852c-17.035 6.956-34.649 14.148-69.328 14.148-34.678 0-52.292-7.192-69.326-14.148C52.369 925.905 35.893 919.176 2 919.176c-1.104 0-2-.896-2-2s.896-2 2-2c34.678 0 52.292 7.192 69.326 14.148 17.444 7.123 33.921 13.852 67.813 13.852 33.893 0 50.37-6.729 67.815-13.852 17.034-6.956 34.649-14.148 69.327-14.148s52.293 7.192 69.327 14.148c17.445 7.123 33.922 13.852 67.815 13.852s50.37-6.729 67.815-13.852c17.034-6.956 34.648-14.148 69.327-14.148 34.678 0 52.292 7.192 69.327 14.148 17.444 7.123 33.922 13.852 67.814 13.852 33.893 0 50.37-6.729 67.815-13.852 17.035-6.956 34.649-14.148 69.328-14.148 34.677 0 52.291 7.192 69.324 14.148 17.444 7.123 33.921 13.852 67.813 13.852 33.893 0 50.37-6.729 67.815-13.852 17.034-6.956 34.649-14.148 69.327-14.148 34.679 0 52.293 7.192 69.327 14.148 17.445 7.123 33.922 13.852 67.814 13.852s50.37-6.729 67.815-13.852c17.034-6.956 34.648-14.148 69.327-14.148s52.294 7.192 69.328 14.148c17.445 7.123 33.923 13.852 67.816 13.852s50.37-6.729 67.815-13.852c17.034-6.956 34.649-14.148 69.328-14.148 34.68 0 52.295 7.192 69.33 14.148 17.446 7.123 33.924 13.852 67.819 13.852s50.372-6.729 67.818-13.852c17.035-6.956 30.65-14.148 65.331-14.148 1.104 0 2 .896 2 2s-.896 2-2 2c-33.896 0-46.373 6.729-63.819 13.852-17.031 6.956-34.647 14.148-69.326 14.148zM1784.851 692.621c-34.681 0-52.296-7.192-69.331-14.148-17.446-7.123-33.924-13.852-67.818-13.852s-50.371 6.729-67.816 13.852c-17.034 6.956-34.649 14.148-69.327 14.148-34.679 0-52.294-7.192-69.328-14.148-17.445-7.123-33.923-13.852-67.816-13.852s-50.37 6.729-67.815 13.852c-17.034 6.956-34.648 14.148-69.327 14.148-34.678 0-52.292-7.192-69.326-14.148-17.445-7.123-33.922-13.852-67.815-13.852s-50.37 6.729-67.815 13.852c-17.034 6.956-34.648 14.148-69.327 14.148-34.677 0-52.291-7.192-69.325-14.148-17.444-7.123-33.921-13.852-67.812-13.852-33.893 0-50.37 6.729-67.815 13.852-17.034 6.956-34.649 14.148-69.327 14.148s-52.292-7.192-69.327-14.148c-17.445-7.123-33.922-13.852-67.815-13.852s-50.37 6.729-67.815 13.852c-17.034 6.956-34.648 14.148-69.327 14.148-34.678 0-52.292-7.192-69.327-14.148-17.444-7.123-33.922-13.852-67.815-13.852s-50.37 6.729-67.814 13.852c-17.035 6.956-34.649 14.148-69.328 14.148-34.678 0-52.292-7.192-69.326-14.148C52.369 671.35 35.893 664.621 2 664.621c-1.104 0-2-.896-2-2s.896-2 2-2c34.678 0 52.292 7.192 69.326 14.148 17.444 7.123 33.921 13.852 67.813 13.852 33.893 0 50.37-6.729 67.815-13.852 17.034-6.956 34.649-14.148 69.327-14.148s52.293 7.192 69.327 14.148c17.445 7.123 33.922 13.852 67.815 13.852s50.37-6.729 67.815-13.852c17.034-6.956 34.648-14.148 69.327-14.148 34.678 0 52.292 7.192 69.327 14.148 17.444 7.123 33.922 13.852 67.814 13.852 33.893 0 50.37-6.729 67.815-13.852 17.035-6.956 34.649-14.148 69.328-14.148 34.677 0 52.291 7.192 69.324 14.148 17.444 7.123 33.921 13.852 67.813 13.852 33.893 0 50.37-6.729 67.815-13.852 17.034-6.956 34.649-14.148 69.327-14.148 34.679 0 52.293 7.192 69.327 14.148 17.445 7.123 33.922 13.852 67.814 13.852s50.37-6.729 67.815-13.852c17.034-6.956 34.648-14.148 69.327-14.148s52.294 7.192 69.328 14.148c17.445 7.123 33.923 13.852 67.816 13.852s50.37-6.729 67.815-13.852c17.034-6.956 34.649-14.148 69.328-14.148 34.68 0 52.295 7.192 69.33 14.148 17.446 7.123 33.924 13.852 67.819 13.852s50.372-6.729 67.818-13.852c17.035-6.956 30.65-14.148 65.331-14.148 1.104 0 2 .896 2 2s-.896 2-2 2c-33.896 0-46.373 6.729-63.819 13.852-17.031 6.956-34.647 14.148-69.326 14.148zM574.328 128.804c7.837 0 13.841 6.893 12.859 14.668-7.209 57.072-55.929 101.208-114.957 101.208-63.997 0-115.877-51.88-115.877-115.877h217.975z"/>
  <path fill="#FFF" d="M356.353 128.804 287.68 254.133c-46.169 84.258-59.057 182.768-36.118 276.067l55.631 226.27h90.542V588.288c0-7.474-.941-13.534 6.534-13.534h7c7.474 0 13.534 6.059 13.534 13.534v169.938l86.64-.402 48.903-173.148c1.906-5.418 7.023-9.043 12.767-9.043h236.915c5.565 0 10.562 3.406 12.597 8.586l68.342 174.008 84.274 1.756V465.022l.542-44.84c1.154-95.418-75.36-173.654-170.78-174.623l-345.94-3.512"/>
  <path fill="#000000" d="m656.059 308.989-248.6 62.781c-28.061 7.086-56.553-9.917-63.64-37.978l-7.598-30.085c-7.086-28.061 9.917-56.553 37.978-63.64l248.6-62.781c28.061-7.086 56.553 9.917 63.64 37.978l7.598 30.085c7.086 28.061-9.917 56.553-37.978 63.64z"/>
  <path fill="#FFF" d="M918.058 245.559c21.105 0 31.866 25.426 17.107 40.513-10.518 10.752-25.19 17.426-41.419 17.426-31.998 0-100.222-25.94-100.222-57.938h124.534zM330.496 128.804c-10.007 0-15.109 12.056-8.111 19.209 4.987 5.098 11.944 8.262 19.639 8.262 15.172 0 47.52-12.299 47.52-27.471h-59.048z"/>
  <circle fill="#000000" cx="445.698" cy="159.836" r="10.357"/>
  <path fill="#000000" d="M574.328 128.804h-33.437c0 18.567 15.052 33.619 33.619 33.619 3.12 0 6.138-.434 9.004-1.23 1.667-5.736 2.906-11.654 3.673-17.721.982-7.774-5.022-14.668-12.859-14.668z"/>
  <path fill="#FFF" d="M583.514 161.194c-3.605 28.536-37.211 60.328-66.384 64.805-19.077 2.928-38.787-1.779-48.938-10.539l115.322-54.266z"/>
  <g fill="#2E9AFF">
    <path d="m399.01 271.589 12.062-3.055 4.907 19.373.377-.096c.886-1.988 2.245-3.697 4.077-5.123 1.831-1.426 3.953-2.445 6.365-3.057 11.056-2.801 18.201 2.182 21.434 14.945 1.642 6.484 1.116 11.9-1.581 16.244-2.697 4.348-7.336 7.354-13.919 9.021-3.117.789-6.007 1.201-8.672 1.234-2.667.033-4.678-.205-6.038-.717l-11.476-45.305-6.257 1.584-1.279-5.048zm28.313 13.285c-3.015.764-5.236 2.236-6.663 4.414-1.427 2.18-2.172 4.938-2.237 8.268l4.392 17.34c1.309.309 2.812.439 4.509.381 1.697-.055 3.425-.305 5.185-.752 2.01-.508 3.759-1.26 5.246-2.25 1.486-.992 2.652-2.25 3.496-3.775.844-1.521 1.338-3.318 1.483-5.389.144-2.068-.114-4.408-.776-7.021-.484-1.91-1.144-3.668-1.978-5.277-.835-1.604-1.855-2.938-3.059-3.998-1.204-1.057-2.603-1.773-4.194-2.145-1.593-.374-3.394-.305-5.404.204z"/>
    <path d="M423.588 321.33c-2.456 0-4.356-.247-5.654-.735l-.123-.047-.032-.126-11.415-45.062-6.257 1.584-1.402-5.535 12.546-3.178 4.907 19.373.018-.005c.901-1.973 2.281-3.69 4.102-5.107 1.851-1.441 4.023-2.485 6.457-3.102 5.577-1.413 10.237-.849 13.855 1.673 3.606 2.515 6.259 7.041 7.883 13.453 1.652 6.524 1.11 12.055-1.61 16.438-2.719 4.383-7.453 7.455-14.07 9.132-3.124.791-6.062 1.209-8.731 1.242-.159.001-.318.002-.474.002zm-5.356-1.159c1.322.467 3.278.681 5.825.656 2.63-.033 5.528-.445 8.614-1.227 6.488-1.644 11.12-4.642 13.768-8.911 2.646-4.264 3.168-9.664 1.551-16.051-1.594-6.292-4.18-10.722-7.685-13.166-3.494-2.436-8.018-2.976-13.446-1.599-2.367.6-4.477 1.613-6.273 3.012-1.79 1.393-3.136 3.084-4.002 5.027l-.049.111-.737.187-4.907-19.373-11.577 2.932 1.157 4.566 6.257-1.584.061.242 11.443 45.178zm8.321-4.631c-1.391 0-2.665-.135-3.796-.401l-.147-.034-4.437-17.521v-.033c.065-3.364.832-6.19 2.278-8.399 1.457-2.224 3.748-3.744 6.811-4.52 2.039-.519 3.896-.587 5.521-.206 1.622.378 3.069 1.118 4.302 2.2 1.22 1.075 2.268 2.444 3.115 4.07.841 1.621 1.513 3.415 1.999 5.331.666 2.625.929 5.015.784 7.101-.147 2.099-.656 3.946-1.514 5.492-.859 1.552-2.062 2.852-3.576 3.862-1.509 1.005-3.3 1.773-5.324 2.284-1.766.449-3.528.704-5.238.76-.263.009-.523.014-.778.014zm-3.534-.854c1.261.28 2.704.391 4.295.341 1.674-.054 3.4-.305 5.132-.744 1.969-.498 3.708-1.243 5.169-2.216 1.447-.966 2.596-2.207 3.416-3.688.822-1.482 1.311-3.26 1.452-5.285.142-2.033-.117-4.369-.769-6.942-.476-1.879-1.135-3.637-1.958-5.224-.818-1.57-1.828-2.892-3.001-3.926-1.17-1.026-2.544-1.729-4.085-2.089-1.546-.362-3.324-.293-5.285.204-2.938.744-5.13 2.194-6.516 4.309-1.389 2.122-2.127 4.848-2.196 8.103l4.346 17.157zM453.059 257.898l12.589-3.187 10.159 40.104c.776 3.066 1.839 5.096 3.188 6.09 1.348.998 3.027 1.24 5.038.73 1.406-.357 2.688-.949 3.842-1.775s2.357-2.041 3.609-3.643l3.765 3.459c-.628.91-1.352 1.76-2.169 2.555-.819.799-1.685 1.512-2.598 2.143-.913.633-1.848 1.176-2.805 1.633-.958.455-1.865.793-2.722 1.012-1.866.473-3.589.654-5.173.547-1.584-.105-3.001-.562-4.25-1.369-1.251-.807-2.347-2.014-3.291-3.619-.943-1.605-1.739-3.689-2.389-6.254l-8.879-35.053-6.634 1.68-1.28-5.053z"/>
    <path d="M480.669 307.843c-.307 0-.608-.01-.904-.03-1.619-.107-3.089-.581-4.369-1.408-1.276-.823-2.41-2.068-3.371-3.702-.951-1.618-1.764-3.744-2.416-6.319l-8.818-34.811-6.634 1.68-1.402-5.535 13.074-3.311.061.242 10.159 40.104c.758 2.994 1.799 4.996 3.094 5.95 1.276.946 2.9 1.179 4.828.689 1.372-.349 2.636-.933 3.758-1.736 1.128-.808 2.325-2.017 3.558-3.594l.167-.213 4.124 3.789-.124.179c-.629.912-1.37 1.784-2.201 2.593-.821.8-1.706 1.53-2.63 2.169-.914.633-1.87 1.189-2.839 1.652-.972.462-1.903.808-2.768 1.028-1.534.389-2.992.584-4.347.584zm-19.516-46.878.061.242 8.879 35.053c.641 2.529 1.436 4.611 2.362 6.188.921 1.566 2.001 2.756 3.211 3.536 1.208.78 2.599 1.228 4.132 1.33 1.555.1 3.266-.077 5.095-.54.833-.213 1.734-.548 2.676-.995.945-.451 1.877-.994 2.77-1.612.902-.623 1.765-1.335 2.565-2.116.754-.733 1.43-1.52 2.014-2.34l-3.405-3.129c-1.204 1.512-2.378 2.682-3.493 3.479-1.173.84-2.494 1.45-3.926 1.814-2.079.528-3.845.268-5.249-.771-1.39-1.024-2.494-3.121-3.281-6.229l-10.098-39.861-12.104 3.064 1.157 4.566 6.634-1.679zM502.207 281.548c-1.54-6.08-1.177-11.295 1.092-15.639 2.269-4.346 6.342-7.264 12.222-8.752 3.166-.803 6.022-.977 8.571-.525 2.547.449 4.798 1.363 6.751 2.74s3.6 3.18 4.939 5.408c1.339 2.227 2.359 4.725 3.06 7.486.764 3.016 1.052 5.844.866 8.484-.187 2.643-.843 5.016-1.967 7.117-1.125 2.104-2.714 3.91-4.765 5.418-2.052 1.51-4.535 2.633-7.448 3.371-3.117.791-5.961.963-8.533.518-2.573-.443-4.835-1.355-6.789-2.732-1.953-1.377-3.6-3.18-4.939-5.408-1.34-2.226-2.36-4.722-3.06-7.486zm6.256-1.586c.446 1.76 1.103 3.465 1.976 5.115.872 1.652 1.962 3.061 3.27 4.227 1.309 1.166 2.834 1.982 4.58 2.449 1.744.469 3.718.422 5.922-.137 4.007-1.016 6.711-3.023 8.111-6.025 1.397-3 1.487-6.914.265-11.738-.458-1.811-1.121-3.527-1.986-5.152-.865-1.627-1.965-3.02-3.297-4.18-1.334-1.158-2.873-1.971-4.617-2.439-1.745-.469-3.719-.422-5.923.137-4.008 1.016-6.702 3.008-8.082 5.977-1.381 2.969-1.453 6.893-.219 11.766z"/>
    <path d="M519.874 297.664c-1.012 0-1.986-.081-2.921-.243-2.595-.446-4.913-1.38-6.891-2.774-1.974-1.391-3.659-3.236-5.01-5.483-1.345-2.235-2.384-4.777-3.087-7.554-1.549-6.115-1.175-11.437 1.113-15.816 2.293-4.392 6.459-7.379 12.382-8.878 3.183-.808 6.103-.984 8.676-.529 2.571.453 4.876 1.39 6.852 2.782 1.973 1.391 3.658 3.235 5.01 5.483 1.345 2.237 2.384 4.778 3.087 7.554.767 3.026 1.06 5.907.873 8.563-.188 2.664-.86 5.093-1.997 7.218-1.138 2.128-2.766 3.979-4.837 5.501-2.066 1.521-4.602 2.669-7.535 3.412-2.006.508-3.918.764-5.715.764zm-17.425-16.177c.691 2.729 1.711 5.226 3.032 7.419 1.314 2.188 2.953 3.981 4.869 5.333 1.917 1.351 4.167 2.256 6.688 2.69 2.527.436 5.363.265 8.429-.514 2.871-.728 5.347-1.848 7.362-3.33 2.01-1.479 3.589-3.273 4.692-5.335 1.103-2.062 1.755-4.423 1.938-7.017.184-2.604-.105-5.432-.858-8.405-.692-2.728-1.711-5.224-3.032-7.419-1.315-2.188-2.954-3.982-4.869-5.333-1.915-1.35-4.152-2.258-6.65-2.698-2.504-.443-5.353-.268-8.466.521-5.78 1.463-9.838 4.365-12.062 8.625-2.23 4.268-2.59 9.47-1.073 15.463zm18.363 10.835c-.914 0-1.778-.109-2.588-.327-1.773-.474-3.348-1.316-4.681-2.504-1.326-1.183-2.444-2.628-3.324-4.297-.875-1.655-1.547-3.395-1.997-5.17-1.244-4.909-1.166-8.925.234-11.935 1.407-3.026 4.181-5.083 8.247-6.113 2.239-.567 4.273-.611 6.05-.136 1.773.477 3.36 1.314 4.716 2.492 1.351 1.176 2.479 2.606 3.354 4.251.871 1.636 1.547 3.389 2.007 5.208 1.231 4.857 1.136 8.863-.281 11.905-1.426 3.059-4.21 5.132-8.276 6.162-1.217.309-2.374.464-3.461.464zm-.65-30.309c-1.045 0-2.161.149-3.337.447-3.913.991-6.576 2.956-7.917 5.84-1.349 2.903-1.417 6.806-.203 11.601.44 1.737 1.098 3.439 1.955 5.06.852 1.616 1.934 3.015 3.215 4.157 1.274 1.135 2.78 1.94 4.478 2.395 1.691.453 3.641.407 5.796-.138 3.913-.992 6.586-2.974 7.946-5.889 1.367-2.935 1.451-6.828.25-11.571-.451-1.781-1.112-3.495-1.964-5.097-.846-1.59-1.936-2.973-3.241-4.108-1.298-1.127-2.818-1.93-4.518-2.387-.769-.207-1.59-.31-2.46-.31z"/>
    <g>
      <path d="M572.928 249.755c-1.258-.109-2.587-.133-3.989-.072-1.402.061-2.757.256-4.062.588-4.926 1.246-8.3 3.336-10.125 6.264-1.825 2.93-2.1 6.914-.823 11.951.562 2.219 1.414 4.107 2.558 5.668 1.144 1.559 2.522 2.779 4.135 3.656 1.613.879 3.419 1.412 5.42 1.604 2 .189 4.105.006 6.317-.555 2.361-.6 4.557-1.59 6.587-2.973 2.028-1.385 3.629-2.934 4.8-4.645l3.746 3.703c-.551.781-1.271 1.633-2.161 2.553-.89.922-1.953 1.846-3.188 2.773-1.236.928-2.651 1.781-4.245 2.559-1.596.779-3.372 1.416-5.332 1.914-3.268.826-6.261 1.09-8.984.791-2.724-.299-5.134-1.107-7.231-2.42-2.098-1.314-3.883-3.08-5.354-5.301-1.473-2.223-2.583-4.814-3.334-7.781-.802-3.166-1.075-6.09-.819-8.775.255-2.686 1.003-5.068 2.241-7.146 1.239-2.08 2.926-3.857 5.067-5.334 2.139-1.477 4.665-2.586 7.58-3.324 3.719-.943 6.83-1.383 9.332-1.32 2.503.061 4.659.289 6.472.686l-.018.246 2.654 10.477-5.428 1.375-1.816-7.162z"/>
      <path d="M565.794 285.903c-.768 0-1.515-.04-2.24-.12-2.745-.301-5.213-1.127-7.337-2.456-2.121-1.329-3.947-3.137-5.43-5.375-1.481-2.233-2.614-4.878-3.368-7.857-.805-3.18-1.083-6.161-.826-8.86.257-2.709 1.022-5.148 2.275-7.251 1.252-2.103 2.981-3.923 5.14-5.412 2.156-1.488 4.734-2.619 7.661-3.36 3.721-.943 6.887-1.385 9.4-1.328 2.506.061 4.699.293 6.519.691l.212.046-.031.422 2.705 10.68-5.913 1.498-1.832-7.229c-1.185-.096-2.455-.113-3.779-.057-1.382.06-2.732.255-4.012.58-4.835 1.224-8.191 3.294-9.975 6.153-1.779 2.856-2.046 6.812-.793 11.758.551 2.178 1.398 4.056 2.518 5.582 1.119 1.524 2.482 2.73 4.053 3.584 1.573.857 3.365 1.387 5.324 1.574 1.964.188 4.062.002 6.232-.548 2.324-.59 4.513-1.578 6.508-2.938 1.993-1.36 3.586-2.901 4.735-4.579l.169-.247 4.109 4.062-.122.174c-.558.79-1.293 1.659-2.185 2.582-.894.926-1.977 1.867-3.218 2.8-1.246.935-2.688 1.804-4.285 2.583-1.599.781-3.409 1.431-5.38 1.932-2.413.609-4.702.916-6.834.916zm4.801-41.527c-2.394 0-5.352.443-8.803 1.318-2.869.727-5.392 1.833-7.5 3.288-2.099 1.447-3.779 3.216-4.994 5.256-1.214 2.038-1.957 4.408-2.207 7.042-.252 2.643.021 5.566.812 8.69.741 2.926 1.851 5.518 3.301 7.705 1.442 2.178 3.218 3.936 5.278 5.227 2.059 1.289 4.457 2.091 7.126 2.384 2.681.293 5.673.03 8.896-.785 1.938-.492 3.715-1.131 5.284-1.896 1.569-.766 2.983-1.618 4.205-2.534 1.22-.916 2.283-1.84 3.159-2.747.81-.838 1.486-1.628 2.013-2.352l-3.383-3.345c-1.169 1.635-2.747 3.136-4.694 4.465-2.043 1.393-4.286 2.404-6.667 3.009-2.226.564-4.379.752-6.402.562-2.027-.194-3.883-.743-5.516-1.633-1.636-.89-3.055-2.144-4.217-3.729-1.158-1.578-2.032-3.514-2.599-5.754-1.288-5.083-1.001-9.169.853-12.145 1.854-2.974 5.311-5.118 10.276-6.374 1.313-.334 2.697-.534 4.113-.596 1.409-.062 2.763-.036 4.021.073l.177.016 1.796 7.09 4.943-1.252-2.603-10.273.005-.069c-1.747-.364-3.835-.577-6.212-.635-.151-.004-.305-.006-.461-.006z"/>
    </g>
    <g>
      <path d="m581.584 225.341 12.212-3.094 7.906 31.209 4.146-1.049 10.764-19.895 7.085-1.795-12.133 22.086 17.462 11.299 4.9-1.24 1.279 5.049-7.764 1.967-20.447-12.949-4.146 1.051 4.315 17.035-5.804 1.471-12.087-47.717-6.408 1.623-1.28-5.051z"/>
      <path d="m601.178 276.789-.061-.242-12.026-47.475-6.408 1.623-1.402-5.535 12.697-3.217.061.242 7.845 30.967 3.798-.961 10.764-19.895 7.749-1.963-12.298 22.386 17.175 11.113 5.037-1.274 1.402 5.533-8.111 2.055-20.447-12.949-3.8.963 4.315 17.035-6.29 1.594zm-11.725-48.324.061.242 12.026 47.475 5.319-1.348-4.315-17.035 4.493-1.139 20.447 12.949 7.417-1.879-1.157-4.564-4.763 1.206-.091-.06-17.657-11.425 11.968-21.786-6.422 1.627-10.764 19.895-4.495 1.137-.061-.242-7.845-30.967-11.727 2.971 1.157 4.566 6.409-1.623z"/>
    </g>
  </g>
  <path fill="#2E9AFF" d="m339.054 928.831-14.867-95.366"/>
  <path fill="#FFF" d="M339.052 930.83c-.969 0-1.82-.705-1.974-1.692l-14.868-95.365c-.17-1.091.577-2.113 1.668-2.284 1.091-.168 2.114.577 2.284 1.669l14.868 95.365c.17 1.091-.577 2.113-1.668 2.284-.104.016-.207.023-.31.023z"/>
  <path fill="#2E9AFF" d="m564.722 917.615 2.454-44.559"/>
  <path fill="#FFF" d="M564.724 919.615c-.037 0-.074-.001-.112-.003-1.103-.061-1.948-1.004-1.887-2.107l2.454-44.559c.061-1.104 1.007-1.944 2.107-1.887 1.103.061 1.948 1.004 1.887 2.107l-2.454 44.559c-.059 1.065-.942 1.89-1.995 1.89z"/>
  <path fill="#2E9AFF" d="m687.845 853.51-14.169 91.666"/>
  <path fill="#FFF" d="M673.678 947.176c-.102 0-.205-.008-.308-.023-1.091-.169-1.839-1.19-1.671-2.282l14.169-91.666c.168-1.092 1.192-1.839 2.282-1.671 1.091.169 1.839 1.19 1.671 2.282l-14.169 91.666c-.152.988-1.004 1.694-1.974 1.694z"/>
  <g>
    <path fill="#2E9AFF" d="m874.571 851.031-3.666 71.948"/>
    <path fill="#FFF" d="M870.906 924.98c-.034 0-.068-.001-.103-.003-1.104-.056-1.952-.996-1.896-2.099l3.666-71.949c.057-1.103.984-1.946 2.099-1.896 1.104.056 1.952.996 1.896 2.099l-3.666 71.949c-.054 1.069-.938 1.899-1.996 1.899z"/>
  </g>
  <g>
    <path fill="#FFF" d="M1061.692 837.857c14.089 2.137 27.632-3.53 36.533-14.541 4.612-5.706 9.206-13.319 9.588-20.862.799-15.775-2.641-26.504-16.699-34.416-11.994-6.75-26.375-8.341-39.913-8.341h-33.545l-173.459-2.592H549.976l-170.56-.735c-1.475.067-2.953.067-4.428 0l-69.83-3.154s-95.844 1.727-95.847 1.727c-25.034-.413-43.545 15.108-53.402 37.025-6.338 14.092-4.6 34.238 3.223 47.405 10.266 17.28 34.957 29.386 53.853 24.831l101.589-28.422c6.345-1.529 12.931-1.776 19.372-.727l225.368 36.72c5.207.848 10.516.851 15.724.007l109.236-17.694c2.377-.385 4.78-.594 7.188-.626l178.147-2.366c3.299-.044 6.586-.421 9.81-1.125l122.501-23.903c5.852-1.278 16.191 2.58 16.191 2.58l43.581 9.209z"/>
  </g>
  <g>
    <path fill="#FFF" d="M961.987 947.176c-34.677 0-52.291-7.192-69.325-14.148-17.444-7.123-33.921-13.852-67.812-13.852-33.893 0-50.371 6.729-67.815 13.852-17.034 6.956-34.649 14.148-69.327 14.148s-52.292-7.192-69.327-14.148c-17.445-7.123-33.922-13.852-67.815-13.852s-50.37 6.729-67.815 13.852c-17.034 6.956-34.648 14.148-69.327 14.148-34.678 0-52.292-7.192-69.327-14.148-17.445-7.123-33.922-13.852-67.815-13.852-15.239 0-28.419 1.417-40.294 4.332-.985.245-2.002-.296-2.354-1.253l-22.525-61.298c-.197-.535-.155-1.13.114-1.633s.74-.867 1.295-1.001l111.201-26.803c.259-.062.529-.073.791-.029l242.668 39.538 120.348-19.494c.097-.016.195-.023.293-.025l186.523-2.477 127.151-27.769c.254-.055.517-.062.774-.016l55.021 9.723c.544.097 1.023.413 1.326.875.302.462.4 1.028.271 1.565l-23.485 97.054c-.152.626-.596 1.141-1.192 1.383l-2.896 1.18c-17.034 6.956-34.649 14.148-69.325 14.148zm-137.137-32c34.677 0 52.291 7.192 69.324 14.148 17.444 7.123 33.921 13.852 67.813 13.852s51.136-7.041 67.813-13.851l1.953-.796 22.744-93.989-52.536-9.283-126.963 27.728c-.131.028-.266.044-.4.046l-186.578 2.478-120.523 19.522c-.213.032-.429.033-.642-.001l-242.59-39.525-108.626 26.182 21.138 57.522c11.733-2.712 24.679-4.032 39.506-4.032 34.678 0 52.293 7.192 69.327 14.148 17.445 7.123 33.922 13.852 67.815 13.852s50.37-6.729 67.815-13.852c17.034-6.956 34.648-14.148 69.327-14.148s52.292 7.192 69.327 14.148c17.445 7.123 33.922 13.852 67.815 13.852s50.371-6.729 67.815-13.852c17.033-6.957 34.647-14.149 69.326-14.149z"/>
  </g>
  <g>
    <path fill="#FFF" d="m762.55 759.981 59.284-178.052-116.243-93.749-24.831 271.794z"/>
  </g>
  <g>
    <path fill="#2E9AFF" d="m1419.733 1049.706 286.586-138.926-52.105-101.424-335.475 163.196 32.578 72.279c27.265-3.101 50.511.07 68.416 4.875z"/>
  </g>
  <g>
    <path fill="#000000" d="M1645.921 884.315c-2.15-3.616-4.805-5.934-7.965-6.956-3.16-1.021-6.469-.671-9.93 1.047-1.873.93-3.547 2.01-5.023 3.238-1.475 1.231-2.62 2.632-3.43 4.207-.81 1.572-1.252 3.319-1.325 5.235-.073 1.917.328 4.042 1.205 6.375l26.468-13.146z"/>
    <path fill="#000000" d="M1289.927 1064.227c23.74-8.261 39.515-19.774 83.486-19.774.507 0 .997.007 1.497.01l9.667-4.801-15.521-31.251-14.857 7.379-2.842-5.721 21.602-10.729 18.362 36.972 14.515-7.209 2.843 5.721-20.37 10.117c39.224 2.698 52.61 15.947 81.1 23.028l211.694-105.14c40.247-19.989 56.669-68.82 36.68-109.067l-1.691-3.404c-19.989-40.247-68.82-56.669-109.067-36.68l-281.299 139.71c-40.247 19.989-56.669 68.82-36.68 109.067l.881 1.772zm322.177-177.701c.946-2.812 2.509-5.378 4.69-7.705 2.181-2.323 4.921-4.307 8.223-5.947 2.391-1.188 4.908-2.046 7.554-2.581 2.644-.531 5.295-.376 7.95.47 2.656.846 5.223 2.552 7.703 5.115 2.481 2.565 4.78 6.338 6.899 11.317l-32.959 16.369c2.544 5.123 5.823 8.268 9.835 9.433 4.012 1.166 8.316.605 12.915-1.678 1.532-.762 2.959-1.699 4.28-2.818 1.322-1.117 2.535-2.271 3.644-3.459 1.108-1.19 2.031-2.357 2.771-3.506.739-1.148 1.264-2.117 1.579-2.913l5.057 3.556c-.572 1.419-1.358 2.875-2.357 4.363-.999 1.491-2.182 2.93-3.551 4.319-1.369 1.389-2.871 2.684-4.508 3.889-1.638 1.203-3.367 2.258-5.188 3.163-3.416 1.696-6.696 2.668-9.836 2.915-3.142.249-6.083-.171-8.822-1.26-2.74-1.087-5.245-2.771-7.512-5.052-2.268-2.279-4.25-5.127-5.946-8.542-1.781-3.587-2.866-7.021-3.255-10.306-.39-3.281-.111-6.33.834-9.142zm-51.811 19.773 4.203 6.533.427-.211c.088-1.249.37-2.579.843-3.984.473-1.406 1.143-2.804 2.015-4.194.87-1.39 1.961-2.695 3.272-3.915 1.311-1.219 2.821-2.252 4.528-3.1 2.617-1.3 5.08-2.167 7.384-2.601 2.302-.434 4.484-.259 6.543.528 2.057.788 4.043 2.25 5.957 4.387 1.913 2.137 3.817 5.113 5.71 8.926l12.171 24.506-6.746 3.35-11.508-23.172c-2.342-4.713-4.87-7.884-7.587-9.509-2.716-1.624-6.087-1.436-10.114.564-1.475.733-2.759 1.742-3.852 3.029-1.094 1.285-1.969 2.694-2.623 4.223-.654 1.529-1.089 3.143-1.307 4.844-.216 1.702-.169 3.359.14 4.975l13.285 26.75-6.574 3.266-13.783-27.751c-.254-.512-.601-1.173-1.039-1.986-.438-.809-.906-1.641-1.4-2.498-.496-.852-.998-1.685-1.508-2.497-.51-.812-.976-1.502-1.402-2.072l-5.721 2.841-2.755-5.55 11.441-5.682zm-49.235 4.387c.472-1.619 1.506-2.824 3.1-3.616 1.651-.819 3.307-.95 4.969-.391 1.662.559 2.873 1.607 3.637 3.143.735 1.481.802 3.009.2 4.584-.6 1.575-1.727 2.775-3.377 3.594-1.595.792-3.158.93-4.692.414-1.533-.515-2.667-1.513-3.402-2.994-.763-1.537-.908-3.115-.435-4.734zm15.593 12.321 18.362 36.972 14.516-7.209 2.842 5.721-36.118 17.938-2.842-5.721 14.857-7.379-15.521-31.251-14.857 7.379-2.842-5.721 21.603-10.729zm-65.86 11.42 22.561 45.426c1.724 3.473 3.523 5.631 5.398 6.473 1.873.845 3.948.7 6.226-.431 1.593-.791 2.974-1.831 4.142-3.122 1.17-1.29 2.297-3.056 3.384-5.3l5.405 3.169c-.517 1.252-1.162 2.459-1.938 3.624-.774 1.167-1.627 2.245-2.556 3.239-.931.995-1.911 1.888-2.94 2.684-1.029.793-2.028 1.433-3 1.916-2.113 1.05-4.131 1.714-6.056 1.997-1.926.282-3.742.102-5.448-.542-1.708-.641-3.334-1.803-4.881-3.483-1.545-1.681-3.04-3.972-4.482-6.875l-19.719-39.705-7.515 3.732-2.841-5.721 14.26-7.081zm-54.19 48.204 4.204 6.533.427-.211c.088-1.249.37-2.579.843-3.984.472-1.406 1.143-2.804 2.015-4.194.87-1.39 1.961-2.695 3.271-3.915 1.31-1.219 2.82-2.252 4.528-3.1 2.617-1.299 5.08-2.167 7.384-2.601 2.302-.434 4.483-.259 6.542.528 2.058.788 4.044 2.25 5.958 4.387 1.913 2.137 3.817 5.112 5.71 8.925l12.171 24.506-6.746 3.35-11.508-23.171c-2.342-4.713-4.871-7.884-7.587-9.509-2.716-1.624-6.087-1.437-10.114.563-1.475.733-2.759 1.742-3.853 3.028-1.093 1.287-1.968 2.695-2.622 4.224s-1.089 3.143-1.307 4.844c-.216 1.7-.169 3.359.14 4.975l13.285 26.75-6.575 3.265-13.782-27.75c-.254-.513-.601-1.174-1.04-1.986-.438-.809-.905-1.642-1.4-2.498-.495-.852-.997-1.686-1.507-2.497-.509-.812-.976-1.502-1.401-2.073l-5.721 2.842-2.755-5.55 11.44-5.681zm-49.234 4.386c.472-1.619 1.506-2.823 3.1-3.615 1.65-.82 3.307-.95 4.969-.392 1.662.56 2.873 1.608 3.636 3.145.736 1.48.803 3.009.202 4.583-.6 1.576-1.728 2.776-3.378 3.595-1.594.792-3.157.929-4.691.413-1.533-.514-2.667-1.512-3.403-2.992-.763-1.539-.909-3.116-.435-4.737z"/>
  </g>
  <g>
    <path fill="#FFF" d="M1784.851 1074.453c-34.681 0-52.296-7.192-69.331-14.148-17.446-7.123-33.924-13.852-67.818-13.852s-50.371 6.729-67.816 13.852c-17.034 6.956-34.649 14.148-69.327 14.148-34.679 0-52.294-7.192-69.328-14.148-17.445-7.123-33.923-13.852-67.816-13.852s-50.37 6.729-67.815 13.852c-17.034 6.956-34.648 14.148-69.327 14.148-34.678 0-52.292-7.192-69.326-14.148-17.445-7.123-33.922-13.852-67.815-13.852s-50.37 6.729-67.815 13.852c-17.034 6.956-34.648 14.148-69.327 14.148-34.677 0-52.291-7.192-69.325-14.148-17.444-7.123-33.921-13.852-67.812-13.852-33.893 0-50.37 6.729-67.815 13.852-17.034 6.956-34.649 14.148-69.327 14.148s-52.292-7.192-69.327-14.148c-17.445-7.123-33.922-13.852-67.815-13.852s-50.37 6.729-67.815 13.852c-17.034 6.956-34.648 14.148-69.327 14.148-34.678 0-52.292-7.192-69.327-14.148-17.444-7.123-33.922-13.852-67.815-13.852s-50.37 6.729-67.814 13.852c-17.035 6.956-34.649 14.148-69.328 14.148-34.678 0-52.292-7.192-69.326-14.148-17.445-7.123-33.921-13.852-67.814-13.852-1.104 0-2-.896-2-2s.896-2 2-2c34.678 0 52.292 7.192 69.326 14.148 17.444 7.123 33.921 13.852 67.813 13.852 33.893 0 50.37-6.729 67.815-13.852 17.034-6.956 34.649-14.148 69.327-14.148s52.293 7.192 69.327 14.148c17.445 7.123 33.922 13.852 67.815 13.852s50.37-6.729 67.815-13.852c17.034-6.956 34.648-14.148 69.327-14.148 34.678 0 52.292 7.192 69.327 14.148 17.444 7.123 33.922 13.852 67.814 13.852 33.893 0 50.37-6.729 67.815-13.852 17.035-6.956 34.649-14.148 69.328-14.148 34.677 0 52.291 7.192 69.324 14.148 17.444 7.123 33.921 13.852 67.813 13.852 33.893 0 50.37-6.729 67.815-13.852 17.034-6.956 34.649-14.148 69.327-14.148 34.679 0 52.293 7.192 69.327 14.148 17.445 7.123 33.922 13.852 67.814 13.852s50.37-6.729 67.815-13.852c17.034-6.956 34.648-14.148 69.327-14.148s52.294 7.192 69.328 14.148c17.445 7.123 33.923 13.852 67.816 13.852s50.37-6.729 67.815-13.852c17.034-6.956 34.649-14.148 69.328-14.148 34.68 0 52.295 7.192 69.33 14.148 17.446 7.123 33.924 13.852 67.819 13.852s50.372-6.729 67.818-13.852c17.035-6.956 30.65-14.148 65.331-14.148 1.104 0 2 .896 2 2s-.896 2-2 2c-33.896 0-46.373 6.729-63.819 13.852-17.034 6.956-34.65 14.148-69.329 14.148z"/>
  </g>
  <g>
    <ellipse fill="#FFF" cx="1276.155" cy="110.322" rx="39.519" ry="39.515"/>
    <path fill="#2E9AFF" d="M1917.001 232.867c-.595 0-1.184-.265-1.578-.77-.284-.365-29.146-36.695-88.97-58.644-35.134-12.889-73.926-18.372-115.307-16.304-51.792 2.593-107.806 17.097-166.484 43.111-11.498 5.098-23.058 9.849-34.358 14.121-1.03.39-2.188-.13-2.578-1.164-.391-1.033.131-2.188 1.164-2.578 11.231-4.246 22.722-8.968 34.151-14.035 59.2-26.246 115.756-40.868 168.094-43.46 41.941-2.075 81.287 3.523 116.939 16.644 60.801 22.375 90.214 59.477 90.503 59.849.679.871.523 2.127-.348 2.806-.365.286-.797.424-1.228.424zM1328.011 249.387c-44.597 0-87.428-6.736-127.909-20.158-48.193-15.978-84.942-40.069-125.295-71.327-6.568-5.088-13.195-10.348-19.604-15.434-30.639-24.315-62.32-49.459-99.098-65.023-34.001-14.39-71.375-26.599-121.182-39.586C783.461 24.44 732.191 13.713 682.537 5.977c-1.091-.17-1.838-1.193-1.668-2.284.17-1.092 1.193-1.835 2.284-1.669 49.786 7.758 101.188 18.512 152.779 31.964 50.001 13.039 87.544 25.306 121.73 39.773 37.28 15.776 69.178 41.092 100.026 65.573 6.4 5.079 13.018 10.332 19.567 15.405 40.027 31.007 76.45 54.894 124.104 70.692 57.481 19.058 119.781 24.501 185.171 16.174 1.088-.134 2.097.635 2.237 1.731.139 1.096-.636 2.098-1.731 2.237-19.974 2.544-39.667 3.814-59.025 3.814z"/>
    <path fill="#2E9AFF" d="M1328.092 339.649c-40.946 0-84.194-5.712-127.991-20.232-45.688-15.148-83.925-29.282-125.294-61.328-6.568-5.088-13.195-10.348-19.604-15.434-30.639-24.315-62.32-49.459-99.098-65.023-1.018-.431-1.493-1.604-1.062-2.621.431-1.018 1.603-1.491 2.621-1.062 37.28 15.776 69.178 41.092 100.026 65.573 6.4 5.079 13.018 10.332 19.567 15.405 40.868 31.657 78.783 45.667 124.104 60.693 118.179 39.182 232.465 13.583 307.529-14.792 11.231-4.246 22.722-8.968 34.151-14.035 59.2-26.246 115.756-40.868 168.094-43.46 41.941-2.072 81.287 3.522 116.939 16.644 48.649 17.903 80.473 46.977 90.503 59.849.679.871.523 2.127-.348 2.806-.87.68-2.126.525-2.807-.346-9.841-12.604-41.101-41.081-88.97-58.644-35.134-12.89-73.926-18.377-115.307-16.304-51.792 2.592-107.806 17.097-166.484 43.111-11.498 5.098-23.058 9.849-34.358 14.121-47.887 18.101-111.627 35.079-182.211 35.079zM1400.816 161.836c-.99 0-1.851-.734-1.981-1.742-.143-1.095.63-2.099 1.726-2.241 47.154-6.138 89.078-25.929 129.622-45.067 29.154-13.763 59.302-27.994 91.448-37.271 28.419-8.2 66.419-11.839 104.265-9.984 40.692 1.995 77.176 10.116 102.731 22.867.988.493 1.391 1.694.897 2.683-.494.989-1.696 1.389-2.683.897-54.32-27.104-149.391-28.408-204.102-12.619-31.839 9.188-61.839 23.35-90.851 37.045-40.822 19.271-83.035 39.197-130.813 45.417l-.259.015z"/>
    <path fill="#2E9AFF" d="M1367.568 425.615c-16.362 0-32.842-1.072-49.093-3.225-1.095-.145-1.865-1.15-1.72-2.245.145-1.095 1.161-1.865 2.245-1.72 36.124 4.784 73.412 4.178 107.84-1.749 57.968-9.979 116.253-40.266 170.604-71.509 38.548-22.158 95.212-27.581 137.798-13.185 1.046.354 1.607 1.488 1.254 2.535-.354 1.046-1.484 1.609-2.535 1.254-41.58-14.057-96.898-8.766-134.522 12.864-54.672 31.426-113.338 61.897-171.921 71.981-19.324 3.329-39.543 4.999-59.95 4.999zM1220.402 409.441c-.14 0-.281-.015-.423-.045-42.883-9.231-86.908-22.504-118.405-56.821-.747-.813-.692-2.079.121-2.826.814-.748 2.08-.691 2.826.121 30.74 33.493 74.062 46.524 116.3 55.616 1.08.232 1.767 1.296 1.534 2.376-.202.937-1.031 1.579-1.953 1.579zM1809.269 374.156c0-20.213 16.388-36.598 36.602-36.598-20.214 0-36.602-16.386-36.602-36.599 0 20.213-16.387 36.599-36.602 36.599 20.215.001 36.602 16.386 36.602 36.598zM1591.95 460.228c0-20.213 16.388-36.598 36.602-36.598-20.214 0-36.602-16.386-36.602-36.599 0 20.213-16.387 36.599-36.602 36.599 20.215 0 36.602 16.385 36.602 36.598zM885.752 177.459c0-20.213 16.388-36.598 36.602-36.598-20.214 0-36.602-16.386-36.602-36.599 0 20.213-16.386 36.599-36.602 36.599 20.216.001 36.602 16.385 36.602 36.598zM1455.152 230.866c0 4.761-3.858 8.619-8.619 8.619-4.759 0-8.62-3.858-8.62-8.619 0-4.76 3.861-8.616 8.62-8.616 4.761 0 8.619 3.857 8.619 8.616z"/>
  </g>
  <g>
    <path fill="#FFF" d="M1369.437 374.424c0 4.76-3.858 8.619-8.619 8.619-4.759 0-8.62-3.858-8.62-8.619 0-4.76 3.86-8.617 8.62-8.617 4.761 0 8.619 3.856 8.619 8.617z"/>
  </g>
  <g>
    <path fill="#FFF" d="m1267.209 654.517 10.21 31.62c31.822-7.91 44.8-23.515 95.994-23.515 68.572 0 68.572 28 137.145 28 68.572 0 68.572-28 137.143-28 68.575 0 68.575 28 137.15 28s66.575-28 135.15-28v-24.543h-640.825c-8.534-.001-14.589 8.317-11.967 16.438z"/>
  </g>
  <g>
    <path fill="#000000" d="m1784.159 495.513-65.872 17.194v-34.388l65.872 17.194z"/>
  </g>
  <g>
    <path fill="#000000" d="M1713.299 478.319h4.989v90.523h-4.989z"/>
  </g>
  <g>
    <path fill="#FFF" d="M1713.299 552.091c-27.529 0-52.026 12.94-67.772 33.059 26.154 4.007 46.27 26.283 46.27 52.967h-5c0-26.206-21.444-47.709-48.074-48.57h-31.775c-26.825 0-48.57 21.746-48.57 48.57H1799.326c0-47.51-38.516-86.026-86.027-86.026z"/>
  </g>
  <g>
    <path fill="#000000" d="M1577.954 638.119c0-16.013 12.981-28.994 28.994-28.994s28.994 12.981 28.994 28.994h-57.988z"/>
  </g>
</svg>
