<svg xmlns="http://www.w3.org/2000/svg" viewBox="0 0 1080 1080" xml:space="preserve">
  <circle fill="#2E9AFF" cx="204.35" cy="343.199" r="202.348"/>
  <path fill="#FFF" d="M801.04 957.262c-31.683 0-47.773-6.571-63.335-12.926-15.904-6.494-30.926-12.628-61.822-12.628-30.897 0-45.92 6.134-61.825 12.628-15.562 6.354-31.654 12.926-63.338 12.926-31.683 0-47.774-6.57-63.336-12.925-15.904-6.495-30.927-12.629-61.825-12.629s-45.921 6.134-61.825 12.629c-15.562 6.354-31.653 12.925-63.336 12.925s-47.775-6.57-63.337-12.925c-15.904-6.495-30.927-12.629-61.825-12.629-30.897 0-45.921 6.134-61.825 12.629-15.562 6.354-31.653 12.925-63.337 12.925-24.183 0-38.738-3.904-48.718-7.306-1.045-.355-1.604-1.492-1.247-2.538.355-1.045 1.491-1.6 2.538-1.248 9.687 3.302 23.831 7.092 47.427 7.092 30.898 0 45.921-6.134 61.825-12.628 15.562-6.354 31.654-12.926 63.337-12.926 31.684 0 47.775 6.571 63.337 12.926 15.904 6.494 30.928 12.628 61.825 12.628s45.92-6.134 61.824-12.628c15.562-6.354 31.653-12.926 63.337-12.926s47.775 6.571 63.337 12.926c15.904 6.494 30.927 12.628 61.824 12.628 30.898 0 45.921-6.134 61.826-12.629 15.562-6.354 31.654-12.925 63.337-12.925 31.682 0 47.772 6.57 63.334 12.925 15.904 6.495 30.926 12.629 61.823 12.629s45.921-6.134 61.825-12.628c15.562-6.354 31.653-12.926 63.337-12.926 1.104 0 2 .896 2 2s-.896 2-2 2c-30.897 0-45.921 6.134-61.825 12.629-15.561 6.354-31.653 12.925-63.337 12.925zM447.245 210.205c7.152 0 12.632 6.291 11.736 13.387-6.58 52.086-51.043 92.367-104.915 92.367-58.406 0-105.754-47.348-105.754-105.754h198.933z"/>
  <path fill="#FFF" d="m248.312 210.205-62.674 114.38c-42.136 76.897-53.898 166.802-32.963 251.951l50.772 206.504h82.633V629.55c0-6.821-.859-12.351 5.963-12.351h6.389c6.821 0 12.351 5.53 12.351 12.351v155.093l79.072-.367 44.631-158.023c1.739-4.945 6.41-8.253 11.652-8.253h216.219c5.079 0 9.64 3.109 11.496 7.836l9.051 23.045 53.321 135.762 76.912 1.602V517.052l.495-40.923c1.053-87.082-68.777-158.484-155.862-159.368l-315.72-3.205"/>
  <path fill="#000000" d="m517.398 375.77-218.006 55.055c-28.061 7.086-56.553-9.917-63.64-37.978l-4.692-18.58c-7.086-28.061 9.917-56.553 37.978-63.64l218.006-55.055c28.061-7.086 56.553 9.917 63.64 37.978l4.692 18.58c7.086 28.061-9.917 56.554-37.978 63.64z"/>
  <path fill="#FFF" d="M760.949 316.76c19.262 0 29.082 23.205 15.613 36.974-9.6 9.813-22.989 15.903-37.801 15.903-29.203 0-91.467-23.674-91.467-52.877h113.655zM224.714 210.205c-9.133 0-13.789 11.003-7.403 17.531 4.552 4.653 10.9 7.541 17.923 7.541 13.847 0 43.369-11.225 43.369-25.072h-53.889z"/>
  <circle fill="#000000" cx="329.853" cy="238.526" r="9.453"/>
  <path fill="#000000" d="M447.245 210.205H416.73c0 16.945 13.737 30.682 30.682 30.682 2.848 0 5.601-.396 8.218-1.122 1.521-5.235 2.653-10.636 3.352-16.173.896-7.096-4.584-13.387-11.737-13.387z"/>
  <g>
    <path fill="#FFF" d="M455.629 239.765c-3.29 26.043-33.961 55.058-60.585 59.144-17.41 2.672-35.399-1.623-44.663-9.618l105.248-49.526z"/>
  </g>
  <g>
    <path fill="#2E9AFF" d="m287.242 340.516 11.007-2.788 4.479 17.681.345-.088c.809-1.814 2.049-3.374 3.72-4.676 1.672-1.302 3.608-2.232 5.81-2.789 10.09-2.557 16.611 1.99 19.562 13.64 1.498 5.917 1.018 10.859-1.443 14.825-2.461 3.967-6.694 6.711-12.703 8.232-2.844.721-5.482 1.097-7.914 1.127-2.434.031-4.27-.188-5.51-.654l-10.474-41.348-5.711 1.446-1.168-4.608zm25.84 12.123c-2.752.697-4.779 2.041-6.081 4.03-1.303 1.989-1.983 4.504-2.042 7.546l4.008 15.823c1.194.282 2.565.399 4.115.349 1.549-.052 3.125-.28 4.731-.688 1.833-.464 3.431-1.148 4.787-2.055 1.356-.903 2.421-2.051 3.19-3.443.771-1.39 1.221-3.028 1.354-4.918.132-1.889-.104-4.025-.708-6.41-.441-1.742-1.043-3.347-1.806-4.814-.762-1.465-1.692-2.683-2.791-3.648-1.1-.966-2.375-1.619-3.827-1.959-1.452-.34-3.097-.277-4.93.187zM336.568 328.021l11.49-2.911 9.271 36.602c.709 2.797 1.678 4.651 2.908 5.559 1.23.908 2.764 1.131 4.598.666 1.283-.325 2.453-.865 3.507-1.621 1.054-.754 2.151-1.862 3.295-3.323l3.436 3.155c-.574.83-1.234 1.606-1.98 2.333-.747.727-1.537 1.378-2.37 1.955-.833.576-1.688 1.073-2.561 1.49-.874.415-1.701.724-2.484.922-1.703.432-3.275.598-4.721.5s-2.738-.514-3.88-1.25-2.142-1.837-3.003-3.303c-.86-1.465-1.588-3.368-2.18-5.707l-8.104-31.992-6.054 1.534-1.168-4.609zM381.424 349.604c-1.405-5.549-1.074-10.308.997-14.273 2.07-3.965 5.788-6.628 11.154-7.987 2.89-.731 5.497-.891 7.823-.479 2.324.411 4.378 1.246 6.16 2.502 1.783 1.258 3.285 2.902 4.508 4.935 1.223 2.033 2.154 4.312 2.793 6.834.697 2.751.96 5.333.79 7.743-.171 2.411-.769 4.577-1.796 6.494-1.027 1.921-2.476 3.569-4.348 4.945-1.872 1.378-4.139 2.402-6.799 3.076-2.844.721-5.439.878-7.787.473s-4.413-1.237-6.195-2.494c-1.783-1.256-3.286-2.901-4.509-4.935s-2.151-4.31-2.791-6.834zm5.711-1.446c.406 1.605 1.006 3.16 1.803 4.667.795 1.509 1.789 2.793 2.983 3.856 1.194 1.065 2.587 1.81 4.179 2.236 1.593.428 3.394.385 5.406-.125 3.656-.926 6.125-2.759 7.401-5.499 1.275-2.738 1.357-6.31.242-10.713-.419-1.651-1.022-3.219-1.812-4.703s-1.792-2.754-3.009-3.812c-1.218-1.058-2.621-1.801-4.214-2.228-1.593-.426-3.394-.385-5.405.124-3.658.927-6.116 2.747-7.376 5.456-1.261 2.712-1.325 6.293-.198 10.741zM445.968 320.589c-1.148-.1-2.362-.121-3.642-.066-1.279.057-2.515.234-3.707.536-4.495 1.139-7.575 3.044-9.241 5.718-1.665 2.674-1.915 6.31-.751 10.907.513 2.024 1.291 3.748 2.336 5.172 1.043 1.425 2.301 2.537 3.773 3.337 1.472.804 3.119 1.291 4.946 1.464 1.825.175 3.746.005 5.765-.507 2.156-.546 4.159-1.45 6.012-2.713 1.852-1.264 3.312-2.677 4.381-4.239l3.419 3.381c-.504.713-1.16 1.49-1.973 2.33-.812.841-1.782 1.684-2.909 2.53-1.129.848-2.42 1.626-3.875 2.336s-3.076 1.292-4.865 1.745c-2.982.755-5.715.996-8.2.723-2.484-.272-4.685-1.01-6.6-2.208-1.914-1.199-3.543-2.811-4.886-4.839-1.344-2.026-2.357-4.393-3.043-7.1-.732-2.89-.981-5.56-.748-8.011.233-2.449.915-4.624 2.046-6.521 1.13-1.897 2.67-3.521 4.623-4.869 1.952-1.348 4.259-2.36 6.919-3.034 3.394-.859 6.233-1.26 8.517-1.205 2.283.057 4.252.266 5.905.627l-.016.224 2.422 9.563-4.953 1.255-1.655-6.536zM453.867 298.307l11.146-2.823 7.215 28.481 3.784-.958 9.823-18.155 6.467-1.638-11.074 20.156 15.938 10.312 4.472-1.133 1.168 4.609-7.087 1.795-18.661-11.818-3.783.958 3.938 15.548-5.298 1.342-11.031-43.55-5.848 1.481-1.169-4.607z"/>
  </g>
  <g>
    <path fill="#FFF" d="m612.088 796.041 59.321-178.161-116.315-93.807-24.845 271.961z"/>
  </g>
  <g>
    <path fill="#2E9AFF" d="m232.525 940.344-13.569-87.034"/>
    <path fill="#FFF" d="M232.522 942.345c-.968 0-1.819-.705-1.974-1.692l-13.568-87.035c-.17-1.091.577-2.113 1.669-2.284 1.08-.166 2.113.577 2.284 1.669l13.568 87.035c.17 1.091-.577 2.113-1.669 2.284-.103.015-.208.023-.31.023z"/>
    <path fill="#2E9AFF" d="m438.479 930.108 2.239-40.666"/>
    <path fill="#FFF" d="M438.481 932.108c-.037 0-.074-.001-.112-.003-1.103-.061-1.947-1.004-1.887-2.107l2.239-40.667c.061-1.104.977-1.947 2.107-1.887 1.103.061 1.947 1.004 1.887 2.107l-2.239 40.667c-.059 1.066-.942 1.89-1.995 1.89z"/>
    <path fill="#2E9AFF" d="m550.846 871.603-12.931 83.659"/>
    <path fill="#FFF" d="M537.918 957.262c-.103 0-.205-.008-.309-.023-1.092-.169-1.84-1.19-1.671-2.282l12.931-83.658c.169-1.093 1.201-1.833 2.282-1.671 1.092.169 1.84 1.19 1.671 2.282l-12.931 83.658c-.152.987-1.004 1.694-1.973 1.694z"/>
    <g>
      <path fill="#2E9AFF" d="m721.26 869.34-3.345 65.664"/>
      <path fill="#FFF" d="M717.916 937.004c-.034 0-.069-.001-.104-.003-1.104-.056-1.952-.996-1.896-2.099l3.347-65.663c.056-1.104.997-1.949 2.099-1.896 1.104.056 1.952.996 1.896 2.099l-3.347 65.663c-.053 1.069-.937 1.899-1.995 1.899z"/>
    </g>
    <g>
      <path fill="#FFF" d="M892.035 857.317c12.859 1.95 25.218-3.221 33.341-13.271 4.209-5.207 8.402-12.155 8.751-19.04.729-14.397-2.41-24.189-15.24-31.41-10.946-6.161-24.071-7.612-36.426-7.612h-30.615l-158.306-2.366H425.021l-155.66-.67c-1.346.061-2.695.061-4.041 0l-63.73-2.878s-87.472 1.577-87.474 1.576c-22.847-.377-39.741 13.788-48.737 33.791-5.784 12.861-4.198 31.247 2.942 43.264 9.369 15.77 31.903 26.819 49.149 22.662l92.714-25.94c5.79-1.396 11.801-1.621 17.68-.663l205.681 33.512c4.752.774 9.597.776 14.35.007l99.693-16.148c2.17-.351 4.362-.542 6.56-.572l162.585-2.159c3.011-.04 6.011-.384 8.953-1.026l111.8-21.815c5.341-1.166 14.777 2.355 14.777 2.355l39.772 8.403z"/>
    </g>
  </g>
  <g>
    <path fill="#FFF" d="M801.04 957.262c-31.683 0-47.773-6.571-63.335-12.926-15.904-6.494-30.926-12.628-61.822-12.628-30.897 0-45.92 6.134-61.825 12.628-15.562 6.354-31.654 12.926-63.338 12.926-31.683 0-47.774-6.57-63.336-12.925-15.904-6.495-30.927-12.629-61.825-12.629s-45.921 6.134-61.825 12.629c-15.562 6.354-31.653 12.925-63.336 12.925s-47.775-6.571-63.337-12.925c-15.904-6.495-30.928-12.629-61.825-12.629-13.896 0-25.912 1.291-36.732 3.948-.984.244-2.003-.296-2.354-1.253l-20.558-55.943c-.197-.535-.156-1.129.113-1.633.27-.503.74-.867 1.295-1.001l101.487-24.461c.26-.062.528-.072.79-.029l221.441 36.079 109.808-17.786c.097-.016.194-.023.293-.025l170.251-2.261 141.352-25.33c.34-.06.693-.031 1.021.084l24.925 8.851c.966.343 1.516 1.359 1.275 2.355l-21.433 88.575c-.152.626-.596 1.141-1.192 1.383l-2.643 1.076c-15.56 6.354-31.653 12.925-63.335 12.925zm-125.157-29.554c31.682 0 47.772 6.57 63.334 12.925 15.904 6.495 30.926 12.629 61.823 12.629 30.896 0 45.92-6.134 61.824-12.628l1.699-.692 20.768-85.828-22.726-8.069-140.992 25.266c-.107.02-.217.029-.326.031l-170.267 2.261-109.983 17.814c-.212.033-.429.034-.641-.001L219.032 855.35l-98.912 23.84 19.171 52.169c10.679-2.455 22.459-3.649 35.944-3.649 31.684 0 47.775 6.57 63.337 12.925 15.904 6.495 30.927 12.629 61.825 12.629 30.897 0 45.92-6.134 61.824-12.628 15.562-6.354 31.653-12.926 63.337-12.926s47.775 6.571 63.337 12.926c15.904 6.494 30.927 12.628 61.824 12.628 30.898 0 45.921-6.134 61.826-12.629 15.563-6.357 31.655-12.927 63.338-12.927z"/>
  </g>
  <g>
    <path fill="#2E9AFF" d="m746.251 1058.643 20.894-39.981 230.4-119.041 63.247 18.696-10.729 50.115-131.172 77.5s-20.937-3.262-66.012 16.2c0 0-55.24 24.384-106.628-3.489z"/>
    <path fill="#000000" d="m990.994 942.606 21.095-13.06c-2.08-2.855-4.481-4.584-7.202-5.191-2.721-.606-5.459-.055-8.218 1.652-1.493.924-2.808 1.958-3.945 3.1-1.137 1.145-1.984 2.405-2.538 3.785-.554 1.377-.787 2.872-.698 4.479.089 1.609.59 3.354 1.506 5.235z"/>
    <path fill="#000000" d="M741.13 1060.537c11.042 1.969 19.303 5.073 27.269 8.298 8.426 1.592 18.316 2.586 30.64 2.586.521 0 1.026-.006 1.539-.01l-10.198-16.473-11.841 7.33-2.823-4.56 17.217-10.658 14.972 24.186c4.936-.21 9.444-.594 13.607-1.12l1.23-.761.343.553c39.894-5.486 47.786-24.041 101.116-24.041 13.18 0 23.578 1.136 32.375 2.926l91.062-56.373c32.076-19.857 41.982-61.958 22.125-94.034l-1.68-2.713c-19.857-32.077-61.958-41.982-94.034-22.125l-224.192 138.789c-15.288 9.464-25.517 23.987-29.908 40.064 7.639 2.475 14.263 5.366 21.181 8.136zm242.866-126.496c.571-2.424 1.676-4.692 3.317-6.807 1.641-2.113 3.776-3.985 6.407-5.615 1.906-1.18 3.943-2.095 6.112-2.749 2.169-.651 4.397-.729 6.682-.229 2.286.5 4.565 1.724 6.838 3.673 2.274 1.95 4.492 4.924 6.652 8.919l-26.268 16.261c2.527 4.083 5.514 6.456 8.958 7.115 3.445.66 6.998-.145 10.664-2.413 1.221-.757 2.34-1.652 3.357-2.69 1.018-1.038 1.942-2.096 2.776-3.176.833-1.081 1.513-2.129 2.042-3.148.528-1.017.891-1.869 1.092-2.558l4.505 2.577c-.367 1.231-.91 2.509-1.628 3.831-.718 1.325-1.594 2.62-2.63 3.888-1.035 1.268-2.189 2.468-3.463 3.604-1.275 1.133-2.638 2.15-4.089 3.049-2.723 1.685-5.388 2.754-7.993 3.206-2.607.454-5.098.333-7.473-.363-2.376-.695-4.601-1.906-6.674-3.635-2.074-1.728-3.954-3.953-5.638-6.675-1.77-2.859-2.946-5.645-3.528-8.359-.582-2.711-.588-5.282-.018-7.706zm-41.759 20.581 4.024 5.132.34-.21c-.024-1.051.107-2.184.393-3.396.285-1.213.736-2.433 1.356-3.663.618-1.23 1.428-2.406 2.428-3.528 1-1.121 2.182-2.103 3.542-2.946 2.086-1.291 4.076-2.209 5.968-2.752 1.89-.543 3.728-.567 5.511-.071 1.781.497 3.555 1.564 5.322 3.2 1.766 1.636 3.59 3.975 5.471 7.014l12.091 19.531-5.376 3.328-11.432-18.468c-2.326-3.757-4.687-6.208-7.086-7.354-2.397-1.145-5.201-.724-8.41 1.263-1.176.728-2.169 1.672-2.983 2.833-.814 1.16-1.435 2.406-1.862 3.735-.427 1.329-.665 2.712-.713 4.151-.047 1.439.121 2.821.506 4.147l13.198 21.319-5.24 3.244-13.693-22.117c-.252-.408-.594-.934-1.023-1.579-.43-.642-.886-1.301-1.365-1.978-.481-.674-.966-1.331-1.456-1.969-.49-.639-.934-1.179-1.334-1.623l-4.559 2.822-2.737-4.423 9.119-5.642zm-40.81 7.52c.268-1.39 1.038-2.479 2.309-3.265 1.316-.813 2.69-1.053 4.123-.716 1.433.337 2.527 1.118 3.286 2.343.73 1.18.906 2.452.526 3.816-.378 1.364-1.227 2.455-2.542 3.268-1.271.787-2.567 1.024-3.89.713-1.322-.311-2.347-1.056-3.078-2.236-.759-1.225-1.003-2.533-.734-3.923zm13.997 9.078 18.241 29.466 11.569-7.161 2.823 4.56-28.786 17.82-2.823-4.559 11.84-7.331-15.418-24.907-11.841 7.33-2.823-4.559 17.218-10.659zm-54.155 14.699 22.413 36.204c1.713 2.768 3.385 4.431 5.018 4.988 1.632.56 3.355.277 5.171-.847 1.269-.786 2.343-1.763 3.218-2.933.877-1.17 1.681-2.734 2.413-4.695l4.766 2.226c-.334 1.087-.779 2.146-1.336 3.181-.555 1.036-1.185 2.003-1.883 2.907-.7.904-1.449 1.728-2.247 2.474-.798.744-1.583 1.357-2.358 1.836-1.684 1.043-3.319 1.756-4.905 2.143-1.588.386-3.12.378-4.596-.027-1.478-.402-2.928-1.246-4.353-2.529-1.423-1.284-2.852-3.082-4.284-5.396l-19.589-31.644-5.99 3.707-2.822-4.56 11.364-7.035zm-41.523 44.532 4.025 5.132.341-.21c-.024-1.051.107-2.184.392-3.396.284-1.212.736-2.433 1.356-3.663.618-1.23 1.428-2.406 2.428-3.528 1-1.121 2.181-2.103 3.542-2.946 2.086-1.291 4.076-2.209 5.968-2.752 1.89-.543 3.727-.567 5.51-.071 1.782.498 3.556 1.564 5.323 3.201 1.766 1.637 3.591 3.974 5.472 7.013l12.091 19.531-5.376 3.328-11.432-18.467c-2.326-3.756-4.688-6.208-7.086-7.354-2.397-1.145-5.2-.724-8.41 1.263-1.176.728-2.169 1.672-2.984 2.833-.812 1.161-1.434 2.407-1.861 3.736-.427 1.329-.665 2.713-.714 4.151-.047 1.438.122 2.82.507 4.147l13.198 21.319-5.241 3.244-13.691-22.116c-.253-.409-.594-.934-1.025-1.579-.429-.642-.885-1.302-1.366-1.978-.48-.674-.965-1.331-1.455-1.969-.489-.639-.933-1.179-1.333-1.624l-4.559 2.823-2.737-4.423 9.117-5.645zm-40.809 7.519c.268-1.39 1.038-2.478 2.308-3.264 1.315-.815 2.69-1.053 4.122-.717 1.433.338 2.527 1.119 3.285 2.344.731 1.18.906 2.452.527 3.814-.378 1.365-1.227 2.456-2.542 3.269-1.271.787-2.566 1.023-3.889.712-1.322-.309-2.347-1.055-3.079-2.235-.756-1.224-1.001-2.531-.732-3.923z"/>
  </g>
  <g>
    <path fill="#FFF" d="M1051.363 1073.421c-31.683 0-47.774-6.571-63.336-12.926-15.904-6.494-30.927-12.629-61.825-12.629-30.897 0-45.92 6.135-61.825 12.629-15.562 6.354-31.653 12.926-63.337 12.926-31.683 0-47.773-6.571-63.335-12.926-15.904-6.494-30.926-12.629-61.822-12.629-30.897 0-45.92 6.135-61.825 12.629-15.562 6.354-31.654 12.926-63.338 12.926-31.683 0-47.774-6.571-63.336-12.926-15.904-6.494-30.927-12.629-61.825-12.629s-45.921 6.135-61.825 12.629c-15.562 6.354-31.653 12.926-63.336 12.926s-47.775-6.571-63.337-12.926c-15.904-6.494-30.928-12.629-61.825-12.629-30.898 0-45.921 6.135-61.825 12.629-15.562 6.354-31.653 12.926-63.337 12.926-24.186 0-38.74-3.904-48.719-7.307-1.045-.356-1.604-1.492-1.247-2.538.355-1.045 1.492-1.606 2.538-1.247 9.686 3.302 23.829 7.092 47.428 7.092 30.898 0 45.92-6.135 61.825-12.629 15.562-6.354 31.653-12.926 63.337-12.926s47.775 6.571 63.337 12.926c15.905 6.494 30.927 12.629 61.825 12.629 30.897 0 45.92-6.135 61.824-12.629 15.562-6.354 31.653-12.926 63.337-12.926s47.775 6.571 63.337 12.926c15.904 6.494 30.927 12.629 61.824 12.629 30.898 0 45.921-6.135 61.826-12.629 15.562-6.354 31.654-12.926 63.337-12.926 31.682 0 47.772 6.571 63.334 12.926 15.904 6.494 30.926 12.629 61.823 12.629s45.921-6.135 61.825-12.629c15.562-6.354 31.654-12.926 63.337-12.926 31.684 0 47.775 6.571 63.337 12.926 15.904 6.494 30.927 12.629 61.824 12.629 11.108 0 16.86-.806 25.813-2.462 1.093-.203 2.129.518 2.331 1.603.201 1.087-.517 2.13-1.603 2.331-9.196 1.701-15.186 2.528-26.541 2.528z"/>
  </g>
  <g>
    <path fill="#2E9AFF" d="M512.145 172.044c-19.301 0-37.797-1.42-55.405-4.262-34.931-5.638-66.454-16.855-93.692-33.34-24.267-14.686-40.571-30.923-49.976-41.959-10.232-12.007-14.657-20.446-14.841-20.8-.509-.979-.126-2.186.854-2.695.979-.506 2.187-.128 2.696.853.175.334 17.944 33.782 63.563 61.316 26.796 16.173 57.824 27.177 92.225 32.707 43.062 6.922 91.565 5.24 144.159-5.002 10.34-2.013 20.652-3.739 30.65-5.132 1.077-.158 2.105.609 2.257 1.704.152 1.095-.61 2.104-1.704 2.257-9.929 1.384-20.17 3.098-30.439 5.097-31.666 6.167-61.88 9.256-90.347 9.256zM980.622 276.877c-.551 0-1.099-.226-1.494-.669-27.846-31.236-53.896-56.268-90.523-76.898-44.19-24.89-94.593-39.937-149.808-44.725-1.101-.095-1.915-1.064-1.819-2.165.095-1.101 1.067-1.933 2.165-1.819 55.787 4.837 106.734 20.053 151.425 45.225 37.109 20.901 63.436 46.187 91.547 77.721.734.824.662 2.089-.162 2.824-.383.339-.857.506-1.331.506z"/>
    <path fill="#2E9AFF" d="M1078 282.232c-.383 0-.77-.109-1.111-.339-25.635-17.173-42.913-39-62.265-62.108-6.121-7.309-12.449-14.866-18.976-22.187-28.422-31.882-57.332-49.428-92.173-69.052C812.62 77.372 714.29 77.671 647.803 86.93c-9.933 1.383-20.174 3.098-30.439 5.097-53.135 10.349-102.173 12.028-145.752 4.993-34.932-5.638-66.454-16.855-93.693-33.34-46.48-28.129-64.09-61.357-64.816-62.759-.509-.979-.126-2.186.854-2.695.979-.507 2.187-.127 2.696.853 6.024 11.574 27.062 39.285 63.564 61.316 26.796 16.173 57.824 27.177 92.224 32.707 43.062 6.924 91.564 5.24 144.16-5.001 10.335-2.013 20.647-3.74 30.651-5.132 67.098-9.349 166.358-9.63 258.188 42.094 35.169 19.809 64.363 37.532 93.196 69.874 6.566 7.366 12.916 14.948 19.056 22.28 19.163 22.884 36.264 44.498 61.425 61.354.918.614 1.163 1.856.548 2.774-.388.576-1.02.887-1.665.887z"/>
    <path fill="#2E9AFF" d="M541.851 41.435c-26.166.001-51.891-4.665-75.565-18.176-.959-.548-1.293-1.77-.746-2.729.548-.959 1.768-1.295 2.729-.746 50.608 28.883 111.659 16.135 165.521 4.887 3.054-.638 6.09-1.271 9.105-1.895 59.076-12.2 117.444-21.308 181.951.973 1.044.36 1.598 1.5 1.237 2.544-.36 1.043-1.501 1.594-2.544 1.237-63.547-21.948-121.326-12.92-179.836-.835-3.012.622-6.045 1.255-9.097 1.893-29.683 6.198-61.531 12.846-92.755 12.847z"/>
  </g>
  <g>
    <path fill="#FFF" d="M63.447 649.967c0 5.916-4.795 10.711-10.711 10.711-5.915 0-10.713-4.795-10.713-10.711s4.798-10.709 10.713-10.709c5.916 0 10.711 4.793 10.711 10.709zM111.406 586.074c0 5.916-4.795 10.711-10.711 10.711-5.915 0-10.713-4.795-10.713-10.711s4.798-10.709 10.713-10.709c5.916 0 10.711 4.793 10.711 10.709zM163.969 10.709c0 5.916-4.795 10.711-10.711 10.711-5.915 0-10.713-4.795-10.713-10.711S147.342 0 153.257 0c5.916 0 10.712 4.793 10.712 10.709zM1024.801 586.074c0 5.916-4.795 10.711-10.711 10.711-5.915 0-10.713-4.795-10.713-10.711s4.798-10.709 10.713-10.709c5.915 0 10.711 4.793 10.711 10.709zM912.688 459.853c0 5.916-4.795 10.711-10.711 10.711-5.915 0-10.713-4.795-10.713-10.711s4.798-10.709 10.713-10.709c5.916 0 10.711 4.793 10.711 10.709zM695.833 146.592c0 5.916-4.795 10.711-10.711 10.711-5.915 0-10.713-4.795-10.713-10.711s4.798-10.709 10.713-10.709c5.915-.001 10.711 4.793 10.711 10.709zM23.426 108.927c0 5.916-4.795 10.711-10.711 10.711-5.915 0-10.713-4.795-10.713-10.711S6.8 98.218 12.715 98.218c5.916 0 10.711 4.793 10.711 10.709z"/>
    <ellipse fill="#FFF" cx="1014.431" cy="65.562" rx="65.569" ry="65.562"/>
    <path fill="#2E9AFF" d="M1017.256 351.774c0-17.616 14.281-31.896 31.898-31.896-17.617 0-31.898-14.28-31.898-31.896 0 17.615-14.281 31.896-31.899 31.896 17.618.001 31.899 14.28 31.899 31.896zM859.796 294.978c0-17.616 14.281-31.896 31.898-31.896-17.617 0-31.898-14.28-31.898-31.896 0 17.615-14.281 31.896-31.899 31.896 17.618 0 31.899 14.279 31.899 31.896z"/>
  </g>
</svg>
