<?xml version="1.0" encoding="utf-8"?>
<!-- Generator: Adobe Illustrator 24.0.2, SVG Export Plug-In . SVG Version: 6.00 Build 0)  -->
<svg version="1.1" id="Layer_1" xmlns="http://www.w3.org/2000/svg" xmlns:xlink="http://www.w3.org/1999/xlink" x="0px" y="0px"
	 viewBox="0 0 1080 1080" enable-background="new 0 0 1080 1080" xml:space="preserve">
<g>
	<g>
		<circle fill="#2E9AFF" cx="204.35" cy="343.199" r="202.348"/>
	</g>
	<g>
		<path fill="#FFFFFF" d="M801.04,957.262c-31.683,0-47.773-6.571-63.335-12.926c-15.904-6.494-30.926-12.628-61.822-12.628
			c-30.897,0-45.92,6.134-61.825,12.628c-15.562,6.354-31.654,12.926-63.338,12.926c-31.683,0-47.774-6.57-63.336-12.925
			c-15.904-6.495-30.927-12.629-61.825-12.629s-45.921,6.134-61.825,12.629c-15.562,6.354-31.653,12.925-63.336,12.925
			s-47.775-6.57-63.337-12.925c-15.904-6.495-30.927-12.629-61.825-12.629c-30.897,0-45.921,6.134-61.825,12.629
			c-15.562,6.354-31.653,12.925-63.337,12.925c-24.183,0-38.738-3.904-48.718-7.306c-1.045-0.355-1.604-1.492-1.247-2.538
			c0.355-1.045,1.491-1.6,2.538-1.248c9.687,3.302,23.831,7.092,47.427,7.092c30.898,0,45.921-6.134,61.825-12.628
			c15.562-6.354,31.654-12.926,63.337-12.926c31.684,0,47.775,6.571,63.337,12.926c15.904,6.494,30.928,12.628,61.825,12.628
			s45.92-6.134,61.824-12.628c15.562-6.354,31.653-12.926,63.337-12.926s47.775,6.571,63.337,12.926
			c15.904,6.494,30.927,12.628,61.824,12.628c30.898,0,45.921-6.134,61.826-12.629c15.562-6.354,31.654-12.925,63.337-12.925
			c31.682,0,47.772,6.57,63.334,12.925c15.904,6.495,30.926,12.629,61.823,12.629s45.921-6.134,61.825-12.628
			c15.562-6.354,31.653-12.926,63.337-12.926c1.104,0,2,0.896,2,2s-0.896,2-2,2c-30.897,0-45.921,6.134-61.825,12.629
			C848.816,950.691,832.724,957.262,801.04,957.262z"/>
	</g>
	<g>
		<g>
			<g>
				<g>
					<g>
						<g>
							<path fill="#FFFFFF" d="M447.245,210.205c7.152,0,12.632,6.291,11.736,13.387c-6.58,52.086-51.043,92.367-104.915,92.367
								c-58.406,0-105.754-47.348-105.754-105.754H447.245z"/>
						</g>
					</g>
					<g>
						<g>
							<path fill="#FFFFFF" d="M248.312,210.205l-62.674,114.38c-42.136,76.897-53.898,166.802-32.963,251.951l50.772,206.504
								h82.633V629.55c0-6.821-0.859-12.351,5.963-12.351h6.389c6.821,0,12.351,5.53,12.351,12.351v155.093l79.072-0.367
								l44.631-158.023c1.739-4.945,6.41-8.253,11.652-8.253h216.219c5.079,0,9.64,3.109,11.496,7.836l9.051,23.045l53.321,135.762
								l76.912,1.602V517.052l0.495-40.923c1.053-87.082-68.777-158.484-155.862-159.368l-315.72-3.205l0,0"/>
						</g>
					</g>
					<g>
						<g>
							<path fill="#231F20" d="M517.398,375.77l-218.006,55.055c-28.061,7.086-56.553-9.917-63.64-37.978l-4.692-18.58
								c-7.086-28.061,9.917-56.553,37.978-63.64l218.006-55.055c28.061-7.086,56.553,9.917,63.64,37.978l4.692,18.58
								C562.462,340.191,545.459,368.684,517.398,375.77z"/>
						</g>
					</g>
					<g>
						<g>
							<path fill="#FFFFFF" d="M760.949,316.76c19.262,0,29.082,23.205,15.613,36.974c-9.6,9.813-22.989,15.903-37.801,15.903
								c-29.203,0-91.467-23.674-91.467-52.877H760.949z"/>
						</g>
					</g>
					<g>
						<g>
							<path fill="#FFFFFF" d="M224.714,210.205c-9.133,0-13.789,11.003-7.403,17.531c4.552,4.653,10.9,7.541,17.923,7.541
								c13.847,0,43.369-11.225,43.369-25.072H224.714z"/>
						</g>
					</g>
					<g>
						<g>
							<circle fill="#231F20" cx="329.853" cy="238.526" r="9.453"/>
						</g>
					</g>
					<g>
						<g>
							<g>
								<path fill="#231F20" d="M447.245,210.205H416.73c0,16.945,13.737,30.682,30.682,30.682c2.848,0,5.601-0.396,8.218-1.122
									c1.521-5.235,2.653-10.636,3.352-16.173C459.878,216.496,454.398,210.205,447.245,210.205z"/>
							</g>
						</g>
					</g>
				</g>
				<g>
					<g>
						<path fill="#FFFFFF" d="M455.629,239.765c-3.29,26.043-33.961,55.058-60.585,59.144c-17.41,2.672-35.399-1.623-44.663-9.618
							L455.629,239.765z"/>
					</g>
				</g>
			</g>
			<g>
				<g>
					<path fill="#2E9AFF" d="M287.242,340.516l11.007-2.788l4.479,17.681l0.345-0.088c0.809-1.814,2.049-3.374,3.72-4.676
						c1.672-1.302,3.608-2.232,5.81-2.789c10.09-2.557,16.611,1.99,19.562,13.64c1.498,5.917,1.018,10.859-1.443,14.825
						c-2.461,3.967-6.694,6.711-12.703,8.232c-2.844,0.721-5.482,1.097-7.914,1.127c-2.434,0.031-4.27-0.188-5.51-0.654
						l-10.474-41.348l-5.711,1.446L287.242,340.516z M313.082,352.639c-2.752,0.697-4.779,2.041-6.081,4.03
						c-1.303,1.989-1.983,4.504-2.042,7.546l4.008,15.823c1.194,0.282,2.565,0.399,4.115,0.349c1.549-0.052,3.125-0.28,4.731-0.688
						c1.833-0.464,3.431-1.148,4.787-2.055c1.356-0.903,2.421-2.051,3.19-3.443c0.771-1.39,1.221-3.028,1.354-4.918
						c0.132-1.889-0.104-4.025-0.708-6.41c-0.441-1.742-1.043-3.347-1.806-4.814c-0.762-1.465-1.692-2.683-2.791-3.648
						c-1.1-0.966-2.375-1.619-3.827-1.959C316.56,352.112,314.915,352.175,313.082,352.639z"/>
				</g>
				<g>
					<path fill="#2E9AFF" d="M336.568,328.021l11.49-2.911l9.271,36.602c0.709,2.797,1.678,4.651,2.908,5.559
						c1.23,0.908,2.764,1.131,4.598,0.666c1.283-0.325,2.453-0.865,3.507-1.621c1.054-0.754,2.151-1.862,3.295-3.323l3.436,3.155
						c-0.574,0.83-1.234,1.606-1.98,2.333c-0.747,0.727-1.537,1.378-2.37,1.955c-0.833,0.576-1.688,1.073-2.561,1.49
						c-0.874,0.415-1.701,0.724-2.484,0.922c-1.703,0.432-3.275,0.598-4.721,0.5s-2.738-0.514-3.88-1.25s-2.142-1.837-3.003-3.303
						c-0.86-1.465-1.588-3.368-2.18-5.707l-8.104-31.992l-6.054,1.534L336.568,328.021z"/>
				</g>
				<g>
					<path fill="#2E9AFF" d="M381.424,349.604c-1.405-5.549-1.074-10.308,0.997-14.273c2.07-3.965,5.788-6.628,11.154-7.987
						c2.89-0.731,5.497-0.891,7.823-0.479c2.324,0.411,4.378,1.246,6.16,2.502c1.783,1.258,3.285,2.902,4.508,4.935
						c1.223,2.033,2.154,4.312,2.793,6.834c0.697,2.751,0.96,5.333,0.79,7.743c-0.171,2.411-0.769,4.577-1.796,6.494
						c-1.027,1.921-2.476,3.569-4.348,4.945c-1.872,1.378-4.139,2.402-6.799,3.076c-2.844,0.721-5.439,0.878-7.787,0.473
						s-4.413-1.237-6.195-2.494c-1.783-1.256-3.286-2.901-4.509-4.935S382.064,352.128,381.424,349.604z M387.135,348.158
						c0.406,1.605,1.006,3.16,1.803,4.667c0.795,1.509,1.789,2.793,2.983,3.856c1.194,1.065,2.587,1.81,4.179,2.236
						c1.593,0.428,3.394,0.385,5.406-0.125c3.656-0.926,6.125-2.759,7.401-5.499c1.275-2.738,1.357-6.31,0.242-10.713
						c-0.419-1.651-1.022-3.219-1.812-4.703s-1.792-2.754-3.009-3.812c-1.218-1.058-2.621-1.801-4.214-2.228
						c-1.593-0.426-3.394-0.385-5.405,0.124c-3.658,0.927-6.116,2.747-7.376,5.456C386.072,340.129,386.008,343.71,387.135,348.158z
						"/>
				</g>
				<g>
					<path fill="#2E9AFF" d="M445.968,320.589c-1.148-0.1-2.362-0.121-3.642-0.066c-1.279,0.057-2.515,0.234-3.707,0.536
						c-4.495,1.139-7.575,3.044-9.241,5.718c-1.665,2.674-1.915,6.31-0.751,10.907c0.513,2.024,1.291,3.748,2.336,5.172
						c1.043,1.425,2.301,2.537,3.773,3.337c1.472,0.804,3.119,1.291,4.946,1.464c1.825,0.175,3.746,0.005,5.765-0.507
						c2.156-0.546,4.159-1.45,6.012-2.713c1.852-1.264,3.312-2.677,4.381-4.239l3.419,3.381c-0.504,0.713-1.16,1.49-1.973,2.33
						c-0.812,0.841-1.782,1.684-2.909,2.53c-1.129,0.848-2.42,1.626-3.875,2.336s-3.076,1.292-4.865,1.745
						c-2.982,0.755-5.715,0.996-8.2,0.723c-2.484-0.272-4.685-1.01-6.6-2.208c-1.914-1.199-3.543-2.811-4.886-4.839
						c-1.344-2.026-2.357-4.393-3.043-7.1c-0.732-2.89-0.981-5.56-0.748-8.011c0.233-2.449,0.915-4.624,2.046-6.521
						c1.13-1.897,2.67-3.521,4.623-4.869c1.952-1.348,4.259-2.36,6.919-3.034c3.394-0.859,6.233-1.26,8.517-1.205
						c2.283,0.057,4.252,0.266,5.905,0.627l-0.016,0.224l2.422,9.563l-4.953,1.255L445.968,320.589z"/>
				</g>
				<g>
					<path fill="#2E9AFF" d="M453.867,298.307l11.146-2.823l7.215,28.481l3.784-0.958l9.823-18.155l6.467-1.638l-11.074,20.156
						l15.938,10.312l4.472-1.133l1.168,4.609l-7.087,1.795l-18.661-11.818l-3.783,0.958l3.938,15.548l-5.298,1.342l-11.031-43.55
						l-5.848,1.481L453.867,298.307z"/>
				</g>
			</g>
			<g>
				<g>
					<polygon fill="#FFFFFF" points="612.088,796.041 671.409,617.88 555.094,524.073 530.249,796.034 					"/>
				</g>
			</g>
		</g>
		<g>
			<g>
				<line fill="#2E9AFF" x1="232.525" y1="940.344" x2="218.956" y2="853.31"/>
				<path fill="#FFFFFF" d="M232.522,942.345c-0.968,0-1.819-0.705-1.974-1.692l-13.568-87.035c-0.17-1.091,0.577-2.113,1.669-2.284
					c1.08-0.166,2.113,0.577,2.284,1.669l13.568,87.035c0.17,1.091-0.577,2.113-1.669,2.284
					C232.729,942.337,232.624,942.345,232.522,942.345z"/>
			</g>
			<g>
				<line fill="#2E9AFF" x1="438.479" y1="930.108" x2="440.718" y2="889.442"/>
				<path fill="#FFFFFF" d="M438.481,932.108c-0.037,0-0.074-0.001-0.112-0.003c-1.103-0.061-1.947-1.004-1.887-2.107l2.239-40.667
					c0.061-1.104,0.977-1.947,2.107-1.887c1.103,0.061,1.947,1.004,1.887,2.107l-2.239,40.667
					C440.417,931.284,439.534,932.108,438.481,932.108z"/>
			</g>
			<g>
				<line fill="#2E9AFF" x1="550.846" y1="871.603" x2="537.915" y2="955.262"/>
				<path fill="#FFFFFF" d="M537.918,957.262c-0.103,0-0.205-0.008-0.309-0.023c-1.092-0.169-1.84-1.19-1.671-2.282l12.931-83.658
					c0.169-1.093,1.201-1.833,2.282-1.671c1.092,0.169,1.84,1.19,1.671,2.282l-12.931,83.658
					C539.739,956.555,538.887,957.262,537.918,957.262z"/>
			</g>
			<g>
				<line fill="#2E9AFF" x1="721.26" y1="869.34" x2="717.915" y2="935.004"/>
				<path fill="#FFFFFF" d="M717.916,937.004c-0.034,0-0.069-0.001-0.104-0.003c-1.104-0.056-1.952-0.996-1.896-2.099l3.347-65.663
					c0.056-1.104,0.997-1.949,2.099-1.896c1.104,0.056,1.952,0.996,1.896,2.099l-3.347,65.663
					C719.858,936.174,718.974,937.004,717.916,937.004z"/>
			</g>
			<g>
				<path fill="#FFFFFF" d="M892.035,857.317c12.859,1.95,25.218-3.221,33.341-13.271c4.209-5.207,8.402-12.155,8.751-19.04
					c0.729-14.397-2.41-24.189-15.24-31.41c-10.946-6.161-24.071-7.612-36.426-7.612c-0.061,0-30.615,0-30.615,0l-158.306-2.366
					H425.021l-155.66-0.67c-1.346,0.061-2.695,0.061-4.041,0l-63.73-2.878c0,0-87.472,1.577-87.474,1.576
					c-22.847-0.377-39.741,13.788-48.737,33.791c-5.784,12.861-4.198,31.247,2.942,43.264c9.369,15.77,31.903,26.819,49.149,22.662
					l92.714-25.94c5.79-1.396,11.801-1.621,17.68-0.663l205.681,33.512c4.752,0.774,9.597,0.776,14.35,0.007l99.693-16.148
					c2.17-0.351,4.362-0.542,6.56-0.572l162.585-2.159c3.011-0.04,6.011-0.384,8.953-1.026l111.8-21.815
					c5.341-1.166,14.777,2.355,14.777,2.355S892.035,857.317,892.035,857.317z"/>
			</g>
		</g>
		<g>
			<path fill="#FFFFFF" d="M801.04,957.262c-31.683,0-47.773-6.571-63.335-12.926c-15.904-6.494-30.926-12.628-61.822-12.628
				c-30.897,0-45.92,6.134-61.825,12.628c-15.562,6.354-31.654,12.926-63.338,12.926c-31.683,0-47.774-6.57-63.336-12.925
				c-15.904-6.495-30.927-12.629-61.825-12.629s-45.921,6.134-61.825,12.629c-15.562,6.354-31.653,12.925-63.336,12.925
				s-47.775-6.571-63.337-12.925c-15.904-6.495-30.928-12.629-61.825-12.629c-13.896,0-25.912,1.291-36.732,3.948
				c-0.984,0.244-2.003-0.296-2.354-1.253l-20.558-55.943c-0.197-0.535-0.156-1.129,0.113-1.633c0.27-0.503,0.74-0.867,1.295-1.001
				l101.487-24.461c0.26-0.062,0.528-0.072,0.79-0.029l221.441,36.079l109.808-17.786c0.097-0.016,0.194-0.023,0.293-0.025
				l170.251-2.261l141.352-25.33c0.34-0.06,0.693-0.031,1.021,0.084l24.925,8.851c0.966,0.343,1.516,1.359,1.275,2.355
				l-21.433,88.575c-0.152,0.626-0.596,1.141-1.192,1.383l-2.643,1.076C848.815,950.691,832.722,957.262,801.04,957.262z
				 M675.883,927.708c31.682,0,47.772,6.57,63.334,12.925c15.904,6.495,30.926,12.629,61.823,12.629
				c30.896,0,45.92-6.134,61.824-12.628l1.699-0.692l20.768-85.828l-22.726-8.069l-140.992,25.266
				c-0.107,0.02-0.217,0.029-0.326,0.031l-170.267,2.261l-109.983,17.814c-0.212,0.033-0.429,0.034-0.641-0.001l-221.364-36.066
				l-98.912,23.84l19.171,52.169c10.679-2.455,22.459-3.649,35.944-3.649c31.684,0,47.775,6.57,63.337,12.925
				c15.904,6.495,30.927,12.629,61.825,12.629c30.897,0,45.92-6.134,61.824-12.628c15.562-6.354,31.653-12.926,63.337-12.926
				s47.775,6.571,63.337,12.926c15.904,6.494,30.927,12.628,61.824,12.628c30.898,0,45.921-6.134,61.826-12.629
				C628.108,934.278,644.2,927.708,675.883,927.708z"/>
		</g>
	</g>
	<g>
		<g>
			<path fill="#2E9AFF" d="M746.251,1058.643l20.894-39.981l230.4-119.041l63.247,18.696l-10.729,50.115l-131.172,77.5
				c0,0-20.937-3.262-66.012,16.2C852.879,1062.132,797.639,1086.516,746.251,1058.643z"/>
		</g>
		<g>
			<g>
				<path fill="#231F20" d="M990.994,942.606l21.095-13.06c-2.08-2.855-4.481-4.584-7.202-5.191
					c-2.721-0.606-5.459-0.055-8.218,1.652c-1.493,0.924-2.808,1.958-3.945,3.1c-1.137,1.145-1.984,2.405-2.538,3.785
					c-0.554,1.377-0.787,2.872-0.698,4.479C989.577,938.98,990.078,940.725,990.994,942.606z"/>
			</g>
			<g>
				<path fill="#231F20" d="M741.13,1060.537c11.042,1.969,19.303,5.073,27.269,8.298c8.426,1.592,18.316,2.586,30.64,2.586
					c0.521,0,1.026-0.006,1.539-0.01l-10.198-16.473l-11.841,7.33l-2.823-4.56l17.217-10.658l14.972,24.186
					c4.936-0.21,9.444-0.594,13.607-1.12l1.23-0.761l0.343,0.553c39.894-5.486,47.786-24.041,101.116-24.041
					c13.18,0,23.578,1.136,32.375,2.926l91.062-56.373c32.076-19.857,41.982-61.958,22.125-94.034l-1.68-2.713
					c-19.857-32.077-61.958-41.982-94.034-22.125l-224.192,138.789c-15.288,9.464-25.517,23.987-29.908,40.064
					C727.588,1054.876,734.212,1057.767,741.13,1060.537z M983.996,934.041c0.571-2.424,1.676-4.692,3.317-6.807
					c1.641-2.113,3.776-3.985,6.407-5.615c1.906-1.18,3.943-2.095,6.112-2.749c2.169-0.651,4.397-0.729,6.682-0.229
					c2.286,0.5,4.565,1.724,6.838,3.673c2.274,1.95,4.492,4.924,6.652,8.919l-26.268,16.261c2.527,4.083,5.514,6.456,8.958,7.115
					c3.445,0.66,6.998-0.145,10.664-2.413c1.221-0.757,2.34-1.652,3.357-2.69c1.018-1.038,1.942-2.096,2.776-3.176
					c0.833-1.081,1.513-2.129,2.042-3.148c0.528-1.017,0.891-1.869,1.092-2.558l4.505,2.577c-0.367,1.231-0.91,2.509-1.628,3.831
					c-0.718,1.325-1.594,2.62-2.63,3.888c-1.035,1.268-2.189,2.468-3.463,3.604c-1.275,1.133-2.638,2.15-4.089,3.049
					c-2.723,1.685-5.388,2.754-7.993,3.206c-2.607,0.454-5.098,0.333-7.473-0.363c-2.376-0.695-4.601-1.906-6.674-3.635
					c-2.074-1.728-3.954-3.953-5.638-6.675c-1.77-2.859-2.946-5.645-3.528-8.359C983.432,939.036,983.426,936.465,983.996,934.041z
					 M942.237,954.622l4.024,5.132l0.34-0.21c-0.024-1.051,0.107-2.184,0.393-3.396c0.285-1.213,0.736-2.433,1.356-3.663
					c0.618-1.23,1.428-2.406,2.428-3.528c1-1.121,2.182-2.103,3.542-2.946c2.086-1.291,4.076-2.209,5.968-2.752
					c1.89-0.543,3.728-0.567,5.511-0.071c1.781,0.497,3.555,1.564,5.322,3.2c1.766,1.636,3.59,3.975,5.471,7.014l12.091,19.531
					l-5.376,3.328l-11.432-18.468c-2.326-3.757-4.687-6.208-7.086-7.354c-2.397-1.145-5.201-0.724-8.41,1.263
					c-1.176,0.728-2.169,1.672-2.983,2.833c-0.814,1.16-1.435,2.406-1.862,3.735c-0.427,1.329-0.665,2.712-0.713,4.151
					c-0.047,1.439,0.121,2.821,0.506,4.147l13.198,21.319l-5.24,3.244l-13.693-22.117c-0.252-0.408-0.594-0.934-1.023-1.579
					c-0.43-0.642-0.886-1.301-1.365-1.978c-0.481-0.674-0.966-1.331-1.456-1.969c-0.49-0.639-0.934-1.179-1.334-1.623l-4.559,2.822
					l-2.737-4.423L942.237,954.622z M901.427,962.142c0.268-1.39,1.038-2.479,2.309-3.265c1.316-0.813,2.69-1.053,4.123-0.716
					c1.433,0.337,2.527,1.118,3.286,2.343c0.73,1.18,0.906,2.452,0.526,3.816c-0.378,1.364-1.227,2.455-2.542,3.268
					c-1.271,0.787-2.567,1.024-3.89,0.713c-1.322-0.311-2.347-1.056-3.078-2.236C901.402,964.84,901.158,963.532,901.427,962.142z
					 M915.424,971.22l18.241,29.466l11.569-7.161l2.823,4.56l-28.786,17.82l-2.823-4.559l11.84-7.331l-15.418-24.907l-11.841,7.33
					l-2.823-4.559L915.424,971.22z M861.269,985.919l22.413,36.204c1.713,2.768,3.385,4.431,5.018,4.988
					c1.632,0.56,3.355,0.277,5.171-0.847c1.269-0.786,2.343-1.763,3.218-2.933c0.877-1.17,1.681-2.734,2.413-4.695l4.766,2.226
					c-0.334,1.087-0.779,2.146-1.336,3.181c-0.555,1.036-1.185,2.003-1.883,2.907c-0.7,0.904-1.449,1.728-2.247,2.474
					c-0.798,0.744-1.583,1.357-2.358,1.836c-1.684,1.043-3.319,1.756-4.905,2.143c-1.588,0.386-3.12,0.378-4.596-0.027
					c-1.478-0.402-2.928-1.246-4.353-2.529c-1.423-1.284-2.852-3.082-4.284-5.396l-19.589-31.644l-5.99,3.707l-2.822-4.56
					L861.269,985.919z M819.746,1030.451l4.025,5.132l0.341-0.21c-0.024-1.051,0.107-2.184,0.392-3.396
					c0.284-1.212,0.736-2.433,1.356-3.663c0.618-1.23,1.428-2.406,2.428-3.528c1-1.121,2.181-2.103,3.542-2.946
					c2.086-1.291,4.076-2.209,5.968-2.752c1.89-0.543,3.727-0.567,5.51-0.071c1.782,0.498,3.556,1.564,5.323,3.201
					c1.766,1.637,3.591,3.974,5.472,7.013l12.091,19.531l-5.376,3.328l-11.432-18.467c-2.326-3.756-4.688-6.208-7.086-7.354
					c-2.397-1.145-5.2-0.724-8.41,1.263c-1.176,0.728-2.169,1.672-2.984,2.833c-0.812,1.161-1.434,2.407-1.861,3.736
					c-0.427,1.329-0.665,2.713-0.714,4.151c-0.047,1.438,0.122,2.82,0.507,4.147l13.198,21.319l-5.241,3.244l-13.691-22.116
					c-0.253-0.409-0.594-0.934-1.025-1.579c-0.429-0.642-0.885-1.302-1.366-1.978c-0.48-0.674-0.965-1.331-1.455-1.969
					c-0.489-0.639-0.933-1.179-1.333-1.624l-4.559,2.823l-2.737-4.423L819.746,1030.451z M778.937,1037.97
					c0.268-1.39,1.038-2.478,2.308-3.264c1.315-0.815,2.69-1.053,4.122-0.717c1.433,0.338,2.527,1.119,3.285,2.344
					c0.731,1.18,0.906,2.452,0.527,3.814c-0.378,1.365-1.227,2.456-2.542,3.269c-1.271,0.787-2.566,1.023-3.889,0.712
					c-1.322-0.309-2.347-1.055-3.079-2.235C778.913,1040.669,778.668,1039.362,778.937,1037.97z"/>
			</g>
		</g>
	</g>
	<g>
		<path fill="#FFFFFF" d="M1051.363,1073.421c-31.683,0-47.774-6.571-63.336-12.926c-15.904-6.494-30.927-12.629-61.825-12.629
			c-30.897,0-45.92,6.135-61.825,12.629c-15.562,6.354-31.653,12.926-63.337,12.926c-31.683,0-47.773-6.571-63.335-12.926
			c-15.904-6.494-30.926-12.629-61.822-12.629c-30.897,0-45.92,6.135-61.825,12.629c-15.562,6.354-31.654,12.926-63.338,12.926
			c-31.683,0-47.774-6.571-63.336-12.926c-15.904-6.494-30.927-12.629-61.825-12.629s-45.921,6.135-61.825,12.629
			c-15.562,6.354-31.653,12.926-63.336,12.926s-47.775-6.571-63.337-12.926c-15.904-6.494-30.928-12.629-61.825-12.629
			c-30.898,0-45.921,6.135-61.825,12.629c-15.562,6.354-31.653,12.926-63.337,12.926c-24.186,0-38.74-3.904-48.719-7.307
			c-1.045-0.356-1.604-1.492-1.247-2.538c0.355-1.045,1.492-1.606,2.538-1.247c9.686,3.302,23.829,7.092,47.428,7.092
			c30.898,0,45.92-6.135,61.825-12.629c15.562-6.354,31.653-12.926,63.337-12.926s47.775,6.571,63.337,12.926
			c15.905,6.494,30.927,12.629,61.825,12.629c30.897,0,45.92-6.135,61.824-12.629c15.562-6.354,31.653-12.926,63.337-12.926
			s47.775,6.571,63.337,12.926c15.904,6.494,30.927,12.629,61.824,12.629c30.898,0,45.921-6.135,61.826-12.629
			c15.562-6.354,31.654-12.926,63.337-12.926c31.682,0,47.772,6.571,63.334,12.926c15.904,6.494,30.926,12.629,61.823,12.629
			s45.921-6.135,61.825-12.629c15.562-6.354,31.654-12.926,63.337-12.926c31.684,0,47.775,6.571,63.337,12.926
			c15.904,6.494,30.927,12.629,61.824,12.629c11.108,0,16.86-0.806,25.813-2.462c1.093-0.203,2.129,0.518,2.331,1.603
			c0.201,1.087-0.517,2.13-1.603,2.331C1068.708,1072.594,1062.718,1073.421,1051.363,1073.421z"/>
	</g>
	<g>
		<g>
			<g>
				<path fill="#2E9AFF" d="M512.145,172.044c-19.301,0-37.797-1.42-55.405-4.262c-34.931-5.638-66.454-16.855-93.692-33.34
					c-24.267-14.686-40.571-30.923-49.976-41.959c-10.232-12.007-14.657-20.446-14.841-20.8c-0.509-0.979-0.126-2.186,0.854-2.695
					c0.979-0.506,2.187-0.128,2.696,0.853c0.175,0.334,17.944,33.782,63.563,61.316c26.796,16.173,57.824,27.177,92.225,32.707
					c43.062,6.922,91.565,5.24,144.159-5.002c10.34-2.013,20.652-3.739,30.65-5.132c1.077-0.158,2.105,0.609,2.257,1.704
					c0.152,1.095-0.61,2.104-1.704,2.257c-9.929,1.384-20.17,3.098-30.439,5.097C570.826,168.955,540.612,172.044,512.145,172.044z"
					/>
			</g>
			<g>
				<path fill="#2E9AFF" d="M980.622,276.877c-0.551,0-1.099-0.226-1.494-0.669c-27.846-31.236-53.896-56.268-90.523-76.898
					c-44.19-24.89-94.593-39.937-149.808-44.725c-1.101-0.095-1.915-1.064-1.819-2.165c0.095-1.101,1.067-1.933,2.165-1.819
					c55.787,4.837,106.734,20.053,151.425,45.225c37.109,20.901,63.436,46.187,91.547,77.721c0.734,0.824,0.662,2.089-0.162,2.824
					C981.57,276.71,981.096,276.877,980.622,276.877z"/>
			</g>
			<g>
				<path fill="#2E9AFF" d="M1078,282.232c-0.383,0-0.77-0.109-1.111-0.339c-25.635-17.173-42.913-39-62.265-62.108
					c-6.121-7.309-12.449-14.866-18.976-22.187c-28.422-31.882-57.332-49.428-92.173-69.052
					C812.62,77.372,714.29,77.671,647.803,86.93c-9.933,1.383-20.174,3.098-30.439,5.097
					c-53.135,10.349-102.173,12.028-145.752,4.993c-34.932-5.638-66.454-16.855-93.693-33.34
					c-46.48-28.129-64.09-61.357-64.816-62.759c-0.509-0.979-0.126-2.186,0.854-2.695c0.979-0.507,2.187-0.127,2.696,0.853
					c6.024,11.574,27.062,39.285,63.564,61.316c26.796,16.173,57.824,27.177,92.224,32.707c43.062,6.924,91.564,5.24,144.16-5.001
					c10.335-2.013,20.647-3.74,30.651-5.132c67.098-9.349,166.358-9.63,258.188,42.094c35.169,19.809,64.363,37.532,93.196,69.874
					c6.566,7.366,12.916,14.948,19.056,22.28c19.163,22.884,36.264,44.498,61.425,61.354c0.918,0.614,1.163,1.856,0.548,2.774
					C1079.277,281.921,1078.645,282.232,1078,282.232z"/>
			</g>
			<g>
				<path fill="#2E9AFF" d="M541.851,41.435c-26.166,0.001-51.891-4.665-75.565-18.176c-0.959-0.548-1.293-1.77-0.746-2.729
					c0.548-0.959,1.768-1.295,2.729-0.746c50.608,28.883,111.659,16.135,165.521,4.887c3.054-0.638,6.09-1.271,9.105-1.895
					c59.076-12.2,117.444-21.308,181.951,0.973c1.044,0.36,1.598,1.5,1.237,2.544c-0.36,1.043-1.501,1.594-2.544,1.237
					C759.992,5.582,702.213,14.61,643.703,26.695c-3.012,0.622-6.045,1.255-9.097,1.893
					C604.923,34.786,573.075,41.434,541.851,41.435z"/>
			</g>
		</g>
	</g>
	<g>
		<g>
			<path fill="#FFFFFF" d="M63.447,649.967c0,5.916-4.795,10.711-10.711,10.711c-5.915,0-10.713-4.795-10.713-10.711
				c0-5.916,4.798-10.709,10.713-10.709C58.652,639.258,63.447,644.051,63.447,649.967z"/>
		</g>
		<g>
			<path fill="#FFFFFF" d="M111.406,586.074c0,5.916-4.795,10.711-10.711,10.711c-5.915,0-10.713-4.795-10.713-10.711
				c0-5.916,4.798-10.709,10.713-10.709C106.611,575.365,111.406,580.158,111.406,586.074z"/>
		</g>
		<g>
			<path fill="#FFFFFF" d="M163.969,10.709c0,5.916-4.795,10.711-10.711,10.711c-5.915,0-10.713-4.795-10.713-10.711
				C142.545,4.793,147.342,0,153.257,0C159.173,0,163.969,4.793,163.969,10.709z"/>
		</g>
		<g>
			<path fill="#FFFFFF" d="M1024.801,586.074c0,5.916-4.795,10.711-10.711,10.711c-5.915,0-10.713-4.795-10.713-10.711
				c0-5.916,4.798-10.709,10.713-10.709C1020.005,575.365,1024.801,580.158,1024.801,586.074z"/>
		</g>
		<g>
			<path fill="#FFFFFF" d="M912.688,459.853c0,5.916-4.795,10.711-10.711,10.711c-5.915,0-10.713-4.795-10.713-10.711
				c0-5.916,4.798-10.709,10.713-10.709C907.893,449.144,912.688,453.937,912.688,459.853z"/>
		</g>
		<g>
			<path fill="#FFFFFF" d="M695.833,146.592c0,5.916-4.795,10.711-10.711,10.711c-5.915,0-10.713-4.795-10.713-10.711
				c0-5.916,4.798-10.709,10.713-10.709C691.037,135.882,695.833,140.676,695.833,146.592z"/>
		</g>
		<g>
			<path fill="#FFFFFF" d="M23.426,108.927c0,5.916-4.795,10.711-10.711,10.711c-5.915,0-10.713-4.795-10.713-10.711
				c0-5.916,4.798-10.709,10.713-10.709C18.631,98.218,23.426,103.011,23.426,108.927z"/>
		</g>
		<g>
			<g>
				<ellipse fill="#FFFFFF" cx="1014.431" cy="65.562" rx="65.569" ry="65.562"/>
			</g>
			<g>
				<path fill="#2E9AFF" d="M1017.256,351.774c0-17.616,14.281-31.896,31.898-31.896c-17.617,0-31.898-14.28-31.898-31.896
					c0,17.615-14.281,31.896-31.899,31.896C1002.975,319.879,1017.256,334.158,1017.256,351.774z"/>
			</g>
			<g>
				<path fill="#2E9AFF" d="M859.796,294.978c0-17.616,14.281-31.896,31.898-31.896c-17.617,0-31.898-14.28-31.898-31.896
					c0,17.615-14.281,31.896-31.899,31.896C845.515,263.082,859.796,277.361,859.796,294.978z"/>
			</g>
		</g>
	</g>
</g>
</svg>
