<svg xmlns="http://www.w3.org/2000/svg" viewBox="0 0 1920 1080" xml:space="preserve"><path d="M1208.372 176.285c-.298-17.944-14.931-32.497-32.963-32.587h-.164c-17.028 0-31.512 13.232-33.011 30.195a1.974 1.974 0 0 1-.162.614c.065.198.108.407.107.627l-.004.977 66.197.174zM1138.175 176.1l.004-.984c.001-.279.061-.544.165-.785a2.027 2.027 0 0 1-.097-.458c-1.331-17.032-15.768-30.44-32.864-30.525-17.927-.112-32.69 14.198-33.282 32.037.032.145.053.293.052.448v.095l66.022.172zM1035.094 142.995h-.168c-16.896 0-30.899 12.722-32.895 29.122l-.009 3.626 66.044.173c-.12-18.097-14.826-32.83-32.972-32.921z"/><path d="m1373.208 135.083-129.687-68.44c-1.131-.599-2.145-1.209-3.218-1.854-1.015-.61-2.062-1.241-3.334-1.939-12.27-7.369-27.068-11.108-44.051-11.152l-104.533-.274h-.233c-22.896 0-44.434 8.887-60.672 25.04-16.294 16.208-25.3 37.791-25.359 60.772l-.056 21.617c6.236-11.801 18.632-19.856 32.861-19.856h.188c16.273.082 30.083 10.669 35.021 25.288 5.063-14.513 18.891-24.936 35.08-24.936h.189c15.936.079 29.809 10.487 34.887 24.971 5.204-14.375 19.096-24.621 34.955-24.621h.184c16.262.082 30.064 10.656 35.01 25.262 1.836-5.281 4.869-10.114 8.959-14.164 7.005-6.935 16.276-10.746 26.125-10.746h.196c14.392.071 26.849 8.368 32.954 20.398l.001-.298 63.518 33.521c16.153 8.55 36.253 2.365 44.804-13.786 8.547-16.155 2.361-36.252-13.789-44.803z"/><path d="M1245.698 144.049h-.175c-8.789 0-17.061 3.4-23.312 9.589-6.118 6.057-9.576 14.079-9.804 22.657l66.224.174.002-.961c-.877-17.424-15.28-31.371-32.935-31.459z"/><path fill="#FFF" d="m1296.073 96.845 271.313-9.284.137 3.997-271.314 9.285z"/><path fill="#41E847" d="M1715.652 1012.582c-1.129-22.061 10.705-42.372 22.429-59.332a449.158 449.158 0 0 1 56.783-66.996c22.112-21.423 38.705-39.878 52.22-58.077 23.192-31.231 36.891-62.279 40.718-92.283 2.174-17.034 1.35-34.497-2.447-51.904-5.004-22.942-16.817-44.795-33.264-61.532-3.219-3.275-6.726-6.552-10.119-9.721-8.713-8.139-17.722-16.555-23.982-26.735-10.829-17.612-3.793-37.468 2.415-54.985 1.622-4.58 3.155-8.906 4.386-13.149 7.017-24.208 2.356-42.888-13.854-55.52-28.849-22.48-88.885-19.064-119.355-1.249-6.908 4.039-13.586 8.975-20.045 13.748-12.684 9.375-25.8 19.07-41.485 22.653-19.543 4.46-39.245-1.34-58.298-6.952-17.51-5.157-35.619-10.492-53.274-7.645-30.662 4.941-51.934 32.105-72.506 58.375-22.557 28.805-45.904 58.599-81.489 57.685-19.464-.495-36.626-10.727-53.223-20.622-3.303-1.969-6.718-4.005-10.066-5.909-24.258-13.798-51.623-21.657-77.051-22.129-28.691-.5-52.618 8.456-69.187 25.997-8.249 8.733-14.448 19.437-20.443 29.789-3.901 6.735-7.934 13.7-12.534 20.156-14.681 20.602-34.119 31.194-51.995 28.357-11.804-1.879-19.518-7.588-22.929-16.97-11.988-32.966 34.158-101.664 47.628-117.165 5.87-6.755 12.128-13.002 18.179-19.044 22.937-22.895 42.746-42.67 34.226-79.961-5.09-22.264-15.726-36.137-33.475-43.658-15.775-6.685-35.256-7.37-54.095-8.032-26.858-.944-54.631-1.921-71.081-20.79-20.489-23.502-16.762-47.863-10.027-64.161 7.216-17.464 19.028-29.247 19.528-29.74l2.809 2.843c-.117.115-11.798 11.787-18.689 28.533-9.111 22.146-5.951 42.299 9.392 59.899 15.311 17.563 41.005 18.466 68.209 19.423 39.054 1.373 79.439 2.793 91.324 54.793 9.014 39.447-12.51 60.932-35.297 83.679-6.002 5.992-12.209 12.188-17.986 18.836-12.634 14.539-58.108 82.329-46.889 113.179 2.919 8.026 9.396 12.733 19.803 14.388 6.122.975 27.691 1.928 48.113-26.728 4.491-6.302 8.476-13.184 12.331-19.84 6.109-10.55 12.426-21.458 20.995-30.529 17.363-18.382 42.311-27.799 72.166-27.248 26.084.485 54.123 8.529 78.953 22.651 3.382 1.924 6.816 3.971 10.135 5.95 16.156 9.632 32.86 19.591 51.278 20.06 33.634.842 55.284-26.838 78.241-56.154 21.047-26.876 42.809-54.667 75.017-59.857 18.561-2.985 37.104 2.475 55.039 7.757 19.416 5.718 37.753 11.122 56.279 6.889 14.872-3.397 27.078-12.418 40-21.97 6.542-4.836 13.309-9.837 20.402-13.984 15.58-9.109 38.755-14.755 61.991-15.102 25.606-.349 47.567 5.53 61.836 16.649 21.958 17.109 20.406 41.956 15.237 59.786-1.263 4.355-2.816 8.735-4.458 13.371-6.197 17.488-12.605 35.571-2.776 51.556 5.976 9.722 14.786 17.95 23.305 25.909 3.423 3.197 6.964 6.504 10.242 9.841 16.968 17.267 29.155 39.811 34.318 63.48 3.895 17.853 4.739 35.773 2.507 53.261-3.915 30.692-17.869 62.372-41.475 94.16-13.647 18.377-30.376 36.987-52.647 58.565a445.02 445.02 0 0 0-56.275 66.399c-11.342 16.406-22.793 35.99-21.727 56.854l-3.991.202zM759.829 851.466l-5.598-52.166c-1.203-11.207-10.954-19.399-22.071-18.846 6.448-9.666 3.898-22.737-5.74-29.257l-43.455-29.399c-9.677-6.547-22.83-4.009-29.377 5.668-6.547 9.677-4.009 22.829 5.668 29.376l43.455 29.399c3.946 2.669 8.468 3.804 12.885 3.585a21.064 21.064 0 0 0-3.435 13.989l5.599 52.166a21.061 21.061 0 0 0 6.369 12.98c-5.991 2.367-10.831 7.431-12.654 14.124l-13.786 50.622a21.055 21.055 0 0 0-.271 9.996c-5.024-1.15-10.473-.5-15.288 2.28l-45.437 26.233c-4.064 2.347-7.033 5.847-8.779 9.841-3.838-3.903-9.173-6.328-15.079-6.328H560.37c-5.744 0-10.945 2.297-14.757 6.012a21.04 21.04 0 0 0-8.644-9.525l-45.437-26.233c-4.815-2.78-10.264-3.43-15.288-2.28.69-3.204.65-6.616-.271-9.996l-13.786-50.622c-1.823-6.694-6.663-11.757-12.654-14.124a21.061 21.061 0 0 0 6.369-12.98l5.599-52.166a21.06 21.06 0 0 0-3.436-13.989c4.418.219 8.94-.916 12.886-3.585l43.455-29.399c9.677-6.547 12.215-19.699 5.668-29.376s-19.699-12.215-29.377-5.668l-43.455 29.399c-9.638 6.521-12.188 19.591-5.74 29.257-11.116-.553-20.868 7.639-22.071 18.846l-5.598 52.166c-1.039 9.683 4.639 18.519 13.282 21.922-5.391 5.19-7.857 13.085-5.752 20.815l13.786 50.622c2.993 10.99 14.119 17.582 25.121 15.062-1.866 8.73 1.958 18.035 10.106 22.74l45.437 26.233c8.395 4.847 18.718 3.269 25.332-3.181 3.34 7.289 10.682 12.362 19.224 12.362h52.466c8.666 0 16.105-5.216 19.375-12.675 6.598 6.709 17.112 8.418 25.639 3.495l45.437-26.233c8.148-4.704 11.972-14.01 10.106-22.74 11.002 2.52 22.128-4.072 25.121-15.062l13.786-50.622c2.105-7.73-.361-15.625-5.752-20.815 8.643-3.404 14.321-12.241 13.282-21.923z"/><path d="M356.703 161.386c0-41.202 15.688-78.739 41.414-106.968l-216.28.475c-87.27.192-157.915 70.992-157.915 158.262v309.018h198.877v-262.71c0-9.414 7.632-17.046 17.046-17.046h116.857v-81.031z"/><path fill="#FFF" d="M1149.617 881.639c0-87.34-70.803-158.143-158.143-158.143H372.339c-2.592 0-106.297.066-128.552.19V521.419H2.051v315.847C2.051 970.773 110.28 1080 243.786 1080v-.259l905.83.259V881.639zM6.047 837.266V525.415H239.79v198.309c-.055.001.029-.001 0 0l-.146 352.242c-129.184-2.23-233.597-108.45-233.597-238.7zm1139.574 238.737-901.834-.257V727.681c21.583-.119 123.067-.189 128.552-.189h619.136c41.174 0 79.884 16.034 108.998 45.148 29.115 29.115 45.148 67.824 45.148 108.998v194.365z"/><path d="M834.995 382.256a85.085 85.085 0 0 0-9.542.466c-10.223-36.54-28.807-69.614-53.573-97.014H412.393c-23.801 26.326-41.914 57.911-52.364 92.834a85.52 85.52 0 0 0-9.528-.638c-46.457-.416-84.454 36.905-84.871 83.358-.417 46.458 36.902 84.452 83.359 84.869a84.36 84.36 0 0 0 20.536-2.345c36.79 85.479 121.396 145.68 220.434 146.569 99.039.89 184.712-57.782 223.033-142.587a84.337 84.337 0 0 0 20.492 2.716c46.454.416 84.452-36.9 84.867-83.359.419-46.454-36.902-84.452-83.356-84.869z"/><path d="M689.429 774.35V566.084H484.435v211.662h.086c.078 56.541 45.933 102.354 102.493 102.354 56.607 0 102.497-45.89 102.497-102.497.001-1.091-.048-2.17-.082-3.253z"/><path d="M587.014 882.099c-56.871 0-103.324-45.733-104.47-102.354h-.021l-.086-1.998V564.086h208.99l.024 210.964c.029.849.058 1.698.058 2.553.001 57.619-46.876 104.496-104.495 104.496zM486.433 775.811l.086 1.933c.076 55.338 45.158 100.359 100.495 100.359 55.415 0 100.499-45.083 100.499-100.499 0-.81-.028-1.613-.056-2.416l-.027-.837V568.082H486.433v207.729z"/><path fill="#41E847" d="M358.412 496.923a1.99 1.99 0 0 1-1.483-.659l-51.089-56.539a1.998 1.998 0 1 1 2.965-2.679l51.089 56.539a1.998 1.998 0 0 1-1.482 3.338zM814.906 501.022a1.998 1.998 0 0 1-1.457-3.364l52.094-55.612a1.997 1.997 0 1 1 2.916 2.731l-52.095 55.612a1.988 1.988 0 0 1-1.458.633zM589.905 498.002h-.015a1.998 1.998 0 0 1-1.984-2.013l.417-58.748c.008-1.103.933-1.963 2.012-1.983a1.998 1.998 0 0 1 1.984 2.013l-.417 58.748a1.997 1.997 0 0 1-1.997 1.983zM656.729 594.292H519.376c-14.625 0-26.48-11.856-26.48-26.48V548.37c0-14.625 11.856-26.48 26.48-26.48h137.353c14.625 0 26.48 11.856 26.48 26.48v19.441c0 14.625-11.855 26.481-26.48 26.481z"/><path d="M661.316 560.298h-.006l-146.528-.418a1.999 1.999 0 0 1 .006-3.996h.006l146.528.418a1.998 1.998 0 0 1-.006 3.996z"/><path fill="#FFF" d="m830.013 383.153-473.31-4.139v-66.513h473.31z"/><g fill="#41E847"><path d="M699.231 491.816c-16.609 0-30.121-13.513-30.121-30.124 0-16.61 13.512-30.122 30.121-30.122 16.612 0 30.127 13.512 30.127 30.122 0 16.611-13.515 30.124-30.127 30.124zm0-59.247c-16.058 0-29.122 13.064-29.122 29.123s13.064 29.125 29.122 29.125c16.061 0 29.128-13.065 29.128-29.125 0-16.058-13.067-29.123-29.128-29.123z"/><path d="M749.887 462.14c-13.872-20.205-36.759-32.268-61.223-32.268s-47.351 12.063-61.222 32.268a2.498 2.498 0 1 0 4.117 2.827c12.547-18.276 33-29.41 55.034-30.068-10.036 4.743-16.985 14.954-16.985 26.793 0 16.365 13.266 29.624 29.622 29.624 16.363 0 29.628-13.259 29.628-29.624a29.486 29.486 0 0 0-5.872-17.704 69.37 69.37 0 0 1 22.782 20.979 2.498 2.498 0 0 0 4.119-2.827zM505.89 491.816c-16.611 0-30.125-13.513-30.125-30.124 0-16.61 13.514-30.122 30.125-30.122s30.125 13.512 30.125 30.122c0 16.611-13.514 30.124-30.125 30.124zm0-59.247c-16.06 0-29.126 13.064-29.126 29.123s13.066 29.125 29.126 29.125c16.06 0 29.127-13.065 29.127-29.125-.001-16.058-13.067-29.123-29.127-29.123z"/><path d="M556.543 462.14c-13.873-20.206-36.761-32.268-61.224-32.268-24.465 0-47.353 12.063-61.224 32.268a2.499 2.499 0 0 0 4.118 2.827c12.547-18.276 33.002-29.41 55.036-30.068-10.038 4.743-16.985 14.954-16.985 26.793 0 16.365 13.265 29.624 29.626 29.624s29.626-13.259 29.626-29.624a29.485 29.485 0 0 0-5.87-17.702 69.378 69.378 0 0 1 22.78 20.977 2.495 2.495 0 0 0 3.472.645 2.497 2.497 0 0 0 .645-3.472z"/></g><path d="M830.034 161.386C830.034 72.691 757.875.532 669.18.532H515.558c-88.695 0-160.854 72.159-160.854 160.854v110.381h-91.466c-8.942 0-16.217 7.275-16.217 16.218v10.478c0 8.942 7.275 16.217 16.217 16.217h566.795v-22.054h.001v-131.24zm-471.332 0c0-86.491 70.366-156.856 156.856-156.856H669.18c86.491 0 156.857 70.365 156.857 156.856v110.381H358.702V161.386z"/><path fill="#41E847" d="M828.832 360.79h-.043l-444.429-9.312a1.999 1.999 0 0 1 .041-3.996h.043l444.429 9.312a1.999 1.999 0 0 1-.041 3.996z"/><ellipse transform="rotate(-79.729 894.907 385.363)" fill="#FFF" cx="894.897" cy="385.385" rx="28.286" ry="78.691"/><ellipse transform="rotate(-30.706 887.122 328.69)" fill="#FFF" cx="887.185" cy="328.667" rx="78.691" ry="28.286"/><path d="M1208.129 176.644c-.297-17.926-14.916-32.464-32.93-32.555h-.164c-17.011 0-31.481 13.219-32.978 30.165a1.961 1.961 0 0 1-.162.613c.065.198.108.407.107.627l-.004.976 66.131.174zM1138.001 176.46l.004-.983c.001-.279.061-.544.165-.785a2.03 2.03 0 0 1-.097-.457c-1.33-17.015-15.752-30.41-32.832-30.495-17.91-.112-32.658 14.184-33.249 32.005.032.144.053.293.052.447v.095l65.957.173zM1245.418 144.44h-.175c-8.78 0-17.044 3.397-23.288 9.579-6.112 6.051-9.567 14.065-9.794 22.635l66.158.174.002-.96c-.876-17.406-15.265-31.34-32.903-31.428zM1035.022 143.388h-.168c-16.879 0-30.869 12.709-32.862 29.093l-.009 3.623 65.979.173c-.121-18.08-14.813-32.798-32.94-32.889z"/><path fill="none" d="M1386.576 180.239c-8.542 16.135-28.622 22.314-44.76 13.773l-63.455-33.487-.001.298c-6.099-12.018-18.544-20.307-32.922-20.378h-.196c-9.839 0-19.101 3.808-26.099 10.735-4.086 4.046-7.116 8.874-8.95 14.15-4.94-14.591-18.73-25.155-34.975-25.237h-.183c-15.844 0-29.722 10.236-34.921 24.597-4.105-11.707-13.963-20.747-26.009-23.814a45.782 45.782 0 0 0-3.046 16.453 45.604 45.604 0 0 0 43.759 45.663l406.85 17.339c-12.763-18.454-19.487-40.023-19.487-62.638 0-22.943 6.907-44.768 20.018-63.389l-247.445 10.546 58.047 30.634c16.135 8.542 22.315 28.618 13.775 44.755z"/><path d="m1154.649 107.674 153.094-6.525-64.499-34.038c-1.13-.598-2.142-1.208-3.215-1.853-1.014-.61-2.06-1.24-3.331-1.938-12.257-7.362-27.042-11.097-44.007-11.141l-104.43-.274h-.233c-22.873 0-44.39 8.878-60.612 25.015-16.278 16.192-25.275 37.754-25.334 60.712l-.056 21.596c6.229-11.789 18.614-19.837 32.828-19.837h.187c16.257.082 30.053 10.658 34.986 25.263 5.058-14.498 18.872-24.911 35.045-24.911h.189c1.646.008 3.268.133 4.862.354a49.584 49.584 0 0 1 44.526-32.423z"/><path fill="#41E847" d="m1566.267 92.13-411.534 17.539c-25.532 1.088-45.671 22.104-45.671 47.659s20.139 46.571 45.671 47.659l410.957 17.515c-13.51-18.075-21.511-40.508-21.511-64.81.001-24.641 8.232-47.358 22.088-65.562z"/><path fill="#FFF" d="m1274.113 211.28.18-3.996 291.492 13.189-.18 3.996z"/><path d="M1652.536 268.048c-35.142 0-67.38-16.165-88.446-44.349-14.333-19.175-21.909-42-21.909-66.006 0-24.347 7.778-47.437 22.495-66.773 21.083-27.696 53.106-43.581 87.859-43.581 60.849 0 110.354 49.505 110.354 110.354.001 60.85-49.504 110.355-110.353 110.355zm0-216.713c-33.495 0-64.359 15.31-84.679 42.004-14.183 18.635-21.68 40.888-21.68 64.353 0 23.137 7.3 45.134 21.113 63.614 20.305 27.165 51.376 42.745 85.246 42.745 58.646 0 106.358-47.713 106.358-106.359s-47.712-106.357-106.358-106.357z"/><path d="m1758.114 177.119 2.825-2.825-17.23-17.23 16.931-16.931-2.825-2.825-16.931 16.931-39.011-39.011 30.752-30.752-2.825-2.825-30.752 30.752-44.409-44.409 15.991-15.991-2.825-2.825-15.99 15.991-15.457-15.457-2.825 2.825 15.457 15.457-44.409 44.409-29.748-29.748-2.825 2.825 29.748 29.748-39.01 39.01-15.551-15.551-2.825 2.825 15.551 15.551-15.945 15.945 2.825 2.825 15.945-15.945 44.409 44.409-30.518 30.518 2.825 2.825 30.518-30.518 39.01 39.011-16.226 16.226 2.825 2.825 16.226-16.226 16.572 16.572 2.825-2.825-16.572-16.572 39.011-39.011 30.769 30.769 2.825-2.825-30.769-30.769 44.409-44.409 17.229 17.231zM1651.813 70.818l44.409 44.409-44.409 44.409-44.409-44.409 44.409-44.409zm-86.245 86.245 39.01-39.01 44.409 44.409-39.01 39.011-44.409-44.41zm86.245 86.246-39.01-39.011 39.01-39.011 39.011 39.011-39.011 39.011zm41.836-41.836-39.011-39.011 44.409-44.409 39.011 39.011-44.409 44.409zM1245.418 144.44h-.175c-8.78 0-17.044 3.397-23.288 9.579-6.286 6.223-9.772 14.521-9.816 23.366a1.965 1.965 0 0 1-.064.469c.032.143.052.29.051.443l-.379 79.676c.131 18.072 14.818 32.781 32.939 32.871h.166c18.183 0 33.021-14.745 33.113-32.949l.402-80.178c.09-18.258-14.69-33.186-32.949-33.277zM1208.143 177.366c.091-18.257-14.689-33.185-32.945-33.277h-.164c-17.011 0-31.481 13.219-32.978 30.165a1.961 1.961 0 0 1-.162.613c.065.198.108.407.107.627l-.376 84.49.002.011c1.333 17.013 15.757 30.409 32.839 30.497h.167c18.182 0 33.019-14.745 33.11-32.949 0-.035.009-.068.011-.102l.376-79.164c.001-.162.026-.317.063-.468a1.977 1.977 0 0 1-.05-.431v-.012zM1067.969 176.665c.092-18.257-14.689-33.186-32.947-33.278h-.168c-18.182 0-33.021 14.744-33.114 32.946l-.4 80.178c-.045 8.845 3.358 17.177 9.582 23.463 6.223 6.286 14.522 9.772 23.367 9.815 8.871.022 17.174-3.358 23.461-9.581 6.286-6.224 9.772-14.523 9.815-23.368.001-.234.05-.454.125-.662l.355-78.985a1.956 1.956 0 0 1-.076-.516v-.012zM1105.242 143.74c-17.91-.112-32.658 14.184-33.249 32.005.032.144.053.293.052.447l-.375 83.412c1.318 16.987 15.507 30.451 32.84 30.538h.166c16.961 0 31.388-13.144 32.953-30.023l.376-84.642c.001-.279.061-.544.165-.785a2.03 2.03 0 0 1-.097-.457c-1.329-17.015-15.751-30.41-32.831-30.495z"/><path fill="#FFF" d="M927.779 1080.06a1.999 1.999 0 0 1-1.998-1.998v-218.97a1.999 1.999 0 0 1 3.996 0v218.97a1.998 1.998 0 0 1-1.998 1.998z"/><g fill="#FFF"><path d="M1782.74 894.219h-563.093c-75.284 0-136.314 61.03-136.314 136.314v46.469h835.722v-46.469c-.001-75.283-61.031-136.314-136.315-136.314z"/><path d="M1919.054 1080h-835.722a2.996 2.996 0 0 1-2.997-2.997V1030.4c0-76.743 62.434-139.177 139.177-139.177h563.362c76.742 0 139.177 62.434 139.177 139.177v46.603a2.996 2.996 0 0 1-2.997 2.997zm-832.725-5.994h829.728V1030.4c0-73.437-59.746-133.183-133.183-133.183h-563.362c-73.437 0-133.183 59.746-133.183 133.183v43.606z"/></g><path fill="#41E847" d="M1596.748 913.556V705.29h-204.994v211.662h.086c.078 56.541 45.933 102.354 102.494 102.354 56.607 0 102.497-45.89 102.497-102.497-.001-1.091-.05-2.17-.083-3.253z"/><path fill="#41E847" d="M1744.191 606.853c-3.238 0-6.426.205-9.568.553-29.315-101.262-122.719-175.307-233.429-175.307-110.71 0-204.121 74.046-233.433 175.307a86.455 86.455 0 0 0-9.562-.553c-46.599 0-84.376 37.776-84.376 84.376 0 46.599 37.778 84.372 84.376 84.372 7.099 0 13.99-.889 20.574-2.539 37.671 85.405 123.076 145.025 222.42 145.025 99.34 0 184.745-59.621 222.418-145.025a84.628 84.628 0 0 0 20.579 2.539c46.596 0 84.372-37.773 84.372-84.372.001-46.6-37.775-84.376-84.371-84.376z"/><path d="M1501.194 920.586c-96.55 0-184.187-56.694-223.857-144.615a87.2 87.2 0 0 1-19.137 2.128c-47.903 0-86.874-38.969-86.874-86.869 0-47.903 38.971-86.874 86.874-86.874 2.525 0 5.078.118 7.75.358 14.729-49.262 45.382-93.559 86.489-124.919 43.04-32.837 94.479-50.193 148.755-50.193 54.276 0 105.714 17.356 148.752 50.193 41.105 31.361 71.758 75.658 86.489 124.92a85.97 85.97 0 0 1 7.756-.359c47.9 0 86.869 38.971 86.869 86.874 0 47.9-38.969 86.869-86.869 86.869a87.25 87.25 0 0 1-19.141-2.128c-39.673 87.921-127.31 144.615-223.856 144.615zm-222.419-150.02c.97 0 1.878.568 2.284 1.49 38.461 87.195 124.869 143.536 220.135 143.536 95.263 0 181.67-56.342 220.134-143.536a2.504 2.504 0 0 1 2.892-1.415 82.322 82.322 0 0 0 19.971 2.463c45.146 0 81.874-36.728 81.874-81.874 0-45.149-36.728-81.879-81.874-81.879-2.988 0-6.027.176-9.293.538a2.493 2.493 0 0 1-2.674-1.787c-14.197-49.04-44.493-93.197-85.307-124.336-42.161-32.165-92.552-49.168-145.723-49.168-53.172 0-103.563 17.003-145.725 49.169-40.816 31.139-71.113 75.296-85.308 124.335a2.49 2.49 0 0 1-2.674 1.787c-3.261-.362-6.298-.538-9.287-.538-45.149 0-81.879 36.73-81.879 81.879 0 45.146 36.73 81.874 81.879 81.874 6.724 0 13.442-.829 19.968-2.463.202-.051.406-.075.607-.075z"/><path d="M1267.197 727.659a2.49 2.49 0 0 1-1.839-.807l-51.748-56.254a2.498 2.498 0 0 1 3.676-3.382l51.748 56.254a2.498 2.498 0 0 1-1.837 4.189zM1725.099 727.659a2.497 2.497 0 0 1-1.837-4.188l51.75-56.254a2.497 2.497 0 1 1 3.676 3.382l-51.75 56.254a2.492 2.492 0 0 1-1.839.806zM1499.505 750.312a2.497 2.497 0 0 1-2.498-2.498v-46.683a2.497 2.497 0 0 1 4.996 0v46.683a2.499 2.499 0 0 1-2.498 2.498zM1446.427 710.705c-.295 0-.593-.053-.884-.163l-63.776-24.131a2.496 2.496 0 1 1 1.767-4.671l63.776 24.131a2.497 2.497 0 0 1-.883 4.834zM1547.645 710.705a2.5 2.5 0 0 1-.884-4.834l63.776-24.131a2.495 2.495 0 0 1 3.219 1.452 2.496 2.496 0 0 1-1.452 3.219l-63.776 24.131c-.29.11-.59.163-.883.163z"/><path fill="#FFF" d="M1423.153 871.283a2.497 2.497 0 0 1-2.497-2.498v-68.182c0-21.954 17.861-39.815 39.815-39.815h13.377a2.497 2.497 0 1 1 0 4.995h-13.377c-19.2 0-34.82 15.62-34.82 34.82v68.182a2.499 2.499 0 0 1-2.498 2.498zM1578.696 871.283a2.497 2.497 0 0 1-2.498-2.498v-68.182c0-19.2-15.62-34.82-34.82-34.82h-13.377a2.497 2.497 0 0 1 0-4.995h13.377c21.954 0 39.815 17.861 39.815 39.815v68.182a2.496 2.496 0 0 1-2.497 2.498zM1737.502 606.573c-14.522-50.163-45.509-98.329-87.253-130.176-29.221-22.293-62.308-37.455-97.521-44.922 15.717-14.123 25.608-31.6 25.608-54.393 0-42.606-34.539-77.145-77.145-77.145s-77.145 34.539-77.145 77.145c0 22.793 9.892 40.271 25.609 54.394-35.214 7.467-68.301 22.629-97.521 44.922-41.745 31.848-72.732 80.014-87.253 130.176a2.996 2.996 0 0 0 4.606 3.282l143.723-101.428 31.419 16.476c36.793 19.293 80.431 18.744 116.729-1.471l28.85-16.068 142.665 102.477a2.986 2.986 0 0 0 1.748.563 2.997 2.997 0 0 0 2.881-3.832z"/><path d="M1500.47 795.216a41.86 41.86 0 0 1-28.481-11.135 2.499 2.499 0 0 1 3.389-3.67 36.88 36.88 0 0 0 25.091 9.81c9.881 0 19.171-3.848 26.158-10.835.976-.976 2.556-.976 3.532 0s.976 2.556 0 3.532c-7.93 7.93-18.474 12.298-29.689 12.298z"/><path fill="#FFF" d="M1452.832 667.503h-85.156c-11.035 0-19.98-8.945-19.98-19.98s8.945-19.98 19.98-19.98h85.156c11.035 0 19.98 8.945 19.98 19.98s-8.945 19.98-19.98 19.98zM1626.637 667.503h-85.157c-11.035 0-19.98-8.945-19.98-19.98s8.945-19.98 19.98-19.98h85.157c11.035 0 19.98 8.945 19.98 19.98s-8.945 19.98-19.98 19.98z"/><path fill="#41E847" d="m550.146 127.499-1.355-2.214a8.041 8.041 0 0 0-11.05-2.667l-52.407 31.989a8.04 8.04 0 0 0-3.852 6.864v.004a8.043 8.043 0 0 0 4.032 6.971l52.527 30.214a8.042 8.042 0 0 0 10.8-2.663l1.293-2.038c2.448-3.857 1.194-8.977-2.759-11.267l-25.723-14.904c-5.316-3.08-5.355-10.742-.07-13.876l25.804-15.299a8.04 8.04 0 0 0 2.76-11.114zM565.064 219.529a9.127 9.127 0 0 0 12.052-4.644l40.41-91.226a9.128 9.128 0 0 0-4.639-12.038 9.127 9.127 0 0 0-12.052 4.644l-40.41 91.226a9.127 9.127 0 0 0 4.639 12.038zM629.16 125.285l-1.355 2.214a8.042 8.042 0 0 0 2.758 11.115l25.804 15.299c5.285 3.133 5.246 10.796-.07 13.876l-25.723 14.904c-3.953 2.29-5.206 7.409-2.759 11.267l1.293 2.038a8.042 8.042 0 0 0 10.8 2.663l52.527-30.214a8.04 8.04 0 0 0 4.032-6.971v-.004a8.042 8.042 0 0 0-3.852-6.864l-52.407-31.989a8.038 8.038 0 0 0-11.048 2.666z"/><path d="m997.449 242.123.33-66.169c.007-1.387.097-2.754.253-4.102l.089-34.628c.062-24.051 9.487-46.637 26.538-63.599 9.685-9.634 21.176-16.787 33.7-21.167l-272.704.627c26.219 28.352 42.248 66.264 42.248 107.926v81.111h169.546z"/></svg>