<svg xmlns="http://www.w3.org/2000/svg" viewBox="0 0 1080 1080" xml:space="preserve"><path d="m660.282 125.186.076-29.925c.043-16.743 6.553-32.468 18.33-44.277 6.291-6.309 13.69-11.08 21.745-14.166l-161.472.435C518.811 14.517 489.414.184 456.669.184H352.808c-33.031 0-62.658 14.583-82.821 37.665l-146.917.326c-59.739.132-108.098 48.987-108.098 109.208V360.62H151.11V179.338c0-6.497 5.224-11.763 11.669-11.763h79.993l.028 19.632h-61.725c-7.728 0-14.014 6.295-14.014 14.032v2.789c0 7.738 6.286 14.033 14.014 14.033H566.67v-30.854h-.002v-19.632h91.529l-.193-32.315 3.995-.023.193 32.339h31.209c3.805 0 7.371-1.87 9.555-5.01l30.839-37.185-73.513-.195zm-97.609 62.022H246.804v-76.874c0-58.531 47.553-106.149 106.003-106.149h103.862c58.451 0 106.003 47.618 106.003 106.149v76.874z"/><path fill="#FFF" d="m853.518 65.913 91.078-3.957.174 3.997-91.078 3.956zM837.938 150.865l.182-3.996 105.975 4.827-.182 3.996z"/><path d="M570.179 264.071a57.623 57.623 0 0 0-6.532.322c-6.998-25.214-19.72-48.037-36.672-66.944H280.893c-16.292 18.166-28.691 39.961-35.845 64.06a57.969 57.969 0 0 0-6.522-.441c-31.802-.287-57.812 25.466-58.097 57.521-.286 32.058 25.261 58.276 57.062 58.564 4.844.044 9.55-.525 14.058-1.618 25.184 58.985 83.1 100.526 150.895 101.14 67.795.614 126.442-39.873 152.674-98.392a57.277 57.277 0 0 0 14.027 1.874c31.799.287 57.81-25.463 58.095-57.522.286-32.056-25.261-58.276-57.061-58.564z"/><path fill="#41E847" d="m317.225 570.07-5.535 51.745c-.768 7.183-7.168 12.379-14.294 11.604l-8.631-.938c-7.126-.775-12.28-7.226-11.512-14.409l5.535-51.745c.768-7.183 7.168-12.379 14.294-11.604l8.631.938c7.126.775 12.28 7.226 11.512 14.409z"/><path fill="#41E847" d="m355.544 524.885-32.37 40.546c-4.494 5.629-12.663 6.519-18.247 1.989l-6.763-5.486c-5.584-4.53-6.467-12.765-1.974-18.394l32.37-40.546c4.494-5.629 12.663-6.519 18.247-1.989l6.763 5.486c5.584 4.53 6.468 12.765 1.974 18.394zM310.464 641.319v52.045c0 7.225-5.857 13.082-13.082 13.082h-8.472c-7.225 0-13.082-5.857-13.082-13.082v-52.045c0-7.225 5.857-13.082 13.082-13.082h8.472c7.225 0 13.082 5.857 13.082 13.082z"/><path fill="#41E847" d="m311.016 711.85 13.566 50.217c1.883 6.971-2.196 14.161-9.112 16.06l-8.376 2.299c-6.915 1.898-14.048-2.214-15.932-9.185l-13.566-50.217c-1.883-6.971 2.196-14.161 9.112-16.06l8.376-2.299c6.916-1.899 14.049 2.214 15.932 9.185z"/><path fill="#41E847" d="m335.282 773.718 32.635 40.329c4.53 5.599 3.701 13.839-1.853 18.406l-6.727 5.531c-5.554 4.567-13.729 3.731-18.259-1.868l-32.635-40.329c-4.531-5.599-3.701-13.839 1.853-18.406l6.727-5.531c5.554-4.567 13.729-3.73 18.259 1.868zM482.026 570.07l5.535 51.745c.768 7.183 7.168 12.379 14.294 11.604l8.631-.938c7.126-.775 12.28-7.226 11.512-14.409l-5.535-51.745c-.768-7.183-7.168-12.379-14.294-11.604l-8.631.938c-7.127.775-12.281 7.226-11.512 14.409z"/><path fill="#41E847" d="m443.707 524.885 32.37 40.546c4.494 5.629 12.663 6.519 18.247 1.989l6.763-5.486c5.584-4.53 6.467-12.765 1.974-18.394l-32.37-40.546c-4.494-5.629-12.663-6.519-18.247-1.989l-6.763 5.486c-5.585 4.53-6.468 12.765-1.974 18.394zM488.786 641.319v52.045c0 7.225 5.857 13.082 13.082 13.082h8.472c7.225 0 13.082-5.857 13.082-13.082v-52.045c0-7.225-5.857-13.082-13.082-13.082h-8.472c-7.225 0-13.082 5.857-13.082 13.082z"/><path fill="#41E847" d="m488.234 711.85-13.566 50.217c-1.883 6.971 2.196 14.161 9.112 16.06l8.376 2.299c6.916 1.898 14.048-2.214 15.932-9.185l13.566-50.217c1.883-6.971-2.196-14.161-9.112-16.06l-8.376-2.299c-6.916-1.899-14.049 2.214-15.932 9.185z"/><path fill="#41E847" d="m463.968 773.718-32.635 40.329c-4.531 5.599-3.701 13.839 1.853 18.406l6.727 5.531c5.554 4.567 13.729 3.731 18.259-1.868l32.635-40.329c4.531-5.599 3.701-13.839-1.853-18.406l-6.727-5.531c-5.554-4.567-13.729-3.73-18.259 1.868z"/><path fill="#41E847" d="M372.421 813.521h51.42c7.225 0 13.082 5.857 13.082 13.082v8.751c0 7.225-5.857 13.082-13.082 13.082h-51.42c-7.225 0-13.082-5.857-13.082-13.082v-8.751c0-7.225 5.857-13.082 13.082-13.082z"/><path fill="#FFF" d="M677.295 503.074c57.489 0 104.26 47.159 104.26 105.126v286.1l-160.15-.7-3.963-.017-.049 3.968-2.193 178.4-448.565-.129V503.198c16.869-.078 83.189-.124 86.839-.124h423.821m0-4h-423.82c-1.966 0-88.894.056-90.834.16v580.587l456.505.131 2.241-182.352 164.162.718V608.2c0-60.269-48.467-109.126-108.254-109.126z"/><path fill="#FFF" d="M161.482 363.452V740.85C74.281 738.693 3.995 666.201 3.995 577.401v-213.95h157.487m3.994-3.999H0v217.95C0 669.527 74.086 744.9 165.476 744.9V359.452zM566.67 264.69l-321.722-3.182v-43.446H566.67z"/><path d="M470.534 534.635V390.921H330.209v146.057h.059c.053 39.016 31.443 70.629 70.16 70.629 38.749 0 70.163-31.666 70.163-70.728 0-.752-.034-1.497-.057-2.244z"/><path d="M400.428 609.607c-39.071 0-71.022-31.502-72.128-70.629h-.029l-.059-2V388.921h144.32l.018 146.219c.02.578.039 1.156.039 1.739-.001 40.103-32.372 72.728-72.161 72.728zm-68.222-74.541.059 1.909c.051 37.844 30.629 68.632 68.163 68.632 37.587 0 68.166-30.831 68.166-68.728 0-.537-.019-1.07-.037-1.604l-.02-.642V392.921H332.206v142.145z"/><path fill="#41E847" d="M243.942 343.818a1.99 1.99 0 0 1-1.487-.664l-34.972-39.015a2.001 2.001 0 0 1 .152-2.824 1.995 1.995 0 0 1 2.82.152l34.972 39.015a2.001 2.001 0 0 1-1.485 3.336zM556.428 346.647a2.001 2.001 0 0 1-1.461-3.362l35.66-38.376a1.996 1.996 0 0 1 2.822-.102c.807.752.853 2.018.101 2.826l-35.66 38.376a1.989 1.989 0 0 1-1.462.638zM402.406 344.562h-.014a2 2 0 0 1-1.984-2.014l.286-40.538a1.998 1.998 0 0 1 1.997-1.986h.014a2 2 0 0 1 1.984 2.014l-.286 40.538a1.997 1.997 0 0 1-1.997 1.986zM443.891 410.386h-85.505C346.023 410.386 336 400.363 336 388v-5.189c0-12.363 10.023-22.386 22.386-22.386h85.505c12.363 0 22.386 10.023 22.386 22.386V388c0 12.363-10.023 22.386-22.386 22.386z"/><path d="M451.29 387.549h-.006l-100.303-.288a1.998 1.998 0 0 1-1.991-2.006 1.998 1.998 0 0 1 1.997-1.994h.006l100.303.288a1.998 1.998 0 0 1 1.991 2.006 1.998 1.998 0 0 1-1.997 1.994z"/><g fill="#41E847"><path d="M456.967 318.886c0 11.293 9.081 20.442 20.277 20.442 11.201 0 20.281-9.149 20.281-20.442 0-11.29-9.08-20.441-20.281-20.441-11.196 0-20.277 9.151-20.277 20.441z"/><path d="M477.244 339.828c-11.456 0-20.776-9.395-20.776-20.942s9.32-20.94 20.776-20.94c11.459 0 20.781 9.394 20.781 20.94 0 11.547-9.322 20.942-20.781 20.942zm0-40.883c-10.905 0-19.777 8.945-19.777 19.94 0 10.996 8.873 19.942 19.777 19.942 10.908 0 19.782-8.946 19.782-19.942 0-10.995-8.874-19.94-19.782-19.94z"/></g><path fill="#41E847" d="M510.513 322.671a2.493 2.493 0 0 1-2.065-1.092c-8.711-12.79-23.081-20.427-38.437-20.427-15.357 0-29.726 7.637-38.436 20.427a2.491 2.491 0 0 1-3.469.657 2.501 2.501 0 0 1-.656-3.474c9.642-14.158 25.553-22.61 42.562-22.61 17.01 0 32.921 8.452 42.563 22.61a2.502 2.502 0 0 1-2.062 3.909z"/><g fill="#41E847"><path d="M324.615 318.886c0 11.293 9.08 20.442 20.28 20.442 11.2 0 20.28-9.149 20.28-20.442 0-11.29-9.08-20.441-20.28-20.441-11.2 0-20.28 9.151-20.28 20.441z"/><path d="M344.895 339.828c-11.458 0-20.779-9.395-20.779-20.942s9.321-20.94 20.779-20.94 20.78 9.394 20.78 20.94c0 11.547-9.322 20.942-20.78 20.942zm0-40.883c-10.907 0-19.78 8.945-19.78 19.94 0 10.996 8.874 19.942 19.78 19.942 10.908 0 19.781-8.946 19.781-19.942 0-10.995-8.873-19.94-19.781-19.94z"/></g><path fill="#41E847" d="M297.157 322.671a2.501 2.501 0 0 1-2.06-3.909c9.642-14.158 25.554-22.61 42.563-22.61 17.009 0 32.92 8.452 42.562 22.61a2.497 2.497 0 1 1-4.125 2.817c-8.712-12.79-23.082-20.427-38.437-20.427-15.358 0-29.728 7.637-38.438 20.427a2.493 2.493 0 0 1-2.065 1.092zM565.961 249.879h-.043l-304.228-6.426a2 2 0 0 1-1.955-2.042 1.999 1.999 0 0 1 1.996-1.958h.043l304.228 6.426a2 2 0 0 1-.041 4z"/><ellipse transform="rotate(-79.625 611.157 266.215)" fill="#FFF" cx="611.185" cy="266.23" rx="19.514" ry="53.88"/><ellipse transform="rotate(-30.963 605.93 227.084)" fill="#FFF" cx="605.905" cy="227.092" rx="53.98" ry="19.478"/><path d="M917.196 94.332 828.51 47.153a45.492 45.492 0 0 1-2.24-1.302c-.671-.406-1.387-.841-2.25-1.319-8.313-5.031-18.322-7.578-29.818-7.608l-66.886-.177h-.006l-4.594-.012h-.157c-.384 0-.765.021-1.147.028h-.001c-15.057.292-29.182 6.306-39.895 17.048-11.027 11.058-17.121 25.781-17.162 41.461l-.066 25.925 187.903.497.03-11.667 44.363 23.6c5.189 2.769 11.135 3.342 16.746 1.611 5.644-1.739 10.273-5.593 13.035-10.853 5.688-10.837 1.575-24.318-9.169-30.053z"/><path fill="#41E847" d="M940.767 66.045 663.152 77.971c-16.459.707-29.352 14.276-29.352 30.889 0 16.614 12.893 30.183 29.352 30.89l277.264 11.912c-8.361-12.61-12.758-27.234-12.758-42.55 0-15.541 4.518-30.343 13.109-43.067z"/><path d="M1003.829 185.882c-24.259 0-46.512-11.247-61.053-30.856-9.891-13.34-15.119-29.216-15.119-45.914 0-16.938 5.369-32.998 15.524-46.447 14.55-19.271 36.656-30.323 60.648-30.323 42.001 0 76.171 34.439 76.171 76.771s-34.17 76.769-76.171 76.769zm0-149.541c-22.729 0-43.673 10.474-57.461 28.735-9.627 12.749-14.716 27.976-14.716 44.035 0 15.833 4.956 30.885 14.331 43.529 13.78 18.583 34.864 29.241 57.846 29.241 39.798 0 72.176-32.645 72.176-72.771s-32.378-72.769-72.176-72.769z"/><path d="M1052.586 164.888 948.253 59.715l2.834-2.818L1055.42 162.07zM1075.651 122.951 990.37 36.983l2.833-2.818 85.281 85.967zM1014.228 183.96l-84.895-85.579 2.834-2.818 84.895 85.578z"/><path d="m954.255 164.714-2.834-2.818 104.848-105.692 2.834 2.818zM931.898 122.063l-2.834-2.818 84.766-85.449 2.834 2.819zM992.677 183.721l-2.834-2.818 85.603-86.293 2.834 2.818zM782.235 98.345c13.275.068 23.979 10.967 23.913 24.348.066-13.381 10.881-24.174 24.155-24.105 13.275.067 23.981 10.968 23.916 24.348l-.275 55.326c-.067 13.382-10.881 24.174-24.155 24.108-13.271-.067-23.981-10.97-23.914-24.35-.067 13.381-10.88 24.175-24.154 24.108-12.597-.065-22.87-9.881-23.835-22.315-1.088 12.424-11.458 22.138-24.051 22.074-13.275-.067-23.981-10.969-23.916-24.351-.065 13.382-10.882 24.176-24.153 24.108-13.275-.067-23.983-10.968-23.916-24.349l.274-55.326c.067-13.38 10.882-24.173 24.157-24.106 13.271.067 23.981 10.969 23.915 24.349.067-13.38 10.879-24.173 24.154-24.106 12.593.064 22.867 9.88 23.831 22.315 1.087-12.425 11.458-22.139 24.054-22.076z"/><path fill="#FFF" d="M619.804 899.036a1.999 1.999 0 0 1-1.997-2V593.111c0-1.104.894-2 1.997-2s1.997.896 1.997 2v303.925c.001 1.104-.894 2-1.997 2z"/><path fill="#41E847" d="m366.595 70.594-1.345-2.216c-2.3-3.79-7.211-4.984-10.973-2.67l-52.039 32.021a8.063 8.063 0 0 0-3.825 6.871v.004a8.061 8.061 0 0 0 4.004 6.978l52.159 30.244c3.706 2.149 8.434.974 10.725-2.665l1.284-2.04c2.43-3.861 1.186-8.985-2.739-11.278l-25.543-14.919c-5.279-3.083-5.317-10.753-.069-13.89l25.623-15.315c3.83-2.29 5.062-7.296 2.738-11.125zM381.408 162.715c4.578 2.051 9.939-.031 11.968-4.649l40.127-91.316c2.026-4.61-.036-10.002-4.606-12.049-4.578-2.051-9.939.031-11.968 4.649l-40.127 91.316c-2.026 4.609.036 10.001 4.606 12.049zM445.055 68.377l-1.345 2.216c-2.324 3.83-1.092 8.836 2.739 11.126l25.623 15.315c5.248 3.137 5.21 10.806-.069 13.89l-25.543 14.919c-3.925 2.293-5.17 7.417-2.739 11.278l1.284 2.04c2.291 3.639 7.018 4.814 10.725 2.665l52.159-30.244a8.061 8.061 0 0 0 4.004-6.978v-.004a8.063 8.063 0 0 0-3.825-6.871l-52.039-32.021c-3.763-2.315-8.674-1.12-10.974 2.669z"/><path fill="#FFF" d="M961.28 777.217H622.367c-64.747 0-117.235 52.488-117.235 117.235V1080h573.383V894.452c0-64.747-52.488-117.235-117.235-117.235z"/><path fill="#41E847" d="M857.383 790.591V646.55H716.738v146.39h.059c.053 39.105 31.514 70.79 70.32 70.79 38.838 0 70.323-31.738 70.323-70.889-.001-.755-.034-1.501-.057-2.25z"/><path fill="#41E847" d="M958.543 578.47c-2.222 0-4.409.142-6.565.383-20.113-70.034-84.196-121.246-160.154-121.246-75.957 0-140.046 51.211-160.157 121.246a58.928 58.928 0 0 0-6.56-.383c-31.971 0-57.89 26.126-57.89 58.356 0 32.229 25.919 58.353 57.89 58.353 4.871 0 9.598-.615 14.116-1.756 25.846 59.068 84.442 100.302 152.601 100.302 68.156 0 126.752-41.235 152.6-100.302a57.6 57.6 0 0 0 14.119 1.756c31.969 0 57.887-26.125 57.887-58.353 0-32.23-25.918-58.356-57.887-58.356z"/><path d="M791.824 795.725c-66.279 0-126.446-39.187-153.753-99.973a59.729 59.729 0 0 1-12.964 1.427c-33.022 0-59.887-27.074-59.887-60.354s26.865-60.356 59.887-60.356c1.663 0 3.347.075 5.109.229 10.147-34.035 31.183-64.64 59.37-86.317 29.58-22.749 64.934-34.773 102.237-34.773s72.656 12.024 102.235 34.773c28.187 21.678 49.222 52.281 59.369 86.317a58.921 58.921 0 0 1 5.114-.229c33.02 0 59.883 27.076 59.883 60.356 0 33.279-26.863 60.354-59.883 60.354-4.356 0-8.71-.479-12.967-1.427-27.306 60.787-87.474 99.973-153.75 99.973zM639.225 691.423a2 2 0 0 1 1.829 1.197c26.343 60.204 85.524 99.104 150.771 99.104 65.245 0 124.425-38.9 150.77-99.104a1.993 1.993 0 0 1 2.318-1.137 55.731 55.731 0 0 0 13.631 1.695c30.817 0 55.889-25.28 55.889-56.354 0-31.075-25.072-56.356-55.889-56.356-2.031 0-4.107.121-6.345.37a1.986 1.986 0 0 1-2.14-1.435c-9.725-33.862-30.476-64.352-58.432-85.852-28.875-22.208-63.386-33.946-99.802-33.946s-70.928 11.738-99.804 33.946c-27.958 21.5-48.709 51.99-58.433 85.852a1.984 1.984 0 0 1-2.141 1.435 56.776 56.776 0 0 0-6.339-.37c-30.819 0-55.893 25.281-55.893 56.356 0 31.073 25.074 56.354 55.893 56.354 4.587 0 9.173-.57 13.628-1.695.162-.04.327-.06.489-.06z"/><path d="M631.282 662.294a1.994 1.994 0 0 1-1.476-.65l-35.504-38.906a2.002 2.002 0 0 1 .127-2.826 1.997 1.997 0 0 1 2.822.127l35.504 38.906a2.002 2.002 0 0 1-1.473 3.349zM945.444 662.294c-.481 0-.964-.173-1.347-.523a2.003 2.003 0 0 1-.127-2.826l35.505-38.906a1.996 1.996 0 0 1 2.822-.127c.814.745.871 2.011.127 2.826l-35.505 38.906a1.99 1.99 0 0 1-1.475.65zM790.666 677.962a1.999 1.999 0 0 1-1.997-2v-32.287c0-1.104.894-2 1.997-2s1.997.896 1.997 2v32.287c0 1.104-.894 2-1.997 2zM754.248 650.568c-.237 0-.477-.043-.711-.132l-43.756-16.689a1.998 1.998 0 0 1 1.421-3.738l43.756 16.689a2.002 2.002 0 0 1-.71 3.87zM823.694 650.568a2.002 2.002 0 0 1-.711-3.87l43.756-16.689a2 2 0 0 1 1.422 3.738l-43.756 16.689a1.996 1.996 0 0 1-.711.132z"/><path fill="#FFF" d="M738.281 761.628a1.999 1.999 0 0 1-1.997-2v-47.156c0-15.334 12.381-27.81 27.6-27.81h9.179c1.103 0 1.997.896 1.997 2s-.894 2-1.997 2h-9.179c-13.016 0-23.605 10.681-23.605 23.81v47.156a2 2 0 0 1-1.998 2zM844.998 761.628a1.999 1.999 0 0 1-1.997-2v-47.156c0-13.129-10.59-23.81-23.606-23.81h-9.178c-1.103 0-1.997-.896-1.997-2s.894-2 1.997-2h9.178c15.219 0 27.601 12.476 27.601 27.81v47.156a2 2 0 0 1-1.998 2zM954.857 578.023c-10.016-34.882-31.392-66.289-60.189-88.436-19.992-15.376-42.608-25.873-66.677-31.111 10.306-9.734 16.76-23.561 16.76-38.921 0-29.467-23.697-53.354-52.928-53.354-29.232 0-52.928 23.888-52.928 53.354 0 15.36 6.454 29.187 16.76 38.921-24.068 5.239-46.684 15.736-66.676 31.111-28.797 22.147-50.173 53.554-60.19 88.436a3 3 0 0 0 1.147 3.276 2.991 2.991 0 0 0 3.467-.002l98.132-69.811 21.039 11.122c25.531 13.495 55.809 13.11 80.994-1.028l19.265-10.817 97.39 70.52a2.992 2.992 0 0 0 3.477.024 3.001 3.001 0 0 0 1.157-3.284z"/><path d="M791.327 709.017c-7.339 0-14.348-2.762-19.737-7.777a1.997 1.997 0 1 1 2.719-2.93 24.906 24.906 0 0 0 17.018 6.707c6.702 0 13.003-2.631 17.741-7.408a1.997 1.997 0 0 1 2.824-.01c.783.778.787 2.045.01 2.828-5.494 5.539-12.801 8.59-20.575 8.59z"/><path fill="#FFF" d="M758.644 621.597h-58.425c-8.273 0-14.979-6.716-14.979-15s6.707-15 14.979-15h58.425c8.273 0 14.979 6.716 14.979 15s-6.707 15-14.979 15zM877.89 621.597h-58.425c-8.273 0-14.979-6.716-14.979-15s6.707-15 14.979-15h58.425c8.273 0 14.979 6.716 14.979 15s-6.707 15-14.979 15z"/><path fill="#41E847" d="m775.008 976.137-39.755-15.639 12.273-161.437c0-11.631 9.354-21.06 20.892-21.06s20.892 9.429 20.892 21.06v95.659c0 18.217 3.769 81.417-14.302 81.417z"/><path d="M775.008 978.137c-.25 0-.497-.047-.73-.139l-39.755-15.639a2.001 2.001 0 0 1-1.261-2.013l12.268-161.363c.041-12.681 10.293-22.982 22.888-22.982 12.621 0 22.889 10.345 22.889 23.06v95.66c0 2.222.057 5.142.123 8.523.575 29.487.37 61.784-9.428 71.788-2.017 2.061-4.37 3.105-6.994 3.105zm-37.651-18.96 38.001 14.949c1.39-.089 2.633-.711 3.793-1.894 9.443-9.644 8.662-49.673 8.286-68.91-.066-3.402-.124-6.341-.124-8.602v-95.66c0-10.51-8.477-19.06-18.895-19.06s-18.894 8.55-18.894 19.06c0 .051-.002.102-.006.151l-12.161 159.966z"/><path fill="#41E847" d="M747.527 961.15v-76.319c0-11.631 9.354-21.06 20.892-21.06s20.892 9.429 20.892 21.06v121.622c0 18.217-14.65 32.984-32.721 32.984l-49.132 1.109-1.616-76.464 29.846-8.522"/><path d="M707.457 1042.547a1.997 1.997 0 0 1-1.997-1.958l-1.616-76.464a2 2 0 0 1 1.449-1.965l29.847-8.523a1.997 1.997 0 0 1 2.468 1.375 2.002 2.002 0 0 1-1.372 2.473l-28.365 8.099 1.541 72.919 47.133-1.062c16.985-.001 30.768-13.9 30.768-30.985V884.832c0-10.51-8.477-19.061-18.895-19.061s-18.894 8.551-18.894 19.061v76.318c0 1.104-.894 2-1.997 2s-1.997-.896-1.997-2v-76.318c0-12.716 10.268-23.061 22.888-23.061 12.621 0 22.889 10.345 22.889 23.061v121.622c0 19.29-15.574 34.984-34.718 34.984l-49.088 1.107c-.014.002-.029.002-.044.002z"/><path fill="#41E847" d="m804.302 976.137 39.755-15.639-12.273-161.437c0-11.631-9.354-21.06-20.892-21.06S790 787.43 790 799.061v95.659c0 18.217-3.769 81.417 14.302 81.417z"/><path d="M804.302 978.137c-2.624 0-4.978-1.044-6.995-3.104-9.797-10.005-10.004-42.3-9.427-71.786.066-3.383.123-6.304.123-8.525v-95.66c0-12.715 10.268-23.06 22.889-23.06 12.595 0 22.847 10.302 22.888 22.981l12.267 161.364a2.002 2.002 0 0 1-1.261 2.013l-39.754 15.639a2 2 0 0 1-.73.138zm6.59-198.135c-10.418 0-18.895 8.55-18.895 19.06v95.66c0 2.261-.058 5.2-.124 8.604-.375 19.236-1.158 59.265 8.286 68.907 1.159 1.184 2.403 1.806 3.793 1.895l38-14.949-12.161-159.965a1.905 1.905 0 0 1-.006-.151c.001-10.512-8.475-19.061-18.893-19.061z"/><path fill="#41E847" d="M831.783 961.15v-76.319c0-11.631-9.354-21.06-20.892-21.06s-20.892 9.429-20.892 21.06v121.622c0 18.217 14.65 32.984 32.721 32.984l49.132 1.109 1.616-76.464-29.846-8.522"/><path d="m871.853 1042.547-.045-.001-49.133-1.108c-19.099.001-34.673-15.693-34.673-34.983V884.832c0-12.716 10.268-23.061 22.889-23.061 12.62 0 22.888 10.345 22.888 23.061v76.318c0 1.104-.894 2-1.997 2s-1.997-.896-1.997-2v-76.318c0-10.51-8.476-19.061-18.894-19.061s-18.895 8.551-18.895 19.061v121.622c0 17.085 13.783 30.984 30.723 30.984l47.178 1.063 1.541-72.919-28.365-8.099a2.001 2.001 0 0 1 1.096-3.848l29.847 8.523a2 2 0 0 1 1.449 1.965l-1.616 76.464a2.001 2.001 0 0 1-1.996 1.96z"/></svg>