<svg xmlns="http://www.w3.org/2000/svg" width="502" height="189" viewBox="0 0 501 189"><path fill="#3d3d3d" d="m368.723 155.137 14.472-36.668h41.79l-19.833-55.625L429.957 0 501 188.984h-52.39l-12.141-33.847Zm0 0"/><path fill="#5a0fc8" d="M324.023 188.984 400.078 0h-50.422l-52.023 122.125L260.637 0h-38.754L182.16 122.125l-28.015-55.648-25.348 78.25 25.738 44.257h49.617l35.899-109.52 34.222 109.52Zm0 0"/><path fill="#3d3d3d" d="M47.86 124.11h31.058c9.406 0 17.785-1.051 25.133-3.157l8.031-24.789 22.445-69.289a55.575 55.575 0 0 0-5.859-7.703C117.145 6.39 100.281 0 78.082 0H0v188.984h47.86Zm41.109-80.633c4.504 4.539 6.754 10.617 6.754 18.226 0 7.668-1.98 13.75-5.942 18.246-4.34 4.992-12.328 7.492-23.972 7.492h-17.95V36.668h18.082c10.852 0 18.528 2.27 23.028 6.809Zm0 0"/></svg>