<svg xmlns="http://www.w3.org/2000/svg" fill="none" viewBox="0 0 591 530"><path fill="#fff" fill-rule="evenodd" d="M409.64 57.78c0 25.42-17 47.01-40.62 54.74v60.06h119.15v-60.12c-23.53-7.77-40.45-29.32-40.45-54.68C447.72 25.87 474.51 0 507.54 0c33.04 0 59.82 25.87 59.82 57.78 0 25.28-16.8 46.76-40.2 54.6v60.2h4.63a59.21 59.21 0 010 118.42v130.85s3.26 55.68-23.03 82.11c-29.82 30-85.28 25.59-85.28 25.59H29.84L329.9 172.58h.12v-60.26C306.72 104.45 290 83 290 57.79 290 25.87 316.78 0 349.82 0s59.82 25.87 59.82 57.78zm-39.47 0c0 10.9-9.11 19.72-20.35 19.72-11.24 0-20.35-8.83-20.35-19.72 0-10.89 9.11-19.72 20.35-19.72 11.24 0 20.35 8.83 20.35 19.72zm157.72 0c0 10.9-9.1 19.72-20.35 19.72-11.23 0-20.34-8.83-20.34-19.72 0-10.89 9.1-19.72 20.34-19.72s20.35 8.83 20.35 19.72z" clip-rule="evenodd"/><path fill="#AFC9DA" d="M188 166.5c149.5-7.43 207.97 105.69 216.88 166.36 1.48 14.38-11.36 21.97-17.97 23.96l-9.22 2.3c-21.75 8.12-38.24 33.5-43.77 45.17-52.72 89.21-140.25 101.38-177.42 96.3C27.47 505.4 9.65 331.63 35 279.5c18-37 62.5-108.5 153-113z"/><path fill="#1A5AD7" stroke="#1A5AD7" d="M190.06 148c149.68 1.47 204.91 123.19 213.82 183.86 1.48 14.38-11.36 21.97-17.97 23.96l-9.22 2.3c-18.43 4.8-28.87-8.44-31.8-15.66-24.32-104.7-118.27-129.34-162.2-128.57C77.26 209.84 53.2 307.44 61.04 365.04c11.05 60.37 66.97 72.35 94.46 73.73 27.5 1.38 61.3-11.98 65.9-51.15 6.91-58.77-26.28-78.02-47.47-72.35C134.3 325.87 143.5 373 164 391c-53.45.74-63.23-36.1-64-55 0-28.26 16.7-86.82 82.7-83.5 65.98 3.32 88.16 47.1 95.38 69.22 17.97 61.3 6.45 173.08-122.58 177.88C26.47 504.39-1.17 389.77 1.13 331.86c.61-61.9 39.26-185.34 188.93-183.87z"/></svg>