<svg xmlns="http://www.w3.org/2000/svg" xml:space="preserve" viewBox="0 0 1920 1080"><path d="M0 1076.005h1917.735V1080H0zM0 0h1917.735v3.995H0zM199.473 1029.942H0v-3.995h195.478v-151.43h3.995zM195.478 323.451h3.995v433.746h-3.995zM199.473 206.696h-3.995V54.054H0v-3.996h199.473zM675.073 322.892h3.995v434.234h-3.995z"/><path d="M679.069 1029.942H280.123V50.058h398.946v156.638h-3.996V54.054H284.119v971.893h390.954V872.261h3.996zM1158.665 1029.942H759.719V50.058h398.946V205.85h-3.995V54.054H763.714v971.893h390.956V874.235h3.995z"/><path d="M1154.67 322.887h3.995v434.221h-3.995zM1241.312 52.056v975.888h394.951V52.056h-394.951zm140.597 724.542H1360.079c-23.424 0-42.412-21.473-42.412-47.962 0-26.489 18.989-47.962 42.412-47.962H1381.909c23.424 0 42.412 21.473 42.412 47.962.001 26.488-18.988 47.962-42.412 47.962z"/><path d="M1638.26 1029.942h-398.946V50.058h398.946v979.884zm-394.95-3.995h390.955V54.054H1243.31v971.893zm138.599-247.352h-21.83c-24.488 0-44.409-22.412-44.409-49.96 0-27.549 19.922-49.961 44.409-49.961h21.83c24.488 0 44.41 22.412 44.41 49.961 0 27.548-19.922 49.96-44.41 49.96zm-21.83-95.925c-22.284 0-40.414 20.62-40.414 45.965 0 25.345 18.13 45.964 40.414 45.964h21.83c22.285 0 40.415-20.619 40.415-45.964s-18.13-45.965-40.415-45.965h-21.83zM1917.735 1029.942H1718.91V50.058h198.825v3.996h-194.829v971.893h194.829zM238.891 1029.942a1.999 1.999 0 0 1-1.998-1.998V52.056a1.998 1.998 0 1 1 3.996 0v975.888a1.999 1.999 0 0 1-1.998 1.998zM719.394 1029.942a1.999 1.999 0 0 1-1.998-1.998V52.056a1.998 1.998 0 1 1 3.996 0v975.888a1.999 1.999 0 0 1-1.998 1.998zM1198.989 1029.942a1.999 1.999 0 0 1-1.998-1.998V52.056a1.998 1.998 0 1 1 3.996 0v975.888a1.999 1.999 0 0 1-1.998 1.998zM1678.586 1029.942a1.999 1.999 0 0 1-1.998-1.998V52.056a1.998 1.998 0 1 1 3.996 0v975.888a2 2 0 0 1-1.998 1.998zM576.255 939.687H382.936a1.998 1.998 0 0 1-1.998-1.998c0-18.906 15.381-34.288 34.287-34.288h128.741c18.906 0 34.287 15.381 34.287 34.288a1.997 1.997 0 0 1-1.998 1.998zm-191.256-3.995h189.193c-1.031-15.776-14.194-28.295-30.226-28.295H415.225c-16.031 0-29.195 12.519-30.226 28.295zM576.255 890.404H382.936a1.998 1.998 0 0 1-1.998-1.998c0-18.906 15.381-34.288 34.287-34.288h128.741c18.906 0 34.287 15.381 34.287 34.288a1.998 1.998 0 0 1-1.998 1.998zm-191.256-3.996h189.193c-1.031-15.776-14.194-28.295-30.226-28.295H415.225c-16.031.001-29.195 12.519-30.226 28.295zM576.255 841.119H382.936a1.998 1.998 0 0 1-1.998-1.998c0-18.905 15.381-34.287 34.287-34.287h128.741c18.906 0 34.287 15.381 34.287 34.287a1.997 1.997 0 0 1-1.998 1.998zm-191.256-3.995h189.193c-1.031-15.775-14.194-28.294-30.226-28.294H415.225c-16.031 0-29.195 12.519-30.226 28.294zM1055.852 939.687h-193.32a1.998 1.998 0 0 1-1.998-1.998c0-18.906 15.381-34.288 34.287-34.288h128.74c18.906 0 34.288 15.381 34.288 34.288a1.997 1.997 0 0 1-1.997 1.998zm-191.257-3.995h189.194c-1.031-15.776-14.194-28.295-30.227-28.295h-128.74c-16.033 0-29.196 12.519-30.227 28.295zM1055.852 890.404h-193.32a1.998 1.998 0 0 1-1.998-1.998c0-18.906 15.381-34.288 34.287-34.288h128.74c18.906 0 34.288 15.381 34.288 34.288a1.998 1.998 0 0 1-1.997 1.998zm-191.257-3.996h189.194c-1.031-15.776-14.194-28.295-30.227-28.295h-128.74c-16.033.001-29.196 12.519-30.227 28.295zM1055.852 841.119h-193.32a1.998 1.998 0 0 1-1.998-1.998c0-18.905 15.381-34.287 34.287-34.287h128.74c18.906 0 34.288 15.381 34.288 34.287a1.997 1.997 0 0 1-1.997 1.998zm-191.257-3.995h189.194c-1.031-15.775-14.194-28.294-30.227-28.294h-128.74c-16.033 0-29.196 12.519-30.227 28.294zM1055.852 315.202h-193.32a1.998 1.998 0 0 1-1.998-1.998c0-18.905 15.381-34.287 34.287-34.287h128.74c18.906 0 34.288 15.381 34.288 34.287a1.997 1.997 0 0 1-1.997 1.998zm-191.257-3.995h189.194c-1.031-15.775-14.194-28.294-30.227-28.294h-128.74c-16.033 0-29.196 12.519-30.227 28.294zM1055.852 265.919h-193.32a1.998 1.998 0 0 1-1.998-1.998c0-18.905 15.381-34.287 34.287-34.287h128.74c18.906 0 34.288 15.381 34.288 34.287a1.998 1.998 0 0 1-1.997 1.998zm-191.257-3.996h189.194c-1.031-15.775-14.194-28.294-30.227-28.294h-128.74c-16.033.001-29.196 12.519-30.227 28.294zM1055.852 216.635h-193.32a1.998 1.998 0 0 1-1.998-1.998c0-18.905 15.381-34.287 34.287-34.287h128.74c18.906 0 34.288 15.381 34.288 34.287a1.998 1.998 0 0 1-1.997 1.998zm-191.257-3.995h189.194c-1.031-15.775-14.194-28.294-30.227-28.294h-128.74c-16.033 0-29.196 12.518-30.227 28.294zM576.255 315.202H382.936a1.998 1.998 0 0 1-1.998-1.998c0-18.905 15.381-34.287 34.287-34.287h128.741c18.906 0 34.287 15.381 34.287 34.287a1.997 1.997 0 0 1-1.998 1.998zm-191.256-3.995h189.193c-1.031-15.775-14.194-28.294-30.226-28.294H415.225c-16.031 0-29.195 12.519-30.226 28.294zM576.255 265.919H382.936a1.998 1.998 0 0 1-1.998-1.998c0-18.905 15.381-34.287 34.287-34.287h128.741c18.906 0 34.287 15.381 34.287 34.287a1.998 1.998 0 0 1-1.998 1.998zm-191.256-3.996h189.193c-1.031-15.775-14.194-28.294-30.226-28.294H415.225c-16.031.001-29.195 12.519-30.226 28.294zM576.255 216.635H382.936a1.998 1.998 0 0 1-1.998-1.998c0-18.905 15.381-34.287 34.287-34.287h128.741c18.906 0 34.287 15.381 34.287 34.287a1.998 1.998 0 0 1-1.998 1.998zm-191.256-3.995h189.193c-1.031-15.775-14.194-28.294-30.226-28.294H415.225c-16.031 0-29.195 12.518-30.226 28.294z"/><path d="M1918.002 939.687h-81.05a1.998 1.998 0 0 1-1.998-1.998c0-18.906 15.381-34.288 34.288-34.288h48.225a1.998 1.998 0 1 1 0 3.996h-48.225c-16.033 0-29.196 12.518-30.227 28.295h78.987a1.998 1.998 0 1 1 0 3.995zM1918.002 890.404h-81.05a1.998 1.998 0 0 1-1.998-1.998c0-18.906 15.381-34.288 34.288-34.288h48.225a1.998 1.998 0 1 1 0 3.996h-48.225c-16.033 0-29.196 12.518-30.227 28.295h78.987a1.998 1.998 0 1 1 0 3.995zM1918.002 841.119h-81.05a1.998 1.998 0 0 1-1.998-1.998c0-18.905 15.381-34.287 34.288-34.287h48.225a1.998 1.998 0 1 1 0 3.996h-48.225c-16.033 0-29.196 12.518-30.227 28.294h78.987a1.998 1.998 0 1 1 0 3.995zM1918.002 315.202h-81.05a1.998 1.998 0 0 1-1.998-1.998c0-18.905 15.381-34.287 34.288-34.287h48.225a1.998 1.998 0 1 1 0 3.996h-48.225c-16.033 0-29.196 12.518-30.227 28.294h78.987a1.998 1.998 0 1 1 0 3.995zM1918.002 265.919h-81.05a1.998 1.998 0 0 1-1.998-1.998c0-18.905 15.381-34.287 34.288-34.287h48.225a1.998 1.998 0 1 1 0 3.996h-48.225c-16.033 0-29.196 12.518-30.227 28.294h78.987a1.998 1.998 0 1 1 0 3.995zM1918.002 216.635h-81.05a1.998 1.998 0 0 1-1.998-1.998c0-18.905 15.381-34.287 34.288-34.287h48.225a1.998 1.998 0 1 1 0 3.996h-48.225c-16.033 0-29.196 12.518-30.227 28.294h78.987a1.998 1.998 0 1 1 0 3.995zM.134 935.692h78.853c-1.031-15.776-14.194-28.295-30.226-28.295H0v-3.995h48.76c18.906 0 34.287 15.381 34.287 34.288a1.998 1.998 0 0 1-1.998 1.998H.134v-3.996zM.134 886.408h78.853c-1.031-15.776-14.194-28.295-30.226-28.295H.134v-3.995H48.76c18.906 0 34.287 15.381 34.287 34.288a1.998 1.998 0 0 1-1.998 1.998H.134v-3.996zM.134 837.124h78.853c-1.031-15.775-14.194-28.294-30.226-28.294H.134v-3.995H48.76c18.906 0 34.287 15.381 34.287 34.287a1.998 1.998 0 0 1-1.998 1.998H.134v-3.996zM.134 278.918H48.76c18.906 0 34.287 15.381 34.287 34.287a1.998 1.998 0 0 1-1.998 1.998H.134v-3.995h78.853c-1.031-15.775-14.194-28.294-30.226-28.294H.134v-3.996zM.134 229.634H48.76c18.906 0 34.287 15.381 34.287 34.287a1.998 1.998 0 0 1-1.998 1.998H.134v-3.995h78.853c-1.031-15.775-14.194-28.294-30.226-28.294H.134v-3.996zM.134 180.351H48.76c18.906 0 34.287 15.381 34.287 34.287a1.998 1.998 0 0 1-1.998 1.998H.134v-3.995h78.853c-1.031-15.775-14.194-28.294-30.226-28.294H.134v-3.996z"/><path fill="#FFF" d="M1918.002 150.292c-27.101 0-49.071-12.626-49.071-28.202s21.97-28.202 49.071-28.202"/><ellipse cx="479.596" cy="122.09" fill="#FFF" rx="49.071" ry="28.202"/><path fill="#FFF" d="M.134 93.888c27.101 0 49.071 12.626 49.071 28.202S27.235 150.292.134 150.292"/><ellipse cx="959.192" cy="122.09" fill="#FFF" rx="49.071" ry="28.202"/><path d="M457.176 132.471c0-.64.439-1.159 1.318-1.159 1.598 0 5.553.12 7.07.16v-18.416l-6.032 3.276c-.559.28-.998.44-1.398.44-.679 0-1.119-.48-1.119-1.159 0-.52.279-.919.999-1.279l7.15-3.514c.479-.24 1.118-.56 1.718-.56.719 0 1.118.519 1.118 1.399v19.813c1.199-.04 4.234-.16 5.473-.16.878 0 1.318.519 1.318 1.159 0 .639-.439 1.159-1.318 1.159h-14.98c-.878-.001-1.317-.52-1.317-1.159zM485.621 112.976l-1.238 7.751c1.838-1.079 3.835-1.918 6.271-1.918 4.914 0 8.349 3.115 8.349 7.55 0 4.394-3.475 7.83-9.028 7.83-3.915 0-6.991-1.638-8.548-3.315-.439-.48-.719-.879-.719-1.399a1.16 1.16 0 0 1 1.158-1.159c.519 0 .879.281 1.398.84 1.718 1.917 4.274 2.756 6.671 2.756 3.955 0 6.551-2.277 6.551-5.552 0-3.315-2.717-5.353-5.832-5.353-2.197 0-4.194.72-5.792 1.678-.759.48-1.198.759-1.758.759s-1.158-.359-1.158-1.118c0-.28.08-.64.159-1.199l1.478-9.227c.12-.639.519-1.078 1.278-1.078h12.024c.879 0 1.318.519 1.318 1.158s-.439 1.158-1.318 1.158c-1.557-.002-8.947-.121-11.264-.162zM937.737 132.471c0-.64.439-1.159 1.318-1.159 1.598 0 5.553.12 7.07.16v-18.416l-6.032 3.276c-.559.28-.998.44-1.398.44-.679 0-1.119-.48-1.119-1.159 0-.52.279-.919.999-1.279l7.15-3.514c.479-.24 1.118-.56 1.718-.56.719 0 1.118.519 1.118 1.399v19.813c1.199-.04 4.234-.16 5.473-.16.878 0 1.318.519 1.318 1.159 0 .639-.439 1.159-1.318 1.159h-14.98c-.878-.001-1.317-.52-1.317-1.159zM961.268 122.124c0-7.79 4.075-11.864 9.707-11.864 2.916 0 5.353 1.079 6.791 2.517.519.519.839.839.839 1.438 0 .679-.439 1.159-1.198 1.159-.56 0-.96-.359-1.519-.919-1.238-1.239-2.877-1.957-4.993-1.957-3.915 0-7.191 3.195-7.191 9.506 1.838-1.998 4.834-3.155 7.471-3.155 4.433 0 8.029 2.995 8.029 7.47 0 4.394-3.595 7.87-8.349 7.87-6.191-.001-9.587-5.194-9.587-12.065zm2.558 2.278c.638 4.793 3.314 7.55 7.03 7.55 3.395 0 5.873-2.597 5.873-5.633 0-3.116-2.478-5.272-5.593-5.272-2.597 0-5.314 1.316-7.31 3.355z"/><path fill="#FFD829" d="M1297.62 22.714V1056.77l339.776-29.807V52.522c-113.258-9.937-226.517-19.873-339.776-29.808zm83.095 753.884h-20.635c-23.424 0-42.412-21.473-42.412-47.962 0-26.489 18.989-47.962 42.412-47.962h20.635c23.424 0 42.412 21.473 42.412 47.962 0 26.488-18.989 47.962-42.412 47.962z"/><path d="M1295.622 1058.951V20.533l343.772 30.159v978.101l-343.772 30.158zm3.995-1034.056v1029.694l335.781-29.456V54.351l-335.781-29.456zm81.098 753.7h-20.636c-24.488 0-44.409-22.412-44.409-49.96 0-27.549 19.922-49.961 44.409-49.961h20.636c24.488 0 44.409 22.412 44.409 49.961.001 27.548-19.921 49.96-44.409 49.96zm-20.636-95.925c-22.284 0-40.414 20.62-40.414 45.965 0 25.345 18.13 45.964 40.414 45.964h20.636c22.284 0 40.414-20.619 40.414-45.964s-18.13-45.965-40.414-45.965h-20.636z"/><path d="M1384.351 956.932a1.996 1.996 0 0 1-1.998-1.997v-.146c-.553-16.448 11.423-35.885 29.492-37.372l.033-.003 110.997-7.292c.134-.006.272-.005.409-.006 7.587 0 14.795 3.154 20.328 8.902 6.182 6.423 9.48 15.164 9.048 23.981l.002.045c0 1.048-.81 1.918-1.855 1.993l-166.313 11.891c-.048.002-.096.004-.143.004zm1.998-1.998h.01-.01zm25.809-33.536c-15.138 1.255-25.382 17.137-25.813 31.391l162.353-11.608a28.513 28.513 0 0 0-7.964-19.393c-4.821-5.009-11.076-7.688-17.652-7.676l-110.924 7.286zM1384.351 905.479a1.996 1.996 0 0 1-1.997-1.997v-.146c-.561-16.467 11.42-35.81 29.511-37.129l.032-.002 110.997-6.308c.05-.003.1-.002.151-.003 7.687 0 14.994 3.222 20.58 9.076 6.169 6.464 9.462 15.229 9.035 24.049l.002.046a2 2 0 0 1-1.873 1.994l-166.313 10.417a2.607 2.607 0 0 1-.125.003zm1.998-1.998h.01-.01zm25.791-33.289c-15.143 1.113-25.381 16.91-25.796 31.162l162.353-10.17c-.097-7.22-2.948-14.202-7.962-19.458-4.82-5.051-11.094-7.833-17.671-7.838l-110.924 6.304zM1384.351 854.026a2 2 0 0 1-1.997-1.997v-.146c-.57-16.486 11.417-35.734 29.53-36.884l.031-.002 110.997-5.325c.038-.002.08-.005.111-.002 7.708.06 15.028 3.347 20.615 9.253 6.154 6.504 9.442 15.294 9.023 24.115l.002.048c0 1.061-.83 1.938-1.89 1.995l-166.313 8.944-.109.001zm1.998-1.998h.01-.01zm25.773-33.042c-15.148.971-25.381 16.683-25.78 30.934l162.354-8.73c-.104-7.226-2.954-14.231-7.96-19.523-4.819-5.095-11.1-7.936-17.69-8.003l-110.924 5.322zM1550.665 311.743l-.081-.002-166.313-6.781a1.997 1.997 0 0 1-1.917-1.996v-.146c-.378-9.459 3.551-19.556 10.256-26.275 5.494-5.504 12.243-8.244 19.475-7.997l.018.001 110.997 5.17c17.388.276 29.555 19.135 29.563 35.885v.143a1.996 1.996 0 0 1-1.998 1.998zm-164.335-10.697 162.277 6.616c-.868-14.369-11.154-29.722-25.633-29.952l-111.05-5.172c-7.693-.258-13.22 3.553-16.486 6.827-5.549 5.56-8.953 13.735-9.108 21.681zM1550.665 261.764l-.099-.003-166.313-8.255a1.997 1.997 0 0 1-1.898-1.995v-.146c-.382-9.456 3.553-19.526 10.273-26.2 5.502-5.463 12.247-8.18 19.478-7.827a.086.086 0 0 0 .016.001l110.997 6.154c17.369.442 29.531 19.395 29.545 36.128v.144a2.002 2.002 0 0 1-1.999 1.999zm-164.336-12.154 162.276 8.055c-.882-14.373-11.173-29.81-25.649-30.179l-111.047-6.156c-7.699-.344-13.202 3.429-16.467 6.672-5.558 5.519-8.965 13.668-9.113 21.608zM1550.665 211.785l-.117-.003-166.313-9.73a1.997 1.997 0 0 1-1.881-1.994v-.146c-.387-9.454 3.555-19.496 10.292-26.123 5.508-5.422 12.251-8.068 19.478-7.657l.015.001 110.997 7.137c17.352.608 29.507 19.657 29.528 36.372v.145a1.997 1.997 0 0 1-1.999 1.998zm-164.337-13.612 162.275 9.493c-.895-14.375-11.194-29.898-25.667-30.405l-111.046-7.14c-7.68-.437-13.179 3.303-16.444 6.516-5.568 5.479-8.978 13.602-9.118 21.536z"/><path fill="#FFF" d="M1509.724 112.858c.014 20.959-26.677 26.207-42.217 25.85-16.463-.379-41.643-11.811-42.216-32.193-.599-21.325 27.668-26.334 42.216-25.85 16.263.541 42.204 12.315 42.217 32.193z"/><path d="M1449.88 119.076c0-.66.379-1.168 1.135-1.112 1.375.101 4.778.475 6.085.612V99.585c-2.076 1.192-3.115 1.788-5.191 2.982-.481.252-.859.388-1.203.362-.585-.045-.963-.568-.963-1.269 0-.536.241-.93.859-1.254 2.462-1.263 3.692-1.894 6.154-3.154.413-.215.963-.503 1.478-.463.619.048.963.609.963 1.515v20.425c1.031.035 3.644.103 4.71.182.756.056 1.135.618 1.135 1.276s-.379 1.166-1.135 1.11l-12.891-.942c-.757-.055-1.136-.619-1.136-1.279zM1486.247 100.715c0 .574-.206 1.009-.481 1.562-3.823 7.643-5.734 11.47-9.557 19.14-.447.87-.825 1.295-1.409 1.252-.653-.048-.997-.689-.997-1.223 0-.534.206-.93.447-1.405a13606.05 13606.05 0 0 1 9.591-18.486c-3.472-.225-10.073-.609-12.135-.767-.756-.058-1.134-.622-1.134-1.279s.343-1.165 1.134-1.104l13.441 1.037c.757.058 1.1.617 1.1 1.273zM1894.985 132.471c0-.64.439-1.159 1.318-1.159 1.598 0 5.553.12 7.071.16v-18.416l-6.032 3.276c-.559.28-.999.44-1.398.44-.68 0-1.119-.48-1.119-1.159 0-.52.279-.919.999-1.279l7.15-3.514c.48-.24 1.119-.56 1.718-.56.719 0 1.119.519 1.119 1.399v19.813c1.199-.04 4.234-.16 5.473-.16.878 0 1.318.519 1.318 1.159 0 .639-.44 1.159-1.318 1.159h-14.98c-.88-.001-1.319-.52-1.319-1.159zM24.238 127.717c0 .64-.439 1.079-1.318 1.079h-3.315v3.915c0 .958-.519 1.478-1.278 1.478-.719 0-1.198-.52-1.198-1.478v-3.915H4.944c-.759 0-1.238-.559-1.238-1.198 0-.52.24-.839.599-1.279l12.823-15.299c.439-.519.759-.759 1.238-.759.679 0 1.238.32 1.238 1.278v15.099h3.315c.88 0 1.319.44 1.319 1.079zm-17.456-1.079h10.466v-12.343L6.782 126.638zM676.574 324.89h-.005c-9.186 0-16.66-7.474-16.66-16.66v-87.525c0-9.186 7.474-16.661 16.66-16.661 9.191 0 16.665 7.475 16.665 16.661v87.525c0 9.186-7.474 16.66-16.66 16.66zm0-116.85c-6.988 0-12.67 5.682-12.67 12.666v87.525c0 6.983 5.681 12.665 12.665 12.665h.005c6.983 0 12.665-5.682 12.665-12.665v-87.525c0-6.985-5.682-12.666-12.665-12.666zM676.574 875.955h-.005c-9.186 0-16.66-7.474-16.66-16.66V771.77c0-9.186 7.474-16.66 16.66-16.66 8.909 0 16.495 7.057 17.649 16.415l.015.245v87.647l-.015.122c-1.154 9.359-8.739 16.416-17.644 16.416zm0-116.849c-6.988 0-12.67 5.682-12.67 12.665v87.525c0 6.983 5.681 12.665 12.665 12.665h.005c6.854 0 12.708-5.491 13.664-12.791v-87.273c-.956-7.301-6.81-12.791-13.664-12.791zM1156.669 324.89h-.005c-9.186 0-16.66-7.474-16.66-16.66v-87.525c0-9.186 7.474-16.661 16.66-16.661 9.191 0 16.665 7.475 16.665 16.661v87.525c0 9.186-7.474 16.66-16.66 16.66zm0-116.85c-6.988 0-12.67 5.682-12.67 12.666v87.525c0 6.983 5.682 12.665 12.665 12.665h.005c6.983 0 12.665-5.682 12.665-12.665v-87.525c0-6.985-5.682-12.666-12.665-12.666zM1156.669 875.955h-.005c-9.186 0-16.66-7.474-16.66-16.66V771.77c0-9.186 7.474-16.66 16.66-16.66 9.191 0 16.665 7.474 16.665 16.66v87.525c0 9.186-7.474 16.66-16.66 16.66zm0-116.849c-6.988 0-12.67 5.682-12.67 12.665v87.525c0 6.983 5.682 12.665 12.665 12.665h.005c6.983 0 12.665-5.682 12.665-12.665V771.77c0-6.983-5.682-12.664-12.665-12.664z"/><path fill="#FFD829" d="M1636.263 322.892c-8.099 0-14.665-6.566-14.665-14.665v-87.52c0-8.099 6.566-14.665 14.665-14.665s14.665 6.566 14.665 14.665v87.52c0 8.099-6.566 14.665-14.665 14.665z"/><path d="M1636.265 324.89h-.004c-9.186 0-16.661-7.474-16.661-16.66v-87.525c0-9.186 7.475-16.661 16.661-16.661 9.19 0 16.665 7.475 16.665 16.661v87.525c0 9.186-7.475 16.66-16.661 16.66zm0-116.85c-6.988 0-12.67 5.682-12.67 12.666v87.525c0 6.983 5.682 12.665 12.666 12.665h.004c6.984 0 12.666-5.682 12.666-12.665v-87.525c0-6.985-5.682-12.666-12.666-12.666z"/><path fill="#FFD829" d="M1636.263 873.958c-8.099 0-14.665-6.566-14.665-14.665v-87.52c0-8.099 6.566-14.665 14.665-14.665s14.665 6.566 14.665 14.665v87.52c0 8.099-6.566 14.665-14.665 14.665z"/><path d="M1636.265 875.955h-.004c-9.186 0-16.661-7.474-16.661-16.66V771.77c0-9.186 7.475-16.66 16.661-16.66 9.19 0 16.665 7.474 16.665 16.66v87.525c0 9.186-7.475 16.66-16.661 16.66zm0-116.849c-6.988 0-12.67 5.682-12.67 12.665v87.525c0 6.983 5.682 12.665 12.666 12.665h.004c6.984 0 12.666-5.682 12.666-12.665V771.77c0-6.983-5.682-12.664-12.666-12.664zM197.478 324.89h-.005c-9.186 0-16.66-7.474-16.66-16.66v-87.525c0-9.186 7.474-16.661 16.66-16.661 9.191 0 16.665 7.475 16.665 16.661v87.525c0 9.186-7.474 16.66-16.66 16.66zm0-116.85c-6.988 0-12.67 5.682-12.67 12.666v87.525c0 6.983 5.681 12.665 12.665 12.665h.005c6.983 0 12.665-5.682 12.665-12.665v-87.525c-.001-6.985-5.682-12.666-12.665-12.666zM197.478 875.955h-.005c-9.186 0-16.66-7.474-16.66-16.66V771.77c0-9.186 7.474-16.66 16.66-16.66 9.191 0 16.665 7.474 16.665 16.66v87.525c0 9.186-7.474 16.66-16.66 16.66zm0-116.849c-6.988 0-12.67 5.682-12.67 12.665v87.525c0 6.983 5.681 12.665 12.665 12.665h.005c6.983 0 12.665-5.682 12.665-12.665V771.77c-.001-6.983-5.682-12.664-12.665-12.664z"/><path fill="#FFF" d="M347.979 771.393c-27.51 0-49.891-22.381-49.891-49.891 0-27.51 22.381-49.891 49.891-49.891 27.51 0 49.891 22.381 49.891 49.891 0 27.51-22.381 49.891-49.891 49.891zm0-95.787c-25.307 0-45.896 20.589-45.896 45.896s20.589 45.896 45.896 45.896c25.307 0 45.896-20.589 45.896-45.896s-20.589-45.896-45.896-45.896z"/><path fill="#FFF" d="M373.815 680.381h-3.995v-34.433c0-12.042-9.798-21.84-21.84-21.84s-21.84 9.798-21.84 21.84v33.346h-3.995v-33.346c0-14.246 11.59-25.836 25.836-25.836 14.246 0 25.836 11.59 25.836 25.836v34.433z"/><path d="M347.979 736.182a1.998 1.998 0 0 1-1.998-1.998v-25.366a1.998 1.998 0 1 1 3.996 0v25.366a1.998 1.998 0 0 1-1.998 1.998z"/><path fill="#FFD829" d="M347.981 664.042h-.003c-6.073 0-10.997-4.924-10.997-10.997v-226.09c0-6.073 4.924-10.997 10.997-10.997h.003c6.073 0 10.997 4.924 10.997 10.997v226.089c0 6.074-4.924 10.998-10.997 10.998z"/><path d="M347.981 666.039h-.003c-7.165 0-12.994-5.829-12.994-12.994V426.956c0-7.165 5.829-12.995 12.994-12.995 7.169 0 12.998 5.83 12.998 12.995v226.088c0 7.166-5.83 12.995-12.995 12.995zm0-248.083c-4.965 0-9.003 4.037-9.003 9v226.088c0 4.962 4.037 8.999 8.999 8.999h.003c4.962 0 9-4.037 9-8.999V426.956c0-4.963-4.037-9-8.999-9z"/><path fill="#FFF" d="M855.061 678.208h-3.995v-32.26c0-12.042-9.798-21.84-21.84-21.84-12.043 0-21.84 9.798-21.84 21.84v32.26h-3.995v-32.26c0-14.246 11.59-25.836 25.836-25.836 14.246 0 25.836 11.59 25.836 25.836v32.26z"/><path fill="#FFF" d="M841.011 763.919h-23.74c-18.908 0-34.291-15.382-34.291-34.291v-53.942h92.322v53.942c0 18.909-15.383 34.291-34.291 34.291zm-54.035-84.237v49.947c0 16.705 13.59 30.295 30.296 30.295h23.74c16.705 0 30.296-13.59 30.296-30.295v-49.947h-84.332z"/><path d="M830.286 733.463a1.998 1.998 0 0 1-1.998-1.998V708.14a1.998 1.998 0 1 1 3.996 0v23.325a1.999 1.999 0 0 1-1.998 1.998z"/><path fill="#FFD829" d="M830.287 664.042h-.003c-6.073 0-10.997-4.924-10.997-10.997v-226.09c0-6.073 4.924-10.997 10.997-10.997h.003c6.073 0 10.997 4.924 10.997 10.997v226.089c0 6.074-4.923 10.998-10.997 10.998z"/><path d="M830.287 666.039h-.004c-7.165 0-12.994-5.829-12.994-12.994V426.956c0-7.165 5.829-12.995 12.994-12.995 7.169 0 12.998 5.83 12.998 12.995v226.088c.001 7.166-5.828 12.995-12.994 12.995zm0-248.083c-4.966 0-9.003 4.037-9.003 9v226.088c0 4.962 4.037 8.999 8.999 8.999h.004c4.962 0 8.999-4.037 8.999-8.999V426.956c.001-4.963-4.037-9-8.999-9zM1380.906 778.595c-24.488 0-44.41-22.412-44.41-49.96s19.922-49.96 44.41-49.96 44.41 22.412 44.41 49.96a1.998 1.998 0 1 1-3.996 0c0-25.345-18.13-45.964-40.415-45.964-22.284 0-40.414 20.619-40.414 45.964s18.13 45.964 40.414 45.964c4.959 0 9.802-1.01 14.395-3.002a1.997 1.997 0 1 1 1.59 3.666 39.925 39.925 0 0 1-15.984 3.332z"/><path d="M1380.906 778.595h-20.827c-24.488 0-44.409-22.412-44.409-49.96s19.922-49.96 44.409-49.96h20.827a1.998 1.998 0 1 1 0 3.996h-20.827c-22.284 0-40.414 20.619-40.414 45.964s18.13 45.964 40.414 45.964h20.827a1.998 1.998 0 1 1 0 3.996z"/><path fill="#FFF" d="M1344.958 693.036a1.998 1.998 0 0 1-1.998-1.998v-38.064c0-14.264 11.605-25.87 25.87-25.87s25.87 11.605 25.87 25.87v29.043a1.998 1.998 0 1 1-3.996 0v-29.043c0-12.062-9.813-21.875-21.875-21.875s-21.875 9.813-21.875 21.875v38.064a1.996 1.996 0 0 1-1.996 1.998zM1425.49 796.309a3.994 3.994 0 0 1-3.036-4.764 3.994 3.994 0 0 1 4.764-3.036 3.988 3.988 0 0 1 3.036 4.764 3.988 3.988 0 0 1-3.895 3.126 4.354 4.354 0 0 1-.869-.09zm2.027-9.788a3.991 3.991 0 0 1-3.565-4.375 4.008 4.008 0 0 1 4.385-3.576 4.007 4.007 0 0 1 3.566 4.384 3.996 3.996 0 0 1-3.976 3.587c-.13 0-.269 0-.41-.02zm.909-9.949a3.994 3.994 0 0 1-3.975-4.015 3.989 3.989 0 0 1 4.015-3.976 4.001 4.001 0 0 1 3.976 4.016 3.996 3.996 0 0 1-3.995 3.975h-.021zm-4.334-13.663a3.982 3.982 0 0 1 3.666-4.295 4 4 0 0 1 4.295 3.675 3.992 3.992 0 0 1-3.675 4.285c-.099.01-.21.019-.309.019a3.984 3.984 0 0 1-3.977-3.684zm-1.119-9.639c-.319-2.187 1.179-4.224 3.356-4.544a3.997 3.997 0 0 1 4.554 3.346 4.009 4.009 0 0 1-3.355 4.555c-.21.029-.41.04-.61.04a4.01 4.01 0 0 1-3.945-3.397zm-1.768-9.559a3.99 3.99 0 0 1 3.036-4.764 3.994 3.994 0 0 1 4.764 3.036 4.004 4.004 0 0 1-3.036 4.764c-.29.06-.579.1-.869.1a3.986 3.986 0 0 1-3.895-3.136zm-2.447-9.279a3.993 3.993 0 0 1 2.537-5.044 3.999 3.999 0 0 1 5.054 2.527v.01a3.992 3.992 0 0 1-2.537 5.044c-.419.14-.839.21-1.258.21a4.01 4.01 0 0 1-3.796-2.747z"/><path fill="#FFD829" d="M1368.891 664.042h-.004c-6.073 0-10.997-4.924-10.997-10.997v-226.09c0-6.073 4.923-10.997 10.997-10.997h.004c6.073 0 10.997 4.924 10.997 10.997v226.089c0 6.074-4.924 10.998-10.997 10.998z"/><path d="M1368.891 666.039h-.004c-7.165 0-12.994-5.829-12.994-12.994V426.956c0-7.165 5.829-12.995 12.994-12.995 7.169 0 12.998 5.83 12.998 12.995v226.088c0 7.166-5.828 12.995-12.994 12.995zm0-248.083c-4.966 0-9.003 4.037-9.003 9v226.088c0 4.962 4.037 8.999 8.999 8.999h.004c4.962 0 8.999-4.037 8.999-8.999V426.956c0-4.963-4.037-9-8.999-9z"/><path fill="#FFF" d="M1812.835 675.693h-3.995V644.03c0-10.985-8.938-19.923-19.923-19.923-10.985 0-19.923 8.938-19.923 19.923v30.664h-3.995V644.03c0-13.189 10.729-23.918 23.918-23.918s23.918 10.729 23.918 23.918v31.663z"/><path fill="#FFD829" d="M1788.841 664.042h-.004c-6.073 0-10.997-4.924-10.997-10.997v-226.09c0-6.073 4.923-10.997 10.997-10.997h.004c6.073 0 10.997 4.924 10.997 10.997v226.089c0 6.074-4.923 10.998-10.997 10.998z"/><path d="M1788.841 666.039h-.004c-7.165 0-12.994-5.829-12.994-12.994V426.956c0-7.165 5.829-12.995 12.994-12.995 7.169 0 12.998 5.83 12.998 12.995v226.088c.001 7.166-5.828 12.995-12.994 12.995zm0-248.083c-4.966 0-9.003 4.037-9.003 9v226.088c0 4.962 4.037 8.999 8.999 8.999h.004c4.962 0 8.999-4.037 8.999-8.999V426.956c.001-4.963-4.037-9-8.999-9zM1410.507 712.555c-6.984 0-13.029 3.974-16.03 9.777h-11.425v17.015h11.669c3.079 5.548 8.991 9.307 15.786 9.307 9.969 0 18.049-8.081 18.049-18.049s-8.081-18.05-18.049-18.05z"/><path d="M1383.051 745.199a1.998 1.998 0 0 1-1.998-1.998v-23.325a1.999 1.999 0 0 1 3.996 0v23.325a1.998 1.998 0 0 1-1.998 1.998z"/><path fill="#FFF" d="M1788.839 759.106c-31.29 0-48.487-44.772-48.487-59.611 0-14.945 12.159-27.104 27.105-27.104 8.47 0 16.266 3.855 21.382 10.444 5.116-6.589 12.911-10.444 21.382-10.444 14.945 0 27.104 12.159 27.104 27.104 0 14.369-14.587 59.611-48.486 59.611zm-21.381-82.72c-12.743 0-23.109 10.367-23.109 23.108 0 13.408 16.269 55.616 44.491 55.616 30.622 0 44.49-42.662 44.49-55.616 0-12.742-10.367-23.108-23.109-23.108-8.076 0-15.434 4.111-19.682 10.998l-1.7 2.757-1.7-2.757c-4.248-6.887-11.605-10.998-19.681-10.998z"/><path d="M1788.839 730.541a1.998 1.998 0 0 1-1.998-1.998v-23.326a1.999 1.999 0 0 1 3.996 0v23.326a1.998 1.998 0 0 1-1.998 1.998z"/><path fill="#FFF" fill-rule="evenodd" d="M471.31 418.289c8.502-18.423 30.33-26.466 48.753-17.963l89.132 41.134c18.423 8.502 26.466 30.33 17.963 48.753l-41.135 89.132c-8.502 18.423-30.33 26.466-48.753 17.963l-89.132-41.134c-18.423-8.502-26.466-30.33-17.963-48.753l41.135-89.132z" clip-rule="evenodd"/><path fill="#FFD829" d="M480.43 525.278c.158 1.916.08 3.918-.394 5.697l-3.52 9.042 56.519 26.084 4.777-10.089c.193-.225 4.053-4.761 9.165-7.807a18.138 18.138 0 0 0 9.443-10.304l6.986-15.57 8.739-19.477 3-6.952.006-.007a9.477 9.477 0 0 0-17.291-7.759 9.9 9.9 0 0 0-.321.829l-2.683 6.136-.073-.034 3.29-7.484 2.635-5.851c2.102-5.582-1.41-12.058-8.043-12.792-3.993-.442-7.782 1.919-9.453 5.572-.301.658 6.312-13.665 6.217-13.383l-11.936 26.184-.072-.033 12.295-26.983 5.144-11.175-.163.348c2.141-4.774.174-10.738-4.6-12.882-4.773-2.144-10.38-.009-12.522 4.765-.124.275-5.412 11.71-5.506 11.987l-11.937 26.184-.072-.034 9.039-36.036c1.374-4.499-.776-9.42-5.18-11.398a9.433 9.433 0 0 0-3.003-.79c-4.408-.406-8.414 2.622-9.637 6.876l-11.722 40.767-.009-.002c-2.594-.742-5.344.433-6.318 2.949l-10.669 27.554c-1.955 5.045-2.575 10.474-2.131 15.868z"/><path d="M533.035 567.599a1.49 1.49 0 0 1-.627-.138l-56.519-26.083a1.5 1.5 0 0 1-.769-1.904l3.489-8.962c.372-1.442.485-3.206.329-5.111-.486-5.902.263-11.465 2.225-16.535l10.67-27.553c1.051-2.711 3.76-4.314 6.655-4.108l11.352-39.477c1.458-5.073 6.163-8.411 11.214-7.955 1.202.112 2.372.42 3.478.917 5.03 2.258 7.609 7.934 6 13.202l-5.133 20.466 5.298-11.621c.148-.352.835-1.865 4.805-10.467l.708-1.534a10.903 10.903 0 0 1 6.107-5.76 10.903 10.903 0 0 1 8.395.246c5.228 2.348 7.694 8.759 5.604 14.255a1.465 1.465 0 0 1-.095.272l-5.299 11.517a1.49 1.49 0 0 1-.13.485l-2.897 6.356a10.418 10.418 0 0 1 4.936-.655c3.524.39 6.57 2.287 8.359 5.203a10.9 10.9 0 0 1 1.043 9.263 10.942 10.942 0 0 1 8.763.088c5.521 2.479 7.997 8.985 5.522 14.505-.014.03-.028.06-.044.09l-2.953 6.849-15.71 35.016c-1.757 4.841-5.444 8.868-10.13 11.067-4.376 2.624-7.835 6.432-8.602 7.308l-4.689 9.903a1.5 1.5 0 0 1-1.355.855zm-54.611-28.351 53.892 24.871 4.142-8.747c.057-.121.13-.233.217-.335.716-.836 4.514-5.127 9.536-8.119.044-.025.09-.05.137-.071 4.017-1.864 7.175-5.309 8.664-9.452.013-.036.027-.071.043-.106l15.724-35.047 2.991-6.933a1.68 1.68 0 0 1 .055-.113c1.75-3.95-.052-8.661-4.055-10.457-4.012-1.795-8.741.002-10.543 4.012-.101.228-.19.464-.27.7-.014.039-.028.078-.045.115l-2.683 6.135a1.498 1.498 0 0 1-2.007.758c-.738-.344-1.139-1.25-.811-1.995l3.29-7.483 2.64-5.863c.837-2.233.594-4.779-.706-6.897-1.32-2.153-3.499-3.499-6.135-3.79-2.818-.32-5.657 1.117-7.287 3.56l-6.357 13.944a1.497 1.497 0 0 1-1.989.74c-.75-.345-1.152-1.265-.81-2.016l5.7-12.51c.022-.088.053-.175.092-.259.023-.052.047-.102.071-.153l.65-1.406.983-2.124 9.751-21.292.024-.057c1.856-4.141.095-9.133-3.847-10.903a7.93 7.93 0 0 0-6.101-.178 7.925 7.925 0 0 0-4.441 4.189l-.719 1.56c-1.247 2.703-4.561 9.883-4.76 10.362l-11.968 26.257a1.498 1.498 0 0 1-2.004.733c-.647-.306-1.059-1.06-.885-1.754l9.04-36.036c1.19-3.901-.686-8.025-4.341-9.666a7.963 7.963 0 0 0-2.527-.666c-3.615-.324-6.998 2.108-8.059 5.799l-11.723 40.766c-.223.779-1.085 1.251-1.866 1.023-1.903-.544-3.839.336-4.503 2.051l-10.67 27.553c-1.798 4.643-2.482 9.76-2.033 15.207.19 2.31.041 4.397-.44 6.206a1.454 1.454 0 0 1-.051.158l-3.006 7.729z"/><path fill="#FFD829" d="m421.303 420.226-6.783-12.401-12.4-6.782 12.4-6.782 6.783-12.401 6.782 12.401 12.401 6.782-12.401 6.782zM479.596 728.002l-6.782-12.401-12.401-6.782 12.401-6.782 6.782-12.401 6.782 12.401 12.401 6.782-12.401 6.782zM611.365 401.47l-6.782-12.401-12.401-6.782 12.401-6.783 6.782-12.401 6.783 12.401 12.4 6.783-12.4 6.782z"/><path fill="#FFF" d="M1411.167 978.074c-22.297 0-40.372-18.075-40.372-40.372V831.119c0-22.296 18.076-40.372 40.372-40.372h12.919c22.297 0 40.372 18.076 40.372 40.372v106.584c0 22.296-18.075 40.372-40.372 40.372h-12.919z"/><path d="M1422.363 958.126h-22.48c-1.429 0-2.208-.78-2.208-1.949 0-1.171.779-2.015 2.208-2.015h22.48c7.472 0 10.526-3.248 10.526-8.51 0-5.393-3.054-8.641-10.526-8.641h-22.48c-1.429 0-2.208-.78-2.208-1.949 0-1.17.779-2.015 2.208-2.015h22.48c8.836 0 14.229 4.094 14.229 12.605 0 8.382-5.393 12.474-14.229 12.474zM1417.101 928.757c-10.916 0-19.426-5.002-19.426-14.617 0-9.617 8.51-14.619 19.426-14.619 10.98 0 19.492 5.003 19.492 14.619-.001 9.615-8.512 14.617-19.492 14.617zm0-25.209c-9.031 0-15.724 3.899-15.724 10.591 0 6.691 6.692 10.589 15.724 10.589 9.03 0 15.788-3.898 15.788-10.589 0-6.692-6.758-10.591-15.788-10.591zm0 13.969c-1.819 0-3.184-1.429-3.184-3.378 0-1.95 1.365-3.379 3.184-3.379 1.819 0 3.184 1.429 3.184 3.379 0 1.949-1.365 3.378-3.184 3.378zM1435.423 894.775c-.91 0-1.755-.715-1.755-1.755 0-.389.13-1.104.13-1.559 0-2.08-2.728-4.548-4.678-5.913-2.989 2.794-6.822 5.848-11.045 5.848-4.873 0-8.316-3.704-8.316-8.836 0-5.133 3.443-8.836 8.316-8.836 4.223 0 8.056 3.054 11.045 5.848 1.95-1.365 4.678-3.833 4.678-5.912 0-.456-.13-1.17-.13-1.56 0-1.04.845-1.754 1.755-1.754 1.494 0 1.949 1.429 1.949 3.053 0 4.419-2.729 7.017-5.652 9.161 2.923 2.144 5.652 4.743 5.652 9.161 0 1.625-.455 3.054-1.949 3.054zM1417.101 865.732c-10.916 0-19.426-5.003-19.426-14.618s8.51-14.618 19.426-14.618c10.98 0 19.492 5.003 19.492 14.618s-8.512 14.618-19.492 14.618zm0-25.21c-9.031 0-15.724 3.899-15.724 10.591 0 6.692 6.692 10.59 15.724 10.59 9.03 0 15.788-3.898 15.788-10.59s-6.758-10.591-15.788-10.591zm0 13.969c-1.819 0-3.184-1.429-3.184-3.378s1.365-3.379 3.184-3.379c1.819 0 3.184 1.43 3.184 3.379s-1.365 3.378-3.184 3.378zM1422.363 832.075h-22.48c-1.429 0-2.208-.78-2.208-1.949s.779-2.014 2.208-2.014h22.48c7.472 0 10.526-3.249 10.526-8.511 0-5.393-3.054-8.641-10.526-8.641h-22.48c-1.429 0-2.208-.78-2.208-1.95 0-1.169.779-2.013 2.208-2.013h22.48c8.836 0 14.229 4.093 14.229 12.604 0 8.38-5.393 12.474-14.229 12.474z"/><path fill="#FFF" d="M1408.37 799.276c-.439-2.158.949-4.275 3.116-4.704a3.97 3.97 0 0 1 4.704 3.115v-.01a3.982 3.982 0 0 1-3.106 4.714c-.27.06-.539.08-.81.08a3.989 3.989 0 0 1-3.904-3.195zm-1.828-9.988a3.998 3.998 0 0 1 3.316-4.575 3.99 3.99 0 0 1 4.575 3.306 3.994 3.994 0 0 1-3.306 4.584 4.005 4.005 0 0 1-4.585-3.315zm-1.368-10.089h-.011a4.01 4.01 0 0 1 3.536-4.415 4.008 4.008 0 0 1 4.415 3.536 3.993 3.993 0 0 1-3.525 4.405c-.15.02-.31.03-.45.03a3.997 3.997 0 0 1-3.965-3.556zm-.869-10.158a3.998 3.998 0 0 1 3.755-4.224 4.006 4.006 0 0 1 4.224 3.765 4.004 4.004 0 0 1-3.765 4.215c-.07 0-.15.011-.23.011a3.996 3.996 0 0 1-3.984-3.767zm3.696-6.222a3.995 3.995 0 0 1-3.976-4.016 3.993 3.993 0 0 1 4.015-3.975 3.995 3.995 0 0 1-.019 7.991h-.02zm.119-9.988a3.986 3.986 0 0 1-3.666-4.305 3.995 3.995 0 0 1 4.305-3.656 4.004 4.004 0 0 1 3.666 4.305 4.007 4.007 0 0 1-3.986 3.666c-.109 0-.218 0-.319-.01zm.869-9.948a4 4 0 0 1-3.226-4.645 3.995 3.995 0 0 1 4.644-3.227 3.99 3.99 0 0 1 3.217 4.645 3.99 3.99 0 0 1-3.926 3.286c-.229 0-.469-.02-.709-.059zm1.668-9.91a3.99 3.99 0 0 1-2.127-5.233 3.99 3.99 0 0 1 5.234-2.127 4.006 4.006 0 0 1 2.127 5.233 4.005 4.005 0 0 1-3.685 2.447c-.52 0-1.049-.099-1.549-.32z"/><path d="m572.667 552.656 7.784 35.883 36.385-4.935-23.201 28.459 26.544 25.37-36.716-.396-3.286 36.571-22.582-28.952-30.641 20.232 8.556-35.707-34.923-11.341 33.252-15.573-12.907-34.375 32.908 16.287z"/><path fill="#FFF" d="M1119.352 670.547a2.003 2.003 0 0 1-1.948-2.047 2.005 2.005 0 0 1 2.047-1.948 1.998 1.998 0 0 1 1.948 2.048 1.99 1.99 0 0 1-1.988 1.947h-.059zm8.04-2.247a1.995 1.995 0 0 1 1.728-2.237 1.997 1.997 0 0 1 2.228 1.737 1.99 1.99 0 0 1-1.728 2.228c-.09.01-.17.019-.25.019a1.984 1.984 0 0 1-1.978-1.747zm-18.259 1.259v-.011a1.983 1.983 0 0 1-1.628-2.297 1.99 1.99 0 0 1 2.297-1.638 2.001 2.001 0 0 1-.329 3.975c-.109 0-.22-.009-.34-.029zm28.087-2.977a1.998 1.998 0 0 1 3.836-1.119 1.999 1.999 0 0 1-1.358 2.478 1.997 1.997 0 0 1-2.478-1.359zm-38.065.46a2.001 2.001 0 0 1-1.228-2.547 2.01 2.01 0 0 1 2.547-1.229 2.012 2.012 0 0 1 1.229 2.548 2.001 2.001 0 0 1-1.888 1.338c-.22 0-.449-.04-.66-.11zm47.484-3.736a2 2 0 0 1 .92-2.667 2 2 0 0 1 2.677.909c.479.989.07 2.188-.919 2.677-.28.13-.579.199-.879.199-.74 0-1.449-.409-1.799-1.118zm-56.842-.879a1.996 1.996 0 0 1-.539-2.776 1.982 1.982 0 0 1 2.766-.539 1.998 1.998 0 0 1-1.119 3.655 1.984 1.984 0 0 1-1.108-.34zm65.562-3.985a1.995 1.995 0 0 1 .41-2.797 2.007 2.007 0 0 1 2.797.41c.65.89.469 2.138-.41 2.797-.359.27-.779.4-1.199.4a1.982 1.982 0 0 1-1.598-.81zm-73.293-3.167a1.997 1.997 0 0 1 .32-2.806 2.01 2.01 0 0 1 2.816.32c.68.869.539 2.118-.33 2.806-.37.29-.809.44-1.238.44-.59 0-1.169-.26-1.568-.76zM1163 652.04a2.005 2.005 0 0 1-.141-2.827 1.994 1.994 0 0 1 2.817-.141c.819.739.889 1.998.149 2.817-.399.44-.938.659-1.488.659a2 2 0 0 1-1.337-.508zm-86.288-5.724a1.982 1.982 0 0 1 .999-2.637 1.99 1.99 0 0 1 2.638.989 2 2 0 0 1-.989 2.646 1.991 1.991 0 0 1-2.648-.998zm92.52-2.078a2.003 2.003 0 0 1-.709-2.736v.01a2.005 2.005 0 0 1 2.747-.709 2.007 2.007 0 0 1 .699 2.736c-.37.63-1.039.979-1.727.979-.341 0-.69-.089-1.01-.28zm-96.056-7.52a1.992 1.992 0 0 1 1.319-2.497 1.989 1.989 0 0 1 2.497 1.318 1.992 1.992 0 0 1-1.319 2.497c-.2.06-.389.09-.589.09a2.007 2.007 0 0 1-1.908-1.408zm100.612-1.349a1.997 1.997 0 0 1-1.219-2.547 2.004 2.004 0 0 1 2.548-1.229 2.003 2.003 0 0 1 1.218 2.557v-.01a1.99 1.99 0 0 1-1.887 1.338 2.128 2.128 0 0 1-.66-.109zm-103.439-8.26h.011a1.993 1.993 0 0 1 1.338-2.487 2.002 2.002 0 0 1 2.486 1.348 2.002 2.002 0 0 1-1.348 2.487c-.189.06-.379.08-.57.08a2.005 2.005 0 0 1-1.917-1.428zm106.245-1.319a1.993 1.993 0 0 1-1.567-2.358 2 2 0 0 1 2.357-1.558 1.997 1.997 0 0 1 1.559 2.358 1.989 1.989 0 0 1-1.958 1.598c-.132 0-.261-.009-.391-.04zm-109.371-7.971a2.003 2.003 0 0 1 1.109-2.597 2.003 2.003 0 0 1 2.597 1.109v.01a2.001 2.001 0 0 1-1.108 2.596c-.25.091-.499.141-.749.141a1.993 1.993 0 0 1-1.849-1.259zm111.089-1.867a1.995 1.995 0 0 1-1.767-2.198v-.01a1.992 1.992 0 0 1 2.207-1.759 1.997 1.997 0 0 1 1.768 2.198 1.999 1.999 0 0 1-1.988 1.778c-.07.001-.15.001-.22-.009zm-115.424-6.662a1.997 1.997 0 0 1 .579-2.767 2 2 0 0 1 2.177 3.356c-.33.21-.709.319-1.089.319a1.98 1.98 0 0 1-1.667-.908zm116.223-3.286a1.99 1.99 0 0 1-1.968-2.018 1.99 1.99 0 0 1 2.018-1.977 2.003 2.003 0 0 1 1.977 2.017 2.007 2.007 0 0 1-2.007 1.978h-.02zm-122.326-3.865v-.011a1.982 1.982 0 0 1-.159-2.816 2 2 0 0 1 2.816-.16c.819.739.899 1.998.16 2.827-.4.439-.938.659-1.488.659-.479 0-.948-.16-1.329-.499zm-7.79-5.225v.01a2.004 2.004 0 0 1-.949-2.667 1.992 1.992 0 0 1 2.657-.948 1.995 1.995 0 0 1 .959 2.656 2.002 2.002 0 0 1-1.807 1.149c-.291 0-.581-.07-.86-.2zm127.759-2.697a1.98 1.98 0 0 1 1.807-2.167 1.995 1.995 0 1 1 .36 3.975c-.059.01-.12.01-.179.01a1.99 1.99 0 0 1-1.988-1.818zm-136.768-.109a1.995 1.995 0 0 1-1.599-2.318 1.984 1.984 0 0 1 2.318-1.608 1.995 1.995 0 0 1 1.609 2.318 1.997 1.997 0 0 1-1.958 1.638 2.419 2.419 0 0 1-.37-.03zm-39.614-.26h.01a1.992 1.992 0 0 1-1.908-2.087c.04-1.098.97-1.947 2.078-1.908a2 2 0 0 1-.09 3.995h-.09zm8.081-1.958a2.007 2.007 0 0 1 1.927-2.077 1.999 1.999 0 1 1 .141 3.995h.01-.08a2 2 0 0 1-1.998-1.918zm9.978-.449a2.005 2.005 0 0 1 1.918-2.078 2 2 0 0 1 .17 3.995h-.09a2.006 2.006 0 0 1-1.998-1.917zm9.988-.289c.02-1.099.938-1.968 2.047-1.948v.01a1.997 1.997 0 0 1 1.948 2.038 1.997 1.997 0 0 1-2.047 1.948 1.987 1.987 0 0 1-1.948-2.048zm-38.294 1.437a2.002 2.002 0 0 1-1.509-2.387 1.992 1.992 0 0 1 2.378-1.519 2.001 2.001 0 0 1 1.518 2.388 1.994 1.994 0 0 1-1.948 1.558c-.15 0-.29-.009-.439-.04zm-9.869-3.615a2.005 2.005 0 0 1-.8-2.716 2.003 2.003 0 0 1 3.516 1.918 2.017 2.017 0 0 1-1.758 1.039 2.121 2.121 0 0 1-.958-.241zm195.099-4.415a2.002 2.002 0 0 1 1.578-2.347 1.995 1.995 0 0 1 2.348 1.568 2.001 2.001 0 0 1-1.578 2.347c-.13.03-.26.04-.39.04a2.005 2.005 0 0 1-1.958-1.608zm-203.43-2.187a1.994 1.994 0 0 1 .18-2.817 1.993 1.993 0 0 1 2.816.17c.73.829.65 2.098-.17 2.827-.389.33-.858.499-1.329.499a2 2 0 0 1-1.497-.679zm201.083-7.312a1.988 1.988 0 0 1 1.328-2.487 1.998 1.998 0 0 1 2.487 1.338 2.007 2.007 0 0 1-1.328 2.497c-.19.051-.39.08-.579.08a1.984 1.984 0 0 1-1.908-1.428zm-206.676-1.677h-.01a2.014 2.014 0 0 1 1.068-2.617 1.997 1.997 0 0 1 2.617 1.069 1.996 1.996 0 0 1-1.068 2.616 1.9 1.9 0 0 1-.77.16 1.99 1.99 0 0 1-1.837-1.228zm203.44-7.572h-.01a1.999 1.999 0 0 1 1.119-2.597 2 2 0 0 1 1.478 3.717 1.994 1.994 0 0 1-2.587-1.12zm-206.017-2.657a1.998 1.998 0 0 1 1.788-2.188 2.013 2.013 0 0 1 2.188 1.799 2.004 2.004 0 0 1-1.799 2.187c-.06 0-.13.01-.189.01a2.003 2.003 0 0 1-1.988-1.808zm202.021-6.332a1.981 1.981 0 0 1 .919-2.667 1.98 1.98 0 0 1 2.667.919 1.98 1.98 0 0 1-.919 2.667 2.005 2.005 0 0 1-2.667-.919zm-199.903-1.848a1.98 1.98 0 0 1-1.528-2.366 1.995 1.995 0 0 1 2.367-1.538 2.01 2.01 0 0 1 1.538 2.377 2.014 2.014 0 0 1-1.958 1.578 1.541 1.541 0 0 1-.419-.051zm195.3-6.882v.01a2.001 2.001 0 0 1 3.485-1.967h-.01c.549.959.2 2.177-.749 2.717a1.95 1.95 0 0 1-.989.26 2.009 2.009 0 0 1-1.737-1.02zm-192.324-2.627a1.994 1.994 0 0 1-.929-2.667 1.993 1.993 0 0 1 2.667-.929 2.005 2.005 0 0 1 .93 2.677 2.003 2.003 0 0 1-1.799 1.119c-.29 0-.589-.06-.869-.2zm187.259-5.873a1.998 1.998 0 0 1 .639-2.757c.93-.579 2.167-.3 2.747.639.589.938.3 2.167-.639 2.747-.33.21-.69.309-1.049.309a1.988 1.988 0 0 1-1.698-.938zm-182.674-2.996c-.97-.509-1.359-1.718-.84-2.687a1.999 1.999 0 0 1 2.697-.849 1.994 1.994 0 0 1 .839 2.686v.011a1.996 1.996 0 0 1-1.767 1.068c-.32 0-.629-.069-.929-.229zm177.291-5.364a1.995 1.995 0 0 1 .559-2.767 1.995 1.995 0 0 1 2.767.57 1.996 1.996 0 0 1-.56 2.767c-.339.219-.719.33-1.098.33a2.008 2.008 0 0 1-1.668-.9zm-173.006-3.656a1.996 1.996 0 0 1-1.279-2.517h.01a1.996 1.996 0 0 1 2.518-1.279 2.004 2.004 0 0 1 1.278 2.517 2.005 2.005 0 0 1-1.908 1.378 1.9 1.9 0 0 1-.619-.099zm167.452-4.624a2.005 2.005 0 0 1 .539-2.777 1.997 1.997 0 0 1 2.777.539c.609.919.37 2.158-.539 2.777a2.005 2.005 0 0 1-2.777-.539zm-164.925-5.024a2 2 0 1 1 .459-3.975 1.992 1.992 0 0 1 1.748 2.217 1.995 1.995 0 0 1-1.977 1.767c-.08 0-.16 0-.23-.009zm159.361-3.306a1.999 1.999 0 0 1 .57-2.767 1.995 1.995 0 0 1 2.767.57 1.995 1.995 0 0 1-.57 2.766 2.001 2.001 0 0 1-2.767-.569zm-160.879-8.52a1.988 1.988 0 0 1 1.868-2.118 1.996 1.996 0 0 1 2.118 1.868 2.002 2.002 0 0 1-1.868 2.118h-.12a1.999 1.999 0 0 1-1.998-1.868zm155.486.03a2.004 2.004 0 0 1 .669-2.747 2.006 2.006 0 0 1 2.747.669c.57.949.269 2.177-.669 2.747a2.005 2.005 0 0 1-2.747-.669zm-4.984-8.81a1.985 1.985 0 0 1 .849-2.686 1.99 1.99 0 0 1 2.696.849c.5.969.12 2.177-.858 2.687-.29.159-.61.229-.919.229-.72 0-1.418-.389-1.768-1.079zm-151.84-.809a2 2 0 0 1 1.538-2.377 1.993 1.993 0 0 1 2.366 1.538h.011a2.021 2.021 0 0 1-1.548 2.377c-.141.029-.27.04-.41.04a1.993 1.993 0 0 1-1.957-1.578zm147.575-8.44a2.009 2.009 0 0 1 1.129-2.598 1.995 1.995 0 0 1 2.587 1.13 1.985 1.985 0 0 1-1.119 2.587c-.24.099-.49.139-.739.139-.79 0-1.548-.478-1.858-1.258zm-150.183-.959a1.983 1.983 0 0 1 1.249-2.527c1.049-.36 2.177.2 2.537 1.249a2 2 0 0 1-1.249 2.527c-.219.08-.429.109-.65.109a1.987 1.987 0 0 1-1.887-1.358zm318.843-4.754c0-1.109.89-1.998 1.998-1.998 1.099 0 1.998.889 1.998 1.998a2.004 2.004 0 0 1-1.998 1.998c-1.108 0-1.998-.9-1.998-1.998zm-8.309 1.118a1.989 1.989 0 0 1-1.568-2.347 1.987 1.987 0 0 1 2.347-1.568 2 2 0 0 1 1.568 2.348 2.004 2.004 0 0 1-1.958 1.607c-.13 0-.259-.01-.389-.04zm-163.438-5.193a1.997 1.997 0 0 1 1.488-2.398 2.01 2.01 0 0 1 2.407 1.488 2.009 2.009 0 0 1-1.498 2.407 2.003 2.003 0 0 1-2.397-1.497zm153.509 1.119c-.889-.65-1.098-1.898-.45-2.787a2 2 0 0 1 2.787-.459 2 2 0 0 1 .45 2.797 1.983 1.983 0 0 1-1.618.818 2.063 2.063 0 0 1-1.169-.369zm-304.211-1.389a2.004 2.004 0 0 1 1.01-2.646c1.009-.45 2.187 0 2.637 1.009.45.999.01 2.187-.999 2.637-.27.12-.549.18-.819.18a2.01 2.01 0 0 1-1.829-1.18zm297.25-6.802v-.01a1.991 1.991 0 0 1 .778-2.708 2.001 2.001 0 0 1 2.718.779 2.008 2.008 0 0 1-.779 2.717c-.309.171-.639.25-.969.25a1.976 1.976 0 0 1-1.748-1.028zm-301.624-2.018a2.005 2.005 0 0 1 .81-2.707 1.997 1.997 0 0 1 2.707.81c.529.969.17 2.177-.799 2.707-.31.16-.63.239-.96.239-.71 0-1.389-.38-1.758-1.049zm153.658-1.138a2.006 2.006 0 0 1 1.918-2.078 2 2 0 1 1 .16 3.995h-.08a2.008 2.008 0 0 1-1.998-1.917zm143.931-6.333a1.998 1.998 0 0 1 1.239-2.547 2 2 0 0 1 2.537 1.238 1.995 1.995 0 0 1-1.229 2.537 1.9 1.9 0 0 1-.659.11 1.988 1.988 0 0 1-1.888-1.338zm-302.563-1.048a2.008 2.008 0 0 1 .639-2.758 2.006 2.006 0 0 1 2.757.64c.579.938.29 2.167-.639 2.757-.33.2-.699.299-1.058.299a1.99 1.99 0 0 1-1.699-.938zm160.94-.68a1.999 1.999 0 0 1-1.728-2.238 2.003 2.003 0 0 1 2.247-1.718 1.996 1.996 0 0 1 1.719 2.238 1.993 1.993 0 0 1-1.978 1.738c-.09 0-.171 0-.26-.02zm138.586-7.871a2.002 2.002 0 0 1 1.338-2.487 1.99 1.99 0 0 1 2.487 1.339 1.995 1.995 0 0 1-1.328 2.486c-.2.06-.39.09-.579.09a2.023 2.023 0 0 1-1.918-1.428zm-304.98.3a2.012 2.012 0 0 1 .499-2.787 2.012 2.012 0 0 1 2.787.499c.63.909.399 2.148-.499 2.787-.349.24-.749.35-1.138.35a2 2 0 0 1-1.649-.849zm167.902-2.288a2.001 2.001 0 0 1-1.548-2.367 2.003 2.003 0 0 1 2.367-1.548 2.01 2.01 0 0 1 1.548 2.367 2.005 2.005 0 0 1-1.958 1.588c-.139 0-.27-.019-.409-.04zm-173.735-5.722a2.002 2.002 0 0 1 .379-2.797 2.004 2.004 0 0 1 2.807.379c.669.879.49 2.127-.39 2.797-.359.28-.779.41-1.198.41a2 2 0 0 1-1.598-.789zm307.916-1.818v-.01a1.993 1.993 0 0 1 1.319-2.497 1.992 1.992 0 0 1 2.497 1.319 1.995 1.995 0 0 1-1.309 2.497 2.01 2.01 0 0 1-2.507-1.309zm-131.884-2.178a1.995 1.995 0 0 1-1.318-2.487v-.01a2.009 2.009 0 0 1 2.497-1.319c1.049.33 1.647 1.448 1.318 2.497a1.986 1.986 0 0 1-1.908 1.408 1.678 1.678 0 0 1-.589-.089zm-182.175-3.795a2.01 2.01 0 0 1 .29-2.817 1.989 1.989 0 0 1 2.807.29v-.01a2.007 2.007 0 0 1-.28 2.816 2.01 2.01 0 0 1-2.817-.279zm310.953-3.366h.01a1.996 1.996 0 0 1 1.119-2.598 2.008 2.008 0 0 1 2.596 1.129 1.994 1.994 0 0 1-1.129 2.588 2.011 2.011 0 0 1-2.596-1.119zm-125.532-2.268a1.996 1.996 0 0 1-1.028-2.627 1.995 1.995 0 1 1 3.655 1.599 1.998 1.998 0 0 1-1.828 1.198c-.269 0-.539-.06-.799-.17zm121.167-6.272a1.995 1.995 0 0 1 .619-2.757 1.995 1.995 0 0 1 2.756.619v-.01a2.014 2.014 0 0 1-.619 2.766 1.996 1.996 0 0 1-2.756-.618zm-116.812-2.706a1.987 1.987 0 0 1-.669-2.747 1.997 1.997 0 0 1 2.747-.659 1.993 1.993 0 0 1 .659 2.747 1.992 1.992 0 0 1-1.708.948 1.953 1.953 0 0 1-1.029-.289zm110.969-4.956a2.004 2.004 0 0 1 .15-2.826 1.984 1.984 0 0 1 2.817.159 1.994 1.994 0 0 1-.15 2.817 1.998 1.998 0 0 1-1.328.509 1.976 1.976 0 0 1-1.489-.659zm-105.395-3.315a1.996 1.996 0 0 1-.23-2.817 2.005 2.005 0 0 1 2.817-.229c.839.719.939 1.977.23 2.816a1.986 1.986 0 0 1-2.817.23zm98.414-3.416a1.997 1.997 0 0 1-.25-2.817 1.986 1.986 0 0 1 2.816-.24c.839.699.959 1.968.25 2.807a2.016 2.016 0 0 1-1.538.709c-.45.001-.91-.15-1.278-.459zm-91.592-3.856a1.986 1.986 0 0 1 .24-2.817h-.011a1.996 1.996 0 0 1 2.817.24c.719.839.61 2.098-.23 2.817-.38.309-.839.469-1.289.469a1.977 1.977 0 0 1-1.527-.709zm83.75-1.937a1.979 1.979 0 0 1-.579-2.757c.589-.929 1.828-1.188 2.757-.589a2 2 0 0 1 .59 2.767 2.012 2.012 0 0 1-1.679.908c-.37 0-.749-.109-1.089-.329zm-75.82-4.126a1.998 1.998 0 0 1 .68-2.736 2.002 2.002 0 0 1 2.747.689c.569.939.26 2.167-.69 2.737-.32.19-.679.29-1.029.29a1.979 1.979 0 0 1-1.708-.98zm67.34-.719a2.005 2.005 0 0 1-.889-2.677 2.01 2.01 0 0 1 2.687-.899 2.016 2.016 0 0 1 .889 2.687 1.995 1.995 0 0 1-1.788 1.098 1.92 1.92 0 0 1-.899-.209zm-58.57-4.035a1.993 1.993 0 0 1 1.058-2.617 1.988 1.988 0 0 1 2.617 1.049 2.003 2.003 0 0 1-1.049 2.628c-.26.109-.519.159-.789.159a2.016 2.016 0 0 1-1.837-1.219zm49.611.141a1.988 1.988 0 0 1-1.168-2.567 1.992 1.992 0 1 1 3.736 1.388 1.994 1.994 0 0 1-1.868 1.309 1.965 1.965 0 0 1-.7-.13zm-40.282-3.727a1.985 1.985 0 0 1 1.319-2.497 1.998 1.998 0 0 1 2.497 1.329 1.992 1.992 0 0 1-1.328 2.487 1.985 1.985 0 0 1-2.488-1.319zm30.963.86a1.987 1.987 0 0 1-1.468-2.407 1.994 1.994 0 0 1 3.875.938 1.99 1.99 0 0 1-1.938 1.528 1.89 1.89 0 0 1-.469-.059zm-9.569-1.649v-.01a1.983 1.983 0 0 1-1.788-2.178c.11-1.098 1.089-1.907 2.178-1.787v-.011a2.003 2.003 0 0 1-.19 3.995c-.059.001-.13-.009-.2-.009zm-11.765-1.837a1.997 1.997 0 0 1 1.788-2.188 1.988 1.988 0 0 1 2.187 1.778 1.988 1.988 0 0 1-1.778 2.188c-.069.01-.14.02-.21.02a2.008 2.008 0 0 1-1.987-1.798zM928.66 417.904c4.772 7.991 2.162 18.337-5.829 23.109-7.991 4.772-18.337 2.162-23.109-5.829-4.772-7.991-1.548-21.717 7.73-52.794l21.208 35.514zM934.155 413.842c6.018 7.1 16.652 7.978 23.752 1.96 7.1-6.018 7.978-16.652 1.96-23.752s-20.049-8.491-52.456-9.764l26.744 31.556z"/><circle cx="909.025" cy="384.006" r="9.475"/><path fill="#FFD829" d="M52.365 438.578c-19.362-.783-37.498 4.841-52.365 14.98v143.516c12.973 8.851 28.502 14.296 45.35 14.977 47.903 1.937 88.307-35.326 90.244-83.229 1.937-47.903-35.326-88.307-83.229-90.244zm-36.918 68.913c.198-11.465 4.623-20.686 9.883-20.595 5.26.091 9.364 9.459 9.166 20.924-.198 11.465-4.623 20.686-9.883 20.595-5.26-.091-9.364-9.459-9.166-20.924zm34.947 53.775c-12.511-.016-22.64-10.171-22.624-22.682l45.307.058c-.017 12.51-10.172 22.64-22.683 22.624zm25.121-31.971c-5.26-.091-9.364-9.459-9.166-20.924.198-11.465 4.623-20.686 9.883-20.595 5.26.091 9.364 9.459 9.166 20.924-.198 11.465-4.623 20.685-9.883 20.595z"/><path fill="#FFD829" d="M171.305 505.606c-1.427-8.095-6.641-14.85-11.683-21.383-2.899-3.756-5.896-7.639-8.001-11.613-2.067-3.904-3.507-8.31-5.03-12.973-2.577-7.886-5.241-16.041-11.239-21.84-5.732-5.544-13.827-7.934-21.655-10.245-4.655-1.375-9.468-2.796-13.683-4.856s-8.293-4.985-12.237-7.814c-6.632-4.758-13.49-9.677-21.386-10.796-8.264-1.174-16.332 1.736-24.136 4.547-4.616 1.662-8.976 3.232-13.327 3.999-4.43.78-9.335.801-14.079.82-4.961.02-10.022.047-14.849.895v4.058c4.624-.907 9.65-.932 14.865-.954 4.912-.021 9.991-.041 14.757-.881 4.689-.826 9.416-2.528 13.988-4.175 6.259-2.254 12.699-4.572 18.969-4.572 1.089 0 2.174.069 3.251.223 6.923.98 13.088 5.403 19.615 10.085 4.078 2.925 8.294 5.95 12.812 8.158s9.494 3.678 14.307 5.099c7.704 2.275 14.98 4.424 20.007 9.284 5.284 5.109 7.792 12.785 10.217 20.207 1.509 4.619 3.069 9.395 5.297 13.602 2.265 4.277 5.368 8.298 8.37 12.187 4.965 6.433 9.655 12.508 10.91 19.632 1.241 7.043-1.082 14.336-3.541 22.059-1.498 4.704-3.047 9.568-3.734 14.417-.654 4.616-.496 9.567-.342 14.355.25 7.843.509 15.951-2.792 22.707-3.302 6.755-9.861 11.531-16.203 16.15-3.872 2.82-7.876 5.736-11.117 9.088-3.404 3.521-6.291 7.73-9.083 11.803-4.583 6.684-8.913 12.998-15.232 16.344-6.393 3.386-14.068 3.417-22.194 3.45-4.912.021-9.991.041-14.757.881-4.689.826-9.416 2.528-13.987 4.175-7.347 2.646-14.945 5.383-22.222 4.35-6.923-.98-13.088-5.403-19.615-10.085-3.997-2.868-8.129-5.826-12.545-8.021v4.521c3.5 1.941 6.904 4.376 10.213 6.75 6.632 4.758 13.49 9.677 21.386 10.796 1.289.183 2.571.266 3.851.266 6.92 0 13.699-2.44 20.287-4.813 4.616-1.661 8.975-3.231 13.326-3.998 4.43-.78 9.335-.801 14.08-.82 8.252-.034 16.786-.068 24.049-3.915 7.189-3.807 12.003-10.828 16.659-17.617 2.699-3.936 5.489-8.005 8.659-11.283 3-3.103 6.69-5.79 10.597-8.636 6.737-4.906 13.704-9.98 17.442-17.628 3.738-7.647 3.463-16.261 3.196-24.59-.154-4.831-.3-9.394.305-13.668.64-4.516 2.137-9.217 3.585-13.764 2.497-7.846 5.08-15.957 3.669-23.968z"/></svg>