<svg xmlns="http://www.w3.org/2000/svg" xml:space="preserve" viewBox="0 0 1080 1080"><g fill="#FFF"><path d="M939.673 622.939c-7.635 4.007-12.857 12.01-12.857 21.214v30.7h4v-30.7c0-6.897 3.521-12.985 8.857-16.569v-4.645zM961.696 622.86v4.63c5.421 3.57 9.012 9.701 9.012 16.663v31.7h4v-31.7c0-9.265-5.294-17.313-13.012-21.293z"/></g><path d="M402.511 51.48v977.041h395.417V51.48H402.511zm140.562 725.397H521.218c-23.451 0-42.462-21.499-42.462-48.019s19.011-48.019 42.462-48.019H543.073c23.451 0 42.462 21.499 42.462 48.019s-19.01 48.019-42.462 48.019z"/><path d="M799.928 1030.521H400.511V49.479h399.417v981.042zm-395.417-4h391.417V53.479H404.511v973.042zm138.562-247.644h-21.855c-24.517 0-44.462-22.438-44.462-50.019s19.945-50.019 44.462-50.019h21.855c24.517 0 44.463 22.438 44.463 50.019s-19.946 50.019-44.463 50.019zm-21.855-96.037c-22.311 0-40.462 20.644-40.462 46.019s18.151 46.019 40.462 46.019h21.855c22.312 0 40.463-20.644 40.463-46.019s-18.151-46.019-40.463-46.019h-21.855zM319.766 1030.521H0v-4h315.766V874.353h4zM315.766 321.878h4v435.576h-4zM319.766 205.647h-4V53.479H0v-4h319.766zM1079.732 1030.521H880.673V49.479h199.059v4H884.673v973.042h195.059zM360.139 1030.521a2 2 0 0 1-2-2V51.479a2 2 0 0 1 4 0v977.041a2 2 0 0 1-2 2.001zM840.301 1030.521a2 2 0 0 1-2-2V51.479a2 2 0 0 1 4 0v977.041a2 2 0 0 1-2 2.001z"/><path d="M216.831 940.159H23.283a2 2 0 0 1-2-2c0-18.928 15.399-34.327 34.327-34.327h128.894c18.928 0 34.327 15.399 34.327 34.327a2 2 0 0 1-2 2zm-191.482-4h189.417c-1.032-15.794-14.211-28.327-30.262-28.327H55.61c-16.051 0-29.229 12.533-30.261 28.327zM216.831 890.817H23.283a2 2 0 0 1-2-2c0-18.929 15.399-34.328 34.327-34.328h128.894c18.928 0 34.327 15.399 34.327 34.328a2 2 0 0 1-2 2zm-191.482-4h189.417c-1.032-15.795-14.211-28.328-30.262-28.328H55.61c-16.051 0-29.229 12.533-30.261 28.328zM216.831 841.476H23.283a2 2 0 0 1-2-2c0-18.929 15.399-34.328 34.327-34.328h128.894c18.928 0 34.327 15.399 34.327 34.328a2 2 0 0 1-2 2zm-191.482-4h189.417c-1.032-15.795-14.211-28.328-30.262-28.328H55.61c-16.051-.001-29.229 12.533-30.261 28.328zM216.831 314.937H23.283a2 2 0 0 1-2-2c0-18.928 15.399-34.327 34.327-34.327h128.894c18.928 0 34.327 15.399 34.327 34.327a2 2 0 0 1-2 2zm-191.482-4h189.417c-1.032-15.794-14.211-28.327-30.262-28.327H55.61c-16.051-.001-29.229 12.533-30.261 28.327zM216.831 265.595H23.283a2 2 0 0 1-2-2c0-18.928 15.399-34.327 34.327-34.327h128.894c18.928 0 34.327 15.399 34.327 34.327a2 2 0 0 1-2 2zm-191.482-4h189.417c-1.032-15.794-14.211-28.327-30.262-28.327H55.61c-16.051 0-29.229 12.533-30.261 28.327zM216.831 216.253H23.283a2 2 0 0 1-2-2c0-18.928 15.399-34.327 34.327-34.327h128.894c18.928 0 34.327 15.399 34.327 34.327a2 2 0 0 1-2 2zm-191.482-4h189.417c-1.032-15.794-14.211-28.327-30.262-28.327H55.61c-16.051 0-29.229 12.533-30.261 28.327zM1080 940.159h-81.146a2 2 0 0 1-2-2c0-18.928 15.399-34.327 34.328-34.327H1080v4h-48.817c-16.052 0-29.23 12.533-30.263 28.327H1080v4zM1080 890.817h-81.146a2 2 0 0 1-2-2c0-18.929 15.399-34.328 34.328-34.328H1080v4h-48.817c-16.052 0-29.23 12.533-30.263 28.328H1080v4zM1080 809.147h-48.817c-16.052 0-29.23 12.533-30.263 28.328H1080v4h-81.146a2 2 0 0 1-2-2c0-18.929 15.399-34.328 34.328-34.328H1080v4zM1080 314.937h-81.146a2 2 0 0 1-2-2c0-18.928 15.399-34.327 34.328-34.327H1080v4h-48.818c-16.052 0-29.23 12.533-30.263 28.327H1080v4zM1080 265.595h-81.146a2 2 0 0 1-2-2c0-18.928 15.399-34.327 34.328-34.327H1080v4h-48.818c-16.052 0-29.23 12.533-30.263 28.327H1080v4zM1080 216.253h-81.146a2 2 0 0 1-2-2c0-18.928 15.399-34.327 34.328-34.327H1080v4h-48.818c-16.052 0-29.23 12.533-30.263 28.327H1080v4z"/><path fill="#FFF" d="M1080 149.831c-27.133 0-49.129-12.641-49.129-28.235s21.996-28.235 49.129-28.235"/><ellipse cx="120.057" cy="121.596" fill="#FFF" rx="49.129" ry="28.235"/><path d="M98.576 131.989c0-.641.44-1.16 1.32-1.16 1.6 0 5.559.12 7.078.16v-18.438l-6.039 3.28c-.559.28-.999.44-1.398.44-.681 0-1.121-.48-1.121-1.16 0-.521.28-.92 1-1.28l7.159-3.519c.479-.24 1.12-.561 1.72-.561.72 0 1.119.52 1.119 1.4v19.836c1.201-.04 4.24-.16 5.48-.16.879 0 1.318.52 1.318 1.16 0 .64-.439 1.16-1.318 1.16H99.896c-.879.002-1.32-.518-1.32-1.158zM122.137 121.631c0-7.799 4.078-11.878 9.718-11.878 2.919 0 5.358 1.08 6.799 2.52.521.52.84.84.84 1.439 0 .68-.44 1.16-1.2 1.16-.56 0-.959-.359-1.52-.92-1.24-1.24-2.879-1.959-4.999-1.959-3.919 0-7.198 3.199-7.198 9.518 1.84-2 4.839-3.159 7.479-3.159 4.439 0 8.039 2.999 8.039 7.479 0 4.399-3.6 7.879-8.359 7.879-6.201-.001-9.599-5.2-9.599-12.079zm2.558 2.28c.641 4.799 3.32 7.559 7.039 7.559 3.399 0 5.879-2.6 5.879-5.64 0-3.12-2.479-5.278-5.599-5.278-2.599 0-5.319 1.318-7.319 3.359z"/><path fill="#FFD829" d="M458.885 22.103V1057.38c113.393-9.947 226.785-18.912 340.178-28.859V51.946L458.885 22.103zm84.188 754.774H521.218c-23.451 0-42.462-21.499-42.462-48.019s19.011-48.019 42.462-48.019H543.073c23.451 0 42.462 21.499 42.462 48.019s-19.01 48.019-42.462 48.019z"/><path d="M456.886 1059.563V19.919l344.178 30.194v980.239l-1.825.16c-56.7 4.974-114.348 9.781-170.098 14.431-55.745 4.648-113.388 9.456-170.08 14.429l-2.175.191zm4-1035.277v1030.911c56.001-4.907 112.885-9.65 167.923-14.24 55.146-4.599 112.152-9.353 168.255-14.269V53.777L460.886 24.286zm82.187 754.591h-21.855c-24.517 0-44.462-22.438-44.462-50.019s19.945-50.019 44.462-50.019h21.855c24.517 0 44.463 22.438 44.463 50.019s-19.946 50.019-44.463 50.019zm-21.855-96.037c-22.311 0-40.462 20.644-40.462 46.019s18.151 46.019 40.462 46.019h21.855c22.312 0 40.463-20.644 40.463-46.019s-18.151-46.019-40.463-46.019h-21.855z"/><path d="M545.719 957.424a2 2 0 0 1-2-2v-.146c-.554-16.468 11.437-35.928 29.527-37.416l.033-.003 111.128-7.3c.134-.007.273-.005.41-.006 7.596 0 14.812 3.157 20.35 8.911 6.19 6.431 9.492 15.182 9.06 24.01l.002.045a2 2 0 0 1-1.857 1.995l-166.51 11.905a2.33 2.33 0 0 1-.143.005zm2-2h.01-.01zm25.839-33.575c-15.156 1.257-25.412 17.157-25.844 31.428l162.545-11.622a28.547 28.547 0 0 0-7.974-19.416c-4.777-4.962-10.973-7.686-17.471-7.686l-.202.001-111.054 7.295zM545.719 905.91a1.997 1.997 0 0 1-2-2v-.146c-.562-16.486 11.434-35.853 29.546-37.173l.032-.002 111.128-6.315c.05-.002.101-.002.151-.003 7.696 0 15.012 3.226 20.604 9.086 6.176 6.472 9.473 15.248 9.046 24.078l.002.046a2 2 0 0 1-1.875 1.996l-166.51 10.43a2.535 2.535 0 0 1-.124.003zm2-2h.01-.01zm25.821-33.328c-15.161 1.114-25.411 16.93-25.826 31.199L710.259 891.6a28.842 28.842 0 0 0-7.972-19.481c-4.825-5.057-11.107-7.842-17.691-7.848l-111.056 6.311zM545.719 854.396a2 2 0 0 1-2-2v-.146c-.57-16.506 11.431-35.776 29.564-36.928l.031-.002 111.128-5.331c.038-.002.08-.004.111-.002 7.717.061 15.046 3.351 20.64 9.264 6.161 6.512 9.453 15.312 9.033 24.144l.002.048a2 2 0 0 1-1.893 1.997l-166.51 8.954c-.035.002-.07.002-.106.002zm2-2h.01-.01zm25.803-33.081c-15.166.972-25.411 16.703-25.811 30.971l162.546-8.74c-.104-7.234-2.958-14.248-7.97-19.546-4.825-5.101-11.113-7.945-17.711-8.013l-111.054 5.328zM712.228 311.474l-.081-.002-166.51-6.789a2 2 0 0 1-1.919-1.998v-.146c-.378-9.47 3.556-19.579 10.269-26.306 5.5-5.512 12.252-8.264 19.498-8.007l.018.001 111.128 5.176c17.408.276 29.59 19.157 29.598 35.929v.143a1.997 1.997 0 0 1-2.001 1.999zM547.7 300.764l162.469 6.624c-.87-14.386-11.168-29.757-25.663-29.987l-111.182-5.178c-7.722-.275-13.234 3.558-16.506 6.835-5.555 5.566-8.964 13.751-9.118 21.706zM712.228 261.436l-.1-.003-166.51-8.265a2 2 0 0 1-1.9-1.997v-.146c-.383-9.467 3.558-19.549 10.285-26.23 5.509-5.469 12.254-8.182 19.501-7.836a.086.086 0 0 0 .016.001l111.128 6.161c17.39.442 29.566 19.418 29.58 36.171v.145c0 .548-.225 1.071-.621 1.449-.373.353-.867.55-1.379.55zm-164.529-12.169 162.468 8.064c-.883-14.39-11.187-29.846-25.68-30.215l-111.178-6.163c-7.692-.341-13.217 3.433-16.486 6.68-5.565 5.526-8.976 13.684-9.124 21.634zM712.228 211.397l-.117-.003-166.51-9.741a2 2 0 0 1-1.883-1.996v-.146c-.388-9.465 3.56-19.518 10.303-26.153 5.514-5.427 12.248-8.078 19.502-7.667l.015.001 111.128 7.146c17.372.608 29.542 19.681 29.562 36.415v.146c0 .551-.228 1.077-.628 1.455a2.006 2.006 0 0 1-1.372.543zm-164.53-13.627 162.467 9.504c-.896-14.392-11.207-29.934-25.697-30.441l-111.178-7.148c-7.692-.447-13.195 3.308-16.463 6.524-5.575 5.485-8.989 13.618-9.129 21.561z"/><path fill="#FFF" d="M671.24 112.354c.014 20.984-26.709 26.238-42.266 25.88-16.482-.379-41.692-11.825-42.266-32.231-.6-21.35 27.7-26.365 42.266-25.88 16.281.541 42.253 12.329 42.266 32.231z"/><path d="M611.325 118.579c0-.661.379-1.169 1.136-1.114 1.377.101 4.784.475 6.092.612V99.064c-2.079 1.193-3.118 1.79-5.197 2.986-.482.252-.86.388-1.205.362-.586-.045-.964-.569-.964-1.271 0-.537.241-.932.86-1.256 2.464-1.265 3.697-1.896 6.161-3.158.413-.216.964-.503 1.48-.463.62.048.964.61.964 1.517v20.449c1.033.035 3.649.103 4.715.182.757.056 1.136.619 1.136 1.278s-.379 1.167-1.136 1.112l-12.907-.943c-.756-.055-1.135-.62-1.135-1.28zM647.735 100.196c0 .575-.206 1.01-.482 1.563-3.827 7.652-5.741 11.484-9.568 19.162-.447.871-.826 1.296-1.411 1.253-.654-.048-.998-.69-.998-1.225 0-.534.206-.931.447-1.406 3.841-7.416 5.761-11.117 9.603-18.507-3.476-.225-10.084-.609-12.15-.768-.757-.058-1.135-.622-1.135-1.281s.344-1.166 1.135-1.105l13.457 1.038c.758.06 1.102.619 1.102 1.276zM1056.955 131.989c0-.641.439-1.16 1.319-1.16 1.6 0 5.56.12 7.079.16v-18.438l-6.039 3.28c-.56.28-1 .44-1.399.44-.681 0-1.12-.48-1.12-1.16 0-.521.279-.92 1-1.28l7.158-3.519c.48-.24 1.12-.561 1.72-.561.72 0 1.12.52 1.12 1.4v19.836c1.2-.04 4.239-.16 5.479-.16.879 0 1.319.52 1.319 1.16 0 .64-.44 1.16-1.319 1.16h-14.998c-.88.002-1.319-.518-1.319-1.158zM317.767 324.636h-.004c-9.197 0-16.681-7.482-16.681-16.68v-87.628c0-9.197 7.483-16.681 16.681-16.681 9.201 0 16.685 7.483 16.685 16.681v87.628c0 9.197-7.483 16.68-16.681 16.68zm0-116.989c-6.996 0-12.685 5.688-12.685 12.681v87.628c0 6.991 5.688 12.68 12.681 12.68h.004c6.992 0 12.681-5.688 12.681-12.68v-87.628c0-6.992-5.688-12.681-12.681-12.681zM317.767 876.353h-.004c-9.197 0-16.681-7.483-16.681-16.681v-87.628c0-9.197 7.483-16.68 16.681-16.68 9.201 0 16.685 7.482 16.685 16.68v87.628c0 9.197-7.483 16.681-16.681 16.681zm0-116.989c-6.996 0-12.685 5.688-12.685 12.68v87.628c0 6.992 5.688 12.681 12.681 12.681h.004c6.992 0 12.681-5.688 12.681-12.681v-87.628c0-6.991-5.688-12.68-12.681-12.68z"/><path fill="#FFD829" d="M797.93 322.636h-.005c-8.108 0-14.68-6.572-14.68-14.68v-87.628c0-8.108 6.572-14.68 14.68-14.68h.005c8.108 0 14.68 6.572 14.68 14.68v87.628c0 8.107-6.572 14.68-14.68 14.68z"/><path d="M797.93 324.636h-.004c-9.197 0-16.681-7.482-16.681-16.68v-87.628c0-9.197 7.483-16.681 16.681-16.681 9.201 0 16.685 7.483 16.685 16.681v87.628c-.001 9.197-7.484 16.68-16.681 16.68zm0-116.989c-6.996 0-12.685 5.688-12.685 12.681v87.628c0 6.991 5.688 12.68 12.681 12.68h.004c6.992 0 12.681-5.688 12.681-12.68v-87.628c-.001-6.992-5.689-12.681-12.681-12.681z"/><path fill="#FFD829" d="M797.93 874.352h-.005c-8.108 0-14.68-6.573-14.68-14.68v-87.628c0-8.108 6.572-14.68 14.68-14.68h.005c8.108 0 14.68 6.572 14.68 14.68v87.628c0 8.108-6.572 14.68-14.68 14.68z"/><path d="M797.93 876.353h-.004c-9.197 0-16.681-7.483-16.681-16.681v-87.628c0-9.197 7.483-16.68 16.681-16.68 9.201 0 16.685 7.482 16.685 16.68v87.628c-.001 9.197-7.484 16.681-16.681 16.681zm0-116.989c-6.996 0-12.685 5.688-12.685 12.68v87.628c0 6.992 5.688 12.681 12.681 12.681h.004c6.992 0 12.681-5.688 12.681-12.681v-87.628c-.001-6.991-5.689-12.68-12.681-12.68zM542.269 778.877c-24.517 0-44.462-22.438-44.462-50.019s19.945-50.019 44.462-50.019 44.463 22.438 44.463 50.019a2 2 0 0 1-4 0c0-25.375-18.151-46.019-40.463-46.019-22.311 0-40.462 20.644-40.462 46.019s18.151 46.019 40.462 46.019c4.967 0 9.815-1.012 14.412-3.006a2.001 2.001 0 0 1 1.592 3.67 39.972 39.972 0 0 1-16.004 3.336z"/><path d="M542.269 778.877h-20.852c-24.517 0-44.462-22.438-44.462-50.019s19.945-50.019 44.462-50.019h20.852a2 2 0 0 1 0 4h-20.852c-22.311 0-40.462 20.644-40.462 46.019s18.151 46.019 40.462 46.019h20.852a2 2 0 0 1 0 4z"/><path fill="#FFF" d="M506.278 693.217a2 2 0 0 1-2-2v-38.109c0-14.281 11.619-25.9 25.9-25.9s25.9 11.619 25.9 25.9v29.077a2 2 0 0 1-4 0v-29.077c0-12.076-9.824-21.9-21.9-21.9s-21.9 9.824-21.9 21.9v38.109a2 2 0 0 1-2 2zM586.905 796.606a3.994 3.994 0 0 1-3.04-4.77h.01a3.992 3.992 0 0 1 4.76-3.04 3.998 3.998 0 0 1 3.04 4.77v.01a4 4 0 0 1-3.899 3.13 3.64 3.64 0 0 1-.871-.1zm2.04-9.79a4.012 4.012 0 0 1-3.58-4.39 3.996 3.996 0 0 1 4.39-3.57c2.2.22 3.79 2.19 3.57 4.39v-.01a3.998 3.998 0 0 1-3.97 3.601c-.14 0-.28-.011-.41-.021zm.9-9.96a4.004 4.004 0 0 1-3.979-4.02c.01-2.211 1.81-4 4.02-3.98 2.21 0 3.99 1.8 3.98 4.01a4.003 4.003 0 0 1-4 3.99h-.021zm4.02-3.99v.01-.01zm-8.36-9.7v.011a3.988 3.988 0 0 1 3.67-4.301 3.994 3.994 0 0 1 4.301 3.671v.01a4.004 4.004 0 0 1-3.681 4.29c-.1.01-.21.01-.31.01a3.992 3.992 0 0 1-3.98-3.691zm-1.11-9.649a3.997 3.997 0 0 1 3.359-4.55 3.996 3.996 0 0 1 4.55 3.359 4.004 4.004 0 0 1-3.359 4.55c-.2.03-.4.051-.601.051a3.989 3.989 0 0 1-3.949-3.41zm-1.78-9.561c-.48-2.159.88-4.3 3.04-4.779a4.015 4.015 0 0 1 4.77 3.04c.471 2.159-.89 4.3-3.04 4.779-.29.061-.58.091-.869.091a3.994 3.994 0 0 1-3.901-3.131zm-2.44-9.29a4.004 4.004 0 0 1 2.53-5.06c2.1-.69 4.36.44 5.061 2.54a4.01 4.01 0 0 1-2.54 5.06c-.421.141-.841.2-1.261.2a3.98 3.98 0 0 1-3.79-2.74z"/><path fill="#FFD829" d="M530.24 664.188h-.003c-6.081 0-11.01-4.929-11.01-11.01V426.822c0-6.081 4.929-11.01 11.01-11.01h.003c6.081 0 11.01 4.929 11.01 11.01v226.356c0 6.081-4.929 11.01-11.01 11.01z"/><path d="M530.24 666.188h-.004c-7.174 0-13.01-5.837-13.01-13.011V426.822c0-7.174 5.836-13.011 13.01-13.011 7.178 0 13.014 5.837 13.014 13.011v226.355c0 7.175-5.836 13.011-13.01 13.011zm0-248.376c-4.972 0-9.014 4.042-9.014 9.011v226.355c0 4.969 4.042 9.011 9.01 9.011h.004c4.968 0 9.01-4.042 9.01-9.011V426.822c0-4.968-4.042-9.01-9.01-9.01z"/><path fill="none" d="M950.686 664.188h-.003c-6.081 0-11.01-4.929-11.01-11.01V426.822c0-6.081 4.929-11.01 11.01-11.01h.003c6.081 0 11.01 4.929 11.01 11.01v226.356c0 6.081-4.929 11.01-11.01 11.01z"/><path d="M950.686 666.188h-.004c-7.174 0-13.01-5.837-13.01-13.011V426.822c0-7.174 5.836-13.011 13.01-13.011 7.178 0 13.014 5.837 13.014 13.011v226.355c0 7.175-5.836 13.011-13.01 13.011zm0-248.376c-4.972 0-9.014 4.042-9.014 9.011v226.355c0 4.969 4.042 9.011 9.01 9.011h.004c4.968 0 9.01-4.042 9.01-9.011V426.822c0-4.968-4.042-9.01-9.01-9.01zM571.905 712.759c-6.992 0-13.044 3.978-16.049 9.788h-11.439v17.035H556.1c3.083 5.555 9.002 9.318 15.805 9.318 9.98 0 18.071-8.09 18.071-18.071s-8.091-18.07-18.071-18.07z"/><path d="M544.417 745.442a2 2 0 0 1-2-2v-23.354a2 2 0 0 1 4 0v23.354a2 2 0 0 1-2 2z"/><path fill="#FFF" d="M950.684 759.364c-31.327 0-48.543-44.825-48.543-59.682 0-14.963 12.173-27.136 27.136-27.136 8.48 0 16.285 3.859 21.407 10.456 5.122-6.597 12.927-10.456 21.407-10.456 14.963 0 27.137 12.173 27.137 27.136 0 14.387-14.604 59.682-48.544 59.682zm-21.407-82.817c-12.757 0-23.136 10.379-23.136 23.136 0 13.424 16.287 55.682 44.543 55.682 30.659 0 44.544-42.713 44.544-55.682 0-12.757-10.379-23.136-23.137-23.136-8.086 0-15.452 4.116-19.705 11.011l-1.702 2.76-1.702-2.76c-4.253-6.895-11.619-11.011-19.705-11.011z"/><path d="M950.684 730.766a2 2 0 0 1-2-2v-23.354a2 2 0 0 1 4 0v23.354a2 2 0 0 1-2 2z"/><path fill="#FFF" d="M572.566 978.592c-22.323 0-40.42-18.097-40.42-40.42V831.463c0-22.323 18.097-40.42 40.42-40.42H585.5c22.323 0 40.42 18.097 40.42 40.42v106.71c0 22.323-18.097 40.419-40.42 40.419h-12.934z"/><path d="M583.775 958.622h-22.507c-1.431 0-2.211-.781-2.211-1.951 0-1.172.78-2.018 2.211-2.018h22.507c7.48 0 10.538-3.252 10.538-8.521 0-5.399-3.058-8.651-10.538-8.651h-22.507c-1.431 0-2.211-.781-2.211-1.951 0-1.172.78-2.018 2.211-2.018h22.507c8.847 0 14.246 4.099 14.246 12.62 0 8.392-5.399 12.49-14.246 12.49zM578.507 929.218c-10.929 0-19.449-5.008-19.449-14.635 0-9.628 8.521-14.637 19.449-14.637 10.993 0 19.515 5.009 19.515 14.637-.001 9.627-8.522 14.635-19.515 14.635zm0-25.239c-9.042 0-15.742 3.903-15.742 10.604 0 6.699 6.7 10.602 15.742 10.602 9.041 0 15.807-3.902 15.807-10.602-.001-6.7-6.766-10.604-15.807-10.604zm0 13.986c-1.821 0-3.188-1.431-3.188-3.382 0-1.952 1.366-3.383 3.188-3.383s3.188 1.431 3.188 3.383c-.001 1.951-1.367 3.382-3.188 3.382zM596.85 895.196a1.749 1.749 0 0 1-1.757-1.757c0-.39.13-1.105.13-1.561 0-2.082-2.731-4.554-4.684-5.92-2.992 2.797-6.83 5.854-11.058 5.854-4.879 0-8.326-3.708-8.326-8.847s3.447-8.847 8.326-8.847c4.228 0 8.065 3.058 11.058 5.854 1.952-1.366 4.684-3.838 4.684-5.919 0-.456-.13-1.171-.13-1.562 0-1.041.846-1.756 1.757-1.756 1.496 0 1.951 1.431 1.951 3.057 0 4.424-2.732 7.025-5.659 9.172 2.927 2.146 5.659 4.749 5.659 9.172.001 1.629-.454 3.06-1.951 3.06zM578.507 866.118c-10.929 0-19.449-5.009-19.449-14.636s8.521-14.636 19.449-14.636c10.993 0 19.515 5.009 19.515 14.636s-8.522 14.636-19.515 14.636zm0-25.239c-9.042 0-15.742 3.903-15.742 10.604s6.7 10.603 15.742 10.603c9.041 0 15.807-3.902 15.807-10.603s-6.766-10.604-15.807-10.604zm0 13.985c-1.821 0-3.188-1.431-3.188-3.382s1.366-3.383 3.188-3.383 3.188 1.432 3.188 3.383-1.367 3.382-3.188 3.382zM583.775 832.422h-22.507c-1.431 0-2.211-.781-2.211-1.951 0-1.171.78-2.017 2.211-2.017h22.507c7.48 0 10.538-3.253 10.538-8.521 0-5.399-3.058-8.651-10.538-8.651h-22.507c-1.431 0-2.211-.781-2.211-1.952 0-1.17.78-2.016 2.211-2.016h22.507c8.847 0 14.246 4.098 14.246 12.619 0 8.39-5.399 12.489-14.246 12.489z"/><path fill="#FFF" d="M569.766 799.587a3.995 3.995 0 0 1 3.119-4.721 4.01 4.01 0 0 1 4.721 3.12 4.013 4.013 0 0 1-3.12 4.72 4 4 0 0 1-4.72-3.119zm-1.821-10h-.01a3.99 3.99 0 0 1 3.319-4.58 3.981 3.981 0 0 1 4.58 3.31 3.994 3.994 0 0 1-3.31 4.58c-.221.04-.431.05-.641.05a3.992 3.992 0 0 1-3.938-3.36zm-1.38-10.101a4 4 0 0 1 3.529-4.42 4.014 4.014 0 0 1 4.421 3.53 4.009 4.009 0 0 1-3.53 4.42c-.15.02-.3.03-.45.03a4.008 4.008 0 0 1-3.97-3.56zm-.87-10.179a4.001 4.001 0 0 1 3.76-4.22 4.003 4.003 0 0 1 4.23 3.76 4.012 4.012 0 0 1-3.771 4.229h-.229c-2.1 0-3.87-1.639-3.99-3.769zm3.7-6.22a3.987 3.987 0 0 1-3.971-4.021h-.01a3.998 3.998 0 0 1 4.021-3.979c2.21.01 4 1.81 3.979 4.02-.01 2.2-1.8 3.98-4 3.98h-.019zm.121-10a4.001 4.001 0 0 1-3.671-4.311 4.015 4.015 0 0 1 4.311-3.67c2.2.18 3.84 2.11 3.67 4.31a4.013 4.013 0 0 1-3.99 3.681c-.111 0-.211 0-.32-.01zm.869-9.971a3.998 3.998 0 1 1 1.42-7.87 4.002 4.002 0 0 1 3.23 4.641 4.001 4.001 0 0 1-3.93 3.29c-.24 0-.48-.021-.72-.061zm1.66-9.91a4.017 4.017 0 0 1-2.12-5.25 4.001 4.001 0 0 1 5.24-2.119 4 4 0 0 1 2.13 5.239 4.014 4.014 0 0 1-3.689 2.44 4.076 4.076 0 0 1-1.561-.31z"/><path fill="#FFF" fill-rule="evenodd" d="M65.796 535.87c4.248-19.865 23.796-32.525 43.661-28.277l96.109 20.552c19.865 4.248 32.525 23.796 28.277 43.661l-20.552 96.109c-4.248 19.865-23.796 32.525-43.661 28.277L73.521 675.64c-19.865-4.248-32.525-23.796-28.277-43.661l20.552-96.109z" clip-rule="evenodd"/><path fill="#FFD829" d="M98.257 638.356c.576 1.837.94 3.81.869 5.651l-1.447 9.606 60.943 13.032 2.444-10.905c.139-.263 2.911-5.543 7.233-9.643a18.162 18.162 0 0 0 6.955-12.142l3.395-16.745 4.247-20.947 1.399-7.451.004-.008a9.488 9.488 0 0 0-18.596-3.771 9.995 9.995 0 0 0-.131.88l-1.269 6.583-.079-.017 1.566-8.034 1.285-6.294c.824-5.915-4.031-11.466-10.671-10.724-3.997.447-7.178 3.588-8.006 7.524-.149.709 3.157-14.736 3.126-14.44l-5.893 28.201-.078-.016 6.067-29.061 2.564-12.047-.082.376c1.04-5.134-2.194-10.526-7.328-11.569-5.133-1.043-10.14 2.277-11.181 7.411-.061.296-2.707 12.628-2.738 12.919l-5.894 28.201-.078-.017.895-37.186c.351-4.696-2.831-9.029-7.569-9.992a9.478 9.478 0 0 0-3.107-.111c-4.394.574-7.641 4.413-7.899 8.837l-2.474 42.397h-.009c-2.697-.154-5.124 1.599-5.521 4.271l-4.355 29.26c-.798 5.362-.208 10.8 1.413 15.971z"/><path d="M158.624 668.146a1.53 1.53 0 0 1-.314-.033L97.366 655.08a1.5 1.5 0 0 1-1.17-1.69l1.435-9.521c.046-1.487-.232-3.236-.805-5.063-1.774-5.656-2.268-11.255-1.466-16.639l4.354-29.26c.428-2.88 2.722-5.041 5.595-5.479l2.396-41.055c.309-5.276 4.179-9.582 9.202-10.238a10.86 10.86 0 0 1 3.599.129c5.409 1.098 9.178 6.073 8.768 11.572l-.508 21.121 2.615-12.514c.067-.379.402-1.994 2.366-11.174l.376-1.764a10.914 10.914 0 0 1 4.697-6.971 10.909 10.909 0 0 1 8.252-1.608c5.622 1.142 9.442 6.86 8.612 12.688-.002.095-.013.19-.033.287l-2.64 12.414a1.512 1.512 0 0 1-.018.504l-1.431 6.846a10.402 10.402 0 0 1 4.675-1.727c3.522-.403 6.921.786 9.311 3.241a10.914 10.914 0 0 1 3.058 8.816 10.963 10.963 0 0 1 8.578-1.843c5.938 1.203 9.789 7.013 8.586 12.95l-.014.062-1.385 7.376-7.635 37.658c-.65 5.113-3.364 9.858-7.458 13.038-3.693 3.523-6.236 8.009-6.792 9.031l-2.399 10.705a1.501 1.501 0 0 1-1.463 1.174zm-59.251-15.705 58.111 12.427 2.119-9.456c.029-.13.076-.256.139-.374.516-.976 3.283-6.004 7.525-10.028.037-.036.076-.069.117-.101 3.514-2.706 5.84-6.766 6.382-11.138.004-.038.011-.076.019-.113l7.642-37.692 1.396-7.43c.006-.03.012-.061.02-.091.835-4.294-1.959-8.481-6.254-9.353-4.313-.867-8.538 1.925-9.414 6.239a8.426 8.426 0 0 0-.109.741 1.279 1.279 0 0 1-.019.124l-1.27 6.584c-.076.397-.311.747-.649.97s-.753.3-1.148.21c-.794-.176-1.382-.971-1.227-1.769l1.565-8.033 1.288-6.307c.326-2.365-.472-4.798-2.207-6.58-1.763-1.812-4.195-2.642-6.827-2.354-2.823.316-5.279 2.337-6.333 5.082l-3.139 15.02a1.5 1.5 0 0 1-1.784 1.16c-.807-.174-1.398-.982-1.23-1.79l2.813-13.474c.002-.091.013-.183.032-.274l.031-.143.83-3.861 4.83-22.913.011-.058c.9-4.452-1.919-8.94-6.158-9.802a7.936 7.936 0 0 0-5.997 1.169 7.936 7.936 0 0 0-3.415 5.069l-.382 1.792c-.617 2.885-2.256 10.546-2.344 11.056l-5.908 28.282a1.504 1.504 0 0 1-1.798 1.157c-.698-.157-1.266-.803-1.249-1.518l.896-37.186c.303-4.071-2.437-7.687-6.368-8.485a8 8 0 0 0-2.613-.094c-3.598.47-6.372 3.599-6.597 7.438l-2.474 42.396a1.499 1.499 0 0 1-1.497 1.413c-2.061-.108-3.776 1.171-4.047 2.991l-4.354 29.26c-.733 4.932-.275 10.08 1.362 15.3v.001c.693 2.215 1.009 4.286.937 6.156a1.529 1.529 0 0 1-.016.166l-1.238 8.214z"/><path d="m194.37 644.789 15.502 33.333 34.45-12.83-16.395 32.903 31.51 18.934-35.946 7.697 4.842 36.441-28.43-23.306-25.471 26.507.495-36.758-36.605-3.388 29.048-22.531-20.174-30.731 35.726 8.662z"/><path fill="#FFF" d="M603.995 590.437a2 2 0 0 1-1.76-2.21 1.985 1.985 0 0 1 2.21-1.76 2.008 2.008 0 0 1 1.77 2.21 2.015 2.015 0 0 1-1.989 1.779c-.081 0-.151-.01-.231-.019zm8.21-1.831c-.12-1.1.68-2.08 1.771-2.2a2.01 2.01 0 0 1 2.21 1.78 2.008 2.008 0 0 1-1.78 2.2c-.07.01-.14.01-.22.01a2 2 0 0 1-1.981-1.79zm9.88-1.509c-.27-1.07.37-2.16 1.44-2.44a2.01 2.01 0 0 1 2.439 1.44 2.01 2.01 0 0 1-1.439 2.439 2.016 2.016 0 0 1-2.44-1.439zm-28.26.7h-.01a2 2 0 0 1-1.04-2.631 1.994 1.994 0 0 1 2.62-1.05 1.997 1.997 0 0 1 1.05 2.63 1.987 1.987 0 0 1-1.84 1.21c-.26 0-.53-.05-.78-.159zm37.82-3.631a2 2 0 0 1 1.069-2.619 1.997 1.997 0 0 1 2.62 1.06 1.999 1.999 0 0 1-1.069 2.62c-.25.11-.511.16-.771.16-.779 0-1.519-.45-1.849-1.221zm-46.76-1.909a2.01 2.01 0 0 1-.27-2.82 2 2 0 0 1 2.82-.26 2 2 0 0 1 .26 2.819c-.391.471-.96.721-1.54.721-.45 0-.9-.151-1.27-.46zm55.78-2.401c-.58-.94-.29-2.17.65-2.75.939-.58 2.17-.3 2.75.65.59.939.3 2.17-.641 2.75-.33.199-.699.3-1.05.3a2.013 2.013 0 0 1-1.709-.95zm-63.04-4.96c-.71-.85-.6-2.11.24-2.82.85-.71 2.11-.6 2.82.24.71.85.6 2.11-.24 2.82a2 2 0 0 1-1.29.47c-.57 0-1.139-.24-1.53-.71zm71.28-.7c-.73-.83-.64-2.1.189-2.82a1.997 1.997 0 0 1 2.82.19c.73.83.64 2.09-.189 2.82a2 2 0 0 1-1.311.489 1.989 1.989 0 0 1-1.509-.679zm-77.49-7.3a2 2 0 0 1 .42-2.8 1.995 1.995 0 0 1 2.79.42c.66.88.48 2.14-.41 2.79-.359.27-.779.399-1.189.399a2.006 2.006 0 0 1-1.611-.809zm84.67.35c-.87-.699-1-1.949-.31-2.819v.01a1.984 1.984 0 0 1 2.81-.311c.86.69 1 1.95.311 2.811-.4.49-.98.75-1.561.75-.44 0-.88-.151-1.25-.441zm-90.69-8.22a2 2 0 0 1 .279-2.81c.86-.7 2.12-.57 2.82.279.69.86.57 2.12-.29 2.82-.37.3-.82.44-1.26.44a1.984 1.984 0 0 1-1.549-.729zm-89.81.55c-1.1-.01-2-.91-1.99-2.01.011-1.11.91-2 2.021-1.99h-.01a2 2 0 0 1 1.989 2.011c0 1.1-.899 1.989-2 1.989h-.01zm186.3-.46a2 2 0 0 1-.83-2.7c.521-.979 1.73-1.359 2.7-.84.98.521 1.351 1.73.84 2.71a2.021 2.021 0 0 1-1.77 1.061c-.32 0-.64-.071-.94-.231zm-178.34-2.29c-.25-1.08.42-2.16 1.49-2.41 1.08-.25 2.15.41 2.41 1.49.25 1.08-.42 2.15-1.49 2.41-.16.03-.31.05-.46.05-.91 0-1.729-.62-1.95-1.54zm-18.42 1.04a1.99 1.99 0 0 1-1.24-2.54 1.986 1.986 0 0 1 2.54-1.239 1.997 1.997 0 0 1 1.24 2.539 2.004 2.004 0 0 1-1.89 1.351c-.22 0-.44-.04-.65-.111zm28.03-3.779c-.38-1.04.14-2.19 1.17-2.58a2 2 0 0 1 2.58 1.17 1.99 1.99 0 0 1-1.17 2.569c-.23.091-.47.13-.7.13-.81 0-1.57-.489-1.88-1.289zm-37.33-1.381c-.86-.699-1-1.949-.31-2.819a1.99 1.99 0 0 1 2.81-.3 2 2 0 0 1 .31 2.81c-.39.49-.97.75-1.56.75a2.035 2.035 0 0 1-1.25-.441zm102.96-.76v.01a2.007 2.007 0 0 1-.15-2.83 2.007 2.007 0 0 1 2.83-.14c.82.74.88 2 .141 2.82-.391.439-.94.66-1.48.66a1.959 1.959 0 0 1-1.341-.52zm-56.34-1.58a1.996 1.996 0 0 1 1.05-2.63 2 2 0 0 1 2.63 1.05 2.016 2.016 0 0 1-1.05 2.63 2.009 2.009 0 0 1-2.63-1.05zm163.58-.34a1.998 1.998 0 0 1-1.351-2.49h-.01a2.005 2.005 0 0 1 2.49-1.35 2 2 0 0 1 1.35 2.49 2.02 2.02 0 0 1-1.92 1.43c-.189 0-.369-.03-.559-.08zm-154.38-3.599c-.41-1.03.09-2.19 1.109-2.601 1.03-.41 2.19.08 2.601 1.11a1.994 1.994 0 0 1-1.11 2.6 1.89 1.89 0 0 1-.74.141c-.8 0-1.54-.471-1.86-1.25zm39.42.029a2.01 2.01 0 0 1-.82-2.71 2 2 0 0 1 2.71-.819c.97.52 1.34 1.729.82 2.71a2 2 0 0 1-1.771 1.05c-.309 0-.639-.071-.939-.231zm-102.36-1.569c-.62-.92-.37-2.16.561-2.771a1.992 1.992 0 0 1 2.77.561c.61.92.36 2.16-.56 2.77-.341.22-.721.33-1.101.33a1.99 1.99 0 0 1-1.67-.89zm72.311-1.96a1.992 1.992 0 0 1 1.38-2.46 1.99 1.99 0 0 1 2.47 1.37c.3 1.06-.32 2.17-1.38 2.47-.181.05-.36.08-.55.08-.871 0-1.67-.58-1.92-1.46zm21.239.25a2.004 2.004 0 0 1-1.52-2.391 2.01 2.01 0 0 1 2.399-1.51 2.006 2.006 0 0 1 1.511 2.39 2.004 2.004 0 0 1-1.95 1.561c-.15 0-.3-.01-.44-.05zm-11.5-2.481c-.08-1.1.75-2.06 1.851-2.14 1.1-.08 2.06.74 2.14 1.84.08 1.11-.74 2.06-1.84 2.15h-.15a2.005 2.005 0 0 1-2.001-1.85zm137.511-.399a1.998 1.998 0 0 1-1.82-2.171 1.996 1.996 0 0 1 2.16-1.819c1.1.1 1.92 1.069 1.819 2.17a1.992 1.992 0 0 1-1.989 1.82h-.17zm-224.031-4.981c-.32-1.06.29-2.17 1.35-2.479a1.992 1.992 0 0 1 2.48 1.35 2.01 2.01 0 0 1-1.351 2.49 1.995 1.995 0 0 1-2.479-1.361zm222.12-6.799a2.004 2.004 0 0 1 1.79-2.19c1.1-.109 2.08.69 2.189 1.79a1.998 1.998 0 0 1-1.79 2.19c-.069.01-.14.01-.2.01a1.997 1.997 0 0 1-1.989-1.8zm-221.52-1.641a2.007 2.007 0 0 1-1.97-2.029c.02-1.101.93-1.99 2.03-1.971a2 2 0 0 1-.03 4h-.03zm219.01-7.76c-.25-1.08.41-2.16 1.48-2.41a2.01 2.01 0 0 1 2.42 1.48h-.01c.26 1.08-.4 2.16-1.48 2.41-.149.04-.31.06-.46.06-.91 0-1.73-.62-1.95-1.54zm-218.32-2.21a2.01 2.01 0 0 1-1.721-2.25 2.008 2.008 0 0 1 2.261-1.71 1.998 1.998 0 0 1 1.71 2.25c-.141 1-1 1.73-1.98 1.73-.09.001-.18-.01-.27-.02zm216.41-7.8c-.16-1.09.6-2.1 1.699-2.26 1.091-.16 2.101.6 2.261 1.689v.011a1.997 1.997 0 0 1-1.7 2.26 2.008 2.008 0 0 1-2.26-1.7zm-215.15-2.12c-1.1-.05-1.95-.99-1.9-2.1a1.99 1.99 0 0 1 2.101-1.891 2 2 0 0 1 1.899 2.091 2.006 2.006 0 0 1-2 1.899l-.1.001zm214.25-8.059a1.996 1.996 0 1 1 3.991-.121c.04 1.1-.83 2.02-1.94 2.06h-.06a1.998 1.998 0 0 1-1.991-1.939zm-216.54-3.63a2.002 2.002 0 0 1 1.71-2.25c1.09-.15 2.1.609 2.25 1.71.16 1.09-.61 2.1-1.7 2.25-.09.01-.189.02-.279.02a2.01 2.01 0 0 1-1.981-1.73zm218.7-4.431a2.002 2.002 0 0 1-1.75-2.229 1.987 1.987 0 0 1 2.22-1.74 1.999 1.999 0 0 1 1.75 2.22 1.998 1.998 0 0 1-1.99 1.76c-.07-.001-.15-.001-.23-.011zm-220.99-4.83h.01a1.99 1.99 0 0 1 1.19-2.56c1.04-.38 2.189.16 2.57 1.2a2.009 2.009 0 0 1-1.2 2.56 2.005 2.005 0 0 1-2.57-1.2zm222.75-5.01c-1.05-.36-1.6-1.5-1.24-2.54.36-1.05 1.5-1.6 2.54-1.24 1.04.36 1.601 1.5 1.24 2.54a2.004 2.004 0 0 1-1.89 1.351c-.22 0-.44-.04-.65-.111zm-226.92-3.599a2 2 0 0 1 .66-2.75c.939-.57 2.17-.28 2.75.66.58.949.28 2.18-.66 2.76-.33.2-.69.29-1.05.29-.67 0-1.33-.34-1.7-.96zm230.94-5.531a1.997 1.997 0 1 1 2.34-3.24c.899.65 1.09 1.9.45 2.79-.391.54-1.011.83-1.62.83-.41 0-.82-.13-1.17-.38zm-236.65-2.27c-.72-.84-.62-2.1.22-2.819a2 2 0 0 1 2.82.229c.72.84.61 2.101-.23 2.82-.369.32-.83.47-1.29.47a1.95 1.95 0 0 1-1.52-.7zm243.29-5.17a2 2 0 0 1 .5-2.779h.01c.9-.63 2.15-.4 2.78.51.62.91.399 2.15-.51 2.78-.351.239-.75.359-1.141.359a1.989 1.989 0 0 1-1.639-.87zm-250.05-1.909c-.8-.771-.83-2.03-.061-2.83a2.003 2.003 0 0 1 2.83-.07c.79.76.82 2.03.061 2.83-.391.41-.92.62-1.45.62-.49 0-.99-.191-1.38-.55zm-7.36-6.62a1.978 1.978 0 0 1-.21-2.811c.71-.84 1.97-.939 2.81-.22.841.72.94 1.979.221 2.82-.391.46-.96.699-1.521.699-.46.001-.92-.158-1.3-.488zm-7.64-6.42a2 2 0 0 1-.25-2.82c.71-.85 1.97-.96 2.819-.25.841.71.96 1.97.25 2.82-.399.47-.97.71-1.54.71-.449 0-.909-.151-1.279-.46zm-7.65-6.551h.01a1.986 1.986 0 0 1-.17-2.819c.73-.83 1.99-.9 2.82-.17.83.729.9 2 .17 2.819-.4.45-.95.681-1.5.681-.47 0-.94-.17-1.33-.511zm-7.37-6.949c-.77-.79-.76-2.051.03-2.83a2.003 2.003 0 0 1 2.83.029c.77.78.76 2.051-.03 2.82-.39.39-.89.58-1.399.58-.521 0-1.031-.2-1.431-.599zm-6.76-7.651c-.68-.87-.53-2.13.34-2.81.87-.681 2.13-.53 2.811.34.68.87.529 2.13-.341 2.81-.369.29-.8.42-1.229.42-.6 0-1.191-.26-1.581-.76zm-5.81-8.429a2.009 2.009 0 0 1 .68-2.75c.95-.57 2.18-.261 2.75.68.57.95.26 2.18-.69 2.75-.319.19-.67.29-1.02.29a2.023 2.023 0 0 1-1.72-.97zm-4.7-9.12a1.999 1.999 0 0 1 1.04-2.63 2.003 2.003 0 0 1 2.63 1.04 2.005 2.005 0 0 1-1.04 2.63c-.26.109-.53.16-.8.16-.77 0-1.51-.45-1.83-1.2zm-3.38-9.72c-.28-1.07.35-2.16 1.42-2.45a1.996 1.996 0 0 1 2.439 1.43c.29 1.07-.35 2.16-1.42 2.44-.17.05-.34.069-.51.069a2.013 2.013 0 0 1-1.929-1.489zm-1.79-10.181c-.09-1.1.72-2.069 1.819-2.16 1.101-.1 2.07.721 2.17 1.82.091 1.1-.72 2.07-1.819 2.16-.061.01-.12.01-.181.01a2 2 0 0 1-1.989-1.83zm1.86-8.16a2.006 2.006 0 0 1-1.8-2.189 1.989 1.989 0 0 1 2.18-1.79c1.101.1 1.91 1.08 1.801 2.18a2.008 2.008 0 0 1-1.99 1.811c-.061-.001-.131-.012-.191-.012zm1.47-9.89a1.988 1.988 0 0 1-1.41-2.45 2 2 0 0 1 2.45-1.41 1.993 1.993 0 0 1 1.409 2.45 2.003 2.003 0 0 1-1.93 1.48 1.823 1.823 0 0 1-.519-.07zm3.03-9.519a1.997 1.997 0 0 1-1.04-2.631 2.005 2.005 0 0 1 2.63-1.05 2.015 2.015 0 0 1 1.04 2.641v-.011a2.004 2.004 0 0 1-1.84 1.21c-.27 0-.53-.05-.79-.159zm4.34-9.011a1.993 1.993 0 0 1-.689-2.739c.57-.95 1.8-1.261 2.74-.69.949.57 1.26 1.8.689 2.74-.37.63-1.04.979-1.72.979-.35 0-.7-.099-1.02-.29zm5.461-8.37a2.006 2.006 0 0 1-.351-2.81 2.003 2.003 0 0 1 2.811-.34c.869.68 1.02 1.939.34 2.81a2.007 2.007 0 0 1-2.8.34zm6.449-7.64a1.996 1.996 0 0 1 0-2.83c.78-.78 2.051-.78 2.83 0 .78.78.78 2.05-.01 2.83-.39.39-.9.59-1.41.59-.51 0-1.02-.2-1.41-.59zm7.33-6.799c-.68-.87-.529-2.13.34-2.811a1.997 1.997 0 0 1 2.811.351c.68.87.52 2.12-.351 2.81-.359.28-.8.42-1.229.42a2.002 2.002 0 0 1-1.571-.77zm8.09-5.861c-.569-.95-.26-2.18.69-2.75a2 2 0 0 1 2.059 3.43 2.07 2.07 0 0 1-1.029.289 2.017 2.017 0 0 1-1.72-.969zm8.76-4.83a2.001 2.001 0 0 1 1.02-2.64c1.01-.44 2.19.02 2.63 1.03a1.99 1.99 0 0 1-1.02 2.63h.01c-.27.12-.54.17-.82.17-.76.001-1.49-.44-1.82-1.19zm9.25-3.779a1.994 1.994 0 0 1 1.189-2.561c1.04-.38 2.181.15 2.57 1.18.38 1.04-.15 2.19-1.19 2.57a2.01 2.01 0 0 1-2.569-1.189zm9.36-3.511a2.005 2.005 0 0 1 1.05-2.63 2.001 2.001 0 0 1 2.631 1.05 1.988 1.988 0 0 1-1.051 2.62c-.25.12-.52.17-.79.17-.77 0-1.51-.449-1.84-1.21zm9-4.349a2.01 2.01 0 0 1 .561-2.78 2 2 0 0 1 2.77.561c.61.92.36 2.159-.55 2.77-.34.23-.73.34-1.11.34a2.032 2.032 0 0 1-1.671-.891zm7.88-6.151a2.008 2.008 0 0 1-.239-2.819 2.006 2.006 0 0 1 2.819-.24c.851.72.95 1.979.24 2.82-.4.47-.96.71-1.53.71-.46 0-.92-.151-1.29-.471zm5.53-8.29a2.006 2.006 0 0 1-1.36-2.489 2.01 2.01 0 0 1 2.49-1.351 1.995 1.995 0 0 1 1.351 2.48 2.017 2.017 0 0 1-1.92 1.439 2.028 2.028 0 0 1-.561-.079zM679.493 455.324c-6.438 6.737-17.118 6.98-23.855.542-6.737-6.438-6.98-17.118-.542-23.855 6.438-6.737 20.543-7.289 53.008-6.629l-28.611 29.942zM684.879 459.542c-5.246 7.701-3.255 18.197 4.447 23.443 7.701 5.246 18.197 3.255 23.443-4.447 5.246-7.701 2.843-21.612-4.576-53.224l-23.314 34.228z"/><circle cx="706.964" cy="427.331" r="9.486"/><path d="M0 0h1080v4H0zM0 1076h1080v4H0z"/><path fill="#FFD829" d="M170.282 364.029c-29.086 12.789-42.297 46.736-29.507 75.821 12.789 29.086 46.736 42.297 75.821 29.507 29.086-12.789 42.296-46.736 29.507-75.821-12.789-29.085-46.736-42.296-75.821-29.507zm27.973 37.758c-3.059-6.957-2.951-13.734.241-15.137 3.192-1.403 8.259 3.098 11.318 10.055 3.059 6.957 2.951 13.734-.241 15.137-3.192 1.404-8.259-3.098-11.318-10.055zm-30.886 13.581c-3.059-6.957-2.951-13.734.241-15.137 3.192-1.403 8.259 3.098 11.318 10.055 3.059 6.957 2.951 13.734-.241 15.137-3.191 1.403-8.259-3.099-11.318-10.055zm55.946-3.582c6.762 13.877.993 30.608-12.884 37.369s-30.608.993-37.369-12.884"/><path fill="#FFD829" d="M172.376 498.563c-1.493 0-2.966-.193-4.406-.661-5.229-1.697-8.667-6.337-11.992-10.823-2.223-2.999-4.322-5.832-6.806-7.64-2.531-1.842-5.907-2.983-9.482-4.191-5.255-1.775-10.688-3.611-13.875-7.99-3.15-4.329-3.228-10.037-3.302-15.556-.051-3.801-.1-7.39-1.083-10.418-.925-2.85-2.941-5.679-5.076-8.673-3.264-4.578-6.639-9.312-6.639-14.918s3.375-10.34 6.639-14.918c2.136-2.994 4.152-5.823 5.077-8.672.983-3.028 1.032-6.618 1.083-10.418.074-5.52.15-11.228 3.302-15.557 3.187-4.379 8.62-6.215 13.875-7.99 3.575-1.208 6.951-2.35 9.482-4.191 2.484-1.808 4.583-4.641 6.807-7.64 3.324-4.486 6.763-9.125 11.989-10.822 4.996-1.624 10.395.052 15.615 1.671 3.523 1.093 7.167 2.223 10.445 2.223s6.922-1.13 10.446-2.223c5.22-1.619 10.617-3.295 15.615-1.671 5.227 1.697 8.665 6.337 11.99 10.823 2.223 2.999 4.322 5.832 6.807 7.64 2.531 1.842 5.907 2.982 9.481 4.19 5.255 1.775 10.688 3.612 13.875 7.99 3.151 4.329 3.228 10.037 3.302 15.558.051 3.8.1 7.389 1.083 10.417.925 2.849 2.941 5.678 5.077 8.672 3.264 4.578 6.639 9.312 6.639 14.918 0 5.607-3.375 10.341-6.639 14.919-2.136 2.994-4.152 5.823-5.077 8.672-.983 3.028-1.032 6.617-1.083 10.417-.074 5.521-.15 11.229-3.302 15.558-3.187 4.379-8.62 6.215-13.875 7.99-3.575 1.208-6.951 2.35-9.482 4.191-2.484 1.808-4.584 4.641-6.807 7.64-3.325 4.486-6.763 9.125-11.989 10.822-4.996 1.62-10.395-.053-15.616-1.671-3.523-1.093-7.167-2.223-10.445-2.223s-6.922 1.13-10.445 2.223c-3.716 1.152-7.522 2.332-11.208 2.332zm.018-157.741c-1.112 0-2.179.14-3.189.468-4.011 1.302-6.926 5.235-10.013 9.399-2.304 3.109-4.687 6.324-7.666 8.492-3.025 2.201-6.854 3.495-10.555 4.746-4.877 1.648-9.484 3.205-11.922 6.555-2.403 3.302-2.468 8.138-2.537 13.257-.053 3.931-.107 7.995-1.277 11.6-1.115 3.435-3.408 6.649-5.625 9.759-3.031 4.253-5.896 8.269-5.896 12.596 0 4.326 2.863 8.343 5.896 12.596 2.217 3.109 4.509 6.325 5.624 9.76 1.17 3.604 1.226 7.669 1.278 11.599.068 5.12.134 9.955 2.536 13.257 2.438 3.35 7.044 4.906 11.922 6.555 3.702 1.251 7.529 2.545 10.555 4.746 2.979 2.168 5.362 5.383 7.666 8.492 3.087 4.164 6.002 8.099 10.013 9.4 3.788 1.228 8.355-.187 13.195-1.688 3.808-1.181 7.746-2.401 11.63-2.401s7.822 1.221 11.63 2.401c4.838 1.501 9.403 2.917 13.196 1.688 4.01-1.302 6.925-5.235 10.011-9.399 2.305-3.109 4.688-6.324 7.667-8.492 3.025-2.201 6.854-3.495 10.555-4.746 4.877-1.648 9.484-3.205 11.922-6.555 2.403-3.302 2.468-8.138 2.537-13.258.053-3.931.107-7.994 1.277-11.6 1.115-3.434 3.407-6.648 5.624-9.758 3.032-4.253 5.896-8.27 5.896-12.597s-2.864-8.343-5.896-12.596c-2.217-3.109-4.51-6.324-5.625-9.758-1.17-3.605-1.225-7.67-1.277-11.6-.069-5.12-.134-9.956-2.537-13.258-2.438-3.35-7.045-4.906-11.922-6.555-3.701-1.251-7.529-2.544-10.554-4.745-2.979-2.168-5.362-5.383-7.667-8.492-3.086-4.165-6.002-8.099-10.013-9.4-3.783-1.229-8.356.188-13.194 1.687-3.809 1.182-7.746 2.402-11.631 2.402-3.884 0-7.821-1.221-11.63-2.402-3.546-1.1-6.948-2.155-10.004-2.155zM950.762 160.002l-6.791-12.416-12.415-6.79 12.415-6.79 6.791-12.416 6.79 12.416 12.415 6.79-12.415 6.79zM1011.665 479.745l-6.79-12.415-12.416-6.791 12.416-6.79 6.79-12.415 6.79 12.415 12.416 6.79-12.416 6.791zM1030.871 405.599l-6.791-12.415-12.415-6.791 12.415-6.79 6.791-12.415 6.79 12.415 12.416 6.79-12.416 6.791z"/></svg>
