<svg xmlns="http://www.w3.org/2000/svg" viewBox="0 0 1925 1050" xml:space="preserve"><path fill="#FFF" d="M1031.38 966.63c-44.2 0-87.13-4.98-127.22-15-100.75-25.18-177.66-93.17-216.55-191.45-40.9-103.36-48.5-218.97-22-334.34 20.61-89.76 90.67-178.85 150.95-227.33 36.18-29.09 77.74-52.52 123.52-69.63 43.66-16.33 90.28-26.6 138.57-30.57 61.49-5.03 123.1.15 182.67 5.17 52.2 4.4 106.18 8.94 159.9 6.6 16.04-.7 32.52-1.67 48.47-2.6 104.14-6.1 211.81-12.39 303.86 45.31 43.33 27.16 78.28 65.69 103.88 114.52 23.08 44.03 37.74 95.75 42.37 149.56 7.67 89.05-11.27 171.6-53.33 232.45-26.4 38.2-66.56 68.7-122.77 93.26-48.3 21.1-100.44 34.38-149.59 45.58-73.33 16.7-142.05 49.1-208.5 80.41-56.99 26.85-115.91 54.62-177.67 72.52-58.58 16.98-118.65 25.53-176.56 25.54zm100.5-865.37c-17.6 0-35.22.6-52.82 2.04-47.83 3.92-94 14.1-137.23 30.26-45.28 16.93-86.37 40.1-122.13 68.85-33.09 26.6-65.81 62.54-92.14 101.19-28.37 41.65-48.11 84.3-57.08 123.36-26.27 114.38-18.74 228.97 21.78 331.38C730.54 855.08 806.23 922 905.37 946.78c91.77 22.93 198.73 19.2 301.17-10.49 61.39-17.79 120.13-45.47 176.94-72.24 66.7-31.43 135.66-63.94 209.52-80.77 48.9-11.14 100.78-24.34 148.7-45.28 55.33-24.18 94.8-54.11 120.66-91.52 41.4-59.9 60.02-141.28 52.46-229.18-4.58-53.15-19.04-104.22-41.82-147.66-25.19-48.04-59.54-85.93-102.1-112.61-90.7-56.85-197.57-50.6-300.92-44.56-15.96.93-32.47 1.9-48.55 2.6l-.1-2.5.1 2.5c-54.04 2.36-108.18-2.2-160.53-6.6-42.27-3.56-85.56-7.21-129.03-7.21z"/><path fill="#FFF" d="m976.67 942.88-24.63 16.7 10.11 28-29.76-.98-8.25 28.6-23.5-18.3-23.49 18.3-8.26-28.6-29.75.98 10.11-28-24.63-16.7 24.63-16.7-10.11-27.99 29.75.98 8.26-28.61 23.49 18.3 23.5-18.3 8.25 28.61 29.76-.98-10.11 27.99zm60.68-78.89c-63.02 0-112.6-16.16-151.18-49.2-37.47-32.1-66.28-73.16-85.63-122.07-30.6-77.34-36.3-163.84-16.47-250.16 15.43-67.2 67.87-133.9 113-170.2 53.38-42.92 121.2-68.85 196.15-74.99 46-3.77 92.05.11 136.58 3.86 38.98 3.28 79.29 6.67 119.38 4.93 12-.53 25.82-1.34 40.45-2.2 95.06-5.55 238.7-13.96 307.64 29.25 62.15 38.96 102.09 111.05 109.56 197.78 5.74 66.68-8.45 128.5-39.95 174.08-43.86 63.46-175.33 93.41-245.95 109.5l-.9.21c-54.72 12.47-106.03 36.65-155.65 60.03-42.6 20.08-86.64 40.84-132.83 54.22-56.77 16.46-117.57 32.04-177.55 34.6-5.65.24-11.2.36-16.65.36zm95.69-663.16c-13.13 0-26.28.45-39.4 1.52-73.95 6.06-140.84 31.62-193.44 73.91-44.45 35.75-96.1 101.38-111.26 167.42-19.6 85.33-13.98 170.81 16.25 247.2 19.05 48.15 47.39 88.56 84.24 120.11 40.9 35.03 94.67 50.62 164.36 47.64 59.45-2.54 119.9-18.03 176.37-34.4 45.8-13.28 89.67-33.95 132.1-53.94 49.85-23.5 101.41-47.8 156.66-60.38l.9-.2c69.96-15.95 200.19-45.63 242.94-107.48 30.85-44.62 44.73-105.28 39.08-170.8-7.33-85.16-46.41-155.86-107.23-193.98-67.58-42.36-210.27-34.02-304.69-28.49a2921 2921 0 0 1-40.52 2.2l-.1-2.5.1 2.5c-40.41 1.76-80.88-1.65-120.02-4.95-31.56-2.65-63.89-5.38-96.34-5.38z"/><path fill="#FFF" d="M1092.48 763h-1.6c-53.64-.34-95.76-17.53-128.75-52.55-18.02-19.15-33.03-43.67-44.59-72.9-22.37-56.54-26.54-119.78-12.04-182.87 11.3-49.19 49.65-97.98 82.66-124.53 39.04-31.4 88.65-50.36 143.45-54.85 38-3.11 76.55-.8 113.83 1.43 8.75.52 17.8 1.06 26.68 1.53 14.18.73 29.3.93 46.24.6 19.48-.38 39.26-1.42 58.38-2.43 11.14-.6 22.66-1.2 34.06-1.67 16.69-.7 33.13-2.31 49.03-3.87 47.32-4.63 92.03-9.02 139.52 9.85 60.45 24.02 98.78 80.3 105.16 154.4 3.27 38.06-.37 92.13-36.32 133.62-25.12 28.99-58.3 39.27-93.44 50.15-4.46 1.38-9.07 2.8-13.62 4.26-40 12.81-81.87 22.66-117.97 30.89-39.85 9.08-77.24 26.7-113.4 43.74-31.1 14.65-63.25 29.8-97 39.59-42.8 12.4-92.4 25.6-140.28 25.6zm79.02-484.21c-13.19 0-26.38.42-39.48 1.5-53.8 4.4-102.47 23-140.73 53.76-32.33 26-69.9 73.73-80.92 121.75-14.27 62.1-10.18 124.32 11.82 179.92 11.33 28.63 26 52.62 43.58 71.3 32 33.98 72.94 50.65 125.15 50.97h1.56c47.22 0 96.41-13.1 138.88-25.4 33.37-9.67 65.34-24.74 96.26-39.31 36.4-17.16 74.05-34.9 114.43-44.1 36-8.2 77.74-18.02 117.56-30.77 4.57-1.46 9.19-2.9 13.66-4.28 34.43-10.66 66.96-20.74 91.14-48.64 19.21-22.18 40.9-62.71 35.12-129.92-6.22-72.15-43.4-126.89-102.03-150.18-46.36-18.42-90.48-14.1-137.18-9.52-15.97 1.56-32.49 3.18-49.32 3.88-11.37.48-22.87 1.08-34 1.67-19.16 1.01-38.98 2.06-58.54 2.44l-.05-2.5.05 2.5c-17.05.33-32.3.13-46.6-.61-8.9-.46-17.96-1-26.72-1.53-24.19-1.45-48.92-2.93-73.64-2.93zm612.32 397.17-26.72 13.11 6.11 29.13-29.32-5.11-12.16 27.17-20.72-21.39-25.81 14.85-4.19-29.48-29.6-3.17 13.91-26.31-22.07-19.97 26.72-13.11-6.11-29.13 29.33 5.12 12.15-27.18 20.72 21.39 25.82-14.85 4.18 29.48 29.6 3.17-13.9 26.31z"/><path d="M1740.76 721.33a47.86 47.86 0 0 0-54.36-47.41 47.86 47.86 0 0 0-95.13.34 47.86 47.86 0 1 0-12.35 94.77v.16h120.36v-.44a47.86 47.86 0 0 0 41.48-47.42zM1625.95 838.4a23.4 23.4 0 1 1-46.81 0c0-12.93 23.4-50.72 23.4-50.72s23.41 37.79 23.41 50.72zm62.42 0a23.4 23.4 0 1 1-46.81 0c0-12.93 23.4-50.72 23.4-50.72s23.41 37.79 23.41 50.72z"/><path fill="#FFF" d="M1151.33 646.97h-.97c-32.61-.2-58.22-10.66-78.29-31.97-10.95-11.62-20.05-26.5-27.06-44.23-13.56-34.25-16.08-72.55-7.3-110.76 6.85-29.86 30.12-59.47 50.14-75.57 23.68-19.03 53.75-30.54 86.96-33.26 22.97-1.88 46.23-.49 68.72.86 5.36.32 10.71.64 16.06.92 8.52.44 17.6.56 27.79.36l.05 2.5-.05-2.5c11.72-.23 23.61-.85 35.12-1.46 6.72-.36 13.67-.72 20.55-1.01 10.02-.42 19.91-1.39 29.48-2.32 28.63-2.81 55.68-5.46 84.51 6 36.78 14.6 60.1 48.82 63.98 93.85 1.99 23.12-.23 55.97-22.12 81.23-15.32 17.68-35.44 23.91-56.75 30.51l-8.2 2.57c-24.12 7.72-49.37 13.66-71.15 18.63-23.9 5.44-46.37 16.04-68.11 26.28-18.77 8.84-38.18 17.99-58.58 23.9-25.85 7.5-55.81 15.47-84.78 15.47zm47.6-291.7c-7.93 0-15.84.25-23.7.9-32.22 2.64-61.35 13.76-84.25 32.17-19.34 15.56-41.81 44.1-48.4 72.8-8.55 37.21-6.1 74.49 7.08 107.8 6.77 17.12 15.54 31.47 26.05 42.63 41.8 44.38 101.47 31.81 159 15.13 20.03-5.8 39.25-14.86 57.84-23.62 21.98-10.36 44.71-21.07 69.14-26.64 21.67-4.94 46.8-10.85 70.74-18.51 2.76-.88 5.5-1.73 8.24-2.58 20.6-6.39 40.07-12.41 54.45-29.01 11.45-13.21 24.37-37.39 20.92-77.53-3.71-43.08-25.89-75.75-60.84-89.64-27.71-11-54.17-8.41-82.19-5.67-9.63.95-19.6 1.92-29.76 2.35-6.85.28-13.78.65-20.49 1-11.54.61-23.48 1.24-35.29 1.47-10.3.2-19.5.08-28.14-.37-5.36-.27-10.73-.6-16.1-.92-14.55-.87-29.44-1.76-44.3-1.76z"/><path d="M1330.15 521.2a47.86 47.86 0 0 0-54.36-47.41 47.86 47.86 0 0 0-95.13.34 47.86 47.86 0 1 0-12.35 94.77v.15h120.36v-.43a47.86 47.86 0 0 0 41.48-47.42zM1192.3 638.27a23.4 23.4 0 1 1-46.82 0c0-12.93 23.41-50.72 23.41-50.72s23.4 37.79 23.4 50.72zm62.42 0a23.4 23.4 0 1 1-46.81 0c0-12.93 23.4-50.72 23.4-50.72s23.41 37.79 23.41 50.72zm59.82 0a23.4 23.4 0 1 1-46.81 0c0-12.93 23.4-50.72 23.4-50.72s23.41 37.79 23.41 50.72zM616.38 1050l-.12-51.05-.12-52.95-.58-249.32c-.1-46.58-.34-148.62-139.64-148.3l-56.8.13-56.8-.13c-139.3-.32-139.53 101.72-139.63 148.3L222.1 946l-.13 52.95 44.4 51.05h350z"/><path fill="#FFD829" d="m365.79 551.35.25-109.83 106.38.24-.25 109.83z"/><path d="m474.67 554.12-111.37-.26.26-114.83 111.38.26-.27 114.83zm-106.36-5.25 101.38.24.24-104.84-101.38-.23-.24 104.83z"/><path fill="#FFD829" d="M579.24 287.52c-2.1 0-4.17.12-6.2.35-18.83-65.64-79.22-113.73-150.92-113.9-71.7-.16-132.31 47.65-151.45 113.2a54.65 54.65 0 1 0 6.88 107.3c24.27 55.37 79.5 94.11 143.84 94.26 64.34.15 119.74-38.34 144.27-93.6a54.69 54.69 0 0 0 68.1-52.84 54.64 54.64 0 0 0-54.52-54.77z"/><path d="M421.76 491.23h-.38a160.02 160.02 0 0 1-145.27-93.86 57.22 57.22 0 0 1-68.9-56.06 57.21 57.21 0 0 1 57.14-57.02h.14c1.41 0 2.88.07 4.38.19a161.13 161.13 0 0 1 56.3-80.54 158.4 158.4 0 0 1 96.57-32.46h.39a158.41 158.41 0 0 1 96.8 32.9 161.15 161.15 0 0 1 55.93 80.8 56.77 56.77 0 0 1 44.75 16.67 56.76 56.76 0 0 1 16.65 40.45 56.76 56.76 0 0 1-16.83 40.37 56.76 56.76 0 0 1-40.31 16.64h-.14c-3.99 0-7.98-.43-11.89-1.27a160.06 160.06 0 0 1-145.33 93.2zM279 391.53l.85 1.94a155.02 155.02 0 0 0 141.55 92.76h.36c61.2 0 116.76-36.12 141.62-92.1l.85-1.93 2.04.51a52.26 52.26 0 0 0 12.72 1.6h.13a51.8 51.8 0 0 0 36.78-15.19 51.8 51.8 0 0 0 15.35-36.84 51.8 51.8 0 0 0-15.18-36.9 51.8 51.8 0 0 0-36.84-15.36c-1.88.02-3.87.1-5.92.33l-2.1.23-.57-2.02a156.03 156.03 0 0 0-54.75-80.2 153.46 153.46 0 0 0-93.78-31.88h-.37c-34.1 0-66.44 10.87-93.55 31.44a156.02 156.02 0 0 0-55.12 79.95l-.59 2.02-2.1-.24a52.59 52.59 0 0 0-5.9-.36h-.13a52.2 52.2 0 0 0-52.14 52.03 52.21 52.21 0 0 0 52.02 52.27h.1c4.25 0 8.5-.52 12.63-1.54l2.04-.51z"/><path fill="#FFD829" d="m236.7 326.92 33.43 36.51"/><path d="M270.13 365.93a2.5 2.5 0 0 1-1.84-.81l-33.44-36.51a2.5 2.5 0 1 1 3.69-3.38l33.43 36.5a2.5 2.5 0 0 1-1.84 4.2z"/><path fill="#FFD829" d="m600.3 327.76-33.61 36.35"/><path d="M566.7 366.61a2.5 2.5 0 0 1-1.84-4.2l33.6-36.35a2.5 2.5 0 0 1 3.67 3.4l-33.6 36.35c-.5.53-1.16.8-1.84.8zm-48.1-159.28a156.65 156.65 0 0 0-96.48-33.35 156.65 156.65 0 0 0-97.45 33.54A125.68 125.68 0 0 0 421.56 253a125.7 125.7 0 0 0 97.05-45.67z"/><path d="m272.5 290.07 88.56-60.9-27.12-27.9s-51.56 35.77-61.44 88.8zm298.57.66-88.56-60.9 27.13-27.9s51.56 35.77 61.43 88.8zM382.92 350.6a20.76 20.76 0 1 1-41.53-.1 20.76 20.76 0 0 1 41.53.1z"/><path d="M394.52 354.95a2.5 2.5 0 0 1-2.07-1.09A47.81 47.81 0 0 0 353.1 333h-.11a47.8 47.8 0 0 0-39.35 20.68 2.5 2.5 0 1 1-4.11-2.84A52.8 52.8 0 0 1 352.98 328h.12a52.81 52.81 0 0 1 43.48 23.04 2.5 2.5 0 0 1-2.06 3.9zm123.92-4.03a20.76 20.76 0 1 1-41.53-.1 20.76 20.76 0 0 1 41.53.1z"/><path d="M530.04 355.26a2.5 2.5 0 0 1-2.07-1.09 47.8 47.8 0 0 0-39.36-20.86h-.11a47.82 47.82 0 0 0-39.35 20.68 2.5 2.5 0 0 1-4.11-2.84 52.8 52.8 0 0 1 43.46-22.84h.12a52.8 52.8 0 0 1 43.48 23.04 2.5 2.5 0 0 1-2.06 3.91z"/><path fill="#FFD829" d="m420.62 348.21-.07 30.24"/><path d="M420.55 380.95a2.5 2.5 0 0 1-2.5-2.5l.07-30.24a2.5 2.5 0 1 1 5 .01l-.07 30.24a2.5 2.5 0 0 1-2.5 2.49z"/><path fill="#FFF" d="M448.6 404.56a28.12 28.12 0 0 1-56.25-.13l56.24.13z"/><g fill="#FFF"><path d="M351.84 403.94c-31.14 0-56.48-25.34-56.48-56.48s25.33-56.48 56.48-56.48c31.14 0 56.48 25.34 56.48 56.48s-25.34 56.48-56.48 56.48zm0-107.96c-28.39 0-51.48 23.1-51.48 51.48s23.1 51.48 51.48 51.48c28.38 0 51.48-23.1 51.48-51.48s-23.1-51.48-51.48-51.48zm137.19 107.96c-31.14 0-56.48-25.34-56.48-56.48s25.34-56.48 56.48-56.48c31.14 0 56.48 25.34 56.48 56.48s-25.34 56.48-56.48 56.48zm0-107.96c-28.38 0-51.48 23.1-51.48 51.48s23.1 51.48 51.48 51.48c28.39 0 51.48-23.1 51.48-51.48s-23.1-51.48-51.48-51.48z"/><path d="m408.02 338.96-4.9-.98a17.1 17.1 0 0 1 17.19-13.51c11.64 0 16.65 8.12 17.67 12.41l-4.86 1.16c-.08-.33-2.29-8.57-12.81-8.57-10.22 0-12.21 9.1-12.3 9.49z"/></g><path fill="#FFF" d="m479.88 548.41-60.76 325.33-60.76-325.33z"/><path d="m218.23 796.04 119.93-136.49a24.15 24.15 0 0 0-2.2-34.08l-64.34-56.54a24.15 24.15 0 0 0-34.09 2.2L131.82 691.47 94.4 734s-34.2 38.59-48.74 59.93a7.3 7.3 0 0 0 6.33 11.4l161.07-6.81a7.3 7.3 0 0 0 5.17-2.48z"/><path d="M51.67 807.84c-3.56 0-6.8-1.9-8.55-5.03a9.76 9.76 0 0 1 .47-10.29c14.47-21.22 48.6-59.79 48.94-60.17l37.41-42.54 105.72-120.32a26.47 26.47 0 0 1 18.3-9 26.47 26.47 0 0 1 19.3 6.57l64.35 56.53a26.68 26.68 0 0 1 2.43 37.61L220.1 797.7a9.83 9.83 0 0 1-6.94 3.31l-161.08 6.82-.42.01zM255.7 565.43a21.51 21.51 0 0 0-16.3 7.36L133.7 693.1l-37.41 42.54c-.35.4-34.27 38.72-48.56 59.69a4.72 4.72 0 0 0-.23 5.04 4.74 4.74 0 0 0 4.39 2.46l161.08-6.82a4.8 4.8 0 0 0 3.4-1.63l119.9-136.48c7.88-8.97 7-22.67-1.97-30.55l-64.34-56.54a21.5 21.5 0 0 0-14.26-5.38z"/><path fill="#FFD829" d="M832.23 628.04 998.1 461.77c8.32-7.4 13.74-7.58 24.24-8.8 10.13-.77 16.71-4.13 26.66-13.59l25.67-26 32.12-32.52 44.87-44.92-.07-.07.02-.01a20.3 20.3 0 1 0-30.14-27.1l-43.55 43.6-.13-.13 45.79-45.84 9.66-9.76a20.27 20.27 0 0 0-29.71-27.56c-.46.46-10.66 10.58-11.06 11.07l-43.55 43.59-.12-.13 44.87-44.91 18.7-18.57-.6.58c7.88-7.97 8.4-21.41.43-29.29a20.29 20.29 0 0 0-28.7.18c-.45.46-19.62 19.44-20.01 19.92l-43.56 43.59-.12-.13 46.69-46.75 8.42-8.69a20.28 20.28 0 0 0-28.62-28.26l-8.67 8.44 8.15-8.03c-.49.41-9.57 9.33-10.02 9.79-.45.45-.87.93-1.27 1.41l-55.38 55.57-.93-.25 26.91-45.45-.08-.05.01-.02a20.29 20.29 0 1 0-35.8-19l-51.85 87.6a57.23 57.23 0 0 0-9.54 41.75c1.71 10.35-1.55 17.75-6.87 25.25L784.5 485"/><path d="M832.23 630.54a2.5 2.5 0 0 1-1.77-4.26L996.33 460l.11-.1c8.4-7.47 14.17-8.12 23.73-9.2l1.88-.22c9.61-.74 15.72-3.88 25.23-12.92L1105 379.1l44.41-44.45a2.3 2.3 0 0 1 .5-.65 17.81 17.81 0 0 0-.25-25.06 17.82 17.82 0 0 0-26.43 1.6l-43.55 43.58a2.5 2.5 0 0 1-3.54 0l-.13-.13a2.5 2.5 0 0 1 0-3.53l45.79-45.83 9.6-9.7a17.8 17.8 0 0 0-13.44-29.4h-.12c-4.75.04-9.2 1.91-12.54 5.3l-1.37 1.36c-2.23 2.22-9.02 8.97-9.57 9.58l-.13.14-43.55 43.58c-.94.94-2.6.94-3.54 0l-.12-.12a2.5 2.5 0 0 1 0-3.53l44.88-44.92 18-17.88.09-.1c7.09-7.19 7.3-18.98.44-25.75a17.66 17.66 0 0 0-12.5-5.13h-.1c-4.76.03-9.21 1.9-12.55 5.28l-2.76 2.74c-4.48 4.45-16.37 16.22-17.16 17.08l-.11.12-43.56 43.58a2.5 2.5 0 0 1-3.56-.02l-.12-.12a2.5 2.5 0 0 1 .02-3.52l46.7-46.75 8.28-8.56a17.8 17.8 0 0 0-1.71-23.33 17.8 17.8 0 0 0-23.36-1.4l-8.58 8.34a2.5 2.5 0 0 1-.43.33l-1.4 1.4a18.96 18.96 0 0 0-1.28 1.41l-55.37 55.57a2.5 2.5 0 0 1-2.41.65l-.34-.1-.54-.13a2.5 2.5 0 0 1-1.57-3.7l26.56-44.87a2.23 2.23 0 0 1 .31-.71 17.64 17.64 0 0 0 1.9-13.43 17.67 17.67 0 0 0-8.17-10.89 17.68 17.68 0 0 0-13.48-1.92 17.65 17.65 0 0 0-11.77 9.84l-51.86 87.6-.1.15a55.03 55.03 0 0 0-9.13 39.93c2 11.98-2.33 20.1-7.3 27.09-.07.11-.16.22-.26.31L786.27 486.77a2.5 2.5 0 0 1-3.53-3.53l116.3-116.57c4.95-7.01 7.9-13.66 6.32-23.22a60.05 60.05 0 0 1 9.9-43.5l51.76-87.44a22.62 22.62 0 0 1 14.88-12.24 22.65 22.65 0 0 1 17.27 2.47 22.64 22.64 0 0 1 10.47 13.95c1.45 5.69.7 11.59-2.14 16.7-.05.22-.14.44-.26.64l-18.46 31.18 43.86-44c.44-.54.88-1.02 1.33-1.49.1-.09 9.55-9.4 10.2-9.94.1-.1.22-.17.34-.24l.05-.05.2-.18c9-7.06 21.92-6.33 30.06 1.7a22.8 22.8 0 0 1 6.57 19.17l.34-.34a22.64 22.64 0 0 1 16.07-6.77h.15c6.03 0 11.7 2.33 16 6.57 8.24 8.15 8.59 21.89 1.16 31.08a22.61 22.61 0 0 1 18.87 6.4 22.8 22.8 0 0 1 1.04 31.28l-.6.6a22.73 22.73 0 0 1 18.76 6.4 22.82 22.82 0 0 1 .66 31.75c-.1.2-.24.4-.41.57l-44.87 44.91-57.79 58.52c-10.4 9.9-17.52 13.5-28.24 14.33l-1.8.2c-9.14 1.04-13.73 1.55-20.91 7.92L834 629.81a2.5 2.5 0 0 1-1.77.73z"/><path d="m832.9 629.8 126.35-129.15-95.22-95.22L752.25 517.2l-209.18 44.87 28.1 130.97 180.21-38.66 60.37-12.92a41.84 41.84 0 0 0 21.15-11.65z"/><path d="M569.24 696 540.1 560.16 751 514.9l113.03-113 98.73 98.74-128.08 130.93a44.2 44.2 0 0 1-22.4 12.35l-60.38 12.92L569.24 696zm-23.2-132 27.04 126.08 177.77-38.13 60.38-12.92a39.22 39.22 0 0 0 19.88-10.96l124.62-127.4-91.7-91.7L753.5 519.49l-.72.15L546.04 564z"/><path fill="#FFF" d="M858.8 396.86 893.66 362l111.3 111.3-34.86 34.86zM357.52 548.41l5.56-35.47h111.96l5.47 35.47-58.95 41.75z"/><path d="m419.77 571.25-21.24-21.24 21.24-37.07L441 550.01z"/><path d="M419.77 877.79 393.34 743.6l26.43-225.79 25.42 225.61z"/><path d="M480.51 553.41H358.33l-.81-5h122.99z"/><path fill="#FFF" d="M37.75 760.39h228.63V1050H37.75z"/><path fill="#FFD829" d="M24.04 918.4c-11.2.04-19.46 9.06-19.43 20.26a20.3 20.3 0 0 0 20.33 20.25h14.09l12.56.03h2.01a20.3 20.3 0 0 0-.09-40.58l-29.47.05z"/><path d="m53.61 961.44-28.67-.04h-.04a22.82 22.82 0 0 1-22.8-22.73c-.03-12.73 9.6-22.73 21.92-22.76l29.48-.05h.04a22.82 22.82 0 0 1 22.8 22.73 22.82 22.82 0 0 1-22.74 22.85zm-28.67-5.04 28.66.04a17.81 17.81 0 0 0 17.74-17.83 17.8 17.8 0 0 0-17.79-17.75h-.03l-29.48.05c-9.68.02-16.96 7.65-16.93 17.75A17.8 17.8 0 0 0 24.9 956.4h.04z"/><path fill="#FFD829" d="M24.04 958.98c-11.2.03-19.46 9.06-19.43 20.26a20.3 20.3 0 0 0 20.33 20.24h14.09l12.56.04h2.01a20.3 20.3 0 0 0-.09-40.58l-29.47.04z"/><path d="m53.61 1002.02-28.67-.04h-.04a22.82 22.82 0 0 1-22.8-22.73c-.03-12.74 9.6-22.73 21.92-22.77l29.48-.04h.04a22.82 22.82 0 0 1 22.8 22.73 22.82 22.82 0 0 1-22.74 22.85zm-28.67-5.04 28.66.04a17.81 17.81 0 0 0 17.74-17.84 17.8 17.8 0 0 0-17.79-17.74h-.03l-29.48.04c-9.68.03-16.96 7.66-16.93 17.75.02 9.8 8 17.75 17.79 17.75h.04z"/><path fill="#FFD829" d="M24.04 877.74c-11.2.02-19.46 9.05-19.43 20.25a20.3 20.3 0 0 0 20.33 20.24h14.09l12.56.04h2.01a20.3 20.3 0 0 0-.09-40.58l-29.47.05z"/><path d="m53.61 920.77-28.67-.04h-.04A22.82 22.82 0 0 1 2.1 898c-.03-12.73 9.6-22.73 21.92-22.76l29.48-.05h.04a22.82 22.82 0 0 1 22.8 22.73 22.82 22.82 0 0 1-22.74 22.85zm-28.67-5.04 28.66.04a17.81 17.81 0 0 0 17.74-17.83 17.8 17.8 0 0 0-17.79-17.75h-.04l-29.47.05c-9.68.02-16.96 7.65-16.93 17.75a17.8 17.8 0 0 0 17.79 17.74h.04z"/><path fill="#FFD829" d="M24.04 837.16c-11.2.03-19.46 9.05-19.43 20.26a20.3 20.3 0 0 0 20.33 20.24h14.09l12.56.03h2.01a20.3 20.3 0 0 0-.09-40.58l-29.47.05z"/><path d="m53.61 880.2-28.67-.04h-.04a22.82 22.82 0 0 1-22.8-22.74c-.03-12.73 9.6-22.73 21.92-22.76l29.48-.05h.04a22.82 22.82 0 0 1 22.8 22.74 22.82 22.82 0 0 1-22.74 22.84zm-28.67-5.04 28.66.03a17.81 17.81 0 0 0 17.74-17.83 17.8 17.8 0 0 0-17.79-17.75h-.04l-29.47.05c-9.68.02-16.96 7.65-16.93 17.75.02 9.8 8 17.75 17.79 17.75h.04z"/><g fill="#FFD829"><path d="M416.68 873.28c0-.42.11-.83.31-1.2l2.16-3.94-90.3-164.63 30.77-52.75a2.5 2.5 0 0 0-.3-2.94L322.2 606.6l35.32-58.19c-2 .03-3.99.09-5.94.16l-34.62 57.02a2.5 2.5 0 0 0 .28 2.97l37.14 41.25-30.57 52.4a2.5 2.5 0 0 0-.03 2.47l92.84 169.24v176.07h.06v-176.7z"/><path d="M478.98 647.82c-.73.81-.85 2-.3 2.94l30.77 52.75-90.3 164.63 2.15 3.94c.2.36.3.78.3 1.2v176.71h.07V873.92l92.84-169.24a2.5 2.5 0 0 0-.03-2.47l-30.57-52.4 37.14-41.25a2.5 2.5 0 0 0 .28-2.98l-34.85-57.02a285.5 285.5 0 0 0-5.96-.15l35.57 58.2-37.11 41.21z"/><path d="m421.31 872.09-2.16-3.94-2.16 3.94c-.2.36-.3.78-.3 1.2V1050h4.93V873.29c0-.42-.1-.83-.3-1.2z"/></g><path fill="#FFF" d="M781.62 142.09 757 158.79l10.1 27.99-29.75-.98-8.25 28.61-23.5-18.3-23.49 18.3-8.26-28.61-29.75.98 10.11-27.99-24.63-16.7 24.63-16.7-10.11-28 29.75.98 8.26-28.6 23.49 18.3 23.5-18.3 8.25 28.6 29.75-.98-10.1 28z"/><path d="M1549.2 93.73a47.86 47.86 0 0 0-54.35-47.4 47.86 47.86 0 0 0-95.14.34 47.86 47.86 0 1 0-12.35 94.77v.15h120.36v-.43a47.86 47.86 0 0 0 41.48-47.43z"/><path d="M1369.97 85.21a22.17 22.17 0 0 1 9.2-1.86c1.46 0 2.71.17 3.74.52a5.71 5.71 0 0 1 3.88 3.83c.28.91.42 1.93.42 3.06 0 1.44-.05 2.67-.15 3.69a25.92 25.92 0 0 0 .06 5.85h2.76v4.65h-7.1l-.57-2.88h-.2a7.3 7.3 0 0 1-2.4 2.27 8.02 8.02 0 0 1-4.22.95c-2.1 0-3.77-.56-5-1.7s-1.86-2.62-1.86-4.48c0-1.19.22-2.21.65-3.07a5.47 5.47 0 0 1 1.9-2.12 9 9 0 0 1 2.99-1.23 17.33 17.33 0 0 1 5.49-.32c.56.06 1.25.11 2.06.17.06-.28.09-.56.09-.85v-.8c0-1.07-.31-1.84-.93-2.31a4.5 4.5 0 0 0-2.73-.7c-1.43 0-2.72.18-3.87.55s-2.12.74-2.9 1.1l-1.31-4.32zm7.21 15.55c1.34 0 2.35-.25 3.02-.74s1.16-1.03 1.46-1.6V95.9a19.4 19.4 0 0 0-3.05-.3c-.53 0-1.07.05-1.6.15-.53.1-1 .25-1.42.47-.42.2-.75.48-1 .82a2 2 0 0 0-.38 1.23c0 .8.23 1.4.69 1.84.46.44 1.22.66 2.28.66zm16.05-.46h5.25V88.42h-5.25v-4.66h9.53l.64 2.8h.17c.79-.94 1.69-1.71 2.7-2.33a6.7 6.7 0 0 1 3.57-.94c1.7 0 3.03.63 4 1.87.97 1.24 1.46 3.32 1.46 6.23h-4.96c0-1.02-.14-1.76-.44-2.23s-.77-.7-1.42-.7a4.2 4.2 0 0 0-2.73.85 8.54 8.54 0 0 0-1.76 1.95v9.02h9.2v4.66h-19.96v-4.66zm25.42 0h5.25V88.42h-5.25v-4.66h9.53l.64 2.8h.16c.8-.94 1.7-1.71 2.72-2.33a6.7 6.7 0 0 1 3.56-.94c1.69 0 3.02.63 4 1.87.97 1.24 1.46 3.32 1.46 6.23h-4.96c0-1.02-.14-1.76-.44-2.23s-.77-.7-1.42-.7a4.2 4.2 0 0 0-2.73.85 8.54 8.54 0 0 0-1.76 1.95v9.02h9.2v4.66h-19.96v-4.66zm27.66-25h16.74v4.66h-11.48v30.08h11.48v4.66h-16.74V75.3zm26.02 25h6.48V81.77l-5.6 4.28-2.54-3.4 9.66-7.36h3.73v25h6.35v4.65h-18.09v-4.66zm42.4 14.4H1498v-4.66h11.48V79.96H1498V75.3h16.73v39.4z" fill="#FFF"/><path d="M1790.83 93.73a47.86 47.86 0 0 0-54.35-47.4 47.86 47.86 0 0 0-95.14.34 47.86 47.86 0 1 0-12.35 94.77v.15h120.36v-.43a47.86 47.86 0 0 0 41.48-47.43z"/><path d="M1615.4 85.21a22.17 22.17 0 0 1 9.2-1.86c1.46 0 2.71.17 3.75.52a5.71 5.71 0 0 1 3.88 3.83c.27.91.41 1.93.41 3.06 0 1.44-.05 2.67-.14 3.69a25.92 25.92 0 0 0 .06 5.85h2.76v4.65h-7.12l-.55-2.88h-.21a7.3 7.3 0 0 1-2.4 2.27 8.02 8.02 0 0 1-4.21.95c-2.1 0-3.78-.56-5.02-1.7s-1.85-2.62-1.85-4.48c0-1.19.22-2.21.65-3.07a5.47 5.47 0 0 1 1.9-2.12 9 9 0 0 1 2.99-1.23 17.33 17.33 0 0 1 5.5-.32c.55.06 1.24.11 2.05.17.06-.28.09-.56.09-.85v-.8c0-1.07-.31-1.84-.93-2.31a4.5 4.5 0 0 0-2.73-.7c-1.43 0-2.72.18-3.87.55s-2.12.74-2.9 1.1l-1.3-4.32zm7.21 15.55c1.34 0 2.35-.25 3.02-.74s1.16-1.03 1.47-1.6V95.9a19.4 19.4 0 0 0-3.06-.3c-.53 0-1.06.05-1.6.15-.53.1-1 .25-1.42.47-.42.2-.75.48-1 .82a2 2 0 0 0-.38 1.23c0 .8.23 1.4.69 1.84.46.44 1.22.66 2.28.66zm16.05-.46h5.25V88.42h-5.25v-4.66h9.53l.64 2.8h.17a11.1 11.1 0 0 1 2.71-2.33 6.7 6.7 0 0 1 3.56-.94c1.7 0 3.03.63 4 1.87.98 1.24 1.46 3.32 1.46 6.23h-4.95c0-1.02-.15-1.76-.45-2.23s-.77-.7-1.42-.7a4.2 4.2 0 0 0-2.73.85 8.54 8.54 0 0 0-1.76 1.95v9.02h9.2v4.66h-19.96v-4.66zm25.42 0h5.25V88.42h-5.25v-4.66h9.53l.64 2.8h.17c.79-.94 1.7-1.71 2.7-2.33a6.7 6.7 0 0 1 3.57-.94c1.7 0 3.03.63 4 1.87.98 1.24 1.46 3.32 1.46 6.23h-4.95c0-1.02-.15-1.76-.45-2.23s-.77-.7-1.42-.7a4.2 4.2 0 0 0-2.73.85 8.54 8.54 0 0 0-1.76 1.95v9.02h9.2v4.66h-19.96v-4.66zm27.66-25h16.74v4.66H1697v30.08h11.48v4.66h-16.74V75.3zm43.68 29.65h-18.9v-4.1c.35-.29.77-.66 1.28-1.13l1.71-1.59a51.99 51.99 0 0 0 4.09-4.15 94.4 94.4 0 0 0 2.52-2.92 20.8 20.8 0 0 0 1.78-2.48c.47-.78.81-1.54 1.04-2.29a7.9 7.9 0 0 0 .34-2.3 3.9 3.9 0 0 0-.38-1.66 4.49 4.49 0 0 0-1.06-1.42c-.45-.4-1-.73-1.63-.97a5.89 5.89 0 0 0-2.1-.36c-1.02 0-1.94.15-2.78.46-.83.31-1.7.84-2.6 1.57l-2.2-3.9c1.18-.85 2.5-1.56 3.96-2.14a13.52 13.52 0 0 1 8.51-.36 9.2 9.2 0 0 1 2.97 1.5 7.3 7.3 0 0 1 2.05 2.49c.51.98.77 2.13.77 3.43a12.29 12.29 0 0 1-.95 4.85c-.33.78-.76 1.57-1.28 2.4a38.7 38.7 0 0 1-3.73 4.89 68.14 68.14 0 0 1-3.89 4.04c-.64.6-1.21 1.09-1.72 1.48h12.2v4.66zm24.74 9.75h-16.73v-4.66h11.48V79.96h-11.48V75.3h16.73v39.4z" fill="#FFF"/><path d="M1549.2 251.59a47.86 47.86 0 0 0-54.35-47.41 47.86 47.86 0 0 0-95.14.34 47.86 47.86 0 1 0-12.35 94.77v.16h120.36V299a47.86 47.86 0 0 0 41.48-47.42z"/><path d="M1369.97 243.06a22.17 22.17 0 0 1 9.2-1.86c1.46 0 2.71.18 3.74.53a5.71 5.71 0 0 1 3.88 3.83c.28.9.42 1.92.42 3.05 0 1.44-.05 2.67-.15 3.69a25.92 25.92 0 0 0 .06 5.85h2.76v4.66h-7.1l-.57-2.88h-.2a7.3 7.3 0 0 1-2.4 2.26 8.02 8.02 0 0 1-4.22.96c-2.1 0-3.77-.57-5-1.7s-1.86-2.63-1.86-4.49c0-1.19.22-2.2.65-3.07a5.47 5.47 0 0 1 1.9-2.12 9 9 0 0 1 2.99-1.23 17.33 17.33 0 0 1 5.49-.32c.56.06 1.25.12 2.06.17a4 4 0 0 0 .09-.84v-.8c0-1.08-.31-1.85-.93-2.32a4.5 4.5 0 0 0-2.73-.7c-1.43 0-2.72.19-3.87.55s-2.12.74-2.9 1.1l-1.31-4.32zm7.21 15.55c1.34 0 2.35-.25 3.02-.74s1.16-1.02 1.46-1.59v-2.54a19.4 19.4 0 0 0-3.05-.3c-.53 0-1.07.05-1.6.15-.53.1-1 .26-1.42.47-.42.2-.75.48-1 .82a2 2 0 0 0-.38 1.23c0 .8.23 1.4.69 1.85.46.43 1.22.65 2.28.65zm16.05-.47h5.25v-11.86h-5.25v-4.66h9.53l.64 2.8h.17a11.5 11.5 0 0 1 2.7-2.33 6.7 6.7 0 0 1 3.57-.93c1.7 0 3.03.62 4 1.86.97 1.24 1.46 3.32 1.46 6.23h-4.96c0-1.02-.14-1.76-.44-2.23s-.77-.7-1.42-.7a4.2 4.2 0 0 0-2.73.85 8.54 8.54 0 0 0-1.76 1.95v9.03h9.2v4.66h-19.96v-4.67zm25.42 0h5.25v-11.86h-5.25v-4.66h9.53l.64 2.8h.16c.8-.93 1.7-1.7 2.72-2.33a6.7 6.7 0 0 1 3.56-.93c1.69 0 3.02.62 4 1.86.97 1.24 1.46 3.32 1.46 6.23h-4.96c0-1.02-.14-1.76-.44-2.23s-.77-.7-1.42-.7a4.2 4.2 0 0 0-2.73.85 8.54 8.54 0 0 0-1.76 1.95v9.03h9.2v4.66h-19.96v-4.67zm27.66-24.99h16.74v4.66h-11.48v30.08h11.48v4.66h-16.74v-39.4zm32.03 25.59a8.7 8.7 0 0 0 2.56-.36c.78-.24 1.44-.58 2-1.01s.97-.94 1.29-1.52c.3-.58.46-1.2.46-1.88a4 4 0 0 0-.53-2.13 3.8 3.8 0 0 0-1.46-1.37 7 7 0 0 0-2.24-.71c-.88-.15-1.83-.22-2.84-.22h-2.37v-3.04l7.11-8.7h-10.72v-4.65h17.29V237l-7.46 8.52h.98c.99 0 1.95.17 2.88.5a7.14 7.14 0 0 1 4.21 4.07c.44 1.02.66 2.2.66 3.52a8.7 8.7 0 0 1-1 4.24 9.65 9.65 0 0 1-2.62 3.07 11.22 11.22 0 0 1-3.75 1.86c-1.41.41-2.87.62-4.36.62-1.28 0-2.55-.12-3.82-.34-1.27-.23-2.5-.58-3.68-1.06l1.48-4.58c.25.14.6.28 1.04.43a24.01 24.01 0 0 0 3.18.76c.57.08 1.14.13 1.71.13zm36.39 13.81H1498v-4.66h11.48V237.8H1498v-4.66h16.73v39.4z" fill="#FFF"/><path d="M1790.83 251.59a47.86 47.86 0 0 0-54.35-47.41 47.86 47.86 0 0 0-95.14.34 47.86 47.86 0 1 0-12.35 94.77v.16h120.36V299a47.86 47.86 0 0 0 41.48-47.42z"/><path d="M1615.4 243.06a22.17 22.17 0 0 1 9.2-1.86c1.46 0 2.71.18 3.75.53a5.71 5.71 0 0 1 3.88 3.83c.27.9.41 1.92.41 3.05 0 1.44-.05 2.67-.14 3.69a25.92 25.92 0 0 0 .06 5.85h2.76v4.66h-7.12l-.55-2.88h-.21a7.3 7.3 0 0 1-2.4 2.26 8.02 8.02 0 0 1-4.21.96c-2.1 0-3.78-.57-5.02-1.7s-1.85-2.63-1.85-4.49c0-1.19.22-2.2.65-3.07a5.47 5.47 0 0 1 1.9-2.12 9 9 0 0 1 2.99-1.23 17.33 17.33 0 0 1 5.5-.32c.55.06 1.24.12 2.05.17a4 4 0 0 0 .09-.84v-.8c0-1.08-.31-1.85-.93-2.32a4.5 4.5 0 0 0-2.73-.7c-1.43 0-2.72.19-3.87.55s-2.12.74-2.9 1.1l-1.3-4.32zm7.21 15.55c1.34 0 2.35-.25 3.02-.74s1.16-1.02 1.47-1.59v-2.54a19.4 19.4 0 0 0-3.06-.3c-.53 0-1.06.05-1.6.15-.53.1-1 .26-1.42.47-.42.2-.75.48-1 .82a2 2 0 0 0-.38 1.23c0 .8.23 1.4.69 1.85.46.43 1.22.65 2.28.65zm16.05-.47h5.25v-11.86h-5.25v-4.66h9.53l.64 2.8h.17c.79-.93 1.7-1.7 2.71-2.33a6.7 6.7 0 0 1 3.56-.93c1.7 0 3.03.62 4 1.86.98 1.24 1.46 3.32 1.46 6.23h-4.95c0-1.02-.15-1.76-.45-2.23s-.77-.7-1.42-.7a4.2 4.2 0 0 0-2.73.85 8.54 8.54 0 0 0-1.76 1.95v9.03h9.2v4.66h-19.96v-4.67zm25.42 0h5.25v-11.86h-5.25v-4.66h9.53l.64 2.8h.17c.79-.93 1.7-1.7 2.7-2.33a6.7 6.7 0 0 1 3.57-.93c1.7 0 3.03.62 4 1.86.98 1.24 1.46 3.32 1.46 6.23h-4.95c0-1.02-.15-1.76-.45-2.23s-.77-.7-1.42-.7a4.2 4.2 0 0 0-2.73.85 8.54 8.54 0 0 0-1.76 1.95v9.03h9.2v4.66h-19.96v-4.67zm27.66-24.99h16.74v4.66H1697v30.08h11.48v4.66h-16.74v-39.4zm45.97 21.39h-5.08v8.27h-5.13v-8.27h-12.84v-3.77l13.43-17.83h4.54v17.2h5.08v4.4zm-10.21-13.8-7.37 9.4h7.37v-9.4zm32.66 31.81h-16.73v-4.66h11.48V237.8h-11.48v-4.66h16.73v39.4z" fill="#FFF"/></svg>