<svg xmlns="http://www.w3.org/2000/svg" viewBox="0 0 1080 1080" xml:space="preserve"><path fill="#FFF" d="M760.97 771.33c-21.52 0-45.47-4.62-67.46-13.02-36.13-13.8-66.4-25.07-99.42-34.06-16.43-4.48-33.83-5.05-50.66-5.6-20.23-.65-41.14-1.33-60.75-8.74-34.46-13.02-58.67-31.18-71.98-53.99-8.97-15.39-13.05-32.97-17-49.97-2.55-11.02-5.2-22.41-9.14-33.06-6.1-16.45-15.66-32.03-24.89-47.09-14.06-22.95-28.61-46.68-31.12-73.87-1.8-19.5 2.78-38.57 8-56.26 8.91-30.27 21.2-63.67 44.7-81.89 21.13-16.37 46.56-23.9 75.6-22.41 24.6 1.27 51.06 9.14 76.54 22.79 42.3 22.64 75.57 58.6 107.74 93.36 9.69 10.48 19.7 21.31 29.73 31.5 46.98 47.71 86.4 98.65 128.14 152.58l1.28 1.66c19.56 25.34 40.1 56.04 44.03 91.69 3.44 31.1-4.6 54.43-23.88 69.34-14.34 11.09-34.79 16.98-59.11 17.04h-.35zM449.73 295.18c-25.19 0-47.37 7.3-66.03 21.76-22.6 17.52-34.58 50.2-43.32 79.86-5.1 17.31-9.58 35.93-7.84 54.76 2.42 26.26 16.08 48.55 30.54 72.15 9.33 15.23 18.98 30.97 25.23 47.79 4.04 10.88 6.7 22.4 9.3 33.55 3.87 16.71 7.88 33.99 16.55 48.86 12.83 21.99 36.36 39.57 69.93 52.26 19 7.17 39.57 7.84 59.47 8.49 17.06.55 34.7 1.13 51.58 5.73 33.2 9.04 63.56 20.35 99.8 34.18 39.5 15.09 92.88 19.88 123.05-3.44 18.1-14 25.63-36.12 22.35-65.74-3.83-34.66-24-64.79-43.22-89.68l-1.28-1.66C754.18 540.22 714.82 489.37 668 441.82a1413.67 1413.67 0 0 1-29.82-31.58c-31.94-34.52-64.97-70.23-106.68-92.55-24.97-13.37-50.85-21.09-74.86-22.32-2.33-.13-4.64-.19-6.92-.19z"/><path fill="#FFF" d="M786.76 887.74c-45.03 0-84.19-19.57-122.16-38.56-5.51-2.75-11.2-5.6-16.83-8.34-41.87-20.42-82.73-44.77-117.74-66-37.5-22.74-82.06-31.55-125.15-40.08-39.47-7.8-80.28-15.88-115.97-34.6-54.89-28.8-91.47-55.58-118.62-86.85-32.44-37.37-50.43-81.29-54.99-134.27-4.7-54.72 8.05-107.5 37.9-156.88 26.54-43.87 66.33-83.76 115.08-115.36 49.8-32.28 120.34-43.23 168.14-39.78 56.58 4.1 110.99 26.8 157.35 65.65 30.64 25.68 57.22 55.7 82.92 84.75 18.94 21.4 38.53 43.54 59.55 63.7 15.5 14.86 31.78 29.38 47.52 43.44 9.18 8.18 18.67 16.65 27.94 25.14 13.6 12.43 27.77 23.9 41.47 34.98 40.7 32.94 79.14 64.04 100.27 116.71 16.45 41.02 24.43 76.88 24.4 109.63-.03 39.72-12.4 74.36-36.77 102.97a213.74 213.74 0 0 1-63.84 50.55c-24.58 12.74-51.62 20.6-78.18 22.71-4.15.34-8.24.5-12.28.5zM418.75 170.41c-45.73 0-105 11.69-148.3 39.75-48.24 31.27-87.6 70.71-113.82 114.07-29.41 48.64-41.98 100.6-37.34 154.47 4.48 52.1 22.15 95.28 54.02 131.99 26.8 30.87 63.03 57.37 117.46 85.93 35.17 18.45 75.7 26.47 114.89 34.22 43.43 8.6 88.34 17.48 126.44 40.58 34.94 21.18 75.7 45.48 117.42 65.82 5.64 2.76 11.35 5.6 16.87 8.37 42.77 21.38 83.17 41.58 132.34 37.66 52.45-4.19 104.52-31.06 139.3-71.88 43.6-51.2 47.44-119.4 11.69-208.5-20.74-51.71-58.79-82.5-99.07-115.1-13.75-11.13-27.96-22.63-41.65-35.14a3134.18 3134.18 0 0 0-27.9-25.11c-15.77-14.08-32.07-28.63-47.63-43.54-21.14-20.27-40.78-42.47-59.78-63.93-25.6-28.93-52.08-58.85-82.5-84.34-45.7-38.3-99.32-60.68-155.06-64.72-5.5-.4-11.33-.6-17.38-.6z"/><path fill="#FFF" d="M807.4 985.63h-2.04c-43.28-.34-88.65-11.52-134.86-33.2-30.37-14.26-60.02-31.47-88.7-48.1-34.94-20.27-71.08-41.23-108.57-56.88-24.63-10.27-49.65-18.18-79.64-26.9-7.6-2.2-15.2-4.38-22.81-6.55-44.92-12.8-91.38-26.04-133.98-47.65-50.63-25.68-99.48-51.77-140.7-88.5-47.14-41.98-76.24-91.54-88.95-151.5-17.18-80.95 6.67-173.46 67.14-260.49 38.44-55.31 81.09-97.45 134.24-132.62 60.17-39.81 136.8-59.1 215.75-54.28 78.5 4.77 152.36 32.84 207.94 79.02 37.24 30.94 70.4 68.54 102.48 104.9 23.87 27.06 48.56 55.05 74.75 80.1 19.32 18.48 39.68 36.56 59.37 54.04a3785.84 3785.84 0 0 1 34.81 31.18c8.88 8.08 18.06 16.2 26.93 24.05 29.34 25.97 59.68 52.82 85.22 83.5 26.2 31.5 44.53 67.12 54.47 105.9a268.04 268.04 0 0 1 4.28 113.38c-14.14 81.02-63.6 151.77-135.7 194.12-41.22 24.21-85.43 36.49-131.43 36.49zM400.55 82.24c-69.69 0-136.35 18.97-189.82 54.35-52.7 34.87-95.02 76.68-133.16 131.57-59.83 86.11-83.45 177.52-66.51 257.37 12.53 59.1 41.22 107.95 87.7 149.35 40.86 36.4 89.47 62.35 139.84 87.91 42.27 21.44 88.53 34.62 133.28 47.38 7.61 2.17 15.23 4.34 22.83 6.55 30.12 8.76 55.26 16.71 80.05 27.05 37.74 15.74 74 36.77 109.05 57.1 28.6 16.6 58.18 33.76 88.4 47.95 95.64 44.9 184.66 43.85 264.6-3.1 71.08-41.76 119.84-111.51 133.78-191.37a264.06 264.06 0 0 0-4.22-111.7c-9.79-38.2-27.85-73.3-53.66-104.32-25.35-30.46-55.57-57.2-84.8-83.07a2602.6 2602.6 0 0 1-26.97-24.09c-11.54-10.5-23.35-21-34.78-31.14-19.72-17.51-40.1-35.62-59.47-54.14-26.32-25.18-51.06-53.23-74.99-80.35-31.97-36.25-65.04-73.73-102.03-104.47-54.94-45.65-127.97-73.39-205.63-78.11-7.86-.48-15.7-.72-23.49-.72z"/><path d="M833.85 88.98a45.91 45.91 0 0 0-52.14-45.48 45.91 45.91 0 0 0-91.27.33 45.91 45.91 0 1 0-11.84 90.91v.15h115.46v-.42a45.9 45.9 0 0 0 39.8-45.49z"/><path d="M661.91 80.8a21.28 21.28 0 0 1 8.82-1.79c1.41 0 2.61.17 3.6.51a5.5 5.5 0 0 1 3.72 3.68c.27.87.4 1.84.4 2.93 0 1.38-.04 2.56-.14 3.53a25.53 25.53 0 0 0-.06 4.51c.05.38.1.75.12 1.1h2.64v4.47h-6.82l-.53-2.76h-.2a7.03 7.03 0 0 1-2.3 2.17c-1 .61-2.35.92-4.04.92-2.03 0-3.63-.54-4.81-1.63a5.56 5.56 0 0 1-1.78-4.3c0-1.14.21-2.13.63-2.95a5.25 5.25 0 0 1 1.81-2.03 8.7 8.7 0 0 1 2.87-1.18 16.53 16.53 0 0 1 5.27-.3l1.98.15c.05-.27.08-.54.08-.8v-.78c0-1.03-.3-1.77-.89-2.21a4.31 4.31 0 0 0-2.62-.68c-1.37 0-2.61.18-3.71.53-1.1.36-2.03.7-2.79 1.06l-1.25-4.15zm6.92 14.92c1.29 0 2.25-.24 2.9-.71a4.78 4.78 0 0 0 1.4-1.53v-2.43a18.17 18.17 0 0 0-2.93-.29 8.3 8.3 0 0 0-1.53.14c-.51.1-.96.25-1.37.45s-.72.47-.96.8a1.9 1.9 0 0 0-.36 1.17c0 .76.22 1.35.66 1.77.44.42 1.17.63 2.2.63zm15.4-.45h5.04V83.9h-5.04v-4.47h9.14l.6 2.68h.17a10.7 10.7 0 0 1 2.6-2.23c.98-.6 2.12-.9 3.42-.9 1.62 0 2.9.6 3.84 1.8.93 1.19 1.4 3.18 1.4 5.97h-4.75a4.1 4.1 0 0 0-.43-2.14c-.29-.44-.74-.67-1.36-.67-1.09 0-1.96.27-2.62.82s-1.23 1.16-1.7 1.86v8.66h8.83v4.47h-19.15v-4.47zm24.38 0h5.04V83.9h-5.04v-4.47h9.15l.6 2.68h.17a10.7 10.7 0 0 1 2.6-2.23c.98-.6 2.11-.9 3.41-.9 1.63 0 2.9.6 3.84 1.8.94 1.19 1.4 3.18 1.4 5.97h-4.75a4.1 4.1 0 0 0-.43-2.14c-.28-.44-.73-.67-1.36-.67-1.08 0-1.95.27-2.62.82s-1.22 1.16-1.69 1.86v8.66h8.82v4.47h-19.14v-4.47zm26.54-23.97h16.05v4.46h-11v28.86h11.01v4.47h-16.05V71.3zm24.95 23.97h6.22V77.51l-5.36 4.1-2.44-3.24 9.27-7.08h3.57v23.98h6.1v4.47h-17.35v-4.47zm40.69 13.83h-16.06v-4.48h11.02V75.76h-11.02V71.3h16.06v37.8z" fill="#FFF"/><path d="M1065.66 88.98a45.91 45.91 0 0 0-52.14-45.48 45.91 45.91 0 0 0-91.27.33 45.91 45.91 0 1 0-11.84 90.91v.15h115.46v-.42a45.9 45.9 0 0 0 39.79-45.49z"/><path d="M897.36 80.8a21.28 21.28 0 0 1 8.82-1.79c1.41 0 2.61.17 3.6.51a5.5 5.5 0 0 1 3.72 3.68c.27.87.4 1.84.4 2.93 0 1.38-.04 2.56-.14 3.53a25.53 25.53 0 0 0-.06 4.51c.05.38.1.75.12 1.1h2.64v4.47h-6.82l-.53-2.76h-.2a7.03 7.03 0 0 1-2.3 2.17c-1 .61-2.35.92-4.04.92-2.03 0-3.63-.54-4.81-1.63a5.56 5.56 0 0 1-1.78-4.3c0-1.14.21-2.13.63-2.95a5.25 5.25 0 0 1 1.81-2.03 8.7 8.7 0 0 1 2.87-1.18 16.53 16.53 0 0 1 5.27-.3l1.98.15c.05-.27.08-.54.08-.8v-.78c0-1.03-.3-1.77-.89-2.21a4.31 4.31 0 0 0-2.62-.68c-1.37 0-2.61.18-3.71.53-1.1.36-2.03.7-2.79 1.06l-1.25-4.15zm6.92 14.92c1.29 0 2.25-.24 2.9-.71a4.78 4.78 0 0 0 1.4-1.53v-2.43a18.17 18.17 0 0 0-2.93-.29 8.3 8.3 0 0 0-1.53.14c-.51.1-.97.25-1.37.45s-.72.47-.96.8a1.9 1.9 0 0 0-.36 1.17c0 .76.22 1.35.66 1.77.44.42 1.17.63 2.2.63zm15.4-.45h5.04V83.9h-5.04v-4.47h9.14l.61 2.68h.16a10.7 10.7 0 0 1 2.6-2.23c.98-.6 2.12-.9 3.42-.9 1.62 0 2.9.6 3.84 1.8.93 1.19 1.4 3.18 1.4 5.97h-4.75a4.1 4.1 0 0 0-.43-2.14c-.29-.44-.74-.67-1.36-.67-1.09 0-1.96.27-2.62.82s-1.23 1.16-1.7 1.86v8.66h8.83v4.47h-19.14v-4.47zm24.38 0h5.04V83.9h-5.04v-4.47h9.15l.6 2.68h.17a10.7 10.7 0 0 1 2.6-2.23c.98-.6 2.11-.9 3.41-.9 1.63 0 2.9.6 3.84 1.8.94 1.19 1.4 3.18 1.4 5.97h-4.75a4.1 4.1 0 0 0-.43-2.14c-.28-.44-.73-.67-1.36-.67-1.08 0-1.95.27-2.62.82s-1.22 1.16-1.69 1.86v8.66h8.82v4.47h-19.14v-4.47zM970.6 71.3h16.05v4.46h-11.01v28.86h11.02v4.47H970.6V71.3zm41.9 28.44h-18.12V95.8a251.95 251.95 0 0 0 2.87-2.6 79.82 79.82 0 0 0 3.92-3.98 87.25 87.25 0 0 0 2.41-2.8c.7-.85 1.26-1.64 1.7-2.38s.79-1.48 1-2.2c.22-.72.33-1.45.33-2.21a3.6 3.6 0 0 0-.37-1.59 4.35 4.35 0 0 0-2.58-2.29 5.65 5.65 0 0 0-2-.35c-.98 0-1.87.15-2.67.45s-1.63.8-2.5 1.5l-2.11-3.74a17.7 17.7 0 0 1 3.8-2.05c1.4-.56 3-.83 4.81-.83 1.17 0 2.29.16 3.36.48s2.01.81 2.84 1.45 1.48 1.42 1.97 2.37c.49.95.73 2.05.73 3.3a11.88 11.88 0 0 1-.91 4.65c-.31.74-.72 1.51-1.22 2.3a37.18 37.18 0 0 1-3.58 4.69c-.64.72-1.27 1.4-1.89 2.05a46.5 46.5 0 0 1-1.85 1.83c-.6.57-1.16 1.04-1.64 1.42h11.7v4.47zm23.74 9.36h-16.06v-4.48h11.02V75.76h-11.02V71.3h16.06v37.8z" fill="#FFF"/><path d="M833.85 240.41a45.91 45.91 0 0 0-52.14-45.48 45.91 45.91 0 0 0-91.27.33 45.91 45.91 0 1 0-11.84 90.91v.15h115.46v-.41a45.9 45.9 0 0 0 39.8-45.5z"/><path d="M661.91 232.24a21.28 21.28 0 0 1 8.82-1.79c1.41 0 2.61.17 3.6.5a5.5 5.5 0 0 1 3.72 3.68c.27.87.4 1.85.4 2.93 0 1.38-.04 2.56-.14 3.54a25.68 25.68 0 0 0-.06 4.5c.05.39.1.76.12 1.1h2.64v4.48h-6.82l-.53-2.77h-.2a7.03 7.03 0 0 1-2.3 2.18c-1 .6-2.35.91-4.04.91-2.03 0-3.63-.54-4.81-1.62a5.56 5.56 0 0 1-1.78-4.31c0-1.14.21-2.12.63-2.95a5.25 5.25 0 0 1 1.81-2.03 8.7 8.7 0 0 1 2.87-1.18 16.53 16.53 0 0 1 5.27-.3l1.98.16c.05-.27.08-.54.08-.81v-.77c0-1.03-.3-1.77-.89-2.22a4.31 4.31 0 0 0-2.62-.67c-1.37 0-2.61.18-3.71.53-1.1.35-2.03.7-2.79 1.05l-1.25-4.14zm6.92 14.91c1.29 0 2.25-.23 2.9-.7a4.78 4.78 0 0 0 1.4-1.53v-2.44a18.17 18.17 0 0 0-2.93-.28 8.3 8.3 0 0 0-1.53.14c-.51.1-.96.24-1.37.45s-.72.46-.96.79c-.24.32-.36.72-.36 1.18 0 .76.22 1.35.66 1.77.44.41 1.17.62 2.2.62zm15.4-.45h5.04v-11.37h-5.04v-4.47h9.14l.6 2.68h.17a10.7 10.7 0 0 1 2.6-2.24c.98-.6 2.12-.9 3.42-.9 1.62 0 2.9.6 3.84 1.8.93 1.19 1.4 3.18 1.4 5.97h-4.75a4.1 4.1 0 0 0-.43-2.13c-.29-.45-.74-.67-1.36-.67-1.09 0-1.96.27-2.62.81s-1.23 1.17-1.7 1.87v8.66h8.83v4.47h-19.15v-4.47zm24.38 0h5.04v-11.37h-5.04v-4.47h9.15l.6 2.68h.17a10.7 10.7 0 0 1 2.6-2.24c.98-.6 2.11-.9 3.41-.9 1.63 0 2.9.6 3.84 1.8.94 1.19 1.4 3.18 1.4 5.97h-4.75a4.1 4.1 0 0 0-.43-2.13c-.28-.45-.73-.67-1.36-.67-1.08 0-1.95.27-2.62.81s-1.22 1.17-1.69 1.87v8.66h8.82v4.47h-19.14v-4.47zm26.54-23.97h16.05v4.47h-11v28.85h11.01v4.48h-16.05v-37.8zm30.73 24.55c.9 0 1.71-.12 2.45-.35s1.39-.55 1.91-.97c.53-.42.95-.9 1.24-1.46.3-.55.45-1.15.45-1.8 0-.8-.17-1.49-.5-2.04a3.75 3.75 0 0 0-1.4-1.31 6.75 6.75 0 0 0-2.16-.7 17.2 17.2 0 0 0-2.73-.2h-2.27v-2.91l6.83-8.34h-10.3v-4.47H776v3.7l-7.16 8.16h.94c.95 0 1.87.17 2.76.5a6.83 6.83 0 0 1 4.05 3.9c.42.97.63 2.1.63 3.37 0 1.54-.32 2.9-.96 4.06a9.29 9.29 0 0 1-2.52 2.95c-1.04.8-2.24 1.4-3.6 1.78-1.35.4-2.75.6-4.18.6-1.22 0-2.44-.11-3.66-.33-1.22-.22-2.4-.56-3.54-1.02l1.43-4.39c.24.14.57.27 1 .4s.89.28 1.41.42a14.13 14.13 0 0 0 3.28.45zm34.91 13.24h-16.06v-4.47h11.02V227.2h-11.02v-4.47h16.06v37.8z" fill="#FFF"/><path d="M1065.66 240.41a45.91 45.91 0 0 0-52.14-45.48 45.91 45.91 0 0 0-91.27.33 45.91 45.91 0 1 0-11.84 90.91v.15h115.46v-.41a45.9 45.9 0 0 0 39.79-45.5z"/><path d="M897.36 232.24a21.28 21.28 0 0 1 8.82-1.79c1.41 0 2.61.17 3.6.5a5.5 5.5 0 0 1 3.72 3.68c.27.87.4 1.85.4 2.93 0 1.38-.04 2.56-.14 3.54a25.68 25.68 0 0 0-.06 4.5c.05.39.1.76.12 1.1h2.64v4.48h-6.82l-.53-2.77h-.2a7.03 7.03 0 0 1-2.3 2.18c-1 .6-2.35.91-4.04.91-2.03 0-3.63-.54-4.81-1.62a5.56 5.56 0 0 1-1.78-4.31c0-1.14.21-2.12.63-2.95a5.25 5.25 0 0 1 1.81-2.03 8.7 8.7 0 0 1 2.87-1.18 16.53 16.53 0 0 1 5.27-.3l1.98.16c.05-.27.08-.54.08-.81v-.77c0-1.03-.3-1.77-.89-2.22a4.31 4.31 0 0 0-2.62-.67c-1.37 0-2.61.18-3.71.53-1.1.35-2.03.7-2.79 1.05l-1.25-4.14zm6.92 14.91c1.29 0 2.25-.23 2.9-.7a4.78 4.78 0 0 0 1.4-1.53v-2.44a18.17 18.17 0 0 0-2.93-.28 8.3 8.3 0 0 0-1.53.14c-.51.1-.97.24-1.37.45s-.72.46-.96.79c-.24.32-.36.72-.36 1.18 0 .76.22 1.35.66 1.77.44.41 1.17.62 2.2.62zm15.4-.45h5.04v-11.37h-5.04v-4.47h9.14l.61 2.68h.16a10.7 10.7 0 0 1 2.6-2.24c.98-.6 2.12-.9 3.42-.9 1.62 0 2.9.6 3.84 1.8.93 1.19 1.4 3.18 1.4 5.97h-4.75a4.1 4.1 0 0 0-.43-2.13c-.29-.45-.74-.67-1.36-.67-1.09 0-1.96.27-2.62.81s-1.23 1.17-1.7 1.87v8.66h8.83v4.47h-19.14v-4.47zm24.38 0h5.04v-11.37h-5.04v-4.47h9.15l.6 2.68h.17a10.7 10.7 0 0 1 2.6-2.24c.98-.6 2.11-.9 3.41-.9 1.63 0 2.9.6 3.84 1.8.94 1.19 1.4 3.18 1.4 5.97h-4.75a4.1 4.1 0 0 0-.43-2.13c-.28-.45-.73-.67-1.36-.67-1.08 0-1.95.27-2.62.81s-1.22 1.17-1.69 1.87v8.66h8.82v4.47h-19.14v-4.47zm26.54-23.97h16.05v4.47h-11.01v28.85h11.02v4.48H970.6v-37.8zm44.1 20.52h-4.88v7.93h-4.92v-7.93h-12.3v-3.61l12.88-17.11h4.35v16.5h4.88v4.22zm-9.8-13.25-7.07 9.02h7.07V230zm31.34 30.52h-16.06v-4.47h11.02V227.2h-11.02v-4.47h16.06v37.8z" fill="#FFF"/><path d="m553.7 1079.4-.1-45.51-.11-47.21-.52-222.3c-.1-41.53-.3-132.5-124.5-132.22l-50.64.11-50.64-.11c-124.2-.29-124.4 90.7-124.5 132.23l-.52 222.29-.1 47.2-.11 45.52 91.34.6 260.4-.6z"/><path fill="#FFD829" d="m330.28 634.8.23-97.94 94.85.22-.23 97.93z"/><path d="m427.13 637.05-98.84-.23.23-101.93 98.85.23-.24 101.93zm-94.83-4.22 90.84.21.22-93.93-90.84-.2-.22 93.92z"/><path fill="#FFD829" d="M520.59 399.58c-1.87 0-3.71.1-5.52.3-16.8-58.51-70.63-101.4-134.57-101.54-63.93-.15-117.96 42.48-135.02 100.92a48.72 48.72 0 1 0 6.14 95.67c21.63 49.37 70.87 83.91 128.23 84.05 57.37.13 106.77-34.19 128.64-83.45a48.72 48.72 0 1 0 12.1-95.95z"/><path d="M380.18 580.98h-.33a142.45 142.45 0 0 1-129.4-83.73 51.16 51.16 0 0 1-10.63 1.12h-.1a50.78 50.78 0 0 1-50.6-50.84 50.4 50.4 0 0 1 14.94-35.83 50.38 50.38 0 0 1 35.77-14.77h.13c1.31 0 2.68.06 4.07.18a143.43 143.43 0 0 1 50.17-71.87 141.01 141.01 0 0 1 85.97-28.9h.34c31.46.07 61.26 10.2 86.17 29.3a143.43 143.43 0 0 1 49.84 72.1 50.4 50.4 0 0 1 39.9 14.78 50.38 50.38 0 0 1 14.78 35.9 50.38 50.38 0 0 1-14.94 35.83 50.38 50.38 0 0 1-35.78 14.77h-.12c-3.6 0-7.2-.4-10.73-1.17a142.47 142.47 0 0 1-129.45 83.13zm-127.41-88.4.68 1.55c22 50.2 71.62 82.72 126.4 82.85h.33a138.46 138.46 0 0 0 126.48-82.26l.68-1.54 1.64.4a46.6 46.6 0 0 0 11.39 1.44h.11a46.4 46.4 0 0 0 32.96-13.6 46.42 46.42 0 0 0 13.76-33.01 46.41 46.41 0 0 0-13.6-33.07 46.42 46.42 0 0 0-33.01-13.76h-.11c-1.65 0-3.4.1-5.2.3l-1.67.18-.47-1.62a139.35 139.35 0 0 0-48.9-71.63 137.05 137.05 0 0 0-83.74-28.47h-.33c-30.46 0-59.34 9.7-83.54 28.09a139.34 139.34 0 0 0-49.23 71.4l-.48 1.61-1.67-.19a46.6 46.6 0 0 0-5.3-.32h-.11a46.77 46.77 0 0 0-46.72 46.61 46.78 46.78 0 0 0 46.61 46.83h.1c3.8 0 7.61-.46 11.3-1.38l1.64-.4z"/><path fill="#FFD829" d="m215.18 434.7 29.81 32.55"/><path d="M245 469.25a2 2 0 0 1-1.48-.64l-29.81-32.56a2 2 0 0 1 2.95-2.7l29.8 32.56a2 2 0 0 1-1.47 3.34z"/><path fill="#FFD829" d="m539.37 435.45-29.96 32.42"/><path d="M509.4 469.87a2 2 0 0 1-1.46-3.36l29.96-32.42a2 2 0 0 1 2.94 2.72l-29.96 32.41a2 2 0 0 1-1.47.65zm-42.87-141.79a139.68 139.68 0 0 0-86.02-29.74 139.67 139.67 0 0 0-86.89 29.91A112.06 112.06 0 0 0 380 368.8c34.82 0 65.94-15.85 86.53-40.72z"/><path d="m247.1 401.85 78.97-54.3-24.19-24.87s-45.97 31.9-54.77 79.17zm266.2.59-78.95-54.3 24.18-24.88s45.98 31.9 54.78 79.18zm-167.75 53.38a18.51 18.51 0 1 1-37.02-.09 18.51 18.51 0 0 1 37.02.1z"/><path d="M355.9 459.47a2 2 0 0 1-1.66-.87 42.86 42.86 0 0 0-35.28-18.7h-.1a42.84 42.84 0 0 0-35.27 18.54 2 2 0 1 1-3.3-2.27 46.84 46.84 0 0 1 38.57-20.27h.1a46.86 46.86 0 0 1 38.58 20.44 2 2 0 0 1-1.65 3.13zm110.48-3.37a18.51 18.51 0 1 1-37.02-.09 18.51 18.51 0 0 1 37.02.1z"/><path d="M476.72 459.75a2 2 0 0 1-1.65-.87 42.84 42.84 0 0 0-35.28-18.7h-.1a42.84 42.84 0 0 0-35.27 18.53 2 2 0 1 1-3.3-2.27 46.85 46.85 0 0 1 38.57-20.26h.1a46.84 46.84 0 0 1 38.58 20.44 2 2 0 0 1-1.65 3.13z"/><path fill="#FFD829" d="m379.17 453.69-.06 26.96"/><path d="M379.1 482.65a2 2 0 0 1-2-2l.07-26.96a2 2 0 1 1 4 .01l-.06 26.96a2 2 0 0 1-2 1.99z"/><path fill="#FFF" d="M404.1 503.93a25.07 25.07 0 0 1-50.14-.12l50.15.12z"/><g fill="#FFF"><path d="M317.84 503.15c-27.64 0-50.12-22.5-50.12-50.13s22.48-50.13 50.12-50.13 50.13 22.49 50.13 50.13-22.49 50.13-50.13 50.13zm0-96.26a46.18 46.18 0 0 0-46.12 46.13 46.18 46.18 0 0 0 46.12 46.13 46.18 46.18 0 0 0 46.13-46.13 46.18 46.18 0 0 0-46.13-46.13zm122.32 96.26c-27.64 0-50.12-22.5-50.12-50.13s22.48-50.13 50.12-50.13 50.13 22.49 50.13 50.13-22.49 50.13-50.13 50.13zm0-96.26a46.18 46.18 0 0 0-46.12 46.13 46.18 46.18 0 0 0 46.12 46.13 46.18 46.18 0 0 0 46.13-46.13 46.18 46.18 0 0 0-46.13-46.13z"/><path d="m367.7 445.38-3.92-.77c.8-4.1 5-11.86 15.11-11.86 10.24 0 14.64 7.13 15.54 10.9l-3.9.92c-.07-.3-2.07-7.82-11.64-7.82a10.98 10.98 0 0 0-11.18 8.63z"/></g><path fill="#FFF" d="m432 632.18-54.17 290.07-54.17-290.07z"/><path d="m198.72 853.03 106.93-121.7a21.53 21.53 0 0 0-1.97-30.38l-57.36-50.4a21.53 21.53 0 0 0-30.4 1.96l-94.25 107.27-33.36 37.94s-30.5 34.4-43.46 53.43a6.5 6.5 0 0 0 5.64 10.16l143.62-6.07a6.5 6.5 0 0 0 4.61-2.2z"/><path d="M50.21 863.32a8.45 8.45 0 0 1-7.42-4.37 8.47 8.47 0 0 1 .4-8.93c12.9-18.91 43.32-53.28 43.63-53.63l33.35-37.93 94.26-107.27a23.56 23.56 0 0 1 33.2-2.15l57.37 50.4a23.38 23.38 0 0 1 7.95 16.17 23.38 23.38 0 0 1-5.8 17.05l-106.93 121.7a8.54 8.54 0 0 1-6.02 2.87l-143.62 6.08-.37.01zm181.9-216.12a19.5 19.5 0 0 0-14.68 6.63L123.17 761.1l-33.35 37.94c-.31.35-30.57 34.53-43.32 53.23a4.44 4.44 0 0 0-.21 4.74 4.42 4.42 0 0 0 4.12 2.3l143.61-6.07a4.52 4.52 0 0 0 3.2-1.53l106.92-121.7a19.4 19.4 0 0 0 4.82-14.14 19.4 19.4 0 0 0-6.6-13.42l-57.37-50.4a19.44 19.44 0 0 0-12.88-4.85z"/><path fill="#FFD829" d="M746.16 703.24 894.06 555c7.4-6.6 12.24-6.77 21.6-7.85 9.03-.7 14.9-3.69 23.77-12.12l22.9-23.18 28.63-29 40-40.05-.06-.06h.02a18.1 18.1 0 1 0-26.87-24.17l-38.84 38.87-.1-.11 40.82-40.87 8.62-8.7a18.07 18.07 0 0 0-26.5-24.58c-.4.4-9.5 9.44-9.86 9.87l-38.83 38.86-.1-.1 40-40.06 16.67-16.55-.53.52c7.02-7.11 7.48-19.1.38-26.12a18.09 18.09 0 0 0-25.58.16c-.4.41-17.5 17.33-17.85 17.77l-38.84 38.85-.1-.1 41.62-41.7 7.5-7.74a18.08 18.08 0 0 0-25.5-25.2l-7.74 7.53 7.27-7.16c-.43.37-8.53 8.32-8.94 8.73-.4.4-.77.83-1.13 1.26l-49.37 49.54-.83-.22 24-40.52-.09-.04.02-.03a18.1 18.1 0 1 0-31.92-16.93l-46.23 78.1a51.02 51.02 0 0 0-8.5 37.23c1.52 9.22-1.39 15.82-6.13 22.5L703.6 575.7"/><path d="M746.16 705.24a2 2 0 0 1-1.42-3.41l147.9-148.24.08-.09c7.44-6.6 12.56-7.18 21.04-8.14l1.67-.2c8.62-.66 14.1-3.47 22.62-11.58l51.48-52.13 39.66-39.7c.09-.16.2-.3.31-.43a16.11 16.11 0 0 0-.15-22.75 16.12 16.12 0 0 0-23.89 1.42l-38.83 38.86a2 2 0 0 1-2.84 0l-.1-.11a2 2 0 0 1 0-2.83l40.82-40.86 8.57-8.66a16.09 16.09 0 0 0-12.16-26.59h-.1a16 16 0 0 0-11.35 4.8l-1.15 1.13a1029.6 1029.6 0 0 0-8.71 8.74l-38.84 38.86a2 2 0 0 1-2.84 0l-.1-.11a2 2 0 0 1 0-2.83l40.02-40.05 16.06-15.95.07-.08c6.41-6.5 6.6-17.15.4-23.28a15.97 15.97 0 0 0-11.41-4.64c-4.3.02-8.33 1.72-11.35 4.78l-2.1 2.08c-4.12 4.09-15.06 14.94-15.68 15.6l-.08.1-38.84 38.85a2 2 0 0 1-2.84-.01l-.1-.11a2 2 0 0 1 0-2.81l41.64-41.7 7.4-7.63a16.1 16.1 0 0 0-1.54-21.12 16.1 16.1 0 0 0-21.14-1.26l-7.65 7.45c-.12.1-.24.2-.37.28l-1.28 1.26a17.44 17.44 0 0 0-1.13 1.26l-49.37 49.55a2 2 0 0 1-1.93.52l-.32-.09-.47-.12a2 2 0 0 1-1.25-2.96l23.7-40.04a1.85 1.85 0 0 1 .23-.55 16.1 16.1 0 0 0-17.84-23.78 15.97 15.97 0 0 0-10.63 8.88l-46.24 78.1-.08.13a49.3 49.3 0 0 0-8.18 35.77c1.77 10.6-2.06 17.78-6.46 23.97-.07.1-.14.18-.22.26L705.02 577.12a2 2 0 0 1-2.83-2.83L805.9 470.34c4.46-6.3 7.12-12.28 5.7-20.88a53.3 53.3 0 0 1 8.78-38.63l46.16-77.97a19.94 19.94 0 0 1 13.13-10.8 20.11 20.11 0 0 1 22.55 29.22c-.05.19-.12.37-.22.54l-17.39 29.37 40.4-40.53c.4-.48.78-.91 1.19-1.32.08-.08 8.5-8.37 9.07-8.85.1-.08.2-.15.3-.2l.06-.07.16-.14a20.11 20.11 0 0 1 26.5 1.5 20.1 20.1 0 0 1 5.7 17.57l.79-.8a19.95 19.95 0 0 1 14.16-5.96h.13a19.9 19.9 0 0 1 14.11 5.8c7.4 7.3 7.58 19.75.64 27.85a20.1 20.1 0 0 1 18.23 33.03l-.09.1-1 1.01a20.08 20.08 0 0 1 17.76 33.56c-.09.18-.2.34-.34.48l-40.01 40.05-51.52 52.17c-9.23 8.78-15.54 11.98-25.04 12.71l-1.6.19c-8.2.92-12.33 1.39-18.79 7.12l-147.84 148.2a2 2 0 0 1-1.42.58z"/><path d="m746.75 704.82 112.66-115.16-84.9-84.9-99.66 99.66-186.5 40 25.04 116.77 160.68-34.46 53.83-11.52a37.3 37.3 0 0 0 18.85-10.4z"/><path d="m511.85 763.57-25.88-120.69 187.88-40.3 100.66-100.65 87.71 87.71-114.04 116.58a39.19 39.19 0 0 1-19.86 10.94l-53.83 11.52-162.64 34.89zm-21.13-117.62 24.2 112.87 158.73-34.05 53.83-11.52a35.19 35.19 0 0 0 17.84-9.83L856.6 589.67l-82.1-82.08-98.65 98.66-.58.12-184.55 39.58z"/><path fill="#FFF" d="m769.85 497.12 31.08-31.09 99.24 99.24-31.09 31.08zM322.9 632.18l4.97-31.56h99.82l4.92 31.56-52.6 37.28z"/><path d="m378.41 652.6-18.94-18.93 18.94-33.05 18.93 33.05z"/><path d="m378.41 925.91-23.57-119.64 23.57-201.31 22.67 201.15z"/><path d="M433.03 636.15H319.74l3.16-4h110.13z"/><path fill="#FFF" d="M32.1 821.78h203.84V1080H32.1z"/><path fill="#FFD829" d="M21.57 962.97c-9.99.03-17.34 8.07-17.32 18.06a18.1 18.1 0 0 0 18.13 18.05h12.56l11.2.03h1.8a18.1 18.1 0 0 0-.09-36.18l-26.28.04z"/><path d="m46.14 1001.11-23.76-.03h-.04a20.12 20.12 0 0 1-20.09-20.04c-.02-11.23 8.46-20.04 19.32-20.07l26.28-.04h.04a20.12 20.12 0 0 1 20.1 20.04 20.12 20.12 0 0 1-20.05 20.14h-1.8zm-23.76-4.03 25.56.03a16.11 16.11 0 0 0 16.04-16.13 16.11 16.11 0 0 0-16.1-16.05h-.02l-26.29.04c-8.75.02-15.34 6.93-15.32 16.06a16.11 16.11 0 0 0 16.1 16.05h.03z"/><path fill="#FFD829" d="M21.57 999.15c-9.99.02-17.34 8.07-17.32 18.06a18.1 18.1 0 0 0 18.13 18.05h12.56l11.2.03h1.8a18.1 18.1 0 0 0-.09-36.18l-26.28.04z"/><path d="m46.14 1037.29-23.76-.03h-.04a20.11 20.11 0 0 1-20.09-20.05c-.02-11.22 8.46-20.03 19.32-20.06l26.28-.04h.04a20.12 20.12 0 0 1 20.1 20.04 20.12 20.12 0 0 1-20.05 20.14h-1.8zm-23.76-4.03 25.56.03a16.11 16.11 0 0 0 16.04-16.13 16.11 16.11 0 0 0-16.1-16.05h-.02l-26.29.04c-8.75.02-15.34 6.92-15.32 16.05a16.11 16.11 0 0 0 16.1 16.06h.03z"/><path fill="#FFD829" d="M21.57 926.7c-9.99.03-17.34 8.08-17.32 18.07a18.1 18.1 0 0 0 18.13 18.05h12.56l11.2.03h1.8a18.1 18.1 0 0 0-.09-36.18l-26.28.04z"/><path d="m46.14 964.85-23.76-.03h-.04a20.11 20.11 0 0 1-20.09-20.05c-.02-11.22 8.46-20.03 19.32-20.06l26.28-.04h.04a20.12 20.12 0 0 1 20.1 20.04 20.12 20.12 0 0 1-20.05 20.14h-1.8zm-23.76-4.03 25.56.03a16.11 16.11 0 0 0 16.04-16.13 16.11 16.11 0 0 0-16.1-16.05h-.02l-26.29.04c-8.75.02-15.34 6.92-15.32 16.05a16.11 16.11 0 0 0 16.1 16.06h.03z"/><path fill="#FFD829" d="M21.57 890.53c-9.99.03-17.34 8.07-17.32 18.06a18.1 18.1 0 0 0 18.13 18.05h12.56l11.2.03h1.8a18.1 18.1 0 0 0-.09-36.18l-26.28.04z"/><path d="m46.14 928.67-23.76-.03h-.04a20.12 20.12 0 0 1-20.09-20.05c-.02-11.22 8.46-20.03 19.32-20.06l26.28-.04h.04a20.12 20.12 0 0 1 20.1 20.04 20.12 20.12 0 0 1-20.05 20.14h-1.8zm-23.76-4.03 25.56.03a16.11 16.11 0 0 0 16.04-16.13 16.11 16.11 0 0 0-16.1-16.05h-.02l-26.29.04c-8.75.02-15.34 6.93-15.32 16.06a16.11 16.11 0 0 0 16.1 16.05h.03z"/><g fill="#FFD829"><path d="M375.89 1079.81v.03h4v-.04z"/><path d="m379.89 922.8 82.8-150.96a2 2 0 0 0-.02-1.97l-27.34-46.86 33.22-36.9a2 2 0 0 0 .22-2.39l-31.42-51.4c-1.56-.06-3.15-.1-4.75-.12l.01.02 31.97 52.32-33.2 36.88a2 2 0 0 0-.24 2.34l27.5 47.15-82.5 150.4a2 2 0 0 0-.25.97v157.53h4V922.78z"/></g><path d="m232.83 174.43-22.84 19.68 12.69 27.36-30.06 2.48-5.79 29.6-25.78-15.67-22.09 20.55-11.64-27.83-29.94 3.63 6.91-29.35-26.34-14.67 22.84-19.68-12.69-27.36 30.06-2.48 5.79-29.6 25.78 15.68 22.09-20.56 11.64 27.83 29.95-3.63-6.92 29.35zm757.86 663.15-26.47 12.32 6.58 28.45-28.66-5.61-11.38 26.9-19.89-21.4-25.02 15.09-3.51-29-29.11-2.52 14.18-25.53-22.05-19.14 26.48-12.32-6.59-28.45 28.67 5.62 11.37-26.91 19.89 21.4 25.03-15.08 3.51 29 29.1 2.51-14.18 25.53z" fill="#FFF"/><path d="M948.93 881.04a45.91 45.91 0 0 0-52.14-45.48 45.91 45.91 0 0 0-91.27.33 45.91 45.91 0 1 0-11.84 90.91v.15h115.46v-.42a45.91 45.91 0 0 0 39.8-45.5zM838.8 993.35a22.46 22.46 0 0 1-44.91 0c0-12.4 22.45-48.66 22.45-48.66s22.46 36.25 22.46 48.66zm59.88 0a22.46 22.46 0 0 1-44.91 0c0-12.4 22.46-48.66 22.46-48.66s22.45 36.25 22.45 48.66z"/><g fill="#FFD829"><path d="M375.83 1079.81v.03h4v-.04z"/><path d="M379.83 922.28a2 2 0 0 0-.25-.96l-82.5-150.4 27.5-47.16a2 2 0 0 0-.24-2.34l-33.2-36.89 31.75-52.31.02-.02c-1.61.02-3.2.06-4.76.12l-31.2 51.4a2 2 0 0 0 .22 2.39l33.22 36.9-27.33 46.86a2 2 0 0 0-.03 1.97l82.8 150.95v157.02h4V922.27z"/></g></svg>