<svg xmlns="http://www.w3.org/2000/svg" xml:space="preserve" viewBox="0 0 1920 1080"><path fill="#FFF" d="m1017.04 291.776 748.892-82.574.437 3.969-748.892 82.574z"/><path fill="#FFF" d="m1016.893 243.43.552 3.954 746.663-104.251v187.105L110.916 432.646c-8.521.778-17.418 1.508-26.023 2.214-47.321 3.881-72.493 6.607-79.602 12.637.196-.805.416-1.599.66-2.38 7.944-15.631 42.248-25.665 102.322-29.866l520.81-44.519-.34-3.979-520.78 44.517c-47.727 3.338-79.314 10.324-95.344 21.176 17.558-22.762 59.306-32.401 95.702-36.391l520.255-57.389-.438-3.969-520.254 57.389c-50.543 5.542-83.994 18.695-98.877 38.557 4.397-10.844 11.756-20.326 22.066-28.332 17.566-13.641 43.58-23.062 77.305-28l520.84-72.722-.552-3.954-520.854 72.724C41.699 380.038 4.845 406.929.572 448.357a20.608 20.608 0 0 0-.423 4.185c0 .562.025 1.117.062 1.668-.024.816-.062 1.626-.062 2.454 0 .132.005.263.006.395 0 .055-.006.109-.006.165 0 .174.014.341.015.513.011.795.034 1.586.07 2.374.009.173.011.35.022.522 1.125 21.535 11.431 40.443 29.987 54.881 19.026 14.803 45.881 24.301 77.665 27.465l1658.001 160.865 2.189.212V138.543L1016.893 243.43zm747.215 210.294v47.716L116.146 467.589c-3.627-.059-7.25-.155-10.769-.288-34.612-1.3-59.323-3.324-75.547-6.187-12.751-2.25-18.419-4.752-20.882-6.722l1755.16-.668zm-1635.069-3.369 1634.069-54.152v53.529l-1634.069.623zm-23.812 20.937c3.548.133 7.2.23 10.846.289l1648.035 33.852v60.749L113.192 491.005a222.57 222.57 0 0 1-10.716-.641c-63.654-5.374-95.02-16.473-98.065-34.799 4.808 6.766 25.695 12.904 100.816 15.727zm-3.087 23.05c3.57.301 7.24.521 10.89.652l1651.079 75.184v65.279L113.232 518.667a143.332 143.332 0 0 1-10.663-1c-34.417-4.555-58.958-11.623-75.027-21.608-12.585-7.819-19.986-17.512-22.456-29.434 11.325 14.353 42.495 23.111 97.054 27.717zm-16.92-55.504c8.613-.707 17.52-1.437 26.001-2.212l1652.888-102.388v57.937L7.957 450.372c1.686-1.384 6.789-3.686 22.092-5.992 14.797-2.231 34.408-3.839 55.171-5.542zm23.081 100.168c-31.03-3.089-57.173-12.302-75.605-26.644-8.857-6.891-15.73-14.847-20.513-23.641 3.597 3.899 8.006 7.469 13.252 10.729 16.561 10.289 41.62 17.543 76.61 22.173 3.588.475 7.276.822 10.933 1.027l1651.129 116.809v60.196L108.301 539.006z"/><path fill="#FFF" d="m1017.815 331.42 748.131-61.93.33 3.978-748.132 61.931z"/><path d="m1823.286 763.581-.985-661.851c-.062-8.965-4.114-17.332-11.115-22.947a29.578 29.578 0 0 0-24.818-5.865l-769.367 128.146-.655-3.938L1785.62 68.998c9.856-2.127 20.123.3 28.064 6.671 7.942 6.37 12.538 15.863 12.609 26.045l.985 661.861-3.992.006z"/><path fill="#FF8630" d="M2.147 456.389c0 58.523 42.877 98.075 105.956 105.966l479.686 56.174 779.882 91.329 511.723 59.926c21.927 2.568 38.458 21.149 38.458 43.228l.302 266.926-1916.007.033V456.389"/><path d="M138.701 605.332h-.019a2.496 2.496 0 0 1-2.477-2.514l.113-14.972a2.496 2.496 0 0 1 2.495-2.477h.02a2.496 2.496 0 0 1 2.476 2.514l-.113 14.972a2.497 2.497 0 0 1-2.495 2.477zM135.526 1028.838h-.019a2.496 2.496 0 0 1-2.477-2.514l.227-30.251a2.496 2.496 0 0 1 2.495-2.477h.019a2.496 2.496 0 0 1 2.477 2.514l-.227 30.251a2.495 2.495 0 0 1-2.495 2.477zm.454-60.501h-.019a2.496 2.496 0 0 1-2.477-2.514l.227-30.251a2.496 2.496 0 0 1 2.495-2.477h.019a2.496 2.496 0 0 1 2.477 2.514l-.227 30.251a2.496 2.496 0 0 1-2.495 2.477zm.453-60.501h-.019a2.496 2.496 0 0 1-2.477-2.514l.227-30.251a2.496 2.496 0 0 1 2.495-2.477h.019a2.496 2.496 0 0 1 2.477 2.514l-.227 30.251a2.495 2.495 0 0 1-2.495 2.477zm.454-60.501h-.019a2.496 2.496 0 0 1-2.477-2.514l.227-30.251a2.496 2.496 0 0 1 2.495-2.477h.019a2.496 2.496 0 0 1 2.477 2.514l-.227 30.251a2.496 2.496 0 0 1-2.495 2.477zm.453-60.501h-.019a2.496 2.496 0 0 1-2.477-2.514l.227-30.251a2.496 2.496 0 0 1 2.495-2.477h.019a2.496 2.496 0 0 1 2.477 2.514l-.227 30.251a2.496 2.496 0 0 1-2.495 2.477zm.454-60.5h-.019a2.496 2.496 0 0 1-2.477-2.514l.227-30.251c.01-1.378 1.129-2.456 2.514-2.477a2.496 2.496 0 0 1 2.477 2.514l-.227 30.251a2.497 2.497 0 0 1-2.495 2.477zm.454-60.501h-.019a2.496 2.496 0 0 1-2.477-2.514l.227-30.251a2.496 2.496 0 0 1 2.495-2.477h.019a2.496 2.496 0 0 1 2.477 2.514l-.227 30.251a2.497 2.497 0 0 1-2.495 2.477zM135.187 1074.06h-.019a2.496 2.496 0 0 1-2.477-2.514l.112-14.971a2.496 2.496 0 0 1 2.495-2.477h.019a2.496 2.496 0 0 1 2.477 2.514l-.112 14.971a2.496 2.496 0 0 1-2.495 2.477z"/><path d="M1919.849 813.011c0-23.09-17.291-42.525-40.222-45.21L108.351 560.375c-30.968-3.875-57.07-15.439-75.485-33.443-18.79-18.372-28.723-42.766-28.723-70.543 0-28.139 9.118-51.303 27.101-68.851 17.554-17.128 43.534-28.954 77.187-35.146l520.321-86.664-.656-3.938-520.354 86.67C37.355 361.409.151 398.731.151 456.389c0 .997.015 1.988.04 2.976H.156l.258 620.607h3.992L4.159 486.19c4.683 16.6 13.414 31.372 25.917 43.597 19.043 18.619 45.939 30.566 77.795 34.552l1771.292 207.428c20.919 2.45 36.693 20.181 36.693 41.245l.303 266.925h3.992l-.302-266.926z"/><path d="m649.273 461.497-53.822 38.718-54.209-38.718v150.72l108.031 12.779z"/><path fill="#FFF" d="M565.519 561.635c-.007 2.597-2.203 4.599-5.001 4.365-2.737-.229-4.922-2.597-4.915-5.194.007-2.775 2.203-4.717 4.941-4.488 2.798.234 4.982 2.541 4.975 5.317zM582.354 578.842c.003-.917.748-1.709 1.829-1.618.406.034 1.149.227 1.622.266 2.163.181 4.739-2.359 6.164-4.209-2.898-3.262-6.065-7.398-6.053-11.663.013-4.92 3.875-8.076 9.215-7.629s9.183 4.246 9.17 9.166c-.011 4.264-3.199 7.87-6.113 10.645 1.414 2.087 3.975 5.056 6.138 5.237.473.039 1.217-.029 1.622.005 1.082.09 1.823 1.006 1.82 1.923-.004 1.509-1.492 1.845-3.182 1.704-4.596-.384-7.293-3.367-9.515-6.505-2.239 2.766-4.95 5.296-9.546 4.911-1.69-.139-3.175-.724-3.171-2.233zM634.095 567.368c-.007 2.597-2.203 4.599-5.001 4.365-2.737-.229-4.922-2.597-4.915-5.194.007-2.775 2.203-4.717 4.94-4.488 2.799.234 4.983 2.542 4.976 5.317zM816.12 318.964a12.085 12.085 0 0 1-8.593-3.565 12.05 12.05 0 0 1-3.535-8.584 12.051 12.051 0 0 1 3.569-8.57l72.859-72.573 2.817 2.829-72.858 72.573c-3.178 3.167-3.189 8.329-.023 11.508 3.165 3.177 8.327 3.19 11.506.023l72.858-72.573 2.817 2.829-72.858 72.573a12.092 12.092 0 0 1-8.559 3.53z"/><path fill="#FFF" d="M927.775 252.644h-.122c-8.084-.017-15.924-1.617-23.303-4.755a59.811 59.811 0 0 1-36.466-55.261c.066-32.985 26.921-59.775 59.889-59.775h.12c33.023.066 59.835 26.989 59.769 60.015-.066 32.985-26.922 59.776-59.887 59.776zm-.003-115.798c-30.773 0-55.835 25.002-55.897 55.79a55.827 55.827 0 0 0 34.036 51.578c6.884 2.929 14.202 4.421 21.749 4.437h.114c30.77 0 55.832-25.003 55.895-55.79.062-30.825-24.963-55.953-55.785-56.015h-.112zm.004 101.212h-.094c-12.102-.024-23.469-4.76-32.009-13.334-8.54-8.576-13.229-19.964-13.205-32.066.05-24.951 20.366-45.218 45.304-45.218h.092c12.102.024 23.469 4.76 32.009 13.335 8.54 8.575 13.229 19.963 13.205 32.065-.024 12.102-4.759 23.472-13.334 32.012-8.552 8.519-19.902 13.206-31.968 13.206zm-.004-86.626c-22.742 0-41.267 18.479-41.312 41.233-.022 11.037 4.254 21.421 12.041 29.24 7.787 7.819 18.153 12.137 29.189 12.16h.087c11.003.001 21.352-4.274 29.15-12.042 7.819-7.788 12.136-18.155 12.159-29.191.022-11.036-4.253-21.421-12.041-29.24-7.787-7.819-18.153-12.137-29.188-12.16h-.085z"/><g fill="#FFF"><path d="M683.893 222.592a12.505 12.505 0 0 0-3.409-1.266c5.381-5.356 13.882-15.692 10.04-24.498-1.436-3.29-3.666-5.376-6.629-6.2-6.458-1.8-13.906 3.414-14.219 3.636a2 2 0 0 0-.842 1.627l-.056 60.816a1.996 1.996 0 0 0 1.994 1.998h.002a1.997 1.997 0 0 0 1.996-1.994l.055-59.735c2.231-1.354 6.672-3.43 10.008-2.498 1.769.494 3.088 1.786 4.031 3.948 3.432 7.866-8.112 19.564-12.85 23.408a1.997 1.997 0 0 0 1.886 3.445c.029-.008 2.939-.9 6.075.818 3.253 1.78 5.66 5.662 7.151 11.538 4.324 17.031 2.66 50.61 2.642 50.947a1.997 1.997 0 0 0 3.987.205c.072-1.401 1.713-34.517-2.76-52.135-1.774-6.996-4.837-11.726-9.102-14.06zM719.083 238.172l-12.406 4.78.023-25.444 12.754-4.451a1.998 1.998 0 0 0 1.227-2.543 1.995 1.995 0 0 0-2.542-1.227l-11.434 3.99.025-26.801 12.739-4.338a1.995 1.995 0 0 0 1.246-2.533 2 2 0 0 0-2.533-1.247l-14.09 4.798a1.998 1.998 0 0 0-1.353 1.888l-.056 60.815a1.996 1.996 0 0 0 2.714 1.864l15.122-5.827a1.996 1.996 0 1 0-1.436-3.724zM776.29 257.477l-12.405 4.78.023-24.825 13.602-4.747a1.998 1.998 0 0 0 1.227-2.543 1.995 1.995 0 0 0-2.542-1.227l-12.282 4.287.025-27.42 12.739-4.338a1.995 1.995 0 0 0 1.246-2.533 1.998 1.998 0 0 0-2.533-1.247l-14.09 4.798a1.998 1.998 0 0 0-1.353 1.888l-.056 60.816a1.996 1.996 0 0 0 2.714 1.864l15.122-5.827a1.996 1.996 0 1 0-1.437-3.726zM754.146 253.084c-.931-6.722-4.323-11.682-9.549-13.968a41.878 41.878 0 0 0-1.77-.711c-1.461-.562-2.842-1.093-3.891-2.024-3.053-2.707-3.343-6.881-3.05-9.904 1.131-11.654 9.162-13.611 9.529-13.694a1.997 1.997 0 0 0-.831-3.905c-.459.095-11.245 2.523-12.671 17.213-.541 5.58 1.012 10.295 4.375 13.277 1.591 1.411 3.378 2.098 5.107 2.763.537.207 1.075.412 1.604.644 5.005 2.189 6.675 7.113 7.194 10.857.769 5.55-2.179 9.77-4.005 11.791-3.089 3.417-7.41 5.646-10.711 5.51a1.987 1.987 0 0 0-2.068 1.922 1.996 1.996 0 0 0 1.922 2.068c.132.005.263.007.396.007 4.419 0 9.642-2.646 13.423-6.831 3.957-4.38 5.731-9.713 4.996-15.015zM795.144 190.051a1.997 1.997 0 0 0-3.946.214l-5.858 65.707a1.997 1.997 0 0 0 3.977.355l2.06-23.11 7.732-2.96 4.304 21.532a1.997 1.997 0 0 0 3.915-.782l-12.184-60.956zm-3.373 38.738 2.173-24.371 4.371 21.866-6.544 2.505zM828.268 213.246a9.352 9.352 0 0 0-3.345-1.238c5.366-5.559 12.775-15.257 9.141-23.585-1.436-3.291-3.666-5.377-6.629-6.2-6.459-1.796-13.906 3.414-14.219 3.636-.527.374-.841.98-.842 1.627l-.056 60.815a1.996 1.996 0 0 0 1.994 1.998h.002a1.997 1.997 0 0 0 1.996-1.994l.055-59.737c2.221-1.354 6.648-3.43 10-2.498 1.773.493 3.094 1.786 4.039 3.951 3.432 7.865-8.112 19.564-12.85 23.408a1.997 1.997 0 0 0 2.238 3.29c.034-.021 3.445-1.851 6.409-.056 2.346 1.419 6.204 6.317 5.678 23.167a1.996 1.996 0 0 0 1.933 2.058 1.985 1.985 0 0 0 2.057-1.933c.45-14.399-2.108-23.384-7.601-26.709zM741.739 349.715l-13.394 5.161.055-60.451 13.66-4.65a1.997 1.997 0 0 0-1.287-3.78l-15.011 5.111a1.998 1.998 0 0 0-1.353 1.888l-.059 64.791a1.996 1.996 0 0 0 2.714 1.864l16.11-6.208a1.996 1.996 0 0 0-1.435-3.726zM774.191 271.825h-.002a1.997 1.997 0 0 0-1.996 1.994l-.029 32.107-14.68 6.42.028-30.854a1.996 1.996 0 0 0-1.994-1.998h-.002a1.997 1.997 0 0 0-1.996 1.994l-.059 64.791a1.996 1.996 0 0 0 1.994 1.998h.002a1.997 1.997 0 0 0 1.996-1.994l.027-29.579 14.68-6.42-.026 28.326a1.996 1.996 0 0 0 1.994 1.998h.002a1.997 1.997 0 0 0 1.996-1.994l.06-64.792a1.998 1.998 0 0 0-1.995-1.997z"/></g><path fill="#FFF" d="M628.91 404.205a1.997 1.997 0 0 1-1.996-1.996V78.15c0-.759.43-1.452 1.111-1.79a1.998 1.998 0 0 1 2.096.203l31.728 24.21 30.75-33.484a1.99 1.99 0 0 1 1.436-.646c.563.02 1.074.207 1.458.597l22.066 22.446 30.562-33.278a1.99 1.99 0 0 1 1.436-.646 1.938 1.938 0 0 1 1.458.597l22.068 22.445 30.558-33.277a1.99 1.99 0 0 1 1.436-.646c.567.015 1.074.207 1.458.597L828.6 67.922l30.562-33.278a1.99 1.99 0 0 1 1.436-.646c.54.009 1.074.207 1.458.597l22.069 22.446 30.565-33.28a1.99 1.99 0 0 1 1.436-.646c.564-.024 1.074.207 1.458.597l22.069 22.446 30.567-33.279a1.989 1.989 0 0 1 1.436-.646c.54.002 1.074.207 1.457.597l21.762 22.127L1015.893.923a1.995 1.995 0 0 1 3.694 1.049v375.443a1.996 1.996 0 0 1-1.869 1.992l-388.681 24.796a5.379 5.379 0 0 1-.127.002zm1.996-322.021V400.08l384.689-24.542V9l-18.661 30.217a1.995 1.995 0 0 1-3.121.351L971.74 17.123l-30.567 33.279a1.99 1.99 0 0 1-1.436.646 2.006 2.006 0 0 1-1.458-.597L916.21 28.006l-30.565 33.28a1.99 1.99 0 0 1-1.436.646c-.574-.018-1.074-.207-1.458-.597l-22.07-22.445-30.562 33.28a1.99 1.99 0 0 1-1.436.646 1.922 1.922 0 0 1-1.458-.597L805.16 49.773 774.602 83.05a1.99 1.99 0 0 1-1.436.646 1.968 1.968 0 0 1-1.458-.597L749.64 60.653l-30.562 33.279a1.99 1.99 0 0 1-1.436.646c-.572-.008-1.074-.207-1.458-.597l-22.066-22.446-30.561 33.278a1.995 1.995 0 0 1-2.681.237l-29.97-22.866z"/><path fill="#FF8630" d="m1146.664 488.407 2.123-104.523c.249-12.244-9.576-22.319-21.821-22.377l-284.186-1.341c-11.978-.057-21.785 9.509-22.028 21.486l-2.036 100.217"/><path d="m1148.66 488.448-3.992-.082 2.123-104.523c.11-5.383-1.9-10.47-5.658-14.324a19.785 19.785 0 0 0-14.177-6.016l-284.185-1.341h-.094c-10.78 0-19.71 8.741-19.929 19.531l-2.036 100.217-3.991-.082 2.036-100.217c.263-12.948 10.983-23.441 23.921-23.441h.113l284.186 1.341c6.461.03 12.505 2.595 17.015 7.222 4.512 4.626 6.924 10.732 6.792 17.192l-2.124 104.523z"/><path d="m918.963 397.091 12.563.106-.347 40.776c-.004.463.017 1.041.063 1.735.044.695.103 1.428.174 2.199a58.887 58.887 0 0 0 .541 4.244l5.164.044-.043 5.01-10.323-.088-.725-5.941-.307-.003c-1.145 1.944-2.838 3.56-5.078 4.851-2.24 1.292-4.82 1.925-7.742 1.9-5.793-.049-10.046-1.716-12.759-5.003-2.714-3.286-4.042-8.372-3.983-15.259.028-3.237.514-6.098 1.457-8.584.944-2.484 2.28-4.553 4.012-6.209 1.732-1.655 3.805-2.91 6.221-3.763 2.416-.853 5.111-1.267 8.083-1.242a49.21 49.21 0 0 1 2.881.102c.845.058 1.626.142 2.343.251.717.109 1.394.255 2.034.441.639.186 1.343.385 2.109.597l.093-10.946-6.474-.055.043-5.163zm-5.011 49.679c3.124.026 5.589-.762 7.395-2.365 1.806-1.604 3.056-4.022 3.749-7.254l.152-17.883c-1.12-.781-2.383-1.356-3.787-1.728-1.406-.37-3.26-.567-5.564-.587-4.097-.035-7.334 1.133-9.709 3.502-2.376 2.369-3.586 6.124-3.63 11.262-.018 2.108.157 4.074.525 5.901.369 1.829.996 3.414 1.881 4.758.885 1.344 2.065 2.408 3.544 3.19 1.479.784 3.293 1.185 5.444 1.204zM942.483 431.981c.053-6.218 1.713-11.125 4.981-14.72 3.268-3.596 7.908-5.368 13.92-5.316 3.237.027 6.018.579 8.349 1.651 2.328 1.074 4.256 2.517 5.783 4.328 1.526 1.813 2.651 3.954 3.375 6.427.723 2.473 1.074 5.123 1.051 7.949-.026 3.082-.462 5.867-1.305 8.353-.844 2.486-2.069 4.596-3.676 6.328-1.608 1.734-3.585 3.067-5.931 3.996-2.347.931-5.01 1.384-7.989 1.359-3.187-.027-5.958-.578-8.31-1.651-2.355-1.073-4.296-2.516-5.822-4.328-1.526-1.811-2.652-3.954-3.375-6.427-.726-2.474-1.076-5.123-1.051-7.949zm6.397.054a22.757 22.757 0 0 0 .607 5.4c.421 1.803 1.112 3.428 2.073 4.875a10.985 10.985 0 0 0 3.773 3.501c1.555.887 3.458 1.339 5.713 1.359 4.097.035 7.194-1.211 9.291-3.736 2.096-2.527 3.166-6.257 3.208-11.189a22.658 22.658 0 0 0-.607-5.44 14.41 14.41 0 0 0-2.11-4.836 11.374 11.374 0 0 0-3.813-3.502c-1.556-.886-3.459-1.339-5.712-1.359-4.098-.035-7.183 1.199-9.252 3.699-2.073 2.501-3.128 6.244-3.171 11.228zM1018.283 419.29a30.495 30.495 0 0 0-3.807-1.073 20.018 20.018 0 0 0-4.043-.459c-5.036-.043-8.796 1.111-11.282 3.46-2.487 2.349-3.752 6.1-3.796 11.251-.019 2.267.323 4.293 1.027 6.077.704 1.784 1.718 3.3 3.045 4.548 1.326 1.248 2.922 2.215 4.792 2.9 1.869.686 3.935 1.038 6.197 1.057a20.363 20.363 0 0 0 7.062-1.193c2.293-.817 4.217-1.899 5.771-3.245l2.659 4.494c-.725.61-1.629 1.246-2.713 1.904-1.085.659-2.337 1.279-3.754 1.857-1.419.579-2.99 1.04-4.714 1.386-1.724.344-3.588.509-5.592.492-3.341-.028-6.279-.529-8.813-1.501-2.536-.973-4.644-2.353-6.324-4.14-1.681-1.788-2.948-3.93-3.799-6.431-.853-2.499-1.265-5.265-1.24-8.296.027-3.238.501-6.112 1.422-8.623.919-2.509 2.236-4.607 3.946-6.287 1.709-1.681 3.776-2.961 6.199-3.84 2.422-.878 5.124-1.306 8.104-1.281 3.802.032 6.896.394 9.28 1.082 2.383.688 4.393 1.451 6.031 2.287l-.079.231-.092 10.714-5.549-.048.062-7.323zM1064.183 441.881c.015-1.644-.616-2.921-1.888-3.832-1.274-.909-2.855-1.643-4.746-2.199-1.891-.556-3.95-1.074-6.174-1.556s-4.282-1.116-6.171-1.903c-1.889-.787-3.469-1.841-4.738-3.162-1.27-1.322-1.894-3.164-1.873-5.529.017-1.951.454-3.619 1.314-4.999a10.684 10.684 0 0 1 3.382-3.401c1.396-.887 3.02-1.542 4.873-1.963a25.079 25.079 0 0 1 5.785-.606c3.597.03 6.689.508 9.277 1.428 2.586.922 4.647 1.878 6.18 2.867l-2.5 4.836a64.908 64.908 0 0 0-5.472-2.707c-1.966-.865-4.434-1.309-7.403-1.334a16.183 16.183 0 0 0-3.346.318c-1.102.222-2.105.56-3.005 1.016-.9.454-1.623 1.054-2.166 1.793-.545.742-.822 1.651-.83 2.729-.012 1.337.619 2.37 1.895 3.101 1.274.73 2.858 1.348 4.748 1.852 1.892.505 3.95.984 6.175 1.44 2.225.456 4.283 1.103 6.171 1.942 1.889.838 3.467 1.956 4.736 3.354 1.269 1.399 1.893 3.281 1.873 5.644-.03 3.546-1.456 6.463-4.276 8.752-2.821 2.289-7.031 3.409-12.631 3.361a27.105 27.105 0 0 1-5.005-.505 30.39 30.39 0 0 1-4.614-1.273 27.654 27.654 0 0 1-3.917-1.767c-1.177-.653-2.146-1.316-2.911-1.991l3.117-4.984c.609.622 1.424 1.259 2.443 1.91a22.808 22.808 0 0 0 3.366 1.763c1.225.525 2.542.946 3.948 1.266 1.406.321 2.826.487 4.261.499a20.567 20.567 0 0 0 3.884-.314c1.206-.22 2.272-.57 3.199-1.052.927-.48 1.662-1.115 2.207-1.909.545-.793.822-1.754.832-2.885z"/><path fill="#FFF" d="m483.623 201.207-226.171 37.246c-11.627 2.183-20.051 12.338-20.051 24.169v92.196l260.645-37.649V213.175c0-7.626-6.929-13.376-14.423-11.968z"/><path d="m268.451 285.518 8.46-1.381.306-7.361 5.685-2.552-.374 8.997 18.982-3.098-.207 4.982-18.982 3.098-.729 17.548c-.15 3.619.576 6.159 2.181 7.62 1.605 1.462 3.966 1.938 7.085 1.429 2.125-.347 3.997-1.07 5.614-2.172a39.563 39.563 0 0 0 4.402-3.451l1.66 4.086c-1.717 1.66-3.742 3.098-6.075 4.315-2.334 1.218-4.709 2.024-7.126 2.419-1.896.309-3.674.316-5.332.021-1.659-.295-3.103-.934-4.334-1.915-1.23-.98-2.187-2.339-2.867-4.074-.682-1.735-.968-3.891-.861-6.469l.766-18.44-8.46 1.381.206-4.983zM312.183 296.844c.249-5.997 1.939-10.989 5.07-14.97 3.131-3.982 7.469-6.426 13.014-7.331 2.986-.487 5.535-.398 7.65.265 2.114.665 3.846 1.748 5.196 3.251 1.349 1.503 2.318 3.388 2.907 5.655.588 2.268.826 4.765.713 7.491-.124 2.974-.615 5.725-1.473 8.253-.859 2.529-2.058 4.756-3.596 6.68a19.732 19.732 0 0 1-5.601 4.791c-2.195 1.268-4.667 2.128-7.415 2.576-2.94.48-5.478.389-7.615-.271-2.138-.66-3.882-1.741-5.231-3.245-1.35-1.503-2.32-3.388-2.908-5.656-.588-2.265-.825-4.762-.711-7.489zm5.9-.963a21.62 21.62 0 0 0 .386 5.107c.33 1.67.915 3.125 1.755 4.366.84 1.242 1.962 2.167 3.369 2.774 1.405.609 3.148.742 5.227.403 3.779-.617 6.677-2.308 8.693-5.074 2.015-2.766 3.122-6.529 3.32-11.287.074-1.785-.055-3.5-.386-5.144-.331-1.644-.928-3.086-1.791-4.323a7.9 7.9 0 0 0-3.404-2.768c-1.407-.607-3.149-.742-5.227-.402-3.78.617-6.665 2.295-8.656 5.032-1.992 2.735-3.086 6.509-3.286 11.316zM354.838 289.883c.249-5.997 1.939-10.989 5.07-14.97 3.131-3.982 7.469-6.426 13.014-7.331 2.986-.487 5.535-.398 7.65.265 2.114.665 3.846 1.748 5.196 3.251 1.349 1.503 2.318 3.388 2.907 5.655.588 2.268.826 4.765.713 7.491-.124 2.974-.615 5.725-1.473 8.253-.859 2.529-2.058 4.756-3.596 6.68a19.732 19.732 0 0 1-5.601 4.791c-2.195 1.268-4.667 2.128-7.415 2.576-2.94.48-5.478.389-7.615-.271-2.138-.66-3.882-1.741-5.231-3.245-1.35-1.503-2.32-3.388-2.908-5.656-.587-2.266-.824-4.763-.711-7.489zm5.901-.963a21.624 21.624 0 0 0 .386 5.107c.33 1.67.915 3.125 1.755 4.366.84 1.242 1.962 2.167 3.369 2.774 1.405.609 3.148.742 5.227.403 3.779-.617 6.677-2.308 8.693-5.074 2.015-2.766 3.122-6.529 3.32-11.287.074-1.785-.055-3.5-.386-5.144-.331-1.644-.928-3.086-1.791-4.323a7.9 7.9 0 0 0-3.404-2.768c-1.407-.607-3.149-.742-5.227-.402-3.78.617-6.665 2.295-8.656 5.032-1.992 2.735-3.086 6.508-3.286 11.316zM403.291 248.741l11.872-1.938-1.643 39.558c-.126 3.024.271 5.077 1.192 6.157.92 1.081 2.328 1.466 4.224 1.157a11.556 11.556 0 0 0 3.835-1.364c1.229-.692 2.603-1.754 4.122-3.184l2.39 3.672a21.193 21.193 0 0 1-2.573 2.266 23.585 23.585 0 0 1-2.84 1.83c-.966.527-1.929.967-2.888 1.32-.959.353-1.843.596-2.652.728-1.759.287-3.318.307-4.678.062-1.36-.246-2.482-.813-3.365-1.703-.884-.89-1.528-2.151-1.932-3.784-.404-1.632-.554-3.713-.449-6.241l1.436-34.576-6.256 1.021.205-4.981zM466.809 280.102c.066-1.586-.474-2.717-1.619-3.392-1.146-.674-2.581-1.13-4.308-1.365a70.527 70.527 0 0 0-5.646-.519c-2.037-.11-3.915-.395-5.632-.853-1.718-.458-3.141-1.223-4.27-2.294-1.129-1.071-1.645-2.747-1.551-5.027.078-1.884.536-3.559 1.374-5.024a13.612 13.612 0 0 1 3.23-3.814c1.315-1.076 2.835-1.964 4.559-2.664a24.848 24.848 0 0 1 5.358-1.502c3.317-.541 6.154-.573 8.513-.097 2.357.477 4.227 1.071 5.61 1.78l-2.463 5.055a46.74 46.74 0 0 0-4.961-1.738c-1.786-.521-4.048-.558-6.788-.111-1.04.17-2.073.449-3.098.838a13.16 13.16 0 0 0-2.805 1.455 7.526 7.526 0 0 0-2.056 2.071c-.527.8-.811 1.72-.854 2.761-.054 1.29.495 2.185 1.648 2.685 1.152.502 2.593.845 4.322 1.03 1.729.186 3.612.322 5.651.407 2.038.086 3.915.383 5.631.891 1.715.508 3.135 1.335 4.261 2.48 1.125 1.145 1.641 2.859 1.547 5.138-.142 3.421-1.551 6.457-4.227 9.109-2.677 2.652-6.598 4.4-11.763 5.243a23.67 23.67 0 0 1-4.602.308 23.887 23.887 0 0 1-4.216-.494 20.285 20.285 0 0 1-3.557-1.081c-1.065-.441-1.939-.927-2.623-1.455l3.036-5.296c.542.502 1.273.987 2.193 1.451.918.466 1.935.854 3.05 1.164a17.7 17.7 0 0 0 3.602.594 17.15 17.15 0 0 0 3.916-.196 20.117 20.117 0 0 0 3.593-.919 12.667 12.667 0 0 0 2.986-1.521 7.497 7.497 0 0 0 2.098-2.189c.528-.848.816-1.818.861-2.909z"/><path fill="#FFF" d="m541.548 1079.96.11-108.268 897.167 108.253zM1768.111 754.736l-4-.468v-70.65h4z"/><path d="M1310.297 315.219c22.411 0 40.579 18.169 40.579 40.583 0 1.656-.111 3.285-.303 4.888l.075.004c1.09-21.44 18.817-38.489 40.526-38.489 22.411 0 40.579 18.169 40.579 40.583 0 .943-.044 1.876-.107 2.803l.336.02c2.085-20.457 19.362-36.419 40.368-36.419 22.411 0 40.579 18.169 40.579 40.583 0 .244-.014.485-.018.729l.322.019c2.415-20.107 19.52-35.694 40.276-35.694 22.411 0 40.579 18.169 40.579 40.583l-2.254 307.518-322.112-31.282V355.801c-.004-22.413 18.164-40.582 40.575-40.582z"/><path fill="#FFF" d="M1314.033 410.296c-3.925 0-7.118-3.193-7.118-7.118s3.193-7.119 7.118-7.119c3.925 0 7.119 3.194 7.119 7.119s-3.194 7.118-7.119 7.118zm0-10.246a3.13 3.13 0 0 0-3.126 3.127 3.13 3.13 0 0 0 3.126 3.126 3.13 3.13 0 0 0 3.127-3.126 3.13 3.13 0 0 0-3.127-3.127zM1370.394 434.897a1.995 1.995 0 0 0-2.185-1.788 1.998 1.998 0 0 0-1.788 2.185c.007.065.61 6.556-2.971 10.513-1.833 2.026-4.541 3.053-8.046 3.053-3.599 0-6.453-1.052-8.485-3.127-3.527-3.601-3.698-9.276-3.703-10.131v-19.791h9.036a1.996 1.996 0 0 0 0-3.992h-9.036v-18.888a1.996 1.996 0 0 0-3.992 0v18.888h-9.431a1.996 1.996 0 0 0 0 3.992h9.431v46.867l.01.199c.007.065.61 6.557-2.971 10.514-1.834 2.025-4.541 3.053-8.046 3.053-3.599 0-6.453-1.052-8.485-3.127-3.789-3.868-3.705-10.135-3.703-10.244v-42.558a1.996 1.996 0 0 0-3.992 0l.001 42.507c-.009.323-.146 7.97 4.819 13.065 2.813 2.886 6.635 4.35 11.361 4.35 4.68 0 8.383-1.469 11.006-4.367 4.512-4.987 4.078-12.441 3.993-13.48v-15.019c.259.318.533.629.827.931 2.813 2.886 6.635 4.35 11.362 4.35 4.68 0 8.383-1.469 11.005-4.367 4.755-5.254 4.016-13.25 3.983-13.588zM1410.898 482.263l115.394 5.603-.584 60.638-114.799-6.704-.011-59.537m-3.993-4.191.012 67.495 122.742 7.168.662-68.67-123.416-5.993z"/><path fill="#FFF" d="m1544.716 568.771.779-99.212-153.248-7.723.03 95.146-61.677 50.806 152.278 10.245.778.052 60.994-49.107.064.004v-.056l.077-.062-.075-.093zm-3.243-95.416-.718 91.387-144.486-8.883-.028-89.822 145.232 7.318zm-59.106 140.644-141.472-9.518 54.254-44.692 143.587 8.828-56.369 45.382z"/><path fill="#FFF" d="M1478.138 598.229c-.041 0-.083-.001-.125-.004l-99.744-6.147a1.995 1.995 0 0 1-1.869-2.115c.067-1.1 1.013-1.949 2.115-1.87l99.744 6.147a1.996 1.996 0 0 1-.121 3.989zM1500.222 582.267c-.04 0-.08-.001-.12-.004l-102.755-6.076a1.994 1.994 0 0 1-1.874-2.11c.065-1.101 1.026-1.962 2.11-1.874l102.755 6.076a1.995 1.995 0 0 1-.116 3.988z"/></svg>