<svg xmlns="http://www.w3.org/2000/svg" xml:space="preserve" viewBox="0 0 1080 1080"><path fill="#FF8630" d="M1.648 1079.997V521.401c0 47.232 34.608 79.152 85.521 85.521l387.172 45.336 574.043 66.62c17.698 2.072 31.041 17.068 31.041 34.887v326.24l-1077.777-.008zM940.265 180.743c-1.226 1.164-1.605 2.654-1.138 4.469s1.892 3.978 4.275 6.487a31.322 31.322 0 0 0 1.597 1.567l.875-13.115c-2.15-1.114-4.02-.917-5.609.592zM910.787 211.627a33.818 33.818 0 0 0-.496-1.026l-5.497 11.971c1.694 1.917 3.538 2.456 5.534 1.617 1.558-.654 2.448-1.909 2.672-3.765.222-1.855-.352-4.415-1.724-7.681a37.49 37.49 0 0 0-.489-1.116zM694.523 237.032a33.29 33.29 0 0 0-.475-1.037l-5.742 11.857c1.654 1.951 3.487 2.528 5.5 1.729 1.571-.622 2.487-1.859 2.748-3.71.261-1.85-.26-4.422-1.565-7.714-.156-.395-.312-.77-.466-1.125zM767.906 223.132l-9.588 9.033c.85 2.412 2.357 3.604 4.523 3.576 1.69-.022 2.986-.851 3.889-2.487.904-1.636 1.332-4.225 1.286-7.766a37.542 37.542 0 0 0-.036-1.218 31.377 31.377 0 0 0-.074-1.138zM902.426 205.501c-1.558.655-2.44 1.914-2.646 3.776-.205 1.863.363 4.39 1.703 7.581a30.493 30.493 0 0 0 .939 2.031l5.461-11.956c-1.617-1.804-3.436-2.281-5.457-1.432zM762.531 215.453c-1.691.022-2.98.858-3.87 2.507-.89 1.649-1.312 4.205-1.266 7.665a30.368 30.368 0 0 0 .108 2.236l9.548-9.032c-.822-2.279-2.33-3.404-4.52-3.376zM736.512 217.429c-1.674.233-2.85 1.223-3.526 2.971-.677 1.747-.777 4.336-.3 7.764a30.665 30.665 0 0 0 .387 2.204l8.347-10.153c-1.102-2.159-2.738-3.087-4.908-2.786zM743.019 225.497a28.09 28.09 0 0 0-.215-1.119l-8.386 10.158c1.145 2.288 2.789 3.282 4.933 2.983 1.674-.233 2.857-1.217 3.549-2.953.692-1.736.795-4.358.307-7.866a38.18 38.18 0 0 0-.188-1.203zM857.991 216.482c-1.68.186-2.883 1.142-3.608 2.87-.726 1.728-.899 4.312-.52 7.753a31.022 31.022 0 0 0 .324 2.214l8.629-9.914c-1.038-2.189-2.647-3.163-4.825-2.923zM864.268 224.73a30.73 30.73 0 0 0-.183-1.125l-8.669 9.918c1.08 2.319 2.696 3.359 4.847 3.121 1.68-.185 2.89-1.136 3.631-2.852.741-1.715.917-4.333.528-7.854a38.023 38.023 0 0 0-.154-1.208zM786.574 236.635c1.688.099 3.04-.635 4.058-2.202 1.018-1.567 1.631-4.118 1.838-7.654.025-.425.042-.831.052-1.217.01-.386.012-.766.008-1.14l-10.21 8.323c.675 2.466 2.093 3.763 4.254 3.89zM978.721 123.765c-.687 1.545-.468 3.066.657 4.564 1.125 1.498 3.269 2.952 6.431 4.359a31.211 31.211 0 0 0 2.076.837l-4.206-12.453c-2.414-.207-4.067.691-4.958 2.693zM990.129 122.982a32.429 32.429 0 0 0-2.185-.886l4.189 12.489c2.546.237 4.26-.633 5.14-2.611.687-1.544.477-3.069-.631-4.574-1.107-1.505-3.278-2.978-6.513-4.418zM671.652 246.989a29.25 29.25 0 0 0-.593-.974l-4.311 12.447c1.871 1.744 3.758 2.101 5.665 1.073 1.487-.803 2.252-2.138 2.294-4.007.043-1.868-.777-4.361-2.459-7.478a37.963 37.963 0 0 0-.596-1.061z"/><path fill="#FF8630" d="M1003.052 49.286 962.496.092v60.905c-.487 28.296-12.4 68.388-44.408 96.383-26.928 23.55-62.202 32.905-104.852 27.8-76.328-9.134-135.035 11.129-175.005 34.091v100.026c2.964-3.279 16.477-17.449 39.717-30.758 37.469-21.46 79.791-29.55 125.8-24.042 10.969 1.313 21.427 1.918 31.4 1.918 64.844-.002 108.887-25.613 135.514-48.901 22.588-19.754 41.134-45.357 53.633-74.042 11.42-26.207 17.666-54.413 18.066-81.57l.004-61.81-39.313 49.194zM679.464 256.615c-.236 1.505-.782 2.828-1.638 3.97-.857 1.143-1.979 2.089-3.367 2.838-2.987 1.612-5.859 1.748-8.617.407-2.758-1.34-5.262-4.096-7.512-8.268-1.15-2.132-1.936-4.122-2.355-5.968-.419-1.846-.508-3.516-.265-5.008s.786-2.807 1.631-3.943c.844-1.137 1.96-2.079 3.348-2.828 2.963-1.599 5.804-1.793 8.522-.583 2.717 1.211 5.253 3.996 7.605 8.354 1.163 2.156 1.954 4.157 2.373 6.003.42 1.847.512 3.522.275 5.026zm21.689-9.107c-.411 1.467-1.109 2.717-2.093 3.751-.985 1.035-2.209 1.842-3.675 2.423-3.156 1.251-6.023 1.049-8.606-.606-2.582-1.654-4.745-4.685-6.49-9.092-.893-2.253-1.44-4.32-1.639-6.203-.2-1.882-.093-3.551.324-5.005.416-1.453 1.109-2.695 2.082-3.725.972-1.03 2.191-1.835 3.657-2.416 3.13-1.241 5.975-1.1 8.532.421s4.748 4.584 6.572 9.188c.903 2.278 1.454 4.358 1.654 6.241.198 1.883.093 3.558-.318 5.023zm8.508.392-1.129-4.246 5.905-1.57-4.485-16.869-4.058 5.253-3.136-2.472 7.014-9.056 3.397-.903 6.054 22.774 5.789-1.539 1.129 4.246-16.48 4.382zm38.816-15.459c-.252 1.877-.751 3.478-1.498 4.805s-1.72 2.376-2.921 3.148c-1.202.772-2.584 1.267-4.145 1.484-3.363.468-6.1-.408-8.217-2.628-2.117-2.219-3.501-5.676-4.153-10.371-.333-2.399-.375-4.538-.123-6.414.252-1.876.752-3.472 1.5-4.786.749-1.313 1.717-2.355 2.905-3.126 1.188-.77 2.563-1.264 4.124-1.481 3.335-.464 6.065.346 8.19 2.43 2.124 2.084 3.527 5.579 4.21 10.484.337 2.427.379 4.578.128 6.455zm24.052-.601c-.485 1.83-1.179 3.357-2.085 4.581-.907 1.224-2.004 2.143-3.292 2.759-1.289.616-2.721.934-4.298.955-3.394.044-6.002-1.166-7.825-3.633-1.823-2.466-2.765-6.069-2.826-10.808-.031-2.423.194-4.549.679-6.38.484-1.83 1.179-3.351 2.085-4.561.907-1.21 1.998-2.123 3.272-2.739 1.275-.616 2.701-.934 4.277-.955 3.367-.044 5.975 1.1 7.822 3.433 1.848 2.333 2.804 5.975 2.868 10.927.033 2.451-.194 4.591-.677 6.421zm25.124-4.757c-.143 2.446-.523 4.565-1.136 6.355-.614 1.791-1.417 3.265-2.408 4.42-.992 1.156-2.151 1.994-3.48 2.516-1.33.522-2.782.737-4.355.645-3.388-.199-5.903-1.593-7.545-4.184-1.642-2.59-2.323-6.251-2.045-10.983.142-2.419.52-4.524 1.133-6.315.614-1.791 1.416-3.258 2.407-4.4.991-1.142 2.144-1.975 3.459-2.497 1.316-.523 2.761-.738 4.335-.646 3.362.197 5.881 1.526 7.556 3.984 1.675 2.459 2.369 6.161 2.079 11.105zm21.867 14.981-17.038-.661.17-4.39 6.105.236.676-17.441-5.424 3.827-2.27-3.286 9.366-6.592 3.512.136-.913 23.548 5.986.232-.17 4.391zm7.898.105-.081-4.393 6.109-.112-.32-17.451-5.197 4.13-2.454-3.151 8.975-7.116 3.514-.064.432 23.561 5.989-.11.081 4.392-17.048.314zm42.109-10.344c-.304 1.869-.848 3.456-1.632 4.761-.784 1.306-1.786 2.327-3.009 3.064-1.224.738-2.618 1.194-4.185 1.366-3.374.372-6.087-.58-8.14-2.858-2.053-2.278-3.339-5.773-3.859-10.484-.266-2.408-.248-4.547.057-6.416.305-1.868.849-3.449 1.634-4.741.786-1.292 1.783-2.307 2.992-3.043 1.209-.736 2.597-1.191 4.165-1.364 3.346-.37 6.053.517 8.118 2.66 2.064 2.143 3.368 5.676 3.912 10.598.27 2.436.253 4.588-.053 6.457zm9.344 6.012-1.031-4.271 5.938-1.436-4.1-16.966-4.177 5.16-3.079-2.543 7.218-8.895 3.415-.825 5.536 22.906 5.822-1.408 1.032 4.271-16.574 4.007zm38.759-15.872c-.381 1.475-1.053 2.739-2.016 3.793s-2.171 1.887-3.624 2.498c-3.13 1.315-6.001 1.172-8.617-.43-2.615-1.601-4.84-4.587-6.676-8.957-.939-2.234-1.528-4.29-1.766-6.168-.238-1.878-.165-3.548.221-5.01s1.055-2.718 2.005-3.767c.951-1.05 2.152-1.88 3.605-2.49 3.104-1.304 5.951-1.223 8.539.246 2.589 1.469 4.842 4.486 6.76 9.052.949 2.259 1.542 4.328 1.78 6.205.24 1.878.169 3.554-.211 5.028zm11.582-2.678-2.406-3.676 5.112-3.347-9.559-14.603-2.201 6.263-3.755-1.36 3.811-10.803 2.94-1.925 12.906 19.716 5.011-3.282 2.406 3.676-14.265 9.341zm30.557-24.268c-.528 1.327-1.363 2.534-2.506 3.62-2.462 2.338-5.198 3.221-8.211 2.649-3.013-.571-6.15-2.576-9.413-6.013-1.668-1.756-2.947-3.471-3.834-5.143-.888-1.672-1.411-3.26-1.567-4.764-.156-1.504.024-2.915.542-4.234.518-1.318 1.347-2.52 2.491-3.606 2.441-2.319 5.132-3.251 8.073-2.794 2.939.457 6.116 2.481 9.525 6.072 1.688 1.776 2.975 3.501 3.862 5.173.888 1.673 1.415 3.265 1.58 4.779.166 1.514-.016 2.934-.542 4.261zm10.189-10.512-3.49-2.668 3.711-4.855-13.864-10.6.003 6.639-3.993-.037.009-11.456 2.134-2.792 18.719 14.311 3.638-4.76 3.49 2.668-10.357 13.55zm21.034-31.889c-.128 1.423-.585 2.817-1.372 4.183-1.694 2.942-4.067 4.567-7.118 4.876-3.051.309-6.629-.72-10.735-3.086-2.098-1.209-3.812-2.489-5.139-3.84-1.326-1.351-2.279-2.724-2.857-4.122-.578-1.397-.806-2.801-.684-4.212.121-1.411.575-2.8 1.362-4.166 1.681-2.918 3.995-4.577 6.945-4.975 2.948-.398 6.568.638 10.859 3.11 2.122 1.223 3.847 2.51 5.173 3.86 1.327 1.351 2.285 2.728 2.874 4.132.589 1.405.82 2.818.692 4.24zm10.277-18.818c-1.38 3.102-3.571 4.964-6.574 5.588-3.002.624-6.668-.029-10.997-1.956-2.213-.985-4.05-2.08-5.51-3.286-1.459-1.206-2.549-2.473-3.269-3.803-.72-1.33-1.092-2.703-1.117-4.118-.025-1.416.282-2.844.923-4.285 1.369-3.077 3.5-4.966 6.391-5.668 2.892-.702 6.599-.046 11.123 1.968 2.238.996 4.087 2.097 5.546 3.303 1.46 1.206 2.555 2.476 3.288 3.811.731 1.335 1.108 2.717 1.127 4.144.02 1.428-.291 2.862-.931 4.302z"/><path fill="#FF8630" d="M662.738 241.702c-1.487.803-2.242 2.141-2.267 4.015-.024 1.874.785 4.334 2.429 7.38.189.352.375.683.558.993s.373.623.574.939l4.276-12.429c-1.785-1.64-3.642-1.939-5.57-.898zM968.233 144.482c-.843 1.465-.783 3.001.18 4.608.964 1.607 2.946 3.274 5.944 5.002.346.199.679.384.996.552.318.168.645.333.981.496l-2.892-12.822c-2.377-.456-4.115.265-5.209 2.164zM787.717 216.377c-1.688-.099-3.033.642-4.038 2.223-1.006 1.582-1.61 4.1-1.812 7.556a28.698 28.698 0 0 0-.052 2.237l10.17-8.325c-.658-2.332-2.081-3.562-4.268-3.691zM686.291 230.736c-1.572.623-2.479 1.863-2.723 3.721-.244 1.858.272 4.397 1.547 7.614a29.435 29.435 0 0 0 .897 2.05l5.704-11.841c-1.579-1.837-3.389-2.351-5.425-1.544zM951.104 184.382a32.585 32.585 0 0 0-1.68-1.654l-.904 13.143c2.262 1.193 4.179 1.044 5.748-.448 1.225-1.164 1.614-2.653 1.166-4.468-.447-1.813-1.89-4.005-4.33-6.573zM979.661 144.886a33.23 33.23 0 0 0-2.082-1.108l2.872 12.857c2.509.5 4.303-.188 5.384-2.064.843-1.465.793-3.003-.153-4.615-.946-1.612-2.953-3.302-6.021-5.07z"/><path fill="#FFF" d="M999.35 691.799 62.058 582.403c-18.144-2.173-33.479-8.701-44.354-18.881C6.471 553.008.533 539.066.533 523.205c0-31.642 21.235-52.106 61.41-59.182l293.768-47.345.637 3.949-293.739 47.34c-18.806 3.312-33.312 9.623-43.086 18.754-9.946 9.291-14.989 21.565-14.989 36.483 0 29.78 22.223 50.941 57.995 55.226l932.834 108.876.985-353.122-357.294 46.856-.52-3.967 361.827-47.45-.007 2.286-1.004 359.89z"/><path fill="#FFF" d="M997.202 630.874 64.965 558.838a107.045 107.045 0 0 1-6.146-.442c-18.121-1.841-33.241-6.796-43.726-14.331C5.703 537.316.532 528.916.532 520.41c0-17.929 25.326-32.582 61.589-35.633l933.332-99.05.422 3.979-933.374 99.053c-38.071 3.203-57.968 18.346-57.968 31.65 0 13.704 17.114 30.19 54.69 34.006a104.1 104.1 0 0 0 5.981.431l932.306 72.04-.308 3.988z"/><path fill="#FFF" d="M997.272 576.935 66.724 537.964a241.087 241.087 0 0 1-6.104-.195c-35.476-1.604-58.398-8.677-58.398-18.019 0-10.573 36.873-16.247 61.657-17.481l933.362-53.901.23 3.994-933.377 53.901c-37.451 1.865-57.872 9.888-57.872 13.487 0 3.771 13.341 12.158 54.579 14.022 2.003.09 4.038.155 6.045.193l930.595 38.973-.169 3.997z"/><path fill="#FFF" d="m5.89 520.31.013-4 991.452 3.272-.013 4z"/><path d="m1026.504 715.236-.794-396.995a23.44 23.44 0 0 0-8.811-18.189 23.438 23.438 0 0 0-19.671-4.648l-.124.022-358.859 53.856-.594-3.955 358.799-53.848a27.419 27.419 0 0 1 22.952 5.452 27.43 27.43 0 0 1 10.308 21.292l.794 397.005-4 .008zM112.562 644.75h-.017a2.496 2.496 0 0 1-2.479-2.513l.097-14.977a2.496 2.496 0 0 1 2.496-2.48h.017a2.496 2.496 0 0 1 2.479 2.513l-.097 14.977a2.496 2.496 0 0 1-2.496 2.48zM110.017 1037.448H110a2.496 2.496 0 0 1-2.479-2.513l.182-28.049a2.496 2.496 0 0 1 2.496-2.48h.017a2.496 2.496 0 0 1 2.479 2.513l-.182 28.049a2.497 2.497 0 0 1-2.496 2.48zm.363-56.099h-.017a2.496 2.496 0 0 1-2.479-2.513l.182-28.05a2.496 2.496 0 0 1 2.496-2.48h.017a2.496 2.496 0 0 1 2.479 2.513l-.182 28.05a2.496 2.496 0 0 1-2.496 2.48zm.364-56.1h-.017a2.496 2.496 0 0 1-2.479-2.513l.182-28.049a2.496 2.496 0 0 1 2.496-2.48h.017a2.496 2.496 0 0 1 2.479 2.513l-.182 28.049a2.496 2.496 0 0 1-2.496 2.48zm.364-56.1h-.017a2.496 2.496 0 0 1-2.479-2.513l.182-28.049a2.496 2.496 0 0 1 2.496-2.48h.017a2.496 2.496 0 0 1 2.479 2.513l-.182 28.049a2.497 2.497 0 0 1-2.496 2.48zm.363-56.099h-.017a2.496 2.496 0 0 1-2.479-2.513l.182-28.05a2.496 2.496 0 0 1 2.496-2.48h.017a2.496 2.496 0 0 1 2.479 2.513l-.182 28.05a2.496 2.496 0 0 1-2.496 2.48zm.364-56.1h-.017a2.496 2.496 0 0 1-2.479-2.513l.182-28.049a2.496 2.496 0 0 1 2.496-2.48h.017a2.496 2.496 0 0 1 2.479 2.513l-.182 28.049a2.496 2.496 0 0 1-2.496 2.48zm.364-56.1h-.017a2.496 2.496 0 0 1-2.479-2.513l.182-28.049a2.496 2.496 0 0 1 2.496-2.48h.017a2.496 2.496 0 0 1 2.479 2.513l-.182 28.049a2.496 2.496 0 0 1-2.496 2.48zM109.738 1080h-.017a2.496 2.496 0 0 1-2.479-2.513l.097-14.978a2.496 2.496 0 0 1 2.496-2.48h.017a2.496 2.496 0 0 1 2.479 2.513l-.097 14.978a2.496 2.496 0 0 1-2.496 2.48z"/><path d="m1047.244 716.527-573.099-66.522-386.521-45.267c-51.585-6.453-83.631-38.416-83.631-83.413 0-22.568 7.308-41.143 21.721-55.207C39.802 452.37 60.67 442.873 87.702 437.9l268.427-44.36-.651-3.941-268.463 44.366C30.115 444.434.029 474.621.001 521.262H0V1080h3.994V547.889c3.936 12.447 10.731 23.567 20.237 32.862 15.406 15.065 37.157 24.73 62.914 27.952l386.538 45.269 573.099 66.522c16.66 1.951 29.224 16.075 29.224 32.853v326.65H1080v-326.65c0-18.804-14.081-34.633-32.756-36.82z"/><path d="m302.094 507.85-43.37 31.201-43.683-31.201v113.281l87.053 10.299z"/><path fill="#FFF" d="M234.603 570.368c-.006 2.093-1.775 3.706-4.03 3.518-2.206-.184-3.966-2.093-3.96-4.186.006-2.237 1.775-3.801 3.981-3.617 2.255.189 4.015 2.049 4.009 4.285zM248.17 584.235c.002-.739.603-1.377 1.474-1.304.327.027.926.183 1.307.215 1.743.146 3.819-1.901 4.967-3.392-2.335-2.629-4.887-5.962-4.878-9.398.011-3.965 3.123-6.508 7.426-6.148 4.303.36 7.4 3.422 7.389 7.387-.009 3.436-2.578 6.342-4.926 8.579 1.139 1.682 3.203 4.075 4.946 4.221.381.032.981-.023 1.307.004.872.073 1.469.811 1.467 1.55-.003 1.216-1.203 1.487-2.564 1.373-3.704-.31-5.877-2.713-7.668-5.242-1.804 2.229-3.989 4.268-7.692 3.958-1.362-.116-2.559-.586-2.555-1.803zM289.863 574.989c-.006 2.093-1.775 3.706-4.03 3.518-2.206-.184-3.966-2.093-3.96-4.186.006-2.237 1.775-3.801 3.981-3.617 2.254.189 4.015 2.048 4.009 4.285z"/><g fill="#FFF"><path d="M567.343 269.422c-12.518-1.911-25.029 1.162-35.233 8.661s-16.877 18.523-18.79 31.043a47.367 47.367 0 0 0 4.302 28.078l-63.262 46.495c-4.419 3.248-5.373 9.486-2.125 13.907a9.876 9.876 0 0 0 6.512 3.942c.51.078 1.019.116 1.523.116a9.865 9.865 0 0 0 5.869-1.934l63.82-46.904a47.677 47.677 0 0 0 5.38 3.857c5.403 3.327 11.351 5.505 17.678 6.473 2.427.371 4.853.555 7.263.555 10.019 0 19.746-3.171 27.971-9.216 10.203-7.499 16.876-18.523 18.789-31.043 3.949-25.842-13.859-50.08-39.697-54.03zM463.769 396.509a5.895 5.895 0 0 1-4.419 1.086 5.91 5.91 0 0 1-3.894-2.357 5.956 5.956 0 0 1 1.271-8.315l62.82-46.17a47.303 47.303 0 0 0 7.374 9.343l-63.152 46.413zm139.317-73.659c-1.752 11.463-7.862 21.557-17.205 28.423-9.343 6.867-20.8 9.68-32.26 7.932a43.141 43.141 0 0 1-16.185-5.926 43.356 43.356 0 0 1-20.164-43.549c1.752-11.463 7.862-21.557 17.205-28.424 7.532-5.535 16.436-8.438 25.609-8.438 2.206 0 4.43.168 6.65.507 23.66 3.617 39.966 25.812 36.35 49.475z"/><path d="M565.614 280.73c-9.5-1.457-18.99.883-26.732 6.571-7.741 5.689-12.805 14.054-14.256 23.553-2.996 19.607 10.515 37.998 30.118 40.994 1.842.282 3.683.421 5.512.421 7.601 0 14.98-2.406 21.221-6.992 7.742-5.689 12.805-14.055 14.256-23.553 2.997-19.607-10.514-37.996-30.119-40.994zm26.165 40.391c-1.29 8.441-5.79 15.876-12.671 20.933-6.881 5.058-15.323 7.132-23.759 5.842-17.424-2.664-29.433-19.01-26.771-36.438 1.291-8.441 5.791-15.876 12.672-20.933 5.547-4.077 12.104-6.215 18.86-6.215 1.625 0 3.262.123 4.897.373 17.426 2.665 29.435 19.01 26.772 36.438zM400.147 237.064a10.562 10.562 0 0 0-2.248-.915c4.46-4.556 10.946-12.83 7.829-19.973-1.52-3.483-3.916-4.792-5.658-5.276-5.441-1.515-11.672 2.84-11.935 3.027a2 2 0 0 0-.843 1.629l-.046 49.72a2 2 0 0 0 1.998 2.002h.002a2 2 0 0 0 2-1.998l.024-26.139a2.014 2.014 0 0 0 2.262.797c.094-.029 2.326-.695 4.761.672 2.497 1.402 4.434 4.571 5.6 9.164 3.521 13.87 2.163 41.268 2.149 41.543a2 2 0 0 0 3.994.206c.06-1.147 1.404-28.275-2.267-42.732-1.476-5.822-4.042-9.767-7.622-11.727zm-8.484-.584a2.027 2.027 0 0 0-.39.424l.019-20.252c1.819-1.075 5.192-2.602 7.714-1.896 1.333.373 2.332 1.361 3.057 3.021 2.712 6.216-6.588 15.609-10.4 18.703zM428.605 249.781l-9.639 3.716.018-20.004 10.179-3.553a2 2 0 0 0-1.319-3.777l-8.857 3.092.019-21.13 10.164-3.461a2 2 0 0 0-1.289-3.787l-11.519 3.922a2 2 0 0 0-1.355 1.892l-.045 49.721a2 2 0 0 0 2.72 1.868l12.361-4.765a2 2 0 0 0-1.438-3.734zM462.597 273.843a2.005 2.005 0 0 0 1.853.218l12.361-4.765a2 2 0 1 0-1.44-3.732l-9.639 3.716.018-19.499 10.872-3.794a2 2 0 0 0-1.319-3.777l-9.55 3.333.02-21.636 10.164-3.461a2.001 2.001 0 0 0-1.289-3.787l-11.519 3.923a2 2 0 0 0-1.355 1.892l-.045 49.72a2 2 0 0 0 .868 1.649zM446.844 253.704c.434.166.869.333 1.299.521 3.935 1.721 5.251 5.62 5.662 8.589.609 4.392-1.733 7.739-3.184 9.345-2.418 2.673-5.91 4.481-8.468 4.381a2.011 2.011 0 0 0-2.072 1.926 2 2 0 0 0 1.926 2.072c.111.004.224.006.336.006 3.713 0 8.088-2.21 11.246-5.703 3.311-3.663 4.795-8.129 4.179-12.575-.78-5.627-3.63-9.783-8.022-11.704-.483-.212-.975-.401-1.465-.59-1.213-.467-2.26-.869-3.067-1.586-2.379-2.11-2.603-5.399-2.372-7.786.896-9.231 7.203-10.803 7.505-10.872a1.999 1.999 0 0 0 1.531-2.364 1.996 1.996 0 0 0-2.367-1.547c-.386.08-9.458 2.12-10.649 14.397-.454 4.682.859 8.646 3.698 11.164 1.348 1.196 2.908 1.796 4.284 2.326zM484.35 266.814a2 2 0 0 0 2.17-1.814l1.664-18.666 5.698-2.182 3.433 17.176a2.004 2.004 0 0 0 2.353 1.569 1.998 1.998 0 0 0 1.569-2.353l-9.96-49.833a1.984 1.984 0 0 0-2.069-1.605 2 2 0 0 0-1.884 1.819l-4.788 53.719a2 2 0 0 0 1.814 2.17zm5.726-41.706 3.011 15.065-4.508 1.726 1.497-16.791zM506.587 260.408h.002a2 2 0 0 0 2-1.998l.023-26.121a2 2 0 0 0 2.636.615c.023-.014 2.623-1.407 4.866-.051 1.85 1.119 4.889 5.025 4.465 18.615a2.001 2.001 0 0 0 1.937 2.062c1.143.017 2.026-.834 2.062-1.937.372-11.915-1.778-19.371-6.393-22.162a8.017 8.017 0 0 0-2.205-.924c4.395-4.676 10.039-12.445 7.091-19.202-1.52-3.483-3.916-4.792-5.658-5.276-5.444-1.516-11.674 2.841-11.936 3.026a2.003 2.003 0 0 0-.843 1.63l-.045 49.721a2 2 0 0 0 1.998 2.002zm2.046-50.627c1.819-1.075 5.193-2.602 7.715-1.896 1.333.373 2.333 1.361 3.057 3.021 2.713 6.218-6.587 15.61-10.399 18.704a2.032 2.032 0 0 0-.391.424l.018-20.253zM447.128 340.974 436.68 345l.045-48.622 10.917-3.718a2 2 0 0 0-1.289-3.787l-12.271 4.179a2 2 0 0 0-1.355 1.892l-.049 52.97a2 2 0 0 0 2.719 1.868l13.17-5.075a1.999 1.999 0 0 0 1.147-2.585 2.003 2.003 0 0 0-2.586-1.148zM456.521 285.538l-.049 52.97a2 2 0 0 0 1.998 2.002h.002a2 2 0 0 0 2-1.998l.022-23.941 11.264-4.927-.021 22.594a2 2 0 0 0 1.998 2.002h.002a2 2 0 0 0 2-1.998l.049-52.97a2 2 0 0 0-1.998-2.002h-.002a2 2 0 0 0-2 1.998l-.024 26.009-11.264 4.927.023-24.661a2 2 0 0 0-1.998-2.002h-.002a2 2 0 0 0-2 1.997z"/></g><path fill="#FFF" d="M355.365 455.991a2 2 0 0 1-2-2v-303.84a2 2 0 0 1 3.213-1.59l22.672 17.302 22.021-23.98c.37-.404.891-.638 1.438-.647.547.007 1.076.206 1.461.598l15.639 15.911 21.833-23.774c.37-.404.891-.638 1.438-.647.534.021 1.076.206 1.46.598l15.642 15.91 21.829-23.773a2 2 0 0 1 2.9-.049l15.639 15.911 21.831-23.774a2 2 0 0 1 1.439-.647c.556.006 1.075.206 1.46.598l15.643 15.91 21.835-23.774c.37-.404.891-.638 1.438-.647.538.021 1.076.206 1.46.598l15.643 15.91 21.836-23.774a1.996 1.996 0 0 1 2.898-.049l15.333 15.592 14.914-24.153a2 2 0 0 1 3.702 1.051V425.15a2 2 0 0 1-4 0V101.801l-12.552 20.328a2.004 2.004 0 0 1-1.479.937 1.985 1.985 0 0 1-1.649-.585l-15.646-15.91-21.836 23.775c-.37.404-.891.638-1.438.647a1.971 1.971 0 0 1-1.46-.598l-15.643-15.91-21.835 23.774a1.996 1.996 0 0 1-2.898.049l-15.643-15.91-21.831 23.774a2 2 0 0 1-1.439.647c-.546-.009-1.076-.206-1.461-.598l-15.639-15.911-21.829 23.773a2 2 0 0 1-1.439.647 1.965 1.965 0 0 1-1.46-.598l-15.642-15.91L421.331 162a1.996 1.996 0 0 1-2.899.049l-15.639-15.911-21.831 23.774c-.7.762-1.867.863-2.687.237l-20.91-15.957V453.99a2 2 0 0 1-2 2.001zM315.176 322.629l-182.251 30.015c-9.369 1.759-16.157 9.942-16.157 19.477v85.282l210.03-33.717v-91.412c0-6.146-5.583-10.779-11.622-9.645z"/><path d="m139.792 394.074 6.817-1.113.246-5.932 4.581-2.057-.301 7.25 15.296-2.496-.167 4.015-15.296 2.496-.587 14.142c-.121 2.916.464 4.964 1.758 6.141 1.293 1.178 3.196 1.562 5.709 1.152 1.712-.279 3.22-.862 4.524-1.75a31.923 31.923 0 0 0 3.547-2.781l1.338 3.293c-1.384 1.337-3.015 2.496-4.896 3.477-1.881.981-3.795 1.631-5.742 1.949-1.528.249-2.961.254-4.297.017-1.337-.237-2.501-.752-3.492-1.543-.991-.79-1.762-1.885-2.31-3.283-.549-1.398-.78-3.136-.694-5.213l.617-14.861-6.817 1.113.166-4.016zM175.031 403.201c.201-4.833 1.563-8.855 4.086-12.064 2.523-3.209 6.018-5.178 10.487-5.908 2.406-.393 4.46-.32 6.165.214 1.703.536 3.099 1.409 4.187 2.62 1.087 1.212 1.868 2.73 2.343 4.557.474 1.827.666 3.84.575 6.036-.1 2.397-.496 4.614-1.187 6.651-.692 2.038-1.658 3.832-2.898 5.383a15.915 15.915 0 0 1-4.513 3.861c-1.769 1.022-3.761 1.715-5.975 2.076-2.369.387-4.414.313-6.136-.219-1.723-.532-3.128-1.403-4.215-2.615-1.088-1.211-1.869-2.73-2.343-4.558-.476-1.824-.667-3.836-.576-6.034zm4.755-.776c-.058 1.398.045 2.77.311 4.115.266 1.346.737 2.519 1.414 3.518a6.14 6.14 0 0 0 2.715 2.235c1.133.49 2.537.598 4.212.324 3.045-.497 5.381-1.86 7.005-4.089 1.623-2.229 2.516-5.261 2.675-9.096.06-1.438-.044-2.82-.311-4.145s-.748-2.487-1.443-3.484a6.366 6.366 0 0 0-2.743-2.231c-1.134-.489-2.537-.598-4.212-.324-3.046.497-5.371 1.85-6.975 4.055-1.605 2.207-2.487 5.248-2.648 9.122zM209.403 397.591c.201-4.833 1.563-8.855 4.086-12.064 2.523-3.209 6.018-5.178 10.487-5.908 2.406-.393 4.46-.32 6.165.214 1.703.536 3.099 1.409 4.187 2.62 1.087 1.212 1.868 2.73 2.343 4.557.474 1.827.666 3.84.575 6.036-.1 2.397-.496 4.614-1.187 6.651-.692 2.038-1.658 3.832-2.898 5.383a15.915 15.915 0 0 1-4.513 3.861c-1.769 1.022-3.761 1.715-5.975 2.076-2.369.387-4.414.313-6.136-.219-1.723-.532-3.128-1.403-4.215-2.615-1.088-1.211-1.869-2.73-2.343-4.558-.476-1.824-.667-3.836-.576-6.034zm4.755-.776c-.058 1.398.045 2.77.311 4.115.266 1.346.737 2.519 1.414 3.518a6.14 6.14 0 0 0 2.715 2.235c1.133.49 2.537.598 4.212.324 3.045-.497 5.381-1.86 7.005-4.089 1.623-2.229 2.516-5.261 2.675-9.096.06-1.438-.044-2.82-.311-4.145-.267-1.325-.748-2.487-1.443-3.484a6.366 6.366 0 0 0-2.743-2.231c-1.134-.489-2.537-.598-4.212-.324-3.046.497-5.371 1.85-6.975 4.055-1.605 2.207-2.487 5.248-2.648 9.122zM248.447 364.436l9.567-1.561-1.324 31.879c-.101 2.437.218 4.091.96 4.962.741.871 1.876 1.182 3.404.932a9.313 9.313 0 0 0 3.09-1.099c.991-.558 2.097-1.414 3.321-2.566l1.926 2.959a16.987 16.987 0 0 1-2.073 1.826c-.747.559-1.51 1.05-2.289 1.475a17.57 17.57 0 0 1-2.327 1.064c-.773.284-1.485.481-2.137.587-1.418.231-2.674.248-3.77.05s-2-.655-2.711-1.373c-.712-.717-1.231-1.733-1.557-3.049-.326-1.316-.447-2.992-.362-5.029l1.157-27.864-5.041.823.166-4.016zM299.63 389.709c.053-1.278-.382-2.189-1.305-2.733-.923-.543-2.08-.911-3.471-1.1a57.231 57.231 0 0 0-4.55-.418c-1.642-.089-3.155-.318-4.538-.688-1.384-.369-2.531-.986-3.441-1.849-.91-.863-1.326-2.214-1.25-4.051.063-1.518.432-2.868 1.107-4.049a10.981 10.981 0 0 1 2.603-3.074c1.06-.867 2.285-1.583 3.674-2.147a20.051 20.051 0 0 1 4.318-1.211c2.673-.436 4.959-.461 6.86-.078 1.899.385 3.406.863 4.521 1.435l-1.985 4.074a37.663 37.663 0 0 0-3.998-1.401c-1.439-.42-3.262-.45-5.469-.09-.838.137-1.671.362-2.496.676-.825.313-1.579.704-2.26 1.172a6.06 6.06 0 0 0-1.657 1.669c-.424.645-.653 1.386-.688 2.225-.043 1.039.399 1.761 1.328 2.164.928.405 2.089.681 3.482.83 1.393.15 2.911.26 4.553.328 1.642.069 3.155.309 4.538.718 1.382.409 2.526 1.075 3.434 1.999.907.923 1.322 2.304 1.246 4.141-.114 2.757-1.25 5.203-3.406 7.341-2.157 2.138-5.316 3.546-9.479 4.225-1.26.206-2.497.288-3.709.248a19.301 19.301 0 0 1-3.398-.398 16.356 16.356 0 0 1-2.866-.871c-.858-.356-1.562-.747-2.113-1.173l2.447-4.268c.437.405 1.026.795 1.767 1.169.74.376 1.559.689 2.457.938.897.251 1.865.41 2.902.479 1.037.069 2.088.016 3.155-.158a16.285 16.285 0 0 0 2.895-.74 10.2 10.2 0 0 0 2.406-1.226 6.039 6.039 0 0 0 1.69-1.764c.428-.683.66-1.465.696-2.344z"/><path fill="#FF8630" d="m666.428 518.288 1.627-76.098c.191-9.382-7.338-17.102-16.72-17.146l-217.745-1.028c-9.177-.043-16.692 7.287-16.878 16.464l-.306 77.289"/><path d="m668.429 518.331-4-.086 1.626-76.099a14.694 14.694 0 0 0-4.203-10.637 14.692 14.692 0 0 0-10.526-4.467l-217.744-1.027h-.07c-8.004 0-14.636 6.491-14.798 14.504l-.306 77.256-4-.016.306-77.289c.207-10.209 8.632-18.455 18.798-18.455h.09l217.744 1.027a18.66 18.66 0 0 1 13.37 5.674 18.676 18.676 0 0 1 5.34 13.514l-1.627 76.101z"/><path d="m491.962 452.306 9.626.082-.266 31.246c-.003.354.013.799.048 1.33.034.531.08 1.093.134 1.684.055.592.118 1.173.192 1.745.074.572.147 1.075.222 1.509l3.957.034-.032 3.839-7.91-.067-.556-4.554-.235-.002c-.877 1.49-2.174 2.729-3.891 3.718-1.717.99-3.694 1.474-5.933 1.456-4.437-.038-7.696-1.315-9.776-3.835-2.08-2.518-3.096-6.414-3.052-11.692.021-2.481.394-4.673 1.117-6.577.722-1.903 1.746-3.489 3.074-4.757 1.326-1.269 2.915-2.23 4.767-2.884 1.849-.653 3.914-.97 6.192-.951.824.007 1.56.033 2.207.077.647.046 1.245.109 1.795.193.549.084 1.069.196 1.559.338.489.142 1.028.294 1.616.456l.071-8.387-4.961-.043.035-3.958zm-3.84 38.068c2.394.02 4.282-.584 5.666-1.813 1.383-1.229 2.341-3.081 2.872-5.557l.117-13.703a9.116 9.116 0 0 0-2.902-1.324c-1.077-.284-2.498-.435-4.263-.45-3.138-.026-5.618.868-7.438 2.683-1.821 1.816-2.747 4.694-2.782 8.631-.014 1.615.12 3.122.403 4.522.283 1.401.763 2.616 1.441 3.645.678 1.031 1.582 1.845 2.715 2.446 1.132.6 2.523.906 4.171.92zM509.984 479.042c.04-4.764 1.311-8.526 3.816-11.279 2.504-2.755 6.058-4.113 10.665-4.074 2.48.021 4.612.444 6.397 1.266 1.784.822 3.262 1.928 4.432 3.316 1.169 1.388 2.03 3.029 2.586 4.923.553 1.896.823 3.926.804 6.092-.02 2.363-.354 4.496-.999 6.401-.646 1.904-1.585 3.521-2.818 4.849-1.231 1.328-2.745 2.35-4.544 3.062-1.798.714-3.837 1.061-6.121 1.041-2.441-.02-4.565-.444-6.368-1.266-1.805-.822-3.29-1.928-4.459-3.316-1.17-1.388-2.033-3.03-2.586-4.924-.557-1.896-.824-3.925-.805-6.091zm4.9.041a17.49 17.49 0 0 0 .465 4.139 11.385 11.385 0 0 0 1.587 3.735 8.42 8.42 0 0 0 2.892 2.683c1.191.681 2.65 1.027 4.378 1.041 3.139.026 5.512-.927 7.119-2.863 1.606-1.937 2.426-4.795 2.458-8.574a17.36 17.36 0 0 0-.466-4.169 11.047 11.047 0 0 0-1.616-3.705 8.727 8.727 0 0 0-2.921-2.683c-1.192-.68-2.651-1.026-4.378-1.04-3.14-.027-5.503.919-7.089 2.833-1.588 1.916-2.397 4.784-2.429 8.603zM568.06 469.318a23.464 23.464 0 0 0-2.917-.822 15.254 15.254 0 0 0-3.096-.352c-3.859-.032-6.74.851-8.645 2.65-1.906 1.801-2.875 4.675-2.908 8.622-.016 1.738.247 3.29.787 4.656.539 1.367 1.316 2.529 2.333 3.485 1.015.957 2.239 1.698 3.673 2.222 1.432.526 3.015.796 4.747.81 1.85.016 3.653-.289 5.411-.915 1.757-.626 3.231-1.455 4.42-2.487l2.038 3.443c-.556.468-1.248.956-2.079 1.459-.832.505-1.79.98-2.877 1.423-1.087.445-2.29.798-3.612 1.063-1.32.263-2.747.39-4.283.377-2.56-.022-4.81-.406-6.754-1.151-1.942-.744-3.558-1.803-4.845-3.172-1.289-1.369-2.259-3.012-2.912-4.928-.653-1.915-.969-4.034-.95-6.358.021-2.482.384-4.684 1.09-6.607.705-1.923 1.713-3.528 3.023-4.816 1.31-1.288 2.894-2.269 4.75-2.943 1.856-.673 3.926-1 6.211-.981 2.913.024 5.282.301 7.108.829 1.826.528 3.367 1.112 4.621 1.751l-.06.177-.07 8.21-4.252-.036.048-5.609zM603.231 486.629c.011-1.26-.473-2.239-1.448-2.937-.976-.696-2.187-1.259-3.637-1.685a67.946 67.946 0 0 0-4.73-1.192 27.41 27.41 0 0 1-4.728-1.458c-1.448-.604-2.658-1.411-3.63-2.423-.973-1.013-1.452-2.424-1.436-4.236.013-1.496.348-2.773 1.007-3.83a8.185 8.185 0 0 1 2.591-2.607c1.069-.68 2.314-1.181 3.733-1.505a19.297 19.297 0 0 1 4.433-.464c2.755.023 5.124.389 7.107 1.094 1.981.706 3.562 1.439 4.735 2.197l-1.916 3.704a49.943 49.943 0 0 0-4.192-2.072c-1.506-.663-3.397-1.003-5.672-1.023a12.37 12.37 0 0 0-2.563.244 9.037 9.037 0 0 0-2.302.777c-.69.349-1.244.807-1.66 1.374-.418.568-.63 1.265-.637 2.092-.009 1.025.475 1.816 1.453 2.374.976.561 2.189 1.034 3.637 1.42a82.6 82.6 0 0 0 4.732 1.104c1.704.35 3.281.845 4.728 1.487 1.448.644 2.657 1.499 3.629 2.571.973 1.072 1.451 2.514 1.436 4.325-.023 2.717-1.116 4.952-3.276 6.706-2.162 1.753-5.388 2.612-9.678 2.575a20.65 20.65 0 0 1-3.834-.387 23.155 23.155 0 0 1-3.536-.975 21.105 21.105 0 0 1-3-1.354c-.902-.499-1.646-1.008-2.232-1.525l2.389-3.82c.466.477 1.091.964 1.872 1.463.78.5 1.641.951 2.58 1.352a17.6 17.6 0 0 0 3.024.971c1.077.246 2.165.372 3.265.382 1.06.009 2.051-.071 2.976-.241.924-.169 1.741-.437 2.451-.806.711-.368 1.274-.854 1.692-1.462s.629-1.344.637-2.21zM768.997 398.024c14.16 0 25.64 11.481 25.64 25.644 0 1.046-.07 2.076-.192 3.089l.047.003c.689-13.548 11.889-24.321 25.606-24.321 14.16 0 25.64 11.481 25.64 25.644 0 .596-.028 1.185-.068 1.771l.212.013c1.317-12.927 12.234-23.013 25.506-23.013 14.16 0 25.64 11.481 25.64 25.644 0 .154-.009.307-.012.461l.203.012c1.526-12.705 12.334-22.555 25.448-22.555 14.16 0 25.64 11.481 25.64 25.644l-1.424 245.54-203.526-23.683V423.668c0-14.163 11.48-25.644 25.64-25.644z"/><g fill="#FFF"><path d="M823.97 489.347a1.994 1.994 0 0 0-2.189-1.791 2 2 0 0 0-1.791 2.189c.006.053.452 5.408-2.41 8.57-1.494 1.651-3.623 2.454-6.507 2.454-2.926 0-5.241-.849-6.883-2.521-2.869-2.927-3.012-7.571-3.017-8.277v-16.277h7.255a2 2 0 0 0 0-4h-7.255v-15.522a2 2 0 0 0-4 0v15.522h-7.586a2 2 0 0 0 0 4h7.586v38.993l.01.193c.005.054.473 5.408-2.424 8.592-1.474 1.619-3.658 2.439-6.494 2.439-2.926 0-5.241-.849-6.883-2.521-3.082-3.144-3.019-8.275-3.017-8.372v-35.704a2 2 0 0 0-4 0l.001 35.652c-.008.277-.125 6.827 4.135 11.198 2.423 2.486 5.708 3.747 9.764 3.747 4.021 0 7.209-1.269 9.473-3.77 3.853-4.257 3.512-10.587 3.436-11.541v-11.731c.047.05.087.103.135.152 2.424 2.486 5.709 3.747 9.765 3.747 4.021 0 7.209-1.269 9.473-3.77 4.084-4.514 3.451-11.362 3.423-11.651zM782.662 462.768c0-3.473-2.825-6.298-6.297-6.298s-6.297 2.825-6.297 6.298 2.825 6.298 6.297 6.298 6.297-2.826 6.297-6.298zm-8.594 0c0-1.267 1.03-2.298 2.297-2.298s2.297 1.031 2.297 2.298-1.03 2.298-2.297 2.298-2.297-1.032-2.297-2.298z"/></g><g fill="#FFF"><path d="m903.654 588.983.418-43.392-77.98-3.787.008 42.65 77.554 4.529zm-3.612-39.588-.341 35.357-69.608-4.065-.006-34.689 69.955 3.397z"/><path d="m913.171 598.622.488-62.196-96.829-4.88.019 59.169-36.987 30.47a1.999 1.999 0 0 0 1.136 3.534l93.048 6.261a1.975 1.975 0 0 0 1.395-.443l37.012-30.136a1.98 1.98 0 0 0 .687-1.15l.027.001.001-.143c.02-.162.022-.325.003-.487zm-3.535-58.4-.43 54.784-88.364-5.433-.017-53.827 88.811 4.476zm-36.107 86.72-87.248-5.87 33.46-27.564 88.192 5.423-34.404 28.011z"/><path d="m871.222 614.474-63.022-3.885a1.983 1.983 0 0 0-2.119 1.873 1.999 1.999 0 0 0 1.873 2.119l63.022 3.885a2 2 0 1 0 .246-3.992zM818.132 602.426a1.998 1.998 0 0 0 1.878 2.114l64.925 3.839a1.998 1.998 0 0 0 2.114-1.878 1.998 1.998 0 0 0-1.878-2.114l-64.925-3.839c-1.1-.082-2.05.774-2.114 1.878z"/></g><path fill="#FFF" d="m999.354 710.989-4-.468v-70.649h4zM337.135 916.112V785.928l519.239 60.898v125.673z"/></svg>