<svg xmlns="http://www.w3.org/2000/svg" viewBox="0 0 1925 1050" xml:space="preserve"><path fill="none" d="m1074.07 325.6 2.33 1.19-94.79 185.15h53.1l-4.48-2.29 80.64-157.48V325.6zm-2.95 0h-50.41l2.34 1.19-94.79 185.15h53.1l-4.48-2.29zm-53.35 0h-50.41l2.34 1.19-94.8 185.15h53.11l-4.48-2.29zm-53.35 0h-50.41l2.34 1.19-94.4 184.37v.78h52.71l-4.48-2.29zm-142.47 0v69.84l35.76-69.84zm38.71 0 2.34 1.19-41.05 80.17v92.68l89.11-174.04zm227.4 186.34-4.47-2.29 27.28-53.28v-92.68l-75.91 148.25zm22.81 0v-44.05l-22.56 44.05z"/><path fill="#FFF" d="M860.66 325.6h-2.95l-35.76 69.84v11.52L863 326.79zm53.35 0h-2.95l-89.11 174.04v11.52l94.4-184.37zm120.7 186.34h.25l75.91-148.25v-11.52l-80.64 157.48zM967.36 325.6h-2.94l-94.24 184.05 4.48 2.29h.24l94.8-185.15zm120.7 186.34h.25l22.56-44.05v-11.52l-27.28 53.28zm-67.35-186.34h-2.94l-94.24 184.05 4.48 2.29h.25l94.79-185.15zm53.36 0h-2.95l-94.24 184.05 4.48 2.29h.25l94.79-185.15zm660.71-183.76h-61.94V13h61.94v128.84zm-57.94-4h53.94V17h-53.94v120.84z"/><path fill="#FFD829" d="M1549.24 86.24h60.02v53.61h-60.02z"/><path d="M1611.26 141.84h-64.02v-57.6h64.02v57.6zm-60.02-4h56.02v-49.6h-56.02v49.6z"/><path fill="#FFF" d="M1113.62 697.82h-291.5v-4h287.5V141.19h-287.5v-4h291.5z"/><path fill="#FFF" d="M1113.62 512.27H819.85V322.73h293.77v189.54zm-289.77-4h285.77V326.73H823.85v181.54z"/><path fill="#FFD829" d="M664.95 405.39v-266.2h156.81v266.2"/><path d="M823.76 405.39h-4v-264.2H666.95v264.2h-4v-268.2h160.81z"/><path fill="#FFD829" d="M1110.63 139.19h687.95v555.74h-687.95z"/><path d="M1800.59 696.92h-691.95V137.2h691.95v559.73zm-687.95-4h683.95V141.2h-683.95v551.73z"/><path fill="#FFF" d="M822.35 692.2h1058.57v1.23a82.35 82.35 0 0 1-82.36 82.35h-976.5m413.46-482.5-30.05 17.31-30.05-17.31v-83.54l30.06-17.31 30.04 17.31zm0 165.99-30.05 17.32-30.05-17.32v-83.54l30.06-17.31 30.04 17.31zm0 162.13-30.05 17.32-30.05-17.32v-83.54l30.06-17.31 30.04 17.31zM772.07 293.28l-30.05 17.31-30.04-17.31v-83.54l30.05-17.31 30.04 17.31zm-60.09 108.19v-33.8l30.05-17.32 30.04 17.32v33.8m587.46-108.19-30.05 17.31-30.04-17.31v-83.54l30.05-17.31 30.04 17.31zm0 165.99-30.05 17.32-30.04-17.32v-83.54l30.05-17.31 30.04 17.31zm0 162.13-30.05 17.32-30.04-17.32v-83.54l30.05-17.31 30.04 17.31zm124.01-328.12-30.05 17.31-30.04-17.31v-83.54l30.05-17.31 30.04 17.31zm0 165.99-30.05 17.32-30.04-17.32v-83.54l30.05-17.31 30.04 17.31zm0 162.13-30.05 17.32-30.04-17.32v-83.54l30.05-17.31 30.04 17.31zm124.01-328.12-30.04 17.31-30.05-17.31v-83.54l30.05-17.31 30.04 17.31zm0 165.99-30.04 17.32-30.05-17.32v-83.54l30.05-17.31 30.04 17.31zm0 148.69-30.04 17.31-30.05-17.31v-83.54l30.05-17.32 30.04 17.32zm124.01-314.68-30.04 17.31-30.05-17.31v-83.54l30.05-17.31 30.04 17.31zm0 165.99-30.04 17.32-30.05-17.32v-83.54l30.05-17.31 30.04 17.31zm0 162.13-30.04 17.32-30.05-17.32v-83.54l30.05-17.31 30.04 17.31z"/><path fill="#FFD829" d="M1596.9 777.03V662.76c0-3.8-8.25-6.87-18.43-6.87s-18.44 3.07-18.44 6.87v114.27"/><path fill="#231F20" d="M1598.9 777.03h-4V662.76c0-1.72-6.24-4.87-16.43-4.87s-16.44 3.15-16.44 4.87v114.27h-4V662.76c0-5.82 10.28-8.87 20.44-8.87s20.43 3.05 20.43 8.87v114.27z"/><circle cx="1578.47" cy="628.78" r="70.92"/><circle cx="1578.47" cy="563.43" r="63.39"/><circle cx="1578.47" cy="493.9" r="54.11"/><path fill="#FFD829" d="M1788.17 777.03V662.76c0-3.8-8.25-6.87-18.43-6.87-10.19 0-18.44 3.07-18.44 6.87v114.27"/><path fill="#231F20" d="M1790.18 777.03h-4V662.76c0-1.72-6.25-4.87-16.44-4.87s-16.44 3.15-16.44 4.87v114.27h-4V662.76c0-5.82 10.28-8.87 20.44-8.87s20.44 3.05 20.44 8.87v114.27z"/><circle cx="1769.74" cy="628.78" r="70.92"/><circle cx="1769.74" cy="563.43" r="63.39"/><circle cx="1769.74" cy="493.9" r="54.11"/><path fill="none" d="M604.46 589.73h-50.4l2.34 1.19-94.8 185.15h53.1l-4.47-2.29zm106.71 0h-50.41l2.34 1.19-94.8 185.15h53.11l-4.48-2.29zm-160.06 0h-50.4l2.33 1.19-94.79 185.15h53.1l-4.47-2.29zm-157.1 0 2.33 1.19-2.33 4.57v92.68l50.4-98.44zm370.51 0h-50.41l2.34 1.19-94.79 185.15h53.1l-4.48-2.29zm56.3 0 1.25.64v-.64zm-323.06 0h-50.4l2.33 1.19-55.68 108.77v76.38H408l-4.47-2.29zm160.06 0h-50.41l2.34 1.19-94.8 185.15h53.1l-4.47-2.29zm123.64 186.34-4.47-2.29 45.08-88.05v-92.69l-93.71 183.03zm36.41-186.34h-50.41l2.34 1.19-94.79 185.15h53.1l-4.48-2.29zm4.2 186.34v-78.83l-40.36 78.83z"/><path fill="#FFF" d="M394.01 589.73v5.76l2.33-4.57zm53.35 0h-2.95l-50.4 98.44v11.52l55.68-108.77zm53.35 0h-2.95l-94.23 184.05 4.47 2.29h.25l94.79-185.15zm213.4 0h-2.94l-94.24 184.05 4.48 2.29h.25l94.79-185.15zm-160.05 0h-2.95l-94.23 184.05 4.47 2.29h.25l94.8-185.15zm213.4 0h-2.94l-94.24 184.05 4.48 2.29h.25l94.79-185.15zm-160.05 0h-2.95l-94.23 184.05 4.47 2.29h.25l94.8-185.15zm210.46 0-94.24 184.05 4.48 2.29h.25l93.71-183.03v-2.67l-1.25-.64zm-157.11 0h-2.94l-94.24 184.05 4.47 2.29h.25l94.8-185.15zm120.7 186.34h.25l40.36-78.83v-11.51l-45.08 88.05z"/><path d="m347.83 302.03-.14-.47h-.02a57.38 57.38 0 0 0-105.93-7.01 57.38 57.38 0 0 0-82.06 67.35h-.02l.16.47.07.24c16.94 51.47 72.27 79.72 123.96 63.13 51.68-16.59 80.24-71.76 64.05-123.48h.01l-.08-.23z"/><path fill="#FFF" d="M824.07 590.61H392.91v-4h427.16V406.29H392.91v-4h431.16z"/><path fill="#FFF" d="M824.07 778.07H392.91v-4h427.16V590.61H392.91v-4h431.16z"/><path fill="#FFF" d="M824.07 962.02H392.91v-4h427.16V777.69H392.91v-4h431.16z"/><path fill="#FFD829" d="M104.04 404.29h288.87v555.74H104.04z"/><path d="M394.9 962.02H102.05V402.3H394.9v559.73zm-288.86-4H390.9V406.3H106.04v551.73z"/><path fill="#FFF" d="m215.74 558.38-30.04 17.31-30.05-17.31v-83.54l30.05-17.32 30.04 17.32zm0 165.99-30.04 17.31-30.05-17.31v-83.54l30.05-17.31 30.04 17.31zm0 162.13-30.04 17.31-30.05-17.31v-83.54l30.05-17.31 30.04 17.31zm119.24-328.12-30.04 17.31-30.05-17.31v-83.54l30.05-17.32 30.04 17.32zm0 165.99-30.04 17.31-30.05-17.31v-83.54l30.05-17.31 30.04 17.31zm0 162.13-30.04 17.31-30.05-17.31v-83.54l30.05-17.31 30.04 17.31z"/><path d="M816.02 1035H107.46A58.45 58.45 0 0 1 49 976.55v-20.1h825.46v20.1a58.45 58.45 0 0 1-58.45 58.45z"/><path fill="#FFF" d="M702.55 1035V900.18c0-4.47-9.73-8.1-21.75-8.1s-21.75 3.63-21.75 8.1V1035h43.5z"/><circle cx="680.8" cy="834.3" r="83.67"/><circle cx="680.8" cy="757.2" r="74.79"/><circle cx="680.8" cy="675.17" r="63.84"/><path d="M239.9 295.32c-31.53-75.01-80.35-114.28-115.76-134.01-38.4-21.4-69.76-25.1-70.07-25.13l.44-3.98c.32.04 32.33 3.78 71.4 25.52 36.02 20.03 85.67 59.9 117.67 136.06l-3.68 1.54z"/><ellipse transform="rotate(-16.31 115.54 233.19)" fill="#FFF" cx="115.54" cy="233.18" rx="74.45" ry="30.87"/></svg>