<svg xmlns="http://www.w3.org/2000/svg" viewBox="0 0 1920 1080" xml:space="preserve"><path d="M1762.763 245.486a1.993 1.993 0 0 1-1.908-2.088 1.991 1.991 0 0 1 2.078-1.908 1.994 1.994 0 0 1 1.908 2.089 1.99 1.99 0 0 1-1.988 1.907h-.09zm7.992-1.908a2.002 2.002 0 0 1 1.908-2.089c1.099-.05 2.038.8 2.088 1.898a2 2 0 0 1-1.908 2.088c-.029 0-.06.01-.09.01a2.005 2.005 0 0 1-1.998-1.907zm-18.041 1.009a2 2 0 0 1-1.708-2.248 1.994 1.994 0 0 1 2.248-1.708h-.011a1.99 1.99 0 0 1 1.719 2.248 2 2 0 0 1-1.978 1.728c-.09 0-.18-.01-.27-.02zm27.921-1.729a2.002 2.002 0 0 1 3.966-.54 2.01 2.01 0 0 1-1.708 2.258c-.1.01-.19.01-.28.01a1.998 1.998 0 0 1-1.978-1.728zm-37.841-.069a1.996 1.996 0 0 1-1.498-2.398 1.98 1.98 0 0 1 2.388-1.498c1.079.24 1.748 1.319 1.508 2.398a2.023 2.023 0 0 1-1.958 1.548c-.15 0-.3-.021-.44-.05zm47.621-1.529a1.995 1.995 0 0 1 1.498-2.398 1.994 1.994 0 0 1 2.397 1.498 2.003 2.003 0 0 1-1.499 2.398 2.002 2.002 0 0 1-2.396-1.498zm-57.34-1.168a2.005 2.005 0 0 1-1.279-2.528 1.983 1.983 0 0 1 2.518-1.268 1.995 1.995 0 0 1 1.278 2.517 2.007 2.007 0 0 1-1.897 1.378c-.211 0-.42-.04-.62-.099zm66.93-1.319a1.988 1.988 0 0 1 1.279-2.517 1.986 1.986 0 0 1 2.517 1.268 1.998 1.998 0 0 1-1.279 2.518v.01c-.199.06-.409.1-.618.1a2.01 2.01 0 0 1-1.899-1.379zm-76.371-2.258a2.002 2.002 0 0 1-1.039-2.638 1.997 1.997 0 0 1 2.627-1.038 2 2 0 0 1 1.039 2.627 2.006 2.006 0 0 1-1.838 1.209c-.259 0-.529-.05-.789-.16zm85.691-1.088a1.989 1.989 0 0 1 1.039-2.627 1.99 1.99 0 0 1 2.627 1.039 2.002 2.002 0 0 1-1.039 2.627c-.26.109-.53.159-.789.159a2.002 2.002 0 0 1-1.838-1.198zm-94.761-3.337a1.994 1.994 0 0 1-.799-2.708 1.994 1.994 0 0 1 2.707-.799 1.993 1.993 0 0 1 .799 2.707 1.991 1.991 0 0 1-1.748 1.05c-.33 0-.66-.08-.959-.25zm103.742-.849a2.004 2.004 0 0 1 .799-2.717 1.993 1.993 0 0 1 2.707.799c.53.969.17 2.177-.799 2.707-.301.17-.629.25-.949.25-.709 0-1.399-.38-1.758-1.039zm-112.373-4.376c-.919-.619-1.169-1.858-.549-2.767a1.985 1.985 0 0 1 2.767-.55h.01a1.992 1.992 0 0 1 .539 2.768 1.982 1.982 0 0 1-1.658.889c-.38 0-.77-.11-1.109-.34zm120.934-.609a1.996 1.996 0 0 1 .549-2.776 1.996 1.996 0 0 1 2.768.549c.62.919.37 2.158-.549 2.777-.339.229-.73.339-1.109.339-.64 0-1.28-.32-1.659-.889zm-129.055-5.375a1.997 1.997 0 0 1-.299-2.807c.698-.859 1.958-.999 2.807-.299h.01c.85.699.989 1.958.29 2.807-.389.49-.969.739-1.558.739-.442 0-.881-.14-1.25-.44zm137.136-.369a1.99 1.99 0 0 1 .29-2.807 2 2 0 0 1 2.518 3.107c-.37.299-.819.439-1.258.439-.58 0-1.16-.25-1.55-.739zm-144.689-6.313a2.002 2.002 0 0 1-.04-2.827 1.993 1.993 0 0 1 2.827-.05 2 2 0 0 1 .04 2.826c-.389.4-.909.61-1.438.61-.499 0-.999-.19-1.389-.559zm152.211-.13a1.99 1.99 0 0 1 .04-2.817v-.01a2.001 2.001 0 0 1 2.827.04c.77.799.749 2.057-.04 2.827-.389.38-.889.569-1.399.569-.518 0-1.037-.2-1.428-.609zm-159.124-7.223a1.995 1.995 0 0 1 .21-2.817 1.996 1.996 0 0 1 2.817.22 1.995 1.995 0 0 1-.21 2.816c-.379.32-.839.48-1.298.48a1.979 1.979 0 0 1-1.519-.699zm166.037.13a2.004 2.004 0 0 1-.21-2.817 1.995 1.995 0 0 1 2.817-.21c.839.72.929 1.978.21 2.808a1.951 1.951 0 0 1-1.519.699 2.01 2.01 0 0 1-1.298-.48zm-172.271-8.062a1.999 1.999 0 0 1 .47-2.786 2.006 2.006 0 0 1 2.787.459 2.021 2.021 0 0 1-.459 2.797 2.014 2.014 0 0 1-2.798-.47zm178.524.37a2 2 0 0 1-.469-2.787 2 2 0 0 1 3.256 2.318v.01a2.012 2.012 0 0 1-1.628.829 2.013 2.013 0 0 1-1.159-.37zm-184.007-8.831v-.01a2.002 2.002 0 0 1 3.456-2.019c.559.96.229 2.178-.72 2.737a1.96 1.96 0 0 1-1.009.27 2.005 2.005 0 0 1-1.727-.978zm189.542.61a1.987 1.987 0 0 1-.719-2.728 1.984 1.984 0 0 1 2.728-.719 1.994 1.994 0 0 1 .719 2.728 1.986 1.986 0 0 1-1.729.988c-.34 0-.689-.08-.999-.269zm-194.228-9.54a1.997 1.997 0 1 1 3.616-1.698c.469.999.04 2.187-.959 2.657-.28.13-.57.189-.849.189a2.006 2.006 0 0 1-1.808-1.148zm198.983.849a1.996 1.996 0 0 1-.959-2.657 1.996 1.996 0 0 1 2.656-.959 1.994 1.994 0 0 1 .96 2.657 2.006 2.006 0 0 1-1.809 1.149c-.279 0-.569-.061-.848-.19zm-202.849-10.17a1.995 1.995 0 0 1 1.199-2.558 1.993 1.993 0 0 1 2.557 1.199 1.998 1.998 0 0 1-1.198 2.558c-.221.079-.45.119-.68.119a1.984 1.984 0 0 1-1.878-1.318zm206.805 1.079a1.99 1.99 0 0 1-1.199-2.558 2.006 2.006 0 0 1 2.557-1.199 2.002 2.002 0 0 1 1.199 2.558 1.983 1.983 0 0 1-1.878 1.319c-.219 0-.449-.04-.679-.12zm-209.802-10.709a1.997 1.997 0 0 1 1.429-2.437 2 2 0 0 1 2.437 1.428 1.997 1.997 0 0 1-1.428 2.438c-.17.04-.339.06-.509.06-.89 0-1.698-.59-1.929-1.489zm212.908 1.309a1.997 1.997 0 0 1-1.428-2.438v-.01a2.012 2.012 0 0 1 2.438-1.428 2.005 2.005 0 0 1 1.428 2.447v-.01a2.004 2.004 0 0 1-1.938 1.498 2.15 2.15 0 0 1-.5-.059zm-215.015-11.169a2.009 2.009 0 0 1 1.648-2.307 2.01 2.01 0 0 1 2.297 1.649 1.998 1.998 0 0 1-1.648 2.297c-.11.02-.219.03-.33.03a2 2 0 0 1-1.967-1.669zm217.253 1.519a2 2 0 0 1-1.648-2.297v-.01a2 2 0 0 1 3.945.658 1.993 1.993 0 0 1-1.968 1.668 3.67 3.67 0 0 1-.329-.019zm-218.452-11.538h-.01a2 2 0 0 1 1.848-2.138 1.992 1.992 0 0 1 2.137 1.839 2 2 0 0 1-1.838 2.147h-.149a1.987 1.987 0 0 1-1.988-1.848zm219.802 1.718a2 2 0 0 1-1.849-2.137 2 2 0 0 1 2.137-1.849 2.001 2.001 0 0 1 1.849 2.138 2.01 2.01 0 0 1-1.988 1.857.675.675 0 0 1-.149-.009zm-220.112-11.768a1.998 1.998 0 1 1 3.996 0 1.997 1.997 0 1 1-3.996 0zm218.553-.13a1.997 1.997 0 1 1 3.996 0 1.998 1.998 0 1 1-3.996 0zm-218.553-9.78a1.998 1.998 0 1 1 3.996 0 1.997 1.997 0 1 1-3.996 0zm218.553-.129a1.997 1.997 0 1 1 3.996 0 1.991 1.991 0 0 1-1.998 1.998 1.99 1.99 0 0 1-1.998-1.998zm-218.553-9.79c0-1.098.89-1.998 1.998-1.998a1.997 1.997 0 1 1 0 3.996 1.992 1.992 0 0 1-1.998-1.998zm218.553-.12c0-1.109.889-1.998 1.998-1.998s1.998.889 1.998 1.998a1.998 1.998 0 0 1-1.998 1.998 1.997 1.997 0 0 1-1.998-1.998zm-218.553-9.789c0-1.099.89-1.998 1.998-1.998a1.998 1.998 0 1 1 0 3.996 1.993 1.993 0 0 1-1.998-1.998zm218.553-.12c0-1.109.889-1.998 1.998-1.998s1.998.889 1.998 1.998a1.998 1.998 0 1 1-3.996 0zm-218.553-9.79c0-1.099.89-1.998 1.998-1.998 1.099 0 1.998.898 1.998 1.998a2.004 2.004 0 0 1-1.998 1.998c-1.108 0-1.998-.9-1.998-1.998zm218.553-.12c0-1.109.889-1.998 1.998-1.998s1.998.889 1.998 1.998a1.99 1.99 0 0 1-1.998 1.988c-1.11 0-1.998-.89-1.998-1.988zm-218.553-9.79c0-1.109.89-1.998 1.998-1.998 1.099 0 1.998.889 1.998 1.998a2.004 2.004 0 0 1-1.998 1.998 1.998 1.998 0 0 1-1.998-1.998zm218.553-.129c0-1.099.889-1.998 1.998-1.998s1.998.898 1.998 1.998a1.992 1.992 0 0 1-1.998 1.998 1.992 1.992 0 0 1-1.998-1.998zm-218.553-9.78c0-1.109.89-2.009 1.998-2.009a2.004 2.004 0 0 1 0 4.007c-1.108 0-1.998-.9-1.998-1.998zm218.553-.131a1.997 1.997 0 1 1 3.996 0 1.991 1.991 0 0 1-1.998 1.998 1.99 1.99 0 0 1-1.998-1.998zm-218.553-9.79c0-1.098.89-1.998 1.998-1.998a1.997 1.997 0 1 1 0 3.996 1.991 1.991 0 0 1-1.998-1.998zm218.553-.12c0-1.108.889-1.998 1.998-1.998s1.998.89 1.998 1.998a1.997 1.997 0 0 1-1.998 1.998 1.996 1.996 0 0 1-1.998-1.998zm-218.553-9.789a1.998 1.998 0 1 1 3.996 0 1.997 1.997 0 0 1-1.998 1.998 1.992 1.992 0 0 1-1.998-1.998zm218.553-.12c0-1.108.889-1.998 1.998-1.998s1.998.89 1.998 1.998a1.997 1.997 0 0 1-1.998 1.998 1.997 1.997 0 0 1-1.998-1.998zm-218.553-9.79c0-1.109.89-1.998 1.998-1.998 1.099 0 1.998.889 1.998 1.998a1.997 1.997 0 1 1-3.996 0zm218.553-.13a1.997 1.997 0 1 1 3.996 0 1.991 1.991 0 0 1-1.998 1.998 1.99 1.99 0 0 1-1.998-1.998zm-218.553-9.779c0-1.109.89-1.998 1.998-1.998 1.099 0 1.998.889 1.998 1.998a2.004 2.004 0 0 1-1.998 1.998c-1.108 0-1.998-.9-1.998-1.998zm218.553-.13c0-1.109.889-1.998 1.998-1.998s1.998.889 1.998 1.998a1.997 1.997 0 1 1-3.996 0zm-218.553-9.78a2 2 0 0 1 1.998-2.008c1.099 0 1.998.898 1.998 2.008a1.996 1.996 0 0 1-1.998 1.988 1.99 1.99 0 0 1-1.998-1.988zm218.553-.13c0-1.109.889-1.998 1.998-1.998s1.998.889 1.998 1.998a1.998 1.998 0 0 1-1.998 1.998 1.997 1.997 0 0 1-1.998-1.998zm-218.553-9.789c0-1.099.89-1.998 1.998-1.998a1.998 1.998 0 1 1 0 3.996 1.992 1.992 0 0 1-1.998-1.998zm218.553-.12c0-1.109.889-1.998 1.998-1.998s1.998.889 1.998 1.998a1.997 1.997 0 1 1-3.996 0z"/><path fill="#FFD829" d="M1.998 1080 .712 765.219a284.64 284.64 0 0 1 58.323-172.176l266.221-288.376.835 774.196L1.998 1080z"/><path d="M326.09 309.954 62.564 595.412C25.35 644.233 4.805 704.919 4.708 766.305l-.712 311.702A1.998 1.998 0 0 1 1.998 1080h-.004A2 2 0 0 1 0 1077.997l.712-311.7c.099-62.284 20.957-123.859 58.732-173.383.038-.05.078-.098.12-.143l266.221-288.376"/><path fill="#FFD829" d="m329.128 3.668 91.669 102.778L512.459 3.668l91.664 102.778L695.789 3.668l91.67 102.778L879.131 3.668l91.67 102.778 91.673-102.778 91.672 102.778 91.668-102.778 91.673 102.778 91.675-102.778 91.68 102.778 91.679-102.778"/><path fill="#FFF" d="M328.088 1077.852h-3.995V0h1289.782v3.996H328.088z"/><path fill="#FFF" d="M1920 1080h-3.996V3.996h-300.131V1080h-3.995V0H1920z"/><circle cx="506.785" cy="217.998" r="39.096"/><path fill="#FFD829" d="M496.845 231.591c0-.778.535-1.409 1.603-1.409 1.943 0 6.752.145 8.598.194V207.98l-7.336 3.984c-.68.339-1.215.534-1.7.534-.826 0-1.36-.582-1.36-1.409 0-.631.34-1.117 1.215-1.554l8.696-4.275c.583-.292 1.36-.68 2.089-.68.874 0 1.36.631 1.36 1.699v24.096c1.457-.049 5.149-.194 6.656-.194 1.069 0 1.603.631 1.603 1.409 0 .777-.534 1.409-1.603 1.409h-18.217c-1.07 0-1.604-.632-1.604-1.408z"/><circle cx="1110.088" cy="217.998" r="39.096"/><path fill="#FFD829" d="M1111.174 203.368c5.295 0 9.376 3.012 9.376 8.161 0 5.344-4.712 8.89-10.056 13.02l-5.975 4.614c3.254-.049 14.67-.194 16.468-.194 1.069 0 1.603.631 1.603 1.409s-.534 1.409-1.603 1.409h-19.481c-.776 0-1.505-.486-1.505-1.457 0-.534.243-1.019 1.02-1.603l8.308-6.655c5.052-4.032 8.161-6.802 8.161-10.444 0-3.595-2.915-5.489-6.365-5.489-2.769 0-5.1 1.166-7.286 3.74-.486.582-.875.874-1.555.874-.778 0-1.409-.535-1.409-1.311 0-.583.145-.972.486-1.361 1.797-2.041 5.052-4.713 9.813-4.713z"/><circle cx="477.23" cy="826.173" r="39.096"/><path fill="#FFD829" d="M466.413 817.123c0-.534.243-1.019.68-1.456 1.992-2.041 5.052-4.129 9.958-4.129 4.712 0 9.182 2.866 9.182 7.676 0 3.011-1.846 5.538-5.198 6.412 3.498.437 6.315 2.964 6.315 6.559 0 4.614-4.129 8.452-10.833 8.452-4.761 0-8.21-1.992-10.105-4.032-.534-.583-.874-1.069-.874-1.7a1.41 1.41 0 0 1 1.409-1.409c.632 0 1.069.34 1.7 1.02 2.089 2.332 4.955 3.352 7.87 3.352 4.129 0 7.773-2.186 7.773-5.636 0-3.449-3.449-4.906-7.579-4.955-1.02 0-1.749-.437-1.749-1.409s.777-1.312 1.7-1.409c3.789-.486 6.509-1.943 6.509-5.246 0-3.352-3.206-4.907-6.266-4.907-3.109 0-5.344 1.069-7.579 3.401-.583.535-.972.778-1.506.778-.824-.001-1.407-.535-1.407-1.362z"/><path fill="#FFF" d="M1856.321 311.964h-180.764a1.999 1.999 0 0 1 0-3.996h180.764a1.999 1.999 0 0 1 0 3.996zM1856.321 356.597h-180.764a1.999 1.999 0 0 1 0-3.996h180.764a1.999 1.999 0 0 1 0 3.996zM1856.321 401.23h-180.764a1.999 1.999 0 0 1 0-3.996h180.764a1.999 1.999 0 0 1 0 3.996zM1856.321 445.863h-180.764a1.999 1.999 0 0 1 0-3.996h180.764a1.999 1.999 0 0 1 0 3.996zM1856.321 490.496h-180.764a1.999 1.999 0 0 1 0-3.996h180.764a1.999 1.999 0 0 1 0 3.996zM1856.321 535.129h-180.764a1.999 1.999 0 0 1 0-3.996h180.764a1.999 1.999 0 0 1 0 3.996zM1856.321 579.762h-180.764a1.999 1.999 0 0 1 0-3.996h180.764a1.999 1.999 0 0 1 0 3.996zM1856.321 928.642h-180.764a1.999 1.999 0 0 1 0-3.996h180.764a1.999 1.999 0 0 1 0 3.996zM1856.321 973.275h-180.764a1.999 1.999 0 0 1 0-3.996h180.764a1.999 1.999 0 0 1 0 3.996z"/><path d="M658.863 660.114a2 2 0 0 1 1.918-2.078 2.007 2.007 0 0 1 2.078 1.928 1.998 1.998 0 0 1-1.928 2.068h-.07a2.004 2.004 0 0 1-1.998-1.918zm2.138-8.112a2.008 2.008 0 0 1-1.868-2.128 1.999 1.999 0 0 1 2.118-1.868 2.001 2.001 0 0 1 1.868 2.128 1.998 1.998 0 0 1-1.988 1.868h-.13zm.819-9.989a2.001 2.001 0 0 1-1.748-2.228 2 2 0 0 1 2.228-1.737 2 2 0 0 1 1.738 2.227 1.987 1.987 0 0 1-1.978 1.748c-.08 0-.16 0-.24-.01zm1.359-9.919a2.004 2.004 0 0 1-1.628-2.318 1.999 1.999 0 0 1 2.308-1.618 1.994 1.994 0 0 1 1.628 2.307 2 2 0 0 1-1.968 1.658c-.11 0-.22-.01-.34-.029zm1.868-9.841a1.985 1.985 0 0 1-1.508-2.387 1.993 1.993 0 0 1 2.387-1.508 2.01 2.01 0 0 1 1.509 2.397v-.01a1.994 1.994 0 0 1-1.948 1.558c-.14 0-.29-.01-.44-.05zm2.357-9.719a1.99 1.99 0 0 1-1.378-2.468 1.988 1.988 0 0 1 2.457-1.378 1.997 1.997 0 0 1 1.389 2.468 2.005 2.005 0 0 1-1.928 1.458c-.18 0-.36-.03-.54-.08zm2.858-9.58a1.994 1.994 0 0 1-1.249-2.537 1.982 1.982 0 0 1 2.527-1.249 1.993 1.993 0 0 1 1.259 2.527 2.01 2.01 0 0 1-1.898 1.359 2.083 2.083 0 0 1-.639-.1zm3.356-9.421a1.999 1.999 0 1 1 1.478-3.716 2 2 0 0 1 1.119 2.597 2.02 2.02 0 0 1-1.858 1.259 2.087 2.087 0 0 1-.739-.14zm3.856-9.22a2.01 2.01 0 0 1-.969-2.657 2.01 2.01 0 0 1 2.657-.969 1.999 1.999 0 0 1 .969 2.656 2 2 0 0 1-1.818 1.159c-.28 0-.559-.069-.839-.189zm4.376-8.99a1.995 1.995 0 0 1-.819-2.707 2.005 2.005 0 0 1 2.707-.81 1.994 1.994 0 0 1 .809 2.707 1.994 1.994 0 0 1-1.758 1.049c-.32 0-.64-.079-.939-.239zm4.875-8.712a1.994 1.994 0 0 1-.649-2.747 1.994 1.994 0 1 1 3.396 2.088 1.965 1.965 0 0 1-1.698.948 1.99 1.99 0 0 1-1.049-.289zm5.394-8.411a1.998 1.998 0 0 1-.49-2.776 2.004 2.004 0 0 1 2.787-.49 2.011 2.011 0 0 1 .49 2.787 2.01 2.01 0 0 1-1.638.849c-.4 0-.799-.12-1.149-.37zm5.894-8.061a1.99 1.99 0 0 1-.319-2.808 2.01 2.01 0 0 1 2.817-.309 2 2 0 0 1 .31 2.807c-.399.49-.979.749-1.568.749-.431 0-.881-.14-1.24-.439zm6.373-7.673a2.004 2.004 0 0 1-.139-2.827 2.006 2.006 0 0 1 2.827-.13c.819.74.879 1.998.139 2.817-.399.44-.939.659-1.488.659a1.96 1.96 0 0 1-1.339-.519zm6.843-7.262a2.002 2.002 0 0 1 .04-2.827 2.001 2.001 0 0 1 2.827.04 2.002 2.002 0 0 1-.04 2.827c-.39.38-.889.569-1.389.569a2.04 2.04 0 0 1-1.438-.609zm7.293-6.823a1.995 1.995 0 0 1 .21-2.817 1.995 1.995 0 0 1 2.817.221 1.995 1.995 0 0 1-.22 2.816c-.369.32-.829.48-1.288.48a1.95 1.95 0 0 1-1.519-.7zm7.691-6.343a2.008 2.008 0 0 1 .39-2.808 2.003 2.003 0 0 1 2.797.389c.669.88.49 2.138-.389 2.808-.36.269-.789.399-1.209.399-.6 0-1.199-.269-1.589-.788zm8.062-5.874a1.995 1.995 0 0 1 .559-2.767 1.986 1.986 0 0 1 2.767.559c.61.919.36 2.158-.549 2.768-.35.22-.729.33-1.109.33a2.002 2.002 0 0 1-1.668-.89zm8.401-5.375a1.994 1.994 0 0 1 .719-2.736 1.985 1.985 0 0 1 2.727.719 1.99 1.99 0 0 1-.709 2.727h-.01c-.31.19-.659.28-.999.28a2.01 2.01 0 0 1-1.728-.99zm8.691-4.894c-.5-.979-.11-2.188.869-2.688a2 2 0 0 1 2.687.869c.509.979.12 2.188-.869 2.688-.29.149-.599.22-.899.22-.729 0-1.428-.4-1.788-1.089zm8.951-4.396a1.986 1.986 0 0 1 1.019-2.637c.999-.459 2.178 0 2.637 1.009a2.015 2.015 0 0 1-1.009 2.637h-.01c-.26.12-.539.17-.809.17a1.995 1.995 0 0 1-1.828-1.179zm9.17-3.926a2.003 2.003 0 0 1 1.149-2.587 1.987 1.987 0 0 1 2.577 1.138 1.999 1.999 0 0 1-1.139 2.587c-.24.09-.479.14-.719.14a2.014 2.014 0 0 1-1.868-1.278zm9.36-3.467a1.993 1.993 0 0 1 1.259-2.527 1.997 1.997 0 0 1 1.269 3.786c-.21.08-.43.109-.64.109a1.976 1.976 0 0 1-1.888-1.368zm9.501-3.026a2.007 2.007 0 0 1 1.378-2.468 2.004 2.004 0 0 1 2.468 1.379 1.99 1.99 0 0 1-1.379 2.467c-.18.05-.359.08-.539.08a2.002 2.002 0 0 1-1.928-1.458zm9.63-2.598a2.01 2.01 0 0 1 1.478-2.407c1.078-.25 2.157.409 2.407 1.478a1.99 1.99 0 0 1-1.478 2.408c-.15.04-.31.06-.459.06-.91 0-1.729-.62-1.948-1.539zm9.74-2.197a1.99 1.99 0 0 1 1.568-2.348 2.006 2.006 0 0 1 2.348 1.578 2.005 2.005 0 0 1-1.569 2.347h-.01c-.13.02-.26.03-.379.03a1.985 1.985 0 0 1-1.958-1.607zm9.799-1.818a2 2 0 0 1 1.669-2.288c1.089-.18 2.108.57 2.287 1.658a2.007 2.007 0 0 1-1.668 2.288c-.1.02-.21.02-.31.02-.969 0-1.818-.7-1.978-1.678zm9.88-1.468a1.997 1.997 0 0 1 1.738-2.228v.01a2 2 0 0 1 2.228 1.729 2.002 2.002 0 0 1-1.738 2.227v.011c-.09.01-.17.01-.25.01a1.997 1.997 0 0 1-1.978-1.759zm9.92-1.119a2.004 2.004 0 0 1 1.808-2.178 1.996 1.996 0 0 1 2.168 1.809 2.003 2.003 0 0 1-1.808 2.177h-.18a1.99 1.99 0 0 1-1.988-1.808zm9.949-.81a1.994 1.994 0 0 1 1.868-2.118 1.984 1.984 0 0 1 2.117 1.858 2.001 2.001 0 0 1-1.858 2.128h-.13a1.999 1.999 0 0 1-1.997-1.868zm9.96-.659c-.08-1.098.759-2.048 1.858-2.128a1.987 1.987 0 0 1 2.128 1.858 1.992 1.992 0 0 1-1.848 2.128c-.05 0-.1.01-.14.01a2.014 2.014 0 0 1-1.998-1.868zm9.969-.71a1.99 1.99 0 0 1 1.838-2.137 2.009 2.009 0 0 1 2.148 1.848 2 2 0 0 1-1.848 2.138c-.05 0-.1.01-.15.01a2.003 2.003 0 0 1-1.988-1.859zm9.97-.758a1.994 1.994 0 1 1 3.976-.33 2.003 2.003 0 0 1-1.828 2.158h-.16a1.992 1.992 0 0 1-1.988-1.828zm9.97-.839a1.995 1.995 0 0 1 1.808-2.168 1.995 1.995 0 0 1 2.168 1.808 2.006 2.006 0 0 1-1.818 2.178h.01-.18a1.99 1.99 0 0 1-1.988-1.818zm9.97-.919a1.98 1.98 0 0 1 1.788-2.177 1.997 1.997 0 0 1 2.188 1.788 2.005 2.005 0 0 1-1.798 2.187c-.06.01-.13.01-.199.01a2 2 0 0 1-1.979-1.808zm9.969-.999a1.985 1.985 0 0 1 1.768-2.198 2 2 0 0 1 2.208 1.769 2.014 2.014 0 0 1-1.778 2.208c-.07 0-.14.01-.21.01a2.002 2.002 0 0 1-1.988-1.789zm9.93-1.099a1.999 1.999 0 0 1 1.748-2.218 1.991 1.991 0 0 1 2.217 1.748 1.992 1.992 0 0 1-1.748 2.218c-.08.01-.159.01-.24.01a2.001 2.001 0 0 1-1.977-1.758zm9.929-1.21a1.985 1.985 0 0 1 1.718-2.237 2 2 0 0 1 .51 3.966c-.08.01-.17.01-.26.01a1.975 1.975 0 0 1-1.968-1.739zm9.9-1.327a1.993 1.993 0 0 1 1.698-2.258 1.998 1.998 0 1 1 .56 3.956 2 2 0 0 1-2.258-1.698zm9.89-1.459a1.99 1.99 0 0 1 1.658-2.278c1.089-.18 2.108.569 2.288 1.658a2.006 2.006 0 0 1-1.658 2.288v-.011c-.11.02-.21.03-.32.03a1.984 1.984 0 0 1-1.968-1.687zm9.859-1.608a2 2 0 0 1 1.629-2.308 1.993 1.993 0 0 1 2.307 1.629 1.993 1.993 0 0 1-1.618 2.307 2 2 0 0 1-2.318-1.628zm9.84-1.758c-.21-1.09.5-2.138 1.578-2.348h.01a2.01 2.01 0 0 1 2.337 1.588 2.011 2.011 0 0 1-1.588 2.338c-.13.029-.25.04-.379.04-.939 0-1.779-.67-1.958-1.618zm9.8-1.948a2 2 0 0 1 1.538-2.377 1.995 1.995 0 0 1 2.367 1.538 2.01 2.01 0 0 1-1.538 2.377c-.14.03-.279.04-.419.04-.919 0-1.749-.64-1.948-1.578zm9.76-2.149a2.005 2.005 0 0 1 1.489-2.408 1.993 1.993 0 0 1 2.397 1.489 2.002 2.002 0 0 1-1.478 2.408c-.16.03-.31.05-.459.05-.91 0-1.73-.62-1.949-1.539zm9.709-2.367a2.007 2.007 0 0 1 1.429-2.447c1.058-.28 2.147.359 2.437 1.428a1.994 1.994 0 0 1-1.428 2.437 1.75 1.75 0 0 1-.509.07c-.89 0-1.698-.599-1.929-1.488zm9.641-2.618a1.998 1.998 0 1 1 3.836-1.118 1.997 1.997 0 0 1-1.359 2.477c-.18.05-.369.08-.559.08-.86 0-1.659-.569-1.918-1.439zm9.57-2.886a1.996 1.996 0 1 1 3.796-1.239 1.997 1.997 0 0 1-1.279 2.518 1.998 1.998 0 0 1-2.517-1.279zm9.469-3.186a2 2 0 0 1 1.189-2.568 2 2 0 0 1 1.369 3.756c-.23.08-.459.12-.69.12-.808 0-1.578-.5-1.868-1.308zm9.341-3.537a1.997 1.997 0 0 1 1.089-2.608 2.002 2.002 0 0 1 2.608 1.089 2 2 0 0 1-1.09 2.608 2 2 0 0 1-2.607-1.089zm9.191-3.916a2 2 0 0 1 .969-2.657 2.006 2.006 0 0 1 2.657.978 2.005 2.005 0 0 1-.97 2.648 1.998 1.998 0 0 1-2.656-.969zm8.991-4.336a2.01 2.01 0 0 1 .839-2.707 2.003 2.003 0 0 1 2.697.839c.519.97.139 2.178-.84 2.697-.29.16-.609.23-.929.23a1.996 1.996 0 0 1-1.767-1.059zm8.75-4.814a2.002 2.002 0 0 1 .679-2.747 1.989 1.989 0 0 1 2.737.679 2.01 2.01 0 0 1-.669 2.747c-.32.19-.68.28-1.029.28-.679 0-1.338-.34-1.718-.959zm8.442-5.335a1.981 1.981 0 0 1 .489-2.777 1.99 1.99 0 0 1 2.777.49 1.98 1.98 0 0 1-.49 2.776c-.339.25-.749.37-1.138.37-.63 0-1.249-.3-1.638-.859zm8.041-5.904a1.999 1.999 0 0 1 3.096-2.528c.699.849.57 2.108-.28 2.807h-.01c-.37.31-.809.45-1.259.45-.578 0-1.148-.25-1.547-.729zm7.561-6.513a1.994 1.994 0 0 1 .03-2.827 2.002 2.002 0 0 1 2.827.04c.77.789.749 2.058-.04 2.827-.389.379-.889.57-1.388.57a2.006 2.006 0 0 1-1.429-.61zm6.943-7.153a1.993 1.993 0 0 1-.229-2.807 1.987 1.987 0 0 1 2.816-.23c.84.709.949 1.969.23 2.808-.4.469-.959.709-1.529.709-.449 0-.908-.16-1.288-.48zm6.234-7.792a1.984 1.984 0 0 1-.519-2.777 1.99 1.99 0 0 1 2.776-.509 2 2 0 0 1 .52 2.777v-.01a2 2 0 0 1-1.658.869 1.918 1.918 0 0 1-1.119-.35zm5.374-8.381a1.996 1.996 0 0 1-.809-2.707 1.995 1.995 0 0 1 2.707-.819 2.005 2.005 0 0 1 .809 2.707 1.99 1.99 0 0 1-2.707.819zm4.436-8.921a2 2 0 0 1-1.099-2.607 1.99 1.99 0 0 1 2.598-1.099 2.006 2.006 0 0 1 1.108 2.608v-.01a2.008 2.008 0 0 1-1.858 1.249c-.249 0-.499-.04-.749-.141zM925.775 297.322a1.997 1.997 0 0 1-1.998-1.998 1.997 1.997 0 1 1 3.996.01 1.996 1.996 0 0 1-1.998 1.988zm7.992-2.188a1.995 1.995 0 0 1 1.858-2.128c1.099-.08 2.048.759 2.128 1.858.08 1.098-.759 2.048-1.858 2.128h-.139a1.996 1.996 0 0 1-1.989-1.858zm-18.121 1.809a2.01 2.01 0 0 1-1.838-2.148 1.993 1.993 0 0 1 2.138-1.838v-.01a2.003 2.003 0 0 1 1.848 2.147 2.005 2.005 0 0 1-1.998 1.849h-.15zm28.071-2.698a1.99 1.99 0 0 1 1.698-2.257 1.996 1.996 0 0 1 2.257 1.708 1.994 1.994 0 0 1-1.708 2.248c-.09.02-.18.02-.28.02a1.99 1.99 0 0 1-1.967-1.719zm-38.14 1.598a2.004 2.004 0 0 1-1.689-2.267 2.004 2.004 0 0 1 2.268-1.689 1.99 1.99 0 0 1 1.689 2.257 2 2 0 0 1-1.978 1.719c-.091.001-.191-.01-.29-.02zm48-3.186a1.988 1.988 0 0 1 1.548-2.358 1.996 1.996 0 0 1 2.368 1.538 2.01 2.01 0 0 1-1.548 2.368c-.14.03-.28.04-.419.04-.921 0-1.75-.64-1.949-1.588zm-57.96 1.379a1.994 1.994 0 0 1-1.528-2.377 1.983 1.983 0 0 1 2.377-1.529 1.998 1.998 0 0 1 1.528 2.377 2.015 2.015 0 0 1-1.958 1.569c-.14 0-.279-.011-.419-.04zm67.689-3.627a1.986 1.986 0 0 1 1.389-2.457v-.011a1.998 1.998 0 0 1 2.457 1.389 1.993 1.993 0 0 1-1.378 2.457c-.18.06-.36.08-.539.08a2.004 2.004 0 0 1-1.929-1.458zm-77.509 1.119v-.011a1.993 1.993 0 1 1 1.119-3.826h.01a1.993 1.993 0 0 1 1.349 2.478 1.996 1.996 0 0 1-1.918 1.438c-.18 0-.37-.029-.56-.079zm87.069-4.006a1.989 1.989 0 0 1 1.219-2.547 1.998 1.998 0 0 1 1.329 3.766 1.918 1.918 0 0 1-.659.109c-.83 0-1.599-.509-1.889-1.328zm-96.689.799a1.996 1.996 0 0 1-1.169-2.567 1.993 1.993 0 0 1 2.567-1.179 2.009 2.009 0 0 1 1.179 2.577 2.022 2.022 0 0 1-1.878 1.299c-.229 0-.469-.04-.699-.13zm106.05-4.296a1.995 1.995 0 0 1 1.058-2.627v.01a1.987 1.987 0 0 1 2.617 1.059 1.996 1.996 0 0 1-1.058 2.617c-.26.1-.52.16-.779.16a1.99 1.99 0 0 1-1.838-1.219zm-115.41.37a2 2 0 0 1-.969-2.657 1.997 1.997 0 0 1 2.657-.959c.999.47 1.438 1.658.969 2.648a2 2 0 0 1-1.818 1.159 1.952 1.952 0 0 1-.839-.191zm-9.071-4.835a1.995 1.995 0 1 1 2.178-3.346 1.995 1.995 0 0 1 .579 2.757 1.986 1.986 0 0 1-1.678.909c-.37 0-.749-.1-1.079-.32z"/><circle cx="576.7" cy="929.082" r="15.433"/><circle cx="619.348" cy="929.082" r="15.433"/><circle cx="663.241" cy="929.082" r="15.433"/><path d="M523.042 928.272c0 .158.011.313.012.47.002-.158.027-.313.035-.47h-.047zM717.381 928.272h-.047c.009.157.033.313.035.47.001-.158.012-.313.012-.47z"/><path d="M523.054 928.742c-.001.053-.012.105-.012.159 0 .107.021.213.024.32-.002-.16-.012-.319-.012-.479zM717.369 928.742c-.001.161-.011.319-.012.479.003-.107.024-.213.024-.32 0-.054-.011-.106-.012-.159z"/><path d="M717.334 928.272c-.997-17.821-44.082-32.168-97.122-32.168s-96.125 14.346-97.122 32.168c-.009.157-.033.313-.035.47.001.161.011.319.012.479.512 53.226 43.799 96.22 97.145 96.22 53.347 0 96.634-42.995 97.145-96.22.002-.16.011-.318.012-.479-.002-.158-.027-.313-.035-.47zm-97.123 29.429c-54.375 0-92.71-15.049-93.15-28.565a8.847 8.847 0 0 0-.008-.282l-.001-.028a7.49 7.49 0 0 0 .026-.331c.374-6.679 10.21-13.855 26.313-19.198 17.878-5.931 41.608-9.197 66.819-9.197s48.941 3.266 66.819 9.197c16.103 5.342 25.94 12.519 26.313 19.196.006.111.016.221.026.332l-.001.029-.008.282c-.438 13.517-38.772 28.565-93.148 28.565z"/><path fill="#FFF" d="M616.443 176.187v124.039c4.411-.207 8.91-.321 13.489-.321 53.04 0 96.126 14.346 97.122 32.168.009.157.033.313.035.47-.001.16-.011.319-.012.479-.308 10.802-16.094 20.351-40.222 26.252l24.727 20.427h52.914V176.187H616.443z"/><path d="M532.763 332.072c0 .158.011.313.012.47.002-.158.027-.313.035-.47h-.047zM727.102 332.072h-.047c.009.157.033.313.035.47.001-.157.012-.312.012-.47z"/><path d="M532.775 332.542c-.001.053-.012.105-.012.159 0 .108.021.213.024.32-.001-.16-.011-.318-.012-.479zM727.09 332.542c-.001.16-.011.319-.012.479.003-.107.024-.213.024-.32 0-.053-.011-.106-.012-.159z"/><path d="M727.055 332.072c-.997-17.822-44.082-32.168-97.122-32.168s-96.125 14.346-97.122 32.168c-.009.157-.033.313-.035.47.001.16.011.319.012.479.512 53.226 43.799 96.22 97.145 96.22 53.347 0 96.633-42.994 97.145-96.22.002-.16.011-.319.012-.479-.002-.157-.026-.313-.035-.47zm-3.964.582-.008.282c-.441 13.517-38.775 28.565-93.15 28.565s-92.71-15.049-93.15-28.565a8.847 8.847 0 0 0-.008-.282l-.001-.028c.011-.11.02-.221.026-.331.374-6.679 10.21-13.855 26.313-19.198 17.878-5.931 41.608-9.197 66.819-9.197 25.211 0 48.941 3.266 66.819 9.197 16.103 5.342 25.94 12.519 26.313 19.198.006.11.016.22.026.33l.001.029z"/><path fill="#FFF" d="M764.498 176.187h43.898v203.512h-43.898z"/><path fill="#FFF" d="m826.57 148.176-18.09 28.029h-48.835l18.719-29.003a28.115 28.115 0 0 1 23.622-12.869h17.043c7.108 0 11.396 7.87 7.541 13.843z"/><path fill="#FFD829" d="m634.02 227.715 112.544-37.524-.314 120.518-112.173-28.808z"/><path d="M764.066 176.187h-3.996V379.7h3.996V216.282c1.557 4.639 5.931 7.985 11.095 7.985h21.595c6.467 0 11.71-5.243 11.71-11.71v-36.37h-44.4zM667 278.609c-.316 0-.634-.037-.947-.114l-19.677-4.801a3.994 3.994 0 0 1-3.048-3.933l.129-9.917a3.987 3.987 0 0 1 4.047-3.944 3.997 3.997 0 0 1 3.944 4.048l-.087 6.737 11.81 2.882 1.208-36.282c.073-2.206 1.913-3.908 4.127-3.861a3.996 3.996 0 0 1 3.86 4.127l-1.372 41.196a3.996 3.996 0 0 1-3.994 3.862zM727.817 293.442c-.317 0-.635-.037-.948-.114l-42.983-10.503a3.996 3.996 0 0 1-2.933-4.83 3.992 3.992 0 0 1 4.83-2.933l38.108 9.312.544-39.732-35.267 9.718a3.998 3.998 0 0 1-5.057-3.76l-.528-22.735a3.995 3.995 0 0 1 2.818-3.911l40.239-12.403a3.995 3.995 0 1 1 2.354 7.637l-37.351 11.513.339 14.594 35.46-9.772a3.982 3.982 0 0 1 3.504.691 3.995 3.995 0 0 1 1.553 3.216l-.686 50.071a3.995 3.995 0 0 1-3.996 3.941z"/><circle cx="1297.654" cy="399.429" r="15.433"/><circle cx="1263.245" cy="418.977" r="15.433"/><circle cx="1285.606" cy="364.449" r="15.433"/><circle cx="1314.259" cy="337.741" r="15.433"/><path d="M1166.047 423.935c0 .158.011.313.012.47.002-.158.026-.313.035-.47h-.047zM1360.386 423.935h-.047c.009.157.033.313.035.47.001-.157.012-.312.012-.47zM1166.059 424.406c-.001.053-.012.105-.012.159 0 .108.021.213.024.32-.002-.161-.011-.319-.012-.479zM1360.374 424.406c-.001.16-.01.319-.012.479.003-.107.024-.213.024-.32 0-.054-.011-.106-.012-.159z"/><path d="M1360.339 423.935c-.997-17.822-44.082-32.168-97.122-32.168s-96.125 14.346-97.122 32.168c-.009.157-.033.313-.035.47.001.16.011.319.012.479.512 53.226 43.799 96.22 97.145 96.22s96.633-42.994 97.145-96.22c.002-.16.011-.319.012-.479-.002-.157-.026-.313-.035-.47zm-3.965.583-.008.28c-.436 13.518-38.771 28.567-93.15 28.567s-92.714-15.049-93.15-28.567c-.001-.094-.005-.187-.008-.28l-.001-.028c.01-.111.02-.222.026-.331.374-6.679 10.21-13.855 26.313-19.198 17.878-5.931 41.609-9.197 66.819-9.197 25.211 0 48.941 3.266 66.819 9.197 16.103 5.342 25.94 12.519 26.313 19.198.006.11.016.22.026.33l.001.029z"/><path fill="#FFF" d="m1261.208 153.027 127.273 158.804 115.529-92.592z"/><path fill="#FFF" d="m1226.935 180.458 34.254-27.454 127.276 158.8-34.253 27.455z"/><path fill="#FFF" d="m1357.773 371.946-3.546-32.663 38.014-30.647 3.508 34.115a27.934 27.934 0 0 1-10.317 24.653l-13.212 10.589c-5.51 4.416-13.725.979-14.447-6.047z"/><path d="m1267.78 154.819-6.572-1.792 104.697 129.945c-4.045-5.046-11.414-5.858-16.46-1.814l-16.324 13.099c-5.047 4.044-5.859 11.414-1.814 16.461l22.913 28.589 34.599-27.746 3.118-2.499-124.157-154.243z"/><path fill="#FFD829" d="M1322.345 587.739 1371.227 692l108.288-39.159-39.159 108.288 104.26 48.881-104.26 48.882 39.159 108.288-108.288-39.159-48.882 104.26-48.881-104.26-108.288 39.159 39.159-108.288-104.261-48.882 104.261-48.881-39.159-108.288L1273.464 692z"/><ellipse fill="#FFF" cx="1318.033" cy="837.903" rx="82.765" ry="27.893"/><circle cx="1316.058" cy="757.528" r="15.433"/><path d="M1219.92 818.912c0 .158.011.313.012.47.002-.158.026-.313.035-.47h-.047zM1414.259 818.912h-.047c.009.157.033.313.035.47.001-.157.012-.312.012-.47zM1219.932 819.383c-.001.053-.012.105-.012.159 0 .107.021.213.024.32-.001-.161-.011-.319-.012-.479zM1414.247 819.383c-.001.16-.011.319-.012.479.003-.107.024-.213.024-.32 0-.054-.011-.106-.012-.159zM1273.578 804.29c-8.523 0-15.433 6.91-15.433 15.433s6.909 15.433 15.433 15.433c8.523 0 15.433-6.909 15.433-15.433-.001-8.523-6.91-15.433-15.433-15.433zM1316.226 804.29c-8.523 0-15.433 6.91-15.433 15.433s6.909 15.433 15.433 15.433c8.523 0 15.433-6.909 15.433-15.433 0-8.523-6.91-15.433-15.433-15.433zM1360.119 804.29c-8.523 0-15.433 6.91-15.433 15.433s6.91 15.433 15.433 15.433 15.433-6.909 15.433-15.433c0-8.523-6.91-15.433-15.433-15.433z"/><path d="M1414.212 818.912c-.758-13.547-25.838-25.084-61.121-29.84-.912-7.653-7.414-13.59-15.313-13.59-7.098 0-13.061 4.798-14.862 11.322a288.049 288.049 0 0 0-13.311.036c-1.79-6.543-7.761-11.358-14.871-11.358-7.98 0-14.544 6.057-15.348 13.824-34.386 4.893-58.673 16.277-59.419 29.605-.009.157-.033.313-.035.47.001.16.011.319.012.479.512 53.226 43.799 96.22 97.145 96.22 53.347 0 96.633-42.995 97.145-96.22.002-.16.011-.319.012-.479-.001-.156-.025-.312-.034-.469zm-97.123 29.43c-54.379 0-92.714-15.049-93.15-28.567-.001-.093-.005-.187-.008-.28l-.001-.029c.011-.111.02-.222.026-.331.374-6.679 10.21-13.855 26.313-19.198 8.561-2.84 18.473-5.061 29.238-6.613 1.159 7.376 7.525 13.023 15.226 13.023 8.523 0 15.433-6.909 15.433-15.433 0-.028-.004-.055-.004-.083 2.296-.055 4.602-.092 6.926-.092 1.763 0 3.516.02 5.262.051 0 .042-.006.082-.006.123 0 8.523 6.91 15.433 15.433 15.433 7.784 0 14.204-5.768 15.262-13.26 11.399 1.558 21.875 3.866 30.868 6.85 16.103 5.342 25.94 12.519 26.313 19.198.006.11.016.22.026.33l-.001.029-.008.28c-.433 13.52-38.769 28.569-93.148 28.569zm96.557-25.155z"/><path fill="#FFF" d="m707.442 783.134.337-.211c-.114.071-.242.113-.359.176l.022.035z"/><path d="M704.021 781.911c-5.586 0-13.45-6.333-19.125-15.4-7.412-11.84-8.008-22.944-3.913-25.885.089-.064.172-.132.254-.2.702-.443 1.604-.68 2.634-.68 5.588 0 13.461 6.342 19.145 15.423 6.017 9.61 9.022 22.629 3.758 26.027a4.634 4.634 0 0 0-.301.145c-.701.378-1.525.57-2.452.57z"/><path fill="#FFF" d="M683.87 741.744c5.446 0 13.056 7.463 17.452 14.485 7.041 11.248 7.333 21.138 4.465 23.221-.09.042-.179.087-.267.134-.409.221-.899.328-1.499.328-5.443 0-13.043-7.451-17.432-14.461-3.308-5.284-5.439-10.831-6.001-15.62-.431-3.676.166-6.582 1.558-7.582.08-.058.158-.118.239-.183.406-.216.893-.322 1.485-.322m0-3.996c-1.383 0-2.646.326-3.739 1.009-.114.071-.207.168-.315.246-5.551 3.988-4.103 16.606 3.386 28.569 6.227 9.948 14.688 16.337 20.819 16.337 1.241 0 2.387-.262 3.4-.809.117-.063.245-.105.359-.176 5.939-3.718 4.564-16.618-3.07-28.814-6.232-9.954-14.706-16.362-20.84-16.362z"/><path fill="#FFF" d="M870.379 624.414c-7.943-12.689-24.696-16.49-37.338-8.472l-101.476 64.365a46.075 46.075 0 0 0-18.947 25.118l-4.929 16.055-27.906 17.469.034.054c.108-.078.201-.175.315-.246 5.939-3.718 16.943 3.155 24.577 15.351 7.635 12.196 9.009 25.097 3.07 28.815l27.681-17.328 16.422 2.554a46.074 46.074 0 0 0 30.872-6.069l102.353-62.815c12.786-7.847 16.721-24.613 8.761-37.329l-23.489-37.522zM585.656 885.285a2.496 2.496 0 0 1-2.476-2.201c-.11-.924-2.596-22.917 6.024-48.66 7.979-23.828 27.395-55.285 74.574-69.833a2.497 2.497 0 1 1 1.472 4.773c-36.181 11.156-60.152 33.519-71.249 66.464-8.321 24.707-5.888 46.45-5.863 46.667a2.497 2.497 0 0 1-2.482 2.79zM650.588 885.286a2.498 2.498 0 0 1-2.475-2.185c-6.845-54.33 31.15-92.074 34.009-93.144 1.085-.408 2.344-.013 2.989.948 1.138 1.696-.231 3.172-.68 3.657a2.495 2.495 0 0 1-1.073.682c-2.801 2.654-10.854 11.303-18.062 24.658-7.438 13.782-15.597 35.825-12.227 62.574a2.498 2.498 0 0 1-2.481 2.81z"/><path fill="#FFF" d="M618.123 883.913a2.498 2.498 0 0 1-2.491-2.349c-2.174-36.484 12.824-62.69 25.788-78.249 14.028-16.836 28.397-24.96 29.002-25.298a2.497 2.497 0 0 1 2.436 4.36c-.141.08-14.285 8.102-27.723 24.282-12.328 14.846-26.589 39.839-24.517 74.608a2.498 2.498 0 0 1-2.495 2.646z"/><path fill="#FFD829" d="M770.679 757.666a1.998 1.998 0 0 1-1.947-1.56c-4.625-20.578-13.725-35.187-20.546-43.82-7.404-9.371-13.801-13.927-13.864-13.972a1.997 1.997 0 0 1 2.297-3.269c1.09.765 26.803 19.205 36.011 60.184a1.998 1.998 0 0 1-1.951 2.437zM733.483 758.123c-.969 0-1.82-.706-1.972-1.695-2.57-16.706-14.43-25.098-14.55-25.181a2 2 0 0 1-.508-2.778 1.996 1.996 0 0 1 2.774-.513c.546.375 13.391 9.39 16.233 27.866a1.997 1.997 0 0 1-1.977 2.301z"/><path fill="#FFF" d="m1387.259 692.049-101.991 3.215c-4.118-9.531-15.582-16.392-29.091-16.392-16.97 0-30.727 10.822-30.727 24.172 0 13.35 13.757 24.172 30.727 24.172 13.509 0 24.973-6.861 29.091-16.392l101.991 3.215c6.072 0 10.995-4.923 10.995-10.995 0-6.073-4.923-10.995-10.995-10.995z"/><path fill="#FFD829" d="m94.254 754.582 262.031-305.761c34.76-42.099 89.663-41.385 131.751-6.612 42.095 34.779 45.382 100.224 10.637 142.33l-251.29 295.116s70.402 34.615 78.636 199.296"/><path d="M326.018 1079.946a1.996 1.996 0 0 1-1.994-1.896c-2.329-46.572-11.486-110.242-41.887-158.6-18.134-28.846-35.486-37.926-35.659-38.014a2.001 2.001 0 0 1-.616-3.077l251.289-295.115c34.809-42.184 30.061-106.075-10.388-139.494-20.441-16.889-44.341-25.78-67.287-25.065-23.993.759-45.311 11.62-61.65 31.409L95.771 755.883a1.999 1.999 0 0 1-3.034-2.6l262.031-305.761c17.068-20.672 39.408-32.034 64.581-32.83 23.921-.751 48.769 8.471 69.959 25.978 42.118 34.798 47.112 101.265 10.905 145.142l-249.761 293.32c5.345 3.36 19.726 13.906 34.85 37.846 31.027 49.11 40.352 113.68 42.712 160.873a1.997 1.997 0 0 1-1.896 2.094c-.033.003-.067.001-.1.001z"/><ellipse transform="rotate(-50.007 382.315 566.334)" fill="#FFF" cx="382.279" cy="566.3" rx="21.78" ry="49.862"/><path d="M412.205 601.29c-16.257 0-32.376-5.357-45.529-16.39-30.728-25.776-33.781-72.909-6.805-105.069 13.054-15.562 31.116-25.345 50.858-27.545 19.787-2.202 38.891 3.466 53.793 15.967 14.903 12.5 23.81 30.327 25.081 50.195 1.268 19.824-5.222 39.313-18.276 54.874-15.429 18.394-37.397 27.968-59.122 27.968zm6.849-144.474c-2.572 0-5.165.143-7.771.434-18.46 2.056-35.36 11.216-47.584 25.79-25.206 30.05-22.431 74.027 6.187 98.034 12.217 10.247 27.205 15.224 42.325 15.225 20.3.002 40.844-8.965 55.29-26.187 12.225-14.574 18.304-32.809 17.118-51.346-1.183-18.492-9.46-35.073-23.306-46.688-11.886-9.97-26.663-15.262-42.259-15.262z"/><path fill="#FFF" d="m1675.557 719.883.092 87.031 180.167 46.27.505-193.571-180.764 60.27zm60.256 75.568a7.295 7.295 0 0 1-2.879 5.565 7.297 7.297 0 0 1-6.134 1.274l-31.603-7.712a7.288 7.288 0 0 1-5.559-7.176l.206-15.927a7.288 7.288 0 1 1 14.575.189l-.13 10.126 17.254 4.211 1.904-57.204a7.29 7.29 0 0 1 7.527-7.043 7.289 7.289 0 0 1 7.043 7.527l-2.204 66.17zm97.684 23.681a7.29 7.29 0 0 1-7.288 7.189 7.271 7.271 0 0 1-1.73-.209l-69.037-16.869a7.287 7.287 0 0 1-5.35-8.81 7.283 7.283 0 0 1 8.809-5.35l60.145 14.696.844-61.562-55.526 15.3a7.29 7.29 0 0 1-6.285-1.177 7.29 7.29 0 0 1-2.937-5.68l-.849-36.516a7.288 7.288 0 0 1 5.139-7.135l64.631-19.922a7.285 7.285 0 0 1 9.112 4.818 7.288 7.288 0 0 1-4.818 9.112l-59.364 18.299.504 21.666 55.878-15.397a7.286 7.286 0 0 1 9.224 7.126l-1.102 80.421z"/><path d="M985.024 265.874c-.539 0-1.039-.21-1.418-.589-.09-.09-.17-.19-.25-.299-.07-.11-.13-.219-.18-.339a1.624 1.624 0 0 1-.11-.37c-.03-.13-.04-.259-.04-.4 0-.13.01-.259.04-.389.02-.13.06-.25.11-.37s.109-.24.18-.349c.08-.11.16-.21.25-.3.099-.09.2-.18.309-.25.11-.069.22-.14.34-.189.119-.05.25-.08.38-.11a2.002 2.002 0 0 1 2.387 1.958c0 .539-.21 1.039-.589 1.409-.38.378-.88.587-1.409.587zM1007.22 266.633a1.993 1.993 0 0 1-1.928-2.067c.03-1.099.959-1.958 2.057-1.929a2 2 0 0 1 1.929 2.068 1.994 1.994 0 0 1-1.988 1.928h-.07zm-11.137-.379a2 2 0 0 1-1.929-2.067 2.014 2.014 0 0 1 2.068-1.929c1.098.04 1.968.97 1.928 2.068a1.996 1.996 0 0 1-1.998 1.928h-.069zM1018.419 267.014c-.539 0-1.039-.2-1.418-.579-.09-.1-.17-.2-.25-.31a2.15 2.15 0 0 1-.179-.339c-.05-.12-.09-.25-.11-.37a2.017 2.017 0 0 1 .539-1.808c.1-.09.2-.18.31-.25a2.156 2.156 0 0 1 .719-.299c.65-.131 1.338.09 1.798.549.09.09.18.189.25.299.07.11.13.229.18.349.051.12.091.24.12.37.03.13.04.26.04.39 0 .139-.01.269-.04.399-.029.12-.06.25-.109.37-.05.12-.12.23-.19.339-.07.11-.16.21-.25.31a1.96 1.96 0 0 1-1.41.58zM1006.831 286.374a1.99 1.99 0 0 1-.799-2.707 1.99 1.99 0 0 1 2.707-.8 1.993 1.993 0 0 1 .799 2.707 1.994 1.994 0 0 1-1.758 1.05 1.947 1.947 0 0 1-.949-.25zm5.315-9.801a1.99 1.99 0 0 1-.8-2.707 1.99 1.99 0 0 1 2.707-.799 1.99 1.99 0 0 1 .8 2.707 1.997 1.997 0 0 1-1.759 1.049c-.319 0-.649-.08-.948-.25zM1002.466 296.423c-.259 0-.519-.05-.759-.149-.24-.1-.459-.25-.65-.44-.09-.09-.18-.19-.25-.299-.069-.11-.14-.22-.189-.339-.051-.12-.08-.25-.11-.38-.02-.13-.04-.259-.04-.389s.021-.259.04-.389a2.211 2.211 0 0 1 .3-.719c.07-.109.16-.21.25-.299a1.974 1.974 0 0 1 1.798-.549c.131.02.26.06.38.11.119.05.239.109.339.189.109.07.22.15.309.25.09.09.17.19.25.299.07.11.13.22.18.34.051.12.091.25.11.379.03.13.04.259.04.389s-.01.259-.03.389a2.184 2.184 0 0 1-.3.719c-.08.109-.16.21-.25.299a1.987 1.987 0 0 1-1.418.589zM641.342 655.859a1.99 1.99 0 0 1-.759-.16c-.24-.1-.459-.24-.65-.43a2.018 2.018 0 0 1 0-2.827c.749-.749 2.088-.738 2.827 0 .09.091.17.19.25.3.07.109.13.229.18.349s.09.25.12.37c.02.13.04.259.04.389 0 .539-.21 1.039-.59 1.418a1.981 1.981 0 0 1-1.418.591zM653.169 677.575a1.999 1.999 0 0 1 .699-2.736 1.99 1.99 0 0 1 2.737.689 1.989 1.989 0 0 1-.69 2.737 2.02 2.02 0 0 1-1.019.28c-.688 0-1.347-.34-1.727-.97zm-4.505-7.561a2.002 2.002 0 0 1 .689-2.747 2 2 0 0 1 2.737.698 1.99 1.99 0 0 1-.69 2.737c-.32.19-.679.28-1.029.28a1.986 1.986 0 0 1-1.707-.968zm-4.515-7.572a1.99 1.99 0 0 1 .689-2.737 1.987 1.987 0 0 1 2.737.69c.569.948.26 2.177-.689 2.747a1.996 1.996 0 0 1-2.737-.7zM659.413 686.117c-.27 0-.529-.051-.769-.15a2.002 2.002 0 0 1-.649-.44 2.036 2.036 0 0 1-.589-1.408c0-.131.02-.26.04-.39.03-.13.07-.25.12-.38.05-.12.11-.229.179-.339.07-.11.16-.21.25-.299a1.99 1.99 0 0 1 1.798-.55c.13.02.259.06.379.11s.24.11.339.19c.11.069.22.149.31.25.09.09.17.189.25.299.07.11.13.22.18.339.05.13.09.25.11.38a2.03 2.03 0 0 1-.11 1.159c-.1.24-.24.45-.43.639-.379.38-.879.59-1.408.59zM663.089 678.375a2.002 2.002 0 0 1-.609-2.758 2.013 2.013 0 0 1 2.767-.609 2 2 0 0 1 .599 2.767 1.997 1.997 0 0 1-1.678.919c-.37 0-.749-.109-1.079-.319zm4.755-7.432a1.988 1.988 0 0 1-.599-2.757 1.99 1.99 0 0 1 2.757-.6 2.001 2.001 0 0 1 .61 2.758 2.003 2.003 0 0 1-1.689.919c-.369 0-.739-.101-1.079-.32zm4.765-7.422a2.003 2.003 0 0 1-.61-2.758 2.004 2.004 0 0 1 2.757-.609 1.993 1.993 0 0 1 .609 2.767 2.014 2.014 0 0 1-1.688.919c-.369 0-.738-.11-1.068-.319zM678.443 656.408c-.13 0-.26-.01-.39-.04-.13-.021-.25-.06-.37-.11s-.24-.109-.349-.18a1.81 1.81 0 0 1-.3-.25c-.19-.19-.339-.41-.439-.65a1.989 1.989 0 0 1-.11-1.159c.03-.13.06-.25.11-.369.05-.12.12-.24.19-.35.07-.11.16-.21.25-.299.09-.09.19-.179.3-.25a2.351 2.351 0 0 1 .719-.3c.26-.05.53-.05.779 0a2.2 2.2 0 0 1 .718.3c.109.071.21.16.31.25a2.012 2.012 0 0 1 0 2.827c-.19.189-.41.33-.649.429-.24.101-.499.151-.769.151zM759.618 959.213a1.991 1.991 0 0 1-1.968-2.028 1.99 1.99 0 0 1 2.018-1.968 1.997 1.997 0 0 1 1.978 2.017 2.008 2.008 0 0 1-2.008 1.978l-.02.001zm8.062-2.238a1.987 1.987 0 0 1 1.848-2.137 1.994 1.994 0 0 1 2.138 1.848 1.992 1.992 0 0 1-1.848 2.128c-.05.01-.09.01-.14.01a2.005 2.005 0 0 1-1.998-1.849zm9.98-.889a2.002 2.002 0 0 1 1.728-2.238 2.001 2.001 0 0 1 2.238 1.738 1.991 1.991 0 0 1-1.738 2.227c-.08.01-.159.021-.25.021a2 2 0 0 1-1.978-1.748zm9.909-1.389a2.004 2.004 0 0 1 1.629-2.318 1.994 1.994 0 0 1 2.307 1.629 1.991 1.991 0 0 1-1.618 2.307 2 2 0 0 1-2.318-1.618zm9.84-1.868a1.986 1.986 0 0 1 1.509-2.387 1.993 1.993 0 0 1 2.387 1.508 2.002 2.002 0 0 1-1.508 2.388 1.995 1.995 0 0 1-2.388-1.509zm9.73-2.338a1.996 1.996 0 0 1 3.845-1.069 2.004 2.004 0 0 1-1.388 2.468c-.18.05-.36.069-.539.069a1.99 1.99 0 0 1-1.918-1.468zm9.6-2.806a1.993 1.993 0 0 1 1.258-2.528 2 2 0 0 1 2.528 1.268 1.998 1.998 0 0 1-1.269 2.528v-.01c-.21.07-.419.11-.629.11a1.978 1.978 0 0 1-1.888-1.368zm9.44-3.298a2 2 0 0 1 1.129-2.597c1.019-.4 2.188.11 2.587 1.129.4 1.029-.1 2.198-1.129 2.598-.24.09-.49.14-.729.14-.799 0-1.558-.49-1.858-1.27zm9.241-3.805a1.995 1.995 0 0 1 .989-2.648 1.998 1.998 0 0 1 2.647.979 2.012 2.012 0 0 1-.989 2.657c-.27.12-.55.179-.829.179a1.989 1.989 0 0 1-1.818-1.167zm9.01-4.316a1.992 1.992 0 0 1 .829-2.696 1.998 1.998 0 0 1 2.707.828c.51.97.14 2.178-.829 2.697-.3.16-.619.23-.939.23a1.987 1.987 0 0 1-1.768-1.059zm8.741-4.845a1.984 1.984 0 0 1 .659-2.737 1.994 1.994 0 1 1 2.088 3.397v.01a2.006 2.006 0 0 1-2.747-.67zm8.421-5.374a1.989 1.989 0 0 1 .479-2.777 2.002 2.002 0 0 1 2.787.48 2.003 2.003 0 0 1-.479 2.787c-.35.239-.759.359-1.149.359-.629 0-1.248-.29-1.638-.849zm8.042-5.904a2.01 2.01 0 0 1 .299-2.817 1.998 1.998 0 0 1 2.807.3 1.988 1.988 0 0 1-.29 2.807 2.01 2.01 0 0 1-1.259.45c-.578 0-1.157-.25-1.557-.74zm7.632-6.434a2.002 2.002 0 0 1 .11-2.826 2.002 2.002 0 0 1 2.827.1 2.004 2.004 0 0 1-.11 2.827c-.38.359-.869.53-1.358.53-.54 0-1.07-.21-1.469-.631zm7.173-6.952a1.99 1.99 0 0 1-.1-2.816 2.003 2.003 0 0 1 2.827-.101c.809.76.849 2.018.09 2.827a1.975 1.975 0 0 1-1.458.629c-.49 0-.98-.179-1.359-.539zm6.653-7.432a1.998 1.998 0 0 1-.29-2.808 1.99 1.99 0 0 1 2.807-.29c.859.69.989 1.948.299 2.808-.399.49-.979.74-1.558.74a1.95 1.95 0 0 1-1.258-.45zm6.123-7.872a1.993 1.993 0 0 1-.49-2.787 1.99 1.99 0 0 1 2.777-.49 1.99 1.99 0 0 1 .489 2.787 2.01 2.01 0 0 1-1.638.849c-.388 0-.788-.12-1.138-.359zm5.544-8.291a1.998 1.998 0 0 1-.679-2.737 2.003 2.003 0 0 1 2.747-.69 2.007 2.007 0 0 1 .679 2.747 2.018 2.018 0 0 1-1.718.969c-.349 0-.699-.09-1.029-.289zm4.975-8.651a2.003 2.003 0 0 1-.869-2.688 2.001 2.001 0 0 1 2.697-.859 1.99 1.99 0 0 1 .859 2.688 1.989 1.989 0 0 1-1.778 1.089 1.875 1.875 0 0 1-.909-.23zm4.386-8.951a2.002 2.002 0 0 1-1.039-2.627v-.011a1.996 1.996 0 0 1 2.627-1.028 1.993 1.993 0 0 1 1.039 2.627 1.999 1.999 0 0 1-1.828 1.198c-.27 0-.54-.049-.799-.159zm3.806-9.221a1.997 1.997 0 0 1-1.199-2.557 2.005 2.005 0 0 1 2.568-1.199 2 2 0 0 1 1.189 2.557 1.984 1.984 0 0 1-1.878 1.319 1.98 1.98 0 0 1-.68-.12zm3.246-9.429a2.009 2.009 0 0 1-1.349-2.488 1.995 1.995 0 0 1 2.488-1.339 2.007 2.007 0 0 1 1.348 2.487 2.016 2.016 0 0 1-1.918 1.418 1.865 1.865 0 0 1-.569-.078zm2.697-9.61a1.995 1.995 0 0 1-1.468-2.408 2.01 2.01 0 0 1 2.408-1.479 2.008 2.008 0 0 1 1.478 2.417 2.006 2.006 0 0 1-1.948 1.529c-.15 0-.31-.019-.47-.059zm2.198-9.74a2 2 0 0 1-1.518-2.388 2.009 2.009 0 0 1 2.388-1.518 2.007 2.007 0 0 1 1.518 2.387 2.014 2.014 0 0 1-1.958 1.569c-.14 0-.28-.021-.43-.05zm2.238-9.73a1.996 1.996 0 0 1-1.458-2.417 1.997 1.997 0 0 1 2.427-1.458 1.99 1.99 0 0 1 1.449 2.417h.01a2.013 2.013 0 0 1-1.948 1.518c-.16-.001-.32-.02-.48-.06zm2.487-9.66a2.002 2.002 0 0 1-1.378-2.467 1.997 1.997 0 0 1 2.457-1.389 2.013 2.013 0 0 1 1.389 2.467 2.005 2.005 0 0 1-1.928 1.459c-.18 0-.36-.02-.54-.07zm2.778-9.591a2.003 2.003 0 0 1-1.319-2.507 2.002 2.002 0 0 1 2.508-1.308 1.992 1.992 0 0 1 1.309 2.497 2.006 2.006 0 0 1-1.908 1.409c-.201 0-.401-.03-.59-.091zm3.056-9.5a2.012 2.012 0 0 1-1.229-2.547 1.987 1.987 0 0 1 2.548-1.229 1.996 1.996 0 0 1 1.229 2.537 2.002 2.002 0 0 1-1.888 1.349c-.22.001-.44-.039-.66-.11zm3.377-9.4a1.992 1.992 0 0 1-1.139-2.577 1.994 1.994 0 0 1 2.587-1.148 1.999 1.999 0 0 1 1.139 2.587 2.006 2.006 0 0 1-1.868 1.279c-.24 0-.48-.04-.719-.141zm3.716-9.26a1.998 1.998 0 0 1 1.589-3.666 1.997 1.997 0 0 1 1.038 2.627 2 2 0 0 1-1.838 1.199c-.26 0-.529-.05-.789-.16zm4.076-9.11a1.998 1.998 0 0 1-.939-2.667 2.01 2.01 0 0 1 2.677-.929 2 2 0 0 1 .929 2.667 2.016 2.016 0 0 1-1.808 1.129c-.29 0-.579-.061-.859-.2zm4.455-8.932a1.994 1.994 0 0 1-.809-2.707 2.002 2.002 0 0 1 2.707-.809 2.005 2.005 0 0 1 .809 2.707 1.994 1.994 0 0 1-1.758 1.049c-.32 0-.649-.08-.949-.24zm4.865-8.71a1.998 1.998 0 0 1-.679-2.747v.01a1.982 1.982 0 0 1 2.737-.679 1.981 1.981 0 0 1 .679 2.737v.01a1.979 1.979 0 0 1-1.708.959c-.35-.001-.71-.09-1.029-.29zm5.295-8.461a1.985 1.985 0 0 1-.53-2.768 1.986 1.986 0 0 1 2.767-.539 1.999 1.999 0 0 1 .539 2.777 2.005 2.005 0 0 1-1.657.879c-.391 0-.78-.109-1.119-.349zm5.744-8.152a2.005 2.005 0 0 1-.37-2.807 2 2 0 0 1 2.797-.37 2.005 2.005 0 0 1 .37 2.807v-.01c-.39.519-.989.789-1.588.789-.42.001-.85-.129-1.209-.409zm6.213-7.812a1.994 1.994 0 0 1-.2-2.816 2.005 2.005 0 0 1 2.817-.2c.839.729.929 1.988.2 2.817-.4.459-.949.689-1.509.689-.469 0-.929-.16-1.308-.49zm6.693-7.392a2.003 2.003 0 0 1-.011-2.827 1.993 1.993 0 0 1 2.827-.01c.779.778.789 2.038.011 2.827-.39.389-.909.589-1.418.589a2.016 2.016 0 0 1-1.409-.579zm7.182-6.933a1.993 1.993 0 0 1 .19-2.816 1.993 1.993 0 0 1 2.817.189 1.995 1.995 0 0 1-.19 2.817c-.379.33-.849.49-1.308.49-.56 0-1.119-.23-1.509-.68zm136.158-4.665h-.01a2.012 2.012 0 0 1-.09-2.827 2.003 2.003 0 0 1 2.827-.09 1.99 1.99 0 0 1 .09 2.817 1.985 1.985 0 0 1-1.458.639 1.966 1.966 0 0 1-1.359-.539zm-128.496-1.728a2.005 2.005 0 0 1 .4-2.798 1.986 1.986 0 0 1 2.797.4c.659.879.48 2.128-.399 2.797a1.998 1.998 0 0 1-2.798-.399zm120.975-4.455a1.99 1.99 0 0 1-.45-2.787 1.996 1.996 0 1 1 3.237 2.337c-.39.539-.999.829-1.619.829-.409 0-.819-.129-1.168-.379zm-112.853-1.349a2.003 2.003 0 0 1 .619-2.757 2.002 2.002 0 0 1 2.758.619 2.002 2.002 0 0 1-.619 2.757c-.33.21-.699.309-1.069.309a1.995 1.995 0 0 1-1.689-.928zm104.631-3.946a1.996 1.996 0 0 1-.74-2.727 1.996 1.996 0 0 1 2.728-.739 1.996 1.996 0 0 1 .739 2.728 2 2 0 0 1-1.738.999 2.017 2.017 0 0 1-.989-.261zm-96.07-1.188a2.008 2.008 0 0 1 .839-2.697h.011a2.002 2.002 0 0 1 2.696.839 2 2 0 0 1-.849 2.697 1.9 1.9 0 0 1-.919.229 2.013 2.013 0 0 1-1.778-1.068zm87.339-3.277a2 2 0 0 1 1.659-3.636 1.998 1.998 0 0 1-.829 3.816c-.28-.001-.56-.06-.83-.18zm-78.379-1.139a1.992 1.992 0 0 1 1.059-2.617 1.993 1.993 0 0 1 2.617 1.058 1.992 1.992 0 0 1-1.059 2.617 1.994 1.994 0 0 1-2.617-1.058zm9.292-3.656a2.002 2.002 0 0 1 1.289-2.518 2.002 2.002 0 0 1 2.517 1.289 1.997 1.997 0 0 1-1.279 2.518c-.21.06-.419.099-.62.099a2.005 2.005 0 0 1-1.907-1.388zm59.977 1.119a2.004 2.004 0 0 1-1.209-2.558 1.992 1.992 0 0 1 2.547-1.209 2.01 2.01 0 0 1 1.219 2.558 2.02 2.02 0 0 1-1.888 1.329c-.22 0-.449-.04-.669-.12zm-50.398-3.956a2.003 2.003 0 0 1 1.498-2.398 1.995 1.995 0 1 1 .898 3.886c-.149.04-.299.06-.449.06a2.012 2.012 0 0 1-1.947-1.548zm41.007 1.028a2.004 2.004 0 0 1-1.418-2.447 1.992 1.992 0 0 1 2.448-1.409v-.01a2.015 2.015 0 0 1 1.418 2.457 2.006 2.006 0 0 1-1.938 1.478c-.17.001-.34-.018-.51-.069zm-31.207-3.026a1.995 1.995 0 0 1 1.708-2.248 1.993 1.993 0 0 1 2.248 1.708 1.994 1.994 0 0 1-1.708 2.248c-.09.01-.179.02-.269.02a2 2 0 0 1-1.979-1.728zm21.737 1.019a1.99 1.99 0 0 1-1.798-2.177 1.99 1.99 0 0 1 2.178-1.798 2.002 2.002 0 0 1 1.798 2.177 1.995 1.995 0 0 1-1.988 1.808c-.059-.001-.13-.001-.19-.01zm-11.798-2.108a2.012 2.012 0 0 1 1.918-2.078v.01a1.985 1.985 0 0 1 2.078 1.908 1.993 1.993 0 0 1-1.918 2.078h-.08a2.01 2.01 0 0 1-1.998-1.918zM1113.729 714.178c-.539 0-1.039-.21-1.418-.589-.179-.19-.33-.41-.429-.65a1.98 1.98 0 0 1-.11-1.159c.021-.12.06-.25.11-.37s.109-.24.189-.34c.07-.11.15-.219.24-.309.099-.091.2-.17.31-.25.109-.07.219-.131.339-.18s.25-.09.379-.109a1.984 1.984 0 0 1 1.798.539 1.987 1.987 0 0 1 0 2.827c-.09.09-.19.18-.299.25-.11.069-.23.14-.35.18-.119.05-.239.09-.369.12-.13.019-.26.04-.39.04zM1135.098 718.763a1.995 1.995 0 0 1-1.538-2.368 2.004 2.004 0 0 1 2.377-1.538 1.982 1.982 0 0 1 1.528 2.368 1.993 1.993 0 0 1-1.947 1.588c-.141 0-.281-.02-.42-.05zm-10.889-2.318a1.995 1.995 0 0 1-1.538-2.368 1.996 1.996 0 1 1 3.906.83 2.005 2.005 0 0 1-1.958 1.588c-.13 0-.271-.02-.41-.05zM1146.415 721.131c-.13 0-.269-.021-.399-.04-.12-.03-.25-.07-.37-.12-.12-.04-.24-.11-.339-.18-.11-.07-.21-.16-.31-.25-.09-.091-.17-.2-.25-.3a2.387 2.387 0 0 1-.299-.719c-.02-.13-.04-.259-.04-.389 0-.53.22-1.049.589-1.418.749-.739 2.078-.739 2.827 0 .37.38.589.889.589 1.418 0 .13-.02.259-.04.389a2.262 2.262 0 0 1-.3.719c-.069.1-.16.21-.25.3s-.2.18-.299.25c-.11.069-.229.14-.349.18-.12.05-.24.09-.37.12-.129.019-.259.04-.39.04zM1141.681 708.833a2.01 2.01 0 0 1 1.438-2.437 2.01 2.01 0 0 1 2.438 1.438 1.996 1.996 0 0 1-1.439 2.428c-.17.05-.339.069-.5.069a2.011 2.011 0 0 1-1.937-1.498zm-2.787-10.798a1.98 1.98 0 0 1 1.428-2.427 1.996 1.996 0 0 1 2.438 1.428 2.002 2.002 0 0 1-1.439 2.437c-.16.04-.33.06-.5.06a1.98 1.98 0 0 1-1.927-1.498zM1138.034 688.744c-.14 0-.269-.02-.4-.04a2.211 2.211 0 0 1-.709-.3 1.959 1.959 0 0 1-.738-.899c-.101-.24-.16-.5-.16-.759 0-.13.02-.27.04-.39a2.252 2.252 0 0 1 .299-.719c.08-.11.16-.21.25-.309.099-.091.2-.171.309-.25a2.127 2.127 0 0 1 .72-.3c.25-.05.519-.05.778 0 .12.03.25.07.37.12s.24.11.35.18c.109.079.21.159.3.25.09.099.179.199.25.309.07.11.13.22.179.34.05.12.09.25.12.379.021.12.03.26.03.39 0 .259-.05.519-.15.759-.099.24-.24.459-.429.649-.38.381-.879.59-1.409.59z"/><circle cx="1464.914" cy="668.987" r="39.096"/><path fill="#FFD829" d="M1476.348 675.585c0 .778-.535 1.312-1.604 1.312h-4.032v4.761c0 1.166-.631 1.797-1.554 1.797-.875 0-1.457-.631-1.457-1.797v-4.761h-14.817c-.923 0-1.506-.681-1.506-1.458 0-.632.292-1.02.729-1.555l15.594-18.606c.535-.631.923-.923 1.506-.923.825 0 1.505.388 1.505 1.554v18.364h4.032c1.069.001 1.604.535 1.604 1.312zm-21.23-1.311h12.728v-15.012l-12.728 15.012z"/></svg>