<svg xmlns="http://www.w3.org/2000/svg" viewBox="0 0 1080 1080" xml:space="preserve"><path fill="#FFD829" d="m1.993 906.274.447-345.335a179.036 179.036 0 0 1 36.683-108.294l167.446-181.381.525 634.076-205.101.934z"/><path d="M1.993 908.267H1.99A1.993 1.993 0 0 1 0 906.271l.448-345.335c.062-39.335 13.235-78.223 37.092-109.5.037-.05.078-.097.12-.143l167.446-181.381a1.994 1.994 0 0 1 2.929 2.703L40.651 453.927C17.356 484.503 4.494 522.503 4.433 560.942l-.448 345.335a1.992 1.992 0 0 1-1.992 1.99zM997.471 127.379c0-1.106.886-2.002 1.993-2.002a1.993 1.993 0 1 1 0 3.986 1.979 1.979 0 0 1-1.993-1.984zm-8.18 1.126a1.988 1.988 0 0 1-1.624-2.301 1.988 1.988 0 0 1 2.301-1.624 1.988 1.988 0 0 1 1.625 2.301 1.997 1.997 0 0 1-1.963 1.654c-.109 0-.219-.01-.339-.03zm18.044-1.644a1.98 1.98 0 0 1 1.614-2.302 1.991 1.991 0 0 1 2.311 1.614 1.999 1.999 0 0 1-1.624 2.312 1.991 1.991 0 0 1-2.301-1.624zm-27.918-.957a1.996 1.996 0 0 1-1.205-2.55 2.001 2.001 0 0 1 2.551-1.205 2.001 2.001 0 0 1 1.206 2.55 2.01 2.01 0 0 1-1.884 1.325c-.219 0-.448-.04-.668-.12zm37.542-1.245a1.976 1.976 0 0 1 1.195-2.54 1.989 1.989 0 0 1 2.551 1.196 2.004 2.004 0 0 1-1.196 2.551c-.23.079-.458.119-.677.119a1.99 1.99 0 0 1-1.873-1.326zm-46.817-3.028h-.01a1.991 1.991 0 0 1-.737-2.72 2.002 2.002 0 0 1 2.719-.747 2.008 2.008 0 0 1 .737 2.73 1.995 1.995 0 0 1-1.734.996 1.94 1.94 0 0 1-.975-.259zm55.903-.798a2.001 2.001 0 0 1 .747-2.719 1.992 1.992 0 0 1 2.72.738 2.007 2.007 0 0 1-.738 2.719h-.01c-.308.179-.648.27-.987.27a1.996 1.996 0 0 1-1.732-1.008zm-64.312-5.011a1.992 1.992 0 0 1-.269-2.8 2.004 2.004 0 0 1 2.809-.269c.847.697.967 1.953.27 2.809a2.019 2.019 0 0 1-1.534.718c-.449 0-.898-.149-1.276-.458zm72.622-.329a1.993 1.993 0 0 1 .259-2.81 2.002 2.002 0 0 1 2.81.259 2.012 2.012 0 0 1-.26 2.81 2.011 2.011 0 0 1-1.275.458 1.99 1.99 0 0 1-1.534-.717zm-79.905-6.825a1.99 1.99 0 0 1 .219-2.809 1.99 1.99 0 0 1 2.81.219 1.99 1.99 0 0 1-.22 2.81 1.99 1.99 0 0 1-1.295.478 2.01 2.01 0 0 1-1.514-.698zm87.168.14a1.99 1.99 0 0 1-.22-2.81 1.99 1.99 0 1 1 3.029 2.58 1.974 1.974 0 0 1-1.514.698c-.459 0-.917-.15-1.295-.468zm-93.115-8.439a1.987 1.987 0 0 1 .697-2.729 1.994 1.994 0 0 1 2.73.697 1.994 1.994 0 0 1-.698 2.73 1.986 1.986 0 0 1-2.729-.698zm99.132.608a2 2 0 0 1-.708-2.73 2 2 0 0 1 2.73-.707 1.998 1.998 0 0 1 .707 2.73 2.012 2.012 0 0 1-1.723.987 2.09 2.09 0 0 1-1.006-.28zm-103.566-9.804a1.997 1.997 0 0 1 1.156-2.571 1.994 1.994 0 0 1 1.415 3.727 1.93 1.93 0 0 1-.707.129 1.983 1.983 0 0 1-1.864-1.285zm108.149 1.046a1.983 1.983 0 0 1-1.166-2.561 1.991 1.991 0 0 1 2.571-1.166 1.995 1.995 0 0 1 1.156 2.571 1.986 1.986 0 0 1-1.863 1.285 1.853 1.853 0 0 1-.698-.129zm-110.929-10.87a1.995 1.995 0 0 1 1.594-2.331 1.978 1.978 0 0 1 2.322 1.584 1.991 1.991 0 0 1-1.584 2.331c-.12.02-.249.03-.369.03a2.01 2.01 0 0 1-1.963-1.614zm113.918 1.465a1.993 1.993 0 0 1-1.584-2.331 1.984 1.984 0 0 1 2.322-1.584 1.995 1.995 0 0 1 1.594 2.331 1.992 1.992 0 0 1-1.953 1.614c-.13 0-.25-.01-.379-.03zM940.253 71.187v.011a1.992 1.992 0 1 1 3.985-.071 1.994 1.994 0 0 1-1.962 2.023h-.03a1.992 1.992 0 0 1-1.993-1.963zm116.279 1.844a1.99 1.99 0 0 1-1.962-2.023 1.985 1.985 0 0 1 2.022-1.962 1.993 1.993 0 0 1 1.964 2.023 2 2 0 0 1-1.993 1.962h-.031zM940.243 61.274a1.993 1.993 0 1 1 3.986 0 1.987 1.987 0 0 1-1.993 1.993 1.992 1.992 0 0 1-1.993-1.993zm114.336-.119c0-1.097.886-1.993 1.993-1.993a1.993 1.993 0 0 1 0 3.986 1.988 1.988 0 0 1-1.993-1.993zm-114.336-9.764a1.993 1.993 0 1 1 3.986 0 1.987 1.987 0 0 1-1.993 1.993 1.993 1.993 0 0 1-1.993-1.993zm114.336-.12c0-1.097.886-1.993 1.993-1.993a1.993 1.993 0 0 1 0 3.986 1.986 1.986 0 0 1-1.993-1.993zm-114.336-9.764a1.993 1.993 0 0 1 3.986 0 1.986 1.986 0 0 1-1.993 1.993 1.993 1.993 0 0 1-1.993-1.993zm114.336-.119c0-1.097.886-1.983 1.993-1.983a1.99 1.99 0 0 1 1.993 1.983 1.993 1.993 0 0 1-1.993 1.993 1.987 1.987 0 0 1-1.993-1.993zm-114.336-9.765a1.993 1.993 0 0 1 3.986 0 1.986 1.986 0 0 1-1.993 1.993 1.991 1.991 0 0 1-1.993-1.993zm114.336-.109c0-1.106.886-1.993 1.993-1.993 1.096 0 1.993.886 1.993 1.993a1.99 1.99 0 0 1-1.993 1.982 1.983 1.983 0 0 1-1.993-1.982zM940.243 21.74c0-1.096.896-1.982 1.993-1.982 1.105 0 1.993.886 1.993 1.982a1.995 1.995 0 0 1-1.993 2.003 2 2 0 0 1-1.993-2.003zm114.336-.109c0-1.106.886-1.993 1.993-1.993 1.096 0 1.993.886 1.993 1.993a1.99 1.99 0 0 1-1.993 1.982 1.983 1.983 0 0 1-1.993-1.982zm-114.336-9.774a1.99 1.99 0 0 1 1.993-1.983c1.105 0 1.993.887 1.993 1.983a1.994 1.994 0 0 1-1.993 2.002 2 2 0 0 1-1.993-2.002zm114.336-.109c0-1.106.886-1.993 1.993-1.993 1.096 0 1.993.886 1.993 1.993a2 2 0 0 1-1.993 1.993 1.994 1.994 0 0 1-1.993-1.993z"/><path fill="#FFD829" d="m207.095 2.866 50.793 56.948 50.789-56.948 50.79 56.948 50.79-56.948 50.794 56.948 50.795-56.948 50.793 56.948 50.795-56.948 50.794 56.948 50.793-56.948 50.794 56.948 50.797-56.948 50.798 56.948 50.799-56.948"/><path fill="#FFF" d="M205.103 986.016V0H1080v926.339l-159.089 58.37v.599l-715.808.708zm3.985-982.031v978.042l707.837-.701V3.985H209.088zm711.823 0v976.478l155.104-56.907V3.985H920.911z"/><circle cx="281.967" cy="146.625" r="28.894"/><path fill="#FFD829" d="M274.624 156.67c0-.575.395-1.042 1.185-1.042 1.436 0 4.991.108 6.355.144v-16.554l-5.422 2.945c-.502.251-.897.395-1.256.395-.611 0-1.006-.431-1.006-1.042 0-.466.251-.826.898-1.149l6.427-3.159c.431-.216 1.005-.503 1.544-.503.646 0 1.005.467 1.005 1.257v17.81c1.078-.036 3.806-.144 4.92-.144.789 0 1.184.467 1.184 1.042 0 .574-.395 1.041-1.184 1.041h-13.466c-.789 0-1.184-.467-1.184-1.041z"/><circle cx="827.262" cy="147.469" r="28.894"/><path fill="#FFD829" d="M828.066 136.653c3.914 0 6.93 2.226 6.93 6.032 0 3.95-3.483 6.571-7.432 9.624l-4.417 3.411c2.406-.036 10.845-.144 12.174-.144.789 0 1.184.467 1.184 1.042 0 .574-.395 1.041-1.184 1.041h-14.4c-.574 0-1.113-.359-1.113-1.077 0-.395.18-.754.754-1.185l6.14-4.919c3.734-2.98 6.032-5.027 6.032-7.72 0-2.657-2.154-4.058-4.703-4.058-2.047 0-3.771.862-5.386 2.765-.359.431-.647.647-1.149.647-.575 0-1.042-.395-1.042-.97 0-.431.108-.718.359-1.005 1.329-1.509 3.735-3.484 7.253-3.484z"/><circle cx="362.032" cy="492.897" r="28.894"/><path fill="#FFD829" d="M354.039 486.206c0-.395.18-.754.503-1.077 1.472-1.508 3.734-3.052 7.361-3.052 3.482 0 6.786 2.118 6.786 5.673 0 2.226-1.365 4.093-3.842 4.74 2.585.323 4.668 2.19 4.668 4.847 0 3.411-3.052 6.248-8.007 6.248-3.519 0-6.069-1.472-7.469-2.981-.395-.43-.646-.789-.646-1.256 0-.539.431-1.042 1.041-1.042.467 0 .79.252 1.257.755 1.544 1.723 3.662 2.477 5.817 2.477 3.052 0 5.745-1.616 5.745-4.165s-2.55-3.627-5.602-3.663c-.754 0-1.292-.323-1.292-1.041s.574-.969 1.256-1.041c2.801-.359 4.812-1.436 4.812-3.878 0-2.477-2.37-3.627-4.632-3.627-2.298 0-3.95.79-5.602 2.514-.43.395-.718.574-1.113.574-.61 0-1.041-.395-1.041-1.005z"/><path fill="#FFF" d="M1045.742 165.084h-94.559a1.993 1.993 0 0 1 0-3.986h94.559a1.993 1.993 0 0 1 0 3.986zM1045.742 188.432h-94.559a1.993 1.993 0 0 1 0-3.986h94.559a1.993 1.993 0 0 1 0 3.986zM1045.742 211.78h-94.559a1.993 1.993 0 0 1 0-3.986h94.559a1.993 1.993 0 0 1 0 3.986zM1045.742 235.127h-94.559a1.993 1.993 0 0 1 0-3.986h94.559a1.993 1.993 0 0 1 0 3.986zM1045.742 258.475h-94.559a1.993 1.993 0 0 1 0-3.986h94.559a1.993 1.993 0 0 1 0 3.986zM1045.742 281.823h-94.559a1.993 1.993 0 0 1 0-3.986h94.559a1.993 1.993 0 0 1 0 3.986zM1045.742 305.171h-94.559a1.993 1.993 0 0 1 0-3.986h94.559a1.993 1.993 0 0 1 0 3.986zM951.183 896.594a1.992 1.992 0 0 1-.706-3.857l94.559-35.867a1.994 1.994 0 0 1 1.413 3.727l-94.559 35.867c-.233.088-.471.13-.707.13zM951.183 919.942a1.992 1.992 0 0 1-.706-3.857l94.559-35.868a1.992 1.992 0 1 1 1.413 3.727l-94.559 35.868c-.233.089-.471.13-.707.13z"/><path d="M853.985 896.593H273.331a1.993 1.993 0 0 1 0-3.986h580.653a1.993 1.993 0 0 1 .001 3.986zM408.911 919.941h-135.58a1.993 1.993 0 0 1 0-3.986h135.58a1.993 1.993 0 0 1 0 3.986zM853.985 919.941H439.143a1.993 1.993 0 0 1 0-3.986h414.841a1.993 1.993 0 0 1 .001 3.986z"/><circle cx="316.452" cy="703.778" r="11.405"/><circle cx="347.971" cy="703.778" r="11.405"/><circle cx="380.409" cy="703.778" r="11.405"/><path d="M276.797 703.178c0 .117.008.231.009.347.002-.116.02-.232.026-.347h-.035zM420.42 703.178h-.035c.006.116.024.231.026.347.001-.116.009-.23.009-.347zM276.806 703.526c0 .039-.009.078-.009.117 0 .079.016.157.018.237-.001-.119-.009-.236-.009-.354zM420.412 703.526c0 .119-.008.236-.009.354.002-.079.018-.157.018-.237-.001-.039-.009-.078-.009-.117z"/><path d="M420.386 703.178c-.737-13.171-32.578-23.773-71.777-23.773s-71.04 10.602-71.777 23.773c-.007.116-.025.231-.026.347.001.119.008.236.009.354v.002c.379 39.335 32.369 71.108 71.794 71.108s71.416-31.774 71.794-71.11c.001-.118.009-.235.009-.354-.002-.116-.02-.231-.026-.347zm-3.968.611c-.15 4.424-7.247 9.514-18.535 13.291-13.136 4.395-30.636 6.816-49.275 6.816s-36.139-2.42-49.275-6.816c-11.286-3.776-18.382-8.865-18.535-13.288l-.004-.172c.006-.072.012-.144.016-.218.296-5.295 9.875-10.324 18.741-13.266 13.11-4.349 30.533-6.745 49.057-6.745s35.946 2.395 49.057 6.745c8.866 2.941 18.445 7.971 18.741 13.268.004.068.009.136.016.215l-.004.17z"/><path fill="#FFF" d="M348.463 122.101v115.176c3.26-.153 6.584-.237 9.969-.237 39.199 0 71.04 10.602 71.777 23.773.006.116.024.231.026.347-.001.119-.008.236-.009.354-.227 7.983-11.894 15.04-29.725 19.401l18.274 15.096h54.206v-173.91H348.463z"/><path d="M286.621 260.814c0 .117.008.231.009.347.002-.116.02-.231.026-.347h-.035zM430.244 260.814h-.035c.006.116.024.231.026.347.001-.116.009-.231.009-.347zM286.629 261.161c0 .039-.009.078-.009.117 0 .079.016.157.018.237-.001-.118-.008-.235-.009-.354zM430.235 261.161c0 .118-.008.235-.009.354.002-.079.018-.157.018-.237 0-.039-.008-.078-.009-.117z"/><path d="M430.209 260.814c-.737-13.171-32.578-23.773-71.777-23.773s-71.04 10.602-71.777 23.773c-.007.116-.025.231-.026.348.001.118.008.235.009.354v.001c.379 39.335 32.369 71.109 71.794 71.109s71.416-31.775 71.794-71.11c.001-.118.009-.235.009-.354-.001-.117-.019-.232-.026-.348zm-3.967.61c-.15 4.424-7.247 9.514-18.535 13.291-13.136 4.395-30.636 6.816-49.275 6.816s-36.139-2.421-49.275-6.816c-11.286-3.776-18.382-8.865-18.535-13.289l-.004-.173c.006-.072.012-.144.016-.218.296-5.295 9.875-10.324 18.741-13.266 13.111-4.349 30.533-6.745 49.057-6.745s35.946 2.395 49.057 6.745c8.866 2.941 18.445 7.971 18.741 13.268.004.068.009.136.016.215l-.004.172z"/><path fill="#FFF" d="M472.982 122.101h34.237v173.91h-34.237z"/><path fill="#FFF" d="m520.651 101.4-13.369 20.714H471.19l13.834-21.435a20.779 20.779 0 0 1 17.458-9.511h12.595c5.254.002 8.423 5.818 5.574 10.232z"/><path fill="#FFD829" d="m363.804 173.663 91.876-30.634-.256 98.386-91.574-23.517z"/><path d="M474.974 122.101H470.989v173.91h3.985V148.43c1.07 5.252 5.714 9.204 11.282 9.204h9.5c6.359 0 11.514-5.155 11.514-11.515v-24.018h-32.296zM390.728 215.934c-.315 0-.632-.037-.945-.114l-16.064-3.919a3.984 3.984 0 0 1-3.04-3.923l.105-8.096a3.986 3.986 0 0 1 3.984-3.934h.053a3.987 3.987 0 0 1 3.934 4.037l-.064 4.924 8.218 2.005.956-28.73c.073-2.2 1.953-3.906 4.116-3.851a3.986 3.986 0 0 1 3.851 4.116l-1.12 33.631a3.986 3.986 0 0 1-3.984 3.854zM440.376 228.042c-.316 0-.633-.037-.946-.114l-35.09-8.574a3.985 3.985 0 1 1 1.891-7.743l30.228 7.386.418-30.564-27.863 7.678a3.978 3.978 0 0 1-3.436-.644 3.982 3.982 0 0 1-1.606-3.106l-.431-18.56a3.987 3.987 0 0 1 2.81-3.901l32.85-10.126a3.985 3.985 0 1 1 2.349 7.617l-29.97 9.238.242 10.441 28.054-7.731a3.989 3.989 0 0 1 5.044 3.897l-.559 40.875a3.987 3.987 0 0 1-3.985 3.931z"/><circle cx="703.651" cy="346.415" r="11.405"/><circle cx="678.221" cy="360.862" r="11.405"/><circle cx="694.747" cy="320.564" r="11.405"/><circle cx="715.923" cy="300.825" r="11.405"/><path d="M606.388 364.526c0 .117.008.231.009.347.002-.116.02-.231.026-.347h-.035zM750.012 364.526h-.035c.006.116.024.231.026.347.001-.116.009-.23.009-.347zM606.397 364.874c0 .039-.009.078-.009.117 0 .08.016.158.018.237-.001-.119-.008-.236-.009-.354zM750.003 364.874c0 .119-.008.236-.009.354.002-.079.018-.157.018-.237 0-.039-.008-.078-.009-.117z"/><path d="M749.994 365.228c.001-.118.009-.235.009-.354-.002-.116-.019-.231-.026-.347-.737-13.171-32.578-23.773-71.777-23.773s-71.04 10.602-71.777 23.773c-.007.116-.025.231-.026.347.001.119.008.236.009.354v.002c.379 39.335 32.369 71.108 71.794 71.108 39.426 0 71.416-31.774 71.794-71.11m-3.984-.091c-.15 4.424-7.247 9.514-18.535 13.291-13.136 4.395-30.636 6.816-49.275 6.816s-36.139-2.421-49.275-6.816c-11.286-3.776-18.382-8.865-18.535-13.288l-.004-.172c.006-.072.012-.144.016-.218.296-5.295 9.875-10.324 18.741-13.266 13.111-4.349 30.533-6.745 49.057-6.745s35.946 2.395 49.057 6.745c8.866 2.941 18.445 7.971 18.741 13.268.004.068.009.136.016.215a9.42 9.42 0 0 0-.004.17z"/><path fill="#FFF" d="m676.716 164.315 94.06 117.362 85.38-68.428z"/><path fill="#FFF" d="m651.392 184.591 25.314-20.289 94.062 117.36-25.314 20.289z"/><path fill="#FFF" d="m748.081 326.105-2.62-24.139 28.094-22.649 2.593 25.212a20.64 20.64 0 0 1-7.625 18.219l-9.764 7.825c-4.074 3.264-10.144.724-10.678-4.468z"/><path d="m773.731 279.307-90.803-113.298-6.212-1.694 76.824 96.171c-4.111-2.922-9.81-2.911-13.941.399l-7.454 5.974c-4.99 3.999-5.793 11.286-1.794 16.276l15.104 18.846 25.525-20.457-.006-.008 2.757-2.209z"/><path fill="#FFD829" d="m721.899 535.405 36.125 77.052 80.029-28.94-28.94 80.029 77.052 36.125-77.052 36.126 28.94 80.028-80.029-28.94-36.125 77.053-36.125-77.053-80.029 28.94 28.94-80.028-77.053-36.126 77.053-36.125-28.94-80.029 80.029 28.94z"/><ellipse fill="#FFF" cx="718.712" cy="720.285" rx="61.167" ry="20.614"/><circle cx="685.858" cy="706.85" r="11.405"/><circle cx="717.376" cy="706.85" r="11.405"/><circle cx="701.493" cy="685.56" r="11.405"/><circle cx="717.252" cy="660.885" r="11.405"/><circle cx="733.304" cy="685.56" r="11.405"/><circle cx="749.815" cy="706.85" r="11.405"/><path d="M646.203 706.25c0 .117.008.231.009.347.002-.116.02-.232.026-.347h-.035zM789.826 706.25h-.035c.006.116.024.231.026.347.001-.116.009-.23.009-.347zM646.211 706.598c0 .039-.009.078-.009.117 0 .079.016.158.018.237-.001-.119-.008-.236-.009-.354zM789.817 706.598c0 .118-.008.235-.009.354.002-.079.018-.157.018-.237 0-.039-.008-.078-.009-.117z"/><path d="M789.791 706.25c-.737-13.171-32.578-23.773-71.777-23.773s-71.04 10.602-71.777 23.773c-.007.116-.025.231-.026.347.001.118.008.235.009.354v.001c.379 39.336 32.369 71.11 71.794 71.11s71.416-31.774 71.794-71.11c.001-.118.009-.235.009-.354-.001-.117-.019-.232-.026-.348zm-3.967.61c-.149 4.424-7.246 9.515-18.535 13.292-13.136 4.395-30.636 6.816-49.275 6.816s-36.139-2.421-49.275-6.816c-11.286-3.776-18.382-8.866-18.535-13.289l-.004-.172c.006-.072.012-.144.016-.218.296-5.295 9.875-10.325 18.741-13.266 13.11-4.349 30.533-6.745 49.057-6.745s35.946 2.395 49.057 6.745c8.866 2.941 18.445 7.971 18.741 13.269.004.068.009.136.016.214l-.004.17z"/><path fill="#FFF" d="m413.075 595.917.249-.156c-.084.053-.178.083-.265.13l.016.026z"/><path d="M410.547 594.496c-3.341 0-9.119-3.827-13.696-11.138-5.245-8.379-5.806-16.442-3.029-18.438.067-.049.131-.099.194-.152.459-.27.997-.402 1.639-.402 3.343 0 9.127 3.833 13.712 11.156 5.359 8.56 5.854 16.58 2.964 18.508-.083.038-.151.07-.217.106-.442.24-.969.36-1.567.36z"/><path fill="#FFF" d="M395.655 566.36c3.879 0 9.366 5.977 12.023 10.22 2.379 3.801 3.951 7.922 4.311 11.305.276 2.588-.234 4.018-.692 4.431a3.347 3.347 0 0 0-.133.069c-.145.079-.353.119-.617.119-3.877 0-9.356-5.966-12.008-10.203-5.218-8.335-4.857-14.826-3.551-15.765l.12-.089c.139-.058.323-.087.547-.087m0-3.986c-1.022 0-1.956.241-2.763.746-.084.053-.153.124-.233.182-4.102 2.947-3.032 12.273 2.502 21.113 4.602 7.352 10.855 12.073 15.386 12.073.917 0 1.764-.194 2.512-.598.087-.047.181-.077.265-.13 4.389-2.747 3.373-12.282-2.269-21.295-4.604-7.355-10.867-12.091-15.4-12.091z"/><path fill="#FFF" d="M533.492 478.616c-5.871-9.378-18.252-12.187-27.594-6.261l-74.995 47.568a34.053 34.053 0 0 0-14.003 18.563l-3.643 11.865-20.624 12.91.025.04c.08-.058.149-.129.233-.182 4.389-2.748 12.521 2.332 18.163 11.345s6.658 18.547 2.269 21.295l20.457-12.806 12.137 1.888a34.05 34.05 0 0 0 22.815-4.485l75.642-46.423c9.449-5.799 12.357-18.19 6.475-27.587l-17.357-27.73zM323.07 672.054a2.489 2.489 0 0 1-2.469-2.195c-.082-.689-1.935-17.081 4.481-36.242 5.945-17.754 20.405-41.188 55.535-52.02a2.487 2.487 0 0 1 3.113 1.646 2.489 2.489 0 0 1-1.646 3.113c-26.511 8.175-44.079 24.547-52.218 48.661-6.117 18.127-4.337 34.095-4.319 34.254a2.49 2.49 0 0 1-2.477 2.783zM371.057 672.055a2.49 2.49 0 0 1-2.468-2.179c-5.103-40.51 23.404-68.719 25.549-69.521a2.529 2.529 0 0 1 2.97.946c.513.766.831 1.995-.566 3.501a2.476 2.476 0 0 1-.846.597c-4.149 4.093-26.64 28.33-22.164 63.854a2.492 2.492 0 0 1-2.475 2.802z"/><path fill="#FFF" d="M347.065 671.041a2.49 2.49 0 0 1-2.484-2.343c-1.62-27.173 9.551-46.691 19.206-58.279 10.443-12.534 21.163-18.595 21.614-18.847a2.493 2.493 0 0 1 3.389.96 2.492 2.492 0 0 1-.96 3.389c-.529.299-41.181 23.751-38.277 72.482a2.489 2.489 0 0 1-2.488 2.638z"/><path fill="#FFD829" d="M459.81 577.611c-.912 0-1.734-.63-1.942-1.556-6.495-28.899-25.038-42.27-25.225-42.402a1.992 1.992 0 0 1 2.291-3.261c.812.569 19.972 14.31 26.822 44.788a1.992 1.992 0 0 1-1.946 2.431zM432.32 577.948a1.991 1.991 0 0 1-1.966-1.69c-1.863-12.108-10.451-18.203-10.537-18.263a1.992 1.992 0 0 1 2.261-3.282c.411.282 10.081 7.068 12.215 20.94a1.993 1.993 0 0 1-1.973 2.295z"/><path fill="#FFF" d="m769.872 612.493-75.375 2.376c-3.044-7.044-11.516-12.114-21.499-12.114-12.542 0-22.709 7.998-22.709 17.864s10.167 17.864 22.709 17.864c9.984 0 18.456-5.07 21.5-12.114l75.375 2.376a8.126 8.126 0 1 0-.001-16.252zM951.183 377.521l.048 45.526 94.246 24.204.264-101.258-94.558 31.528zm31.521 39.531a3.816 3.816 0 0 1-3.811 3.686c-.302 0-.605-.036-.904-.109l-16.532-4.034a3.812 3.812 0 0 1-2.908-3.754l.108-8.332a3.812 3.812 0 1 1 7.625.1l-.068 5.297 9.026 2.203.996-29.924a3.813 3.813 0 0 1 3.808-3.686l.129.002a3.813 3.813 0 0 1 3.684 3.937l-1.153 34.614zm51.098 12.387a3.815 3.815 0 0 1-3.812 3.76c-.302 0-.606-.036-.905-.109l-36.114-8.824a3.812 3.812 0 1 1 1.809-7.407l31.462 7.688.441-32.204-29.046 8.003a3.81 3.81 0 0 1-4.824-3.587l-.444-19.102a3.812 3.812 0 0 1 2.688-3.732l33.809-10.421a3.812 3.812 0 1 1 2.247 7.287l-31.054 9.572.264 11.333 29.23-8.054a3.815 3.815 0 0 1 4.825 3.727l-.576 42.07z"/><path d="M616.452 139.239a2.006 2.006 0 0 1-.498-2.78 1.995 1.995 0 0 1 2.77-.498 2 2 0 0 1 .508 2.78 2.023 2.023 0 0 1-1.644.846c-.389 0-.787-.109-1.136-.348zm-8.28-5.151a1.99 1.99 0 0 1-.776-2.711 1.984 1.984 0 0 1 2.71-.776h-.01a1.974 1.974 0 0 1 .776 2.7 1.984 1.984 0 0 1-1.744 1.036c-.317 0-.656-.079-.956-.249zm-8.767-4.264c-1.016-.418-1.485-1.595-1.066-2.601a1.992 1.992 0 0 1 2.61-1.066 1.988 1.988 0 0 1 1.066 2.61 2.002 2.002 0 0 1-1.843 1.216c-.248 0-.518-.05-.767-.159zm-9.166-3.268a1.978 1.978 0 0 1-1.345-2.47 1.978 1.978 0 0 1 2.47-1.346 1.988 1.988 0 0 1 1.346 2.471 1.99 1.99 0 0 1-1.913 1.424 1.83 1.83 0 0 1-.558-.079zm-50.423-1.276a1.996 1.996 0 0 1 1.175-2.571 2.006 2.006 0 0 1 2.561 1.176 2.014 2.014 0 0 1-1.176 2.571c-.229.08-.458.12-.697.12a1.984 1.984 0 0 1-1.863-1.296zm40.948-.946a1.99 1.99 0 0 1-1.614-2.312 1.977 1.977 0 0 1 2.302-1.614 1.994 1.994 0 0 1-.339 3.955 1.89 1.89 0 0 1-.349-.029zm-31.374-1.783a1.99 1.99 0 0 1 1.635-2.292 1.981 1.981 0 0 1 2.291 1.635 1.973 1.973 0 0 1-1.624 2.291 1.996 1.996 0 0 1-2.302-1.634zm21.7.637a1.995 1.995 0 0 1-1.863-2.112 1.995 1.995 0 0 1 2.112-1.863 1.979 1.979 0 0 1 1.863 2.103 1.986 1.986 0 0 1-1.983 1.873l-.129-.001zm-11.826-1.943a2.007 2.007 0 0 1 1.893-2.092 1.993 1.993 0 0 1 2.092 1.892 1.985 1.985 0 0 1-1.892 2.083v.01h-.1a1.998 1.998 0 0 1-1.993-1.893zM616.861 152.509a1.981 1.981 0 0 1-1.415-.588 2.17 2.17 0 0 1-.249-.299 2.39 2.39 0 0 1-.3-.717c-.019-.129-.04-.26-.04-.389 0-.527.22-1.046.589-1.415.089-.09.198-.169.308-.249.099-.069.219-.129.339-.179.12-.05.249-.09.378-.11a2.018 2.018 0 0 1 1.793.538c.369.369.578.887.578 1.415s-.198 1.026-.578 1.405c-.09.09-.198.179-.299.249-.109.07-.229.139-.348.19a2.152 2.152 0 0 1-.756.149zM626.764 154.422a2.001 2.001 0 0 1-1.584-2.331 1.993 1.993 0 0 1 2.331-1.584 1.988 1.988 0 0 1 1.584 2.331 1.992 1.992 0 0 1-1.953 1.624 2.31 2.31 0 0 1-.378-.04zM637.424 156.405a2.014 2.014 0 0 1-1.415-.578 1.974 1.974 0 0 1-.578-1.415c0-.129.01-.259.03-.388.029-.129.069-.249.12-.369.05-.12.109-.239.179-.349a2.016 2.016 0 0 1 2.052-.847c.12.03.249.07.369.12s.239.11.339.179c.11.07.22.16.309.249.089.09.169.19.249.299.07.11.129.23.179.349s.089.239.12.369a2.535 2.535 0 0 1 0 .787 2.242 2.242 0 0 1-.299.708c-.07.109-.16.209-.249.308a1.983 1.983 0 0 1-1.405.578zM632.652 144.877a1.993 1.993 0 1 1 3.836-1.086 1.997 1.997 0 0 1-1.375 2.462c-.179.05-.369.069-.548.069a1.986 1.986 0 0 1-1.913-1.445zM631.726 136.24a2.014 2.014 0 0 1-1.415-.578 2.18 2.18 0 0 1-.249-.308 2.274 2.274 0 0 1-.3-.708 2.667 2.667 0 0 1-.029-.388c0-.14.01-.27.04-.399.019-.12.059-.249.109-.369.051-.12.11-.239.18-.348a2.013 2.013 0 0 1 2.052-.848 2.306 2.306 0 0 1 .717.3c.11.069.209.159.3.249.089.09.179.189.249.299a2.382 2.382 0 0 1 .299.717c.019.129.04.259.04.399 0 .129-.02.259-.04.388-.03.129-.06.249-.11.369s-.12.239-.189.339c-.07.11-.15.209-.249.308a1.99 1.99 0 0 1-1.405.578z"/><circle cx="799.71" cy="540" r="28.894"/><path fill="#FFD829" d="M808.162 544.876c0 .574-.395.969-1.185.969h-2.98v3.519c0 .862-.467 1.329-1.149 1.329-.646 0-1.077-.467-1.077-1.329v-3.519h-10.953c-.682 0-1.113-.502-1.113-1.077 0-.467.216-.754.539-1.149l11.527-13.753c.395-.467.682-.682 1.113-.682.61 0 1.113.287 1.113 1.149v13.573h2.98c.79 0 1.185.395 1.185.97zm-15.692-.97h9.409V532.81l-9.409 11.096zM157.52 851.823s49.672-35.37 49.53-103.572c-.166-79.938-49.46-116.017-49.46-116.017l158.054-185.619c21.854-26.484 19.787-67.647-6.69-89.522-26.472-21.871-61.005-22.32-82.868 4.159L61.276 553.568"/><path d="M157.522 853.816a1.995 1.995 0 0 1-1.159-3.616c.488-.348 48.833-35.625 48.695-101.946-.085-40.713-13.297-69.642-24.366-86.741-12.006-18.547-24.159-27.583-24.28-27.672a1.995 1.995 0 0 1-.339-2.9l158.054-185.619c21.633-26.216 18.691-65.929-6.442-86.694-12.719-10.508-27.579-16.074-41.83-15.597-14.874.47-28.093 7.209-38.232 19.487L62.789 554.865a1.993 1.993 0 1 1-3.026-2.594l164.81-192.316c10.865-13.159 25.105-20.398 41.155-20.905 15.236-.495 31.028 5.381 44.494 16.507 26.799 22.141 29.985 64.421 6.959 92.326l-156.735 184.07c3.835 3.168 13.61 12.022 23.482 27.228 11.409 17.571 25.027 47.287 25.114 89.066.075 35.76-13.599 62.44-25.083 78.524-12.451 17.439-24.766 26.307-25.284 26.676-.349.25-.753.369-1.153.369z"/><ellipse transform="rotate(-50.007 242.46 435.17)" fill="#FFF" cx="242.436" cy="435.143" rx="13.699" ry="31.362"/><path d="M261.258 457.572c-10.321 0-20.556-3.401-28.907-10.407-19.506-16.362-21.449-46.275-4.332-66.681 17.116-20.406 46.911-23.696 66.416-7.334 9.463 7.937 15.119 19.255 15.925 31.868.805 12.577-3.312 24.94-11.593 34.811-9.787 11.67-23.724 17.743-37.509 17.743zm4.267-90.847c-12.647 0-25.45 5.589-34.452 16.32-15.705 18.723-13.982 46.116 3.839 61.067 17.821 14.948 45.098 11.88 60.803-6.843 7.619-9.084 11.408-20.447 10.669-31.997-.737-11.515-5.89-21.838-14.51-29.069-7.605-6.379-16.934-9.478-26.349-9.478zM0 894.348h209.088V1080H0zM520.059 753.305a1.978 1.978 0 0 1-1.943-2.032 1.977 1.977 0 0 1 2.033-1.943 1.978 1.978 0 0 1 1.943 2.032 1.982 1.982 0 0 1-1.993 1.943h-.04zm8.011-2.033a2 2 0 0 1 1.892-2.093 1.997 1.997 0 0 1 .209 3.986h-.109a1.998 1.998 0 0 1-1.992-1.893zm-18.094 1.445a2.002 2.002 0 0 1-1.804-2.182 2.006 2.006 0 0 1 2.182-1.793 2.005 2.005 0 0 1 1.793 2.181 1.998 1.998 0 0 1-1.983 1.804c-.058 0-.128-.01-.188-.01zm28.036-2.173a1.981 1.981 0 0 1 1.734-2.221 1.977 1.977 0 0 1 2.212 1.734 1.97 1.97 0 0 1-1.723 2.212c-.09.019-.169.019-.249.019a1.982 1.982 0 0 1-1.974-1.744zm-38.059.827a2.003 2.003 0 0 1-1.634-2.301 1.989 1.989 0 0 1 2.302-1.624 2.003 2.003 0 0 1 1.634 2.301 2.004 2.004 0 0 1-1.962 1.654c-.12.001-.23-.009-.34-.03zm47.913-2.271a1.987 1.987 0 0 1 1.564-2.341 2.005 2.005 0 0 1 2.352 1.574 2.007 2.007 0 0 1-1.574 2.341c-.129.02-.259.04-.388.04a1.998 1.998 0 0 1-1.954-1.614zm-57.816.199.01-.01a1.98 1.98 0 0 1-1.455-2.411 1.982 1.982 0 0 1 2.411-1.445v-.01a1.996 1.996 0 0 1-.477 3.936c-.16 0-.319-.02-.489-.06zm67.55-2.331a1.99 1.99 0 0 1 1.405-2.441 1.99 1.99 0 0 1 2.441 1.405 2.017 2.017 0 0 1-1.405 2.451v-.01a1.99 1.99 0 0 1-2.441-1.405zm-77.254-.478a1.977 1.977 0 0 1-1.276-2.511 2.004 2.004 0 0 1 2.521-1.276h-.01a1.992 1.992 0 0 1 1.276 2.521 1.995 1.995 0 0 1-1.893 1.365c-.209 0-.419-.03-.618-.099zm86.819-2.302a1.988 1.988 0 0 1 1.245-2.531 1.978 1.978 0 0 1 2.52 1.245 1.995 1.995 0 0 1-1.236 2.531c-.219.07-.438.1-.647.1a1.983 1.983 0 0 1-1.882-1.345zm-96.314-1.215a2 2 0 0 1-1.065-2.61 1.99 1.99 0 0 1 2.6-1.076 2 2 0 0 1 1.076 2.61 1.994 1.994 0 0 1-1.843 1.225c-.259 0-.519-.05-.768-.149zm105.679-2.182a1.982 1.982 0 0 1 1.076-2.6 2.005 2.005 0 0 1 2.61 1.086 1.995 1.995 0 0 1-1.086 2.6c-.249.1-.508.15-.757.15a1.998 1.998 0 0 1-1.843-1.236zm-114.865-2.092a1.985 1.985 0 0 1-.856-2.681 2.006 2.006 0 0 1 2.689-.856 1.995 1.995 0 0 1 .857 2.68 2.007 2.007 0 0 1-1.774 1.086 1.94 1.94 0 0 1-.916-.229zm-8.847-5.191a1.994 1.994 0 0 1-.468-2.78 2.004 2.004 0 0 1 2.789-.458 2.001 2.001 0 0 1 .458 2.78 2.005 2.005 0 0 1-1.624.827c-.398 0-.807-.12-1.155-.369zM570.114 732.88c-.27 0-.528-.05-.768-.15a1.988 1.988 0 0 1-.648-.428c-.09-.1-.179-.199-.249-.309a2.237 2.237 0 0 1-.299-.708 2.7 2.7 0 0 1-.029-.398c0-.129.01-.259.04-.389.019-.119.059-.249.109-.368.05-.12.11-.239.179-.349.08-.11.16-.209.249-.299.09-.09.199-.179.309-.249a2.217 2.217 0 0 1 .717-.299 2.04 2.04 0 0 1 1.793.548 1.978 1.978 0 0 1 0 2.82 1.875 1.875 0 0 1-.647.428c-.238.101-.497.15-.756.15zM584.998 730.888c0-1.097.886-1.993 1.993-1.993a1.993 1.993 0 1 1 0 3.986 1.988 1.988 0 0 1-1.993-1.993zm-8.438 0c0-1.097.886-1.993 1.993-1.993a1.993 1.993 0 0 1 0 3.986 1.987 1.987 0 0 1-1.993-1.993zM595.429 732.88c-.268 0-.527-.05-.767-.15a1.988 1.988 0 0 1-.648-.428 3.955 3.955 0 0 1-.249-.309c-.069-.109-.129-.219-.179-.339s-.089-.249-.11-.369a2.006 2.006 0 0 1 .538-1.803 2.056 2.056 0 0 1 1.804-.548c.129.029.249.069.369.12.12.05.238.109.348.179.11.07.209.16.299.249s.18.189.249.299a2.45 2.45 0 0 1 .299.717c.03.13.04.26.04.389 0 .139-.01.268-.04.398-.029.12-.059.249-.109.369s-.11.23-.19.339a1.73 1.73 0 0 1-.249.309 1.875 1.875 0 0 1-.647.428c-.239.101-.498.15-.758.15zM585.995 747.247a1.993 1.993 0 0 1-.737-2.72 2.005 2.005 0 0 1 2.73-.737 2.009 2.009 0 0 1 .728 2.729 1.987 1.987 0 0 1-2.721.728zm4.215-7.313a1.999 1.999 0 0 1-.728-2.72 1.993 1.993 0 0 1 2.72-.737 2.003 2.003 0 0 1 .737 2.73 2.015 2.015 0 0 1-1.733.996c-.34 0-.678-.09-.996-.269zM582.766 754.828c-.259 0-.518-.05-.757-.149a2.006 2.006 0 0 1-.647-.439 1.96 1.96 0 0 1-.589-1.405c0-.129.02-.259.04-.388a2.156 2.156 0 0 1 .3-.717 1.822 1.822 0 0 1 .548-.547c.109-.08.229-.14.348-.19s.239-.09.369-.11c.259-.059.528-.059.777 0 .129.02.259.06.378.11.12.05.229.11.339.19.11.069.209.149.308.238.369.379.578.887.578 1.415 0 .13-.01.26-.04.389-.019.129-.059.249-.109.369s-.11.238-.18.348c-.079.11-.159.209-.249.299a1.979 1.979 0 0 1-1.414.587zM449.968 429.324a1.946 1.946 0 0 1-1.404-.577 1.99 1.99 0 0 1-.429-.648 1.836 1.836 0 0 1-.16-.768c0-.129.02-.259.04-.388a2.306 2.306 0 0 1 .3-.717 1.75 1.75 0 0 1 .249-.299 1.986 1.986 0 0 1 1.793-.549 2.201 2.201 0 0 1 .717.3c.11.069.209.159.308.249.09.09.17.189.249.299.07.109.13.229.18.348.05.12.09.239.109.369a2.002 2.002 0 0 1-.109 1.156c-.1.239-.249.458-.429.648a1.971 1.971 0 0 1-1.414.577zM431.726 432.144a1.976 1.976 0 0 1 1.415-2.43 1.984 1.984 0 0 1 2.431 1.415 1.992 1.992 0 0 1-1.415 2.441c-.17.04-.34.059-.509.059a1.979 1.979 0 0 1-1.922-1.485zm8.16-2.152a1.992 1.992 0 0 1 1.415-2.431 2.007 2.007 0 0 1 2.44 1.415 2.005 2.005 0 0 1-1.424 2.441c-.169.04-.339.059-.508.059a1.978 1.978 0 0 1-1.923-1.484zM425.49 435.781a1.958 1.958 0 0 1-1.405-.588 1.878 1.878 0 0 1-.439-.638 1.993 1.993 0 0 1-.149-.767c0-.528.209-1.036.588-1.405.09-.099.189-.179.299-.249.11-.07.219-.139.339-.189a1.74 1.74 0 0 1 .378-.11c.26-.05.519-.05.777 0 .129.019.249.059.378.11.12.05.23.119.339.189.11.07.209.15.3.249.378.369.588.877.588 1.405s-.209 1.036-.588 1.405a1.964 1.964 0 0 1-1.405.588zM427.183 427.561a1.997 1.997 0 0 1-1.405-2.441 2 2 0 0 1 2.451-1.405 1.997 1.997 0 0 1 1.394 2.451 1.976 1.976 0 0 1-1.913 1.465 1.87 1.87 0 0 1-.527-.07zm2.212-8.15A1.991 1.991 0 0 1 428 416.97a1.99 1.99 0 0 1 2.441-1.405 1.996 1.996 0 0 1 1.405 2.451 1.997 1.997 0 0 1-1.923 1.464 1.874 1.874 0 0 1-.528-.069zM432.145 411.331c-.139 0-.269-.01-.399-.03a2.084 2.084 0 0 1-.368-.12 1.858 1.858 0 0 1-.34-.179c-.109-.07-.209-.16-.308-.249a1.962 1.962 0 0 1-.428-.648c-.1-.238-.16-.498-.16-.757 0-.129.019-.269.04-.388a2.19 2.19 0 0 1 .299-.717c.08-.11.16-.22.249-.309.738-.738 2.072-.738 2.82 0 .369.378.588.887.588 1.415a1.976 1.976 0 0 1-1.236 1.833 1.987 1.987 0 0 1-.757.149zM436.538 422.469a1.992 1.992 0 0 1-.488-2.769 1.986 1.986 0 0 1 2.77-.498 1.997 1.997 0 0 1 .498 2.78 2.004 2.004 0 0 1-1.635.846c-.397 0-.796-.109-1.145-.359zm6.357-7.691a1.997 1.997 0 0 1 .03-2.82 2.006 2.006 0 0 1 2.82.03 1.997 1.997 0 0 1-.03 2.82 2.003 2.003 0 0 1-1.395.567 1.976 1.976 0 0 1-1.425-.597zm7.352-6.725a2.004 2.004 0 0 1 .329-2.799 1.993 1.993 0 0 1 2.799.329 1.985 1.985 0 0 1-.328 2.799 1.997 1.997 0 0 1-2.8-.329zm8.001-5.948a1.993 1.993 0 0 1 .588-2.75 2.002 2.002 0 0 1 2.759.588 2.002 2.002 0 0 1-.588 2.759 2.082 2.082 0 0 1-1.086.319 1.977 1.977 0 0 1-1.673-.916zm8.509-5.181a1.992 1.992 0 1 1 3.527-1.853 1.983 1.983 0 0 1-.837 2.69 1.991 1.991 0 0 1-2.69-.837zm8.936-4.403a1.978 1.978 0 0 1 1.057-2.61 1.986 1.986 0 0 1 2.609 1.056 2.01 2.01 0 0 1-1.056 2.621 2.168 2.168 0 0 1-.777.149 1.993 1.993 0 0 1-1.833-1.216zm9.266-3.647a1.976 1.976 0 0 1 1.276-2.51 1.98 1.98 0 0 1 2.51 1.265 1.99 1.99 0 0 1-1.275 2.511 1.994 1.994 0 0 1-2.511-1.266zm9.535-2.89a1.986 1.986 0 0 1 1.455-2.411 1.987 1.987 0 0 1 2.411 1.455 1.988 1.988 0 0 1-1.464 2.411c-.16.04-.319.06-.468.06a1.988 1.988 0 0 1-1.934-1.515zm9.714-2.161a2.003 2.003 0 0 1 1.634-2.301v.01a1.997 1.997 0 0 1 2.302 1.635 1.994 1.994 0 0 1-1.635 2.291 1.999 1.999 0 0 1-2.301-1.635zm9.853-1.455a1.991 1.991 0 0 1 1.783-2.181 1.991 1.991 0 1 1 .399 3.964c-.07.011-.139.011-.199.011a1.99 1.99 0 0 1-1.983-1.794zm9.923-.767a1.988 1.988 0 0 1 1.814-2.152 1.99 1.99 0 0 1 2.162 1.803 1.992 1.992 0 0 1-1.814 2.163c-.059.01-.109.01-.169.01a2.004 2.004 0 0 1-1.993-1.824zm9.883-1.215a1.99 1.99 0 0 1 1.534-2.361 1.989 1.989 0 0 1 2.361 1.534 1.99 1.99 0 0 1-1.534 2.361c-.139.029-.278.05-.418.05a2 2 0 0 1-1.943-1.584zm9.645-2.451a1.986 1.986 0 0 1 1.196-2.551 1.992 1.992 0 0 1 1.354 3.746 1.992 1.992 0 0 1-2.55-1.195zm9.196-3.806a2.007 2.007 0 0 1 .787-2.71 2 2 0 0 1 2.711.797 2.003 2.003 0 0 1-.798 2.71 1.995 1.995 0 0 1-2.7-.797zm8.499-5.181a1.987 1.987 0 0 1 .348-2.799 1.984 1.984 0 0 1 2.79.348 1.988 1.988 0 0 1-.349 2.799 1.992 1.992 0 0 1-2.789-.348zm7.552-6.495a1.978 1.978 0 0 1-.12-2.81l.01-.01a1.985 1.985 0 0 1 2.81-.11c.807.747.857 2.012.11 2.82a1.967 1.967 0 0 1-1.465.637 1.95 1.95 0 0 1-1.345-.527zm6.386-7.643a1.985 1.985 0 0 1-.578-2.759 1.974 1.974 0 0 1 2.75-.578 1.983 1.983 0 0 1 .578 2.76 1.964 1.964 0 0 1-1.664.896 1.94 1.94 0 0 1-1.086-.319zm5.001-8.627a1.978 1.978 0 0 1-1.096-2.591 1.99 1.99 0 1 1 3.687 1.504 1.986 1.986 0 0 1-1.844 1.236c-.249 0-.507-.05-.747-.149z"/></svg>