<svg xmlns="http://www.w3.org/2000/svg" xml:space="preserve" viewBox="0 0 1920 1080"><path fill="#41E847" d="m1677.955 852.266 159.021-523.097c6.252-14.941 9.625-30.766 9.625-47.154 0-91.053-103.641-164.866-231.49-164.866s-231.49 73.813-231.49 164.866c0 16.56 3.443 32.546 9.823 47.626l150.903 437.562 133.608 85.063zm-187.018-635.282c2.644-5.765 9.538-8.192 15.211-5.356l54.952 27.476c5.725 2.862 12.653-.059 14.601-6.155l15.773-49.375 10.163 22.867H1628.586l10.163-22.867 15.772 49.375c1.948 6.097 8.876 9.018 14.601 6.155l54.952-27.476c5.673-2.836 12.567-.409 15.211 5.356l46.826 102.096-48.271-11.263c-9.157-2.9-19.15.23-25.017 7.835l-13.097 16.978-26.988-10.38a22.98 22.98 0 0 0-26.037 6.9c-.775.948-1.404 2.007-1.93 3.112l-29.583 62.192-30.419-63.628c-5.99-8.861-17.302-12.416-27.285-8.577l-26.988 10.38-13.097-16.978a22.874 22.874 0 0 0-25.017-7.835l-48.271 11.263 46.826-102.095zm45.504 516.214-131.2-381.547c36.858 56.247 116.965 95.231 209.87 95.231 94.507 0 175.775-40.339 211.74-98.156L1676 844.945l-139.559-111.747zM609.707 763.595s37.664 13.772 86.596 3.232c0 0 46.298-7.152 81.921-37.049l9.17 47.4-170.512 25.031-7.175-38.614z"/><path d="M445.987 848.246h-.161c-12.214.001-24.21-3.818-33.792-10.758l-.301-.219a53.98 53.98 0 0 1-10.486-10.115c-10.591-13.418-24.97-22.745-41.583-26.975-1.599-.406-3.33-.773-5.444-1.156a2.081 2.081 0 0 1-.137-.029l-136.2-34.635a1.727 1.727 0 0 1-.173-.053 25.208 25.208 0 0 0-2.309-.712c-6.739-1.716-13.734-.705-19.706 2.846-5.972 3.55-10.204 9.214-11.917 15.948-3.533 13.894 4.9 28.074 18.796 31.611a2.039 2.039 0 0 1 .709.322l69.961 17.784a1.999 1.999 0 0 1 1.491 2.186l-.144 1.152a2 2 0 0 1-1.98 1.752l-131.559.257c-12.898 1.63-22.657 12.639-22.722 25.658-.055 13.271 9.6 24.557 22.48 26.308l107.783-.326h.006c1.091 0 1.982.875 1.999 1.966l.004.236a1.996 1.996 0 0 1-1.995 2.032l-124.058.31h-.126c-6.904 0-13.401 2.674-18.307 7.539-4.934 4.892-7.666 11.411-7.694 18.356-.056 14.086 12.336 26.043 27.061 26.111.053 0 .105.003.157.007l35.054-.184 87.658-.123h.003a1.999 1.999 0 0 1 1.999 2.013l-.001.234a2 2 0 0 1-1.996 1.987l-85.058.136c-.116.026-.142-.003-.212-.011-.968-.062-14.602.004-19.081.026-1.279.006-2.132 0-2.304.01h-.124c-6.912 0-13.409 2.672-18.313 7.533-4.934 4.89-7.667 11.41-7.695 18.359-.062 13.671 10.564 25.088 24.202 26.02l18.901.056 89.425-.117h.002a2 2 0 0 1 1.999 1.959l.005.238a2 2 0 0 1-1.997 2.041l-85.063.132a1.616 1.616 0 0 1-.201-.01 27.15 27.15 0 0 0-2.444-.14h-.105c-14.279 0-25.939 11.595-26.003 25.895-.062 14.293 11.473 25.984 25.746 26.127.305-.027.606.02.886.128l86.922-.124 74.423.34c-6.413-71.904 46.043-137.304 120.352-149.457l143.601-20.381-.844-39.902-139.39-.188zM503.176 441.361c-10.546-6.354-18.877-15.876-23.492-26.828l-.147-.352a54.012 54.012 0 0 1-3.718-14.077c-2.098-16.964-9.556-32.396-21.567-44.627-1.152-1.172-2.442-2.383-4.056-3.812a1.86 1.86 0 0 1-.102-.097l-98.496-100.24a2.235 2.235 0 0 1-.121-.135 24.93 24.93 0 0 0-1.606-1.805c-4.872-4.963-11.378-7.725-18.325-7.786l-.232-.001c-6.861 0-13.326 2.643-18.228 7.458-10.225 10.048-10.368 26.545-.319 36.776.104.104.203.226.277.34.063.097.117.197.161.301l50.598 51.485a2 2 0 0 1 .142 2.643l-.721.911a1.997 1.997 0 0 1-2.605.469l-93.055-56.41a1.804 1.804 0 0 1-.164-.11 26.569 26.569 0 0 0-2.013-1.378c-.209-.127-1.159-.692-2.508-1.49a1.987 1.987 0 0 1-.542-.22l-14.324-8.385c-11.876-5.305-25.938-.952-32.746 10.151-6.801 11.108-4.294 25.611 5.822 33.782l14.06 8.789 78.029 47.195a1.999 1.999 0 0 1 .694 2.715l-.119.204a1.997 1.997 0 0 1-2.763.706l-72.805-43.993a1.83 1.83 0 0 1-.165-.111c-.938-.63-20.28-12.195-28.539-17.134-2.727-1.631-4.559-2.726-4.735-2.833-5.926-3.629-12.908-4.733-19.662-3.107-6.755 1.624-12.472 5.781-16.097 11.705-7.352 12.015-2.956 28.665 9.598 36.359.046.027.09.058.132.088l30.066 18.019 75.016 45.35a2.001 2.001 0 0 1 .669 2.758l-.123.2a2 2 0 0 1-2.738.665l-72.799-43.992a1.922 1.922 0 0 1-.175-.119c-.792-.551-12.425-7.53-16.247-9.824-1.143-.686-1.91-1.145-2.057-1.235-5.932-3.635-12.915-4.738-19.671-3.12-6.754 1.623-12.472 5.78-16.1 11.708-7.142 11.656-3.977 26.928 7.2 34.798l16.132 9.849 76.523 46.271a2 2 0 0 1 .697 2.712l-.12.207a1.997 1.997 0 0 1-2.765.71l-72.801-43.998a1.983 1.983 0 0 1-.165-.111 27.656 27.656 0 0 0-2.021-1.389c-12.22-7.474-28.261-3.619-35.75 8.605-7.464 12.187-3.664 28.162 8.46 35.688.275.136.513.332.697.571l74.387 44.968 96.837 59.317c.044.026.086.055.127.084 10.543 7.624 23.51 10.951 36.506 9.365l.453-.055c1.414-.174 2.876-.352 4.367-.404 9.126-.312 17.901.802 23.651 1.796 6.125 1.058 11.974 3.257 17.384 6.533l36.5 22.019-.874 1.449 95.409-157.918-32.216-18.623zM1074.266 837.855l-.672-3.943a521.305 521.305 0 0 0 17.588-3.313c100.465-20.737 191.924-70.891 271.833-149.069 22.526-22.038 35.122-51.529 35.468-83.041.345-31.511-11.602-61.272-33.64-83.798-45.493-46.502-120.337-47.324-166.839-1.829-63.332 61.961-133.613 92.608-213.192 92.61-25.755.001-52.478-3.208-80.263-9.605-90.457-20.826-159.081-68.971-165.623-73.668l-.006.009-.511-.383 2.388-3.208c.697.515 70.782 51.743 164.649 73.353 112.203 25.833 206.984-.98 289.761-81.967 48.08-47.034 125.459-46.188 172.494 1.891 22.785 23.29 35.137 54.059 34.78 86.639-.357 32.579-13.381 63.07-36.671 85.856-80.466 78.722-172.593 129.232-273.821 150.127a520.441 520.441 0 0 1-17.723 3.339zM924.41 842.143c-27.637-2.935-55.884-7.941-83.957-14.881a682.285 682.285 0 0 1-10.318-2.638l1.02-3.867c3.43.905 6.881 1.788 10.258 2.623 27.897 6.896 55.964 11.871 83.419 14.786l-.422 3.977z"/><path fill="#41E847" d="M995.218 442.238c-39.311 0-71.293-31.982-71.293-71.293v-82.889h314.262v82.889c0 39.311-31.982 71.293-71.293 71.293H995.218z"/><path d="M921.926 231.318v-.761.761z"/><path fill="#FFF" d="M1051.241 341.535a45.818 45.818 0 0 1 29.729-10.897c11.687 0 22.356 4.359 30.47 11.539l-60.199-.642z"/><path d="M1397.172 1080.091H1920l-538.417-551.117c-22.365-33.002-60.166-54.732-102.948-54.732h-112.671v-30.004h.931c40.478 0 73.292-32.814 73.292-73.292V.091l-73.15 97.305c-24.795-15.952-54.306-25.209-85.981-25.209-31.675 0-61.186 9.256-85.981 25.209L921.925.091V370.945c0 40.478 32.814 73.292 73.292 73.292v30.004H881.793c-68.526 0-124.277 55.75-124.277 124.277h3.999c0-54.916 36.994-101.354 87.37-115.702L995.17 591.422l79.206-2.294c43.609-14.625 84.181-40.469 122.23-77.694 19.347-18.927 43.468-29.962 68.389-33.193h13.64c66.321 0 120.278 53.957 120.278 120.278v258.197l-1.741 223.375zM925.925 370.946v-80.89h128.046l27.085 27.085 27.085-27.085h128.047v80.89c0 38.208-31.085 69.293-69.293 69.293h-83.839v-46.977a2 2 0 0 0-4 0v46.977h-83.838c-38.208 0-69.293-31.085-69.293-69.293zm579.651 523.107a2 2 0 0 1-2.699-.843l-22.987-43.885a2 2 0 0 1 3.543-1.856l22.987 43.885a2 2 0 0 1-.844 2.699zm89.621 185.756a2 2 0 0 1-1.789-1.106l-72.917-145.833a2 2 0 1 1 3.577-1.789l72.917 145.833a2 2 0 0 1-1.788 2.895zm-118.98-350.623a2 2 0 0 1 2.782.51l239.37 346.977c.915 1.327-.034 3.135-1.646 3.135a2 2 0 0 1-1.646-.864l-239.37-346.977a1.998 1.998 0 0 1 .51-2.781z"/><path fill="#FFF" d="m821.27 486.969 19.761-111.793 46.863 89.208 86.95-44.04-34.441 84.127 89.208 18.632-94.156 54.971 47.858 104.249-82.433-43.475-27.101 81.868-50.25-108.405s62.001-9.543 65.758-63.227c0 .001-10.038-55.673-68.017-62.115z"/><path d="m468.306 561.378-3.982-.365a195.12 195.12 0 0 1 11.474-52.45l3.764 1.349c-5.527 15.858-9.314 33.174-11.256 51.466z"/><path fill="#41E847" d="M466.317 561.168a67.933 67.933 0 0 0-7.563 1.121c-36.444 7.566-59.848 43.247-52.279 79.689 7.57 36.445 43.249 59.846 79.689 52.277a67.501 67.501 0 0 0 15.675-5.328c43.336 60.664 119.807 93.418 197.498 77.281 77.687-16.139 134.79-76.635 150.382-149.543a67.641 67.641 0 0 0 16.504-1.358c36.44-7.567 59.842-43.244 52.274-79.686-7.57-36.443-43.246-59.849-79.685-52.28a68.829 68.829 0 0 0-7.394 1.989"/><path d="M659.893 772.266c-61.995.003-121.361-29.47-158.706-80.824a69.742 69.742 0 0 1-14.616 4.771c-18.15 3.77-36.678.246-52.175-9.919-15.498-10.166-26.11-25.76-29.879-43.909-3.769-18.149-.246-36.679 9.921-52.177 10.167-15.498 25.761-26.109 43.91-29.877a70.11 70.11 0 0 1 7.783-1.154l.372 3.982a66 66 0 0 0-7.34 1.088c-17.105 3.551-31.8 13.549-41.381 28.155-9.581 14.604-12.901 32.066-9.349 49.169 3.553 17.103 13.552 31.797 28.157 41.378s32.066 12.899 49.167 9.348a65.695 65.695 0 0 0 15.212-5.17l1.518-.734.98 1.373c44.244 61.934 120.969 91.954 195.464 76.485 74.495-15.477 132.916-73.572 148.833-148.003l.352-1.648 1.684.068a66.152 66.152 0 0 0 16.016-1.318c17.101-3.551 31.795-13.549 41.375-28.154 9.58-14.604 12.9-32.065 9.349-49.168-3.553-17.102-13.552-31.797-28.156-41.379-14.604-9.581-32.065-12.9-49.165-9.349a67.48 67.48 0 0 0-7.179 1.931l-1.244-3.8a71.131 71.131 0 0 1 7.609-2.047c18.149-3.77 36.676-.246 52.172 9.921 15.497 10.167 26.108 25.761 29.878 43.909 3.769 18.149.246 36.678-9.92 52.176-10.166 15.497-25.759 26.108-43.906 29.876a70.381 70.381 0 0 1-15.31 1.446c-16.746 75.2-76.073 133.769-151.576 149.455a196.052 196.052 0 0 1-39.85 4.099z"/><path fill="#FFF" d="M832.19 488.221c-15.067-27.624-32.563-48.194-50.915-63.445-15.607-12.97-31.834-22.097-47.719-28.411a40.03 40.03 0 0 0 2.756-24.328c-4.344-21.788-25.528-35.928-47.315-31.585a40.245 40.245 0 0 0-10.023 3.418 66.454 66.454 0 0 0-1.209-9.88c-7.108-35.652-41.773-58.792-77.425-51.684-35.652 7.108-58.792 41.773-51.684 77.425a66.432 66.432 0 0 0 2.445 8.911 40.514 40.514 0 0 0-7.352.768c-21.788 4.344-35.928 25.528-31.585 47.315a40.035 40.035 0 0 0 11.13 20.708c-18.174 17.386-34.768 40.684-45.621 71.82-5.343 15.329-9.301 32.547-11.356 51.913 0 .001 38.792 172.686 217.112 144.456l.025.125c.61-.138 1.208-.285 1.813-.426.613-.101 1.221-.196 1.838-.302l-.025-.125c175.512-42.314 145.11-216.673 145.11-216.673z"/><path d="m607.742 764.015 3.925-.773 7.174 36.452-3.925.772zM776.244 730.177l3.926-.76 9.168 47.401-3.926.76z"/><path fill="#FFF" d="M1643.906 714.507s-513.23-80.174-711.972-107.276l-9.034-45.169 38.393-2.258s206.083 64.365 682.613 154.703z"/><circle cx="7.905" cy="169.094" r="7.905" fill="#41E847"/><circle cx="140.794" cy="70.852" r="7.905" fill="#41E847"/><circle cx="476.172" cy="182.645" r="7.905" fill="#41E847"/><circle cx="805.904" cy="243.622" r="7.905" fill="#41E847"/><circle cx="644.792" cy="89.047" r="7.905" fill="#41E847"/><circle cx="1838.575" cy="839.85" r="7.905" fill="#41E847"/><circle cx="1334.378" cy="394.938" r="7.905" fill="#41E847"/><circle cx="1779.855" cy="763.628" r="7.905" fill="#41E847"/><circle cx="1358.41" cy="88.783" r="7.905" fill="#41E847"/><circle cx="1873.016" cy="33.588" r="7.905" fill="#41E847"/><circle cx="82.189" cy="216.111" r="7.905" fill="#41E847"/><circle cx="185.963" cy="618.523" r="7.905" fill="#41E847"/><path fill="#FFF" d="M1045.062 250.941c-2.749-14.85-15.76-26.1-31.406-26.1-15.646 0-28.657 11.25-31.406 26.1h62.812zM1180.749 250.941c-2.749-14.85-15.76-26.1-31.406-26.1s-28.657 11.25-31.406 26.1h62.812z"/><path fill="#41E847" d="M1046.241 205.087c-.279 0-.563-.06-.833-.184l-65.173-29.915a1.998 1.998 0 1 1 1.668-3.634l65.173 29.915a1.998 1.998 0 0 1 .983 2.651 1.998 1.998 0 0 1-1.818 1.167zM1116.758 205.087a1.999 1.999 0 0 1-1.818-1.167 1.998 1.998 0 0 1 .983-2.651l65.173-29.915a2 2 0 0 1 1.668 3.634l-65.173 29.915a1.98 1.98 0 0 1-.833.184z"/><g fill="#FFF"><path d="m836.794 851.038-17.677-65.266c-1.591-5.874-7.334-9.654-13.361-8.792l-207.959 29.767c-6.035.864-10.487 6.111-10.356 12.207l1.45 67.569 247.903-35.485zM1107.939 856.778c-29.264-21.935-65.317-31.155-101.521-25.979l-47.134 6.747c40.402 4.963 65.204 27.429 79.399 46.909 17.824 24.462 23.055 48.882 23.269 49.91a1.998 1.998 0 0 1-1.96 2.407 2 2 0 0 1-1.956-1.592c-.051-.244-5.31-24.717-22.672-48.488-23.175-31.731-55.794-47.244-96.915-46.108-.093.004-.183-.007-.273-.016l-86.547 12.388c9.685 2.265 24.157 6.905 39.681 16.281 24.877 15.026 57.042 45.58 68.998 105.805a2 2 0 0 1-3.924.78c-11.672-58.793-42.955-88.55-67.142-103.16-26.178-15.812-49.801-17.782-50.036-17.8-.118-.009-.224-.051-.336-.079l-24.868 3.56c22.624 4.072 36.695 14.908 44.9 24.163 10.854 12.244 14.006 24.163 14.135 24.664a2.002 2.002 0 0 1-1.938 2.498 2.002 2.002 0 0 1-1.936-1.501c-.049-.188-3.135-11.66-13.383-23.153-13.76-15.432-33.229-23.604-57.865-24.288-.102-.003-.198-.021-.295-.038l-150.596 21.556c-36.357 17.254-42.536 70.559-42.594 71.098l-3.977-.429c.062-.573 1.583-14.215 7.855-30.267 6.734-17.236 16.42-30.489 28.32-38.914l-48.676 6.967c-.126.075-.248.155-.391.202-47.59 15.493-72.195 50.971-84.457 78.005-13.347 29.429-15.401 55.542-15.42 55.803a2.001 2.001 0 0 1-2.141 1.848 1.999 1.999 0 0 1-1.848-2.14c.02-.267 2.104-26.979 15.71-57.037 11.191-24.726 32.439-56.309 71.458-74.234l-128.977 18.461c-36.203 5.182-68.221 24.151-90.156 53.415-21.936 29.264-31.162 65.318-25.979 101.521l1.452 13.642h74.376c-9.543-53.461 11.094-78.988 11.987-80.057a2 2 0 0 1 3.073 2.56c-.237.287-20.485 25.563-11.001 77.497h280.657c-20.156-73.242 1.137-138.609 1.357-139.268a2.004 2.004 0 0 1 2.53-1.265 2.001 2.001 0 0 1 1.265 2.53c-.217.652-21.321 65.55-.998 138.002h391.618L1064.8 979.155a2.001 2.001 0 0 1 3.944-.674l17.382 101.702h94.376l-19.146-133.248c-5.183-36.204-24.153-68.222-53.417-90.157z"/><path d="M325.751 1066.54c-5.182-36.203 4.044-72.258 25.979-101.521 21.935-29.264 53.953-48.233 90.156-53.415l128.977-18.461c-39.019 17.925-60.267 49.508-71.458 74.234-13.606 30.059-15.69 56.771-15.71 57.037a1.999 1.999 0 1 0 3.989.292c.019-.261 2.073-26.374 15.42-55.803 12.262-27.034 36.867-62.512 84.457-78.005.143-.047.266-.127.391-.202l48.676-6.967c-11.9 8.426-21.585 21.678-28.32 38.914-6.272 16.052-7.793 29.693-7.855 30.267l3.977.429c.058-.539 6.237-53.844 42.594-71.098l150.596-21.556c.097.017.194.035.295.038 24.636.685 44.105 8.856 57.865 24.288 10.248 11.493 13.334 22.965 13.383 23.153a2 2 0 0 0 3.874-.997c-.129-.501-3.28-12.42-14.135-24.664-8.205-9.255-22.277-20.092-44.9-24.163l24.868-3.56c.112.029.218.07.336.079.235.018 23.858 1.987 50.036 17.8 24.188 14.61 55.47 44.367 67.142 103.16a2 2 0 0 0 3.924-.78c-11.957-60.225-44.121-90.778-68.998-105.805-15.524-9.377-29.996-14.017-39.681-16.281l86.547-12.388c.09.009.18.02.273.016 41.121-1.136 73.74 14.377 96.915 46.108 17.362 23.771 22.621 48.244 22.672 48.488a2.002 2.002 0 0 0 2.366 1.549 2 2 0 0 0 1.55-2.364c-.214-1.028-5.444-25.448-23.269-49.91-14.195-19.48-38.997-41.946-79.399-46.909l47.134-6.747c36.203-5.176 72.257 4.045 101.521 25.979 29.264 21.936 48.233 53.953 53.416 90.157l19.146 133.248h4.041l-19.228-133.815c-5.333-37.261-24.857-70.215-54.976-92.79-30.119-22.576-67.224-32.076-104.486-26.738l-165.069 23.628-17.806-65.74c-2.119-7.822-9.77-12.855-17.788-11.706L597.23 802.787c-8.036 1.149-13.963 8.137-13.789 16.252l1.461 68.054-143.582 20.552c-37.261 5.333-70.214 24.856-92.79 54.976-22.576 30.118-32.072 67.226-26.748 104.415l1.398 13.147h4.022l-1.451-13.643zm272.045-259.794 207.959-29.767c6.027-.862 11.77 2.918 13.361 8.792l17.677 65.266-247.903 35.485-1.45-67.569c-.131-6.095 4.321-11.342 10.356-12.207z"/><path d="M1066.435 976.846a2.002 2.002 0 0 0-1.635 2.309l17.267 101.028h4.058l-17.382-101.702a1.998 1.998 0 0 0-2.308-1.635zM691.446 942.18a2 2 0 0 0-3.795-1.265c-.22.659-21.512 66.026-1.357 139.268h4.153c-20.322-72.453.782-137.351.999-138.003zM416.64 1002.686a1.999 1.999 0 0 0-3.073-2.56c-.892 1.069-21.53 26.596-11.987 80.057h4.059c-9.485-51.934 10.764-77.211 11.001-77.497z"/></g></svg>