<svg xmlns="http://www.w3.org/2000/svg" xml:space="preserve" viewBox="0 0 1080 1080"><path fill="#41E847" d="M577.642 443.584c-33.563 0-60.869-27.305-60.869-60.867v-70.814H785.77v70.814c0 33.562-27.305 60.867-60.868 60.867h-147.26z"/><path d="M514.773 262.949v-.654.654z"/><path fill="#FFF" d="M625.697 357.489a39.3 39.3 0 0 1 25.501-9.347 39.31 39.31 0 0 1 26.137 9.898l-51.638-.551z"/><path d="M957.69 755.799a1.996 1.996 0 0 1 2.319 1.618l57.538 322.536 62.448.047-125.366-465.829c-16.269-77.604-51.662-106.664-57.591-111.063-24.305-24.637-57.918-34.705-89.832-30.088-9.957-.042-38.405-.162-74.181-.302v-27.673c30.88-3.987 54.744-30.362 54.744-62.327V64.611l-62.746 83.464c-21.269-13.683-46.583-21.623-73.752-21.623s-52.483 7.94-73.752 21.623l-62.746-83.464v318.106c0 34.721 28.147 62.867 62.868 62.867v26.591c-23.966-.066-44.5-.108-58.158-.108-65.865 0-69.74 4.843-69.74 4.843L577.6 571.833l60.645-1.756c-42.299 12.78-87.934 13.371-137.544 1.95-80.339-18.495-140.529-62.431-141.127-62.872l-2.386 3.211.438.328.005-.007c5.613 4.024 64.634 45.387 142.173 63.238 23.858 5.492 46.802 8.248 68.918 8.247 68.333-.002 128.68-26.317 183.062-79.52 39.776-38.912 103.794-38.211 142.708 1.564 18.851 19.269 29.07 44.724 28.774 71.677-.295 26.954-11.07 52.179-30.337 71.029-32.996 32.279-73.466 59.839-120.287 81.914-41.632 19.628-87.247 34.125-132.293 42.106l13.035 1.611c41.341-8.388 82.814-22.112 120.964-40.099 47.226-22.266 88.063-50.081 121.378-82.673 16.106-15.757 26.048-35.473 29.796-56.117L922.427 1080h91.073l-57.428-321.882a2 2 0 0 1 1.618-2.319zM653.271 441.584v-39.726a2 2 0 0 0-4 0v39.726h-71.63c-32.46 0-58.868-26.408-58.868-58.867v-68.815h109.835l22.663 22.663 22.663-22.663H783.77v68.815c0 32.46-26.408 58.867-58.868 58.867h-71.631zM960.505 978.14a2 2 0 0 1 2.289 1.663l6.562 41.407a2 2 0 1 1-3.951.626l-6.562-41.407a2.002 2.002 0 0 1 1.662-2.289zM104.739 862.011c14.736-9.532 31.075-15.635 48.569-18.139l122.89-17.59-1.16-54.009a48.375 48.375 0 0 1-2.357-1.615l-.273-.201a46.56 46.56 0 0 1-9-8.755c-8.997-11.495-21.245-19.512-35.421-23.184a67.661 67.661 0 0 0-4.647-1.006 3.025 3.025 0 0 1-.137-.03l-116.705-30.185a2.182 2.182 0 0 1-.174-.054 20.897 20.897 0 0 0-1.952-.61c-5.704-1.478-11.629-.646-16.698 2.342a21.897 21.897 0 0 0-10.147 13.464c-3.039 11.754 4.053 23.791 15.808 26.833.147.038.299.093.427.156.08.04.156.085.229.134l59.9 15.488a2 2 0 0 1 1.482 2.194l-.128.984a2 2 0 0 1-1.983 1.745h-.008l-93.341-.363a1.84 1.84 0 0 1-.196-.011 23.049 23.049 0 0 0-2.065-.122c-.198-.003-1.135.004-2.456.012-.169.05-.349.077-.534.079l-14.22.163c-10.925 1.337-19.226 10.625-19.326 21.648-.091 11.023 8.045 20.453 18.944 21.978l14.203.251 78.217.227a2 2 0 0 1 1.994 1.971l.003.202a2 2 0 0 1-2 2.03h-.005l-72.966-.18a1.9 1.9 0 0 1-.2-.011c-1.014-.046-24.004-.005-32.292.013-2.623.007-4.38.013-4.551.009l-.188-.001a21.88 21.88 0 0 0-15.441 6.321 21.87 21.87 0 0 0-6.579 15.518c-.096 11.928 10.362 22.096 22.838 22.204.049.001.097.003.145.007l33.645-.035 47.856.128zM38.746 910.003l16.201.113 6.906.019a121.561 121.561 0 0 1 36.817-43.932l-39.574-.099c-.071 0-.144-.004-.215-.012-.845-.054-12.319-.048-16.091-.043h-2.222l-.195-.001a21.885 21.885 0 0 0-15.443 6.316 21.88 21.88 0 0 0-6.58 15.521c-.1 11.573 8.855 21.275 20.396 22.118zM49.491 957.208c.787-14.86 4.272-29.252 10.377-42.857l-1.187-.003c-.066 0-.133-.004-.199-.011a23.22 23.22 0 0 0-2.071-.126l-.18-.001c-12.05 0-21.914 9.76-22.018 21.84-.082 9.699 6.219 18.248 15.278 21.158z"/><path fill="#41E847" d="M296.961 719.517s32.307 11.813 74.28 2.773c0 0 39.713-6.135 70.27-31.779l7.865 40.658-146.261 21.471-6.154-33.123z"/><path d="M297.094 472.407c-6.689-8.455-10.431-18.402-10.843-28.795l-.013-.343a46.51 46.51 0 0 1 1.265-12.488c3.413-14.193 2.081-28.771-3.853-42.157a67.35 67.35 0 0 0-2.101-4.266 2.884 2.884 0 0 1-.061-.125l-48.887-110.187a2.06 2.06 0 0 1-.066-.17 21.866 21.866 0 0 0-12.947-13.535 21.9 21.9 0 0 0-16.855.419c-11.096 4.924-16.119 17.961-11.196 29.062a2.065 2.065 0 0 1 .181.696l25.095 56.549a2 2 0 0 1-.796 2.524l-.854.514a2 2 0 0 1-2.604-.476l-57.728-73.349a1.801 1.801 0 0 1-.114-.161 22.399 22.399 0 0 0-1.187-1.692c-.114-.145-.699-.875-1.539-1.919a2.031 2.031 0 0 1-.392-.368l-8.966-11.039c-7.838-7.728-20.273-8.457-28.971-1.685-8.691 6.779-11.023 19.014-5.444 28.501l8.631 11.281 48.436 61.415a2 2 0 0 1-.308 2.79l-.157.128a2.03 2.03 0 0 1-1.481.437 2.005 2.005 0 0 1-1.352-.749l-45.207-57.272a2.06 2.06 0 0 1-.115-.162c-.598-.83-13.263-16.723-18.03-22.705-1.535-1.927-2.553-3.203-2.655-3.334a21.875 21.875 0 0 0-14.666-8.316 21.853 21.853 0 0 0-16.244 4.491c-9.404 7.337-10.87 21.85-3.202 31.69.031.039.06.079.087.12l18.705 23.521 46.576 59.03a2.002 2.002 0 0 1-.343 2.818l-.158.123a2.002 2.002 0 0 1-2.798-.34l-45.205-57.27a1.936 1.936 0 0 1-.122-.174c-.48-.69-7.357-9.348-9.946-12.606-.78-.982-1.308-1.646-1.404-1.77-3.621-4.646-8.828-7.601-14.666-8.324-5.839-.719-11.609.871-16.248 4.492-9.128 7.113-11.165 20.157-4.651 29.722l9.982 12.764 47.507 60.224a2 2 0 0 1-.307 2.789l-.158.129a2.003 2.003 0 0 1-2.834-.311L40.68 365.272a2.06 2.06 0 0 1-.115-.162 23.095 23.095 0 0 0-1.188-1.701c-7.463-9.565-21.329-11.278-30.905-3.817-9.54 7.438-11.284 21.226-3.922 30.799.193.209.338.454.427.719l46.154 58.493 59.89 76.823c.031.04.062.082.09.124 6.128 9.239 15.477 15.775 26.324 18.404l.351.084c1.203.291 2.447.592 3.682 1.007 7.45 2.505 14.176 6.057 18.506 8.595 4.632 2.715 8.693 6.267 12.071 10.556l22.676 28.684-.891.704 123.52-97.514-20.256-24.663zM587.523 785.059c-53.472-1.189-85.419-10.784-102.802-18.624l1.645-3.646c17.045 7.688 48.446 17.097 101.247 18.271l-.09 3.999z"/><path fill="#FFF" d="m478.434 482.238 5.603-74.519 47.059 62.494 49.13-39.153.397 66.191 59.463 13.433-57.412 52.518 16.941 74.917-53.459-28.988-21.835 54.588-43.949-73.966s53.182-8.185 56.406-54.234c-.001 0-8.611-47.756-58.344-53.281z"/><path d="m175.955 546.094-3.983-.365a167.668 167.668 0 0 1 9.858-45.066l3.766 1.35c-4.736 13.584-7.979 28.416-9.641 44.081z"/><path fill="#41E847" d="M173.965 545.883c-2.151.201-4.32.509-6.487.961-31.261 6.49-51.336 37.095-44.844 68.354 6.493 31.261 37.098 51.334 68.356 44.841a57.946 57.946 0 0 0 13.446-4.57c37.173 52.036 102.767 80.13 169.409 66.289 66.638-13.844 115.62-65.735 128.993-128.273a58.002 58.002 0 0 0 14.156-1.165c31.257-6.491 51.331-37.093 44.839-68.352-6.494-31.259-37.095-51.337-68.351-44.844a59.112 59.112 0 0 0-6.343 1.706"/><path fill="#FFF" d="M487.898 483.91a3.361 3.361 0 0 0-.377-1.111c-12.861-23.437-27.765-40.92-43.393-53.908-13.387-11.125-27.306-18.954-40.932-24.37 3.109-6.913 3.989-14.915 1.89-22.924-4.132-15.762-19.05-26.613-35.316-25.651a34.627 34.627 0 0 0-13.393 3.547 56.99 56.99 0 0 0-1.363-10c-6.891-30.24-37.491-49.401-67.719-42.457-29.652 6.812-48.69 36.029-42.701 66.063a56.85 56.85 0 0 0 2.098 7.643c-2.082.029-4.19.237-6.306.659-18.689 3.726-30.818 21.897-27.092 40.586a34.348 34.348 0 0 0 9.547 17.763c-15.589 14.913-29.823 34.898-39.132 61.605-4.583 13.148-7.978 27.918-9.741 44.53 0 .001 33.275 148.124 186.233 123.909l.021.107c.523-.119 1.036-.244 1.555-.366.526-.087 1.048-.168 1.576-.259l-.021-.107C508.321 634.211 489.486 494.2 487.898 483.91z"/><path d="M563.791 523.562c-6.707-32.288-38.433-53.095-70.717-46.396-2.14.446-5.507 1.263-7.719 1.987l2.171 3.647a61.83 61.83 0 0 1 6.364-1.718c30.122-6.261 59.726 13.164 65.986 43.293 3.031 14.596.198 29.497-7.978 41.961-8.176 12.463-20.716 20.996-35.311 24.026a56.289 56.289 0 0 1-13.668 1.125l-1.685-.068-.353 1.648c-13.63 63.735-63.655 113.481-127.444 126.733-63.794 13.25-129.489-12.459-167.376-65.494l-.98-1.373-1.519.735a56.048 56.048 0 0 1-12.981 4.412c-30.138 6.259-59.735-13.162-65.992-43.29-3.031-14.596-.197-29.498 7.979-41.962 8.177-12.465 20.718-20.998 35.315-24.028a57.001 57.001 0 0 1 6.267-.928l-.373-3.982a61.02 61.02 0 0 0-6.707.994c-15.643 3.247-29.082 12.393-37.846 25.75-8.762 13.357-11.799 29.327-8.55 44.969 5.858 28.205 30.802 47.652 58.543 47.65a60.09 60.09 0 0 0 24.564-5.274c22.902 31.404 55.402 53.246 91.466 63.188l5.905 30.001 3.924-.773-5.533-28.107a168.335 168.335 0 0 0 40.466 4.951c11.362 0 22.835-1.153 34.242-3.522a168.219 168.219 0 0 0 65.933-29.527l7.228 37.358 3.928-.76-7.607-39.32c30.136-23.571 52.015-57.168 60.705-95.94a60.115 60.115 0 0 0 12.963-1.25c15.641-3.247 29.079-12.392 37.842-25.749 8.761-13.355 11.797-29.325 8.548-44.967z"/><path fill="#FFF" d="m801.764 1077.082-28.346-200.888c-4.585-32.031-21.368-60.359-47.26-79.767-25.891-19.408-57.789-27.576-89.821-22.985L495.018 793.67l-15.205-56.137c-1.855-6.845-8.542-11.247-15.57-10.246l-178.351 25.528c-7.034 1.007-12.224 7.123-12.071 14.227l1.248 58.111-122.89 17.59c-32.032 4.584-60.36 21.368-79.767 47.26-19.355 25.822-27.526 57.623-23.021 89.568.011.08.017.16.018.24l.82 97.548a2 2 0 1 0 3.999-.034l-.82-95.457c-.015-1.739-.156-3.473-.364-5.199-3.644-30.098 4.325-59.927 22.569-84.266 18.766-25.037 46.16-41.267 77.133-45.7l108.729-15.563c-32.445 15.535-50.246 42.112-59.699 62.996-11.691 25.827-13.43 48.079-13.498 49.014a2 2 0 0 0 3.989.292c.017-.223 1.777-22.584 13.208-47.778 10.493-23.127 31.546-53.476 72.255-66.729.119-.039.219-.109.326-.168l40.834-5.845c-9.557 7.289-17.364 18.285-22.872 32.38-5.393 13.801-6.701 25.537-6.754 26.03l3.977.429c.049-.454 5.211-44.957 35.283-60.218l129.274-18.504c.08.012.159.029.242.031 21.035.585 37.658 7.554 49.404 20.714 8.781 9.838 11.408 19.662 11.434 19.761a2 2 0 0 0 3.874-.999c-.111-.433-2.831-10.719-12.186-21.271-6.864-7.742-18.493-16.767-36.997-20.494l19.598-2.805c.091.021.176.057.271.064.203.016 20.545 1.74 42.95 15.323 20.632 12.508 47.319 37.961 57.29 88.186a2 2 0 1 0 3.924-.78c-10.275-51.751-37.922-78.012-59.306-90.928-12.594-7.607-24.386-11.587-32.676-13.648l72.724-10.409c.08.005.157.016.24.012 35.114-.976 63.049 12.287 82.867 39.41 14.859 20.338 19.363 41.282 19.407 41.491a2.002 2.002 0 0 0 2.366 1.549 2 2 0 0 0 1.55-2.364c-.184-.884-4.683-21.886-20.005-42.914-11.966-16.423-32.644-35.307-66.206-40.078l38.344-5.489c30.976-4.432 61.819 3.461 86.856 22.227 25.036 18.767 41.266 46.16 45.699 77.129l28.345 200.884a2 2 0 0 0 2.26 1.701 2 2 0 0 0 1.697-2.26zm-522.707-252.5-1.237-57.626a10.079 10.079 0 0 1 8.638-10.182l178.351-25.528c5.02-.719 9.816 2.434 11.143 7.333l15.077 55.662-162.721 23.291-.128-.275c-.275.128-.542.276-.814.41l-48.309 6.915z"/><path fill="#FFF" d="M703.151 991.303a2 2 0 0 1-1.97-1.664l-14.529-85.237a2 2 0 0 1 3.944-.672l14.529 85.237a2 2 0 0 1-1.974 2.336zM364.58 994.733a2.001 2.001 0 0 1-1.921-1.447c-18.363-63.787.359-121.245.55-121.817a2.006 2.006 0 0 1 2.53-1.265 2.001 2.001 0 0 1 1.265 2.53c-.188.562-18.508 56.894-.501 119.444a2.001 2.001 0 0 1-1.923 2.555zM984.559 662.589s-413.932-73.976-411.201-77.195l-7.749-38.744 23.652-17.896 395.298 133.835z"/><circle cx="1005.453" cy="139.672" r="7.906" fill="#41E847"/><circle cx="851.852" cy="58.355" r="7.906" fill="#41E847"/><circle cx="455.072" cy="120.331" r="7.906" fill="#41E847"/><circle cx="981.735" cy="419.766" r="7.906" fill="#41E847"/><circle cx="1019.738" cy="449.078" r="7.906" fill="#41E847"/><circle cx="898.158" cy="243.578" r="7.906" fill="#41E847"/><circle cx="379.754" cy="211.955" r="7.906" fill="#41E847"/><circle cx="254.389" cy="7.906" r="7.906" fill="#41E847"/><circle cx="311.989" cy="160.002" r="7.906" fill="#41E847"/><circle cx="46.575" cy="86.59" r="7.906" fill="#41E847"/><path fill="#FFF" d="M277.108 829.032a2 2 0 0 1-1.999-1.957l-1.289-60.033c-.152-7.104 5.037-13.22 12.071-14.227l178.351-25.528c7.028-1.001 13.717 3.401 15.57 10.246l15.707 57.99a2 2 0 1 1-3.861 1.045l-15.707-57.989c-1.327-4.899-6.123-8.052-11.143-7.333l-178.351 25.528a10.079 10.079 0 0 0-8.638 10.182l1.289 60.033a2.002 2.002 0 0 1-1.957 2.043h-.043zM620.017 279.781c-2.358-12.738-13.518-22.388-26.939-22.388s-24.581 9.65-26.939 22.388h53.878zM736.405 279.781c-2.358-12.738-13.518-22.388-26.939-22.388s-24.581 9.65-26.939 22.388h53.878z"/><path fill="#41E847" d="M621.028 240.733c-.279 0-.563-.059-.833-.183l-55.903-25.66a1.998 1.998 0 1 1 1.668-3.634l55.903 25.66a1.998 1.998 0 0 1-.835 3.817zM681.515 240.733a1.999 1.999 0 0 1-.835-3.817l55.903-25.66a2 2 0 0 1 1.668 3.634l-55.903 25.66c-.27.125-.554.183-.833.183z"/></svg>