<svg xmlns="http://www.w3.org/2000/svg" viewBox="0 0 1920 1080" xml:space="preserve"><path d="m1498.48 140.34-145.82 345.23-1.01 2.38 1.76 1.9 197.43 212.45-197.21 181.9-2.45 2.26 1.78 2.81 85.42 134.98H446.14a55.86 55.86 0 0 1-55.82-55.77V140.34h1108.16m6.03-4H386.32v832.14a59.8 59.8 0 0 0 59.82 59.77h999.5l-89.3-141.12 200.16-184.62-200.16-215.39 148.17-350.78zM446.14 47.45a59.8 59.8 0 0 0-59.82 59.77v29.12h1118.2l37.54-88.89H446.14zm64.17 71.14a22.92 22.92 0 1 1 0-45.84 22.92 22.92 0 0 1 0 45.84z"/><circle fill="#FFF" cx="575.28" cy="95.67" r="22.92"/><circle fill="#FFD829" cx="445.34" cy="95.67" r="22.92"/><circle cx="444.95" cy="95.9" r="7.91"/><path fill="#FFF" d="M841.89 1077.54a49.27 49.27 0 0 1 49.27-49.27 49.27 49.27 0 0 1-49.27-49.26 49.27 49.27 0 0 1-49.27 49.26 49.27 49.27 0 0 1 49.27 49.27zm530.94-982.48a47.72 47.72 0 0 1 47.72-47.72 47.72 47.72 0 0 1-47.72-47.72 47.72 47.72 0 0 1-47.72 47.72 47.72 47.72 0 0 1 47.72 47.72z"/><path d="m1866.65 139.5 1.04 828.15a55.38 55.38 0 0 1-16.3 39.45 55.48 55.48 0 0 1-39.44 16.39l-316.95.47-86.51-136.34 197.48-182.6 2.95-2.73-2.74-2.94-198.67-213.24 145.7-346.14 313.44-.46m4-4.01-320.1.48-147.73 350.96 200.44 215.14-199.93 184.87 89.48 141.01 319.14-.48a59.8 59.8 0 0 0 59.74-59.84l-1.04-832.14z"/><path d="m1870.65 135.5-.04-29.12a59.8 59.8 0 0 0-59.89-59.7l-222.73.36-37.43 88.94 320.09-.48z"/><path fill="#FFF" d="M1871.34 613.78a49.25 49.25 0 0 1 49.27-49.22 49.25 49.25 0 0 1-49.27-49.23 49.25 49.25 0 0 1-49.27 49.23 49.25 49.25 0 0 1 49.27 49.22zM468.26 231.41h495.93v90.9H468.26zm0 146.82h324.47v90.9H468.26zm0 436.17H728.5v90.9H468.26zM842 378.23h256.8v90.9H842z"/><path d="M468.26 525.05h423.01v90.9H468.26zm0 144.68h324.47v90.9H468.26z"/><path fill="#FFF" d="M1643.07 231.41h144.5v90.9h-144.5z"/><path d="M1582.83 378.23h204.74v90.9h-204.74z"/><path fill="#FFF" d="m467.59 525.06 386.2 172.59-37.08 83-386.2-172.6z"/><g fill="#FFF"><path d="M1200.34 378.46c1.98 0 3.08 1.32 3.08 2.97a3.8 3.8 0 0 1-.55 1.98l-52.8 88.78c-.55.99-1.65 1.87-2.86 1.87-1.98 0-3.08-1.32-3.08-2.97 0-.78.22-1.44.55-1.98l52.8-88.78c.55-.99 1.65-1.87 2.86-1.87z"/><path d="M1147.2 476.06a4.86 4.86 0 0 1-5.07-4.97c0-1.08.28-2.1.83-3.01l52.8-88.77a5.42 5.42 0 0 1 4.58-2.85 4.86 4.86 0 0 1 5.08 4.97 5.8 5.8 0 0 1-.83 3.01l-52.8 88.77a5.42 5.42 0 0 1-4.58 2.85zm53.14-95.6c-.36 0-.85.38-1.11.85l-52.83 88.82c-.19.3-.27.61-.27.96 0 .67.33.97 1.08.97.35 0 .85-.38 1.1-.85l52.84-88.82c.18-.3.27-.61.27-.96 0-.67-.33-.97-1.08-.97zm39.49 22.54c4.4 0 7.8 3.07 7.8 7.25 0 4.19-3.4 7.27-7.8 7.27s-7.81-3.08-7.81-7.27c0-4.18 3.4-7.26 7.8-7.26zm0 34.75c4.4 0 7.8 3.08 7.8 7.27 0 4.18-3.4 7.26-7.8 7.26s-7.81-3.08-7.81-7.26c0-4.19 3.4-7.27 7.8-7.27z"/><path d="M1239.83 454.27c-5.6 0-9.81-3.98-9.81-9.26s4.22-9.26 9.8-9.26 9.82 3.98 9.82 9.26-4.22 9.26-9.81 9.26zm0-14.52c-3.37 0-5.81 2.22-5.81 5.27s2.44 5.26 5.8 5.26c3.38 0 5.82-2.22 5.82-5.26s-2.45-5.27-5.81-5.27zm0-20.24c-5.6 0-9.81-3.98-9.81-9.26s4.22-9.26 9.8-9.26 9.82 3.98 9.82 9.26-4.22 9.26-9.81 9.26zm0-14.52c-3.37 0-5.81 2.22-5.81 5.26s2.44 5.27 5.8 5.27c3.38 0 5.82-2.22 5.82-5.27s-2.45-5.26-5.81-5.26z"/></g><path fill="#FFD829" d="M984.6 601.75c-6.9 0-13.49-1.2-18.91-4.28a24.09 24.09 0 0 1-8.25-7.6 107.93 107.93 0 0 1-11.4 2.86c-9.93 1.9-18.94 2.6-29.21 2.3a2 2 0 1 1 .12-4c9.96.3 18.7-.4 28.35-2.23 3.44-.66 6.84-1.52 10.15-2.5a33.87 33.87 0 0 1-2.78-10.94c-1.2-12.38 2.98-29.38 18.24-39.95 7.77-5.38 17.48-6.99 25.33-4.2 8.97 3.18 15.1 12.5 13.98 21.23-2.09 16.03-21.3 24.67-30.52 28.83a203.3 203.3 0 0 1-18.24 7.31c1.66 2.2 3.73 4 6.2 5.41 9.84 5.58 30.97 5.9 56-5.96 1.8-.84 3.54-1.71 5.26-2.6a23.16 23.16 0 0 1-2.55-7.43c-2.74-16.51 4.48-32.85 18.4-41.63 10.75-6.77 20.3-4.1 25 1.55 4.63 5.58 5.49 15.34-3.05 24.56-8.46 9.15-19.17 17.31-31.93 24.36 1 1.1 2.16 2.1 3.47 2.98 6.06 4.1 15.12 5.46 23.64 3.58 14.2-3.15 27.04-8.18 38.35-15.02l-.2-.6c-3.53-10.94-1.67-23.82 4.84-33.61 3.45-5.18 8.5-9.52 13.5-11.61 4.68-1.96 9.02-1.55 12.2 1.16 3.84 3.26 5.37 9.3 3.9 15.4-2.45 10.22-11.86 17.73-19.43 23.75l-.68.55a116.5 116.5 0 0 1-9.02 6.49c3.9 6.49 11.53 7.65 17.98 6.36a283.42 283.42 0 0 0 73.63-25.7 2 2 0 1 1 1.82 3.56 287.35 287.35 0 0 1-74.66 26.06c-9.67 1.94-17.91-1.23-22.16-8.17-11.6 6.95-24.73 12.07-39.2 15.28-9.56 2.11-19.81.52-26.75-4.17a22.81 22.81 0 0 1-4.84-4.37 164.9 164.9 0 0 1-5.8 2.89c-9.65 4.57-25.97 10.1-40.77 10.1zm3.52-67.9a26.6 26.6 0 0 0-14.93 4.85c-13.84 9.59-17.62 25.03-16.54 36.28a29.26 29.26 0 0 0 2.67 10.1c6.95-2.3 13.37-5.04 18.74-7.46 13.05-5.87 26.6-13.52 28.19-25.7.9-6.92-4.09-14.37-11.35-16.94a20.2 20.2 0 0 0-6.77-1.13zm69.24 2.53c-3.1 0-6.67 1-10.45 3.38-12.56 7.91-19.07 22.66-16.6 37.59a19.22 19.22 0 0 0 2.13 6.21c12.57-6.88 23.09-14.86 31.35-23.8 4.96-5.36 7.78-13.4 2.9-19.28-2.03-2.43-5.3-4.1-9.33-4.1zm66.62-1.04c-1.24 0-2.6.3-4.05.91-4.24 1.77-8.73 5.66-11.7 10.14-5.79 8.69-7.5 20.07-4.5 29.8a108.6 108.6 0 0 0 8.16-5.9l.68-.54c7.09-5.65 15.9-12.67 18.03-21.56 1.1-4.57.06-9.16-2.6-11.42a6.04 6.04 0 0 0-4.03-1.43zm-21.46-242.3a13.82 13.82 0 0 0-8.37-24.81h-4.22a13.82 13.82 0 0 0-6.91-22.27v-.01c5.18-6.3-1.98-14.54-1.98-14.54-2.78 10.25-17.19 14.15-17.19 14.15a13.82 13.82 0 0 0-8.93 22.66h-4.22a13.82 13.82 0 0 0-13.82 13.82 13.8 13.8 0 0 0 5.44 11h-1.31a13.82 13.82 0 1 0 0 27.64h61.47a13.82 13.82 0 0 0 .04-27.64zm-47.26-2.69a5.02 5.02 0 1 1 10.04 0 5.02 5.02 0 0 1-10.04 0zm6 18.72a10.63 10.63 0 1 1 21.25 0h-21.26zm21.94-13.7a5.02 5.02 0 1 1 0-10.03 5.02 5.02 0 0 1 0 10.03zM838.99 876.85a13.82 13.82 0 0 0-8.37-24.81h-4.22a13.82 13.82 0 0 0-6.91-22.27c5.18-6.3-1.98-14.55-1.98-14.55-2.78 10.26-17.19 14.15-17.19 14.15a13.82 13.82 0 0 0-8.93 22.67h-4.22a13.82 13.82 0 0 0-13.82 13.82 13.8 13.8 0 0 0 5.45 10.99h-1.32a13.82 13.82 0 1 0 0 27.64h61.47a13.82 13.82 0 0 0 .04-27.64zm-47.26-2.68a5.02 5.02 0 1 1 10.04 0 5.02 5.02 0 0 1-10.04 0zm6 18.71a10.63 10.63 0 1 1 21.25 0h-21.26zm21.94-13.7a5.02 5.02 0 1 1 0-10.03 5.02 5.02 0 0 1 0 10.03zm399.79-586.14a13.82 13.82 0 0 0-8.37-24.81h-4.22a13.82 13.82 0 0 0-6.91-22.27v-.01c5.18-6.3-1.98-14.54-1.98-14.54-2.78 10.25-17.19 14.15-17.19 14.15a13.82 13.82 0 0 0-8.93 22.66h-4.22a13.82 13.82 0 0 0-13.82 13.82 13.8 13.8 0 0 0 5.45 11h-1.32a13.82 13.82 0 1 0 0 27.64h61.47a13.82 13.82 0 0 0 .04-27.64zm-47.26-2.69a5.02 5.02 0 1 1 10.04 0 5.02 5.02 0 0 1-10.04 0zm6 18.72a10.63 10.63 0 1 1 21.26 0h-21.27zm21.94-13.7a5.02 5.02 0 1 1 0-10.03 5.02 5.02 0 0 1 0 10.03zm136.26-2.33a13.82 13.82 0 0 0-8.37-24.81h-4.22a13.82 13.82 0 0 0-6.91-22.27v-.01c5.19-6.3-1.98-14.54-1.98-14.54-2.77 10.25-17.18 14.15-17.18 14.15a13.82 13.82 0 0 0-8.94 22.66h-4.22a13.82 13.82 0 0 0-13.82 13.82 13.8 13.8 0 0 0 5.45 11h-1.32a13.82 13.82 0 0 0 0 27.64h61.47a13.82 13.82 0 0 0 .04-27.64zm-47.25-2.69a5.02 5.02 0 1 1 10.03 0 5.02 5.02 0 0 1-10.03 0zm5.99 18.72a10.63 10.63 0 1 1 21.26 0h-21.26zm21.95-13.7a5.02 5.02 0 1 1 0-10.03 5.02 5.02 0 0 1 0 10.03z"/><path fill="#FFF" d="m1536.9 621.8 42.34 238.06 99.96-17.78c59.68-10.62 101.29-63.33 99.7-122.15l-142.04-115.9-99.96 17.77zm-325.62 57.92c-65.74 11.69-109.55 74.46-97.86 140.2 11.7 65.73 74.46 109.55 140.2 97.85l99.96-17.78-42.34-238.05-99.96 17.78z"/><path d="m1311.17 661.93 225.65-40.14 42.34 238.05-225.66 40.13zm328.86-40.09c11.7 65.74 74.46 109.55 140.2 97.86l-142.04-115.92c.16 5.97.76 12 1.84 18.06z"/><g fill="#FFD829"><circle cx="1368.28" cy="708.66" r="18.18"/><circle cx="1433.88" cy="697" r="18.18"/><circle cx="1499.47" cy="685.33" r="18.18"/><circle cx="1379.65" cy="772.56" r="18.18"/><circle cx="1445.24" cy="760.9" r="18.18"/><circle cx="1510.83" cy="749.23" r="18.18"/><circle cx="1391.01" cy="836.46" r="18.18"/><circle cx="1456.61" cy="824.8" r="18.18"/><circle cx="1522.2" cy="813.13" r="18.18"/></g><path fill="#FFD829" d="m326.31 155.21-61.21 33.13 30.05 62.79-69.02-9.21-12.55 68.5-50.42-48.05-50.43 48.05-12.54-68.5-69.02 9.21 30.04-62.79L0 155.21l61.21-33.13-30.04-62.79 69.02 9.2L112.73 0l50.43 48.05L213.58 0l12.55 68.49 69.02-9.2-30.05 62.79z"/><path d="M446.14 1028.25a59.8 59.8 0 0 1-59.82-59.77V504a291.9 291.9 0 0 0-38.15-2.5C188.42 501.5 58.92 631 58.92 790.74S188.42 1080 348.17 1080a287.9 287.9 0 0 0 165.11-51.75h-67.14z"/><circle fill="#FFF" cx="163.16" cy="158.55" r="11.02"/><path fill="#FFF" d="M150.47 526.15C114.8 472.07 93.2 419.02 86.24 368.48c-5.59-40.5-1.82-79.5 11.18-115.87 22.14-61.95 64.08-95.3 64.5-95.64l2.47 3.15c-.41.32-41.56 33.1-63.28 94.03-12.74 35.75-16.4 74.08-10.9 113.93 6.91 49.9 28.3 102.34 63.6 155.87l-3.34 2.2z"/><path d="m83.89 560.66 114.26-84.83 54.19 72.98-114.26 84.84z"/><path fill="#FFF" d="M390.44 827.19a45.5 45.5 0 0 1 45.5-45.5 45.5 45.5 0 0 1-45.5-45.5 45.5 45.5 0 0 1-45.5 45.5 45.5 45.5 0 0 1 45.5 45.5z"/></svg>