<svg xmlns="http://www.w3.org/2000/svg" fill="none" viewBox="0 0 190 190">
  <path fill="#fff" d="M0 0h190v190H0z"/>
  <path fill="#F498AD" d="M95 0h95v190H95V0Z"/>
  <path fill="#123E66" d="M0 0h95v190H0V0ZM190 190c0-26.325-21.266-47.666-47.5-47.666-26.233 0-47.5 21.341-47.5 47.666h95Zm0-47.666c0-26.326-21.266-47.667-47.5-47.667-26.233 0-47.5 21.341-47.5 47.667h95Zm0-47.667C190 68.3417 168.734 47 142.5 47 116.267 47 95 68.3406 95 94.667h95Z"/>
  <path fill="#2E9AFF" d="M47.5 190c26.2335 0 47.5-21.266 47.5-47.5S73.7335 95 47.5 95 0 116.266 0 142.5 21.2665 190 47.5 190Z"/>
  <path fill="#2E9AFF" d="M0 0h95v142.5H0V0Z"/>
</svg>
