<svg xmlns="http://www.w3.org/2000/svg" viewBox="0 0 1920 1080" xml:space="preserve"><path d="M472.01 83.34a64 64 0 0 1-64.2 63.8L63.8 146.01A64 64 0 0 1 0 81.82l.05-16a64 64 0 0 1 64.21-63.8l344.01 1.11a64 64 0 0 1 63.8 64.2l-.06 16z"/><path fill="#FFF" d="M100.45 92.36a2.91 2.91 0 0 1-2.92 2.91c-.52 0-1.14-.2-1.77-.41l-32.1-14.49c-1.56-.73-2.2-1.56-2.2-2.92 0-1.35.84-2.3 2.2-2.92l32.1-14.48c.63-.21 1.25-.42 1.77-.42a2.91 2.91 0 0 1 2.92 2.92c0 1.14-.94 2.19-2.3 2.81l-27.61 12.1 27.62 12.08c1.35.63 2.3 1.67 2.3 2.82zm28.14 14.17c-1.78 0-3.03-1.25-3.03-3.33V39.93c0-2.09 1.15-3.34 3.13-3.34 1.77 0 3.02 1.25 3.02 3.34v26.26c3.13-4.58 8.45-6.35 14.18-6.35 10.42 0 17.3 6.25 17.3 18.76v24.6c0 2.08-1.15 3.33-3.13 3.33-1.77 0-3.02-1.25-3.02-3.33V79.95c0-10.42-5.42-14.38-12.2-14.38-7.4 0-13.13 3.96-13.13 14.49v23.14c0 2.08-1.14 3.33-3.12 3.33zm53.56-23.24c0-13.86 10.42-23.45 23.66-23.45 12.82 0 22.93 8.75 22.93 21.47 0 1.98-.94 3.33-3.44 3.33h-36.79c.63 9.38 7.82 16.16 18.24 16.16 6.36 0 10.73-1.98 14.9-4.9 1.15-.73 1.98-1.67 3.55-1.67a2.83 2.83 0 0 1 2.92 2.82c0 1.56-.73 2.4-2.4 3.64-3.86 3.03-10.74 5.84-19.28 5.84-14.07 0-24.29-9.48-24.29-23.24zm6.78-4.17h33.25c-.73-8.13-8.24-13.55-16.37-13.55a17.07 17.07 0 0 0-16.88 13.55zm56.17 13.13c0-8.86 8.75-14.28 19.39-14.28 5.83 0 11.88 1.36 16.05 4.38v-3.86c0-7.81-5.22-12.92-14.9-12.92-3.55 0-7.2.62-11.06 2.6-1.25.63-2.92 1.67-4.27 1.67-1.88 0-3.02-1.25-3.02-3.02 0-1.56 1.25-2.6 3.23-3.65 2.7-1.46 8.54-3.33 15.11-3.33 13.65 0 20.95 6.25 20.95 18.55v24.8c0 2.09-1.04 3.34-3.02 3.34-1.78 0-3.03-1.25-3.03-3.34v-1.04c-4.17 3.03-10.21 4.38-16.05 4.38-10.63 0-19.38-5.42-19.38-14.28zm35.85 0c0-5.1-5.62-8.96-14.7-8.96-9.06 0-14.69 3.85-14.69 8.96 0 5.1 5.63 8.96 14.7 8.96 9.06 0 14.7-3.85 14.7-8.96zm23.76-9.07c0-13.65 8.55-23.34 21.26-23.34 5.94 0 11.68 2.4 14.9 7.3V39.92c0-2.09 1.26-3.34 3.03-3.34 1.98 0 3.13 1.25 3.13 3.34v63.27c0 2.08-1.25 3.33-3.03 3.33-1.98 0-3.12-1.25-3.12-3.34v-3.96c-3.13 5-8.97 7.3-14.9 7.3-12.72 0-21.27-9.7-21.27-23.35zm36.8 0c0-10.52-6.16-17.61-15.23-17.61-9.06 0-15.21 7.09-15.21 17.61s6.15 17.62 15.21 17.62c9.07 0 15.22-7.09 15.22-17.62zm30.11-20.63a2.91 2.91 0 0 1 2.92-2.92c.52 0 1.14.2 1.77.41l32.1 14.5c1.35.62 2.19 1.56 2.19 2.91 0 1.36-.63 2.19-2.19 2.92l-32.1 14.49c-.63.2-1.25.42-1.77.42a2.91 2.91 0 0 1-2.92-2.92c0-1.15.83-2.2 2.3-2.82l27.61-12.09-27.62-12.09c-1.46-.62-2.3-1.67-2.3-2.81zM686.07 1071.4a98.97 98.97 0 0 1-45.53-10.94 90.24 90.24 0 0 0-82.03 0 98.98 98.98 0 0 1-45.53 10.94 98.98 98.98 0 0 1-45.52-10.94 90.24 90.24 0 0 0-82.04 0 98.98 98.98 0 0 1-48.48 10.9c-31.61-.92-60.13-17.89-76.3-45.39a93.3 93.3 0 0 1-2.42-90.79L493.45 482.7a2.5 2.5 0 1 1 4.44 2.3L262.65 937.5a88.32 88.32 0 0 0 2.3 85.95c15.29 26 42.25 42.05 72.14 42.91a94.01 94.01 0 0 0 46.06-10.35 95.26 95.26 0 0 1 86.58 0 94 94 0 0 0 43.25 10.4 94 94 0 0 0 43.25-10.4 95.26 95.26 0 0 1 86.6 0 94 94 0 0 0 43.24 10.4c52.45 0 95.12-42.68 95.12-95.13a2.5 2.5 0 1 1 5 0c0 55.21-44.91 100.13-100.12 100.13zm894.03 0a98.98 98.98 0 0 1-45.52-10.94 90.24 90.24 0 0 0-82.03 0c-14.18 7.26-29.5 10.94-45.53 10.94s-31.35-3.68-45.53-10.94a90.24 90.24 0 0 0-82.03 0 98.99 98.99 0 0 1-45.53 10.94c-55.2 0-100.12-44.92-100.12-100.13a2.5 2.5 0 1 1 5 0c0 52.45 42.67 95.13 95.12 95.13 15.23 0 29.78-3.5 43.25-10.4a95.26 95.26 0 0 1 86.6 0 94 94 0 0 0 43.24 10.4 94 94 0 0 0 43.25-10.4 95.26 95.26 0 0 1 86.6 0 94 94 0 0 0 46.05 10.36c29.88-.87 56.84-16.91 72.12-42.92a88.32 88.32 0 0 0 2.3-85.95L1422.12 485a2.5 2.5 0 1 1 4.44-2.3l235.23 452.47a93.3 93.3 0 0 1-2.43 90.8c-16.15 27.5-44.67 44.46-76.3 45.37a95 95 0 0 1-2.94.05z"/><path fill="#FFF" d="M1436.21 465.54c-6.35.03-12.61.46-18.77 1.18-58.59-198.51-242.7-342.93-460.07-341.8-217.35 1.12-399.98 147.44-456.5 346.54a166.84 166.84 0 0 0-18.79-1c-91.48.48-165.26 75.03-164.79 166.5.48 91.5 75.02 165.27 166.5 164.8a165.96 165.96 0 0 0 40.38-5.2c74.82 167.3 243.1 283.48 438.13 282.48 195.03-1.01 362.1-118.93 435.2-286.98a166.06 166.06 0 0 0 40.42 4.77c91.48-.47 165.26-75.02 164.79-166.5-.47-91.49-75.01-165.26-166.5-164.8zM967.07 943.77c-78.96 0-142.96-64.01-142.96-142.97h285.92c0 78.96-64 142.97-142.96 142.97zM609.55 401.05c65.82-125.78 197.25-211.92 349.1-212.7 153.32-.8 286.7 85.62 353.21 212.7H609.55z"/><path d="M1408.93 705.13a2.5 2.5 0 0 1-1.83-4.2l102.16-109.9a2.5 2.5 0 0 1 3.66 3.4l-102.16 109.9c-.5.53-1.16.8-1.83.8zm-898.99-4.63a2.5 2.5 0 0 1-1.85-.82L407.06 588.7a2.5 2.5 0 0 1 3.7-3.36L511.79 696.3a2.5 2.5 0 0 1-1.85 4.18zm609.19-47.05a52.33 52.33 0 1 0 104.65.53 52.33 52.33 0 0 0-104.65-.53z"/><path d="M1298.27 670.35a2.5 2.5 0 0 1-2.07-1.1 149.98 149.98 0 0 0-124.08-65.81c-49.1 0-95.11 24.08-123.21 64.52a2.5 2.5 0 1 1-4.1-2.85 155.05 155.05 0 0 1 127.31-66.67h.8a155 155 0 0 1 127.42 68 2.5 2.5 0 0 1-2.07 3.9zm-592.31-16.9a52.32 52.32 0 1 0 104.65.54 52.32 52.32 0 0 0-104.65-.54z"/><path d="M758.28 603.9a49.88 49.88 0 0 0-49.82 49.57 49.48 49.48 0 0 0 14.41 35.3 49.5 49.5 0 0 0 35.15 14.77h.27a49.5 49.5 0 0 0 35.05-14.4 49.5 49.5 0 0 0 14.78-35.16 49.5 49.5 0 0 0-14.42-35.3 49.5 49.5 0 0 0-35.16-14.78h-.26z"/><path d="M887.29 670.35a2.5 2.5 0 0 1-2.07-1.1 149.97 149.97 0 0 0-124.08-65.81c-49.1 0-95.12 24.08-123.22 64.52a2.5 2.5 0 0 1-4.1-2.85 155.06 155.06 0 0 1 127.32-66.67h.8c51.06.27 98.7 25.7 127.41 68a2.5 2.5 0 0 1-2.06 3.9zm79.54 76.9a2.5 2.5 0 0 1-2.5-2.5l.47-91.65a2.5 2.5 0 0 1 2.5-2.49h.02a2.5 2.5 0 0 1 2.48 2.51l-.47 91.65a2.5 2.5 0 0 1-2.5 2.48zm477.23-281.69a2.5 2.5 0 0 1-.02-5l7.66-.04c-.73-2.42-1.48-4.85-2.25-7.28a2.5 2.5 0 0 1 4.76-1.51c1.12 3.52 2.21 7.08 3.24 10.56a2.5 2.5 0 0 1-2.38 3.21l-11 .06h-.01zm-970.65-26.74a2.5 2.5 0 0 1-2.36-3.34 517.05 517.05 0 0 1 7.92-20.8 2.5 2.5 0 0 1 4.63 1.88 512.73 512.73 0 0 0-7.83 20.6 2.5 2.5 0 0 1-2.36 1.66zm971.23-4.81a2.5 2.5 0 0 1-2.35-1.64 512.2 512.2 0 0 0-8.06-20.58 2.5 2.5 0 0 1 4.62-1.92 518.61 518.61 0 0 1 8.14 20.77 2.5 2.5 0 0 1-2.35 3.37zm-954.6-36.23a2.5 2.5 0 0 1-2.27-3.54 518.77 518.77 0 0 1 9.68-20.05 2.5 2.5 0 1 1 4.45 2.27 514.6 514.6 0 0 0-9.58 19.85 2.5 2.5 0 0 1-2.28 1.47zm937.52-4.75a2.5 2.5 0 0 1-2.27-1.44 514.5 514.5 0 0 0-9.8-19.8 2.5 2.5 0 1 1 4.43-2.3 520.07 520.07 0 0 1 9.9 19.98 2.5 2.5 0 0 1-2.26 3.56zm-917.4-34.73a2.5 2.5 0 0 1-2.17-3.73 520.8 520.8 0 0 1 11.36-19.14 2.5 2.5 0 0 1 4.24 2.64 516.08 516.08 0 0 0-11.26 18.96 2.5 2.5 0 0 1-2.18 1.27zm896.85-4.6a2.5 2.5 0 0 1-2.17-1.26 515.52 515.52 0 0 0-11.47-18.87 2.5 2.5 0 0 1 4.22-2.68 522.47 522.47 0 0 1 11.58 19.05 2.5 2.5 0 0 1-2.16 3.75zm-873.43-33a2.5 2.5 0 0 1-2.06-3.91c4.17-6.1 8.53-12.2 12.97-18.11a2.5 2.5 0 0 1 4 3c-4.4 5.86-8.71 11.9-12.84 17.93a2.5 2.5 0 0 1-2.07 1.09zm849.58-4.42a2.5 2.5 0 0 1-2.05-1.06 524 524 0 0 0-13.04-17.82 2.5 2.5 0 1 1 3.97-3.04c4.5 5.89 8.93 11.94 13.17 17.99a2.5 2.5 0 0 1-2.05 3.93zm-823-31.06a2.5 2.5 0 0 1-1.94-4.08 521.78 521.78 0 0 1 14.47-16.94 2.5 2.5 0 1 1 3.73 3.33 517.82 517.82 0 0 0-14.33 16.77c-.5.6-1.21.92-1.94.92zm796.04-4.16a2.5 2.5 0 0 1-1.92-.9 519.5 519.5 0 0 0-14.5-16.63 2.5 2.5 0 0 1 3.69-3.36 526.95 526.95 0 0 1 14.65 16.79 2.5 2.5 0 0 1-1.92 4.1zm-766.54-28.93a2.5 2.5 0 0 1-1.79-4.24c5.16-5.3 10.5-10.57 15.86-15.64a2.5 2.5 0 0 1 3.44 3.63 518.1 518.1 0 0 0-15.71 15.5c-.5.5-1.14.75-1.8.75zm736.68-3.85a2.5 2.5 0 0 1-1.77-.74 520.06 520.06 0 0 0-15.87-15.33 2.5 2.5 0 0 1 3.4-3.67 525.34 525.34 0 0 1 16.02 15.48 2.5 2.5 0 0 1-1.78 4.26zm-704.45-26.6a2.5 2.5 0 0 1-1.64-4.39 520.9 520.9 0 0 1 17.15-14.23 2.5 2.5 0 0 1 3.1 3.91 518.1 518.1 0 0 0-16.97 14.1 2.5 2.5 0 0 1-1.64.61zm671.92-3.5c-.58 0-1.15-.2-1.62-.6a518.07 518.07 0 0 0-17.12-13.92 2.5 2.5 0 1 1 3.07-3.94 521.94 521.94 0 0 1 17.28 14.05 2.5 2.5 0 0 1-1.62 4.4zm-637.2-24.1a2.5 2.5 0 0 1-1.47-4.52 522.85 522.85 0 0 1 18.3-12.72 2.5 2.5 0 1 1 2.76 4.17c-6.1 4.04-12.2 8.28-18.12 12.6-.45.32-.96.47-1.47.47zm602.22-3.13c-.5 0-1.01-.14-1.45-.46a520.52 520.52 0 0 0-18.24-12.4 2.5 2.5 0 1 1 2.73-4.19 500.2 500.2 0 0 1 18.4 12.52 2.5 2.5 0 0 1-1.44 4.54zm-565.26-21.4a2.5 2.5 0 0 1-1.3-4.63 518.4 518.4 0 0 1 19.33-11.11 2.5 2.5 0 0 1 2.4 4.39 512.77 512.77 0 0 0-19.14 11c-.4.24-.85.36-1.3.36zm528.1-2.71c-.44 0-.88-.11-1.28-.35a514.87 514.87 0 0 0-19.22-10.78 2.5 2.5 0 1 1 2.35-4.42 519.03 519.03 0 0 1 19.41 10.9 2.5 2.5 0 0 1-1.27 4.65zM732.5 148.29a2.5 2.5 0 0 1-1.1-4.75 516.73 516.73 0 0 1 20.22-9.4 2.5 2.5 0 1 1 2.01 4.58 511.8 511.8 0 0 0-20.03 9.31 2.5 2.5 0 0 1-1.1.26zm450.08-2.28c-.37 0-.73-.08-1.08-.25a515.85 515.85 0 0 0-20.07-9.09 2.5 2.5 0 1 1 1.96-4.6c6.8 2.91 13.62 6 20.27 9.18a2.5 2.5 0 0 1-1.08 4.76zm-409.44-15.56a2.5 2.5 0 0 1-.9-4.83A504.1 504.1 0 0 1 793.2 118a2.5 2.5 0 1 1 1.6 4.73 513.41 513.41 0 0 0-20.76 7.55c-.3.12-.6.17-.9.17zm368.73-1.83c-.3 0-.6-.05-.88-.16a513.02 513.02 0 0 0-20.78-7.32 2.5 2.5 0 0 1 1.56-4.75c7 2.3 14.06 4.79 20.98 7.4a2.5 2.5 0 0 1-.88 4.83zm-326.7-12.43a2.5 2.5 0 0 1-.69-4.9 517.01 517.01 0 0 1 21.55-5.78 2.5 2.5 0 1 1 1.2 4.86 512.1 512.1 0 0 0-21.35 5.72c-.24.07-.47.1-.7.1zm284.66-1.37a2.5 2.5 0 0 1-.68-.1 509.13 509.13 0 0 0-21.37-5.5 2.5 2.5 0 1 1 1.15-4.87 513.4 513.4 0 0 1 21.57 5.57 2.5 2.5 0 0 1-.67 4.9zm-241.52-9.2a2.5 2.5 0 0 1-.48-4.95 524 524 0 0 1 21.94-3.88 2.5 2.5 0 1 1 .76 4.94 521.8 521.8 0 0 0-21.72 3.85 2.8 2.8 0 0 1-.5.05zm198.36-.94a2.5 2.5 0 0 1-.47-.04 516.47 516.47 0 0 0-21.76-3.64 2.5 2.5 0 1 1 .72-4.95 503.1 503.1 0 0 1 21.97 3.68 2.5 2.5 0 0 1-.46 4.95zm-154.54-5.85a2.5 2.5 0 0 1-.28-4.98c7.33-.82 14.8-1.5 22.2-2a2.5 2.5 0 1 1 .34 4.99 515.83 515.83 0 0 0-22.26 2zm110.67-.52c-.08 0-.17 0-.25-.02a522.13 522.13 0 0 0-22-1.76 2.5 2.5 0 0 1 .3-5c7.4.44 14.86 1.04 22.2 1.79a2.5 2.5 0 0 1-.25 4.99zm-66.43-2.5a2.5 2.5 0 0 1-.07-5 523.26 523.26 0 0 1 22.28-.11 2.5 2.5 0 0 1-.08 5 521.9 521.9 0 0 0-22.07.1h-.06zM463.26 470.62a2.5 2.5 0 0 1-2.4-3.18c1-3.54 2.05-7.1 3.12-10.6a2.5 2.5 0 1 1 4.78 1.47 449.4 449.4 0 0 0-2.18 7.3l7.66-.04h.02a2.5 2.5 0 0 1 0 5l-11 .05zm32.54-.17a2.5 2.5 0 0 1 0-5l21.55-.1a2.5 2.5 0 0 1 .02 5l-21.55.1h-.01zm43.11-.22a2.5 2.5 0 0 1-.01-5l21.55-.11a2.5 2.5 0 0 1 .03 5l-21.56.11h-.01zm43.1-.22a2.5 2.5 0 0 1-.01-5l21.55-.11h.01a2.5 2.5 0 0 1 .02 5l-21.56.1zm43.1-.22a2.5 2.5 0 0 1 0-5l21.54-.12h.02a2.5 2.5 0 0 1 0 5l-21.54.12h-.02zm43.1-.23a2.5 2.5 0 0 1 0-5l21.54-.1h.02a2.5 2.5 0 0 1 .01 5l-21.55.1h-.01zm43.1-.22a2.5 2.5 0 0 1 0-5l21.55-.11h.01a2.5 2.5 0 0 1 .01 5l-21.55.11h-.01zm43.11-.22a2.5 2.5 0 0 1-.01-5l21.55-.11h.01a2.5 2.5 0 0 1 .01 5l-21.55.1h-.01zm43.1-.22a2.5 2.5 0 0 1-.01-5l21.55-.11h.01a2.5 2.5 0 0 1 .02 5l-21.55.1h-.02zm43.1-.23a2.5 2.5 0 0 1 0-5l21.54-.1h.01a2.5 2.5 0 0 1 .02 5l-21.55.1h-.01zm43.1-.22a2.5 2.5 0 0 1 0-5l21.54-.11h.02a2.5 2.5 0 0 1 .01 5l-21.55.11h-.01zm43.1-.22a2.5 2.5 0 0 1 0-5l21.55-.11h.01a2.5 2.5 0 0 1 .01 5l-21.55.1h-.01zm43.11-.22a2.5 2.5 0 0 1-.01-5l21.55-.12h.01a2.5 2.5 0 0 1 .02 5l-21.55.12h-.02zm43.1-.23a2.5 2.5 0 0 1-.01-5l21.55-.1h.01a2.5 2.5 0 0 1 .02 5l-21.55.1h-.02zm43.1-.22a2.5 2.5 0 0 1 0-5l21.54-.11h.02a2.5 2.5 0 0 1 .01 5l-21.55.11h-.01zm43.1-.22a2.5 2.5 0 0 1 0-5l21.55-.11a2.5 2.5 0 0 1 .02 5l-21.55.1h-.01zm43.11-.22a2.5 2.5 0 0 1-.01-5l21.55-.12h.01a2.5 2.5 0 0 1 .01 5l-21.55.12h-.01zm43.1-.23a2.5 2.5 0 0 1-.01-5l21.55-.1h.01a2.5 2.5 0 0 1 .02 5l-21.56.1zm43.1-.22a2.5 2.5 0 0 1 0-5l21.54-.11h.02a2.5 2.5 0 0 1 0 5l-21.54.11h-.02zm43.1-.22a2.5 2.5 0 0 1 0-5l21.54-.11h.02a2.5 2.5 0 0 1 .01 5l-21.55.1h-.01zm43.1-.22a2.5 2.5 0 0 1 0-5l21.55-.12h.01a2.5 2.5 0 0 1 .01 5l-21.55.12h-.01zm43.11-.23a2.5 2.5 0 0 1-.01-5l21.55-.1h.01a2.5 2.5 0 0 1 .01 5l-21.55.1zm43.1-.22a2.5 2.5 0 0 1-.01-5l21.55-.11h.01a2.5 2.5 0 0 1 .02 5l-21.56.11z"/><path fill="#FF8630" d="m1044.47 334.32-169.34-.83a26.38 26.38 0 0 1-26.25-26.5l.13-26.39a26.38 26.38 0 0 1 26.51-26.25l169.34.83a26.38 26.38 0 0 1 26.25 26.51l-.13 26.38a26.38 26.38 0 0 1-26.5 26.25z"/><path fill="#FFF" d="M893.7 314.94h-.07c-8.15-.04-12.16-6.88-13.14-10.49a2.5 2.5 0 0 1-.09-.66l.15-29.26a2.5 2.5 0 0 1 5 .03l-.14 28.86c.44 1.3 2.57 6.5 8.25 6.52h.04c5.64 0 7.81-5.13 8.27-6.44l.15-28.86a2.5 2.5 0 0 1 2.5-2.49h.01a2.5 2.5 0 0 1 2.49 2.52l-.15 29.25c0 .22-.03.45-.09.66-1.01 3.6-5.07 10.36-13.17 10.36zm132.53.66h-.07c-8.16-.05-12.16-6.89-13.14-10.5a2.5 2.5 0 0 1-.09-.66l.14-29.25a2.5 2.5 0 0 1 2.5-2.5h.02a2.5 2.5 0 0 1 2.48 2.52l-.14 28.87c.44 1.29 2.57 6.49 8.25 6.51h.05c5.64 0 7.82-5.17 8.27-6.43l.14-28.87a2.5 2.5 0 0 1 2.5-2.49h.02a2.5 2.5 0 0 1 2.48 2.52l-.14 29.25c0 .22-.03.45-.1.66-1 3.6-5.06 10.36-13.17 10.36z"/><circle transform="rotate(-89.72 927.2 289.75)" fill="#FFF" cx="927.21" cy="289.75" r="5.3"/><circle transform="rotate(-89.72 993.41 290.08)" fill="#FFF" cx="993.42" cy="290.08" r="5.3"/><path fill="#FFF" d="M969.14 294.44c-.03 5.4-6.38 14.87-9.85 14.85-3.11-.01-9.74-9.54-9.7-14.95a9.78 9.78 0 0 1 19.55.1z"/><path fill="#FFF" d="M949.66 316.22a7.46 7.46 0 0 1-2.62-.44 2.5 2.5 0 0 1 1.74-4.7c.46.16 4.28 1.12 7.24-6.04a2.5 2.5 0 0 1 4.62 1.91c-3.03 7.33-7.65 9.27-10.98 9.27z"/><path fill="#FFF" d="M968.93 316.32c-3.34 0-8-1.96-10.97-9.38a2.5 2.5 0 1 1 4.63-1.87c3.04 7.55 7.1 6.15 7.14 6.14a2.5 2.5 0 1 1 1.74 4.69 7.4 7.4 0 0 1-2.54.42z"/><path d="M442.92 894.66c-3.06 0-6.13-.18-9.24-.57-40.49-5.06-69.31-42.12-64.25-82.61 5.06-40.5 42.12-69.3 82.61-64.26a20 20 0 0 1-4.96 39.7 34.04 34.04 0 0 0-37.96 29.52 34.04 34.04 0 0 0 29.52 37.96 34.04 34.04 0 0 0 37.96-29.53 20 20 0 1 1 39.7 4.97c-4.68 37.38-36.64 64.82-73.38 64.82zm1039.53-6.12a73.44 73.44 0 0 1-45.28-15.6 73.52 73.52 0 0 1-28-49.24 20 20 0 0 1 39.7-4.96 33.78 33.78 0 0 0 12.85 22.63 33.77 33.77 0 0 0 25.1 6.9 33.77 33.77 0 0 0 22.62-12.87 33.78 33.78 0 0 0 6.9-25.1 33.78 33.78 0 0 0-12.86-22.61 33.76 33.76 0 0 0-25.1-6.9 20 20 0 1 1-4.96-39.7 73.54 73.54 0 0 1 54.61 15.02 73.52 73.52 0 0 1 28 49.24c2.45 19.61-2.88 39-15.01 54.61s-29.63 25.55-49.24 28c-3.12.39-6.23.58-9.33.58zM1919.94 83.4a64 64 0 0 1-64.23 63.78l-344-1.2a64 64 0 0 1-63.78-64.22l.06-16a64 64 0 0 1 64.22-63.78l344 1.2A64 64 0 0 1 1920 67.4l-.06 16z"/><path d="M1517.64 92.36a2.91 2.91 0 0 1-2.92 2.91c-.52 0-1.15-.2-1.77-.41l-32.1-14.49c-1.57-.73-2.2-1.56-2.2-2.92 0-1.35.84-2.3 2.2-2.92l32.1-14.49c.62-.2 1.25-.41 1.77-.41a2.91 2.91 0 0 1 2.92 2.92c0 1.14-.94 2.19-2.3 2.81l-27.62 12.1 27.62 12.08c1.36.63 2.3 1.67 2.3 2.82zm68.46-55.76c1.88 0 2.93 1.24 2.93 2.8 0 .74-.21 1.36-.53 1.88l-50.03 84.12c-.52.93-1.56 1.77-2.7 1.77-1.88 0-2.92-1.25-2.92-2.82 0-.72.2-1.35.52-1.87l50.03-84.11c.52-.94 1.56-1.78 2.7-1.78zm21.16 69.93c-1.77 0-3.02-1.25-3.02-3.33V39.93c0-2.09 1.14-3.34 3.12-3.34 1.78 0 3.03 1.25 3.03 3.34v26.26c3.12-4.58 8.44-6.35 14.17-6.35 10.42 0 17.3 6.25 17.3 18.76v24.6c0 2.08-1.14 3.33-3.12 3.33-1.78 0-3.03-1.25-3.03-3.33V79.95c0-10.42-5.42-14.38-12.2-14.38-7.4 0-13.12 3.96-13.12 14.49v23.14c0 2.08-1.15 3.33-3.13 3.33zm53.57-23.24c0-13.86 10.42-23.45 23.66-23.45 12.82 0 22.93 8.75 22.93 21.47 0 1.98-.94 3.33-3.44 3.33h-36.8c.63 9.38 7.82 16.16 18.24 16.16 6.36 0 10.74-1.98 14.9-4.9 1.16-.73 1.99-1.67 3.55-1.67a2.83 2.83 0 0 1 2.92 2.82c0 1.56-.73 2.4-2.4 3.64-3.85 3.03-10.73 5.84-19.28 5.84-14.07 0-24.28-9.48-24.28-23.24zm6.77-4.17h33.25c-.73-8.13-8.23-13.55-16.36-13.55a17.07 17.07 0 0 0-16.89 13.55zm56.17 13.13c0-8.86 8.76-14.28 19.39-14.28 5.83 0 11.88 1.36 16.05 4.38v-3.86c0-7.81-5.21-12.92-14.9-12.92-3.55 0-7.2.62-11.05 2.6-1.26.63-2.92 1.67-4.28 1.67-1.87 0-3.02-1.25-3.02-3.02 0-1.56 1.25-2.6 3.23-3.65 2.71-1.46 8.55-3.33 15.11-3.33 13.66 0 20.95 6.25 20.95 18.55v24.8c0 2.09-1.04 3.34-3.02 3.34-1.77 0-3.02-1.25-3.02-3.34v-1.04c-4.17 3.03-10.22 4.38-16.05 4.38-10.63 0-19.39-5.42-19.39-14.28zm35.86 0c0-5.1-5.63-8.96-14.7-8.96s-14.7 3.85-14.7 8.96c0 5.1 5.63 8.96 14.7 8.96s14.7-3.85 14.7-8.96zm23.75-9.07c0-13.65 8.55-23.34 21.27-23.34 5.94 0 11.67 2.4 14.9 7.3V39.92c0-2.09 1.25-3.34 3.02-3.34 1.98 0 3.13 1.25 3.13 3.34v63.27c0 2.08-1.25 3.33-3.02 3.33-1.98 0-3.13-1.25-3.13-3.34v-3.96c-3.13 5-8.96 7.3-14.9 7.3-12.72 0-21.27-9.7-21.27-23.35zm36.8 0c0-10.52-6.15-17.61-15.22-17.61s-15.22 7.09-15.22 17.61 6.15 17.62 15.22 17.62 15.22-7.09 15.22-17.62zm30.12-20.63a2.91 2.91 0 0 1 2.91-2.92c.52 0 1.15.2 1.77.41l32.1 14.5c1.36.62 2.2 1.56 2.2 2.91 0 1.36-.63 2.19-2.2 2.92l-32.1 14.49c-.62.2-1.25.42-1.77.42a2.91 2.91 0 0 1-2.92-2.92c0-1.15.83-2.2 2.3-2.82l27.62-12.09-27.63-12.09c-1.45-.62-2.29-1.67-2.29-2.81z" fill="#FFF"/><path d="M771.71 283.63c.27.59-.02 1.25-.57 1.5-.18.08-.44.1-.7.13l-13.67-.06c-.67 0-1.02-.2-1.23-.68-.22-.48-.07-.95.3-1.39l9.1-10.21c.18-.18.37-.35.56-.43a1.13 1.13 0 0 1 1.5.57c.17.4 0 .93-.37 1.36l-7.88 8.66 11.7-.09c.58.01 1.08.23 1.26.64zm18.17-20.26c.28.63.05 1.22-.76 1.58-1.11.5-5.7 2.42-7.35 3.1l3.1 6.95c1.69 3.77 3.58 4.74 6.2 3.57a8.4 8.4 0 0 0 2.38-1.63c.64-.65.9-.98 1.41-1.21a.98.98 0 0 1 1.34.51c.3.67.04 1.18-.7 2-.63.68-2.04 1.7-3.52 2.36-4.2 1.88-7 .51-9.27-4.59l-3.12-6.98c-1.09.53-3.22 1.62-4.3 2.1-.8.36-1.4.13-1.67-.5-.27-.59-.04-1.17.77-1.54l4.36-1.94-2.47-5.55c-.33-.73-.13-1.36.58-1.67.62-.28 1.27-.04 1.6.7l2.47 5.54 7.28-3.25c.81-.36 1.4-.14 1.67.45zm28.36 3.78c.28.63.05 1.22-.76 1.58l-13.12 5.86c-.8.36-1.4.14-1.68-.5-.26-.58-.04-1.17.78-1.53 1-.45 4.52-1.89 6.34-2.66l-5.34-11.97-5.85 2.79c-.81.36-1.4.13-1.68-.5-.26-.59-.04-1.17.77-1.54l6.91-3.08c.74-.33 1.38-.09 1.71.65l5.66 12.68c.98-.49 3.6-1.79 4.6-2.23.8-.36 1.4-.14 1.66.45zm-18.41-16.1c-.56-1.26.05-2.47 1.38-3.06s2.64-.25 3.2 1c.56 1.26-.05 2.47-1.38 3.06-1.33.6-2.64.25-3.2-1zm33.64-7.15c.28.64.05 1.22-.76 1.59-1.1.5-5.7 2.41-7.34 3.1l3.1 6.95c1.68 3.77 3.58 4.74 6.2 3.57a8.4 8.4 0 0 0 2.37-1.64c.65-.64.9-.98 1.41-1.2a.98.98 0 0 1 1.34.5c.3.67.04 1.18-.7 2a12.4 12.4 0 0 1-3.51 2.37c-4.22 1.88-7 .5-9.28-4.6l-3.11-6.98c-1.1.54-3.23 1.62-4.3 2.1-.81.36-1.4.14-1.68-.5-.26-.58-.04-1.17.77-1.53l4.36-1.95-2.47-5.54c-.33-.74-.12-1.37.58-1.68.63-.28 1.27-.04 1.6.7l2.47 5.55 7.28-3.25c.82-.37 1.4-.14 1.67.45zm4.67-10.76c-.81.36-1.4.14-1.68-.5-.27-.58-.04-1.17.77-1.53l6.61-2.96c.74-.33 1.38-.08 1.71.66l9.36 20.95c1.35-.65 4.96-2.4 5.7-2.73.8-.36 1.4-.13 1.66.46.28.63.06 1.21-.76 1.58l-13.93 6.22c-.8.36-1.4.14-1.68-.5-.26-.58-.04-1.17.78-1.54.66-.3 4.89-2.05 6.05-2.52l-9.04-20.25c-1.39.67-4.96 2.4-5.55 2.66zm26.49 5.14c-2.2-4.91-.02-9.96 4.67-12.06 4.55-2.03 9.52-.52 11.53 3.98.31.7.2 1.34-.69 1.73l-13.04 5.83c1.7 3.22 5.33 4.49 9.02 2.84a9.36 9.36 0 0 0 4.5-4.1c.3-.44.45-.9 1-1.15a1.1 1.1 0 0 1 1.48.53c.25.56.12.97-.27 1.68-.89 1.68-2.88 3.77-5.91 5.12-5 2.22-10.11.48-12.3-4.4zm1.74-2.55 11.79-5.26c-1.55-2.77-5.07-3.5-7.95-2.21a6.63 6.63 0 0 0-3.84 7.47zm18.54-15.33c-.26-.59.02-1.25.58-1.5.18-.08.44-.1.7-.13l13.66.06c.58 0 1.03.2 1.24.69.22.48.13.87-.31 1.38l-9.09 10.22c-.19.17-.37.34-.56.42-.55.25-1.23.02-1.5-.57-.18-.4-.05-.9.37-1.36l7.88-8.66-11.7.09c-.62 0-1.08-.23-1.27-.64zm171.79 9.87c-.3.57-.98.76-1.52.48-.18-.1-.36-.28-.54-.46l-8.45-10.74c-.4-.54-.47-.94-.23-1.4s.7-.64 1.28-.61l13.65.77c.25.04.5.08.68.17.54.28.78.95.48 1.53-.2.4-.71.58-1.29.56l-11.68-.8 7.34 9.12c.36.46.5.99.29 1.38zm7.02 7.9c-.55-.79-.72-1.34-.4-1.94.3-.58.96-.79 1.53-.49.6.32.87.96 1.33 1.65a11.72 11.72 0 0 0 4.32 3.8c3.3 1.72 5.4 1.36 6.17-.11.88-1.69-.42-3.05-3.75-5.42-3.66-2.6-6-5.04-4.44-8.02 1.62-3.12 5.4-2.66 8.73-.92a15.26 15.26 0 0 1 5.1 4.24c.37.52.5.95.22 1.5a1.1 1.1 0 0 1-1.53.47c-.39-.2-.7-.59-.94-.9a11.62 11.62 0 0 0-3.93-3.41c-2.58-1.35-4.73-1.42-5.52.09-.84 1.61.93 3.22 3.75 5.23 4.19 3 6.07 5.08 4.5 8.1-1.6 3.08-5.32 3.2-9.37 1.1a15.61 15.61 0 0 1-5.77-4.97zm41.31 4.77c-.31.6-.91.8-1.7.39a881.4 881.4 0 0 1-7-3.83l-3.51 6.75c-1.91 3.66-1.5 5.75 1.06 7.07.97.5 2.1.78 2.75.85.9.1 1.32.1 1.82.35.5.26.72.83.43 1.37-.33.64-.9.76-2 .69-.92-.07-2.6-.53-4.03-1.28-4.1-2.13-4.75-5.17-2.17-10.12l3.53-6.78c-1.1-.53-3.27-1.52-4.3-2.06-.8-.42-.99-1.02-.67-1.63.3-.57.9-.76 1.7-.35l4.23 2.2 2.8-5.38c.37-.72 1-.94 1.67-.58.61.31.82.97.45 1.68l-2.8 5.39 7.06 3.68c.8.41.98 1.01.68 1.59zm-6.8 22.42a1.15 1.15 0 0 1 1.57-.47c.4.21.73.52 1.04.82a5.29 5.29 0 0 0 4.5 1.52c1.7-.3 3.95-1.64 5.14-2.7l.85-17.22c.02-.58.02-1.09.22-1.48.3-.57.9-.76 1.58-.4.54.27.7.85.63 1.69l-1.03 15.8 12.37-9.9c.64-.53 1.2-.74 1.74-.46.68.36.87.96.57 1.53-.2.4-.62.68-1.08 1.03l-13.55 10.51c-4.7 3.67-7.92 4.96-12.05 2.8-2.11-1.1-2.98-2.14-2.5-3.07zm39.32-14.43c-.8-.41-.98-1.01-.66-1.62.3-.58.9-.77 1.68-.36l6.43 3.35c.72.37.92 1.03.55 1.75l-10.6 20.35c1.35.65 4.96 2.4 5.67 2.77.8.4.98 1.01.68 1.58-.31.61-.91.8-1.7.4l-13.53-7.05c-.8-.42-.98-1.02-.66-1.63.3-.57.9-.76 1.68-.35.65.34 4.65 2.56 5.74 3.17l10.25-19.67c-1.39-.67-4.96-2.4-5.53-2.7zm12.43 23.95c2.48-4.78 7.8-6.2 12.35-3.84 4.42 2.3 6.33 7.13 4.05 11.51-.36.68-.92.98-1.78.53l-12.67-6.6c-1.47 3.35-.2 6.97 3.38 8.84a9.45 9.45 0 0 0 6.01.98c.53-.04.98-.22 1.52.06.58.3.78.96.5 1.5s-.68.7-1.48.82c-1.87.35-4.74.09-7.68-1.44-4.85-2.53-6.67-7.63-4.2-12.36zm3.08-.22 11.45 5.96c1.2-2.93-.4-6.14-3.2-7.6a6.63 6.63 0 0 0-8.25 1.64zm23.54 5c.3-.58.98-.76 1.52-.48.18.09.36.27.54.46l8.45 10.74c.36.46.48.93.23 1.4s-.6.64-1.27.61l-13.66-.77a2.5 2.5 0 0 1-.68-.17 1.13 1.13 0 0 1-.48-1.53c.2-.4.68-.6 1.3-.56l11.67.8-7.34-9.12c-.4-.48-.5-.99-.29-1.38zm-28.34 44.14c-.25.59-.93.83-1.49.6a2.37 2.37 0 0 1-.57-.42l-9.3-10.03c-.44-.5-.54-.89-.33-1.37.2-.49.64-.7 1.22-.72l13.67-.33c.25.02.51.04.7.12.56.23.85.88.6 1.48-.17.41-.67.64-1.24.66l-11.7.15 8.05 8.5c.38.43.56.94.39 1.35zm15.56-4.73c-2.05-.86-3.56.22-4.44 2.3l-4.19 9.92c-.31.74-.87 1.03-1.58.73-.64-.26-.86-.88-.54-1.63l6.04-14.31c.31-.75.88-1.04 1.58-.74.64.27.86.89.55 1.63l-.26.6a4.19 4.19 0 0 1 4.26-.31 4.5 4.5 0 0 1 2.91 3.82 4.72 4.72 0 0 1 4.88-.53c3.06 1.29 3.86 3.87 2.2 7.78l-4.08 9.7c-.32.74-.88 1.03-1.59.73-.63-.27-.85-.89-.54-1.63l4.05-9.58c1.05-2.5.85-4.21-1.31-5.13-2.05-.86-3.52.23-4.4 2.32l-4.2 9.92c-.3.74-.87 1.03-1.58.73-.63-.27-.85-.89-.54-1.63l4.2-9.92c.87-2.08.63-3.9-1.42-4.77zm15.03 13.82c2.09-4.96 7.27-6.82 12-4.82 4.59 1.94 6.88 6.6 4.96 11.14-.3.71-.84 1.06-1.73.68l-13.16-5.56c-1.2 3.45.35 6.96 4.08 8.53a9.4 9.4 0 0 0 6.07.5c.52-.09.96-.3 1.52-.06.6.25.86.89.62 1.45-.24.56-.62.75-1.4.94-1.84.5-4.73.47-7.79-.82-5.03-2.13-7.25-7.06-5.17-11.98zm3.05-.47 11.9 5.02c.96-3.02-.9-6.09-3.82-7.32a6.62 6.62 0 0 0-8.08 2.3zm37.54 9.39c-.27.63-.85.87-1.67.52-1.12-.47-5.66-2.52-7.28-3.25l-2.96 7.01c-1.6 3.8-1.02 5.85 1.62 6.97a8.5 8.5 0 0 0 2.82.62c.9.03 1.32-.01 1.84.2.52.23.78.77.54 1.33-.28.67-.83.84-1.94.85-.92 0-2.63-.32-4.12-.95-4.25-1.8-5.15-4.76-2.98-9.9l2.98-7.05c-1.14-.44-3.38-1.25-4.47-1.71-.82-.35-1.05-.93-.79-1.56.26-.6.84-.84 1.66-.5l4.4 1.87 2.36-5.6c.31-.74.91-1.02 1.62-.72.63.27.9.9.58 1.65l-2.36 5.6 7.34 3.1c.82.34 1.06.92.8 1.52zm2.56 13.07c1.34-3.17 5.29-3.78 9.09-2.18 2.09.88 4.04 2.28 5.08 4l.58-1.39c1.18-2.8.09-5.4-3.38-6.87a9.1 9.1 0 0 0-4.34-.74c-.55.04-1.3.16-1.78-.05-.68-.28-.9-.9-.63-1.53.24-.56.84-.75 1.7-.82 1.2-.11 3.57.1 5.92 1.09 4.88 2.06 6.55 5.4 4.69 9.8l-3.75 8.87c-.31.75-.88 1.04-1.58.74-.64-.27-.9-.9-.58-1.65l.16-.37c-1.95.45-4.32.02-6.4-.86-3.8-1.6-6.12-4.87-4.78-8.04zm12.82 5.42c.77-1.83-.66-4.06-3.9-5.43s-5.84-.84-6.61.99c-.77 1.82.66 4.05 3.9 5.42s5.84.84 6.61-.98zm14.92-6.22c.25-.6.93-.84 1.48-.6.2.07.38.24.58.41l9.3 10.03c.38.43.54.89.33 1.37-.2.49-.55.7-1.22.72l-13.67.33a2.37 2.37 0 0 1-.7-.12 1.13 1.13 0 0 1-.6-1.48c.17-.41.63-.66 1.24-.66l11.7-.16-8.05-8.49c-.42-.44-.56-.94-.39-1.35zm-422.2 7.84a1.13 1.13 0 0 1-1.24 1.02 2.4 2.4 0 0 1-.67-.23l-11.83-6.86c-.58-.34-.78-.69-.73-1.21.05-.52.41-.85.96-1.04l12.97-4.34c.25-.05.5-.11.7-.1.6.07 1.08.6 1.01 1.25-.04.44-.45.8-1 1L816.58 355l10.2 5.75c.5.3.82.73.77 1.17zm11.6 3.87-.15 1.53c-.08.8-.57 1.24-1.34 1.16-.68-.07-1.12-.6-1.04-1.4l2.48-24.44c.09-.8.58-1.25 1.34-1.17.69.07 1.12.6 1.04 1.4l-1.07 10.52c1.44-1.77 3.75-2.47 6.04-2.24 4.92.5 7.84 4.58 7.3 9.85s-4.21 8.69-9.13 8.19c-2.29-.24-4.46-1.35-5.47-3.4zm12.15-5.04c.41-4.06-1.69-7.04-5.19-7.4-3.5-.35-6.16 2.15-6.57 6.21-.41 4.07 1.69 7.05 5.19 7.4 3.5.36 6.15-2.14 6.57-6.2zm8.37 4.39c.35-3.42 3.94-5.17 8.05-4.75 2.26.23 4.54.99 6.03 2.32l.15-1.5c.3-3.01-1.5-5.19-5.25-5.57a9.1 9.1 0 0 0-4.37.57c-.5.2-1.2.53-1.72.48-.72-.07-1.11-.6-1.04-1.29.06-.6.58-.95 1.39-1.28a13.7 13.7 0 0 1 5.96-.7c5.28.54 7.85 3.24 7.37 8l-.97 9.58c-.08.8-.53 1.24-1.3 1.17-.68-.07-1.12-.6-1.04-1.41l.04-.4c-1.72 1-4.11 1.29-6.37 1.06-4.1-.42-7.27-2.86-6.93-6.28zm13.85 1.4c.2-1.97-1.82-3.68-5.32-4.03-3.5-.36-5.83.91-6.03 2.89-.2 1.97 1.82 3.68 5.32 4.03 3.5.36 5.83-.91 6.03-2.88zm10.97 4.94c-.8-.53-1.17-.97-1.1-1.65a1.1 1.1 0 0 1 1.25-1.01c.68.06 1.16.56 1.84 1.04 1.3.9 3.2 1.7 5.42 1.93 3.7.37 5.53-.74 5.7-2.4.19-1.88-1.53-2.67-5.5-3.64-4.36-1.05-7.43-2.46-7.1-5.8.36-3.5 4.04-4.48 7.78-4.1 2.34.24 4.7 1.05 6.3 2.06.54.34.83.7.77 1.3a1.1 1.1 0 0 1-1.25 1.02c-.44-.05-.86-.3-1.2-.5a11.62 11.62 0 0 0-4.92-1.71c-2.9-.3-4.92.43-5.1 2.13-.18 1.8 2.06 2.64 5.43 3.47 5 1.24 7.52 2.48 7.17 5.86-.35 3.46-3.75 4.95-8.3 4.48a15.67 15.67 0 0 1-7.2-2.48zm22.47-5.04c.54-5.35 4.94-8.65 10.06-8.13 4.95.5 8.51 4.28 8.01 9.2-.07.76-.49 1.24-1.46 1.15l-14.2-1.45c-.13 3.65 2.38 6.55 6.4 6.96a9.45 9.45 0 0 0 5.95-1.3c.48-.25.83-.58 1.44-.51.64.06 1.08.6 1.02 1.2-.06.6-.38.9-1.07 1.31-1.61 1.02-4.38 1.84-7.68 1.5-5.44-.55-9.01-4.61-8.47-9.93zm2.78-1.34 12.84 1.3c.04-3.17-2.65-5.56-5.79-5.87a6.63 6.63 0 0 0-7.05 4.57zm23.71-4.06c.07-.65.64-1.08 1.24-1.02.2.02.44.13.67.23l11.83 6.86c.5.3.79.69.73 1.21-.05.52-.32.82-.95 1.04l-12.97 4.34c-.25.06-.5.11-.7.1-.6-.07-1.08-.6-1.02-1.25.05-.44.41-.81 1-1l11.14-3.58-10.2-5.76c-.53-.3-.81-.73-.77-1.17zm-259.19 11.64c.23.6-.1 1.24-.67 1.45a2.4 2.4 0 0 1-.7.09l-13.64-1.02c-.67-.05-1-.27-1.19-.77-.18-.5 0-.95.41-1.35l9.78-9.56c.2-.16.4-.32.6-.39.56-.2 1.22.07 1.44.68.16.42-.05.92-.46 1.33l-8.46 8.08 11.68.74c.58.05 1.06.3 1.21.72zm10.56.15c-.95-.13-1.47-.37-1.7-1.01a1.1 1.1 0 0 1 .67-1.46c.65-.23 1.3 0 2.12.14 1.56.25 3.63.14 5.72-.63 3.5-1.27 4.65-3.07 4.08-4.63-.65-1.79-2.53-1.75-6.53-.9-4.39.96-7.77 1.03-8.92-2.12-1.2-3.3 1.68-5.78 5.22-7.07 2.2-.8 4.68-1.1 6.57-.9.62.08 1.04.27 1.25.84a1.1 1.1 0 0 1-.68 1.46c-.42.15-.9.1-1.3.08a11.6 11.6 0 0 0-5.17.6c-2.74 1-4.24 2.54-3.66 4.13.63 1.71 3 1.5 6.4.77 5.04-1.06 7.84-1.05 9 2.14 1.2 3.27-1.22 6.09-5.51 7.66a15.63 15.63 0 0 1-7.56.9zm29.07-11.13a8.58 8.58 0 0 0 4.45-3.95c.37-.65.62-1.04 1.19-1.24.53-.2 1.19.08 1.38.6.21.58.07 1.02-.33 1.68a11.75 11.75 0 0 1-5.93 5c-4.9 1.8-9.96-.36-11.78-5.34-1.81-4.98.66-9.9 5.56-11.68 2.67-.97 5.54-.77 7.76.01.74.25 1.13.5 1.34 1.06.2.54-.14 1.17-.67 1.37-.57.2-1 .06-1.7-.2a8.59 8.59 0 0 0-5.96-.15c-3.27 1.2-5.44 4.83-4 8.74s5.42 5.3 8.69 4.1zm30.55-10.45c.24.64-.03 1.21-.87 1.52l-13.6 4.97c-.84.3-1.41.04-1.65-.61-.22-.6.04-1.18.88-1.49 1.14-.41 2.93-.93 4.09-1.31l-4.5-12.32c-1.05.43-2.87 1.22-3.97 1.62-.84.31-1.41.04-1.65-.6-.22-.61.05-1.18.88-1.49l5.06-1.84c.76-.28 1.38.01 1.66.77l.4 1.1c.26-2.25 2.16-3.89 4.14-4.6a7.44 7.44 0 0 1 4.22-.34c.62.16.99.46 1.17.95a1.1 1.1 0 0 1-.64 1.44c-.57.2-1.1.14-1.66.04a5.44 5.44 0 0 0-2.98.23c-2.74 1-3.6 4.07-2.36 7.45l2.47 6.77c1.7-.66 5.87-2.32 7.28-2.83.84-.3 1.4-.04 1.63.57zm22.23-8.12c.24.65-.02 1.22-.86 1.53l-13.5 4.92c-.83.3-1.4.04-1.64-.6-.22-.61.04-1.19.88-1.49 1.03-.38 4.64-1.56 6.52-2.2l-4.5-12.32c-1.7.66-5.38 2.13-6.02 2.37-.84.3-1.41.04-1.65-.6-.22-.61.05-1.19.88-1.49l7.11-2.6c.76-.27 1.39.02 1.66.78l4.76 13.04a151 151 0 0 1 4.74-1.9c.83-.31 1.4-.04 1.62.56zm-17.23-17.36c-.47-1.29.23-2.45 1.6-2.95 1.36-.5 2.64-.06 3.11 1.23.48 1.3-.22 2.45-1.59 2.95s-2.65.07-3.12-1.23zm37.7 1.93c1.82 4.97 0 9.65-4.65 11.34-2.16.8-4.57.68-6.4-.68l3.27 8.97c.28.77-.01 1.39-.66 1.62-.72.27-1.3-.04-1.58-.8l-8.08-22.12c-.27-.76.02-1.38.66-1.62.72-.26 1.3.04 1.59.8l.52 1.44c.48-2.24 2.3-3.85 4.47-4.64 4.64-1.7 9.04.7 10.86 5.69zm-13.42 4.9c1.4 3.83 4.59 5.6 7.9 4.4 3.3-1.22 4.6-4.62 3.2-8.46-1.4-3.84-4.59-5.6-7.9-4.4s-4.6 4.61-3.2 8.45zm32.2-19.77c.24.64-.03 1.22-.87 1.52-1.14.42-5.85 2-7.54 2.58l2.6 7.15c1.42 3.88 3.25 4.98 5.95 4a8.8 8.8 0 0 0 2.48-1.47c.68-.6.96-.91 1.49-1.1s1.09.03 1.3.6c.24.68-.05 1.17-.85 1.94-.67.63-2.14 1.56-3.66 2.11-4.34 1.58-7.02.02-8.93-5.23l-2.62-7.18c-1.13.45-3.33 1.39-4.43 1.79-.84.3-1.41.04-1.65-.6-.22-.62.05-1.19.88-1.5l4.49-1.63-2.08-5.7c-.28-.76-.03-1.37.7-1.63.64-.24 1.26.05 1.54.81l2.08 5.7 7.49-2.73c.84-.3 1.4-.04 1.63.57zm8.12-3.48c-.23-.6.1-1.24.67-1.45.2-.07.45-.08.7-.08l13.64 1c.58.05 1 .28 1.19.78.18.5.06.88-.41 1.35l-9.78 9.56c-.2.16-.4.32-.6.39-.56.2-1.22-.07-1.45-.68-.15-.42.02-.9.47-1.33l8.46-8.08-11.68-.74c-.62-.03-1.06-.3-1.21-.72zm207.77 63.88c.08.64-.38 1.2-.98 1.28-.2.02-.45-.03-.7-.07l-13.1-3.93c-.64-.2-.93-.5-1-1.01-.06-.52.2-.93.7-1.24l11.6-7.22c.24-.11.47-.23.67-.25.6-.08 1.19.33 1.27.97.06.44-.25.89-.74 1.2l-10 6.07 11.24 3.24c.56.17.97.52 1.03.96zm7.02-20.13c-.88.13-1.38-.26-1.47-.94-.1-.64.3-1.14 1.17-1.26l7.18-.96c.8-.1 1.35.31 1.46 1.12l3.03 22.74c1.48-.24 5.44-.89 6.24-1 .88-.11 1.38.27 1.47.91.09.68-.3 1.18-1.18 1.3l-15.12 2.02c-.88.11-1.38-.27-1.47-.95-.09-.64.3-1.14 1.18-1.26.72-.1 5.27-.58 6.52-.7l-2.94-21.99c-1.51.25-5.43.9-6.07.98zm42.26 17.52c.09.68-.3 1.18-1.18 1.3l-14.24 1.9c-.88.11-1.38-.27-1.47-.95-.09-.64.3-1.14 1.18-1.26 1.08-.14 4.87-.53 6.84-.75l-1.73-13c-1.8.29-5.72.93-6.4 1.02-.88.12-1.38-.26-1.47-.94-.09-.65.3-1.15 1.18-1.26l7.5-1c.8-.11 1.34.3 1.45 1.1l1.84 13.77c1.07-.19 3.95-.7 5.03-.84.88-.12 1.38.27 1.47.9zm-13.09-20.67c-.18-1.36.75-2.34 2.2-2.54 1.44-.19 2.6.52 2.77 1.88.19 1.36-.74 2.34-2.19 2.54-1.44.19-2.6-.51-2.78-1.88zm33.46 18.24-1.2-8.95c-.53-4-2.82-5.25-5.43-4.9-2.85.37-4.85 2.2-4.3 6.25l1.18 8.9c.1.8-.27 1.34-1.03 1.44-.68.1-1.23-.32-1.34-1.13l-2.05-15.4c-.1-.8.27-1.34 1.03-1.44.68-.1 1.23.32 1.33 1.13l.16 1.16c.97-1.93 2.92-2.88 5.13-3.17 4.01-.54 6.98 1.52 7.62 6.33l1.26 9.46c.1.8-.27 1.35-1.03 1.45-.68.09-1.23-.33-1.33-1.13zm25.35-2.77-8.46-7.65-3.65 3.55.67 5.01c.1.8-.27 1.35-1.03 1.45-.68.09-1.23-.33-1.34-1.13l-3.24-24.35c-.1-.8.27-1.34 1.03-1.44.68-.1 1.23.32 1.33 1.13l2.22 16.64 9.81-9.72c.51-.47.79-.84 1.4-.92s1.13.26 1.22.94c.09.68-.16.96-.85 1.62l-5.83 5.56 8.16 7.28c.55.5.84.79.9 1.27.1.68-.33 1.19-1.01 1.28-.53.07-.96-.16-1.34-.52zm7.8-17.58c-.08-.64.38-1.19.98-1.27.2-.03.45.02.7.07l13.1 3.93c.56.17.93.49 1 1.01.06.52-.13.87-.7 1.24l-11.6 7.22c-.24.11-.47.22-.67.25-.6.08-1.19-.33-1.27-.97-.06-.44.2-.89.74-1.2l10-6.07-11.24-3.24c-.6-.17-.97-.52-1.03-.97z" stroke="#000" stroke-linecap="round" stroke-linejoin="round" stroke-miterlimit="10"/></svg>