<svg xmlns="http://www.w3.org/2000/svg" viewBox="0 0 1920 1080" xml:space="preserve"><path d="M472.01 83.34a64 64 0 0 1-64.2 63.8L63.8 146.01A64 64 0 0 1 0 81.82l.05-16a64 64 0 0 1 64.21-63.8l344.01 1.11a64 64 0 0 1 63.8 64.2l-.06 16z"/><path fill="#FFF" d="M100.45 92.36a2.91 2.91 0 0 1-2.92 2.91c-.52 0-1.14-.2-1.77-.41l-32.1-14.49c-1.56-.73-2.2-1.56-2.2-2.92 0-1.35.84-2.3 2.2-2.92l32.1-14.48c.63-.21 1.25-.42 1.77-.42a2.91 2.91 0 0 1 2.92 2.92c0 1.14-.94 2.19-2.3 2.81l-27.61 12.1 27.62 12.08c1.35.63 2.3 1.67 2.3 2.82zm28.14 14.17c-1.78 0-3.03-1.25-3.03-3.33V39.93c0-2.09 1.15-3.34 3.13-3.34 1.77 0 3.02 1.25 3.02 3.34v26.26c3.13-4.58 8.45-6.35 14.18-6.35 10.42 0 17.3 6.25 17.3 18.76v24.6c0 2.08-1.15 3.33-3.13 3.33-1.77 0-3.02-1.25-3.02-3.33V79.95c0-10.42-5.42-14.38-12.2-14.38-7.4 0-13.13 3.96-13.13 14.49v23.14c0 2.08-1.14 3.33-3.12 3.33zm53.56-23.24c0-13.86 10.42-23.45 23.66-23.45 12.82 0 22.93 8.75 22.93 21.47 0 1.98-.94 3.33-3.44 3.33h-36.79c.63 9.38 7.82 16.16 18.24 16.16 6.36 0 10.73-1.98 14.9-4.9 1.15-.73 1.98-1.67 3.55-1.67a2.83 2.83 0 0 1 2.92 2.82c0 1.56-.73 2.4-2.4 3.64-3.86 3.03-10.74 5.84-19.28 5.84-14.07 0-24.29-9.48-24.29-23.24zm6.78-4.17h33.25c-.73-8.13-8.24-13.55-16.37-13.55a17.07 17.07 0 0 0-16.88 13.55zm56.17 13.13c0-8.86 8.75-14.28 19.39-14.28 5.83 0 11.88 1.36 16.05 4.38v-3.86c0-7.81-5.22-12.92-14.9-12.92-3.55 0-7.2.62-11.06 2.6-1.25.63-2.92 1.67-4.27 1.67-1.88 0-3.02-1.25-3.02-3.02 0-1.56 1.25-2.6 3.23-3.65 2.7-1.46 8.54-3.33 15.11-3.33 13.65 0 20.95 6.25 20.95 18.55v24.8c0 2.09-1.04 3.34-3.02 3.34-1.78 0-3.03-1.25-3.03-3.34v-1.04c-4.17 3.03-10.21 4.38-16.05 4.38-10.63 0-19.38-5.42-19.38-14.28zm35.85 0c0-5.1-5.62-8.96-14.7-8.96-9.06 0-14.69 3.85-14.69 8.96 0 5.1 5.63 8.96 14.7 8.96 9.06 0 14.7-3.85 14.7-8.96zm23.76-9.07c0-13.65 8.55-23.34 21.26-23.34 5.94 0 11.68 2.4 14.9 7.3V39.92c0-2.09 1.26-3.34 3.03-3.34 1.98 0 3.13 1.25 3.13 3.34v63.27c0 2.08-1.25 3.33-3.03 3.33-1.98 0-3.12-1.25-3.12-3.34v-3.96c-3.13 5-8.97 7.3-14.9 7.3-12.72 0-21.27-9.7-21.27-23.35zm36.8 0c0-10.52-6.16-17.61-15.23-17.61-9.06 0-15.21 7.09-15.21 17.61s6.15 17.62 15.21 17.62c9.07 0 15.22-7.09 15.22-17.62zm30.11-20.63a2.91 2.91 0 0 1 2.92-2.92c.52 0 1.14.2 1.77.41l32.1 14.5c1.35.62 2.19 1.56 2.19 2.91 0 1.36-.63 2.19-2.19 2.92l-32.1 14.49c-.63.2-1.25.42-1.77.42a2.91 2.91 0 0 1-2.92-2.92c0-1.15.83-2.2 2.3-2.82l27.61-12.09-27.62-12.09c-1.46-.62-2.3-1.67-2.3-2.81z"/><path d="M1919.94 83.4a64 64 0 0 1-64.23 63.78l-344-1.2a64 64 0 0 1-63.78-64.22l.06-16a64 64 0 0 1 64.22-63.78l344 1.2A64 64 0 0 1 1920 67.4l-.06 16z"/><path fill="#FFF" d="M1517.64 92.36a2.91 2.91 0 0 1-2.92 2.91c-.52 0-1.15-.2-1.77-.41l-32.1-14.49c-1.57-.73-2.2-1.56-2.2-2.92 0-1.35.84-2.3 2.2-2.92l32.1-14.49c.62-.2 1.25-.41 1.77-.41a2.91 2.91 0 0 1 2.92 2.92c0 1.14-.94 2.19-2.3 2.81l-27.62 12.1 27.62 12.08c1.36.63 2.3 1.67 2.3 2.82zm68.46-55.76c1.88 0 2.93 1.24 2.93 2.8 0 .74-.21 1.36-.53 1.88l-50.03 84.12c-.52.93-1.56 1.77-2.7 1.77-1.88 0-2.92-1.25-2.92-2.82 0-.72.2-1.35.52-1.87l50.03-84.11c.52-.94 1.56-1.78 2.7-1.78zm21.16 69.93c-1.77 0-3.02-1.25-3.02-3.33V39.93c0-2.09 1.14-3.34 3.12-3.34 1.78 0 3.03 1.25 3.03 3.34v26.26c3.12-4.58 8.44-6.35 14.17-6.35 10.42 0 17.3 6.25 17.3 18.76v24.6c0 2.08-1.14 3.33-3.12 3.33-1.78 0-3.03-1.25-3.03-3.33V79.95c0-10.42-5.42-14.38-12.2-14.38-7.4 0-13.12 3.96-13.12 14.49v23.14c0 2.08-1.15 3.33-3.13 3.33zm53.57-23.24c0-13.86 10.42-23.45 23.66-23.45 12.82 0 22.93 8.75 22.93 21.47 0 1.98-.94 3.33-3.44 3.33h-36.8c.63 9.38 7.82 16.16 18.24 16.16 6.36 0 10.74-1.98 14.9-4.9 1.16-.73 1.99-1.67 3.55-1.67a2.83 2.83 0 0 1 2.92 2.82c0 1.56-.73 2.4-2.4 3.64-3.85 3.03-10.73 5.84-19.28 5.84-14.07 0-24.28-9.48-24.28-23.24zm6.77-4.17h33.25c-.73-8.13-8.23-13.55-16.36-13.55a17.07 17.07 0 0 0-16.89 13.55zm56.17 13.13c0-8.86 8.76-14.28 19.39-14.28 5.83 0 11.88 1.36 16.05 4.38v-3.86c0-7.81-5.21-12.92-14.9-12.92-3.55 0-7.2.62-11.05 2.6-1.26.63-2.92 1.67-4.28 1.67-1.87 0-3.02-1.25-3.02-3.02 0-1.56 1.25-2.6 3.23-3.65 2.71-1.46 8.55-3.33 15.11-3.33 13.66 0 20.95 6.25 20.95 18.55v24.8c0 2.09-1.04 3.34-3.02 3.34-1.77 0-3.02-1.25-3.02-3.34v-1.04c-4.17 3.03-10.22 4.38-16.05 4.38-10.63 0-19.39-5.42-19.39-14.28zm35.86 0c0-5.1-5.63-8.96-14.7-8.96s-14.7 3.85-14.7 8.96c0 5.1 5.63 8.96 14.7 8.96s14.7-3.85 14.7-8.96zm23.75-9.07c0-13.65 8.55-23.34 21.27-23.34 5.94 0 11.67 2.4 14.9 7.3V39.92c0-2.09 1.25-3.34 3.02-3.34 1.98 0 3.13 1.25 3.13 3.34v63.27c0 2.08-1.25 3.33-3.02 3.33-1.98 0-3.13-1.25-3.13-3.34v-3.96c-3.13 5-8.96 7.3-14.9 7.3-12.72 0-21.27-9.7-21.27-23.35zm36.8 0c0-10.52-6.15-17.61-15.22-17.61s-15.22 7.09-15.22 17.61 6.15 17.62 15.22 17.62 15.22-7.09 15.22-17.62zm30.12-20.63a2.91 2.91 0 0 1 2.91-2.92c.52 0 1.15.2 1.77.41l32.1 14.5c1.36.62 2.2 1.56 2.2 2.91 0 1.36-.63 2.19-2.2 2.92l-32.1 14.49c-.62.2-1.25.42-1.77.42a2.91 2.91 0 0 1-2.92-2.92c0-1.15.83-2.2 2.3-2.82l27.62-12.09-27.63-12.09c-1.45-.62-2.29-1.67-2.29-2.81zM678.96 1071.4a98.97 98.97 0 0 1-45.53-10.94 90.24 90.24 0 0 0-82.03 0 98.98 98.98 0 0 1-45.53 10.94 98.98 98.98 0 0 1-45.53-10.94 90.24 90.24 0 0 0-82.03 0 98.98 98.98 0 0 1-48.48 10.9c-31.62-.92-60.14-17.89-76.3-45.39a93.3 93.3 0 0 1-2.43-90.79L486.34 482.7a2.5 2.5 0 1 1 4.44 2.3L255.54 937.5a88.32 88.32 0 0 0 2.3 85.95c15.28 26 42.25 42.05 72.13 42.91a94.01 94.01 0 0 0 46.06-10.35 95.26 95.26 0 0 1 86.59 0 94 94 0 0 0 43.25 10.4 94 94 0 0 0 43.25-10.4 95.26 95.26 0 0 1 86.59 0 94 94 0 0 0 43.25 10.4c52.45 0 95.12-42.68 95.12-95.13a2.5 2.5 0 1 1 5 0c0 55.21-44.92 100.13-100.12 100.13zm894.04 0a98.98 98.98 0 0 1-45.53-10.94 90.24 90.24 0 0 0-82.04 0c-14.18 7.26-29.5 10.94-45.53 10.94s-31.35-3.68-45.52-10.94a90.24 90.24 0 0 0-82.04 0 98.99 98.99 0 0 1-45.52 10.94c-55.21 0-100.13-44.92-100.13-100.13a2.5 2.5 0 1 1 5 0c0 52.45 42.68 95.13 95.13 95.13 15.23 0 29.78-3.5 43.25-10.4a95.26 95.26 0 0 1 86.59 0 94 94 0 0 0 43.25 10.4 94 94 0 0 0 43.24-10.4 95.26 95.26 0 0 1 86.6 0 94 94 0 0 0 46.05 10.36c29.88-.87 56.85-16.91 72.13-42.92a88.32 88.32 0 0 0 2.3-85.95L1415 485a2.5 2.5 0 1 1 4.43-2.3l235.24 452.47a93.3 93.3 0 0 1-2.43 90.8c-16.16 27.5-44.68 44.46-76.3 45.37-.98.03-1.96.05-2.95.05z"/><path fill="#FFF" d="M1436.21 465.54c-6.35.03-12.61.46-18.77 1.18-58.59-198.51-242.7-342.93-460.07-341.8-217.35 1.12-399.98 147.44-456.5 346.54a166.84 166.84 0 0 0-18.79-1c-91.48.48-165.26 75.03-164.79 166.5.48 91.5 75.02 165.27 166.5 164.8a165.96 165.96 0 0 0 40.38-5.2c74.82 167.3 243.1 283.48 438.13 282.48 195.03-1.01 362.1-118.93 435.2-286.98a166.06 166.06 0 0 0 40.42 4.77c91.48-.47 165.26-75.02 164.79-166.5-.47-91.49-75.01-165.26-166.5-164.8zM967.07 943.77c-78.96 0-142.96-64.01-142.96-142.97h285.92c0 78.96-64 142.97-142.96 142.97zM609.55 401.05c65.82-125.78 197.25-211.92 349.1-212.7 153.32-.8 286.7 85.62 353.21 212.7H609.55z"/><path d="M1408.93 705.13a2.5 2.5 0 0 1-1.83-4.2l102.16-109.9a2.5 2.5 0 0 1 3.66 3.4l-102.16 109.9c-.5.53-1.16.8-1.83.8zm-898.99-4.63a2.5 2.5 0 0 1-1.85-.82L407.06 588.7a2.5 2.5 0 0 1 3.7-3.36L511.79 696.3a2.5 2.5 0 0 1-1.85 4.18zm609.19-47.05a52.33 52.33 0 1 0 104.65.53 52.33 52.33 0 0 0-104.65-.53z"/><path d="M1171.46 708.54h-.3a54.88 54.88 0 0 1-54.54-55.1 54.9 54.9 0 0 1 54.82-54.54h.29a54.47 54.47 0 0 1 38.69 16.26 54.46 54.46 0 0 1 15.86 38.85 54.46 54.46 0 0 1-16.26 38.68 54.47 54.47 0 0 1-38.56 15.85zm-49.84-55.07a49.88 49.88 0 0 0 49.57 50.07h.27a49.5 49.5 0 0 0 35.04-14.4 49.49 49.49 0 0 0 14.78-35.16 49.5 49.5 0 0 0-14.41-35.3 49.5 49.5 0 0 0-35.17-14.78h-.26a49.88 49.88 0 0 0-49.82 49.57z"/><path d="M1298.27 670.35a2.5 2.5 0 0 1-2.07-1.1 149.98 149.98 0 0 0-124.08-65.81c-49.1 0-95.11 24.08-123.21 64.52a2.5 2.5 0 1 1-4.1-2.85 155.05 155.05 0 0 1 127.31-66.67h.8a155 155 0 0 1 127.42 68 2.5 2.5 0 0 1-2.07 3.9zm-592.31-16.9a52.32 52.32 0 1 0 104.65.54 52.32 52.32 0 0 0-104.65-.54z"/><path d="M758.3 708.54h-.3a54.48 54.48 0 0 1-38.68-16.25 54.44 54.44 0 0 1-15.86-38.85 54.93 54.93 0 0 1 55.1-54.54 54.47 54.47 0 0 1 38.7 16.26A54.46 54.46 0 0 1 813.11 654a54.45 54.45 0 0 1-16.27 38.68 54.47 54.47 0 0 1-38.56 15.85zm-.02-104.64a49.88 49.88 0 0 0-49.82 49.57 49.48 49.48 0 0 0 14.41 35.3 49.5 49.5 0 0 0 35.15 14.77h.27a49.5 49.5 0 0 0 35.05-14.4 49.5 49.5 0 0 0 14.78-35.16 49.5 49.5 0 0 0-14.42-35.3 49.5 49.5 0 0 0-35.16-14.78h-.26z"/><path d="M887.29 670.35a2.5 2.5 0 0 1-2.07-1.1 149.97 149.97 0 0 0-124.08-65.81c-49.1 0-95.12 24.08-123.22 64.52a2.5 2.5 0 0 1-4.1-2.85 155.06 155.06 0 0 1 127.32-66.67h.8c51.06.27 98.7 25.7 127.41 68a2.5 2.5 0 0 1-2.06 3.9zm79.54 76.9a2.5 2.5 0 0 1-2.5-2.5l.47-91.65a2.5 2.5 0 0 1 2.5-2.49h.02a2.5 2.5 0 0 1 2.48 2.51l-.47 91.65a2.5 2.5 0 0 1-2.5 2.48zm477.23-281.69a2.5 2.5 0 0 1-.02-5l7.66-.04c-.73-2.42-1.48-4.85-2.25-7.28a2.5 2.5 0 0 1 4.76-1.51c1.12 3.52 2.21 7.08 3.24 10.56a2.5 2.5 0 0 1-2.38 3.21l-11 .06h-.01zm-970.65-26.74a2.5 2.5 0 0 1-2.36-3.34 517.05 517.05 0 0 1 7.92-20.8 2.5 2.5 0 0 1 4.63 1.88 512.73 512.73 0 0 0-7.83 20.6 2.5 2.5 0 0 1-2.36 1.66zm971.23-4.81a2.5 2.5 0 0 1-2.35-1.64 512.2 512.2 0 0 0-8.06-20.58 2.5 2.5 0 0 1 4.62-1.92 518.61 518.61 0 0 1 8.14 20.77 2.5 2.5 0 0 1-2.35 3.37zm-954.6-36.23a2.5 2.5 0 0 1-2.27-3.54 518.77 518.77 0 0 1 9.68-20.05 2.5 2.5 0 1 1 4.45 2.27 514.6 514.6 0 0 0-9.58 19.85 2.5 2.5 0 0 1-2.28 1.47zm937.52-4.75a2.5 2.5 0 0 1-2.27-1.44 514.5 514.5 0 0 0-9.8-19.8 2.5 2.5 0 1 1 4.43-2.3 520.07 520.07 0 0 1 9.9 19.98 2.5 2.5 0 0 1-2.26 3.56zm-917.4-34.73a2.5 2.5 0 0 1-2.17-3.73 520.8 520.8 0 0 1 11.36-19.14 2.5 2.5 0 0 1 4.24 2.64 516.08 516.08 0 0 0-11.26 18.96 2.5 2.5 0 0 1-2.18 1.27zm896.85-4.6a2.5 2.5 0 0 1-2.17-1.26 515.52 515.52 0 0 0-11.47-18.87 2.5 2.5 0 0 1 4.22-2.68 522.47 522.47 0 0 1 11.58 19.05 2.5 2.5 0 0 1-2.16 3.75zm-873.43-33a2.5 2.5 0 0 1-2.06-3.91c4.17-6.1 8.53-12.2 12.97-18.11a2.5 2.5 0 0 1 4 3c-4.4 5.86-8.71 11.9-12.84 17.93a2.5 2.5 0 0 1-2.07 1.09zm849.58-4.42a2.5 2.5 0 0 1-2.05-1.06 524 524 0 0 0-13.04-17.82 2.5 2.5 0 1 1 3.97-3.04c4.5 5.89 8.93 11.94 13.17 17.99a2.5 2.5 0 0 1-2.05 3.93zm-823-31.06a2.5 2.5 0 0 1-1.94-4.08 521.78 521.78 0 0 1 14.47-16.94 2.5 2.5 0 1 1 3.73 3.33 517.82 517.82 0 0 0-14.33 16.77c-.5.6-1.21.92-1.94.92zm796.04-4.16a2.5 2.5 0 0 1-1.92-.9 519.5 519.5 0 0 0-14.5-16.63 2.5 2.5 0 0 1 3.69-3.36 526.95 526.95 0 0 1 14.65 16.79 2.5 2.5 0 0 1-1.92 4.1zm-766.54-28.93a2.5 2.5 0 0 1-1.79-4.24c5.16-5.3 10.5-10.57 15.86-15.64a2.5 2.5 0 0 1 3.44 3.63 518.1 518.1 0 0 0-15.71 15.5c-.5.5-1.14.75-1.8.75zm736.68-3.85a2.5 2.5 0 0 1-1.77-.74 520.06 520.06 0 0 0-15.87-15.33 2.5 2.5 0 0 1 3.4-3.67 525.34 525.34 0 0 1 16.02 15.48 2.5 2.5 0 0 1-1.78 4.26zm-704.45-26.6a2.5 2.5 0 0 1-1.64-4.39 520.9 520.9 0 0 1 17.15-14.23 2.5 2.5 0 0 1 3.1 3.91 518.1 518.1 0 0 0-16.97 14.1 2.5 2.5 0 0 1-1.64.61zm671.92-3.5c-.58 0-1.15-.2-1.62-.6a518.07 518.07 0 0 0-17.12-13.92 2.5 2.5 0 1 1 3.07-3.94 521.94 521.94 0 0 1 17.28 14.05 2.5 2.5 0 0 1-1.62 4.4zm-637.2-24.1a2.5 2.5 0 0 1-1.47-4.52 522.85 522.85 0 0 1 18.3-12.72 2.5 2.5 0 1 1 2.76 4.17c-6.1 4.04-12.2 8.28-18.12 12.6-.45.32-.96.47-1.47.47zm602.22-3.13c-.5 0-1.01-.14-1.45-.46a520.52 520.52 0 0 0-18.24-12.4 2.5 2.5 0 1 1 2.73-4.19 500.2 500.2 0 0 1 18.4 12.52 2.5 2.5 0 0 1-1.44 4.54zm-565.26-21.4a2.5 2.5 0 0 1-1.3-4.63 518.4 518.4 0 0 1 19.33-11.11 2.5 2.5 0 0 1 2.4 4.39 512.77 512.77 0 0 0-19.14 11c-.4.24-.85.36-1.3.36zm528.1-2.71c-.44 0-.88-.11-1.28-.35a514.87 514.87 0 0 0-19.22-10.78 2.5 2.5 0 1 1 2.35-4.42 519.03 519.03 0 0 1 19.41 10.9 2.5 2.5 0 0 1-1.27 4.65zM732.5 148.29a2.5 2.5 0 0 1-1.1-4.75 516.73 516.73 0 0 1 20.22-9.4 2.5 2.5 0 1 1 2.01 4.58 511.8 511.8 0 0 0-20.03 9.31 2.5 2.5 0 0 1-1.1.26zm450.08-2.28c-.37 0-.73-.08-1.08-.25a515.85 515.85 0 0 0-20.07-9.09 2.5 2.5 0 1 1 1.96-4.6c6.8 2.91 13.62 6 20.27 9.18a2.5 2.5 0 0 1-1.08 4.76zm-409.44-15.56a2.5 2.5 0 0 1-.9-4.83A504.1 504.1 0 0 1 793.2 118a2.5 2.5 0 1 1 1.6 4.73 513.41 513.41 0 0 0-20.76 7.55c-.3.12-.6.17-.9.17zm368.73-1.83c-.3 0-.6-.05-.88-.16a513.02 513.02 0 0 0-20.78-7.32 2.5 2.5 0 0 1 1.56-4.75c7 2.3 14.06 4.79 20.98 7.4a2.5 2.5 0 0 1-.88 4.83zm-326.7-12.43a2.5 2.5 0 0 1-.69-4.9 517.01 517.01 0 0 1 21.55-5.78 2.5 2.5 0 1 1 1.2 4.86 512.1 512.1 0 0 0-21.35 5.72c-.24.07-.47.1-.7.1zm284.66-1.37a2.5 2.5 0 0 1-.68-.1 509.13 509.13 0 0 0-21.37-5.5 2.5 2.5 0 1 1 1.15-4.87 513.4 513.4 0 0 1 21.57 5.57 2.5 2.5 0 0 1-.67 4.9zm-241.52-9.2a2.5 2.5 0 0 1-.48-4.95 524 524 0 0 1 21.94-3.88 2.5 2.5 0 1 1 .76 4.94 521.8 521.8 0 0 0-21.72 3.85 2.8 2.8 0 0 1-.5.05zm198.36-.94a2.5 2.5 0 0 1-.47-.04 516.47 516.47 0 0 0-21.76-3.64 2.5 2.5 0 1 1 .72-4.95 503.1 503.1 0 0 1 21.97 3.68 2.5 2.5 0 0 1-.46 4.95zm-154.54-5.85a2.5 2.5 0 0 1-.28-4.98c7.33-.82 14.8-1.5 22.2-2a2.5 2.5 0 1 1 .34 4.99 515.83 515.83 0 0 0-22.26 2zm110.67-.52c-.08 0-.17 0-.25-.02a522.13 522.13 0 0 0-22-1.76 2.5 2.5 0 0 1 .3-5c7.4.44 14.86 1.04 22.2 1.79a2.5 2.5 0 0 1-.25 4.99zm-66.43-2.5a2.5 2.5 0 0 1-.07-5 523.26 523.26 0 0 1 22.28-.11 2.5 2.5 0 0 1-.08 5 521.9 521.9 0 0 0-22.07.1h-.06zM463.26 470.62a2.5 2.5 0 0 1-2.4-3.18c1-3.54 2.05-7.1 3.12-10.6a2.5 2.5 0 1 1 4.78 1.47 449.4 449.4 0 0 0-2.18 7.3l7.66-.04h.02a2.5 2.5 0 0 1 0 5l-11 .05zm32.54-.17a2.5 2.5 0 0 1 0-5l21.55-.1a2.5 2.5 0 0 1 .02 5l-21.55.1h-.01zm43.11-.22a2.5 2.5 0 0 1-.01-5l21.55-.11a2.5 2.5 0 0 1 .03 5l-21.56.11h-.01zm43.1-.22a2.5 2.5 0 0 1-.01-5l21.55-.11h.01a2.5 2.5 0 0 1 .02 5l-21.56.1zm43.1-.22a2.5 2.5 0 0 1 0-5l21.54-.12h.02a2.5 2.5 0 0 1 0 5l-21.54.12h-.02zm43.1-.23a2.5 2.5 0 0 1 0-5l21.54-.1h.02a2.5 2.5 0 0 1 .01 5l-21.55.1h-.01zm43.1-.22a2.5 2.5 0 0 1 0-5l21.55-.11h.01a2.5 2.5 0 0 1 .01 5l-21.55.11h-.01zm43.11-.22a2.5 2.5 0 0 1-.01-5l21.55-.11h.01a2.5 2.5 0 0 1 .01 5l-21.55.1h-.01zm43.1-.22a2.5 2.5 0 0 1-.01-5l21.55-.11h.01a2.5 2.5 0 0 1 .02 5l-21.55.1h-.02zm43.1-.23a2.5 2.5 0 0 1 0-5l21.54-.1h.01a2.5 2.5 0 0 1 .02 5l-21.55.1h-.01zm43.1-.22a2.5 2.5 0 0 1 0-5l21.54-.11h.02a2.5 2.5 0 0 1 .01 5l-21.55.11h-.01zm43.1-.22a2.5 2.5 0 0 1 0-5l21.55-.11h.01a2.5 2.5 0 0 1 .01 5l-21.55.1h-.01zm43.11-.22a2.5 2.5 0 0 1-.01-5l21.55-.12h.01a2.5 2.5 0 0 1 .02 5l-21.55.12h-.02zm43.1-.23a2.5 2.5 0 0 1-.01-5l21.55-.1h.01a2.5 2.5 0 0 1 .02 5l-21.55.1h-.02zm43.1-.22a2.5 2.5 0 0 1 0-5l21.54-.11h.02a2.5 2.5 0 0 1 .01 5l-21.55.11h-.01zm43.1-.22a2.5 2.5 0 0 1 0-5l21.55-.11a2.5 2.5 0 0 1 .02 5l-21.55.1h-.01zm43.11-.22a2.5 2.5 0 0 1-.01-5l21.55-.12h.01a2.5 2.5 0 0 1 .01 5l-21.55.12h-.01zm43.1-.23a2.5 2.5 0 0 1-.01-5l21.55-.1h.01a2.5 2.5 0 0 1 .02 5l-21.56.1zm43.1-.22a2.5 2.5 0 0 1 0-5l21.54-.11h.02a2.5 2.5 0 0 1 0 5l-21.54.11h-.02zm43.1-.22a2.5 2.5 0 0 1 0-5l21.54-.11h.02a2.5 2.5 0 0 1 .01 5l-21.55.1h-.01zm43.1-.22a2.5 2.5 0 0 1 0-5l21.55-.12h.01a2.5 2.5 0 0 1 .01 5l-21.55.12h-.01zm43.11-.23a2.5 2.5 0 0 1-.01-5l21.55-.1h.01a2.5 2.5 0 0 1 .01 5l-21.55.1zm43.1-.22a2.5 2.5 0 0 1-.01-5l21.55-.11h.01a2.5 2.5 0 0 1 .02 5l-21.56.11z"/><path fill="#FF8630" d="m1044.47 334.32-169.34-.83a26.38 26.38 0 0 1-26.25-26.5l.13-26.39a26.38 26.38 0 0 1 26.51-26.25l169.34.83a26.38 26.38 0 0 1 26.25 26.51l-.13 26.38a26.38 26.38 0 0 1-26.5 26.25z"/><path fill="#FFF" d="M893.7 314.94h-.07c-8.15-.04-12.16-6.88-13.14-10.49a2.5 2.5 0 0 1-.09-.66l.15-29.26a2.5 2.5 0 0 1 5 .03l-.14 28.86c.44 1.3 2.57 6.5 8.25 6.52h.04c5.64 0 7.81-5.13 8.27-6.44l.15-28.86a2.5 2.5 0 0 1 2.5-2.49h.01a2.5 2.5 0 0 1 2.49 2.52l-.15 29.25c0 .22-.03.45-.09.66-1.01 3.6-5.07 10.36-13.17 10.36zm132.53.66h-.07c-8.16-.05-12.16-6.89-13.14-10.5a2.5 2.5 0 0 1-.09-.66l.14-29.25a2.5 2.5 0 0 1 2.5-2.5h.02a2.5 2.5 0 0 1 2.48 2.52l-.14 28.87c.44 1.29 2.57 6.49 8.25 6.51h.05c5.64 0 7.82-5.17 8.27-6.43l.14-28.87a2.5 2.5 0 0 1 2.5-2.49h.02a2.5 2.5 0 0 1 2.48 2.52l-.14 29.25c0 .22-.03.45-.1.66-1 3.6-5.06 10.36-13.17 10.36z"/><circle transform="rotate(-89.72 927.2 289.75)" fill="#FFF" cx="927.21" cy="289.75" r="5.3"/><circle transform="rotate(-89.72 993.41 290.08)" fill="#FFF" cx="993.42" cy="290.08" r="5.3"/><path fill="#FFF" d="M969.14 294.44c-.03 5.4-6.38 14.87-9.85 14.85-3.11-.01-9.74-9.54-9.7-14.95a9.78 9.78 0 0 1 19.55.1z"/><path fill="#FFF" d="M949.66 316.22a7.46 7.46 0 0 1-2.62-.44 2.5 2.5 0 0 1 1.74-4.7c.46.16 4.28 1.12 7.24-6.04a2.5 2.5 0 0 1 4.62 1.91c-3.03 7.33-7.65 9.27-10.98 9.27z"/><path fill="#FFF" d="M968.93 316.32c-3.34 0-8-1.96-10.97-9.38a2.5 2.5 0 1 1 4.63-1.87c3.04 7.55 7.1 6.15 7.14 6.14a2.5 2.5 0 1 1 1.74 4.69 7.4 7.4 0 0 1-2.54.42z"/><path d="M442.92 894.66c-3.06 0-6.13-.18-9.24-.57-40.49-5.06-69.31-42.12-64.25-82.61 5.06-40.5 42.12-69.3 82.61-64.26a20 20 0 0 1-4.96 39.7 34.04 34.04 0 0 0-37.96 29.52 34.04 34.04 0 0 0 29.52 37.96 34.04 34.04 0 0 0 37.96-29.53 20 20 0 1 1 39.7 4.97c-4.68 37.38-36.64 64.82-73.38 64.82zm1039.53-6.12a73.44 73.44 0 0 1-45.28-15.6 73.52 73.52 0 0 1-28-49.24 20 20 0 0 1 39.7-4.96 33.78 33.78 0 0 0 12.85 22.63 33.77 33.77 0 0 0 25.1 6.9 33.77 33.77 0 0 0 22.62-12.87 33.78 33.78 0 0 0 6.9-25.1 33.78 33.78 0 0 0-12.86-22.61 33.76 33.76 0 0 0-25.1-6.9 20 20 0 1 1-4.96-39.7 73.54 73.54 0 0 1 54.61 15.02 73.52 73.52 0 0 1 28 49.24c2.45 19.61-2.88 39-15.01 54.61s-29.63 25.55-49.24 28c-3.12.39-6.23.58-9.33.58z"/></svg>