<svg xmlns="http://www.w3.org/2000/svg" viewBox="0 0 1080 1080" xml:space="preserve"><path d="M700.63 55.36a43.56 43.56 0 0 1-43.7 43.42l-234.17-.76a43.57 43.57 0 0 1-43.43-43.7l.04-10.9A43.57 43.57 0 0 1 423.07 0l234.17.76a43.56 43.56 0 0 1 43.43 43.7l-.04 10.9z"/><g fill="#FFF"><path d="M459.06 60.71c0 1.04-.85 1.83-1.83 1.83-.32 0-.72-.13-1.1-.26L436 53.2c-.98-.45-1.37-.98-1.37-1.82 0-.85.53-1.44 1.37-1.83l20.11-9.08c.4-.13.78-.26 1.11-.26.98 0 1.83.79 1.83 1.83 0 .72-.59 1.37-1.44 1.76l-17.3 7.58 17.3 7.57c.85.39 1.44 1.04 1.44 1.76z"/><path d="M457.23 63.28c-.44 0-.9-.15-1.33-.3l-20.2-9.1c-.84-.4-1.8-1.03-1.8-2.5 0-.77.31-1.82 1.8-2.5l20.11-9.08c.52-.18.98-.33 1.42-.33a2.57 2.57 0 0 1 2.57 2.57c0 .98-.7 1.9-1.87 2.44l-15.77 6.9 15.76 6.9c1.18.54 1.88 1.45 1.88 2.43a2.57 2.57 0 0 1-2.57 2.57zm0-22.33c-.2 0-.56.12-.87.22l-20.04 9.05c-.84.39-.94.85-.94 1.15 0 .41.07.75.94 1.16l20.1 9.07c.25.08.6.2.81.2.6 0 1.09-.49 1.09-1.09 0-.38-.4-.8-1-1.1l-18.84-8.24 18.85-8.25c.6-.27.99-.7.99-1.08 0-.6-.49-1.09-1.09-1.09zm19.45 28.64c-1.1 0-1.9-.78-1.9-2.09V27.87c0-1.3.73-2.09 1.97-2.09 1.1 0 1.89.79 1.89 2.1v16.44c1.96-2.87 5.29-3.98 8.88-3.98 6.53 0 10.84 3.92 10.84 11.75V67.5c0 1.3-.72 2.09-1.96 2.09-1.11 0-1.9-.78-1.9-2.09V52.94c0-6.53-3.4-9-7.63-9-4.64 0-8.23 2.47-8.23 9.07V67.5c0 1.3-.72 2.09-1.96 2.09z"/><path d="M496.4 70.33c-1.55 0-2.64-1.17-2.64-2.83V52.94c0-6.83-3.75-8.27-6.9-8.27-3.41 0-7.48 1.45-7.48 8.34V67.5c0 1.72-1.06 2.83-2.7 2.83-1.55 0-2.63-1.17-2.63-2.83V27.87c0-1.72 1.06-2.83 2.7-2.83 1.55 0 2.63 1.17 2.63 2.83v14.47c1.96-1.8 4.73-2.74 8.14-2.74 7.25 0 11.57 4.67 11.57 12.5v15.4c0 1.72-1.05 2.83-2.7 2.83zm-9.53-27.14c5.32 0 8.37 3.56 8.37 9.75V67.5c0 .86.42 1.35 1.16 1.35.3 0 1.22 0 1.22-1.35V52.1c0-7.1-3.59-11.02-10.1-11.02-2.64 0-6.2.64-8.27 3.66l-1.35 1.98V27.87c0-.86-.42-1.35-1.15-1.35-.3 0-1.22 0-1.22 1.35V67.5c0 .86.42 1.35 1.15 1.35.3 0 1.22 0 1.22-1.35V53c0-6.23 3.27-9.8 8.97-9.8zm23.36 11.84c0-8.68 6.53-14.69 14.82-14.69 8.03 0 14.37 5.49 14.37 13.45 0 1.24-.6 2.09-2.16 2.09h-23.05c.4 5.87 4.9 10.12 11.43 10.12a15.2 15.2 0 0 0 9.33-3.07c.72-.46 1.25-1.05 2.22-1.05 1.05 0 1.83.79 1.83 1.77s-.45 1.5-1.5 2.28c-2.42 1.9-6.72 3.66-12.08 3.66-8.81 0-15.2-5.94-15.2-14.56zm4.25-2.61h20.82c-.46-5.1-5.16-8.49-10.25-8.49s-9.46 3.4-10.57 8.49z"/><path d="M525.44 70.33c-9.24 0-15.95-6.44-15.95-15.3 0-8.8 6.7-15.43 15.56-15.43 8.61 0 15.1 6.1 15.1 14.19 0 1.8-1.05 2.83-2.89 2.83h-22.23c.7 5.2 4.88 8.64 10.6 8.64 3.36 0 5.94-.85 8.92-2.94l.46-.31c.56-.4 1.19-.86 2.18-.86a2.5 2.5 0 0 1 2.57 2.5c0 1.41-.81 2.14-1.8 2.87-3.03 2.38-7.72 3.8-12.52 3.8zm-.39-29.25c-8.16 0-14.08 5.87-14.08 13.95 0 8.14 5.95 13.82 14.47 13.82 6.64 0 10.58-2.68 11.62-3.5 1.05-.78 1.22-1.11 1.22-1.7 0-.59-.46-1.02-1.09-1.02-.49 0-.8.2-1.32.58-.16.11-.32.23-.5.34a15.97 15.97 0 0 1-9.73 3.19c-6.74 0-11.74-4.45-12.17-10.81l-.05-.79h23.84c1.02 0 1.41-.38 1.41-1.35 0-7.36-5.72-12.7-13.62-12.7zm11.06 12.08h-22.55l.2-.9a11.47 11.47 0 0 1 11.3-9.07c5.79 0 10.51 3.94 10.98 9.16l.07.8zm-20.67-1.48h19.01c-.79-4.05-4.68-7-9.4-7a10 10 0 0 0-9.61 7zm34.22 8.97c0-5.55 5.48-8.95 12.14-8.95 3.66 0 7.45.85 10.06 2.74v-2.41c0-4.9-3.27-8.1-9.34-8.1-2.22 0-4.5.4-6.92 1.63-.78.4-1.83 1.05-2.68 1.05-1.17 0-1.89-.78-1.89-1.9 0-.97.78-1.63 2.02-2.28 1.7-.91 5.36-2.09 9.47-2.09 8.55 0 13.12 3.92 13.12 11.62V67.5c0 1.3-.65 2.09-1.9 2.09-1.1 0-1.88-.78-1.88-2.09v-.65c-2.62 1.89-6.4 2.74-10.06 2.74-6.66 0-12.14-3.4-12.14-8.95zm22.46 0c0-3.2-3.53-5.62-9.2-5.62-5.69 0-9.21 2.42-9.21 5.62s3.52 5.6 9.2 5.6 9.2-2.4 9.2-5.6z"/><path d="M573.75 70.33a2.54 2.54 0 0 1-2.57-2.17c-2.47 1.39-5.8 2.17-9.38 2.17-7.58 0-12.88-3.98-12.88-9.68s5.3-9.69 12.88-9.69c3.54 0 6.85.77 9.32 2.14v-1.07c0-4.68-3.14-7.36-8.6-7.36-2.43 0-4.52.5-6.58 1.55l-.45.24c-.8.42-1.69.89-2.56.89a2.52 2.52 0 0 1-2.64-2.63c0-1.47 1.23-2.31 2.42-2.94 2-1.08 5.82-2.18 9.81-2.18 9.07 0 13.86 4.28 13.86 12.36V67.5c0 1.74-1 2.83-2.63 2.83zm-1.15-4.93v2.1c0 .86.42 1.35 1.15 1.35.54 0 1.15-.15 1.15-1.35V51.96c0-7.22-4.16-10.88-12.38-10.88-3.71 0-7.33 1.04-9.11 2-1.44.76-1.64 1.23-1.64 1.64 0 .73.42 1.15 1.15 1.15.51 0 1.27-.4 1.88-.72l.47-.25a15.3 15.3 0 0 1 7.25-1.7c6.31 0 10.08 3.3 10.08 8.83v3.86l-1.18-.85c-2.28-1.65-5.78-2.6-9.62-2.6-6.71 0-11.4 3.38-11.4 8.2s4.69 8.21 11.4 8.21c3.84 0 7.34-.95 9.62-2.6l1.18-.85zm-9.7 1.6c-5.94 0-9.94-2.55-9.94-6.35s4-6.36 9.94-6.36 9.95 2.55 9.95 6.36c0 3.8-4 6.35-9.95 6.35zm0-11.23c-4.98 0-8.46 2-8.46 4.88 0 2.87 3.48 4.87 8.46 4.87s8.47-2 8.47-4.87c0-2.88-3.48-4.88-8.47-4.88zm24.1-.8c0-8.56 5.35-14.63 13.32-14.63 3.72 0 7.3 1.5 9.33 4.57V27.87c0-1.3.79-2.09 1.9-2.09 1.24 0 1.95.79 1.95 2.1V67.5c0 1.3-.78 2.09-1.89 2.09-1.24 0-1.96-.78-1.96-2.09v-2.48c-1.96 3.13-5.61 4.57-9.33 4.57-7.97 0-13.32-6.07-13.32-14.63zm23.04 0c0-6.6-3.85-11.04-9.53-11.04s-9.53 4.44-9.53 11.04S594.83 66 600.51 66s9.53-4.44 9.53-11.03z"/><path d="M611.61 70.33c-1.64 0-2.7-1.11-2.7-2.83v-.38c-2.07 2.06-5.1 3.2-8.6 3.2-8.27 0-14.05-6.3-14.05-15.35s5.78-15.37 14.06-15.37c3.39 0 6.47 1.2 8.6 3.27v-15c0-1.66 1.08-2.83 2.63-2.83 1.63 0 2.7 1.12 2.7 2.83V67.5c0 1.66-1.1 2.83-2.64 2.83zm-1.22-7.89v5.06c0 1.35.92 1.35 1.22 1.35.73 0 1.15-.5 1.15-1.35V27.87c0-1.35-.91-1.35-1.21-1.35-.74 0-1.16.5-1.16 1.35v19.5l-1.36-2.05c-1.77-2.7-4.95-4.24-8.72-4.24-7.52 0-12.57 5.58-12.57 13.89s5.05 13.88 12.57 13.88c3.86 0 7.04-1.54 8.71-4.22l1.37-2.19zm-9.88 4.3c-6.14 0-10.27-4.73-10.27-11.77 0-7.05 4.13-11.78 10.27-11.78s10.27 4.73 10.27 11.78c0 7.04-4.13 11.77-10.27 11.77zm0-22.07c-5.26 0-8.8 4.14-8.8 10.3s3.54 10.29 8.8 10.29 8.8-4.14 8.8-10.3-3.54-10.29-8.8-10.29zm28.39-2.63c0-1.05.85-1.83 1.83-1.83.33 0 .72.13 1.11.26l20.11 9.08c.85.39 1.37.98 1.37 1.82 0 .85-.39 1.38-1.37 1.83l-20.1 9.08c-.4.13-.79.26-1.12.26-.98 0-1.83-.79-1.83-1.83 0-.72.53-1.37 1.44-1.76l17.3-7.58-17.3-7.57c-.91-.39-1.44-1.04-1.44-1.76z"/><path d="M630.73 63.28a2.57 2.57 0 0 1-2.57-2.57c0-1.02.71-1.94 1.89-2.44l15.75-6.9-15.75-6.89c-1.18-.5-1.88-1.42-1.88-2.44a2.57 2.57 0 0 1 2.56-2.57c.45 0 .9.15 1.34.3l20.18 9.1c1.5.7 1.81 1.74 1.81 2.5 0 1.48-.96 2.11-1.8 2.5l-20.11 9.08c-.52.18-.97.33-1.42.33zm0-22.33c-.6 0-1.09.49-1.09 1.09 0 .41.37.82 1 1.08l18.85 8.25-18.85 8.25c-.63.27-1 .68-1 1.09 0 .6.5 1.09 1.1 1.09.2 0 .55-.12.86-.22l20.04-9.05c.87-.4.94-.75.94-1.16 0-.3-.1-.76-.94-1.15l-20.1-9.07c-.25-.08-.6-.2-.8-.2z"/></g><path d="M700.63 1037.03a43.56 43.56 0 0 1-43.72 43.42l-234.17-.82a43.57 43.57 0 0 1-43.41-43.71l.04-10.9a43.57 43.57 0 0 1 43.72-43.4l234.17.8a43.56 43.56 0 0 1 43.41 43.72l-.04 10.9z"/><g fill="#FFF"><path d="M441.73 1041c0 1.05-.85 1.83-1.83 1.83-.32 0-.71-.13-1.1-.26l-20.11-9.08c-.98-.45-1.37-.98-1.37-1.82 0-.85.52-1.44 1.37-1.83l20.1-9.08c.4-.13.79-.26 1.11-.26.98 0 1.83.79 1.83 1.83 0 .72-.59 1.37-1.43 1.76l-17.3 7.58 17.3 7.57c.84.39 1.43 1.04 1.43 1.76z"/><path d="M439.9 1043.57c-.44 0-.9-.15-1.34-.3l-20.18-9.1c-.85-.4-1.8-1.04-1.8-2.5 0-.77.3-1.82 1.8-2.5l20.1-9.08a4.5 4.5 0 0 1 1.42-.33 2.57 2.57 0 0 1 2.57 2.57c0 .99-.7 1.9-1.87 2.43l-15.76 6.9 15.75 6.9c1.18.55 1.88 1.46 1.88 2.44a2.57 2.57 0 0 1-2.57 2.57zm0-22.33c-.2 0-.56.12-.87.23l-20.04 9.04c-.84.39-.94.85-.94 1.16 0 .4.07.75.95 1.15l20.1 9.07c.24.08.6.2.8.2.6 0 1.1-.49 1.1-1.09 0-.38-.4-.8-1.01-1.1l-18.84-8.24 18.85-8.25c.6-.27 1-.7 1-1.08 0-.6-.5-1.09-1.1-1.09zm44.72-15.17c1.17 0 1.83.79 1.83 1.77 0 .45-.13.84-.33 1.17l-31.34 52.69c-.32.58-.97 1.1-1.7 1.1-1.17 0-1.82-.78-1.82-1.76 0-.45.13-.85.33-1.17l31.33-52.68c.33-.6.98-1.12 1.7-1.12z"/><path d="M453.09 1063.55c-1.52 0-2.57-1.03-2.57-2.5a3 3 0 0 1 .43-1.56l31.34-52.68a2.77 2.77 0 0 1 2.33-1.48c1.51 0 2.57 1.03 2.57 2.5a3 3 0 0 1-.43 1.56l-31.34 52.69a2.77 2.77 0 0 1-2.33 1.47zm31.53-56.74c-.42 0-.85.37-1.05.73l-31.35 52.7c-.15.26-.22.52-.22.8 0 .31.1 1.03 1.09 1.03.42 0 .85-.37 1.05-.73l31.35-52.7c.14-.25.22-.52.22-.8 0-.31-.1-1.03-1.09-1.03zm13.25 43.07c-1.11 0-1.9-.78-1.9-2.09v-39.63c0-1.3.72-2.08 1.96-2.08 1.11 0 1.9.78 1.9 2.08v16.46c1.95-2.88 5.28-3.99 8.87-3.99 6.53 0 10.84 3.92 10.84 11.75v15.41c0 1.3-.72 2.09-1.96 2.09-1.1 0-1.89-.78-1.89-2.09v-14.56c0-6.53-3.4-9-7.64-9-4.63 0-8.22 2.48-8.22 9.07v14.5c0 1.3-.72 2.08-1.96 2.08z"/><path d="M517.58 1050.62c-1.55 0-2.63-1.16-2.63-2.83v-14.56c0-6.83-3.75-8.27-6.9-8.27-3.41 0-7.48 1.45-7.48 8.34v14.5c0 1.71-1.06 2.82-2.7 2.82-1.55 0-2.64-1.16-2.64-2.83v-39.63c0-1.72 1.06-2.83 2.7-2.83 1.55 0 2.64 1.17 2.64 2.83v14.47c1.95-1.8 4.73-2.74 8.13-2.74 7.25 0 11.58 4.67 11.58 12.5v15.4c0 1.72-1.06 2.83-2.7 2.83zm-9.53-27.14c5.33 0 8.38 3.56 8.38 9.75v14.56c0 .86.42 1.35 1.15 1.35.3 0 1.22 0 1.22-1.35v-15.4c0-7.1-3.58-11.02-10.1-11.02-2.63 0-6.2.64-8.26 3.66l-1.35 1.98v-18.85c0-.86-.42-1.35-1.16-1.35-.3 0-1.22 0-1.22 1.35v39.63c0 .86.42 1.35 1.16 1.35.3 0 1.22 0 1.22-1.35v-14.5c0-8.53 5.61-9.8 8.96-9.8zm23.37 11.84c0-8.68 6.53-14.69 14.82-14.69 8.03 0 14.36 5.49 14.36 13.45 0 1.24-.58 2.1-2.15 2.1H535.4c.4 5.87 4.9 10.11 11.43 10.11a15.2 15.2 0 0 0 9.33-3.07c.72-.46 1.24-1.04 2.22-1.04 1.05 0 1.83.78 1.83 1.76s-.46 1.5-1.5 2.28c-2.42 1.9-6.73 3.66-12.08 3.66-8.81 0-15.21-5.94-15.21-14.56zm4.24-2.61h20.83c-.46-5.1-5.16-8.49-10.25-8.49-5.1 0-9.47 3.4-10.58 8.49z"/><path d="M546.63 1050.62c-9.4 0-15.95-6.3-15.95-15.3 0-8.8 6.69-15.43 15.56-15.43 8.6 0 15.1 6.1 15.1 14.2 0 1.79-1.05 2.82-2.9 2.82h-22.22c.7 5.2 4.87 8.64 10.6 8.64 3.36 0 5.94-.85 8.92-2.93l.46-.32a3.5 3.5 0 0 1 2.18-.86 2.5 2.5 0 0 1 2.57 2.5c0 1.42-.82 2.14-1.8 2.88-3.03 2.38-7.72 3.8-12.52 3.8zm-.4-29.25c-8.15 0-14.07 5.87-14.07 13.95 0 8.14 5.95 13.82 14.47 13.82 6.64 0 10.57-2.68 11.62-3.5 1.05-.78 1.22-1.1 1.22-1.7 0-.58-.47-1.02-1.09-1.02-.49 0-.8.2-1.31.57l-.51.36a15.96 15.96 0 0 1-9.73 3.18c-6.74 0-11.74-4.45-12.17-10.81l-.05-.79h23.84c1.01 0 1.41-.38 1.41-1.35 0-7.36-5.73-12.7-13.62-12.7zm11.07 12.08h-22.56l.2-.9a11.47 11.47 0 0 1 11.3-9.07c5.8 0 10.52 3.94 10.98 9.16l.08.8zm-20.68-1.48h19.02c-.8-4.05-4.68-7-9.4-7a10 10 0 0 0-9.62 7zm34.23 8.97c0-5.55 5.48-8.95 12.14-8.95 3.66 0 7.44.85 10.05 2.74v-2.41c0-4.9-3.26-8.1-9.33-8.1-2.22 0-4.5.4-6.92 1.63-.79.4-1.83 1.05-2.68 1.05-1.18 0-1.9-.78-1.9-1.9 0-.97.8-1.63 2.03-2.28 1.7-.91 5.35-2.09 9.47-2.09 8.55 0 13.12 3.92 13.12 11.62v15.54c0 1.3-.65 2.09-1.9 2.09-1.1 0-1.89-.78-1.89-2.09v-.65c-2.6 1.9-6.4 2.74-10.05 2.74-6.66 0-12.14-3.4-12.14-8.94zm22.45 0c0-3.2-3.52-5.62-9.2-5.62s-9.2 2.42-9.2 5.62 3.52 5.61 9.2 5.61 9.2-2.41 9.2-5.61z"/><path d="M594.93 1050.62a2.54 2.54 0 0 1-2.57-2.17c-2.47 1.39-5.8 2.17-9.37 2.17-7.59 0-12.88-3.98-12.88-9.68s5.3-9.69 12.88-9.69c3.54 0 6.85.77 9.31 2.14v-1.07c0-4.68-3.13-7.36-8.6-7.36-2.43 0-4.52.5-6.58 1.55l-.44.23c-.8.42-1.7.9-2.57.9a2.52 2.52 0 0 1-2.63-2.63c0-1.47 1.22-2.31 2.42-2.94 2-1.08 5.82-2.18 9.8-2.18 9.07 0 13.87 4.28 13.87 12.36v15.54c0 1.75-1.01 2.83-2.64 2.83zm-1.15-4.93v2.1c0 .86.42 1.35 1.16 1.35.53 0 1.15-.15 1.15-1.35v-15.54c0-7.22-4.17-10.88-12.38-10.88-3.71 0-7.33 1.04-9.12 2-1.43.76-1.63 1.24-1.63 1.64 0 .73.42 1.15 1.15 1.15.51 0 1.27-.4 1.88-.72l.47-.25a15.3 15.3 0 0 1 7.25-1.7c6.3 0 10.07 3.3 10.07 8.83v3.86l-1.17-.85c-2.28-1.65-5.79-2.6-9.62-2.6-6.72 0-11.4 3.37-11.4 8.2s4.68 8.21 11.4 8.21c3.83 0 7.34-.95 9.62-2.6l1.17-.85zm-9.68 1.6c-5.95 0-9.94-2.55-9.94-6.35s4-6.36 9.94-6.36c5.95 0 9.94 2.56 9.94 6.36 0 3.8-4 6.35-9.94 6.35zm0-11.23c-4.98 0-8.47 2-8.47 4.87 0 2.88 3.49 4.88 8.47 4.88s8.47-2 8.47-4.88c0-2.86-3.49-4.87-8.47-4.87zm24.08-.8c0-8.56 5.36-14.63 13.32-14.63 3.72 0 7.31 1.5 9.34 4.57v-17.04c0-1.3.78-2.09 1.9-2.09 1.23 0 1.95.79 1.95 2.1v39.62c0 1.3-.78 2.09-1.9 2.09-1.23 0-1.95-.78-1.95-2.09v-2.48c-1.96 3.13-5.62 4.57-9.34 4.57-7.96 0-13.32-6.07-13.32-14.62zm23.05 0c0-6.6-3.85-11.04-9.53-11.04s-9.53 4.44-9.53 11.04 3.85 11.03 9.53 11.03 9.53-4.44 9.53-11.03z"/><path d="M632.8 1050.62c-1.64 0-2.7-1.11-2.7-2.83v-.38c-2.07 2.06-5.1 3.21-8.6 3.21-8.27 0-14.05-6.32-14.05-15.36 0-9.05 5.78-15.37 14.05-15.37 3.4 0 6.47 1.2 8.6 3.27v-15c0-1.66 1.08-2.83 2.63-2.83 1.64 0 2.7 1.12 2.7 2.83v39.63c0 1.67-1.08 2.83-2.63 2.83zm-1.22-7.89v5.06c0 1.35.91 1.35 1.22 1.35.73 0 1.15-.5 1.15-1.35v-39.63c0-1.35-.92-1.35-1.22-1.35-.73 0-1.15.5-1.15 1.35v19.5l-1.36-2.05c-1.78-2.7-4.95-4.24-8.72-4.24-7.52 0-12.58 5.58-12.58 13.88s5.06 13.89 12.58 13.89c3.86 0 7.03-1.54 8.71-4.22l1.37-2.19zm-9.88 4.3c-6.15 0-10.27-4.73-10.27-11.77 0-7.04 4.13-11.78 10.27-11.78s10.27 4.74 10.27 11.78c0 7.04-4.13 11.77-10.27 11.77zm0-22.07c-5.26 0-8.8 4.14-8.8 10.3 0 6.15 3.54 10.29 8.8 10.29 5.26 0 8.79-4.14 8.79-10.3 0-6.15-3.53-10.29-8.8-10.29zm28.4-2.63c0-1.04.84-1.83 1.82-1.83.33 0 .72.13 1.11.26l20.1 9.08c.86.39 1.38.98 1.38 1.83 0 .84-.4 1.37-1.37 1.82l-20.11 9.08c-.4.13-.78.26-1.11.26-.98 0-1.83-.79-1.83-1.83 0-.72.52-1.37 1.44-1.76l17.3-7.58-17.3-7.57c-.91-.39-1.44-1.04-1.44-1.76z"/><path d="M651.92 1043.57a2.57 2.57 0 0 1-2.57-2.57c0-1.02.7-1.94 1.89-2.44l15.74-6.9-15.75-6.89c-1.17-.5-1.88-1.42-1.88-2.44a2.57 2.57 0 0 1 2.57-2.57c.45 0 .9.16 1.34.3l20.18 9.1c1.5.7 1.8 1.74 1.8 2.5 0 1.47-.95 2.11-1.79 2.5l-20.12 9.08c-.5.18-.96.33-1.41.33zm0-22.33c-.6 0-1.09.49-1.09 1.1 0 .4.37.8.99 1.07l18.85 8.26-18.85 8.25c-.62.26-.99.67-.99 1.08 0 .6.49 1.09 1.09 1.09.2 0 .56-.12.88-.22l20.03-9.05c.87-.4.94-.75.94-1.15 0-.31-.1-.77-.94-1.16l-20.1-9.07c-.25-.08-.6-.2-.81-.2z"/></g><path fill="#FFF" d="M324.97 886.85a73.23 73.23 0 0 1-33.7-8.1 66.5 66.5 0 0 0-60.44 0 73.24 73.24 0 0 1-33.69 8.1 73.23 73.23 0 0 1-33.69-8.1 66.5 66.5 0 0 0-60.44 0 73.23 73.23 0 0 1-35.87 8.07 67.5 67.5 0 0 1-56.48-33.6 69.05 69.05 0 0 1-1.8-67.2L182.6 451.89a2 2 0 0 1 3.55 1.84L12.4 787.87a65.07 65.07 0 0 0 1.7 63.33 63.52 63.52 0 0 0 55.2 31.64 69.28 69.28 0 0 0 31.87-7.65 70.5 70.5 0 0 1 64.1 0 69.28 69.28 0 0 0 31.86 7.65 69.28 69.28 0 0 0 31.87-7.65 70.5 70.5 0 0 1 64.09 0 69.28 69.28 0 0 0 31.86 7.65 70.17 70.17 0 0 0 70.1-70.09 2 2 0 0 1 4 0c0 40.86-33.24 74.1-74.1 74.1zm686.71 0a73.23 73.23 0 0 1-33.69-8.1 66.5 66.5 0 0 0-60.44 0 73.23 73.23 0 0 1-33.69 8.1 73.24 73.24 0 0 1-33.7-8.1 66.49 66.49 0 0 0-60.43 0 73.24 73.24 0 0 1-33.7 8.1c-40.85 0-74.09-33.24-74.09-74.1a2 2 0 0 1 4 0 70.17 70.17 0 0 0 70.1 70.1 69.29 69.29 0 0 0 31.86-7.66 70.5 70.5 0 0 1 64.1 0 69.29 69.29 0 0 0 31.86 7.66 69.28 69.28 0 0 0 31.87-7.66 70.5 70.5 0 0 1 64.09 0 69.28 69.28 0 0 0 33.93 7.63 63.52 63.52 0 0 0 53.14-31.62 65.07 65.07 0 0 0 1.7-63.33L894.87 453.72a2 2 0 1 1 3.55-1.84l173.72 334.15a69.05 69.05 0 0 1-1.8 67.2 67.5 67.5 0 0 1-58.66 33.62z"/><path fill="#FFF" d="M891.68 439.27c-4.7.02-9.32.34-13.86.88-43.27-146.6-179.24-253.25-339.76-252.43-160.52.83-295.39 108.89-337.12 255.92a122.5 122.5 0 0 0-13.88-.73c-67.56.35-122.04 55.4-121.7 122.96.36 67.56 55.4 122.05 122.97 121.7 10.3-.06 20.27-1.4 29.81-3.84C273.4 807.28 397.66 893.08 541.7 892.34c144.02-.75 267.4-87.83 321.38-211.93a122.65 122.65 0 0 0 29.86 3.52c67.56-.35 122.04-55.4 121.7-122.96-.35-67.57-55.4-122.05-122.96-121.7zM545.22 792.44c-58.3 0-105.58-47.27-105.58-105.58H650.8c0 58.31-47.27 105.58-105.58 105.58zM281.2 391.64c48.62-92.88 145.68-156.5 257.82-157.08 113.22-.58 211.73 63.24 260.84 157.08H281.19z"/><path d="M872.17 616.36a2 2 0 0 1-1.47-3.36l75.45-81.16a2 2 0 0 1 2.93 2.72l-75.44 81.17a2 2 0 0 1-1.47.63zm-663.89-3.42a2 2 0 0 1-1.48-.66l-74.62-81.94a2 2 0 1 1 2.96-2.7l74.62 81.95a2 2 0 0 1-1.48 3.35zm449.87-34.9a38.65 38.65 0 1 0 77.3.4 38.65 38.65 0 0 0-77.3-.4z"/><path d="M696.8 618.88h-.22a40.69 40.69 0 0 1-40.43-40.85 40.7 40.7 0 0 1 40.64-40.42h.21a40.38 40.38 0 0 1 28.68 12.04 40.38 40.38 0 0 1 11.76 28.8 40.38 40.38 0 0 1-12.05 28.68 40.38 40.38 0 0 1-28.59 11.75zm-36.65-40.82a36.68 36.68 0 0 0 36.45 36.82h.2a36.4 36.4 0 0 0 25.77-10.6 36.4 36.4 0 0 0 10.87-25.85 36.4 36.4 0 0 0-10.6-25.96 36.4 36.4 0 0 0-25.86-10.86h-.2a36.68 36.68 0 0 0-36.63 36.45z"/><path d="M790.45 590.67a2 2 0 0 1-1.65-.87 110.6 110.6 0 0 0-91.5-48.54 110.65 110.65 0 0 0-90.88 47.59 2 2 0 0 1-3.28-2.28 114.66 114.66 0 0 1 94.75-49.3c37.75.2 72.98 19 94.22 50.28a2 2 0 0 1-1.66 3.12zm-437.42-12.63a38.64 38.64 0 1 0 77.29.4 38.64 38.64 0 0 0-77.29-.4z"/><path d="M391.68 618.88h-.22a40.38 40.38 0 0 1-28.67-12.05 40.36 40.36 0 0 1-11.76-28.8 40.69 40.69 0 0 1 40.64-40.42h.21a40.38 40.38 0 0 1 28.68 12.04 40.37 40.37 0 0 1 11.76 28.8 40.36 40.36 0 0 1-12.05 28.68 40.39 40.39 0 0 1-28.59 11.75zm-.01-77.27a36.68 36.68 0 0 0-36.64 36.45c-.05 9.78 3.72 19 10.6 25.96a36.41 36.41 0 0 0 25.85 10.86c9.75.03 19.02-3.7 25.97-10.6s10.82-16.06 10.87-25.85a36.4 36.4 0 0 0-10.6-25.96 36.41 36.41 0 0 0-25.86-10.86h-.2z"/><path d="M486.94 590.67a2 2 0 0 1-1.65-.87 110.6 110.6 0 0 0-91.5-48.54 110.65 110.65 0 0 0-90.88 47.59 2 2 0 0 1-3.28-2.28 114.66 114.66 0 0 1 94.75-49.3c37.76.2 72.98 19 94.22 50.28a2 2 0 0 1-1.66 3.12zm58.75 56.8h-.01a2 2 0 0 1-2-2.01l.35-67.68a2 2 0 0 1 2-1.99h.01a2 2 0 0 1 2 2.01l-.35 67.68a2 2 0 0 1-2 1.99zm349.55-208.02a2 2 0 0 1-.01-4l8.32-.04c-.8-2.65-1.63-5.3-2.48-7.9a2 2 0 1 1 3.8-1.24c1.14 3.48 2.24 7.03 3.28 10.56a2 2 0 0 1-1.9 2.57l-11 .06h-.01zm-710.87-28.06a2 2 0 0 1-1.87-2.71 382.66 382.66 0 0 1 8.63-20.72 2 2 0 0 1 3.64 1.64 379.28 379.28 0 0 0-8.54 20.5 2 2 0 0 1-1.86 1.29zm711.03-3.51a2 2 0 0 1-1.86-1.27 379.41 379.41 0 0 0-8.75-20.44 2 2 0 1 1 3.63-1.68 383.2 383.2 0 0 1 8.85 20.65 2 2 0 0 1-1.87 2.74zM202.73 370.7a2 2 0 0 1-1.77-2.93c3.46-6.6 7.16-13.18 11-19.56a2 2 0 0 1 3.43 2.06 380.1 380.1 0 0 0-10.89 19.36 2 2 0 0 1-1.77 1.07zm673.9-3.36a2 2 0 0 1-1.77-1.06c-3.5-6.5-7.23-12.98-11.09-19.26a2 2 0 1 1 3.4-2.1c3.91 6.35 7.68 12.9 11.21 19.47a2 2 0 0 1-1.76 2.95zm-650.9-34.9a2 2 0 0 1-1.65-3.13 398.03 398.03 0 0 1 13.22-18.14 2 2 0 0 1 3.16 2.45 381.76 381.76 0 0 0-13.07 17.96 2 2 0 0 1-1.65.87zm627.49-3.14a2 2 0 0 1-1.64-.85 381.64 381.64 0 0 0-13.26-17.84 2 2 0 1 1 3.14-2.48 392.84 392.84 0 0 1 13.4 18.02 2 2 0 0 1-1.64 3.15zm-600.17-32.16a2 2 0 0 1-1.5-3.31 385.98 385.98 0 0 1 15.23-16.5 2 2 0 1 1 2.86 2.8 383.61 383.61 0 0 0-15.08 16.32 2 2 0 0 1-1.5.69zm572.5-2.88a2 2 0 0 1-1.5-.67 381.96 381.96 0 0 0-15.24-16.17 2 2 0 0 1 2.83-2.83 387.48 387.48 0 0 1 15.4 16.34 2 2 0 0 1-1.5 3.33zm-541.26-29.02a2 2 0 0 1-1.34-3.48 386.45 386.45 0 0 1 17.05-14.6 2 2 0 1 1 2.5 3.11 383.6 383.6 0 0 0-16.86 14.46 2 2 0 0 1-1.35.52zm509.7-2.56a2 2 0 0 1-1.34-.51 383.37 383.37 0 0 0-17-14.29 2 2 0 1 1 2.47-3.13 386.15 386.15 0 0 1 17.2 14.43 2 2 0 0 1-1.34 3.5zm-474.96-25.5a2 2 0 0 1-1.16-3.62 384.31 384.31 0 0 1 18.63-12.52 2 2 0 1 1 2.13 3.38 383.2 383.2 0 0 0-18.44 12.4 2 2 0 0 1-1.16.36zm439.94-2.2a2 2 0 0 1-1.14-.36 381.06 381.06 0 0 0-18.56-12.2 2 2 0 1 1 2.1-3.41c6.34 3.9 12.65 8.06 18.75 12.33a2 2 0 0 1-1.15 3.64zm-402.16-21.6a2 2 0 0 1-.97-3.76c6.54-3.6 13.26-7.05 19.98-10.26a2 2 0 0 1 1.72 3.61 379.7 379.7 0 0 0-19.77 10.15 2 2 0 0 1-.96.25zm364.17-1.82a2 2 0 0 1-.94-.24 380.02 380.02 0 0 0-19.85-9.95 2 2 0 1 1 1.68-3.62 386.9 386.9 0 0 1 20.06 10.05 2 2 0 0 1-.95 3.76zm-323.86-17.4a2 2 0 0 1-.76-3.86c6.91-2.81 14-5.45 21.05-7.84a2 2 0 0 1 1.28 3.79 378.68 378.68 0 0 0-20.82 7.75 2 2 0 0 1-.75.15zm283.4-1.4a2 2 0 0 1-.73-.15 378.87 378.87 0 0 0-20.87-7.54 2 2 0 0 1 1.24-3.8 383.3 383.3 0 0 1 21.1 7.62 2 2 0 0 1-.74 3.87zm-241.1-12.95a2 2 0 0 1-.54-3.93 381.62 381.62 0 0 1 21.83-5.3 2 2 0 1 1 .83 3.9c-7.22 1.54-14.5 3.3-21.6 5.25-.17.05-.35.08-.53.08zm198.73-.97c-.17 0-.34-.02-.51-.06a376.78 376.78 0 0 0-21.64-5.04 2 2 0 1 1 .8-3.92c7.3 1.48 14.66 3.19 21.86 5.1a2 2 0 0 1-.51 3.92zm-155.05-8.3a2 2 0 0 1-.3-3.97 386.62 386.62 0 0 1 22.3-2.7 2 2 0 1 1 .36 3.98 383.1 383.1 0 0 0-22.36 2.7zm111.3-.53c-.1 0-.2 0-.29-.02a383.79 383.79 0 0 0-22.07-2.47 2 2 0 0 1 .32-3.98c7.45.61 14.96 1.45 22.31 2.49a2 2 0 0 1-.28 3.98zm-66.83-3.55a2 2 0 0 1-.07-4 393.72 393.72 0 0 1 22.45-.11 2 2 0 0 1-.05 4h-.04a398.6 398.6 0 0 0-9.14-.11h-2.12c-3.64.02-7.33.1-10.97.22h-.06zM173.8 443.18a2 2 0 0 1-1.92-2.55c1-3.53 2.07-7.1 3.17-10.6a2 2 0 0 1 3.82 1.21c-.83 2.62-1.64 5.27-2.41 7.92l8.33-.04h.01a2 2 0 0 1 .01 4l-11 .06h-.01zm32.53-.17a2 2 0 0 1-.01-4l21.52-.11h.01a2 2 0 0 1 .02 4l-21.53.11h-.01zm43.05-.22a2 2 0 0 1 0-4l21.52-.11h.01a2 2 0 0 1 .01 4l-21.52.1h-.02zm43.06-.22a2 2 0 0 1-.01-4l21.53-.12a2 2 0 0 1 .02 4l-21.53.12h-.01zm43.06-.23a2 2 0 0 1-.01-4l21.52-.1h.02a2 2 0 0 1 0 4l-21.52.1h-.01zm43.06-.22a2 2 0 0 1-.02-4l21.53-.1h.01a2 2 0 0 1 .01 4l-21.52.1h-.01zm43.05-.22a2 2 0 0 1-.01-4l21.53-.11a2 2 0 0 1 .02 4l-21.53.1zm43.06-.22a2 2 0 0 1-.01-4l21.52-.11h.02a2 2 0 0 1 0 4l-21.52.1h-.01zm43.06-.23a2 2 0 0 1-.02-4l21.53-.1h.01a2 2 0 0 1 .01 4l-21.52.1h-.01zm43.05-.22a2 2 0 0 1-.01-4l21.53-.1a2 2 0 0 1 .02 4l-21.53.1zm43.06-.22a2 2 0 0 1-.01-4l21.53-.11a2 2 0 0 1 .02 4l-21.53.11h-.01zm43.05-.22a2 2 0 0 1 0-4l21.52-.11h.01a2 2 0 0 1 .01 4l-21.52.1h-.01zm43.06-.23a2 2 0 0 1 0-4l21.52-.1h.01a2 2 0 0 1 .01 4l-21.53.1zm43.06-.22a2 2 0 0 1-.01-4l21.53-.1a2 2 0 0 1 .02 4l-21.53.1h-.01zm43.06-.22a2 2 0 0 1-.02-4l21.53-.11h.01a2 2 0 0 1 .01 4l-21.52.11h-.01zm43.05-.22a2 2 0 0 1 0-4l21.52-.11h.01a2 2 0 0 1 .01 4l-21.53.1zm43.06-.22a2 2 0 0 1-.01-4l21.53-.11a2 2 0 0 1 .02 4l-21.53.1h-.01z"/><path fill="#FF8630" d="m599.22 342.35-117.44-.58a23.3 23.3 0 0 1-23.18-23.4l.06-11.86a23.3 23.3 0 0 1 23.4-23.18l117.44.58a23.3 23.3 0 0 1 23.18 23.4l-.06 11.86a23.3 23.3 0 0 1-23.4 23.18z"/><path fill="#FFF" d="M491.68 328.21h-.05c-6.12-.03-9.12-5.15-9.85-7.86a2 2 0 0 1-.07-.53l.1-21.6a2 2 0 0 1 2-2h.01a2 2 0 0 1 2 2.01l-.11 21.3c.33.96 1.88 4.66 5.94 4.68h.03c4.03 0 5.6-3.65 5.96-4.63l.1-21.29a2 2 0 0 1 2-1.99h.01a2 2 0 0 1 2 2.01l-.12 21.6a2 2 0 0 1-.07.54c-.76 2.69-3.8 7.76-9.88 7.76zm97.87.49h-.05c-6.12-.04-9.12-5.16-9.85-7.87a2 2 0 0 1-.07-.53l.1-21.6a2 2 0 0 1 2-2h.01a2 2 0 0 1 2 2.01l-.11 21.3c.33.96 1.88 4.66 5.94 4.68h.03c4.03 0 5.6-3.65 5.96-4.63l.1-21.29a2 2 0 0 1 2-1.99h.01a2 2 0 0 1 2 2.01l-.11 21.6a2 2 0 0 1-.08.54c-.76 2.69-3.8 7.76-9.88 7.76z"/><circle transform="rotate(-89.72 516.42 309.45)" fill="#FFF" cx="516.43" cy="309.45" r="3.92"/><circle transform="rotate(-89.72 565.32 309.7)" fill="#FFF" cx="565.32" cy="309.7" r="3.92"/><path fill="#FFF" d="M547.4 312.92c-.03 3.98-4.72 10.98-7.29 10.96-2.29 0-7.18-7.05-7.16-11.04a7.22 7.22 0 0 1 14.44.08z"/><path fill="#FFF" d="M533 329.16c-.77 0-1.45-.14-1.98-.34a2 2 0 0 1 1.38-3.76c.34.1 3.04.77 5.16-4.37a2 2 0 1 1 3.7 1.52c-2.27 5.49-5.74 6.95-8.25 6.95z"/><path fill="#FFF" d="M547.24 329.23c-2.52 0-6.02-1.47-8.25-7.03a2 2 0 1 1 3.7-1.49c2.1 5.2 4.83 4.52 5.13 4.43a1.99 1.99 0 0 1 2.55 1.19 2.02 2.02 0 0 1-1.2 2.57c-.52.2-1.19.33-1.93.33z"/><path d="M158.86 761.41c-2.5 0-5.02-.15-7.55-.47-15.87-1.98-30.02-10.03-39.84-22.65s-14.14-28.32-12.15-44.2a59.49 59.49 0 0 1 22.65-39.83 59.49 59.49 0 0 1 44.2-12.16 20 20 0 1 1-4.97 39.7 19.74 19.74 0 0 0-14.67 4.03 19.75 19.75 0 0 0-7.52 13.23 19.75 19.75 0 0 0 4.04 14.67 19.75 19.75 0 0 0 13.22 7.52c5.27.66 10.48-.77 14.68-4.03a19.75 19.75 0 0 0 7.52-13.23 20 20 0 0 1 39.69 4.96 59.49 59.49 0 0 1-22.66 39.84 59.42 59.42 0 0 1-36.64 12.62zm767.6-4.52a59.43 59.43 0 0 1-36.64-12.63 59.49 59.49 0 0 1-22.66-39.84 20 20 0 1 1 39.7-4.96 19.75 19.75 0 0 0 7.51 13.23 19.9 19.9 0 0 0 24.41-31.39 19.7 19.7 0 0 0-14.67-4.03 20 20 0 1 1-4.96-39.7 59.5 59.5 0 0 1 44.2 12.16A59.49 59.49 0 0 1 986 689.57a59.5 59.5 0 0 1-12.15 44.19A59.48 59.48 0 0 1 934 756.42c-2.53.31-5.05.47-7.55.47z"/></svg>