<svg xmlns="http://www.w3.org/2000/svg" width="1550" height="750" xml:space="preserve"><circle fill="#FFF" cx="1297.26" cy="545.26" r="174.91"/><path fill="#FFF" d="M1138.37 618.92h242.87l2.72 126.88-285.47.65z"/><circle cx="1186.4" cy="590.83" r="31.72"/><circle cx="1286.99" cy="590.83" r="31.72"/><path d="M1255.4 651.41a18.26 18.26 0 0 1-36.51 0c0-10.08 8.17-39.74 18.26-39.74s18.26 29.66 18.26 39.75z"/><path fill="#FF8630" d="M236.1 410.2a31.1 31.1 0 0 1-62.2 0c0-17.18 31.1-82.27 31.1-81.27s31.1 64.1 31.1 81.27z"/><path fill="#FFF" d="M205 443.27a33.11 33.11 0 0 1-33.07-33.07c0-9.25 8.44-31.1 15.53-47.8a757.44 757.44 0 0 1 10.7-24.01c5.34-11.44 5.34-11.44 6.83-11.44h1.97v1.65c.34.81 1.54 3.4 2.9 6.35 13.14 28.4 28.21 62.6 28.21 75.25A33.1 33.1 0 0 1 205 443.27zm-.15-109.77c-6.55 13.53-28.98 62.52-28.98 76.7A29.17 29.17 0 0 0 205 439.33a29.17 29.17 0 0 0 29.14-29.13c0-13.4-20.23-57.13-27.85-73.6l-1.44-3.1z"/><path d="M205.79 514.23a1.97 1.97 0 0 1-1.97-1.97V406.53a1.97 1.97 0 0 1 3.94 0v105.73c0 1.09-.88 1.97-1.97 1.97z"/><path d="M130.35 463.31h150.88v282.73H130.35z"/><path fill="#FF8630" d="M359.4 518.9a23.45 23.45 0 1 1-46.9 0c0-12.96 23.46-62.04 23.46-61.29 0 .76 23.45 48.33 23.45 61.29z"/><path fill="#FFF" d="M335.96 544.32a25.45 25.45 0 0 1-25.43-25.42c0-5.67 3.96-17.86 11.75-36.24 3.37-7.93 6.5-14.76 8.07-18.12 4.16-8.9 4.16-8.9 5.6-8.9h1.97v1.63l2.14 4.68c9.93 21.45 21.32 47.32 21.32 56.95a25.45 25.45 0 0 1-25.42 25.42zm-.14-82.16c-5.51 11.39-21.35 46.71-21.35 56.74a21.5 21.5 0 0 0 21.48 21.48 21.5 21.5 0 0 0 21.49-21.48c0-10-15.23-42.91-20.96-55.3l-.66-1.44zm.58 152.5V508.94"/><path d="M336.4 616.63a1.97 1.97 0 0 1-1.97-1.97V508.94a1.97 1.97 0 0 1 3.94 0v105.72c0 1.1-.88 1.97-1.97 1.97z"/><path fill="#FFF" d="M281.12 557.27h110.56v188.5H281.12z"/><path fill="#FF8630" d="M256.33 744.07c-15.4 0-28.04-12-29.05-27.15h218.25a29.16 29.16 0 0 1-29.05 27.15H256.33z"/><path fill="#FFF" d="M443.34 718.9a27.2 27.2 0 0 1-26.86 23.2H256.33a27.19 27.19 0 0 1-26.87-23.2h213.88m4.23-3.95H225.24a31.09 31.09 0 0 0 31.09 31.1h160.15a31.09 31.09 0 0 0 31.09-31.1zM295.63 607.42a14.5 14.5 0 1 1-29 0c0-8.01 14.5-50.15 14.5-50.15-.02.02 14.5 42.14 14.5 50.15zm110.45 74.19a14.5 14.5 0 1 1-29 0c0-8 14.5-50.15 14.5-50.14-.02.01 14.5 42.13 14.5 50.14z"/><path fill="#FF8630" d="M1409.68 567.83a23.45 23.45 0 1 1-46.9 0c0-12.95 23.45-62.04 23.45-61.28 0 .76 23.45 48.33 23.45 61.28z"/><path fill="#FFF" d="M1386.23 593.26a25.45 25.45 0 0 1-25.42-25.43c0-5.66 3.95-17.85 11.74-36.23 3.37-7.94 6.5-14.76 8.08-18.12 4.15-8.9 4.15-8.9 5.6-8.9h1.96v1.63c.3.67 1.16 2.55 2.15 4.68 9.92 21.46 21.31 47.31 21.31 56.94a25.45 25.45 0 0 1-25.42 25.43zm-.14-82.17c-5.5 11.4-21.35 46.72-21.35 56.74 0 11.85 9.64 21.49 21.49 21.49s21.48-9.64 21.48-21.49c0-10-15.22-42.9-20.95-55.28l-.67-1.46z"/><path d="M1339.55 611.64v.02c.01 0-14.5 42.14-14.5 50.15s6.5 14.5 14.5 14.5v69.46H1432V611.64h-92.44z"/><path fill="#FFF" d="M1385.77 667.23V561.5"/><path d="M1385.77 669.2a1.97 1.97 0 0 1-1.97-1.98V561.5a1.97 1.97 0 0 1 3.94 0v105.73c0 1.08-.88 1.96-1.97 1.96z"/><path fill="#FF8630" d="M1305.7 744.07c-15.4 0-28.05-12-29.06-27.15h218.26a29.16 29.16 0 0 1-29.05 27.15h-160.16z"/><path d="M1492.71 718.9a27.2 27.2 0 0 1-26.86 23.2h-160.16a27.2 27.2 0 0 1-26.86-23.2h213.88m4.23-3.95H1274.6a31.09 31.09 0 0 0 31.1 31.1h160.15a31.09 31.09 0 0 0 31.09-31.1zM78.24 451.77c-.27 0-.56-.06-.82-.18-40.85-18.9-62.61-68.85-63-108.44-.24-25.4 14.23-63.88 38.02-81.75 7-5.26 14.48-8.46 22.17-9.55a88.49 88.49 0 0 1 17.4-37.44c20.91-25.87 55.2-40.16 91.73-38.23 26.84 1.42 55.44 13.1 80.51 32.86l2.15 1.7c28.57 22.56 51.14 40.38 89.96 30.36 31.56-8.15 50.21-36.61 47.5-72.52a1.97 1.97 0 1 1 3.93-.3c2.86 37.9-16.94 67.99-50.44 76.63a89.2 89.2 0 0 1-22.35 3.03c-27.83 0-47.45-15.48-71.05-34.11l-2.14-1.7c-24.44-19.27-52.24-30.64-78.28-32.02-35.28-1.86-68.34 11.88-88.45 36.78a84.4 84.4 0 0 0-16.39 34.58c4.9-.22 9.85.42 14.8 1.9 9.22 2.78 18.7 12.24 21.6 21.56 1.92 6.23.97 11.98-2.76 16.62-4.68 5.82-11.3 7.87-18.65 5.78-9.96-2.84-19.02-12.88-20.2-22.38a70.49 70.49 0 0 1 .4-19.05c-6.55 1.14-12.93 4.03-19.08 8.65-22.8 17.13-36.67 54.12-36.44 78.56.37 38.35 21.34 86.7 60.7 104.9a1.97 1.97 0 0 1-.82 3.76zm-.3-196.35a67.24 67.24 0 0 0-.54 19.05c.98 7.94 8.93 16.67 17.36 19.07 4.05 1.15 9.86 1.31 14.5-4.46 2.92-3.62 3.61-8 2.06-12.98-2.5-8.06-11-16.56-18.95-18.95a40.7 40.7 0 0 0-14.43-1.73zm1410.32 185.41-.98-3.81c20.8-5.3 36.9-18.85 46.59-39.2 8.64-18.13 11.69-40.6 8.6-63.27-3.98-29.03-33.03-58.63-62.17-63.35l-2.04-.29c.38 7.13-.59 15.05-3.63 23.7-2.86 8.14-9.04 13.38-16.95 14.38-8.07 1.02-16.31-2.53-20.52-8.83-3.8-5.69-3.74-12.61.19-19.5 6.46-11.36 23.63-14.5 36.52-14.02a54.36 54.36 0 0 0-9.88-24.02c-13.77-19.17-40.07-31.81-65.33-31.47-26.32.36-54.73 12.36-82.2 23.96-47.77 20.18-97.17 41.04-142.24 6.38-12.08-9.3-20.6-26.06-22.22-43.75-1.48-16.13 2.7-30.56 11.74-40.62l2.93 2.63c-8.19 9.1-12.1 22.82-10.75 37.63 1.53 16.63 9.46 32.34 20.7 40.98 16.64 12.8 34.05 17.66 51.81 17.66 28.4 0 57.75-12.4 86.5-24.54 27.82-11.75 56.58-23.9 83.67-24.27h1.07c26.2 0 53.22 13.21 67.52 33.1a58.3 58.3 0 0 1 10.72 26.6c1.06.11 2.07.24 3.02.4 31.21 5.06 61.18 35.6 65.44 66.7 3.2 23.43.02 46.69-8.94 65.51-10.21 21.43-27.21 35.72-49.17 41.31zm-16.91-170.31c-11.77 0-25.55 3.25-30.58 12.1-4.03 7.07-2.41 12.25-.34 15.35 3.35 5.01 10.24 7.94 16.76 7.11 3.74-.47 10.51-2.63 13.72-11.77a57.06 57.06 0 0 0 3.37-22.72 62.8 62.8 0 0 0-2.93-.07z"/><circle fill="#FF8630" cx="777.92" cy="321.14" r="313.15"/><path fill="#FFF" d="m851.96 627.6 6.25-5.55a43.86 43.86 0 0 0 10.38-13.65l.85-1.74 1.76.82a72.93 72.93 0 0 0 16.17 5.35l6.73 1.39-6.44 2.4a314.29 314.29 0 0 1-27.63 8.8l-8.07 2.18zm19.3-15.77a47.61 47.61 0 0 1-5.26 7.82c4.78-1.4 9.53-2.93 14.21-4.55-3.05-.9-6.04-2-8.95-3.27z"/><path d="M1071.41 430.54a45.91 45.91 0 0 0-77.4 31.86c-7.61-5.6-17-8.91-27.18-8.91a45.84 45.84 0 0 0-36.47 18.03 75.15 75.15 0 0 0-103.38 69.64c0 .71.03 1.42.05 2.14a45.92 45.92 0 0 0-13.78 89 311.91 311.91 0 0 0 46.27-8.77 46.07 46.07 0 0 0 10.84-14.27 74.77 74.77 0 0 0 16.61 5.5 314.06 314.06 0 0 0 184.44-184.22z"/><path d="M569.23 342.53c.9.48 1.91.88 3.03 1.2s2.25.46 3.4.46c.98 0 1.9-.1 2.77-.29a6.6 6.6 0 0 0 2.27-.94 4.64 4.64 0 0 0 2.09-3.97c0-1.23-.41-2.23-1.24-3.01a12.26 12.26 0 0 0-3.07-2.06 56.88 56.88 0 0 0-4-1.76 23.56 23.56 0 0 1-3.99-2.02 11.17 11.17 0 0 1-3.07-2.85 7.05 7.05 0 0 1-1.24-4.28 7.2 7.2 0 0 1 2.83-5.83 9.89 9.89 0 0 1 3.26-1.6 15 15 0 0 1 4.24-.56c1.8 0 3.42.13 4.89.38 1.46.26 2.63.6 3.5 1.01l.09-.04v.09h.04l-.04.13v7.18h-3.32v-4.8a24.45 24.45 0 0 0-5.34-.63c-1 0-1.88.12-2.67.36-.8.24-1.47.56-2.02.96-.56.4-.98.88-1.28 1.42a3.85 3.85 0 0 0 .79 4.62c.82.78 1.84 1.48 3.07 2.09 1.22.61 2.56 1.22 4 1.82s2.76 1.29 3.99 2.08a11.7 11.7 0 0 1 3.07 2.85 6.73 6.73 0 0 1 1.23 4.13 8 8 0 0 1-2.85 6.42 9.53 9.53 0 0 1-3.36 1.8 15 15 0 0 1-4.51.62c-1.14 0-2.22-.09-3.23-.27a21.96 21.96 0 0 1-6.7-2.29l.05-.13v-7.27h3.32v4.98zm22.76-6.77c0-3.62.94-6.49 2.83-8.6 1.88-2.1 4.57-3.16 8.07-3.16 1.89 0 3.51.3 4.87.92a9.56 9.56 0 0 1 5.39 6.21c.43 1.44.65 2.98.65 4.63 0 1.8-.24 3.41-.72 4.86a9.3 9.3 0 0 1-5.54 6.06c-1.36.56-2.91.83-4.65.83-1.85 0-3.47-.3-4.84-.92a9.5 9.5 0 0 1-5.41-6.21 15.9 15.9 0 0 1-.65-4.62zm3.72 0c0 1.04.13 2.1.38 3.14a8.6 8.6 0 0 0 1.23 2.82c.57.84 1.3 1.52 2.22 2.02.9.51 2.02.77 3.33.77 2.39 0 4.18-.74 5.4-2.22 1.2-1.48 1.8-3.66 1.8-6.53 0-1.08-.12-2.14-.38-3.17a8.38 8.38 0 0 0-1.25-2.8 6.63 6.63 0 0 0-2.24-2.02 6.75 6.75 0 0 0-3.33-.77c-2.38 0-4.17.74-5.37 2.2-1.2 1.47-1.79 3.65-1.79 6.56zm23.61 11.22v-3.01h6.06v-16.43h-6.06v-3h8.4l.71 2.91h.22a16.17 16.17 0 0 1 3.42-2.38 9.56 9.56 0 0 1 4.48-.98c1.02 0 1.84.2 2.45.58.61.39 1.1.96 1.44 1.7.34.75.57 1.66.7 2.72.11 1.06.17 2.27.17 3.61l-3.14.05c0-1.9-.19-3.3-.56-4.19a2.04 2.04 0 0 0-2.04-1.33 7.4 7.4 0 0 0-2.52.4 8.46 8.46 0 0 0-3.36 2.15c-.4.39-.68.71-.86.98v13.2h8.62v3.01h-18.13zm26.93 0v-3.01h6.06v-16.43h-6.06v-3h8.39l.72 2.91h.22a16.17 16.17 0 0 1 3.41-2.38 9.56 9.56 0 0 1 4.5-.98c1 0 1.82.2 2.44.58.61.39 1.09.96 1.43 1.7.35.75.58 1.66.7 2.72.12 1.06.18 2.27.18 3.61l-3.14.05c0-1.9-.19-3.3-.56-4.19a2.04 2.04 0 0 0-2.05-1.33 7.4 7.4 0 0 0-2.5.4 8.54 8.54 0 0 0-3.38 2.15c-.38.39-.67.71-.85.98v13.2h8.62v3.01h-18.13zm37.92-3.46h1.7l5.57-18.98h3.63l-6.23 20.15a71.84 71.84 0 0 0-1.01 3.56c-.35 1.34-.83 2.58-1.46 3.75s-1.48 2.16-2.56 2.96a6.84 6.84 0 0 1-4.22 1.22c-.39 0-.8-.05-1.23-.14a10.95 10.95 0 0 1-2.45-.81 2.75 2.75 0 0 1-.8-.54l1.25-3.23a5.95 5.95 0 0 0 1.77.83c.38.1.74.2 1.1.27.36.08.66.12.9.12 2.24 0 3.77-1.9 4.58-5.7h-3l-9.43-22.44h4.04l7.85 18.98zm23.25.98c0-.89.29-1.61.87-2.17a3.16 3.16 0 0 1 2.27-.83c1.14 0 2.02.4 2.65 1.19.62.8.94 1.9.94 3.34a7.58 7.58 0 0 1-3.93 6.8c-.67.38-1.3.65-1.86.83l-1.12-1.75c1.07-.42 2-1.02 2.78-1.8a3.85 3.85 0 0 0 1.17-2.82c-.42.09-.75.13-1 .13-.86 0-1.54-.24-2.03-.74-.5-.49-.74-1.22-.74-2.17zm18.04-19.96h5.34v-4.45l3.54-.98v5.43h11.99v3h-11.99v10.6c0 2.18.53 3.8 1.6 4.84 1.05 1.05 2.56 1.57 4.53 1.57 1.34 0 2.51-.25 3.51-.76 1-.5 1.9-1.06 2.71-1.66l1.16 2.65a12.6 12.6 0 0 1-3.74 2.02c-1.46.5-2.94.76-4.47.76-1.2 0-2.33-.17-3.39-.52-1.06-.34-2-.87-2.8-1.59a7.62 7.62 0 0 1-1.93-2.76 10.2 10.2 0 0 1-.72-4.02v-11.13h-5.34v-3zm25.71-8.98h7v11.76h.23c.93-1.05 2-1.86 3.23-2.45a10.7 10.7 0 0 1 4.58-.87c1.43 0 2.68.15 3.75.45 1.06.3 1.93.82 2.6 1.57.67.75 1.17 1.77 1.5 3.07s.5 2.96.5 4.96v12.93H771v-12.26c0-1.28-.07-2.4-.22-3.36a5.84 5.84 0 0 0-.88-2.4c-.43-.65-1.02-1.13-1.76-1.46s-1.7-.5-2.86-.5c-.8 0-1.6.15-2.37.43a7.27 7.27 0 0 0-4.75 5.27v14.28h-3.45v-28.41h-3.55v-3.01zm31.46 31.42v-3.01h7.81v-16.43h-7.8v-3h11.35v19.43h7.63v3h-18.99zm6.56-28.82a3 3 0 0 1 .8-2.08 2.68 2.68 0 0 1 2.07-.88c.87 0 1.6.3 2.18.88.58.58.87 1.28.87 2.08 0 .78-.3 1.44-.88 1.98-.58.54-1.3.8-2.17.8a2.8 2.8 0 0 1-2.06-.8 2.7 2.7 0 0 1-.81-1.98zm35.27 22.76c0-.96-.37-1.7-1.12-2.23-.74-.52-1.67-.94-2.77-1.25s-2.3-.6-3.6-.88a21.4 21.4 0 0 1-3.6-1.07c-1.11-.45-2.03-1.06-2.78-1.82s-1.12-1.83-1.12-3.21c0-1.14.25-2.1.74-2.92a6.2 6.2 0 0 1 1.95-2c.81-.52 1.75-.9 2.83-1.16a14.6 14.6 0 0 1 3.37-.38 16.62 16.62 0 0 1 9.02 2.42l-1.43 2.83a37.6 37.6 0 0 0-3.2-1.55c-1.15-.5-2.6-.74-4.32-.74-.65 0-1.3.07-1.95.2s-1.22.34-1.74.6a3.5 3.5 0 0 0-1.25 1.06c-.32.44-.47.97-.47 1.6 0 .77.37 1.37 1.11 1.79.75.42 1.68.77 2.78 1.06 1.1.28 2.3.55 3.6.8 1.3.26 2.5.63 3.6 1.1a8.1 8.1 0 0 1 2.78 1.93c.74.81 1.12 1.9 1.12 3.28 0 2.06-.82 3.77-2.45 5.12-1.63 1.34-4.08 2.02-7.34 2.02a17.62 17.62 0 0 1-7.9-2 9.58 9.58 0 0 1-1.7-1.15l1.79-2.91c.36.35.83.72 1.43 1.1a13.3 13.3 0 0 0 6.76 2c.8 0 1.56-.07 2.26-.2a6.6 6.6 0 0 0 1.86-.64c.53-.28.96-.65 1.27-1.12.31-.46.47-1.03.47-1.68zm47.77 1.7h.5l7.02-18.08h3.9l-9.46 22.43h-3.9l-9.66-22.43h4.13l7.47 18.08zm18.11 4.36v-3.01h7.81v-16.43h-7.8v-3h11.35v19.43h7.63v3h-18.99zm6.56-28.82a3 3 0 0 1 .8-2.08 2.68 2.68 0 0 1 2.07-.88c.87 0 1.6.3 2.17.88.59.58.88 1.28.88 2.08 0 .78-.3 1.44-.88 1.98-.58.54-1.3.8-2.17.8a2.8 2.8 0 0 1-2.07-.8 2.7 2.7 0 0 1-.8-1.98zm31.28-2.6h7.31v23.74a45.24 45.24 0 0 0 .5 4.76h3v2.92h-6.01l-.45-3.46h-.18a7.93 7.93 0 0 1-2.93 2.85 8.7 8.7 0 0 1-4.5 1.14c-3.37 0-5.86-.94-7.45-2.85-1.6-1.9-2.4-4.85-2.4-8.86 0-1.88.27-3.55.8-5a9.59 9.59 0 0 1 5.92-5.86c1.4-.5 2.96-.76 4.7-.76a16.62 16.62 0 0 1 4.23.42l1.23.34v-6.37h-3.77v-3.01zm-2.67 28.95c1.81 0 3.25-.47 4.29-1.42s1.76-2.35 2.15-4.24v-10.41a6.92 6.92 0 0 0-2.22-.99c-.82-.2-1.9-.31-3.24-.31-2.39 0-4.27.7-5.64 2.09s-2.05 3.58-2.05 6.57c0 1.23.1 2.37.33 3.43.23 1.07.6 1.99 1.12 2.76s1.21 1.4 2.08 1.84a6.8 6.8 0 0 0 3.18.68zm37.72-.36c-.54.48-1.18.93-1.9 1.34-.74.42-1.54.78-2.41 1.08a17.5 17.5 0 0 1-5.57.94c-1.8 0-3.38-.27-4.75-.83-1.38-.55-2.53-1.34-3.46-2.37s-1.63-2.27-2.1-3.7a15.27 15.27 0 0 1-.73-4.85c0-1.89.26-3.57.79-5.03a9.7 9.7 0 0 1 2.27-3.68 9.88 9.88 0 0 1 3.59-2.27 14.33 14.33 0 0 1 8.44-.3c1.22.34 2.3.96 3.25 1.87a8.9 8.9 0 0 1 2.18 3.77c.5 1.6.68 3.68.53 6.22h-17.32c0 2.7.72 4.7 2.17 6.03 1.45 1.34 3.38 2 5.8 2 .8 0 1.6-.1 2.4-.29s1.54-.43 2.25-.7c.72-.26 1.35-.56 1.9-.9.56-.32.98-.62 1.28-.89l1.39 2.56zm-9.45-17.2a12 12 0 0 0-2.8.32c-.88.21-1.65.56-2.32 1.06a5.78 5.78 0 0 0-1.66 1.93c-.43.8-.7 1.77-.83 2.94h13.92c-.15-1.98-.79-3.51-1.9-4.6s-2.6-1.64-4.41-1.64zm15.19 8.81c0-3.62.94-6.49 2.83-8.6s4.58-3.16 8.08-3.16c1.88 0 3.5.3 4.87.92a9.57 9.57 0 0 1 5.38 6.21c.44 1.44.65 2.98.65 4.63 0 1.8-.24 3.41-.72 4.86a9.31 9.31 0 0 1-5.54 6.06c-1.36.56-2.9.83-4.64.83-1.86 0-3.47-.3-4.85-.92a9.49 9.49 0 0 1-5.4-6.21 15.86 15.86 0 0 1-.66-4.62zm3.73 0c0 1.04.12 2.1.38 3.14a8.62 8.62 0 0 0 1.23 2.82 6.4 6.4 0 0 0 2.21 2.02c.91.51 2.02.77 3.34.77 2.38 0 4.18-.74 5.39-2.22 1.2-1.48 1.8-3.66 1.8-6.53 0-1.08-.12-2.14-.37-3.17s-.67-1.96-1.25-2.8a6.63 6.63 0 0 0-2.24-2.02 6.74 6.74 0 0 0-3.34-.77c-2.38 0-4.17.74-5.36 2.2-1.2 1.47-1.8 3.65-1.8 6.56zm-327.67 47.57 4.5 12.47h.3l3.2-17.4h3.27l-4.4 22.43h-4l-4.3-12.39h-.14l-4.48 12.4h-4l-4.7-22.45h3.45l3.63 17.5h.27l4.36-12.56h3.04zm16.57-3.19a14.27 14.27 0 0 1 4.35-1.61c1.61-.33 3.2-.5 4.75-.5a8.5 8.5 0 0 1 3.75.72 6.09 6.09 0 0 1 3.41 4.47c.2.97.3 1.95.3 2.94 0 1.13-.03 2.35-.1 3.63-.06 1.29-.1 2.58-.13 3.86 0 1.5.1 2.92.27 4.27h3v2.91h-5.92l-.4-3.36h-.23a7.71 7.71 0 0 1-2.22 2.26 8.84 8.84 0 0 1-5.11 1.51c-2.22 0-3.98-.57-5.27-1.71a5.9 5.9 0 0 1-1.94-4.67c0-1.52.34-2.8 1.02-3.81a6.38 6.38 0 0 1 2.9-2.33 13.3 13.3 0 0 1 4.57-.95c1.79-.09 3.79.03 6.01.36a16 16 0 0 0 .07-3.43 4.72 4.72 0 0 0-.72-2.18c-.38-.54-.9-.92-1.58-1.14a8 8 0 0 0-2.5-.34c-1.35 0-2.64.19-3.87.56-1.23.38-2.33.76-3.29 1.15l-1.13-2.6zm6.64 18.09a6.6 6.6 0 0 0 2.33-.4 7.12 7.12 0 0 0 3.23-2.4c.36-.5.63-.97.8-1.42v-3.14c-1.55-.27-2.98-.4-4.3-.4-1.32 0-2.45.14-3.41.42s-1.7.73-2.24 1.33c-.54.6-.81 1.37-.81 2.33 0 .99.33 1.85 1 2.58.68.73 1.81 1.1 3.4 1.1zm35.05-3.46c0-.95-.37-1.7-1.12-2.22a9.2 9.2 0 0 0-2.77-1.26c-1.1-.31-2.3-.6-3.6-.87-1.3-.27-2.5-.63-3.6-1.08a8.07 8.07 0 0 1-2.78-1.82 4.4 4.4 0 0 1-1.12-3.2c0-1.14.25-2.11.74-2.92a6.2 6.2 0 0 1 1.95-2c.8-.52 1.75-.91 2.83-1.17 1.07-.25 2.2-.38 3.36-.38a16.62 16.62 0 0 1 9.03 2.43l-1.44 2.82a37.46 37.46 0 0 0-3.2-1.54c-1.14-.5-2.58-.75-4.31-.75-.66 0-1.3.07-1.95.2a7 7 0 0 0-1.74.61 3.5 3.5 0 0 0-1.26 1.06c-.3.43-.47.96-.47 1.59 0 .78.38 1.38 1.12 1.8.75.42 1.67.77 2.78 1.05 1.1.29 2.3.55 3.6.8 1.3.26 2.5.63 3.6 1.1a8.1 8.1 0 0 1 2.78 1.94c.74.8 1.11 1.9 1.11 3.27 0 2.07-.81 3.78-2.44 5.12-1.63 1.35-4.08 2.02-7.34 2.02a17.65 17.65 0 0 1-7.9-2 9.58 9.58 0 0 1-1.7-1.14l1.79-2.92c.35.36.83.73 1.43 1.1a13.3 13.3 0 0 0 6.76 2c.8 0 1.55-.07 2.26-.2.7-.14 1.32-.35 1.85-.63a3 3 0 0 0 1.75-2.81zm49.86-25.35h7.31v23.74a45.38 45.38 0 0 0 .5 4.76h3v2.91h-6l-.46-3.46h-.18a7.92 7.92 0 0 1-2.93 2.86 8.71 8.71 0 0 1-4.5 1.14c-3.37 0-5.86-.95-7.45-2.85-1.6-1.9-2.4-4.85-2.4-8.86 0-1.89.27-3.56.8-5s1.31-2.67 2.31-3.64a10 10 0 0 1 3.6-2.23 14 14 0 0 1 4.7-.76 27.82 27.82 0 0 1 3.05.18c.42.06.81.14 1.19.25l1.23.33v-6.37h-3.77v-3zm-2.67 28.94c1.82 0 3.25-.47 4.3-1.41s1.75-2.36 2.14-4.24V382.3a6.93 6.93 0 0 0-2.22-1c-.82-.2-1.9-.3-3.24-.3-2.39 0-4.26.69-5.64 2.08s-2.05 3.59-2.05 6.58c0 1.22.1 2.37.33 3.43a7.8 7.8 0 0 0 1.12 2.76c.52.78 1.22 1.4 2.08 1.84.87.45 1.93.67 3.18.67zm37.72-.36c-.54.48-1.18.93-1.9 1.35-.74.42-1.54.78-2.4 1.08a17.61 17.61 0 0 1-5.57.94c-1.8 0-3.39-.28-4.76-.83a9.16 9.16 0 0 1-3.46-2.38 10.33 10.33 0 0 1-2.1-3.7 15.27 15.27 0 0 1-.73-4.85c0-1.88.27-3.56.79-5.02.52-1.47 1.28-2.7 2.27-3.69s2.18-1.74 3.59-2.26a14.34 14.34 0 0 1 8.44-.3c1.22.34 2.3.96 3.25 1.87a8.91 8.91 0 0 1 2.17 3.77c.51 1.6.7 3.67.54 6.21h-17.32c0 2.7.72 4.71 2.17 6.04s3.38 2 5.8 2c.8 0 1.6-.1 2.4-.3s1.53-.42 2.25-.69a11.6 11.6 0 0 0 3.18-1.8l1.39 2.56zm-9.45-17.19c-.98 0-1.92.1-2.8.32a5.79 5.79 0 0 0-3.98 2.99c-.43.79-.7 1.77-.83 2.93h13.92a6.97 6.97 0 0 0-1.9-4.6 6.05 6.05 0 0 0-4.41-1.64zm17.98-11.39h7.5v23.87c0 1.83.3 3.11.91 3.86s1.52 1.12 2.72 1.12a6.5 6.5 0 0 0 2.4-.45c.76-.3 1.6-.8 2.53-1.52l1.62 2.47c-.48.42-1 .79-1.58 1.12s-1.15.6-1.75.83a11.19 11.19 0 0 1-3.47.7c-1.11 0-2.1-.15-2.97-.43s-1.6-.74-2.19-1.37a6.07 6.07 0 0 1-1.33-2.49 14 14 0 0 1-.44-3.84v-20.87h-3.95v-3zM842.05 398a11 11 0 0 1-1.9 1.35c-.74.42-1.54.78-2.4 1.08a17.5 17.5 0 0 1-5.57.94c-1.8 0-3.38-.28-4.76-.83-1.37-.55-2.53-1.35-3.45-2.38s-1.63-2.27-2.11-3.7a15.27 15.27 0 0 1-.72-4.85c0-1.88.26-3.56.79-5.02a9.7 9.7 0 0 1 2.26-3.69 9.88 9.88 0 0 1 3.6-2.26 14.33 14.33 0 0 1 8.44-.3c1.22.34 2.3.96 3.24 1.87a8.9 8.9 0 0 1 2.18 3.77c.51 1.6.69 3.67.54 6.21h-17.32c0 2.7.72 4.71 2.17 6.04 1.44 1.33 3.38 2 5.8 2 .8 0 1.6-.1 2.39-.3s1.54-.42 2.26-.69a11.6 11.6 0 0 0 3.18-1.8l1.38 2.56zm-9.45-17.19c-.98 0-1.91.1-2.8.32a5.78 5.78 0 0 0-3.98 2.99c-.42.79-.7 1.77-.82 2.93h13.91c-.15-1.97-.78-3.5-1.9-4.6a6 6 0 0 0-4.4-1.64zm14.03-2.41h5.34v-4.45l3.55-.99v5.43h11.98v3.01h-11.98V392c0 2.18.53 3.8 1.59 4.84 1.05 1.05 2.57 1.57 4.53 1.57 1.35 0 2.52-.26 3.52-.76s1.9-1.07 2.7-1.66l1.17 2.64c-1.05.84-2.3 1.51-3.75 2.02-1.45.51-2.94.77-4.47.77-1.2 0-2.32-.18-3.39-.52a7.56 7.56 0 0 1-4.73-4.35 10.2 10.2 0 0 1-.72-4.02V381.4h-5.34v-3zM895.9 398a11 11 0 0 1-1.9 1.35c-.73.42-1.53.78-2.4 1.08a17.5 17.5 0 0 1-5.57.94 12.7 12.7 0 0 1-4.75-.83c-1.38-.55-2.53-1.35-3.46-2.38s-1.63-2.27-2.1-3.7a15.27 15.27 0 0 1-.73-4.85c0-1.88.27-3.56.8-5.02a9.7 9.7 0 0 1 2.26-3.69 9.88 9.88 0 0 1 3.59-2.26 14.33 14.33 0 0 1 8.44-.3c1.22.34 2.3.96 3.25 1.87a8.9 8.9 0 0 1 2.18 3.77c.5 1.6.68 3.67.53 6.21h-17.32c0 2.7.72 4.71 2.17 6.04s3.38 2 5.8 2c.8 0 1.6-.1 2.4-.3s1.54-.42 2.26-.69a12 12 0 0 0 1.9-.9c.55-.32.97-.62 1.27-.9l1.39 2.56zm-9.44-17.19c-.99 0-1.92.1-2.8.32a5.78 5.78 0 0 0-3.98 2.99c-.43.79-.7 1.77-.82 2.93h13.9c-.14-1.97-.77-3.5-1.9-4.6a6 6 0 0 0-4.4-1.64zm28.25-11.39h7.32v23.74a45.52 45.52 0 0 0 .5 4.76h3v2.91h-6.01l-.45-3.46h-.18a7.92 7.92 0 0 1-2.94 2.86 8.72 8.72 0 0 1-4.5 1.14c-3.37 0-5.85-.95-7.45-2.85-1.6-1.9-2.4-4.85-2.4-8.86 0-1.89.28-3.56.81-5s1.3-2.67 2.3-3.64a10 10 0 0 1 3.61-2.23c1.4-.5 2.97-.76 4.7-.76a27.47 27.47 0 0 1 3.04.18c.42.06.82.14 1.2.25l1.22.33v-6.37h-3.77v-3zm-2.67 28.94c1.82 0 3.25-.47 4.3-1.41 1.04-.94 1.75-2.36 2.14-4.24V382.3a6.93 6.93 0 0 0-2.21-1c-.82-.2-1.9-.3-3.25-.3-2.38 0-4.26.69-5.63 2.08-1.37 1.4-2.06 3.59-2.06 6.58 0 1.22.11 2.37.34 3.43.22 1.06.6 1.98 1.12 2.76.52.78 1.2 1.4 2.07 1.84s1.93.67 3.18.67zM611.66 586.53h-2.28c-4.95 0-9.9 3.95-11 8.79l-32.06 141.9c-1.1 4.83 2.07 8.79 7.03 8.79H982.5c4.96 0 8.12-3.96 7.03-8.8l-32.07-141.9c-1.1-4.83-6.04-8.78-11-8.78h-2.27a311.66 311.66 0 0 1-166.27 47.76 311.64 311.64 0 0 1-166.26-47.76z" fill="#FFF"/><path d="M661.29 86.67a52.23 52.23 0 0 0-23.14-43.41 290.6 290.6 0 0 0-51.4 32.54c-9.88 7.81-21.5 18-30.27 27-24.12 24.76-43.49 50.62-57.58 81.4 13.14 15.07 34.33 27.36 55.89 27.36A71.64 71.64 0 0 0 626.32 136a52.3 52.3 0 0 0 34.97-49.33z"/><path fill="#FFF" d="M777.92 634.29a311.66 311.66 0 0 0 166.27-47.76H611.66a311.64 311.64 0 0 0 166.26 47.76zm4.66-375.98a59.12 59.12 0 0 1-59.06-59.05 59.12 59.12 0 0 1 59.06-59.05 59.12 59.12 0 0 1 59.05 59.05 59.12 59.12 0 0 1-59.05 59.05zm0-114.16a55.17 55.17 0 0 0-55.12 55.1 55.18 55.18 0 0 0 55.12 55.12 55.18 55.18 0 0 0 55.1-55.11 55.17 55.17 0 0 0-55.1-55.11z"/><path fill="#231F20" d="M782.57 176.36a53.17 53.17 0 0 0-44.14 23.48 53.17 53.17 0 0 0 44.14 23.48 53.17 53.17 0 0 0 44.15-23.48 53.17 53.17 0 0 0-44.15-23.48zm0 39.68a17.22 17.22 0 1 1 0-34.44 17.22 17.22 0 0 1 0 34.44z"/><path fill="#FFF" d="M715.26 264.46a1.97 1.97 0 0 1-1.39-3.37l128.42-127.34a1.97 1.97 0 1 1 2.77 2.8L716.64 263.88c-.38.39-.88.58-1.38.58zm212.56-126.45a18 18 0 0 1-18-18 18 18 0 0 1-18 18 18 18 0 0 1 18 18 18 18 0 0 1 18-18zM753.01 488.69a29.48 29.48 0 0 1-29.48-29.49 29.49 29.49 0 0 1-29.5 29.49 29.49 29.49 0 0 1 29.5 29.48A29.49 29.49 0 0 1 753 488.7zm234.22-268.21a1.97 1.97 0 0 1-1.97-1.97v-25.39a1.97 1.97 0 0 1 3.94 0v25.39c0 1.09-.88 1.97-1.97 1.97zm0 40.43a1.97 1.97 0 0 1-1.97-1.97v-25.39a1.97 1.97 0 0 1 3.94 0v25.4c0 1.08-.88 1.96-1.97 1.96zm32.44-33.38h-25.39a1.97 1.97 0 1 1 0-3.94h25.39a1.97 1.97 0 0 1 0 3.94zm-39.84 0h-25.4a1.97 1.97 0 1 1 0-3.94h25.4a1.97 1.97 0 1 1 0 3.94zM549.46 401.2a1.97 1.97 0 0 1-1.97-1.97V381.7a1.97 1.97 0 0 1 3.94 0v17.54c0 1.09-.89 1.97-1.97 1.97zm0 27.93a1.97 1.97 0 0 1-1.97-1.97v-17.54a1.97 1.97 0 0 1 3.94 0v17.54c0 1.09-.89 1.97-1.97 1.97zm22.4-23.06h-17.53a1.97 1.97 0 0 1 0-3.94h17.53a1.97 1.97 0 0 1 0 3.94zm-27.52 0H526.8a1.97 1.97 0 0 1 0-3.94h17.54a1.97 1.97 0 0 1 0 3.94z"/><circle fill="#FFF" cx="632.85" cy="507.76" r="6"/><circle fill="#FFF" cx="656.85" cy="524.46" r="6"/><circle fill="#FFF" cx="729.49" cy="87.96" r="6"/><circle fill="#FFF" cx="702.87" cy="117.44" r="6"/><circle fill="#FFF" cx="544.5" cy="263.04" r="6"/><circle fill="#FFF" cx="992.23" cy="391.4" r="6"/><path fill="#FFF" d="M777.92 636.26c-84.17 0-163.3-32.78-222.82-92.3-59.52-59.51-92.3-138.65-92.3-222.82 0-84.17 32.78-163.3 92.3-222.81 59.52-59.52 138.65-92.3 222.82-92.3 84.17 0 163.3 32.78 222.82 92.3 59.52 59.51 92.3 138.64 92.3 222.81 0 84.17-32.78 163.3-92.3 222.82-59.51 59.52-138.65 92.3-222.82 92.3zm0-626.29c-83.12 0-161.26 32.37-220.03 91.14-58.78 58.77-91.14 136.92-91.14 220.03 0 83.12 32.36 161.27 91.14 220.04 58.77 58.77 136.91 91.14 220.03 91.14s161.26-32.37 220.04-91.14c58.77-58.77 91.14-136.92 91.14-220.04 0-83.11-32.37-161.26-91.14-220.03S861.04 9.97 777.92 9.97zm190.62 634.4H587.3l-10.9 48.24h403.05z"/><path fill="#FFF" d="M957.46 595.32c-1.1-4.84-6.04-8.8-11-8.8H609.38c-4.95 0-9.9 3.96-11 8.8l-10.19 45.1h379.46l-10.2-45.1zm-391.14 141.9c-1.1 4.83 2.07 8.79 7.02 8.79H982.5c4.96 0 8.12-3.96 7.03-8.8l-9.2-40.66H575.52l-9.2 40.67z"/><path fill="#FF8630" d="M967.65 640.43H588.19l-.89 3.94h381.24zM576.4 692.61l-.89 3.94h404.83l-.89-3.94z"/></svg>
