<svg xmlns="http://www.w3.org/2000/svg" width="850" height="850" xml:space="preserve"><path d="M204.46 506.47a2 2 0 0 1-2-1.88l-.15-2.65c-2.22-36.16-5.25-85.67-33.03-111.6-15.46-14.43-32.5-21.78-48.96-28.88-28.06-12.11-54.56-23.55-65.73-68.14-7.27-29.03 8.4-66.7 34.21-82.27.77-.46 1.59-.92 2.45-1.38a55.5 55.5 0 0 1 .06-27.26c5.66-22.99 25.32-44.55 48.93-53.66 24.09-9.29 53.82-8.76 82.57-8.24 48.26.86 98.15 1.75 124.52-42.91 6.85-11.6 8.28-28.25 3.74-43.45-4.04-13.53-12.34-24.23-22.78-29.36a2 2 0 0 1 1.77-3.59c11.6 5.7 20.42 17 24.84 31.8 4.86 16.24 3.27 34.1-4.12 46.63-27.56 46.67-78.64 45.75-128.04 44.88-28.36-.5-57.7-1.03-81.06 7.98-22.44 8.65-41.12 29.1-46.48 50.88a51.66 51.66 0 0 0-.25 24.52c11.26-4.97 27.49-8.23 37.24-.49 5.94 4.72 8.47 10.86 7.12 17.29-1.5 7.1-7.56 13.2-15.09 15.17-7.39 1.93-14.75-.52-20.2-6.73a58.48 58.48 0 0 1-11.59-19.55l-1.56.9c-24.03 14.48-39.16 50.86-32.4 77.87 10.7 42.67 35.13 53.22 63.43 65.43 16.78 7.25 34.14 14.73 50.11 29.64 28.94 27 32.03 77.45 34.29 114.28l.16 2.65a2 2 0 0 1-2 2.12zm-108.4-294.7a54.22 54.22 0 0 0 10.98 18.72c6.03 6.89 12.72 6.4 16.17 5.5 6-1.57 11.02-6.56 12.19-12.13.72-3.44.32-8.54-5.7-13.33-8.16-6.48-23.01-3.6-33.64 1.23z"/><circle fill="#FF8630" cx="544.95" cy="441.3" r="300.03"/><path fill="#FFF" d="M623.13 733.02a2 2 0 0 1-1.33-3.5 41.95 41.95 0 0 0 9.92-13.04 2 2 0 0 1 2.65-.94 69.8 69.8 0 0 0 15.46 5.12 2 2 0 0 1 .3 3.84c-8.6 3.19-17.5 6.03-26.48 8.45-.17.04-.35.07-.52.07zm11.3-13.06a45.84 45.84 0 0 1-4.77 7.14 297.4 297.4 0 0 0 12.93-4.15 73.6 73.6 0 0 1-8.16-3z"/><path d="M826.15 546.11a44 44 0 0 0-74.16 30.52 43.8 43.8 0 0 0-26.04-8.53A43.92 43.92 0 0 0 691 585.37a72 72 0 0 0-99.05 66.73c0 .68.03 1.36.05 2.05a44 44 0 0 0-13.2 85.27 298.77 298.77 0 0 0 44.33-8.4 44.16 44.16 0 0 0 10.39-13.67 71.68 71.68 0 0 0 15.91 5.27 300.9 300.9 0 0 0 176.72-176.5z"/><path d="M345 461.8c.86.45 1.83.83 2.9 1.13a12 12 0 0 0 5.92.18 6.32 6.32 0 0 0 2.17-.9 4.46 4.46 0 0 0 2-3.8 3.8 3.8 0 0 0-1.19-2.9 11.7 11.7 0 0 0-2.94-1.97 54.9 54.9 0 0 0-3.83-1.68 22.6 22.6 0 0 1-3.82-1.94c-1.18-.74-2.16-1.65-2.95-2.73s-1.18-2.44-1.18-4.1c0-1.18.23-2.24.7-3.18a6.9 6.9 0 0 1 2-2.41c.87-.66 1.9-1.17 3.12-1.53s2.58-.54 4.07-.54c1.72 0 3.28.13 4.69.37a13 13 0 0 1 3.35.97l.09-.05v.1h.04l-.04.12v6.88h-3.19v-4.6a23.6 23.6 0 0 0-5.11-.6c-.95 0-1.8.11-2.56.34-.76.23-1.4.54-1.94.93a4.2 4.2 0 0 0-1.22 1.35 3.68 3.68 0 0 0 .75 4.43c.79.74 1.77 1.41 2.94 2a58.4 58.4 0 0 0 3.83 1.74c1.38.57 2.65 1.24 3.83 2a11.3 11.3 0 0 1 2.94 2.73 6.45 6.45 0 0 1 1.18 3.96 7.66 7.66 0 0 1-2.73 6.15c-.87.74-1.94 1.31-3.22 1.71s-2.72.6-4.32.6c-1.1 0-2.12-.08-3.1-.25a20.68 20.68 0 0 1-6.4-2.2l.04-.12v-6.97H345v4.77zm21.8-6.5c0-3.47.9-6.21 2.71-8.23 1.8-2.02 4.39-3.03 7.74-3.03 1.8 0 3.36.29 4.67.88a9.16 9.16 0 0 1 5.16 5.95c.41 1.38.62 2.86.62 4.43 0 1.72-.23 3.28-.69 4.67a8.93 8.93 0 0 1-5.31 5.8c-1.3.53-2.79.8-4.45.8-1.78 0-3.32-.3-4.64-.88a9.13 9.13 0 0 1-5.18-5.96 15.28 15.28 0 0 1-.63-4.43zm3.57 0c0 1 .12 2 .37 3.01.24 1 .63 1.9 1.18 2.7a6.03 6.03 0 0 0 2.12 1.95c.87.48 1.93.73 3.19.73 2.28 0 4-.71 5.17-2.13 1.15-1.42 1.73-3.5 1.73-6.26 0-1.03-.12-2.04-.36-3.03a8.07 8.07 0 0 0-1.2-2.69 6.36 6.36 0 0 0-2.15-1.93 6.47 6.47 0 0 0-3.19-.73c-2.29 0-4 .7-5.14 2.1-1.15 1.4-1.72 3.5-1.72 6.28zm22.62 10.75v-2.88h5.8v-15.74H393v-2.88h8.04l.69 2.8h.21c.98-.9 2.07-1.65 3.27-2.28a9.16 9.16 0 0 1 4.3-.95c.98 0 1.76.19 2.34.56.6.37 1.05.92 1.38 1.63.33.72.55 1.59.67 2.6.11 1.03.17 2.18.17 3.47l-3.01.04c0-1.82-.18-3.15-.54-4a1.95 1.95 0 0 0-1.96-1.29c-.88 0-1.69.13-2.4.39-.72.26-1.34.57-1.87.94s-.98.74-1.36 1.12-.64.68-.81.94v12.65h8.25v2.88H393zm25.8 0v-2.88h5.8v-15.74h-5.8v-2.88h8.04l.69 2.8h.21a15.5 15.5 0 0 1 3.27-2.28 9.16 9.16 0 0 1 4.3-.95c.98 0 1.76.19 2.35.56a3.7 3.7 0 0 1 1.37 1.63c.33.72.55 1.59.67 2.6.11 1.03.17 2.18.17 3.47l-3 .04c0-1.82-.19-3.15-.55-4a1.95 1.95 0 0 0-1.95-1.29c-.9 0-1.7.13-2.41.39a7.9 7.9 0 0 0-1.87.94c-.53.37-.98.74-1.36 1.12-.37.37-.64.68-.81.94v12.65h8.25v2.88H418.8zm36.33-3.31h1.64l5.33-18.19h3.48l-5.97 19.3c-.32 1.01-.64 2.15-.97 3.43s-.8 2.47-1.4 3.59a8.64 8.64 0 0 1-2.45 2.83 6.57 6.57 0 0 1-4.04 1.17c-.37 0-.77-.05-1.19-.13-.41-.09-.82-.2-1.22-.33s-.77-.28-1.12-.45a3 3 0 0 1-.77-.51l1.2-3.1c.17.14.4.29.71.43.3.14.63.27.99.37.36.1.7.18 1.05.25.35.07.63.11.86.11 2.15 0 3.61-1.82 4.39-5.46h-2.88l-9.03-21.5h3.87l7.52 18.19zm22.28.95c0-.86.28-1.56.84-2.09.55-.53 1.28-.8 2.17-.8 1.09 0 1.93.39 2.53 1.14.6.76.9 1.83.9 3.2a7.26 7.26 0 0 1-3.76 6.52 9.9 9.9 0 0 1-1.78.8l-1.08-1.68a7.64 7.64 0 0 0 2.67-1.72 3.69 3.69 0 0 0 1.12-2.71c-.4.09-.72.13-.95.13-.83 0-1.48-.24-1.95-.71-.48-.47-.71-1.17-.71-2.08zm17.28-19.14h5.12v-4.26l3.4-.94v5.2h11.48v2.88H503.2v10.15c0 2.1.5 3.64 1.52 4.64 1.01 1 2.46 1.5 4.35 1.5 1.28 0 2.4-.24 3.36-.72.96-.49 1.82-1.02 2.6-1.6l1.11 2.54a12.86 12.86 0 0 1-7.87 2.67c-1.15 0-2.23-.17-3.25-.5s-1.9-.83-2.68-1.52a7.3 7.3 0 0 1-1.85-2.65 9.76 9.76 0 0 1-.7-3.85v-10.66h-5.1v-2.88zm24.64-8.6h6.7v11.27h.22a9.8 9.8 0 0 1 3.1-2.35 10.2 10.2 0 0 1 4.39-.84c1.37 0 2.57.15 3.59.43 1.01.3 1.85.8 2.5 1.5.64.73 1.12 1.7 1.43 2.95s.48 2.83.48 4.76v12.38h-3.4v-11.74c0-1.23-.07-2.3-.22-3.22a5.66 5.66 0 0 0-.83-2.3c-.42-.62-.98-1.09-1.7-1.4s-1.62-.47-2.74-.47c-.77 0-1.52.13-2.27.4a7.45 7.45 0 0 0-3.62 2.84 6.46 6.46 0 0 0-.92 2.22v13.67h-3.31v-27.22h-3.4v-2.88zm30.14 30.1v-2.88h7.49v-15.74h-7.49v-2.88h10.88v18.62h7.31v2.88h-18.19zm6.28-27.6c0-.78.26-1.45.78-2a2.57 2.57 0 0 1 1.97-.85c.83 0 1.53.28 2.09.84.56.56.84 1.23.84 2 0 .75-.28 1.38-.84 1.9a3 3 0 0 1-2.09.77c-.8 0-1.46-.26-1.97-.77a2.58 2.58 0 0 1-.78-1.9zm33.8 21.8c0-.92-.36-1.63-1.07-2.13-.72-.5-1.6-.9-2.66-1.2s-2.2-.59-3.45-.85c-1.24-.26-2.4-.6-3.45-1.03a7.74 7.74 0 0 1-2.66-1.74 4.21 4.21 0 0 1-1.07-3.07c0-1.1.23-2.03.7-2.8a5.98 5.98 0 0 1 1.88-1.91c.77-.5 1.68-.88 2.7-1.12 1.04-.24 2.11-.36 3.23-.36a15.9 15.9 0 0 1 8.65 2.32l-1.38 2.7a36.2 36.2 0 0 0-3.06-1.48c-1.1-.47-2.48-.7-4.14-.7-.62 0-1.25.06-1.86.19s-1.17.32-1.67.58c-.5.25-.9.6-1.2 1-.3.42-.45.93-.45 1.53 0 .75.35 1.32 1.07 1.72.71.4 1.6.74 2.66 1.01 1.05.28 2.2.54 3.45.78 1.24.24 2.4.6 3.45 1.05a7.74 7.74 0 0 1 2.66 1.85 4.45 4.45 0 0 1 1.07 3.14c0 1.98-.78 3.61-2.35 4.9-1.56 1.3-3.9 1.94-7.03 1.94a16.89 16.89 0 0 1-7.57-1.91 9.16 9.16 0 0 1-1.63-1.1l1.72-2.8c.34.35.8.7 1.37 1.06a12.68 12.68 0 0 0 6.47 1.9c.78 0 1.5-.06 2.17-.18s1.27-.33 1.78-.6.92-.64 1.22-1.08c.3-.45.45-.98.45-1.62zm45.77 1.63h.47l6.73-17.33h3.75l-9.08 21.5h-3.74l-9.24-21.5h3.95l7.16 17.33zm17.35 4.17v-2.88h7.48v-15.74h-7.48v-2.88h10.88v18.62h7.31v2.88h-18.19zm6.28-27.6c0-.78.26-1.45.77-2a2.57 2.57 0 0 1 1.98-.85c.83 0 1.53.28 2.09.84.56.56.84 1.23.84 2 0 .75-.28 1.38-.84 1.9a3 3 0 0 1-2.09.77c-.8 0-1.46-.26-1.98-.77a2.58 2.58 0 0 1-.77-1.9zm29.97-2.5h7.01v22.75a44.68 44.68 0 0 0 .47 4.56h2.88v2.8h-5.76l-.43-3.32h-.17a7.6 7.6 0 0 1-2.81 2.73 8.36 8.36 0 0 1-4.31 1.1c-3.23 0-5.61-.91-7.14-2.73-1.53-1.82-2.3-4.65-2.3-8.5 0-1.8.26-3.4.77-4.8.52-1.38 1.25-2.54 2.21-3.47s2.11-1.64 3.45-2.13c1.35-.49 2.85-.73 4.5-.73a27.32 27.32 0 0 1 2.92.17c.4.06.78.14 1.14.24l1.18.32v-6.1h-3.61v-2.89zm-2.56 27.74c1.74 0 3.12-.46 4.12-1.36 1-.9 1.68-2.26 2.05-4.06v-9.98a6.62 6.62 0 0 0-2.12-.94 13 13 0 0 0-3.1-.3c-2.29 0-4.09.66-5.4 2s-1.97 3.43-1.97 6.3c0 1.17.1 2.27.32 3.28.21 1.02.57 1.9 1.07 2.65a5.3 5.3 0 0 0 1.99 1.76c.83.43 1.84.64 3.04.64zm36.15-.35a11.6 11.6 0 0 1-4.13 2.32 16.86 16.86 0 0 1-5.34.9c-1.72 0-3.24-.26-4.55-.79s-2.43-1.29-3.32-2.28-1.56-2.17-2.02-3.55a14.63 14.63 0 0 1-.68-4.64c0-1.8.25-3.41.75-4.82a9.33 9.33 0 0 1 2.17-3.52 9.47 9.47 0 0 1 3.44-2.17 13.69 13.69 0 0 1 8.08-.28 6.9 6.9 0 0 1 3.12 1.78c.9.88 1.6 2.08 2.09 3.61.48 1.54.66 3.52.51 5.96h-16.6c0 2.58.7 4.5 2.08 5.78s3.24 1.92 5.56 1.92c.77 0 1.53-.1 2.3-.28s1.47-.41 2.16-.67a10.65 10.65 0 0 0 3.04-1.72l1.33 2.45zm-9.06-16.47c-.94 0-1.84.1-2.68.3a5.55 5.55 0 0 0-3.81 2.86c-.42.76-.68 1.7-.8 2.82h13.33a6.62 6.62 0 0 0-1.82-4.4 5.79 5.79 0 0 0-4.22-1.58zM728 455.3c0-3.47.9-6.21 2.7-8.23 1.81-2.02 4.4-3.03 7.75-3.03 1.8 0 3.36.29 4.66.88a9.16 9.16 0 0 1 5.16 5.95c.42 1.38.62 2.86.62 4.43 0 1.72-.22 3.28-.68 4.67a8.93 8.93 0 0 1-5.31 5.8c-1.3.53-2.8.8-4.45.8-1.78 0-3.33-.3-4.65-.88a9.12 9.12 0 0 1-5.18-5.96 15.28 15.28 0 0 1-.62-4.43zm3.57 0c0 1 .12 2 .36 3.01.24 1 .64 1.9 1.18 2.7a6.11 6.11 0 0 0 2.12 1.95c.87.48 1.94.73 3.2.73 2.28 0 4-.71 5.16-2.13s1.74-3.5 1.74-6.26c0-1.03-.13-2.04-.37-3.03-.24-.99-.64-1.89-1.2-2.69s-1.27-1.45-2.14-1.93a6.48 6.48 0 0 0-3.2-.73c-2.28 0-4 .7-5.14 2.1-1.14 1.4-1.71 3.5-1.71 6.28zm-313.94 45.58 4.3 11.95h.3l3.05-16.68h3.14l-4.21 21.5h-3.83l-4.13-11.87h-.13l-4.3 11.87H408l-4.52-21.5h3.31l3.49 16.77h.25l4.18-12.04h2.92zm15.87-3.05c1.23-.72 2.62-1.24 4.17-1.55s3.06-.47 4.55-.47c1.47 0 2.66.22 3.6.68a5.82 5.82 0 0 1 3.26 4.28c.19.93.28 1.87.28 2.82 0 1.09-.03 2.25-.09 3.48-.05 1.23-.1 2.47-.12 3.7 0 1.43.08 2.8.25 4.08h2.89v2.8h-5.68l-.39-3.23h-.21a7.06 7.06 0 0 1-2.14 2.17 8.52 8.52 0 0 1-4.9 1.44c-2.12 0-3.8-.54-5.04-1.63a5.65 5.65 0 0 1-1.85-4.47c0-1.46.32-2.68.97-3.66a6.11 6.11 0 0 1 2.78-2.23 12.8 12.8 0 0 1 4.38-.9c1.7-.09 3.63.02 5.76.34.14-1.32.16-2.42.06-3.29a4.53 4.53 0 0 0-.69-2.08c-.36-.52-.86-.89-1.51-1.1s-1.45-.32-2.4-.32c-1.29 0-2.53.18-3.7.53a37.8 37.8 0 0 0-3.16 1.1l-1.07-2.5zm6.36 17.32c.8 0 1.55-.12 2.23-.38a6.8 6.8 0 0 0 3.1-2.3c.34-.48.6-.93.77-1.36v-3a24.33 24.33 0 0 0-4.12-.4c-1.27 0-2.35.14-3.27.41-.92.28-1.64.7-2.15 1.27s-.78 1.32-.78 2.24c0 .94.33 1.77.97 2.47.65.7 1.73 1.05 3.25 1.05zm33.58-3.3c0-.92-.36-1.63-1.07-2.13-.72-.5-1.6-.9-2.66-1.2s-2.2-.59-3.45-.85c-1.24-.26-2.4-.6-3.45-1.03a7.77 7.77 0 0 1-2.66-1.74 4.21 4.21 0 0 1-1.07-3.07 5.26 5.26 0 0 1 2.58-4.71c.77-.5 1.68-.88 2.7-1.12 1.04-.24 2.12-.36 3.23-.36a15.9 15.9 0 0 1 8.65 2.32l-1.37 2.7a35.93 35.93 0 0 0-3.07-1.48 10.5 10.5 0 0 0-4.14-.7c-.62 0-1.25.06-1.86.19-.61.12-1.17.32-1.67.58s-.9.6-1.2 1c-.3.42-.45.93-.45 1.53 0 .75.35 1.32 1.07 1.72.71.4 1.6.74 2.66 1.01 1.06.28 2.2.54 3.45.78 1.24.24 2.4.6 3.45 1.05a7.75 7.75 0 0 1 2.66 1.85 4.45 4.45 0 0 1 1.07 3.14c0 1.98-.78 3.61-2.34 4.9-1.57 1.3-3.91 1.94-7.03 1.94a16.87 16.87 0 0 1-7.57-1.91 9.2 9.2 0 0 1-1.64-1.1l1.72-2.8c.34.35.8.7 1.37 1.06a12.93 12.93 0 0 0 4.1 1.65 11.08 11.08 0 0 0 4.54.07 6.33 6.33 0 0 0 1.78-.6c.52-.28.92-.64 1.22-1.08s.45-.98.45-1.62zm47.77-24.3h7.01v22.75a44.68 44.68 0 0 0 .47 4.56h2.89v2.8h-5.76l-.44-3.32h-.17a7.58 7.58 0 0 1-2.8 2.73 8.36 8.36 0 0 1-4.32 1.1c-3.23 0-5.61-.91-7.14-2.73-1.53-1.82-2.3-4.65-2.3-8.5 0-1.8.26-3.4.78-4.8a9.24 9.24 0 0 1 2.2-3.47 9.54 9.54 0 0 1 3.46-2.13c1.34-.49 2.84-.73 4.5-.73a27.28 27.28 0 0 1 2.92.17c.4.06.78.14 1.13.24l1.18.32v-6.1h-3.6v-2.89zm-2.56 27.73a5.9 5.9 0 0 0 4.12-1.35c1-.9 1.68-2.26 2.06-4.06v-9.98a6.62 6.62 0 0 0-2.13-.95c-.78-.2-1.82-.3-3.1-.3-2.29 0-4.09.67-5.4 2-1.31 1.34-1.97 3.44-1.97 6.3 0 1.18.1 2.27.32 3.3.21 1.01.57 1.9 1.07 2.64a5.3 5.3 0 0 0 2 1.76 6.5 6.5 0 0 0 3.03.64zm36.15-.34a13.04 13.04 0 0 1-4.13 2.32 17.48 17.48 0 0 1-5.33.9c-1.72 0-3.24-.26-4.56-.8s-2.42-1.28-3.31-2.27-1.57-2.17-2.03-3.55a14.63 14.63 0 0 1-.68-4.64c0-1.8.25-3.41.75-4.82a9.34 9.34 0 0 1 2.17-3.52 9.48 9.48 0 0 1 3.44-2.17 13.69 13.69 0 0 1 8.08-.28 6.9 6.9 0 0 1 3.12 1.78c.9.88 1.6 2.08 2.09 3.61.49 1.54.66 3.52.52 5.96h-16.6c0 2.58.69 4.5 2.08 5.78s3.23 1.91 5.55 1.91c.77 0 1.54-.09 2.3-.27s1.47-.41 2.16-.67a11.46 11.46 0 0 0 3.05-1.72l1.33 2.45zm-9.06-16.47c-.94 0-1.83.1-2.68.3a5.53 5.53 0 0 0-3.81 2.86c-.42.76-.68 1.7-.8 2.82h13.34a6.63 6.63 0 0 0-1.82-4.4 5.78 5.78 0 0 0-4.23-1.58zm17.23-10.92h7.18v22.88c0 1.74.3 2.98.88 3.7.59.71 1.45 1.07 2.6 1.07.8 0 1.57-.15 2.3-.43a10.6 10.6 0 0 0 2.43-1.46l1.55 2.36a11.16 11.16 0 0 1-4.92 2.36 9.18 9.18 0 0 1-4.44-.24 4.85 4.85 0 0 1-2.1-1.3c-.56-.6-.98-1.4-1.27-2.39-.29-.99-.43-2.21-.43-3.68v-20h-3.78v-2.87zm43.43 27.39a13.04 13.04 0 0 1-4.13 2.32 16.86 16.86 0 0 1-5.33.9c-1.72 0-3.24-.26-4.56-.8s-2.43-1.28-3.31-2.27-1.57-2.17-2.03-3.55a14.63 14.63 0 0 1-.68-4.64c0-1.8.25-3.41.75-4.82a9.33 9.33 0 0 1 2.17-3.52 9.47 9.47 0 0 1 3.44-2.17 13.69 13.69 0 0 1 8.08-.28 6.9 6.9 0 0 1 3.12 1.78c.9.88 1.6 2.08 2.09 3.61.48 1.54.66 3.52.51 5.96h-16.6c0 2.58.7 4.5 2.09 5.78s3.23 1.91 5.55 1.91c.77 0 1.54-.09 2.3-.27s1.47-.41 2.16-.67a11.46 11.46 0 0 0 3.05-1.72l1.33 2.45zm-9.06-16.47c-.94 0-1.83.1-2.68.3a5.55 5.55 0 0 0-3.81 2.86c-.42.76-.68 1.7-.8 2.82h13.34a6.62 6.62 0 0 0-1.83-4.4 5.79 5.79 0 0 0-4.22-1.58zm13.44-2.32h5.12v-4.26l3.4-.94v5.2h11.47v2.88H619.3v10.15c0 2.1.51 3.64 1.52 4.64 1.02 1 2.47 1.5 4.36 1.5 1.28 0 2.4-.24 3.36-.72.96-.49 1.82-1.02 2.6-1.6l1.1 2.54a12.73 12.73 0 0 1-7.87 2.67c-1.14 0-2.22-.17-3.24-.5a7.45 7.45 0 0 1-2.69-1.52c-.77-.69-1.39-1.57-1.85-2.65s-.68-2.35-.68-3.85v-10.66h-5.12v-2.88zM658 514.94a13.04 13.04 0 0 1-4.13 2.32 16.86 16.86 0 0 1-5.34.9c-1.72 0-3.24-.26-4.55-.8a8.96 8.96 0 0 1-5.34-5.82 14.63 14.63 0 0 1-.68-4.64c0-1.8.25-3.41.75-4.82a9.33 9.33 0 0 1 2.17-3.52 9.47 9.47 0 0 1 3.44-2.17 13.69 13.69 0 0 1 8.08-.28 6.9 6.9 0 0 1 3.12 1.78c.9.88 1.6 2.08 2.09 3.61.48 1.54.66 3.52.51 5.96h-16.6c0 2.58.7 4.5 2.09 5.78s3.23 1.91 5.55 1.91c.77 0 1.54-.09 2.3-.27s1.47-.41 2.16-.67c.69-.26 1.3-.55 1.82-.86.53-.32.94-.6 1.22-.86l1.34 2.45zm-9.06-16.47c-.94 0-1.84.1-2.68.3a5.55 5.55 0 0 0-3.81 2.86c-.42.76-.68 1.7-.8 2.82h13.33a6.62 6.62 0 0 0-1.82-4.4 5.78 5.78 0 0 0-4.22-1.58zm27.07-10.92h7.01v22.75a44.68 44.68 0 0 0 .47 4.56h2.88v2.8h-5.76l-.43-3.32h-.17a7.6 7.6 0 0 1-2.81 2.73 8.36 8.36 0 0 1-4.31 1.1c-3.23 0-5.61-.91-7.14-2.73-1.53-1.82-2.3-4.65-2.3-8.5 0-1.8.26-3.4.77-4.8.52-1.38 1.25-2.54 2.21-3.47s2.11-1.64 3.45-2.13c1.35-.49 2.85-.73 4.5-.73a27.32 27.32 0 0 1 2.92.17c.4.06.78.14 1.14.24l1.18.32v-6.1h-3.61v-2.89zm-2.56 27.73c1.74 0 3.11-.45 4.11-1.35 1-.9 1.7-2.26 2.06-4.06v-9.98a6.62 6.62 0 0 0-2.12-.95 13 13 0 0 0-3.1-.3c-2.29 0-4.09.67-5.4 2s-1.98 3.44-1.98 6.3c0 1.18.11 2.27.33 3.3.21 1.01.57 1.9 1.07 2.64a5.3 5.3 0 0 0 1.99 1.76c.83.43 1.84.64 3.04.64zm-287.8 180.29h-2.18c-4.75 0-9.49 3.79-10.54 8.42l-30.72 135.96c-1.05 4.63 1.98 8.42 6.73 8.42h392.02c4.75 0 7.77-3.8 6.73-8.42l-30.73-135.96c-1.04-4.63-5.78-8.42-10.53-8.42h-2.18a298.6 298.6 0 0 1-159.3 45.76 298.6 298.6 0 0 1-159.3-45.76z" fill="#FFF"/><path d="M433.2 216.64c0-17.32-8.8-32.6-22.17-41.59a278.54 278.54 0 0 0-49.25 31.18c-9.46 7.48-20.59 17.24-29 25.87-23.11 23.73-41.66 48.5-55.16 78 12.58 14.43 32.89 26.2 53.54 26.2a68.64 68.64 0 0 0 68.54-72.4 50.1 50.1 0 0 0 33.5-47.26z"/><path fill="#FFF" d="M544.95 741.33a298.6 298.6 0 0 0 159.3-45.76h-318.6a298.6 298.6 0 0 0 159.3 45.76zm4.45-360.13a56.76 56.76 0 0 1-56.68-56.68 56.76 56.76 0 0 1 56.69-56.7 56.75 56.75 0 0 1 56.69 56.7 56.75 56.75 0 0 1-56.7 56.69zm0-109.37c-29.05 0-52.68 23.63-52.68 52.69s23.63 52.69 52.69 52.69 52.69-23.64 52.69-52.7-23.64-52.68-52.7-52.68z"/><path fill="#231F20" d="M549.4 302.58a50.95 50.95 0 0 0-42.29 22.5 50.95 50.95 0 0 0 42.3 22.5c17.6 0 33.13-8.93 42.3-22.5a50.95 50.95 0 0 0-42.3-22.5zm0 38.02a16.5 16.5 0 1 1 0-33 16.5 16.5 0 0 1 0 33z"/><path fill="#FFF" d="M484.9 387.1a2 2 0 0 1-1.4-3.42l123.04-122a2 2 0 0 1 2.82 2.84l-123.04 122a2 2 0 0 1-1.41.58zm203.67-121.26a17.25 17.25 0 0 1-17.25-17.25c0 9.52-7.72 17.25-17.25 17.25 9.53 0 17.25 7.72 17.25 17.25 0-9.53 7.72-17.25 17.25-17.25zM521.08 601.83a28.25 28.25 0 0 1-28.25-28.26 28.25 28.25 0 0 1-28.25 28.26 28.25 28.25 0 0 1 28.25 28.25 28.25 28.25 0 0 1 28.25-28.25zm224.41-256.87a2 2 0 0 1-2-2v-24.32a2 2 0 0 1 4 0v24.32a2 2 0 0 1-2 2zm0 38.74a2 2 0 0 1-2-2v-24.32a2 2 0 0 1 4 0v24.32a2 2 0 0 1-2 2zm31.08-31.98h-24.32a2 2 0 0 1 0-4h24.32a2 2 0 0 1 0 4zm-38.17 0h-24.33a2 2 0 0 1 0-4h24.33a2 2 0 0 1 0 4zm-412.35 166.4a2 2 0 0 1-2-2v-16.8a2 2 0 0 1 4 0v16.8a2 2 0 0 1-2 2zm0 26.76a2 2 0 0 1-2-2v-16.8a2 2 0 0 1 4 0v16.8a2 2 0 0 1-2 2zm21.47-22.1h-16.8a2 2 0 0 1 0-4h16.8a2 2 0 0 1 0 4zm-26.37 0h-16.8a2 2 0 0 1 0-4h16.8a2 2 0 0 1 0 4z"/><circle fill="#FFF" cx="405.95" cy="620.1" r="5.75"/><circle fill="#FFF" cx="428.95" cy="636.1" r="5.75"/><circle fill="#FFF" cx="498.54" cy="217.88" r="5.75"/><circle fill="#FFF" cx="473.04" cy="246.13" r="5.75"/><circle fill="#FFF" cx="321.3" cy="385.62" r="5.75"/><circle fill="#FFF" cx="750.28" cy="508.62" r="5.75"/><path fill="#FFF" d="M544.95 743.33c-80.68 0-156.52-31.42-213.57-88.46s-88.46-132.9-88.46-213.57c0-80.68 31.41-156.52 88.46-213.57s132.9-88.46 213.57-88.46c80.67 0 156.52 31.42 213.57 88.46 57.04 57.05 88.46 132.9 88.46 213.57 0 80.67-31.42 156.52-88.46 213.57-57.05 57.04-132.9 88.46-213.57 88.46zm0-600.06c-79.6 0-154.45 31-210.74 87.3-56.3 56.28-87.3 131.12-87.3 210.73 0 79.6 31 154.45 87.3 210.74 56.29 56.29 131.13 87.29 210.74 87.29 79.6 0 154.45-31 210.74-87.3 56.29-56.28 87.29-131.12 87.29-210.73 0-79.6-31-154.45-87.3-210.74s-131.12-87.29-210.73-87.29zm182.21 605.81H362.74l-10.84 48H738z"/><path fill="#FFF" d="M716.97 703.99c-1.05-4.63-5.8-8.42-10.54-8.42H383.47c-4.75 0-9.49 3.79-10.54 8.42l-9.28 41.1h362.6l-9.28-41.1zM342.2 839.95c-1.04 4.63 2 8.42 6.74 8.42h392.02c4.75 0 7.78-3.8 6.73-8.42l-8.78-38.87H350.99l-8.78 38.87z"/><path fill="#FF8630" d="M726.25 745.08h-362.6l-.91 4h364.42zm-374.35 52-.91 4h387.92l-.91-4zM101.36 528.11a29.81 29.81 0 0 1-59.62 0c0-16.46 29.81-78.85 29.81-77.9 0 .97 29.81 61.44 29.81 77.9z"/><path fill="#FFF" d="M71.55 559.92a31.85 31.85 0 0 1-31.8-31.81c0-7.13 5-22.56 14.88-45.86a728.2 728.2 0 0 1 10.26-23.02c5.15-11.02 5.15-11.02 6.66-11.02a2 2 0 0 1 1.94 1.52c.23.6 1.44 3.2 2.83 6.21 12.59 27.23 27.04 60.03 27.04 72.17a31.85 31.85 0 0 1-31.8 31.81zm-.14-105.06c-6.4 13.27-27.67 59.85-27.67 73.25 0 15.34 12.48 27.81 27.81 27.81s27.81-12.47 27.81-27.81c0-12.82-19.37-54.71-26.67-70.49l-1.28-2.76z"/><path d="M72.3 627.93a2 2 0 0 1-2-2V524.6a2 2 0 0 1 4 0v101.33a2 2 0 0 1-2 2z"/><path d="M0 579.01h144.61V850H0z"/><path fill="#FF8630" d="M220.39 632.3a22.48 22.48 0 0 1-44.96 0c0-12.42 22.48-59.47 22.48-58.74 0 .72 22.48 46.32 22.48 58.73z"/><path fill="#FFF" d="M197.9 656.77a24.5 24.5 0 0 1-24.47-24.48c0-5.44 3.79-17.14 11.27-34.77a551.6 551.6 0 0 1 7.74-17.37c4.02-8.6 4.02-8.6 5.47-8.6a2 2 0 0 1 1.93 1.49c.19.48 1.08 2.4 2.1 4.62 9.53 20.58 20.45 45.38 20.45 54.63a24.5 24.5 0 0 1-24.48 24.48zm-.13-78.6c-5.36 11.15-20.34 44.67-20.34 54.12a20.5 20.5 0 0 0 20.48 20.48 20.5 20.5 0 0 0 20.48-20.48c0-9.56-14.58-41.08-20.07-52.95l-.54-1.17zm.57 145.91V622.75"/><path d="M198.34 726.08a2 2 0 0 1-2-2V622.74a2 2 0 0 1 4 0v101.34a2 2 0 0 1-2 2z"/><path fill="#FFF" d="M145.35 669.07h105.97v180.67H145.35z"/><path fill="#FF8630" d="M121.59 848a27.83 27.83 0 0 1-27.73-25.8h208.95A27.83 27.83 0 0 1 275.1 848H121.6z"/><path fill="#FFF" d="M300.57 824.2A25.84 25.84 0 0 1 275.1 846H121.6a25.84 25.84 0 0 1-25.49-21.8h204.47m4.31-4H91.8a29.8 29.8 0 0 0 29.8 29.8h153.5a29.8 29.8 0 0 0 29.8-29.8zM159.26 717.14a13.9 13.9 0 1 1-27.8 0c0-7.68 13.9-48.07 13.9-48.07-.02.02 13.9 40.39 13.9 48.07zm105.86 71.11a13.9 13.9 0 1 1-27.8 0c0-7.68 13.9-48.07 13.9-48.06-.02.01 13.9 40.38 13.9 48.06z"/></svg>
