<svg xmlns="http://www.w3.org/2000/svg" width="140" height="154" viewBox="0 0 140 154" fill="none"><path fill="#fff" d="M63.8 35.2s-12-1.05-18.2 2.2c-3.89 3.14-4.64 9.05-4.64 9.05L39.2 81.41l-.5 2.58-8.62 2.47-1.75 2.45-8.6 5.32 1.37 2.85 6.37 3.48 4.61 1.3-.37 2.33-3.36 6.86-8.5 11.38-5.74 9.2L8 145.74l-2.24 8.95h128.31l-.74-5.32-3.25-8.94-4.12-9.05-11.85-16.96-4.88-7.39-12.97-24.2-9.5-44.41-4.74-1.54-10.22-3.76-5.75-2.98-.26 1.04.25 1.94 1.38 1.54-3.63.54Z"/><path fill="#F498AD" d="M105.6 107.98c10.41 8.3 20.84 4.48 20.84 4.48s-15.8-9.1-18.81-19.77c0 0 2.8 1.45 5.08 0 0 0-11.19-12.4-11.7-28.47-.5-16.1 15.64-50.9 11.7-52.87C108.77 9.4 85.76 37.6 85.76 37.6l-3.3-1.06S71.9 44.58 71.78 62.9c-.14 18.3 12.83 23.2 17.66 27.82 6.36 6.06 5.72 8.96 16.14 17.28v-.02Z"/><path fill="#fff" d="M53.95 65.03c-1.6 6.5-5.8 10.98-9.4 10.04-3.6-.95-5.23-6.97-3.63-13.47 1.58-6.48 5.8-10.98 9.38-10.02 3.6.93 5.23 6.95 3.64 13.45Z"/><path fill="#F498AD" d="M59.07 56.28c5.21 22.3-23.66 29.16-23.66 29.16s4.18-11.87 1.8-30.71c-2.38-18.85-17.04-41.4-11.7-41.4S53.84 34.02 59.06 56.3v-.03Z"/><path fill="#F498AD" fill-rule="evenodd" d="M72.72 33c1.22.64 2.41 1.17 3.43 1.44 3.39.85 6.72 1.9 9.97 3.15l.06.01-.16.5-.18.51-.05-.03a88.65 88.65 0 0 0-9.87-3.12c-1.14-.28-2.41-.88-3.64-1.51a87.33 87.33 0 0 1-3.55-1.96c-.53-.3-1.02-.56-1.44-.73-.37-.17-.76-.3-1.16-.36 0 .04 0 .15.04.38a7.92 7.92 0 0 0 1.67 3.31l.77.96-8.43-.47a.49.49 0 0 1-.35-.18.53.53 0 0 1-.14-.38.56.56 0 0 1 .35-.47.5.5 0 0 1 .2-.03l6.18.35-.14-.22c-.5-.82-.88-1.7-1.1-2.64-.09-.44-.11-.95.17-1.31.3-.38.77-.4 1.12-.34.36.06.78.23 1.23.42.46.21.98.48 1.5.77l1.27.7 2.25 1.26V33Zm13.78 5.3a.53.53 0 0 1-.27.3.49.49 0 0 1-.39 0l.18-.5.17-.48c.27.1.4.39.3.67v.01Z" clip-rule="evenodd"/><path fill="#fff" d="M53.85 63.4c0 3.86-2.5 6.98-5.57 6.98-3.08 0-5.57-3.12-5.57-6.97 0-3.85 2.5-6.98 5.57-6.98 3.08 0 5.57 3.13 5.57 6.98Zm34.22.8c0 3.85-2.5 6.98-5.57 6.98-3.08 0-5.58-3.13-5.58-6.98 0-3.86 2.5-6.97 5.58-6.97s5.57 3.11 5.57 6.97Z"/><path fill="#F498AD" fill-rule="evenodd" d="M48.71 78.5c.19.22.16.56-.05.74-3.2 2.86-8.23 4.87-13.36 6.3a103.78 103.78 0 0 1-14.17 2.76 4.2 4.2 0 0 0-2.94 1.75c-.54.87-.61 1.93.1 2.97 2.6 3.83 8.8 8.83 23.5 9.3 12.4.38 20.73-1.74 25.9-3.96a28.84 28.84 0 0 0 5.6-3.08 18.9 18.9 0 0 0 1.66-1.35l.01-.02.37-.39.36.38h.03l.28.28c.2.17.47.39.84.61.7.45 1.6.86 2.53.8a.49.49 0 0 1 .37.14c.1.09.17.22.18.35 0 .14-.05.28-.14.38a.5.5 0 0 1-.34.18 5.38 5.38 0 0 1-3.15-.95 8.44 8.44 0 0 1-.95-.7l-.08.08c-.31.26-.76.63-1.38 1.08a30.85 30.85 0 0 1-5.8 3.2c-5.32 2.25-13.8 4.42-26.31 4.01-14.94-.46-21.48-5.56-24.32-9.73a3.63 3.63 0 0 1-.11-4.16 5.2 5.2 0 0 1 3.67-2.2 102.7 102.7 0 0 0 14.04-2.77c5.08-1.4 9.94-3.36 12.95-6.06a.5.5 0 0 1 .56-.07.5.5 0 0 1 .15.13Z" clip-rule="evenodd"/><path fill="#F498AD" d="M52.27 65.66c-.63 2.58-2.3 4.37-3.73 3.99-1.42-.38-2.08-2.76-1.45-5.35.64-2.57 2.3-4.34 3.74-3.97 1.43.37 2.07 2.75 1.44 5.34v-.01Zm34.19.94c-.63 2.57-2.3 4.35-3.73 3.97-1.42-.37-2.07-2.77-1.44-5.34.63-2.58 2.3-4.37 3.72-4 1.43.38 2.1 2.78 1.45 5.35v.02Z"/><path fill="#F498AD" fill-rule="evenodd" d="M28.04 110.15c2.1-3.22 3.45-5.98 3.57-8.52l1.02.05c-.14 2.86-1.63 5.83-3.76 9.07-1.26 1.94-2.8 4.02-4.43 6.26-1.12 1.53-2.3 3.12-3.48 4.79-5.89 8.34-12.26 18.94-14.53 33.46l-1-.17c2.3-14.75 8.79-25.5 14.7-33.92 1.17-1.62 2.34-3.24 3.52-4.84 1.52-2.02 2.97-4.06 4.39-6.16v-.02Zm83.93 0c-2.12-3.22-3.46-5.98-3.58-8.52l-1.02.05c.14 2.86 1.63 5.83 3.75 9.07 1.27 1.94 2.8 4.02 4.44 6.26 1.12 1.53 2.3 3.12 3.47 4.79 5.9 8.34 12.27 18.94 14.54 33.46l1-.17c-2.3-14.75-8.79-25.5-14.7-33.92a380.27 380.27 0 0 0-3.52-4.84 136.24 136.24 0 0 1-4.38-6.16v-.02Z" clip-rule="evenodd"/><path fill="#F498AD" fill-rule="evenodd" d="M28.04 110.15c2.1-3.22 3.45-5.98 3.57-8.52l1.02.05c-.14 2.86-1.63 5.83-3.76 9.07-1.26 1.94-2.8 4.02-4.43 6.26-1.12 1.53-2.3 3.12-3.48 4.79-5.89 8.34-12.26 18.94-14.53 33.46l-1-.17c2.3-14.75 8.79-25.5 14.7-33.92 1.17-1.62 2.34-3.24 3.52-4.84 1.52-2.02 2.97-4.06 4.39-6.16v-.02Z" clip-rule="evenodd"/><path fill="#F498AD" fill-rule="evenodd" d="m30.25 107.59.35-.4.33-.38.19.15.56.49a69.07 69.07 0 0 0 10.37 7.11c7.04 3.92 17 7.93 28.73 8.18a58.75 58.75 0 0 0 38.5-13.53l.03-.02.34.37.35.4a59.63 59.63 0 0 1-39.26 13.81c-11.9-.25-22.04-4.3-29.17-8.27a70.11 70.11 0 0 1-11.3-7.91h-.02Z" clip-rule="evenodd"/><path fill="#F498AD" fill-rule="evenodd" d="M27.57 115.72a.51.51 0 0 1 .63-.35c3.08 1.03 6.9 3.25 10.9 6 3.98 2.74 8.17 6.02 11.96 9.17 4.5 3.73 8.88 7.6 13.16 11.59l6.82-19.04a.53.53 0 0 1 .27-.3.49.49 0 0 1 .56.1c.1.1.15.23.15.37 0 .07 0 .14-.02.2l-7.36 20.5-.56-.53-.02-.03a172.05 172.05 0 0 0-25.53-21.17c-3.97-2.71-7.7-4.87-10.64-5.83a.5.5 0 0 1-.29-.27.53.53 0 0 1-.03-.4Z" clip-rule="evenodd"/><path fill="#F498AD" fill-rule="evenodd" d="M115.75 115.72a.53.53 0 0 0-.45-.37.5.5 0 0 0-.2.02c-3.08 1.03-6.9 3.25-10.9 6a168.24 168.24 0 0 0-11.96 9.17 300.8 300.8 0 0 0-13.16 11.59l-6.82-19.04a.53.53 0 0 0-.26-.3.49.49 0 0 0-.68.26.53.53 0 0 0-.04.2c0 .08 0 .15.03.2l7.35 20.51.56-.53.03-.03.04-.03.98-.93c4.09-3.83 8.3-7.52 12.6-11.06 3.78-3.17 7.95-6.42 11.9-9.15 3.98-2.71 7.7-4.87 10.64-5.83.27-.09.42-.4.34-.68Z" clip-rule="evenodd"/><path fill="#F498AD" d="m23.47 87.42 7.13-.93s0 3.3-4.58 5.27c-4.58 1.98-4.58 5.29-4.58 5.29l-4.32-4.62.64-2.65 1.53-1.58 4.2-.78h-.02Z"/></svg>
