<svg xmlns="http://www.w3.org/2000/svg" xmlns:xlink="http://www.w3.org/1999/xlink" viewBox="0 0 1920 1080" xml:space="preserve"><path fill="#FFF" d="M737.08 61.68V36.6c0-19.22 15.6-34.95 34.67-34.95h1113.97c19.06 0 34.67 15.73 34.67 34.95v25.07H737.09z"/><path d="M1915.5 65.67V709.6H742.2V65.67h1173.3m5-5H737.2V714.6h1183.3V60.67z"/><linearGradient id="a" gradientUnits="userSpaceOnUse" x1="-1891.3" y1="-1910.88" x2="-1420.99" y2="-1910.88" gradientTransform="rotate(-90 942.28 -2299.23)"><stop offset="0" style="stop-color:#2e9aff;stop-opacity:0"/><stop offset="1" style="stop-color:#000"/></linearGradient><path fill="url(#a)" d="M741.58 64.04h1178.09v470.31H741.58z"/><path fill="#FFF" d="M1253.4 298.8a23.77 23.77 0 0 1 23.77-23.78 23.77 23.77 0 0 1-23.77-23.77 23.77 23.77 0 0 1-23.77 23.77 23.77 23.77 0 0 1 23.77 23.77zM972.73 170.56c0-7.1 5.76-12.86 12.86-12.86-7.1 0-12.86-5.75-12.86-12.86 0 7.1-5.76 12.86-12.86 12.86 7.1 0 12.86 5.76 12.86 12.86zm333.57 245.98c23.8 11.2 40.1 34.7 64.02 45.63 31.28 14.3 70.5 5.96 104.31 15.67 10.08 2.9 33.68 11.57 33.68 11.57s28.15-6.87 72.81-18.7v-.5c0-80.03-64.87-144.9-144.9-144.9-60.4 0-112.16 36.96-133.92 89.5a74.8 74.8 0 0 1 4 1.73z"/><circle fill="#2E9AFF" cx="774.84" cy="32.48" r="15.72"/><circle cx="817.2" cy="32.48" r="15.72"/><circle cx="858.27" cy="32.48" r="15.72"/><path d="M1589.19 531.58c-.4 0-.8-.1-1.18-.3-36.19-19.38-73.6-39.42-114.07-51.04-14.7-4.22-30.81-4.98-46.4-5.72-19.86-.94-40.4-1.91-58.26-10.08-12.4-5.66-22.85-14.65-32.96-23.35-9.64-8.3-19.62-16.89-31.08-22.29-14.52-6.84-30.38-8.38-47.17-10-14-1.36-28.47-2.77-41.94-7.56-20.82-7.4-37.8-22.24-54.2-36.59l-1.36-1.19c-17.3-15.1-34.5-29.15-54.82-34.97-39.97-11.45-67.34 14.96-93.8 40.5a846.63 846.63 0 0 1-7.61 7.31c-36.84 34.9-57.12 45.95-108.53 59.1-27.8 7.1-49.64 10.77-73.02 12.24-24.18 1.53-50.99.72-83.52-.48a2.5 2.5 0 0 1 .18-5c72.44 2.69 100.45 2.38 155.12-11.6 50.39-12.9 70.26-23.71 106.33-57.88 2.52-2.39 5.04-4.82 7.58-7.28 26.2-25.3 55.9-53.96 98.65-41.72 21.32 6.1 39 20.52 56.73 36.02l1.36 1.19c16.06 14.04 32.66 28.55 52.59 35.64 12.9 4.59 27.05 5.96 40.74 7.29 16.48 1.6 33.51 3.25 48.82 10.46 12.08 5.7 22.32 14.5 32.22 23.02 9.84 8.47 20.01 17.23 31.77 22.6 16.98 7.76 36.14 8.67 56.42 9.63 15.87.75 32.28 1.52 47.54 5.9 40.98 11.78 78.64 31.94 115.05 51.45a2.5 2.5 0 0 1-1.18 4.7z"/><path d="M1508.31 491.91a2.5 2.5 0 0 1-.56-4.94 8438.4 8438.4 0 0 1 16.04-3.71c25.62-5.92 41.09-9.49 62.41-15.93 31.13-9.4 76.35-33.4 97.53-46.31 14.74-8.99 29.6-18.84 43.98-28.37 16.55-10.97 33.66-22.31 51-32.63l.94-.56c24.04-14.32 39.93-23.78 68.35-13.55 11.75 4.23 19.94 6.98 25.91 8.98 14.12 4.73 18.38 6.16 34.67 15.12a2.5 2.5 0 0 1-2.41 4.38c-15.9-8.74-20.06-10.14-33.85-14.76-6-2-14.2-4.76-26.01-9.01-26.2-9.43-40.47-.94-64.1 13.13l-.94.56c-17.24 10.26-34.3 21.57-50.8 32.5-14.41 9.56-29.32 19.44-44.14 28.48-21.4 13.04-67.1 37.3-98.68 46.83-21.49 6.49-37.9 10.27-62.74 16.01l-16.03 3.71a2.5 2.5 0 0 1-.57.07z"/><path d="M1918.78 710.34V141.81l-.41-2.76-40.14 268.3-108.21-248.77 30.67 269.55-168.92-212.28 99.39 252.42-218.1-161.33 161.34 218.1-252.43-99.39 212.29 168.91-269.55-30.67 248.77 108.22-255.59 38.23z"/><path fill="none" stroke="#000" stroke-width="5" stroke-linecap="round" stroke-linejoin="round" stroke-miterlimit="10" d="M1216.04 643.18s29.33-23.16 66.39-23.16 63.3 21.61 63.3 21.61m-289.5-13.51s42-33.15 95.05-33.15c53.04 0 90.62 30.94 90.62 30.94"/><linearGradient id="b" gradientUnits="userSpaceOnUse" x1="261.81" y1="1393.37" x2="1188.79" y2="488.4"><stop offset=".23" style="stop-color:#fff"/><stop offset=".34" style="stop-color:#d1e9ff;stop-opacity:.8196"/><stop offset=".52" style="stop-color:#8bc7ff;stop-opacity:.5288"/><stop offset=".67" style="stop-color:#59afff;stop-opacity:.2854"/><stop offset=".79" style="stop-color:#3aa0ff;stop-opacity:.1021"/><stop offset=".85" style="stop-color:#2e9aff;stop-opacity:0"/></linearGradient><path fill="url(#b)" d="M101.28 703.31 873.52 56.25l581.27 1019.24-824.26 2.85z"/><path fill="#FFF" d="m574.93 1075.05 7.22-343.82a87.63 87.63 0 0 1 87.62-87.63H916.8c48.4 0 77.28 33.62 87.63 87.62l56.76 247.83s26.12 98.66-65.1 96H728.57l-1.64-120.63h208.45"/><path d="M844.88 662.14a67.26 67.26 0 0 1-134.52 0l.2-18.76h134.75l-.43 18.76z"/><path fill="#2E9AFF" d="M703.95 1014.62a2.5 2.5 0 0 1-2.46-2.06l-48.22-266.41a2.5 2.5 0 1 1 4.92-.9l48.22 266.42a2.5 2.5 0 0 1-2.46 2.95zm231.43-57.7H729.8a2.5 2.5 0 1 1 0-5h202.48l-45.12-208.6a2.5 2.5 0 1 1 4.89-1.05l45.77 211.62a2.5 2.5 0 0 1-2.44 3.03zM824.3 576.58h-90.74v82.33l.03.3a45.37 45.37 0 0 0 90.74 0l-.04-82.63z"/><path d="M778.96 707.08a47.92 47.92 0 0 1-47.87-47.74l-.03-.43v-84.83h95.73l.04 85.13a47.92 47.92 0 0 1-47.87 47.87zm-42.9-48.3.03.43c0 23.64 19.23 42.87 42.87 42.87s42.87-19.23 42.87-42.87l-.03-80.13h-85.74v79.7z"/><defs><path id="c" d="M910.75 452.72c-1.8 0-3.55.11-5.29.3-16.2-55.93-67.8-96.84-128.95-96.84s-112.77 40.9-128.96 96.85a46.61 46.61 0 1 0 6.08 91.51c20.82 47.18 68 80.12 122.88 80.12 54.87 0 102.06-32.94 122.87-80.12a46.61 46.61 0 1 0 11.37-91.82z"/></defs><defs><path id="d" d="M776.5 627.16a136.86 136.86 0 0 1-124.3-79.73 49.17 49.17 0 0 1-59.04-48.1 49.17 49.17 0 0 1 52.58-48.98 137.82 137.82 0 0 1 47.91-68.7c23.97-18.3 52.62-27.97 82.86-27.97s58.88 9.67 82.85 27.96a137.82 137.82 0 0 1 47.91 68.71 49.17 49.17 0 0 1 52.59 48.98 49.17 49.17 0 0 1-59.04 48.1 136.86 136.86 0 0 1-124.31 79.73zM655.08 541.6l.85 1.93a131.86 131.86 0 0 0 120.59 78.63c52.18 0 99.51-30.86 120.58-78.63l.85-1.92 2.05.5a44.16 44.16 0 0 0 54.87-42.78 44.16 44.16 0 0 0-49.12-43.82l-2.1.23-.58-2.02a132.72 132.72 0 0 0-46.73-68.1c-23.1-17.62-50.7-26.94-79.82-26.94s-56.73 9.32-79.83 26.94a132.71 132.71 0 0 0-46.73 68.1l-.58 2.02-2.1-.23a44.16 44.16 0 0 0-49.12 43.82 44.16 44.16 0 0 0 54.88 42.79l2.04-.52z"/></defs><use xlink:href="#c" overflow="visible" fill="#2E9AFF"/><use xlink:href="#d" overflow="visible"/><path fill="#2E9AFF" d="m618.65 487 28.59 31.08"/><path d="M647.24 520.58a2.5 2.5 0 0 1-1.84-.8l-28.59-31.08a2.5 2.5 0 1 1 3.68-3.39l28.59 31.08a2.5 2.5 0 0 1-1.84 4.19z"/><path fill="#2E9AFF" d="m928.79 487-28.59 31.08"/><path d="M900.2 520.58a2.5 2.5 0 0 1-1.84-4.2l28.59-31.07a2.5 2.5 0 1 1 3.68 3.39l-28.59 31.07c-.5.54-1.16.81-1.84.81zM775.57 533.1a2.5 2.5 0 0 1-2.5-2.5v-25.8a2.5 2.5 0 1 1 5 0v25.8a2.5 2.5 0 0 1-2.5 2.5zm-62.13-4.14a2.5 2.5 0 0 1-2.5-2.5v-42.51a2.5 2.5 0 1 1 5 0v42.51a2.5 2.5 0 0 1-2.5 2.5z"/><path fill="#2E9AFF" d="m728.47 490.17-30.07 30.07"/><path d="M698.4 522.74a2.5 2.5 0 0 1-1.76-4.27l30.06-30.06a2.5 2.5 0 1 1 3.54 3.53l-30.07 30.07c-.49.48-1.13.73-1.76.73z"/><path d="M734.7 507.7h-42.52a2.5 2.5 0 1 1 0-5h42.52a2.5 2.5 0 1 1 0 5z"/><path fill="#2E9AFF" d="m728.47 520.24-30.07-30.07"/><path d="M728.47 522.74a2.5 2.5 0 0 1-1.77-.73l-30.06-30.07a2.5 2.5 0 1 1 3.53-3.54l30.07 30.07a2.5 2.5 0 0 1-1.77 4.27zm103.71 6.22a2.5 2.5 0 0 1-2.5-2.5v-42.51a2.5 2.5 0 1 1 5 0v42.51a2.5 2.5 0 0 1-2.5 2.5z"/><path fill="#2E9AFF" d="m847.21 490.17-30.06 30.07"/><path d="M817.15 522.74a2.5 2.5 0 0 1-1.77-4.27l30.07-30.06a2.5 2.5 0 1 1 3.53 3.53l-30.06 30.07c-.49.48-1.13.73-1.77.73z"/><path d="M853.44 507.7h-42.52a2.5 2.5 0 1 1 0-5h42.52a2.5 2.5 0 1 1 0 5z"/><path fill="#2E9AFF" d="m847.22 520.24-30.07-30.07"/><path d="M847.22 522.74a2.5 2.5 0 0 1-1.77-.73l-30.07-30.07a2.5 2.5 0 1 1 3.54-3.54l30.06 30.07a2.5 2.5 0 0 1-1.76 4.27zm-49.89-67.16 15.48-45.66 16.82 44.94 74.25 1c0-21.76-36.55-101.14-131.97-101.14-83.56 0-123.99 77.17-122.71 101.03l148.13-.17z"/><circle fill="#FFF" cx="775.77" cy="570.15" r="24.01"/><path fill="#2E9AFF" stroke="#000" stroke-width="5" stroke-miterlimit="10" d="m631.9 978.93 94.23-23.58 1.63 83.7-152.73 2.18a76.3 76.3 0 0 1 56.87-62.3z"/><path d="M811.53 1078.34H628.97l-5.33-46.22h187.89z"/><path d="M1380.1 1078.9H3.62a2.5 2.5 0 1 1 0-5H1380.1a2.5 2.5 0 1 1 0 5z"/><path d="M630.53 1078.34H144.62l-43.34-375.03h485.91z"/><path fill="#2E9AFF" d="M444.35 936.56H271.12a25.43 25.43 0 0 1-25.43-25.43v-29a25.43 25.43 0 0 1 25.43-25.42h173.23a25.43 25.43 0 0 1 25.43 25.43v29a25.43 25.43 0 0 1-25.43 25.42z"/><path fill="#FFF" d="M290.88 917.73c-8.22 0-12.29-6.87-13.3-10.5a2.5 2.5 0 0 1-.08-.67v-29.51a2.5 2.5 0 1 1 5 0v29.12c.45 1.3 2.63 6.56 8.38 6.56 5.74 0 7.92-5.24 8.38-6.56v-29.12a2.5 2.5 0 1 1 5 0v29.51c0 .23-.03.45-.09.67-1 3.63-5.07 10.5-13.3 10.5zm133.72 0c-8.22 0-12.3-6.87-13.3-10.5a2.5 2.5 0 0 1-.09-.67v-29.51a2.5 2.5 0 1 1 5 0v29.12c.45 1.3 2.63 6.56 8.38 6.56 5.75 0 7.93-5.24 8.39-6.56v-29.12a2.5 2.5 0 1 1 5 0v29.51c0 .23-.03.45-.1.67-1 3.63-5.07 10.5-13.29 10.5z"/><circle fill="#FFF" cx="324.63" cy="892.17" r="5.35"/><circle fill="#FFF" cx="391.44" cy="892.17" r="5.35"/><path fill="#FFF" d="M366.96 896.7c0 5.44-6.36 15.03-9.87 15.03-3.13 0-9.87-9.59-9.87-15.04a9.87 9.87 0 1 1 19.74 0z"/><path fill="#FFF" d="M347.37 918.75c-1 0-1.9-.18-2.6-.44a2.5 2.5 0 0 1 1.72-4.7c.48.15 4.35 1.12 7.3-6.15a2.5 2.5 0 0 1 4.64 1.89c-3.03 7.43-7.7 9.4-11.06 9.4z"/><path fill="#FFF" d="M366.81 918.75c-3.36 0-8.03-1.97-11.05-9.4a2.5 2.5 0 0 1 4.63-1.89c3.1 7.62 7.22 6.18 7.26 6.17a2.5 2.5 0 0 1 1.75 4.68 7.5 7.5 0 0 1-2.59.44z"/></svg>