<svg xmlns="http://www.w3.org/2000/svg" xmlns:xlink="http://www.w3.org/1999/xlink" viewBox="0 0 1073.56 1080" xml:space="preserve"><linearGradient id="a" gradientUnits="userSpaceOnUse" x1="-4552.11" y1="-52.04" x2="-4122.39" y2="-52.04" gradientTransform="rotate(-90 -1737.91 -2326.84)"><stop offset="0" style="stop-color:#2e9aff;stop-opacity:0"/><stop offset="1" style="stop-color:#000"/></linearGradient><path fill="url(#a)" d="M3.74 57.64h1066.3v429.72H3.74z"/><path fill="#FFF" d="M1.07 54.29V32.51C1.07 15.1 15.2.86 32.47.86h1008.52c17.26 0 31.39 14.24 31.39 31.65v21.78H1.08z"/><path d="M1068.48 58.29v584.03H5.18V58.29h1063.3m4-4H1.18v592.03h1071.3V54.29z"/><path fill="#FFF" d="M468.52 269.87a21.52 21.52 0 0 1 21.52-21.52 21.52 21.52 0 0 1-21.52-21.52A21.52 21.52 0 0 1 447 248.35a21.52 21.52 0 0 1 21.52 21.52zm-254.1-116.09c0-6.43 5.21-11.65 11.64-11.65a11.64 11.64 0 0 1-11.64-11.64c0 6.43-5.21 11.64-11.65 11.64 6.44 0 11.65 5.22 11.65 11.65zm302 222.69c21.54 10.15 36.3 31.42 57.96 41.31 28.32 12.94 63.83 5.4 94.44 14.19 9.12 2.62 30.5 10.47 30.5 10.47s25.47-6.22 65.9-16.93l.01-.45c0-72.45-58.73-131.19-131.18-131.19-54.7 0-101.56 33.47-121.26 81.03 1.22.5 2.44 1 3.63 1.57z"/><circle fill="#2E9AFF" cx="35.26" cy="28.76" r="14.24"/><circle cx="73.61" cy="28.76" r="14.24"/><circle cx="110.79" cy="28.76" r="14.24"/><path d="M772.53 480.36a2 2 0 0 1-.94-.24c-32.78-17.55-66.66-35.7-103.33-46.23-13.33-3.83-27.94-4.52-42.06-5.2-17.96-.84-36.53-1.72-52.66-9.09-11.19-5.11-20.63-13.24-29.77-21.1-8.74-7.53-17.79-15.31-28.2-20.22-13.19-6.21-28.24-7.67-42.8-9.08-12.65-1.23-25.73-2.5-37.9-6.83-18.8-6.69-34.15-20.1-48.99-33.08l-1.23-1.07c-15.67-13.7-31.27-26.44-49.73-31.72-36.33-10.4-61.16 13.56-85.17 36.74-2.3 2.23-4.6 4.44-6.9 6.61-33.23 31.5-45.95 42.11-92.03 55.94-52.3 15.69-79.69 13.48-145.84 8.13a2 2 0 0 1 .32-3.98c65.63 5.3 92.79 7.5 144.37-7.98 45.22-13.57 57.72-24.02 90.44-55.01 2.28-2.16 4.56-4.37 6.86-6.59 23.67-22.85 50.49-48.75 89.05-37.7 19.25 5.5 35.23 18.54 51.27 32.55l1.23 1.07c14.55 12.73 29.6 25.89 47.69 32.32 11.7 4.17 24.54 5.41 36.95 6.62 14.9 1.44 30.3 2.94 44.12 9.44 10.9 5.14 20.15 13.1 29.1 20.8 8.92 7.69 18.15 15.63 28.83 20.5 15.42 7.05 32.79 7.87 51.18 8.74 14.35.68 29.2 1.39 42.98 5.35 37.07 10.64 71.15 28.9 104.1 46.54a2 2 0 0 1-.94 3.77z"/><path d="M699.3 444.44a2 2 0 0 1-.44-3.94l14.51-3.36c23.2-5.36 37.22-8.6 56.53-14.43 28.2-8.51 69.17-30.25 88.36-41.96 13.35-8.14 26.81-17.06 39.83-25.69 14.98-9.93 30.47-20.2 46.16-29.53l.85-.51c21.7-12.92 36.04-21.46 61.66-12.24 10.64 3.83 18.05 6.32 23.46 8.13 12.77 4.28 16.62 5.57 31.34 13.67a2 2 0 1 1-1.92 3.5c-14.41-7.92-18.19-9.19-30.69-13.38-5.43-1.82-12.86-4.31-23.55-8.15-23.83-8.59-36.8-.87-58.25 11.9l-.85.51c-15.61 9.3-31.06 19.53-46 29.44-13.05 8.65-26.54 17.6-39.96 25.77-19.36 11.8-60.72 33.75-89.28 42.37-19.45 5.87-34.3 9.3-56.8 14.5l-14.5 3.35c-.15.04-.3.05-.45.05z"/><path d="M1070.92 642.47V127.74l-.37-2.49-36.34 242.91-97.97-225.23 27.77 244.04-152.93-192.2 89.98 228.54-197.45-146.07L849.67 474.7l-228.53-89.98 192.19 152.92-244.04-27.76 225.23 97.97-231.39 34.62z"/><linearGradient id="b" gradientUnits="userSpaceOnUse" x1="1029.44" y1="1203.78" x2="64.75" y2="578.07"><stop offset=".23" style="stop-color:#fff"/><stop offset=".34" style="stop-color:#d1e9ff;stop-opacity:.8196"/><stop offset=".52" style="stop-color:#8bc7ff;stop-opacity:.5288"/><stop offset=".67" style="stop-color:#59afff;stop-opacity:.2854"/><stop offset=".79" style="stop-color:#3aa0ff;stop-opacity:.1021"/><stop offset=".85" style="stop-color:#2e9aff;stop-opacity:0"/></linearGradient><path fill="url(#b)" d="M919.83 739.01 2.9-.69l-.04 1077.26 440.16 2.57z"/><path fill="#FFF" d="m493.11 1076.17-6.5-309.75a78.94 78.94 0 0 0-78.95-78.94H185.11c-43.6 0-69.61 30.29-78.94 78.94L55.03 989.69s-23.53 88.88 58.65 86.48H354.7l1.47-108.67H168.38"/><path d="M249.91 704.18a60.6 60.6 0 0 0 121.2 0l-.2-16.9H249.54l.38 16.9z"/><path fill="#2E9AFF" d="M376.88 1021.48a2 2 0 0 1-1.97-2.36l43.44-240.01a2 2 0 1 1 3.94.71l-43.45 240.02a2 2 0 0 1-1.96 1.64zM353.6 969.5H168.37a2 2 0 0 1-1.95-2.43l41.23-190.65a2 2 0 0 1 3.91.85l-40.7 188.23h182.73a2 2 0 0 1 0 4zm-85.14-342.4h81.74v74.17l-.03.27a40.87 40.87 0 1 1-81.74 0l.03-74.44z"/><path d="M309.3 744.42a42.92 42.92 0 0 1-42.87-42.87l.03-76.45h85.74l-.03 76.55a42.92 42.92 0 0 1-42.87 42.77zM270.45 629.1l-.02 72.45c0 21.43 17.44 38.87 38.87 38.87s38.87-17.44 38.87-38.87l.03-72.45h-77.75z"/><defs><path id="c" d="M190.57 515.51c1.61 0 3.2.1 4.76.28 14.6-50.4 61.08-87.25 116.18-87.25S413.1 465.4 427.69 515.8a42 42 0 1 1-5.48 82.45c-18.75 42.5-61.26 72.17-110.7 72.17-49.44 0-91.95-29.67-110.7-72.17a41.99 41.99 0 1 1-10.24-82.72z"/></defs><defs><path id="d" d="M311.5 672.41a123.06 123.06 0 0 1-111.84-71.86 44.04 44.04 0 0 1-53.08-43.04 44.04 44.04 0 0 1 47.3-43.87 123.9 123.9 0 0 1 43.14-61.96c21.55-16.45 47.3-25.14 74.49-25.14s52.94 8.7 74.5 25.14a123.9 123.9 0 0 1 43.12 61.96 44.04 44.04 0 0 1 47.3 43.86 44.04 44.04 0 0 1-53.07 43.05 123.05 123.05 0 0 1-111.85 71.86zM201.97 595.9l.68 1.54a119.05 119.05 0 0 0 108.87 70.98c47.11 0 89.85-27.86 108.87-70.98l.68-1.54 1.63.4a40.04 40.04 0 0 0 49.75-38.79 40.04 40.04 0 0 0-44.53-39.72l-1.68.18-.47-1.61a119.82 119.82 0 0 0-42.18-61.5c-20.86-15.9-45.78-24.3-72.07-24.3s-51.22 8.4-72.07 24.3a119.82 119.82 0 0 0-42.18 61.5l-.47 1.61-1.68-.18a40.04 40.04 0 0 0-44.53 39.73 40.04 40.04 0 0 0 49.75 38.78l1.63-.4z"/></defs><use xlink:href="#c" overflow="visible" fill="#2E9AFF"/><use xlink:href="#d" overflow="visible"/><path fill="#2E9AFF" d="m453.72 546.4-25.75 28"/><path d="M427.97 576.4a2 2 0 0 1-1.48-3.36l25.76-28a2 2 0 0 1 2.94 2.71l-25.75 28a2 2 0 0 1-1.47.65z"/><path fill="#2E9AFF" d="m174.32 546.4 25.75 28"/><path d="M200.07 576.4a2 2 0 0 1-1.47-.65l-25.76-28a2 2 0 0 1 2.95-2.7l25.75 28a2 2 0 0 1-1.47 3.35zm112.28 11.27a2 2 0 0 1-2-2v-23.23a2 2 0 0 1 4 0v23.23a2 2 0 0 1-2 2z"/><path fill="#2E9AFF" d="M368.33 543.64v38.31"/><path d="M368.33 583.95a2 2 0 0 1-2-2v-38.3a2 2 0 0 1 4 0v38.3a2 2 0 0 1-2 2z"/><path fill="#2E9AFF" d="m354.79 549.25 27.08 27.09"/><path d="M381.87 578.34a2 2 0 0 1-1.41-.59l-27.09-27.08a2 2 0 1 1 2.83-2.83l27.08 27.09a2 2 0 0 1-1.4 3.41z"/><path fill="#2E9AFF" d="M349.18 562.8h38.3"/><path d="M387.48 564.8h-38.3a2 2 0 0 1 0-4h38.3a2 2 0 0 1 0 4z"/><path fill="#2E9AFF" d="m354.79 576.34 27.08-27.09"/><path d="M354.79 578.34a2 2 0 0 1-1.41-3.41l27.08-27.1a2 2 0 1 1 2.83 2.84l-27.1 27.08c-.38.4-.9.6-1.4.6z"/><path fill="#2E9AFF" d="M261.35 543.64v38.31"/><path d="M261.35 583.95a2 2 0 0 1-2-2v-38.3a2 2 0 0 1 4 0v38.3a2 2 0 0 1-2 2z"/><path fill="#2E9AFF" d="m247.81 549.25 27.08 27.09"/><path d="M274.9 578.34a2 2 0 0 1-1.42-.59l-27.09-27.08a2 2 0 1 1 2.83-2.83l27.09 27.09a2 2 0 0 1-1.42 3.41z"/><path fill="#2E9AFF" d="M242.2 562.8h38.3"/><path d="M280.5 564.8h-38.3a2 2 0 0 1 0-4h38.3a2 2 0 0 1 0 4z"/><path fill="#2E9AFF" d="m247.81 576.34 27.08-27.09"/><path d="M247.8 578.34a2 2 0 0 1-1.41-3.41l27.09-27.1a2 2 0 1 1 2.83 2.84l-27.09 27.08a2 2 0 0 1-1.41.6zm44.57-61.17-13.95-39.91-15.15 39.91-66.6.68c0-19.6 32.64-88.34 118.6-88.34 75.29 0 109.73 72.64 111.2 88.44l-134.1-.78z"/><circle fill="#FFF" cx="312.18" cy="621.31" r="21.63"/><path fill="#2E9AFF" stroke="#000" stroke-width="4" stroke-miterlimit="10" d="m441.79 989.59-84.9-21.25-1.46 75.4 137.6 1.97a68.75 68.75 0 0 0-51.24-56.13z"/><path d="M279.96 1076.88h164.47l4.8-41.64H279.96z"/><path fill="none" stroke="#000" stroke-width="4" stroke-linecap="round" stroke-linejoin="round" stroke-miterlimit="10" d="M1071 1076.37H2.86"/><path d="M443.02 1076.88h437.76l39.05-337.87H482.06z"/><path fill="#2E9AFF" d="M610.77 951.4H766.8a22.93 22.93 0 0 0 22.92-22.92V902.4a22.93 22.93 0 0 0-22.92-22.93H610.77a22.93 22.93 0 0 0-22.93 22.93v26.08a22.93 22.93 0 0 0 22.93 22.93z"/><path fill="#FFF" d="M749.02 934.2c-7.25 0-10.85-6.07-11.74-9.28a2 2 0 0 1-.07-.54V897.8a2 2 0 0 1 4 0v26.29c.4 1.15 2.4 6.11 7.8 6.11s7.41-4.95 7.81-6.11V897.8a2 2 0 0 1 4 0v26.6a2 2 0 0 1-.07.53c-.9 3.2-4.48 9.27-11.73 9.27zm-120.47 0c-7.25 0-10.84-6.07-11.73-9.28a2 2 0 0 1-.07-.54V897.8a2 2 0 0 1 4 0v26.29c.39 1.15 2.4 6.11 7.8 6.11s7.4-4.95 7.8-6.11V897.8a2 2 0 0 1 4 0v26.6a2 2 0 0 1-.07.53c-.88 3.2-4.48 9.27-11.73 9.27z"/><circle fill="#FFF" cx="718.61" cy="911.42" r="4.82"/><circle fill="#FFF" cx="658.42" cy="911.42" r="4.82"/><path fill="#FFF" d="M680.48 915.5c0 4.9 5.73 13.54 8.88 13.54 2.83 0 8.9-8.64 8.9-13.55a8.9 8.9 0 1 0-17.78 0z"/><path fill="#FFF" d="M698.14 935.05c-2.59 0-6.87-1.2-9.74-8.25a2 2 0 0 1 3.7-1.5c2.78 6.8 6.49 5.81 6.9 5.67 1.04-.33 2.17.2 2.53 1.23a1.98 1.98 0 0 1-1.16 2.53c-.03.01-.9.32-2.23.32z"/><path fill="#FFF" d="M680.59 935.05c-1.32 0-2.2-.31-2.23-.32a2 2 0 0 1 1.37-3.76c.44.14 4.13 1.1 6.9-5.68a2 2 0 1 1 3.7 1.5c-2.87 7.06-7.15 8.26-9.74 8.26z"/></svg>