<svg xmlns="http://www.w3.org/2000/svg" width="1429.46" height="732.06" xml:space="preserve"><path fill="#FFF" d="M419.62 21h56.6v343.82h-56.6z"/><path fill="#2E9AFF" d="M692.58 256.9h667v393h-667z"/><path fill="#FFF" d="M1361.58 651.9h-671v-397h671v397zm-667-4h663v-389h-663v389z"/><path fill="#2E9AFF" d="M352.92 364.82h680.51v285.07H352.92z"/><path d="M1035.44 651.9H350.92V362.83h684.52V651.9zm-680.52-4h676.52V366.83H354.92V647.9z"/><path d="M647.78 330.99h88.04v35.83h-88.04zm256.47 0h88.04v35.83h-88.04z"/><path fill="#FFF" d="M391.4 397.27h88.04v29.41H391.4zm128.23 0h88.04v29.41h-88.04zm128.24 0h88.04v29.41h-88.04zm128.23 0h88.04v29.41H776.1zm128.23 0h88.04v29.41h-88.04zM731.58 472.8v117.1H652.2V472.8h79.4m4-4h-87.4v125.1h87.4V468.8zm-132.25 4v117.1h-79.39V472.8h79.39m4-4h-87.39v125.1h87.39V468.8zm252.47 4v117.1h-79.4V472.8h79.4m4-4h-87.4v125.1h87.4V468.8zm124.22 4v117.1h-79.38V472.8h79.38m4-4h-87.38v125.1h87.38V468.8z"/><path fill="#FFF" d="M689.89 470.48h4v121.14h-4z"/><path fill="#FFF" d="M650.57 549.95h82.56v4h-82.56zm0-40.72h82.56v4h-82.56zm-128.19 40.72h82.56v4h-82.56zm0-40.72h82.56v4h-82.56z"/><path fill="#FFF" d="M561.65 470.48h4v121.14h-4zm256.47 0h4v121.14h-4zm128.23 0h4v121.14h-4z"/><path fill="#FFF" d="M778.84 549.95h82.56v4h-82.56zm0-40.72h82.56v4h-82.56zm128.15 40.72h82.56v4h-82.56zm0-40.72h82.56v4h-82.56z"/><path d="M391.32 330.99h88.04v35.83h-88.04z"/><path fill="#2E9AFF" d="M67.34 533.61h476.2v116.28H67.34z"/><path d="M545.54 651.9H65.34V531.6h480.2v120.3zm-476.2-4h472.2V535.6H69.34v112.3zm.64-118.29 50.63-59.13h369.96l50.63 59.13z"/><path d="m489.64 472.48 47.21 55.13H74.32l47.21-55.13h368.11m1.85-4h-371.8L65.34 531.6h480.2l-54.05-63.13z"/><path d="M206.8 472.96h-45.88V409.9h45.87v63.06zm-41.88-4h37.87V413.9h-37.87v55.06z"/><path fill="#2E9AFF" d="M67.92 591.83h95v58h-95z"/><path d="M162.92 651.83h-95a2 2 0 0 1-2-2v-58c0-1.1.9-2 2-2h95a2 2 0 0 1 2 2v58a2 2 0 0 1-2 2zm-93-4h91v-54h-91v54z"/><path fill="#2E9AFF" d="M162.92 591.83h95v58h-95z"/><path d="M259.92 651.83h-99v-62h99v62zm-95-4h91v-54h-91v54z"/><path fill="#2E9AFF" d="M67.92 533.61h95v58h-95z"/><path d="M162.92 593.61h-95a2 2 0 0 1-2-2v-58c0-1.1.9-2 2-2h95a2 2 0 0 1 2 2v58a2 2 0 0 1-2 2zm-93-4h91v-54h-91v54z"/><path fill="#2E9AFF" d="M162.92 533.61h95v58h-95z"/><path d="M257.92 593.61h-95a2 2 0 0 1-2-2v-58c0-1.1.9-2 2-2h95a2 2 0 0 1 2 2v58a2 2 0 0 1-2 2zm-93-4h91v-54h-91v54z"/><path fill="#2E9AFF" d="M257.92 591.83h95v58h-95z"/><path d="M352.92 651.83h-95a2 2 0 0 1-2-2v-58c0-1.1.9-2 2-2h95a2 2 0 0 1 2 2v58a2 2 0 0 1-2 2zm-93-4h91v-54h-91v54z"/><path fill="#2E9AFF" d="M352.92 591.83h95v58h-95z"/><path d="M447.92 651.83h-95a2 2 0 0 1-2-2v-58c0-1.1.9-2 2-2h95a2 2 0 0 1 2 2v58a2 2 0 0 1-2 2zm-93-4h91v-54h-91v54z"/><path fill="#2E9AFF" d="M257.92 533.61h95v58h-95z"/><path d="M352.92 593.61h-95a2 2 0 0 1-2-2v-58c0-1.1.9-2 2-2h95a2 2 0 0 1 2 2v58a2 2 0 0 1-2 2zm-93-4h91v-54h-91v54z"/><path fill="#2E9AFF" d="M352.92 533.61h95v58h-95z"/><path d="M447.92 593.61h-95a2 2 0 0 1-2-2v-58c0-1.1.9-2 2-2h95a2 2 0 0 1 2 2v58a2 2 0 0 1-2 2zm-93-4h91v-54h-91v54z"/><path fill="#2E9AFF" d="M447.92 591.83h95v58h-95z"/><path d="M542.92 651.83h-95a2 2 0 0 1-2-2v-58c0-1.1.9-2 2-2h95a2 2 0 0 1 2 2v58a2 2 0 0 1-2 2zm-93-4h91v-54h-91v54z"/><path fill="#2E9AFF" d="M447.92 533.61h95v58h-95z"/><path d="M542.92 593.61h-95a2 2 0 0 1-2-2v-58c0-1.1.9-2 2-2h95a2 2 0 0 1 2 2v58a2 2 0 0 1-2 2zm-93-4h91v-54h-91v54z"/><path fill="#FFF" d="M886.58 258.9h-99v-62h99v62zm-95-4h91v-54h-91v54z"/><path fill="#FFF" d="M981.58 258.9h-99v-62h99v62zm-95-4h91v-54h-91v54z"/><path fill="#FFF" d="M1076.58 258.9h-99v-62h99v62zm-95-4h91v-54h-91v54z"/><path fill="#FFF" d="M1171.58 258.9h-99v-62h99v62zm-95-4h91v-54h-91v54z"/><path fill="#FFF" d="M1266.58 258.9h-99v-62h99v62zm-95-4h91v-54h-91v54z"/><path fill="#FFF" d="M1361.58 258.9h-99v-62h99v62zm-95-4h91v-54h-91v54zm-19.96 268.02h25.5V649.9h-25.5z"/><circle cx="1259.37" cy="541.48" r="52.71"/><circle cx="1259.37" cy="476.43" r="50.77"/><path d="M85.38 718.2c0-.85-.33-1.51-1-1.98a8.14 8.14 0 0 0-2.46-1.12c-.99-.28-2.06-.54-3.21-.78a18.51 18.51 0 0 1-3.2-.96 7.2 7.2 0 0 1-2.48-1.61c-.66-.68-1-1.63-1-2.86a4.9 4.9 0 0 1 2.4-4.37 7.96 7.96 0 0 1 2.52-1.04c.96-.23 1.96-.34 3-.34a14.75 14.75 0 0 1 8.03 2.15l-1.28 2.52c-.87-.48-1.82-.94-2.84-1.38a9.78 9.78 0 0 0-3.85-.65 8.4 8.4 0 0 0-1.73.18c-.57.12-1.09.3-1.55.54a3.1 3.1 0 0 0-1.12.93c-.28.4-.42.86-.42 1.42 0 .7.34 1.23 1 1.6.66.37 1.49.69 2.47.94.98.25 2.05.5 3.2.72 1.16.23 2.23.55 3.21.98.99.42 1.8 1 2.47 1.72.67.72 1 1.69 1 2.91 0 1.84-.73 3.36-2.18 4.56-1.45 1.2-3.63 1.8-6.53 1.8a15.54 15.54 0 0 1-7.03-1.78 8.49 8.49 0 0 1-1.52-1.02l1.6-2.6c.31.32.74.65 1.27.98a11.66 11.66 0 0 0 8.02 1.6c.63-.12 1.18-.3 1.66-.56.48-.26.85-.59 1.13-1 .28-.42.42-.92.42-1.5zm16.98 5.4v-13.31c0-.56-.02-1.1-.06-1.62a5.49 5.49 0 0 0-.28-1.4 2.24 2.24 0 0 0-.64-.98 1.63 1.63 0 0 0-1.1-.35c-.9 0-1.67.37-2.3 1.11a7.5 7.5 0 0 0-1.41 2.8v13.74h-3.04v-19.97h2.08l.6 2.44h.16c.26-.4.52-.78.78-1.14.25-.36.54-.68.87-.94a3.6 3.6 0 0 1 1.18-.62 5.68 5.68 0 0 1 2.96-.04 3.49 3.49 0 0 1 2.12 1.58c.26.43.44.94.52 1.56a8.42 8.42 0 0 1 2.05-2.44c.76-.58 1.8-.88 3.14-.88.88 0 1.6.15 2.14.44.54.3.97.71 1.28 1.26.3.55.52 1.2.64 1.96s.18 1.6.18 2.53v14.27h-3.04V710c0-.56-.03-1.08-.08-1.58a4.87 4.87 0 0 0-.3-1.3 2.16 2.16 0 0 0-.6-.88c-.25-.2-.6-.31-1.02-.31-.93 0-1.72.37-2.35 1.11a7.44 7.44 0 0 0-1.44 3.2v13.34h-3.04zm17.82-18.42c1.14-.67 2.44-1.15 3.87-1.44s2.85-.44 4.24-.44c1.36 0 2.47.21 3.34.64a5.43 5.43 0 0 1 3.03 3.97c.17.87.26 1.74.26 2.62 0 1.01-.03 2.1-.08 3.23-.05 1.15-.1 2.3-.12 3.44 0 1.33.08 2.6.24 3.8h2.68v2.6h-5.28l-.36-3h-.2c-.16.24-.4.55-.72.92a6.7 6.7 0 0 1-1.26 1.1 7.88 7.88 0 0 1-4.55 1.34c-1.98 0-3.54-.51-4.69-1.52s-1.72-2.4-1.72-4.16c0-1.36.3-2.49.9-3.4s1.46-1.6 2.59-2.07a11.9 11.9 0 0 1 4.06-.84 27.4 27.4 0 0 1 5.35.32c.14-1.23.16-2.25.06-3.06a4.2 4.2 0 0 0-.64-1.94 2.7 2.7 0 0 0-1.4-1.02 7.1 7.1 0 0 0-2.22-.3c-1.2 0-2.36.17-3.45.5-1.1.34-2.07.68-2.93 1.02l-1-2.31zm5.91 16.1a6.32 6.32 0 0 0 4.95-2.5c.33-.44.57-.86.73-1.26v-2.8a22.78 22.78 0 0 0-3.84-.36c-1.17 0-2.18.13-3.04.38s-1.51.65-2 1.18a3 3 0 0 0-.71 2.08c0 .88.3 1.64.9 2.3.6.65 1.6.98 3.01.98zm18.5-25.65h6.67v21.25c0 1.63.27 2.77.82 3.44.54.66 1.35 1 2.42 1 .74 0 1.45-.14 2.13-.4a9.45 9.45 0 0 0 2.26-1.36l1.44 2.2c-.43.37-.9.7-1.4 1a10.53 10.53 0 0 1-3.17 1.2 8.52 8.52 0 0 1-4.13-.22 4.5 4.5 0 0 1-1.94-1.23 5.42 5.42 0 0 1-1.19-2.21 12.4 12.4 0 0 1-.4-3.42V698.3h-3.51v-2.67zm23.97 0h6.67v21.25c0 1.63.27 2.77.82 3.44.54.66 1.35 1 2.42 1 .74 0 1.45-.14 2.13-.4a9.45 9.45 0 0 0 2.26-1.36l1.44 2.2a10.5 10.5 0 0 1-4.57 2.2 8.52 8.52 0 0 1-4.13-.22 4.5 4.5 0 0 1-1.94-1.23c-.52-.55-.92-1.3-1.19-2.21s-.4-2.06-.4-3.42V698.3h-3.51v-2.67zm483.59 14.97a29.75 29.75 0 0 0-.08-2.13 35.74 35.74 0 0 0-.24-2.26h-2.68v-2.6h5.35l.36 3.24h.2c.27-.45.62-.9 1.06-1.34a8.27 8.27 0 0 1 5.77-2.37c1.23 0 2.32.13 3.26.4.94.26 1.73.74 2.36 1.42a6.5 6.5 0 0 1 1.41 2.75c.32 1.16.48 2.63.48 4.42v11.46h-3.15v-10.84c0-2.2-.36-3.87-1.08-4.98-.71-1.12-2.01-1.68-3.9-1.68a5.1 5.1 0 0 0-2 .42 6.97 6.97 0 0 0-3.17 2.67c-.4.6-.7 1.23-.88 1.9v12.51h-3.07v-12.98zm22.53 3c0-3.22.84-5.77 2.52-7.65 1.68-1.87 4.08-2.81 7.2-2.81 1.67 0 3.11.27 4.33.82a8.53 8.53 0 0 1 4.79 5.53c.39 1.28.58 2.65.58 4.11 0 1.6-.21 3.05-.64 4.34a8.32 8.32 0 0 1-4.94 5.4c-1.2.49-2.59.73-4.13.73-1.65 0-3.1-.27-4.31-.82a8.43 8.43 0 0 1-4.82-5.53 14.2 14.2 0 0 1-.58-4.12zm3.32 0c0 .94.11 1.87.34 2.8s.59 1.77 1.1 2.52a5.7 5.7 0 0 0 1.97 1.8 6 6 0 0 0 2.96.68c2.13 0 3.73-.66 4.8-1.98s1.61-3.26 1.61-5.81c0-.96-.1-1.9-.33-2.82a7.53 7.53 0 0 0-1.12-2.5 5.91 5.91 0 0 0-1.99-1.8 6 6 0 0 0-2.97-.67c-2.12 0-3.72.65-4.78 1.95-1.06 1.3-1.6 3.25-1.6 5.84zm21.01 10v-2.68h5.4v-14.63H699v-2.67h7.48l.63 2.6h.2a13.9 13.9 0 0 1 3.04-2.12 8.51 8.51 0 0 1 4-.88c.9 0 1.63.17 2.17.52.55.35.98.85 1.28 1.52.3.66.51 1.47.62 2.41.1.95.16 2.02.16 3.22l-2.8.04c0-1.69-.17-2.93-.5-3.73a1.81 1.81 0 0 0-1.82-1.18 6.58 6.58 0 0 0-3.97 1.23c-.5.35-.91.7-1.26 1.04-.35.34-.6.63-.76.87v11.76h7.67v2.67H699zm31.8 0v-13.31c0-.56-.02-1.1-.06-1.62a5.58 5.58 0 0 0-.28-1.4 2.24 2.24 0 0 0-.64-.98 1.63 1.63 0 0 0-1.1-.35c-.9 0-1.67.37-2.3 1.11a7.46 7.46 0 0 0-1.41 2.8v13.74h-3.04v-19.97h2.08l.6 2.44h.16c.26-.4.52-.78.78-1.14.25-.36.54-.68.88-.94a3.7 3.7 0 0 1 1.18-.62 5.67 5.67 0 0 1 2.95-.04 3.49 3.49 0 0 1 2.12 1.58c.27.43.44.94.52 1.56a8.42 8.42 0 0 1 2.06-2.44c.76-.58 1.8-.88 3.13-.88.88 0 1.6.15 2.14.44.55.3.97.71 1.28 1.26.3.55.52 1.2.64 1.96s.18 1.6.18 2.53v14.27h-3.04V710c0-.56-.02-1.08-.08-1.58a4.87 4.87 0 0 0-.3-1.3 2.14 2.14 0 0 0-.6-.88c-.25-.2-.59-.31-1.01-.31a3 3 0 0 0-2.36 1.11 7.43 7.43 0 0 0-1.44 3.2v13.34h-3.04zm17.82-18.42a12.68 12.68 0 0 1 3.88-1.44c1.43-.3 2.85-.44 4.23-.44 1.36 0 2.47.21 3.34.64a5.42 5.42 0 0 1 3.03 3.97c.18.87.26 1.74.26 2.62a61 61 0 0 1-.08 3.23c-.05 1.15-.1 2.3-.12 3.44 0 1.33.08 2.6.24 3.8h2.68v2.6h-5.28l-.35-3h-.2a7.13 7.13 0 0 1-1.99 2.02 7.9 7.9 0 0 1-4.55 1.34c-1.97 0-3.53-.51-4.68-1.52s-1.73-2.4-1.73-4.16c0-1.36.3-2.49.9-3.4a5.7 5.7 0 0 1 2.59-2.07 11.9 11.9 0 0 1 4.07-.84 27.4 27.4 0 0 1 5.35.32c.13-1.23.15-2.25.06-3.06-.1-.81-.31-1.46-.65-1.94s-.8-.82-1.4-1.02c-.6-.2-1.34-.3-2.23-.3-1.2 0-2.35.17-3.44.5-1.1.34-2.07.68-2.93 1.02l-1-2.31zm5.91 16.1a6.32 6.32 0 0 0 4.95-2.5c.33-.44.57-.86.72-1.26v-2.8c-1.38-.24-2.66-.36-3.83-.36s-2.18.13-3.04.38-1.51.65-2 1.18a3 3 0 0 0-.71 2.08c0 .88.3 1.64.9 2.3.6.65 1.6.98 3.01.98zm18.5-25.65h6.67v21.25c0 1.63.27 2.77.82 3.44.55.66 1.35 1 2.42 1 .74 0 1.46-.14 2.14-.4a9.44 9.44 0 0 0 2.25-1.36l1.44 2.2a10.52 10.52 0 0 1-4.57 2.2 8.5 8.5 0 0 1-4.13-.22 4.5 4.5 0 0 1-1.94-1.23c-.52-.55-.91-1.3-1.18-2.21s-.4-2.06-.4-3.42V698.3h-3.52v-2.67zm471.44 0h6.68v21.25c0 1.63.27 2.77.81 3.44.55.66 1.36 1 2.42 1 .75 0 1.46-.14 2.14-.4s1.43-.72 2.26-1.36l1.44 2.2a10.45 10.45 0 0 1-4.57 2.2 8.52 8.52 0 0 1-4.13-.22 4.5 4.5 0 0 1-1.94-1.23c-.52-.55-.92-1.3-1.19-2.21s-.4-2.06-.4-3.42V698.3h-3.51v-2.67zm23.54 9.55a12.68 12.68 0 0 1 3.87-1.44 21.2 21.2 0 0 1 4.23-.44 7.5 7.5 0 0 1 3.34.64 5.44 5.44 0 0 1 3.04 3.97c.17.87.26 1.74.26 2.62 0 1.01-.03 2.1-.08 3.23-.06 1.15-.1 2.3-.12 3.44 0 1.33.08 2.6.24 3.8h2.68v2.6h-5.28l-.36-3h-.2c-.16.24-.4.55-.72.92a6.7 6.7 0 0 1-1.26 1.1 7.89 7.89 0 0 1-4.55 1.34c-1.98 0-3.54-.51-4.69-1.52s-1.72-2.4-1.72-4.16c0-1.36.3-2.49.9-3.4a5.7 5.7 0 0 1 2.58-2.07 11.9 11.9 0 0 1 4.07-.84c1.59-.08 3.37.03 5.35.32.13-1.23.15-2.25.06-3.06-.1-.81-.3-1.46-.64-1.94s-.8-.82-1.4-1.02c-.6-.2-1.34-.3-2.23-.3-1.2 0-2.35.17-3.44.5-1.1.34-2.07.68-2.93 1.02l-1-2.31zm5.9 16.1a6.28 6.28 0 0 0 5.67-3.76v-2.8a22.76 22.76 0 0 0-3.82-.36c-1.18 0-2.19.13-3.04.38-.85.26-1.52.65-2 1.18a3 3 0 0 0-.72 2.08c0 .88.3 1.64.9 2.3.6.65 1.6.98 3.02.98zm16.38 2.32v-2.68h5.4v-14.63h-5.4v-2.67h7.48l.64 2.6h.2a13.9 13.9 0 0 1 3.04-2.12 8.51 8.51 0 0 1 4-.88c.9 0 1.62.17 2.17.52.54.35.97.85 1.28 1.52.3.66.51 1.47.62 2.41.1.95.16 2.02.16 3.22l-2.8.04c0-1.69-.17-2.93-.5-3.73a1.82 1.82 0 0 0-1.82-1.18 6.59 6.59 0 0 0-3.97 1.23 9.43 9.43 0 0 0-2.02 1.91v11.76h7.67v2.67h-16.14zm42.28 1a7.2 7.2 0 0 1-.72 3.29 6.5 6.5 0 0 1-1.98 2.34 8.93 8.93 0 0 1-2.94 1.37c-1.12.31-2.33.46-3.64.46-1.57 0-2.94-.16-4.1-.48s-2.2-.73-3.05-1.23l1.52-2.84c.24.21.55.42.94.62a10.08 10.08 0 0 0 2.94.98 11.37 11.37 0 0 0 4.62-.16c.78-.21 1.42-.55 1.9-1s.82-1.04 1.03-1.76.32-1.6.32-2.64v-2.23h-.16a6.2 6.2 0 0 1-2.35 2.04c-.96.47-2.2.71-3.7.71-3.04 0-5.26-.84-6.68-2.53-1.42-1.7-2.13-4.32-2.13-7.9 0-3.4.9-5.98 2.71-7.72 1.81-1.75 4.5-2.62 8.07-2.62 1.65 0 3.06.11 4.22.34 1.16.23 2.22.52 3.17.86v20.1zm-8.91-3.2c1.61 0 2.88-.43 3.8-1.26.93-.84 1.58-2.13 1.95-3.86v-9.47c-1.16-.56-2.79-.84-4.88-.84-2.12 0-3.78.63-5 1.88-1.22 1.25-1.82 3.17-1.82 5.75 0 1.15.1 2.2.31 3.14a7.2 7.2 0 0 0 1.01 2.46 4.8 4.8 0 0 0 1.83 1.62 6.1 6.1 0 0 0 2.8.58zm33.07-.32a11.84 11.84 0 0 1-3.83 2.15 15.43 15.43 0 0 1-4.95.84c-1.6 0-3.01-.25-4.24-.74s-2.25-1.2-3.07-2.11c-.83-.92-1.45-2.02-1.88-3.3s-.64-2.72-.64-4.31c0-1.68.23-3.17.7-4.48a8.7 8.7 0 0 1 2.02-3.28 8.8 8.8 0 0 1 3.2-2.01 12.73 12.73 0 0 1 7.5-.26c1.1.3 2.06.84 2.9 1.65a7.95 7.95 0 0 1 1.94 3.36c.45 1.43.6 3.27.47 5.53h-15.42c0 2.4.65 4.2 1.94 5.38 1.29 1.18 3 1.77 5.16 1.77.71 0 1.42-.08 2.13-.26.7-.17 1.37-.38 2.01-.62a10.47 10.47 0 0 0 2.83-1.6l1.23 2.29zm-8.4-15.3c-.88 0-1.71.09-2.5.27-.78.2-1.47.5-2.06.94a5.13 5.13 0 0 0-1.48 1.72c-.38.7-.63 1.58-.73 2.62h12.38a6.15 6.15 0 0 0-1.7-4.1 5.37 5.37 0 0 0-3.92-1.46z" fill="#FFF"/><path d="M754.6 140.91a2 2 0 0 1-1.78-1.09L707.1 50.3l-45.71 89.52a2 2 0 0 1-3.57-1.81l47.5-93.02a2 2 0 0 1 3.56 0l47.5 93.02a2 2 0 0 1-1.77 2.9z"/><path fill="#FFF" d="M756.6 198.91h-99v-62h99v62zm-95-4h91v-54h-91v54zM709.11 45 467.12 63V21h241.99z"/><circle fill="#FFF" cx="447.92" cy="42" r="42"/><circle fill="#2E9AFF" cx="447.92" cy="43" r="14.9"/><path fill="#FFF" d="m1429.43 101.81.03-1.02a34.32 34.32 0 0 0-42.19-33.4 50.98 50.98 0 0 0-100.2-.9l-.95-.02a36.44 36.44 0 0 0-36.41 35.35h179.72zM.03 312.95c-.01-.34-.03-.67-.03-1.01a33.67 33.67 0 0 1 41.39-32.78 50.01 50.01 0 0 1 98.3-.87l.93-.02a35.75 35.75 0 0 1 35.73 34.68H.03z"/></svg>