<svg xmlns="http://www.w3.org/2000/svg" width="886.64" height="728.58" xml:space="preserve"><path fill="#FFF" d="M138.99 21h56.6v343.82h-56.6z"/><path fill="#2E9AFF" d="M394.32 253.41h490.32v393H394.32z"/><path fill="#FFF" d="M886.63 648.4h-494.3V251.42h494.3V648.4zm-490.32-3.98h486.34V255.4H396.31v389.02z"/><path fill="#2E9AFF" d="M140.29 361.34h425.76v285.07H140.29z"/><path d="M568.05 648.41H138.29V359.34h429.76V648.4zm-425.76-4h421.76V363.34H142.29V644.4z"/><path fill="#FFF" d="M180.92 393.78h88.04v29.41h-88.04zm128.23 0h88.04v29.41h-88.04zm128.23 0h88.04v29.41h-88.04zm-172.75 75.54v117.1h-79.39v-117.1h79.4m4-4h-87.4v125.1h87.4v-125.1zm124.23 4v117.1h-79.4v-117.1h79.4m4-4h-87.4v125.1h87.4v-125.1zm124.23 4v117.1h-79.4v-117.1h79.4m4-4h-87.4v125.1h87.4v-125.1z"/><path fill="#FFF" d="M222.94 466.99h4v121.14h-4z"/><path fill="#FFF" d="M183.62 546.46h82.56v4h-82.56zm0-40.71h82.56v4h-82.56zm167.55-38.76h4v121.14h-4zm128.23 0h4v121.14h-4z"/><path fill="#FFF" d="M311.89 546.46h82.56v4h-82.56zm0-40.71h82.56v4h-82.56zm128.15 40.71h82.56v4h-82.56zm0-40.71h82.56v4h-82.56z"/><path d="M181.24 327.5h88.04v35.83h-88.04zm256.08 0h88.04v35.83h-88.04zM4.35 526.13l50.63-59.14h83.26l50.63 59.14z"/><path d="m137.54 469 47.2 55.13H8.91l47.2-55.14h81.43m1.84-4h-85.1L.5 528.12h193.82L139.38 465z"/><path fill="#2E9AFF" d="M2.29 588.34h95v58h-95z"/><path d="M97.29 648.34h-97v-60c0-1.1.9-2 2-2h95a2 2 0 0 1 2 2v58a2 2 0 0 1-2 2zm-93-4h91v-54h-91v54z"/><path fill="#2E9AFF" d="M97.29 588.34h95v58h-95z"/><path d="M194.29 648.34h-99v-62h99v62zm-95-4h91v-54h-91v54z"/><path fill="#2E9AFF" d="M2.29 530.13h95v58h-95z"/><path d="M97.29 590.13h-95a2 2 0 0 1-2-2v-60h97a2 2 0 0 1 2 2v58a2 2 0 0 1-2 2zm-93-4h91v-54h-91v54z"/><path fill="#2E9AFF" d="M97.29 530.13h95v58h-95z"/><path d="M192.29 590.13h-95a2 2 0 0 1-2-2v-58c0-1.1.9-2 2-2h97v60a2 2 0 0 1-2 2zm-93-4h91v-54h-91v54z"/><path fill="#FFF" d="M601.64 255.41h-99v-62h99v62zm-95-4h91v-54h-91v54z"/><path fill="#FFF" d="M696.64 255.41h-99v-62h99v62zm-95-4h91v-54h-91v54z"/><path fill="#FFF" d="M791.64 255.41h-99v-62h99v62zm-95-4h91v-54h-91v54z"/><path fill="#FFF" d="M886.64 255.41h-99v-62h99v62zm-95-4h91v-54h-91v54zM757 505.58h28.28v140.83H757z"/><circle cx="771.14" cy="526.17" r="58.46"/><circle cx="771.14" cy="454.02" r="56.3"/><path d="M19.75 714.71c0-.85-.33-1.5-1-1.98s-1.48-.84-2.47-1.11a46.2 46.2 0 0 0-3.2-.78 18.26 18.26 0 0 1-3.21-.96c-.98-.4-1.8-.94-2.47-1.62-.66-.68-1-1.63-1-2.85a4.89 4.89 0 0 1 2.4-4.38c.72-.46 1.56-.81 2.52-1.04s1.95-.34 3-.34a14.73 14.73 0 0 1 8.02 2.16l-1.27 2.52a33.5 33.5 0 0 0-2.85-1.38 9.74 9.74 0 0 0-3.84-.66c-.59 0-1.16.06-1.73.18-.57.12-1.1.3-1.56.54a3.1 3.1 0 0 0-1.11.94c-.28.38-.42.86-.42 1.41 0 .7.33 1.23 1 1.6.66.38 1.48.7 2.47.94.98.26 2.05.5 3.2.72 1.16.23 2.23.56 3.2.98 1 .43 1.81 1 2.48 1.72.66.72 1 1.7 1 2.92 0 1.83-.73 3.35-2.18 4.55-1.46 1.2-3.63 1.8-6.54 1.8a15.78 15.78 0 0 1-7.03-1.78 8.54 8.54 0 0 1-1.51-1.02l1.59-2.6c.32.32.74.65 1.27.98a11.75 11.75 0 0 0 6.02 1.78c.72 0 1.39-.06 2.01-.18.63-.12 1.18-.3 1.65-.56a3 3 0 0 0 1.14-1c.28-.41.42-.91.42-1.5zm16.98 5.39v-13.3c0-.56-.02-1.1-.06-1.62a5.45 5.45 0 0 0-.28-1.4 2.26 2.26 0 0 0-.64-.97 1.64 1.64 0 0 0-1.1-.36c-.9 0-1.67.37-2.3 1.12a7.52 7.52 0 0 0-1.42 2.8v13.74H27.9v-19.98h2.07l.6 2.44h.16l.78-1.14c.25-.36.55-.67.88-.94.33-.27.73-.47 1.18-.62a5.69 5.69 0 0 1 2.96-.04 3.56 3.56 0 0 1 2.64 3.14 8.45 8.45 0 0 1 2.05-2.44c.76-.58 1.8-.88 3.14-.88.88 0 1.59.15 2.13.44.55.3.98.71 1.28 1.26s.52 1.2.64 1.96.18 1.6.18 2.53v14.27h-3.03v-13.59c0-.56-.03-1.08-.08-1.57a5.1 5.1 0 0 0-.3-1.3 2.17 2.17 0 0 0-.6-.88c-.25-.21-.6-.32-1.02-.32-.93 0-1.72.37-2.36 1.12a7.43 7.43 0 0 0-1.44 3.2v13.34h-3.03zm17.82-18.41a12.66 12.66 0 0 1 3.87-1.44c1.44-.3 2.85-.44 4.23-.44 1.36 0 2.48.22 3.34.64a5.43 5.43 0 0 1 3.04 3.97c.17.87.26 1.74.26 2.62 0 1.01-.03 2.1-.08 3.24-.06 1.14-.1 2.29-.12 3.43 0 1.34.08 2.6.24 3.8H72v2.6h-5.27l-.36-3h-.2c-.16.24-.4.55-.72.92a6.7 6.7 0 0 1-1.26 1.1 7.9 7.9 0 0 1-4.55 1.34c-1.98 0-3.54-.51-4.69-1.52a5.26 5.26 0 0 1-1.72-4.16c0-1.36.3-2.49.9-3.4.6-.9 1.46-1.6 2.58-2.07 1.13-.48 2.48-.76 4.07-.84 1.59-.08 3.37.03 5.35.32.13-1.23.15-2.24.06-3.06-.1-.81-.3-1.46-.64-1.94-.33-.48-.8-.81-1.4-1.01a7.1 7.1 0 0 0-2.23-.3c-1.2 0-2.35.16-3.45.5-1.1.33-2.07.67-2.92 1.01l-1-2.31zm5.9 16.1a6.3 6.3 0 0 0 5.67-3.75v-2.8c-1.38-.24-2.65-.36-3.83-.36s-2.18.12-3.03.38c-.85.25-1.52.64-2 1.17a2.99 2.99 0 0 0-.72 2.08c0 .88.3 1.65.9 2.3.6.65 1.6.98 3.02.98zm18.5-25.65h6.68v21.26c0 1.62.27 2.77.81 3.43.55.67 1.36 1 2.42 1 .75 0 1.46-.13 2.14-.4a9.48 9.48 0 0 0 2.26-1.36l1.43 2.2a10.4 10.4 0 0 1-6.05 2.36c-.98 0-1.87-.13-2.64-.38a4.53 4.53 0 0 1-1.95-1.22 5.43 5.43 0 0 1-1.18-2.22 12.4 12.4 0 0 1-.4-3.41v-18.58h-3.52v-2.68zm23.97 0h6.68v21.26c0 1.62.27 2.77.82 3.43s1.35 1 2.41 1c.75 0 1.46-.13 2.14-.4a9.46 9.46 0 0 0 2.26-1.36l1.43 2.2a10.33 10.33 0 0 1-6.05 2.36c-.98 0-1.87-.13-2.64-.38a4.51 4.51 0 0 1-1.94-1.22 5.44 5.44 0 0 1-1.19-2.22c-.27-.92-.4-2.06-.4-3.41v-18.58h-3.51v-2.68zm184.88 14.98a29.33 29.33 0 0 0-.08-2.13 35.99 35.99 0 0 0-.24-2.26h-2.67v-2.6h5.35l.36 3.24h.2c.27-.46.62-.9 1.06-1.34a8.24 8.24 0 0 1 5.77-2.38c1.23 0 2.31.14 3.26.4.94.27 1.73.74 2.35 1.42.63.68 1.1 1.6 1.42 2.76.32 1.15.48 2.63.48 4.41v11.47h-3.16v-10.85c0-2.2-.35-3.86-1.07-4.98-.72-1.11-2.02-1.67-3.9-1.67-.69 0-1.36.14-2.01.42a6.9 6.9 0 0 0-1.77 1.1c-.53.45-1 .97-1.4 1.57a6.4 6.4 0 0 0-.87 1.9v12.51h-3.08v-12.99zm22.54 3c0-3.22.84-5.77 2.51-7.65s4.08-2.82 7.2-2.82c1.67 0 3.12.28 4.33.82a8.54 8.54 0 0 1 4.8 5.53c.38 1.28.57 2.65.57 4.12 0 1.6-.21 3.04-.64 4.33a8.32 8.32 0 0 1-4.93 5.4c-1.22.49-2.6.73-4.14.73-1.65 0-3.09-.27-4.31-.81a8.42 8.42 0 0 1-4.82-5.54 14.18 14.18 0 0 1-.57-4.11zm3.31 0c0 .93.12 1.86.34 2.8a7.7 7.7 0 0 0 1.1 2.51 5.6 5.6 0 0 0 4.94 2.48c2.12 0 3.72-.66 4.8-1.98 1.07-1.31 1.6-3.25 1.6-5.81 0-.96-.1-1.9-.33-2.82a7.5 7.5 0 0 0-1.12-2.5A5.93 5.93 0 0 0 323 703a6 6 0 0 0-2.96-.67c-2.13 0-3.72.65-4.78 1.96-1.07 1.3-1.6 3.25-1.6 5.83zm21.02 9.98v-2.67h5.4V702.8h-5.4v-2.68h7.47l.64 2.6h.2a14.4 14.4 0 0 1 3.03-2.12 8.5 8.5 0 0 1 4-.88c.9 0 1.63.17 2.18.52s.97.85 1.27 1.52c.31.66.52 1.47.62 2.41.1.95.16 2.02.16 3.22l-2.8.04c0-1.69-.16-2.93-.5-3.73a1.82 1.82 0 0 0-1.81-1.18 6.6 6.6 0 0 0-3.97 1.23 9.44 9.44 0 0 0-2.02 1.91v11.76h7.67v2.67h-16.14zm31.8 0v-13.3c0-.56-.02-1.1-.06-1.62a5.49 5.49 0 0 0-.28-1.4 2.25 2.25 0 0 0-.64-.97 1.64 1.64 0 0 0-1.1-.36c-.9 0-1.68.37-2.3 1.12a7.52 7.52 0 0 0-1.42 2.8v13.74h-3.03v-19.98h2.07l.6 2.44h.16l.78-1.14c.25-.36.55-.67.88-.94.33-.27.73-.47 1.18-.62a5.69 5.69 0 0 1 2.96-.04 3.54 3.54 0 0 1 2.64 3.14 8.43 8.43 0 0 1 2.05-2.44c.76-.58 1.8-.88 3.14-.88.88 0 1.6.15 2.14.44.54.3.97.71 1.27 1.26.31.55.52 1.2.64 1.96s.18 1.6.18 2.53v14.27h-3.03v-13.59c0-.56-.03-1.08-.08-1.57a5.1 5.1 0 0 0-.3-1.3 2.16 2.16 0 0 0-.6-.88c-.25-.21-.6-.32-1.02-.32-.93 0-1.72.37-2.36 1.12a7.42 7.42 0 0 0-1.44 3.2v13.34h-3.03zm17.82-18.41a12.65 12.65 0 0 1 3.87-1.44c1.44-.3 2.85-.44 4.23-.44a7.6 7.6 0 0 1 3.34.64 5.42 5.42 0 0 1 3.03 3.97c.18.87.27 1.74.27 2.62 0 1.01-.03 2.1-.08 3.24-.06 1.14-.1 2.29-.12 3.43 0 1.34.08 2.6.24 3.8h2.67v2.6h-5.27l-.36-3h-.2c-.16.24-.4.55-.72.92a6.7 6.7 0 0 1-1.26 1.1 7.9 7.9 0 0 1-4.55 1.34c-1.98 0-3.54-.51-4.69-1.52a5.26 5.26 0 0 1-1.73-4.16c0-1.36.3-2.49.9-3.4.6-.9 1.47-1.6 2.6-2.07 1.11-.48 2.47-.76 4.06-.84 1.59-.08 3.37.03 5.35.32.13-1.23.15-2.24.06-3.06a4.2 4.2 0 0 0-.64-1.94 2.7 2.7 0 0 0-1.4-1.01c-.6-.2-1.35-.3-2.23-.3-1.2 0-2.35.16-3.45.5-1.1.33-2.07.67-2.92 1.01l-1-2.31zm5.9 16.1a6.3 6.3 0 0 0 5.67-3.75v-2.8c-1.38-.24-2.65-.36-3.83-.36s-2.18.12-3.03.38c-.85.25-1.52.64-2 1.17a2.99 2.99 0 0 0-.72 2.08c0 .88.3 1.65.9 2.3.6.65 1.6.98 3.02.98zm18.51-25.65h6.66v21.26c0 1.62.28 2.77.82 3.43.55.67 1.36 1 2.42 1 .75 0 1.46-.13 2.14-.4a9.5 9.5 0 0 0 2.26-1.36l1.43 2.2a10.44 10.44 0 0 1-4.57 2.2 8.54 8.54 0 0 1-4.13-.22 4.52 4.52 0 0 1-1.93-1.22 5.44 5.44 0 0 1-1.19-2.22 12.4 12.4 0 0 1-.4-3.41v-18.58h-3.51v-2.68zm360.84 0h6.67v21.26c0 1.62.28 2.77.82 3.43.55.67 1.36 1 2.42 1 .75 0 1.46-.13 2.14-.4a9.5 9.5 0 0 0 2.26-1.36l1.43 2.2c-.42.37-.9.7-1.4 1a10.5 10.5 0 0 1-3.16 1.2 8.54 8.54 0 0 1-4.13-.22 4.52 4.52 0 0 1-1.94-1.22 5.46 5.46 0 0 1-1.19-2.22 12.7 12.7 0 0 1-.4-3.41v-18.58h-3.51v-2.68zm23.53 9.55a12.67 12.67 0 0 1 3.88-1.44c1.44-.3 2.85-.44 4.23-.44 1.36 0 2.47.22 3.34.64a5.44 5.44 0 0 1 3.04 3.97c.17.87.26 1.74.26 2.62 0 1.01-.03 2.1-.08 3.24-.06 1.14-.1 2.29-.12 3.43 0 1.34.08 2.6.23 3.8h2.68v2.6h-5.27l-.36-3h-.2c-.16.24-.4.55-.72.92a6.7 6.7 0 0 1-1.26 1.1 7.95 7.95 0 0 1-4.55 1.34c-1.98 0-3.54-.51-4.7-1.52a5.27 5.27 0 0 1-1.71-4.16c0-1.36.3-2.49.9-3.4a5.7 5.7 0 0 1 2.58-2.07c1.13-.48 2.48-.76 4.07-.84 1.59-.08 3.37.03 5.35.32.13-1.23.15-2.24.06-3.06-.1-.81-.3-1.46-.64-1.94a2.7 2.7 0 0 0-1.4-1.01 7.1 7.1 0 0 0-2.23-.3c-1.2 0-2.35.16-3.45.5-1.1.33-2.07.67-2.92 1.01l-1-2.31zm5.92 16.1a6.28 6.28 0 0 0 5.67-3.75v-2.8c-1.38-.24-2.66-.36-3.84-.36s-2.18.12-3.03.38c-.85.25-1.52.64-2 1.17a3 3 0 0 0-.72 2.08c0 .88.3 1.65.9 2.3.6.65 1.6.98 3.02.98zm16.38 2.31v-2.67h5.39V702.8h-5.4v-2.68h7.48l.64 2.6h.2c.9-.83 1.91-1.53 3.03-2.12s2.45-.88 4-.88c.9 0 1.63.17 2.17.52.55.35.98.85 1.28 1.52.3.66.52 1.47.62 2.41.1.95.16 2.02.16 3.22l-2.8.04c0-1.69-.16-2.93-.5-3.73a1.82 1.82 0 0 0-1.81-1.18 6.62 6.62 0 0 0-3.98 1.23c-.49.35-.9.7-1.25 1.04-.35.34-.6.63-.76.87v11.76h7.67v2.67h-16.14zm42.26 1a7.2 7.2 0 0 1-.71 3.3 6.5 6.5 0 0 1-1.98 2.34c-.84.6-1.82 1.07-2.94 1.38s-2.33.46-3.64.46c-1.57 0-2.94-.16-4.11-.48s-2.19-.74-3.04-1.24l1.52-2.84c.23.21.55.42.93.62a12.34 12.34 0 0 0 2.95.98 11.36 11.36 0 0 0 4.62-.16c.78-.21 1.41-.55 1.9-1s.82-1.04 1.03-1.76c.21-.72.32-1.6.32-2.63v-2.24h-.16a6.2 6.2 0 0 1-2.35 2.04c-.96.48-2.2.72-3.71.72-3.03 0-5.25-.85-6.67-2.54-1.43-1.69-2.14-4.32-2.14-7.9 0-3.4.9-5.98 2.72-7.72 1.81-1.74 4.5-2.62 8.07-2.62 1.65 0 3.06.11 4.22.34 1.16.23 2.21.52 3.17.86v20.1zm-8.9-3.2c1.6 0 2.88-.41 3.8-1.25.93-.84 1.58-2.12 1.95-3.85v-9.47c-1.17-.57-2.8-.84-4.88-.84-2.12 0-3.79.62-5 1.87s-1.82 3.17-1.82 5.76c0 1.14.1 2.19.3 3.13a7.4 7.4 0 0 0 1.02 2.46 4.8 4.8 0 0 0 1.83 1.62c.75.38 1.68.58 2.8.58zm33.07-.31c-.47.42-1.04.82-1.7 1.2-.65.37-1.36.69-2.13.96a15.63 15.63 0 0 1-4.96.83c-1.6 0-3-.24-4.23-.73-1.23-.5-2.25-1.2-3.08-2.12s-1.45-2.02-1.87-3.3a13.6 13.6 0 0 1-.64-4.31c0-1.68.23-3.17.7-4.48.46-1.3 1.13-2.4 2.01-3.27s1.95-1.55 3.2-2.02 2.65-.7 4.2-.7c1.11 0 2.22.15 3.31.44 1.1.3 2.06.85 2.9 1.66a7.94 7.94 0 0 1 1.93 3.35c.46 1.43.62 3.27.48 5.53H866.5c0 2.4.65 4.2 1.94 5.38 1.28 1.19 3 1.78 5.16 1.78.71 0 1.42-.09 2.13-.26.7-.18 1.37-.38 2.01-.62a8.73 8.73 0 0 0 2.83-1.6l1.23 2.28zm-8.4-15.3c-.88 0-1.71.1-2.5.28a5.16 5.16 0 0 0-3.54 2.66 6.8 6.8 0 0 0-.73 2.61H879a6.15 6.15 0 0 0-1.7-4.1 5.4 5.4 0 0 0-3.92-1.45z" fill="#FFF"/><path d="M475.98 141.94a2 2 0 0 1-1.79-1.1l-45.72-89.52-45.72 89.52a2 2 0 0 1-3.56-1.81L426.7 46a2 2 0 0 1 3.56 0l47.5 93.02a2 2 0 0 1-1.77 2.9z"/><path fill="#FFF" d="M477.97 199.94h-99v-62h99v62zm-95-4h91v-54h-91v54zM428.47 45 186.49 63V21h241.98z"/><circle fill="#FFF" cx="167.29" cy="42" r="42"/><g fill="#2E9AFF"><circle cx="167.29" cy="42" r="19.9"/><path d="M167.3 62.37A20.39 20.39 0 0 1 146.92 42a20.39 20.39 0 0 1 20.36-20.36A20.39 20.39 0 0 1 187.66 42a20.4 20.4 0 0 1-20.37 20.37zm0-39.8A19.46 19.46 0 0 0 147.85 42a19.46 19.46 0 0 0 19.43 19.44A19.46 19.46 0 0 0 186.73 42a19.46 19.46 0 0 0-19.44-19.43z"/></g><path fill="#FFF" d="M639.5 115.93a28.65 28.65 0 0 1 35.19-28.74 42.55 42.55 0 0 1 83.63-.74c.27-.01.53-.03.8-.03a30.41 30.41 0 0 1 30.4 29.5H639.5z"/></svg>