<svg xmlns="http://www.w3.org/2000/svg" xmlns:xlink="http://www.w3.org/1999/xlink" xml:space="preserve" viewBox="0 0 1920 1080"><path fill="#FFF" d="M327.604 288.036zM344.957 288.991zM327.604 288.036z"/><path fill="#FFD829" d="M1779.564 397.299c0 227.915-184.634 412.744-412.548 412.986l-43.139.004c-24.033.002-43.517-19.48-43.517-43.513 0-24.032-19.482-43.513-43.513-43.513h-49.167c.316 2.197.488 4.44.488 6.724 0 25.879-20.979 46.858-46.858 46.858-15.835 0-29.826-7.863-38.308-19.889v89.492H1920V397.299h-140.436zm-146.977 406.297-59.204.083c-2.805 0-4.488-1.446-4.488-3.946l2.455-21.605 36.768.31 27.011 19.193s1.032.78 1.002 2.489c-.035 1.939-1.606 3.495-3.544 3.476zM272.818 818.9h-93.077c-52.327 0-94.747-42.421-94.747-94.748v-.028H0v123.185h272.818V818.9zM627.333 802.557c-57.294 13.691-114.838-21.656-128.529-78.95l-.115-.483H395.236c0 49.073-37.297 89.436-85.09 94.287v30.898H662.893v-44.397l31.976-17.493-67.536 16.138z"/><path fill="#FFD829" stroke="#000" stroke-miterlimit="10" d="M866.796 746.096v101.213h42.505v-111.37z"/><path fill="#FFF" d="m1277.706 515.613 5.115 21.407c13.156 55.057-20.932 110.552-75.989 123.709L625.404 799.667a103.203 103.203 0 0 1-23.948 2.835c-22.673 0-45.069-7.722-63.064-21.743-18.534-14.441-31.223-34.18-36.696-57.082l-5.115-21.407 781.125-186.657m2.96-4.82L491.76 699.31l6.045 25.297c11.7 48.96 55.425 81.895 103.651 81.895 8.208 0 16.545-.954 24.878-2.945l581.428-138.938c57.294-13.691 92.641-71.235 78.95-128.529l-6.046-25.297z"/><path d="m238.456 419.623 99.693-71.534 2.332 3.25-99.693 71.534z"/><path fill="#FFD829" d="M1044.648 497.051h-4V356.483c0-63.87-24.773-124.219-69.757-169.928-21.688-22.038-46.812-39.364-74.676-51.496-28.764-12.524-59.062-18.875-90.052-18.875H663.447c-35.178 0-68.335 16.217-90.97 44.493l-3.123-2.5c23.399-29.229 57.694-45.993 94.093-45.993h142.717c31.542 0 62.377 6.462 91.648 19.207 28.335 12.338 53.881 29.953 75.93 52.358 45.725 46.462 70.906 107.807 70.906 172.733v140.569z"/><path d="M1004.417 459.805a2 2 0 0 1-2-2v-12a2 2 0 0 1 4 0v12a2 2 0 0 1-2 2zm0-24a2 2 0 0 1-2-2v-12a2 2 0 0 1 4 0v12a2 2 0 0 1-2 2zm0-24a2 2 0 0 1-2-2v-12a2 2 0 0 1 4 0v12a2 2 0 0 1-2 2zm0-24a2 2 0 0 1-2-2v-12a2 2 0 0 1 4 0v12a2 2 0 0 1-2 2zm-.22-23.996a2 2 0 0 1-1.996-1.913 223.788 223.788 0 0 0-.834-11.857 1.999 1.999 0 0 1 1.797-2.184 1.997 1.997 0 0 1 2.184 1.797c.39 4.005.676 8.065.85 12.07a2 2 0 0 1-1.911 2.085l-.09.002zm-2.32-23.867c-.972 0-1.824-.71-1.975-1.7a221.907 221.907 0 0 0-2.095-11.701 2.001 2.001 0 0 1 3.918-.81 226.823 226.823 0 0 1 2.132 11.912 2 2 0 0 1-1.98 2.299zm-4.856-23.482a2.002 2.002 0 0 1-1.933-1.491 223.423 223.423 0 0 0-3.337-11.41 2.001 2.001 0 0 1 3.809-1.225 226.781 226.781 0 0 1 3.396 11.615 1.998 1.998 0 0 1-1.935 2.511zm-7.342-22.831a2 2 0 0 1-1.868-1.287 224.263 224.263 0 0 0-4.527-10.965 2.001 2.001 0 0 1 3.657-1.625 227.931 227.931 0 0 1 4.607 11.162 1.999 1.999 0 0 1-1.869 2.715zm-9.716-21.873a1.998 1.998 0 0 1-1.784-1.092 224.362 224.362 0 0 0-5.668-10.431 2 2 0 1 1 3.462-2.002 229.964 229.964 0 0 1 5.77 10.616 2 2 0 0 1-1.78 2.909zm-11.989-20.732a2 2 0 0 1-1.679-.909 223.113 223.113 0 0 0-6.74-9.777 2 2 0 0 1 3.232-2.357 228.53 228.53 0 0 1 6.861 9.953 2 2 0 0 1-1.674 3.09zm-14.117-19.358a1.994 1.994 0 0 1-1.552-.738 226.801 226.801 0 0 0-7.739-9.015 2 2 0 1 1 2.965-2.685 230.28 230.28 0 0 1 7.876 9.177 2 2 0 0 1-1.55 3.261zm-16.087-17.765c-.51 0-1.02-.193-1.41-.581a222.736 222.736 0 0 0-8.651-8.148 2 2 0 1 1 2.664-2.984 228.545 228.545 0 0 1 8.806 8.295 2 2 0 0 1-1.409 3.418zm-17.885-15.967c-.438 0-.88-.144-1.249-.439a222.245 222.245 0 0 0-9.473-7.18 2 2 0 1 1 2.331-3.252 227.164 227.164 0 0 1 9.644 7.311 2 2 0 0 1-1.253 3.56zm-348.926-7.327a2.002 2.002 0 0 1-1.561-3.25 101.547 101.547 0 0 1 8.214-9.065 2 2 0 0 1 2.798 2.858 97.174 97.174 0 0 0-7.889 8.707c-.394.494-.975.75-1.562.75zm329.431-6.637a2 2 0 0 1-1.073-.313 217.366 217.366 0 0 0-10.195-6.115 2 2 0 0 1 1.963-3.485 221.381 221.381 0 0 1 10.382 6.227 2 2 0 0 1-1.077 3.686zm-312.337-10.133a2 2 0 0 1-1.229-3.579 111.671 111.671 0 0 1 10.042-6.951 2 2 0 0 1 2.094 3.408 108.176 108.176 0 0 0-9.682 6.701 1.993 1.993 0 0 1-1.225.421zm291.436-1.636c-.297 0-.598-.065-.882-.206a215.25 215.25 0 0 0-10.809-4.956 2 2 0 0 1 1.565-3.682 218.926 218.926 0 0 1 11.011 5.05 2 2 0 0 1-.885 3.794zm-22.083-9.389c-.225 0-.454-.039-.678-.119a209.767 209.767 0 0 0-11.3-3.715 2 2 0 0 1 1.14-3.834 215.136 215.136 0 0 1 11.516 3.785 2 2 0 0 1-.678 3.883zm-248.951-1.526a2 2 0 0 1-.861-3.806 116.411 116.411 0 0 1 11.282-4.658 2.001 2.001 0 0 1 1.33 3.774 111.904 111.904 0 0 0-10.892 4.496 1.998 1.998 0 0 1-.859.194zm225.938-5.32c-.152 0-.307-.017-.461-.054a208.236 208.236 0 0 0-11.658-2.401 2 2 0 1 1 .694-3.939c3.959.698 7.957 1.521 11.883 2.448a2 2 0 0 1-.458 3.946zm-203.346-2.634a2 2 0 0 1-.459-3.946 112.549 112.549 0 0 1 12.019-2.162 1.999 1.999 0 1 1 .492 3.968 108.664 108.664 0 0 0-11.59 2.086 2.037 2.037 0 0 1-.462.054zm179.708-1.53c-.078 0-.156-.004-.235-.014-3.92-.459-7.901-.809-11.832-1.041a1.999 1.999 0 0 1-1.879-2.114c.065-1.103 1.006-1.962 2.114-1.878 4.007.236 8.065.593 12.062 1.061a2 2 0 0 1-.23 3.986zm-155.937-1.404a2 2 0 0 1-.02-4l1.179-.007h10.841a2 2 0 0 1 0 4l-11.98.007h-.02zm132.001-.006h-12a2 2 0 0 1 0-4h12a2 2 0 0 1 0 4zm-24 0h-12a2 2 0 0 1 0-4h12a2 2 0 0 1 0 4zm-24 0h-12a2 2 0 0 1 0-4h12a2 2 0 0 1 0 4zm-24 0h-12a2 2 0 0 1 0-4h12a2 2 0 0 1 0 4zm-24 0h-12a2 2 0 0 1 0-4h12a2 2 0 0 1 0 4z"/><path fill="#FFD829" d="M968.187 518.411h-4V387.004c0-53.82-20.808-104.654-58.59-143.136-37.526-38.222-86.739-59.271-138.572-59.271H648.518c-28.938 0-59.46 13.84-75.95 34.439l-3.123-2.5c17.208-21.496 48.986-35.939 79.073-35.939h118.506c52.916 0 103.142 21.475 141.427 60.468 38.521 39.234 59.736 91.063 59.736 145.938v131.408z"/><path d="M927.955 477.672a2 2 0 0 1-2-2v-12a2 2 0 0 1 4 0v12a2 2 0 0 1-2 2zm0-24a2 2 0 0 1-2-2v-12a2 2 0 0 1 4 0v12a2 2 0 0 1-2 2zm0-24a2 2 0 0 1-2-2v-12a2 2 0 0 1 4 0v12a2 2 0 0 1-2 2zm0-24a2 2 0 0 1-2-2v-.407c0-3.82-.116-7.677-.343-11.465a1.998 1.998 0 0 1 1.877-2.115 1.998 1.998 0 0 1 2.116 1.877c.231 3.866.349 7.804.35 11.703v.407a2 2 0 0 1-2 2zm-1.439-23.938a1.999 1.999 0 0 1-1.982-1.756 188.977 188.977 0 0 0-1.82-11.729 2 2 0 1 1 3.932-.738 192.408 192.408 0 0 1 1.858 11.979 1.999 1.999 0 0 1-1.988 2.244zm-4.424-23.569a2 2 0 0 1-1.937-1.507 187.084 187.084 0 0 0-3.289-11.399 2 2 0 1 1 3.806-1.231 190.926 190.926 0 0 1 3.36 11.644 2.002 2.002 0 0 1-1.94 2.493zm-7.375-22.808a2 2 0 0 1-1.86-1.266 185.934 185.934 0 0 0-4.717-10.888 2 2 0 0 1 3.618-1.707 190.664 190.664 0 0 1 4.818 11.123 2.001 2.001 0 0 1-1.859 2.738zm-10.231-21.686a1.997 1.997 0 0 1-1.752-1.032 184.594 184.594 0 0 0-6.072-10.195 2.001 2.001 0 0 1 3.369-2.157 189.999 189.999 0 0 1 6.204 10.416 2 2 0 0 1-1.749 2.968zm-12.926-20.196a1.997 1.997 0 0 1-1.613-.815 184.663 184.663 0 0 0-7.333-9.33 2 2 0 1 1 3.064-2.572 188.487 188.487 0 0 1 7.492 9.533 2 2 0 0 1-1.61 3.184zm-15.422-18.365a1.993 1.993 0 0 1-1.445-.617 183.358 183.358 0 0 0-8.479-8.301 2 2 0 1 1 2.703-2.947 186.353 186.353 0 0 1 8.666 8.482 2 2 0 0 1-1.445 3.383zm-17.679-16.202c-.439 0-.881-.144-1.25-.44a179.837 179.837 0 0 0-9.495-7.115 2 2 0 0 1 2.292-3.279 184.978 184.978 0 0 1 9.706 7.275 2 2 0 0 1-1.253 3.559zm-19.658-13.736c-.352 0-.708-.093-1.032-.288a177.59 177.59 0 0 0-10.355-5.787 1.999 1.999 0 1 1 1.833-3.554 180.561 180.561 0 0 1 10.59 5.918 1.999 1.999 0 0 1-1.036 3.711zM571.05 248.967a2.002 2.002 0 0 1-1.561-3.25c2.447-3.057 5.38-6.016 8.717-8.794a2 2 0 0 1 2.56 3.074c-3.131 2.606-5.874 5.372-8.153 8.22-.395.493-.976.75-1.563.75zm18.228-15.432a1.999 1.999 0 0 1-1.035-3.712 99.69 99.69 0 0 1 10.856-5.649 2 2 0 0 1 1.63 3.653 95.855 95.855 0 0 0-10.42 5.421 1.997 1.997 0 0 1-1.031.287zm21.85-9.802a2.001 2.001 0 0 1-.607-3.907 111.356 111.356 0 0 1 11.827-3.069 2 2 0 1 1 .788 3.921 107.482 107.482 0 0 0-11.4 2.958 1.95 1.95 0 0 1-.608.097zm23.494-4.677a2 2 0 0 1-.15-3.994 86.62 86.62 0 0 1 6.582-.257h5.565a2 2 0 0 1 0 4h-5.565c-2.033 0-4.146.082-6.277.245a2.067 2.067 0 0 1-.155.006zm73.443-.251h-1.447a2 2 0 0 1 0-4h1.447a2 2 0 0 1 0 4zm-13.447 0h-12a2 2 0 0 1 0-4h12a2 2 0 0 1 0 4zm-24 0h-12a2 2 0 0 1 0-4h12a2 2 0 0 1 0 4z"/><path fill="#FFD829" d="M891.724 486.101h-4v-68.575c0-42.627-16.092-83.165-45.311-114.146l2.91-2.744c29.922 31.726 46.401 73.238 46.401 116.89v68.575zM572.659 277.396l-3.123-2.5c12.799-15.988 43.213-25.885 64.053-25.885h65.312v4h-65.312c-25.578 0-51.542 12.657-60.93 24.385z"/><path d="M697.4 287.218h-12a2 2 0 0 1 0-4h12a2 2 0 0 1 0 4zm-24 0h-12a2 2 0 0 1 0-4h12a2 2 0 0 1 0 4zm-24 0h-12a2 2 0 0 1 0-4h12a2 2 0 0 1 0 4zm-24 0h-12a2 2 0 0 1 0-4h12a2 2 0 0 1 0 4zm-24 0h-12a2 2 0 0 1 0-4h12a2 2 0 0 1 0 4z"/><path fill="#FFD829" d="M714.328 326.128a117.18 117.18 0 0 0-32.867-4.704h-106.27v-4h106.27c11.503 0 22.939 1.637 33.989 4.864l-1.122 3.84z"/><path d="M730.255 388.455a1.995 1.995 0 0 1-1.449-.621 107.22 107.22 0 0 0-8.574-8.067 2 2 0 0 1 2.576-3.06c3.1 2.61 6.093 5.427 8.895 8.37a2 2 0 0 1-1.448 3.378zm-18.326-15.42c-.381 0-.767-.108-1.108-.336a103.696 103.696 0 0 0-10.143-5.963 2 2 0 0 1 1.827-3.558 108.357 108.357 0 0 1 10.535 6.193 2 2 0 0 1-1.111 3.664zm-21.304-10.931c-.233 0-.471-.042-.702-.128a100.209 100.209 0 0 0-11.233-3.476 2 2 0 0 1-1.464-2.42 1.999 1.999 0 0 1 2.419-1.465c3.945.971 7.876 2.187 11.683 3.614a2 2 0 0 1-.703 3.875zm-23.252-5.713a2.06 2.06 0 0 1-.247-.015 99.587 99.587 0 0 0-11.734-.744 2 2 0 0 1 .009-4h.009c4.075.018 8.181.278 12.206.773a2 2 0 0 1-.243 3.986zm-23.973-.76h-12a2 2 0 0 1 0-4h12a2 2 0 0 1 0 4zm-24 0h-12a2 2 0 0 1 0-4h12a2 2 0 0 1 0 4zm-24 0h-12a2 2 0 0 1 0-4h12a2 2 0 0 1 0 4z"/><path fill="#FFD829" d="M720.322 539.772h-4V476.52c0-48.926-38.219-88.729-85.196-88.729h-35.853v-4h35.853c49.183 0 89.196 41.599 89.196 92.729v63.252z"/><path d="M706.229 818.704c-8.141 1.945-13.163 10.122-11.218 18.263 1.945 8.141 10.122 13.163 18.263 11.218 8.141-1.945 13.163-10.122 11.218-18.263-1.946-8.141-10.123-13.163-18.263-11.218zM1137.788 716.108c-8.141 1.945-13.163 10.122-11.218 18.262 1.945 8.141 10.122 13.163 18.263 11.218 8.141-1.945 13.163-10.122 11.218-18.262-1.946-8.141-10.123-13.163-18.263-11.218zM1280.666 510.793c-13.691-57.294-71.235-92.641-128.529-78.95l-69.349 16.572V338.366c0-71.727-27.933-139.161-78.651-189.88-50.718-50.719-118.152-78.65-189.879-78.65H666.445c-37.761 0-73.239 14.728-99.899 41.469-26.66 26.742-41.279 62.266-41.164 100.026l.652 212.589h99.974c25.491 0 46.229 20.738 46.229 46.229v75.894h2.002L570.71 570.782c-57.294 13.691-92.641 71.235-78.95 128.529 13.691 57.294 71.235 92.641 128.529 78.95l153.121-36.59a21.33 21.33 0 0 0 7.455-1.781l25.872-6.182 2.398 9.779c.097.661.214 1.275.358 1.884.026.105 3.184 12.453 3.427 13.19.043.133.1.258.167.375l.026.1c.018.068.04.136.064.201 3.817 10.097 14.614 15.809 25.116 13.295 7.146-1.719 12.683-6.896 15.118-13.41.242.964.393 1.562.413 1.647a21.366 21.366 0 0 0 9.679 13.312 21.353 21.353 0 0 0 11.187 3.173c1.688 0 3.388-.2 5.071-.605 10.939-2.634 18.014-14.142 15.937-25.521l-.002-.075a21.738 21.738 0 0 0 2.912 2.133 21.355 21.355 0 0 0 16.259 2.568c11.011-2.644 18.097-13.454 16.132-24.611a1.704 1.704 0 0 0-.026-.124l-.476-1.967c5.077 4.438 12.158 6.438 19.198 4.746 11.34-2.726 18.421-14.022 16.021-25.36a1.97 1.97 0 0 0-.054-.631l-2.81-11.403 238.865-57.079c57.293-13.694 92.64-71.238 78.949-128.532zM837.359 768.641c-8.514 2.048-17.266-2.567-20.404-10.724l-2.916-11.15a2.01 2.01 0 0 0-.179-.452 435.61 435.61 0 0 1-.478-1.878 18.22 18.22 0 0 1-.303-1.617 1.828 1.828 0 0 0-.038-.193l-2.415-9.849 34.018-8.129 3.438 13.964 2.587 11.217c.908 8.689-4.798 16.764-13.31 18.811zm41.466 4.117a17.371 17.371 0 0 1-13.232-2.09 17.392 17.392 0 0 1-7.88-10.84c-.033-.136-.375-1.497-.889-3.538-1.499-5.956-5.48-21.779-5.653-22.622a1.901 1.901 0 0 0-.038-.197l-2.417-9.796 34.043-8.135 2.843 11.535 5.925 23.649c.008.044.017.089.027.133 2.319 9.653-3.512 19.681-12.729 21.901zm35.107-20.896a17.369 17.369 0 0 1-13.235-2.091 17.395 17.395 0 0 1-7.878-10.849l-.384-1.542c-.751-3.003-3.036-12.142-3.172-12.856a1.624 1.624 0 0 0-.04-.208l-2.404-9.746 34.037-8.134 3.124 12.681 3.09 12.776c1.563 9.059-4.198 17.823-13.138 19.969zm34.828-21.956c-9.383 2.254-18.853-3.545-21.11-12.918a18.504 18.504 0 0 1-.301-1.624 1.833 1.833 0 0 0-.038-.196l-2.393-9.702 34.043-8.135 2.673 10.846a1.978 1.978 0 0 0 .09.737c2.177 9.346-3.616 18.745-12.964 20.992zm-55.404-236.224-.004-.016-1.968.487-215.148 51.412v-75.416c0-27.696-22.532-50.229-50.229-50.229H530.02l-.639-208.601c-.112-36.69 14.092-71.206 39.997-97.19 25.904-25.983 60.376-40.293 97.066-40.293h147.813c70.659 0 137.088 27.516 187.051 77.479 49.964 49.963 77.479 116.393 77.479 187.051V449.37l-185.431 44.312z"/><path fill="#FFF" d="M344.286 116.544c19.337-26.759 48.72-46.295 83.812-52.423 23.081-4.032 45.804-1.767 66.413 5.553a36.93 36.93 0 0 0-1.27-12.016c-4.916-17.866-22.125-29.049-39.981-26.93-10.622-23.104-36.704-35.787-62.02-28.821-25.573 7.037-41.561 31.7-38.459 57.262-14.255 8.206-21.753 25.273-17.186 41.869a36.811 36.811 0 0 0 8.691 15.506z"/><defs><path id="a" d="M605.446 161.432c-2.036.017-4.04.16-6.015.397-18.943-63.525-78.049-109.615-147.662-109.056-69.618.557-127.982 47.587-145.906 111.407a53.552 53.552 0 0 0-6.012-.299c-29.303.231-52.866 24.178-52.632 53.48.234 29.304 24.18 52.865 53.48 52.63a53.15 53.15 0 0 0 12.923-1.7c24.121 53.51 78.122 90.57 140.591 90.071 62.467-.502 115.868-38.421 139.13-92.312a53.235 53.235 0 0 0 12.952 1.492c29.3-.233 52.861-24.176 52.627-53.478-.235-29.303-24.176-52.867-53.476-52.632z"/></defs><defs><path id="b" d="M452.988 360.367c-60.277.003-115.142-35.061-140.498-89.743a55.294 55.294 0 0 1-11.774 1.367l-.453.002c-14.539 0-28.232-5.605-38.607-15.814-10.482-10.315-16.32-24.095-16.438-38.802-.117-14.706 5.499-28.578 15.814-39.06 10.316-10.482 24.096-16.319 38.802-16.436a55.56 55.56 0 0 1 4.561.158c9.08-31.001 28.141-58.959 53.809-78.867 26.975-20.923 59.323-32.127 93.547-32.4 34.209-.253 66.744 10.41 94.049 30.897 25.983 19.496 45.488 47.143 55.062 77.996a54.839 54.839 0 0 1 4.566-.234h.001l.447-.002c30.153 0 54.803 24.408 55.045 54.618.117 14.706-5.499 28.577-15.813 39.059s-24.093 16.318-38.798 16.436a55.55 55.55 0 0 1-11.798-1.178c-24.643 55.457-79.522 91.51-140.284 91.998-.41.003-.829.005-1.24.005zm-138.235-94.435.693 1.537c24.558 54.478 79.031 89.352 138.751 88.894 59.731-.479 113.629-36.241 137.31-91.105l.668-1.547 1.638.396a51.968 51.968 0 0 0 12.466 1.437c13.636-.108 26.414-5.521 35.979-15.241 9.565-9.72 14.773-22.584 14.664-36.222-.225-28.013-23.085-50.649-51.045-50.649l-.415.002h.001a52.623 52.623 0 0 0-5.793.383l-1.674.201-.481-1.615c-9.148-30.677-28.366-58.211-54.114-77.531-26.597-19.956-58.295-30.335-91.616-30.097-33.341.267-64.852 11.18-91.128 31.561-25.437 19.729-44.212 47.568-52.868 78.389l-.456 1.623-1.678-.175a53.503 53.503 0 0 0-5.786-.288c-13.64.107-26.419 5.521-35.985 15.241s-14.774 22.584-14.665 36.223c.109 13.638 5.522 26.416 15.243 35.981 9.62 9.467 22.321 14.666 35.801 14.666l.42-.002a51.258 51.258 0 0 0 12.437-1.636l1.633-.426z"/></defs><use xlink:href="#a" fill="#FFD829" overflow="visible"/><use xlink:href="#b" overflow="visible"/><clipPath id="c"><use xlink:href="#a" overflow="visible"/></clipPath><use xlink:href="#a" fill="none" stroke="#000" stroke-miterlimit="10" overflow="visible"/><path d="M306.104 240.229a1.99 1.99 0 0 1-1.461-.635l-32.821-35.113a2 2 0 1 1 2.922-2.73l32.821 35.113a2 2 0 0 1-1.461 3.365zM601.265 237.923a2 2 0 0 1-1.483-3.342l32.255-35.638a2 2 0 0 1 2.966 2.683l-32.255 35.638a1.99 1.99 0 0 1-1.483.659zM430.607 218.181a50.822 50.822 0 0 0-45.997-11.359c-16.256 4.029-29.476 15.814-35.364 31.525a2.001 2.001 0 0 0 3.746 1.404c5.425-14.477 17.604-25.335 32.58-29.047.624-.155 1.251-.276 1.877-.404a20.041 20.041 0 0 0-4.259 9.079c-2.065 10.944 5.131 21.486 16.073 23.549 10.937 2.062 21.485-5.132 23.55-16.073a20.05 20.05 0 0 0-.684-10.071 46.958 46.958 0 0 1 5.821 4.387c.824.733 2.089.66 2.823-.167.735-.825.66-2.09-.166-2.823zM555.641 238.347c-5.888-15.711-19.107-27.496-35.364-31.525a50.832 50.832 0 0 0-45.997 11.359 1.999 1.999 0 1 0 2.656 2.99 46.864 46.864 0 0 1 26.346-11.578 20.095 20.095 0 0 0-3.744 5.833c-4.31 10.267.522 22.084 10.784 26.395 10.265 4.312 22.082-.515 26.393-10.783a20.045 20.045 0 0 0 1.347-10.79 46.868 46.868 0 0 1 13.832 19.503 2.001 2.001 0 0 0 3.747-1.404zM452.295 247.753a2.001 2.001 0 0 1-2-1.98l-.236-23.806a2 2 0 0 1 1.98-2.02h.021c1.095 0 1.989.883 2 1.98l.236 23.806a2 2 0 0 1-1.98 2.02h-.021z"/><path fill="#FFF" d="M453.185 642.603c42.101-.001 80.172-17.215 107.577-44.984 1.832-1.533 3.801-3.524 5.984-5.987a176.402 176.402 0 0 0 4.758-5.6c14.006-17.206 21.924-38.558 22.633-60.732l5.899-361.021a6.048 6.048 0 0 0-6.022-6.618 6.048 6.048 0 0 0-5.545 3.632l-35.793 103.7c-10.551 23.827-41.969 29.323-59.908 10.422a40.827 40.827 0 0 1-.351-.373c-9.349-11.262-23.45-18.439-39.232-18.439-15.485 0-29.33 6.93-38.678 17.83-.34.374-.684.743-1.033 1.109-17.932 18.804-49.297 13.092-59.761-10.691l-35.499-103.558a6.049 6.049 0 0 0-11.567 2.986l6.125 362.267c.783 23.76 9.85 46.511 25.695 64.234.189.212.38.424.572.637 1.16 1.284 3.037 3.357 4.081 4.39 27.561 29.226 66.721 46.795 110.062 46.795h.001m21.219-316.473h-42.093c-10.909 0-18.636-10.653-15.25-21.023l3.123-9.564a25.182 25.182 0 0 1 23.939-17.365h18.469a25.184 25.184 0 0 1 23.939 17.365l3.123 9.564c3.386 10.37-4.341 21.023-15.25 21.023z"/><path d="M468.095 291.354c-.471 0-.944-.165-1.324-.502a20.225 20.225 0 0 0-13.416-5.08c-4.792 0-9.44 1.704-13.089 4.797a2 2 0 0 1-2.587-3.05 24.27 24.27 0 0 1 15.676-5.746 24.224 24.224 0 0 1 16.066 6.084 1.998 1.998 0 0 1-1.326 3.497z"/><circle cx="380.242" cy="124.163" r="7.453" fill="#FFF"/><circle cx="397.652" cy="98.187" r="7.453" fill="#FFF"/><circle cx="416.218" cy="124.163" r="7.453" fill="#FFF"/><path d="M715.909 326.64a2 2 0 0 1-.456-3.947l11.681-2.749a2.001 2.001 0 0 1 .916 3.894l-11.681 2.749a2.018 2.018 0 0 1-.46.053zm23.362-5.498a1.999 1.999 0 0 1-.457-3.947l11.681-2.75a2 2 0 0 1 .917 3.894l-11.681 2.75a2.018 2.018 0 0 1-.46.053zm23.362-5.499a2 2 0 0 1-.456-3.947l11.681-2.749a2.001 2.001 0 0 1 .916 3.894l-11.681 2.749a2.03 2.03 0 0 1-.46.053zm23.362-5.498a2 2 0 0 1-.456-3.947l11.681-2.749a2.001 2.001 0 0 1 .916 3.894l-11.681 2.749a2.03 2.03 0 0 1-.46.053zm23.361-5.499a1.999 1.999 0 0 1-.457-3.946l11.681-2.75a1.995 1.995 0 0 1 2.405 1.488 1.999 1.999 0 0 1-1.488 2.404l-11.681 2.75a1.913 1.913 0 0 1-.46.054zm23.362-5.499a2 2 0 0 1-.456-3.947l9.744-2.293a2.001 2.001 0 0 1 .916 3.894l-9.744 2.293a1.975 1.975 0 0 1-.46.053z"/><path fill="#FFD829" d="m727.239 279.641-27.414-15.912 2.008-3.458 24.146 14.012 16.4-24.889 25.781 14.962 16.402-24.889 25.783 14.962 15.365-23.314 3.34 2.201-17.444 26.468-25.784-14.962-16.402 24.892-25.78-14.963zM752.71 384.994l-27.415-15.911 2.008-3.459 24.146 14.013 16.401-24.89 25.78 14.962 16.402-24.889 25.784 14.961 15.365-23.313 3.34 2.201-17.444 26.468-25.784-14.961-16.402 24.89-25.78-14.962z"/><path d="m741.113 429.929-.762-3.931 11.681-2.749a2 2 0 0 1 .916 3.894l-11.681 2.749a2.018 2.018 0 0 1-.46.053m23.362-5.498a2 2 0 0 1-.456-3.947l11.681-2.749a2.006 2.006 0 0 1 2.405 1.489 2.001 2.001 0 0 1-1.489 2.405l-11.681 2.749a1.963 1.963 0 0 1-.46.053zm23.362-5.498a2 2 0 0 1-.456-3.947l11.681-2.749a2 2 0 1 1 .916 3.894l-11.681 2.749a1.963 1.963 0 0 1-.46.053zm23.361-5.499a2 2 0 0 1-.456-3.947l11.681-2.749a2.001 2.001 0 0 1 .916 3.894l-11.681 2.749a1.963 1.963 0 0 1-.46.053zm23.362-5.498a2 2 0 0 1-.456-3.947l11.681-2.749a2.004 2.004 0 0 1 2.405 1.489 2.001 2.001 0 0 1-1.489 2.405l-11.681 2.749a1.963 1.963 0 0 1-.46.053zm23.362-5.498a2 2 0 0 1-.456-3.947l9.743-2.293a2.001 2.001 0 0 1 .916 3.894l-9.743 2.293a1.963 1.963 0 0 1-.46.053z"/><path fill="#FFD829" d="m777.252 484.321-27.155-16.156 2.045-3.437 23.885 14.21 16.431-24.735 25.521 15.183 16.433-24.736 25.524 15.182 15.382-23.151 3.332 2.213-17.488 26.321-25.525-15.182-16.432 24.736-25.521-15.183z"/><path d="M765.77 528.259a2 2 0 0 1-1.939-1.517L698.888 266.09c-4.319-17.419-1.585-35.468 7.698-50.824 9.282-15.356 23.992-26.166 41.42-30.438 35.894-8.8 72.267 13.242 81.081 49.133l64.744 261.68a2.003 2.003 0 0 1-1.477 2.426l-126.118 30.137a1.964 1.964 0 0 1-.466.055zm-1.807-341.364a62.95 62.95 0 0 0-15.005 1.819c-16.388 4.018-30.22 14.182-38.949 28.622s-11.299 31.412-7.239 47.79l64.464 258.728 122.23-29.208-64.261-259.727-.001-.004c-7.055-28.727-32.892-48.02-61.239-48.02z"/><path fill="#FFD829" stroke="#000" stroke-miterlimit="10" d="M150.673 457.428h147.676v53.365H150.673z"/><path d="M298.349 512.793H150.673a2 2 0 0 1-2-2v-53.365a2 2 0 0 1 2-2h147.676a2 2 0 0 1 2 2v53.365a2 2 0 0 1-2 2zm-145.676-4h143.676v-49.365H152.673v49.365z"/><path fill="#FFD829" stroke="#000" stroke-miterlimit="10" d="M187.592 431.513v17.683c0 10.009 7.783 18.534 17.786 18.89 10.502.373 19.133-8.029 19.133-18.447v-18.125c0-10.195-8.265-18.459-18.459-18.459-10.196-.002-18.46 8.263-18.46 18.458z"/><path d="M206.059 470.098c-.25 0-.5-.004-.752-.013-10.871-.388-19.715-9.759-19.715-20.89v-17.683c0-11.281 9.178-20.459 20.459-20.459s20.459 9.178 20.459 20.459v18.126c0 5.603-2.221 10.831-6.253 14.723a20.287 20.287 0 0 1-14.198 5.737zm-.008-55.044c-9.076 0-16.459 7.384-16.459 16.459v17.683c0 9.003 7.114 16.58 15.857 16.892 4.499.17 8.788-1.475 12.031-4.604a16.327 16.327 0 0 0 5.031-11.845v-18.126c0-9.075-7.384-16.459-16.46-16.459z"/><path fill="#FFD829" stroke="#000" stroke-miterlimit="10" d="M224.511 431.513v17.683c0 10.009 7.783 18.534 17.786 18.89 10.502.373 19.133-8.029 19.133-18.447v-18.125c0-10.195-8.265-18.459-18.459-18.459-10.196-.002-18.46 8.263-18.46 18.458z"/><path d="M242.978 470.098c-.25 0-.5-.004-.752-.013-10.871-.388-19.715-9.759-19.715-20.89v-17.683c0-11.281 9.178-20.459 20.459-20.459s20.459 9.178 20.459 20.459v18.126c0 5.603-2.221 10.831-6.253 14.723a20.287 20.287 0 0 1-14.198 5.737zm-.008-55.044c-9.076 0-16.459 7.384-16.459 16.459v17.683c0 9.003 7.114 16.58 15.857 16.892 4.5.17 8.788-1.475 12.031-4.604a16.327 16.327 0 0 0 5.031-11.845v-18.126c0-9.075-7.384-16.459-16.46-16.459z"/><path fill="#FFD829" stroke="#000" stroke-miterlimit="10" d="M311.411 492.334h-17.683c-10.009 0-18.534 7.783-18.89 17.786-.373 10.502 8.029 19.133 18.447 19.133h18.125c10.195 0 18.459-8.265 18.459-18.459.002-10.196-8.263-18.46-18.458-18.46z"/><path d="M309.412 531.253h-18.125c-5.603 0-10.832-2.221-14.724-6.254-3.89-4.03-5.922-9.34-5.723-14.95.387-10.871 9.757-19.715 20.889-19.715h17.683c11.281 0 20.459 9.178 20.459 20.459s-9.178 20.46-20.459 20.46zm-17.683-36.919c-9.003 0-16.58 7.113-16.892 15.857-.161 4.515 1.475 8.787 4.604 12.03a16.327 16.327 0 0 0 11.845 5.031h18.125c9.076 0 16.459-7.384 16.459-16.46 0-9.075-7.384-16.459-16.459-16.459h-17.682z"/><path fill="#FFD829" stroke="#000" stroke-miterlimit="10" d="M150.673 439.745v17.683c0 10.009 7.783 18.534 17.786 18.89 10.502.373 19.133-8.029 19.133-18.447v-18.125c0-10.195-8.265-18.459-18.459-18.459-10.196-.001-18.46 8.263-18.46 18.458z"/><path d="M169.14 478.33c-.25 0-.5-.004-.752-.013-10.871-.388-19.715-9.759-19.715-20.89v-17.683c0-11.281 9.178-20.46 20.459-20.46s20.459 9.179 20.459 20.46v18.125c0 5.603-2.221 10.832-6.253 14.724a20.284 20.284 0 0 1-14.198 5.737zm-.008-55.045c-9.076 0-16.459 7.384-16.459 16.46v17.683c0 9.003 7.114 16.58 15.857 16.892 4.498.179 8.787-1.474 12.031-4.604a16.328 16.328 0 0 0 5.031-11.846v-18.125c0-9.076-7.384-16.46-16.46-16.46z"/><path fill="#FFD829" stroke="#000" stroke-miterlimit="10" d="M261.43 446.681v17.683c0 10.009 7.783 18.534 17.786 18.89 10.502.373 19.133-8.029 19.133-18.447v-18.125c0-10.195-8.265-18.459-18.459-18.459-10.196-.002-18.46 8.263-18.46 18.458z"/><path d="M279.897 485.266c-.25 0-.5-.004-.752-.013-10.871-.387-19.715-9.757-19.715-20.889V446.68c0-11.281 9.178-20.459 20.459-20.459s20.459 9.178 20.459 20.459v18.126c0 5.603-2.221 10.831-6.253 14.723a20.287 20.287 0 0 1-14.198 5.737zm-.008-55.044c-9.076 0-16.459 7.384-16.459 16.459v17.684c0 9.003 7.113 16.58 15.857 16.891 4.531.186 8.789-1.474 12.031-4.604a16.327 16.327 0 0 0 5.031-11.845v-18.126c0-9.076-7.384-16.459-16.46-16.459z"/><path fill="#FFF" d="M1690.93 580.557s-.006-.016-.002-.017a3.735 3.735 0 1 0-2.87-6.885l2.552-.96s-.005-.017-.002-.018a3.735 3.735 0 0 0 2.292-4.621c-.479-1.535-1.957-2.495-3.563-2.578a3.14 3.14 0 0 0-1.6.312l-1.925.666s-.006-.016-.001-.019a3.735 3.735 0 0 0 1.981-5.344c-.789-1.424-2.485-2.166-4.074-1.81a3.641 3.641 0 0 0-.778.269l-5.893 2.155-.07-.138 5.387-3.644s-.01-.014-.005-.017a3.739 3.739 0 0 0 .664-5.627c-.754-.831-1.895-1.206-3.013-1.119-1.121.087-1.638.379-2.104.758l-12.865 8.681a10.528 10.528 0 0 0-4.886 6.189c-.432 1.07-1.391 3.021-2.89 3.834l.002.006-29.882 11.265-12.099-34.453c-2.206-6.616-9.548-9.985-16.002-7.344l-10.702 4.379 16.771 48.664a20.161 20.161 0 0 0 26.857 13.614l33.534-13.162-.009-.024c1.797-.273 3.657-.355 5.461-.126 2.19.278 4.208.123 6.192-.292 1.649-.346 3.272-.871 4.95-1.48l.55-.217 8.361-3.034s-.006-.017-.001-.018a3.734 3.734 0 0 0 2.294-4.613c-.431-1.391-1.714-2.328-3.156-2.53-1.006-.142-1.519.029-2.01.256l2.554-.958zM1632.841 494.879a10.3 10.3 0 0 0-1.121-.208c-.507-12.532-9.193-23.741-21.982-26.889-12.789-3.148-25.685 2.75-31.951 13.615-.353-.13-.715-.244-1.089-.336-5.383-1.325-10.821 1.965-12.146 7.348-1.324 5.383 1.966 10.821 7.349 12.146.82.202 1.641.295 2.449.292a28.99 28.99 0 0 0 12.314 18.965l-3.441 13.983 18.974 4.671 3.408-13.849a28.989 28.989 0 0 0 20.133-11.123c.714.378 1.484.677 2.305.878 5.383 1.325 10.821-1.965 12.146-7.348 1.324-5.382-1.965-10.82-7.348-12.145z"/><path d="M1597.166 494.834a3.815 3.815 0 0 1-7.453-1.63 3.814 3.814 0 0 1 7.453 1.63zM1621.485 500.155a3.812 3.812 0 0 1-4.542 2.91 3.815 3.815 0 1 1 4.542-2.91zM1609.737 467.782c-.095-.023-.19-.042-.285-.064-.51-.12-1.02-.224-1.53-.316-12.163-2.189-24.133 3.629-30.111 13.953.251.122.502.245.76.359 10.751 4.756 27.643 2.468 33.351-7.522.15 8.577 3.973 15.002 9.093 18.439 3.161 2.123 7.143 2.13 10.696 1.892-.568-12.471-9.234-23.606-21.974-26.741z"/><path fill="#FFD829" d="M1603.951 512.185c-7.969 0-11.83-5.151-12.009-5.396a1.999 1.999 0 0 1 .437-2.794 1.998 1.998 0 0 1 2.786.426c.171.225 3.702 4.73 11.236 3.569a2.012 2.012 0 0 1 2.282 1.671 2 2 0 0 1-1.671 2.282c-1.079.166-2.1.242-3.061.242z"/><path d="M1603.649 505.117a2.004 2.004 0 0 1-1.95-2.45l1.584-6.856a1.998 1.998 0 1 1 3.896.9l-1.584 6.856a1.997 1.997 0 0 1-1.946 1.55zM1616.937 555.849c1.828-9.422-4.328-18.542-13.75-20.369l-23.567-4.572c-9.422-1.828-18.541 4.329-20.369 13.75l-16.941 87.331a17.27 17.27 0 0 0 .65 8.986l-9.66 28.06c-.047.137-.097.272-.16.433-1.069 2.712-3.746 4.814-7.039 5.499l-67.932 14.31 8.039 38.162 67.878-14.298c15.257-3.169 27.855-13.093 34.211-26.762l5.149 22.027c.232.992.322 2.011.268 3.03l-4.511 64.393 38.904 2.725 4.52-64.512.013-.192a49.75 49.75 0 0 0-1.217-14.321l-12.406-53.071c.425-1.039.758-2.133.98-3.277l16.94-87.332z"/><path fill="#FFF" d="M1583.221 543.015c.656-6.456-3.842-12.301-10.251-13.321l-39.414-6.271a20.156 20.156 0 0 0-24.646 17.297l-4.157 35.784.025.003c-.604 1.715-1.407 3.394-2.457 4.879-1.275 1.802-2.088 3.656-2.654 5.602-.47 1.618-.77 3.298-1.022 5.064l-1.187 8.33-1.255 8.806s.018.003.017.007a3.734 3.734 0 0 0 3.191 4.227c1.429.195 2.792-.57 3.61-1.757.516-.749.598-1.254.627-1.765l1.205-8.463.031.004-1.591 11.163s.017.003.016.007a3.736 3.736 0 1 0 7.426.705l1.542-10.82.032.004-1.928 13.521s.018.003.017.007a3.736 3.736 0 0 0 3.11 4.216c1.464.233 2.913-.544 3.732-1.78.443-.669.558-1.198.585-1.73l1.877-13.179.032.004-1.591 11.163s.017.003.017.008a3.737 3.737 0 0 0 3.811 4.262c1.577-.036 2.994-1.13 3.457-2.638.098-.318.145-.617.159-.919l1.989-13.957.155.003.682 6.468s.017-.002.017.004a3.74 3.74 0 0 0 4.699 3.221c1.074-.285 1.914-1.103 2.359-2.121.45-1.03.436-1.623.32-2.213l-1.61-15.436a10.53 10.53 0 0 0-3.164-7.222c-.741-.884-2.012-2.648-2.024-4.354l-.007-.001 4.113-31.669 36.095 5.528c6.878 1.162 13.305-3.733 14.01-10.671zM1573.386 805.541h-.003c-3.941 0-6.488-2.334-6.488-5.946l.013-.226 2.658-23.394 39.197.329 27.523 19.559c.236.177 1.891 1.505 1.844 4.154-.054 3.03-2.566 5.447-5.563 5.44l-59.181.084zm-2.491-5.837c.009.627.145 1.836 2.486 1.837l59.203-.083h.016c.841 0 1.516-.675 1.53-1.511.01-.531-.186-.809-.26-.895l-26.398-18.758-34.338-.29-2.239 19.7zm62.88-.72.094.067c-.012-.014-.02-.021-.024-.025l-.07-.042zM1455.911 693.845l6.958 33.086-11.588 27.252-3.846-18.394-5.963-28.522-1.856-9.965-.001-.007 16.296-3.45m3.09-4.743-20.776 4.398c-1.902.398-2.939 2.631-2.541 4.534l1.864 10.009 5.972 28.564 4.186 20.019a3.513 3.513 0 0 0 3.447 2.788c.233 0 .47-.023.707-.071 1.676-.336 2.217-1.511 2.217-1.511l12.967-30.493-8.043-38.237z"/><path d="M1656.05 809.373h-214.644c-.052 0-.104-.002-.156-.006-20.318-1.592-38.741-12.171-49.282-28.297a1.999 1.999 0 1 1 3.348-2.189c9.854 15.075 27.109 24.975 46.169 26.491h214.487c19.173-1.511 36.498-11.41 46.356-26.491a2 2 0 1 1 3.348 2.189c-10.545 16.133-29.039 26.711-49.472 28.297a1.962 1.962 0 0 1-.154.006z"/><path fill="#FFF" d="M1448.616 845.869c-8.172 0-15.602-5.59-17.582-13.878-2.316-9.694 3.686-19.466 13.38-21.782a17.961 17.961 0 0 1 13.663 2.179c4.114 2.526 6.998 6.505 8.12 11.201s.349 9.549-2.179 13.663-6.505 6.998-11.201 8.12a18.058 18.058 0 0 1-4.201.497zm.027-32.161c-1.099 0-2.204.13-3.299.392-7.549 1.804-12.223 9.413-10.419 16.962 1.804 7.55 9.412 12.223 16.963 10.42 7.549-1.804 12.223-9.413 10.419-16.963a13.984 13.984 0 0 0-6.323-8.723 13.99 13.99 0 0 0-7.341-2.088zM1639.179 845.869c-8.172 0-15.602-5.59-17.582-13.878-1.122-4.696-.349-9.548 2.179-13.662s6.506-6.998 11.202-8.12a17.939 17.939 0 0 1 13.662 2.179c4.114 2.526 6.998 6.505 8.12 11.201s.349 9.548-2.179 13.663a17.954 17.954 0 0 1-11.201 8.12 18.064 18.064 0 0 1-4.201.497zm.027-32.161c-1.099 0-2.204.13-3.299.392-7.55 1.804-12.224 9.413-10.42 16.962 1.804 7.55 9.413 12.223 16.963 10.42a13.984 13.984 0 0 0 8.723-6.323 13.98 13.98 0 0 0 1.696-10.64 13.984 13.984 0 0 0-6.323-8.723 13.98 13.98 0 0 0-7.34-2.088z"/><path d="M1920 846.447h-814.998V782.94a48.23 48.23 0 0 0 14.004 2.083c3.809 0 7.645-.449 11.443-1.356l22.214-5.308c26.197-6.261 42.416-32.666 36.156-58.863-3.032-12.69-10.825-23.439-21.942-30.269-11.12-6.83-24.229-8.918-36.92-5.888l-22.213 5.308c-26.197 6.261-42.417 32.666-36.157 58.863 3.033 12.69 10.825 23.439 21.943 30.269a49.447 49.447 0 0 0 7.472 3.761v180.761h4V850.447H1920v-4zm-816.904-139.072a45.54 45.54 0 0 1 3.894-5.41c.135-.161.279-.313.417-.473.342-.396.683-.794 1.037-1.178.182-.197.374-.382.56-.576.321-.334.638-.672.968-.996.223-.218.456-.424.683-.637.304-.286.604-.577.915-.853.241-.214.493-.415.738-.624.309-.262.613-.531.929-.785.287-.23.584-.446.876-.669.285-.217.565-.442.855-.652.357-.259.725-.502 1.09-.75.236-.161.466-.329.706-.485.427-.278.865-.541 1.302-.804.186-.112.366-.232.553-.342.469-.274.949-.531 1.428-.789.163-.087.321-.182.485-.268.52-.271 1.05-.523 1.582-.774.13-.061.256-.129.386-.189a43.486 43.486 0 0 1 1.759-.756c.088-.036.173-.077.261-.112a44.546 44.546 0 0 1 1.8-.671c.091-.032.179-.069.271-.101.646-.223 1.3-.429 1.958-.623.053-.016.105-.035.158-.05a45.232 45.232 0 0 1 2.084-.553c.032-.008.063-.018.096-.025a45.146 45.146 0 0 1 10.507-1.245c8.186 0 16.238 2.258 23.39 6.65 10.207 6.27 17.361 16.139 20.146 27.79 5.748 24.052-9.144 48.295-33.195 54.043-.307.073-.614.128-.921.195-.447.097-.893.201-1.339.284-14.93 2.771-29.703-2.278-39.856-12.392-.067-.066-.137-.128-.203-.195-.322-.325-.63-.663-.943-.998-.181-.194-.368-.381-.546-.578-.17-.189-.33-.388-.497-.58a44.553 44.553 0 0 1-9.738-18.932c-2.786-11.652-.866-23.689 5.404-33.897zM907.301 734.595v111.852h-37.234V745.792h-4v216.509h4V850.447h37.234v111.854h4V734.595zM757.261 822.092c-3.033-12.69-10.825-23.44-21.943-30.27-11.118-6.829-24.229-8.919-36.92-5.888l-22.213 5.308c-24.977 5.969-40.869 30.251-36.87 55.205H311.849V513.389c0-1.316-.136-2.599-.373-3.846-4.139-45.93-42.846-82.046-89.835-82.046-49.741 0-90.208 40.468-90.208 90.209 0 11.302 9.162 20.464 20.464 20.464 11.302 0 20.464-9.162 20.464-20.464 0-27.173 22.107-49.28 49.28-49.28 27.013 0 49.01 21.85 49.268 48.804v329.218H0v4h270.908v208.982c0 11.306 9.165 20.47 20.47 20.47s20.47-9.165 20.47-20.47V850.447h328.269c4.172 16.924 16.769 29.625 32.249 34.715v77.139h4V886.29a48.43 48.43 0 0 0 11.171 1.315c3.746 0 7.554-.436 11.353-1.343l22.213-5.309c26.198-6.26 42.418-32.665 36.158-58.861zM307.849 1059.43c0 9.082-7.389 16.47-16.47 16.47-9.082 0-16.47-7.389-16.47-16.47V572.781h32.941v486.649zm412.325-182.366c-.315.075-.63.133-.945.202-.419.091-.838.189-1.258.268-.279.052-.559.089-.838.136-.452.076-.904.158-1.356.22-.263.036-.526.058-.788.089-.469.056-.938.117-1.408.158-.253.022-.506.03-.759.048-.479.034-.958.072-1.437.09-.23.009-.459.005-.689.01-.501.012-1.002.026-1.503.021-.212-.002-.423-.017-.634-.022-.517-.013-1.035-.024-1.551-.055-.192-.011-.383-.035-.575-.048-.533-.039-1.067-.077-1.598-.136-.209-.022-.415-.058-.624-.083-.513-.064-1.027-.125-1.537-.207-.167-.027-.332-.064-.499-.092a41.681 41.681 0 0 1-1.644-.305c-.152-.032-.301-.073-.453-.107a45.968 45.968 0 0 1-1.67-.395c-.157-.041-.311-.092-.467-.135a44.622 44.622 0 0 1-1.632-.472c-.186-.059-.368-.129-.554-.19-.508-.168-1.016-.335-1.519-.521-.205-.076-.406-.165-.61-.244-.479-.186-.959-.369-1.433-.572-.3-.128-.596-.273-.894-.408-.372-.169-.747-.331-1.115-.51-.308-.15-.611-.316-.916-.474a46.093 46.093 0 0 1-2.992-1.671c-10.208-6.27-17.362-16.14-20.146-27.791-2.784-11.65-.865-23.688 5.405-33.896 3.527-5.741 8.192-10.517 13.672-14.092.081-.053.166-.101.248-.154.53-.34 1.064-.675 1.608-.993.104-.061.213-.115.318-.176.527-.302 1.056-.6 1.596-.88.108-.056.22-.105.328-.161a45.274 45.274 0 0 1 1.641-.803c.123-.057.251-.105.375-.161a45.374 45.374 0 0 1 1.648-.708c.09-.036.183-.066.273-.102a43.933 43.933 0 0 1 1.799-.67c.084-.029.171-.053.256-.082.616-.208 1.236-.41 1.863-.592.05-.015.101-.025.151-.04a45.146 45.146 0 0 1 12.521-1.778c8.186 0 16.238 2.258 23.39 6.65 10.208 6.27 17.362 16.14 20.146 27.791 5.75 24.051-9.142 48.295-33.194 54.043zM1681.897 559.928l-51.493-161.886c-.003-.009-.008-.016-.011-.024l-21.395-67.262-212.36 67.549 39.913 38.934-11.241 51.206 208.55-66.337 44.271 139.179 3.766-1.359zM1692.965 594.724l-1.978-6.219-3.764 1.366 1.929 6.065a2.002 2.002 0 0 0 2.512 1.3 2 2 0 0 0 1.301-2.512z"/><g fill="#FFF"><path d="M611.035 686.984c.448 1.865-.882 3.664-2.806 4.127-.641.154-1.466.105-2.291.059l-43.386-6.703c-2.119-.353-3.114-1.101-3.478-2.615-.364-1.516.409-2.811 1.907-3.912l35.591-25.702c.713-.419 1.427-.836 2.067-.99 1.923-.463 3.927.535 4.375 2.4.309 1.282-.565 2.725-2.064 3.825l-30.722 21.695 37.228 5.348c1.836.297 3.271 1.185 3.579 2.468zM638.959 680.142c-2.384-9.908 6.928-18.559 20.005-21.705 7.18-1.728 14.98-2.002 20.922.146l-1.038-4.313c-2.103-8.742-9.887-12.911-21.811-10.043-4.359 1.049-8.678 2.827-12.889 6.184-1.371 1.068-3.142 2.729-4.808 3.129-2.308.556-4.055-.504-4.532-2.485-.42-1.749.837-3.284 2.993-5.036 2.941-2.434 9.615-6.26 17.692-8.203 16.795-4.04 27.453.795 30.762 14.55l6.674 27.741c.561 2.331-.385 4.038-2.821 4.624-2.18.524-4.055-.504-4.616-2.835l-.28-1.166c-4.315 4.614-11.387 7.918-18.566 9.646-13.076 3.143-25.303-.326-27.687-10.234zm44.103-10.61c-1.374-5.712-9.334-8.359-20.489-5.676-11.154 2.684-17.039 8.661-15.665 14.373 1.374 5.711 9.334 8.358 20.488 5.675 11.155-2.683 17.041-8.661 15.666-14.372zM745.75 664.562c6.154-1.48 11.776-5.176 16.051-10.52 1.458-1.831 2.416-2.926 4.338-3.389 1.796-.432 3.799.567 4.191 2.199.421 1.749-.225 3.014-1.812 4.875-4.731 5.7-12.251 11.085-21.227 13.244-16.539 3.979-31.839-3.808-35.513-19.077-3.673-15.27 6.411-29.164 22.95-33.143 8.975-2.159 18.122-.783 24.928 2.142 2.26.936 3.41 1.77 3.831 3.519.392 1.631-.938 3.43-2.733 3.862-1.923.462-3.273-.076-5.404-1.042-6.238-2.815-12.925-3.549-19.079-2.068-11.025 2.652-19.56 12.843-16.671 24.849 2.89 12.007 15.125 17.201 26.15 14.549zM849.795 641.504c.477 1.981-.625 3.603-3.445 4.281l-45.898 11.042c-2.821.679-4.539-.264-5.016-2.246-.449-1.865.652-3.486 3.473-4.165 3.847-.925 9.829-1.994 13.702-2.803l-9.085-37.767c-3.561.981-9.759 2.841-13.478 3.735-2.82.679-4.539-.263-5.016-2.245-.448-1.865.653-3.486 3.474-4.165l17.052-4.102c2.564-.617 4.439.411 5 2.742l.813 3.381c1.803-6.601 8.622-10.954 15.289-12.558 4.103-.987 9.583-1.318 13.734.149 1.919.647 2.969 1.628 3.333 3.144.477 1.981-.882 3.664-2.677 4.097-1.923.462-3.63.133-5.364-.312-2.9-.782-6.074-1.005-9.664-.142-9.23 2.221-13.334 11.1-10.838 21.474l4.991 20.748c5.742-1.505 19.889-5.278 24.632-6.42 2.821-.677 4.539.267 4.988 2.132zM864.739 615.096c-3.646-15.153 6.411-29.163 22.95-33.143 16.539-3.979 31.867 3.925 35.513 19.078s-6.411 29.163-22.95 33.142c-16.539 3.978-31.867-3.924-35.513-19.077zm50.643-12.183c-2.776-11.54-14.483-17.354-26.15-14.548-11.667 2.807-19.448 13.31-16.672 24.85 2.776 11.54 14.483 17.354 26.15 14.548 11.666-2.807 19.448-13.31 16.672-24.85zM992.565 608.02l-6.254-25.993c-2.804-11.656-10.537-14.481-18.87-12.477-9.103 2.19-15.088 8.315-12.256 20.088l6.226 25.877c.561 2.331-.514 4.068-2.95 4.654-2.179.524-4.054-.504-4.615-2.835l-10.769-44.76c-.561-2.331.512-4.069 2.949-4.655 2.179-.524 4.055.505 4.616 2.836l.813 3.38c2.611-6.055 8.674-9.609 15.725-11.306 12.821-3.084 22.965 1.874 26.33 15.861l6.618 27.509c.561 2.331-.513 4.069-2.948 4.655-2.179.525-4.054-.503-4.615-2.834zM1022.027 624.484c-.477-1.981 1.01-3.695 2.933-4.158 1.41-.339 2.904-.329 4.271-.287 1.778.064 3.758-.165 5.168-.504 3.718-.895 7.056-2.808 9.199-5.172 3.63-4.079 6.446-11.539 7.204-16.284l-33.673-39.619c-1.135-1.331-2.212-2.427-2.521-3.71-.448-1.864.653-3.487 3.089-4.073 1.923-.462 3.514.513 5.072 2.479l30.296 36.856 10.218-46.604c.492-2.46 1.467-4.052 3.39-4.515 2.437-.586 4.155.357 4.604 2.223.309 1.283-.153 2.749-.558 4.45l-11.896 50.336c-4.062 17.501-9.419 26.804-24.163 30.351-7.564 1.82-11.903 1.261-12.633-1.769zM1106.298 536.145c-7.052 1.696-9.035 6.981-7.465 13.509l7.459 31.006c.561 2.331-.385 4.038-2.82 4.624-2.18.524-3.927-.535-4.487-2.866l-10.769-44.76c-.561-2.331.385-4.039 2.82-4.625 2.18-.523 3.927.536 4.488 2.867l.448 1.865c1.794-4.377 5.192-7.169 10.706-8.495 6.153-1.48 11.414.091 14.859 3.701 2.012-5.169 5.653-8.636 11.936-10.147 10.513-2.529 17.456 2.089 20.4 14.329l7.291 30.306c.561 2.331-.385 4.038-2.82 4.624-2.18.524-3.927-.535-4.487-2.866l-7.207-29.956c-1.879-7.81-5.608-11.474-13.045-9.686-7.052 1.696-8.906 6.951-7.336 13.479l7.459 31.006c.561 2.331-.385 4.038-2.82 4.624-2.18.524-3.927-.535-4.487-2.866l-7.459-31.006c-1.57-6.529-5.613-10.364-12.664-8.667zM1173.822 516.323c-.448-1.865.882-3.665 2.805-4.128.641-.154 1.466-.106 2.292-.059l43.386 6.702c1.835.3 3.113 1.102 3.478 2.617.364 1.515-.18 2.633-1.907 3.91l-35.59 25.703c-.714.418-1.427.836-2.067.99-1.924.463-3.927-.534-4.375-2.399-.309-1.282.437-2.695 2.062-3.825l30.723-21.695-37.229-5.348c-1.963-.267-3.269-1.185-3.578-2.468z"/></g><circle cx="1311.417" cy="184.886" r="83.903" fill="#FFF"/><path fill="#FFD829" d="m892.595 498.358 5.947 26.092a33.445 33.445 0 0 0 5.13 11.308c2.507 3.554 6.142 8.18 10.575 12.316.793.74 1.654 1.401 2.508 2.069 7.257 5.68 12.359 13.981 13.883 23.465l8.208 34.161 10.268 42.732 14.607 59.263-.09.027c.001.003.009.009.01.016 2.516 10.471-3.938 21.008-14.413 23.525-10.474 2.516-21.003-3.933-23.525-14.405a20.207 20.207 0 0 1-.334-1.8l-14.185-57.52-.16.043 14.9 60.478 3.105 12.838c1.772 10.064-4.559 19.903-14.629 22.321-10.479 2.521-21.008-3.93-23.525-14.411-.146-.599-3.513-14-3.595-14.601l-14.187-57.516-.159.038 14.608 59.271 6.155 24.569-.198-.767c2.514 10.473-3.734 21.79-14.207 24.311-10.473 2.521-21.006-3.931-23.524-14.402-.146-.604-6.493-25.753-6.578-26.349l-14.189-57.518-.159.042 15.189 61.688 2.614 11.333c1.066 9.625-5.155 18.766-14.821 21.091-9.656 2.315-19.354-3.001-22.778-12.057l-2.943-11.256 2.714 10.661c-.191-.581-3.236-12.431-3.382-13.035a19.944 19.944 0 0 1-.337-1.796l-18.046-73.607-.803.094-.442 50.783-.095-.005c-.002.008-.001.018-.001.027-.096 10.773-8.906 19.427-19.673 19.333-10.773-.096-19.433-8.905-19.334-19.675.003-.616.046-1.216.106-1.813l.859-97.872a57.48 57.48 0 0 1-.123-3.972 55.015 55.015 0 0 1 11.651-33.443 36.247 36.247 0 0 0 4.913-8.44l.098-.239c3.083-7.573 3.555-15.96 1.587-23.896l-5.974-23.446"/><path d="M874.69 778.734a21.353 21.353 0 0 1-11.187-3.173 21.366 21.366 0 0 1-9.679-13.312c-.02-.085-.171-.684-.413-1.647-2.435 6.514-7.971 11.691-15.118 13.41-10.502 2.514-21.299-3.198-25.116-13.295a1.958 1.958 0 0 1-.064-.201l-.026-.1a1.98 1.98 0 0 1-.167-.375c-.243-.737-3.401-13.085-3.427-13.19a21.492 21.492 0 0 1-.358-1.884L794.14 683.81l-.331 38.062c-.002.218-.04.433-.109.635-.426 11.509-9.923 20.704-21.486 20.705l-.19-.001c-5.745-.052-11.126-2.336-15.153-6.434a21.355 21.355 0 0 1-6.058-17.162l.857-97.713a59.332 59.332 0 0 1-.123-4.04c.115-12.692 4.291-24.676 12.074-34.656a34.277 34.277 0 0 0 4.642-7.974l.098-.239c2.848-6.995 3.38-15.043 1.494-22.65l-5.964-23.411 3.864-1.033 5.974 23.446c2.127 8.58 1.547 17.271-1.667 25.167l-.103.249a38.211 38.211 0 0 1-5.184 8.904c-7.238 9.282-11.121 20.428-11.229 32.231a55.579 55.579 0 0 0 .119 3.833c.003.046.004.092.004.139l-.859 97.872c0 .061-.004.121-.01.181a17.381 17.381 0 0 0 4.921 14.053 17.4 17.4 0 0 0 12.491 5.238c9.579 0 17.415-7.752 17.5-17.353a2.185 2.185 0 0 1 .101-.635l.437-50.171a2.001 2.001 0 0 1 1.772-1.97l.798-.092c1.004-.132 1.935.531 2.175 1.51l18.046 73.606c.016.064.028.128.038.193.083.577.182 1.106.303 1.617.038.155.219.865.478 1.878.076.14.137.291.179.452l2.916 11.15c3.138 8.156 11.89 12.771 20.404 10.724 8.512-2.047 14.218-10.122 13.312-18.812l-2.587-11.217-15.183-61.659a2 2 0 0 1 1.43-2.412l.159-.042a2.003 2.003 0 0 1 2.454 1.454l14.189 57.519c.016.065.029.131.038.197.173.843 4.154 16.666 5.653 22.622.514 2.041.856 3.402.889 3.538a17.395 17.395 0 0 0 7.88 10.84 17.376 17.376 0 0 0 13.232 2.09c9.218-2.22 15.048-12.248 12.73-21.9a1.567 1.567 0 0 1-.027-.133l-5.925-23.649-14.61-59.279a2.002 2.002 0 0 1 1.477-2.424l.159-.038a1.998 1.998 0 0 1 2.407 1.467l14.187 57.516c.017.068.03.138.04.208.136.715 2.421 9.854 3.172 12.856l.384 1.542a17.402 17.402 0 0 0 7.878 10.849 17.374 17.374 0 0 0 13.235 2.091c8.94-2.146 14.701-10.91 13.138-19.969l-3.09-12.776-14.897-60.469a1.999 1.999 0 0 1 1.425-2.41l.161-.043a1.987 1.987 0 0 1 1.534.21c.462.273.795.722.924 1.243l14.185 57.52c.016.064.029.13.038.196.084.589.183 1.121.301 1.624 2.257 9.373 11.728 15.172 21.11 12.918 9.348-2.247 15.141-11.646 12.964-20.992a2.008 2.008 0 0 1-.09-.737l-14.463-58.68-18.479-76.904a1.87 1.87 0 0 1-.03-.149c-1.414-8.795-6.081-16.683-13.141-22.208l-.233-.183c-.797-.623-1.622-1.268-2.406-1.998-4.691-4.377-8.487-9.282-10.846-12.627-2.539-3.6-4.368-7.631-5.438-11.982l-5.946-26.089 3.883-.961 5.947 26.092c.95 3.868 2.573 7.445 4.823 10.636s5.864 7.863 10.305 12.006c.656.612 1.377 1.176 2.141 1.771l.235.185c7.836 6.134 13.023 14.884 14.613 24.647l18.458 76.819 14.604 59.252c.053.212.069.424.054.631 2.4 11.338-4.681 22.635-16.021 25.36-7.04 1.692-14.121-.308-19.198-4.746l.476 1.967c.01.041.019.082.026.124 1.964 11.157-5.122 21.968-16.132 24.611a21.355 21.355 0 0 1-16.259-2.568 21.738 21.738 0 0 1-2.912-2.133l.002.075c2.077 11.38-4.997 22.888-15.937 25.521a21.655 21.655 0 0 1-5.071.605z"/><path fill="#FFF" d="m908.771 960.301-38.704 22.223v-22.223h-196.23l-120.749 69.332c-10.918 6.269-15.876 18.179-12.633 30.343S553.93 1080 566.52 1080h502.458c19.88 0 36.053-16.173 36.053-36.053v-83.646h-196.26zM787.014 1076H566.52c-13.029 0-20.102-9.188-22.199-17.056-2.098-7.867-.539-19.355 10.759-25.843l42.179-24.219 50.392 28.301a1.998 1.998 0 0 0 2.724-.765 2 2 0 0 0-.764-2.724l-48.311-27.132 24.379-13.998 50.495 28.358a1.998 1.998 0 0 0 2.724-.765 2 2 0 0 0-.764-2.724l-48.414-27.19 23.528-13.51 50.426 28.319a1.998 1.998 0 0 0 2.724-.765 2 2 0 0 0-.764-2.724l-48.345-27.151 17.618-10.116h191.164v20.52l-78.045 44.812c-7.506 4.31-12.195 11.286-13.339 19.178-.52 3.587-.307 7.364.707 11.165.219.821.476 1.619.757 2.399.093.258.202.505.302.758.202.515.41 1.027.639 1.523.132.286.276.562.416.841.225.447.456.887.702 1.316a26.818 26.818 0 0 0 1.294 2.033c.18.258.361.514.55.764.298.395.611.776.929 1.151.188.222.371.448.566.663.373.411.764.802 1.161 1.186.16.155.311.32.475.47.57.524 1.16 1.024 1.774 1.494.104.079.215.147.32.225.516.382 1.042.75 1.585 1.093.05.04.097.08.15.113zm314.016-32.053c0 17.674-14.379 32.053-32.053 32.053H801.455c-13.028 0-20.101-9.188-22.199-17.055a24.147 24.147 0 0 1-.71-8.174c.537-6.386 3.702-13.21 11.469-17.67l39.75-22.824 1.841-1.057 49.791 27.963a1.998 1.998 0 0 0 2.724-.765 2 2 0 0 0-.764-2.724l-47.71-26.794 25.426-14.599c.087.071.178.139.279.196l50.615 28.426a1.998 1.998 0 0 0 2.724-.765 2 2 0 0 0-.764-2.724l-48.848-27.433 4.991-2.865 18.564-10.659c.07.053.138.108.217.153l50.615 28.426a1.998 1.998 0 0 0 2.724-.765 2 2 0 0 0-.764-2.724l-48.779-27.394 17.194-9.872h191.192v79.646z"/><g fill="#FFF"><path d="M1474.623 433.663c.204.643-.218 1.309-.881 1.52-.222.07-.512.074-.804.078l-15.406-1.256c-.753-.07-1.121-.308-1.288-.83-.166-.522.073-.998.571-1.422l11.851-9.926c.24-.166.479-.33.7-.4.664-.211 1.393.09 1.598.732.141.443-.129.972-.628 1.396l-10.241 8.395 13.209.937c.652.057 1.177.333 1.319.776zM1484.252 430.555c-1.087-3.418 1.964-6.692 6.478-8.128 2.478-.788 5.211-1.082 7.352-.478l-.473-1.488c-.96-3.017-3.8-4.284-7.915-2.975-1.504.479-2.976 1.212-4.37 2.497-.454.41-1.034 1.037-1.609 1.22-.797.254-1.437-.073-1.654-.758-.191-.603.211-1.174.924-1.844.971-.929 3.219-2.441 6.007-3.328 5.796-1.844 9.661-.415 11.171 4.33l3.045 9.573c.256.805-.033 1.427-.874 1.694-.752.239-1.437-.073-1.692-.878l-.128-.402c-1.398 1.729-3.799 3.067-6.277 3.855-4.515 1.437-8.898.529-9.985-2.89zm15.222-4.842c-.627-1.97-3.49-2.698-7.34-1.474s-5.766 3.473-5.139 5.443 3.489 2.698 7.34 1.474c3.85-1.224 5.766-3.472 5.139-5.443zM1515.504 423.582l.485 1.528c.257.805-.077 1.44-.918 1.708-.752.239-1.437-.073-1.692-.878l-7.766-24.413c-.256-.806.077-1.441.919-1.709.752-.239 1.436.073 1.692.879l3.339 10.497c.77-2.327 2.909-4.027 5.432-4.829 5.398-1.718 10.217.87 11.893 6.139 1.676 5.27-.763 10.163-6.161 11.88-2.523.802-5.282.706-7.223-.802zm10.684-10.22c-1.293-4.062-4.773-5.967-8.622-4.742-3.85 1.225-5.591 4.789-4.299 8.852s4.773 5.967 8.623 4.742c3.849-1.225 5.59-4.789 4.298-8.852zM1542.048 415.139l.486 1.528c.256.805-.077 1.44-.918 1.708-.753.239-1.437-.073-1.693-.878l-7.765-24.413c-.257-.806.077-1.441.918-1.709.753-.239 1.437.073 1.692.879l3.34 10.497c.77-2.327 2.909-4.027 5.431-4.829 5.398-1.718 10.217.87 11.893 6.139 1.677 5.27-.763 10.162-6.161 11.88-2.522.801-5.281.706-7.223-.802zm10.685-10.22c-1.293-4.062-4.773-5.967-8.623-4.742s-5.59 4.789-4.298 8.852 4.772 5.967 8.622 4.742 5.591-4.789 4.299-8.852zM1583.856 403.213c.218.684-.128 1.28-1.102 1.591l-15.841 5.038c-.973.31-1.601.022-1.817-.661-.205-.645.141-1.241 1.114-1.551 1.327-.422 3.401-.948 4.741-1.332l-4.145-13.031c-1.227.435-3.357 1.245-4.64 1.653-.974.31-1.601.022-1.818-.661-.204-.644.142-1.241 1.114-1.551l5.885-1.872c.886-.281 1.57.032 1.826.837l.371 1.166c.466-2.362 2.751-4.064 5.052-4.797 1.416-.45 3.333-.705 4.827-.294.69.179 1.084.497 1.25 1.02.218.684-.217 1.309-.836 1.506-.664.211-1.271.139-1.893.026a6.717 6.717 0 0 0-3.397.195c-3.186 1.013-4.402 4.233-3.264 7.813l2.277 7.159c1.979-.672 6.852-2.355 8.489-2.876.975-.309 1.603-.023 1.807.622zM1588.289 384.84c-.204-.644.217-1.31.88-1.521.223-.07.513-.075.805-.078l15.406 1.256c.652.058 1.121.308 1.287.83s.004.93-.57 1.422l-11.851 9.926c-.24.164-.479.33-.701.4-.663.211-1.393-.09-1.597-.732-.141-.443.085-.957.628-1.396l10.241-8.396-13.209-.936c-.697-.043-1.178-.333-1.319-.775z"/></g></svg>