<svg xmlns="http://www.w3.org/2000/svg" xmlns:xlink="http://www.w3.org/1999/xlink" xml:space="preserve" viewBox="0 0 1080 1080"><path fill="#FF8630" d="M384.899 1054.664c-84.896-.694-161.049-37.99-213.488-96.864v101.358c0 10.505-8.516 19.021-19.021 19.021s-19.021-8.516-19.021-19.021V903.784c-22.368-41.035-35.088-88.085-35.088-138.109H0V1080h413.054c-15.232 0-29.135-12.931-28.155-25.336zM1009.385 977.655v.023c0 43.474-35.243 78.719-78.718 78.719h-25.142c-3.558 13.581-20.912 23.603-35.609 23.603H1080V977.655h-70.615z"/><circle cx="942.272" cy="69.708" r="69.708" fill="#FFF"/><path d="m103.13 466.117 92.636-66.47 2.332 3.25-92.637 66.47z"/><path fill="#FF8630" d="M852.477 538.176h-4V407.56c0-59.312-23.005-115.353-64.778-157.8-20.14-20.465-43.471-36.554-69.345-47.819-26.71-11.631-54.844-17.527-83.62-17.527H498.12c-32.644 0-63.413 15.05-84.42 41.29l-3.123-2.5c21.771-27.193 53.679-42.79 87.543-42.79h132.614c29.329 0 58 6.009 85.217 17.859 26.346 11.472 50.099 27.851 70.599 48.682 42.515 43.2 65.928 100.237 65.928 160.605v130.616z"/><path d="M814.953 550.101a2 2 0 0 1-2-2v-11.654a2 2 0 0 1 4 0v11.654a2 2 0 0 1-2 2zm0-23.655a2 2 0 0 1-2-2v-12a2 2 0 0 1 4 0v12a2 2 0 0 1-2 2zm0-24a2 2 0 0 1-2-2v-12a2 2 0 0 1 4 0v12a2 2 0 0 1-2 2zm0-24a2 2 0 0 1-2-2v-12a2 2 0 0 1 4 0v12a2 2 0 0 1-2 2zm0-24a2 2 0 0 1-2-2v-12a2 2 0 0 1 4 0v12a2 2 0 0 1-2 2zm0-24a2 2 0 0 1-2-2v-6.707c0-1.752-.022-3.5-.065-5.242a2 2 0 0 1 1.949-2.049c1.081-.046 2.022.846 2.049 1.949.045 1.78.067 3.577.067 5.342v6.707a2 2 0 0 1-2 2zm-.71-23.977a2 2 0 0 1-1.991-1.836 207.404 207.404 0 0 0-1.313-11.806 2 2 0 0 1 1.702-2.259 1.995 1.995 0 0 1 2.259 1.702c.56 3.979 1.01 8.027 1.339 12.034a1.999 1.999 0 0 1-1.996 2.165zm-3.337-23.744c-.935 0-1.77-.657-1.959-1.608a205.808 205.808 0 0 0-2.663-11.575 2 2 0 0 1 3.871-1.009c1.014 3.89 1.928 7.86 2.714 11.802a2 2 0 0 1-1.963 2.39zm-6.047-23.204a2 2 0 0 1-1.903-1.386 206.455 206.455 0 0 0-3.978-11.193 2 2 0 0 1 3.729-1.447 211.92 211.92 0 0 1 4.056 11.41 2 2 0 0 1-1.904 2.616zm-8.667-22.333a2 2 0 0 1-1.82-1.171 208.91 208.91 0 0 0-5.228-10.649 1.999 1.999 0 1 1 3.539-1.863 211.906 211.906 0 0 1 5.327 10.853 1.998 1.998 0 0 1-1.818 2.83zm-11.16-21.187a2 2 0 0 1-1.716-.969 209.687 209.687 0 0 0-6.408-9.989 2 2 0 0 1 3.304-2.254 213.359 213.359 0 0 1 6.531 10.181 2 2 0 0 1-1.711 3.031zm-13.505-19.788a1.999 1.999 0 0 1-1.586-.78 210.493 210.493 0 0 0-7.505-9.201 2 2 0 1 1 3.027-2.615 215.131 215.131 0 0 1 7.647 9.377 2 2 0 0 1-1.583 3.219zm-15.671-18.134a1.996 1.996 0 0 1-1.437-.608 208.352 208.352 0 0 0-8.504-8.289 2 2 0 0 1 2.709-2.943 214.444 214.444 0 0 1 8.668 8.449 2 2 0 0 1-1.436 3.391zm-17.637-16.235a1.99 1.99 0 0 1-1.267-.453 207.344 207.344 0 0 0-9.399-7.262 1.997 1.997 0 0 1-.441-2.793 1.996 1.996 0 0 1 2.793-.441 209.741 209.741 0 0 1 9.583 7.402 2 2 0 0 1-1.269 3.547zm-326.038-8.277a2 2 0 0 1-1.561-3.25 94.763 94.763 0 0 1 8.265-9.04 2 2 0 0 1 2.773 2.883 90.658 90.658 0 0 0-7.915 8.657c-.395.494-.976.75-1.562.75zm306.644-5.825c-.37 0-.744-.103-1.078-.317a202.485 202.485 0 0 0-10.182-6.12 2.001 2.001 0 0 1 1.959-3.489 206.633 206.633 0 0 1 10.383 6.243 2 2 0 0 1-1.082 3.683zm-289.413-10.787a2 2 0 0 1-1.203-3.6 104.689 104.689 0 0 1 10.195-6.749 2 2 0 1 1 2.009 3.459 100.808 100.808 0 0 0-9.805 6.489 1.973 1.973 0 0 1-1.196.401zm268.501-.959c-.293 0-.591-.064-.872-.201a199.179 199.179 0 0 0-10.838-4.873 2 2 0 1 1 1.531-3.695 203.05 203.05 0 0 1 11.055 4.971 2 2 0 0 1-.876 3.798zm-22.169-9.175a2 2 0 0 1-.651-.11 195.463 195.463 0 0 0-11.351-3.527 2 2 0 0 1 1.068-3.854 198.403 198.403 0 0 1 11.585 3.6 2 2 0 0 1-.651 3.891zm-225.637-1.907a2 2 0 0 1-.803-3.833c3.725-1.629 7.58-3.06 11.458-4.252a2.006 2.006 0 0 1 2.5 1.324 2.002 2.002 0 0 1-1.324 2.5 103.4 103.4 0 0 0-11.03 4.092 1.998 1.998 0 0 1-.801.169zm202.503-4.513c-.138 0-.277-.014-.417-.044-3.861-.819-7.8-1.527-11.704-2.104-1.093-.161-1.848-1.179-1.687-2.271s1.184-1.845 2.271-1.686a195.88 195.88 0 0 1 11.949 2.149 1.998 1.998 0 0 1-.412 3.956zm-179.613-2.52a2 2 0 0 1-.361-3.967 103.88 103.88 0 0 1 12.137-1.51c1.084-.058 2.053.767 2.124 1.868a2 2 0 0 1-1.868 2.124 99.52 99.52 0 0 0-11.666 1.451 2.003 2.003 0 0 1-.366.034zm155.873-.992c-.057 0-.113-.002-.171-.007a191.888 191.888 0 0 0-11.852-.636 1.998 1.998 0 0 1-1.954-2.044 1.998 1.998 0 0 1 1.998-1.955l.046.001c4.025.09 8.097.308 12.1.647a2.001 2.001 0 0 1-.167 3.994zm-23.977-.691h-12a2 2 0 0 1 0-4h12a2 2 0 0 1 0 4zm-24 0h-12a2 2 0 0 1 0-4h12a2 2 0 0 1 0 4zm-24 0h-12a2 2 0 0 1 0-4h12a2 2 0 0 1 0 4zm-24 0h-12a2 2 0 0 1 0-4h12a2 2 0 0 1 0 4zm-24 0h-12a2 2 0 0 1 0-4h12a2 2 0 0 1 0 4z"/><path fill="#FF8630" d="M781.429 558.024h-4V435.92c0-49.974-19.32-97.173-54.402-132.904-34.843-35.488-80.535-55.032-128.661-55.032H484.248c-26.85 0-55.166 12.839-70.463 31.948l-3.123-2.5c16.016-20.007 45.587-33.448 73.586-33.448h110.117c49.208 0 95.914 19.97 131.516 56.229 35.82 36.484 55.548 84.679 55.548 135.707v122.104z"/><path fill="#FF8630" d="M710.379 528.001h-4V464.28c0-39.573-14.939-77.207-42.065-105.968l2.91-2.744c27.829 29.506 43.155 68.114 43.155 108.712v63.721zM413.869 334.159l-3.123-2.5c11.92-14.89 40.233-24.105 59.63-24.105h60.688v4h-60.688c-23.726 0-47.804 11.733-56.507 22.605z"/><path d="M529.74 343.339h-12a2 2 0 0 1 0-4h12a2 2 0 0 1 0 4zm-24 0h-12a2 2 0 0 1 0-4h12a2 2 0 0 1 0 4zm-24 0h-12a2 2 0 0 1 0-4h12a2 2 0 0 1 0 4zm-24 0h-12a2 2 0 0 1 0-4h12a2 2 0 0 1 0 4z"/><path fill="#FF8630" d="M545.359 379.488a108.79 108.79 0 0 0-30.501-4.365h-98.746v-4h98.746c10.7 0 21.34 1.522 31.622 4.525l-1.121 3.84z"/><path d="M556.691 429.622c-.443 0-.889-.146-1.259-.447a97.994 97.994 0 0 0-9.553-6.844 2 2 0 1 1 2.129-3.387 101.979 101.979 0 0 1 9.944 7.125 2 2 0 0 1-1.261 3.553zm-20.273-12.734a2.02 2.02 0 0 1-.848-.188 94.224 94.224 0 0 0-10.922-4.309 2 2 0 0 1 1.231-3.807 98.475 98.475 0 0 1 11.389 4.492 2.002 2.002 0 0 1-.85 3.812zm-22.773-7.362c-.122 0-.246-.011-.371-.034a92.173 92.173 0 0 0-11.652-1.427 2.002 2.002 0 0 1-1.881-2.113 2.004 2.004 0 0 1 2.113-1.881 96.26 96.26 0 0 1 12.158 1.489 2 2 0 0 1-.367 3.966zm-23.905-1.618h-12a2 2 0 0 1 0-4h12a2 2 0 0 1 0 4zm-24 0h-12a2 2 0 0 1 0-4h12a2 2 0 0 1 0 4zm-24 0h-12a2 2 0 0 1 0-4h12a2 2 0 0 1 0 4z"/><path fill="#FF8630" d="M551.11 577.873h-4v-58.775c0-45.384-35.449-82.307-79.022-82.307h-33.315v-4h33.315c45.778 0 83.022 38.717 83.022 86.307v58.775z"/><path d="M724.57 758.904h4v211.587h-4zM686.256 769.31h4v201.182h-4z"/><path fill="#FFF" d="m1068.685 555.766 4.688 19.616c12.189 51.008-19.393 102.421-70.4 114.61L462.704 819.094a95.6 95.6 0 0 1-22.187 2.627c-21.005 0-41.754-7.154-58.426-20.144-17.171-13.379-28.927-31.666-33.997-52.884l-4.687-19.616 725.278-173.311m2.961-4.82-733.06 175.172 5.617 23.506c10.871 45.495 51.502 76.098 96.313 76.098 7.627 0 15.374-.886 23.117-2.737l540.269-129.103c53.238-12.722 86.083-66.192 73.361-119.43l-5.617-23.506z"/><path d="M585.431 840.174c-5.835-24.417-30.448-39.533-54.866-33.702l-20.642 4.933c-24.418 5.835-39.536 30.448-33.702 54.866 2.827 11.829 10.091 21.85 20.453 28.215a45.862 45.862 0 0 0 9.593 4.443v71.563h4v-70.437a44.942 44.942 0 0 0 10.154 1.183c3.55 0 7.126-.419 10.667-1.265l20.641-4.932c24.417-5.835 39.536-30.448 33.702-54.867zm-34.632 50.976c-.468.112-.935.203-1.403.298-.23.047-.46.104-.69.146-.41.076-.82.133-1.23.196-.286.044-.572.099-.857.137-.354.047-.707.077-1.061.115-.34.037-.681.082-1.021.11-.331.027-.66.038-.99.057-.361.021-.722.05-1.082.062-.312.01-.622.004-.933.007-.376.003-.754.014-1.128.008-.288-.005-.574-.026-.861-.037-.395-.015-.791-.024-1.184-.051-.278-.019-.553-.052-.83-.077-.4-.035-.801-.064-1.198-.111-.235-.028-.467-.068-.7-.1-.436-.059-.873-.114-1.306-.187-.202-.034-.4-.079-.601-.116-.462-.085-.924-.167-1.382-.267-.169-.037-.336-.084-.505-.123-.485-.113-.969-.225-1.449-.354-.189-.051-.375-.113-.563-.167-.455-.13-.911-.258-1.361-.403-.167-.054-.33-.117-.497-.173a41.687 41.687 0 0 1-1.393-.487c-.149-.056-.293-.121-.441-.178-.473-.185-.946-.37-1.412-.571-.121-.052-.239-.112-.359-.166a43.487 43.487 0 0 1-1.453-.67c-.116-.057-.228-.12-.343-.178-.479-.24-.958-.484-1.427-.742-.071-.039-.14-.083-.211-.123a42.185 42.185 0 0 1-1.512-.88c-.093-.057-.182-.12-.275-.178-.471-.294-.94-.593-1.399-.906-.056-.038-.109-.08-.164-.118a42.489 42.489 0 0 1-1.457-1.045l-.074-.059a41.263 41.263 0 0 1-1.49-1.181c-.054-.045-.106-.094-.16-.14a40.514 40.514 0 0 1-1.345-1.175l-.054-.052a41.67 41.67 0 0 1-2.766-2.794l-.003-.004a41.272 41.272 0 0 1-5.791-8.287l-.025-.049a41.412 41.412 0 0 1-3.657-9.727c-5.321-22.273 8.469-44.725 30.742-50.047a41.496 41.496 0 0 1 9.652-1.142c18.774 0 35.844 12.842 40.394 31.883 5.317 22.273-8.473 44.724-30.745 50.046z"/><path d="M537.873 837.06c-7.564 1.808-12.231 9.405-10.424 16.97 1.808 7.564 9.405 12.231 16.97 10.424 7.565-1.808 12.231-9.405 10.424-16.97s-9.406-12.232-16.97-10.424zM986.439 744.841c-5.836-24.418-30.443-39.538-54.866-33.702l-20.642 4.933c-24.418 5.835-39.536 30.448-33.702 54.866 2.827 11.829 10.091 21.85 20.453 28.215a45.947 45.947 0 0 0 6.876 3.443v167.896h4V804.007a44.936 44.936 0 0 0 12.871 1.897c3.55 0 7.126-.419 10.667-1.265l20.641-4.933c11.828-2.826 21.849-10.09 28.214-20.453 6.366-10.361 8.315-22.583 5.488-34.412zm-8.896 32.32c-5.806 9.452-14.946 16.077-25.735 18.655-10.789 2.581-21.937.801-31.39-5.005-9.453-5.807-16.078-14.946-18.656-25.736-2.578-10.789-.801-21.938 5.005-31.39 5.807-9.452 14.946-16.078 25.736-18.656a41.506 41.506 0 0 1 9.653-1.143c18.772 0 35.843 12.843 40.393 31.884 2.578 10.791.8 21.938-5.006 31.391z"/><circle cx="942.155" cy="755.423" r="14.082" transform="rotate(-19.33 942.083 755.39)"/><path d="M510.145 587.699h-4v-74.521c0-23.608-19.206-42.814-42.814-42.814h-93.038l-.605-197.682c-.108-35.125 13.49-68.168 38.289-93.044 24.801-24.876 57.804-38.576 92.93-38.576h137.349c66.688 0 129.384 25.97 176.539 73.124 47.154 47.155 73.124 109.851 73.124 176.538v107.893h-4V390.725c0-65.619-25.554-127.311-71.953-173.709-46.399-46.399-108.091-71.953-173.71-71.953h-137.35c-34.056 0-66.053 13.282-90.097 37.4-24.043 24.117-37.227 56.153-37.122 90.208l.594 193.693h89.05c25.813 0 46.814 21.001 46.814 46.814v74.521z"/><path fill="#FFF" d="M201.553 183.709c17.968-24.864 45.271-43.018 77.879-48.712 21.447-3.746 42.562-1.642 61.712 5.16a34.315 34.315 0 0 0-1.18-11.165c-4.568-16.602-20.559-26.993-37.151-25.024-9.871-21.468-34.106-33.253-57.631-26.78-23.763 6.539-38.619 29.456-35.737 53.208-13.246 7.625-20.213 23.484-15.969 38.905a34.223 34.223 0 0 0 8.077 14.408z"/><defs><path id="a" d="M444.225 226.316a50.481 50.481 0 0 0-5.589.369c-17.602-59.028-72.524-101.856-137.209-101.337-64.689.518-118.922 44.219-135.577 103.521a49.577 49.577 0 0 0-5.586-.278c-27.229.215-49.123 22.466-48.906 49.694.218 27.23 22.468 49.122 49.695 48.904a49.426 49.426 0 0 0 12.008-1.58c22.414 49.722 72.592 84.159 130.639 83.695 58.045-.467 107.666-35.701 129.281-85.778a49.486 49.486 0 0 0 12.035 1.387c27.226-.216 49.119-22.465 48.902-49.693-.221-27.227-22.468-49.123-49.693-48.904z"/></defs><defs><path id="b" d="M302.559 411.31c-56.027.003-107.027-32.566-130.632-83.368a51.541 51.541 0 0 1-10.858 1.249l-.422.002c-13.547 0-26.307-5.224-35.974-14.735-9.768-9.612-15.207-22.452-15.316-36.155s5.124-26.629 14.735-36.396c9.612-9.768 22.452-15.206 36.155-15.314a50.552 50.552 0 0 1 4.135.14c8.458-28.792 26.173-54.752 50.017-73.247 25.09-19.46 55.178-29.881 87.012-30.136 31.836-.207 62.08 9.682 87.477 28.738 24.136 18.11 42.263 43.784 51.181 72.437a51.895 51.895 0 0 1 4.14-.208h.002l.416-.002c28.096 0 51.063 22.743 51.29 50.893.226 28.286-22.603 51.482-50.887 51.708a52.308 52.308 0 0 1-10.88-1.074c-22.942 51.523-73.957 85.012-130.435 85.465l-1.156.003zM174.19 323.251l.693 1.537c22.795 50.571 73.369 82.958 128.8 82.517 55.446-.445 105.478-33.641 127.46-84.57l.668-1.547 1.639.396a47.59 47.59 0 0 0 11.548 1.331c26.078-.208 47.126-21.595 46.918-47.677-.209-26.081-21.604-47.128-47.675-46.922h.002a48.633 48.633 0 0 0-5.37.354l-1.673.201-.481-1.615c-8.491-28.477-26.331-54.036-50.232-71.97-24.379-18.293-53.36-27.942-83.879-27.942-.389 0-.775.002-1.165.005-30.949.248-60.2 10.378-84.591 29.297-23.612 18.314-41.042 44.156-49.076 72.766l-.456 1.623-1.678-.175a50.225 50.225 0 0 0-5.36-.268c-12.636.1-24.475 5.114-33.337 14.12-8.862 9.005-13.688 20.923-13.587 33.559.101 12.635 5.116 24.473 14.122 33.335 9.005 8.862 20.944 13.713 33.558 13.585a47.533 47.533 0 0 0 11.521-1.516l1.631-.424z"/></defs><use xlink:href="#a" fill="#FF8630" overflow="visible"/><use xlink:href="#b" overflow="visible"/><clipPath id="c"><use xlink:href="#a" overflow="visible"/></clipPath><use xlink:href="#a" fill="none" stroke="#000" stroke-miterlimit="10" overflow="visible"/><path d="M166.072 299.677a1.993 1.993 0 0 1-1.461-.635l-30.497-32.629a1.997 1.997 0 0 1 .096-2.826 1.998 1.998 0 0 1 2.826.096l30.497 32.629a1.997 1.997 0 0 1-1.461 3.365zM440.34 297.534a2 2 0 0 1-1.482-3.342l29.972-33.115a2 2 0 1 1 2.965 2.683l-29.972 33.115a1.99 1.99 0 0 1-1.483.659zM238.988 268.354a47.374 47.374 0 0 0-32.959 29.381 2 2 0 0 0 3.746 1.404 43.372 43.372 0 0 1 30.176-26.902c.518-.128 1.039-.227 1.558-.336a18.624 18.624 0 0 0-3.806 8.26c-1.919 10.169 4.768 19.965 14.935 21.882 10.163 1.917 19.964-4.769 21.883-14.936.596-3.16.349-6.281-.565-9.144a43.5 43.5 0 0 1 5.244 3.968 1.999 1.999 0 1 0 2.656-2.99 47.377 47.377 0 0 0-42.868-10.587zM398.078 297.735a47.37 47.37 0 0 0-32.959-29.381 47.371 47.371 0 0 0-42.868 10.587 2 2 0 0 0 2.656 2.99 43.4 43.4 0 0 1 24.244-10.709 18.694 18.694 0 0 0-3.337 5.265c-4.005 9.54.485 20.521 10.02 24.526 9.539 4.006 20.519-.479 24.525-10.02a18.616 18.616 0 0 0 1.277-9.82 43.39 43.39 0 0 1 12.695 17.966 2.001 2.001 0 1 0 3.747-1.404zM301.916 306.667a2 2 0 0 1-2-1.98l-.219-22.12a2 2 0 0 1 1.98-2.02h.02a2 2 0 0 1 2 1.98l.219 22.12a2 2 0 0 1-1.98 2.02h-.02z"/><path fill="#FFF" d="M302.743 673.424c39.12-.001 74.496-15.996 99.962-41.799 1.703-1.424 3.532-3.274 5.56-5.563a164.072 164.072 0 0 0 4.421-5.204c13.015-15.988 20.372-35.828 21.031-56.433l5.481-335.464a5.62 5.62 0 0 0-5.595-6.15 5.619 5.619 0 0 0-5.152 3.375l-33.259 96.359c-9.804 22.14-38.998 27.247-55.667 9.684a53.456 53.456 0 0 1-.326-.347c-8.687-10.465-21.79-17.134-36.454-17.134-14.389 0-27.254 6.44-35.94 16.568-.316.347-.636.691-.96 1.031-16.662 17.473-45.807 12.166-55.53-9.934l-32.986-96.227a5.62 5.62 0 0 0-10.747 2.775l5.692 336.622c.728 22.078 9.153 43.218 23.876 59.687l.532.592c1.078 1.193 2.822 3.119 3.792 4.079 25.61 27.157 61.998 43.482 102.271 43.482h.001m19.711-294.069h-39.113c-10.137 0-17.317-9.899-14.17-19.534l2.902-8.887a23.4 23.4 0 0 1 22.244-16.136h17.162a23.4 23.4 0 0 1 22.244 16.136l2.902 8.887c3.147 9.635-4.034 19.534-14.171 19.534z"/><path d="M316.598 347.182a1.99 1.99 0 0 1-1.324-.502 18.678 18.678 0 0 0-24.442-.261 2 2 0 0 1-2.588-3.05 22.688 22.688 0 0 1 14.658-5.373 22.653 22.653 0 0 1 15.022 5.688 2 2 0 0 1-1.326 3.498z"/><circle cx="234.964" cy="191.685" r="6.925" fill="#FFF"/><circle cx="251.141" cy="167.548" r="6.925" fill="#FFF"/><circle cx="268.392" cy="191.685" r="6.925" fill="#FFF"/><path fill="#FFF" d="M626.358 1080h-219.79c-11.765 0-21.325-7.345-24.356-18.712s1.603-22.497 11.805-28.354l112.233-64.442h184.006v25.159l-74.457 42.752c-10.429 5.988-11.868 16.593-9.932 23.854 1.937 7.263 8.465 15.743 20.491 15.743v4zM507.316 972.491l-111.308 63.911c-10.429 5.988-11.868 16.593-9.932 23.854 1.937 7.263 8.465 15.743 20.491 15.743H612.45c-5.02-3.26-8.755-8.357-10.449-14.712-3.031-11.367 1.603-22.497 11.805-28.354l72.449-41.6V972.49H507.316z"/><path fill="#FF8630" stroke="#000" stroke-miterlimit="10" d="m437.32 1012.039 47.032 26.414"/><path fill="#FFF" d="M484.35 1040.452c-.331 0-.668-.082-.978-.256l-47.032-26.413a2.001 2.001 0 0 1 1.959-3.489l47.032 26.413a2.001 2.001 0 0 1-.981 3.745z"/><path fill="#FF8630" stroke="#000" stroke-miterlimit="10" d="m463.823 996.93 47.032 26.414"/><path fill="#FFF" d="M510.853 1025.344c-.331 0-.668-.082-.978-.256l-47.032-26.414a2.001 2.001 0 0 1 1.959-3.489l47.032 26.414a2.001 2.001 0 0 1-.981 3.745z"/><path fill="#FF8630" stroke="#000" stroke-miterlimit="10" d="m489.375 982.185 47.032 26.414"/><path fill="#FFF" d="M536.405 1010.599c-.331 0-.668-.082-.978-.256l-47.032-26.414a2.001 2.001 0 0 1 1.959-3.489l47.032 26.414a2.001 2.001 0 0 1-.981 3.745z"/><path fill="#FF8630" stroke="#000" stroke-miterlimit="10" d="m654.519 1012.039 47.032 26.414M682.924 996.93l47.032 26.414M708.476 982.185l47.032 26.414"/><path fill="#FFF" d="m726.04 968.491-112.233 64.442c-10.202 5.857-14.836 16.987-11.805 28.354S614.594 1080 626.358 1080h248.559c18.551 0 33.643-15.092 33.643-33.643v-77.866H726.04zm178.519 77.866c0 16.345-13.298 29.643-29.643 29.643H626.358c-12.026 0-18.555-8.48-20.491-15.743-1.937-7.262-.497-17.866 9.932-23.854l38.577-22.15 46.197 25.944a2 2 0 1 0 1.959-3.489l-44.116-24.775 23.332-13.397c.064.047.125.098.197.138l47.032 26.414a2 2 0 1 0 1.959-3.489l-45.173-25.37 21.594-12.399c.047.032.089.069.139.098l47.032 26.414a2 2 0 1 0 1.959-3.489l-45.108-25.333 15.727-9.03h177.453v73.867z"/><path fill="#FF8630" d="m557.44 336.347-25.589-14.853 2.008-3.459 22.322 12.954 15.24-23.128 23.955 13.904 15.239-23.127 23.96 13.901 14.203-21.551 3.34 2.201-16.283 24.706-23.958-13.902-15.241 23.129-23.955-13.903zM580.179 434.24l-25.589-14.85 2.008-3.459 22.321 12.954 15.24-23.127 23.955 13.902 15.241-23.128 23.958 13.903 14.204-21.552 3.34 2.201-16.284 24.706-23.958-13.902-15.241 23.128-23.955-13.903z"/><path d="M552.868 377.97a2 2 0 0 1-.456-3.947l11.681-2.749a2 2 0 1 1 .916 3.894l-11.681 2.749a2.018 2.018 0 0 1-.46.053zm23.361-5.498a2 2 0 0 1-.456-3.947l11.682-2.749a2.006 2.006 0 0 1 2.405 1.489 2.001 2.001 0 0 1-1.489 2.405l-11.682 2.749a2.011 2.011 0 0 1-.46.053zm23.363-5.498a2 2 0 0 1-.456-3.947l11.681-2.749a2.001 2.001 0 0 1 .916 3.894l-11.681 2.749a2.024 2.024 0 0 1-.46.053zm23.361-5.498c-.907 0-1.728-.62-1.944-1.542a1.998 1.998 0 0 1 1.488-2.404l11.681-2.75a2 2 0 0 1 .916 3.892l-11.681 2.75a1.959 1.959 0 0 1-.46.054zm23.362-5.499a2 2 0 0 1-.456-3.947l11.681-2.749a2.001 2.001 0 0 1 .916 3.894l-11.681 2.749a2.011 2.011 0 0 1-.46.053zM576.004 473.963a2 2 0 0 1-.456-3.947l11.681-2.749a2 2 0 0 1 .916 3.894l-11.681 2.749a2.018 2.018 0 0 1-.46.053zm23.361-5.498a2 2 0 0 1-.456-3.947l11.682-2.749a2.001 2.001 0 0 1 .916 3.894l-11.682 2.749a2.011 2.011 0 0 1-.46.053zm23.362-5.498a2 2 0 0 1-.456-3.947l11.681-2.749a2.001 2.001 0 0 1 .916 3.894l-11.681 2.749a2.011 2.011 0 0 1-.46.053zm23.362-5.499a2 2 0 0 1-.456-3.947l11.681-2.749a2.001 2.001 0 0 1 .916 3.894l-11.681 2.749a2.024 2.024 0 0 1-.46.053zm23.362-5.498a2 2 0 0 1-.456-3.947l11.681-2.749a2.001 2.001 0 0 1 .916 3.894l-11.681 2.749a2.018 2.018 0 0 1-.46.053z"/><path fill="#FF8630" d="m603.913 526.538-25.35-15.081 2.045-3.437 22.078 13.135 15.269-22.984 23.714 14.108 15.269-22.985 23.718 14.108 14.219-21.401 3.332 2.213-16.324 24.571-23.718-14.108-15.27 22.985-23.713-14.108z"/><path d="M736.286 405.923a174.506 174.506 0 0 1 2.591 11.572 2.003 2.003 0 0 0 2.336 1.596 2 2 0 0 0 1.596-2.336 178.786 178.786 0 0 0-2.651-11.84 2.001 2.001 0 0 0-3.872 1.008zM723.854 372.65a2 2 0 0 0 3.582-1.78 176.14 176.14 0 0 0-5.77-10.674 1.999 1.999 0 1 0-3.451 2.021 173.322 173.322 0 0 1 5.639 10.433zM732.908 394.556a2 2 0 0 0 3.793-1.269 177.127 177.127 0 0 0-4.246-11.367 2 2 0 1 0-3.697 1.527 172.311 172.311 0 0 1 4.15 11.109zM711.869 352.202a1.999 1.999 0 1 0 3.302-2.256 175.083 175.083 0 0 0-7.188-9.775 2.002 2.002 0 0 0-3.139 2.481 170.69 170.69 0 0 1 7.025 9.55zM745.903 476.931a2 2 0 0 0-4 0v12a2 2 0 0 0 4 0v-12zM745.903 452.931a2 2 0 0 0-4 0v12a2 2 0 0 0 4 0v-12zM743.903 498.931a2 2 0 0 0-2 2v12a2 2 0 0 0 4 0v-12a2 2 0 0 0-2-2zM742.423 426.996a2 2 0 0 0-1.751 2.222c.464 3.909.8 7.886 1 11.818a2 2 0 1 0 3.995-.204 181.685 181.685 0 0 0-1.021-12.086c-.131-1.097-1.126-1.866-2.223-1.75zM670.634 310.025a167.467 167.467 0 0 1 9.395 7.229 1.997 1.997 0 0 0 2.816-.266 2 2 0 0 0-.266-2.816 171.42 171.42 0 0 0-9.621-7.402 2 2 0 1 0-2.324 3.255zM697.174 333.611c.395.434.936.653 1.479.653a2 2 0 0 0 1.478-3.346 175.47 175.47 0 0 0-8.48-8.682 2.002 2.002 0 0 0-2.828.066 2.002 2.002 0 0 0 .066 2.828 170.93 170.93 0 0 1 8.285 8.481zM500.433 279.769h12a2 2 0 0 0 0-4h-12a2 2 0 0 0 0 4z"/><path d="m745.903 526.885-34.012 8.127-.004-.016-58.311-235.638a166.2 166.2 0 0 1 7.17 4.129 2 2 0 1 0 2.084-3.414 168.585 168.585 0 0 0-10.544-5.929l-.116-.468c-8.208-33.426-42.086-53.956-75.512-45.759-16.23 3.979-29.931 14.046-38.576 28.349-.044.073-.082.147-.126.22a1.987 1.987 0 0 0-1.524-.719h-12a2 2 0 0 0 0 4h11.699c-7.045 13.504-8.916 28.913-5.217 43.831l59.896 240.346-178.864 42.741c-53.238 12.722-86.083 66.192-73.361 119.43 12.722 53.238 66.192 86.083 119.43 73.361l141.537-33.822a19.974 19.974 0 0 0 8.346-1.994l23.229-5.551 2.227 9.082c.091.616.2 1.189.335 1.757.023.098 2.958 11.572 3.187 12.266.041.127.095.247.158.359l.02.074c.018.068.039.136.063.201 3.572 9.449 13.681 14.795 23.504 12.441 6.535-1.572 11.63-6.233 13.985-12.131.161.639.26 1.031.275 1.097a19.993 19.993 0 0 0 9.058 12.456 19.991 19.991 0 0 0 15.214 2.404c10.138-2.44 16.729-13.024 14.97-23.569a20.167 20.167 0 0 0 2.436 1.749 19.988 19.988 0 0 0 15.215 2.404c10.304-2.474 16.935-12.591 15.097-23.032a4.528 4.528 0 0 0-.025-.124l-.34-1.403c4.726 3.953 11.197 5.701 17.633 4.157 10.604-2.548 17.229-13.106 14.995-23.71a1.967 1.967 0 0 0-.055-.612l-2.611-10.595 221.818-53.005c53.238-12.722 86.083-66.192 73.361-119.43-12.722-53.238-66.192-86.083-119.43-73.361l-206.314 49.301m-151.204 36.132-59.902-240.382c-3.764-15.181-1.381-30.913 6.71-44.299s20.913-22.809 36.105-26.532a58.343 58.343 0 0 1 13.908-1.687c26.277 0 50.227 17.885 56.766 44.514l.001.004 59.714 241.308-113.302 27.074zm64.989 227.385c-7.845 1.882-15.899-2.361-18.792-9.87l-2.708-10.354a1.975 1.975 0 0 0-.17-.436c-.238-.932-.404-1.583-.438-1.726a16.731 16.731 0 0 1-.28-1.491 1.806 1.806 0 0 0-.037-.192l-2.244-9.152 31.334-7.488 3.195 12.975 2.402 10.414c.83 8.001-4.425 15.435-12.262 17.32zm38.531 3.827a16.007 16.007 0 0 1-12.189-1.926 16.02 16.02 0 0 1-7.258-9.982c-.032-.132-.377-1.502-.889-3.536-1.504-5.979-5.026-19.98-5.188-20.762a1.693 1.693 0 0 0-.038-.196l-2.245-9.102 31.358-7.493 2.642 10.72 5.507 21.979.025.118c2.134 8.894-3.235 18.136-11.725 20.18zm32.621-19.417a16.013 16.013 0 0 1-12.191-1.926 16.029 16.029 0 0 1-7.257-9.994l-.357-1.431c-.696-2.785-2.815-11.262-2.944-11.934a1.835 1.835 0 0 0-.04-.209l-2.234-9.055 31.352-7.492 2.903 11.784 2.871 11.866c1.436 8.345-3.87 16.414-12.103 18.391zm32.364-20.402c-8.639 2.072-17.368-3.266-19.446-11.899-.109-.466-.2-.954-.276-1.494a1.854 1.854 0 0 0-.039-.197l-2.223-9.015 31.358-7.493 2.479 10.059c-.013.237.017.478.089.709 2 8.607-3.335 17.261-11.942 19.33z"/><path fill="#FF8630" stroke="#000" stroke-miterlimit="10" d="M21.645 501.358h137.222v49.587H21.645z"/><path d="M170.997 549.416a83.163 83.163 0 0 0-10.13-32.666v-15.392a2 2 0 0 0-2-2h-10.858c-15.249-15.892-36.672-25.813-60.385-25.813s-45.139 9.922-60.392 25.813h-5.587a2 2 0 0 0-2 2v7.105c-9.914 13.76-15.777 30.622-15.777 48.838 0 10.494 8.507 19 19 19s19-8.506 19-19c0-1.47.076-2.921.213-4.356h91.071c.125 1.31.205 2.632.216 3.971V1060.7c0 10.505 8.516 19.021 19.021 19.021s19.021-8.516 19.021-19.021V553.358a18.897 18.897 0 0 0-.413-3.942zm-14.13-46.058v6.905a84.348 84.348 0 0 0-5.243-6.905h5.243zM42.648 548.945c3.94-21.251 22.602-37.399 44.976-37.399s41.028 16.148 44.968 37.399H42.648zM167.412 1060.7c0 8.283-6.739 15.021-15.021 15.021s-15.021-6.738-15.021-15.021V608.438h30.042V1060.7z"/><path fill="#FF8630" stroke="#000" stroke-miterlimit="10" d="M55.951 477.278v16.431c0 9.301 7.232 17.222 16.527 17.553 9.758.347 17.778-7.461 17.778-17.142v-16.842c0-9.473-7.68-17.153-17.153-17.153-9.473 0-17.152 7.679-17.152 17.153z"/><path d="M73.111 513.273c-.234 0-.469-.005-.705-.013-10.176-.362-18.455-9.134-18.455-19.552v-16.432c0-10.561 8.592-19.152 19.152-19.152s19.152 8.592 19.152 19.152v16.843c0 5.245-2.079 10.14-5.854 13.782a18.986 18.986 0 0 1-13.29 5.372zm-.008-51.148c-8.355 0-15.152 6.797-15.152 15.152v16.432c0 8.29 6.549 15.268 14.598 15.554a15.047 15.047 0 0 0 11.076-4.238 15.03 15.03 0 0 0 4.631-10.904v-16.843c0-8.356-6.797-15.153-15.153-15.153z"/><path fill="#FF8630" stroke="#000" stroke-miterlimit="10" d="M90.256 477.278v16.431c0 9.301 7.232 17.222 16.527 17.553 9.758.347 17.778-7.461 17.778-17.142v-16.842c0-9.473-7.68-17.153-17.153-17.153-9.472 0-17.152 7.679-17.152 17.153z"/><path d="M107.417 513.273c-.234 0-.469-.005-.705-.013-10.177-.362-18.456-9.134-18.456-19.552v-16.432c0-10.561 8.592-19.152 19.153-19.152 10.561 0 19.152 8.592 19.152 19.152v16.843c0 5.245-2.079 10.14-5.854 13.782a18.988 18.988 0 0 1-13.29 5.372zm-.008-51.148c-8.355 0-15.153 6.797-15.153 15.152v16.432c0 8.29 6.549 15.268 14.599 15.554a15.049 15.049 0 0 0 11.076-4.238 15.03 15.03 0 0 0 4.631-10.904v-16.843c-.001-8.356-6.797-15.153-15.153-15.153z"/><path fill="#FF8630" stroke="#000" stroke-miterlimit="10" d="M168.982 533.793h-16.431c-9.301 0-17.222 7.232-17.553 16.527-.347 9.758 7.461 17.778 17.142 17.778h16.842c9.473 0 17.153-7.68 17.153-17.153 0-9.473-7.679-17.152-17.153-17.152z"/><path d="M168.982 570.099H152.14c-5.245 0-10.141-2.079-13.783-5.854-3.642-3.773-5.544-8.744-5.357-13.995.361-10.177 9.133-18.456 19.552-18.456h16.431c10.562 0 19.153 8.592 19.153 19.152-.001 10.561-8.592 19.153-19.154 19.153zm-16.431-34.306c-8.291 0-15.269 6.549-15.554 14.599-.148 4.156 1.356 8.09 4.237 11.075a15.035 15.035 0 0 0 10.905 4.632h16.842c8.355 0 15.153-6.798 15.153-15.153s-6.798-15.152-15.153-15.152h-16.43z"/><path fill="#FF8630" stroke="#000" stroke-miterlimit="10" d="M21.645 484.927v16.431c0 9.301 7.232 17.222 16.527 17.553 9.758.347 17.778-7.461 17.778-17.142v-16.842c0-9.473-7.68-17.153-17.153-17.153-9.472 0-17.152 7.68-17.152 17.153z"/><path d="M38.807 520.923c-.234 0-.469-.005-.705-.013-10.177-.362-18.456-9.134-18.456-19.552v-16.432c0-10.561 8.592-19.152 19.152-19.152 10.562 0 19.153 8.592 19.153 19.152v16.843c0 5.244-2.079 10.14-5.854 13.782a18.992 18.992 0 0 1-13.29 5.372zm-.009-51.149c-8.355 0-15.152 6.797-15.152 15.152v16.432c0 8.29 6.549 15.268 14.599 15.554 4.149.162 8.09-1.357 11.075-4.238a15.03 15.03 0 0 0 4.632-10.904v-16.843c-.001-8.356-6.799-15.153-15.154-15.153z"/><path fill="#FF8630" stroke="#000" stroke-miterlimit="10" d="M124.562 491.372v16.431c0 9.301 7.232 17.222 16.527 17.553 9.758.347 17.778-7.461 17.778-17.142v-16.842c0-9.473-7.68-17.153-17.153-17.153-9.473 0-17.152 7.68-17.152 17.153z"/><path d="M141.724 527.367c-.234 0-.47-.005-.706-.013-10.177-.361-18.456-9.133-18.456-19.552v-16.431c0-10.562 8.592-19.153 19.153-19.153 10.561 0 19.152 8.592 19.152 19.153v16.842c0 5.246-2.079 10.141-5.854 13.784a18.988 18.988 0 0 1-13.289 5.37zm-.009-51.148c-8.355 0-15.153 6.798-15.153 15.153v16.431c0 8.291 6.549 15.269 14.599 15.554a15.082 15.082 0 0 0 11.075-4.237 15.028 15.028 0 0 0 4.632-10.905v-16.842c-.001-8.356-6.798-15.154-15.153-15.154z"/><g fill="#FFF"><path d="M449.423 713.282c.417 1.732-.819 3.404-2.606 3.835-.596.144-1.363.1-2.129.055l-40.319-6.228c-1.969-.328-2.893-1.023-3.231-2.432-.339-1.407.381-2.611 1.772-3.634l33.075-23.884c.662-.389 1.324-.776 1.92-.92 1.788-.43 3.649.497 4.066 2.229.286 1.191-.525 2.533-1.918 3.556l-28.551 20.159 34.597 4.969c1.704.279 3.038 1.104 3.324 2.295zM475.366 706.926c-2.215-9.206 6.438-17.246 18.591-20.17 6.672-1.605 13.921-1.859 19.443.136l-.965-4.008c-1.954-8.124-9.188-11.998-20.269-9.333-4.052.975-8.064 2.628-11.978 5.747-1.273.994-2.92 2.535-4.469 2.908-2.145.516-3.768-.47-4.211-2.311-.391-1.624.778-3.052 2.781-4.68 2.733-2.262 8.937-5.816 16.443-7.622 15.607-3.755 25.511.738 28.586 13.52l6.201 25.778c.521 2.167-.357 3.753-2.621 4.298-2.025.487-3.768-.469-4.289-2.636l-.26-1.083c-4.011 4.288-10.582 7.358-17.255 8.964-12.15 2.924-23.513-.301-25.728-9.508zm40.985-9.86c-1.277-5.308-8.675-7.769-19.04-5.274-10.366 2.494-15.835 8.05-14.559 13.357s8.675 7.768 19.041 5.273c10.366-2.493 15.836-8.048 14.558-13.356zM574.6 692.449c5.72-1.376 10.942-4.81 14.916-9.776 1.355-1.701 2.245-2.717 4.032-3.146 1.669-.401 3.529.525 3.895 2.041.391 1.625-.209 2.801-1.684 4.53-4.396 5.298-11.386 10.303-19.726 12.309-15.37 3.698-29.588-3.538-33.001-17.729-3.414-14.188 5.957-27.099 21.326-30.797 8.341-2.006 16.841-.728 23.166 1.989 2.101.87 3.169 1.645 3.56 3.27.365 1.516-.87 3.188-2.539 3.59-1.788.43-3.042-.071-5.022-.97-5.797-2.614-12.012-3.298-17.73-1.922-10.246 2.466-18.177 11.936-15.492 23.092 2.683 11.157 14.053 15.985 24.299 13.519zM671.282 671.022c.442 1.841-.581 3.348-3.202 3.979l-42.654 10.262c-2.62.631-4.218-.246-4.66-2.087-.417-1.732.607-3.239 3.228-3.87 3.575-.86 9.134-1.854 12.733-2.605l-8.442-35.094c-3.31.911-9.069 2.641-12.525 3.472-2.62.63-4.218-.246-4.661-2.087-.417-1.732.607-3.24 3.229-3.87l15.846-3.812c2.383-.573 4.126.384 4.646 2.549l.756 3.141c1.676-6.131 8.013-10.177 14.209-11.668 3.812-.917 8.905-1.226 12.763.139 1.783.602 2.759 1.514 3.098 2.921.442 1.842-.819 3.406-2.487 3.808-1.787.43-3.373.123-4.985-.291-2.696-.727-5.646-.935-8.981-.132-8.578 2.064-12.391 10.315-10.071 19.955l4.639 19.28c5.335-1.398 18.481-4.905 22.89-5.966 2.616-.633 4.214.244 4.631 1.976zM685.163 646.484c-3.388-14.08 5.958-27.099 21.327-30.797 15.37-3.697 29.615 3.646 33.002 17.727 3.389 14.082-5.958 27.102-21.327 30.799-15.37 3.698-29.614-3.647-33.002-17.729zm47.061-11.321c-2.58-10.722-13.459-16.127-24.301-13.519s-18.072 12.37-15.493 23.092c2.58 10.724 13.459 16.128 24.301 13.52 10.843-2.609 18.074-12.369 15.493-23.093zM803.944 639.909l-5.811-24.153c-2.606-10.832-9.792-13.458-17.536-11.595-8.459 2.035-14.021 7.728-11.391 18.667l5.785 24.046c.521 2.167-.476 3.782-2.74 4.327-2.025.487-3.768-.469-4.289-2.636l-10.006-41.593c-.521-2.166.477-3.781 2.74-4.325 2.025-.488 3.768.468 4.289 2.634l.756 3.142c2.428-5.625 8.061-8.929 14.613-10.506 11.915-2.866 21.342 1.741 24.469 14.739l6.149 25.562c.521 2.167-.477 3.782-2.74 4.327-2.024.487-3.766-.469-4.288-2.636zM831.317 655.209c-.443-1.841.938-3.434 2.726-3.863 1.31-.315 2.699-.306 3.969-.268 1.652.061 3.492-.153 4.802-.468 3.456-.832 6.558-2.608 8.55-4.807 3.373-3.791 5.991-10.723 6.694-15.132l-31.292-36.815c-1.054-1.236-2.055-2.255-2.342-3.446-.417-1.733.607-3.24 2.871-3.785 1.787-.43 3.266.475 4.713 2.304l28.154 34.247 9.496-43.306c.457-2.286 1.362-3.765 3.149-4.194 2.265-.545 3.861.331 4.278 2.064.287 1.191-.142 2.556-.518 4.136L865.51 628.65c-3.775 16.262-8.755 24.907-22.456 28.203-7.028 1.692-11.06 1.172-11.737-1.644zM909.622 573.121c-6.553 1.576-8.396 6.489-6.937 12.556l6.931 28.811c.521 2.166-.356 3.753-2.621 4.298-2.024.487-3.648-.497-4.17-2.665l-10.006-41.592c-.521-2.166.358-3.753 2.621-4.298 2.026-.487 3.648.497 4.17 2.663l.417 1.734c1.668-4.068 4.826-6.662 9.949-7.895 5.719-1.375 10.607.085 13.809 3.438 1.87-4.803 5.254-8.024 11.092-9.429 9.77-2.351 16.223 1.941 18.959 13.314l6.774 28.161c.521 2.167-.357 3.754-2.621 4.298-2.025.487-3.648-.497-4.17-2.664l-6.696-27.837c-1.746-7.257-5.213-10.663-12.123-9-6.553 1.576-8.276 6.46-6.817 12.526l6.932 28.811c.521 2.167-.358 3.754-2.622 4.298-2.025.487-3.648-.497-4.17-2.664l-6.932-28.811c-1.459-6.065-5.215-9.63-11.769-8.053zM972.366 554.704c-.417-1.732.819-3.405 2.606-3.835.596-.144 1.363-.1 2.131-.055l40.317 6.228c1.706.276 2.893 1.022 3.231 2.43.339 1.408-.167 2.447-1.772 3.635l-33.073 23.885c-.664.389-1.326.776-1.922.92-1.787.43-3.648-.498-4.065-2.23-.287-1.191.405-2.503 1.917-3.555l28.551-20.16-34.596-4.968c-1.824-.249-3.038-1.103-3.325-2.295z"/></g><path fill="#FF8630" d="m710.946 537.388 5.627 26.781a31.072 31.072 0 0 0 4.766 10.507c2.329 3.303 5.707 7.601 9.827 11.445.737.687 1.537 1.301 2.33 1.922 6.743 5.278 11.484 12.992 12.9 21.804l7.627 31.743 9.541 39.707 13.573 55.068-.084.025c.001.003.008.009.009.015 2.337 9.73-3.659 19.52-13.392 21.86-9.732 2.338-19.516-3.655-21.859-13.385a18.768 18.768 0 0 1-.31-1.672L728.32 689.76l-.149.04 13.845 56.197 2.885 11.929c1.647 9.351-4.236 18.494-13.594 20.741-9.737 2.343-19.521-3.652-21.859-13.391-.135-.556-3.264-13.008-3.34-13.568l-13.183-53.444-.148.035 13.574 55.076 5.72 22.83-.184-.712c2.336 9.731-3.469 20.247-13.201 22.59-9.731 2.343-19.519-3.653-21.859-13.383-.136-.561-6.033-23.93-6.112-24.484l-13.185-53.447-.148.039 14.114 57.322 2.429 10.53c.991 8.944-4.79 17.437-13.772 19.598-8.972 2.151-17.984-2.789-21.165-11.204l-2.735-10.459 2.522 9.907c-.178-.54-3.007-11.551-3.143-12.112a18.526 18.526 0 0 1-.313-1.669l-16.769-68.396-.746.087-.41 47.188-.088-.005c-.002.007-.001.016-.001.025-.089 10.01-8.276 18.052-18.281 17.965-10.011-.09-18.057-8.275-17.966-18.282.002-.572.043-1.13.098-1.685l.798-90.943a53.131 53.131 0 0 1-.114-3.691 51.111 51.111 0 0 1 10.826-31.075 33.658 33.658 0 0 0 4.565-7.842l.091-.222c2.865-7.037 3.303-14.83 1.475-22.204l-6.227-24.289 118.376-27.964z"/><path stroke="#000" stroke-miterlimit="10" d="M694.41 800.594a19.991 19.991 0 0 1-10.47-2.97 19.993 19.993 0 0 1-9.058-12.456l-.275-1.097c-2.355 5.897-7.45 10.559-13.985 12.131-9.823 2.354-19.932-2.992-23.504-12.441a1.953 1.953 0 0 1-.063-.201l-.02-.074a1.964 1.964 0 0 1-.158-.359c-.229-.693-3.163-12.168-3.187-12.266a20.356 20.356 0 0 1-.335-1.757l-13.663-55.727-.298 34.239c-.002.21-.037.417-.102.612-.409 10.762-9.292 19.355-20.105 19.356l-.18-.001a20.002 20.002 0 0 1-14.18-6.02 19.983 19.983 0 0 1-5.669-16.054l.796-90.784a54.964 54.964 0 0 1-.113-3.758c.107-11.826 3.997-22.99 11.249-32.289a31.665 31.665 0 0 0 4.294-7.377l.088-.213c2.639-6.481 3.131-13.929 1.386-20.968l-6.224-24.274a1.998 1.998 0 0 1 1.478-2.443l118.374-27.962a1.998 1.998 0 0 1 2.417 1.535l5.627 26.78a28.908 28.908 0 0 0 4.444 9.767c2.087 2.96 5.439 7.294 9.556 11.134.61.569 1.282 1.095 1.994 1.65l.205.16c7.309 5.721 12.146 13.881 13.629 22.984l17.15 71.378 13.57 55.057c.051.205.068.411.055.612 2.233 10.604-4.392 21.162-14.995 23.71-6.436 1.544-12.907-.204-17.633-4.157l.34 1.403a1.7 1.7 0 0 1 .025.124c1.838 10.441-4.793 20.559-15.097 23.032a19.993 19.993 0 0 1-15.215-2.404 20.247 20.247 0 0 1-2.436-1.749c1.76 10.545-4.832 21.129-14.97 23.569-1.572.38-3.163.568-4.742.568zm-36.88-95.824a2.003 2.003 0 0 1 1.941 1.52l13.185 53.446c.017.065.029.131.038.196.162.781 3.685 14.783 5.188 20.762l.889 3.536a16.02 16.02 0 0 0 7.258 9.982c3.674 2.25 8 2.934 12.189 1.926 8.49-2.044 13.859-11.285 11.725-20.18a1.544 1.544 0 0 1-.025-.118l-5.507-21.979-13.575-55.083a2 2 0 0 1 1.48-2.425l.148-.035a2.005 2.005 0 0 1 2.402 1.468l13.183 53.443c.018.068.03.139.04.209.129.672 2.248 9.148 2.944 11.934l.357 1.431a16.029 16.029 0 0 0 7.257 9.994 16.013 16.013 0 0 0 12.191 1.926c8.233-1.978 13.539-10.047 12.103-18.39l-2.871-11.866-13.843-56.188a2 2 0 0 1 1.425-2.41l.149-.04a1.997 1.997 0 0 1 2.459 1.453l13.181 53.448c.017.064.029.131.039.197.076.54.167 1.028.276 1.494 2.078 8.634 10.808 13.972 19.446 11.899 8.607-2.069 13.942-10.724 11.941-19.331a2.016 2.016 0 0 1-.089-.709l-13.434-54.505-17.171-71.462a1.572 1.572 0 0 1-.03-.149c-1.308-8.136-5.625-15.433-12.157-20.546l-.202-.158c-.748-.584-1.522-1.188-2.261-1.877-4.366-4.074-7.9-8.641-10.097-11.755a32.96 32.96 0 0 1-5.074-11.183l-5.22-24.84-114.396 27.021 5.722 22.315c1.979 7.984 1.438 16.09-1.561 23.455l-.095.231a35.63 35.63 0 0 1-4.837 8.309c-6.707 8.601-10.304 18.927-10.403 29.864a50.685 50.685 0 0 0 .11 3.551c.003.046.004.093.004.139l-.798 90.943a2.22 2.22 0 0 1-.01.182 16.014 16.014 0 0 0 4.532 12.944 16.028 16.028 0 0 0 11.362 4.823l.144.001c8.82 0 16.036-7.137 16.12-15.977a2.03 2.03 0 0 1 .093-.619l.406-46.596a2 2 0 0 1 1.768-1.969l.75-.088c1-.109 1.93.533 2.171 1.511l16.769 68.396c.016.063.028.128.037.192.077.533.168 1.021.28 1.491.034.143.2.794.438 1.726.072.135.13.28.17.436l2.708 10.354c2.893 7.509 10.947 11.752 18.792 9.87 7.837-1.886 13.092-9.319 12.262-17.319l-2.402-10.414-14.107-57.293a2 2 0 0 1 1.442-2.415l.147-.038a2.13 2.13 0 0 1 .504-.061z"/></svg>
