<svg xmlns="http://www.w3.org/2000/svg" viewBox="0 0 1080 1080" xml:space="preserve"><path fill="#FFD829" d="m674.53 400.22 76.06 41.16-37.33 78.03 85.76-11.45 15.59 85.11 62.66-59.7 62.65 59.7 15.59-85.11 85.77 11.45-37.34-78.03 76.06-41.16-76.06-41.17 37.34-78.03-85.77 11.45-15.59-85.11-62.65 59.71-62.66-59.71-15.59 85.11-85.76-11.45 37.33 78.03z"/><path d="M774.32 1042.72a42.64 42.64 0 0 0 42.65-42.62V668.86c8.9-1.17 17.99-1.78 27.21-1.78 113.92 0 206.27 92.35 206.27 206.27 0 113.92-92.35 206.27-206.27 206.27a205.3 205.3 0 0 1-117.74-36.9h47.88z"/><circle fill="#FFF" cx="879.27" cy="402" r="7.86"/><path fill="#FFF" d="m964.7 700.15-3.29-2.28c2.77-3.98 4.9-4.31 7.4-4.31h.23c1.39 0 2.74-.06 5.01-1.65 13.68-9.54 28.13-24.57 40.88-37.82 4.02-4.18 7.82-8.13 11.48-11.8 17.41-17.46 27.1-37.6 27.28-56.73.15-16.07-6.58-31.52-18-41.33-10.12-8.7-23.73-12.56-36.26-10.64.49 2.5.9 5.02 1.26 7.55.67 4.84 1.26 10.45-.27 15.77-1.74 6.07-6.25 10.65-11.5 11.67-4 .79-8.16-.62-11.4-3.86-3.9-3.9-5.79-9.7-4.8-14.78 1.57-8.08 8.47-14.97 18.46-18.42a43.1 43.1 0 0 1 3.52-1.05 139.33 139.33 0 0 0-6.99-22.47c-15.64-38.4-47.9-67.83-72.2-85.75-8.13-6-16.46-10.62-27.82-15.43-2.6-1.1-5.3-2.25-8-3.11l1.2-3.81c2.9.92 5.67 2.1 8.36 3.24 11.67 4.94 20.23 9.7 28.64 15.9 24.71 18.22 57.53 48.18 73.53 87.45 3.03 7.44 5.44 15.2 7.2 23.18 13.72-2.16 28.63 2.03 39.68 11.53 12.3 10.57 19.55 27.17 19.39 44.4-.2 20.17-10.3 41.3-28.45 59.51a992.17 992.17 0 0 0-11.43 11.75c-12.87 13.39-27.47 28.56-41.47 38.33-3.4 2.37-5.78 2.36-7.48 2.37-1.62 0-2.35 0-4.17 2.6zm30.8-165.75c-1.02.26-2.03.56-3.02.9-6.66 2.31-14.31 7.57-15.84 15.41-.73 3.75.75 8.25 3.7 11.19 1.33 1.34 4.13 3.49 7.8 2.77 3.79-.74 7.1-4.22 8.43-8.85 1.31-4.57.76-9.68.15-14.11-.35-2.46-.75-4.9-1.22-7.31z"/><path d="m994.06 761.33-81.48-60.5 38.64-52.05 81.48 60.5zM600.29 107.48 492.27 363.2l-.6 1.4.5 1.45 148.25 433.52-147.18 135.75-2.45 2.26 1.78 2.82 62.64 98.98H44.55A40.58 40.58 0 0 1 4 998.86V107.48h596.29m6.03-4H0v895.38a44.54 44.54 0 0 0 44.55 44.52h517.92l-66.52-105.12 149.1-137.52-149.1-435.98 110.37-261.28zM44.55 37.27A44.54 44.54 0 0 0 0 81.79v21.69h606.32l27.97-66.21H44.55zm47.8 52.98a17.07 17.07 0 1 1 0-34.14 17.07 17.07 0 0 1 0 34.14z"/><circle fill="#FFF" cx="140.75" cy="73.18" r="17.07"/><circle fill="#FFD829" cx="43.96" cy="73.18" r="17.07"/><circle cx="43.67" cy="73.35" r="5.89"/><path fill="#FFF" d="M125.5 1080a36.7 36.7 0 0 1 36.7-36.7 36.7 36.7 0 0 1-36.7-36.7 36.7 36.7 0 0 1-36.7 36.7 36.7 36.7 0 0 1 36.7 36.7z"/><path d="m813.26 107.25.78 891.38c.01 10.82-4.2 21-11.84 28.66a40.3 40.3 0 0 1-28.67 11.91l-155.51.35-63.69-100.35 146.48-135.44 1.9-1.77-.84-2.47-148.8-434.35L661.5 107.59l151.77-.34m4-4-158.43.35L548.8 365.02l149.3 435.8-148.92 137.7 66.65 105.03 157.72-.35a44.54 44.54 0 0 0 44.5-44.58l-.78-895.38z"/><path d="m817.26 103.25-.03-21.7a44.54 44.54 0 0 0-44.6-44.46l-85.91.27-27.88 66.24 158.42-.35z"/><path fill="#FFF" d="M813.98 979.6a36.68 36.68 0 0 1 36.7-36.66 36.68 36.68 0 0 1-36.7-36.67 36.68 36.68 0 0 1-36.7 36.67 36.68 36.68 0 0 1 36.7 36.66zM736.91 73.4a36.7 36.7 0 0 1 36.7-36.7A36.7 36.7 0 0 1 736.91 0a36.7 36.7 0 0 1-36.7 36.7 36.7 36.7 0 0 1 36.7 36.7z"/><g fill="#FFF"><path d="M365.86 317.26c1.98 0 3.08 1.32 3.08 2.97a3.8 3.8 0 0 1-.55 1.98L315.6 411c-.55.99-1.65 1.87-2.86 1.87-1.98 0-3.08-1.32-3.08-2.97 0-.77.22-1.43.55-1.98l52.8-88.78c.55-.99 1.65-1.87 2.86-1.87z"/><path d="M312.73 414.86a4.86 4.86 0 0 1-5.08-4.97c0-1.08.28-2.09.84-3.01l52.8-88.77a5.42 5.42 0 0 1 4.57-2.85 4.86 4.86 0 0 1 5.08 4.97 5.8 5.8 0 0 1-.83 3.01l-52.8 88.77a5.42 5.42 0 0 1-4.58 2.85zm53.13-95.6c-.35 0-.85.38-1.1.85l-52.84 88.82c-.18.3-.27.61-.27.96 0 .67.33.97 1.08.97.36 0 .86-.38 1.11-.84l52.83-88.83c.19-.3.27-.61.27-.95 0-.68-.33-.98-1.08-.98zm39.49 22.54c4.4 0 7.81 3.08 7.81 7.26s-3.4 7.26-7.8 7.26-7.82-3.08-7.82-7.26 3.41-7.26 7.81-7.26zm0 34.75c4.4 0 7.81 3.08 7.81 7.27 0 4.18-3.4 7.26-7.8 7.26s-7.82-3.08-7.82-7.26c0-4.19 3.41-7.26 7.81-7.26z"/><path d="M405.35 393.08c-5.6 0-9.8-3.98-9.8-9.26s4.2-9.26 9.8-9.26 9.81 3.98 9.81 9.26-4.22 9.26-9.8 9.26zm0-14.52c-3.37 0-5.8 2.2-5.8 5.26s2.43 5.26 5.8 5.26c3.37 0 5.81-2.22 5.81-5.26s-2.44-5.26-5.8-5.26zm0-20.24c-5.6 0-9.8-3.99-9.8-9.27s4.2-9.26 9.8-9.26 9.81 3.98 9.81 9.26-4.22 9.27-9.8 9.27zm0-14.52c-3.37 0-5.8 2.2-5.8 5.26s2.43 5.26 5.8 5.26c3.37 0 5.81-2.22 5.81-5.26s-2.44-5.26-5.8-5.26z"/></g><path fill="#FFD829" d="M130.68 965.38c-6.23 0-12.16-1.1-17.04-3.86a21.8 21.8 0 0 1-7.37-6.74c-3.27 1-6.64 1.86-10.08 2.51-8.91 1.7-17 2.35-26.2 2.07a2 2 0 0 1-1.94-2.06c.03-1.1.95-2 2.06-1.94 8.9.26 16.72-.35 25.34-2 2.99-.57 5.95-1.3 8.83-2.16a30.7 30.7 0 0 1-2.4-9.64c-1.07-11.14 2.68-26.44 16.42-35.96 7.02-4.85 15.78-6.3 22.87-3.8 8.12 2.9 13.67 11.34 12.65 19.24-1.89 14.47-19.15 22.24-27.44 25.98a183.29 183.29 0 0 1-16.08 6.46 17.83 17.83 0 0 0 5.32 4.56c8.75 4.97 27.6 5.24 49.94-5.35a154.7 154.7 0 0 0 4.5-2.22 20.95 20.95 0 0 1-2.2-6.53c-2.46-14.87 4.04-29.59 16.58-37.48 9.73-6.13 18.38-3.7 22.64 1.42 4.21 5.07 5 13.92-2.72 22.27-7.54 8.15-17.07 15.43-28.41 21.72.84.9 1.8 1.7 2.88 2.44 5.39 3.63 13.44 4.85 21 3.17 12.63-2.8 24.06-7.26 34.14-13.32-.05-.13-.1-.26-.13-.39-3.18-9.86-1.5-21.46 4.36-30.27 3.11-4.67 7.66-8.59 12.18-10.48 4.27-1.78 8.23-1.4 11.14 1.08 3.5 2.97 4.89 8.46 3.56 14-2.2 9.22-10.67 15.96-17.47 21.37l-.6.5a101.12 101.12 0 0 1-7.93 5.7c3.47 5.57 10.14 6.56 15.77 5.43a253.54 253.54 0 0 0 65.87-22.98 2 2 0 1 1 1.82 3.56 257.48 257.48 0 0 1-66.9 23.34c-8.67 1.74-16.08-1.06-19.95-7.24-10.36 6.19-22.08 10.75-34.99 13.6-8.6 1.91-17.84.47-24.1-3.76a20.65 20.65 0 0 1-4.27-3.82 159.5 159.5 0 0 1-5.05 2.51c-8.67 4.1-23.3 9.07-36.6 9.07zm3.15-60.8c-4.46 0-9.18 1.5-13.25 4.31-12.32 8.53-15.69 22.27-14.73 32.29a26.13 26.13 0 0 0 2.3 8.8 176.06 176.06 0 0 0 16.58-6.6c11.63-5.24 23.71-12.06 25.12-22.86.8-6.1-3.61-12.67-10.02-14.94a17.9 17.9 0 0 0-6-1zm61.99 2.27c-2.75 0-5.9.88-9.25 3-11.17 7.03-16.96 20.15-14.76 33.43.32 1.94.92 3.72 1.78 5.32 11.15-6.13 20.49-13.23 27.83-21.17 4.38-4.73 6.88-11.82 2.58-16.99a10.46 10.46 0 0 0-8.18-3.59zm59.64-.93a9.4 9.4 0 0 0-3.54.8c-3.76 1.57-7.74 5.01-10.4 9-5.08 7.64-6.62 17.64-4.06 26.23a96.84 96.84 0 0 0 7.04-5.12l.62-.48c6.31-5.04 14.18-11.3 16.07-19.19.96-4.02.05-8.04-2.26-10.02a5.19 5.19 0 0 0-3.47-1.22zM489.1 224.35a13.82 13.82 0 0 0-8.37-24.81h-4.23a13.82 13.82 0 0 0-6.91-22.27c5.19-6.3-1.97-14.55-1.97-14.55-2.78 10.26-17.2 14.15-17.2 14.15a13.82 13.82 0 0 0-8.92 22.67h-4.23a13.82 13.82 0 0 0-13.82 13.82 13.8 13.8 0 0 0 5.45 11h-1.32a13.82 13.82 0 1 0 0 27.64h61.47a13.82 13.82 0 0 0 .04-27.64zm-47.26-2.68a5.02 5.02 0 1 1 10.03 0 5.02 5.02 0 0 1-10.03 0zm5.99 18.72a10.63 10.63 0 1 1 21.26 0h-21.26zm21.95-13.7a5.02 5.02 0 1 1 0-10.04 5.02 5.02 0 0 1 0 10.04zM338.43 812.57a13.82 13.82 0 0 0-8.37-24.81h-4.22a13.82 13.82 0 0 0-6.91-22.27v-.01c5.18-6.3-1.98-14.55-1.98-14.55-2.78 10.26-17.19 14.15-17.19 14.15a13.82 13.82 0 0 0-8.93 22.67h-4.22a13.82 13.82 0 0 0-13.82 13.82 13.8 13.8 0 0 0 5.45 11h-1.32a13.82 13.82 0 1 0 0 27.64h61.47a13.82 13.82 0 0 0 .04-27.64zm-47.26-2.69a5.02 5.02 0 1 1 10.04 0 5.02 5.02 0 0 1-10.04 0zm6 18.72a10.63 10.63 0 1 1 21.25 0h-21.26zm21.94-13.7a5.02 5.02 0 1 1 0-10.04 5.02 5.02 0 0 1 0 10.04z"/><path fill="#FFF" d="M70.05 167.12h305.38v90.9H70.05zm0 146.82h199.8v90.9H70.05zm0 436.18H230.3v90.9H70.05z"/><path d="M80.53 460.77h377.79v90.9H80.53zM70.05 605.44h199.8v90.9H70.05z"/><path fill="#FFF" d="M391.68 716.36 46.77 543.76l33.13-82.99 344.9 172.6zm203.98-3.38 98.64 137.5 57.74-41.42a84.63 84.63 0 0 0 26.04-107.23l-124.69-30.27-57.73 41.42zM407.58 847.9a84.61 84.61 0 0 0 98.64 137.5l57.74-41.42-98.64-137.5-57.74 41.42z"/><path d="m465.29 806.47 130.33-93.5 98.64 137.49-130.33 93.5zM660.65 682.6a83.81 83.81 0 0 0 117.43 19.23l-124.69-30.27c1.9 3.72 4.75 7.54 7.26 11.04z"/><g fill="#FFD829"><circle cx="515.45" cy="818.75" r="12.72"/><circle cx="553.33" cy="791.57" r="12.72"/><circle cx="591.22" cy="764.39" r="12.72"/><circle cx="541.92" cy="855.66" r="12.72"/><circle cx="579.81" cy="828.48" r="12.72"/><circle cx="617.7" cy="801.3" r="12.72"/><circle cx="568.4" cy="892.57" r="12.72"/><circle cx="606.29" cy="865.39" r="12.72"/><circle cx="644.17" cy="838.21" r="12.72"/></g></svg>